{
  "jsonPath": "Animes/Miracle Girls MIDI Collection/girls-theme.json",
  "path": "Animes\\Miracle Girls MIDI Collection\\Girls Theme.mid",
  "name": "Girls Theme",
  "difficulty": "Advanced",
  "bpm": 120.00768049155145,
  "notes": [
    {
      "midi": 43,
      "hit": false,
      "t": 0,
      "d": 1612.8,
      "v": 72
    },
    {
      "midi": 47,
      "hit": false,
      "t": 921.6,
      "d": 48,
      "v": 72
    },
    {
      "midi": 43,
      "hit": false,
      "t": 921.6,
      "d": 48,
      "v": 72
    },
    {
      "midi": 40,
      "hit": false,
      "t": 921.6,
      "d": 48,
      "v": 72
    },
    {
      "midi": 36,
      "hit": false,
      "t": 921.6,
      "d": 48,
      "v": 72
    },
    {
      "midi": 47,
      "hit": false,
      "t": 921.6,
      "d": 806.4,
      "v": 72
    },
    {
      "midi": 43,
      "hit": false,
      "t": 921.6,
      "d": 806.4,
      "v": 72
    },
    {
      "midi": 40,
      "hit": false,
      "t": 921.6,
      "d": 806.4,
      "v": 72
    },
    {
      "midi": 36,
      "hit": false,
      "t": 921.6,
      "d": 806.4,
      "v": 72
    },
    {
      "midi": 48,
      "hit": false,
      "t": 979.2,
      "d": 48,
      "v": 72
    },
    {
      "midi": 45,
      "hit": false,
      "t": 979.2,
      "d": 48,
      "v": 72
    },
    {
      "midi": 42,
      "hit": false,
      "t": 979.2,
      "d": 48,
      "v": 72
    },
    {
      "midi": 38,
      "hit": false,
      "t": 979.2,
      "d": 48,
      "v": 72
    },
    {
      "midi": 50,
      "hit": false,
      "t": 1036.8,
      "d": 48,
      "v": 72
    },
    {
      "midi": 47,
      "hit": false,
      "t": 1036.8,
      "d": 48,
      "v": 72
    },
    {
      "midi": 43,
      "hit": false,
      "t": 1036.8,
      "d": 48,
      "v": 72
    },
    {
      "midi": 40,
      "hit": false,
      "t": 1036.8,
      "d": 48,
      "v": 72
    },
    {
      "midi": 52,
      "hit": false,
      "t": 1094.3999999999999,
      "d": 48,
      "v": 72
    },
    {
      "midi": 48,
      "hit": false,
      "t": 1094.3999999999999,
      "d": 48,
      "v": 72
    },
    {
      "midi": 45,
      "hit": false,
      "t": 1094.3999999999999,
      "d": 48,
      "v": 72
    },
    {
      "midi": 42,
      "hit": false,
      "t": 1094.3999999999999,
      "d": 48,
      "v": 72
    },
    {
      "midi": 54,
      "hit": false,
      "t": 1151.9999999999998,
      "d": 48,
      "v": 72
    },
    {
      "midi": 50,
      "hit": false,
      "t": 1151.9999999999998,
      "d": 48,
      "v": 72
    },
    {
      "midi": 47,
      "hit": false,
      "t": 1151.9999999999998,
      "d": 48,
      "v": 72
    },
    {
      "midi": 43,
      "hit": false,
      "t": 1151.9999999999998,
      "d": 48,
      "v": 72
    },
    {
      "midi": 55,
      "hit": false,
      "t": 1209.5999999999997,
      "d": 48,
      "v": 72
    },
    {
      "midi": 52,
      "hit": false,
      "t": 1209.5999999999997,
      "d": 48,
      "v": 72
    },
    {
      "midi": 48,
      "hit": false,
      "t": 1209.5999999999997,
      "d": 48,
      "v": 72
    },
    {
      "midi": 45,
      "hit": false,
      "t": 1209.5999999999997,
      "d": 48,
      "v": 72
    },
    {
      "midi": 57,
      "hit": false,
      "t": 1267.1999999999996,
      "d": 48,
      "v": 72
    },
    {
      "midi": 54,
      "hit": false,
      "t": 1267.1999999999996,
      "d": 48,
      "v": 72
    },
    {
      "midi": 50,
      "hit": false,
      "t": 1267.1999999999996,
      "d": 48,
      "v": 72
    },
    {
      "midi": 47,
      "hit": false,
      "t": 1267.1999999999996,
      "d": 48,
      "v": 72
    },
    {
      "midi": 59,
      "hit": false,
      "t": 1324.7999999999995,
      "d": 48,
      "v": 72
    },
    {
      "midi": 55,
      "hit": false,
      "t": 1324.7999999999995,
      "d": 48,
      "v": 72
    },
    {
      "midi": 52,
      "hit": false,
      "t": 1324.7999999999995,
      "d": 48,
      "v": 72
    },
    {
      "midi": 48,
      "hit": false,
      "t": 1324.7999999999995,
      "d": 48,
      "v": 72
    },
    {
      "midi": 60,
      "hit": false,
      "t": 1382.3999999999994,
      "d": 48,
      "v": 72
    },
    {
      "midi": 57,
      "hit": false,
      "t": 1382.3999999999994,
      "d": 48,
      "v": 72
    },
    {
      "midi": 54,
      "hit": false,
      "t": 1382.3999999999994,
      "d": 48,
      "v": 72
    },
    {
      "midi": 50,
      "hit": false,
      "t": 1382.3999999999994,
      "d": 48,
      "v": 72
    },
    {
      "midi": 62,
      "hit": false,
      "t": 1439.9999999999993,
      "d": 48,
      "v": 72
    },
    {
      "midi": 59,
      "hit": false,
      "t": 1439.9999999999993,
      "d": 48,
      "v": 72
    },
    {
      "midi": 55,
      "hit": false,
      "t": 1439.9999999999993,
      "d": 48,
      "v": 72
    },
    {
      "midi": 52,
      "hit": false,
      "t": 1439.9999999999993,
      "d": 48,
      "v": 72
    },
    {
      "midi": 64,
      "hit": false,
      "t": 1497.5999999999992,
      "d": 48,
      "v": 72
    },
    {
      "midi": 60,
      "hit": false,
      "t": 1497.5999999999992,
      "d": 48,
      "v": 72
    },
    {
      "midi": 57,
      "hit": false,
      "t": 1497.5999999999992,
      "d": 48,
      "v": 72
    },
    {
      "midi": 54,
      "hit": false,
      "t": 1497.5999999999992,
      "d": 48,
      "v": 72
    },
    {
      "midi": 66,
      "hit": false,
      "t": 1555.1999999999991,
      "d": 48,
      "v": 72
    },
    {
      "midi": 62,
      "hit": false,
      "t": 1555.1999999999991,
      "d": 48,
      "v": 72
    },
    {
      "midi": 59,
      "hit": false,
      "t": 1555.1999999999991,
      "d": 48,
      "v": 72
    },
    {
      "midi": 55,
      "hit": false,
      "t": 1555.1999999999991,
      "d": 48,
      "v": 72
    },
    {
      "midi": 67,
      "hit": false,
      "t": 1612.799999999999,
      "d": 48,
      "v": 72
    },
    {
      "midi": 64,
      "hit": false,
      "t": 1612.799999999999,
      "d": 48,
      "v": 72
    },
    {
      "midi": 60,
      "hit": false,
      "t": 1612.799999999999,
      "d": 48,
      "v": 72
    },
    {
      "midi": 57,
      "hit": false,
      "t": 1612.799999999999,
      "d": 48,
      "v": 72
    },
    {
      "midi": 69,
      "hit": false,
      "t": 1670.399999999999,
      "d": 48,
      "v": 72
    },
    {
      "midi": 66,
      "hit": false,
      "t": 1670.399999999999,
      "d": 48,
      "v": 72
    },
    {
      "midi": 62,
      "hit": false,
      "t": 1670.399999999999,
      "d": 48,
      "v": 72
    },
    {
      "midi": 59,
      "hit": false,
      "t": 1670.399999999999,
      "d": 48,
      "v": 72
    },
    {
      "midi": 71,
      "hit": false,
      "t": 1727.9999999999989,
      "d": 48,
      "v": 72
    },
    {
      "midi": 67,
      "hit": false,
      "t": 1727.9999999999989,
      "d": 48,
      "v": 72
    },
    {
      "midi": 64,
      "hit": false,
      "t": 1727.9999999999989,
      "d": 48,
      "v": 72
    },
    {
      "midi": 60,
      "hit": false,
      "t": 1727.9999999999989,
      "d": 48,
      "v": 72
    },
    {
      "midi": 72,
      "hit": false,
      "t": 1785.5999999999988,
      "d": 48,
      "v": 72
    },
    {
      "midi": 69,
      "hit": false,
      "t": 1785.5999999999988,
      "d": 48,
      "v": 72
    },
    {
      "midi": 66,
      "hit": false,
      "t": 1785.5999999999988,
      "d": 48,
      "v": 72
    },
    {
      "midi": 62,
      "hit": false,
      "t": 1785.5999999999988,
      "d": 48,
      "v": 72
    },
    {
      "midi": 67,
      "hit": false,
      "t": 1843.1999999999987,
      "d": 1612.8,
      "v": 72
    },
    {
      "midi": 62,
      "hit": false,
      "t": 1843.1999999999987,
      "d": 1612.8,
      "v": 72
    },
    {
      "midi": 59,
      "hit": false,
      "t": 1843.1999999999987,
      "d": 1612.8,
      "v": 72
    },
    {
      "midi": 71,
      "hit": false,
      "t": 1843.2,
      "d": 48,
      "v": 64
    },
    {
      "midi": 55,
      "hit": false,
      "t": 1843.2,
      "d": 1583.9999999999998,
      "v": 72
    },
    {
      "midi": 50,
      "hit": false,
      "t": 1843.2,
      "d": 403.20000000000005,
      "v": 80
    },
    {
      "midi": 74,
      "hit": false,
      "t": 1900.8,
      "d": 48,
      "v": 64
    },
    {
      "midi": 78,
      "hit": false,
      "t": 1958.3999999999999,
      "d": 1612.8,
      "v": 64
    },
    {
      "midi": 74,
      "hit": false,
      "t": 1958.3999999999999,
      "d": 1612.8,
      "v": 64
    },
    {
      "midi": 71,
      "hit": false,
      "t": 1958.3999999999999,
      "d": 1612.8,
      "v": 64
    },
    {
      "midi": 79,
      "hit": false,
      "t": 2304,
      "d": 403.1999999999998,
      "v": 88
    },
    {
      "midi": 71,
      "hit": false,
      "t": 2304,
      "d": 403.1999999999998,
      "v": 88
    },
    {
      "midi": 38,
      "hit": false,
      "t": 2304,
      "d": 403.1999999999998,
      "v": 80
    },
    {
      "midi": 74,
      "hit": false,
      "t": 2764.7999999999997,
      "d": 403.1999999999998,
      "v": 88
    },
    {
      "midi": 71,
      "hit": false,
      "t": 2764.7999999999997,
      "d": 403.1999999999998,
      "v": 88
    },
    {
      "midi": 43,
      "hit": false,
      "t": 2764.7999999999997,
      "d": 201.5999999999999,
      "v": 80
    },
    {
      "midi": 43,
      "hit": false,
      "t": 2995.2,
      "d": 201.5999999999999,
      "v": 80
    },
    {
      "midi": 79,
      "hit": false,
      "t": 3225.5999999999995,
      "d": 403.1999999999998,
      "v": 88
    },
    {
      "midi": 71,
      "hit": false,
      "t": 3225.5999999999995,
      "d": 403.1999999999998,
      "v": 88
    },
    {
      "midi": 43,
      "hit": false,
      "t": 3225.6,
      "d": 201.5999999999999,
      "v": 80
    },
    {
      "midi": 55,
      "hit": false,
      "t": 3456,
      "d": 201.5999999999999,
      "v": 72
    },
    {
      "midi": 43,
      "hit": false,
      "t": 3456,
      "d": 201.5999999999999,
      "v": 80
    },
    {
      "midi": 65,
      "hit": false,
      "t": 3686.3999999999987,
      "d": 1612.8000000000002,
      "v": 72
    },
    {
      "midi": 60,
      "hit": false,
      "t": 3686.3999999999987,
      "d": 1612.8000000000002,
      "v": 72
    },
    {
      "midi": 57,
      "hit": false,
      "t": 3686.3999999999987,
      "d": 1612.8000000000002,
      "v": 72
    },
    {
      "midi": 77,
      "hit": false,
      "t": 3686.399999999999,
      "d": 201.5999999999999,
      "v": 88
    },
    {
      "midi": 72,
      "hit": false,
      "t": 3686.399999999999,
      "d": 201.5999999999999,
      "v": 88
    },
    {
      "midi": 76,
      "hit": false,
      "t": 3686.3999999999996,
      "d": 1612.8000000000002,
      "v": 72
    },
    {
      "midi": 72,
      "hit": false,
      "t": 3686.3999999999996,
      "d": 1612.8000000000002,
      "v": 72
    },
    {
      "midi": 69,
      "hit": false,
      "t": 3686.3999999999996,
      "d": 1612.8000000000002,
      "v": 72
    },
    {
      "midi": 55,
      "hit": false,
      "t": 3686.4,
      "d": 1583.9999999999995,
      "v": 72
    },
    {
      "midi": 50,
      "hit": false,
      "t": 3686.4,
      "d": 403.1999999999998,
      "v": 80
    },
    {
      "midi": 76,
      "hit": false,
      "t": 3916.7999999999993,
      "d": 403.1999999999998,
      "v": 88
    },
    {
      "midi": 72,
      "hit": false,
      "t": 3916.7999999999993,
      "d": 403.1999999999998,
      "v": 88
    },
    {
      "midi": 38,
      "hit": false,
      "t": 4147.2,
      "d": 403.1999999999998,
      "v": 80
    },
    {
      "midi": 74,
      "hit": false,
      "t": 4377.599999999999,
      "d": 633.6000000000004,
      "v": 88
    },
    {
      "midi": 84,
      "hit": false,
      "t": 4608,
      "d": 403.1999999999998,
      "v": 72
    },
    {
      "midi": 43,
      "hit": false,
      "t": 4608,
      "d": 201.60000000000036,
      "v": 80
    },
    {
      "midi": 43,
      "hit": false,
      "t": 4838.400000000001,
      "d": 201.60000000000036,
      "v": 80
    },
    {
      "midi": 74,
      "hit": false,
      "t": 5068.8,
      "d": 201.60000000000036,
      "v": 88
    },
    {
      "midi": 88,
      "hit": false,
      "t": 5068.8,
      "d": 403.1999999999998,
      "v": 72
    },
    {
      "midi": 43,
      "hit": false,
      "t": 5068.800000000001,
      "d": 201.60000000000036,
      "v": 80
    },
    {
      "midi": 55,
      "hit": false,
      "t": 5299.2,
      "d": 201.60000000000036,
      "v": 72
    },
    {
      "midi": 76,
      "hit": false,
      "t": 5299.200000000001,
      "d": 201.60000000000036,
      "v": 88
    },
    {
      "midi": 43,
      "hit": false,
      "t": 5299.200000000002,
      "d": 201.60000000000036,
      "v": 80
    },
    {
      "midi": 67,
      "hit": false,
      "t": 5529.5999999999985,
      "d": 1612.8000000000002,
      "v": 72
    },
    {
      "midi": 62,
      "hit": false,
      "t": 5529.5999999999985,
      "d": 1612.8000000000002,
      "v": 72
    },
    {
      "midi": 59,
      "hit": false,
      "t": 5529.5999999999985,
      "d": 1612.8000000000002,
      "v": 72
    },
    {
      "midi": 71,
      "hit": false,
      "t": 5529.6,
      "d": 48,
      "v": 64
    },
    {
      "midi": 55,
      "hit": false,
      "t": 5529.6,
      "d": 1584,
      "v": 72
    },
    {
      "midi": 79,
      "hit": false,
      "t": 5529.600000000001,
      "d": 403.1999999999998,
      "v": 88
    },
    {
      "midi": 71,
      "hit": false,
      "t": 5529.600000000001,
      "d": 403.1999999999998,
      "v": 88
    },
    {
      "midi": 50,
      "hit": false,
      "t": 5529.600000000002,
      "d": 403.1999999999998,
      "v": 80
    },
    {
      "midi": 74,
      "hit": false,
      "t": 5587.200000000001,
      "d": 48,
      "v": 64
    },
    {
      "midi": 78,
      "hit": false,
      "t": 5644.800000000001,
      "d": 1612.8000000000002,
      "v": 64
    },
    {
      "midi": 74,
      "hit": false,
      "t": 5644.800000000001,
      "d": 1612.8000000000002,
      "v": 64
    },
    {
      "midi": 71,
      "hit": false,
      "t": 5644.800000000001,
      "d": 1612.8000000000002,
      "v": 64
    },
    {
      "midi": 79,
      "hit": false,
      "t": 5990.4000000000015,
      "d": 403.1999999999998,
      "v": 88
    },
    {
      "midi": 71,
      "hit": false,
      "t": 5990.4000000000015,
      "d": 403.1999999999998,
      "v": 88
    },
    {
      "midi": 38,
      "hit": false,
      "t": 5990.400000000002,
      "d": 403.1999999999998,
      "v": 80
    },
    {
      "midi": 74,
      "hit": false,
      "t": 6451.200000000002,
      "d": 403.1999999999998,
      "v": 88
    },
    {
      "midi": 71,
      "hit": false,
      "t": 6451.200000000002,
      "d": 403.1999999999998,
      "v": 88
    },
    {
      "midi": 43,
      "hit": false,
      "t": 6451.200000000003,
      "d": 201.60000000000036,
      "v": 80
    },
    {
      "midi": 43,
      "hit": false,
      "t": 6681.600000000003,
      "d": 201.60000000000036,
      "v": 80
    },
    {
      "midi": 79,
      "hit": false,
      "t": 6912.000000000002,
      "d": 403.1999999999998,
      "v": 88
    },
    {
      "midi": 71,
      "hit": false,
      "t": 6912.000000000002,
      "d": 403.1999999999998,
      "v": 88
    },
    {
      "midi": 43,
      "hit": false,
      "t": 6912.000000000004,
      "d": 201.60000000000036,
      "v": 80
    },
    {
      "midi": 55,
      "hit": false,
      "t": 7142.400000000001,
      "d": 201.60000000000036,
      "v": 72
    },
    {
      "midi": 43,
      "hit": false,
      "t": 7142.400000000004,
      "d": 201.60000000000036,
      "v": 80
    },
    {
      "midi": 65,
      "hit": false,
      "t": 7372.799999999998,
      "d": 1612.8000000000002,
      "v": 72
    },
    {
      "midi": 60,
      "hit": false,
      "t": 7372.799999999998,
      "d": 1612.8000000000002,
      "v": 72
    },
    {
      "midi": 57,
      "hit": false,
      "t": 7372.799999999998,
      "d": 1612.8000000000002,
      "v": 72
    },
    {
      "midi": 76,
      "hit": false,
      "t": 7372.800000000001,
      "d": 1612.800000000001,
      "v": 72
    },
    {
      "midi": 72,
      "hit": false,
      "t": 7372.800000000001,
      "d": 1612.800000000001,
      "v": 72
    },
    {
      "midi": 69,
      "hit": false,
      "t": 7372.800000000001,
      "d": 1612.800000000001,
      "v": 72
    },
    {
      "midi": 55,
      "hit": false,
      "t": 7372.800000000001,
      "d": 1584,
      "v": 72
    },
    {
      "midi": 77,
      "hit": false,
      "t": 7372.800000000002,
      "d": 201.60000000000036,
      "v": 88
    },
    {
      "midi": 72,
      "hit": false,
      "t": 7372.800000000002,
      "d": 201.60000000000036,
      "v": 88
    },
    {
      "midi": 50,
      "hit": false,
      "t": 7372.800000000005,
      "d": 403.1999999999998,
      "v": 80
    },
    {
      "midi": 74,
      "hit": false,
      "t": 7603.200000000003,
      "d": 201.60000000000036,
      "v": 88
    },
    {
      "midi": 76,
      "hit": false,
      "t": 7833.600000000003,
      "d": 201.60000000000036,
      "v": 88
    },
    {
      "midi": 38,
      "hit": false,
      "t": 7833.600000000005,
      "d": 403.1999999999998,
      "v": 80
    },
    {
      "midi": 74,
      "hit": false,
      "t": 8064.000000000004,
      "d": 1036.7999999999993,
      "v": 88
    },
    {
      "midi": 84,
      "hit": false,
      "t": 8294.400000000001,
      "d": 403.2000000000007,
      "v": 72
    },
    {
      "midi": 43,
      "hit": false,
      "t": 8294.400000000005,
      "d": 201.60000000000036,
      "v": 80
    },
    {
      "midi": 43,
      "hit": false,
      "t": 8524.800000000005,
      "d": 201.60000000000036,
      "v": 80
    },
    {
      "midi": 88,
      "hit": false,
      "t": 8755.200000000003,
      "d": 403.1999999999989,
      "v": 72
    },
    {
      "midi": 43,
      "hit": false,
      "t": 8755.200000000004,
      "d": 201.60000000000036,
      "v": 80
    },
    {
      "midi": 55,
      "hit": false,
      "t": 8985.6,
      "d": 201.60000000000036,
      "v": 72
    },
    {
      "midi": 43,
      "hit": false,
      "t": 8985.600000000004,
      "d": 201.60000000000036,
      "v": 80
    },
    {
      "midi": 67,
      "hit": false,
      "t": 9215.999999999998,
      "d": 1612.7999999999993,
      "v": 72
    },
    {
      "midi": 62,
      "hit": false,
      "t": 9215.999999999998,
      "d": 1612.7999999999993,
      "v": 72
    },
    {
      "midi": 59,
      "hit": false,
      "t": 9215.999999999998,
      "d": 1612.7999999999993,
      "v": 72
    },
    {
      "midi": 55,
      "hit": false,
      "t": 9216,
      "d": 1584,
      "v": 72
    },
    {
      "midi": 71,
      "hit": false,
      "t": 9216.000000000002,
      "d": 48,
      "v": 64
    },
    {
      "midi": 50,
      "hit": false,
      "t": 9216.000000000004,
      "d": 403.2000000000007,
      "v": 80
    },
    {
      "midi": 74,
      "hit": false,
      "t": 9273.600000000002,
      "d": 48,
      "v": 64
    },
    {
      "midi": 78,
      "hit": false,
      "t": 9331.200000000003,
      "d": 1612.7999999999993,
      "v": 64
    },
    {
      "midi": 74,
      "hit": false,
      "t": 9331.200000000003,
      "d": 1612.7999999999993,
      "v": 64
    },
    {
      "midi": 71,
      "hit": false,
      "t": 9331.200000000003,
      "d": 1612.7999999999993,
      "v": 64
    },
    {
      "midi": 83,
      "hit": false,
      "t": 9676.800000000003,
      "d": 403.2000000000007,
      "v": 88
    },
    {
      "midi": 79,
      "hit": false,
      "t": 9676.800000000003,
      "d": 403.2000000000007,
      "v": 88
    },
    {
      "midi": 38,
      "hit": false,
      "t": 9676.800000000005,
      "d": 403.2000000000007,
      "v": 80
    },
    {
      "midi": 79,
      "hit": false,
      "t": 10137.600000000004,
      "d": 403.2000000000007,
      "v": 88
    },
    {
      "midi": 74,
      "hit": false,
      "t": 10137.600000000004,
      "d": 403.2000000000007,
      "v": 88
    },
    {
      "midi": 43,
      "hit": false,
      "t": 10137.600000000006,
      "d": 201.60000000000036,
      "v": 80
    },
    {
      "midi": 43,
      "hit": false,
      "t": 10368.000000000005,
      "d": 201.60000000000036,
      "v": 80
    },
    {
      "midi": 83,
      "hit": false,
      "t": 10598.400000000005,
      "d": 403.2000000000007,
      "v": 88
    },
    {
      "midi": 79,
      "hit": false,
      "t": 10598.400000000005,
      "d": 403.2000000000007,
      "v": 88
    },
    {
      "midi": 43,
      "hit": false,
      "t": 10598.400000000005,
      "d": 201.60000000000036,
      "v": 80
    },
    {
      "midi": 55,
      "hit": false,
      "t": 10828.8,
      "d": 201.60000000000036,
      "v": 72
    },
    {
      "midi": 43,
      "hit": false,
      "t": 10828.800000000005,
      "d": 201.60000000000036,
      "v": 80
    },
    {
      "midi": 65,
      "hit": false,
      "t": 11059.199999999997,
      "d": 1612.7999999999993,
      "v": 72
    },
    {
      "midi": 60,
      "hit": false,
      "t": 11059.199999999997,
      "d": 1612.7999999999993,
      "v": 72
    },
    {
      "midi": 57,
      "hit": false,
      "t": 11059.199999999997,
      "d": 1612.7999999999993,
      "v": 72
    },
    {
      "midi": 55,
      "hit": false,
      "t": 11059.199999999999,
      "d": 1584,
      "v": 72
    },
    {
      "midi": 76,
      "hit": false,
      "t": 11059.200000000003,
      "d": 1612.800000000001,
      "v": 72
    },
    {
      "midi": 72,
      "hit": false,
      "t": 11059.200000000003,
      "d": 1612.800000000001,
      "v": 72
    },
    {
      "midi": 69,
      "hit": false,
      "t": 11059.200000000003,
      "d": 1612.800000000001,
      "v": 72
    },
    {
      "midi": 50,
      "hit": false,
      "t": 11059.200000000004,
      "d": 403.2000000000007,
      "v": 80
    },
    {
      "midi": 81,
      "hit": false,
      "t": 11059.200000000006,
      "d": 201.60000000000036,
      "v": 88
    },
    {
      "midi": 77,
      "hit": false,
      "t": 11059.200000000006,
      "d": 201.60000000000036,
      "v": 88
    },
    {
      "midi": 79,
      "hit": false,
      "t": 11289.600000000006,
      "d": 403.2000000000007,
      "v": 88
    },
    {
      "midi": 76,
      "hit": false,
      "t": 11289.600000000006,
      "d": 403.2000000000007,
      "v": 88
    },
    {
      "midi": 38,
      "hit": false,
      "t": 11520.000000000005,
      "d": 403.2000000000007,
      "v": 80
    },
    {
      "midi": 77,
      "hit": false,
      "t": 11750.400000000007,
      "d": 633.6000000000004,
      "v": 88
    },
    {
      "midi": 74,
      "hit": false,
      "t": 11750.400000000007,
      "d": 633.6000000000004,
      "v": 88
    },
    {
      "midi": 84,
      "hit": false,
      "t": 11980.800000000003,
      "d": 403.2000000000007,
      "v": 72
    },
    {
      "midi": 43,
      "hit": false,
      "t": 11980.800000000007,
      "d": 201.60000000000036,
      "v": 80
    },
    {
      "midi": 43,
      "hit": false,
      "t": 12211.200000000006,
      "d": 201.60000000000036,
      "v": 80
    },
    {
      "midi": 88,
      "hit": false,
      "t": 12441.600000000004,
      "d": 403.1999999999989,
      "v": 72
    },
    {
      "midi": 43,
      "hit": false,
      "t": 12441.600000000006,
      "d": 201.60000000000036,
      "v": 80
    },
    {
      "midi": 77,
      "hit": false,
      "t": 12441.600000000008,
      "d": 201.60000000000036,
      "v": 88
    },
    {
      "midi": 74,
      "hit": false,
      "t": 12441.600000000008,
      "d": 201.60000000000036,
      "v": 88
    },
    {
      "midi": 55,
      "hit": false,
      "t": 12671.999999999998,
      "d": 201.60000000000036,
      "v": 72
    },
    {
      "midi": 43,
      "hit": false,
      "t": 12672.000000000005,
      "d": 201.60000000000036,
      "v": 80
    },
    {
      "midi": 79,
      "hit": false,
      "t": 12672.000000000007,
      "d": 201.60000000000036,
      "v": 88
    },
    {
      "midi": 76,
      "hit": false,
      "t": 12672.000000000007,
      "d": 201.60000000000036,
      "v": 88
    },
    {
      "midi": 67,
      "hit": false,
      "t": 12902.399999999996,
      "d": 1612.7999999999993,
      "v": 72
    },
    {
      "midi": 62,
      "hit": false,
      "t": 12902.399999999996,
      "d": 1612.7999999999993,
      "v": 72
    },
    {
      "midi": 59,
      "hit": false,
      "t": 12902.399999999996,
      "d": 1612.7999999999993,
      "v": 72
    },
    {
      "midi": 55,
      "hit": false,
      "t": 12902.399999999998,
      "d": 1584,
      "v": 72
    },
    {
      "midi": 71,
      "hit": false,
      "t": 12902.400000000003,
      "d": 48,
      "v": 64
    },
    {
      "midi": 50,
      "hit": false,
      "t": 12902.400000000005,
      "d": 403.2000000000007,
      "v": 80
    },
    {
      "midi": 83,
      "hit": false,
      "t": 12902.400000000007,
      "d": 403.2000000000007,
      "v": 88
    },
    {
      "midi": 79,
      "hit": false,
      "t": 12902.400000000007,
      "d": 403.2000000000007,
      "v": 88
    },
    {
      "midi": 74,
      "hit": false,
      "t": 12960.000000000004,
      "d": 48,
      "v": 64
    },
    {
      "midi": 78,
      "hit": false,
      "t": 13017.600000000004,
      "d": 1612.7999999999993,
      "v": 64
    },
    {
      "midi": 74,
      "hit": false,
      "t": 13017.600000000004,
      "d": 1612.7999999999993,
      "v": 64
    },
    {
      "midi": 71,
      "hit": false,
      "t": 13017.600000000004,
      "d": 1612.7999999999993,
      "v": 64
    },
    {
      "midi": 38,
      "hit": false,
      "t": 13363.200000000006,
      "d": 403.2000000000007,
      "v": 80
    },
    {
      "midi": 83,
      "hit": false,
      "t": 13363.200000000008,
      "d": 403.2000000000007,
      "v": 88
    },
    {
      "midi": 79,
      "hit": false,
      "t": 13363.200000000008,
      "d": 403.2000000000007,
      "v": 88
    },
    {
      "midi": 43,
      "hit": false,
      "t": 13824.000000000007,
      "d": 201.60000000000036,
      "v": 80
    },
    {
      "midi": 79,
      "hit": false,
      "t": 13824.00000000001,
      "d": 403.2000000000007,
      "v": 88
    },
    {
      "midi": 74,
      "hit": false,
      "t": 13824.00000000001,
      "d": 403.2000000000007,
      "v": 88
    },
    {
      "midi": 43,
      "hit": false,
      "t": 14054.400000000007,
      "d": 201.60000000000036,
      "v": 80
    },
    {
      "midi": 43,
      "hit": false,
      "t": 14284.800000000007,
      "d": 201.60000000000036,
      "v": 80
    },
    {
      "midi": 83,
      "hit": false,
      "t": 14284.80000000001,
      "d": 403.2000000000007,
      "v": 88
    },
    {
      "midi": 79,
      "hit": false,
      "t": 14284.80000000001,
      "d": 403.2000000000007,
      "v": 88
    },
    {
      "midi": 55,
      "hit": false,
      "t": 14515.199999999997,
      "d": 201.60000000000036,
      "v": 72
    },
    {
      "midi": 43,
      "hit": false,
      "t": 14515.200000000006,
      "d": 201.60000000000036,
      "v": 80
    },
    {
      "midi": 65,
      "hit": false,
      "t": 14745.599999999995,
      "d": 1209.6000000000004,
      "v": 72
    },
    {
      "midi": 60,
      "hit": false,
      "t": 14745.599999999995,
      "d": 1209.6000000000004,
      "v": 72
    },
    {
      "midi": 57,
      "hit": false,
      "t": 14745.599999999995,
      "d": 1209.6000000000004,
      "v": 72
    },
    {
      "midi": 55,
      "hit": false,
      "t": 14745.599999999997,
      "d": 1612.7999999999993,
      "v": 72
    },
    {
      "midi": 76,
      "hit": false,
      "t": 14745.600000000004,
      "d": 1612.800000000001,
      "v": 72
    },
    {
      "midi": 72,
      "hit": false,
      "t": 14745.600000000004,
      "d": 1612.800000000001,
      "v": 72
    },
    {
      "midi": 69,
      "hit": false,
      "t": 14745.600000000004,
      "d": 1612.800000000001,
      "v": 72
    },
    {
      "midi": 50,
      "hit": false,
      "t": 14745.600000000006,
      "d": 403.2000000000007,
      "v": 80
    },
    {
      "midi": 81,
      "hit": false,
      "t": 14745.600000000011,
      "d": 201.60000000000036,
      "v": 88
    },
    {
      "midi": 77,
      "hit": false,
      "t": 14745.600000000011,
      "d": 201.60000000000036,
      "v": 88
    },
    {
      "midi": 77,
      "hit": false,
      "t": 14976.000000000011,
      "d": 201.60000000000036,
      "v": 88
    },
    {
      "midi": 74,
      "hit": false,
      "t": 14976.000000000011,
      "d": 201.60000000000036,
      "v": 88
    },
    {
      "midi": 38,
      "hit": false,
      "t": 15206.400000000007,
      "d": 403.2000000000007,
      "v": 80
    },
    {
      "midi": 79,
      "hit": false,
      "t": 15206.40000000001,
      "d": 201.60000000000036,
      "v": 88
    },
    {
      "midi": 76,
      "hit": false,
      "t": 15206.40000000001,
      "d": 201.60000000000036,
      "v": 88
    },
    {
      "midi": 77,
      "hit": false,
      "t": 15436.80000000001,
      "d": 633.6000000000004,
      "v": 88
    },
    {
      "midi": 74,
      "hit": false,
      "t": 15436.80000000001,
      "d": 633.6000000000004,
      "v": 88
    },
    {
      "midi": 84,
      "hit": false,
      "t": 15667.200000000004,
      "d": 403.2000000000007,
      "v": 72
    },
    {
      "midi": 43,
      "hit": false,
      "t": 15667.200000000008,
      "d": 201.60000000000036,
      "v": 80
    },
    {
      "midi": 43,
      "hit": false,
      "t": 15897.600000000008,
      "d": 201.60000000000036,
      "v": 80
    },
    {
      "midi": 55,
      "hit": false,
      "t": 16127.999999999995,
      "d": 403.1999999999989,
      "v": 72
    },
    {
      "midi": 64,
      "hit": false,
      "t": 16128,
      "d": 201.60000000000036,
      "v": 88
    },
    {
      "midi": 88,
      "hit": false,
      "t": 16128.000000000005,
      "d": 403.1999999999989,
      "v": 72
    },
    {
      "midi": 43,
      "hit": false,
      "t": 16128.000000000007,
      "d": 201.60000000000036,
      "v": 80
    },
    {
      "midi": 67,
      "hit": false,
      "t": 16358.4,
      "d": 201.60000000000036,
      "v": 88
    },
    {
      "midi": 43,
      "hit": false,
      "t": 16358.400000000007,
      "d": 201.60000000000036,
      "v": 80
    },
    {
      "midi": 48,
      "hit": false,
      "t": 16588.799999999992,
      "d": 403.2000000000007,
      "v": 72
    },
    {
      "midi": 71,
      "hit": false,
      "t": 16588.8,
      "d": 201.59999999999854,
      "v": 88
    },
    {
      "midi": 64,
      "hit": false,
      "t": 16588.8,
      "d": 201.59999999999854,
      "v": 88
    },
    {
      "midi": 60,
      "hit": false,
      "t": 16588.8,
      "d": 201.59999999999854,
      "v": 88
    },
    {
      "midi": 50,
      "hit": false,
      "t": 16588.800000000007,
      "d": 403.2000000000007,
      "v": 80
    },
    {
      "midi": 67,
      "hit": false,
      "t": 16819.199999999997,
      "d": 201.59999999999854,
      "v": 88
    },
    {
      "midi": 48,
      "hit": false,
      "t": 17049.59999999999,
      "d": 403.2000000000007,
      "v": 72
    },
    {
      "midi": 69,
      "hit": false,
      "t": 17049.599999999995,
      "d": 201.59999999999854,
      "v": 88
    },
    {
      "midi": 38,
      "hit": false,
      "t": 17049.600000000006,
      "d": 201.59999999999854,
      "v": 80
    },
    {
      "midi": 67,
      "hit": false,
      "t": 17279.999999999993,
      "d": 1036.7999999999993,
      "v": 88
    },
    {
      "midi": 64,
      "hit": false,
      "t": 17279.999999999993,
      "d": 1036.7999999999993,
      "v": 88
    },
    {
      "midi": 60,
      "hit": false,
      "t": 17279.999999999993,
      "d": 1036.7999999999993,
      "v": 88
    },
    {
      "midi": 38,
      "hit": false,
      "t": 17280.000000000004,
      "d": 201.59999999999854,
      "v": 80
    },
    {
      "midi": 48,
      "hit": false,
      "t": 17510.39999999999,
      "d": 403.2000000000007,
      "v": 72
    },
    {
      "midi": 50,
      "hit": false,
      "t": 17510.4,
      "d": 403.2000000000007,
      "v": 80
    },
    {
      "midi": 48,
      "hit": false,
      "t": 17971.19999999999,
      "d": 403.2000000000007,
      "v": 72
    },
    {
      "midi": 38,
      "hit": false,
      "t": 17971.2,
      "d": 201.59999999999854,
      "v": 80
    },
    {
      "midi": 38,
      "hit": false,
      "t": 18201.6,
      "d": 201.59999999999854,
      "v": 80
    },
    {
      "midi": 52,
      "hit": false,
      "t": 18431.99999999999,
      "d": 403.2000000000007,
      "v": 72
    },
    {
      "midi": 64,
      "hit": false,
      "t": 18431.999999999993,
      "d": 1209.5999999999985,
      "v": 88
    },
    {
      "midi": 59,
      "hit": false,
      "t": 18431.999999999993,
      "d": 1209.5999999999985,
      "v": 88
    },
    {
      "midi": 55,
      "hit": false,
      "t": 18431.999999999993,
      "d": 1209.5999999999985,
      "v": 88
    },
    {
      "midi": 50,
      "hit": false,
      "t": 18431.999999999996,
      "d": 403.2000000000007,
      "v": 80
    },
    {
      "midi": 52,
      "hit": false,
      "t": 18892.79999999999,
      "d": 403.2000000000007,
      "v": 72
    },
    {
      "midi": 38,
      "hit": false,
      "t": 18892.799999999996,
      "d": 201.59999999999854,
      "v": 80
    },
    {
      "midi": 38,
      "hit": false,
      "t": 19123.199999999993,
      "d": 201.59999999999854,
      "v": 80
    },
    {
      "midi": 52,
      "hit": false,
      "t": 19353.599999999988,
      "d": 403.2000000000007,
      "v": 72
    },
    {
      "midi": 50,
      "hit": false,
      "t": 19353.59999999999,
      "d": 403.2000000000007,
      "v": 80
    },
    {
      "midi": 52,
      "hit": false,
      "t": 19814.399999999987,
      "d": 403.2000000000007,
      "v": 72
    },
    {
      "midi": 64,
      "hit": false,
      "t": 19814.39999999999,
      "d": 201.59999999999854,
      "v": 88
    },
    {
      "midi": 38,
      "hit": false,
      "t": 19814.39999999999,
      "d": 201.59999999999854,
      "v": 80
    },
    {
      "midi": 67,
      "hit": false,
      "t": 20044.79999999999,
      "d": 201.59999999999854,
      "v": 88
    },
    {
      "midi": 38,
      "hit": false,
      "t": 20044.79999999999,
      "d": 201.59999999999854,
      "v": 80
    },
    {
      "midi": 71,
      "hit": false,
      "t": 20275.199999999986,
      "d": 201.59999999999854,
      "v": 88
    },
    {
      "midi": 64,
      "hit": false,
      "t": 20275.199999999986,
      "d": 201.59999999999854,
      "v": 88
    },
    {
      "midi": 60,
      "hit": false,
      "t": 20275.199999999986,
      "d": 201.59999999999854,
      "v": 88
    },
    {
      "midi": 45,
      "hit": false,
      "t": 20275.199999999986,
      "d": 604.7999999999993,
      "v": 72
    },
    {
      "midi": 50,
      "hit": false,
      "t": 20275.199999999986,
      "d": 403.2000000000007,
      "v": 80
    },
    {
      "midi": 67,
      "hit": false,
      "t": 20505.599999999984,
      "d": 201.59999999999854,
      "v": 88
    },
    {
      "midi": 69,
      "hit": false,
      "t": 20735.99999999998,
      "d": 201.59999999999854,
      "v": 88
    },
    {
      "midi": 38,
      "hit": false,
      "t": 20735.999999999985,
      "d": 201.59999999999854,
      "v": 80
    },
    {
      "midi": 67,
      "hit": false,
      "t": 20966.39999999998,
      "d": 432,
      "v": 88
    },
    {
      "midi": 64,
      "hit": false,
      "t": 20966.39999999998,
      "d": 432,
      "v": 88
    },
    {
      "midi": 60,
      "hit": false,
      "t": 20966.39999999998,
      "d": 432,
      "v": 88
    },
    {
      "midi": 38,
      "hit": false,
      "t": 20966.399999999983,
      "d": 201.59999999999854,
      "v": 80
    },
    {
      "midi": 47,
      "hit": false,
      "t": 20966.399999999987,
      "d": 201.59999999999854,
      "v": 72
    },
    {
      "midi": 50,
      "hit": false,
      "t": 21196.79999999998,
      "d": 403.2000000000007,
      "v": 80
    },
    {
      "midi": 48,
      "hit": false,
      "t": 21196.799999999985,
      "d": 201.59999999999854,
      "v": 72
    },
    {
      "midi": 64,
      "hit": false,
      "t": 21427.19999999998,
      "d": 403.2000000000007,
      "v": 88
    },
    {
      "midi": 60,
      "hit": false,
      "t": 21427.19999999998,
      "d": 403.2000000000007,
      "v": 88
    },
    {
      "midi": 52,
      "hit": false,
      "t": 21427.199999999983,
      "d": 201.59999999999854,
      "v": 72
    },
    {
      "midi": 48,
      "hit": false,
      "t": 21657.59999999998,
      "d": 201.59999999999854,
      "v": 72
    },
    {
      "midi": 38,
      "hit": false,
      "t": 21657.59999999998,
      "d": 201.59999999999854,
      "v": 80
    },
    {
      "midi": 62,
      "hit": false,
      "t": 21887.999999999978,
      "d": 1353.5999999999985,
      "v": 88
    },
    {
      "midi": 59,
      "hit": false,
      "t": 21887.999999999978,
      "d": 1353.5999999999985,
      "v": 88
    },
    {
      "midi": 43,
      "hit": false,
      "t": 21887.999999999978,
      "d": 633.5999999999985,
      "v": 72
    },
    {
      "midi": 38,
      "hit": false,
      "t": 21887.999999999978,
      "d": 201.59999999999854,
      "v": 80
    },
    {
      "midi": 50,
      "hit": false,
      "t": 22118.399999999976,
      "d": 403.2000000000007,
      "v": 80
    },
    {
      "midi": 43,
      "hit": false,
      "t": 22579.199999999975,
      "d": 403.2000000000007,
      "v": 72
    },
    {
      "midi": 38,
      "hit": false,
      "t": 22579.199999999975,
      "d": 201.59999999999854,
      "v": 80
    },
    {
      "midi": 38,
      "hit": false,
      "t": 22809.599999999973,
      "d": 201.59999999999854,
      "v": 80
    },
    {
      "midi": 50,
      "hit": false,
      "t": 23039.99999999997,
      "d": 403.2000000000007,
      "v": 80
    },
    {
      "midi": 43,
      "hit": false,
      "t": 23039.999999999975,
      "d": 403.2000000000007,
      "v": 72
    },
    {
      "midi": 63,
      "hit": false,
      "t": 23270.399999999976,
      "d": 201.59999999999854,
      "v": 88
    },
    {
      "midi": 38,
      "hit": false,
      "t": 23500.79999999997,
      "d": 201.59999999999854,
      "v": 80
    },
    {
      "midi": 64,
      "hit": false,
      "t": 23500.799999999974,
      "d": 201.59999999999854,
      "v": 88
    },
    {
      "midi": 43,
      "hit": false,
      "t": 23500.799999999974,
      "d": 403.2000000000007,
      "v": 72
    },
    {
      "midi": 38,
      "hit": false,
      "t": 23731.199999999968,
      "d": 201.59999999999854,
      "v": 80
    },
    {
      "midi": 67,
      "hit": false,
      "t": 23731.19999999997,
      "d": 201.59999999999854,
      "v": 88
    },
    {
      "midi": 50,
      "hit": false,
      "t": 23961.599999999966,
      "d": 403.2000000000007,
      "v": 80
    },
    {
      "midi": 71,
      "hit": false,
      "t": 23961.59999999997,
      "d": 201.59999999999854,
      "v": 88
    },
    {
      "midi": 64,
      "hit": false,
      "t": 23961.59999999997,
      "d": 201.59999999999854,
      "v": 88
    },
    {
      "midi": 60,
      "hit": false,
      "t": 23961.59999999997,
      "d": 201.59999999999854,
      "v": 88
    },
    {
      "midi": 48,
      "hit": false,
      "t": 23961.599999999973,
      "d": 403.2000000000007,
      "v": 72
    },
    {
      "midi": 71,
      "hit": false,
      "t": 23961.600000000006,
      "d": 1612.7999999999993,
      "v": 72
    },
    {
      "midi": 67,
      "hit": false,
      "t": 23961.600000000006,
      "d": 1612.7999999999993,
      "v": 72
    },
    {
      "midi": 64,
      "hit": false,
      "t": 23961.600000000006,
      "d": 1612.7999999999993,
      "v": 72
    },
    {
      "midi": 60,
      "hit": false,
      "t": 23961.600000000006,
      "d": 1612.7999999999993,
      "v": 72
    },
    {
      "midi": 67,
      "hit": false,
      "t": 24191.999999999967,
      "d": 201.59999999999854,
      "v": 88
    },
    {
      "midi": 69,
      "hit": false,
      "t": 24422.399999999965,
      "d": 201.59999999999854,
      "v": 88
    },
    {
      "midi": 38,
      "hit": false,
      "t": 24422.399999999965,
      "d": 201.59999999999854,
      "v": 80
    },
    {
      "midi": 48,
      "hit": false,
      "t": 24422.399999999972,
      "d": 403.2000000000007,
      "v": 72
    },
    {
      "midi": 67,
      "hit": false,
      "t": 24652.799999999963,
      "d": 1036.7999999999993,
      "v": 88
    },
    {
      "midi": 64,
      "hit": false,
      "t": 24652.799999999963,
      "d": 1036.7999999999993,
      "v": 88
    },
    {
      "midi": 60,
      "hit": false,
      "t": 24652.799999999963,
      "d": 1036.7999999999993,
      "v": 88
    },
    {
      "midi": 38,
      "hit": false,
      "t": 24652.799999999963,
      "d": 201.59999999999854,
      "v": 80
    },
    {
      "midi": 50,
      "hit": false,
      "t": 24883.19999999996,
      "d": 403.2000000000007,
      "v": 80
    },
    {
      "midi": 48,
      "hit": false,
      "t": 24883.19999999997,
      "d": 403.2000000000007,
      "v": 72
    },
    {
      "midi": 38,
      "hit": false,
      "t": 25343.99999999996,
      "d": 201.59999999999854,
      "v": 80
    },
    {
      "midi": 48,
      "hit": false,
      "t": 25343.99999999997,
      "d": 403.2000000000007,
      "v": 72
    },
    {
      "midi": 38,
      "hit": false,
      "t": 25574.399999999958,
      "d": 201.59999999999854,
      "v": 80
    },
    {
      "midi": 50,
      "hit": false,
      "t": 25804.799999999956,
      "d": 403.2000000000007,
      "v": 80
    },
    {
      "midi": 64,
      "hit": false,
      "t": 25804.799999999963,
      "d": 1209.5999999999985,
      "v": 88
    },
    {
      "midi": 59,
      "hit": false,
      "t": 25804.799999999963,
      "d": 1209.5999999999985,
      "v": 88
    },
    {
      "midi": 55,
      "hit": false,
      "t": 25804.799999999963,
      "d": 1209.5999999999985,
      "v": 88
    },
    {
      "midi": 52,
      "hit": false,
      "t": 25804.79999999997,
      "d": 403.2000000000007,
      "v": 72
    },
    {
      "midi": 71,
      "hit": false,
      "t": 25804.800000000007,
      "d": 1612.7999999999993,
      "v": 72
    },
    {
      "midi": 67,
      "hit": false,
      "t": 25804.800000000007,
      "d": 1612.7999999999993,
      "v": 72
    },
    {
      "midi": 64,
      "hit": false,
      "t": 25804.800000000007,
      "d": 1612.7999999999993,
      "v": 72
    },
    {
      "midi": 38,
      "hit": false,
      "t": 26265.599999999955,
      "d": 201.59999999999854,
      "v": 80
    },
    {
      "midi": 52,
      "hit": false,
      "t": 26265.59999999997,
      "d": 403.2000000000007,
      "v": 72
    },
    {
      "midi": 38,
      "hit": false,
      "t": 26495.999999999953,
      "d": 201.59999999999854,
      "v": 80
    },
    {
      "midi": 50,
      "hit": false,
      "t": 26726.39999999995,
      "d": 403.2000000000007,
      "v": 80
    },
    {
      "midi": 52,
      "hit": false,
      "t": 26726.39999999997,
      "d": 403.2000000000007,
      "v": 72
    },
    {
      "midi": 79,
      "hit": false,
      "t": 26726.400000000005,
      "d": 403.2000000000007,
      "v": 72
    },
    {
      "midi": 38,
      "hit": false,
      "t": 27187.19999999995,
      "d": 201.59999999999854,
      "v": 80
    },
    {
      "midi": 64,
      "hit": false,
      "t": 27187.19999999996,
      "d": 201.59999999999854,
      "v": 88
    },
    {
      "midi": 52,
      "hit": false,
      "t": 27187.199999999968,
      "d": 403.2000000000007,
      "v": 72
    },
    {
      "midi": 83,
      "hit": false,
      "t": 27187.200000000004,
      "d": 403.2000000000007,
      "v": 72
    },
    {
      "midi": 38,
      "hit": false,
      "t": 27417.599999999948,
      "d": 201.59999999999854,
      "v": 80
    },
    {
      "midi": 67,
      "hit": false,
      "t": 27417.59999999996,
      "d": 201.59999999999854,
      "v": 88
    },
    {
      "midi": 50,
      "hit": false,
      "t": 27647.999999999945,
      "d": 403.2000000000007,
      "v": 80
    },
    {
      "midi": 71,
      "hit": false,
      "t": 27647.999999999956,
      "d": 201.59999999999854,
      "v": 88
    },
    {
      "midi": 64,
      "hit": false,
      "t": 27647.999999999956,
      "d": 201.59999999999854,
      "v": 88
    },
    {
      "midi": 60,
      "hit": false,
      "t": 27647.999999999956,
      "d": 201.59999999999854,
      "v": 88
    },
    {
      "midi": 45,
      "hit": false,
      "t": 27647.999999999967,
      "d": 604.7999999999993,
      "v": 72
    },
    {
      "midi": 67,
      "hit": false,
      "t": 27648.000000000004,
      "d": 1612.7999999999993,
      "v": 72
    },
    {
      "midi": 64,
      "hit": false,
      "t": 27648.000000000004,
      "d": 1612.7999999999993,
      "v": 72
    },
    {
      "midi": 60,
      "hit": false,
      "t": 27648.000000000004,
      "d": 1612.7999999999993,
      "v": 72
    },
    {
      "midi": 57,
      "hit": false,
      "t": 27648.000000000004,
      "d": 1612.7999999999993,
      "v": 72
    },
    {
      "midi": 67,
      "hit": false,
      "t": 27878.399999999954,
      "d": 201.59999999999854,
      "v": 88
    },
    {
      "midi": 38,
      "hit": false,
      "t": 28108.799999999945,
      "d": 201.59999999999854,
      "v": 80
    },
    {
      "midi": 69,
      "hit": false,
      "t": 28108.799999999952,
      "d": 201.59999999999854,
      "v": 88
    },
    {
      "midi": 38,
      "hit": false,
      "t": 28339.199999999943,
      "d": 201.59999999999854,
      "v": 80
    },
    {
      "midi": 67,
      "hit": false,
      "t": 28339.19999999995,
      "d": 432,
      "v": 88
    },
    {
      "midi": 64,
      "hit": false,
      "t": 28339.19999999995,
      "d": 432,
      "v": 88
    },
    {
      "midi": 60,
      "hit": false,
      "t": 28339.19999999995,
      "d": 432,
      "v": 88
    },
    {
      "midi": 47,
      "hit": false,
      "t": 28339.199999999968,
      "d": 201.59999999999854,
      "v": 72
    },
    {
      "midi": 50,
      "hit": false,
      "t": 28569.59999999994,
      "d": 403.2000000000007,
      "v": 80
    },
    {
      "midi": 48,
      "hit": false,
      "t": 28569.599999999966,
      "d": 201.59999999999854,
      "v": 72
    },
    {
      "midi": 64,
      "hit": false,
      "t": 28799.99999999995,
      "d": 403.2000000000007,
      "v": 88
    },
    {
      "midi": 60,
      "hit": false,
      "t": 28799.99999999995,
      "d": 403.2000000000007,
      "v": 88
    },
    {
      "midi": 52,
      "hit": false,
      "t": 28799.999999999964,
      "d": 201.59999999999854,
      "v": 72
    },
    {
      "midi": 38,
      "hit": false,
      "t": 29030.39999999994,
      "d": 201.59999999999854,
      "v": 80
    },
    {
      "midi": 48,
      "hit": false,
      "t": 29030.39999999996,
      "d": 201.59999999999854,
      "v": 72
    },
    {
      "midi": 38,
      "hit": false,
      "t": 29260.799999999937,
      "d": 201.59999999999854,
      "v": 80
    },
    {
      "midi": 72,
      "hit": false,
      "t": 29260.79999999995,
      "d": 432,
      "v": 88
    },
    {
      "midi": 64,
      "hit": false,
      "t": 29260.79999999995,
      "d": 432,
      "v": 88
    },
    {
      "midi": 50,
      "hit": false,
      "t": 29260.79999999996,
      "d": 633.5999999999985,
      "v": 72
    },
    {
      "midi": 50,
      "hit": false,
      "t": 29491.199999999935,
      "d": 403.2000000000007,
      "v": 80
    },
    {
      "midi": 67,
      "hit": false,
      "t": 29491.200000000004,
      "d": 1612.7999999999993,
      "v": 72
    },
    {
      "midi": 64,
      "hit": false,
      "t": 29491.200000000004,
      "d": 1612.7999999999993,
      "v": 72
    },
    {
      "midi": 60,
      "hit": false,
      "t": 29491.200000000004,
      "d": 1612.7999999999993,
      "v": 72
    },
    {
      "midi": 71,
      "hit": false,
      "t": 29721.599999999948,
      "d": 403.2000000000007,
      "v": 88
    },
    {
      "midi": 62,
      "hit": false,
      "t": 29721.599999999948,
      "d": 403.2000000000007,
      "v": 88
    },
    {
      "midi": 57,
      "hit": false,
      "t": 29721.6,
      "d": 201.59999999999854,
      "v": 72
    },
    {
      "midi": 55,
      "hit": false,
      "t": 29721.6,
      "d": 201.59999999999854,
      "v": 72
    },
    {
      "midi": 50,
      "hit": false,
      "t": 29721.6,
      "d": 201.59999999999854,
      "v": 72
    },
    {
      "midi": 38,
      "hit": false,
      "t": 29721.600000000002,
      "d": 201.59999999999854,
      "v": 72
    },
    {
      "midi": 38,
      "hit": false,
      "t": 29951.999999999935,
      "d": 201.59999999999854,
      "v": 80
    },
    {
      "midi": 50,
      "hit": false,
      "t": 29951.999999999956,
      "d": 403.2000000000007,
      "v": 72
    },
    {
      "midi": 57,
      "hit": false,
      "t": 29951.999999999996,
      "d": 403.2000000000007,
      "v": 72
    },
    {
      "midi": 55,
      "hit": false,
      "t": 29951.999999999996,
      "d": 403.2000000000007,
      "v": 72
    },
    {
      "midi": 50,
      "hit": false,
      "t": 29951.999999999996,
      "d": 403.2000000000007,
      "v": 72
    },
    {
      "midi": 38,
      "hit": false,
      "t": 29952,
      "d": 403.2000000000007,
      "v": 72
    },
    {
      "midi": 38,
      "hit": false,
      "t": 30182.399999999932,
      "d": 201.59999999999854,
      "v": 80
    },
    {
      "midi": 67,
      "hit": false,
      "t": 30182.399999999947,
      "d": 633.5999999999985,
      "v": 88
    },
    {
      "midi": 60,
      "hit": false,
      "t": 30182.399999999947,
      "d": 633.5999999999985,
      "v": 88
    },
    {
      "midi": 50,
      "hit": false,
      "t": 30412.79999999993,
      "d": 403.2000000000007,
      "v": 80
    },
    {
      "midi": 50,
      "hit": false,
      "t": 30412.799999999956,
      "d": 403.2000000000007,
      "v": 72
    },
    {
      "midi": 57,
      "hit": false,
      "t": 30412.799999999996,
      "d": 201.59999999999854,
      "v": 72
    },
    {
      "midi": 55,
      "hit": false,
      "t": 30412.799999999996,
      "d": 201.59999999999854,
      "v": 72
    },
    {
      "midi": 50,
      "hit": false,
      "t": 30412.799999999996,
      "d": 201.59999999999854,
      "v": 72
    },
    {
      "midi": 38,
      "hit": false,
      "t": 30412.8,
      "d": 201.59999999999854,
      "v": 72
    },
    {
      "midi": 57,
      "hit": false,
      "t": 30643.199999999993,
      "d": 604.7999999999993,
      "v": 72
    },
    {
      "midi": 55,
      "hit": false,
      "t": 30643.199999999993,
      "d": 604.7999999999993,
      "v": 72
    },
    {
      "midi": 50,
      "hit": false,
      "t": 30643.199999999993,
      "d": 604.7999999999993,
      "v": 72
    },
    {
      "midi": 38,
      "hit": false,
      "t": 30643.199999999997,
      "d": 604.7999999999993,
      "v": 72
    },
    {
      "midi": 38,
      "hit": false,
      "t": 30873.59999999993,
      "d": 96,
      "v": 80
    },
    {
      "midi": 50,
      "hit": false,
      "t": 30873.599999999955,
      "d": 403.2000000000007,
      "v": 72
    },
    {
      "midi": 64,
      "hit": false,
      "t": 30873.600000000013,
      "d": 403.2000000000007,
      "v": 80
    },
    {
      "midi": 38,
      "hit": false,
      "t": 30988.79999999993,
      "d": 96,
      "v": 80
    },
    {
      "midi": 38,
      "hit": false,
      "t": 31103.99999999993,
      "d": 96,
      "v": 80
    },
    {
      "midi": 38,
      "hit": false,
      "t": 31219.19999999993,
      "d": 96,
      "v": 80
    },
    {
      "midi": 50,
      "hit": false,
      "t": 31334.399999999932,
      "d": 403.2000000000007,
      "v": 80
    },
    {
      "midi": 43,
      "hit": false,
      "t": 31334.399999999954,
      "d": 604.7999999999993,
      "v": 72
    },
    {
      "midi": 59,
      "hit": false,
      "t": 31334.399999999994,
      "d": 1612.800000000003,
      "v": 72
    },
    {
      "midi": 55,
      "hit": false,
      "t": 31334.399999999994,
      "d": 1612.800000000003,
      "v": 72
    },
    {
      "midi": 50,
      "hit": false,
      "t": 31334.399999999994,
      "d": 1612.800000000003,
      "v": 72
    },
    {
      "midi": 43,
      "hit": false,
      "t": 31334.399999999998,
      "d": 403.2000000000007,
      "v": 72
    },
    {
      "midi": 62,
      "hit": false,
      "t": 31334.400000000012,
      "d": 806.4000000000015,
      "v": 80
    },
    {
      "midi": 59,
      "hit": false,
      "t": 31334.400000000012,
      "d": 806.4000000000015,
      "v": 80
    },
    {
      "midi": 38,
      "hit": false,
      "t": 31795.19999999993,
      "d": 201.59999999999854,
      "v": 80
    },
    {
      "midi": 43,
      "hit": false,
      "t": 31795.199999999997,
      "d": 403.2000000000007,
      "v": 72
    },
    {
      "midi": 38,
      "hit": false,
      "t": 32025.59999999993,
      "d": 201.59999999999854,
      "v": 80
    },
    {
      "midi": 43,
      "hit": false,
      "t": 32025.599999999955,
      "d": 201.59999999999854,
      "v": 72
    },
    {
      "midi": 50,
      "hit": false,
      "t": 32255.999999999927,
      "d": 403.2000000000007,
      "v": 80
    },
    {
      "midi": 43,
      "hit": false,
      "t": 32255.999999999953,
      "d": 604.7999999999993,
      "v": 72
    },
    {
      "midi": 43,
      "hit": false,
      "t": 32255.999999999996,
      "d": 403.2000000000007,
      "v": 72
    },
    {
      "midi": 67,
      "hit": false,
      "t": 32256.000000000015,
      "d": 403.2000000000007,
      "v": 80
    },
    {
      "midi": 38,
      "hit": false,
      "t": 32716.799999999927,
      "d": 201.60000000000218,
      "v": 80
    },
    {
      "midi": 43,
      "hit": false,
      "t": 32716.799999999996,
      "d": 403.1999999999971,
      "v": 72
    },
    {
      "midi": 62,
      "hit": false,
      "t": 32716.800000000014,
      "d": 403.2000000000007,
      "v": 80
    },
    {
      "midi": 38,
      "hit": false,
      "t": 32947.19999999993,
      "d": 201.59999999999854,
      "v": 80
    },
    {
      "midi": 43,
      "hit": false,
      "t": 32947.19999999995,
      "d": 201.59999999999854,
      "v": 72
    },
    {
      "midi": 50,
      "hit": false,
      "t": 33177.59999999993,
      "d": 403.1999999999971,
      "v": 80
    },
    {
      "midi": 42,
      "hit": false,
      "t": 33177.599999999955,
      "d": 604.8000000000029,
      "v": 72
    },
    {
      "midi": 42,
      "hit": false,
      "t": 33177.59999999999,
      "d": 403.1999999999971,
      "v": 72
    },
    {
      "midi": 57,
      "hit": false,
      "t": 33177.6,
      "d": 1612.800000000003,
      "v": 72
    },
    {
      "midi": 54,
      "hit": false,
      "t": 33177.6,
      "d": 1612.800000000003,
      "v": 72
    },
    {
      "midi": 50,
      "hit": false,
      "t": 33177.6,
      "d": 1612.800000000003,
      "v": 72
    },
    {
      "midi": 62,
      "hit": false,
      "t": 33177.60000000001,
      "d": 1209.5999999999985,
      "v": 80
    },
    {
      "midi": 57,
      "hit": false,
      "t": 33177.60000000001,
      "d": 1209.5999999999985,
      "v": 80
    },
    {
      "midi": 38,
      "hit": false,
      "t": 33638.39999999993,
      "d": 201.59999999999854,
      "v": 80
    },
    {
      "midi": 42,
      "hit": false,
      "t": 33638.39999999999,
      "d": 403.1999999999971,
      "v": 72
    },
    {
      "midi": 38,
      "hit": false,
      "t": 33868.79999999993,
      "d": 201.59999999999854,
      "v": 80
    },
    {
      "midi": 42,
      "hit": false,
      "t": 33868.79999999996,
      "d": 201.59999999999854,
      "v": 72
    },
    {
      "midi": 50,
      "hit": false,
      "t": 34099.19999999993,
      "d": 403.1999999999971,
      "v": 80
    },
    {
      "midi": 42,
      "hit": false,
      "t": 34099.19999999996,
      "d": 604.8000000000029,
      "v": 72
    },
    {
      "midi": 42,
      "hit": false,
      "t": 34099.19999999998,
      "d": 403.1999999999971,
      "v": 72
    },
    {
      "midi": 38,
      "hit": false,
      "t": 34559.99999999993,
      "d": 201.59999999999854,
      "v": 80
    },
    {
      "midi": 42,
      "hit": false,
      "t": 34559.99999999998,
      "d": 403.1999999999971,
      "v": 72
    },
    {
      "midi": 62,
      "hit": false,
      "t": 34560.000000000015,
      "d": 403.1999999999971,
      "v": 80
    },
    {
      "midi": 38,
      "hit": false,
      "t": 34790.39999999993,
      "d": 201.59999999999854,
      "v": 80
    },
    {
      "midi": 42,
      "hit": false,
      "t": 34790.399999999965,
      "d": 201.59999999999854,
      "v": 72
    },
    {
      "midi": 50,
      "hit": false,
      "t": 35020.79999999993,
      "d": 403.1999999999971,
      "v": 80
    },
    {
      "midi": 40,
      "hit": false,
      "t": 35020.79999999997,
      "d": 604.8000000000029,
      "v": 72
    },
    {
      "midi": 40,
      "hit": false,
      "t": 35020.799999999974,
      "d": 403.1999999999971,
      "v": 72
    },
    {
      "midi": 59,
      "hit": false,
      "t": 35020.8,
      "d": 1612.800000000003,
      "v": 72
    },
    {
      "midi": 55,
      "hit": false,
      "t": 35020.8,
      "d": 1612.800000000003,
      "v": 72
    },
    {
      "midi": 50,
      "hit": false,
      "t": 35020.8,
      "d": 1612.800000000003,
      "v": 72
    },
    {
      "midi": 67,
      "hit": false,
      "t": 35020.80000000001,
      "d": 806.4000000000015,
      "v": 80
    },
    {
      "midi": 59,
      "hit": false,
      "t": 35020.80000000001,
      "d": 806.4000000000015,
      "v": 80
    },
    {
      "midi": 38,
      "hit": false,
      "t": 35481.599999999926,
      "d": 201.59999999999854,
      "v": 80
    },
    {
      "midi": 40,
      "hit": false,
      "t": 35481.59999999997,
      "d": 403.1999999999971,
      "v": 72
    },
    {
      "midi": 38,
      "hit": false,
      "t": 35711.99999999993,
      "d": 201.59999999999854,
      "v": 80
    },
    {
      "midi": 40,
      "hit": false,
      "t": 35711.99999999997,
      "d": 201.59999999999854,
      "v": 72
    },
    {
      "midi": 50,
      "hit": false,
      "t": 35942.39999999993,
      "d": 403.1999999999971,
      "v": 80
    },
    {
      "midi": 40,
      "hit": false,
      "t": 35942.399999999965,
      "d": 403.1999999999971,
      "v": 72
    },
    {
      "midi": 40,
      "hit": false,
      "t": 35942.39999999997,
      "d": 604.8000000000029,
      "v": 72
    },
    {
      "midi": 66,
      "hit": false,
      "t": 35942.40000000001,
      "d": 403.1999999999971,
      "v": 80
    },
    {
      "midi": 38,
      "hit": false,
      "t": 36403.199999999924,
      "d": 201.59999999999854,
      "v": 80
    },
    {
      "midi": 40,
      "hit": false,
      "t": 36403.19999999996,
      "d": 403.1999999999971,
      "v": 72
    },
    {
      "midi": 64,
      "hit": false,
      "t": 36403.200000000004,
      "d": 403.1999999999971,
      "v": 80
    },
    {
      "midi": 38,
      "hit": false,
      "t": 36633.599999999926,
      "d": 201.59999999999854,
      "v": 80
    },
    {
      "midi": 40,
      "hit": false,
      "t": 36633.59999999998,
      "d": 201.59999999999854,
      "v": 72
    },
    {
      "midi": 50,
      "hit": false,
      "t": 36863.99999999993,
      "d": 403.1999999999971,
      "v": 80
    },
    {
      "midi": 38,
      "hit": false,
      "t": 36863.999999999956,
      "d": 403.1999999999971,
      "v": 72
    },
    {
      "midi": 38,
      "hit": false,
      "t": 36863.99999999998,
      "d": 604.8000000000029,
      "v": 72
    },
    {
      "midi": 62,
      "hit": false,
      "t": 36864,
      "d": 1209.5999999999985,
      "v": 80
    },
    {
      "midi": 59,
      "hit": false,
      "t": 36864,
      "d": 1209.5999999999985,
      "v": 80
    },
    {
      "midi": 54,
      "hit": false,
      "t": 36864,
      "d": 1209.5999999999985,
      "v": 80
    },
    {
      "midi": 59,
      "hit": false,
      "t": 36864.00000000001,
      "d": 1612.800000000003,
      "v": 72
    },
    {
      "midi": 54,
      "hit": false,
      "t": 36864.00000000001,
      "d": 1612.800000000003,
      "v": 72
    },
    {
      "midi": 50,
      "hit": false,
      "t": 36864.00000000001,
      "d": 1612.800000000003,
      "v": 72
    },
    {
      "midi": 38,
      "hit": false,
      "t": 37324.79999999992,
      "d": 201.59999999999854,
      "v": 80
    },
    {
      "midi": 38,
      "hit": false,
      "t": 37324.79999999995,
      "d": 403.1999999999971,
      "v": 72
    },
    {
      "midi": 38,
      "hit": false,
      "t": 37555.199999999924,
      "d": 201.59999999999854,
      "v": 80
    },
    {
      "midi": 38,
      "hit": false,
      "t": 37555.19999999998,
      "d": 201.59999999999854,
      "v": 72
    },
    {
      "midi": 50,
      "hit": false,
      "t": 37785.599999999926,
      "d": 403.1999999999971,
      "v": 80
    },
    {
      "midi": 38,
      "hit": false,
      "t": 37785.59999999995,
      "d": 403.1999999999971,
      "v": 72
    },
    {
      "midi": 38,
      "hit": false,
      "t": 37785.599999999984,
      "d": 604.8000000000029,
      "v": 72
    },
    {
      "midi": 38,
      "hit": false,
      "t": 38246.39999999992,
      "d": 201.59999999999854,
      "v": 80
    },
    {
      "midi": 38,
      "hit": false,
      "t": 38246.39999999994,
      "d": 403.1999999999971,
      "v": 72
    },
    {
      "midi": 38,
      "hit": false,
      "t": 38476.79999999992,
      "d": 201.59999999999854,
      "v": 80
    },
    {
      "midi": 38,
      "hit": false,
      "t": 38476.79999999999,
      "d": 201.59999999999854,
      "v": 72
    },
    {
      "midi": 50,
      "hit": false,
      "t": 38707.199999999924,
      "d": 403.1999999999971,
      "v": 80
    },
    {
      "midi": 36,
      "hit": false,
      "t": 38707.19999999994,
      "d": 403.1999999999971,
      "v": 72
    },
    {
      "midi": 64,
      "hit": false,
      "t": 38707.199999999946,
      "d": 1612.800000000003,
      "v": 80
    },
    {
      "midi": 36,
      "hit": false,
      "t": 38707.19999999999,
      "d": 604.8000000000029,
      "v": 72
    },
    {
      "midi": 60,
      "hit": false,
      "t": 38707.20000000001,
      "d": 1612.800000000003,
      "v": 72
    },
    {
      "midi": 55,
      "hit": false,
      "t": 38707.20000000001,
      "d": 1612.800000000003,
      "v": 72
    },
    {
      "midi": 52,
      "hit": false,
      "t": 38707.20000000001,
      "d": 1612.800000000003,
      "v": 72
    },
    {
      "midi": 38,
      "hit": false,
      "t": 39167.99999999992,
      "d": 201.59999999999854,
      "v": 80
    },
    {
      "midi": 36,
      "hit": false,
      "t": 39167.999999999935,
      "d": 403.1999999999971,
      "v": 72
    },
    {
      "midi": 62,
      "hit": false,
      "t": 39168,
      "d": 403.1999999999971,
      "v": 80
    },
    {
      "midi": 38,
      "hit": false,
      "t": 39398.39999999992,
      "d": 201.59999999999854,
      "v": 80
    },
    {
      "midi": 36,
      "hit": false,
      "t": 39398.399999999994,
      "d": 201.59999999999854,
      "v": 72
    },
    {
      "midi": 50,
      "hit": false,
      "t": 39628.79999999992,
      "d": 403.1999999999971,
      "v": 80
    },
    {
      "midi": 36,
      "hit": false,
      "t": 39628.79999999993,
      "d": 403.1999999999971,
      "v": 72
    },
    {
      "midi": 60,
      "hit": false,
      "t": 39628.799999999996,
      "d": 403.1999999999971,
      "v": 80
    },
    {
      "midi": 36,
      "hit": false,
      "t": 39628.799999999996,
      "d": 604.8000000000029,
      "v": 72
    },
    {
      "midi": 38,
      "hit": false,
      "t": 40089.59999999992,
      "d": 201.59999999999854,
      "v": 80
    },
    {
      "midi": 36,
      "hit": false,
      "t": 40089.599999999926,
      "d": 403.1999999999971,
      "v": 72
    },
    {
      "midi": 59,
      "hit": false,
      "t": 40089.59999999999,
      "d": 403.1999999999971,
      "v": 80
    },
    {
      "midi": 38,
      "hit": false,
      "t": 40319.99999999992,
      "d": 201.59999999999854,
      "v": 80
    },
    {
      "midi": 36,
      "hit": false,
      "t": 40320,
      "d": 201.59999999999854,
      "v": 72
    },
    {
      "midi": 38,
      "hit": false,
      "t": 40550.39999999992,
      "d": 403.1999999999971,
      "v": 72
    },
    {
      "midi": 50,
      "hit": false,
      "t": 40550.39999999992,
      "d": 403.1999999999971,
      "v": 80
    },
    {
      "midi": 66,
      "hit": false,
      "t": 40550.39999999995,
      "d": 1209.5999999999985,
      "v": 80
    },
    {
      "midi": 62,
      "hit": false,
      "t": 40550.39999999995,
      "d": 1209.5999999999985,
      "v": 80
    },
    {
      "midi": 59,
      "hit": false,
      "t": 40550.39999999999,
      "d": 403.1999999999971,
      "v": 80
    },
    {
      "midi": 38,
      "hit": false,
      "t": 40550.4,
      "d": 604.8000000000029,
      "v": 72
    },
    {
      "midi": 57,
      "hit": false,
      "t": 40550.400000000016,
      "d": 1612.800000000003,
      "v": 72
    },
    {
      "midi": 54,
      "hit": false,
      "t": 40550.400000000016,
      "d": 1612.800000000003,
      "v": 72
    },
    {
      "midi": 38,
      "hit": false,
      "t": 41011.19999999992,
      "d": 403.1999999999971,
      "v": 72
    },
    {
      "midi": 38,
      "hit": false,
      "t": 41011.19999999992,
      "d": 201.59999999999854,
      "v": 80
    },
    {
      "midi": 57,
      "hit": false,
      "t": 41011.19999999998,
      "d": 201.59999999999854,
      "v": 80
    },
    {
      "midi": 38,
      "hit": false,
      "t": 41241.59999999992,
      "d": 201.59999999999854,
      "v": 80
    },
    {
      "midi": 57,
      "hit": false,
      "t": 41241.599999999984,
      "d": 633.5999999999985,
      "v": 80
    },
    {
      "midi": 38,
      "hit": false,
      "t": 41241.600000000006,
      "d": 201.59999999999854,
      "v": 72
    },
    {
      "midi": 38,
      "hit": false,
      "t": 41471.99999999991,
      "d": 403.1999999999971,
      "v": 72
    },
    {
      "midi": 50,
      "hit": false,
      "t": 41471.99999999992,
      "d": 403.1999999999971,
      "v": 80
    },
    {
      "midi": 38,
      "hit": false,
      "t": 41472.00000000001,
      "d": 604.8000000000029,
      "v": 72
    },
    {
      "midi": 38,
      "hit": false,
      "t": 41932.79999999991,
      "d": 403.1999999999971,
      "v": 72
    },
    {
      "midi": 38,
      "hit": false,
      "t": 41932.799999999916,
      "d": 201.59999999999854,
      "v": 80
    },
    {
      "midi": 59,
      "hit": false,
      "t": 41932.79999999995,
      "d": 201.59999999999854,
      "v": 80
    },
    {
      "midi": 38,
      "hit": false,
      "t": 42163.19999999992,
      "d": 201.59999999999854,
      "v": 80
    },
    {
      "midi": 60,
      "hit": false,
      "t": 42163.19999999995,
      "d": 201.59999999999854,
      "v": 80
    },
    {
      "midi": 38,
      "hit": false,
      "t": 42163.20000000001,
      "d": 201.59999999999854,
      "v": 72
    },
    {
      "midi": 45,
      "hit": false,
      "t": 42393.599999999904,
      "d": 403.1999999999971,
      "v": 72
    },
    {
      "midi": 50,
      "hit": false,
      "t": 42393.59999999992,
      "d": 403.1999999999971,
      "v": 80
    },
    {
      "midi": 62,
      "hit": false,
      "t": 42393.599999999955,
      "d": 403.1999999999971,
      "v": 80
    },
    {
      "midi": 67,
      "hit": false,
      "t": 42393.599999999984,
      "d": 1612.800000000003,
      "v": 80
    },
    {
      "midi": 33,
      "hit": false,
      "t": 42393.60000000001,
      "d": 604.8000000000029,
      "v": 72
    },
    {
      "midi": 60,
      "hit": false,
      "t": 42393.60000000002,
      "d": 1612.800000000003,
      "v": 72
    },
    {
      "midi": 55,
      "hit": false,
      "t": 42393.60000000002,
      "d": 1612.800000000003,
      "v": 72
    },
    {
      "midi": 52,
      "hit": false,
      "t": 42393.60000000002,
      "d": 1612.800000000003,
      "v": 72
    },
    {
      "midi": 45,
      "hit": false,
      "t": 42854.3999999999,
      "d": 403.1999999999971,
      "v": 72
    },
    {
      "midi": 38,
      "hit": false,
      "t": 42854.399999999914,
      "d": 201.59999999999854,
      "v": 80
    },
    {
      "midi": 62,
      "hit": false,
      "t": 42854.39999999995,
      "d": 403.1999999999971,
      "v": 80
    },
    {
      "midi": 38,
      "hit": false,
      "t": 43084.799999999916,
      "d": 201.59999999999854,
      "v": 80
    },
    {
      "midi": 33,
      "hit": false,
      "t": 43084.80000000002,
      "d": 201.59999999999854,
      "v": 72
    },
    {
      "midi": 45,
      "hit": false,
      "t": 43315.199999999895,
      "d": 403.1999999999971,
      "v": 72
    },
    {
      "midi": 50,
      "hit": false,
      "t": 43315.19999999992,
      "d": 403.1999999999971,
      "v": 80
    },
    {
      "midi": 60,
      "hit": false,
      "t": 43315.199999999946,
      "d": 403.1999999999971,
      "v": 80
    },
    {
      "midi": 33,
      "hit": false,
      "t": 43315.20000000002,
      "d": 604.8000000000029,
      "v": 72
    },
    {
      "midi": 45,
      "hit": false,
      "t": 43775.99999999989,
      "d": 403.1999999999971,
      "v": 72
    },
    {
      "midi": 38,
      "hit": false,
      "t": 43775.99999999991,
      "d": 201.59999999999854,
      "v": 80
    },
    {
      "midi": 64,
      "hit": false,
      "t": 43775.99999999994,
      "d": 403.1999999999971,
      "v": 80
    },
    {
      "midi": 38,
      "hit": false,
      "t": 44006.399999999914,
      "d": 201.59999999999854,
      "v": 80
    },
    {
      "midi": 33,
      "hit": false,
      "t": 44006.40000000002,
      "d": 201.59999999999854,
      "v": 72
    },
    {
      "midi": 38,
      "hit": false,
      "t": 44236.79999999989,
      "d": 403.1999999999971,
      "v": 72
    },
    {
      "midi": 50,
      "hit": false,
      "t": 44236.799999999916,
      "d": 403.1999999999971,
      "v": 80
    },
    {
      "midi": 59,
      "hit": false,
      "t": 44236.79999999994,
      "d": 403.1999999999971,
      "v": 80
    },
    {
      "midi": 55,
      "hit": false,
      "t": 44236.79999999994,
      "d": 403.1999999999971,
      "v": 80
    },
    {
      "midi": 38,
      "hit": false,
      "t": 44236.800000000025,
      "d": 604.8000000000029,
      "v": 72
    },
    {
      "midi": 57,
      "hit": false,
      "t": 44236.800000000025,
      "d": 1612.800000000003,
      "v": 72
    },
    {
      "midi": 54,
      "hit": false,
      "t": 44236.800000000025,
      "d": 1612.800000000003,
      "v": 72
    },
    {
      "midi": 38,
      "hit": false,
      "t": 44697.59999999988,
      "d": 403.1999999999971,
      "v": 72
    },
    {
      "midi": 38,
      "hit": false,
      "t": 44697.59999999991,
      "d": 201.59999999999854,
      "v": 80
    },
    {
      "midi": 57,
      "hit": false,
      "t": 44697.59999999993,
      "d": 201.59999999999854,
      "v": 80
    },
    {
      "midi": 38,
      "hit": false,
      "t": 44927.99999999991,
      "d": 201.59999999999854,
      "v": 80
    },
    {
      "midi": 57,
      "hit": false,
      "t": 44927.999999999935,
      "d": 633.5999999999985,
      "v": 80
    },
    {
      "midi": 54,
      "hit": false,
      "t": 44927.999999999935,
      "d": 633.5999999999985,
      "v": 80
    },
    {
      "midi": 38,
      "hit": false,
      "t": 44928.00000000003,
      "d": 633.5999999999985,
      "v": 72
    },
    {
      "midi": 38,
      "hit": false,
      "t": 45158.39999999988,
      "d": 403.1999999999971,
      "v": 72
    },
    {
      "midi": 50,
      "hit": false,
      "t": 45158.399999999914,
      "d": 403.1999999999971,
      "v": 80
    },
    {
      "midi": 38,
      "hit": false,
      "t": 45619.19999999987,
      "d": 403.1999999999971,
      "v": 72
    },
    {
      "midi": 38,
      "hit": false,
      "t": 45619.19999999991,
      "d": 96,
      "v": 80
    },
    {
      "midi": 67,
      "hit": false,
      "t": 45619.19999999999,
      "d": 403.1999999999971,
      "v": 80
    },
    {
      "midi": 62,
      "hit": false,
      "t": 45619.19999999999,
      "d": 403.1999999999971,
      "v": 80
    },
    {
      "midi": 38,
      "hit": false,
      "t": 45619.200000000026,
      "d": 403.1999999999971,
      "v": 72
    },
    {
      "midi": 38,
      "hit": false,
      "t": 45734.39999999991,
      "d": 96,
      "v": 80
    },
    {
      "midi": 38,
      "hit": false,
      "t": 45849.599999999904,
      "d": 96,
      "v": 80
    },
    {
      "midi": 38,
      "hit": false,
      "t": 45964.7999999999,
      "d": 96,
      "v": 80
    },
    {
      "midi": 43,
      "hit": false,
      "t": 46079.99999999987,
      "d": 403.1999999999971,
      "v": 72
    },
    {
      "midi": 50,
      "hit": false,
      "t": 46079.9999999999,
      "d": 403.1999999999971,
      "v": 80
    },
    {
      "midi": 67,
      "hit": false,
      "t": 46079.999999999985,
      "d": 806.4000000000015,
      "v": 80
    },
    {
      "midi": 62,
      "hit": false,
      "t": 46079.999999999985,
      "d": 806.4000000000015,
      "v": 80
    },
    {
      "midi": 43,
      "hit": false,
      "t": 46080.00000000002,
      "d": 604.8000000000029,
      "v": 72
    },
    {
      "midi": 59,
      "hit": false,
      "t": 46080.00000000003,
      "d": 1612.800000000003,
      "v": 72
    },
    {
      "midi": 55,
      "hit": false,
      "t": 46080.00000000003,
      "d": 1612.800000000003,
      "v": 72
    },
    {
      "midi": 50,
      "hit": false,
      "t": 46080.00000000003,
      "d": 1612.800000000003,
      "v": 72
    },
    {
      "midi": 43,
      "hit": false,
      "t": 46540.799999999865,
      "d": 403.1999999999971,
      "v": 72
    },
    {
      "midi": 38,
      "hit": false,
      "t": 46540.799999999894,
      "d": 201.59999999999854,
      "v": 80
    },
    {
      "midi": 38,
      "hit": false,
      "t": 46771.199999999895,
      "d": 201.59999999999854,
      "v": 80
    },
    {
      "midi": 43,
      "hit": false,
      "t": 46771.200000000026,
      "d": 201.59999999999854,
      "v": 72
    },
    {
      "midi": 43,
      "hit": false,
      "t": 47001.59999999986,
      "d": 403.1999999999971,
      "v": 72
    },
    {
      "midi": 50,
      "hit": false,
      "t": 47001.5999999999,
      "d": 403.1999999999971,
      "v": 80
    },
    {
      "midi": 71,
      "hit": false,
      "t": 47001.599999999984,
      "d": 403.1999999999971,
      "v": 80
    },
    {
      "midi": 67,
      "hit": false,
      "t": 47001.599999999984,
      "d": 403.1999999999971,
      "v": 80
    },
    {
      "midi": 43,
      "hit": false,
      "t": 47001.60000000003,
      "d": 604.8000000000029,
      "v": 72
    },
    {
      "midi": 43,
      "hit": false,
      "t": 47462.399999999856,
      "d": 403.1999999999971,
      "v": 72
    },
    {
      "midi": 38,
      "hit": false,
      "t": 47462.39999999989,
      "d": 201.59999999999854,
      "v": 80
    },
    {
      "midi": 67,
      "hit": false,
      "t": 47462.39999999998,
      "d": 403.1999999999971,
      "v": 80
    },
    {
      "midi": 62,
      "hit": false,
      "t": 47462.39999999998,
      "d": 403.1999999999971,
      "v": 80
    },
    {
      "midi": 38,
      "hit": false,
      "t": 47692.799999999894,
      "d": 201.59999999999854,
      "v": 80
    },
    {
      "midi": 43,
      "hit": false,
      "t": 47692.80000000003,
      "d": 201.59999999999854,
      "v": 72
    },
    {
      "midi": 42,
      "hit": false,
      "t": 47923.19999999985,
      "d": 403.1999999999971,
      "v": 72
    },
    {
      "midi": 50,
      "hit": false,
      "t": 47923.199999999895,
      "d": 403.1999999999971,
      "v": 80
    },
    {
      "midi": 66,
      "hit": false,
      "t": 47923.199999999975,
      "d": 806.4000000000015,
      "v": 80
    },
    {
      "midi": 62,
      "hit": false,
      "t": 47923.199999999975,
      "d": 806.4000000000015,
      "v": 80
    },
    {
      "midi": 42,
      "hit": false,
      "t": 47923.20000000003,
      "d": 604.8000000000029,
      "v": 72
    },
    {
      "midi": 57,
      "hit": false,
      "t": 47923.20000000003,
      "d": 1612.800000000003,
      "v": 72
    },
    {
      "midi": 54,
      "hit": false,
      "t": 47923.20000000003,
      "d": 1612.800000000003,
      "v": 72
    },
    {
      "midi": 50,
      "hit": false,
      "t": 47923.20000000003,
      "d": 1612.800000000003,
      "v": 72
    },
    {
      "midi": 42,
      "hit": false,
      "t": 48383.99999999985,
      "d": 403.1999999999971,
      "v": 72
    },
    {
      "midi": 38,
      "hit": false,
      "t": 48383.99999999989,
      "d": 201.59999999999854,
      "v": 80
    },
    {
      "midi": 38,
      "hit": false,
      "t": 48614.39999999989,
      "d": 201.59999999999854,
      "v": 80
    },
    {
      "midi": 42,
      "hit": false,
      "t": 48614.40000000004,
      "d": 201.59999999999854,
      "v": 72
    },
    {
      "midi": 42,
      "hit": false,
      "t": 48844.79999999984,
      "d": 403.1999999999971,
      "v": 72
    },
    {
      "midi": 50,
      "hit": false,
      "t": 48844.799999999894,
      "d": 403.1999999999971,
      "v": 80
    },
    {
      "midi": 42,
      "hit": false,
      "t": 48844.80000000004,
      "d": 604.8000000000029,
      "v": 72
    },
    {
      "midi": 42,
      "hit": false,
      "t": 49305.59999999984,
      "d": 403.1999999999971,
      "v": 72
    },
    {
      "midi": 38,
      "hit": false,
      "t": 49305.59999999989,
      "d": 201.59999999999854,
      "v": 80
    },
    {
      "midi": 66,
      "hit": false,
      "t": 49305.59999999998,
      "d": 403.1999999999971,
      "v": 80
    },
    {
      "midi": 62,
      "hit": false,
      "t": 49305.59999999998,
      "d": 403.1999999999971,
      "v": 80
    },
    {
      "midi": 38,
      "hit": false,
      "t": 49535.99999999989,
      "d": 201.59999999999854,
      "v": 80
    },
    {
      "midi": 42,
      "hit": false,
      "t": 49536.000000000044,
      "d": 201.59999999999854,
      "v": 72
    },
    {
      "midi": 40,
      "hit": false,
      "t": 49766.399999999834,
      "d": 403.1999999999971,
      "v": 72
    },
    {
      "midi": 50,
      "hit": false,
      "t": 49766.39999999989,
      "d": 403.1999999999971,
      "v": 80
    },
    {
      "midi": 71,
      "hit": false,
      "t": 49766.39999999997,
      "d": 806.4000000000015,
      "v": 80
    },
    {
      "midi": 67,
      "hit": false,
      "t": 49766.39999999997,
      "d": 806.4000000000015,
      "v": 80
    },
    {
      "midi": 59,
      "hit": false,
      "t": 49766.40000000004,
      "d": 1612.800000000003,
      "v": 72
    },
    {
      "midi": 55,
      "hit": false,
      "t": 49766.40000000004,
      "d": 1612.800000000003,
      "v": 72
    },
    {
      "midi": 50,
      "hit": false,
      "t": 49766.40000000004,
      "d": 1612.800000000003,
      "v": 72
    },
    {
      "midi": 40,
      "hit": false,
      "t": 49766.400000000045,
      "d": 604.8000000000029,
      "v": 72
    },
    {
      "midi": 40,
      "hit": false,
      "t": 50227.19999999983,
      "d": 403.1999999999971,
      "v": 72
    },
    {
      "midi": 38,
      "hit": false,
      "t": 50227.19999999989,
      "d": 201.59999999999854,
      "v": 80
    },
    {
      "midi": 38,
      "hit": false,
      "t": 50457.59999999989,
      "d": 201.59999999999854,
      "v": 80
    },
    {
      "midi": 40,
      "hit": false,
      "t": 50457.60000000005,
      "d": 201.59999999999854,
      "v": 72
    },
    {
      "midi": 40,
      "hit": false,
      "t": 50687.999999999825,
      "d": 403.1999999999971,
      "v": 72
    },
    {
      "midi": 50,
      "hit": false,
      "t": 50687.99999999989,
      "d": 403.1999999999971,
      "v": 80
    },
    {
      "midi": 69,
      "hit": false,
      "t": 50687.99999999997,
      "d": 403.1999999999971,
      "v": 80
    },
    {
      "midi": 66,
      "hit": false,
      "t": 50687.99999999997,
      "d": 403.1999999999971,
      "v": 80
    },
    {
      "midi": 40,
      "hit": false,
      "t": 50688.00000000005,
      "d": 604.8000000000029,
      "v": 72
    },
    {
      "midi": 40,
      "hit": false,
      "t": 51148.79999999982,
      "d": 403.1999999999971,
      "v": 72
    },
    {
      "midi": 38,
      "hit": false,
      "t": 51148.79999999989,
      "d": 201.59999999999854,
      "v": 80
    },
    {
      "midi": 67,
      "hit": false,
      "t": 51148.79999999997,
      "d": 403.1999999999971,
      "v": 80
    },
    {
      "midi": 64,
      "hit": false,
      "t": 51148.79999999997,
      "d": 403.1999999999971,
      "v": 80
    },
    {
      "midi": 38,
      "hit": false,
      "t": 51379.19999999989,
      "d": 201.59999999999854,
      "v": 80
    },
    {
      "midi": 40,
      "hit": false,
      "t": 51379.200000000055,
      "d": 201.59999999999854,
      "v": 72
    },
    {
      "midi": 38,
      "hit": false,
      "t": 51609.59999999982,
      "d": 403.1999999999971,
      "v": 72
    },
    {
      "midi": 50,
      "hit": false,
      "t": 51609.59999999989,
      "d": 403.1999999999971,
      "v": 80
    },
    {
      "midi": 66,
      "hit": false,
      "t": 51609.59999999996,
      "d": 806.4000000000015,
      "v": 80
    },
    {
      "midi": 62,
      "hit": false,
      "t": 51609.59999999996,
      "d": 806.4000000000015,
      "v": 80
    },
    {
      "midi": 59,
      "hit": false,
      "t": 51609.60000000004,
      "d": 1612.800000000003,
      "v": 72
    },
    {
      "midi": 54,
      "hit": false,
      "t": 51609.60000000004,
      "d": 1612.800000000003,
      "v": 72
    },
    {
      "midi": 50,
      "hit": false,
      "t": 51609.60000000004,
      "d": 1612.800000000003,
      "v": 72
    },
    {
      "midi": 38,
      "hit": false,
      "t": 51609.60000000006,
      "d": 604.8000000000029,
      "v": 72
    },
    {
      "midi": 38,
      "hit": false,
      "t": 52070.39999999981,
      "d": 403.1999999999971,
      "v": 72
    },
    {
      "midi": 38,
      "hit": false,
      "t": 52070.399999999885,
      "d": 201.59999999999854,
      "v": 80
    },
    {
      "midi": 71,
      "hit": false,
      "t": 52070.399999999936,
      "d": 403.1999999999971,
      "v": 80
    },
    {
      "midi": 38,
      "hit": false,
      "t": 52300.79999999989,
      "d": 201.59999999999854,
      "v": 80
    },
    {
      "midi": 38,
      "hit": false,
      "t": 52300.80000000006,
      "d": 201.59999999999854,
      "v": 72
    },
    {
      "midi": 38,
      "hit": false,
      "t": 52531.19999999981,
      "d": 403.1999999999971,
      "v": 72
    },
    {
      "midi": 50,
      "hit": false,
      "t": 52531.19999999989,
      "d": 403.1999999999971,
      "v": 80
    },
    {
      "midi": 66,
      "hit": false,
      "t": 52531.19999999993,
      "d": 403.1999999999971,
      "v": 80
    },
    {
      "midi": 38,
      "hit": false,
      "t": 52531.20000000006,
      "d": 604.8000000000029,
      "v": 72
    },
    {
      "midi": 38,
      "hit": false,
      "t": 52991.9999999998,
      "d": 403.1999999999971,
      "v": 72
    },
    {
      "midi": 38,
      "hit": false,
      "t": 52991.99999999988,
      "d": 201.59999999999854,
      "v": 80
    },
    {
      "midi": 62,
      "hit": false,
      "t": 52991.99999999993,
      "d": 403.1999999999971,
      "v": 80
    },
    {
      "midi": 38,
      "hit": false,
      "t": 53222.399999999885,
      "d": 201.59999999999854,
      "v": 80
    },
    {
      "midi": 38,
      "hit": false,
      "t": 53222.40000000007,
      "d": 201.59999999999854,
      "v": 72
    },
    {
      "midi": 45,
      "hit": false,
      "t": 53452.7999999998,
      "d": 403.1999999999971,
      "v": 72
    },
    {
      "midi": 50,
      "hit": false,
      "t": 53452.79999999989,
      "d": 403.1999999999971,
      "v": 80
    },
    {
      "midi": 64,
      "hit": false,
      "t": 53452.79999999992,
      "d": 403.1999999999971,
      "v": 80
    },
    {
      "midi": 60,
      "hit": false,
      "t": 53452.79999999992,
      "d": 403.1999999999971,
      "v": 80
    },
    {
      "midi": 60,
      "hit": false,
      "t": 53452.80000000005,
      "d": 1612.800000000003,
      "v": 72
    },
    {
      "midi": 55,
      "hit": false,
      "t": 53452.80000000005,
      "d": 1612.800000000003,
      "v": 72
    },
    {
      "midi": 52,
      "hit": false,
      "t": 53452.80000000005,
      "d": 1612.800000000003,
      "v": 72
    },
    {
      "midi": 33,
      "hit": false,
      "t": 53452.80000000007,
      "d": 604.8000000000029,
      "v": 72
    },
    {
      "midi": 45,
      "hit": false,
      "t": 53913.599999999795,
      "d": 403.1999999999971,
      "v": 72
    },
    {
      "midi": 38,
      "hit": false,
      "t": 53913.59999999988,
      "d": 201.59999999999854,
      "v": 80
    },
    {
      "midi": 67,
      "hit": false,
      "t": 53913.59999999996,
      "d": 403.1999999999971,
      "v": 80
    },
    {
      "midi": 64,
      "hit": false,
      "t": 53913.59999999996,
      "d": 403.1999999999971,
      "v": 80
    },
    {
      "midi": 38,
      "hit": false,
      "t": 54143.99999999988,
      "d": 201.59999999999854,
      "v": 80
    },
    {
      "midi": 33,
      "hit": false,
      "t": 54144.00000000007,
      "d": 201.59999999999854,
      "v": 72
    },
    {
      "midi": 45,
      "hit": false,
      "t": 54374.39999999979,
      "d": 403.1999999999971,
      "v": 72
    },
    {
      "midi": 50,
      "hit": false,
      "t": 54374.399999999885,
      "d": 403.1999999999971,
      "v": 80
    },
    {
      "midi": 67,
      "hit": false,
      "t": 54374.39999999996,
      "d": 403.1999999999971,
      "v": 80
    },
    {
      "midi": 64,
      "hit": false,
      "t": 54374.39999999996,
      "d": 403.1999999999971,
      "v": 80
    },
    {
      "midi": 33,
      "hit": false,
      "t": 54374.400000000074,
      "d": 604.8000000000029,
      "v": 72
    },
    {
      "midi": 45,
      "hit": false,
      "t": 54835.199999999786,
      "d": 403.1999999999971,
      "v": 72
    },
    {
      "midi": 38,
      "hit": false,
      "t": 54835.19999999988,
      "d": 201.59999999999854,
      "v": 80
    },
    {
      "midi": 67,
      "hit": false,
      "t": 54835.19999999995,
      "d": 403.1999999999971,
      "v": 80
    },
    {
      "midi": 64,
      "hit": false,
      "t": 54835.19999999995,
      "d": 403.1999999999971,
      "v": 80
    },
    {
      "midi": 38,
      "hit": false,
      "t": 55065.59999999988,
      "d": 201.59999999999854,
      "v": 80
    },
    {
      "midi": 33,
      "hit": false,
      "t": 55065.60000000008,
      "d": 201.59999999999854,
      "v": 72
    },
    {
      "midi": 38,
      "hit": false,
      "t": 55295.99999999978,
      "d": 403.1999999999971,
      "v": 72
    },
    {
      "midi": 50,
      "hit": false,
      "t": 55295.99999999988,
      "d": 403.1999999999971,
      "v": 80
    },
    {
      "midi": 69,
      "hit": false,
      "t": 55295.99999999995,
      "d": 403.1999999999971,
      "v": 80
    },
    {
      "midi": 66,
      "hit": false,
      "t": 55295.99999999995,
      "d": 403.1999999999971,
      "v": 80
    },
    {
      "midi": 62,
      "hit": false,
      "t": 55296.00000000005,
      "d": 1612.800000000003,
      "v": 72
    },
    {
      "midi": 57,
      "hit": false,
      "t": 55296.00000000005,
      "d": 1612.800000000003,
      "v": 72
    },
    {
      "midi": 54,
      "hit": false,
      "t": 55296.00000000005,
      "d": 1612.800000000003,
      "v": 72
    },
    {
      "midi": 38,
      "hit": false,
      "t": 55296.00000000008,
      "d": 604.8000000000029,
      "v": 72
    },
    {
      "midi": 38,
      "hit": false,
      "t": 55756.79999999978,
      "d": 403.1999999999971,
      "v": 72
    },
    {
      "midi": 38,
      "hit": false,
      "t": 55756.79999999988,
      "d": 201.59999999999854,
      "v": 80
    },
    {
      "midi": 67,
      "hit": false,
      "t": 55756.799999999945,
      "d": 201.59999999999854,
      "v": 80
    },
    {
      "midi": 64,
      "hit": false,
      "t": 55756.799999999945,
      "d": 201.59999999999854,
      "v": 80
    },
    {
      "midi": 38,
      "hit": false,
      "t": 55987.19999999988,
      "d": 201.59999999999854,
      "v": 80
    },
    {
      "midi": 66,
      "hit": false,
      "t": 55987.199999999946,
      "d": 633.5999999999985,
      "v": 80
    },
    {
      "midi": 62,
      "hit": false,
      "t": 55987.199999999946,
      "d": 633.5999999999985,
      "v": 80
    },
    {
      "midi": 38,
      "hit": false,
      "t": 55987.200000000084,
      "d": 201.59999999999854,
      "v": 72
    },
    {
      "midi": 38,
      "hit": false,
      "t": 56217.59999999977,
      "d": 403.1999999999971,
      "v": 72
    },
    {
      "midi": 50,
      "hit": false,
      "t": 56217.59999999988,
      "d": 403.1999999999971,
      "v": 80
    },
    {
      "midi": 38,
      "hit": false,
      "t": 56217.600000000086,
      "d": 604.8000000000029,
      "v": 72
    },
    {
      "midi": 38,
      "hit": false,
      "t": 56678.39999999977,
      "d": 403.1999999999971,
      "v": 72
    },
    {
      "midi": 38,
      "hit": false,
      "t": 56678.39999999988,
      "d": 201.59999999999854,
      "v": 80
    },
    {
      "midi": 69,
      "hit": false,
      "t": 56678.39999999994,
      "d": 403.1999999999971,
      "v": 80
    },
    {
      "midi": 66,
      "hit": false,
      "t": 56678.39999999994,
      "d": 403.1999999999971,
      "v": 80
    },
    {
      "midi": 38,
      "hit": false,
      "t": 56908.79999999988,
      "d": 201.59999999999854,
      "v": 80
    },
    {
      "midi": 38,
      "hit": false,
      "t": 56908.80000000009,
      "d": 201.59999999999854,
      "v": 72
    },
    {
      "midi": 36,
      "hit": false,
      "t": 57139.199999999764,
      "d": 403.1999999999971,
      "v": 72
    },
    {
      "midi": 50,
      "hit": false,
      "t": 57139.19999999988,
      "d": 403.1999999999971,
      "v": 80
    },
    {
      "midi": 67,
      "hit": false,
      "t": 57139.19999999992,
      "d": 201.59999999999854,
      "v": 80
    },
    {
      "midi": 64,
      "hit": false,
      "t": 57139.19999999992,
      "d": 201.59999999999854,
      "v": 80
    },
    {
      "midi": 67,
      "hit": false,
      "t": 57139.19999999994,
      "d": 806.4000000000015,
      "v": 80
    },
    {
      "midi": 64,
      "hit": false,
      "t": 57139.19999999994,
      "d": 806.4000000000015,
      "v": 80
    },
    {
      "midi": 64,
      "hit": false,
      "t": 57139.200000000055,
      "d": 604.8000000000029,
      "v": 72
    },
    {
      "midi": 60,
      "hit": false,
      "t": 57139.200000000055,
      "d": 604.8000000000029,
      "v": 72
    },
    {
      "midi": 55,
      "hit": false,
      "t": 57139.200000000055,
      "d": 604.8000000000029,
      "v": 72
    },
    {
      "midi": 48,
      "hit": false,
      "t": 57139.20000000009,
      "d": 604.8000000000029,
      "v": 72
    },
    {
      "midi": 36,
      "hit": false,
      "t": 57139.20000000009,
      "d": 604.8000000000029,
      "v": 72
    },
    {
      "midi": 66,
      "hit": false,
      "t": 57369.59999999992,
      "d": 201.59999999999854,
      "v": 80
    },
    {
      "midi": 48,
      "hit": false,
      "t": 57599.99999999976,
      "d": 201.59999999999854,
      "v": 72
    },
    {
      "midi": 38,
      "hit": false,
      "t": 57599.999999999876,
      "d": 201.59999999999854,
      "v": 80
    },
    {
      "midi": 67,
      "hit": false,
      "t": 57599.99999999992,
      "d": 201.59999999999854,
      "v": 80
    },
    {
      "midi": 47,
      "hit": false,
      "t": 57830.39999999976,
      "d": 1036.800000000003,
      "v": 72
    },
    {
      "midi": 38,
      "hit": false,
      "t": 57830.39999999988,
      "d": 201.59999999999854,
      "v": 80
    },
    {
      "midi": 62,
      "hit": false,
      "t": 57830.39999999992,
      "d": 432,
      "v": 88
    },
    {
      "midi": 59,
      "hit": false,
      "t": 57830.39999999992,
      "d": 432,
      "v": 88
    },
    {
      "midi": 62,
      "hit": false,
      "t": 57830.40000000006,
      "d": 201.59999999999854,
      "v": 72
    },
    {
      "midi": 59,
      "hit": false,
      "t": 57830.40000000006,
      "d": 1036.800000000003,
      "v": 72
    },
    {
      "midi": 55,
      "hit": false,
      "t": 57830.40000000006,
      "d": 1036.800000000003,
      "v": 72
    },
    {
      "midi": 47,
      "hit": false,
      "t": 57830.400000000096,
      "d": 201.59999999999854,
      "v": 72
    },
    {
      "midi": 35,
      "hit": false,
      "t": 57830.400000000096,
      "d": 1036.800000000003,
      "v": 72
    },
    {
      "midi": 50,
      "hit": false,
      "t": 58060.79999999988,
      "d": 403.1999999999971,
      "v": 80
    },
    {
      "midi": 62,
      "hit": false,
      "t": 58060.80000000006,
      "d": 806.4000000000015,
      "v": 72
    },
    {
      "midi": 47,
      "hit": false,
      "t": 58060.8000000001,
      "d": 806.4000000000015,
      "v": 72
    },
    {
      "midi": 67,
      "hit": false,
      "t": 58291.199999999924,
      "d": 201.59999999999854,
      "v": 80
    },
    {
      "midi": 38,
      "hit": false,
      "t": 58521.599999999875,
      "d": 201.59999999999854,
      "v": 80
    },
    {
      "midi": 66,
      "hit": false,
      "t": 58521.599999999926,
      "d": 201.59999999999854,
      "v": 80
    },
    {
      "midi": 38,
      "hit": false,
      "t": 58751.999999999876,
      "d": 201.59999999999854,
      "v": 80
    },
    {
      "midi": 67,
      "hit": false,
      "t": 58751.99999999993,
      "d": 201.59999999999854,
      "v": 80
    },
    {
      "midi": 45,
      "hit": false,
      "t": 58982.39999999976,
      "d": 403.1999999999971,
      "v": 72
    },
    {
      "midi": 50,
      "hit": false,
      "t": 58982.39999999988,
      "d": 403.1999999999971,
      "v": 80
    },
    {
      "midi": 72,
      "hit": false,
      "t": 58982.39999999993,
      "d": 201.59999999999854,
      "v": 80
    },
    {
      "midi": 69,
      "hit": false,
      "t": 58982.39999999993,
      "d": 201.59999999999854,
      "v": 80
    },
    {
      "midi": 64,
      "hit": false,
      "t": 58982.39999999993,
      "d": 201.59999999999854,
      "v": 80
    },
    {
      "midi": 60,
      "hit": false,
      "t": 58982.40000000006,
      "d": 604.8000000000029,
      "v": 72
    },
    {
      "midi": 57,
      "hit": false,
      "t": 58982.40000000006,
      "d": 604.8000000000029,
      "v": 72
    },
    {
      "midi": 45,
      "hit": false,
      "t": 58982.400000000096,
      "d": 604.8000000000029,
      "v": 72
    },
    {
      "midi": 33,
      "hit": false,
      "t": 58982.400000000096,
      "d": 604.8000000000029,
      "v": 72
    },
    {
      "midi": 71,
      "hit": false,
      "t": 59212.79999999993,
      "d": 201.59999999999854,
      "v": 80
    },
    {
      "midi": 45,
      "hit": false,
      "t": 59443.19999999976,
      "d": 201.59999999999854,
      "v": 72
    },
    {
      "midi": 38,
      "hit": false,
      "t": 59443.19999999987,
      "d": 201.59999999999854,
      "v": 80
    },
    {
      "midi": 69,
      "hit": false,
      "t": 59443.19999999993,
      "d": 201.59999999999854,
      "v": 80
    },
    {
      "midi": 43,
      "hit": false,
      "t": 59673.59999999976,
      "d": 633.5999999999985,
      "v": 72
    },
    {
      "midi": 38,
      "hit": false,
      "t": 59673.599999999875,
      "d": 201.59999999999854,
      "v": 80
    },
    {
      "midi": 71,
      "hit": false,
      "t": 59673.59999999993,
      "d": 1036.800000000003,
      "v": 88
    },
    {
      "midi": 67,
      "hit": false,
      "t": 59673.59999999993,
      "d": 1036.800000000003,
      "v": 88
    },
    {
      "midi": 62,
      "hit": false,
      "t": 59673.59999999993,
      "d": 1036.800000000003,
      "v": 88
    },
    {
      "midi": 59,
      "hit": false,
      "t": 59673.600000000064,
      "d": 201.59999999999854,
      "v": 72
    },
    {
      "midi": 55,
      "hit": false,
      "t": 59673.600000000064,
      "d": 1036.800000000003,
      "v": 72
    },
    {
      "midi": 53,
      "hit": false,
      "t": 59673.600000000064,
      "d": 1036.800000000003,
      "v": 72
    },
    {
      "midi": 43,
      "hit": false,
      "t": 59673.6000000001,
      "d": 201.59999999999854,
      "v": 72
    },
    {
      "midi": 31,
      "hit": false,
      "t": 59673.6000000001,
      "d": 201.59999999999854,
      "v": 72
    },
    {
      "midi": 50,
      "hit": false,
      "t": 59903.999999999876,
      "d": 403.1999999999971,
      "v": 80
    },
    {
      "midi": 59,
      "hit": false,
      "t": 59904.000000000065,
      "d": 806.4000000000015,
      "v": 72
    },
    {
      "midi": 43,
      "hit": false,
      "t": 59904.0000000001,
      "d": 201.59999999999854,
      "v": 72
    },
    {
      "midi": 31,
      "hit": false,
      "t": 59904.0000000001,
      "d": 201.59999999999854,
      "v": 72
    },
    {
      "midi": 45,
      "hit": false,
      "t": 60134.4000000001,
      "d": 201.59999999999854,
      "v": 72
    },
    {
      "midi": 38,
      "hit": false,
      "t": 60364.79999999987,
      "d": 96,
      "v": 80
    },
    {
      "midi": 47,
      "hit": false,
      "t": 60364.800000000105,
      "d": 403.1999999999971,
      "v": 72
    },
    {
      "midi": 38,
      "hit": false,
      "t": 60479.99999999987,
      "d": 96,
      "v": 80
    },
    {
      "midi": 38,
      "hit": false,
      "t": 60595.199999999866,
      "d": 96,
      "v": 80
    },
    {
      "midi": 38,
      "hit": false,
      "t": 60710.39999999986,
      "d": 96,
      "v": 80
    },
    {
      "midi": 48,
      "hit": false,
      "t": 60825.59999999976,
      "d": 403.1999999999971,
      "v": 72
    },
    {
      "midi": 50,
      "hit": false,
      "t": 60825.59999999986,
      "d": 403.1999999999971,
      "v": 80
    },
    {
      "midi": 67,
      "hit": false,
      "t": 60825.59999999994,
      "d": 1612.800000000003,
      "v": 80
    },
    {
      "midi": 64,
      "hit": false,
      "t": 60825.600000000064,
      "d": 1612.800000000003,
      "v": 72
    },
    {
      "midi": 60,
      "hit": false,
      "t": 60825.600000000064,
      "d": 1612.800000000003,
      "v": 72
    },
    {
      "midi": 55,
      "hit": false,
      "t": 60825.600000000064,
      "d": 1612.800000000003,
      "v": 72
    },
    {
      "midi": 48,
      "hit": false,
      "t": 60825.6000000001,
      "d": 604.8000000000029,
      "v": 72
    },
    {
      "midi": 64,
      "hit": false,
      "t": 61286.399999999936,
      "d": 403.1999999999971,
      "v": 80
    },
    {
      "midi": 48,
      "hit": false,
      "t": 61516.799999999756,
      "d": 201.59999999999854,
      "v": 72
    },
    {
      "midi": 50,
      "hit": false,
      "t": 61516.79999999986,
      "d": 201.59999999999854,
      "v": 80
    },
    {
      "midi": 48,
      "hit": false,
      "t": 61516.800000000105,
      "d": 201.59999999999854,
      "v": 72
    },
    {
      "midi": 48,
      "hit": false,
      "t": 61747.19999999976,
      "d": 403.1999999999971,
      "v": 72
    },
    {
      "midi": 38,
      "hit": false,
      "t": 61747.19999999986,
      "d": 403.1999999999971,
      "v": 80
    },
    {
      "midi": 62,
      "hit": false,
      "t": 61747.19999999993,
      "d": 403.1999999999971,
      "v": 80
    },
    {
      "midi": 48,
      "hit": false,
      "t": 61747.200000000106,
      "d": 806.4000000000015,
      "v": 72
    },
    {
      "midi": 41,
      "hit": false,
      "t": 62207.999999999854,
      "d": 201.59999999999854,
      "v": 80
    },
    {
      "midi": 60,
      "hit": false,
      "t": 62207.99999999993,
      "d": 403.1999999999971,
      "v": 80
    },
    {
      "midi": 41,
      "hit": false,
      "t": 62438.399999999856,
      "d": 201.59999999999854,
      "v": 80
    },
    {
      "midi": 48,
      "hit": false,
      "t": 62668.799999999756,
      "d": 403.1999999999971,
      "v": 72
    },
    {
      "midi": 50,
      "hit": false,
      "t": 62668.79999999986,
      "d": 403.1999999999971,
      "v": 80
    },
    {
      "midi": 59,
      "hit": false,
      "t": 62668.79999999992,
      "d": 201.59999999999854,
      "v": 80
    },
    {
      "midi": 66,
      "hit": false,
      "t": 62668.799999999945,
      "d": 403.1999999999971,
      "v": 80
    },
    {
      "midi": 62,
      "hit": false,
      "t": 62668.799999999945,
      "d": 403.1999999999971,
      "v": 80
    },
    {
      "midi": 62,
      "hit": false,
      "t": 62668.80000000007,
      "d": 1612.800000000003,
      "v": 72
    },
    {
      "midi": 60,
      "hit": false,
      "t": 62668.80000000007,
      "d": 1612.800000000003,
      "v": 72
    },
    {
      "midi": 54,
      "hit": false,
      "t": 62668.80000000007,
      "d": 1612.800000000003,
      "v": 72
    },
    {
      "midi": 48,
      "hit": false,
      "t": 62668.800000000105,
      "d": 604.8000000000029,
      "v": 72
    },
    {
      "midi": 57,
      "hit": false,
      "t": 62899.199999999924,
      "d": 201.59999999999854,
      "v": 80
    },
    {
      "midi": 48,
      "hit": false,
      "t": 63359.99999999975,
      "d": 201.59999999999854,
      "v": 72
    },
    {
      "midi": 50,
      "hit": false,
      "t": 63359.999999999854,
      "d": 201.59999999999854,
      "v": 80
    },
    {
      "midi": 57,
      "hit": false,
      "t": 63359.99999999992,
      "d": 633.5999999999985,
      "v": 80
    },
    {
      "midi": 66,
      "hit": false,
      "t": 63359.99999999994,
      "d": 633.5999999999985,
      "v": 80
    },
    {
      "midi": 62,
      "hit": false,
      "t": 63359.99999999994,
      "d": 633.5999999999985,
      "v": 80
    },
    {
      "midi": 48,
      "hit": false,
      "t": 63360.00000000011,
      "d": 201.59999999999854,
      "v": 72
    },
    {
      "midi": 48,
      "hit": false,
      "t": 63590.399999999754,
      "d": 403.1999999999971,
      "v": 72
    },
    {
      "midi": 38,
      "hit": false,
      "t": 63590.399999999856,
      "d": 403.1999999999971,
      "v": 80
    },
    {
      "midi": 48,
      "hit": false,
      "t": 63590.40000000011,
      "d": 806.4000000000015,
      "v": 72
    },
    {
      "midi": 41,
      "hit": false,
      "t": 64051.19999999985,
      "d": 201.59999999999854,
      "v": 80
    },
    {
      "midi": 66,
      "hit": false,
      "t": 64051.19999999994,
      "d": 403.1999999999971,
      "v": 80
    },
    {
      "midi": 41,
      "hit": false,
      "t": 64281.59999999985,
      "d": 201.59999999999854,
      "v": 80
    },
    {
      "midi": 47,
      "hit": false,
      "t": 64511.99999999975,
      "d": 403.1999999999971,
      "v": 72
    },
    {
      "midi": 50,
      "hit": false,
      "t": 64511.999999999854,
      "d": 403.1999999999971,
      "v": 80
    },
    {
      "midi": 63,
      "hit": false,
      "t": 64511.99999999992,
      "d": 806.4000000000015,
      "v": 80
    },
    {
      "midi": 66,
      "hit": false,
      "t": 64511.999999999935,
      "d": 403.1999999999971,
      "v": 80
    },
    {
      "midi": 63,
      "hit": false,
      "t": 64512.00000000007,
      "d": 1612.800000000003,
      "v": 72
    },
    {
      "midi": 57,
      "hit": false,
      "t": 64512.00000000007,
      "d": 1612.800000000003,
      "v": 72
    },
    {
      "midi": 54,
      "hit": false,
      "t": 64512.00000000007,
      "d": 1612.800000000003,
      "v": 72
    },
    {
      "midi": 47,
      "hit": false,
      "t": 64512.00000000011,
      "d": 604.8000000000029,
      "v": 72
    },
    {
      "midi": 66,
      "hit": false,
      "t": 64972.79999999993,
      "d": 403.1999999999971,
      "v": 80
    },
    {
      "midi": 47,
      "hit": false,
      "t": 65203.19999999975,
      "d": 201.59999999999854,
      "v": 72
    },
    {
      "midi": 50,
      "hit": false,
      "t": 65203.19999999985,
      "d": 201.59999999999854,
      "v": 80
    },
    {
      "midi": 47,
      "hit": false,
      "t": 65203.20000000011,
      "d": 201.59999999999854,
      "v": 72
    },
    {
      "midi": 47,
      "hit": false,
      "t": 65433.59999999975,
      "d": 403.20000000000437,
      "v": 72
    },
    {
      "midi": 38,
      "hit": false,
      "t": 65433.59999999985,
      "d": 403.20000000000437,
      "v": 80
    },
    {
      "midi": 69,
      "hit": false,
      "t": 65433.59999999992,
      "d": 806.3999999999942,
      "v": 80
    },
    {
      "midi": 64,
      "hit": false,
      "t": 65433.599999999926,
      "d": 403.20000000000437,
      "v": 80
    },
    {
      "midi": 47,
      "hit": false,
      "t": 65433.600000000115,
      "d": 806.4000000000015,
      "v": 72
    },
    {
      "midi": 41,
      "hit": false,
      "t": 65894.39999999986,
      "d": 201.60000000000582,
      "v": 80
    },
    {
      "midi": 66,
      "hit": false,
      "t": 65894.39999999994,
      "d": 403.1999999999971,
      "v": 80
    },
    {
      "midi": 41,
      "hit": false,
      "t": 66124.79999999987,
      "d": 201.60000000000582,
      "v": 80
    },
    {
      "midi": 40,
      "hit": false,
      "t": 66355.19999999975,
      "d": 403.1999999999971,
      "v": 72
    },
    {
      "midi": 50,
      "hit": false,
      "t": 66355.19999999988,
      "d": 403.1999999999971,
      "v": 80
    },
    {
      "midi": 67,
      "hit": false,
      "t": 66355.19999999991,
      "d": 403.1999999999971,
      "v": 80
    },
    {
      "midi": 67,
      "hit": false,
      "t": 66355.19999999994,
      "d": 201.60000000000582,
      "v": 80
    },
    {
      "midi": 64,
      "hit": false,
      "t": 66355.20000000007,
      "d": 1612.800000000003,
      "v": 72
    },
    {
      "midi": 59,
      "hit": false,
      "t": 66355.20000000007,
      "d": 1612.800000000003,
      "v": 72
    },
    {
      "midi": 55,
      "hit": false,
      "t": 66355.20000000007,
      "d": 1612.800000000003,
      "v": 72
    },
    {
      "midi": 40,
      "hit": false,
      "t": 66355.20000000011,
      "d": 604.8000000000029,
      "v": 72
    },
    {
      "midi": 64,
      "hit": false,
      "t": 66585.59999999995,
      "d": 201.60000000000582,
      "v": 80
    },
    {
      "midi": 40,
      "hit": false,
      "t": 67046.39999999975,
      "d": 201.60000000000582,
      "v": 72
    },
    {
      "midi": 50,
      "hit": false,
      "t": 67046.39999999988,
      "d": 201.60000000000582,
      "v": 80
    },
    {
      "midi": 59,
      "hit": false,
      "t": 67046.3999999999,
      "d": 1036.800000000003,
      "v": 80
    },
    {
      "midi": 67,
      "hit": false,
      "t": 67046.39999999995,
      "d": 1036.800000000003,
      "v": 80
    },
    {
      "midi": 64,
      "hit": false,
      "t": 67046.39999999995,
      "d": 1036.800000000003,
      "v": 80
    },
    {
      "midi": 40,
      "hit": false,
      "t": 67046.40000000011,
      "d": 201.60000000000582,
      "v": 72
    },
    {
      "midi": 40,
      "hit": false,
      "t": 67276.79999999976,
      "d": 403.1999999999971,
      "v": 72
    },
    {
      "midi": 38,
      "hit": false,
      "t": 67276.79999999989,
      "d": 403.1999999999971,
      "v": 80
    },
    {
      "midi": 52,
      "hit": false,
      "t": 67276.80000000012,
      "d": 403.1999999999971,
      "v": 72
    },
    {
      "midi": 41,
      "hit": false,
      "t": 67737.59999999989,
      "d": 201.60000000000582,
      "v": 80
    },
    {
      "midi": 50,
      "hit": false,
      "t": 67737.60000000012,
      "d": 403.1999999999971,
      "v": 72
    },
    {
      "midi": 41,
      "hit": false,
      "t": 67967.9999999999,
      "d": 201.60000000000582,
      "v": 80
    },
    {
      "midi": 37,
      "hit": false,
      "t": 68198.39999999975,
      "d": 403.1999999999971,
      "v": 72
    },
    {
      "midi": 50,
      "hit": false,
      "t": 68198.3999999999,
      "d": 403.1999999999971,
      "v": 80
    },
    {
      "midi": 61,
      "hit": false,
      "t": 68198.40000000007,
      "d": 1852.800000000003,
      "v": 72
    },
    {
      "midi": 64,
      "hit": false,
      "t": 68198.40000000007,
      "d": 3456,
      "v": 72
    },
    {
      "midi": 57,
      "hit": false,
      "t": 68198.40000000007,
      "d": 3456,
      "v": 72
    },
    {
      "midi": 49,
      "hit": false,
      "t": 68198.40000000013,
      "d": 604.8000000000029,
      "v": 72
    },
    {
      "midi": 64,
      "hit": false,
      "t": 68659.19999999995,
      "d": 201.60000000000582,
      "v": 80
    },
    {
      "midi": 60,
      "hit": false,
      "t": 68659.19999999995,
      "d": 201.60000000000582,
      "v": 80
    },
    {
      "midi": 37,
      "hit": false,
      "t": 68889.59999999974,
      "d": 201.60000000000582,
      "v": 72
    },
    {
      "midi": 50,
      "hit": false,
      "t": 68889.5999999999,
      "d": 201.60000000000582,
      "v": 80
    },
    {
      "midi": 64,
      "hit": false,
      "t": 68889.59999999996,
      "d": 201.60000000000582,
      "v": 80
    },
    {
      "midi": 60,
      "hit": false,
      "t": 68889.59999999996,
      "d": 201.60000000000582,
      "v": 80
    },
    {
      "midi": 49,
      "hit": false,
      "t": 68889.60000000012,
      "d": 201.60000000000582,
      "v": 72
    },
    {
      "midi": 37,
      "hit": false,
      "t": 69119.99999999975,
      "d": 403.1999999999971,
      "v": 72
    },
    {
      "midi": 38,
      "hit": false,
      "t": 69119.99999999991,
      "d": 403.1999999999971,
      "v": 80
    },
    {
      "midi": 64,
      "hit": false,
      "t": 69119.99999999997,
      "d": 403.1999999999971,
      "v": 80
    },
    {
      "midi": 60,
      "hit": false,
      "t": 69119.99999999997,
      "d": 403.1999999999971,
      "v": 80
    },
    {
      "midi": 49,
      "hit": false,
      "t": 69120.00000000013,
      "d": 806.3999999999942,
      "v": 72
    },
    {
      "midi": 41,
      "hit": false,
      "t": 69580.79999999992,
      "d": 201.60000000000582,
      "v": 80
    },
    {
      "midi": 41,
      "hit": false,
      "t": 69811.19999999992,
      "d": 201.60000000000582,
      "v": 80
    },
    {
      "midi": 64,
      "hit": false,
      "t": 69811.19999999997,
      "d": 201.60000000000582,
      "v": 80
    },
    {
      "midi": 60,
      "hit": false,
      "t": 69811.19999999997,
      "d": 201.60000000000582,
      "v": 80
    },
    {
      "midi": 37,
      "hit": false,
      "t": 70041.59999999974,
      "d": 403.1999999999971,
      "v": 72
    },
    {
      "midi": 50,
      "hit": false,
      "t": 70041.59999999993,
      "d": 403.1999999999971,
      "v": 80
    },
    {
      "midi": 69,
      "hit": false,
      "t": 70041.59999999998,
      "d": 403.1999999999971,
      "v": 80
    },
    {
      "midi": 64,
      "hit": false,
      "t": 70041.59999999998,
      "d": 403.1999999999971,
      "v": 80
    },
    {
      "midi": 60,
      "hit": false,
      "t": 70041.60000000006,
      "d": 1612.800000000003,
      "v": 72
    },
    {
      "midi": 45,
      "hit": false,
      "t": 70041.60000000012,
      "d": 604.8000000000029,
      "v": 72
    },
    {
      "midi": 64,
      "hit": false,
      "t": 70502.39999999998,
      "d": 403.1999999999971,
      "v": 80
    },
    {
      "midi": 37,
      "hit": false,
      "t": 70732.79999999974,
      "d": 201.60000000000582,
      "v": 72
    },
    {
      "midi": 50,
      "hit": false,
      "t": 70732.79999999993,
      "d": 201.60000000000582,
      "v": 80
    },
    {
      "midi": 45,
      "hit": false,
      "t": 70732.80000000012,
      "d": 201.60000000000582,
      "v": 72
    },
    {
      "midi": 37,
      "hit": false,
      "t": 70963.19999999975,
      "d": 403.1999999999971,
      "v": 72
    },
    {
      "midi": 38,
      "hit": false,
      "t": 70963.19999999994,
      "d": 403.1999999999971,
      "v": 80
    },
    {
      "midi": 66,
      "hit": false,
      "t": 70963.19999999998,
      "d": 201.60000000000582,
      "v": 80
    },
    {
      "midi": 45,
      "hit": false,
      "t": 70963.20000000013,
      "d": 806.3999999999942,
      "v": 72
    },
    {
      "midi": 64,
      "hit": false,
      "t": 71193.59999999999,
      "d": 604.8000000000029,
      "v": 80
    },
    {
      "midi": 41,
      "hit": false,
      "t": 71423.99999999994,
      "d": 201.60000000000582,
      "v": 80
    },
    {
      "midi": 41,
      "hit": false,
      "t": 71654.39999999995,
      "d": 201.60000000000582,
      "v": 80
    },
    {
      "midi": 38,
      "hit": false,
      "t": 71884.79999999974,
      "d": 403.1999999999971,
      "v": 72
    },
    {
      "midi": 50,
      "hit": false,
      "t": 71884.79999999996,
      "d": 403.1999999999971,
      "v": 80
    },
    {
      "midi": 62,
      "hit": false,
      "t": 71884.79999999999,
      "d": 403.1999999999971,
      "v": 80
    },
    {
      "midi": 62,
      "hit": false,
      "t": 71884.80000000006,
      "d": 1612.800000000003,
      "v": 72
    },
    {
      "midi": 57,
      "hit": false,
      "t": 71884.80000000006,
      "d": 1612.800000000003,
      "v": 72
    },
    {
      "midi": 54,
      "hit": false,
      "t": 71884.80000000006,
      "d": 1612.800000000003,
      "v": 72
    },
    {
      "midi": 50,
      "hit": false,
      "t": 71884.80000000012,
      "d": 403.1999999999971,
      "v": 72
    },
    {
      "midi": 38,
      "hit": false,
      "t": 71884.80000000012,
      "d": 403.1999999999971,
      "v": 72
    },
    {
      "midi": 40,
      "hit": false,
      "t": 72345.59999999974,
      "d": 403.1999999999971,
      "v": 72
    },
    {
      "midi": 38,
      "hit": false,
      "t": 72345.59999999996,
      "d": 201.60000000000582,
      "v": 80
    },
    {
      "midi": 62,
      "hit": false,
      "t": 72345.59999999999,
      "d": 403.1999999999971,
      "v": 80
    },
    {
      "midi": 52,
      "hit": false,
      "t": 72345.60000000012,
      "d": 403.1999999999971,
      "v": 72
    },
    {
      "midi": 40,
      "hit": false,
      "t": 72345.60000000012,
      "d": 403.1999999999971,
      "v": 72
    },
    {
      "midi": 38,
      "hit": false,
      "t": 72575.99999999997,
      "d": 201.60000000000582,
      "v": 80
    },
    {
      "midi": 41,
      "hit": false,
      "t": 72806.39999999975,
      "d": 403.1999999999971,
      "v": 72
    },
    {
      "midi": 50,
      "hit": false,
      "t": 72806.39999999998,
      "d": 403.1999999999971,
      "v": 80
    },
    {
      "midi": 62,
      "hit": false,
      "t": 72806.4,
      "d": 403.1999999999971,
      "v": 80
    },
    {
      "midi": 53,
      "hit": false,
      "t": 72806.40000000013,
      "d": 403.1999999999971,
      "v": 72
    },
    {
      "midi": 41,
      "hit": false,
      "t": 72806.40000000013,
      "d": 403.1999999999971,
      "v": 72
    },
    {
      "midi": 42,
      "hit": false,
      "t": 73267.19999999975,
      "d": 403.1999999999971,
      "v": 72
    },
    {
      "midi": 38,
      "hit": false,
      "t": 73267.19999999998,
      "d": 201.60000000000582,
      "v": 80
    },
    {
      "midi": 62,
      "hit": false,
      "t": 73267.2,
      "d": 201.60000000000582,
      "v": 80
    },
    {
      "midi": 54,
      "hit": false,
      "t": 73267.20000000013,
      "d": 403.1999999999971,
      "v": 72
    },
    {
      "midi": 42,
      "hit": false,
      "t": 73267.20000000013,
      "d": 403.1999999999971,
      "v": 72
    },
    {
      "midi": 38,
      "hit": false,
      "t": 73497.59999999999,
      "d": 201.60000000000582,
      "v": 80
    },
    {
      "midi": 62,
      "hit": false,
      "t": 73497.6,
      "d": 201.60000000000582,
      "v": 80
    },
    {
      "midi": 43,
      "hit": false,
      "t": 73727.99999999975,
      "d": 604.8000000000029,
      "v": 72
    },
    {
      "midi": 50,
      "hit": false,
      "t": 73728,
      "d": 403.1999999999971,
      "v": 80
    },
    {
      "midi": 69,
      "hit": false,
      "t": 73728.00000000001,
      "d": 201.60000000000582,
      "v": 80
    },
    {
      "midi": 64,
      "hit": false,
      "t": 73728.00000000001,
      "d": 201.60000000000582,
      "v": 80
    },
    {
      "midi": 61,
      "hit": false,
      "t": 73728.00000000001,
      "d": 201.60000000000582,
      "v": 80
    },
    {
      "midi": 58,
      "hit": false,
      "t": 73728.00000000001,
      "d": 201.60000000000582,
      "v": 80
    },
    {
      "midi": 58,
      "hit": false,
      "t": 73728.00000000006,
      "d": 604.8000000000029,
      "v": 72
    },
    {
      "midi": 55,
      "hit": false,
      "t": 73728.00000000006,
      "d": 604.8000000000029,
      "v": 72
    },
    {
      "midi": 55,
      "hit": false,
      "t": 73728.00000000013,
      "d": 604.8000000000029,
      "v": 72
    },
    {
      "midi": 43,
      "hit": false,
      "t": 73728.00000000013,
      "d": 604.8000000000029,
      "v": 72
    },
    {
      "midi": 66,
      "hit": false,
      "t": 73958.40000000002,
      "d": 201.60000000000582,
      "v": 80
    },
    {
      "midi": 38,
      "hit": false,
      "t": 74188.8,
      "d": 201.60000000000582,
      "v": 80
    },
    {
      "midi": 64,
      "hit": false,
      "t": 74188.80000000003,
      "d": 201.60000000000582,
      "v": 80
    },
    {
      "midi": 42,
      "hit": false,
      "t": 74419.19999999975,
      "d": 633.6000000000058,
      "v": 72
    },
    {
      "midi": 38,
      "hit": false,
      "t": 74419.20000000001,
      "d": 201.60000000000582,
      "v": 80
    },
    {
      "midi": 62,
      "hit": false,
      "t": 74419.20000000004,
      "d": 201.60000000000582,
      "v": 80
    },
    {
      "midi": 57,
      "hit": false,
      "t": 74419.20000000004,
      "d": 201.60000000000582,
      "v": 80
    },
    {
      "midi": 57,
      "hit": false,
      "t": 74419.20000000006,
      "d": 633.6000000000058,
      "v": 72
    },
    {
      "midi": 54,
      "hit": false,
      "t": 74419.20000000006,
      "d": 633.6000000000058,
      "v": 72
    },
    {
      "midi": 54,
      "hit": false,
      "t": 74419.20000000013,
      "d": 633.6000000000058,
      "v": 72
    },
    {
      "midi": 42,
      "hit": false,
      "t": 74419.20000000013,
      "d": 633.6000000000058,
      "v": 72
    },
    {
      "midi": 50,
      "hit": false,
      "t": 74649.60000000002,
      "d": 403.1999999999971,
      "v": 80
    },
    {
      "midi": 62,
      "hit": false,
      "t": 74879.99999999991,
      "d": 201.60000000000582,
      "v": 80
    },
    {
      "midi": 69,
      "hit": false,
      "t": 75110.39999999992,
      "d": 201.60000000000582,
      "v": 80
    },
    {
      "midi": 38,
      "hit": false,
      "t": 75110.40000000002,
      "d": 201.60000000000582,
      "v": 80
    },
    {
      "midi": 74,
      "hit": false,
      "t": 75340.79999999993,
      "d": 201.60000000000582,
      "v": 80
    },
    {
      "midi": 38,
      "hit": false,
      "t": 75340.80000000003,
      "d": 201.60000000000582,
      "v": 80
    },
    {
      "midi": 73,
      "hit": false,
      "t": 75571.19999999994,
      "d": 604.8000000000029,
      "v": 80
    },
    {
      "midi": 68,
      "hit": false,
      "t": 75571.19999999994,
      "d": 604.8000000000029,
      "v": 80
    },
    {
      "midi": 50,
      "hit": false,
      "t": 75571.20000000004,
      "d": 403.1999999999971,
      "v": 80
    },
    {
      "midi": 38,
      "hit": false,
      "t": 76032.00000000004,
      "d": 201.60000000000582,
      "v": 80
    },
    {
      "midi": 72,
      "hit": false,
      "t": 76262.39999999994,
      "d": 201.60000000000582,
      "v": 80
    },
    {
      "midi": 67,
      "hit": false,
      "t": 76262.39999999994,
      "d": 201.60000000000582,
      "v": 80
    },
    {
      "midi": 38,
      "hit": false,
      "t": 76262.40000000005,
      "d": 201.60000000000582,
      "v": 80
    },
    {
      "midi": 50,
      "hit": false,
      "t": 76492.80000000006,
      "d": 403.1999999999971,
      "v": 80
    },
    {
      "midi": 71,
      "hit": false,
      "t": 76723.19999999994,
      "d": 201.60000000000582,
      "v": 80
    },
    {
      "midi": 66,
      "hit": false,
      "t": 76723.19999999994,
      "d": 201.60000000000582,
      "v": 80
    },
    {
      "midi": 38,
      "hit": false,
      "t": 76953.60000000006,
      "d": 201.60000000000582,
      "v": 80
    },
    {
      "midi": 70,
      "hit": false,
      "t": 77183.99999999994,
      "d": 201.60000000000582,
      "v": 80
    },
    {
      "midi": 65,
      "hit": false,
      "t": 77183.99999999994,
      "d": 201.60000000000582,
      "v": 80
    },
    {
      "midi": 38,
      "hit": false,
      "t": 77184.00000000007,
      "d": 201.60000000000582,
      "v": 80
    },
    {
      "midi": 50,
      "hit": false,
      "t": 77414.40000000008,
      "d": 403.1999999999971,
      "v": 80
    },
    {
      "midi": 50,
      "hit": false,
      "t": 77644.80000000013,
      "d": 201.60000000000582,
      "v": 72
    },
    {
      "midi": 38,
      "hit": false,
      "t": 77875.19999999975,
      "d": 1209.6000000000058,
      "v": 72
    },
    {
      "midi": 74,
      "hit": false,
      "t": 77875.19999999995,
      "d": 403.1999999999971,
      "v": 88
    },
    {
      "midi": 69,
      "hit": false,
      "t": 77875.19999999995,
      "d": 403.1999999999971,
      "v": 88
    },
    {
      "midi": 66,
      "hit": false,
      "t": 77875.19999999995,
      "d": 403.1999999999971,
      "v": 88
    },
    {
      "midi": 62,
      "hit": false,
      "t": 77875.20000000006,
      "d": 1209.6000000000058,
      "v": 72
    },
    {
      "midi": 60,
      "hit": false,
      "t": 77875.20000000006,
      "d": 1209.6000000000058,
      "v": 72
    },
    {
      "midi": 54,
      "hit": false,
      "t": 77875.20000000006,
      "d": 1209.6000000000058,
      "v": 72
    },
    {
      "midi": 38,
      "hit": false,
      "t": 77875.20000000008,
      "d": 201.60000000000582,
      "v": 80
    },
    {
      "midi": 38,
      "hit": false,
      "t": 77875.20000000014,
      "d": 1267.199999999997,
      "v": 104
    },
    {
      "midi": 38,
      "hit": false,
      "t": 78105.6000000001,
      "d": 201.60000000000582,
      "v": 80
    },
    {
      "midi": 77,
      "hit": false,
      "t": 78335.99999999996,
      "d": 268.8000000000029,
      "v": 88
    },
    {
      "midi": 72,
      "hit": false,
      "t": 78335.99999999996,
      "d": 268.8000000000029,
      "v": 88
    },
    {
      "midi": 69,
      "hit": false,
      "t": 78335.99999999996,
      "d": 268.8000000000029,
      "v": 88
    },
    {
      "midi": 38,
      "hit": false,
      "t": 78336.0000000001,
      "d": 96,
      "v": 80
    },
    {
      "midi": 38,
      "hit": false,
      "t": 78451.2000000001,
      "d": 96,
      "v": 80
    },
    {
      "midi": 38,
      "hit": false,
      "t": 78566.4000000001,
      "d": 96,
      "v": 80
    },
    {
      "midi": 77,
      "hit": false,
      "t": 78643.19999999995,
      "d": 268.8000000000029,
      "v": 88
    },
    {
      "midi": 72,
      "hit": false,
      "t": 78643.19999999995,
      "d": 268.8000000000029,
      "v": 88
    },
    {
      "midi": 69,
      "hit": false,
      "t": 78643.19999999995,
      "d": 268.8000000000029,
      "v": 88
    },
    {
      "midi": 38,
      "hit": false,
      "t": 78681.6000000001,
      "d": 96,
      "v": 80
    },
    {
      "midi": 38,
      "hit": false,
      "t": 78796.80000000009,
      "d": 96,
      "v": 80
    },
    {
      "midi": 38,
      "hit": false,
      "t": 78912.00000000009,
      "d": 96,
      "v": 80
    },
    {
      "midi": 78,
      "hit": false,
      "t": 78950.39999999995,
      "d": 268.8000000000029,
      "v": 88
    },
    {
      "midi": 73,
      "hit": false,
      "t": 78950.39999999995,
      "d": 268.8000000000029,
      "v": 88
    },
    {
      "midi": 70,
      "hit": false,
      "t": 78950.39999999995,
      "d": 268.8000000000029,
      "v": 88
    },
    {
      "midi": 38,
      "hit": false,
      "t": 79027.20000000008,
      "d": 96,
      "v": 80
    },
    {
      "midi": 38,
      "hit": false,
      "t": 79142.40000000008,
      "d": 96,
      "v": 80
    },
    {
      "midi": 43,
      "hit": false,
      "t": 79257.59999999976,
      "d": 403.1999999999971,
      "v": 72
    },
    {
      "midi": 79,
      "hit": false,
      "t": 79257.59999999999,
      "d": 403.1999999999971,
      "v": 80
    },
    {
      "midi": 71,
      "hit": false,
      "t": 79257.59999999999,
      "d": 403.1999999999971,
      "v": 80
    },
    {
      "midi": 79,
      "hit": false,
      "t": 79257.60000000005,
      "d": 403.1999999999971,
      "v": 80
    },
    {
      "midi": 74,
      "hit": false,
      "t": 79257.60000000005,
      "d": 403.1999999999971,
      "v": 80
    },
    {
      "midi": 71,
      "hit": false,
      "t": 79257.60000000005,
      "d": 403.1999999999971,
      "v": 80
    },
    {
      "midi": 62,
      "hit": false,
      "t": 79257.60000000006,
      "d": 3456,
      "v": 72
    },
    {
      "midi": 59,
      "hit": false,
      "t": 79257.60000000006,
      "d": 3456,
      "v": 72
    },
    {
      "midi": 55,
      "hit": false,
      "t": 79257.60000000006,
      "d": 3456,
      "v": 72
    },
    {
      "midi": 50,
      "hit": false,
      "t": 79257.60000000008,
      "d": 403.1999999999971,
      "v": 80
    },
    {
      "midi": 43,
      "hit": false,
      "t": 79257.60000000014,
      "d": 604.8000000000029,
      "v": 88
    },
    {
      "midi": 79,
      "hit": false,
      "t": 79718.4,
      "d": 403.1999999999971,
      "v": 80
    },
    {
      "midi": 79,
      "hit": false,
      "t": 79718.40000000005,
      "d": 403.1999999999971,
      "v": 80
    },
    {
      "midi": 74,
      "hit": false,
      "t": 79718.40000000005,
      "d": 403.1999999999971,
      "v": 80
    },
    {
      "midi": 71,
      "hit": false,
      "t": 79718.40000000005,
      "d": 403.1999999999971,
      "v": 80
    },
    {
      "midi": 38,
      "hit": false,
      "t": 79718.40000000008,
      "d": 201.60000000000582,
      "v": 80
    },
    {
      "midi": 43,
      "hit": false,
      "t": 79948.79999999976,
      "d": 201.60000000000582,
      "v": 72
    },
    {
      "midi": 38,
      "hit": false,
      "t": 79948.80000000009,
      "d": 201.60000000000582,
      "v": 80
    },
    {
      "midi": 43,
      "hit": false,
      "t": 79948.80000000013,
      "d": 201.60000000000582,
      "v": 88
    },
    {
      "midi": 43,
      "hit": false,
      "t": 80179.19999999976,
      "d": 403.1999999999971,
      "v": 72
    },
    {
      "midi": 79,
      "hit": false,
      "t": 80179.2,
      "d": 403.1999999999971,
      "v": 80
    },
    {
      "midi": 79,
      "hit": false,
      "t": 80179.20000000006,
      "d": 403.1999999999971,
      "v": 80
    },
    {
      "midi": 74,
      "hit": false,
      "t": 80179.20000000006,
      "d": 403.1999999999971,
      "v": 80
    },
    {
      "midi": 71,
      "hit": false,
      "t": 80179.20000000006,
      "d": 403.1999999999971,
      "v": 80
    },
    {
      "midi": 50,
      "hit": false,
      "t": 80179.2000000001,
      "d": 403.1999999999971,
      "v": 80
    },
    {
      "midi": 43,
      "hit": false,
      "t": 80179.20000000014,
      "d": 604.8000000000029,
      "v": 88
    },
    {
      "midi": 74,
      "hit": false,
      "t": 80640,
      "d": 201.60000000000582,
      "v": 80
    },
    {
      "midi": 74,
      "hit": false,
      "t": 80640.00000000006,
      "d": 201.60000000000582,
      "v": 80
    },
    {
      "midi": 38,
      "hit": false,
      "t": 80640.0000000001,
      "d": 201.60000000000582,
      "v": 80
    },
    {
      "midi": 76,
      "hit": false,
      "t": 80870.40000000001,
      "d": 201.60000000000582,
      "v": 80
    },
    {
      "midi": 77,
      "hit": false,
      "t": 80870.40000000007,
      "d": 201.60000000000582,
      "v": 80
    },
    {
      "midi": 38,
      "hit": false,
      "t": 80870.40000000011,
      "d": 201.60000000000582,
      "v": 80
    },
    {
      "midi": 43,
      "hit": false,
      "t": 80870.40000000014,
      "d": 201.60000000000582,
      "v": 88
    },
    {
      "midi": 47,
      "hit": false,
      "t": 81100.79999999976,
      "d": 403.1999999999971,
      "v": 72
    },
    {
      "midi": 79,
      "hit": false,
      "t": 81100.80000000002,
      "d": 201.60000000000582,
      "v": 80
    },
    {
      "midi": 79,
      "hit": false,
      "t": 81100.80000000008,
      "d": 201.60000000000582,
      "v": 80
    },
    {
      "midi": 74,
      "hit": false,
      "t": 81100.80000000008,
      "d": 201.60000000000582,
      "v": 80
    },
    {
      "midi": 71,
      "hit": false,
      "t": 81100.80000000008,
      "d": 201.60000000000582,
      "v": 80
    },
    {
      "midi": 50,
      "hit": false,
      "t": 81100.80000000012,
      "d": 403.1999999999971,
      "v": 80
    },
    {
      "midi": 47,
      "hit": false,
      "t": 81100.80000000015,
      "d": 604.8000000000029,
      "v": 88
    },
    {
      "midi": 74,
      "hit": false,
      "t": 81331.20000000003,
      "d": 201.60000000000582,
      "v": 80
    },
    {
      "midi": 74,
      "hit": false,
      "t": 81331.20000000008,
      "d": 201.60000000000582,
      "v": 80
    },
    {
      "midi": 81,
      "hit": false,
      "t": 81561.60000000003,
      "d": 201.60000000000582,
      "v": 80
    },
    {
      "midi": 81,
      "hit": false,
      "t": 81561.6000000001,
      "d": 201.60000000000582,
      "v": 80
    },
    {
      "midi": 38,
      "hit": false,
      "t": 81561.60000000012,
      "d": 201.60000000000582,
      "v": 80
    },
    {
      "midi": 47,
      "hit": false,
      "t": 81791.99999999975,
      "d": 201.60000000000582,
      "v": 72
    },
    {
      "midi": 79,
      "hit": false,
      "t": 81792.00000000004,
      "d": 633.6000000000058,
      "v": 80
    },
    {
      "midi": 79,
      "hit": false,
      "t": 81792.0000000001,
      "d": 1036.800000000003,
      "v": 80
    },
    {
      "midi": 74,
      "hit": false,
      "t": 81792.0000000001,
      "d": 1036.800000000003,
      "v": 80
    },
    {
      "midi": 71,
      "hit": false,
      "t": 81792.0000000001,
      "d": 1036.800000000003,
      "v": 80
    },
    {
      "midi": 38,
      "hit": false,
      "t": 81792.00000000013,
      "d": 201.60000000000582,
      "v": 80
    },
    {
      "midi": 47,
      "hit": false,
      "t": 81792.00000000015,
      "d": 201.60000000000582,
      "v": 88
    },
    {
      "midi": 47,
      "hit": false,
      "t": 82022.39999999976,
      "d": 403.1999999999971,
      "v": 72
    },
    {
      "midi": 50,
      "hit": false,
      "t": 82022.40000000014,
      "d": 403.1999999999971,
      "v": 80
    },
    {
      "midi": 47,
      "hit": false,
      "t": 82022.40000000015,
      "d": 604.8000000000029,
      "v": 88
    },
    {
      "midi": 74,
      "hit": false,
      "t": 82483.19999999995,
      "d": 201.60000000000582,
      "v": 88
    },
    {
      "midi": 71,
      "hit": false,
      "t": 82483.19999999995,
      "d": 201.60000000000582,
      "v": 88
    },
    {
      "midi": 67,
      "hit": false,
      "t": 82483.19999999995,
      "d": 201.60000000000582,
      "v": 88
    },
    {
      "midi": 38,
      "hit": false,
      "t": 82483.20000000014,
      "d": 201.60000000000582,
      "v": 80
    },
    {
      "midi": 78,
      "hit": false,
      "t": 82713.59999999996,
      "d": 201.60000000000582,
      "v": 88
    },
    {
      "midi": 75,
      "hit": false,
      "t": 82713.59999999996,
      "d": 201.60000000000582,
      "v": 88
    },
    {
      "midi": 71,
      "hit": false,
      "t": 82713.59999999996,
      "d": 201.60000000000582,
      "v": 88
    },
    {
      "midi": 47,
      "hit": false,
      "t": 82713.60000000015,
      "d": 201.60000000000582,
      "v": 88
    },
    {
      "midi": 38,
      "hit": false,
      "t": 82713.60000000015,
      "d": 201.60000000000582,
      "v": 80
    },
    {
      "midi": 48,
      "hit": false,
      "t": 82943.99999999975,
      "d": 403.1999999999971,
      "v": 72
    },
    {
      "midi": 79,
      "hit": false,
      "t": 82944.00000000004,
      "d": 403.1999999999971,
      "v": 80
    },
    {
      "midi": 76,
      "hit": false,
      "t": 82944.00000000004,
      "d": 403.1999999999971,
      "v": 80
    },
    {
      "midi": 64,
      "hit": false,
      "t": 82944.00000000006,
      "d": 1612.800000000003,
      "v": 72
    },
    {
      "midi": 60,
      "hit": false,
      "t": 82944.00000000006,
      "d": 1612.800000000003,
      "v": 72
    },
    {
      "midi": 55,
      "hit": false,
      "t": 82944.00000000006,
      "d": 1612.800000000003,
      "v": 72
    },
    {
      "midi": 79,
      "hit": false,
      "t": 82944.0000000001,
      "d": 403.1999999999971,
      "v": 80
    },
    {
      "midi": 76,
      "hit": false,
      "t": 82944.0000000001,
      "d": 403.1999999999971,
      "v": 80
    },
    {
      "midi": 72,
      "hit": false,
      "t": 82944.0000000001,
      "d": 403.1999999999971,
      "v": 80
    },
    {
      "midi": 48,
      "hit": false,
      "t": 82944.00000000016,
      "d": 604.8000000000029,
      "v": 88
    },
    {
      "midi": 50,
      "hit": false,
      "t": 82944.00000000016,
      "d": 403.1999999999971,
      "v": 80
    },
    {
      "midi": 79,
      "hit": false,
      "t": 83404.80000000005,
      "d": 403.1999999999971,
      "v": 80
    },
    {
      "midi": 79,
      "hit": false,
      "t": 83404.8000000001,
      "d": 403.1999999999971,
      "v": 80
    },
    {
      "midi": 76,
      "hit": false,
      "t": 83404.8000000001,
      "d": 403.1999999999971,
      "v": 80
    },
    {
      "midi": 72,
      "hit": false,
      "t": 83404.8000000001,
      "d": 403.1999999999971,
      "v": 80
    },
    {
      "midi": 38,
      "hit": false,
      "t": 83404.80000000016,
      "d": 201.60000000000582,
      "v": 80
    },
    {
      "midi": 48,
      "hit": false,
      "t": 83635.19999999975,
      "d": 201.60000000000582,
      "v": 72
    },
    {
      "midi": 48,
      "hit": false,
      "t": 83635.20000000016,
      "d": 201.60000000000582,
      "v": 88
    },
    {
      "midi": 38,
      "hit": false,
      "t": 83635.20000000017,
      "d": 201.60000000000582,
      "v": 80
    },
    {
      "midi": 48,
      "hit": false,
      "t": 83865.59999999976,
      "d": 403.1999999999971,
      "v": 72
    },
    {
      "midi": 79,
      "hit": false,
      "t": 83865.60000000005,
      "d": 403.1999999999971,
      "v": 80
    },
    {
      "midi": 79,
      "hit": false,
      "t": 83865.60000000011,
      "d": 403.1999999999971,
      "v": 80
    },
    {
      "midi": 76,
      "hit": false,
      "t": 83865.60000000011,
      "d": 403.1999999999971,
      "v": 80
    },
    {
      "midi": 72,
      "hit": false,
      "t": 83865.60000000011,
      "d": 403.1999999999971,
      "v": 80
    },
    {
      "midi": 48,
      "hit": false,
      "t": 83865.60000000017,
      "d": 604.8000000000029,
      "v": 88
    },
    {
      "midi": 50,
      "hit": false,
      "t": 83865.60000000018,
      "d": 403.1999999999971,
      "v": 80
    },
    {
      "midi": 81,
      "hit": false,
      "t": 84326.40000000005,
      "d": 201.60000000000582,
      "v": 80
    },
    {
      "midi": 81,
      "hit": false,
      "t": 84326.40000000011,
      "d": 201.60000000000582,
      "v": 80
    },
    {
      "midi": 38,
      "hit": false,
      "t": 84326.40000000018,
      "d": 201.60000000000582,
      "v": 80
    },
    {
      "midi": 79,
      "hit": false,
      "t": 84556.80000000006,
      "d": 201.60000000000582,
      "v": 80
    },
    {
      "midi": 79,
      "hit": false,
      "t": 84556.80000000012,
      "d": 201.60000000000582,
      "v": 80
    },
    {
      "midi": 48,
      "hit": false,
      "t": 84556.80000000016,
      "d": 201.60000000000582,
      "v": 88
    },
    {
      "midi": 38,
      "hit": false,
      "t": 84556.80000000019,
      "d": 201.60000000000582,
      "v": 80
    },
    {
      "midi": 36,
      "hit": false,
      "t": 84787.19999999975,
      "d": 403.1999999999971,
      "v": 72
    },
    {
      "midi": 64,
      "hit": false,
      "t": 84787.20000000006,
      "d": 1612.800000000003,
      "v": 72
    },
    {
      "midi": 61,
      "hit": false,
      "t": 84787.20000000006,
      "d": 1612.800000000003,
      "v": 72
    },
    {
      "midi": 55,
      "hit": false,
      "t": 84787.20000000006,
      "d": 1612.800000000003,
      "v": 72
    },
    {
      "midi": 82,
      "hit": false,
      "t": 84787.20000000007,
      "d": 201.60000000000582,
      "v": 80
    },
    {
      "midi": 76,
      "hit": false,
      "t": 84787.20000000007,
      "d": 201.60000000000582,
      "v": 80
    },
    {
      "midi": 83,
      "hit": false,
      "t": 84787.20000000013,
      "d": 201.60000000000582,
      "v": 80
    },
    {
      "midi": 76,
      "hit": false,
      "t": 84787.20000000013,
      "d": 201.60000000000582,
      "v": 80
    },
    {
      "midi": 73,
      "hit": false,
      "t": 84787.20000000013,
      "d": 201.60000000000582,
      "v": 80
    },
    {
      "midi": 49,
      "hit": false,
      "t": 84787.20000000017,
      "d": 604.8000000000029,
      "v": 88
    },
    {
      "midi": 50,
      "hit": false,
      "t": 84787.2000000002,
      "d": 403.1999999999971,
      "v": 80
    },
    {
      "midi": 81,
      "hit": false,
      "t": 85017.60000000008,
      "d": 403.1999999999971,
      "v": 80
    },
    {
      "midi": 81,
      "hit": false,
      "t": 85017.60000000014,
      "d": 403.1999999999971,
      "v": 80
    },
    {
      "midi": 38,
      "hit": false,
      "t": 85248.0000000002,
      "d": 201.60000000000582,
      "v": 80
    },
    {
      "midi": 36,
      "hit": false,
      "t": 85478.39999999975,
      "d": 201.60000000000582,
      "v": 72
    },
    {
      "midi": 79,
      "hit": false,
      "t": 85478.40000000008,
      "d": 633.6000000000058,
      "v": 80
    },
    {
      "midi": 79,
      "hit": false,
      "t": 85478.40000000014,
      "d": 633.6000000000058,
      "v": 80
    },
    {
      "midi": 76,
      "hit": false,
      "t": 85478.40000000014,
      "d": 633.6000000000058,
      "v": 80
    },
    {
      "midi": 73,
      "hit": false,
      "t": 85478.40000000014,
      "d": 633.6000000000058,
      "v": 80
    },
    {
      "midi": 52,
      "hit": false,
      "t": 85478.40000000017,
      "d": 432,
      "v": 88
    },
    {
      "midi": 38,
      "hit": false,
      "t": 85478.40000000021,
      "d": 201.60000000000582,
      "v": 80
    },
    {
      "midi": 36,
      "hit": false,
      "t": 85708.79999999976,
      "d": 403.1999999999971,
      "v": 72
    },
    {
      "midi": 50,
      "hit": false,
      "t": 85708.80000000022,
      "d": 403.1999999999971,
      "v": 80
    },
    {
      "midi": 51,
      "hit": false,
      "t": 85939.20000000017,
      "d": 201.60000000000582,
      "v": 88
    },
    {
      "midi": 76,
      "hit": false,
      "t": 86169.59999999998,
      "d": 201.60000000000582,
      "v": 88
    },
    {
      "midi": 72,
      "hit": false,
      "t": 86169.59999999998,
      "d": 201.60000000000582,
      "v": 88
    },
    {
      "midi": 69,
      "hit": false,
      "t": 86169.59999999998,
      "d": 201.60000000000582,
      "v": 88
    },
    {
      "midi": 79,
      "hit": false,
      "t": 86169.6000000001,
      "d": 201.60000000000582,
      "v": 80
    },
    {
      "midi": 79,
      "hit": false,
      "t": 86169.60000000015,
      "d": 201.60000000000582,
      "v": 80
    },
    {
      "midi": 52,
      "hit": false,
      "t": 86169.60000000018,
      "d": 201.60000000000582,
      "v": 88
    },
    {
      "midi": 38,
      "hit": false,
      "t": 86169.60000000022,
      "d": 201.60000000000582,
      "v": 80
    },
    {
      "midi": 80,
      "hit": false,
      "t": 86399.99999999999,
      "d": 201.60000000000582,
      "v": 88
    },
    {
      "midi": 76,
      "hit": false,
      "t": 86399.99999999999,
      "d": 201.60000000000582,
      "v": 88
    },
    {
      "midi": 73,
      "hit": false,
      "t": 86399.99999999999,
      "d": 201.60000000000582,
      "v": 88
    },
    {
      "midi": 81,
      "hit": false,
      "t": 86400.0000000001,
      "d": 201.60000000000582,
      "v": 80
    },
    {
      "midi": 81,
      "hit": false,
      "t": 86400.00000000016,
      "d": 201.60000000000582,
      "v": 80
    },
    {
      "midi": 49,
      "hit": false,
      "t": 86400.00000000019,
      "d": 201.60000000000582,
      "v": 88
    },
    {
      "midi": 38,
      "hit": false,
      "t": 86400.00000000023,
      "d": 201.60000000000582,
      "v": 80
    },
    {
      "midi": 38,
      "hit": false,
      "t": 86630.39999999975,
      "d": 403.1999999999971,
      "v": 72
    },
    {
      "midi": 62,
      "hit": false,
      "t": 86630.40000000005,
      "d": 1612.800000000003,
      "v": 72
    },
    {
      "midi": 59,
      "hit": false,
      "t": 86630.40000000005,
      "d": 1612.800000000003,
      "v": 72
    },
    {
      "midi": 55,
      "hit": false,
      "t": 86630.40000000005,
      "d": 1612.800000000003,
      "v": 72
    },
    {
      "midi": 83,
      "hit": false,
      "t": 86630.40000000011,
      "d": 604.8000000000029,
      "v": 80
    },
    {
      "midi": 83,
      "hit": false,
      "t": 86630.40000000017,
      "d": 403.1999999999971,
      "v": 80
    },
    {
      "midi": 79,
      "hit": false,
      "t": 86630.40000000017,
      "d": 403.1999999999971,
      "v": 80
    },
    {
      "midi": 74,
      "hit": false,
      "t": 86630.40000000017,
      "d": 403.1999999999971,
      "v": 80
    },
    {
      "midi": 50,
      "hit": false,
      "t": 86630.4000000002,
      "d": 403.1999999999971,
      "v": 88
    },
    {
      "midi": 50,
      "hit": false,
      "t": 86630.40000000024,
      "d": 403.1999999999971,
      "v": 80
    },
    {
      "midi": 74,
      "hit": false,
      "t": 86860.79999999999,
      "d": 201.60000000000582,
      "v": 88
    },
    {
      "midi": 71,
      "hit": false,
      "t": 86860.79999999999,
      "d": 201.60000000000582,
      "v": 88
    },
    {
      "midi": 67,
      "hit": false,
      "t": 86860.79999999999,
      "d": 201.60000000000582,
      "v": 88
    },
    {
      "midi": 38,
      "hit": false,
      "t": 87091.19999999975,
      "d": 403.1999999999971,
      "v": 72
    },
    {
      "midi": 50,
      "hit": false,
      "t": 87091.2000000002,
      "d": 403.1999999999971,
      "v": 88
    },
    {
      "midi": 38,
      "hit": false,
      "t": 87091.20000000024,
      "d": 201.60000000000582,
      "v": 80
    },
    {
      "midi": 81,
      "hit": false,
      "t": 87321.60000000011,
      "d": 201.60000000000582,
      "v": 80
    },
    {
      "midi": 81,
      "hit": false,
      "t": 87321.60000000017,
      "d": 201.60000000000582,
      "v": 80
    },
    {
      "midi": 38,
      "hit": false,
      "t": 87321.60000000025,
      "d": 201.60000000000582,
      "v": 80
    },
    {
      "midi": 38,
      "hit": false,
      "t": 87551.99999999975,
      "d": 403.1999999999971,
      "v": 72
    },
    {
      "midi": 79,
      "hit": false,
      "t": 87552.00000000012,
      "d": 604.8000000000029,
      "v": 80
    },
    {
      "midi": 79,
      "hit": false,
      "t": 87552.00000000017,
      "d": 604.8000000000029,
      "v": 80
    },
    {
      "midi": 74,
      "hit": false,
      "t": 87552.00000000017,
      "d": 604.8000000000029,
      "v": 80
    },
    {
      "midi": 71,
      "hit": false,
      "t": 87552.00000000017,
      "d": 604.8000000000029,
      "v": 80
    },
    {
      "midi": 50,
      "hit": false,
      "t": 87552.0000000002,
      "d": 403.1999999999971,
      "v": 88
    },
    {
      "midi": 50,
      "hit": false,
      "t": 87552.00000000026,
      "d": 403.1999999999971,
      "v": 80
    },
    {
      "midi": 81,
      "hit": false,
      "t": 87782.4,
      "d": 201.60000000000582,
      "v": 88
    },
    {
      "midi": 78,
      "hit": false,
      "t": 87782.4,
      "d": 201.60000000000582,
      "v": 88
    },
    {
      "midi": 74,
      "hit": false,
      "t": 87782.4,
      "d": 201.60000000000582,
      "v": 88
    },
    {
      "midi": 38,
      "hit": false,
      "t": 88012.79999999976,
      "d": 403.1999999999971,
      "v": 72
    },
    {
      "midi": 50,
      "hit": false,
      "t": 88012.8000000002,
      "d": 403.1999999999971,
      "v": 88
    },
    {
      "midi": 38,
      "hit": false,
      "t": 88012.80000000026,
      "d": 201.60000000000582,
      "v": 80
    },
    {
      "midi": 76,
      "hit": false,
      "t": 88243.20000000011,
      "d": 201.60000000000582,
      "v": 80
    },
    {
      "midi": 76,
      "hit": false,
      "t": 88243.20000000017,
      "d": 201.60000000000582,
      "v": 80
    },
    {
      "midi": 38,
      "hit": false,
      "t": 88243.20000000027,
      "d": 201.60000000000582,
      "v": 80
    },
    {
      "midi": 38,
      "hit": false,
      "t": 88473.59999999976,
      "d": 403.1999999999971,
      "v": 72
    },
    {
      "midi": 66,
      "hit": false,
      "t": 88473.60000000005,
      "d": 403.1999999999971,
      "v": 72
    },
    {
      "midi": 62,
      "hit": false,
      "t": 88473.60000000005,
      "d": 403.1999999999971,
      "v": 72
    },
    {
      "midi": 57,
      "hit": false,
      "t": 88473.60000000005,
      "d": 403.1999999999971,
      "v": 72
    },
    {
      "midi": 74,
      "hit": false,
      "t": 88473.60000000012,
      "d": 403.1999999999971,
      "v": 80
    },
    {
      "midi": 72,
      "hit": false,
      "t": 88473.60000000012,
      "d": 403.1999999999971,
      "v": 80
    },
    {
      "midi": 74,
      "hit": false,
      "t": 88473.60000000018,
      "d": 403.1999999999971,
      "v": 80
    },
    {
      "midi": 69,
      "hit": false,
      "t": 88473.60000000018,
      "d": 403.1999999999971,
      "v": 80
    },
    {
      "midi": 66,
      "hit": false,
      "t": 88473.60000000018,
      "d": 403.1999999999971,
      "v": 80
    },
    {
      "midi": 50,
      "hit": false,
      "t": 88473.60000000021,
      "d": 806.3999999999942,
      "v": 88
    },
    {
      "midi": 38,
      "hit": false,
      "t": 88473.60000000021,
      "d": 806.3999999999942,
      "v": 104
    },
    {
      "midi": 50,
      "hit": false,
      "t": 88473.60000000028,
      "d": 403.1999999999971,
      "v": 80
    },
    {
      "midi": 84,
      "hit": false,
      "t": 88704,
      "d": 201.60000000000582,
      "v": 88
    },
    {
      "midi": 81,
      "hit": false,
      "t": 88704,
      "d": 201.60000000000582,
      "v": 88
    },
    {
      "midi": 78,
      "hit": false,
      "t": 88704,
      "d": 201.60000000000582,
      "v": 88
    },
    {
      "midi": 74,
      "hit": false,
      "t": 88704,
      "d": 201.60000000000582,
      "v": 88
    },
    {
      "midi": 38,
      "hit": false,
      "t": 88934.40000000029,
      "d": 201.60000000000582,
      "v": 80
    },
    {
      "midi": 36,
      "hit": false,
      "t": 89164.79999999976,
      "d": 432,
      "v": 72
    },
    {
      "midi": 64,
      "hit": false,
      "t": 89164.80000000005,
      "d": 835.1999999999971,
      "v": 72
    },
    {
      "midi": 60,
      "hit": false,
      "t": 89164.80000000005,
      "d": 835.1999999999971,
      "v": 72
    },
    {
      "midi": 55,
      "hit": false,
      "t": 89164.80000000005,
      "d": 835.1999999999971,
      "v": 72
    },
    {
      "midi": 74,
      "hit": false,
      "t": 89164.80000000012,
      "d": 201.60000000000582,
      "v": 80
    },
    {
      "midi": 75,
      "hit": false,
      "t": 89164.80000000018,
      "d": 201.60000000000582,
      "v": 80
    },
    {
      "midi": 38,
      "hit": false,
      "t": 89164.8000000003,
      "d": 201.60000000000582,
      "v": 80
    },
    {
      "midi": 76,
      "hit": false,
      "t": 89395.20000000013,
      "d": 201.60000000000582,
      "v": 80
    },
    {
      "midi": 76,
      "hit": false,
      "t": 89395.20000000019,
      "d": 201.60000000000582,
      "v": 80
    },
    {
      "midi": 72,
      "hit": false,
      "t": 89395.20000000019,
      "d": 201.60000000000582,
      "v": 80
    },
    {
      "midi": 60,
      "hit": false,
      "t": 89395.2000000002,
      "d": 604.8000000000029,
      "v": 88
    },
    {
      "midi": 48,
      "hit": false,
      "t": 89395.2000000002,
      "d": 604.8000000000029,
      "v": 88
    },
    {
      "midi": 50,
      "hit": false,
      "t": 89395.2000000003,
      "d": 403.1999999999971,
      "v": 80
    },
    {
      "midi": 48,
      "hit": false,
      "t": 89625.59999999976,
      "d": 403.1999999999971,
      "v": 72
    },
    {
      "midi": 79,
      "hit": false,
      "t": 89625.60000000014,
      "d": 201.60000000000582,
      "v": 80
    },
    {
      "midi": 79,
      "hit": false,
      "t": 89625.6000000002,
      "d": 201.60000000000582,
      "v": 80
    },
    {
      "midi": 76,
      "hit": false,
      "t": 89856.00000000015,
      "d": 201.60000000000582,
      "v": 80
    },
    {
      "midi": 76,
      "hit": false,
      "t": 89856.0000000002,
      "d": 201.60000000000582,
      "v": 80
    },
    {
      "midi": 38,
      "hit": false,
      "t": 89856.0000000003,
      "d": 201.60000000000582,
      "v": 80
    },
    {
      "midi": 46,
      "hit": false,
      "t": 90086.39999999976,
      "d": 240,
      "v": 72
    },
    {
      "midi": 58,
      "hit": false,
      "t": 90086.40000000004,
      "d": 240,
      "v": 72
    },
    {
      "midi": 53,
      "hit": false,
      "t": 90086.40000000004,
      "d": 240,
      "v": 72
    },
    {
      "midi": 62,
      "hit": false,
      "t": 90086.40000000004,
      "d": 1843.199999999997,
      "v": 72
    },
    {
      "midi": 79,
      "hit": false,
      "t": 90086.40000000015,
      "d": 1843.199999999997,
      "v": 80
    },
    {
      "midi": 74,
      "hit": false,
      "t": 90086.40000000015,
      "d": 1843.199999999997,
      "v": 80
    },
    {
      "midi": 58,
      "hit": false,
      "t": 90086.4000000002,
      "d": 240,
      "v": 88
    },
    {
      "midi": 46,
      "hit": false,
      "t": 90086.4000000002,
      "d": 240,
      "v": 88
    },
    {
      "midi": 70,
      "hit": false,
      "t": 90086.40000000021,
      "d": 240,
      "v": 80
    },
    {
      "midi": 79,
      "hit": false,
      "t": 90086.40000000021,
      "d": 1843.199999999997,
      "v": 80
    },
    {
      "midi": 74,
      "hit": false,
      "t": 90086.40000000021,
      "d": 1843.199999999997,
      "v": 80
    },
    {
      "midi": 38,
      "hit": false,
      "t": 90086.40000000031,
      "d": 201.60000000000582,
      "v": 80
    },
    {
      "midi": 47,
      "hit": false,
      "t": 90316.79999999976,
      "d": 403.20000000001164,
      "v": 72
    },
    {
      "midi": 59,
      "hit": false,
      "t": 90316.80000000003,
      "d": 1612.800000000003,
      "v": 72
    },
    {
      "midi": 54,
      "hit": false,
      "t": 90316.80000000003,
      "d": 1612.800000000003,
      "v": 72
    },
    {
      "midi": 59,
      "hit": false,
      "t": 90316.80000000019,
      "d": 1209.6000000000058,
      "v": 88
    },
    {
      "midi": 47,
      "hit": false,
      "t": 90316.80000000019,
      "d": 1209.6000000000058,
      "v": 88
    },
    {
      "midi": 71,
      "hit": false,
      "t": 90316.8000000002,
      "d": 1612.800000000003,
      "v": 80
    },
    {
      "midi": 50,
      "hit": false,
      "t": 90316.80000000032,
      "d": 403.1999999999971,
      "v": 80
    },
    {
      "midi": 47,
      "hit": false,
      "t": 90777.59999999977,
      "d": 403.1999999999971,
      "v": 72
    },
    {
      "midi": 38,
      "hit": false,
      "t": 90777.60000000033,
      "d": 201.60000000000582,
      "v": 80
    },
    {
      "midi": 38,
      "hit": false,
      "t": 91008.00000000033,
      "d": 201.60000000000582,
      "v": 80
    },
    {
      "midi": 47,
      "hit": false,
      "t": 91238.39999999978,
      "d": 403.1999999999971,
      "v": 72
    },
    {
      "midi": 50,
      "hit": false,
      "t": 91238.40000000034,
      "d": 403.1999999999971,
      "v": 80
    },
    {
      "midi": 47,
      "hit": false,
      "t": 91699.19999999978,
      "d": 403.1999999999971,
      "v": 72
    },
    {
      "midi": 81,
      "hit": false,
      "t": 91699.20000000001,
      "d": 96,
      "v": 80
    },
    {
      "midi": 77,
      "hit": false,
      "t": 91699.20000000001,
      "d": 96,
      "v": 80
    },
    {
      "midi": 74,
      "hit": false,
      "t": 91699.20000000001,
      "d": 96,
      "v": 80
    },
    {
      "midi": 70,
      "hit": false,
      "t": 91699.20000000001,
      "d": 96,
      "v": 80
    },
    {
      "midi": 58,
      "hit": false,
      "t": 91699.2000000002,
      "d": 403.1999999999971,
      "v": 88
    },
    {
      "midi": 38,
      "hit": false,
      "t": 91699.20000000035,
      "d": 96,
      "v": 80
    },
    {
      "midi": 77,
      "hit": false,
      "t": 91814.40000000001,
      "d": 96,
      "v": 80
    },
    {
      "midi": 74,
      "hit": false,
      "t": 91814.40000000001,
      "d": 96,
      "v": 80
    },
    {
      "midi": 70,
      "hit": false,
      "t": 91814.40000000001,
      "d": 96,
      "v": 80
    },
    {
      "midi": 67,
      "hit": false,
      "t": 91814.40000000001,
      "d": 96,
      "v": 80
    },
    {
      "midi": 38,
      "hit": false,
      "t": 91814.40000000034,
      "d": 96,
      "v": 80
    },
    {
      "midi": 74,
      "hit": false,
      "t": 91929.6,
      "d": 96,
      "v": 80
    },
    {
      "midi": 70,
      "hit": false,
      "t": 91929.6,
      "d": 96,
      "v": 80
    },
    {
      "midi": 67,
      "hit": false,
      "t": 91929.6,
      "d": 96,
      "v": 80
    },
    {
      "midi": 64,
      "hit": false,
      "t": 91929.6,
      "d": 96,
      "v": 80
    },
    {
      "midi": 38,
      "hit": false,
      "t": 91929.60000000034,
      "d": 96,
      "v": 80
    },
    {
      "midi": 70,
      "hit": false,
      "t": 92044.8,
      "d": 96,
      "v": 80
    },
    {
      "midi": 67,
      "hit": false,
      "t": 92044.8,
      "d": 96,
      "v": 80
    },
    {
      "midi": 64,
      "hit": false,
      "t": 92044.8,
      "d": 96,
      "v": 80
    },
    {
      "midi": 60,
      "hit": false,
      "t": 92044.8,
      "d": 96,
      "v": 80
    },
    {
      "midi": 38,
      "hit": false,
      "t": 92044.80000000034,
      "d": 96,
      "v": 80
    },
    {
      "midi": 71,
      "hit": false,
      "t": 92160,
      "d": 48,
      "v": 64
    },
    {
      "midi": 55,
      "hit": false,
      "t": 92160.00000000003,
      "d": 1584,
      "v": 72
    },
    {
      "midi": 67,
      "hit": false,
      "t": 92160.0000000002,
      "d": 1612.800000000003,
      "v": 88
    },
    {
      "midi": 62,
      "hit": false,
      "t": 92160.0000000002,
      "d": 1612.800000000003,
      "v": 88
    },
    {
      "midi": 59,
      "hit": false,
      "t": 92160.0000000002,
      "d": 1612.800000000003,
      "v": 72
    },
    {
      "midi": 50,
      "hit": false,
      "t": 92160.00000000033,
      "d": 403.1999999999971,
      "v": 80
    },
    {
      "midi": 74,
      "hit": false,
      "t": 92217.6,
      "d": 48,
      "v": 64
    },
    {
      "midi": 78,
      "hit": false,
      "t": 92275.20000000001,
      "d": 1612.800000000003,
      "v": 64
    },
    {
      "midi": 74,
      "hit": false,
      "t": 92275.20000000001,
      "d": 1612.800000000003,
      "v": 64
    },
    {
      "midi": 71,
      "hit": false,
      "t": 92275.20000000001,
      "d": 1612.800000000003,
      "v": 64
    },
    {
      "midi": 79,
      "hit": false,
      "t": 92620.8000000002,
      "d": 403.1999999999971,
      "v": 88
    },
    {
      "midi": 71,
      "hit": false,
      "t": 92620.8000000002,
      "d": 403.1999999999971,
      "v": 88
    },
    {
      "midi": 38,
      "hit": false,
      "t": 92620.80000000034,
      "d": 403.1999999999971,
      "v": 80
    },
    {
      "midi": 74,
      "hit": false,
      "t": 93081.60000000021,
      "d": 403.1999999999971,
      "v": 88
    },
    {
      "midi": 71,
      "hit": false,
      "t": 93081.60000000021,
      "d": 403.1999999999971,
      "v": 88
    },
    {
      "midi": 43,
      "hit": false,
      "t": 93081.60000000034,
      "d": 201.60000000000582,
      "v": 80
    },
    {
      "midi": 43,
      "hit": false,
      "t": 93312.00000000035,
      "d": 201.60000000000582,
      "v": 80
    },
    {
      "midi": 79,
      "hit": false,
      "t": 93542.40000000021,
      "d": 403.1999999999971,
      "v": 88
    },
    {
      "midi": 71,
      "hit": false,
      "t": 93542.40000000021,
      "d": 403.1999999999971,
      "v": 88
    },
    {
      "midi": 43,
      "hit": false,
      "t": 93542.40000000036,
      "d": 201.60000000000582,
      "v": 80
    },
    {
      "midi": 55,
      "hit": false,
      "t": 93772.80000000003,
      "d": 201.60000000000582,
      "v": 72
    },
    {
      "midi": 43,
      "hit": false,
      "t": 93772.80000000037,
      "d": 201.60000000000582,
      "v": 80
    },
    {
      "midi": 76,
      "hit": false,
      "t": 94003.20000000001,
      "d": 1612.800000000003,
      "v": 72
    },
    {
      "midi": 72,
      "hit": false,
      "t": 94003.20000000001,
      "d": 1612.800000000003,
      "v": 72
    },
    {
      "midi": 69,
      "hit": false,
      "t": 94003.20000000001,
      "d": 1612.800000000003,
      "v": 72
    },
    {
      "midi": 55,
      "hit": false,
      "t": 94003.20000000004,
      "d": 1584,
      "v": 72
    },
    {
      "midi": 65,
      "hit": false,
      "t": 94003.2000000002,
      "d": 1612.800000000003,
      "v": 88
    },
    {
      "midi": 60,
      "hit": false,
      "t": 94003.2000000002,
      "d": 1612.800000000003,
      "v": 88
    },
    {
      "midi": 57,
      "hit": false,
      "t": 94003.2000000002,
      "d": 1612.800000000003,
      "v": 72
    },
    {
      "midi": 77,
      "hit": false,
      "t": 94003.20000000022,
      "d": 201.60000000000582,
      "v": 88
    },
    {
      "midi": 72,
      "hit": false,
      "t": 94003.20000000022,
      "d": 201.60000000000582,
      "v": 88
    },
    {
      "midi": 50,
      "hit": false,
      "t": 94003.20000000038,
      "d": 403.1999999999971,
      "v": 80
    },
    {
      "midi": 76,
      "hit": false,
      "t": 94233.60000000022,
      "d": 403.1999999999971,
      "v": 88
    },
    {
      "midi": 72,
      "hit": false,
      "t": 94233.60000000022,
      "d": 403.1999999999971,
      "v": 88
    },
    {
      "midi": 38,
      "hit": false,
      "t": 94464.00000000038,
      "d": 403.1999999999971,
      "v": 80
    },
    {
      "midi": 74,
      "hit": false,
      "t": 94694.40000000023,
      "d": 633.6000000000058,
      "v": 88
    },
    {
      "midi": 84,
      "hit": false,
      "t": 94924.80000000002,
      "d": 403.1999999999971,
      "v": 72
    },
    {
      "midi": 43,
      "hit": false,
      "t": 94924.80000000038,
      "d": 201.60000000000582,
      "v": 80
    },
    {
      "midi": 43,
      "hit": false,
      "t": 95155.20000000039,
      "d": 201.60000000000582,
      "v": 80
    },
    {
      "midi": 88,
      "hit": false,
      "t": 95385.60000000002,
      "d": 403.1999999999971,
      "v": 72
    },
    {
      "midi": 74,
      "hit": false,
      "t": 95385.60000000024,
      "d": 201.60000000000582,
      "v": 88
    },
    {
      "midi": 43,
      "hit": false,
      "t": 95385.6000000004,
      "d": 201.60000000000582,
      "v": 80
    },
    {
      "midi": 55,
      "hit": false,
      "t": 95616.00000000004,
      "d": 201.60000000000582,
      "v": 72
    },
    {
      "midi": 76,
      "hit": false,
      "t": 95616.00000000025,
      "d": 201.60000000000582,
      "v": 88
    },
    {
      "midi": 43,
      "hit": false,
      "t": 95616.00000000041,
      "d": 201.60000000000582,
      "v": 80
    },
    {
      "midi": 71,
      "hit": false,
      "t": 95846.40000000002,
      "d": 48,
      "v": 64
    },
    {
      "midi": 55,
      "hit": false,
      "t": 95846.40000000005,
      "d": 1584,
      "v": 72
    },
    {
      "midi": 67,
      "hit": false,
      "t": 95846.4000000002,
      "d": 1612.800000000003,
      "v": 88
    },
    {
      "midi": 62,
      "hit": false,
      "t": 95846.4000000002,
      "d": 1612.800000000003,
      "v": 88
    },
    {
      "midi": 59,
      "hit": false,
      "t": 95846.4000000002,
      "d": 1612.800000000003,
      "v": 72
    },
    {
      "midi": 79,
      "hit": false,
      "t": 95846.40000000026,
      "d": 403.1999999999971,
      "v": 88
    },
    {
      "midi": 71,
      "hit": false,
      "t": 95846.40000000026,
      "d": 403.1999999999971,
      "v": 88
    },
    {
      "midi": 50,
      "hit": false,
      "t": 95846.40000000042,
      "d": 403.1999999999971,
      "v": 80
    },
    {
      "midi": 74,
      "hit": false,
      "t": 95904.00000000003,
      "d": 48,
      "v": 64
    },
    {
      "midi": 78,
      "hit": false,
      "t": 95961.60000000003,
      "d": 1612.800000000003,
      "v": 64
    },
    {
      "midi": 74,
      "hit": false,
      "t": 95961.60000000003,
      "d": 1612.800000000003,
      "v": 64
    },
    {
      "midi": 71,
      "hit": false,
      "t": 95961.60000000003,
      "d": 1612.800000000003,
      "v": 64
    },
    {
      "midi": 79,
      "hit": false,
      "t": 96307.20000000026,
      "d": 403.1999999999971,
      "v": 88
    },
    {
      "midi": 71,
      "hit": false,
      "t": 96307.20000000026,
      "d": 403.1999999999971,
      "v": 88
    },
    {
      "midi": 38,
      "hit": false,
      "t": 96307.20000000042,
      "d": 403.1999999999971,
      "v": 80
    },
    {
      "midi": 74,
      "hit": false,
      "t": 96768.00000000026,
      "d": 403.1999999999971,
      "v": 88
    },
    {
      "midi": 71,
      "hit": false,
      "t": 96768.00000000026,
      "d": 403.1999999999971,
      "v": 88
    },
    {
      "midi": 43,
      "hit": false,
      "t": 96768.00000000042,
      "d": 201.60000000000582,
      "v": 80
    },
    {
      "midi": 43,
      "hit": false,
      "t": 96998.40000000043,
      "d": 201.60000000000582,
      "v": 80
    },
    {
      "midi": 79,
      "hit": false,
      "t": 97228.80000000026,
      "d": 403.1999999999971,
      "v": 88
    },
    {
      "midi": 71,
      "hit": false,
      "t": 97228.80000000026,
      "d": 403.1999999999971,
      "v": 88
    },
    {
      "midi": 43,
      "hit": false,
      "t": 97228.80000000044,
      "d": 201.60000000000582,
      "v": 80
    },
    {
      "midi": 55,
      "hit": false,
      "t": 97459.20000000006,
      "d": 201.60000000000582,
      "v": 72
    },
    {
      "midi": 43,
      "hit": false,
      "t": 97459.20000000045,
      "d": 201.60000000000582,
      "v": 80
    },
    {
      "midi": 76,
      "hit": false,
      "t": 97689.60000000003,
      "d": 1612.800000000003,
      "v": 72
    },
    {
      "midi": 72,
      "hit": false,
      "t": 97689.60000000003,
      "d": 1612.800000000003,
      "v": 72
    },
    {
      "midi": 69,
      "hit": false,
      "t": 97689.60000000003,
      "d": 1612.800000000003,
      "v": 72
    },
    {
      "midi": 55,
      "hit": false,
      "t": 97689.60000000006,
      "d": 1584,
      "v": 72
    },
    {
      "midi": 65,
      "hit": false,
      "t": 97689.6000000002,
      "d": 1612.800000000003,
      "v": 88
    },
    {
      "midi": 60,
      "hit": false,
      "t": 97689.6000000002,
      "d": 1612.800000000003,
      "v": 88
    },
    {
      "midi": 57,
      "hit": false,
      "t": 97689.6000000002,
      "d": 1612.800000000003,
      "v": 72
    },
    {
      "midi": 77,
      "hit": false,
      "t": 97689.60000000027,
      "d": 201.60000000000582,
      "v": 88
    },
    {
      "midi": 72,
      "hit": false,
      "t": 97689.60000000027,
      "d": 201.60000000000582,
      "v": 88
    },
    {
      "midi": 50,
      "hit": false,
      "t": 97689.60000000046,
      "d": 403.1999999999971,
      "v": 80
    },
    {
      "midi": 74,
      "hit": false,
      "t": 97920.00000000028,
      "d": 201.60000000000582,
      "v": 88
    },
    {
      "midi": 76,
      "hit": false,
      "t": 98150.40000000029,
      "d": 201.60000000000582,
      "v": 88
    },
    {
      "midi": 38,
      "hit": false,
      "t": 98150.40000000046,
      "d": 403.1999999999971,
      "v": 80
    },
    {
      "midi": 74,
      "hit": false,
      "t": 98380.8000000003,
      "d": 1036.800000000003,
      "v": 88
    },
    {
      "midi": 84,
      "hit": false,
      "t": 98611.20000000004,
      "d": 403.1999999999971,
      "v": 72
    },
    {
      "midi": 43,
      "hit": false,
      "t": 98611.20000000046,
      "d": 201.60000000000582,
      "v": 80
    },
    {
      "midi": 43,
      "hit": false,
      "t": 98841.60000000047,
      "d": 201.60000000000582,
      "v": 80
    },
    {
      "midi": 88,
      "hit": false,
      "t": 99072.00000000004,
      "d": 403.1999999999971,
      "v": 72
    },
    {
      "midi": 43,
      "hit": false,
      "t": 99072.00000000048,
      "d": 201.60000000000582,
      "v": 80
    },
    {
      "midi": 55,
      "hit": false,
      "t": 99302.40000000007,
      "d": 201.60000000000582,
      "v": 72
    },
    {
      "midi": 43,
      "hit": false,
      "t": 99302.40000000049,
      "d": 201.60000000000582,
      "v": 80
    },
    {
      "midi": 71,
      "hit": false,
      "t": 99532.80000000005,
      "d": 48,
      "v": 64
    },
    {
      "midi": 55,
      "hit": false,
      "t": 99532.80000000008,
      "d": 1584,
      "v": 72
    },
    {
      "midi": 67,
      "hit": false,
      "t": 99532.80000000019,
      "d": 1612.800000000003,
      "v": 88
    },
    {
      "midi": 62,
      "hit": false,
      "t": 99532.80000000019,
      "d": 1612.800000000003,
      "v": 88
    },
    {
      "midi": 59,
      "hit": false,
      "t": 99532.80000000019,
      "d": 1612.800000000003,
      "v": 72
    },
    {
      "midi": 50,
      "hit": false,
      "t": 99532.8000000005,
      "d": 403.1999999999971,
      "v": 80
    },
    {
      "midi": 74,
      "hit": false,
      "t": 99590.40000000005,
      "d": 48,
      "v": 64
    },
    {
      "midi": 78,
      "hit": false,
      "t": 99648.00000000006,
      "d": 1612.800000000003,
      "v": 64
    },
    {
      "midi": 74,
      "hit": false,
      "t": 99648.00000000006,
      "d": 1612.800000000003,
      "v": 64
    },
    {
      "midi": 71,
      "hit": false,
      "t": 99648.00000000006,
      "d": 1612.800000000003,
      "v": 64
    },
    {
      "midi": 83,
      "hit": false,
      "t": 99993.6000000003,
      "d": 403.1999999999971,
      "v": 88
    },
    {
      "midi": 79,
      "hit": false,
      "t": 99993.6000000003,
      "d": 403.1999999999971,
      "v": 88
    },
    {
      "midi": 38,
      "hit": false,
      "t": 99993.6000000005,
      "d": 403.1999999999971,
      "v": 80
    },
    {
      "midi": 79,
      "hit": false,
      "t": 100454.4000000003,
      "d": 403.1999999999971,
      "v": 88
    },
    {
      "midi": 74,
      "hit": false,
      "t": 100454.4000000003,
      "d": 403.1999999999971,
      "v": 88
    },
    {
      "midi": 43,
      "hit": false,
      "t": 100454.4000000005,
      "d": 201.60000000000582,
      "v": 80
    },
    {
      "midi": 43,
      "hit": false,
      "t": 100684.80000000051,
      "d": 201.60000000000582,
      "v": 80
    },
    {
      "midi": 83,
      "hit": false,
      "t": 100915.2000000003,
      "d": 403.1999999999971,
      "v": 88
    },
    {
      "midi": 79,
      "hit": false,
      "t": 100915.2000000003,
      "d": 403.1999999999971,
      "v": 88
    },
    {
      "midi": 43,
      "hit": false,
      "t": 100915.20000000052,
      "d": 201.60000000000582,
      "v": 80
    },
    {
      "midi": 55,
      "hit": false,
      "t": 101145.60000000008,
      "d": 201.60000000000582,
      "v": 72
    },
    {
      "midi": 43,
      "hit": false,
      "t": 101145.60000000053,
      "d": 201.60000000000582,
      "v": 80
    },
    {
      "midi": 76,
      "hit": false,
      "t": 101376.00000000006,
      "d": 1612.800000000003,
      "v": 72
    },
    {
      "midi": 72,
      "hit": false,
      "t": 101376.00000000006,
      "d": 1612.800000000003,
      "v": 72
    },
    {
      "midi": 69,
      "hit": false,
      "t": 101376.00000000006,
      "d": 1612.800000000003,
      "v": 72
    },
    {
      "midi": 55,
      "hit": false,
      "t": 101376.00000000009,
      "d": 1584,
      "v": 72
    },
    {
      "midi": 65,
      "hit": false,
      "t": 101376.00000000019,
      "d": 1612.800000000003,
      "v": 88
    },
    {
      "midi": 60,
      "hit": false,
      "t": 101376.00000000019,
      "d": 1612.800000000003,
      "v": 88
    },
    {
      "midi": 57,
      "hit": false,
      "t": 101376.00000000019,
      "d": 1612.800000000003,
      "v": 72
    },
    {
      "midi": 81,
      "hit": false,
      "t": 101376.0000000003,
      "d": 201.60000000000582,
      "v": 88
    },
    {
      "midi": 77,
      "hit": false,
      "t": 101376.0000000003,
      "d": 201.60000000000582,
      "v": 88
    },
    {
      "midi": 50,
      "hit": false,
      "t": 101376.00000000054,
      "d": 403.1999999999971,
      "v": 80
    },
    {
      "midi": 79,
      "hit": false,
      "t": 101606.40000000031,
      "d": 403.1999999999971,
      "v": 88
    },
    {
      "midi": 76,
      "hit": false,
      "t": 101606.40000000031,
      "d": 403.1999999999971,
      "v": 88
    },
    {
      "midi": 38,
      "hit": false,
      "t": 101836.80000000054,
      "d": 403.1999999999971,
      "v": 80
    },
    {
      "midi": 77,
      "hit": false,
      "t": 102067.20000000032,
      "d": 633.6000000000058,
      "v": 88
    },
    {
      "midi": 74,
      "hit": false,
      "t": 102067.20000000032,
      "d": 633.6000000000058,
      "v": 88
    },
    {
      "midi": 84,
      "hit": false,
      "t": 102297.60000000006,
      "d": 403.1999999999971,
      "v": 72
    },
    {
      "midi": 43,
      "hit": false,
      "t": 102297.60000000054,
      "d": 201.60000000000582,
      "v": 80
    },
    {
      "midi": 43,
      "hit": false,
      "t": 102528.00000000055,
      "d": 201.60000000000582,
      "v": 80
    },
    {
      "midi": 88,
      "hit": false,
      "t": 102758.40000000007,
      "d": 403.1999999999971,
      "v": 72
    },
    {
      "midi": 77,
      "hit": false,
      "t": 102758.40000000033,
      "d": 201.60000000000582,
      "v": 88
    },
    {
      "midi": 74,
      "hit": false,
      "t": 102758.40000000033,
      "d": 201.60000000000582,
      "v": 88
    },
    {
      "midi": 43,
      "hit": false,
      "t": 102758.40000000056,
      "d": 201.60000000000582,
      "v": 80
    },
    {
      "midi": 55,
      "hit": false,
      "t": 102988.80000000009,
      "d": 201.60000000000582,
      "v": 72
    },
    {
      "midi": 79,
      "hit": false,
      "t": 102988.80000000034,
      "d": 201.60000000000582,
      "v": 88
    },
    {
      "midi": 76,
      "hit": false,
      "t": 102988.80000000034,
      "d": 201.60000000000582,
      "v": 88
    },
    {
      "midi": 43,
      "hit": false,
      "t": 102988.80000000057,
      "d": 201.60000000000582,
      "v": 80
    },
    {
      "midi": 71,
      "hit": false,
      "t": 103219.20000000007,
      "d": 48,
      "v": 64
    },
    {
      "midi": 55,
      "hit": false,
      "t": 103219.2000000001,
      "d": 1584,
      "v": 72
    },
    {
      "midi": 67,
      "hit": false,
      "t": 103219.20000000019,
      "d": 1612.800000000003,
      "v": 88
    },
    {
      "midi": 62,
      "hit": false,
      "t": 103219.20000000019,
      "d": 1612.800000000003,
      "v": 88
    },
    {
      "midi": 59,
      "hit": false,
      "t": 103219.20000000019,
      "d": 1612.800000000003,
      "v": 72
    },
    {
      "midi": 83,
      "hit": false,
      "t": 103219.20000000035,
      "d": 403.1999999999971,
      "v": 88
    },
    {
      "midi": 79,
      "hit": false,
      "t": 103219.20000000035,
      "d": 403.1999999999971,
      "v": 88
    },
    {
      "midi": 50,
      "hit": false,
      "t": 103219.20000000058,
      "d": 403.1999999999971,
      "v": 80
    },
    {
      "midi": 74,
      "hit": false,
      "t": 103276.80000000008,
      "d": 48,
      "v": 64
    },
    {
      "midi": 78,
      "hit": false,
      "t": 103334.40000000008,
      "d": 1612.800000000003,
      "v": 64
    },
    {
      "midi": 74,
      "hit": false,
      "t": 103334.40000000008,
      "d": 1612.800000000003,
      "v": 64
    },
    {
      "midi": 71,
      "hit": false,
      "t": 103334.40000000008,
      "d": 1612.800000000003,
      "v": 64
    },
    {
      "midi": 83,
      "hit": false,
      "t": 103680.00000000035,
      "d": 403.1999999999971,
      "v": 88
    },
    {
      "midi": 79,
      "hit": false,
      "t": 103680.00000000035,
      "d": 403.1999999999971,
      "v": 88
    },
    {
      "midi": 38,
      "hit": false,
      "t": 103680.00000000058,
      "d": 403.1999999999971,
      "v": 80
    },
    {
      "midi": 79,
      "hit": false,
      "t": 104140.80000000035,
      "d": 403.1999999999971,
      "v": 88
    },
    {
      "midi": 74,
      "hit": false,
      "t": 104140.80000000035,
      "d": 403.1999999999971,
      "v": 88
    },
    {
      "midi": 43,
      "hit": false,
      "t": 104140.80000000058,
      "d": 201.60000000000582,
      "v": 80
    },
    {
      "midi": 43,
      "hit": false,
      "t": 104371.2000000006,
      "d": 201.60000000000582,
      "v": 80
    },
    {
      "midi": 83,
      "hit": false,
      "t": 104601.60000000036,
      "d": 403.1999999999971,
      "v": 88
    },
    {
      "midi": 79,
      "hit": false,
      "t": 104601.60000000036,
      "d": 403.1999999999971,
      "v": 88
    },
    {
      "midi": 43,
      "hit": false,
      "t": 104601.6000000006,
      "d": 201.60000000000582,
      "v": 80
    },
    {
      "midi": 55,
      "hit": false,
      "t": 104832.0000000001,
      "d": 201.60000000000582,
      "v": 72
    },
    {
      "midi": 43,
      "hit": false,
      "t": 104832.00000000061,
      "d": 201.60000000000582,
      "v": 80
    },
    {
      "midi": 76,
      "hit": false,
      "t": 105062.40000000008,
      "d": 1612.800000000003,
      "v": 72
    },
    {
      "midi": 72,
      "hit": false,
      "t": 105062.40000000008,
      "d": 1612.800000000003,
      "v": 72
    },
    {
      "midi": 69,
      "hit": false,
      "t": 105062.40000000008,
      "d": 1612.800000000003,
      "v": 72
    },
    {
      "midi": 55,
      "hit": false,
      "t": 105062.40000000011,
      "d": 1612.800000000003,
      "v": 72
    },
    {
      "midi": 65,
      "hit": false,
      "t": 105062.40000000018,
      "d": 1209.6000000000058,
      "v": 88
    },
    {
      "midi": 60,
      "hit": false,
      "t": 105062.40000000018,
      "d": 1209.6000000000058,
      "v": 88
    },
    {
      "midi": 57,
      "hit": false,
      "t": 105062.40000000018,
      "d": 1209.6000000000058,
      "v": 72
    },
    {
      "midi": 81,
      "hit": false,
      "t": 105062.40000000036,
      "d": 201.60000000000582,
      "v": 88
    },
    {
      "midi": 77,
      "hit": false,
      "t": 105062.40000000036,
      "d": 201.60000000000582,
      "v": 88
    },
    {
      "midi": 50,
      "hit": false,
      "t": 105062.40000000062,
      "d": 403.1999999999971,
      "v": 80
    },
    {
      "midi": 77,
      "hit": false,
      "t": 105292.80000000037,
      "d": 201.60000000000582,
      "v": 88
    },
    {
      "midi": 74,
      "hit": false,
      "t": 105292.80000000037,
      "d": 201.60000000000582,
      "v": 88
    },
    {
      "midi": 79,
      "hit": false,
      "t": 105523.20000000038,
      "d": 201.60000000000582,
      "v": 88
    },
    {
      "midi": 76,
      "hit": false,
      "t": 105523.20000000038,
      "d": 201.60000000000582,
      "v": 88
    },
    {
      "midi": 38,
      "hit": false,
      "t": 105523.20000000062,
      "d": 403.1999999999971,
      "v": 80
    },
    {
      "midi": 77,
      "hit": false,
      "t": 105753.60000000038,
      "d": 633.6000000000058,
      "v": 88
    },
    {
      "midi": 74,
      "hit": false,
      "t": 105753.60000000038,
      "d": 633.6000000000058,
      "v": 88
    },
    {
      "midi": 84,
      "hit": false,
      "t": 105984.00000000009,
      "d": 403.1999999999971,
      "v": 72
    },
    {
      "midi": 43,
      "hit": false,
      "t": 105984.00000000063,
      "d": 201.60000000000582,
      "v": 80
    },
    {
      "midi": 43,
      "hit": false,
      "t": 106214.40000000063,
      "d": 201.60000000000582,
      "v": 80
    },
    {
      "midi": 64,
      "hit": false,
      "t": 106444.8,
      "d": 201.60000000000582,
      "v": 88
    },
    {
      "midi": 88,
      "hit": false,
      "t": 106444.80000000009,
      "d": 403.1999999999971,
      "v": 72
    },
    {
      "midi": 55,
      "hit": false,
      "t": 106444.80000000019,
      "d": 403.1999999999971,
      "v": 88
    },
    {
      "midi": 43,
      "hit": false,
      "t": 106444.80000000064,
      "d": 201.60000000000582,
      "v": 80
    },
    {
      "midi": 67,
      "hit": false,
      "t": 106675.20000000001,
      "d": 201.60000000000582,
      "v": 88
    },
    {
      "midi": 43,
      "hit": false,
      "t": 106675.20000000065,
      "d": 201.60000000000582,
      "v": 80
    },
    {
      "midi": 71,
      "hit": false,
      "t": 106905.60000000002,
      "d": 201.60000000000582,
      "v": 88
    },
    {
      "midi": 64,
      "hit": false,
      "t": 106905.60000000002,
      "d": 201.60000000000582,
      "v": 88
    },
    {
      "midi": 60,
      "hit": false,
      "t": 106905.60000000002,
      "d": 201.60000000000582,
      "v": 88
    },
    {
      "midi": 48,
      "hit": false,
      "t": 106905.6000000002,
      "d": 403.1999999999971,
      "v": 88
    },
    {
      "midi": 50,
      "hit": false,
      "t": 106905.60000000066,
      "d": 403.1999999999971,
      "v": 80
    },
    {
      "midi": 67,
      "hit": false,
      "t": 107136.00000000003,
      "d": 201.60000000000582,
      "v": 88
    },
    {
      "midi": 69,
      "hit": false,
      "t": 107366.40000000004,
      "d": 201.60000000000582,
      "v": 88
    },
    {
      "midi": 48,
      "hit": false,
      "t": 107366.4000000002,
      "d": 403.1999999999971,
      "v": 88
    },
    {
      "midi": 38,
      "hit": false,
      "t": 107366.40000000066,
      "d": 201.60000000000582,
      "v": 80
    },
    {
      "midi": 67,
      "hit": false,
      "t": 107596.80000000005,
      "d": 1036.800000000003,
      "v": 88
    },
    {
      "midi": 64,
      "hit": false,
      "t": 107596.80000000005,
      "d": 1036.800000000003,
      "v": 88
    },
    {
      "midi": 60,
      "hit": false,
      "t": 107596.80000000005,
      "d": 1036.800000000003,
      "v": 88
    },
    {
      "midi": 38,
      "hit": false,
      "t": 107596.80000000067,
      "d": 201.60000000000582,
      "v": 80
    },
    {
      "midi": 48,
      "hit": false,
      "t": 107827.2000000002,
      "d": 403.1999999999971,
      "v": 88
    },
    {
      "midi": 50,
      "hit": false,
      "t": 107827.20000000068,
      "d": 403.1999999999971,
      "v": 80
    },
    {
      "midi": 48,
      "hit": false,
      "t": 108288.0000000002,
      "d": 403.1999999999971,
      "v": 88
    },
    {
      "midi": 38,
      "hit": false,
      "t": 108288.00000000068,
      "d": 201.60000000000582,
      "v": 80
    },
    {
      "midi": 38,
      "hit": false,
      "t": 108518.40000000069,
      "d": 201.60000000000582,
      "v": 80
    },
    {
      "midi": 64,
      "hit": false,
      "t": 108748.80000000005,
      "d": 1209.6000000000058,
      "v": 88
    },
    {
      "midi": 59,
      "hit": false,
      "t": 108748.80000000005,
      "d": 1209.6000000000058,
      "v": 88
    },
    {
      "midi": 55,
      "hit": false,
      "t": 108748.80000000005,
      "d": 1209.6000000000058,
      "v": 88
    },
    {
      "midi": 52,
      "hit": false,
      "t": 108748.8000000002,
      "d": 403.1999999999971,
      "v": 88
    },
    {
      "midi": 50,
      "hit": false,
      "t": 108748.8000000007,
      "d": 403.1999999999971,
      "v": 80
    },
    {
      "midi": 52,
      "hit": false,
      "t": 109209.60000000021,
      "d": 403.1999999999971,
      "v": 88
    },
    {
      "midi": 38,
      "hit": false,
      "t": 109209.6000000007,
      "d": 201.60000000000582,
      "v": 80
    },
    {
      "midi": 38,
      "hit": false,
      "t": 109440.00000000071,
      "d": 201.60000000000582,
      "v": 80
    },
    {
      "midi": 52,
      "hit": false,
      "t": 109670.40000000021,
      "d": 403.1999999999971,
      "v": 88
    },
    {
      "midi": 50,
      "hit": false,
      "t": 109670.40000000072,
      "d": 403.1999999999971,
      "v": 80
    },
    {
      "midi": 64,
      "hit": false,
      "t": 110131.20000000006,
      "d": 201.60000000000582,
      "v": 88
    },
    {
      "midi": 52,
      "hit": false,
      "t": 110131.20000000022,
      "d": 403.1999999999971,
      "v": 88
    },
    {
      "midi": 38,
      "hit": false,
      "t": 110131.20000000072,
      "d": 201.60000000000582,
      "v": 80
    },
    {
      "midi": 67,
      "hit": false,
      "t": 110361.60000000006,
      "d": 201.60000000000582,
      "v": 88
    },
    {
      "midi": 38,
      "hit": false,
      "t": 110361.60000000073,
      "d": 201.60000000000582,
      "v": 80
    },
    {
      "midi": 71,
      "hit": false,
      "t": 110592.00000000007,
      "d": 201.60000000000582,
      "v": 88
    },
    {
      "midi": 64,
      "hit": false,
      "t": 110592.00000000007,
      "d": 201.60000000000582,
      "v": 88
    },
    {
      "midi": 60,
      "hit": false,
      "t": 110592.00000000007,
      "d": 201.60000000000582,
      "v": 88
    },
    {
      "midi": 45,
      "hit": false,
      "t": 110592.00000000022,
      "d": 604.8000000000029,
      "v": 88
    },
    {
      "midi": 50,
      "hit": false,
      "t": 110592.00000000074,
      "d": 403.1999999999971,
      "v": 80
    },
    {
      "midi": 67,
      "hit": false,
      "t": 110822.40000000008,
      "d": 201.60000000000582,
      "v": 88
    },
    {
      "midi": 69,
      "hit": false,
      "t": 111052.80000000009,
      "d": 201.60000000000582,
      "v": 88
    },
    {
      "midi": 38,
      "hit": false,
      "t": 111052.80000000075,
      "d": 201.60000000000582,
      "v": 80
    },
    {
      "midi": 67,
      "hit": false,
      "t": 111283.2000000001,
      "d": 432,
      "v": 88
    },
    {
      "midi": 64,
      "hit": false,
      "t": 111283.2000000001,
      "d": 432,
      "v": 88
    },
    {
      "midi": 60,
      "hit": false,
      "t": 111283.2000000001,
      "d": 432,
      "v": 88
    },
    {
      "midi": 47,
      "hit": false,
      "t": 111283.20000000022,
      "d": 201.60000000000582,
      "v": 88
    },
    {
      "midi": 38,
      "hit": false,
      "t": 111283.20000000075,
      "d": 201.60000000000582,
      "v": 80
    },
    {
      "midi": 48,
      "hit": false,
      "t": 111513.60000000022,
      "d": 201.60000000000582,
      "v": 88
    },
    {
      "midi": 50,
      "hit": false,
      "t": 111513.60000000076,
      "d": 403.1999999999971,
      "v": 80
    },
    {
      "midi": 64,
      "hit": false,
      "t": 111744.0000000001,
      "d": 403.1999999999971,
      "v": 88
    },
    {
      "midi": 60,
      "hit": false,
      "t": 111744.0000000001,
      "d": 403.1999999999971,
      "v": 88
    },
    {
      "midi": 52,
      "hit": false,
      "t": 111744.00000000023,
      "d": 201.60000000000582,
      "v": 88
    },
    {
      "midi": 48,
      "hit": false,
      "t": 111974.40000000024,
      "d": 201.60000000000582,
      "v": 88
    },
    {
      "midi": 38,
      "hit": false,
      "t": 111974.40000000077,
      "d": 201.60000000000582,
      "v": 80
    },
    {
      "midi": 62,
      "hit": false,
      "t": 112204.8000000001,
      "d": 1353.6000000000058,
      "v": 88
    },
    {
      "midi": 59,
      "hit": false,
      "t": 112204.8000000001,
      "d": 1353.6000000000058,
      "v": 88
    },
    {
      "midi": 43,
      "hit": false,
      "t": 112204.80000000025,
      "d": 633.6000000000058,
      "v": 88
    },
    {
      "midi": 38,
      "hit": false,
      "t": 112204.80000000077,
      "d": 201.60000000000582,
      "v": 80
    },
    {
      "midi": 50,
      "hit": false,
      "t": 112435.20000000078,
      "d": 403.1999999999971,
      "v": 80
    },
    {
      "midi": 43,
      "hit": false,
      "t": 112896.00000000026,
      "d": 403.1999999999971,
      "v": 88
    },
    {
      "midi": 38,
      "hit": false,
      "t": 112896.00000000079,
      "d": 201.60000000000582,
      "v": 80
    },
    {
      "midi": 38,
      "hit": false,
      "t": 113126.4000000008,
      "d": 201.60000000000582,
      "v": 80
    },
    {
      "midi": 43,
      "hit": false,
      "t": 113356.80000000026,
      "d": 403.1999999999971,
      "v": 88
    },
    {
      "midi": 50,
      "hit": false,
      "t": 113356.8000000008,
      "d": 403.1999999999971,
      "v": 80
    },
    {
      "midi": 63,
      "hit": false,
      "t": 113587.20000000011,
      "d": 201.60000000000582,
      "v": 88
    },
    {
      "midi": 64,
      "hit": false,
      "t": 113817.60000000012,
      "d": 201.60000000000582,
      "v": 88
    },
    {
      "midi": 43,
      "hit": false,
      "t": 113817.60000000027,
      "d": 403.1999999999971,
      "v": 88
    },
    {
      "midi": 38,
      "hit": false,
      "t": 113817.6000000008,
      "d": 201.60000000000582,
      "v": 80
    },
    {
      "midi": 67,
      "hit": false,
      "t": 114048.00000000013,
      "d": 201.60000000000582,
      "v": 88
    },
    {
      "midi": 38,
      "hit": false,
      "t": 114048.00000000081,
      "d": 201.60000000000582,
      "v": 80
    },
    {
      "midi": 71,
      "hit": false,
      "t": 114278.40000000008,
      "d": 1612.800000000003,
      "v": 72
    },
    {
      "midi": 67,
      "hit": false,
      "t": 114278.40000000008,
      "d": 1612.800000000003,
      "v": 72
    },
    {
      "midi": 64,
      "hit": false,
      "t": 114278.40000000008,
      "d": 1612.800000000003,
      "v": 72
    },
    {
      "midi": 60,
      "hit": false,
      "t": 114278.40000000008,
      "d": 1612.800000000003,
      "v": 72
    },
    {
      "midi": 71,
      "hit": false,
      "t": 114278.40000000014,
      "d": 201.60000000000582,
      "v": 88
    },
    {
      "midi": 64,
      "hit": false,
      "t": 114278.40000000014,
      "d": 201.60000000000582,
      "v": 88
    },
    {
      "midi": 60,
      "hit": false,
      "t": 114278.40000000014,
      "d": 201.60000000000582,
      "v": 88
    },
    {
      "midi": 48,
      "hit": false,
      "t": 114278.40000000027,
      "d": 403.1999999999971,
      "v": 88
    },
    {
      "midi": 50,
      "hit": false,
      "t": 114278.40000000082,
      "d": 403.1999999999971,
      "v": 80
    },
    {
      "midi": 67,
      "hit": false,
      "t": 114508.80000000015,
      "d": 201.60000000000582,
      "v": 88
    },
    {
      "midi": 69,
      "hit": false,
      "t": 114739.20000000016,
      "d": 201.60000000000582,
      "v": 88
    },
    {
      "midi": 48,
      "hit": false,
      "t": 114739.20000000027,
      "d": 403.1999999999971,
      "v": 88
    },
    {
      "midi": 38,
      "hit": false,
      "t": 114739.20000000083,
      "d": 201.60000000000582,
      "v": 80
    },
    {
      "midi": 67,
      "hit": false,
      "t": 114969.60000000017,
      "d": 1036.800000000003,
      "v": 88
    },
    {
      "midi": 64,
      "hit": false,
      "t": 114969.60000000017,
      "d": 1036.800000000003,
      "v": 88
    },
    {
      "midi": 60,
      "hit": false,
      "t": 114969.60000000017,
      "d": 1036.800000000003,
      "v": 88
    },
    {
      "midi": 38,
      "hit": false,
      "t": 114969.60000000084,
      "d": 201.60000000000582,
      "v": 80
    },
    {
      "midi": 48,
      "hit": false,
      "t": 115200.00000000028,
      "d": 403.1999999999971,
      "v": 88
    },
    {
      "midi": 50,
      "hit": false,
      "t": 115200.00000000084,
      "d": 403.1999999999971,
      "v": 80
    },
    {
      "midi": 48,
      "hit": false,
      "t": 115660.80000000028,
      "d": 403.1999999999971,
      "v": 88
    },
    {
      "midi": 38,
      "hit": false,
      "t": 115660.80000000085,
      "d": 201.60000000000582,
      "v": 80
    },
    {
      "midi": 38,
      "hit": false,
      "t": 115891.20000000086,
      "d": 201.60000000000582,
      "v": 80
    },
    {
      "midi": 71,
      "hit": false,
      "t": 116121.60000000008,
      "d": 1612.800000000003,
      "v": 72
    },
    {
      "midi": 67,
      "hit": false,
      "t": 116121.60000000008,
      "d": 1612.800000000003,
      "v": 72
    },
    {
      "midi": 64,
      "hit": false,
      "t": 116121.60000000008,
      "d": 1612.800000000003,
      "v": 72
    },
    {
      "midi": 64,
      "hit": false,
      "t": 116121.60000000017,
      "d": 1209.6000000000058,
      "v": 88
    },
    {
      "midi": 59,
      "hit": false,
      "t": 116121.60000000017,
      "d": 1209.6000000000058,
      "v": 88
    },
    {
      "midi": 55,
      "hit": false,
      "t": 116121.60000000017,
      "d": 1209.6000000000058,
      "v": 88
    },
    {
      "midi": 52,
      "hit": false,
      "t": 116121.60000000028,
      "d": 403.1999999999971,
      "v": 88
    },
    {
      "midi": 50,
      "hit": false,
      "t": 116121.60000000086,
      "d": 403.1999999999971,
      "v": 80
    },
    {
      "midi": 52,
      "hit": false,
      "t": 116582.40000000029,
      "d": 403.1999999999971,
      "v": 88
    },
    {
      "midi": 38,
      "hit": false,
      "t": 116582.40000000087,
      "d": 201.60000000000582,
      "v": 80
    },
    {
      "midi": 38,
      "hit": false,
      "t": 116812.80000000088,
      "d": 201.60000000000582,
      "v": 80
    },
    {
      "midi": 79,
      "hit": false,
      "t": 117043.20000000008,
      "d": 403.1999999999971,
      "v": 72
    },
    {
      "midi": 52,
      "hit": false,
      "t": 117043.20000000029,
      "d": 403.1999999999971,
      "v": 88
    },
    {
      "midi": 50,
      "hit": false,
      "t": 117043.20000000088,
      "d": 403.1999999999971,
      "v": 80
    },
    {
      "midi": 83,
      "hit": false,
      "t": 117504.00000000009,
      "d": 403.1999999999971,
      "v": 72
    },
    {
      "midi": 64,
      "hit": false,
      "t": 117504.00000000017,
      "d": 201.60000000000582,
      "v": 88
    },
    {
      "midi": 52,
      "hit": false,
      "t": 117504.00000000029,
      "d": 403.1999999999971,
      "v": 88
    },
    {
      "midi": 38,
      "hit": false,
      "t": 117504.00000000089,
      "d": 201.60000000000582,
      "v": 80
    },
    {
      "midi": 67,
      "hit": false,
      "t": 117734.40000000018,
      "d": 201.60000000000582,
      "v": 88
    },
    {
      "midi": 38,
      "hit": false,
      "t": 117734.4000000009,
      "d": 201.60000000000582,
      "v": 80
    },
    {
      "midi": 67,
      "hit": false,
      "t": 117964.80000000009,
      "d": 1612.800000000003,
      "v": 72
    },
    {
      "midi": 64,
      "hit": false,
      "t": 117964.80000000009,
      "d": 1612.800000000003,
      "v": 72
    },
    {
      "midi": 60,
      "hit": false,
      "t": 117964.80000000009,
      "d": 1612.800000000003,
      "v": 72
    },
    {
      "midi": 57,
      "hit": false,
      "t": 117964.80000000009,
      "d": 1612.800000000003,
      "v": 72
    },
    {
      "midi": 71,
      "hit": false,
      "t": 117964.80000000019,
      "d": 201.60000000000582,
      "v": 88
    },
    {
      "midi": 64,
      "hit": false,
      "t": 117964.80000000019,
      "d": 201.60000000000582,
      "v": 88
    },
    {
      "midi": 60,
      "hit": false,
      "t": 117964.80000000019,
      "d": 201.60000000000582,
      "v": 88
    },
    {
      "midi": 45,
      "hit": false,
      "t": 117964.8000000003,
      "d": 604.8000000000029,
      "v": 88
    },
    {
      "midi": 50,
      "hit": false,
      "t": 117964.8000000009,
      "d": 403.1999999999971,
      "v": 80
    },
    {
      "midi": 67,
      "hit": false,
      "t": 118195.2000000002,
      "d": 201.60000000000582,
      "v": 88
    },
    {
      "midi": 69,
      "hit": false,
      "t": 118425.60000000021,
      "d": 201.60000000000582,
      "v": 88
    },
    {
      "midi": 38,
      "hit": false,
      "t": 118425.60000000091,
      "d": 201.60000000000582,
      "v": 80
    },
    {
      "midi": 67,
      "hit": false,
      "t": 118656.00000000022,
      "d": 432,
      "v": 88
    },
    {
      "midi": 64,
      "hit": false,
      "t": 118656.00000000022,
      "d": 432,
      "v": 88
    },
    {
      "midi": 60,
      "hit": false,
      "t": 118656.00000000022,
      "d": 432,
      "v": 88
    },
    {
      "midi": 47,
      "hit": false,
      "t": 118656.00000000029,
      "d": 201.60000000000582,
      "v": 88
    },
    {
      "midi": 38,
      "hit": false,
      "t": 118656.00000000092,
      "d": 201.60000000000582,
      "v": 80
    },
    {
      "midi": 48,
      "hit": false,
      "t": 118886.4000000003,
      "d": 201.60000000000582,
      "v": 88
    },
    {
      "midi": 50,
      "hit": false,
      "t": 118886.40000000093,
      "d": 403.1999999999971,
      "v": 80
    },
    {
      "midi": 64,
      "hit": false,
      "t": 119116.80000000022,
      "d": 403.1999999999971,
      "v": 88
    },
    {
      "midi": 60,
      "hit": false,
      "t": 119116.80000000022,
      "d": 403.1999999999971,
      "v": 88
    },
    {
      "midi": 52,
      "hit": false,
      "t": 119116.80000000031,
      "d": 201.60000000000582,
      "v": 88
    },
    {
      "midi": 48,
      "hit": false,
      "t": 119347.20000000032,
      "d": 201.60000000000582,
      "v": 88
    },
    {
      "midi": 38,
      "hit": false,
      "t": 119347.20000000093,
      "d": 201.60000000000582,
      "v": 80
    },
    {
      "midi": 72,
      "hit": false,
      "t": 119577.60000000022,
      "d": 432,
      "v": 88
    },
    {
      "midi": 64,
      "hit": false,
      "t": 119577.60000000022,
      "d": 432,
      "v": 88
    },
    {
      "midi": 50,
      "hit": false,
      "t": 119577.60000000033,
      "d": 633.6000000000058,
      "v": 88
    },
    {
      "midi": 38,
      "hit": false,
      "t": 119577.60000000094,
      "d": 201.60000000000582,
      "v": 80
    },
    {
      "midi": 67,
      "hit": false,
      "t": 119808.00000000009,
      "d": 1612.800000000003,
      "v": 72
    },
    {
      "midi": 64,
      "hit": false,
      "t": 119808.00000000009,
      "d": 1612.800000000003,
      "v": 72
    },
    {
      "midi": 60,
      "hit": false,
      "t": 119808.00000000009,
      "d": 1612.800000000003,
      "v": 72
    },
    {
      "midi": 50,
      "hit": false,
      "t": 119808.00000000095,
      "d": 403.1999999999971,
      "v": 80
    },
    {
      "midi": 38,
      "hit": false,
      "t": 120038.39999999978,
      "d": 201.60000000000582,
      "v": 72
    },
    {
      "midi": 57,
      "hit": false,
      "t": 120038.40000000011,
      "d": 201.60000000000582,
      "v": 72
    },
    {
      "midi": 55,
      "hit": false,
      "t": 120038.40000000011,
      "d": 201.60000000000582,
      "v": 72
    },
    {
      "midi": 50,
      "hit": false,
      "t": 120038.40000000011,
      "d": 201.60000000000582,
      "v": 72
    },
    {
      "midi": 71,
      "hit": false,
      "t": 120038.40000000023,
      "d": 403.1999999999971,
      "v": 88
    },
    {
      "midi": 62,
      "hit": false,
      "t": 120038.40000000023,
      "d": 403.1999999999971,
      "v": 88
    },
    {
      "midi": 38,
      "hit": false,
      "t": 120268.79999999978,
      "d": 403.1999999999971,
      "v": 72
    },
    {
      "midi": 57,
      "hit": false,
      "t": 120268.80000000012,
      "d": 403.1999999999971,
      "v": 72
    },
    {
      "midi": 55,
      "hit": false,
      "t": 120268.80000000012,
      "d": 403.1999999999971,
      "v": 72
    },
    {
      "midi": 50,
      "hit": false,
      "t": 120268.80000000012,
      "d": 403.1999999999971,
      "v": 72
    },
    {
      "midi": 50,
      "hit": false,
      "t": 120268.80000000034,
      "d": 403.1999999999971,
      "v": 88
    },
    {
      "midi": 38,
      "hit": false,
      "t": 120268.80000000095,
      "d": 201.60000000000582,
      "v": 80
    },
    {
      "midi": 67,
      "hit": false,
      "t": 120499.20000000023,
      "d": 633.6000000000058,
      "v": 88
    },
    {
      "midi": 60,
      "hit": false,
      "t": 120499.20000000023,
      "d": 633.6000000000058,
      "v": 88
    },
    {
      "midi": 38,
      "hit": false,
      "t": 120499.20000000096,
      "d": 201.60000000000582,
      "v": 80
    },
    {
      "midi": 38,
      "hit": false,
      "t": 120729.59999999979,
      "d": 201.60000000000582,
      "v": 72
    },
    {
      "midi": 57,
      "hit": false,
      "t": 120729.60000000012,
      "d": 201.60000000000582,
      "v": 72
    },
    {
      "midi": 55,
      "hit": false,
      "t": 120729.60000000012,
      "d": 201.60000000000582,
      "v": 72
    },
    {
      "midi": 50,
      "hit": false,
      "t": 120729.60000000012,
      "d": 201.60000000000582,
      "v": 72
    },
    {
      "midi": 50,
      "hit": false,
      "t": 120729.60000000034,
      "d": 403.1999999999971,
      "v": 88
    },
    {
      "midi": 50,
      "hit": false,
      "t": 120729.60000000097,
      "d": 403.1999999999971,
      "v": 80
    },
    {
      "midi": 38,
      "hit": false,
      "t": 120959.9999999998,
      "d": 604.8000000000029,
      "v": 72
    },
    {
      "midi": 57,
      "hit": false,
      "t": 120960.00000000013,
      "d": 604.8000000000029,
      "v": 72
    },
    {
      "midi": 55,
      "hit": false,
      "t": 120960.00000000013,
      "d": 604.8000000000029,
      "v": 72
    },
    {
      "midi": 50,
      "hit": false,
      "t": 120960.00000000013,
      "d": 604.8000000000029,
      "v": 72
    },
    {
      "midi": 50,
      "hit": false,
      "t": 121190.40000000034,
      "d": 403.1999999999971,
      "v": 88
    },
    {
      "midi": 64,
      "hit": false,
      "t": 121190.40000000039,
      "d": 403.1999999999971,
      "v": 80
    },
    {
      "midi": 38,
      "hit": false,
      "t": 121190.40000000097,
      "d": 96,
      "v": 80
    },
    {
      "midi": 38,
      "hit": false,
      "t": 121305.60000000097,
      "d": 96,
      "v": 80
    },
    {
      "midi": 38,
      "hit": false,
      "t": 121420.80000000096,
      "d": 96,
      "v": 80
    },
    {
      "midi": 38,
      "hit": false,
      "t": 121536.00000000096,
      "d": 96,
      "v": 80
    },
    {
      "midi": 43,
      "hit": false,
      "t": 121651.1999999998,
      "d": 403.1999999999971,
      "v": 72
    },
    {
      "midi": 59,
      "hit": false,
      "t": 121651.20000000013,
      "d": 1612.800000000003,
      "v": 72
    },
    {
      "midi": 55,
      "hit": false,
      "t": 121651.20000000013,
      "d": 1612.800000000003,
      "v": 72
    },
    {
      "midi": 50,
      "hit": false,
      "t": 121651.20000000013,
      "d": 1612.800000000003,
      "v": 72
    },
    {
      "midi": 43,
      "hit": false,
      "t": 121651.20000000035,
      "d": 604.8000000000029,
      "v": 88
    },
    {
      "midi": 62,
      "hit": false,
      "t": 121651.20000000039,
      "d": 806.3999999999942,
      "v": 80
    },
    {
      "midi": 59,
      "hit": false,
      "t": 121651.20000000039,
      "d": 806.3999999999942,
      "v": 80
    },
    {
      "midi": 50,
      "hit": false,
      "t": 121651.20000000096,
      "d": 403.1999999999971,
      "v": 80
    },
    {
      "midi": 43,
      "hit": false,
      "t": 122111.9999999998,
      "d": 403.1999999999971,
      "v": 72
    },
    {
      "midi": 38,
      "hit": false,
      "t": 122112.00000000096,
      "d": 201.60000000000582,
      "v": 80
    },
    {
      "midi": 43,
      "hit": false,
      "t": 122342.40000000034,
      "d": 201.60000000000582,
      "v": 88
    },
    {
      "midi": 38,
      "hit": false,
      "t": 122342.40000000097,
      "d": 201.60000000000582,
      "v": 80
    },
    {
      "midi": 43,
      "hit": false,
      "t": 122572.7999999998,
      "d": 403.1999999999971,
      "v": 72
    },
    {
      "midi": 43,
      "hit": false,
      "t": 122572.80000000035,
      "d": 604.8000000000029,
      "v": 88
    },
    {
      "midi": 67,
      "hit": false,
      "t": 122572.80000000038,
      "d": 403.1999999999971,
      "v": 80
    },
    {
      "midi": 50,
      "hit": false,
      "t": 122572.80000000098,
      "d": 403.1999999999971,
      "v": 80
    },
    {
      "midi": 43,
      "hit": false,
      "t": 123033.5999999998,
      "d": 403.1999999999971,
      "v": 72
    },
    {
      "midi": 62,
      "hit": false,
      "t": 123033.60000000038,
      "d": 403.1999999999971,
      "v": 80
    },
    {
      "midi": 38,
      "hit": false,
      "t": 123033.60000000098,
      "d": 201.60000000000582,
      "v": 80
    },
    {
      "midi": 43,
      "hit": false,
      "t": 123264.00000000035,
      "d": 201.60000000000582,
      "v": 88
    },
    {
      "midi": 38,
      "hit": false,
      "t": 123264.00000000099,
      "d": 201.60000000000582,
      "v": 80
    },
    {
      "midi": 42,
      "hit": false,
      "t": 123494.3999999998,
      "d": 403.1999999999971,
      "v": 72
    },
    {
      "midi": 57,
      "hit": false,
      "t": 123494.40000000013,
      "d": 1612.800000000003,
      "v": 72
    },
    {
      "midi": 54,
      "hit": false,
      "t": 123494.40000000013,
      "d": 1612.800000000003,
      "v": 72
    },
    {
      "midi": 50,
      "hit": false,
      "t": 123494.40000000013,
      "d": 1612.800000000003,
      "v": 72
    },
    {
      "midi": 42,
      "hit": false,
      "t": 123494.40000000036,
      "d": 604.8000000000029,
      "v": 88
    },
    {
      "midi": 62,
      "hit": false,
      "t": 123494.40000000039,
      "d": 1209.6000000000058,
      "v": 80
    },
    {
      "midi": 57,
      "hit": false,
      "t": 123494.40000000039,
      "d": 1209.6000000000058,
      "v": 80
    },
    {
      "midi": 50,
      "hit": false,
      "t": 123494.400000001,
      "d": 403.1999999999971,
      "v": 80
    },
    {
      "midi": 42,
      "hit": false,
      "t": 123955.19999999981,
      "d": 403.1999999999971,
      "v": 72
    },
    {
      "midi": 38,
      "hit": false,
      "t": 123955.200000001,
      "d": 201.60000000000582,
      "v": 80
    },
    {
      "midi": 42,
      "hit": false,
      "t": 124185.60000000036,
      "d": 201.60000000000582,
      "v": 88
    },
    {
      "midi": 38,
      "hit": false,
      "t": 124185.60000000101,
      "d": 201.60000000000582,
      "v": 80
    },
    {
      "midi": 42,
      "hit": false,
      "t": 124415.99999999981,
      "d": 403.1999999999971,
      "v": 72
    },
    {
      "midi": 42,
      "hit": false,
      "t": 124416.00000000036,
      "d": 604.8000000000029,
      "v": 88
    },
    {
      "midi": 50,
      "hit": false,
      "t": 124416.00000000102,
      "d": 403.1999999999971,
      "v": 80
    },
    {
      "midi": 42,
      "hit": false,
      "t": 124876.79999999981,
      "d": 403.1999999999971,
      "v": 72
    },
    {
      "midi": 62,
      "hit": false,
      "t": 124876.8000000004,
      "d": 403.1999999999971,
      "v": 80
    },
    {
      "midi": 38,
      "hit": false,
      "t": 124876.80000000102,
      "d": 201.60000000000582,
      "v": 80
    },
    {
      "midi": 42,
      "hit": false,
      "t": 125107.20000000036,
      "d": 201.60000000000582,
      "v": 88
    },
    {
      "midi": 38,
      "hit": false,
      "t": 125107.20000000103,
      "d": 201.60000000000582,
      "v": 80
    },
    {
      "midi": 40,
      "hit": false,
      "t": 125337.59999999982,
      "d": 403.1999999999971,
      "v": 72
    },
    {
      "midi": 59,
      "hit": false,
      "t": 125337.60000000012,
      "d": 1612.800000000003,
      "v": 72
    },
    {
      "midi": 55,
      "hit": false,
      "t": 125337.60000000012,
      "d": 1612.800000000003,
      "v": 72
    },
    {
      "midi": 50,
      "hit": false,
      "t": 125337.60000000012,
      "d": 1612.800000000003,
      "v": 72
    },
    {
      "midi": 40,
      "hit": false,
      "t": 125337.60000000037,
      "d": 604.8000000000029,
      "v": 88
    },
    {
      "midi": 67,
      "hit": false,
      "t": 125337.6000000004,
      "d": 806.3999999999942,
      "v": 80
    },
    {
      "midi": 59,
      "hit": false,
      "t": 125337.6000000004,
      "d": 806.3999999999942,
      "v": 80
    },
    {
      "midi": 50,
      "hit": false,
      "t": 125337.60000000104,
      "d": 403.1999999999971,
      "v": 80
    },
    {
      "midi": 40,
      "hit": false,
      "t": 125798.39999999982,
      "d": 403.1999999999971,
      "v": 72
    },
    {
      "midi": 38,
      "hit": false,
      "t": 125798.40000000104,
      "d": 201.60000000000582,
      "v": 80
    },
    {
      "midi": 40,
      "hit": false,
      "t": 126028.80000000037,
      "d": 201.60000000000582,
      "v": 88
    },
    {
      "midi": 38,
      "hit": false,
      "t": 126028.80000000105,
      "d": 201.60000000000582,
      "v": 80
    },
    {
      "midi": 40,
      "hit": false,
      "t": 126259.19999999982,
      "d": 403.1999999999971,
      "v": 72
    },
    {
      "midi": 40,
      "hit": false,
      "t": 126259.20000000038,
      "d": 604.8000000000029,
      "v": 88
    },
    {
      "midi": 66,
      "hit": false,
      "t": 126259.20000000039,
      "d": 403.1999999999971,
      "v": 80
    },
    {
      "midi": 50,
      "hit": false,
      "t": 126259.20000000106,
      "d": 403.1999999999971,
      "v": 80
    },
    {
      "midi": 40,
      "hit": false,
      "t": 126719.99999999983,
      "d": 403.1999999999971,
      "v": 72
    },
    {
      "midi": 64,
      "hit": false,
      "t": 126720.0000000004,
      "d": 403.1999999999971,
      "v": 80
    },
    {
      "midi": 38,
      "hit": false,
      "t": 126720.00000000106,
      "d": 201.60000000000582,
      "v": 80
    },
    {
      "midi": 40,
      "hit": false,
      "t": 126950.40000000037,
      "d": 201.60000000000582,
      "v": 88
    },
    {
      "midi": 38,
      "hit": false,
      "t": 126950.40000000107,
      "d": 201.60000000000582,
      "v": 80
    },
    {
      "midi": 38,
      "hit": false,
      "t": 127180.79999999983,
      "d": 403.1999999999971,
      "v": 72
    },
    {
      "midi": 59,
      "hit": false,
      "t": 127180.80000000012,
      "d": 1612.800000000003,
      "v": 72
    },
    {
      "midi": 54,
      "hit": false,
      "t": 127180.80000000012,
      "d": 1612.800000000003,
      "v": 72
    },
    {
      "midi": 50,
      "hit": false,
      "t": 127180.80000000012,
      "d": 1612.800000000003,
      "v": 72
    },
    {
      "midi": 38,
      "hit": false,
      "t": 127180.80000000038,
      "d": 604.8000000000029,
      "v": 88
    },
    {
      "midi": 62,
      "hit": false,
      "t": 127180.8000000004,
      "d": 1209.6000000000058,
      "v": 80
    },
    {
      "midi": 59,
      "hit": false,
      "t": 127180.8000000004,
      "d": 1209.6000000000058,
      "v": 80
    },
    {
      "midi": 54,
      "hit": false,
      "t": 127180.8000000004,
      "d": 1209.6000000000058,
      "v": 80
    },
    {
      "midi": 50,
      "hit": false,
      "t": 127180.80000000108,
      "d": 403.1999999999971,
      "v": 80
    },
    {
      "midi": 38,
      "hit": false,
      "t": 127641.59999999983,
      "d": 403.1999999999971,
      "v": 72
    },
    {
      "midi": 38,
      "hit": false,
      "t": 127641.60000000108,
      "d": 201.60000000000582,
      "v": 80
    },
    {
      "midi": 38,
      "hit": false,
      "t": 127872.00000000038,
      "d": 201.60000000000582,
      "v": 88
    },
    {
      "midi": 38,
      "hit": false,
      "t": 127872.00000000109,
      "d": 201.60000000000582,
      "v": 80
    },
    {
      "midi": 38,
      "hit": false,
      "t": 128102.39999999983,
      "d": 403.1999999999971,
      "v": 72
    },
    {
      "midi": 38,
      "hit": false,
      "t": 128102.40000000039,
      "d": 604.8000000000029,
      "v": 88
    },
    {
      "midi": 50,
      "hit": false,
      "t": 128102.4000000011,
      "d": 403.1999999999971,
      "v": 80
    },
    {
      "midi": 38,
      "hit": false,
      "t": 128563.19999999984,
      "d": 403.1999999999971,
      "v": 72
    },
    {
      "midi": 38,
      "hit": false,
      "t": 128563.2000000011,
      "d": 201.60000000000582,
      "v": 80
    },
    {
      "midi": 38,
      "hit": false,
      "t": 128793.60000000038,
      "d": 201.60000000000582,
      "v": 88
    },
    {
      "midi": 38,
      "hit": false,
      "t": 128793.60000000111,
      "d": 201.60000000000582,
      "v": 80
    },
    {
      "midi": 36,
      "hit": false,
      "t": 129023.99999999984,
      "d": 403.1999999999971,
      "v": 72
    },
    {
      "midi": 60,
      "hit": false,
      "t": 129024.00000000012,
      "d": 1612.800000000003,
      "v": 72
    },
    {
      "midi": 55,
      "hit": false,
      "t": 129024.00000000012,
      "d": 1612.800000000003,
      "v": 72
    },
    {
      "midi": 52,
      "hit": false,
      "t": 129024.00000000012,
      "d": 1612.800000000003,
      "v": 72
    },
    {
      "midi": 64,
      "hit": false,
      "t": 129024.00000000025,
      "d": 1612.800000000003,
      "v": 80
    },
    {
      "midi": 36,
      "hit": false,
      "t": 129024.0000000004,
      "d": 604.8000000000029,
      "v": 88
    },
    {
      "midi": 50,
      "hit": false,
      "t": 129024.00000000112,
      "d": 403.1999999999971,
      "v": 80
    },
    {
      "midi": 36,
      "hit": false,
      "t": 129484.79999999984,
      "d": 403.1999999999971,
      "v": 72
    },
    {
      "midi": 62,
      "hit": false,
      "t": 129484.80000000041,
      "d": 403.1999999999971,
      "v": 80
    },
    {
      "midi": 38,
      "hit": false,
      "t": 129484.80000000112,
      "d": 201.60000000000582,
      "v": 80
    },
    {
      "midi": 36,
      "hit": false,
      "t": 129715.20000000039,
      "d": 201.60000000000582,
      "v": 88
    },
    {
      "midi": 38,
      "hit": false,
      "t": 129715.20000000113,
      "d": 201.60000000000582,
      "v": 80
    },
    {
      "midi": 36,
      "hit": false,
      "t": 129945.59999999985,
      "d": 403.1999999999971,
      "v": 72
    },
    {
      "midi": 36,
      "hit": false,
      "t": 129945.6000000004,
      "d": 604.8000000000029,
      "v": 88
    },
    {
      "midi": 60,
      "hit": false,
      "t": 129945.60000000041,
      "d": 403.1999999999971,
      "v": 80
    },
    {
      "midi": 50,
      "hit": false,
      "t": 129945.60000000114,
      "d": 403.1999999999971,
      "v": 80
    },
    {
      "midi": 36,
      "hit": false,
      "t": 130406.39999999985,
      "d": 403.1999999999971,
      "v": 72
    },
    {
      "midi": 59,
      "hit": false,
      "t": 130406.40000000042,
      "d": 403.1999999999971,
      "v": 80
    },
    {
      "midi": 38,
      "hit": false,
      "t": 130406.40000000114,
      "d": 201.60000000000582,
      "v": 80
    },
    {
      "midi": 36,
      "hit": false,
      "t": 130636.8000000004,
      "d": 201.60000000000582,
      "v": 88
    },
    {
      "midi": 38,
      "hit": false,
      "t": 130636.80000000115,
      "d": 201.60000000000582,
      "v": 80
    },
    {
      "midi": 38,
      "hit": false,
      "t": 130867.19999999985,
      "d": 403.1999999999971,
      "v": 72
    },
    {
      "midi": 57,
      "hit": false,
      "t": 130867.20000000011,
      "d": 1612.800000000003,
      "v": 72
    },
    {
      "midi": 54,
      "hit": false,
      "t": 130867.20000000011,
      "d": 1612.800000000003,
      "v": 72
    },
    {
      "midi": 66,
      "hit": false,
      "t": 130867.20000000024,
      "d": 1209.6000000000058,
      "v": 80
    },
    {
      "midi": 62,
      "hit": false,
      "t": 130867.20000000024,
      "d": 1209.6000000000058,
      "v": 80
    },
    {
      "midi": 38,
      "hit": false,
      "t": 130867.2000000004,
      "d": 604.8000000000029,
      "v": 88
    },
    {
      "midi": 59,
      "hit": false,
      "t": 130867.20000000042,
      "d": 403.20000000001164,
      "v": 80
    },
    {
      "midi": 50,
      "hit": false,
      "t": 130867.20000000116,
      "d": 403.1999999999971,
      "v": 80
    },
    {
      "midi": 38,
      "hit": false,
      "t": 131327.99999999985,
      "d": 403.20000000001164,
      "v": 72
    },
    {
      "midi": 57,
      "hit": false,
      "t": 131328.00000000044,
      "d": 201.60000000000582,
      "v": 80
    },
    {
      "midi": 38,
      "hit": false,
      "t": 131328.00000000116,
      "d": 201.60000000000582,
      "v": 80
    },
    {
      "midi": 38,
      "hit": false,
      "t": 131558.4000000004,
      "d": 201.60000000000582,
      "v": 88
    },
    {
      "midi": 57,
      "hit": false,
      "t": 131558.40000000043,
      "d": 633.6000000000058,
      "v": 80
    },
    {
      "midi": 38,
      "hit": false,
      "t": 131558.40000000116,
      "d": 201.60000000000582,
      "v": 80
    },
    {
      "midi": 38,
      "hit": false,
      "t": 131788.79999999987,
      "d": 403.20000000001164,
      "v": 72
    },
    {
      "midi": 38,
      "hit": false,
      "t": 131788.8000000004,
      "d": 604.7999999999884,
      "v": 88
    },
    {
      "midi": 50,
      "hit": false,
      "t": 131788.80000000115,
      "d": 403.20000000001164,
      "v": 80
    },
    {
      "midi": 38,
      "hit": false,
      "t": 132249.5999999999,
      "d": 403.20000000001164,
      "v": 72
    },
    {
      "midi": 59,
      "hit": false,
      "t": 132249.60000000024,
      "d": 201.60000000000582,
      "v": 80
    },
    {
      "midi": 38,
      "hit": false,
      "t": 132249.60000000117,
      "d": 201.60000000000582,
      "v": 80
    },
    {
      "midi": 60,
      "hit": false,
      "t": 132480.00000000023,
      "d": 201.60000000000582,
      "v": 80
    },
    {
      "midi": 38,
      "hit": false,
      "t": 132480.00000000038,
      "d": 201.60000000000582,
      "v": 88
    },
    {
      "midi": 38,
      "hit": false,
      "t": 132480.00000000116,
      "d": 201.60000000000582,
      "v": 80
    },
    {
      "midi": 45,
      "hit": false,
      "t": 132710.3999999999,
      "d": 403.20000000001164,
      "v": 72
    },
    {
      "midi": 60,
      "hit": false,
      "t": 132710.4000000001,
      "d": 1612.7999999999884,
      "v": 72
    },
    {
      "midi": 55,
      "hit": false,
      "t": 132710.4000000001,
      "d": 1612.7999999999884,
      "v": 72
    },
    {
      "midi": 52,
      "hit": false,
      "t": 132710.4000000001,
      "d": 1612.7999999999884,
      "v": 72
    },
    {
      "midi": 62,
      "hit": false,
      "t": 132710.40000000023,
      "d": 403.20000000001164,
      "v": 80
    },
    {
      "midi": 33,
      "hit": false,
      "t": 132710.40000000037,
      "d": 604.7999999999884,
      "v": 88
    },
    {
      "midi": 67,
      "hit": false,
      "t": 132710.40000000043,
      "d": 1612.7999999999884,
      "v": 80
    },
    {
      "midi": 50,
      "hit": false,
      "t": 132710.40000000116,
      "d": 403.20000000001164,
      "v": 80
    },
    {
      "midi": 45,
      "hit": false,
      "t": 133171.19999999992,
      "d": 403.20000000001164,
      "v": 72
    },
    {
      "midi": 62,
      "hit": false,
      "t": 133171.20000000024,
      "d": 403.20000000001164,
      "v": 80
    },
    {
      "midi": 38,
      "hit": false,
      "t": 133171.20000000118,
      "d": 201.60000000000582,
      "v": 80
    },
    {
      "midi": 33,
      "hit": false,
      "t": 133401.60000000036,
      "d": 201.60000000000582,
      "v": 88
    },
    {
      "midi": 38,
      "hit": false,
      "t": 133401.60000000117,
      "d": 201.60000000000582,
      "v": 80
    },
    {
      "midi": 45,
      "hit": false,
      "t": 133631.99999999994,
      "d": 403.20000000001164,
      "v": 72
    },
    {
      "midi": 60,
      "hit": false,
      "t": 133632.00000000026,
      "d": 403.20000000001164,
      "v": 80
    },
    {
      "midi": 33,
      "hit": false,
      "t": 133632.00000000035,
      "d": 604.7999999999884,
      "v": 88
    },
    {
      "midi": 50,
      "hit": false,
      "t": 133632.00000000116,
      "d": 403.20000000001164,
      "v": 80
    },
    {
      "midi": 45,
      "hit": false,
      "t": 134092.79999999996,
      "d": 403.20000000001164,
      "v": 72
    },
    {
      "midi": 64,
      "hit": false,
      "t": 134092.80000000028,
      "d": 403.20000000001164,
      "v": 80
    },
    {
      "midi": 38,
      "hit": false,
      "t": 134092.80000000118,
      "d": 201.60000000000582,
      "v": 80
    },
    {
      "midi": 33,
      "hit": false,
      "t": 134323.20000000033,
      "d": 201.60000000000582,
      "v": 88
    },
    {
      "midi": 38,
      "hit": false,
      "t": 134323.20000000118,
      "d": 201.60000000000582,
      "v": 80
    },
    {
      "midi": 38,
      "hit": false,
      "t": 134553.59999999998,
      "d": 403.20000000001164,
      "v": 72
    },
    {
      "midi": 57,
      "hit": false,
      "t": 134553.6000000001,
      "d": 1612.7999999999884,
      "v": 72
    },
    {
      "midi": 54,
      "hit": false,
      "t": 134553.6000000001,
      "d": 1612.7999999999884,
      "v": 72
    },
    {
      "midi": 59,
      "hit": false,
      "t": 134553.6000000003,
      "d": 403.20000000001164,
      "v": 80
    },
    {
      "midi": 55,
      "hit": false,
      "t": 134553.6000000003,
      "d": 403.20000000001164,
      "v": 80
    },
    {
      "midi": 38,
      "hit": false,
      "t": 134553.60000000033,
      "d": 604.7999999999884,
      "v": 88
    },
    {
      "midi": 50,
      "hit": false,
      "t": 134553.60000000117,
      "d": 403.20000000001164,
      "v": 80
    },
    {
      "midi": 38,
      "hit": false,
      "t": 135014.4,
      "d": 403.20000000001164,
      "v": 72
    },
    {
      "midi": 57,
      "hit": false,
      "t": 135014.4000000003,
      "d": 201.60000000000582,
      "v": 80
    },
    {
      "midi": 38,
      "hit": false,
      "t": 135014.4000000012,
      "d": 201.60000000000582,
      "v": 80
    },
    {
      "midi": 57,
      "hit": false,
      "t": 135244.8000000003,
      "d": 633.6000000000058,
      "v": 80
    },
    {
      "midi": 54,
      "hit": false,
      "t": 135244.8000000003,
      "d": 633.6000000000058,
      "v": 80
    },
    {
      "midi": 38,
      "hit": false,
      "t": 135244.8000000003,
      "d": 633.6000000000058,
      "v": 88
    },
    {
      "midi": 38,
      "hit": false,
      "t": 135244.80000000118,
      "d": 201.60000000000582,
      "v": 80
    },
    {
      "midi": 38,
      "hit": false,
      "t": 135475.2,
      "d": 403.20000000001164,
      "v": 72
    },
    {
      "midi": 50,
      "hit": false,
      "t": 135475.20000000118,
      "d": 403.20000000001164,
      "v": 80
    },
    {
      "midi": 38,
      "hit": false,
      "t": 135936.00000000003,
      "d": 403.20000000001164,
      "v": 72
    },
    {
      "midi": 38,
      "hit": false,
      "t": 135936.00000000032,
      "d": 403.20000000001164,
      "v": 88
    },
    {
      "midi": 67,
      "hit": false,
      "t": 135936.0000000004,
      "d": 403.20000000001164,
      "v": 80
    },
    {
      "midi": 62,
      "hit": false,
      "t": 135936.0000000004,
      "d": 403.20000000001164,
      "v": 80
    },
    {
      "midi": 38,
      "hit": false,
      "t": 135936.0000000012,
      "d": 96,
      "v": 80
    },
    {
      "midi": 38,
      "hit": false,
      "t": 136051.2000000012,
      "d": 96,
      "v": 80
    },
    {
      "midi": 38,
      "hit": false,
      "t": 136166.40000000122,
      "d": 96,
      "v": 80
    },
    {
      "midi": 38,
      "hit": false,
      "t": 136281.60000000123,
      "d": 96,
      "v": 80
    },
    {
      "midi": 43,
      "hit": false,
      "t": 136396.80000000005,
      "d": 403.20000000001164,
      "v": 72
    },
    {
      "midi": 59,
      "hit": false,
      "t": 136396.80000000008,
      "d": 1612.7999999999884,
      "v": 72
    },
    {
      "midi": 55,
      "hit": false,
      "t": 136396.80000000008,
      "d": 1612.7999999999884,
      "v": 72
    },
    {
      "midi": 50,
      "hit": false,
      "t": 136396.80000000008,
      "d": 1612.7999999999884,
      "v": 72
    },
    {
      "midi": 43,
      "hit": false,
      "t": 136396.80000000034,
      "d": 604.7999999999884,
      "v": 88
    },
    {
      "midi": 67,
      "hit": false,
      "t": 136396.80000000042,
      "d": 806.3999999999942,
      "v": 80
    },
    {
      "midi": 62,
      "hit": false,
      "t": 136396.80000000042,
      "d": 806.3999999999942,
      "v": 80
    },
    {
      "midi": 50,
      "hit": false,
      "t": 136396.80000000124,
      "d": 403.20000000001164,
      "v": 80
    },
    {
      "midi": 43,
      "hit": false,
      "t": 136857.60000000006,
      "d": 403.20000000001164,
      "v": 72
    },
    {
      "midi": 38,
      "hit": false,
      "t": 136857.60000000126,
      "d": 201.60000000000582,
      "v": 80
    },
    {
      "midi": 43,
      "hit": false,
      "t": 137088.00000000032,
      "d": 201.60000000000582,
      "v": 88
    },
    {
      "midi": 38,
      "hit": false,
      "t": 137088.00000000125,
      "d": 201.60000000000582,
      "v": 80
    },
    {
      "midi": 43,
      "hit": false,
      "t": 137318.40000000008,
      "d": 403.20000000001164,
      "v": 72
    },
    {
      "midi": 43,
      "hit": false,
      "t": 137318.4000000003,
      "d": 604.7999999999884,
      "v": 88
    },
    {
      "midi": 71,
      "hit": false,
      "t": 137318.40000000043,
      "d": 403.20000000001164,
      "v": 80
    },
    {
      "midi": 67,
      "hit": false,
      "t": 137318.40000000043,
      "d": 403.20000000001164,
      "v": 80
    },
    {
      "midi": 50,
      "hit": false,
      "t": 137318.40000000125,
      "d": 403.20000000001164,
      "v": 80
    },
    {
      "midi": 43,
      "hit": false,
      "t": 137779.2000000001,
      "d": 403.20000000001164,
      "v": 72
    },
    {
      "midi": 67,
      "hit": false,
      "t": 137779.20000000045,
      "d": 403.20000000001164,
      "v": 80
    },
    {
      "midi": 62,
      "hit": false,
      "t": 137779.20000000045,
      "d": 403.20000000001164,
      "v": 80
    },
    {
      "midi": 38,
      "hit": false,
      "t": 137779.20000000126,
      "d": 201.60000000000582,
      "v": 80
    },
    {
      "midi": 43,
      "hit": false,
      "t": 138009.6000000003,
      "d": 201.60000000000582,
      "v": 88
    },
    {
      "midi": 38,
      "hit": false,
      "t": 138009.60000000126,
      "d": 201.60000000000582,
      "v": 80
    },
    {
      "midi": 57,
      "hit": false,
      "t": 138240.00000000006,
      "d": 1612.7999999999884,
      "v": 72
    },
    {
      "midi": 54,
      "hit": false,
      "t": 138240.00000000006,
      "d": 1612.7999999999884,
      "v": 72
    },
    {
      "midi": 50,
      "hit": false,
      "t": 138240.00000000006,
      "d": 1612.7999999999884,
      "v": 72
    },
    {
      "midi": 42,
      "hit": false,
      "t": 138240.00000000012,
      "d": 403.20000000001164,
      "v": 72
    },
    {
      "midi": 42,
      "hit": false,
      "t": 138240.0000000003,
      "d": 604.7999999999884,
      "v": 88
    },
    {
      "midi": 66,
      "hit": false,
      "t": 138240.00000000047,
      "d": 806.3999999999942,
      "v": 80
    },
    {
      "midi": 62,
      "hit": false,
      "t": 138240.00000000047,
      "d": 806.3999999999942,
      "v": 80
    },
    {
      "midi": 50,
      "hit": false,
      "t": 138240.00000000125,
      "d": 403.20000000001164,
      "v": 80
    },
    {
      "midi": 42,
      "hit": false,
      "t": 138700.80000000013,
      "d": 403.20000000001164,
      "v": 72
    },
    {
      "midi": 38,
      "hit": false,
      "t": 138700.80000000127,
      "d": 201.60000000000582,
      "v": 80
    },
    {
      "midi": 42,
      "hit": false,
      "t": 138931.20000000027,
      "d": 201.60000000000582,
      "v": 88
    },
    {
      "midi": 38,
      "hit": false,
      "t": 138931.20000000126,
      "d": 201.60000000000582,
      "v": 80
    },
    {
      "midi": 42,
      "hit": false,
      "t": 139161.60000000015,
      "d": 403.20000000001164,
      "v": 72
    },
    {
      "midi": 42,
      "hit": false,
      "t": 139161.60000000027,
      "d": 604.7999999999884,
      "v": 88
    },
    {
      "midi": 50,
      "hit": false,
      "t": 139161.60000000126,
      "d": 403.20000000001164,
      "v": 80
    },
    {
      "midi": 42,
      "hit": false,
      "t": 139622.40000000017,
      "d": 403.20000000001164,
      "v": 72
    },
    {
      "midi": 66,
      "hit": false,
      "t": 139622.40000000046,
      "d": 403.20000000001164,
      "v": 80
    },
    {
      "midi": 62,
      "hit": false,
      "t": 139622.40000000046,
      "d": 403.20000000001164,
      "v": 80
    },
    {
      "midi": 38,
      "hit": false,
      "t": 139622.40000000127,
      "d": 201.60000000000582,
      "v": 80
    },
    {
      "midi": 42,
      "hit": false,
      "t": 139852.80000000025,
      "d": 201.60000000000582,
      "v": 88
    },
    {
      "midi": 38,
      "hit": false,
      "t": 139852.80000000127,
      "d": 201.60000000000582,
      "v": 80
    },
    {
      "midi": 59,
      "hit": false,
      "t": 140083.20000000004,
      "d": 1612.7999999999884,
      "v": 72
    },
    {
      "midi": 55,
      "hit": false,
      "t": 140083.20000000004,
      "d": 1612.7999999999884,
      "v": 72
    },
    {
      "midi": 50,
      "hit": false,
      "t": 140083.20000000004,
      "d": 1612.7999999999884,
      "v": 72
    },
    {
      "midi": 40,
      "hit": false,
      "t": 140083.2000000002,
      "d": 403.20000000001164,
      "v": 72
    },
    {
      "midi": 40,
      "hit": false,
      "t": 140083.20000000024,
      "d": 604.7999999999884,
      "v": 88
    },
    {
      "midi": 71,
      "hit": false,
      "t": 140083.20000000048,
      "d": 806.3999999999942,
      "v": 80
    },
    {
      "midi": 67,
      "hit": false,
      "t": 140083.20000000048,
      "d": 806.3999999999942,
      "v": 80
    },
    {
      "midi": 50,
      "hit": false,
      "t": 140083.20000000126,
      "d": 403.20000000001164,
      "v": 80
    },
    {
      "midi": 40,
      "hit": false,
      "t": 140544.0000000002,
      "d": 403.20000000001164,
      "v": 72
    },
    {
      "midi": 38,
      "hit": false,
      "t": 140544.00000000128,
      "d": 201.60000000000582,
      "v": 80
    },
    {
      "midi": 40,
      "hit": false,
      "t": 140774.40000000023,
      "d": 201.60000000000582,
      "v": 88
    },
    {
      "midi": 38,
      "hit": false,
      "t": 140774.40000000127,
      "d": 201.60000000000582,
      "v": 80
    },
    {
      "midi": 40,
      "hit": false,
      "t": 141004.80000000022,
      "d": 604.7999999999884,
      "v": 88
    },
    {
      "midi": 40,
      "hit": false,
      "t": 141004.80000000022,
      "d": 403.20000000001164,
      "v": 72
    },
    {
      "midi": 69,
      "hit": false,
      "t": 141004.80000000048,
      "d": 403.20000000001164,
      "v": 80
    },
    {
      "midi": 66,
      "hit": false,
      "t": 141004.80000000048,
      "d": 403.20000000001164,
      "v": 80
    },
    {
      "midi": 50,
      "hit": false,
      "t": 141004.80000000127,
      "d": 403.20000000001164,
      "v": 80
    },
    {
      "midi": 40,
      "hit": false,
      "t": 141465.60000000024,
      "d": 403.20000000001164,
      "v": 72
    },
    {
      "midi": 67,
      "hit": false,
      "t": 141465.6000000005,
      "d": 403.20000000001164,
      "v": 80
    },
    {
      "midi": 64,
      "hit": false,
      "t": 141465.6000000005,
      "d": 403.20000000001164,
      "v": 80
    },
    {
      "midi": 38,
      "hit": false,
      "t": 141465.6000000013,
      "d": 201.60000000000582,
      "v": 80
    },
    {
      "midi": 40,
      "hit": false,
      "t": 141696.0000000002,
      "d": 201.60000000000582,
      "v": 88
    },
    {
      "midi": 38,
      "hit": false,
      "t": 141696.00000000128,
      "d": 201.60000000000582,
      "v": 80
    },
    {
      "midi": 59,
      "hit": false,
      "t": 141926.40000000002,
      "d": 1612.7999999999884,
      "v": 72
    },
    {
      "midi": 54,
      "hit": false,
      "t": 141926.40000000002,
      "d": 1612.7999999999884,
      "v": 72
    },
    {
      "midi": 50,
      "hit": false,
      "t": 141926.40000000002,
      "d": 1612.7999999999884,
      "v": 72
    },
    {
      "midi": 38,
      "hit": false,
      "t": 141926.4000000002,
      "d": 604.7999999999884,
      "v": 88
    },
    {
      "midi": 38,
      "hit": false,
      "t": 141926.40000000026,
      "d": 403.20000000001164,
      "v": 72
    },
    {
      "midi": 66,
      "hit": false,
      "t": 141926.40000000052,
      "d": 806.3999999999942,
      "v": 80
    },
    {
      "midi": 62,
      "hit": false,
      "t": 141926.40000000052,
      "d": 806.3999999999942,
      "v": 80
    },
    {
      "midi": 50,
      "hit": false,
      "t": 141926.40000000127,
      "d": 403.20000000001164,
      "v": 80
    },
    {
      "midi": 38,
      "hit": false,
      "t": 142387.20000000027,
      "d": 403.20000000001164,
      "v": 72
    },
    {
      "midi": 71,
      "hit": false,
      "t": 142387.2000000003,
      "d": 403.20000000001164,
      "v": 80
    },
    {
      "midi": 38,
      "hit": false,
      "t": 142387.2000000013,
      "d": 201.60000000000582,
      "v": 80
    },
    {
      "midi": 38,
      "hit": false,
      "t": 142617.60000000018,
      "d": 201.60000000000582,
      "v": 88
    },
    {
      "midi": 38,
      "hit": false,
      "t": 142617.6000000013,
      "d": 201.60000000000582,
      "v": 80
    },
    {
      "midi": 38,
      "hit": false,
      "t": 142848.00000000017,
      "d": 604.7999999999884,
      "v": 88
    },
    {
      "midi": 38,
      "hit": false,
      "t": 142848.0000000003,
      "d": 403.20000000001164,
      "v": 72
    },
    {
      "midi": 66,
      "hit": false,
      "t": 142848.00000000032,
      "d": 403.20000000001164,
      "v": 80
    },
    {
      "midi": 50,
      "hit": false,
      "t": 142848.00000000128,
      "d": 403.20000000001164,
      "v": 80
    },
    {
      "midi": 38,
      "hit": false,
      "t": 143308.8000000003,
      "d": 403.20000000001164,
      "v": 72
    },
    {
      "midi": 62,
      "hit": false,
      "t": 143308.80000000034,
      "d": 403.20000000001164,
      "v": 80
    },
    {
      "midi": 38,
      "hit": false,
      "t": 143308.8000000013,
      "d": 201.60000000000582,
      "v": 80
    },
    {
      "midi": 38,
      "hit": false,
      "t": 143539.20000000016,
      "d": 201.60000000000582,
      "v": 88
    },
    {
      "midi": 38,
      "hit": false,
      "t": 143539.2000000013,
      "d": 201.60000000000582,
      "v": 80
    },
    {
      "midi": 60,
      "hit": false,
      "t": 143769.6,
      "d": 1612.7999999999884,
      "v": 72
    },
    {
      "midi": 55,
      "hit": false,
      "t": 143769.6,
      "d": 1612.7999999999884,
      "v": 72
    },
    {
      "midi": 52,
      "hit": false,
      "t": 143769.6,
      "d": 1612.7999999999884,
      "v": 72
    },
    {
      "midi": 33,
      "hit": false,
      "t": 143769.60000000015,
      "d": 604.7999999999884,
      "v": 88
    },
    {
      "midi": 45,
      "hit": false,
      "t": 143769.60000000033,
      "d": 403.20000000001164,
      "v": 72
    },
    {
      "midi": 64,
      "hit": false,
      "t": 143769.60000000036,
      "d": 403.20000000001164,
      "v": 80
    },
    {
      "midi": 60,
      "hit": false,
      "t": 143769.60000000036,
      "d": 403.20000000001164,
      "v": 80
    },
    {
      "midi": 50,
      "hit": false,
      "t": 143769.6000000013,
      "d": 403.20000000001164,
      "v": 80
    },
    {
      "midi": 45,
      "hit": false,
      "t": 144230.40000000034,
      "d": 403.20000000001164,
      "v": 72
    },
    {
      "midi": 67,
      "hit": false,
      "t": 144230.40000000052,
      "d": 403.20000000001164,
      "v": 80
    },
    {
      "midi": 64,
      "hit": false,
      "t": 144230.40000000052,
      "d": 403.20000000001164,
      "v": 80
    },
    {
      "midi": 38,
      "hit": false,
      "t": 144230.4000000013,
      "d": 201.60000000000582,
      "v": 80
    },
    {
      "midi": 33,
      "hit": false,
      "t": 144460.80000000013,
      "d": 201.60000000000582,
      "v": 88
    },
    {
      "midi": 38,
      "hit": false,
      "t": 144460.8000000013,
      "d": 201.60000000000582,
      "v": 80
    },
    {
      "midi": 33,
      "hit": false,
      "t": 144691.20000000013,
      "d": 604.7999999999884,
      "v": 88
    },
    {
      "midi": 45,
      "hit": false,
      "t": 144691.20000000036,
      "d": 403.20000000001164,
      "v": 72
    },
    {
      "midi": 67,
      "hit": false,
      "t": 144691.20000000054,
      "d": 403.20000000001164,
      "v": 80
    },
    {
      "midi": 64,
      "hit": false,
      "t": 144691.20000000054,
      "d": 403.20000000001164,
      "v": 80
    },
    {
      "midi": 50,
      "hit": false,
      "t": 144691.2000000013,
      "d": 403.20000000001164,
      "v": 80
    },
    {
      "midi": 45,
      "hit": false,
      "t": 145152.00000000038,
      "d": 403.20000000001164,
      "v": 72
    },
    {
      "midi": 67,
      "hit": false,
      "t": 145152.00000000055,
      "d": 403.20000000001164,
      "v": 80
    },
    {
      "midi": 64,
      "hit": false,
      "t": 145152.00000000055,
      "d": 403.20000000001164,
      "v": 80
    },
    {
      "midi": 38,
      "hit": false,
      "t": 145152.0000000013,
      "d": 201.60000000000582,
      "v": 80
    },
    {
      "midi": 33,
      "hit": false,
      "t": 145382.4000000001,
      "d": 201.60000000000582,
      "v": 88
    },
    {
      "midi": 38,
      "hit": false,
      "t": 145382.4000000013,
      "d": 201.60000000000582,
      "v": 80
    },
    {
      "midi": 62,
      "hit": false,
      "t": 145612.8,
      "d": 1612.7999999999884,
      "v": 72
    },
    {
      "midi": 57,
      "hit": false,
      "t": 145612.8,
      "d": 1612.7999999999884,
      "v": 72
    },
    {
      "midi": 54,
      "hit": false,
      "t": 145612.8,
      "d": 1612.7999999999884,
      "v": 72
    },
    {
      "midi": 38,
      "hit": false,
      "t": 145612.8000000001,
      "d": 604.7999999999884,
      "v": 88
    },
    {
      "midi": 38,
      "hit": false,
      "t": 145612.8000000004,
      "d": 403.20000000001164,
      "v": 72
    },
    {
      "midi": 69,
      "hit": false,
      "t": 145612.80000000057,
      "d": 403.20000000001164,
      "v": 80
    },
    {
      "midi": 66,
      "hit": false,
      "t": 145612.80000000057,
      "d": 403.20000000001164,
      "v": 80
    },
    {
      "midi": 50,
      "hit": false,
      "t": 145612.8000000013,
      "d": 403.20000000001164,
      "v": 80
    },
    {
      "midi": 38,
      "hit": false,
      "t": 146073.6000000004,
      "d": 403.20000000001164,
      "v": 72
    },
    {
      "midi": 67,
      "hit": false,
      "t": 146073.6000000006,
      "d": 201.60000000000582,
      "v": 80
    },
    {
      "midi": 64,
      "hit": false,
      "t": 146073.6000000006,
      "d": 201.60000000000582,
      "v": 80
    },
    {
      "midi": 38,
      "hit": false,
      "t": 146073.60000000132,
      "d": 201.60000000000582,
      "v": 80
    },
    {
      "midi": 38,
      "hit": false,
      "t": 146304.0000000001,
      "d": 201.60000000000582,
      "v": 88
    },
    {
      "midi": 66,
      "hit": false,
      "t": 146304.00000000058,
      "d": 633.6000000000058,
      "v": 80
    },
    {
      "midi": 62,
      "hit": false,
      "t": 146304.00000000058,
      "d": 633.6000000000058,
      "v": 80
    },
    {
      "midi": 38,
      "hit": false,
      "t": 146304.0000000013,
      "d": 201.60000000000582,
      "v": 80
    },
    {
      "midi": 38,
      "hit": false,
      "t": 146534.40000000008,
      "d": 604.7999999999884,
      "v": 88
    },
    {
      "midi": 38,
      "hit": false,
      "t": 146534.40000000043,
      "d": 403.20000000001164,
      "v": 72
    },
    {
      "midi": 50,
      "hit": false,
      "t": 146534.4000000013,
      "d": 403.20000000001164,
      "v": 80
    },
    {
      "midi": 38,
      "hit": false,
      "t": 146995.20000000045,
      "d": 403.20000000001164,
      "v": 72
    },
    {
      "midi": 69,
      "hit": false,
      "t": 146995.2000000006,
      "d": 403.20000000001164,
      "v": 80
    },
    {
      "midi": 66,
      "hit": false,
      "t": 146995.2000000006,
      "d": 403.20000000001164,
      "v": 80
    },
    {
      "midi": 38,
      "hit": false,
      "t": 146995.20000000132,
      "d": 201.60000000000582,
      "v": 80
    },
    {
      "midi": 38,
      "hit": false,
      "t": 147225.60000000006,
      "d": 201.60000000000582,
      "v": 88
    },
    {
      "midi": 38,
      "hit": false,
      "t": 147225.60000000132,
      "d": 201.60000000000582,
      "v": 80
    },
    {
      "midi": 64,
      "hit": false,
      "t": 147455.99999999997,
      "d": 604.7999999999884,
      "v": 72
    },
    {
      "midi": 60,
      "hit": false,
      "t": 147455.99999999997,
      "d": 604.7999999999884,
      "v": 72
    },
    {
      "midi": 55,
      "hit": false,
      "t": 147455.99999999997,
      "d": 604.7999999999884,
      "v": 72
    },
    {
      "midi": 48,
      "hit": false,
      "t": 147456.00000000006,
      "d": 604.7999999999884,
      "v": 88
    },
    {
      "midi": 36,
      "hit": false,
      "t": 147456.00000000006,
      "d": 604.7999999999884,
      "v": 88
    },
    {
      "midi": 67,
      "hit": false,
      "t": 147456.00000000038,
      "d": 201.60000000000582,
      "v": 80
    },
    {
      "midi": 64,
      "hit": false,
      "t": 147456.00000000038,
      "d": 201.60000000000582,
      "v": 80
    },
    {
      "midi": 36,
      "hit": false,
      "t": 147456.00000000047,
      "d": 403.20000000001164,
      "v": 72
    },
    {
      "midi": 67,
      "hit": false,
      "t": 147456.0000000006,
      "d": 806.3999999999942,
      "v": 80
    },
    {
      "midi": 64,
      "hit": false,
      "t": 147456.0000000006,
      "d": 806.3999999999942,
      "v": 80
    },
    {
      "midi": 50,
      "hit": false,
      "t": 147456.0000000013,
      "d": 403.20000000001164,
      "v": 80
    },
    {
      "midi": 66,
      "hit": false,
      "t": 147686.40000000037,
      "d": 201.60000000000582,
      "v": 80
    },
    {
      "midi": 67,
      "hit": false,
      "t": 147916.80000000037,
      "d": 201.60000000000582,
      "v": 80
    },
    {
      "midi": 48,
      "hit": false,
      "t": 147916.80000000048,
      "d": 201.60000000000582,
      "v": 72
    },
    {
      "midi": 38,
      "hit": false,
      "t": 147916.80000000133,
      "d": 201.60000000000582,
      "v": 80
    },
    {
      "midi": 62,
      "hit": false,
      "t": 148147.19999999995,
      "d": 201.60000000000582,
      "v": 72
    },
    {
      "midi": 59,
      "hit": false,
      "t": 148147.19999999995,
      "d": 1036.7999999999884,
      "v": 72
    },
    {
      "midi": 55,
      "hit": false,
      "t": 148147.19999999995,
      "d": 1036.7999999999884,
      "v": 72
    },
    {
      "midi": 47,
      "hit": false,
      "t": 148147.20000000004,
      "d": 201.60000000000582,
      "v": 88
    },
    {
      "midi": 35,
      "hit": false,
      "t": 148147.20000000004,
      "d": 1036.7999999999884,
      "v": 88
    },
    {
      "midi": 62,
      "hit": false,
      "t": 148147.20000000036,
      "d": 432,
      "v": 88
    },
    {
      "midi": 59,
      "hit": false,
      "t": 148147.20000000036,
      "d": 432,
      "v": 88
    },
    {
      "midi": 47,
      "hit": false,
      "t": 148147.20000000048,
      "d": 1036.7999999999884,
      "v": 72
    },
    {
      "midi": 38,
      "hit": false,
      "t": 148147.20000000132,
      "d": 201.60000000000582,
      "v": 80
    },
    {
      "midi": 62,
      "hit": false,
      "t": 148377.59999999995,
      "d": 806.3999999999942,
      "v": 72
    },
    {
      "midi": 47,
      "hit": false,
      "t": 148377.60000000003,
      "d": 806.3999999999942,
      "v": 88
    },
    {
      "midi": 50,
      "hit": false,
      "t": 148377.60000000132,
      "d": 403.20000000001164,
      "v": 80
    },
    {
      "midi": 67,
      "hit": false,
      "t": 148608.00000000035,
      "d": 201.60000000000582,
      "v": 80
    },
    {
      "midi": 66,
      "hit": false,
      "t": 148838.40000000034,
      "d": 201.60000000000582,
      "v": 80
    },
    {
      "midi": 38,
      "hit": false,
      "t": 148838.40000000133,
      "d": 201.60000000000582,
      "v": 80
    },
    {
      "midi": 67,
      "hit": false,
      "t": 149068.80000000034,
      "d": 201.60000000000582,
      "v": 80
    },
    {
      "midi": 38,
      "hit": false,
      "t": 149068.80000000133,
      "d": 201.60000000000582,
      "v": 80
    },
    {
      "midi": 60,
      "hit": false,
      "t": 149299.19999999995,
      "d": 604.7999999999884,
      "v": 72
    },
    {
      "midi": 57,
      "hit": false,
      "t": 149299.19999999995,
      "d": 604.7999999999884,
      "v": 72
    },
    {
      "midi": 45,
      "hit": false,
      "t": 149299.20000000004,
      "d": 604.7999999999884,
      "v": 88
    },
    {
      "midi": 33,
      "hit": false,
      "t": 149299.20000000004,
      "d": 604.7999999999884,
      "v": 88
    },
    {
      "midi": 72,
      "hit": false,
      "t": 149299.20000000033,
      "d": 201.60000000000582,
      "v": 80
    },
    {
      "midi": 69,
      "hit": false,
      "t": 149299.20000000033,
      "d": 201.60000000000582,
      "v": 80
    },
    {
      "midi": 64,
      "hit": false,
      "t": 149299.20000000033,
      "d": 201.60000000000582,
      "v": 80
    },
    {
      "midi": 45,
      "hit": false,
      "t": 149299.20000000048,
      "d": 403.20000000001164,
      "v": 72
    },
    {
      "midi": 50,
      "hit": false,
      "t": 149299.20000000132,
      "d": 403.20000000001164,
      "v": 80
    },
    {
      "midi": 71,
      "hit": false,
      "t": 149529.60000000033,
      "d": 201.60000000000582,
      "v": 80
    },
    {
      "midi": 69,
      "hit": false,
      "t": 149760.00000000032,
      "d": 201.60000000000582,
      "v": 80
    },
    {
      "midi": 45,
      "hit": false,
      "t": 149760.0000000005,
      "d": 201.60000000000582,
      "v": 72
    },
    {
      "midi": 38,
      "hit": false,
      "t": 149760.00000000134,
      "d": 201.60000000000582,
      "v": 80
    },
    {
      "midi": 59,
      "hit": false,
      "t": 149990.39999999994,
      "d": 201.60000000000582,
      "v": 72
    },
    {
      "midi": 55,
      "hit": false,
      "t": 149990.39999999994,
      "d": 1036.7999999999884,
      "v": 72
    },
    {
      "midi": 53,
      "hit": false,
      "t": 149990.39999999994,
      "d": 1036.7999999999884,
      "v": 72
    },
    {
      "midi": 43,
      "hit": false,
      "t": 149990.40000000002,
      "d": 201.60000000000582,
      "v": 88
    },
    {
      "midi": 31,
      "hit": false,
      "t": 149990.40000000002,
      "d": 201.60000000000582,
      "v": 88
    },
    {
      "midi": 71,
      "hit": false,
      "t": 149990.4000000003,
      "d": 1036.7999999999884,
      "v": 88
    },
    {
      "midi": 67,
      "hit": false,
      "t": 149990.4000000003,
      "d": 1036.7999999999884,
      "v": 88
    },
    {
      "midi": 62,
      "hit": false,
      "t": 149990.4000000003,
      "d": 1036.7999999999884,
      "v": 88
    },
    {
      "midi": 43,
      "hit": false,
      "t": 149990.4000000005,
      "d": 633.6000000000058,
      "v": 72
    },
    {
      "midi": 38,
      "hit": false,
      "t": 149990.40000000133,
      "d": 201.60000000000582,
      "v": 80
    },
    {
      "midi": 59,
      "hit": false,
      "t": 150220.79999999993,
      "d": 806.3999999999942,
      "v": 72
    },
    {
      "midi": 43,
      "hit": false,
      "t": 150220.80000000002,
      "d": 201.60000000000582,
      "v": 88
    },
    {
      "midi": 31,
      "hit": false,
      "t": 150220.80000000002,
      "d": 201.60000000000582,
      "v": 88
    },
    {
      "midi": 50,
      "hit": false,
      "t": 150220.80000000133,
      "d": 403.20000000001164,
      "v": 80
    },
    {
      "midi": 45,
      "hit": false,
      "t": 150451.2,
      "d": 201.60000000000582,
      "v": 88
    },
    {
      "midi": 47,
      "hit": false,
      "t": 150681.6,
      "d": 403.20000000001164,
      "v": 88
    },
    {
      "midi": 38,
      "hit": false,
      "t": 150681.60000000134,
      "d": 96,
      "v": 80
    },
    {
      "midi": 38,
      "hit": false,
      "t": 150796.80000000136,
      "d": 96,
      "v": 80
    },
    {
      "midi": 38,
      "hit": false,
      "t": 150912.00000000137,
      "d": 96,
      "v": 80
    },
    {
      "midi": 38,
      "hit": false,
      "t": 151027.20000000138,
      "d": 96,
      "v": 80
    },
    {
      "midi": 64,
      "hit": false,
      "t": 151142.39999999994,
      "d": 1612.7999999999884,
      "v": 72
    },
    {
      "midi": 60,
      "hit": false,
      "t": 151142.39999999994,
      "d": 1612.7999999999884,
      "v": 72
    },
    {
      "midi": 55,
      "hit": false,
      "t": 151142.39999999994,
      "d": 1612.7999999999884,
      "v": 72
    },
    {
      "midi": 48,
      "hit": false,
      "t": 151142.40000000002,
      "d": 604.7999999999884,
      "v": 88
    },
    {
      "midi": 48,
      "hit": false,
      "t": 151142.4000000005,
      "d": 403.20000000001164,
      "v": 72
    },
    {
      "midi": 67,
      "hit": false,
      "t": 151142.4000000006,
      "d": 1612.7999999999884,
      "v": 80
    },
    {
      "midi": 50,
      "hit": false,
      "t": 151142.4000000014,
      "d": 403.20000000001164,
      "v": 80
    },
    {
      "midi": 64,
      "hit": false,
      "t": 151603.2000000003,
      "d": 403.20000000001164,
      "v": 80
    },
    {
      "midi": 48,
      "hit": false,
      "t": 151833.6,
      "d": 201.60000000000582,
      "v": 88
    },
    {
      "midi": 48,
      "hit": false,
      "t": 151833.6000000005,
      "d": 201.60000000000582,
      "v": 72
    },
    {
      "midi": 50,
      "hit": false,
      "t": 151833.6000000014,
      "d": 201.60000000000582,
      "v": 80
    },
    {
      "midi": 48,
      "hit": false,
      "t": 152064,
      "d": 806.3999999999942,
      "v": 88
    },
    {
      "midi": 62,
      "hit": false,
      "t": 152064.00000000032,
      "d": 403.20000000001164,
      "v": 80
    },
    {
      "midi": 48,
      "hit": false,
      "t": 152064.0000000005,
      "d": 403.20000000001164,
      "v": 72
    },
    {
      "midi": 38,
      "hit": false,
      "t": 152064.0000000014,
      "d": 403.20000000001164,
      "v": 80
    },
    {
      "midi": 60,
      "hit": false,
      "t": 152524.80000000034,
      "d": 403.20000000001164,
      "v": 80
    },
    {
      "midi": 41,
      "hit": false,
      "t": 152524.8000000014,
      "d": 201.60000000000582,
      "v": 80
    },
    {
      "midi": 41,
      "hit": false,
      "t": 152755.2000000014,
      "d": 201.60000000000582,
      "v": 80
    },
    {
      "midi": 62,
      "hit": false,
      "t": 152985.59999999992,
      "d": 1612.7999999999884,
      "v": 72
    },
    {
      "midi": 60,
      "hit": false,
      "t": 152985.59999999992,
      "d": 1612.7999999999884,
      "v": 72
    },
    {
      "midi": 54,
      "hit": false,
      "t": 152985.59999999992,
      "d": 1612.7999999999884,
      "v": 72
    },
    {
      "midi": 48,
      "hit": false,
      "t": 152985.6,
      "d": 604.7999999999884,
      "v": 88
    },
    {
      "midi": 59,
      "hit": false,
      "t": 152985.60000000036,
      "d": 201.60000000000582,
      "v": 80
    },
    {
      "midi": 48,
      "hit": false,
      "t": 152985.6000000005,
      "d": 403.20000000001164,
      "v": 72
    },
    {
      "midi": 66,
      "hit": false,
      "t": 152985.6000000006,
      "d": 403.20000000001164,
      "v": 80
    },
    {
      "midi": 62,
      "hit": false,
      "t": 152985.6000000006,
      "d": 403.20000000001164,
      "v": 80
    },
    {
      "midi": 50,
      "hit": false,
      "t": 152985.6000000014,
      "d": 403.20000000001164,
      "v": 80
    },
    {
      "midi": 57,
      "hit": false,
      "t": 153216.00000000035,
      "d": 201.60000000000582,
      "v": 80
    },
    {
      "midi": 48,
      "hit": false,
      "t": 153676.8,
      "d": 201.60000000000582,
      "v": 88
    },
    {
      "midi": 57,
      "hit": false,
      "t": 153676.80000000037,
      "d": 633.6000000000058,
      "v": 80
    },
    {
      "midi": 48,
      "hit": false,
      "t": 153676.8000000005,
      "d": 201.60000000000582,
      "v": 72
    },
    {
      "midi": 66,
      "hit": false,
      "t": 153676.8000000006,
      "d": 633.6000000000058,
      "v": 80
    },
    {
      "midi": 62,
      "hit": false,
      "t": 153676.8000000006,
      "d": 633.6000000000058,
      "v": 80
    },
    {
      "midi": 50,
      "hit": false,
      "t": 153676.8000000014,
      "d": 201.60000000000582,
      "v": 80
    },
    {
      "midi": 48,
      "hit": false,
      "t": 153907.19999999998,
      "d": 806.3999999999942,
      "v": 88
    },
    {
      "midi": 48,
      "hit": false,
      "t": 153907.2000000005,
      "d": 403.20000000001164,
      "v": 72
    },
    {
      "midi": 38,
      "hit": false,
      "t": 153907.2000000014,
      "d": 403.20000000001164,
      "v": 80
    },
    {
      "midi": 66,
      "hit": false,
      "t": 154368.0000000006,
      "d": 403.20000000001164,
      "v": 80
    },
    {
      "midi": 41,
      "hit": false,
      "t": 154368.00000000143,
      "d": 201.60000000000582,
      "v": 80
    },
    {
      "midi": 41,
      "hit": false,
      "t": 154598.40000000142,
      "d": 201.60000000000582,
      "v": 80
    },
    {
      "midi": 63,
      "hit": false,
      "t": 154828.7999999999,
      "d": 1612.7999999999884,
      "v": 72
    },
    {
      "midi": 57,
      "hit": false,
      "t": 154828.7999999999,
      "d": 1612.7999999999884,
      "v": 72
    },
    {
      "midi": 54,
      "hit": false,
      "t": 154828.7999999999,
      "d": 1612.7999999999884,
      "v": 72
    },
    {
      "midi": 47,
      "hit": false,
      "t": 154828.8,
      "d": 604.7999999999884,
      "v": 88
    },
    {
      "midi": 63,
      "hit": false,
      "t": 154828.80000000037,
      "d": 806.3999999999942,
      "v": 80
    },
    {
      "midi": 47,
      "hit": false,
      "t": 154828.8000000005,
      "d": 403.20000000001164,
      "v": 72
    },
    {
      "midi": 66,
      "hit": false,
      "t": 154828.80000000063,
      "d": 403.20000000001164,
      "v": 80
    },
    {
      "midi": 50,
      "hit": false,
      "t": 154828.8000000014,
      "d": 403.20000000001164,
      "v": 80
    },
    {
      "midi": 66,
      "hit": false,
      "t": 155289.60000000065,
      "d": 403.20000000001164,
      "v": 80
    },
    {
      "midi": 47,
      "hit": false,
      "t": 155519.99999999997,
      "d": 201.60000000000582,
      "v": 88
    },
    {
      "midi": 47,
      "hit": false,
      "t": 155520.00000000052,
      "d": 201.60000000000582,
      "v": 72
    },
    {
      "midi": 50,
      "hit": false,
      "t": 155520.00000000143,
      "d": 201.60000000000582,
      "v": 80
    },
    {
      "midi": 47,
      "hit": false,
      "t": 155750.39999999997,
      "d": 806.3999999999942,
      "v": 88
    },
    {
      "midi": 69,
      "hit": false,
      "t": 155750.40000000037,
      "d": 806.3999999999942,
      "v": 80
    },
    {
      "midi": 47,
      "hit": false,
      "t": 155750.40000000052,
      "d": 403.20000000001164,
      "v": 72
    },
    {
      "midi": 64,
      "hit": false,
      "t": 155750.40000000066,
      "d": 403.20000000001164,
      "v": 80
    },
    {
      "midi": 38,
      "hit": false,
      "t": 155750.40000000142,
      "d": 403.20000000001164,
      "v": 80
    },
    {
      "midi": 66,
      "hit": false,
      "t": 156211.20000000068,
      "d": 403.20000000001164,
      "v": 80
    },
    {
      "midi": 41,
      "hit": false,
      "t": 156211.20000000144,
      "d": 201.60000000000582,
      "v": 80
    },
    {
      "midi": 41,
      "hit": false,
      "t": 156441.60000000143,
      "d": 201.60000000000582,
      "v": 80
    },
    {
      "midi": 64,
      "hit": false,
      "t": 156671.99999999988,
      "d": 1612.7999999999884,
      "v": 72
    },
    {
      "midi": 59,
      "hit": false,
      "t": 156671.99999999988,
      "d": 1612.7999999999884,
      "v": 72
    },
    {
      "midi": 55,
      "hit": false,
      "t": 156671.99999999988,
      "d": 1612.7999999999884,
      "v": 72
    },
    {
      "midi": 40,
      "hit": false,
      "t": 156671.99999999997,
      "d": 604.7999999999884,
      "v": 88
    },
    {
      "midi": 67,
      "hit": false,
      "t": 156672.00000000038,
      "d": 403.20000000001164,
      "v": 80
    },
    {
      "midi": 40,
      "hit": false,
      "t": 156672.00000000052,
      "d": 403.20000000001164,
      "v": 72
    },
    {
      "midi": 67,
      "hit": false,
      "t": 156672.0000000007,
      "d": 201.60000000000582,
      "v": 80
    },
    {
      "midi": 50,
      "hit": false,
      "t": 156672.00000000143,
      "d": 403.20000000001164,
      "v": 80
    },
    {
      "midi": 64,
      "hit": false,
      "t": 156902.4000000007,
      "d": 201.60000000000582,
      "v": 80
    },
    {
      "midi": 40,
      "hit": false,
      "t": 157363.19999999995,
      "d": 201.60000000000582,
      "v": 88
    },
    {
      "midi": 59,
      "hit": false,
      "t": 157363.2000000004,
      "d": 1036.7999999999884,
      "v": 80
    },
    {
      "midi": 40,
      "hit": false,
      "t": 157363.20000000054,
      "d": 201.60000000000582,
      "v": 72
    },
    {
      "midi": 67,
      "hit": false,
      "t": 157363.2000000007,
      "d": 1036.7999999999884,
      "v": 80
    },
    {
      "midi": 64,
      "hit": false,
      "t": 157363.2000000007,
      "d": 1036.7999999999884,
      "v": 80
    },
    {
      "midi": 50,
      "hit": false,
      "t": 157363.20000000144,
      "d": 201.60000000000582,
      "v": 80
    },
    {
      "midi": 52,
      "hit": false,
      "t": 157593.59999999995,
      "d": 403.20000000001164,
      "v": 88
    },
    {
      "midi": 40,
      "hit": false,
      "t": 157593.60000000053,
      "d": 403.20000000001164,
      "v": 72
    },
    {
      "midi": 38,
      "hit": false,
      "t": 157593.60000000143,
      "d": 403.20000000001164,
      "v": 80
    },
    {
      "midi": 50,
      "hit": false,
      "t": 158054.39999999997,
      "d": 403.20000000001164,
      "v": 88
    },
    {
      "midi": 41,
      "hit": false,
      "t": 158054.40000000145,
      "d": 201.60000000000582,
      "v": 80
    },
    {
      "midi": 41,
      "hit": false,
      "t": 158284.80000000144,
      "d": 201.60000000000582,
      "v": 80
    },
    {
      "midi": 61,
      "hit": false,
      "t": 158515.19999999987,
      "d": 1852.8000000000175,
      "v": 72
    },
    {
      "midi": 64,
      "hit": false,
      "t": 158515.19999999987,
      "d": 3456.000000000029,
      "v": 72
    },
    {
      "midi": 57,
      "hit": false,
      "t": 158515.19999999987,
      "d": 3456.000000000029,
      "v": 72
    },
    {
      "midi": 49,
      "hit": false,
      "t": 158515.19999999998,
      "d": 604.7999999999884,
      "v": 88
    },
    {
      "midi": 37,
      "hit": false,
      "t": 158515.20000000054,
      "d": 403.20000000001164,
      "v": 72
    },
    {
      "midi": 50,
      "hit": false,
      "t": 158515.20000000144,
      "d": 403.20000000001164,
      "v": 80
    },
    {
      "midi": 64,
      "hit": false,
      "t": 158976.0000000007,
      "d": 201.60000000000582,
      "v": 80
    },
    {
      "midi": 60,
      "hit": false,
      "t": 158976.0000000007,
      "d": 201.60000000000582,
      "v": 80
    },
    {
      "midi": 49,
      "hit": false,
      "t": 159206.39999999997,
      "d": 201.60000000000582,
      "v": 88
    },
    {
      "midi": 37,
      "hit": false,
      "t": 159206.40000000055,
      "d": 201.60000000000582,
      "v": 72
    },
    {
      "midi": 64,
      "hit": false,
      "t": 159206.4000000007,
      "d": 201.60000000000582,
      "v": 80
    },
    {
      "midi": 60,
      "hit": false,
      "t": 159206.4000000007,
      "d": 201.60000000000582,
      "v": 80
    },
    {
      "midi": 50,
      "hit": false,
      "t": 159206.40000000145,
      "d": 201.60000000000582,
      "v": 80
    },
    {
      "midi": 49,
      "hit": false,
      "t": 159436.79999999996,
      "d": 806.3999999999942,
      "v": 88
    },
    {
      "midi": 37,
      "hit": false,
      "t": 159436.80000000054,
      "d": 403.20000000001164,
      "v": 72
    },
    {
      "midi": 64,
      "hit": false,
      "t": 159436.8000000007,
      "d": 403.20000000001164,
      "v": 80
    },
    {
      "midi": 60,
      "hit": false,
      "t": 159436.8000000007,
      "d": 403.20000000001164,
      "v": 80
    },
    {
      "midi": 38,
      "hit": false,
      "t": 159436.80000000144,
      "d": 403.20000000001164,
      "v": 80
    },
    {
      "midi": 41,
      "hit": false,
      "t": 159897.60000000146,
      "d": 201.60000000000582,
      "v": 80
    },
    {
      "midi": 64,
      "hit": false,
      "t": 160128.0000000007,
      "d": 201.60000000000582,
      "v": 80
    },
    {
      "midi": 60,
      "hit": false,
      "t": 160128.0000000007,
      "d": 201.60000000000582,
      "v": 80
    },
    {
      "midi": 41,
      "hit": false,
      "t": 160128.00000000146,
      "d": 201.60000000000582,
      "v": 80
    },
    {
      "midi": 60,
      "hit": false,
      "t": 160358.39999999988,
      "d": 1612.8000000000175,
      "v": 72
    },
    {
      "midi": 45,
      "hit": false,
      "t": 160358.39999999997,
      "d": 604.7999999999884,
      "v": 88
    },
    {
      "midi": 37,
      "hit": false,
      "t": 160358.40000000055,
      "d": 403.20000000001164,
      "v": 72
    },
    {
      "midi": 69,
      "hit": false,
      "t": 160358.4000000007,
      "d": 403.20000000001164,
      "v": 80
    },
    {
      "midi": 64,
      "hit": false,
      "t": 160358.4000000007,
      "d": 403.20000000001164,
      "v": 80
    },
    {
      "midi": 50,
      "hit": false,
      "t": 160358.40000000145,
      "d": 403.20000000001164,
      "v": 80
    },
    {
      "midi": 64,
      "hit": false,
      "t": 160819.2000000007,
      "d": 403.20000000001164,
      "v": 80
    },
    {
      "midi": 45,
      "hit": false,
      "t": 161049.59999999995,
      "d": 201.60000000000582,
      "v": 88
    },
    {
      "midi": 37,
      "hit": false,
      "t": 161049.60000000056,
      "d": 201.60000000000582,
      "v": 72
    },
    {
      "midi": 50,
      "hit": false,
      "t": 161049.60000000146,
      "d": 201.60000000000582,
      "v": 80
    },
    {
      "midi": 45,
      "hit": false,
      "t": 161279.99999999994,
      "d": 806.3999999999942,
      "v": 88
    },
    {
      "midi": 37,
      "hit": false,
      "t": 161280.00000000055,
      "d": 403.20000000001164,
      "v": 72
    },
    {
      "midi": 66,
      "hit": false,
      "t": 161280.00000000073,
      "d": 201.60000000000582,
      "v": 80
    },
    {
      "midi": 38,
      "hit": false,
      "t": 161280.00000000146,
      "d": 403.20000000001164,
      "v": 80
    },
    {
      "midi": 64,
      "hit": false,
      "t": 161510.40000000072,
      "d": 604.7999999999884,
      "v": 80
    },
    {
      "midi": 41,
      "hit": false,
      "t": 161740.80000000147,
      "d": 201.60000000000582,
      "v": 80
    },
    {
      "midi": 41,
      "hit": false,
      "t": 161971.20000000147,
      "d": 201.60000000000582,
      "v": 80
    },
    {
      "midi": 62,
      "hit": false,
      "t": 162201.5999999999,
      "d": 1612.7999999999884,
      "v": 72
    },
    {
      "midi": 57,
      "hit": false,
      "t": 162201.5999999999,
      "d": 1612.7999999999884,
      "v": 72
    },
    {
      "midi": 54,
      "hit": false,
      "t": 162201.5999999999,
      "d": 1612.7999999999884,
      "v": 72
    },
    {
      "midi": 50,
      "hit": false,
      "t": 162201.59999999995,
      "d": 403.20000000001164,
      "v": 88
    },
    {
      "midi": 38,
      "hit": false,
      "t": 162201.59999999995,
      "d": 403.20000000001164,
      "v": 88
    },
    {
      "midi": 38,
      "hit": false,
      "t": 162201.60000000056,
      "d": 403.20000000001164,
      "v": 72
    },
    {
      "midi": 62,
      "hit": false,
      "t": 162201.6000000007,
      "d": 403.20000000001164,
      "v": 80
    },
    {
      "midi": 50,
      "hit": false,
      "t": 162201.60000000146,
      "d": 403.20000000001164,
      "v": 80
    },
    {
      "midi": 52,
      "hit": false,
      "t": 162662.39999999997,
      "d": 403.20000000001164,
      "v": 88
    },
    {
      "midi": 40,
      "hit": false,
      "t": 162662.39999999997,
      "d": 403.20000000001164,
      "v": 88
    },
    {
      "midi": 40,
      "hit": false,
      "t": 162662.40000000058,
      "d": 403.20000000001164,
      "v": 72
    },
    {
      "midi": 62,
      "hit": false,
      "t": 162662.40000000072,
      "d": 403.20000000001164,
      "v": 80
    },
    {
      "midi": 38,
      "hit": false,
      "t": 162662.40000000148,
      "d": 201.60000000000582,
      "v": 80
    },
    {
      "midi": 38,
      "hit": false,
      "t": 162892.80000000147,
      "d": 201.60000000000582,
      "v": 80
    },
    {
      "midi": 53,
      "hit": false,
      "t": 163123.19999999998,
      "d": 403.20000000001164,
      "v": 88
    },
    {
      "midi": 41,
      "hit": false,
      "t": 163123.19999999998,
      "d": 403.20000000001164,
      "v": 88
    },
    {
      "midi": 41,
      "hit": false,
      "t": 163123.2000000006,
      "d": 403.20000000001164,
      "v": 72
    },
    {
      "midi": 62,
      "hit": false,
      "t": 163123.20000000074,
      "d": 403.20000000001164,
      "v": 80
    },
    {
      "midi": 50,
      "hit": false,
      "t": 163123.20000000147,
      "d": 403.20000000001164,
      "v": 80
    },
    {
      "midi": 54,
      "hit": false,
      "t": 163584,
      "d": 403.20000000001164,
      "v": 88
    },
    {
      "midi": 42,
      "hit": false,
      "t": 163584,
      "d": 403.20000000001164,
      "v": 88
    },
    {
      "midi": 42,
      "hit": false,
      "t": 163584.0000000006,
      "d": 403.20000000001164,
      "v": 72
    },
    {
      "midi": 62,
      "hit": false,
      "t": 163584.00000000076,
      "d": 201.60000000000582,
      "v": 80
    },
    {
      "midi": 38,
      "hit": false,
      "t": 163584.00000000148,
      "d": 201.60000000000582,
      "v": 80
    },
    {
      "midi": 62,
      "hit": false,
      "t": 163814.40000000075,
      "d": 201.60000000000582,
      "v": 80
    },
    {
      "midi": 38,
      "hit": false,
      "t": 163814.40000000148,
      "d": 201.60000000000582,
      "v": 80
    },
    {
      "midi": 58,
      "hit": false,
      "t": 164044.79999999987,
      "d": 604.7999999999884,
      "v": 72
    },
    {
      "midi": 55,
      "hit": false,
      "t": 164044.79999999987,
      "d": 604.7999999999884,
      "v": 72
    },
    {
      "midi": 55,
      "hit": false,
      "t": 164044.80000000002,
      "d": 604.7999999999884,
      "v": 88
    },
    {
      "midi": 43,
      "hit": false,
      "t": 164044.80000000002,
      "d": 604.7999999999884,
      "v": 88
    },
    {
      "midi": 43,
      "hit": false,
      "t": 164044.80000000063,
      "d": 604.7999999999884,
      "v": 72
    },
    {
      "midi": 69,
      "hit": false,
      "t": 164044.80000000075,
      "d": 201.60000000000582,
      "v": 80
    },
    {
      "midi": 64,
      "hit": false,
      "t": 164044.80000000075,
      "d": 201.60000000000582,
      "v": 80
    },
    {
      "midi": 61,
      "hit": false,
      "t": 164044.80000000075,
      "d": 201.60000000000582,
      "v": 80
    },
    {
      "midi": 58,
      "hit": false,
      "t": 164044.80000000075,
      "d": 201.60000000000582,
      "v": 80
    },
    {
      "midi": 50,
      "hit": false,
      "t": 164044.80000000147,
      "d": 403.20000000001164,
      "v": 80
    },
    {
      "midi": 66,
      "hit": false,
      "t": 164275.20000000074,
      "d": 201.60000000000582,
      "v": 80
    },
    {
      "midi": 64,
      "hit": false,
      "t": 164505.60000000073,
      "d": 201.60000000000582,
      "v": 80
    },
    {
      "midi": 38,
      "hit": false,
      "t": 164505.6000000015,
      "d": 201.60000000000582,
      "v": 80
    },
    {
      "midi": 57,
      "hit": false,
      "t": 164735.99999999985,
      "d": 633.6000000000058,
      "v": 72
    },
    {
      "midi": 54,
      "hit": false,
      "t": 164735.99999999985,
      "d": 633.6000000000058,
      "v": 72
    },
    {
      "midi": 54,
      "hit": false,
      "t": 164736,
      "d": 633.6000000000058,
      "v": 88
    },
    {
      "midi": 42,
      "hit": false,
      "t": 164736,
      "d": 633.6000000000058,
      "v": 88
    },
    {
      "midi": 42,
      "hit": false,
      "t": 164736.0000000006,
      "d": 633.6000000000058,
      "v": 72
    },
    {
      "midi": 62,
      "hit": false,
      "t": 164736.00000000073,
      "d": 201.60000000000582,
      "v": 80
    },
    {
      "midi": 57,
      "hit": false,
      "t": 164736.00000000073,
      "d": 201.60000000000582,
      "v": 80
    },
    {
      "midi": 38,
      "hit": false,
      "t": 164736.00000000148,
      "d": 201.60000000000582,
      "v": 80
    },
    {
      "midi": 50,
      "hit": false,
      "t": 164966.40000000148,
      "d": 403.20000000001164,
      "v": 80
    },
    {
      "midi": 62,
      "hit": false,
      "t": 165196.8000000004,
      "d": 201.60000000000582,
      "v": 80
    },
    {
      "midi": 69,
      "hit": false,
      "t": 165427.2000000004,
      "d": 201.60000000000582,
      "v": 80
    },
    {
      "midi": 38,
      "hit": false,
      "t": 165427.2000000015,
      "d": 201.60000000000582,
      "v": 80
    },
    {
      "midi": 74,
      "hit": false,
      "t": 165657.60000000038,
      "d": 201.60000000000582,
      "v": 80
    },
    {
      "midi": 38,
      "hit": false,
      "t": 165657.6000000015,
      "d": 201.60000000000582,
      "v": 80
    },
    {
      "midi": 73,
      "hit": false,
      "t": 165888.00000000038,
      "d": 604.7999999999884,
      "v": 80
    },
    {
      "midi": 68,
      "hit": false,
      "t": 165888.00000000038,
      "d": 604.7999999999884,
      "v": 80
    },
    {
      "midi": 50,
      "hit": false,
      "t": 165888.00000000148,
      "d": 403.20000000001164,
      "v": 80
    },
    {
      "midi": 38,
      "hit": false,
      "t": 166348.8000000015,
      "d": 201.60000000000582,
      "v": 80
    },
    {
      "midi": 72,
      "hit": false,
      "t": 166579.20000000036,
      "d": 201.60000000000582,
      "v": 80
    },
    {
      "midi": 67,
      "hit": false,
      "t": 166579.20000000036,
      "d": 201.60000000000582,
      "v": 80
    },
    {
      "midi": 38,
      "hit": false,
      "t": 166579.2000000015,
      "d": 201.60000000000582,
      "v": 80
    },
    {
      "midi": 50,
      "hit": false,
      "t": 166809.6000000015,
      "d": 403.20000000001164,
      "v": 80
    },
    {
      "midi": 71,
      "hit": false,
      "t": 167040.00000000038,
      "d": 201.60000000000582,
      "v": 80
    },
    {
      "midi": 66,
      "hit": false,
      "t": 167040.00000000038,
      "d": 201.60000000000582,
      "v": 80
    },
    {
      "midi": 38,
      "hit": false,
      "t": 167270.4000000015,
      "d": 201.60000000000582,
      "v": 80
    },
    {
      "midi": 70,
      "hit": false,
      "t": 167500.8000000004,
      "d": 201.60000000000582,
      "v": 80
    },
    {
      "midi": 65,
      "hit": false,
      "t": 167500.8000000004,
      "d": 201.60000000000582,
      "v": 80
    },
    {
      "midi": 38,
      "hit": false,
      "t": 167500.8000000015,
      "d": 201.60000000000582,
      "v": 80
    },
    {
      "midi": 50,
      "hit": false,
      "t": 167731.2000000015,
      "d": 403.20000000001164,
      "v": 80
    },
    {
      "midi": 50,
      "hit": false,
      "t": 167961.6,
      "d": 201.60000000000582,
      "v": 88
    },
    {
      "midi": 62,
      "hit": false,
      "t": 168191.99999999985,
      "d": 1209.6000000000058,
      "v": 72
    },
    {
      "midi": 60,
      "hit": false,
      "t": 168191.99999999985,
      "d": 1209.6000000000058,
      "v": 72
    },
    {
      "midi": 54,
      "hit": false,
      "t": 168191.99999999985,
      "d": 1209.6000000000058,
      "v": 72
    },
    {
      "midi": 38,
      "hit": false,
      "t": 168192,
      "d": 1267.1999999999825,
      "v": 104
    },
    {
      "midi": 74,
      "hit": false,
      "t": 168192.00000000038,
      "d": 403.20000000001164,
      "v": 88
    },
    {
      "midi": 69,
      "hit": false,
      "t": 168192.00000000038,
      "d": 403.20000000001164,
      "v": 88
    },
    {
      "midi": 66,
      "hit": false,
      "t": 168192.00000000038,
      "d": 403.20000000001164,
      "v": 88
    },
    {
      "midi": 38,
      "hit": false,
      "t": 168192.0000000006,
      "d": 1209.6000000000058,
      "v": 72
    },
    {
      "midi": 38,
      "hit": false,
      "t": 168192.0000000015,
      "d": 201.60000000000582,
      "v": 80
    },
    {
      "midi": 38,
      "hit": false,
      "t": 168422.4000000015,
      "d": 201.60000000000582,
      "v": 80
    },
    {
      "midi": 77,
      "hit": false,
      "t": 168652.8000000004,
      "d": 268.79999999998836,
      "v": 88
    },
    {
      "midi": 72,
      "hit": false,
      "t": 168652.8000000004,
      "d": 268.79999999998836,
      "v": 88
    },
    {
      "midi": 69,
      "hit": false,
      "t": 168652.8000000004,
      "d": 268.79999999998836,
      "v": 88
    },
    {
      "midi": 38,
      "hit": false,
      "t": 168652.8000000015,
      "d": 96,
      "v": 80
    },
    {
      "midi": 38,
      "hit": false,
      "t": 168768.0000000015,
      "d": 96,
      "v": 80
    },
    {
      "midi": 38,
      "hit": false,
      "t": 168883.20000000153,
      "d": 96,
      "v": 80
    },
    {
      "midi": 77,
      "hit": false,
      "t": 168960.00000000038,
      "d": 268.79999999998836,
      "v": 88
    },
    {
      "midi": 72,
      "hit": false,
      "t": 168960.00000000038,
      "d": 268.79999999998836,
      "v": 88
    },
    {
      "midi": 69,
      "hit": false,
      "t": 168960.00000000038,
      "d": 268.79999999998836,
      "v": 88
    },
    {
      "midi": 38,
      "hit": false,
      "t": 168998.40000000154,
      "d": 96,
      "v": 80
    },
    {
      "midi": 38,
      "hit": false,
      "t": 169113.60000000155,
      "d": 96,
      "v": 80
    },
    {
      "midi": 38,
      "hit": false,
      "t": 169228.80000000156,
      "d": 96,
      "v": 80
    },
    {
      "midi": 78,
      "hit": false,
      "t": 169267.20000000036,
      "d": 268.79999999998836,
      "v": 88
    },
    {
      "midi": 73,
      "hit": false,
      "t": 169267.20000000036,
      "d": 268.79999999998836,
      "v": 88
    },
    {
      "midi": 70,
      "hit": false,
      "t": 169267.20000000036,
      "d": 268.79999999998836,
      "v": 88
    },
    {
      "midi": 38,
      "hit": false,
      "t": 169344.00000000157,
      "d": 96,
      "v": 80
    },
    {
      "midi": 38,
      "hit": false,
      "t": 169459.20000000158,
      "d": 96,
      "v": 80
    },
    {
      "midi": 62,
      "hit": false,
      "t": 169574.39999999985,
      "d": 3456,
      "v": 72
    },
    {
      "midi": 59,
      "hit": false,
      "t": 169574.39999999985,
      "d": 3456,
      "v": 72
    },
    {
      "midi": 55,
      "hit": false,
      "t": 169574.39999999985,
      "d": 3456,
      "v": 72
    },
    {
      "midi": 43,
      "hit": false,
      "t": 169574.4,
      "d": 604.7999999999884,
      "v": 88
    },
    {
      "midi": 79,
      "hit": false,
      "t": 169574.40000000014,
      "d": 403.20000000001164,
      "v": 80
    },
    {
      "midi": 71,
      "hit": false,
      "t": 169574.40000000014,
      "d": 403.20000000001164,
      "v": 80
    },
    {
      "midi": 43,
      "hit": false,
      "t": 169574.4000000006,
      "d": 403.20000000001164,
      "v": 72
    },
    {
      "midi": 79,
      "hit": false,
      "t": 169574.40000000072,
      "d": 403.20000000001164,
      "v": 80
    },
    {
      "midi": 74,
      "hit": false,
      "t": 169574.40000000072,
      "d": 403.20000000001164,
      "v": 80
    },
    {
      "midi": 71,
      "hit": false,
      "t": 169574.40000000072,
      "d": 403.20000000001164,
      "v": 80
    },
    {
      "midi": 50,
      "hit": false,
      "t": 169574.4000000016,
      "d": 403.20000000001164,
      "v": 80
    },
    {
      "midi": 79,
      "hit": false,
      "t": 170035.20000000016,
      "d": 403.20000000001164,
      "v": 80
    },
    {
      "midi": 79,
      "hit": false,
      "t": 170035.20000000074,
      "d": 403.20000000001164,
      "v": 80
    },
    {
      "midi": 74,
      "hit": false,
      "t": 170035.20000000074,
      "d": 403.20000000001164,
      "v": 80
    },
    {
      "midi": 71,
      "hit": false,
      "t": 170035.20000000074,
      "d": 403.20000000001164,
      "v": 80
    },
    {
      "midi": 38,
      "hit": false,
      "t": 170035.2000000016,
      "d": 201.60000000000582,
      "v": 80
    },
    {
      "midi": 43,
      "hit": false,
      "t": 170265.59999999998,
      "d": 201.60000000000582,
      "v": 88
    },
    {
      "midi": 43,
      "hit": false,
      "t": 170265.60000000062,
      "d": 201.60000000000582,
      "v": 72
    },
    {
      "midi": 38,
      "hit": false,
      "t": 170265.6000000016,
      "d": 201.60000000000582,
      "v": 80
    },
    {
      "midi": 43,
      "hit": false,
      "t": 170495.99999999997,
      "d": 604.7999999999884,
      "v": 88
    },
    {
      "midi": 79,
      "hit": false,
      "t": 170496.00000000017,
      "d": 403.20000000001164,
      "v": 80
    },
    {
      "midi": 43,
      "hit": false,
      "t": 170496.0000000006,
      "d": 403.20000000001164,
      "v": 72
    },
    {
      "midi": 79,
      "hit": false,
      "t": 170496.00000000076,
      "d": 403.20000000001164,
      "v": 80
    },
    {
      "midi": 74,
      "hit": false,
      "t": 170496.00000000076,
      "d": 403.20000000001164,
      "v": 80
    },
    {
      "midi": 71,
      "hit": false,
      "t": 170496.00000000076,
      "d": 403.20000000001164,
      "v": 80
    },
    {
      "midi": 50,
      "hit": false,
      "t": 170496.0000000016,
      "d": 403.20000000001164,
      "v": 80
    },
    {
      "midi": 74,
      "hit": false,
      "t": 170956.8000000002,
      "d": 201.60000000000582,
      "v": 80
    },
    {
      "midi": 74,
      "hit": false,
      "t": 170956.80000000077,
      "d": 201.60000000000582,
      "v": 80
    },
    {
      "midi": 38,
      "hit": false,
      "t": 170956.80000000162,
      "d": 201.60000000000582,
      "v": 80
    },
    {
      "midi": 43,
      "hit": false,
      "t": 171187.19999999995,
      "d": 201.60000000000582,
      "v": 88
    },
    {
      "midi": 76,
      "hit": false,
      "t": 171187.2000000002,
      "d": 201.60000000000582,
      "v": 80
    },
    {
      "midi": 77,
      "hit": false,
      "t": 171187.20000000077,
      "d": 201.60000000000582,
      "v": 80
    },
    {
      "midi": 38,
      "hit": false,
      "t": 171187.2000000016,
      "d": 201.60000000000582,
      "v": 80
    },
    {
      "midi": 47,
      "hit": false,
      "t": 171417.59999999995,
      "d": 604.7999999999884,
      "v": 88
    },
    {
      "midi": 79,
      "hit": false,
      "t": 171417.60000000018,
      "d": 201.60000000000582,
      "v": 80
    },
    {
      "midi": 47,
      "hit": false,
      "t": 171417.60000000062,
      "d": 403.20000000001164,
      "v": 72
    },
    {
      "midi": 79,
      "hit": false,
      "t": 171417.60000000076,
      "d": 201.60000000000582,
      "v": 80
    },
    {
      "midi": 74,
      "hit": false,
      "t": 171417.60000000076,
      "d": 201.60000000000582,
      "v": 80
    },
    {
      "midi": 71,
      "hit": false,
      "t": 171417.60000000076,
      "d": 201.60000000000582,
      "v": 80
    },
    {
      "midi": 50,
      "hit": false,
      "t": 171417.6000000016,
      "d": 403.20000000001164,
      "v": 80
    },
    {
      "midi": 74,
      "hit": false,
      "t": 171648.00000000017,
      "d": 201.60000000000582,
      "v": 80
    },
    {
      "midi": 74,
      "hit": false,
      "t": 171648.00000000076,
      "d": 201.60000000000582,
      "v": 80
    },
    {
      "midi": 81,
      "hit": false,
      "t": 171878.40000000017,
      "d": 201.60000000000582,
      "v": 80
    },
    {
      "midi": 81,
      "hit": false,
      "t": 171878.40000000075,
      "d": 201.60000000000582,
      "v": 80
    },
    {
      "midi": 38,
      "hit": false,
      "t": 171878.40000000162,
      "d": 201.60000000000582,
      "v": 80
    },
    {
      "midi": 47,
      "hit": false,
      "t": 172108.79999999993,
      "d": 201.60000000000582,
      "v": 88
    },
    {
      "midi": 79,
      "hit": false,
      "t": 172108.80000000016,
      "d": 633.6000000000058,
      "v": 80
    },
    {
      "midi": 47,
      "hit": false,
      "t": 172108.80000000063,
      "d": 201.60000000000582,
      "v": 72
    },
    {
      "midi": 79,
      "hit": false,
      "t": 172108.80000000075,
      "d": 1036.7999999999884,
      "v": 80
    },
    {
      "midi": 74,
      "hit": false,
      "t": 172108.80000000075,
      "d": 1036.7999999999884,
      "v": 80
    },
    {
      "midi": 71,
      "hit": false,
      "t": 172108.80000000075,
      "d": 1036.7999999999884,
      "v": 80
    },
    {
      "midi": 38,
      "hit": false,
      "t": 172108.80000000162,
      "d": 201.60000000000582,
      "v": 80
    },
    {
      "midi": 47,
      "hit": false,
      "t": 172339.19999999992,
      "d": 604.7999999999884,
      "v": 88
    },
    {
      "midi": 47,
      "hit": false,
      "t": 172339.20000000062,
      "d": 403.20000000001164,
      "v": 72
    },
    {
      "midi": 50,
      "hit": false,
      "t": 172339.2000000016,
      "d": 403.20000000001164,
      "v": 80
    },
    {
      "midi": 74,
      "hit": false,
      "t": 172800.00000000035,
      "d": 201.60000000000582,
      "v": 88
    },
    {
      "midi": 71,
      "hit": false,
      "t": 172800.00000000035,
      "d": 201.60000000000582,
      "v": 88
    },
    {
      "midi": 67,
      "hit": false,
      "t": 172800.00000000035,
      "d": 201.60000000000582,
      "v": 88
    },
    {
      "midi": 38,
      "hit": false,
      "t": 172800.00000000163,
      "d": 201.60000000000582,
      "v": 80
    },
    {
      "midi": 47,
      "hit": false,
      "t": 173030.3999999999,
      "d": 201.60000000000582,
      "v": 88
    },
    {
      "midi": 78,
      "hit": false,
      "t": 173030.40000000034,
      "d": 201.60000000000582,
      "v": 88
    },
    {
      "midi": 75,
      "hit": false,
      "t": 173030.40000000034,
      "d": 201.60000000000582,
      "v": 88
    },
    {
      "midi": 71,
      "hit": false,
      "t": 173030.40000000034,
      "d": 201.60000000000582,
      "v": 88
    },
    {
      "midi": 38,
      "hit": false,
      "t": 173030.40000000162,
      "d": 201.60000000000582,
      "v": 80
    },
    {
      "midi": 64,
      "hit": false,
      "t": 173260.79999999984,
      "d": 1612.7999999999884,
      "v": 72
    },
    {
      "midi": 60,
      "hit": false,
      "t": 173260.79999999984,
      "d": 1612.7999999999884,
      "v": 72
    },
    {
      "midi": 55,
      "hit": false,
      "t": 173260.79999999984,
      "d": 1612.7999999999884,
      "v": 72
    },
    {
      "midi": 48,
      "hit": false,
      "t": 173260.7999999999,
      "d": 604.7999999999884,
      "v": 88
    },
    {
      "midi": 79,
      "hit": false,
      "t": 173260.80000000016,
      "d": 403.20000000001164,
      "v": 80
    },
    {
      "midi": 76,
      "hit": false,
      "t": 173260.80000000016,
      "d": 403.20000000001164,
      "v": 80
    },
    {
      "midi": 48,
      "hit": false,
      "t": 173260.80000000063,
      "d": 403.20000000001164,
      "v": 72
    },
    {
      "midi": 79,
      "hit": false,
      "t": 173260.80000000075,
      "d": 403.20000000001164,
      "v": 80
    },
    {
      "midi": 76,
      "hit": false,
      "t": 173260.80000000075,
      "d": 403.20000000001164,
      "v": 80
    },
    {
      "midi": 72,
      "hit": false,
      "t": 173260.80000000075,
      "d": 403.20000000001164,
      "v": 80
    },
    {
      "midi": 50,
      "hit": false,
      "t": 173260.80000000162,
      "d": 403.20000000001164,
      "v": 80
    },
    {
      "midi": 79,
      "hit": false,
      "t": 173721.60000000018,
      "d": 403.20000000001164,
      "v": 80
    },
    {
      "midi": 79,
      "hit": false,
      "t": 173721.60000000076,
      "d": 403.20000000001164,
      "v": 80
    },
    {
      "midi": 76,
      "hit": false,
      "t": 173721.60000000076,
      "d": 403.20000000001164,
      "v": 80
    },
    {
      "midi": 72,
      "hit": false,
      "t": 173721.60000000076,
      "d": 403.20000000001164,
      "v": 80
    },
    {
      "midi": 38,
      "hit": false,
      "t": 173721.60000000164,
      "d": 201.60000000000582,
      "v": 80
    },
    {
      "midi": 48,
      "hit": false,
      "t": 173951.99999999988,
      "d": 201.60000000000582,
      "v": 88
    },
    {
      "midi": 48,
      "hit": false,
      "t": 173952.00000000064,
      "d": 201.60000000000582,
      "v": 72
    },
    {
      "midi": 38,
      "hit": false,
      "t": 173952.00000000163,
      "d": 201.60000000000582,
      "v": 80
    },
    {
      "midi": 48,
      "hit": false,
      "t": 174182.39999999988,
      "d": 604.7999999999884,
      "v": 88
    },
    {
      "midi": 79,
      "hit": false,
      "t": 174182.4000000002,
      "d": 403.20000000001164,
      "v": 80
    },
    {
      "midi": 48,
      "hit": false,
      "t": 174182.40000000063,
      "d": 403.20000000001164,
      "v": 72
    },
    {
      "midi": 79,
      "hit": false,
      "t": 174182.40000000078,
      "d": 403.20000000001164,
      "v": 80
    },
    {
      "midi": 76,
      "hit": false,
      "t": 174182.40000000078,
      "d": 403.20000000001164,
      "v": 80
    },
    {
      "midi": 72,
      "hit": false,
      "t": 174182.40000000078,
      "d": 403.20000000001164,
      "v": 80
    },
    {
      "midi": 50,
      "hit": false,
      "t": 174182.40000000162,
      "d": 403.20000000001164,
      "v": 80
    },
    {
      "midi": 81,
      "hit": false,
      "t": 174643.20000000022,
      "d": 201.60000000000582,
      "v": 80
    },
    {
      "midi": 81,
      "hit": false,
      "t": 174643.2000000008,
      "d": 201.60000000000582,
      "v": 80
    },
    {
      "midi": 38,
      "hit": false,
      "t": 174643.20000000164,
      "d": 201.60000000000582,
      "v": 80
    },
    {
      "midi": 48,
      "hit": false,
      "t": 174873.59999999986,
      "d": 201.60000000000582,
      "v": 88
    },
    {
      "midi": 79,
      "hit": false,
      "t": 174873.6000000002,
      "d": 201.60000000000582,
      "v": 80
    },
    {
      "midi": 79,
      "hit": false,
      "t": 174873.6000000008,
      "d": 201.60000000000582,
      "v": 80
    },
    {
      "midi": 38,
      "hit": false,
      "t": 174873.60000000164,
      "d": 201.60000000000582,
      "v": 80
    },
    {
      "midi": 64,
      "hit": false,
      "t": 175103.99999999983,
      "d": 1612.7999999999884,
      "v": 72
    },
    {
      "midi": 61,
      "hit": false,
      "t": 175103.99999999983,
      "d": 1612.7999999999884,
      "v": 72
    },
    {
      "midi": 55,
      "hit": false,
      "t": 175103.99999999983,
      "d": 1612.7999999999884,
      "v": 72
    },
    {
      "midi": 49,
      "hit": false,
      "t": 175103.99999999985,
      "d": 604.7999999999884,
      "v": 88
    },
    {
      "midi": 82,
      "hit": false,
      "t": 175104.0000000002,
      "d": 201.60000000000582,
      "v": 80
    },
    {
      "midi": 76,
      "hit": false,
      "t": 175104.0000000002,
      "d": 201.60000000000582,
      "v": 80
    },
    {
      "midi": 36,
      "hit": false,
      "t": 175104.00000000064,
      "d": 403.20000000001164,
      "v": 72
    },
    {
      "midi": 83,
      "hit": false,
      "t": 175104.0000000008,
      "d": 201.60000000000582,
      "v": 80
    },
    {
      "midi": 76,
      "hit": false,
      "t": 175104.0000000008,
      "d": 201.60000000000582,
      "v": 80
    },
    {
      "midi": 73,
      "hit": false,
      "t": 175104.0000000008,
      "d": 201.60000000000582,
      "v": 80
    },
    {
      "midi": 50,
      "hit": false,
      "t": 175104.00000000163,
      "d": 403.20000000001164,
      "v": 80
    },
    {
      "midi": 81,
      "hit": false,
      "t": 175334.4000000002,
      "d": 403.20000000001164,
      "v": 80
    },
    {
      "midi": 81,
      "hit": false,
      "t": 175334.40000000078,
      "d": 403.20000000001164,
      "v": 80
    },
    {
      "midi": 38,
      "hit": false,
      "t": 175564.80000000165,
      "d": 201.60000000000582,
      "v": 80
    },
    {
      "midi": 52,
      "hit": false,
      "t": 175795.19999999984,
      "d": 432,
      "v": 88
    },
    {
      "midi": 79,
      "hit": false,
      "t": 175795.20000000022,
      "d": 633.6000000000058,
      "v": 80
    },
    {
      "midi": 36,
      "hit": false,
      "t": 175795.20000000065,
      "d": 201.60000000000582,
      "v": 72
    },
    {
      "midi": 79,
      "hit": false,
      "t": 175795.2000000008,
      "d": 633.6000000000058,
      "v": 80
    },
    {
      "midi": 76,
      "hit": false,
      "t": 175795.2000000008,
      "d": 633.6000000000058,
      "v": 80
    },
    {
      "midi": 73,
      "hit": false,
      "t": 175795.2000000008,
      "d": 633.6000000000058,
      "v": 80
    },
    {
      "midi": 38,
      "hit": false,
      "t": 175795.20000000164,
      "d": 201.60000000000582,
      "v": 80
    },
    {
      "midi": 36,
      "hit": false,
      "t": 176025.60000000065,
      "d": 403.20000000001164,
      "v": 72
    },
    {
      "midi": 50,
      "hit": false,
      "t": 176025.60000000164,
      "d": 403.20000000001164,
      "v": 80
    },
    {
      "midi": 51,
      "hit": false,
      "t": 176255.99999999983,
      "d": 201.60000000000582,
      "v": 88
    },
    {
      "midi": 52,
      "hit": false,
      "t": 176486.39999999982,
      "d": 201.60000000000582,
      "v": 88
    },
    {
      "midi": 79,
      "hit": false,
      "t": 176486.40000000023,
      "d": 201.60000000000582,
      "v": 80
    },
    {
      "midi": 76,
      "hit": false,
      "t": 176486.40000000034,
      "d": 201.60000000000582,
      "v": 88
    },
    {
      "midi": 72,
      "hit": false,
      "t": 176486.40000000034,
      "d": 201.60000000000582,
      "v": 88
    },
    {
      "midi": 69,
      "hit": false,
      "t": 176486.40000000034,
      "d": 201.60000000000582,
      "v": 88
    },
    {
      "midi": 79,
      "hit": false,
      "t": 176486.4000000008,
      "d": 201.60000000000582,
      "v": 80
    },
    {
      "midi": 38,
      "hit": false,
      "t": 176486.40000000165,
      "d": 201.60000000000582,
      "v": 80
    },
    {
      "midi": 49,
      "hit": false,
      "t": 176716.7999999998,
      "d": 201.60000000000582,
      "v": 88
    },
    {
      "midi": 81,
      "hit": false,
      "t": 176716.80000000022,
      "d": 201.60000000000582,
      "v": 80
    },
    {
      "midi": 80,
      "hit": false,
      "t": 176716.80000000034,
      "d": 201.60000000000582,
      "v": 88
    },
    {
      "midi": 76,
      "hit": false,
      "t": 176716.80000000034,
      "d": 201.60000000000582,
      "v": 88
    },
    {
      "midi": 73,
      "hit": false,
      "t": 176716.80000000034,
      "d": 201.60000000000582,
      "v": 88
    },
    {
      "midi": 81,
      "hit": false,
      "t": 176716.8000000008,
      "d": 201.60000000000582,
      "v": 80
    },
    {
      "midi": 38,
      "hit": false,
      "t": 176716.80000000165,
      "d": 201.60000000000582,
      "v": 80
    },
    {
      "midi": 50,
      "hit": false,
      "t": 176947.1999999998,
      "d": 403.20000000001164,
      "v": 88
    },
    {
      "midi": 62,
      "hit": false,
      "t": 176947.1999999998,
      "d": 1612.7999999999884,
      "v": 72
    },
    {
      "midi": 59,
      "hit": false,
      "t": 176947.1999999998,
      "d": 1612.7999999999884,
      "v": 72
    },
    {
      "midi": 55,
      "hit": false,
      "t": 176947.1999999998,
      "d": 1612.7999999999884,
      "v": 72
    },
    {
      "midi": 83,
      "hit": false,
      "t": 176947.20000000022,
      "d": 604.7999999999884,
      "v": 80
    },
    {
      "midi": 38,
      "hit": false,
      "t": 176947.20000000065,
      "d": 403.20000000001164,
      "v": 72
    },
    {
      "midi": 83,
      "hit": false,
      "t": 176947.2000000008,
      "d": 403.20000000001164,
      "v": 80
    },
    {
      "midi": 79,
      "hit": false,
      "t": 176947.2000000008,
      "d": 403.20000000001164,
      "v": 80
    },
    {
      "midi": 74,
      "hit": false,
      "t": 176947.2000000008,
      "d": 403.20000000001164,
      "v": 80
    },
    {
      "midi": 50,
      "hit": false,
      "t": 176947.20000000164,
      "d": 403.20000000001164,
      "v": 80
    },
    {
      "midi": 74,
      "hit": false,
      "t": 177177.60000000033,
      "d": 201.60000000000582,
      "v": 88
    },
    {
      "midi": 71,
      "hit": false,
      "t": 177177.60000000033,
      "d": 201.60000000000582,
      "v": 88
    },
    {
      "midi": 67,
      "hit": false,
      "t": 177177.60000000033,
      "d": 201.60000000000582,
      "v": 88
    },
    {
      "midi": 50,
      "hit": false,
      "t": 177407.99999999983,
      "d": 403.20000000001164,
      "v": 88
    },
    {
      "midi": 38,
      "hit": false,
      "t": 177408.00000000067,
      "d": 403.20000000001164,
      "v": 72
    },
    {
      "midi": 38,
      "hit": false,
      "t": 177408.00000000166,
      "d": 201.60000000000582,
      "v": 80
    },
    {
      "midi": 81,
      "hit": false,
      "t": 177638.4000000002,
      "d": 201.60000000000582,
      "v": 80
    },
    {
      "midi": 81,
      "hit": false,
      "t": 177638.4000000008,
      "d": 201.60000000000582,
      "v": 80
    },
    {
      "midi": 38,
      "hit": false,
      "t": 177638.40000000165,
      "d": 201.60000000000582,
      "v": 80
    },
    {
      "midi": 50,
      "hit": false,
      "t": 177868.79999999984,
      "d": 403.20000000001164,
      "v": 88
    },
    {
      "midi": 79,
      "hit": false,
      "t": 177868.8000000002,
      "d": 604.7999999999884,
      "v": 80
    },
    {
      "midi": 38,
      "hit": false,
      "t": 177868.8000000007,
      "d": 403.20000000001164,
      "v": 72
    },
    {
      "midi": 79,
      "hit": false,
      "t": 177868.8000000008,
      "d": 604.7999999999884,
      "v": 80
    },
    {
      "midi": 74,
      "hit": false,
      "t": 177868.8000000008,
      "d": 604.7999999999884,
      "v": 80
    },
    {
      "midi": 71,
      "hit": false,
      "t": 177868.8000000008,
      "d": 604.7999999999884,
      "v": 80
    },
    {
      "midi": 50,
      "hit": false,
      "t": 177868.80000000165,
      "d": 403.20000000001164,
      "v": 80
    },
    {
      "midi": 81,
      "hit": false,
      "t": 178099.20000000033,
      "d": 201.60000000000582,
      "v": 88
    },
    {
      "midi": 78,
      "hit": false,
      "t": 178099.20000000033,
      "d": 201.60000000000582,
      "v": 88
    },
    {
      "midi": 74,
      "hit": false,
      "t": 178099.20000000033,
      "d": 201.60000000000582,
      "v": 88
    },
    {
      "midi": 50,
      "hit": false,
      "t": 178329.59999999986,
      "d": 403.20000000001164,
      "v": 88
    },
    {
      "midi": 38,
      "hit": false,
      "t": 178329.6000000007,
      "d": 403.20000000001164,
      "v": 72
    },
    {
      "midi": 38,
      "hit": false,
      "t": 178329.60000000166,
      "d": 201.60000000000582,
      "v": 80
    },
    {
      "midi": 76,
      "hit": false,
      "t": 178560.00000000017,
      "d": 201.60000000000582,
      "v": 80
    },
    {
      "midi": 76,
      "hit": false,
      "t": 178560.0000000008,
      "d": 201.60000000000582,
      "v": 80
    },
    {
      "midi": 38,
      "hit": false,
      "t": 178560.00000000166,
      "d": 201.60000000000582,
      "v": 80
    },
    {
      "midi": 66,
      "hit": false,
      "t": 178790.3999999998,
      "d": 403.20000000001164,
      "v": 72
    },
    {
      "midi": 62,
      "hit": false,
      "t": 178790.3999999998,
      "d": 403.20000000001164,
      "v": 72
    },
    {
      "midi": 57,
      "hit": false,
      "t": 178790.3999999998,
      "d": 403.20000000001164,
      "v": 72
    },
    {
      "midi": 50,
      "hit": false,
      "t": 178790.39999999988,
      "d": 806.3999999999942,
      "v": 88
    },
    {
      "midi": 38,
      "hit": false,
      "t": 178790.39999999988,
      "d": 806.3999999999942,
      "v": 104
    },
    {
      "midi": 74,
      "hit": false,
      "t": 178790.40000000017,
      "d": 403.20000000001164,
      "v": 80
    },
    {
      "midi": 72,
      "hit": false,
      "t": 178790.40000000017,
      "d": 403.20000000001164,
      "v": 80
    },
    {
      "midi": 38,
      "hit": false,
      "t": 178790.40000000072,
      "d": 403.20000000001164,
      "v": 72
    },
    {
      "midi": 74,
      "hit": false,
      "t": 178790.40000000078,
      "d": 403.20000000001164,
      "v": 80
    },
    {
      "midi": 69,
      "hit": false,
      "t": 178790.40000000078,
      "d": 403.20000000001164,
      "v": 80
    },
    {
      "midi": 66,
      "hit": false,
      "t": 178790.40000000078,
      "d": 403.20000000001164,
      "v": 80
    },
    {
      "midi": 50,
      "hit": false,
      "t": 178790.40000000165,
      "d": 403.20000000001164,
      "v": 80
    },
    {
      "midi": 84,
      "hit": false,
      "t": 179020.80000000034,
      "d": 201.60000000000582,
      "v": 88
    },
    {
      "midi": 81,
      "hit": false,
      "t": 179020.80000000034,
      "d": 201.60000000000582,
      "v": 88
    },
    {
      "midi": 78,
      "hit": false,
      "t": 179020.80000000034,
      "d": 201.60000000000582,
      "v": 88
    },
    {
      "midi": 74,
      "hit": false,
      "t": 179020.80000000034,
      "d": 201.60000000000582,
      "v": 88
    },
    {
      "midi": 38,
      "hit": false,
      "t": 179251.20000000167,
      "d": 201.60000000000582,
      "v": 80
    },
    {
      "midi": 64,
      "hit": false,
      "t": 179481.5999999998,
      "d": 835.2000000000116,
      "v": 72
    },
    {
      "midi": 60,
      "hit": false,
      "t": 179481.5999999998,
      "d": 835.2000000000116,
      "v": 72
    },
    {
      "midi": 55,
      "hit": false,
      "t": 179481.5999999998,
      "d": 835.2000000000116,
      "v": 72
    },
    {
      "midi": 74,
      "hit": false,
      "t": 179481.60000000018,
      "d": 201.60000000000582,
      "v": 80
    },
    {
      "midi": 36,
      "hit": false,
      "t": 179481.60000000073,
      "d": 432,
      "v": 72
    },
    {
      "midi": 75,
      "hit": false,
      "t": 179481.6000000008,
      "d": 201.60000000000582,
      "v": 80
    },
    {
      "midi": 38,
      "hit": false,
      "t": 179481.60000000166,
      "d": 201.60000000000582,
      "v": 80
    },
    {
      "midi": 60,
      "hit": false,
      "t": 179711.99999999988,
      "d": 604.7999999999884,
      "v": 88
    },
    {
      "midi": 48,
      "hit": false,
      "t": 179711.99999999988,
      "d": 604.7999999999884,
      "v": 88
    },
    {
      "midi": 76,
      "hit": false,
      "t": 179712.00000000017,
      "d": 201.60000000000582,
      "v": 80
    },
    {
      "midi": 76,
      "hit": false,
      "t": 179712.0000000008,
      "d": 201.60000000000582,
      "v": 80
    },
    {
      "midi": 72,
      "hit": false,
      "t": 179712.0000000008,
      "d": 201.60000000000582,
      "v": 80
    },
    {
      "midi": 50,
      "hit": false,
      "t": 179712.00000000166,
      "d": 403.20000000001164,
      "v": 80
    },
    {
      "midi": 79,
      "hit": false,
      "t": 179942.40000000017,
      "d": 201.60000000000582,
      "v": 80
    },
    {
      "midi": 48,
      "hit": false,
      "t": 179942.40000000072,
      "d": 403.20000000001164,
      "v": 72
    },
    {
      "midi": 79,
      "hit": false,
      "t": 179942.40000000078,
      "d": 201.60000000000582,
      "v": 80
    },
    {
      "midi": 76,
      "hit": false,
      "t": 180172.80000000016,
      "d": 201.60000000000582,
      "v": 80
    },
    {
      "midi": 76,
      "hit": false,
      "t": 180172.80000000077,
      "d": 201.60000000000582,
      "v": 80
    },
    {
      "midi": 38,
      "hit": false,
      "t": 180172.80000000168,
      "d": 201.60000000000582,
      "v": 80
    },
    {
      "midi": 58,
      "hit": false,
      "t": 180403.1999999998,
      "d": 240,
      "v": 72
    },
    {
      "midi": 53,
      "hit": false,
      "t": 180403.1999999998,
      "d": 240,
      "v": 72
    },
    {
      "midi": 62,
      "hit": false,
      "t": 180403.1999999998,
      "d": 1843.2000000000116,
      "v": 72
    },
    {
      "midi": 58,
      "hit": false,
      "t": 180403.19999999987,
      "d": 240,
      "v": 88
    },
    {
      "midi": 46,
      "hit": false,
      "t": 180403.19999999987,
      "d": 240,
      "v": 88
    },
    {
      "midi": 79,
      "hit": false,
      "t": 180403.20000000016,
      "d": 1843.2000000000116,
      "v": 80
    },
    {
      "midi": 74,
      "hit": false,
      "t": 180403.20000000016,
      "d": 1843.2000000000116,
      "v": 80
    },
    {
      "midi": 46,
      "hit": false,
      "t": 180403.20000000074,
      "d": 240,
      "v": 72
    },
    {
      "midi": 70,
      "hit": false,
      "t": 180403.20000000077,
      "d": 240,
      "v": 80
    },
    {
      "midi": 79,
      "hit": false,
      "t": 180403.20000000077,
      "d": 1843.2000000000116,
      "v": 80
    },
    {
      "midi": 74,
      "hit": false,
      "t": 180403.20000000077,
      "d": 1843.2000000000116,
      "v": 80
    },
    {
      "midi": 38,
      "hit": false,
      "t": 180403.20000000167,
      "d": 201.60000000000582,
      "v": 80
    },
    {
      "midi": 59,
      "hit": false,
      "t": 180633.5999999998,
      "d": 1612.8000000000175,
      "v": 72
    },
    {
      "midi": 54,
      "hit": false,
      "t": 180633.5999999998,
      "d": 1612.8000000000175,
      "v": 72
    },
    {
      "midi": 59,
      "hit": false,
      "t": 180633.59999999986,
      "d": 1209.6000000000058,
      "v": 88
    },
    {
      "midi": 47,
      "hit": false,
      "t": 180633.59999999986,
      "d": 1209.6000000000058,
      "v": 88
    },
    {
      "midi": 47,
      "hit": false,
      "t": 180633.60000000073,
      "d": 403.20000000001164,
      "v": 72
    },
    {
      "midi": 71,
      "hit": false,
      "t": 180633.60000000076,
      "d": 1612.8000000000175,
      "v": 80
    },
    {
      "midi": 50,
      "hit": false,
      "t": 180633.60000000166,
      "d": 403.20000000001164,
      "v": 80
    },
    {
      "midi": 47,
      "hit": false,
      "t": 181094.40000000075,
      "d": 403.20000000001164,
      "v": 72
    },
    {
      "midi": 38,
      "hit": false,
      "t": 181094.40000000168,
      "d": 201.60000000000582,
      "v": 80
    },
    {
      "midi": 38,
      "hit": false,
      "t": 181324.80000000168,
      "d": 201.60000000000582,
      "v": 80
    },
    {
      "midi": 47,
      "hit": false,
      "t": 181555.20000000077,
      "d": 403.20000000001164,
      "v": 72
    },
    {
      "midi": 50,
      "hit": false,
      "t": 181555.20000000167,
      "d": 403.20000000001164,
      "v": 80
    },
    {
      "midi": 58,
      "hit": false,
      "t": 182015.99999999985,
      "d": 403.20000000001164,
      "v": 88
    },
    {
      "midi": 81,
      "hit": false,
      "t": 182016.00000000032,
      "d": 96,
      "v": 80
    },
    {
      "midi": 77,
      "hit": false,
      "t": 182016.00000000032,
      "d": 96,
      "v": 80
    },
    {
      "midi": 74,
      "hit": false,
      "t": 182016.00000000032,
      "d": 96,
      "v": 80
    },
    {
      "midi": 70,
      "hit": false,
      "t": 182016.00000000032,
      "d": 96,
      "v": 80
    },
    {
      "midi": 47,
      "hit": false,
      "t": 182016.0000000008,
      "d": 403.20000000001164,
      "v": 72
    },
    {
      "midi": 38,
      "hit": false,
      "t": 182016.0000000017,
      "d": 96,
      "v": 80
    },
    {
      "midi": 77,
      "hit": false,
      "t": 182131.20000000033,
      "d": 96,
      "v": 80
    },
    {
      "midi": 74,
      "hit": false,
      "t": 182131.20000000033,
      "d": 96,
      "v": 80
    },
    {
      "midi": 70,
      "hit": false,
      "t": 182131.20000000033,
      "d": 96,
      "v": 80
    },
    {
      "midi": 67,
      "hit": false,
      "t": 182131.20000000033,
      "d": 96,
      "v": 80
    },
    {
      "midi": 38,
      "hit": false,
      "t": 182131.2000000017,
      "d": 96,
      "v": 80
    },
    {
      "midi": 74,
      "hit": false,
      "t": 182246.40000000034,
      "d": 96,
      "v": 80
    },
    {
      "midi": 70,
      "hit": false,
      "t": 182246.40000000034,
      "d": 96,
      "v": 80
    },
    {
      "midi": 67,
      "hit": false,
      "t": 182246.40000000034,
      "d": 96,
      "v": 80
    },
    {
      "midi": 64,
      "hit": false,
      "t": 182246.40000000034,
      "d": 96,
      "v": 80
    },
    {
      "midi": 38,
      "hit": false,
      "t": 182246.4000000017,
      "d": 96,
      "v": 80
    },
    {
      "midi": 70,
      "hit": false,
      "t": 182361.60000000036,
      "d": 96,
      "v": 80
    },
    {
      "midi": 67,
      "hit": false,
      "t": 182361.60000000036,
      "d": 96,
      "v": 80
    },
    {
      "midi": 64,
      "hit": false,
      "t": 182361.60000000036,
      "d": 96,
      "v": 80
    },
    {
      "midi": 60,
      "hit": false,
      "t": 182361.60000000036,
      "d": 96,
      "v": 80
    },
    {
      "midi": 38,
      "hit": false,
      "t": 182361.60000000172,
      "d": 96,
      "v": 80
    },
    {
      "midi": 62,
      "hit": false,
      "t": 182476.7999999998,
      "d": 1612.7999999999884,
      "v": 72
    },
    {
      "midi": 59,
      "hit": false,
      "t": 182476.7999999998,
      "d": 1612.7999999999884,
      "v": 72
    },
    {
      "midi": 55,
      "hit": false,
      "t": 182476.7999999998,
      "d": 3455.999999999971,
      "v": 72
    },
    {
      "midi": 67,
      "hit": false,
      "t": 182476.79999999987,
      "d": 1612.7999999999884,
      "v": 88
    },
    {
      "midi": 62,
      "hit": false,
      "t": 182476.79999999987,
      "d": 1612.7999999999884,
      "v": 88
    },
    {
      "midi": 59,
      "hit": false,
      "t": 182476.79999999987,
      "d": 1612.7999999999884,
      "v": 72
    },
    {
      "midi": 55,
      "hit": false,
      "t": 182476.79999999987,
      "d": 1612.7999999999884,
      "v": 72
    },
    {
      "midi": 71,
      "hit": false,
      "t": 182476.8000000001,
      "d": 48,
      "v": 64
    },
    {
      "midi": 50,
      "hit": false,
      "t": 182476.80000000173,
      "d": 403.20000000001164,
      "v": 80
    },
    {
      "midi": 74,
      "hit": false,
      "t": 182534.4000000001,
      "d": 48,
      "v": 64
    },
    {
      "midi": 78,
      "hit": false,
      "t": 182592.00000000012,
      "d": 1612.7999999999884,
      "v": 64
    },
    {
      "midi": 74,
      "hit": false,
      "t": 182592.00000000012,
      "d": 1612.7999999999884,
      "v": 64
    },
    {
      "midi": 71,
      "hit": false,
      "t": 182592.00000000012,
      "d": 1612.7999999999884,
      "v": 64
    },
    {
      "midi": 79,
      "hit": false,
      "t": 182937.60000000076,
      "d": 403.20000000001164,
      "v": 88
    },
    {
      "midi": 71,
      "hit": false,
      "t": 182937.60000000076,
      "d": 403.20000000001164,
      "v": 88
    },
    {
      "midi": 38,
      "hit": false,
      "t": 182937.60000000175,
      "d": 403.20000000001164,
      "v": 80
    },
    {
      "midi": 74,
      "hit": false,
      "t": 183398.40000000078,
      "d": 403.20000000001164,
      "v": 88
    },
    {
      "midi": 71,
      "hit": false,
      "t": 183398.40000000078,
      "d": 403.20000000001164,
      "v": 88
    },
    {
      "midi": 43,
      "hit": false,
      "t": 183398.40000000177,
      "d": 201.60000000000582,
      "v": 80
    },
    {
      "midi": 43,
      "hit": false,
      "t": 183628.80000000176,
      "d": 201.60000000000582,
      "v": 80
    },
    {
      "midi": 79,
      "hit": false,
      "t": 183859.2000000008,
      "d": 403.20000000001164,
      "v": 88
    },
    {
      "midi": 71,
      "hit": false,
      "t": 183859.2000000008,
      "d": 403.20000000001164,
      "v": 88
    },
    {
      "midi": 43,
      "hit": false,
      "t": 183859.20000000176,
      "d": 201.60000000000582,
      "v": 80
    },
    {
      "midi": 43,
      "hit": false,
      "t": 184089.60000000175,
      "d": 201.60000000000582,
      "v": 80
    },
    {
      "midi": 65,
      "hit": false,
      "t": 184319.9999999998,
      "d": 1612.7999999999884,
      "v": 72
    },
    {
      "midi": 60,
      "hit": false,
      "t": 184319.9999999998,
      "d": 1612.7999999999884,
      "v": 72
    },
    {
      "midi": 57,
      "hit": false,
      "t": 184319.9999999998,
      "d": 1612.7999999999884,
      "v": 72
    },
    {
      "midi": 65,
      "hit": false,
      "t": 184319.99999999985,
      "d": 1612.7999999999884,
      "v": 88
    },
    {
      "midi": 60,
      "hit": false,
      "t": 184319.99999999985,
      "d": 1612.7999999999884,
      "v": 88
    },
    {
      "midi": 57,
      "hit": false,
      "t": 184319.99999999985,
      "d": 1612.7999999999884,
      "v": 72
    },
    {
      "midi": 55,
      "hit": false,
      "t": 184319.99999999985,
      "d": 1612.7999999999884,
      "v": 72
    },
    {
      "midi": 76,
      "hit": false,
      "t": 184320.00000000012,
      "d": 1612.8000000000175,
      "v": 72
    },
    {
      "midi": 72,
      "hit": false,
      "t": 184320.00000000012,
      "d": 1612.8000000000175,
      "v": 72
    },
    {
      "midi": 69,
      "hit": false,
      "t": 184320.00000000012,
      "d": 1612.8000000000175,
      "v": 72
    },
    {
      "midi": 77,
      "hit": false,
      "t": 184320.00000000081,
      "d": 201.60000000000582,
      "v": 88
    },
    {
      "midi": 72,
      "hit": false,
      "t": 184320.00000000081,
      "d": 201.60000000000582,
      "v": 88
    },
    {
      "midi": 50,
      "hit": false,
      "t": 184320.00000000175,
      "d": 403.20000000001164,
      "v": 80
    },
    {
      "midi": 76,
      "hit": false,
      "t": 184550.4000000008,
      "d": 403.20000000001164,
      "v": 88
    },
    {
      "midi": 72,
      "hit": false,
      "t": 184550.4000000008,
      "d": 403.20000000001164,
      "v": 88
    },
    {
      "midi": 38,
      "hit": false,
      "t": 184780.80000000176,
      "d": 403.20000000001164,
      "v": 80
    },
    {
      "midi": 74,
      "hit": false,
      "t": 185011.20000000083,
      "d": 633.6000000000058,
      "v": 88
    },
    {
      "midi": 84,
      "hit": false,
      "t": 185241.60000000012,
      "d": 403.20000000001164,
      "v": 72
    },
    {
      "midi": 43,
      "hit": false,
      "t": 185241.60000000178,
      "d": 201.60000000000582,
      "v": 80
    },
    {
      "midi": 43,
      "hit": false,
      "t": 185472.00000000178,
      "d": 201.60000000000582,
      "v": 80
    },
    {
      "midi": 88,
      "hit": false,
      "t": 185702.40000000014,
      "d": 403.19999999998254,
      "v": 72
    },
    {
      "midi": 74,
      "hit": false,
      "t": 185702.40000000084,
      "d": 201.60000000000582,
      "v": 88
    },
    {
      "midi": 43,
      "hit": false,
      "t": 185702.40000000177,
      "d": 201.60000000000582,
      "v": 80
    },
    {
      "midi": 76,
      "hit": false,
      "t": 185932.80000000083,
      "d": 201.60000000000582,
      "v": 88
    },
    {
      "midi": 43,
      "hit": false,
      "t": 185932.80000000176,
      "d": 201.60000000000582,
      "v": 80
    },
    {
      "midi": 62,
      "hit": false,
      "t": 186163.19999999978,
      "d": 1612.7999999999884,
      "v": 72
    },
    {
      "midi": 59,
      "hit": false,
      "t": 186163.19999999978,
      "d": 1612.7999999999884,
      "v": 72
    },
    {
      "midi": 55,
      "hit": false,
      "t": 186163.19999999978,
      "d": 1612.7999999999884,
      "v": 72
    },
    {
      "midi": 67,
      "hit": false,
      "t": 186163.19999999984,
      "d": 1612.7999999999884,
      "v": 88
    },
    {
      "midi": 62,
      "hit": false,
      "t": 186163.19999999984,
      "d": 1612.7999999999884,
      "v": 88
    },
    {
      "midi": 59,
      "hit": false,
      "t": 186163.19999999984,
      "d": 1612.7999999999884,
      "v": 72
    },
    {
      "midi": 55,
      "hit": false,
      "t": 186163.19999999984,
      "d": 1612.7999999999884,
      "v": 72
    },
    {
      "midi": 71,
      "hit": false,
      "t": 186163.20000000013,
      "d": 48,
      "v": 64
    },
    {
      "midi": 79,
      "hit": false,
      "t": 186163.20000000083,
      "d": 403.20000000001164,
      "v": 88
    },
    {
      "midi": 71,
      "hit": false,
      "t": 186163.20000000083,
      "d": 403.20000000001164,
      "v": 88
    },
    {
      "midi": 50,
      "hit": false,
      "t": 186163.20000000176,
      "d": 403.20000000001164,
      "v": 80
    },
    {
      "midi": 74,
      "hit": false,
      "t": 186220.80000000013,
      "d": 48,
      "v": 64
    },
    {
      "midi": 78,
      "hit": false,
      "t": 186278.40000000014,
      "d": 1612.7999999999884,
      "v": 64
    },
    {
      "midi": 74,
      "hit": false,
      "t": 186278.40000000014,
      "d": 1612.7999999999884,
      "v": 64
    },
    {
      "midi": 71,
      "hit": false,
      "t": 186278.40000000014,
      "d": 1612.7999999999884,
      "v": 64
    },
    {
      "midi": 79,
      "hit": false,
      "t": 186624.00000000084,
      "d": 403.20000000001164,
      "v": 88
    },
    {
      "midi": 71,
      "hit": false,
      "t": 186624.00000000084,
      "d": 403.20000000001164,
      "v": 88
    },
    {
      "midi": 38,
      "hit": false,
      "t": 186624.00000000178,
      "d": 403.20000000001164,
      "v": 80
    },
    {
      "midi": 74,
      "hit": false,
      "t": 187084.80000000086,
      "d": 403.20000000001164,
      "v": 88
    },
    {
      "midi": 71,
      "hit": false,
      "t": 187084.80000000086,
      "d": 403.20000000001164,
      "v": 88
    },
    {
      "midi": 43,
      "hit": false,
      "t": 187084.8000000018,
      "d": 201.60000000000582,
      "v": 80
    },
    {
      "midi": 43,
      "hit": false,
      "t": 187315.2000000018,
      "d": 201.60000000000582,
      "v": 80
    },
    {
      "midi": 79,
      "hit": false,
      "t": 187545.60000000088,
      "d": 403.20000000001164,
      "v": 88
    },
    {
      "midi": 71,
      "hit": false,
      "t": 187545.60000000088,
      "d": 403.20000000001164,
      "v": 88
    },
    {
      "midi": 43,
      "hit": false,
      "t": 187545.60000000178,
      "d": 201.60000000000582,
      "v": 80
    },
    {
      "midi": 43,
      "hit": false,
      "t": 187776.00000000178,
      "d": 201.60000000000582,
      "v": 80
    },
    {
      "midi": 65,
      "hit": false,
      "t": 188006.39999999976,
      "d": 1612.7999999999884,
      "v": 72
    },
    {
      "midi": 60,
      "hit": false,
      "t": 188006.39999999976,
      "d": 1612.7999999999884,
      "v": 72
    },
    {
      "midi": 57,
      "hit": false,
      "t": 188006.39999999976,
      "d": 1612.7999999999884,
      "v": 72
    },
    {
      "midi": 55,
      "hit": false,
      "t": 188006.39999999976,
      "d": 1612.7999999999884,
      "v": 72
    },
    {
      "midi": 65,
      "hit": false,
      "t": 188006.39999999982,
      "d": 1612.7999999999884,
      "v": 88
    },
    {
      "midi": 60,
      "hit": false,
      "t": 188006.39999999982,
      "d": 1612.7999999999884,
      "v": 88
    },
    {
      "midi": 57,
      "hit": false,
      "t": 188006.39999999982,
      "d": 1612.7999999999884,
      "v": 72
    },
    {
      "midi": 55,
      "hit": false,
      "t": 188006.39999999982,
      "d": 1612.7999999999884,
      "v": 72
    },
    {
      "midi": 76,
      "hit": false,
      "t": 188006.40000000014,
      "d": 1612.8000000000175,
      "v": 72
    },
    {
      "midi": 72,
      "hit": false,
      "t": 188006.40000000014,
      "d": 1612.8000000000175,
      "v": 72
    },
    {
      "midi": 69,
      "hit": false,
      "t": 188006.40000000014,
      "d": 1612.8000000000175,
      "v": 72
    },
    {
      "midi": 77,
      "hit": false,
      "t": 188006.4000000009,
      "d": 201.60000000000582,
      "v": 88
    },
    {
      "midi": 72,
      "hit": false,
      "t": 188006.4000000009,
      "d": 201.60000000000582,
      "v": 88
    },
    {
      "midi": 50,
      "hit": false,
      "t": 188006.40000000177,
      "d": 403.20000000001164,
      "v": 80
    },
    {
      "midi": 74,
      "hit": false,
      "t": 188236.8000000009,
      "d": 201.60000000000582,
      "v": 88
    },
    {
      "midi": 76,
      "hit": false,
      "t": 188467.20000000088,
      "d": 201.60000000000582,
      "v": 88
    },
    {
      "midi": 38,
      "hit": false,
      "t": 188467.2000000018,
      "d": 403.20000000001164,
      "v": 80
    },
    {
      "midi": 74,
      "hit": false,
      "t": 188697.60000000088,
      "d": 1036.7999999999884,
      "v": 88
    },
    {
      "midi": 84,
      "hit": false,
      "t": 188928.00000000015,
      "d": 403.20000000001164,
      "v": 72
    },
    {
      "midi": 43,
      "hit": false,
      "t": 188928.0000000018,
      "d": 201.60000000000582,
      "v": 80
    },
    {
      "midi": 43,
      "hit": false,
      "t": 189158.4000000018,
      "d": 201.60000000000582,
      "v": 80
    },
    {
      "midi": 88,
      "hit": false,
      "t": 189388.80000000016,
      "d": 403.19999999998254,
      "v": 72
    },
    {
      "midi": 43,
      "hit": false,
      "t": 189388.8000000018,
      "d": 201.60000000000582,
      "v": 80
    },
    {
      "midi": 43,
      "hit": false,
      "t": 189619.2000000018,
      "d": 201.60000000000582,
      "v": 80
    },
    {
      "midi": 62,
      "hit": false,
      "t": 189849.59999999974,
      "d": 1612.7999999999884,
      "v": 72
    },
    {
      "midi": 59,
      "hit": false,
      "t": 189849.59999999974,
      "d": 1612.7999999999884,
      "v": 72
    },
    {
      "midi": 55,
      "hit": false,
      "t": 189849.59999999974,
      "d": 3455.999999999971,
      "v": 72
    },
    {
      "midi": 67,
      "hit": false,
      "t": 189849.5999999998,
      "d": 1612.7999999999884,
      "v": 88
    },
    {
      "midi": 62,
      "hit": false,
      "t": 189849.5999999998,
      "d": 1612.7999999999884,
      "v": 88
    },
    {
      "midi": 59,
      "hit": false,
      "t": 189849.5999999998,
      "d": 1612.7999999999884,
      "v": 72
    },
    {
      "midi": 55,
      "hit": false,
      "t": 189849.5999999998,
      "d": 1612.7999999999884,
      "v": 72
    },
    {
      "midi": 71,
      "hit": false,
      "t": 189849.60000000015,
      "d": 48,
      "v": 64
    },
    {
      "midi": 50,
      "hit": false,
      "t": 189849.60000000178,
      "d": 403.20000000001164,
      "v": 80
    },
    {
      "midi": 74,
      "hit": false,
      "t": 189907.20000000016,
      "d": 48,
      "v": 64
    },
    {
      "midi": 78,
      "hit": false,
      "t": 189964.80000000016,
      "d": 1612.7999999999884,
      "v": 64
    },
    {
      "midi": 74,
      "hit": false,
      "t": 189964.80000000016,
      "d": 1612.7999999999884,
      "v": 64
    },
    {
      "midi": 71,
      "hit": false,
      "t": 189964.80000000016,
      "d": 1612.7999999999884,
      "v": 64
    },
    {
      "midi": 83,
      "hit": false,
      "t": 190310.40000000087,
      "d": 403.20000000001164,
      "v": 88
    },
    {
      "midi": 79,
      "hit": false,
      "t": 190310.40000000087,
      "d": 403.20000000001164,
      "v": 88
    },
    {
      "midi": 38,
      "hit": false,
      "t": 190310.4000000018,
      "d": 403.20000000001164,
      "v": 80
    },
    {
      "midi": 79,
      "hit": false,
      "t": 190771.20000000088,
      "d": 403.20000000001164,
      "v": 88
    },
    {
      "midi": 74,
      "hit": false,
      "t": 190771.20000000088,
      "d": 403.20000000001164,
      "v": 88
    },
    {
      "midi": 43,
      "hit": false,
      "t": 190771.20000000182,
      "d": 201.60000000000582,
      "v": 80
    },
    {
      "midi": 43,
      "hit": false,
      "t": 191001.6000000018,
      "d": 201.60000000000582,
      "v": 80
    },
    {
      "midi": 83,
      "hit": false,
      "t": 191232.0000000009,
      "d": 403.20000000001164,
      "v": 88
    },
    {
      "midi": 79,
      "hit": false,
      "t": 191232.0000000009,
      "d": 403.20000000001164,
      "v": 88
    },
    {
      "midi": 43,
      "hit": false,
      "t": 191232.0000000018,
      "d": 201.60000000000582,
      "v": 80
    },
    {
      "midi": 43,
      "hit": false,
      "t": 191462.4000000018,
      "d": 201.60000000000582,
      "v": 80
    },
    {
      "midi": 65,
      "hit": false,
      "t": 191692.79999999973,
      "d": 1612.7999999999884,
      "v": 72
    },
    {
      "midi": 60,
      "hit": false,
      "t": 191692.79999999973,
      "d": 1612.7999999999884,
      "v": 72
    },
    {
      "midi": 57,
      "hit": false,
      "t": 191692.79999999973,
      "d": 1612.7999999999884,
      "v": 72
    },
    {
      "midi": 65,
      "hit": false,
      "t": 191692.79999999978,
      "d": 1612.7999999999884,
      "v": 88
    },
    {
      "midi": 60,
      "hit": false,
      "t": 191692.79999999978,
      "d": 1612.7999999999884,
      "v": 88
    },
    {
      "midi": 57,
      "hit": false,
      "t": 191692.79999999978,
      "d": 1612.7999999999884,
      "v": 72
    },
    {
      "midi": 55,
      "hit": false,
      "t": 191692.79999999978,
      "d": 1612.7999999999884,
      "v": 72
    },
    {
      "midi": 76,
      "hit": false,
      "t": 191692.80000000016,
      "d": 1612.8000000000175,
      "v": 72
    },
    {
      "midi": 72,
      "hit": false,
      "t": 191692.80000000016,
      "d": 1612.8000000000175,
      "v": 72
    },
    {
      "midi": 69,
      "hit": false,
      "t": 191692.80000000016,
      "d": 1612.8000000000175,
      "v": 72
    },
    {
      "midi": 81,
      "hit": false,
      "t": 191692.80000000092,
      "d": 201.60000000000582,
      "v": 88
    },
    {
      "midi": 77,
      "hit": false,
      "t": 191692.80000000092,
      "d": 201.60000000000582,
      "v": 88
    },
    {
      "midi": 50,
      "hit": false,
      "t": 191692.8000000018,
      "d": 403.20000000001164,
      "v": 80
    },
    {
      "midi": 79,
      "hit": false,
      "t": 191923.2000000009,
      "d": 201.60000000000582,
      "v": 88
    },
    {
      "midi": 76,
      "hit": false,
      "t": 191923.2000000009,
      "d": 201.60000000000582,
      "v": 88
    },
    {
      "midi": 79,
      "hit": false,
      "t": 192153.6000000009,
      "d": 201.60000000000582,
      "v": 88
    },
    {
      "midi": 76,
      "hit": false,
      "t": 192153.6000000009,
      "d": 201.60000000000582,
      "v": 88
    },
    {
      "midi": 38,
      "hit": false,
      "t": 192153.6000000018,
      "d": 403.20000000001164,
      "v": 80
    },
    {
      "midi": 77,
      "hit": false,
      "t": 192384.0000000009,
      "d": 633.6000000000058,
      "v": 88
    },
    {
      "midi": 74,
      "hit": false,
      "t": 192384.0000000009,
      "d": 633.6000000000058,
      "v": 88
    },
    {
      "midi": 84,
      "hit": false,
      "t": 192614.40000000017,
      "d": 403.20000000001164,
      "v": 72
    },
    {
      "midi": 43,
      "hit": false,
      "t": 192614.40000000183,
      "d": 201.60000000000582,
      "v": 80
    },
    {
      "midi": 43,
      "hit": false,
      "t": 192844.80000000182,
      "d": 201.60000000000582,
      "v": 80
    },
    {
      "midi": 88,
      "hit": false,
      "t": 193075.2000000002,
      "d": 403.19999999998254,
      "v": 72
    },
    {
      "midi": 77,
      "hit": false,
      "t": 193075.2000000009,
      "d": 201.60000000000582,
      "v": 88
    },
    {
      "midi": 74,
      "hit": false,
      "t": 193075.2000000009,
      "d": 201.60000000000582,
      "v": 88
    },
    {
      "midi": 43,
      "hit": false,
      "t": 193075.20000000182,
      "d": 201.60000000000582,
      "v": 80
    },
    {
      "midi": 79,
      "hit": false,
      "t": 193305.6000000009,
      "d": 201.60000000000582,
      "v": 88
    },
    {
      "midi": 76,
      "hit": false,
      "t": 193305.6000000009,
      "d": 201.60000000000582,
      "v": 88
    },
    {
      "midi": 43,
      "hit": false,
      "t": 193305.6000000018,
      "d": 201.60000000000582,
      "v": 80
    },
    {
      "midi": 62,
      "hit": false,
      "t": 193535.9999999997,
      "d": 1612.7999999999884,
      "v": 72
    },
    {
      "midi": 59,
      "hit": false,
      "t": 193535.9999999997,
      "d": 1612.7999999999884,
      "v": 72
    },
    {
      "midi": 55,
      "hit": false,
      "t": 193535.9999999997,
      "d": 7142.399999999965,
      "v": 72
    },
    {
      "midi": 67,
      "hit": false,
      "t": 193535.99999999977,
      "d": 1612.7999999999884,
      "v": 88
    },
    {
      "midi": 62,
      "hit": false,
      "t": 193535.99999999977,
      "d": 1612.7999999999884,
      "v": 88
    },
    {
      "midi": 59,
      "hit": false,
      "t": 193535.99999999977,
      "d": 1612.7999999999884,
      "v": 72
    },
    {
      "midi": 55,
      "hit": false,
      "t": 193535.99999999977,
      "d": 1612.7999999999884,
      "v": 72
    },
    {
      "midi": 71,
      "hit": false,
      "t": 193536.00000000017,
      "d": 48,
      "v": 64
    },
    {
      "midi": 83,
      "hit": false,
      "t": 193536.0000000009,
      "d": 403.20000000001164,
      "v": 88
    },
    {
      "midi": 79,
      "hit": false,
      "t": 193536.0000000009,
      "d": 403.20000000001164,
      "v": 88
    },
    {
      "midi": 50,
      "hit": false,
      "t": 193536.0000000018,
      "d": 403.20000000001164,
      "v": 80
    },
    {
      "midi": 74,
      "hit": false,
      "t": 193593.60000000018,
      "d": 48,
      "v": 64
    },
    {
      "midi": 78,
      "hit": false,
      "t": 193651.2000000002,
      "d": 1612.7999999999884,
      "v": 64
    },
    {
      "midi": 74,
      "hit": false,
      "t": 193651.2000000002,
      "d": 1612.7999999999884,
      "v": 64
    },
    {
      "midi": 71,
      "hit": false,
      "t": 193651.2000000002,
      "d": 1612.7999999999884,
      "v": 64
    },
    {
      "midi": 83,
      "hit": false,
      "t": 193996.80000000092,
      "d": 403.20000000001164,
      "v": 88
    },
    {
      "midi": 79,
      "hit": false,
      "t": 193996.80000000092,
      "d": 403.20000000001164,
      "v": 88
    },
    {
      "midi": 38,
      "hit": false,
      "t": 193996.80000000182,
      "d": 403.20000000001164,
      "v": 80
    },
    {
      "midi": 79,
      "hit": false,
      "t": 194457.60000000094,
      "d": 403.20000000001164,
      "v": 88
    },
    {
      "midi": 74,
      "hit": false,
      "t": 194457.60000000094,
      "d": 403.20000000001164,
      "v": 88
    },
    {
      "midi": 43,
      "hit": false,
      "t": 194457.60000000184,
      "d": 201.60000000000582,
      "v": 80
    },
    {
      "midi": 43,
      "hit": false,
      "t": 194688.00000000183,
      "d": 201.60000000000582,
      "v": 80
    },
    {
      "midi": 83,
      "hit": false,
      "t": 194918.40000000095,
      "d": 403.20000000001164,
      "v": 88
    },
    {
      "midi": 79,
      "hit": false,
      "t": 194918.40000000095,
      "d": 403.20000000001164,
      "v": 88
    },
    {
      "midi": 43,
      "hit": false,
      "t": 194918.40000000183,
      "d": 201.60000000000582,
      "v": 80
    },
    {
      "midi": 43,
      "hit": false,
      "t": 195148.80000000182,
      "d": 201.60000000000582,
      "v": 80
    },
    {
      "midi": 62,
      "hit": false,
      "t": 195379.1999999997,
      "d": 3456,
      "v": 72
    },
    {
      "midi": 60,
      "hit": false,
      "t": 195379.1999999997,
      "d": 3456,
      "v": 72
    },
    {
      "midi": 57,
      "hit": false,
      "t": 195379.1999999997,
      "d": 3456,
      "v": 72
    },
    {
      "midi": 65,
      "hit": false,
      "t": 195379.19999999975,
      "d": 1612.7999999999884,
      "v": 88
    },
    {
      "midi": 60,
      "hit": false,
      "t": 195379.19999999975,
      "d": 1612.7999999999884,
      "v": 88
    },
    {
      "midi": 57,
      "hit": false,
      "t": 195379.19999999975,
      "d": 1612.7999999999884,
      "v": 72
    },
    {
      "midi": 55,
      "hit": false,
      "t": 195379.19999999975,
      "d": 1612.7999999999884,
      "v": 72
    },
    {
      "midi": 76,
      "hit": false,
      "t": 195379.2000000002,
      "d": 1612.8000000000175,
      "v": 72
    },
    {
      "midi": 72,
      "hit": false,
      "t": 195379.2000000002,
      "d": 1612.8000000000175,
      "v": 72
    },
    {
      "midi": 69,
      "hit": false,
      "t": 195379.2000000002,
      "d": 1612.8000000000175,
      "v": 72
    },
    {
      "midi": 81,
      "hit": false,
      "t": 195379.20000000097,
      "d": 201.60000000000582,
      "v": 88
    },
    {
      "midi": 77,
      "hit": false,
      "t": 195379.20000000097,
      "d": 201.60000000000582,
      "v": 88
    },
    {
      "midi": 50,
      "hit": false,
      "t": 195379.20000000182,
      "d": 403.20000000001164,
      "v": 80
    },
    {
      "midi": 77,
      "hit": false,
      "t": 195609.60000000097,
      "d": 201.60000000000582,
      "v": 88
    },
    {
      "midi": 74,
      "hit": false,
      "t": 195609.60000000097,
      "d": 201.60000000000582,
      "v": 88
    },
    {
      "midi": 79,
      "hit": false,
      "t": 195840.00000000096,
      "d": 201.60000000000582,
      "v": 88
    },
    {
      "midi": 76,
      "hit": false,
      "t": 195840.00000000096,
      "d": 201.60000000000582,
      "v": 88
    },
    {
      "midi": 38,
      "hit": false,
      "t": 195840.00000000183,
      "d": 403.20000000001164,
      "v": 80
    },
    {
      "midi": 84,
      "hit": false,
      "t": 196070.40000000095,
      "d": 633.6000000000058,
      "v": 88
    },
    {
      "midi": 77,
      "hit": false,
      "t": 196070.40000000095,
      "d": 633.6000000000058,
      "v": 88
    },
    {
      "midi": 74,
      "hit": false,
      "t": 196070.40000000095,
      "d": 633.6000000000058,
      "v": 88
    },
    {
      "midi": 84,
      "hit": false,
      "t": 196300.8000000002,
      "d": 403.20000000001164,
      "v": 72
    },
    {
      "midi": 43,
      "hit": false,
      "t": 196300.80000000185,
      "d": 201.60000000000582,
      "v": 80
    },
    {
      "midi": 43,
      "hit": false,
      "t": 196531.20000000185,
      "d": 201.60000000000582,
      "v": 80
    },
    {
      "midi": 88,
      "hit": false,
      "t": 196761.6000000002,
      "d": 403.19999999998254,
      "v": 72
    },
    {
      "midi": 88,
      "hit": false,
      "t": 196761.60000000036,
      "d": 403.20000000001164,
      "v": 88
    },
    {
      "midi": 43,
      "hit": false,
      "t": 196761.60000000184,
      "d": 201.60000000000582,
      "v": 80
    },
    {
      "midi": 43,
      "hit": false,
      "t": 196992.00000000183,
      "d": 201.60000000000582,
      "v": 80
    },
    {
      "midi": 64,
      "hit": false,
      "t": 197222.39999999973,
      "d": 1612.7999999999884,
      "v": 88
    },
    {
      "midi": 60,
      "hit": false,
      "t": 197222.39999999973,
      "d": 1612.7999999999884,
      "v": 88
    },
    {
      "midi": 57,
      "hit": false,
      "t": 197222.39999999973,
      "d": 1612.7999999999884,
      "v": 72
    },
    {
      "midi": 53,
      "hit": false,
      "t": 197222.39999999973,
      "d": 1612.7999999999884,
      "v": 72
    },
    {
      "midi": 89,
      "hit": false,
      "t": 197222.40000000037,
      "d": 201.60000000000582,
      "v": 88
    },
    {
      "midi": 84,
      "hit": false,
      "t": 197222.40000000037,
      "d": 201.60000000000582,
      "v": 88
    },
    {
      "midi": 81,
      "hit": false,
      "t": 197222.40000000037,
      "d": 201.60000000000582,
      "v": 88
    },
    {
      "midi": 88,
      "hit": false,
      "t": 197452.80000000037,
      "d": 201.60000000000582,
      "v": 88
    },
    {
      "midi": 89,
      "hit": false,
      "t": 197683.20000000036,
      "d": 201.60000000000582,
      "v": 88
    },
    {
      "midi": 86,
      "hit": false,
      "t": 197913.60000000036,
      "d": 432,
      "v": 88
    },
    {
      "midi": 84,
      "hit": false,
      "t": 198374.40000000034,
      "d": 403.20000000001164,
      "v": 88
    },
    {
      "midi": 83,
      "hit": false,
      "t": 198835.20000000036,
      "d": 1843.1999999999825,
      "v": 88
    },
    {
      "midi": 62,
      "hit": false,
      "t": 199065.5999999997,
      "d": 1612.7999999999884,
      "v": 72
    },
    {
      "midi": 59,
      "hit": false,
      "t": 199065.5999999997,
      "d": 1612.7999999999884,
      "v": 72
    },
    {
      "midi": 67,
      "hit": false,
      "t": 199065.59999999971,
      "d": 1612.7999999999884,
      "v": 88
    },
    {
      "midi": 62,
      "hit": false,
      "t": 199065.59999999971,
      "d": 1612.7999999999884,
      "v": 88
    },
    {
      "midi": 55,
      "hit": false,
      "t": 199065.59999999971,
      "d": 1612.7999999999884,
      "v": 72
    },
    {
      "midi": 79,
      "hit": false,
      "t": 199065.60000000036,
      "d": 1612.7999999999884,
      "v": 88
    },
    {
      "midi": 74,
      "hit": false,
      "t": 199065.60000000036,
      "d": 1612.7999999999884,
      "v": 88
    },
    {
      "midi": 48,
      "hit": false,
      "t": 199065.60000000082,
      "d": 48,
      "v": 72
    },
    {
      "midi": 45,
      "hit": false,
      "t": 199065.60000000082,
      "d": 48,
      "v": 72
    },
    {
      "midi": 42,
      "hit": false,
      "t": 199065.60000000082,
      "d": 48,
      "v": 72
    },
    {
      "midi": 50,
      "hit": false,
      "t": 199123.20000000083,
      "d": 48,
      "v": 72
    },
    {
      "midi": 47,
      "hit": false,
      "t": 199123.20000000083,
      "d": 48,
      "v": 72
    },
    {
      "midi": 43,
      "hit": false,
      "t": 199123.20000000083,
      "d": 48,
      "v": 72
    },
    {
      "midi": 52,
      "hit": false,
      "t": 199180.80000000083,
      "d": 48,
      "v": 72
    },
    {
      "midi": 48,
      "hit": false,
      "t": 199180.80000000083,
      "d": 48,
      "v": 72
    },
    {
      "midi": 45,
      "hit": false,
      "t": 199180.80000000083,
      "d": 48,
      "v": 72
    },
    {
      "midi": 54,
      "hit": false,
      "t": 199238.40000000084,
      "d": 48,
      "v": 72
    },
    {
      "midi": 50,
      "hit": false,
      "t": 199238.40000000084,
      "d": 48,
      "v": 72
    },
    {
      "midi": 47,
      "hit": false,
      "t": 199238.40000000084,
      "d": 48,
      "v": 72
    },
    {
      "midi": 55,
      "hit": false,
      "t": 199296.00000000084,
      "d": 48,
      "v": 72
    },
    {
      "midi": 52,
      "hit": false,
      "t": 199296.00000000084,
      "d": 48,
      "v": 72
    },
    {
      "midi": 48,
      "hit": false,
      "t": 199296.00000000084,
      "d": 48,
      "v": 72
    },
    {
      "midi": 57,
      "hit": false,
      "t": 199353.60000000085,
      "d": 48,
      "v": 72
    },
    {
      "midi": 54,
      "hit": false,
      "t": 199353.60000000085,
      "d": 48,
      "v": 72
    },
    {
      "midi": 50,
      "hit": false,
      "t": 199353.60000000085,
      "d": 48,
      "v": 72
    },
    {
      "midi": 59,
      "hit": false,
      "t": 199411.20000000086,
      "d": 48,
      "v": 72
    },
    {
      "midi": 55,
      "hit": false,
      "t": 199411.20000000086,
      "d": 48,
      "v": 72
    },
    {
      "midi": 52,
      "hit": false,
      "t": 199411.20000000086,
      "d": 48,
      "v": 72
    },
    {
      "midi": 60,
      "hit": false,
      "t": 199468.80000000086,
      "d": 48,
      "v": 72
    },
    {
      "midi": 57,
      "hit": false,
      "t": 199468.80000000086,
      "d": 48,
      "v": 72
    },
    {
      "midi": 54,
      "hit": false,
      "t": 199468.80000000086,
      "d": 48,
      "v": 72
    },
    {
      "midi": 62,
      "hit": false,
      "t": 199526.40000000087,
      "d": 1209.6000000000058,
      "v": 72
    },
    {
      "midi": 59,
      "hit": false,
      "t": 199526.40000000087,
      "d": 1209.6000000000058,
      "v": 72
    },
    {
      "midi": 55,
      "hit": false,
      "t": 199526.40000000087,
      "d": 1209.6000000000058,
      "v": 72
    }
  ]
}