{
  "jsonPath": "Animes/Akazukin Cha Cha MIDI Collection/kimi-iro-omoi-short.json",
  "path": "Animes\\Akazukin Cha Cha MIDI Collection\\Kimi Iro Omoi (short).mid",
  "name": "Kimi Iro Omoi (short)",
  "difficulty": "Advanced",
  "bpm": 147.0000955500621,
  "notes": [
    {
      "midi": 66,
      "hit": false,
      "t": 1428.5705000000003,
      "d": 374.14941666666664,
      "v": 113
    },
    {
      "midi": 69,
      "hit": false,
      "t": 1496.597666666667,
      "d": 68.02716666666674,
      "v": 95
    },
    {
      "midi": 74,
      "hit": false,
      "t": 1564.6248333333338,
      "d": 68.02716666666674,
      "v": 85
    },
    {
      "midi": 47,
      "hit": false,
      "t": 1632.6520000000003,
      "d": 204.0815,
      "v": 124
    },
    {
      "midi": 78,
      "hit": false,
      "t": 1632.6520000000005,
      "d": 204.0815,
      "v": 120
    },
    {
      "midi": 59,
      "hit": false,
      "t": 1658.1621875000003,
      "d": 204.0815,
      "v": 124
    },
    {
      "midi": 66,
      "hit": false,
      "t": 1836.7335000000003,
      "d": 170.06791666666663,
      "v": 103
    },
    {
      "midi": 54,
      "hit": false,
      "t": 1836.7335000000003,
      "d": 204.0815,
      "v": 110
    },
    {
      "midi": 78,
      "hit": false,
      "t": 1836.7335000000005,
      "d": 195.57810416666666,
      "v": 116
    },
    {
      "midi": 66,
      "hit": false,
      "t": 1862.2436875000003,
      "d": 204.08150000000023,
      "v": 110
    },
    {
      "midi": 78,
      "hit": false,
      "t": 2032.3116041666672,
      "d": 170.06791666666686,
      "v": 120
    },
    {
      "midi": 66,
      "hit": false,
      "t": 2040.8150000000003,
      "d": 170.06791666666663,
      "v": 111
    },
    {
      "midi": 59,
      "hit": false,
      "t": 2040.8150000000003,
      "d": 204.0815,
      "v": 120
    },
    {
      "midi": 71,
      "hit": false,
      "t": 2066.3251875000005,
      "d": 204.08150000000023,
      "v": 120
    },
    {
      "midi": 66,
      "hit": false,
      "t": 2244.8965000000003,
      "d": 170.06791666666686,
      "v": 119
    },
    {
      "midi": 57,
      "hit": false,
      "t": 2244.8965000000003,
      "d": 408.163,
      "v": 106
    },
    {
      "midi": 78,
      "hit": false,
      "t": 2244.8965000000007,
      "d": 170.06791666666686,
      "v": 114
    },
    {
      "midi": 69,
      "hit": false,
      "t": 2270.4066875000008,
      "d": 408.163,
      "v": 106
    },
    {
      "midi": 66,
      "hit": false,
      "t": 2448.9780000000005,
      "d": 170.06791666666686,
      "v": 120
    },
    {
      "midi": 78,
      "hit": false,
      "t": 2448.978000000001,
      "d": 170.06791666666686,
      "v": 123
    },
    {
      "midi": 64,
      "hit": false,
      "t": 2653.0595000000003,
      "d": 612.2444999999998,
      "v": 88
    },
    {
      "midi": 61,
      "hit": false,
      "t": 2653.0595000000008,
      "d": 391.1562083333333,
      "v": 113
    },
    {
      "midi": 73,
      "hit": false,
      "t": 2653.059500000001,
      "d": 476.19016666666676,
      "v": 106
    },
    {
      "midi": 76,
      "hit": false,
      "t": 2678.569687500001,
      "d": 612.2445000000002,
      "v": 88
    },
    {
      "midi": 59,
      "hit": false,
      "t": 3061.2225000000008,
      "d": 714.2852500000004,
      "v": 113
    },
    {
      "midi": 64,
      "hit": false,
      "t": 3163.2632500000013,
      "d": 51.02037500000006,
      "v": 93
    },
    {
      "midi": 68,
      "hit": false,
      "t": 3214.2836250000014,
      "d": 51.02037500000006,
      "v": 80
    },
    {
      "midi": 40,
      "hit": false,
      "t": 3265.304,
      "d": 204.08150000000023,
      "v": 124
    },
    {
      "midi": 71,
      "hit": false,
      "t": 3265.3040000000015,
      "d": 1471.087479166667,
      "v": 110
    },
    {
      "midi": 52,
      "hit": false,
      "t": 3290.814187500001,
      "d": 204.08150000000023,
      "v": 124
    },
    {
      "midi": 50,
      "hit": false,
      "t": 3469.3855000000003,
      "d": 204.08150000000023,
      "v": 110
    },
    {
      "midi": 62,
      "hit": false,
      "t": 3494.8956875000013,
      "d": 204.08150000000023,
      "v": 110
    },
    {
      "midi": 56,
      "hit": false,
      "t": 3673.4670000000006,
      "d": 204.08150000000023,
      "v": 120
    },
    {
      "midi": 68,
      "hit": false,
      "t": 3698.9771875000015,
      "d": 204.08150000000023,
      "v": 120
    },
    {
      "midi": 61,
      "hit": false,
      "t": 3877.548500000001,
      "d": 408.16300000000047,
      "v": 120
    },
    {
      "midi": 59,
      "hit": false,
      "t": 3877.5485000000012,
      "d": 170.06791666666686,
      "v": 103
    },
    {
      "midi": 73,
      "hit": false,
      "t": 3903.0586875000017,
      "d": 408.16299999999956,
      "v": 120
    },
    {
      "midi": 59,
      "hit": false,
      "t": 4081.6300000000015,
      "d": 204.08149999999978,
      "v": 123
    },
    {
      "midi": 64,
      "hit": false,
      "t": 4285.711500000001,
      "d": 348.63922916666706,
      "v": 121
    },
    {
      "midi": 59,
      "hit": false,
      "t": 4285.711500000001,
      "d": 408.16300000000047,
      "v": 101
    },
    {
      "midi": 71,
      "hit": false,
      "t": 4311.221687500001,
      "d": 408.16300000000047,
      "v": 101
    },
    {
      "midi": 64,
      "hit": false,
      "t": 4693.874500000002,
      "d": 374.1494166666671,
      "v": 116
    },
    {
      "midi": 64,
      "hit": false,
      "t": 4693.874500000002,
      "d": 195.5781041666669,
      "v": 88
    },
    {
      "midi": 76,
      "hit": false,
      "t": 4719.384687500002,
      "d": 195.5781041666669,
      "v": 88
    },
    {
      "midi": 69,
      "hit": false,
      "t": 4795.915250000002,
      "d": 51.02037500000006,
      "v": 100
    },
    {
      "midi": 73,
      "hit": false,
      "t": 4846.935625000002,
      "d": 51.02037500000006,
      "v": 85
    },
    {
      "midi": 45,
      "hit": false,
      "t": 4897.956000000002,
      "d": 204.08150000000023,
      "v": 105
    },
    {
      "midi": 76,
      "hit": false,
      "t": 4897.956000000002,
      "d": 204.08150000000023,
      "v": 120
    },
    {
      "midi": 57,
      "hit": false,
      "t": 4914.962791666669,
      "d": 204.08150000000023,
      "v": 122
    },
    {
      "midi": 57,
      "hit": false,
      "t": 4923.466187500002,
      "d": 204.08150000000023,
      "v": 105
    },
    {
      "midi": 69,
      "hit": false,
      "t": 4940.472979166669,
      "d": 204.08150000000023,
      "v": 122
    },
    {
      "midi": 64,
      "hit": false,
      "t": 5102.037500000002,
      "d": 170.06791666666686,
      "v": 103
    },
    {
      "midi": 56,
      "hit": false,
      "t": 5102.037500000002,
      "d": 204.08150000000023,
      "v": 110
    },
    {
      "midi": 76,
      "hit": false,
      "t": 5102.037500000002,
      "d": 195.5781041666669,
      "v": 116
    },
    {
      "midi": 68,
      "hit": false,
      "t": 5127.547687500002,
      "d": 204.08150000000023,
      "v": 110
    },
    {
      "midi": 76,
      "hit": false,
      "t": 5297.615604166669,
      "d": 170.06791666666686,
      "v": 120
    },
    {
      "midi": 64,
      "hit": false,
      "t": 5306.119000000002,
      "d": 170.06791666666686,
      "v": 111
    },
    {
      "midi": 61,
      "hit": false,
      "t": 5306.119000000002,
      "d": 204.08150000000023,
      "v": 120
    },
    {
      "midi": 73,
      "hit": false,
      "t": 5331.629187500002,
      "d": 204.08150000000023,
      "v": 120
    },
    {
      "midi": 64,
      "hit": false,
      "t": 5510.200500000003,
      "d": 170.06791666666686,
      "v": 119
    },
    {
      "midi": 59,
      "hit": false,
      "t": 5510.200500000003,
      "d": 408.16300000000047,
      "v": 106
    },
    {
      "midi": 76,
      "hit": false,
      "t": 5510.200500000003,
      "d": 170.06791666666686,
      "v": 114
    },
    {
      "midi": 71,
      "hit": false,
      "t": 5535.710687500003,
      "d": 408.16300000000047,
      "v": 106
    },
    {
      "midi": 64,
      "hit": false,
      "t": 5714.282000000003,
      "d": 170.06791666666686,
      "v": 120
    },
    {
      "midi": 76,
      "hit": false,
      "t": 5714.282000000003,
      "d": 170.06791666666686,
      "v": 123
    },
    {
      "midi": 62,
      "hit": false,
      "t": 5918.363500000003,
      "d": 204.08150000000023,
      "v": 113
    },
    {
      "midi": 64,
      "hit": false,
      "t": 5918.363500000003,
      "d": 612.2444999999998,
      "v": 93
    },
    {
      "midi": 74,
      "hit": false,
      "t": 5918.363500000003,
      "d": 476.1901666666663,
      "v": 106
    },
    {
      "midi": 76,
      "hit": false,
      "t": 5943.873687500003,
      "d": 612.2444999999998,
      "v": 93
    },
    {
      "midi": 61,
      "hit": false,
      "t": 6122.445000000003,
      "d": 195.5781041666669,
      "v": 103
    },
    {
      "midi": 61,
      "hit": false,
      "t": 6318.02310416667,
      "d": 799.3192083333342,
      "v": 113
    },
    {
      "midi": 66,
      "hit": false,
      "t": 6428.567250000003,
      "d": 51.02037500000006,
      "v": 93
    },
    {
      "midi": 70,
      "hit": false,
      "t": 6479.587625000003,
      "d": 51.02037500000006,
      "v": 80
    },
    {
      "midi": 42,
      "hit": false,
      "t": 6530.608000000003,
      "d": 204.08150000000023,
      "v": 124
    },
    {
      "midi": 73,
      "hit": false,
      "t": 6530.608000000003,
      "d": 1471.0874791666665,
      "v": 110
    },
    {
      "midi": 54,
      "hit": false,
      "t": 6556.118187500003,
      "d": 204.08150000000023,
      "v": 124
    },
    {
      "midi": 52,
      "hit": false,
      "t": 6734.689500000003,
      "d": 204.08150000000023,
      "v": 110
    },
    {
      "midi": 64,
      "hit": false,
      "t": 6760.199687500003,
      "d": 204.08150000000023,
      "v": 110
    },
    {
      "midi": 58,
      "hit": false,
      "t": 6938.771000000003,
      "d": 204.08150000000023,
      "v": 126
    },
    {
      "midi": 70,
      "hit": false,
      "t": 6964.281187500003,
      "d": 204.08150000000023,
      "v": 126
    },
    {
      "midi": 62,
      "hit": false,
      "t": 7142.852500000004,
      "d": 408.16299999999956,
      "v": 119
    },
    {
      "midi": 74,
      "hit": false,
      "t": 7168.362687500004,
      "d": 408.16299999999956,
      "v": 119
    },
    {
      "midi": 64,
      "hit": false,
      "t": 7551.015500000003,
      "d": 408.16300000000047,
      "v": 102
    },
    {
      "midi": 76,
      "hit": false,
      "t": 7576.525687500003,
      "d": 408.16300000000047,
      "v": 102
    },
    {
      "midi": 61,
      "hit": false,
      "t": 7959.178500000004,
      "d": 195.5781041666669,
      "v": 89
    },
    {
      "midi": 73,
      "hit": false,
      "t": 7984.688687500004,
      "d": 195.5781041666669,
      "v": 89
    },
    {
      "midi": 59,
      "hit": false,
      "t": 8061.219250000003,
      "d": 51.02037500000006,
      "v": 95
    },
    {
      "midi": 62,
      "hit": false,
      "t": 8112.239625000003,
      "d": 51.02037500000006,
      "v": 85
    },
    {
      "midi": 66,
      "hit": false,
      "t": 8163.260000000003,
      "d": 1471.0874791666674,
      "v": 110
    },
    {
      "midi": 47,
      "hit": false,
      "t": 8163.260000000004,
      "d": 204.08150000000023,
      "v": 124
    },
    {
      "midi": 54,
      "hit": false,
      "t": 8163.260000000005,
      "d": 408.16299999999956,
      "v": 113
    },
    {
      "midi": 59,
      "hit": false,
      "t": 8188.770187500004,
      "d": 204.08150000000023,
      "v": 124
    },
    {
      "midi": 54,
      "hit": false,
      "t": 8367.341500000004,
      "d": 204.08150000000023,
      "v": 122
    },
    {
      "midi": 66,
      "hit": false,
      "t": 8392.851687500004,
      "d": 204.08150000000023,
      "v": 122
    },
    {
      "midi": 56,
      "hit": false,
      "t": 8571.423000000004,
      "d": 204.08150000000023,
      "v": 113
    },
    {
      "midi": 59,
      "hit": false,
      "t": 8571.423000000004,
      "d": 204.08150000000023,
      "v": 117
    },
    {
      "midi": 71,
      "hit": false,
      "t": 8596.933187500004,
      "d": 204.08150000000023,
      "v": 117
    },
    {
      "midi": 57,
      "hit": false,
      "t": 8775.504500000005,
      "d": 340.1358333333337,
      "v": 96
    },
    {
      "midi": 57,
      "hit": false,
      "t": 8775.504500000005,
      "d": 408.16300000000047,
      "v": 106
    },
    {
      "midi": 69,
      "hit": false,
      "t": 8801.014687500005,
      "d": 408.16300000000047,
      "v": 106
    },
    {
      "midi": 61,
      "hit": false,
      "t": 9183.667500000005,
      "d": 110.54414583333346,
      "v": 106
    },
    {
      "midi": 64,
      "hit": false,
      "t": 9183.667500000005,
      "d": 391.1562083333338,
      "v": 88
    },
    {
      "midi": 76,
      "hit": false,
      "t": 9209.177687500005,
      "d": 391.1562083333338,
      "v": 88
    },
    {
      "midi": 61,
      "hit": false,
      "t": 9387.749000000005,
      "d": 204.08150000000023,
      "v": 116
    },
    {
      "midi": 59,
      "hit": false,
      "t": 9591.830500000005,
      "d": 374.1494166666671,
      "v": 106
    },
    {
      "midi": 59,
      "hit": false,
      "t": 9676.864458333337,
      "d": 42.516979166666715,
      "v": 85
    },
    {
      "midi": 40,
      "hit": false,
      "t": 9710.878041666672,
      "d": 1615.6452083333334,
      "v": 100
    },
    {
      "midi": 64,
      "hit": false,
      "t": 9719.381437500004,
      "d": 42.516979166666715,
      "v": 90
    },
    {
      "midi": 52,
      "hit": false,
      "t": 9736.388229166672,
      "d": 1615.6452083333334,
      "v": 100
    },
    {
      "midi": 47,
      "hit": false,
      "t": 9744.891625000006,
      "d": 1615.6452083333334,
      "v": 95
    },
    {
      "midi": 68,
      "hit": false,
      "t": 9761.89841666667,
      "d": 42.516979166666715,
      "v": 90
    },
    {
      "midi": 52,
      "hit": false,
      "t": 9770.401812500006,
      "d": 1615.6452083333334,
      "v": 111
    },
    {
      "midi": 59,
      "hit": false,
      "t": 9770.401812500006,
      "d": 1615.6452083333334,
      "v": 95
    },
    {
      "midi": 56,
      "hit": false,
      "t": 9795.912000000006,
      "d": 1615.6452083333334,
      "v": 100
    },
    {
      "midi": 64,
      "hit": false,
      "t": 9795.912000000006,
      "d": 1615.6452083333334,
      "v": 111
    },
    {
      "midi": 71,
      "hit": false,
      "t": 9812.91879166667,
      "d": 1607.1418125,
      "v": 99
    },
    {
      "midi": 61,
      "hit": false,
      "t": 9812.918791666672,
      "d": 1615.6452083333334,
      "v": 89
    },
    {
      "midi": 68,
      "hit": false,
      "t": 9821.422187500006,
      "d": 1615.6452083333334,
      "v": 100
    },
    {
      "midi": 73,
      "hit": false,
      "t": 9838.428979166672,
      "d": 1615.6452083333334,
      "v": 90
    },
    {
      "midi": 57,
      "hit": false,
      "t": 9999.993500000006,
      "d": 391.1562083333338,
      "v": 103
    },
    {
      "midi": 56,
      "hit": false,
      "t": 10408.156500000006,
      "d": 340.1358333333337,
      "v": 103
    },
    {
      "midi": 56,
      "hit": false,
      "t": 10816.319500000007,
      "d": 204.08150000000023,
      "v": 103
    },
    {
      "midi": 59,
      "hit": false,
      "t": 11020.401000000007,
      "d": 204.08150000000023,
      "v": 103
    },
    {
      "midi": 57,
      "hit": false,
      "t": 11224.482500000007,
      "d": 1845.2368958333336,
      "v": 103
    },
    {
      "midi": 45,
      "hit": false,
      "t": 11284.006270833335,
      "d": 68.02716666666674,
      "v": 112
    },
    {
      "midi": 45,
      "hit": false,
      "t": 11360.536833333335,
      "d": 68.02716666666674,
      "v": 112
    },
    {
      "midi": 93,
      "hit": false,
      "t": 11428.564000000002,
      "d": 6513.6012083333335,
      "v": 115
    },
    {
      "midi": 33,
      "hit": false,
      "t": 11428.564000000002,
      "d": 578.2309166666673,
      "v": 100
    },
    {
      "midi": 73,
      "hit": false,
      "t": 11428.564000000002,
      "d": 603.7411041666674,
      "v": 127
    },
    {
      "midi": 76,
      "hit": false,
      "t": 11428.564000000002,
      "d": 603.7411041666674,
      "v": 127
    },
    {
      "midi": 76,
      "hit": false,
      "t": 11428.564000000002,
      "d": 408.16300000000047,
      "v": 127
    },
    {
      "midi": 69,
      "hit": false,
      "t": 11428.564000000002,
      "d": 595.237708333334,
      "v": 127
    },
    {
      "midi": 64,
      "hit": false,
      "t": 11428.564000000002,
      "d": 595.237708333334,
      "v": 127
    },
    {
      "midi": 36,
      "hit": false,
      "t": 11428.564000000002,
      "d": 8.503395833333343,
      "v": 114
    },
    {
      "midi": 57,
      "hit": false,
      "t": 11428.564000000002,
      "d": 8.503395833333343,
      "v": 92
    },
    {
      "midi": 70,
      "hit": false,
      "t": 11428.564000000002,
      "d": 8.503395833333343,
      "v": 78
    },
    {
      "midi": 81,
      "hit": false,
      "t": 11428.564000000002,
      "d": 25.51018750000003,
      "v": 88
    },
    {
      "midi": 88,
      "hit": false,
      "t": 11428.564000000002,
      "d": 8.503395833333343,
      "v": 1
    },
    {
      "midi": 45,
      "hit": false,
      "t": 11437.067395833335,
      "d": 204.08150000000023,
      "v": 120
    },
    {
      "midi": 52,
      "hit": false,
      "t": 11437.067395833335,
      "d": 2508.501770833336,
      "v": 115
    },
    {
      "midi": 86,
      "hit": false,
      "t": 11530.604750000002,
      "d": 25.51018750000003,
      "v": 88
    },
    {
      "midi": 42,
      "hit": false,
      "t": 11632.645500000002,
      "d": 8.503395833333343,
      "v": 64
    },
    {
      "midi": 70,
      "hit": false,
      "t": 11632.645500000002,
      "d": 8.503395833333343,
      "v": 78
    },
    {
      "midi": 81,
      "hit": false,
      "t": 11632.645500000002,
      "d": 25.51018750000003,
      "v": 88
    },
    {
      "midi": 42,
      "hit": false,
      "t": 11734.686250000002,
      "d": 8.503395833333343,
      "v": 64
    },
    {
      "midi": 70,
      "hit": false,
      "t": 11734.686250000002,
      "d": 8.503395833333343,
      "v": 64
    },
    {
      "midi": 88,
      "hit": false,
      "t": 11734.686250000002,
      "d": 25.51018750000003,
      "v": 88
    },
    {
      "midi": 42,
      "hit": false,
      "t": 11836.727000000003,
      "d": 8.503395833333343,
      "v": 64
    },
    {
      "midi": 70,
      "hit": false,
      "t": 11836.727000000003,
      "d": 8.503395833333343,
      "v": 78
    },
    {
      "midi": 81,
      "hit": false,
      "t": 11938.767750000003,
      "d": 25.51018750000003,
      "v": 88
    },
    {
      "midi": 45,
      "hit": false,
      "t": 12040.808500000003,
      "d": 578.2309166666673,
      "v": 100
    },
    {
      "midi": 71,
      "hit": false,
      "t": 12040.808500000003,
      "d": 612.2445000000007,
      "v": 127
    },
    {
      "midi": 74,
      "hit": false,
      "t": 12040.808500000003,
      "d": 612.2445000000007,
      "v": 127
    },
    {
      "midi": 74,
      "hit": false,
      "t": 12040.808500000003,
      "d": 408.16300000000047,
      "v": 127
    },
    {
      "midi": 67,
      "hit": false,
      "t": 12040.808500000003,
      "d": 586.7343125000007,
      "v": 127
    },
    {
      "midi": 62,
      "hit": false,
      "t": 12040.808500000003,
      "d": 586.7343125000007,
      "v": 127
    },
    {
      "midi": 36,
      "hit": false,
      "t": 12040.808500000003,
      "d": 8.503395833333343,
      "v": 114
    },
    {
      "midi": 49,
      "hit": false,
      "t": 12040.808500000003,
      "d": 8.503395833333343,
      "v": 92
    },
    {
      "midi": 46,
      "hit": false,
      "t": 12040.808500000003,
      "d": 8.503395833333343,
      "v": 70
    },
    {
      "midi": 70,
      "hit": false,
      "t": 12040.808500000003,
      "d": 8.503395833333343,
      "v": 78
    },
    {
      "midi": 93,
      "hit": false,
      "t": 12040.808500000003,
      "d": 25.51018750000003,
      "v": 88
    },
    {
      "midi": 81,
      "hit": false,
      "t": 12142.849250000003,
      "d": 25.51018750000003,
      "v": 88
    },
    {
      "midi": 42,
      "hit": false,
      "t": 12244.890000000003,
      "d": 8.503395833333343,
      "v": 64
    },
    {
      "midi": 70,
      "hit": false,
      "t": 12244.890000000003,
      "d": 8.503395833333343,
      "v": 78
    },
    {
      "midi": 81,
      "hit": false,
      "t": 12244.890000000003,
      "d": 25.51018750000003,
      "v": 88
    },
    {
      "midi": 70,
      "hit": false,
      "t": 12346.930750000003,
      "d": 8.503395833333343,
      "v": 64
    },
    {
      "midi": 86,
      "hit": false,
      "t": 12346.930750000003,
      "d": 25.51018750000003,
      "v": 88
    },
    {
      "midi": 42,
      "hit": false,
      "t": 12448.971500000003,
      "d": 8.503395833333343,
      "v": 64
    },
    {
      "midi": 70,
      "hit": false,
      "t": 12448.971500000003,
      "d": 8.503395833333343,
      "v": 78
    },
    {
      "midi": 81,
      "hit": false,
      "t": 12448.971500000003,
      "d": 25.51018750000003,
      "v": 88
    },
    {
      "midi": 42,
      "hit": false,
      "t": 12551.012250000003,
      "d": 8.503395833333343,
      "v": 64
    },
    {
      "midi": 70,
      "hit": false,
      "t": 12551.012250000003,
      "d": 8.503395833333343,
      "v": 64
    },
    {
      "midi": 88,
      "hit": false,
      "t": 12551.012250000003,
      "d": 25.51018750000003,
      "v": 88
    },
    {
      "midi": 33,
      "hit": false,
      "t": 12653.053000000004,
      "d": 586.7343125000007,
      "v": 100
    },
    {
      "midi": 76,
      "hit": false,
      "t": 12653.053000000004,
      "d": 416.6663958333338,
      "v": 127
    },
    {
      "midi": 69,
      "hit": false,
      "t": 12653.053000000004,
      "d": 595.237708333334,
      "v": 127
    },
    {
      "midi": 64,
      "hit": false,
      "t": 12653.053000000004,
      "d": 595.237708333334,
      "v": 127
    },
    {
      "midi": 36,
      "hit": false,
      "t": 12653.053000000004,
      "d": 8.503395833333343,
      "v": 114
    },
    {
      "midi": 49,
      "hit": false,
      "t": 12653.053000000004,
      "d": 8.503395833333343,
      "v": 92
    },
    {
      "midi": 42,
      "hit": false,
      "t": 12653.053000000004,
      "d": 8.503395833333343,
      "v": 65
    },
    {
      "midi": 70,
      "hit": false,
      "t": 12653.053000000004,
      "d": 8.503395833333343,
      "v": 78
    },
    {
      "midi": 81,
      "hit": false,
      "t": 12653.053000000004,
      "d": 25.51018750000003,
      "v": 88
    },
    {
      "midi": 73,
      "hit": false,
      "t": 12661.556395833337,
      "d": 603.7411041666674,
      "v": 127
    },
    {
      "midi": 76,
      "hit": false,
      "t": 12661.556395833337,
      "d": 603.7411041666674,
      "v": 127
    },
    {
      "midi": 42,
      "hit": false,
      "t": 12857.134500000004,
      "d": 8.503395833333343,
      "v": 64
    },
    {
      "midi": 70,
      "hit": false,
      "t": 12857.134500000004,
      "d": 8.503395833333343,
      "v": 78
    },
    {
      "midi": 88,
      "hit": false,
      "t": 12857.134500000004,
      "d": 25.51018750000003,
      "v": 88
    },
    {
      "midi": 70,
      "hit": false,
      "t": 12959.175250000004,
      "d": 8.503395833333343,
      "v": 64
    },
    {
      "midi": 81,
      "hit": false,
      "t": 12959.175250000004,
      "d": 25.51018750000003,
      "v": 88
    },
    {
      "midi": 42,
      "hit": false,
      "t": 13061.216000000004,
      "d": 8.503395833333343,
      "v": 64
    },
    {
      "midi": 70,
      "hit": false,
      "t": 13061.216000000004,
      "d": 8.503395833333343,
      "v": 78
    },
    {
      "midi": 88,
      "hit": false,
      "t": 13061.216000000004,
      "d": 25.51018750000003,
      "v": 88
    },
    {
      "midi": 70,
      "hit": false,
      "t": 13163.256750000004,
      "d": 8.503395833333343,
      "v": 64
    },
    {
      "midi": 81,
      "hit": false,
      "t": 13163.256750000004,
      "d": 25.51018750000003,
      "v": 88
    },
    {
      "midi": 45,
      "hit": false,
      "t": 13265.297500000004,
      "d": 578.2309166666673,
      "v": 100
    },
    {
      "midi": 78,
      "hit": false,
      "t": 13265.297500000004,
      "d": 408.16300000000047,
      "v": 127
    },
    {
      "midi": 71,
      "hit": false,
      "t": 13265.297500000004,
      "d": 595.237708333334,
      "v": 127
    },
    {
      "midi": 66,
      "hit": false,
      "t": 13265.297500000004,
      "d": 586.7343125000007,
      "v": 127
    },
    {
      "midi": 36,
      "hit": false,
      "t": 13265.297500000004,
      "d": 8.503395833333343,
      "v": 114
    },
    {
      "midi": 49,
      "hit": false,
      "t": 13265.297500000004,
      "d": 8.503395833333343,
      "v": 92
    },
    {
      "midi": 42,
      "hit": false,
      "t": 13265.297500000004,
      "d": 8.503395833333343,
      "v": 64
    },
    {
      "midi": 70,
      "hit": false,
      "t": 13265.297500000004,
      "d": 8.503395833333343,
      "v": 78
    },
    {
      "midi": 88,
      "hit": false,
      "t": 13265.297500000004,
      "d": 25.51018750000003,
      "v": 88
    },
    {
      "midi": 74,
      "hit": false,
      "t": 13273.800895833338,
      "d": 603.7411041666674,
      "v": 127
    },
    {
      "midi": 78,
      "hit": false,
      "t": 13273.800895833338,
      "d": 603.7411041666674,
      "v": 127
    },
    {
      "midi": 70,
      "hit": false,
      "t": 13367.338250000004,
      "d": 8.503395833333343,
      "v": 64
    },
    {
      "midi": 81,
      "hit": false,
      "t": 13367.338250000004,
      "d": 25.51018750000003,
      "v": 88
    },
    {
      "midi": 42,
      "hit": false,
      "t": 13469.379000000004,
      "d": 8.503395833333343,
      "v": 64
    },
    {
      "midi": 70,
      "hit": false,
      "t": 13469.379000000004,
      "d": 8.503395833333343,
      "v": 78
    },
    {
      "midi": 70,
      "hit": false,
      "t": 13571.419750000005,
      "d": 8.503395833333343,
      "v": 64
    },
    {
      "midi": 81,
      "hit": false,
      "t": 13571.419750000005,
      "d": 25.51018750000003,
      "v": 88
    },
    {
      "midi": 40,
      "hit": false,
      "t": 13673.460500000003,
      "d": 85.03395833333343,
      "v": 127
    },
    {
      "midi": 42,
      "hit": false,
      "t": 13673.460500000005,
      "d": 8.503395833333343,
      "v": 64
    },
    {
      "midi": 70,
      "hit": false,
      "t": 13673.460500000005,
      "d": 8.503395833333343,
      "v": 78
    },
    {
      "midi": 40,
      "hit": false,
      "t": 13775.501250000003,
      "d": 85.03395833333343,
      "v": 127
    },
    {
      "midi": 70,
      "hit": false,
      "t": 13775.501250000005,
      "d": 8.503395833333343,
      "v": 64
    },
    {
      "midi": 88,
      "hit": false,
      "t": 13775.501250000005,
      "d": 25.51018750000003,
      "v": 88
    },
    {
      "midi": 40,
      "hit": false,
      "t": 13877.542000000003,
      "d": 85.03395833333343,
      "v": 107
    },
    {
      "midi": 28,
      "hit": false,
      "t": 13877.542000000005,
      "d": 263.60527083333363,
      "v": 100
    },
    {
      "midi": 79,
      "hit": false,
      "t": 13877.542000000005,
      "d": 170.06791666666686,
      "v": 127
    },
    {
      "midi": 71,
      "hit": false,
      "t": 13877.542000000005,
      "d": 136.0543333333335,
      "v": 127
    },
    {
      "midi": 67,
      "hit": false,
      "t": 13877.542000000005,
      "d": 153.06112500000017,
      "v": 127
    },
    {
      "midi": 36,
      "hit": false,
      "t": 13877.542000000005,
      "d": 8.503395833333343,
      "v": 114
    },
    {
      "midi": 57,
      "hit": false,
      "t": 13877.542000000005,
      "d": 8.503395833333343,
      "v": 92
    },
    {
      "midi": 42,
      "hit": false,
      "t": 13877.542000000005,
      "d": 8.503395833333343,
      "v": 64
    },
    {
      "midi": 70,
      "hit": false,
      "t": 13877.542000000005,
      "d": 8.503395833333343,
      "v": 78
    },
    {
      "midi": 81,
      "hit": false,
      "t": 13877.542000000005,
      "d": 25.51018750000003,
      "v": 88
    },
    {
      "midi": 74,
      "hit": false,
      "t": 13886.045395833338,
      "d": 170.06791666666686,
      "v": 127
    },
    {
      "midi": 79,
      "hit": false,
      "t": 13886.045395833338,
      "d": 170.06791666666686,
      "v": 127
    },
    {
      "midi": 86,
      "hit": false,
      "t": 13979.582750000005,
      "d": 25.51018750000003,
      "v": 88
    },
    {
      "midi": 42,
      "hit": false,
      "t": 14081.623500000005,
      "d": 8.503395833333343,
      "v": 64
    },
    {
      "midi": 70,
      "hit": false,
      "t": 14081.623500000005,
      "d": 8.503395833333343,
      "v": 78
    },
    {
      "midi": 81,
      "hit": false,
      "t": 14081.623500000005,
      "d": 25.51018750000003,
      "v": 88
    },
    {
      "midi": 42,
      "hit": false,
      "t": 14183.664250000005,
      "d": 8.503395833333343,
      "v": 64
    },
    {
      "midi": 70,
      "hit": false,
      "t": 14183.664250000005,
      "d": 8.503395833333343,
      "v": 64
    },
    {
      "midi": 86,
      "hit": false,
      "t": 14183.664250000005,
      "d": 25.51018750000003,
      "v": 88
    },
    {
      "midi": 28,
      "hit": false,
      "t": 14285.705000000005,
      "d": 280.6120625000003,
      "v": 100
    },
    {
      "midi": 78,
      "hit": false,
      "t": 14285.705000000005,
      "d": 170.06791666666686,
      "v": 127
    },
    {
      "midi": 71,
      "hit": false,
      "t": 14285.705000000005,
      "d": 144.55772916666683,
      "v": 127
    },
    {
      "midi": 66,
      "hit": false,
      "t": 14285.705000000005,
      "d": 161.56452083333352,
      "v": 127
    },
    {
      "midi": 36,
      "hit": false,
      "t": 14285.705000000005,
      "d": 8.503395833333343,
      "v": 114
    },
    {
      "midi": 49,
      "hit": false,
      "t": 14285.705000000005,
      "d": 8.503395833333343,
      "v": 92
    },
    {
      "midi": 46,
      "hit": false,
      "t": 14285.705000000005,
      "d": 8.503395833333343,
      "v": 70
    },
    {
      "midi": 70,
      "hit": false,
      "t": 14285.705000000005,
      "d": 8.503395833333343,
      "v": 78
    },
    {
      "midi": 88,
      "hit": false,
      "t": 14285.705000000005,
      "d": 25.51018750000003,
      "v": 88
    },
    {
      "midi": 74,
      "hit": false,
      "t": 14294.208395833339,
      "d": 178.5713125000002,
      "v": 127
    },
    {
      "midi": 78,
      "hit": false,
      "t": 14294.208395833339,
      "d": 178.5713125000002,
      "v": 127
    },
    {
      "midi": 81,
      "hit": false,
      "t": 14387.745750000006,
      "d": 25.51018750000003,
      "v": 88
    },
    {
      "midi": 45,
      "hit": false,
      "t": 14489.786500000004,
      "d": 85.03395833333343,
      "v": 117
    },
    {
      "midi": 42,
      "hit": false,
      "t": 14489.786500000006,
      "d": 8.503395833333343,
      "v": 64
    },
    {
      "midi": 70,
      "hit": false,
      "t": 14489.786500000006,
      "d": 8.503395833333343,
      "v": 78
    },
    {
      "midi": 81,
      "hit": false,
      "t": 14489.786500000006,
      "d": 25.51018750000003,
      "v": 88
    },
    {
      "midi": 45,
      "hit": false,
      "t": 14591.827250000004,
      "d": 85.03395833333343,
      "v": 117
    },
    {
      "midi": 70,
      "hit": false,
      "t": 14591.827250000006,
      "d": 8.503395833333343,
      "v": 64
    },
    {
      "midi": 86,
      "hit": false,
      "t": 14591.827250000006,
      "d": 25.51018750000003,
      "v": 88
    },
    {
      "midi": 33,
      "hit": false,
      "t": 14693.868000000006,
      "d": 578.2309166666673,
      "v": 100
    },
    {
      "midi": 73,
      "hit": false,
      "t": 14693.868000000006,
      "d": 603.7411041666674,
      "v": 127
    },
    {
      "midi": 76,
      "hit": false,
      "t": 14693.868000000006,
      "d": 603.7411041666674,
      "v": 127
    },
    {
      "midi": 76,
      "hit": false,
      "t": 14693.868000000006,
      "d": 408.16300000000047,
      "v": 127
    },
    {
      "midi": 69,
      "hit": false,
      "t": 14693.868000000006,
      "d": 595.237708333334,
      "v": 127
    },
    {
      "midi": 64,
      "hit": false,
      "t": 14693.868000000006,
      "d": 595.237708333334,
      "v": 127
    },
    {
      "midi": 36,
      "hit": false,
      "t": 14693.868000000006,
      "d": 8.503395833333343,
      "v": 114
    },
    {
      "midi": 57,
      "hit": false,
      "t": 14693.868000000006,
      "d": 8.503395833333343,
      "v": 92
    },
    {
      "midi": 70,
      "hit": false,
      "t": 14693.868000000006,
      "d": 8.503395833333343,
      "v": 78
    },
    {
      "midi": 81,
      "hit": false,
      "t": 14693.868000000006,
      "d": 25.51018750000003,
      "v": 88
    },
    {
      "midi": 45,
      "hit": false,
      "t": 14702.371395833337,
      "d": 204.08150000000023,
      "v": 97
    },
    {
      "midi": 85,
      "hit": false,
      "t": 14795.908750000006,
      "d": 25.51018750000003,
      "v": 88
    },
    {
      "midi": 42,
      "hit": false,
      "t": 14897.949500000006,
      "d": 8.503395833333343,
      "v": 64
    },
    {
      "midi": 70,
      "hit": false,
      "t": 14897.949500000006,
      "d": 8.503395833333343,
      "v": 78
    },
    {
      "midi": 81,
      "hit": false,
      "t": 14897.949500000006,
      "d": 25.51018750000003,
      "v": 88
    },
    {
      "midi": 42,
      "hit": false,
      "t": 14999.990250000006,
      "d": 8.503395833333343,
      "v": 64
    },
    {
      "midi": 70,
      "hit": false,
      "t": 14999.990250000006,
      "d": 8.503395833333343,
      "v": 64
    },
    {
      "midi": 42,
      "hit": false,
      "t": 15102.031000000006,
      "d": 8.503395833333343,
      "v": 64
    },
    {
      "midi": 70,
      "hit": false,
      "t": 15102.031000000006,
      "d": 8.503395833333343,
      "v": 78
    },
    {
      "midi": 70,
      "hit": false,
      "t": 15204.071750000006,
      "d": 8.503395833333343,
      "v": 64
    },
    {
      "midi": 81,
      "hit": false,
      "t": 15204.071750000006,
      "d": 25.51018750000003,
      "v": 88
    },
    {
      "midi": 45,
      "hit": false,
      "t": 15306.112500000007,
      "d": 578.2309166666673,
      "v": 100
    },
    {
      "midi": 71,
      "hit": false,
      "t": 15306.112500000007,
      "d": 603.7411041666674,
      "v": 127
    },
    {
      "midi": 74,
      "hit": false,
      "t": 15306.112500000007,
      "d": 603.7411041666674,
      "v": 127
    },
    {
      "midi": 74,
      "hit": false,
      "t": 15306.112500000007,
      "d": 408.16300000000047,
      "v": 127
    },
    {
      "midi": 67,
      "hit": false,
      "t": 15306.112500000007,
      "d": 586.7343125000007,
      "v": 127
    },
    {
      "midi": 62,
      "hit": false,
      "t": 15306.112500000007,
      "d": 586.7343125000007,
      "v": 127
    },
    {
      "midi": 36,
      "hit": false,
      "t": 15306.112500000007,
      "d": 8.503395833333343,
      "v": 114
    },
    {
      "midi": 49,
      "hit": false,
      "t": 15306.112500000007,
      "d": 8.503395833333343,
      "v": 92
    },
    {
      "midi": 46,
      "hit": false,
      "t": 15306.112500000007,
      "d": 8.503395833333343,
      "v": 59
    },
    {
      "midi": 70,
      "hit": false,
      "t": 15306.112500000007,
      "d": 8.503395833333343,
      "v": 78
    },
    {
      "midi": 93,
      "hit": false,
      "t": 15306.112500000007,
      "d": 25.51018750000003,
      "v": 88
    },
    {
      "midi": 70,
      "hit": false,
      "t": 15408.153250000007,
      "d": 8.503395833333343,
      "v": 64
    },
    {
      "midi": 81,
      "hit": false,
      "t": 15408.153250000007,
      "d": 25.51018750000003,
      "v": 88
    },
    {
      "midi": 42,
      "hit": false,
      "t": 15510.194000000007,
      "d": 8.503395833333343,
      "v": 64
    },
    {
      "midi": 70,
      "hit": false,
      "t": 15510.194000000007,
      "d": 8.503395833333343,
      "v": 78
    },
    {
      "midi": 81,
      "hit": false,
      "t": 15510.194000000007,
      "d": 25.51018750000003,
      "v": 88
    },
    {
      "midi": 70,
      "hit": false,
      "t": 15612.234750000007,
      "d": 8.503395833333343,
      "v": 64
    },
    {
      "midi": 86,
      "hit": false,
      "t": 15612.234750000007,
      "d": 25.51018750000003,
      "v": 88
    },
    {
      "midi": 42,
      "hit": false,
      "t": 15714.275500000007,
      "d": 8.503395833333343,
      "v": 64
    },
    {
      "midi": 70,
      "hit": false,
      "t": 15714.275500000007,
      "d": 8.503395833333343,
      "v": 78
    },
    {
      "midi": 81,
      "hit": false,
      "t": 15714.275500000007,
      "d": 25.51018750000003,
      "v": 88
    },
    {
      "midi": 42,
      "hit": false,
      "t": 15816.316250000007,
      "d": 8.503395833333343,
      "v": 64
    },
    {
      "midi": 70,
      "hit": false,
      "t": 15816.316250000007,
      "d": 8.503395833333343,
      "v": 64
    },
    {
      "midi": 88,
      "hit": false,
      "t": 15816.316250000007,
      "d": 25.51018750000003,
      "v": 88
    },
    {
      "midi": 33,
      "hit": false,
      "t": 15918.357000000007,
      "d": 586.7343125000007,
      "v": 100
    },
    {
      "midi": 73,
      "hit": false,
      "t": 15918.357000000007,
      "d": 603.7411041666674,
      "v": 127
    },
    {
      "midi": 76,
      "hit": false,
      "t": 15918.357000000007,
      "d": 603.7411041666674,
      "v": 127
    },
    {
      "midi": 76,
      "hit": false,
      "t": 15918.357000000007,
      "d": 416.6663958333338,
      "v": 127
    },
    {
      "midi": 69,
      "hit": false,
      "t": 15918.357000000007,
      "d": 595.237708333334,
      "v": 127
    },
    {
      "midi": 64,
      "hit": false,
      "t": 15918.357000000007,
      "d": 595.237708333334,
      "v": 127
    },
    {
      "midi": 36,
      "hit": false,
      "t": 15918.357000000007,
      "d": 8.503395833333343,
      "v": 114
    },
    {
      "midi": 49,
      "hit": false,
      "t": 15918.357000000007,
      "d": 8.503395833333343,
      "v": 92
    },
    {
      "midi": 42,
      "hit": false,
      "t": 15918.357000000007,
      "d": 8.503395833333343,
      "v": 64
    },
    {
      "midi": 70,
      "hit": false,
      "t": 15918.357000000007,
      "d": 8.503395833333343,
      "v": 78
    },
    {
      "midi": 81,
      "hit": false,
      "t": 15918.357000000007,
      "d": 25.51018750000003,
      "v": 88
    },
    {
      "midi": 42,
      "hit": false,
      "t": 16122.438500000007,
      "d": 8.503395833333343,
      "v": 64
    },
    {
      "midi": 70,
      "hit": false,
      "t": 16122.438500000007,
      "d": 8.503395833333343,
      "v": 78
    },
    {
      "midi": 88,
      "hit": false,
      "t": 16122.438500000007,
      "d": 25.51018750000003,
      "v": 88
    },
    {
      "midi": 70,
      "hit": false,
      "t": 16224.479250000008,
      "d": 8.503395833333343,
      "v": 64
    },
    {
      "midi": 81,
      "hit": false,
      "t": 16224.479250000008,
      "d": 25.51018750000003,
      "v": 88
    },
    {
      "midi": 42,
      "hit": false,
      "t": 16326.520000000008,
      "d": 8.503395833333343,
      "v": 64
    },
    {
      "midi": 70,
      "hit": false,
      "t": 16326.520000000008,
      "d": 8.503395833333343,
      "v": 78
    },
    {
      "midi": 88,
      "hit": false,
      "t": 16326.520000000008,
      "d": 25.51018750000003,
      "v": 88
    },
    {
      "midi": 70,
      "hit": false,
      "t": 16428.560750000008,
      "d": 8.503395833333343,
      "v": 64
    },
    {
      "midi": 81,
      "hit": false,
      "t": 16428.560750000008,
      "d": 25.51018750000003,
      "v": 88
    },
    {
      "midi": 45,
      "hit": false,
      "t": 16530.601500000008,
      "d": 578.2309166666673,
      "v": 100
    },
    {
      "midi": 74,
      "hit": false,
      "t": 16530.601500000008,
      "d": 603.7411041666674,
      "v": 127
    },
    {
      "midi": 78,
      "hit": false,
      "t": 16530.601500000008,
      "d": 603.7411041666674,
      "v": 127
    },
    {
      "midi": 78,
      "hit": false,
      "t": 16530.601500000008,
      "d": 408.16300000000047,
      "v": 127
    },
    {
      "midi": 71,
      "hit": false,
      "t": 16530.601500000008,
      "d": 595.237708333334,
      "v": 127
    },
    {
      "midi": 66,
      "hit": false,
      "t": 16530.601500000008,
      "d": 586.7343125000007,
      "v": 127
    },
    {
      "midi": 36,
      "hit": false,
      "t": 16530.601500000008,
      "d": 8.503395833333343,
      "v": 114
    },
    {
      "midi": 49,
      "hit": false,
      "t": 16530.601500000008,
      "d": 8.503395833333343,
      "v": 92
    },
    {
      "midi": 42,
      "hit": false,
      "t": 16530.601500000008,
      "d": 8.503395833333343,
      "v": 64
    },
    {
      "midi": 70,
      "hit": false,
      "t": 16530.601500000008,
      "d": 8.503395833333343,
      "v": 78
    },
    {
      "midi": 88,
      "hit": false,
      "t": 16530.601500000008,
      "d": 25.51018750000003,
      "v": 88
    },
    {
      "midi": 70,
      "hit": false,
      "t": 16632.642250000008,
      "d": 8.503395833333343,
      "v": 64
    },
    {
      "midi": 81,
      "hit": false,
      "t": 16632.642250000008,
      "d": 25.51018750000003,
      "v": 88
    },
    {
      "midi": 42,
      "hit": false,
      "t": 16734.683000000008,
      "d": 8.503395833333343,
      "v": 64
    },
    {
      "midi": 70,
      "hit": false,
      "t": 16734.683000000008,
      "d": 8.503395833333343,
      "v": 78
    },
    {
      "midi": 70,
      "hit": false,
      "t": 16836.72375000001,
      "d": 8.503395833333343,
      "v": 64
    },
    {
      "midi": 81,
      "hit": false,
      "t": 16836.72375000001,
      "d": 25.51018750000003,
      "v": 88
    },
    {
      "midi": 40,
      "hit": false,
      "t": 16938.764500000005,
      "d": 85.03395833333343,
      "v": 127
    },
    {
      "midi": 42,
      "hit": false,
      "t": 16938.76450000001,
      "d": 8.503395833333343,
      "v": 64
    },
    {
      "midi": 70,
      "hit": false,
      "t": 16938.76450000001,
      "d": 8.503395833333343,
      "v": 78
    },
    {
      "midi": 40,
      "hit": false,
      "t": 17040.805250000005,
      "d": 85.03395833333343,
      "v": 127
    },
    {
      "midi": 70,
      "hit": false,
      "t": 17040.80525000001,
      "d": 8.503395833333343,
      "v": 64
    },
    {
      "midi": 88,
      "hit": false,
      "t": 17040.80525000001,
      "d": 25.51018750000003,
      "v": 88
    },
    {
      "midi": 40,
      "hit": false,
      "t": 17142.846000000005,
      "d": 85.03395833333343,
      "v": 107
    },
    {
      "midi": 28,
      "hit": false,
      "t": 17142.84600000001,
      "d": 272.108666666667,
      "v": 100
    },
    {
      "midi": 79,
      "hit": false,
      "t": 17142.84600000001,
      "d": 170.06791666666686,
      "v": 127
    },
    {
      "midi": 71,
      "hit": false,
      "t": 17142.84600000001,
      "d": 136.0543333333335,
      "v": 127
    },
    {
      "midi": 67,
      "hit": false,
      "t": 17142.84600000001,
      "d": 153.06112500000017,
      "v": 127
    },
    {
      "midi": 36,
      "hit": false,
      "t": 17142.84600000001,
      "d": 8.503395833333343,
      "v": 114
    },
    {
      "midi": 57,
      "hit": false,
      "t": 17142.84600000001,
      "d": 8.503395833333343,
      "v": 92
    },
    {
      "midi": 42,
      "hit": false,
      "t": 17142.84600000001,
      "d": 8.503395833333343,
      "v": 64
    },
    {
      "midi": 70,
      "hit": false,
      "t": 17142.84600000001,
      "d": 8.503395833333343,
      "v": 78
    },
    {
      "midi": 81,
      "hit": false,
      "t": 17142.84600000001,
      "d": 25.51018750000003,
      "v": 88
    },
    {
      "midi": 74,
      "hit": false,
      "t": 17151.349395833342,
      "d": 170.06791666666686,
      "v": 127
    },
    {
      "midi": 79,
      "hit": false,
      "t": 17151.349395833342,
      "d": 170.06791666666686,
      "v": 127
    },
    {
      "midi": 86,
      "hit": false,
      "t": 17244.88675000001,
      "d": 25.51018750000003,
      "v": 88
    },
    {
      "midi": 42,
      "hit": false,
      "t": 17346.92750000001,
      "d": 8.503395833333343,
      "v": 64
    },
    {
      "midi": 70,
      "hit": false,
      "t": 17346.92750000001,
      "d": 8.503395833333343,
      "v": 78
    },
    {
      "midi": 81,
      "hit": false,
      "t": 17346.92750000001,
      "d": 25.51018750000003,
      "v": 88
    },
    {
      "midi": 42,
      "hit": false,
      "t": 17448.96825000001,
      "d": 8.503395833333343,
      "v": 64
    },
    {
      "midi": 70,
      "hit": false,
      "t": 17448.96825000001,
      "d": 8.503395833333343,
      "v": 64
    },
    {
      "midi": 86,
      "hit": false,
      "t": 17448.96825000001,
      "d": 25.51018750000003,
      "v": 88
    },
    {
      "midi": 28,
      "hit": false,
      "t": 17551.00900000001,
      "d": 306.12225000000035,
      "v": 100
    },
    {
      "midi": 78,
      "hit": false,
      "t": 17551.00900000001,
      "d": 170.06791666666686,
      "v": 127
    },
    {
      "midi": 71,
      "hit": false,
      "t": 17551.00900000001,
      "d": 144.55772916666683,
      "v": 127
    },
    {
      "midi": 66,
      "hit": false,
      "t": 17551.00900000001,
      "d": 161.56452083333352,
      "v": 127
    },
    {
      "midi": 36,
      "hit": false,
      "t": 17551.00900000001,
      "d": 8.503395833333343,
      "v": 114
    },
    {
      "midi": 49,
      "hit": false,
      "t": 17551.00900000001,
      "d": 8.503395833333343,
      "v": 92
    },
    {
      "midi": 46,
      "hit": false,
      "t": 17551.00900000001,
      "d": 8.503395833333343,
      "v": 59
    },
    {
      "midi": 40,
      "hit": false,
      "t": 17551.00900000001,
      "d": 8.503395833333343,
      "v": 106
    },
    {
      "midi": 70,
      "hit": false,
      "t": 17551.00900000001,
      "d": 8.503395833333343,
      "v": 78
    },
    {
      "midi": 88,
      "hit": false,
      "t": 17551.00900000001,
      "d": 25.51018750000003,
      "v": 88
    },
    {
      "midi": 74,
      "hit": false,
      "t": 17559.512395833342,
      "d": 212.58489583333358,
      "v": 127
    },
    {
      "midi": 78,
      "hit": false,
      "t": 17559.512395833342,
      "d": 212.58489583333358,
      "v": 127
    },
    {
      "midi": 81,
      "hit": false,
      "t": 17653.04975000001,
      "d": 25.51018750000003,
      "v": 88
    },
    {
      "midi": 42,
      "hit": false,
      "t": 17755.09050000001,
      "d": 8.503395833333343,
      "v": 64
    },
    {
      "midi": 70,
      "hit": false,
      "t": 17755.09050000001,
      "d": 8.503395833333343,
      "v": 78
    },
    {
      "midi": 81,
      "hit": false,
      "t": 17755.09050000001,
      "d": 25.51018750000003,
      "v": 88
    },
    {
      "midi": 70,
      "hit": false,
      "t": 17857.13125000001,
      "d": 8.503395833333343,
      "v": 64
    },
    {
      "midi": 86,
      "hit": false,
      "t": 17857.13125000001,
      "d": 25.51018750000003,
      "v": 88
    },
    {
      "midi": 62,
      "hit": false,
      "t": 17959.172000000006,
      "d": 25.51018750000003,
      "v": 100
    },
    {
      "midi": 66,
      "hit": false,
      "t": 17959.172000000006,
      "d": 25.51018750000003,
      "v": 100
    },
    {
      "midi": 73,
      "hit": false,
      "t": 17959.172000000006,
      "d": 25.51018750000003,
      "v": 110
    },
    {
      "midi": 78,
      "hit": false,
      "t": 17959.172000000006,
      "d": 42.516979166666715,
      "v": 50
    },
    {
      "midi": 81,
      "hit": false,
      "t": 17959.172000000006,
      "d": 42.516979166666715,
      "v": 60
    },
    {
      "midi": 35,
      "hit": false,
      "t": 17959.17200000001,
      "d": 59.5237708333334,
      "v": 100
    },
    {
      "midi": 74,
      "hit": false,
      "t": 17959.17200000001,
      "d": 263.60527083333363,
      "v": 127
    },
    {
      "midi": 78,
      "hit": false,
      "t": 17959.17200000001,
      "d": 263.60527083333363,
      "v": 127
    },
    {
      "midi": 66,
      "hit": false,
      "t": 17959.17200000001,
      "d": 263.60527083333363,
      "v": 117
    },
    {
      "midi": 36,
      "hit": false,
      "t": 17959.17200000001,
      "d": 8.503395833333343,
      "v": 114
    },
    {
      "midi": 70,
      "hit": false,
      "t": 17959.17200000001,
      "d": 8.503395833333343,
      "v": 78
    },
    {
      "midi": 49,
      "hit": false,
      "t": 17959.17200000001,
      "d": 8.503395833333343,
      "v": 102
    },
    {
      "midi": 62,
      "hit": false,
      "t": 18061.212750000006,
      "d": 25.51018750000003,
      "v": 100
    },
    {
      "midi": 66,
      "hit": false,
      "t": 18061.212750000006,
      "d": 25.51018750000003,
      "v": 100
    },
    {
      "midi": 73,
      "hit": false,
      "t": 18061.212750000006,
      "d": 25.51018750000003,
      "v": 110
    },
    {
      "midi": 78,
      "hit": false,
      "t": 18061.212750000006,
      "d": 42.516979166666715,
      "v": 65
    },
    {
      "midi": 81,
      "hit": false,
      "t": 18061.212750000006,
      "d": 42.516979166666715,
      "v": 75
    },
    {
      "midi": 35,
      "hit": false,
      "t": 18061.21275000001,
      "d": 51.02037500000006,
      "v": 100
    },
    {
      "midi": 70,
      "hit": false,
      "t": 18061.21275000001,
      "d": 8.503395833333343,
      "v": 50
    },
    {
      "midi": 27,
      "hit": false,
      "t": 18061.21275000001,
      "d": 8.503395833333343,
      "v": 70
    },
    {
      "midi": 78,
      "hit": false,
      "t": 18163.253500000003,
      "d": 8.503395833333343,
      "v": 80
    },
    {
      "midi": 78,
      "hit": false,
      "t": 18163.253500000006,
      "d": 42.516979166666715,
      "v": 75
    },
    {
      "midi": 81,
      "hit": false,
      "t": 18163.253500000006,
      "d": 42.516979166666715,
      "v": 85
    },
    {
      "midi": 33,
      "hit": false,
      "t": 18163.25350000001,
      "d": 170.06791666666686,
      "v": 105
    },
    {
      "midi": 70,
      "hit": false,
      "t": 18163.25350000001,
      "d": 8.503395833333343,
      "v": 78
    },
    {
      "midi": 42,
      "hit": false,
      "t": 18163.25350000001,
      "d": 8.503395833333343,
      "v": 73
    },
    {
      "midi": 76,
      "hit": false,
      "t": 18222.777270833343,
      "d": 25.51018750000003,
      "v": 75
    },
    {
      "midi": 64,
      "hit": false,
      "t": 18222.777270833343,
      "d": 25.51018750000003,
      "v": 75
    },
    {
      "midi": 74,
      "hit": false,
      "t": 18248.287458333343,
      "d": 17.006791666666686,
      "v": 65
    },
    {
      "midi": 62,
      "hit": false,
      "t": 18248.287458333343,
      "d": 17.006791666666686,
      "v": 65
    },
    {
      "midi": 62,
      "hit": false,
      "t": 18265.294250000006,
      "d": 25.51018750000003,
      "v": 100
    },
    {
      "midi": 66,
      "hit": false,
      "t": 18265.294250000006,
      "d": 25.51018750000003,
      "v": 100
    },
    {
      "midi": 71,
      "hit": false,
      "t": 18265.294250000006,
      "d": 25.51018750000003,
      "v": 110
    },
    {
      "midi": 78,
      "hit": false,
      "t": 18265.294250000006,
      "d": 42.516979166666715,
      "v": 90
    },
    {
      "midi": 81,
      "hit": false,
      "t": 18265.294250000006,
      "d": 42.516979166666715,
      "v": 100
    },
    {
      "midi": 73,
      "hit": false,
      "t": 18265.29425000001,
      "d": 8.503395833333343,
      "v": 55
    },
    {
      "midi": 61,
      "hit": false,
      "t": 18265.29425000001,
      "d": 8.503395833333343,
      "v": 55
    },
    {
      "midi": 70,
      "hit": false,
      "t": 18265.29425000001,
      "d": 8.503395833333343,
      "v": 50
    },
    {
      "midi": 27,
      "hit": false,
      "t": 18265.29425000001,
      "d": 8.503395833333343,
      "v": 70
    },
    {
      "midi": 71,
      "hit": false,
      "t": 18273.797645833343,
      "d": 8.503395833333343,
      "v": 45
    },
    {
      "midi": 59,
      "hit": false,
      "t": 18273.797645833343,
      "d": 8.503395833333343,
      "v": 45
    },
    {
      "midi": 69,
      "hit": false,
      "t": 18282.301041666677,
      "d": 8.503395833333343,
      "v": 45
    },
    {
      "midi": 57,
      "hit": false,
      "t": 18282.301041666677,
      "d": 8.503395833333343,
      "v": 45
    },
    {
      "midi": 50,
      "hit": false,
      "t": 18367.335000000006,
      "d": 382.65281250000044,
      "v": 117
    },
    {
      "midi": 78,
      "hit": false,
      "t": 18367.335000000006,
      "d": 42.516979166666715,
      "v": 110
    },
    {
      "midi": 81,
      "hit": false,
      "t": 18367.335000000006,
      "d": 42.516979166666715,
      "v": 120
    },
    {
      "midi": 38,
      "hit": false,
      "t": 18367.33500000001,
      "d": 195.5781041666669,
      "v": 100
    },
    {
      "midi": 70,
      "hit": false,
      "t": 18367.33500000001,
      "d": 8.503395833333343,
      "v": 78
    },
    {
      "midi": 36,
      "hit": false,
      "t": 18367.33500000001,
      "d": 8.503395833333343,
      "v": 114
    },
    {
      "midi": 38,
      "hit": false,
      "t": 18367.33500000001,
      "d": 8.503395833333343,
      "v": 103
    },
    {
      "midi": 42,
      "hit": false,
      "t": 18367.33500000001,
      "d": 8.503395833333343,
      "v": 73
    },
    {
      "midi": 78,
      "hit": false,
      "t": 18469.375750000003,
      "d": 8.503395833333343,
      "v": 80
    },
    {
      "midi": 62,
      "hit": false,
      "t": 18469.375750000007,
      "d": 25.51018750000003,
      "v": 100
    },
    {
      "midi": 66,
      "hit": false,
      "t": 18469.375750000007,
      "d": 25.51018750000003,
      "v": 100
    },
    {
      "midi": 73,
      "hit": false,
      "t": 18469.375750000007,
      "d": 25.51018750000003,
      "v": 110
    },
    {
      "midi": 78,
      "hit": false,
      "t": 18469.375750000007,
      "d": 42.516979166666715,
      "v": 110
    },
    {
      "midi": 81,
      "hit": false,
      "t": 18469.375750000007,
      "d": 42.516979166666715,
      "v": 120
    },
    {
      "midi": 70,
      "hit": false,
      "t": 18469.37575000001,
      "d": 8.503395833333343,
      "v": 50
    },
    {
      "midi": 27,
      "hit": false,
      "t": 18469.37575000001,
      "d": 8.503395833333343,
      "v": 40
    },
    {
      "midi": 78,
      "hit": false,
      "t": 18571.416500000007,
      "d": 42.516979166666715,
      "v": 110
    },
    {
      "midi": 81,
      "hit": false,
      "t": 18571.416500000007,
      "d": 42.516979166666715,
      "v": 120
    },
    {
      "midi": 35,
      "hit": false,
      "t": 18571.41650000001,
      "d": 85.03395833333343,
      "v": 100
    },
    {
      "midi": 70,
      "hit": false,
      "t": 18571.41650000001,
      "d": 8.503395833333343,
      "v": 78
    },
    {
      "midi": 27,
      "hit": false,
      "t": 18571.41650000001,
      "d": 8.503395833333343,
      "v": 70
    },
    {
      "midi": 42,
      "hit": false,
      "t": 18571.41650000001,
      "d": 8.503395833333343,
      "v": 73
    },
    {
      "midi": 62,
      "hit": false,
      "t": 18673.457250000007,
      "d": 25.51018750000003,
      "v": 100
    },
    {
      "midi": 66,
      "hit": false,
      "t": 18673.457250000007,
      "d": 25.51018750000003,
      "v": 100
    },
    {
      "midi": 71,
      "hit": false,
      "t": 18673.457250000007,
      "d": 25.51018750000003,
      "v": 110
    },
    {
      "midi": 78,
      "hit": false,
      "t": 18673.457250000007,
      "d": 42.516979166666715,
      "v": 105
    },
    {
      "midi": 81,
      "hit": false,
      "t": 18673.457250000007,
      "d": 42.516979166666715,
      "v": 115
    },
    {
      "midi": 47,
      "hit": false,
      "t": 18673.45725000001,
      "d": 59.5237708333334,
      "v": 100
    },
    {
      "midi": 70,
      "hit": false,
      "t": 18673.45725000001,
      "d": 8.503395833333343,
      "v": 50
    },
    {
      "midi": 27,
      "hit": false,
      "t": 18673.45725000001,
      "d": 8.503395833333343,
      "v": 40
    },
    {
      "midi": 38,
      "hit": false,
      "t": 18673.45725000001,
      "d": 8.503395833333343,
      "v": 89
    },
    {
      "midi": 42,
      "hit": false,
      "t": 18673.45725000001,
      "d": 8.503395833333343,
      "v": 64
    },
    {
      "midi": 73,
      "hit": false,
      "t": 18775.498000000003,
      "d": 8.503395833333343,
      "v": 80
    },
    {
      "midi": 50,
      "hit": false,
      "t": 18775.498000000007,
      "d": 204.08150000000023,
      "v": 122
    },
    {
      "midi": 69,
      "hit": false,
      "t": 18775.498000000007,
      "d": 807.8226041666676,
      "v": 98
    },
    {
      "midi": 62,
      "hit": false,
      "t": 18775.498000000007,
      "d": 807.8226041666676,
      "v": 98
    },
    {
      "midi": 78,
      "hit": false,
      "t": 18775.498000000007,
      "d": 42.516979166666715,
      "v": 100
    },
    {
      "midi": 81,
      "hit": false,
      "t": 18775.498000000007,
      "d": 42.516979166666715,
      "v": 110
    },
    {
      "midi": 35,
      "hit": false,
      "t": 18775.49800000001,
      "d": 85.03395833333343,
      "v": 100
    },
    {
      "midi": 70,
      "hit": false,
      "t": 18775.49800000001,
      "d": 8.503395833333343,
      "v": 78
    },
    {
      "midi": 36,
      "hit": false,
      "t": 18775.49800000001,
      "d": 8.503395833333343,
      "v": 114
    },
    {
      "midi": 42,
      "hit": false,
      "t": 18775.49800000001,
      "d": 8.503395833333343,
      "v": 73
    },
    {
      "midi": 62,
      "hit": false,
      "t": 18877.538750000007,
      "d": 25.51018750000003,
      "v": 100
    },
    {
      "midi": 66,
      "hit": false,
      "t": 18877.538750000007,
      "d": 25.51018750000003,
      "v": 100
    },
    {
      "midi": 73,
      "hit": false,
      "t": 18877.538750000007,
      "d": 25.51018750000003,
      "v": 110
    },
    {
      "midi": 78,
      "hit": false,
      "t": 18877.538750000007,
      "d": 42.516979166666715,
      "v": 94
    },
    {
      "midi": 81,
      "hit": false,
      "t": 18877.538750000007,
      "d": 42.516979166666715,
      "v": 104
    },
    {
      "midi": 33,
      "hit": false,
      "t": 18877.53875000001,
      "d": 187.07470833333355,
      "v": 100
    },
    {
      "midi": 70,
      "hit": false,
      "t": 18877.53875000001,
      "d": 8.503395833333343,
      "v": 50
    },
    {
      "midi": 27,
      "hit": false,
      "t": 18877.53875000001,
      "d": 8.503395833333343,
      "v": 70
    },
    {
      "midi": 59,
      "hit": false,
      "t": 18979.579500000007,
      "d": 357.1426250000004,
      "v": 110
    },
    {
      "midi": 78,
      "hit": false,
      "t": 18979.579500000007,
      "d": 42.516979166666715,
      "v": 87
    },
    {
      "midi": 81,
      "hit": false,
      "t": 18979.579500000007,
      "d": 42.516979166666715,
      "v": 97
    },
    {
      "midi": 70,
      "hit": false,
      "t": 18979.57950000001,
      "d": 8.503395833333343,
      "v": 78
    },
    {
      "midi": 38,
      "hit": false,
      "t": 18979.57950000001,
      "d": 8.503395833333343,
      "v": 107
    },
    {
      "midi": 42,
      "hit": false,
      "t": 18979.57950000001,
      "d": 8.503395833333343,
      "v": 73
    },
    {
      "midi": 73,
      "hit": false,
      "t": 19081.620250000004,
      "d": 8.503395833333343,
      "v": 80
    },
    {
      "midi": 62,
      "hit": false,
      "t": 19081.620250000007,
      "d": 25.51018750000003,
      "v": 100
    },
    {
      "midi": 66,
      "hit": false,
      "t": 19081.620250000007,
      "d": 25.51018750000003,
      "v": 100
    },
    {
      "midi": 73,
      "hit": false,
      "t": 19081.620250000007,
      "d": 25.51018750000003,
      "v": 110
    },
    {
      "midi": 78,
      "hit": false,
      "t": 19081.620250000007,
      "d": 42.516979166666715,
      "v": 80
    },
    {
      "midi": 81,
      "hit": false,
      "t": 19081.620250000007,
      "d": 42.516979166666715,
      "v": 90
    },
    {
      "midi": 35,
      "hit": false,
      "t": 19081.62025000001,
      "d": 187.07470833333355,
      "v": 106
    },
    {
      "midi": 70,
      "hit": false,
      "t": 19081.62025000001,
      "d": 8.503395833333343,
      "v": 50
    },
    {
      "midi": 42,
      "hit": false,
      "t": 19081.62025000001,
      "d": 8.503395833333343,
      "v": 64
    },
    {
      "midi": 78,
      "hit": false,
      "t": 19183.661000000007,
      "d": 42.516979166666715,
      "v": 65
    },
    {
      "midi": 81,
      "hit": false,
      "t": 19183.661000000007,
      "d": 42.516979166666715,
      "v": 75
    },
    {
      "midi": 36,
      "hit": false,
      "t": 19183.66100000001,
      "d": 8.503395833333343,
      "v": 114
    },
    {
      "midi": 70,
      "hit": false,
      "t": 19183.66100000001,
      "d": 8.503395833333343,
      "v": 78
    },
    {
      "midi": 38,
      "hit": false,
      "t": 19183.66100000001,
      "d": 8.503395833333343,
      "v": 99
    },
    {
      "midi": 42,
      "hit": false,
      "t": 19183.66100000001,
      "d": 8.503395833333343,
      "v": 73
    },
    {
      "midi": 62,
      "hit": false,
      "t": 19285.701750000007,
      "d": 25.51018750000003,
      "v": 100
    },
    {
      "midi": 66,
      "hit": false,
      "t": 19285.701750000007,
      "d": 25.51018750000003,
      "v": 100
    },
    {
      "midi": 71,
      "hit": false,
      "t": 19285.701750000007,
      "d": 25.51018750000003,
      "v": 110
    },
    {
      "midi": 78,
      "hit": false,
      "t": 19285.701750000007,
      "d": 42.516979166666715,
      "v": 45
    },
    {
      "midi": 81,
      "hit": false,
      "t": 19285.701750000007,
      "d": 42.516979166666715,
      "v": 55
    },
    {
      "midi": 47,
      "hit": false,
      "t": 19285.70175000001,
      "d": 68.02716666666674,
      "v": 100
    },
    {
      "midi": 70,
      "hit": false,
      "t": 19285.70175000001,
      "d": 8.503395833333343,
      "v": 50
    },
    {
      "midi": 73,
      "hit": false,
      "t": 19387.742500000004,
      "d": 8.503395833333343,
      "v": 80
    },
    {
      "midi": 56,
      "hit": false,
      "t": 19387.742500000008,
      "d": 348.63922916666706,
      "v": 117
    },
    {
      "midi": 62,
      "hit": false,
      "t": 19387.742500000008,
      "d": 25.51018750000003,
      "v": 100
    },
    {
      "midi": 66,
      "hit": false,
      "t": 19387.742500000008,
      "d": 25.51018750000003,
      "v": 100
    },
    {
      "midi": 73,
      "hit": false,
      "t": 19387.742500000008,
      "d": 25.51018750000003,
      "v": 110
    },
    {
      "midi": 78,
      "hit": false,
      "t": 19387.742500000008,
      "d": 51.02037500000006,
      "v": 50
    },
    {
      "midi": 81,
      "hit": false,
      "t": 19387.742500000008,
      "d": 51.02037500000006,
      "v": 60
    },
    {
      "midi": 38,
      "hit": false,
      "t": 19387.74250000001,
      "d": 187.07470833333355,
      "v": 100
    },
    {
      "midi": 70,
      "hit": false,
      "t": 19387.74250000001,
      "d": 8.503395833333343,
      "v": 78
    },
    {
      "midi": 42,
      "hit": false,
      "t": 19387.74250000001,
      "d": 8.503395833333343,
      "v": 73
    },
    {
      "midi": 70,
      "hit": false,
      "t": 19489.78325000001,
      "d": 8.503395833333343,
      "v": 50
    },
    {
      "midi": 38,
      "hit": false,
      "t": 19489.78325000001,
      "d": 8.503395833333343,
      "v": 89
    },
    {
      "midi": 42,
      "hit": false,
      "t": 19489.78325000001,
      "d": 8.503395833333343,
      "v": 64
    },
    {
      "midi": 62,
      "hit": false,
      "t": 19591.824000000004,
      "d": 1632.6520000000019,
      "v": 89
    },
    {
      "midi": 71,
      "hit": false,
      "t": 19591.824000000008,
      "d": 1632.6520000000019,
      "v": 92
    },
    {
      "midi": 66,
      "hit": false,
      "t": 19591.824000000008,
      "d": 1632.6520000000019,
      "v": 92
    },
    {
      "midi": 66,
      "hit": false,
      "t": 19591.824000000008,
      "d": 25.51018750000003,
      "v": 100
    },
    {
      "midi": 68,
      "hit": false,
      "t": 19591.824000000008,
      "d": 25.51018750000003,
      "v": 100
    },
    {
      "midi": 73,
      "hit": false,
      "t": 19591.824000000008,
      "d": 25.51018750000003,
      "v": 110
    },
    {
      "midi": 76,
      "hit": false,
      "t": 19591.824000000008,
      "d": 42.516979166666715,
      "v": 50
    },
    {
      "midi": 80,
      "hit": false,
      "t": 19591.824000000008,
      "d": 42.516979166666715,
      "v": 60
    },
    {
      "midi": 40,
      "hit": false,
      "t": 19591.82400000001,
      "d": 59.5237708333334,
      "v": 100
    },
    {
      "midi": 70,
      "hit": false,
      "t": 19591.82400000001,
      "d": 8.503395833333343,
      "v": 78
    },
    {
      "midi": 36,
      "hit": false,
      "t": 19591.82400000001,
      "d": 8.503395833333343,
      "v": 114
    },
    {
      "midi": 42,
      "hit": false,
      "t": 19591.82400000001,
      "d": 8.503395833333343,
      "v": 73
    },
    {
      "midi": 66,
      "hit": false,
      "t": 19693.864750000008,
      "d": 25.51018750000003,
      "v": 100
    },
    {
      "midi": 68,
      "hit": false,
      "t": 19693.864750000008,
      "d": 25.51018750000003,
      "v": 100
    },
    {
      "midi": 73,
      "hit": false,
      "t": 19693.864750000008,
      "d": 25.51018750000003,
      "v": 110
    },
    {
      "midi": 76,
      "hit": false,
      "t": 19693.864750000008,
      "d": 42.516979166666715,
      "v": 65
    },
    {
      "midi": 80,
      "hit": false,
      "t": 19693.864750000008,
      "d": 42.516979166666715,
      "v": 75
    },
    {
      "midi": 40,
      "hit": false,
      "t": 19693.86475000001,
      "d": 51.02037500000006,
      "v": 100
    },
    {
      "midi": 70,
      "hit": false,
      "t": 19693.86475000001,
      "d": 8.503395833333343,
      "v": 50
    },
    {
      "midi": 78,
      "hit": false,
      "t": 19795.905500000004,
      "d": 8.503395833333343,
      "v": 80
    },
    {
      "midi": 56,
      "hit": false,
      "t": 19795.905500000008,
      "d": 391.1562083333338,
      "v": 121
    },
    {
      "midi": 76,
      "hit": false,
      "t": 19795.905500000008,
      "d": 42.516979166666715,
      "v": 75
    },
    {
      "midi": 80,
      "hit": false,
      "t": 19795.905500000008,
      "d": 42.516979166666715,
      "v": 85
    },
    {
      "midi": 38,
      "hit": false,
      "t": 19795.90550000001,
      "d": 170.06791666666686,
      "v": 105
    },
    {
      "midi": 70,
      "hit": false,
      "t": 19795.90550000001,
      "d": 8.503395833333343,
      "v": 78
    },
    {
      "midi": 42,
      "hit": false,
      "t": 19795.90550000001,
      "d": 8.503395833333343,
      "v": 73
    },
    {
      "midi": 64,
      "hit": false,
      "t": 19897.946250000008,
      "d": 25.51018750000003,
      "v": 100
    },
    {
      "midi": 68,
      "hit": false,
      "t": 19897.946250000008,
      "d": 25.51018750000003,
      "v": 100
    },
    {
      "midi": 71,
      "hit": false,
      "t": 19897.946250000008,
      "d": 25.51018750000003,
      "v": 110
    },
    {
      "midi": 76,
      "hit": false,
      "t": 19897.946250000008,
      "d": 42.516979166666715,
      "v": 90
    },
    {
      "midi": 80,
      "hit": false,
      "t": 19897.946250000008,
      "d": 42.516979166666715,
      "v": 100
    },
    {
      "midi": 70,
      "hit": false,
      "t": 19897.94625000001,
      "d": 8.503395833333343,
      "v": 50
    },
    {
      "midi": 42,
      "hit": false,
      "t": 19897.94625000001,
      "d": 8.503395833333343,
      "v": 64
    },
    {
      "midi": 76,
      "hit": false,
      "t": 19999.98700000001,
      "d": 42.516979166666715,
      "v": 110
    },
    {
      "midi": 80,
      "hit": false,
      "t": 19999.98700000001,
      "d": 42.516979166666715,
      "v": 120
    },
    {
      "midi": 42,
      "hit": false,
      "t": 19999.987000000012,
      "d": 195.5781041666669,
      "v": 100
    },
    {
      "midi": 70,
      "hit": false,
      "t": 19999.987000000012,
      "d": 8.503395833333343,
      "v": 78
    },
    {
      "midi": 36,
      "hit": false,
      "t": 19999.987000000012,
      "d": 8.503395833333343,
      "v": 114
    },
    {
      "midi": 38,
      "hit": false,
      "t": 19999.987000000012,
      "d": 8.503395833333343,
      "v": 103
    },
    {
      "midi": 42,
      "hit": false,
      "t": 19999.987000000012,
      "d": 8.503395833333343,
      "v": 73
    },
    {
      "midi": 78,
      "hit": false,
      "t": 20102.027750000005,
      "d": 8.503395833333343,
      "v": 80
    },
    {
      "midi": 66,
      "hit": false,
      "t": 20102.02775000001,
      "d": 25.51018750000003,
      "v": 100
    },
    {
      "midi": 68,
      "hit": false,
      "t": 20102.02775000001,
      "d": 25.51018750000003,
      "v": 100
    },
    {
      "midi": 73,
      "hit": false,
      "t": 20102.02775000001,
      "d": 25.51018750000003,
      "v": 110
    },
    {
      "midi": 76,
      "hit": false,
      "t": 20102.02775000001,
      "d": 42.516979166666715,
      "v": 110
    },
    {
      "midi": 80,
      "hit": false,
      "t": 20102.02775000001,
      "d": 42.516979166666715,
      "v": 120
    },
    {
      "midi": 70,
      "hit": false,
      "t": 20102.027750000012,
      "d": 8.503395833333343,
      "v": 50
    },
    {
      "midi": 54,
      "hit": false,
      "t": 20204.06850000001,
      "d": 382.65281250000044,
      "v": 103
    },
    {
      "midi": 76,
      "hit": false,
      "t": 20204.06850000001,
      "d": 42.516979166666715,
      "v": 110
    },
    {
      "midi": 80,
      "hit": false,
      "t": 20204.06850000001,
      "d": 42.516979166666715,
      "v": 120
    },
    {
      "midi": 40,
      "hit": false,
      "t": 20204.068500000012,
      "d": 187.07470833333355,
      "v": 95
    },
    {
      "midi": 70,
      "hit": false,
      "t": 20204.068500000012,
      "d": 8.503395833333343,
      "v": 78
    },
    {
      "midi": 27,
      "hit": false,
      "t": 20204.068500000012,
      "d": 8.503395833333343,
      "v": 70
    },
    {
      "midi": 42,
      "hit": false,
      "t": 20204.068500000012,
      "d": 8.503395833333343,
      "v": 73
    },
    {
      "midi": 64,
      "hit": false,
      "t": 20306.10925000001,
      "d": 25.51018750000003,
      "v": 100
    },
    {
      "midi": 68,
      "hit": false,
      "t": 20306.10925000001,
      "d": 25.51018750000003,
      "v": 100
    },
    {
      "midi": 71,
      "hit": false,
      "t": 20306.10925000001,
      "d": 25.51018750000003,
      "v": 110
    },
    {
      "midi": 76,
      "hit": false,
      "t": 20306.10925000001,
      "d": 42.516979166666715,
      "v": 105
    },
    {
      "midi": 80,
      "hit": false,
      "t": 20306.10925000001,
      "d": 42.516979166666715,
      "v": 115
    },
    {
      "midi": 70,
      "hit": false,
      "t": 20306.109250000012,
      "d": 8.503395833333343,
      "v": 50
    },
    {
      "midi": 27,
      "hit": false,
      "t": 20306.109250000012,
      "d": 8.503395833333343,
      "v": 70
    },
    {
      "midi": 38,
      "hit": false,
      "t": 20306.109250000012,
      "d": 8.503395833333343,
      "v": 89
    },
    {
      "midi": 42,
      "hit": false,
      "t": 20306.109250000012,
      "d": 8.503395833333343,
      "v": 64
    },
    {
      "midi": 73,
      "hit": false,
      "t": 20408.150000000005,
      "d": 8.503395833333343,
      "v": 80
    },
    {
      "midi": 76,
      "hit": false,
      "t": 20408.15000000001,
      "d": 42.516979166666715,
      "v": 100
    },
    {
      "midi": 80,
      "hit": false,
      "t": 20408.15000000001,
      "d": 42.516979166666715,
      "v": 110
    },
    {
      "midi": 40,
      "hit": false,
      "t": 20408.150000000012,
      "d": 85.03395833333343,
      "v": 100
    },
    {
      "midi": 36,
      "hit": false,
      "t": 20408.150000000012,
      "d": 8.503395833333343,
      "v": 114
    },
    {
      "midi": 70,
      "hit": false,
      "t": 20408.150000000012,
      "d": 8.503395833333343,
      "v": 78
    },
    {
      "midi": 42,
      "hit": false,
      "t": 20408.150000000012,
      "d": 8.503395833333343,
      "v": 73
    },
    {
      "midi": 66,
      "hit": false,
      "t": 20510.19075000001,
      "d": 25.51018750000003,
      "v": 100
    },
    {
      "midi": 68,
      "hit": false,
      "t": 20510.19075000001,
      "d": 25.51018750000003,
      "v": 100
    },
    {
      "midi": 73,
      "hit": false,
      "t": 20510.19075000001,
      "d": 25.51018750000003,
      "v": 110
    },
    {
      "midi": 76,
      "hit": false,
      "t": 20510.19075000001,
      "d": 42.516979166666715,
      "v": 94
    },
    {
      "midi": 80,
      "hit": false,
      "t": 20510.19075000001,
      "d": 42.516979166666715,
      "v": 104
    },
    {
      "midi": 38,
      "hit": false,
      "t": 20510.190750000012,
      "d": 187.07470833333355,
      "v": 100
    },
    {
      "midi": 70,
      "hit": false,
      "t": 20510.190750000012,
      "d": 8.503395833333343,
      "v": 50
    },
    {
      "midi": 27,
      "hit": false,
      "t": 20510.190750000012,
      "d": 8.503395833333343,
      "v": 70
    },
    {
      "midi": 38,
      "hit": false,
      "t": 20510.190750000012,
      "d": 8.503395833333343,
      "v": 103
    },
    {
      "midi": 56,
      "hit": false,
      "t": 20612.23150000001,
      "d": 204.08150000000023,
      "v": 112
    },
    {
      "midi": 76,
      "hit": false,
      "t": 20612.23150000001,
      "d": 42.516979166666715,
      "v": 87
    },
    {
      "midi": 80,
      "hit": false,
      "t": 20612.23150000001,
      "d": 42.516979166666715,
      "v": 97
    },
    {
      "midi": 70,
      "hit": false,
      "t": 20612.231500000013,
      "d": 8.503395833333343,
      "v": 78
    },
    {
      "midi": 27,
      "hit": false,
      "t": 20612.231500000013,
      "d": 8.503395833333343,
      "v": 40
    },
    {
      "midi": 42,
      "hit": false,
      "t": 20612.231500000013,
      "d": 8.503395833333343,
      "v": 73
    },
    {
      "midi": 73,
      "hit": false,
      "t": 20714.272250000005,
      "d": 8.503395833333343,
      "v": 80
    },
    {
      "midi": 66,
      "hit": false,
      "t": 20714.27225000001,
      "d": 25.51018750000003,
      "v": 100
    },
    {
      "midi": 68,
      "hit": false,
      "t": 20714.27225000001,
      "d": 25.51018750000003,
      "v": 100
    },
    {
      "midi": 73,
      "hit": false,
      "t": 20714.27225000001,
      "d": 25.51018750000003,
      "v": 110
    },
    {
      "midi": 76,
      "hit": false,
      "t": 20714.27225000001,
      "d": 42.516979166666715,
      "v": 80
    },
    {
      "midi": 80,
      "hit": false,
      "t": 20714.27225000001,
      "d": 42.516979166666715,
      "v": 90
    },
    {
      "midi": 40,
      "hit": false,
      "t": 20714.272250000013,
      "d": 187.07470833333355,
      "v": 105
    },
    {
      "midi": 70,
      "hit": false,
      "t": 20714.272250000013,
      "d": 8.503395833333343,
      "v": 50
    },
    {
      "midi": 27,
      "hit": false,
      "t": 20714.272250000013,
      "d": 8.503395833333343,
      "v": 70
    },
    {
      "midi": 42,
      "hit": false,
      "t": 20714.272250000013,
      "d": 8.503395833333343,
      "v": 64
    },
    {
      "midi": 54,
      "hit": false,
      "t": 20816.31300000001,
      "d": 204.08150000000023,
      "v": 126
    },
    {
      "midi": 76,
      "hit": false,
      "t": 20816.31300000001,
      "d": 42.516979166666715,
      "v": 65
    },
    {
      "midi": 80,
      "hit": false,
      "t": 20816.31300000001,
      "d": 42.516979166666715,
      "v": 75
    },
    {
      "midi": 36,
      "hit": false,
      "t": 20816.313000000013,
      "d": 8.503395833333343,
      "v": 114
    },
    {
      "midi": 70,
      "hit": false,
      "t": 20816.313000000013,
      "d": 8.503395833333343,
      "v": 78
    },
    {
      "midi": 38,
      "hit": false,
      "t": 20816.313000000013,
      "d": 8.503395833333343,
      "v": 103
    },
    {
      "midi": 42,
      "hit": false,
      "t": 20816.313000000013,
      "d": 8.503395833333343,
      "v": 73
    },
    {
      "midi": 64,
      "hit": false,
      "t": 20918.35375000001,
      "d": 25.51018750000003,
      "v": 100
    },
    {
      "midi": 68,
      "hit": false,
      "t": 20918.35375000001,
      "d": 25.51018750000003,
      "v": 100
    },
    {
      "midi": 71,
      "hit": false,
      "t": 20918.35375000001,
      "d": 25.51018750000003,
      "v": 110
    },
    {
      "midi": 76,
      "hit": false,
      "t": 20918.35375000001,
      "d": 42.516979166666715,
      "v": 45
    },
    {
      "midi": 80,
      "hit": false,
      "t": 20918.35375000001,
      "d": 42.516979166666715,
      "v": 55
    },
    {
      "midi": 52,
      "hit": false,
      "t": 20918.353750000013,
      "d": 68.02716666666674,
      "v": 100
    },
    {
      "midi": 70,
      "hit": false,
      "t": 20918.353750000013,
      "d": 8.503395833333343,
      "v": 50
    },
    {
      "midi": 27,
      "hit": false,
      "t": 20918.353750000013,
      "d": 8.503395833333343,
      "v": 70
    },
    {
      "midi": 73,
      "hit": false,
      "t": 21020.394500000006,
      "d": 8.503395833333343,
      "v": 80
    },
    {
      "midi": 52,
      "hit": false,
      "t": 21020.39450000001,
      "d": 204.08150000000023,
      "v": 119
    },
    {
      "midi": 66,
      "hit": false,
      "t": 21020.39450000001,
      "d": 25.51018750000003,
      "v": 100
    },
    {
      "midi": 68,
      "hit": false,
      "t": 21020.39450000001,
      "d": 25.51018750000003,
      "v": 100
    },
    {
      "midi": 73,
      "hit": false,
      "t": 21020.39450000001,
      "d": 25.51018750000003,
      "v": 110
    },
    {
      "midi": 76,
      "hit": false,
      "t": 21020.39450000001,
      "d": 51.02037500000006,
      "v": 50
    },
    {
      "midi": 80,
      "hit": false,
      "t": 21020.39450000001,
      "d": 51.02037500000006,
      "v": 60
    },
    {
      "midi": 38,
      "hit": false,
      "t": 21020.394500000013,
      "d": 187.07470833333355,
      "v": 100
    },
    {
      "midi": 70,
      "hit": false,
      "t": 21020.394500000013,
      "d": 8.503395833333343,
      "v": 78
    },
    {
      "midi": 36,
      "hit": false,
      "t": 21020.394500000013,
      "d": 8.503395833333343,
      "v": 114
    },
    {
      "midi": 42,
      "hit": false,
      "t": 21020.394500000013,
      "d": 8.503395833333343,
      "v": 73
    },
    {
      "midi": 70,
      "hit": false,
      "t": 21122.435250000013,
      "d": 8.503395833333343,
      "v": 50
    },
    {
      "midi": 38,
      "hit": false,
      "t": 21122.435250000013,
      "d": 8.503395833333343,
      "v": 89
    },
    {
      "midi": 42,
      "hit": false,
      "t": 21122.435250000013,
      "d": 8.503395833333343,
      "v": 64
    },
    {
      "midi": 61,
      "hit": false,
      "t": 21224.47600000001,
      "d": 25.51018750000003,
      "v": 100
    },
    {
      "midi": 68,
      "hit": false,
      "t": 21224.47600000001,
      "d": 25.51018750000003,
      "v": 100
    },
    {
      "midi": 73,
      "hit": false,
      "t": 21224.47600000001,
      "d": 25.51018750000003,
      "v": 110
    },
    {
      "midi": 76,
      "hit": false,
      "t": 21224.47600000001,
      "d": 42.516979166666715,
      "v": 80
    },
    {
      "midi": 80,
      "hit": false,
      "t": 21224.47600000001,
      "d": 42.516979166666715,
      "v": 90
    },
    {
      "midi": 33,
      "hit": false,
      "t": 21224.476000000013,
      "d": 59.5237708333334,
      "v": 105
    },
    {
      "midi": 36,
      "hit": false,
      "t": 21224.476000000013,
      "d": 8.503395833333343,
      "v": 114
    },
    {
      "midi": 70,
      "hit": false,
      "t": 21224.476000000013,
      "d": 8.503395833333343,
      "v": 78
    },
    {
      "midi": 42,
      "hit": false,
      "t": 21224.476000000013,
      "d": 8.503395833333343,
      "v": 73
    },
    {
      "midi": 61,
      "hit": false,
      "t": 21326.51675000001,
      "d": 25.51018750000003,
      "v": 100
    },
    {
      "midi": 68,
      "hit": false,
      "t": 21326.51675000001,
      "d": 25.51018750000003,
      "v": 100
    },
    {
      "midi": 73,
      "hit": false,
      "t": 21326.51675000001,
      "d": 25.51018750000003,
      "v": 110
    },
    {
      "midi": 76,
      "hit": false,
      "t": 21326.51675000001,
      "d": 42.516979166666715,
      "v": 78
    },
    {
      "midi": 80,
      "hit": false,
      "t": 21326.51675000001,
      "d": 42.516979166666715,
      "v": 88
    },
    {
      "midi": 33,
      "hit": false,
      "t": 21326.516750000013,
      "d": 42.516979166666715,
      "v": 100
    },
    {
      "midi": 70,
      "hit": false,
      "t": 21326.516750000013,
      "d": 8.503395833333343,
      "v": 50
    },
    {
      "midi": 27,
      "hit": false,
      "t": 21326.516750000013,
      "d": 8.503395833333343,
      "v": 70
    },
    {
      "midi": 78,
      "hit": false,
      "t": 21428.557500000006,
      "d": 8.503395833333343,
      "v": 80
    },
    {
      "midi": 76,
      "hit": false,
      "t": 21428.55750000001,
      "d": 42.516979166666715,
      "v": 85
    },
    {
      "midi": 80,
      "hit": false,
      "t": 21428.55750000001,
      "d": 42.516979166666715,
      "v": 90
    },
    {
      "midi": 32,
      "hit": false,
      "t": 21428.557500000014,
      "d": 170.06791666666686,
      "v": 105
    },
    {
      "midi": 70,
      "hit": false,
      "t": 21428.557500000014,
      "d": 8.503395833333343,
      "v": 78
    },
    {
      "midi": 42,
      "hit": false,
      "t": 21428.557500000014,
      "d": 8.503395833333343,
      "v": 73
    },
    {
      "midi": 61,
      "hit": false,
      "t": 21530.59825000001,
      "d": 25.51018750000003,
      "v": 100
    },
    {
      "midi": 68,
      "hit": false,
      "t": 21530.59825000001,
      "d": 25.51018750000003,
      "v": 100
    },
    {
      "midi": 71,
      "hit": false,
      "t": 21530.59825000001,
      "d": 25.51018750000003,
      "v": 110
    },
    {
      "midi": 76,
      "hit": false,
      "t": 21530.59825000001,
      "d": 42.516979166666715,
      "v": 95
    },
    {
      "midi": 80,
      "hit": false,
      "t": 21530.59825000001,
      "d": 42.516979166666715,
      "v": 105
    },
    {
      "midi": 70,
      "hit": false,
      "t": 21530.598250000014,
      "d": 8.503395833333343,
      "v": 50
    },
    {
      "midi": 27,
      "hit": false,
      "t": 21530.598250000014,
      "d": 8.503395833333343,
      "v": 70
    },
    {
      "midi": 42,
      "hit": false,
      "t": 21530.598250000014,
      "d": 8.503395833333343,
      "v": 64
    },
    {
      "midi": 52,
      "hit": false,
      "t": 21632.63900000001,
      "d": 221.08829166666692,
      "v": 117
    },
    {
      "midi": 76,
      "hit": false,
      "t": 21632.63900000001,
      "d": 42.516979166666715,
      "v": 100
    },
    {
      "midi": 80,
      "hit": false,
      "t": 21632.63900000001,
      "d": 42.516979166666715,
      "v": 110
    },
    {
      "midi": 35,
      "hit": false,
      "t": 21632.639000000014,
      "d": 195.5781041666669,
      "v": 106
    },
    {
      "midi": 70,
      "hit": false,
      "t": 21632.639000000014,
      "d": 8.503395833333343,
      "v": 78
    },
    {
      "midi": 36,
      "hit": false,
      "t": 21632.639000000014,
      "d": 8.503395833333343,
      "v": 114
    },
    {
      "midi": 38,
      "hit": false,
      "t": 21632.639000000014,
      "d": 8.503395833333343,
      "v": 103
    },
    {
      "midi": 42,
      "hit": false,
      "t": 21632.639000000014,
      "d": 8.503395833333343,
      "v": 73
    },
    {
      "midi": 78,
      "hit": false,
      "t": 21734.679750000007,
      "d": 8.503395833333343,
      "v": 80
    },
    {
      "midi": 61,
      "hit": false,
      "t": 21734.67975000001,
      "d": 25.51018750000003,
      "v": 100
    },
    {
      "midi": 68,
      "hit": false,
      "t": 21734.67975000001,
      "d": 25.51018750000003,
      "v": 100
    },
    {
      "midi": 73,
      "hit": false,
      "t": 21734.67975000001,
      "d": 25.51018750000003,
      "v": 110
    },
    {
      "midi": 76,
      "hit": false,
      "t": 21734.67975000001,
      "d": 42.516979166666715,
      "v": 105
    },
    {
      "midi": 80,
      "hit": false,
      "t": 21734.67975000001,
      "d": 42.516979166666715,
      "v": 115
    },
    {
      "midi": 70,
      "hit": false,
      "t": 21734.679750000014,
      "d": 8.503395833333343,
      "v": 50
    },
    {
      "midi": 27,
      "hit": false,
      "t": 21734.679750000014,
      "d": 8.503395833333343,
      "v": 40
    },
    {
      "midi": 76,
      "hit": false,
      "t": 21836.72050000001,
      "d": 42.516979166666715,
      "v": 110
    },
    {
      "midi": 80,
      "hit": false,
      "t": 21836.72050000001,
      "d": 42.516979166666715,
      "v": 120
    },
    {
      "midi": 33,
      "hit": false,
      "t": 21836.720500000014,
      "d": 85.03395833333343,
      "v": 100
    },
    {
      "midi": 70,
      "hit": false,
      "t": 21836.720500000014,
      "d": 8.503395833333343,
      "v": 78
    },
    {
      "midi": 27,
      "hit": false,
      "t": 21836.720500000014,
      "d": 8.503395833333343,
      "v": 70
    },
    {
      "midi": 42,
      "hit": false,
      "t": 21836.720500000014,
      "d": 8.503395833333343,
      "v": 73
    },
    {
      "midi": 61,
      "hit": false,
      "t": 21938.76125000001,
      "d": 25.51018750000003,
      "v": 100
    },
    {
      "midi": 68,
      "hit": false,
      "t": 21938.76125000001,
      "d": 25.51018750000003,
      "v": 100
    },
    {
      "midi": 71,
      "hit": false,
      "t": 21938.76125000001,
      "d": 25.51018750000003,
      "v": 110
    },
    {
      "midi": 76,
      "hit": false,
      "t": 21938.76125000001,
      "d": 42.516979166666715,
      "v": 105
    },
    {
      "midi": 80,
      "hit": false,
      "t": 21938.76125000001,
      "d": 42.516979166666715,
      "v": 115
    },
    {
      "midi": 45,
      "hit": false,
      "t": 21938.761250000014,
      "d": 59.5237708333334,
      "v": 100
    },
    {
      "midi": 70,
      "hit": false,
      "t": 21938.761250000014,
      "d": 8.503395833333343,
      "v": 50
    },
    {
      "midi": 27,
      "hit": false,
      "t": 21938.761250000014,
      "d": 8.503395833333343,
      "v": 40
    },
    {
      "midi": 38,
      "hit": false,
      "t": 21938.761250000014,
      "d": 8.503395833333343,
      "v": 89
    },
    {
      "midi": 42,
      "hit": false,
      "t": 21938.761250000014,
      "d": 8.503395833333343,
      "v": 64
    },
    {
      "midi": 64,
      "hit": false,
      "t": 22040.802000000007,
      "d": 807.8226041666676,
      "v": 95
    },
    {
      "midi": 73,
      "hit": false,
      "t": 22040.802000000007,
      "d": 8.503395833333343,
      "v": 80
    },
    {
      "midi": 52,
      "hit": false,
      "t": 22040.80200000001,
      "d": 204.08150000000023,
      "v": 117
    },
    {
      "midi": 71,
      "hit": false,
      "t": 22040.80200000001,
      "d": 807.8226041666676,
      "v": 98
    },
    {
      "midi": 68,
      "hit": false,
      "t": 22040.80200000001,
      "d": 807.8226041666676,
      "v": 98
    },
    {
      "midi": 76,
      "hit": false,
      "t": 22040.80200000001,
      "d": 42.516979166666715,
      "v": 100
    },
    {
      "midi": 80,
      "hit": false,
      "t": 22040.80200000001,
      "d": 42.516979166666715,
      "v": 110
    },
    {
      "midi": 33,
      "hit": false,
      "t": 22040.802000000014,
      "d": 85.03395833333343,
      "v": 106
    },
    {
      "midi": 70,
      "hit": false,
      "t": 22040.802000000014,
      "d": 8.503395833333343,
      "v": 78
    },
    {
      "midi": 36,
      "hit": false,
      "t": 22040.802000000014,
      "d": 8.503395833333343,
      "v": 114
    },
    {
      "midi": 42,
      "hit": false,
      "t": 22040.802000000014,
      "d": 8.503395833333343,
      "v": 73
    },
    {
      "midi": 61,
      "hit": false,
      "t": 22142.84275000001,
      "d": 25.51018750000003,
      "v": 100
    },
    {
      "midi": 68,
      "hit": false,
      "t": 22142.84275000001,
      "d": 25.51018750000003,
      "v": 100
    },
    {
      "midi": 73,
      "hit": false,
      "t": 22142.84275000001,
      "d": 25.51018750000003,
      "v": 110
    },
    {
      "midi": 76,
      "hit": false,
      "t": 22142.84275000001,
      "d": 42.516979166666715,
      "v": 94
    },
    {
      "midi": 80,
      "hit": false,
      "t": 22142.84275000001,
      "d": 42.516979166666715,
      "v": 104
    },
    {
      "midi": 32,
      "hit": false,
      "t": 22142.842750000014,
      "d": 187.07470833333355,
      "v": 100
    },
    {
      "midi": 70,
      "hit": false,
      "t": 22142.842750000014,
      "d": 8.503395833333343,
      "v": 50
    },
    {
      "midi": 27,
      "hit": false,
      "t": 22142.842750000014,
      "d": 8.503395833333343,
      "v": 70
    },
    {
      "midi": 59,
      "hit": false,
      "t": 22244.88350000001,
      "d": 204.08150000000023,
      "v": 107
    },
    {
      "midi": 76,
      "hit": false,
      "t": 22244.88350000001,
      "d": 42.516979166666715,
      "v": 87
    },
    {
      "midi": 80,
      "hit": false,
      "t": 22244.88350000001,
      "d": 42.516979166666715,
      "v": 97
    },
    {
      "midi": 70,
      "hit": false,
      "t": 22244.883500000014,
      "d": 8.503395833333343,
      "v": 78
    },
    {
      "midi": 38,
      "hit": false,
      "t": 22244.883500000014,
      "d": 8.503395833333343,
      "v": 107
    },
    {
      "midi": 42,
      "hit": false,
      "t": 22244.883500000014,
      "d": 8.503395833333343,
      "v": 73
    },
    {
      "midi": 73,
      "hit": false,
      "t": 22346.924250000007,
      "d": 8.503395833333343,
      "v": 80
    },
    {
      "midi": 61,
      "hit": false,
      "t": 22346.92425000001,
      "d": 25.51018750000003,
      "v": 100
    },
    {
      "midi": 68,
      "hit": false,
      "t": 22346.92425000001,
      "d": 25.51018750000003,
      "v": 100
    },
    {
      "midi": 73,
      "hit": false,
      "t": 22346.92425000001,
      "d": 25.51018750000003,
      "v": 110
    },
    {
      "midi": 76,
      "hit": false,
      "t": 22346.92425000001,
      "d": 42.516979166666715,
      "v": 80
    },
    {
      "midi": 80,
      "hit": false,
      "t": 22346.92425000001,
      "d": 42.516979166666715,
      "v": 90
    },
    {
      "midi": 33,
      "hit": false,
      "t": 22346.924250000015,
      "d": 187.07470833333355,
      "v": 105
    },
    {
      "midi": 70,
      "hit": false,
      "t": 22346.924250000015,
      "d": 8.503395833333343,
      "v": 50
    },
    {
      "midi": 42,
      "hit": false,
      "t": 22346.924250000015,
      "d": 8.503395833333343,
      "v": 64
    },
    {
      "midi": 56,
      "hit": false,
      "t": 22448.96500000001,
      "d": 204.08150000000023,
      "v": 117
    },
    {
      "midi": 76,
      "hit": false,
      "t": 22448.96500000001,
      "d": 42.516979166666715,
      "v": 65
    },
    {
      "midi": 80,
      "hit": false,
      "t": 22448.96500000001,
      "d": 42.516979166666715,
      "v": 75
    },
    {
      "midi": 36,
      "hit": false,
      "t": 22448.965000000015,
      "d": 8.503395833333343,
      "v": 114
    },
    {
      "midi": 70,
      "hit": false,
      "t": 22448.965000000015,
      "d": 8.503395833333343,
      "v": 78
    },
    {
      "midi": 38,
      "hit": false,
      "t": 22448.965000000015,
      "d": 8.503395833333343,
      "v": 99
    },
    {
      "midi": 42,
      "hit": false,
      "t": 22448.965000000015,
      "d": 8.503395833333343,
      "v": 73
    },
    {
      "midi": 61,
      "hit": false,
      "t": 22551.00575000001,
      "d": 25.51018750000003,
      "v": 100
    },
    {
      "midi": 68,
      "hit": false,
      "t": 22551.00575000001,
      "d": 25.51018750000003,
      "v": 100
    },
    {
      "midi": 71,
      "hit": false,
      "t": 22551.00575000001,
      "d": 25.51018750000003,
      "v": 110
    },
    {
      "midi": 76,
      "hit": false,
      "t": 22551.00575000001,
      "d": 42.516979166666715,
      "v": 45
    },
    {
      "midi": 80,
      "hit": false,
      "t": 22551.00575000001,
      "d": 42.516979166666715,
      "v": 55
    },
    {
      "midi": 33,
      "hit": false,
      "t": 22551.005750000015,
      "d": 59.5237708333334,
      "v": 100
    },
    {
      "midi": 70,
      "hit": false,
      "t": 22551.005750000015,
      "d": 8.503395833333343,
      "v": 50
    },
    {
      "midi": 73,
      "hit": false,
      "t": 22653.046500000008,
      "d": 8.503395833333343,
      "v": 80
    },
    {
      "midi": 57,
      "hit": false,
      "t": 22653.04650000001,
      "d": 340.1358333333337,
      "v": 110
    },
    {
      "midi": 61,
      "hit": false,
      "t": 22653.04650000001,
      "d": 25.51018750000003,
      "v": 100
    },
    {
      "midi": 68,
      "hit": false,
      "t": 22653.04650000001,
      "d": 25.51018750000003,
      "v": 100
    },
    {
      "midi": 73,
      "hit": false,
      "t": 22653.04650000001,
      "d": 25.51018750000003,
      "v": 110
    },
    {
      "midi": 76,
      "hit": false,
      "t": 22653.04650000001,
      "d": 51.02037500000006,
      "v": 50
    },
    {
      "midi": 80,
      "hit": false,
      "t": 22653.04650000001,
      "d": 51.02037500000006,
      "v": 60
    },
    {
      "midi": 32,
      "hit": false,
      "t": 22653.046500000015,
      "d": 187.07470833333355,
      "v": 100
    },
    {
      "midi": 70,
      "hit": false,
      "t": 22653.046500000015,
      "d": 8.503395833333343,
      "v": 78
    },
    {
      "midi": 42,
      "hit": false,
      "t": 22653.046500000015,
      "d": 8.503395833333343,
      "v": 73
    },
    {
      "midi": 70,
      "hit": false,
      "t": 22755.087250000015,
      "d": 8.503395833333343,
      "v": 50
    },
    {
      "midi": 38,
      "hit": false,
      "t": 22755.087250000015,
      "d": 8.503395833333343,
      "v": 89
    },
    {
      "midi": 42,
      "hit": false,
      "t": 22755.087250000015,
      "d": 8.503395833333343,
      "v": 64
    },
    {
      "midi": 64,
      "hit": false,
      "t": 22857.128000000008,
      "d": 1632.6520000000019,
      "v": 89
    },
    {
      "midi": 67,
      "hit": false,
      "t": 22857.12800000001,
      "d": 1632.6520000000019,
      "v": 92
    },
    {
      "midi": 64,
      "hit": false,
      "t": 22857.12800000001,
      "d": 25.51018750000003,
      "v": 100
    },
    {
      "midi": 66,
      "hit": false,
      "t": 22857.12800000001,
      "d": 25.51018750000003,
      "v": 100
    },
    {
      "midi": 74,
      "hit": false,
      "t": 22857.12800000001,
      "d": 25.51018750000003,
      "v": 110
    },
    {
      "midi": 78,
      "hit": false,
      "t": 22857.12800000001,
      "d": 42.516979166666715,
      "v": 50
    },
    {
      "midi": 82,
      "hit": false,
      "t": 22857.12800000001,
      "d": 42.516979166666715,
      "v": 60
    },
    {
      "midi": 30,
      "hit": false,
      "t": 22857.128000000015,
      "d": 59.5237708333334,
      "v": 100
    },
    {
      "midi": 70,
      "hit": false,
      "t": 22857.128000000015,
      "d": 8.503395833333343,
      "v": 78
    },
    {
      "midi": 36,
      "hit": false,
      "t": 22857.128000000015,
      "d": 8.503395833333343,
      "v": 114
    },
    {
      "midi": 42,
      "hit": false,
      "t": 22857.128000000015,
      "d": 8.503395833333343,
      "v": 73
    },
    {
      "midi": 70,
      "hit": false,
      "t": 22865.631395833345,
      "d": 1632.6520000000019,
      "v": 92
    },
    {
      "midi": 64,
      "hit": false,
      "t": 22959.16875000001,
      "d": 25.51018750000003,
      "v": 100
    },
    {
      "midi": 66,
      "hit": false,
      "t": 22959.16875000001,
      "d": 25.51018750000003,
      "v": 100
    },
    {
      "midi": 74,
      "hit": false,
      "t": 22959.16875000001,
      "d": 25.51018750000003,
      "v": 110
    },
    {
      "midi": 78,
      "hit": false,
      "t": 22959.16875000001,
      "d": 42.516979166666715,
      "v": 65
    },
    {
      "midi": 82,
      "hit": false,
      "t": 22959.16875000001,
      "d": 42.516979166666715,
      "v": 75
    },
    {
      "midi": 30,
      "hit": false,
      "t": 22959.168750000015,
      "d": 42.516979166666715,
      "v": 100
    },
    {
      "midi": 70,
      "hit": false,
      "t": 22959.168750000015,
      "d": 8.503395833333343,
      "v": 50
    },
    {
      "midi": 78,
      "hit": false,
      "t": 23061.209500000008,
      "d": 8.503395833333343,
      "v": 80
    },
    {
      "midi": 78,
      "hit": false,
      "t": 23061.20950000001,
      "d": 42.516979166666715,
      "v": 75
    },
    {
      "midi": 82,
      "hit": false,
      "t": 23061.20950000001,
      "d": 42.516979166666715,
      "v": 85
    },
    {
      "midi": 28,
      "hit": false,
      "t": 23061.209500000015,
      "d": 170.06791666666686,
      "v": 105
    },
    {
      "midi": 70,
      "hit": false,
      "t": 23061.209500000015,
      "d": 8.503395833333343,
      "v": 78
    },
    {
      "midi": 42,
      "hit": false,
      "t": 23061.209500000015,
      "d": 8.503395833333343,
      "v": 73
    },
    {
      "midi": 64,
      "hit": false,
      "t": 23163.250250000012,
      "d": 25.51018750000003,
      "v": 100
    },
    {
      "midi": 66,
      "hit": false,
      "t": 23163.250250000012,
      "d": 25.51018750000003,
      "v": 100
    },
    {
      "midi": 73,
      "hit": false,
      "t": 23163.250250000012,
      "d": 25.51018750000003,
      "v": 110
    },
    {
      "midi": 78,
      "hit": false,
      "t": 23163.250250000012,
      "d": 42.516979166666715,
      "v": 90
    },
    {
      "midi": 82,
      "hit": false,
      "t": 23163.250250000012,
      "d": 42.516979166666715,
      "v": 100
    },
    {
      "midi": 70,
      "hit": false,
      "t": 23163.250250000016,
      "d": 8.503395833333343,
      "v": 50
    },
    {
      "midi": 42,
      "hit": false,
      "t": 23163.250250000016,
      "d": 8.503395833333343,
      "v": 64
    },
    {
      "midi": 78,
      "hit": false,
      "t": 23265.291000000012,
      "d": 42.516979166666715,
      "v": 110
    },
    {
      "midi": 82,
      "hit": false,
      "t": 23265.291000000012,
      "d": 42.516979166666715,
      "v": 120
    },
    {
      "midi": 32,
      "hit": false,
      "t": 23265.291000000016,
      "d": 195.5781041666669,
      "v": 100
    },
    {
      "midi": 70,
      "hit": false,
      "t": 23265.291000000016,
      "d": 8.503395833333343,
      "v": 78
    },
    {
      "midi": 36,
      "hit": false,
      "t": 23265.291000000016,
      "d": 8.503395833333343,
      "v": 114
    },
    {
      "midi": 38,
      "hit": false,
      "t": 23265.291000000016,
      "d": 8.503395833333343,
      "v": 103
    },
    {
      "midi": 42,
      "hit": false,
      "t": 23265.291000000016,
      "d": 8.503395833333343,
      "v": 73
    },
    {
      "midi": 78,
      "hit": false,
      "t": 23367.33175000001,
      "d": 8.503395833333343,
      "v": 80
    },
    {
      "midi": 64,
      "hit": false,
      "t": 23367.331750000012,
      "d": 25.51018750000003,
      "v": 100
    },
    {
      "midi": 66,
      "hit": false,
      "t": 23367.331750000012,
      "d": 25.51018750000003,
      "v": 100
    },
    {
      "midi": 74,
      "hit": false,
      "t": 23367.331750000012,
      "d": 25.51018750000003,
      "v": 110
    },
    {
      "midi": 78,
      "hit": false,
      "t": 23367.331750000012,
      "d": 42.516979166666715,
      "v": 110
    },
    {
      "midi": 82,
      "hit": false,
      "t": 23367.331750000012,
      "d": 42.516979166666715,
      "v": 120
    },
    {
      "midi": 70,
      "hit": false,
      "t": 23367.331750000016,
      "d": 8.503395833333343,
      "v": 50
    },
    {
      "midi": 78,
      "hit": false,
      "t": 23469.372500000012,
      "d": 42.516979166666715,
      "v": 110
    },
    {
      "midi": 82,
      "hit": false,
      "t": 23469.372500000012,
      "d": 42.516979166666715,
      "v": 120
    },
    {
      "midi": 30,
      "hit": false,
      "t": 23469.372500000016,
      "d": 187.07470833333355,
      "v": 95
    },
    {
      "midi": 70,
      "hit": false,
      "t": 23469.372500000016,
      "d": 8.503395833333343,
      "v": 78
    },
    {
      "midi": 27,
      "hit": false,
      "t": 23469.372500000016,
      "d": 8.503395833333343,
      "v": 70
    },
    {
      "midi": 42,
      "hit": false,
      "t": 23469.372500000016,
      "d": 8.503395833333343,
      "v": 73
    },
    {
      "midi": 64,
      "hit": false,
      "t": 23571.413250000012,
      "d": 25.51018750000003,
      "v": 100
    },
    {
      "midi": 66,
      "hit": false,
      "t": 23571.413250000012,
      "d": 25.51018750000003,
      "v": 100
    },
    {
      "midi": 73,
      "hit": false,
      "t": 23571.413250000012,
      "d": 25.51018750000003,
      "v": 110
    },
    {
      "midi": 78,
      "hit": false,
      "t": 23571.413250000012,
      "d": 42.516979166666715,
      "v": 105
    },
    {
      "midi": 82,
      "hit": false,
      "t": 23571.413250000012,
      "d": 42.516979166666715,
      "v": 115
    },
    {
      "midi": 70,
      "hit": false,
      "t": 23571.413250000016,
      "d": 8.503395833333343,
      "v": 50
    },
    {
      "midi": 27,
      "hit": false,
      "t": 23571.413250000016,
      "d": 8.503395833333343,
      "v": 70
    },
    {
      "midi": 38,
      "hit": false,
      "t": 23571.413250000016,
      "d": 8.503395833333343,
      "v": 89
    },
    {
      "midi": 42,
      "hit": false,
      "t": 23571.413250000016,
      "d": 8.503395833333343,
      "v": 64
    },
    {
      "midi": 73,
      "hit": false,
      "t": 23673.45400000001,
      "d": 8.503395833333343,
      "v": 80
    },
    {
      "midi": 78,
      "hit": false,
      "t": 23673.454000000012,
      "d": 42.516979166666715,
      "v": 100
    },
    {
      "midi": 82,
      "hit": false,
      "t": 23673.454000000012,
      "d": 42.516979166666715,
      "v": 110
    },
    {
      "midi": 30,
      "hit": false,
      "t": 23673.454000000016,
      "d": 85.03395833333343,
      "v": 100
    },
    {
      "midi": 36,
      "hit": false,
      "t": 23673.454000000016,
      "d": 8.503395833333343,
      "v": 114
    },
    {
      "midi": 70,
      "hit": false,
      "t": 23673.454000000016,
      "d": 8.503395833333343,
      "v": 78
    },
    {
      "midi": 42,
      "hit": false,
      "t": 23673.454000000016,
      "d": 8.503395833333343,
      "v": 73
    },
    {
      "midi": 64,
      "hit": false,
      "t": 23775.494750000013,
      "d": 25.51018750000003,
      "v": 100
    },
    {
      "midi": 66,
      "hit": false,
      "t": 23775.494750000013,
      "d": 25.51018750000003,
      "v": 100
    },
    {
      "midi": 74,
      "hit": false,
      "t": 23775.494750000013,
      "d": 25.51018750000003,
      "v": 110
    },
    {
      "midi": 78,
      "hit": false,
      "t": 23775.494750000013,
      "d": 42.516979166666715,
      "v": 94
    },
    {
      "midi": 82,
      "hit": false,
      "t": 23775.494750000013,
      "d": 42.516979166666715,
      "v": 104
    },
    {
      "midi": 28,
      "hit": false,
      "t": 23775.494750000016,
      "d": 187.07470833333355,
      "v": 100
    },
    {
      "midi": 70,
      "hit": false,
      "t": 23775.494750000016,
      "d": 8.503395833333343,
      "v": 50
    },
    {
      "midi": 27,
      "hit": false,
      "t": 23775.494750000016,
      "d": 8.503395833333343,
      "v": 70
    },
    {
      "midi": 38,
      "hit": false,
      "t": 23775.494750000016,
      "d": 8.503395833333343,
      "v": 103
    },
    {
      "midi": 59,
      "hit": false,
      "t": 23877.535500000013,
      "d": 391.1562083333338,
      "v": 126
    },
    {
      "midi": 78,
      "hit": false,
      "t": 23877.535500000013,
      "d": 42.516979166666715,
      "v": 87
    },
    {
      "midi": 82,
      "hit": false,
      "t": 23877.535500000013,
      "d": 42.516979166666715,
      "v": 97
    },
    {
      "midi": 70,
      "hit": false,
      "t": 23877.535500000016,
      "d": 8.503395833333343,
      "v": 78
    },
    {
      "midi": 27,
      "hit": false,
      "t": 23877.535500000016,
      "d": 8.503395833333343,
      "v": 40
    },
    {
      "midi": 42,
      "hit": false,
      "t": 23877.535500000016,
      "d": 8.503395833333343,
      "v": 73
    },
    {
      "midi": 73,
      "hit": false,
      "t": 23979.57625000001,
      "d": 8.503395833333343,
      "v": 80
    },
    {
      "midi": 64,
      "hit": false,
      "t": 23979.576250000013,
      "d": 25.51018750000003,
      "v": 100
    },
    {
      "midi": 66,
      "hit": false,
      "t": 23979.576250000013,
      "d": 25.51018750000003,
      "v": 100
    },
    {
      "midi": 74,
      "hit": false,
      "t": 23979.576250000013,
      "d": 25.51018750000003,
      "v": 110
    },
    {
      "midi": 78,
      "hit": false,
      "t": 23979.576250000013,
      "d": 42.516979166666715,
      "v": 80
    },
    {
      "midi": 82,
      "hit": false,
      "t": 23979.576250000013,
      "d": 42.516979166666715,
      "v": 90
    },
    {
      "midi": 30,
      "hit": false,
      "t": 23979.576250000016,
      "d": 187.07470833333355,
      "v": 100
    },
    {
      "midi": 70,
      "hit": false,
      "t": 23979.576250000016,
      "d": 8.503395833333343,
      "v": 50
    },
    {
      "midi": 27,
      "hit": false,
      "t": 23979.576250000016,
      "d": 8.503395833333343,
      "v": 70
    },
    {
      "midi": 42,
      "hit": false,
      "t": 23979.576250000016,
      "d": 8.503395833333343,
      "v": 64
    },
    {
      "midi": 78,
      "hit": false,
      "t": 24081.617000000013,
      "d": 42.516979166666715,
      "v": 65
    },
    {
      "midi": 82,
      "hit": false,
      "t": 24081.617000000013,
      "d": 42.516979166666715,
      "v": 75
    },
    {
      "midi": 36,
      "hit": false,
      "t": 24081.617000000017,
      "d": 8.503395833333343,
      "v": 114
    },
    {
      "midi": 70,
      "hit": false,
      "t": 24081.617000000017,
      "d": 8.503395833333343,
      "v": 78
    },
    {
      "midi": 38,
      "hit": false,
      "t": 24081.617000000017,
      "d": 8.503395833333343,
      "v": 103
    },
    {
      "midi": 42,
      "hit": false,
      "t": 24081.617000000017,
      "d": 8.503395833333343,
      "v": 72
    },
    {
      "midi": 64,
      "hit": false,
      "t": 24183.657750000013,
      "d": 25.51018750000003,
      "v": 100
    },
    {
      "midi": 66,
      "hit": false,
      "t": 24183.657750000013,
      "d": 25.51018750000003,
      "v": 100
    },
    {
      "midi": 73,
      "hit": false,
      "t": 24183.657750000013,
      "d": 25.51018750000003,
      "v": 110
    },
    {
      "midi": 78,
      "hit": false,
      "t": 24183.657750000013,
      "d": 42.516979166666715,
      "v": 45
    },
    {
      "midi": 82,
      "hit": false,
      "t": 24183.657750000013,
      "d": 42.516979166666715,
      "v": 55
    },
    {
      "midi": 42,
      "hit": false,
      "t": 24183.657750000017,
      "d": 68.02716666666674,
      "v": 100
    },
    {
      "midi": 70,
      "hit": false,
      "t": 24183.657750000017,
      "d": 8.503395833333343,
      "v": 50
    },
    {
      "midi": 27,
      "hit": false,
      "t": 24183.657750000017,
      "d": 8.503395833333343,
      "v": 70
    },
    {
      "midi": 73,
      "hit": false,
      "t": 24285.69850000001,
      "d": 8.503395833333343,
      "v": 80
    },
    {
      "midi": 61,
      "hit": false,
      "t": 24285.698500000013,
      "d": 178.5713125000002,
      "v": 119
    },
    {
      "midi": 64,
      "hit": false,
      "t": 24285.698500000013,
      "d": 25.51018750000003,
      "v": 100
    },
    {
      "midi": 66,
      "hit": false,
      "t": 24285.698500000013,
      "d": 25.51018750000003,
      "v": 100
    },
    {
      "midi": 74,
      "hit": false,
      "t": 24285.698500000013,
      "d": 25.51018750000003,
      "v": 110
    },
    {
      "midi": 78,
      "hit": false,
      "t": 24285.698500000013,
      "d": 51.02037500000006,
      "v": 50
    },
    {
      "midi": 82,
      "hit": false,
      "t": 24285.698500000013,
      "d": 51.02037500000006,
      "v": 60
    },
    {
      "midi": 32,
      "hit": false,
      "t": 24285.698500000017,
      "d": 187.07470833333355,
      "v": 105
    },
    {
      "midi": 70,
      "hit": false,
      "t": 24285.698500000017,
      "d": 8.503395833333343,
      "v": 78
    },
    {
      "midi": 36,
      "hit": false,
      "t": 24285.698500000017,
      "d": 8.503395833333343,
      "v": 114
    },
    {
      "midi": 42,
      "hit": false,
      "t": 24285.698500000017,
      "d": 8.503395833333343,
      "v": 73
    },
    {
      "midi": 70,
      "hit": false,
      "t": 24387.739250000017,
      "d": 8.503395833333343,
      "v": 50
    },
    {
      "midi": 38,
      "hit": false,
      "t": 24387.739250000017,
      "d": 8.503395833333343,
      "v": 89
    },
    {
      "midi": 42,
      "hit": false,
      "t": 24387.739250000017,
      "d": 8.503395833333343,
      "v": 64
    },
    {
      "midi": 88,
      "hit": false,
      "t": 24489.78000000001,
      "d": 85.03395833333343,
      "v": 127
    },
    {
      "midi": 64,
      "hit": false,
      "t": 24489.780000000013,
      "d": 408.16300000000047,
      "v": 122
    },
    {
      "midi": 62,
      "hit": false,
      "t": 24489.780000000013,
      "d": 25.51018750000003,
      "v": 100
    },
    {
      "midi": 66,
      "hit": false,
      "t": 24489.780000000013,
      "d": 25.51018750000003,
      "v": 100
    },
    {
      "midi": 73,
      "hit": false,
      "t": 24489.780000000013,
      "d": 25.51018750000003,
      "v": 110
    },
    {
      "midi": 78,
      "hit": false,
      "t": 24489.780000000013,
      "d": 42.516979166666715,
      "v": 50
    },
    {
      "midi": 81,
      "hit": false,
      "t": 24489.780000000013,
      "d": 42.516979166666715,
      "v": 60
    },
    {
      "midi": 35,
      "hit": false,
      "t": 24489.780000000017,
      "d": 59.5237708333334,
      "v": 100
    },
    {
      "midi": 36,
      "hit": false,
      "t": 24489.780000000017,
      "d": 8.503395833333343,
      "v": 114
    },
    {
      "midi": 70,
      "hit": false,
      "t": 24489.780000000017,
      "d": 8.503395833333343,
      "v": 78
    },
    {
      "midi": 42,
      "hit": false,
      "t": 24489.780000000017,
      "d": 8.503395833333343,
      "v": 73
    },
    {
      "midi": 62,
      "hit": false,
      "t": 24591.820750000014,
      "d": 25.51018750000003,
      "v": 100
    },
    {
      "midi": 66,
      "hit": false,
      "t": 24591.820750000014,
      "d": 25.51018750000003,
      "v": 100
    },
    {
      "midi": 73,
      "hit": false,
      "t": 24591.820750000014,
      "d": 25.51018750000003,
      "v": 110
    },
    {
      "midi": 78,
      "hit": false,
      "t": 24591.820750000014,
      "d": 42.516979166666715,
      "v": 65
    },
    {
      "midi": 81,
      "hit": false,
      "t": 24591.820750000014,
      "d": 42.516979166666715,
      "v": 75
    },
    {
      "midi": 35,
      "hit": false,
      "t": 24591.820750000017,
      "d": 42.516979166666715,
      "v": 100
    },
    {
      "midi": 70,
      "hit": false,
      "t": 24591.820750000017,
      "d": 8.503395833333343,
      "v": 50
    },
    {
      "midi": 27,
      "hit": false,
      "t": 24591.820750000017,
      "d": 8.503395833333343,
      "v": 70
    },
    {
      "midi": 78,
      "hit": false,
      "t": 24693.86150000001,
      "d": 8.503395833333343,
      "v": 80
    },
    {
      "midi": 78,
      "hit": false,
      "t": 24693.861500000014,
      "d": 42.516979166666715,
      "v": 75
    },
    {
      "midi": 81,
      "hit": false,
      "t": 24693.861500000014,
      "d": 42.516979166666715,
      "v": 85
    },
    {
      "midi": 33,
      "hit": false,
      "t": 24693.861500000017,
      "d": 170.06791666666686,
      "v": 105
    },
    {
      "midi": 70,
      "hit": false,
      "t": 24693.861500000017,
      "d": 8.503395833333343,
      "v": 78
    },
    {
      "midi": 42,
      "hit": false,
      "t": 24693.861500000017,
      "d": 8.503395833333343,
      "v": 73
    },
    {
      "midi": 62,
      "hit": false,
      "t": 24795.902250000014,
      "d": 25.51018750000003,
      "v": 100
    },
    {
      "midi": 66,
      "hit": false,
      "t": 24795.902250000014,
      "d": 25.51018750000003,
      "v": 100
    },
    {
      "midi": 71,
      "hit": false,
      "t": 24795.902250000014,
      "d": 25.51018750000003,
      "v": 110
    },
    {
      "midi": 78,
      "hit": false,
      "t": 24795.902250000014,
      "d": 42.516979166666715,
      "v": 90
    },
    {
      "midi": 81,
      "hit": false,
      "t": 24795.902250000014,
      "d": 42.516979166666715,
      "v": 100
    },
    {
      "midi": 70,
      "hit": false,
      "t": 24795.902250000017,
      "d": 8.503395833333343,
      "v": 50
    },
    {
      "midi": 27,
      "hit": false,
      "t": 24795.902250000017,
      "d": 8.503395833333343,
      "v": 70
    },
    {
      "midi": 42,
      "hit": false,
      "t": 24795.902250000017,
      "d": 8.503395833333343,
      "v": 64
    },
    {
      "midi": 86,
      "hit": false,
      "t": 24897.94300000001,
      "d": 85.03395833333343,
      "v": 127
    },
    {
      "midi": 62,
      "hit": false,
      "t": 24897.943000000014,
      "d": 204.08150000000023,
      "v": 112
    },
    {
      "midi": 78,
      "hit": false,
      "t": 24897.943000000014,
      "d": 42.516979166666715,
      "v": 110
    },
    {
      "midi": 81,
      "hit": false,
      "t": 24897.943000000014,
      "d": 42.516979166666715,
      "v": 120
    },
    {
      "midi": 38,
      "hit": false,
      "t": 24897.943000000017,
      "d": 195.5781041666669,
      "v": 100
    },
    {
      "midi": 70,
      "hit": false,
      "t": 24897.943000000017,
      "d": 8.503395833333343,
      "v": 78
    },
    {
      "midi": 36,
      "hit": false,
      "t": 24897.943000000017,
      "d": 8.503395833333343,
      "v": 114
    },
    {
      "midi": 38,
      "hit": false,
      "t": 24897.943000000017,
      "d": 8.503395833333343,
      "v": 103
    },
    {
      "midi": 42,
      "hit": false,
      "t": 24897.943000000017,
      "d": 8.503395833333343,
      "v": 73
    },
    {
      "midi": 78,
      "hit": false,
      "t": 24999.98375000001,
      "d": 8.503395833333343,
      "v": 80
    },
    {
      "midi": 62,
      "hit": false,
      "t": 24999.983750000014,
      "d": 25.51018750000003,
      "v": 100
    },
    {
      "midi": 66,
      "hit": false,
      "t": 24999.983750000014,
      "d": 25.51018750000003,
      "v": 100
    },
    {
      "midi": 73,
      "hit": false,
      "t": 24999.983750000014,
      "d": 25.51018750000003,
      "v": 110
    },
    {
      "midi": 78,
      "hit": false,
      "t": 24999.983750000014,
      "d": 42.516979166666715,
      "v": 110
    },
    {
      "midi": 81,
      "hit": false,
      "t": 24999.983750000014,
      "d": 42.516979166666715,
      "v": 120
    },
    {
      "midi": 70,
      "hit": false,
      "t": 24999.983750000018,
      "d": 8.503395833333343,
      "v": 50
    },
    {
      "midi": 27,
      "hit": false,
      "t": 24999.983750000018,
      "d": 8.503395833333343,
      "v": 40
    },
    {
      "midi": 78,
      "hit": false,
      "t": 25102.02450000001,
      "d": 85.03395833333343,
      "v": 127
    },
    {
      "midi": 54,
      "hit": false,
      "t": 25102.024500000014,
      "d": 382.65281250000044,
      "v": 123
    },
    {
      "midi": 78,
      "hit": false,
      "t": 25102.024500000014,
      "d": 42.516979166666715,
      "v": 110
    },
    {
      "midi": 81,
      "hit": false,
      "t": 25102.024500000014,
      "d": 42.516979166666715,
      "v": 120
    },
    {
      "midi": 35,
      "hit": false,
      "t": 25102.024500000018,
      "d": 85.03395833333343,
      "v": 100
    },
    {
      "midi": 70,
      "hit": false,
      "t": 25102.024500000018,
      "d": 8.503395833333343,
      "v": 78
    },
    {
      "midi": 27,
      "hit": false,
      "t": 25102.024500000018,
      "d": 8.503395833333343,
      "v": 70
    },
    {
      "midi": 42,
      "hit": false,
      "t": 25102.024500000018,
      "d": 8.503395833333343,
      "v": 73
    },
    {
      "midi": 62,
      "hit": false,
      "t": 25204.065250000014,
      "d": 25.51018750000003,
      "v": 100
    },
    {
      "midi": 66,
      "hit": false,
      "t": 25204.065250000014,
      "d": 25.51018750000003,
      "v": 100
    },
    {
      "midi": 71,
      "hit": false,
      "t": 25204.065250000014,
      "d": 25.51018750000003,
      "v": 110
    },
    {
      "midi": 78,
      "hit": false,
      "t": 25204.065250000014,
      "d": 42.516979166666715,
      "v": 105
    },
    {
      "midi": 81,
      "hit": false,
      "t": 25204.065250000014,
      "d": 42.516979166666715,
      "v": 115
    },
    {
      "midi": 47,
      "hit": false,
      "t": 25204.065250000018,
      "d": 59.5237708333334,
      "v": 100
    },
    {
      "midi": 70,
      "hit": false,
      "t": 25204.065250000018,
      "d": 8.503395833333343,
      "v": 50
    },
    {
      "midi": 27,
      "hit": false,
      "t": 25204.065250000018,
      "d": 8.503395833333343,
      "v": 40
    },
    {
      "midi": 38,
      "hit": false,
      "t": 25204.065250000018,
      "d": 8.503395833333343,
      "v": 89
    },
    {
      "midi": 42,
      "hit": false,
      "t": 25204.065250000018,
      "d": 8.503395833333343,
      "v": 64
    },
    {
      "midi": 73,
      "hit": false,
      "t": 25306.10600000001,
      "d": 8.503395833333343,
      "v": 80
    },
    {
      "midi": 78,
      "hit": false,
      "t": 25306.106000000014,
      "d": 42.516979166666715,
      "v": 100
    },
    {
      "midi": 81,
      "hit": false,
      "t": 25306.106000000014,
      "d": 42.516979166666715,
      "v": 110
    },
    {
      "midi": 35,
      "hit": false,
      "t": 25306.106000000018,
      "d": 85.03395833333343,
      "v": 100
    },
    {
      "midi": 70,
      "hit": false,
      "t": 25306.106000000018,
      "d": 8.503395833333343,
      "v": 78
    },
    {
      "midi": 36,
      "hit": false,
      "t": 25306.106000000018,
      "d": 8.503395833333343,
      "v": 114
    },
    {
      "midi": 42,
      "hit": false,
      "t": 25306.106000000018,
      "d": 8.503395833333343,
      "v": 73
    },
    {
      "midi": 69,
      "hit": false,
      "t": 25314.609395833348,
      "d": 807.8226041666676,
      "v": 98
    },
    {
      "midi": 62,
      "hit": false,
      "t": 25323.112791666677,
      "d": 807.8226041666676,
      "v": 95
    },
    {
      "midi": 66,
      "hit": false,
      "t": 25323.11279166668,
      "d": 807.8226041666676,
      "v": 98
    },
    {
      "midi": 62,
      "hit": false,
      "t": 25408.146750000014,
      "d": 25.51018750000003,
      "v": 100
    },
    {
      "midi": 66,
      "hit": false,
      "t": 25408.146750000014,
      "d": 25.51018750000003,
      "v": 100
    },
    {
      "midi": 73,
      "hit": false,
      "t": 25408.146750000014,
      "d": 25.51018750000003,
      "v": 110
    },
    {
      "midi": 78,
      "hit": false,
      "t": 25408.146750000014,
      "d": 42.516979166666715,
      "v": 94
    },
    {
      "midi": 81,
      "hit": false,
      "t": 25408.146750000014,
      "d": 42.516979166666715,
      "v": 104
    },
    {
      "midi": 33,
      "hit": false,
      "t": 25408.146750000018,
      "d": 187.07470833333355,
      "v": 100
    },
    {
      "midi": 70,
      "hit": false,
      "t": 25408.146750000018,
      "d": 8.503395833333343,
      "v": 50
    },
    {
      "midi": 27,
      "hit": false,
      "t": 25408.146750000018,
      "d": 8.503395833333343,
      "v": 70
    },
    {
      "midi": 85,
      "hit": false,
      "t": 25510.18750000001,
      "d": 85.03395833333343,
      "v": 127
    },
    {
      "midi": 61,
      "hit": false,
      "t": 25510.187500000015,
      "d": 408.16300000000047,
      "v": 107
    },
    {
      "midi": 78,
      "hit": false,
      "t": 25510.187500000015,
      "d": 42.516979166666715,
      "v": 87
    },
    {
      "midi": 81,
      "hit": false,
      "t": 25510.187500000015,
      "d": 42.516979166666715,
      "v": 97
    },
    {
      "midi": 70,
      "hit": false,
      "t": 25510.18750000002,
      "d": 8.503395833333343,
      "v": 78
    },
    {
      "midi": 38,
      "hit": false,
      "t": 25510.18750000002,
      "d": 8.503395833333343,
      "v": 107
    },
    {
      "midi": 42,
      "hit": false,
      "t": 25510.18750000002,
      "d": 8.503395833333343,
      "v": 73
    },
    {
      "midi": 73,
      "hit": false,
      "t": 25612.22825000001,
      "d": 8.503395833333343,
      "v": 80
    },
    {
      "midi": 62,
      "hit": false,
      "t": 25612.228250000015,
      "d": 25.51018750000003,
      "v": 100
    },
    {
      "midi": 66,
      "hit": false,
      "t": 25612.228250000015,
      "d": 25.51018750000003,
      "v": 100
    },
    {
      "midi": 73,
      "hit": false,
      "t": 25612.228250000015,
      "d": 25.51018750000003,
      "v": 110
    },
    {
      "midi": 78,
      "hit": false,
      "t": 25612.228250000015,
      "d": 42.516979166666715,
      "v": 80
    },
    {
      "midi": 81,
      "hit": false,
      "t": 25612.228250000015,
      "d": 42.516979166666715,
      "v": 90
    },
    {
      "midi": 35,
      "hit": false,
      "t": 25612.22825000002,
      "d": 187.07470833333355,
      "v": 106
    },
    {
      "midi": 70,
      "hit": false,
      "t": 25612.22825000002,
      "d": 8.503395833333343,
      "v": 50
    },
    {
      "midi": 42,
      "hit": false,
      "t": 25612.22825000002,
      "d": 8.503395833333343,
      "v": 64
    },
    {
      "midi": 78,
      "hit": false,
      "t": 25714.269000000015,
      "d": 42.516979166666715,
      "v": 65
    },
    {
      "midi": 81,
      "hit": false,
      "t": 25714.269000000015,
      "d": 42.516979166666715,
      "v": 75
    },
    {
      "midi": 36,
      "hit": false,
      "t": 25714.26900000002,
      "d": 8.503395833333343,
      "v": 114
    },
    {
      "midi": 70,
      "hit": false,
      "t": 25714.26900000002,
      "d": 8.503395833333343,
      "v": 78
    },
    {
      "midi": 38,
      "hit": false,
      "t": 25714.26900000002,
      "d": 8.503395833333343,
      "v": 99
    },
    {
      "midi": 42,
      "hit": false,
      "t": 25714.26900000002,
      "d": 8.503395833333343,
      "v": 73
    },
    {
      "midi": 62,
      "hit": false,
      "t": 25816.309750000015,
      "d": 25.51018750000003,
      "v": 100
    },
    {
      "midi": 66,
      "hit": false,
      "t": 25816.309750000015,
      "d": 25.51018750000003,
      "v": 100
    },
    {
      "midi": 71,
      "hit": false,
      "t": 25816.309750000015,
      "d": 25.51018750000003,
      "v": 110
    },
    {
      "midi": 78,
      "hit": false,
      "t": 25816.309750000015,
      "d": 42.516979166666715,
      "v": 45
    },
    {
      "midi": 81,
      "hit": false,
      "t": 25816.309750000015,
      "d": 42.516979166666715,
      "v": 55
    },
    {
      "midi": 47,
      "hit": false,
      "t": 25816.30975000002,
      "d": 68.02716666666674,
      "v": 100
    },
    {
      "midi": 70,
      "hit": false,
      "t": 25816.30975000002,
      "d": 8.503395833333343,
      "v": 50
    },
    {
      "midi": 83,
      "hit": false,
      "t": 25918.35050000001,
      "d": 85.03395833333343,
      "v": 127
    },
    {
      "midi": 73,
      "hit": false,
      "t": 25918.35050000001,
      "d": 8.503395833333343,
      "v": 80
    },
    {
      "midi": 59,
      "hit": false,
      "t": 25918.350500000015,
      "d": 382.65281250000044,
      "v": 108
    },
    {
      "midi": 62,
      "hit": false,
      "t": 25918.350500000015,
      "d": 25.51018750000003,
      "v": 100
    },
    {
      "midi": 66,
      "hit": false,
      "t": 25918.350500000015,
      "d": 25.51018750000003,
      "v": 100
    },
    {
      "midi": 73,
      "hit": false,
      "t": 25918.350500000015,
      "d": 25.51018750000003,
      "v": 110
    },
    {
      "midi": 78,
      "hit": false,
      "t": 25918.350500000015,
      "d": 51.02037500000006,
      "v": 50
    },
    {
      "midi": 81,
      "hit": false,
      "t": 25918.350500000015,
      "d": 51.02037500000006,
      "v": 60
    },
    {
      "midi": 38,
      "hit": false,
      "t": 25918.35050000002,
      "d": 187.07470833333355,
      "v": 100
    },
    {
      "midi": 70,
      "hit": false,
      "t": 25918.35050000002,
      "d": 8.503395833333343,
      "v": 78
    },
    {
      "midi": 42,
      "hit": false,
      "t": 25918.35050000002,
      "d": 8.503395833333343,
      "v": 73
    },
    {
      "midi": 70,
      "hit": false,
      "t": 26020.39125000002,
      "d": 8.503395833333343,
      "v": 50
    },
    {
      "midi": 38,
      "hit": false,
      "t": 26020.39125000002,
      "d": 8.503395833333343,
      "v": 89
    },
    {
      "midi": 42,
      "hit": false,
      "t": 26020.39125000002,
      "d": 8.503395833333343,
      "v": 64
    },
    {
      "midi": 66,
      "hit": false,
      "t": 26122.432000000015,
      "d": 25.51018750000003,
      "v": 100
    },
    {
      "midi": 68,
      "hit": false,
      "t": 26122.432000000015,
      "d": 25.51018750000003,
      "v": 100
    },
    {
      "midi": 73,
      "hit": false,
      "t": 26122.432000000015,
      "d": 25.51018750000003,
      "v": 110
    },
    {
      "midi": 76,
      "hit": false,
      "t": 26122.432000000015,
      "d": 42.516979166666715,
      "v": 50
    },
    {
      "midi": 80,
      "hit": false,
      "t": 26122.432000000015,
      "d": 42.516979166666715,
      "v": 60
    },
    {
      "midi": 40,
      "hit": false,
      "t": 26122.43200000002,
      "d": 59.5237708333334,
      "v": 100
    },
    {
      "midi": 70,
      "hit": false,
      "t": 26122.43200000002,
      "d": 8.503395833333343,
      "v": 78
    },
    {
      "midi": 36,
      "hit": false,
      "t": 26122.43200000002,
      "d": 8.503395833333343,
      "v": 114
    },
    {
      "midi": 42,
      "hit": false,
      "t": 26122.43200000002,
      "d": 8.503395833333343,
      "v": 73
    },
    {
      "midi": 68,
      "hit": false,
      "t": 26130.93539583335,
      "d": 807.8226041666676,
      "v": 98
    },
    {
      "midi": 62,
      "hit": false,
      "t": 26139.43879166668,
      "d": 807.8226041666676,
      "v": 95
    },
    {
      "midi": 66,
      "hit": false,
      "t": 26139.438791666682,
      "d": 807.8226041666676,
      "v": 98
    },
    {
      "midi": 66,
      "hit": false,
      "t": 26224.472750000015,
      "d": 25.51018750000003,
      "v": 100
    },
    {
      "midi": 68,
      "hit": false,
      "t": 26224.472750000015,
      "d": 25.51018750000003,
      "v": 100
    },
    {
      "midi": 73,
      "hit": false,
      "t": 26224.472750000015,
      "d": 25.51018750000003,
      "v": 110
    },
    {
      "midi": 76,
      "hit": false,
      "t": 26224.472750000015,
      "d": 42.516979166666715,
      "v": 65
    },
    {
      "midi": 80,
      "hit": false,
      "t": 26224.472750000015,
      "d": 42.516979166666715,
      "v": 75
    },
    {
      "midi": 40,
      "hit": false,
      "t": 26224.47275000002,
      "d": 51.02037500000006,
      "v": 100
    },
    {
      "midi": 70,
      "hit": false,
      "t": 26224.47275000002,
      "d": 8.503395833333343,
      "v": 50
    },
    {
      "midi": 81,
      "hit": false,
      "t": 26326.513500000012,
      "d": 85.03395833333343,
      "v": 127
    },
    {
      "midi": 78,
      "hit": false,
      "t": 26326.513500000012,
      "d": 8.503395833333343,
      "v": 80
    },
    {
      "midi": 57,
      "hit": false,
      "t": 26326.513500000015,
      "d": 391.1562083333338,
      "v": 126
    },
    {
      "midi": 76,
      "hit": false,
      "t": 26326.513500000015,
      "d": 42.516979166666715,
      "v": 75
    },
    {
      "midi": 80,
      "hit": false,
      "t": 26326.513500000015,
      "d": 42.516979166666715,
      "v": 85
    },
    {
      "midi": 38,
      "hit": false,
      "t": 26326.51350000002,
      "d": 170.06791666666686,
      "v": 105
    },
    {
      "midi": 70,
      "hit": false,
      "t": 26326.51350000002,
      "d": 8.503395833333343,
      "v": 78
    },
    {
      "midi": 42,
      "hit": false,
      "t": 26326.51350000002,
      "d": 8.503395833333343,
      "v": 73
    },
    {
      "midi": 64,
      "hit": false,
      "t": 26428.554250000016,
      "d": 25.51018750000003,
      "v": 100
    },
    {
      "midi": 68,
      "hit": false,
      "t": 26428.554250000016,
      "d": 25.51018750000003,
      "v": 100
    },
    {
      "midi": 71,
      "hit": false,
      "t": 26428.554250000016,
      "d": 25.51018750000003,
      "v": 110
    },
    {
      "midi": 76,
      "hit": false,
      "t": 26428.554250000016,
      "d": 42.516979166666715,
      "v": 90
    },
    {
      "midi": 80,
      "hit": false,
      "t": 26428.554250000016,
      "d": 42.516979166666715,
      "v": 100
    },
    {
      "midi": 70,
      "hit": false,
      "t": 26428.55425000002,
      "d": 8.503395833333343,
      "v": 50
    },
    {
      "midi": 42,
      "hit": false,
      "t": 26428.55425000002,
      "d": 8.503395833333343,
      "v": 64
    },
    {
      "midi": 76,
      "hit": false,
      "t": 26530.595000000016,
      "d": 42.516979166666715,
      "v": 110
    },
    {
      "midi": 80,
      "hit": false,
      "t": 26530.595000000016,
      "d": 42.516979166666715,
      "v": 120
    },
    {
      "midi": 42,
      "hit": false,
      "t": 26530.59500000002,
      "d": 195.5781041666669,
      "v": 100
    },
    {
      "midi": 70,
      "hit": false,
      "t": 26530.59500000002,
      "d": 8.503395833333343,
      "v": 78
    },
    {
      "midi": 36,
      "hit": false,
      "t": 26530.59500000002,
      "d": 8.503395833333343,
      "v": 114
    },
    {
      "midi": 38,
      "hit": false,
      "t": 26530.59500000002,
      "d": 8.503395833333343,
      "v": 103
    },
    {
      "midi": 42,
      "hit": false,
      "t": 26530.59500000002,
      "d": 8.503395833333343,
      "v": 73
    },
    {
      "midi": 78,
      "hit": false,
      "t": 26632.635750000012,
      "d": 8.503395833333343,
      "v": 80
    },
    {
      "midi": 66,
      "hit": false,
      "t": 26632.635750000016,
      "d": 25.51018750000003,
      "v": 100
    },
    {
      "midi": 68,
      "hit": false,
      "t": 26632.635750000016,
      "d": 25.51018750000003,
      "v": 100
    },
    {
      "midi": 73,
      "hit": false,
      "t": 26632.635750000016,
      "d": 25.51018750000003,
      "v": 110
    },
    {
      "midi": 76,
      "hit": false,
      "t": 26632.635750000016,
      "d": 42.516979166666715,
      "v": 110
    },
    {
      "midi": 80,
      "hit": false,
      "t": 26632.635750000016,
      "d": 42.516979166666715,
      "v": 120
    },
    {
      "midi": 70,
      "hit": false,
      "t": 26632.63575000002,
      "d": 8.503395833333343,
      "v": 50
    },
    {
      "midi": 80,
      "hit": false,
      "t": 26734.676500000012,
      "d": 85.03395833333343,
      "v": 127
    },
    {
      "midi": 56,
      "hit": false,
      "t": 26734.676500000016,
      "d": 399.6596041666671,
      "v": 109
    },
    {
      "midi": 76,
      "hit": false,
      "t": 26734.676500000016,
      "d": 42.516979166666715,
      "v": 110
    },
    {
      "midi": 80,
      "hit": false,
      "t": 26734.676500000016,
      "d": 42.516979166666715,
      "v": 120
    },
    {
      "midi": 40,
      "hit": false,
      "t": 26734.67650000002,
      "d": 85.03395833333343,
      "v": 100
    },
    {
      "midi": 70,
      "hit": false,
      "t": 26734.67650000002,
      "d": 8.503395833333343,
      "v": 78
    },
    {
      "midi": 27,
      "hit": false,
      "t": 26734.67650000002,
      "d": 8.503395833333343,
      "v": 70
    },
    {
      "midi": 42,
      "hit": false,
      "t": 26734.67650000002,
      "d": 8.503395833333343,
      "v": 73
    },
    {
      "midi": 64,
      "hit": false,
      "t": 26836.717250000016,
      "d": 25.51018750000003,
      "v": 100
    },
    {
      "midi": 68,
      "hit": false,
      "t": 26836.717250000016,
      "d": 25.51018750000003,
      "v": 100
    },
    {
      "midi": 71,
      "hit": false,
      "t": 26836.717250000016,
      "d": 25.51018750000003,
      "v": 110
    },
    {
      "midi": 76,
      "hit": false,
      "t": 26836.717250000016,
      "d": 42.516979166666715,
      "v": 105
    },
    {
      "midi": 80,
      "hit": false,
      "t": 26836.717250000016,
      "d": 42.516979166666715,
      "v": 115
    },
    {
      "midi": 40,
      "hit": false,
      "t": 26836.71725000002,
      "d": 59.5237708333334,
      "v": 100
    },
    {
      "midi": 70,
      "hit": false,
      "t": 26836.71725000002,
      "d": 8.503395833333343,
      "v": 50
    },
    {
      "midi": 27,
      "hit": false,
      "t": 26836.71725000002,
      "d": 8.503395833333343,
      "v": 70
    },
    {
      "midi": 38,
      "hit": false,
      "t": 26836.71725000002,
      "d": 8.503395833333343,
      "v": 89
    },
    {
      "midi": 42,
      "hit": false,
      "t": 26836.71725000002,
      "d": 8.503395833333343,
      "v": 64
    },
    {
      "midi": 73,
      "hit": false,
      "t": 26938.758000000013,
      "d": 8.503395833333343,
      "v": 80
    },
    {
      "midi": 76,
      "hit": false,
      "t": 26938.758000000016,
      "d": 42.516979166666715,
      "v": 100
    },
    {
      "midi": 80,
      "hit": false,
      "t": 26938.758000000016,
      "d": 42.516979166666715,
      "v": 110
    },
    {
      "midi": 40,
      "hit": false,
      "t": 26938.75800000002,
      "d": 85.03395833333343,
      "v": 100
    },
    {
      "midi": 36,
      "hit": false,
      "t": 26938.75800000002,
      "d": 8.503395833333343,
      "v": 114
    },
    {
      "midi": 70,
      "hit": false,
      "t": 26938.75800000002,
      "d": 8.503395833333343,
      "v": 78
    },
    {
      "midi": 42,
      "hit": false,
      "t": 26938.75800000002,
      "d": 8.503395833333343,
      "v": 73
    },
    {
      "midi": 71,
      "hit": false,
      "t": 26947.26139583335,
      "d": 799.3192083333342,
      "v": 98
    },
    {
      "midi": 62,
      "hit": false,
      "t": 26955.76479166668,
      "d": 799.3192083333342,
      "v": 95
    },
    {
      "midi": 66,
      "hit": false,
      "t": 26955.764791666683,
      "d": 799.3192083333342,
      "v": 98
    },
    {
      "midi": 66,
      "hit": false,
      "t": 27040.798750000016,
      "d": 25.51018750000003,
      "v": 100
    },
    {
      "midi": 68,
      "hit": false,
      "t": 27040.798750000016,
      "d": 25.51018750000003,
      "v": 100
    },
    {
      "midi": 73,
      "hit": false,
      "t": 27040.798750000016,
      "d": 25.51018750000003,
      "v": 110
    },
    {
      "midi": 76,
      "hit": false,
      "t": 27040.798750000016,
      "d": 42.516979166666715,
      "v": 94
    },
    {
      "midi": 80,
      "hit": false,
      "t": 27040.798750000016,
      "d": 42.516979166666715,
      "v": 104
    },
    {
      "midi": 38,
      "hit": false,
      "t": 27040.79875000002,
      "d": 187.07470833333355,
      "v": 100
    },
    {
      "midi": 70,
      "hit": false,
      "t": 27040.79875000002,
      "d": 8.503395833333343,
      "v": 50
    },
    {
      "midi": 27,
      "hit": false,
      "t": 27040.79875000002,
      "d": 8.503395833333343,
      "v": 70
    },
    {
      "midi": 38,
      "hit": false,
      "t": 27040.79875000002,
      "d": 8.503395833333343,
      "v": 103
    },
    {
      "midi": 83,
      "hit": false,
      "t": 27142.839500000013,
      "d": 85.03395833333343,
      "v": 127
    },
    {
      "midi": 59,
      "hit": false,
      "t": 27142.839500000016,
      "d": 374.1494166666671,
      "v": 124
    },
    {
      "midi": 76,
      "hit": false,
      "t": 27142.839500000016,
      "d": 42.516979166666715,
      "v": 87
    },
    {
      "midi": 80,
      "hit": false,
      "t": 27142.839500000016,
      "d": 42.516979166666715,
      "v": 97
    },
    {
      "midi": 70,
      "hit": false,
      "t": 27142.83950000002,
      "d": 8.503395833333343,
      "v": 78
    },
    {
      "midi": 27,
      "hit": false,
      "t": 27142.83950000002,
      "d": 8.503395833333343,
      "v": 40
    },
    {
      "midi": 42,
      "hit": false,
      "t": 27142.83950000002,
      "d": 8.503395833333343,
      "v": 73
    },
    {
      "midi": 73,
      "hit": false,
      "t": 27244.880250000013,
      "d": 8.503395833333343,
      "v": 80
    },
    {
      "midi": 66,
      "hit": false,
      "t": 27244.880250000017,
      "d": 25.51018750000003,
      "v": 100
    },
    {
      "midi": 68,
      "hit": false,
      "t": 27244.880250000017,
      "d": 25.51018750000003,
      "v": 100
    },
    {
      "midi": 73,
      "hit": false,
      "t": 27244.880250000017,
      "d": 25.51018750000003,
      "v": 110
    },
    {
      "midi": 76,
      "hit": false,
      "t": 27244.880250000017,
      "d": 42.516979166666715,
      "v": 80
    },
    {
      "midi": 80,
      "hit": false,
      "t": 27244.880250000017,
      "d": 42.516979166666715,
      "v": 90
    },
    {
      "midi": 40,
      "hit": false,
      "t": 27244.88025000002,
      "d": 187.07470833333355,
      "v": 105
    },
    {
      "midi": 70,
      "hit": false,
      "t": 27244.88025000002,
      "d": 8.503395833333343,
      "v": 50
    },
    {
      "midi": 27,
      "hit": false,
      "t": 27244.88025000002,
      "d": 8.503395833333343,
      "v": 70
    },
    {
      "midi": 42,
      "hit": false,
      "t": 27244.88025000002,
      "d": 8.503395833333343,
      "v": 64
    },
    {
      "midi": 76,
      "hit": false,
      "t": 27346.921000000017,
      "d": 42.516979166666715,
      "v": 65
    },
    {
      "midi": 80,
      "hit": false,
      "t": 27346.921000000017,
      "d": 42.516979166666715,
      "v": 75
    },
    {
      "midi": 36,
      "hit": false,
      "t": 27346.92100000002,
      "d": 8.503395833333343,
      "v": 114
    },
    {
      "midi": 70,
      "hit": false,
      "t": 27346.92100000002,
      "d": 8.503395833333343,
      "v": 78
    },
    {
      "midi": 38,
      "hit": false,
      "t": 27346.92100000002,
      "d": 8.503395833333343,
      "v": 103
    },
    {
      "midi": 42,
      "hit": false,
      "t": 27346.92100000002,
      "d": 8.503395833333343,
      "v": 73
    },
    {
      "midi": 64,
      "hit": false,
      "t": 27448.961750000017,
      "d": 25.51018750000003,
      "v": 100
    },
    {
      "midi": 68,
      "hit": false,
      "t": 27448.961750000017,
      "d": 25.51018750000003,
      "v": 100
    },
    {
      "midi": 71,
      "hit": false,
      "t": 27448.961750000017,
      "d": 25.51018750000003,
      "v": 110
    },
    {
      "midi": 76,
      "hit": false,
      "t": 27448.961750000017,
      "d": 42.516979166666715,
      "v": 45
    },
    {
      "midi": 80,
      "hit": false,
      "t": 27448.961750000017,
      "d": 42.516979166666715,
      "v": 55
    },
    {
      "midi": 52,
      "hit": false,
      "t": 27448.96175000002,
      "d": 68.02716666666674,
      "v": 100
    },
    {
      "midi": 70,
      "hit": false,
      "t": 27448.96175000002,
      "d": 8.503395833333343,
      "v": 50
    },
    {
      "midi": 27,
      "hit": false,
      "t": 27448.96175000002,
      "d": 8.503395833333343,
      "v": 70
    },
    {
      "midi": 73,
      "hit": false,
      "t": 27551.002500000013,
      "d": 8.503395833333343,
      "v": 80
    },
    {
      "midi": 59,
      "hit": false,
      "t": 27551.002500000017,
      "d": 816.3260000000009,
      "v": 122
    },
    {
      "midi": 66,
      "hit": false,
      "t": 27551.002500000017,
      "d": 25.51018750000003,
      "v": 100
    },
    {
      "midi": 68,
      "hit": false,
      "t": 27551.002500000017,
      "d": 25.51018750000003,
      "v": 100
    },
    {
      "midi": 73,
      "hit": false,
      "t": 27551.002500000017,
      "d": 25.51018750000003,
      "v": 110
    },
    {
      "midi": 76,
      "hit": false,
      "t": 27551.002500000017,
      "d": 51.02037500000006,
      "v": 50
    },
    {
      "midi": 80,
      "hit": false,
      "t": 27551.002500000017,
      "d": 51.02037500000006,
      "v": 60
    },
    {
      "midi": 38,
      "hit": false,
      "t": 27551.00250000002,
      "d": 187.07470833333355,
      "v": 100
    },
    {
      "midi": 70,
      "hit": false,
      "t": 27551.00250000002,
      "d": 8.503395833333343,
      "v": 78
    },
    {
      "midi": 36,
      "hit": false,
      "t": 27551.00250000002,
      "d": 8.503395833333343,
      "v": 114
    },
    {
      "midi": 42,
      "hit": false,
      "t": 27551.00250000002,
      "d": 8.503395833333343,
      "v": 73
    },
    {
      "midi": 70,
      "hit": false,
      "t": 27653.04325000002,
      "d": 8.503395833333343,
      "v": 50
    },
    {
      "midi": 38,
      "hit": false,
      "t": 27653.04325000002,
      "d": 8.503395833333343,
      "v": 89
    },
    {
      "midi": 42,
      "hit": false,
      "t": 27653.04325000002,
      "d": 8.503395833333343,
      "v": 64
    },
    {
      "midi": 83,
      "hit": false,
      "t": 27755.084000000013,
      "d": 102.04075000000012,
      "v": 127
    },
    {
      "midi": 61,
      "hit": false,
      "t": 27755.084000000017,
      "d": 25.51018750000003,
      "v": 100
    },
    {
      "midi": 64,
      "hit": false,
      "t": 27755.084000000017,
      "d": 25.51018750000003,
      "v": 100
    },
    {
      "midi": 73,
      "hit": false,
      "t": 27755.084000000017,
      "d": 25.51018750000003,
      "v": 110
    },
    {
      "midi": 76,
      "hit": false,
      "t": 27755.084000000017,
      "d": 42.516979166666715,
      "v": 50
    },
    {
      "midi": 81,
      "hit": false,
      "t": 27755.084000000017,
      "d": 42.516979166666715,
      "v": 60
    },
    {
      "midi": 33,
      "hit": false,
      "t": 27755.08400000002,
      "d": 59.5237708333334,
      "v": 105
    },
    {
      "midi": 36,
      "hit": false,
      "t": 27755.08400000002,
      "d": 8.503395833333343,
      "v": 114
    },
    {
      "midi": 70,
      "hit": false,
      "t": 27755.08400000002,
      "d": 8.503395833333343,
      "v": 78
    },
    {
      "midi": 42,
      "hit": false,
      "t": 27755.08400000002,
      "d": 8.503395833333343,
      "v": 73
    },
    {
      "midi": 71,
      "hit": false,
      "t": 27763.58739583335,
      "d": 612.2445000000007,
      "v": 98
    },
    {
      "midi": 64,
      "hit": false,
      "t": 27772.09079166668,
      "d": 612.2445000000007,
      "v": 89
    },
    {
      "midi": 66,
      "hit": false,
      "t": 27772.090791666684,
      "d": 612.2445000000007,
      "v": 92
    },
    {
      "midi": 61,
      "hit": false,
      "t": 27857.124750000017,
      "d": 25.51018750000003,
      "v": 100
    },
    {
      "midi": 64,
      "hit": false,
      "t": 27857.124750000017,
      "d": 25.51018750000003,
      "v": 100
    },
    {
      "midi": 73,
      "hit": false,
      "t": 27857.124750000017,
      "d": 25.51018750000003,
      "v": 110
    },
    {
      "midi": 76,
      "hit": false,
      "t": 27857.124750000017,
      "d": 42.516979166666715,
      "v": 65
    },
    {
      "midi": 81,
      "hit": false,
      "t": 27857.124750000017,
      "d": 42.516979166666715,
      "v": 75
    },
    {
      "midi": 33,
      "hit": false,
      "t": 27857.12475000002,
      "d": 42.516979166666715,
      "v": 100
    },
    {
      "midi": 70,
      "hit": false,
      "t": 27857.12475000002,
      "d": 8.503395833333343,
      "v": 50
    },
    {
      "midi": 27,
      "hit": false,
      "t": 27857.12475000002,
      "d": 8.503395833333343,
      "v": 70
    },
    {
      "midi": 78,
      "hit": false,
      "t": 27959.165500000014,
      "d": 8.503395833333343,
      "v": 80
    },
    {
      "midi": 76,
      "hit": false,
      "t": 27959.165500000017,
      "d": 42.516979166666715,
      "v": 75
    },
    {
      "midi": 81,
      "hit": false,
      "t": 27959.165500000017,
      "d": 42.516979166666715,
      "v": 85
    },
    {
      "midi": 32,
      "hit": false,
      "t": 27959.16550000002,
      "d": 170.06791666666686,
      "v": 105
    },
    {
      "midi": 70,
      "hit": false,
      "t": 27959.16550000002,
      "d": 8.503395833333343,
      "v": 78
    },
    {
      "midi": 42,
      "hit": false,
      "t": 27959.16550000002,
      "d": 8.503395833333343,
      "v": 73
    },
    {
      "midi": 61,
      "hit": false,
      "t": 28061.206250000017,
      "d": 25.51018750000003,
      "v": 100
    },
    {
      "midi": 64,
      "hit": false,
      "t": 28061.206250000017,
      "d": 25.51018750000003,
      "v": 100
    },
    {
      "midi": 71,
      "hit": false,
      "t": 28061.206250000017,
      "d": 25.51018750000003,
      "v": 110
    },
    {
      "midi": 76,
      "hit": false,
      "t": 28061.206250000017,
      "d": 42.516979166666715,
      "v": 90
    },
    {
      "midi": 81,
      "hit": false,
      "t": 28061.206250000017,
      "d": 42.516979166666715,
      "v": 100
    },
    {
      "midi": 70,
      "hit": false,
      "t": 28061.20625000002,
      "d": 8.503395833333343,
      "v": 50
    },
    {
      "midi": 27,
      "hit": false,
      "t": 28061.20625000002,
      "d": 8.503395833333343,
      "v": 70
    },
    {
      "midi": 42,
      "hit": false,
      "t": 28061.20625000002,
      "d": 8.503395833333343,
      "v": 64
    },
    {
      "midi": 76,
      "hit": false,
      "t": 28163.247000000018,
      "d": 42.516979166666715,
      "v": 110
    },
    {
      "midi": 81,
      "hit": false,
      "t": 28163.247000000018,
      "d": 42.516979166666715,
      "v": 120
    },
    {
      "midi": 35,
      "hit": false,
      "t": 28163.24700000002,
      "d": 195.5781041666669,
      "v": 106
    },
    {
      "midi": 70,
      "hit": false,
      "t": 28163.24700000002,
      "d": 8.503395833333343,
      "v": 78
    },
    {
      "midi": 36,
      "hit": false,
      "t": 28163.24700000002,
      "d": 8.503395833333343,
      "v": 114
    },
    {
      "midi": 38,
      "hit": false,
      "t": 28163.24700000002,
      "d": 8.503395833333343,
      "v": 103
    },
    {
      "midi": 42,
      "hit": false,
      "t": 28163.24700000002,
      "d": 8.503395833333343,
      "v": 73
    },
    {
      "midi": 78,
      "hit": false,
      "t": 28265.287750000014,
      "d": 8.503395833333343,
      "v": 80
    },
    {
      "midi": 61,
      "hit": false,
      "t": 28265.287750000018,
      "d": 25.51018750000003,
      "v": 100
    },
    {
      "midi": 64,
      "hit": false,
      "t": 28265.287750000018,
      "d": 25.51018750000003,
      "v": 100
    },
    {
      "midi": 73,
      "hit": false,
      "t": 28265.287750000018,
      "d": 25.51018750000003,
      "v": 110
    },
    {
      "midi": 76,
      "hit": false,
      "t": 28265.287750000018,
      "d": 42.516979166666715,
      "v": 110
    },
    {
      "midi": 81,
      "hit": false,
      "t": 28265.287750000018,
      "d": 42.516979166666715,
      "v": 120
    },
    {
      "midi": 70,
      "hit": false,
      "t": 28265.28775000002,
      "d": 8.503395833333343,
      "v": 50
    },
    {
      "midi": 27,
      "hit": false,
      "t": 28265.28775000002,
      "d": 8.503395833333343,
      "v": 40
    },
    {
      "midi": 81,
      "hit": false,
      "t": 28367.328500000014,
      "d": 170.06791666666686,
      "v": 127
    },
    {
      "midi": 57,
      "hit": false,
      "t": 28367.328500000018,
      "d": 1020.4075000000012,
      "v": 117
    },
    {
      "midi": 76,
      "hit": false,
      "t": 28367.328500000018,
      "d": 42.516979166666715,
      "v": 110
    },
    {
      "midi": 81,
      "hit": false,
      "t": 28367.328500000018,
      "d": 42.516979166666715,
      "v": 120
    },
    {
      "midi": 33,
      "hit": false,
      "t": 28367.32850000002,
      "d": 85.03395833333343,
      "v": 100
    },
    {
      "midi": 70,
      "hit": false,
      "t": 28367.32850000002,
      "d": 8.503395833333343,
      "v": 78
    },
    {
      "midi": 27,
      "hit": false,
      "t": 28367.32850000002,
      "d": 8.503395833333343,
      "v": 70
    },
    {
      "midi": 42,
      "hit": false,
      "t": 28367.32850000002,
      "d": 8.503395833333343,
      "v": 73
    },
    {
      "midi": 69,
      "hit": false,
      "t": 28375.83189583335,
      "d": 1105.4414583333346,
      "v": 78
    },
    {
      "midi": 64,
      "hit": false,
      "t": 28384.33529166668,
      "d": 1105.4414583333346,
      "v": 72
    },
    {
      "midi": 66,
      "hit": false,
      "t": 28384.335291666684,
      "d": 1105.4414583333346,
      "v": 75
    },
    {
      "midi": 61,
      "hit": false,
      "t": 28469.369250000018,
      "d": 25.51018750000003,
      "v": 100
    },
    {
      "midi": 64,
      "hit": false,
      "t": 28469.369250000018,
      "d": 25.51018750000003,
      "v": 100
    },
    {
      "midi": 71,
      "hit": false,
      "t": 28469.369250000018,
      "d": 25.51018750000003,
      "v": 110
    },
    {
      "midi": 76,
      "hit": false,
      "t": 28469.369250000018,
      "d": 42.516979166666715,
      "v": 105
    },
    {
      "midi": 81,
      "hit": false,
      "t": 28469.369250000018,
      "d": 42.516979166666715,
      "v": 115
    },
    {
      "midi": 45,
      "hit": false,
      "t": 28469.36925000002,
      "d": 59.5237708333334,
      "v": 100
    },
    {
      "midi": 70,
      "hit": false,
      "t": 28469.36925000002,
      "d": 8.503395833333343,
      "v": 50
    },
    {
      "midi": 27,
      "hit": false,
      "t": 28469.36925000002,
      "d": 8.503395833333343,
      "v": 40
    },
    {
      "midi": 38,
      "hit": false,
      "t": 28469.36925000002,
      "d": 8.503395833333343,
      "v": 89
    },
    {
      "midi": 42,
      "hit": false,
      "t": 28469.36925000002,
      "d": 8.503395833333343,
      "v": 64
    },
    {
      "midi": 73,
      "hit": false,
      "t": 28571.410000000014,
      "d": 8.503395833333343,
      "v": 80
    },
    {
      "midi": 76,
      "hit": false,
      "t": 28571.410000000018,
      "d": 42.516979166666715,
      "v": 100
    },
    {
      "midi": 81,
      "hit": false,
      "t": 28571.410000000018,
      "d": 42.516979166666715,
      "v": 110
    },
    {
      "midi": 33,
      "hit": false,
      "t": 28571.41000000002,
      "d": 85.03395833333343,
      "v": 106
    },
    {
      "midi": 70,
      "hit": false,
      "t": 28571.41000000002,
      "d": 8.503395833333343,
      "v": 78
    },
    {
      "midi": 36,
      "hit": false,
      "t": 28571.41000000002,
      "d": 8.503395833333343,
      "v": 114
    },
    {
      "midi": 42,
      "hit": false,
      "t": 28571.41000000002,
      "d": 8.503395833333343,
      "v": 73
    },
    {
      "midi": 61,
      "hit": false,
      "t": 28673.450750000018,
      "d": 25.51018750000003,
      "v": 100
    },
    {
      "midi": 64,
      "hit": false,
      "t": 28673.450750000018,
      "d": 25.51018750000003,
      "v": 100
    },
    {
      "midi": 73,
      "hit": false,
      "t": 28673.450750000018,
      "d": 25.51018750000003,
      "v": 110
    },
    {
      "midi": 76,
      "hit": false,
      "t": 28673.450750000018,
      "d": 42.516979166666715,
      "v": 94
    },
    {
      "midi": 81,
      "hit": false,
      "t": 28673.450750000018,
      "d": 42.516979166666715,
      "v": 104
    },
    {
      "midi": 32,
      "hit": false,
      "t": 28673.45075000002,
      "d": 187.07470833333355,
      "v": 100
    },
    {
      "midi": 70,
      "hit": false,
      "t": 28673.45075000002,
      "d": 8.503395833333343,
      "v": 50
    },
    {
      "midi": 27,
      "hit": false,
      "t": 28673.45075000002,
      "d": 8.503395833333343,
      "v": 70
    },
    {
      "midi": 76,
      "hit": false,
      "t": 28775.49150000001,
      "d": 93.53735416666677,
      "v": 120
    },
    {
      "midi": 64,
      "hit": false,
      "t": 28775.49150000001,
      "d": 93.53735416666677,
      "v": 120
    },
    {
      "midi": 76,
      "hit": false,
      "t": 28775.49150000002,
      "d": 42.516979166666715,
      "v": 87
    },
    {
      "midi": 81,
      "hit": false,
      "t": 28775.49150000002,
      "d": 42.516979166666715,
      "v": 97
    },
    {
      "midi": 70,
      "hit": false,
      "t": 28775.491500000022,
      "d": 8.503395833333343,
      "v": 78
    },
    {
      "midi": 38,
      "hit": false,
      "t": 28775.491500000022,
      "d": 8.503395833333343,
      "v": 107
    },
    {
      "midi": 42,
      "hit": false,
      "t": 28775.491500000022,
      "d": 8.503395833333343,
      "v": 73
    },
    {
      "midi": 73,
      "hit": false,
      "t": 28877.532250000015,
      "d": 8.503395833333343,
      "v": 80
    },
    {
      "midi": 61,
      "hit": false,
      "t": 28877.53225000002,
      "d": 25.51018750000003,
      "v": 100
    },
    {
      "midi": 64,
      "hit": false,
      "t": 28877.53225000002,
      "d": 25.51018750000003,
      "v": 100
    },
    {
      "midi": 73,
      "hit": false,
      "t": 28877.53225000002,
      "d": 25.51018750000003,
      "v": 110
    },
    {
      "midi": 76,
      "hit": false,
      "t": 28877.53225000002,
      "d": 42.516979166666715,
      "v": 80
    },
    {
      "midi": 81,
      "hit": false,
      "t": 28877.53225000002,
      "d": 42.516979166666715,
      "v": 90
    },
    {
      "midi": 33,
      "hit": false,
      "t": 28877.532250000022,
      "d": 187.07470833333355,
      "v": 105
    },
    {
      "midi": 70,
      "hit": false,
      "t": 28877.532250000022,
      "d": 8.503395833333343,
      "v": 50
    },
    {
      "midi": 42,
      "hit": false,
      "t": 28877.532250000022,
      "d": 8.503395833333343,
      "v": 64
    },
    {
      "midi": 78,
      "hit": false,
      "t": 28979.57300000001,
      "d": 195.5781041666669,
      "v": 127
    },
    {
      "midi": 66,
      "hit": false,
      "t": 28979.57300000001,
      "d": 195.5781041666669,
      "v": 127
    },
    {
      "midi": 76,
      "hit": false,
      "t": 28979.57300000002,
      "d": 42.516979166666715,
      "v": 65
    },
    {
      "midi": 81,
      "hit": false,
      "t": 28979.57300000002,
      "d": 42.516979166666715,
      "v": 75
    },
    {
      "midi": 36,
      "hit": false,
      "t": 28979.573000000022,
      "d": 8.503395833333343,
      "v": 114
    },
    {
      "midi": 70,
      "hit": false,
      "t": 28979.573000000022,
      "d": 8.503395833333343,
      "v": 78
    },
    {
      "midi": 38,
      "hit": false,
      "t": 28979.573000000022,
      "d": 8.503395833333343,
      "v": 99
    },
    {
      "midi": 42,
      "hit": false,
      "t": 28979.573000000022,
      "d": 8.503395833333343,
      "v": 73
    },
    {
      "midi": 61,
      "hit": false,
      "t": 29081.61375000002,
      "d": 25.51018750000003,
      "v": 100
    },
    {
      "midi": 64,
      "hit": false,
      "t": 29081.61375000002,
      "d": 25.51018750000003,
      "v": 100
    },
    {
      "midi": 71,
      "hit": false,
      "t": 29081.61375000002,
      "d": 25.51018750000003,
      "v": 110
    },
    {
      "midi": 76,
      "hit": false,
      "t": 29081.61375000002,
      "d": 42.516979166666715,
      "v": 45
    },
    {
      "midi": 81,
      "hit": false,
      "t": 29081.61375000002,
      "d": 42.516979166666715,
      "v": 55
    },
    {
      "midi": 33,
      "hit": false,
      "t": 29081.613750000022,
      "d": 59.5237708333334,
      "v": 100
    },
    {
      "midi": 70,
      "hit": false,
      "t": 29081.613750000022,
      "d": 8.503395833333343,
      "v": 50
    },
    {
      "midi": 79,
      "hit": false,
      "t": 29183.65450000001,
      "d": 102.04075000000012,
      "v": 127
    },
    {
      "midi": 67,
      "hit": false,
      "t": 29183.65450000001,
      "d": 102.04075000000012,
      "v": 127
    },
    {
      "midi": 73,
      "hit": false,
      "t": 29183.654500000015,
      "d": 8.503395833333343,
      "v": 80
    },
    {
      "midi": 61,
      "hit": false,
      "t": 29183.65450000002,
      "d": 25.51018750000003,
      "v": 100
    },
    {
      "midi": 64,
      "hit": false,
      "t": 29183.65450000002,
      "d": 25.51018750000003,
      "v": 100
    },
    {
      "midi": 73,
      "hit": false,
      "t": 29183.65450000002,
      "d": 25.51018750000003,
      "v": 110
    },
    {
      "midi": 76,
      "hit": false,
      "t": 29183.65450000002,
      "d": 51.02037500000006,
      "v": 50
    },
    {
      "midi": 81,
      "hit": false,
      "t": 29183.65450000002,
      "d": 51.02037500000006,
      "v": 60
    },
    {
      "midi": 32,
      "hit": false,
      "t": 29183.654500000022,
      "d": 187.07470833333355,
      "v": 100
    },
    {
      "midi": 70,
      "hit": false,
      "t": 29183.654500000022,
      "d": 8.503395833333343,
      "v": 78
    },
    {
      "midi": 42,
      "hit": false,
      "t": 29183.654500000022,
      "d": 8.503395833333343,
      "v": 73
    },
    {
      "midi": 70,
      "hit": false,
      "t": 29285.695250000022,
      "d": 8.503395833333343,
      "v": 50
    },
    {
      "midi": 38,
      "hit": false,
      "t": 29285.695250000022,
      "d": 8.503395833333343,
      "v": 89
    },
    {
      "midi": 42,
      "hit": false,
      "t": 29285.695250000022,
      "d": 8.503395833333343,
      "v": 64
    },
    {
      "midi": 81,
      "hit": false,
      "t": 29387.73600000001,
      "d": 187.07470833333355,
      "v": 127
    },
    {
      "midi": 69,
      "hit": false,
      "t": 29387.73600000001,
      "d": 187.07470833333355,
      "v": 127
    },
    {
      "midi": 52,
      "hit": false,
      "t": 29387.73600000002,
      "d": 994.8973125000011,
      "v": 107
    },
    {
      "midi": 55,
      "hit": false,
      "t": 29387.73600000002,
      "d": 994.8973125000011,
      "v": 107
    },
    {
      "midi": 59,
      "hit": false,
      "t": 29387.73600000002,
      "d": 994.8973125000011,
      "v": 107
    },
    {
      "midi": 62,
      "hit": false,
      "t": 29387.73600000002,
      "d": 994.8973125000011,
      "v": 107
    },
    {
      "midi": 33,
      "hit": false,
      "t": 29387.736000000023,
      "d": 59.5237708333334,
      "v": 105
    },
    {
      "midi": 70,
      "hit": false,
      "t": 29387.736000000023,
      "d": 8.503395833333343,
      "v": 78
    },
    {
      "midi": 36,
      "hit": false,
      "t": 29387.736000000023,
      "d": 8.503395833333343,
      "v": 114
    },
    {
      "midi": 42,
      "hit": false,
      "t": 29387.736000000023,
      "d": 8.503395833333343,
      "v": 73
    },
    {
      "midi": 33,
      "hit": false,
      "t": 29489.776750000023,
      "d": 42.516979166666715,
      "v": 100
    },
    {
      "midi": 70,
      "hit": false,
      "t": 29489.776750000023,
      "d": 8.503395833333343,
      "v": 50
    },
    {
      "midi": 78,
      "hit": false,
      "t": 29591.817500000016,
      "d": 8.503395833333343,
      "v": 80
    },
    {
      "midi": 32,
      "hit": false,
      "t": 29591.817500000023,
      "d": 170.06791666666686,
      "v": 105
    },
    {
      "midi": 70,
      "hit": false,
      "t": 29591.817500000023,
      "d": 8.503395833333343,
      "v": 78
    },
    {
      "midi": 42,
      "hit": false,
      "t": 29591.817500000023,
      "d": 8.503395833333343,
      "v": 73
    },
    {
      "midi": 70,
      "hit": false,
      "t": 29693.858250000023,
      "d": 8.503395833333343,
      "v": 50
    },
    {
      "midi": 42,
      "hit": false,
      "t": 29693.858250000023,
      "d": 8.503395833333343,
      "v": 64
    },
    {
      "midi": 83,
      "hit": false,
      "t": 29795.899000000012,
      "d": 170.06791666666686,
      "v": 127
    },
    {
      "midi": 71,
      "hit": false,
      "t": 29795.899000000012,
      "d": 170.06791666666686,
      "v": 127
    },
    {
      "midi": 35,
      "hit": false,
      "t": 29795.899000000023,
      "d": 195.5781041666669,
      "v": 106
    },
    {
      "midi": 70,
      "hit": false,
      "t": 29795.899000000023,
      "d": 8.503395833333343,
      "v": 78
    },
    {
      "midi": 36,
      "hit": false,
      "t": 29795.899000000023,
      "d": 8.503395833333343,
      "v": 114
    },
    {
      "midi": 38,
      "hit": false,
      "t": 29795.899000000023,
      "d": 8.503395833333343,
      "v": 103
    },
    {
      "midi": 42,
      "hit": false,
      "t": 29795.899000000023,
      "d": 8.503395833333343,
      "v": 73
    },
    {
      "midi": 78,
      "hit": false,
      "t": 29897.939750000016,
      "d": 8.503395833333343,
      "v": 80
    },
    {
      "midi": 70,
      "hit": false,
      "t": 29897.939750000023,
      "d": 8.503395833333343,
      "v": 50
    },
    {
      "midi": 33,
      "hit": false,
      "t": 29999.980500000023,
      "d": 85.03395833333343,
      "v": 100
    },
    {
      "midi": 70,
      "hit": false,
      "t": 29999.980500000023,
      "d": 8.503395833333343,
      "v": 78
    },
    {
      "midi": 27,
      "hit": false,
      "t": 29999.980500000023,
      "d": 8.503395833333343,
      "v": 70
    },
    {
      "midi": 42,
      "hit": false,
      "t": 29999.980500000023,
      "d": 8.503395833333343,
      "v": 73
    },
    {
      "midi": 45,
      "hit": false,
      "t": 30102.021250000023,
      "d": 59.5237708333334,
      "v": 100
    },
    {
      "midi": 70,
      "hit": false,
      "t": 30102.021250000023,
      "d": 8.503395833333343,
      "v": 50
    },
    {
      "midi": 27,
      "hit": false,
      "t": 30102.021250000023,
      "d": 8.503395833333343,
      "v": 70
    },
    {
      "midi": 38,
      "hit": false,
      "t": 30102.021250000023,
      "d": 8.503395833333343,
      "v": 89
    },
    {
      "midi": 42,
      "hit": false,
      "t": 30102.021250000023,
      "d": 8.503395833333343,
      "v": 64
    },
    {
      "midi": 85,
      "hit": false,
      "t": 30204.062000000013,
      "d": 187.07470833333355,
      "v": 127
    },
    {
      "midi": 69,
      "hit": false,
      "t": 30204.062000000013,
      "d": 187.07470833333355,
      "v": 127
    },
    {
      "midi": 73,
      "hit": false,
      "t": 30204.062000000016,
      "d": 8.503395833333343,
      "v": 80
    },
    {
      "midi": 33,
      "hit": false,
      "t": 30204.062000000024,
      "d": 102.04075000000012,
      "v": 106
    },
    {
      "midi": 36,
      "hit": false,
      "t": 30204.062000000024,
      "d": 8.503395833333343,
      "v": 114
    },
    {
      "midi": 70,
      "hit": false,
      "t": 30204.062000000024,
      "d": 8.503395833333343,
      "v": 78
    },
    {
      "midi": 42,
      "hit": false,
      "t": 30204.062000000024,
      "d": 8.503395833333343,
      "v": 73
    },
    {
      "midi": 70,
      "hit": false,
      "t": 30306.102750000024,
      "d": 8.503395833333343,
      "v": 50
    },
    {
      "midi": 27,
      "hit": false,
      "t": 30306.102750000024,
      "d": 8.503395833333343,
      "v": 70
    },
    {
      "midi": 83,
      "hit": false,
      "t": 30408.143500000013,
      "d": 603.7411041666674,
      "v": 127
    },
    {
      "midi": 67,
      "hit": false,
      "t": 30408.143500000013,
      "d": 603.7411041666674,
      "v": 127
    },
    {
      "midi": 55,
      "hit": false,
      "t": 30408.14350000002,
      "d": 586.7343125000007,
      "v": 107
    },
    {
      "midi": 57,
      "hit": false,
      "t": 30408.14350000002,
      "d": 586.7343125000007,
      "v": 107
    },
    {
      "midi": 61,
      "hit": false,
      "t": 30408.14350000002,
      "d": 586.7343125000007,
      "v": 107
    },
    {
      "midi": 63,
      "hit": false,
      "t": 30408.14350000002,
      "d": 586.7343125000007,
      "v": 107
    },
    {
      "midi": 39,
      "hit": false,
      "t": 30408.143500000024,
      "d": 578.2309166666673,
      "v": 100
    },
    {
      "midi": 70,
      "hit": false,
      "t": 30408.143500000024,
      "d": 8.503395833333343,
      "v": 78
    },
    {
      "midi": 27,
      "hit": false,
      "t": 30408.143500000024,
      "d": 8.503395833333343,
      "v": 40
    },
    {
      "midi": 38,
      "hit": false,
      "t": 30408.143500000024,
      "d": 8.503395833333343,
      "v": 107
    },
    {
      "midi": 49,
      "hit": false,
      "t": 30408.143500000024,
      "d": 8.503395833333343,
      "v": 101
    },
    {
      "midi": 73,
      "hit": false,
      "t": 30510.184250000017,
      "d": 8.503395833333343,
      "v": 80
    },
    {
      "midi": 70,
      "hit": false,
      "t": 30510.184250000024,
      "d": 8.503395833333343,
      "v": 50
    },
    {
      "midi": 27,
      "hit": false,
      "t": 30510.184250000024,
      "d": 8.503395833333343,
      "v": 70
    },
    {
      "midi": 38,
      "hit": false,
      "t": 30510.184250000024,
      "d": 8.503395833333343,
      "v": 92
    },
    {
      "midi": 36,
      "hit": false,
      "t": 30612.225000000024,
      "d": 8.503395833333343,
      "v": 114
    },
    {
      "midi": 70,
      "hit": false,
      "t": 30612.225000000024,
      "d": 8.503395833333343,
      "v": 78
    },
    {
      "midi": 38,
      "hit": false,
      "t": 30612.225000000024,
      "d": 8.503395833333343,
      "v": 100
    },
    {
      "midi": 42,
      "hit": false,
      "t": 30612.225000000024,
      "d": 8.503395833333343,
      "v": 73
    },
    {
      "midi": 70,
      "hit": false,
      "t": 30714.265750000024,
      "d": 8.503395833333343,
      "v": 50
    },
    {
      "midi": 27,
      "hit": false,
      "t": 30714.265750000024,
      "d": 8.503395833333343,
      "v": 70
    },
    {
      "midi": 38,
      "hit": false,
      "t": 30714.265750000024,
      "d": 8.503395833333343,
      "v": 101
    },
    {
      "midi": 73,
      "hit": false,
      "t": 30816.306500000017,
      "d": 8.503395833333343,
      "v": 80
    },
    {
      "midi": 61,
      "hit": false,
      "t": 30816.30650000002,
      "d": 399.6596041666671,
      "v": 122
    },
    {
      "midi": 70,
      "hit": false,
      "t": 30816.306500000024,
      "d": 8.503395833333343,
      "v": 78
    },
    {
      "midi": 36,
      "hit": false,
      "t": 30816.306500000024,
      "d": 8.503395833333343,
      "v": 114
    },
    {
      "midi": 42,
      "hit": false,
      "t": 30816.306500000024,
      "d": 8.503395833333343,
      "v": 73
    },
    {
      "midi": 38,
      "hit": false,
      "t": 30816.306500000024,
      "d": 8.503395833333343,
      "v": 111
    },
    {
      "midi": 108,
      "hit": false,
      "t": 30824.809895833336,
      "d": 68.02716666666674,
      "v": 74
    },
    {
      "midi": 108,
      "hit": false,
      "t": 30892.837062500003,
      "d": 68.02716666666674,
      "v": 74
    },
    {
      "midi": 70,
      "hit": false,
      "t": 30918.347250000024,
      "d": 8.503395833333343,
      "v": 50
    },
    {
      "midi": 38,
      "hit": false,
      "t": 30918.347250000024,
      "d": 8.503395833333343,
      "v": 115
    },
    {
      "midi": 42,
      "hit": false,
      "t": 30918.347250000024,
      "d": 8.503395833333343,
      "v": 64
    },
    {
      "midi": 108,
      "hit": false,
      "t": 30960.86422916667,
      "d": 68.02716666666674,
      "v": 84
    },
    {
      "midi": 81,
      "hit": false,
      "t": 31020.38800000001,
      "d": 25.51018750000003,
      "v": 88
    },
    {
      "midi": 81,
      "hit": false,
      "t": 31020.388000000014,
      "d": 195.5781041666669,
      "v": 117
    },
    {
      "midi": 66,
      "hit": false,
      "t": 31020.388000000014,
      "d": 178.5713125000002,
      "v": 117
    },
    {
      "midi": 38,
      "hit": false,
      "t": 31020.388000000024,
      "d": 195.5781041666669,
      "v": 101
    },
    {
      "midi": 36,
      "hit": false,
      "t": 31020.388000000024,
      "d": 8.503395833333343,
      "v": 114
    },
    {
      "midi": 57,
      "hit": false,
      "t": 31020.388000000024,
      "d": 8.503395833333343,
      "v": 92
    },
    {
      "midi": 70,
      "hit": false,
      "t": 31020.388000000024,
      "d": 8.503395833333343,
      "v": 78
    },
    {
      "midi": 108,
      "hit": false,
      "t": 31028.891395833336,
      "d": 59.5237708333334,
      "v": 89
    },
    {
      "midi": 54,
      "hit": false,
      "t": 31045.89818750002,
      "d": 1547.6180416666684,
      "v": 104
    },
    {
      "midi": 57,
      "hit": false,
      "t": 31045.89818750002,
      "d": 1547.6180416666684,
      "v": 104
    },
    {
      "midi": 61,
      "hit": false,
      "t": 31045.89818750002,
      "d": 1547.6180416666684,
      "v": 104
    },
    {
      "midi": 108,
      "hit": false,
      "t": 31096.918562500003,
      "d": 59.5237708333334,
      "v": 94
    },
    {
      "midi": 70,
      "hit": false,
      "t": 31122.428750000025,
      "d": 8.503395833333343,
      "v": 50
    },
    {
      "midi": 27,
      "hit": false,
      "t": 31122.428750000025,
      "d": 8.503395833333343,
      "v": 64
    },
    {
      "midi": 109,
      "hit": false,
      "t": 31164.94572916667,
      "d": 59.5237708333334,
      "v": 99
    },
    {
      "midi": 64,
      "hit": false,
      "t": 31198.959312500014,
      "d": 25.51018750000003,
      "v": 80
    },
    {
      "midi": 79,
      "hit": false,
      "t": 31215.96610416668,
      "d": 34.01358333333337,
      "v": 80
    },
    {
      "midi": 85,
      "hit": false,
      "t": 31224.46950000001,
      "d": 25.51018750000003,
      "v": 88
    },
    {
      "midi": 62,
      "hit": false,
      "t": 31224.469500000014,
      "d": 17.006791666666686,
      "v": 80
    },
    {
      "midi": 59,
      "hit": false,
      "t": 31224.46950000002,
      "d": 187.07470833333355,
      "v": 112
    },
    {
      "midi": 70,
      "hit": false,
      "t": 31224.469500000025,
      "d": 8.503395833333343,
      "v": 78
    },
    {
      "midi": 46,
      "hit": false,
      "t": 31224.469500000025,
      "d": 8.503395833333343,
      "v": 59
    },
    {
      "midi": 109,
      "hit": false,
      "t": 31232.972895833336,
      "d": 59.5237708333334,
      "v": 96
    },
    {
      "midi": 50,
      "hit": false,
      "t": 31232.972895833358,
      "d": 51.02037500000006,
      "v": 76
    },
    {
      "midi": 78,
      "hit": false,
      "t": 31241.47629166668,
      "d": 25.51018750000003,
      "v": 70
    },
    {
      "midi": 61,
      "hit": false,
      "t": 31241.47629166668,
      "d": 17.006791666666686,
      "v": 70
    },
    {
      "midi": 76,
      "hit": false,
      "t": 31258.483083333347,
      "d": 25.51018750000003,
      "v": 60
    },
    {
      "midi": 71,
      "hit": false,
      "t": 31258.483083333347,
      "d": 17.006791666666686,
      "v": 60
    },
    {
      "midi": 74,
      "hit": false,
      "t": 31275.489875000014,
      "d": 17.006791666666686,
      "v": 50
    },
    {
      "midi": 69,
      "hit": false,
      "t": 31275.489875000014,
      "d": 8.503395833333343,
      "v": 50
    },
    {
      "midi": 67,
      "hit": false,
      "t": 31283.993270833347,
      "d": 8.503395833333343,
      "v": 50
    },
    {
      "midi": 73,
      "hit": false,
      "t": 31292.49666666668,
      "d": 17.006791666666686,
      "v": 45
    },
    {
      "midi": 66,
      "hit": false,
      "t": 31292.49666666668,
      "d": 8.503395833333343,
      "v": 50
    },
    {
      "midi": 109,
      "hit": false,
      "t": 31301.000062500003,
      "d": 59.5237708333334,
      "v": 101
    },
    {
      "midi": 64,
      "hit": false,
      "t": 31301.000062500014,
      "d": 8.503395833333343,
      "v": 50
    },
    {
      "midi": 71,
      "hit": false,
      "t": 31309.503458333347,
      "d": 17.006791666666686,
      "v": 45
    },
    {
      "midi": 62,
      "hit": false,
      "t": 31309.503458333347,
      "d": 8.503395833333343,
      "v": 50
    },
    {
      "midi": 81,
      "hit": false,
      "t": 31326.51025000001,
      "d": 25.51018750000003,
      "v": 88
    },
    {
      "midi": 69,
      "hit": false,
      "t": 31326.510250000014,
      "d": 8.503395833333343,
      "v": 45
    },
    {
      "midi": 70,
      "hit": false,
      "t": 31326.510250000025,
      "d": 8.503395833333343,
      "v": 50
    },
    {
      "midi": 27,
      "hit": false,
      "t": 31326.510250000025,
      "d": 8.503395833333343,
      "v": 64
    },
    {
      "midi": 67,
      "hit": false,
      "t": 31335.013645833347,
      "d": 8.503395833333343,
      "v": 40
    },
    {
      "midi": 66,
      "hit": false,
      "t": 31343.51704166668,
      "d": 8.503395833333343,
      "v": 40
    },
    {
      "midi": 64,
      "hit": false,
      "t": 31352.020437500014,
      "d": 8.503395833333343,
      "v": 40
    },
    {
      "midi": 62,
      "hit": false,
      "t": 31360.523833333347,
      "d": 8.503395833333343,
      "v": 40
    },
    {
      "midi": 109,
      "hit": false,
      "t": 31369.02722916667,
      "d": 59.5237708333334,
      "v": 111
    },
    {
      "midi": 61,
      "hit": false,
      "t": 31428.55100000002,
      "d": 204.08150000000023,
      "v": 122
    },
    {
      "midi": 38,
      "hit": false,
      "t": 31428.551000000025,
      "d": 195.5781041666669,
      "v": 101
    },
    {
      "midi": 70,
      "hit": false,
      "t": 31428.551000000025,
      "d": 8.503395833333343,
      "v": 78
    },
    {
      "midi": 36,
      "hit": false,
      "t": 31428.551000000025,
      "d": 8.503395833333343,
      "v": 114
    },
    {
      "midi": 38,
      "hit": false,
      "t": 31428.551000000025,
      "d": 8.503395833333343,
      "v": 103
    },
    {
      "midi": 42,
      "hit": false,
      "t": 31428.551000000025,
      "d": 8.503395833333343,
      "v": 54
    },
    {
      "midi": 110,
      "hit": false,
      "t": 31437.054395833336,
      "d": 59.5237708333334,
      "v": 106
    },
    {
      "midi": 110,
      "hit": false,
      "t": 31505.081562500003,
      "d": 59.5237708333334,
      "v": 106
    },
    {
      "midi": 83,
      "hit": false,
      "t": 31530.59175000001,
      "d": 25.51018750000003,
      "v": 88
    },
    {
      "midi": 42,
      "hit": false,
      "t": 31530.591750000025,
      "d": 8.503395833333343,
      "v": 54
    },
    {
      "midi": 70,
      "hit": false,
      "t": 31530.591750000025,
      "d": 8.503395833333343,
      "v": 50
    },
    {
      "midi": 27,
      "hit": false,
      "t": 31530.591750000025,
      "d": 8.503395833333343,
      "v": 36
    },
    {
      "midi": 110,
      "hit": false,
      "t": 31573.10872916667,
      "d": 59.5237708333334,
      "v": 111
    },
    {
      "midi": 81,
      "hit": false,
      "t": 31632.63250000001,
      "d": 25.51018750000003,
      "v": 88
    },
    {
      "midi": 59,
      "hit": false,
      "t": 31632.63250000002,
      "d": 102.04075000000012,
      "v": 127
    },
    {
      "midi": 46,
      "hit": false,
      "t": 31632.632500000025,
      "d": 8.503395833333343,
      "v": 59
    },
    {
      "midi": 70,
      "hit": false,
      "t": 31632.632500000025,
      "d": 8.503395833333343,
      "v": 78
    },
    {
      "midi": 27,
      "hit": false,
      "t": 31632.632500000025,
      "d": 8.503395833333343,
      "v": 64
    },
    {
      "midi": 110,
      "hit": false,
      "t": 31641.135895833337,
      "d": 59.5237708333334,
      "v": 116
    },
    {
      "midi": 111,
      "hit": false,
      "t": 31709.163062500003,
      "d": 59.5237708333334,
      "v": 116
    },
    {
      "midi": 81,
      "hit": false,
      "t": 31734.67325000001,
      "d": 25.51018750000003,
      "v": 88
    },
    {
      "midi": 61,
      "hit": false,
      "t": 31734.67325000002,
      "d": 238.0950833333336,
      "v": 124
    },
    {
      "midi": 37,
      "hit": false,
      "t": 31734.673250000025,
      "d": 170.06791666666686,
      "v": 101
    },
    {
      "midi": 70,
      "hit": false,
      "t": 31734.673250000025,
      "d": 8.503395833333343,
      "v": 50
    },
    {
      "midi": 27,
      "hit": false,
      "t": 31734.673250000025,
      "d": 8.503395833333343,
      "v": 36
    },
    {
      "midi": 111,
      "hit": false,
      "t": 31777.19022916667,
      "d": 59.5237708333334,
      "v": 111
    },
    {
      "midi": 66,
      "hit": false,
      "t": 31836.714000000004,
      "d": 408.16300000000047,
      "v": 127
    },
    {
      "midi": 88,
      "hit": false,
      "t": 31836.71400000001,
      "d": 25.51018750000003,
      "v": 88
    },
    {
      "midi": 70,
      "hit": false,
      "t": 31836.714000000025,
      "d": 8.503395833333343,
      "v": 78
    },
    {
      "midi": 36,
      "hit": false,
      "t": 31836.714000000025,
      "d": 8.503395833333343,
      "v": 114
    },
    {
      "midi": 42,
      "hit": false,
      "t": 31836.714000000025,
      "d": 8.503395833333343,
      "v": 54
    },
    {
      "midi": 111,
      "hit": false,
      "t": 31845.217395833337,
      "d": 59.5237708333334,
      "v": 111
    },
    {
      "midi": 111,
      "hit": false,
      "t": 31913.244562500004,
      "d": 59.5237708333334,
      "v": 106
    },
    {
      "midi": 42,
      "hit": false,
      "t": 31938.754750000026,
      "d": 8.503395833333343,
      "v": 54
    },
    {
      "midi": 70,
      "hit": false,
      "t": 31938.754750000026,
      "d": 8.503395833333343,
      "v": 50
    },
    {
      "midi": 27,
      "hit": false,
      "t": 31938.754750000026,
      "d": 8.503395833333343,
      "v": 64
    },
    {
      "midi": 112,
      "hit": false,
      "t": 31981.27172916667,
      "d": 59.5237708333334,
      "v": 106
    },
    {
      "midi": 81,
      "hit": false,
      "t": 32040.79550000001,
      "d": 25.51018750000003,
      "v": 88
    },
    {
      "midi": 38,
      "hit": false,
      "t": 32040.795500000026,
      "d": 170.06791666666686,
      "v": 101
    },
    {
      "midi": 70,
      "hit": false,
      "t": 32040.795500000026,
      "d": 8.503395833333343,
      "v": 78
    },
    {
      "midi": 46,
      "hit": false,
      "t": 32040.795500000026,
      "d": 8.503395833333343,
      "v": 59
    },
    {
      "midi": 112,
      "hit": false,
      "t": 32049.298895833337,
      "d": 59.5237708333334,
      "v": 106
    },
    {
      "midi": 112,
      "hit": false,
      "t": 32117.326062500004,
      "d": 59.5237708333334,
      "v": 106
    },
    {
      "midi": 81,
      "hit": false,
      "t": 32142.83625000001,
      "d": 25.51018750000003,
      "v": 88
    },
    {
      "midi": 70,
      "hit": false,
      "t": 32142.836250000026,
      "d": 8.503395833333343,
      "v": 50
    },
    {
      "midi": 27,
      "hit": false,
      "t": 32142.836250000026,
      "d": 8.503395833333343,
      "v": 36
    },
    {
      "midi": 112,
      "hit": false,
      "t": 32185.35322916667,
      "d": 59.5237708333334,
      "v": 106
    },
    {
      "midi": 73,
      "hit": false,
      "t": 32244.877000000004,
      "d": 408.16300000000047,
      "v": 127
    },
    {
      "midi": 37,
      "hit": false,
      "t": 32244.877000000026,
      "d": 93.53735416666677,
      "v": 106
    },
    {
      "midi": 36,
      "hit": false,
      "t": 32244.877000000026,
      "d": 8.503395833333343,
      "v": 114
    },
    {
      "midi": 70,
      "hit": false,
      "t": 32244.877000000026,
      "d": 8.503395833333343,
      "v": 78
    },
    {
      "midi": 38,
      "hit": false,
      "t": 32244.877000000026,
      "d": 8.503395833333343,
      "v": 103
    },
    {
      "midi": 42,
      "hit": false,
      "t": 32244.877000000026,
      "d": 8.503395833333343,
      "v": 54
    },
    {
      "midi": 113,
      "hit": false,
      "t": 32253.380395833337,
      "d": 59.5237708333334,
      "v": 106
    },
    {
      "midi": 113,
      "hit": false,
      "t": 32321.407562500004,
      "d": 59.5237708333334,
      "v": 106
    },
    {
      "midi": 83,
      "hit": false,
      "t": 32346.91775000001,
      "d": 25.51018750000003,
      "v": 88
    },
    {
      "midi": 38,
      "hit": false,
      "t": 32346.917750000026,
      "d": 68.02716666666674,
      "v": 101
    },
    {
      "midi": 42,
      "hit": false,
      "t": 32346.917750000026,
      "d": 8.503395833333343,
      "v": 54
    },
    {
      "midi": 70,
      "hit": false,
      "t": 32346.917750000026,
      "d": 8.503395833333343,
      "v": 50
    },
    {
      "midi": 27,
      "hit": false,
      "t": 32346.917750000026,
      "d": 8.503395833333343,
      "v": 36
    },
    {
      "midi": 113,
      "hit": false,
      "t": 32389.43472916667,
      "d": 59.5237708333334,
      "v": 106
    },
    {
      "midi": 61,
      "hit": false,
      "t": 32448.958500000022,
      "d": 399.6596041666635,
      "v": 122
    },
    {
      "midi": 70,
      "hit": false,
      "t": 32448.958500000026,
      "d": 8.503395833333343,
      "v": 78
    },
    {
      "midi": 46,
      "hit": false,
      "t": 32448.958500000026,
      "d": 8.503395833333343,
      "v": 59
    },
    {
      "midi": 27,
      "hit": false,
      "t": 32448.958500000026,
      "d": 8.503395833333343,
      "v": 22
    },
    {
      "midi": 113,
      "hit": false,
      "t": 32457.461895833338,
      "d": 59.5237708333334,
      "v": 91
    },
    {
      "midi": 114,
      "hit": false,
      "t": 32525.489062500004,
      "d": 59.5237708333334,
      "v": 86
    },
    {
      "midi": 81,
      "hit": false,
      "t": 32550.99925000001,
      "d": 25.51018750000003,
      "v": 88
    },
    {
      "midi": 50,
      "hit": false,
      "t": 32550.999250000026,
      "d": 85.03395833333343,
      "v": 96
    },
    {
      "midi": 70,
      "hit": false,
      "t": 32550.999250000026,
      "d": 8.503395833333343,
      "v": 50
    },
    {
      "midi": 27,
      "hit": false,
      "t": 32550.999250000026,
      "d": 8.503395833333343,
      "v": 22
    },
    {
      "midi": 114,
      "hit": false,
      "t": 32593.51622916667,
      "d": 59.5237708333334,
      "v": 81
    },
    {
      "midi": 71,
      "hit": false,
      "t": 32653.040000000005,
      "d": 816.3259999999973,
      "v": 127
    },
    {
      "midi": 83,
      "hit": false,
      "t": 32653.04000000001,
      "d": 25.51018750000003,
      "v": 88
    },
    {
      "midi": 52,
      "hit": false,
      "t": 32653.040000000023,
      "d": 1547.6180416666684,
      "v": 104
    },
    {
      "midi": 57,
      "hit": false,
      "t": 32653.040000000023,
      "d": 1547.6180416666684,
      "v": 104
    },
    {
      "midi": 61,
      "hit": false,
      "t": 32653.040000000023,
      "d": 1547.6180416666684,
      "v": 104
    },
    {
      "midi": 37,
      "hit": false,
      "t": 32653.040000000026,
      "d": 195.5781041666669,
      "v": 101
    },
    {
      "midi": 70,
      "hit": false,
      "t": 32653.040000000026,
      "d": 8.503395833333343,
      "v": 78
    },
    {
      "midi": 36,
      "hit": false,
      "t": 32653.040000000026,
      "d": 8.503395833333343,
      "v": 114
    },
    {
      "midi": 42,
      "hit": false,
      "t": 32653.040000000026,
      "d": 8.503395833333343,
      "v": 54
    },
    {
      "midi": 114,
      "hit": false,
      "t": 32661.543395833338,
      "d": 59.5237708333334,
      "v": 76
    },
    {
      "midi": 114,
      "hit": false,
      "t": 32729.570562500005,
      "d": 59.52377083332976,
      "v": 81
    },
    {
      "midi": 42,
      "hit": false,
      "t": 32755.080750000026,
      "d": 8.503395833333343,
      "v": 54
    },
    {
      "midi": 70,
      "hit": false,
      "t": 32755.080750000026,
      "d": 8.503395833333343,
      "v": 50
    },
    {
      "midi": 115,
      "hit": false,
      "t": 32797.597729166664,
      "d": 59.52377083332976,
      "v": 81
    },
    {
      "midi": 85,
      "hit": false,
      "t": 32857.12150000001,
      "d": 25.51018749999639,
      "v": 88
    },
    {
      "midi": 59,
      "hit": false,
      "t": 32857.121500000016,
      "d": 187.07470833333355,
      "v": 112
    },
    {
      "midi": 49,
      "hit": false,
      "t": 32857.12150000002,
      "d": 59.52377083332976,
      "v": 101
    },
    {
      "midi": 70,
      "hit": false,
      "t": 32857.12150000002,
      "d": 8.503395833329705,
      "v": 78
    },
    {
      "midi": 46,
      "hit": false,
      "t": 32857.12150000002,
      "d": 8.503395833329705,
      "v": 59
    },
    {
      "midi": 115,
      "hit": false,
      "t": 32865.62489583332,
      "d": 59.52377083332976,
      "v": 81
    },
    {
      "midi": 115,
      "hit": false,
      "t": 32933.65206249998,
      "d": 59.52377083332976,
      "v": 81
    },
    {
      "midi": 81,
      "hit": false,
      "t": 32959.16225,
      "d": 25.51018749999639,
      "v": 88
    },
    {
      "midi": 70,
      "hit": false,
      "t": 32959.162250000016,
      "d": 8.503395833329705,
      "v": 50
    },
    {
      "midi": 115,
      "hit": false,
      "t": 33001.67922916664,
      "d": 59.52377083332976,
      "v": 76
    },
    {
      "midi": 70,
      "hit": false,
      "t": 33061.20300000001,
      "d": 8.503395833329705,
      "v": 78
    },
    {
      "midi": 36,
      "hit": false,
      "t": 33061.20300000001,
      "d": 8.503395833329705,
      "v": 114
    },
    {
      "midi": 38,
      "hit": false,
      "t": 33061.20300000001,
      "d": 8.503395833329705,
      "v": 103
    },
    {
      "midi": 42,
      "hit": false,
      "t": 33061.20300000001,
      "d": 8.503395833329705,
      "v": 54
    },
    {
      "midi": 37,
      "hit": false,
      "t": 33061.203000000016,
      "d": 195.57810416666325,
      "v": 101
    },
    {
      "midi": 61,
      "hit": false,
      "t": 33061.203000000016,
      "d": 204.08150000000023,
      "v": 122
    },
    {
      "midi": 116,
      "hit": false,
      "t": 33069.7063958333,
      "d": 59.52377083332976,
      "v": 76
    },
    {
      "midi": 116,
      "hit": false,
      "t": 33137.73356249996,
      "d": 59.52377083332976,
      "v": 76
    },
    {
      "midi": 83,
      "hit": false,
      "t": 33163.243749999994,
      "d": 25.51018749999639,
      "v": 88
    },
    {
      "midi": 42,
      "hit": false,
      "t": 33163.24375,
      "d": 8.503395833329705,
      "v": 54
    },
    {
      "midi": 70,
      "hit": false,
      "t": 33163.24375,
      "d": 8.503395833329705,
      "v": 50
    },
    {
      "midi": 116,
      "hit": false,
      "t": 33205.76072916662,
      "d": 59.52377083332976,
      "v": 71
    },
    {
      "midi": 83,
      "hit": false,
      "t": 33265.28449999999,
      "d": 25.51018749999639,
      "v": 88
    },
    {
      "midi": 70,
      "hit": false,
      "t": 33265.284499999994,
      "d": 8.503395833329705,
      "v": 78
    },
    {
      "midi": 46,
      "hit": false,
      "t": 33265.284499999994,
      "d": 8.503395833329705,
      "v": 59
    },
    {
      "midi": 27,
      "hit": false,
      "t": 33265.284499999994,
      "d": 8.503395833329705,
      "v": 64
    },
    {
      "midi": 59,
      "hit": false,
      "t": 33265.284500000016,
      "d": 102.04075000000012,
      "v": 127
    },
    {
      "midi": 116,
      "hit": false,
      "t": 33273.78789583328,
      "d": 59.52377083332976,
      "v": 71
    },
    {
      "midi": 117,
      "hit": false,
      "t": 33341.81506249994,
      "d": 59.52377083332976,
      "v": 71
    },
    {
      "midi": 81,
      "hit": false,
      "t": 33367.32524999998,
      "d": 25.51018749999639,
      "v": 88
    },
    {
      "midi": 70,
      "hit": false,
      "t": 33367.32524999999,
      "d": 8.503395833329705,
      "v": 50
    },
    {
      "midi": 27,
      "hit": false,
      "t": 33367.32524999999,
      "d": 8.503395833329705,
      "v": 64
    },
    {
      "midi": 35,
      "hit": false,
      "t": 33367.32525000001,
      "d": 170.06791666666686,
      "v": 101
    },
    {
      "midi": 61,
      "hit": false,
      "t": 33367.325250000016,
      "d": 238.09508333332633,
      "v": 124
    },
    {
      "midi": 117,
      "hit": false,
      "t": 33409.8422291666,
      "d": 59.52377083332976,
      "v": 61
    },
    {
      "midi": 88,
      "hit": false,
      "t": 33469.36599999997,
      "d": 25.51018749999639,
      "v": 88
    },
    {
      "midi": 36,
      "hit": false,
      "t": 33469.36599999998,
      "d": 8.503395833329705,
      "v": 114
    },
    {
      "midi": 70,
      "hit": false,
      "t": 33469.36599999998,
      "d": 8.503395833329705,
      "v": 78
    },
    {
      "midi": 42,
      "hit": false,
      "t": 33469.36599999998,
      "d": 8.503395833329705,
      "v": 54
    },
    {
      "midi": 76,
      "hit": false,
      "t": 33469.366,
      "d": 816.3260000000009,
      "v": 117
    },
    {
      "midi": 117,
      "hit": false,
      "t": 33477.86939583326,
      "d": 408.16300000000047,
      "v": 61
    },
    {
      "midi": 70,
      "hit": false,
      "t": 33571.40674999997,
      "d": 8.503395833329705,
      "v": 50
    },
    {
      "midi": 42,
      "hit": false,
      "t": 33571.40674999997,
      "d": 8.503395833329705,
      "v": 54
    },
    {
      "midi": 27,
      "hit": false,
      "t": 33571.40674999997,
      "d": 8.503395833329705,
      "v": 64
    },
    {
      "midi": 70,
      "hit": false,
      "t": 33673.447499999966,
      "d": 8.503395833329705,
      "v": 78
    },
    {
      "midi": 46,
      "hit": false,
      "t": 33673.447499999966,
      "d": 8.503395833329705,
      "v": 59
    },
    {
      "midi": 27,
      "hit": false,
      "t": 33673.447499999966,
      "d": 8.503395833329705,
      "v": 36
    },
    {
      "midi": 81,
      "hit": false,
      "t": 33673.447499999966,
      "d": 25.51018749999639,
      "v": 88
    },
    {
      "midi": 37,
      "hit": false,
      "t": 33673.44750000001,
      "d": 170.06791666666686,
      "v": 101
    },
    {
      "midi": 70,
      "hit": false,
      "t": 33775.48824999996,
      "d": 8.503395833329705,
      "v": 50
    },
    {
      "midi": 27,
      "hit": false,
      "t": 33775.48824999996,
      "d": 8.503395833329705,
      "v": 64
    },
    {
      "midi": 81,
      "hit": false,
      "t": 33775.48824999996,
      "d": 25.51018749999639,
      "v": 88
    },
    {
      "midi": 36,
      "hit": false,
      "t": 33877.52899999995,
      "d": 8.503395833329705,
      "v": 114
    },
    {
      "midi": 70,
      "hit": false,
      "t": 33877.52899999995,
      "d": 8.503395833329705,
      "v": 78
    },
    {
      "midi": 38,
      "hit": false,
      "t": 33877.52899999995,
      "d": 8.503395833329705,
      "v": 103
    },
    {
      "midi": 42,
      "hit": false,
      "t": 33877.52899999995,
      "d": 8.503395833329705,
      "v": 54
    },
    {
      "midi": 35,
      "hit": false,
      "t": 33877.52900000001,
      "d": 93.53735416666314,
      "v": 106
    },
    {
      "midi": 70,
      "hit": false,
      "t": 33979.569749999944,
      "d": 8.503395833329705,
      "v": 54
    },
    {
      "midi": 42,
      "hit": false,
      "t": 33979.569749999944,
      "d": 8.503395833329705,
      "v": 54
    },
    {
      "midi": 27,
      "hit": false,
      "t": 33979.569749999944,
      "d": 8.503395833329705,
      "v": 64
    },
    {
      "midi": 83,
      "hit": false,
      "t": 33979.56974999995,
      "d": 25.51018749999639,
      "v": 88
    },
    {
      "midi": 37,
      "hit": false,
      "t": 33979.56975,
      "d": 68.02716666666674,
      "v": 101
    },
    {
      "midi": 70,
      "hit": false,
      "t": 34081.61049999994,
      "d": 8.503395833329705,
      "v": 78
    },
    {
      "midi": 36,
      "hit": false,
      "t": 34081.61049999994,
      "d": 8.503395833329705,
      "v": 114
    },
    {
      "midi": 46,
      "hit": false,
      "t": 34081.61049999994,
      "d": 8.503395833329705,
      "v": 59
    },
    {
      "midi": 61,
      "hit": false,
      "t": 34081.61050000001,
      "d": 399.6596041666635,
      "v": 122
    },
    {
      "midi": 70,
      "hit": false,
      "t": 34183.65124999993,
      "d": 8.503395833329705,
      "v": 50
    },
    {
      "midi": 81,
      "hit": false,
      "t": 34183.651249999944,
      "d": 25.51018749999639,
      "v": 88
    },
    {
      "midi": 49,
      "hit": false,
      "t": 34183.65125,
      "d": 85.03395833333343,
      "v": 96
    },
    {
      "midi": 36,
      "hit": false,
      "t": 34285.69199999992,
      "d": 8.503395833329705,
      "v": 114
    },
    {
      "midi": 70,
      "hit": false,
      "t": 34285.69199999992,
      "d": 8.503395833329705,
      "v": 78
    },
    {
      "midi": 42,
      "hit": false,
      "t": 34285.69199999992,
      "d": 8.503395833329705,
      "v": 54
    },
    {
      "midi": 83,
      "hit": false,
      "t": 34285.69199999994,
      "d": 25.51018749999639,
      "v": 88
    },
    {
      "midi": 73,
      "hit": false,
      "t": 34285.692,
      "d": 1632.6520000000019,
      "v": 127
    },
    {
      "midi": 35,
      "hit": false,
      "t": 34285.692,
      "d": 195.57810416666325,
      "v": 101
    },
    {
      "midi": 47,
      "hit": false,
      "t": 34285.692000000025,
      "d": 1547.6180416666684,
      "v": 104
    },
    {
      "midi": 50,
      "hit": false,
      "t": 34285.692000000025,
      "d": 1547.6180416666684,
      "v": 104
    },
    {
      "midi": 57,
      "hit": false,
      "t": 34285.692000000025,
      "d": 1547.6180416666684,
      "v": 104
    },
    {
      "midi": 42,
      "hit": false,
      "t": 34387.732749999916,
      "d": 8.503395833329705,
      "v": 54
    },
    {
      "midi": 70,
      "hit": false,
      "t": 34387.732749999916,
      "d": 8.503395833329705,
      "v": 50
    },
    {
      "midi": 27,
      "hit": false,
      "t": 34387.732749999916,
      "d": 8.503395833329705,
      "v": 64
    },
    {
      "midi": 70,
      "hit": false,
      "t": 34489.77349999991,
      "d": 8.503395833329705,
      "v": 78
    },
    {
      "midi": 46,
      "hit": false,
      "t": 34489.77349999991,
      "d": 8.503395833329705,
      "v": 59
    },
    {
      "midi": 85,
      "hit": false,
      "t": 34489.77349999993,
      "d": 25.51018749999639,
      "v": 88
    },
    {
      "midi": 47,
      "hit": false,
      "t": 34489.773499999996,
      "d": 59.52377083332976,
      "v": 101
    },
    {
      "midi": 59,
      "hit": false,
      "t": 34489.7735,
      "d": 195.57810416666325,
      "v": 112
    },
    {
      "midi": 70,
      "hit": false,
      "t": 34591.8142499999,
      "d": 8.503395833329705,
      "v": 50
    },
    {
      "midi": 27,
      "hit": false,
      "t": 34591.8142499999,
      "d": 8.503395833329705,
      "v": 50
    },
    {
      "midi": 81,
      "hit": false,
      "t": 34591.81424999992,
      "d": 25.51018749999639,
      "v": 88
    },
    {
      "midi": 70,
      "hit": false,
      "t": 34693.854999999894,
      "d": 8.503395833329705,
      "v": 78
    },
    {
      "midi": 36,
      "hit": false,
      "t": 34693.854999999894,
      "d": 8.503395833329705,
      "v": 114
    },
    {
      "midi": 38,
      "hit": false,
      "t": 34693.854999999894,
      "d": 8.503395833329705,
      "v": 103
    },
    {
      "midi": 42,
      "hit": false,
      "t": 34693.854999999894,
      "d": 8.503395833329705,
      "v": 54
    },
    {
      "midi": 35,
      "hit": false,
      "t": 34693.85499999999,
      "d": 195.57810416666325,
      "v": 101
    },
    {
      "midi": 61,
      "hit": false,
      "t": 34693.854999999996,
      "d": 161.56452083332988,
      "v": 117
    },
    {
      "midi": 42,
      "hit": false,
      "t": 34795.89574999989,
      "d": 8.503395833329705,
      "v": 54
    },
    {
      "midi": 70,
      "hit": false,
      "t": 34795.89574999989,
      "d": 8.503395833329705,
      "v": 50
    },
    {
      "midi": 27,
      "hit": false,
      "t": 34795.89574999989,
      "d": 8.503395833329705,
      "v": 64
    },
    {
      "midi": 83,
      "hit": false,
      "t": 34795.895749999916,
      "d": 25.51018749999639,
      "v": 88
    },
    {
      "midi": 46,
      "hit": false,
      "t": 34897.93649999988,
      "d": 8.503395833329705,
      "v": 59
    },
    {
      "midi": 70,
      "hit": false,
      "t": 34897.93649999988,
      "d": 8.503395833329705,
      "v": 78
    },
    {
      "midi": 27,
      "hit": false,
      "t": 34897.93649999988,
      "d": 8.503395833329705,
      "v": 36
    },
    {
      "midi": 83,
      "hit": false,
      "t": 34897.93649999991,
      "d": 25.51018749999639,
      "v": 88
    },
    {
      "midi": 61,
      "hit": false,
      "t": 34897.93649999999,
      "d": 391.1562083333338,
      "v": 127
    },
    {
      "midi": 70,
      "hit": false,
      "t": 34999.97724999987,
      "d": 8.503395833329705,
      "v": 50
    },
    {
      "midi": 27,
      "hit": false,
      "t": 34999.97724999987,
      "d": 8.503395833329705,
      "v": 36
    },
    {
      "midi": 81,
      "hit": false,
      "t": 34999.9772499999,
      "d": 25.51018749999639,
      "v": 88
    },
    {
      "midi": 33,
      "hit": false,
      "t": 34999.97724999998,
      "d": 170.06791666666686,
      "v": 101
    },
    {
      "midi": 70,
      "hit": false,
      "t": 35102.017999999865,
      "d": 8.503395833329705,
      "v": 78
    },
    {
      "midi": 36,
      "hit": false,
      "t": 35102.017999999865,
      "d": 8.503395833329705,
      "v": 114
    },
    {
      "midi": 42,
      "hit": false,
      "t": 35102.017999999865,
      "d": 8.503395833329705,
      "v": 54
    },
    {
      "midi": 88,
      "hit": false,
      "t": 35102.017999999895,
      "d": 25.51018749999639,
      "v": 88
    },
    {
      "midi": 42,
      "hit": false,
      "t": 35204.05874999986,
      "d": 8.503395833329705,
      "v": 54
    },
    {
      "midi": 70,
      "hit": false,
      "t": 35204.05874999986,
      "d": 8.503395833329705,
      "v": 50
    },
    {
      "midi": 27,
      "hit": false,
      "t": 35204.05874999986,
      "d": 8.503395833329705,
      "v": 64
    },
    {
      "midi": 70,
      "hit": false,
      "t": 35306.09949999985,
      "d": 8.503395833329705,
      "v": 78
    },
    {
      "midi": 46,
      "hit": false,
      "t": 35306.09949999985,
      "d": 8.503395833329705,
      "v": 59
    },
    {
      "midi": 81,
      "hit": false,
      "t": 35306.09949999989,
      "d": 25.51018749999639,
      "v": 88
    },
    {
      "midi": 35,
      "hit": false,
      "t": 35306.09949999998,
      "d": 170.06791666666686,
      "v": 101
    },
    {
      "midi": 64,
      "hit": false,
      "t": 35306.09949999999,
      "d": 204.08150000000023,
      "v": 122
    },
    {
      "midi": 70,
      "hit": false,
      "t": 35408.140249999844,
      "d": 8.503395833329705,
      "v": 50
    },
    {
      "midi": 27,
      "hit": false,
      "t": 35408.140249999844,
      "d": 8.503395833329705,
      "v": 36
    },
    {
      "midi": 81,
      "hit": false,
      "t": 35408.14024999988,
      "d": 25.51018749999639,
      "v": 88
    },
    {
      "midi": 36,
      "hit": false,
      "t": 35510.18099999984,
      "d": 8.503395833329705,
      "v": 114
    },
    {
      "midi": 70,
      "hit": false,
      "t": 35510.18099999984,
      "d": 8.503395833329705,
      "v": 78
    },
    {
      "midi": 38,
      "hit": false,
      "t": 35510.18099999984,
      "d": 8.503395833329705,
      "v": 103
    },
    {
      "midi": 42,
      "hit": false,
      "t": 35510.18099999984,
      "d": 8.503395833329705,
      "v": 54
    },
    {
      "midi": 33,
      "hit": false,
      "t": 35510.18099999998,
      "d": 93.53735416666314,
      "v": 106
    },
    {
      "midi": 62,
      "hit": false,
      "t": 35510.18099999999,
      "d": 195.57810416666325,
      "v": 117
    },
    {
      "midi": 69,
      "hit": false,
      "t": 35510.18100000002,
      "d": 399.6596041666562,
      "v": 106
    },
    {
      "midi": 66,
      "hit": false,
      "t": 35510.18100000002,
      "d": 408.1629999999859,
      "v": 87
    },
    {
      "midi": 62,
      "hit": false,
      "t": 35510.18100000002,
      "d": 408.1629999999859,
      "v": 84
    },
    {
      "midi": 42,
      "hit": false,
      "t": 35612.22174999983,
      "d": 8.503395833329705,
      "v": 54
    },
    {
      "midi": 70,
      "hit": false,
      "t": 35612.22174999983,
      "d": 8.503395833329705,
      "v": 50
    },
    {
      "midi": 27,
      "hit": false,
      "t": 35612.22174999983,
      "d": 8.503395833329705,
      "v": 36
    },
    {
      "midi": 83,
      "hit": false,
      "t": 35612.22174999987,
      "d": 25.51018749999639,
      "v": 88
    },
    {
      "midi": 35,
      "hit": false,
      "t": 35612.221749999975,
      "d": 68.02716666666674,
      "v": 101
    },
    {
      "midi": 70,
      "hit": false,
      "t": 35714.26249999982,
      "d": 8.503395833329705,
      "v": 78
    },
    {
      "midi": 46,
      "hit": false,
      "t": 35714.26249999982,
      "d": 8.503395833329705,
      "v": 59
    },
    {
      "midi": 27,
      "hit": false,
      "t": 35714.26249999982,
      "d": 8.503395833329705,
      "v": 36
    },
    {
      "midi": 61,
      "hit": false,
      "t": 35714.26249999998,
      "d": 1156.46183333332,
      "v": 112
    },
    {
      "midi": 70,
      "hit": false,
      "t": 35816.303249999815,
      "d": 8.503395833329705,
      "v": 50
    },
    {
      "midi": 27,
      "hit": false,
      "t": 35816.303249999815,
      "d": 8.503395833329705,
      "v": 36
    },
    {
      "midi": 81,
      "hit": false,
      "t": 35816.303249999866,
      "d": 25.51018749999639,
      "v": 88
    },
    {
      "midi": 47,
      "hit": false,
      "t": 35816.303249999975,
      "d": 85.03395833333343,
      "v": 96
    },
    {
      "midi": 70,
      "hit": false,
      "t": 35918.34399999981,
      "d": 8.503395833329705,
      "v": 78
    },
    {
      "midi": 36,
      "hit": false,
      "t": 35918.34399999981,
      "d": 8.503395833329705,
      "v": 114
    },
    {
      "midi": 42,
      "hit": false,
      "t": 35918.34399999981,
      "d": 8.503395833329705,
      "v": 54
    },
    {
      "midi": 81,
      "hit": false,
      "t": 35918.34399999986,
      "d": 25.51018749999639,
      "v": 88
    },
    {
      "midi": 33,
      "hit": false,
      "t": 35918.343999999975,
      "d": 195.57810416666325,
      "v": 101
    },
    {
      "midi": 71,
      "hit": false,
      "t": 35918.344000000005,
      "d": 918.366750000001,
      "v": 127
    },
    {
      "midi": 68,
      "hit": false,
      "t": 35918.344000000005,
      "d": 1428.5705000000016,
      "v": 106
    },
    {
      "midi": 64,
      "hit": false,
      "t": 35918.344000000005,
      "d": 1428.5705000000016,
      "v": 87
    },
    {
      "midi": 61,
      "hit": false,
      "t": 35918.344000000005,
      "d": 1428.5705000000016,
      "v": 84
    },
    {
      "midi": 52,
      "hit": false,
      "t": 35918.34400000003,
      "d": 1547.6180416666684,
      "v": 104
    },
    {
      "midi": 56,
      "hit": false,
      "t": 35918.34400000003,
      "d": 1547.6180416666684,
      "v": 104
    },
    {
      "midi": 61,
      "hit": false,
      "t": 35918.34400000003,
      "d": 1547.6180416666684,
      "v": 104
    },
    {
      "midi": 42,
      "hit": false,
      "t": 36020.3847499998,
      "d": 8.503395833329705,
      "v": 54
    },
    {
      "midi": 70,
      "hit": false,
      "t": 36020.3847499998,
      "d": 8.503395833329705,
      "v": 50
    },
    {
      "midi": 70,
      "hit": false,
      "t": 36122.425499999794,
      "d": 8.503395833329705,
      "v": 78
    },
    {
      "midi": 46,
      "hit": false,
      "t": 36122.425499999794,
      "d": 8.503395833329705,
      "v": 59
    },
    {
      "midi": 85,
      "hit": false,
      "t": 36122.42549999985,
      "d": 25.51018749999639,
      "v": 88
    },
    {
      "midi": 45,
      "hit": false,
      "t": 36122.42549999997,
      "d": 59.52377083332976,
      "v": 101
    },
    {
      "midi": 70,
      "hit": false,
      "t": 36224.46624999979,
      "d": 8.503395833329705,
      "v": 50
    },
    {
      "midi": 81,
      "hit": false,
      "t": 36224.466249999845,
      "d": 25.51018749999639,
      "v": 88
    },
    {
      "midi": 70,
      "hit": false,
      "t": 36326.50699999978,
      "d": 8.503395833329705,
      "v": 78
    },
    {
      "midi": 36,
      "hit": false,
      "t": 36326.50699999978,
      "d": 8.503395833329705,
      "v": 114
    },
    {
      "midi": 38,
      "hit": false,
      "t": 36326.50699999978,
      "d": 8.503395833329705,
      "v": 103
    },
    {
      "midi": 42,
      "hit": false,
      "t": 36326.50699999978,
      "d": 8.503395833329705,
      "v": 54
    },
    {
      "midi": 33,
      "hit": false,
      "t": 36326.50699999996,
      "d": 195.57810416666325,
      "v": 101
    },
    {
      "midi": 42,
      "hit": false,
      "t": 36428.54774999977,
      "d": 8.503395833329705,
      "v": 54
    },
    {
      "midi": 70,
      "hit": false,
      "t": 36428.54774999977,
      "d": 8.503395833329705,
      "v": 50
    },
    {
      "midi": 83,
      "hit": false,
      "t": 36428.54774999984,
      "d": 25.51018749999639,
      "v": 88
    },
    {
      "midi": 70,
      "hit": false,
      "t": 36530.588499999765,
      "d": 8.503395833329705,
      "v": 78
    },
    {
      "midi": 46,
      "hit": false,
      "t": 36530.588499999765,
      "d": 8.503395833329705,
      "v": 59
    },
    {
      "midi": 27,
      "hit": false,
      "t": 36530.588499999765,
      "d": 8.503395833329705,
      "v": 64
    },
    {
      "midi": 81,
      "hit": false,
      "t": 36530.58849999983,
      "d": 25.51018749999639,
      "v": 88
    },
    {
      "midi": 70,
      "hit": false,
      "t": 36632.62924999976,
      "d": 8.503395833329705,
      "v": 50
    },
    {
      "midi": 27,
      "hit": false,
      "t": 36632.62924999976,
      "d": 8.503395833329705,
      "v": 64
    },
    {
      "midi": 81,
      "hit": false,
      "t": 36632.62924999982,
      "d": 25.51018749999639,
      "v": 88
    },
    {
      "midi": 32,
      "hit": false,
      "t": 36632.629249999954,
      "d": 170.06791666666686,
      "v": 101
    },
    {
      "midi": 36,
      "hit": false,
      "t": 36734.66999999975,
      "d": 8.503395833329705,
      "v": 114
    },
    {
      "midi": 70,
      "hit": false,
      "t": 36734.66999999975,
      "d": 8.503395833329705,
      "v": 78
    },
    {
      "midi": 42,
      "hit": false,
      "t": 36734.66999999975,
      "d": 8.503395833329705,
      "v": 54
    },
    {
      "midi": 88,
      "hit": false,
      "t": 36734.669999999816,
      "d": 25.51018749999639,
      "v": 88
    },
    {
      "midi": 70,
      "hit": false,
      "t": 36836.710749999744,
      "d": 8.503395833329705,
      "v": 50
    },
    {
      "midi": 42,
      "hit": false,
      "t": 36836.710749999744,
      "d": 8.503395833329705,
      "v": 54
    },
    {
      "midi": 27,
      "hit": false,
      "t": 36836.710749999744,
      "d": 8.503395833329705,
      "v": 64
    },
    {
      "midi": 68,
      "hit": false,
      "t": 36836.710750000006,
      "d": 714.2852500000008,
      "v": 127
    },
    {
      "midi": 70,
      "hit": false,
      "t": 36938.75149999974,
      "d": 8.503395833329705,
      "v": 78
    },
    {
      "midi": 46,
      "hit": false,
      "t": 36938.75149999974,
      "d": 8.503395833329705,
      "v": 59
    },
    {
      "midi": 27,
      "hit": false,
      "t": 36938.75149999974,
      "d": 8.503395833329705,
      "v": 36
    },
    {
      "midi": 81,
      "hit": false,
      "t": 36938.75149999981,
      "d": 25.51018749999639,
      "v": 88
    },
    {
      "midi": 33,
      "hit": false,
      "t": 36938.751499999955,
      "d": 170.06791666666686,
      "v": 101
    },
    {
      "midi": 70,
      "hit": false,
      "t": 37040.79224999973,
      "d": 8.503395833329705,
      "v": 50
    },
    {
      "midi": 27,
      "hit": false,
      "t": 37040.79224999973,
      "d": 8.503395833329705,
      "v": 64
    },
    {
      "midi": 81,
      "hit": false,
      "t": 37040.7922499998,
      "d": 25.51018749999639,
      "v": 88
    },
    {
      "midi": 36,
      "hit": false,
      "t": 37142.83299999972,
      "d": 8.503395833329705,
      "v": 114
    },
    {
      "midi": 70,
      "hit": false,
      "t": 37142.83299999972,
      "d": 8.503395833329705,
      "v": 78
    },
    {
      "midi": 38,
      "hit": false,
      "t": 37142.83299999972,
      "d": 8.503395833329705,
      "v": 103
    },
    {
      "midi": 42,
      "hit": false,
      "t": 37142.83299999972,
      "d": 8.503395833329705,
      "v": 54
    },
    {
      "midi": 32,
      "hit": false,
      "t": 37142.832999999955,
      "d": 93.53735416666314,
      "v": 106
    },
    {
      "midi": 70,
      "hit": false,
      "t": 37244.873749999715,
      "d": 8.503395833329705,
      "v": 50
    },
    {
      "midi": 42,
      "hit": false,
      "t": 37244.873749999715,
      "d": 8.503395833329705,
      "v": 54
    },
    {
      "midi": 27,
      "hit": false,
      "t": 37244.873749999715,
      "d": 8.503395833329705,
      "v": 64
    },
    {
      "midi": 83,
      "hit": false,
      "t": 37244.873749999795,
      "d": 25.51018749999639,
      "v": 88
    },
    {
      "midi": 33,
      "hit": false,
      "t": 37244.87374999995,
      "d": 68.02716666666674,
      "v": 101
    },
    {
      "midi": 70,
      "hit": false,
      "t": 37346.91449999971,
      "d": 8.503395833329705,
      "v": 78
    },
    {
      "midi": 36,
      "hit": false,
      "t": 37346.91449999971,
      "d": 8.503395833329705,
      "v": 114
    },
    {
      "midi": 46,
      "hit": false,
      "t": 37346.91449999971,
      "d": 8.503395833329705,
      "v": 59
    },
    {
      "midi": 70,
      "hit": false,
      "t": 37448.9552499997,
      "d": 8.503395833329705,
      "v": 50
    },
    {
      "midi": 81,
      "hit": false,
      "t": 37448.95524999979,
      "d": 25.51018749999639,
      "v": 88
    },
    {
      "midi": 45,
      "hit": false,
      "t": 37448.95524999995,
      "d": 85.03395833333343,
      "v": 96
    },
    {
      "midi": 36,
      "hit": false,
      "t": 37550.99599999969,
      "d": 8.503395833329705,
      "v": 114
    },
    {
      "midi": 70,
      "hit": false,
      "t": 37550.99599999969,
      "d": 8.503395833329705,
      "v": 78
    },
    {
      "midi": 42,
      "hit": false,
      "t": 37550.99599999969,
      "d": 8.503395833329705,
      "v": 54
    },
    {
      "midi": 81,
      "hit": false,
      "t": 37550.99599999978,
      "d": 25.51018749999639,
      "v": 88
    },
    {
      "midi": 38,
      "hit": false,
      "t": 37550.99599999995,
      "d": 195.57810416666325,
      "v": 101
    },
    {
      "midi": 54,
      "hit": false,
      "t": 37550.99599999997,
      "d": 391.1562083333338,
      "v": 124
    },
    {
      "midi": 69,
      "hit": false,
      "t": 37550.99600000001,
      "d": 2857.1410000000033,
      "v": 117
    },
    {
      "midi": 54,
      "hit": false,
      "t": 37550.99600000003,
      "d": 1547.6180416666684,
      "v": 104
    },
    {
      "midi": 57,
      "hit": false,
      "t": 37550.99600000003,
      "d": 1547.6180416666684,
      "v": 104
    },
    {
      "midi": 61,
      "hit": false,
      "t": 37550.99600000003,
      "d": 1547.6180416666684,
      "v": 104
    },
    {
      "midi": 42,
      "hit": false,
      "t": 37653.03674999969,
      "d": 8.503395833329705,
      "v": 54
    },
    {
      "midi": 70,
      "hit": false,
      "t": 37653.03674999969,
      "d": 8.503395833329705,
      "v": 50
    },
    {
      "midi": 27,
      "hit": false,
      "t": 37653.03674999969,
      "d": 8.503395833329705,
      "v": 64
    },
    {
      "midi": 70,
      "hit": false,
      "t": 37755.07749999968,
      "d": 8.503395833329705,
      "v": 78
    },
    {
      "midi": 46,
      "hit": false,
      "t": 37755.07749999968,
      "d": 8.503395833329705,
      "v": 59
    },
    {
      "midi": 85,
      "hit": false,
      "t": 37755.077499999774,
      "d": 25.51018749999639,
      "v": 88
    },
    {
      "midi": 50,
      "hit": false,
      "t": 37755.07749999994,
      "d": 59.52377083332976,
      "v": 101
    },
    {
      "midi": 70,
      "hit": false,
      "t": 37857.11824999967,
      "d": 8.503395833329705,
      "v": 50
    },
    {
      "midi": 27,
      "hit": false,
      "t": 37857.11824999967,
      "d": 8.503395833329705,
      "v": 50
    },
    {
      "midi": 81,
      "hit": false,
      "t": 37857.11824999977,
      "d": 25.51018749999639,
      "v": 88
    },
    {
      "midi": 70,
      "hit": false,
      "t": 37959.158999999665,
      "d": 8.503395833329705,
      "v": 78
    },
    {
      "midi": 36,
      "hit": false,
      "t": 37959.158999999665,
      "d": 8.503395833329705,
      "v": 114
    },
    {
      "midi": 38,
      "hit": false,
      "t": 37959.158999999665,
      "d": 8.503395833329705,
      "v": 103
    },
    {
      "midi": 42,
      "hit": false,
      "t": 37959.158999999665,
      "d": 8.503395833329705,
      "v": 54
    },
    {
      "midi": 38,
      "hit": false,
      "t": 37959.158999999934,
      "d": 195.57810416666325,
      "v": 101
    },
    {
      "midi": 56,
      "hit": false,
      "t": 37959.15899999997,
      "d": 204.08150000000023,
      "v": 124
    },
    {
      "midi": 42,
      "hit": false,
      "t": 38061.19974999966,
      "d": 8.503395833329705,
      "v": 54
    },
    {
      "midi": 70,
      "hit": false,
      "t": 38061.19974999966,
      "d": 8.503395833329705,
      "v": 50
    },
    {
      "midi": 27,
      "hit": false,
      "t": 38061.19974999966,
      "d": 8.503395833329705,
      "v": 64
    },
    {
      "midi": 83,
      "hit": false,
      "t": 38061.19974999976,
      "d": 25.51018749999639,
      "v": 88
    },
    {
      "midi": 46,
      "hit": false,
      "t": 38163.24049999965,
      "d": 8.503395833329705,
      "v": 59
    },
    {
      "midi": 70,
      "hit": false,
      "t": 38163.24049999965,
      "d": 8.503395833329705,
      "v": 78
    },
    {
      "midi": 27,
      "hit": false,
      "t": 38163.24049999965,
      "d": 8.503395833329705,
      "v": 36
    },
    {
      "midi": 81,
      "hit": false,
      "t": 38163.24049999975,
      "d": 25.51018749999639,
      "v": 88
    },
    {
      "midi": 57,
      "hit": false,
      "t": 38163.24049999997,
      "d": 510.2037500000006,
      "v": 118
    },
    {
      "midi": 70,
      "hit": false,
      "t": 38265.28124999964,
      "d": 8.503395833329705,
      "v": 50
    },
    {
      "midi": 27,
      "hit": false,
      "t": 38265.28124999964,
      "d": 8.503395833329705,
      "v": 36
    },
    {
      "midi": 81,
      "hit": false,
      "t": 38265.281249999745,
      "d": 25.51018749999639,
      "v": 88
    },
    {
      "midi": 37,
      "hit": false,
      "t": 38265.28124999993,
      "d": 170.06791666666686,
      "v": 101
    },
    {
      "midi": 70,
      "hit": false,
      "t": 38367.321999999636,
      "d": 8.503395833329705,
      "v": 78
    },
    {
      "midi": 36,
      "hit": false,
      "t": 38367.321999999636,
      "d": 8.503395833329705,
      "v": 114
    },
    {
      "midi": 42,
      "hit": false,
      "t": 38367.321999999636,
      "d": 8.503395833329705,
      "v": 54
    },
    {
      "midi": 88,
      "hit": false,
      "t": 38367.32199999974,
      "d": 25.51018749999639,
      "v": 88
    },
    {
      "midi": 42,
      "hit": false,
      "t": 38469.36274999963,
      "d": 8.503395833329705,
      "v": 54
    },
    {
      "midi": 70,
      "hit": false,
      "t": 38469.36274999963,
      "d": 8.503395833329705,
      "v": 50
    },
    {
      "midi": 27,
      "hit": false,
      "t": 38469.36274999963,
      "d": 8.503395833329705,
      "v": 64
    },
    {
      "midi": 70,
      "hit": false,
      "t": 38571.40349999962,
      "d": 8.503395833329705,
      "v": 78
    },
    {
      "midi": 46,
      "hit": false,
      "t": 38571.40349999962,
      "d": 8.503395833329705,
      "v": 59
    },
    {
      "midi": 81,
      "hit": false,
      "t": 38571.40349999973,
      "d": 25.51018749999639,
      "v": 88
    },
    {
      "midi": 38,
      "hit": false,
      "t": 38571.40349999993,
      "d": 170.06791666666686,
      "v": 101
    },
    {
      "midi": 66,
      "hit": false,
      "t": 38571.40350000001,
      "d": 204.08150000000023,
      "v": 100
    },
    {
      "midi": 62,
      "hit": false,
      "t": 38571.40350000001,
      "d": 204.08150000000023,
      "v": 81
    },
    {
      "midi": 66,
      "hit": false,
      "t": 38571.403500000015,
      "d": 204.08150000000023,
      "v": 127
    },
    {
      "midi": 70,
      "hit": false,
      "t": 38673.444249999615,
      "d": 8.503395833329705,
      "v": 50
    },
    {
      "midi": 27,
      "hit": false,
      "t": 38673.444249999615,
      "d": 8.503395833329705,
      "v": 50
    },
    {
      "midi": 81,
      "hit": false,
      "t": 38673.444249999724,
      "d": 25.51018749999639,
      "v": 88
    },
    {
      "midi": 36,
      "hit": false,
      "t": 38775.48499999961,
      "d": 8.503395833329705,
      "v": 114
    },
    {
      "midi": 70,
      "hit": false,
      "t": 38775.48499999961,
      "d": 8.503395833329705,
      "v": 78
    },
    {
      "midi": 38,
      "hit": false,
      "t": 38775.48499999961,
      "d": 8.503395833329705,
      "v": 103
    },
    {
      "midi": 42,
      "hit": false,
      "t": 38775.48499999961,
      "d": 8.503395833329705,
      "v": 54
    },
    {
      "midi": 37,
      "hit": false,
      "t": 38775.48499999993,
      "d": 93.53735416666314,
      "v": 106
    },
    {
      "midi": 57,
      "hit": false,
      "t": 38775.48499999997,
      "d": 204.08150000000023,
      "v": 118
    },
    {
      "midi": 68,
      "hit": false,
      "t": 38775.48500000001,
      "d": 102.04075000000012,
      "v": 100
    },
    {
      "midi": 62,
      "hit": false,
      "t": 38775.48500000001,
      "d": 102.04075000000012,
      "v": 81
    },
    {
      "midi": 68,
      "hit": false,
      "t": 38775.485000000015,
      "d": 76.53056249999645,
      "v": 127
    },
    {
      "midi": 42,
      "hit": false,
      "t": 38877.5257499996,
      "d": 8.503395833329705,
      "v": 54
    },
    {
      "midi": 70,
      "hit": false,
      "t": 38877.5257499996,
      "d": 8.503395833329705,
      "v": 50
    },
    {
      "midi": 83,
      "hit": false,
      "t": 38877.52574999972,
      "d": 25.51018749999639,
      "v": 88
    },
    {
      "midi": 38,
      "hit": false,
      "t": 38877.52574999992,
      "d": 68.02716666666674,
      "v": 101
    },
    {
      "midi": 70,
      "hit": false,
      "t": 38979.56649999959,
      "d": 8.503395833329705,
      "v": 78
    },
    {
      "midi": 46,
      "hit": false,
      "t": 38979.56649999959,
      "d": 8.503395833329705,
      "v": 59
    },
    {
      "midi": 52,
      "hit": false,
      "t": 38979.56649999997,
      "d": 595.237708333334,
      "v": 123
    },
    {
      "midi": 69,
      "hit": false,
      "t": 38979.56650000001,
      "d": 518.7071458333303,
      "v": 127
    },
    {
      "midi": 69,
      "hit": false,
      "t": 38979.56650000001,
      "d": 1513.604458333335,
      "v": 111
    },
    {
      "midi": 59,
      "hit": false,
      "t": 38979.56650000001,
      "d": 1522.1078541666648,
      "v": 87
    },
    {
      "midi": 64,
      "hit": false,
      "t": 38979.566500000015,
      "d": 3469.385499999982,
      "v": 121
    },
    {
      "midi": 70,
      "hit": false,
      "t": 39081.607249999586,
      "d": 8.503395833329705,
      "v": 50
    },
    {
      "midi": 81,
      "hit": false,
      "t": 39081.60724999971,
      "d": 25.51018749999639,
      "v": 88
    },
    {
      "midi": 50,
      "hit": false,
      "t": 39081.60724999992,
      "d": 85.03395833333343,
      "v": 96
    },
    {
      "midi": 70,
      "hit": false,
      "t": 39183.64799999958,
      "d": 8.503395833329705,
      "v": 78
    },
    {
      "midi": 36,
      "hit": false,
      "t": 39183.64799999958,
      "d": 8.503395833329705,
      "v": 114
    },
    {
      "midi": 42,
      "hit": false,
      "t": 39183.64799999958,
      "d": 8.503395833329705,
      "v": 54
    },
    {
      "midi": 83,
      "hit": false,
      "t": 39183.6479999997,
      "d": 25.51018749999639,
      "v": 88
    },
    {
      "midi": 37,
      "hit": false,
      "t": 39183.64799999992,
      "d": 195.57810416666325,
      "v": 101
    },
    {
      "midi": 52,
      "hit": false,
      "t": 39183.64800000003,
      "d": 1547.6180416666684,
      "v": 104
    },
    {
      "midi": 57,
      "hit": false,
      "t": 39183.64800000003,
      "d": 1547.6180416666684,
      "v": 104
    },
    {
      "midi": 61,
      "hit": false,
      "t": 39183.64800000003,
      "d": 1547.6180416666684,
      "v": 104
    },
    {
      "midi": 42,
      "hit": false,
      "t": 39285.68874999957,
      "d": 8.503395833329705,
      "v": 54
    },
    {
      "midi": 70,
      "hit": false,
      "t": 39285.68874999957,
      "d": 8.503395833329705,
      "v": 50
    },
    {
      "midi": 70,
      "hit": false,
      "t": 39387.729499999565,
      "d": 8.503395833329705,
      "v": 78
    },
    {
      "midi": 46,
      "hit": false,
      "t": 39387.729499999565,
      "d": 8.503395833329705,
      "v": 59
    },
    {
      "midi": 85,
      "hit": false,
      "t": 39387.729499999696,
      "d": 25.51018749999639,
      "v": 88
    },
    {
      "midi": 49,
      "hit": false,
      "t": 39387.729499999914,
      "d": 59.52377083332976,
      "v": 101
    },
    {
      "midi": 70,
      "hit": false,
      "t": 39489.77024999956,
      "d": 8.503395833329705,
      "v": 50
    },
    {
      "midi": 81,
      "hit": false,
      "t": 39489.77024999969,
      "d": 25.51018749999639,
      "v": 88
    },
    {
      "midi": 70,
      "hit": false,
      "t": 39591.81099999955,
      "d": 8.503395833329705,
      "v": 78
    },
    {
      "midi": 36,
      "hit": false,
      "t": 39591.81099999955,
      "d": 8.503395833329705,
      "v": 114
    },
    {
      "midi": 38,
      "hit": false,
      "t": 39591.81099999955,
      "d": 8.503395833329705,
      "v": 103
    },
    {
      "midi": 42,
      "hit": false,
      "t": 39591.81099999955,
      "d": 8.503395833329705,
      "v": 54
    },
    {
      "midi": 37,
      "hit": false,
      "t": 39591.81099999991,
      "d": 195.57810416666325,
      "v": 101
    },
    {
      "midi": 56,
      "hit": false,
      "t": 39591.81099999997,
      "d": 204.08150000000023,
      "v": 127
    },
    {
      "midi": 42,
      "hit": false,
      "t": 39693.85174999954,
      "d": 8.503395833329705,
      "v": 54
    },
    {
      "midi": 70,
      "hit": false,
      "t": 39693.85174999954,
      "d": 8.503395833329705,
      "v": 50
    },
    {
      "midi": 83,
      "hit": false,
      "t": 39693.85174999968,
      "d": 25.51018749999639,
      "v": 88
    },
    {
      "midi": 70,
      "hit": false,
      "t": 39795.892499999536,
      "d": 8.503395833329705,
      "v": 78
    },
    {
      "midi": 46,
      "hit": false,
      "t": 39795.892499999536,
      "d": 8.503395833329705,
      "v": 59
    },
    {
      "midi": 27,
      "hit": false,
      "t": 39795.892499999536,
      "d": 8.503395833329705,
      "v": 64
    },
    {
      "midi": 83,
      "hit": false,
      "t": 39795.892499999674,
      "d": 25.51018749999639,
      "v": 88
    },
    {
      "midi": 57,
      "hit": false,
      "t": 39795.89249999997,
      "d": 646.2580833333341,
      "v": 123
    },
    {
      "midi": 70,
      "hit": false,
      "t": 39897.93324999953,
      "d": 8.503395833329705,
      "v": 50
    },
    {
      "midi": 27,
      "hit": false,
      "t": 39897.93324999953,
      "d": 8.503395833329705,
      "v": 64
    },
    {
      "midi": 81,
      "hit": false,
      "t": 39897.93324999967,
      "d": 25.51018749999639,
      "v": 88
    },
    {
      "midi": 35,
      "hit": false,
      "t": 39897.9332499999,
      "d": 170.06791666666686,
      "v": 101
    },
    {
      "midi": 36,
      "hit": false,
      "t": 39999.97399999952,
      "d": 8.503395833329705,
      "v": 114
    },
    {
      "midi": 70,
      "hit": false,
      "t": 39999.97399999952,
      "d": 8.503395833329705,
      "v": 78
    },
    {
      "midi": 42,
      "hit": false,
      "t": 39999.97399999952,
      "d": 8.503395833329705,
      "v": 54
    },
    {
      "midi": 88,
      "hit": false,
      "t": 39999.97399999966,
      "d": 25.51018749999639,
      "v": 88
    },
    {
      "midi": 70,
      "hit": false,
      "t": 40102.014749999515,
      "d": 8.503395833329705,
      "v": 50
    },
    {
      "midi": 42,
      "hit": false,
      "t": 40102.014749999515,
      "d": 8.503395833329705,
      "v": 54
    },
    {
      "midi": 27,
      "hit": false,
      "t": 40102.014749999515,
      "d": 8.503395833329705,
      "v": 64
    },
    {
      "midi": 70,
      "hit": false,
      "t": 40204.05549999951,
      "d": 8.503395833329705,
      "v": 78
    },
    {
      "midi": 46,
      "hit": false,
      "t": 40204.05549999951,
      "d": 8.503395833329705,
      "v": 59
    },
    {
      "midi": 27,
      "hit": false,
      "t": 40204.05549999951,
      "d": 8.503395833329705,
      "v": 36
    },
    {
      "midi": 81,
      "hit": false,
      "t": 40204.05549999965,
      "d": 25.51018749999639,
      "v": 88
    },
    {
      "midi": 37,
      "hit": false,
      "t": 40204.0554999999,
      "d": 170.06791666666686,
      "v": 101
    },
    {
      "midi": 73,
      "hit": false,
      "t": 40204.0555,
      "d": 204.08150000000023,
      "v": 124
    },
    {
      "midi": 70,
      "hit": false,
      "t": 40306.0962499995,
      "d": 8.503395833329705,
      "v": 50
    },
    {
      "midi": 27,
      "hit": false,
      "t": 40306.0962499995,
      "d": 8.503395833329705,
      "v": 64
    },
    {
      "midi": 81,
      "hit": false,
      "t": 40306.096249999646,
      "d": 25.51018749999639,
      "v": 88
    },
    {
      "midi": 36,
      "hit": false,
      "t": 40408.13699999949,
      "d": 8.503395833329705,
      "v": 114
    },
    {
      "midi": 70,
      "hit": false,
      "t": 40408.13699999949,
      "d": 8.503395833329705,
      "v": 78
    },
    {
      "midi": 38,
      "hit": false,
      "t": 40408.13699999949,
      "d": 8.503395833329705,
      "v": 103
    },
    {
      "midi": 42,
      "hit": false,
      "t": 40408.13699999949,
      "d": 8.503395833329705,
      "v": 54
    },
    {
      "midi": 35,
      "hit": false,
      "t": 40408.1369999999,
      "d": 93.53735416666314,
      "v": 106
    },
    {
      "midi": 74,
      "hit": false,
      "t": 40408.137,
      "d": 76.53056249999645,
      "v": 124
    },
    {
      "midi": 71,
      "hit": false,
      "t": 40408.13700000001,
      "d": 408.16300000000047,
      "v": 127
    },
    {
      "midi": 70,
      "hit": false,
      "t": 40510.177749999486,
      "d": 8.503395833329705,
      "v": 50
    },
    {
      "midi": 42,
      "hit": false,
      "t": 40510.177749999486,
      "d": 8.503395833329705,
      "v": 54
    },
    {
      "midi": 27,
      "hit": false,
      "t": 40510.177749999486,
      "d": 8.503395833329705,
      "v": 64
    },
    {
      "midi": 83,
      "hit": false,
      "t": 40510.17774999964,
      "d": 25.51018749999639,
      "v": 88
    },
    {
      "midi": 37,
      "hit": false,
      "t": 40510.17774999989,
      "d": 68.02716666666674,
      "v": 101
    },
    {
      "midi": 70,
      "hit": false,
      "t": 40612.21849999948,
      "d": 8.503395833329705,
      "v": 78
    },
    {
      "midi": 36,
      "hit": false,
      "t": 40612.21849999948,
      "d": 8.503395833329705,
      "v": 114
    },
    {
      "midi": 46,
      "hit": false,
      "t": 40612.21849999948,
      "d": 8.503395833329705,
      "v": 59
    },
    {
      "midi": 76,
      "hit": false,
      "t": 40612.218499999995,
      "d": 1836.733499999973,
      "v": 124
    },
    {
      "midi": 70,
      "hit": false,
      "t": 40714.25924999947,
      "d": 8.503395833329705,
      "v": 50
    },
    {
      "midi": 81,
      "hit": false,
      "t": 40714.25924999963,
      "d": 25.51018749999639,
      "v": 88
    },
    {
      "midi": 49,
      "hit": false,
      "t": 40714.259249999894,
      "d": 85.03395833333343,
      "v": 96
    },
    {
      "midi": 36,
      "hit": false,
      "t": 40816.299999999464,
      "d": 8.503395833329705,
      "v": 114
    },
    {
      "midi": 70,
      "hit": false,
      "t": 40816.299999999464,
      "d": 8.503395833329705,
      "v": 78
    },
    {
      "midi": 42,
      "hit": false,
      "t": 40816.299999999464,
      "d": 8.503395833329705,
      "v": 54
    },
    {
      "midi": 83,
      "hit": false,
      "t": 40816.299999999625,
      "d": 25.51018749999639,
      "v": 88
    },
    {
      "midi": 35,
      "hit": false,
      "t": 40816.299999999894,
      "d": 195.57810416666325,
      "v": 101
    },
    {
      "midi": 54,
      "hit": false,
      "t": 40816.299999999974,
      "d": 391.1562083333338,
      "v": 125
    },
    {
      "midi": 73,
      "hit": false,
      "t": 40816.30000000001,
      "d": 1632.6520000000019,
      "v": 127
    },
    {
      "midi": 47,
      "hit": false,
      "t": 40816.30000000003,
      "d": 1547.6180416666684,
      "v": 104
    },
    {
      "midi": 50,
      "hit": false,
      "t": 40816.30000000003,
      "d": 1547.6180416666684,
      "v": 104
    },
    {
      "midi": 57,
      "hit": false,
      "t": 40816.30000000003,
      "d": 1547.6180416666684,
      "v": 104
    },
    {
      "midi": 42,
      "hit": false,
      "t": 40918.34074999946,
      "d": 8.503395833329705,
      "v": 54
    },
    {
      "midi": 70,
      "hit": false,
      "t": 40918.34074999946,
      "d": 8.503395833329705,
      "v": 50
    },
    {
      "midi": 27,
      "hit": false,
      "t": 40918.34074999946,
      "d": 8.503395833329705,
      "v": 64
    },
    {
      "midi": 70,
      "hit": false,
      "t": 41020.38149999945,
      "d": 8.503395833329705,
      "v": 78
    },
    {
      "midi": 46,
      "hit": false,
      "t": 41020.38149999945,
      "d": 8.503395833329705,
      "v": 59
    },
    {
      "midi": 85,
      "hit": false,
      "t": 41020.38149999962,
      "d": 25.51018749999639,
      "v": 88
    },
    {
      "midi": 47,
      "hit": false,
      "t": 41020.38149999989,
      "d": 59.52377083332976,
      "v": 101
    },
    {
      "midi": 70,
      "hit": false,
      "t": 41122.42224999944,
      "d": 8.503395833329705,
      "v": 50
    },
    {
      "midi": 27,
      "hit": false,
      "t": 41122.42224999944,
      "d": 8.503395833329705,
      "v": 50
    },
    {
      "midi": 81,
      "hit": false,
      "t": 41122.42224999961,
      "d": 25.51018749999639,
      "v": 88
    },
    {
      "midi": 70,
      "hit": false,
      "t": 41224.462999999436,
      "d": 8.503395833329705,
      "v": 78
    },
    {
      "midi": 36,
      "hit": false,
      "t": 41224.462999999436,
      "d": 8.503395833329705,
      "v": 114
    },
    {
      "midi": 38,
      "hit": false,
      "t": 41224.462999999436,
      "d": 8.503395833329705,
      "v": 103
    },
    {
      "midi": 42,
      "hit": false,
      "t": 41224.462999999436,
      "d": 8.503395833329705,
      "v": 54
    },
    {
      "midi": 35,
      "hit": false,
      "t": 41224.46299999988,
      "d": 195.57810416666325,
      "v": 101
    },
    {
      "midi": 56,
      "hit": false,
      "t": 41224.462999999974,
      "d": 204.08150000000023,
      "v": 124
    },
    {
      "midi": 42,
      "hit": false,
      "t": 41326.50374999943,
      "d": 8.503395833329705,
      "v": 54
    },
    {
      "midi": 70,
      "hit": false,
      "t": 41326.50374999943,
      "d": 8.503395833329705,
      "v": 50
    },
    {
      "midi": 27,
      "hit": false,
      "t": 41326.50374999943,
      "d": 8.503395833329705,
      "v": 64
    },
    {
      "midi": 83,
      "hit": false,
      "t": 41326.5037499996,
      "d": 25.51018749999639,
      "v": 88
    },
    {
      "midi": 46,
      "hit": false,
      "t": 41428.54449999942,
      "d": 8.503395833329705,
      "v": 59
    },
    {
      "midi": 70,
      "hit": false,
      "t": 41428.54449999942,
      "d": 8.503395833329705,
      "v": 78
    },
    {
      "midi": 27,
      "hit": false,
      "t": 41428.54449999942,
      "d": 8.503395833329705,
      "v": 36
    },
    {
      "midi": 83,
      "hit": false,
      "t": 41428.544499999596,
      "d": 25.51018749999639,
      "v": 88
    },
    {
      "midi": 57,
      "hit": false,
      "t": 41428.544499999975,
      "d": 1037.4142916666679,
      "v": 118
    },
    {
      "midi": 70,
      "hit": false,
      "t": 41530.585249999414,
      "d": 8.503395833329705,
      "v": 50
    },
    {
      "midi": 27,
      "hit": false,
      "t": 41530.585249999414,
      "d": 8.503395833329705,
      "v": 36
    },
    {
      "midi": 81,
      "hit": false,
      "t": 41530.58524999959,
      "d": 25.51018749999639,
      "v": 88
    },
    {
      "midi": 33,
      "hit": false,
      "t": 41530.58524999987,
      "d": 212.58489583332994,
      "v": 106
    },
    {
      "midi": 70,
      "hit": false,
      "t": 41632.62599999941,
      "d": 8.503395833329705,
      "v": 78
    },
    {
      "midi": 36,
      "hit": false,
      "t": 41632.62599999941,
      "d": 8.503395833329705,
      "v": 114
    },
    {
      "midi": 42,
      "hit": false,
      "t": 41632.62599999941,
      "d": 8.503395833329705,
      "v": 54
    },
    {
      "midi": 88,
      "hit": false,
      "t": 41632.62599999958,
      "d": 25.51018749999639,
      "v": 88
    },
    {
      "midi": 78,
      "hit": false,
      "t": 41632.62600000002,
      "d": 127.55093749999651,
      "v": 127
    },
    {
      "midi": 42,
      "hit": false,
      "t": 41734.6667499994,
      "d": 8.503395833329705,
      "v": 54
    },
    {
      "midi": 70,
      "hit": false,
      "t": 41734.6667499994,
      "d": 8.503395833329705,
      "v": 50
    },
    {
      "midi": 27,
      "hit": false,
      "t": 41734.6667499994,
      "d": 8.503395833329705,
      "v": 64
    },
    {
      "midi": 70,
      "hit": false,
      "t": 41836.70749999939,
      "d": 8.503395833329705,
      "v": 78
    },
    {
      "midi": 46,
      "hit": false,
      "t": 41836.70749999939,
      "d": 8.503395833329705,
      "v": 59
    },
    {
      "midi": 81,
      "hit": false,
      "t": 41836.707499999575,
      "d": 25.51018749999639,
      "v": 88
    },
    {
      "midi": 35,
      "hit": false,
      "t": 41836.707499999866,
      "d": 187.07470833333355,
      "v": 106
    },
    {
      "midi": 70,
      "hit": false,
      "t": 41938.748249999386,
      "d": 8.503395833329705,
      "v": 50
    },
    {
      "midi": 27,
      "hit": false,
      "t": 41938.748249999386,
      "d": 8.503395833329705,
      "v": 50
    },
    {
      "midi": 81,
      "hit": false,
      "t": 41938.74824999957,
      "d": 25.51018749999639,
      "v": 88
    },
    {
      "midi": 36,
      "hit": false,
      "t": 42040.78899999938,
      "d": 8.503395833329705,
      "v": 114
    },
    {
      "midi": 70,
      "hit": false,
      "t": 42040.78899999938,
      "d": 8.503395833329705,
      "v": 78
    },
    {
      "midi": 38,
      "hit": false,
      "t": 42040.78899999938,
      "d": 8.503395833329705,
      "v": 103
    },
    {
      "midi": 42,
      "hit": false,
      "t": 42040.78899999938,
      "d": 8.503395833329705,
      "v": 54
    },
    {
      "midi": 33,
      "hit": false,
      "t": 42040.788999999866,
      "d": 93.53735416666314,
      "v": 106
    },
    {
      "midi": 85,
      "hit": false,
      "t": 42040.78900000001,
      "d": 127.55093749999651,
      "v": 127
    },
    {
      "midi": 42,
      "hit": false,
      "t": 42142.82974999937,
      "d": 8.503395833329705,
      "v": 54
    },
    {
      "midi": 70,
      "hit": false,
      "t": 42142.82974999937,
      "d": 8.503395833329705,
      "v": 50
    },
    {
      "midi": 27,
      "hit": false,
      "t": 42142.82974999937,
      "d": 8.503395833329705,
      "v": 36
    },
    {
      "midi": 83,
      "hit": false,
      "t": 42142.82974999956,
      "d": 25.51018749999639,
      "v": 88
    },
    {
      "midi": 35,
      "hit": false,
      "t": 42142.82974999986,
      "d": 68.02716666666674,
      "v": 101
    },
    {
      "midi": 70,
      "hit": false,
      "t": 42244.870499999364,
      "d": 8.503395833329705,
      "v": 78
    },
    {
      "midi": 46,
      "hit": false,
      "t": 42244.870499999364,
      "d": 8.503395833329705,
      "v": 59
    },
    {
      "midi": 27,
      "hit": false,
      "t": 42244.870499999364,
      "d": 8.503395833329705,
      "v": 36
    },
    {
      "midi": 70,
      "hit": false,
      "t": 42346.91124999936,
      "d": 8.503395833329705,
      "v": 50
    },
    {
      "midi": 27,
      "hit": false,
      "t": 42346.91124999936,
      "d": 8.503395833329705,
      "v": 36
    },
    {
      "midi": 81,
      "hit": false,
      "t": 42346.91124999955,
      "d": 25.51018749999639,
      "v": 88
    },
    {
      "midi": 47,
      "hit": false,
      "t": 42346.91124999986,
      "d": 85.03395833333343,
      "v": 96
    },
    {
      "midi": 70,
      "hit": false,
      "t": 42448.95199999935,
      "d": 8.503395833329705,
      "v": 78
    },
    {
      "midi": 36,
      "hit": false,
      "t": 42448.95199999935,
      "d": 8.503395833329705,
      "v": 114
    },
    {
      "midi": 42,
      "hit": false,
      "t": 42448.95199999935,
      "d": 8.503395833329705,
      "v": 54
    },
    {
      "midi": 81,
      "hit": false,
      "t": 42448.95199999955,
      "d": 25.51018749999639,
      "v": 88
    },
    {
      "midi": 31,
      "hit": false,
      "t": 42448.95199999986,
      "d": 195.57810416666325,
      "v": 101
    },
    {
      "midi": 71,
      "hit": false,
      "t": 42448.95199999997,
      "d": 136.0543333333335,
      "v": 66
    },
    {
      "midi": 74,
      "hit": false,
      "t": 42448.95199999997,
      "d": 136.0543333333335,
      "v": 86
    },
    {
      "midi": 62,
      "hit": false,
      "t": 42448.952,
      "d": 136.0543333333335,
      "v": 87
    },
    {
      "midi": 83,
      "hit": false,
      "t": 42448.952000000005,
      "d": 127.55093749999651,
      "v": 127
    },
    {
      "midi": 74,
      "hit": false,
      "t": 42448.95200000001,
      "d": 1632.6520000000019,
      "v": 127
    },
    {
      "midi": 50,
      "hit": false,
      "t": 42448.952000000034,
      "d": 1547.6180416666684,
      "v": 104
    },
    {
      "midi": 55,
      "hit": false,
      "t": 42448.952000000034,
      "d": 1547.6180416666684,
      "v": 104
    },
    {
      "midi": 59,
      "hit": false,
      "t": 42448.952000000034,
      "d": 1547.6180416666684,
      "v": 104
    },
    {
      "midi": 42,
      "hit": false,
      "t": 42550.99274999934,
      "d": 8.503395833329705,
      "v": 54
    },
    {
      "midi": 70,
      "hit": false,
      "t": 42550.99274999934,
      "d": 8.503395833329705,
      "v": 50
    },
    {
      "midi": 70,
      "hit": false,
      "t": 42653.033499999336,
      "d": 8.503395833329705,
      "v": 78
    },
    {
      "midi": 46,
      "hit": false,
      "t": 42653.033499999336,
      "d": 8.503395833329705,
      "v": 59
    },
    {
      "midi": 85,
      "hit": false,
      "t": 42653.03349999954,
      "d": 25.51018749999639,
      "v": 88
    },
    {
      "midi": 43,
      "hit": false,
      "t": 42653.03349999985,
      "d": 59.52377083332976,
      "v": 101
    },
    {
      "midi": 71,
      "hit": false,
      "t": 42653.03349999997,
      "d": 374.1494166666671,
      "v": 103
    },
    {
      "midi": 74,
      "hit": false,
      "t": 42653.03349999997,
      "d": 374.1494166666671,
      "v": 123
    },
    {
      "midi": 62,
      "hit": false,
      "t": 42653.0335,
      "d": 374.1494166666671,
      "v": 124
    },
    {
      "midi": 70,
      "hit": false,
      "t": 42755.07424999933,
      "d": 8.503395833329705,
      "v": 50
    },
    {
      "midi": 81,
      "hit": false,
      "t": 42755.07424999953,
      "d": 25.51018749999639,
      "v": 88
    },
    {
      "midi": 70,
      "hit": false,
      "t": 42857.11499999932,
      "d": 8.503395833329705,
      "v": 78
    },
    {
      "midi": 36,
      "hit": false,
      "t": 42857.11499999932,
      "d": 8.503395833329705,
      "v": 114
    },
    {
      "midi": 38,
      "hit": false,
      "t": 42857.11499999932,
      "d": 8.503395833329705,
      "v": 103
    },
    {
      "midi": 42,
      "hit": false,
      "t": 42857.11499999932,
      "d": 8.503395833329705,
      "v": 54
    },
    {
      "midi": 31,
      "hit": false,
      "t": 42857.114999999845,
      "d": 195.57810416666325,
      "v": 101
    },
    {
      "midi": 42,
      "hit": false,
      "t": 42959.155749999314,
      "d": 8.503395833329705,
      "v": 54
    },
    {
      "midi": 70,
      "hit": false,
      "t": 42959.155749999314,
      "d": 8.503395833329705,
      "v": 50
    },
    {
      "midi": 83,
      "hit": false,
      "t": 42959.155749999525,
      "d": 25.51018749999639,
      "v": 88
    },
    {
      "midi": 70,
      "hit": false,
      "t": 43061.19649999931,
      "d": 8.503395833329705,
      "v": 78
    },
    {
      "midi": 46,
      "hit": false,
      "t": 43061.19649999931,
      "d": 8.503395833329705,
      "v": 59
    },
    {
      "midi": 27,
      "hit": false,
      "t": 43061.19649999931,
      "d": 8.503395833329705,
      "v": 64
    },
    {
      "midi": 81,
      "hit": false,
      "t": 43061.19649999952,
      "d": 25.51018749999639,
      "v": 88
    },
    {
      "midi": 71,
      "hit": false,
      "t": 43061.19649999997,
      "d": 178.57131249999657,
      "v": 89
    },
    {
      "midi": 74,
      "hit": false,
      "t": 43061.19649999997,
      "d": 178.57131249999657,
      "v": 109
    },
    {
      "midi": 59,
      "hit": false,
      "t": 43061.19649999998,
      "d": 204.08149999998568,
      "v": 127
    },
    {
      "midi": 62,
      "hit": false,
      "t": 43061.1965,
      "d": 178.57131249999657,
      "v": 110
    },
    {
      "midi": 70,
      "hit": false,
      "t": 43163.2372499993,
      "d": 8.503395833329705,
      "v": 50
    },
    {
      "midi": 27,
      "hit": false,
      "t": 43163.2372499993,
      "d": 8.503395833329705,
      "v": 64
    },
    {
      "midi": 81,
      "hit": false,
      "t": 43163.23724999951,
      "d": 25.51018749999639,
      "v": 88
    },
    {
      "midi": 30,
      "hit": false,
      "t": 43163.23724999984,
      "d": 255.1018750000003,
      "v": 105
    },
    {
      "midi": 36,
      "hit": false,
      "t": 43265.27799999929,
      "d": 8.503395833329705,
      "v": 114
    },
    {
      "midi": 70,
      "hit": false,
      "t": 43265.27799999929,
      "d": 8.503395833329705,
      "v": 78
    },
    {
      "midi": 42,
      "hit": false,
      "t": 43265.27799999929,
      "d": 8.503395833329705,
      "v": 54
    },
    {
      "midi": 88,
      "hit": false,
      "t": 43265.277999999504,
      "d": 25.51018749999639,
      "v": 88
    },
    {
      "midi": 69,
      "hit": false,
      "t": 43265.27799999996,
      "d": 204.08150000000023,
      "v": 103
    },
    {
      "midi": 73,
      "hit": false,
      "t": 43265.27799999996,
      "d": 204.08150000000023,
      "v": 123
    },
    {
      "midi": 57,
      "hit": false,
      "t": 43265.27799999996,
      "d": 391.1562083333338,
      "v": 127
    },
    {
      "midi": 61,
      "hit": false,
      "t": 43265.27799999999,
      "d": 204.08150000000023,
      "v": 124
    },
    {
      "midi": 70,
      "hit": false,
      "t": 43367.318749999286,
      "d": 8.503395833329705,
      "v": 50
    },
    {
      "midi": 42,
      "hit": false,
      "t": 43367.318749999286,
      "d": 8.503395833329705,
      "v": 54
    },
    {
      "midi": 27,
      "hit": false,
      "t": 43367.318749999286,
      "d": 8.503395833329705,
      "v": 64
    },
    {
      "midi": 70,
      "hit": false,
      "t": 43469.35949999928,
      "d": 8.503395833329705,
      "v": 78
    },
    {
      "midi": 46,
      "hit": false,
      "t": 43469.35949999928,
      "d": 8.503395833329705,
      "v": 59
    },
    {
      "midi": 27,
      "hit": false,
      "t": 43469.35949999928,
      "d": 8.503395833329705,
      "v": 36
    },
    {
      "midi": 81,
      "hit": false,
      "t": 43469.3594999995,
      "d": 25.51018749999639,
      "v": 88
    },
    {
      "midi": 31,
      "hit": false,
      "t": 43469.35949999984,
      "d": 170.06791666666686,
      "v": 105
    },
    {
      "midi": 71,
      "hit": false,
      "t": 43469.35949999996,
      "d": 204.08150000000023,
      "v": 87
    },
    {
      "midi": 74,
      "hit": false,
      "t": 43469.35949999996,
      "d": 204.08150000000023,
      "v": 107
    },
    {
      "midi": 62,
      "hit": false,
      "t": 43469.35949999999,
      "d": 204.08150000000023,
      "v": 108
    },
    {
      "midi": 70,
      "hit": false,
      "t": 43571.40024999927,
      "d": 8.503395833329705,
      "v": 50
    },
    {
      "midi": 27,
      "hit": false,
      "t": 43571.40024999927,
      "d": 8.503395833329705,
      "v": 64
    },
    {
      "midi": 81,
      "hit": false,
      "t": 43571.40024999949,
      "d": 25.51018749999639,
      "v": 88
    },
    {
      "midi": 36,
      "hit": false,
      "t": 43673.440999999264,
      "d": 8.503395833329705,
      "v": 114
    },
    {
      "midi": 70,
      "hit": false,
      "t": 43673.440999999264,
      "d": 8.503395833329705,
      "v": 78
    },
    {
      "midi": 38,
      "hit": false,
      "t": 43673.440999999264,
      "d": 8.503395833329705,
      "v": 103
    },
    {
      "midi": 42,
      "hit": false,
      "t": 43673.440999999264,
      "d": 8.503395833329705,
      "v": 54
    },
    {
      "midi": 59,
      "hit": false,
      "t": 43673.44099999996,
      "d": 170.06791666666686,
      "v": 127
    },
    {
      "midi": 70,
      "hit": false,
      "t": 43775.48174999926,
      "d": 8.503395833329705,
      "v": 50
    },
    {
      "midi": 42,
      "hit": false,
      "t": 43775.48174999926,
      "d": 8.503395833329705,
      "v": 54
    },
    {
      "midi": 27,
      "hit": false,
      "t": 43775.48174999926,
      "d": 8.503395833329705,
      "v": 64
    },
    {
      "midi": 83,
      "hit": false,
      "t": 43775.48174999948,
      "d": 25.51018749999639,
      "v": 88
    },
    {
      "midi": 31,
      "hit": false,
      "t": 43775.48174999984,
      "d": 289.11545833333366,
      "v": 108
    },
    {
      "midi": 70,
      "hit": false,
      "t": 43877.52249999925,
      "d": 8.503395833329705,
      "v": 78
    },
    {
      "midi": 36,
      "hit": false,
      "t": 43877.52249999925,
      "d": 8.503395833329705,
      "v": 114
    },
    {
      "midi": 46,
      "hit": false,
      "t": 43877.52249999925,
      "d": 8.503395833329705,
      "v": 59
    },
    {
      "midi": 59,
      "hit": false,
      "t": 43877.52249999996,
      "d": 1896.2572708333319,
      "v": 127
    },
    {
      "midi": 70,
      "hit": false,
      "t": 43979.56324999924,
      "d": 8.503395833329705,
      "v": 50
    },
    {
      "midi": 81,
      "hit": false,
      "t": 43979.563249999475,
      "d": 25.51018749999639,
      "v": 88
    },
    {
      "midi": 36,
      "hit": false,
      "t": 44081.603999999235,
      "d": 8.503395833329705,
      "v": 114
    },
    {
      "midi": 57,
      "hit": false,
      "t": 44081.603999999235,
      "d": 8.503395833329705,
      "v": 92
    },
    {
      "midi": 70,
      "hit": false,
      "t": 44081.603999999235,
      "d": 8.503395833329705,
      "v": 78
    },
    {
      "midi": 42,
      "hit": false,
      "t": 44081.603999999235,
      "d": 8.503395833329705,
      "v": 54
    },
    {
      "midi": 83,
      "hit": false,
      "t": 44081.60399999947,
      "d": 25.51018749999639,
      "v": 88
    },
    {
      "midi": 40,
      "hit": false,
      "t": 44081.60399999984,
      "d": 195.57810416666325,
      "v": 101
    },
    {
      "midi": 76,
      "hit": false,
      "t": 44081.604000000014,
      "d": 1802.7199166666687,
      "v": 107
    },
    {
      "midi": 78,
      "hit": false,
      "t": 44081.604000000014,
      "d": 1802.7199166666687,
      "v": 107
    },
    {
      "midi": 52,
      "hit": false,
      "t": 44081.604000000036,
      "d": 1547.6180416666684,
      "v": 104
    },
    {
      "midi": 54,
      "hit": false,
      "t": 44081.604000000036,
      "d": 1547.6180416666684,
      "v": 104
    },
    {
      "midi": 59,
      "hit": false,
      "t": 44081.604000000036,
      "d": 1547.6180416666684,
      "v": 104
    },
    {
      "midi": 42,
      "hit": false,
      "t": 44183.64474999923,
      "d": 8.503395833329705,
      "v": 54
    },
    {
      "midi": 70,
      "hit": false,
      "t": 44183.64474999923,
      "d": 8.503395833329705,
      "v": 50
    },
    {
      "midi": 27,
      "hit": false,
      "t": 44183.64474999923,
      "d": 8.503395833329705,
      "v": 64
    },
    {
      "midi": 70,
      "hit": false,
      "t": 44285.68549999922,
      "d": 8.503395833329705,
      "v": 78
    },
    {
      "midi": 46,
      "hit": false,
      "t": 44285.68549999922,
      "d": 8.503395833329705,
      "v": 59
    },
    {
      "midi": 85,
      "hit": false,
      "t": 44285.68549999946,
      "d": 25.51018749999639,
      "v": 88
    },
    {
      "midi": 38,
      "hit": false,
      "t": 44285.68549999983,
      "d": 170.06791666666686,
      "v": 101
    },
    {
      "midi": 78,
      "hit": false,
      "t": 44285.68549999996,
      "d": 204.08150000000023,
      "v": 127
    },
    {
      "midi": 66,
      "hit": false,
      "t": 44285.68549999999,
      "d": 204.08150000000023,
      "v": 127
    },
    {
      "midi": 70,
      "hit": false,
      "t": 44387.726249999214,
      "d": 8.503395833329705,
      "v": 50
    },
    {
      "midi": 27,
      "hit": false,
      "t": 44387.726249999214,
      "d": 8.503395833329705,
      "v": 50
    },
    {
      "midi": 81,
      "hit": false,
      "t": 44387.726249999454,
      "d": 25.51018749999639,
      "v": 88
    },
    {
      "midi": 70,
      "hit": false,
      "t": 44489.76699999921,
      "d": 8.503395833329705,
      "v": 78
    },
    {
      "midi": 36,
      "hit": false,
      "t": 44489.76699999921,
      "d": 8.503395833329705,
      "v": 114
    },
    {
      "midi": 38,
      "hit": false,
      "t": 44489.76699999921,
      "d": 8.503395833329705,
      "v": 103
    },
    {
      "midi": 42,
      "hit": false,
      "t": 44489.76699999921,
      "d": 8.503395833329705,
      "v": 54
    },
    {
      "midi": 42,
      "hit": false,
      "t": 44489.76699999983,
      "d": 195.57810416666325,
      "v": 101
    },
    {
      "midi": 76,
      "hit": false,
      "t": 44489.76699999996,
      "d": 161.56452083332988,
      "v": 118
    },
    {
      "midi": 64,
      "hit": false,
      "t": 44489.76699999999,
      "d": 161.56452083332988,
      "v": 118
    },
    {
      "midi": 42,
      "hit": false,
      "t": 44591.8077499992,
      "d": 8.503395833329705,
      "v": 54
    },
    {
      "midi": 70,
      "hit": false,
      "t": 44591.8077499992,
      "d": 8.503395833329705,
      "v": 50
    },
    {
      "midi": 27,
      "hit": false,
      "t": 44591.8077499992,
      "d": 8.503395833329705,
      "v": 64
    },
    {
      "midi": 83,
      "hit": false,
      "t": 44591.80774999945,
      "d": 25.51018749999639,
      "v": 88
    },
    {
      "midi": 46,
      "hit": false,
      "t": 44693.84849999919,
      "d": 8.503395833329705,
      "v": 59
    },
    {
      "midi": 70,
      "hit": false,
      "t": 44693.84849999919,
      "d": 8.503395833329705,
      "v": 78
    },
    {
      "midi": 27,
      "hit": false,
      "t": 44693.84849999919,
      "d": 8.503395833329705,
      "v": 36
    },
    {
      "midi": 83,
      "hit": false,
      "t": 44693.84849999944,
      "d": 25.51018749999639,
      "v": 88
    },
    {
      "midi": 40,
      "hit": false,
      "t": 44693.848499999825,
      "d": 170.06791666666686,
      "v": 101
    },
    {
      "midi": 70,
      "hit": false,
      "t": 44795.889249999185,
      "d": 8.503395833329705,
      "v": 50
    },
    {
      "midi": 27,
      "hit": false,
      "t": 44795.889249999185,
      "d": 8.503395833329705,
      "v": 36
    },
    {
      "midi": 81,
      "hit": false,
      "t": 44795.88924999943,
      "d": 25.51018749999639,
      "v": 88
    },
    {
      "midi": 72,
      "hit": false,
      "t": 44880.92320833326,
      "d": 8.503395833329705,
      "v": 60
    },
    {
      "midi": 70,
      "hit": false,
      "t": 44897.92999999918,
      "d": 8.503395833329705,
      "v": 78
    },
    {
      "midi": 36,
      "hit": false,
      "t": 44897.92999999918,
      "d": 8.503395833329705,
      "v": 114
    },
    {
      "midi": 42,
      "hit": false,
      "t": 44897.92999999918,
      "d": 8.503395833329705,
      "v": 54
    },
    {
      "midi": 88,
      "hit": false,
      "t": 44897.929999999425,
      "d": 25.51018749999639,
      "v": 88
    },
    {
      "midi": 40,
      "hit": false,
      "t": 44897.929999999826,
      "d": 195.57810416666325,
      "v": 101
    },
    {
      "midi": 78,
      "hit": false,
      "t": 44897.92999999996,
      "d": 102.04075000000012,
      "v": 127
    },
    {
      "midi": 66,
      "hit": false,
      "t": 44897.929999999986,
      "d": 102.04075000000012,
      "v": 127
    },
    {
      "midi": 72,
      "hit": false,
      "t": 44906.43339583326,
      "d": 8.503395833329705,
      "v": 110
    },
    {
      "midi": 42,
      "hit": false,
      "t": 44999.97074999917,
      "d": 8.503395833329705,
      "v": 54
    },
    {
      "midi": 70,
      "hit": false,
      "t": 44999.97074999917,
      "d": 8.503395833329705,
      "v": 50
    },
    {
      "midi": 27,
      "hit": false,
      "t": 44999.97074999917,
      "d": 8.503395833329705,
      "v": 64
    },
    {
      "midi": 72,
      "hit": false,
      "t": 44999.97074999992,
      "d": 8.503395833329705,
      "v": 105
    },
    {
      "midi": 80,
      "hit": false,
      "t": 44999.97074999996,
      "d": 85.03395833333343,
      "v": 127
    },
    {
      "midi": 68,
      "hit": false,
      "t": 44999.970749999986,
      "d": 85.03395833333343,
      "v": 127
    },
    {
      "midi": 70,
      "hit": false,
      "t": 45102.011499999164,
      "d": 8.503395833329705,
      "v": 78
    },
    {
      "midi": 46,
      "hit": false,
      "t": 45102.011499999164,
      "d": 8.503395833329705,
      "v": 59
    },
    {
      "midi": 81,
      "hit": false,
      "t": 45102.01149999942,
      "d": 25.51018749999639,
      "v": 88
    },
    {
      "midi": 38,
      "hit": false,
      "t": 45102.01149999982,
      "d": 85.03395833333343,
      "v": 101
    },
    {
      "midi": 65,
      "hit": false,
      "t": 45102.01149999991,
      "d": 8.503395833329705,
      "v": 115
    },
    {
      "midi": 70,
      "hit": false,
      "t": 45204.05224999916,
      "d": 8.503395833329705,
      "v": 50
    },
    {
      "midi": 27,
      "hit": false,
      "t": 45204.05224999916,
      "d": 8.503395833329705,
      "v": 50
    },
    {
      "midi": 81,
      "hit": false,
      "t": 45204.05224999941,
      "d": 25.51018749999639,
      "v": 88
    },
    {
      "midi": 40,
      "hit": false,
      "t": 45204.05224999982,
      "d": 195.57810416666325,
      "v": 95
    },
    {
      "midi": 65,
      "hit": false,
      "t": 45204.052249999906,
      "d": 8.503395833329705,
      "v": 110
    },
    {
      "midi": 81,
      "hit": false,
      "t": 45204.05224999996,
      "d": 280.61206249998213,
      "v": 127
    },
    {
      "midi": 69,
      "hit": false,
      "t": 45204.052249999986,
      "d": 280.61206249998213,
      "v": 127
    },
    {
      "midi": 36,
      "hit": false,
      "t": 45306.09299999915,
      "d": 8.503395833329705,
      "v": 114
    },
    {
      "midi": 70,
      "hit": false,
      "t": 45306.09299999915,
      "d": 8.503395833329705,
      "v": 78
    },
    {
      "midi": 42,
      "hit": false,
      "t": 45306.09299999915,
      "d": 8.503395833329705,
      "v": 54
    },
    {
      "midi": 59,
      "hit": false,
      "t": 45306.0929999999,
      "d": 8.503395833329705,
      "v": 115
    },
    {
      "midi": 42,
      "hit": false,
      "t": 45408.13374999914,
      "d": 8.503395833329705,
      "v": 54
    },
    {
      "midi": 70,
      "hit": false,
      "t": 45408.13374999914,
      "d": 8.503395833329705,
      "v": 50
    },
    {
      "midi": 27,
      "hit": false,
      "t": 45408.13374999914,
      "d": 8.503395833329705,
      "v": 36
    },
    {
      "midi": 83,
      "hit": false,
      "t": 45408.133749999404,
      "d": 25.51018749999639,
      "v": 88
    },
    {
      "midi": 40,
      "hit": false,
      "t": 45408.13374999981,
      "d": 17.006791666666686,
      "v": 95
    },
    {
      "midi": 59,
      "hit": false,
      "t": 45408.13374999989,
      "d": 8.503395833329705,
      "v": 110
    },
    {
      "midi": 70,
      "hit": false,
      "t": 45510.174499999135,
      "d": 8.503395833329705,
      "v": 78
    },
    {
      "midi": 46,
      "hit": false,
      "t": 45510.174499999135,
      "d": 8.503395833329705,
      "v": 59
    },
    {
      "midi": 27,
      "hit": false,
      "t": 45510.174499999135,
      "d": 8.503395833329705,
      "v": 36
    },
    {
      "midi": 38,
      "hit": false,
      "t": 45510.17449999981,
      "d": 195.57810416666325,
      "v": 101
    },
    {
      "midi": 50,
      "hit": false,
      "t": 45510.174499999885,
      "d": 8.503395833329705,
      "v": 120
    },
    {
      "midi": 83,
      "hit": false,
      "t": 45510.174499999936,
      "d": 93.53735416666314,
      "v": 127
    },
    {
      "midi": 71,
      "hit": false,
      "t": 45510.174499999965,
      "d": 93.53735416666314,
      "v": 127
    },
    {
      "midi": 70,
      "hit": false,
      "t": 45612.21524999913,
      "d": 8.503395833329705,
      "v": 50
    },
    {
      "midi": 27,
      "hit": false,
      "t": 45612.21524999913,
      "d": 8.503395833329705,
      "v": 36
    },
    {
      "midi": 81,
      "hit": false,
      "t": 45612.2152499994,
      "d": 25.51018749999639,
      "v": 88
    },
    {
      "midi": 70,
      "hit": false,
      "t": 45714.25599999912,
      "d": 8.503395833329705,
      "v": 78
    },
    {
      "midi": 36,
      "hit": false,
      "t": 45714.25599999912,
      "d": 8.503395833329705,
      "v": 116
    },
    {
      "midi": 57,
      "hit": false,
      "t": 45714.25599999912,
      "d": 8.503395833329705,
      "v": 75
    },
    {
      "midi": 46,
      "hit": false,
      "t": 45714.25599999912,
      "d": 8.503395833329705,
      "v": 59
    },
    {
      "midi": 42,
      "hit": false,
      "t": 45714.255999999805,
      "d": 153.06112500000017,
      "v": 105
    },
    {
      "midi": 85,
      "hit": false,
      "t": 45714.25599999993,
      "d": 187.07470833333355,
      "v": 127
    },
    {
      "midi": 73,
      "hit": false,
      "t": 45714.25599999996,
      "d": 187.07470833333355,
      "v": 127
    },
    {
      "midi": 42,
      "hit": false,
      "t": 45714.25600000004,
      "d": 204.08150000000023,
      "v": 127
    },
    {
      "midi": 36,
      "hit": false,
      "t": 46122.418999999114,
      "d": 8.503395833329705,
      "v": 118
    },
    {
      "midi": 57,
      "hit": false,
      "t": 46122.418999999114,
      "d": 8.503395833329705,
      "v": 104
    },
    {
      "midi": 42,
      "hit": false,
      "t": 46122.418999999805,
      "d": 731.2920416666675,
      "v": 105
    },
    {
      "midi": 64,
      "hit": false,
      "t": 46122.41899999996,
      "d": 382.6528124999968,
      "v": 127
    },
    {
      "midi": 86,
      "hit": false,
      "t": 46122.419000000016,
      "d": 391.1562083333338,
      "v": 127
    },
    {
      "midi": 91,
      "hit": false,
      "t": 46122.41900000002,
      "d": 8.503395833329705,
      "v": 1
    },
    {
      "midi": 42,
      "hit": false,
      "t": 46122.41900000004,
      "d": 204.08150000000023,
      "v": 127
    },
    {
      "midi": 57,
      "hit": false,
      "t": 46130.92239583335,
      "d": 1641.1553958333316,
      "v": 100
    },
    {
      "midi": 36,
      "hit": false,
      "t": 46530.58199999911,
      "d": 8.503395833329705,
      "v": 118
    },
    {
      "midi": 38,
      "hit": false,
      "t": 46530.58199999911,
      "d": 8.503395833329705,
      "v": 105
    },
    {
      "midi": 64,
      "hit": false,
      "t": 46530.58199999995,
      "d": 374.1494166666671,
      "v": 127
    },
    {
      "midi": 86,
      "hit": false,
      "t": 46530.58200000002,
      "d": 102.04075000000012,
      "v": 127
    },
    {
      "midi": 38,
      "hit": false,
      "t": 46632.6227499991,
      "d": 8.503395833329705,
      "v": 91
    },
    {
      "midi": 85,
      "hit": false,
      "t": 46632.62275000002,
      "d": 102.04075000000012,
      "v": 127
    },
    {
      "midi": 38,
      "hit": false,
      "t": 46734.66349999909,
      "d": 8.503395833329705,
      "v": 98
    },
    {
      "midi": 84,
      "hit": false,
      "t": 46734.66350000002,
      "d": 102.04075000000012,
      "v": 127
    },
    {
      "midi": 38,
      "hit": false,
      "t": 46836.704249999086,
      "d": 8.503395833329705,
      "v": 105
    },
    {
      "midi": 83,
      "hit": false,
      "t": 46836.70425000002,
      "d": 102.04075000000012,
      "v": 117
    },
    {
      "midi": 36,
      "hit": false,
      "t": 46938.74499999908,
      "d": 8.503395833329705,
      "v": 118
    },
    {
      "midi": 40,
      "hit": false,
      "t": 46938.74499999908,
      "d": 8.503395833329705,
      "v": 104
    },
    {
      "midi": 38,
      "hit": false,
      "t": 46938.74499999908,
      "d": 8.503395833329705,
      "v": 105
    },
    {
      "midi": 42,
      "hit": false,
      "t": 46938.744999999806,
      "d": 399.65960416661983,
      "v": 105
    },
    {
      "midi": 64,
      "hit": false,
      "t": 46938.74499999995,
      "d": 144.5577291666632,
      "v": 127
    },
    {
      "midi": 82,
      "hit": false,
      "t": 46938.74500000002,
      "d": 102.04075000000012,
      "v": 107
    },
    {
      "midi": 81,
      "hit": false,
      "t": 47040.78575000002,
      "d": 102.04075000000012,
      "v": 107
    },
    {
      "midi": 36,
      "hit": false,
      "t": 47142.82649999907,
      "d": 8.503395833329705,
      "v": 118
    },
    {
      "midi": 66,
      "hit": false,
      "t": 47142.826499999945,
      "d": 374.1494166666671,
      "v": 127
    },
    {
      "midi": 64,
      "hit": false,
      "t": 47142.8265,
      "d": 357.1426250000004,
      "v": 87
    },
    {
      "midi": 71,
      "hit": false,
      "t": 47142.82650000001,
      "d": 357.1426250000004,
      "v": 106
    },
    {
      "midi": 66,
      "hit": false,
      "t": 47142.82650000001,
      "d": 365.6460208333301,
      "v": 90
    },
    {
      "midi": 80,
      "hit": false,
      "t": 47142.82650000002,
      "d": 102.04075000000012,
      "v": 97
    },
    {
      "midi": 79,
      "hit": false,
      "t": 47244.86725000002,
      "d": 102.04075000000012,
      "v": 97
    },
    {
      "midi": 36,
      "hit": false,
      "t": 47346.907999999064,
      "d": 8.503395833329705,
      "v": 114
    },
    {
      "midi": 70,
      "hit": false,
      "t": 47346.907999999064,
      "d": 8.503395833329705,
      "v": 78
    },
    {
      "midi": 57,
      "hit": false,
      "t": 47346.907999999064,
      "d": 8.503395833329705,
      "v": 105
    },
    {
      "midi": 50,
      "hit": false,
      "t": 47346.907999999756,
      "d": 59.52377083332976,
      "v": 100
    },
    {
      "midi": 78,
      "hit": false,
      "t": 47346.90799999993,
      "d": 1632.6519999999728,
      "v": 114
    },
    {
      "midi": 73,
      "hit": false,
      "t": 47346.90799999996,
      "d": 1632.6519999999728,
      "v": 105
    },
    {
      "midi": 78,
      "hit": false,
      "t": 47346.908,
      "d": 408.16300000000047,
      "v": 123
    },
    {
      "midi": 78,
      "hit": false,
      "t": 47346.90800000002,
      "d": 1632.6520000000019,
      "v": 121
    },
    {
      "midi": 62,
      "hit": false,
      "t": 47346.90800000004,
      "d": 25.51018749999639,
      "v": 100
    },
    {
      "midi": 66,
      "hit": false,
      "t": 47346.90800000004,
      "d": 25.51018749999639,
      "v": 100
    },
    {
      "midi": 73,
      "hit": false,
      "t": 47346.90800000004,
      "d": 25.51018749999639,
      "v": 110
    },
    {
      "midi": 27,
      "hit": false,
      "t": 47448.94874999906,
      "d": 8.503395833329705,
      "v": 70
    },
    {
      "midi": 50,
      "hit": false,
      "t": 47448.94874999975,
      "d": 42.51697916666308,
      "v": 100
    },
    {
      "midi": 62,
      "hit": false,
      "t": 47448.94875000003,
      "d": 25.51018749999639,
      "v": 100
    },
    {
      "midi": 66,
      "hit": false,
      "t": 47448.94875000003,
      "d": 25.51018749999639,
      "v": 100
    },
    {
      "midi": 73,
      "hit": false,
      "t": 47448.94875000003,
      "d": 25.51018749999639,
      "v": 110
    },
    {
      "midi": 70,
      "hit": false,
      "t": 47550.98949999905,
      "d": 8.503395833329705,
      "v": 78
    },
    {
      "midi": 46,
      "hit": false,
      "t": 47550.98949999905,
      "d": 8.503395833329705,
      "v": 59
    },
    {
      "midi": 38,
      "hit": false,
      "t": 47550.98949999974,
      "d": 170.06791666666686,
      "v": 105
    },
    {
      "midi": 66,
      "hit": false,
      "t": 47550.989499999945,
      "d": 170.06791666666686,
      "v": 112
    },
    {
      "midi": 62,
      "hit": false,
      "t": 47550.9895,
      "d": 153.06112500000017,
      "v": 87
    },
    {
      "midi": 66,
      "hit": false,
      "t": 47550.9895,
      "d": 170.06791666666686,
      "v": 90
    },
    {
      "midi": 69,
      "hit": false,
      "t": 47550.98950000001,
      "d": 153.06112500000017,
      "v": 106
    },
    {
      "midi": 78,
      "hit": false,
      "t": 47550.98950000002,
      "d": 8.503395833329705,
      "v": 80
    },
    {
      "midi": 70,
      "hit": false,
      "t": 47653.03024999904,
      "d": 8.503395833329705,
      "v": 64
    },
    {
      "midi": 27,
      "hit": false,
      "t": 47653.03024999904,
      "d": 8.503395833329705,
      "v": 70
    },
    {
      "midi": 62,
      "hit": false,
      "t": 47653.030250000025,
      "d": 25.51018749999639,
      "v": 100
    },
    {
      "midi": 66,
      "hit": false,
      "t": 47653.030250000025,
      "d": 25.51018749999639,
      "v": 100
    },
    {
      "midi": 71,
      "hit": false,
      "t": 47653.030250000025,
      "d": 25.51018749999639,
      "v": 110
    },
    {
      "midi": 70,
      "hit": false,
      "t": 47755.070999999036,
      "d": 8.503395833329705,
      "v": 78
    },
    {
      "midi": 36,
      "hit": false,
      "t": 47755.070999999036,
      "d": 8.503395833329705,
      "v": 114
    },
    {
      "midi": 38,
      "hit": false,
      "t": 47755.070999999036,
      "d": 8.503395833329705,
      "v": 103
    },
    {
      "midi": 42,
      "hit": false,
      "t": 47755.070999999036,
      "d": 8.503395833329705,
      "v": 54
    },
    {
      "midi": 40,
      "hit": false,
      "t": 47755.070999999036,
      "d": 8.503395833329705,
      "v": 100
    },
    {
      "midi": 38,
      "hit": false,
      "t": 47755.07099999974,
      "d": 195.57810416666325,
      "v": 105
    },
    {
      "midi": 66,
      "hit": false,
      "t": 47755.070999999945,
      "d": 170.06791666666686,
      "v": 120
    },
    {
      "midi": 62,
      "hit": false,
      "t": 47755.071,
      "d": 153.06112500000017,
      "v": 87
    },
    {
      "midi": 66,
      "hit": false,
      "t": 47755.071,
      "d": 170.06791666666686,
      "v": 90
    },
    {
      "midi": 69,
      "hit": false,
      "t": 47755.07100000001,
      "d": 153.06112500000017,
      "v": 106
    },
    {
      "midi": 27,
      "hit": false,
      "t": 47857.11174999903,
      "d": 8.503395833329705,
      "v": 40
    },
    {
      "midi": 42,
      "hit": false,
      "t": 47857.11174999903,
      "d": 8.503395833329705,
      "v": 54
    },
    {
      "midi": 78,
      "hit": false,
      "t": 47857.11175000001,
      "d": 8.503395833329705,
      "v": 80
    },
    {
      "midi": 62,
      "hit": false,
      "t": 47857.11175000002,
      "d": 25.51018749999639,
      "v": 100
    },
    {
      "midi": 66,
      "hit": false,
      "t": 47857.11175000002,
      "d": 25.51018749999639,
      "v": 100
    },
    {
      "midi": 73,
      "hit": false,
      "t": 47857.11175000002,
      "d": 25.51018749999639,
      "v": 110
    },
    {
      "midi": 70,
      "hit": false,
      "t": 47959.15249999902,
      "d": 8.503395833329705,
      "v": 78
    },
    {
      "midi": 27,
      "hit": false,
      "t": 47959.15249999902,
      "d": 8.503395833329705,
      "v": 70
    },
    {
      "midi": 46,
      "hit": false,
      "t": 47959.15249999902,
      "d": 8.503395833329705,
      "v": 59
    },
    {
      "midi": 50,
      "hit": false,
      "t": 47959.152499999735,
      "d": 68.02716666666674,
      "v": 100
    },
    {
      "midi": 66,
      "hit": false,
      "t": 47959.152499999946,
      "d": 170.06791666666686,
      "v": 127
    },
    {
      "midi": 62,
      "hit": false,
      "t": 47959.152500000004,
      "d": 153.06112500000017,
      "v": 87
    },
    {
      "midi": 66,
      "hit": false,
      "t": 47959.152500000004,
      "d": 170.06791666666686,
      "v": 90
    },
    {
      "midi": 69,
      "hit": false,
      "t": 47959.15250000001,
      "d": 153.06112500000017,
      "v": 106
    },
    {
      "midi": 70,
      "hit": false,
      "t": 48061.193249999014,
      "d": 8.503395833329705,
      "v": 64
    },
    {
      "midi": 27,
      "hit": false,
      "t": 48061.193249999014,
      "d": 8.503395833329705,
      "v": 40
    },
    {
      "midi": 38,
      "hit": false,
      "t": 48061.193249999014,
      "d": 8.503395833329705,
      "v": 89
    },
    {
      "midi": 38,
      "hit": false,
      "t": 48061.193249999735,
      "d": 85.03395833333343,
      "v": 100
    },
    {
      "midi": 62,
      "hit": false,
      "t": 48061.19325000001,
      "d": 25.51018749999639,
      "v": 100
    },
    {
      "midi": 66,
      "hit": false,
      "t": 48061.19325000001,
      "d": 25.51018749999639,
      "v": 100
    },
    {
      "midi": 71,
      "hit": false,
      "t": 48061.19325000001,
      "d": 25.51018749999639,
      "v": 110
    },
    {
      "midi": 70,
      "hit": false,
      "t": 48163.23399999901,
      "d": 8.503395833329705,
      "v": 78
    },
    {
      "midi": 36,
      "hit": false,
      "t": 48163.23399999901,
      "d": 8.503395833329705,
      "v": 114
    },
    {
      "midi": 42,
      "hit": false,
      "t": 48163.23399999901,
      "d": 8.503395833329705,
      "v": 54
    },
    {
      "midi": 37,
      "hit": false,
      "t": 48163.233999999735,
      "d": 85.03395833333343,
      "v": 105
    },
    {
      "midi": 66,
      "hit": false,
      "t": 48163.233999999946,
      "d": 170.06791666666686,
      "v": 127
    },
    {
      "midi": 62,
      "hit": false,
      "t": 48163.234000000004,
      "d": 153.06112500000017,
      "v": 87
    },
    {
      "midi": 66,
      "hit": false,
      "t": 48163.234000000004,
      "d": 170.06791666666686,
      "v": 90
    },
    {
      "midi": 73,
      "hit": false,
      "t": 48163.234000000004,
      "d": 8.503395833329705,
      "v": 80
    },
    {
      "midi": 69,
      "hit": false,
      "t": 48163.23400000001,
      "d": 153.06112500000017,
      "v": 106
    },
    {
      "midi": 27,
      "hit": false,
      "t": 48265.274749999,
      "d": 8.503395833329705,
      "v": 70
    },
    {
      "midi": 42,
      "hit": false,
      "t": 48265.274749999,
      "d": 8.503395833329705,
      "v": 54
    },
    {
      "midi": 38,
      "hit": false,
      "t": 48265.274749999735,
      "d": 195.57810416666325,
      "v": 100
    },
    {
      "midi": 62,
      "hit": false,
      "t": 48265.274750000004,
      "d": 25.51018749999639,
      "v": 100
    },
    {
      "midi": 66,
      "hit": false,
      "t": 48265.274750000004,
      "d": 25.51018749999639,
      "v": 100
    },
    {
      "midi": 73,
      "hit": false,
      "t": 48265.274750000004,
      "d": 25.51018749999639,
      "v": 110
    },
    {
      "midi": 70,
      "hit": false,
      "t": 48367.31549999899,
      "d": 8.503395833329705,
      "v": 78
    },
    {
      "midi": 38,
      "hit": false,
      "t": 48367.31549999899,
      "d": 8.503395833329705,
      "v": 107
    },
    {
      "midi": 46,
      "hit": false,
      "t": 48367.31549999899,
      "d": 8.503395833329705,
      "v": 59
    },
    {
      "midi": 61,
      "hit": false,
      "t": 48367.315499999946,
      "d": 391.1562083333338,
      "v": 122
    },
    {
      "midi": 62,
      "hit": false,
      "t": 48367.315500000004,
      "d": 408.16300000000047,
      "v": 87
    },
    {
      "midi": 66,
      "hit": false,
      "t": 48367.315500000004,
      "d": 408.16300000000047,
      "v": 90
    },
    {
      "midi": 69,
      "hit": false,
      "t": 48367.31550000001,
      "d": 408.16300000000047,
      "v": 106
    },
    {
      "midi": 70,
      "hit": false,
      "t": 48469.356249998986,
      "d": 8.503395833329705,
      "v": 64
    },
    {
      "midi": 38,
      "hit": false,
      "t": 48469.35624999973,
      "d": 187.07470833333355,
      "v": 106
    },
    {
      "midi": 62,
      "hit": false,
      "t": 48469.35625,
      "d": 25.51018749999639,
      "v": 100
    },
    {
      "midi": 66,
      "hit": false,
      "t": 48469.35625,
      "d": 25.51018749999639,
      "v": 100
    },
    {
      "midi": 73,
      "hit": false,
      "t": 48469.35625,
      "d": 25.51018749999639,
      "v": 110
    },
    {
      "midi": 73,
      "hit": false,
      "t": 48469.35625,
      "d": 8.503395833329705,
      "v": 80
    },
    {
      "midi": 36,
      "hit": false,
      "t": 48571.39699999898,
      "d": 8.503395833329705,
      "v": 114
    },
    {
      "midi": 70,
      "hit": false,
      "t": 48571.39699999898,
      "d": 8.503395833329705,
      "v": 78
    },
    {
      "midi": 38,
      "hit": false,
      "t": 48571.39699999898,
      "d": 8.503395833329705,
      "v": 99
    },
    {
      "midi": 42,
      "hit": false,
      "t": 48571.39699999898,
      "d": 8.503395833329705,
      "v": 54
    },
    {
      "midi": 40,
      "hit": false,
      "t": 48571.39699999898,
      "d": 8.503395833329705,
      "v": 100
    },
    {
      "midi": 42,
      "hit": false,
      "t": 48673.43774999897,
      "d": 8.503395833329705,
      "v": 54
    },
    {
      "midi": 50,
      "hit": false,
      "t": 48673.43774999973,
      "d": 42.51697916666308,
      "v": 100
    },
    {
      "midi": 62,
      "hit": false,
      "t": 48673.43774999999,
      "d": 25.51018749999639,
      "v": 100
    },
    {
      "midi": 66,
      "hit": false,
      "t": 48673.43774999999,
      "d": 25.51018749999639,
      "v": 100
    },
    {
      "midi": 71,
      "hit": false,
      "t": 48673.43774999999,
      "d": 25.51018749999639,
      "v": 110
    },
    {
      "midi": 70,
      "hit": false,
      "t": 48775.478499998964,
      "d": 8.503395833329705,
      "v": 78
    },
    {
      "midi": 46,
      "hit": false,
      "t": 48775.478499998964,
      "d": 8.503395833329705,
      "v": 59
    },
    {
      "midi": 38,
      "hit": false,
      "t": 48775.47849999972,
      "d": 187.07470833333355,
      "v": 100
    },
    {
      "midi": 59,
      "hit": false,
      "t": 48775.47849999995,
      "d": 714.2852499999863,
      "v": 122
    },
    {
      "midi": 62,
      "hit": false,
      "t": 48775.47849999998,
      "d": 25.51018749999639,
      "v": 100
    },
    {
      "midi": 66,
      "hit": false,
      "t": 48775.47849999998,
      "d": 25.51018749999639,
      "v": 100
    },
    {
      "midi": 73,
      "hit": false,
      "t": 48775.47849999998,
      "d": 25.51018749999639,
      "v": 110
    },
    {
      "midi": 73,
      "hit": false,
      "t": 48775.47849999999,
      "d": 8.503395833329705,
      "v": 80
    },
    {
      "midi": 62,
      "hit": false,
      "t": 48775.478500000005,
      "d": 595.237708333334,
      "v": 87
    },
    {
      "midi": 66,
      "hit": false,
      "t": 48775.478500000005,
      "d": 595.237708333334,
      "v": 90
    },
    {
      "midi": 69,
      "hit": false,
      "t": 48775.47850000001,
      "d": 595.237708333334,
      "v": 106
    },
    {
      "midi": 70,
      "hit": false,
      "t": 48877.51924999896,
      "d": 8.503395833329705,
      "v": 64
    },
    {
      "midi": 38,
      "hit": false,
      "t": 48877.51924999896,
      "d": 8.503395833329705,
      "v": 89
    },
    {
      "midi": 70,
      "hit": false,
      "t": 48979.55999999895,
      "d": 8.503395833329705,
      "v": 78
    },
    {
      "midi": 36,
      "hit": false,
      "t": 48979.55999999895,
      "d": 8.503395833329705,
      "v": 114
    },
    {
      "midi": 42,
      "hit": false,
      "t": 48979.55999999895,
      "d": 8.503395833329705,
      "v": 54
    },
    {
      "midi": 50,
      "hit": false,
      "t": 48979.55999999972,
      "d": 59.52377083332976,
      "v": 100
    },
    {
      "midi": 77,
      "hit": false,
      "t": 48979.5599999999,
      "d": 102.04075000000012,
      "v": 120
    },
    {
      "midi": 65,
      "hit": false,
      "t": 48979.55999999993,
      "d": 102.04075000000012,
      "v": 115
    },
    {
      "midi": 65,
      "hit": false,
      "t": 48979.559999999976,
      "d": 25.51018749999639,
      "v": 100
    },
    {
      "midi": 68,
      "hit": false,
      "t": 48979.559999999976,
      "d": 25.51018749999639,
      "v": 100
    },
    {
      "midi": 71,
      "hit": false,
      "t": 48979.559999999976,
      "d": 25.51018749999639,
      "v": 110
    },
    {
      "midi": 80,
      "hit": false,
      "t": 48979.560000000005,
      "d": 408.16300000000047,
      "v": 123
    },
    {
      "midi": 80,
      "hit": false,
      "t": 48979.56000000002,
      "d": 1632.6520000000019,
      "v": 121
    },
    {
      "midi": 42,
      "hit": false,
      "t": 49081.60074999894,
      "d": 8.503395833329705,
      "v": 54
    },
    {
      "midi": 50,
      "hit": false,
      "t": 49081.600749999714,
      "d": 42.51697916666308,
      "v": 100
    },
    {
      "midi": 80,
      "hit": false,
      "t": 49081.6007499999,
      "d": 93.53735416666314,
      "v": 127
    },
    {
      "midi": 68,
      "hit": false,
      "t": 49081.60074999993,
      "d": 127.55093749999651,
      "v": 122
    },
    {
      "midi": 65,
      "hit": false,
      "t": 49081.60074999997,
      "d": 25.51018749999639,
      "v": 100
    },
    {
      "midi": 68,
      "hit": false,
      "t": 49081.60074999997,
      "d": 25.51018749999639,
      "v": 100
    },
    {
      "midi": 71,
      "hit": false,
      "t": 49081.60074999997,
      "d": 25.51018749999639,
      "v": 110
    },
    {
      "midi": 70,
      "hit": false,
      "t": 49183.641499998936,
      "d": 8.503395833329705,
      "v": 78
    },
    {
      "midi": 46,
      "hit": false,
      "t": 49183.641499998936,
      "d": 8.503395833329705,
      "v": 59
    },
    {
      "midi": 38,
      "hit": false,
      "t": 49183.64149999971,
      "d": 170.06791666666686,
      "v": 105
    },
    {
      "midi": 78,
      "hit": false,
      "t": 49183.64149999998,
      "d": 8.503395833329705,
      "v": 80
    },
    {
      "midi": 70,
      "hit": false,
      "t": 49285.68224999893,
      "d": 8.503395833329705,
      "v": 64
    },
    {
      "midi": 81,
      "hit": false,
      "t": 49285.682249999896,
      "d": 136.0543333333262,
      "v": 127
    },
    {
      "midi": 69,
      "hit": false,
      "t": 49285.682249999925,
      "d": 144.55772916665592,
      "v": 122
    },
    {
      "midi": 65,
      "hit": false,
      "t": 49285.68224999996,
      "d": 25.51018749999639,
      "v": 100
    },
    {
      "midi": 68,
      "hit": false,
      "t": 49285.68224999996,
      "d": 25.51018749999639,
      "v": 100
    },
    {
      "midi": 69,
      "hit": false,
      "t": 49285.68224999996,
      "d": 25.51018749999639,
      "v": 110
    },
    {
      "midi": 36,
      "hit": false,
      "t": 49387.72299999892,
      "d": 8.503395833329705,
      "v": 114
    },
    {
      "midi": 38,
      "hit": false,
      "t": 49387.72299999892,
      "d": 8.503395833329705,
      "v": 103
    },
    {
      "midi": 42,
      "hit": false,
      "t": 49387.72299999892,
      "d": 8.503395833329705,
      "v": 54
    },
    {
      "midi": 70,
      "hit": false,
      "t": 49387.72299999892,
      "d": 8.503395833329705,
      "v": 78
    },
    {
      "midi": 40,
      "hit": false,
      "t": 49387.72299999892,
      "d": 8.503395833329705,
      "v": 100
    },
    {
      "midi": 38,
      "hit": false,
      "t": 49387.72299999971,
      "d": 195.57810416666325,
      "v": 105
    },
    {
      "midi": 42,
      "hit": false,
      "t": 49489.763749998914,
      "d": 8.503395833329705,
      "v": 54
    },
    {
      "midi": 65,
      "hit": false,
      "t": 49489.763749999955,
      "d": 25.51018749999639,
      "v": 100
    },
    {
      "midi": 68,
      "hit": false,
      "t": 49489.763749999955,
      "d": 25.51018749999639,
      "v": 100
    },
    {
      "midi": 71,
      "hit": false,
      "t": 49489.763749999955,
      "d": 25.51018749999639,
      "v": 110
    },
    {
      "midi": 78,
      "hit": false,
      "t": 49489.76374999998,
      "d": 8.503395833329705,
      "v": 80
    },
    {
      "midi": 70,
      "hit": false,
      "t": 49591.80449999891,
      "d": 8.503395833329705,
      "v": 78
    },
    {
      "midi": 27,
      "hit": false,
      "t": 49591.80449999891,
      "d": 8.503395833329705,
      "v": 70
    },
    {
      "midi": 46,
      "hit": false,
      "t": 49591.80449999891,
      "d": 8.503395833329705,
      "v": 59
    },
    {
      "midi": 50,
      "hit": false,
      "t": 49591.8044999997,
      "d": 85.03395833333343,
      "v": 100
    },
    {
      "midi": 83,
      "hit": false,
      "t": 49591.80449999988,
      "d": 136.0543333333335,
      "v": 125
    },
    {
      "midi": 71,
      "hit": false,
      "t": 49591.80449999991,
      "d": 161.56452083332988,
      "v": 120
    },
    {
      "midi": 59,
      "hit": false,
      "t": 49591.80449999993,
      "d": 170.06791666666686,
      "v": 112
    },
    {
      "midi": 62,
      "hit": false,
      "t": 49591.804500000006,
      "d": 204.08150000000023,
      "v": 87
    },
    {
      "midi": 65,
      "hit": false,
      "t": 49591.804500000006,
      "d": 204.08150000000023,
      "v": 90
    },
    {
      "midi": 68,
      "hit": false,
      "t": 49591.80450000001,
      "d": 204.08150000000023,
      "v": 106
    },
    {
      "midi": 70,
      "hit": false,
      "t": 49693.8452499989,
      "d": 8.503395833329705,
      "v": 64
    },
    {
      "midi": 27,
      "hit": false,
      "t": 49693.8452499989,
      "d": 8.503395833329705,
      "v": 70
    },
    {
      "midi": 38,
      "hit": false,
      "t": 49693.8452499997,
      "d": 34.01358333333337,
      "v": 100
    },
    {
      "midi": 65,
      "hit": false,
      "t": 49693.84524999995,
      "d": 25.51018749999639,
      "v": 100
    },
    {
      "midi": 68,
      "hit": false,
      "t": 49693.84524999995,
      "d": 25.51018749999639,
      "v": 100
    },
    {
      "midi": 69,
      "hit": false,
      "t": 49693.84524999995,
      "d": 25.51018749999639,
      "v": 110
    },
    {
      "midi": 36,
      "hit": false,
      "t": 49795.88599999889,
      "d": 8.503395833329705,
      "v": 114
    },
    {
      "midi": 70,
      "hit": false,
      "t": 49795.88599999889,
      "d": 8.503395833329705,
      "v": 78
    },
    {
      "midi": 42,
      "hit": false,
      "t": 49795.88599999889,
      "d": 8.503395833329705,
      "v": 54
    },
    {
      "midi": 38,
      "hit": false,
      "t": 49795.8859999997,
      "d": 85.03395833333343,
      "v": 100
    },
    {
      "midi": 59,
      "hit": false,
      "t": 49795.88599999993,
      "d": 204.08150000000023,
      "v": 127
    },
    {
      "midi": 73,
      "hit": false,
      "t": 49795.88599999997,
      "d": 8.503395833329705,
      "v": 80
    },
    {
      "midi": 62,
      "hit": false,
      "t": 49795.886000000006,
      "d": 204.08150000000023,
      "v": 87
    },
    {
      "midi": 65,
      "hit": false,
      "t": 49795.886000000006,
      "d": 204.08150000000023,
      "v": 90
    },
    {
      "midi": 68,
      "hit": false,
      "t": 49795.88600000001,
      "d": 204.08150000000023,
      "v": 106
    },
    {
      "midi": 27,
      "hit": false,
      "t": 49897.926749998885,
      "d": 8.503395833329705,
      "v": 70
    },
    {
      "midi": 38,
      "hit": false,
      "t": 49897.926749998885,
      "d": 8.503395833329705,
      "v": 103
    },
    {
      "midi": 42,
      "hit": false,
      "t": 49897.926749998885,
      "d": 8.503395833329705,
      "v": 54
    },
    {
      "midi": 41,
      "hit": false,
      "t": 49897.9267499997,
      "d": 187.07470833333355,
      "v": 105
    },
    {
      "midi": 65,
      "hit": false,
      "t": 49897.92674999994,
      "d": 25.51018749999639,
      "v": 100
    },
    {
      "midi": 68,
      "hit": false,
      "t": 49897.92674999994,
      "d": 25.51018749999639,
      "v": 100
    },
    {
      "midi": 71,
      "hit": false,
      "t": 49897.92674999994,
      "d": 25.51018749999639,
      "v": 110
    },
    {
      "midi": 70,
      "hit": false,
      "t": 49999.96749999888,
      "d": 8.503395833329705,
      "v": 78
    },
    {
      "midi": 27,
      "hit": false,
      "t": 49999.96749999888,
      "d": 8.503395833329705,
      "v": 40
    },
    {
      "midi": 46,
      "hit": false,
      "t": 49999.96749999888,
      "d": 8.503395833329705,
      "v": 59
    },
    {
      "midi": 64,
      "hit": false,
      "t": 49999.96749999993,
      "d": 382.6528124999968,
      "v": 127
    },
    {
      "midi": 62,
      "hit": false,
      "t": 49999.967500000006,
      "d": 340.1358333333337,
      "v": 87
    },
    {
      "midi": 65,
      "hit": false,
      "t": 49999.967500000006,
      "d": 340.1358333333337,
      "v": 90
    },
    {
      "midi": 71,
      "hit": false,
      "t": 49999.96750000001,
      "d": 340.1358333333337,
      "v": 106
    },
    {
      "midi": 70,
      "hit": false,
      "t": 50102.00824999887,
      "d": 8.503395833329705,
      "v": 64
    },
    {
      "midi": 27,
      "hit": false,
      "t": 50102.00824999887,
      "d": 8.503395833329705,
      "v": 70
    },
    {
      "midi": 40,
      "hit": false,
      "t": 50102.0082499997,
      "d": 187.07470833333355,
      "v": 100
    },
    {
      "midi": 65,
      "hit": false,
      "t": 50102.00824999993,
      "d": 25.51018749999639,
      "v": 100
    },
    {
      "midi": 68,
      "hit": false,
      "t": 50102.00824999993,
      "d": 25.51018749999639,
      "v": 100
    },
    {
      "midi": 71,
      "hit": false,
      "t": 50102.00824999993,
      "d": 25.51018749999639,
      "v": 110
    },
    {
      "midi": 73,
      "hit": false,
      "t": 50102.00824999996,
      "d": 8.503395833329705,
      "v": 80
    },
    {
      "midi": 36,
      "hit": false,
      "t": 50204.048999998864,
      "d": 8.503395833329705,
      "v": 114
    },
    {
      "midi": 70,
      "hit": false,
      "t": 50204.048999998864,
      "d": 8.503395833329705,
      "v": 78
    },
    {
      "midi": 38,
      "hit": false,
      "t": 50204.048999998864,
      "d": 8.503395833329705,
      "v": 103
    },
    {
      "midi": 42,
      "hit": false,
      "t": 50204.048999998864,
      "d": 8.503395833329705,
      "v": 54
    },
    {
      "midi": 40,
      "hit": false,
      "t": 50204.048999998864,
      "d": 8.503395833329705,
      "v": 100
    },
    {
      "midi": 27,
      "hit": false,
      "t": 50306.08974999886,
      "d": 8.503395833329705,
      "v": 70
    },
    {
      "midi": 42,
      "hit": false,
      "t": 50306.08974999886,
      "d": 8.503395833329705,
      "v": 54
    },
    {
      "midi": 38,
      "hit": false,
      "t": 50306.0897499997,
      "d": 42.51697916666308,
      "v": 100
    },
    {
      "midi": 65,
      "hit": false,
      "t": 50306.08974999993,
      "d": 25.51018749999639,
      "v": 100
    },
    {
      "midi": 68,
      "hit": false,
      "t": 50306.08974999993,
      "d": 25.51018749999639,
      "v": 100
    },
    {
      "midi": 69,
      "hit": false,
      "t": 50306.08974999993,
      "d": 25.51018749999639,
      "v": 110
    },
    {
      "midi": 70,
      "hit": false,
      "t": 50408.13049999885,
      "d": 8.503395833329705,
      "v": 78
    },
    {
      "midi": 36,
      "hit": false,
      "t": 50408.13049999885,
      "d": 8.503395833329705,
      "v": 114
    },
    {
      "midi": 46,
      "hit": false,
      "t": 50408.13049999885,
      "d": 8.503395833329705,
      "v": 59
    },
    {
      "midi": 35,
      "hit": false,
      "t": 50408.130499999694,
      "d": 187.07470833333355,
      "v": 105
    },
    {
      "midi": 65,
      "hit": false,
      "t": 50408.13049999992,
      "d": 25.51018749999639,
      "v": 100
    },
    {
      "midi": 68,
      "hit": false,
      "t": 50408.13049999992,
      "d": 25.51018749999639,
      "v": 100
    },
    {
      "midi": 71,
      "hit": false,
      "t": 50408.13049999992,
      "d": 25.51018749999639,
      "v": 110
    },
    {
      "midi": 64,
      "hit": false,
      "t": 50408.13049999993,
      "d": 374.1494166666671,
      "v": 125
    },
    {
      "midi": 73,
      "hit": false,
      "t": 50408.130499999956,
      "d": 8.503395833329705,
      "v": 80
    },
    {
      "midi": 62,
      "hit": false,
      "t": 50408.13050000001,
      "d": 365.6460208333301,
      "v": 87
    },
    {
      "midi": 65,
      "hit": false,
      "t": 50408.13050000001,
      "d": 365.6460208333301,
      "v": 90
    },
    {
      "midi": 71,
      "hit": false,
      "t": 50408.130500000014,
      "d": 365.6460208333301,
      "v": 106
    },
    {
      "midi": 70,
      "hit": false,
      "t": 50510.17124999884,
      "d": 8.503395833329705,
      "v": 64
    },
    {
      "midi": 38,
      "hit": false,
      "t": 50510.17124999884,
      "d": 8.503395833329705,
      "v": 89
    },
    {
      "midi": 36,
      "hit": false,
      "t": 50612.211999998835,
      "d": 8.503395833329705,
      "v": 114
    },
    {
      "midi": 70,
      "hit": false,
      "t": 50612.211999998835,
      "d": 8.503395833329705,
      "v": 78
    },
    {
      "midi": 42,
      "hit": false,
      "t": 50612.211999998835,
      "d": 8.503395833329705,
      "v": 54
    },
    {
      "midi": 49,
      "hit": false,
      "t": 50612.211999999694,
      "d": 59.52377083332976,
      "v": 100
    },
    {
      "midi": 73,
      "hit": false,
      "t": 50612.21199999988,
      "d": 1386.0535208333094,
      "v": 108
    },
    {
      "midi": 59,
      "hit": false,
      "t": 50612.211999999905,
      "d": 1369.0467291666428,
      "v": 84
    },
    {
      "midi": 64,
      "hit": false,
      "t": 50612.211999999905,
      "d": 1369.0467291666428,
      "v": 103
    },
    {
      "midi": 61,
      "hit": false,
      "t": 50612.21199999991,
      "d": 25.51018749999639,
      "v": 100
    },
    {
      "midi": 68,
      "hit": false,
      "t": 50612.21199999991,
      "d": 25.51018749999639,
      "v": 100
    },
    {
      "midi": 73,
      "hit": false,
      "t": 50612.21199999991,
      "d": 25.51018749999639,
      "v": 110
    },
    {
      "midi": 81,
      "hit": false,
      "t": 50612.21200000001,
      "d": 408.16300000000047,
      "v": 123
    },
    {
      "midi": 81,
      "hit": false,
      "t": 50612.21200000002,
      "d": 816.3260000000009,
      "v": 121
    },
    {
      "midi": 27,
      "hit": false,
      "t": 50714.25274999883,
      "d": 8.503395833329705,
      "v": 70
    },
    {
      "midi": 42,
      "hit": false,
      "t": 50714.25274999883,
      "d": 8.503395833329705,
      "v": 54
    },
    {
      "midi": 49,
      "hit": false,
      "t": 50714.25274999969,
      "d": 42.51697916666308,
      "v": 100
    },
    {
      "midi": 61,
      "hit": false,
      "t": 50714.252749999905,
      "d": 25.51018749999639,
      "v": 100
    },
    {
      "midi": 68,
      "hit": false,
      "t": 50714.252749999905,
      "d": 25.51018749999639,
      "v": 100
    },
    {
      "midi": 73,
      "hit": false,
      "t": 50714.252749999905,
      "d": 25.51018749999639,
      "v": 110
    },
    {
      "midi": 70,
      "hit": false,
      "t": 50816.29349999882,
      "d": 8.503395833329705,
      "v": 78
    },
    {
      "midi": 46,
      "hit": false,
      "t": 50816.29349999882,
      "d": 8.503395833329705,
      "v": 59
    },
    {
      "midi": 37,
      "hit": false,
      "t": 50816.29349999968,
      "d": 170.06791666666686,
      "v": 105
    },
    {
      "midi": 64,
      "hit": false,
      "t": 50816.29349999993,
      "d": 170.06791666666686,
      "v": 112
    },
    {
      "midi": 78,
      "hit": false,
      "t": 50816.29349999995,
      "d": 8.503395833329705,
      "v": 80
    },
    {
      "midi": 59,
      "hit": false,
      "t": 50816.2935,
      "d": 161.56452083332988,
      "v": 87
    },
    {
      "midi": 64,
      "hit": false,
      "t": 50816.2935,
      "d": 161.56452083332988,
      "v": 90
    },
    {
      "midi": 69,
      "hit": false,
      "t": 50816.29350000001,
      "d": 161.56452083332988,
      "v": 106
    },
    {
      "midi": 70,
      "hit": false,
      "t": 50918.334249998814,
      "d": 8.503395833329705,
      "v": 64
    },
    {
      "midi": 27,
      "hit": false,
      "t": 50918.334249998814,
      "d": 8.503395833329705,
      "v": 70
    },
    {
      "midi": 61,
      "hit": false,
      "t": 50918.3342499999,
      "d": 25.51018749999639,
      "v": 100
    },
    {
      "midi": 68,
      "hit": false,
      "t": 50918.3342499999,
      "d": 25.51018749999639,
      "v": 100
    },
    {
      "midi": 71,
      "hit": false,
      "t": 50918.3342499999,
      "d": 25.51018749999639,
      "v": 110
    },
    {
      "midi": 70,
      "hit": false,
      "t": 51020.37499999881,
      "d": 8.503395833329705,
      "v": 78
    },
    {
      "midi": 36,
      "hit": false,
      "t": 51020.37499999881,
      "d": 8.503395833329705,
      "v": 114
    },
    {
      "midi": 38,
      "hit": false,
      "t": 51020.37499999881,
      "d": 8.503395833329705,
      "v": 103
    },
    {
      "midi": 42,
      "hit": false,
      "t": 51020.37499999881,
      "d": 8.503395833329705,
      "v": 54
    },
    {
      "midi": 40,
      "hit": false,
      "t": 51020.37499999881,
      "d": 8.503395833329705,
      "v": 100
    },
    {
      "midi": 37,
      "hit": false,
      "t": 51020.37499999968,
      "d": 195.57810416666325,
      "v": 105
    },
    {
      "midi": 64,
      "hit": false,
      "t": 51020.37499999993,
      "d": 170.06791666666686,
      "v": 120
    },
    {
      "midi": 59,
      "hit": false,
      "t": 51020.37499999999,
      "d": 161.56452083332988,
      "v": 87
    },
    {
      "midi": 64,
      "hit": false,
      "t": 51020.37499999999,
      "d": 161.56452083332988,
      "v": 90
    },
    {
      "midi": 69,
      "hit": false,
      "t": 51020.375,
      "d": 161.56452083332988,
      "v": 106
    },
    {
      "midi": 27,
      "hit": false,
      "t": 51122.4157499988,
      "d": 8.503395833329705,
      "v": 40
    },
    {
      "midi": 42,
      "hit": false,
      "t": 51122.4157499988,
      "d": 8.503395833329705,
      "v": 54
    },
    {
      "midi": 61,
      "hit": false,
      "t": 51122.41574999989,
      "d": 25.51018749999639,
      "v": 100
    },
    {
      "midi": 68,
      "hit": false,
      "t": 51122.41574999989,
      "d": 25.51018749999639,
      "v": 100
    },
    {
      "midi": 73,
      "hit": false,
      "t": 51122.41574999989,
      "d": 25.51018749999639,
      "v": 110
    },
    {
      "midi": 78,
      "hit": false,
      "t": 51122.41574999994,
      "d": 8.503395833329705,
      "v": 80
    },
    {
      "midi": 70,
      "hit": false,
      "t": 51224.45649999879,
      "d": 8.503395833329705,
      "v": 78
    },
    {
      "midi": 27,
      "hit": false,
      "t": 51224.45649999879,
      "d": 8.503395833329705,
      "v": 70
    },
    {
      "midi": 46,
      "hit": false,
      "t": 51224.45649999879,
      "d": 8.503395833329705,
      "v": 59
    },
    {
      "midi": 49,
      "hit": false,
      "t": 51224.45649999967,
      "d": 102.04075000000012,
      "v": 100
    },
    {
      "midi": 64,
      "hit": false,
      "t": 51224.45649999993,
      "d": 170.06791666666686,
      "v": 127
    },
    {
      "midi": 59,
      "hit": false,
      "t": 51224.456499999986,
      "d": 170.06791666666686,
      "v": 87
    },
    {
      "midi": 64,
      "hit": false,
      "t": 51224.456499999986,
      "d": 170.06791666666686,
      "v": 90
    },
    {
      "midi": 69,
      "hit": false,
      "t": 51224.45649999999,
      "d": 170.06791666666686,
      "v": 106
    },
    {
      "midi": 70,
      "hit": false,
      "t": 51326.497249998785,
      "d": 8.503395833329705,
      "v": 64
    },
    {
      "midi": 27,
      "hit": false,
      "t": 51326.497249998785,
      "d": 8.503395833329705,
      "v": 40
    },
    {
      "midi": 38,
      "hit": false,
      "t": 51326.497249998785,
      "d": 8.503395833329705,
      "v": 89
    },
    {
      "midi": 37,
      "hit": false,
      "t": 51326.49724999967,
      "d": 68.02716666666674,
      "v": 100
    },
    {
      "midi": 61,
      "hit": false,
      "t": 51326.497249999884,
      "d": 25.51018749999639,
      "v": 100
    },
    {
      "midi": 68,
      "hit": false,
      "t": 51326.497249999884,
      "d": 25.51018749999639,
      "v": 100
    },
    {
      "midi": 71,
      "hit": false,
      "t": 51326.497249999884,
      "d": 25.51018749999639,
      "v": 110
    },
    {
      "midi": 70,
      "hit": false,
      "t": 51428.53799999878,
      "d": 8.503395833329705,
      "v": 78
    },
    {
      "midi": 36,
      "hit": false,
      "t": 51428.53799999878,
      "d": 8.503395833329705,
      "v": 114
    },
    {
      "midi": 42,
      "hit": false,
      "t": 51428.53799999878,
      "d": 8.503395833329705,
      "v": 54
    },
    {
      "midi": 37,
      "hit": false,
      "t": 51428.53799999967,
      "d": 85.03395833333343,
      "v": 100
    },
    {
      "midi": 64,
      "hit": false,
      "t": 51428.53799999993,
      "d": 170.06791666666686,
      "v": 127
    },
    {
      "midi": 73,
      "hit": false,
      "t": 51428.537999999935,
      "d": 8.503395833329705,
      "v": 80
    },
    {
      "midi": 61,
      "hit": false,
      "t": 51428.537999999986,
      "d": 204.08150000000023,
      "v": 87
    },
    {
      "midi": 64,
      "hit": false,
      "t": 51428.537999999986,
      "d": 204.08150000000023,
      "v": 90
    },
    {
      "midi": 69,
      "hit": false,
      "t": 51428.53799999999,
      "d": 204.08150000000023,
      "v": 106
    },
    {
      "midi": 83,
      "hit": false,
      "t": 51428.53800000001,
      "d": 408.16300000000047,
      "v": 123
    },
    {
      "midi": 83,
      "hit": false,
      "t": 51428.53800000002,
      "d": 816.3260000000009,
      "v": 121
    },
    {
      "midi": 27,
      "hit": false,
      "t": 51530.57874999877,
      "d": 8.503395833329705,
      "v": 70
    },
    {
      "midi": 42,
      "hit": false,
      "t": 51530.57874999877,
      "d": 8.503395833329705,
      "v": 54
    },
    {
      "midi": 35,
      "hit": false,
      "t": 51530.57874999967,
      "d": 187.07470833333355,
      "v": 105
    },
    {
      "midi": 61,
      "hit": false,
      "t": 51530.57874999988,
      "d": 25.51018749999639,
      "v": 100
    },
    {
      "midi": 68,
      "hit": false,
      "t": 51530.57874999988,
      "d": 25.51018749999639,
      "v": 100
    },
    {
      "midi": 73,
      "hit": false,
      "t": 51530.57874999988,
      "d": 25.51018749999639,
      "v": 110
    },
    {
      "midi": 70,
      "hit": false,
      "t": 51632.619499998764,
      "d": 8.503395833329705,
      "v": 78
    },
    {
      "midi": 38,
      "hit": false,
      "t": 51632.619499998764,
      "d": 8.503395833329705,
      "v": 107
    },
    {
      "midi": 46,
      "hit": false,
      "t": 51632.619499998764,
      "d": 8.503395833329705,
      "v": 59
    },
    {
      "midi": 62,
      "hit": false,
      "t": 51632.61949999993,
      "d": 399.6596041666635,
      "v": 122
    },
    {
      "midi": 62,
      "hit": false,
      "t": 51632.619499999986,
      "d": 382.6528124999968,
      "v": 87
    },
    {
      "midi": 66,
      "hit": false,
      "t": 51632.619499999986,
      "d": 382.6528124999968,
      "v": 90
    },
    {
      "midi": 71,
      "hit": false,
      "t": 51632.61949999999,
      "d": 382.6528124999968,
      "v": 106
    },
    {
      "midi": 70,
      "hit": false,
      "t": 51734.66024999876,
      "d": 8.503395833329705,
      "v": 64
    },
    {
      "midi": 37,
      "hit": false,
      "t": 51734.66024999967,
      "d": 187.07470833333355,
      "v": 100
    },
    {
      "midi": 61,
      "hit": false,
      "t": 51734.66024999987,
      "d": 25.51018749999639,
      "v": 100
    },
    {
      "midi": 68,
      "hit": false,
      "t": 51734.66024999987,
      "d": 25.51018749999639,
      "v": 100
    },
    {
      "midi": 73,
      "hit": false,
      "t": 51734.66024999987,
      "d": 25.51018749999639,
      "v": 110
    },
    {
      "midi": 73,
      "hit": false,
      "t": 51734.66024999993,
      "d": 8.503395833329705,
      "v": 80
    },
    {
      "midi": 36,
      "hit": false,
      "t": 51836.70099999875,
      "d": 8.503395833329705,
      "v": 114
    },
    {
      "midi": 70,
      "hit": false,
      "t": 51836.70099999875,
      "d": 8.503395833329705,
      "v": 78
    },
    {
      "midi": 38,
      "hit": false,
      "t": 51836.70099999875,
      "d": 8.503395833329705,
      "v": 99
    },
    {
      "midi": 42,
      "hit": false,
      "t": 51836.70099999875,
      "d": 8.503395833329705,
      "v": 54
    },
    {
      "midi": 40,
      "hit": false,
      "t": 51836.70099999875,
      "d": 8.503395833329705,
      "v": 100
    },
    {
      "midi": 42,
      "hit": false,
      "t": 51938.74174999874,
      "d": 8.503395833329705,
      "v": 54
    },
    {
      "midi": 35,
      "hit": false,
      "t": 51938.74174999967,
      "d": 93.53735416666314,
      "v": 100
    },
    {
      "midi": 61,
      "hit": false,
      "t": 51938.74174999986,
      "d": 25.51018749999639,
      "v": 100
    },
    {
      "midi": 68,
      "hit": false,
      "t": 51938.74174999986,
      "d": 25.51018749999639,
      "v": 100
    },
    {
      "midi": 71,
      "hit": false,
      "t": 51938.74174999986,
      "d": 25.51018749999639,
      "v": 110
    },
    {
      "midi": 61,
      "hit": false,
      "t": 52032.27910416659,
      "d": 824.8293958333088,
      "v": 122
    },
    {
      "midi": 70,
      "hit": false,
      "t": 52040.782499998735,
      "d": 8.503395833329705,
      "v": 78
    },
    {
      "midi": 46,
      "hit": false,
      "t": 52040.782499998735,
      "d": 8.503395833329705,
      "v": 59
    },
    {
      "midi": 32,
      "hit": false,
      "t": 52040.78249999967,
      "d": 195.57810416666325,
      "v": 105
    },
    {
      "midi": 76,
      "hit": false,
      "t": 52040.782499999856,
      "d": 102.04075000000012,
      "v": 120
    },
    {
      "midi": 61,
      "hit": false,
      "t": 52040.782499999856,
      "d": 25.51018749999639,
      "v": 100
    },
    {
      "midi": 68,
      "hit": false,
      "t": 52040.782499999856,
      "d": 25.51018749999639,
      "v": 100
    },
    {
      "midi": 73,
      "hit": false,
      "t": 52040.782499999856,
      "d": 25.51018749999639,
      "v": 110
    },
    {
      "midi": 61,
      "hit": false,
      "t": 52040.78249999988,
      "d": 85.03395833333343,
      "v": 111
    },
    {
      "midi": 64,
      "hit": false,
      "t": 52040.78249999988,
      "d": 85.03395833333343,
      "v": 93
    },
    {
      "midi": 73,
      "hit": false,
      "t": 52040.78249999992,
      "d": 8.503395833329705,
      "v": 80
    },
    {
      "midi": 64,
      "hit": false,
      "t": 52040.78249999998,
      "d": 731.2920416666675,
      "v": 87
    },
    {
      "midi": 68,
      "hit": false,
      "t": 52040.78249999998,
      "d": 204.08150000000023,
      "v": 90
    },
    {
      "midi": 73,
      "hit": false,
      "t": 52040.78249999999,
      "d": 739.7954374999972,
      "v": 106
    },
    {
      "midi": 70,
      "hit": false,
      "t": 52142.82324999873,
      "d": 8.503395833329705,
      "v": 64
    },
    {
      "midi": 38,
      "hit": false,
      "t": 52142.82324999873,
      "d": 8.503395833329705,
      "v": 89
    },
    {
      "midi": 70,
      "hit": false,
      "t": 52244.86399999872,
      "d": 8.503395833329705,
      "v": 78
    },
    {
      "midi": 36,
      "hit": false,
      "t": 52244.86399999872,
      "d": 8.503395833329705,
      "v": 114
    },
    {
      "midi": 42,
      "hit": false,
      "t": 52244.86399999872,
      "d": 8.503395833329705,
      "v": 54
    },
    {
      "midi": 30,
      "hit": false,
      "t": 52244.86399999966,
      "d": 195.57810416666325,
      "v": 106
    },
    {
      "midi": 64,
      "hit": false,
      "t": 52244.86399999985,
      "d": 25.51018749999639,
      "v": 100
    },
    {
      "midi": 66,
      "hit": false,
      "t": 52244.86399999985,
      "d": 25.51018749999639,
      "v": 100
    },
    {
      "midi": 74,
      "hit": false,
      "t": 52244.86399999985,
      "d": 25.51018749999639,
      "v": 110
    },
    {
      "midi": 76,
      "hit": false,
      "t": 52244.863999999856,
      "d": 195.57810416666325,
      "v": 125
    },
    {
      "midi": 61,
      "hit": false,
      "t": 52244.86399999988,
      "d": 187.07470833333355,
      "v": 116
    },
    {
      "midi": 64,
      "hit": false,
      "t": 52244.86399999988,
      "d": 187.07470833333355,
      "v": 98
    },
    {
      "midi": 69,
      "hit": false,
      "t": 52244.86399999998,
      "d": 510.2037500000006,
      "v": 76
    },
    {
      "midi": 85,
      "hit": false,
      "t": 52244.86400000001,
      "d": 408.16300000000047,
      "v": 123
    },
    {
      "midi": 85,
      "hit": false,
      "t": 52244.86400000002,
      "d": 816.3260000000009,
      "v": 121
    },
    {
      "midi": 42,
      "hit": false,
      "t": 52346.904749998714,
      "d": 8.503395833329705,
      "v": 54
    },
    {
      "midi": 64,
      "hit": false,
      "t": 52346.90474999984,
      "d": 25.51018749999639,
      "v": 100
    },
    {
      "midi": 66,
      "hit": false,
      "t": 52346.90474999984,
      "d": 25.51018749999639,
      "v": 100
    },
    {
      "midi": 74,
      "hit": false,
      "t": 52346.90474999984,
      "d": 25.51018749999639,
      "v": 110
    },
    {
      "midi": 70,
      "hit": false,
      "t": 52448.94549999871,
      "d": 8.503395833329705,
      "v": 78
    },
    {
      "midi": 46,
      "hit": false,
      "t": 52448.94549999871,
      "d": 8.503395833329705,
      "v": 59
    },
    {
      "midi": 28,
      "hit": false,
      "t": 52448.94549999965,
      "d": 170.06791666666686,
      "v": 106
    },
    {
      "midi": 74,
      "hit": false,
      "t": 52448.94549999985,
      "d": 178.57131249999657,
      "v": 127
    },
    {
      "midi": 59,
      "hit": false,
      "t": 52448.94549999988,
      "d": 187.07470833332627,
      "v": 118
    },
    {
      "midi": 62,
      "hit": false,
      "t": 52448.94549999988,
      "d": 187.07470833332627,
      "v": 100
    },
    {
      "midi": 78,
      "hit": false,
      "t": 52448.945499999914,
      "d": 8.503395833329705,
      "v": 80
    },
    {
      "midi": 70,
      "hit": false,
      "t": 52550.9862499987,
      "d": 8.503395833329705,
      "v": 64
    },
    {
      "midi": 64,
      "hit": false,
      "t": 52550.986249999834,
      "d": 25.51018749999639,
      "v": 100
    },
    {
      "midi": 66,
      "hit": false,
      "t": 52550.986249999834,
      "d": 25.51018749999639,
      "v": 100
    },
    {
      "midi": 73,
      "hit": false,
      "t": 52550.986249999834,
      "d": 25.51018749999639,
      "v": 110
    },
    {
      "midi": 36,
      "hit": false,
      "t": 52653.02699999869,
      "d": 8.503395833329705,
      "v": 114
    },
    {
      "midi": 38,
      "hit": false,
      "t": 52653.02699999869,
      "d": 8.503395833329705,
      "v": 103
    },
    {
      "midi": 42,
      "hit": false,
      "t": 52653.02699999869,
      "d": 8.503395833329705,
      "v": 54
    },
    {
      "midi": 70,
      "hit": false,
      "t": 52653.02699999869,
      "d": 8.503395833329705,
      "v": 78
    },
    {
      "midi": 40,
      "hit": false,
      "t": 52653.02699999869,
      "d": 8.503395833329705,
      "v": 100
    },
    {
      "midi": 32,
      "hit": false,
      "t": 52653.02699999965,
      "d": 195.57810416666325,
      "v": 106
    },
    {
      "midi": 42,
      "hit": false,
      "t": 52755.067749998685,
      "d": 8.503395833329705,
      "v": 54
    },
    {
      "midi": 64,
      "hit": false,
      "t": 52755.06774999983,
      "d": 25.51018749999639,
      "v": 100
    },
    {
      "midi": 66,
      "hit": false,
      "t": 52755.06774999983,
      "d": 25.51018749999639,
      "v": 100
    },
    {
      "midi": 74,
      "hit": false,
      "t": 52755.06774999983,
      "d": 25.51018749999639,
      "v": 110
    },
    {
      "midi": 78,
      "hit": false,
      "t": 52755.06774999991,
      "d": 8.503395833329705,
      "v": 80
    },
    {
      "midi": 70,
      "hit": false,
      "t": 52857.10849999868,
      "d": 8.503395833329705,
      "v": 78
    },
    {
      "midi": 27,
      "hit": false,
      "t": 52857.10849999868,
      "d": 8.503395833329705,
      "v": 70
    },
    {
      "midi": 46,
      "hit": false,
      "t": 52857.10849999868,
      "d": 8.503395833329705,
      "v": 59
    },
    {
      "midi": 30,
      "hit": false,
      "t": 52857.108499999646,
      "d": 93.53735416666314,
      "v": 106
    },
    {
      "midi": 73,
      "hit": false,
      "t": 52857.10849999984,
      "d": 178.5713124999893,
      "v": 127
    },
    {
      "midi": 57,
      "hit": false,
      "t": 52857.10849999987,
      "d": 161.5645208333226,
      "v": 118
    },
    {
      "midi": 61,
      "hit": false,
      "t": 52857.10849999987,
      "d": 161.5645208333226,
      "v": 110
    },
    {
      "midi": 70,
      "hit": false,
      "t": 52959.14924999867,
      "d": 8.503395833329705,
      "v": 64
    },
    {
      "midi": 27,
      "hit": false,
      "t": 52959.14924999867,
      "d": 8.503395833329705,
      "v": 70
    },
    {
      "midi": 42,
      "hit": false,
      "t": 52959.14924999964,
      "d": 34.01358333333337,
      "v": 106
    },
    {
      "midi": 64,
      "hit": false,
      "t": 52959.14924999982,
      "d": 25.51018749999639,
      "v": 100
    },
    {
      "midi": 66,
      "hit": false,
      "t": 52959.14924999982,
      "d": 25.51018749999639,
      "v": 100
    },
    {
      "midi": 73,
      "hit": false,
      "t": 52959.14924999982,
      "d": 25.51018749999639,
      "v": 110
    },
    {
      "midi": 36,
      "hit": false,
      "t": 53061.18999999866,
      "d": 8.503395833329705,
      "v": 114
    },
    {
      "midi": 70,
      "hit": false,
      "t": 53061.18999999866,
      "d": 8.503395833329705,
      "v": 78
    },
    {
      "midi": 42,
      "hit": false,
      "t": 53061.18999999866,
      "d": 8.503395833329705,
      "v": 54
    },
    {
      "midi": 30,
      "hit": false,
      "t": 53061.18999999964,
      "d": 85.03395833333343,
      "v": 110
    },
    {
      "midi": 73,
      "hit": false,
      "t": 53061.1899999999,
      "d": 8.503395833329705,
      "v": 80
    },
    {
      "midi": 86,
      "hit": false,
      "t": 53061.19000000001,
      "d": 408.16300000000047,
      "v": 123
    },
    {
      "midi": 86,
      "hit": false,
      "t": 53061.190000000024,
      "d": 816.3260000000009,
      "v": 121
    },
    {
      "midi": 27,
      "hit": false,
      "t": 53163.23074999866,
      "d": 8.503395833329705,
      "v": 70
    },
    {
      "midi": 38,
      "hit": false,
      "t": 53163.23074999866,
      "d": 8.503395833329705,
      "v": 103
    },
    {
      "midi": 42,
      "hit": false,
      "t": 53163.23074999866,
      "d": 8.503395833329705,
      "v": 54
    },
    {
      "midi": 28,
      "hit": false,
      "t": 53163.23074999964,
      "d": 195.57810416666325,
      "v": 106
    },
    {
      "midi": 64,
      "hit": false,
      "t": 53163.23074999981,
      "d": 25.51018749999639,
      "v": 100
    },
    {
      "midi": 66,
      "hit": false,
      "t": 53163.23074999981,
      "d": 25.51018749999639,
      "v": 100
    },
    {
      "midi": 74,
      "hit": false,
      "t": 53163.23074999981,
      "d": 25.51018749999639,
      "v": 110
    },
    {
      "midi": 70,
      "hit": false,
      "t": 53265.27149999865,
      "d": 8.503395833329705,
      "v": 78
    },
    {
      "midi": 27,
      "hit": false,
      "t": 53265.27149999865,
      "d": 8.503395833329705,
      "v": 40
    },
    {
      "midi": 46,
      "hit": false,
      "t": 53265.27149999865,
      "d": 8.503395833329705,
      "v": 59
    },
    {
      "midi": 70,
      "hit": false,
      "t": 53265.27149999983,
      "d": 595.237708333334,
      "v": 127
    },
    {
      "midi": 61,
      "hit": false,
      "t": 53265.27149999986,
      "d": 595.2377083333195,
      "v": 100
    },
    {
      "midi": 64,
      "hit": false,
      "t": 53265.27149999986,
      "d": 595.2377083333195,
      "v": 95
    },
    {
      "midi": 66,
      "hit": false,
      "t": 53265.27149999986,
      "d": 595.2377083333195,
      "v": 104
    },
    {
      "midi": 70,
      "hit": false,
      "t": 53265.27149999998,
      "d": 612.2445000000007,
      "v": 110
    },
    {
      "midi": 67,
      "hit": false,
      "t": 53265.27149999998,
      "d": 595.237708333334,
      "v": 95
    },
    {
      "midi": 64,
      "hit": false,
      "t": 53265.27149999998,
      "d": 595.237708333334,
      "v": 95
    },
    {
      "midi": 70,
      "hit": false,
      "t": 53367.31224999864,
      "d": 8.503395833329705,
      "v": 64
    },
    {
      "midi": 27,
      "hit": false,
      "t": 53367.31224999864,
      "d": 8.503395833329705,
      "v": 70
    },
    {
      "midi": 30,
      "hit": false,
      "t": 53367.31224999963,
      "d": 195.57810416666325,
      "v": 106
    },
    {
      "midi": 64,
      "hit": false,
      "t": 53367.312249999806,
      "d": 25.51018749999639,
      "v": 100
    },
    {
      "midi": 66,
      "hit": false,
      "t": 53367.312249999806,
      "d": 25.51018749999639,
      "v": 100
    },
    {
      "midi": 74,
      "hit": false,
      "t": 53367.312249999806,
      "d": 25.51018749999639,
      "v": 110
    },
    {
      "midi": 73,
      "hit": false,
      "t": 53367.31224999989,
      "d": 8.503395833329705,
      "v": 80
    },
    {
      "midi": 36,
      "hit": false,
      "t": 53469.352999998635,
      "d": 8.503395833329705,
      "v": 114
    },
    {
      "midi": 70,
      "hit": false,
      "t": 53469.352999998635,
      "d": 8.503395833329705,
      "v": 78
    },
    {
      "midi": 38,
      "hit": false,
      "t": 53469.352999998635,
      "d": 8.503395833329705,
      "v": 103
    },
    {
      "midi": 42,
      "hit": false,
      "t": 53469.352999998635,
      "d": 8.503395833329705,
      "v": 54
    },
    {
      "midi": 40,
      "hit": false,
      "t": 53469.352999998635,
      "d": 8.503395833329705,
      "v": 100
    },
    {
      "midi": 27,
      "hit": false,
      "t": 53571.39374999863,
      "d": 8.503395833329705,
      "v": 70
    },
    {
      "midi": 42,
      "hit": false,
      "t": 53571.39374999863,
      "d": 8.503395833329705,
      "v": 54
    },
    {
      "midi": 30,
      "hit": false,
      "t": 53571.393749999625,
      "d": 42.51697916666308,
      "v": 106
    },
    {
      "midi": 64,
      "hit": false,
      "t": 53571.3937499998,
      "d": 25.51018749999639,
      "v": 100
    },
    {
      "midi": 66,
      "hit": false,
      "t": 53571.3937499998,
      "d": 25.51018749999639,
      "v": 100
    },
    {
      "midi": 73,
      "hit": false,
      "t": 53571.3937499998,
      "d": 25.51018749999639,
      "v": 110
    },
    {
      "midi": 70,
      "hit": false,
      "t": 53673.43449999862,
      "d": 8.503395833329705,
      "v": 78
    },
    {
      "midi": 36,
      "hit": false,
      "t": 53673.43449999862,
      "d": 8.503395833329705,
      "v": 114
    },
    {
      "midi": 46,
      "hit": false,
      "t": 53673.43449999862,
      "d": 8.503395833329705,
      "v": 59
    },
    {
      "midi": 30,
      "hit": false,
      "t": 53673.43449999962,
      "d": 195.57810416666325,
      "v": 106
    },
    {
      "midi": 64,
      "hit": false,
      "t": 53673.43449999979,
      "d": 25.51018749999639,
      "v": 100
    },
    {
      "midi": 66,
      "hit": false,
      "t": 53673.43449999979,
      "d": 25.51018749999639,
      "v": 100
    },
    {
      "midi": 74,
      "hit": false,
      "t": 53673.43449999979,
      "d": 25.51018749999639,
      "v": 110
    },
    {
      "midi": 73,
      "hit": false,
      "t": 53673.43449999989,
      "d": 8.503395833329705,
      "v": 80
    },
    {
      "midi": 54,
      "hit": false,
      "t": 53673.4344999999,
      "d": 586.734312499997,
      "v": 127
    },
    {
      "midi": 70,
      "hit": false,
      "t": 53775.47524999861,
      "d": 8.503395833329705,
      "v": 64
    },
    {
      "midi": 38,
      "hit": false,
      "t": 53775.47524999861,
      "d": 8.503395833329705,
      "v": 89
    },
    {
      "midi": 36,
      "hit": false,
      "t": 53877.515999998606,
      "d": 8.503395833329705,
      "v": 114
    },
    {
      "midi": 70,
      "hit": false,
      "t": 53877.515999998606,
      "d": 8.503395833329705,
      "v": 78
    },
    {
      "midi": 42,
      "hit": false,
      "t": 53877.515999998606,
      "d": 8.503395833329705,
      "v": 54
    },
    {
      "midi": 35,
      "hit": false,
      "t": 53877.51599999961,
      "d": 59.52377083332976,
      "v": 100
    },
    {
      "midi": 62,
      "hit": false,
      "t": 53877.515999999785,
      "d": 25.51018749999639,
      "v": 100
    },
    {
      "midi": 66,
      "hit": false,
      "t": 53877.515999999785,
      "d": 25.51018749999639,
      "v": 100
    },
    {
      "midi": 73,
      "hit": false,
      "t": 53877.515999999785,
      "d": 25.51018749999639,
      "v": 110
    },
    {
      "midi": 69,
      "hit": false,
      "t": 53877.51599999998,
      "d": 1632.6520000000019,
      "v": 93
    },
    {
      "midi": 66,
      "hit": false,
      "t": 53877.51599999998,
      "d": 3265.3040000000037,
      "v": 93
    },
    {
      "midi": 62,
      "hit": false,
      "t": 53877.51599999998,
      "d": 1632.6520000000019,
      "v": 93
    },
    {
      "midi": 88,
      "hit": false,
      "t": 53877.516000000025,
      "d": 3265.3040000000037,
      "v": 121
    },
    {
      "midi": 27,
      "hit": false,
      "t": 53979.5567499986,
      "d": 8.503395833329705,
      "v": 70
    },
    {
      "midi": 42,
      "hit": false,
      "t": 53979.5567499986,
      "d": 8.503395833329705,
      "v": 54
    },
    {
      "midi": 35,
      "hit": false,
      "t": 53979.5567499996,
      "d": 51.02037500000006,
      "v": 100
    },
    {
      "midi": 62,
      "hit": false,
      "t": 53979.55674999978,
      "d": 25.51018749999639,
      "v": 100
    },
    {
      "midi": 66,
      "hit": false,
      "t": 53979.55674999978,
      "d": 25.51018749999639,
      "v": 100
    },
    {
      "midi": 73,
      "hit": false,
      "t": 53979.55674999978,
      "d": 25.51018749999639,
      "v": 110
    },
    {
      "midi": 70,
      "hit": false,
      "t": 54081.59749999859,
      "d": 8.503395833329705,
      "v": 78
    },
    {
      "midi": 46,
      "hit": false,
      "t": 54081.59749999859,
      "d": 8.503395833329705,
      "v": 59
    },
    {
      "midi": 33,
      "hit": false,
      "t": 54081.5974999996,
      "d": 170.06791666666686,
      "v": 105
    },
    {
      "midi": 78,
      "hit": false,
      "t": 54081.59749999988,
      "d": 8.503395833329705,
      "v": 80
    },
    {
      "midi": 70,
      "hit": false,
      "t": 54183.638249998585,
      "d": 8.503395833329705,
      "v": 64
    },
    {
      "midi": 27,
      "hit": false,
      "t": 54183.638249998585,
      "d": 8.503395833329705,
      "v": 70
    },
    {
      "midi": 62,
      "hit": false,
      "t": 54183.63824999977,
      "d": 25.51018749999639,
      "v": 100
    },
    {
      "midi": 66,
      "hit": false,
      "t": 54183.63824999977,
      "d": 25.51018749999639,
      "v": 100
    },
    {
      "midi": 71,
      "hit": false,
      "t": 54183.63824999977,
      "d": 25.51018749999639,
      "v": 110
    },
    {
      "midi": 70,
      "hit": false,
      "t": 54285.67899999858,
      "d": 8.503395833329705,
      "v": 78
    },
    {
      "midi": 36,
      "hit": false,
      "t": 54285.67899999858,
      "d": 8.503395833329705,
      "v": 114
    },
    {
      "midi": 38,
      "hit": false,
      "t": 54285.67899999858,
      "d": 8.503395833329705,
      "v": 103
    },
    {
      "midi": 42,
      "hit": false,
      "t": 54285.67899999858,
      "d": 8.503395833329705,
      "v": 54
    },
    {
      "midi": 40,
      "hit": false,
      "t": 54285.67899999858,
      "d": 8.503395833329705,
      "v": 100
    },
    {
      "midi": 38,
      "hit": false,
      "t": 54285.6789999996,
      "d": 195.57810416666325,
      "v": 100
    },
    {
      "midi": 56,
      "hit": false,
      "t": 54285.678999999895,
      "d": 204.08150000000023,
      "v": 127
    },
    {
      "midi": 27,
      "hit": false,
      "t": 54387.71974999857,
      "d": 8.503395833329705,
      "v": 40
    },
    {
      "midi": 42,
      "hit": false,
      "t": 54387.71974999857,
      "d": 8.503395833329705,
      "v": 54
    },
    {
      "midi": 62,
      "hit": false,
      "t": 54387.719749999764,
      "d": 25.51018749999639,
      "v": 100
    },
    {
      "midi": 66,
      "hit": false,
      "t": 54387.719749999764,
      "d": 25.51018749999639,
      "v": 100
    },
    {
      "midi": 73,
      "hit": false,
      "t": 54387.719749999764,
      "d": 25.51018749999639,
      "v": 110
    },
    {
      "midi": 78,
      "hit": false,
      "t": 54387.71974999987,
      "d": 8.503395833329705,
      "v": 80
    },
    {
      "midi": 70,
      "hit": false,
      "t": 54489.76049999856,
      "d": 8.503395833329705,
      "v": 78
    },
    {
      "midi": 27,
      "hit": false,
      "t": 54489.76049999856,
      "d": 8.503395833329705,
      "v": 70
    },
    {
      "midi": 46,
      "hit": false,
      "t": 54489.76049999856,
      "d": 8.503395833329705,
      "v": 59
    },
    {
      "midi": 35,
      "hit": false,
      "t": 54489.7604999996,
      "d": 85.03395833333343,
      "v": 100
    },
    {
      "midi": 73,
      "hit": false,
      "t": 54489.76049999983,
      "d": 612.2444999999643,
      "v": 124
    },
    {
      "midi": 57,
      "hit": false,
      "t": 54489.760499999844,
      "d": 408.16299999997864,
      "v": 119
    },
    {
      "midi": 57,
      "hit": false,
      "t": 54489.760499999895,
      "d": 391.1562083333338,
      "v": 114
    },
    {
      "midi": 70,
      "hit": false,
      "t": 54591.801249998556,
      "d": 8.503395833329705,
      "v": 64
    },
    {
      "midi": 27,
      "hit": false,
      "t": 54591.801249998556,
      "d": 8.503395833329705,
      "v": 40
    },
    {
      "midi": 38,
      "hit": false,
      "t": 54591.801249998556,
      "d": 8.503395833329705,
      "v": 89
    },
    {
      "midi": 47,
      "hit": false,
      "t": 54591.8012499996,
      "d": 59.52377083332976,
      "v": 100
    },
    {
      "midi": 62,
      "hit": false,
      "t": 54591.80124999976,
      "d": 25.51018749999639,
      "v": 100
    },
    {
      "midi": 66,
      "hit": false,
      "t": 54591.80124999976,
      "d": 25.51018749999639,
      "v": 100
    },
    {
      "midi": 71,
      "hit": false,
      "t": 54591.80124999976,
      "d": 25.51018749999639,
      "v": 110
    },
    {
      "midi": 70,
      "hit": false,
      "t": 54693.84199999855,
      "d": 8.503395833329705,
      "v": 78
    },
    {
      "midi": 36,
      "hit": false,
      "t": 54693.84199999855,
      "d": 8.503395833329705,
      "v": 114
    },
    {
      "midi": 42,
      "hit": false,
      "t": 54693.84199999855,
      "d": 8.503395833329705,
      "v": 54
    },
    {
      "midi": 35,
      "hit": false,
      "t": 54693.84199999959,
      "d": 85.03395833333343,
      "v": 100
    },
    {
      "midi": 73,
      "hit": false,
      "t": 54693.841999999866,
      "d": 8.503395833329705,
      "v": 80
    },
    {
      "midi": 27,
      "hit": false,
      "t": 54795.88274999854,
      "d": 8.503395833329705,
      "v": 70
    },
    {
      "midi": 42,
      "hit": false,
      "t": 54795.88274999854,
      "d": 8.503395833329705,
      "v": 54
    },
    {
      "midi": 33,
      "hit": false,
      "t": 54795.88274999959,
      "d": 187.07470833333355,
      "v": 100
    },
    {
      "midi": 62,
      "hit": false,
      "t": 54795.88274999975,
      "d": 25.51018749999639,
      "v": 100
    },
    {
      "midi": 66,
      "hit": false,
      "t": 54795.88274999975,
      "d": 25.51018749999639,
      "v": 100
    },
    {
      "midi": 73,
      "hit": false,
      "t": 54795.88274999975,
      "d": 25.51018749999639,
      "v": 110
    },
    {
      "midi": 70,
      "hit": false,
      "t": 54897.923499998535,
      "d": 8.503395833329705,
      "v": 78
    },
    {
      "midi": 38,
      "hit": false,
      "t": 54897.923499998535,
      "d": 8.503395833329705,
      "v": 107
    },
    {
      "midi": 46,
      "hit": false,
      "t": 54897.923499998535,
      "d": 8.503395833329705,
      "v": 59
    },
    {
      "midi": 57,
      "hit": false,
      "t": 54897.92349999982,
      "d": 204.08150000000023,
      "v": 124
    },
    {
      "midi": 61,
      "hit": false,
      "t": 54897.923499999895,
      "d": 399.6596041666635,
      "v": 124
    },
    {
      "midi": 70,
      "hit": false,
      "t": 54999.96424999853,
      "d": 8.503395833329705,
      "v": 64
    },
    {
      "midi": 35,
      "hit": false,
      "t": 54999.96424999959,
      "d": 187.07470833333355,
      "v": 106
    },
    {
      "midi": 62,
      "hit": false,
      "t": 54999.96424999974,
      "d": 25.51018749999639,
      "v": 100
    },
    {
      "midi": 66,
      "hit": false,
      "t": 54999.96424999974,
      "d": 25.51018749999639,
      "v": 100
    },
    {
      "midi": 73,
      "hit": false,
      "t": 54999.96424999974,
      "d": 25.51018749999639,
      "v": 110
    },
    {
      "midi": 73,
      "hit": false,
      "t": 54999.96424999986,
      "d": 8.503395833329705,
      "v": 80
    },
    {
      "midi": 36,
      "hit": false,
      "t": 55102.00499999852,
      "d": 8.503395833329705,
      "v": 114
    },
    {
      "midi": 70,
      "hit": false,
      "t": 55102.00499999852,
      "d": 8.503395833329705,
      "v": 78
    },
    {
      "midi": 38,
      "hit": false,
      "t": 55102.00499999852,
      "d": 8.503395833329705,
      "v": 99
    },
    {
      "midi": 42,
      "hit": false,
      "t": 55102.00499999852,
      "d": 8.503395833329705,
      "v": 54
    },
    {
      "midi": 40,
      "hit": false,
      "t": 55102.00499999852,
      "d": 8.503395833329705,
      "v": 100
    },
    {
      "midi": 74,
      "hit": false,
      "t": 55102.004999999794,
      "d": 408.16300000000047,
      "v": 127
    },
    {
      "midi": 59,
      "hit": false,
      "t": 55102.00499999982,
      "d": 408.16300000000047,
      "v": 119
    },
    {
      "midi": 42,
      "hit": false,
      "t": 55204.04574999851,
      "d": 8.503395833329705,
      "v": 54
    },
    {
      "midi": 47,
      "hit": false,
      "t": 55204.04574999959,
      "d": 68.02716666666674,
      "v": 100
    },
    {
      "midi": 62,
      "hit": false,
      "t": 55204.045749999736,
      "d": 25.51018749999639,
      "v": 100
    },
    {
      "midi": 66,
      "hit": false,
      "t": 55204.045749999736,
      "d": 25.51018749999639,
      "v": 100
    },
    {
      "midi": 71,
      "hit": false,
      "t": 55204.045749999736,
      "d": 25.51018749999639,
      "v": 110
    },
    {
      "midi": 70,
      "hit": false,
      "t": 55306.086499998506,
      "d": 8.503395833329705,
      "v": 78
    },
    {
      "midi": 46,
      "hit": false,
      "t": 55306.086499998506,
      "d": 8.503395833329705,
      "v": 59
    },
    {
      "midi": 38,
      "hit": false,
      "t": 55306.08649999959,
      "d": 187.07470833333355,
      "v": 100
    },
    {
      "midi": 62,
      "hit": false,
      "t": 55306.08649999973,
      "d": 25.51018749999639,
      "v": 100
    },
    {
      "midi": 66,
      "hit": false,
      "t": 55306.08649999973,
      "d": 25.51018749999639,
      "v": 100
    },
    {
      "midi": 73,
      "hit": false,
      "t": 55306.08649999973,
      "d": 25.51018749999639,
      "v": 110
    },
    {
      "midi": 73,
      "hit": false,
      "t": 55306.08649999985,
      "d": 8.503395833329705,
      "v": 80
    },
    {
      "midi": 59,
      "hit": false,
      "t": 55306.08649999989,
      "d": 391.1562083333338,
      "v": 122
    },
    {
      "midi": 70,
      "hit": false,
      "t": 55408.1272499985,
      "d": 8.503395833329705,
      "v": 64
    },
    {
      "midi": 38,
      "hit": false,
      "t": 55408.1272499985,
      "d": 8.503395833329705,
      "v": 89
    },
    {
      "midi": 70,
      "hit": false,
      "t": 55510.16799999849,
      "d": 8.503395833329705,
      "v": 78
    },
    {
      "midi": 36,
      "hit": false,
      "t": 55510.16799999849,
      "d": 8.503395833329705,
      "v": 114
    },
    {
      "midi": 42,
      "hit": false,
      "t": 55510.16799999849,
      "d": 8.503395833329705,
      "v": 54
    },
    {
      "midi": 40,
      "hit": false,
      "t": 55510.16799999959,
      "d": 59.52377083332976,
      "v": 100
    },
    {
      "midi": 66,
      "hit": false,
      "t": 55510.16799999972,
      "d": 25.51018749999639,
      "v": 100
    },
    {
      "midi": 68,
      "hit": false,
      "t": 55510.16799999972,
      "d": 25.51018749999639,
      "v": 100
    },
    {
      "midi": 73,
      "hit": false,
      "t": 55510.16799999972,
      "d": 25.51018749999639,
      "v": 110
    },
    {
      "midi": 76,
      "hit": false,
      "t": 55510.167999999794,
      "d": 1632.6519999999582,
      "v": 121
    },
    {
      "midi": 59,
      "hit": false,
      "t": 55510.16799999982,
      "d": 1632.6519999999582,
      "v": 103
    },
    {
      "midi": 64,
      "hit": false,
      "t": 55510.16799999982,
      "d": 1632.6519999999582,
      "v": 110
    },
    {
      "midi": 71,
      "hit": false,
      "t": 55510.16799999998,
      "d": 1632.6520000000019,
      "v": 98
    },
    {
      "midi": 64,
      "hit": false,
      "t": 55510.16799999998,
      "d": 1632.6520000000019,
      "v": 83
    },
    {
      "midi": 90,
      "hit": false,
      "t": 55510.16800000003,
      "d": 1632.6520000000019,
      "v": 121
    },
    {
      "midi": 42,
      "hit": false,
      "t": 55612.208749998485,
      "d": 8.503395833329705,
      "v": 54
    },
    {
      "midi": 40,
      "hit": false,
      "t": 55612.20874999958,
      "d": 51.02037500000006,
      "v": 100
    },
    {
      "midi": 66,
      "hit": false,
      "t": 55612.208749999714,
      "d": 25.51018749999639,
      "v": 100
    },
    {
      "midi": 68,
      "hit": false,
      "t": 55612.208749999714,
      "d": 25.51018749999639,
      "v": 100
    },
    {
      "midi": 73,
      "hit": false,
      "t": 55612.208749999714,
      "d": 25.51018749999639,
      "v": 110
    },
    {
      "midi": 70,
      "hit": false,
      "t": 55714.24949999848,
      "d": 8.503395833329705,
      "v": 78
    },
    {
      "midi": 46,
      "hit": false,
      "t": 55714.24949999848,
      "d": 8.503395833329705,
      "v": 59
    },
    {
      "midi": 38,
      "hit": false,
      "t": 55714.24949999958,
      "d": 170.06791666666686,
      "v": 105
    },
    {
      "midi": 78,
      "hit": false,
      "t": 55714.249499999845,
      "d": 8.503395833329705,
      "v": 80
    },
    {
      "midi": 57,
      "hit": false,
      "t": 55714.24949999989,
      "d": 399.6596041666635,
      "v": 127
    },
    {
      "midi": 70,
      "hit": false,
      "t": 55816.29024999847,
      "d": 8.503395833329705,
      "v": 64
    },
    {
      "midi": 64,
      "hit": false,
      "t": 55816.29024999971,
      "d": 25.51018749999639,
      "v": 100
    },
    {
      "midi": 68,
      "hit": false,
      "t": 55816.29024999971,
      "d": 25.51018749999639,
      "v": 100
    },
    {
      "midi": 71,
      "hit": false,
      "t": 55816.29024999971,
      "d": 25.51018749999639,
      "v": 110
    },
    {
      "midi": 36,
      "hit": false,
      "t": 55918.33099999846,
      "d": 8.503395833329705,
      "v": 114
    },
    {
      "midi": 38,
      "hit": false,
      "t": 55918.33099999846,
      "d": 8.503395833329705,
      "v": 103
    },
    {
      "midi": 42,
      "hit": false,
      "t": 55918.33099999846,
      "d": 8.503395833329705,
      "v": 54
    },
    {
      "midi": 70,
      "hit": false,
      "t": 55918.33099999846,
      "d": 8.503395833329705,
      "v": 78
    },
    {
      "midi": 40,
      "hit": false,
      "t": 55918.33099999846,
      "d": 8.503395833329705,
      "v": 100
    },
    {
      "midi": 42,
      "hit": false,
      "t": 55918.33099999958,
      "d": 195.57810416666325,
      "v": 100
    },
    {
      "midi": 42,
      "hit": false,
      "t": 56020.371749998456,
      "d": 8.503395833329705,
      "v": 54
    },
    {
      "midi": 66,
      "hit": false,
      "t": 56020.3717499997,
      "d": 25.51018749999639,
      "v": 100
    },
    {
      "midi": 68,
      "hit": false,
      "t": 56020.3717499997,
      "d": 25.51018749999639,
      "v": 100
    },
    {
      "midi": 73,
      "hit": false,
      "t": 56020.3717499997,
      "d": 25.51018749999639,
      "v": 110
    },
    {
      "midi": 78,
      "hit": false,
      "t": 56020.37174999984,
      "d": 8.503395833329705,
      "v": 80
    },
    {
      "midi": 70,
      "hit": false,
      "t": 56122.41249999845,
      "d": 8.503395833329705,
      "v": 78
    },
    {
      "midi": 27,
      "hit": false,
      "t": 56122.41249999845,
      "d": 8.503395833329705,
      "v": 70
    },
    {
      "midi": 46,
      "hit": false,
      "t": 56122.41249999845,
      "d": 8.503395833329705,
      "v": 59
    },
    {
      "midi": 40,
      "hit": false,
      "t": 56122.41249999958,
      "d": 102.04075000000012,
      "v": 95
    },
    {
      "midi": 56,
      "hit": false,
      "t": 56122.41249999988,
      "d": 399.6596041666635,
      "v": 125
    },
    {
      "midi": 70,
      "hit": false,
      "t": 56224.45324999844,
      "d": 8.503395833329705,
      "v": 64
    },
    {
      "midi": 27,
      "hit": false,
      "t": 56224.45324999844,
      "d": 8.503395833329705,
      "v": 70
    },
    {
      "midi": 40,
      "hit": false,
      "t": 56224.45324999958,
      "d": 34.01358333333337,
      "v": 100
    },
    {
      "midi": 64,
      "hit": false,
      "t": 56224.45324999969,
      "d": 25.51018749999639,
      "v": 100
    },
    {
      "midi": 68,
      "hit": false,
      "t": 56224.45324999969,
      "d": 25.51018749999639,
      "v": 100
    },
    {
      "midi": 71,
      "hit": false,
      "t": 56224.45324999969,
      "d": 25.51018749999639,
      "v": 110
    },
    {
      "midi": 72,
      "hit": false,
      "t": 56309.487208333216,
      "d": 8.503395833329705,
      "v": 60
    },
    {
      "midi": 36,
      "hit": false,
      "t": 56326.493999998434,
      "d": 8.503395833329705,
      "v": 114
    },
    {
      "midi": 70,
      "hit": false,
      "t": 56326.493999998434,
      "d": 8.503395833329705,
      "v": 78
    },
    {
      "midi": 42,
      "hit": false,
      "t": 56326.493999998434,
      "d": 8.503395833329705,
      "v": 54
    },
    {
      "midi": 40,
      "hit": false,
      "t": 56326.49399999958,
      "d": 85.03395833333343,
      "v": 105
    },
    {
      "midi": 73,
      "hit": false,
      "t": 56326.49399999983,
      "d": 8.503395833329705,
      "v": 80
    },
    {
      "midi": 72,
      "hit": false,
      "t": 56334.99739583321,
      "d": 8.503395833329705,
      "v": 110
    },
    {
      "midi": 27,
      "hit": false,
      "t": 56428.53474999843,
      "d": 8.503395833329705,
      "v": 70
    },
    {
      "midi": 38,
      "hit": false,
      "t": 56428.53474999843,
      "d": 8.503395833329705,
      "v": 103
    },
    {
      "midi": 42,
      "hit": false,
      "t": 56428.53474999843,
      "d": 8.503395833329705,
      "v": 54
    },
    {
      "midi": 38,
      "hit": false,
      "t": 56428.53474999958,
      "d": 161.56452083332988,
      "v": 100
    },
    {
      "midi": 66,
      "hit": false,
      "t": 56428.534749999686,
      "d": 25.51018749999639,
      "v": 100
    },
    {
      "midi": 68,
      "hit": false,
      "t": 56428.534749999686,
      "d": 25.51018749999639,
      "v": 100
    },
    {
      "midi": 73,
      "hit": false,
      "t": 56428.534749999686,
      "d": 25.51018749999639,
      "v": 110
    },
    {
      "midi": 72,
      "hit": false,
      "t": 56428.534749999875,
      "d": 8.503395833329705,
      "v": 105
    },
    {
      "midi": 70,
      "hit": false,
      "t": 56530.57549999842,
      "d": 8.503395833329705,
      "v": 78
    },
    {
      "midi": 27,
      "hit": false,
      "t": 56530.57549999842,
      "d": 8.503395833329705,
      "v": 40
    },
    {
      "midi": 46,
      "hit": false,
      "t": 56530.57549999842,
      "d": 8.503395833329705,
      "v": 59
    },
    {
      "midi": 65,
      "hit": false,
      "t": 56530.57549999987,
      "d": 8.503395833329705,
      "v": 115
    },
    {
      "midi": 59,
      "hit": false,
      "t": 56530.575499999875,
      "d": 391.1562083333338,
      "v": 124
    },
    {
      "midi": 70,
      "hit": false,
      "t": 56632.61624999841,
      "d": 8.503395833329705,
      "v": 64
    },
    {
      "midi": 27,
      "hit": false,
      "t": 56632.61624999841,
      "d": 8.503395833329705,
      "v": 70
    },
    {
      "midi": 38,
      "hit": false,
      "t": 56632.61624999841,
      "d": 8.503395833329705,
      "v": 89
    },
    {
      "midi": 66,
      "hit": false,
      "t": 56632.61624999968,
      "d": 25.51018749999639,
      "v": 100
    },
    {
      "midi": 68,
      "hit": false,
      "t": 56632.61624999968,
      "d": 25.51018749999639,
      "v": 100
    },
    {
      "midi": 73,
      "hit": false,
      "t": 56632.61624999968,
      "d": 25.51018749999639,
      "v": 110
    },
    {
      "midi": 73,
      "hit": false,
      "t": 56632.616249999825,
      "d": 8.503395833329705,
      "v": 80
    },
    {
      "midi": 65,
      "hit": false,
      "t": 56632.61624999986,
      "d": 8.503395833329705,
      "v": 110
    },
    {
      "midi": 36,
      "hit": false,
      "t": 56734.656999998406,
      "d": 8.503395833329705,
      "v": 114
    },
    {
      "midi": 70,
      "hit": false,
      "t": 56734.656999998406,
      "d": 8.503395833329705,
      "v": 78
    },
    {
      "midi": 42,
      "hit": false,
      "t": 56734.656999998406,
      "d": 8.503395833329705,
      "v": 54
    },
    {
      "midi": 40,
      "hit": false,
      "t": 56734.656999998406,
      "d": 8.503395833329705,
      "v": 100
    },
    {
      "midi": 54,
      "hit": false,
      "t": 56734.65699999957,
      "d": 399.65960416661983,
      "v": 105
    },
    {
      "midi": 59,
      "hit": false,
      "t": 56734.656999999854,
      "d": 8.503395833329705,
      "v": 115
    },
    {
      "midi": 27,
      "hit": false,
      "t": 56836.6977499984,
      "d": 8.503395833329705,
      "v": 70
    },
    {
      "midi": 42,
      "hit": false,
      "t": 56836.6977499984,
      "d": 8.503395833329705,
      "v": 54
    },
    {
      "midi": 64,
      "hit": false,
      "t": 56836.69774999967,
      "d": 25.51018749999639,
      "v": 100
    },
    {
      "midi": 68,
      "hit": false,
      "t": 56836.69774999967,
      "d": 25.51018749999639,
      "v": 100
    },
    {
      "midi": 71,
      "hit": false,
      "t": 56836.69774999967,
      "d": 25.51018749999639,
      "v": 110
    },
    {
      "midi": 59,
      "hit": false,
      "t": 56836.69774999985,
      "d": 8.503395833329705,
      "v": 110
    },
    {
      "midi": 70,
      "hit": false,
      "t": 56938.73849999839,
      "d": 8.503395833329705,
      "v": 78
    },
    {
      "midi": 36,
      "hit": false,
      "t": 56938.73849999839,
      "d": 8.503395833329705,
      "v": 114
    },
    {
      "midi": 46,
      "hit": false,
      "t": 56938.73849999839,
      "d": 8.503395833329705,
      "v": 58
    },
    {
      "midi": 66,
      "hit": false,
      "t": 56938.738499999665,
      "d": 25.51018749999639,
      "v": 100
    },
    {
      "midi": 68,
      "hit": false,
      "t": 56938.738499999665,
      "d": 25.51018749999639,
      "v": 100
    },
    {
      "midi": 73,
      "hit": false,
      "t": 56938.738499999665,
      "d": 25.51018749999639,
      "v": 110
    },
    {
      "midi": 73,
      "hit": false,
      "t": 56938.73849999982,
      "d": 8.503395833329705,
      "v": 80
    },
    {
      "midi": 50,
      "hit": false,
      "t": 56938.73849999984,
      "d": 8.503395833329705,
      "v": 115
    },
    {
      "midi": 57,
      "hit": false,
      "t": 56938.738499999876,
      "d": 1845.2368958333027,
      "v": 123
    },
    {
      "midi": 70,
      "hit": false,
      "t": 57040.779249998384,
      "d": 8.503395833329705,
      "v": 64
    },
    {
      "midi": 50,
      "hit": false,
      "t": 57040.77924999983,
      "d": 8.503395833329705,
      "v": 110
    },
    {
      "midi": 36,
      "hit": false,
      "t": 57142.81999999838,
      "d": 8.503395833329705,
      "v": 114
    },
    {
      "midi": 70,
      "hit": false,
      "t": 57142.81999999838,
      "d": 8.503395833329705,
      "v": 78
    },
    {
      "midi": 42,
      "hit": false,
      "t": 57142.81999999838,
      "d": 8.503395833329705,
      "v": 54
    },
    {
      "midi": 49,
      "hit": false,
      "t": 57142.81999999838,
      "d": 8.503395833329705,
      "v": 100
    },
    {
      "midi": 33,
      "hit": false,
      "t": 57142.81999999952,
      "d": 59.52377083332976,
      "v": 100
    },
    {
      "midi": 61,
      "hit": false,
      "t": 57142.81999999966,
      "d": 25.51018749999639,
      "v": 100
    },
    {
      "midi": 64,
      "hit": false,
      "t": 57142.81999999966,
      "d": 25.51018749999639,
      "v": 100
    },
    {
      "midi": 73,
      "hit": false,
      "t": 57142.81999999966,
      "d": 25.51018749999639,
      "v": 110
    },
    {
      "midi": 71,
      "hit": false,
      "t": 57142.819999999985,
      "d": 1632.6520000000019,
      "v": 104
    },
    {
      "midi": 68,
      "hit": false,
      "t": 57142.819999999985,
      "d": 1632.6520000000019,
      "v": 88
    },
    {
      "midi": 64,
      "hit": false,
      "t": 57142.819999999985,
      "d": 1632.6520000000019,
      "v": 88
    },
    {
      "midi": 88,
      "hit": false,
      "t": 57142.82000000003,
      "d": 1632.6520000000019,
      "v": 121
    },
    {
      "midi": 90,
      "hit": false,
      "t": 57142.82000000003,
      "d": 1632.6520000000019,
      "v": 121
    },
    {
      "midi": 27,
      "hit": false,
      "t": 57244.86074999837,
      "d": 8.503395833329705,
      "v": 70
    },
    {
      "midi": 42,
      "hit": false,
      "t": 57244.86074999837,
      "d": 8.503395833329705,
      "v": 54
    },
    {
      "midi": 33,
      "hit": false,
      "t": 57244.86074999951,
      "d": 51.02037500000006,
      "v": 100
    },
    {
      "midi": 61,
      "hit": false,
      "t": 57244.86074999965,
      "d": 25.51018749999639,
      "v": 100
    },
    {
      "midi": 64,
      "hit": false,
      "t": 57244.86074999965,
      "d": 25.51018749999639,
      "v": 100
    },
    {
      "midi": 73,
      "hit": false,
      "t": 57244.86074999965,
      "d": 25.51018749999639,
      "v": 110
    },
    {
      "midi": 70,
      "hit": false,
      "t": 57346.90149999836,
      "d": 8.503395833329705,
      "v": 78
    },
    {
      "midi": 46,
      "hit": false,
      "t": 57346.90149999836,
      "d": 8.503395833329705,
      "v": 59
    },
    {
      "midi": 32,
      "hit": false,
      "t": 57346.90149999951,
      "d": 170.06791666666686,
      "v": 105
    },
    {
      "midi": 78,
      "hit": false,
      "t": 57346.90149999981,
      "d": 8.503395833329705,
      "v": 80
    },
    {
      "midi": 70,
      "hit": false,
      "t": 57448.942249998356,
      "d": 8.503395833329705,
      "v": 64
    },
    {
      "midi": 27,
      "hit": false,
      "t": 57448.942249998356,
      "d": 8.503395833329705,
      "v": 70
    },
    {
      "midi": 61,
      "hit": false,
      "t": 57448.94224999964,
      "d": 25.51018749999639,
      "v": 100
    },
    {
      "midi": 64,
      "hit": false,
      "t": 57448.94224999964,
      "d": 25.51018749999639,
      "v": 100
    },
    {
      "midi": 71,
      "hit": false,
      "t": 57448.94224999964,
      "d": 25.51018749999639,
      "v": 110
    },
    {
      "midi": 70,
      "hit": false,
      "t": 57550.98299999835,
      "d": 8.503395833329705,
      "v": 78
    },
    {
      "midi": 36,
      "hit": false,
      "t": 57550.98299999835,
      "d": 8.503395833329705,
      "v": 114
    },
    {
      "midi": 38,
      "hit": false,
      "t": 57550.98299999835,
      "d": 8.503395833329705,
      "v": 103
    },
    {
      "midi": 42,
      "hit": false,
      "t": 57550.98299999835,
      "d": 8.503395833329705,
      "v": 54
    },
    {
      "midi": 40,
      "hit": false,
      "t": 57550.98299999835,
      "d": 8.503395833329705,
      "v": 100
    },
    {
      "midi": 35,
      "hit": false,
      "t": 57550.98299999951,
      "d": 195.57810416666325,
      "v": 100
    },
    {
      "midi": 76,
      "hit": false,
      "t": 57550.98299999975,
      "d": 161.56452083332988,
      "v": 120
    },
    {
      "midi": 64,
      "hit": false,
      "t": 57550.98299999978,
      "d": 161.56452083332988,
      "v": 120
    },
    {
      "midi": 27,
      "hit": false,
      "t": 57653.02374999834,
      "d": 8.503395833329705,
      "v": 40
    },
    {
      "midi": 42,
      "hit": false,
      "t": 57653.02374999834,
      "d": 8.503395833329705,
      "v": 54
    },
    {
      "midi": 61,
      "hit": false,
      "t": 57653.02374999964,
      "d": 25.51018749999639,
      "v": 100
    },
    {
      "midi": 64,
      "hit": false,
      "t": 57653.02374999964,
      "d": 25.51018749999639,
      "v": 100
    },
    {
      "midi": 73,
      "hit": false,
      "t": 57653.02374999964,
      "d": 25.51018749999639,
      "v": 110
    },
    {
      "midi": 78,
      "hit": false,
      "t": 57653.023749999804,
      "d": 8.503395833329705,
      "v": 80
    },
    {
      "midi": 70,
      "hit": false,
      "t": 57755.064499998334,
      "d": 8.503395833329705,
      "v": 78
    },
    {
      "midi": 27,
      "hit": false,
      "t": 57755.064499998334,
      "d": 8.503395833329705,
      "v": 70
    },
    {
      "midi": 46,
      "hit": false,
      "t": 57755.064499998334,
      "d": 8.503395833329705,
      "v": 59
    },
    {
      "midi": 33,
      "hit": false,
      "t": 57755.064499999506,
      "d": 85.03395833333343,
      "v": 100
    },
    {
      "midi": 70,
      "hit": false,
      "t": 57857.10524999833,
      "d": 8.503395833329705,
      "v": 64
    },
    {
      "midi": 27,
      "hit": false,
      "t": 57857.10524999833,
      "d": 8.503395833329705,
      "v": 40
    },
    {
      "midi": 38,
      "hit": false,
      "t": 57857.10524999833,
      "d": 8.503395833329705,
      "v": 89
    },
    {
      "midi": 45,
      "hit": false,
      "t": 57857.105249999506,
      "d": 59.52377083332976,
      "v": 100
    },
    {
      "midi": 61,
      "hit": false,
      "t": 57857.10524999963,
      "d": 25.51018749999639,
      "v": 100
    },
    {
      "midi": 64,
      "hit": false,
      "t": 57857.10524999963,
      "d": 25.51018749999639,
      "v": 100
    },
    {
      "midi": 71,
      "hit": false,
      "t": 57857.10524999963,
      "d": 25.51018749999639,
      "v": 110
    },
    {
      "midi": 70,
      "hit": false,
      "t": 57959.14599999832,
      "d": 8.503395833329705,
      "v": 78
    },
    {
      "midi": 36,
      "hit": false,
      "t": 57959.14599999832,
      "d": 8.503395833329705,
      "v": 114
    },
    {
      "midi": 42,
      "hit": false,
      "t": 57959.14599999832,
      "d": 8.503395833329705,
      "v": 54
    },
    {
      "midi": 33,
      "hit": false,
      "t": 57959.1459999995,
      "d": 85.03395833333343,
      "v": 100
    },
    {
      "midi": 78,
      "hit": false,
      "t": 57959.145999999746,
      "d": 195.57810416666325,
      "v": 127
    },
    {
      "midi": 66,
      "hit": false,
      "t": 57959.145999999775,
      "d": 195.57810416666325,
      "v": 127
    },
    {
      "midi": 73,
      "hit": false,
      "t": 57959.1459999998,
      "d": 8.503395833329705,
      "v": 80
    },
    {
      "midi": 27,
      "hit": false,
      "t": 58061.18674999831,
      "d": 8.503395833329705,
      "v": 70
    },
    {
      "midi": 42,
      "hit": false,
      "t": 58061.18674999831,
      "d": 8.503395833329705,
      "v": 54
    },
    {
      "midi": 32,
      "hit": false,
      "t": 58061.1867499995,
      "d": 187.07470833333355,
      "v": 100
    },
    {
      "midi": 61,
      "hit": false,
      "t": 58061.18674999962,
      "d": 25.51018749999639,
      "v": 100
    },
    {
      "midi": 64,
      "hit": false,
      "t": 58061.18674999962,
      "d": 25.51018749999639,
      "v": 100
    },
    {
      "midi": 73,
      "hit": false,
      "t": 58061.18674999962,
      "d": 25.51018749999639,
      "v": 110
    },
    {
      "midi": 70,
      "hit": false,
      "t": 58163.227499998306,
      "d": 8.503395833329705,
      "v": 78
    },
    {
      "midi": 38,
      "hit": false,
      "t": 58163.227499998306,
      "d": 8.503395833329705,
      "v": 107
    },
    {
      "midi": 46,
      "hit": false,
      "t": 58163.227499998306,
      "d": 8.503395833329705,
      "v": 59
    },
    {
      "midi": 40,
      "hit": false,
      "t": 58163.227499998306,
      "d": 8.503395833329705,
      "v": 89
    },
    {
      "midi": 80,
      "hit": false,
      "t": 58163.22749999974,
      "d": 612.2445000000007,
      "v": 127
    },
    {
      "midi": 68,
      "hit": false,
      "t": 58163.22749999977,
      "d": 612.2445000000007,
      "v": 127
    },
    {
      "midi": 70,
      "hit": false,
      "t": 58265.2682499983,
      "d": 8.503395833329705,
      "v": 64
    },
    {
      "midi": 33,
      "hit": false,
      "t": 58265.2682499995,
      "d": 187.07470833333355,
      "v": 106
    },
    {
      "midi": 61,
      "hit": false,
      "t": 58265.268249999615,
      "d": 25.51018749999639,
      "v": 100
    },
    {
      "midi": 64,
      "hit": false,
      "t": 58265.268249999615,
      "d": 25.51018749999639,
      "v": 100
    },
    {
      "midi": 73,
      "hit": false,
      "t": 58265.268249999615,
      "d": 25.51018749999639,
      "v": 110
    },
    {
      "midi": 73,
      "hit": false,
      "t": 58265.26824999979,
      "d": 8.503395833329705,
      "v": 80
    },
    {
      "midi": 36,
      "hit": false,
      "t": 58367.30899999829,
      "d": 8.503395833329705,
      "v": 114
    },
    {
      "midi": 70,
      "hit": false,
      "t": 58367.30899999829,
      "d": 8.503395833329705,
      "v": 78
    },
    {
      "midi": 38,
      "hit": false,
      "t": 58367.30899999829,
      "d": 8.503395833329705,
      "v": 99
    },
    {
      "midi": 42,
      "hit": false,
      "t": 58367.30899999829,
      "d": 8.503395833329705,
      "v": 54
    },
    {
      "midi": 40,
      "hit": false,
      "t": 58367.30899999829,
      "d": 8.503395833329705,
      "v": 100
    },
    {
      "midi": 42,
      "hit": false,
      "t": 58469.349749998284,
      "d": 8.503395833329705,
      "v": 54
    },
    {
      "midi": 33,
      "hit": false,
      "t": 58469.3497499995,
      "d": 68.02716666666674,
      "v": 100
    },
    {
      "midi": 61,
      "hit": false,
      "t": 58469.34974999961,
      "d": 25.51018749999639,
      "v": 100
    },
    {
      "midi": 64,
      "hit": false,
      "t": 58469.34974999961,
      "d": 25.51018749999639,
      "v": 100
    },
    {
      "midi": 71,
      "hit": false,
      "t": 58469.34974999961,
      "d": 25.51018749999639,
      "v": 110
    },
    {
      "midi": 70,
      "hit": false,
      "t": 58571.39049999828,
      "d": 8.503395833329705,
      "v": 78
    },
    {
      "midi": 46,
      "hit": false,
      "t": 58571.39049999828,
      "d": 8.503395833329705,
      "v": 59
    },
    {
      "midi": 32,
      "hit": false,
      "t": 58571.3904999995,
      "d": 187.07470833333355,
      "v": 100
    },
    {
      "midi": 61,
      "hit": false,
      "t": 58571.3904999996,
      "d": 25.51018749999639,
      "v": 100
    },
    {
      "midi": 64,
      "hit": false,
      "t": 58571.3904999996,
      "d": 25.51018749999639,
      "v": 100
    },
    {
      "midi": 73,
      "hit": false,
      "t": 58571.3904999996,
      "d": 25.51018749999639,
      "v": 110
    },
    {
      "midi": 73,
      "hit": false,
      "t": 58571.39049999978,
      "d": 8.503395833329705,
      "v": 80
    },
    {
      "midi": 70,
      "hit": false,
      "t": 58673.43124999827,
      "d": 8.503395833329705,
      "v": 64
    },
    {
      "midi": 38,
      "hit": false,
      "t": 58673.43124999827,
      "d": 8.503395833329705,
      "v": 89
    },
    {
      "midi": 70,
      "hit": false,
      "t": 58775.47199999826,
      "d": 8.503395833329705,
      "v": 78
    },
    {
      "midi": 36,
      "hit": false,
      "t": 58775.47199999826,
      "d": 8.503395833329705,
      "v": 114
    },
    {
      "midi": 42,
      "hit": false,
      "t": 58775.47199999826,
      "d": 8.503395833329705,
      "v": 50
    },
    {
      "midi": 57,
      "hit": false,
      "t": 58775.47199999826,
      "d": 8.503395833329705,
      "v": 93
    },
    {
      "midi": 33,
      "hit": false,
      "t": 58775.4719999995,
      "d": 612.2445000000007,
      "v": 100
    },
    {
      "midi": 52,
      "hit": false,
      "t": 58775.471999999594,
      "d": 816.3260000000009,
      "v": 107
    },
    {
      "midi": 57,
      "hit": false,
      "t": 58775.471999999594,
      "d": 816.3260000000009,
      "v": 107
    },
    {
      "midi": 61,
      "hit": false,
      "t": 58775.471999999594,
      "d": 816.3260000000009,
      "v": 110
    },
    {
      "midi": 81,
      "hit": false,
      "t": 58775.47199999974,
      "d": 612.2445000000007,
      "v": 127
    },
    {
      "midi": 64,
      "hit": false,
      "t": 58775.47199999977,
      "d": 612.2445000000007,
      "v": 127
    },
    {
      "midi": 69,
      "hit": false,
      "t": 58775.47199999977,
      "d": 612.2445000000007,
      "v": 127
    },
    {
      "midi": 85,
      "hit": false,
      "t": 58775.47200000003,
      "d": 782.3124166666676,
      "v": 121
    },
    {
      "midi": 42,
      "hit": false,
      "t": 58877.512749998255,
      "d": 8.503395833329705,
      "v": 50
    },
    {
      "midi": 70,
      "hit": false,
      "t": 58979.55349999825,
      "d": 8.503395833329705,
      "v": 78
    },
    {
      "midi": 42,
      "hit": false,
      "t": 58979.55349999825,
      "d": 8.503395833329705,
      "v": 50
    },
    {
      "midi": 38,
      "hit": false,
      "t": 58979.55349999825,
      "d": 8.503395833329705,
      "v": 92
    },
    {
      "midi": 40,
      "hit": false,
      "t": 58979.55349999825,
      "d": 8.503395833329705,
      "v": 100
    },
    {
      "midi": 78,
      "hit": false,
      "t": 58979.553499999776,
      "d": 8.503395833329705,
      "v": 80
    },
    {
      "midi": 70,
      "hit": false,
      "t": 59081.59424999824,
      "d": 8.503395833329705,
      "v": 64
    },
    {
      "midi": 42,
      "hit": false,
      "t": 59081.59424999824,
      "d": 8.503395833329705,
      "v": 50
    },
    {
      "midi": 36,
      "hit": false,
      "t": 59183.634999998234,
      "d": 8.503395833329705,
      "v": 114
    },
    {
      "midi": 38,
      "hit": false,
      "t": 59183.634999998234,
      "d": 8.503395833329705,
      "v": 110
    },
    {
      "midi": 42,
      "hit": false,
      "t": 59183.634999998234,
      "d": 8.503395833329705,
      "v": 50
    },
    {
      "midi": 70,
      "hit": false,
      "t": 59183.634999998234,
      "d": 8.503395833329705,
      "v": 78
    },
    {
      "midi": 78,
      "hit": false,
      "t": 59285.67574999977,
      "d": 8.503395833329705,
      "v": 80
    },
    {
      "midi": 70,
      "hit": false,
      "t": 59387.71649999823,
      "d": 8.503395833329705,
      "v": 78
    },
    {
      "midi": 27,
      "hit": false,
      "t": 59387.71649999823,
      "d": 8.503395833329705,
      "v": 70
    },
    {
      "midi": 46,
      "hit": false,
      "t": 59387.71649999823,
      "d": 8.503395833329705,
      "v": 45
    },
    {
      "midi": 36,
      "hit": false,
      "t": 59387.71649999823,
      "d": 8.503395833329705,
      "v": 114
    },
    {
      "midi": 49,
      "hit": false,
      "t": 59387.71649999823,
      "d": 8.503395833329705,
      "v": 85
    },
    {
      "midi": 33,
      "hit": false,
      "t": 59387.7164999995,
      "d": 204.08150000000023,
      "v": 100
    },
    {
      "midi": 81,
      "hit": false,
      "t": 59387.71649999974,
      "d": 204.08150000000023,
      "v": 127
    },
    {
      "midi": 64,
      "hit": false,
      "t": 59387.71649999977,
      "d": 204.08150000000023,
      "v": 127
    },
    {
      "midi": 69,
      "hit": false,
      "t": 59387.71649999977,
      "d": 204.08150000000023,
      "v": 127
    },
    {
      "midi": 70,
      "hit": false,
      "t": 59489.75724999822,
      "d": 8.503395833329705,
      "v": 64
    },
    {
      "midi": 27,
      "hit": false,
      "t": 59489.75724999822,
      "d": 8.503395833329705,
      "v": 70
    }
  ]
}