{
  "jsonPath": "Rap/Gangster Rap/DJ Jazzy Jeff  The Fresh Prince/summertime.json",
  "path": "Rap\\Gangster Rap\\DJ Jazzy Jeff  The Fresh Prince\\Summertime.mid",
  "name": "Summertime",
  "difficulty": "Advanced",
  "bpm": 106.00144868646538,
  "notes": [
    {
      "midi": 79,
      "hit": false,
      "t": 10000,
      "d": 305.98958333333394,
      "v": 118
    },
    {
      "midi": 51,
      "hit": false,
      "t": 10000,
      "d": 410.15625,
      "v": 104
    },
    {
      "midi": 55,
      "hit": false,
      "t": 10000,
      "d": 410.15625,
      "v": 104
    },
    {
      "midi": 58,
      "hit": false,
      "t": 10000,
      "d": 410.15625,
      "v": 104
    },
    {
      "midi": 60,
      "hit": false,
      "t": 10000,
      "d": 410.15625,
      "v": 104
    },
    {
      "midi": 62,
      "hit": false,
      "t": 10000,
      "d": 410.15625,
      "v": 104
    },
    {
      "midi": 75,
      "hit": false,
      "t": 10312.5,
      "d": 305.98958333333394,
      "v": 118
    },
    {
      "midi": 74,
      "hit": false,
      "t": 10625,
      "d": 305.98958333333394,
      "v": 118
    },
    {
      "midi": 70,
      "hit": false,
      "t": 10937.5,
      "d": 201.82291666666606,
      "v": 118
    },
    {
      "midi": 57,
      "hit": false,
      "t": 12500,
      "d": 410.15625,
      "v": 104
    },
    {
      "midi": 60,
      "hit": false,
      "t": 12500,
      "d": 410.15625,
      "v": 104
    },
    {
      "midi": 62,
      "hit": false,
      "t": 12500,
      "d": 410.15625,
      "v": 104
    },
    {
      "midi": 65,
      "hit": false,
      "t": 12500,
      "d": 410.15625,
      "v": 104
    },
    {
      "midi": 67,
      "hit": false,
      "t": 12500,
      "d": 410.15625,
      "v": 104
    },
    {
      "midi": 57,
      "hit": false,
      "t": 14375,
      "d": 410.15625,
      "v": 104
    },
    {
      "midi": 60,
      "hit": false,
      "t": 14375,
      "d": 410.15625,
      "v": 104
    },
    {
      "midi": 62,
      "hit": false,
      "t": 14375,
      "d": 410.15625,
      "v": 104
    },
    {
      "midi": 65,
      "hit": false,
      "t": 14375,
      "d": 410.15625,
      "v": 104
    },
    {
      "midi": 67,
      "hit": false,
      "t": 14375,
      "d": 410.15625,
      "v": 104
    },
    {
      "midi": 51,
      "hit": false,
      "t": 15000,
      "d": 410.15625,
      "v": 104
    },
    {
      "midi": 55,
      "hit": false,
      "t": 15000,
      "d": 410.15625,
      "v": 104
    },
    {
      "midi": 58,
      "hit": false,
      "t": 15000,
      "d": 410.15625,
      "v": 104
    },
    {
      "midi": 60,
      "hit": false,
      "t": 15000,
      "d": 410.15625,
      "v": 104
    },
    {
      "midi": 62,
      "hit": false,
      "t": 15000,
      "d": 410.15625,
      "v": 104
    },
    {
      "midi": 91,
      "hit": false,
      "t": 16562.5,
      "d": 52.08333333333212,
      "v": 110
    },
    {
      "midi": 57,
      "hit": false,
      "t": 17500,
      "d": 410.15625,
      "v": 104
    },
    {
      "midi": 60,
      "hit": false,
      "t": 17500,
      "d": 410.15625,
      "v": 104
    },
    {
      "midi": 62,
      "hit": false,
      "t": 17500,
      "d": 410.15625,
      "v": 104
    },
    {
      "midi": 65,
      "hit": false,
      "t": 17500,
      "d": 410.15625,
      "v": 104
    },
    {
      "midi": 67,
      "hit": false,
      "t": 17500,
      "d": 410.15625,
      "v": 104
    },
    {
      "midi": 57,
      "hit": false,
      "t": 19375,
      "d": 410.15625,
      "v": 104
    },
    {
      "midi": 60,
      "hit": false,
      "t": 19375,
      "d": 410.15625,
      "v": 104
    },
    {
      "midi": 62,
      "hit": false,
      "t": 19375,
      "d": 410.15625,
      "v": 104
    },
    {
      "midi": 65,
      "hit": false,
      "t": 19375,
      "d": 410.15625,
      "v": 104
    },
    {
      "midi": 67,
      "hit": false,
      "t": 19375,
      "d": 410.15625,
      "v": 104
    },
    {
      "midi": 51,
      "hit": false,
      "t": 20000,
      "d": 410.15625,
      "v": 104
    },
    {
      "midi": 55,
      "hit": false,
      "t": 20000,
      "d": 410.15625,
      "v": 104
    },
    {
      "midi": 58,
      "hit": false,
      "t": 20000,
      "d": 410.15625,
      "v": 104
    },
    {
      "midi": 60,
      "hit": false,
      "t": 20000,
      "d": 410.15625,
      "v": 104
    },
    {
      "midi": 62,
      "hit": false,
      "t": 20000,
      "d": 410.15625,
      "v": 104
    },
    {
      "midi": 57,
      "hit": false,
      "t": 22500,
      "d": 410.15625,
      "v": 104
    },
    {
      "midi": 60,
      "hit": false,
      "t": 22500,
      "d": 410.15625,
      "v": 104
    },
    {
      "midi": 62,
      "hit": false,
      "t": 22500,
      "d": 410.15625,
      "v": 104
    },
    {
      "midi": 65,
      "hit": false,
      "t": 22500,
      "d": 410.15625,
      "v": 104
    },
    {
      "midi": 67,
      "hit": false,
      "t": 22500,
      "d": 410.15625,
      "v": 104
    },
    {
      "midi": 57,
      "hit": false,
      "t": 24375,
      "d": 410.15625,
      "v": 104
    },
    {
      "midi": 60,
      "hit": false,
      "t": 24375,
      "d": 410.15625,
      "v": 104
    },
    {
      "midi": 62,
      "hit": false,
      "t": 24375,
      "d": 410.15625,
      "v": 104
    },
    {
      "midi": 65,
      "hit": false,
      "t": 24375,
      "d": 410.15625,
      "v": 104
    },
    {
      "midi": 67,
      "hit": false,
      "t": 24375,
      "d": 410.15625,
      "v": 104
    },
    {
      "midi": 51,
      "hit": false,
      "t": 25000,
      "d": 410.15625,
      "v": 104
    },
    {
      "midi": 55,
      "hit": false,
      "t": 25000,
      "d": 410.15625,
      "v": 104
    },
    {
      "midi": 58,
      "hit": false,
      "t": 25000,
      "d": 410.15625,
      "v": 104
    },
    {
      "midi": 60,
      "hit": false,
      "t": 25000,
      "d": 410.15625,
      "v": 104
    },
    {
      "midi": 62,
      "hit": false,
      "t": 25000,
      "d": 410.15625,
      "v": 104
    },
    {
      "midi": 57,
      "hit": false,
      "t": 27500,
      "d": 410.15625,
      "v": 104
    },
    {
      "midi": 60,
      "hit": false,
      "t": 27500,
      "d": 410.15625,
      "v": 104
    },
    {
      "midi": 62,
      "hit": false,
      "t": 27500,
      "d": 410.15625,
      "v": 104
    },
    {
      "midi": 65,
      "hit": false,
      "t": 27500,
      "d": 410.15625,
      "v": 104
    },
    {
      "midi": 67,
      "hit": false,
      "t": 27500,
      "d": 410.15625,
      "v": 104
    },
    {
      "midi": 57,
      "hit": false,
      "t": 29375,
      "d": 410.15625,
      "v": 104
    },
    {
      "midi": 60,
      "hit": false,
      "t": 29375,
      "d": 410.15625,
      "v": 104
    },
    {
      "midi": 62,
      "hit": false,
      "t": 29375,
      "d": 410.15625,
      "v": 104
    },
    {
      "midi": 65,
      "hit": false,
      "t": 29375,
      "d": 410.15625,
      "v": 104
    },
    {
      "midi": 67,
      "hit": false,
      "t": 29375,
      "d": 410.15625,
      "v": 104
    },
    {
      "midi": 51,
      "hit": false,
      "t": 30000,
      "d": 410.15625,
      "v": 104
    },
    {
      "midi": 55,
      "hit": false,
      "t": 30000,
      "d": 410.15625,
      "v": 104
    },
    {
      "midi": 58,
      "hit": false,
      "t": 30000,
      "d": 410.15625,
      "v": 104
    },
    {
      "midi": 60,
      "hit": false,
      "t": 30000,
      "d": 410.15625,
      "v": 104
    },
    {
      "midi": 62,
      "hit": false,
      "t": 30000,
      "d": 410.15625,
      "v": 104
    },
    {
      "midi": 57,
      "hit": false,
      "t": 32500,
      "d": 410.15625,
      "v": 104
    },
    {
      "midi": 60,
      "hit": false,
      "t": 32500,
      "d": 410.15625,
      "v": 104
    },
    {
      "midi": 62,
      "hit": false,
      "t": 32500,
      "d": 410.15625,
      "v": 104
    },
    {
      "midi": 65,
      "hit": false,
      "t": 32500,
      "d": 410.15625,
      "v": 104
    },
    {
      "midi": 67,
      "hit": false,
      "t": 32500,
      "d": 410.15625,
      "v": 104
    },
    {
      "midi": 57,
      "hit": false,
      "t": 34375,
      "d": 410.15625,
      "v": 104
    },
    {
      "midi": 60,
      "hit": false,
      "t": 34375,
      "d": 410.15625,
      "v": 104
    },
    {
      "midi": 62,
      "hit": false,
      "t": 34375,
      "d": 410.15625,
      "v": 104
    },
    {
      "midi": 65,
      "hit": false,
      "t": 34375,
      "d": 410.15625,
      "v": 104
    },
    {
      "midi": 67,
      "hit": false,
      "t": 34375,
      "d": 410.15625,
      "v": 104
    },
    {
      "midi": 51,
      "hit": false,
      "t": 35000,
      "d": 410.15625,
      "v": 104
    },
    {
      "midi": 55,
      "hit": false,
      "t": 35000,
      "d": 410.15625,
      "v": 104
    },
    {
      "midi": 58,
      "hit": false,
      "t": 35000,
      "d": 410.15625,
      "v": 104
    },
    {
      "midi": 60,
      "hit": false,
      "t": 35000,
      "d": 410.15625,
      "v": 104
    },
    {
      "midi": 62,
      "hit": false,
      "t": 35000,
      "d": 410.15625,
      "v": 104
    },
    {
      "midi": 57,
      "hit": false,
      "t": 37500,
      "d": 410.15625,
      "v": 104
    },
    {
      "midi": 60,
      "hit": false,
      "t": 37500,
      "d": 410.15625,
      "v": 104
    },
    {
      "midi": 62,
      "hit": false,
      "t": 37500,
      "d": 410.15625,
      "v": 104
    },
    {
      "midi": 65,
      "hit": false,
      "t": 37500,
      "d": 410.15625,
      "v": 104
    },
    {
      "midi": 67,
      "hit": false,
      "t": 37500,
      "d": 410.15625,
      "v": 104
    },
    {
      "midi": 57,
      "hit": false,
      "t": 39375,
      "d": 410.15625,
      "v": 104
    },
    {
      "midi": 60,
      "hit": false,
      "t": 39375,
      "d": 410.15625,
      "v": 104
    },
    {
      "midi": 62,
      "hit": false,
      "t": 39375,
      "d": 410.15625,
      "v": 104
    },
    {
      "midi": 65,
      "hit": false,
      "t": 39375,
      "d": 410.15625,
      "v": 104
    },
    {
      "midi": 67,
      "hit": false,
      "t": 39375,
      "d": 410.15625,
      "v": 104
    },
    {
      "midi": 55,
      "hit": false,
      "t": 40000,
      "d": 410.15625,
      "v": 104
    },
    {
      "midi": 58,
      "hit": false,
      "t": 40000,
      "d": 410.15625,
      "v": 104
    },
    {
      "midi": 60,
      "hit": false,
      "t": 40000,
      "d": 410.15625,
      "v": 104
    },
    {
      "midi": 62,
      "hit": false,
      "t": 40000,
      "d": 410.15625,
      "v": 104
    },
    {
      "midi": 63,
      "hit": false,
      "t": 40000,
      "d": 410.15625,
      "v": 104
    },
    {
      "midi": 60,
      "hit": false,
      "t": 42500,
      "d": 410.15625,
      "v": 104
    },
    {
      "midi": 62,
      "hit": false,
      "t": 42500,
      "d": 410.15625,
      "v": 104
    },
    {
      "midi": 65,
      "hit": false,
      "t": 42500,
      "d": 410.15625,
      "v": 104
    },
    {
      "midi": 67,
      "hit": false,
      "t": 42500,
      "d": 410.15625,
      "v": 104
    },
    {
      "midi": 69,
      "hit": false,
      "t": 42500,
      "d": 410.15625,
      "v": 104
    },
    {
      "midi": 60,
      "hit": false,
      "t": 44375,
      "d": 410.15625,
      "v": 104
    },
    {
      "midi": 62,
      "hit": false,
      "t": 44375,
      "d": 410.15625,
      "v": 104
    },
    {
      "midi": 65,
      "hit": false,
      "t": 44375,
      "d": 410.15625,
      "v": 104
    },
    {
      "midi": 67,
      "hit": false,
      "t": 44375,
      "d": 410.15625,
      "v": 104
    },
    {
      "midi": 69,
      "hit": false,
      "t": 44375,
      "d": 410.15625,
      "v": 104
    },
    {
      "midi": 55,
      "hit": false,
      "t": 45000,
      "d": 410.15625,
      "v": 104
    },
    {
      "midi": 58,
      "hit": false,
      "t": 45000,
      "d": 410.15625,
      "v": 104
    },
    {
      "midi": 60,
      "hit": false,
      "t": 45000,
      "d": 410.15625,
      "v": 104
    },
    {
      "midi": 62,
      "hit": false,
      "t": 45000,
      "d": 410.15625,
      "v": 104
    },
    {
      "midi": 63,
      "hit": false,
      "t": 45000,
      "d": 410.15625,
      "v": 104
    },
    {
      "midi": 60,
      "hit": false,
      "t": 47500,
      "d": 410.15625,
      "v": 104
    },
    {
      "midi": 62,
      "hit": false,
      "t": 47500,
      "d": 410.15625,
      "v": 104
    },
    {
      "midi": 65,
      "hit": false,
      "t": 47500,
      "d": 410.15625,
      "v": 104
    },
    {
      "midi": 67,
      "hit": false,
      "t": 47500,
      "d": 410.15625,
      "v": 104
    },
    {
      "midi": 69,
      "hit": false,
      "t": 47500,
      "d": 410.15625,
      "v": 104
    },
    {
      "midi": 60,
      "hit": false,
      "t": 49375,
      "d": 410.15625,
      "v": 104
    },
    {
      "midi": 62,
      "hit": false,
      "t": 49375,
      "d": 410.15625,
      "v": 104
    },
    {
      "midi": 65,
      "hit": false,
      "t": 49375,
      "d": 410.15625,
      "v": 104
    },
    {
      "midi": 67,
      "hit": false,
      "t": 49375,
      "d": 410.15625,
      "v": 104
    },
    {
      "midi": 69,
      "hit": false,
      "t": 49375,
      "d": 410.15625,
      "v": 104
    },
    {
      "midi": 51,
      "hit": false,
      "t": 50000,
      "d": 410.15625,
      "v": 104
    },
    {
      "midi": 55,
      "hit": false,
      "t": 50000,
      "d": 410.15625,
      "v": 104
    },
    {
      "midi": 58,
      "hit": false,
      "t": 50000,
      "d": 410.15625,
      "v": 104
    },
    {
      "midi": 60,
      "hit": false,
      "t": 50000,
      "d": 410.15625,
      "v": 104
    },
    {
      "midi": 62,
      "hit": false,
      "t": 50000,
      "d": 410.15625,
      "v": 104
    },
    {
      "midi": 57,
      "hit": false,
      "t": 52500,
      "d": 410.15625,
      "v": 104
    },
    {
      "midi": 60,
      "hit": false,
      "t": 52500,
      "d": 410.15625,
      "v": 104
    },
    {
      "midi": 62,
      "hit": false,
      "t": 52500,
      "d": 410.15625,
      "v": 104
    },
    {
      "midi": 65,
      "hit": false,
      "t": 52500,
      "d": 410.15625,
      "v": 104
    },
    {
      "midi": 67,
      "hit": false,
      "t": 52500,
      "d": 410.15625,
      "v": 104
    },
    {
      "midi": 57,
      "hit": false,
      "t": 54375,
      "d": 410.15625,
      "v": 104
    },
    {
      "midi": 60,
      "hit": false,
      "t": 54375,
      "d": 410.15625,
      "v": 104
    },
    {
      "midi": 62,
      "hit": false,
      "t": 54375,
      "d": 410.15625,
      "v": 104
    },
    {
      "midi": 65,
      "hit": false,
      "t": 54375,
      "d": 410.15625,
      "v": 104
    },
    {
      "midi": 67,
      "hit": false,
      "t": 54375,
      "d": 410.15625,
      "v": 104
    },
    {
      "midi": 51,
      "hit": false,
      "t": 55000,
      "d": 410.15625,
      "v": 104
    },
    {
      "midi": 55,
      "hit": false,
      "t": 55000,
      "d": 410.15625,
      "v": 104
    },
    {
      "midi": 58,
      "hit": false,
      "t": 55000,
      "d": 410.15625,
      "v": 104
    },
    {
      "midi": 60,
      "hit": false,
      "t": 55000,
      "d": 410.15625,
      "v": 104
    },
    {
      "midi": 62,
      "hit": false,
      "t": 55000,
      "d": 410.15625,
      "v": 104
    },
    {
      "midi": 57,
      "hit": false,
      "t": 57500,
      "d": 410.15625,
      "v": 104
    },
    {
      "midi": 60,
      "hit": false,
      "t": 57500,
      "d": 410.15625,
      "v": 104
    },
    {
      "midi": 62,
      "hit": false,
      "t": 57500,
      "d": 410.15625,
      "v": 104
    },
    {
      "midi": 65,
      "hit": false,
      "t": 57500,
      "d": 410.15625,
      "v": 104
    },
    {
      "midi": 67,
      "hit": false,
      "t": 57500,
      "d": 410.15625,
      "v": 104
    },
    {
      "midi": 57,
      "hit": false,
      "t": 59375,
      "d": 410.15625,
      "v": 104
    },
    {
      "midi": 60,
      "hit": false,
      "t": 59375,
      "d": 410.15625,
      "v": 104
    },
    {
      "midi": 62,
      "hit": false,
      "t": 59375,
      "d": 410.15625,
      "v": 104
    },
    {
      "midi": 65,
      "hit": false,
      "t": 59375,
      "d": 410.15625,
      "v": 104
    },
    {
      "midi": 67,
      "hit": false,
      "t": 59375,
      "d": 410.15625,
      "v": 104
    },
    {
      "midi": 51,
      "hit": false,
      "t": 60000,
      "d": 410.15625,
      "v": 104
    },
    {
      "midi": 55,
      "hit": false,
      "t": 60000,
      "d": 410.15625,
      "v": 104
    },
    {
      "midi": 58,
      "hit": false,
      "t": 60000,
      "d": 410.15625,
      "v": 104
    },
    {
      "midi": 60,
      "hit": false,
      "t": 60000,
      "d": 410.15625,
      "v": 104
    },
    {
      "midi": 62,
      "hit": false,
      "t": 60000,
      "d": 410.15625,
      "v": 104
    },
    {
      "midi": 57,
      "hit": false,
      "t": 62500,
      "d": 410.15625,
      "v": 104
    },
    {
      "midi": 60,
      "hit": false,
      "t": 62500,
      "d": 410.15625,
      "v": 104
    },
    {
      "midi": 62,
      "hit": false,
      "t": 62500,
      "d": 410.15625,
      "v": 104
    },
    {
      "midi": 65,
      "hit": false,
      "t": 62500,
      "d": 410.15625,
      "v": 104
    },
    {
      "midi": 67,
      "hit": false,
      "t": 62500,
      "d": 410.15625,
      "v": 104
    },
    {
      "midi": 57,
      "hit": false,
      "t": 64375,
      "d": 410.15625,
      "v": 104
    },
    {
      "midi": 60,
      "hit": false,
      "t": 64375,
      "d": 410.15625,
      "v": 104
    },
    {
      "midi": 62,
      "hit": false,
      "t": 64375,
      "d": 410.15625,
      "v": 104
    },
    {
      "midi": 65,
      "hit": false,
      "t": 64375,
      "d": 410.15625,
      "v": 104
    },
    {
      "midi": 67,
      "hit": false,
      "t": 64375,
      "d": 410.15625,
      "v": 104
    },
    {
      "midi": 51,
      "hit": false,
      "t": 65000,
      "d": 410.15625,
      "v": 104
    },
    {
      "midi": 55,
      "hit": false,
      "t": 65000,
      "d": 410.15625,
      "v": 104
    },
    {
      "midi": 58,
      "hit": false,
      "t": 65000,
      "d": 410.15625,
      "v": 104
    },
    {
      "midi": 60,
      "hit": false,
      "t": 65000,
      "d": 410.15625,
      "v": 104
    },
    {
      "midi": 62,
      "hit": false,
      "t": 65000,
      "d": 410.15625,
      "v": 104
    },
    {
      "midi": 57,
      "hit": false,
      "t": 67500,
      "d": 410.15625,
      "v": 104
    },
    {
      "midi": 60,
      "hit": false,
      "t": 67500,
      "d": 410.15625,
      "v": 104
    },
    {
      "midi": 62,
      "hit": false,
      "t": 67500,
      "d": 410.15625,
      "v": 104
    },
    {
      "midi": 65,
      "hit": false,
      "t": 67500,
      "d": 410.15625,
      "v": 104
    },
    {
      "midi": 67,
      "hit": false,
      "t": 67500,
      "d": 410.15625,
      "v": 104
    },
    {
      "midi": 57,
      "hit": false,
      "t": 69375,
      "d": 410.15625,
      "v": 104
    },
    {
      "midi": 60,
      "hit": false,
      "t": 69375,
      "d": 410.15625,
      "v": 104
    },
    {
      "midi": 62,
      "hit": false,
      "t": 69375,
      "d": 410.15625,
      "v": 104
    },
    {
      "midi": 65,
      "hit": false,
      "t": 69375,
      "d": 410.15625,
      "v": 104
    },
    {
      "midi": 67,
      "hit": false,
      "t": 69375,
      "d": 410.15625,
      "v": 104
    },
    {
      "midi": 51,
      "hit": false,
      "t": 70000,
      "d": 410.15625,
      "v": 104
    },
    {
      "midi": 55,
      "hit": false,
      "t": 70000,
      "d": 410.15625,
      "v": 104
    },
    {
      "midi": 58,
      "hit": false,
      "t": 70000,
      "d": 410.15625,
      "v": 104
    },
    {
      "midi": 60,
      "hit": false,
      "t": 70000,
      "d": 410.15625,
      "v": 104
    },
    {
      "midi": 62,
      "hit": false,
      "t": 70000,
      "d": 410.15625,
      "v": 104
    },
    {
      "midi": 57,
      "hit": false,
      "t": 72500,
      "d": 410.15625,
      "v": 104
    },
    {
      "midi": 60,
      "hit": false,
      "t": 72500,
      "d": 410.15625,
      "v": 104
    },
    {
      "midi": 62,
      "hit": false,
      "t": 72500,
      "d": 410.15625,
      "v": 104
    },
    {
      "midi": 65,
      "hit": false,
      "t": 72500,
      "d": 410.15625,
      "v": 104
    },
    {
      "midi": 67,
      "hit": false,
      "t": 72500,
      "d": 410.15625,
      "v": 104
    },
    {
      "midi": 57,
      "hit": false,
      "t": 74375,
      "d": 410.15625,
      "v": 104
    },
    {
      "midi": 60,
      "hit": false,
      "t": 74375,
      "d": 410.15625,
      "v": 104
    },
    {
      "midi": 62,
      "hit": false,
      "t": 74375,
      "d": 410.15625,
      "v": 104
    },
    {
      "midi": 65,
      "hit": false,
      "t": 74375,
      "d": 410.15625,
      "v": 104
    },
    {
      "midi": 67,
      "hit": false,
      "t": 74375,
      "d": 410.15625,
      "v": 104
    },
    {
      "midi": 51,
      "hit": false,
      "t": 75000,
      "d": 410.15625,
      "v": 104
    },
    {
      "midi": 55,
      "hit": false,
      "t": 75000,
      "d": 410.15625,
      "v": 104
    },
    {
      "midi": 58,
      "hit": false,
      "t": 75000,
      "d": 410.15625,
      "v": 104
    },
    {
      "midi": 60,
      "hit": false,
      "t": 75000,
      "d": 410.15625,
      "v": 104
    },
    {
      "midi": 62,
      "hit": false,
      "t": 75000,
      "d": 410.15625,
      "v": 104
    },
    {
      "midi": 57,
      "hit": false,
      "t": 77500,
      "d": 410.15625,
      "v": 104
    },
    {
      "midi": 60,
      "hit": false,
      "t": 77500,
      "d": 410.15625,
      "v": 104
    },
    {
      "midi": 62,
      "hit": false,
      "t": 77500,
      "d": 410.15625,
      "v": 104
    },
    {
      "midi": 65,
      "hit": false,
      "t": 77500,
      "d": 410.15625,
      "v": 104
    },
    {
      "midi": 67,
      "hit": false,
      "t": 77500,
      "d": 410.15625,
      "v": 104
    },
    {
      "midi": 57,
      "hit": false,
      "t": 79375,
      "d": 410.15625,
      "v": 104
    },
    {
      "midi": 60,
      "hit": false,
      "t": 79375,
      "d": 410.15625,
      "v": 104
    },
    {
      "midi": 62,
      "hit": false,
      "t": 79375,
      "d": 410.15625,
      "v": 104
    },
    {
      "midi": 65,
      "hit": false,
      "t": 79375,
      "d": 410.15625,
      "v": 104
    },
    {
      "midi": 67,
      "hit": false,
      "t": 79375,
      "d": 410.15625,
      "v": 104
    },
    {
      "midi": 51,
      "hit": false,
      "t": 80000,
      "d": 410.15625,
      "v": 104
    },
    {
      "midi": 55,
      "hit": false,
      "t": 80000,
      "d": 410.15625,
      "v": 104
    },
    {
      "midi": 58,
      "hit": false,
      "t": 80000,
      "d": 410.15625,
      "v": 104
    },
    {
      "midi": 60,
      "hit": false,
      "t": 80000,
      "d": 410.15625,
      "v": 104
    },
    {
      "midi": 62,
      "hit": false,
      "t": 80000,
      "d": 410.15625,
      "v": 104
    },
    {
      "midi": 57,
      "hit": false,
      "t": 82500,
      "d": 410.15625,
      "v": 104
    },
    {
      "midi": 60,
      "hit": false,
      "t": 82500,
      "d": 410.15625,
      "v": 104
    },
    {
      "midi": 62,
      "hit": false,
      "t": 82500,
      "d": 410.15625,
      "v": 104
    },
    {
      "midi": 65,
      "hit": false,
      "t": 82500,
      "d": 410.15625,
      "v": 104
    },
    {
      "midi": 67,
      "hit": false,
      "t": 82500,
      "d": 410.15625,
      "v": 104
    },
    {
      "midi": 57,
      "hit": false,
      "t": 84375,
      "d": 410.15625,
      "v": 104
    },
    {
      "midi": 60,
      "hit": false,
      "t": 84375,
      "d": 410.15625,
      "v": 104
    },
    {
      "midi": 62,
      "hit": false,
      "t": 84375,
      "d": 410.15625,
      "v": 104
    },
    {
      "midi": 65,
      "hit": false,
      "t": 84375,
      "d": 410.15625,
      "v": 104
    },
    {
      "midi": 67,
      "hit": false,
      "t": 84375,
      "d": 410.15625,
      "v": 104
    },
    {
      "midi": 51,
      "hit": false,
      "t": 85000,
      "d": 410.15625,
      "v": 104
    },
    {
      "midi": 55,
      "hit": false,
      "t": 85000,
      "d": 410.15625,
      "v": 104
    },
    {
      "midi": 58,
      "hit": false,
      "t": 85000,
      "d": 410.15625,
      "v": 104
    },
    {
      "midi": 60,
      "hit": false,
      "t": 85000,
      "d": 410.15625,
      "v": 104
    },
    {
      "midi": 62,
      "hit": false,
      "t": 85000,
      "d": 410.15625,
      "v": 104
    },
    {
      "midi": 57,
      "hit": false,
      "t": 87500,
      "d": 410.15625,
      "v": 104
    },
    {
      "midi": 60,
      "hit": false,
      "t": 87500,
      "d": 410.15625,
      "v": 104
    },
    {
      "midi": 62,
      "hit": false,
      "t": 87500,
      "d": 410.15625,
      "v": 104
    },
    {
      "midi": 65,
      "hit": false,
      "t": 87500,
      "d": 410.15625,
      "v": 104
    },
    {
      "midi": 67,
      "hit": false,
      "t": 87500,
      "d": 410.15625,
      "v": 104
    },
    {
      "midi": 57,
      "hit": false,
      "t": 89375,
      "d": 410.15625,
      "v": 104
    },
    {
      "midi": 60,
      "hit": false,
      "t": 89375,
      "d": 410.15625,
      "v": 104
    },
    {
      "midi": 62,
      "hit": false,
      "t": 89375,
      "d": 410.15625,
      "v": 104
    },
    {
      "midi": 65,
      "hit": false,
      "t": 89375,
      "d": 410.15625,
      "v": 104
    },
    {
      "midi": 67,
      "hit": false,
      "t": 89375,
      "d": 410.15625,
      "v": 104
    },
    {
      "midi": 51,
      "hit": false,
      "t": 90000,
      "d": 410.15625,
      "v": 104
    },
    {
      "midi": 55,
      "hit": false,
      "t": 90000,
      "d": 410.15625,
      "v": 104
    },
    {
      "midi": 58,
      "hit": false,
      "t": 90000,
      "d": 410.15625,
      "v": 104
    },
    {
      "midi": 60,
      "hit": false,
      "t": 90000,
      "d": 410.15625,
      "v": 104
    },
    {
      "midi": 62,
      "hit": false,
      "t": 90000,
      "d": 410.15625,
      "v": 104
    },
    {
      "midi": 57,
      "hit": false,
      "t": 92500,
      "d": 410.15625,
      "v": 104
    },
    {
      "midi": 60,
      "hit": false,
      "t": 92500,
      "d": 410.15625,
      "v": 104
    },
    {
      "midi": 62,
      "hit": false,
      "t": 92500,
      "d": 410.15625,
      "v": 104
    },
    {
      "midi": 65,
      "hit": false,
      "t": 92500,
      "d": 410.15625,
      "v": 104
    },
    {
      "midi": 67,
      "hit": false,
      "t": 92500,
      "d": 410.15625,
      "v": 104
    },
    {
      "midi": 57,
      "hit": false,
      "t": 94375,
      "d": 410.15625,
      "v": 104
    },
    {
      "midi": 60,
      "hit": false,
      "t": 94375,
      "d": 410.15625,
      "v": 104
    },
    {
      "midi": 62,
      "hit": false,
      "t": 94375,
      "d": 410.15625,
      "v": 104
    },
    {
      "midi": 65,
      "hit": false,
      "t": 94375,
      "d": 410.15625,
      "v": 104
    },
    {
      "midi": 67,
      "hit": false,
      "t": 94375,
      "d": 410.15625,
      "v": 104
    },
    {
      "midi": 51,
      "hit": false,
      "t": 95000,
      "d": 410.15625,
      "v": 104
    },
    {
      "midi": 55,
      "hit": false,
      "t": 95000,
      "d": 410.15625,
      "v": 104
    },
    {
      "midi": 58,
      "hit": false,
      "t": 95000,
      "d": 410.15625,
      "v": 104
    },
    {
      "midi": 60,
      "hit": false,
      "t": 95000,
      "d": 410.15625,
      "v": 104
    },
    {
      "midi": 62,
      "hit": false,
      "t": 95000,
      "d": 410.15625,
      "v": 104
    },
    {
      "midi": 57,
      "hit": false,
      "t": 97500,
      "d": 410.15625,
      "v": 104
    },
    {
      "midi": 60,
      "hit": false,
      "t": 97500,
      "d": 410.15625,
      "v": 104
    },
    {
      "midi": 62,
      "hit": false,
      "t": 97500,
      "d": 410.15625,
      "v": 104
    },
    {
      "midi": 65,
      "hit": false,
      "t": 97500,
      "d": 410.15625,
      "v": 104
    },
    {
      "midi": 67,
      "hit": false,
      "t": 97500,
      "d": 410.15625,
      "v": 104
    },
    {
      "midi": 57,
      "hit": false,
      "t": 99375,
      "d": 410.15625,
      "v": 104
    },
    {
      "midi": 60,
      "hit": false,
      "t": 99375,
      "d": 410.15625,
      "v": 104
    },
    {
      "midi": 62,
      "hit": false,
      "t": 99375,
      "d": 410.15625,
      "v": 104
    },
    {
      "midi": 65,
      "hit": false,
      "t": 99375,
      "d": 410.15625,
      "v": 104
    },
    {
      "midi": 67,
      "hit": false,
      "t": 99375,
      "d": 410.15625,
      "v": 104
    },
    {
      "midi": 55,
      "hit": false,
      "t": 100000,
      "d": 410.15625,
      "v": 104
    },
    {
      "midi": 58,
      "hit": false,
      "t": 100000,
      "d": 410.15625,
      "v": 104
    },
    {
      "midi": 60,
      "hit": false,
      "t": 100000,
      "d": 410.15625,
      "v": 104
    },
    {
      "midi": 62,
      "hit": false,
      "t": 100000,
      "d": 410.15625,
      "v": 104
    },
    {
      "midi": 63,
      "hit": false,
      "t": 100000,
      "d": 410.15625,
      "v": 104
    },
    {
      "midi": 60,
      "hit": false,
      "t": 102500,
      "d": 410.15625,
      "v": 104
    },
    {
      "midi": 62,
      "hit": false,
      "t": 102500,
      "d": 410.15625,
      "v": 104
    },
    {
      "midi": 65,
      "hit": false,
      "t": 102500,
      "d": 410.15625,
      "v": 104
    },
    {
      "midi": 67,
      "hit": false,
      "t": 102500,
      "d": 410.15625,
      "v": 104
    },
    {
      "midi": 69,
      "hit": false,
      "t": 102500,
      "d": 410.15625,
      "v": 104
    },
    {
      "midi": 67,
      "hit": false,
      "t": 104791.66666666667,
      "d": 410.15624999998545,
      "v": 104
    },
    {
      "midi": 63,
      "hit": false,
      "t": 104843.75,
      "d": 410.15625,
      "v": 104
    },
    {
      "midi": 62,
      "hit": false,
      "t": 104895.83333333333,
      "d": 410.15625,
      "v": 104
    },
    {
      "midi": 60,
      "hit": false,
      "t": 104947.91666666666,
      "d": 410.15625,
      "v": 104
    },
    {
      "midi": 58,
      "hit": false,
      "t": 104999.99999999999,
      "d": 410.15625,
      "v": 104
    },
    {
      "midi": 60,
      "hit": false,
      "t": 107499.99999999999,
      "d": 410.15625,
      "v": 104
    },
    {
      "midi": 62,
      "hit": false,
      "t": 107499.99999999999,
      "d": 410.15625,
      "v": 104
    },
    {
      "midi": 65,
      "hit": false,
      "t": 107499.99999999999,
      "d": 410.15625,
      "v": 104
    },
    {
      "midi": 67,
      "hit": false,
      "t": 107499.99999999999,
      "d": 410.15625,
      "v": 104
    },
    {
      "midi": 69,
      "hit": false,
      "t": 107499.99999999999,
      "d": 410.15625,
      "v": 104
    },
    {
      "midi": 60,
      "hit": false,
      "t": 109374.99999999999,
      "d": 410.15625,
      "v": 104
    },
    {
      "midi": 62,
      "hit": false,
      "t": 109374.99999999999,
      "d": 410.15625,
      "v": 104
    },
    {
      "midi": 65,
      "hit": false,
      "t": 109374.99999999999,
      "d": 410.15625,
      "v": 104
    },
    {
      "midi": 67,
      "hit": false,
      "t": 109374.99999999999,
      "d": 410.15625,
      "v": 104
    },
    {
      "midi": 69,
      "hit": false,
      "t": 109374.99999999999,
      "d": 410.15625,
      "v": 104
    },
    {
      "midi": 55,
      "hit": false,
      "t": 109999.99999999999,
      "d": 410.15625,
      "v": 104
    },
    {
      "midi": 58,
      "hit": false,
      "t": 109999.99999999999,
      "d": 410.15625,
      "v": 104
    },
    {
      "midi": 60,
      "hit": false,
      "t": 109999.99999999999,
      "d": 410.15625,
      "v": 104
    },
    {
      "midi": 62,
      "hit": false,
      "t": 109999.99999999999,
      "d": 410.15625,
      "v": 104
    },
    {
      "midi": 63,
      "hit": false,
      "t": 109999.99999999999,
      "d": 410.15625,
      "v": 104
    },
    {
      "midi": 60,
      "hit": false,
      "t": 112499.99999999999,
      "d": 410.15625,
      "v": 104
    },
    {
      "midi": 62,
      "hit": false,
      "t": 112499.99999999999,
      "d": 410.15625,
      "v": 104
    },
    {
      "midi": 65,
      "hit": false,
      "t": 112499.99999999999,
      "d": 410.15625,
      "v": 104
    },
    {
      "midi": 67,
      "hit": false,
      "t": 112499.99999999999,
      "d": 410.15625,
      "v": 104
    },
    {
      "midi": 69,
      "hit": false,
      "t": 112499.99999999999,
      "d": 410.15625,
      "v": 104
    },
    {
      "midi": 67,
      "hit": false,
      "t": 114791.66666666666,
      "d": 410.15624999998545,
      "v": 104
    },
    {
      "midi": 63,
      "hit": false,
      "t": 114843.74999999999,
      "d": 410.15625,
      "v": 104
    },
    {
      "midi": 62,
      "hit": false,
      "t": 114895.83333333331,
      "d": 410.15625,
      "v": 104
    },
    {
      "midi": 60,
      "hit": false,
      "t": 114947.91666666664,
      "d": 410.15625,
      "v": 104
    },
    {
      "midi": 58,
      "hit": false,
      "t": 114999.99999999997,
      "d": 410.15625,
      "v": 104
    },
    {
      "midi": 60,
      "hit": false,
      "t": 117499.99999999997,
      "d": 410.15625,
      "v": 104
    },
    {
      "midi": 62,
      "hit": false,
      "t": 117499.99999999997,
      "d": 410.15625,
      "v": 104
    },
    {
      "midi": 65,
      "hit": false,
      "t": 117499.99999999997,
      "d": 410.15625,
      "v": 104
    },
    {
      "midi": 67,
      "hit": false,
      "t": 117499.99999999997,
      "d": 410.15625,
      "v": 104
    },
    {
      "midi": 69,
      "hit": false,
      "t": 117499.99999999997,
      "d": 410.15625,
      "v": 104
    },
    {
      "midi": 60,
      "hit": false,
      "t": 119374.99999999997,
      "d": 410.15625,
      "v": 104
    },
    {
      "midi": 62,
      "hit": false,
      "t": 119374.99999999997,
      "d": 410.15625,
      "v": 104
    },
    {
      "midi": 65,
      "hit": false,
      "t": 119374.99999999997,
      "d": 410.15625,
      "v": 104
    },
    {
      "midi": 67,
      "hit": false,
      "t": 119374.99999999997,
      "d": 410.15625,
      "v": 104
    },
    {
      "midi": 69,
      "hit": false,
      "t": 119374.99999999997,
      "d": 410.15625,
      "v": 104
    },
    {
      "midi": 55,
      "hit": false,
      "t": 119999.99999999997,
      "d": 410.15625,
      "v": 104
    },
    {
      "midi": 58,
      "hit": false,
      "t": 119999.99999999997,
      "d": 410.15625,
      "v": 104
    },
    {
      "midi": 60,
      "hit": false,
      "t": 119999.99999999997,
      "d": 410.15625,
      "v": 104
    },
    {
      "midi": 62,
      "hit": false,
      "t": 119999.99999999997,
      "d": 410.15625,
      "v": 104
    },
    {
      "midi": 63,
      "hit": false,
      "t": 119999.99999999997,
      "d": 410.15625,
      "v": 104
    },
    {
      "midi": 60,
      "hit": false,
      "t": 122499.99999999997,
      "d": 410.15625,
      "v": 104
    },
    {
      "midi": 62,
      "hit": false,
      "t": 122499.99999999997,
      "d": 410.15625,
      "v": 104
    },
    {
      "midi": 65,
      "hit": false,
      "t": 122499.99999999997,
      "d": 410.15625,
      "v": 104
    },
    {
      "midi": 67,
      "hit": false,
      "t": 122499.99999999997,
      "d": 410.15625,
      "v": 104
    },
    {
      "midi": 69,
      "hit": false,
      "t": 122499.99999999997,
      "d": 410.15625,
      "v": 104
    },
    {
      "midi": 60,
      "hit": false,
      "t": 124374.99999999997,
      "d": 410.15625,
      "v": 104
    },
    {
      "midi": 62,
      "hit": false,
      "t": 124374.99999999997,
      "d": 410.15625,
      "v": 104
    },
    {
      "midi": 65,
      "hit": false,
      "t": 124374.99999999997,
      "d": 410.15625,
      "v": 104
    },
    {
      "midi": 67,
      "hit": false,
      "t": 124374.99999999997,
      "d": 410.15625,
      "v": 104
    },
    {
      "midi": 69,
      "hit": false,
      "t": 124374.99999999997,
      "d": 410.15625,
      "v": 104
    },
    {
      "midi": 55,
      "hit": false,
      "t": 124999.99999999997,
      "d": 410.15625,
      "v": 104
    },
    {
      "midi": 58,
      "hit": false,
      "t": 124999.99999999997,
      "d": 410.15625,
      "v": 104
    },
    {
      "midi": 60,
      "hit": false,
      "t": 124999.99999999997,
      "d": 410.15625,
      "v": 104
    },
    {
      "midi": 62,
      "hit": false,
      "t": 124999.99999999997,
      "d": 410.15625,
      "v": 104
    },
    {
      "midi": 63,
      "hit": false,
      "t": 124999.99999999997,
      "d": 410.15625,
      "v": 104
    },
    {
      "midi": 60,
      "hit": false,
      "t": 127499.99999999997,
      "d": 410.15625,
      "v": 104
    },
    {
      "midi": 62,
      "hit": false,
      "t": 127499.99999999997,
      "d": 410.15625,
      "v": 104
    },
    {
      "midi": 65,
      "hit": false,
      "t": 127499.99999999997,
      "d": 410.15625,
      "v": 104
    },
    {
      "midi": 67,
      "hit": false,
      "t": 127499.99999999997,
      "d": 410.15625,
      "v": 104
    },
    {
      "midi": 69,
      "hit": false,
      "t": 127499.99999999997,
      "d": 410.15625,
      "v": 104
    },
    {
      "midi": 51,
      "hit": false,
      "t": 129999.99999999997,
      "d": 410.15625,
      "v": 104
    },
    {
      "midi": 55,
      "hit": false,
      "t": 129999.99999999997,
      "d": 410.15625,
      "v": 104
    },
    {
      "midi": 58,
      "hit": false,
      "t": 129999.99999999997,
      "d": 410.15625,
      "v": 104
    },
    {
      "midi": 60,
      "hit": false,
      "t": 129999.99999999997,
      "d": 410.15625,
      "v": 104
    },
    {
      "midi": 62,
      "hit": false,
      "t": 129999.99999999997,
      "d": 410.15625,
      "v": 104
    },
    {
      "midi": 57,
      "hit": false,
      "t": 132499.99999999997,
      "d": 410.15625,
      "v": 104
    },
    {
      "midi": 60,
      "hit": false,
      "t": 132499.99999999997,
      "d": 410.15625,
      "v": 104
    },
    {
      "midi": 62,
      "hit": false,
      "t": 132499.99999999997,
      "d": 410.15625,
      "v": 104
    },
    {
      "midi": 65,
      "hit": false,
      "t": 132499.99999999997,
      "d": 410.15625,
      "v": 104
    },
    {
      "midi": 67,
      "hit": false,
      "t": 132499.99999999997,
      "d": 410.15625,
      "v": 104
    },
    {
      "midi": 57,
      "hit": false,
      "t": 134374.99999999997,
      "d": 410.15625,
      "v": 104
    },
    {
      "midi": 60,
      "hit": false,
      "t": 134374.99999999997,
      "d": 410.15625,
      "v": 104
    },
    {
      "midi": 62,
      "hit": false,
      "t": 134374.99999999997,
      "d": 410.15625,
      "v": 104
    },
    {
      "midi": 65,
      "hit": false,
      "t": 134374.99999999997,
      "d": 410.15625,
      "v": 104
    },
    {
      "midi": 67,
      "hit": false,
      "t": 134374.99999999997,
      "d": 410.15625,
      "v": 104
    },
    {
      "midi": 51,
      "hit": false,
      "t": 134999.99999999997,
      "d": 410.15625,
      "v": 104
    },
    {
      "midi": 55,
      "hit": false,
      "t": 134999.99999999997,
      "d": 410.15625,
      "v": 104
    },
    {
      "midi": 58,
      "hit": false,
      "t": 134999.99999999997,
      "d": 410.15625,
      "v": 104
    },
    {
      "midi": 60,
      "hit": false,
      "t": 134999.99999999997,
      "d": 410.15625,
      "v": 104
    },
    {
      "midi": 62,
      "hit": false,
      "t": 134999.99999999997,
      "d": 410.15625,
      "v": 104
    },
    {
      "midi": 57,
      "hit": false,
      "t": 137499.99999999997,
      "d": 410.15625,
      "v": 104
    },
    {
      "midi": 60,
      "hit": false,
      "t": 137499.99999999997,
      "d": 410.15625,
      "v": 104
    },
    {
      "midi": 62,
      "hit": false,
      "t": 137499.99999999997,
      "d": 410.15625,
      "v": 104
    },
    {
      "midi": 65,
      "hit": false,
      "t": 137499.99999999997,
      "d": 410.15625,
      "v": 104
    },
    {
      "midi": 67,
      "hit": false,
      "t": 137499.99999999997,
      "d": 410.15625,
      "v": 104
    },
    {
      "midi": 57,
      "hit": false,
      "t": 139374.99999999997,
      "d": 410.15625,
      "v": 104
    },
    {
      "midi": 60,
      "hit": false,
      "t": 139374.99999999997,
      "d": 410.15625,
      "v": 104
    },
    {
      "midi": 62,
      "hit": false,
      "t": 139374.99999999997,
      "d": 410.15625,
      "v": 104
    },
    {
      "midi": 65,
      "hit": false,
      "t": 139374.99999999997,
      "d": 410.15625,
      "v": 104
    },
    {
      "midi": 67,
      "hit": false,
      "t": 139374.99999999997,
      "d": 410.15625,
      "v": 104
    },
    {
      "midi": 51,
      "hit": false,
      "t": 139999.99999999997,
      "d": 410.15625,
      "v": 104
    },
    {
      "midi": 55,
      "hit": false,
      "t": 139999.99999999997,
      "d": 410.15625,
      "v": 104
    },
    {
      "midi": 58,
      "hit": false,
      "t": 139999.99999999997,
      "d": 410.15625,
      "v": 104
    },
    {
      "midi": 60,
      "hit": false,
      "t": 139999.99999999997,
      "d": 410.15625,
      "v": 104
    },
    {
      "midi": 62,
      "hit": false,
      "t": 139999.99999999997,
      "d": 410.15625,
      "v": 104
    },
    {
      "midi": 57,
      "hit": false,
      "t": 142499.99999999997,
      "d": 410.15625,
      "v": 104
    },
    {
      "midi": 60,
      "hit": false,
      "t": 142499.99999999997,
      "d": 410.15625,
      "v": 104
    },
    {
      "midi": 62,
      "hit": false,
      "t": 142499.99999999997,
      "d": 410.15625,
      "v": 104
    },
    {
      "midi": 65,
      "hit": false,
      "t": 142499.99999999997,
      "d": 410.15625,
      "v": 104
    },
    {
      "midi": 67,
      "hit": false,
      "t": 142499.99999999997,
      "d": 410.15625,
      "v": 104
    },
    {
      "midi": 57,
      "hit": false,
      "t": 144374.99999999997,
      "d": 410.15625,
      "v": 104
    },
    {
      "midi": 60,
      "hit": false,
      "t": 144374.99999999997,
      "d": 410.15625,
      "v": 104
    },
    {
      "midi": 62,
      "hit": false,
      "t": 144374.99999999997,
      "d": 410.15625,
      "v": 104
    },
    {
      "midi": 65,
      "hit": false,
      "t": 144374.99999999997,
      "d": 410.15625,
      "v": 104
    },
    {
      "midi": 67,
      "hit": false,
      "t": 144374.99999999997,
      "d": 410.15625,
      "v": 104
    },
    {
      "midi": 51,
      "hit": false,
      "t": 144999.99999999997,
      "d": 410.15625,
      "v": 104
    },
    {
      "midi": 55,
      "hit": false,
      "t": 144999.99999999997,
      "d": 410.15625,
      "v": 104
    },
    {
      "midi": 58,
      "hit": false,
      "t": 144999.99999999997,
      "d": 410.15625,
      "v": 104
    },
    {
      "midi": 60,
      "hit": false,
      "t": 144999.99999999997,
      "d": 410.15625,
      "v": 104
    },
    {
      "midi": 62,
      "hit": false,
      "t": 144999.99999999997,
      "d": 410.15625,
      "v": 104
    },
    {
      "midi": 57,
      "hit": false,
      "t": 147499.99999999997,
      "d": 410.15625,
      "v": 104
    },
    {
      "midi": 60,
      "hit": false,
      "t": 147499.99999999997,
      "d": 410.15625,
      "v": 104
    },
    {
      "midi": 62,
      "hit": false,
      "t": 147499.99999999997,
      "d": 410.15625,
      "v": 104
    },
    {
      "midi": 65,
      "hit": false,
      "t": 147499.99999999997,
      "d": 410.15625,
      "v": 104
    },
    {
      "midi": 67,
      "hit": false,
      "t": 147499.99999999997,
      "d": 410.15625,
      "v": 104
    },
    {
      "midi": 57,
      "hit": false,
      "t": 149374.99999999997,
      "d": 410.15625,
      "v": 104
    },
    {
      "midi": 60,
      "hit": false,
      "t": 149374.99999999997,
      "d": 410.15625,
      "v": 104
    },
    {
      "midi": 62,
      "hit": false,
      "t": 149374.99999999997,
      "d": 410.15625,
      "v": 104
    },
    {
      "midi": 65,
      "hit": false,
      "t": 149374.99999999997,
      "d": 410.15625,
      "v": 104
    },
    {
      "midi": 67,
      "hit": false,
      "t": 149374.99999999997,
      "d": 410.15625,
      "v": 104
    },
    {
      "midi": 55,
      "hit": false,
      "t": 149999.99999999997,
      "d": 410.15625,
      "v": 104
    },
    {
      "midi": 58,
      "hit": false,
      "t": 149999.99999999997,
      "d": 410.15625,
      "v": 104
    },
    {
      "midi": 60,
      "hit": false,
      "t": 149999.99999999997,
      "d": 410.15625,
      "v": 104
    },
    {
      "midi": 62,
      "hit": false,
      "t": 149999.99999999997,
      "d": 410.15625,
      "v": 104
    },
    {
      "midi": 63,
      "hit": false,
      "t": 149999.99999999997,
      "d": 410.15625,
      "v": 104
    },
    {
      "midi": 60,
      "hit": false,
      "t": 152499.99999999997,
      "d": 410.15625,
      "v": 104
    },
    {
      "midi": 62,
      "hit": false,
      "t": 152499.99999999997,
      "d": 410.15625,
      "v": 104
    },
    {
      "midi": 65,
      "hit": false,
      "t": 152499.99999999997,
      "d": 410.15625,
      "v": 104
    },
    {
      "midi": 67,
      "hit": false,
      "t": 152499.99999999997,
      "d": 410.15625,
      "v": 104
    },
    {
      "midi": 69,
      "hit": false,
      "t": 152499.99999999997,
      "d": 410.15625,
      "v": 104
    },
    {
      "midi": 67,
      "hit": false,
      "t": 154791.66666666663,
      "d": 410.1562500000291,
      "v": 104
    },
    {
      "midi": 63,
      "hit": false,
      "t": 154843.74999999997,
      "d": 410.15625,
      "v": 104
    },
    {
      "midi": 62,
      "hit": false,
      "t": 154895.8333333333,
      "d": 410.15625,
      "v": 104
    },
    {
      "midi": 60,
      "hit": false,
      "t": 154947.91666666666,
      "d": 410.15625,
      "v": 104
    },
    {
      "midi": 58,
      "hit": false,
      "t": 155000,
      "d": 410.15625,
      "v": 104
    },
    {
      "midi": 60,
      "hit": false,
      "t": 157500,
      "d": 410.15625,
      "v": 104
    },
    {
      "midi": 62,
      "hit": false,
      "t": 157500,
      "d": 410.15625,
      "v": 104
    },
    {
      "midi": 65,
      "hit": false,
      "t": 157500,
      "d": 410.15625,
      "v": 104
    },
    {
      "midi": 67,
      "hit": false,
      "t": 157500,
      "d": 410.15625,
      "v": 104
    },
    {
      "midi": 69,
      "hit": false,
      "t": 157500,
      "d": 410.15625,
      "v": 104
    },
    {
      "midi": 60,
      "hit": false,
      "t": 159375,
      "d": 410.15625,
      "v": 104
    },
    {
      "midi": 62,
      "hit": false,
      "t": 159375,
      "d": 410.15625,
      "v": 104
    },
    {
      "midi": 65,
      "hit": false,
      "t": 159375,
      "d": 410.15625,
      "v": 104
    },
    {
      "midi": 67,
      "hit": false,
      "t": 159375,
      "d": 410.15625,
      "v": 104
    },
    {
      "midi": 69,
      "hit": false,
      "t": 159375,
      "d": 410.15625,
      "v": 104
    },
    {
      "midi": 55,
      "hit": false,
      "t": 160000,
      "d": 410.15625,
      "v": 104
    },
    {
      "midi": 58,
      "hit": false,
      "t": 160000,
      "d": 410.15625,
      "v": 104
    },
    {
      "midi": 60,
      "hit": false,
      "t": 160000,
      "d": 410.15625,
      "v": 104
    },
    {
      "midi": 62,
      "hit": false,
      "t": 160000,
      "d": 410.15625,
      "v": 104
    },
    {
      "midi": 63,
      "hit": false,
      "t": 160000,
      "d": 410.15625,
      "v": 104
    },
    {
      "midi": 60,
      "hit": false,
      "t": 162500,
      "d": 410.15625,
      "v": 104
    },
    {
      "midi": 62,
      "hit": false,
      "t": 162500,
      "d": 410.15625,
      "v": 104
    },
    {
      "midi": 65,
      "hit": false,
      "t": 162500,
      "d": 410.15625,
      "v": 104
    },
    {
      "midi": 67,
      "hit": false,
      "t": 162500,
      "d": 410.15625,
      "v": 104
    },
    {
      "midi": 69,
      "hit": false,
      "t": 162500,
      "d": 410.15625,
      "v": 104
    },
    {
      "midi": 67,
      "hit": false,
      "t": 164791.66666666666,
      "d": 410.1562500000291,
      "v": 104
    },
    {
      "midi": 63,
      "hit": false,
      "t": 164843.75,
      "d": 410.15625,
      "v": 104
    },
    {
      "midi": 62,
      "hit": false,
      "t": 164895.83333333334,
      "d": 410.15625,
      "v": 104
    },
    {
      "midi": 60,
      "hit": false,
      "t": 164947.9166666667,
      "d": 410.15625,
      "v": 104
    },
    {
      "midi": 58,
      "hit": false,
      "t": 165000.00000000003,
      "d": 410.15625,
      "v": 104
    },
    {
      "midi": 60,
      "hit": false,
      "t": 167500.00000000003,
      "d": 410.15625,
      "v": 104
    },
    {
      "midi": 62,
      "hit": false,
      "t": 167500.00000000003,
      "d": 410.15625,
      "v": 104
    },
    {
      "midi": 65,
      "hit": false,
      "t": 167500.00000000003,
      "d": 410.15625,
      "v": 104
    },
    {
      "midi": 67,
      "hit": false,
      "t": 167500.00000000003,
      "d": 410.15625,
      "v": 104
    },
    {
      "midi": 69,
      "hit": false,
      "t": 167500.00000000003,
      "d": 410.15625,
      "v": 104
    },
    {
      "midi": 60,
      "hit": false,
      "t": 169375.00000000003,
      "d": 410.15625,
      "v": 104
    },
    {
      "midi": 62,
      "hit": false,
      "t": 169375.00000000003,
      "d": 410.15625,
      "v": 104
    },
    {
      "midi": 65,
      "hit": false,
      "t": 169375.00000000003,
      "d": 410.15625,
      "v": 104
    },
    {
      "midi": 67,
      "hit": false,
      "t": 169375.00000000003,
      "d": 410.15625,
      "v": 104
    },
    {
      "midi": 69,
      "hit": false,
      "t": 169375.00000000003,
      "d": 410.15625,
      "v": 104
    },
    {
      "midi": 51,
      "hit": false,
      "t": 170000.00000000003,
      "d": 410.15625,
      "v": 104
    },
    {
      "midi": 55,
      "hit": false,
      "t": 170000.00000000003,
      "d": 410.15625,
      "v": 104
    },
    {
      "midi": 58,
      "hit": false,
      "t": 170000.00000000003,
      "d": 410.15625,
      "v": 104
    },
    {
      "midi": 60,
      "hit": false,
      "t": 170000.00000000003,
      "d": 410.15625,
      "v": 104
    },
    {
      "midi": 62,
      "hit": false,
      "t": 170000.00000000003,
      "d": 410.15625,
      "v": 104
    },
    {
      "midi": 57,
      "hit": false,
      "t": 172500.00000000003,
      "d": 410.15625,
      "v": 104
    },
    {
      "midi": 60,
      "hit": false,
      "t": 172500.00000000003,
      "d": 410.15625,
      "v": 104
    },
    {
      "midi": 62,
      "hit": false,
      "t": 172500.00000000003,
      "d": 410.15625,
      "v": 104
    },
    {
      "midi": 65,
      "hit": false,
      "t": 172500.00000000003,
      "d": 410.15625,
      "v": 104
    },
    {
      "midi": 67,
      "hit": false,
      "t": 172500.00000000003,
      "d": 410.15625,
      "v": 104
    },
    {
      "midi": 57,
      "hit": false,
      "t": 174375.00000000003,
      "d": 410.15625,
      "v": 104
    },
    {
      "midi": 60,
      "hit": false,
      "t": 174375.00000000003,
      "d": 410.15625,
      "v": 104
    },
    {
      "midi": 62,
      "hit": false,
      "t": 174375.00000000003,
      "d": 410.15625,
      "v": 104
    },
    {
      "midi": 65,
      "hit": false,
      "t": 174375.00000000003,
      "d": 410.15625,
      "v": 104
    },
    {
      "midi": 67,
      "hit": false,
      "t": 174375.00000000003,
      "d": 410.15625,
      "v": 104
    },
    {
      "midi": 51,
      "hit": false,
      "t": 175000.00000000003,
      "d": 410.15625,
      "v": 104
    },
    {
      "midi": 55,
      "hit": false,
      "t": 175000.00000000003,
      "d": 410.15625,
      "v": 104
    },
    {
      "midi": 58,
      "hit": false,
      "t": 175000.00000000003,
      "d": 410.15625,
      "v": 104
    },
    {
      "midi": 60,
      "hit": false,
      "t": 175000.00000000003,
      "d": 410.15625,
      "v": 104
    },
    {
      "midi": 62,
      "hit": false,
      "t": 175000.00000000003,
      "d": 410.15625,
      "v": 104
    },
    {
      "midi": 57,
      "hit": false,
      "t": 177500.00000000003,
      "d": 410.15625,
      "v": 104
    },
    {
      "midi": 60,
      "hit": false,
      "t": 177500.00000000003,
      "d": 410.15625,
      "v": 104
    },
    {
      "midi": 62,
      "hit": false,
      "t": 177500.00000000003,
      "d": 410.15625,
      "v": 104
    },
    {
      "midi": 65,
      "hit": false,
      "t": 177500.00000000003,
      "d": 410.15625,
      "v": 104
    },
    {
      "midi": 67,
      "hit": false,
      "t": 177500.00000000003,
      "d": 410.15625,
      "v": 104
    },
    {
      "midi": 57,
      "hit": false,
      "t": 179375.00000000003,
      "d": 410.15625,
      "v": 104
    },
    {
      "midi": 60,
      "hit": false,
      "t": 179375.00000000003,
      "d": 410.15625,
      "v": 104
    },
    {
      "midi": 62,
      "hit": false,
      "t": 179375.00000000003,
      "d": 410.15625,
      "v": 104
    },
    {
      "midi": 65,
      "hit": false,
      "t": 179375.00000000003,
      "d": 410.15625,
      "v": 104
    },
    {
      "midi": 67,
      "hit": false,
      "t": 179375.00000000003,
      "d": 410.15625,
      "v": 104
    },
    {
      "midi": 51,
      "hit": false,
      "t": 180000.00000000003,
      "d": 410.15625,
      "v": 104
    },
    {
      "midi": 55,
      "hit": false,
      "t": 180000.00000000003,
      "d": 410.15625,
      "v": 104
    },
    {
      "midi": 58,
      "hit": false,
      "t": 180000.00000000003,
      "d": 410.15625,
      "v": 104
    },
    {
      "midi": 60,
      "hit": false,
      "t": 180000.00000000003,
      "d": 410.15625,
      "v": 104
    },
    {
      "midi": 62,
      "hit": false,
      "t": 180000.00000000003,
      "d": 410.15625,
      "v": 104
    },
    {
      "midi": 57,
      "hit": false,
      "t": 182500.00000000003,
      "d": 410.15625,
      "v": 104
    },
    {
      "midi": 60,
      "hit": false,
      "t": 182500.00000000003,
      "d": 410.15625,
      "v": 104
    },
    {
      "midi": 62,
      "hit": false,
      "t": 182500.00000000003,
      "d": 410.15625,
      "v": 104
    },
    {
      "midi": 65,
      "hit": false,
      "t": 182500.00000000003,
      "d": 410.15625,
      "v": 104
    },
    {
      "midi": 67,
      "hit": false,
      "t": 182500.00000000003,
      "d": 410.15625,
      "v": 104
    },
    {
      "midi": 57,
      "hit": false,
      "t": 184375.00000000003,
      "d": 410.15625,
      "v": 104
    },
    {
      "midi": 60,
      "hit": false,
      "t": 184375.00000000003,
      "d": 410.15625,
      "v": 104
    },
    {
      "midi": 62,
      "hit": false,
      "t": 184375.00000000003,
      "d": 410.15625,
      "v": 104
    },
    {
      "midi": 65,
      "hit": false,
      "t": 184375.00000000003,
      "d": 410.15625,
      "v": 104
    },
    {
      "midi": 67,
      "hit": false,
      "t": 184375.00000000003,
      "d": 410.15625,
      "v": 104
    },
    {
      "midi": 51,
      "hit": false,
      "t": 185000.00000000003,
      "d": 410.15625,
      "v": 104
    },
    {
      "midi": 55,
      "hit": false,
      "t": 185000.00000000003,
      "d": 410.15625,
      "v": 104
    },
    {
      "midi": 58,
      "hit": false,
      "t": 185000.00000000003,
      "d": 410.15625,
      "v": 104
    },
    {
      "midi": 60,
      "hit": false,
      "t": 185000.00000000003,
      "d": 410.15625,
      "v": 104
    },
    {
      "midi": 62,
      "hit": false,
      "t": 185000.00000000003,
      "d": 410.15625,
      "v": 104
    },
    {
      "midi": 57,
      "hit": false,
      "t": 187500.00000000003,
      "d": 410.15625,
      "v": 104
    },
    {
      "midi": 60,
      "hit": false,
      "t": 187500.00000000003,
      "d": 410.15625,
      "v": 104
    },
    {
      "midi": 62,
      "hit": false,
      "t": 187500.00000000003,
      "d": 410.15625,
      "v": 104
    },
    {
      "midi": 65,
      "hit": false,
      "t": 187500.00000000003,
      "d": 410.15625,
      "v": 104
    },
    {
      "midi": 67,
      "hit": false,
      "t": 187500.00000000003,
      "d": 410.15625,
      "v": 104
    },
    {
      "midi": 57,
      "hit": false,
      "t": 189375.00000000003,
      "d": 410.15625,
      "v": 104
    },
    {
      "midi": 60,
      "hit": false,
      "t": 189375.00000000003,
      "d": 410.15625,
      "v": 104
    },
    {
      "midi": 62,
      "hit": false,
      "t": 189375.00000000003,
      "d": 410.15625,
      "v": 104
    },
    {
      "midi": 65,
      "hit": false,
      "t": 189375.00000000003,
      "d": 410.15625,
      "v": 104
    },
    {
      "midi": 67,
      "hit": false,
      "t": 189375.00000000003,
      "d": 410.15625,
      "v": 104
    },
    {
      "midi": 51,
      "hit": false,
      "t": 190000.00000000003,
      "d": 410.15625,
      "v": 104
    },
    {
      "midi": 55,
      "hit": false,
      "t": 190000.00000000003,
      "d": 410.15625,
      "v": 104
    },
    {
      "midi": 58,
      "hit": false,
      "t": 190000.00000000003,
      "d": 410.15625,
      "v": 104
    },
    {
      "midi": 60,
      "hit": false,
      "t": 190000.00000000003,
      "d": 410.15625,
      "v": 104
    },
    {
      "midi": 62,
      "hit": false,
      "t": 190000.00000000003,
      "d": 410.15625,
      "v": 104
    },
    {
      "midi": 57,
      "hit": false,
      "t": 192500.00000000003,
      "d": 410.15625,
      "v": 104
    },
    {
      "midi": 60,
      "hit": false,
      "t": 192500.00000000003,
      "d": 410.15625,
      "v": 104
    },
    {
      "midi": 62,
      "hit": false,
      "t": 192500.00000000003,
      "d": 410.15625,
      "v": 104
    },
    {
      "midi": 65,
      "hit": false,
      "t": 192500.00000000003,
      "d": 410.15625,
      "v": 104
    },
    {
      "midi": 67,
      "hit": false,
      "t": 192500.00000000003,
      "d": 410.15625,
      "v": 104
    },
    {
      "midi": 57,
      "hit": false,
      "t": 194375.00000000003,
      "d": 410.15625,
      "v": 104
    },
    {
      "midi": 60,
      "hit": false,
      "t": 194375.00000000003,
      "d": 410.15625,
      "v": 104
    },
    {
      "midi": 62,
      "hit": false,
      "t": 194375.00000000003,
      "d": 410.15625,
      "v": 104
    },
    {
      "midi": 65,
      "hit": false,
      "t": 194375.00000000003,
      "d": 410.15625,
      "v": 104
    },
    {
      "midi": 67,
      "hit": false,
      "t": 194375.00000000003,
      "d": 410.15625,
      "v": 104
    },
    {
      "midi": 51,
      "hit": false,
      "t": 195000.00000000003,
      "d": 410.15625,
      "v": 104
    },
    {
      "midi": 55,
      "hit": false,
      "t": 195000.00000000003,
      "d": 410.15625,
      "v": 104
    },
    {
      "midi": 58,
      "hit": false,
      "t": 195000.00000000003,
      "d": 410.15625,
      "v": 104
    },
    {
      "midi": 60,
      "hit": false,
      "t": 195000.00000000003,
      "d": 410.15625,
      "v": 104
    },
    {
      "midi": 62,
      "hit": false,
      "t": 195000.00000000003,
      "d": 410.15625,
      "v": 104
    },
    {
      "midi": 57,
      "hit": false,
      "t": 197500.00000000003,
      "d": 410.15625,
      "v": 104
    },
    {
      "midi": 60,
      "hit": false,
      "t": 197500.00000000003,
      "d": 410.15625,
      "v": 104
    },
    {
      "midi": 62,
      "hit": false,
      "t": 197500.00000000003,
      "d": 410.15625,
      "v": 104
    },
    {
      "midi": 65,
      "hit": false,
      "t": 197500.00000000003,
      "d": 410.15625,
      "v": 104
    },
    {
      "midi": 67,
      "hit": false,
      "t": 197500.00000000003,
      "d": 410.15625,
      "v": 104
    },
    {
      "midi": 57,
      "hit": false,
      "t": 199375.00000000003,
      "d": 410.15625,
      "v": 104
    },
    {
      "midi": 60,
      "hit": false,
      "t": 199375.00000000003,
      "d": 410.15625,
      "v": 104
    },
    {
      "midi": 62,
      "hit": false,
      "t": 199375.00000000003,
      "d": 410.15625,
      "v": 104
    },
    {
      "midi": 65,
      "hit": false,
      "t": 199375.00000000003,
      "d": 410.15625,
      "v": 104
    },
    {
      "midi": 67,
      "hit": false,
      "t": 199375.00000000003,
      "d": 410.15625,
      "v": 104
    },
    {
      "midi": 51,
      "hit": false,
      "t": 200000.00000000003,
      "d": 410.1562500000291,
      "v": 104
    },
    {
      "midi": 55,
      "hit": false,
      "t": 200000.00000000003,
      "d": 410.1562500000291,
      "v": 104
    },
    {
      "midi": 58,
      "hit": false,
      "t": 200000.00000000003,
      "d": 410.1562500000291,
      "v": 104
    },
    {
      "midi": 60,
      "hit": false,
      "t": 200000.00000000003,
      "d": 410.1562500000291,
      "v": 104
    },
    {
      "midi": 62,
      "hit": false,
      "t": 200000.00000000003,
      "d": 410.1562500000291,
      "v": 104
    },
    {
      "midi": 57,
      "hit": false,
      "t": 202500.0000000001,
      "d": 410.15625,
      "v": 104
    },
    {
      "midi": 60,
      "hit": false,
      "t": 202500.0000000001,
      "d": 410.15625,
      "v": 104
    },
    {
      "midi": 62,
      "hit": false,
      "t": 202500.0000000001,
      "d": 410.15625,
      "v": 104
    },
    {
      "midi": 65,
      "hit": false,
      "t": 202500.0000000001,
      "d": 410.15625,
      "v": 104
    },
    {
      "midi": 67,
      "hit": false,
      "t": 202500.0000000001,
      "d": 410.15625,
      "v": 104
    },
    {
      "midi": 57,
      "hit": false,
      "t": 204375.0000000001,
      "d": 410.15625,
      "v": 104
    },
    {
      "midi": 60,
      "hit": false,
      "t": 204375.0000000001,
      "d": 410.15625,
      "v": 104
    },
    {
      "midi": 62,
      "hit": false,
      "t": 204375.0000000001,
      "d": 410.15625,
      "v": 104
    },
    {
      "midi": 65,
      "hit": false,
      "t": 204375.0000000001,
      "d": 410.15625,
      "v": 104
    },
    {
      "midi": 67,
      "hit": false,
      "t": 204375.0000000001,
      "d": 410.15625,
      "v": 104
    },
    {
      "midi": 51,
      "hit": false,
      "t": 205000.0000000001,
      "d": 410.15625,
      "v": 104
    },
    {
      "midi": 55,
      "hit": false,
      "t": 205000.0000000001,
      "d": 410.15625,
      "v": 104
    },
    {
      "midi": 58,
      "hit": false,
      "t": 205000.0000000001,
      "d": 410.15625,
      "v": 104
    },
    {
      "midi": 60,
      "hit": false,
      "t": 205000.0000000001,
      "d": 410.15625,
      "v": 104
    },
    {
      "midi": 62,
      "hit": false,
      "t": 205000.0000000001,
      "d": 410.15625,
      "v": 104
    },
    {
      "midi": 57,
      "hit": false,
      "t": 207500.00000000006,
      "d": 410.1562500000291,
      "v": 104
    },
    {
      "midi": 60,
      "hit": false,
      "t": 207500.00000000006,
      "d": 410.1562500000291,
      "v": 104
    },
    {
      "midi": 62,
      "hit": false,
      "t": 207500.00000000006,
      "d": 410.1562500000291,
      "v": 104
    },
    {
      "midi": 65,
      "hit": false,
      "t": 207500.00000000006,
      "d": 410.1562500000291,
      "v": 104
    },
    {
      "midi": 67,
      "hit": false,
      "t": 207500.00000000006,
      "d": 410.1562500000291,
      "v": 104
    }
  ]
}