{
  "jsonPath": "Unknown/Unknown/Thomas Clark/clock.json",
  "path": "Unknown\\Unknown\\Thomas Clark\\Clock.mid",
  "name": "Clock",
  "difficulty": "Advanced",
  "bpm": 100,
  "notes": [
    {
      "midi": 53,
      "hit": false,
      "t": 900,
      "d": 300,
      "v": 100
    },
    {
      "midi": 41,
      "hit": false,
      "t": 900,
      "d": 300,
      "v": 100
    },
    {
      "midi": 58,
      "hit": false,
      "t": 1200,
      "d": 300,
      "v": 100
    },
    {
      "midi": 46,
      "hit": false,
      "t": 1200,
      "d": 300,
      "v": 100
    },
    {
      "midi": 62,
      "hit": false,
      "t": 1500,
      "d": 300,
      "v": 100
    },
    {
      "midi": 50,
      "hit": false,
      "t": 1500,
      "d": 300,
      "v": 100
    },
    {
      "midi": 58,
      "hit": false,
      "t": 1800,
      "d": 300,
      "v": 100
    },
    {
      "midi": 46,
      "hit": false,
      "t": 1800,
      "d": 300,
      "v": 100
    },
    {
      "midi": 62,
      "hit": false,
      "t": 2100,
      "d": 300,
      "v": 100
    },
    {
      "midi": 50,
      "hit": false,
      "t": 2100,
      "d": 300,
      "v": 100
    },
    {
      "midi": 58,
      "hit": false,
      "t": 2400,
      "d": 300,
      "v": 100
    },
    {
      "midi": 46,
      "hit": false,
      "t": 2400,
      "d": 300,
      "v": 100
    },
    {
      "midi": 62,
      "hit": false,
      "t": 2700,
      "d": 300,
      "v": 100
    },
    {
      "midi": 50,
      "hit": false,
      "t": 2700,
      "d": 300,
      "v": 100
    },
    {
      "midi": 58,
      "hit": false,
      "t": 3000,
      "d": 300,
      "v": 100
    },
    {
      "midi": 46,
      "hit": false,
      "t": 3000,
      "d": 300,
      "v": 100
    },
    {
      "midi": 62,
      "hit": false,
      "t": 3300,
      "d": 300,
      "v": 100
    },
    {
      "midi": 50,
      "hit": false,
      "t": 3300,
      "d": 300,
      "v": 100
    },
    {
      "midi": 58,
      "hit": false,
      "t": 3600,
      "d": 300,
      "v": 100
    },
    {
      "midi": 46,
      "hit": false,
      "t": 3600,
      "d": 300,
      "v": 100
    },
    {
      "midi": 62,
      "hit": false,
      "t": 3900,
      "d": 300,
      "v": 100
    },
    {
      "midi": 50,
      "hit": false,
      "t": 3900,
      "d": 300,
      "v": 100
    },
    {
      "midi": 58,
      "hit": false,
      "t": 4200,
      "d": 300,
      "v": 100
    },
    {
      "midi": 46,
      "hit": false,
      "t": 4200,
      "d": 300,
      "v": 100
    },
    {
      "midi": 62,
      "hit": false,
      "t": 4500,
      "d": 300,
      "v": 100
    },
    {
      "midi": 50,
      "hit": false,
      "t": 4500,
      "d": 300,
      "v": 100
    },
    {
      "midi": 65,
      "hit": false,
      "t": 4800,
      "d": 150,
      "v": 100
    },
    {
      "midi": 53,
      "hit": false,
      "t": 4800,
      "d": 150,
      "v": 100
    },
    {
      "midi": 64,
      "hit": false,
      "t": 4950,
      "d": 150,
      "v": 100
    },
    {
      "midi": 52,
      "hit": false,
      "t": 4950,
      "d": 150,
      "v": 100
    },
    {
      "midi": 65,
      "hit": false,
      "t": 5100,
      "d": 150,
      "v": 100
    },
    {
      "midi": 53,
      "hit": false,
      "t": 5100,
      "d": 150,
      "v": 100
    },
    {
      "midi": 67,
      "hit": false,
      "t": 5250,
      "d": 150,
      "v": 100
    },
    {
      "midi": 55,
      "hit": false,
      "t": 5250,
      "d": 150,
      "v": 100
    },
    {
      "midi": 65,
      "hit": false,
      "t": 5400,
      "d": 300,
      "v": 100
    },
    {
      "midi": 53,
      "hit": false,
      "t": 5400,
      "d": 300,
      "v": 100
    },
    {
      "midi": 55,
      "hit": false,
      "t": 5700,
      "d": 300,
      "v": 100
    },
    {
      "midi": 43,
      "hit": false,
      "t": 5700,
      "d": 300,
      "v": 100
    },
    {
      "midi": 60,
      "hit": false,
      "t": 6000,
      "d": 300,
      "v": 100
    },
    {
      "midi": 48,
      "hit": false,
      "t": 6000,
      "d": 300,
      "v": 100
    },
    {
      "midi": 63,
      "hit": false,
      "t": 6300,
      "d": 300,
      "v": 100
    },
    {
      "midi": 51,
      "hit": false,
      "t": 6300,
      "d": 300,
      "v": 100
    },
    {
      "midi": 60,
      "hit": false,
      "t": 6600,
      "d": 300,
      "v": 100
    },
    {
      "midi": 48,
      "hit": false,
      "t": 6600,
      "d": 300,
      "v": 100
    },
    {
      "midi": 63,
      "hit": false,
      "t": 6900,
      "d": 300,
      "v": 100
    },
    {
      "midi": 51,
      "hit": false,
      "t": 6900,
      "d": 300,
      "v": 100
    },
    {
      "midi": 60,
      "hit": false,
      "t": 7200,
      "d": 300,
      "v": 100
    },
    {
      "midi": 48,
      "hit": false,
      "t": 7200,
      "d": 300,
      "v": 100
    },
    {
      "midi": 63,
      "hit": false,
      "t": 7500,
      "d": 300,
      "v": 100
    },
    {
      "midi": 51,
      "hit": false,
      "t": 7500,
      "d": 300,
      "v": 100
    },
    {
      "midi": 60,
      "hit": false,
      "t": 7800,
      "d": 300,
      "v": 100
    },
    {
      "midi": 48,
      "hit": false,
      "t": 7800,
      "d": 300,
      "v": 100
    },
    {
      "midi": 63,
      "hit": false,
      "t": 8100,
      "d": 300,
      "v": 100
    },
    {
      "midi": 51,
      "hit": false,
      "t": 8100,
      "d": 300,
      "v": 100
    },
    {
      "midi": 60,
      "hit": false,
      "t": 8400,
      "d": 300,
      "v": 100
    },
    {
      "midi": 48,
      "hit": false,
      "t": 8400,
      "d": 300,
      "v": 100
    },
    {
      "midi": 63,
      "hit": false,
      "t": 8700,
      "d": 300,
      "v": 100
    },
    {
      "midi": 51,
      "hit": false,
      "t": 8700,
      "d": 300,
      "v": 100
    },
    {
      "midi": 60,
      "hit": false,
      "t": 9000,
      "d": 300,
      "v": 100
    },
    {
      "midi": 48,
      "hit": false,
      "t": 9000,
      "d": 300,
      "v": 100
    },
    {
      "midi": 63,
      "hit": false,
      "t": 9300,
      "d": 300,
      "v": 100
    },
    {
      "midi": 51,
      "hit": false,
      "t": 9300,
      "d": 300,
      "v": 100
    },
    {
      "midi": 67,
      "hit": false,
      "t": 9600,
      "d": 150,
      "v": 100
    },
    {
      "midi": 55,
      "hit": false,
      "t": 9600,
      "d": 150,
      "v": 100
    },
    {
      "midi": 66,
      "hit": false,
      "t": 9750,
      "d": 150,
      "v": 100
    },
    {
      "midi": 54,
      "hit": false,
      "t": 9750,
      "d": 150,
      "v": 100
    },
    {
      "midi": 67,
      "hit": false,
      "t": 9900,
      "d": 150,
      "v": 100
    },
    {
      "midi": 55,
      "hit": false,
      "t": 9900,
      "d": 150,
      "v": 100
    },
    {
      "midi": 69,
      "hit": false,
      "t": 10050,
      "d": 150,
      "v": 100
    },
    {
      "midi": 57,
      "hit": false,
      "t": 10050,
      "d": 150,
      "v": 100
    },
    {
      "midi": 67,
      "hit": false,
      "t": 10200,
      "d": 300,
      "v": 100
    },
    {
      "midi": 55,
      "hit": false,
      "t": 10200,
      "d": 300,
      "v": 100
    },
    {
      "midi": 79,
      "hit": false,
      "t": 10500,
      "d": 300,
      "v": 100
    },
    {
      "midi": 67,
      "hit": false,
      "t": 10800,
      "d": 300,
      "v": 100
    },
    {
      "midi": 53,
      "hit": false,
      "t": 10800,
      "d": 300,
      "v": 100
    },
    {
      "midi": 79,
      "hit": false,
      "t": 11100,
      "d": 300,
      "v": 100
    },
    {
      "midi": 65,
      "hit": false,
      "t": 11100,
      "d": 300,
      "v": 100
    },
    {
      "midi": 67,
      "hit": false,
      "t": 11400,
      "d": 300,
      "v": 100
    },
    {
      "midi": 60,
      "hit": false,
      "t": 11400,
      "d": 300,
      "v": 100
    },
    {
      "midi": 63,
      "hit": false,
      "t": 11400,
      "d": 300,
      "v": 100
    },
    {
      "midi": 79,
      "hit": false,
      "t": 11700,
      "d": 300,
      "v": 100
    },
    {
      "midi": 65,
      "hit": false,
      "t": 11700,
      "d": 300,
      "v": 100
    },
    {
      "midi": 77,
      "hit": false,
      "t": 12000,
      "d": 150,
      "v": 100
    },
    {
      "midi": 58,
      "hit": false,
      "t": 12000,
      "d": 300,
      "v": 100
    },
    {
      "midi": 62,
      "hit": false,
      "t": 12000,
      "d": 300,
      "v": 100
    },
    {
      "midi": 79,
      "hit": false,
      "t": 12150,
      "d": 150,
      "v": 100
    },
    {
      "midi": 77,
      "hit": false,
      "t": 12300,
      "d": 150,
      "v": 100
    },
    {
      "midi": 65,
      "hit": false,
      "t": 12300,
      "d": 300,
      "v": 100
    },
    {
      "midi": 74,
      "hit": false,
      "t": 12450,
      "d": 150,
      "v": 100
    },
    {
      "midi": 70,
      "hit": false,
      "t": 12600,
      "d": 300,
      "v": 100
    },
    {
      "midi": 58,
      "hit": false,
      "t": 12600,
      "d": 300,
      "v": 100
    },
    {
      "midi": 62,
      "hit": false,
      "t": 12600,
      "d": 300,
      "v": 100
    },
    {
      "midi": 79,
      "hit": false,
      "t": 12900,
      "d": 300,
      "v": 100
    },
    {
      "midi": 65,
      "hit": false,
      "t": 12900,
      "d": 300,
      "v": 100
    },
    {
      "midi": 67,
      "hit": false,
      "t": 13200,
      "d": 300,
      "v": 100
    },
    {
      "midi": 53,
      "hit": false,
      "t": 13200,
      "d": 300,
      "v": 100
    },
    {
      "midi": 79,
      "hit": false,
      "t": 13500,
      "d": 300,
      "v": 100
    },
    {
      "midi": 65,
      "hit": false,
      "t": 13500,
      "d": 300,
      "v": 100
    },
    {
      "midi": 67,
      "hit": false,
      "t": 13800,
      "d": 300,
      "v": 100
    },
    {
      "midi": 60,
      "hit": false,
      "t": 13800,
      "d": 300,
      "v": 100
    },
    {
      "midi": 63,
      "hit": false,
      "t": 13800,
      "d": 300,
      "v": 100
    },
    {
      "midi": 79,
      "hit": false,
      "t": 14100,
      "d": 300,
      "v": 100
    },
    {
      "midi": 65,
      "hit": false,
      "t": 14100,
      "d": 300,
      "v": 100
    },
    {
      "midi": 77,
      "hit": false,
      "t": 14400,
      "d": 150,
      "v": 100
    },
    {
      "midi": 58,
      "hit": false,
      "t": 14400,
      "d": 300,
      "v": 100
    },
    {
      "midi": 62,
      "hit": false,
      "t": 14400,
      "d": 300,
      "v": 100
    },
    {
      "midi": 79,
      "hit": false,
      "t": 14550,
      "d": 150,
      "v": 100
    },
    {
      "midi": 77,
      "hit": false,
      "t": 14700,
      "d": 150,
      "v": 100
    },
    {
      "midi": 65,
      "hit": false,
      "t": 14700,
      "d": 300,
      "v": 100
    },
    {
      "midi": 74,
      "hit": false,
      "t": 14850,
      "d": 150,
      "v": 100
    },
    {
      "midi": 70,
      "hit": false,
      "t": 15000,
      "d": 300,
      "v": 100
    },
    {
      "midi": 58,
      "hit": false,
      "t": 15000,
      "d": 300,
      "v": 100
    },
    {
      "midi": 62,
      "hit": false,
      "t": 15000,
      "d": 300,
      "v": 100
    },
    {
      "midi": 65,
      "hit": false,
      "t": 15300,
      "d": 300,
      "v": 100
    },
    {
      "midi": 74,
      "hit": false,
      "t": 15300,
      "d": 300,
      "v": 100
    },
    {
      "midi": 50,
      "hit": false,
      "t": 15300,
      "d": 300,
      "v": 100
    },
    {
      "midi": 58,
      "hit": false,
      "t": 15300,
      "d": 300,
      "v": 100
    },
    {
      "midi": 67,
      "hit": false,
      "t": 15600,
      "d": 600,
      "v": 100
    },
    {
      "midi": 74,
      "hit": false,
      "t": 15600,
      "d": 600,
      "v": 100
    },
    {
      "midi": 51,
      "hit": false,
      "t": 15600,
      "d": 600,
      "v": 100
    },
    {
      "midi": 58,
      "hit": false,
      "t": 15600,
      "d": 600,
      "v": 100
    },
    {
      "midi": 63,
      "hit": false,
      "t": 16200,
      "d": 300,
      "v": 100
    },
    {
      "midi": 53,
      "hit": false,
      "t": 16200,
      "d": 600,
      "v": 100
    },
    {
      "midi": 57,
      "hit": false,
      "t": 16200,
      "d": 600,
      "v": 100
    },
    {
      "midi": 72,
      "hit": false,
      "t": 16500,
      "d": 300,
      "v": 100
    },
    {
      "midi": 62,
      "hit": false,
      "t": 16800,
      "d": 300,
      "v": 100
    },
    {
      "midi": 70,
      "hit": false,
      "t": 16800,
      "d": 300,
      "v": 100
    },
    {
      "midi": 46,
      "hit": false,
      "t": 16800,
      "d": 600,
      "v": 100
    },
    {
      "midi": 53,
      "hit": false,
      "t": 16800,
      "d": 600,
      "v": 100
    },
    {
      "midi": 74,
      "hit": false,
      "t": 17100,
      "d": 300,
      "v": 100
    },
    {
      "midi": 77,
      "hit": false,
      "t": 17400,
      "d": 300,
      "v": 100
    },
    {
      "midi": 65,
      "hit": false,
      "t": 17700,
      "d": 300,
      "v": 100
    },
    {
      "midi": 74,
      "hit": false,
      "t": 17700,
      "d": 300,
      "v": 100
    },
    {
      "midi": 50,
      "hit": false,
      "t": 17700,
      "d": 300,
      "v": 100
    },
    {
      "midi": 58,
      "hit": false,
      "t": 17700,
      "d": 300,
      "v": 100
    },
    {
      "midi": 67,
      "hit": false,
      "t": 18000,
      "d": 600,
      "v": 100
    },
    {
      "midi": 74,
      "hit": false,
      "t": 18000,
      "d": 600,
      "v": 100
    },
    {
      "midi": 51,
      "hit": false,
      "t": 18000,
      "d": 600,
      "v": 100
    },
    {
      "midi": 58,
      "hit": false,
      "t": 18000,
      "d": 600,
      "v": 100
    },
    {
      "midi": 63,
      "hit": false,
      "t": 18600,
      "d": 300,
      "v": 100
    },
    {
      "midi": 53,
      "hit": false,
      "t": 18600,
      "d": 600,
      "v": 100
    },
    {
      "midi": 57,
      "hit": false,
      "t": 18600,
      "d": 600,
      "v": 100
    },
    {
      "midi": 72,
      "hit": false,
      "t": 18900,
      "d": 300,
      "v": 100
    },
    {
      "midi": 62,
      "hit": false,
      "t": 19200,
      "d": 600,
      "v": 100
    },
    {
      "midi": 70,
      "hit": false,
      "t": 19200,
      "d": 600,
      "v": 100
    },
    {
      "midi": 46,
      "hit": false,
      "t": 19200,
      "d": 600,
      "v": 100
    },
    {
      "midi": 53,
      "hit": false,
      "t": 19200,
      "d": 600,
      "v": 100
    },
    {
      "midi": 57,
      "hit": false,
      "t": 20100,
      "d": 300,
      "v": 100
    },
    {
      "midi": 62,
      "hit": false,
      "t": 20400,
      "d": 300,
      "v": 100
    },
    {
      "midi": 69,
      "hit": false,
      "t": 20700,
      "d": 300,
      "v": 100
    },
    {
      "midi": 65,
      "hit": false,
      "t": 20700,
      "d": 300,
      "v": 100
    },
    {
      "midi": 74,
      "hit": false,
      "t": 21000,
      "d": 300,
      "v": 100
    },
    {
      "midi": 62,
      "hit": false,
      "t": 21000,
      "d": 300,
      "v": 100
    },
    {
      "midi": 69,
      "hit": false,
      "t": 21300,
      "d": 300,
      "v": 100
    },
    {
      "midi": 65,
      "hit": false,
      "t": 21300,
      "d": 300,
      "v": 100
    },
    {
      "midi": 74,
      "hit": false,
      "t": 21600,
      "d": 300,
      "v": 100
    },
    {
      "midi": 62,
      "hit": false,
      "t": 21600,
      "d": 300,
      "v": 100
    },
    {
      "midi": 69,
      "hit": false,
      "t": 21900,
      "d": 300,
      "v": 100
    },
    {
      "midi": 65,
      "hit": false,
      "t": 21900,
      "d": 300,
      "v": 100
    },
    {
      "midi": 74,
      "hit": false,
      "t": 22200,
      "d": 300,
      "v": 100
    },
    {
      "midi": 62,
      "hit": false,
      "t": 22200,
      "d": 300,
      "v": 100
    },
    {
      "midi": 69,
      "hit": false,
      "t": 22500,
      "d": 300,
      "v": 100
    },
    {
      "midi": 65,
      "hit": false,
      "t": 22500,
      "d": 300,
      "v": 100
    },
    {
      "midi": 74,
      "hit": false,
      "t": 22800,
      "d": 300,
      "v": 100
    },
    {
      "midi": 62,
      "hit": false,
      "t": 22800,
      "d": 300,
      "v": 100
    },
    {
      "midi": 69,
      "hit": false,
      "t": 23100,
      "d": 300,
      "v": 100
    },
    {
      "midi": 65,
      "hit": false,
      "t": 23100,
      "d": 300,
      "v": 100
    },
    {
      "midi": 74,
      "hit": false,
      "t": 23400,
      "d": 300,
      "v": 100
    },
    {
      "midi": 62,
      "hit": false,
      "t": 23400,
      "d": 300,
      "v": 100
    },
    {
      "midi": 77,
      "hit": false,
      "t": 23700,
      "d": 300,
      "v": 100
    },
    {
      "midi": 65,
      "hit": false,
      "t": 23700,
      "d": 300,
      "v": 100
    },
    {
      "midi": 81,
      "hit": false,
      "t": 24000,
      "d": 150,
      "v": 100
    },
    {
      "midi": 61,
      "hit": false,
      "t": 24000,
      "d": 300,
      "v": 100
    },
    {
      "midi": 80,
      "hit": false,
      "t": 24150,
      "d": 150,
      "v": 100
    },
    {
      "midi": 81,
      "hit": false,
      "t": 24300,
      "d": 150,
      "v": 100
    },
    {
      "midi": 64,
      "hit": false,
      "t": 24300,
      "d": 300,
      "v": 100
    },
    {
      "midi": 82,
      "hit": false,
      "t": 24450,
      "d": 150,
      "v": 100
    },
    {
      "midi": 81,
      "hit": false,
      "t": 24600,
      "d": 300,
      "v": 100
    },
    {
      "midi": 61,
      "hit": false,
      "t": 24600,
      "d": 300,
      "v": 100
    },
    {
      "midi": 57,
      "hit": false,
      "t": 24900,
      "d": 300,
      "v": 100
    },
    {
      "midi": 64,
      "hit": false,
      "t": 25200,
      "d": 300,
      "v": 100
    },
    {
      "midi": 69,
      "hit": false,
      "t": 25500,
      "d": 300,
      "v": 100
    },
    {
      "midi": 67,
      "hit": false,
      "t": 25500,
      "d": 300,
      "v": 100
    },
    {
      "midi": 73,
      "hit": false,
      "t": 25800,
      "d": 300,
      "v": 100
    },
    {
      "midi": 64,
      "hit": false,
      "t": 25800,
      "d": 300,
      "v": 100
    },
    {
      "midi": 69,
      "hit": false,
      "t": 26100,
      "d": 300,
      "v": 100
    },
    {
      "midi": 67,
      "hit": false,
      "t": 26100,
      "d": 300,
      "v": 100
    },
    {
      "midi": 73,
      "hit": false,
      "t": 26400,
      "d": 300,
      "v": 100
    },
    {
      "midi": 64,
      "hit": false,
      "t": 26400,
      "d": 300,
      "v": 100
    },
    {
      "midi": 69,
      "hit": false,
      "t": 26700,
      "d": 300,
      "v": 100
    },
    {
      "midi": 67,
      "hit": false,
      "t": 26700,
      "d": 300,
      "v": 100
    },
    {
      "midi": 73,
      "hit": false,
      "t": 27000,
      "d": 300,
      "v": 100
    },
    {
      "midi": 64,
      "hit": false,
      "t": 27000,
      "d": 300,
      "v": 100
    },
    {
      "midi": 69,
      "hit": false,
      "t": 27300,
      "d": 300,
      "v": 100
    },
    {
      "midi": 67,
      "hit": false,
      "t": 27300,
      "d": 300,
      "v": 100
    },
    {
      "midi": 73,
      "hit": false,
      "t": 27600,
      "d": 300,
      "v": 100
    },
    {
      "midi": 64,
      "hit": false,
      "t": 27600,
      "d": 300,
      "v": 100
    },
    {
      "midi": 69,
      "hit": false,
      "t": 27900,
      "d": 300,
      "v": 100
    },
    {
      "midi": 67,
      "hit": false,
      "t": 27900,
      "d": 300,
      "v": 100
    },
    {
      "midi": 73,
      "hit": false,
      "t": 28200,
      "d": 300,
      "v": 100
    },
    {
      "midi": 64,
      "hit": false,
      "t": 28200,
      "d": 300,
      "v": 100
    },
    {
      "midi": 76,
      "hit": false,
      "t": 28500,
      "d": 300,
      "v": 100
    },
    {
      "midi": 67,
      "hit": false,
      "t": 28500,
      "d": 300,
      "v": 100
    },
    {
      "midi": 81,
      "hit": false,
      "t": 28800,
      "d": 150,
      "v": 100
    },
    {
      "midi": 62,
      "hit": false,
      "t": 28800,
      "d": 300,
      "v": 100
    },
    {
      "midi": 80,
      "hit": false,
      "t": 28950,
      "d": 150,
      "v": 100
    },
    {
      "midi": 81,
      "hit": false,
      "t": 29100,
      "d": 150,
      "v": 100
    },
    {
      "midi": 65,
      "hit": false,
      "t": 29100,
      "d": 300,
      "v": 100
    },
    {
      "midi": 82,
      "hit": false,
      "t": 29250,
      "d": 150,
      "v": 100
    },
    {
      "midi": 81,
      "hit": false,
      "t": 29400,
      "d": 300,
      "v": 100
    },
    {
      "midi": 62,
      "hit": false,
      "t": 29400,
      "d": 300,
      "v": 100
    },
    {
      "midi": 69,
      "hit": false,
      "t": 29700,
      "d": 300,
      "v": 100
    },
    {
      "midi": 69,
      "hit": false,
      "t": 30000,
      "d": 300,
      "v": 100
    },
    {
      "midi": 74,
      "hit": false,
      "t": 30300,
      "d": 300,
      "v": 100
    },
    {
      "midi": 72,
      "hit": false,
      "t": 30300,
      "d": 300,
      "v": 100
    },
    {
      "midi": 78,
      "hit": false,
      "t": 30600,
      "d": 300,
      "v": 100
    },
    {
      "midi": 69,
      "hit": false,
      "t": 30600,
      "d": 300,
      "v": 100
    },
    {
      "midi": 74,
      "hit": false,
      "t": 30900,
      "d": 300,
      "v": 100
    },
    {
      "midi": 72,
      "hit": false,
      "t": 30900,
      "d": 300,
      "v": 100
    },
    {
      "midi": 79,
      "hit": false,
      "t": 31200,
      "d": 150,
      "v": 100
    },
    {
      "midi": 70,
      "hit": false,
      "t": 31200,
      "d": 150,
      "v": 100
    },
    {
      "midi": 78,
      "hit": false,
      "t": 31350,
      "d": 150,
      "v": 100
    },
    {
      "midi": 72,
      "hit": false,
      "t": 31350,
      "d": 150,
      "v": 100
    },
    {
      "midi": 79,
      "hit": false,
      "t": 31500,
      "d": 150,
      "v": 100
    },
    {
      "midi": 70,
      "hit": false,
      "t": 31500,
      "d": 150,
      "v": 100
    },
    {
      "midi": 81,
      "hit": false,
      "t": 31650,
      "d": 150,
      "v": 100
    },
    {
      "midi": 69,
      "hit": false,
      "t": 31650,
      "d": 150,
      "v": 100
    },
    {
      "midi": 82,
      "hit": false,
      "t": 31800,
      "d": 300,
      "v": 100
    },
    {
      "midi": 67,
      "hit": false,
      "t": 31800,
      "d": 300,
      "v": 100
    },
    {
      "midi": 79,
      "hit": false,
      "t": 32100,
      "d": 300,
      "v": 100
    },
    {
      "midi": 70,
      "hit": false,
      "t": 32100,
      "d": 300,
      "v": 100
    },
    {
      "midi": 67,
      "hit": false,
      "t": 32400,
      "d": 300,
      "v": 100
    },
    {
      "midi": 72,
      "hit": false,
      "t": 32700,
      "d": 300,
      "v": 100
    },
    {
      "midi": 70,
      "hit": false,
      "t": 32700,
      "d": 300,
      "v": 100
    },
    {
      "midi": 76,
      "hit": false,
      "t": 33000,
      "d": 300,
      "v": 100
    },
    {
      "midi": 67,
      "hit": false,
      "t": 33000,
      "d": 300,
      "v": 100
    },
    {
      "midi": 72,
      "hit": false,
      "t": 33300,
      "d": 300,
      "v": 100
    },
    {
      "midi": 70,
      "hit": false,
      "t": 33300,
      "d": 300,
      "v": 100
    },
    {
      "midi": 77,
      "hit": false,
      "t": 33600,
      "d": 150,
      "v": 100
    },
    {
      "midi": 69,
      "hit": false,
      "t": 33600,
      "d": 150,
      "v": 100
    },
    {
      "midi": 76,
      "hit": false,
      "t": 33750,
      "d": 150,
      "v": 100
    },
    {
      "midi": 70,
      "hit": false,
      "t": 33750,
      "d": 150,
      "v": 100
    },
    {
      "midi": 77,
      "hit": false,
      "t": 33900,
      "d": 150,
      "v": 100
    },
    {
      "midi": 69,
      "hit": false,
      "t": 33900,
      "d": 150,
      "v": 100
    },
    {
      "midi": 79,
      "hit": false,
      "t": 34050,
      "d": 150,
      "v": 100
    },
    {
      "midi": 67,
      "hit": false,
      "t": 34050,
      "d": 150,
      "v": 100
    },
    {
      "midi": 81,
      "hit": false,
      "t": 34200,
      "d": 300,
      "v": 100
    },
    {
      "midi": 65,
      "hit": false,
      "t": 34200,
      "d": 300,
      "v": 100
    },
    {
      "midi": 74,
      "hit": false,
      "t": 34500,
      "d": 300,
      "v": 100
    },
    {
      "midi": 69,
      "hit": false,
      "t": 34500,
      "d": 300,
      "v": 100
    },
    {
      "midi": 76,
      "hit": false,
      "t": 34800,
      "d": 150,
      "v": 100
    },
    {
      "midi": 67,
      "hit": false,
      "t": 34800,
      "d": 150,
      "v": 100
    },
    {
      "midi": 74,
      "hit": false,
      "t": 34950,
      "d": 150,
      "v": 100
    },
    {
      "midi": 69,
      "hit": false,
      "t": 34950,
      "d": 150,
      "v": 100
    },
    {
      "midi": 76,
      "hit": false,
      "t": 35100,
      "d": 150,
      "v": 100
    },
    {
      "midi": 67,
      "hit": false,
      "t": 35100,
      "d": 150,
      "v": 100
    },
    {
      "midi": 77,
      "hit": false,
      "t": 35250,
      "d": 150,
      "v": 100
    },
    {
      "midi": 65,
      "hit": false,
      "t": 35250,
      "d": 150,
      "v": 100
    },
    {
      "midi": 79,
      "hit": false,
      "t": 35400,
      "d": 300,
      "v": 100
    },
    {
      "midi": 64,
      "hit": false,
      "t": 35400,
      "d": 300,
      "v": 100
    },
    {
      "midi": 73,
      "hit": false,
      "t": 35700,
      "d": 300,
      "v": 100
    },
    {
      "midi": 67,
      "hit": false,
      "t": 35700,
      "d": 300,
      "v": 100
    },
    {
      "midi": 74,
      "hit": false,
      "t": 36000,
      "d": 150,
      "v": 100
    },
    {
      "midi": 65,
      "hit": false,
      "t": 36000,
      "d": 150,
      "v": 100
    },
    {
      "midi": 73,
      "hit": false,
      "t": 36150,
      "d": 150,
      "v": 100
    },
    {
      "midi": 67,
      "hit": false,
      "t": 36150,
      "d": 150,
      "v": 100
    },
    {
      "midi": 74,
      "hit": false,
      "t": 36300,
      "d": 150,
      "v": 100
    },
    {
      "midi": 65,
      "hit": false,
      "t": 36300,
      "d": 150,
      "v": 100
    },
    {
      "midi": 76,
      "hit": false,
      "t": 36450,
      "d": 150,
      "v": 100
    },
    {
      "midi": 64,
      "hit": false,
      "t": 36450,
      "d": 150,
      "v": 100
    },
    {
      "midi": 77,
      "hit": false,
      "t": 36600,
      "d": 300,
      "v": 100
    },
    {
      "midi": 62,
      "hit": false,
      "t": 36600,
      "d": 300,
      "v": 100
    },
    {
      "midi": 68,
      "hit": false,
      "t": 36900,
      "d": 300,
      "v": 100
    },
    {
      "midi": 58,
      "hit": false,
      "t": 36900,
      "d": 300,
      "v": 100
    },
    {
      "midi": 62,
      "hit": false,
      "t": 36900,
      "d": 300,
      "v": 100
    },
    {
      "midi": 69,
      "hit": false,
      "t": 37200,
      "d": 300,
      "v": 100
    },
    {
      "midi": 57,
      "hit": false,
      "t": 37200,
      "d": 300,
      "v": 100
    },
    {
      "midi": 61,
      "hit": false,
      "t": 37200,
      "d": 300,
      "v": 100
    },
    {
      "midi": 57,
      "hit": false,
      "t": 37500,
      "d": 300,
      "v": 100
    },
    {
      "midi": 69,
      "hit": false,
      "t": 37800,
      "d": 300,
      "v": 100
    },
    {
      "midi": 57,
      "hit": false,
      "t": 38100,
      "d": 300,
      "v": 100
    },
    {
      "midi": 69,
      "hit": false,
      "t": 38400,
      "d": 300,
      "v": 100
    },
    {
      "midi": 57,
      "hit": false,
      "t": 38700,
      "d": 300,
      "v": 100
    },
    {
      "midi": 53,
      "hit": false,
      "t": 39000,
      "d": 150,
      "v": 100
    },
    {
      "midi": 41,
      "hit": false,
      "t": 39000,
      "d": 150,
      "v": 100
    },
    {
      "midi": 55,
      "hit": false,
      "t": 39150,
      "d": 150,
      "v": 100
    },
    {
      "midi": 43,
      "hit": false,
      "t": 39150,
      "d": 150,
      "v": 100
    },
    {
      "midi": 56,
      "hit": false,
      "t": 39300,
      "d": 150,
      "v": 100
    },
    {
      "midi": 44,
      "hit": false,
      "t": 39300,
      "d": 150,
      "v": 100
    },
    {
      "midi": 57,
      "hit": false,
      "t": 39450,
      "d": 150,
      "v": 100
    },
    {
      "midi": 45,
      "hit": false,
      "t": 39450,
      "d": 150,
      "v": 100
    },
    {
      "midi": 58,
      "hit": false,
      "t": 39600,
      "d": 300,
      "v": 100
    },
    {
      "midi": 46,
      "hit": false,
      "t": 39600,
      "d": 300,
      "v": 100
    },
    {
      "midi": 62,
      "hit": false,
      "t": 39900,
      "d": 300,
      "v": 100
    },
    {
      "midi": 50,
      "hit": false,
      "t": 39900,
      "d": 300,
      "v": 100
    },
    {
      "midi": 58,
      "hit": false,
      "t": 40200,
      "d": 300,
      "v": 100
    },
    {
      "midi": 46,
      "hit": false,
      "t": 40200,
      "d": 300,
      "v": 100
    },
    {
      "midi": 62,
      "hit": false,
      "t": 40500,
      "d": 300,
      "v": 100
    },
    {
      "midi": 50,
      "hit": false,
      "t": 40500,
      "d": 300,
      "v": 100
    },
    {
      "midi": 58,
      "hit": false,
      "t": 40800,
      "d": 300,
      "v": 100
    },
    {
      "midi": 46,
      "hit": false,
      "t": 40800,
      "d": 300,
      "v": 100
    },
    {
      "midi": 62,
      "hit": false,
      "t": 41100,
      "d": 300,
      "v": 100
    },
    {
      "midi": 50,
      "hit": false,
      "t": 41100,
      "d": 300,
      "v": 100
    },
    {
      "midi": 58,
      "hit": false,
      "t": 41400,
      "d": 300,
      "v": 100
    },
    {
      "midi": 46,
      "hit": false,
      "t": 41400,
      "d": 300,
      "v": 100
    },
    {
      "midi": 62,
      "hit": false,
      "t": 41700,
      "d": 300,
      "v": 100
    },
    {
      "midi": 50,
      "hit": false,
      "t": 41700,
      "d": 300,
      "v": 100
    },
    {
      "midi": 58,
      "hit": false,
      "t": 42000,
      "d": 300,
      "v": 100
    },
    {
      "midi": 46,
      "hit": false,
      "t": 42000,
      "d": 300,
      "v": 100
    },
    {
      "midi": 62,
      "hit": false,
      "t": 42300,
      "d": 300,
      "v": 100
    },
    {
      "midi": 50,
      "hit": false,
      "t": 42300,
      "d": 300,
      "v": 100
    },
    {
      "midi": 58,
      "hit": false,
      "t": 42600,
      "d": 300,
      "v": 100
    },
    {
      "midi": 46,
      "hit": false,
      "t": 42600,
      "d": 300,
      "v": 100
    },
    {
      "midi": 62,
      "hit": false,
      "t": 42900,
      "d": 300,
      "v": 100
    },
    {
      "midi": 50,
      "hit": false,
      "t": 42900,
      "d": 300,
      "v": 100
    },
    {
      "midi": 65,
      "hit": false,
      "t": 43200,
      "d": 150,
      "v": 100
    },
    {
      "midi": 53,
      "hit": false,
      "t": 43200,
      "d": 150,
      "v": 100
    },
    {
      "midi": 64,
      "hit": false,
      "t": 43350,
      "d": 150,
      "v": 100
    },
    {
      "midi": 52,
      "hit": false,
      "t": 43350,
      "d": 150,
      "v": 100
    },
    {
      "midi": 65,
      "hit": false,
      "t": 43500,
      "d": 150,
      "v": 100
    },
    {
      "midi": 53,
      "hit": false,
      "t": 43500,
      "d": 150,
      "v": 100
    },
    {
      "midi": 67,
      "hit": false,
      "t": 43650,
      "d": 150,
      "v": 100
    },
    {
      "midi": 55,
      "hit": false,
      "t": 43650,
      "d": 150,
      "v": 100
    },
    {
      "midi": 65,
      "hit": false,
      "t": 43800,
      "d": 300,
      "v": 100
    },
    {
      "midi": 53,
      "hit": false,
      "t": 43800,
      "d": 300,
      "v": 100
    },
    {
      "midi": 55,
      "hit": false,
      "t": 44100,
      "d": 300,
      "v": 100
    },
    {
      "midi": 43,
      "hit": false,
      "t": 44100,
      "d": 300,
      "v": 100
    },
    {
      "midi": 60,
      "hit": false,
      "t": 44400,
      "d": 300,
      "v": 100
    },
    {
      "midi": 48,
      "hit": false,
      "t": 44400,
      "d": 300,
      "v": 100
    },
    {
      "midi": 63,
      "hit": false,
      "t": 44700,
      "d": 300,
      "v": 100
    },
    {
      "midi": 51,
      "hit": false,
      "t": 44700,
      "d": 300,
      "v": 100
    },
    {
      "midi": 60,
      "hit": false,
      "t": 45000,
      "d": 300,
      "v": 100
    },
    {
      "midi": 48,
      "hit": false,
      "t": 45000,
      "d": 300,
      "v": 100
    },
    {
      "midi": 63,
      "hit": false,
      "t": 45300,
      "d": 300,
      "v": 100
    },
    {
      "midi": 51,
      "hit": false,
      "t": 45300,
      "d": 300,
      "v": 100
    },
    {
      "midi": 60,
      "hit": false,
      "t": 45600,
      "d": 300,
      "v": 100
    },
    {
      "midi": 48,
      "hit": false,
      "t": 45600,
      "d": 300,
      "v": 100
    },
    {
      "midi": 63,
      "hit": false,
      "t": 45900,
      "d": 300,
      "v": 100
    },
    {
      "midi": 51,
      "hit": false,
      "t": 45900,
      "d": 300,
      "v": 100
    },
    {
      "midi": 60,
      "hit": false,
      "t": 46200,
      "d": 300,
      "v": 100
    },
    {
      "midi": 48,
      "hit": false,
      "t": 46200,
      "d": 300,
      "v": 100
    },
    {
      "midi": 63,
      "hit": false,
      "t": 46500,
      "d": 300,
      "v": 100
    },
    {
      "midi": 51,
      "hit": false,
      "t": 46500,
      "d": 300,
      "v": 100
    },
    {
      "midi": 60,
      "hit": false,
      "t": 46800,
      "d": 300,
      "v": 100
    },
    {
      "midi": 48,
      "hit": false,
      "t": 46800,
      "d": 300,
      "v": 100
    },
    {
      "midi": 63,
      "hit": false,
      "t": 47100,
      "d": 300,
      "v": 100
    },
    {
      "midi": 51,
      "hit": false,
      "t": 47100,
      "d": 300,
      "v": 100
    },
    {
      "midi": 60,
      "hit": false,
      "t": 47400,
      "d": 300,
      "v": 100
    },
    {
      "midi": 48,
      "hit": false,
      "t": 47400,
      "d": 300,
      "v": 100
    },
    {
      "midi": 63,
      "hit": false,
      "t": 47700,
      "d": 300,
      "v": 100
    },
    {
      "midi": 51,
      "hit": false,
      "t": 47700,
      "d": 300,
      "v": 100
    },
    {
      "midi": 67,
      "hit": false,
      "t": 48000,
      "d": 150,
      "v": 100
    },
    {
      "midi": 55,
      "hit": false,
      "t": 48000,
      "d": 150,
      "v": 100
    },
    {
      "midi": 66,
      "hit": false,
      "t": 48150,
      "d": 150,
      "v": 100
    },
    {
      "midi": 54,
      "hit": false,
      "t": 48150,
      "d": 150,
      "v": 100
    },
    {
      "midi": 67,
      "hit": false,
      "t": 48300,
      "d": 150,
      "v": 100
    },
    {
      "midi": 55,
      "hit": false,
      "t": 48300,
      "d": 150,
      "v": 100
    },
    {
      "midi": 69,
      "hit": false,
      "t": 48450,
      "d": 150,
      "v": 100
    },
    {
      "midi": 57,
      "hit": false,
      "t": 48450,
      "d": 150,
      "v": 100
    },
    {
      "midi": 67,
      "hit": false,
      "t": 48600,
      "d": 300,
      "v": 100
    },
    {
      "midi": 55,
      "hit": false,
      "t": 48600,
      "d": 300,
      "v": 100
    },
    {
      "midi": 79,
      "hit": false,
      "t": 48900,
      "d": 300,
      "v": 100
    },
    {
      "midi": 69,
      "hit": false,
      "t": 49200,
      "d": 300,
      "v": 100
    },
    {
      "midi": 53,
      "hit": false,
      "t": 49200,
      "d": 300,
      "v": 100
    },
    {
      "midi": 79,
      "hit": false,
      "t": 49500,
      "d": 300,
      "v": 100
    },
    {
      "midi": 65,
      "hit": false,
      "t": 49500,
      "d": 300,
      "v": 100
    },
    {
      "midi": 69,
      "hit": false,
      "t": 49800,
      "d": 300,
      "v": 100
    },
    {
      "midi": 60,
      "hit": false,
      "t": 49800,
      "d": 300,
      "v": 100
    },
    {
      "midi": 63,
      "hit": false,
      "t": 49800,
      "d": 300,
      "v": 100
    },
    {
      "midi": 79,
      "hit": false,
      "t": 50100,
      "d": 300,
      "v": 100
    },
    {
      "midi": 65,
      "hit": false,
      "t": 50100,
      "d": 300,
      "v": 100
    },
    {
      "midi": 77,
      "hit": false,
      "t": 50400,
      "d": 150,
      "v": 100
    },
    {
      "midi": 58,
      "hit": false,
      "t": 50400,
      "d": 300,
      "v": 100
    },
    {
      "midi": 62,
      "hit": false,
      "t": 50400,
      "d": 300,
      "v": 100
    },
    {
      "midi": 79,
      "hit": false,
      "t": 50550,
      "d": 150,
      "v": 100
    },
    {
      "midi": 77,
      "hit": false,
      "t": 50700,
      "d": 150,
      "v": 100
    },
    {
      "midi": 65,
      "hit": false,
      "t": 50700,
      "d": 300,
      "v": 100
    },
    {
      "midi": 74,
      "hit": false,
      "t": 50850,
      "d": 150,
      "v": 100
    },
    {
      "midi": 70,
      "hit": false,
      "t": 51000,
      "d": 300,
      "v": 100
    },
    {
      "midi": 58,
      "hit": false,
      "t": 51000,
      "d": 300,
      "v": 100
    },
    {
      "midi": 62,
      "hit": false,
      "t": 51000,
      "d": 300,
      "v": 100
    },
    {
      "midi": 79,
      "hit": false,
      "t": 51300,
      "d": 300,
      "v": 100
    },
    {
      "midi": 65,
      "hit": false,
      "t": 51300,
      "d": 300,
      "v": 100
    },
    {
      "midi": 69,
      "hit": false,
      "t": 51600,
      "d": 300,
      "v": 100
    },
    {
      "midi": 53,
      "hit": false,
      "t": 51600,
      "d": 300,
      "v": 100
    },
    {
      "midi": 79,
      "hit": false,
      "t": 51900,
      "d": 300,
      "v": 100
    },
    {
      "midi": 65,
      "hit": false,
      "t": 51900,
      "d": 300,
      "v": 100
    },
    {
      "midi": 69,
      "hit": false,
      "t": 52200,
      "d": 300,
      "v": 100
    },
    {
      "midi": 60,
      "hit": false,
      "t": 52200,
      "d": 300,
      "v": 100
    },
    {
      "midi": 63,
      "hit": false,
      "t": 52200,
      "d": 300,
      "v": 100
    },
    {
      "midi": 79,
      "hit": false,
      "t": 52500,
      "d": 300,
      "v": 100
    },
    {
      "midi": 65,
      "hit": false,
      "t": 52500,
      "d": 300,
      "v": 100
    },
    {
      "midi": 77,
      "hit": false,
      "t": 52800,
      "d": 150,
      "v": 100
    },
    {
      "midi": 58,
      "hit": false,
      "t": 52800,
      "d": 300,
      "v": 100
    },
    {
      "midi": 62,
      "hit": false,
      "t": 52800,
      "d": 300,
      "v": 100
    },
    {
      "midi": 79,
      "hit": false,
      "t": 52950,
      "d": 150,
      "v": 100
    },
    {
      "midi": 77,
      "hit": false,
      "t": 53100,
      "d": 150,
      "v": 100
    },
    {
      "midi": 65,
      "hit": false,
      "t": 53100,
      "d": 300,
      "v": 100
    },
    {
      "midi": 74,
      "hit": false,
      "t": 53250,
      "d": 150,
      "v": 100
    },
    {
      "midi": 70,
      "hit": false,
      "t": 53400,
      "d": 300,
      "v": 100
    },
    {
      "midi": 58,
      "hit": false,
      "t": 53400,
      "d": 300,
      "v": 100
    },
    {
      "midi": 62,
      "hit": false,
      "t": 53400,
      "d": 300,
      "v": 100
    },
    {
      "midi": 65,
      "hit": false,
      "t": 53700,
      "d": 300,
      "v": 100
    },
    {
      "midi": 74,
      "hit": false,
      "t": 53700,
      "d": 300,
      "v": 100
    },
    {
      "midi": 50,
      "hit": false,
      "t": 53700,
      "d": 300,
      "v": 100
    },
    {
      "midi": 58,
      "hit": false,
      "t": 53700,
      "d": 300,
      "v": 100
    },
    {
      "midi": 67,
      "hit": false,
      "t": 54000,
      "d": 600,
      "v": 100
    },
    {
      "midi": 74,
      "hit": false,
      "t": 54000,
      "d": 600,
      "v": 100
    },
    {
      "midi": 51,
      "hit": false,
      "t": 54000,
      "d": 600,
      "v": 100
    },
    {
      "midi": 58,
      "hit": false,
      "t": 54000,
      "d": 600,
      "v": 100
    },
    {
      "midi": 63,
      "hit": false,
      "t": 54600,
      "d": 300,
      "v": 100
    },
    {
      "midi": 53,
      "hit": false,
      "t": 54600,
      "d": 600,
      "v": 100
    },
    {
      "midi": 57,
      "hit": false,
      "t": 54600,
      "d": 600,
      "v": 100
    },
    {
      "midi": 72,
      "hit": false,
      "t": 54900,
      "d": 300,
      "v": 100
    },
    {
      "midi": 62,
      "hit": false,
      "t": 55200,
      "d": 300,
      "v": 100
    },
    {
      "midi": 70,
      "hit": false,
      "t": 55200,
      "d": 300,
      "v": 100
    },
    {
      "midi": 46,
      "hit": false,
      "t": 55200,
      "d": 600,
      "v": 100
    },
    {
      "midi": 53,
      "hit": false,
      "t": 55200,
      "d": 600,
      "v": 100
    },
    {
      "midi": 74,
      "hit": false,
      "t": 55500,
      "d": 300,
      "v": 100
    },
    {
      "midi": 77,
      "hit": false,
      "t": 55800,
      "d": 300,
      "v": 100
    },
    {
      "midi": 65,
      "hit": false,
      "t": 56100,
      "d": 300,
      "v": 100
    },
    {
      "midi": 74,
      "hit": false,
      "t": 56100,
      "d": 300,
      "v": 100
    },
    {
      "midi": 50,
      "hit": false,
      "t": 56100,
      "d": 300,
      "v": 100
    },
    {
      "midi": 58,
      "hit": false,
      "t": 56100,
      "d": 300,
      "v": 100
    },
    {
      "midi": 67,
      "hit": false,
      "t": 56400,
      "d": 600,
      "v": 100
    },
    {
      "midi": 74,
      "hit": false,
      "t": 56400,
      "d": 600,
      "v": 100
    },
    {
      "midi": 51,
      "hit": false,
      "t": 56400,
      "d": 600,
      "v": 100
    },
    {
      "midi": 58,
      "hit": false,
      "t": 56400,
      "d": 600,
      "v": 100
    },
    {
      "midi": 63,
      "hit": false,
      "t": 57000,
      "d": 300,
      "v": 100
    },
    {
      "midi": 53,
      "hit": false,
      "t": 57000,
      "d": 600,
      "v": 100
    },
    {
      "midi": 57,
      "hit": false,
      "t": 57000,
      "d": 600,
      "v": 100
    },
    {
      "midi": 72,
      "hit": false,
      "t": 57300,
      "d": 300,
      "v": 100
    },
    {
      "midi": 62,
      "hit": false,
      "t": 57600,
      "d": 600,
      "v": 100
    },
    {
      "midi": 70,
      "hit": false,
      "t": 57600,
      "d": 600,
      "v": 100
    },
    {
      "midi": 46,
      "hit": false,
      "t": 57600,
      "d": 600,
      "v": 100
    },
    {
      "midi": 53,
      "hit": false,
      "t": 57600,
      "d": 600,
      "v": 100
    }
  ]
}