{
  "jsonPath": "Soundtracks/Disney/Alan Menken/beauty-and-the-beast.json",
  "path": "Soundtracks\\Disney\\Alan Menken\\Beauty and the Beast.mid",
  "name": "Beauty and the Beast",
  "difficulty": "Advanced",
  "bpm": 100,
  "notes": [
    {
      "midi": 39,
      "hit": false,
      "t": 0,
      "d": 300,
      "v": 69
    },
    {
      "midi": 46,
      "hit": false,
      "t": 300,
      "d": 300,
      "v": 81
    },
    {
      "midi": 51,
      "hit": false,
      "t": 600,
      "d": 300,
      "v": 86
    },
    {
      "midi": 53,
      "hit": false,
      "t": 600,
      "d": 300,
      "v": 86
    },
    {
      "midi": 55,
      "hit": false,
      "t": 600,
      "d": 300,
      "v": 86
    },
    {
      "midi": 46,
      "hit": false,
      "t": 900,
      "d": 300,
      "v": 67
    },
    {
      "midi": 67,
      "hit": false,
      "t": 1200,
      "d": 300,
      "v": 67
    },
    {
      "midi": 51,
      "hit": false,
      "t": 1200,
      "d": 300,
      "v": 83
    },
    {
      "midi": 53,
      "hit": false,
      "t": 1200,
      "d": 300,
      "v": 83
    },
    {
      "midi": 55,
      "hit": false,
      "t": 1200,
      "d": 300,
      "v": 83
    },
    {
      "midi": 70,
      "hit": false,
      "t": 1500,
      "d": 300,
      "v": 83
    },
    {
      "midi": 46,
      "hit": false,
      "t": 1500,
      "d": 300,
      "v": 71
    },
    {
      "midi": 74,
      "hit": false,
      "t": 1800,
      "d": 300,
      "v": 82
    },
    {
      "midi": 51,
      "hit": false,
      "t": 1800,
      "d": 300,
      "v": 84
    },
    {
      "midi": 53,
      "hit": false,
      "t": 1800,
      "d": 300,
      "v": 84
    },
    {
      "midi": 55,
      "hit": false,
      "t": 1800,
      "d": 300,
      "v": 84
    },
    {
      "midi": 75,
      "hit": false,
      "t": 2100,
      "d": 300,
      "v": 82
    },
    {
      "midi": 46,
      "hit": false,
      "t": 2100,
      "d": 300,
      "v": 68
    },
    {
      "midi": 68,
      "hit": false,
      "t": 2400,
      "d": 1800,
      "v": 62
    },
    {
      "midi": 51,
      "hit": false,
      "t": 2400,
      "d": 300,
      "v": 82
    },
    {
      "midi": 53,
      "hit": false,
      "t": 2400,
      "d": 300,
      "v": 82
    },
    {
      "midi": 56,
      "hit": false,
      "t": 2400,
      "d": 300,
      "v": 82
    },
    {
      "midi": 46,
      "hit": false,
      "t": 2700,
      "d": 300,
      "v": 70
    },
    {
      "midi": 51,
      "hit": false,
      "t": 3000,
      "d": 300,
      "v": 83
    },
    {
      "midi": 53,
      "hit": false,
      "t": 3000,
      "d": 300,
      "v": 83
    },
    {
      "midi": 56,
      "hit": false,
      "t": 3000,
      "d": 300,
      "v": 83
    },
    {
      "midi": 46,
      "hit": false,
      "t": 3300,
      "d": 300,
      "v": 66
    },
    {
      "midi": 51,
      "hit": false,
      "t": 3600,
      "d": 300,
      "v": 83
    },
    {
      "midi": 53,
      "hit": false,
      "t": 3600,
      "d": 300,
      "v": 83
    },
    {
      "midi": 56,
      "hit": false,
      "t": 3600,
      "d": 300,
      "v": 83
    },
    {
      "midi": 46,
      "hit": false,
      "t": 3900,
      "d": 300,
      "v": 69
    },
    {
      "midi": 50,
      "hit": false,
      "t": 4200,
      "d": 300,
      "v": 82
    },
    {
      "midi": 53,
      "hit": false,
      "t": 4200,
      "d": 300,
      "v": 82
    },
    {
      "midi": 56,
      "hit": false,
      "t": 4200,
      "d": 300,
      "v": 82
    },
    {
      "midi": 46,
      "hit": false,
      "t": 4500,
      "d": 300,
      "v": 69
    },
    {
      "midi": 39,
      "hit": false,
      "t": 4800,
      "d": 300,
      "v": 70
    },
    {
      "midi": 46,
      "hit": false,
      "t": 5100,
      "d": 300,
      "v": 82
    },
    {
      "midi": 51,
      "hit": false,
      "t": 5400,
      "d": 300,
      "v": 86
    },
    {
      "midi": 53,
      "hit": false,
      "t": 5400,
      "d": 300,
      "v": 86
    },
    {
      "midi": 55,
      "hit": false,
      "t": 5400,
      "d": 300,
      "v": 86
    },
    {
      "midi": 46,
      "hit": false,
      "t": 5700,
      "d": 300,
      "v": 65
    },
    {
      "midi": 67,
      "hit": false,
      "t": 6000,
      "d": 300,
      "v": 66
    },
    {
      "midi": 51,
      "hit": false,
      "t": 6000,
      "d": 300,
      "v": 86
    },
    {
      "midi": 53,
      "hit": false,
      "t": 6000,
      "d": 300,
      "v": 86
    },
    {
      "midi": 55,
      "hit": false,
      "t": 6000,
      "d": 300,
      "v": 86
    },
    {
      "midi": 70,
      "hit": false,
      "t": 6300,
      "d": 300,
      "v": 79
    },
    {
      "midi": 46,
      "hit": false,
      "t": 6300,
      "d": 300,
      "v": 70
    },
    {
      "midi": 74,
      "hit": false,
      "t": 6600,
      "d": 300,
      "v": 83
    },
    {
      "midi": 51,
      "hit": false,
      "t": 6600,
      "d": 300,
      "v": 84
    },
    {
      "midi": 53,
      "hit": false,
      "t": 6600,
      "d": 300,
      "v": 84
    },
    {
      "midi": 55,
      "hit": false,
      "t": 6600,
      "d": 300,
      "v": 84
    },
    {
      "midi": 75,
      "hit": false,
      "t": 6900,
      "d": 300,
      "v": 80
    },
    {
      "midi": 46,
      "hit": false,
      "t": 6900,
      "d": 300,
      "v": 67
    },
    {
      "midi": 77,
      "hit": false,
      "t": 7200,
      "d": 1800,
      "v": 82
    },
    {
      "midi": 51,
      "hit": false,
      "t": 7200,
      "d": 300,
      "v": 82
    },
    {
      "midi": 53,
      "hit": false,
      "t": 7200,
      "d": 300,
      "v": 82
    },
    {
      "midi": 56,
      "hit": false,
      "t": 7200,
      "d": 300,
      "v": 82
    },
    {
      "midi": 46,
      "hit": false,
      "t": 7500,
      "d": 300,
      "v": 71
    },
    {
      "midi": 51,
      "hit": false,
      "t": 7800,
      "d": 300,
      "v": 84
    },
    {
      "midi": 53,
      "hit": false,
      "t": 7800,
      "d": 300,
      "v": 84
    },
    {
      "midi": 56,
      "hit": false,
      "t": 7800,
      "d": 300,
      "v": 84
    },
    {
      "midi": 46,
      "hit": false,
      "t": 8100,
      "d": 300,
      "v": 66
    },
    {
      "midi": 51,
      "hit": false,
      "t": 8400,
      "d": 300,
      "v": 85
    },
    {
      "midi": 53,
      "hit": false,
      "t": 8400,
      "d": 300,
      "v": 85
    },
    {
      "midi": 56,
      "hit": false,
      "t": 8400,
      "d": 300,
      "v": 85
    },
    {
      "midi": 46,
      "hit": false,
      "t": 8700,
      "d": 300,
      "v": 69
    },
    {
      "midi": 50,
      "hit": false,
      "t": 9000,
      "d": 300,
      "v": 79
    },
    {
      "midi": 53,
      "hit": false,
      "t": 9000,
      "d": 300,
      "v": 79
    },
    {
      "midi": 56,
      "hit": false,
      "t": 9000,
      "d": 300,
      "v": 79
    },
    {
      "midi": 46,
      "hit": false,
      "t": 9300,
      "d": 300,
      "v": 70
    },
    {
      "midi": 39,
      "hit": false,
      "t": 9600,
      "d": 300,
      "v": 67
    },
    {
      "midi": 46,
      "hit": false,
      "t": 9900,
      "d": 300,
      "v": 83
    },
    {
      "midi": 51,
      "hit": false,
      "t": 10200,
      "d": 300,
      "v": 83
    },
    {
      "midi": 53,
      "hit": false,
      "t": 10200,
      "d": 300,
      "v": 83
    },
    {
      "midi": 55,
      "hit": false,
      "t": 10200,
      "d": 300,
      "v": 83
    },
    {
      "midi": 46,
      "hit": false,
      "t": 10500,
      "d": 300,
      "v": 69
    },
    {
      "midi": 75,
      "hit": false,
      "t": 10800,
      "d": 300,
      "v": 69
    },
    {
      "midi": 51,
      "hit": false,
      "t": 10800,
      "d": 300,
      "v": 85
    },
    {
      "midi": 53,
      "hit": false,
      "t": 10800,
      "d": 300,
      "v": 85
    },
    {
      "midi": 55,
      "hit": false,
      "t": 10800,
      "d": 300,
      "v": 85
    },
    {
      "midi": 77,
      "hit": false,
      "t": 11100,
      "d": 300,
      "v": 85
    },
    {
      "midi": 46,
      "hit": false,
      "t": 11100,
      "d": 300,
      "v": 70
    },
    {
      "midi": 79,
      "hit": false,
      "t": 11400,
      "d": 300,
      "v": 84
    },
    {
      "midi": 51,
      "hit": false,
      "t": 11400,
      "d": 300,
      "v": 87
    },
    {
      "midi": 53,
      "hit": false,
      "t": 11400,
      "d": 300,
      "v": 87
    },
    {
      "midi": 55,
      "hit": false,
      "t": 11400,
      "d": 300,
      "v": 87
    },
    {
      "midi": 80,
      "hit": false,
      "t": 11700,
      "d": 300,
      "v": 81
    },
    {
      "midi": 46,
      "hit": false,
      "t": 11700,
      "d": 300,
      "v": 69
    },
    {
      "midi": 82,
      "hit": false,
      "t": 12000,
      "d": 1200,
      "v": 81
    },
    {
      "midi": 43,
      "hit": false,
      "t": 12000,
      "d": 300,
      "v": 70
    },
    {
      "midi": 50,
      "hit": false,
      "t": 12300,
      "d": 300,
      "v": 84
    },
    {
      "midi": 55,
      "hit": false,
      "t": 12600,
      "d": 300,
      "v": 85
    },
    {
      "midi": 58,
      "hit": false,
      "t": 12600,
      "d": 300,
      "v": 85
    },
    {
      "midi": 50,
      "hit": false,
      "t": 12900,
      "d": 300,
      "v": 69
    },
    {
      "midi": 82,
      "hit": false,
      "t": 13200,
      "d": 300,
      "v": 77
    },
    {
      "midi": 55,
      "hit": false,
      "t": 13200,
      "d": 300,
      "v": 80
    },
    {
      "midi": 58,
      "hit": false,
      "t": 13200,
      "d": 300,
      "v": 80
    },
    {
      "midi": 80,
      "hit": false,
      "t": 13500,
      "d": 300,
      "v": 70
    },
    {
      "midi": 50,
      "hit": false,
      "t": 13500,
      "d": 300,
      "v": 75
    },
    {
      "midi": 79,
      "hit": false,
      "t": 13800,
      "d": 300,
      "v": 71
    },
    {
      "midi": 55,
      "hit": false,
      "t": 13800,
      "d": 300,
      "v": 84
    },
    {
      "midi": 58,
      "hit": false,
      "t": 13800,
      "d": 300,
      "v": 84
    },
    {
      "midi": 77,
      "hit": false,
      "t": 14100,
      "d": 300,
      "v": 74
    },
    {
      "midi": 50,
      "hit": false,
      "t": 14100,
      "d": 300,
      "v": 70
    },
    {
      "midi": 75,
      "hit": false,
      "t": 14400,
      "d": 1200,
      "v": 70
    },
    {
      "midi": 44,
      "hit": false,
      "t": 14400,
      "d": 300,
      "v": 72
    },
    {
      "midi": 51,
      "hit": false,
      "t": 14700,
      "d": 300,
      "v": 81
    },
    {
      "midi": 56,
      "hit": false,
      "t": 15000,
      "d": 300,
      "v": 89
    },
    {
      "midi": 58,
      "hit": false,
      "t": 15000,
      "d": 300,
      "v": 89
    },
    {
      "midi": 60,
      "hit": false,
      "t": 15000,
      "d": 300,
      "v": 89
    },
    {
      "midi": 51,
      "hit": false,
      "t": 15300,
      "d": 300,
      "v": 72
    },
    {
      "midi": 80,
      "hit": false,
      "t": 15600,
      "d": 300,
      "v": 84
    },
    {
      "midi": 60,
      "hit": false,
      "t": 15600,
      "d": 300,
      "v": 93
    },
    {
      "midi": 79,
      "hit": false,
      "t": 15900,
      "d": 300,
      "v": 73
    },
    {
      "midi": 58,
      "hit": false,
      "t": 15900,
      "d": 300,
      "v": 80
    },
    {
      "midi": 77,
      "hit": false,
      "t": 16200,
      "d": 300,
      "v": 74
    },
    {
      "midi": 56,
      "hit": false,
      "t": 16200,
      "d": 300,
      "v": 74
    },
    {
      "midi": 75,
      "hit": false,
      "t": 16500,
      "d": 300,
      "v": 70
    },
    {
      "midi": 55,
      "hit": false,
      "t": 16500,
      "d": 300,
      "v": 76
    },
    {
      "midi": 70,
      "hit": false,
      "t": 16800,
      "d": 1800,
      "v": 64
    },
    {
      "midi": 46,
      "hit": false,
      "t": 16800,
      "d": 300,
      "v": 70
    },
    {
      "midi": 53,
      "hit": false,
      "t": 17100,
      "d": 300,
      "v": 79
    },
    {
      "midi": 56,
      "hit": false,
      "t": 17400,
      "d": 300,
      "v": 91
    },
    {
      "midi": 58,
      "hit": false,
      "t": 17400,
      "d": 300,
      "v": 91
    },
    {
      "midi": 63,
      "hit": false,
      "t": 17400,
      "d": 300,
      "v": 91
    },
    {
      "midi": 53,
      "hit": false,
      "t": 17700,
      "d": 300,
      "v": 70
    },
    {
      "midi": 56,
      "hit": false,
      "t": 18000,
      "d": 600,
      "v": 94
    },
    {
      "midi": 58,
      "hit": false,
      "t": 18000,
      "d": 600,
      "v": 94
    },
    {
      "midi": 63,
      "hit": false,
      "t": 18000,
      "d": 600,
      "v": 94
    },
    {
      "midi": 46,
      "hit": false,
      "t": 18600,
      "d": 600,
      "v": 68
    },
    {
      "midi": 39,
      "hit": false,
      "t": 19200,
      "d": 300,
      "v": 68
    },
    {
      "midi": 46,
      "hit": false,
      "t": 19500,
      "d": 300,
      "v": 84
    },
    {
      "midi": 51,
      "hit": false,
      "t": 19800,
      "d": 300,
      "v": 86
    },
    {
      "midi": 53,
      "hit": false,
      "t": 19800,
      "d": 300,
      "v": 86
    },
    {
      "midi": 55,
      "hit": false,
      "t": 19800,
      "d": 300,
      "v": 86
    },
    {
      "midi": 46,
      "hit": false,
      "t": 20100,
      "d": 300,
      "v": 69
    },
    {
      "midi": 67,
      "hit": false,
      "t": 20400,
      "d": 300,
      "v": 71
    },
    {
      "midi": 51,
      "hit": false,
      "t": 20400,
      "d": 300,
      "v": 86
    },
    {
      "midi": 53,
      "hit": false,
      "t": 20400,
      "d": 300,
      "v": 86
    },
    {
      "midi": 55,
      "hit": false,
      "t": 20400,
      "d": 300,
      "v": 86
    },
    {
      "midi": 70,
      "hit": false,
      "t": 20700,
      "d": 300,
      "v": 83
    },
    {
      "midi": 46,
      "hit": false,
      "t": 20700,
      "d": 300,
      "v": 63
    },
    {
      "midi": 74,
      "hit": false,
      "t": 21000,
      "d": 300,
      "v": 83
    },
    {
      "midi": 51,
      "hit": false,
      "t": 21000,
      "d": 300,
      "v": 86
    },
    {
      "midi": 53,
      "hit": false,
      "t": 21000,
      "d": 300,
      "v": 86
    },
    {
      "midi": 55,
      "hit": false,
      "t": 21000,
      "d": 300,
      "v": 86
    },
    {
      "midi": 75,
      "hit": false,
      "t": 21300,
      "d": 300,
      "v": 77
    },
    {
      "midi": 46,
      "hit": false,
      "t": 21300,
      "d": 300,
      "v": 68
    },
    {
      "midi": 68,
      "hit": false,
      "t": 21600,
      "d": 1800,
      "v": 61
    },
    {
      "midi": 51,
      "hit": false,
      "t": 21600,
      "d": 300,
      "v": 86
    },
    {
      "midi": 53,
      "hit": false,
      "t": 21600,
      "d": 300,
      "v": 86
    },
    {
      "midi": 56,
      "hit": false,
      "t": 21600,
      "d": 300,
      "v": 86
    },
    {
      "midi": 46,
      "hit": false,
      "t": 21900,
      "d": 300,
      "v": 65
    },
    {
      "midi": 51,
      "hit": false,
      "t": 22200,
      "d": 300,
      "v": 86
    },
    {
      "midi": 53,
      "hit": false,
      "t": 22200,
      "d": 300,
      "v": 86
    },
    {
      "midi": 56,
      "hit": false,
      "t": 22200,
      "d": 300,
      "v": 86
    },
    {
      "midi": 46,
      "hit": false,
      "t": 22500,
      "d": 300,
      "v": 67
    },
    {
      "midi": 51,
      "hit": false,
      "t": 22800,
      "d": 300,
      "v": 81
    },
    {
      "midi": 53,
      "hit": false,
      "t": 22800,
      "d": 300,
      "v": 81
    },
    {
      "midi": 56,
      "hit": false,
      "t": 22800,
      "d": 300,
      "v": 81
    },
    {
      "midi": 46,
      "hit": false,
      "t": 23100,
      "d": 300,
      "v": 68
    },
    {
      "midi": 50,
      "hit": false,
      "t": 23400,
      "d": 300,
      "v": 80
    },
    {
      "midi": 53,
      "hit": false,
      "t": 23400,
      "d": 300,
      "v": 80
    },
    {
      "midi": 56,
      "hit": false,
      "t": 23400,
      "d": 300,
      "v": 80
    },
    {
      "midi": 46,
      "hit": false,
      "t": 23700,
      "d": 300,
      "v": 69
    },
    {
      "midi": 39,
      "hit": false,
      "t": 24000,
      "d": 300,
      "v": 71
    },
    {
      "midi": 46,
      "hit": false,
      "t": 24300,
      "d": 300,
      "v": 80
    },
    {
      "midi": 51,
      "hit": false,
      "t": 24600,
      "d": 300,
      "v": 88
    },
    {
      "midi": 53,
      "hit": false,
      "t": 24600,
      "d": 300,
      "v": 88
    },
    {
      "midi": 55,
      "hit": false,
      "t": 24600,
      "d": 300,
      "v": 88
    },
    {
      "midi": 46,
      "hit": false,
      "t": 24900,
      "d": 300,
      "v": 69
    },
    {
      "midi": 67,
      "hit": false,
      "t": 25200,
      "d": 300,
      "v": 71
    },
    {
      "midi": 51,
      "hit": false,
      "t": 25200,
      "d": 300,
      "v": 81
    },
    {
      "midi": 53,
      "hit": false,
      "t": 25200,
      "d": 300,
      "v": 81
    },
    {
      "midi": 55,
      "hit": false,
      "t": 25200,
      "d": 300,
      "v": 81
    },
    {
      "midi": 70,
      "hit": false,
      "t": 25500,
      "d": 300,
      "v": 81
    },
    {
      "midi": 46,
      "hit": false,
      "t": 25500,
      "d": 300,
      "v": 72
    },
    {
      "midi": 74,
      "hit": false,
      "t": 25800,
      "d": 300,
      "v": 83
    },
    {
      "midi": 51,
      "hit": false,
      "t": 25800,
      "d": 300,
      "v": 85
    },
    {
      "midi": 53,
      "hit": false,
      "t": 25800,
      "d": 300,
      "v": 85
    },
    {
      "midi": 55,
      "hit": false,
      "t": 25800,
      "d": 300,
      "v": 85
    },
    {
      "midi": 75,
      "hit": false,
      "t": 26100,
      "d": 300,
      "v": 79
    },
    {
      "midi": 46,
      "hit": false,
      "t": 26100,
      "d": 300,
      "v": 74
    },
    {
      "midi": 77,
      "hit": false,
      "t": 26400,
      "d": 1200,
      "v": 83
    },
    {
      "midi": 46,
      "hit": false,
      "t": 26400,
      "d": 300,
      "v": 73
    },
    {
      "midi": 53,
      "hit": false,
      "t": 26700,
      "d": 300,
      "v": 82
    },
    {
      "midi": 56,
      "hit": false,
      "t": 27000,
      "d": 300,
      "v": 96
    },
    {
      "midi": 58,
      "hit": false,
      "t": 27000,
      "d": 300,
      "v": 96
    },
    {
      "midi": 61,
      "hit": false,
      "t": 27000,
      "d": 300,
      "v": 96
    },
    {
      "midi": 53,
      "hit": false,
      "t": 27300,
      "d": 300,
      "v": 69
    },
    {
      "midi": 79,
      "hit": false,
      "t": 27600,
      "d": 300,
      "v": 81
    },
    {
      "midi": 51,
      "hit": false,
      "t": 27600,
      "d": 600,
      "v": 92
    },
    {
      "midi": 55,
      "hit": false,
      "t": 27600,
      "d": 600,
      "v": 92
    },
    {
      "midi": 61,
      "hit": false,
      "t": 27600,
      "d": 600,
      "v": 92
    },
    {
      "midi": 77,
      "hit": false,
      "t": 27900,
      "d": 300,
      "v": 71
    },
    {
      "midi": 79,
      "hit": false,
      "t": 28200,
      "d": 300,
      "v": 83
    },
    {
      "midi": 39,
      "hit": false,
      "t": 28200,
      "d": 600,
      "v": 68
    },
    {
      "midi": 82,
      "hit": false,
      "t": 28500,
      "d": 300,
      "v": 82
    },
    {
      "midi": 75,
      "hit": false,
      "t": 28800,
      "d": 1200,
      "v": 67
    },
    {
      "midi": 44,
      "hit": false,
      "t": 28800,
      "d": 300,
      "v": 79
    },
    {
      "midi": 51,
      "hit": false,
      "t": 29100,
      "d": 300,
      "v": 83
    },
    {
      "midi": 55,
      "hit": false,
      "t": 29400,
      "d": 300,
      "v": 96
    },
    {
      "midi": 56,
      "hit": false,
      "t": 29400,
      "d": 300,
      "v": 96
    },
    {
      "midi": 60,
      "hit": false,
      "t": 29400,
      "d": 300,
      "v": 96
    },
    {
      "midi": 51,
      "hit": false,
      "t": 29700,
      "d": 300,
      "v": 69
    },
    {
      "midi": 75,
      "hit": false,
      "t": 30000,
      "d": 300,
      "v": 68
    },
    {
      "midi": 55,
      "hit": false,
      "t": 30000,
      "d": 600,
      "v": 92
    },
    {
      "midi": 56,
      "hit": false,
      "t": 30000,
      "d": 600,
      "v": 92
    },
    {
      "midi": 60,
      "hit": false,
      "t": 30000,
      "d": 600,
      "v": 92
    },
    {
      "midi": 74,
      "hit": false,
      "t": 30300,
      "d": 300,
      "v": 77
    },
    {
      "midi": 75,
      "hit": false,
      "t": 30600,
      "d": 300,
      "v": 84
    },
    {
      "midi": 53,
      "hit": false,
      "t": 30600,
      "d": 600,
      "v": 75
    },
    {
      "midi": 55,
      "hit": false,
      "t": 30600,
      "d": 600,
      "v": 75
    },
    {
      "midi": 58,
      "hit": false,
      "t": 30600,
      "d": 600,
      "v": 75
    },
    {
      "midi": 79,
      "hit": false,
      "t": 30900,
      "d": 300,
      "v": 88
    },
    {
      "midi": 68,
      "hit": false,
      "t": 31200,
      "d": 1200,
      "v": 61
    },
    {
      "midi": 41,
      "hit": false,
      "t": 31200,
      "d": 300,
      "v": 64
    },
    {
      "midi": 48,
      "hit": false,
      "t": 31500,
      "d": 300,
      "v": 80
    },
    {
      "midi": 51,
      "hit": false,
      "t": 31800,
      "d": 300,
      "v": 78
    },
    {
      "midi": 56,
      "hit": false,
      "t": 32100,
      "d": 300,
      "v": 81
    },
    {
      "midi": 79,
      "hit": false,
      "t": 32400,
      "d": 300,
      "v": 94
    },
    {
      "midi": 51,
      "hit": false,
      "t": 32400,
      "d": 600,
      "v": 67
    },
    {
      "midi": 56,
      "hit": false,
      "t": 32400,
      "d": 600,
      "v": 76
    },
    {
      "midi": 80,
      "hit": false,
      "t": 32700,
      "d": 300,
      "v": 85
    },
    {
      "midi": 77,
      "hit": false,
      "t": 33000,
      "d": 300,
      "v": 72
    },
    {
      "midi": 50,
      "hit": false,
      "t": 33000,
      "d": 600,
      "v": 70
    },
    {
      "midi": 79,
      "hit": false,
      "t": 33300,
      "d": 300,
      "v": 81
    },
    {
      "midi": 75,
      "hit": false,
      "t": 33600,
      "d": 1200,
      "v": 69
    },
    {
      "midi": 39,
      "hit": false,
      "t": 33600,
      "d": 300,
      "v": 70
    },
    {
      "midi": 46,
      "hit": false,
      "t": 33900,
      "d": 300,
      "v": 80
    },
    {
      "midi": 51,
      "hit": false,
      "t": 34200,
      "d": 300,
      "v": 89
    },
    {
      "midi": 53,
      "hit": false,
      "t": 34200,
      "d": 300,
      "v": 89
    },
    {
      "midi": 55,
      "hit": false,
      "t": 34200,
      "d": 300,
      "v": 89
    },
    {
      "midi": 46,
      "hit": false,
      "t": 34500,
      "d": 300,
      "v": 67
    },
    {
      "midi": 67,
      "hit": false,
      "t": 34800,
      "d": 300,
      "v": 58
    },
    {
      "midi": 51,
      "hit": false,
      "t": 34800,
      "d": 300,
      "v": 82
    },
    {
      "midi": 53,
      "hit": false,
      "t": 34800,
      "d": 300,
      "v": 82
    },
    {
      "midi": 55,
      "hit": false,
      "t": 34800,
      "d": 300,
      "v": 82
    },
    {
      "midi": 68,
      "hit": false,
      "t": 35100,
      "d": 300,
      "v": 76
    },
    {
      "midi": 46,
      "hit": false,
      "t": 35100,
      "d": 300,
      "v": 72
    },
    {
      "midi": 65,
      "hit": false,
      "t": 35400,
      "d": 300,
      "v": 72
    },
    {
      "midi": 51,
      "hit": false,
      "t": 35400,
      "d": 300,
      "v": 80
    },
    {
      "midi": 53,
      "hit": false,
      "t": 35400,
      "d": 300,
      "v": 80
    },
    {
      "midi": 55,
      "hit": false,
      "t": 35400,
      "d": 300,
      "v": 80
    },
    {
      "midi": 67,
      "hit": false,
      "t": 35700,
      "d": 300,
      "v": 72
    },
    {
      "midi": 46,
      "hit": false,
      "t": 35700,
      "d": 300,
      "v": 70
    },
    {
      "midi": 63,
      "hit": false,
      "t": 36000,
      "d": 1200,
      "v": 67
    },
    {
      "midi": 51,
      "hit": false,
      "t": 36000,
      "d": 300,
      "v": 83
    },
    {
      "midi": 53,
      "hit": false,
      "t": 36000,
      "d": 300,
      "v": 83
    },
    {
      "midi": 56,
      "hit": false,
      "t": 36000,
      "d": 300,
      "v": 83
    },
    {
      "midi": 46,
      "hit": false,
      "t": 36300,
      "d": 300,
      "v": 66
    },
    {
      "midi": 51,
      "hit": false,
      "t": 36600,
      "d": 300,
      "v": 84
    },
    {
      "midi": 53,
      "hit": false,
      "t": 36600,
      "d": 300,
      "v": 84
    },
    {
      "midi": 56,
      "hit": false,
      "t": 36600,
      "d": 300,
      "v": 84
    },
    {
      "midi": 46,
      "hit": false,
      "t": 36900,
      "d": 300,
      "v": 68
    },
    {
      "midi": 63,
      "hit": false,
      "t": 37200,
      "d": 300,
      "v": 98
    },
    {
      "midi": 75,
      "hit": false,
      "t": 37200,
      "d": 300,
      "v": 98
    },
    {
      "midi": 51,
      "hit": false,
      "t": 37200,
      "d": 300,
      "v": 82
    },
    {
      "midi": 53,
      "hit": false,
      "t": 37200,
      "d": 300,
      "v": 82
    },
    {
      "midi": 56,
      "hit": false,
      "t": 37200,
      "d": 300,
      "v": 82
    },
    {
      "midi": 65,
      "hit": false,
      "t": 37500,
      "d": 300,
      "v": 82
    },
    {
      "midi": 77,
      "hit": false,
      "t": 37500,
      "d": 300,
      "v": 82
    },
    {
      "midi": 46,
      "hit": false,
      "t": 37500,
      "d": 300,
      "v": 68
    },
    {
      "midi": 67,
      "hit": false,
      "t": 37800,
      "d": 300,
      "v": 83
    },
    {
      "midi": 79,
      "hit": false,
      "t": 37800,
      "d": 300,
      "v": 83
    },
    {
      "midi": 51,
      "hit": false,
      "t": 37800,
      "d": 300,
      "v": 84
    },
    {
      "midi": 53,
      "hit": false,
      "t": 37800,
      "d": 300,
      "v": 84
    },
    {
      "midi": 56,
      "hit": false,
      "t": 37800,
      "d": 300,
      "v": 84
    },
    {
      "midi": 68,
      "hit": false,
      "t": 38100,
      "d": 300,
      "v": 82
    },
    {
      "midi": 80,
      "hit": false,
      "t": 38100,
      "d": 300,
      "v": 82
    },
    {
      "midi": 46,
      "hit": false,
      "t": 38100,
      "d": 300,
      "v": 65
    },
    {
      "midi": 70,
      "hit": false,
      "t": 38400,
      "d": 2400,
      "v": 79
    },
    {
      "midi": 74,
      "hit": false,
      "t": 38400,
      "d": 2400,
      "v": 79
    },
    {
      "midi": 79,
      "hit": false,
      "t": 38400,
      "d": 2400,
      "v": 79
    },
    {
      "midi": 82,
      "hit": false,
      "t": 38400,
      "d": 2400,
      "v": 79
    },
    {
      "midi": 43,
      "hit": false,
      "t": 38400,
      "d": 300,
      "v": 70
    },
    {
      "midi": 50,
      "hit": false,
      "t": 38700,
      "d": 300,
      "v": 83
    },
    {
      "midi": 55,
      "hit": false,
      "t": 39000,
      "d": 300,
      "v": 82
    },
    {
      "midi": 58,
      "hit": false,
      "t": 39300,
      "d": 300,
      "v": 81
    },
    {
      "midi": 58,
      "hit": false,
      "t": 39900,
      "d": 300,
      "v": 69
    },
    {
      "midi": 55,
      "hit": false,
      "t": 40200,
      "d": 300,
      "v": 72
    },
    {
      "midi": 50,
      "hit": false,
      "t": 40500,
      "d": 300,
      "v": 70
    },
    {
      "midi": 63,
      "hit": false,
      "t": 40800,
      "d": 1200,
      "v": 55
    },
    {
      "midi": 68,
      "hit": false,
      "t": 40800,
      "d": 1200,
      "v": 55
    },
    {
      "midi": 70,
      "hit": false,
      "t": 40800,
      "d": 1200,
      "v": 55
    },
    {
      "midi": 44,
      "hit": false,
      "t": 40800,
      "d": 300,
      "v": 69
    },
    {
      "midi": 51,
      "hit": false,
      "t": 41100,
      "d": 300,
      "v": 86
    },
    {
      "midi": 56,
      "hit": false,
      "t": 41400,
      "d": 300,
      "v": 82
    },
    {
      "midi": 60,
      "hit": false,
      "t": 41700,
      "d": 300,
      "v": 83
    },
    {
      "midi": 72,
      "hit": false,
      "t": 42000,
      "d": 300,
      "v": 75
    },
    {
      "midi": 63,
      "hit": false,
      "t": 42000,
      "d": 300,
      "v": 82
    },
    {
      "midi": 74,
      "hit": false,
      "t": 42300,
      "d": 300,
      "v": 76
    },
    {
      "midi": 60,
      "hit": false,
      "t": 42300,
      "d": 300,
      "v": 72
    },
    {
      "midi": 75,
      "hit": false,
      "t": 42600,
      "d": 300,
      "v": 76
    },
    {
      "midi": 56,
      "hit": false,
      "t": 42600,
      "d": 300,
      "v": 66
    },
    {
      "midi": 84,
      "hit": false,
      "t": 42900,
      "d": 300,
      "v": 90
    },
    {
      "midi": 51,
      "hit": false,
      "t": 42900,
      "d": 300,
      "v": 69
    },
    {
      "midi": 70,
      "hit": false,
      "t": 43200,
      "d": 2400,
      "v": 78
    },
    {
      "midi": 74,
      "hit": false,
      "t": 43200,
      "d": 2400,
      "v": 78
    },
    {
      "midi": 79,
      "hit": false,
      "t": 43200,
      "d": 2400,
      "v": 78
    },
    {
      "midi": 82,
      "hit": false,
      "t": 43200,
      "d": 2400,
      "v": 78
    },
    {
      "midi": 43,
      "hit": false,
      "t": 43200,
      "d": 300,
      "v": 66
    },
    {
      "midi": 50,
      "hit": false,
      "t": 43500,
      "d": 300,
      "v": 84
    },
    {
      "midi": 55,
      "hit": false,
      "t": 43800,
      "d": 300,
      "v": 80
    },
    {
      "midi": 58,
      "hit": false,
      "t": 44100,
      "d": 300,
      "v": 83
    },
    {
      "midi": 58,
      "hit": false,
      "t": 44700,
      "d": 300,
      "v": 72
    },
    {
      "midi": 55,
      "hit": false,
      "t": 45000,
      "d": 300,
      "v": 69
    },
    {
      "midi": 50,
      "hit": false,
      "t": 45300,
      "d": 300,
      "v": 72
    },
    {
      "midi": 63,
      "hit": false,
      "t": 45600,
      "d": 1200,
      "v": 62
    },
    {
      "midi": 68,
      "hit": false,
      "t": 45600,
      "d": 1200,
      "v": 62
    },
    {
      "midi": 70,
      "hit": false,
      "t": 45600,
      "d": 1200,
      "v": 62
    },
    {
      "midi": 72,
      "hit": false,
      "t": 45600,
      "d": 1200,
      "v": 62
    },
    {
      "midi": 44,
      "hit": false,
      "t": 45600,
      "d": 300,
      "v": 69
    },
    {
      "midi": 51,
      "hit": false,
      "t": 45900,
      "d": 300,
      "v": 79
    },
    {
      "midi": 56,
      "hit": false,
      "t": 46200,
      "d": 300,
      "v": 81
    },
    {
      "midi": 60,
      "hit": false,
      "t": 46500,
      "d": 300,
      "v": 87
    },
    {
      "midi": 75,
      "hit": false,
      "t": 46800,
      "d": 300,
      "v": 76
    },
    {
      "midi": 63,
      "hit": false,
      "t": 46800,
      "d": 300,
      "v": 85
    },
    {
      "midi": 77,
      "hit": false,
      "t": 47100,
      "d": 300,
      "v": 81
    },
    {
      "midi": 60,
      "hit": false,
      "t": 47100,
      "d": 300,
      "v": 73
    },
    {
      "midi": 79,
      "hit": false,
      "t": 47400,
      "d": 300,
      "v": 79
    },
    {
      "midi": 58,
      "hit": false,
      "t": 47400,
      "d": 300,
      "v": 73
    },
    {
      "midi": 80,
      "hit": false,
      "t": 47700,
      "d": 300,
      "v": 80
    },
    {
      "midi": 56,
      "hit": false,
      "t": 47700,
      "d": 300,
      "v": 74
    },
    {
      "midi": 74,
      "hit": false,
      "t": 48000,
      "d": 1200,
      "v": 83
    },
    {
      "midi": 77,
      "hit": false,
      "t": 48000,
      "d": 1200,
      "v": 83
    },
    {
      "midi": 82,
      "hit": false,
      "t": 48000,
      "d": 1200,
      "v": 83
    },
    {
      "midi": 55,
      "hit": false,
      "t": 48000,
      "d": 300,
      "v": 76
    },
    {
      "midi": 58,
      "hit": false,
      "t": 48300,
      "d": 300,
      "v": 80
    },
    {
      "midi": 62,
      "hit": false,
      "t": 48600,
      "d": 300,
      "v": 86
    },
    {
      "midi": 58,
      "hit": false,
      "t": 48900,
      "d": 300,
      "v": 72
    },
    {
      "midi": 82,
      "hit": false,
      "t": 49200,
      "d": 300,
      "v": 80
    },
    {
      "midi": 55,
      "hit": false,
      "t": 49200,
      "d": 300,
      "v": 76
    },
    {
      "midi": 80,
      "hit": false,
      "t": 49500,
      "d": 300,
      "v": 72
    },
    {
      "midi": 58,
      "hit": false,
      "t": 49500,
      "d": 300,
      "v": 78
    },
    {
      "midi": 79,
      "hit": false,
      "t": 49800,
      "d": 300,
      "v": 68
    },
    {
      "midi": 62,
      "hit": false,
      "t": 49800,
      "d": 300,
      "v": 82
    },
    {
      "midi": 77,
      "hit": false,
      "t": 50100,
      "d": 300,
      "v": 69
    },
    {
      "midi": 58,
      "hit": false,
      "t": 50100,
      "d": 300,
      "v": 77
    },
    {
      "midi": 72,
      "hit": false,
      "t": 50400,
      "d": 1200,
      "v": 69
    },
    {
      "midi": 75,
      "hit": false,
      "t": 50400,
      "d": 1200,
      "v": 69
    },
    {
      "midi": 48,
      "hit": false,
      "t": 50400,
      "d": 300,
      "v": 68
    },
    {
      "midi": 55,
      "hit": false,
      "t": 50700,
      "d": 300,
      "v": 83
    },
    {
      "midi": 60,
      "hit": false,
      "t": 51000,
      "d": 300,
      "v": 87
    },
    {
      "midi": 63,
      "hit": false,
      "t": 51300,
      "d": 300,
      "v": 85
    },
    {
      "midi": 70,
      "hit": false,
      "t": 51600,
      "d": 300,
      "v": 66
    },
    {
      "midi": 75,
      "hit": false,
      "t": 51600,
      "d": 300,
      "v": 77
    },
    {
      "midi": 77,
      "hit": false,
      "t": 51900,
      "d": 300,
      "v": 84
    },
    {
      "midi": 55,
      "hit": false,
      "t": 51900,
      "d": 300,
      "v": 69
    },
    {
      "midi": 79,
      "hit": false,
      "t": 52200,
      "d": 300,
      "v": 80
    },
    {
      "midi": 60,
      "hit": false,
      "t": 52200,
      "d": 300,
      "v": 87
    },
    {
      "midi": 75,
      "hit": false,
      "t": 52500,
      "d": 300,
      "v": 68
    },
    {
      "midi": 63,
      "hit": false,
      "t": 52500,
      "d": 300,
      "v": 84
    },
    {
      "midi": 68,
      "hit": false,
      "t": 52800,
      "d": 1200,
      "v": 77
    },
    {
      "midi": 73,
      "hit": false,
      "t": 52800,
      "d": 1200,
      "v": 77
    },
    {
      "midi": 77,
      "hit": false,
      "t": 52800,
      "d": 1200,
      "v": 77
    },
    {
      "midi": 49,
      "hit": false,
      "t": 52800,
      "d": 300,
      "v": 72
    },
    {
      "midi": 56,
      "hit": false,
      "t": 53100,
      "d": 300,
      "v": 82
    },
    {
      "midi": 61,
      "hit": false,
      "t": 53400,
      "d": 300,
      "v": 88
    },
    {
      "midi": 65,
      "hit": false,
      "t": 53700,
      "d": 300,
      "v": 89
    },
    {
      "midi": 65,
      "hit": false,
      "t": 54000,
      "d": 150,
      "v": 54
    },
    {
      "midi": 49,
      "hit": false,
      "t": 54000,
      "d": 600,
      "v": 73
    },
    {
      "midi": 53,
      "hit": false,
      "t": 54000,
      "d": 600,
      "v": 73
    },
    {
      "midi": 56,
      "hit": false,
      "t": 54000,
      "d": 600,
      "v": 73
    },
    {
      "midi": 61,
      "hit": false,
      "t": 54000,
      "d": 600,
      "v": 73
    },
    {
      "midi": 68,
      "hit": false,
      "t": 54150,
      "d": 150,
      "v": 78
    },
    {
      "midi": 73,
      "hit": false,
      "t": 54300,
      "d": 150,
      "v": 83
    },
    {
      "midi": 77,
      "hit": false,
      "t": 54450,
      "d": 150,
      "v": 90
    },
    {
      "midi": 67,
      "hit": false,
      "t": 54600,
      "d": 150,
      "v": 57
    },
    {
      "midi": 51,
      "hit": false,
      "t": 54600,
      "d": 600,
      "v": 80
    },
    {
      "midi": 55,
      "hit": false,
      "t": 54600,
      "d": 600,
      "v": 80
    },
    {
      "midi": 58,
      "hit": false,
      "t": 54600,
      "d": 600,
      "v": 80
    },
    {
      "midi": 63,
      "hit": false,
      "t": 54600,
      "d": 600,
      "v": 80
    },
    {
      "midi": 70,
      "hit": false,
      "t": 54750,
      "d": 150,
      "v": 81
    },
    {
      "midi": 75,
      "hit": false,
      "t": 54900,
      "d": 150,
      "v": 89
    },
    {
      "midi": 79,
      "hit": false,
      "t": 55050,
      "d": 150,
      "v": 87
    },
    {
      "midi": 69,
      "hit": false,
      "t": 55200,
      "d": 1200,
      "v": 83
    },
    {
      "midi": 72,
      "hit": false,
      "t": 55200,
      "d": 1200,
      "v": 83
    },
    {
      "midi": 77,
      "hit": false,
      "t": 55200,
      "d": 1200,
      "v": 83
    },
    {
      "midi": 81,
      "hit": false,
      "t": 55200,
      "d": 1200,
      "v": 83
    },
    {
      "midi": 41,
      "hit": false,
      "t": 55200,
      "d": 300,
      "v": 64
    },
    {
      "midi": 48,
      "hit": false,
      "t": 55500,
      "d": 300,
      "v": 80
    },
    {
      "midi": 53,
      "hit": false,
      "t": 55800,
      "d": 300,
      "v": 86
    },
    {
      "midi": 57,
      "hit": false,
      "t": 55800,
      "d": 300,
      "v": 86
    },
    {
      "midi": 41,
      "hit": false,
      "t": 56100,
      "d": 300,
      "v": 69
    },
    {
      "midi": 69,
      "hit": false,
      "t": 56400,
      "d": 300,
      "v": 55
    },
    {
      "midi": 41,
      "hit": false,
      "t": 56400,
      "d": 300,
      "v": 76
    },
    {
      "midi": 72,
      "hit": false,
      "t": 56700,
      "d": 300,
      "v": 79
    },
    {
      "midi": 48,
      "hit": false,
      "t": 56700,
      "d": 300,
      "v": 84
    },
    {
      "midi": 76,
      "hit": false,
      "t": 57000,
      "d": 300,
      "v": 85
    },
    {
      "midi": 53,
      "hit": false,
      "t": 57000,
      "d": 300,
      "v": 85
    },
    {
      "midi": 57,
      "hit": false,
      "t": 57000,
      "d": 300,
      "v": 85
    },
    {
      "midi": 77,
      "hit": false,
      "t": 57300,
      "d": 300,
      "v": 81
    },
    {
      "midi": 48,
      "hit": false,
      "t": 57300,
      "d": 300,
      "v": 67
    },
    {
      "midi": 65,
      "hit": false,
      "t": 57600,
      "d": 1200,
      "v": 58
    },
    {
      "midi": 70,
      "hit": false,
      "t": 57600,
      "d": 1200,
      "v": 58
    },
    {
      "midi": 48,
      "hit": false,
      "t": 57600,
      "d": 300,
      "v": 76
    },
    {
      "midi": 53,
      "hit": false,
      "t": 57900,
      "d": 300,
      "v": 78
    },
    {
      "midi": 55,
      "hit": false,
      "t": 58200,
      "d": 300,
      "v": 88
    },
    {
      "midi": 58,
      "hit": false,
      "t": 58200,
      "d": 300,
      "v": 88
    },
    {
      "midi": 48,
      "hit": false,
      "t": 58500,
      "d": 300,
      "v": 67
    },
    {
      "midi": 64,
      "hit": false,
      "t": 58800,
      "d": 300,
      "v": 67
    },
    {
      "midi": 67,
      "hit": false,
      "t": 58800,
      "d": 300,
      "v": 67
    },
    {
      "midi": 48,
      "hit": false,
      "t": 58800,
      "d": 300,
      "v": 77
    },
    {
      "midi": 69,
      "hit": false,
      "t": 59100,
      "d": 300,
      "v": 78
    },
    {
      "midi": 52,
      "hit": false,
      "t": 59100,
      "d": 300,
      "v": 84
    },
    {
      "midi": 69,
      "hit": false,
      "t": 59400,
      "d": 300,
      "v": 77
    },
    {
      "midi": 55,
      "hit": false,
      "t": 59400,
      "d": 300,
      "v": 80
    },
    {
      "midi": 70,
      "hit": false,
      "t": 59700,
      "d": 300,
      "v": 81
    },
    {
      "midi": 58,
      "hit": false,
      "t": 59700,
      "d": 300,
      "v": 80
    },
    {
      "midi": 67,
      "hit": false,
      "t": 60000,
      "d": 1200,
      "v": 74
    },
    {
      "midi": 69,
      "hit": false,
      "t": 60000,
      "d": 1200,
      "v": 74
    },
    {
      "midi": 41,
      "hit": false,
      "t": 60000,
      "d": 300,
      "v": 65
    },
    {
      "midi": 48,
      "hit": false,
      "t": 60300,
      "d": 300,
      "v": 81
    },
    {
      "midi": 55,
      "hit": false,
      "t": 60600,
      "d": 300,
      "v": 86
    },
    {
      "midi": 57,
      "hit": false,
      "t": 60600,
      "d": 300,
      "v": 86
    },
    {
      "midi": 41,
      "hit": false,
      "t": 60900,
      "d": 300,
      "v": 68
    },
    {
      "midi": 69,
      "hit": false,
      "t": 61200,
      "d": 300,
      "v": 74
    },
    {
      "midi": 41,
      "hit": false,
      "t": 61200,
      "d": 300,
      "v": 69
    },
    {
      "midi": 72,
      "hit": false,
      "t": 61500,
      "d": 300,
      "v": 80
    },
    {
      "midi": 48,
      "hit": false,
      "t": 61500,
      "d": 300,
      "v": 78
    },
    {
      "midi": 76,
      "hit": false,
      "t": 61800,
      "d": 300,
      "v": 89
    },
    {
      "midi": 53,
      "hit": false,
      "t": 61800,
      "d": 300,
      "v": 90
    },
    {
      "midi": 57,
      "hit": false,
      "t": 61800,
      "d": 300,
      "v": 90
    },
    {
      "midi": 77,
      "hit": false,
      "t": 62100,
      "d": 300,
      "v": 81
    },
    {
      "midi": 48,
      "hit": false,
      "t": 62100,
      "d": 300,
      "v": 69
    },
    {
      "midi": 70,
      "hit": false,
      "t": 62400,
      "d": 1200,
      "v": 83
    },
    {
      "midi": 72,
      "hit": false,
      "t": 62400,
      "d": 1200,
      "v": 83
    },
    {
      "midi": 79,
      "hit": false,
      "t": 62400,
      "d": 1200,
      "v": 83
    },
    {
      "midi": 48,
      "hit": false,
      "t": 62400,
      "d": 300,
      "v": 72
    },
    {
      "midi": 53,
      "hit": false,
      "t": 62700,
      "d": 300,
      "v": 81
    },
    {
      "midi": 55,
      "hit": false,
      "t": 63000,
      "d": 300,
      "v": 81
    },
    {
      "midi": 58,
      "hit": false,
      "t": 63000,
      "d": 300,
      "v": 81
    },
    {
      "midi": 48,
      "hit": false,
      "t": 63300,
      "d": 300,
      "v": 72
    },
    {
      "midi": 70,
      "hit": false,
      "t": 63600,
      "d": 300,
      "v": 82
    },
    {
      "midi": 76,
      "hit": false,
      "t": 63600,
      "d": 300,
      "v": 82
    },
    {
      "midi": 79,
      "hit": false,
      "t": 63600,
      "d": 300,
      "v": 82
    },
    {
      "midi": 48,
      "hit": false,
      "t": 63600,
      "d": 300,
      "v": 74
    },
    {
      "midi": 81,
      "hit": false,
      "t": 63900,
      "d": 300,
      "v": 82
    },
    {
      "midi": 52,
      "hit": false,
      "t": 63900,
      "d": 300,
      "v": 80
    },
    {
      "midi": 81,
      "hit": false,
      "t": 64200,
      "d": 300,
      "v": 80
    },
    {
      "midi": 55,
      "hit": false,
      "t": 64200,
      "d": 300,
      "v": 80
    },
    {
      "midi": 82,
      "hit": false,
      "t": 64500,
      "d": 300,
      "v": 76
    },
    {
      "midi": 58,
      "hit": false,
      "t": 64500,
      "d": 300,
      "v": 80
    },
    {
      "midi": 72,
      "hit": false,
      "t": 64800,
      "d": 1200,
      "v": 71
    },
    {
      "midi": 77,
      "hit": false,
      "t": 64800,
      "d": 1200,
      "v": 71
    },
    {
      "midi": 79,
      "hit": false,
      "t": 64800,
      "d": 1200,
      "v": 71
    },
    {
      "midi": 81,
      "hit": false,
      "t": 64800,
      "d": 1200,
      "v": 71
    },
    {
      "midi": 41,
      "hit": false,
      "t": 64800,
      "d": 300,
      "v": 67
    },
    {
      "midi": 48,
      "hit": false,
      "t": 65100,
      "d": 300,
      "v": 76
    },
    {
      "midi": 55,
      "hit": false,
      "t": 65400,
      "d": 300,
      "v": 86
    },
    {
      "midi": 57,
      "hit": false,
      "t": 65400,
      "d": 300,
      "v": 86
    },
    {
      "midi": 41,
      "hit": false,
      "t": 65700,
      "d": 300,
      "v": 63
    },
    {
      "midi": 69,
      "hit": false,
      "t": 66000,
      "d": 300,
      "v": 69
    },
    {
      "midi": 77,
      "hit": false,
      "t": 66000,
      "d": 300,
      "v": 69
    },
    {
      "midi": 41,
      "hit": false,
      "t": 66000,
      "d": 300,
      "v": 79
    },
    {
      "midi": 79,
      "hit": false,
      "t": 66300,
      "d": 300,
      "v": 84
    },
    {
      "midi": 48,
      "hit": false,
      "t": 66300,
      "d": 300,
      "v": 85
    },
    {
      "midi": 72,
      "hit": false,
      "t": 66600,
      "d": 300,
      "v": 81
    },
    {
      "midi": 81,
      "hit": false,
      "t": 66600,
      "d": 300,
      "v": 81
    },
    {
      "midi": 53,
      "hit": false,
      "t": 66600,
      "d": 300,
      "v": 85
    },
    {
      "midi": 57,
      "hit": false,
      "t": 66600,
      "d": 300,
      "v": 85
    },
    {
      "midi": 82,
      "hit": false,
      "t": 66900,
      "d": 300,
      "v": 83
    },
    {
      "midi": 48,
      "hit": false,
      "t": 66900,
      "d": 300,
      "v": 69
    },
    {
      "midi": 72,
      "hit": false,
      "t": 67200,
      "d": 1200,
      "v": 75
    },
    {
      "midi": 76,
      "hit": false,
      "t": 67200,
      "d": 1200,
      "v": 75
    },
    {
      "midi": 81,
      "hit": false,
      "t": 67200,
      "d": 1200,
      "v": 75
    },
    {
      "midi": 84,
      "hit": false,
      "t": 67200,
      "d": 1200,
      "v": 75
    },
    {
      "midi": 45,
      "hit": false,
      "t": 67200,
      "d": 300,
      "v": 70
    },
    {
      "midi": 52,
      "hit": false,
      "t": 67500,
      "d": 300,
      "v": 81
    },
    {
      "midi": 57,
      "hit": false,
      "t": 67800,
      "d": 300,
      "v": 87
    },
    {
      "midi": 60,
      "hit": false,
      "t": 67800,
      "d": 300,
      "v": 87
    },
    {
      "midi": 45,
      "hit": false,
      "t": 68100,
      "d": 300,
      "v": 66
    },
    {
      "midi": 72,
      "hit": false,
      "t": 68400,
      "d": 300,
      "v": 81
    },
    {
      "midi": 84,
      "hit": false,
      "t": 68400,
      "d": 300,
      "v": 81
    },
    {
      "midi": 45,
      "hit": false,
      "t": 68400,
      "d": 300,
      "v": 72
    },
    {
      "midi": 70,
      "hit": false,
      "t": 68700,
      "d": 300,
      "v": 72
    },
    {
      "midi": 82,
      "hit": false,
      "t": 68700,
      "d": 300,
      "v": 72
    },
    {
      "midi": 52,
      "hit": false,
      "t": 68700,
      "d": 300,
      "v": 85
    },
    {
      "midi": 69,
      "hit": false,
      "t": 69000,
      "d": 300,
      "v": 70
    },
    {
      "midi": 81,
      "hit": false,
      "t": 69000,
      "d": 300,
      "v": 70
    },
    {
      "midi": 57,
      "hit": false,
      "t": 69000,
      "d": 300,
      "v": 93
    },
    {
      "midi": 60,
      "hit": false,
      "t": 69000,
      "d": 300,
      "v": 93
    },
    {
      "midi": 67,
      "hit": false,
      "t": 69300,
      "d": 300,
      "v": 74
    },
    {
      "midi": 79,
      "hit": false,
      "t": 69300,
      "d": 300,
      "v": 74
    },
    {
      "midi": 52,
      "hit": false,
      "t": 69300,
      "d": 300,
      "v": 69
    },
    {
      "midi": 65,
      "hit": false,
      "t": 69600,
      "d": 1200,
      "v": 69
    },
    {
      "midi": 70,
      "hit": false,
      "t": 69600,
      "d": 1200,
      "v": 69
    },
    {
      "midi": 72,
      "hit": false,
      "t": 69600,
      "d": 1200,
      "v": 69
    },
    {
      "midi": 77,
      "hit": false,
      "t": 69600,
      "d": 1200,
      "v": 69
    },
    {
      "midi": 46,
      "hit": false,
      "t": 69600,
      "d": 300,
      "v": 71
    },
    {
      "midi": 53,
      "hit": false,
      "t": 69900,
      "d": 300,
      "v": 82
    },
    {
      "midi": 58,
      "hit": false,
      "t": 70200,
      "d": 300,
      "v": 95
    },
    {
      "midi": 62,
      "hit": false,
      "t": 70200,
      "d": 300,
      "v": 95
    },
    {
      "midi": 46,
      "hit": false,
      "t": 70500,
      "d": 300,
      "v": 72
    },
    {
      "midi": 70,
      "hit": false,
      "t": 70800,
      "d": 300,
      "v": 85
    },
    {
      "midi": 74,
      "hit": false,
      "t": 70800,
      "d": 300,
      "v": 85
    },
    {
      "midi": 77,
      "hit": false,
      "t": 70800,
      "d": 300,
      "v": 85
    },
    {
      "midi": 82,
      "hit": false,
      "t": 70800,
      "d": 300,
      "v": 85
    },
    {
      "midi": 46,
      "hit": false,
      "t": 70800,
      "d": 300,
      "v": 76
    },
    {
      "midi": 69,
      "hit": false,
      "t": 71100,
      "d": 300,
      "v": 75
    },
    {
      "midi": 81,
      "hit": false,
      "t": 71100,
      "d": 300,
      "v": 75
    },
    {
      "midi": 53,
      "hit": false,
      "t": 71100,
      "d": 300,
      "v": 82
    },
    {
      "midi": 67,
      "hit": false,
      "t": 71400,
      "d": 300,
      "v": 69
    },
    {
      "midi": 79,
      "hit": false,
      "t": 71400,
      "d": 300,
      "v": 69
    },
    {
      "midi": 58,
      "hit": false,
      "t": 71400,
      "d": 300,
      "v": 93
    },
    {
      "midi": 62,
      "hit": false,
      "t": 71400,
      "d": 300,
      "v": 93
    },
    {
      "midi": 65,
      "hit": false,
      "t": 71700,
      "d": 300,
      "v": 70
    },
    {
      "midi": 77,
      "hit": false,
      "t": 71700,
      "d": 300,
      "v": 70
    },
    {
      "midi": 53,
      "hit": false,
      "t": 71700,
      "d": 300,
      "v": 74
    },
    {
      "midi": 62,
      "hit": false,
      "t": 72000,
      "d": 1200,
      "v": 66
    },
    {
      "midi": 65,
      "hit": false,
      "t": 72000,
      "d": 1200,
      "v": 66
    },
    {
      "midi": 72,
      "hit": false,
      "t": 72000,
      "d": 1200,
      "v": 66
    },
    {
      "midi": 48,
      "hit": false,
      "t": 72000,
      "d": 300,
      "v": 70
    },
    {
      "midi": 53,
      "hit": false,
      "t": 72300,
      "d": 300,
      "v": 79
    },
    {
      "midi": 58,
      "hit": false,
      "t": 72600,
      "d": 300,
      "v": 95
    },
    {
      "midi": 62,
      "hit": false,
      "t": 72600,
      "d": 300,
      "v": 95
    },
    {
      "midi": 48,
      "hit": false,
      "t": 72900,
      "d": 300,
      "v": 68
    },
    {
      "midi": 58,
      "hit": false,
      "t": 73200,
      "d": 300,
      "v": 72
    },
    {
      "midi": 64,
      "hit": false,
      "t": 73200,
      "d": 300,
      "v": 72
    },
    {
      "midi": 69,
      "hit": false,
      "t": 73200,
      "d": 300,
      "v": 72
    },
    {
      "midi": 48,
      "hit": false,
      "t": 73200,
      "d": 1200,
      "v": 83
    },
    {
      "midi": 55,
      "hit": false,
      "t": 73200,
      "d": 1200,
      "v": 83
    },
    {
      "midi": 67,
      "hit": false,
      "t": 73500,
      "d": 300,
      "v": 70
    },
    {
      "midi": 67,
      "hit": false,
      "t": 73800,
      "d": 300,
      "v": 69
    },
    {
      "midi": 65,
      "hit": false,
      "t": 74100,
      "d": 300,
      "v": 74
    },
    {
      "midi": 60,
      "hit": false,
      "t": 74400,
      "d": 1200,
      "v": 67
    },
    {
      "midi": 41,
      "hit": false,
      "t": 74400,
      "d": 300,
      "v": 68
    },
    {
      "midi": 48,
      "hit": false,
      "t": 74700,
      "d": 300,
      "v": 81
    },
    {
      "midi": 55,
      "hit": false,
      "t": 75000,
      "d": 300,
      "v": 85
    },
    {
      "midi": 57,
      "hit": false,
      "t": 75000,
      "d": 300,
      "v": 85
    },
    {
      "midi": 41,
      "hit": false,
      "t": 75300,
      "d": 300,
      "v": 69
    },
    {
      "midi": 69,
      "hit": false,
      "t": 75600,
      "d": 300,
      "v": 97
    },
    {
      "midi": 41,
      "hit": false,
      "t": 75600,
      "d": 300,
      "v": 72
    },
    {
      "midi": 72,
      "hit": false,
      "t": 75900,
      "d": 300,
      "v": 86
    },
    {
      "midi": 48,
      "hit": false,
      "t": 75900,
      "d": 300,
      "v": 84
    },
    {
      "midi": 76,
      "hit": false,
      "t": 76200,
      "d": 300,
      "v": 87
    },
    {
      "midi": 53,
      "hit": false,
      "t": 76200,
      "d": 300,
      "v": 87
    },
    {
      "midi": 57,
      "hit": false,
      "t": 76200,
      "d": 300,
      "v": 87
    },
    {
      "midi": 77,
      "hit": false,
      "t": 76500,
      "d": 300,
      "v": 77
    },
    {
      "midi": 48,
      "hit": false,
      "t": 76500,
      "d": 300,
      "v": 67
    },
    {
      "midi": 65,
      "hit": false,
      "t": 76800,
      "d": 1200,
      "v": 61
    },
    {
      "midi": 70,
      "hit": false,
      "t": 76800,
      "d": 1200,
      "v": 61
    },
    {
      "midi": 48,
      "hit": false,
      "t": 76800,
      "d": 300,
      "v": 77
    },
    {
      "midi": 53,
      "hit": false,
      "t": 77100,
      "d": 300,
      "v": 81
    },
    {
      "midi": 55,
      "hit": false,
      "t": 77400,
      "d": 300,
      "v": 79
    },
    {
      "midi": 58,
      "hit": false,
      "t": 77400,
      "d": 300,
      "v": 79
    },
    {
      "midi": 53,
      "hit": false,
      "t": 77700,
      "d": 300,
      "v": 69
    },
    {
      "midi": 69,
      "hit": false,
      "t": 78000,
      "d": 300,
      "v": 70
    },
    {
      "midi": 48,
      "hit": false,
      "t": 78000,
      "d": 300,
      "v": 65
    },
    {
      "midi": 67,
      "hit": false,
      "t": 78300,
      "d": 300,
      "v": 68
    },
    {
      "midi": 53,
      "hit": false,
      "t": 78300,
      "d": 300,
      "v": 77
    },
    {
      "midi": 67,
      "hit": false,
      "t": 78600,
      "d": 300,
      "v": 81
    },
    {
      "midi": 55,
      "hit": false,
      "t": 78600,
      "d": 300,
      "v": 80
    },
    {
      "midi": 58,
      "hit": false,
      "t": 78600,
      "d": 300,
      "v": 80
    },
    {
      "midi": 65,
      "hit": false,
      "t": 78900,
      "d": 300,
      "v": 69
    },
    {
      "midi": 53,
      "hit": false,
      "t": 78900,
      "d": 300,
      "v": 71
    },
    {
      "midi": 60,
      "hit": false,
      "t": 79200,
      "d": 1200,
      "v": 65
    },
    {
      "midi": 41,
      "hit": false,
      "t": 79200,
      "d": 300,
      "v": 65
    },
    {
      "midi": 48,
      "hit": false,
      "t": 79500,
      "d": 300,
      "v": 80
    },
    {
      "midi": 55,
      "hit": false,
      "t": 79800,
      "d": 300,
      "v": 87
    },
    {
      "midi": 57,
      "hit": false,
      "t": 79800,
      "d": 300,
      "v": 87
    },
    {
      "midi": 41,
      "hit": false,
      "t": 80100,
      "d": 300,
      "v": 69
    },
    {
      "midi": 69,
      "hit": false,
      "t": 80400,
      "d": 300,
      "v": 90
    },
    {
      "midi": 41,
      "hit": false,
      "t": 80400,
      "d": 300,
      "v": 76
    },
    {
      "midi": 72,
      "hit": false,
      "t": 80700,
      "d": 300,
      "v": 82
    },
    {
      "midi": 48,
      "hit": false,
      "t": 80700,
      "d": 300,
      "v": 80
    },
    {
      "midi": 76,
      "hit": false,
      "t": 81000,
      "d": 300,
      "v": 88
    },
    {
      "midi": 53,
      "hit": false,
      "t": 81000,
      "d": 300,
      "v": 87
    },
    {
      "midi": 57,
      "hit": false,
      "t": 81000,
      "d": 300,
      "v": 87
    },
    {
      "midi": 77,
      "hit": false,
      "t": 81300,
      "d": 300,
      "v": 78
    },
    {
      "midi": 48,
      "hit": false,
      "t": 81300,
      "d": 300,
      "v": 73
    },
    {
      "midi": 70,
      "hit": false,
      "t": 81600,
      "d": 1200,
      "v": 82
    },
    {
      "midi": 75,
      "hit": false,
      "t": 81600,
      "d": 1200,
      "v": 82
    },
    {
      "midi": 79,
      "hit": false,
      "t": 81600,
      "d": 1200,
      "v": 82
    },
    {
      "midi": 48,
      "hit": false,
      "t": 81600,
      "d": 300,
      "v": 75
    },
    {
      "midi": 55,
      "hit": false,
      "t": 81900,
      "d": 300,
      "v": 84
    },
    {
      "midi": 58,
      "hit": false,
      "t": 82200,
      "d": 300,
      "v": 96
    },
    {
      "midi": 63,
      "hit": false,
      "t": 82200,
      "d": 300,
      "v": 96
    },
    {
      "midi": 55,
      "hit": false,
      "t": 82500,
      "d": 300,
      "v": 77
    },
    {
      "midi": 72,
      "hit": false,
      "t": 82800,
      "d": 300,
      "v": 80
    },
    {
      "midi": 75,
      "hit": false,
      "t": 82800,
      "d": 300,
      "v": 80
    },
    {
      "midi": 81,
      "hit": false,
      "t": 82800,
      "d": 300,
      "v": 80
    },
    {
      "midi": 41,
      "hit": false,
      "t": 82800,
      "d": 300,
      "v": 69
    },
    {
      "midi": 79,
      "hit": false,
      "t": 83100,
      "d": 300,
      "v": 69
    },
    {
      "midi": 51,
      "hit": false,
      "t": 83100,
      "d": 300,
      "v": 85
    },
    {
      "midi": 72,
      "hit": false,
      "t": 83400,
      "d": 300,
      "v": 83
    },
    {
      "midi": 75,
      "hit": false,
      "t": 83400,
      "d": 300,
      "v": 83
    },
    {
      "midi": 81,
      "hit": false,
      "t": 83400,
      "d": 300,
      "v": 83
    },
    {
      "midi": 60,
      "hit": false,
      "t": 83400,
      "d": 300,
      "v": 100
    },
    {
      "midi": 84,
      "hit": false,
      "t": 83700,
      "d": 300,
      "v": 83
    },
    {
      "midi": 57,
      "hit": false,
      "t": 83700,
      "d": 300,
      "v": 75
    },
    {
      "midi": 69,
      "hit": false,
      "t": 84000,
      "d": 1200,
      "v": 67
    },
    {
      "midi": 70,
      "hit": false,
      "t": 84000,
      "d": 1200,
      "v": 67
    },
    {
      "midi": 74,
      "hit": false,
      "t": 84000,
      "d": 1200,
      "v": 67
    },
    {
      "midi": 77,
      "hit": false,
      "t": 84000,
      "d": 1200,
      "v": 67
    },
    {
      "midi": 46,
      "hit": false,
      "t": 84000,
      "d": 300,
      "v": 65
    },
    {
      "midi": 53,
      "hit": false,
      "t": 84300,
      "d": 300,
      "v": 80
    },
    {
      "midi": 58,
      "hit": false,
      "t": 84600,
      "d": 300,
      "v": 75
    },
    {
      "midi": 62,
      "hit": false,
      "t": 84900,
      "d": 300,
      "v": 89
    },
    {
      "midi": 69,
      "hit": false,
      "t": 85200,
      "d": 300,
      "v": 73
    },
    {
      "midi": 70,
      "hit": false,
      "t": 85200,
      "d": 300,
      "v": 73
    },
    {
      "midi": 74,
      "hit": false,
      "t": 85200,
      "d": 300,
      "v": 73
    },
    {
      "midi": 77,
      "hit": false,
      "t": 85200,
      "d": 300,
      "v": 73
    },
    {
      "midi": 46,
      "hit": false,
      "t": 85200,
      "d": 600,
      "v": 70
    },
    {
      "midi": 58,
      "hit": false,
      "t": 85200,
      "d": 600,
      "v": 70
    },
    {
      "midi": 76,
      "hit": false,
      "t": 85500,
      "d": 300,
      "v": 70
    },
    {
      "midi": 67,
      "hit": false,
      "t": 85800,
      "d": 300,
      "v": 81
    },
    {
      "midi": 72,
      "hit": false,
      "t": 85800,
      "d": 300,
      "v": 81
    },
    {
      "midi": 77,
      "hit": false,
      "t": 85800,
      "d": 300,
      "v": 81
    },
    {
      "midi": 45,
      "hit": false,
      "t": 85800,
      "d": 600,
      "v": 75
    },
    {
      "midi": 57,
      "hit": false,
      "t": 85800,
      "d": 600,
      "v": 75
    },
    {
      "midi": 81,
      "hit": false,
      "t": 86100,
      "d": 300,
      "v": 83
    },
    {
      "midi": 62,
      "hit": false,
      "t": 86400,
      "d": 1200,
      "v": 59
    },
    {
      "midi": 67,
      "hit": false,
      "t": 86400,
      "d": 1200,
      "v": 59
    },
    {
      "midi": 70,
      "hit": false,
      "t": 86400,
      "d": 1200,
      "v": 59
    },
    {
      "midi": 43,
      "hit": false,
      "t": 86400,
      "d": 300,
      "v": 68
    },
    {
      "midi": 50,
      "hit": false,
      "t": 86700,
      "d": 300,
      "v": 85
    },
    {
      "midi": 55,
      "hit": false,
      "t": 87000,
      "d": 300,
      "v": 78
    },
    {
      "midi": 58,
      "hit": false,
      "t": 87300,
      "d": 300,
      "v": 78
    },
    {
      "midi": 77,
      "hit": false,
      "t": 87600,
      "d": 300,
      "v": 94
    },
    {
      "midi": 81,
      "hit": false,
      "t": 87600,
      "d": 300,
      "v": 94
    },
    {
      "midi": 60,
      "hit": false,
      "t": 87600,
      "d": 600,
      "v": 82
    },
    {
      "midi": 65,
      "hit": false,
      "t": 87600,
      "d": 600,
      "v": 68
    },
    {
      "midi": 82,
      "hit": false,
      "t": 87900,
      "d": 300,
      "v": 85
    },
    {
      "midi": 76,
      "hit": false,
      "t": 88200,
      "d": 300,
      "v": 72
    },
    {
      "midi": 79,
      "hit": false,
      "t": 88200,
      "d": 300,
      "v": 72
    },
    {
      "midi": 64,
      "hit": false,
      "t": 88200,
      "d": 600,
      "v": 72
    },
    {
      "midi": 81,
      "hit": false,
      "t": 88500,
      "d": 300,
      "v": 82
    },
    {
      "midi": 67,
      "hit": false,
      "t": 88800,
      "d": 1200,
      "v": 70
    },
    {
      "midi": 69,
      "hit": false,
      "t": 88800,
      "d": 1200,
      "v": 70
    },
    {
      "midi": 72,
      "hit": false,
      "t": 88800,
      "d": 1200,
      "v": 70
    },
    {
      "midi": 77,
      "hit": false,
      "t": 88800,
      "d": 1200,
      "v": 70
    },
    {
      "midi": 53,
      "hit": false,
      "t": 88800,
      "d": 300,
      "v": 70
    },
    {
      "midi": 55,
      "hit": false,
      "t": 89100,
      "d": 300,
      "v": 76
    },
    {
      "midi": 57,
      "hit": false,
      "t": 89400,
      "d": 300,
      "v": 79
    },
    {
      "midi": 60,
      "hit": false,
      "t": 89700,
      "d": 300,
      "v": 82
    },
    {
      "midi": 69,
      "hit": false,
      "t": 90000,
      "d": 300,
      "v": 61
    },
    {
      "midi": 53,
      "hit": false,
      "t": 90000,
      "d": 600,
      "v": 70
    },
    {
      "midi": 70,
      "hit": false,
      "t": 90300,
      "d": 300,
      "v": 79
    },
    {
      "midi": 67,
      "hit": false,
      "t": 90600,
      "d": 300,
      "v": 70
    },
    {
      "midi": 52,
      "hit": false,
      "t": 90600,
      "d": 600,
      "v": 75
    },
    {
      "midi": 69,
      "hit": false,
      "t": 90900,
      "d": 300,
      "v": 82
    },
    {
      "midi": 65,
      "hit": false,
      "t": 91200,
      "d": 1200,
      "v": 71
    },
    {
      "midi": 50,
      "hit": false,
      "t": 91200,
      "d": 1200,
      "v": 81
    },
    {
      "midi": 57,
      "hit": false,
      "t": 91200,
      "d": 1200,
      "v": 81
    },
    {
      "midi": 77,
      "hit": false,
      "t": 92400,
      "d": 300,
      "v": 94
    },
    {
      "midi": 81,
      "hit": false,
      "t": 92400,
      "d": 300,
      "v": 94
    },
    {
      "midi": 62,
      "hit": false,
      "t": 92400,
      "d": 600,
      "v": 84
    },
    {
      "midi": 79,
      "hit": false,
      "t": 92700,
      "d": 300,
      "v": 76
    },
    {
      "midi": 76,
      "hit": false,
      "t": 93000,
      "d": 300,
      "v": 81
    },
    {
      "midi": 81,
      "hit": false,
      "t": 93000,
      "d": 300,
      "v": 81
    },
    {
      "midi": 60,
      "hit": false,
      "t": 93000,
      "d": 600,
      "v": 71
    },
    {
      "midi": 84,
      "hit": false,
      "t": 93300,
      "d": 300,
      "v": 81
    },
    {
      "midi": 74,
      "hit": false,
      "t": 93600,
      "d": 1200,
      "v": 61
    },
    {
      "midi": 77,
      "hit": false,
      "t": 93600,
      "d": 1200,
      "v": 61
    },
    {
      "midi": 58,
      "hit": false,
      "t": 93600,
      "d": 1200,
      "v": 87
    },
    {
      "midi": 65,
      "hit": false,
      "t": 93600,
      "d": 1200,
      "v": 87
    },
    {
      "midi": 74,
      "hit": false,
      "t": 94800,
      "d": 300,
      "v": 76
    },
    {
      "midi": 77,
      "hit": false,
      "t": 94800,
      "d": 300,
      "v": 76
    },
    {
      "midi": 58,
      "hit": false,
      "t": 94800,
      "d": 600,
      "v": 79
    },
    {
      "midi": 65,
      "hit": false,
      "t": 94800,
      "d": 600,
      "v": 79
    },
    {
      "midi": 76,
      "hit": false,
      "t": 95100,
      "d": 300,
      "v": 76
    },
    {
      "midi": 72,
      "hit": false,
      "t": 95400,
      "d": 300,
      "v": 76
    },
    {
      "midi": 77,
      "hit": false,
      "t": 95400,
      "d": 300,
      "v": 76
    },
    {
      "midi": 57,
      "hit": false,
      "t": 95400,
      "d": 600,
      "v": 67
    },
    {
      "midi": 64,
      "hit": false,
      "t": 95400,
      "d": 600,
      "v": 67
    },
    {
      "midi": 81,
      "hit": false,
      "t": 95700,
      "d": 300,
      "v": 83
    },
    {
      "midi": 65,
      "hit": false,
      "t": 96000,
      "d": 1200,
      "v": 62
    },
    {
      "midi": 70,
      "hit": false,
      "t": 96000,
      "d": 1200,
      "v": 62
    },
    {
      "midi": 55,
      "hit": false,
      "t": 96000,
      "d": 1200,
      "v": 70
    },
    {
      "midi": 62,
      "hit": false,
      "t": 96000,
      "d": 1200,
      "v": 70
    },
    {
      "midi": 77,
      "hit": false,
      "t": 97200,
      "d": 300,
      "v": 92
    },
    {
      "midi": 81,
      "hit": false,
      "t": 97200,
      "d": 300,
      "v": 92
    },
    {
      "midi": 48,
      "hit": false,
      "t": 97200,
      "d": 900,
      "v": 70
    },
    {
      "midi": 58,
      "hit": false,
      "t": 97200,
      "d": 900,
      "v": 70
    },
    {
      "midi": 82,
      "hit": false,
      "t": 97500,
      "d": 300,
      "v": 89
    },
    {
      "midi": 76,
      "hit": false,
      "t": 97800,
      "d": 300,
      "v": 73
    },
    {
      "midi": 79,
      "hit": false,
      "t": 97800,
      "d": 300,
      "v": 73
    },
    {
      "midi": 81,
      "hit": false,
      "t": 98100,
      "d": 300,
      "v": 77
    },
    {
      "midi": 77,
      "hit": false,
      "t": 98400,
      "d": 1200,
      "v": 60
    },
    {
      "midi": 67,
      "hit": false,
      "t": 98400,
      "d": 600,
      "v": 70
    },
    {
      "midi": 69,
      "hit": false,
      "t": 98400,
      "d": 600,
      "v": 70
    },
    {
      "midi": 72,
      "hit": false,
      "t": 98400,
      "d": 600,
      "v": 70
    },
    {
      "midi": 67,
      "hit": false,
      "t": 99000,
      "d": 600,
      "v": 75
    },
    {
      "midi": 69,
      "hit": false,
      "t": 99000,
      "d": 600,
      "v": 75
    },
    {
      "midi": 72,
      "hit": false,
      "t": 99000,
      "d": 600,
      "v": 75
    },
    {
      "midi": 81,
      "hit": false,
      "t": 99600,
      "d": 300,
      "v": 87
    },
    {
      "midi": 67,
      "hit": false,
      "t": 99600,
      "d": 600,
      "v": 72
    },
    {
      "midi": 69,
      "hit": false,
      "t": 99600,
      "d": 600,
      "v": 72
    },
    {
      "midi": 72,
      "hit": false,
      "t": 99600,
      "d": 600,
      "v": 72
    },
    {
      "midi": 82,
      "hit": false,
      "t": 99900,
      "d": 300,
      "v": 83
    },
    {
      "midi": 79,
      "hit": false,
      "t": 100200,
      "d": 300,
      "v": 68
    },
    {
      "midi": 67,
      "hit": false,
      "t": 100200,
      "d": 600,
      "v": 75
    },
    {
      "midi": 69,
      "hit": false,
      "t": 100200,
      "d": 600,
      "v": 75
    },
    {
      "midi": 72,
      "hit": false,
      "t": 100200,
      "d": 600,
      "v": 75
    },
    {
      "midi": 81,
      "hit": false,
      "t": 100500,
      "d": 300,
      "v": 81
    },
    {
      "midi": 77,
      "hit": false,
      "t": 100800,
      "d": 1200,
      "v": 70
    },
    {
      "midi": 65,
      "hit": false,
      "t": 100800,
      "d": 600,
      "v": 73
    },
    {
      "midi": 70,
      "hit": false,
      "t": 100800,
      "d": 600,
      "v": 73
    },
    {
      "midi": 72,
      "hit": false,
      "t": 100800,
      "d": 600,
      "v": 73
    },
    {
      "midi": 65,
      "hit": false,
      "t": 101400,
      "d": 600,
      "v": 77
    },
    {
      "midi": 70,
      "hit": false,
      "t": 101400,
      "d": 600,
      "v": 77
    },
    {
      "midi": 72,
      "hit": false,
      "t": 101400,
      "d": 600,
      "v": 77
    },
    {
      "midi": 65,
      "hit": false,
      "t": 102000,
      "d": 600,
      "v": 63
    },
    {
      "midi": 70,
      "hit": false,
      "t": 102000,
      "d": 600,
      "v": 63
    },
    {
      "midi": 48,
      "hit": false,
      "t": 102000,
      "d": 600,
      "v": 63
    },
    {
      "midi": 65,
      "hit": false,
      "t": 102600,
      "d": 600,
      "v": 72
    },
    {
      "midi": 70,
      "hit": false,
      "t": 102600,
      "d": 600,
      "v": 72
    },
    {
      "midi": 62,
      "hit": false,
      "t": 102600,
      "d": 600,
      "v": 97
    },
    {
      "midi": 67,
      "hit": false,
      "t": 103200,
      "d": 600,
      "v": 80
    },
    {
      "midi": 69,
      "hit": false,
      "t": 103200,
      "d": 600,
      "v": 80
    },
    {
      "midi": 72,
      "hit": false,
      "t": 103200,
      "d": 600,
      "v": 80
    },
    {
      "midi": 60,
      "hit": false,
      "t": 103200,
      "d": 1200,
      "v": 76
    },
    {
      "midi": 67,
      "hit": false,
      "t": 103800,
      "d": 600,
      "v": 78
    },
    {
      "midi": 69,
      "hit": false,
      "t": 103800,
      "d": 600,
      "v": 78
    },
    {
      "midi": 72,
      "hit": false,
      "t": 103800,
      "d": 600,
      "v": 78
    },
    {
      "midi": 67,
      "hit": false,
      "t": 104400,
      "d": 600,
      "v": 77
    },
    {
      "midi": 69,
      "hit": false,
      "t": 104400,
      "d": 600,
      "v": 77
    },
    {
      "midi": 72,
      "hit": false,
      "t": 104400,
      "d": 600,
      "v": 77
    },
    {
      "midi": 57,
      "hit": false,
      "t": 104400,
      "d": 300,
      "v": 64
    },
    {
      "midi": 58,
      "hit": false,
      "t": 104700,
      "d": 300,
      "v": 78
    },
    {
      "midi": 67,
      "hit": false,
      "t": 105000,
      "d": 600,
      "v": 73
    },
    {
      "midi": 69,
      "hit": false,
      "t": 105000,
      "d": 600,
      "v": 73
    },
    {
      "midi": 72,
      "hit": false,
      "t": 105000,
      "d": 600,
      "v": 73
    },
    {
      "midi": 55,
      "hit": false,
      "t": 105000,
      "d": 300,
      "v": 68
    },
    {
      "midi": 57,
      "hit": false,
      "t": 105300,
      "d": 300,
      "v": 79
    },
    {
      "midi": 65,
      "hit": false,
      "t": 105600,
      "d": 600,
      "v": 71
    },
    {
      "midi": 70,
      "hit": false,
      "t": 105600,
      "d": 600,
      "v": 71
    },
    {
      "midi": 72,
      "hit": false,
      "t": 105600,
      "d": 600,
      "v": 71
    },
    {
      "midi": 53,
      "hit": false,
      "t": 105600,
      "d": 1200,
      "v": 77
    },
    {
      "midi": 60,
      "hit": false,
      "t": 105600,
      "d": 1200,
      "v": 77
    },
    {
      "midi": 65,
      "hit": false,
      "t": 106200,
      "d": 600,
      "v": 80
    },
    {
      "midi": 70,
      "hit": false,
      "t": 106200,
      "d": 600,
      "v": 80
    },
    {
      "midi": 72,
      "hit": false,
      "t": 106200,
      "d": 600,
      "v": 80
    },
    {
      "midi": 65,
      "hit": false,
      "t": 106800,
      "d": 600,
      "v": 72
    },
    {
      "midi": 70,
      "hit": false,
      "t": 106800,
      "d": 600,
      "v": 72
    },
    {
      "midi": 72,
      "hit": false,
      "t": 106800,
      "d": 600,
      "v": 72
    },
    {
      "midi": 48,
      "hit": false,
      "t": 106800,
      "d": 1200,
      "v": 69
    },
    {
      "midi": 65,
      "hit": false,
      "t": 107400,
      "d": 600,
      "v": 77
    },
    {
      "midi": 70,
      "hit": false,
      "t": 107400,
      "d": 600,
      "v": 77
    },
    {
      "midi": 72,
      "hit": false,
      "t": 107400,
      "d": 600,
      "v": 77
    },
    {
      "midi": 41,
      "hit": false,
      "t": 108000,
      "d": 300,
      "v": 68
    },
    {
      "midi": 48,
      "hit": false,
      "t": 108300,
      "d": 300,
      "v": 81
    },
    {
      "midi": 53,
      "hit": false,
      "t": 108600,
      "d": 300,
      "v": 84
    },
    {
      "midi": 55,
      "hit": false,
      "t": 108900,
      "d": 3300,
      "v": 83
    },
    {
      "midi": 57,
      "hit": false,
      "t": 109200,
      "d": 300,
      "v": 66
    },
    {
      "midi": 60,
      "hit": false,
      "t": 109500,
      "d": 300,
      "v": 88
    },
    {
      "midi": 65,
      "hit": false,
      "t": 109800,
      "d": 300,
      "v": 88
    },
    {
      "midi": 67,
      "hit": false,
      "t": 110100,
      "d": 300,
      "v": 81
    },
    {
      "midi": 69,
      "hit": false,
      "t": 110400,
      "d": 300,
      "v": 87
    },
    {
      "midi": 72,
      "hit": false,
      "t": 110700,
      "d": 300,
      "v": 83
    },
    {
      "midi": 77,
      "hit": false,
      "t": 111000,
      "d": 300,
      "v": 96
    },
    {
      "midi": 81,
      "hit": false,
      "t": 111000,
      "d": 300,
      "v": 96
    },
    {
      "midi": 79,
      "hit": false,
      "t": 111300,
      "d": 300,
      "v": 84
    },
    {
      "midi": 84,
      "hit": false,
      "t": 111300,
      "d": 300,
      "v": 84
    },
    {
      "midi": 81,
      "hit": false,
      "t": 111600,
      "d": 1200,
      "v": 90
    },
    {
      "midi": 89,
      "hit": false,
      "t": 111600,
      "d": 1200,
      "v": 90
    },
    {
      "midi": 72,
      "hit": false,
      "t": 112800,
      "d": 150,
      "v": 59
    },
    {
      "midi": 65,
      "hit": false,
      "t": 112800,
      "d": 2400,
      "v": 94
    },
    {
      "midi": 72,
      "hit": false,
      "t": 112800,
      "d": 2400,
      "v": 94
    },
    {
      "midi": 77,
      "hit": false,
      "t": 112950,
      "d": 150,
      "v": 84
    },
    {
      "midi": 79,
      "hit": false,
      "t": 113100,
      "d": 150,
      "v": 81
    },
    {
      "midi": 81,
      "hit": false,
      "t": 113250,
      "d": 1950,
      "v": 81
    }
  ]
}