{
  "jsonPath": "Soundtracks/Disney/Alan Menken/part-of-your-world.json",
  "path": "Soundtracks\\Disney\\Alan Menken\\Part of Your World.mid",
  "name": "Part of Your World",
  "difficulty": "Intermediate",
  "bpm": 100,
  "notes": [
    {
      "midi": 62,
      "hit": false,
      "t": 0,
      "d": 300,
      "v": 72
    },
    {
      "midi": 58,
      "hit": false,
      "t": 0,
      "d": 2400,
      "v": 69
    },
    {
      "midi": 64,
      "hit": false,
      "t": 300,
      "d": 300,
      "v": 76
    },
    {
      "midi": 65,
      "hit": false,
      "t": 600,
      "d": 300,
      "v": 81
    },
    {
      "midi": 65,
      "hit": false,
      "t": 900,
      "d": 900,
      "v": 74
    },
    {
      "midi": 64,
      "hit": false,
      "t": 2400,
      "d": 300,
      "v": 70
    },
    {
      "midi": 58,
      "hit": false,
      "t": 2400,
      "d": 2400,
      "v": 79
    },
    {
      "midi": 60,
      "hit": false,
      "t": 2400,
      "d": 2400,
      "v": 79
    },
    {
      "midi": 65,
      "hit": false,
      "t": 2700,
      "d": 300,
      "v": 82
    },
    {
      "midi": 67,
      "hit": false,
      "t": 3000,
      "d": 300,
      "v": 83
    },
    {
      "midi": 67,
      "hit": false,
      "t": 3300,
      "d": 900,
      "v": 77
    },
    {
      "midi": 62,
      "hit": false,
      "t": 4800,
      "d": 300,
      "v": 66
    },
    {
      "midi": 58,
      "hit": false,
      "t": 4800,
      "d": 2400,
      "v": 77
    },
    {
      "midi": 64,
      "hit": false,
      "t": 5100,
      "d": 300,
      "v": 81
    },
    {
      "midi": 65,
      "hit": false,
      "t": 5400,
      "d": 300,
      "v": 82
    },
    {
      "midi": 65,
      "hit": false,
      "t": 5700,
      "d": 600,
      "v": 76
    },
    {
      "midi": 64,
      "hit": false,
      "t": 6300,
      "d": 600,
      "v": 73
    },
    {
      "midi": 65,
      "hit": false,
      "t": 6900,
      "d": 300,
      "v": 82
    },
    {
      "midi": 64,
      "hit": false,
      "t": 7200,
      "d": 300,
      "v": 69
    },
    {
      "midi": 58,
      "hit": false,
      "t": 7200,
      "d": 2400,
      "v": 83
    },
    {
      "midi": 60,
      "hit": false,
      "t": 7200,
      "d": 2400,
      "v": 83
    },
    {
      "midi": 65,
      "hit": false,
      "t": 7500,
      "d": 600,
      "v": 78
    },
    {
      "midi": 67,
      "hit": false,
      "t": 8100,
      "d": 300,
      "v": 80
    },
    {
      "midi": 67,
      "hit": false,
      "t": 8400,
      "d": 600,
      "v": 81
    },
    {
      "midi": 64,
      "hit": false,
      "t": 9600,
      "d": 300,
      "v": 68
    },
    {
      "midi": 57,
      "hit": false,
      "t": 9600,
      "d": 2400,
      "v": 80
    },
    {
      "midi": 60,
      "hit": false,
      "t": 9600,
      "d": 2400,
      "v": 80
    },
    {
      "midi": 65,
      "hit": false,
      "t": 9900,
      "d": 300,
      "v": 80
    },
    {
      "midi": 67,
      "hit": false,
      "t": 10200,
      "d": 300,
      "v": 84
    },
    {
      "midi": 67,
      "hit": false,
      "t": 10500,
      "d": 600,
      "v": 75
    },
    {
      "midi": 65,
      "hit": false,
      "t": 11100,
      "d": 300,
      "v": 71
    },
    {
      "midi": 67,
      "hit": false,
      "t": 11400,
      "d": 300,
      "v": 84
    },
    {
      "midi": 65,
      "hit": false,
      "t": 11700,
      "d": 900,
      "v": 74
    },
    {
      "midi": 50,
      "hit": false,
      "t": 12000,
      "d": 2400,
      "v": 76
    },
    {
      "midi": 60,
      "hit": false,
      "t": 12000,
      "d": 2400,
      "v": 76
    },
    {
      "midi": 62,
      "hit": false,
      "t": 12900,
      "d": 300,
      "v": 67
    },
    {
      "midi": 65,
      "hit": false,
      "t": 13200,
      "d": 300,
      "v": 79
    },
    {
      "midi": 67,
      "hit": false,
      "t": 13500,
      "d": 300,
      "v": 86
    },
    {
      "midi": 69,
      "hit": false,
      "t": 13800,
      "d": 600,
      "v": 85
    },
    {
      "midi": 69,
      "hit": false,
      "t": 14400,
      "d": 600,
      "v": 76
    },
    {
      "midi": 55,
      "hit": false,
      "t": 14400,
      "d": 2400,
      "v": 77
    },
    {
      "midi": 60,
      "hit": false,
      "t": 14400,
      "d": 2400,
      "v": 77
    },
    {
      "midi": 67,
      "hit": false,
      "t": 15000,
      "d": 300,
      "v": 74
    },
    {
      "midi": 67,
      "hit": false,
      "t": 15300,
      "d": 1200,
      "v": 76
    },
    {
      "midi": 65,
      "hit": false,
      "t": 16800,
      "d": 2400,
      "v": 74
    },
    {
      "midi": 55,
      "hit": false,
      "t": 16800,
      "d": 2400,
      "v": 73
    },
    {
      "midi": 59,
      "hit": false,
      "t": 16800,
      "d": 2400,
      "v": 73
    },
    {
      "midi": 62,
      "hit": false,
      "t": 19200,
      "d": 300,
      "v": 67
    },
    {
      "midi": 58,
      "hit": false,
      "t": 19200,
      "d": 2400,
      "v": 75
    },
    {
      "midi": 64,
      "hit": false,
      "t": 19500,
      "d": 300,
      "v": 77
    },
    {
      "midi": 65,
      "hit": false,
      "t": 19800,
      "d": 300,
      "v": 81
    },
    {
      "midi": 65,
      "hit": false,
      "t": 20100,
      "d": 900,
      "v": 78
    },
    {
      "midi": 64,
      "hit": false,
      "t": 21600,
      "d": 300,
      "v": 70
    },
    {
      "midi": 60,
      "hit": false,
      "t": 21600,
      "d": 2400,
      "v": 78
    },
    {
      "midi": 65,
      "hit": false,
      "t": 21900,
      "d": 300,
      "v": 81
    },
    {
      "midi": 67,
      "hit": false,
      "t": 22200,
      "d": 300,
      "v": 80
    },
    {
      "midi": 67,
      "hit": false,
      "t": 22500,
      "d": 900,
      "v": 75
    },
    {
      "midi": 62,
      "hit": false,
      "t": 24000,
      "d": 300,
      "v": 67
    },
    {
      "midi": 58,
      "hit": false,
      "t": 24000,
      "d": 2400,
      "v": 79
    },
    {
      "midi": 64,
      "hit": false,
      "t": 24300,
      "d": 300,
      "v": 82
    },
    {
      "midi": 65,
      "hit": false,
      "t": 24600,
      "d": 300,
      "v": 80
    },
    {
      "midi": 65,
      "hit": false,
      "t": 24900,
      "d": 600,
      "v": 73
    },
    {
      "midi": 64,
      "hit": false,
      "t": 25500,
      "d": 600,
      "v": 72
    },
    {
      "midi": 65,
      "hit": false,
      "t": 26100,
      "d": 300,
      "v": 80
    },
    {
      "midi": 64,
      "hit": false,
      "t": 26400,
      "d": 398.4375,
      "v": 100
    },
    {
      "midi": 58,
      "hit": false,
      "t": 26400,
      "d": 2400,
      "v": 76
    },
    {
      "midi": 60,
      "hit": false,
      "t": 26400,
      "d": 2400,
      "v": 76
    },
    {
      "midi": 65,
      "hit": false,
      "t": 26798.4375,
      "d": 400.78125,
      "v": 100
    },
    {
      "midi": 67,
      "hit": false,
      "t": 27199.21875,
      "d": 400.78125,
      "v": 100
    },
    {
      "midi": 67,
      "hit": false,
      "t": 27600,
      "d": 600,
      "v": 76
    },
    {
      "midi": 64,
      "hit": false,
      "t": 28800,
      "d": 300,
      "v": 72
    },
    {
      "midi": 57,
      "hit": false,
      "t": 28800,
      "d": 2400,
      "v": 78
    },
    {
      "midi": 60,
      "hit": false,
      "t": 28800,
      "d": 2400,
      "v": 78
    },
    {
      "midi": 65,
      "hit": false,
      "t": 29100,
      "d": 300,
      "v": 80
    },
    {
      "midi": 67,
      "hit": false,
      "t": 29400,
      "d": 300,
      "v": 78
    },
    {
      "midi": 67,
      "hit": false,
      "t": 29700,
      "d": 600,
      "v": 73
    },
    {
      "midi": 65,
      "hit": false,
      "t": 30300,
      "d": 300,
      "v": 70
    },
    {
      "midi": 67,
      "hit": false,
      "t": 30600,
      "d": 300,
      "v": 82
    },
    {
      "midi": 65,
      "hit": false,
      "t": 30900,
      "d": 1200,
      "v": 74
    },
    {
      "midi": 50,
      "hit": false,
      "t": 31200,
      "d": 2400,
      "v": 75
    },
    {
      "midi": 60,
      "hit": false,
      "t": 31200,
      "d": 2400,
      "v": 75
    },
    {
      "midi": 65,
      "hit": false,
      "t": 32400,
      "d": 600,
      "v": 70
    },
    {
      "midi": 67,
      "hit": false,
      "t": 33000,
      "d": 300,
      "v": 80
    },
    {
      "midi": 69,
      "hit": false,
      "t": 33300,
      "d": 300,
      "v": 84
    },
    {
      "midi": 69,
      "hit": false,
      "t": 33600,
      "d": 600,
      "v": 74
    },
    {
      "midi": 55,
      "hit": false,
      "t": 33600,
      "d": 2400,
      "v": 77
    },
    {
      "midi": 60,
      "hit": false,
      "t": 33600,
      "d": 2400,
      "v": 77
    },
    {
      "midi": 67,
      "hit": false,
      "t": 34200,
      "d": 300,
      "v": 73
    },
    {
      "midi": 67,
      "hit": false,
      "t": 34500,
      "d": 1200,
      "v": 76
    },
    {
      "midi": 55,
      "hit": false,
      "t": 36000,
      "d": 1800,
      "v": 73
    },
    {
      "midi": 59,
      "hit": false,
      "t": 36000,
      "d": 1800,
      "v": 73
    },
    {
      "midi": 65,
      "hit": false,
      "t": 37800,
      "d": 300,
      "v": 66
    },
    {
      "midi": 67,
      "hit": false,
      "t": 38100,
      "d": 300,
      "v": 76
    },
    {
      "midi": 69,
      "hit": false,
      "t": 38400,
      "d": 398.4375,
      "v": 100
    },
    {
      "midi": 58,
      "hit": false,
      "t": 38400,
      "d": 2400,
      "v": 69
    },
    {
      "midi": 62,
      "hit": false,
      "t": 38400,
      "d": 2400,
      "v": 69
    },
    {
      "midi": 69,
      "hit": false,
      "t": 38798.4375,
      "d": 400.78125,
      "v": 100
    },
    {
      "midi": 69,
      "hit": false,
      "t": 39199.21875,
      "d": 400.78125,
      "v": 100
    },
    {
      "midi": 69,
      "hit": false,
      "t": 39600,
      "d": 398.4375,
      "v": 100
    },
    {
      "midi": 67,
      "hit": false,
      "t": 39998.4375,
      "d": 400.78125,
      "v": 100
    },
    {
      "midi": 65,
      "hit": false,
      "t": 40399.21875,
      "d": 400.78125,
      "v": 100
    },
    {
      "midi": 64,
      "hit": false,
      "t": 40800,
      "d": 300,
      "v": 62
    },
    {
      "midi": 57,
      "hit": false,
      "t": 40800,
      "d": 2400,
      "v": 68
    },
    {
      "midi": 60,
      "hit": false,
      "t": 41100,
      "d": 900,
      "v": 64
    },
    {
      "midi": 65,
      "hit": false,
      "t": 42600,
      "d": 300,
      "v": 70
    },
    {
      "midi": 67,
      "hit": false,
      "t": 42900,
      "d": 300,
      "v": 80
    },
    {
      "midi": 69,
      "hit": false,
      "t": 43200,
      "d": 398.4375,
      "v": 100
    },
    {
      "midi": 50,
      "hit": false,
      "t": 43200,
      "d": 2400,
      "v": 80
    },
    {
      "midi": 60,
      "hit": false,
      "t": 43200,
      "d": 2400,
      "v": 80
    },
    {
      "midi": 69,
      "hit": false,
      "t": 43598.4375,
      "d": 400.78125,
      "v": 100
    },
    {
      "midi": 69,
      "hit": false,
      "t": 43999.21875,
      "d": 400.78125,
      "v": 100
    },
    {
      "midi": 69,
      "hit": false,
      "t": 44400,
      "d": 398.4375,
      "v": 100
    },
    {
      "midi": 67,
      "hit": false,
      "t": 44798.4375,
      "d": 400.78125,
      "v": 100
    },
    {
      "midi": 65,
      "hit": false,
      "t": 45199.21875,
      "d": 400.78125,
      "v": 100
    },
    {
      "midi": 62,
      "hit": false,
      "t": 45600,
      "d": 1200,
      "v": 72
    },
    {
      "midi": 55,
      "hit": false,
      "t": 45600,
      "d": 1200,
      "v": 74
    },
    {
      "midi": 60,
      "hit": false,
      "t": 45600,
      "d": 1200,
      "v": 78
    },
    {
      "midi": 59,
      "hit": false,
      "t": 46800,
      "d": 1200,
      "v": 75
    },
    {
      "midi": 65,
      "hit": false,
      "t": 47400,
      "d": 300,
      "v": 68
    },
    {
      "midi": 67,
      "hit": false,
      "t": 47700,
      "d": 300,
      "v": 82
    },
    {
      "midi": 69,
      "hit": false,
      "t": 48000,
      "d": 199.21875,
      "v": 100
    },
    {
      "midi": 58,
      "hit": false,
      "t": 48000,
      "d": 2400,
      "v": 70
    },
    {
      "midi": 69,
      "hit": false,
      "t": 48199.21875,
      "d": 199.21875,
      "v": 100
    },
    {
      "midi": 69,
      "hit": false,
      "t": 48398.4375,
      "d": 201.5625,
      "v": 100
    },
    {
      "midi": 69,
      "hit": false,
      "t": 48600,
      "d": 1200,
      "v": 76
    },
    {
      "midi": 67,
      "hit": false,
      "t": 49800,
      "d": 300,
      "v": 69
    },
    {
      "midi": 65,
      "hit": false,
      "t": 50100,
      "d": 300,
      "v": 72
    },
    {
      "midi": 62,
      "hit": false,
      "t": 50400,
      "d": 300,
      "v": 66
    },
    {
      "midi": 57,
      "hit": false,
      "t": 50400,
      "d": 2400,
      "v": 79
    },
    {
      "midi": 60,
      "hit": false,
      "t": 50700,
      "d": 900,
      "v": 73
    },
    {
      "midi": 65,
      "hit": false,
      "t": 52200,
      "d": 300,
      "v": 66
    },
    {
      "midi": 67,
      "hit": false,
      "t": 52500,
      "d": 300,
      "v": 77
    },
    {
      "midi": 69,
      "hit": false,
      "t": 52800,
      "d": 1800,
      "v": 80
    },
    {
      "midi": 50,
      "hit": false,
      "t": 52800,
      "d": 2400,
      "v": 83
    },
    {
      "midi": 60,
      "hit": false,
      "t": 52800,
      "d": 2400,
      "v": 83
    },
    {
      "midi": 62,
      "hit": false,
      "t": 54600,
      "d": 300,
      "v": 63
    },
    {
      "midi": 65,
      "hit": false,
      "t": 54900,
      "d": 300,
      "v": 79
    },
    {
      "midi": 69,
      "hit": false,
      "t": 55200,
      "d": 1800,
      "v": 86
    },
    {
      "midi": 55,
      "hit": false,
      "t": 55200,
      "d": 1200,
      "v": 78
    },
    {
      "midi": 60,
      "hit": false,
      "t": 55200,
      "d": 1200,
      "v": 74
    },
    {
      "midi": 59,
      "hit": false,
      "t": 56400,
      "d": 1200,
      "v": 74
    },
    {
      "midi": 62,
      "hit": false,
      "t": 57000,
      "d": 300,
      "v": 65
    },
    {
      "midi": 65,
      "hit": false,
      "t": 57300,
      "d": 300,
      "v": 78
    },
    {
      "midi": 65,
      "hit": false,
      "t": 57600,
      "d": 1200,
      "v": 69
    },
    {
      "midi": 67,
      "hit": false,
      "t": 57600,
      "d": 1200,
      "v": 80
    },
    {
      "midi": 48,
      "hit": false,
      "t": 57600,
      "d": 1200,
      "v": 67
    },
    {
      "midi": 64,
      "hit": false,
      "t": 58800,
      "d": 1200,
      "v": 68
    },
    {
      "midi": 48,
      "hit": false,
      "t": 58800,
      "d": 1200,
      "v": 75
    },
    {
      "midi": 62,
      "hit": false,
      "t": 60000,
      "d": 1200,
      "v": 65
    },
    {
      "midi": 48,
      "hit": false,
      "t": 60000,
      "d": 1200,
      "v": 70
    },
    {
      "midi": 64,
      "hit": false,
      "t": 61200,
      "d": 1200,
      "v": 83
    },
    {
      "midi": 48,
      "hit": false,
      "t": 61200,
      "d": 1200,
      "v": 75
    },
    {
      "midi": 65,
      "hit": false,
      "t": 62400,
      "d": 300,
      "v": 76
    },
    {
      "midi": 53,
      "hit": false,
      "t": 62400,
      "d": 2400,
      "v": 83
    },
    {
      "midi": 57,
      "hit": false,
      "t": 62400,
      "d": 2400,
      "v": 83
    },
    {
      "midi": 65,
      "hit": false,
      "t": 62700,
      "d": 300,
      "v": 75
    },
    {
      "midi": 65,
      "hit": false,
      "t": 63000,
      "d": 300,
      "v": 75
    },
    {
      "midi": 65,
      "hit": false,
      "t": 63300,
      "d": 600,
      "v": 76
    },
    {
      "midi": 67,
      "hit": false,
      "t": 63900,
      "d": 300,
      "v": 83
    },
    {
      "midi": 69,
      "hit": false,
      "t": 64200,
      "d": 600,
      "v": 78
    },
    {
      "midi": 60,
      "hit": false,
      "t": 64800,
      "d": 300,
      "v": 61
    },
    {
      "midi": 45,
      "hit": false,
      "t": 64800,
      "d": 2400,
      "v": 77
    },
    {
      "midi": 55,
      "hit": false,
      "t": 64800,
      "d": 2400,
      "v": 77
    },
    {
      "midi": 60,
      "hit": false,
      "t": 65100,
      "d": 300,
      "v": 75
    },
    {
      "midi": 60,
      "hit": false,
      "t": 65400,
      "d": 1200,
      "v": 77
    },
    {
      "midi": 60,
      "hit": false,
      "t": 67200,
      "d": 300,
      "v": 70
    },
    {
      "midi": 46,
      "hit": false,
      "t": 67200,
      "d": 2400,
      "v": 74
    },
    {
      "midi": 50,
      "hit": false,
      "t": 67200,
      "d": 2400,
      "v": 74
    },
    {
      "midi": 60,
      "hit": false,
      "t": 67500,
      "d": 300,
      "v": 79
    },
    {
      "midi": 60,
      "hit": false,
      "t": 67800,
      "d": 300,
      "v": 76
    },
    {
      "midi": 60,
      "hit": false,
      "t": 68100,
      "d": 900,
      "v": 78
    },
    {
      "midi": 62,
      "hit": false,
      "t": 69000,
      "d": 300,
      "v": 83
    },
    {
      "midi": 65,
      "hit": false,
      "t": 69300,
      "d": 300,
      "v": 85
    },
    {
      "midi": 60,
      "hit": false,
      "t": 69600,
      "d": 300,
      "v": 67
    },
    {
      "midi": 48,
      "hit": false,
      "t": 69600,
      "d": 1200,
      "v": 70
    },
    {
      "midi": 62,
      "hit": false,
      "t": 69900,
      "d": 600,
      "v": 76
    },
    {
      "midi": 65,
      "hit": false,
      "t": 70500,
      "d": 600,
      "v": 83
    },
    {
      "midi": 67,
      "hit": false,
      "t": 71100,
      "d": 900,
      "v": 84
    },
    {
      "midi": 52,
      "hit": false,
      "t": 71100,
      "d": 900,
      "v": 88
    },
    {
      "midi": 65,
      "hit": false,
      "t": 72000,
      "d": 300,
      "v": 73
    },
    {
      "midi": 50,
      "hit": false,
      "t": 72000,
      "d": 2400,
      "v": 74
    },
    {
      "midi": 65,
      "hit": false,
      "t": 72300,
      "d": 300,
      "v": 74
    },
    {
      "midi": 65,
      "hit": false,
      "t": 72600,
      "d": 300,
      "v": 74
    },
    {
      "midi": 65,
      "hit": false,
      "t": 72900,
      "d": 600,
      "v": 75
    },
    {
      "midi": 67,
      "hit": false,
      "t": 73500,
      "d": 300,
      "v": 82
    },
    {
      "midi": 69,
      "hit": false,
      "t": 73800,
      "d": 600,
      "v": 86
    },
    {
      "midi": 60,
      "hit": false,
      "t": 74400,
      "d": 300,
      "v": 62
    },
    {
      "midi": 57,
      "hit": false,
      "t": 74400,
      "d": 2400,
      "v": 79
    },
    {
      "midi": 60,
      "hit": false,
      "t": 74700,
      "d": 300,
      "v": 68
    },
    {
      "midi": 60,
      "hit": false,
      "t": 75000,
      "d": 300,
      "v": 80
    },
    {
      "midi": 60,
      "hit": false,
      "t": 75300,
      "d": 600,
      "v": 75
    },
    {
      "midi": 62,
      "hit": false,
      "t": 75900,
      "d": 600,
      "v": 86
    },
    {
      "midi": 65,
      "hit": false,
      "t": 76500,
      "d": 300,
      "v": 86
    },
    {
      "midi": 67,
      "hit": false,
      "t": 76800,
      "d": 600,
      "v": 84
    },
    {
      "midi": 58,
      "hit": false,
      "t": 76800,
      "d": 600,
      "v": 80
    },
    {
      "midi": 48,
      "hit": false,
      "t": 77400,
      "d": 1200,
      "v": 63
    },
    {
      "midi": 48,
      "hit": false,
      "t": 78600,
      "d": 600,
      "v": 73
    },
    {
      "midi": 64,
      "hit": false,
      "t": 79200,
      "d": 600,
      "v": 72
    },
    {
      "midi": 48,
      "hit": false,
      "t": 79200,
      "d": 1200,
      "v": 69
    },
    {
      "midi": 64,
      "hit": false,
      "t": 79800,
      "d": 300,
      "v": 73
    },
    {
      "midi": 65,
      "hit": false,
      "t": 80100,
      "d": 600,
      "v": 79
    },
    {
      "midi": 67,
      "hit": false,
      "t": 80700,
      "d": 900,
      "v": 84
    },
    {
      "midi": 52,
      "hit": false,
      "t": 80700,
      "d": 900,
      "v": 83
    },
    {
      "midi": 65,
      "hit": false,
      "t": 81600,
      "d": 300,
      "v": 68
    },
    {
      "midi": 53,
      "hit": false,
      "t": 81600,
      "d": 2400,
      "v": 84
    },
    {
      "midi": 57,
      "hit": false,
      "t": 81600,
      "d": 2400,
      "v": 84
    },
    {
      "midi": 65,
      "hit": false,
      "t": 81900,
      "d": 300,
      "v": 73
    },
    {
      "midi": 65,
      "hit": false,
      "t": 82200,
      "d": 300,
      "v": 77
    },
    {
      "midi": 65,
      "hit": false,
      "t": 82500,
      "d": 600,
      "v": 82
    },
    {
      "midi": 67,
      "hit": false,
      "t": 83100,
      "d": 300,
      "v": 83
    },
    {
      "midi": 69,
      "hit": false,
      "t": 83400,
      "d": 600,
      "v": 85
    },
    {
      "midi": 60,
      "hit": false,
      "t": 84000,
      "d": 300,
      "v": 55
    },
    {
      "midi": 45,
      "hit": false,
      "t": 84000,
      "d": 2400,
      "v": 72
    },
    {
      "midi": 55,
      "hit": false,
      "t": 84000,
      "d": 2400,
      "v": 72
    },
    {
      "midi": 60,
      "hit": false,
      "t": 84300,
      "d": 600,
      "v": 71
    },
    {
      "midi": 60,
      "hit": false,
      "t": 84900,
      "d": 1200,
      "v": 80
    },
    {
      "midi": 60,
      "hit": false,
      "t": 86400,
      "d": 300,
      "v": 77
    },
    {
      "midi": 46,
      "hit": false,
      "t": 86400,
      "d": 2400,
      "v": 72
    },
    {
      "midi": 50,
      "hit": false,
      "t": 86400,
      "d": 2400,
      "v": 72
    },
    {
      "midi": 60,
      "hit": false,
      "t": 86700,
      "d": 300,
      "v": 79
    },
    {
      "midi": 60,
      "hit": false,
      "t": 87000,
      "d": 300,
      "v": 79
    },
    {
      "midi": 60,
      "hit": false,
      "t": 87300,
      "d": 600,
      "v": 74
    },
    {
      "midi": 62,
      "hit": false,
      "t": 87900,
      "d": 600,
      "v": 82
    },
    {
      "midi": 65,
      "hit": false,
      "t": 88500,
      "d": 300,
      "v": 80
    },
    {
      "midi": 60,
      "hit": false,
      "t": 88800,
      "d": 300,
      "v": 71
    },
    {
      "midi": 48,
      "hit": false,
      "t": 88800,
      "d": 1200,
      "v": 76
    },
    {
      "midi": 62,
      "hit": false,
      "t": 89100,
      "d": 900,
      "v": 78
    },
    {
      "midi": 65,
      "hit": false,
      "t": 90000,
      "d": 600,
      "v": 81
    },
    {
      "midi": 48,
      "hit": false,
      "t": 90000,
      "d": 1200,
      "v": 78
    },
    {
      "midi": 67,
      "hit": false,
      "t": 90600,
      "d": 600,
      "v": 83
    },
    {
      "midi": 65,
      "hit": false,
      "t": 91200,
      "d": 300,
      "v": 71
    },
    {
      "midi": 50,
      "hit": false,
      "t": 91200,
      "d": 2400,
      "v": 77
    },
    {
      "midi": 65,
      "hit": false,
      "t": 91500,
      "d": 300,
      "v": 77
    },
    {
      "midi": 65,
      "hit": false,
      "t": 91800,
      "d": 300,
      "v": 78
    },
    {
      "midi": 65,
      "hit": false,
      "t": 92100,
      "d": 300,
      "v": 100
    },
    {
      "midi": 65,
      "hit": false,
      "t": 92400,
      "d": 398.4375,
      "v": 100
    },
    {
      "midi": 67,
      "hit": false,
      "t": 92798.4375,
      "d": 400.78125,
      "v": 100
    },
    {
      "midi": 69,
      "hit": false,
      "t": 93199.21875,
      "d": 400.78125,
      "v": 100
    },
    {
      "midi": 57,
      "hit": false,
      "t": 93600,
      "d": 2400,
      "v": 79
    },
    {
      "midi": 60,
      "hit": false,
      "t": 94200,
      "d": 300,
      "v": 72
    },
    {
      "midi": 60,
      "hit": false,
      "t": 94500,
      "d": 300,
      "v": 74
    },
    {
      "midi": 60,
      "hit": false,
      "t": 94800,
      "d": 300,
      "v": 77
    },
    {
      "midi": 62,
      "hit": false,
      "t": 95100,
      "d": 300,
      "v": 83
    },
    {
      "midi": 65,
      "hit": false,
      "t": 95400,
      "d": 600,
      "v": 80
    },
    {
      "midi": 58,
      "hit": false,
      "t": 96000,
      "d": 600,
      "v": 79
    },
    {
      "midi": 48,
      "hit": false,
      "t": 96600,
      "d": 1200,
      "v": 67
    },
    {
      "midi": 67,
      "hit": false,
      "t": 97200,
      "d": 1200,
      "v": 66
    },
    {
      "midi": 48,
      "hit": false,
      "t": 97800,
      "d": 600,
      "v": 75
    },
    {
      "midi": 48,
      "hit": false,
      "t": 98400,
      "d": 600,
      "v": 75
    },
    {
      "midi": 48,
      "hit": false,
      "t": 99000,
      "d": 1800,
      "v": 77
    },
    {
      "midi": 64,
      "hit": false,
      "t": 99600,
      "d": 398.4375,
      "v": 100
    },
    {
      "midi": 65,
      "hit": false,
      "t": 99998.4375,
      "d": 400.78125,
      "v": 100
    },
    {
      "midi": 67,
      "hit": false,
      "t": 100399.21875,
      "d": 400.78125,
      "v": 100
    },
    {
      "midi": 69,
      "hit": false,
      "t": 100800,
      "d": 1200,
      "v": 81
    },
    {
      "midi": 53,
      "hit": false,
      "t": 100800,
      "d": 1200,
      "v": 74
    },
    {
      "midi": 65,
      "hit": false,
      "t": 102000,
      "d": 398.4375,
      "v": 100
    },
    {
      "midi": 57,
      "hit": false,
      "t": 102000,
      "d": 1200,
      "v": 81
    },
    {
      "midi": 67,
      "hit": false,
      "t": 102398.4375,
      "d": 400.78125,
      "v": 100
    },
    {
      "midi": 69,
      "hit": false,
      "t": 102799.21875,
      "d": 400.78125,
      "v": 100
    },
    {
      "midi": 69,
      "hit": false,
      "t": 103200,
      "d": 1200,
      "v": 72
    },
    {
      "midi": 51,
      "hit": false,
      "t": 103200,
      "d": 1200,
      "v": 78
    },
    {
      "midi": 53,
      "hit": false,
      "t": 103200,
      "d": 1200,
      "v": 75
    },
    {
      "midi": 65,
      "hit": false,
      "t": 104400,
      "d": 600,
      "v": 70
    },
    {
      "midi": 51,
      "hit": false,
      "t": 104400,
      "d": 1200,
      "v": 77
    },
    {
      "midi": 67,
      "hit": false,
      "t": 105000,
      "d": 600,
      "v": 79
    },
    {
      "midi": 72,
      "hit": false,
      "t": 105600,
      "d": 300,
      "v": 90
    },
    {
      "midi": 50,
      "hit": false,
      "t": 105600,
      "d": 1800,
      "v": 72
    },
    {
      "midi": 53,
      "hit": false,
      "t": 105600,
      "d": 1800,
      "v": 73
    },
    {
      "midi": 70,
      "hit": false,
      "t": 105900,
      "d": 600,
      "v": 71
    },
    {
      "midi": 70,
      "hit": false,
      "t": 106500,
      "d": 600,
      "v": 77
    },
    {
      "midi": 69,
      "hit": false,
      "t": 107100,
      "d": 300,
      "v": 70
    },
    {
      "midi": 72,
      "hit": false,
      "t": 107400,
      "d": 300,
      "v": 81
    },
    {
      "midi": 50,
      "hit": false,
      "t": 107400,
      "d": 600,
      "v": 79
    },
    {
      "midi": 70,
      "hit": false,
      "t": 107700,
      "d": 1200,
      "v": 70
    },
    {
      "midi": 50,
      "hit": false,
      "t": 108000,
      "d": 1200,
      "v": 77
    },
    {
      "midi": 70,
      "hit": false,
      "t": 109200,
      "d": 398.4375,
      "v": 100
    },
    {
      "midi": 50,
      "hit": false,
      "t": 109200,
      "d": 1200,
      "v": 76
    },
    {
      "midi": 69,
      "hit": false,
      "t": 109598.4375,
      "d": 400.78125,
      "v": 100
    },
    {
      "midi": 65,
      "hit": false,
      "t": 109999.21875,
      "d": 400.78125,
      "v": 100
    },
    {
      "midi": 60,
      "hit": false,
      "t": 110400,
      "d": 1200,
      "v": 65
    },
    {
      "midi": 48,
      "hit": false,
      "t": 110400,
      "d": 1200,
      "v": 74
    },
    {
      "midi": 70,
      "hit": false,
      "t": 111600,
      "d": 398.4375,
      "v": 100
    },
    {
      "midi": 48,
      "hit": false,
      "t": 111600,
      "d": 1200,
      "v": 74
    },
    {
      "midi": 69,
      "hit": false,
      "t": 111998.4375,
      "d": 400.78125,
      "v": 100
    },
    {
      "midi": 65,
      "hit": false,
      "t": 112399.21875,
      "d": 400.78125,
      "v": 100
    },
    {
      "midi": 60,
      "hit": false,
      "t": 112800,
      "d": 1200,
      "v": 61
    },
    {
      "midi": 58,
      "hit": false,
      "t": 112800,
      "d": 1200,
      "v": 100
    },
    {
      "midi": 62,
      "hit": false,
      "t": 112800,
      "d": 1200,
      "v": 100
    },
    {
      "midi": 60,
      "hit": false,
      "t": 114000,
      "d": 398.4375,
      "v": 100
    },
    {
      "midi": 58,
      "hit": false,
      "t": 114000,
      "d": 1200,
      "v": 75
    },
    {
      "midi": 65,
      "hit": false,
      "t": 114398.4375,
      "d": 400.78125,
      "v": 100
    },
    {
      "midi": 64,
      "hit": false,
      "t": 114799.21875,
      "d": 400.78125,
      "v": 100
    },
    {
      "midi": 65,
      "hit": false,
      "t": 115200,
      "d": 3600,
      "v": 81
    },
    {
      "midi": 58,
      "hit": false,
      "t": 115200,
      "d": 1200,
      "v": 80
    },
    {
      "midi": 60,
      "hit": false,
      "t": 115200,
      "d": 1200,
      "v": 80
    },
    {
      "midi": 53,
      "hit": false,
      "t": 116400,
      "d": 600,
      "v": 71
    },
    {
      "midi": 48,
      "hit": false,
      "t": 117000,
      "d": 600,
      "v": 71
    },
    {
      "midi": 57,
      "hit": false,
      "t": 117600,
      "d": 1200,
      "v": 83
    },
    {
      "midi": 69,
      "hit": false,
      "t": 118800,
      "d": 398.4375,
      "v": 100
    },
    {
      "midi": 53,
      "hit": false,
      "t": 118800,
      "d": 1200,
      "v": 74
    },
    {
      "midi": 67,
      "hit": false,
      "t": 119198.4375,
      "d": 400.78125,
      "v": 100
    },
    {
      "midi": 65,
      "hit": false,
      "t": 119599.21875,
      "d": 400.78125,
      "v": 100
    },
    {
      "midi": 65,
      "hit": false,
      "t": 120000,
      "d": 1200,
      "v": 74
    },
    {
      "midi": 53,
      "hit": false,
      "t": 120000,
      "d": 1200,
      "v": 80
    },
    {
      "midi": 58,
      "hit": false,
      "t": 120000,
      "d": 1200,
      "v": 80
    },
    {
      "midi": 62,
      "hit": false,
      "t": 121200,
      "d": 398.4375,
      "v": 100
    },
    {
      "midi": 48,
      "hit": false,
      "t": 121200,
      "d": 1200,
      "v": 80
    },
    {
      "midi": 58,
      "hit": false,
      "t": 121200,
      "d": 1200,
      "v": 80
    },
    {
      "midi": 64,
      "hit": false,
      "t": 121598.4375,
      "d": 400.78125,
      "v": 100
    },
    {
      "midi": 65,
      "hit": false,
      "t": 121999.21875,
      "d": 400.78125,
      "v": 100
    },
    {
      "midi": 67,
      "hit": false,
      "t": 122400,
      "d": 1200,
      "v": 82
    },
    {
      "midi": 58,
      "hit": false,
      "t": 122400,
      "d": 1200,
      "v": 88
    },
    {
      "midi": 60,
      "hit": false,
      "t": 122400,
      "d": 1200,
      "v": 88
    },
    {
      "midi": 64,
      "hit": false,
      "t": 123600,
      "d": 398.4375,
      "v": 100
    },
    {
      "midi": 58,
      "hit": false,
      "t": 123600,
      "d": 1200,
      "v": 74
    },
    {
      "midi": 65,
      "hit": false,
      "t": 123998.4375,
      "d": 400.78125,
      "v": 100
    },
    {
      "midi": 67,
      "hit": false,
      "t": 124399.21875,
      "d": 400.78125,
      "v": 100
    },
    {
      "midi": 62,
      "hit": false,
      "t": 124800,
      "d": 600,
      "v": 67
    },
    {
      "midi": 57,
      "hit": false,
      "t": 124800,
      "d": 1200,
      "v": 76
    },
    {
      "midi": 60,
      "hit": false,
      "t": 125400,
      "d": 1800,
      "v": 68
    },
    {
      "midi": 57,
      "hit": false,
      "t": 126000,
      "d": 1200,
      "v": 78
    },
    {
      "midi": 50,
      "hit": false,
      "t": 127200,
      "d": 1200,
      "v": 78
    },
    {
      "midi": 57,
      "hit": false,
      "t": 127200,
      "d": 1200,
      "v": 78
    },
    {
      "midi": 69,
      "hit": false,
      "t": 128400,
      "d": 398.4375,
      "v": 100
    },
    {
      "midi": 50,
      "hit": false,
      "t": 128400,
      "d": 1200,
      "v": 72
    },
    {
      "midi": 67,
      "hit": false,
      "t": 128798.4375,
      "d": 400.78125,
      "v": 100
    },
    {
      "midi": 65,
      "hit": false,
      "t": 129199.21875,
      "d": 400.78125,
      "v": 100
    },
    {
      "midi": 65,
      "hit": false,
      "t": 129600,
      "d": 1200,
      "v": 77
    },
    {
      "midi": 58,
      "hit": false,
      "t": 129600,
      "d": 1200,
      "v": 98
    },
    {
      "midi": 62,
      "hit": false,
      "t": 129600,
      "d": 1200,
      "v": 98
    },
    {
      "midi": 62,
      "hit": false,
      "t": 130800,
      "d": 398.4375,
      "v": 100
    },
    {
      "midi": 58,
      "hit": false,
      "t": 130800,
      "d": 1200,
      "v": 77
    },
    {
      "midi": 64,
      "hit": false,
      "t": 131198.4375,
      "d": 400.78125,
      "v": 100
    },
    {
      "midi": 65,
      "hit": false,
      "t": 131599.21875,
      "d": 400.78125,
      "v": 100
    },
    {
      "midi": 67,
      "hit": false,
      "t": 132000,
      "d": 1200,
      "v": 84
    },
    {
      "midi": 58,
      "hit": false,
      "t": 132000,
      "d": 1200,
      "v": 81
    },
    {
      "midi": 60,
      "hit": false,
      "t": 132000,
      "d": 1200,
      "v": 81
    },
    {
      "midi": 64,
      "hit": false,
      "t": 133200,
      "d": 398.4375,
      "v": 100
    },
    {
      "midi": 58,
      "hit": false,
      "t": 133200,
      "d": 1200,
      "v": 74
    },
    {
      "midi": 65,
      "hit": false,
      "t": 133598.4375,
      "d": 400.78125,
      "v": 100
    },
    {
      "midi": 67,
      "hit": false,
      "t": 133999.21875,
      "d": 400.78125,
      "v": 100
    },
    {
      "midi": 60,
      "hit": false,
      "t": 134400,
      "d": 2400,
      "v": 69
    },
    {
      "midi": 57,
      "hit": false,
      "t": 134400,
      "d": 1200,
      "v": 77
    },
    {
      "midi": 57,
      "hit": false,
      "t": 135600,
      "d": 600,
      "v": 73
    },
    {
      "midi": 55,
      "hit": false,
      "t": 136200,
      "d": 600,
      "v": 77
    },
    {
      "midi": 53,
      "hit": false,
      "t": 136800,
      "d": 600,
      "v": 74
    },
    {
      "midi": 48,
      "hit": false,
      "t": 137400,
      "d": 600,
      "v": 69
    },
    {
      "midi": 69,
      "hit": false,
      "t": 138000,
      "d": 398.4375,
      "v": 100
    },
    {
      "midi": 51,
      "hit": false,
      "t": 138000,
      "d": 1200,
      "v": 77
    },
    {
      "midi": 67,
      "hit": false,
      "t": 138398.4375,
      "d": 400.78125,
      "v": 100
    },
    {
      "midi": 65,
      "hit": false,
      "t": 138799.21875,
      "d": 400.78125,
      "v": 100
    },
    {
      "midi": 65,
      "hit": false,
      "t": 139200,
      "d": 1200,
      "v": 77
    },
    {
      "midi": 46,
      "hit": false,
      "t": 139200,
      "d": 1200,
      "v": 75
    },
    {
      "midi": 50,
      "hit": false,
      "t": 139200,
      "d": 1200,
      "v": 75
    },
    {
      "midi": 62,
      "hit": false,
      "t": 140400,
      "d": 398.4375,
      "v": 100
    },
    {
      "midi": 58,
      "hit": false,
      "t": 140400,
      "d": 1200,
      "v": 86
    },
    {
      "midi": 64,
      "hit": false,
      "t": 140798.4375,
      "d": 400.78125,
      "v": 100
    },
    {
      "midi": 65,
      "hit": false,
      "t": 141199.21875,
      "d": 400.78125,
      "v": 100
    },
    {
      "midi": 67,
      "hit": false,
      "t": 141600,
      "d": 1200,
      "v": 83
    },
    {
      "midi": 58,
      "hit": false,
      "t": 141600,
      "d": 1200,
      "v": 78
    },
    {
      "midi": 60,
      "hit": false,
      "t": 141600,
      "d": 1200,
      "v": 78
    },
    {
      "midi": 62,
      "hit": false,
      "t": 142800,
      "d": 398.4375,
      "v": 100
    },
    {
      "midi": 58,
      "hit": false,
      "t": 142800,
      "d": 1200,
      "v": 75
    },
    {
      "midi": 64,
      "hit": false,
      "t": 143198.4375,
      "d": 400.78125,
      "v": 100
    },
    {
      "midi": 65,
      "hit": false,
      "t": 143599.21875,
      "d": 400.78125,
      "v": 100
    },
    {
      "midi": 70,
      "hit": false,
      "t": 144000,
      "d": 600,
      "v": 78
    },
    {
      "midi": 57,
      "hit": false,
      "t": 144000,
      "d": 1200,
      "v": 75
    },
    {
      "midi": 69,
      "hit": false,
      "t": 144600,
      "d": 300,
      "v": 73
    },
    {
      "midi": 69,
      "hit": false,
      "t": 144900,
      "d": 900,
      "v": 76
    },
    {
      "midi": 45,
      "hit": false,
      "t": 145200,
      "d": 1200,
      "v": 76
    },
    {
      "midi": 55,
      "hit": false,
      "t": 145200,
      "d": 1200,
      "v": 76
    },
    {
      "midi": 67,
      "hit": false,
      "t": 145800,
      "d": 300,
      "v": 73
    },
    {
      "midi": 67,
      "hit": false,
      "t": 146100,
      "d": 600,
      "v": 73
    },
    {
      "midi": 50,
      "hit": false,
      "t": 146400,
      "d": 1200,
      "v": 72
    },
    {
      "midi": 65,
      "hit": false,
      "t": 146700,
      "d": 900,
      "v": 73
    },
    {
      "midi": 48,
      "hit": false,
      "t": 147600,
      "d": 1200,
      "v": 72
    },
    {
      "midi": 62,
      "hit": false,
      "t": 148200,
      "d": 300,
      "v": 73
    },
    {
      "midi": 65,
      "hit": false,
      "t": 148500,
      "d": 300,
      "v": 85
    },
    {
      "midi": 69,
      "hit": false,
      "t": 148800,
      "d": 300,
      "v": 82
    },
    {
      "midi": 55,
      "hit": false,
      "t": 148800,
      "d": 1200,
      "v": 95
    },
    {
      "midi": 60,
      "hit": false,
      "t": 148800,
      "d": 1200,
      "v": 95
    },
    {
      "midi": 67,
      "hit": false,
      "t": 149100,
      "d": 900,
      "v": 71
    },
    {
      "midi": 59,
      "hit": false,
      "t": 150000,
      "d": 1200,
      "v": 78
    },
    {
      "midi": 62,
      "hit": false,
      "t": 150600,
      "d": 300,
      "v": 71
    },
    {
      "midi": 65,
      "hit": false,
      "t": 150900,
      "d": 300,
      "v": 81
    },
    {
      "midi": 69,
      "hit": false,
      "t": 151200,
      "d": 300,
      "v": 86
    },
    {
      "midi": 55,
      "hit": false,
      "t": 151200,
      "d": 1200,
      "v": 80
    },
    {
      "midi": 60,
      "hit": false,
      "t": 151200,
      "d": 1200,
      "v": 80
    },
    {
      "midi": 67,
      "hit": false,
      "t": 151500,
      "d": 900,
      "v": 74
    },
    {
      "midi": 62,
      "hit": false,
      "t": 152400,
      "d": 398.4375,
      "v": 100
    },
    {
      "midi": 59,
      "hit": false,
      "t": 152400,
      "d": 1200,
      "v": 73
    },
    {
      "midi": 64,
      "hit": false,
      "t": 152798.4375,
      "d": 400.78125,
      "v": 100
    },
    {
      "midi": 65,
      "hit": false,
      "t": 153199.21875,
      "d": 400.78125,
      "v": 100
    },
    {
      "midi": 67,
      "hit": false,
      "t": 153600,
      "d": 3600,
      "v": 84
    },
    {
      "midi": 51,
      "hit": false,
      "t": 153600,
      "d": 1200,
      "v": 72
    },
    {
      "midi": 58,
      "hit": false,
      "t": 153600,
      "d": 1200,
      "v": 72
    },
    {
      "midi": 51,
      "hit": false,
      "t": 154800,
      "d": 1200,
      "v": 66
    },
    {
      "midi": 48,
      "hit": false,
      "t": 156000,
      "d": 600,
      "v": 77
    },
    {
      "midi": 48,
      "hit": false,
      "t": 156600,
      "d": 1200,
      "v": 78
    },
    {
      "midi": 48,
      "hit": false,
      "t": 157800,
      "d": 300,
      "v": 77
    },
    {
      "midi": 60,
      "hit": false,
      "t": 158100,
      "d": 300,
      "v": 67
    },
    {
      "midi": 65,
      "hit": false,
      "t": 158400,
      "d": 300,
      "v": 85
    },
    {
      "midi": 53,
      "hit": false,
      "t": 158400,
      "d": 1800,
      "v": 73
    },
    {
      "midi": 57,
      "hit": false,
      "t": 158400,
      "d": 1800,
      "v": 73
    },
    {
      "midi": 65,
      "hit": false,
      "t": 158700,
      "d": 300,
      "v": 79
    },
    {
      "midi": 65,
      "hit": false,
      "t": 159000,
      "d": 300,
      "v": 79
    },
    {
      "midi": 65,
      "hit": false,
      "t": 159300,
      "d": 600,
      "v": 74
    },
    {
      "midi": 67,
      "hit": false,
      "t": 159900,
      "d": 300,
      "v": 77
    },
    {
      "midi": 69,
      "hit": false,
      "t": 160200,
      "d": 600,
      "v": 82
    },
    {
      "midi": 53,
      "hit": false,
      "t": 160200,
      "d": 600,
      "v": 72
    },
    {
      "midi": 60,
      "hit": false,
      "t": 160800,
      "d": 300,
      "v": 64
    },
    {
      "midi": 57,
      "hit": false,
      "t": 160800,
      "d": 1800,
      "v": 82
    },
    {
      "midi": 60,
      "hit": false,
      "t": 161100,
      "d": 600,
      "v": 78
    },
    {
      "midi": 60,
      "hit": false,
      "t": 161700,
      "d": 1200,
      "v": 78
    },
    {
      "midi": 52,
      "hit": false,
      "t": 162600,
      "d": 600,
      "v": 68
    },
    {
      "midi": 60,
      "hit": false,
      "t": 163200,
      "d": 300,
      "v": 75
    },
    {
      "midi": 46,
      "hit": false,
      "t": 163200,
      "d": 2400,
      "v": 67
    },
    {
      "midi": 50,
      "hit": false,
      "t": 163200,
      "d": 2400,
      "v": 67
    },
    {
      "midi": 60,
      "hit": false,
      "t": 163500,
      "d": 300,
      "v": 81
    },
    {
      "midi": 60,
      "hit": false,
      "t": 163800,
      "d": 300,
      "v": 76
    },
    {
      "midi": 60,
      "hit": false,
      "t": 164100,
      "d": 600,
      "v": 81
    },
    {
      "midi": 62,
      "hit": false,
      "t": 164700,
      "d": 600,
      "v": 78
    },
    {
      "midi": 65,
      "hit": false,
      "t": 165300,
      "d": 300,
      "v": 83
    },
    {
      "midi": 60,
      "hit": false,
      "t": 165600,
      "d": 600,
      "v": 63
    },
    {
      "midi": 48,
      "hit": false,
      "t": 165600,
      "d": 1800,
      "v": 85
    },
    {
      "midi": 58,
      "hit": false,
      "t": 165600,
      "d": 1800,
      "v": 85
    },
    {
      "midi": 62,
      "hit": false,
      "t": 166200,
      "d": 600,
      "v": 78
    },
    {
      "midi": 65,
      "hit": false,
      "t": 166800,
      "d": 600,
      "v": 85
    },
    {
      "midi": 67,
      "hit": false,
      "t": 167400,
      "d": 600,
      "v": 84
    },
    {
      "midi": 48,
      "hit": false,
      "t": 167400,
      "d": 600,
      "v": 79
    },
    {
      "midi": 58,
      "hit": false,
      "t": 167400,
      "d": 600,
      "v": 79
    },
    {
      "midi": 50,
      "hit": false,
      "t": 168000,
      "d": 1200,
      "v": 70
    },
    {
      "midi": 65,
      "hit": false,
      "t": 168300,
      "d": 300,
      "v": 67
    },
    {
      "midi": 65,
      "hit": false,
      "t": 168600,
      "d": 300,
      "v": 75
    },
    {
      "midi": 65,
      "hit": false,
      "t": 168900,
      "d": 600,
      "v": 82
    },
    {
      "midi": 50,
      "hit": false,
      "t": 169200,
      "d": 300,
      "v": 77
    },
    {
      "midi": 67,
      "hit": false,
      "t": 169500,
      "d": 600,
      "v": 80
    },
    {
      "midi": 50,
      "hit": false,
      "t": 169500,
      "d": 900,
      "v": 73
    },
    {
      "midi": 69,
      "hit": false,
      "t": 170100,
      "d": 300,
      "v": 82
    },
    {
      "midi": 60,
      "hit": false,
      "t": 170400,
      "d": 300,
      "v": 58
    },
    {
      "midi": 57,
      "hit": false,
      "t": 170400,
      "d": 1200,
      "v": 85
    },
    {
      "midi": 60,
      "hit": false,
      "t": 170700,
      "d": 300,
      "v": 73
    },
    {
      "midi": 60,
      "hit": false,
      "t": 171000,
      "d": 600,
      "v": 74
    },
    {
      "midi": 60,
      "hit": false,
      "t": 171600,
      "d": 450,
      "v": 81
    },
    {
      "midi": 57,
      "hit": false,
      "t": 171600,
      "d": 1200,
      "v": 80
    },
    {
      "midi": 62,
      "hit": false,
      "t": 172050,
      "d": 150,
      "v": 83
    },
    {
      "midi": 65,
      "hit": false,
      "t": 172200,
      "d": 600,
      "v": 81
    },
    {
      "midi": 55,
      "hit": false,
      "t": 172800,
      "d": 1200,
      "v": 78
    },
    {
      "midi": 58,
      "hit": false,
      "t": 172800,
      "d": 1200,
      "v": 78
    },
    {
      "midi": 67,
      "hit": false,
      "t": 173400,
      "d": 1800,
      "v": 74
    },
    {
      "midi": 55,
      "hit": false,
      "t": 174000,
      "d": 1200,
      "v": 69
    },
    {
      "midi": 48,
      "hit": false,
      "t": 175200,
      "d": 1800,
      "v": 79
    },
    {
      "midi": 58,
      "hit": false,
      "t": 175200,
      "d": 1800,
      "v": 79
    },
    {
      "midi": 64,
      "hit": false,
      "t": 176100,
      "d": 600,
      "v": 67
    },
    {
      "midi": 65,
      "hit": false,
      "t": 176700,
      "d": 300,
      "v": 78
    },
    {
      "midi": 67,
      "hit": false,
      "t": 177000,
      "d": 600,
      "v": 83
    },
    {
      "midi": 48,
      "hit": false,
      "t": 177000,
      "d": 600,
      "v": 71
    },
    {
      "midi": 69,
      "hit": false,
      "t": 177600,
      "d": 1200,
      "v": 82
    },
    {
      "midi": 53,
      "hit": false,
      "t": 177600,
      "d": 1200,
      "v": 83
    },
    {
      "midi": 57,
      "hit": false,
      "t": 177600,
      "d": 1200,
      "v": 83
    },
    {
      "midi": 65,
      "hit": false,
      "t": 178800,
      "d": 398.4375,
      "v": 100
    },
    {
      "midi": 53,
      "hit": false,
      "t": 178800,
      "d": 1200,
      "v": 75
    },
    {
      "midi": 67,
      "hit": false,
      "t": 179198.4375,
      "d": 400.78125,
      "v": 100
    },
    {
      "midi": 69,
      "hit": false,
      "t": 179599.21875,
      "d": 400.78125,
      "v": 100
    },
    {
      "midi": 69,
      "hit": false,
      "t": 180000,
      "d": 1200,
      "v": 76
    },
    {
      "midi": 51,
      "hit": false,
      "t": 180000,
      "d": 1200,
      "v": 77
    },
    {
      "midi": 53,
      "hit": false,
      "t": 180000,
      "d": 1200,
      "v": 80
    },
    {
      "midi": 65,
      "hit": false,
      "t": 181200,
      "d": 398.4375,
      "v": 100
    },
    {
      "midi": 51,
      "hit": false,
      "t": 181200,
      "d": 1200,
      "v": 73
    },
    {
      "midi": 67,
      "hit": false,
      "t": 181598.4375,
      "d": 400.78125,
      "v": 100
    },
    {
      "midi": 69,
      "hit": false,
      "t": 181999.21875,
      "d": 400.78125,
      "v": 100
    },
    {
      "midi": 72,
      "hit": false,
      "t": 182400,
      "d": 600,
      "v": 100
    },
    {
      "midi": 50,
      "hit": false,
      "t": 182400,
      "d": 1200,
      "v": 72
    },
    {
      "midi": 53,
      "hit": false,
      "t": 182400,
      "d": 1200,
      "v": 76
    },
    {
      "midi": 70,
      "hit": false,
      "t": 183000,
      "d": 600,
      "v": 100
    },
    {
      "midi": 70,
      "hit": false,
      "t": 183600,
      "d": 398.4375,
      "v": 100
    },
    {
      "midi": 50,
      "hit": false,
      "t": 183600,
      "d": 1200,
      "v": 82
    },
    {
      "midi": 69,
      "hit": false,
      "t": 183998.4375,
      "d": 400.78125,
      "v": 100
    },
    {
      "midi": 72,
      "hit": false,
      "t": 184399.21875,
      "d": 400.78125,
      "v": 100
    },
    {
      "midi": 70,
      "hit": false,
      "t": 184800,
      "d": 2400,
      "v": 72
    },
    {
      "midi": 50,
      "hit": false,
      "t": 184800,
      "d": 1200,
      "v": 81
    },
    {
      "midi": 53,
      "hit": false,
      "t": 184800,
      "d": 1200,
      "v": 78
    },
    {
      "midi": 50,
      "hit": false,
      "t": 186000,
      "d": 600,
      "v": 78
    },
    {
      "midi": 50,
      "hit": false,
      "t": 186600,
      "d": 600,
      "v": 80
    },
    {
      "midi": 49,
      "hit": false,
      "t": 187200,
      "d": 600,
      "v": 71
    },
    {
      "midi": 70,
      "hit": false,
      "t": 188400,
      "d": 398.4375,
      "v": 100
    },
    {
      "midi": 69,
      "hit": false,
      "t": 188798.4375,
      "d": 400.78125,
      "v": 100
    },
    {
      "midi": 65,
      "hit": false,
      "t": 189199.21875,
      "d": 400.78125,
      "v": 100
    },
    {
      "midi": 60,
      "hit": false,
      "t": 189600,
      "d": 2400,
      "v": 58
    },
    {
      "midi": 53,
      "hit": false,
      "t": 189600,
      "d": 1200,
      "v": 71
    },
    {
      "midi": 57,
      "hit": false,
      "t": 189600,
      "d": 1200,
      "v": 71
    },
    {
      "midi": 53,
      "hit": false,
      "t": 190800,
      "d": 1200,
      "v": 74
    },
    {
      "midi": 57,
      "hit": false,
      "t": 190800,
      "d": 1200,
      "v": 74
    },
    {
      "midi": 53,
      "hit": false,
      "t": 192000,
      "d": 1200,
      "v": 77
    },
    {
      "midi": 57,
      "hit": false,
      "t": 192000,
      "d": 1200,
      "v": 77
    },
    {
      "midi": 70,
      "hit": false,
      "t": 193200,
      "d": 398.4375,
      "v": 100
    },
    {
      "midi": 69,
      "hit": false,
      "t": 193598.4375,
      "d": 400.78125,
      "v": 100
    },
    {
      "midi": 65,
      "hit": false,
      "t": 193999.21875,
      "d": 400.78125,
      "v": 100
    },
    {
      "midi": 60,
      "hit": false,
      "t": 194400,
      "d": 2400,
      "v": 67
    },
    {
      "midi": 53,
      "hit": false,
      "t": 194400,
      "d": 1200,
      "v": 68
    },
    {
      "midi": 58,
      "hit": false,
      "t": 194400,
      "d": 1200,
      "v": 68
    },
    {
      "midi": 53,
      "hit": false,
      "t": 195600,
      "d": 1200,
      "v": 74
    },
    {
      "midi": 58,
      "hit": false,
      "t": 195600,
      "d": 1200,
      "v": 74
    },
    {
      "midi": 52,
      "hit": false,
      "t": 196800,
      "d": 600,
      "v": 77
    },
    {
      "midi": 58,
      "hit": false,
      "t": 196800,
      "d": 600,
      "v": 77
    },
    {
      "midi": 48,
      "hit": false,
      "t": 197400,
      "d": 1800,
      "v": 69
    },
    {
      "midi": 60,
      "hit": false,
      "t": 198000,
      "d": 398.4375,
      "v": 100
    },
    {
      "midi": 65,
      "hit": false,
      "t": 198398.4375,
      "d": 400.78125,
      "v": 100
    },
    {
      "midi": 64,
      "hit": false,
      "t": 198799.21875,
      "d": 400.78125,
      "v": 100
    },
    {
      "midi": 65,
      "hit": false,
      "t": 199200,
      "d": 7200,
      "v": 82
    },
    {
      "midi": 46,
      "hit": false,
      "t": 199800,
      "d": 1800,
      "v": 69
    },
    {
      "midi": 50,
      "hit": false,
      "t": 199800,
      "d": 1800,
      "v": 69
    },
    {
      "midi": 53,
      "hit": false,
      "t": 199800,
      "d": 1800,
      "v": 69
    },
    {
      "midi": 48,
      "hit": false,
      "t": 201600,
      "d": 2400,
      "v": 78
    },
    {
      "midi": 53,
      "hit": false,
      "t": 201600,
      "d": 2400,
      "v": 78
    },
    {
      "midi": 58,
      "hit": false,
      "t": 201600,
      "d": 2400,
      "v": 78
    },
    {
      "midi": 53,
      "hit": false,
      "t": 204000,
      "d": 2400,
      "v": 76
    },
    {
      "midi": 57,
      "hit": false,
      "t": 204000,
      "d": 2400,
      "v": 76
    }
  ]
}