{
  "jsonPath": "Soul/Soul/Michael Jackson/off-the-wall.json",
  "path": "Soul\\Soul\\Michael Jackson\\Off The Wall.mid",
  "name": "Off The Wall",
  "difficulty": "Advanced",
  "bpm": 118.0001337334849,
  "notes": [
    {
      "midi": 53,
      "hit": false,
      "t": 5847.451,
      "d": 593.2196666666669,
      "v": 64
    },
    {
      "midi": 51,
      "hit": false,
      "t": 5847.451,
      "d": 598.5162708333337,
      "v": 44
    },
    {
      "midi": 54,
      "hit": false,
      "t": 5847.451,
      "d": 635.5925000000007,
      "v": 52
    },
    {
      "midi": 58,
      "hit": false,
      "t": 5847.451,
      "d": 651.4823125000003,
      "v": 62
    },
    {
      "midi": 54,
      "hit": false,
      "t": 6864.399,
      "d": 630.2958958333338,
      "v": 52
    },
    {
      "midi": 61,
      "hit": false,
      "t": 6864.399,
      "d": 667.3721250000008,
      "v": 48
    },
    {
      "midi": 58,
      "hit": false,
      "t": 6864.399,
      "d": 688.5585416666672,
      "v": 48
    },
    {
      "midi": 53,
      "hit": false,
      "t": 7881.347000000001,
      "d": 646.1857083333334,
      "v": 54
    },
    {
      "midi": 56,
      "hit": false,
      "t": 7881.347000000001,
      "d": 773.3042083333339,
      "v": 68
    },
    {
      "midi": 51,
      "hit": false,
      "t": 7881.347000000001,
      "d": 826.2702500000005,
      "v": 50
    },
    {
      "midi": 60,
      "hit": false,
      "t": 7881.347000000001,
      "d": 990.464979166668,
      "v": 66
    },
    {
      "midi": 51,
      "hit": false,
      "t": 8898.295000000002,
      "d": 307.20304166666756,
      "v": 44
    },
    {
      "midi": 53,
      "hit": false,
      "t": 8898.295000000002,
      "d": 333.68606250000084,
      "v": 54
    },
    {
      "midi": 49,
      "hit": false,
      "t": 8898.295000000002,
      "d": 376.05889583333374,
      "v": 38
    },
    {
      "midi": 56,
      "hit": false,
      "t": 8898.295000000002,
      "d": 386.6521041666674,
      "v": 58
    },
    {
      "midi": 61,
      "hit": false,
      "t": 9915.243000000002,
      "d": 497.8807916666665,
      "v": 72
    },
    {
      "midi": 58,
      "hit": false,
      "t": 9915.243000000002,
      "d": 529.6604166666657,
      "v": 66
    },
    {
      "midi": 51,
      "hit": false,
      "t": 9915.243000000002,
      "d": 561.4400416666649,
      "v": 42
    },
    {
      "midi": 54,
      "hit": false,
      "t": 9915.243000000002,
      "d": 566.7366458333308,
      "v": 46
    },
    {
      "midi": 58,
      "hit": false,
      "t": 10932.190999999999,
      "d": 963.9819583333338,
      "v": 39
    },
    {
      "midi": 54,
      "hit": false,
      "t": 10932.190999999999,
      "d": 1027.541208333334,
      "v": 56
    },
    {
      "midi": 65,
      "hit": false,
      "t": 10932.190999999999,
      "d": 1043.4310208333336,
      "v": 56
    },
    {
      "midi": 61,
      "hit": false,
      "t": 10932.190999999999,
      "d": 1075.2106458333328,
      "v": 84
    },
    {
      "midi": 56,
      "hit": false,
      "t": 11949.139,
      "d": 879.2362916666661,
      "v": 54
    },
    {
      "midi": 60,
      "hit": false,
      "t": 11949.139,
      "d": 937.4989374999986,
      "v": 64
    },
    {
      "midi": 53,
      "hit": false,
      "t": 11949.139,
      "d": 963.9819583333319,
      "v": 58
    },
    {
      "midi": 63,
      "hit": false,
      "t": 11949.139,
      "d": 1038.134416666664,
      "v": 58
    },
    {
      "midi": 56,
      "hit": false,
      "t": 12966.086999999998,
      "d": 593.219666666666,
      "v": 56
    },
    {
      "midi": 60,
      "hit": false,
      "t": 12966.086999999998,
      "d": 1075.2106458333328,
      "v": 62
    },
    {
      "midi": 51,
      "hit": false,
      "t": 13093.205499999996,
      "d": 397.2453125000011,
      "v": 8
    },
    {
      "midi": 58,
      "hit": false,
      "t": 13983.034999999998,
      "d": 254.23699999999917,
      "v": 42
    },
    {
      "midi": 61,
      "hit": false,
      "t": 13983.034999999998,
      "d": 291.31322916666613,
      "v": 66
    },
    {
      "midi": 51,
      "hit": false,
      "t": 13983.034999999998,
      "d": 1287.0748124999973,
      "v": 46
    },
    {
      "midi": 54,
      "hit": false,
      "t": 13983.034999999998,
      "d": 1334.744249999996,
      "v": 58
    },
    {
      "midi": 58,
      "hit": false,
      "t": 14999.982999999997,
      "d": 270.1268124999988,
      "v": 37
    },
    {
      "midi": 65,
      "hit": false,
      "t": 14999.982999999997,
      "d": 275.4234166666647,
      "v": 62
    },
    {
      "midi": 70,
      "hit": false,
      "t": 14999.982999999997,
      "d": 328.3894583333313,
      "v": 58
    },
    {
      "midi": 66,
      "hit": false,
      "t": 14999.982999999997,
      "d": 344.2792708333309,
      "v": 64
    },
    {
      "midi": 61,
      "hit": false,
      "t": 14999.982999999997,
      "d": 349.5758749999968,
      "v": 54
    },
    {
      "midi": 59,
      "hit": false,
      "t": 16016.930999999993,
      "d": 254.23699999999917,
      "v": 32
    },
    {
      "midi": 63,
      "hit": false,
      "t": 16016.930999999993,
      "d": 328.3894583333331,
      "v": 60
    },
    {
      "midi": 68,
      "hit": false,
      "t": 16016.930999999993,
      "d": 328.3894583333331,
      "v": 56
    },
    {
      "midi": 56,
      "hit": false,
      "t": 17033.878999999994,
      "d": 58.2626458333325,
      "v": 44
    },
    {
      "midi": 59,
      "hit": false,
      "t": 17033.878999999994,
      "d": 1620.760875,
      "v": 62
    },
    {
      "midi": 68,
      "hit": false,
      "t": 17033.878999999994,
      "d": 2055.082416666668,
      "v": 64
    },
    {
      "midi": 71,
      "hit": false,
      "t": 17033.878999999994,
      "d": 2060.379020833334,
      "v": 64
    },
    {
      "midi": 63,
      "hit": false,
      "t": 17033.878999999994,
      "d": 2065.675625,
      "v": 64
    },
    {
      "midi": 52,
      "hit": false,
      "t": 17033.878999999994,
      "d": 2102.751854166665,
      "v": 66
    },
    {
      "midi": 77,
      "hit": false,
      "t": 21355.907999999992,
      "d": 275.42341666666834,
      "v": 72
    },
    {
      "midi": 73,
      "hit": false,
      "t": 21355.907999999992,
      "d": 280.7200208333343,
      "v": 54
    },
    {
      "midi": 82,
      "hit": false,
      "t": 21355.907999999992,
      "d": 280.7200208333343,
      "v": 64
    },
    {
      "midi": 78,
      "hit": false,
      "t": 21355.907999999992,
      "d": 286.0166250000002,
      "v": 46
    },
    {
      "midi": 77,
      "hit": false,
      "t": 21737.263499999994,
      "d": 37.076229166665144,
      "v": 38
    },
    {
      "midi": 73,
      "hit": false,
      "t": 21737.263499999994,
      "d": 63.55924999999843,
      "v": 54
    },
    {
      "midi": 82,
      "hit": false,
      "t": 21737.263499999994,
      "d": 68.85585416666436,
      "v": 56
    },
    {
      "midi": 78,
      "hit": false,
      "t": 21737.263499999994,
      "d": 74.15245833333029,
      "v": 42
    },
    {
      "midi": 73,
      "hit": false,
      "t": 23389.80399999999,
      "d": 233.05058333333363,
      "v": 50
    },
    {
      "midi": 82,
      "hit": false,
      "t": 23389.80399999999,
      "d": 233.05058333333363,
      "v": 60
    },
    {
      "midi": 77,
      "hit": false,
      "t": 23389.80399999999,
      "d": 243.6437916666655,
      "v": 62
    },
    {
      "midi": 78,
      "hit": false,
      "t": 23389.80399999999,
      "d": 254.23699999999735,
      "v": 58
    },
    {
      "midi": 77,
      "hit": false,
      "t": 23771.159499999987,
      "d": 68.855854166668,
      "v": 60
    },
    {
      "midi": 73,
      "hit": false,
      "t": 23771.159499999987,
      "d": 79.44906249999985,
      "v": 44
    },
    {
      "midi": 82,
      "hit": false,
      "t": 23771.159499999987,
      "d": 84.74566666666578,
      "v": 56
    },
    {
      "midi": 78,
      "hit": false,
      "t": 23771.159499999987,
      "d": 90.04227083333171,
      "v": 52
    },
    {
      "midi": 82,
      "hit": false,
      "t": 24915.225999999984,
      "d": 275.42341666666834,
      "v": 60
    },
    {
      "midi": 73,
      "hit": false,
      "t": 24915.225999999984,
      "d": 280.7200208333343,
      "v": 62
    },
    {
      "midi": 77,
      "hit": false,
      "t": 24915.225999999984,
      "d": 286.0166250000002,
      "v": 72
    },
    {
      "midi": 78,
      "hit": false,
      "t": 24915.225999999984,
      "d": 286.0166250000002,
      "v": 29
    },
    {
      "midi": 73,
      "hit": false,
      "t": 25423.699999999986,
      "d": 291.31322916666613,
      "v": 56
    },
    {
      "midi": 82,
      "hit": false,
      "t": 25423.699999999986,
      "d": 296.60983333333206,
      "v": 52
    },
    {
      "midi": 77,
      "hit": false,
      "t": 25423.699999999986,
      "d": 312.4996458333335,
      "v": 58
    },
    {
      "midi": 78,
      "hit": false,
      "t": 25423.699999999986,
      "d": 317.7962499999994,
      "v": 40
    },
    {
      "midi": 78,
      "hit": false,
      "t": 25805.055499999984,
      "d": 47.66943750000064,
      "v": 25
    },
    {
      "midi": 73,
      "hit": false,
      "t": 25805.055499999984,
      "d": 58.2626458333325,
      "v": 52
    },
    {
      "midi": 82,
      "hit": false,
      "t": 25805.055499999984,
      "d": 63.55924999999843,
      "v": 54
    },
    {
      "midi": 77,
      "hit": false,
      "t": 25805.055499999984,
      "d": 68.85585416666436,
      "v": 62
    },
    {
      "midi": 73,
      "hit": false,
      "t": 26694.88499999998,
      "d": 100.63547916666721,
      "v": 50
    },
    {
      "midi": 77,
      "hit": false,
      "t": 26694.88499999998,
      "d": 105.93208333333314,
      "v": 64
    },
    {
      "midi": 82,
      "hit": false,
      "t": 26694.88499999998,
      "d": 111.22868749999907,
      "v": 54
    },
    {
      "midi": 78,
      "hit": false,
      "t": 26694.88499999998,
      "d": 127.1185000000005,
      "v": 56
    },
    {
      "midi": 73,
      "hit": false,
      "t": 27457.59599999998,
      "d": 243.6437916666655,
      "v": 34
    },
    {
      "midi": 82,
      "hit": false,
      "t": 27457.59599999998,
      "d": 248.94039583333142,
      "v": 52
    },
    {
      "midi": 77,
      "hit": false,
      "t": 27457.59599999998,
      "d": 270.1268124999988,
      "v": 62
    },
    {
      "midi": 78,
      "hit": false,
      "t": 27457.59599999998,
      "d": 275.4234166666647,
      "v": 56
    },
    {
      "midi": 78,
      "hit": false,
      "t": 27838.951499999977,
      "d": 84.74566666666578,
      "v": 31
    },
    {
      "midi": 73,
      "hit": false,
      "t": 27838.951499999977,
      "d": 90.04227083333171,
      "v": 56
    },
    {
      "midi": 77,
      "hit": false,
      "t": 27838.951499999977,
      "d": 95.33887499999764,
      "v": 64
    },
    {
      "midi": 82,
      "hit": false,
      "t": 27838.951499999977,
      "d": 116.525291666665,
      "v": 66
    },
    {
      "midi": 77,
      "hit": false,
      "t": 28983.017999999975,
      "d": 275.42341666666834,
      "v": 60
    },
    {
      "midi": 78,
      "hit": false,
      "t": 28983.017999999975,
      "d": 275.42341666666834,
      "v": 48
    },
    {
      "midi": 82,
      "hit": false,
      "t": 28983.017999999975,
      "d": 286.0166250000002,
      "v": 56
    },
    {
      "midi": 73,
      "hit": false,
      "t": 28983.017999999975,
      "d": 291.31322916666613,
      "v": 50
    },
    {
      "midi": 77,
      "hit": false,
      "t": 29491.491999999973,
      "d": 286.0166250000002,
      "v": 64
    },
    {
      "midi": 78,
      "hit": false,
      "t": 29491.491999999973,
      "d": 286.0166250000002,
      "v": 48
    },
    {
      "midi": 82,
      "hit": false,
      "t": 29491.491999999973,
      "d": 286.0166250000002,
      "v": 54
    },
    {
      "midi": 73,
      "hit": false,
      "t": 29491.491999999973,
      "d": 291.31322916666613,
      "v": 40
    },
    {
      "midi": 73,
      "hit": false,
      "t": 29872.84749999997,
      "d": 52.96604166666657,
      "v": 44
    },
    {
      "midi": 82,
      "hit": false,
      "t": 29872.84749999997,
      "d": 68.855854166668,
      "v": 56
    },
    {
      "midi": 77,
      "hit": false,
      "t": 29872.84749999997,
      "d": 74.15245833333393,
      "v": 60
    },
    {
      "midi": 78,
      "hit": false,
      "t": 29872.84749999997,
      "d": 74.15245833333393,
      "v": 56
    },
    {
      "midi": 73,
      "hit": false,
      "t": 31525.38799999997,
      "d": 243.6437916666655,
      "v": 52
    },
    {
      "midi": 82,
      "hit": false,
      "t": 31525.38799999997,
      "d": 243.6437916666655,
      "v": 58
    },
    {
      "midi": 77,
      "hit": false,
      "t": 31525.38799999997,
      "d": 248.94039583333142,
      "v": 58
    },
    {
      "midi": 78,
      "hit": false,
      "t": 31525.38799999997,
      "d": 264.83020833333285,
      "v": 38
    },
    {
      "midi": 77,
      "hit": false,
      "t": 31906.743499999968,
      "d": 84.74566666666578,
      "v": 56
    },
    {
      "midi": 82,
      "hit": false,
      "t": 31906.743499999968,
      "d": 90.04227083333171,
      "v": 50
    },
    {
      "midi": 73,
      "hit": false,
      "t": 31906.743499999968,
      "d": 95.33887499999764,
      "v": 42
    },
    {
      "midi": 78,
      "hit": false,
      "t": 31906.743499999968,
      "d": 116.525291666665,
      "v": 23
    },
    {
      "midi": 77,
      "hit": false,
      "t": 33050.80999999997,
      "d": 354.8724791666682,
      "v": 56
    },
    {
      "midi": 82,
      "hit": false,
      "t": 33050.80999999997,
      "d": 365.46568750000006,
      "v": 60
    },
    {
      "midi": 73,
      "hit": false,
      "t": 33050.80999999997,
      "d": 370.762291666666,
      "v": 48
    },
    {
      "midi": 78,
      "hit": false,
      "t": 33305.04699999997,
      "d": 164.19472916666564,
      "v": 4
    },
    {
      "midi": 73,
      "hit": false,
      "t": 33559.28399999997,
      "d": 254.237000000001,
      "v": 31
    },
    {
      "midi": 82,
      "hit": false,
      "t": 33559.28399999997,
      "d": 264.83020833333285,
      "v": 54
    },
    {
      "midi": 77,
      "hit": false,
      "t": 33559.28399999997,
      "d": 275.4234166666647,
      "v": 54
    },
    {
      "midi": 78,
      "hit": false,
      "t": 33559.28399999997,
      "d": 275.4234166666647,
      "v": 46
    },
    {
      "midi": 77,
      "hit": false,
      "t": 33940.63949999997,
      "d": 79.44906250000349,
      "v": 44
    },
    {
      "midi": 73,
      "hit": false,
      "t": 33940.63949999997,
      "d": 90.04227083333535,
      "v": 48
    },
    {
      "midi": 78,
      "hit": false,
      "t": 33940.63949999997,
      "d": 105.93208333333314,
      "v": 37
    },
    {
      "midi": 82,
      "hit": false,
      "t": 33940.63949999997,
      "d": 111.22868749999907,
      "v": 56
    },
    {
      "midi": 82,
      "hit": false,
      "t": 34830.46899999997,
      "d": 105.93208333333314,
      "v": 50
    },
    {
      "midi": 77,
      "hit": false,
      "t": 34830.46899999997,
      "d": 111.22868749999907,
      "v": 54
    },
    {
      "midi": 73,
      "hit": false,
      "t": 34830.46899999997,
      "d": 116.525291666665,
      "v": 30
    },
    {
      "midi": 78,
      "hit": false,
      "t": 34830.46899999997,
      "d": 143.00831250000192,
      "v": 40
    },
    {
      "midi": 82,
      "hit": false,
      "t": 35593.17999999997,
      "d": 238.3471875000032,
      "v": 44
    },
    {
      "midi": 77,
      "hit": false,
      "t": 35593.17999999997,
      "d": 254.237000000001,
      "v": 62
    },
    {
      "midi": 73,
      "hit": false,
      "t": 35593.17999999997,
      "d": 259.5336041666669,
      "v": 42
    },
    {
      "midi": 78,
      "hit": false,
      "t": 35593.17999999997,
      "d": 259.5336041666669,
      "v": 46
    },
    {
      "midi": 77,
      "hit": false,
      "t": 35974.53549999997,
      "d": 74.15245833333029,
      "v": 64
    },
    {
      "midi": 73,
      "hit": false,
      "t": 35974.53549999997,
      "d": 79.44906249999622,
      "v": 46
    },
    {
      "midi": 78,
      "hit": false,
      "t": 35974.53549999997,
      "d": 95.338874999994,
      "v": 52
    },
    {
      "midi": 82,
      "hit": false,
      "t": 35974.53549999997,
      "d": 100.63547916665993,
      "v": 56
    },
    {
      "midi": 82,
      "hit": false,
      "t": 37118.60199999996,
      "d": 312.4996458333335,
      "v": 62
    },
    {
      "midi": 77,
      "hit": false,
      "t": 37118.60199999996,
      "d": 328.3894583333313,
      "v": 66
    },
    {
      "midi": 73,
      "hit": false,
      "t": 37118.60199999996,
      "d": 333.6860624999972,
      "v": 52
    },
    {
      "midi": 78,
      "hit": false,
      "t": 37118.60199999996,
      "d": 370.762291666666,
      "v": 66
    },
    {
      "midi": 82,
      "hit": false,
      "t": 37627.075999999965,
      "d": 275.4234166666647,
      "v": 60
    },
    {
      "midi": 73,
      "hit": false,
      "t": 37627.075999999965,
      "d": 280.72002083333064,
      "v": 37
    },
    {
      "midi": 77,
      "hit": false,
      "t": 37627.075999999965,
      "d": 291.3132291666625,
      "v": 58
    },
    {
      "midi": 78,
      "hit": false,
      "t": 37627.075999999965,
      "d": 323.09285416666535,
      "v": 52
    },
    {
      "midi": 77,
      "hit": false,
      "t": 38008.43149999996,
      "d": 79.44906250000349,
      "v": 72
    },
    {
      "midi": 73,
      "hit": false,
      "t": 38008.43149999996,
      "d": 84.74566666666942,
      "v": 52
    },
    {
      "midi": 78,
      "hit": false,
      "t": 38008.43149999996,
      "d": 84.74566666666942,
      "v": 46
    },
    {
      "midi": 82,
      "hit": false,
      "t": 38008.43149999996,
      "d": 90.04227083333535,
      "v": 62
    },
    {
      "midi": 77,
      "hit": false,
      "t": 38898.26099999996,
      "d": 63.55924999999843,
      "v": 38
    },
    {
      "midi": 73,
      "hit": false,
      "t": 38898.26099999996,
      "d": 90.04227083333535,
      "v": 48
    },
    {
      "midi": 78,
      "hit": false,
      "t": 38898.26099999996,
      "d": 90.04227083333535,
      "v": 35
    },
    {
      "midi": 82,
      "hit": false,
      "t": 38898.26099999996,
      "d": 111.22868749999907,
      "v": 62
    },
    {
      "midi": 77,
      "hit": false,
      "t": 39660.97199999996,
      "d": 259.5336041666669,
      "v": 64
    },
    {
      "midi": 82,
      "hit": false,
      "t": 39660.97199999996,
      "d": 275.4234166666647,
      "v": 42
    },
    {
      "midi": 73,
      "hit": false,
      "t": 39660.97199999996,
      "d": 286.01662499999657,
      "v": 37
    },
    {
      "midi": 78,
      "hit": false,
      "t": 39660.97199999996,
      "d": 286.01662499999657,
      "v": 48
    },
    {
      "midi": 73,
      "hit": false,
      "t": 40042.327499999956,
      "d": 95.33887500000128,
      "v": 56
    },
    {
      "midi": 82,
      "hit": false,
      "t": 40042.327499999956,
      "d": 100.63547916666721,
      "v": 50
    },
    {
      "midi": 77,
      "hit": false,
      "t": 40042.327499999956,
      "d": 111.22868749999907,
      "v": 64
    },
    {
      "midi": 78,
      "hit": false,
      "t": 40042.327499999956,
      "d": 121.82189583333093,
      "v": 42
    },
    {
      "midi": 82,
      "hit": false,
      "t": 41186.39399999996,
      "d": 323.09285416666535,
      "v": 56
    },
    {
      "midi": 73,
      "hit": false,
      "t": 41186.39399999996,
      "d": 365.46568750000006,
      "v": 42
    },
    {
      "midi": 77,
      "hit": false,
      "t": 41186.39399999996,
      "d": 365.46568750000006,
      "v": 64
    },
    {
      "midi": 78,
      "hit": false,
      "t": 41186.39399999996,
      "d": 381.35549999999785,
      "v": 62
    },
    {
      "midi": 73,
      "hit": false,
      "t": 41694.86799999995,
      "d": 222.45737499999814,
      "v": 39
    },
    {
      "midi": 82,
      "hit": false,
      "t": 41694.86799999995,
      "d": 248.94039583333506,
      "v": 66
    },
    {
      "midi": 77,
      "hit": false,
      "t": 41694.86799999995,
      "d": 270.1268124999988,
      "v": 66
    },
    {
      "midi": 78,
      "hit": false,
      "t": 41694.86799999995,
      "d": 296.6098333333357,
      "v": 34
    },
    {
      "midi": 73,
      "hit": false,
      "t": 42076.22349999996,
      "d": 84.74566666666942,
      "v": 48
    },
    {
      "midi": 77,
      "hit": false,
      "t": 42076.22349999996,
      "d": 95.33887500000128,
      "v": 66
    },
    {
      "midi": 82,
      "hit": false,
      "t": 42076.22349999996,
      "d": 111.22868749999907,
      "v": 66
    },
    {
      "midi": 78,
      "hit": false,
      "t": 42076.22349999996,
      "d": 116.525291666665,
      "v": 56
    },
    {
      "midi": 78,
      "hit": false,
      "t": 42966.052999999956,
      "d": 153.60152083333378,
      "v": 46
    },
    {
      "midi": 82,
      "hit": false,
      "t": 42966.052999999956,
      "d": 153.60152083333378,
      "v": 64
    },
    {
      "midi": 73,
      "hit": false,
      "t": 42966.052999999956,
      "d": 169.49133333333157,
      "v": 39
    },
    {
      "midi": 82,
      "hit": false,
      "t": 43728.76399999995,
      "d": 222.45737499999814,
      "v": 52
    },
    {
      "midi": 73,
      "hit": false,
      "t": 43728.76399999995,
      "d": 270.1268124999988,
      "v": 42
    },
    {
      "midi": 77,
      "hit": false,
      "t": 43728.76399999995,
      "d": 270.1268124999988,
      "v": 56
    },
    {
      "midi": 78,
      "hit": false,
      "t": 43728.76399999995,
      "d": 280.72002083333064,
      "v": 42
    },
    {
      "midi": 82,
      "hit": false,
      "t": 44110.11949999995,
      "d": 111.22868749999907,
      "v": 54
    },
    {
      "midi": 73,
      "hit": false,
      "t": 44110.11949999995,
      "d": 116.525291666665,
      "v": 44
    },
    {
      "midi": 77,
      "hit": false,
      "t": 44110.11949999995,
      "d": 121.82189583333093,
      "v": 56
    },
    {
      "midi": 78,
      "hit": false,
      "t": 44110.11949999995,
      "d": 121.82189583333093,
      "v": 32
    },
    {
      "midi": 82,
      "hit": false,
      "t": 45254.18599999995,
      "d": 344.27927083333634,
      "v": 58
    },
    {
      "midi": 73,
      "hit": false,
      "t": 45254.18599999995,
      "d": 376.0588958333392,
      "v": 52
    },
    {
      "midi": 77,
      "hit": false,
      "t": 45254.18599999995,
      "d": 376.0588958333392,
      "v": 68
    },
    {
      "midi": 78,
      "hit": false,
      "t": 45254.18599999995,
      "d": 386.65210416667105,
      "v": 50
    },
    {
      "midi": 82,
      "hit": false,
      "t": 45762.65999999995,
      "d": 201.27095833333442,
      "v": 48
    },
    {
      "midi": 77,
      "hit": false,
      "t": 45762.65999999995,
      "d": 275.4234166666647,
      "v": 62
    },
    {
      "midi": 78,
      "hit": false,
      "t": 45762.65999999995,
      "d": 286.01662499999657,
      "v": 36
    },
    {
      "midi": 73,
      "hit": false,
      "t": 45762.65999999995,
      "d": 291.3132291666625,
      "v": 42
    },
    {
      "midi": 77,
      "hit": false,
      "t": 46144.01549999995,
      "d": 84.74566666666942,
      "v": 56
    },
    {
      "midi": 73,
      "hit": false,
      "t": 46144.01549999995,
      "d": 95.33887500000128,
      "v": 50
    },
    {
      "midi": 82,
      "hit": false,
      "t": 46144.01549999995,
      "d": 100.63547916666721,
      "v": 62
    },
    {
      "midi": 78,
      "hit": false,
      "t": 46144.01549999995,
      "d": 105.93208333333314,
      "v": 56
    },
    {
      "midi": 82,
      "hit": false,
      "t": 47796.55599999995,
      "d": 227.75397916666407,
      "v": 54
    },
    {
      "midi": 73,
      "hit": false,
      "t": 47796.55599999995,
      "d": 248.94039583332778,
      "v": 40
    },
    {
      "midi": 77,
      "hit": false,
      "t": 47796.55599999995,
      "d": 248.94039583332778,
      "v": 52
    },
    {
      "midi": 78,
      "hit": false,
      "t": 47796.55599999995,
      "d": 301.90643749999435,
      "v": 52
    },
    {
      "midi": 73,
      "hit": false,
      "t": 48177.91149999995,
      "d": 84.74566666666942,
      "v": 54
    },
    {
      "midi": 77,
      "hit": false,
      "t": 48177.91149999995,
      "d": 95.33887500000128,
      "v": 64
    },
    {
      "midi": 78,
      "hit": false,
      "t": 48177.91149999995,
      "d": 95.33887500000128,
      "v": 46
    },
    {
      "midi": 82,
      "hit": false,
      "t": 48177.91149999995,
      "d": 105.93208333333314,
      "v": 56
    },
    {
      "midi": 77,
      "hit": false,
      "t": 49321.97799999995,
      "d": 354.8724791666682,
      "v": 56
    },
    {
      "midi": 78,
      "hit": false,
      "t": 49321.97799999995,
      "d": 360.16908333333413,
      "v": 60
    },
    {
      "midi": 82,
      "hit": false,
      "t": 49321.97799999995,
      "d": 365.46568750000006,
      "v": 52
    },
    {
      "midi": 73,
      "hit": false,
      "t": 49321.97799999995,
      "d": 381.35549999999785,
      "v": 31
    },
    {
      "midi": 77,
      "hit": false,
      "t": 49830.45199999995,
      "d": 270.1268124999988,
      "v": 66
    },
    {
      "midi": 78,
      "hit": false,
      "t": 49830.45199999995,
      "d": 270.1268124999988,
      "v": 40
    },
    {
      "midi": 82,
      "hit": false,
      "t": 49830.45199999995,
      "d": 275.4234166666647,
      "v": 58
    },
    {
      "midi": 73,
      "hit": false,
      "t": 49830.45199999995,
      "d": 280.72002083333064,
      "v": 46
    },
    {
      "midi": 77,
      "hit": false,
      "t": 50211.807499999944,
      "d": 68.85585416666436,
      "v": 56
    },
    {
      "midi": 73,
      "hit": false,
      "t": 50211.807499999944,
      "d": 79.44906249999622,
      "v": 42
    },
    {
      "midi": 78,
      "hit": false,
      "t": 50211.807499999944,
      "d": 79.44906249999622,
      "v": 30
    },
    {
      "midi": 82,
      "hit": false,
      "t": 50211.807499999944,
      "d": 95.338874999994,
      "v": 60
    },
    {
      "midi": 77,
      "hit": false,
      "t": 51101.63699999994,
      "d": 105.93208333333314,
      "v": 66
    },
    {
      "midi": 82,
      "hit": false,
      "t": 51101.63699999994,
      "d": 111.22868749999907,
      "v": 27
    },
    {
      "midi": 78,
      "hit": false,
      "t": 51101.63699999994,
      "d": 153.60152083333378,
      "v": 54
    },
    {
      "midi": 73,
      "hit": false,
      "t": 51101.63699999994,
      "d": 158.8981249999997,
      "v": 40
    },
    {
      "midi": 82,
      "hit": false,
      "t": 51864.34799999994,
      "d": 264.83020833333285,
      "v": 54
    },
    {
      "midi": 73,
      "hit": false,
      "t": 51864.34799999994,
      "d": 291.31322916666977,
      "v": 42
    },
    {
      "midi": 77,
      "hit": false,
      "t": 51864.34799999994,
      "d": 291.31322916666977,
      "v": 62
    },
    {
      "midi": 78,
      "hit": false,
      "t": 51864.34799999994,
      "d": 328.38945833333855,
      "v": 58
    },
    {
      "midi": 77,
      "hit": false,
      "t": 52245.703499999945,
      "d": 37.07622916666878,
      "v": 39
    },
    {
      "midi": 78,
      "hit": false,
      "t": 52245.703499999945,
      "d": 74.15245833333756,
      "v": 40
    },
    {
      "midi": 73,
      "hit": false,
      "t": 52245.703499999945,
      "d": 84.74566666666942,
      "v": 44
    },
    {
      "midi": 82,
      "hit": false,
      "t": 52245.703499999945,
      "d": 100.63547916666721,
      "v": 56
    },
    {
      "midi": 77,
      "hit": false,
      "t": 53389.769999999946,
      "d": 153.60152083333378,
      "v": 62
    },
    {
      "midi": 82,
      "hit": false,
      "t": 53389.769999999946,
      "d": 164.19472916666564,
      "v": 52
    },
    {
      "midi": 78,
      "hit": false,
      "t": 53389.769999999946,
      "d": 169.49133333333157,
      "v": 48
    },
    {
      "midi": 73,
      "hit": false,
      "t": 53389.769999999946,
      "d": 206.56756250000035,
      "v": 50
    },
    {
      "midi": 61,
      "hit": false,
      "t": 53898.24399999995,
      "d": 1615.464270833334,
      "v": 35
    },
    {
      "midi": 63,
      "hit": false,
      "t": 53898.24399999995,
      "d": 1626.0574791666659,
      "v": 52
    },
    {
      "midi": 59,
      "hit": false,
      "t": 53898.24399999995,
      "d": 1636.6506874999977,
      "v": 62
    },
    {
      "midi": 66,
      "hit": false,
      "t": 53898.24399999995,
      "d": 1684.3201249999984,
      "v": 66
    },
    {
      "midi": 54,
      "hit": false,
      "t": 53898.24399999995,
      "d": 1991.523166666666,
      "v": 54
    },
    {
      "midi": 47,
      "hit": false,
      "t": 55932.13999999995,
      "d": 1663.1337083333347,
      "v": 18
    },
    {
      "midi": 61,
      "hit": false,
      "t": 55932.13999999995,
      "d": 1869.701270833335,
      "v": 29
    },
    {
      "midi": 63,
      "hit": false,
      "t": 55932.13999999995,
      "d": 1874.997875000001,
      "v": 60
    },
    {
      "midi": 58,
      "hit": false,
      "t": 55932.13999999995,
      "d": 1938.5571249999994,
      "v": 54
    },
    {
      "midi": 70,
      "hit": false,
      "t": 55932.13999999995,
      "d": 2123.938270833336,
      "v": 62
    },
    {
      "midi": 66,
      "hit": false,
      "t": 55932.13999999995,
      "d": 2161.014500000005,
      "v": 66
    },
    {
      "midi": 65,
      "hit": false,
      "t": 57966.03599999995,
      "d": 1530.7186041666719,
      "v": 64
    },
    {
      "midi": 61,
      "hit": false,
      "t": 57966.03599999995,
      "d": 1546.6084166666697,
      "v": 28
    },
    {
      "midi": 68,
      "hit": false,
      "t": 57966.03599999995,
      "d": 1716.0997500000012,
      "v": 64
    },
    {
      "midi": 56,
      "hit": false,
      "t": 57966.03599999995,
      "d": 1753.17597916667,
      "v": 36
    },
    {
      "midi": 63,
      "hit": false,
      "t": 59999.93199999995,
      "d": 254.237000000001,
      "v": 56
    },
    {
      "midi": 54,
      "hit": false,
      "t": 59999.93199999995,
      "d": 275.4234166666647,
      "v": 42
    },
    {
      "midi": 66,
      "hit": false,
      "t": 59999.93199999995,
      "d": 291.3132291666625,
      "v": 54
    },
    {
      "midi": 59,
      "hit": false,
      "t": 59999.93199999995,
      "d": 439.61814583333035,
      "v": 62
    },
    {
      "midi": 56,
      "hit": false,
      "t": 60381.28749999995,
      "d": 15.889812499997788,
      "v": 20
    },
    {
      "midi": 54,
      "hit": false,
      "t": 60381.28749999995,
      "d": 63.55924999999843,
      "v": 42
    },
    {
      "midi": 61,
      "hit": false,
      "t": 60381.28749999995,
      "d": 95.33887500000128,
      "v": 80
    },
    {
      "midi": 65,
      "hit": false,
      "t": 60381.28749999995,
      "d": 100.63547916666721,
      "v": 68
    },
    {
      "midi": 56,
      "hit": false,
      "t": 60762.642999999945,
      "d": 1038.1344166666677,
      "v": 54
    },
    {
      "midi": 63,
      "hit": false,
      "t": 60762.642999999945,
      "d": 1054.0242291666655,
      "v": 58
    },
    {
      "midi": 54,
      "hit": false,
      "t": 60762.642999999945,
      "d": 1080.5072500000024,
      "v": 44
    },
    {
      "midi": 59,
      "hit": false,
      "t": 60762.642999999945,
      "d": 1096.3970625000002,
      "v": 60
    },
    {
      "midi": 54,
      "hit": false,
      "t": 62033.82799999994,
      "d": 1663.1337083333347,
      "v": 44
    },
    {
      "midi": 56,
      "hit": false,
      "t": 62033.82799999994,
      "d": 1689.6167291666716,
      "v": 48
    },
    {
      "midi": 59,
      "hit": false,
      "t": 62033.82799999994,
      "d": 1753.17597916667,
      "v": 52
    },
    {
      "midi": 63,
      "hit": false,
      "t": 62033.82799999994,
      "d": 1859.1080625000031,
      "v": 42
    },
    {
      "midi": 66,
      "hit": false,
      "t": 62033.82799999994,
      "d": 1874.997875000001,
      "v": 50
    },
    {
      "midi": 66,
      "hit": false,
      "t": 64067.723999999944,
      "d": 1615.4642708333267,
      "v": 54
    },
    {
      "midi": 58,
      "hit": false,
      "t": 64067.723999999944,
      "d": 1758.4725833333214,
      "v": 54
    },
    {
      "midi": 61,
      "hit": false,
      "t": 64067.723999999944,
      "d": 1779.658999999985,
      "v": 68
    },
    {
      "midi": 54,
      "hit": false,
      "t": 64067.723999999944,
      "d": 1965.0401458333217,
      "v": 37
    },
    {
      "midi": 70,
      "hit": false,
      "t": 64067.723999999944,
      "d": 2044.4892083333252,
      "v": 64
    },
    {
      "midi": 65,
      "hit": false,
      "t": 66101.61999999994,
      "d": 1652.5405000000028,
      "v": 68
    },
    {
      "midi": 61,
      "hit": false,
      "t": 66101.61999999994,
      "d": 1721.3963541666744,
      "v": 54
    },
    {
      "midi": 58,
      "hit": false,
      "t": 66101.61999999994,
      "d": 1737.2861666666722,
      "v": 54
    },
    {
      "midi": 56,
      "hit": false,
      "t": 66101.61999999994,
      "d": 1811.4386250000098,
      "v": 54
    },
    {
      "midi": 68,
      "hit": false,
      "t": 66101.61999999994,
      "d": 1954.4469375000044,
      "v": 60
    },
    {
      "midi": 63,
      "hit": false,
      "t": 68135.51599999995,
      "d": 391.948708333337,
      "v": 68
    },
    {
      "midi": 66,
      "hit": false,
      "t": 68135.51599999995,
      "d": 407.83852083333477,
      "v": 66
    },
    {
      "midi": 61,
      "hit": false,
      "t": 68516.87149999995,
      "d": 211.86416666666628,
      "v": 60
    },
    {
      "midi": 65,
      "hit": false,
      "t": 68516.87149999995,
      "d": 344.27927083332906,
      "v": 66
    },
    {
      "midi": 59,
      "hit": false,
      "t": 68898.22699999994,
      "d": 1234.1087708333362,
      "v": 66
    },
    {
      "midi": 63,
      "hit": false,
      "t": 68898.22699999994,
      "d": 1313.557833333325,
      "v": 68
    },
    {
      "midi": 56,
      "hit": false,
      "t": 70169.41199999994,
      "d": 1620.7608749999927,
      "v": 52
    },
    {
      "midi": 49,
      "hit": false,
      "t": 70169.41199999994,
      "d": 1668.430312499986,
      "v": 33
    },
    {
      "midi": 61,
      "hit": false,
      "t": 70169.41199999994,
      "d": 1679.023520833318,
      "v": 58
    },
    {
      "midi": 77,
      "hit": false,
      "t": 72203.30799999992,
      "d": 275.423416666672,
      "v": 72
    },
    {
      "midi": 73,
      "hit": false,
      "t": 72203.30799999992,
      "d": 280.7200208333379,
      "v": 54
    },
    {
      "midi": 82,
      "hit": false,
      "t": 72203.30799999992,
      "d": 280.7200208333379,
      "v": 64
    },
    {
      "midi": 78,
      "hit": false,
      "t": 72203.30799999992,
      "d": 286.01662500000384,
      "v": 46
    },
    {
      "midi": 77,
      "hit": false,
      "t": 72584.66349999992,
      "d": 37.076229166661506,
      "v": 38
    },
    {
      "midi": 73,
      "hit": false,
      "t": 72584.66349999992,
      "d": 63.55924999999115,
      "v": 54
    },
    {
      "midi": 82,
      "hit": false,
      "t": 72584.66349999992,
      "d": 68.85585416665708,
      "v": 56
    },
    {
      "midi": 78,
      "hit": false,
      "t": 72584.66349999992,
      "d": 74.15245833332301,
      "v": 42
    },
    {
      "midi": 73,
      "hit": false,
      "t": 74237.20399999991,
      "d": 233.05058333333,
      "v": 50
    },
    {
      "midi": 82,
      "hit": false,
      "t": 74237.20399999991,
      "d": 233.05058333333,
      "v": 60
    },
    {
      "midi": 77,
      "hit": false,
      "t": 74237.20399999991,
      "d": 243.64379166666185,
      "v": 62
    },
    {
      "midi": 78,
      "hit": false,
      "t": 74237.20399999991,
      "d": 254.2369999999937,
      "v": 58
    },
    {
      "midi": 77,
      "hit": false,
      "t": 74618.5594999999,
      "d": 68.85585416667163,
      "v": 60
    },
    {
      "midi": 73,
      "hit": false,
      "t": 74618.5594999999,
      "d": 79.44906250000349,
      "v": 44
    },
    {
      "midi": 82,
      "hit": false,
      "t": 74618.5594999999,
      "d": 84.74566666666942,
      "v": 56
    },
    {
      "midi": 78,
      "hit": false,
      "t": 74618.5594999999,
      "d": 90.04227083333535,
      "v": 52
    },
    {
      "midi": 82,
      "hit": false,
      "t": 75762.6259999999,
      "d": 275.423416666672,
      "v": 60
    },
    {
      "midi": 73,
      "hit": false,
      "t": 75762.6259999999,
      "d": 280.7200208333379,
      "v": 62
    },
    {
      "midi": 77,
      "hit": false,
      "t": 75762.6259999999,
      "d": 286.01662500000384,
      "v": 72
    },
    {
      "midi": 78,
      "hit": false,
      "t": 75762.6259999999,
      "d": 286.01662500000384,
      "v": 29
    },
    {
      "midi": 73,
      "hit": false,
      "t": 76271.0999999999,
      "d": 291.31322916666977,
      "v": 56
    },
    {
      "midi": 82,
      "hit": false,
      "t": 76271.0999999999,
      "d": 296.6098333333357,
      "v": 52
    },
    {
      "midi": 77,
      "hit": false,
      "t": 76271.0999999999,
      "d": 312.4996458333335,
      "v": 58
    },
    {
      "midi": 78,
      "hit": false,
      "t": 76271.0999999999,
      "d": 317.7962499999994,
      "v": 40
    },
    {
      "midi": 78,
      "hit": false,
      "t": 76652.45549999991,
      "d": 47.669437499993364,
      "v": 25
    },
    {
      "midi": 73,
      "hit": false,
      "t": 76652.45549999991,
      "d": 58.26264583332522,
      "v": 52
    },
    {
      "midi": 82,
      "hit": false,
      "t": 76652.45549999991,
      "d": 63.55924999999115,
      "v": 54
    },
    {
      "midi": 77,
      "hit": false,
      "t": 76652.45549999991,
      "d": 68.85585416665708,
      "v": 62
    },
    {
      "midi": 73,
      "hit": false,
      "t": 77542.2849999999,
      "d": 100.63547916666721,
      "v": 50
    },
    {
      "midi": 77,
      "hit": false,
      "t": 77542.2849999999,
      "d": 105.93208333333314,
      "v": 64
    },
    {
      "midi": 82,
      "hit": false,
      "t": 77542.2849999999,
      "d": 111.22868749999907,
      "v": 54
    },
    {
      "midi": 78,
      "hit": false,
      "t": 77542.2849999999,
      "d": 127.11849999999686,
      "v": 56
    },
    {
      "midi": 73,
      "hit": false,
      "t": 78304.9959999999,
      "d": 243.64379166666185,
      "v": 34
    },
    {
      "midi": 82,
      "hit": false,
      "t": 78304.9959999999,
      "d": 248.94039583332778,
      "v": 52
    },
    {
      "midi": 77,
      "hit": false,
      "t": 78304.9959999999,
      "d": 270.1268124999915,
      "v": 62
    },
    {
      "midi": 78,
      "hit": false,
      "t": 78304.9959999999,
      "d": 275.42341666665743,
      "v": 56
    },
    {
      "midi": 78,
      "hit": false,
      "t": 78686.35149999989,
      "d": 84.74566666666942,
      "v": 31
    },
    {
      "midi": 73,
      "hit": false,
      "t": 78686.35149999989,
      "d": 90.04227083333535,
      "v": 56
    },
    {
      "midi": 77,
      "hit": false,
      "t": 78686.35149999989,
      "d": 95.33887500000128,
      "v": 64
    },
    {
      "midi": 82,
      "hit": false,
      "t": 78686.35149999989,
      "d": 116.525291666665,
      "v": 66
    },
    {
      "midi": 77,
      "hit": false,
      "t": 79830.41799999989,
      "d": 275.423416666672,
      "v": 60
    },
    {
      "midi": 78,
      "hit": false,
      "t": 79830.41799999989,
      "d": 275.423416666672,
      "v": 48
    },
    {
      "midi": 82,
      "hit": false,
      "t": 79830.41799999989,
      "d": 286.01662500000384,
      "v": 56
    },
    {
      "midi": 73,
      "hit": false,
      "t": 79830.41799999989,
      "d": 291.31322916666977,
      "v": 50
    },
    {
      "midi": 77,
      "hit": false,
      "t": 80338.89199999989,
      "d": 286.01662500000384,
      "v": 64
    },
    {
      "midi": 78,
      "hit": false,
      "t": 80338.89199999989,
      "d": 286.01662500000384,
      "v": 48
    },
    {
      "midi": 82,
      "hit": false,
      "t": 80338.89199999989,
      "d": 286.01662500000384,
      "v": 54
    },
    {
      "midi": 73,
      "hit": false,
      "t": 80338.89199999989,
      "d": 291.31322916666977,
      "v": 40
    },
    {
      "midi": 73,
      "hit": false,
      "t": 80720.2474999999,
      "d": 52.966041666673846,
      "v": 44
    },
    {
      "midi": 82,
      "hit": false,
      "t": 80720.2474999999,
      "d": 68.85585416667163,
      "v": 56
    },
    {
      "midi": 77,
      "hit": false,
      "t": 80720.2474999999,
      "d": 74.15245833333756,
      "v": 60
    },
    {
      "midi": 78,
      "hit": false,
      "t": 80720.2474999999,
      "d": 74.15245833333756,
      "v": 56
    },
    {
      "midi": 73,
      "hit": false,
      "t": 82372.7879999999,
      "d": 243.64379166666185,
      "v": 52
    },
    {
      "midi": 82,
      "hit": false,
      "t": 82372.7879999999,
      "d": 243.64379166666185,
      "v": 58
    },
    {
      "midi": 77,
      "hit": false,
      "t": 82372.7879999999,
      "d": 248.94039583332778,
      "v": 58
    },
    {
      "midi": 78,
      "hit": false,
      "t": 82372.7879999999,
      "d": 264.8302083333256,
      "v": 38
    },
    {
      "midi": 77,
      "hit": false,
      "t": 82754.14349999989,
      "d": 84.74566666666942,
      "v": 56
    },
    {
      "midi": 82,
      "hit": false,
      "t": 82754.14349999989,
      "d": 90.04227083333535,
      "v": 50
    },
    {
      "midi": 73,
      "hit": false,
      "t": 82754.14349999989,
      "d": 95.33887500000128,
      "v": 42
    },
    {
      "midi": 78,
      "hit": false,
      "t": 82754.14349999989,
      "d": 116.525291666665,
      "v": 23
    },
    {
      "midi": 77,
      "hit": false,
      "t": 83898.20999999989,
      "d": 354.8724791666609,
      "v": 56
    },
    {
      "midi": 82,
      "hit": false,
      "t": 83898.20999999989,
      "d": 365.4656874999928,
      "v": 60
    },
    {
      "midi": 73,
      "hit": false,
      "t": 83898.20999999989,
      "d": 370.7622916666587,
      "v": 48
    },
    {
      "midi": 78,
      "hit": false,
      "t": 84152.44699999988,
      "d": 164.19472916665836,
      "v": 4
    },
    {
      "midi": 73,
      "hit": false,
      "t": 84406.68399999988,
      "d": 254.2369999999937,
      "v": 31
    },
    {
      "midi": 82,
      "hit": false,
      "t": 84406.68399999988,
      "d": 264.8302083333256,
      "v": 54
    },
    {
      "midi": 77,
      "hit": false,
      "t": 84406.68399999988,
      "d": 275.42341666665743,
      "v": 54
    },
    {
      "midi": 78,
      "hit": false,
      "t": 84406.68399999988,
      "d": 275.42341666665743,
      "v": 46
    },
    {
      "midi": 77,
      "hit": false,
      "t": 84788.03949999987,
      "d": 79.44906250000349,
      "v": 44
    },
    {
      "midi": 73,
      "hit": false,
      "t": 84788.03949999987,
      "d": 90.04227083333535,
      "v": 48
    },
    {
      "midi": 78,
      "hit": false,
      "t": 84788.03949999987,
      "d": 105.93208333333314,
      "v": 37
    },
    {
      "midi": 82,
      "hit": false,
      "t": 84788.03949999987,
      "d": 111.22868749999907,
      "v": 56
    },
    {
      "midi": 82,
      "hit": false,
      "t": 85677.86899999986,
      "d": 105.93208333333314,
      "v": 50
    },
    {
      "midi": 77,
      "hit": false,
      "t": 85677.86899999986,
      "d": 111.22868749999907,
      "v": 54
    },
    {
      "midi": 73,
      "hit": false,
      "t": 85677.86899999986,
      "d": 116.525291666665,
      "v": 30
    },
    {
      "midi": 78,
      "hit": false,
      "t": 85677.86899999986,
      "d": 143.00831249999464,
      "v": 40
    },
    {
      "midi": 82,
      "hit": false,
      "t": 86440.57999999986,
      "d": 238.34718749999593,
      "v": 44
    },
    {
      "midi": 77,
      "hit": false,
      "t": 86440.57999999986,
      "d": 254.2369999999937,
      "v": 62
    },
    {
      "midi": 73,
      "hit": false,
      "t": 86440.57999999986,
      "d": 259.53360416665964,
      "v": 42
    },
    {
      "midi": 78,
      "hit": false,
      "t": 86440.57999999986,
      "d": 259.53360416665964,
      "v": 46
    },
    {
      "midi": 77,
      "hit": false,
      "t": 86821.93549999985,
      "d": 74.15245833333756,
      "v": 64
    },
    {
      "midi": 73,
      "hit": false,
      "t": 86821.93549999985,
      "d": 79.44906250000349,
      "v": 46
    },
    {
      "midi": 78,
      "hit": false,
      "t": 86821.93549999985,
      "d": 95.33887500000128,
      "v": 52
    },
    {
      "midi": 82,
      "hit": false,
      "t": 86821.93549999985,
      "d": 100.63547916666721,
      "v": 56
    },
    {
      "midi": 82,
      "hit": false,
      "t": 87966.00199999985,
      "d": 312.4996458333335,
      "v": 62
    },
    {
      "midi": 77,
      "hit": false,
      "t": 87966.00199999985,
      "d": 328.3894583333313,
      "v": 66
    },
    {
      "midi": 73,
      "hit": false,
      "t": 87966.00199999985,
      "d": 333.6860624999972,
      "v": 52
    },
    {
      "midi": 78,
      "hit": false,
      "t": 87966.00199999985,
      "d": 370.7622916666587,
      "v": 66
    },
    {
      "midi": 82,
      "hit": false,
      "t": 88474.47599999984,
      "d": 275.423416666672,
      "v": 60
    },
    {
      "midi": 73,
      "hit": false,
      "t": 88474.47599999984,
      "d": 280.7200208333379,
      "v": 37
    },
    {
      "midi": 77,
      "hit": false,
      "t": 88474.47599999984,
      "d": 291.31322916666977,
      "v": 58
    },
    {
      "midi": 78,
      "hit": false,
      "t": 88474.47599999984,
      "d": 323.09285416666535,
      "v": 52
    },
    {
      "midi": 77,
      "hit": false,
      "t": 88855.83149999984,
      "d": 79.44906250000349,
      "v": 72
    },
    {
      "midi": 73,
      "hit": false,
      "t": 88855.83149999984,
      "d": 84.74566666666942,
      "v": 52
    },
    {
      "midi": 78,
      "hit": false,
      "t": 88855.83149999984,
      "d": 84.74566666666942,
      "v": 46
    },
    {
      "midi": 82,
      "hit": false,
      "t": 88855.83149999984,
      "d": 90.04227083333535,
      "v": 62
    },
    {
      "midi": 77,
      "hit": false,
      "t": 89745.66099999985,
      "d": 63.559250000005704,
      "v": 38
    },
    {
      "midi": 73,
      "hit": false,
      "t": 89745.66099999985,
      "d": 90.04227083333535,
      "v": 48
    },
    {
      "midi": 78,
      "hit": false,
      "t": 89745.66099999985,
      "d": 90.04227083333535,
      "v": 35
    },
    {
      "midi": 82,
      "hit": false,
      "t": 89745.66099999985,
      "d": 111.22868749999907,
      "v": 62
    },
    {
      "midi": 77,
      "hit": false,
      "t": 90508.37199999984,
      "d": 259.53360416665964,
      "v": 64
    },
    {
      "midi": 82,
      "hit": false,
      "t": 90508.37199999984,
      "d": 275.42341666665743,
      "v": 42
    },
    {
      "midi": 73,
      "hit": false,
      "t": 90508.37199999984,
      "d": 286.0166249999893,
      "v": 37
    },
    {
      "midi": 78,
      "hit": false,
      "t": 90508.37199999984,
      "d": 286.0166249999893,
      "v": 48
    },
    {
      "midi": 73,
      "hit": false,
      "t": 90889.72749999983,
      "d": 95.33887500000128,
      "v": 56
    },
    {
      "midi": 82,
      "hit": false,
      "t": 90889.72749999983,
      "d": 100.63547916666721,
      "v": 50
    },
    {
      "midi": 77,
      "hit": false,
      "t": 90889.72749999983,
      "d": 111.22868749999907,
      "v": 64
    },
    {
      "midi": 78,
      "hit": false,
      "t": 90889.72749999983,
      "d": 121.82189583333093,
      "v": 42
    },
    {
      "midi": 82,
      "hit": false,
      "t": 92033.79399999983,
      "d": 323.09285416666535,
      "v": 56
    },
    {
      "midi": 73,
      "hit": false,
      "t": 92033.79399999983,
      "d": 365.4656874999928,
      "v": 42
    },
    {
      "midi": 77,
      "hit": false,
      "t": 92033.79399999983,
      "d": 365.4656874999928,
      "v": 64
    },
    {
      "midi": 78,
      "hit": false,
      "t": 92033.79399999983,
      "d": 381.35549999999057,
      "v": 62
    },
    {
      "midi": 73,
      "hit": false,
      "t": 92542.26799999982,
      "d": 222.45737499999814,
      "v": 39
    },
    {
      "midi": 82,
      "hit": false,
      "t": 92542.26799999982,
      "d": 248.94039583332778,
      "v": 66
    },
    {
      "midi": 77,
      "hit": false,
      "t": 92542.26799999982,
      "d": 270.1268124999915,
      "v": 66
    },
    {
      "midi": 78,
      "hit": false,
      "t": 92542.26799999982,
      "d": 296.60983333332115,
      "v": 34
    },
    {
      "midi": 73,
      "hit": false,
      "t": 92923.62349999981,
      "d": 84.74566666666942,
      "v": 48
    },
    {
      "midi": 77,
      "hit": false,
      "t": 92923.62349999981,
      "d": 95.33887500000128,
      "v": 66
    },
    {
      "midi": 82,
      "hit": false,
      "t": 92923.62349999981,
      "d": 111.22868749999907,
      "v": 66
    },
    {
      "midi": 78,
      "hit": false,
      "t": 92923.62349999981,
      "d": 116.525291666665,
      "v": 56
    },
    {
      "midi": 78,
      "hit": false,
      "t": 93813.4529999998,
      "d": 153.6015208333265,
      "v": 46
    },
    {
      "midi": 82,
      "hit": false,
      "t": 93813.4529999998,
      "d": 153.6015208333265,
      "v": 64
    },
    {
      "midi": 73,
      "hit": false,
      "t": 93813.4529999998,
      "d": 169.4913333333243,
      "v": 39
    },
    {
      "midi": 82,
      "hit": false,
      "t": 94576.1639999998,
      "d": 222.45737499999814,
      "v": 52
    },
    {
      "midi": 73,
      "hit": false,
      "t": 94576.1639999998,
      "d": 270.1268124999915,
      "v": 42
    },
    {
      "midi": 77,
      "hit": false,
      "t": 94576.1639999998,
      "d": 270.1268124999915,
      "v": 56
    },
    {
      "midi": 78,
      "hit": false,
      "t": 94576.1639999998,
      "d": 280.72002083332336,
      "v": 42
    },
    {
      "midi": 82,
      "hit": false,
      "t": 94957.51949999979,
      "d": 111.22868749999907,
      "v": 54
    },
    {
      "midi": 73,
      "hit": false,
      "t": 94957.51949999979,
      "d": 116.525291666665,
      "v": 44
    },
    {
      "midi": 77,
      "hit": false,
      "t": 94957.51949999979,
      "d": 121.82189583333093,
      "v": 56
    },
    {
      "midi": 78,
      "hit": false,
      "t": 94957.51949999979,
      "d": 121.82189583333093,
      "v": 32
    },
    {
      "midi": 82,
      "hit": false,
      "t": 96101.58599999979,
      "d": 344.27927083332906,
      "v": 58
    },
    {
      "midi": 73,
      "hit": false,
      "t": 96101.58599999979,
      "d": 376.05889583332464,
      "v": 52
    },
    {
      "midi": 77,
      "hit": false,
      "t": 96101.58599999979,
      "d": 376.05889583332464,
      "v": 68
    },
    {
      "midi": 78,
      "hit": false,
      "t": 96101.58599999979,
      "d": 386.6521041666565,
      "v": 50
    },
    {
      "midi": 82,
      "hit": false,
      "t": 96610.05999999978,
      "d": 201.27095833333442,
      "v": 48
    },
    {
      "midi": 77,
      "hit": false,
      "t": 96610.05999999978,
      "d": 275.423416666672,
      "v": 62
    },
    {
      "midi": 78,
      "hit": false,
      "t": 96610.05999999978,
      "d": 286.01662500000384,
      "v": 36
    },
    {
      "midi": 73,
      "hit": false,
      "t": 96610.05999999978,
      "d": 291.31322916666977,
      "v": 42
    },
    {
      "midi": 77,
      "hit": false,
      "t": 96991.41549999978,
      "d": 84.74566666666942,
      "v": 56
    },
    {
      "midi": 73,
      "hit": false,
      "t": 96991.41549999978,
      "d": 95.33887500000128,
      "v": 50
    },
    {
      "midi": 82,
      "hit": false,
      "t": 96991.41549999978,
      "d": 100.63547916666721,
      "v": 62
    },
    {
      "midi": 78,
      "hit": false,
      "t": 96991.41549999978,
      "d": 105.93208333333314,
      "v": 56
    },
    {
      "midi": 82,
      "hit": false,
      "t": 98643.95599999979,
      "d": 227.75397916666407,
      "v": 54
    },
    {
      "midi": 73,
      "hit": false,
      "t": 98643.95599999979,
      "d": 248.94039583332778,
      "v": 40
    },
    {
      "midi": 77,
      "hit": false,
      "t": 98643.95599999979,
      "d": 248.94039583332778,
      "v": 52
    },
    {
      "midi": 78,
      "hit": false,
      "t": 98643.95599999979,
      "d": 301.90643750000163,
      "v": 52
    },
    {
      "midi": 73,
      "hit": false,
      "t": 99025.31149999979,
      "d": 84.74566666666942,
      "v": 54
    },
    {
      "midi": 77,
      "hit": false,
      "t": 99025.31149999979,
      "d": 95.33887500000128,
      "v": 64
    },
    {
      "midi": 78,
      "hit": false,
      "t": 99025.31149999979,
      "d": 95.33887500000128,
      "v": 46
    },
    {
      "midi": 82,
      "hit": false,
      "t": 99025.31149999979,
      "d": 105.93208333333314,
      "v": 56
    },
    {
      "midi": 77,
      "hit": false,
      "t": 100169.3779999998,
      "d": 354.8724791666609,
      "v": 56
    },
    {
      "midi": 78,
      "hit": false,
      "t": 100169.3779999998,
      "d": 360.16908333332685,
      "v": 60
    },
    {
      "midi": 82,
      "hit": false,
      "t": 100169.3779999998,
      "d": 365.4656874999928,
      "v": 52
    },
    {
      "midi": 73,
      "hit": false,
      "t": 100169.3779999998,
      "d": 381.35549999999057,
      "v": 31
    },
    {
      "midi": 77,
      "hit": false,
      "t": 100677.85199999978,
      "d": 270.12681250000605,
      "v": 66
    },
    {
      "midi": 78,
      "hit": false,
      "t": 100677.85199999978,
      "d": 270.12681250000605,
      "v": 40
    },
    {
      "midi": 82,
      "hit": false,
      "t": 100677.85199999978,
      "d": 275.423416666672,
      "v": 58
    },
    {
      "midi": 73,
      "hit": false,
      "t": 100677.85199999978,
      "d": 280.7200208333379,
      "v": 46
    },
    {
      "midi": 77,
      "hit": false,
      "t": 101059.20749999979,
      "d": 68.85585416667163,
      "v": 56
    },
    {
      "midi": 73,
      "hit": false,
      "t": 101059.20749999979,
      "d": 79.44906250000349,
      "v": 42
    },
    {
      "midi": 78,
      "hit": false,
      "t": 101059.20749999979,
      "d": 79.44906250000349,
      "v": 30
    },
    {
      "midi": 82,
      "hit": false,
      "t": 101059.20749999979,
      "d": 95.33887500000128,
      "v": 60
    },
    {
      "midi": 77,
      "hit": false,
      "t": 101949.0369999998,
      "d": 105.93208333333314,
      "v": 66
    },
    {
      "midi": 82,
      "hit": false,
      "t": 101949.0369999998,
      "d": 111.22868749999907,
      "v": 27
    },
    {
      "midi": 78,
      "hit": false,
      "t": 101949.0369999998,
      "d": 153.6015208333265,
      "v": 54
    },
    {
      "midi": 73,
      "hit": false,
      "t": 101949.0369999998,
      "d": 158.89812499999243,
      "v": 40
    },
    {
      "midi": 82,
      "hit": false,
      "t": 102711.74799999979,
      "d": 264.8302083333401,
      "v": 54
    },
    {
      "midi": 73,
      "hit": false,
      "t": 102711.74799999979,
      "d": 291.31322916666977,
      "v": 42
    },
    {
      "midi": 77,
      "hit": false,
      "t": 102711.74799999979,
      "d": 291.31322916666977,
      "v": 62
    },
    {
      "midi": 78,
      "hit": false,
      "t": 102711.74799999979,
      "d": 328.3894583333313,
      "v": 58
    },
    {
      "midi": 77,
      "hit": false,
      "t": 103093.1034999998,
      "d": 37.076229166661506,
      "v": 39
    },
    {
      "midi": 78,
      "hit": false,
      "t": 103093.1034999998,
      "d": 74.15245833332301,
      "v": 40
    },
    {
      "midi": 73,
      "hit": false,
      "t": 103093.1034999998,
      "d": 84.74566666665487,
      "v": 44
    },
    {
      "midi": 82,
      "hit": false,
      "t": 103093.1034999998,
      "d": 100.63547916665266,
      "v": 56
    },
    {
      "midi": 77,
      "hit": false,
      "t": 104237.16999999978,
      "d": 153.6015208333265,
      "v": 62
    },
    {
      "midi": 82,
      "hit": false,
      "t": 104237.16999999978,
      "d": 164.19472916665836,
      "v": 52
    },
    {
      "midi": 78,
      "hit": false,
      "t": 104237.16999999978,
      "d": 169.4913333333243,
      "v": 48
    },
    {
      "midi": 73,
      "hit": false,
      "t": 104237.16999999978,
      "d": 206.5675624999858,
      "v": 50
    },
    {
      "midi": 61,
      "hit": false,
      "t": 104745.64399999977,
      "d": 1615.4642708333267,
      "v": 35
    },
    {
      "midi": 63,
      "hit": false,
      "t": 104745.64399999977,
      "d": 1626.0574791666586,
      "v": 52
    },
    {
      "midi": 59,
      "hit": false,
      "t": 104745.64399999977,
      "d": 1636.6506874999905,
      "v": 62
    },
    {
      "midi": 66,
      "hit": false,
      "t": 104745.64399999977,
      "d": 1684.3201249999838,
      "v": 66
    },
    {
      "midi": 54,
      "hit": false,
      "t": 104745.64399999977,
      "d": 1991.5231666666514,
      "v": 54
    },
    {
      "midi": 47,
      "hit": false,
      "t": 106779.53999999975,
      "d": 1663.1337083333347,
      "v": 18
    },
    {
      "midi": 61,
      "hit": false,
      "t": 106779.53999999975,
      "d": 1869.701270833335,
      "v": 29
    },
    {
      "midi": 63,
      "hit": false,
      "t": 106779.53999999975,
      "d": 1874.997875000001,
      "v": 60
    },
    {
      "midi": 58,
      "hit": false,
      "t": 106779.53999999975,
      "d": 1938.5571250000066,
      "v": 54
    },
    {
      "midi": 70,
      "hit": false,
      "t": 106779.53999999975,
      "d": 2123.9382708333433,
      "v": 62
    },
    {
      "midi": 66,
      "hit": false,
      "t": 106779.53999999975,
      "d": 2161.014500000005,
      "v": 66
    },
    {
      "midi": 65,
      "hit": false,
      "t": 108813.43599999975,
      "d": 1530.7186041666573,
      "v": 64
    },
    {
      "midi": 61,
      "hit": false,
      "t": 108813.43599999975,
      "d": 1546.608416666655,
      "v": 28
    },
    {
      "midi": 68,
      "hit": false,
      "t": 108813.43599999975,
      "d": 1716.099749999994,
      "v": 64
    },
    {
      "midi": 56,
      "hit": false,
      "t": 108813.43599999975,
      "d": 1753.1759791666555,
      "v": 36
    },
    {
      "midi": 63,
      "hit": false,
      "t": 110847.33199999975,
      "d": 254.2369999999937,
      "v": 56
    },
    {
      "midi": 66,
      "hit": false,
      "t": 110847.33199999975,
      "d": 291.3132291666552,
      "v": 54
    },
    {
      "midi": 59,
      "hit": false,
      "t": 110847.33199999975,
      "d": 439.61814583333035,
      "v": 62
    },
    {
      "midi": 61,
      "hit": false,
      "t": 111228.68749999974,
      "d": 95.33887500000128,
      "v": 80
    },
    {
      "midi": 65,
      "hit": false,
      "t": 111228.68749999974,
      "d": 100.63547916666721,
      "v": 68
    },
    {
      "midi": 56,
      "hit": false,
      "t": 111610.04299999974,
      "d": 1038.1344166666677,
      "v": 54
    },
    {
      "midi": 63,
      "hit": false,
      "t": 111610.04299999974,
      "d": 1054.0242291666655,
      "v": 58
    },
    {
      "midi": 54,
      "hit": false,
      "t": 111610.04299999974,
      "d": 1080.507249999995,
      "v": 44
    },
    {
      "midi": 59,
      "hit": false,
      "t": 111610.04299999974,
      "d": 1096.397062499993,
      "v": 60
    },
    {
      "midi": 59,
      "hit": false,
      "t": 112881.22799999974,
      "d": 1753.17597916667,
      "v": 52
    },
    {
      "midi": 63,
      "hit": false,
      "t": 112881.22799999974,
      "d": 1859.1080625000031,
      "v": 42
    },
    {
      "midi": 66,
      "hit": false,
      "t": 112881.22799999974,
      "d": 1874.997875000001,
      "v": 50
    },
    {
      "midi": 66,
      "hit": false,
      "t": 114915.12399999975,
      "d": 1615.4642708333267,
      "v": 54
    },
    {
      "midi": 61,
      "hit": false,
      "t": 114915.12399999975,
      "d": 1779.6589999999997,
      "v": 68
    },
    {
      "midi": 70,
      "hit": false,
      "t": 114915.12399999975,
      "d": 2044.4892083333252,
      "v": 64
    },
    {
      "midi": 65,
      "hit": false,
      "t": 116949.01999999974,
      "d": 1652.5405000000028,
      "v": 68
    },
    {
      "midi": 61,
      "hit": false,
      "t": 116949.01999999974,
      "d": 1721.3963541666744,
      "v": 54
    },
    {
      "midi": 58,
      "hit": false,
      "t": 116949.01999999974,
      "d": 1737.2861666666722,
      "v": 54
    },
    {
      "midi": 56,
      "hit": false,
      "t": 116949.01999999974,
      "d": 1811.4386250000098,
      "v": 54
    },
    {
      "midi": 68,
      "hit": false,
      "t": 116949.01999999974,
      "d": 1954.4469375000044,
      "v": 60
    },
    {
      "midi": 61,
      "hit": false,
      "t": 118982.91599999975,
      "d": 270.12681250000605,
      "v": 72
    },
    {
      "midi": 63,
      "hit": false,
      "t": 118982.91599999975,
      "d": 391.948708333337,
      "v": 68
    },
    {
      "midi": 66,
      "hit": false,
      "t": 118982.91599999975,
      "d": 407.83852083333477,
      "v": 66
    },
    {
      "midi": 61,
      "hit": false,
      "t": 119364.27149999976,
      "d": 211.86416666666628,
      "v": 60
    },
    {
      "midi": 65,
      "hit": false,
      "t": 119364.27149999976,
      "d": 344.27927083332906,
      "v": 66
    },
    {
      "midi": 59,
      "hit": false,
      "t": 119745.62699999975,
      "d": 1234.1087708333362,
      "v": 66
    },
    {
      "midi": 63,
      "hit": false,
      "t": 119745.62699999975,
      "d": 1313.557833333325,
      "v": 68
    },
    {
      "midi": 56,
      "hit": false,
      "t": 121016.81199999974,
      "d": 1620.7608749999927,
      "v": 52
    },
    {
      "midi": 49,
      "hit": false,
      "t": 121016.81199999974,
      "d": 1668.430312499986,
      "v": 33
    },
    {
      "midi": 61,
      "hit": false,
      "t": 121016.81199999974,
      "d": 1679.023520833318,
      "v": 58
    },
    {
      "midi": 77,
      "hit": false,
      "t": 123050.70799999972,
      "d": 275.423416666672,
      "v": 72
    },
    {
      "midi": 73,
      "hit": false,
      "t": 123050.70799999972,
      "d": 280.7200208333379,
      "v": 54
    },
    {
      "midi": 82,
      "hit": false,
      "t": 123050.70799999972,
      "d": 280.7200208333379,
      "v": 64
    },
    {
      "midi": 78,
      "hit": false,
      "t": 123050.70799999972,
      "d": 286.01662500000384,
      "v": 46
    },
    {
      "midi": 77,
      "hit": false,
      "t": 123432.06349999973,
      "d": 37.076229166661506,
      "v": 38
    },
    {
      "midi": 73,
      "hit": false,
      "t": 123432.06349999973,
      "d": 63.55924999999115,
      "v": 54
    },
    {
      "midi": 82,
      "hit": false,
      "t": 123432.06349999973,
      "d": 68.85585416665708,
      "v": 56
    },
    {
      "midi": 78,
      "hit": false,
      "t": 123432.06349999973,
      "d": 74.15245833332301,
      "v": 42
    },
    {
      "midi": 73,
      "hit": false,
      "t": 125084.60399999972,
      "d": 233.05058333333,
      "v": 50
    },
    {
      "midi": 82,
      "hit": false,
      "t": 125084.60399999972,
      "d": 233.05058333333,
      "v": 60
    },
    {
      "midi": 77,
      "hit": false,
      "t": 125084.60399999972,
      "d": 243.64379166666185,
      "v": 62
    },
    {
      "midi": 78,
      "hit": false,
      "t": 125084.60399999972,
      "d": 254.2369999999937,
      "v": 58
    },
    {
      "midi": 77,
      "hit": false,
      "t": 125465.9594999997,
      "d": 68.85585416667163,
      "v": 60
    },
    {
      "midi": 73,
      "hit": false,
      "t": 125465.9594999997,
      "d": 79.44906250000349,
      "v": 44
    },
    {
      "midi": 82,
      "hit": false,
      "t": 125465.9594999997,
      "d": 84.74566666666942,
      "v": 56
    },
    {
      "midi": 78,
      "hit": false,
      "t": 125465.9594999997,
      "d": 90.04227083333535,
      "v": 52
    },
    {
      "midi": 82,
      "hit": false,
      "t": 126610.0259999997,
      "d": 275.423416666672,
      "v": 60
    },
    {
      "midi": 73,
      "hit": false,
      "t": 126610.0259999997,
      "d": 280.7200208333379,
      "v": 62
    },
    {
      "midi": 77,
      "hit": false,
      "t": 126610.0259999997,
      "d": 286.01662500000384,
      "v": 72
    },
    {
      "midi": 78,
      "hit": false,
      "t": 126610.0259999997,
      "d": 286.01662500000384,
      "v": 29
    },
    {
      "midi": 73,
      "hit": false,
      "t": 127118.49999999971,
      "d": 291.31322916666977,
      "v": 56
    },
    {
      "midi": 82,
      "hit": false,
      "t": 127118.49999999971,
      "d": 296.6098333333357,
      "v": 52
    },
    {
      "midi": 77,
      "hit": false,
      "t": 127118.49999999971,
      "d": 312.4996458333335,
      "v": 58
    },
    {
      "midi": 78,
      "hit": false,
      "t": 127118.49999999971,
      "d": 317.7962499999994,
      "v": 40
    },
    {
      "midi": 78,
      "hit": false,
      "t": 127499.85549999971,
      "d": 47.669437499993364,
      "v": 25
    },
    {
      "midi": 73,
      "hit": false,
      "t": 127499.85549999971,
      "d": 58.26264583332522,
      "v": 52
    },
    {
      "midi": 82,
      "hit": false,
      "t": 127499.85549999971,
      "d": 63.55924999999115,
      "v": 54
    },
    {
      "midi": 77,
      "hit": false,
      "t": 127499.85549999971,
      "d": 68.85585416665708,
      "v": 62
    },
    {
      "midi": 73,
      "hit": false,
      "t": 128389.6849999997,
      "d": 100.63547916666721,
      "v": 50
    },
    {
      "midi": 77,
      "hit": false,
      "t": 128389.6849999997,
      "d": 105.93208333333314,
      "v": 64
    },
    {
      "midi": 82,
      "hit": false,
      "t": 128389.6849999997,
      "d": 111.22868749999907,
      "v": 54
    },
    {
      "midi": 78,
      "hit": false,
      "t": 128389.6849999997,
      "d": 127.11849999999686,
      "v": 56
    },
    {
      "midi": 73,
      "hit": false,
      "t": 129152.3959999997,
      "d": 243.64379166666185,
      "v": 34
    },
    {
      "midi": 82,
      "hit": false,
      "t": 129152.3959999997,
      "d": 248.94039583332778,
      "v": 52
    },
    {
      "midi": 77,
      "hit": false,
      "t": 129152.3959999997,
      "d": 270.1268124999915,
      "v": 62
    },
    {
      "midi": 78,
      "hit": false,
      "t": 129152.3959999997,
      "d": 275.42341666665743,
      "v": 56
    },
    {
      "midi": 78,
      "hit": false,
      "t": 129533.7514999997,
      "d": 84.74566666666942,
      "v": 31
    },
    {
      "midi": 73,
      "hit": false,
      "t": 129533.7514999997,
      "d": 90.04227083333535,
      "v": 56
    },
    {
      "midi": 77,
      "hit": false,
      "t": 129533.7514999997,
      "d": 95.33887500000128,
      "v": 64
    },
    {
      "midi": 82,
      "hit": false,
      "t": 129533.7514999997,
      "d": 116.525291666665,
      "v": 66
    },
    {
      "midi": 77,
      "hit": false,
      "t": 130677.8179999997,
      "d": 275.423416666672,
      "v": 60
    },
    {
      "midi": 78,
      "hit": false,
      "t": 130677.8179999997,
      "d": 275.423416666672,
      "v": 48
    },
    {
      "midi": 82,
      "hit": false,
      "t": 130677.8179999997,
      "d": 286.01662500000384,
      "v": 56
    },
    {
      "midi": 73,
      "hit": false,
      "t": 130677.8179999997,
      "d": 291.31322916666977,
      "v": 50
    },
    {
      "midi": 75,
      "hit": false,
      "t": 131186.2919999997,
      "d": 1551.9050208333356,
      "v": 46
    },
    {
      "midi": 70,
      "hit": false,
      "t": 131186.2919999997,
      "d": 1721.3963541666744,
      "v": 46
    },
    {
      "midi": 78,
      "hit": false,
      "t": 131186.2919999997,
      "d": 1880.2944791666814,
      "v": 50
    },
    {
      "midi": 66,
      "hit": false,
      "t": 131186.2919999997,
      "d": 1991.5231666666805,
      "v": 42
    },
    {
      "midi": 59,
      "hit": false,
      "t": 131186.2919999997,
      "d": 2055.0824166666716,
      "v": 39
    },
    {
      "midi": 73,
      "hit": false,
      "t": 132965.9509999997,
      "d": 100.63547916666721,
      "v": 13
    },
    {
      "midi": 68,
      "hit": false,
      "t": 133220.1879999997,
      "d": 932.20233333332,
      "v": 36
    },
    {
      "midi": 77,
      "hit": false,
      "t": 133220.1879999997,
      "d": 1054.024229166651,
      "v": 60
    },
    {
      "midi": 73,
      "hit": false,
      "t": 133220.1879999997,
      "d": 1080.507249999995,
      "v": 48
    },
    {
      "midi": 58,
      "hit": false,
      "t": 133220.1879999997,
      "d": 1811.4386249999807,
      "v": 37
    },
    {
      "midi": 85,
      "hit": false,
      "t": 134491.3729999997,
      "d": 852.7532708333165,
      "v": 56
    },
    {
      "midi": 68,
      "hit": false,
      "t": 134745.6099999997,
      "d": 174.78793749999022,
      "v": 17
    },
    {
      "midi": 73,
      "hit": false,
      "t": 134999.8469999997,
      "d": 2272.2431874999893,
      "v": 35
    },
    {
      "midi": 56,
      "hit": false,
      "t": 135254.08399999968,
      "d": 1885.5910833333328,
      "v": 38
    },
    {
      "midi": 78,
      "hit": false,
      "t": 135254.08399999968,
      "d": 1970.3367499999877,
      "v": 44
    },
    {
      "midi": 75,
      "hit": false,
      "t": 137287.9799999997,
      "d": 471.3977708333405,
      "v": 42
    },
    {
      "midi": 61,
      "hit": false,
      "t": 137287.9799999997,
      "d": 709.744958333351,
      "v": 46
    },
    {
      "midi": 71,
      "hit": false,
      "t": 137287.9799999997,
      "d": 1657.8371041666833,
      "v": 14
    },
    {
      "midi": 73,
      "hit": false,
      "t": 137796.4539999997,
      "d": 508.4739999999874,
      "v": 40
    },
    {
      "midi": 77,
      "hit": false,
      "t": 137796.4539999997,
      "d": 524.3638124999998,
      "v": 54
    },
    {
      "midi": 75,
      "hit": false,
      "t": 138304.9279999997,
      "d": 540.2536250000121,
      "v": 60
    },
    {
      "midi": 78,
      "hit": false,
      "t": 138304.9279999997,
      "d": 540.2536250000121,
      "v": 38
    },
    {
      "midi": 77,
      "hit": false,
      "t": 138813.4019999997,
      "d": 513.7706041666679,
      "v": 58
    },
    {
      "midi": 73,
      "hit": false,
      "t": 138813.4019999997,
      "d": 529.6604166666802,
      "v": 54
    },
    {
      "midi": 70,
      "hit": false,
      "t": 139321.8759999997,
      "d": 1912.074104166706,
      "v": 36
    },
    {
      "midi": 75,
      "hit": false,
      "t": 139321.8759999997,
      "d": 2086.8620416666963,
      "v": 50
    },
    {
      "midi": 66,
      "hit": false,
      "t": 139321.8759999997,
      "d": 3215.0387291666993,
      "v": 38
    },
    {
      "midi": 78,
      "hit": false,
      "t": 140593.06099999973,
      "d": 794.4906250000058,
      "v": 58
    },
    {
      "midi": 73,
      "hit": false,
      "t": 141355.77199999974,
      "d": 1128.176687500003,
      "v": 56
    },
    {
      "midi": 68,
      "hit": false,
      "t": 141355.77199999974,
      "d": 1170.5495208333305,
      "v": 32
    },
    {
      "midi": 58,
      "hit": false,
      "t": 141355.77199999974,
      "d": 1308.2612291666737,
      "v": 30
    },
    {
      "midi": 66,
      "hit": false,
      "t": 142881.19399999976,
      "d": 116.52529166667955,
      "v": 56
    },
    {
      "midi": 61,
      "hit": false,
      "t": 142881.19399999976,
      "d": 190.67775000000256,
      "v": 58
    },
    {
      "midi": 46,
      "hit": false,
      "t": 143135.43099999975,
      "d": 68.85585416667163,
      "v": 20
    },
    {
      "midi": 44,
      "hit": false,
      "t": 143389.66799999974,
      "d": 572.0332500000077,
      "v": 37
    },
    {
      "midi": 54,
      "hit": false,
      "t": 143389.66799999974,
      "d": 582.6264583333395,
      "v": 38
    },
    {
      "midi": 63,
      "hit": false,
      "t": 143389.66799999974,
      "d": 598.5162708333519,
      "v": 31
    },
    {
      "midi": 66,
      "hit": false,
      "t": 143389.66799999974,
      "d": 609.1094791666837,
      "v": 56
    },
    {
      "midi": 59,
      "hit": false,
      "t": 143389.66799999974,
      "d": 630.2958958333475,
      "v": 44
    },
    {
      "midi": 63,
      "hit": false,
      "t": 145423.56399999978,
      "d": 646.1857083333307,
      "v": 42
    },
    {
      "midi": 70,
      "hit": false,
      "t": 145423.56399999978,
      "d": 1488.3457708333153,
      "v": 28
    },
    {
      "midi": 77,
      "hit": false,
      "t": 147457.45999999976,
      "d": 286.0166249999893,
      "v": 64
    },
    {
      "midi": 78,
      "hit": false,
      "t": 147457.45999999976,
      "d": 286.0166249999893,
      "v": 48
    },
    {
      "midi": 82,
      "hit": false,
      "t": 147457.45999999976,
      "d": 286.0166249999893,
      "v": 54
    },
    {
      "midi": 73,
      "hit": false,
      "t": 147457.45999999976,
      "d": 291.31322916666977,
      "v": 40
    },
    {
      "midi": 73,
      "hit": false,
      "t": 147838.81549999976,
      "d": 52.966041666659294,
      "v": 44
    },
    {
      "midi": 82,
      "hit": false,
      "t": 147838.81549999976,
      "d": 68.85585416667163,
      "v": 56
    },
    {
      "midi": 77,
      "hit": false,
      "t": 147838.81549999976,
      "d": 74.15245833335212,
      "v": 60
    },
    {
      "midi": 78,
      "hit": false,
      "t": 147838.81549999976,
      "d": 74.15245833335212,
      "v": 56
    },
    {
      "midi": 73,
      "hit": false,
      "t": 149491.3559999998,
      "d": 243.64379166666185,
      "v": 52
    },
    {
      "midi": 82,
      "hit": false,
      "t": 149491.3559999998,
      "d": 243.64379166666185,
      "v": 58
    },
    {
      "midi": 77,
      "hit": false,
      "t": 149491.3559999998,
      "d": 248.94039583334234,
      "v": 58
    },
    {
      "midi": 78,
      "hit": false,
      "t": 149491.3559999998,
      "d": 264.8302083333547,
      "v": 38
    },
    {
      "midi": 77,
      "hit": false,
      "t": 149872.71149999983,
      "d": 84.74566666665487,
      "v": 56
    },
    {
      "midi": 82,
      "hit": false,
      "t": 149872.71149999983,
      "d": 90.04227083333535,
      "v": 50
    },
    {
      "midi": 73,
      "hit": false,
      "t": 149872.71149999983,
      "d": 95.33887500001583,
      "v": 42
    },
    {
      "midi": 78,
      "hit": false,
      "t": 149872.71149999983,
      "d": 116.52529166667955,
      "v": 23
    },
    {
      "midi": 77,
      "hit": false,
      "t": 151016.77799999985,
      "d": 354.8724791666609,
      "v": 56
    },
    {
      "midi": 82,
      "hit": false,
      "t": 151016.77799999985,
      "d": 365.4656874999928,
      "v": 60
    },
    {
      "midi": 73,
      "hit": false,
      "t": 151016.77799999985,
      "d": 370.76229166667326,
      "v": 48
    },
    {
      "midi": 78,
      "hit": false,
      "t": 151271.01499999984,
      "d": 164.19472916668747,
      "v": 4
    },
    {
      "midi": 73,
      "hit": false,
      "t": 151525.25199999986,
      "d": 254.2369999999937,
      "v": 31
    },
    {
      "midi": 82,
      "hit": false,
      "t": 151525.25199999986,
      "d": 264.8302083333256,
      "v": 54
    },
    {
      "midi": 77,
      "hit": false,
      "t": 151525.25199999986,
      "d": 275.42341666665743,
      "v": 54
    },
    {
      "midi": 78,
      "hit": false,
      "t": 151525.25199999986,
      "d": 275.42341666665743,
      "v": 46
    },
    {
      "midi": 77,
      "hit": false,
      "t": 151906.60749999987,
      "d": 79.44906250000349,
      "v": 44
    },
    {
      "midi": 73,
      "hit": false,
      "t": 151906.60749999987,
      "d": 90.04227083333535,
      "v": 48
    },
    {
      "midi": 78,
      "hit": false,
      "t": 151906.60749999987,
      "d": 105.93208333334769,
      "v": 37
    },
    {
      "midi": 82,
      "hit": false,
      "t": 151906.60749999987,
      "d": 111.22868750002817,
      "v": 56
    },
    {
      "midi": 82,
      "hit": false,
      "t": 152796.4369999999,
      "d": 105.93208333334769,
      "v": 50
    },
    {
      "midi": 77,
      "hit": false,
      "t": 152796.4369999999,
      "d": 111.22868750002817,
      "v": 54
    },
    {
      "midi": 73,
      "hit": false,
      "t": 152796.4369999999,
      "d": 116.52529166670865,
      "v": 30
    },
    {
      "midi": 78,
      "hit": false,
      "t": 152796.4369999999,
      "d": 143.00831250005285,
      "v": 40
    },
    {
      "midi": 82,
      "hit": false,
      "t": 153559.14799999993,
      "d": 238.34718750001048,
      "v": 44
    },
    {
      "midi": 77,
      "hit": false,
      "t": 153559.14799999993,
      "d": 254.23700000002282,
      "v": 62
    },
    {
      "midi": 73,
      "hit": false,
      "t": 153559.14799999993,
      "d": 259.5336041667033,
      "v": 42
    },
    {
      "midi": 78,
      "hit": false,
      "t": 153559.14799999993,
      "d": 259.5336041667033,
      "v": 46
    },
    {
      "midi": 77,
      "hit": false,
      "t": 153940.50349999996,
      "d": 74.15245833332301,
      "v": 64
    },
    {
      "midi": 73,
      "hit": false,
      "t": 153940.50349999996,
      "d": 79.44906250000349,
      "v": 46
    },
    {
      "midi": 78,
      "hit": false,
      "t": 153940.50349999996,
      "d": 95.33887500001583,
      "v": 52
    },
    {
      "midi": 82,
      "hit": false,
      "t": 153940.50349999996,
      "d": 100.63547916669631,
      "v": 56
    },
    {
      "midi": 82,
      "hit": false,
      "t": 155084.56999999998,
      "d": 312.4996458333335,
      "v": 62
    },
    {
      "midi": 77,
      "hit": false,
      "t": 155084.56999999998,
      "d": 328.38945833334583,
      "v": 66
    },
    {
      "midi": 73,
      "hit": false,
      "t": 155084.56999999998,
      "d": 333.6860625000263,
      "v": 52
    },
    {
      "midi": 78,
      "hit": false,
      "t": 155084.56999999998,
      "d": 370.76229166670237,
      "v": 66
    },
    {
      "midi": 82,
      "hit": false,
      "t": 155593.04400000002,
      "d": 275.42341666665743,
      "v": 60
    },
    {
      "midi": 73,
      "hit": false,
      "t": 155593.04400000002,
      "d": 280.7200208333379,
      "v": 37
    },
    {
      "midi": 77,
      "hit": false,
      "t": 155593.04400000002,
      "d": 291.31322916666977,
      "v": 58
    },
    {
      "midi": 78,
      "hit": false,
      "t": 155593.04400000002,
      "d": 323.09285416666535,
      "v": 52
    },
    {
      "midi": 77,
      "hit": false,
      "t": 155974.39950000003,
      "d": 79.44906250000349,
      "v": 72
    },
    {
      "midi": 73,
      "hit": false,
      "t": 155974.39950000003,
      "d": 84.74566666668397,
      "v": 52
    },
    {
      "midi": 78,
      "hit": false,
      "t": 155974.39950000003,
      "d": 84.74566666668397,
      "v": 46
    },
    {
      "midi": 82,
      "hit": false,
      "t": 155974.39950000003,
      "d": 90.04227083336446,
      "v": 62
    },
    {
      "midi": 77,
      "hit": false,
      "t": 156864.22900000005,
      "d": 63.55924999999115,
      "v": 38
    },
    {
      "midi": 73,
      "hit": false,
      "t": 156864.22900000005,
      "d": 90.04227083333535,
      "v": 48
    },
    {
      "midi": 78,
      "hit": false,
      "t": 156864.22900000005,
      "d": 90.04227083333535,
      "v": 35
    },
    {
      "midi": 82,
      "hit": false,
      "t": 156864.22900000005,
      "d": 111.22868749999907,
      "v": 62
    },
    {
      "midi": 77,
      "hit": false,
      "t": 157626.94000000006,
      "d": 259.5336041666742,
      "v": 64
    },
    {
      "midi": 82,
      "hit": false,
      "t": 157626.94000000006,
      "d": 275.42341666668653,
      "v": 42
    },
    {
      "midi": 73,
      "hit": false,
      "t": 157626.94000000006,
      "d": 286.0166250000184,
      "v": 37
    },
    {
      "midi": 78,
      "hit": false,
      "t": 157626.94000000006,
      "d": 286.0166250000184,
      "v": 48
    },
    {
      "midi": 73,
      "hit": false,
      "t": 158008.29550000007,
      "d": 95.33887499998673,
      "v": 56
    },
    {
      "midi": 82,
      "hit": false,
      "t": 158008.29550000007,
      "d": 100.63547916666721,
      "v": 50
    },
    {
      "midi": 77,
      "hit": false,
      "t": 158008.29550000007,
      "d": 111.22868749999907,
      "v": 64
    },
    {
      "midi": 78,
      "hit": false,
      "t": 158008.29550000007,
      "d": 121.82189583333093,
      "v": 42
    },
    {
      "midi": 82,
      "hit": false,
      "t": 159152.36200000005,
      "d": 323.09285416666535,
      "v": 56
    },
    {
      "midi": 73,
      "hit": false,
      "t": 159152.36200000005,
      "d": 365.4656874999928,
      "v": 42
    },
    {
      "midi": 77,
      "hit": false,
      "t": 159152.36200000005,
      "d": 365.4656874999928,
      "v": 64
    },
    {
      "midi": 78,
      "hit": false,
      "t": 159152.36200000005,
      "d": 381.3555000000051,
      "v": 62
    },
    {
      "midi": 73,
      "hit": false,
      "t": 159660.83600000007,
      "d": 222.45737499999814,
      "v": 39
    },
    {
      "midi": 82,
      "hit": false,
      "t": 159660.83600000007,
      "d": 248.94039583334234,
      "v": 66
    },
    {
      "midi": 77,
      "hit": false,
      "t": 159660.83600000007,
      "d": 270.12681250000605,
      "v": 66
    },
    {
      "midi": 78,
      "hit": false,
      "t": 159660.83600000007,
      "d": 296.60983333335025,
      "v": 34
    },
    {
      "midi": 73,
      "hit": false,
      "t": 160042.19150000007,
      "d": 84.74566666665487,
      "v": 48
    },
    {
      "midi": 77,
      "hit": false,
      "t": 160042.19150000007,
      "d": 95.33887499998673,
      "v": 66
    },
    {
      "midi": 82,
      "hit": false,
      "t": 160042.19150000007,
      "d": 111.22868749999907,
      "v": 66
    },
    {
      "midi": 78,
      "hit": false,
      "t": 160042.19150000007,
      "d": 116.52529166667955,
      "v": 56
    },
    {
      "midi": 78,
      "hit": false,
      "t": 160932.0210000001,
      "d": 153.6015208333265,
      "v": 46
    },
    {
      "midi": 82,
      "hit": false,
      "t": 160932.0210000001,
      "d": 153.6015208333265,
      "v": 64
    },
    {
      "midi": 73,
      "hit": false,
      "t": 160932.0210000001,
      "d": 169.49133333333884,
      "v": 39
    },
    {
      "midi": 82,
      "hit": false,
      "t": 161694.7320000001,
      "d": 222.45737499999814,
      "v": 52
    },
    {
      "midi": 73,
      "hit": false,
      "t": 161694.7320000001,
      "d": 270.12681250000605,
      "v": 42
    },
    {
      "midi": 77,
      "hit": false,
      "t": 161694.7320000001,
      "d": 270.12681250000605,
      "v": 56
    },
    {
      "midi": 78,
      "hit": false,
      "t": 161694.7320000001,
      "d": 280.7200208333379,
      "v": 42
    },
    {
      "midi": 82,
      "hit": false,
      "t": 162076.0875000001,
      "d": 111.22868749999907,
      "v": 54
    },
    {
      "midi": 73,
      "hit": false,
      "t": 162076.0875000001,
      "d": 116.52529166667955,
      "v": 44
    },
    {
      "midi": 77,
      "hit": false,
      "t": 162076.0875000001,
      "d": 121.82189583336003,
      "v": 56
    },
    {
      "midi": 78,
      "hit": false,
      "t": 162076.0875000001,
      "d": 121.82189583336003,
      "v": 32
    },
    {
      "midi": 82,
      "hit": false,
      "t": 163220.15400000013,
      "d": 344.27927083332906,
      "v": 58
    },
    {
      "midi": 73,
      "hit": false,
      "t": 163220.15400000013,
      "d": 376.05889583332464,
      "v": 52
    },
    {
      "midi": 77,
      "hit": false,
      "t": 163220.15400000013,
      "d": 376.05889583332464,
      "v": 68
    },
    {
      "midi": 78,
      "hit": false,
      "t": 163220.15400000013,
      "d": 386.6521041666565,
      "v": 50
    },
    {
      "midi": 82,
      "hit": false,
      "t": 163728.6280000001,
      "d": 201.27095833333442,
      "v": 48
    },
    {
      "midi": 77,
      "hit": false,
      "t": 163728.6280000001,
      "d": 275.42341666665743,
      "v": 62
    },
    {
      "midi": 78,
      "hit": false,
      "t": 163728.6280000001,
      "d": 286.0166249999893,
      "v": 36
    },
    {
      "midi": 73,
      "hit": false,
      "t": 163728.6280000001,
      "d": 291.31322916666977,
      "v": 42
    },
    {
      "midi": 77,
      "hit": false,
      "t": 164109.98350000012,
      "d": 84.74566666665487,
      "v": 56
    },
    {
      "midi": 73,
      "hit": false,
      "t": 164109.98350000012,
      "d": 95.33887499998673,
      "v": 50
    },
    {
      "midi": 82,
      "hit": false,
      "t": 164109.98350000012,
      "d": 100.63547916666721,
      "v": 62
    },
    {
      "midi": 78,
      "hit": false,
      "t": 164109.98350000012,
      "d": 105.93208333334769,
      "v": 56
    },
    {
      "midi": 82,
      "hit": false,
      "t": 165762.52400000012,
      "d": 227.75397916667862,
      "v": 54
    },
    {
      "midi": 73,
      "hit": false,
      "t": 165762.52400000012,
      "d": 248.94039583334234,
      "v": 40
    },
    {
      "midi": 77,
      "hit": false,
      "t": 165762.52400000012,
      "d": 248.94039583334234,
      "v": 52
    },
    {
      "midi": 78,
      "hit": false,
      "t": 165762.52400000012,
      "d": 301.90643750000163,
      "v": 52
    },
    {
      "midi": 73,
      "hit": false,
      "t": 166143.87950000013,
      "d": 84.74566666665487,
      "v": 54
    },
    {
      "midi": 77,
      "hit": false,
      "t": 166143.87950000013,
      "d": 95.33887499998673,
      "v": 64
    },
    {
      "midi": 78,
      "hit": false,
      "t": 166143.87950000013,
      "d": 95.33887499998673,
      "v": 46
    },
    {
      "midi": 82,
      "hit": false,
      "t": 166143.87950000013,
      "d": 105.93208333331859,
      "v": 56
    },
    {
      "midi": 77,
      "hit": false,
      "t": 167287.9460000001,
      "d": 354.8724791666609,
      "v": 56
    },
    {
      "midi": 78,
      "hit": false,
      "t": 167287.9460000001,
      "d": 360.1690833333414,
      "v": 60
    },
    {
      "midi": 82,
      "hit": false,
      "t": 167287.9460000001,
      "d": 365.4656875000219,
      "v": 52
    },
    {
      "midi": 73,
      "hit": false,
      "t": 167287.9460000001,
      "d": 381.3555000000342,
      "v": 31
    },
    {
      "midi": 77,
      "hit": false,
      "t": 167796.42000000016,
      "d": 270.12681250000605,
      "v": 66
    },
    {
      "midi": 78,
      "hit": false,
      "t": 167796.42000000016,
      "d": 270.12681250000605,
      "v": 40
    },
    {
      "midi": 82,
      "hit": false,
      "t": 167796.42000000016,
      "d": 275.42341666668653,
      "v": 58
    },
    {
      "midi": 73,
      "hit": false,
      "t": 167796.42000000016,
      "d": 280.720020833367,
      "v": 46
    },
    {
      "midi": 77,
      "hit": false,
      "t": 168177.7755000002,
      "d": 68.85585416667163,
      "v": 56
    },
    {
      "midi": 73,
      "hit": false,
      "t": 168177.7755000002,
      "d": 79.44906250000349,
      "v": 42
    },
    {
      "midi": 78,
      "hit": false,
      "t": 168177.7755000002,
      "d": 79.44906250000349,
      "v": 30
    },
    {
      "midi": 82,
      "hit": false,
      "t": 168177.7755000002,
      "d": 95.33887500001583,
      "v": 60
    },
    {
      "midi": 77,
      "hit": false,
      "t": 169067.6050000002,
      "d": 105.93208333334769,
      "v": 66
    },
    {
      "midi": 82,
      "hit": false,
      "t": 169067.6050000002,
      "d": 111.22868750002817,
      "v": 27
    },
    {
      "midi": 78,
      "hit": false,
      "t": 169067.6050000002,
      "d": 153.6015208333556,
      "v": 54
    },
    {
      "midi": 73,
      "hit": false,
      "t": 169067.6050000002,
      "d": 158.8981250000361,
      "v": 40
    },
    {
      "midi": 82,
      "hit": false,
      "t": 169830.31600000025,
      "d": 264.8302083333256,
      "v": 54
    },
    {
      "midi": 73,
      "hit": false,
      "t": 169830.31600000025,
      "d": 291.31322916666977,
      "v": 42
    },
    {
      "midi": 77,
      "hit": false,
      "t": 169830.31600000025,
      "d": 291.31322916666977,
      "v": 62
    },
    {
      "midi": 78,
      "hit": false,
      "t": 169830.31600000025,
      "d": 328.38945833334583,
      "v": 58
    },
    {
      "midi": 77,
      "hit": false,
      "t": 170211.67150000026,
      "d": 37.07622916667606,
      "v": 39
    },
    {
      "midi": 78,
      "hit": false,
      "t": 170211.67150000026,
      "d": 74.15245833335212,
      "v": 40
    },
    {
      "midi": 73,
      "hit": false,
      "t": 170211.67150000026,
      "d": 84.74566666668397,
      "v": 44
    },
    {
      "midi": 82,
      "hit": false,
      "t": 170211.67150000026,
      "d": 100.63547916669631,
      "v": 56
    },
    {
      "midi": 77,
      "hit": false,
      "t": 171355.73800000027,
      "d": 153.6015208333265,
      "v": 62
    },
    {
      "midi": 82,
      "hit": false,
      "t": 171355.73800000027,
      "d": 164.19472916665836,
      "v": 52
    },
    {
      "midi": 78,
      "hit": false,
      "t": 171355.73800000027,
      "d": 169.49133333333884,
      "v": 48
    },
    {
      "midi": 73,
      "hit": false,
      "t": 171355.73800000027,
      "d": 206.5675625000149,
      "v": 50
    },
    {
      "midi": 61,
      "hit": false,
      "t": 171864.2120000003,
      "d": 1615.4642708333267,
      "v": 35
    },
    {
      "midi": 63,
      "hit": false,
      "t": 171864.2120000003,
      "d": 1626.0574791666586,
      "v": 52
    },
    {
      "midi": 59,
      "hit": false,
      "t": 171864.2120000003,
      "d": 1636.6506874999905,
      "v": 62
    },
    {
      "midi": 66,
      "hit": false,
      "t": 171864.2120000003,
      "d": 1684.3201249999984,
      "v": 66
    },
    {
      "midi": 54,
      "hit": false,
      "t": 171864.2120000003,
      "d": 1991.5231666666514,
      "v": 54
    },
    {
      "midi": 47,
      "hit": false,
      "t": 173898.10800000027,
      "d": 1663.1337083333347,
      "v": 18
    },
    {
      "midi": 61,
      "hit": false,
      "t": 173898.10800000027,
      "d": 1869.7012708333205,
      "v": 29
    },
    {
      "midi": 63,
      "hit": false,
      "t": 173898.10800000027,
      "d": 1874.997875000001,
      "v": 60
    },
    {
      "midi": 58,
      "hit": false,
      "t": 173898.10800000027,
      "d": 1938.557124999992,
      "v": 54
    },
    {
      "midi": 70,
      "hit": false,
      "t": 173898.10800000027,
      "d": 2123.938270833314,
      "v": 62
    },
    {
      "midi": 66,
      "hit": false,
      "t": 173898.10800000027,
      "d": 2161.01449999999,
      "v": 66
    },
    {
      "midi": 65,
      "hit": false,
      "t": 175932.00400000025,
      "d": 1530.7186041666719,
      "v": 64
    },
    {
      "midi": 61,
      "hit": false,
      "t": 175932.00400000025,
      "d": 1546.6084166666842,
      "v": 28
    },
    {
      "midi": 68,
      "hit": false,
      "t": 175932.00400000025,
      "d": 1716.099750000023,
      "v": 64
    },
    {
      "midi": 56,
      "hit": false,
      "t": 175932.00400000025,
      "d": 1753.175979166699,
      "v": 36
    },
    {
      "midi": 63,
      "hit": false,
      "t": 177965.90000000029,
      "d": 254.2369999999937,
      "v": 56
    },
    {
      "midi": 54,
      "hit": false,
      "t": 177965.90000000029,
      "d": 275.42341666665743,
      "v": 42
    },
    {
      "midi": 66,
      "hit": false,
      "t": 177965.90000000029,
      "d": 291.31322916666977,
      "v": 54
    },
    {
      "midi": 59,
      "hit": false,
      "t": 177965.90000000029,
      "d": 439.6181458333449,
      "v": 62
    },
    {
      "midi": 56,
      "hit": false,
      "t": 178347.2555000003,
      "d": 15.88981250001234,
      "v": 20
    },
    {
      "midi": 54,
      "hit": false,
      "t": 178347.2555000003,
      "d": 63.559250000020256,
      "v": 42
    },
    {
      "midi": 61,
      "hit": false,
      "t": 178347.2555000003,
      "d": 95.33887500001583,
      "v": 80
    },
    {
      "midi": 65,
      "hit": false,
      "t": 178347.2555000003,
      "d": 100.63547916669631,
      "v": 68
    },
    {
      "midi": 56,
      "hit": false,
      "t": 178728.61100000032,
      "d": 1038.1344166666677,
      "v": 54
    },
    {
      "midi": 63,
      "hit": false,
      "t": 178728.61100000032,
      "d": 1054.02422916668,
      "v": 58
    },
    {
      "midi": 59,
      "hit": false,
      "t": 178728.61100000032,
      "d": 1096.3970625000075,
      "v": 60
    },
    {
      "midi": 59,
      "hit": false,
      "t": 179999.79600000032,
      "d": 1753.17597916667,
      "v": 52
    },
    {
      "midi": 63,
      "hit": false,
      "t": 179999.79600000032,
      "d": 1859.1080625000177,
      "v": 42
    },
    {
      "midi": 66,
      "hit": false,
      "t": 179999.79600000032,
      "d": 1874.99787500003,
      "v": 50
    },
    {
      "midi": 66,
      "hit": false,
      "t": 182033.69200000036,
      "d": 1615.4642708333267,
      "v": 54
    },
    {
      "midi": 58,
      "hit": false,
      "t": 182033.69200000036,
      "d": 1758.4725833333214,
      "v": 54
    },
    {
      "midi": 61,
      "hit": false,
      "t": 182033.69200000036,
      "d": 1779.658999999985,
      "v": 68
    },
    {
      "midi": 70,
      "hit": false,
      "t": 182033.69200000036,
      "d": 2044.4892083333107,
      "v": 64
    },
    {
      "midi": 65,
      "hit": false,
      "t": 184067.58800000034,
      "d": 1652.5405000000028,
      "v": 68
    },
    {
      "midi": 61,
      "hit": false,
      "t": 184067.58800000034,
      "d": 1721.3963541666744,
      "v": 54
    },
    {
      "midi": 58,
      "hit": false,
      "t": 184067.58800000034,
      "d": 1737.2861666666868,
      "v": 54
    },
    {
      "midi": 56,
      "hit": false,
      "t": 184067.58800000034,
      "d": 1811.4386250000098,
      "v": 54
    },
    {
      "midi": 68,
      "hit": false,
      "t": 184067.58800000034,
      "d": 1954.4469375000044,
      "v": 60
    },
    {
      "midi": 63,
      "hit": false,
      "t": 186101.48400000035,
      "d": 391.948708333337,
      "v": 68
    },
    {
      "midi": 66,
      "hit": false,
      "t": 186101.48400000035,
      "d": 407.8385208333493,
      "v": 66
    },
    {
      "midi": 65,
      "hit": false,
      "t": 186482.83950000035,
      "d": 344.27927083335817,
      "v": 66
    },
    {
      "midi": 59,
      "hit": false,
      "t": 186864.19500000039,
      "d": 1234.1087708333216,
      "v": 66
    },
    {
      "midi": 63,
      "hit": false,
      "t": 186864.19500000039,
      "d": 1313.557833333325,
      "v": 68
    },
    {
      "midi": 56,
      "hit": false,
      "t": 188135.38000000038,
      "d": 1620.7608750000072,
      "v": 52
    },
    {
      "midi": 61,
      "hit": false,
      "t": 188135.38000000038,
      "d": 1679.023520833347,
      "v": 58
    },
    {
      "midi": 54,
      "hit": false,
      "t": 190931.9870000004,
      "d": 1011.6513958333235,
      "v": 52
    },
    {
      "midi": 58,
      "hit": false,
      "t": 190931.9870000004,
      "d": 1011.6513958333235,
      "v": 48
    },
    {
      "midi": 61,
      "hit": false,
      "t": 190931.9870000004,
      "d": 1011.6513958333235,
      "v": 48
    },
    {
      "midi": 53,
      "hit": false,
      "t": 191948.9350000004,
      "d": 646.1857083333307,
      "v": 54
    },
    {
      "midi": 56,
      "hit": false,
      "t": 191948.9350000004,
      "d": 773.3042083333421,
      "v": 68
    },
    {
      "midi": 51,
      "hit": false,
      "t": 191948.9350000004,
      "d": 826.2702500000014,
      "v": 50
    },
    {
      "midi": 60,
      "hit": false,
      "t": 191948.9350000004,
      "d": 990.4649791666598,
      "v": 66
    },
    {
      "midi": 51,
      "hit": false,
      "t": 192965.8830000004,
      "d": 307.203041666653,
      "v": 44
    },
    {
      "midi": 53,
      "hit": false,
      "t": 192965.8830000004,
      "d": 333.6860624999972,
      "v": 54
    },
    {
      "midi": 49,
      "hit": false,
      "t": 192965.8830000004,
      "d": 376.05889583332464,
      "v": 38
    },
    {
      "midi": 56,
      "hit": false,
      "t": 192965.8830000004,
      "d": 386.6521041666565,
      "v": 58
    },
    {
      "midi": 61,
      "hit": false,
      "t": 193982.8310000004,
      "d": 497.8807916666847,
      "v": 72
    },
    {
      "midi": 58,
      "hit": false,
      "t": 193982.8310000004,
      "d": 529.6604166666802,
      "v": 66
    },
    {
      "midi": 51,
      "hit": false,
      "t": 193982.8310000004,
      "d": 561.4400416666758,
      "v": 42
    },
    {
      "midi": 54,
      "hit": false,
      "t": 193982.8310000004,
      "d": 566.7366458333563,
      "v": 46
    },
    {
      "midi": 58,
      "hit": false,
      "t": 194999.77900000045,
      "d": 963.9819583333447,
      "v": 39
    },
    {
      "midi": 54,
      "hit": false,
      "t": 194999.77900000045,
      "d": 1027.5412083333358,
      "v": 56
    },
    {
      "midi": 65,
      "hit": false,
      "t": 194999.77900000045,
      "d": 1043.4310208333482,
      "v": 56
    },
    {
      "midi": 61,
      "hit": false,
      "t": 194999.77900000045,
      "d": 1075.2106458333437,
      "v": 84
    },
    {
      "midi": 56,
      "hit": false,
      "t": 196016.72700000045,
      "d": 879.2362916666898,
      "v": 54
    },
    {
      "midi": 60,
      "hit": false,
      "t": 196016.72700000045,
      "d": 937.4989375000296,
      "v": 64
    },
    {
      "midi": 53,
      "hit": false,
      "t": 196016.72700000045,
      "d": 963.9819583333738,
      "v": 58
    },
    {
      "midi": 63,
      "hit": false,
      "t": 196016.72700000045,
      "d": 1038.1344166667259,
      "v": 58
    },
    {
      "midi": 56,
      "hit": false,
      "t": 197033.67500000048,
      "d": 593.2196666667296,
      "v": 56
    },
    {
      "midi": 60,
      "hit": false,
      "t": 197033.67500000048,
      "d": 1011.6513958334108,
      "v": 62
    },
    {
      "midi": 51,
      "hit": false,
      "t": 197160.79350000052,
      "d": 397.24531250001746,
      "v": 8
    },
    {
      "midi": 54,
      "hit": false,
      "t": 198050.62300000057,
      "d": 121.82189583333093,
      "v": 58
    },
    {
      "midi": 51,
      "hit": false,
      "t": 198050.62300000057,
      "d": 185.38114583332208,
      "v": 46
    },
    {
      "midi": 61,
      "hit": false,
      "t": 198050.62300000057,
      "d": 248.94039583334234,
      "v": 66
    },
    {
      "midi": 58,
      "hit": false,
      "t": 198050.62300000057,
      "d": 254.23700000002282,
      "v": 42
    },
    {
      "midi": 54,
      "hit": false,
      "t": 198304.8600000006,
      "d": 1080.507249999995,
      "v": 54
    },
    {
      "midi": 63,
      "hit": false,
      "t": 198304.8600000006,
      "d": 1626.0574791666586,
      "v": 52
    },
    {
      "midi": 59,
      "hit": false,
      "t": 198304.8600000006,
      "d": 1636.6506874999905,
      "v": 62
    },
    {
      "midi": 66,
      "hit": false,
      "t": 198304.8600000006,
      "d": 1684.3201249999984,
      "v": 66
    },
    {
      "midi": 61,
      "hit": false,
      "t": 200338.7560000006,
      "d": 1869.7012708333205,
      "v": 29
    },
    {
      "midi": 63,
      "hit": false,
      "t": 200338.7560000006,
      "d": 1874.997875000001,
      "v": 60
    },
    {
      "midi": 70,
      "hit": false,
      "t": 200338.7560000006,
      "d": 2123.9382708333433,
      "v": 62
    },
    {
      "midi": 66,
      "hit": false,
      "t": 200338.7560000006,
      "d": 2161.0145000000193,
      "v": 66
    },
    {
      "midi": 65,
      "hit": false,
      "t": 202372.6520000006,
      "d": 1530.7186041666719,
      "v": 64
    },
    {
      "midi": 61,
      "hit": false,
      "t": 202372.6520000006,
      "d": 1546.6084166666842,
      "v": 28
    },
    {
      "midi": 68,
      "hit": false,
      "t": 202372.6520000006,
      "d": 1716.099750000023,
      "v": 64
    },
    {
      "midi": 56,
      "hit": false,
      "t": 202372.6520000006,
      "d": 1753.175979166699,
      "v": 36
    },
    {
      "midi": 63,
      "hit": false,
      "t": 204406.54800000065,
      "d": 254.2369999999937,
      "v": 56
    },
    {
      "midi": 54,
      "hit": false,
      "t": 204406.54800000065,
      "d": 275.42341666665743,
      "v": 42
    },
    {
      "midi": 66,
      "hit": false,
      "t": 204406.54800000065,
      "d": 291.31322916666977,
      "v": 54
    },
    {
      "midi": 59,
      "hit": false,
      "t": 204406.54800000065,
      "d": 439.6181458333449,
      "v": 62
    },
    {
      "midi": 56,
      "hit": false,
      "t": 204787.90350000066,
      "d": 15.88981250001234,
      "v": 20
    },
    {
      "midi": 54,
      "hit": false,
      "t": 204787.90350000066,
      "d": 63.559250000020256,
      "v": 42
    },
    {
      "midi": 61,
      "hit": false,
      "t": 204787.90350000066,
      "d": 95.33887500001583,
      "v": 80
    },
    {
      "midi": 65,
      "hit": false,
      "t": 204787.90350000066,
      "d": 100.63547916669631,
      "v": 68
    },
    {
      "midi": 56,
      "hit": false,
      "t": 205169.2590000007,
      "d": 1038.1344166666677,
      "v": 54
    },
    {
      "midi": 63,
      "hit": false,
      "t": 205169.2590000007,
      "d": 1054.02422916668,
      "v": 58
    },
    {
      "midi": 54,
      "hit": false,
      "t": 205169.2590000007,
      "d": 1080.5072500000242,
      "v": 44
    },
    {
      "midi": 59,
      "hit": false,
      "t": 205169.2590000007,
      "d": 1096.3970625000366,
      "v": 60
    },
    {
      "midi": 54,
      "hit": false,
      "t": 206440.44400000072,
      "d": 1663.1337083333347,
      "v": 44
    },
    {
      "midi": 56,
      "hit": false,
      "t": 206440.44400000072,
      "d": 1689.6167291666789,
      "v": 48
    },
    {
      "midi": 59,
      "hit": false,
      "t": 206440.44400000072,
      "d": 1753.17597916667,
      "v": 52
    },
    {
      "midi": 63,
      "hit": false,
      "t": 206440.44400000072,
      "d": 1859.1080625000177,
      "v": 42
    },
    {
      "midi": 66,
      "hit": false,
      "t": 206440.44400000072,
      "d": 1874.99787500003,
      "v": 50
    },
    {
      "midi": 66,
      "hit": false,
      "t": 208474.34000000075,
      "d": 1615.4642708333267,
      "v": 54
    },
    {
      "midi": 58,
      "hit": false,
      "t": 208474.34000000075,
      "d": 1758.4725833333214,
      "v": 54
    },
    {
      "midi": 61,
      "hit": false,
      "t": 208474.34000000075,
      "d": 1779.658999999985,
      "v": 68
    },
    {
      "midi": 54,
      "hit": false,
      "t": 208474.34000000075,
      "d": 1965.0401458333072,
      "v": 37
    },
    {
      "midi": 70,
      "hit": false,
      "t": 208474.34000000075,
      "d": 2044.4892083333107,
      "v": 64
    },
    {
      "midi": 65,
      "hit": false,
      "t": 210508.23600000073,
      "d": 1652.5405000000028,
      "v": 68
    },
    {
      "midi": 61,
      "hit": false,
      "t": 210508.23600000073,
      "d": 1721.3963541666744,
      "v": 54
    },
    {
      "midi": 58,
      "hit": false,
      "t": 210508.23600000073,
      "d": 1737.2861666666868,
      "v": 54
    },
    {
      "midi": 56,
      "hit": false,
      "t": 210508.23600000073,
      "d": 1811.4386250000098,
      "v": 54
    },
    {
      "midi": 68,
      "hit": false,
      "t": 210508.23600000073,
      "d": 1954.4469375000044,
      "v": 60
    },
    {
      "midi": 63,
      "hit": false,
      "t": 212542.13200000074,
      "d": 391.948708333337,
      "v": 68
    },
    {
      "midi": 66,
      "hit": false,
      "t": 212542.13200000074,
      "d": 407.8385208333493,
      "v": 66
    },
    {
      "midi": 65,
      "hit": false,
      "t": 212923.48750000075,
      "d": 344.27927083335817,
      "v": 66
    },
    {
      "midi": 59,
      "hit": false,
      "t": 213304.84300000078,
      "d": 1234.1087708333216,
      "v": 66
    },
    {
      "midi": 63,
      "hit": false,
      "t": 213304.84300000078,
      "d": 1313.557833333325,
      "v": 68
    },
    {
      "midi": 56,
      "hit": false,
      "t": 214576.02800000078,
      "d": 1620.7608750000072,
      "v": 52
    },
    {
      "midi": 61,
      "hit": false,
      "t": 214576.02800000078,
      "d": 1679.023520833347,
      "v": 58
    },
    {
      "midi": 61,
      "hit": false,
      "t": 216609.92400000078,
      "d": 1615.4642708333267,
      "v": 35
    },
    {
      "midi": 63,
      "hit": false,
      "t": 216609.92400000078,
      "d": 1626.0574791666586,
      "v": 52
    },
    {
      "midi": 59,
      "hit": false,
      "t": 216609.92400000078,
      "d": 1636.6506874999905,
      "v": 62
    },
    {
      "midi": 66,
      "hit": false,
      "t": 216609.92400000078,
      "d": 1684.3201249999984,
      "v": 66
    },
    {
      "midi": 61,
      "hit": false,
      "t": 218643.8200000008,
      "d": 1869.7012708333205,
      "v": 29
    },
    {
      "midi": 63,
      "hit": false,
      "t": 218643.8200000008,
      "d": 1874.997875000001,
      "v": 60
    },
    {
      "midi": 70,
      "hit": false,
      "t": 218643.8200000008,
      "d": 2123.9382708333433,
      "v": 62
    },
    {
      "midi": 66,
      "hit": false,
      "t": 218643.8200000008,
      "d": 2161.0145000000193,
      "v": 66
    },
    {
      "midi": 65,
      "hit": false,
      "t": 220677.7160000008,
      "d": 1530.7186041666719,
      "v": 64
    },
    {
      "midi": 61,
      "hit": false,
      "t": 220677.7160000008,
      "d": 1546.6084166666842,
      "v": 28
    },
    {
      "midi": 68,
      "hit": false,
      "t": 220677.7160000008,
      "d": 1716.099750000023,
      "v": 64
    },
    {
      "midi": 56,
      "hit": false,
      "t": 220677.7160000008,
      "d": 1753.175979166699,
      "v": 36
    },
    {
      "midi": 63,
      "hit": false,
      "t": 222711.61200000084,
      "d": 254.2369999999937,
      "v": 56
    },
    {
      "midi": 54,
      "hit": false,
      "t": 222711.61200000084,
      "d": 275.42341666665743,
      "v": 42
    },
    {
      "midi": 66,
      "hit": false,
      "t": 222711.61200000084,
      "d": 291.31322916666977,
      "v": 54
    },
    {
      "midi": 59,
      "hit": false,
      "t": 222711.61200000084,
      "d": 439.6181458333449,
      "v": 62
    },
    {
      "midi": 56,
      "hit": false,
      "t": 223092.96750000084,
      "d": 15.88981250001234,
      "v": 20
    },
    {
      "midi": 54,
      "hit": false,
      "t": 223092.96750000084,
      "d": 63.559250000020256,
      "v": 42
    },
    {
      "midi": 61,
      "hit": false,
      "t": 223092.96750000084,
      "d": 95.33887500001583,
      "v": 80
    },
    {
      "midi": 65,
      "hit": false,
      "t": 223092.96750000084,
      "d": 100.63547916669631,
      "v": 68
    },
    {
      "midi": 56,
      "hit": false,
      "t": 223474.32300000088,
      "d": 1038.1344166666677,
      "v": 54
    },
    {
      "midi": 63,
      "hit": false,
      "t": 223474.32300000088,
      "d": 1054.02422916668,
      "v": 58
    },
    {
      "midi": 54,
      "hit": false,
      "t": 223474.32300000088,
      "d": 1080.5072500000242,
      "v": 44
    },
    {
      "midi": 59,
      "hit": false,
      "t": 223474.32300000088,
      "d": 1096.3970625000366,
      "v": 60
    },
    {
      "midi": 56,
      "hit": false,
      "t": 224745.5080000009,
      "d": 1689.6167291666789,
      "v": 48
    },
    {
      "midi": 59,
      "hit": false,
      "t": 224745.5080000009,
      "d": 1753.17597916667,
      "v": 52
    },
    {
      "midi": 63,
      "hit": false,
      "t": 224745.5080000009,
      "d": 1859.1080625000177,
      "v": 42
    },
    {
      "midi": 66,
      "hit": false,
      "t": 224745.5080000009,
      "d": 1874.99787500003,
      "v": 50
    },
    {
      "midi": 66,
      "hit": false,
      "t": 226779.40400000094,
      "d": 1615.4642708333267,
      "v": 54
    },
    {
      "midi": 58,
      "hit": false,
      "t": 226779.40400000094,
      "d": 1758.4725833333214,
      "v": 54
    },
    {
      "midi": 61,
      "hit": false,
      "t": 226779.40400000094,
      "d": 1779.658999999985,
      "v": 68
    },
    {
      "midi": 54,
      "hit": false,
      "t": 226779.40400000094,
      "d": 1965.0401458333072,
      "v": 37
    },
    {
      "midi": 70,
      "hit": false,
      "t": 226779.40400000094,
      "d": 2044.4892083333107,
      "v": 64
    },
    {
      "midi": 65,
      "hit": false,
      "t": 228813.30000000092,
      "d": 1652.5405000000028,
      "v": 68
    },
    {
      "midi": 61,
      "hit": false,
      "t": 228813.30000000092,
      "d": 1721.3963541666744,
      "v": 54
    },
    {
      "midi": 58,
      "hit": false,
      "t": 228813.30000000092,
      "d": 1737.2861666666868,
      "v": 54
    },
    {
      "midi": 56,
      "hit": false,
      "t": 228813.30000000092,
      "d": 1811.4386250000098,
      "v": 54
    },
    {
      "midi": 68,
      "hit": false,
      "t": 228813.30000000092,
      "d": 1954.4469375000044,
      "v": 60
    },
    {
      "midi": 63,
      "hit": false,
      "t": 230847.19600000093,
      "d": 391.948708333337,
      "v": 68
    },
    {
      "midi": 66,
      "hit": false,
      "t": 230847.19600000093,
      "d": 407.8385208333493,
      "v": 66
    },
    {
      "midi": 65,
      "hit": false,
      "t": 231228.55150000093,
      "d": 344.27927083335817,
      "v": 66
    },
    {
      "midi": 59,
      "hit": false,
      "t": 231609.90700000097,
      "d": 1234.1087708333216,
      "v": 66
    },
    {
      "midi": 63,
      "hit": false,
      "t": 231609.90700000097,
      "d": 1313.557833333325,
      "v": 68
    },
    {
      "midi": 56,
      "hit": false,
      "t": 232881.09200000096,
      "d": 1620.7608750000072,
      "v": 52
    },
    {
      "midi": 49,
      "hit": false,
      "t": 232881.09200000096,
      "d": 1668.4303125000151,
      "v": 33
    },
    {
      "midi": 61,
      "hit": false,
      "t": 232881.09200000096,
      "d": 1679.023520833347,
      "v": 58
    },
    {
      "midi": 61,
      "hit": false,
      "t": 234914.98800000097,
      "d": 1615.4642708333267,
      "v": 35
    },
    {
      "midi": 63,
      "hit": false,
      "t": 234914.98800000097,
      "d": 1626.0574791666586,
      "v": 52
    },
    {
      "midi": 59,
      "hit": false,
      "t": 234914.98800000097,
      "d": 1636.6506874999905,
      "v": 62
    },
    {
      "midi": 66,
      "hit": false,
      "t": 234914.98800000097,
      "d": 1684.3201249999984,
      "v": 66
    },
    {
      "midi": 54,
      "hit": false,
      "t": 234914.98800000097,
      "d": 1991.5231666666514,
      "v": 54
    },
    {
      "midi": 63,
      "hit": false,
      "t": 236948.88400000095,
      "d": 1874.9978749999718,
      "v": 60
    },
    {
      "midi": 70,
      "hit": false,
      "t": 236948.88400000095,
      "d": 2123.938270833314,
      "v": 62
    },
    {
      "midi": 66,
      "hit": false,
      "t": 236948.88400000095,
      "d": 2161.01449999999,
      "v": 66
    },
    {
      "midi": 65,
      "hit": false,
      "t": 238982.78000000093,
      "d": 1530.7186041666719,
      "v": 64
    },
    {
      "midi": 61,
      "hit": false,
      "t": 238982.78000000093,
      "d": 1546.6084166666842,
      "v": 28
    },
    {
      "midi": 68,
      "hit": false,
      "t": 238982.78000000093,
      "d": 1716.099750000023,
      "v": 64
    },
    {
      "midi": 56,
      "hit": false,
      "t": 238982.78000000093,
      "d": 1753.175979166699,
      "v": 36
    },
    {
      "midi": 63,
      "hit": false,
      "t": 241016.67600000097,
      "d": 254.23700000002282,
      "v": 56
    },
    {
      "midi": 66,
      "hit": false,
      "t": 241016.67600000097,
      "d": 291.3132291666989,
      "v": 54
    },
    {
      "midi": 59,
      "hit": false,
      "t": 241016.67600000097,
      "d": 439.618145833374,
      "v": 62
    },
    {
      "midi": 61,
      "hit": false,
      "t": 241398.031500001,
      "d": 95.33887500001583,
      "v": 80
    },
    {
      "midi": 65,
      "hit": false,
      "t": 241398.031500001,
      "d": 100.63547916669631,
      "v": 68
    },
    {
      "midi": 56,
      "hit": false,
      "t": 241779.38700000106,
      "d": 1038.134416666755,
      "v": 54
    },
    {
      "midi": 63,
      "hit": false,
      "t": 241779.38700000106,
      "d": 1054.0242291667673,
      "v": 58
    },
    {
      "midi": 54,
      "hit": false,
      "t": 241779.38700000106,
      "d": 1080.5072500001115,
      "v": 44
    },
    {
      "midi": 59,
      "hit": false,
      "t": 241779.38700000106,
      "d": 1096.3970625001239,
      "v": 60
    },
    {
      "midi": 59,
      "hit": false,
      "t": 243050.5720000012,
      "d": 1753.1759791668155,
      "v": 52
    },
    {
      "midi": 63,
      "hit": false,
      "t": 243050.5720000012,
      "d": 1859.1080625001632,
      "v": 42
    },
    {
      "midi": 66,
      "hit": false,
      "t": 243050.5720000012,
      "d": 1874.9978750001756,
      "v": 50
    },
    {
      "midi": 66,
      "hit": false,
      "t": 245084.4680000014,
      "d": 1615.4642708334723,
      "v": 54
    },
    {
      "midi": 58,
      "hit": false,
      "t": 245084.4680000014,
      "d": 1758.472583333496,
      "v": 54
    },
    {
      "midi": 61,
      "hit": false,
      "t": 245084.4680000014,
      "d": 1779.6590000001597,
      "v": 68
    },
    {
      "midi": 54,
      "hit": false,
      "t": 245084.4680000014,
      "d": 1965.040145833511,
      "v": 37
    },
    {
      "midi": 70,
      "hit": false,
      "t": 245084.4680000014,
      "d": 2044.4892083335144,
      "v": 64
    },
    {
      "midi": 65,
      "hit": false,
      "t": 247118.36400000157,
      "d": 1652.5405000001483,
      "v": 68
    },
    {
      "midi": 61,
      "hit": false,
      "t": 247118.36400000157,
      "d": 1721.39635416682,
      "v": 54
    },
    {
      "midi": 58,
      "hit": false,
      "t": 247118.36400000157,
      "d": 1737.2861666668323,
      "v": 54
    },
    {
      "midi": 56,
      "hit": false,
      "t": 247118.36400000157,
      "d": 1811.4386250001553,
      "v": 54
    },
    {
      "midi": 68,
      "hit": false,
      "t": 247118.36400000157,
      "d": 1954.44693750015,
      "v": 60
    },
    {
      "midi": 63,
      "hit": false,
      "t": 249152.26000000173,
      "d": 391.9487083333661,
      "v": 68
    },
    {
      "midi": 66,
      "hit": false,
      "t": 249152.26000000173,
      "d": 407.8385208333784,
      "v": 66
    },
    {
      "midi": 65,
      "hit": false,
      "t": 249533.61550000176,
      "d": 344.27927083335817,
      "v": 66
    },
    {
      "midi": 63,
      "hit": false,
      "t": 249914.9710000018,
      "d": 1313.5578333334415,
      "v": 68
    },
    {
      "midi": 56,
      "hit": false,
      "t": 251186.1560000019,
      "d": 1620.7608750000363,
      "v": 52
    },
    {
      "midi": 49,
      "hit": false,
      "t": 251186.1560000019,
      "d": 1668.4303125000442,
      "v": 33
    },
    {
      "midi": 61,
      "hit": false,
      "t": 251186.1560000019,
      "d": 1679.023520833376,
      "v": 58
    }
  ]
}