{
  "jsonPath": "Soul/Soul/Michael Jackson/you-are-not-alone.json",
  "path": "Soul\\Soul\\Michael Jackson\\You Are Not Alone.mid",
  "name": "You Are Not Alone",
  "difficulty": "Intermediate",
  "bpm": 60,
  "notes": [
    {
      "midi": 59,
      "hit": false,
      "t": 0,
      "d": 491.6666666666667,
      "v": 100
    },
    {
      "midi": 61,
      "hit": false,
      "t": 500,
      "d": 491.66666666666674,
      "v": 100
    },
    {
      "midi": 54,
      "hit": false,
      "t": 1000.0000000000001,
      "d": 991.6666666666666,
      "v": 100
    },
    {
      "midi": 59,
      "hit": false,
      "t": 1000.0000000000001,
      "d": 991.6666666666666,
      "v": 100
    },
    {
      "midi": 63,
      "hit": false,
      "t": 1000.0000000000001,
      "d": 991.6666666666666,
      "v": 100
    },
    {
      "midi": 54,
      "hit": false,
      "t": 2000,
      "d": 991.6666666666665,
      "v": 100
    },
    {
      "midi": 59,
      "hit": false,
      "t": 2000,
      "d": 991.6666666666665,
      "v": 100
    },
    {
      "midi": 63,
      "hit": false,
      "t": 2000,
      "d": 991.6666666666665,
      "v": 100
    },
    {
      "midi": 54,
      "hit": false,
      "t": 3000,
      "d": 991.6666666666665,
      "v": 100
    },
    {
      "midi": 57,
      "hit": false,
      "t": 3000,
      "d": 991.6666666666665,
      "v": 100
    },
    {
      "midi": 63,
      "hit": false,
      "t": 3000,
      "d": 991.6666666666665,
      "v": 100
    },
    {
      "midi": 54,
      "hit": false,
      "t": 4000,
      "d": 991.666666666667,
      "v": 100
    },
    {
      "midi": 57,
      "hit": false,
      "t": 4000,
      "d": 991.666666666667,
      "v": 100
    },
    {
      "midi": 63,
      "hit": false,
      "t": 4000,
      "d": 991.666666666667,
      "v": 100
    },
    {
      "midi": 54,
      "hit": false,
      "t": 5000,
      "d": 991.666666666667,
      "v": 100
    },
    {
      "midi": 56,
      "hit": false,
      "t": 5000,
      "d": 991.666666666667,
      "v": 100
    },
    {
      "midi": 61,
      "hit": false,
      "t": 5000,
      "d": 991.666666666667,
      "v": 100
    },
    {
      "midi": 63,
      "hit": false,
      "t": 5000,
      "d": 991.666666666667,
      "v": 100
    },
    {
      "midi": 54,
      "hit": false,
      "t": 6000,
      "d": 991.666666666667,
      "v": 100
    },
    {
      "midi": 56,
      "hit": false,
      "t": 6000,
      "d": 991.666666666667,
      "v": 100
    },
    {
      "midi": 61,
      "hit": false,
      "t": 6000,
      "d": 991.666666666667,
      "v": 100
    },
    {
      "midi": 63,
      "hit": false,
      "t": 6000,
      "d": 991.666666666667,
      "v": 100
    },
    {
      "midi": 54,
      "hit": false,
      "t": 7000,
      "d": 991.666666666667,
      "v": 100
    },
    {
      "midi": 56,
      "hit": false,
      "t": 7000,
      "d": 991.666666666667,
      "v": 100
    },
    {
      "midi": 60,
      "hit": false,
      "t": 7000,
      "d": 991.666666666667,
      "v": 100
    },
    {
      "midi": 63,
      "hit": false,
      "t": 7000,
      "d": 991.666666666667,
      "v": 100
    },
    {
      "midi": 63,
      "hit": false,
      "t": 8000,
      "d": 750,
      "v": 100
    },
    {
      "midi": 54,
      "hit": false,
      "t": 8000,
      "d": 991.6666666666661,
      "v": 100
    },
    {
      "midi": 56,
      "hit": false,
      "t": 8000,
      "d": 991.6666666666661,
      "v": 100
    },
    {
      "midi": 60,
      "hit": false,
      "t": 8000,
      "d": 991.6666666666661,
      "v": 100
    },
    {
      "midi": 61,
      "hit": false,
      "t": 8500,
      "d": 241.66666666666606,
      "v": 100
    },
    {
      "midi": 63,
      "hit": false,
      "t": 8750,
      "d": 241.66666666666606,
      "v": 100
    },
    {
      "midi": 56,
      "hit": false,
      "t": 9000,
      "d": 991.6666666666661,
      "v": 100
    },
    {
      "midi": 61,
      "hit": false,
      "t": 9000,
      "d": 991.6666666666661,
      "v": 100
    },
    {
      "midi": 64,
      "hit": false,
      "t": 9000,
      "d": 991.6666666666661,
      "v": 100
    },
    {
      "midi": 56,
      "hit": false,
      "t": 10000,
      "d": 991.6666666666661,
      "v": 100
    },
    {
      "midi": 61,
      "hit": false,
      "t": 10000,
      "d": 991.6666666666661,
      "v": 100
    },
    {
      "midi": 64,
      "hit": false,
      "t": 10000,
      "d": 991.6666666666661,
      "v": 100
    },
    {
      "midi": 56,
      "hit": false,
      "t": 11000,
      "d": 991.6666666666661,
      "v": 100
    },
    {
      "midi": 60,
      "hit": false,
      "t": 11000,
      "d": 991.6666666666661,
      "v": 100
    },
    {
      "midi": 64,
      "hit": false,
      "t": 11000,
      "d": 991.6666666666661,
      "v": 100
    },
    {
      "midi": 56,
      "hit": false,
      "t": 12000,
      "d": 991.6666666666661,
      "v": 100
    },
    {
      "midi": 60,
      "hit": false,
      "t": 12000,
      "d": 991.6666666666661,
      "v": 100
    },
    {
      "midi": 64,
      "hit": false,
      "t": 12000,
      "d": 991.6666666666661,
      "v": 100
    },
    {
      "midi": 54,
      "hit": false,
      "t": 13000,
      "d": 991.6666666666661,
      "v": 100
    },
    {
      "midi": 56,
      "hit": false,
      "t": 13000,
      "d": 991.6666666666661,
      "v": 100
    },
    {
      "midi": 59,
      "hit": false,
      "t": 13000,
      "d": 991.6666666666661,
      "v": 100
    },
    {
      "midi": 64,
      "hit": false,
      "t": 13000,
      "d": 991.6666666666661,
      "v": 100
    },
    {
      "midi": 54,
      "hit": false,
      "t": 14000,
      "d": 991.6666666666661,
      "v": 100
    },
    {
      "midi": 56,
      "hit": false,
      "t": 14000,
      "d": 991.6666666666661,
      "v": 100
    },
    {
      "midi": 59,
      "hit": false,
      "t": 14000,
      "d": 991.6666666666661,
      "v": 100
    },
    {
      "midi": 64,
      "hit": false,
      "t": 14000,
      "d": 991.6666666666661,
      "v": 100
    },
    {
      "midi": 54,
      "hit": false,
      "t": 15000,
      "d": 991.6666666666661,
      "v": 100
    },
    {
      "midi": 58,
      "hit": false,
      "t": 15000,
      "d": 991.6666666666661,
      "v": 100
    },
    {
      "midi": 61,
      "hit": false,
      "t": 15000,
      "d": 991.6666666666661,
      "v": 100
    },
    {
      "midi": 66,
      "hit": false,
      "t": 15000,
      "d": 991.6666666666661,
      "v": 100
    },
    {
      "midi": 54,
      "hit": false,
      "t": 16000,
      "d": 991.6666666666679,
      "v": 100
    },
    {
      "midi": 58,
      "hit": false,
      "t": 16000,
      "d": 991.6666666666679,
      "v": 100
    },
    {
      "midi": 61,
      "hit": false,
      "t": 16000,
      "d": 991.6666666666679,
      "v": 100
    },
    {
      "midi": 66,
      "hit": false,
      "t": 16000,
      "d": 991.6666666666679,
      "v": 100
    },
    {
      "midi": 68,
      "hit": false,
      "t": 16500,
      "d": 491.6666666666679,
      "v": 100
    },
    {
      "midi": 58,
      "hit": false,
      "t": 17000,
      "d": 991.6666666666679,
      "v": 100
    },
    {
      "midi": 63,
      "hit": false,
      "t": 17000,
      "d": 991.6666666666679,
      "v": 100
    },
    {
      "midi": 66,
      "hit": false,
      "t": 17000,
      "d": 991.6666666666679,
      "v": 100
    },
    {
      "midi": 58,
      "hit": false,
      "t": 18000,
      "d": 991.6666666666679,
      "v": 100
    },
    {
      "midi": 63,
      "hit": false,
      "t": 18000,
      "d": 991.6666666666679,
      "v": 100
    },
    {
      "midi": 66,
      "hit": false,
      "t": 18000,
      "d": 991.6666666666679,
      "v": 100
    },
    {
      "midi": 58,
      "hit": false,
      "t": 19000,
      "d": 991.6666666666679,
      "v": 100
    },
    {
      "midi": 61,
      "hit": false,
      "t": 19000,
      "d": 991.6666666666679,
      "v": 100
    },
    {
      "midi": 66,
      "hit": false,
      "t": 19000,
      "d": 991.6666666666679,
      "v": 100
    },
    {
      "midi": 58,
      "hit": false,
      "t": 20000,
      "d": 991.6666666666679,
      "v": 100
    },
    {
      "midi": 61,
      "hit": false,
      "t": 20000,
      "d": 991.6666666666679,
      "v": 100
    },
    {
      "midi": 66,
      "hit": false,
      "t": 20000,
      "d": 991.6666666666679,
      "v": 100
    },
    {
      "midi": 54,
      "hit": false,
      "t": 21000,
      "d": 991.6666666666679,
      "v": 100
    },
    {
      "midi": 56,
      "hit": false,
      "t": 21000,
      "d": 991.6666666666679,
      "v": 100
    },
    {
      "midi": 60,
      "hit": false,
      "t": 21000,
      "d": 991.6666666666679,
      "v": 100
    },
    {
      "midi": 63,
      "hit": false,
      "t": 21000,
      "d": 991.6666666666679,
      "v": 100
    },
    {
      "midi": 66,
      "hit": false,
      "t": 21000,
      "d": 991.6666666666679,
      "v": 100
    },
    {
      "midi": 54,
      "hit": false,
      "t": 22000,
      "d": 991.6666666666679,
      "v": 100
    },
    {
      "midi": 56,
      "hit": false,
      "t": 22000,
      "d": 991.6666666666679,
      "v": 100
    },
    {
      "midi": 60,
      "hit": false,
      "t": 22000,
      "d": 991.6666666666679,
      "v": 100
    },
    {
      "midi": 63,
      "hit": false,
      "t": 22000,
      "d": 991.6666666666679,
      "v": 100
    },
    {
      "midi": 66,
      "hit": false,
      "t": 22000,
      "d": 991.6666666666679,
      "v": 100
    },
    {
      "midi": 54,
      "hit": false,
      "t": 23000,
      "d": 991.6666666666679,
      "v": 100
    },
    {
      "midi": 56,
      "hit": false,
      "t": 23000,
      "d": 991.6666666666679,
      "v": 100
    },
    {
      "midi": 60,
      "hit": false,
      "t": 23000,
      "d": 991.6666666666679,
      "v": 100
    },
    {
      "midi": 63,
      "hit": false,
      "t": 23000,
      "d": 991.6666666666679,
      "v": 100
    },
    {
      "midi": 63,
      "hit": false,
      "t": 24000,
      "d": 750,
      "v": 100
    },
    {
      "midi": 54,
      "hit": false,
      "t": 24000,
      "d": 991.6666666666679,
      "v": 100
    },
    {
      "midi": 56,
      "hit": false,
      "t": 24000,
      "d": 991.6666666666679,
      "v": 100
    },
    {
      "midi": 60,
      "hit": false,
      "t": 24000,
      "d": 991.6666666666679,
      "v": 100
    },
    {
      "midi": 61,
      "hit": false,
      "t": 24500,
      "d": 241.66666666666788,
      "v": 100
    },
    {
      "midi": 63,
      "hit": false,
      "t": 24750,
      "d": 241.66666666666788,
      "v": 100
    },
    {
      "midi": 56,
      "hit": false,
      "t": 25000,
      "d": 991.6666666666679,
      "v": 100
    },
    {
      "midi": 61,
      "hit": false,
      "t": 25000,
      "d": 991.6666666666679,
      "v": 100
    },
    {
      "midi": 64,
      "hit": false,
      "t": 25000,
      "d": 991.6666666666679,
      "v": 100
    },
    {
      "midi": 56,
      "hit": false,
      "t": 26000,
      "d": 991.6666666666679,
      "v": 100
    },
    {
      "midi": 61,
      "hit": false,
      "t": 26000,
      "d": 991.6666666666679,
      "v": 100
    },
    {
      "midi": 64,
      "hit": false,
      "t": 26000,
      "d": 991.6666666666679,
      "v": 100
    },
    {
      "midi": 63,
      "hit": false,
      "t": 26750,
      "d": 241.66666666666788,
      "v": 100
    },
    {
      "midi": 57,
      "hit": false,
      "t": 27000,
      "d": 991.6666666666679,
      "v": 100
    },
    {
      "midi": 61,
      "hit": false,
      "t": 27000,
      "d": 991.6666666666679,
      "v": 100
    },
    {
      "midi": 64,
      "hit": false,
      "t": 27000,
      "d": 991.6666666666679,
      "v": 100
    },
    {
      "midi": 57,
      "hit": false,
      "t": 28000,
      "d": 991.6666666666679,
      "v": 100
    },
    {
      "midi": 61,
      "hit": false,
      "t": 28000,
      "d": 991.6666666666679,
      "v": 100
    },
    {
      "midi": 64,
      "hit": false,
      "t": 28000,
      "d": 991.6666666666679,
      "v": 100
    },
    {
      "midi": 63,
      "hit": false,
      "t": 28750,
      "d": 241.66666666666788,
      "v": 100
    },
    {
      "midi": 54,
      "hit": false,
      "t": 29000,
      "d": 991.6666666666679,
      "v": 100
    },
    {
      "midi": 56,
      "hit": false,
      "t": 29000,
      "d": 991.6666666666679,
      "v": 100
    },
    {
      "midi": 59,
      "hit": false,
      "t": 29000,
      "d": 991.6666666666679,
      "v": 100
    },
    {
      "midi": 64,
      "hit": false,
      "t": 29000,
      "d": 991.6666666666679,
      "v": 100
    },
    {
      "midi": 54,
      "hit": false,
      "t": 30000,
      "d": 991.6666666666679,
      "v": 100
    },
    {
      "midi": 56,
      "hit": false,
      "t": 30000,
      "d": 991.6666666666679,
      "v": 100
    },
    {
      "midi": 59,
      "hit": false,
      "t": 30000,
      "d": 991.6666666666679,
      "v": 100
    },
    {
      "midi": 64,
      "hit": false,
      "t": 30000,
      "d": 991.6666666666679,
      "v": 100
    },
    {
      "midi": 54,
      "hit": false,
      "t": 31000,
      "d": 991.6666666666679,
      "v": 100
    },
    {
      "midi": 56,
      "hit": false,
      "t": 31000,
      "d": 991.6666666666679,
      "v": 100
    },
    {
      "midi": 59,
      "hit": false,
      "t": 31000,
      "d": 991.6666666666679,
      "v": 100
    },
    {
      "midi": 61,
      "hit": false,
      "t": 31000,
      "d": 991.6666666666679,
      "v": 100
    },
    {
      "midi": 66,
      "hit": false,
      "t": 31000,
      "d": 991.6666666666679,
      "v": 100
    },
    {
      "midi": 54,
      "hit": false,
      "t": 32000,
      "d": 991.6666666666642,
      "v": 100
    },
    {
      "midi": 56,
      "hit": false,
      "t": 32000,
      "d": 991.6666666666642,
      "v": 100
    },
    {
      "midi": 59,
      "hit": false,
      "t": 32000,
      "d": 991.6666666666642,
      "v": 100
    },
    {
      "midi": 61,
      "hit": false,
      "t": 32000,
      "d": 991.6666666666642,
      "v": 100
    },
    {
      "midi": 66,
      "hit": false,
      "t": 32000,
      "d": 991.6666666666642,
      "v": 100
    },
    {
      "midi": 51,
      "hit": false,
      "t": 33000,
      "d": 1741.6666666666642,
      "v": 100
    },
    {
      "midi": 54,
      "hit": false,
      "t": 33000,
      "d": 1741.6666666666642,
      "v": 100
    },
    {
      "midi": 59,
      "hit": false,
      "t": 33000,
      "d": 1741.6666666666642,
      "v": 100
    },
    {
      "midi": 63,
      "hit": false,
      "t": 33000,
      "d": 1741.6666666666642,
      "v": 100
    },
    {
      "midi": 54,
      "hit": false,
      "t": 35000,
      "d": 1741.6666666666642,
      "v": 100
    },
    {
      "midi": 58,
      "hit": false,
      "t": 35000,
      "d": 1741.6666666666642,
      "v": 100
    },
    {
      "midi": 61,
      "hit": false,
      "t": 35000,
      "d": 1741.6666666666642,
      "v": 100
    },
    {
      "midi": 56,
      "hit": false,
      "t": 37000,
      "d": 1741.6666666666642,
      "v": 100
    },
    {
      "midi": 58,
      "hit": false,
      "t": 37000,
      "d": 1741.6666666666642,
      "v": 100
    },
    {
      "midi": 61,
      "hit": false,
      "t": 37000,
      "d": 1741.6666666666642,
      "v": 100
    },
    {
      "midi": 51,
      "hit": false,
      "t": 39000,
      "d": 1741.6666666666642,
      "v": 100
    },
    {
      "midi": 56,
      "hit": false,
      "t": 39000,
      "d": 1741.6666666666642,
      "v": 100
    },
    {
      "midi": 60,
      "hit": false,
      "t": 39000,
      "d": 1741.6666666666642,
      "v": 100
    },
    {
      "midi": 61,
      "hit": false,
      "t": 40500,
      "d": 241.66666666666424,
      "v": 100
    },
    {
      "midi": 63,
      "hit": false,
      "t": 40750,
      "d": 241.66666666666424,
      "v": 100
    },
    {
      "midi": 49,
      "hit": false,
      "t": 41000,
      "d": 1741.6666666666642,
      "v": 100
    },
    {
      "midi": 56,
      "hit": false,
      "t": 41000,
      "d": 1741.6666666666642,
      "v": 100
    },
    {
      "midi": 61,
      "hit": false,
      "t": 41000,
      "d": 1741.6666666666642,
      "v": 100
    },
    {
      "midi": 64,
      "hit": false,
      "t": 41000,
      "d": 1741.6666666666642,
      "v": 100
    },
    {
      "midi": 49,
      "hit": false,
      "t": 43000,
      "d": 1741.6666666666642,
      "v": 100
    },
    {
      "midi": 56,
      "hit": false,
      "t": 43000,
      "d": 1741.6666666666642,
      "v": 100
    },
    {
      "midi": 60,
      "hit": false,
      "t": 43000,
      "d": 1741.6666666666642,
      "v": 100
    },
    {
      "midi": 64,
      "hit": false,
      "t": 43000,
      "d": 1741.6666666666642,
      "v": 100
    },
    {
      "midi": 54,
      "hit": false,
      "t": 45000,
      "d": 1741.6666666666642,
      "v": 100
    },
    {
      "midi": 59,
      "hit": false,
      "t": 45000,
      "d": 1741.6666666666642,
      "v": 100
    },
    {
      "midi": 61,
      "hit": false,
      "t": 45000,
      "d": 1741.6666666666642,
      "v": 100
    },
    {
      "midi": 64,
      "hit": false,
      "t": 45000,
      "d": 1741.6666666666642,
      "v": 100
    },
    {
      "midi": 54,
      "hit": false,
      "t": 47000,
      "d": 1741.6666666666642,
      "v": 100
    },
    {
      "midi": 58,
      "hit": false,
      "t": 47000,
      "d": 1741.6666666666642,
      "v": 100
    },
    {
      "midi": 61,
      "hit": false,
      "t": 47000,
      "d": 1741.6666666666642,
      "v": 100
    },
    {
      "midi": 64,
      "hit": false,
      "t": 47000,
      "d": 1741.6666666666642,
      "v": 100
    },
    {
      "midi": 51,
      "hit": false,
      "t": 49000,
      "d": 1741.6666666666642,
      "v": 100
    },
    {
      "midi": 58,
      "hit": false,
      "t": 49000,
      "d": 1741.6666666666642,
      "v": 100
    },
    {
      "midi": 61,
      "hit": false,
      "t": 49000,
      "d": 1741.6666666666642,
      "v": 100
    },
    {
      "midi": 66,
      "hit": false,
      "t": 49000,
      "d": 1741.6666666666642,
      "v": 100
    },
    {
      "midi": 51,
      "hit": false,
      "t": 51000,
      "d": 1741.6666666666642,
      "v": 100
    },
    {
      "midi": 54,
      "hit": false,
      "t": 51000,
      "d": 1741.6666666666642,
      "v": 100
    },
    {
      "midi": 59,
      "hit": false,
      "t": 51000,
      "d": 1741.6666666666642,
      "v": 100
    },
    {
      "midi": 66,
      "hit": false,
      "t": 51000,
      "d": 1741.6666666666642,
      "v": 100
    },
    {
      "midi": 54,
      "hit": false,
      "t": 53000,
      "d": 1741.6666666666642,
      "v": 100
    },
    {
      "midi": 59,
      "hit": false,
      "t": 53000,
      "d": 1741.6666666666642,
      "v": 100
    },
    {
      "midi": 61,
      "hit": false,
      "t": 53000,
      "d": 1741.6666666666642,
      "v": 100
    },
    {
      "midi": 63,
      "hit": false,
      "t": 53000,
      "d": 1741.6666666666642,
      "v": 100
    },
    {
      "midi": 66,
      "hit": false,
      "t": 53000,
      "d": 1741.6666666666642,
      "v": 100
    },
    {
      "midi": 56,
      "hit": false,
      "t": 55000,
      "d": 1741.6666666666642,
      "v": 100
    },
    {
      "midi": 60,
      "hit": false,
      "t": 55000,
      "d": 1741.6666666666642,
      "v": 100
    },
    {
      "midi": 63,
      "hit": false,
      "t": 55000,
      "d": 1741.6666666666642,
      "v": 100
    },
    {
      "midi": 61,
      "hit": false,
      "t": 56500,
      "d": 241.66666666666424,
      "v": 100
    },
    {
      "midi": 63,
      "hit": false,
      "t": 56750,
      "d": 241.66666666666424,
      "v": 100
    },
    {
      "midi": 56,
      "hit": false,
      "t": 57000,
      "d": 1741.6666666666642,
      "v": 100
    },
    {
      "midi": 61,
      "hit": false,
      "t": 57000,
      "d": 1741.6666666666642,
      "v": 100
    },
    {
      "midi": 64,
      "hit": false,
      "t": 57000,
      "d": 1741.6666666666642,
      "v": 100
    },
    {
      "midi": 56,
      "hit": false,
      "t": 59000,
      "d": 1741.6666666666642,
      "v": 100
    },
    {
      "midi": 60,
      "hit": false,
      "t": 59000,
      "d": 1741.6666666666642,
      "v": 100
    },
    {
      "midi": 64,
      "hit": false,
      "t": 59000,
      "d": 1741.6666666666642,
      "v": 100
    },
    {
      "midi": 54,
      "hit": false,
      "t": 61000,
      "d": 241.66666666666424,
      "v": 100
    },
    {
      "midi": 56,
      "hit": false,
      "t": 61000,
      "d": 1741.6666666666642,
      "v": 100
    },
    {
      "midi": 59,
      "hit": false,
      "t": 61000,
      "d": 1741.6666666666642,
      "v": 100
    },
    {
      "midi": 61,
      "hit": false,
      "t": 61000,
      "d": 1741.6666666666642,
      "v": 100
    },
    {
      "midi": 64,
      "hit": false,
      "t": 61000,
      "d": 1741.6666666666642,
      "v": 100
    },
    {
      "midi": 59,
      "hit": false,
      "t": 63000,
      "d": 991.6666666666642,
      "v": 100
    },
    {
      "midi": 61,
      "hit": false,
      "t": 63000,
      "d": 1491.6666666666642,
      "v": 100
    },
    {
      "midi": 54,
      "hit": false,
      "t": 63000,
      "d": 1741.6666666666642,
      "v": 100
    },
    {
      "midi": 56,
      "hit": false,
      "t": 63000,
      "d": 1741.6666666666642,
      "v": 100
    },
    {
      "midi": 66,
      "hit": false,
      "t": 63000,
      "d": 1741.6666666666642,
      "v": 100
    },
    {
      "midi": 59,
      "hit": false,
      "t": 64000,
      "d": 491.66666666666424,
      "v": 100
    },
    {
      "midi": 61,
      "hit": false,
      "t": 64500,
      "d": 491.66666666666424,
      "v": 100
    },
    {
      "midi": 54,
      "hit": false,
      "t": 65000,
      "d": 991.6666666666715,
      "v": 100
    },
    {
      "midi": 59,
      "hit": false,
      "t": 65000,
      "d": 991.6666666666715,
      "v": 100
    },
    {
      "midi": 63,
      "hit": false,
      "t": 65000,
      "d": 991.6666666666715,
      "v": 100
    },
    {
      "midi": 54,
      "hit": false,
      "t": 66000,
      "d": 991.6666666666715,
      "v": 100
    },
    {
      "midi": 59,
      "hit": false,
      "t": 66000,
      "d": 991.6666666666715,
      "v": 100
    },
    {
      "midi": 63,
      "hit": false,
      "t": 66000,
      "d": 991.6666666666715,
      "v": 100
    },
    {
      "midi": 54,
      "hit": false,
      "t": 67000,
      "d": 991.6666666666715,
      "v": 100
    },
    {
      "midi": 57,
      "hit": false,
      "t": 67000,
      "d": 991.6666666666715,
      "v": 100
    },
    {
      "midi": 63,
      "hit": false,
      "t": 67000,
      "d": 991.6666666666715,
      "v": 100
    },
    {
      "midi": 54,
      "hit": false,
      "t": 68000,
      "d": 991.6666666666715,
      "v": 100
    },
    {
      "midi": 57,
      "hit": false,
      "t": 68000,
      "d": 991.6666666666715,
      "v": 100
    },
    {
      "midi": 63,
      "hit": false,
      "t": 68000,
      "d": 991.6666666666715,
      "v": 100
    },
    {
      "midi": 54,
      "hit": false,
      "t": 69000,
      "d": 991.6666666666715,
      "v": 100
    },
    {
      "midi": 56,
      "hit": false,
      "t": 69000,
      "d": 991.6666666666715,
      "v": 100
    },
    {
      "midi": 61,
      "hit": false,
      "t": 69000,
      "d": 991.6666666666715,
      "v": 100
    },
    {
      "midi": 63,
      "hit": false,
      "t": 69000,
      "d": 991.6666666666715,
      "v": 100
    },
    {
      "midi": 54,
      "hit": false,
      "t": 70000,
      "d": 991.6666666666715,
      "v": 100
    },
    {
      "midi": 56,
      "hit": false,
      "t": 70000,
      "d": 991.6666666666715,
      "v": 100
    },
    {
      "midi": 61,
      "hit": false,
      "t": 70000,
      "d": 991.6666666666715,
      "v": 100
    },
    {
      "midi": 63,
      "hit": false,
      "t": 70000,
      "d": 991.6666666666715,
      "v": 100
    },
    {
      "midi": 54,
      "hit": false,
      "t": 71000,
      "d": 991.6666666666715,
      "v": 100
    },
    {
      "midi": 56,
      "hit": false,
      "t": 71000,
      "d": 991.6666666666715,
      "v": 100
    },
    {
      "midi": 60,
      "hit": false,
      "t": 71000,
      "d": 991.6666666666715,
      "v": 100
    },
    {
      "midi": 63,
      "hit": false,
      "t": 71000,
      "d": 991.6666666666715,
      "v": 100
    },
    {
      "midi": 63,
      "hit": false,
      "t": 72000,
      "d": 750,
      "v": 100
    },
    {
      "midi": 54,
      "hit": false,
      "t": 72000,
      "d": 991.6666666666715,
      "v": 100
    },
    {
      "midi": 56,
      "hit": false,
      "t": 72000,
      "d": 991.6666666666715,
      "v": 100
    },
    {
      "midi": 60,
      "hit": false,
      "t": 72000,
      "d": 991.6666666666715,
      "v": 100
    },
    {
      "midi": 61,
      "hit": false,
      "t": 72500,
      "d": 241.66666666667152,
      "v": 100
    },
    {
      "midi": 63,
      "hit": false,
      "t": 72750,
      "d": 241.66666666667152,
      "v": 100
    },
    {
      "midi": 56,
      "hit": false,
      "t": 73000,
      "d": 991.6666666666715,
      "v": 100
    },
    {
      "midi": 61,
      "hit": false,
      "t": 73000,
      "d": 991.6666666666715,
      "v": 100
    },
    {
      "midi": 64,
      "hit": false,
      "t": 73000,
      "d": 991.6666666666715,
      "v": 100
    },
    {
      "midi": 56,
      "hit": false,
      "t": 74000,
      "d": 991.6666666666715,
      "v": 100
    },
    {
      "midi": 61,
      "hit": false,
      "t": 74000,
      "d": 991.6666666666715,
      "v": 100
    },
    {
      "midi": 64,
      "hit": false,
      "t": 74000,
      "d": 991.6666666666715,
      "v": 100
    },
    {
      "midi": 56,
      "hit": false,
      "t": 75000,
      "d": 991.6666666666715,
      "v": 100
    },
    {
      "midi": 60,
      "hit": false,
      "t": 75000,
      "d": 991.6666666666715,
      "v": 100
    },
    {
      "midi": 64,
      "hit": false,
      "t": 75000,
      "d": 991.6666666666715,
      "v": 100
    },
    {
      "midi": 56,
      "hit": false,
      "t": 76000,
      "d": 991.6666666666715,
      "v": 100
    },
    {
      "midi": 60,
      "hit": false,
      "t": 76000,
      "d": 991.6666666666715,
      "v": 100
    },
    {
      "midi": 64,
      "hit": false,
      "t": 76000,
      "d": 991.6666666666715,
      "v": 100
    },
    {
      "midi": 54,
      "hit": false,
      "t": 77000,
      "d": 991.6666666666715,
      "v": 100
    },
    {
      "midi": 56,
      "hit": false,
      "t": 77000,
      "d": 991.6666666666715,
      "v": 100
    },
    {
      "midi": 59,
      "hit": false,
      "t": 77000,
      "d": 991.6666666666715,
      "v": 100
    },
    {
      "midi": 64,
      "hit": false,
      "t": 77000,
      "d": 991.6666666666715,
      "v": 100
    },
    {
      "midi": 54,
      "hit": false,
      "t": 78000,
      "d": 991.6666666666715,
      "v": 100
    },
    {
      "midi": 56,
      "hit": false,
      "t": 78000,
      "d": 991.6666666666715,
      "v": 100
    },
    {
      "midi": 59,
      "hit": false,
      "t": 78000,
      "d": 991.6666666666715,
      "v": 100
    },
    {
      "midi": 64,
      "hit": false,
      "t": 78000,
      "d": 991.6666666666715,
      "v": 100
    },
    {
      "midi": 54,
      "hit": false,
      "t": 79000,
      "d": 991.6666666666715,
      "v": 100
    },
    {
      "midi": 58,
      "hit": false,
      "t": 79000,
      "d": 991.6666666666715,
      "v": 100
    },
    {
      "midi": 61,
      "hit": false,
      "t": 79000,
      "d": 991.6666666666715,
      "v": 100
    },
    {
      "midi": 66,
      "hit": false,
      "t": 79000,
      "d": 991.6666666666715,
      "v": 100
    }
  ]
}