{
  "jsonPath": "Rock/Progressive Bluegrass/Béla Fleck/three-part-invention-sinfonia-no-7-bwv-793.json",
  "path": "Rock\\Progressive Bluegrass\\Béla Fleck\\Three-Part Invention (Sinfonia) No 7 (BWV 793).mid",
  "name": "Three-Part Invention (Sinfonia) No 7 (BWV 793)",
  "difficulty": "Advanced",
  "bpm": 120,
  "notes": [
    {
      "midi": 52,
      "hit": false,
      "t": 62.5,
      "d": 1092.4479166666665,
      "v": 127
    },
    {
      "midi": 40,
      "hit": false,
      "t": 559.8958333333333,
      "d": 794.2708333333333,
      "v": 127
    },
    {
      "midi": 71,
      "hit": false,
      "t": 559.8958333333334,
      "d": 466.14583333333337,
      "v": 127
    },
    {
      "midi": 76,
      "hit": false,
      "t": 1036.4583333333333,
      "d": 466.14583333333326,
      "v": 127
    },
    {
      "midi": 78,
      "hit": false,
      "t": 1513.0208333333333,
      "d": 466.14583333333326,
      "v": 127
    },
    {
      "midi": 59,
      "hit": false,
      "t": 1513.0208333333335,
      "d": 466.14583333333326,
      "v": 127
    },
    {
      "midi": 64,
      "hit": false,
      "t": 1989.5833333333333,
      "d": 466.14583333333326,
      "v": 127
    },
    {
      "midi": 79,
      "hit": false,
      "t": 1989.5833333333333,
      "d": 1427.0833333333333,
      "v": 127
    },
    {
      "midi": 62,
      "hit": false,
      "t": 2466.1458333333335,
      "d": 466.1458333333335,
      "v": 127
    },
    {
      "midi": 60,
      "hit": false,
      "t": 2942.7083333333335,
      "d": 1427.0833333333335,
      "v": 127
    },
    {
      "midi": 78,
      "hit": false,
      "t": 3419.270833333333,
      "d": 466.1458333333335,
      "v": 127
    },
    {
      "midi": 81,
      "hit": false,
      "t": 3895.8333333333335,
      "d": 466.1458333333335,
      "v": 127
    },
    {
      "midi": 59,
      "hit": false,
      "t": 4372.395833333333,
      "d": 466.14583333333303,
      "v": 127
    },
    {
      "midi": 79,
      "hit": false,
      "t": 4372.395833333333,
      "d": 466.14583333333303,
      "v": 127
    },
    {
      "midi": 78,
      "hit": false,
      "t": 4848.958333333333,
      "d": 466.14583333333303,
      "v": 127
    },
    {
      "midi": 57,
      "hit": false,
      "t": 4848.958333333334,
      "d": 466.14583333333303,
      "v": 127
    },
    {
      "midi": 76,
      "hit": false,
      "t": 5325.520833333333,
      "d": 466.14583333333303,
      "v": 127
    },
    {
      "midi": 60,
      "hit": false,
      "t": 5325.520833333334,
      "d": 466.14583333333303,
      "v": 127
    },
    {
      "midi": 59,
      "hit": false,
      "t": 5802.083333333333,
      "d": 1427.083333333333,
      "v": 127
    },
    {
      "midi": 75,
      "hit": false,
      "t": 5802.083333333333,
      "d": 235.67708333333303,
      "v": 127
    },
    {
      "midi": 73,
      "hit": false,
      "t": 6040.364583333333,
      "d": 235.67708333333303,
      "v": 127
    },
    {
      "midi": 71,
      "hit": false,
      "t": 6278.645833333333,
      "d": 235.67708333333303,
      "v": 127
    },
    {
      "midi": 66,
      "hit": false,
      "t": 6278.645833333333,
      "d": 466.14583333333303,
      "v": 127
    },
    {
      "midi": 73,
      "hit": false,
      "t": 6516.927083333333,
      "d": 235.67708333333303,
      "v": 127
    },
    {
      "midi": 71,
      "hit": false,
      "t": 6755.208333333333,
      "d": 466.14583333333303,
      "v": 127
    },
    {
      "midi": 74,
      "hit": false,
      "t": 6755.208333333334,
      "d": 466.14583333333303,
      "v": 127
    },
    {
      "midi": 76,
      "hit": false,
      "t": 7231.770833333333,
      "d": 466.14583333333303,
      "v": 127
    },
    {
      "midi": 73,
      "hit": false,
      "t": 7231.770833333333,
      "d": 466.14583333333303,
      "v": 127
    },
    {
      "midi": 57,
      "hit": false,
      "t": 7231.770833333334,
      "d": 466.14583333333303,
      "v": 127
    },
    {
      "midi": 55,
      "hit": false,
      "t": 7708.333333333332,
      "d": 466.14583333333303,
      "v": 127
    },
    {
      "midi": 78,
      "hit": false,
      "t": 7708.333333333333,
      "d": 1427.083333333333,
      "v": 127
    },
    {
      "midi": 74,
      "hit": false,
      "t": 7708.333333333334,
      "d": 1427.083333333334,
      "v": 127
    },
    {
      "midi": 54,
      "hit": false,
      "t": 8184.895833333333,
      "d": 466.14583333333303,
      "v": 127
    },
    {
      "midi": 52,
      "hit": false,
      "t": 8661.458333333332,
      "d": 1427.083333333334,
      "v": 127
    },
    {
      "midi": 76,
      "hit": false,
      "t": 9138.020833333332,
      "d": 466.14583333333394,
      "v": 127
    },
    {
      "midi": 73,
      "hit": false,
      "t": 9138.020833333332,
      "d": 466.14583333333394,
      "v": 127
    },
    {
      "midi": 76,
      "hit": false,
      "t": 9614.583333333332,
      "d": 466.14583333333394,
      "v": 127
    },
    {
      "midi": 79,
      "hit": false,
      "t": 9614.583333333332,
      "d": 466.14583333333394,
      "v": 127
    },
    {
      "midi": 54,
      "hit": false,
      "t": 10091.145833333332,
      "d": 466.14583333333394,
      "v": 127
    },
    {
      "midi": 78,
      "hit": false,
      "t": 10091.145833333332,
      "d": 466.14583333333394,
      "v": 127
    },
    {
      "midi": 74,
      "hit": false,
      "t": 10091.145833333334,
      "d": 466.14583333333394,
      "v": 127
    },
    {
      "midi": 76,
      "hit": false,
      "t": 10567.708333333332,
      "d": 466.14583333333394,
      "v": 127
    },
    {
      "midi": 55,
      "hit": false,
      "t": 10567.708333333332,
      "d": 466.14583333333394,
      "v": 127
    },
    {
      "midi": 73,
      "hit": false,
      "t": 10567.708333333332,
      "d": 466.14583333333394,
      "v": 127
    },
    {
      "midi": 71,
      "hit": false,
      "t": 11044.270833333332,
      "d": 466.14583333333394,
      "v": 127
    },
    {
      "midi": 52,
      "hit": false,
      "t": 11044.270833333332,
      "d": 466.14583333333394,
      "v": 127
    },
    {
      "midi": 74,
      "hit": false,
      "t": 11044.270833333334,
      "d": 466.14583333333394,
      "v": 127
    },
    {
      "midi": 54,
      "hit": false,
      "t": 11520.833333333332,
      "d": 1188.802083333334,
      "v": 127
    },
    {
      "midi": 73,
      "hit": false,
      "t": 11520.833333333332,
      "d": 466.14583333333394,
      "v": 127
    },
    {
      "midi": 70,
      "hit": false,
      "t": 11520.833333333334,
      "d": 235.67708333333394,
      "v": 127
    },
    {
      "midi": 68,
      "hit": false,
      "t": 11759.114583333334,
      "d": 235.67708333333394,
      "v": 127
    },
    {
      "midi": 66,
      "hit": false,
      "t": 11997.395833333332,
      "d": 235.67708333333394,
      "v": 127
    },
    {
      "midi": 73,
      "hit": false,
      "t": 11997.395833333332,
      "d": 466.14583333333394,
      "v": 127
    },
    {
      "midi": 68,
      "hit": false,
      "t": 12235.677083333334,
      "d": 235.67708333333394,
      "v": 127
    },
    {
      "midi": 78,
      "hit": false,
      "t": 12473.958333333332,
      "d": 466.14583333333394,
      "v": 127
    },
    {
      "midi": 69,
      "hit": false,
      "t": 12473.958333333334,
      "d": 466.14583333333394,
      "v": 127
    },
    {
      "midi": 55,
      "hit": false,
      "t": 12712.239583333332,
      "d": 235.67708333333394,
      "v": 127
    },
    {
      "midi": 71,
      "hit": false,
      "t": 12950.520833333332,
      "d": 466.14583333333394,
      "v": 127
    },
    {
      "midi": 79,
      "hit": false,
      "t": 12950.520833333332,
      "d": 466.14583333333394,
      "v": 127
    },
    {
      "midi": 57,
      "hit": false,
      "t": 12950.520833333334,
      "d": 235.67708333333394,
      "v": 127
    },
    {
      "midi": 55,
      "hit": false,
      "t": 13188.802083333332,
      "d": 235.67708333333394,
      "v": 127
    },
    {
      "midi": 54,
      "hit": false,
      "t": 13427.083333333332,
      "d": 235.67708333333394,
      "v": 127
    },
    {
      "midi": 81,
      "hit": false,
      "t": 13427.083333333334,
      "d": 1427.083333333334,
      "v": 127
    },
    {
      "midi": 72,
      "hit": false,
      "t": 13427.083333333334,
      "d": 1427.083333333334,
      "v": 127
    },
    {
      "midi": 52,
      "hit": false,
      "t": 13665.364583333332,
      "d": 235.67708333333394,
      "v": 127
    },
    {
      "midi": 51,
      "hit": false,
      "t": 13903.645833333332,
      "d": 235.67708333333394,
      "v": 127
    },
    {
      "midi": 52,
      "hit": false,
      "t": 14141.927083333332,
      "d": 235.67708333333394,
      "v": 127
    },
    {
      "midi": 51,
      "hit": false,
      "t": 14380.208333333332,
      "d": 1191.40625,
      "v": 127
    },
    {
      "midi": 78,
      "hit": false,
      "t": 14856.770833333332,
      "d": 466.14583333333394,
      "v": 127
    },
    {
      "midi": 69,
      "hit": false,
      "t": 14856.770833333334,
      "d": 466.14583333333394,
      "v": 127
    },
    {
      "midi": 81,
      "hit": false,
      "t": 15333.333333333334,
      "d": 466.14583333333394,
      "v": 127
    },
    {
      "midi": 72,
      "hit": false,
      "t": 15333.333333333334,
      "d": 466.14583333333394,
      "v": 127
    },
    {
      "midi": 71,
      "hit": false,
      "t": 15809.895833333332,
      "d": 466.14583333333394,
      "v": 127
    },
    {
      "midi": 52,
      "hit": false,
      "t": 15809.895833333332,
      "d": 466.14583333333394,
      "v": 127
    },
    {
      "midi": 79,
      "hit": false,
      "t": 15809.895833333332,
      "d": 466.14583333333394,
      "v": 127
    },
    {
      "midi": 78,
      "hit": false,
      "t": 16286.458333333332,
      "d": 466.1458333333321,
      "v": 127
    },
    {
      "midi": 69,
      "hit": false,
      "t": 16286.458333333334,
      "d": 466.14583333333394,
      "v": 127
    },
    {
      "midi": 48,
      "hit": false,
      "t": 16286.458333333334,
      "d": 466.14583333333394,
      "v": 127
    },
    {
      "midi": 76,
      "hit": false,
      "t": 16763.020833333332,
      "d": 466.1458333333321,
      "v": 127
    },
    {
      "midi": 67,
      "hit": false,
      "t": 16763.020833333332,
      "d": 466.1458333333321,
      "v": 127
    },
    {
      "midi": 45,
      "hit": false,
      "t": 16763.020833333336,
      "d": 466.1458333333321,
      "v": 127
    },
    {
      "midi": 47,
      "hit": false,
      "t": 17239.583333333332,
      "d": 466.1458333333321,
      "v": 127
    },
    {
      "midi": 66,
      "hit": false,
      "t": 17239.583333333332,
      "d": 893.2291666666679,
      "v": 127
    },
    {
      "midi": 75,
      "hit": false,
      "t": 17239.583333333332,
      "d": 466.1458333333321,
      "v": 127
    },
    {
      "midi": 59,
      "hit": false,
      "t": 17716.145833333332,
      "d": 466.1458333333321,
      "v": 127
    },
    {
      "midi": 78,
      "hit": false,
      "t": 17716.145833333332,
      "d": 466.14583333333576,
      "v": 127
    },
    {
      "midi": 64,
      "hit": false,
      "t": 18192.708333333332,
      "d": 466.1458333333321,
      "v": 127
    },
    {
      "midi": 79,
      "hit": false,
      "t": 18192.708333333332,
      "d": 466.1458333333321,
      "v": 127
    },
    {
      "midi": 71,
      "hit": false,
      "t": 18669.270833333332,
      "d": 466.1458333333321,
      "v": 127
    },
    {
      "midi": 66,
      "hit": false,
      "t": 18669.270833333336,
      "d": 466.1458333333321,
      "v": 127
    },
    {
      "midi": 81,
      "hit": false,
      "t": 18669.270833333336,
      "d": 466.1458333333321,
      "v": 127
    },
    {
      "midi": 83,
      "hit": false,
      "t": 19145.833333333332,
      "d": 466.1458333333321,
      "v": 127
    },
    {
      "midi": 76,
      "hit": false,
      "t": 19145.833333333332,
      "d": 466.1458333333321,
      "v": 127
    },
    {
      "midi": 67,
      "hit": false,
      "t": 19145.833333333332,
      "d": 1427.0833333333321,
      "v": 127
    },
    {
      "midi": 79,
      "hit": false,
      "t": 19622.395833333332,
      "d": 466.1458333333321,
      "v": 127
    },
    {
      "midi": 74,
      "hit": false,
      "t": 19622.395833333336,
      "d": 466.1458333333321,
      "v": 127
    },
    {
      "midi": 76,
      "hit": false,
      "t": 20098.958333333332,
      "d": 1427.0833333333321,
      "v": 127
    },
    {
      "midi": 73,
      "hit": false,
      "t": 20098.958333333332,
      "d": 1427.0833333333321,
      "v": 127
    },
    {
      "midi": 66,
      "hit": false,
      "t": 20575.520833333336,
      "d": 466.1458333333321,
      "v": 127
    },
    {
      "midi": 69,
      "hit": false,
      "t": 21052.083333333336,
      "d": 466.1458333333321,
      "v": 127
    },
    {
      "midi": 76,
      "hit": false,
      "t": 21528.645833333332,
      "d": 466.1458333333321,
      "v": 127
    },
    {
      "midi": 67,
      "hit": false,
      "t": 21528.645833333332,
      "d": 466.1458333333321,
      "v": 127
    },
    {
      "midi": 73,
      "hit": false,
      "t": 21528.645833333332,
      "d": 466.1458333333321,
      "v": 127
    },
    {
      "midi": 75,
      "hit": false,
      "t": 22005.208333333332,
      "d": 466.1458333333321,
      "v": 127
    },
    {
      "midi": 66,
      "hit": false,
      "t": 22005.208333333336,
      "d": 466.1458333333321,
      "v": 127
    },
    {
      "midi": 78,
      "hit": false,
      "t": 22005.208333333336,
      "d": 466.1458333333321,
      "v": 127
    },
    {
      "midi": 64,
      "hit": false,
      "t": 22481.770833333332,
      "d": 466.1458333333321,
      "v": 127
    },
    {
      "midi": 76,
      "hit": false,
      "t": 22481.770833333332,
      "d": 466.1458333333321,
      "v": 127
    },
    {
      "midi": 79,
      "hit": false,
      "t": 22481.770833333332,
      "d": 466.1458333333321,
      "v": 127
    },
    {
      "midi": 63,
      "hit": false,
      "t": 22958.333333333332,
      "d": 466.1458333333321,
      "v": 127
    },
    {
      "midi": 78,
      "hit": false,
      "t": 22958.333333333336,
      "d": 1427.0833333333321,
      "v": 127
    },
    {
      "midi": 81,
      "hit": false,
      "t": 22958.333333333336,
      "d": 950.5208333333321,
      "v": 127
    },
    {
      "midi": 59,
      "hit": false,
      "t": 23434.895833333332,
      "d": 466.1458333333321,
      "v": 127
    },
    {
      "midi": 64,
      "hit": false,
      "t": 23911.458333333332,
      "d": 466.1458333333321,
      "v": 127
    },
    {
      "midi": 79,
      "hit": false,
      "t": 23911.458333333332,
      "d": 2380.208333333332,
      "v": 127
    },
    {
      "midi": 71,
      "hit": false,
      "t": 24388.020833333332,
      "d": 466.1458333333321,
      "v": 127
    },
    {
      "midi": 62,
      "hit": false,
      "t": 24388.020833333336,
      "d": 466.1458333333321,
      "v": 127
    },
    {
      "midi": 76,
      "hit": false,
      "t": 24864.583333333332,
      "d": 466.1458333333321,
      "v": 127
    },
    {
      "midi": 61,
      "hit": false,
      "t": 24864.583333333332,
      "d": 466.1458333333321,
      "v": 127
    },
    {
      "midi": 59,
      "hit": false,
      "t": 25341.145833333332,
      "d": 466.1458333333321,
      "v": 127
    },
    {
      "midi": 74,
      "hit": false,
      "t": 25341.145833333336,
      "d": 466.1458333333321,
      "v": 127
    },
    {
      "midi": 73,
      "hit": false,
      "t": 25817.708333333332,
      "d": 1427.0833333333321,
      "v": 127
    },
    {
      "midi": 58,
      "hit": false,
      "t": 25817.708333333336,
      "d": 1427.0833333333321,
      "v": 127
    },
    {
      "midi": 76,
      "hit": false,
      "t": 26294.270833333332,
      "d": 466.1458333333321,
      "v": 127
    },
    {
      "midi": 79,
      "hit": false,
      "t": 26770.833333333332,
      "d": 466.1458333333321,
      "v": 127
    },
    {
      "midi": 59,
      "hit": false,
      "t": 27247.395833333332,
      "d": 466.1458333333321,
      "v": 127
    },
    {
      "midi": 78,
      "hit": false,
      "t": 27247.395833333336,
      "d": 466.1458333333321,
      "v": 127
    },
    {
      "midi": 74,
      "hit": false,
      "t": 27247.395833333336,
      "d": 466.1458333333321,
      "v": 127
    },
    {
      "midi": 76,
      "hit": false,
      "t": 27723.958333333332,
      "d": 466.1458333333321,
      "v": 127
    },
    {
      "midi": 61,
      "hit": false,
      "t": 27723.958333333332,
      "d": 466.1458333333321,
      "v": 127
    },
    {
      "midi": 73,
      "hit": false,
      "t": 27723.958333333332,
      "d": 466.1458333333321,
      "v": 127
    },
    {
      "midi": 71,
      "hit": false,
      "t": 28200.520833333332,
      "d": 466.1458333333321,
      "v": 127
    },
    {
      "midi": 62,
      "hit": false,
      "t": 28200.520833333336,
      "d": 466.1458333333321,
      "v": 127
    },
    {
      "midi": 74,
      "hit": false,
      "t": 28200.520833333336,
      "d": 466.1458333333321,
      "v": 127
    },
    {
      "midi": 64,
      "hit": false,
      "t": 28677.083333333332,
      "d": 235.67708333333212,
      "v": 127
    },
    {
      "midi": 73,
      "hit": false,
      "t": 28677.083333333332,
      "d": 1427.0833333333321,
      "v": 127
    },
    {
      "midi": 70,
      "hit": false,
      "t": 28677.083333333336,
      "d": 1427.0833333333321,
      "v": 127
    },
    {
      "midi": 62,
      "hit": false,
      "t": 28915.364583333336,
      "d": 235.67708333333212,
      "v": 127
    },
    {
      "midi": 64,
      "hit": false,
      "t": 29153.645833333332,
      "d": 235.67708333333212,
      "v": 127
    },
    {
      "midi": 66,
      "hit": false,
      "t": 29391.927083333336,
      "d": 235.67708333333212,
      "v": 127
    },
    {
      "midi": 67,
      "hit": false,
      "t": 29630.208333333332,
      "d": 466.1458333333321,
      "v": 127
    },
    {
      "midi": 71,
      "hit": false,
      "t": 30106.770833333332,
      "d": 466.1458333333321,
      "v": 127
    },
    {
      "midi": 66,
      "hit": false,
      "t": 30106.770833333336,
      "d": 466.1458333333321,
      "v": 127
    },
    {
      "midi": 74,
      "hit": false,
      "t": 30106.770833333336,
      "d": 466.1458333333321,
      "v": 127
    },
    {
      "midi": 64,
      "hit": false,
      "t": 30583.333333333332,
      "d": 466.1458333333321,
      "v": 127
    },
    {
      "midi": 76,
      "hit": false,
      "t": 30583.333333333332,
      "d": 466.1458333333321,
      "v": 127
    },
    {
      "midi": 73,
      "hit": false,
      "t": 30583.333333333332,
      "d": 466.1458333333321,
      "v": 127
    },
    {
      "midi": 78,
      "hit": false,
      "t": 31059.895833333336,
      "d": 466.1458333333321,
      "v": 127
    },
    {
      "midi": 62,
      "hit": false,
      "t": 31059.895833333336,
      "d": 466.1458333333321,
      "v": 127
    },
    {
      "midi": 74,
      "hit": false,
      "t": 31059.895833333336,
      "d": 466.1458333333321,
      "v": 127
    },
    {
      "midi": 76,
      "hit": false,
      "t": 31536.458333333332,
      "d": 466.1458333333321,
      "v": 127
    },
    {
      "midi": 79,
      "hit": false,
      "t": 31536.458333333332,
      "d": 950.5208333333321,
      "v": 127
    },
    {
      "midi": 61,
      "hit": false,
      "t": 31536.458333333332,
      "d": 466.1458333333321,
      "v": 127
    },
    {
      "midi": 59,
      "hit": false,
      "t": 32013.020833333332,
      "d": 466.1458333333321,
      "v": 127
    },
    {
      "midi": 74,
      "hit": false,
      "t": 32013.020833333336,
      "d": 466.1458333333321,
      "v": 127
    },
    {
      "midi": 73,
      "hit": false,
      "t": 32489.583333333332,
      "d": 1427.0833333333321,
      "v": 127
    },
    {
      "midi": 78,
      "hit": false,
      "t": 32489.583333333336,
      "d": 466.14583333333576,
      "v": 127
    },
    {
      "midi": 58,
      "hit": false,
      "t": 32489.583333333336,
      "d": 466.14583333333576,
      "v": 127
    },
    {
      "midi": 76,
      "hit": false,
      "t": 32966.14583333333,
      "d": 466.14583333333576,
      "v": 127
    },
    {
      "midi": 54,
      "hit": false,
      "t": 32966.145833333336,
      "d": 466.14583333333576,
      "v": 127
    },
    {
      "midi": 59,
      "hit": false,
      "t": 33442.70833333333,
      "d": 466.14583333333576,
      "v": 127
    },
    {
      "midi": 74,
      "hit": false,
      "t": 33442.708333333336,
      "d": 1427.0833333333358,
      "v": 127
    },
    {
      "midi": 66,
      "hit": false,
      "t": 33919.270833333336,
      "d": 466.14583333333576,
      "v": 127
    },
    {
      "midi": 57,
      "hit": false,
      "t": 33919.270833333336,
      "d": 466.14583333333576,
      "v": 127
    },
    {
      "midi": 71,
      "hit": false,
      "t": 34395.83333333333,
      "d": 1903.6458333333358,
      "v": 127
    },
    {
      "midi": 55,
      "hit": false,
      "t": 34395.83333333333,
      "d": 466.14583333333576,
      "v": 127
    },
    {
      "midi": 52,
      "hit": false,
      "t": 34872.39583333333,
      "d": 466.14583333333576,
      "v": 127
    },
    {
      "midi": 73,
      "hit": false,
      "t": 34872.39583333333,
      "d": 466.14583333333576,
      "v": 127
    },
    {
      "midi": 76,
      "hit": false,
      "t": 35348.95833333333,
      "d": 466.14583333333576,
      "v": 127
    },
    {
      "midi": 54,
      "hit": false,
      "t": 35348.958333333336,
      "d": 950.5208333333358,
      "v": 127
    },
    {
      "midi": 74,
      "hit": false,
      "t": 35825.520833333336,
      "d": 466.14583333333576,
      "v": 127
    },
    {
      "midi": 73,
      "hit": false,
      "t": 36302.08333333333,
      "d": 466.14583333333576,
      "v": 127
    },
    {
      "midi": 42,
      "hit": false,
      "t": 36302.083333333336,
      "d": 950.5208333333358,
      "v": 127
    },
    {
      "midi": 70,
      "hit": false,
      "t": 36302.083333333336,
      "d": 942.7083333333358,
      "v": 127
    },
    {
      "midi": 71,
      "hit": false,
      "t": 36778.64583333333,
      "d": 466.14583333333576,
      "v": 127
    },
    {
      "midi": 47,
      "hit": false,
      "t": 37255.20833333333,
      "d": 235.67708333333576,
      "v": 127
    },
    {
      "midi": 71,
      "hit": false,
      "t": 37255.20833333333,
      "d": 942.7083333333358,
      "v": 127
    },
    {
      "midi": 54,
      "hit": false,
      "t": 37493.489583333336,
      "d": 235.67708333333576,
      "v": 127
    },
    {
      "midi": 59,
      "hit": false,
      "t": 37731.77083333333,
      "d": 466.14583333333576,
      "v": 127
    },
    {
      "midi": 57,
      "hit": false,
      "t": 37970.052083333336,
      "d": 235.67708333333576,
      "v": 127
    },
    {
      "midi": 64,
      "hit": false,
      "t": 38208.33333333333,
      "d": 466.14583333333576,
      "v": 127
    },
    {
      "midi": 55,
      "hit": false,
      "t": 38208.33333333333,
      "d": 235.67708333333576,
      "v": 127
    },
    {
      "midi": 59,
      "hit": false,
      "t": 38446.61458333333,
      "d": 235.67708333333576,
      "v": 127
    },
    {
      "midi": 55,
      "hit": false,
      "t": 38684.89583333333,
      "d": 235.67708333333576,
      "v": 127
    },
    {
      "midi": 66,
      "hit": false,
      "t": 38684.895833333336,
      "d": 466.14583333333576,
      "v": 127
    },
    {
      "midi": 54,
      "hit": false,
      "t": 38923.177083333336,
      "d": 235.67708333333576,
      "v": 127
    },
    {
      "midi": 52,
      "hit": false,
      "t": 39161.45833333333,
      "d": 235.67708333333576,
      "v": 127
    },
    {
      "midi": 67,
      "hit": false,
      "t": 39161.45833333333,
      "d": 1427.0833333333358,
      "v": 127
    },
    {
      "midi": 59,
      "hit": false,
      "t": 39399.73958333333,
      "d": 235.67708333333576,
      "v": 127
    },
    {
      "midi": 52,
      "hit": false,
      "t": 39638.02083333333,
      "d": 235.67708333333576,
      "v": 127
    },
    {
      "midi": 50,
      "hit": false,
      "t": 39876.302083333336,
      "d": 235.67708333333576,
      "v": 127
    },
    {
      "midi": 48,
      "hit": false,
      "t": 40114.583333333336,
      "d": 235.67708333333576,
      "v": 127
    },
    {
      "midi": 55,
      "hit": false,
      "t": 40352.86458333333,
      "d": 235.67708333333576,
      "v": 127
    },
    {
      "midi": 52,
      "hit": false,
      "t": 40591.14583333333,
      "d": 235.67708333333576,
      "v": 127
    },
    {
      "midi": 66,
      "hit": false,
      "t": 40591.145833333336,
      "d": 466.14583333333576,
      "v": 127
    },
    {
      "midi": 50,
      "hit": false,
      "t": 40829.427083333336,
      "d": 235.67708333333576,
      "v": 127
    },
    {
      "midi": 69,
      "hit": false,
      "t": 41067.708333333336,
      "d": 466.14583333333576,
      "v": 127
    },
    {
      "midi": 48,
      "hit": false,
      "t": 41067.708333333336,
      "d": 235.67708333333576,
      "v": 127
    },
    {
      "midi": 52,
      "hit": false,
      "t": 41305.98958333333,
      "d": 235.67708333333576,
      "v": 127
    },
    {
      "midi": 67,
      "hit": false,
      "t": 41544.27083333333,
      "d": 466.14583333333576,
      "v": 127
    },
    {
      "midi": 48,
      "hit": false,
      "t": 41544.270833333336,
      "d": 235.67708333333576,
      "v": 127
    },
    {
      "midi": 47,
      "hit": false,
      "t": 41782.55208333333,
      "d": 235.67708333333576,
      "v": 127
    },
    {
      "midi": 66,
      "hit": false,
      "t": 42020.833333333336,
      "d": 466.14583333333576,
      "v": 127
    },
    {
      "midi": 45,
      "hit": false,
      "t": 42020.833333333336,
      "d": 235.67708333333576,
      "v": 127
    },
    {
      "midi": 47,
      "hit": false,
      "t": 42259.11458333333,
      "d": 235.67708333333576,
      "v": 127
    },
    {
      "midi": 64,
      "hit": false,
      "t": 42497.39583333333,
      "d": 466.14583333333576,
      "v": 127
    },
    {
      "midi": 48,
      "hit": false,
      "t": 42497.395833333336,
      "d": 235.67708333333576,
      "v": 127
    },
    {
      "midi": 45,
      "hit": false,
      "t": 42735.677083333336,
      "d": 235.67708333333576,
      "v": 127
    },
    {
      "midi": 47,
      "hit": false,
      "t": 42973.95833333333,
      "d": 235.67708333333576,
      "v": 127
    },
    {
      "midi": 63,
      "hit": false,
      "t": 42973.95833333333,
      "d": 390.625,
      "v": 127
    },
    {
      "midi": 55,
      "hit": false,
      "t": 43212.23958333333,
      "d": 235.67708333333576,
      "v": 127
    },
    {
      "midi": 54,
      "hit": false,
      "t": 43450.520833333336,
      "d": 235.67708333333576,
      "v": 127
    },
    {
      "midi": 66,
      "hit": false,
      "t": 43450.520833333336,
      "d": 466.14583333333576,
      "v": 127
    },
    {
      "midi": 52,
      "hit": false,
      "t": 43688.80208333333,
      "d": 235.67708333333576,
      "v": 127
    },
    {
      "midi": 71,
      "hit": false,
      "t": 43927.08333333333,
      "d": 466.14583333333576,
      "v": 127
    },
    {
      "midi": 50,
      "hit": false,
      "t": 43927.083333333336,
      "d": 235.67708333333576,
      "v": 127
    },
    {
      "midi": 54,
      "hit": false,
      "t": 44165.364583333336,
      "d": 235.67708333333576,
      "v": 127
    },
    {
      "midi": 73,
      "hit": false,
      "t": 44403.64583333333,
      "d": 466.14583333333576,
      "v": 127
    },
    {
      "midi": 66,
      "hit": false,
      "t": 44403.645833333336,
      "d": 466.14583333333576,
      "v": 127
    },
    {
      "midi": 50,
      "hit": false,
      "t": 44403.645833333336,
      "d": 235.67708333333576,
      "v": 127
    },
    {
      "midi": 49,
      "hit": false,
      "t": 44641.92708333333,
      "d": 235.67708333333576,
      "v": 127
    },
    {
      "midi": 47,
      "hit": false,
      "t": 44880.20833333333,
      "d": 235.67708333333576,
      "v": 127
    },
    {
      "midi": 71,
      "hit": false,
      "t": 44880.20833333333,
      "d": 235.67708333333576,
      "v": 127
    },
    {
      "midi": 74,
      "hit": false,
      "t": 44880.208333333336,
      "d": 1427.0833333333358,
      "v": 127
    },
    {
      "midi": 54,
      "hit": false,
      "t": 45118.489583333336,
      "d": 235.67708333333576,
      "v": 127
    },
    {
      "midi": 69,
      "hit": false,
      "t": 45118.489583333336,
      "d": 235.67708333333576,
      "v": 127
    },
    {
      "midi": 47,
      "hit": false,
      "t": 45356.77083333333,
      "d": 235.67708333333576,
      "v": 127
    },
    {
      "midi": 67,
      "hit": false,
      "t": 45356.77083333333,
      "d": 235.67708333333576,
      "v": 127
    },
    {
      "midi": 66,
      "hit": false,
      "t": 45595.052083333336,
      "d": 235.67708333333576,
      "v": 127
    },
    {
      "midi": 45,
      "hit": false,
      "t": 45595.052083333336,
      "d": 235.67708333333576,
      "v": 127
    },
    {
      "midi": 64,
      "hit": false,
      "t": 45833.33333333333,
      "d": 1427.0833333333358,
      "v": 127
    },
    {
      "midi": 43,
      "hit": false,
      "t": 45833.33333333333,
      "d": 235.67708333333576,
      "v": 127
    },
    {
      "midi": 50,
      "hit": false,
      "t": 46071.614583333336,
      "d": 235.67708333333576,
      "v": 127
    },
    {
      "midi": 47,
      "hit": false,
      "t": 46309.89583333333,
      "d": 235.67708333333576,
      "v": 127
    },
    {
      "midi": 73,
      "hit": false,
      "t": 46309.89583333333,
      "d": 466.14583333333576,
      "v": 127
    },
    {
      "midi": 45,
      "hit": false,
      "t": 46548.177083333336,
      "d": 235.67708333333576,
      "v": 127
    },
    {
      "midi": 76,
      "hit": false,
      "t": 46786.45833333333,
      "d": 466.14583333333576,
      "v": 127
    },
    {
      "midi": 43,
      "hit": false,
      "t": 46786.45833333333,
      "d": 235.67708333333576,
      "v": 127
    },
    {
      "midi": 47,
      "hit": false,
      "t": 47024.73958333333,
      "d": 235.67708333333576,
      "v": 127
    },
    {
      "midi": 43,
      "hit": false,
      "t": 47263.02083333333,
      "d": 235.67708333333576,
      "v": 127
    },
    {
      "midi": 66,
      "hit": false,
      "t": 47263.020833333336,
      "d": 466.14583333333576,
      "v": 127
    },
    {
      "midi": 74,
      "hit": false,
      "t": 47263.020833333336,
      "d": 466.14583333333576,
      "v": 127
    },
    {
      "midi": 42,
      "hit": false,
      "t": 47501.302083333336,
      "d": 235.67708333333576,
      "v": 127
    },
    {
      "midi": 40,
      "hit": false,
      "t": 47739.58333333333,
      "d": 235.67708333333576,
      "v": 127
    },
    {
      "midi": 67,
      "hit": false,
      "t": 47739.58333333333,
      "d": 466.14583333333576,
      "v": 127
    },
    {
      "midi": 73,
      "hit": false,
      "t": 47739.58333333333,
      "d": 466.14583333333576,
      "v": 127
    },
    {
      "midi": 42,
      "hit": false,
      "t": 47977.864583333336,
      "d": 235.67708333333576,
      "v": 127
    },
    {
      "midi": 71,
      "hit": false,
      "t": 48216.14583333333,
      "d": 466.14583333333576,
      "v": 127
    },
    {
      "midi": 64,
      "hit": false,
      "t": 48216.14583333333,
      "d": 466.14583333333576,
      "v": 127
    },
    {
      "midi": 43,
      "hit": false,
      "t": 48216.14583333333,
      "d": 235.67708333333576,
      "v": 127
    },
    {
      "midi": 40,
      "hit": false,
      "t": 48454.42708333333,
      "d": 235.67708333333576,
      "v": 127
    },
    {
      "midi": 61,
      "hit": false,
      "t": 48692.70833333333,
      "d": 222.65625,
      "v": 127
    },
    {
      "midi": 42,
      "hit": false,
      "t": 48692.708333333336,
      "d": 466.14583333333576,
      "v": 127
    },
    {
      "midi": 70,
      "hit": false,
      "t": 48692.708333333336,
      "d": 235.67708333333576,
      "v": 127
    },
    {
      "midi": 78,
      "hit": false,
      "t": 48930.989583333336,
      "d": 235.67708333333576,
      "v": 127
    },
    {
      "midi": 76,
      "hit": false,
      "t": 49169.27083333333,
      "d": 235.67708333333576,
      "v": 127
    },
    {
      "midi": 54,
      "hit": false,
      "t": 49169.270833333336,
      "d": 466.14583333333576,
      "v": 127
    },
    {
      "midi": 74,
      "hit": false,
      "t": 49407.552083333336,
      "d": 235.67708333333576,
      "v": 127
    },
    {
      "midi": 73,
      "hit": false,
      "t": 49645.83333333333,
      "d": 235.67708333333576,
      "v": 127
    },
    {
      "midi": 61,
      "hit": false,
      "t": 49645.83333333333,
      "d": 466.14583333333576,
      "v": 127
    },
    {
      "midi": 58,
      "hit": false,
      "t": 49645.833333333336,
      "d": 466.14583333333576,
      "v": 127
    },
    {
      "midi": 78,
      "hit": false,
      "t": 49884.114583333336,
      "d": 235.67708333333576,
      "v": 127
    },
    {
      "midi": 59,
      "hit": false,
      "t": 50122.39583333333,
      "d": 466.14583333333576,
      "v": 127
    },
    {
      "midi": 73,
      "hit": false,
      "t": 50122.39583333333,
      "d": 235.67708333333576,
      "v": 127
    },
    {
      "midi": 62,
      "hit": false,
      "t": 50122.395833333336,
      "d": 466.14583333333576,
      "v": 127
    },
    {
      "midi": 71,
      "hit": false,
      "t": 50360.67708333333,
      "d": 235.67708333333576,
      "v": 127
    },
    {
      "midi": 64,
      "hit": false,
      "t": 50598.95833333333,
      "d": 942.7083333333358,
      "v": 127
    },
    {
      "midi": 61,
      "hit": false,
      "t": 50598.95833333333,
      "d": 466.14583333333576,
      "v": 127
    },
    {
      "midi": 70,
      "hit": false,
      "t": 50598.958333333336,
      "d": 235.67708333333576,
      "v": 127
    },
    {
      "midi": 73,
      "hit": false,
      "t": 50837.23958333333,
      "d": 235.67708333333576,
      "v": 127
    },
    {
      "midi": 54,
      "hit": false,
      "t": 51075.520833333336,
      "d": 466.14583333333576,
      "v": 127
    },
    {
      "midi": 70,
      "hit": false,
      "t": 51075.520833333336,
      "d": 235.67708333333576,
      "v": 127
    },
    {
      "midi": 68,
      "hit": false,
      "t": 51313.80208333333,
      "d": 235.67708333333576,
      "v": 127
    },
    {
      "midi": 59,
      "hit": false,
      "t": 51552.08333333333,
      "d": 1427.0833333333358,
      "v": 127
    },
    {
      "midi": 66,
      "hit": false,
      "t": 51552.083333333336,
      "d": 235.67708333333576,
      "v": 127
    },
    {
      "midi": 67,
      "hit": false,
      "t": 51790.36458333333,
      "d": 235.67708333333576,
      "v": 127
    },
    {
      "midi": 66,
      "hit": false,
      "t": 52028.645833333336,
      "d": 235.67708333333576,
      "v": 127
    },
    {
      "midi": 64,
      "hit": false,
      "t": 52266.92708333333,
      "d": 235.67708333333576,
      "v": 127
    },
    {
      "midi": 62,
      "hit": false,
      "t": 52505.208333333336,
      "d": 235.67708333333576,
      "v": 127
    },
    {
      "midi": 66,
      "hit": false,
      "t": 52743.489583333336,
      "d": 235.67708333333576,
      "v": 127
    },
    {
      "midi": 47,
      "hit": false,
      "t": 52981.77083333333,
      "d": 466.14583333333576,
      "v": 127
    },
    {
      "midi": 62,
      "hit": false,
      "t": 52981.770833333336,
      "d": 235.67708333333576,
      "v": 127
    },
    {
      "midi": 61,
      "hit": false,
      "t": 53220.05208333333,
      "d": 235.67708333333576,
      "v": 127
    },
    {
      "midi": 59,
      "hit": false,
      "t": 53458.33333333333,
      "d": 235.67708333333576,
      "v": 127
    },
    {
      "midi": 49,
      "hit": false,
      "t": 53458.33333333333,
      "d": 466.14583333333576,
      "v": 127
    },
    {
      "midi": 78,
      "hit": false,
      "t": 53458.333333333336,
      "d": 1188.8020833333358,
      "v": 127
    },
    {
      "midi": 66,
      "hit": false,
      "t": 53696.614583333336,
      "d": 235.67708333333576,
      "v": 127
    },
    {
      "midi": 59,
      "hit": false,
      "t": 53934.89583333333,
      "d": 235.67708333333576,
      "v": 127
    },
    {
      "midi": 50,
      "hit": false,
      "t": 53934.895833333336,
      "d": 466.14583333333576,
      "v": 127
    },
    {
      "midi": 57,
      "hit": false,
      "t": 54173.177083333336,
      "d": 235.67708333333576,
      "v": 127
    },
    {
      "midi": 52,
      "hit": false,
      "t": 54411.45833333333,
      "d": 1191.40625,
      "v": 127
    },
    {
      "midi": 55,
      "hit": false,
      "t": 54411.45833333333,
      "d": 1191.40625,
      "v": 127
    },
    {
      "midi": 83,
      "hit": false,
      "t": 54649.73958333333,
      "d": 235.67708333333576,
      "v": 127
    },
    {
      "midi": 79,
      "hit": false,
      "t": 54888.02083333333,
      "d": 235.67708333333576,
      "v": 127
    },
    {
      "midi": 78,
      "hit": false,
      "t": 55126.302083333336,
      "d": 235.67708333333576,
      "v": 127
    },
    {
      "midi": 76,
      "hit": false,
      "t": 55364.58333333333,
      "d": 235.67708333333576,
      "v": 127
    },
    {
      "midi": 79,
      "hit": false,
      "t": 55602.86458333333,
      "d": 235.67708333333576,
      "v": 127
    },
    {
      "midi": 76,
      "hit": false,
      "t": 55841.14583333333,
      "d": 235.67708333333576,
      "v": 127
    },
    {
      "midi": 54,
      "hit": false,
      "t": 55841.145833333336,
      "d": 466.14583333333576,
      "v": 127
    },
    {
      "midi": 74,
      "hit": false,
      "t": 56079.427083333336,
      "d": 235.67708333333576,
      "v": 127
    },
    {
      "midi": 52,
      "hit": false,
      "t": 56317.70833333333,
      "d": 466.14583333333576,
      "v": 127
    },
    {
      "midi": 67,
      "hit": false,
      "t": 56317.70833333333,
      "d": 1188.8020833333358,
      "v": 127
    },
    {
      "midi": 73,
      "hit": false,
      "t": 56317.70833333333,
      "d": 235.67708333333576,
      "v": 127
    },
    {
      "midi": 79,
      "hit": false,
      "t": 56555.98958333333,
      "d": 235.67708333333576,
      "v": 127
    },
    {
      "midi": 73,
      "hit": false,
      "t": 56794.27083333333,
      "d": 235.67708333333576,
      "v": 127
    },
    {
      "midi": 50,
      "hit": false,
      "t": 56794.270833333336,
      "d": 466.14583333333576,
      "v": 127
    },
    {
      "midi": 71,
      "hit": false,
      "t": 57032.55208333333,
      "d": 235.67708333333576,
      "v": 127
    },
    {
      "midi": 49,
      "hit": false,
      "t": 57270.83333333333,
      "d": 1191.40625,
      "v": 127
    },
    {
      "midi": 69,
      "hit": false,
      "t": 57270.833333333336,
      "d": 1191.40625,
      "v": 127
    },
    {
      "midi": 67,
      "hit": false,
      "t": 57509.11458333333,
      "d": 235.67708333333576,
      "v": 127
    },
    {
      "midi": 64,
      "hit": false,
      "t": 57747.39583333333,
      "d": 235.67708333333576,
      "v": 127
    },
    {
      "midi": 62,
      "hit": false,
      "t": 57985.677083333336,
      "d": 235.67708333333576,
      "v": 127
    },
    {
      "midi": 61,
      "hit": false,
      "t": 58223.95833333333,
      "d": 235.67708333333576,
      "v": 127
    },
    {
      "midi": 64,
      "hit": false,
      "t": 58462.23958333333,
      "d": 235.67708333333576,
      "v": 127
    },
    {
      "midi": 61,
      "hit": false,
      "t": 58700.52083333333,
      "d": 235.67708333333576,
      "v": 127
    },
    {
      "midi": 45,
      "hit": false,
      "t": 58700.520833333336,
      "d": 466.14583333333576,
      "v": 127
    },
    {
      "midi": 59,
      "hit": false,
      "t": 58938.80208333333,
      "d": 235.67708333333576,
      "v": 127
    },
    {
      "midi": 47,
      "hit": false,
      "t": 59177.08333333333,
      "d": 466.14583333333576,
      "v": 127
    },
    {
      "midi": 76,
      "hit": false,
      "t": 59177.08333333333,
      "d": 1188.8020833333358,
      "v": 127
    },
    {
      "midi": 57,
      "hit": false,
      "t": 59177.083333333336,
      "d": 235.67708333333576,
      "v": 127
    },
    {
      "midi": 64,
      "hit": false,
      "t": 59415.36458333333,
      "d": 235.67708333333576,
      "v": 127
    },
    {
      "midi": 49,
      "hit": false,
      "t": 59653.64583333333,
      "d": 466.14583333333576,
      "v": 127
    },
    {
      "midi": 57,
      "hit": false,
      "t": 59653.645833333336,
      "d": 235.67708333333576,
      "v": 127
    },
    {
      "midi": 55,
      "hit": false,
      "t": 59891.92708333333,
      "d": 235.67708333333576,
      "v": 127
    },
    {
      "midi": 54,
      "hit": false,
      "t": 60130.208333333336,
      "d": 1191.40625,
      "v": 127
    },
    {
      "midi": 50,
      "hit": false,
      "t": 60130.208333333336,
      "d": 1191.40625,
      "v": 127
    },
    {
      "midi": 81,
      "hit": false,
      "t": 60368.489583333336,
      "d": 235.67708333333576,
      "v": 127
    },
    {
      "midi": 78,
      "hit": false,
      "t": 60606.770833333336,
      "d": 235.67708333333576,
      "v": 127
    },
    {
      "midi": 76,
      "hit": false,
      "t": 60845.05208333333,
      "d": 235.67708333333576,
      "v": 127
    },
    {
      "midi": 74,
      "hit": false,
      "t": 61083.333333333336,
      "d": 235.67708333333576,
      "v": 127
    },
    {
      "midi": 78,
      "hit": false,
      "t": 61321.614583333336,
      "d": 235.67708333333576,
      "v": 127
    },
    {
      "midi": 52,
      "hit": false,
      "t": 61559.89583333333,
      "d": 466.14583333333576,
      "v": 127
    },
    {
      "midi": 74,
      "hit": false,
      "t": 61559.895833333336,
      "d": 235.67708333333576,
      "v": 127
    },
    {
      "midi": 73,
      "hit": false,
      "t": 61798.17708333333,
      "d": 235.67708333333576,
      "v": 127
    },
    {
      "midi": 71,
      "hit": false,
      "t": 62036.45833333333,
      "d": 235.67708333333576,
      "v": 127
    },
    {
      "midi": 66,
      "hit": false,
      "t": 62036.458333333336,
      "d": 1427.0833333333358,
      "v": 127
    },
    {
      "midi": 50,
      "hit": false,
      "t": 62036.458333333336,
      "d": 466.14583333333576,
      "v": 127
    },
    {
      "midi": 78,
      "hit": false,
      "t": 62274.739583333336,
      "d": 235.67708333333576,
      "v": 127
    },
    {
      "midi": 71,
      "hit": false,
      "t": 62513.02083333333,
      "d": 235.67708333333576,
      "v": 127
    },
    {
      "midi": 49,
      "hit": false,
      "t": 62513.02083333333,
      "d": 466.14583333333576,
      "v": 127
    },
    {
      "midi": 69,
      "hit": false,
      "t": 62751.302083333336,
      "d": 235.67708333333576,
      "v": 127
    },
    {
      "midi": 47,
      "hit": false,
      "t": 62989.58333333333,
      "d": 235.67708333333576,
      "v": 127
    },
    {
      "midi": 67,
      "hit": false,
      "t": 62989.58333333333,
      "d": 4467.4479166666715,
      "v": 127
    },
    {
      "midi": 59,
      "hit": false,
      "t": 63227.86458333333,
      "d": 235.67708333333576,
      "v": 127
    },
    {
      "midi": 64,
      "hit": false,
      "t": 63466.14583333333,
      "d": 235.67708333333576,
      "v": 127
    },
    {
      "midi": 55,
      "hit": false,
      "t": 63466.14583333333,
      "d": 235.67708333333576,
      "v": 127
    },
    {
      "midi": 54,
      "hit": false,
      "t": 63704.427083333336,
      "d": 235.67708333333576,
      "v": 127
    },
    {
      "midi": 62,
      "hit": false,
      "t": 63704.427083333336,
      "d": 235.67708333333576,
      "v": 127
    },
    {
      "midi": 52,
      "hit": false,
      "t": 63942.70833333333,
      "d": 235.67708333333576,
      "v": 127
    },
    {
      "midi": 61,
      "hit": false,
      "t": 63942.70833333333,
      "d": 235.67708333333576,
      "v": 127
    },
    {
      "midi": 64,
      "hit": false,
      "t": 64180.98958333333,
      "d": 235.67708333333576,
      "v": 127
    },
    {
      "midi": 55,
      "hit": false,
      "t": 64180.98958333333,
      "d": 235.67708333333576,
      "v": 127
    },
    {
      "midi": 52,
      "hit": false,
      "t": 64419.27083333333,
      "d": 235.67708333333576,
      "v": 127
    },
    {
      "midi": 61,
      "hit": false,
      "t": 64419.27083333333,
      "d": 235.67708333333576,
      "v": 127
    },
    {
      "midi": 59,
      "hit": false,
      "t": 64657.55208333333,
      "d": 235.67708333333576,
      "v": 127
    },
    {
      "midi": 50,
      "hit": false,
      "t": 64657.552083333336,
      "d": 235.67708333333576,
      "v": 127
    },
    {
      "midi": 49,
      "hit": false,
      "t": 64895.83333333333,
      "d": 235.67708333333576,
      "v": 127
    },
    {
      "midi": 57,
      "hit": false,
      "t": 64895.833333333336,
      "d": 466.14583333333576,
      "v": 127
    },
    {
      "midi": 55,
      "hit": false,
      "t": 65134.11458333333,
      "d": 235.67708333333576,
      "v": 127
    },
    {
      "midi": 59,
      "hit": false,
      "t": 65372.39583333333,
      "d": 466.1458333333285,
      "v": 127
    },
    {
      "midi": 49,
      "hit": false,
      "t": 65372.39583333333,
      "d": 235.67708333332848,
      "v": 127
    },
    {
      "midi": 47,
      "hit": false,
      "t": 65610.67708333333,
      "d": 235.67708333332848,
      "v": 127
    },
    {
      "midi": 61,
      "hit": false,
      "t": 65848.95833333333,
      "d": 466.1458333333285,
      "v": 127
    },
    {
      "midi": 45,
      "hit": false,
      "t": 65848.95833333334,
      "d": 235.67708333332848,
      "v": 127
    },
    {
      "midi": 52,
      "hit": false,
      "t": 66087.23958333333,
      "d": 235.67708333332848,
      "v": 127
    },
    {
      "midi": 49,
      "hit": false,
      "t": 66325.52083333333,
      "d": 235.67708333332848,
      "v": 127
    },
    {
      "midi": 57,
      "hit": false,
      "t": 66325.52083333334,
      "d": 235.67708333332848,
      "v": 127
    },
    {
      "midi": 47,
      "hit": false,
      "t": 66563.80208333333,
      "d": 235.67708333332848,
      "v": 127
    },
    {
      "midi": 59,
      "hit": false,
      "t": 66563.80208333333,
      "d": 235.67708333332848,
      "v": 127
    },
    {
      "midi": 61,
      "hit": false,
      "t": 66802.08333333333,
      "d": 466.1458333333285,
      "v": 127
    },
    {
      "midi": 45,
      "hit": false,
      "t": 66802.08333333334,
      "d": 235.67708333332848,
      "v": 127
    },
    {
      "midi": 49,
      "hit": false,
      "t": 67040.36458333333,
      "d": 235.67708333332848,
      "v": 127
    },
    {
      "midi": 64,
      "hit": false,
      "t": 67278.64583333333,
      "d": 466.1458333333285,
      "v": 127
    },
    {
      "midi": 45,
      "hit": false,
      "t": 67278.64583333334,
      "d": 235.67708333332848,
      "v": 127
    },
    {
      "midi": 43,
      "hit": false,
      "t": 67516.92708333333,
      "d": 235.67708333332848,
      "v": 127
    },
    {
      "midi": 42,
      "hit": false,
      "t": 67755.20833333334,
      "d": 235.67708333332848,
      "v": 127
    },
    {
      "midi": 57,
      "hit": false,
      "t": 67755.20833333334,
      "d": 466.1458333333285,
      "v": 127
    },
    {
      "midi": 49,
      "hit": false,
      "t": 67993.48958333333,
      "d": 235.67708333332848,
      "v": 127
    },
    {
      "midi": 61,
      "hit": false,
      "t": 68231.77083333333,
      "d": 466.1458333333285,
      "v": 127
    },
    {
      "midi": 42,
      "hit": false,
      "t": 68231.77083333334,
      "d": 235.67708333332848,
      "v": 127
    },
    {
      "midi": 40,
      "hit": false,
      "t": 68470.05208333333,
      "d": 235.67708333332848,
      "v": 127
    },
    {
      "midi": 66,
      "hit": false,
      "t": 68708.33333333334,
      "d": 466.1458333333285,
      "v": 127
    },
    {
      "midi": 62,
      "hit": false,
      "t": 68708.33333333334,
      "d": 466.1458333333285,
      "v": 127
    },
    {
      "midi": 38,
      "hit": false,
      "t": 68708.33333333334,
      "d": 695.3125,
      "v": 127
    },
    {
      "midi": 50,
      "hit": false,
      "t": 69184.89583333334,
      "d": 235.67708333332848,
      "v": 127
    },
    {
      "midi": 69,
      "hit": false,
      "t": 69184.89583333334,
      "d": 466.1458333333285,
      "v": 127
    },
    {
      "midi": 52,
      "hit": false,
      "t": 69423.17708333333,
      "d": 235.67708333332848,
      "v": 127
    },
    {
      "midi": 54,
      "hit": false,
      "t": 69661.45833333334,
      "d": 235.67708333332848,
      "v": 127
    },
    {
      "midi": 74,
      "hit": false,
      "t": 69661.45833333334,
      "d": 466.1458333333285,
      "v": 127
    },
    {
      "midi": 50,
      "hit": false,
      "t": 69899.73958333334,
      "d": 235.67708333332848,
      "v": 127
    },
    {
      "midi": 76,
      "hit": false,
      "t": 70138.02083333333,
      "d": 466.1458333333285,
      "v": 127
    },
    {
      "midi": 54,
      "hit": false,
      "t": 70138.02083333334,
      "d": 235.67708333332848,
      "v": 127
    },
    {
      "midi": 55,
      "hit": false,
      "t": 70376.30208333333,
      "d": 235.67708333332848,
      "v": 127
    },
    {
      "midi": 78,
      "hit": false,
      "t": 70614.58333333334,
      "d": 1427.0833333333285,
      "v": 127
    },
    {
      "midi": 57,
      "hit": false,
      "t": 70614.58333333334,
      "d": 235.67708333332848,
      "v": 127
    },
    {
      "midi": 50,
      "hit": false,
      "t": 70852.86458333334,
      "d": 235.67708333332848,
      "v": 127
    },
    {
      "midi": 57,
      "hit": false,
      "t": 71091.14583333334,
      "d": 235.67708333332848,
      "v": 127
    },
    {
      "midi": 59,
      "hit": false,
      "t": 71329.42708333333,
      "d": 235.67708333332848,
      "v": 127
    },
    {
      "midi": 61,
      "hit": false,
      "t": 71567.70833333333,
      "d": 235.67708333332848,
      "v": 127
    },
    {
      "midi": 57,
      "hit": false,
      "t": 71805.98958333334,
      "d": 235.67708333332848,
      "v": 127
    },
    {
      "midi": 76,
      "hit": false,
      "t": 72044.27083333333,
      "d": 466.1458333333285,
      "v": 127
    },
    {
      "midi": 61,
      "hit": false,
      "t": 72044.27083333333,
      "d": 235.67708333332848,
      "v": 127
    },
    {
      "midi": 62,
      "hit": false,
      "t": 72282.55208333334,
      "d": 235.67708333332848,
      "v": 127
    },
    {
      "midi": 64,
      "hit": false,
      "t": 72520.83333333333,
      "d": 235.67708333332848,
      "v": 127
    },
    {
      "midi": 79,
      "hit": false,
      "t": 72520.83333333333,
      "d": 466.1458333333285,
      "v": 127
    },
    {
      "midi": 57,
      "hit": false,
      "t": 72759.11458333334,
      "d": 235.67708333332848,
      "v": 127
    },
    {
      "midi": 64,
      "hit": false,
      "t": 72997.39583333333,
      "d": 235.67708333332848,
      "v": 127
    },
    {
      "midi": 78,
      "hit": false,
      "t": 72997.39583333334,
      "d": 466.1458333333285,
      "v": 127
    },
    {
      "midi": 66,
      "hit": false,
      "t": 73235.67708333334,
      "d": 235.67708333332848,
      "v": 127
    },
    {
      "midi": 76,
      "hit": false,
      "t": 73473.95833333333,
      "d": 466.1458333333285,
      "v": 127
    },
    {
      "midi": 67,
      "hit": false,
      "t": 73473.95833333333,
      "d": 235.67708333332848,
      "v": 127
    },
    {
      "midi": 69,
      "hit": false,
      "t": 73712.23958333334,
      "d": 235.67708333332848,
      "v": 127
    },
    {
      "midi": 71,
      "hit": false,
      "t": 73950.52083333333,
      "d": 235.67708333332848,
      "v": 127
    },
    {
      "midi": 74,
      "hit": false,
      "t": 73950.52083333334,
      "d": 466.1458333333285,
      "v": 127
    },
    {
      "midi": 67,
      "hit": false,
      "t": 74188.80208333333,
      "d": 235.67708333332848,
      "v": 127
    },
    {
      "midi": 73,
      "hit": false,
      "t": 74427.08333333333,
      "d": 235.67708333332848,
      "v": 127
    },
    {
      "midi": 69,
      "hit": false,
      "t": 74427.08333333334,
      "d": 2856.7708333333285,
      "v": 127
    },
    {
      "midi": 76,
      "hit": false,
      "t": 74665.36458333333,
      "d": 235.67708333332848,
      "v": 127
    },
    {
      "midi": 81,
      "hit": false,
      "t": 74903.64583333334,
      "d": 235.67708333332848,
      "v": 127
    },
    {
      "midi": 45,
      "hit": false,
      "t": 74903.64583333334,
      "d": 466.1458333333285,
      "v": 127
    },
    {
      "midi": 79,
      "hit": false,
      "t": 75141.92708333333,
      "d": 235.67708333332848,
      "v": 127
    },
    {
      "midi": 78,
      "hit": false,
      "t": 75380.20833333334,
      "d": 235.67708333332848,
      "v": 127
    },
    {
      "midi": 50,
      "hit": false,
      "t": 75380.20833333334,
      "d": 466.1458333333285,
      "v": 127
    },
    {
      "midi": 81,
      "hit": false,
      "t": 75618.48958333334,
      "d": 235.67708333332848,
      "v": 127
    },
    {
      "midi": 52,
      "hit": false,
      "t": 75856.77083333333,
      "d": 466.1458333333285,
      "v": 127
    },
    {
      "midi": 78,
      "hit": false,
      "t": 75856.77083333334,
      "d": 235.67708333332848,
      "v": 127
    },
    {
      "midi": 76,
      "hit": false,
      "t": 76095.05208333333,
      "d": 235.67708333332848,
      "v": 127
    },
    {
      "midi": 54,
      "hit": false,
      "t": 76333.33333333334,
      "d": 1427.0833333333285,
      "v": 127
    },
    {
      "midi": 74,
      "hit": false,
      "t": 76333.33333333334,
      "d": 235.67708333332848,
      "v": 127
    },
    {
      "midi": 81,
      "hit": false,
      "t": 76571.61458333334,
      "d": 235.67708333332848,
      "v": 127
    },
    {
      "midi": 74,
      "hit": false,
      "t": 76809.89583333334,
      "d": 235.67708333332848,
      "v": 127
    },
    {
      "midi": 73,
      "hit": false,
      "t": 77048.17708333333,
      "d": 235.67708333332848,
      "v": 127
    },
    {
      "midi": 71,
      "hit": false,
      "t": 77286.45833333333,
      "d": 235.67708333332848,
      "v": 127
    },
    {
      "midi": 67,
      "hit": false,
      "t": 77286.45833333333,
      "d": 3095.0520833333285,
      "v": 127
    },
    {
      "midi": 74,
      "hit": false,
      "t": 77524.73958333334,
      "d": 235.67708333332848,
      "v": 127
    },
    {
      "midi": 52,
      "hit": false,
      "t": 77763.02083333333,
      "d": 466.1458333333285,
      "v": 127
    },
    {
      "midi": 79,
      "hit": false,
      "t": 77763.02083333333,
      "d": 235.67708333332848,
      "v": 127
    },
    {
      "midi": 78,
      "hit": false,
      "t": 78001.30208333334,
      "d": 235.67708333332848,
      "v": 127
    },
    {
      "midi": 76,
      "hit": false,
      "t": 78239.58333333333,
      "d": 235.67708333332848,
      "v": 127
    },
    {
      "midi": 55,
      "hit": false,
      "t": 78239.58333333333,
      "d": 466.1458333333285,
      "v": 127
    },
    {
      "midi": 79,
      "hit": false,
      "t": 78477.86458333333,
      "d": 235.67708333332848,
      "v": 127
    },
    {
      "midi": 76,
      "hit": false,
      "t": 78716.14583333333,
      "d": 235.67708333332848,
      "v": 127
    },
    {
      "midi": 54,
      "hit": false,
      "t": 78716.14583333334,
      "d": 466.1458333333285,
      "v": 127
    },
    {
      "midi": 74,
      "hit": false,
      "t": 78954.42708333334,
      "d": 235.67708333332848,
      "v": 127
    },
    {
      "midi": 52,
      "hit": false,
      "t": 79192.70833333333,
      "d": 466.1458333333285,
      "v": 127
    },
    {
      "midi": 73,
      "hit": false,
      "t": 79192.70833333333,
      "d": 235.67708333332848,
      "v": 127
    },
    {
      "midi": 79,
      "hit": false,
      "t": 79430.98958333333,
      "d": 235.67708333332848,
      "v": 127
    },
    {
      "midi": 73,
      "hit": false,
      "t": 79669.27083333333,
      "d": 235.67708333332848,
      "v": 127
    },
    {
      "midi": 50,
      "hit": false,
      "t": 79669.27083333334,
      "d": 466.1458333333285,
      "v": 127
    },
    {
      "midi": 71,
      "hit": false,
      "t": 79907.55208333333,
      "d": 235.67708333332848,
      "v": 127
    },
    {
      "midi": 49,
      "hit": false,
      "t": 80145.83333333333,
      "d": 466.1458333333285,
      "v": 127
    },
    {
      "midi": 69,
      "hit": false,
      "t": 80145.83333333334,
      "d": 2141.9270833333285,
      "v": 127
    },
    {
      "midi": 67,
      "hit": false,
      "t": 80384.11458333333,
      "d": 235.67708333332848,
      "v": 127
    },
    {
      "midi": 66,
      "hit": false,
      "t": 80622.39583333334,
      "d": 235.67708333332848,
      "v": 127
    },
    {
      "midi": 42,
      "hit": false,
      "t": 80622.39583333334,
      "d": 466.1458333333285,
      "v": 127
    },
    {
      "midi": 64,
      "hit": false,
      "t": 80860.67708333333,
      "d": 235.67708333332848,
      "v": 127
    },
    {
      "midi": 47,
      "hit": false,
      "t": 81098.95833333333,
      "d": 466.1458333333285,
      "v": 127
    },
    {
      "midi": 62,
      "hit": false,
      "t": 81098.95833333334,
      "d": 235.67708333332848,
      "v": 127
    },
    {
      "midi": 66,
      "hit": false,
      "t": 81337.23958333334,
      "d": 235.67708333332848,
      "v": 127
    },
    {
      "midi": 49,
      "hit": false,
      "t": 81575.52083333333,
      "d": 466.1458333333285,
      "v": 127
    },
    {
      "midi": 62,
      "hit": false,
      "t": 81575.52083333334,
      "d": 235.67708333332848,
      "v": 127
    },
    {
      "midi": 61,
      "hit": false,
      "t": 81813.80208333333,
      "d": 235.67708333332848,
      "v": 127
    },
    {
      "midi": 59,
      "hit": false,
      "t": 82052.08333333333,
      "d": 1191.40625,
      "v": 127
    },
    {
      "midi": 50,
      "hit": false,
      "t": 82052.08333333334,
      "d": 1427.0833333333285,
      "v": 127
    },
    {
      "midi": 69,
      "hit": false,
      "t": 82290.36458333334,
      "d": 235.67708333332848,
      "v": 127
    },
    {
      "midi": 67,
      "hit": false,
      "t": 82528.64583333333,
      "d": 235.67708333332848,
      "v": 127
    },
    {
      "midi": 66,
      "hit": false,
      "t": 82766.92708333334,
      "d": 235.67708333332848,
      "v": 127
    },
    {
      "midi": 67,
      "hit": false,
      "t": 83005.20833333333,
      "d": 286.4583333333285,
      "v": 127
    },
    {
      "midi": 64,
      "hit": false,
      "t": 83243.48958333333,
      "d": 235.67708333332848,
      "v": 127
    },
    {
      "midi": 49,
      "hit": false,
      "t": 83481.77083333333,
      "d": 466.1458333333285,
      "v": 127
    },
    {
      "midi": 70,
      "hit": false,
      "t": 83481.77083333334,
      "d": 235.67708333332848,
      "v": 127
    },
    {
      "midi": 71,
      "hit": false,
      "t": 83720.05208333333,
      "d": 235.67708333332848,
      "v": 127
    },
    {
      "midi": 52,
      "hit": false,
      "t": 83958.33333333333,
      "d": 466.1458333333285,
      "v": 127
    },
    {
      "midi": 73,
      "hit": false,
      "t": 83958.33333333333,
      "d": 235.67708333332848,
      "v": 127
    },
    {
      "midi": 66,
      "hit": false,
      "t": 84196.61458333334,
      "d": 235.67708333332848,
      "v": 127
    },
    {
      "midi": 73,
      "hit": false,
      "t": 84434.89583333333,
      "d": 235.67708333332848,
      "v": 127
    },
    {
      "midi": 50,
      "hit": false,
      "t": 84434.89583333334,
      "d": 466.1458333333285,
      "v": 127
    },
    {
      "midi": 74,
      "hit": false,
      "t": 84673.17708333334,
      "d": 235.67708333332848,
      "v": 127
    },
    {
      "midi": 76,
      "hit": false,
      "t": 84911.45833333333,
      "d": 235.67708333332848,
      "v": 127
    },
    {
      "midi": 49,
      "hit": false,
      "t": 84911.45833333333,
      "d": 466.1458333333285,
      "v": 127
    },
    {
      "midi": 78,
      "hit": false,
      "t": 85149.73958333334,
      "d": 235.67708333332848,
      "v": 127
    },
    {
      "midi": 47,
      "hit": false,
      "t": 85388.02083333333,
      "d": 466.1458333333285,
      "v": 127
    },
    {
      "midi": 79,
      "hit": false,
      "t": 85388.02083333333,
      "d": 235.67708333332848,
      "v": 127
    },
    {
      "midi": 76,
      "hit": false,
      "t": 85626.30208333333,
      "d": 235.67708333332848,
      "v": 127
    },
    {
      "midi": 78,
      "hit": false,
      "t": 85864.58333333334,
      "d": 235.67708333332848,
      "v": 127
    },
    {
      "midi": 46,
      "hit": false,
      "t": 85864.58333333334,
      "d": 950.5208333333285,
      "v": 127
    },
    {
      "midi": 79,
      "hit": false,
      "t": 86102.86458333333,
      "d": 235.67708333332848,
      "v": 127
    },
    {
      "midi": 78,
      "hit": false,
      "t": 86341.14583333334,
      "d": 235.67708333332848,
      "v": 127
    },
    {
      "midi": 54,
      "hit": false,
      "t": 86341.14583333334,
      "d": 466.1458333333285,
      "v": 127
    },
    {
      "midi": 76,
      "hit": false,
      "t": 86579.42708333333,
      "d": 235.67708333332848,
      "v": 127
    },
    {
      "midi": 59,
      "hit": false,
      "t": 86817.70833333333,
      "d": 466.1458333333285,
      "v": 127
    },
    {
      "midi": 47,
      "hit": false,
      "t": 86817.70833333333,
      "d": 1191.40625,
      "v": 127
    },
    {
      "midi": 74,
      "hit": false,
      "t": 86817.70833333334,
      "d": 235.67708333332848,
      "v": 127
    },
    {
      "midi": 78,
      "hit": false,
      "t": 87055.98958333334,
      "d": 235.67708333332848,
      "v": 127
    },
    {
      "midi": 61,
      "hit": false,
      "t": 87294.27083333333,
      "d": 466.1458333333285,
      "v": 127
    },
    {
      "midi": 74,
      "hit": false,
      "t": 87294.27083333334,
      "d": 235.67708333332848,
      "v": 127
    },
    {
      "midi": 73,
      "hit": false,
      "t": 87532.55208333333,
      "d": 235.67708333332848,
      "v": 127
    },
    {
      "midi": 71,
      "hit": false,
      "t": 87770.83333333333,
      "d": 235.67708333332848,
      "v": 127
    },
    {
      "midi": 62,
      "hit": false,
      "t": 87770.83333333334,
      "d": 1427.0833333333285,
      "v": 127
    },
    {
      "midi": 77,
      "hit": false,
      "t": 88009.11458333333,
      "d": 235.67708333332848,
      "v": 127
    },
    {
      "midi": 71,
      "hit": false,
      "t": 88247.39583333333,
      "d": 235.67708333332848,
      "v": 127
    },
    {
      "midi": 50,
      "hit": false,
      "t": 88247.39583333334,
      "d": 466.1458333333285,
      "v": 127
    },
    {
      "midi": 69,
      "hit": false,
      "t": 88485.67708333334,
      "d": 235.67708333332848,
      "v": 127
    },
    {
      "midi": 52,
      "hit": false,
      "t": 88723.95833333333,
      "d": 466.1458333333285,
      "v": 127
    },
    {
      "midi": 68,
      "hit": false,
      "t": 88723.95833333333,
      "d": 235.67708333332848,
      "v": 127
    },
    {
      "midi": 66,
      "hit": false,
      "t": 88962.23958333334,
      "d": 235.67708333332848,
      "v": 127
    },
    {
      "midi": 59,
      "hit": false,
      "t": 89200.52083333333,
      "d": 466.1458333333285,
      "v": 127
    },
    {
      "midi": 68,
      "hit": false,
      "t": 89200.52083333333,
      "d": 235.67708333332848,
      "v": 127
    },
    {
      "midi": 50,
      "hit": false,
      "t": 89200.52083333334,
      "d": 466.1458333333285,
      "v": 127
    },
    {
      "midi": 69,
      "hit": false,
      "t": 89438.80208333334,
      "d": 235.67708333332848,
      "v": 127
    },
    {
      "midi": 71,
      "hit": false,
      "t": 89677.08333333333,
      "d": 235.67708333332848,
      "v": 127
    },
    {
      "midi": 53,
      "hit": false,
      "t": 89677.08333333333,
      "d": 466.1458333333285,
      "v": 127
    },
    {
      "midi": 62,
      "hit": false,
      "t": 89677.08333333334,
      "d": 466.1458333333285,
      "v": 127
    },
    {
      "midi": 68,
      "hit": false,
      "t": 89915.36458333333,
      "d": 235.67708333332848,
      "v": 127
    },
    {
      "midi": 71,
      "hit": false,
      "t": 90153.64583333333,
      "d": 235.67708333332848,
      "v": 127
    },
    {
      "midi": 52,
      "hit": false,
      "t": 90153.64583333333,
      "d": 466.1458333333285,
      "v": 127
    },
    {
      "midi": 60,
      "hit": false,
      "t": 90153.64583333334,
      "d": 466.1458333333285,
      "v": 127
    },
    {
      "midi": 72,
      "hit": false,
      "t": 90391.92708333334,
      "d": 235.67708333332848,
      "v": 127
    },
    {
      "midi": 59,
      "hit": false,
      "t": 90630.20833333333,
      "d": 466.1458333333285,
      "v": 127
    },
    {
      "midi": 74,
      "hit": false,
      "t": 90630.20833333334,
      "d": 235.67708333332848,
      "v": 127
    },
    {
      "midi": 50,
      "hit": false,
      "t": 90630.20833333334,
      "d": 466.1458333333285,
      "v": 127
    },
    {
      "midi": 68,
      "hit": false,
      "t": 90868.48958333333,
      "d": 235.67708333332848,
      "v": 127
    },
    {
      "midi": 74,
      "hit": false,
      "t": 91106.77083333334,
      "d": 235.67708333332848,
      "v": 127
    },
    {
      "midi": 57,
      "hit": false,
      "t": 91106.77083333334,
      "d": 466.1458333333285,
      "v": 127
    },
    {
      "midi": 48,
      "hit": false,
      "t": 91106.77083333334,
      "d": 466.1458333333285,
      "v": 127
    },
    {
      "midi": 76,
      "hit": false,
      "t": 91345.05208333333,
      "d": 235.67708333332848,
      "v": 127
    },
    {
      "midi": 47,
      "hit": false,
      "t": 91583.33333333333,
      "d": 466.1458333333285,
      "v": 127
    },
    {
      "midi": 56,
      "hit": false,
      "t": 91583.33333333333,
      "d": 466.1458333333285,
      "v": 127
    },
    {
      "midi": 77,
      "hit": false,
      "t": 91583.33333333333,
      "d": 235.67708333332848,
      "v": 127
    },
    {
      "midi": 83,
      "hit": false,
      "t": 91821.61458333333,
      "d": 235.67708333332848,
      "v": 127
    },
    {
      "midi": 76,
      "hit": false,
      "t": 92059.89583333333,
      "d": 235.67708333332848,
      "v": 127
    },
    {
      "midi": 52,
      "hit": false,
      "t": 92059.89583333333,
      "d": 466.1458333333285,
      "v": 127
    },
    {
      "midi": 44,
      "hit": false,
      "t": 92059.89583333333,
      "d": 466.1458333333285,
      "v": 127
    },
    {
      "midi": 74,
      "hit": false,
      "t": 92298.17708333334,
      "d": 235.67708333332848,
      "v": 127
    },
    {
      "midi": 57,
      "hit": false,
      "t": 92536.45833333334,
      "d": 466.1458333333285,
      "v": 127
    },
    {
      "midi": 45,
      "hit": false,
      "t": 92536.45833333334,
      "d": 1191.40625,
      "v": 127
    },
    {
      "midi": 72,
      "hit": false,
      "t": 92536.45833333334,
      "d": 235.67708333332848,
      "v": 127
    },
    {
      "midi": 76,
      "hit": false,
      "t": 92774.73958333333,
      "d": 235.67708333332848,
      "v": 127
    },
    {
      "midi": 59,
      "hit": false,
      "t": 93013.02083333333,
      "d": 466.1458333333285,
      "v": 127
    },
    {
      "midi": 72,
      "hit": false,
      "t": 93013.02083333334,
      "d": 235.67708333332848,
      "v": 127
    },
    {
      "midi": 71,
      "hit": false,
      "t": 93251.30208333333,
      "d": 235.67708333332848,
      "v": 127
    },
    {
      "midi": 69,
      "hit": false,
      "t": 93489.58333333334,
      "d": 235.67708333332848,
      "v": 127
    },
    {
      "midi": 60,
      "hit": false,
      "t": 93489.58333333334,
      "d": 1427.0833333333285,
      "v": 127
    },
    {
      "midi": 76,
      "hit": false,
      "t": 93727.86458333333,
      "d": 235.67708333332848,
      "v": 127
    },
    {
      "midi": 69,
      "hit": false,
      "t": 93966.14583333334,
      "d": 235.67708333332848,
      "v": 127
    },
    {
      "midi": 48,
      "hit": false,
      "t": 93966.14583333334,
      "d": 466.1458333333285,
      "v": 127
    },
    {
      "midi": 67,
      "hit": false,
      "t": 94204.42708333333,
      "d": 235.67708333332848,
      "v": 127
    },
    {
      "midi": 66,
      "hit": false,
      "t": 94442.70833333334,
      "d": 235.67708333332848,
      "v": 127
    },
    {
      "midi": 50,
      "hit": false,
      "t": 94442.70833333334,
      "d": 466.1458333333285,
      "v": 127
    },
    {
      "midi": 64,
      "hit": false,
      "t": 94680.98958333333,
      "d": 235.67708333332848,
      "v": 127
    },
    {
      "midi": 66,
      "hit": false,
      "t": 94919.27083333334,
      "d": 235.67708333332848,
      "v": 127
    },
    {
      "midi": 57,
      "hit": false,
      "t": 94919.27083333334,
      "d": 466.1458333333285,
      "v": 127
    },
    {
      "midi": 48,
      "hit": false,
      "t": 94919.27083333334,
      "d": 466.1458333333285,
      "v": 127
    },
    {
      "midi": 67,
      "hit": false,
      "t": 95157.55208333333,
      "d": 235.67708333332848,
      "v": 127
    },
    {
      "midi": 52,
      "hit": false,
      "t": 95395.83333333333,
      "d": 466.1458333333285,
      "v": 127
    },
    {
      "midi": 69,
      "hit": false,
      "t": 95395.83333333334,
      "d": 235.67708333332848,
      "v": 127
    },
    {
      "midi": 60,
      "hit": false,
      "t": 95395.83333333334,
      "d": 466.1458333333285,
      "v": 127
    },
    {
      "midi": 66,
      "hit": false,
      "t": 95634.11458333334,
      "d": 235.67708333332848,
      "v": 127
    },
    {
      "midi": 59,
      "hit": false,
      "t": 95872.39583333333,
      "d": 466.1458333333285,
      "v": 127
    },
    {
      "midi": 50,
      "hit": false,
      "t": 95872.39583333334,
      "d": 466.1458333333285,
      "v": 127
    },
    {
      "midi": 69,
      "hit": false,
      "t": 95872.39583333334,
      "d": 235.67708333332848,
      "v": 127
    },
    {
      "midi": 71,
      "hit": false,
      "t": 96110.67708333333,
      "d": 235.67708333332848,
      "v": 127
    },
    {
      "midi": 57,
      "hit": false,
      "t": 96348.95833333334,
      "d": 466.1458333333285,
      "v": 127
    },
    {
      "midi": 72,
      "hit": false,
      "t": 96348.95833333334,
      "d": 235.67708333332848,
      "v": 127
    },
    {
      "midi": 48,
      "hit": false,
      "t": 96348.95833333334,
      "d": 466.1458333333285,
      "v": 127
    },
    {
      "midi": 66,
      "hit": false,
      "t": 96587.23958333334,
      "d": 235.67708333332848,
      "v": 127
    },
    {
      "midi": 55,
      "hit": false,
      "t": 96825.52083333333,
      "d": 466.1458333333285,
      "v": 127
    },
    {
      "midi": 45,
      "hit": false,
      "t": 96825.52083333334,
      "d": 466.1458333333285,
      "v": 127
    },
    {
      "midi": 72,
      "hit": false,
      "t": 96825.52083333334,
      "d": 235.67708333332848,
      "v": 127
    },
    {
      "midi": 74,
      "hit": false,
      "t": 97063.80208333334,
      "d": 235.67708333332848,
      "v": 127
    },
    {
      "midi": 75,
      "hit": false,
      "t": 97302.08333333333,
      "d": 235.67708333332848,
      "v": 127
    },
    {
      "midi": 54,
      "hit": false,
      "t": 97302.08333333334,
      "d": 1191.40625,
      "v": 127
    },
    {
      "midi": 50,
      "hit": false,
      "t": 97302.08333333334,
      "d": 466.1458333333285,
      "v": 127
    },
    {
      "midi": 81,
      "hit": false,
      "t": 97540.36458333334,
      "d": 235.67708333332848,
      "v": 127
    },
    {
      "midi": 75,
      "hit": false,
      "t": 97778.64583333333,
      "d": 235.67708333332848,
      "v": 127
    },
    {
      "midi": 45,
      "hit": false,
      "t": 97778.64583333334,
      "d": 466.1458333333285,
      "v": 127
    },
    {
      "midi": 74,
      "hit": false,
      "t": 98016.92708333334,
      "d": 235.67708333332848,
      "v": 127
    },
    {
      "midi": 50,
      "hit": false,
      "t": 98255.20833333334,
      "d": 466.1458333333285,
      "v": 127
    },
    {
      "midi": 72,
      "hit": false,
      "t": 98255.20833333334,
      "d": 235.67708333332848,
      "v": 127
    },
    {
      "midi": 75,
      "hit": false,
      "t": 98493.48958333333,
      "d": 235.67708333332848,
      "v": 127
    },
    {
      "midi": 52,
      "hit": false,
      "t": 98731.77083333333,
      "d": 466.1458333333285,
      "v": 127
    },
    {
      "midi": 55,
      "hit": false,
      "t": 98731.77083333333,
      "d": 466.1458333333285,
      "v": 127
    },
    {
      "midi": 72,
      "hit": false,
      "t": 98731.77083333334,
      "d": 235.67708333332848,
      "v": 127
    },
    {
      "midi": 70,
      "hit": false,
      "t": 98970.05208333334,
      "d": 235.67708333332848,
      "v": 127
    },
    {
      "midi": 54,
      "hit": false,
      "t": 99208.33333333334,
      "d": 1328.125,
      "v": 127
    },
    {
      "midi": 69,
      "hit": false,
      "t": 99208.33333333334,
      "d": 235.67708333332848,
      "v": 127
    },
    {
      "midi": 57,
      "hit": false,
      "t": 99208.33333333334,
      "d": 1328.125,
      "v": 127
    },
    {
      "midi": 72,
      "hit": false,
      "t": 99446.61458333334,
      "d": 235.67708333332848,
      "v": 127
    },
    {
      "midi": 69,
      "hit": false,
      "t": 99684.89583333334,
      "d": 235.67708333332848,
      "v": 127
    },
    {
      "midi": 67,
      "hit": false,
      "t": 99923.17708333333,
      "d": 235.67708333332848,
      "v": 127
    },
    {
      "midi": 66,
      "hit": false,
      "t": 100161.45833333334,
      "d": 235.67708333332848,
      "v": 127
    },
    {
      "midi": 64,
      "hit": false,
      "t": 100399.73958333333,
      "d": 235.67708333332848,
      "v": 127
    },
    {
      "midi": 52,
      "hit": false,
      "t": 100638.02083333333,
      "d": 466.1458333333285,
      "v": 127
    },
    {
      "midi": 55,
      "hit": false,
      "t": 100638.02083333333,
      "d": 466.1458333333285,
      "v": 127
    },
    {
      "midi": 63,
      "hit": false,
      "t": 100638.02083333333,
      "d": 235.67708333332848,
      "v": 127
    },
    {
      "midi": 64,
      "hit": false,
      "t": 100876.30208333333,
      "d": 235.67708333332848,
      "v": 127
    },
    {
      "midi": 66,
      "hit": false,
      "t": 101114.58333333334,
      "d": 235.67708333332848,
      "v": 127
    },
    {
      "midi": 57,
      "hit": false,
      "t": 101114.58333333334,
      "d": 466.1458333333285,
      "v": 127
    },
    {
      "midi": 60,
      "hit": false,
      "t": 101114.58333333334,
      "d": 466.1458333333285,
      "v": 127
    },
    {
      "midi": 63,
      "hit": false,
      "t": 101352.86458333333,
      "d": 235.67708333332848,
      "v": 127
    },
    {
      "midi": 59,
      "hit": false,
      "t": 101591.14583333333,
      "d": 466.1458333333285,
      "v": 127
    },
    {
      "midi": 55,
      "hit": false,
      "t": 101591.14583333333,
      "d": 466.1458333333285,
      "v": 127
    },
    {
      "midi": 66,
      "hit": false,
      "t": 101591.14583333334,
      "d": 235.67708333332848,
      "v": 127
    },
    {
      "midi": 67,
      "hit": false,
      "t": 101829.42708333333,
      "d": 235.67708333332848,
      "v": 127
    },
    {
      "midi": 54,
      "hit": false,
      "t": 102067.70833333334,
      "d": 466.1458333333285,
      "v": 127
    },
    {
      "midi": 69,
      "hit": false,
      "t": 102067.70833333334,
      "d": 235.67708333332848,
      "v": 127
    },
    {
      "midi": 57,
      "hit": false,
      "t": 102067.70833333334,
      "d": 466.1458333333285,
      "v": 127
    },
    {
      "midi": 63,
      "hit": false,
      "t": 102305.98958333333,
      "d": 235.67708333332848,
      "v": 127
    },
    {
      "midi": 52,
      "hit": false,
      "t": 102544.27083333333,
      "d": 466.1458333333285,
      "v": 127
    },
    {
      "midi": 55,
      "hit": false,
      "t": 102544.27083333333,
      "d": 466.1458333333285,
      "v": 127
    },
    {
      "midi": 69,
      "hit": false,
      "t": 102544.27083333334,
      "d": 235.67708333332848,
      "v": 127
    },
    {
      "midi": 71,
      "hit": false,
      "t": 102782.55208333333,
      "d": 235.67708333332848,
      "v": 127
    },
    {
      "midi": 51,
      "hit": false,
      "t": 103020.83333333333,
      "d": 494.7916666666715,
      "v": 127
    },
    {
      "midi": 54,
      "hit": false,
      "t": 103020.83333333334,
      "d": 494.7916666666715,
      "v": 127
    },
    {
      "midi": 72,
      "hit": false,
      "t": 103020.83333333334,
      "d": 457.03125,
      "v": 127
    },
    {
      "midi": 71,
      "hit": false,
      "t": 103518.22916666666,
      "d": 466.1458333333285,
      "v": 127
    },
    {
      "midi": 76,
      "hit": false,
      "t": 103994.79166666666,
      "d": 466.1458333333285,
      "v": 127
    },
    {
      "midi": 47,
      "hit": false,
      "t": 104471.35416666666,
      "d": 466.1458333333285,
      "v": 127
    },
    {
      "midi": 78,
      "hit": false,
      "t": 104471.35416666669,
      "d": 466.1458333333285,
      "v": 127
    },
    {
      "midi": 52,
      "hit": false,
      "t": 104947.91666666666,
      "d": 466.1458333333285,
      "v": 127
    },
    {
      "midi": 79,
      "hit": false,
      "t": 104947.91666666666,
      "d": 1427.0833333333285,
      "v": 127
    },
    {
      "midi": 71,
      "hit": false,
      "t": 105424.47916666666,
      "d": 466.1458333333285,
      "v": 127
    },
    {
      "midi": 50,
      "hit": false,
      "t": 105424.47916666667,
      "d": 466.1458333333285,
      "v": 127
    },
    {
      "midi": 76,
      "hit": false,
      "t": 105901.04166666666,
      "d": 466.1458333333285,
      "v": 127
    },
    {
      "midi": 48,
      "hit": false,
      "t": 105901.04166666667,
      "d": 2854.166666666657,
      "v": 127
    },
    {
      "midi": 74,
      "hit": false,
      "t": 106377.60416666667,
      "d": 466.1458333333285,
      "v": 127
    },
    {
      "midi": 78,
      "hit": false,
      "t": 106377.60416666669,
      "d": 466.1458333333285,
      "v": 127
    },
    {
      "midi": 81,
      "hit": false,
      "t": 106854.16666666667,
      "d": 466.1458333333285,
      "v": 127
    },
    {
      "midi": 72,
      "hit": false,
      "t": 106854.16666666667,
      "d": 466.1458333333285,
      "v": 127
    },
    {
      "midi": 71,
      "hit": false,
      "t": 107330.72916666666,
      "d": 466.1458333333285,
      "v": 127
    },
    {
      "midi": 79,
      "hit": false,
      "t": 107330.72916666666,
      "d": 466.1458333333285,
      "v": 127
    },
    {
      "midi": 69,
      "hit": false,
      "t": 107807.29166666667,
      "d": 466.1458333333285,
      "v": 127
    },
    {
      "midi": 78,
      "hit": false,
      "t": 107807.29166666669,
      "d": 466.1458333333285,
      "v": 127
    },
    {
      "midi": 76,
      "hit": false,
      "t": 108283.85416666666,
      "d": 466.1458333333285,
      "v": 127
    },
    {
      "midi": 67,
      "hit": false,
      "t": 108283.85416666666,
      "d": 466.1458333333285,
      "v": 127
    },
    {
      "midi": 75,
      "hit": false,
      "t": 108760.41666666667,
      "d": 950.5208333333285,
      "v": 127
    },
    {
      "midi": 66,
      "hit": false,
      "t": 108760.41666666669,
      "d": 466.1458333333285,
      "v": 127
    },
    {
      "midi": 60,
      "hit": false,
      "t": 108998.69791666666,
      "d": 235.67708333332848,
      "v": 127
    },
    {
      "midi": 59,
      "hit": false,
      "t": 109236.97916666666,
      "d": 235.67708333332848,
      "v": 127
    },
    {
      "midi": 72,
      "hit": false,
      "t": 109236.97916666666,
      "d": 466.1458333333285,
      "v": 127
    },
    {
      "midi": 57,
      "hit": false,
      "t": 109475.26041666667,
      "d": 235.67708333332848,
      "v": 127
    },
    {
      "midi": 71,
      "hit": false,
      "t": 109713.54166666666,
      "d": 466.1458333333285,
      "v": 127
    },
    {
      "midi": 56,
      "hit": false,
      "t": 109713.54166666666,
      "d": 235.67708333332848,
      "v": 127
    },
    {
      "midi": 74,
      "hit": false,
      "t": 109713.54166666667,
      "d": 2380.2083333333285,
      "v": 127
    },
    {
      "midi": 59,
      "hit": false,
      "t": 109951.82291666666,
      "d": 235.67708333332848,
      "v": 127
    },
    {
      "midi": 56,
      "hit": false,
      "t": 110190.10416666666,
      "d": 235.67708333332848,
      "v": 127
    },
    {
      "midi": 69,
      "hit": false,
      "t": 110190.10416666667,
      "d": 466.1458333333285,
      "v": 127
    },
    {
      "midi": 54,
      "hit": false,
      "t": 110428.38541666669,
      "d": 235.67708333332848,
      "v": 127
    },
    {
      "midi": 52,
      "hit": false,
      "t": 110666.66666666666,
      "d": 235.67708333332848,
      "v": 127
    },
    {
      "midi": 68,
      "hit": false,
      "t": 110666.66666666666,
      "d": 466.1458333333285,
      "v": 127
    },
    {
      "midi": 59,
      "hit": false,
      "t": 110904.94791666666,
      "d": 235.67708333332848,
      "v": 127
    },
    {
      "midi": 71,
      "hit": false,
      "t": 111143.22916666666,
      "d": 466.1458333333285,
      "v": 127
    },
    {
      "midi": 52,
      "hit": false,
      "t": 111143.22916666666,
      "d": 235.67708333332848,
      "v": 127
    },
    {
      "midi": 50,
      "hit": false,
      "t": 111381.51041666667,
      "d": 235.67708333332848,
      "v": 127
    },
    {
      "midi": 64,
      "hit": false,
      "t": 111619.79166666666,
      "d": 950.5208333333285,
      "v": 127
    },
    {
      "midi": 48,
      "hit": false,
      "t": 111619.79166666666,
      "d": 235.67708333332848,
      "v": 127
    },
    {
      "midi": 53,
      "hit": false,
      "t": 111858.07291666666,
      "d": 235.67708333332848,
      "v": 127
    },
    {
      "midi": 52,
      "hit": false,
      "t": 112096.35416666666,
      "d": 235.67708333332848,
      "v": 127
    },
    {
      "midi": 68,
      "hit": false,
      "t": 112096.35416666666,
      "d": 466.1458333333285,
      "v": 127
    },
    {
      "midi": 50,
      "hit": false,
      "t": 112334.63541666667,
      "d": 235.67708333332848,
      "v": 127
    },
    {
      "midi": 48,
      "hit": false,
      "t": 112572.91666666666,
      "d": 235.67708333332848,
      "v": 127
    },
    {
      "midi": 69,
      "hit": false,
      "t": 112572.91666666667,
      "d": 466.1458333333285,
      "v": 127
    },
    {
      "midi": 66,
      "hit": false,
      "t": 112572.91666666669,
      "d": 466.1458333333285,
      "v": 127
    },
    {
      "midi": 52,
      "hit": false,
      "t": 112811.19791666666,
      "d": 235.67708333332848,
      "v": 127
    },
    {
      "midi": 71,
      "hit": false,
      "t": 113049.47916666666,
      "d": 466.1458333333285,
      "v": 127
    },
    {
      "midi": 48,
      "hit": false,
      "t": 113049.47916666666,
      "d": 235.67708333332848,
      "v": 127
    },
    {
      "midi": 68,
      "hit": false,
      "t": 113049.47916666666,
      "d": 466.1458333333285,
      "v": 127
    },
    {
      "midi": 47,
      "hit": false,
      "t": 113287.76041666666,
      "d": 235.67708333332848,
      "v": 127
    },
    {
      "midi": 72,
      "hit": false,
      "t": 113526.04166666666,
      "d": 1427.0833333333285,
      "v": 127
    },
    {
      "midi": 45,
      "hit": false,
      "t": 113526.04166666667,
      "d": 235.67708333332848,
      "v": 127
    },
    {
      "midi": 69,
      "hit": false,
      "t": 113526.04166666667,
      "d": 466.1458333333285,
      "v": 127
    },
    {
      "midi": 52,
      "hit": false,
      "t": 113764.32291666666,
      "d": 235.67708333332848,
      "v": 127
    },
    {
      "midi": 64,
      "hit": false,
      "t": 114002.60416666666,
      "d": 466.1458333333285,
      "v": 127
    },
    {
      "midi": 45,
      "hit": false,
      "t": 114002.60416666667,
      "d": 235.67708333332848,
      "v": 127
    },
    {
      "midi": 43,
      "hit": false,
      "t": 114240.88541666666,
      "d": 235.67708333332848,
      "v": 127
    },
    {
      "midi": 69,
      "hit": false,
      "t": 114479.16666666667,
      "d": 466.1458333333285,
      "v": 127
    },
    {
      "midi": 42,
      "hit": false,
      "t": 114479.16666666669,
      "d": 235.67708333332848,
      "v": 127
    },
    {
      "midi": 50,
      "hit": false,
      "t": 114717.44791666667,
      "d": 235.67708333332848,
      "v": 127
    },
    {
      "midi": 71,
      "hit": false,
      "t": 114955.72916666666,
      "d": 466.1458333333285,
      "v": 127
    },
    {
      "midi": 76,
      "hit": false,
      "t": 114955.72916666666,
      "d": 466.1458333333285,
      "v": 127
    },
    {
      "midi": 48,
      "hit": false,
      "t": 114955.72916666666,
      "d": 235.67708333332848,
      "v": 127
    },
    {
      "midi": 47,
      "hit": false,
      "t": 115194.01041666666,
      "d": 235.67708333332848,
      "v": 127
    },
    {
      "midi": 72,
      "hit": false,
      "t": 115432.29166666666,
      "d": 466.1458333333285,
      "v": 127
    },
    {
      "midi": 45,
      "hit": false,
      "t": 115432.29166666667,
      "d": 235.67708333332848,
      "v": 127
    },
    {
      "midi": 81,
      "hit": false,
      "t": 115432.29166666667,
      "d": 466.1458333333285,
      "v": 127
    },
    {
      "midi": 48,
      "hit": false,
      "t": 115670.57291666666,
      "d": 235.67708333332848,
      "v": 127
    },
    {
      "midi": 83,
      "hit": false,
      "t": 115908.85416666666,
      "d": 466.1458333333285,
      "v": 127
    },
    {
      "midi": 76,
      "hit": false,
      "t": 115908.85416666666,
      "d": 466.1458333333285,
      "v": 127
    },
    {
      "midi": 45,
      "hit": false,
      "t": 115908.85416666667,
      "d": 235.67708333332848,
      "v": 127
    },
    {
      "midi": 43,
      "hit": false,
      "t": 116147.13541666666,
      "d": 235.67708333332848,
      "v": 127
    },
    {
      "midi": 84,
      "hit": false,
      "t": 116385.41666666666,
      "d": 1227.8645833333285,
      "v": 127
    },
    {
      "midi": 81,
      "hit": false,
      "t": 116385.41666666667,
      "d": 481.7708333333285,
      "v": 127
    },
    {
      "midi": 42,
      "hit": false,
      "t": 116385.41666666669,
      "d": 243.48958333332848,
      "v": 127
    },
    {
      "midi": 48,
      "hit": false,
      "t": 116631.51041666666,
      "d": 243.48958333332848,
      "v": 127
    },
    {
      "midi": 79,
      "hit": false,
      "t": 116877.60416666666,
      "d": 481.7708333333285,
      "v": 127
    },
    {
      "midi": 42,
      "hit": false,
      "t": 116877.60416666669,
      "d": 243.48958333332848,
      "v": 127
    },
    {
      "midi": 40,
      "hit": false,
      "t": 117123.69791666666,
      "d": 243.48958333332848,
      "v": 127
    },
    {
      "midi": 39,
      "hit": false,
      "t": 117369.79166666667,
      "d": 2950.5208333333285,
      "v": 127
    },
    {
      "midi": 78,
      "hit": false,
      "t": 117369.79166666669,
      "d": 973.9583333333285,
      "v": 127
    },
    {
      "midi": 83,
      "hit": false,
      "t": 117615.88541666666,
      "d": 243.48958333332848,
      "v": 127
    },
    {
      "midi": 81,
      "hit": false,
      "t": 117861.97916666667,
      "d": 243.48958333332848,
      "v": 127
    },
    {
      "midi": 79,
      "hit": false,
      "t": 118108.07291666666,
      "d": 243.48958333332848,
      "v": 127
    },
    {
      "midi": 78,
      "hit": false,
      "t": 118354.16666666669,
      "d": 481.7708333333285,
      "v": 127
    },
    {
      "midi": 81,
      "hit": false,
      "t": 118600.26041666667,
      "d": 243.48958333332848,
      "v": 127
    },
    {
      "midi": 75,
      "hit": false,
      "t": 118846.35416666667,
      "d": 243.48958333332848,
      "v": 127
    },
    {
      "midi": 76,
      "hit": false,
      "t": 119092.44791666666,
      "d": 243.48958333332848,
      "v": 127
    },
    {
      "midi": 78,
      "hit": false,
      "t": 119338.54166666669,
      "d": 1240.8854166666715,
      "v": 127
    },
    {
      "midi": 72,
      "hit": false,
      "t": 119584.63541666666,
      "d": 243.48958333332848,
      "v": 127
    },
    {
      "midi": 71,
      "hit": false,
      "t": 119830.72916666666,
      "d": 243.48958333332848,
      "v": 127
    },
    {
      "midi": 69,
      "hit": false,
      "t": 120087.23958333333,
      "d": 256.5104166666715,
      "v": 127
    },
    {
      "midi": 40,
      "hit": false,
      "t": 120343.74999999999,
      "d": 1033.8541666666715,
      "v": 127
    },
    {
      "midi": 67,
      "hit": false,
      "t": 120343.74999999999,
      "d": 1033.8541666666715,
      "v": 127
    },
    {
      "midi": 83,
      "hit": false,
      "t": 120602.86458333331,
      "d": 256.5104166666715,
      "v": 127
    },
    {
      "midi": 75,
      "hit": false,
      "t": 120861.97916666667,
      "d": 256.5104166666715,
      "v": 127
    },
    {
      "midi": 76,
      "hit": false,
      "t": 121121.09374999999,
      "d": 256.5104166666715,
      "v": 127
    },
    {
      "midi": 47,
      "hit": false,
      "t": 121380.20833333331,
      "d": 2220.0520833333285,
      "v": 127
    },
    {
      "midi": 76,
      "hit": false,
      "t": 121380.20833333333,
      "d": 1109.375,
      "v": 127
    },
    {
      "midi": 66,
      "hit": false,
      "t": 121380.20833333336,
      "d": 544.2708333333285,
      "v": 127
    },
    {
      "midi": 67,
      "hit": false,
      "t": 121936.19791666666,
      "d": 544.2708333333285,
      "v": 127
    },
    {
      "midi": 69,
      "hit": false,
      "t": 122492.1875,
      "d": 1108.0729166666715,
      "v": 127
    },
    {
      "midi": 75,
      "hit": false,
      "t": 122492.18750000001,
      "d": 1108.0729166666715,
      "v": 127
    },
    {
      "midi": 68,
      "hit": false,
      "t": 123602.86458333331,
      "d": 2864.5833333333285,
      "v": 127
    },
    {
      "midi": 40,
      "hit": false,
      "t": 123602.86458333333,
      "d": 2864.5833333333285,
      "v": 127
    },
    {
      "midi": 76,
      "hit": false,
      "t": 123602.86458333333,
      "d": 2864.5833333333285,
      "v": 127
    }
  ]
}