{
  "jsonPath": "Rock/Progressive Bluegrass/Béla Fleck/two-part-invention-no-6-bwv-777.json",
  "path": "Rock\\Progressive Bluegrass\\Béla Fleck\\Two-Part Invention No 6 (BWV 777).mid",
  "name": "Two-Part Invention No 6 (BWV 777)",
  "difficulty": "Advanced",
  "bpm": 120,
  "notes": [
    {
      "midi": 52,
      "hit": false,
      "t": 2000,
      "d": 421.875,
      "v": 47
    },
    {
      "midi": 76,
      "hit": false,
      "t": 2200.5208333333335,
      "d": 528.6458333333335,
      "v": 59
    },
    {
      "midi": 54,
      "hit": false,
      "t": 2411.4583333333335,
      "d": 473.9583333333335,
      "v": 42
    },
    {
      "midi": 75,
      "hit": false,
      "t": 2653.6458333333335,
      "d": 489.5833333333335,
      "v": 38
    },
    {
      "midi": 56,
      "hit": false,
      "t": 2861.979166666667,
      "d": 421.875,
      "v": 44
    },
    {
      "midi": 74,
      "hit": false,
      "t": 3065.104166666667,
      "d": 450.5208333333335,
      "v": 68
    },
    {
      "midi": 57,
      "hit": false,
      "t": 3257.8125000000005,
      "d": 406.25,
      "v": 67
    },
    {
      "midi": 73,
      "hit": false,
      "t": 3447.916666666667,
      "d": 421.875,
      "v": 63
    },
    {
      "midi": 59,
      "hit": false,
      "t": 3656.2500000000005,
      "d": 406.25,
      "v": 61
    },
    {
      "midi": 71,
      "hit": false,
      "t": 3861.979166666667,
      "d": 416.66666666666697,
      "v": 62
    },
    {
      "midi": 61,
      "hit": false,
      "t": 4041.666666666667,
      "d": 414.0625000000009,
      "v": 53
    },
    {
      "midi": 69,
      "hit": false,
      "t": 4252.604166666667,
      "d": 429.6875000000009,
      "v": 71
    },
    {
      "midi": 63,
      "hit": false,
      "t": 4445.312500000001,
      "d": 429.6875,
      "v": 56
    },
    {
      "midi": 68,
      "hit": false,
      "t": 4651.041666666668,
      "d": 481.77083333333303,
      "v": 68
    },
    {
      "midi": 64,
      "hit": false,
      "t": 4882.812500000001,
      "d": 226.5625,
      "v": 68
    },
    {
      "midi": 66,
      "hit": false,
      "t": 5088.541666666668,
      "d": 450.52083333333303,
      "v": 64
    },
    {
      "midi": 63,
      "hit": false,
      "t": 5104.166666666668,
      "d": 184.89583333333303,
      "v": 69
    },
    {
      "midi": 61,
      "hit": false,
      "t": 5296.875000000001,
      "d": 187.5,
      "v": 70
    },
    {
      "midi": 68,
      "hit": false,
      "t": 5489.583333333334,
      "d": 59.89583333333394,
      "v": 73
    },
    {
      "midi": 59,
      "hit": false,
      "t": 5513.020833333334,
      "d": 114.58333333333394,
      "v": 51
    },
    {
      "midi": 69,
      "hit": false,
      "t": 5580.729166666668,
      "d": 88.54166666666606,
      "v": 70
    },
    {
      "midi": 68,
      "hit": false,
      "t": 5664.062500000001,
      "d": 234.375,
      "v": 75
    },
    {
      "midi": 64,
      "hit": false,
      "t": 5695.312500000001,
      "d": 59.89583333333303,
      "v": 81
    },
    {
      "midi": 71,
      "hit": false,
      "t": 5921.875000000001,
      "d": 72.91666666666697,
      "v": 56
    },
    {
      "midi": 69,
      "hit": false,
      "t": 6013.020833333335,
      "d": 70.3125,
      "v": 60
    },
    {
      "midi": 71,
      "hit": false,
      "t": 6088.541666666668,
      "d": 169.27083333333394,
      "v": 66
    },
    {
      "midi": 52,
      "hit": false,
      "t": 6114.583333333335,
      "d": 218.7500000000009,
      "v": 35
    },
    {
      "midi": 68,
      "hit": false,
      "t": 6315.104166666669,
      "d": 54.6875,
      "v": 75
    },
    {
      "midi": 66,
      "hit": false,
      "t": 6411.458333333336,
      "d": 57.29166666666697,
      "v": 65
    },
    {
      "midi": 68,
      "hit": false,
      "t": 6471.35416666667,
      "d": 218.75,
      "v": 62
    },
    {
      "midi": 64,
      "hit": false,
      "t": 6736.97916666667,
      "d": 46.875,
      "v": 48
    },
    {
      "midi": 63,
      "hit": false,
      "t": 6778.645833333337,
      "d": 75.52083333333303,
      "v": 66
    },
    {
      "midi": 64,
      "hit": false,
      "t": 6875.000000000003,
      "d": 437.4999999999991,
      "v": 62
    },
    {
      "midi": 52,
      "hit": false,
      "t": 7106.770833333336,
      "d": 361.97916666666606,
      "v": 61
    },
    {
      "midi": 66,
      "hit": false,
      "t": 7299.479166666669,
      "d": 484.3749999999991,
      "v": 59
    },
    {
      "midi": 51,
      "hit": false,
      "t": 7513.020833333335,
      "d": 411.45833333333303,
      "v": 47
    },
    {
      "midi": 68,
      "hit": false,
      "t": 7723.958333333335,
      "d": 497.39583333333303,
      "v": 60
    },
    {
      "midi": 50,
      "hit": false,
      "t": 7945.312500000001,
      "d": 453.1250000000009,
      "v": 53
    },
    {
      "midi": 69,
      "hit": false,
      "t": 8161.458333333334,
      "d": 463.5416666666679,
      "v": 74
    },
    {
      "midi": 49,
      "hit": false,
      "t": 8382.812500000002,
      "d": 468.75,
      "v": 59
    },
    {
      "midi": 71,
      "hit": false,
      "t": 8598.958333333336,
      "d": 497.3958333333321,
      "v": 69
    },
    {
      "midi": 47,
      "hit": false,
      "t": 8802.083333333336,
      "d": 403.6458333333321,
      "v": 62
    },
    {
      "midi": 73,
      "hit": false,
      "t": 9023.437500000002,
      "d": 471.35416666666606,
      "v": 81
    },
    {
      "midi": 45,
      "hit": false,
      "t": 9236.979166666668,
      "d": 408.85416666666606,
      "v": 73
    },
    {
      "midi": 75,
      "hit": false,
      "t": 9458.333333333334,
      "d": 450.5208333333321,
      "v": 75
    },
    {
      "midi": 44,
      "hit": false,
      "t": 9648.4375,
      "d": 437.5,
      "v": 59
    },
    {
      "midi": 76,
      "hit": false,
      "t": 9893.229166666666,
      "d": 231.77083333333394,
      "v": 78
    },
    {
      "midi": 42,
      "hit": false,
      "t": 10093.75,
      "d": 416.6666666666679,
      "v": 58
    },
    {
      "midi": 75,
      "hit": false,
      "t": 10111.979166666666,
      "d": 234.37500000000182,
      "v": 74
    },
    {
      "midi": 73,
      "hit": false,
      "t": 10317.708333333334,
      "d": 208.33333333333394,
      "v": 75
    },
    {
      "midi": 44,
      "hit": false,
      "t": 10507.812500000002,
      "d": 106.77083333333394,
      "v": 66
    },
    {
      "midi": 71,
      "hit": false,
      "t": 10546.875000000002,
      "d": 182.29166666666606,
      "v": 54
    },
    {
      "midi": 45,
      "hit": false,
      "t": 10625.000000000002,
      "d": 65.10416666666606,
      "v": 75
    },
    {
      "midi": 44,
      "hit": false,
      "t": 10723.958333333334,
      "d": 52.08333333333394,
      "v": 55
    },
    {
      "midi": 76,
      "hit": false,
      "t": 10723.958333333334,
      "d": 351.5625,
      "v": 84
    },
    {
      "midi": 47,
      "hit": false,
      "t": 10971.354166666668,
      "d": 49.47916666666606,
      "v": 54
    },
    {
      "midi": 45,
      "hit": false,
      "t": 11057.291666666668,
      "d": 62.5,
      "v": 80
    },
    {
      "midi": 47,
      "hit": false,
      "t": 11156.250000000002,
      "d": 138.02083333333212,
      "v": 66
    },
    {
      "midi": 64,
      "hit": false,
      "t": 11174.479166666668,
      "d": 695.3124999999982,
      "v": 82
    },
    {
      "midi": 44,
      "hit": false,
      "t": 11401.041666666668,
      "d": 65.10416666666606,
      "v": 70
    },
    {
      "midi": 42,
      "hit": false,
      "t": 11484.375,
      "d": 72.91666666666606,
      "v": 67
    },
    {
      "midi": 44,
      "hit": false,
      "t": 11578.125,
      "d": 70.3125,
      "v": 80
    },
    {
      "midi": 40,
      "hit": false,
      "t": 11828.125,
      "d": 46.875,
      "v": 74
    },
    {
      "midi": 39,
      "hit": false,
      "t": 11921.875,
      "d": 80.72916666666606,
      "v": 73
    },
    {
      "midi": 40,
      "hit": false,
      "t": 12057.291666666666,
      "d": 466.14583333333394,
      "v": 78
    },
    {
      "midi": 80,
      "hit": false,
      "t": 12317.708333333332,
      "d": 502.6041666666679,
      "v": 54
    },
    {
      "midi": 49,
      "hit": false,
      "t": 12518.229166666666,
      "d": 481.77083333333394,
      "v": 58
    },
    {
      "midi": 76,
      "hit": false,
      "t": 12760.416666666666,
      "d": 398.4375,
      "v": 68
    },
    {
      "midi": 52,
      "hit": false,
      "t": 12989.583333333334,
      "d": 403.6458333333321,
      "v": 59
    },
    {
      "midi": 73,
      "hit": false,
      "t": 13210.9375,
      "d": 382.8125,
      "v": 64
    },
    {
      "midi": 54,
      "hit": false,
      "t": 13416.666666666666,
      "d": 437.5,
      "v": 64
    },
    {
      "midi": 76,
      "hit": false,
      "t": 13664.0625,
      "d": 54.6875,
      "v": 63
    },
    {
      "midi": 75,
      "hit": false,
      "t": 13734.375,
      "d": 57.29166666666606,
      "v": 78
    },
    {
      "midi": 76,
      "hit": false,
      "t": 13851.5625,
      "d": 210.9375,
      "v": 78
    },
    {
      "midi": 58,
      "hit": false,
      "t": 13854.166666666666,
      "d": 364.58333333333394,
      "v": 64
    },
    {
      "midi": 73,
      "hit": false,
      "t": 14057.291666666666,
      "d": 98.95833333333394,
      "v": 73
    },
    {
      "midi": 70,
      "hit": false,
      "t": 14273.4375,
      "d": 111.97916666666606,
      "v": 84
    },
    {
      "midi": 61,
      "hit": false,
      "t": 14291.666666666666,
      "d": 153.64583333333394,
      "v": 45
    },
    {
      "midi": 66,
      "hit": false,
      "t": 14494.791666666666,
      "d": 200.52083333333394,
      "v": 72
    },
    {
      "midi": 39,
      "hit": false,
      "t": 14700.520833333334,
      "d": 445.3125,
      "v": 69
    },
    {
      "midi": 78,
      "hit": false,
      "t": 14921.875,
      "d": 531.25,
      "v": 75
    },
    {
      "midi": 47,
      "hit": false,
      "t": 15148.4375,
      "d": 460.9375,
      "v": 50
    },
    {
      "midi": 75,
      "hit": false,
      "t": 15390.625,
      "d": 401.04166666666606,
      "v": 56
    },
    {
      "midi": 51,
      "hit": false,
      "t": 15596.354166666666,
      "d": 421.875,
      "v": 51
    },
    {
      "midi": 71,
      "hit": false,
      "t": 15838.541666666666,
      "d": 380.20833333333394,
      "v": 43
    },
    {
      "midi": 52,
      "hit": false,
      "t": 16062.5,
      "d": 369.79166666666424,
      "v": 59
    },
    {
      "midi": 75,
      "hit": false,
      "t": 16270.833333333334,
      "d": 72.91666666666606,
      "v": 59
    },
    {
      "midi": 73,
      "hit": false,
      "t": 16361.979166666666,
      "d": 75.5208333333303,
      "v": 69
    },
    {
      "midi": 75,
      "hit": false,
      "t": 16450.52083333333,
      "d": 174.47916666666424,
      "v": 60
    },
    {
      "midi": 56,
      "hit": false,
      "t": 16455.72916666666,
      "d": 380.2083333333321,
      "v": 46
    },
    {
      "midi": 71,
      "hit": false,
      "t": 16687.499999999993,
      "d": 88.54166666666788,
      "v": 52
    },
    {
      "midi": 68,
      "hit": false,
      "t": 16869.79166666666,
      "d": 88.54166666666788,
      "v": 72
    },
    {
      "midi": 59,
      "hit": false,
      "t": 16927.08333333333,
      "d": 140.625,
      "v": 32
    },
    {
      "midi": 64,
      "hit": false,
      "t": 17106.77083333333,
      "d": 346.3541666666679,
      "v": 75
    },
    {
      "midi": 37,
      "hit": false,
      "t": 17312.499999999996,
      "d": 250,
      "v": 62
    },
    {
      "midi": 76,
      "hit": false,
      "t": 17539.062499999996,
      "d": 502.6041666666606,
      "v": 85
    },
    {
      "midi": 49,
      "hit": false,
      "t": 17781.249999999993,
      "d": 382.81249999999636,
      "v": 59
    },
    {
      "midi": 73,
      "hit": false,
      "t": 17989.583333333325,
      "d": 447.91666666666424,
      "v": 78
    },
    {
      "midi": 52,
      "hit": false,
      "t": 18223.95833333332,
      "d": 408.8541666666679,
      "v": 72
    },
    {
      "midi": 70,
      "hit": false,
      "t": 18437.49999999999,
      "d": 463.5416666666679,
      "v": 89
    },
    {
      "midi": 54,
      "hit": false,
      "t": 18648.43749999999,
      "d": 455.7291666666679,
      "v": 74
    },
    {
      "midi": 80,
      "hit": false,
      "t": 18869.791666666657,
      "d": 505.20833333333576,
      "v": 86
    },
    {
      "midi": 56,
      "hit": false,
      "t": 19085.93749999999,
      "d": 408.8541666666715,
      "v": 73
    },
    {
      "midi": 78,
      "hit": false,
      "t": 19302.083333333325,
      "d": 442.70833333333576,
      "v": 69
    },
    {
      "midi": 58,
      "hit": false,
      "t": 19505.20833333333,
      "d": 421.875,
      "v": 71
    },
    {
      "midi": 76,
      "hit": false,
      "t": 19739.58333333333,
      "d": 505.20833333333576,
      "v": 73
    },
    {
      "midi": 59,
      "hit": false,
      "t": 19960.937499999996,
      "d": 432.2916666666679,
      "v": 47
    },
    {
      "midi": 75,
      "hit": false,
      "t": 20187.499999999996,
      "d": 479.1666666666679,
      "v": 54
    },
    {
      "midi": 52,
      "hit": false,
      "t": 20408.854166666664,
      "d": 411.4583333333321,
      "v": 50
    },
    {
      "midi": 73,
      "hit": false,
      "t": 20614.583333333332,
      "d": 416.66666666666424,
      "v": 54
    },
    {
      "midi": 56,
      "hit": false,
      "t": 20841.14583333333,
      "d": 408.8541666666679,
      "v": 42
    },
    {
      "midi": 71,
      "hit": false,
      "t": 21065.104166666664,
      "d": 190.10416666666424,
      "v": 45
    },
    {
      "midi": 54,
      "hit": false,
      "t": 21286.45833333333,
      "d": 229.16666666666788,
      "v": 37
    },
    {
      "midi": 70,
      "hit": false,
      "t": 21299.47916666666,
      "d": 119.79166666666788,
      "v": 74
    },
    {
      "midi": 64,
      "hit": false,
      "t": 21526.041666666664,
      "d": 67.70833333333212,
      "v": 75
    },
    {
      "midi": 61,
      "hit": false,
      "t": 21531.249999999996,
      "d": 145.83333333333576,
      "v": 50
    },
    {
      "midi": 63,
      "hit": false,
      "t": 21611.979166666664,
      "d": 65.10416666666788,
      "v": 75
    },
    {
      "midi": 64,
      "hit": false,
      "t": 21716.145833333332,
      "d": 114.58333333333212,
      "v": 81
    },
    {
      "midi": 58,
      "hit": false,
      "t": 21731.770833333332,
      "d": 119.79166666666424,
      "v": 66
    },
    {
      "midi": 70,
      "hit": false,
      "t": 21942.70833333333,
      "d": 85.9375,
      "v": 89
    },
    {
      "midi": 61,
      "hit": false,
      "t": 21963.54166666666,
      "d": 109.37500000000364,
      "v": 48
    },
    {
      "midi": 68,
      "hit": false,
      "t": 22039.062499999996,
      "d": 72.91666666666788,
      "v": 79
    },
    {
      "midi": 70,
      "hit": false,
      "t": 22124.999999999996,
      "d": 119.79166666666788,
      "v": 94
    },
    {
      "midi": 52,
      "hit": false,
      "t": 22143.229166666664,
      "d": 101.5625,
      "v": 52
    },
    {
      "midi": 71,
      "hit": false,
      "t": 22356.770833333332,
      "d": 57.29166666666424,
      "v": 69
    },
    {
      "midi": 61,
      "hit": false,
      "t": 22377.604166666664,
      "d": 158.85416666666424,
      "v": 36
    },
    {
      "midi": 70,
      "hit": false,
      "t": 22445.312499999996,
      "d": 106.77083333333212,
      "v": 78
    },
    {
      "midi": 71,
      "hit": false,
      "t": 22562.499999999996,
      "d": 221.35416666666788,
      "v": 65
    },
    {
      "midi": 51,
      "hit": false,
      "t": 22570.312499999996,
      "d": 424.4791666666715,
      "v": 50
    },
    {
      "midi": 63,
      "hit": false,
      "t": 22794.270833333332,
      "d": 190.10416666666788,
      "v": 63
    },
    {
      "midi": 61,
      "hit": false,
      "t": 23005.208333333336,
      "d": 210.9375,
      "v": 66
    },
    {
      "midi": 52,
      "hit": false,
      "t": 23018.229166666668,
      "d": 432.29166666666424,
      "v": 48
    },
    {
      "midi": 71,
      "hit": false,
      "t": 23244.791666666668,
      "d": 169.27083333333212,
      "v": 53
    },
    {
      "midi": 54,
      "hit": false,
      "t": 23437.5,
      "d": 315.10416666666424,
      "v": 41
    },
    {
      "midi": 61,
      "hit": false,
      "t": 23445.3125,
      "d": 106.77083333333212,
      "v": 61
    },
    {
      "midi": 70,
      "hit": false,
      "t": 23677.083333333332,
      "d": 93.75,
      "v": 67
    },
    {
      "midi": 71,
      "hit": false,
      "t": 23882.8125,
      "d": 330.7291666666679,
      "v": 62
    },
    {
      "midi": 47,
      "hit": false,
      "t": 23898.4375,
      "d": 44.27083333333212,
      "v": 54
    },
    {
      "midi": 59,
      "hit": false,
      "t": 24132.8125,
      "d": 49.47916666666788,
      "v": 46
    },
    {
      "midi": 58,
      "hit": false,
      "t": 24218.75,
      "d": 54.6875,
      "v": 88
    },
    {
      "midi": 59,
      "hit": false,
      "t": 24315.104166666668,
      "d": 65.10416666666788,
      "v": 59
    },
    {
      "midi": 54,
      "hit": false,
      "t": 24507.812500000004,
      "d": 62.5,
      "v": 78
    },
    {
      "midi": 71,
      "hit": false,
      "t": 24539.062500000004,
      "d": 177.08333333333576,
      "v": 66
    },
    {
      "midi": 52,
      "hit": false,
      "t": 24619.79166666667,
      "d": 54.6875,
      "v": 53
    },
    {
      "midi": 54,
      "hit": false,
      "t": 24697.91666666667,
      "d": 57.29166666666788,
      "v": 72
    },
    {
      "midi": 75,
      "hit": false,
      "t": 24705.72916666667,
      "d": 257.8125,
      "v": 78
    },
    {
      "midi": 51,
      "hit": false,
      "t": 24921.875000000007,
      "d": 54.68749999999636,
      "v": 72
    },
    {
      "midi": 78,
      "hit": false,
      "t": 24942.70833333334,
      "d": 145.83333333333212,
      "v": 68
    },
    {
      "midi": 49,
      "hit": false,
      "t": 24994.79166666667,
      "d": 57.29166666666788,
      "v": 79
    },
    {
      "midi": 51,
      "hit": false,
      "t": 25114.58333333334,
      "d": 46.875,
      "v": 86
    },
    {
      "midi": 83,
      "hit": false,
      "t": 25125.000000000007,
      "d": 401.04166666666424,
      "v": 79
    },
    {
      "midi": 54,
      "hit": false,
      "t": 25341.14583333334,
      "d": 54.6875,
      "v": 79
    },
    {
      "midi": 52,
      "hit": false,
      "t": 25432.29166666667,
      "d": 44.27083333333212,
      "v": 91
    },
    {
      "midi": 54,
      "hit": false,
      "t": 25515.625000000004,
      "d": 67.70833333333576,
      "v": 91
    },
    {
      "midi": 51,
      "hit": false,
      "t": 25739.58333333334,
      "d": 62.5,
      "v": 83
    },
    {
      "midi": 83,
      "hit": false,
      "t": 25744.79166666667,
      "d": 244.79166666666424,
      "v": 83
    },
    {
      "midi": 49,
      "hit": false,
      "t": 25830.72916666667,
      "d": 44.27083333333212,
      "v": 83
    },
    {
      "midi": 78,
      "hit": false,
      "t": 25927.083333333336,
      "d": 260.4166666666679,
      "v": 88
    },
    {
      "midi": 51,
      "hit": false,
      "t": 25932.291666666668,
      "d": 49.47916666666788,
      "v": 84
    },
    {
      "midi": 75,
      "hit": false,
      "t": 26156.250000000004,
      "d": 161.45833333333212,
      "v": 79
    },
    {
      "midi": 47,
      "hit": false,
      "t": 26158.85416666667,
      "d": 39.0625,
      "v": 56
    },
    {
      "midi": 46,
      "hit": false,
      "t": 26244.79166666667,
      "d": 52.08333333333212,
      "v": 92
    },
    {
      "midi": 71,
      "hit": false,
      "t": 26346.354166666668,
      "d": 184.89583333333576,
      "v": 78
    },
    {
      "midi": 47,
      "hit": false,
      "t": 26348.958333333336,
      "d": 453.12500000000364,
      "v": 56
    },
    {
      "midi": 66,
      "hit": false,
      "t": 26570.312500000004,
      "d": 57.29166666666788,
      "v": 84
    },
    {
      "midi": 63,
      "hit": false,
      "t": 26776.04166666667,
      "d": 52.08333333333576,
      "v": 84
    },
    {
      "midi": 59,
      "hit": false,
      "t": 26989.58333333334,
      "d": 96.35416666666788,
      "v": 81
    },
    {
      "midi": 35,
      "hit": false,
      "t": 27239.58333333334,
      "d": 171.875,
      "v": 79
    },
    {
      "midi": 52,
      "hit": false,
      "t": 28145.833333333343,
      "d": 466.1458333333321,
      "v": 50
    },
    {
      "midi": 76,
      "hit": false,
      "t": 28393.229166666675,
      "d": 466.1458333333321,
      "v": 57
    },
    {
      "midi": 54,
      "hit": false,
      "t": 28580.729166666675,
      "d": 499.99999999999636,
      "v": 38
    },
    {
      "midi": 75,
      "hit": false,
      "t": 28812.500000000007,
      "d": 455.72916666666424,
      "v": 46
    },
    {
      "midi": 56,
      "hit": false,
      "t": 29028.64583333334,
      "d": 445.3125,
      "v": 41
    },
    {
      "midi": 74,
      "hit": false,
      "t": 29252.60416666667,
      "d": 473.95833333333576,
      "v": 50
    },
    {
      "midi": 57,
      "hit": false,
      "t": 29476.562500000007,
      "d": 393.2291666666679,
      "v": 50
    },
    {
      "midi": 73,
      "hit": false,
      "t": 29682.291666666675,
      "d": 442.7083333333321,
      "v": 51
    },
    {
      "midi": 59,
      "hit": false,
      "t": 29895.833333333343,
      "d": 429.68749999999636,
      "v": 51
    },
    {
      "midi": 71,
      "hit": false,
      "t": 30119.791666666675,
      "d": 450.5208333333285,
      "v": 55
    },
    {
      "midi": 61,
      "hit": false,
      "t": 30317.70833333334,
      "d": 445.3125,
      "v": 47
    },
    {
      "midi": 69,
      "hit": false,
      "t": 30549.47916666667,
      "d": 455.7291666666679,
      "v": 65
    },
    {
      "midi": 63,
      "hit": false,
      "t": 30752.60416666667,
      "d": 453.125,
      "v": 51
    },
    {
      "midi": 68,
      "hit": false,
      "t": 30973.95833333334,
      "d": 476.56250000000364,
      "v": 71
    },
    {
      "midi": 64,
      "hit": false,
      "t": 31197.91666666667,
      "d": 223.95833333333576,
      "v": 79
    },
    {
      "midi": 66,
      "hit": false,
      "t": 31403.64583333334,
      "d": 489.58333333333576,
      "v": 70
    },
    {
      "midi": 63,
      "hit": false,
      "t": 31424.479166666675,
      "d": 195.3125,
      "v": 61
    },
    {
      "midi": 61,
      "hit": false,
      "t": 31625.000000000007,
      "d": 213.54166666666788,
      "v": 74
    },
    {
      "midi": 68,
      "hit": false,
      "t": 31854.166666666675,
      "d": 57.29166666666788,
      "v": 68
    },
    {
      "midi": 59,
      "hit": false,
      "t": 31859.375000000007,
      "d": 135.41666666667152,
      "v": 50
    },
    {
      "midi": 69,
      "hit": false,
      "t": 31945.31250000001,
      "d": 98.95833333333576,
      "v": 66
    },
    {
      "midi": 64,
      "hit": false,
      "t": 32057.29166666668,
      "d": 125,
      "v": 81
    },
    {
      "midi": 68,
      "hit": false,
      "t": 32065.10416666668,
      "d": 127.60416666666788,
      "v": 82
    },
    {
      "midi": 71,
      "hit": false,
      "t": 32312.500000000015,
      "d": 57.29166666666788,
      "v": 55
    },
    {
      "midi": 69,
      "hit": false,
      "t": 32388.02083333335,
      "d": 96.35416666666788,
      "v": 79
    },
    {
      "midi": 71,
      "hit": false,
      "t": 32486.979166666686,
      "d": 132.8125,
      "v": 67
    },
    {
      "midi": 52,
      "hit": false,
      "t": 32486.979166666686,
      "d": 348.95833333333576,
      "v": 50
    },
    {
      "midi": 68,
      "hit": false,
      "t": 32718.75000000002,
      "d": 67.70833333333212,
      "v": 73
    },
    {
      "midi": 66,
      "hit": false,
      "t": 32815.104166666686,
      "d": 72.91666666667152,
      "v": 69
    },
    {
      "midi": 68,
      "hit": false,
      "t": 32888.02083333336,
      "d": 125,
      "v": 80
    },
    {
      "midi": 64,
      "hit": false,
      "t": 33135.41666666669,
      "d": 41.66666666666424,
      "v": 66
    },
    {
      "midi": 63,
      "hit": false,
      "t": 33197.91666666669,
      "d": 54.6875,
      "v": 73
    },
    {
      "midi": 64,
      "hit": false,
      "t": 33315.10416666669,
      "d": 447.91666666666424,
      "v": 52
    },
    {
      "midi": 52,
      "hit": false,
      "t": 33552.08333333336,
      "d": 416.66666666666424,
      "v": 55
    },
    {
      "midi": 66,
      "hit": false,
      "t": 33763.02083333336,
      "d": 505.20833333333576,
      "v": 44
    },
    {
      "midi": 51,
      "hit": false,
      "t": 33973.95833333336,
      "d": 416.6666666666715,
      "v": 57
    },
    {
      "midi": 68,
      "hit": false,
      "t": 34200.52083333336,
      "d": 460.9375000000073,
      "v": 75
    },
    {
      "midi": 50,
      "hit": false,
      "t": 34403.645833333365,
      "d": 442.7083333333285,
      "v": 72
    },
    {
      "midi": 69,
      "hit": false,
      "t": 34632.81250000003,
      "d": 455.72916666666424,
      "v": 78
    },
    {
      "midi": 49,
      "hit": false,
      "t": 34835.93750000003,
      "d": 466.14583333333576,
      "v": 69
    },
    {
      "midi": 71,
      "hit": false,
      "t": 35062.50000000003,
      "d": 494.79166666666424,
      "v": 75
    },
    {
      "midi": 47,
      "hit": false,
      "t": 35265.62500000003,
      "d": 434.8958333333285,
      "v": 65
    },
    {
      "midi": 73,
      "hit": false,
      "t": 35500.00000000003,
      "d": 473.9583333333285,
      "v": 80
    },
    {
      "midi": 45,
      "hit": false,
      "t": 35710.93750000002,
      "d": 414.0625,
      "v": 72
    },
    {
      "midi": 75,
      "hit": false,
      "t": 35927.08333333336,
      "d": 460.9374999999927,
      "v": 69
    },
    {
      "midi": 44,
      "hit": false,
      "t": 36127.604166666686,
      "d": 434.8958333333285,
      "v": 58
    },
    {
      "midi": 76,
      "hit": false,
      "t": 36364.58333333335,
      "d": 249.99999999999272,
      "v": 80
    },
    {
      "midi": 42,
      "hit": false,
      "t": 36572.91666666668,
      "d": 427.0833333333285,
      "v": 58
    },
    {
      "midi": 75,
      "hit": false,
      "t": 36583.33333333334,
      "d": 231.77083333332848,
      "v": 75
    },
    {
      "midi": 73,
      "hit": false,
      "t": 36789.06250000001,
      "d": 221.35416666666424,
      "v": 82
    },
    {
      "midi": 44,
      "hit": false,
      "t": 36986.97916666667,
      "d": 83.33333333333576,
      "v": 70
    },
    {
      "midi": 71,
      "hit": false,
      "t": 37002.60416666667,
      "d": 208.33333333333576,
      "v": 75
    },
    {
      "midi": 45,
      "hit": false,
      "t": 37114.58333333334,
      "d": 78.125,
      "v": 74
    },
    {
      "midi": 76,
      "hit": false,
      "t": 37203.12500000001,
      "d": 208.33333333332848,
      "v": 93
    },
    {
      "midi": 44,
      "hit": false,
      "t": 37229.16666666667,
      "d": 117.1875,
      "v": 77
    },
    {
      "midi": 47,
      "hit": false,
      "t": 37437.5,
      "d": 52.08333333333576,
      "v": 65
    },
    {
      "midi": 45,
      "hit": false,
      "t": 37515.625,
      "d": 54.6875,
      "v": 87
    },
    {
      "midi": 64,
      "hit": false,
      "t": 37604.166666666664,
      "d": 697.916666666657,
      "v": 70
    },
    {
      "midi": 47,
      "hit": false,
      "t": 37625,
      "d": 49.47916666666424,
      "v": 69
    },
    {
      "midi": 44,
      "hit": false,
      "t": 37843.75,
      "d": 57.29166666666424,
      "v": 84
    },
    {
      "midi": 42,
      "hit": false,
      "t": 37942.70833333333,
      "d": 46.875,
      "v": 72
    },
    {
      "midi": 44,
      "hit": false,
      "t": 38015.62499999999,
      "d": 104.16666666666424,
      "v": 68
    },
    {
      "midi": 40,
      "hit": false,
      "t": 38270.83333333332,
      "d": 44.27083333333576,
      "v": 57
    },
    {
      "midi": 39,
      "hit": false,
      "t": 38364.58333333332,
      "d": 57.29166666666424,
      "v": 68
    },
    {
      "midi": 40,
      "hit": false,
      "t": 38471.35416666665,
      "d": 106.77083333333576,
      "v": 90
    },
    {
      "midi": 80,
      "hit": false,
      "t": 38736.97916666665,
      "d": 541.6666666666642,
      "v": 67
    },
    {
      "midi": 49,
      "hit": false,
      "t": 38958.333333333314,
      "d": 450.52083333333576,
      "v": 65
    },
    {
      "midi": 76,
      "hit": false,
      "t": 39208.333333333314,
      "d": 440.1041666666715,
      "v": 69
    },
    {
      "midi": 52,
      "hit": false,
      "t": 39424.47916666665,
      "d": 416.6666666666715,
      "v": 60
    },
    {
      "midi": 73,
      "hit": false,
      "t": 39643.22916666665,
      "d": 343.7500000000073,
      "v": 63
    },
    {
      "midi": 54,
      "hit": false,
      "t": 39864.58333333332,
      "d": 432.29166666666424,
      "v": 57
    },
    {
      "midi": 76,
      "hit": false,
      "t": 40098.95833333332,
      "d": 70.3125,
      "v": 84
    },
    {
      "midi": 75,
      "hit": false,
      "t": 40187.499999999985,
      "d": 148.4375,
      "v": 76
    },
    {
      "midi": 58,
      "hit": false,
      "t": 40283.85416666665,
      "d": 442.70833333333576,
      "v": 60
    },
    {
      "midi": 76,
      "hit": false,
      "t": 40291.66666666665,
      "d": 114.58333333333576,
      "v": 95
    },
    {
      "midi": 73,
      "hit": false,
      "t": 40510.41666666665,
      "d": 83.33333333333576,
      "v": 81
    },
    {
      "midi": 70,
      "hit": false,
      "t": 40718.749999999985,
      "d": 57.29166666666424,
      "v": 88
    },
    {
      "midi": 61,
      "hit": false,
      "t": 40744.79166666665,
      "d": 158.85416666666424,
      "v": 38
    },
    {
      "midi": 66,
      "hit": false,
      "t": 40940.10416666665,
      "d": 424.4791666666715,
      "v": 63
    },
    {
      "midi": 39,
      "hit": false,
      "t": 41148.437499999985,
      "d": 453.1250000000073,
      "v": 67
    },
    {
      "midi": 78,
      "hit": false,
      "t": 41385.41666666666,
      "d": 518.2291666666642,
      "v": 73
    },
    {
      "midi": 47,
      "hit": false,
      "t": 41619.79166666666,
      "d": 445.3125,
      "v": 52
    },
    {
      "midi": 75,
      "hit": false,
      "t": 41848.95833333332,
      "d": 372.39583333333576,
      "v": 57
    },
    {
      "midi": 51,
      "hit": false,
      "t": 42067.70833333332,
      "d": 398.4375,
      "v": 51
    },
    {
      "midi": 71,
      "hit": false,
      "t": 42302.08333333332,
      "d": 317.7083333333285,
      "v": 44
    },
    {
      "midi": 52,
      "hit": false,
      "t": 42507.812499999985,
      "d": 393.22916666665697,
      "v": 60
    },
    {
      "midi": 75,
      "hit": false,
      "t": 42731.770833333314,
      "d": 80.72916666666424,
      "v": 67
    },
    {
      "midi": 73,
      "hit": false,
      "t": 42835.93749999998,
      "d": 67.70833333332848,
      "v": 65
    },
    {
      "midi": 75,
      "hit": false,
      "t": 42924.47916666664,
      "d": 161.45833333333576,
      "v": 57
    },
    {
      "midi": 56,
      "hit": false,
      "t": 42932.29166666664,
      "d": 401.0416666666715,
      "v": 42
    },
    {
      "midi": 71,
      "hit": false,
      "t": 43171.87499999998,
      "d": 59.89583333333576,
      "v": 39
    },
    {
      "midi": 68,
      "hit": false,
      "t": 43364.583333333314,
      "d": 67.70833333332848,
      "v": 50
    },
    {
      "midi": 59,
      "hit": false,
      "t": 43414.06249999998,
      "d": 101.5625,
      "v": 29
    },
    {
      "midi": 64,
      "hit": false,
      "t": 43606.770833333314,
      "d": 359.375,
      "v": 50
    },
    {
      "midi": 37,
      "hit": false,
      "t": 43812.49999999998,
      "d": 223.95833333333576,
      "v": 50
    },
    {
      "midi": 76,
      "hit": false,
      "t": 44057.29166666665,
      "d": 463.5416666666715,
      "v": 51
    },
    {
      "midi": 49,
      "hit": false,
      "t": 44255.20833333332,
      "d": 484.375,
      "v": 43
    },
    {
      "midi": 73,
      "hit": false,
      "t": 44499.999999999985,
      "d": 466.14583333333576,
      "v": 50
    },
    {
      "midi": 52,
      "hit": false,
      "t": 44739.58333333332,
      "d": 398.4375,
      "v": 48
    },
    {
      "midi": 70,
      "hit": false,
      "t": 44937.499999999985,
      "d": 466.14583333333576,
      "v": 64
    },
    {
      "midi": 54,
      "hit": false,
      "t": 45151.04166666666,
      "d": 492.1875,
      "v": 64
    },
    {
      "midi": 80,
      "hit": false,
      "t": 45385.41666666666,
      "d": 515.625,
      "v": 73
    },
    {
      "midi": 56,
      "hit": false,
      "t": 45588.54166666666,
      "d": 460.9375,
      "v": 72
    },
    {
      "midi": 78,
      "hit": false,
      "t": 45812.49999999999,
      "d": 432.29166666666424,
      "v": 81
    },
    {
      "midi": 58,
      "hit": false,
      "t": 46013.02083333332,
      "d": 434.89583333333576,
      "v": 80
    },
    {
      "midi": 76,
      "hit": false,
      "t": 46229.16666666666,
      "d": 507.8125,
      "v": 91
    },
    {
      "midi": 59,
      "hit": false,
      "t": 46458.33333333332,
      "d": 419.27083333333576,
      "v": 57
    },
    {
      "midi": 75,
      "hit": false,
      "t": 46682.29166666666,
      "d": 484.375,
      "v": 63
    },
    {
      "midi": 52,
      "hit": false,
      "t": 46901.04166666666,
      "d": 367.1875,
      "v": 52
    },
    {
      "midi": 73,
      "hit": false,
      "t": 47111.97916666666,
      "d": 401.04166666666424,
      "v": 64
    },
    {
      "midi": 56,
      "hit": false,
      "t": 47322.91666666666,
      "d": 380.2083333333285,
      "v": 49
    },
    {
      "midi": 71,
      "hit": false,
      "t": 47546.874999999985,
      "d": 156.25,
      "v": 42
    },
    {
      "midi": 70,
      "hit": false,
      "t": 47755.20833333332,
      "d": 148.4375,
      "v": 68
    },
    {
      "midi": 54,
      "hit": false,
      "t": 47765.624999999985,
      "d": 252.60416666666424,
      "v": 34
    },
    {
      "midi": 64,
      "hit": false,
      "t": 47989.58333333332,
      "d": 49.47916666666424,
      "v": 72
    },
    {
      "midi": 61,
      "hit": false,
      "t": 47999.999999999985,
      "d": 114.58333333332848,
      "v": 50
    },
    {
      "midi": 63,
      "hit": false,
      "t": 48072.91666666665,
      "d": 78.125,
      "v": 62
    },
    {
      "midi": 64,
      "hit": false,
      "t": 48161.458333333314,
      "d": 83.33333333333576,
      "v": 78
    },
    {
      "midi": 58,
      "hit": false,
      "t": 48182.29166666665,
      "d": 179.6875,
      "v": 64
    },
    {
      "midi": 61,
      "hit": false,
      "t": 48388.020833333314,
      "d": 143.22916666666424,
      "v": 54
    },
    {
      "midi": 70,
      "hit": false,
      "t": 48390.62499999998,
      "d": 62.5,
      "v": 78
    },
    {
      "midi": 68,
      "hit": false,
      "t": 48468.74999999998,
      "d": 93.75,
      "v": 72
    },
    {
      "midi": 70,
      "hit": false,
      "t": 48565.10416666664,
      "d": 96.35416666667152,
      "v": 80
    },
    {
      "midi": 52,
      "hit": false,
      "t": 48578.12499999998,
      "d": 283.8541666666715,
      "v": 62
    },
    {
      "midi": 71,
      "hit": false,
      "t": 48781.24999999998,
      "d": 80.72916666667152,
      "v": 74
    },
    {
      "midi": 61,
      "hit": false,
      "t": 48786.458333333314,
      "d": 164.0625,
      "v": 57
    },
    {
      "midi": 70,
      "hit": false,
      "t": 48880.208333333314,
      "d": 125,
      "v": 80
    },
    {
      "midi": 71,
      "hit": false,
      "t": 48981.770833333314,
      "d": 239.58333333333576,
      "v": 62
    },
    {
      "midi": 51,
      "hit": false,
      "t": 49002.60416666665,
      "d": 424.47916666666424,
      "v": 48
    },
    {
      "midi": 63,
      "hit": false,
      "t": 49216.145833333314,
      "d": 210.9375,
      "v": 67
    },
    {
      "midi": 61,
      "hit": false,
      "t": 49432.29166666665,
      "d": 223.95833333333576,
      "v": 63
    },
    {
      "midi": 52,
      "hit": false,
      "t": 49445.312499999985,
      "d": 429.6875,
      "v": 55
    },
    {
      "midi": 71,
      "hit": false,
      "t": 49677.08333333332,
      "d": 197.91666666666424,
      "v": 45
    },
    {
      "midi": 54,
      "hit": false,
      "t": 49874.999999999985,
      "d": 356.77083333333576,
      "v": 38
    },
    {
      "midi": 61,
      "hit": false,
      "t": 49880.20833333332,
      "d": 213.54166666666424,
      "v": 62
    },
    {
      "midi": 70,
      "hit": false,
      "t": 50114.58333333332,
      "d": 78.125,
      "v": 68
    },
    {
      "midi": 71,
      "hit": false,
      "t": 50338.54166666666,
      "d": 338.5416666666715,
      "v": 55
    },
    {
      "midi": 47,
      "hit": false,
      "t": 50351.56249999999,
      "d": 65.10416666666424,
      "v": 34
    },
    {
      "midi": 59,
      "hit": false,
      "t": 50562.49999999999,
      "d": 49.47916666667152,
      "v": 56
    },
    {
      "midi": 58,
      "hit": false,
      "t": 50645.83333333333,
      "d": 62.5,
      "v": 89
    },
    {
      "midi": 59,
      "hit": false,
      "t": 50749.99999999999,
      "d": 52.08333333333576,
      "v": 65
    },
    {
      "midi": 54,
      "hit": false,
      "t": 50953.12499999999,
      "d": 67.70833333333576,
      "v": 75
    },
    {
      "midi": 71,
      "hit": false,
      "t": 50989.58333333333,
      "d": 182.29166666667152,
      "v": 66
    },
    {
      "midi": 52,
      "hit": false,
      "t": 51057.291666666664,
      "d": 46.875,
      "v": 73
    },
    {
      "midi": 54,
      "hit": false,
      "t": 51151.041666666664,
      "d": 65.10416666667152,
      "v": 70
    },
    {
      "midi": 75,
      "hit": false,
      "t": 51156.25,
      "d": 156.25,
      "v": 78
    },
    {
      "midi": 51,
      "hit": false,
      "t": 51375,
      "d": 57.29166666666424,
      "v": 70
    },
    {
      "midi": 78,
      "hit": false,
      "t": 51390.625,
      "d": 65.10416666666424,
      "v": 72
    },
    {
      "midi": 49,
      "hit": false,
      "t": 51466.14583333333,
      "d": 59.89583333333576,
      "v": 72
    },
    {
      "midi": 83,
      "hit": false,
      "t": 51570.3125,
      "d": 460.9375,
      "v": 76
    },
    {
      "midi": 51,
      "hit": false,
      "t": 51580.729166666664,
      "d": 49.47916666666424,
      "v": 84
    },
    {
      "midi": 54,
      "hit": false,
      "t": 51799.479166666664,
      "d": 52.08333333333576,
      "v": 71
    },
    {
      "midi": 52,
      "hit": false,
      "t": 51877.604166666664,
      "d": 54.6875,
      "v": 87
    },
    {
      "midi": 54,
      "hit": false,
      "t": 51968.75,
      "d": 75.52083333333576,
      "v": 84
    },
    {
      "midi": 51,
      "hit": false,
      "t": 52192.708333333336,
      "d": 65.10416666666424,
      "v": 84
    },
    {
      "midi": 83,
      "hit": false,
      "t": 52200.520833333336,
      "d": 242.18749999999272,
      "v": 90
    },
    {
      "midi": 49,
      "hit": false,
      "t": 52291.666666666664,
      "d": 44.27083333333576,
      "v": 85
    },
    {
      "midi": 51,
      "hit": false,
      "t": 52382.8125,
      "d": 49.47916666666424,
      "v": 90
    },
    {
      "midi": 78,
      "hit": false,
      "t": 52382.8125,
      "d": 145.83333333332848,
      "v": 91
    },
    {
      "midi": 75,
      "hit": false,
      "t": 52611.979166666664,
      "d": 143.22916666666424,
      "v": 80
    },
    {
      "midi": 47,
      "hit": false,
      "t": 52614.58333333333,
      "d": 41.66666666666424,
      "v": 60
    },
    {
      "midi": 46,
      "hit": false,
      "t": 52674.47916666666,
      "d": 52.08333333333576,
      "v": 94
    },
    {
      "midi": 71,
      "hit": false,
      "t": 52796.87499999999,
      "d": 93.75,
      "v": 87
    },
    {
      "midi": 47,
      "hit": false,
      "t": 52799.47916666666,
      "d": 440.1041666666715,
      "v": 66
    },
    {
      "midi": 66,
      "hit": false,
      "t": 53007.81249999999,
      "d": 72.91666666666424,
      "v": 86
    },
    {
      "midi": 63,
      "hit": false,
      "t": 53218.74999999999,
      "d": 41.66666666667152,
      "v": 85
    },
    {
      "midi": 59,
      "hit": false,
      "t": 53432.291666666664,
      "d": 96.35416666666424,
      "v": 81
    },
    {
      "midi": 35,
      "hit": false,
      "t": 53692.70833333333,
      "d": 195.3125,
      "v": 76
    },
    {
      "midi": 59,
      "hit": false,
      "t": 54604.16666666666,
      "d": 125,
      "v": 36
    },
    {
      "midi": 59,
      "hit": false,
      "t": 54854.16666666666,
      "d": 208.33333333333576,
      "v": 36
    },
    {
      "midi": 61,
      "hit": false,
      "t": 55041.66666666666,
      "d": 528.6458333333358,
      "v": 55
    },
    {
      "midi": 58,
      "hit": false,
      "t": 55252.60416666666,
      "d": 411.45833333333576,
      "v": 55
    },
    {
      "midi": 63,
      "hit": false,
      "t": 55476.56249999999,
      "d": 471.3541666666715,
      "v": 58
    },
    {
      "midi": 57,
      "hit": false,
      "t": 55677.08333333333,
      "d": 427.08333333333576,
      "v": 52
    },
    {
      "midi": 64,
      "hit": false,
      "t": 55903.64583333333,
      "d": 510.41666666666424,
      "v": 63
    },
    {
      "midi": 56,
      "hit": false,
      "t": 56114.58333333333,
      "d": 434.89583333333576,
      "v": 52
    },
    {
      "midi": 66,
      "hit": false,
      "t": 56320.31249999999,
      "d": 513.0208333333358,
      "v": 65
    },
    {
      "midi": 54,
      "hit": false,
      "t": 56536.45833333333,
      "d": 416.66666666666424,
      "v": 45
    },
    {
      "midi": 68,
      "hit": false,
      "t": 56747.39583333333,
      "d": 471.35416666666424,
      "v": 65
    },
    {
      "midi": 52,
      "hit": false,
      "t": 56960.93749999999,
      "d": 437.5,
      "v": 53
    },
    {
      "midi": 70,
      "hit": false,
      "t": 57179.68749999999,
      "d": 479.16666666666424,
      "v": 76
    },
    {
      "midi": 51,
      "hit": false,
      "t": 57385.41666666666,
      "d": 463.54166666666424,
      "v": 54
    },
    {
      "midi": 71,
      "hit": false,
      "t": 57632.81249999999,
      "d": 244.79166666665697,
      "v": 64
    },
    {
      "midi": 70,
      "hit": false,
      "t": 57851.562499999985,
      "d": 239.58333333333576,
      "v": 81
    },
    {
      "midi": 49,
      "hit": false,
      "t": 57854.16666666665,
      "d": 419.27083333333576,
      "v": 49
    },
    {
      "midi": 68,
      "hit": false,
      "t": 58062.499999999985,
      "d": 260.4166666666715,
      "v": 83
    },
    {
      "midi": 51,
      "hit": false,
      "t": 58265.624999999985,
      "d": 93.75000000000728,
      "v": 61
    },
    {
      "midi": 66,
      "hit": false,
      "t": 58278.64583333332,
      "d": 210.93750000000728,
      "v": 73
    },
    {
      "midi": 52,
      "hit": false,
      "t": 58382.81249999999,
      "d": 62.5,
      "v": 63
    },
    {
      "midi": 51,
      "hit": false,
      "t": 58481.77083333333,
      "d": 62.5,
      "v": 70
    },
    {
      "midi": 71,
      "hit": false,
      "t": 58484.37499999999,
      "d": 356.77083333334303,
      "v": 64
    },
    {
      "midi": 54,
      "hit": false,
      "t": 58687.49999999999,
      "d": 59.89583333333576,
      "v": 72
    },
    {
      "midi": 52,
      "hit": false,
      "t": 58791.666666666664,
      "d": 44.27083333333576,
      "v": 65
    },
    {
      "midi": 54,
      "hit": false,
      "t": 58869.79166666667,
      "d": 57.29166666666424,
      "v": 78
    },
    {
      "midi": 59,
      "hit": false,
      "t": 58877.60416666667,
      "d": 658.8541666666642,
      "v": 60
    },
    {
      "midi": 51,
      "hit": false,
      "t": 59101.5625,
      "d": 59.89583333333576,
      "v": 76
    },
    {
      "midi": 49,
      "hit": false,
      "t": 59192.708333333336,
      "d": 49.47916666666424,
      "v": 71
    },
    {
      "midi": 51,
      "hit": false,
      "t": 59281.25,
      "d": 93.75,
      "v": 65
    },
    {
      "midi": 47,
      "hit": false,
      "t": 59515.625,
      "d": 46.875,
      "v": 54
    },
    {
      "midi": 46,
      "hit": false,
      "t": 59591.145833333336,
      "d": 57.29166666666424,
      "v": 85
    },
    {
      "midi": 47,
      "hit": false,
      "t": 59739.583333333336,
      "d": 414.0625,
      "v": 50
    },
    {
      "midi": 83,
      "hit": false,
      "t": 59984.375,
      "d": 445.3125,
      "v": 51
    },
    {
      "midi": 49,
      "hit": false,
      "t": 60166.66666666667,
      "d": 440.10416666666424,
      "v": 46
    },
    {
      "midi": 82,
      "hit": false,
      "t": 60403.645833333336,
      "d": 494.79166666666424,
      "v": 74
    },
    {
      "midi": 51,
      "hit": false,
      "t": 60606.770833333336,
      "d": 455.72916666666424,
      "v": 58
    },
    {
      "midi": 81,
      "hit": false,
      "t": 60848.958333333336,
      "d": 562.5,
      "v": 90
    },
    {
      "midi": 52,
      "hit": false,
      "t": 61057.291666666664,
      "d": 458.33333333333576,
      "v": 65
    },
    {
      "midi": 80,
      "hit": false,
      "t": 61270.833333333336,
      "d": 539.0625,
      "v": 77
    },
    {
      "midi": 54,
      "hit": false,
      "t": 61505.208333333336,
      "d": 440.1041666666715,
      "v": 58
    },
    {
      "midi": 78,
      "hit": false,
      "t": 61723.958333333336,
      "d": 424.4791666666715,
      "v": 67
    },
    {
      "midi": 56,
      "hit": false,
      "t": 61916.66666666667,
      "d": 416.6666666666715,
      "v": 61
    },
    {
      "midi": 76,
      "hit": false,
      "t": 62148.43750000001,
      "d": 445.3125000000073,
      "v": 80
    },
    {
      "midi": 58,
      "hit": false,
      "t": 62341.14583333334,
      "d": 437.5000000000073,
      "v": 71
    },
    {
      "midi": 75,
      "hit": false,
      "t": 62572.91666666668,
      "d": 479.1666666666788,
      "v": 75
    },
    {
      "midi": 59,
      "hit": false,
      "t": 62783.854166666686,
      "d": 239.58333333333576,
      "v": 64
    },
    {
      "midi": 73,
      "hit": false,
      "t": 63002.604166666686,
      "d": 468.7500000000073,
      "v": 72
    },
    {
      "midi": 58,
      "hit": false,
      "t": 63015.62500000002,
      "d": 192.70833333333576,
      "v": 75
    },
    {
      "midi": 56,
      "hit": false,
      "t": 63208.33333333336,
      "d": 190.10416666666424,
      "v": 67
    },
    {
      "midi": 54,
      "hit": false,
      "t": 63427.08333333336,
      "d": 164.0625,
      "v": 62
    },
    {
      "midi": 75,
      "hit": false,
      "t": 63434.89583333336,
      "d": 72.91666666667152,
      "v": 66
    },
    {
      "midi": 76,
      "hit": false,
      "t": 63523.43750000003,
      "d": 49.47916666666424,
      "v": 84
    },
    {
      "midi": 59,
      "hit": false,
      "t": 63632.81250000002,
      "d": 127.60416666666424,
      "v": 73
    },
    {
      "midi": 75,
      "hit": false,
      "t": 63640.62500000002,
      "d": 236.97916666666424,
      "v": 80
    },
    {
      "midi": 78,
      "hit": false,
      "t": 63877.604166666686,
      "d": 75.52083333333576,
      "v": 74
    },
    {
      "midi": 76,
      "hit": false,
      "t": 63971.354166666686,
      "d": 49.47916666666424,
      "v": 79
    },
    {
      "midi": 47,
      "hit": false,
      "t": 64044.27083333335,
      "d": 263.02083333333576,
      "v": 43
    },
    {
      "midi": 78,
      "hit": false,
      "t": 64057.291666666686,
      "d": 239.58333333333576,
      "v": 59
    },
    {
      "midi": 75,
      "hit": false,
      "t": 64296.87500000002,
      "d": 54.6875,
      "v": 55
    },
    {
      "midi": 73,
      "hit": false,
      "t": 64395.83333333336,
      "d": 65.10416666666424,
      "v": 48
    },
    {
      "midi": 75,
      "hit": false,
      "t": 64489.58333333336,
      "d": 247.39583333332848,
      "v": 46
    },
    {
      "midi": 71,
      "hit": false,
      "t": 64726.56250000002,
      "d": 52.08333333332848,
      "v": 43
    },
    {
      "midi": 70,
      "hit": false,
      "t": 64799.479166666686,
      "d": 80.72916666666424,
      "v": 66
    },
    {
      "midi": 71,
      "hit": false,
      "t": 64908.854166666686,
      "d": 231.77083333333576,
      "v": 41
    },
    {
      "midi": 56,
      "hit": false,
      "t": 64921.87500000002,
      "d": 171.875,
      "v": 51
    },
    {
      "midi": 75,
      "hit": false,
      "t": 65164.06250000002,
      "d": 57.29166666666424,
      "v": 52
    },
    {
      "midi": 73,
      "hit": false,
      "t": 65229.166666666686,
      "d": 153.64583333333576,
      "v": 71
    },
    {
      "midi": 75,
      "hit": false,
      "t": 65354.166666666686,
      "d": 125,
      "v": 78
    },
    {
      "midi": 59,
      "hit": false,
      "t": 65361.979166666686,
      "d": 101.5625,
      "v": 43
    },
    {
      "midi": 80,
      "hit": false,
      "t": 65554.68750000001,
      "d": 111.97916666665697,
      "v": 83
    },
    {
      "midi": 79,
      "hit": false,
      "t": 65661.45833333334,
      "d": 124.99999999998545,
      "v": 88
    },
    {
      "midi": 80,
      "hit": false,
      "t": 65760.41666666667,
      "d": 244.79166666667152,
      "v": 84
    },
    {
      "midi": 63,
      "hit": false,
      "t": 65781.25,
      "d": 132.8125,
      "v": 52
    },
    {
      "midi": 73,
      "hit": false,
      "t": 66002.60416666667,
      "d": 65.10416666667152,
      "v": 72
    },
    {
      "midi": 71,
      "hit": false,
      "t": 66114.58333333334,
      "d": 78.125,
      "v": 55
    },
    {
      "midi": 73,
      "hit": false,
      "t": 66221.35416666667,
      "d": 226.5625,
      "v": 79
    },
    {
      "midi": 55,
      "hit": false,
      "t": 66226.5625,
      "d": 132.8125,
      "v": 72
    },
    {
      "midi": 76,
      "hit": false,
      "t": 66484.375,
      "d": 44.27083333332848,
      "v": 77
    },
    {
      "midi": 75,
      "hit": false,
      "t": 66541.66666666666,
      "d": 44.27083333332848,
      "v": 78
    },
    {
      "midi": 76,
      "hit": false,
      "t": 66645.83333333331,
      "d": 182.29166666667152,
      "v": 76
    },
    {
      "midi": 58,
      "hit": false,
      "t": 66661.45833333331,
      "d": 132.8125,
      "v": 59
    },
    {
      "midi": 82,
      "hit": false,
      "t": 66890.62499999999,
      "d": 98.95833333332848,
      "v": 88
    },
    {
      "midi": 80,
      "hit": false,
      "t": 66994.79166666664,
      "d": 132.8125,
      "v": 73
    },
    {
      "midi": 82,
      "hit": false,
      "t": 67091.14583333331,
      "d": 174.47916666665697,
      "v": 89
    },
    {
      "midi": 63,
      "hit": false,
      "t": 67098.95833333331,
      "d": 119.79166666665697,
      "v": 57
    },
    {
      "midi": 75,
      "hit": false,
      "t": 67338.54166666664,
      "d": 57.29166666667152,
      "v": 72
    },
    {
      "midi": 73,
      "hit": false,
      "t": 67414.06249999999,
      "d": 101.5625,
      "v": 81
    },
    {
      "midi": 56,
      "hit": false,
      "t": 67528.64583333331,
      "d": 158.85416666667152,
      "v": 55
    },
    {
      "midi": 75,
      "hit": false,
      "t": 67544.27083333331,
      "d": 158.85416666667152,
      "v": 84
    },
    {
      "midi": 80,
      "hit": false,
      "t": 67765.62499999999,
      "d": 98.95833333332848,
      "v": 81
    },
    {
      "midi": 79,
      "hit": false,
      "t": 67867.18749999999,
      "d": 161.45833333332848,
      "v": 82
    },
    {
      "midi": 59,
      "hit": false,
      "t": 67958.33333333331,
      "d": 127.60416666667152,
      "v": 45
    },
    {
      "midi": 80,
      "hit": false,
      "t": 67958.33333333331,
      "d": 135.41666666667152,
      "v": 88
    },
    {
      "midi": 83,
      "hit": false,
      "t": 68190.10416666666,
      "d": 93.75,
      "v": 72
    },
    {
      "midi": 82,
      "hit": false,
      "t": 68278.64583333333,
      "d": 138.02083333332848,
      "v": 83
    },
    {
      "midi": 83,
      "hit": false,
      "t": 68380.20833333333,
      "d": 171.875,
      "v": 70
    },
    {
      "midi": 63,
      "hit": false,
      "t": 68395.83333333333,
      "d": 114.58333333332848,
      "v": 63
    },
    {
      "midi": 75,
      "hit": false,
      "t": 68598.95833333333,
      "d": 59.89583333332848,
      "v": 69
    },
    {
      "midi": 74,
      "hit": false,
      "t": 68695.31249999999,
      "d": 65.10416666667152,
      "v": 79
    },
    {
      "midi": 51,
      "hit": false,
      "t": 68791.66666666666,
      "d": 192.70833333334303,
      "v": 62
    },
    {
      "midi": 75,
      "hit": false,
      "t": 68809.89583333333,
      "d": 127.60416666667152,
      "v": 82
    },
    {
      "midi": 82,
      "hit": false,
      "t": 69007.8125,
      "d": 122.39583333332848,
      "v": 97
    },
    {
      "midi": 80,
      "hit": false,
      "t": 69122.39583333333,
      "d": 111.97916666667152,
      "v": 84
    },
    {
      "midi": 82,
      "hit": false,
      "t": 69208.33333333333,
      "d": 151.04166666667152,
      "v": 89
    },
    {
      "midi": 63,
      "hit": false,
      "t": 69231.77083333333,
      "d": 130.20833333334303,
      "v": 64
    },
    {
      "midi": 79,
      "hit": false,
      "t": 69445.3125,
      "d": 49.47916666667152,
      "v": 86
    },
    {
      "midi": 77,
      "hit": false,
      "t": 69533.85416666667,
      "d": 54.6875,
      "v": 86
    },
    {
      "midi": 79,
      "hit": false,
      "t": 69645.83333333334,
      "d": 114.58333333334303,
      "v": 87
    },
    {
      "midi": 61,
      "hit": false,
      "t": 69648.43750000001,
      "d": 174.47916666667152,
      "v": 48
    },
    {
      "midi": 75,
      "hit": false,
      "t": 69841.14583333336,
      "d": 62.5,
      "v": 68
    },
    {
      "midi": 74,
      "hit": false,
      "t": 69958.33333333336,
      "d": 67.70833333332848,
      "v": 66
    },
    {
      "midi": 75,
      "hit": false,
      "t": 70065.10416666669,
      "d": 205.72916666667152,
      "v": 65
    },
    {
      "midi": 60,
      "hit": false,
      "t": 70083.33333333336,
      "d": 453.125,
      "v": 59
    },
    {
      "midi": 81,
      "hit": false,
      "t": 70320.31250000003,
      "d": 523.4375,
      "v": 75
    },
    {
      "midi": 61,
      "hit": false,
      "t": 70528.64583333336,
      "d": 476.5625,
      "v": 41
    },
    {
      "midi": 80,
      "hit": false,
      "t": 70755.20833333336,
      "d": 494.7916666666715,
      "v": 62
    },
    {
      "midi": 63,
      "hit": false,
      "t": 70989.58333333336,
      "d": 440.1041666666715,
      "v": 37
    },
    {
      "midi": 78,
      "hit": false,
      "t": 71203.12500000003,
      "d": 437.5,
      "v": 55
    },
    {
      "midi": 56,
      "hit": false,
      "t": 71421.87500000003,
      "d": 164.0625,
      "v": 49
    },
    {
      "midi": 76,
      "hit": false,
      "t": 71658.8541666667,
      "d": 57.29166666667152,
      "v": 73
    },
    {
      "midi": 75,
      "hit": false,
      "t": 71752.6041666667,
      "d": 132.81250000001455,
      "v": 77
    },
    {
      "midi": 61,
      "hit": false,
      "t": 71864.58333333337,
      "d": 343.75,
      "v": 52
    },
    {
      "midi": 76,
      "hit": false,
      "t": 71867.18750000004,
      "d": 195.3125,
      "v": 81
    },
    {
      "midi": 73,
      "hit": false,
      "t": 72072.91666666672,
      "d": 67.70833333332848,
      "v": 70
    },
    {
      "midi": 72,
      "hit": false,
      "t": 72171.87500000004,
      "d": 114.58333333332848,
      "v": 70
    },
    {
      "midi": 73,
      "hit": false,
      "t": 72270.83333333337,
      "d": 187.5,
      "v": 62
    },
    {
      "midi": 59,
      "hit": false,
      "t": 72278.64583333337,
      "d": 424.4791666666715,
      "v": 38
    },
    {
      "midi": 76,
      "hit": false,
      "t": 72523.43750000004,
      "d": 59.89583333332848,
      "v": 52
    },
    {
      "midi": 75,
      "hit": false,
      "t": 72601.56250000004,
      "d": 78.125,
      "v": 52
    },
    {
      "midi": 76,
      "hit": false,
      "t": 72708.33333333337,
      "d": 244.79166666667152,
      "v": 49
    },
    {
      "midi": 58,
      "hit": false,
      "t": 72736.9791666667,
      "d": 388.02083333334303,
      "v": 26
    },
    {
      "midi": 80,
      "hit": false,
      "t": 72934.89583333337,
      "d": 536.458333333343,
      "v": 78
    },
    {
      "midi": 59,
      "hit": false,
      "t": 73164.06250000004,
      "d": 408.8541666666715,
      "v": 40
    },
    {
      "midi": 78,
      "hit": false,
      "t": 73375.00000000004,
      "d": 445.31250000001455,
      "v": 61
    },
    {
      "midi": 61,
      "hit": false,
      "t": 73606.77083333339,
      "d": 437.5,
      "v": 37
    },
    {
      "midi": 76,
      "hit": false,
      "t": 73833.33333333339,
      "d": 416.6666666666715,
      "v": 63
    },
    {
      "midi": 54,
      "hit": false,
      "t": 74059.89583333339,
      "d": 294.2708333333285,
      "v": 42
    },
    {
      "midi": 75,
      "hit": false,
      "t": 74265.62500000006,
      "d": 75.52083333332848,
      "v": 67
    },
    {
      "midi": 73,
      "hit": false,
      "t": 74377.60416666672,
      "d": 111.97916666667152,
      "v": 53
    },
    {
      "midi": 75,
      "hit": false,
      "t": 74458.33333333339,
      "d": 231.77083333334303,
      "v": 63
    },
    {
      "midi": 59,
      "hit": false,
      "t": 74484.37500000006,
      "d": 203.125,
      "v": 30
    },
    {
      "midi": 71,
      "hit": false,
      "t": 74716.1458333334,
      "d": 54.6875,
      "v": 52
    },
    {
      "midi": 70,
      "hit": false,
      "t": 74791.66666666673,
      "d": 67.70833333332848,
      "v": 67
    },
    {
      "midi": 71,
      "hit": false,
      "t": 74890.62500000006,
      "d": 192.70833333332848,
      "v": 57
    },
    {
      "midi": 63,
      "hit": false,
      "t": 74908.85416666673,
      "d": 130.20833333332848,
      "v": 38
    },
    {
      "midi": 73,
      "hit": false,
      "t": 75122.39583333339,
      "d": 57.29166666667152,
      "v": 63
    },
    {
      "midi": 71,
      "hit": false,
      "t": 75197.91666666673,
      "d": 117.1875,
      "v": 52
    },
    {
      "midi": 73,
      "hit": false,
      "t": 75312.50000000006,
      "d": 265.625,
      "v": 62
    },
    {
      "midi": 55,
      "hit": false,
      "t": 75322.91666666673,
      "d": 479.1666666666715,
      "v": 59
    },
    {
      "midi": 76,
      "hit": false,
      "t": 75549.47916666673,
      "d": 481.7708333333285,
      "v": 80
    },
    {
      "midi": 56,
      "hit": false,
      "t": 75744.79166666673,
      "d": 533.854166666657,
      "v": 73
    },
    {
      "midi": 75,
      "hit": false,
      "t": 75971.35416666673,
      "d": 494.79166666665697,
      "v": 67
    },
    {
      "midi": 58,
      "hit": false,
      "t": 76208.33333333339,
      "d": 408.8541666666715,
      "v": 67
    },
    {
      "midi": 73,
      "hit": false,
      "t": 76421.87500000006,
      "d": 427.0833333333285,
      "v": 67
    },
    {
      "midi": 51,
      "hit": false,
      "t": 76640.62500000006,
      "d": 317.7083333333285,
      "v": 65
    },
    {
      "midi": 71,
      "hit": false,
      "t": 76867.18750000006,
      "d": 96.35416666665697,
      "v": 60
    },
    {
      "midi": 70,
      "hit": false,
      "t": 76958.33333333339,
      "d": 130.20833333332848,
      "v": 92
    },
    {
      "midi": 71,
      "hit": false,
      "t": 77062.50000000004,
      "d": 223.95833333332848,
      "v": 71
    },
    {
      "midi": 56,
      "hit": false,
      "t": 77101.56250000004,
      "d": 177.08333333332848,
      "v": 57
    },
    {
      "midi": 68,
      "hit": false,
      "t": 77294.27083333337,
      "d": 80.72916666667152,
      "v": 72
    },
    {
      "midi": 67,
      "hit": false,
      "t": 77398.43750000004,
      "d": 138.02083333332848,
      "v": 72
    },
    {
      "midi": 68,
      "hit": false,
      "t": 77500.00000000004,
      "d": 192.70833333332848,
      "v": 80
    },
    {
      "midi": 59,
      "hit": false,
      "t": 77505.20833333337,
      "d": 182.29166666667152,
      "v": 52
    },
    {
      "midi": 69,
      "hit": false,
      "t": 77721.3541666667,
      "d": 83.33333333332848,
      "v": 74
    },
    {
      "midi": 68,
      "hit": false,
      "t": 77807.2916666667,
      "d": 104.16666666667152,
      "v": 71
    },
    {
      "midi": 69,
      "hit": false,
      "t": 77929.68750000004,
      "d": 250,
      "v": 88
    },
    {
      "midi": 49,
      "hit": false,
      "t": 77934.89583333337,
      "d": 585.9375000000146,
      "v": 84
    },
    {
      "midi": 73,
      "hit": false,
      "t": 78190.10416666672,
      "d": 111.97916666667152,
      "v": 84
    },
    {
      "midi": 71,
      "hit": false,
      "t": 78278.64583333339,
      "d": 138.02083333332848,
      "v": 80
    },
    {
      "midi": 73,
      "hit": false,
      "t": 78385.41666666672,
      "d": 229.16666666667152,
      "v": 86
    },
    {
      "midi": 69,
      "hit": false,
      "t": 78622.39583333339,
      "d": 65.10416666667152,
      "v": 82
    },
    {
      "midi": 68,
      "hit": false,
      "t": 78692.70833333339,
      "d": 130.20833333332848,
      "v": 85
    },
    {
      "midi": 69,
      "hit": false,
      "t": 78809.89583333339,
      "d": 148.4375,
      "v": 87
    },
    {
      "midi": 61,
      "hit": false,
      "t": 78809.89583333339,
      "d": 809.8958333333139,
      "v": 95
    },
    {
      "midi": 76,
      "hit": false,
      "t": 79020.83333333339,
      "d": 114.58333333332848,
      "v": 91
    },
    {
      "midi": 75,
      "hit": false,
      "t": 79127.60416666672,
      "d": 148.4375,
      "v": 86
    },
    {
      "midi": 76,
      "hit": false,
      "t": 79229.16666666672,
      "d": 179.6875,
      "v": 91
    },
    {
      "midi": 67,
      "hit": false,
      "t": 79453.12500000004,
      "d": 57.29166666667152,
      "v": 80
    },
    {
      "midi": 65,
      "hit": false,
      "t": 79531.25000000004,
      "d": 75.52083333332848,
      "v": 85
    },
    {
      "midi": 67,
      "hit": false,
      "t": 79632.81250000003,
      "d": 138.02083333332848,
      "v": 89
    },
    {
      "midi": 58,
      "hit": false,
      "t": 79640.62500000003,
      "d": 346.35416666665697,
      "v": 83
    },
    {
      "midi": 70,
      "hit": false,
      "t": 79856.77083333336,
      "d": 117.1875,
      "v": 91
    },
    {
      "midi": 68,
      "hit": false,
      "t": 79947.91666666669,
      "d": 59.89583333332848,
      "v": 86
    },
    {
      "midi": 70,
      "hit": false,
      "t": 80070.31250000001,
      "d": 65.10416666667152,
      "v": 88
    },
    {
      "midi": 55,
      "hit": false,
      "t": 80078.12500000001,
      "d": 213.54166666667152,
      "v": 78
    },
    {
      "midi": 59,
      "hit": false,
      "t": 80294.27083333336,
      "d": 65.10416666667152,
      "v": 84
    },
    {
      "midi": 58,
      "hit": false,
      "t": 80395.83333333337,
      "d": 57.29166666667152,
      "v": 98
    },
    {
      "midi": 59,
      "hit": false,
      "t": 80500.00000000004,
      "d": 197.91666666667152,
      "v": 81
    },
    {
      "midi": 56,
      "hit": false,
      "t": 80502.60416666672,
      "d": 330.72916666665697,
      "v": 75
    },
    {
      "midi": 68,
      "hit": false,
      "t": 80726.56250000004,
      "d": 210.9375,
      "v": 89
    },
    {
      "midi": 49,
      "hit": false,
      "t": 80921.87500000004,
      "d": 210.9375,
      "v": 78
    },
    {
      "midi": 64,
      "hit": false,
      "t": 80924.47916666672,
      "d": 223.95833333332848,
      "v": 91
    },
    {
      "midi": 61,
      "hit": false,
      "t": 81140.62500000004,
      "d": 216.14583333334303,
      "v": 83
    },
    {
      "midi": 51,
      "hit": false,
      "t": 81354.16666666672,
      "d": 166.66666666667152,
      "v": 76
    },
    {
      "midi": 58,
      "hit": false,
      "t": 81364.58333333339,
      "d": 208.33333333334303,
      "v": 88
    },
    {
      "midi": 67,
      "hit": false,
      "t": 81570.31250000006,
      "d": 205.72916666667152,
      "v": 83
    },
    {
      "midi": 68,
      "hit": false,
      "t": 81786.4583333334,
      "d": 257.8125,
      "v": 85
    },
    {
      "midi": 44,
      "hit": false,
      "t": 81794.2708333334,
      "d": 367.1875,
      "v": 64
    },
    {
      "midi": 63,
      "hit": false,
      "t": 82010.41666666673,
      "d": 192.70833333334303,
      "v": 66
    },
    {
      "midi": 59,
      "hit": false,
      "t": 82213.54166666674,
      "d": 169.27083333332848,
      "v": 64
    },
    {
      "midi": 44,
      "hit": false,
      "t": 82416.66666666674,
      "d": 192.70833333332848,
      "v": 57
    },
    {
      "midi": 56,
      "hit": false,
      "t": 82424.47916666674,
      "d": 67.70833333332848,
      "v": 62
    },
    {
      "midi": 56,
      "hit": false,
      "t": 82632.81250000007,
      "d": 234.375,
      "v": 64
    },
    {
      "midi": 54,
      "hit": false,
      "t": 82875.00000000007,
      "d": 473.9583333333285,
      "v": 56
    },
    {
      "midi": 64,
      "hit": false,
      "t": 83148.43750000007,
      "d": 554.6875,
      "v": 56
    },
    {
      "midi": 52,
      "hit": false,
      "t": 83390.62500000007,
      "d": 476.5625,
      "v": 40
    },
    {
      "midi": 66,
      "hit": false,
      "t": 83619.79166666674,
      "d": 526.0416666666715,
      "v": 50
    },
    {
      "midi": 51,
      "hit": false,
      "t": 83846.35416666674,
      "d": 414.0625,
      "v": 34
    },
    {
      "midi": 68,
      "hit": false,
      "t": 84065.10416666674,
      "d": 500,
      "v": 49
    },
    {
      "midi": 50,
      "hit": false,
      "t": 84283.85416666674,
      "d": 489.5833333333285,
      "v": 42
    },
    {
      "midi": 69,
      "hit": false,
      "t": 84515.62500000007,
      "d": 479.1666666666715,
      "v": 57
    },
    {
      "midi": 49,
      "hit": false,
      "t": 84752.60416666674,
      "d": 466.1458333333285,
      "v": 43
    },
    {
      "midi": 71,
      "hit": false,
      "t": 84968.75000000007,
      "d": 479.1666666666715,
      "v": 55
    },
    {
      "midi": 47,
      "hit": false,
      "t": 85166.66666666674,
      "d": 432.2916666666715,
      "v": 57
    },
    {
      "midi": 73,
      "hit": false,
      "t": 85385.41666666674,
      "d": 510.4166666666715,
      "v": 70
    },
    {
      "midi": 45,
      "hit": false,
      "t": 85606.77083333342,
      "d": 424.47916666665697,
      "v": 65
    },
    {
      "midi": 75,
      "hit": false,
      "t": 85822.91666666674,
      "d": 473.9583333333285,
      "v": 68
    },
    {
      "midi": 44,
      "hit": false,
      "t": 86026.04166666674,
      "d": 458.33333333334303,
      "v": 56
    },
    {
      "midi": 76,
      "hit": false,
      "t": 86265.62500000007,
      "d": 250.00000000001455,
      "v": 78
    },
    {
      "midi": 75,
      "hit": false,
      "t": 86471.35416666674,
      "d": 257.8125,
      "v": 75
    },
    {
      "midi": 42,
      "hit": false,
      "t": 86473.95833333342,
      "d": 416.66666666665697,
      "v": 62
    },
    {
      "midi": 73,
      "hit": false,
      "t": 86692.70833333342,
      "d": 242.18749999998545,
      "v": 82
    },
    {
      "midi": 44,
      "hit": false,
      "t": 86885.41666666674,
      "d": 122.39583333332848,
      "v": 63
    },
    {
      "midi": 71,
      "hit": false,
      "t": 86919.2708333334,
      "d": 226.5625,
      "v": 66
    },
    {
      "midi": 45,
      "hit": false,
      "t": 87015.62500000007,
      "d": 101.5625,
      "v": 71
    },
    {
      "midi": 44,
      "hit": false,
      "t": 87140.62500000007,
      "d": 101.5625,
      "v": 69
    },
    {
      "midi": 76,
      "hit": false,
      "t": 87140.62500000007,
      "d": 645.8333333333285,
      "v": 91
    },
    {
      "midi": 47,
      "hit": false,
      "t": 87380.2083333334,
      "d": 46.875,
      "v": 66
    },
    {
      "midi": 45,
      "hit": false,
      "t": 87466.1458333334,
      "d": 54.6875,
      "v": 84
    },
    {
      "midi": 47,
      "hit": false,
      "t": 87578.12500000007,
      "d": 46.875,
      "v": 69
    },
    {
      "midi": 44,
      "hit": false,
      "t": 87804.68750000007,
      "d": 91.14583333332848,
      "v": 73
    },
    {
      "midi": 71,
      "hit": false,
      "t": 87804.68750000007,
      "d": 98.95833333332848,
      "v": 67
    },
    {
      "midi": 69,
      "hit": false,
      "t": 87895.8333333334,
      "d": 145.83333333334303,
      "v": 83
    },
    {
      "midi": 42,
      "hit": false,
      "t": 87908.85416666673,
      "d": 49.47916666667152,
      "v": 65
    },
    {
      "midi": 71,
      "hit": false,
      "t": 88000.00000000007,
      "d": 231.77083333334303,
      "v": 69
    },
    {
      "midi": 44,
      "hit": false,
      "t": 88002.60416666674,
      "d": 62.5,
      "v": 63
    },
    {
      "midi": 68,
      "hit": false,
      "t": 88231.77083333342,
      "d": 52.08333333332848,
      "v": 71
    },
    {
      "midi": 40,
      "hit": false,
      "t": 88239.58333333342,
      "d": 44.27083333332848,
      "v": 61
    },
    {
      "midi": 39,
      "hit": false,
      "t": 88317.70833333342,
      "d": 54.6875,
      "v": 69
    },
    {
      "midi": 66,
      "hit": false,
      "t": 88322.91666666674,
      "d": 88.54166666667152,
      "v": 67
    },
    {
      "midi": 68,
      "hit": false,
      "t": 88447.91666666674,
      "d": 221.35416666667152,
      "v": 73
    },
    {
      "midi": 40,
      "hit": false,
      "t": 88471.35416666674,
      "d": 393.2291666666715,
      "v": 58
    },
    {
      "midi": 76,
      "hit": false,
      "t": 88697.91666666674,
      "d": 468.75000000001455,
      "v": 59
    },
    {
      "midi": 42,
      "hit": false,
      "t": 88890.62500000009,
      "d": 455.7291666666715,
      "v": 52
    },
    {
      "midi": 75,
      "hit": false,
      "t": 89132.81250000009,
      "d": 455.7291666666715,
      "v": 47
    },
    {
      "midi": 44,
      "hit": false,
      "t": 89335.93750000009,
      "d": 411.45833333334303,
      "v": 43
    },
    {
      "midi": 74,
      "hit": false,
      "t": 89546.87500000009,
      "d": 468.75000000001455,
      "v": 61
    },
    {
      "midi": 45,
      "hit": false,
      "t": 89757.8125000001,
      "d": 429.6875,
      "v": 63
    },
    {
      "midi": 73,
      "hit": false,
      "t": 89968.7500000001,
      "d": 473.95833333334303,
      "v": 58
    },
    {
      "midi": 47,
      "hit": false,
      "t": 90197.91666666677,
      "d": 486.9791666666715,
      "v": 59
    },
    {
      "midi": 71,
      "hit": false,
      "t": 90427.08333333344,
      "d": 484.375,
      "v": 53
    },
    {
      "midi": 49,
      "hit": false,
      "t": 90630.20833333344,
      "d": 458.33333333334303,
      "v": 54
    },
    {
      "midi": 69,
      "hit": false,
      "t": 90856.77083333344,
      "d": 489.58333333334303,
      "v": 72
    },
    {
      "midi": 51,
      "hit": false,
      "t": 91046.87500000012,
      "d": 455.7291666666715,
      "v": 56
    },
    {
      "midi": 68,
      "hit": false,
      "t": 91281.25000000012,
      "d": 455.7291666666715,
      "v": 71
    },
    {
      "midi": 52,
      "hit": false,
      "t": 91497.39583333346,
      "d": 257.8125,
      "v": 74
    },
    {
      "midi": 66,
      "hit": false,
      "t": 91716.14583333346,
      "d": 445.3125,
      "v": 65
    },
    {
      "midi": 51,
      "hit": false,
      "t": 91723.95833333346,
      "d": 203.125,
      "v": 69
    },
    {
      "midi": 49,
      "hit": false,
      "t": 91929.68750000013,
      "d": 192.70833333332848,
      "v": 73
    },
    {
      "midi": 68,
      "hit": false,
      "t": 92132.81250000013,
      "d": 57.291666666656965,
      "v": 74
    },
    {
      "midi": 47,
      "hit": false,
      "t": 92145.83333333346,
      "d": 177.08333333332848,
      "v": 57
    },
    {
      "midi": 69,
      "hit": false,
      "t": 92226.56250000012,
      "d": 93.75,
      "v": 64
    },
    {
      "midi": 68,
      "hit": false,
      "t": 92348.95833333346,
      "d": 125,
      "v": 74
    },
    {
      "midi": 52,
      "hit": false,
      "t": 92372.39583333346,
      "d": 656.25,
      "v": 64
    },
    {
      "midi": 71,
      "hit": false,
      "t": 92627.60416666679,
      "d": 44.27083333332848,
      "v": 59
    },
    {
      "midi": 69,
      "hit": false,
      "t": 92721.35416666679,
      "d": 98.95833333332848,
      "v": 50
    },
    {
      "midi": 71,
      "hit": false,
      "t": 92822.91666666679,
      "d": 80.72916666667152,
      "v": 60
    },
    {
      "midi": 68,
      "hit": false,
      "t": 93015.62500000013,
      "d": 67.70833333332848,
      "v": 67
    },
    {
      "midi": 59,
      "hit": false,
      "t": 93039.06250000013,
      "d": 52.08333333332848,
      "v": 45
    },
    {
      "midi": 66,
      "hit": false,
      "t": 93119.79166666679,
      "d": 72.91666666665697,
      "v": 56
    },
    {
      "midi": 57,
      "hit": false,
      "t": 93148.43750000012,
      "d": 54.68749999998545,
      "v": 48
    },
    {
      "midi": 59,
      "hit": false,
      "t": 93197.91666666677,
      "d": 161.45833333332848,
      "v": 49
    },
    {
      "midi": 68,
      "hit": false,
      "t": 93203.1250000001,
      "d": 106.77083333332848,
      "v": 67
    },
    {
      "midi": 56,
      "hit": false,
      "t": 93434.89583333343,
      "d": 54.6875,
      "v": 50
    },
    {
      "midi": 64,
      "hit": false,
      "t": 93440.10416666676,
      "d": 49.47916666667152,
      "v": 62
    },
    {
      "midi": 54,
      "hit": false,
      "t": 93492.1875000001,
      "d": 122.39583333332848,
      "v": 65
    },
    {
      "midi": 63,
      "hit": false,
      "t": 93510.41666666677,
      "d": 67.70833333332848,
      "v": 51
    },
    {
      "midi": 64,
      "hit": false,
      "t": 93622.39583333343,
      "d": 489.5833333333285,
      "v": 48
    },
    {
      "midi": 56,
      "hit": false,
      "t": 93625.0000000001,
      "d": 223.95833333332848,
      "v": 41
    },
    {
      "midi": 61,
      "hit": false,
      "t": 93869.79166666676,
      "d": 453.125,
      "v": 43
    },
    {
      "midi": 66,
      "hit": false,
      "t": 94088.54166666676,
      "d": 471.3541666666715,
      "v": 61
    },
    {
      "midi": 57,
      "hit": false,
      "t": 94322.91666666676,
      "d": 380.20833333334303,
      "v": 59
    },
    {
      "midi": 69,
      "hit": false,
      "t": 94526.04166666676,
      "d": 401.0416666666715,
      "v": 74
    },
    {
      "midi": 54,
      "hit": false,
      "t": 94723.95833333343,
      "d": 330.7291666666715,
      "v": 60
    },
    {
      "midi": 71,
      "hit": false,
      "t": 94968.7500000001,
      "d": 476.5625,
      "v": 70
    },
    {
      "midi": 57,
      "hit": false,
      "t": 95192.70833333343,
      "d": 49.47916666667152,
      "v": 49
    },
    {
      "midi": 56,
      "hit": false,
      "t": 95257.8125000001,
      "d": 57.29166666667152,
      "v": 75
    },
    {
      "midi": 57,
      "hit": false,
      "t": 95369.79166666677,
      "d": 135.41666666665697,
      "v": 43
    },
    {
      "midi": 75,
      "hit": false,
      "t": 95385.41666666677,
      "d": 416.66666666665697,
      "v": 73
    },
    {
      "midi": 54,
      "hit": false,
      "t": 95591.14583333343,
      "d": 54.6875,
      "v": 62
    },
    {
      "midi": 51,
      "hit": false,
      "t": 95799.47916666676,
      "d": 52.083333333343035,
      "v": 62
    },
    {
      "midi": 78,
      "hit": false,
      "t": 95809.89583333343,
      "d": 205.72916666667152,
      "v": 62
    },
    {
      "midi": 47,
      "hit": false,
      "t": 96033.85416666677,
      "d": 427.0833333333285,
      "v": 58
    },
    {
      "midi": 63,
      "hit": false,
      "t": 96260.41666666677,
      "d": 458.3333333333285,
      "v": 75
    },
    {
      "midi": 59,
      "hit": false,
      "t": 96510.41666666677,
      "d": 414.0625,
      "v": 66
    },
    {
      "midi": 64,
      "hit": false,
      "t": 96713.54166666677,
      "d": 398.4375,
      "v": 81
    },
    {
      "midi": 56,
      "hit": false,
      "t": 96934.89583333344,
      "d": 388.0208333333285,
      "v": 66
    },
    {
      "midi": 68,
      "hit": false,
      "t": 97140.6250000001,
      "d": 427.08333333334303,
      "v": 80
    },
    {
      "midi": 52,
      "hit": false,
      "t": 97364.58333333344,
      "d": 320.3125,
      "v": 73
    },
    {
      "midi": 69,
      "hit": false,
      "t": 97572.91666666677,
      "d": 460.93750000001455,
      "v": 83
    },
    {
      "midi": 56,
      "hit": false,
      "t": 97789.06250000012,
      "d": 62.5,
      "v": 68
    },
    {
      "midi": 54,
      "hit": false,
      "t": 97890.62500000012,
      "d": 57.29166666667152,
      "v": 59
    },
    {
      "midi": 56,
      "hit": false,
      "t": 97947.91666666679,
      "d": 109.375,
      "v": 75
    },
    {
      "midi": 73,
      "hit": false,
      "t": 97981.77083333346,
      "d": 434.8958333333285,
      "v": 66
    },
    {
      "midi": 52,
      "hit": false,
      "t": 98190.10416666679,
      "d": 41.66666666667152,
      "v": 82
    },
    {
      "midi": 49,
      "hit": false,
      "t": 98401.04166666679,
      "d": 52.08333333332848,
      "v": 58
    },
    {
      "midi": 76,
      "hit": false,
      "t": 98406.25000000012,
      "d": 187.5,
      "v": 72
    },
    {
      "midi": 45,
      "hit": false,
      "t": 98640.62500000012,
      "d": 375,
      "v": 63
    },
    {
      "midi": 61,
      "hit": false,
      "t": 98833.33333333344,
      "d": 479.1666666666715,
      "v": 69
    },
    {
      "midi": 57,
      "hit": false,
      "t": 99083.33333333344,
      "d": 414.0625,
      "v": 57
    },
    {
      "midi": 66,
      "hit": false,
      "t": 99286.45833333344,
      "d": 479.16666666665697,
      "v": 58
    },
    {
      "midi": 54,
      "hit": false,
      "t": 99510.41666666677,
      "d": 403.6458333333285,
      "v": 45
    },
    {
      "midi": 69,
      "hit": false,
      "t": 99742.1875000001,
      "d": 260.4166666666715,
      "v": 63
    },
    {
      "midi": 51,
      "hit": false,
      "t": 99929.6875000001,
      "d": 442.7083333333285,
      "v": 52
    },
    {
      "midi": 71,
      "hit": false,
      "t": 100158.85416666677,
      "d": 489.5833333333285,
      "v": 67
    },
    {
      "midi": 61,
      "hit": false,
      "t": 100364.58333333343,
      "d": 437.5,
      "v": 73
    },
    {
      "midi": 73,
      "hit": false,
      "t": 100593.7500000001,
      "d": 492.1875,
      "v": 80
    },
    {
      "midi": 59,
      "hit": false,
      "t": 100815.10416666676,
      "d": 372.39583333334303,
      "v": 62
    },
    {
      "midi": 75,
      "hit": false,
      "t": 101020.83333333343,
      "d": 473.95833333334303,
      "v": 74
    },
    {
      "midi": 57,
      "hit": false,
      "t": 101218.7500000001,
      "d": 455.7291666666715,
      "v": 65
    },
    {
      "midi": 76,
      "hit": false,
      "t": 101468.7500000001,
      "d": 489.5833333333285,
      "v": 76
    },
    {
      "midi": 56,
      "hit": false,
      "t": 101682.29166666677,
      "d": 440.10416666665697,
      "v": 48
    },
    {
      "midi": 73,
      "hit": false,
      "t": 101890.6250000001,
      "d": 500,
      "v": 72
    },
    {
      "midi": 54,
      "hit": false,
      "t": 102106.77083333343,
      "d": 416.6666666666715,
      "v": 52
    },
    {
      "midi": 69,
      "hit": false,
      "t": 102333.33333333343,
      "d": 445.31249999998545,
      "v": 87
    },
    {
      "midi": 52,
      "hit": false,
      "t": 102528.64583333343,
      "d": 244.79166666665697,
      "v": 61
    },
    {
      "midi": 78,
      "hit": false,
      "t": 102760.41666666676,
      "d": 1554.6875,
      "v": 89
    },
    {
      "midi": 51,
      "hit": false,
      "t": 102781.25000000009,
      "d": 138.02083333332848,
      "v": 70
    },
    {
      "midi": 57,
      "hit": false,
      "t": 103005.20833333342,
      "d": 46.875,
      "v": 72
    },
    {
      "midi": 56,
      "hit": false,
      "t": 103083.33333333342,
      "d": 62.5,
      "v": 70
    },
    {
      "midi": 57,
      "hit": false,
      "t": 103171.87500000009,
      "d": 143.22916666667152,
      "v": 63
    },
    {
      "midi": 51,
      "hit": false,
      "t": 103424.47916666676,
      "d": 54.6875,
      "v": 65
    },
    {
      "midi": 49,
      "hit": false,
      "t": 103502.60416666676,
      "d": 145.83333333332848,
      "v": 73
    },
    {
      "midi": 51,
      "hit": false,
      "t": 103635.41666666676,
      "d": 59.89583333332848,
      "v": 72
    },
    {
      "midi": 56,
      "hit": false,
      "t": 103828.12500000009,
      "d": 57.29166666667152,
      "v": 62
    },
    {
      "midi": 54,
      "hit": false,
      "t": 103924.47916666676,
      "d": 85.9375,
      "v": 52
    },
    {
      "midi": 56,
      "hit": false,
      "t": 104049.47916666676,
      "d": 393.2291666666715,
      "v": 64
    },
    {
      "midi": 76,
      "hit": false,
      "t": 104265.62500000009,
      "d": 257.8125,
      "v": 68
    },
    {
      "midi": 75,
      "hit": false,
      "t": 104486.97916666676,
      "d": 247.39583333332848,
      "v": 66
    },
    {
      "midi": 57,
      "hit": false,
      "t": 104494.79166666676,
      "d": 416.6666666666715,
      "v": 49
    },
    {
      "midi": 73,
      "hit": false,
      "t": 104708.33333333342,
      "d": 200.52083333334303,
      "v": 67
    },
    {
      "midi": 71,
      "hit": false,
      "t": 104921.8750000001,
      "d": 205.72916666667152,
      "v": 55
    },
    {
      "midi": 59,
      "hit": false,
      "t": 104937.5000000001,
      "d": 346.35416666668607,
      "v": 40
    },
    {
      "midi": 69,
      "hit": false,
      "t": 105130.20833333344,
      "d": 127.60416666667152,
      "v": 62
    },
    {
      "midi": 68,
      "hit": false,
      "t": 105335.93750000012,
      "d": 174.47916666665697,
      "v": 58
    },
    {
      "midi": 52,
      "hit": false,
      "t": 105348.95833333344,
      "d": 348.9583333333285,
      "v": 45
    },
    {
      "midi": 64,
      "hit": false,
      "t": 105598.95833333344,
      "d": 46.875,
      "v": 62
    },
    {
      "midi": 63,
      "hit": false,
      "t": 105653.64583333344,
      "d": 75.52083333332848,
      "v": 71
    },
    {
      "midi": 64,
      "hit": false,
      "t": 105770.83333333344,
      "d": 52.08333333332848,
      "v": 74
    },
    {
      "midi": 68,
      "hit": false,
      "t": 105973.95833333344,
      "d": 62.5,
      "v": 69
    },
    {
      "midi": 64,
      "hit": false,
      "t": 105979.16666666677,
      "d": 132.8125,
      "v": 53
    },
    {
      "midi": 66,
      "hit": false,
      "t": 106057.29166666677,
      "d": 140.625,
      "v": 73
    },
    {
      "midi": 68,
      "hit": false,
      "t": 106140.6250000001,
      "d": 109.375,
      "v": 79
    },
    {
      "midi": 59,
      "hit": false,
      "t": 106166.66666666677,
      "d": 161.45833333332848,
      "v": 60
    },
    {
      "midi": 56,
      "hit": false,
      "t": 106372.39583333343,
      "d": 161.45833333332848,
      "v": 61
    },
    {
      "midi": 71,
      "hit": false,
      "t": 106377.60416666676,
      "d": 54.6875,
      "v": 67
    },
    {
      "midi": 69,
      "hit": false,
      "t": 106447.91666666676,
      "d": 148.4375,
      "v": 87
    },
    {
      "midi": 71,
      "hit": false,
      "t": 106565.10416666676,
      "d": 205.72916666667152,
      "v": 78
    },
    {
      "midi": 52,
      "hit": false,
      "t": 106567.70833333343,
      "d": 208.33333333332848,
      "v": 78
    },
    {
      "midi": 68,
      "hit": false,
      "t": 106781.25000000009,
      "d": 122.39583333334303,
      "v": 84
    },
    {
      "midi": 59,
      "hit": false,
      "t": 106791.66666666676,
      "d": 138.02083333334303,
      "v": 73
    },
    {
      "midi": 66,
      "hit": false,
      "t": 106869.79166666676,
      "d": 151.04166666668607,
      "v": 90
    },
    {
      "midi": 56,
      "hit": false,
      "t": 106960.9375000001,
      "d": 83.33333333334303,
      "v": 87
    },
    {
      "midi": 68,
      "hit": false,
      "t": 106963.54166666677,
      "d": 130.20833333334303,
      "v": 100
    },
    {
      "midi": 71,
      "hit": false,
      "t": 107184.89583333344,
      "d": 85.93749999998545,
      "v": 86
    },
    {
      "midi": 52,
      "hit": false,
      "t": 107190.10416666677,
      "d": 75.52083333332848,
      "v": 87
    },
    {
      "midi": 69,
      "hit": false,
      "t": 107265.6250000001,
      "d": 106.77083333332848,
      "v": 98
    },
    {
      "midi": 71,
      "hit": false,
      "t": 107356.77083333343,
      "d": 80.72916666667152,
      "v": 92
    },
    {
      "midi": 47,
      "hit": false,
      "t": 107367.1875000001,
      "d": 36.45833333332848,
      "v": 73
    },
    {
      "midi": 76,
      "hit": false,
      "t": 107567.70833333343,
      "d": 85.9375,
      "v": 99
    },
    {
      "midi": 44,
      "hit": false,
      "t": 107572.91666666676,
      "d": 39.0625,
      "v": 69
    },
    {
      "midi": 75,
      "hit": false,
      "t": 107635.41666666676,
      "d": 125.00000000001455,
      "v": 97
    },
    {
      "midi": 76,
      "hit": false,
      "t": 107750.0000000001,
      "d": 195.31250000001455,
      "v": 103
    },
    {
      "midi": 40,
      "hit": false,
      "t": 107770.83333333344,
      "d": 677.0833333333576,
      "v": 83
    },
    {
      "midi": 71,
      "hit": false,
      "t": 107947.91666666679,
      "d": 54.6875,
      "v": 87
    },
    {
      "midi": 68,
      "hit": false,
      "t": 108130.20833333346,
      "d": 59.89583333332848,
      "v": 96
    },
    {
      "midi": 64,
      "hit": false,
      "t": 108333.33333333346,
      "d": 80.72916666667152,
      "v": 106
    },
    {
      "midi": 52,
      "hit": false,
      "t": 108567.70833333347,
      "d": 408.8541666666715,
      "v": 99
    },
    {
      "midi": 59,
      "hit": false,
      "t": 109419.27083333349,
      "d": 125,
      "v": 41
    },
    {
      "midi": 59,
      "hit": false,
      "t": 109640.62500000016,
      "d": 408.85416666665697,
      "v": 49
    },
    {
      "midi": 61,
      "hit": false,
      "t": 109835.93750000016,
      "d": 466.1458333333285,
      "v": 58
    },
    {
      "midi": 58,
      "hit": false,
      "t": 110044.27083333349,
      "d": 401.0416666666715,
      "v": 57
    },
    {
      "midi": 63,
      "hit": false,
      "t": 110244.79166666682,
      "d": 442.70833333334303,
      "v": 65
    },
    {
      "midi": 57,
      "hit": false,
      "t": 110466.14583333349,
      "d": 416.6666666666715,
      "v": 58
    },
    {
      "midi": 64,
      "hit": false,
      "t": 110687.50000000016,
      "d": 445.3125,
      "v": 62
    },
    {
      "midi": 56,
      "hit": false,
      "t": 110903.64583333349,
      "d": 411.45833333334303,
      "v": 48
    },
    {
      "midi": 66,
      "hit": false,
      "t": 111091.14583333349,
      "d": 476.56250000001455,
      "v": 60
    },
    {
      "midi": 54,
      "hit": false,
      "t": 111312.50000000016,
      "d": 414.06250000001455,
      "v": 36
    },
    {
      "midi": 68,
      "hit": false,
      "t": 111510.41666666683,
      "d": 481.77083333334303,
      "v": 56
    },
    {
      "midi": 52,
      "hit": false,
      "t": 111736.97916666685,
      "d": 408.85416666665697,
      "v": 41
    },
    {
      "midi": 70,
      "hit": false,
      "t": 111947.91666666685,
      "d": 473.9583333333285,
      "v": 71
    },
    {
      "midi": 51,
      "hit": false,
      "t": 112156.25000000017,
      "d": 447.91666666665697,
      "v": 51
    },
    {
      "midi": 71,
      "hit": false,
      "t": 112395.8333333335,
      "d": 244.79166666667152,
      "v": 70
    },
    {
      "midi": 49,
      "hit": false,
      "t": 112598.9583333335,
      "d": 427.08333333334303,
      "v": 60
    },
    {
      "midi": 70,
      "hit": false,
      "t": 112606.7708333335,
      "d": 239.58333333332848,
      "v": 87
    },
    {
      "midi": 68,
      "hit": false,
      "t": 112817.7083333335,
      "d": 218.75000000001455,
      "v": 85
    },
    {
      "midi": 51,
      "hit": false,
      "t": 113020.8333333335,
      "d": 111.97916666668607,
      "v": 67
    },
    {
      "midi": 66,
      "hit": false,
      "t": 113023.43750000017,
      "d": 174.47916666667152,
      "v": 79
    },
    {
      "midi": 52,
      "hit": false,
      "t": 113145.83333333352,
      "d": 57.291666666656965,
      "v": 74
    },
    {
      "midi": 71,
      "hit": false,
      "t": 113226.56250000017,
      "d": 322.9166666666715,
      "v": 72
    },
    {
      "midi": 51,
      "hit": false,
      "t": 113270.8333333335,
      "d": 57.29166666667152,
      "v": 62
    },
    {
      "midi": 54,
      "hit": false,
      "t": 113447.91666666685,
      "d": 54.6875,
      "v": 61
    },
    {
      "midi": 52,
      "hit": false,
      "t": 113533.85416666685,
      "d": 44.27083333332848,
      "v": 77
    },
    {
      "midi": 54,
      "hit": false,
      "t": 113619.79166666685,
      "d": 91.14583333332848,
      "v": 65
    },
    {
      "midi": 59,
      "hit": false,
      "t": 113635.41666666685,
      "d": 640.625,
      "v": 64
    },
    {
      "midi": 51,
      "hit": false,
      "t": 113859.37500000017,
      "d": 52.08333333332848,
      "v": 76
    },
    {
      "midi": 49,
      "hit": false,
      "t": 113945.31250000017,
      "d": 41.66666666667152,
      "v": 77
    },
    {
      "midi": 51,
      "hit": false,
      "t": 114026.04166666685,
      "d": 67.70833333332848,
      "v": 70
    },
    {
      "midi": 47,
      "hit": false,
      "t": 114250.00000000017,
      "d": 39.0625,
      "v": 61
    },
    {
      "midi": 46,
      "hit": false,
      "t": 114333.3333333335,
      "d": 52.08333333332848,
      "v": 78
    },
    {
      "midi": 47,
      "hit": false,
      "t": 114479.16666666683,
      "d": 403.6458333333285,
      "v": 52
    },
    {
      "midi": 83,
      "hit": false,
      "t": 114736.97916666683,
      "d": 429.68749999998545,
      "v": 52
    },
    {
      "midi": 49,
      "hit": false,
      "t": 114927.08333333349,
      "d": 421.87499999998545,
      "v": 53
    },
    {
      "midi": 82,
      "hit": false,
      "t": 115145.83333333349,
      "d": 499.99999999998545,
      "v": 74
    },
    {
      "midi": 51,
      "hit": false,
      "t": 115343.75000000015,
      "d": 440.10416666665697,
      "v": 49
    },
    {
      "midi": 81,
      "hit": false,
      "t": 115591.14583333347,
      "d": 486.97916666665697,
      "v": 79
    },
    {
      "midi": 52,
      "hit": false,
      "t": 115799.4791666668,
      "d": 421.87499999998545,
      "v": 67
    },
    {
      "midi": 80,
      "hit": false,
      "t": 116010.4166666668,
      "d": 528.6458333333139,
      "v": 73
    },
    {
      "midi": 54,
      "hit": false,
      "t": 116216.14583333346,
      "d": 453.12499999998545,
      "v": 75
    },
    {
      "midi": 78,
      "hit": false,
      "t": 116440.10416666679,
      "d": 429.68749999998545,
      "v": 78
    },
    {
      "midi": 56,
      "hit": false,
      "t": 116640.62500000012,
      "d": 437.5,
      "v": 72
    },
    {
      "midi": 76,
      "hit": false,
      "t": 116854.16666666677,
      "d": 473.95833333334303,
      "v": 91
    },
    {
      "midi": 58,
      "hit": false,
      "t": 117067.70833333344,
      "d": 440.1041666666715,
      "v": 88
    },
    {
      "midi": 75,
      "hit": false,
      "t": 117291.66666666679,
      "d": 440.10416666665697,
      "v": 86
    },
    {
      "midi": 59,
      "hit": false,
      "t": 117494.79166666679,
      "d": 242.18749999998545,
      "v": 81
    },
    {
      "midi": 73,
      "hit": false,
      "t": 117713.54166666679,
      "d": 450.52083333331393,
      "v": 81
    },
    {
      "midi": 58,
      "hit": false,
      "t": 117726.56250000012,
      "d": 187.49999999998545,
      "v": 88
    },
    {
      "midi": 56,
      "hit": false,
      "t": 117921.8750000001,
      "d": 197.91666666667152,
      "v": 76
    },
    {
      "midi": 54,
      "hit": false,
      "t": 118135.41666666677,
      "d": 151.04166666665697,
      "v": 65
    },
    {
      "midi": 75,
      "hit": false,
      "t": 118148.4375000001,
      "d": 49.47916666667152,
      "v": 76
    },
    {
      "midi": 76,
      "hit": false,
      "t": 118226.5625000001,
      "d": 138.02083333332848,
      "v": 73
    },
    {
      "midi": 59,
      "hit": false,
      "t": 118328.1250000001,
      "d": 78.125,
      "v": 67
    },
    {
      "midi": 75,
      "hit": false,
      "t": 118333.33333333343,
      "d": 130.20833333334303,
      "v": 88
    },
    {
      "midi": 78,
      "hit": false,
      "t": 118567.70833333344,
      "d": 88.54166666667152,
      "v": 80
    },
    {
      "midi": 76,
      "hit": false,
      "t": 118645.83333333344,
      "d": 119.79166666667152,
      "v": 92
    },
    {
      "midi": 78,
      "hit": false,
      "t": 118734.37500000012,
      "d": 132.8125,
      "v": 90
    },
    {
      "midi": 47,
      "hit": false,
      "t": 118747.39583333344,
      "d": 322.91666666668607,
      "v": 58
    },
    {
      "midi": 75,
      "hit": false,
      "t": 118963.54166666679,
      "d": 70.3125,
      "v": 81
    },
    {
      "midi": 73,
      "hit": false,
      "t": 119059.89583333346,
      "d": 148.4375,
      "v": 74
    },
    {
      "midi": 75,
      "hit": false,
      "t": 119145.83333333346,
      "d": 125,
      "v": 81
    },
    {
      "midi": 71,
      "hit": false,
      "t": 119385.41666666679,
      "d": 52.08333333332848,
      "v": 67
    },
    {
      "midi": 70,
      "hit": false,
      "t": 119458.33333333344,
      "d": 65.10416666667152,
      "v": 83
    },
    {
      "midi": 56,
      "hit": false,
      "t": 119562.50000000012,
      "d": 361.97916666665697,
      "v": 56
    },
    {
      "midi": 71,
      "hit": false,
      "t": 119567.70833333344,
      "d": 125,
      "v": 64
    },
    {
      "midi": 75,
      "hit": false,
      "t": 119828.12500000012,
      "d": 52.08333333332848,
      "v": 64
    },
    {
      "midi": 73,
      "hit": false,
      "t": 119885.41666666677,
      "d": 80.72916666667152,
      "v": 80
    },
    {
      "midi": 75,
      "hit": false,
      "t": 119997.39583333344,
      "d": 114.58333333334303,
      "v": 75
    },
    {
      "midi": 59,
      "hit": false,
      "t": 120000.00000000012,
      "d": 265.625,
      "v": 48
    },
    {
      "midi": 80,
      "hit": false,
      "t": 120213.54166666679,
      "d": 52.08333333332848,
      "v": 65
    },
    {
      "midi": 79,
      "hit": false,
      "t": 120322.91666666679,
      "d": 62.5,
      "v": 58
    },
    {
      "midi": 63,
      "hit": false,
      "t": 120408.85416666679,
      "d": 195.3125,
      "v": 50
    },
    {
      "midi": 80,
      "hit": false,
      "t": 120411.45833333346,
      "d": 203.125,
      "v": 81
    },
    {
      "midi": 73,
      "hit": false,
      "t": 120635.41666666679,
      "d": 59.89583333332848,
      "v": 62
    },
    {
      "midi": 71,
      "hit": false,
      "t": 120742.18750000012,
      "d": 67.70833333332848,
      "v": 60
    },
    {
      "midi": 73,
      "hit": false,
      "t": 120843.75000000012,
      "d": 153.64583333332848,
      "v": 61
    },
    {
      "midi": 55,
      "hit": false,
      "t": 120856.77083333344,
      "d": 252.60416666667152,
      "v": 38
    },
    {
      "midi": 76,
      "hit": false,
      "t": 121091.14583333344,
      "d": 49.47916666667152,
      "v": 58
    },
    {
      "midi": 75,
      "hit": false,
      "t": 121151.04166666679,
      "d": 80.72916666667152,
      "v": 64
    },
    {
      "midi": 58,
      "hit": false,
      "t": 121229.16666666679,
      "d": 182.29166666665697,
      "v": 59
    },
    {
      "midi": 76,
      "hit": false,
      "t": 121236.97916666679,
      "d": 130.20833333332848,
      "v": 62
    },
    {
      "midi": 82,
      "hit": false,
      "t": 121481.77083333344,
      "d": 52.08333333332848,
      "v": 89
    },
    {
      "midi": 80,
      "hit": false,
      "t": 121570.3125000001,
      "d": 83.33333333334303,
      "v": 72
    },
    {
      "midi": 63,
      "hit": false,
      "t": 121651.04166666677,
      "d": 229.16666666665697,
      "v": 48
    },
    {
      "midi": 82,
      "hit": false,
      "t": 121658.85416666677,
      "d": 122.39583333332848,
      "v": 92
    },
    {
      "midi": 75,
      "hit": false,
      "t": 121890.6250000001,
      "d": 54.6875,
      "v": 70
    },
    {
      "midi": 73,
      "hit": false,
      "t": 121966.14583333343,
      "d": 138.02083333334303,
      "v": 72
    },
    {
      "midi": 56,
      "hit": false,
      "t": 122046.8750000001,
      "d": 239.58333333332848,
      "v": 48
    },
    {
      "midi": 75,
      "hit": false,
      "t": 122078.1250000001,
      "d": 132.8125,
      "v": 78
    },
    {
      "midi": 80,
      "hit": false,
      "t": 122281.2500000001,
      "d": 91.14583333332848,
      "v": 84
    },
    {
      "midi": 79,
      "hit": false,
      "t": 122372.39583333343,
      "d": 151.04166666667152,
      "v": 87
    },
    {
      "midi": 80,
      "hit": false,
      "t": 122463.54166666676,
      "d": 130.20833333334303,
      "v": 91
    },
    {
      "midi": 59,
      "hit": false,
      "t": 122466.14583333343,
      "d": 281.25,
      "v": 49
    },
    {
      "midi": 83,
      "hit": false,
      "t": 122695.3125000001,
      "d": 91.14583333332848,
      "v": 80
    },
    {
      "midi": 82,
      "hit": false,
      "t": 122778.64583333343,
      "d": 161.45833333332848,
      "v": 88
    },
    {
      "midi": 83,
      "hit": false,
      "t": 122875.0000000001,
      "d": 122.39583333332848,
      "v": 78
    },
    {
      "midi": 63,
      "hit": false,
      "t": 122895.83333333343,
      "d": 236.97916666665697,
      "v": 44
    },
    {
      "midi": 75,
      "hit": false,
      "t": 123104.16666666676,
      "d": 54.6875,
      "v": 64
    },
    {
      "midi": 74,
      "hit": false,
      "t": 123197.91666666676,
      "d": 57.29166666667152,
      "v": 69
    },
    {
      "midi": 51,
      "hit": false,
      "t": 123260.41666666676,
      "d": 338.54166666665697,
      "v": 38
    },
    {
      "midi": 75,
      "hit": false,
      "t": 123299.47916666676,
      "d": 114.58333333332848,
      "v": 67
    },
    {
      "midi": 82,
      "hit": false,
      "t": 123500.00000000009,
      "d": 67.70833333332848,
      "v": 78
    },
    {
      "midi": 80,
      "hit": false,
      "t": 123588.54166666674,
      "d": 114.58333333334303,
      "v": 69
    },
    {
      "midi": 82,
      "hit": false,
      "t": 123692.70833333342,
      "d": 145.83333333332848,
      "v": 83
    },
    {
      "midi": 63,
      "hit": false,
      "t": 123708.33333333342,
      "d": 346.35416666665697,
      "v": 49
    },
    {
      "midi": 79,
      "hit": false,
      "t": 123929.68750000007,
      "d": 46.875,
      "v": 63
    },
    {
      "midi": 77,
      "hit": false,
      "t": 124023.43750000007,
      "d": 62.5,
      "v": 64
    },
    {
      "midi": 61,
      "hit": false,
      "t": 124130.2083333334,
      "d": 351.56250000001455,
      "v": 43
    },
    {
      "midi": 79,
      "hit": false,
      "t": 124135.41666666673,
      "d": 72.91666666667152,
      "v": 60
    },
    {
      "midi": 75,
      "hit": false,
      "t": 124338.54166666674,
      "d": 62.5,
      "v": 56
    },
    {
      "midi": 74,
      "hit": false,
      "t": 124447.91666666674,
      "d": 62.5,
      "v": 52
    },
    {
      "midi": 75,
      "hit": false,
      "t": 124546.87500000007,
      "d": 177.08333333332848,
      "v": 50
    },
    {
      "midi": 60,
      "hit": false,
      "t": 124552.0833333334,
      "d": 434.8958333333285,
      "v": 43
    },
    {
      "midi": 81,
      "hit": false,
      "t": 124807.29166666673,
      "d": 497.3958333333285,
      "v": 71
    },
    {
      "midi": 61,
      "hit": false,
      "t": 125007.81250000006,
      "d": 453.125,
      "v": 35
    },
    {
      "midi": 80,
      "hit": false,
      "t": 125234.37500000006,
      "d": 476.5625,
      "v": 59
    },
    {
      "midi": 63,
      "hit": false,
      "t": 125458.33333333339,
      "d": 315.1041666666715,
      "v": 44
    },
    {
      "midi": 78,
      "hit": false,
      "t": 125656.25000000006,
      "d": 421.875,
      "v": 57
    },
    {
      "midi": 56,
      "hit": false,
      "t": 125885.41666666673,
      "d": 375,
      "v": 47
    },
    {
      "midi": 76,
      "hit": false,
      "t": 126114.58333333339,
      "d": 62.5,
      "v": 57
    },
    {
      "midi": 75,
      "hit": false,
      "t": 126203.12500000006,
      "d": 72.91666666667152,
      "v": 60
    },
    {
      "midi": 76,
      "hit": false,
      "t": 126309.8958333334,
      "d": 210.9375,
      "v": 74
    },
    {
      "midi": 61,
      "hit": false,
      "t": 126322.91666666673,
      "d": 356.77083333334303,
      "v": 50
    },
    {
      "midi": 73,
      "hit": false,
      "t": 126528.6458333334,
      "d": 62.5,
      "v": 65
    },
    {
      "midi": 72,
      "hit": false,
      "t": 126625.00000000007,
      "d": 88.54166666667152,
      "v": 67
    },
    {
      "midi": 73,
      "hit": false,
      "t": 126716.14583333342,
      "d": 216.14583333334303,
      "v": 75
    },
    {
      "midi": 59,
      "hit": false,
      "t": 126726.56250000009,
      "d": 356.77083333334303,
      "v": 35
    },
    {
      "midi": 76,
      "hit": false,
      "t": 126976.56250000009,
      "d": 49.47916666667152,
      "v": 69
    },
    {
      "midi": 75,
      "hit": false,
      "t": 127044.27083333343,
      "d": 70.3125,
      "v": 70
    },
    {
      "midi": 58,
      "hit": false,
      "t": 127148.4375000001,
      "d": 390.625,
      "v": 50
    },
    {
      "midi": 76,
      "hit": false,
      "t": 127166.66666666677,
      "d": 242.1875,
      "v": 70
    },
    {
      "midi": 80,
      "hit": false,
      "t": 127395.83333333344,
      "d": 507.81249999998545,
      "v": 66
    },
    {
      "midi": 59,
      "hit": false,
      "t": 127601.5625000001,
      "d": 450.5208333333285,
      "v": 36
    },
    {
      "midi": 78,
      "hit": false,
      "t": 127828.1250000001,
      "d": 455.72916666665697,
      "v": 60
    },
    {
      "midi": 61,
      "hit": false,
      "t": 128057.29166666676,
      "d": 442.7083333333285,
      "v": 40
    },
    {
      "midi": 76,
      "hit": false,
      "t": 128278.64583333343,
      "d": 432.29166666665697,
      "v": 63
    },
    {
      "midi": 54,
      "hit": false,
      "t": 128510.41666666676,
      "d": 281.25,
      "v": 47
    },
    {
      "midi": 75,
      "hit": false,
      "t": 128716.14583333342,
      "d": 72.91666666667152,
      "v": 63
    },
    {
      "midi": 73,
      "hit": false,
      "t": 128804.68750000009,
      "d": 148.4375,
      "v": 71
    },
    {
      "midi": 75,
      "hit": false,
      "t": 128895.83333333342,
      "d": 205.72916666667152,
      "v": 72
    },
    {
      "midi": 59,
      "hit": false,
      "t": 128927.08333333342,
      "d": 395.83333333334303,
      "v": 48
    },
    {
      "midi": 71,
      "hit": false,
      "t": 129153.64583333342,
      "d": 57.29166666667152,
      "v": 60
    },
    {
      "midi": 70,
      "hit": false,
      "t": 129213.54166666676,
      "d": 91.14583333332848,
      "v": 78
    },
    {
      "midi": 71,
      "hit": false,
      "t": 129322.91666666676,
      "d": 177.08333333332848,
      "v": 67
    },
    {
      "midi": 63,
      "hit": false,
      "t": 129335.93750000009,
      "d": 398.4375,
      "v": 50
    },
    {
      "midi": 73,
      "hit": false,
      "t": 129554.68750000009,
      "d": 57.29166666667152,
      "v": 68
    },
    {
      "midi": 71,
      "hit": false,
      "t": 129619.79166666676,
      "d": 127.60416666667152,
      "v": 51
    },
    {
      "midi": 73,
      "hit": false,
      "t": 129744.79166666676,
      "d": 223.95833333332848,
      "v": 61
    },
    {
      "midi": 55,
      "hit": false,
      "t": 129776.04166666676,
      "d": 427.0833333333285,
      "v": 45
    },
    {
      "midi": 76,
      "hit": false,
      "t": 130002.60416666676,
      "d": 479.16666666665697,
      "v": 59
    },
    {
      "midi": 56,
      "hit": false,
      "t": 130203.12500000009,
      "d": 471.35416666665697,
      "v": 46
    },
    {
      "midi": 75,
      "hit": false,
      "t": 130460.93750000009,
      "d": 434.8958333333285,
      "v": 42
    },
    {
      "midi": 58,
      "hit": false,
      "t": 130669.27083333342,
      "d": 416.6666666666715,
      "v": 51
    },
    {
      "midi": 73,
      "hit": false,
      "t": 130877.60416666674,
      "d": 398.4375,
      "v": 59
    },
    {
      "midi": 51,
      "hit": false,
      "t": 131109.3750000001,
      "d": 393.22916666662786,
      "v": 61
    },
    {
      "midi": 71,
      "hit": false,
      "t": 131315.10416666674,
      "d": 104.16666666665697,
      "v": 53
    },
    {
      "midi": 70,
      "hit": false,
      "t": 131419.2708333334,
      "d": 80.72916666665697,
      "v": 63
    },
    {
      "midi": 71,
      "hit": false,
      "t": 131536.45833333337,
      "d": 205.72916666665697,
      "v": 65
    },
    {
      "midi": 56,
      "hit": false,
      "t": 131539.06250000003,
      "d": 395.83333333331393,
      "v": 59
    },
    {
      "midi": 68,
      "hit": false,
      "t": 131757.81250000003,
      "d": 62.5,
      "v": 47
    },
    {
      "midi": 67,
      "hit": false,
      "t": 131838.5416666667,
      "d": 85.9375,
      "v": 68
    },
    {
      "midi": 68,
      "hit": false,
      "t": 131947.9166666667,
      "d": 213.54166666668607,
      "v": 60
    },
    {
      "midi": 59,
      "hit": false,
      "t": 131976.56250000003,
      "d": 419.27083333331393,
      "v": 56
    },
    {
      "midi": 69,
      "hit": false,
      "t": 132208.33333333337,
      "d": 52.08333333331393,
      "v": 47
    },
    {
      "midi": 68,
      "hit": false,
      "t": 132257.81250000003,
      "d": 119.79166666665697,
      "v": 68
    },
    {
      "midi": 69,
      "hit": false,
      "t": 132395.83333333334,
      "d": 229.16666666668607,
      "v": 67
    },
    {
      "midi": 49,
      "hit": false,
      "t": 132416.6666666667,
      "d": 513.020833333343,
      "v": 48
    },
    {
      "midi": 73,
      "hit": false,
      "t": 132651.0416666667,
      "d": 106.77083333334303,
      "v": 73
    },
    {
      "midi": 71,
      "hit": false,
      "t": 132757.81250000003,
      "d": 111.97916666665697,
      "v": 66
    },
    {
      "midi": 73,
      "hit": false,
      "t": 132846.3541666667,
      "d": 179.6875,
      "v": 77
    },
    {
      "midi": 69,
      "hit": false,
      "t": 133078.12500000003,
      "d": 62.5,
      "v": 77
    },
    {
      "midi": 68,
      "hit": false,
      "t": 133153.64583333337,
      "d": 106.77083333331393,
      "v": 77
    },
    {
      "midi": 61,
      "hit": false,
      "t": 133257.81250000003,
      "d": 835.9375,
      "v": 92
    },
    {
      "midi": 69,
      "hit": false,
      "t": 133265.62500000003,
      "d": 140.625,
      "v": 82
    },
    {
      "midi": 76,
      "hit": false,
      "t": 133497.39583333337,
      "d": 62.5,
      "v": 75
    },
    {
      "midi": 75,
      "hit": false,
      "t": 133572.91666666672,
      "d": 148.4375,
      "v": 85
    },
    {
      "midi": 76,
      "hit": false,
      "t": 133697.91666666672,
      "d": 158.85416666665697,
      "v": 101
    },
    {
      "midi": 67,
      "hit": false,
      "t": 133916.66666666672,
      "d": 57.291666666656965,
      "v": 72
    },
    {
      "midi": 65,
      "hit": false,
      "t": 134000.00000000003,
      "d": 132.8125,
      "v": 88
    },
    {
      "midi": 67,
      "hit": false,
      "t": 134096.3541666667,
      "d": 114.58333333334303,
      "v": 84
    },
    {
      "midi": 58,
      "hit": false,
      "t": 134119.7916666667,
      "d": 364.58333333334303,
      "v": 73
    },
    {
      "midi": 70,
      "hit": false,
      "t": 134315.1041666667,
      "d": 109.375,
      "v": 89
    },
    {
      "midi": 68,
      "hit": false,
      "t": 134408.8541666667,
      "d": 59.895833333343035,
      "v": 84
    },
    {
      "midi": 70,
      "hit": false,
      "t": 134520.83333333337,
      "d": 65.10416666665697,
      "v": 91
    },
    {
      "midi": 55,
      "hit": false,
      "t": 134539.06250000003,
      "d": 359.3749999999709,
      "v": 60
    },
    {
      "midi": 59,
      "hit": false,
      "t": 134744.7916666667,
      "d": 54.6875,
      "v": 81
    },
    {
      "midi": 58,
      "hit": false,
      "t": 134833.33333333334,
      "d": 119.79166666665697,
      "v": 101
    },
    {
      "midi": 56,
      "hit": false,
      "t": 134942.70833333334,
      "d": 437.4999999999709,
      "v": 73
    },
    {
      "midi": 59,
      "hit": false,
      "t": 134945.3125,
      "d": 184.89583333334303,
      "v": 81
    },
    {
      "midi": 68,
      "hit": false,
      "t": 135164.0625,
      "d": 213.54166666665697,
      "v": 92
    },
    {
      "midi": 64,
      "hit": false,
      "t": 135390.62499999997,
      "d": 234.375,
      "v": 92
    },
    {
      "midi": 49,
      "hit": false,
      "t": 135395.8333333333,
      "d": 411.45833333331393,
      "v": 67
    },
    {
      "midi": 61,
      "hit": false,
      "t": 135609.37499999997,
      "d": 205.72916666665697,
      "v": 83
    },
    {
      "midi": 51,
      "hit": false,
      "t": 135815.10416666663,
      "d": 432.29166666665697,
      "v": 61
    },
    {
      "midi": 58,
      "hit": false,
      "t": 135817.70833333328,
      "d": 218.75,
      "v": 91
    },
    {
      "midi": 67,
      "hit": false,
      "t": 136033.85416666663,
      "d": 197.91666666665697,
      "v": 92
    },
    {
      "midi": 68,
      "hit": false,
      "t": 136244.79166666663,
      "d": 260.41666666665697,
      "v": 81
    },
    {
      "midi": 44,
      "hit": false,
      "t": 136260.41666666663,
      "d": 447.91666666665697,
      "v": 50
    },
    {
      "midi": 63,
      "hit": false,
      "t": 136473.95833333328,
      "d": 145.83333333334303,
      "v": 66
    },
    {
      "midi": 59,
      "hit": false,
      "t": 136697.91666666663,
      "d": 135.41666666665697,
      "v": 57
    },
    {
      "midi": 44,
      "hit": false,
      "t": 136895.83333333328,
      "d": 205.72916666665697,
      "v": 51
    },
    {
      "midi": 56,
      "hit": false,
      "t": 136901.04166666663,
      "d": 119.79166666665697,
      "v": 59
    },
    {
      "midi": 56,
      "hit": false,
      "t": 137106.77083333328,
      "d": 236.97916666665697,
      "v": 64
    },
    {
      "midi": 54,
      "hit": false,
      "t": 137354.1666666666,
      "d": 427.08333333331393,
      "v": 46
    },
    {
      "midi": 64,
      "hit": false,
      "t": 137598.95833333326,
      "d": 484.375,
      "v": 64
    },
    {
      "midi": 52,
      "hit": false,
      "t": 137835.9374999999,
      "d": 455.72916666668607,
      "v": 37
    },
    {
      "midi": 66,
      "hit": false,
      "t": 138062.4999999999,
      "d": 500.0000000000291,
      "v": 47
    },
    {
      "midi": 51,
      "hit": false,
      "t": 138291.6666666666,
      "d": 406.25,
      "v": 35
    },
    {
      "midi": 68,
      "hit": false,
      "t": 138492.18749999994,
      "d": 473.95833333334303,
      "v": 51
    },
    {
      "midi": 50,
      "hit": false,
      "t": 138721.3541666666,
      "d": 445.3125000000291,
      "v": 36
    },
    {
      "midi": 69,
      "hit": false,
      "t": 138953.12499999994,
      "d": 468.75,
      "v": 53
    },
    {
      "midi": 49,
      "hit": false,
      "t": 139190.10416666663,
      "d": 419.27083333331393,
      "v": 28
    },
    {
      "midi": 71,
      "hit": false,
      "t": 139403.64583333328,
      "d": 463.54166666665697,
      "v": 54
    },
    {
      "midi": 47,
      "hit": false,
      "t": 139617.18749999994,
      "d": 442.70833333334303,
      "v": 39
    },
    {
      "midi": 73,
      "hit": false,
      "t": 139828.12499999994,
      "d": 505.20833333334303,
      "v": 55
    },
    {
      "midi": 45,
      "hit": false,
      "t": 140067.70833333328,
      "d": 414.0625,
      "v": 54
    },
    {
      "midi": 75,
      "hit": false,
      "t": 140296.87499999994,
      "d": 442.70833333334303,
      "v": 59
    },
    {
      "midi": 44,
      "hit": false,
      "t": 140471.35416666663,
      "d": 455.72916666665697,
      "v": 46
    },
    {
      "midi": 76,
      "hit": false,
      "t": 140729.16666666663,
      "d": 236.97916666668607,
      "v": 73
    },
    {
      "midi": 42,
      "hit": false,
      "t": 140940.10416666663,
      "d": 450.52083333334303,
      "v": 51
    },
    {
      "midi": 75,
      "hit": false,
      "t": 140953.12499999997,
      "d": 234.375,
      "v": 70
    },
    {
      "midi": 73,
      "hit": false,
      "t": 141156.24999999997,
      "d": 205.72916666665697,
      "v": 80
    },
    {
      "midi": 44,
      "hit": false,
      "t": 141369.79166666663,
      "d": 78.125,
      "v": 66
    },
    {
      "midi": 71,
      "hit": false,
      "t": 141385.41666666663,
      "d": 187.5,
      "v": 65
    },
    {
      "midi": 45,
      "hit": false,
      "t": 141492.18749999997,
      "d": 62.5,
      "v": 68
    },
    {
      "midi": 44,
      "hit": false,
      "t": 141565.10416666663,
      "d": 119.79166666665697,
      "v": 66
    },
    {
      "midi": 76,
      "hit": false,
      "t": 141572.91666666663,
      "d": 671.875,
      "v": 79
    },
    {
      "midi": 47,
      "hit": false,
      "t": 141783.85416666663,
      "d": 57.291666666656965,
      "v": 57
    },
    {
      "midi": 45,
      "hit": false,
      "t": 141872.39583333328,
      "d": 46.875,
      "v": 79
    },
    {
      "midi": 47,
      "hit": false,
      "t": 141971.35416666663,
      "d": 164.0625,
      "v": 64
    },
    {
      "midi": 44,
      "hit": false,
      "t": 142208.33333333328,
      "d": 62.5,
      "v": 69
    },
    {
      "midi": 71,
      "hit": false,
      "t": 142229.16666666663,
      "d": 46.875,
      "v": 41
    },
    {
      "midi": 42,
      "hit": false,
      "t": 142315.10416666663,
      "d": 46.875,
      "v": 59
    },
    {
      "midi": 69,
      "hit": false,
      "t": 142322.91666666663,
      "d": 67.70833333334303,
      "v": 46
    },
    {
      "midi": 44,
      "hit": false,
      "t": 142369.79166666663,
      "d": 158.85416666668607,
      "v": 60
    },
    {
      "midi": 71,
      "hit": false,
      "t": 142390.62499999997,
      "d": 203.125,
      "v": 45
    },
    {
      "midi": 68,
      "hit": false,
      "t": 142617.18749999997,
      "d": 54.6875,
      "v": 57
    },
    {
      "midi": 40,
      "hit": false,
      "t": 142635.41666666663,
      "d": 52.083333333343035,
      "v": 46
    },
    {
      "midi": 39,
      "hit": false,
      "t": 142718.74999999997,
      "d": 104.16666666668607,
      "v": 53
    },
    {
      "midi": 66,
      "hit": false,
      "t": 142723.9583333333,
      "d": 67.70833333334303,
      "v": 52
    },
    {
      "midi": 68,
      "hit": false,
      "t": 142856.7708333333,
      "d": 252.60416666665697,
      "v": 61
    },
    {
      "midi": 40,
      "hit": false,
      "t": 142872.3958333333,
      "d": 132.8125,
      "v": 25
    },
    {
      "midi": 40,
      "hit": false,
      "t": 143098.9583333333,
      "d": 203.1249999999709,
      "v": 16
    },
    {
      "midi": 76,
      "hit": false,
      "t": 143119.79166666663,
      "d": 476.5625,
      "v": 68
    },
    {
      "midi": 42,
      "hit": false,
      "t": 143322.91666666663,
      "d": 429.6875,
      "v": 36
    },
    {
      "midi": 75,
      "hit": false,
      "t": 143570.31249999997,
      "d": 479.16666666665697,
      "v": 50
    },
    {
      "midi": 44,
      "hit": false,
      "t": 143755.20833333328,
      "d": 432.29166666668607,
      "v": 37
    },
    {
      "midi": 74,
      "hit": false,
      "t": 143994.79166666663,
      "d": 473.95833333334303,
      "v": 55
    },
    {
      "midi": 45,
      "hit": false,
      "t": 144203.12499999997,
      "d": 447.91666666665697,
      "v": 62
    },
    {
      "midi": 73,
      "hit": false,
      "t": 144429.68749999997,
      "d": 466.14583333331393,
      "v": 62
    },
    {
      "midi": 47,
      "hit": false,
      "t": 144640.62499999997,
      "d": 513.0208333333139,
      "v": 63
    },
    {
      "midi": 71,
      "hit": false,
      "t": 144885.41666666663,
      "d": 489.58333333331393,
      "v": 62
    },
    {
      "midi": 49,
      "hit": false,
      "t": 145078.12499999994,
      "d": 575.520833333343,
      "v": 62
    },
    {
      "midi": 69,
      "hit": false,
      "t": 145312.49999999994,
      "d": 471.35416666665697,
      "v": 76
    },
    {
      "midi": 51,
      "hit": false,
      "t": 145515.62499999994,
      "d": 450.52083333331393,
      "v": 77
    },
    {
      "midi": 68,
      "hit": false,
      "t": 145749.99999999994,
      "d": 476.5625,
      "v": 76
    },
    {
      "midi": 52,
      "hit": false,
      "t": 145958.33333333326,
      "d": 234.3750000000291,
      "v": 72
    },
    {
      "midi": 66,
      "hit": false,
      "t": 146166.6666666666,
      "d": 497.39583333334303,
      "v": 72
    },
    {
      "midi": 51,
      "hit": false,
      "t": 146171.87499999994,
      "d": 226.5625,
      "v": 72
    },
    {
      "midi": 49,
      "hit": false,
      "t": 146377.6041666666,
      "d": 218.75,
      "v": 79
    },
    {
      "midi": 68,
      "hit": false,
      "t": 146604.1666666666,
      "d": 62.5,
      "v": 75
    },
    {
      "midi": 47,
      "hit": false,
      "t": 146611.9791666666,
      "d": 158.85416666665697,
      "v": 60
    },
    {
      "midi": 69,
      "hit": false,
      "t": 146708.33333333326,
      "d": 72.91666666665697,
      "v": 63
    },
    {
      "midi": 68,
      "hit": false,
      "t": 146799.47916666657,
      "d": 182.29166666665697,
      "v": 77
    },
    {
      "midi": 52,
      "hit": false,
      "t": 146817.70833333323,
      "d": 437.5,
      "v": 69
    },
    {
      "midi": 71,
      "hit": false,
      "t": 147072.91666666657,
      "d": 57.291666666656965,
      "v": 60
    },
    {
      "midi": 69,
      "hit": false,
      "t": 147158.85416666657,
      "d": 111.97916666665697,
      "v": 71
    },
    {
      "midi": 71,
      "hit": false,
      "t": 147265.62499999988,
      "d": 96.35416666668607,
      "v": 58
    },
    {
      "midi": 68,
      "hit": false,
      "t": 147458.33333333323,
      "d": 62.500000000029104,
      "v": 56
    },
    {
      "midi": 59,
      "hit": false,
      "t": 147463.54166666657,
      "d": 52.083333333343035,
      "v": 43
    },
    {
      "midi": 66,
      "hit": false,
      "t": 147554.6874999999,
      "d": 78.125,
      "v": 42
    },
    {
      "midi": 57,
      "hit": false,
      "t": 147572.91666666657,
      "d": 62.5,
      "v": 39
    },
    {
      "midi": 68,
      "hit": false,
      "t": 147640.6249999999,
      "d": 111.97916666668607,
      "v": 51
    },
    {
      "midi": 59,
      "hit": false,
      "t": 147656.2499999999,
      "d": 83.33333333334303,
      "v": 32
    },
    {
      "midi": 56,
      "hit": false,
      "t": 147864.58333333326,
      "d": 65.10416666665697,
      "v": 46
    },
    {
      "midi": 64,
      "hit": false,
      "t": 147895.83333333326,
      "d": 52.08333333331393,
      "v": 39
    },
    {
      "midi": 54,
      "hit": false,
      "t": 147945.3124999999,
      "d": 96.35416666665697,
      "v": 50
    },
    {
      "midi": 63,
      "hit": false,
      "t": 147953.1249999999,
      "d": 72.91666666665697,
      "v": 47
    },
    {
      "midi": 56,
      "hit": false,
      "t": 148039.0624999999,
      "d": 252.60416666665697,
      "v": 29
    },
    {
      "midi": 64,
      "hit": false,
      "t": 148062.4999999999,
      "d": 471.35416666665697,
      "v": 45
    },
    {
      "midi": 61,
      "hit": false,
      "t": 148299.47916666657,
      "d": 453.125,
      "v": 47
    },
    {
      "midi": 66,
      "hit": false,
      "t": 148494.79166666657,
      "d": 507.8124999999709,
      "v": 53
    },
    {
      "midi": 57,
      "hit": false,
      "t": 148755.20833333323,
      "d": 393.22916666665697,
      "v": 48
    },
    {
      "midi": 69,
      "hit": false,
      "t": 148953.12499999988,
      "d": 455.72916666665697,
      "v": 67
    },
    {
      "midi": 54,
      "hit": false,
      "t": 149161.45833333323,
      "d": 367.1874999999709,
      "v": 60
    },
    {
      "midi": 71,
      "hit": false,
      "t": 149406.24999999988,
      "d": 484.375,
      "v": 68
    },
    {
      "midi": 57,
      "hit": false,
      "t": 149619.79166666654,
      "d": 54.6875,
      "v": 54
    },
    {
      "midi": 56,
      "hit": false,
      "t": 149703.12499999988,
      "d": 52.083333333343035,
      "v": 67
    },
    {
      "midi": 57,
      "hit": false,
      "t": 149789.06249999988,
      "d": 109.375,
      "v": 59
    },
    {
      "midi": 75,
      "hit": false,
      "t": 149822.91666666654,
      "d": 442.70833333334303,
      "v": 72
    },
    {
      "midi": 54,
      "hit": false,
      "t": 150039.06249999988,
      "d": 52.083333333343035,
      "v": 59
    },
    {
      "midi": 51,
      "hit": false,
      "t": 150242.18749999988,
      "d": 41.666666666656965,
      "v": 78
    },
    {
      "midi": 78,
      "hit": false,
      "t": 150242.18749999988,
      "d": 239.58333333331393,
      "v": 67
    },
    {
      "midi": 47,
      "hit": false,
      "t": 150471.35416666654,
      "d": 369.79166666665697,
      "v": 72
    },
    {
      "midi": 63,
      "hit": false,
      "t": 150708.3333333332,
      "d": 421.875,
      "v": 68
    },
    {
      "midi": 59,
      "hit": false,
      "t": 150942.7083333332,
      "d": 403.64583333334303,
      "v": 53
    },
    {
      "midi": 64,
      "hit": false,
      "t": 151145.8333333332,
      "d": 437.5000000000291,
      "v": 68
    },
    {
      "midi": 56,
      "hit": false,
      "t": 151359.37499999988,
      "d": 416.66666666668607,
      "v": 55
    },
    {
      "midi": 68,
      "hit": false,
      "t": 151570.31249999988,
      "d": 453.1250000000291,
      "v": 73
    },
    {
      "midi": 52,
      "hit": false,
      "t": 151804.6874999999,
      "d": 291.66666666665697,
      "v": 75
    },
    {
      "midi": 69,
      "hit": false,
      "t": 152010.41666666657,
      "d": 429.6875,
      "v": 84
    },
    {
      "midi": 56,
      "hit": false,
      "t": 152213.54166666657,
      "d": 75.52083333334303,
      "v": 74
    },
    {
      "midi": 54,
      "hit": false,
      "t": 152307.29166666657,
      "d": 57.291666666656965,
      "v": 70
    },
    {
      "midi": 73,
      "hit": false,
      "t": 152395.83333333323,
      "d": 458.33333333334303,
      "v": 75
    },
    {
      "midi": 56,
      "hit": false,
      "t": 152403.64583333323,
      "d": 70.3125,
      "v": 70
    },
    {
      "midi": 52,
      "hit": false,
      "t": 152617.18749999988,
      "d": 36.458333333343035,
      "v": 81
    },
    {
      "midi": 49,
      "hit": false,
      "t": 152833.33333333323,
      "d": 46.875,
      "v": 65
    },
    {
      "midi": 76,
      "hit": false,
      "t": 152848.95833333323,
      "d": 166.66666666665697,
      "v": 74
    },
    {
      "midi": 45,
      "hit": false,
      "t": 153062.49999999988,
      "d": 375,
      "v": 73
    },
    {
      "midi": 61,
      "hit": false,
      "t": 153260.41666666654,
      "d": 494.79166666665697,
      "v": 76
    },
    {
      "midi": 57,
      "hit": false,
      "t": 153494.79166666654,
      "d": 479.16666666665697,
      "v": 78
    },
    {
      "midi": 66,
      "hit": false,
      "t": 153708.3333333332,
      "d": 500,
      "v": 79
    },
    {
      "midi": 54,
      "hit": false,
      "t": 153927.0833333332,
      "d": 421.875,
      "v": 67
    },
    {
      "midi": 69,
      "hit": false,
      "t": 154140.62499999985,
      "d": 429.6875,
      "v": 82
    },
    {
      "midi": 51,
      "hit": false,
      "t": 154338.54166666654,
      "d": 450.52083333331393,
      "v": 81
    },
    {
      "midi": 71,
      "hit": false,
      "t": 154562.49999999985,
      "d": 528.645833333343,
      "v": 77
    },
    {
      "midi": 61,
      "hit": false,
      "t": 154783.8541666665,
      "d": 453.1250000000291,
      "v": 76
    },
    {
      "midi": 73,
      "hit": false,
      "t": 154984.37499999985,
      "d": 593.7500000000291,
      "v": 84
    },
    {
      "midi": 59,
      "hit": false,
      "t": 155221.35416666654,
      "d": 424.47916666668607,
      "v": 68
    },
    {
      "midi": 75,
      "hit": false,
      "t": 155429.68749999988,
      "d": 476.5625,
      "v": 74
    },
    {
      "midi": 57,
      "hit": false,
      "t": 155640.62499999988,
      "d": 489.58333333334303,
      "v": 61
    },
    {
      "midi": 76,
      "hit": false,
      "t": 155864.58333333323,
      "d": 479.16666666668607,
      "v": 74
    },
    {
      "midi": 56,
      "hit": false,
      "t": 156078.12499999988,
      "d": 437.5000000000291,
      "v": 57
    },
    {
      "midi": 73,
      "hit": false,
      "t": 156276.04166666657,
      "d": 489.58333333334303,
      "v": 67
    },
    {
      "midi": 54,
      "hit": false,
      "t": 156494.79166666657,
      "d": 476.5625000000291,
      "v": 63
    },
    {
      "midi": 69,
      "hit": false,
      "t": 156721.35416666657,
      "d": 486.9791666667152,
      "v": 89
    },
    {
      "midi": 52,
      "hit": false,
      "t": 156942.70833333326,
      "d": 231.77083333334303,
      "v": 69
    },
    {
      "midi": 78,
      "hit": false,
      "t": 157169.27083333326,
      "d": 1528.6458333333721,
      "v": 94
    },
    {
      "midi": 51,
      "hit": false,
      "t": 157187.49999999994,
      "d": 166.66666666668607,
      "v": 67
    },
    {
      "midi": 57,
      "hit": false,
      "t": 157390.62499999997,
      "d": 52.083333333343035,
      "v": 82
    },
    {
      "midi": 56,
      "hit": false,
      "t": 157476.56249999997,
      "d": 57.291666666656965,
      "v": 69
    },
    {
      "midi": 57,
      "hit": false,
      "t": 157565.10416666663,
      "d": 143.22916666665697,
      "v": 79
    },
    {
      "midi": 51,
      "hit": false,
      "t": 157799.47916666663,
      "d": 70.3125,
      "v": 84
    },
    {
      "midi": 49,
      "hit": false,
      "t": 157898.43749999997,
      "d": 132.8125,
      "v": 86
    },
    {
      "midi": 51,
      "hit": false,
      "t": 158002.60416666663,
      "d": 80.72916666668607,
      "v": 81
    },
    {
      "midi": 56,
      "hit": false,
      "t": 158210.93749999997,
      "d": 54.6875,
      "v": 69
    },
    {
      "midi": 54,
      "hit": false,
      "t": 158291.66666666663,
      "d": 91.14583333334303,
      "v": 68
    },
    {
      "midi": 56,
      "hit": false,
      "t": 158414.06249999997,
      "d": 432.29166666665697,
      "v": 64
    },
    {
      "midi": 76,
      "hit": false,
      "t": 158624.99999999997,
      "d": 239.58333333331393,
      "v": 69
    },
    {
      "midi": 75,
      "hit": false,
      "t": 158843.74999999997,
      "d": 257.8124999999709,
      "v": 62
    },
    {
      "midi": 57,
      "hit": false,
      "t": 158861.97916666663,
      "d": 408.85416666665697,
      "v": 56
    },
    {
      "midi": 73,
      "hit": false,
      "t": 159067.70833333328,
      "d": 218.75,
      "v": 71
    },
    {
      "midi": 71,
      "hit": false,
      "t": 159281.24999999994,
      "d": 216.14583333334303,
      "v": 69
    },
    {
      "midi": 59,
      "hit": false,
      "t": 159294.27083333328,
      "d": 364.58333333334303,
      "v": 39
    },
    {
      "midi": 69,
      "hit": false,
      "t": 159492.18749999994,
      "d": 179.6875000000291,
      "v": 58
    },
    {
      "midi": 68,
      "hit": false,
      "t": 159703.12499999997,
      "d": 67.70833333334303,
      "v": 66
    },
    {
      "midi": 52,
      "hit": false,
      "t": 159716.1458333333,
      "d": 286.45833333334303,
      "v": 56
    },
    {
      "midi": 64,
      "hit": false,
      "t": 159934.8958333333,
      "d": 52.083333333343035,
      "v": 74
    },
    {
      "midi": 63,
      "hit": false,
      "t": 160023.4375,
      "d": 54.6875,
      "v": 79
    },
    {
      "midi": 64,
      "hit": false,
      "t": 160122.39583333334,
      "d": 62.5,
      "v": 83
    },
    {
      "midi": 68,
      "hit": false,
      "t": 160333.33333333334,
      "d": 62.5,
      "v": 76
    },
    {
      "midi": 64,
      "hit": false,
      "t": 160346.3541666667,
      "d": 125,
      "v": 54
    },
    {
      "midi": 66,
      "hit": false,
      "t": 160416.6666666667,
      "d": 148.4375000000291,
      "v": 75
    },
    {
      "midi": 68,
      "hit": false,
      "t": 160515.62500000003,
      "d": 111.97916666668607,
      "v": 86
    },
    {
      "midi": 59,
      "hit": false,
      "t": 160520.83333333337,
      "d": 221.35416666665697,
      "v": 64
    },
    {
      "midi": 56,
      "hit": false,
      "t": 160736.97916666672,
      "d": 161.45833333331393,
      "v": 68
    },
    {
      "midi": 71,
      "hit": false,
      "t": 160739.58333333337,
      "d": 49.479166666656965,
      "v": 65
    },
    {
      "midi": 69,
      "hit": false,
      "t": 160815.1041666667,
      "d": 145.83333333334303,
      "v": 89
    },
    {
      "midi": 71,
      "hit": false,
      "t": 160924.4791666667,
      "d": 111.97916666668607,
      "v": 84
    },
    {
      "midi": 52,
      "hit": false,
      "t": 160932.2916666667,
      "d": 177.08333333334303,
      "v": 72
    },
    {
      "midi": 68,
      "hit": false,
      "t": 161145.83333333337,
      "d": 98.95833333334303,
      "v": 84
    },
    {
      "midi": 59,
      "hit": false,
      "t": 161158.85416666672,
      "d": 130.20833333334303,
      "v": 66
    },
    {
      "midi": 66,
      "hit": false,
      "t": 161226.56250000006,
      "d": 151.04166666665697,
      "v": 88
    },
    {
      "midi": 68,
      "hit": false,
      "t": 161320.31250000006,
      "d": 101.5625,
      "v": 97
    },
    {
      "midi": 56,
      "hit": false,
      "t": 161322.91666666672,
      "d": 125,
      "v": 79
    },
    {
      "midi": 71,
      "hit": false,
      "t": 161549.47916666672,
      "d": 70.3125,
      "v": 82
    },
    {
      "midi": 52,
      "hit": false,
      "t": 161552.08333333337,
      "d": 143.22916666668607,
      "v": 83
    },
    {
      "midi": 69,
      "hit": false,
      "t": 161619.79166666672,
      "d": 101.5625,
      "v": 98
    },
    {
      "midi": 71,
      "hit": false,
      "t": 161726.56250000006,
      "d": 83.33333333331393,
      "v": 92
    },
    {
      "midi": 47,
      "hit": false,
      "t": 161736.97916666672,
      "d": 210.9375,
      "v": 72
    },
    {
      "midi": 76,
      "hit": false,
      "t": 161958.33333333337,
      "d": 85.9375,
      "v": 100
    },
    {
      "midi": 44,
      "hit": false,
      "t": 161958.33333333337,
      "d": 187.5,
      "v": 61
    },
    {
      "midi": 75,
      "hit": false,
      "t": 162028.64583333337,
      "d": 135.41666666665697,
      "v": 97
    },
    {
      "midi": 76,
      "hit": false,
      "t": 162145.83333333337,
      "d": 161.45833333331393,
      "v": 98
    },
    {
      "midi": 40,
      "hit": false,
      "t": 162171.87500000003,
      "d": 2328.124999999971,
      "v": 79
    },
    {
      "midi": 71,
      "hit": false,
      "t": 162346.3541666667,
      "d": 93.75,
      "v": 82
    },
    {
      "midi": 68,
      "hit": false,
      "t": 162572.9166666667,
      "d": 52.083333333343035,
      "v": 95
    },
    {
      "midi": 64,
      "hit": false,
      "t": 162822.9166666667,
      "d": 80.72916666665697,
      "v": 100
    },
    {
      "midi": 52,
      "hit": false,
      "t": 163203.125,
      "d": 62.5,
      "v": 105
    },
    {
      "midi": 54,
      "hit": false,
      "t": 163270.83333333334,
      "d": 127.60416666665697,
      "v": 84
    },
    {
      "midi": 52,
      "hit": false,
      "t": 163343.75,
      "d": 83.33333333334303,
      "v": 95
    },
    {
      "midi": 51,
      "hit": false,
      "t": 163403.64583333334,
      "d": 62.5,
      "v": 93
    },
    {
      "midi": 52,
      "hit": false,
      "t": 163489.58333333334,
      "d": 1002.604166666657,
      "v": 94
    }
  ]
}