{
  "jsonPath": "Animes/Laputa MIDI Collection/girl-from-the-sky.json",
  "path": "Animes\\Laputa MIDI Collection\\Girl From The Sky.mid",
  "name": "Girl From The Sky",
  "difficulty": "Advanced",
  "bpm": 108.000108000108,
  "notes": [
    {
      "midi": 72,
      "hit": false,
      "t": 3320.5094999999997,
      "d": 333.3330000000001,
      "v": 105
    },
    {
      "midi": 75,
      "hit": false,
      "t": 3961.5344999999998,
      "d": 269.23049999999967,
      "v": 97
    },
    {
      "midi": 79,
      "hit": false,
      "t": 4570.508249999999,
      "d": 307.692,
      "v": 96
    },
    {
      "midi": 77,
      "hit": false,
      "t": 8634.606749999999,
      "d": 282.0509999999995,
      "v": 103
    },
    {
      "midi": 82,
      "hit": false,
      "t": 9320.503499999999,
      "d": 314.1022499999999,
      "v": 96
    },
    {
      "midi": 84,
      "hit": false,
      "t": 12339.731249999999,
      "d": 230.76900000000023,
      "v": 106
    },
    {
      "midi": 79,
      "hit": false,
      "t": 13865.370749999998,
      "d": 314.1022499999999,
      "v": 97
    },
    {
      "midi": 72,
      "hit": false,
      "t": 20192.2875,
      "d": 288.4612500000003,
      "v": 103
    },
    {
      "midi": 75,
      "hit": false,
      "t": 20782.030499999997,
      "d": 282.0509999999995,
      "v": 99
    },
    {
      "midi": 79,
      "hit": false,
      "t": 21429.465749999996,
      "d": 249.99974999999904,
      "v": 103
    },
    {
      "midi": 77,
      "hit": false,
      "t": 25134.590249999994,
      "d": 301.2817499999983,
      "v": 99
    },
    {
      "midi": 82,
      "hit": false,
      "t": 25749.974249999992,
      "d": 294.8715000000011,
      "v": 83
    },
    {
      "midi": 81,
      "hit": false,
      "t": 28685.868749999994,
      "d": 262.82025000000067,
      "v": 103
    },
    {
      "midi": 82,
      "hit": false,
      "t": 29282.021999999994,
      "d": 282.0509999999995,
      "v": 89
    },
    {
      "midi": 84,
      "hit": false,
      "t": 29903.816249999993,
      "d": 262.82025000000067,
      "v": 104
    },
    {
      "midi": 79,
      "hit": false,
      "t": 31365.353249999993,
      "d": 532.0507499999985,
      "v": 90
    },
    {
      "midi": 73,
      "hit": false,
      "t": 39999.96,
      "d": 7576.9154999999955,
      "v": 110
    },
    {
      "midi": 77,
      "hit": false,
      "t": 39999.96,
      "d": 7775.633249999999,
      "v": 110
    },
    {
      "midi": 77,
      "hit": false,
      "t": 40006.37024999999,
      "d": 230.76899999999296,
      "v": 106
    },
    {
      "midi": 79,
      "hit": false,
      "t": 40108.93424999999,
      "d": 185.89724999999453,
      "v": 121
    },
    {
      "midi": 80,
      "hit": false,
      "t": 40205.08799999999,
      "d": 166.66649999999936,
      "v": 118
    },
    {
      "midi": 89,
      "hit": false,
      "t": 40301.24174999999,
      "d": 269.2305000000051,
      "v": 107
    },
    {
      "midi": 84,
      "hit": false,
      "t": 42064.06049999999,
      "d": 288.4612500000003,
      "v": 105
    },
    {
      "midi": 84,
      "hit": false,
      "t": 42628.16249999999,
      "d": 288.4612500000003,
      "v": 105
    },
    {
      "midi": 75,
      "hit": false,
      "t": 49230.719999999994,
      "d": 185.8972500000018,
      "v": 115
    },
    {
      "midi": 72,
      "hit": false,
      "t": 49230.72000000001,
      "d": 7692.300000000003,
      "v": 95
    },
    {
      "midi": 75,
      "hit": false,
      "t": 49230.72000000001,
      "d": 7692.300000000003,
      "v": 83
    },
    {
      "midi": 77,
      "hit": false,
      "t": 49339.69424999999,
      "d": 307.69200000000274,
      "v": 109
    },
    {
      "midi": 79,
      "hit": false,
      "t": 49435.848,
      "d": 237.17925000000105,
      "v": 127
    },
    {
      "midi": 87,
      "hit": false,
      "t": 49532.001749999996,
      "d": 217.94850000000588,
      "v": 115
    },
    {
      "midi": 82,
      "hit": false,
      "t": 51749.94825,
      "d": 243.58950000000186,
      "v": 99
    },
    {
      "midi": 82,
      "hit": false,
      "t": 52608.92175,
      "d": 282.0509999999995,
      "v": 79
    },
    {
      "midi": 68,
      "hit": false,
      "t": 58461.479999999996,
      "d": 5871.788999999997,
      "v": 74
    },
    {
      "midi": 73,
      "hit": false,
      "t": 58461.479999999996,
      "d": 5897.43,
      "v": 74
    },
    {
      "midi": 73,
      "hit": false,
      "t": 58461.48,
      "d": 301.28174999999464,
      "v": 107
    },
    {
      "midi": 75,
      "hit": false,
      "t": 58461.48000000001,
      "d": 6147.429749999996,
      "v": 95
    },
    {
      "midi": 63,
      "hit": false,
      "t": 58461.48000000001,
      "d": 6147.429749999996,
      "v": 90
    },
    {
      "midi": 70,
      "hit": false,
      "t": 58461.48000000001,
      "d": 6153.8399999999965,
      "v": 90
    },
    {
      "midi": 58,
      "hit": false,
      "t": 58461.48000000001,
      "d": 6153.8399999999965,
      "v": 95
    },
    {
      "midi": 75,
      "hit": false,
      "t": 58570.45425,
      "d": 237.17924999999377,
      "v": 113
    },
    {
      "midi": 77,
      "hit": false,
      "t": 58666.608,
      "d": 4673.072249999997,
      "v": 111
    },
    {
      "midi": 85,
      "hit": false,
      "t": 58762.76175,
      "d": 4538.457000000002,
      "v": 97
    },
    {
      "midi": 87,
      "hit": false,
      "t": 61666.604999999996,
      "d": 1628.2035000000033,
      "v": 94
    },
    {
      "midi": 43,
      "hit": false,
      "t": 64423.0125,
      "d": 7051.274999999994,
      "v": 50
    },
    {
      "midi": 31,
      "hit": false,
      "t": 64423.0125,
      "d": 7051.274999999994,
      "v": 50
    },
    {
      "midi": 62,
      "hit": false,
      "t": 64423.0125,
      "d": 7051.274999999994,
      "v": 80
    },
    {
      "midi": 67,
      "hit": false,
      "t": 64423.0125,
      "d": 7051.274999999994,
      "v": 80
    },
    {
      "midi": 72,
      "hit": false,
      "t": 64423.0125,
      "d": 7051.274999999994,
      "v": 100
    },
    {
      "midi": 79,
      "hit": false,
      "t": 64615.32,
      "d": 7051.2750000000015,
      "v": 110
    },
    {
      "midi": 55,
      "hit": false,
      "t": 64615.32000000001,
      "d": 7076.915999999997,
      "v": 50
    },
    {
      "midi": 62,
      "hit": false,
      "t": 64615.32000000001,
      "d": 7083.326249999998,
      "v": 50
    },
    {
      "midi": 67,
      "hit": false,
      "t": 64615.32000000001,
      "d": 7288.454249999995,
      "v": 50
    },
    {
      "midi": 72,
      "hit": false,
      "t": 64615.32000000001,
      "d": 7301.274749999997,
      "v": 50
    },
    {
      "midi": 82,
      "hit": false,
      "t": 64724.29425,
      "d": 7051.2750000000015,
      "v": 95
    },
    {
      "midi": 84,
      "hit": false,
      "t": 64820.448,
      "d": 7051.2750000000015,
      "v": 127
    },
    {
      "midi": 62,
      "hit": false,
      "t": 73846.08,
      "d": 102.56399999999849,
      "v": 127
    },
    {
      "midi": 50,
      "hit": false,
      "t": 73846.08,
      "d": 1532.049749999991,
      "v": 125
    },
    {
      "midi": 43,
      "hit": false,
      "t": 73846.08,
      "d": 1532.049749999991,
      "v": 127
    },
    {
      "midi": 55,
      "hit": false,
      "t": 73846.08,
      "d": 1532.049749999991,
      "v": 127
    },
    {
      "midi": 70,
      "hit": false,
      "t": 73846.08,
      "d": 1647.4342499999912,
      "v": 113
    },
    {
      "midi": 69,
      "hit": false,
      "t": 75384.54,
      "d": 474.3585000000021,
      "v": 127
    },
    {
      "midi": 52,
      "hit": false,
      "t": 75384.54,
      "d": 1532.0497499999765,
      "v": 127
    },
    {
      "midi": 57,
      "hit": false,
      "t": 75384.54,
      "d": 1532.0497499999765,
      "v": 127
    },
    {
      "midi": 45,
      "hit": false,
      "t": 75384.54,
      "d": 1532.0497499999765,
      "v": 127
    },
    {
      "midi": 67,
      "hit": false,
      "t": 75769.155,
      "d": 448.7174999999843,
      "v": 127
    },
    {
      "midi": 65,
      "hit": false,
      "t": 76153.76999999999,
      "d": 474.35849999998754,
      "v": 118
    },
    {
      "midi": 64,
      "hit": false,
      "t": 76538.38499999998,
      "d": 435.8969999999972,
      "v": 127
    },
    {
      "midi": 65,
      "hit": false,
      "t": 76922.99999999997,
      "d": 1448.7165000000095,
      "v": 127
    },
    {
      "midi": 57,
      "hit": false,
      "t": 76922.99999999997,
      "d": 1532.0497500000056,
      "v": 127
    },
    {
      "midi": 62,
      "hit": false,
      "t": 76922.99999999997,
      "d": 1532.0497500000056,
      "v": 127
    },
    {
      "midi": 50,
      "hit": false,
      "t": 76922.99999999997,
      "d": 1532.0497500000056,
      "v": 127
    },
    {
      "midi": 67,
      "hit": false,
      "t": 78461.45999999998,
      "d": 429.48675000001094,
      "v": 127
    },
    {
      "midi": 51,
      "hit": false,
      "t": 78461.45999999998,
      "d": 1532.0497500000056,
      "v": 121
    },
    {
      "midi": 58,
      "hit": false,
      "t": 78461.45999999998,
      "d": 1532.0497500000056,
      "v": 109
    },
    {
      "midi": 65,
      "hit": false,
      "t": 78846.07499999998,
      "d": 403.8457500000077,
      "v": 127
    },
    {
      "midi": 63,
      "hit": false,
      "t": 79230.68999999999,
      "d": 448.71749999999884,
      "v": 127
    },
    {
      "midi": 62,
      "hit": false,
      "t": 79615.305,
      "d": 378.2047499999899,
      "v": 127
    },
    {
      "midi": 62,
      "hit": false,
      "t": 79999.91999999998,
      "d": 1499.9985000000015,
      "v": 127
    },
    {
      "midi": 55,
      "hit": false,
      "t": 79999.91999999998,
      "d": 3070.509750000012,
      "v": 127
    },
    {
      "midi": 52,
      "hit": false,
      "t": 79999.91999999998,
      "d": 3070.509750000012,
      "v": 127
    },
    {
      "midi": 60,
      "hit": false,
      "t": 81538.37999999999,
      "d": 1506.4087500000023,
      "v": 127
    },
    {
      "midi": 63,
      "hit": false,
      "t": 83076.84,
      "d": 1551.280500000008,
      "v": 121
    },
    {
      "midi": 54,
      "hit": false,
      "t": 83076.84,
      "d": 5749.994250000003,
      "v": 118
    },
    {
      "midi": 57,
      "hit": false,
      "t": 83076.84,
      "d": 5749.994250000003,
      "v": 127
    },
    {
      "midi": 62,
      "hit": false,
      "t": 84615.3,
      "d": 4217.944499999998,
      "v": 117
    }
  ]
}