{
  "jsonPath": "Animes/Laputa MIDI Collection/laputa.json",
  "path": "Animes\\Laputa MIDI Collection\\Laputa.mid",
  "name": "Laputa",
  "difficulty": "Advanced",
  "bpm": 60,
  "notes": [
    {
      "midi": 73,
      "hit": false,
      "t": 18.75,
      "d": 79.16666666666667,
      "v": 68
    },
    {
      "midi": 72,
      "hit": false,
      "t": 39.58333333333333,
      "d": 66.66666666666667,
      "v": 68
    },
    {
      "midi": 77,
      "hit": false,
      "t": 62.5,
      "d": 60.41666666666667,
      "v": 48
    },
    {
      "midi": 80,
      "hit": false,
      "t": 72.91666666666667,
      "d": 58.33333333333333,
      "v": 51
    },
    {
      "midi": 84,
      "hit": false,
      "t": 104.16666666666667,
      "d": 77.08333333333333,
      "v": 75
    },
    {
      "midi": 89,
      "hit": false,
      "t": 156.25,
      "d": 72.91666666666666,
      "v": 101
    },
    {
      "midi": 84,
      "hit": false,
      "t": 758.3333333333333,
      "d": 145.83333333333337,
      "v": 65
    },
    {
      "midi": 84,
      "hit": false,
      "t": 985.4166666666666,
      "d": 939.5833333333334,
      "v": 73
    },
    {
      "midi": 65,
      "hit": false,
      "t": 2033.3333333333333,
      "d": 89.58333333333371,
      "v": 72
    },
    {
      "midi": 67,
      "hit": false,
      "t": 2056.25,
      "d": 72.91666666666697,
      "v": 55
    },
    {
      "midi": 70,
      "hit": false,
      "t": 2087.5,
      "d": 60.41666666666697,
      "v": 77
    },
    {
      "midi": 75,
      "hit": false,
      "t": 2102.0833333333335,
      "d": 606.25,
      "v": 42
    },
    {
      "midi": 72,
      "hit": false,
      "t": 2120.8333333333335,
      "d": 37.5,
      "v": 69
    },
    {
      "midi": 79,
      "hit": false,
      "t": 2141.666666666667,
      "d": 556.25,
      "v": 62
    },
    {
      "midi": 87,
      "hit": false,
      "t": 2179.166666666667,
      "d": 533.333333333333,
      "v": 68
    },
    {
      "midi": 82,
      "hit": false,
      "t": 2704.166666666667,
      "d": 156.24999999999955,
      "v": 72
    },
    {
      "midi": 82,
      "hit": false,
      "t": 2939.583333333333,
      "d": 887.5,
      "v": 71
    },
    {
      "midi": 63,
      "hit": false,
      "t": 4031.25,
      "d": 1177.083333333334,
      "v": 42
    },
    {
      "midi": 65,
      "hit": false,
      "t": 4052.0833333333335,
      "d": 1145.8333333333344,
      "v": 55
    },
    {
      "midi": 68,
      "hit": false,
      "t": 4062.5,
      "d": 1137.500000000001,
      "v": 70
    },
    {
      "midi": 73,
      "hit": false,
      "t": 4083.3333333333335,
      "d": 531.2500000000005,
      "v": 38
    },
    {
      "midi": 70,
      "hit": false,
      "t": 4091.666666666667,
      "d": 1106.250000000001,
      "v": 70
    },
    {
      "midi": 80,
      "hit": false,
      "t": 4112.5,
      "d": 531.2500000000009,
      "v": 70
    },
    {
      "midi": 85,
      "hit": false,
      "t": 4147.916666666667,
      "d": 506.2500000000009,
      "v": 88
    },
    {
      "midi": 87,
      "hit": false,
      "t": 4937.500000000001,
      "d": 493.75,
      "v": 63
    },
    {
      "midi": 75,
      "hit": false,
      "t": 4937.500000000001,
      "d": 493.75,
      "v": 52
    },
    {
      "midi": 43,
      "hit": false,
      "t": 5950.000000000001,
      "d": 3172.916666666665,
      "v": 68
    },
    {
      "midi": 55,
      "hit": false,
      "t": 5989.583333333334,
      "d": 3139.583333333332,
      "v": 52
    },
    {
      "midi": 77,
      "hit": false,
      "t": 6018.750000000001,
      "d": 3102.083333333331,
      "v": 57
    },
    {
      "midi": 79,
      "hit": false,
      "t": 6045.833333333334,
      "d": 3070.833333333332,
      "v": 54
    },
    {
      "midi": 84,
      "hit": false,
      "t": 6054.166666666667,
      "d": 3070.833333333333,
      "v": 84
    },
    {
      "midi": 79,
      "hit": false,
      "t": 9775,
      "d": 77.08333333333394,
      "v": 65
    },
    {
      "midi": 67,
      "hit": false,
      "t": 9779.166666666666,
      "d": 81.25,
      "v": 74
    },
    {
      "midi": 75,
      "hit": false,
      "t": 10018.75,
      "d": 647.9166666666661,
      "v": 72
    },
    {
      "midi": 67,
      "hit": false,
      "t": 10031.25,
      "d": 627.0833333333339,
      "v": 75
    },
    {
      "midi": 48,
      "hit": false,
      "t": 10300,
      "d": 137.5,
      "v": 81
    },
    {
      "midi": 50,
      "hit": false,
      "t": 10408.333333333334,
      "d": 106.25,
      "v": 79
    },
    {
      "midi": 51,
      "hit": false,
      "t": 10522.916666666668,
      "d": 102.08333333333394,
      "v": 88
    },
    {
      "midi": 75,
      "hit": false,
      "t": 10741.666666666666,
      "d": 89.58333333333394,
      "v": 76
    },
    {
      "midi": 55,
      "hit": false,
      "t": 10768.750000000002,
      "d": 81.25,
      "v": 98
    },
    {
      "midi": 67,
      "hit": false,
      "t": 10775,
      "d": 95.83333333333394,
      "v": 65
    },
    {
      "midi": 74,
      "hit": false,
      "t": 10993.75,
      "d": 89.58333333333394,
      "v": 83
    },
    {
      "midi": 54,
      "hit": false,
      "t": 11018.750000000002,
      "d": 83.33333333333394,
      "v": 95
    },
    {
      "midi": 69,
      "hit": false,
      "t": 11033.333333333334,
      "d": 222.91666666666606,
      "v": 58
    },
    {
      "midi": 72,
      "hit": false,
      "t": 11241.666666666668,
      "d": 72.91666666666606,
      "v": 77
    },
    {
      "midi": 66,
      "hit": false,
      "t": 11266.666666666666,
      "d": 162.5,
      "v": 69
    },
    {
      "midi": 57,
      "hit": false,
      "t": 11272.91666666667,
      "d": 79.16666666666606,
      "v": 96
    },
    {
      "midi": 70,
      "hit": false,
      "t": 11495.833333333334,
      "d": 93.75,
      "v": 76
    },
    {
      "midi": 54,
      "hit": false,
      "t": 11512.500000000002,
      "d": 131.25,
      "v": 88
    },
    {
      "midi": 62,
      "hit": false,
      "t": 11514.583333333332,
      "d": 114.58333333333394,
      "v": 59
    },
    {
      "midi": 50,
      "hit": false,
      "t": 11643.750000000002,
      "d": 108.33333333333394,
      "v": 79
    },
    {
      "midi": 69,
      "hit": false,
      "t": 11756.25,
      "d": 125,
      "v": 62
    },
    {
      "midi": 52,
      "hit": false,
      "t": 11756.250000000002,
      "d": 131.25,
      "v": 71
    },
    {
      "midi": 62,
      "hit": false,
      "t": 11760.416666666666,
      "d": 100,
      "v": 69
    },
    {
      "midi": 54,
      "hit": false,
      "t": 11866.666666666668,
      "d": 150,
      "v": 70
    },
    {
      "midi": 70,
      "hit": false,
      "t": 12002.083333333334,
      "d": 937.5,
      "v": 72
    },
    {
      "midi": 55,
      "hit": false,
      "t": 12022.916666666668,
      "d": 129.16666666666606,
      "v": 96
    },
    {
      "midi": 62,
      "hit": false,
      "t": 12037.5,
      "d": 614.5833333333339,
      "v": 75
    },
    {
      "midi": 57,
      "hit": false,
      "t": 12304.166666666668,
      "d": 81.25,
      "v": 97
    },
    {
      "midi": 79,
      "hit": false,
      "t": 12316.666666666666,
      "d": 108.33333333333394,
      "v": 91
    },
    {
      "midi": 78,
      "hit": false,
      "t": 12416.666666666666,
      "d": 116.66666666666788,
      "v": 70
    },
    {
      "midi": 79,
      "hit": false,
      "t": 12541.666666666668,
      "d": 120.83333333333394,
      "v": 91
    },
    {
      "midi": 58,
      "hit": false,
      "t": 12550.000000000002,
      "d": 110.41666666666606,
      "v": 84
    },
    {
      "midi": 82,
      "hit": false,
      "t": 12766.666666666668,
      "d": 68.75,
      "v": 98
    },
    {
      "midi": 55,
      "hit": false,
      "t": 12768.750000000002,
      "d": 102.08333333333394,
      "v": 86
    },
    {
      "midi": 62,
      "hit": false,
      "t": 12783.333333333334,
      "d": 81.25,
      "v": 72
    },
    {
      "midi": 56,
      "hit": false,
      "t": 13012.500000000002,
      "d": 100,
      "v": 85
    },
    {
      "midi": 63,
      "hit": false,
      "t": 13014.583333333334,
      "d": 197.91666666666606,
      "v": 75
    },
    {
      "midi": 87,
      "hit": false,
      "t": 13022.916666666668,
      "d": 129.16666666666606,
      "v": 83
    },
    {
      "midi": 68,
      "hit": false,
      "t": 13037.5,
      "d": 620.8333333333339,
      "v": 56
    },
    {
      "midi": 86,
      "hit": false,
      "t": 13147.916666666668,
      "d": 93.75,
      "v": 88
    },
    {
      "midi": 58,
      "hit": false,
      "t": 13247.916666666668,
      "d": 93.75,
      "v": 84
    },
    {
      "midi": 84,
      "hit": false,
      "t": 13254.166666666668,
      "d": 120.83333333333394,
      "v": 78
    },
    {
      "midi": 60,
      "hit": false,
      "t": 13264.583333333334,
      "d": 93.75,
      "v": 75
    },
    {
      "midi": 62,
      "hit": false,
      "t": 13360.416666666668,
      "d": 97.91666666666606,
      "v": 75
    },
    {
      "midi": 86,
      "hit": false,
      "t": 13372.916666666668,
      "d": 122.91666666666788,
      "v": 72
    },
    {
      "midi": 87,
      "hit": false,
      "t": 13477.083333333336,
      "d": 116.66666666666606,
      "v": 75
    },
    {
      "midi": 60,
      "hit": false,
      "t": 13500.000000000002,
      "d": 100,
      "v": 89
    },
    {
      "midi": 63,
      "hit": false,
      "t": 13502.083333333334,
      "d": 102.08333333333394,
      "v": 83
    },
    {
      "midi": 75,
      "hit": false,
      "t": 13720.833333333336,
      "d": 89.58333333333394,
      "v": 87
    },
    {
      "midi": 51,
      "hit": false,
      "t": 13727.083333333336,
      "d": 118.75,
      "v": 83
    },
    {
      "midi": 67,
      "hit": false,
      "t": 13747.916666666668,
      "d": 95.83333333333394,
      "v": 60
    },
    {
      "midi": 60,
      "hit": false,
      "t": 13756.250000000002,
      "d": 100,
      "v": 75
    },
    {
      "midi": 79,
      "hit": false,
      "t": 13985.41666666667,
      "d": 741.6666666666661,
      "v": 75
    },
    {
      "midi": 69,
      "hit": false,
      "t": 14016.666666666668,
      "d": 1718.75,
      "v": 54
    },
    {
      "midi": 57,
      "hit": false,
      "t": 14239.583333333336,
      "d": 97.91666666666606,
      "v": 91
    },
    {
      "midi": 60,
      "hit": false,
      "t": 14245.833333333336,
      "d": 120.83333333333394,
      "v": 90
    },
    {
      "midi": 58,
      "hit": false,
      "t": 14345.833333333336,
      "d": 100,
      "v": 74
    },
    {
      "midi": 62,
      "hit": false,
      "t": 14364.583333333336,
      "d": 89.58333333333394,
      "v": 78
    },
    {
      "midi": 60,
      "hit": false,
      "t": 14481.250000000004,
      "d": 87.5,
      "v": 62
    },
    {
      "midi": 63,
      "hit": false,
      "t": 14487.500000000004,
      "d": 89.58333333333394,
      "v": 99
    },
    {
      "midi": 60,
      "hit": false,
      "t": 14720.833333333338,
      "d": 66.66666666666788,
      "v": 93
    },
    {
      "midi": 57,
      "hit": false,
      "t": 14722.916666666672,
      "d": 70.83333333333394,
      "v": 84
    },
    {
      "midi": 77,
      "hit": false,
      "t": 14747.91666666667,
      "d": 100,
      "v": 81
    },
    {
      "midi": 57,
      "hit": false,
      "t": 14975.000000000005,
      "d": 464.5833333333321,
      "v": 89
    },
    {
      "midi": 53,
      "hit": false,
      "t": 14979.166666666672,
      "d": 456.25,
      "v": 75
    },
    {
      "midi": 77,
      "hit": false,
      "t": 14983.333333333336,
      "d": 166.66666666666606,
      "v": 94
    },
    {
      "midi": 81,
      "hit": false,
      "t": 15231.250000000002,
      "d": 145.83333333333212,
      "v": 93
    },
    {
      "midi": 82,
      "hit": false,
      "t": 15335.416666666668,
      "d": 147.91666666666606,
      "v": 71
    },
    {
      "midi": 84,
      "hit": false,
      "t": 15479.166666666668,
      "d": 81.25,
      "v": 87
    },
    {
      "midi": 81,
      "hit": false,
      "t": 15725.000000000002,
      "d": 95.83333333333394,
      "v": 81
    },
    {
      "midi": 77,
      "hit": false,
      "t": 15960.41666666667,
      "d": 1068.7500000000018,
      "v": 86
    },
    {
      "midi": 68,
      "hit": false,
      "t": 16008.333333333334,
      "d": 768.7500000000018,
      "v": 51
    },
    {
      "midi": 59,
      "hit": false,
      "t": 16281.250000000004,
      "d": 106.25,
      "v": 80
    },
    {
      "midi": 62,
      "hit": false,
      "t": 16287.500000000004,
      "d": 162.5,
      "v": 87
    },
    {
      "midi": 63,
      "hit": false,
      "t": 16410.41666666667,
      "d": 81.25,
      "v": 74
    },
    {
      "midi": 60,
      "hit": false,
      "t": 16435.41666666667,
      "d": 58.33333333333212,
      "v": 62
    },
    {
      "midi": 62,
      "hit": false,
      "t": 16535.41666666667,
      "d": 89.58333333333576,
      "v": 93
    },
    {
      "midi": 65,
      "hit": false,
      "t": 16539.58333333334,
      "d": 97.91666666666788,
      "v": 97
    },
    {
      "midi": 67,
      "hit": false,
      "t": 16770.833333333336,
      "d": 127.08333333333212,
      "v": 59
    },
    {
      "midi": 62,
      "hit": false,
      "t": 16770.83333333334,
      "d": 85.41666666666424,
      "v": 91
    },
    {
      "midi": 59,
      "hit": false,
      "t": 16772.91666666667,
      "d": 95.83333333333212,
      "v": 75
    },
    {
      "midi": 59,
      "hit": false,
      "t": 17029.16666666667,
      "d": 595.8333333333321,
      "v": 80
    },
    {
      "midi": 55,
      "hit": false,
      "t": 17031.250000000004,
      "d": 585.4166666666679,
      "v": 69
    },
    {
      "midi": 74,
      "hit": false,
      "t": 17041.66666666667,
      "d": 593.75,
      "v": 46
    },
    {
      "midi": 67,
      "hit": false,
      "t": 17062.5,
      "d": 437.5,
      "v": 56
    },
    {
      "midi": 72,
      "hit": false,
      "t": 17485.416666666668,
      "d": 214.58333333333212,
      "v": 75
    },
    {
      "midi": 74,
      "hit": false,
      "t": 17700,
      "d": 285.41666666666424,
      "v": 74
    },
    {
      "midi": 75,
      "hit": false,
      "t": 17958.333333333332,
      "d": 556.2499999999964,
      "v": 79
    },
    {
      "midi": 67,
      "hit": false,
      "t": 18012.5,
      "d": 3872.916666666668,
      "v": 79
    },
    {
      "midi": 60,
      "hit": false,
      "t": 18016.666666666668,
      "d": 2014.5833333333321,
      "v": 43
    },
    {
      "midi": 48,
      "hit": false,
      "t": 18022.916666666668,
      "d": 1912.5000000000036,
      "v": 74
    },
    {
      "midi": 36,
      "hit": false,
      "t": 18027.083333333336,
      "d": 1854.1666666666679,
      "v": 75
    },
    {
      "midi": 74,
      "hit": false,
      "t": 18499.999999999996,
      "d": 283.3333333333321,
      "v": 84
    },
    {
      "midi": 75,
      "hit": false,
      "t": 18749.999999999996,
      "d": 493.75,
      "v": 76
    },
    {
      "midi": 79,
      "hit": false,
      "t": 19233.33333333333,
      "d": 510.4166666666679,
      "v": 79
    },
    {
      "midi": 74,
      "hit": false,
      "t": 19714.58333333333,
      "d": 1650,
      "v": 78
    },
    {
      "midi": 46,
      "hit": false,
      "t": 19881.250000000004,
      "d": 2127.083333333332,
      "v": 76
    },
    {
      "midi": 34,
      "hit": false,
      "t": 19881.250000000004,
      "d": 2139.583333333332,
      "v": 65
    },
    {
      "midi": 62,
      "hit": false,
      "t": 20029.166666666668,
      "d": 1941.6666666666642,
      "v": 24
    },
    {
      "midi": 67,
      "hit": false,
      "t": 21462.499999999996,
      "d": 481.25,
      "v": 80
    },
    {
      "midi": 72,
      "hit": false,
      "t": 21958.33333333333,
      "d": 539.5833333333321,
      "v": 85
    },
    {
      "midi": 63,
      "hit": false,
      "t": 21970.833333333332,
      "d": 1068.75,
      "v": 50
    },
    {
      "midi": 44,
      "hit": false,
      "t": 21975.000000000004,
      "d": 1956.2499999999964,
      "v": 61
    },
    {
      "midi": 32,
      "hit": false,
      "t": 21987.500000000004,
      "d": 1885.4166666666642,
      "v": 45
    },
    {
      "midi": 67,
      "hit": false,
      "t": 22012.5,
      "d": 970.8333333333321,
      "v": 69
    },
    {
      "midi": 70,
      "hit": false,
      "t": 22458.33333333333,
      "d": 297.91666666666424,
      "v": 79
    },
    {
      "midi": 72,
      "hit": false,
      "t": 22741.66666666666,
      "d": 520.8333333333321,
      "v": 78
    },
    {
      "midi": 63,
      "hit": false,
      "t": 23114.583333333332,
      "d": 268.75,
      "v": 48
    },
    {
      "midi": 67,
      "hit": false,
      "t": 23175,
      "d": 262.5,
      "v": 74
    },
    {
      "midi": 75,
      "hit": false,
      "t": 23218.749999999993,
      "d": 566.6666666666679,
      "v": 71
    },
    {
      "midi": 62,
      "hit": false,
      "t": 23387.5,
      "d": 258.33333333333576,
      "v": 50
    },
    {
      "midi": 65,
      "hit": false,
      "t": 23425,
      "d": 275,
      "v": 75
    },
    {
      "midi": 60,
      "hit": false,
      "t": 23629.166666666668,
      "d": 245.83333333333576,
      "v": 59
    },
    {
      "midi": 63,
      "hit": false,
      "t": 23643.75,
      "d": 168.75,
      "v": 70
    },
    {
      "midi": 70,
      "hit": false,
      "t": 23743.749999999993,
      "d": 1575,
      "v": 71
    },
    {
      "midi": 58,
      "hit": false,
      "t": 23885.41666666667,
      "d": 1993.75,
      "v": 54
    },
    {
      "midi": 31,
      "hit": false,
      "t": 23904.166666666668,
      "d": 1997.9166666666642,
      "v": 47
    },
    {
      "midi": 63,
      "hit": false,
      "t": 23916.666666666668,
      "d": 1881.25,
      "v": 79
    },
    {
      "midi": 43,
      "hit": false,
      "t": 23916.666666666668,
      "d": 1964.5833333333321,
      "v": 72
    },
    {
      "midi": 67,
      "hit": false,
      "t": 25452.083333333325,
      "d": 537.5,
      "v": 76
    },
    {
      "midi": 41,
      "hit": false,
      "t": 25902.083333333332,
      "d": 922.9166666666679,
      "v": 71
    },
    {
      "midi": 29,
      "hit": false,
      "t": 25908.333333333332,
      "d": 910.4166666666679,
      "v": 61
    },
    {
      "midi": 60,
      "hit": false,
      "t": 25945.83333333334,
      "d": 1020.8333333333321,
      "v": 42
    },
    {
      "midi": 63,
      "hit": false,
      "t": 25960.416666666668,
      "d": 1533.3333333333358,
      "v": 69
    },
    {
      "midi": 68,
      "hit": false,
      "t": 25981.249999999993,
      "d": 752.0833333333321,
      "v": 75
    },
    {
      "midi": 67,
      "hit": false,
      "t": 26745.833333333325,
      "d": 279.1666666666679,
      "v": 75
    },
    {
      "midi": 58,
      "hit": false,
      "t": 26939.58333333334,
      "d": 518.75,
      "v": 54
    },
    {
      "midi": 53,
      "hit": false,
      "t": 26950,
      "d": 552.0833333333321,
      "v": 77
    },
    {
      "midi": 41,
      "hit": false,
      "t": 26977.083333333332,
      "d": 485.4166666666679,
      "v": 71
    },
    {
      "midi": 68,
      "hit": false,
      "t": 26995.833333333325,
      "d": 266.6666666666679,
      "v": 80
    },
    {
      "midi": 75,
      "hit": false,
      "t": 27247.91666666666,
      "d": 737.5,
      "v": 77
    },
    {
      "midi": 56,
      "hit": false,
      "t": 27427.08333333334,
      "d": 468.75,
      "v": 48
    },
    {
      "midi": 62,
      "hit": false,
      "t": 27477.083333333336,
      "d": 256.25,
      "v": 77
    },
    {
      "midi": 38,
      "hit": false,
      "t": 27487.5,
      "d": 560.4166666666642,
      "v": 49
    },
    {
      "midi": 50,
      "hit": false,
      "t": 27487.5,
      "d": 568.7499999999964,
      "v": 69
    },
    {
      "midi": 60,
      "hit": false,
      "t": 27718.750000000004,
      "d": 122.91666666666424,
      "v": 79
    },
    {
      "midi": 55,
      "hit": false,
      "t": 27931.250000000007,
      "d": 1758.3333333333321,
      "v": 52
    },
    {
      "midi": 60,
      "hit": false,
      "t": 27939.583333333336,
      "d": 1466.6666666666679,
      "v": 51
    },
    {
      "midi": 67,
      "hit": false,
      "t": 27993.749999999993,
      "d": 729.1666666666679,
      "v": 83
    },
    {
      "midi": 39,
      "hit": false,
      "t": 28000,
      "d": 1962.4999999999927,
      "v": 60
    },
    {
      "midi": 51,
      "hit": false,
      "t": 28014.583333333332,
      "d": 1908.3333333333285,
      "v": 62
    },
    {
      "midi": 65,
      "hit": false,
      "t": 28716.66666666666,
      "d": 237.5,
      "v": 89
    },
    {
      "midi": 67,
      "hit": false,
      "t": 28949.999999999993,
      "d": 289.58333333333576,
      "v": 87
    },
    {
      "midi": 75,
      "hit": false,
      "t": 29208.33333333333,
      "d": 695.8333333333321,
      "v": 74
    },
    {
      "midi": 67,
      "hit": false,
      "t": 29416.66666666667,
      "d": 581.25,
      "v": 77
    },
    {
      "midi": 50,
      "hit": false,
      "t": 29914.58333333333,
      "d": 2052.083333333332,
      "v": 76
    },
    {
      "midi": 38,
      "hit": false,
      "t": 29924.999999999993,
      "d": 2031.25,
      "v": 59
    },
    {
      "midi": 57,
      "hit": false,
      "t": 29950.000000000007,
      "d": 1008.3333333333321,
      "v": 42
    },
    {
      "midi": 74,
      "hit": false,
      "t": 29958.33333333333,
      "d": 685.4166666666679,
      "v": 93
    },
    {
      "midi": 66,
      "hit": false,
      "t": 29975.000000000004,
      "d": 835.4166666666679,
      "v": 69
    },
    {
      "midi": 69,
      "hit": false,
      "t": 30670.83333333333,
      "d": 181.25,
      "v": 88
    },
    {
      "midi": 66,
      "hit": false,
      "t": 30912.500000000004,
      "d": 545.8333333333321,
      "v": 67
    },
    {
      "midi": 69,
      "hit": false,
      "t": 30943.749999999996,
      "d": 595.8333333333321,
      "v": 75
    },
    {
      "midi": 62,
      "hit": false,
      "t": 30966.66666666667,
      "d": 495.8333333333321,
      "v": 38
    },
    {
      "midi": 67,
      "hit": false,
      "t": 31450.000000000004,
      "d": 258.3333333333321,
      "v": 69
    },
    {
      "midi": 74,
      "hit": false,
      "t": 31456.249999999996,
      "d": 429.16666666666424,
      "v": 83
    },
    {
      "midi": 64,
      "hit": false,
      "t": 31470.833333333336,
      "d": 245.83333333333576,
      "v": 46
    },
    {
      "midi": 66,
      "hit": false,
      "t": 31687.500000000004,
      "d": 300,
      "v": 58
    },
    {
      "midi": 69,
      "hit": false,
      "t": 31720.833333333336,
      "d": 337.5,
      "v": 69
    },
    {
      "midi": 67,
      "hit": false,
      "t": 31954.16666666667,
      "d": 1033.3333333333285,
      "v": 67
    },
    {
      "midi": 31,
      "hit": false,
      "t": 31956.249999999993,
      "d": 900,
      "v": 65
    },
    {
      "midi": 43,
      "hit": false,
      "t": 31966.66666666666,
      "d": 889.5833333333321,
      "v": 72
    },
    {
      "midi": 71,
      "hit": false,
      "t": 31968.750000000004,
      "d": 941.6666666666679,
      "v": 68
    },
    {
      "midi": 74,
      "hit": false,
      "t": 31974.999999999993,
      "d": 1335.4166666666642,
      "v": 66
    },
    {
      "midi": 67,
      "hit": false,
      "t": 32966.66666666667,
      "d": 895.8333333333358,
      "v": 75
    },
    {
      "midi": 55,
      "hit": false,
      "t": 32974.99999999999,
      "d": 266.66666666666424,
      "v": 93
    },
    {
      "midi": 43,
      "hit": false,
      "t": 32979.16666666666,
      "d": 279.16666666666424,
      "v": 80
    },
    {
      "midi": 59,
      "hit": false,
      "t": 33016.666666666664,
      "d": 987.5,
      "v": 55
    },
    {
      "midi": 53,
      "hit": false,
      "t": 33229.16666666666,
      "d": 245.83333333333576,
      "v": 79
    },
    {
      "midi": 41,
      "hit": false,
      "t": 33229.16666666666,
      "d": 275,
      "v": 71
    },
    {
      "midi": 51,
      "hit": false,
      "t": 33445.83333333332,
      "d": 241.66666666667152,
      "v": 91
    },
    {
      "midi": 39,
      "hit": false,
      "t": 33447.91666666666,
      "d": 250,
      "v": 81
    },
    {
      "midi": 72,
      "hit": false,
      "t": 33449.99999999999,
      "d": 264.5833333333285,
      "v": 88
    },
    {
      "midi": 50,
      "hit": false,
      "t": 33681.24999999999,
      "d": 293.7499999999927,
      "v": 83
    },
    {
      "midi": 38,
      "hit": false,
      "t": 33685.41666666666,
      "d": 306.2499999999927,
      "v": 72
    },
    {
      "midi": 74,
      "hit": false,
      "t": 33697.91666666666,
      "d": 295.83333333333576,
      "v": 84
    },
    {
      "midi": 75,
      "hit": false,
      "t": 33960.41666666666,
      "d": 502.08333333333576,
      "v": 72
    },
    {
      "midi": 60,
      "hit": false,
      "t": 33960.416666666664,
      "d": 1979.1666666666642,
      "v": 45
    },
    {
      "midi": 36,
      "hit": false,
      "t": 33964.58333333332,
      "d": 1958.3333333333285,
      "v": 63
    },
    {
      "midi": 48,
      "hit": false,
      "t": 33974.999999999985,
      "d": 2010.4166666666642,
      "v": 72
    },
    {
      "midi": 67,
      "hit": false,
      "t": 33991.66666666667,
      "d": 1868.75,
      "v": 56
    },
    {
      "midi": 74,
      "hit": false,
      "t": 34458.33333333333,
      "d": 285.41666666666424,
      "v": 76
    },
    {
      "midi": 75,
      "hit": false,
      "t": 34716.66666666666,
      "d": 512.5000000000073,
      "v": 77
    },
    {
      "midi": 79,
      "hit": false,
      "t": 35202.08333333333,
      "d": 535.4166666666715,
      "v": 89
    },
    {
      "midi": 74,
      "hit": false,
      "t": 35704.166666666664,
      "d": 1560.4166666666715,
      "v": 80
    },
    {
      "midi": 34,
      "hit": false,
      "t": 35908.333333333314,
      "d": 2114.5833333333358,
      "v": 54
    },
    {
      "midi": 46,
      "hit": false,
      "t": 35916.66666666665,
      "d": 2131.25,
      "v": 70
    },
    {
      "midi": 62,
      "hit": false,
      "t": 35943.74999999999,
      "d": 1858.3333333333358,
      "v": 57
    },
    {
      "midi": 67,
      "hit": false,
      "t": 35956.25000000001,
      "d": 1910.4166666666642,
      "v": 58
    },
    {
      "midi": 67,
      "hit": false,
      "t": 37456.25,
      "d": 533.3333333333358,
      "v": 75
    },
    {
      "midi": 72,
      "hit": false,
      "t": 37981.25,
      "d": 516.6666666666715,
      "v": 73
    },
    {
      "midi": 32,
      "hit": false,
      "t": 37987.499999999985,
      "d": 1985.4166666666715,
      "v": 59
    },
    {
      "midi": 44,
      "hit": false,
      "t": 37999.999999999985,
      "d": 1972.9166666666715,
      "v": 71
    },
    {
      "midi": 63,
      "hit": false,
      "t": 38002.08333333333,
      "d": 1016.6666666666642,
      "v": 53
    },
    {
      "midi": 67,
      "hit": false,
      "t": 38010.41666666667,
      "d": 1095.8333333333358,
      "v": 59
    },
    {
      "midi": 70,
      "hit": false,
      "t": 38472.91666666667,
      "d": 266.6666666666715,
      "v": 55
    },
    {
      "midi": 72,
      "hit": false,
      "t": 38737.50000000001,
      "d": 512.5000000000073,
      "v": 75
    },
    {
      "midi": 63,
      "hit": false,
      "t": 39127.08333333333,
      "d": 243.75,
      "v": 52
    },
    {
      "midi": 67,
      "hit": false,
      "t": 39193.75000000001,
      "d": 247.91666666667152,
      "v": 60
    },
    {
      "midi": 75,
      "hit": false,
      "t": 39210.41666666668,
      "d": 539.5833333333358,
      "v": 63
    },
    {
      "midi": 62,
      "hit": false,
      "t": 39385.416666666664,
      "d": 272.9166666666715,
      "v": 51
    },
    {
      "midi": 65,
      "hit": false,
      "t": 39433.33333333334,
      "d": 302.08333333333576,
      "v": 75
    },
    {
      "midi": 60,
      "hit": false,
      "t": 39625,
      "d": 218.75,
      "v": 61
    },
    {
      "midi": 63,
      "hit": false,
      "t": 39666.66666666668,
      "d": 164.58333333333576,
      "v": 65
    },
    {
      "midi": 70,
      "hit": false,
      "t": 39739.58333333335,
      "d": 1616.6666666666642,
      "v": 74
    },
    {
      "midi": 58,
      "hit": false,
      "t": 39870.833333333336,
      "d": 139.58333333333576,
      "v": 67
    },
    {
      "midi": 63,
      "hit": false,
      "t": 39937.500000000015,
      "d": 266.66666666666424,
      "v": 79
    },
    {
      "midi": 43,
      "hit": false,
      "t": 39949.999999999985,
      "d": 1966.6666666666715,
      "v": 68
    },
    {
      "midi": 31,
      "hit": false,
      "t": 39970.83333333332,
      "d": 1945.8333333333358,
      "v": 57
    },
    {
      "midi": 58,
      "hit": false,
      "t": 40147.91666666667,
      "d": 218.75,
      "v": 67
    },
    {
      "midi": 62,
      "hit": false,
      "t": 40225.000000000015,
      "d": 279.16666666666424,
      "v": 66
    },
    {
      "midi": 60,
      "hit": false,
      "t": 40372.91666666667,
      "d": 281.25,
      "v": 49
    },
    {
      "midi": 63,
      "hit": false,
      "t": 40468.750000000015,
      "d": 272.91666666666424,
      "v": 75
    },
    {
      "midi": 62,
      "hit": false,
      "t": 40641.66666666667,
      "d": 304.1666666666715,
      "v": 59
    },
    {
      "midi": 65,
      "hit": false,
      "t": 40714.58333333334,
      "d": 254.16666666667152,
      "v": 79
    },
    {
      "midi": 63,
      "hit": false,
      "t": 40900.00000000001,
      "d": 270.83333333333576,
      "v": 64
    },
    {
      "midi": 67,
      "hit": false,
      "t": 40975.000000000015,
      "d": 270.83333333333576,
      "v": 70
    },
    {
      "midi": 58,
      "hit": false,
      "t": 41166.66666666668,
      "d": 262.5,
      "v": 40
    },
    {
      "midi": 65,
      "hit": false,
      "t": 41227.08333333335,
      "d": 287.5,
      "v": 74
    },
    {
      "midi": 55,
      "hit": false,
      "t": 41458.33333333334,
      "d": 470.83333333333576,
      "v": 53
    },
    {
      "midi": 63,
      "hit": false,
      "t": 41458.33333333335,
      "d": 472.91666666666424,
      "v": 71
    },
    {
      "midi": 67,
      "hit": false,
      "t": 41464.58333333335,
      "d": 531.25,
      "v": 74
    },
    {
      "midi": 41,
      "hit": false,
      "t": 41958.33333333332,
      "d": 912.5,
      "v": 80
    },
    {
      "midi": 68,
      "hit": false,
      "t": 41968.750000000015,
      "d": 535.4166666666642,
      "v": 72
    },
    {
      "midi": 29,
      "hit": false,
      "t": 41970.83333333332,
      "d": 893.75,
      "v": 69
    },
    {
      "midi": 65,
      "hit": false,
      "t": 42006.250000000015,
      "d": 216.66666666666424,
      "v": 80
    },
    {
      "midi": 67,
      "hit": false,
      "t": 42229.16666666668,
      "d": 260.4166666666715,
      "v": 69
    },
    {
      "midi": 68,
      "hit": false,
      "t": 42456.250000000015,
      "d": 402.08333333333576,
      "v": 68
    },
    {
      "midi": 75,
      "hit": false,
      "t": 42481.250000000015,
      "d": 306.25,
      "v": 67
    },
    {
      "midi": 74,
      "hit": false,
      "t": 42760.41666666668,
      "d": 545.8333333333358,
      "v": 86
    },
    {
      "midi": 68,
      "hit": false,
      "t": 42945.83333333335,
      "d": 277.08333333333576,
      "v": 62
    },
    {
      "midi": 53,
      "hit": false,
      "t": 42954.16666666666,
      "d": 585.4166666666788,
      "v": 80
    },
    {
      "midi": 41,
      "hit": false,
      "t": 42974.99999999999,
      "d": 525.0000000000073,
      "v": 64
    },
    {
      "midi": 70,
      "hit": false,
      "t": 43177.08333333335,
      "d": 252.08333333333576,
      "v": 76
    },
    {
      "midi": 75,
      "hit": false,
      "t": 43287.500000000015,
      "d": 600,
      "v": 74
    },
    {
      "midi": 72,
      "hit": false,
      "t": 43416.666666666686,
      "d": 533.3333333333358,
      "v": 83
    },
    {
      "midi": 39,
      "hit": false,
      "t": 43495.83333333333,
      "d": 275.0000000000073,
      "v": 84
    },
    {
      "midi": 51,
      "hit": false,
      "t": 43497.916666666664,
      "d": 272.9166666666715,
      "v": 77
    },
    {
      "midi": 50,
      "hit": false,
      "t": 43716.66666666667,
      "d": 283.3333333333285,
      "v": 84
    },
    {
      "midi": 38,
      "hit": false,
      "t": 43735.41666666667,
      "d": 268.7499999999927,
      "v": 79
    },
    {
      "midi": 67,
      "hit": false,
      "t": 43968.75000000002,
      "d": 1991.6666666666715,
      "v": 74
    },
    {
      "midi": 77,
      "hit": false,
      "t": 43977.08333333335,
      "d": 520.8333333333358,
      "v": 88
    },
    {
      "midi": 36,
      "hit": false,
      "t": 43989.583333333336,
      "d": 839.5833333333285,
      "v": 74
    },
    {
      "midi": 48,
      "hit": false,
      "t": 44000,
      "d": 860.4166666666642,
      "v": 77
    },
    {
      "midi": 79,
      "hit": false,
      "t": 44479.166666666686,
      "d": 291.66666666666424,
      "v": 77
    },
    {
      "midi": 75,
      "hit": false,
      "t": 44727.08333333335,
      "d": 1129.1666666666642,
      "v": 75
    },
    {
      "midi": 48,
      "hit": false,
      "t": 44958.33333333333,
      "d": 545.8333333333285,
      "v": 68
    },
    {
      "midi": 36,
      "hit": false,
      "t": 44968.74999999999,
      "d": 518.75,
      "v": 68
    },
    {
      "midi": 50,
      "hit": false,
      "t": 45481.24999999999,
      "d": 264.58333333333576,
      "v": 84
    },
    {
      "midi": 38,
      "hit": false,
      "t": 45481.24999999999,
      "d": 287.5,
      "v": 73
    },
    {
      "midi": 51,
      "hit": false,
      "t": 45691.66666666666,
      "d": 258.33333333333576,
      "v": 77
    },
    {
      "midi": 39,
      "hit": false,
      "t": 45706.24999999999,
      "d": 254.16666666666424,
      "v": 65
    },
    {
      "midi": 60,
      "hit": false,
      "t": 45914.58333333334,
      "d": 1027.0833333333358,
      "v": 47
    },
    {
      "midi": 41,
      "hit": false,
      "t": 45954.16666666666,
      "d": 879.1666666666642,
      "v": 86
    },
    {
      "midi": 53,
      "hit": false,
      "t": 45958.33333333332,
      "d": 852.0833333333358,
      "v": 74
    },
    {
      "midi": 68,
      "hit": false,
      "t": 45958.33333333336,
      "d": 991.6666666666715,
      "v": 64
    },
    {
      "midi": 75,
      "hit": false,
      "t": 45960.41666666668,
      "d": 245.83333333332848,
      "v": 72
    },
    {
      "midi": 74,
      "hit": false,
      "t": 46195.83333333334,
      "d": 260.41666666666424,
      "v": 77
    },
    {
      "midi": 72,
      "hit": false,
      "t": 46456.25000000001,
      "d": 537.5,
      "v": 76
    },
    {
      "midi": 62,
      "hit": false,
      "t": 46933.33333333334,
      "d": 260.41666666666424,
      "v": 59
    },
    {
      "midi": 55,
      "hit": false,
      "t": 46949.999999999985,
      "d": 910.4166666666642,
      "v": 90
    },
    {
      "midi": 43,
      "hit": false,
      "t": 46954.16666666665,
      "d": 895.8333333333358,
      "v": 75
    },
    {
      "midi": 67,
      "hit": false,
      "t": 46958.333333333365,
      "d": 918.75,
      "v": 67
    },
    {
      "midi": 74,
      "hit": false,
      "t": 46983.33333333334,
      "d": 456.25,
      "v": 87
    },
    {
      "midi": 63,
      "hit": false,
      "t": 47164.58333333334,
      "d": 270.83333333333576,
      "v": 67
    },
    {
      "midi": 65,
      "hit": false,
      "t": 47402.08333333334,
      "d": 470.83333333333576,
      "v": 81
    },
    {
      "midi": 71,
      "hit": false,
      "t": 47437.50000000001,
      "d": 525,
      "v": 75
    },
    {
      "midi": 63,
      "hit": false,
      "t": 47893.750000000015,
      "d": 3893.75,
      "v": 58
    },
    {
      "midi": 72,
      "hit": false,
      "t": 47958.33333333334,
      "d": 1772.9166666666642,
      "v": 77
    },
    {
      "midi": 48,
      "hit": false,
      "t": 47983.333333333314,
      "d": 3958.3333333333358,
      "v": 81
    },
    {
      "midi": 36,
      "hit": false,
      "t": 47991.66666666665,
      "d": 3935.4166666666642,
      "v": 73
    },
    {
      "midi": 67,
      "hit": false,
      "t": 47995.833333333365,
      "d": 1877.0833333333358,
      "v": 57
    },
    {
      "midi": 75,
      "hit": false,
      "t": 49939.58333333334,
      "d": 1077.0833333333358,
      "v": 84
    },
    {
      "midi": 67,
      "hit": false,
      "t": 49987.50000000004,
      "d": 1991.6666666666642,
      "v": 69
    },
    {
      "midi": 77,
      "hit": false,
      "t": 50979.16666666668,
      "d": 958.3333333333358,
      "v": 85
    },
    {
      "midi": 63,
      "hit": false,
      "t": 51929.16666666668,
      "d": 2031.25,
      "v": 62
    },
    {
      "midi": 39,
      "hit": false,
      "t": 51949.999999999985,
      "d": 2033.3333333333358,
      "v": 91
    },
    {
      "midi": 51,
      "hit": false,
      "t": 51949.999999999985,
      "d": 2035.4166666666715,
      "v": 88
    },
    {
      "midi": 79,
      "hit": false,
      "t": 51981.250000000015,
      "d": 783.3333333333358,
      "v": 90
    },
    {
      "midi": 77,
      "hit": false,
      "t": 52764.58333333335,
      "d": 310.4166666666715,
      "v": 84
    },
    {
      "midi": 79,
      "hit": false,
      "t": 53047.916666666686,
      "d": 470.83333333333576,
      "v": 90
    },
    {
      "midi": 82,
      "hit": false,
      "t": 53485.416666666686,
      "d": 477.08333333333576,
      "v": 81
    },
    {
      "midi": 77,
      "hit": false,
      "t": 53952.08333333336,
      "d": 1522.9166666666642,
      "v": 81
    },
    {
      "midi": 70,
      "hit": false,
      "t": 53958.33333333337,
      "d": 22.91666666666424,
      "v": 76
    },
    {
      "midi": 62,
      "hit": false,
      "t": 53970.83333333334,
      "d": 1237.5,
      "v": 74
    },
    {
      "midi": 50,
      "hit": false,
      "t": 53977.08333333332,
      "d": 1997.9166666666715,
      "v": 81
    },
    {
      "midi": 38,
      "hit": false,
      "t": 53983.33333333332,
      "d": 1993.7500000000073,
      "v": 69
    },
    {
      "midi": 58,
      "hit": false,
      "t": 54470.83333333337,
      "d": 506.25,
      "v": 60
    },
    {
      "midi": 65,
      "hit": false,
      "t": 54947.91666666671,
      "d": 479.16666666666424,
      "v": 76
    },
    {
      "midi": 60,
      "hit": false,
      "t": 55177.08333333334,
      "d": 333.3333333333285,
      "v": 64
    },
    {
      "midi": 67,
      "hit": false,
      "t": 55433.33333333337,
      "d": 433.33333333333576,
      "v": 68
    },
    {
      "midi": 58,
      "hit": false,
      "t": 55456.25000000001,
      "d": 587.4999999999927,
      "v": 64
    },
    {
      "midi": 70,
      "hit": false,
      "t": 55483.33333333336,
      "d": 516.6666666666715,
      "v": 83
    },
    {
      "midi": 67,
      "hit": false,
      "t": 55964.58333333337,
      "d": 2547.9166666666642,
      "v": 67
    },
    {
      "midi": 75,
      "hit": false,
      "t": 55972.91666666669,
      "d": 764.5833333333358,
      "v": 75
    },
    {
      "midi": 48,
      "hit": false,
      "t": 55983.33333333333,
      "d": 2041.6666666666715,
      "v": 77
    },
    {
      "midi": 36,
      "hit": false,
      "t": 55987.49999999999,
      "d": 2012.5000000000073,
      "v": 71
    },
    {
      "midi": 60,
      "hit": false,
      "t": 56039.583333333336,
      "d": 1904.1666666666642,
      "v": 69
    },
    {
      "midi": 74,
      "hit": false,
      "t": 56733.333333333365,
      "d": 272.91666666666424,
      "v": 80
    },
    {
      "midi": 75,
      "hit": false,
      "t": 56977.083333333365,
      "d": 512.5,
      "v": 75
    },
    {
      "midi": 79,
      "hit": false,
      "t": 57468.75000000003,
      "d": 416.6666666666715,
      "v": 75
    },
    {
      "midi": 46,
      "hit": false,
      "t": 57952.08333333333,
      "d": 1970.833333333343,
      "v": 75
    },
    {
      "midi": 34,
      "hit": false,
      "t": 57960.416666666664,
      "d": 1941.6666666666715,
      "v": 64
    },
    {
      "midi": 79,
      "hit": false,
      "t": 57970.833333333365,
      "d": 1756.25,
      "v": 72
    },
    {
      "midi": 62,
      "hit": false,
      "t": 57983.333333333336,
      "d": 383.33333333333576,
      "v": 45
    },
    {
      "midi": 62,
      "hit": false,
      "t": 58470.833333333336,
      "d": 279.16666666666424,
      "v": 57
    },
    {
      "midi": 63,
      "hit": false,
      "t": 58706.25,
      "d": 268.75,
      "v": 65
    },
    {
      "midi": 65,
      "hit": false,
      "t": 58966.666666666664,
      "d": 552.0833333333358,
      "v": 72
    },
    {
      "midi": 63,
      "hit": false,
      "t": 59470.833333333336,
      "d": 231.25,
      "v": 68
    },
    {
      "midi": 62,
      "hit": false,
      "t": 59695.833333333336,
      "d": 281.25,
      "v": 61
    },
    {
      "midi": 72,
      "hit": false,
      "t": 59950.00000000003,
      "d": 243.75,
      "v": 89
    },
    {
      "midi": 68,
      "hit": false,
      "t": 59952.08333333337,
      "d": 254.16666666666424,
      "v": 68
    },
    {
      "midi": 60,
      "hit": false,
      "t": 59958.333333333336,
      "d": 1000,
      "v": 58
    },
    {
      "midi": 44,
      "hit": false,
      "t": 59958.333333333336,
      "d": 2002.0833333333358,
      "v": 71
    },
    {
      "midi": 32,
      "hit": false,
      "t": 59964.583333333336,
      "d": 2002.0833333333358,
      "v": 72
    },
    {
      "midi": 74,
      "hit": false,
      "t": 60183.333333333365,
      "d": 285.41666666666424,
      "v": 75
    },
    {
      "midi": 70,
      "hit": false,
      "t": 60189.58333333337,
      "d": 254.16666666666424,
      "v": 79
    },
    {
      "midi": 75,
      "hit": false,
      "t": 60439.583333333365,
      "d": 397.91666666666424,
      "v": 75
    },
    {
      "midi": 72,
      "hit": false,
      "t": 60456.25000000004,
      "d": 320.83333333333576,
      "v": 82
    },
    {
      "midi": 74,
      "hit": false,
      "t": 60925.00000000003,
      "d": 287.5,
      "v": 77
    },
    {
      "midi": 70,
      "hit": false,
      "t": 60939.58333333337,
      "d": 235.41666666666424,
      "v": 81
    },
    {
      "midi": 62,
      "hit": false,
      "t": 60956.25,
      "d": 968.75,
      "v": 59
    },
    {
      "midi": 75,
      "hit": false,
      "t": 61168.75000000003,
      "d": 272.91666666666424,
      "v": 74
    },
    {
      "midi": 72,
      "hit": false,
      "t": 61181.25000000004,
      "d": 268.75,
      "v": 72
    },
    {
      "midi": 77,
      "hit": false,
      "t": 61425.00000000003,
      "d": 475,
      "v": 75
    },
    {
      "midi": 74,
      "hit": false,
      "t": 61433.33333333337,
      "d": 408.3333333333285,
      "v": 84
    },
    {
      "midi": 63,
      "hit": false,
      "t": 61927.083333333336,
      "d": 954.1666666666642,
      "v": 69
    },
    {
      "midi": 75,
      "hit": false,
      "t": 61941.66666666669,
      "d": 764.5833333333285,
      "v": 76
    },
    {
      "midi": 70,
      "hit": false,
      "t": 61952.083333333365,
      "d": 643.75,
      "v": 77
    },
    {
      "midi": 43,
      "hit": false,
      "t": 61968.75000000001,
      "d": 1927.0833333333285,
      "v": 86
    },
    {
      "midi": 31,
      "hit": false,
      "t": 61981.25000000001,
      "d": 1885.4166666666642,
      "v": 75
    },
    {
      "midi": 70,
      "hit": false,
      "t": 62672.9166666667,
      "d": 127.08333333333576,
      "v": 51
    },
    {
      "midi": 70,
      "hit": false,
      "t": 62683.33333333336,
      "d": 156.25,
      "v": 71
    },
    {
      "midi": 55,
      "hit": false,
      "t": 62922.916666666664,
      "d": 525,
      "v": 65
    },
    {
      "midi": 70,
      "hit": false,
      "t": 62927.08333333337,
      "d": 889.5833333333358,
      "v": 59
    },
    {
      "midi": 70,
      "hit": false,
      "t": 62941.66666666669,
      "d": 927.0833333333358,
      "v": 77
    },
    {
      "midi": 53,
      "hit": false,
      "t": 63452.08333333333,
      "d": 237.5,
      "v": 69
    },
    {
      "midi": 51,
      "hit": false,
      "t": 63670.83333333333,
      "d": 293.75,
      "v": 74
    },
    {
      "midi": 68,
      "hit": false,
      "t": 63941.66666666671,
      "d": 1733.3333333333358,
      "v": 51
    },
    {
      "midi": 53,
      "hit": false,
      "t": 63952.08333333333,
      "d": 522.9166666666715,
      "v": 69
    },
    {
      "midi": 72,
      "hit": false,
      "t": 63956.250000000044,
      "d": 1718.75,
      "v": 83
    },
    {
      "midi": 41,
      "hit": false,
      "t": 63958.333333333336,
      "d": 1916.6666666666642,
      "v": 83
    },
    {
      "midi": 80,
      "hit": false,
      "t": 63958.333333333365,
      "d": 510.41666666666424,
      "v": 90
    },
    {
      "midi": 29,
      "hit": false,
      "t": 63966.66666666667,
      "d": 1893.75,
      "v": 70
    },
    {
      "midi": 55,
      "hit": false,
      "t": 64454.166666666664,
      "d": 239.58333333333576,
      "v": 70
    },
    {
      "midi": 79,
      "hit": false,
      "t": 64462.50000000003,
      "d": 541.6666666666715,
      "v": 75
    },
    {
      "midi": 56,
      "hit": false,
      "t": 64693.75,
      "d": 279.1666666666715,
      "v": 48
    },
    {
      "midi": 77,
      "hit": false,
      "t": 64939.583333333365,
      "d": 514.5833333333358,
      "v": 81
    },
    {
      "midi": 63,
      "hit": false,
      "t": 64952.083333333336,
      "d": 233.33333333333576,
      "v": 71
    },
    {
      "midi": 56,
      "hit": false,
      "t": 65191.66666666667,
      "d": 254.16666666666424,
      "v": 63
    },
    {
      "midi": 75,
      "hit": false,
      "t": 65431.25000000004,
      "d": 591.6666666666642,
      "v": 68
    },
    {
      "midi": 55,
      "hit": false,
      "t": 65458.333333333336,
      "d": 233.33333333333576,
      "v": 71
    },
    {
      "midi": 48,
      "hit": false,
      "t": 65708.33333333334,
      "d": 281.25,
      "v": 69
    },
    {
      "midi": 43,
      "hit": false,
      "t": 65943.75,
      "d": 1900,
      "v": 99
    },
    {
      "midi": 67,
      "hit": false,
      "t": 65945.83333333337,
      "d": 618.7500000000146,
      "v": 89
    },
    {
      "midi": 72,
      "hit": false,
      "t": 65945.83333333337,
      "d": 633.333333333343,
      "v": 88
    },
    {
      "midi": 31,
      "hit": false,
      "t": 65947.91666666667,
      "d": 1883.3333333333285,
      "v": 85
    },
    {
      "midi": 74,
      "hit": false,
      "t": 65950.00000000004,
      "d": 610.4166666666715,
      "v": 89
    },
    {
      "midi": 55,
      "hit": false,
      "t": 65983.33333333334,
      "d": 1839.5833333333285,
      "v": 58
    },
    {
      "midi": 79,
      "hit": false,
      "t": 66006.25000000003,
      "d": 3606.25,
      "v": 83
    },
    {
      "midi": 43,
      "hit": false,
      "t": 66050,
      "d": 604.1666666666715,
      "v": 69
    },
    {
      "midi": 74,
      "hit": false,
      "t": 66689.58333333339,
      "d": 429.1666666666715,
      "v": 86
    },
    {
      "midi": 67,
      "hit": false,
      "t": 66689.58333333339,
      "d": 433.33333333334303,
      "v": 83
    },
    {
      "midi": 72,
      "hit": false,
      "t": 66689.58333333339,
      "d": 441.6666666666715,
      "v": 94
    },
    {
      "midi": 43,
      "hit": false,
      "t": 66787.5,
      "d": 408.3333333333285,
      "v": 69
    },
    {
      "midi": 72,
      "hit": false,
      "t": 67214.58333333339,
      "d": 420.8333333333285,
      "v": 68
    },
    {
      "midi": 74,
      "hit": false,
      "t": 67225.00000000006,
      "d": 391.66666666665697,
      "v": 89
    },
    {
      "midi": 67,
      "hit": false,
      "t": 67227.08333333339,
      "d": 387.5,
      "v": 84
    },
    {
      "midi": 43,
      "hit": false,
      "t": 67312.5,
      "d": 383.3333333333285,
      "v": 88
    },
    {
      "midi": 72,
      "hit": false,
      "t": 67739.58333333339,
      "d": 122.91666666667152,
      "v": 93
    },
    {
      "midi": 74,
      "hit": false,
      "t": 67745.83333333339,
      "d": 104.16666666667152,
      "v": 93
    },
    {
      "midi": 67,
      "hit": false,
      "t": 67750.00000000006,
      "d": 104.16666666667152,
      "v": 93
    },
    {
      "midi": 43,
      "hit": false,
      "t": 67812.5,
      "d": 81.25,
      "v": 81
    },
    {
      "midi": 55,
      "hit": false,
      "t": 67947.91666666667,
      "d": 102.08333333332848,
      "v": 62
    },
    {
      "midi": 31,
      "hit": false,
      "t": 67956.25,
      "d": 133.33333333334303,
      "v": 89
    },
    {
      "midi": 43,
      "hit": false,
      "t": 67960.41666666667,
      "d": 116.66666666667152,
      "v": 103
    },
    {
      "midi": 67,
      "hit": false,
      "t": 68000.00000000006,
      "d": 114.58333333334303,
      "v": 101
    },
    {
      "midi": 74,
      "hit": false,
      "t": 68000.00000000006,
      "d": 125.00000000001455,
      "v": 109
    },
    {
      "midi": 71,
      "hit": false,
      "t": 68004.16666666673,
      "d": 122.91666666667152,
      "v": 98
    },
    {
      "midi": 43,
      "hit": false,
      "t": 68070.83333333333,
      "d": 87.5,
      "v": 94
    },
    {
      "midi": 55,
      "hit": false,
      "t": 68197.91666666667,
      "d": 395.8333333333285,
      "v": 67
    },
    {
      "midi": 31,
      "hit": false,
      "t": 68202.08333333334,
      "d": 414.58333333334303,
      "v": 94
    },
    {
      "midi": 43,
      "hit": false,
      "t": 68206.25000000001,
      "d": 416.6666666666715,
      "v": 101
    },
    {
      "midi": 67,
      "hit": false,
      "t": 68231.25000000007,
      "d": 385.4166666666715,
      "v": 98
    },
    {
      "midi": 74,
      "hit": false,
      "t": 68231.25000000007,
      "d": 391.6666666666715,
      "v": 111
    },
    {
      "midi": 71,
      "hit": false,
      "t": 68237.50000000007,
      "d": 389.58333333334303,
      "v": 97
    },
    {
      "midi": 43,
      "hit": false,
      "t": 68293.75,
      "d": 356.25,
      "v": 95
    },
    {
      "midi": 55,
      "hit": false,
      "t": 68681.25,
      "d": 764.5833333333285,
      "v": 62
    },
    {
      "midi": 31,
      "hit": false,
      "t": 68691.66666666669,
      "d": 1029.166666666657,
      "v": 99
    },
    {
      "midi": 43,
      "hit": false,
      "t": 68700.00000000001,
      "d": 1008.3333333333285,
      "v": 102
    },
    {
      "midi": 67,
      "hit": false,
      "t": 68733.33333333342,
      "d": 731.25,
      "v": 103
    },
    {
      "midi": 74,
      "hit": false,
      "t": 68733.33333333342,
      "d": 741.6666666666715,
      "v": 113
    },
    {
      "midi": 71,
      "hit": false,
      "t": 68739.58333333342,
      "d": 729.1666666666715,
      "v": 104
    },
    {
      "midi": 43,
      "hit": false,
      "t": 68825,
      "d": 458.3333333333285,
      "v": 102
    },
    {
      "midi": 79,
      "hit": false,
      "t": 69470.83333333334,
      "d": 535.4166666666715,
      "v": 102
    },
    {
      "midi": 79,
      "hit": false,
      "t": 69481.25,
      "d": 531.25,
      "v": 69
    },
    {
      "midi": 79,
      "hit": false,
      "t": 69529.16666666666,
      "d": 316.6666666666715,
      "v": 43
    },
    {
      "midi": 43,
      "hit": false,
      "t": 69562.5,
      "d": 4.166666666671517,
      "v": 66
    },
    {
      "midi": 43,
      "hit": false,
      "t": 69625,
      "d": 4.166666666671517,
      "v": 70
    },
    {
      "midi": 43,
      "hit": false,
      "t": 69687.5,
      "d": 4.166666666671517,
      "v": 75
    },
    {
      "midi": 43,
      "hit": false,
      "t": 69750,
      "d": 4.166666666671517,
      "v": 80
    },
    {
      "midi": 43,
      "hit": false,
      "t": 69812.5,
      "d": 4.166666666671517,
      "v": 90
    },
    {
      "midi": 43,
      "hit": false,
      "t": 69875,
      "d": 4.166666666671517,
      "v": 100
    },
    {
      "midi": 43,
      "hit": false,
      "t": 69937.5,
      "d": 4.166666666671517,
      "v": 105
    },
    {
      "midi": 79,
      "hit": false,
      "t": 69966.66666666666,
      "d": 1006.25,
      "v": 41
    },
    {
      "midi": 75,
      "hit": false,
      "t": 69983.33333333333,
      "d": 1025,
      "v": 51
    },
    {
      "midi": 84,
      "hit": false,
      "t": 69983.33333333334,
      "d": 1037.5,
      "v": 111
    },
    {
      "midi": 48,
      "hit": false,
      "t": 70000,
      "d": 845.8333333333285,
      "v": 110
    },
    {
      "midi": 48,
      "hit": false,
      "t": 70006.25,
      "d": 102.08333333332848,
      "v": 91
    },
    {
      "midi": 48,
      "hit": false,
      "t": 70229.16666666666,
      "d": 104.16666666667152,
      "v": 72
    },
    {
      "midi": 48,
      "hit": false,
      "t": 70472.91666666666,
      "d": 116.66666666667152,
      "v": 68
    },
    {
      "midi": 48,
      "hit": false,
      "t": 70725,
      "d": 106.25,
      "v": 68
    },
    {
      "midi": 77,
      "hit": false,
      "t": 70945.83333333333,
      "d": 1049.9999999999854,
      "v": 55
    },
    {
      "midi": 48,
      "hit": false,
      "t": 70966.66666666667,
      "d": 110.41666666667152,
      "v": 81
    },
    {
      "midi": 74,
      "hit": false,
      "t": 70970.83333333333,
      "d": 958.3333333333285,
      "v": 69
    },
    {
      "midi": 82,
      "hit": false,
      "t": 71000.00000000001,
      "d": 995.8333333333285,
      "v": 93
    },
    {
      "midi": 48,
      "hit": false,
      "t": 71206.25000000001,
      "d": 114.58333333332848,
      "v": 69
    },
    {
      "midi": 48,
      "hit": false,
      "t": 71470.83333333334,
      "d": 129.16666666667152,
      "v": 73
    },
    {
      "midi": 48,
      "hit": false,
      "t": 71741.66666666669,
      "d": 118.75,
      "v": 84
    },
    {
      "midi": 72,
      "hit": false,
      "t": 71945.83333333333,
      "d": 1902.0833333333285,
      "v": 61
    },
    {
      "midi": 75,
      "hit": false,
      "t": 71956.24999999999,
      "d": 1783.3333333333285,
      "v": 51
    },
    {
      "midi": 79,
      "hit": false,
      "t": 71983.33333333334,
      "d": 235.41666666667152,
      "v": 99
    },
    {
      "midi": 44,
      "hit": false,
      "t": 71983.33333333336,
      "d": 79.16666666667152,
      "v": 88
    },
    {
      "midi": 77,
      "hit": false,
      "t": 72200.00000000001,
      "d": 285.41666666665697,
      "v": 94
    },
    {
      "midi": 44,
      "hit": false,
      "t": 72235.4166666667,
      "d": 75,
      "v": 88
    },
    {
      "midi": 44,
      "hit": false,
      "t": 72466.6666666667,
      "d": 93.75,
      "v": 90
    },
    {
      "midi": 75,
      "hit": false,
      "t": 72470.83333333334,
      "d": 1462.5,
      "v": 87
    },
    {
      "midi": 44,
      "hit": false,
      "t": 72727.08333333337,
      "d": 79.16666666667152,
      "v": 90
    },
    {
      "midi": 44,
      "hit": false,
      "t": 72977.08333333337,
      "d": 77.08333333332848,
      "v": 90
    },
    {
      "midi": 44,
      "hit": false,
      "t": 73220.83333333337,
      "d": 79.16666666667152,
      "v": 88
    },
    {
      "midi": 44,
      "hit": false,
      "t": 73477.08333333337,
      "d": 100,
      "v": 93
    },
    {
      "midi": 44,
      "hit": false,
      "t": 73714.58333333337,
      "d": 95.83333333332848,
      "v": 90
    },
    {
      "midi": 46,
      "hit": false,
      "t": 73970.83333333337,
      "d": 125,
      "v": 85
    },
    {
      "midi": 77,
      "hit": false,
      "t": 73985.41666666667,
      "d": 497.9166666666715,
      "v": 98
    },
    {
      "midi": 74,
      "hit": false,
      "t": 73993.74999999999,
      "d": 462.5,
      "v": 55
    },
    {
      "midi": 74,
      "hit": false,
      "t": 74002.08333333333,
      "d": 445.8333333333285,
      "v": 64
    },
    {
      "midi": 46,
      "hit": false,
      "t": 74218.75000000004,
      "d": 127.08333333332848,
      "v": 72
    },
    {
      "midi": 75,
      "hit": false,
      "t": 74458.33333333334,
      "d": 283.3333333333285,
      "v": 83
    },
    {
      "midi": 72,
      "hit": false,
      "t": 74462.49999999999,
      "d": 252.08333333332848,
      "v": 62
    },
    {
      "midi": 46,
      "hit": false,
      "t": 74468.75000000004,
      "d": 118.75,
      "v": 71
    },
    {
      "midi": 72,
      "hit": false,
      "t": 74485.41666666666,
      "d": 214.58333333332848,
      "v": 48
    },
    {
      "midi": 74,
      "hit": false,
      "t": 74708.33333333331,
      "d": 560.4166666666715,
      "v": 69
    },
    {
      "midi": 46,
      "hit": false,
      "t": 74708.33333333337,
      "d": 110.41666666667152,
      "v": 70
    },
    {
      "midi": 74,
      "hit": false,
      "t": 74714.58333333331,
      "d": 435.4166666666715,
      "v": 58
    },
    {
      "midi": 77,
      "hit": false,
      "t": 74714.58333333334,
      "d": 506.25,
      "v": 91
    },
    {
      "midi": 46,
      "hit": false,
      "t": 74968.75000000004,
      "d": 100,
      "v": 79
    },
    {
      "midi": 82,
      "hit": false,
      "t": 75191.66666666667,
      "d": 527.083333333343,
      "v": 93
    },
    {
      "midi": 46,
      "hit": false,
      "t": 75218.75000000004,
      "d": 91.66666666667152,
      "v": 87
    },
    {
      "midi": 74,
      "hit": false,
      "t": 75266.66666666666,
      "d": 466.66666666665697,
      "v": 55
    },
    {
      "midi": 70,
      "hit": false,
      "t": 75274.99999999999,
      "d": 433.3333333333285,
      "v": 53
    },
    {
      "midi": 46,
      "hit": false,
      "t": 75460.41666666672,
      "d": 108.33333333332848,
      "v": 83
    },
    {
      "midi": 79,
      "hit": false,
      "t": 75675.00000000001,
      "d": 1691.6666666666715,
      "v": 89
    },
    {
      "midi": 46,
      "hit": false,
      "t": 75725.00000000004,
      "d": 110.41666666667152,
      "v": 79
    },
    {
      "midi": 75,
      "hit": false,
      "t": 75731.24999999999,
      "d": 1106.25,
      "v": 62
    },
    {
      "midi": 70,
      "hit": false,
      "t": 75824.99999999999,
      "d": 1108.333333333343,
      "v": 45
    },
    {
      "midi": 51,
      "hit": false,
      "t": 75950.00000000004,
      "d": 131.25,
      "v": 84
    },
    {
      "midi": 51,
      "hit": false,
      "t": 76225.00000000004,
      "d": 112.5,
      "v": 93
    },
    {
      "midi": 51,
      "hit": false,
      "t": 76487.50000000004,
      "d": 108.33333333332848,
      "v": 95
    },
    {
      "midi": 51,
      "hit": false,
      "t": 76714.58333333337,
      "d": 133.33333333332848,
      "v": 81
    },
    {
      "midi": 71,
      "hit": false,
      "t": 76922.91666666666,
      "d": 1087.5,
      "v": 68
    },
    {
      "midi": 77,
      "hit": false,
      "t": 76945.83333333331,
      "d": 1043.75,
      "v": 72
    },
    {
      "midi": 50,
      "hit": false,
      "t": 76979.1666666667,
      "d": 108.33333333332848,
      "v": 82
    },
    {
      "midi": 50,
      "hit": false,
      "t": 77206.25000000003,
      "d": 114.58333333332848,
      "v": 75
    },
    {
      "midi": 79,
      "hit": false,
      "t": 77456.25000000001,
      "d": 470.8333333333285,
      "v": 107
    },
    {
      "midi": 50,
      "hit": false,
      "t": 77456.25000000003,
      "d": 114.58333333332848,
      "v": 74
    },
    {
      "midi": 50,
      "hit": false,
      "t": 77714.58333333336,
      "d": 129.16666666667152,
      "v": 77
    },
    {
      "midi": 84,
      "hit": false,
      "t": 77956.25000000001,
      "d": 1056.25,
      "v": 111
    },
    {
      "midi": 48,
      "hit": false,
      "t": 77983.33333333336,
      "d": 122.91666666667152,
      "v": 86
    },
    {
      "midi": 79,
      "hit": false,
      "t": 78002.08333333331,
      "d": 995.8333333333285,
      "v": 58
    },
    {
      "midi": 75,
      "hit": false,
      "t": 78037.49999999999,
      "d": 1016.6666666666715,
      "v": 55
    },
    {
      "midi": 48,
      "hit": false,
      "t": 78235.4166666667,
      "d": 135.41666666667152,
      "v": 75
    },
    {
      "midi": 48,
      "hit": false,
      "t": 78481.25000000004,
      "d": 120.83333333332848,
      "v": 70
    },
    {
      "midi": 48,
      "hit": false,
      "t": 78752.08333333337,
      "d": 114.58333333332848,
      "v": 71
    },
    {
      "midi": 77,
      "hit": false,
      "t": 78977.08333333331,
      "d": 1029.166666666657,
      "v": 65
    },
    {
      "midi": 82,
      "hit": false,
      "t": 78977.08333333334,
      "d": 1047.9166666666715,
      "v": 88
    },
    {
      "midi": 48,
      "hit": false,
      "t": 79004.1666666667,
      "d": 116.66666666667152,
      "v": 87
    },
    {
      "midi": 74,
      "hit": false,
      "t": 79037.49999999999,
      "d": 900,
      "v": 54
    },
    {
      "midi": 48,
      "hit": false,
      "t": 79243.75000000004,
      "d": 120.83333333332848,
      "v": 76
    },
    {
      "midi": 48,
      "hit": false,
      "t": 79493.75000000004,
      "d": 129.16666666667152,
      "v": 75
    },
    {
      "midi": 48,
      "hit": false,
      "t": 79754.16666666672,
      "d": 129.16666666667152,
      "v": 76
    },
    {
      "midi": 72,
      "hit": false,
      "t": 79954.16666666666,
      "d": 1858.3333333333285,
      "v": 51
    },
    {
      "midi": 75,
      "hit": false,
      "t": 79981.24999999997,
      "d": 1831.25,
      "v": 68
    },
    {
      "midi": 44,
      "hit": false,
      "t": 79985.41666666672,
      "d": 89.58333333332848,
      "v": 83
    },
    {
      "midi": 79,
      "hit": false,
      "t": 79991.66666666669,
      "d": 231.25,
      "v": 99
    },
    {
      "midi": 77,
      "hit": false,
      "t": 80212.50000000001,
      "d": 256.25,
      "v": 94
    },
    {
      "midi": 44,
      "hit": false,
      "t": 80227.08333333337,
      "d": 87.5,
      "v": 88
    },
    {
      "midi": 44,
      "hit": false,
      "t": 80450.00000000004,
      "d": 93.75,
      "v": 71
    },
    {
      "midi": 75,
      "hit": false,
      "t": 80475.00000000001,
      "d": 1425,
      "v": 85
    },
    {
      "midi": 44,
      "hit": false,
      "t": 80704.16666666672,
      "d": 91.66666666667152,
      "v": 79
    },
    {
      "midi": 44,
      "hit": false,
      "t": 80956.25000000006,
      "d": 93.75,
      "v": 88
    },
    {
      "midi": 44,
      "hit": false,
      "t": 81202.08333333339,
      "d": 102.08333333332848,
      "v": 84
    },
    {
      "midi": 44,
      "hit": false,
      "t": 81475.00000000004,
      "d": 100,
      "v": 88
    },
    {
      "midi": 44,
      "hit": false,
      "t": 81731.25000000004,
      "d": 95.83333333332848,
      "v": 88
    },
    {
      "midi": 46,
      "hit": false,
      "t": 81968.75000000004,
      "d": 110.41666666667152,
      "v": 85
    },
    {
      "midi": 74,
      "hit": false,
      "t": 81985.41666666664,
      "d": 450,
      "v": 58
    },
    {
      "midi": 74,
      "hit": false,
      "t": 82004.16666666666,
      "d": 468.75,
      "v": 71
    },
    {
      "midi": 77,
      "hit": false,
      "t": 82010.41666666669,
      "d": 458.3333333333285,
      "v": 91
    },
    {
      "midi": 46,
      "hit": false,
      "t": 82235.41666666672,
      "d": 114.58333333332848,
      "v": 79
    },
    {
      "midi": 75,
      "hit": false,
      "t": 82450.00000000001,
      "d": 283.3333333333285,
      "v": 74
    },
    {
      "midi": 72,
      "hit": false,
      "t": 82474.99999999999,
      "d": 216.66666666667152,
      "v": 65
    },
    {
      "midi": 46,
      "hit": false,
      "t": 82481.25000000004,
      "d": 110.41666666667152,
      "v": 76
    },
    {
      "midi": 72,
      "hit": false,
      "t": 82483.33333333331,
      "d": 202.08333333332848,
      "v": 45
    },
    {
      "midi": 74,
      "hit": false,
      "t": 82693.74999999999,
      "d": 775,
      "v": 69
    },
    {
      "midi": 74,
      "hit": false,
      "t": 82712.49999999997,
      "d": 814.5833333333285,
      "v": 53
    },
    {
      "midi": 77,
      "hit": false,
      "t": 82720.83333333334,
      "d": 768.75,
      "v": 95
    },
    {
      "midi": 46,
      "hit": false,
      "t": 82727.08333333339,
      "d": 102.08333333332848,
      "v": 77
    },
    {
      "midi": 46,
      "hit": false,
      "t": 82985.41666666672,
      "d": 108.33333333332848,
      "v": 83
    },
    {
      "midi": 46,
      "hit": false,
      "t": 83222.91666666672,
      "d": 97.91666666667152,
      "v": 75
    },
    {
      "midi": 65,
      "hit": false,
      "t": 83474.99999999999,
      "d": 539.5833333333285,
      "v": 72
    },
    {
      "midi": 46,
      "hit": false,
      "t": 83477.08333333339,
      "d": 104.16666666667152,
      "v": 79
    },
    {
      "midi": 74,
      "hit": false,
      "t": 83479.16666666667,
      "d": 564.583333333343,
      "v": 97
    },
    {
      "midi": 70,
      "hit": false,
      "t": 83543.74999999997,
      "d": 443.75,
      "v": 56
    },
    {
      "midi": 46,
      "hit": false,
      "t": 83722.91666666673,
      "d": 100,
      "v": 79
    },
    {
      "midi": 63,
      "hit": false,
      "t": 83981.24999999999,
      "d": 1514.5833333333285,
      "v": 63
    },
    {
      "midi": 48,
      "hit": false,
      "t": 83993.75000000006,
      "d": 147.91666666667152,
      "v": 75
    },
    {
      "midi": 67,
      "hit": false,
      "t": 83999.99999999997,
      "d": 1435.4166666666715,
      "v": 59
    },
    {
      "midi": 72,
      "hit": false,
      "t": 84020.83333333334,
      "d": 1550,
      "v": 97
    },
    {
      "midi": 48,
      "hit": false,
      "t": 84235.41666666673,
      "d": 129.16666666667152,
      "v": 69
    },
    {
      "midi": 48,
      "hit": false,
      "t": 84487.50000000007,
      "d": 127.08333333332848,
      "v": 69
    },
    {
      "midi": 48,
      "hit": false,
      "t": 84745.8333333334,
      "d": 129.16666666667152,
      "v": 71
    },
    {
      "midi": 48,
      "hit": false,
      "t": 84991.66666666674,
      "d": 383.3333333333285,
      "v": 67
    },
    {
      "midi": 60,
      "hit": false,
      "t": 85460.41666666667,
      "d": 287.5,
      "v": 102
    },
    {
      "midi": 48,
      "hit": false,
      "t": 85483.3333333334,
      "d": 372.9166666666715,
      "v": 68
    },
    {
      "midi": 62,
      "hit": false,
      "t": 85727.08333333334,
      "d": 302.0833333333285,
      "v": 95
    },
    {
      "midi": 36,
      "hit": false,
      "t": 85981.25000000001,
      "d": 968.75,
      "v": 59
    },
    {
      "midi": 48,
      "hit": false,
      "t": 85985.41666666669,
      "d": 1008.3333333333285,
      "v": 53
    },
    {
      "midi": 63,
      "hit": false,
      "t": 85991.66666666667,
      "d": 712.5,
      "v": 88
    },
    {
      "midi": 60,
      "hit": false,
      "t": 86420.83333333333,
      "d": 331.25,
      "v": 49
    },
    {
      "midi": 63,
      "hit": false,
      "t": 86483.33333333333,
      "d": 260.4166666666715,
      "v": 55
    },
    {
      "midi": 67,
      "hit": false,
      "t": 86483.33333333333,
      "d": 285.4166666666715,
      "v": 75
    },
    {
      "midi": 62,
      "hit": false,
      "t": 86689.58333333334,
      "d": 252.08333333332848,
      "v": 100
    },
    {
      "midi": 63,
      "hit": false,
      "t": 86900,
      "d": 518.75,
      "v": 88
    },
    {
      "midi": 60,
      "hit": false,
      "t": 86914.58333333333,
      "d": 229.16666666667152,
      "v": 38
    },
    {
      "midi": 63,
      "hit": false,
      "t": 86933.33333333333,
      "d": 327.08333333334303,
      "v": 70
    },
    {
      "midi": 67,
      "hit": false,
      "t": 86950,
      "d": 318.75,
      "v": 73
    },
    {
      "midi": 72,
      "hit": false,
      "t": 87004.16666666667,
      "d": 281.25,
      "v": 74
    },
    {
      "midi": 63,
      "hit": false,
      "t": 87362.5,
      "d": 75,
      "v": 83
    },
    {
      "midi": 67,
      "hit": false,
      "t": 87397.91666666667,
      "d": 581.25,
      "v": 103
    },
    {
      "midi": 67,
      "hit": false,
      "t": 87412.5,
      "d": 489.5833333333285,
      "v": 54
    },
    {
      "midi": 72,
      "hit": false,
      "t": 87431.25,
      "d": 468.75,
      "v": 71
    },
    {
      "midi": 75,
      "hit": false,
      "t": 87460.41666666667,
      "d": 460.41666666665697,
      "v": 76
    },
    {
      "midi": 46,
      "hit": false,
      "t": 87916.66666666669,
      "d": 947.9166666666715,
      "v": 68
    },
    {
      "midi": 34,
      "hit": false,
      "t": 87920.83333333336,
      "d": 931.25,
      "v": 56
    },
    {
      "midi": 62,
      "hit": false,
      "t": 87962.5,
      "d": 1439.583333333343,
      "v": 95
    },
    {
      "midi": 58,
      "hit": false,
      "t": 88466.66666666666,
      "d": 306.25,
      "v": 52
    },
    {
      "midi": 67,
      "hit": false,
      "t": 88516.66666666666,
      "d": 277.0833333333285,
      "v": 75
    },
    {
      "midi": 62,
      "hit": false,
      "t": 88556.24999999999,
      "d": 212.5,
      "v": 46
    },
    {
      "midi": 58,
      "hit": false,
      "t": 88891.66666666666,
      "d": 362.5,
      "v": 54
    },
    {
      "midi": 67,
      "hit": false,
      "t": 88933.33333333333,
      "d": 331.25,
      "v": 52
    },
    {
      "midi": 70,
      "hit": false,
      "t": 88987.5,
      "d": 287.5,
      "v": 76
    },
    {
      "midi": 62,
      "hit": false,
      "t": 89002.08333333333,
      "d": 231.25,
      "v": 35
    },
    {
      "midi": 58,
      "hit": false,
      "t": 89360.41666666667,
      "d": 110.41666666665697,
      "v": 76
    },
    {
      "midi": 62,
      "hit": false,
      "t": 89400,
      "d": 50,
      "v": 53
    },
    {
      "midi": 67,
      "hit": false,
      "t": 89404.16666666667,
      "d": 600,
      "v": 49
    },
    {
      "midi": 70,
      "hit": false,
      "t": 89425,
      "d": 606.25,
      "v": 80
    },
    {
      "midi": 55,
      "hit": false,
      "t": 89435.41666666667,
      "d": 525,
      "v": 106
    },
    {
      "midi": 74,
      "hit": false,
      "t": 89512.5,
      "d": 518.75,
      "v": 82
    },
    {
      "midi": 32,
      "hit": false,
      "t": 89920.83333333336,
      "d": 1010.4166666666715,
      "v": 61
    },
    {
      "midi": 44,
      "hit": false,
      "t": 89933.33333333336,
      "d": 1004.1666666666715,
      "v": 63
    },
    {
      "midi": 60,
      "hit": false,
      "t": 89960.41666666667,
      "d": 716.6666666666715,
      "v": 94
    },
    {
      "midi": 56,
      "hit": false,
      "t": 90383.33333333333,
      "d": 308.3333333333285,
      "v": 39
    },
    {
      "midi": 60,
      "hit": false,
      "t": 90512.5,
      "d": 185.41666666665697,
      "v": 57
    },
    {
      "midi": 63,
      "hit": false,
      "t": 90520.83333333333,
      "d": 237.5,
      "v": 43
    },
    {
      "midi": 58,
      "hit": false,
      "t": 90647.91666666667,
      "d": 327.0833333333285,
      "v": 87
    },
    {
      "midi": 56,
      "hit": false,
      "t": 90862.5,
      "d": 314.5833333333285,
      "v": 46
    },
    {
      "midi": 63,
      "hit": false,
      "t": 90908.33333333333,
      "d": 295.8333333333285,
      "v": 54
    },
    {
      "midi": 60,
      "hit": false,
      "t": 90947.91666666667,
      "d": 552.0833333333285,
      "v": 95
    },
    {
      "midi": 60,
      "hit": false,
      "t": 90958.33333333333,
      "d": 218.75,
      "v": 56
    },
    {
      "midi": 68,
      "hit": false,
      "t": 90979.16666666666,
      "d": 258.3333333333285,
      "v": 77
    },
    {
      "midi": 56,
      "hit": false,
      "t": 91324.99999999999,
      "d": 197.91666666667152,
      "v": 49
    },
    {
      "midi": 60,
      "hit": false,
      "t": 91360.41666666666,
      "d": 112.5,
      "v": 76
    },
    {
      "midi": 63,
      "hit": false,
      "t": 91381.24999999999,
      "d": 645.833333333343,
      "v": 50
    },
    {
      "midi": 68,
      "hit": false,
      "t": 91418.74999999999,
      "d": 610.4166666666715,
      "v": 75
    },
    {
      "midi": 63,
      "hit": false,
      "t": 91447.91666666667,
      "d": 531.25,
      "v": 88
    },
    {
      "midi": 72,
      "hit": false,
      "t": 91499.99999999999,
      "d": 539.583333333343,
      "v": 88
    },
    {
      "midi": 43,
      "hit": false,
      "t": 91922.9166666667,
      "d": 962.5,
      "v": 66
    },
    {
      "midi": 58,
      "hit": false,
      "t": 91931.25,
      "d": 1404.1666666666715,
      "v": 84
    },
    {
      "midi": 31,
      "hit": false,
      "t": 91931.25000000003,
      "d": 956.25,
      "v": 65
    },
    {
      "midi": 55,
      "hit": false,
      "t": 92504.16666666666,
      "d": 264.5833333333285,
      "v": 62
    },
    {
      "midi": 63,
      "hit": false,
      "t": 92566.66666666666,
      "d": 243.75,
      "v": 48
    },
    {
      "midi": 58,
      "hit": false,
      "t": 92581.24999999999,
      "d": 187.5,
      "v": 41
    },
    {
      "midi": 55,
      "hit": false,
      "t": 92966.66666666666,
      "d": 287.5,
      "v": 52
    },
    {
      "midi": 63,
      "hit": false,
      "t": 92968.74999999999,
      "d": 320.83333333334303,
      "v": 53
    },
    {
      "midi": 58,
      "hit": false,
      "t": 93010.41666666666,
      "d": 243.75,
      "v": 48
    },
    {
      "midi": 67,
      "hit": false,
      "t": 93058.33333333333,
      "d": 270.8333333333285,
      "v": 82
    },
    {
      "midi": 55,
      "hit": false,
      "t": 93424.99999999999,
      "d": 116.66666666667152,
      "v": 35
    },
    {
      "midi": 55,
      "hit": false,
      "t": 93427.08333333334,
      "d": 558.333333333343,
      "v": 94
    },
    {
      "midi": 58,
      "hit": false,
      "t": 93437.49999999999,
      "d": 139.58333333332848,
      "v": 70
    },
    {
      "midi": 63,
      "hit": false,
      "t": 93439.58333333331,
      "d": 600,
      "v": 45
    },
    {
      "midi": 67,
      "hit": false,
      "t": 93481.24999999999,
      "d": 552.0833333333285,
      "v": 53
    },
    {
      "midi": 70,
      "hit": false,
      "t": 93549.99999999999,
      "d": 510.41666666665697,
      "v": 72
    },
    {
      "midi": 56,
      "hit": false,
      "t": 93950.00000000001,
      "d": 704.1666666666715,
      "v": 90
    },
    {
      "midi": 53,
      "hit": false,
      "t": 93975.00000000003,
      "d": 979.1666666666715,
      "v": 73
    },
    {
      "midi": 41,
      "hit": false,
      "t": 93991.6666666667,
      "d": 958.3333333333285,
      "v": 68
    },
    {
      "midi": 56,
      "hit": false,
      "t": 94433.33333333331,
      "d": 285.4166666666715,
      "v": 62
    },
    {
      "midi": 60,
      "hit": false,
      "t": 94483.33333333331,
      "d": 127.08333333332848,
      "v": 38
    },
    {
      "midi": 65,
      "hit": false,
      "t": 94529.16666666664,
      "d": 172.91666666667152,
      "v": 81
    },
    {
      "midi": 55,
      "hit": false,
      "t": 94660.41666666669,
      "d": 258.3333333333285,
      "v": 88
    },
    {
      "midi": 56,
      "hit": false,
      "t": 94879.16666666669,
      "d": 516.6666666666715,
      "v": 88
    },
    {
      "midi": 56,
      "hit": false,
      "t": 94889.58333333331,
      "d": 370.83333333334303,
      "v": 63
    },
    {
      "midi": 65,
      "hit": false,
      "t": 94931.24999999999,
      "d": 260.4166666666715,
      "v": 63
    },
    {
      "midi": 60,
      "hit": false,
      "t": 94949.99999999999,
      "d": 272.9166666666715,
      "v": 32
    },
    {
      "midi": 68,
      "hit": false,
      "t": 94997.91666666666,
      "d": 293.75,
      "v": 75
    },
    {
      "midi": 63,
      "hit": false,
      "t": 95372.91666666669,
      "d": 581.25,
      "v": 93
    },
    {
      "midi": 56,
      "hit": false,
      "t": 95395.83333333333,
      "d": 129.16666666665697,
      "v": 62
    },
    {
      "midi": 65,
      "hit": false,
      "t": 95443.75,
      "d": 612.4999999999854,
      "v": 51
    },
    {
      "midi": 60,
      "hit": false,
      "t": 95464.58333333333,
      "d": 45.83333333332848,
      "v": 29
    },
    {
      "midi": 68,
      "hit": false,
      "t": 95483.33333333333,
      "d": 585.416666666657,
      "v": 64
    },
    {
      "midi": 72,
      "hit": false,
      "t": 95554.16666666666,
      "d": 514.5833333333285,
      "v": 88
    },
    {
      "midi": 39,
      "hit": false,
      "t": 95945.83333333337,
      "d": 964.5833333333285,
      "v": 60
    },
    {
      "midi": 51,
      "hit": false,
      "t": 95954.1666666667,
      "d": 962.5,
      "v": 67
    },
    {
      "midi": 55,
      "hit": false,
      "t": 95972.91666666669,
      "d": 691.6666666666715,
      "v": 104
    },
    {
      "midi": 55,
      "hit": false,
      "t": 96460.41666666666,
      "d": 358.3333333333285,
      "v": 53
    },
    {
      "midi": 60,
      "hit": false,
      "t": 96506.24999999999,
      "d": 306.25,
      "v": 66
    },
    {
      "midi": 63,
      "hit": false,
      "t": 96541.66666666666,
      "d": 306.25,
      "v": 61
    },
    {
      "midi": 53,
      "hit": false,
      "t": 96647.91666666669,
      "d": 283.33333333334303,
      "v": 94
    },
    {
      "midi": 55,
      "hit": false,
      "t": 96914.58333333336,
      "d": 493.75,
      "v": 101
    },
    {
      "midi": 63,
      "hit": false,
      "t": 96968.74999999999,
      "d": 256.25,
      "v": 31
    },
    {
      "midi": 60,
      "hit": false,
      "t": 97010.41666666666,
      "d": 252.08333333332848,
      "v": 69
    },
    {
      "midi": 55,
      "hit": false,
      "t": 97012.49999999999,
      "d": 235.41666666667152,
      "v": 24
    },
    {
      "midi": 67,
      "hit": false,
      "t": 97022.91666666666,
      "d": 277.0833333333285,
      "v": 77
    },
    {
      "midi": 63,
      "hit": false,
      "t": 97414.58333333336,
      "d": 529.166666666657,
      "v": 96
    },
    {
      "midi": 63,
      "hit": false,
      "t": 97456.24999999999,
      "d": 600.0000000000146,
      "v": 41
    },
    {
      "midi": 55,
      "hit": false,
      "t": 97462.49999999999,
      "d": 112.50000000001455,
      "v": 55
    },
    {
      "midi": 60,
      "hit": false,
      "t": 97472.91666666666,
      "d": 122.91666666667152,
      "v": 76
    },
    {
      "midi": 67,
      "hit": false,
      "t": 97502.08333333333,
      "d": 518.75,
      "v": 80
    },
    {
      "midi": 72,
      "hit": false,
      "t": 97562.5,
      "d": 514.5833333333285,
      "v": 81
    },
    {
      "midi": 62,
      "hit": false,
      "t": 97910.41666666669,
      "d": 697.916666666657,
      "v": 94
    },
    {
      "midi": 38,
      "hit": false,
      "t": 97970.83333333337,
      "d": 968.75,
      "v": 60
    },
    {
      "midi": 50,
      "hit": false,
      "t": 97970.83333333337,
      "d": 968.75,
      "v": 72
    },
    {
      "midi": 57,
      "hit": false,
      "t": 98464.58333333333,
      "d": 324.99999999998545,
      "v": 60
    },
    {
      "midi": 62,
      "hit": false,
      "t": 98504.16666666666,
      "d": 258.3333333333285,
      "v": 65
    },
    {
      "midi": 66,
      "hit": false,
      "t": 98522.91666666666,
      "d": 293.74999999998545,
      "v": 77
    },
    {
      "midi": 57,
      "hit": false,
      "t": 98593.75000000001,
      "d": 229.16666666665697,
      "v": 94
    },
    {
      "midi": 57,
      "hit": false,
      "t": 98900,
      "d": 564.5833333333285,
      "v": 93
    },
    {
      "midi": 62,
      "hit": false,
      "t": 98956.24999999997,
      "d": 300,
      "v": 36
    },
    {
      "midi": 57,
      "hit": false,
      "t": 98956.24999999997,
      "d": 331.25,
      "v": 73
    },
    {
      "midi": 66,
      "hit": false,
      "t": 98966.66666666664,
      "d": 327.0833333333285,
      "v": 76
    },
    {
      "midi": 69,
      "hit": false,
      "t": 99031.24999999997,
      "d": 310.4166666666715,
      "v": 70
    },
    {
      "midi": 57,
      "hit": false,
      "t": 99399.99999999997,
      "d": 564.583333333343,
      "v": 87
    },
    {
      "midi": 62,
      "hit": false,
      "t": 99418.74999999997,
      "d": 579.1666666666715,
      "v": 45
    },
    {
      "midi": 66,
      "hit": false,
      "t": 99422.91666666664,
      "d": 572.9166666666715,
      "v": 64
    },
    {
      "midi": 62,
      "hit": false,
      "t": 99443.75,
      "d": 472.91666666665697,
      "v": 91
    },
    {
      "midi": 69,
      "hit": false,
      "t": 99458.33333333331,
      "d": 600,
      "v": 82
    },
    {
      "midi": 74,
      "hit": false,
      "t": 99556.24999999999,
      "d": 393.75,
      "v": 93
    },
    {
      "midi": 43,
      "hit": false,
      "t": 99958.33333333337,
      "d": 981.25,
      "v": 73
    },
    {
      "midi": 31,
      "hit": false,
      "t": 99964.58333333337,
      "d": 962.5,
      "v": 59
    },
    {
      "midi": 62,
      "hit": false,
      "t": 99974.99999999999,
      "d": 1450,
      "v": 94
    },
    {
      "midi": 55,
      "hit": false,
      "t": 100445.83333333331,
      "d": 347.9166666666715,
      "v": 53
    },
    {
      "midi": 59,
      "hit": false,
      "t": 100499.99999999999,
      "d": 293.75,
      "v": 57
    },
    {
      "midi": 62,
      "hit": false,
      "t": 100516.66666666666,
      "d": 320.8333333333285,
      "v": 78
    },
    {
      "midi": 55,
      "hit": false,
      "t": 100927.08333333331,
      "d": 352.0833333333285,
      "v": 53
    },
    {
      "midi": 62,
      "hit": false,
      "t": 100949.99999999999,
      "d": 343.74999999998545,
      "v": 60
    },
    {
      "midi": 59,
      "hit": false,
      "t": 100964.58333333331,
      "d": 320.8333333333285,
      "v": 70
    },
    {
      "midi": 67,
      "hit": false,
      "t": 100985.41666666664,
      "d": 343.75,
      "v": 77
    },
    {
      "midi": 71,
      "hit": false,
      "t": 101045.83333333331,
      "d": 245.83333333332848,
      "v": 79
    },
    {
      "midi": 55,
      "hit": false,
      "t": 101389.58333333331,
      "d": 489.58333333331393,
      "v": 69
    },
    {
      "midi": 59,
      "hit": false,
      "t": 101416.66666666664,
      "d": 447.91666666665697,
      "v": 56
    },
    {
      "midi": 62,
      "hit": false,
      "t": 101416.66666666664,
      "d": 468.74999999998545,
      "v": 46
    },
    {
      "midi": 67,
      "hit": false,
      "t": 101422.91666666664,
      "d": 477.08333333331393,
      "v": 71
    },
    {
      "midi": 71,
      "hit": false,
      "t": 101443.74999999997,
      "d": 458.33333333331393,
      "v": 86
    },
    {
      "midi": 84,
      "hit": false,
      "t": 101462.50000000001,
      "d": 250,
      "v": 75
    },
    {
      "midi": 72,
      "hit": false,
      "t": 101468.75000000003,
      "d": 241.66666666667152,
      "v": 78
    },
    {
      "midi": 72,
      "hit": false,
      "t": 101474.99999999997,
      "d": 252.08333333332848,
      "v": 72
    },
    {
      "midi": 60,
      "hit": false,
      "t": 101477.08333333336,
      "d": 287.50000000001455,
      "v": 77
    },
    {
      "midi": 43,
      "hit": false,
      "t": 101500,
      "d": 250,
      "v": 66
    },
    {
      "midi": 74,
      "hit": false,
      "t": 101533.3333333333,
      "d": 385.41666666665697,
      "v": 98
    },
    {
      "midi": 86,
      "hit": false,
      "t": 101700.00000000001,
      "d": 327.0833333333285,
      "v": 74
    },
    {
      "midi": 74,
      "hit": false,
      "t": 101700.00000000003,
      "d": 304.16666666668607,
      "v": 80
    },
    {
      "midi": 74,
      "hit": false,
      "t": 101720.8333333333,
      "d": 308.33333333334303,
      "v": 70
    },
    {
      "midi": 62,
      "hit": false,
      "t": 101729.1666666667,
      "d": 279.16666666668607,
      "v": 74
    },
    {
      "midi": 43,
      "hit": false,
      "t": 101750,
      "d": 252.08333333332848,
      "v": 72
    },
    {
      "midi": 48,
      "hit": false,
      "t": 101956.25000000004,
      "d": 2064.5833333333285,
      "v": 94
    },
    {
      "midi": 36,
      "hit": false,
      "t": 101958.33333333337,
      "d": 2039.5833333333285,
      "v": 86
    },
    {
      "midi": 75,
      "hit": false,
      "t": 101962.50000000004,
      "d": 750.0000000000146,
      "v": 79
    },
    {
      "midi": 67,
      "hit": false,
      "t": 101962.50000000009,
      "d": 1952.0833333333285,
      "v": 68
    },
    {
      "midi": 63,
      "hit": false,
      "t": 101968.75000000004,
      "d": 756.2500000000146,
      "v": 81
    },
    {
      "midi": 75,
      "hit": false,
      "t": 101999.99999999997,
      "d": 729.1666666666715,
      "v": 69
    },
    {
      "midi": 87,
      "hit": false,
      "t": 102002.08333333334,
      "d": 691.6666666666715,
      "v": 67
    },
    {
      "midi": 48,
      "hit": false,
      "t": 102004.16666666666,
      "d": 1704.1666666666715,
      "v": 86
    },
    {
      "midi": 72,
      "hit": false,
      "t": 102197.91666666663,
      "d": 97.91666666667152,
      "v": 69
    },
    {
      "midi": 75,
      "hit": false,
      "t": 102449.99999999997,
      "d": 293.75,
      "v": 72
    },
    {
      "midi": 79,
      "hit": false,
      "t": 102458.3333333333,
      "d": 254.16666666667152,
      "v": 81
    },
    {
      "midi": 86,
      "hit": false,
      "t": 102716.66666666669,
      "d": 272.91666666665697,
      "v": 70
    },
    {
      "midi": 72,
      "hit": false,
      "t": 102727.0833333333,
      "d": 264.58333333334303,
      "v": 69
    },
    {
      "midi": 74,
      "hit": false,
      "t": 102731.25000000006,
      "d": 291.6666666666715,
      "v": 82
    },
    {
      "midi": 62,
      "hit": false,
      "t": 102731.25000000006,
      "d": 293.75,
      "v": 75
    },
    {
      "midi": 74,
      "hit": false,
      "t": 102735.41666666664,
      "d": 293.75,
      "v": 68
    },
    {
      "midi": 75,
      "hit": false,
      "t": 102974.99999999997,
      "d": 283.33333333334303,
      "v": 70
    },
    {
      "midi": 87,
      "hit": false,
      "t": 102975.00000000001,
      "d": 500,
      "v": 72
    },
    {
      "midi": 79,
      "hit": false,
      "t": 102995.83333333331,
      "d": 235.41666666667152,
      "v": 65
    },
    {
      "midi": 63,
      "hit": false,
      "t": 102997.91666666673,
      "d": 462.5,
      "v": 79
    },
    {
      "midi": 75,
      "hit": false,
      "t": 102997.91666666673,
      "d": 468.75,
      "v": 77
    },
    {
      "midi": 75,
      "hit": false,
      "t": 103010.41666666664,
      "d": 475,
      "v": 62
    },
    {
      "midi": 72,
      "hit": false,
      "t": 103256.24999999999,
      "d": 252.08333333332848,
      "v": 75
    },
    {
      "midi": 79,
      "hit": false,
      "t": 103460.41666666673,
      "d": 547.9166666666715,
      "v": 89
    },
    {
      "midi": 67,
      "hit": false,
      "t": 103468.75000000006,
      "d": 529.1666666666715,
      "v": 74
    },
    {
      "midi": 91,
      "hit": false,
      "t": 103470.83333333334,
      "d": 560.4166666666715,
      "v": 73
    },
    {
      "midi": 75,
      "hit": false,
      "t": 103489.58333333331,
      "d": 293.75,
      "v": 77
    },
    {
      "midi": 79,
      "hit": false,
      "t": 103502.08333333331,
      "d": 504.16666666665697,
      "v": 46
    },
    {
      "midi": 79,
      "hit": false,
      "t": 103520.83333333331,
      "d": 252.08333333332848,
      "v": 66
    },
    {
      "midi": 72,
      "hit": false,
      "t": 103777.08333333331,
      "d": 204.16666666667152,
      "v": 78
    },
    {
      "midi": 34,
      "hit": false,
      "t": 103954.1666666667,
      "d": 2052.083333333343,
      "v": 74
    },
    {
      "midi": 46,
      "hit": false,
      "t": 103958.33333333337,
      "d": 2066.6666666666715,
      "v": 88
    },
    {
      "midi": 62,
      "hit": false,
      "t": 103979.16666666673,
      "d": 1427.083333333343,
      "v": 80
    },
    {
      "midi": 74,
      "hit": false,
      "t": 103981.25000000006,
      "d": 1408.333333333343,
      "v": 90
    },
    {
      "midi": 74,
      "hit": false,
      "t": 103985.41666666664,
      "d": 1431.25,
      "v": 58
    },
    {
      "midi": 67,
      "hit": false,
      "t": 103989.58333333342,
      "d": 1979.166666666657,
      "v": 59
    },
    {
      "midi": 58,
      "hit": false,
      "t": 104008.33333333331,
      "d": 297.91666666665697,
      "v": 69
    },
    {
      "midi": 43,
      "hit": false,
      "t": 104014.58333333333,
      "d": 1529.1666666666715,
      "v": 83
    },
    {
      "midi": 86,
      "hit": false,
      "t": 104016.66666666669,
      "d": 1210.416666666657,
      "v": 68
    },
    {
      "midi": 67,
      "hit": false,
      "t": 104279.16666666664,
      "d": 239.58333333332848,
      "v": 76
    },
    {
      "midi": 79,
      "hit": false,
      "t": 104518.74999999997,
      "d": 260.41666666665697,
      "v": 52
    },
    {
      "midi": 74,
      "hit": false,
      "t": 104527.0833333333,
      "d": 295.8333333333285,
      "v": 67
    },
    {
      "midi": 70,
      "hit": false,
      "t": 104779.16666666663,
      "d": 262.5,
      "v": 70
    },
    {
      "midi": 74,
      "hit": false,
      "t": 105024.99999999996,
      "d": 306.25,
      "v": 80
    },
    {
      "midi": 79,
      "hit": false,
      "t": 105035.41666666663,
      "d": 231.25,
      "v": 69
    },
    {
      "midi": 70,
      "hit": false,
      "t": 105272.91666666663,
      "d": 254.16666666665697,
      "v": 68
    },
    {
      "midi": 67,
      "hit": false,
      "t": 105445.8333333334,
      "d": 506.25,
      "v": 85
    },
    {
      "midi": 55,
      "hit": false,
      "t": 105452.0833333334,
      "d": 518.75,
      "v": 87
    },
    {
      "midi": 79,
      "hit": false,
      "t": 105483.33333333334,
      "d": 504.1666666666715,
      "v": 57
    },
    {
      "midi": 74,
      "hit": false,
      "t": 105524.99999999996,
      "d": 293.74999999998545,
      "v": 76
    },
    {
      "midi": 67,
      "hit": false,
      "t": 105524.99999999997,
      "d": 456.25,
      "v": 59
    },
    {
      "midi": 79,
      "hit": false,
      "t": 105554.16666666661,
      "d": 266.66666666665697,
      "v": 68
    },
    {
      "midi": 70,
      "hit": false,
      "t": 105772.91666666661,
      "d": 179.16666666665697,
      "v": 56
    },
    {
      "midi": 68,
      "hit": false,
      "t": 105935.41666666674,
      "d": 2016.666666666657,
      "v": 67
    },
    {
      "midi": 72,
      "hit": false,
      "t": 105952.0833333334,
      "d": 793.75,
      "v": 93
    },
    {
      "midi": 60,
      "hit": false,
      "t": 105952.0833333334,
      "d": 795.8333333333285,
      "v": 79
    },
    {
      "midi": 44,
      "hit": false,
      "t": 105970.83333333337,
      "d": 2004.1666666666715,
      "v": 77
    },
    {
      "midi": 32,
      "hit": false,
      "t": 105970.83333333337,
      "d": 2016.6666666666715,
      "v": 74
    },
    {
      "midi": 84,
      "hit": false,
      "t": 105995.83333333334,
      "d": 729.1666666666715,
      "v": 71
    },
    {
      "midi": 72,
      "hit": false,
      "t": 106004.16666666664,
      "d": 741.6666666666715,
      "v": 62
    },
    {
      "midi": 56,
      "hit": false,
      "t": 106018.74999999994,
      "d": 264.5833333333285,
      "v": 71
    },
    {
      "midi": 48,
      "hit": false,
      "t": 106047.91666666667,
      "d": 1422.9166666666715,
      "v": 72
    },
    {
      "midi": 63,
      "hit": false,
      "t": 106252.08333333327,
      "d": 252.08333333332848,
      "v": 68
    },
    {
      "midi": 75,
      "hit": false,
      "t": 106502.08333333327,
      "d": 247.91666666665697,
      "v": 63
    },
    {
      "midi": 72,
      "hit": false,
      "t": 106510.4166666666,
      "d": 325,
      "v": 66
    },
    {
      "midi": 82,
      "hit": false,
      "t": 106706.25000000001,
      "d": 304.1666666666715,
      "v": 60
    },
    {
      "midi": 70,
      "hit": false,
      "t": 106729.16666666673,
      "d": 268.75,
      "v": 68
    },
    {
      "midi": 58,
      "hit": false,
      "t": 106735.41666666673,
      "d": 306.25,
      "v": 76
    },
    {
      "midi": 70,
      "hit": false,
      "t": 106739.58333333331,
      "d": 272.91666666665697,
      "v": 56
    },
    {
      "midi": 68,
      "hit": false,
      "t": 106774.99999999993,
      "d": 252.08333333332848,
      "v": 67
    },
    {
      "midi": 72,
      "hit": false,
      "t": 106991.66666666673,
      "d": 477.0833333333285,
      "v": 89
    },
    {
      "midi": 60,
      "hit": false,
      "t": 107008.3333333334,
      "d": 462.49999999998545,
      "v": 89
    },
    {
      "midi": 72,
      "hit": false,
      "t": 107010.41666666664,
      "d": 493.74999999998545,
      "v": 67
    },
    {
      "midi": 84,
      "hit": false,
      "t": 107012.50000000001,
      "d": 570.8333333333285,
      "v": 64
    },
    {
      "midi": 75,
      "hit": false,
      "t": 107024.99999999993,
      "d": 233.33333333332848,
      "v": 65
    },
    {
      "midi": 72,
      "hit": false,
      "t": 107029.16666666658,
      "d": 327.08333333334303,
      "v": 71
    },
    {
      "midi": 68,
      "hit": false,
      "t": 107274.99999999993,
      "d": 250,
      "v": 62
    },
    {
      "midi": 63,
      "hit": false,
      "t": 107431.25000000006,
      "d": 545.8333333333285,
      "v": 75
    },
    {
      "midi": 75,
      "hit": false,
      "t": 107437.50000000006,
      "d": 516.666666666657,
      "v": 75
    },
    {
      "midi": 75,
      "hit": false,
      "t": 107483.3333333333,
      "d": 489.5833333333285,
      "v": 60
    },
    {
      "midi": 72,
      "hit": false,
      "t": 107524.99999999993,
      "d": 302.0833333333285,
      "v": 74
    },
    {
      "midi": 75,
      "hit": false,
      "t": 107533.33333333326,
      "d": 262.5,
      "v": 65
    },
    {
      "midi": 87,
      "hit": false,
      "t": 107558.33333333334,
      "d": 447.91666666665697,
      "v": 63
    },
    {
      "midi": 68,
      "hit": false,
      "t": 107777.08333333326,
      "d": 156.25,
      "v": 64
    },
    {
      "midi": 58,
      "hit": false,
      "t": 107941.66666666672,
      "d": 1425,
      "v": 75
    },
    {
      "midi": 70,
      "hit": false,
      "t": 107947.91666666672,
      "d": 1439.5833333333285,
      "v": 74
    },
    {
      "midi": 67,
      "hit": false,
      "t": 107958.3333333334,
      "d": 1970.8333333333285,
      "v": 83
    },
    {
      "midi": 31,
      "hit": false,
      "t": 107968.75000000004,
      "d": 1989.5833333333285,
      "v": 69
    },
    {
      "midi": 43,
      "hit": false,
      "t": 107977.08333333337,
      "d": 1968.75,
      "v": 95
    },
    {
      "midi": 82,
      "hit": false,
      "t": 107991.66666666667,
      "d": 1316.666666666657,
      "v": 62
    },
    {
      "midi": 70,
      "hit": false,
      "t": 107993.74999999996,
      "d": 1329.1666666666715,
      "v": 56
    },
    {
      "midi": 55,
      "hit": false,
      "t": 108002.08333333326,
      "d": 245.83333333332848,
      "v": 76
    },
    {
      "midi": 43,
      "hit": false,
      "t": 108045.83333333334,
      "d": 1285.4166666666715,
      "v": 75
    },
    {
      "midi": 63,
      "hit": false,
      "t": 108260.41666666658,
      "d": 206.25,
      "v": 80
    },
    {
      "midi": 75,
      "hit": false,
      "t": 108493.74999999991,
      "d": 352.0833333333285,
      "v": 75
    },
    {
      "midi": 79,
      "hit": false,
      "t": 108514.58333333324,
      "d": 285.4166666666715,
      "v": 76
    },
    {
      "midi": 70,
      "hit": false,
      "t": 108787.49999999991,
      "d": 262.5,
      "v": 60
    },
    {
      "midi": 75,
      "hit": false,
      "t": 109016.66666666657,
      "d": 327.0833333333285,
      "v": 68
    },
    {
      "midi": 79,
      "hit": false,
      "t": 109039.58333333324,
      "d": 245.83333333332848,
      "v": 67
    },
    {
      "midi": 70,
      "hit": false,
      "t": 109264.58333333324,
      "d": 299.99999999998545,
      "v": 56
    },
    {
      "midi": 67,
      "hit": false,
      "t": 109447.91666666672,
      "d": 516.6666666666715,
      "v": 75
    },
    {
      "midi": 55,
      "hit": false,
      "t": 109460.41666666672,
      "d": 485.4166666666715,
      "v": 59
    },
    {
      "midi": 79,
      "hit": false,
      "t": 109475,
      "d": 541.6666666666715,
      "v": 61
    },
    {
      "midi": 67,
      "hit": false,
      "t": 109508.3333333333,
      "d": 491.6666666666715,
      "v": 62
    },
    {
      "midi": 75,
      "hit": false,
      "t": 109516.66666666657,
      "d": 318.75,
      "v": 71
    },
    {
      "midi": 79,
      "hit": false,
      "t": 109556.2499999999,
      "d": 243.75,
      "v": 57
    },
    {
      "midi": 70,
      "hit": false,
      "t": 109756.2499999999,
      "d": 160.41666666667152,
      "v": 68
    },
    {
      "midi": 56,
      "hit": false,
      "t": 109916.66666666672,
      "d": 552.083333333343,
      "v": 79
    },
    {
      "midi": 68,
      "hit": false,
      "t": 109922.91666666672,
      "d": 545.833333333343,
      "v": 79
    },
    {
      "midi": 41,
      "hit": false,
      "t": 109952.08333333337,
      "d": 2006.25,
      "v": 86
    },
    {
      "midi": 29,
      "hit": false,
      "t": 109958.33333333337,
      "d": 2018.7500000000146,
      "v": 74
    },
    {
      "midi": 65,
      "hit": false,
      "t": 109985.41666666673,
      "d": 1989.5833333333285,
      "v": 93
    },
    {
      "midi": 68,
      "hit": false,
      "t": 109995.8333333333,
      "d": 529.1666666666715,
      "v": 61
    },
    {
      "midi": 80,
      "hit": false,
      "t": 110010.41666666667,
      "d": 489.5833333333285,
      "v": 68
    },
    {
      "midi": 53,
      "hit": false,
      "t": 110020.83333333324,
      "d": 264.5833333333285,
      "v": 75
    },
    {
      "midi": 48,
      "hit": false,
      "t": 110070.83333333334,
      "d": 1539.5833333333285,
      "v": 70
    },
    {
      "midi": 65,
      "hit": false,
      "t": 110264.58333333324,
      "d": 241.66666666665697,
      "v": 94
    },
    {
      "midi": 75,
      "hit": false,
      "t": 110456.25000000006,
      "d": 275,
      "v": 77
    },
    {
      "midi": 63,
      "hit": false,
      "t": 110458.33333333339,
      "d": 272.9166666666715,
      "v": 79
    },
    {
      "midi": 80,
      "hit": false,
      "t": 110512.4999999999,
      "d": 277.08333333334303,
      "v": 68
    },
    {
      "midi": 77,
      "hit": false,
      "t": 110512.4999999999,
      "d": 318.75000000001455,
      "v": 75
    },
    {
      "midi": 87,
      "hit": false,
      "t": 110514.58333333333,
      "d": 262.5,
      "v": 55
    },
    {
      "midi": 75,
      "hit": false,
      "t": 110522.91666666664,
      "d": 279.16666666665697,
      "v": 68
    },
    {
      "midi": 74,
      "hit": false,
      "t": 110714.58333333339,
      "d": 708.333333333343,
      "v": 93
    },
    {
      "midi": 62,
      "hit": false,
      "t": 110741.66666666673,
      "d": 664.5833333333285,
      "v": 79
    },
    {
      "midi": 86,
      "hit": false,
      "t": 110760.41666666666,
      "d": 639.583333333343,
      "v": 81
    },
    {
      "midi": 72,
      "hit": false,
      "t": 110779.16666666657,
      "d": 316.6666666666715,
      "v": 67
    },
    {
      "midi": 74,
      "hit": false,
      "t": 110793.74999999997,
      "d": 579.166666666657,
      "v": 71
    },
    {
      "midi": 80,
      "hit": false,
      "t": 111062.49999999991,
      "d": 245.83333333332848,
      "v": 71
    },
    {
      "midi": 77,
      "hit": false,
      "t": 111068.74999999991,
      "d": 293.74999999998545,
      "v": 85
    },
    {
      "midi": 72,
      "hit": false,
      "t": 111329.16666666657,
      "d": 254.16666666665697,
      "v": 69
    },
    {
      "midi": 75,
      "hit": false,
      "t": 111366.66666666663,
      "d": 656.25,
      "v": 56
    },
    {
      "midi": 75,
      "hit": false,
      "t": 111375.00000000006,
      "d": 545.833333333343,
      "v": 74
    },
    {
      "midi": 63,
      "hit": false,
      "t": 111383.33333333339,
      "d": 560.4166666666861,
      "v": 87
    },
    {
      "midi": 87,
      "hit": false,
      "t": 111410.41666666667,
      "d": 600,
      "v": 60
    },
    {
      "midi": 77,
      "hit": false,
      "t": 111556.2499999999,
      "d": 310.41666666665697,
      "v": 69
    },
    {
      "midi": 80,
      "hit": false,
      "t": 111574.9999999999,
      "d": 270.8333333333285,
      "v": 69
    },
    {
      "midi": 72,
      "hit": false,
      "t": 111806.2499999999,
      "d": 183.33333333332848,
      "v": 59
    },
    {
      "midi": 77,
      "hit": false,
      "t": 111950.00000000007,
      "d": 518.7499999999854,
      "v": 88
    },
    {
      "midi": 65,
      "hit": false,
      "t": 111958.3333333334,
      "d": 414.5833333333285,
      "v": 94
    },
    {
      "midi": 48,
      "hit": false,
      "t": 111962.50000000004,
      "d": 2012.5000000000146,
      "v": 90
    },
    {
      "midi": 36,
      "hit": false,
      "t": 111966.66666666672,
      "d": 2014.583333333343,
      "v": 88
    },
    {
      "midi": 67,
      "hit": false,
      "t": 111972.91666666673,
      "d": 1979.166666666657,
      "v": 75
    },
    {
      "midi": 77,
      "hit": false,
      "t": 111977.0833333333,
      "d": 504.1666666666715,
      "v": 57
    },
    {
      "midi": 89,
      "hit": false,
      "t": 112004.16666666667,
      "d": 497.9166666666715,
      "v": 59
    },
    {
      "midi": 60,
      "hit": false,
      "t": 112012.4999999999,
      "d": 360.4166666666715,
      "v": 75
    },
    {
      "midi": 48,
      "hit": false,
      "t": 112020.83333333334,
      "d": 1743.75,
      "v": 78
    },
    {
      "midi": 72,
      "hit": false,
      "t": 112268.7499999999,
      "d": 279.1666666666715,
      "v": 63
    },
    {
      "midi": 79,
      "hit": false,
      "t": 112456.25000000006,
      "d": 293.74999999998545,
      "v": 89
    },
    {
      "midi": 67,
      "hit": false,
      "t": 112466.66666666673,
      "d": 262.49999999998545,
      "v": 82
    },
    {
      "midi": 79,
      "hit": false,
      "t": 112470.8333333333,
      "d": 283.33333333334303,
      "v": 60
    },
    {
      "midi": 91,
      "hit": false,
      "t": 112502.08333333334,
      "d": 272.9166666666715,
      "v": 59
    },
    {
      "midi": 75,
      "hit": false,
      "t": 112529.16666666657,
      "d": 287.5,
      "v": 70
    },
    {
      "midi": 79,
      "hit": false,
      "t": 112541.66666666657,
      "d": 245.83333333332848,
      "v": 69
    },
    {
      "midi": 75,
      "hit": false,
      "t": 112706.25000000006,
      "d": 1145.833333333314,
      "v": 75
    },
    {
      "midi": 63,
      "hit": false,
      "t": 112708.33333333339,
      "d": 1116.666666666657,
      "v": 83
    },
    {
      "midi": 75,
      "hit": false,
      "t": 112731.24999999997,
      "d": 1133.333333333343,
      "v": 68
    },
    {
      "midi": 87,
      "hit": false,
      "t": 112770.83333333334,
      "d": 1079.1666666666715,
      "v": 62
    },
    {
      "midi": 72,
      "hit": false,
      "t": 112774.9999999999,
      "d": 258.33333333334303,
      "v": 80
    },
    {
      "midi": 75,
      "hit": false,
      "t": 113008.33333333324,
      "d": 312.49999999998545,
      "v": 88
    },
    {
      "midi": 79,
      "hit": false,
      "t": 113018.74999999991,
      "d": 260.41666666665697,
      "v": 96
    },
    {
      "midi": 72,
      "hit": false,
      "t": 113281.2499999999,
      "d": 270.8333333333285,
      "v": 76
    },
    {
      "midi": 75,
      "hit": false,
      "t": 113527.08333333323,
      "d": 283.3333333333285,
      "v": 72
    },
    {
      "midi": 79,
      "hit": false,
      "t": 113560.41666666656,
      "d": 258.3333333333285,
      "v": 60
    },
    {
      "midi": 72,
      "hit": false,
      "t": 113789.58333333323,
      "d": 149.99999999998545,
      "v": 71
    },
    {
      "midi": 63,
      "hit": false,
      "t": 113966.6666666667,
      "d": 260.41666666665697,
      "v": 95
    },
    {
      "midi": 75,
      "hit": false,
      "t": 113972.91666666664,
      "d": 297.9166666666715,
      "v": 60
    },
    {
      "midi": 75,
      "hit": false,
      "t": 113972.9166666667,
      "d": 247.91666666665697,
      "v": 76
    },
    {
      "midi": 29,
      "hit": false,
      "t": 113981.25000000006,
      "d": 956.25,
      "v": 86
    },
    {
      "midi": 41,
      "hit": false,
      "t": 113981.25000000006,
      "d": 960.4166666666715,
      "v": 91
    },
    {
      "midi": 68,
      "hit": false,
      "t": 114002.08333333339,
      "d": 958.3333333333285,
      "v": 75
    },
    {
      "midi": 87,
      "hit": false,
      "t": 114006.25000000001,
      "d": 252.08333333332848,
      "v": 74
    },
    {
      "midi": 48,
      "hit": false,
      "t": 114018.75000000001,
      "d": 706.25,
      "v": 72
    },
    {
      "midi": 74,
      "hit": false,
      "t": 114197.9166666667,
      "d": 262.49999999998545,
      "v": 85
    },
    {
      "midi": 62,
      "hit": false,
      "t": 114206.25000000003,
      "d": 272.91666666665697,
      "v": 85
    },
    {
      "midi": 74,
      "hit": false,
      "t": 114245.83333333331,
      "d": 254.16666666667152,
      "v": 65
    },
    {
      "midi": 86,
      "hit": false,
      "t": 114266.66666666667,
      "d": 270.8333333333285,
      "v": 58
    },
    {
      "midi": 72,
      "hit": false,
      "t": 114464.58333333336,
      "d": 485.41666666665697,
      "v": 95
    },
    {
      "midi": 60,
      "hit": false,
      "t": 114466.66666666669,
      "d": 485.41666666665697,
      "v": 86
    },
    {
      "midi": 72,
      "hit": false,
      "t": 114516.66666666666,
      "d": 506.25,
      "v": 69
    },
    {
      "midi": 84,
      "hit": false,
      "t": 114550,
      "d": 485.4166666666715,
      "v": 75
    },
    {
      "midi": 43,
      "hit": false,
      "t": 114929.16666666673,
      "d": 1070.8333333333285,
      "v": 98
    },
    {
      "midi": 31,
      "hit": false,
      "t": 114931.25000000006,
      "d": 1081.25,
      "v": 85
    },
    {
      "midi": 67,
      "hit": false,
      "t": 114968.75000000004,
      "d": 512.5,
      "v": 85
    },
    {
      "midi": 43,
      "hit": false,
      "t": 115000.00000000001,
      "d": 887.5,
      "v": 82
    },
    {
      "midi": 74,
      "hit": false,
      "t": 115016.66666666666,
      "d": 481.25,
      "v": 83
    },
    {
      "midi": 74,
      "hit": false,
      "t": 115018.75000000001,
      "d": 450,
      "v": 96
    },
    {
      "midi": 86,
      "hit": false,
      "t": 115022.91666666667,
      "d": 470.8333333333285,
      "v": 82
    },
    {
      "midi": 62,
      "hit": false,
      "t": 115022.91666666669,
      "d": 416.6666666666715,
      "v": 89
    },
    {
      "midi": 71,
      "hit": false,
      "t": 115460.41666666669,
      "d": 450,
      "v": 90
    },
    {
      "midi": 65,
      "hit": false,
      "t": 115460.41666666672,
      "d": 524.9999999999854,
      "v": 90
    },
    {
      "midi": 59,
      "hit": false,
      "t": 115472.91666666669,
      "d": 443.75,
      "v": 89
    },
    {
      "midi": 83,
      "hit": false,
      "t": 115491.66666666667,
      "d": 514.5833333333285,
      "v": 64
    },
    {
      "midi": 71,
      "hit": false,
      "t": 115497.91666666666,
      "d": 485.4166666666715,
      "v": 68
    },
    {
      "midi": 63,
      "hit": false,
      "t": 115958.33333333337,
      "d": 1641.666666666657,
      "v": 77
    },
    {
      "midi": 72,
      "hit": false,
      "t": 115966.66666666669,
      "d": 1695.833333333343,
      "v": 97
    },
    {
      "midi": 60,
      "hit": false,
      "t": 115970.83333333336,
      "d": 1727.083333333343,
      "v": 96
    },
    {
      "midi": 72,
      "hit": false,
      "t": 115991.66666666666,
      "d": 1847.9166666666715,
      "v": 69
    },
    {
      "midi": 84,
      "hit": false,
      "t": 116006.25,
      "d": 1456.25,
      "v": 74
    },
    {
      "midi": 48,
      "hit": false,
      "t": 116006.25000000006,
      "d": 1854.166666666657,
      "v": 93
    },
    {
      "midi": 36,
      "hit": false,
      "t": 116008.33333333339,
      "d": 1831.25,
      "v": 85
    },
    {
      "midi": 48,
      "hit": false,
      "t": 116037.50000000001,
      "d": 837.5,
      "v": 83
    },
    {
      "midi": 60,
      "hit": false,
      "t": 117437.49999999999,
      "d": 268.75,
      "v": 86
    },
    {
      "midi": 62,
      "hit": false,
      "t": 117685.41666666666,
      "d": 358.3333333333285,
      "v": 82
    },
    {
      "midi": 63,
      "hit": false,
      "t": 117997.91666666666,
      "d": 758.3333333333285,
      "v": 79
    },
    {
      "midi": 48,
      "hit": false,
      "t": 118000.00000000004,
      "d": 2010.4166666666715,
      "v": 68
    },
    {
      "midi": 36,
      "hit": false,
      "t": 118010.41666666672,
      "d": 1945.8333333333285,
      "v": 77
    },
    {
      "midi": 55,
      "hit": false,
      "t": 118016.6666666667,
      "d": 1893.75,
      "v": 61
    },
    {
      "midi": 62,
      "hit": false,
      "t": 118747.91666666666,
      "d": 300,
      "v": 79
    },
    {
      "midi": 63,
      "hit": false,
      "t": 119012.49999999999,
      "d": 560.4166666666715,
      "v": 84
    },
    {
      "midi": 67,
      "hit": false,
      "t": 119552.08333333333,
      "d": 554.1666666666715,
      "v": 86
    },
    {
      "midi": 34,
      "hit": false,
      "t": 119962.50000000004,
      "d": 1954.1666666666715,
      "v": 54
    },
    {
      "midi": 46,
      "hit": false,
      "t": 119981.25000000004,
      "d": 2000,
      "v": 70
    },
    {
      "midi": 55,
      "hit": false,
      "t": 120012.50000000003,
      "d": 1864.5833333333285,
      "v": 65
    },
    {
      "midi": 62,
      "hit": false,
      "t": 120070.83333333333,
      "d": 1197.9166666666715,
      "v": 82
    },
    {
      "midi": 55,
      "hit": false,
      "t": 121220.83333333333,
      "d": 310.4166666666715,
      "v": 81
    },
    {
      "midi": 56,
      "hit": false,
      "t": 121481.25,
      "d": 279.1666666666715,
      "v": 80
    },
    {
      "midi": 58,
      "hit": false,
      "t": 121725,
      "d": 364.58333333334303,
      "v": 77
    },
    {
      "midi": 44,
      "hit": false,
      "t": 121970.83333333339,
      "d": 5941.666666666657,
      "v": 54
    },
    {
      "midi": 32,
      "hit": false,
      "t": 121972.91666666672,
      "d": 5970.8333333333285,
      "v": 27
    },
    {
      "midi": 60,
      "hit": false,
      "t": 122020.83333333334,
      "d": 6027.0833333333285,
      "v": 71
    },
    {
      "midi": 51,
      "hit": false,
      "t": 122037.50000000003,
      "d": 5939.5833333333285,
      "v": 54
    },
    {
      "midi": 55,
      "hit": false,
      "t": 122075.00000000003,
      "d": 5910.416666666657,
      "v": 31
    },
    {
      "midi": 72,
      "hit": false,
      "t": 123141.66666666654,
      "d": 272.9166666666715,
      "v": 57
    },
    {
      "midi": 79,
      "hit": false,
      "t": 123389.58333333321,
      "d": 283.3333333333285,
      "v": 47
    },
    {
      "midi": 77,
      "hit": false,
      "t": 123633.33333333321,
      "d": 279.16666666665697,
      "v": 61
    },
    {
      "midi": 79,
      "hit": false,
      "t": 123887.49999999987,
      "d": 287.5,
      "v": 67
    },
    {
      "midi": 72,
      "hit": false,
      "t": 124166.66666666654,
      "d": 241.66666666665697,
      "v": 69
    },
    {
      "midi": 79,
      "hit": false,
      "t": 124393.74999999987,
      "d": 256.25,
      "v": 68
    },
    {
      "midi": 77,
      "hit": false,
      "t": 124620.8333333332,
      "d": 266.6666666666715,
      "v": 62
    },
    {
      "midi": 79,
      "hit": false,
      "t": 124877.0833333332,
      "d": 241.66666666667152,
      "v": 53
    },
    {
      "midi": 72,
      "hit": false,
      "t": 125116.66666666654,
      "d": 262.49999999998545,
      "v": 59
    },
    {
      "midi": 79,
      "hit": false,
      "t": 125377.0833333332,
      "d": 279.1666666666715,
      "v": 58
    },
    {
      "midi": 77,
      "hit": false,
      "t": 125627.0833333332,
      "d": 283.3333333333285,
      "v": 62
    },
    {
      "midi": 79,
      "hit": false,
      "t": 125889.5833333332,
      "d": 274.99999999998545,
      "v": 71
    },
    {
      "midi": 72,
      "hit": false,
      "t": 126162.49999999985,
      "d": 485.4166666666715,
      "v": 69
    },
    {
      "midi": 74,
      "hit": false,
      "t": 126606.24999999985,
      "d": 383.33333333334303,
      "v": 60
    },
    {
      "midi": 72,
      "hit": false,
      "t": 127031.24999999987,
      "d": 1156.25,
      "v": 67
    },
    {
      "midi": 77,
      "hit": false,
      "t": 127062.49999999987,
      "d": 1118.75,
      "v": 47
    },
    {
      "midi": 79,
      "hit": false,
      "t": 127104.16666666654,
      "d": 1083.3333333333285,
      "v": 46
    },
    {
      "midi": 82,
      "hit": false,
      "t": 127131.24999999987,
      "d": 1054.1666666666715,
      "v": 49
    }
  ]
}