{
  "jsonPath": "Animes/Laputa MIDI Collection/sly-dreamy-jingles.json",
  "path": "Animes\\Laputa MIDI Collection\\Sly Dreamy Jingles.mid",
  "name": "Sly Dreamy Jingles",
  "difficulty": "Advanced",
  "bpm": 84.000084000084,
  "notes": [
    {
      "midi": 72,
      "hit": false,
      "t": 2142.855,
      "d": 374.9996249999999,
      "v": 99
    },
    {
      "midi": 74,
      "hit": false,
      "t": 2499.9975,
      "d": 374.9996249999999,
      "v": 95
    },
    {
      "midi": 60,
      "hit": false,
      "t": 2857.1399999999994,
      "d": 2226.1882499999992,
      "v": 63
    },
    {
      "midi": 63,
      "hit": false,
      "t": 2857.1399999999994,
      "d": 2226.1882499999992,
      "v": 63
    },
    {
      "midi": 55,
      "hit": false,
      "t": 2857.1399999999994,
      "d": 2607.1402499999995,
      "v": 63
    },
    {
      "midi": 48,
      "hit": false,
      "t": 2857.1399999999994,
      "d": 2970.2351249999992,
      "v": 63
    },
    {
      "midi": 75,
      "hit": false,
      "t": 2857.14,
      "d": 1345.2367500000005,
      "v": 112
    },
    {
      "midi": 48,
      "hit": false,
      "t": 2857.14,
      "d": 2970.2351249999997,
      "v": 100
    },
    {
      "midi": 48,
      "hit": false,
      "t": 2857.14,
      "d": 2970.2351249999997,
      "v": 127
    },
    {
      "midi": 55,
      "hit": false,
      "t": 3214.2825,
      "d": 2607.14025,
      "v": 100
    },
    {
      "midi": 55,
      "hit": false,
      "t": 3214.2825,
      "d": 2607.14025,
      "v": 127
    },
    {
      "midi": 63,
      "hit": false,
      "t": 3571.4249999999997,
      "d": 2226.1882499999997,
      "v": 100
    },
    {
      "midi": 60,
      "hit": false,
      "t": 3571.4249999999997,
      "d": 2226.1882499999997,
      "v": 100
    },
    {
      "midi": 63,
      "hit": false,
      "t": 3571.4249999999997,
      "d": 2226.1882499999997,
      "v": 127
    },
    {
      "midi": 60,
      "hit": false,
      "t": 3571.4249999999997,
      "d": 2226.1882499999997,
      "v": 127
    },
    {
      "midi": 74,
      "hit": false,
      "t": 3928.5675,
      "d": 416.6662500000002,
      "v": 110
    },
    {
      "midi": 75,
      "hit": false,
      "t": 4285.71,
      "d": 809.5230000000001,
      "v": 108
    },
    {
      "midi": 79,
      "hit": false,
      "t": 4999.995,
      "d": 898.8086249999997,
      "v": 90
    },
    {
      "midi": 58,
      "hit": false,
      "t": 5714.279999999999,
      "d": 2226.1882499999992,
      "v": 63
    },
    {
      "midi": 62,
      "hit": false,
      "t": 5714.279999999999,
      "d": 2226.1882499999992,
      "v": 63
    },
    {
      "midi": 55,
      "hit": false,
      "t": 5714.279999999999,
      "d": 2607.1402499999986,
      "v": 63
    },
    {
      "midi": 46,
      "hit": false,
      "t": 5714.279999999999,
      "d": 2970.2351249999992,
      "v": 63
    },
    {
      "midi": 74,
      "hit": false,
      "t": 5714.28,
      "d": 2130.95025,
      "v": 111
    },
    {
      "midi": 46,
      "hit": false,
      "t": 5714.28,
      "d": 2970.235125,
      "v": 100
    },
    {
      "midi": 46,
      "hit": false,
      "t": 5714.28,
      "d": 2970.235125,
      "v": 127
    },
    {
      "midi": 55,
      "hit": false,
      "t": 6071.4225,
      "d": 2607.1402499999995,
      "v": 100
    },
    {
      "midi": 55,
      "hit": false,
      "t": 6071.4225,
      "d": 2607.1402499999995,
      "v": 127
    },
    {
      "midi": 62,
      "hit": false,
      "t": 6428.565,
      "d": 2226.18825,
      "v": 100
    },
    {
      "midi": 58,
      "hit": false,
      "t": 6428.565,
      "d": 2226.18825,
      "v": 100
    },
    {
      "midi": 62,
      "hit": false,
      "t": 6428.565,
      "d": 2226.18825,
      "v": 127
    },
    {
      "midi": 58,
      "hit": false,
      "t": 6428.565,
      "d": 2226.18825,
      "v": 127
    },
    {
      "midi": 67,
      "hit": false,
      "t": 7857.134999999999,
      "d": 559.5232499999993,
      "v": 107
    },
    {
      "midi": 72,
      "hit": false,
      "t": 8571.419999999998,
      "d": 1226.1892499999994,
      "v": 100
    },
    {
      "midi": 44,
      "hit": false,
      "t": 8571.419999999998,
      "d": 738.0944999999992,
      "v": 63
    },
    {
      "midi": 60,
      "hit": false,
      "t": 8571.419999999998,
      "d": 2226.1882499999992,
      "v": 63
    },
    {
      "midi": 63,
      "hit": false,
      "t": 8571.419999999998,
      "d": 2226.1882499999992,
      "v": 63
    },
    {
      "midi": 51,
      "hit": false,
      "t": 8571.419999999998,
      "d": 2607.1402499999986,
      "v": 63
    },
    {
      "midi": 51,
      "hit": false,
      "t": 8928.5625,
      "d": 2607.1402499999986,
      "v": 100
    },
    {
      "midi": 51,
      "hit": false,
      "t": 8928.5625,
      "d": 2607.1402499999986,
      "v": 127
    },
    {
      "midi": 63,
      "hit": false,
      "t": 9285.705,
      "d": 2226.1882499999992,
      "v": 100
    },
    {
      "midi": 60,
      "hit": false,
      "t": 9285.705,
      "d": 2226.1882499999992,
      "v": 100
    },
    {
      "midi": 63,
      "hit": false,
      "t": 9285.705,
      "d": 2226.1882499999992,
      "v": 127
    },
    {
      "midi": 60,
      "hit": false,
      "t": 9285.705,
      "d": 2226.1882499999992,
      "v": 127
    },
    {
      "midi": 70,
      "hit": false,
      "t": 9642.847499999998,
      "d": 357.1424999999999,
      "v": 94
    },
    {
      "midi": 72,
      "hit": false,
      "t": 9999.989999999998,
      "d": 779.7611249999991,
      "v": 85
    },
    {
      "midi": 44,
      "hit": false,
      "t": 9999.99,
      "d": 738.0944999999992,
      "v": 100
    },
    {
      "midi": 44,
      "hit": false,
      "t": 9999.99,
      "d": 738.0944999999992,
      "v": 127
    },
    {
      "midi": 75,
      "hit": false,
      "t": 10714.274999999998,
      "d": 696.4278749999994,
      "v": 87
    },
    {
      "midi": 70,
      "hit": false,
      "t": 11428.559999999998,
      "d": 2273.80725,
      "v": 96
    },
    {
      "midi": 58,
      "hit": false,
      "t": 11428.559999999998,
      "d": 2226.1882499999992,
      "v": 63
    },
    {
      "midi": 63,
      "hit": false,
      "t": 11428.559999999998,
      "d": 2226.1882499999992,
      "v": 63
    },
    {
      "midi": 53,
      "hit": false,
      "t": 11428.559999999998,
      "d": 2607.1402499999986,
      "v": 63
    },
    {
      "midi": 43,
      "hit": false,
      "t": 11428.559999999998,
      "d": 2970.2351249999992,
      "v": 63
    },
    {
      "midi": 43,
      "hit": false,
      "t": 11428.56,
      "d": 2970.2351249999992,
      "v": 100
    },
    {
      "midi": 43,
      "hit": false,
      "t": 11428.56,
      "d": 2970.2351249999992,
      "v": 127
    },
    {
      "midi": 53,
      "hit": false,
      "t": 11785.7025,
      "d": 2607.1402499999986,
      "v": 100
    },
    {
      "midi": 53,
      "hit": false,
      "t": 11785.7025,
      "d": 2607.1402499999986,
      "v": 127
    },
    {
      "midi": 63,
      "hit": false,
      "t": 12142.845,
      "d": 2226.1882499999992,
      "v": 100
    },
    {
      "midi": 58,
      "hit": false,
      "t": 12142.845,
      "d": 2226.1882499999992,
      "v": 100
    },
    {
      "midi": 63,
      "hit": false,
      "t": 12142.845,
      "d": 2226.1882499999992,
      "v": 127
    },
    {
      "midi": 58,
      "hit": false,
      "t": 12142.845,
      "d": 2226.1882499999992,
      "v": 127
    },
    {
      "midi": 67,
      "hit": false,
      "t": 13571.414999999997,
      "d": 654.7612499999996,
      "v": 89
    },
    {
      "midi": 68,
      "hit": false,
      "t": 14285.699999999997,
      "d": 1119.0465000000004,
      "v": 90
    },
    {
      "midi": 56,
      "hit": false,
      "t": 14285.699999999997,
      "d": 2226.1882499999992,
      "v": 63
    },
    {
      "midi": 63,
      "hit": false,
      "t": 14285.699999999997,
      "d": 2226.1882499999992,
      "v": 63
    },
    {
      "midi": 48,
      "hit": false,
      "t": 14285.699999999997,
      "d": 2607.1402500000004,
      "v": 63
    },
    {
      "midi": 41,
      "hit": false,
      "t": 14285.699999999997,
      "d": 2970.2351249999992,
      "v": 63
    },
    {
      "midi": 41,
      "hit": false,
      "t": 14285.699999999999,
      "d": 2970.235125000001,
      "v": 100
    },
    {
      "midi": 41,
      "hit": false,
      "t": 14285.699999999999,
      "d": 2970.235125000001,
      "v": 127
    },
    {
      "midi": 48,
      "hit": false,
      "t": 14642.842499999999,
      "d": 2607.1402500000004,
      "v": 100
    },
    {
      "midi": 48,
      "hit": false,
      "t": 14642.842499999999,
      "d": 2607.1402500000004,
      "v": 127
    },
    {
      "midi": 63,
      "hit": false,
      "t": 14999.984999999999,
      "d": 2226.188250000001,
      "v": 100
    },
    {
      "midi": 56,
      "hit": false,
      "t": 14999.984999999999,
      "d": 2226.188250000001,
      "v": 100
    },
    {
      "midi": 63,
      "hit": false,
      "t": 14999.984999999999,
      "d": 2226.188250000001,
      "v": 127
    },
    {
      "midi": 56,
      "hit": false,
      "t": 14999.984999999999,
      "d": 2226.188250000001,
      "v": 127
    },
    {
      "midi": 67,
      "hit": false,
      "t": 15357.127499999997,
      "d": 416.6662500000002,
      "v": 115
    },
    {
      "midi": 68,
      "hit": false,
      "t": 15714.269999999997,
      "d": 434.52337500000067,
      "v": 98
    },
    {
      "midi": 75,
      "hit": false,
      "t": 16071.412499999997,
      "d": 1047.6180000000004,
      "v": 88
    },
    {
      "midi": 67,
      "hit": false,
      "t": 17142.839999999997,
      "d": 2190.4739999999983,
      "v": 85
    },
    {
      "midi": 60,
      "hit": false,
      "t": 17142.839999999997,
      "d": 2226.1882499999992,
      "v": 63
    },
    {
      "midi": 55,
      "hit": false,
      "t": 17142.839999999997,
      "d": 2226.1882499999992,
      "v": 63
    },
    {
      "midi": 51,
      "hit": false,
      "t": 17142.839999999997,
      "d": 2607.1402500000004,
      "v": 63
    },
    {
      "midi": 39,
      "hit": false,
      "t": 17142.839999999997,
      "d": 2970.2351249999992,
      "v": 63
    },
    {
      "midi": 39,
      "hit": false,
      "t": 17142.84,
      "d": 2970.2351249999992,
      "v": 100
    },
    {
      "midi": 39,
      "hit": false,
      "t": 17142.84,
      "d": 2970.2351249999992,
      "v": 127
    },
    {
      "midi": 51,
      "hit": false,
      "t": 17499.9825,
      "d": 2607.1402500000004,
      "v": 100
    },
    {
      "midi": 51,
      "hit": false,
      "t": 17499.9825,
      "d": 2607.1402500000004,
      "v": 127
    },
    {
      "midi": 55,
      "hit": false,
      "t": 17857.125,
      "d": 2226.1882499999992,
      "v": 100
    },
    {
      "midi": 60,
      "hit": false,
      "t": 17857.125,
      "d": 2226.1882499999992,
      "v": 100
    },
    {
      "midi": 55,
      "hit": false,
      "t": 17857.125,
      "d": 2226.1882499999992,
      "v": 127
    },
    {
      "midi": 60,
      "hit": false,
      "t": 17857.125,
      "d": 2226.1882499999992,
      "v": 127
    },
    {
      "midi": 75,
      "hit": false,
      "t": 19285.694999999996,
      "d": 738.0944999999992,
      "v": 85
    },
    {
      "midi": 74,
      "hit": false,
      "t": 19999.979999999996,
      "d": 1136.903624999999,
      "v": 96
    },
    {
      "midi": 60,
      "hit": false,
      "t": 19999.979999999996,
      "d": 2226.1882499999992,
      "v": 63
    },
    {
      "midi": 66,
      "hit": false,
      "t": 19999.979999999996,
      "d": 2226.1882499999992,
      "v": 63
    },
    {
      "midi": 57,
      "hit": false,
      "t": 19999.979999999996,
      "d": 2607.1402500000004,
      "v": 63
    },
    {
      "midi": 38,
      "hit": false,
      "t": 19999.979999999996,
      "d": 2970.2351249999992,
      "v": 63
    },
    {
      "midi": 38,
      "hit": false,
      "t": 19999.98,
      "d": 2970.2351249999992,
      "v": 100
    },
    {
      "midi": 38,
      "hit": false,
      "t": 19999.98,
      "d": 2970.2351249999992,
      "v": 127
    },
    {
      "midi": 57,
      "hit": false,
      "t": 20357.122499999998,
      "d": 2607.1402500000004,
      "v": 100
    },
    {
      "midi": 57,
      "hit": false,
      "t": 20357.122499999998,
      "d": 2607.1402500000004,
      "v": 127
    },
    {
      "midi": 66,
      "hit": false,
      "t": 20714.265,
      "d": 2226.1882499999992,
      "v": 100
    },
    {
      "midi": 60,
      "hit": false,
      "t": 20714.265,
      "d": 2226.1882499999992,
      "v": 100
    },
    {
      "midi": 66,
      "hit": false,
      "t": 20714.265,
      "d": 2226.1882499999992,
      "v": 127
    },
    {
      "midi": 60,
      "hit": false,
      "t": 20714.265,
      "d": 2226.1882499999992,
      "v": 127
    },
    {
      "midi": 69,
      "hit": false,
      "t": 21071.407499999994,
      "d": 279.7616250000028,
      "v": 101
    },
    {
      "midi": 69,
      "hit": false,
      "t": 21428.549999999996,
      "d": 779.7611250000009,
      "v": 102
    },
    {
      "midi": 74,
      "hit": false,
      "t": 22142.834999999995,
      "d": 654.7612499999996,
      "v": 103
    },
    {
      "midi": 67,
      "hit": false,
      "t": 22857.119999999995,
      "d": 2226.1882499999992,
      "v": 63
    },
    {
      "midi": 62,
      "hit": false,
      "t": 22857.119999999995,
      "d": 2226.1882499999992,
      "v": 63
    },
    {
      "midi": 55,
      "hit": false,
      "t": 22857.119999999995,
      "d": 2607.1402500000004,
      "v": 63
    },
    {
      "midi": 43,
      "hit": false,
      "t": 22857.119999999995,
      "d": 2970.2351249999992,
      "v": 63
    },
    {
      "midi": 43,
      "hit": false,
      "t": 22857.12,
      "d": 2970.2351249999992,
      "v": 100
    },
    {
      "midi": 43,
      "hit": false,
      "t": 22857.12,
      "d": 2970.2351249999992,
      "v": 127
    },
    {
      "midi": 55,
      "hit": false,
      "t": 23214.262499999997,
      "d": 2607.1402500000004,
      "v": 100
    },
    {
      "midi": 55,
      "hit": false,
      "t": 23214.262499999997,
      "d": 2607.1402500000004,
      "v": 127
    },
    {
      "midi": 62,
      "hit": false,
      "t": 23571.405,
      "d": 2226.1882499999992,
      "v": 100
    },
    {
      "midi": 67,
      "hit": false,
      "t": 23571.405,
      "d": 2226.1882499999992,
      "v": 100
    },
    {
      "midi": 62,
      "hit": false,
      "t": 23571.405,
      "d": 2226.1882499999992,
      "v": 127
    },
    {
      "midi": 67,
      "hit": false,
      "t": 23571.405,
      "d": 2226.1882499999992,
      "v": 127
    },
    {
      "midi": 72,
      "hit": false,
      "t": 24999.974999999995,
      "d": 452.38050000000294,
      "v": 90
    },
    {
      "midi": 74,
      "hit": false,
      "t": 25357.117499999997,
      "d": 226.19024999999965,
      "v": 105
    },
    {
      "midi": 77,
      "hit": false,
      "t": 25714.259999999995,
      "d": 130.9522500000021,
      "v": 98
    },
    {
      "midi": 60,
      "hit": false,
      "t": 25714.259999999995,
      "d": 2226.1882499999992,
      "v": 63
    },
    {
      "midi": 63,
      "hit": false,
      "t": 25714.259999999995,
      "d": 2226.1882499999992,
      "v": 63
    },
    {
      "midi": 55,
      "hit": false,
      "t": 25714.259999999995,
      "d": 2607.1402500000004,
      "v": 63
    },
    {
      "midi": 48,
      "hit": false,
      "t": 25714.259999999995,
      "d": 2970.2351249999992,
      "v": 63
    },
    {
      "midi": 48,
      "hit": false,
      "t": 25714.26,
      "d": 2970.2351249999992,
      "v": 100
    },
    {
      "midi": 48,
      "hit": false,
      "t": 25714.26,
      "d": 2970.2351249999992,
      "v": 127
    },
    {
      "midi": 75,
      "hit": false,
      "t": 25773.783749999995,
      "d": 1154.7607500000013,
      "v": 95
    },
    {
      "midi": 55,
      "hit": false,
      "t": 26071.402499999997,
      "d": 2607.1402500000004,
      "v": 100
    },
    {
      "midi": 55,
      "hit": false,
      "t": 26071.402499999997,
      "d": 2607.1402500000004,
      "v": 127
    },
    {
      "midi": 63,
      "hit": false,
      "t": 26428.545,
      "d": 2226.1882499999992,
      "v": 100
    },
    {
      "midi": 60,
      "hit": false,
      "t": 26428.545,
      "d": 2226.1882499999992,
      "v": 100
    },
    {
      "midi": 63,
      "hit": false,
      "t": 26428.545,
      "d": 2226.1882499999992,
      "v": 127
    },
    {
      "midi": 60,
      "hit": false,
      "t": 26428.545,
      "d": 2226.1882499999992,
      "v": 127
    },
    {
      "midi": 74,
      "hit": false,
      "t": 26785.687499999996,
      "d": 380.95200000000114,
      "v": 86
    },
    {
      "midi": 75,
      "hit": false,
      "t": 27142.829999999998,
      "d": 732.1421249999985,
      "v": 103
    },
    {
      "midi": 79,
      "hit": false,
      "t": 27857.114999999998,
      "d": 708.3326249999991,
      "v": 109
    },
    {
      "midi": 62,
      "hit": false,
      "t": 28571.399999999994,
      "d": 2226.1882499999992,
      "v": 63
    },
    {
      "midi": 67,
      "hit": false,
      "t": 28571.399999999994,
      "d": 2226.1882499999992,
      "v": 63
    },
    {
      "midi": 55,
      "hit": false,
      "t": 28571.399999999994,
      "d": 2607.1402500000004,
      "v": 63
    },
    {
      "midi": 46,
      "hit": false,
      "t": 28571.399999999994,
      "d": 2970.2351249999992,
      "v": 63
    },
    {
      "midi": 74,
      "hit": false,
      "t": 28571.399999999998,
      "d": 1767.8553749999992,
      "v": 109
    },
    {
      "midi": 46,
      "hit": false,
      "t": 28571.399999999998,
      "d": 2970.2351249999992,
      "v": 100
    },
    {
      "midi": 46,
      "hit": false,
      "t": 28571.399999999998,
      "d": 2970.2351249999992,
      "v": 127
    },
    {
      "midi": 55,
      "hit": false,
      "t": 28928.542499999996,
      "d": 2607.1402500000004,
      "v": 100
    },
    {
      "midi": 55,
      "hit": false,
      "t": 28928.542499999996,
      "d": 2607.1402500000004,
      "v": 127
    },
    {
      "midi": 67,
      "hit": false,
      "t": 29285.684999999998,
      "d": 2226.1882499999992,
      "v": 100
    },
    {
      "midi": 62,
      "hit": false,
      "t": 29285.684999999998,
      "d": 2226.1882499999992,
      "v": 100
    },
    {
      "midi": 67,
      "hit": false,
      "t": 29285.684999999998,
      "d": 2226.1882499999992,
      "v": 127
    },
    {
      "midi": 62,
      "hit": false,
      "t": 29285.684999999998,
      "d": 2226.1882499999992,
      "v": 127
    },
    {
      "midi": 67,
      "hit": false,
      "t": 30714.254999999997,
      "d": 238.09500000000116,
      "v": 101
    },
    {
      "midi": 68,
      "hit": false,
      "t": 30857.111999999997,
      "d": 238.09500000000116,
      "v": 94
    },
    {
      "midi": 67,
      "hit": false,
      "t": 30999.968999999997,
      "d": 244.04737499999828,
      "v": 112
    },
    {
      "midi": 66,
      "hit": false,
      "t": 31142.825999999997,
      "d": 238.09500000000116,
      "v": 107
    },
    {
      "midi": 67,
      "hit": false,
      "t": 31285.682999999997,
      "d": 577.3803750000006,
      "v": 114
    },
    {
      "midi": 44,
      "hit": false,
      "t": 31428.539999999994,
      "d": 2226.1882499999992,
      "v": 63
    },
    {
      "midi": 63,
      "hit": false,
      "t": 31428.539999999994,
      "d": 2226.1882499999992,
      "v": 63
    },
    {
      "midi": 60,
      "hit": false,
      "t": 31428.539999999994,
      "d": 2226.1882499999992,
      "v": 63
    },
    {
      "midi": 55,
      "hit": false,
      "t": 31428.539999999994,
      "d": 2226.1882499999992,
      "v": 63
    },
    {
      "midi": 51,
      "hit": false,
      "t": 31428.539999999994,
      "d": 2607.1402499999967,
      "v": 63
    },
    {
      "midi": 72,
      "hit": false,
      "t": 31428.539999999997,
      "d": 1226.189250000003,
      "v": 113
    },
    {
      "midi": 51,
      "hit": false,
      "t": 31785.682499999995,
      "d": 2607.1402500000113,
      "v": 100
    },
    {
      "midi": 51,
      "hit": false,
      "t": 31785.682499999995,
      "d": 2607.1402500000113,
      "v": 127
    },
    {
      "midi": 55,
      "hit": false,
      "t": 32142.824999999997,
      "d": 2226.1882500000065,
      "v": 100
    },
    {
      "midi": 60,
      "hit": false,
      "t": 32142.824999999997,
      "d": 2226.1882500000065,
      "v": 100
    },
    {
      "midi": 63,
      "hit": false,
      "t": 32142.824999999997,
      "d": 2226.1882500000065,
      "v": 100
    },
    {
      "midi": 55,
      "hit": false,
      "t": 32142.824999999997,
      "d": 2226.1882500000065,
      "v": 127
    },
    {
      "midi": 60,
      "hit": false,
      "t": 32142.824999999997,
      "d": 2226.1882500000065,
      "v": 127
    },
    {
      "midi": 63,
      "hit": false,
      "t": 32142.824999999997,
      "d": 2226.1882500000065,
      "v": 127
    },
    {
      "midi": 70,
      "hit": false,
      "t": 32499.9675,
      "d": 374.999625000004,
      "v": 101
    },
    {
      "midi": 72,
      "hit": false,
      "t": 32857.11,
      "d": 672.6183750000055,
      "v": 89
    },
    {
      "midi": 44,
      "hit": false,
      "t": 32857.11,
      "d": 1541.6651250000068,
      "v": 100
    },
    {
      "midi": 44,
      "hit": false,
      "t": 32857.11,
      "d": 1541.6651250000068,
      "v": 127
    },
    {
      "midi": 75,
      "hit": false,
      "t": 33571.395000000004,
      "d": 755.9516250000015,
      "v": 99
    },
    {
      "midi": 55,
      "hit": false,
      "t": 34285.67999999999,
      "d": 2226.1882499999992,
      "v": 63
    },
    {
      "midi": 58,
      "hit": false,
      "t": 34285.67999999999,
      "d": 2226.1882499999992,
      "v": 63
    },
    {
      "midi": 63,
      "hit": false,
      "t": 34285.67999999999,
      "d": 2226.1882499999992,
      "v": 63
    },
    {
      "midi": 53,
      "hit": false,
      "t": 34285.67999999999,
      "d": 2607.1402499999967,
      "v": 63
    },
    {
      "midi": 43,
      "hit": false,
      "t": 34285.67999999999,
      "d": 2970.2351249999992,
      "v": 63
    },
    {
      "midi": 43,
      "hit": false,
      "t": 34285.68,
      "d": 2970.235125000021,
      "v": 100
    },
    {
      "midi": 43,
      "hit": false,
      "t": 34285.68,
      "d": 2970.235125000021,
      "v": 127
    },
    {
      "midi": 70,
      "hit": false,
      "t": 34285.68000000001,
      "d": 2041.6646249999976,
      "v": 92
    },
    {
      "midi": 53,
      "hit": false,
      "t": 34642.82250000001,
      "d": 2607.1402500000113,
      "v": 100
    },
    {
      "midi": 53,
      "hit": false,
      "t": 34642.82250000001,
      "d": 2607.1402500000113,
      "v": 127
    },
    {
      "midi": 63,
      "hit": false,
      "t": 34999.96500000001,
      "d": 2226.1882500000065,
      "v": 100
    },
    {
      "midi": 58,
      "hit": false,
      "t": 34999.96500000001,
      "d": 2226.1882500000065,
      "v": 100
    },
    {
      "midi": 55,
      "hit": false,
      "t": 34999.96500000001,
      "d": 2226.1882500000065,
      "v": 100
    },
    {
      "midi": 63,
      "hit": false,
      "t": 34999.96500000001,
      "d": 2226.1882500000065,
      "v": 127
    },
    {
      "midi": 58,
      "hit": false,
      "t": 34999.96500000001,
      "d": 2226.1882500000065,
      "v": 127
    },
    {
      "midi": 55,
      "hit": false,
      "t": 34999.96500000001,
      "d": 2226.1882500000065,
      "v": 127
    },
    {
      "midi": 67,
      "hit": false,
      "t": 36428.535,
      "d": 797.6182500000068,
      "v": 111
    },
    {
      "midi": 56,
      "hit": false,
      "t": 37142.81999999999,
      "d": 2226.1882499999992,
      "v": 63
    },
    {
      "midi": 63,
      "hit": false,
      "t": 37142.81999999999,
      "d": 2226.1882499999992,
      "v": 63
    },
    {
      "midi": 60,
      "hit": false,
      "t": 37142.81999999999,
      "d": 2226.1882499999992,
      "v": 63
    },
    {
      "midi": 48,
      "hit": false,
      "t": 37142.81999999999,
      "d": 2607.1402499999967,
      "v": 63
    },
    {
      "midi": 41,
      "hit": false,
      "t": 37142.81999999999,
      "d": 2970.2351249999992,
      "v": 63
    },
    {
      "midi": 68,
      "hit": false,
      "t": 37142.82000000001,
      "d": 761.9040000000023,
      "v": 91
    },
    {
      "midi": 41,
      "hit": false,
      "t": 37142.820000000014,
      "d": 2970.235125000021,
      "v": 100
    },
    {
      "midi": 41,
      "hit": false,
      "t": 37142.820000000014,
      "d": 2970.235125000021,
      "v": 127
    },
    {
      "midi": 48,
      "hit": false,
      "t": 37499.96250000002,
      "d": 2607.1402500000113,
      "v": 100
    },
    {
      "midi": 48,
      "hit": false,
      "t": 37499.96250000002,
      "d": 2607.1402500000113,
      "v": 127
    },
    {
      "midi": 75,
      "hit": false,
      "t": 37857.10500000001,
      "d": 410.7138750000013,
      "v": 109
    },
    {
      "midi": 60,
      "hit": false,
      "t": 37857.105000000025,
      "d": 2226.1882500000065,
      "v": 100
    },
    {
      "midi": 63,
      "hit": false,
      "t": 37857.105000000025,
      "d": 2226.1882500000065,
      "v": 100
    },
    {
      "midi": 56,
      "hit": false,
      "t": 37857.105000000025,
      "d": 2226.1882500000065,
      "v": 100
    },
    {
      "midi": 60,
      "hit": false,
      "t": 37857.105000000025,
      "d": 2226.1882500000065,
      "v": 127
    },
    {
      "midi": 63,
      "hit": false,
      "t": 37857.105000000025,
      "d": 2226.1882500000065,
      "v": 127
    },
    {
      "midi": 56,
      "hit": false,
      "t": 37857.105000000025,
      "d": 2226.1882500000065,
      "v": 127
    },
    {
      "midi": 74,
      "hit": false,
      "t": 38214.24750000001,
      "d": 1017.8561249999984,
      "v": 111
    },
    {
      "midi": 75,
      "hit": false,
      "t": 39285.67500000001,
      "d": 803.5706250000003,
      "v": 115
    },
    {
      "midi": 60,
      "hit": false,
      "t": 39999.95999999999,
      "d": 2226.1882499999992,
      "v": 63
    },
    {
      "midi": 63,
      "hit": false,
      "t": 39999.95999999999,
      "d": 2226.1882499999992,
      "v": 63
    },
    {
      "midi": 55,
      "hit": false,
      "t": 39999.95999999999,
      "d": 2607.1402499999967,
      "v": 63
    },
    {
      "midi": 36,
      "hit": false,
      "t": 39999.95999999999,
      "d": 2970.2351249999992,
      "v": 63
    },
    {
      "midi": 77,
      "hit": false,
      "t": 39999.960000000014,
      "d": 619.0469999999987,
      "v": 115
    },
    {
      "midi": 36,
      "hit": false,
      "t": 39999.96000000003,
      "d": 2970.235125000021,
      "v": 100
    },
    {
      "midi": 36,
      "hit": false,
      "t": 39999.96000000003,
      "d": 2970.235125000021,
      "v": 127
    },
    {
      "midi": 55,
      "hit": false,
      "t": 40357.10250000004,
      "d": 2607.1402500000113,
      "v": 100
    },
    {
      "midi": 55,
      "hit": false,
      "t": 40357.10250000004,
      "d": 2607.1402500000113,
      "v": 127
    },
    {
      "midi": 79,
      "hit": false,
      "t": 40714.24500000001,
      "d": 422.6186250000028,
      "v": 103
    },
    {
      "midi": 63,
      "hit": false,
      "t": 40714.24500000004,
      "d": 2226.1882500000065,
      "v": 100
    },
    {
      "midi": 60,
      "hit": false,
      "t": 40714.24500000004,
      "d": 2226.1882500000065,
      "v": 100
    },
    {
      "midi": 63,
      "hit": false,
      "t": 40714.24500000004,
      "d": 2226.1882500000065,
      "v": 127
    },
    {
      "midi": 60,
      "hit": false,
      "t": 40714.24500000004,
      "d": 2226.1882500000065,
      "v": 127
    },
    {
      "midi": 75,
      "hit": false,
      "t": 41071.38750000001,
      "d": 1499.9985000000015,
      "v": 97
    },
    {
      "midi": 59,
      "hit": false,
      "t": 42857.09999999999,
      "d": 738.0944999999992,
      "v": 63
    },
    {
      "midi": 62,
      "hit": false,
      "t": 42857.09999999999,
      "d": 738.0944999999992,
      "v": 63
    },
    {
      "midi": 50,
      "hit": false,
      "t": 42857.09999999999,
      "d": 1071.427499999998,
      "v": 63
    },
    {
      "midi": 43,
      "hit": false,
      "t": 42857.09999999999,
      "d": 1482.1413749999992,
      "v": 63
    },
    {
      "midi": 63,
      "hit": false,
      "t": 42857.09999999999,
      "d": 2226.1882499999992,
      "v": 63
    },
    {
      "midi": 56,
      "hit": false,
      "t": 42857.09999999999,
      "d": 2226.1882499999992,
      "v": 63
    },
    {
      "midi": 60,
      "hit": false,
      "t": 42857.09999999999,
      "d": 2226.1882499999992,
      "v": 63
    },
    {
      "midi": 53,
      "hit": false,
      "t": 42857.09999999999,
      "d": 2607.1402499999967,
      "v": 63
    },
    {
      "midi": 41,
      "hit": false,
      "t": 42857.09999999999,
      "d": 2970.2351249999992,
      "v": 63
    },
    {
      "midi": 75,
      "hit": false,
      "t": 42857.10000000001,
      "d": 410.7138750000013,
      "v": 93
    },
    {
      "midi": 41,
      "hit": false,
      "t": 42857.10000000004,
      "d": 2970.235125000021,
      "v": 100
    },
    {
      "midi": 41,
      "hit": false,
      "t": 42857.10000000004,
      "d": 2970.235125000021,
      "v": 127
    },
    {
      "midi": 74,
      "hit": false,
      "t": 43214.242500000015,
      "d": 374.999625000004,
      "v": 94
    },
    {
      "midi": 53,
      "hit": false,
      "t": 43214.24250000005,
      "d": 2607.1402500000113,
      "v": 100
    },
    {
      "midi": 53,
      "hit": false,
      "t": 43214.24250000005,
      "d": 2607.1402500000113,
      "v": 127
    },
    {
      "midi": 72,
      "hit": false,
      "t": 43571.38500000002,
      "d": 732.1421250000058,
      "v": 111
    },
    {
      "midi": 60,
      "hit": false,
      "t": 43571.38500000005,
      "d": 2226.1882500000065,
      "v": 100
    },
    {
      "midi": 56,
      "hit": false,
      "t": 43571.38500000005,
      "d": 2226.1882500000065,
      "v": 100
    },
    {
      "midi": 63,
      "hit": false,
      "t": 43571.38500000005,
      "d": 2226.1882500000065,
      "v": 100
    },
    {
      "midi": 60,
      "hit": false,
      "t": 43571.38500000005,
      "d": 2226.1882500000065,
      "v": 127
    },
    {
      "midi": 56,
      "hit": false,
      "t": 43571.38500000005,
      "d": 2226.1882500000065,
      "v": 127
    },
    {
      "midi": 63,
      "hit": false,
      "t": 43571.38500000005,
      "d": 2226.1882500000065,
      "v": 127
    },
    {
      "midi": 74,
      "hit": false,
      "t": 44285.67000000002,
      "d": 797.6182500000068,
      "v": 85
    },
    {
      "midi": 43,
      "hit": false,
      "t": 44285.67000000006,
      "d": 1482.1413750000065,
      "v": 100
    },
    {
      "midi": 43,
      "hit": false,
      "t": 44285.67000000006,
      "d": 1482.1413750000065,
      "v": 127
    },
    {
      "midi": 50,
      "hit": false,
      "t": 44642.81250000006,
      "d": 1071.4275000000052,
      "v": 100
    },
    {
      "midi": 50,
      "hit": false,
      "t": 44642.81250000006,
      "d": 1071.4275000000052,
      "v": 127
    },
    {
      "midi": 71,
      "hit": false,
      "t": 44999.95500000002,
      "d": 803.5706250000003,
      "v": 96
    },
    {
      "midi": 59,
      "hit": false,
      "t": 44999.95500000006,
      "d": 738.0945000000065,
      "v": 100
    },
    {
      "midi": 62,
      "hit": false,
      "t": 44999.95500000006,
      "d": 738.0945000000065,
      "v": 100
    },
    {
      "midi": 59,
      "hit": false,
      "t": 44999.95500000006,
      "d": 738.0945000000065,
      "v": 127
    },
    {
      "midi": 62,
      "hit": false,
      "t": 44999.95500000006,
      "d": 738.0945000000065,
      "v": 127
    },
    {
      "midi": 60,
      "hit": false,
      "t": 45714.23999999999,
      "d": 2226.1882499999992,
      "v": 63
    },
    {
      "midi": 63,
      "hit": false,
      "t": 45714.23999999999,
      "d": 2226.1882499999992,
      "v": 63
    },
    {
      "midi": 55,
      "hit": false,
      "t": 45714.23999999999,
      "d": 2607.1402499999967,
      "v": 63
    },
    {
      "midi": 48,
      "hit": false,
      "t": 45714.23999999999,
      "d": 2970.2351249999992,
      "v": 63
    },
    {
      "midi": 72,
      "hit": false,
      "t": 45714.24000000003,
      "d": 1541.6651249999995,
      "v": 87
    },
    {
      "midi": 48,
      "hit": false,
      "t": 45714.24000000006,
      "d": 2970.235125000014,
      "v": 100
    },
    {
      "midi": 48,
      "hit": false,
      "t": 45714.24000000006,
      "d": 2970.235125000014,
      "v": 127
    },
    {
      "midi": 55,
      "hit": false,
      "t": 46071.382500000065,
      "d": 2607.1402500000113,
      "v": 100
    },
    {
      "midi": 55,
      "hit": false,
      "t": 46071.382500000065,
      "d": 2607.1402500000113,
      "v": 127
    },
    {
      "midi": 63,
      "hit": false,
      "t": 46428.52500000007,
      "d": 2226.1882500000065,
      "v": 100
    },
    {
      "midi": 60,
      "hit": false,
      "t": 46428.52500000007,
      "d": 2226.1882500000065,
      "v": 100
    },
    {
      "midi": 63,
      "hit": false,
      "t": 46428.52500000007,
      "d": 2226.1882500000065,
      "v": 127
    },
    {
      "midi": 60,
      "hit": false,
      "t": 46428.52500000007,
      "d": 2226.1882500000065,
      "v": 127
    },
    {
      "midi": 75,
      "hit": false,
      "t": 47857.09500000002,
      "d": 345.23775000000023,
      "v": 105
    },
    {
      "midi": 77,
      "hit": false,
      "t": 48214.237500000025,
      "d": 404.7615000000005,
      "v": 86
    },
    {
      "midi": 63,
      "hit": false,
      "t": 48571.37999999999,
      "d": 2226.1882499999992,
      "v": 63
    },
    {
      "midi": 67,
      "hit": false,
      "t": 48571.37999999999,
      "d": 2226.1882499999992,
      "v": 63
    },
    {
      "midi": 58,
      "hit": false,
      "t": 48571.37999999999,
      "d": 2607.1402499999967,
      "v": 63
    },
    {
      "midi": 51,
      "hit": false,
      "t": 48571.37999999999,
      "d": 2970.2351249999992,
      "v": 63
    },
    {
      "midi": 79,
      "hit": false,
      "t": 48571.38000000003,
      "d": 1124.9988749999975,
      "v": 85
    },
    {
      "midi": 51,
      "hit": false,
      "t": 48571.38000000007,
      "d": 2970.235125000021,
      "v": 100
    },
    {
      "midi": 51,
      "hit": false,
      "t": 48571.38000000007,
      "d": 2970.235125000021,
      "v": 127
    },
    {
      "midi": 58,
      "hit": false,
      "t": 48928.52250000008,
      "d": 2607.1402500000113,
      "v": 100
    },
    {
      "midi": 58,
      "hit": false,
      "t": 48928.52250000008,
      "d": 2607.1402500000113,
      "v": 127
    },
    {
      "midi": 67,
      "hit": false,
      "t": 49285.66500000008,
      "d": 2226.1882500000065,
      "v": 100
    },
    {
      "midi": 63,
      "hit": false,
      "t": 49285.66500000008,
      "d": 2226.1882500000065,
      "v": 100
    },
    {
      "midi": 67,
      "hit": false,
      "t": 49285.66500000008,
      "d": 2226.1882500000065,
      "v": 127
    },
    {
      "midi": 63,
      "hit": false,
      "t": 49285.66500000008,
      "d": 2226.1882500000065,
      "v": 127
    },
    {
      "midi": 77,
      "hit": false,
      "t": 49642.807500000024,
      "d": 410.7138750000013,
      "v": 113
    },
    {
      "midi": 79,
      "hit": false,
      "t": 49999.950000000026,
      "d": 517.8566250000003,
      "v": 93
    },
    {
      "midi": 80,
      "hit": false,
      "t": 50535.66375000003,
      "d": 547.6185000000041,
      "v": 93
    },
    {
      "midi": 82,
      "hit": false,
      "t": 51071.37750000003,
      "d": 422.6186250000028,
      "v": 103
    },
    {
      "midi": 62,
      "hit": false,
      "t": 51428.51999999999,
      "d": 2226.1882499999992,
      "v": 63
    },
    {
      "midi": 65,
      "hit": false,
      "t": 51428.51999999999,
      "d": 2226.1882499999992,
      "v": 63
    },
    {
      "midi": 58,
      "hit": false,
      "t": 51428.51999999999,
      "d": 2607.1402499999967,
      "v": 63
    },
    {
      "midi": 50,
      "hit": false,
      "t": 51428.51999999999,
      "d": 2970.2351249999992,
      "v": 63
    },
    {
      "midi": 77,
      "hit": false,
      "t": 51428.52000000003,
      "d": 2017.8551250000019,
      "v": 106
    },
    {
      "midi": 50,
      "hit": false,
      "t": 51428.520000000084,
      "d": 2970.235125000021,
      "v": 100
    },
    {
      "midi": 50,
      "hit": false,
      "t": 51428.520000000084,
      "d": 2970.235125000021,
      "v": 127
    },
    {
      "midi": 58,
      "hit": false,
      "t": 51785.66250000009,
      "d": 2607.1402500000113,
      "v": 100
    },
    {
      "midi": 58,
      "hit": false,
      "t": 51785.66250000009,
      "d": 2607.1402500000113,
      "v": 127
    },
    {
      "midi": 65,
      "hit": false,
      "t": 52142.805000000095,
      "d": 2226.1882500000065,
      "v": 100
    },
    {
      "midi": 62,
      "hit": false,
      "t": 52142.805000000095,
      "d": 2226.1882500000065,
      "v": 100
    },
    {
      "midi": 65,
      "hit": false,
      "t": 52142.805000000095,
      "d": 2226.1882500000065,
      "v": 127
    },
    {
      "midi": 62,
      "hit": false,
      "t": 52142.805000000095,
      "d": 2226.1882500000065,
      "v": 127
    },
    {
      "midi": 70,
      "hit": false,
      "t": 53571.37500000004,
      "d": 642.8565000000017,
      "v": 110
    },
    {
      "midi": 60,
      "hit": false,
      "t": 54285.65999999999,
      "d": 2226.1882499999992,
      "v": 63
    },
    {
      "midi": 63,
      "hit": false,
      "t": 54285.65999999999,
      "d": 2226.1882499999992,
      "v": 63
    },
    {
      "midi": 55,
      "hit": false,
      "t": 54285.65999999999,
      "d": 2607.1402499999967,
      "v": 63
    },
    {
      "midi": 48,
      "hit": false,
      "t": 54285.65999999999,
      "d": 2970.2351249999992,
      "v": 63
    },
    {
      "midi": 77,
      "hit": false,
      "t": 54285.66000000004,
      "d": 369.04725000000326,
      "v": 107
    },
    {
      "midi": 48,
      "hit": false,
      "t": 54285.6600000001,
      "d": 2970.235125000021,
      "v": 100
    },
    {
      "midi": 48,
      "hit": false,
      "t": 54285.6600000001,
      "d": 2970.235125000021,
      "v": 127
    },
    {
      "midi": 55,
      "hit": false,
      "t": 54642.80250000011,
      "d": 2607.1402500000113,
      "v": 100
    },
    {
      "midi": 55,
      "hit": false,
      "t": 54642.80250000011,
      "d": 2607.1402500000113,
      "v": 127
    },
    {
      "midi": 74,
      "hit": false,
      "t": 54761.85000000004,
      "d": 928.5705000000016,
      "v": 91
    },
    {
      "midi": 75,
      "hit": false,
      "t": 54999.94500000004,
      "d": 452.3804999999993,
      "v": 108
    },
    {
      "midi": 63,
      "hit": false,
      "t": 54999.94500000011,
      "d": 2226.1882500000065,
      "v": 100
    },
    {
      "midi": 60,
      "hit": false,
      "t": 54999.94500000011,
      "d": 2226.1882500000065,
      "v": 100
    },
    {
      "midi": 63,
      "hit": false,
      "t": 54999.94500000011,
      "d": 2226.1882500000065,
      "v": 127
    },
    {
      "midi": 60,
      "hit": false,
      "t": 54999.94500000011,
      "d": 2226.1882500000065,
      "v": 127
    },
    {
      "midi": 77,
      "hit": false,
      "t": 56071.37250000004,
      "d": 601.1898750000037,
      "v": 99
    },
    {
      "midi": 79,
      "hit": false,
      "t": 56785.657500000045,
      "d": 291.6663750000007,
      "v": 99
    },
    {
      "midi": 62,
      "hit": false,
      "t": 57142.79999999999,
      "d": 2226.1882499999992,
      "v": 63
    },
    {
      "midi": 67,
      "hit": false,
      "t": 57142.79999999999,
      "d": 2226.1882499999992,
      "v": 63
    },
    {
      "midi": 55,
      "hit": false,
      "t": 57142.79999999999,
      "d": 2607.1402499999967,
      "v": 63
    },
    {
      "midi": 79,
      "hit": false,
      "t": 57142.80000000005,
      "d": 2660.7116249999963,
      "v": 114
    },
    {
      "midi": 46,
      "hit": false,
      "t": 57142.80000000011,
      "d": 2970.235125000021,
      "v": 100
    },
    {
      "midi": 46,
      "hit": false,
      "t": 57142.80000000011,
      "d": 2970.235125000021,
      "v": 127
    },
    {
      "midi": 55,
      "hit": false,
      "t": 57499.94250000012,
      "d": 2607.1402500000113,
      "v": 100
    },
    {
      "midi": 55,
      "hit": false,
      "t": 57499.94250000012,
      "d": 2607.1402500000113,
      "v": 127
    },
    {
      "midi": 67,
      "hit": false,
      "t": 57857.08500000012,
      "d": 2226.1882500000065,
      "v": 100
    },
    {
      "midi": 62,
      "hit": false,
      "t": 57857.08500000012,
      "d": 2226.1882500000065,
      "v": 100
    },
    {
      "midi": 67,
      "hit": false,
      "t": 57857.08500000012,
      "d": 2226.1882500000065,
      "v": 127
    },
    {
      "midi": 62,
      "hit": false,
      "t": 57857.08500000012,
      "d": 2226.1882500000065,
      "v": 127
    },
    {
      "midi": 46,
      "hit": false,
      "t": 59999.93999999999,
      "d": 113.09512499999983,
      "v": 63
    },
    {
      "midi": 58,
      "hit": false,
      "t": 59999.93999999999,
      "d": 738.0944999999992,
      "v": 63
    },
    {
      "midi": 62,
      "hit": false,
      "t": 59999.93999999999,
      "d": 738.0944999999992,
      "v": 63
    },
    {
      "midi": 53,
      "hit": false,
      "t": 59999.93999999999,
      "d": 1071.427499999998,
      "v": 63
    },
    {
      "midi": 60,
      "hit": false,
      "t": 59999.93999999999,
      "d": 2226.1882499999992,
      "v": 63
    },
    {
      "midi": 56,
      "hit": false,
      "t": 59999.93999999999,
      "d": 2226.1882499999992,
      "v": 63
    },
    {
      "midi": 51,
      "hit": false,
      "t": 59999.93999999999,
      "d": 2607.1402499999967,
      "v": 63
    },
    {
      "midi": 44,
      "hit": false,
      "t": 59999.93999999999,
      "d": 2970.2351249999992,
      "v": 63
    },
    {
      "midi": 72,
      "hit": false,
      "t": 59999.940000000046,
      "d": 345.23775000000023,
      "v": 108
    },
    {
      "midi": 44,
      "hit": false,
      "t": 59999.940000000126,
      "d": 2970.235125000021,
      "v": 100
    },
    {
      "midi": 44,
      "hit": false,
      "t": 59999.940000000126,
      "d": 2970.235125000021,
      "v": 127
    },
    {
      "midi": 74,
      "hit": false,
      "t": 60357.08250000005,
      "d": 374.999625000004,
      "v": 88
    },
    {
      "midi": 51,
      "hit": false,
      "t": 60357.082500000135,
      "d": 2607.1402500000113,
      "v": 100
    },
    {
      "midi": 51,
      "hit": false,
      "t": 60357.082500000135,
      "d": 2607.1402500000113,
      "v": 127
    },
    {
      "midi": 75,
      "hit": false,
      "t": 60714.22500000005,
      "d": 666.6660000000047,
      "v": 103
    },
    {
      "midi": 56,
      "hit": false,
      "t": 60714.22500000014,
      "d": 2226.1882500000065,
      "v": 100
    },
    {
      "midi": 60,
      "hit": false,
      "t": 60714.22500000014,
      "d": 2226.1882500000065,
      "v": 100
    },
    {
      "midi": 56,
      "hit": false,
      "t": 60714.22500000014,
      "d": 2226.1882500000065,
      "v": 127
    },
    {
      "midi": 60,
      "hit": false,
      "t": 60714.22500000014,
      "d": 2226.1882500000065,
      "v": 127
    },
    {
      "midi": 74,
      "hit": false,
      "t": 61428.51000000005,
      "d": 315.47587499999645,
      "v": 96
    },
    {
      "midi": 46,
      "hit": false,
      "t": 61428.51000000014,
      "d": 1482.1413750000065,
      "v": 100
    },
    {
      "midi": 46,
      "hit": false,
      "t": 61428.51000000014,
      "d": 1482.1413750000065,
      "v": 127
    },
    {
      "midi": 75,
      "hit": false,
      "t": 61785.65250000005,
      "d": 410.7138750000013,
      "v": 107
    },
    {
      "midi": 53,
      "hit": false,
      "t": 61785.65250000014,
      "d": 1071.4275000000052,
      "v": 100
    },
    {
      "midi": 53,
      "hit": false,
      "t": 61785.65250000014,
      "d": 1071.4275000000052,
      "v": 127
    },
    {
      "midi": 77,
      "hit": false,
      "t": 62142.79500000005,
      "d": 702.380250000002,
      "v": 103
    },
    {
      "midi": 58,
      "hit": false,
      "t": 62142.795000000144,
      "d": 738.0945000000065,
      "v": 100
    },
    {
      "midi": 62,
      "hit": false,
      "t": 62142.795000000144,
      "d": 738.0945000000065,
      "v": 100
    },
    {
      "midi": 58,
      "hit": false,
      "t": 62142.795000000144,
      "d": 738.0945000000065,
      "v": 127
    },
    {
      "midi": 62,
      "hit": false,
      "t": 62142.795000000144,
      "d": 738.0945000000065,
      "v": 127
    },
    {
      "midi": 58,
      "hit": false,
      "t": 62857.07999999999,
      "d": 2226.1882499999992,
      "v": 63
    },
    {
      "midi": 63,
      "hit": false,
      "t": 62857.07999999999,
      "d": 2226.1882499999992,
      "v": 63
    },
    {
      "midi": 51,
      "hit": false,
      "t": 62857.07999999999,
      "d": 2607.1402499999967,
      "v": 63
    },
    {
      "midi": 43,
      "hit": false,
      "t": 62857.07999999999,
      "d": 2970.2351250000065,
      "v": 63
    },
    {
      "midi": 75,
      "hit": false,
      "t": 62857.08000000005,
      "d": 1190.4749999999985,
      "v": 102
    },
    {
      "midi": 43,
      "hit": false,
      "t": 62857.08000000015,
      "d": 2970.235124999992,
      "v": 100
    },
    {
      "midi": 43,
      "hit": false,
      "t": 62857.08000000015,
      "d": 2970.235124999992,
      "v": 127
    },
    {
      "midi": 51,
      "hit": false,
      "t": 63214.22250000015,
      "d": 2607.1402499999967,
      "v": 100
    },
    {
      "midi": 51,
      "hit": false,
      "t": 63214.22250000015,
      "d": 2607.1402499999967,
      "v": 127
    },
    {
      "midi": 58,
      "hit": false,
      "t": 63571.36500000015,
      "d": 2226.188249999992,
      "v": 100
    },
    {
      "midi": 63,
      "hit": false,
      "t": 63571.36500000015,
      "d": 2226.188249999992,
      "v": 100
    },
    {
      "midi": 58,
      "hit": false,
      "t": 63571.36500000015,
      "d": 2226.188249999992,
      "v": 127
    },
    {
      "midi": 63,
      "hit": false,
      "t": 63571.36500000015,
      "d": 2226.188249999992,
      "v": 127
    },
    {
      "midi": 70,
      "hit": false,
      "t": 63928.50750000005,
      "d": 291.6663750000007,
      "v": 96
    },
    {
      "midi": 70,
      "hit": false,
      "t": 64285.65000000005,
      "d": 1440.4747500000085,
      "v": 89
    },
    {
      "midi": 56,
      "hit": false,
      "t": 65714.21999999999,
      "d": 2226.1882500000065,
      "v": 63
    },
    {
      "midi": 63,
      "hit": false,
      "t": 65714.21999999999,
      "d": 2226.1882500000065,
      "v": 63
    },
    {
      "midi": 53,
      "hit": false,
      "t": 65714.21999999999,
      "d": 2607.1402500000113,
      "v": 63
    },
    {
      "midi": 41,
      "hit": false,
      "t": 65714.21999999999,
      "d": 2970.235125000021,
      "v": 63
    },
    {
      "midi": 80,
      "hit": false,
      "t": 65714.22000000006,
      "d": 1190.4750000000058,
      "v": 91
    },
    {
      "midi": 41,
      "hit": false,
      "t": 65714.22000000015,
      "d": 2970.2351249999774,
      "v": 100
    },
    {
      "midi": 41,
      "hit": false,
      "t": 65714.22000000015,
      "d": 2970.2351249999774,
      "v": 127
    },
    {
      "midi": 53,
      "hit": false,
      "t": 66071.36250000013,
      "d": 2607.1402499999967,
      "v": 100
    },
    {
      "midi": 53,
      "hit": false,
      "t": 66071.36250000013,
      "d": 2607.1402499999967,
      "v": 127
    },
    {
      "midi": 79,
      "hit": false,
      "t": 66428.50500000006,
      "d": 696.4278750000085,
      "v": 98
    },
    {
      "midi": 56,
      "hit": false,
      "t": 66428.50500000014,
      "d": 2226.188249999992,
      "v": 100
    },
    {
      "midi": 63,
      "hit": false,
      "t": 66428.50500000014,
      "d": 2226.188249999992,
      "v": 100
    },
    {
      "midi": 56,
      "hit": false,
      "t": 66428.50500000014,
      "d": 2226.188249999992,
      "v": 127
    },
    {
      "midi": 63,
      "hit": false,
      "t": 66428.50500000014,
      "d": 2226.188249999992,
      "v": 127
    },
    {
      "midi": 77,
      "hit": false,
      "t": 67142.79000000007,
      "d": 827.3801250000106,
      "v": 109
    },
    {
      "midi": 75,
      "hit": false,
      "t": 67857.07500000007,
      "d": 755.9516250000015,
      "v": 101
    },
    {
      "midi": 58,
      "hit": false,
      "t": 68571.36,
      "d": 2226.1882500000065,
      "v": 63
    },
    {
      "midi": 56,
      "hit": false,
      "t": 68571.36,
      "d": 2226.1882500000065,
      "v": 63
    },
    {
      "midi": 62,
      "hit": false,
      "t": 68571.36,
      "d": 2226.1882500000065,
      "v": 63
    },
    {
      "midi": 53,
      "hit": false,
      "t": 68571.36,
      "d": 2607.1402500000113,
      "v": 63
    },
    {
      "midi": 46,
      "hit": false,
      "t": 68571.36,
      "d": 2970.235125000021,
      "v": 63
    },
    {
      "midi": 79,
      "hit": false,
      "t": 68571.36000000007,
      "d": 1708.3316249999916,
      "v": 115
    },
    {
      "midi": 46,
      "hit": false,
      "t": 68571.36000000013,
      "d": 2970.2351249999774,
      "v": 100
    },
    {
      "midi": 46,
      "hit": false,
      "t": 68571.36000000013,
      "d": 2970.2351249999774,
      "v": 127
    },
    {
      "midi": 53,
      "hit": false,
      "t": 68928.50250000012,
      "d": 2607.1402499999967,
      "v": 100
    },
    {
      "midi": 53,
      "hit": false,
      "t": 68928.50250000012,
      "d": 2607.1402499999967,
      "v": 127
    },
    {
      "midi": 70,
      "hit": false,
      "t": 69285.64499999999,
      "d": 738.0945000000065,
      "v": 100
    },
    {
      "midi": 58,
      "hit": false,
      "t": 69285.64500000012,
      "d": 2226.188249999992,
      "v": 100
    },
    {
      "midi": 56,
      "hit": false,
      "t": 69285.64500000012,
      "d": 2226.188249999992,
      "v": 100
    },
    {
      "midi": 62,
      "hit": false,
      "t": 69285.64500000012,
      "d": 2226.188249999992,
      "v": 100
    },
    {
      "midi": 58,
      "hit": false,
      "t": 69285.64500000012,
      "d": 2226.188249999992,
      "v": 127
    },
    {
      "midi": 56,
      "hit": false,
      "t": 69285.64500000012,
      "d": 2226.188249999992,
      "v": 127
    },
    {
      "midi": 62,
      "hit": false,
      "t": 69285.64500000012,
      "d": 2226.188249999992,
      "v": 127
    },
    {
      "midi": 82,
      "hit": false,
      "t": 69999.93,
      "d": 738.0945000000065,
      "v": 100
    },
    {
      "midi": 80,
      "hit": false,
      "t": 70714.215,
      "d": 738.0945000000065,
      "v": 100
    },
    {
      "midi": 79,
      "hit": false,
      "t": 71428.5,
      "d": 1863.0933750000113,
      "v": 100
    },
    {
      "midi": 67,
      "hit": false,
      "t": 71428.50000000001,
      "d": 2226.1882500000065,
      "v": 63
    },
    {
      "midi": 62,
      "hit": false,
      "t": 71428.50000000001,
      "d": 2226.1882500000065,
      "v": 63
    },
    {
      "midi": 55,
      "hit": false,
      "t": 71428.50000000001,
      "d": 2607.1402500000113,
      "v": 63
    },
    {
      "midi": 47,
      "hit": false,
      "t": 71428.50000000001,
      "d": 2970.235125000021,
      "v": 63
    },
    {
      "midi": 47,
      "hit": false,
      "t": 71428.50000000012,
      "d": 2970.2351249999774,
      "v": 100
    },
    {
      "midi": 47,
      "hit": false,
      "t": 71428.50000000012,
      "d": 2970.2351249999774,
      "v": 127
    },
    {
      "midi": 55,
      "hit": false,
      "t": 71785.6425000001,
      "d": 2607.1402499999967,
      "v": 100
    },
    {
      "midi": 55,
      "hit": false,
      "t": 71785.6425000001,
      "d": 2607.1402499999967,
      "v": 127
    },
    {
      "midi": 67,
      "hit": false,
      "t": 72142.7850000001,
      "d": 2226.188249999992,
      "v": 100
    },
    {
      "midi": 62,
      "hit": false,
      "t": 72142.7850000001,
      "d": 2226.188249999992,
      "v": 100
    },
    {
      "midi": 67,
      "hit": false,
      "t": 72142.7850000001,
      "d": 2226.188249999992,
      "v": 127
    },
    {
      "midi": 62,
      "hit": false,
      "t": 72142.7850000001,
      "d": 2226.188249999992,
      "v": 127
    },
    {
      "midi": 77,
      "hit": false,
      "t": 73214.21250000001,
      "d": 374.99962499999674,
      "v": 100
    },
    {
      "midi": 71,
      "hit": false,
      "t": 73571.35500000001,
      "d": 374.99962499999674,
      "v": 100
    },
    {
      "midi": 72,
      "hit": false,
      "t": 73928.49750000001,
      "d": 374.99962499999674,
      "v": 100
    },
    {
      "midi": 74,
      "hit": false,
      "t": 74285.64000000001,
      "d": 2607.1402499999967,
      "v": 100
    },
    {
      "midi": 67,
      "hit": false,
      "t": 74285.64000000003,
      "d": 2226.1882500000065,
      "v": 63
    },
    {
      "midi": 62,
      "hit": false,
      "t": 74285.64000000003,
      "d": 2226.1882500000065,
      "v": 63
    },
    {
      "midi": 59,
      "hit": false,
      "t": 74285.64000000003,
      "d": 2607.1402500000113,
      "v": 63
    },
    {
      "midi": 43,
      "hit": false,
      "t": 74285.64000000003,
      "d": 2970.235125000021,
      "v": 63
    },
    {
      "midi": 43,
      "hit": false,
      "t": 74285.6400000001,
      "d": 2970.2351249999774,
      "v": 100
    },
    {
      "midi": 43,
      "hit": false,
      "t": 74285.6400000001,
      "d": 2970.2351249999774,
      "v": 127
    },
    {
      "midi": 59,
      "hit": false,
      "t": 74642.78250000009,
      "d": 2607.1402499999967,
      "v": 100
    },
    {
      "midi": 59,
      "hit": false,
      "t": 74642.78250000009,
      "d": 2607.1402499999967,
      "v": 127
    },
    {
      "midi": 67,
      "hit": false,
      "t": 74999.92500000009,
      "d": 2226.188249999992,
      "v": 100
    },
    {
      "midi": 62,
      "hit": false,
      "t": 74999.92500000009,
      "d": 2226.188249999992,
      "v": 100
    },
    {
      "midi": 67,
      "hit": false,
      "t": 74999.92500000009,
      "d": 2226.188249999992,
      "v": 127
    },
    {
      "midi": 62,
      "hit": false,
      "t": 74999.92500000009,
      "d": 2226.188249999992,
      "v": 127
    },
    {
      "midi": 72,
      "hit": false,
      "t": 76428.49500000007,
      "d": 422.6186250000028,
      "v": 108
    },
    {
      "midi": 74,
      "hit": false,
      "t": 76785.63750000007,
      "d": 363.0948749999952,
      "v": 95
    },
    {
      "midi": 63,
      "hit": false,
      "t": 77142.78000000004,
      "d": 2226.1882500000065,
      "v": 63
    },
    {
      "midi": 60,
      "hit": false,
      "t": 77142.78000000004,
      "d": 2226.1882500000065,
      "v": 63
    },
    {
      "midi": 55,
      "hit": false,
      "t": 77142.78000000004,
      "d": 2607.1402500000113,
      "v": 63
    },
    {
      "midi": 48,
      "hit": false,
      "t": 77142.78000000004,
      "d": 2970.235125000021,
      "v": 63
    },
    {
      "midi": 75,
      "hit": false,
      "t": 77142.78000000007,
      "d": 1083.3322499999922,
      "v": 90
    },
    {
      "midi": 48,
      "hit": false,
      "t": 77142.78000000009,
      "d": 2970.2351249999774,
      "v": 100
    },
    {
      "midi": 48,
      "hit": false,
      "t": 77142.78000000009,
      "d": 2970.2351249999774,
      "v": 127
    },
    {
      "midi": 55,
      "hit": false,
      "t": 77499.92250000007,
      "d": 2607.1402499999967,
      "v": 100
    },
    {
      "midi": 55,
      "hit": false,
      "t": 77499.92250000007,
      "d": 2607.1402499999967,
      "v": 127
    },
    {
      "midi": 63,
      "hit": false,
      "t": 77857.06500000008,
      "d": 2226.188249999992,
      "v": 100
    },
    {
      "midi": 60,
      "hit": false,
      "t": 77857.06500000008,
      "d": 2226.188249999992,
      "v": 100
    },
    {
      "midi": 63,
      "hit": false,
      "t": 77857.06500000008,
      "d": 2226.188249999992,
      "v": 127
    },
    {
      "midi": 60,
      "hit": false,
      "t": 77857.06500000008,
      "d": 2226.188249999992,
      "v": 127
    },
    {
      "midi": 74,
      "hit": false,
      "t": 78214.20750000006,
      "d": 369.04725000000326,
      "v": 105
    },
    {
      "midi": 75,
      "hit": false,
      "t": 78571.35000000006,
      "d": 666.6659999999974,
      "v": 100
    },
    {
      "midi": 79,
      "hit": false,
      "t": 79285.63500000007,
      "d": 690.4755000000005,
      "v": 86
    },
    {
      "midi": 62,
      "hit": false,
      "t": 79999.92000000006,
      "d": 2226.1882500000065,
      "v": 63
    },
    {
      "midi": 58,
      "hit": false,
      "t": 79999.92000000006,
      "d": 2226.1882500000065,
      "v": 63
    },
    {
      "midi": 55,
      "hit": false,
      "t": 79999.92000000006,
      "d": 2607.1402500000113,
      "v": 63
    },
    {
      "midi": 46,
      "hit": false,
      "t": 79999.92000000006,
      "d": 2970.235125000021,
      "v": 63
    },
    {
      "midi": 74,
      "hit": false,
      "t": 79999.92000000007,
      "d": 1785.7125000000087,
      "v": 106
    },
    {
      "midi": 46,
      "hit": false,
      "t": 79999.92000000007,
      "d": 2970.2351249999774,
      "v": 100
    },
    {
      "midi": 46,
      "hit": false,
      "t": 79999.92000000007,
      "d": 2970.2351249999774,
      "v": 127
    },
    {
      "midi": 55,
      "hit": false,
      "t": 80357.06250000006,
      "d": 2607.1402499999967,
      "v": 100
    },
    {
      "midi": 55,
      "hit": false,
      "t": 80357.06250000006,
      "d": 2607.1402499999967,
      "v": 127
    },
    {
      "midi": 62,
      "hit": false,
      "t": 80714.20500000006,
      "d": 2226.188249999992,
      "v": 100
    },
    {
      "midi": 58,
      "hit": false,
      "t": 80714.20500000006,
      "d": 2226.188249999992,
      "v": 100
    },
    {
      "midi": 62,
      "hit": false,
      "t": 80714.20500000006,
      "d": 2226.188249999992,
      "v": 127
    },
    {
      "midi": 58,
      "hit": false,
      "t": 80714.20500000006,
      "d": 2226.188249999992,
      "v": 127
    },
    {
      "midi": 67,
      "hit": false,
      "t": 80714.20500000007,
      "d": 1398.8081250000105,
      "v": 100
    },
    {
      "midi": 67,
      "hit": false,
      "t": 82142.77500000008,
      "d": 738.0945000000065,
      "v": 89
    },
    {
      "midi": 44,
      "hit": false,
      "t": 82857.06000000007,
      "d": 738.0945000000065,
      "v": 63
    },
    {
      "midi": 60,
      "hit": false,
      "t": 82857.06000000007,
      "d": 2226.1882500000065,
      "v": 63
    },
    {
      "midi": 63,
      "hit": false,
      "t": 82857.06000000007,
      "d": 2226.1882500000065,
      "v": 63
    },
    {
      "midi": 51,
      "hit": false,
      "t": 82857.06000000007,
      "d": 2607.1402500000113,
      "v": 63
    },
    {
      "midi": 72,
      "hit": false,
      "t": 82857.06000000008,
      "d": 1065.4751249999972,
      "v": 114
    },
    {
      "midi": 51,
      "hit": false,
      "t": 83214.20250000004,
      "d": 2607.1402500000113,
      "v": 100
    },
    {
      "midi": 51,
      "hit": false,
      "t": 83214.20250000004,
      "d": 2607.1402500000113,
      "v": 127
    },
    {
      "midi": 63,
      "hit": false,
      "t": 83571.34500000004,
      "d": 2226.1882500000065,
      "v": 100
    },
    {
      "midi": 60,
      "hit": false,
      "t": 83571.34500000004,
      "d": 2226.1882500000065,
      "v": 100
    },
    {
      "midi": 63,
      "hit": false,
      "t": 83571.34500000004,
      "d": 2226.1882500000065,
      "v": 127
    },
    {
      "midi": 60,
      "hit": false,
      "t": 83571.34500000004,
      "d": 2226.1882500000065,
      "v": 127
    },
    {
      "midi": 70,
      "hit": false,
      "t": 83928.48750000008,
      "d": 374.99962499999674,
      "v": 89
    },
    {
      "midi": 44,
      "hit": false,
      "t": 84285.63000000005,
      "d": 738.0945000000065,
      "v": 100
    },
    {
      "midi": 44,
      "hit": false,
      "t": 84285.63000000005,
      "d": 738.0945000000065,
      "v": 127
    },
    {
      "midi": 72,
      "hit": false,
      "t": 84285.63000000008,
      "d": 773.808749999982,
      "v": 113
    },
    {
      "midi": 75,
      "hit": false,
      "t": 84999.91500000007,
      "d": 708.3326249999955,
      "v": 106
    },
    {
      "midi": 70,
      "hit": false,
      "t": 85714.20000000006,
      "d": 2077.378874999995,
      "v": 94
    },
    {
      "midi": 43,
      "hit": false,
      "t": 85714.20000000006,
      "d": 2851.1876249999914,
      "v": 100
    },
    {
      "midi": 43,
      "hit": false,
      "t": 85714.20000000006,
      "d": 2851.1876249999914,
      "v": 127
    },
    {
      "midi": 63,
      "hit": false,
      "t": 85714.20000000008,
      "d": 2136.9026250000024,
      "v": 63
    },
    {
      "midi": 58,
      "hit": false,
      "t": 85714.20000000008,
      "d": 2136.9026250000024,
      "v": 63
    },
    {
      "midi": 53,
      "hit": false,
      "t": 85714.20000000008,
      "d": 2494.045125000004,
      "v": 63
    },
    {
      "midi": 43,
      "hit": false,
      "t": 85714.20000000008,
      "d": 2851.187625000006,
      "v": 63
    },
    {
      "midi": 53,
      "hit": false,
      "t": 86071.34250000004,
      "d": 2494.045125000004,
      "v": 100
    },
    {
      "midi": 53,
      "hit": false,
      "t": 86071.34250000004,
      "d": 2494.045125000004,
      "v": 127
    },
    {
      "midi": 63,
      "hit": false,
      "t": 86428.48500000004,
      "d": 2136.9026250000024,
      "v": 100
    },
    {
      "midi": 58,
      "hit": false,
      "t": 86428.48500000004,
      "d": 2136.9026250000024,
      "v": 100
    },
    {
      "midi": 63,
      "hit": false,
      "t": 86428.48500000004,
      "d": 2136.9026250000024,
      "v": 127
    },
    {
      "midi": 58,
      "hit": false,
      "t": 86428.48500000004,
      "d": 2136.9026250000024,
      "v": 127
    },
    {
      "midi": 67,
      "hit": false,
      "t": 87857.05500000005,
      "d": 761.9040000000095,
      "v": 98
    },
    {
      "midi": 41,
      "hit": false,
      "t": 88571.34000000004,
      "d": 2970.235124999992,
      "v": 100
    },
    {
      "midi": 41,
      "hit": false,
      "t": 88571.34000000004,
      "d": 2970.235124999992,
      "v": 127
    },
    {
      "midi": 68,
      "hit": false,
      "t": 88571.34000000005,
      "d": 761.9040000000095,
      "v": 87
    },
    {
      "midi": 63,
      "hit": false,
      "t": 88571.34000000008,
      "d": 2226.1882500000065,
      "v": 63
    },
    {
      "midi": 60,
      "hit": false,
      "t": 88571.34000000008,
      "d": 2226.1882500000065,
      "v": 63
    },
    {
      "midi": 56,
      "hit": false,
      "t": 88571.34000000008,
      "d": 2226.1882500000065,
      "v": 63
    },
    {
      "midi": 48,
      "hit": false,
      "t": 88571.34000000008,
      "d": 2607.1402500000113,
      "v": 63
    },
    {
      "midi": 41,
      "hit": false,
      "t": 88571.34000000008,
      "d": 2970.235125000021,
      "v": 63
    },
    {
      "midi": 48,
      "hit": false,
      "t": 88928.48250000004,
      "d": 2607.1402499999967,
      "v": 100
    },
    {
      "midi": 48,
      "hit": false,
      "t": 88928.48250000004,
      "d": 2607.1402499999967,
      "v": 127
    },
    {
      "midi": 60,
      "hit": false,
      "t": 89285.62500000004,
      "d": 2226.188249999992,
      "v": 100
    },
    {
      "midi": 63,
      "hit": false,
      "t": 89285.62500000004,
      "d": 2226.188249999992,
      "v": 100
    },
    {
      "midi": 56,
      "hit": false,
      "t": 89285.62500000004,
      "d": 2226.188249999992,
      "v": 100
    },
    {
      "midi": 60,
      "hit": false,
      "t": 89285.62500000004,
      "d": 2226.188249999992,
      "v": 127
    },
    {
      "midi": 63,
      "hit": false,
      "t": 89285.62500000004,
      "d": 2226.188249999992,
      "v": 127
    },
    {
      "midi": 56,
      "hit": false,
      "t": 89285.62500000004,
      "d": 2226.188249999992,
      "v": 127
    },
    {
      "midi": 75,
      "hit": false,
      "t": 89285.62500000006,
      "d": 374.99962499999674,
      "v": 114
    },
    {
      "midi": 74,
      "hit": false,
      "t": 89642.76750000006,
      "d": 994.0466249999881,
      "v": 106
    },
    {
      "midi": 75,
      "hit": false,
      "t": 90714.19500000005,
      "d": 767.856375000003,
      "v": 89
    },
    {
      "midi": 36,
      "hit": false,
      "t": 91428.48000000004,
      "d": 2970.2351249999774,
      "v": 100
    },
    {
      "midi": 36,
      "hit": false,
      "t": 91428.48000000004,
      "d": 2970.2351249999774,
      "v": 127
    },
    {
      "midi": 77,
      "hit": false,
      "t": 91428.48000000005,
      "d": 660.713625000004,
      "v": 112
    },
    {
      "midi": 63,
      "hit": false,
      "t": 91428.4800000001,
      "d": 2226.1882500000065,
      "v": 63
    },
    {
      "midi": 67,
      "hit": false,
      "t": 91428.4800000001,
      "d": 2226.1882500000065,
      "v": 63
    },
    {
      "midi": 55,
      "hit": false,
      "t": 91428.4800000001,
      "d": 2607.1402500000113,
      "v": 63
    },
    {
      "midi": 36,
      "hit": false,
      "t": 91428.4800000001,
      "d": 2970.235125000021,
      "v": 63
    },
    {
      "midi": 55,
      "hit": false,
      "t": 91785.62250000003,
      "d": 2607.1402499999967,
      "v": 100
    },
    {
      "midi": 55,
      "hit": false,
      "t": 91785.62250000003,
      "d": 2607.1402499999967,
      "v": 127
    },
    {
      "midi": 63,
      "hit": false,
      "t": 92142.76500000003,
      "d": 2226.188249999992,
      "v": 100
    },
    {
      "midi": 67,
      "hit": false,
      "t": 92142.76500000003,
      "d": 2226.188249999992,
      "v": 100
    },
    {
      "midi": 63,
      "hit": false,
      "t": 92142.76500000003,
      "d": 2226.188249999992,
      "v": 127
    },
    {
      "midi": 67,
      "hit": false,
      "t": 92142.76500000003,
      "d": 2226.188249999992,
      "v": 127
    },
    {
      "midi": 79,
      "hit": false,
      "t": 92142.76500000006,
      "d": 416.66624999999476,
      "v": 110
    },
    {
      "midi": 75,
      "hit": false,
      "t": 92499.90750000006,
      "d": 1208.3321249999863,
      "v": 103
    },
    {
      "midi": 41,
      "hit": false,
      "t": 94285.62000000002,
      "d": 2970.235124999992,
      "v": 100
    },
    {
      "midi": 41,
      "hit": false,
      "t": 94285.62000000002,
      "d": 2970.235124999992,
      "v": 127
    },
    {
      "midi": 75,
      "hit": false,
      "t": 94285.62000000004,
      "d": 392.8567500000063,
      "v": 90
    },
    {
      "midi": 59,
      "hit": false,
      "t": 94285.62000000011,
      "d": 738.0945000000065,
      "v": 63
    },
    {
      "midi": 62,
      "hit": false,
      "t": 94285.62000000011,
      "d": 738.0945000000065,
      "v": 63
    },
    {
      "midi": 50,
      "hit": false,
      "t": 94285.62000000011,
      "d": 1071.4275000000052,
      "v": 63
    },
    {
      "midi": 43,
      "hit": false,
      "t": 94285.62000000011,
      "d": 1482.1413750000065,
      "v": 63
    },
    {
      "midi": 56,
      "hit": false,
      "t": 94285.62000000011,
      "d": 2226.1882500000065,
      "v": 63
    },
    {
      "midi": 53,
      "hit": false,
      "t": 94285.62000000011,
      "d": 2607.1402500000113,
      "v": 63
    },
    {
      "midi": 41,
      "hit": false,
      "t": 94285.62000000011,
      "d": 2970.2351250000065,
      "v": 63
    },
    {
      "midi": 53,
      "hit": false,
      "t": 94642.76250000001,
      "d": 2607.1402500000113,
      "v": 100
    },
    {
      "midi": 53,
      "hit": false,
      "t": 94642.76250000001,
      "d": 2607.1402500000113,
      "v": 127
    },
    {
      "midi": 74,
      "hit": false,
      "t": 94642.76250000004,
      "d": 357.14250000000175,
      "v": 90
    },
    {
      "midi": 60,
      "hit": false,
      "t": 94999.90500000001,
      "d": 2226.1882500000065,
      "v": 100
    },
    {
      "midi": 56,
      "hit": false,
      "t": 94999.90500000001,
      "d": 2226.1882500000065,
      "v": 100
    },
    {
      "midi": 63,
      "hit": false,
      "t": 94999.90500000001,
      "d": 2226.1882500000065,
      "v": 100
    },
    {
      "midi": 60,
      "hit": false,
      "t": 94999.90500000001,
      "d": 2226.1882500000065,
      "v": 127
    },
    {
      "midi": 56,
      "hit": false,
      "t": 94999.90500000001,
      "d": 2226.1882500000065,
      "v": 127
    },
    {
      "midi": 63,
      "hit": false,
      "t": 94999.90500000001,
      "d": 2226.1882500000065,
      "v": 127
    },
    {
      "midi": 72,
      "hit": false,
      "t": 94999.90500000004,
      "d": 708.3326249999955,
      "v": 110
    },
    {
      "midi": 60,
      "hit": false,
      "t": 94999.90500000012,
      "d": 1511.903250000003,
      "v": 63
    },
    {
      "midi": 63,
      "hit": false,
      "t": 94999.90500000012,
      "d": 2226.1882500000065,
      "v": 63
    },
    {
      "midi": 43,
      "hit": false,
      "t": 95714.19000000002,
      "d": 1482.1413750000065,
      "v": 100
    },
    {
      "midi": 43,
      "hit": false,
      "t": 95714.19000000002,
      "d": 1482.1413750000065,
      "v": 127
    },
    {
      "midi": 74,
      "hit": false,
      "t": 95714.19000000003,
      "d": 702.380250000002,
      "v": 99
    },
    {
      "midi": 50,
      "hit": false,
      "t": 96071.33250000002,
      "d": 1071.4275000000052,
      "v": 100
    },
    {
      "midi": 50,
      "hit": false,
      "t": 96071.33250000002,
      "d": 1071.4275000000052,
      "v": 127
    },
    {
      "midi": 59,
      "hit": false,
      "t": 96428.47500000002,
      "d": 738.0945000000065,
      "v": 100
    },
    {
      "midi": 62,
      "hit": false,
      "t": 96428.47500000002,
      "d": 738.0945000000065,
      "v": 100
    },
    {
      "midi": 59,
      "hit": false,
      "t": 96428.47500000002,
      "d": 738.0945000000065,
      "v": 127
    },
    {
      "midi": 62,
      "hit": false,
      "t": 96428.47500000002,
      "d": 738.0945000000065,
      "v": 127
    },
    {
      "midi": 71,
      "hit": false,
      "t": 96428.47500000003,
      "d": 726.189750000005,
      "v": 89
    },
    {
      "midi": 48,
      "hit": false,
      "t": 97142.76000000002,
      "d": 2851.1876249999914,
      "v": 100
    },
    {
      "midi": 48,
      "hit": false,
      "t": 97142.76000000002,
      "d": 2851.1876249999914,
      "v": 127
    },
    {
      "midi": 72,
      "hit": false,
      "t": 97142.76000000004,
      "d": 1410.7128749999974,
      "v": 100
    },
    {
      "midi": 48,
      "hit": false,
      "t": 97142.76000000013,
      "d": 2851.1876249999914,
      "v": 63
    },
    {
      "midi": 55,
      "hit": false,
      "t": 97499.90250000001,
      "d": 2494.045125000004,
      "v": 100
    },
    {
      "midi": 55,
      "hit": false,
      "t": 97499.90250000001,
      "d": 2494.045125000004,
      "v": 127
    },
    {
      "midi": 55,
      "hit": false,
      "t": 97499.90250000011,
      "d": 2494.045125000004,
      "v": 63
    },
    {
      "midi": 67,
      "hit": false,
      "t": 97857.04500000001,
      "d": 2136.9026250000024,
      "v": 100
    },
    {
      "midi": 64,
      "hit": false,
      "t": 97857.04500000001,
      "d": 2136.9026250000024,
      "v": 100
    },
    {
      "midi": 60,
      "hit": false,
      "t": 97857.04500000001,
      "d": 2136.9026250000024,
      "v": 100
    },
    {
      "midi": 67,
      "hit": false,
      "t": 97857.04500000001,
      "d": 2136.9026250000024,
      "v": 127
    },
    {
      "midi": 64,
      "hit": false,
      "t": 97857.04500000001,
      "d": 2136.9026250000024,
      "v": 127
    },
    {
      "midi": 60,
      "hit": false,
      "t": 97857.04500000001,
      "d": 2136.9026250000024,
      "v": 127
    },
    {
      "midi": 67,
      "hit": false,
      "t": 97857.04500000011,
      "d": 2136.9026250000024,
      "v": 63
    },
    {
      "midi": 64,
      "hit": false,
      "t": 97857.04500000011,
      "d": 2136.9026250000024,
      "v": 63
    },
    {
      "midi": 60,
      "hit": false,
      "t": 97857.04500000011,
      "d": 2136.9026250000024,
      "v": 63
    },
    {
      "midi": 61,
      "hit": false,
      "t": 99999.90000000001,
      "d": 5946.4226250000065,
      "v": 100
    },
    {
      "midi": 84,
      "hit": false,
      "t": 99999.90000000001,
      "d": 3089.282625000007,
      "v": 100
    },
    {
      "midi": 72,
      "hit": false,
      "t": 99999.90000000011,
      "d": 5946.422624999992,
      "v": 63
    },
    {
      "midi": 65,
      "hit": false,
      "t": 99999.90000000011,
      "d": 5946.422624999992,
      "v": 63
    },
    {
      "midi": 61,
      "hit": false,
      "t": 99999.90000000011,
      "d": 5946.422624999992,
      "v": 63
    },
    {
      "midi": 65,
      "hit": false,
      "t": 100118.94750000001,
      "d": 5946.4226250000065,
      "v": 100
    },
    {
      "midi": 72,
      "hit": false,
      "t": 100357.04250000001,
      "d": 5946.4226250000065,
      "v": 100
    },
    {
      "midi": 84,
      "hit": false,
      "t": 103214.18250000001,
      "d": 738.0945000000065,
      "v": 100
    },
    {
      "midi": 82,
      "hit": false,
      "t": 103928.46750000001,
      "d": 738.0945000000065,
      "v": 100
    },
    {
      "midi": 80,
      "hit": false,
      "t": 104642.75250000002,
      "d": 738.0945000000065,
      "v": 100
    },
    {
      "midi": 82,
      "hit": false,
      "t": 105357.03750000002,
      "d": 1482.1413750000065,
      "v": 100
    },
    {
      "midi": 60,
      "hit": false,
      "t": 105714.18000000001,
      "d": 5946.422625000021,
      "v": 100
    },
    {
      "midi": 68,
      "hit": false,
      "t": 105714.18000000011,
      "d": 232.14262499999313,
      "v": 63
    },
    {
      "midi": 70,
      "hit": false,
      "t": 105714.18000000011,
      "d": 5946.422624999992,
      "v": 63
    },
    {
      "midi": 63,
      "hit": false,
      "t": 105714.18000000011,
      "d": 5946.422624999992,
      "v": 63
    },
    {
      "midi": 60,
      "hit": false,
      "t": 105714.18000000011,
      "d": 5946.422624999992,
      "v": 63
    },
    {
      "midi": 63,
      "hit": false,
      "t": 105833.22750000001,
      "d": 5946.422625000021,
      "v": 100
    },
    {
      "midi": 68,
      "hit": false,
      "t": 105952.27500000001,
      "d": 232.14262500000768,
      "v": 100
    },
    {
      "midi": 70,
      "hit": false,
      "t": 106071.32250000001,
      "d": 5946.422625000021,
      "v": 100
    },
    {
      "midi": 75,
      "hit": false,
      "t": 106785.60750000003,
      "d": 297.6187499999942,
      "v": 100
    },
    {
      "midi": 75,
      "hit": false,
      "t": 107142.75000000001,
      "d": 1970.2361249999958,
      "v": 100
    },
    {
      "midi": 75,
      "hit": false,
      "t": 109285.60500000001,
      "d": 738.0945000000065,
      "v": 100
    },
    {
      "midi": 80,
      "hit": false,
      "t": 109999.89000000001,
      "d": 738.0945000000065,
      "v": 100
    },
    {
      "midi": 82,
      "hit": false,
      "t": 110714.17500000002,
      "d": 696.4278750000085,
      "v": 100
    },
    {
      "midi": 61,
      "hit": false,
      "t": 111428.46000000002,
      "d": 5345.23275000001,
      "v": 100
    },
    {
      "midi": 84,
      "hit": false,
      "t": 111428.46000000002,
      "d": 2970.2351250000065,
      "v": 100
    },
    {
      "midi": 68,
      "hit": false,
      "t": 111428.46000000011,
      "d": 232.14262499999313,
      "v": 63
    },
    {
      "midi": 77,
      "hit": false,
      "t": 111428.46000000011,
      "d": 5946.422624999992,
      "v": 63
    },
    {
      "midi": 72,
      "hit": false,
      "t": 111428.46000000011,
      "d": 5946.422624999992,
      "v": 63
    },
    {
      "midi": 61,
      "hit": false,
      "t": 111428.46000000011,
      "d": 5946.422624999992,
      "v": 63
    },
    {
      "midi": 68,
      "hit": false,
      "t": 111547.50750000002,
      "d": 351.19012500000827,
      "v": 100
    },
    {
      "midi": 72,
      "hit": false,
      "t": 111666.55500000002,
      "d": 5345.23275000001,
      "v": 100
    },
    {
      "midi": 77,
      "hit": false,
      "t": 111785.60250000002,
      "d": 5315.470875000014,
      "v": 100
    },
    {
      "midi": 84,
      "hit": false,
      "t": 114642.74250000002,
      "d": 738.0945000000065,
      "v": 100
    },
    {
      "midi": 82,
      "hit": false,
      "t": 115357.02750000003,
      "d": 738.0945000000065,
      "v": 100
    },
    {
      "midi": 80,
      "hit": false,
      "t": 116071.31250000003,
      "d": 738.0945000000065,
      "v": 100
    },
    {
      "midi": 82,
      "hit": false,
      "t": 116785.59750000003,
      "d": 1482.1413750000065,
      "v": 100
    },
    {
      "midi": 60,
      "hit": false,
      "t": 117142.74000000003,
      "d": 2851.187625000006,
      "v": 100
    },
    {
      "midi": 68,
      "hit": false,
      "t": 117142.7400000001,
      "d": 232.14262499999313,
      "v": 63
    },
    {
      "midi": 75,
      "hit": false,
      "t": 117142.7400000001,
      "d": 8922.610124999992,
      "v": 63
    },
    {
      "midi": 70,
      "hit": false,
      "t": 117142.7400000001,
      "d": 8922.610124999992,
      "v": 63
    },
    {
      "midi": 63,
      "hit": false,
      "t": 117142.7400000001,
      "d": 8922.610124999992,
      "v": 63
    },
    {
      "midi": 60,
      "hit": false,
      "t": 117142.7400000001,
      "d": 8922.610124999992,
      "v": 63
    },
    {
      "midi": 63,
      "hit": false,
      "t": 117261.78750000003,
      "d": 2851.187625000006,
      "v": 100
    },
    {
      "midi": 68,
      "hit": false,
      "t": 117380.83500000004,
      "d": 2851.187625000006,
      "v": 100
    },
    {
      "midi": 70,
      "hit": false,
      "t": 117499.88250000004,
      "d": 2851.187625000006,
      "v": 100
    },
    {
      "midi": 75,
      "hit": false,
      "t": 117618.93000000004,
      "d": 2851.187625000006,
      "v": 100
    },
    {
      "midi": 75,
      "hit": false,
      "t": 118214.16750000004,
      "d": 345.23775000000023,
      "v": 100
    },
    {
      "midi": 75,
      "hit": false,
      "t": 118571.31000000004,
      "d": 2970.2351250000065,
      "v": 100
    },
    {
      "midi": 51,
      "hit": false,
      "t": 121791.54487499998,
      "d": 386.90437499999825,
      "v": 110
    },
    {
      "midi": 53,
      "hit": false,
      "t": 122142.73499999997,
      "d": 363.0948749999952,
      "v": 110
    },
    {
      "midi": 55,
      "hit": false,
      "t": 122499.87749999997,
      "d": 339.2853749999922,
      "v": 110
    },
    {
      "midi": 55,
      "hit": false,
      "t": 122857.01999999996,
      "d": 2226.188249999992,
      "v": 110
    },
    {
      "midi": 53,
      "hit": false,
      "t": 124999.87499999996,
      "d": 738.094499999992,
      "v": 110
    },
    {
      "midi": 60,
      "hit": false,
      "t": 125714.15999999995,
      "d": 2226.188249999992,
      "v": 110
    },
    {
      "midi": 72,
      "hit": false,
      "t": 125714.15999999999,
      "d": 2202.378749999989,
      "v": 127
    },
    {
      "midi": 68,
      "hit": false,
      "t": 125714.15999999999,
      "d": 2202.378749999989,
      "v": 127
    },
    {
      "midi": 65,
      "hit": false,
      "t": 125714.15999999999,
      "d": 2202.378749999989,
      "v": 127
    },
    {
      "midi": 61,
      "hit": false,
      "t": 125714.15999999999,
      "d": 2202.378749999989,
      "v": 127
    },
    {
      "midi": 68,
      "hit": false,
      "t": 125714.1600000001,
      "d": 351.1901249999937,
      "v": 63
    },
    {
      "midi": 72,
      "hit": false,
      "t": 125714.1600000001,
      "d": 2970.2351250000065,
      "v": 63
    },
    {
      "midi": 65,
      "hit": false,
      "t": 125714.1600000001,
      "d": 2970.2351250000065,
      "v": 63
    },
    {
      "midi": 61,
      "hit": false,
      "t": 125714.1600000001,
      "d": 2970.2351250000065,
      "v": 63
    },
    {
      "midi": 58,
      "hit": false,
      "t": 127857.01499999994,
      "d": 714.2849999999889,
      "v": 110
    },
    {
      "midi": 70,
      "hit": false,
      "t": 127857.01499999998,
      "d": 714.2849999999889,
      "v": 127
    },
    {
      "midi": 58,
      "hit": false,
      "t": 128571.29999999993,
      "d": 2226.188249999992,
      "v": 110
    },
    {
      "midi": 60,
      "hit": false,
      "t": 128571.29999999997,
      "d": 2226.188249999992,
      "v": 127
    },
    {
      "midi": 70,
      "hit": false,
      "t": 128571.29999999997,
      "d": 2226.188249999992,
      "v": 127
    },
    {
      "midi": 63,
      "hit": false,
      "t": 128571.29999999997,
      "d": 2226.188249999992,
      "v": 127
    },
    {
      "midi": 70,
      "hit": false,
      "t": 128571.3000000001,
      "d": 23.809500000003027,
      "v": 63
    },
    {
      "midi": 60,
      "hit": false,
      "t": 128571.3000000001,
      "d": 2970.2351250000065,
      "v": 63
    },
    {
      "midi": 63,
      "hit": false,
      "t": 128571.3000000001,
      "d": 2970.2351250000065,
      "v": 63
    },
    {
      "midi": 56,
      "hit": false,
      "t": 130714.15499999993,
      "d": 714.2849999999889,
      "v": 110
    },
    {
      "midi": 68,
      "hit": false,
      "t": 130714.15499999997,
      "d": 738.0945000000065,
      "v": 127
    },
    {
      "midi": 68,
      "hit": false,
      "t": 130714.15500000012,
      "d": 738.0945000000065,
      "v": 63
    },
    {
      "midi": 55,
      "hit": false,
      "t": 131428.43999999992,
      "d": 2970.2351250000065,
      "v": 110
    },
    {
      "midi": 67,
      "hit": false,
      "t": 131428.43999999997,
      "d": 2970.2351250000065,
      "v": 127
    },
    {
      "midi": 62,
      "hit": false,
      "t": 131428.43999999997,
      "d": 2970.2351250000065,
      "v": 127
    },
    {
      "midi": 59,
      "hit": false,
      "t": 131428.43999999997,
      "d": 2970.2351250000065,
      "v": 127
    },
    {
      "midi": 67,
      "hit": false,
      "t": 131428.44000000012,
      "d": 2970.2351249999774,
      "v": 63
    },
    {
      "midi": 62,
      "hit": false,
      "t": 131428.44000000012,
      "d": 2970.2351249999774,
      "v": 63
    },
    {
      "midi": 59,
      "hit": false,
      "t": 131428.44000000012,
      "d": 2970.2351249999774,
      "v": 63
    },
    {
      "midi": 79,
      "hit": false,
      "t": 132142.725,
      "d": 738.0945000000065,
      "v": 127
    },
    {
      "midi": 86,
      "hit": false,
      "t": 132857.01,
      "d": 738.0945000000065,
      "v": 127
    },
    {
      "midi": 91,
      "hit": false,
      "t": 133571.295,
      "d": 738.0945000000065,
      "v": 127
    },
    {
      "midi": 79,
      "hit": false,
      "t": 133571.29500000004,
      "d": 773.8087499999965,
      "v": 100
    },
    {
      "midi": 51,
      "hit": false,
      "t": 134285.58,
      "d": 1482.1413749999774,
      "v": 127
    },
    {
      "midi": 48,
      "hit": false,
      "t": 134285.58,
      "d": 1482.1413749999774,
      "v": 127
    },
    {
      "midi": 63,
      "hit": false,
      "t": 134285.58000000002,
      "d": 1482.1413750000065,
      "v": 100
    },
    {
      "midi": 60,
      "hit": false,
      "t": 134285.58000000002,
      "d": 1482.1413750000065,
      "v": 100
    },
    {
      "midi": 63,
      "hit": false,
      "t": 134285.58000000005,
      "d": 1482.1413750000065,
      "v": 100
    },
    {
      "midi": 60,
      "hit": false,
      "t": 134285.58000000005,
      "d": 1482.1413750000065,
      "v": 100
    },
    {
      "midi": 87,
      "hit": false,
      "t": 134285.58000000005,
      "d": 1464.284249999997,
      "v": 100
    },
    {
      "midi": 63,
      "hit": false,
      "t": 134285.5800000001,
      "d": 1482.1413749999774,
      "v": 63
    },
    {
      "midi": 60,
      "hit": false,
      "t": 134285.5800000001,
      "d": 1482.1413749999774,
      "v": 63
    },
    {
      "midi": 50,
      "hit": false,
      "t": 135714.14999999997,
      "d": 1482.1413750000065,
      "v": 127
    },
    {
      "midi": 60,
      "hit": false,
      "t": 135714.14999999997,
      "d": 1482.1413750000065,
      "v": 127
    },
    {
      "midi": 54,
      "hit": false,
      "t": 135714.14999999997,
      "d": 1482.1413750000065,
      "v": 127
    },
    {
      "midi": 62,
      "hit": false,
      "t": 135714.15000000002,
      "d": 1482.1413750000065,
      "v": 100
    },
    {
      "midi": 72,
      "hit": false,
      "t": 135714.15000000002,
      "d": 1482.1413750000065,
      "v": 100
    },
    {
      "midi": 66,
      "hit": false,
      "t": 135714.15000000002,
      "d": 1482.1413750000065,
      "v": 100
    },
    {
      "midi": 62,
      "hit": false,
      "t": 135714.15000000005,
      "d": 1482.1413750000065,
      "v": 100
    },
    {
      "midi": 72,
      "hit": false,
      "t": 135714.15000000005,
      "d": 1482.1413750000065,
      "v": 100
    },
    {
      "midi": 66,
      "hit": false,
      "t": 135714.15000000005,
      "d": 1482.1413750000065,
      "v": 100
    },
    {
      "midi": 86,
      "hit": false,
      "t": 135714.15000000005,
      "d": 398.80912499999977,
      "v": 100
    },
    {
      "midi": 62,
      "hit": false,
      "t": 135714.15000000008,
      "d": 1482.1413750000065,
      "v": 63
    },
    {
      "midi": 72,
      "hit": false,
      "t": 135714.15000000008,
      "d": 1482.1413750000065,
      "v": 63
    },
    {
      "midi": 66,
      "hit": false,
      "t": 135714.15000000008,
      "d": 1482.1413750000065,
      "v": 63
    },
    {
      "midi": 84,
      "hit": false,
      "t": 136071.29250000004,
      "d": 386.9043750000128,
      "v": 100
    },
    {
      "midi": 82,
      "hit": false,
      "t": 136428.43500000006,
      "d": 404.76149999999325,
      "v": 100
    },
    {
      "midi": 81,
      "hit": false,
      "t": 136785.57750000004,
      "d": 422.6186250000028,
      "v": 100
    },
    {
      "midi": 62,
      "hit": false,
      "t": 137142.71999999997,
      "d": 1428.570000000007,
      "v": 127
    },
    {
      "midi": 58,
      "hit": false,
      "t": 137142.71999999997,
      "d": 1482.1413750000065,
      "v": 127
    },
    {
      "midi": 55,
      "hit": false,
      "t": 137142.71999999997,
      "d": 1482.1413750000065,
      "v": 127
    },
    {
      "midi": 70,
      "hit": false,
      "t": 137142.72000000003,
      "d": 1482.1413750000065,
      "v": 100
    },
    {
      "midi": 67,
      "hit": false,
      "t": 137142.72000000003,
      "d": 1482.1413750000065,
      "v": 100
    },
    {
      "midi": 74,
      "hit": false,
      "t": 137142.72000000003,
      "d": 1482.1413750000065,
      "v": 100
    },
    {
      "midi": 70,
      "hit": false,
      "t": 137142.72000000006,
      "d": 1482.1413750000065,
      "v": 100
    },
    {
      "midi": 67,
      "hit": false,
      "t": 137142.72000000006,
      "d": 1482.1413750000065,
      "v": 100
    },
    {
      "midi": 74,
      "hit": false,
      "t": 137142.72000000006,
      "d": 1482.1413750000065,
      "v": 100
    },
    {
      "midi": 82,
      "hit": false,
      "t": 137142.72000000006,
      "d": 767.8563749999739,
      "v": 100
    },
    {
      "midi": 70,
      "hit": false,
      "t": 137142.7200000001,
      "d": 1482.1413750000065,
      "v": 63
    },
    {
      "midi": 67,
      "hit": false,
      "t": 137142.7200000001,
      "d": 1482.1413750000065,
      "v": 63
    },
    {
      "midi": 74,
      "hit": false,
      "t": 137142.7200000001,
      "d": 1482.1413750000065,
      "v": 63
    },
    {
      "midi": 79,
      "hit": false,
      "t": 137857.00500000003,
      "d": 708.33262500001,
      "v": 100
    },
    {
      "midi": 60,
      "hit": false,
      "t": 138571.28999999998,
      "d": 1428.570000000007,
      "v": 127
    },
    {
      "midi": 63,
      "hit": false,
      "t": 138571.28999999998,
      "d": 1428.570000000007,
      "v": 127
    },
    {
      "midi": 56,
      "hit": false,
      "t": 138571.28999999998,
      "d": 1428.570000000007,
      "v": 127
    },
    {
      "midi": 84,
      "hit": false,
      "t": 138571.29000000004,
      "d": 660.713625000004,
      "v": 100
    },
    {
      "midi": 68,
      "hit": false,
      "t": 138571.29000000004,
      "d": 1482.1413750000065,
      "v": 100
    },
    {
      "midi": 68,
      "hit": false,
      "t": 138571.29000000007,
      "d": 1482.1413750000065,
      "v": 100
    },
    {
      "midi": 68,
      "hit": false,
      "t": 138571.2900000001,
      "d": 1482.1413750000065,
      "v": 63
    },
    {
      "midi": 79,
      "hit": false,
      "t": 139285.57500000004,
      "d": 517.8566249999858,
      "v": 100
    },
    {
      "midi": 57,
      "hit": false,
      "t": 139999.86,
      "d": 2916.663750000007,
      "v": 127
    },
    {
      "midi": 63,
      "hit": false,
      "t": 139999.86,
      "d": 2916.663750000007,
      "v": 127
    },
    {
      "midi": 60,
      "hit": false,
      "t": 139999.86,
      "d": 2916.663750000007,
      "v": 127
    },
    {
      "midi": 79,
      "hit": false,
      "t": 139999.86000000002,
      "d": 1220.2368750000023,
      "v": 100
    },
    {
      "midi": 72,
      "hit": false,
      "t": 139999.86000000004,
      "d": 53.571374999999534,
      "v": 100
    },
    {
      "midi": 75,
      "hit": false,
      "t": 139999.86000000004,
      "d": 53.571374999999534,
      "v": 100
    },
    {
      "midi": 69,
      "hit": false,
      "t": 139999.86000000004,
      "d": 2970.2351250000065,
      "v": 100
    },
    {
      "midi": 72,
      "hit": false,
      "t": 139999.86000000007,
      "d": 53.571374999999534,
      "v": 100
    },
    {
      "midi": 75,
      "hit": false,
      "t": 139999.86000000007,
      "d": 53.571374999999534,
      "v": 100
    },
    {
      "midi": 69,
      "hit": false,
      "t": 139999.86000000007,
      "d": 2970.2351249999774,
      "v": 100
    },
    {
      "midi": 72,
      "hit": false,
      "t": 139999.8600000001,
      "d": 53.571374999999534,
      "v": 63
    },
    {
      "midi": 75,
      "hit": false,
      "t": 139999.8600000001,
      "d": 53.571374999999534,
      "v": 63
    },
    {
      "midi": 69,
      "hit": false,
      "t": 139999.8600000001,
      "d": 2970.2351250000065,
      "v": 63
    },
    {
      "midi": 77,
      "hit": false,
      "t": 141071.2875,
      "d": 238.09500000000116,
      "v": 100
    },
    {
      "midi": 77,
      "hit": false,
      "t": 141428.43,
      "d": 1458.3318750000035,
      "v": 100
    },
    {
      "midi": 80,
      "hit": false,
      "t": 142857,
      "d": 1136.9036249999772,
      "v": 100
    },
    {
      "midi": 62,
      "hit": false,
      "t": 142857,
      "d": 2857.139999999985,
      "v": 127
    },
    {
      "midi": 58,
      "hit": false,
      "t": 142857,
      "d": 2857.139999999985,
      "v": 127
    },
    {
      "midi": 65,
      "hit": false,
      "t": 142857,
      "d": 2857.139999999985,
      "v": 127
    },
    {
      "midi": 70,
      "hit": false,
      "t": 142857.00000000006,
      "d": 2970.2351249999774,
      "v": 100
    },
    {
      "midi": 70,
      "hit": false,
      "t": 142857.00000000006,
      "d": 2970.2351249999774,
      "v": 100
    },
    {
      "midi": 70,
      "hit": false,
      "t": 142857.00000000012,
      "d": 2970.2351249999774,
      "v": 63
    },
    {
      "midi": 79,
      "hit": false,
      "t": 143928.4275,
      "d": 238.09499999997206,
      "v": 100
    },
    {
      "midi": 79,
      "hit": false,
      "t": 144285.56999999995,
      "d": 1869.0457499999902,
      "v": 100
    },
    {
      "midi": 62,
      "hit": false,
      "t": 145714.13999999998,
      "d": 2851.1876249999914,
      "v": 127
    },
    {
      "midi": 59,
      "hit": false,
      "t": 145714.13999999998,
      "d": 2851.1876249999914,
      "v": 127
    },
    {
      "midi": 65,
      "hit": false,
      "t": 145714.13999999998,
      "d": 2851.1876249999914,
      "v": 127
    },
    {
      "midi": 74,
      "hit": false,
      "t": 145714.14000000004,
      "d": 113.09512499999255,
      "v": 100
    },
    {
      "midi": 77,
      "hit": false,
      "t": 145714.14000000004,
      "d": 113.09512499999255,
      "v": 100
    },
    {
      "midi": 71,
      "hit": false,
      "t": 145714.14000000004,
      "d": 2970.2351249999774,
      "v": 100
    },
    {
      "midi": 74,
      "hit": false,
      "t": 145714.14000000004,
      "d": 113.09512499999255,
      "v": 100
    },
    {
      "midi": 77,
      "hit": false,
      "t": 145714.14000000004,
      "d": 113.09512499999255,
      "v": 100
    },
    {
      "midi": 71,
      "hit": false,
      "t": 145714.14000000004,
      "d": 2970.2351250000065,
      "v": 100
    },
    {
      "midi": 74,
      "hit": false,
      "t": 145714.1400000001,
      "d": 113.09512499999255,
      "v": 63
    },
    {
      "midi": 77,
      "hit": false,
      "t": 145714.1400000001,
      "d": 113.09512499999255,
      "v": 63
    },
    {
      "midi": 71,
      "hit": false,
      "t": 145714.1400000001,
      "d": 2970.2351249999774,
      "v": 63
    },
    {
      "midi": 48,
      "hit": false,
      "t": 148571.27999999997,
      "d": 5946.42262499989,
      "v": 127
    },
    {
      "midi": 48,
      "hit": false,
      "t": 148571.28000000003,
      "d": 2851.1876249999623,
      "v": 100
    },
    {
      "midi": 48,
      "hit": false,
      "t": 148571.2800000001,
      "d": 2851.1876249999623,
      "v": 50
    },
    {
      "midi": 55,
      "hit": false,
      "t": 148928.42249999996,
      "d": 5583.327749999909,
      "v": 127
    },
    {
      "midi": 55,
      "hit": false,
      "t": 148928.42250000002,
      "d": 2494.045124999975,
      "v": 110
    },
    {
      "midi": 55,
      "hit": false,
      "t": 148928.42250000007,
      "d": 2494.045124999975,
      "v": 50
    },
    {
      "midi": 62,
      "hit": false,
      "t": 149285.56499999994,
      "d": 5214.280499999935,
      "v": 127
    },
    {
      "midi": 62,
      "hit": false,
      "t": 149285.565,
      "d": 2136.902624999988,
      "v": 127
    },
    {
      "midi": 62,
      "hit": false,
      "t": 149285.56500000006,
      "d": 2136.902624999988,
      "v": 50
    },
    {
      "midi": 70,
      "hit": false,
      "t": 149642.70749999993,
      "d": 4845.233249999961,
      "v": 127
    },
    {
      "midi": 70,
      "hit": false,
      "t": 149642.70750000005,
      "d": 1779.7601250000007,
      "v": 50
    },
    {
      "midi": 65,
      "hit": false,
      "t": 149999.84999999992,
      "d": 4476.185999999987,
      "v": 127
    },
    {
      "midi": 65,
      "hit": false,
      "t": 149999.85000000003,
      "d": 1422.6176250000135,
      "v": 50
    }
  ]
}