{
  "jsonPath": "Rock/Mellow Gold/Chris Isaak/speak-of-the-devil-remastered-album-version.json",
  "path": "Rock\\Mellow Gold\\Chris Isaak\\Speak Of the Devil (Remastered Album Version).mid",
  "name": "Speak Of the Devil (Remastered Album Version)",
  "difficulty": "Advanced",
  "bpm": 131.00007641671124,
  "notes": [
    {
      "midi": 52,
      "hit": false,
      "t": 61.06866666666667,
      "d": 1583.968541666667,
      "v": 104
    },
    {
      "midi": 59,
      "hit": false,
      "t": 213.74033333333335,
      "d": 801.5262499999999,
      "v": 93
    },
    {
      "midi": 64,
      "hit": false,
      "t": 442.74783333333335,
      "d": 801.5262500000001,
      "v": 99
    },
    {
      "midi": 68,
      "hit": false,
      "t": 671.7553333333333,
      "d": 1164.1214583333337,
      "v": 99
    },
    {
      "midi": 59,
      "hit": false,
      "t": 1129.7703333333334,
      "d": 320.61050000000023,
      "v": 84
    },
    {
      "midi": 64,
      "hit": false,
      "t": 1358.7778333333335,
      "d": 477.0989583333335,
      "v": 93
    },
    {
      "midi": 59,
      "hit": false,
      "t": 1587.7853333333337,
      "d": 248.09145833333332,
      "v": 84
    },
    {
      "midi": 52,
      "hit": false,
      "t": 1816.7928333333336,
      "d": 19.083958333333385,
      "v": 104
    },
    {
      "midi": 52,
      "hit": false,
      "t": 1835.876791666667,
      "d": 19.083958333333385,
      "v": 84
    },
    {
      "midi": 57,
      "hit": false,
      "t": 1835.876791666667,
      "d": 229.00750000000016,
      "v": 93
    },
    {
      "midi": 61,
      "hit": false,
      "t": 1835.876791666667,
      "d": 267.17541666666693,
      "v": 99
    },
    {
      "midi": 45,
      "hit": false,
      "t": 1835.876791666667,
      "d": 1660.304375000001,
      "v": 104
    },
    {
      "midi": 52,
      "hit": false,
      "t": 2045.8003333333338,
      "d": 801.5262500000006,
      "v": 93
    },
    {
      "midi": 57,
      "hit": false,
      "t": 2274.807833333334,
      "d": 778.6255000000001,
      "v": 93
    },
    {
      "midi": 61,
      "hit": false,
      "t": 2503.8153333333344,
      "d": 1221.3733333333334,
      "v": 93
    },
    {
      "midi": 52,
      "hit": false,
      "t": 2961.8303333333342,
      "d": 305.3433333333337,
      "v": 84
    },
    {
      "midi": 57,
      "hit": false,
      "t": 3190.8378333333344,
      "d": 534.3508333333334,
      "v": 88
    },
    {
      "midi": 52,
      "hit": false,
      "t": 3419.8453333333346,
      "d": 282.44258333333346,
      "v": 88
    },
    {
      "midi": 45,
      "hit": false,
      "t": 3648.8528333333347,
      "d": 57.25187499999993,
      "v": 104
    },
    {
      "midi": 52,
      "hit": false,
      "t": 3706.1047083333347,
      "d": 1622.136458333333,
      "v": 104
    },
    {
      "midi": 64,
      "hit": false,
      "t": 3725.188666666668,
      "d": 167.93883333333315,
      "v": 88
    },
    {
      "midi": 68,
      "hit": false,
      "t": 3725.188666666668,
      "d": 187.0227916666663,
      "v": 93
    },
    {
      "midi": 59,
      "hit": false,
      "t": 3877.8603333333344,
      "d": 782.4422916666658,
      "v": 88
    },
    {
      "midi": 64,
      "hit": false,
      "t": 4106.867833333334,
      "d": 763.3583333333336,
      "v": 93
    },
    {
      "midi": 68,
      "hit": false,
      "t": 4335.875333333333,
      "d": 1202.2893750000012,
      "v": 93
    },
    {
      "midi": 59,
      "hit": false,
      "t": 4793.890333333334,
      "d": 286.25937500000055,
      "v": 88
    },
    {
      "midi": 64,
      "hit": false,
      "t": 5022.897833333334,
      "d": 534.3508333333339,
      "v": 93
    },
    {
      "midi": 59,
      "hit": false,
      "t": 5251.905333333334,
      "d": 248.09145833333423,
      "v": 88
    },
    {
      "midi": 52,
      "hit": false,
      "t": 5480.912833333335,
      "d": 57.25187499999993,
      "v": 99
    },
    {
      "midi": 61,
      "hit": false,
      "t": 5538.164708333335,
      "d": 190.8395833333343,
      "v": 93
    },
    {
      "midi": 45,
      "hit": false,
      "t": 5538.164708333335,
      "d": 1736.640208333335,
      "v": 99
    },
    {
      "midi": 57,
      "hit": false,
      "t": 5557.248666666668,
      "d": 152.67166666666708,
      "v": 93
    },
    {
      "midi": 52,
      "hit": false,
      "t": 5706.103541666668,
      "d": 767.1751250000007,
      "v": 93
    },
    {
      "midi": 57,
      "hit": false,
      "t": 5938.927833333336,
      "d": 740.4575833333338,
      "v": 99
    },
    {
      "midi": 61,
      "hit": false,
      "t": 6167.935333333336,
      "d": 1087.7856250000004,
      "v": 93
    },
    {
      "midi": 52,
      "hit": false,
      "t": 6625.950333333336,
      "d": 286.25937500000055,
      "v": 99
    },
    {
      "midi": 57,
      "hit": false,
      "t": 6854.957833333337,
      "d": 400.7631249999995,
      "v": 99
    },
    {
      "midi": 52,
      "hit": false,
      "t": 7083.965333333336,
      "d": 171.75562499999978,
      "v": 93
    },
    {
      "midi": 45,
      "hit": false,
      "t": 7328.240000000003,
      "d": 22.90074999999979,
      "v": 104
    },
    {
      "midi": 52,
      "hit": false,
      "t": 7351.140750000003,
      "d": 1622.1364583333316,
      "v": 104
    },
    {
      "midi": 59,
      "hit": false,
      "t": 7541.980333333337,
      "d": 801.526249999999,
      "v": 93
    },
    {
      "midi": 64,
      "hit": false,
      "t": 7770.987833333336,
      "d": 801.526249999999,
      "v": 99
    },
    {
      "midi": 68,
      "hit": false,
      "t": 7999.995333333336,
      "d": 1202.2893749999985,
      "v": 99
    },
    {
      "midi": 59,
      "hit": false,
      "t": 8458.010333333335,
      "d": 324.42729166666686,
      "v": 84
    },
    {
      "midi": 64,
      "hit": false,
      "t": 8687.017833333335,
      "d": 515.2668749999993,
      "v": 93
    },
    {
      "midi": 59,
      "hit": false,
      "t": 8916.025333333335,
      "d": 286.25937499999964,
      "v": 84
    },
    {
      "midi": 52,
      "hit": false,
      "t": 9145.032833333335,
      "d": 38.167916666667224,
      "v": 104
    },
    {
      "midi": 45,
      "hit": false,
      "t": 9183.200750000002,
      "d": 1641.2204166666634,
      "v": 104
    },
    {
      "midi": 57,
      "hit": false,
      "t": 9202.284708333334,
      "d": 187.0227916666663,
      "v": 93
    },
    {
      "midi": 61,
      "hit": false,
      "t": 9202.284708333334,
      "d": 225.19070833333353,
      "v": 99
    },
    {
      "midi": 52,
      "hit": false,
      "t": 9374.040333333334,
      "d": 801.526249999999,
      "v": 93
    },
    {
      "midi": 57,
      "hit": false,
      "t": 9603.047833333334,
      "d": 782.4422916666663,
      "v": 93
    },
    {
      "midi": 61,
      "hit": false,
      "t": 9832.055333333334,
      "d": 1202.2893749999985,
      "v": 93
    },
    {
      "midi": 52,
      "hit": false,
      "t": 10290.070333333333,
      "d": 305.34333333333234,
      "v": 84
    },
    {
      "midi": 57,
      "hit": false,
      "t": 10519.077833333333,
      "d": 515.2668749999993,
      "v": 88
    },
    {
      "midi": 52,
      "hit": false,
      "t": 10748.085333333333,
      "d": 286.25937499999964,
      "v": 88
    },
    {
      "midi": 45,
      "hit": false,
      "t": 10977.092833333332,
      "d": 57.25187499999993,
      "v": 104
    },
    {
      "midi": 64,
      "hit": false,
      "t": 11034.344708333332,
      "d": 190.83958333333248,
      "v": 88
    },
    {
      "midi": 68,
      "hit": false,
      "t": 11034.344708333332,
      "d": 209.9235416666652,
      "v": 93
    },
    {
      "midi": 52,
      "hit": false,
      "t": 11034.344708333332,
      "d": 1603.0524999999961,
      "v": 104
    },
    {
      "midi": 59,
      "hit": false,
      "t": 11206.100333333332,
      "d": 782.4422916666645,
      "v": 88
    },
    {
      "midi": 64,
      "hit": false,
      "t": 11435.10783333333,
      "d": 763.3583333333318,
      "v": 93
    },
    {
      "midi": 68,
      "hit": false,
      "t": 11664.11533333333,
      "d": 1183.2054166666658,
      "v": 93
    },
    {
      "midi": 59,
      "hit": false,
      "t": 12122.130333333329,
      "d": 286.25937499999964,
      "v": 88
    },
    {
      "midi": 64,
      "hit": false,
      "t": 12351.137833333329,
      "d": 496.18291666666664,
      "v": 93
    },
    {
      "midi": 59,
      "hit": false,
      "t": 12580.145333333328,
      "d": 229.0074999999997,
      "v": 88
    },
    {
      "midi": 52,
      "hit": false,
      "t": 12809.152833333328,
      "d": 38.167916666667224,
      "v": 99
    },
    {
      "midi": 61,
      "hit": false,
      "t": 12847.320749999995,
      "d": 209.9235416666652,
      "v": 93
    },
    {
      "midi": 45,
      "hit": false,
      "t": 12847.320749999995,
      "d": 1755.724166666665,
      "v": 99
    },
    {
      "midi": 57,
      "hit": false,
      "t": 12866.404708333328,
      "d": 171.75562499999978,
      "v": 93
    },
    {
      "midi": 52,
      "hit": false,
      "t": 13038.160333333328,
      "d": 763.3583333333336,
      "v": 93
    },
    {
      "midi": 57,
      "hit": false,
      "t": 13267.167833333328,
      "d": 744.2743750000009,
      "v": 99
    },
    {
      "midi": 61,
      "hit": false,
      "t": 13496.175333333327,
      "d": 1083.9688333333343,
      "v": 93
    },
    {
      "midi": 52,
      "hit": false,
      "t": 13954.190333333328,
      "d": 267.17541666666693,
      "v": 99
    },
    {
      "midi": 57,
      "hit": false,
      "t": 14183.197833333328,
      "d": 400.7631249999995,
      "v": 99
    },
    {
      "midi": 52,
      "hit": false,
      "t": 14412.205333333328,
      "d": 171.75562499999978,
      "v": 93
    },
    {
      "midi": 45,
      "hit": false,
      "t": 14641.212833333328,
      "d": 19.083958333332703,
      "v": 104
    },
    {
      "midi": 52,
      "hit": false,
      "t": 14660.29679166666,
      "d": 1641.2204166666652,
      "v": 104
    },
    {
      "midi": 59,
      "hit": false,
      "t": 14870.220333333327,
      "d": 801.526249999999,
      "v": 93
    },
    {
      "midi": 64,
      "hit": false,
      "t": 15099.227833333327,
      "d": 801.526249999999,
      "v": 99
    },
    {
      "midi": 68,
      "hit": false,
      "t": 15328.235333333327,
      "d": 1125.9535416666658,
      "v": 99
    },
    {
      "midi": 59,
      "hit": false,
      "t": 15786.250333333326,
      "d": 324.42729166666686,
      "v": 84
    },
    {
      "midi": 64,
      "hit": false,
      "t": 16015.257833333326,
      "d": 419.847083333334,
      "v": 93
    },
    {
      "midi": 59,
      "hit": false,
      "t": 16244.265333333326,
      "d": 209.923541666667,
      "v": 84
    },
    {
      "midi": 57,
      "hit": false,
      "t": 16435.10491666666,
      "d": 286.2593749999978,
      "v": 93
    },
    {
      "midi": 52,
      "hit": false,
      "t": 16454.188874999993,
      "d": 57.25187499999811,
      "v": 84
    },
    {
      "midi": 61,
      "hit": false,
      "t": 16454.188874999993,
      "d": 305.3433333333305,
      "v": 99
    },
    {
      "midi": 45,
      "hit": false,
      "t": 16473.272833333325,
      "d": 1679.3883333333324,
      "v": 104
    },
    {
      "midi": 52,
      "hit": false,
      "t": 16702.280333333325,
      "d": 801.526249999999,
      "v": 93
    },
    {
      "midi": 57,
      "hit": false,
      "t": 16931.287833333325,
      "d": 782.4422916666663,
      "v": 93
    },
    {
      "midi": 61,
      "hit": false,
      "t": 17160.295333333324,
      "d": 1202.2893750000003,
      "v": 93
    },
    {
      "midi": 52,
      "hit": false,
      "t": 17618.310333333324,
      "d": 305.34333333333416,
      "v": 84
    },
    {
      "midi": 57,
      "hit": false,
      "t": 17847.317833333324,
      "d": 496.18291666666846,
      "v": 88
    },
    {
      "midi": 52,
      "hit": false,
      "t": 18076.325333333323,
      "d": 286.25937500000146,
      "v": 88
    },
    {
      "midi": 45,
      "hit": false,
      "t": 18324.41679166666,
      "d": 38.167916666665406,
      "v": 104
    },
    {
      "midi": 64,
      "hit": false,
      "t": 18343.500749999992,
      "d": 209.923541666667,
      "v": 88
    },
    {
      "midi": 68,
      "hit": false,
      "t": 18362.584708333325,
      "d": 209.923541666667,
      "v": 93
    },
    {
      "midi": 52,
      "hit": false,
      "t": 18362.584708333325,
      "d": 1603.0525000000052,
      "v": 104
    },
    {
      "midi": 59,
      "hit": false,
      "t": 18534.340333333326,
      "d": 782.4422916666663,
      "v": 88
    },
    {
      "midi": 64,
      "hit": false,
      "t": 18763.347833333326,
      "d": 763.3583333333336,
      "v": 93
    },
    {
      "midi": 68,
      "hit": false,
      "t": 18992.355333333326,
      "d": 1164.1214583333385,
      "v": 93
    },
    {
      "midi": 59,
      "hit": false,
      "t": 19450.370333333325,
      "d": 282.4425833333371,
      "v": 88
    },
    {
      "midi": 64,
      "hit": false,
      "t": 19698.46179166666,
      "d": 458.01500000000306,
      "v": 93
    },
    {
      "midi": 59,
      "hit": false,
      "t": 19908.385333333328,
      "d": 229.00750000000335,
      "v": 88
    },
    {
      "midi": 52,
      "hit": false,
      "t": 20137.39283333333,
      "d": 38.167916666665406,
      "v": 99
    },
    {
      "midi": 57,
      "hit": false,
      "t": 20156.476791666664,
      "d": 209.923541666667,
      "v": 93
    },
    {
      "midi": 61,
      "hit": false,
      "t": 20175.560749999997,
      "d": 225.19070833333535,
      "v": 93
    },
    {
      "midi": 45,
      "hit": false,
      "t": 20175.560749999997,
      "d": 1755.7241666666705,
      "v": 99
    },
    {
      "midi": 52,
      "hit": false,
      "t": 20366.40033333333,
      "d": 763.3583333333336,
      "v": 93
    },
    {
      "midi": 57,
      "hit": false,
      "t": 20595.40783333333,
      "d": 740.4575833333329,
      "v": 99
    },
    {
      "midi": 61,
      "hit": false,
      "t": 20824.41533333333,
      "d": 1087.785625000004,
      "v": 93
    },
    {
      "midi": 52,
      "hit": false,
      "t": 21282.43033333333,
      "d": 286.25937500000146,
      "v": 99
    },
    {
      "midi": 57,
      "hit": false,
      "t": 21511.43783333333,
      "d": 400.76312500000495,
      "v": 99
    },
    {
      "midi": 52,
      "hit": false,
      "t": 21740.445333333333,
      "d": 171.7556250000016,
      "v": 93
    },
    {
      "midi": 45,
      "hit": false,
      "t": 21969.452833333333,
      "d": 57.251875000001746,
      "v": 104
    },
    {
      "midi": 52,
      "hit": false,
      "t": 22026.704708333335,
      "d": 1603.052499999998,
      "v": 104
    },
    {
      "midi": 59,
      "hit": false,
      "t": 22198.460333333336,
      "d": 801.526249999999,
      "v": 93
    },
    {
      "midi": 64,
      "hit": false,
      "t": 22427.467833333336,
      "d": 820.6102083333317,
      "v": 99
    },
    {
      "midi": 68,
      "hit": false,
      "t": 22656.475333333336,
      "d": 1183.2054166666676,
      "v": 99
    },
    {
      "midi": 59,
      "hit": false,
      "t": 23114.490333333335,
      "d": 324.4272916666632,
      "v": 84
    },
    {
      "midi": 64,
      "hit": false,
      "t": 23358.765,
      "d": 477.09895833333576,
      "v": 93
    },
    {
      "midi": 59,
      "hit": false,
      "t": 23572.50533333333,
      "d": 267.1754166666724,
      "v": 84
    },
    {
      "midi": 52,
      "hit": false,
      "t": 23801.512833333334,
      "d": 38.16791666666904,
      "v": 104
    },
    {
      "midi": 52,
      "hit": false,
      "t": 23839.680750000003,
      "d": 19.083958333332703,
      "v": 84
    },
    {
      "midi": 57,
      "hit": false,
      "t": 23839.680750000003,
      "d": 229.0074999999997,
      "v": 93
    },
    {
      "midi": 61,
      "hit": false,
      "t": 23839.680750000003,
      "d": 248.0914583333324,
      "v": 99
    },
    {
      "midi": 45,
      "hit": false,
      "t": 23858.764708333336,
      "d": 1618.3196666666663,
      "v": 104
    },
    {
      "midi": 52,
      "hit": false,
      "t": 24030.520333333337,
      "d": 801.526249999999,
      "v": 93
    },
    {
      "midi": 57,
      "hit": false,
      "t": 24259.527833333337,
      "d": 782.4422916666663,
      "v": 93
    },
    {
      "midi": 61,
      "hit": false,
      "t": 24488.535333333337,
      "d": 1202.2893750000003,
      "v": 93
    },
    {
      "midi": 52,
      "hit": false,
      "t": 24946.550333333336,
      "d": 305.34333333333416,
      "v": 84
    },
    {
      "midi": 57,
      "hit": false,
      "t": 25175.557833333336,
      "d": 492.36612500000047,
      "v": 88
    },
    {
      "midi": 52,
      "hit": false,
      "t": 25404.565333333336,
      "d": 286.25937500000146,
      "v": 88
    },
    {
      "midi": 45,
      "hit": false,
      "t": 25633.572833333335,
      "d": 57.251875000001746,
      "v": 104
    },
    {
      "midi": 59,
      "hit": false,
      "t": 25671.740750000004,
      "d": 206.106749999999,
      "v": 88
    },
    {
      "midi": 54,
      "hit": false,
      "t": 25690.824708333337,
      "d": 19.083958333332703,
      "v": 88
    },
    {
      "midi": 63,
      "hit": false,
      "t": 25690.824708333337,
      "d": 206.106749999999,
      "v": 93
    },
    {
      "midi": 47,
      "hit": false,
      "t": 25690.824708333337,
      "d": 1603.052499999998,
      "v": 104
    },
    {
      "midi": 54,
      "hit": false,
      "t": 25862.580333333335,
      "d": 782.4422916666663,
      "v": 88
    },
    {
      "midi": 59,
      "hit": false,
      "t": 26091.587833333335,
      "d": 763.3583333333336,
      "v": 93
    },
    {
      "midi": 63,
      "hit": false,
      "t": 26320.595333333335,
      "d": 1389.3121666666702,
      "v": 93
    },
    {
      "midi": 54,
      "hit": false,
      "t": 26778.610333333334,
      "d": 282.44258333333346,
      "v": 88
    },
    {
      "midi": 59,
      "hit": false,
      "t": 27007.617833333334,
      "d": 687.0225000000028,
      "v": 93
    },
    {
      "midi": 54,
      "hit": false,
      "t": 27236.625333333333,
      "d": 229.00750000000335,
      "v": 88
    },
    {
      "midi": 47,
      "hit": false,
      "t": 27465.632833333337,
      "d": 1793.8920833333395,
      "v": 99
    },
    {
      "midi": 54,
      "hit": false,
      "t": 27694.640333333336,
      "d": 763.3583333333372,
      "v": 93
    },
    {
      "midi": 59,
      "hit": false,
      "t": 27923.64783333334,
      "d": 744.2743750000009,
      "v": 99
    },
    {
      "midi": 63,
      "hit": false,
      "t": 28152.65533333334,
      "d": 1083.968833333336,
      "v": 93
    },
    {
      "midi": 54,
      "hit": false,
      "t": 28610.67033333334,
      "d": 267.17541666666875,
      "v": 99
    },
    {
      "midi": 59,
      "hit": false,
      "t": 28858.761791666675,
      "d": 381.6791666666686,
      "v": 99
    },
    {
      "midi": 54,
      "hit": false,
      "t": 29068.685333333342,
      "d": 171.7556250000016,
      "v": 93
    },
    {
      "midi": 47,
      "hit": false,
      "t": 29297.69283333334,
      "d": 19.083958333332703,
      "v": 104
    },
    {
      "midi": 52,
      "hit": false,
      "t": 29316.776791666674,
      "d": 1641.220416666667,
      "v": 104
    },
    {
      "midi": 59,
      "hit": false,
      "t": 29526.70033333334,
      "d": 801.526249999999,
      "v": 93
    },
    {
      "midi": 64,
      "hit": false,
      "t": 29755.70783333334,
      "d": 801.526249999999,
      "v": 99
    },
    {
      "midi": 68,
      "hit": false,
      "t": 29984.71533333334,
      "d": 1164.1214583333349,
      "v": 99
    },
    {
      "midi": 59,
      "hit": false,
      "t": 30442.73033333334,
      "d": 324.42729166666686,
      "v": 84
    },
    {
      "midi": 64,
      "hit": false,
      "t": 30671.73783333334,
      "d": 458.01500000000306,
      "v": 93
    },
    {
      "midi": 59,
      "hit": false,
      "t": 30900.74533333334,
      "d": 248.09145833333605,
      "v": 84
    },
    {
      "midi": 52,
      "hit": false,
      "t": 31129.752833333343,
      "d": 19.083958333332703,
      "v": 104
    },
    {
      "midi": 57,
      "hit": false,
      "t": 31129.752833333343,
      "d": 248.0914583333324,
      "v": 93
    },
    {
      "midi": 52,
      "hit": false,
      "t": 31148.836791666676,
      "d": 19.083958333332703,
      "v": 84
    },
    {
      "midi": 61,
      "hit": false,
      "t": 31148.836791666676,
      "d": 263.35862500000076,
      "v": 99
    },
    {
      "midi": 45,
      "hit": false,
      "t": 31148.836791666676,
      "d": 1660.3043749999997,
      "v": 104
    },
    {
      "midi": 52,
      "hit": false,
      "t": 31358.760333333343,
      "d": 797.709458333331,
      "v": 93
    },
    {
      "midi": 57,
      "hit": false,
      "t": 31606.851791666675,
      "d": 763.3583333333336,
      "v": 93
    },
    {
      "midi": 61,
      "hit": false,
      "t": 31816.775333333342,
      "d": 1202.2893749999967,
      "v": 93
    },
    {
      "midi": 52,
      "hit": false,
      "t": 32274.79033333334,
      "d": 324.42729166666686,
      "v": 84
    },
    {
      "midi": 57,
      "hit": false,
      "t": 32522.881791666674,
      "d": 477.09895833333576,
      "v": 88
    },
    {
      "midi": 52,
      "hit": false,
      "t": 32732.80533333334,
      "d": 282.44258333333346,
      "v": 88
    },
    {
      "midi": 45,
      "hit": false,
      "t": 32961.812833333344,
      "d": 38.167916666665406,
      "v": 104
    },
    {
      "midi": 64,
      "hit": false,
      "t": 32999.98075000001,
      "d": 209.92354166667064,
      "v": 88
    },
    {
      "midi": 59,
      "hit": false,
      "t": 33019.06470833334,
      "d": 19.08395833333634,
      "v": 88
    },
    {
      "midi": 68,
      "hit": false,
      "t": 33019.06470833334,
      "d": 206.1067500000063,
      "v": 93
    },
    {
      "midi": 52,
      "hit": false,
      "t": 33019.06470833334,
      "d": 1599.2357083333336,
      "v": 104
    },
    {
      "midi": 59,
      "hit": false,
      "t": 33190.820333333344,
      "d": 782.4422916666663,
      "v": 88
    },
    {
      "midi": 64,
      "hit": false,
      "t": 33419.827833333344,
      "d": 763.3583333333299,
      "v": 93
    },
    {
      "midi": 68,
      "hit": false,
      "t": 33648.83533333334,
      "d": 1164.1214583333276,
      "v": 93
    },
    {
      "midi": 59,
      "hit": false,
      "t": 34106.85033333334,
      "d": 286.25937500000146,
      "v": 88
    },
    {
      "midi": 64,
      "hit": false,
      "t": 34335.85783333334,
      "d": 496.1829166666648,
      "v": 93
    },
    {
      "midi": 59,
      "hit": false,
      "t": 34564.86533333334,
      "d": 244.27466666666442,
      "v": 88
    },
    {
      "midi": 52,
      "hit": false,
      "t": 34793.87283333334,
      "d": 38.167916666665406,
      "v": 99
    },
    {
      "midi": 61,
      "hit": false,
      "t": 34812.95679166667,
      "d": 229.00750000000698,
      "v": 93
    },
    {
      "midi": 57,
      "hit": false,
      "t": 34832.04075000001,
      "d": 190.8395833333343,
      "v": 93
    },
    {
      "midi": 45,
      "hit": false,
      "t": 34832.04075000001,
      "d": 1755.7241666666669,
      "v": 99
    },
    {
      "midi": 52,
      "hit": false,
      "t": 35022.88033333334,
      "d": 759.5415416666656,
      "v": 93
    },
    {
      "midi": 57,
      "hit": false,
      "t": 35251.88783333334,
      "d": 744.2743750000009,
      "v": 99
    },
    {
      "midi": 61,
      "hit": false,
      "t": 35480.89533333334,
      "d": 1087.7856249999968,
      "v": 93
    },
    {
      "midi": 52,
      "hit": false,
      "t": 35938.91033333334,
      "d": 286.25937500000146,
      "v": 99
    },
    {
      "midi": 57,
      "hit": false,
      "t": 36167.91783333334,
      "d": 400.7631249999977,
      "v": 99
    },
    {
      "midi": 52,
      "hit": false,
      "t": 36396.92533333334,
      "d": 171.75562499999796,
      "v": 93
    },
    {
      "midi": 45,
      "hit": false,
      "t": 36645.016791666676,
      "d": 38.167916666665406,
      "v": 104
    },
    {
      "midi": 52,
      "hit": false,
      "t": 36683.18470833334,
      "d": 1603.052499999998,
      "v": 104
    },
    {
      "midi": 59,
      "hit": false,
      "t": 36854.94033333334,
      "d": 797.709458333331,
      "v": 93
    },
    {
      "midi": 64,
      "hit": false,
      "t": 37083.94783333334,
      "d": 801.5262500000026,
      "v": 99
    },
    {
      "midi": 68,
      "hit": false,
      "t": 37312.95533333334,
      "d": 1164.1214583333276,
      "v": 99
    },
    {
      "midi": 59,
      "hit": false,
      "t": 37770.97033333334,
      "d": 320.6105000000025,
      "v": 84
    },
    {
      "midi": 64,
      "hit": false,
      "t": 38019.061791666674,
      "d": 438.9310416666631,
      "v": 93
    },
    {
      "midi": 59,
      "hit": false,
      "t": 38228.98533333334,
      "d": 248.09145833332877,
      "v": 84
    },
    {
      "midi": 52,
      "hit": false,
      "t": 38457.99283333334,
      "d": 19.083958333329065,
      "v": 104
    },
    {
      "midi": 57,
      "hit": false,
      "t": 38473.26,
      "d": 248.09145833333605,
      "v": 93
    },
    {
      "midi": 52,
      "hit": false,
      "t": 38477.07679166667,
      "d": 19.08395833333634,
      "v": 84
    },
    {
      "midi": 61,
      "hit": false,
      "t": 38477.07679166667,
      "d": 267.1754166666724,
      "v": 99
    },
    {
      "midi": 45,
      "hit": false,
      "t": 38477.07679166667,
      "d": 1660.304375000007,
      "v": 104
    },
    {
      "midi": 52,
      "hit": false,
      "t": 38687.00033333334,
      "d": 801.5262500000026,
      "v": 93
    },
    {
      "midi": 57,
      "hit": false,
      "t": 38916.00783333334,
      "d": 782.4422916666736,
      "v": 93
    },
    {
      "midi": 61,
      "hit": false,
      "t": 39145.01533333334,
      "d": 1202.2893750000003,
      "v": 93
    },
    {
      "midi": 52,
      "hit": false,
      "t": 39603.03033333334,
      "d": 305.3433333333305,
      "v": 84
    },
    {
      "midi": 57,
      "hit": false,
      "t": 39832.03783333334,
      "d": 515.2668749999939,
      "v": 88
    },
    {
      "midi": 52,
      "hit": false,
      "t": 40061.04533333334,
      "d": 286.2593749999942,
      "v": 88
    },
    {
      "midi": 45,
      "hit": false,
      "t": 40290.05283333334,
      "d": 38.167916666665406,
      "v": 104
    },
    {
      "midi": 47,
      "hit": false,
      "t": 40343.48791666667,
      "d": 1606.8692916666623,
      "v": 104
    },
    {
      "midi": 54,
      "hit": false,
      "t": 40347.30470833334,
      "d": 15.267166666664707,
      "v": 88
    },
    {
      "midi": 59,
      "hit": false,
      "t": 40347.30470833334,
      "d": 187.02279166666267,
      "v": 88
    },
    {
      "midi": 63,
      "hit": false,
      "t": 40347.30470833334,
      "d": 209.92354166666337,
      "v": 93
    },
    {
      "midi": 54,
      "hit": false,
      "t": 40519.060333333335,
      "d": 782.4422916666663,
      "v": 88
    },
    {
      "midi": 59,
      "hit": false,
      "t": 40748.067833333334,
      "d": 759.5415416666656,
      "v": 93
    },
    {
      "midi": 63,
      "hit": false,
      "t": 40977.075333333334,
      "d": 1412.2129166666637,
      "v": 93
    },
    {
      "midi": 54,
      "hit": false,
      "t": 41435.09033333333,
      "d": 286.25937500000146,
      "v": 88
    },
    {
      "midi": 59,
      "hit": false,
      "t": 41664.09783333333,
      "d": 687.0224999999991,
      "v": 93
    },
    {
      "midi": 54,
      "hit": false,
      "t": 41893.10533333333,
      "d": 248.09145833333605,
      "v": 88
    },
    {
      "midi": 47,
      "hit": false,
      "t": 42122.11283333333,
      "d": 1793.8920833333323,
      "v": 99
    },
    {
      "midi": 54,
      "hit": false,
      "t": 42351.12033333333,
      "d": 763.3583333333299,
      "v": 93
    },
    {
      "midi": 59,
      "hit": false,
      "t": 42576.31104166667,
      "d": 744.2743749999936,
      "v": 99
    },
    {
      "midi": 63,
      "hit": false,
      "t": 42809.13533333333,
      "d": 1087.7856249999968,
      "v": 93
    },
    {
      "midi": 54,
      "hit": false,
      "t": 43267.15033333333,
      "d": 267.1754166666651,
      "v": 99
    },
    {
      "midi": 59,
      "hit": false,
      "t": 43496.15783333333,
      "d": 400.7631249999977,
      "v": 99
    },
    {
      "midi": 54,
      "hit": false,
      "t": 43725.16533333333,
      "d": 171.75562499999796,
      "v": 93
    },
    {
      "midi": 47,
      "hit": false,
      "t": 43954.17283333333,
      "d": 57.251875000001746,
      "v": 104
    },
    {
      "midi": 45,
      "hit": false,
      "t": 44011.42470833333,
      "d": 1603.052499999998,
      "v": 104
    },
    {
      "midi": 52,
      "hit": false,
      "t": 44183.18033333333,
      "d": 797.709458333331,
      "v": 93
    },
    {
      "midi": 57,
      "hit": false,
      "t": 44412.18783333333,
      "d": 797.709458333331,
      "v": 99
    },
    {
      "midi": 61,
      "hit": false,
      "t": 44641.19533333333,
      "d": 1431.2968749999927,
      "v": 99
    },
    {
      "midi": 52,
      "hit": false,
      "t": 45099.21033333333,
      "d": 324.42729166666686,
      "v": 84
    },
    {
      "midi": 57,
      "hit": false,
      "t": 45328.21783333333,
      "d": 702.2896666666638,
      "v": 93
    },
    {
      "midi": 52,
      "hit": false,
      "t": 45557.22533333333,
      "d": 263.35862500000076,
      "v": 84
    },
    {
      "midi": 45,
      "hit": false,
      "t": 45786.23283333333,
      "d": 1679.3883333333215,
      "v": 104
    },
    {
      "midi": 52,
      "hit": false,
      "t": 46015.24033333333,
      "d": 797.7094583333237,
      "v": 93
    },
    {
      "midi": 57,
      "hit": false,
      "t": 46244.24783333332,
      "d": 782.4422916666663,
      "v": 93
    },
    {
      "midi": 61,
      "hit": false,
      "t": 46473.25533333332,
      "d": 1164.1214583333349,
      "v": 93
    },
    {
      "midi": 52,
      "hit": false,
      "t": 46931.27033333332,
      "d": 305.3433333333305,
      "v": 84
    },
    {
      "midi": 57,
      "hit": false,
      "t": 47160.27783333332,
      "d": 477.09895833333576,
      "v": 88
    },
    {
      "midi": 52,
      "hit": false,
      "t": 47389.28533333332,
      "d": 267.1754166666724,
      "v": 88
    },
    {
      "midi": 45,
      "hit": false,
      "t": 47618.29283333332,
      "d": 38.16791666667268,
      "v": 104
    },
    {
      "midi": 64,
      "hit": false,
      "t": 47637.376791666655,
      "d": 225.19070833333535,
      "v": 88
    },
    {
      "midi": 68,
      "hit": false,
      "t": 47637.376791666655,
      "d": 248.09145833333605,
      "v": 93
    },
    {
      "midi": 59,
      "hit": false,
      "t": 47656.46074999999,
      "d": 19.08395833333634,
      "v": 88
    },
    {
      "midi": 52,
      "hit": false,
      "t": 47656.46074999999,
      "d": 1622.1364583333343,
      "v": 104
    },
    {
      "midi": 59,
      "hit": false,
      "t": 47847.300333333325,
      "d": 782.4422916666663,
      "v": 88
    },
    {
      "midi": 64,
      "hit": false,
      "t": 48076.307833333325,
      "d": 759.5415416666656,
      "v": 93
    },
    {
      "midi": 68,
      "hit": false,
      "t": 48305.315333333325,
      "d": 1389.312166666663,
      "v": 93
    },
    {
      "midi": 59,
      "hit": false,
      "t": 48763.330333333324,
      "d": 286.25937500000146,
      "v": 88
    },
    {
      "midi": 64,
      "hit": false,
      "t": 48992.337833333324,
      "d": 687.0224999999991,
      "v": 93
    },
    {
      "midi": 59,
      "hit": false,
      "t": 49221.345333333324,
      "d": 229.0074999999997,
      "v": 88
    },
    {
      "midi": 52,
      "hit": false,
      "t": 49450.35283333332,
      "d": 1793.8920833333323,
      "v": 99
    },
    {
      "midi": 59,
      "hit": false,
      "t": 49679.36033333332,
      "d": 759.5415416666656,
      "v": 93
    },
    {
      "midi": 64,
      "hit": false,
      "t": 49908.36783333332,
      "d": 744.2743750000009,
      "v": 99
    },
    {
      "midi": 68,
      "hit": false,
      "t": 50137.37533333332,
      "d": 1087.7856249999968,
      "v": 93
    },
    {
      "midi": 59,
      "hit": false,
      "t": 50595.39033333332,
      "d": 286.25937500000146,
      "v": 99
    },
    {
      "midi": 64,
      "hit": false,
      "t": 50824.39783333332,
      "d": 400.7631249999977,
      "v": 99
    },
    {
      "midi": 59,
      "hit": false,
      "t": 51053.40533333332,
      "d": 171.75562499999796,
      "v": 93
    },
    {
      "midi": 52,
      "hit": false,
      "t": 51282.41283333332,
      "d": 19.08395833333634,
      "v": 104
    },
    {
      "midi": 45,
      "hit": false,
      "t": 51301.49679166666,
      "d": 1637.4036250000063,
      "v": 104
    },
    {
      "midi": 52,
      "hit": false,
      "t": 51511.42033333332,
      "d": 801.5262500000026,
      "v": 93
    },
    {
      "midi": 57,
      "hit": false,
      "t": 51740.42783333332,
      "d": 801.5262500000099,
      "v": 99
    },
    {
      "midi": 61,
      "hit": false,
      "t": 51969.43533333332,
      "d": 1202.2893750000148,
      "v": 99
    },
    {
      "midi": 52,
      "hit": false,
      "t": 52427.45033333333,
      "d": 324.42729166667414,
      "v": 84
    },
    {
      "midi": 57,
      "hit": false,
      "t": 52656.457833333334,
      "d": 515.2668750000012,
      "v": 93
    },
    {
      "midi": 52,
      "hit": false,
      "t": 52885.46533333333,
      "d": 267.1754166666651,
      "v": 84
    },
    {
      "midi": 45,
      "hit": false,
      "t": 53114.47283333333,
      "d": 57.251875000001746,
      "v": 104
    },
    {
      "midi": 57,
      "hit": false,
      "t": 53171.724708333335,
      "d": 229.00750000000698,
      "v": 99
    },
    {
      "midi": 42,
      "hit": false,
      "t": 53171.724708333335,
      "d": 1618.3196666666772,
      "v": 104
    },
    {
      "midi": 54,
      "hit": false,
      "t": 53190.80866666667,
      "d": 171.75562500000524,
      "v": 93
    },
    {
      "midi": 49,
      "hit": false,
      "t": 53343.48033333334,
      "d": 801.5262500000026,
      "v": 93
    },
    {
      "midi": 54,
      "hit": false,
      "t": 53572.48783333334,
      "d": 782.4422916666736,
      "v": 93
    },
    {
      "midi": 57,
      "hit": false,
      "t": 53801.49533333334,
      "d": 1183.2054166666785,
      "v": 93
    },
    {
      "midi": 49,
      "hit": false,
      "t": 54259.510333333346,
      "d": 305.3433333333305,
      "v": 84
    },
    {
      "midi": 54,
      "hit": false,
      "t": 54488.517833333346,
      "d": 477.09895833333576,
      "v": 88
    },
    {
      "midi": 49,
      "hit": false,
      "t": 54717.525333333346,
      "d": 267.1754166666724,
      "v": 88
    },
    {
      "midi": 42,
      "hit": false,
      "t": 54965.61679166668,
      "d": 34.35112500000105,
      "v": 104
    },
    {
      "midi": 54,
      "hit": false,
      "t": 54984.70075000002,
      "d": 19.083958333329065,
      "v": 88
    },
    {
      "midi": 59,
      "hit": false,
      "t": 54984.70075000002,
      "d": 209.92354166666337,
      "v": 88
    },
    {
      "midi": 63,
      "hit": false,
      "t": 54984.70075000002,
      "d": 229.0074999999997,
      "v": 93
    },
    {
      "midi": 47,
      "hit": false,
      "t": 55003.78470833335,
      "d": 1599.2357083333336,
      "v": 104
    },
    {
      "midi": 54,
      "hit": false,
      "t": 55175.540333333345,
      "d": 782.4422916666736,
      "v": 88
    },
    {
      "midi": 59,
      "hit": false,
      "t": 55404.54783333335,
      "d": 763.3583333333299,
      "v": 93
    },
    {
      "midi": 63,
      "hit": false,
      "t": 55633.55533333335,
      "d": 1393.1289583333346,
      "v": 93
    },
    {
      "midi": 54,
      "hit": false,
      "t": 56091.57033333335,
      "d": 286.25937500000146,
      "v": 88
    },
    {
      "midi": 59,
      "hit": false,
      "t": 56320.57783333335,
      "d": 687.0224999999991,
      "v": 93
    },
    {
      "midi": 54,
      "hit": false,
      "t": 56549.58533333335,
      "d": 248.09145833333605,
      "v": 88
    },
    {
      "midi": 47,
      "hit": false,
      "t": 56778.59283333335,
      "d": 1793.8920833333323,
      "v": 99
    },
    {
      "midi": 54,
      "hit": false,
      "t": 57007.60033333335,
      "d": 763.3583333333299,
      "v": 93
    },
    {
      "midi": 59,
      "hit": false,
      "t": 57236.60783333335,
      "d": 744.2743750000009,
      "v": 99
    },
    {
      "midi": 63,
      "hit": false,
      "t": 57465.61533333335,
      "d": 1083.9688333333324,
      "v": 93
    },
    {
      "midi": 54,
      "hit": false,
      "t": 57923.63033333335,
      "d": 286.25937500000146,
      "v": 99
    },
    {
      "midi": 59,
      "hit": false,
      "t": 58167.90500000002,
      "d": 385.4959583333257,
      "v": 99
    },
    {
      "midi": 54,
      "hit": false,
      "t": 58381.64533333335,
      "d": 171.75562499999796,
      "v": 93
    },
    {
      "midi": 47,
      "hit": false,
      "t": 58610.65283333335,
      "d": 38.167916666665406,
      "v": 104
    },
    {
      "midi": 52,
      "hit": false,
      "t": 58667.90470833335,
      "d": 1599.2357083333336,
      "v": 104
    },
    {
      "midi": 59,
      "hit": false,
      "t": 58839.66033333335,
      "d": 801.5262500000026,
      "v": 93
    },
    {
      "midi": 64,
      "hit": false,
      "t": 59068.66783333335,
      "d": 797.7094583333383,
      "v": 99
    },
    {
      "midi": 68,
      "hit": false,
      "t": 59297.67533333335,
      "d": 1164.1214583333422,
      "v": 99
    },
    {
      "midi": 59,
      "hit": false,
      "t": 59755.690333333354,
      "d": 320.6105000000025,
      "v": 84
    },
    {
      "midi": 64,
      "hit": false,
      "t": 59984.69783333335,
      "d": 477.09895833333576,
      "v": 93
    },
    {
      "midi": 59,
      "hit": false,
      "t": 60213.70533333335,
      "d": 248.09145833333605,
      "v": 84
    },
    {
      "midi": 52,
      "hit": false,
      "t": 60442.71283333335,
      "d": 19.08395833333634,
      "v": 104
    },
    {
      "midi": 49,
      "hit": false,
      "t": 60461.79679166669,
      "d": 19.08395833333634,
      "v": 84
    },
    {
      "midi": 57,
      "hit": false,
      "t": 60461.79679166669,
      "d": 267.1754166666724,
      "v": 99
    },
    {
      "midi": 42,
      "hit": false,
      "t": 60461.79679166669,
      "d": 1660.3043749999997,
      "v": 104
    },
    {
      "midi": 54,
      "hit": false,
      "t": 60480.880750000026,
      "d": 209.92354166667064,
      "v": 93
    },
    {
      "midi": 49,
      "hit": false,
      "t": 60671.72033333336,
      "d": 797.709458333331,
      "v": 93
    },
    {
      "midi": 54,
      "hit": false,
      "t": 60900.72783333336,
      "d": 782.4422916666663,
      "v": 93
    },
    {
      "midi": 57,
      "hit": false,
      "t": 61129.73533333336,
      "d": 1183.205416666664,
      "v": 93
    },
    {
      "midi": 49,
      "hit": false,
      "t": 61587.75033333336,
      "d": 305.3433333333305,
      "v": 84
    },
    {
      "midi": 54,
      "hit": false,
      "t": 61816.75783333336,
      "d": 496.1829166666648,
      "v": 88
    },
    {
      "midi": 49,
      "hit": false,
      "t": 62045.76533333336,
      "d": 267.1754166666651,
      "v": 88
    },
    {
      "midi": 42,
      "hit": false,
      "t": 62274.77283333336,
      "d": 57.251875000001746,
      "v": 104
    },
    {
      "midi": 57,
      "hit": false,
      "t": 62312.94075000002,
      "d": 209.92354166667792,
      "v": 88
    },
    {
      "midi": 52,
      "hit": false,
      "t": 62332.02470833336,
      "d": 19.08395833333634,
      "v": 88
    },
    {
      "midi": 61,
      "hit": false,
      "t": 62332.02470833336,
      "d": 209.92354166667792,
      "v": 93
    },
    {
      "midi": 45,
      "hit": false,
      "t": 62332.02470833336,
      "d": 1599.2357083333409,
      "v": 104
    },
    {
      "midi": 52,
      "hit": false,
      "t": 62503.780333333365,
      "d": 782.4422916666736,
      "v": 88
    },
    {
      "midi": 57,
      "hit": false,
      "t": 62732.78783333337,
      "d": 759.5415416666656,
      "v": 93
    },
    {
      "midi": 61,
      "hit": false,
      "t": 62961.79533333337,
      "d": 1202.2893750000076,
      "v": 93
    },
    {
      "midi": 52,
      "hit": false,
      "t": 63419.81033333337,
      "d": 286.25937500000146,
      "v": 88
    },
    {
      "midi": 57,
      "hit": false,
      "t": 63648.81783333337,
      "d": 515.2668750000084,
      "v": 93
    },
    {
      "midi": 52,
      "hit": false,
      "t": 63877.82533333337,
      "d": 248.09145833333605,
      "v": 88
    },
    {
      "midi": 45,
      "hit": false,
      "t": 64106.83283333337,
      "d": 38.16791666667268,
      "v": 99
    },
    {
      "midi": 47,
      "hit": false,
      "t": 64145.00075000004,
      "d": 1755.7241666666596,
      "v": 99
    },
    {
      "midi": 59,
      "hit": false,
      "t": 64164.08470833338,
      "d": 171.75562499999796,
      "v": 93
    },
    {
      "midi": 63,
      "hit": false,
      "t": 64164.08470833338,
      "d": 190.8395833333343,
      "v": 93
    },
    {
      "midi": 54,
      "hit": false,
      "t": 64335.84033333338,
      "d": 763.3583333333299,
      "v": 93
    },
    {
      "midi": 59,
      "hit": false,
      "t": 64564.84783333338,
      "d": 740.4575833333292,
      "v": 99
    },
    {
      "midi": 63,
      "hit": false,
      "t": 64793.85533333338,
      "d": 1087.7856249999968,
      "v": 93
    },
    {
      "midi": 54,
      "hit": false,
      "t": 65251.870333333376,
      "d": 267.1754166666651,
      "v": 99
    },
    {
      "midi": 59,
      "hit": false,
      "t": 65480.877833333376,
      "d": 400.7631249999977,
      "v": 99
    },
    {
      "midi": 54,
      "hit": false,
      "t": 65709.88533333337,
      "d": 171.75562500000524,
      "v": 93
    },
    {
      "midi": 47,
      "hit": false,
      "t": 65957.9767916667,
      "d": 38.16791666667268,
      "v": 104
    },
    {
      "midi": 52,
      "hit": false,
      "t": 65996.14470833338,
      "d": 1603.0525000000198,
      "v": 104
    },
    {
      "midi": 59,
      "hit": false,
      "t": 66167.90033333338,
      "d": 797.7094583333528,
      "v": 93
    },
    {
      "midi": 64,
      "hit": false,
      "t": 66396.90783333339,
      "d": 801.5262500000099,
      "v": 99
    },
    {
      "midi": 68,
      "hit": false,
      "t": 66625.9153333334,
      "d": 1198.4725833333505,
      "v": 99
    },
    {
      "midi": 59,
      "hit": false,
      "t": 67083.9303333334,
      "d": 324.42729166666686,
      "v": 84
    },
    {
      "midi": 64,
      "hit": false,
      "t": 67312.9378333334,
      "d": 515.2668750000157,
      "v": 93
    },
    {
      "midi": 59,
      "hit": false,
      "t": 67541.9453333334,
      "d": 267.17541666667967,
      "v": 84
    },
    {
      "midi": 52,
      "hit": false,
      "t": 67770.9528333334,
      "d": 38.16791666667268,
      "v": 104
    },
    {
      "midi": 52,
      "hit": false,
      "t": 67809.12075000007,
      "d": 19.083958333343617,
      "v": 84
    },
    {
      "midi": 45,
      "hit": false,
      "t": 67809.12075000007,
      "d": 1641.220416666678,
      "v": 104
    },
    {
      "midi": 57,
      "hit": false,
      "t": 67828.20470833342,
      "d": 187.02279166667722,
      "v": 93
    },
    {
      "midi": 61,
      "hit": false,
      "t": 67828.20470833342,
      "d": 229.00750000000698,
      "v": 99
    },
    {
      "midi": 52,
      "hit": false,
      "t": 67999.96033333342,
      "d": 801.5262500000099,
      "v": 93
    },
    {
      "midi": 57,
      "hit": false,
      "t": 68228.96783333343,
      "d": 782.4422916666663,
      "v": 93
    },
    {
      "midi": 61,
      "hit": false,
      "t": 68457.97533333344,
      "d": 1202.2893749999785,
      "v": 93
    },
    {
      "midi": 52,
      "hit": false,
      "t": 68915.99033333344,
      "d": 305.34333333332324,
      "v": 84
    },
    {
      "midi": 57,
      "hit": false,
      "t": 69144.99783333343,
      "d": 515.2668749999866,
      "v": 88
    },
    {
      "midi": 52,
      "hit": false,
      "t": 69374.00533333342,
      "d": 267.1754166666651,
      "v": 88
    },
    {
      "midi": 45,
      "hit": false,
      "t": 69603.01283333341,
      "d": 57.251875000001746,
      "v": 104
    },
    {
      "midi": 59,
      "hit": false,
      "t": 69641.18075000009,
      "d": 19.083958333329065,
      "v": 88
    },
    {
      "midi": 64,
      "hit": false,
      "t": 69660.26470833342,
      "d": 190.8395833333343,
      "v": 88
    },
    {
      "midi": 68,
      "hit": false,
      "t": 69660.26470833342,
      "d": 209.92354166666337,
      "v": 93
    },
    {
      "midi": 52,
      "hit": false,
      "t": 69660.26470833342,
      "d": 1603.0525000000052,
      "v": 104
    },
    {
      "midi": 59,
      "hit": false,
      "t": 69832.02033333342,
      "d": 782.4422916666663,
      "v": 88
    },
    {
      "midi": 64,
      "hit": false,
      "t": 70061.02783333341,
      "d": 763.3583333333372,
      "v": 93
    },
    {
      "midi": 68,
      "hit": false,
      "t": 70290.03533333342,
      "d": 1183.2054166666785,
      "v": 93
    },
    {
      "midi": 59,
      "hit": false,
      "t": 70748.05033333342,
      "d": 286.2593749999942,
      "v": 88
    },
    {
      "midi": 64,
      "hit": false,
      "t": 70977.05783333341,
      "d": 496.18291666668665,
      "v": 93
    },
    {
      "midi": 59,
      "hit": false,
      "t": 71206.06533333342,
      "d": 229.00750000000698,
      "v": 88
    },
    {
      "midi": 52,
      "hit": false,
      "t": 71435.07283333343,
      "d": 38.16791666667268,
      "v": 99
    },
    {
      "midi": 61,
      "hit": false,
      "t": 71473.2407500001,
      "d": 206.1067500000063,
      "v": 93
    },
    {
      "midi": 45,
      "hit": false,
      "t": 71473.2407500001,
      "d": 1755.724166666696,
      "v": 99
    },
    {
      "midi": 57,
      "hit": false,
      "t": 71492.32470833343,
      "d": 171.75562500000524,
      "v": 93
    },
    {
      "midi": 52,
      "hit": false,
      "t": 71664.08033333343,
      "d": 759.5415416666801,
      "v": 93
    },
    {
      "midi": 57,
      "hit": false,
      "t": 71893.08783333344,
      "d": 744.2743750000081,
      "v": 99
    },
    {
      "midi": 61,
      "hit": false,
      "t": 72122.09533333345,
      "d": 1087.7856250000186,
      "v": 93
    },
    {
      "midi": 52,
      "hit": false,
      "t": 72580.11033333345,
      "d": 267.17541666667967,
      "v": 99
    },
    {
      "midi": 57,
      "hit": false,
      "t": 72809.11783333345,
      "d": 400.7631250000122,
      "v": 99
    },
    {
      "midi": 52,
      "hit": false,
      "t": 73038.12533333346,
      "d": 171.75562500000524,
      "v": 93
    },
    {
      "midi": 45,
      "hit": false,
      "t": 73267.13283333347,
      "d": 38.16791666667268,
      "v": 104
    },
    {
      "midi": 52,
      "hit": false,
      "t": 73305.30075000014,
      "d": 1618.3196666666772,
      "v": 104
    },
    {
      "midi": 59,
      "hit": false,
      "t": 73496.14033333347,
      "d": 801.5262500000099,
      "v": 93
    },
    {
      "midi": 64,
      "hit": false,
      "t": 73725.14783333348,
      "d": 801.5262500000099,
      "v": 99
    },
    {
      "midi": 68,
      "hit": false,
      "t": 73954.15533333349,
      "d": 1202.2893750000076,
      "v": 99
    },
    {
      "midi": 59,
      "hit": false,
      "t": 74412.17033333349,
      "d": 324.42729166666686,
      "v": 84
    },
    {
      "midi": 64,
      "hit": false,
      "t": 74641.1778333335,
      "d": 492.36612500000047,
      "v": 93
    },
    {
      "midi": 59,
      "hit": false,
      "t": 74870.18533333349,
      "d": 286.25937500000873,
      "v": 84
    },
    {
      "midi": 52,
      "hit": false,
      "t": 75118.27679166682,
      "d": 38.16791666667268,
      "v": 104
    },
    {
      "midi": 57,
      "hit": false,
      "t": 75137.36075000017,
      "d": 209.92354166666337,
      "v": 93
    },
    {
      "midi": 52,
      "hit": false,
      "t": 75156.4447083335,
      "d": 15.267166666671983,
      "v": 84
    },
    {
      "midi": 61,
      "hit": false,
      "t": 75156.4447083335,
      "d": 229.00750000000698,
      "v": 99
    },
    {
      "midi": 45,
      "hit": false,
      "t": 75156.4447083335,
      "d": 1622.1364583333343,
      "v": 104
    },
    {
      "midi": 52,
      "hit": false,
      "t": 75328.2003333335,
      "d": 797.7094583333383,
      "v": 93
    },
    {
      "midi": 57,
      "hit": false,
      "t": 75557.20783333351,
      "d": 782.4422916666517,
      "v": 93
    },
    {
      "midi": 61,
      "hit": false,
      "t": 75782.39854166684,
      "d": 1206.10616666665,
      "v": 93
    },
    {
      "midi": 52,
      "hit": false,
      "t": 76244.2303333335,
      "d": 301.52654166666616,
      "v": 84
    },
    {
      "midi": 57,
      "hit": false,
      "t": 76473.2378333335,
      "d": 515.2668750000012,
      "v": 88
    },
    {
      "midi": 52,
      "hit": false,
      "t": 76698.42854166683,
      "d": 290.0761666666658,
      "v": 88
    },
    {
      "midi": 45,
      "hit": false,
      "t": 76931.25283333349,
      "d": 57.251875000001746,
      "v": 104
    },
    {
      "midi": 59,
      "hit": false,
      "t": 76988.5047083335,
      "d": 19.083958333329065,
      "v": 88
    },
    {
      "midi": 64,
      "hit": false,
      "t": 76988.5047083335,
      "d": 190.83958333331975,
      "v": 88
    },
    {
      "midi": 68,
      "hit": false,
      "t": 76988.5047083335,
      "d": 209.92354166664882,
      "v": 93
    },
    {
      "midi": 52,
      "hit": false,
      "t": 76988.5047083335,
      "d": 1599.2357083333336,
      "v": 104
    },
    {
      "midi": 59,
      "hit": false,
      "t": 77160.26033333348,
      "d": 778.6254999999946,
      "v": 88
    },
    {
      "midi": 64,
      "hit": false,
      "t": 77389.26783333348,
      "d": 759.5415416666801,
      "v": 93
    },
    {
      "midi": 68,
      "hit": false,
      "t": 77618.27533333348,
      "d": 1125.9535416666768,
      "v": 93
    },
    {
      "midi": 59,
      "hit": false,
      "t": 78076.29033333348,
      "d": 286.25937500000873,
      "v": 88
    },
    {
      "midi": 64,
      "hit": false,
      "t": 78305.29783333349,
      "d": 458.0149999999994,
      "v": 93
    },
    {
      "midi": 59,
      "hit": false,
      "t": 78534.3053333335,
      "d": 209.92354166666337,
      "v": 88
    },
    {
      "midi": 52,
      "hit": false,
      "t": 78744.22887500016,
      "d": 19.083958333329065,
      "v": 88
    },
    {
      "midi": 61,
      "hit": false,
      "t": 78744.22887500016,
      "d": 263.35862500000803,
      "v": 93
    },
    {
      "midi": 57,
      "hit": false,
      "t": 78763.31283333349,
      "d": 229.00750000000698,
      "v": 93
    },
    {
      "midi": 45,
      "hit": false,
      "t": 78763.31283333349,
      "d": 1793.8920833333686,
      "v": 99
    },
    {
      "midi": 52,
      "hit": false,
      "t": 78992.3203333335,
      "d": 763.3583333333518,
      "v": 93
    },
    {
      "midi": 57,
      "hit": false,
      "t": 79221.3278333335,
      "d": 744.2743750000081,
      "v": 99
    },
    {
      "midi": 61,
      "hit": false,
      "t": 79450.33533333351,
      "d": 1087.7856250000186,
      "v": 93
    },
    {
      "midi": 52,
      "hit": false,
      "t": 79908.35033333351,
      "d": 286.25937500000873,
      "v": 99
    },
    {
      "midi": 57,
      "hit": false,
      "t": 80137.35783333352,
      "d": 400.7631250000122,
      "v": 99
    },
    {
      "midi": 52,
      "hit": false,
      "t": 80366.36533333352,
      "d": 171.75562500000524,
      "v": 93
    },
    {
      "midi": 45,
      "hit": false,
      "t": 80595.37283333353,
      "d": 38.16791666667268,
      "v": 104
    },
    {
      "midi": 52,
      "hit": false,
      "t": 80633.5407500002,
      "d": 1622.1364583333489,
      "v": 104
    },
    {
      "midi": 59,
      "hit": false,
      "t": 80824.38033333354,
      "d": 801.5262500000099,
      "v": 93
    },
    {
      "midi": 64,
      "hit": false,
      "t": 81053.38783333355,
      "d": 801.5262500000099,
      "v": 99
    },
    {
      "midi": 68,
      "hit": false,
      "t": 81282.39533333355,
      "d": 1164.1214583333349,
      "v": 99
    },
    {
      "midi": 59,
      "hit": false,
      "t": 81740.41033333355,
      "d": 324.42729166666686,
      "v": 84
    },
    {
      "midi": 64,
      "hit": false,
      "t": 81988.50179166689,
      "d": 438.93104166667035,
      "v": 93
    },
    {
      "midi": 59,
      "hit": false,
      "t": 82198.42533333355,
      "d": 248.09145833333605,
      "v": 84
    },
    {
      "midi": 52,
      "hit": false,
      "t": 82427.43283333356,
      "d": 19.083958333329065,
      "v": 104
    },
    {
      "midi": 57,
      "hit": false,
      "t": 82427.43283333356,
      "d": 267.1754166666651,
      "v": 93
    },
    {
      "midi": 52,
      "hit": false,
      "t": 82446.51679166689,
      "d": 19.083958333329065,
      "v": 84
    },
    {
      "midi": 61,
      "hit": false,
      "t": 82446.51679166689,
      "d": 263.35862500000803,
      "v": 99
    },
    {
      "midi": 45,
      "hit": false,
      "t": 82446.51679166689,
      "d": 1660.304375000007,
      "v": 104
    },
    {
      "midi": 52,
      "hit": false,
      "t": 82656.44033333355,
      "d": 797.7094583333528,
      "v": 93
    },
    {
      "midi": 57,
      "hit": false,
      "t": 82885.44783333356,
      "d": 778.6255000000092,
      "v": 93
    },
    {
      "midi": 61,
      "hit": false,
      "t": 83114.45533333356,
      "d": 1202.289374999993,
      "v": 93
    },
    {
      "midi": 52,
      "hit": false,
      "t": 83572.47033333356,
      "d": 305.3433333333378,
      "v": 84
    },
    {
      "midi": 57,
      "hit": false,
      "t": 83801.47783333357,
      "d": 496.18291666665755,
      "v": 88
    },
    {
      "midi": 52,
      "hit": false,
      "t": 84030.48533333356,
      "d": 267.1754166666651,
      "v": 88
    },
    {
      "midi": 45,
      "hit": false,
      "t": 84278.5767916669,
      "d": 19.083958333329065,
      "v": 104
    },
    {
      "midi": 54,
      "hit": false,
      "t": 84297.66075000023,
      "d": 19.083958333329065,
      "v": 88
    },
    {
      "midi": 59,
      "hit": false,
      "t": 84297.66075000023,
      "d": 209.92354166666337,
      "v": 88
    },
    {
      "midi": 47,
      "hit": false,
      "t": 84297.66075000023,
      "d": 1622.1364583333489,
      "v": 104
    },
    {
      "midi": 63,
      "hit": false,
      "t": 84316.74470833356,
      "d": 209.92354166666337,
      "v": 93
    },
    {
      "midi": 54,
      "hit": false,
      "t": 84488.50033333356,
      "d": 782.4422916666663,
      "v": 88
    },
    {
      "midi": 59,
      "hit": false,
      "t": 84717.50783333356,
      "d": 763.3583333333372,
      "v": 93
    },
    {
      "midi": 63,
      "hit": false,
      "t": 84946.51533333356,
      "d": 1393.1289583333564,
      "v": 93
    },
    {
      "midi": 54,
      "hit": false,
      "t": 85404.53033333356,
      "d": 286.25937500000873,
      "v": 88
    },
    {
      "midi": 59,
      "hit": false,
      "t": 85652.6217916669,
      "d": 667.9385416666919,
      "v": 93
    },
    {
      "midi": 54,
      "hit": false,
      "t": 85862.54533333358,
      "d": 229.00750000000698,
      "v": 88
    },
    {
      "midi": 47,
      "hit": false,
      "t": 86091.55283333358,
      "d": 1793.8920833333395,
      "v": 99
    },
    {
      "midi": 54,
      "hit": false,
      "t": 86320.56033333359,
      "d": 763.3583333333372,
      "v": 93
    },
    {
      "midi": 59,
      "hit": false,
      "t": 86549.56783333358,
      "d": 740.4575833333365,
      "v": 99
    },
    {
      "midi": 63,
      "hit": false,
      "t": 86778.57533333359,
      "d": 1087.785625000004,
      "v": 93
    },
    {
      "midi": 54,
      "hit": false,
      "t": 87236.59033333359,
      "d": 286.2593749999942,
      "v": 99
    },
    {
      "midi": 59,
      "hit": false,
      "t": 87465.59783333358,
      "d": 400.7631250000122,
      "v": 99
    },
    {
      "midi": 54,
      "hit": false,
      "t": 87694.60533333359,
      "d": 171.75562500000524,
      "v": 93
    },
    {
      "midi": 47,
      "hit": false,
      "t": 87923.6128333336,
      "d": 57.251875000001746,
      "v": 104
    },
    {
      "midi": 52,
      "hit": false,
      "t": 87980.8647083336,
      "d": 1603.0525000000052,
      "v": 104
    },
    {
      "midi": 59,
      "hit": false,
      "t": 88152.6203333336,
      "d": 801.5262500000099,
      "v": 93
    },
    {
      "midi": 64,
      "hit": false,
      "t": 88381.62783333361,
      "d": 797.7094583333383,
      "v": 99
    },
    {
      "midi": 68,
      "hit": false,
      "t": 88610.63533333362,
      "d": 1145.0374999999913,
      "v": 99
    },
    {
      "midi": 59,
      "hit": false,
      "t": 89068.65033333361,
      "d": 324.4272916666523,
      "v": 84
    },
    {
      "midi": 64,
      "hit": false,
      "t": 89297.65783333361,
      "d": 458.0149999999994,
      "v": 93
    },
    {
      "midi": 59,
      "hit": false,
      "t": 89526.6653333336,
      "d": 229.00750000000698,
      "v": 84
    },
    {
      "midi": 52,
      "hit": false,
      "t": 89755.6728333336,
      "d": 38.16791666665813,
      "v": 84
    },
    {
      "midi": 57,
      "hit": false,
      "t": 89755.6728333336,
      "d": 248.0914583333215,
      "v": 93
    },
    {
      "midi": 61,
      "hit": false,
      "t": 89755.6728333336,
      "d": 286.2593749999942,
      "v": 99
    },
    {
      "midi": 45,
      "hit": false,
      "t": 89774.75679166694,
      "d": 1660.304375000007,
      "v": 104
    },
    {
      "midi": 52,
      "hit": false,
      "t": 89984.6803333336,
      "d": 801.5262500000099,
      "v": 93
    },
    {
      "midi": 57,
      "hit": false,
      "t": 90213.6878333336,
      "d": 778.6255000000092,
      "v": 93
    },
    {
      "midi": 61,
      "hit": false,
      "t": 90442.69533333361,
      "d": 1183.2054166666494,
      "v": 93
    },
    {
      "midi": 52,
      "hit": false,
      "t": 90900.71033333361,
      "d": 305.3433333333378,
      "v": 84
    },
    {
      "midi": 57,
      "hit": false,
      "t": 91148.80179166695,
      "d": 458.01499999998487,
      "v": 88
    },
    {
      "midi": 52,
      "hit": false,
      "t": 91358.72533333361,
      "d": 267.17541666665056,
      "v": 88
    },
    {
      "midi": 45,
      "hit": false,
      "t": 91587.7328333336,
      "d": 38.16791666665813,
      "v": 104
    },
    {
      "midi": 64,
      "hit": false,
      "t": 91606.81679166693,
      "d": 229.00749999999243,
      "v": 88
    },
    {
      "midi": 59,
      "hit": false,
      "t": 91625.90075000026,
      "d": 19.083958333329065,
      "v": 88
    },
    {
      "midi": 68,
      "hit": false,
      "t": 91625.90075000026,
      "d": 229.00749999999243,
      "v": 93
    },
    {
      "midi": 52,
      "hit": false,
      "t": 91625.90075000026,
      "d": 1622.1364583333489,
      "v": 104
    },
    {
      "midi": 59,
      "hit": false,
      "t": 91816.7403333336,
      "d": 782.4422916666663,
      "v": 88
    },
    {
      "midi": 64,
      "hit": false,
      "t": 92045.74783333359,
      "d": 759.5415416666801,
      "v": 93
    },
    {
      "midi": 68,
      "hit": false,
      "t": 92274.7553333336,
      "d": 1106.8695833333477,
      "v": 93
    },
    {
      "midi": 59,
      "hit": false,
      "t": 92732.7703333336,
      "d": 286.25937500000873,
      "v": 88
    },
    {
      "midi": 64,
      "hit": false,
      "t": 92961.7778333336,
      "d": 416.03029166666965,
      "v": 93
    },
    {
      "midi": 59,
      "hit": false,
      "t": 93190.78533333361,
      "d": 190.8395833333343,
      "v": 88
    },
    {
      "midi": 52,
      "hit": false,
      "t": 93381.62491666694,
      "d": 57.251874999987194,
      "v": 88
    },
    {
      "midi": 57,
      "hit": false,
      "t": 93381.62491666694,
      "d": 267.17541666665056,
      "v": 93
    },
    {
      "midi": 61,
      "hit": false,
      "t": 93400.70887500027,
      "d": 286.2593749999942,
      "v": 93
    },
    {
      "midi": 45,
      "hit": false,
      "t": 93419.7928333336,
      "d": 1793.8920833333395,
      "v": 99
    },
    {
      "midi": 52,
      "hit": false,
      "t": 93648.8003333336,
      "d": 759.5415416666801,
      "v": 93
    },
    {
      "midi": 57,
      "hit": false,
      "t": 93877.8078333336,
      "d": 740.4575833333365,
      "v": 99
    },
    {
      "midi": 61,
      "hit": false,
      "t": 94106.81533333361,
      "d": 1087.785625000004,
      "v": 93
    },
    {
      "midi": 52,
      "hit": false,
      "t": 94564.83033333361,
      "d": 267.1754166666651,
      "v": 99
    },
    {
      "midi": 57,
      "hit": false,
      "t": 94790.02104166694,
      "d": 404.5799166666693,
      "v": 99
    },
    {
      "midi": 52,
      "hit": false,
      "t": 95022.84533333361,
      "d": 171.75562500000524,
      "v": 93
    },
    {
      "midi": 45,
      "hit": false,
      "t": 95251.85283333361,
      "d": 38.16791666667268,
      "v": 104
    },
    {
      "midi": 52,
      "hit": false,
      "t": 95290.02075000029,
      "d": 1622.1364583333489,
      "v": 104
    },
    {
      "midi": 59,
      "hit": false,
      "t": 95480.86033333362,
      "d": 797.7094583333528,
      "v": 93
    },
    {
      "midi": 64,
      "hit": false,
      "t": 95709.86783333363,
      "d": 801.5262500000099,
      "v": 99
    },
    {
      "midi": 68,
      "hit": false,
      "t": 95938.87533333364,
      "d": 1164.1214583333349,
      "v": 99
    },
    {
      "midi": 59,
      "hit": false,
      "t": 96396.89033333363,
      "d": 324.42729166666686,
      "v": 84
    },
    {
      "midi": 64,
      "hit": false,
      "t": 96644.98179166697,
      "d": 438.93104166667035,
      "v": 93
    },
    {
      "midi": 59,
      "hit": false,
      "t": 96854.90533333363,
      "d": 248.09145833333605,
      "v": 84
    },
    {
      "midi": 52,
      "hit": false,
      "t": 97083.91283333364,
      "d": 19.083958333329065,
      "v": 104
    },
    {
      "midi": 57,
      "hit": false,
      "t": 97083.91283333364,
      "d": 248.0914583333215,
      "v": 93
    },
    {
      "midi": 52,
      "hit": false,
      "t": 97102.99679166697,
      "d": 19.083958333329065,
      "v": 84
    },
    {
      "midi": 61,
      "hit": false,
      "t": 97102.99679166697,
      "d": 267.1754166666651,
      "v": 99
    },
    {
      "midi": 45,
      "hit": false,
      "t": 97102.99679166697,
      "d": 1660.304375000007,
      "v": 104
    },
    {
      "midi": 52,
      "hit": false,
      "t": 97312.92033333363,
      "d": 801.5262500000099,
      "v": 93
    },
    {
      "midi": 57,
      "hit": false,
      "t": 97538.11104166697,
      "d": 786.2590833333379,
      "v": 93
    },
    {
      "midi": 61,
      "hit": false,
      "t": 97767.11854166698,
      "d": 1206.1061666666646,
      "v": 93
    },
    {
      "midi": 52,
      "hit": false,
      "t": 98228.95033333365,
      "d": 301.52654166666616,
      "v": 84
    },
    {
      "midi": 57,
      "hit": false,
      "t": 98457.95783333364,
      "d": 515.2668750000012,
      "v": 88
    },
    {
      "midi": 52,
      "hit": false,
      "t": 98686.96533333365,
      "d": 286.2593749999942,
      "v": 88
    },
    {
      "midi": 45,
      "hit": false,
      "t": 98915.97283333364,
      "d": 57.251875000001746,
      "v": 104
    },
    {
      "midi": 54,
      "hit": false,
      "t": 98973.22470833364,
      "d": 19.083958333329065,
      "v": 88
    },
    {
      "midi": 59,
      "hit": false,
      "t": 98973.22470833364,
      "d": 190.83958333331975,
      "v": 88
    },
    {
      "midi": 63,
      "hit": false,
      "t": 98973.22470833364,
      "d": 209.92354166664882,
      "v": 93
    },
    {
      "midi": 47,
      "hit": false,
      "t": 98973.22470833364,
      "d": 1603.0525000000052,
      "v": 104
    },
    {
      "midi": 54,
      "hit": false,
      "t": 99144.98033333363,
      "d": 782.4422916666663,
      "v": 88
    },
    {
      "midi": 59,
      "hit": false,
      "t": 99373.98783333362,
      "d": 763.3583333333372,
      "v": 93
    },
    {
      "midi": 63,
      "hit": false,
      "t": 99602.99533333363,
      "d": 1393.1289583333564,
      "v": 93
    },
    {
      "midi": 54,
      "hit": false,
      "t": 100061.01033333363,
      "d": 286.25937500000873,
      "v": 88
    },
    {
      "midi": 59,
      "hit": false,
      "t": 100309.10179166697,
      "d": 667.9385416666919,
      "v": 93
    },
    {
      "midi": 54,
      "hit": false,
      "t": 100519.02533333364,
      "d": 229.00750000000698,
      "v": 88
    },
    {
      "midi": 47,
      "hit": false,
      "t": 100748.03283333365,
      "d": 1793.8920833333395,
      "v": 99
    },
    {
      "midi": 54,
      "hit": false,
      "t": 100977.04033333366,
      "d": 759.5415416666656,
      "v": 93
    },
    {
      "midi": 59,
      "hit": false,
      "t": 101206.04783333365,
      "d": 744.2743750000081,
      "v": 99
    },
    {
      "midi": 63,
      "hit": false,
      "t": 101435.05533333366,
      "d": 1083.9688333333324,
      "v": 93
    },
    {
      "midi": 54,
      "hit": false,
      "t": 101893.07033333366,
      "d": 267.1754166666651,
      "v": 99
    },
    {
      "midi": 59,
      "hit": false,
      "t": 102137.34500000032,
      "d": 400.7631249999977,
      "v": 99
    },
    {
      "midi": 54,
      "hit": false,
      "t": 102351.08533333366,
      "d": 190.8395833333343,
      "v": 93
    },
    {
      "midi": 47,
      "hit": false,
      "t": 102599.17679166699,
      "d": 38.16791666667268,
      "v": 104
    },
    {
      "midi": 45,
      "hit": false,
      "t": 102637.34470833367,
      "d": 1603.0525000000198,
      "v": 104
    },
    {
      "midi": 52,
      "hit": false,
      "t": 102809.10033333367,
      "d": 801.5262500000099,
      "v": 93
    },
    {
      "midi": 57,
      "hit": false,
      "t": 103038.10783333368,
      "d": 801.5262500000099,
      "v": 99
    },
    {
      "midi": 61,
      "hit": false,
      "t": 103267.11533333368,
      "d": 1431.2968750000146,
      "v": 99
    },
    {
      "midi": 52,
      "hit": false,
      "t": 103725.13033333368,
      "d": 324.42729166666686,
      "v": 84
    },
    {
      "midi": 57,
      "hit": false,
      "t": 103954.13783333369,
      "d": 706.1064583333355,
      "v": 93
    },
    {
      "midi": 52,
      "hit": false,
      "t": 104183.14533333368,
      "d": 263.35862500000803,
      "v": 84
    },
    {
      "midi": 45,
      "hit": false,
      "t": 104412.15283333369,
      "d": 1679.388333333336,
      "v": 104
    },
    {
      "midi": 52,
      "hit": false,
      "t": 104641.1603333337,
      "d": 801.5262500000099,
      "v": 93
    },
    {
      "midi": 57,
      "hit": false,
      "t": 104870.1678333337,
      "d": 782.4422916666663,
      "v": 93
    },
    {
      "midi": 61,
      "hit": false,
      "t": 105099.17533333371,
      "d": 1183.2054166666348,
      "v": 93
    },
    {
      "midi": 52,
      "hit": false,
      "t": 105557.19033333371,
      "d": 305.34333333332324,
      "v": 84
    },
    {
      "midi": 57,
      "hit": false,
      "t": 105786.1978333337,
      "d": 477.09895833331393,
      "v": 88
    },
    {
      "midi": 52,
      "hit": false,
      "t": 106015.2053333337,
      "d": 267.17541666665056,
      "v": 88
    },
    {
      "midi": 45,
      "hit": false,
      "t": 106244.21283333369,
      "d": 57.251874999987194,
      "v": 104
    },
    {
      "midi": 64,
      "hit": false,
      "t": 106263.29679166702,
      "d": 229.00749999999243,
      "v": 88
    },
    {
      "midi": 59,
      "hit": false,
      "t": 106282.38075000035,
      "d": 19.083958333329065,
      "v": 88
    },
    {
      "midi": 68,
      "hit": false,
      "t": 106282.38075000035,
      "d": 229.00749999999243,
      "v": 93
    },
    {
      "midi": 52,
      "hit": false,
      "t": 106301.46470833367,
      "d": 1599.2357083333482,
      "v": 104
    },
    {
      "midi": 59,
      "hit": false,
      "t": 106473.22033333368,
      "d": 778.6254999999946,
      "v": 88
    },
    {
      "midi": 64,
      "hit": false,
      "t": 106702.22783333367,
      "d": 759.5415416666801,
      "v": 93
    },
    {
      "midi": 68,
      "hit": false,
      "t": 106931.23533333368,
      "d": 1393.1289583333273,
      "v": 93
    },
    {
      "midi": 59,
      "hit": false,
      "t": 107389.25033333368,
      "d": 286.25937500000873,
      "v": 88
    },
    {
      "midi": 64,
      "hit": false,
      "t": 107618.25783333369,
      "d": 687.0224999999919,
      "v": 93
    },
    {
      "midi": 59,
      "hit": false,
      "t": 107847.2653333337,
      "d": 248.0914583333215,
      "v": 88
    },
    {
      "midi": 52,
      "hit": false,
      "t": 108076.27283333369,
      "d": 1793.892083333325,
      "v": 99
    },
    {
      "midi": 59,
      "hit": false,
      "t": 108305.28033333368,
      "d": 763.3583333333372,
      "v": 93
    },
    {
      "midi": 64,
      "hit": false,
      "t": 108534.28783333367,
      "d": 740.4575833333365,
      "v": 99
    },
    {
      "midi": 68,
      "hit": false,
      "t": 108763.29533333368,
      "d": 1083.9688333333324,
      "v": 93
    },
    {
      "midi": 59,
      "hit": false,
      "t": 109221.31033333368,
      "d": 267.1754166666651,
      "v": 99
    },
    {
      "midi": 64,
      "hit": false,
      "t": 109450.31783333367,
      "d": 400.7631250000122,
      "v": 99
    },
    {
      "midi": 59,
      "hit": false,
      "t": 109679.32533333368,
      "d": 171.75562500000524,
      "v": 93
    },
    {
      "midi": 52,
      "hit": false,
      "t": 109908.33283333368,
      "d": 19.083958333329065,
      "v": 104
    },
    {
      "midi": 45,
      "hit": false,
      "t": 109927.41679166701,
      "d": 1637.4036249999917,
      "v": 104
    },
    {
      "midi": 52,
      "hit": false,
      "t": 110137.34033333368,
      "d": 801.5262500000099,
      "v": 93
    },
    {
      "midi": 57,
      "hit": false,
      "t": 110366.34783333368,
      "d": 797.7094583333383,
      "v": 99
    },
    {
      "midi": 61,
      "hit": false,
      "t": 110595.35533333369,
      "d": 1202.2893749999785,
      "v": 99
    },
    {
      "midi": 52,
      "hit": false,
      "t": 111053.37033333369,
      "d": 324.4272916666523,
      "v": 84
    },
    {
      "midi": 57,
      "hit": false,
      "t": 111282.37783333368,
      "d": 515.2668749999866,
      "v": 93
    },
    {
      "midi": 52,
      "hit": false,
      "t": 111511.38533333367,
      "d": 286.2593749999942,
      "v": 84
    },
    {
      "midi": 45,
      "hit": false,
      "t": 111740.39283333367,
      "d": 57.251875000001746,
      "v": 104
    },
    {
      "midi": 49,
      "hit": false,
      "t": 111797.64470833367,
      "d": 19.083958333343617,
      "v": 84
    },
    {
      "midi": 54,
      "hit": false,
      "t": 111797.64470833367,
      "d": 190.8395833333343,
      "v": 93
    },
    {
      "midi": 57,
      "hit": false,
      "t": 111797.64470833367,
      "d": 225.19070833333535,
      "v": 99
    },
    {
      "midi": 42,
      "hit": false,
      "t": 111812.91187500034,
      "d": 1606.8692916666478,
      "v": 104
    },
    {
      "midi": 49,
      "hit": false,
      "t": 111969.40033333367,
      "d": 801.5262499999953,
      "v": 93
    },
    {
      "midi": 54,
      "hit": false,
      "t": 112198.40783333367,
      "d": 782.4422916666663,
      "v": 93
    },
    {
      "midi": 57,
      "hit": false,
      "t": 112427.41533333367,
      "d": 1221.3733333333075,
      "v": 93
    },
    {
      "midi": 49,
      "hit": false,
      "t": 112885.43033333367,
      "d": 305.34333333332324,
      "v": 84
    },
    {
      "midi": 54,
      "hit": false,
      "t": 113114.43783333366,
      "d": 515.2668749999866,
      "v": 88
    },
    {
      "midi": 49,
      "hit": false,
      "t": 113343.44533333366,
      "d": 286.2593749999942,
      "v": 88
    },
    {
      "midi": 42,
      "hit": false,
      "t": 113572.45283333365,
      "d": 76.33583333333081,
      "v": 104
    },
    {
      "midi": 59,
      "hit": false,
      "t": 113629.70470833365,
      "d": 187.02279166666267,
      "v": 88
    },
    {
      "midi": 63,
      "hit": false,
      "t": 113648.78866666698,
      "d": 190.8395833333343,
      "v": 93
    },
    {
      "midi": 47,
      "hit": false,
      "t": 113648.78866666698,
      "d": 1583.9685416666762,
      "v": 104
    },
    {
      "midi": 54,
      "hit": false,
      "t": 113801.46033333364,
      "d": 782.4422916666808,
      "v": 88
    },
    {
      "midi": 59,
      "hit": false,
      "t": 114030.46783333365,
      "d": 763.3583333333372,
      "v": 93
    },
    {
      "midi": 63,
      "hit": false,
      "t": 114259.47533333366,
      "d": 1393.1289583333419,
      "v": 93
    },
    {
      "midi": 54,
      "hit": false,
      "t": 114717.49033333366,
      "d": 286.2593749999942,
      "v": 88
    },
    {
      "midi": 59,
      "hit": false,
      "t": 114946.49783333365,
      "d": 687.022500000021,
      "v": 93
    },
    {
      "midi": 54,
      "hit": false,
      "t": 115175.50533333365,
      "d": 229.00750000000698,
      "v": 88
    },
    {
      "midi": 47,
      "hit": false,
      "t": 115404.51283333366,
      "d": 1793.892083333354,
      "v": 99
    },
    {
      "midi": 54,
      "hit": false,
      "t": 115633.52033333367,
      "d": 759.5415416666656,
      "v": 93
    },
    {
      "midi": 59,
      "hit": false,
      "t": 115862.52783333366,
      "d": 740.4575833333365,
      "v": 99
    },
    {
      "midi": 63,
      "hit": false,
      "t": 116091.53533333367,
      "d": 1083.968833333347,
      "v": 93
    },
    {
      "midi": 54,
      "hit": false,
      "t": 116549.55033333367,
      "d": 286.25937500000873,
      "v": 99
    },
    {
      "midi": 59,
      "hit": false,
      "t": 116797.641791667,
      "d": 381.67916666668316,
      "v": 99
    },
    {
      "midi": 54,
      "hit": false,
      "t": 117007.56533333368,
      "d": 171.75562500000524,
      "v": 93
    },
    {
      "midi": 47,
      "hit": false,
      "t": 117236.57283333369,
      "d": 95.41979166665988,
      "v": 104
    },
    {
      "midi": 52,
      "hit": false,
      "t": 117331.99262500035,
      "d": 1564.884583333347,
      "v": 104
    },
    {
      "midi": 59,
      "hit": false,
      "t": 117465.58033333368,
      "d": 797.7094583333528,
      "v": 93
    },
    {
      "midi": 64,
      "hit": false,
      "t": 117694.58783333369,
      "d": 801.5262500000099,
      "v": 99
    },
    {
      "midi": 68,
      "hit": false,
      "t": 117923.5953333337,
      "d": 1278.6252083333384,
      "v": 99
    },
    {
      "midi": 59,
      "hit": false,
      "t": 118381.6103333337,
      "d": 324.42729166666686,
      "v": 84
    },
    {
      "midi": 64,
      "hit": false,
      "t": 118610.6178333337,
      "d": 610.686666666661,
      "v": 93
    },
    {
      "midi": 59,
      "hit": false,
      "t": 118839.6253333337,
      "d": 267.17541666667967,
      "v": 84
    },
    {
      "midi": 52,
      "hit": false,
      "t": 119068.6328333337,
      "d": 133.58770833333256,
      "v": 104
    },
    {
      "midi": 57,
      "hit": false,
      "t": 119202.22054166703,
      "d": 152.67166666666162,
      "v": 99
    },
    {
      "midi": 42,
      "hit": false,
      "t": 119202.22054166703,
      "d": 1545.8006249999744,
      "v": 104
    },
    {
      "midi": 54,
      "hit": false,
      "t": 119221.30450000036,
      "d": 95.41979166665988,
      "v": 93
    },
    {
      "midi": 49,
      "hit": false,
      "t": 119297.6403333337,
      "d": 797.7094583333383,
      "v": 93
    },
    {
      "midi": 54,
      "hit": false,
      "t": 119522.83104166703,
      "d": 786.2590833333234,
      "v": 93
    },
    {
      "midi": 57,
      "hit": false,
      "t": 119755.65533333369,
      "d": 1198.4725833333214,
      "v": 93
    },
    {
      "midi": 49,
      "hit": false,
      "t": 120213.67033333369,
      "d": 305.34333333332324,
      "v": 84
    },
    {
      "midi": 54,
      "hit": false,
      "t": 120442.67783333368,
      "d": 496.18291666665755,
      "v": 88
    },
    {
      "midi": 49,
      "hit": false,
      "t": 120671.68533333368,
      "d": 286.25937500000873,
      "v": 88
    },
    {
      "midi": 42,
      "hit": false,
      "t": 120900.69283333367,
      "d": 57.2518750000163,
      "v": 104
    },
    {
      "midi": 52,
      "hit": false,
      "t": 120957.94470833369,
      "d": 19.083958333329065,
      "v": 88
    },
    {
      "midi": 57,
      "hit": false,
      "t": 120957.94470833369,
      "d": 190.83958333331975,
      "v": 88
    },
    {
      "midi": 61,
      "hit": false,
      "t": 120957.94470833369,
      "d": 209.92354166664882,
      "v": 93
    },
    {
      "midi": 45,
      "hit": false,
      "t": 120977.02866666701,
      "d": 1583.9685416666616,
      "v": 104
    },
    {
      "midi": 52,
      "hit": false,
      "t": 121129.70033333368,
      "d": 778.6254999999946,
      "v": 88
    },
    {
      "midi": 57,
      "hit": false,
      "t": 121358.70783333367,
      "d": 763.3583333333372,
      "v": 93
    },
    {
      "midi": 61,
      "hit": false,
      "t": 121587.71533333368,
      "d": 1202.2893750000076,
      "v": 93
    },
    {
      "midi": 52,
      "hit": false,
      "t": 122045.73033333367,
      "d": 286.2593749999942,
      "v": 88
    },
    {
      "midi": 57,
      "hit": false,
      "t": 122274.73783333367,
      "d": 496.18291666668665,
      "v": 93
    },
    {
      "midi": 52,
      "hit": false,
      "t": 122503.74533333367,
      "d": 229.00750000000698,
      "v": 88
    },
    {
      "midi": 45,
      "hit": false,
      "t": 122732.75283333368,
      "d": 57.251875000001746,
      "v": 99
    },
    {
      "midi": 59,
      "hit": false,
      "t": 122770.92075000035,
      "d": 190.8395833333343,
      "v": 93
    },
    {
      "midi": 63,
      "hit": false,
      "t": 122790.00470833368,
      "d": 209.92354166667792,
      "v": 93
    },
    {
      "midi": 47,
      "hit": false,
      "t": 122790.00470833368,
      "d": 1736.6402083333523,
      "v": 99
    },
    {
      "midi": 54,
      "hit": false,
      "t": 122961.76033333369,
      "d": 763.3583333333518,
      "v": 93
    },
    {
      "midi": 59,
      "hit": false,
      "t": 123190.7678333337,
      "d": 740.4575833333365,
      "v": 99
    },
    {
      "midi": 63,
      "hit": false,
      "t": 123419.7753333337,
      "d": 1087.785625000004,
      "v": 93
    },
    {
      "midi": 54,
      "hit": false,
      "t": 123877.7903333337,
      "d": 267.1754166666651,
      "v": 99
    },
    {
      "midi": 59,
      "hit": false,
      "t": 124106.7978333337,
      "d": 400.7631250000122,
      "v": 99
    },
    {
      "midi": 54,
      "hit": false,
      "t": 124335.8053333337,
      "d": 171.75562500000524,
      "v": 93
    },
    {
      "midi": 47,
      "hit": false,
      "t": 124564.81283333371,
      "d": 76.33583333333081,
      "v": 104
    },
    {
      "midi": 52,
      "hit": false,
      "t": 124660.23262500037,
      "d": 1564.884583333347,
      "v": 104
    },
    {
      "midi": 59,
      "hit": false,
      "t": 124793.8203333337,
      "d": 797.7094583333528,
      "v": 93
    },
    {
      "midi": 64,
      "hit": false,
      "t": 125022.82783333371,
      "d": 801.5262500000099,
      "v": 99
    },
    {
      "midi": 68,
      "hit": false,
      "t": 125251.83533333371,
      "d": 1202.2893750000076,
      "v": 99
    },
    {
      "midi": 59,
      "hit": false,
      "t": 125709.85033333371,
      "d": 324.42729166666686,
      "v": 84
    },
    {
      "midi": 64,
      "hit": false,
      "t": 125938.85783333372,
      "d": 515.2668750000012,
      "v": 93
    },
    {
      "midi": 59,
      "hit": false,
      "t": 126167.86533333371,
      "d": 286.25937500000873,
      "v": 84
    },
    {
      "midi": 52,
      "hit": false,
      "t": 126396.87283333372,
      "d": 57.251875000001746,
      "v": 104
    },
    {
      "midi": 52,
      "hit": false,
      "t": 126454.12470833372,
      "d": 15.267166666671983,
      "v": 84
    },
    {
      "midi": 57,
      "hit": false,
      "t": 126454.12470833372,
      "d": 209.92354166667792,
      "v": 93
    },
    {
      "midi": 61,
      "hit": false,
      "t": 126454.12470833372,
      "d": 225.1907083333499,
      "v": 99
    },
    {
      "midi": 45,
      "hit": false,
      "t": 126454.12470833372,
      "d": 1622.1364583333343,
      "v": 104
    },
    {
      "midi": 52,
      "hit": false,
      "t": 126625.88033333373,
      "d": 797.7094583333528,
      "v": 93
    },
    {
      "midi": 57,
      "hit": false,
      "t": 126854.88783333373,
      "d": 782.4422916666663,
      "v": 93
    },
    {
      "midi": 61,
      "hit": false,
      "t": 127083.89533333374,
      "d": 1183.2054166666494,
      "v": 93
    },
    {
      "midi": 52,
      "hit": false,
      "t": 127541.91033333374,
      "d": 305.34333333332324,
      "v": 84
    },
    {
      "midi": 57,
      "hit": false,
      "t": 127770.91783333373,
      "d": 511.45008333332953,
      "v": 88
    },
    {
      "midi": 52,
      "hit": false,
      "t": 127999.92533333373,
      "d": 267.1754166666651,
      "v": 88
    },
    {
      "midi": 45,
      "hit": false,
      "t": 128228.93283333372,
      "d": 38.16791666667268,
      "v": 104
    },
    {
      "midi": 59,
      "hit": false,
      "t": 128267.10075000039,
      "d": 19.083958333343617,
      "v": 88
    },
    {
      "midi": 68,
      "hit": false,
      "t": 128267.10075000039,
      "d": 229.00750000000698,
      "v": 93
    },
    {
      "midi": 52,
      "hit": false,
      "t": 128267.10075000039,
      "d": 1622.1364583333489,
      "v": 104
    },
    {
      "midi": 64,
      "hit": false,
      "t": 128282.36791666706,
      "d": 194.65637500000594,
      "v": 88
    },
    {
      "midi": 59,
      "hit": false,
      "t": 128457.94033333374,
      "d": 782.4422916666663,
      "v": 88
    },
    {
      "midi": 64,
      "hit": false,
      "t": 128686.94783333373,
      "d": 763.3583333333372,
      "v": 93
    },
    {
      "midi": 68,
      "hit": false,
      "t": 128915.95533333374,
      "d": 1145.0375000000058,
      "v": 93
    },
    {
      "midi": 59,
      "hit": false,
      "t": 129373.97033333374,
      "d": 286.2593749999942,
      "v": 88
    },
    {
      "midi": 64,
      "hit": false,
      "t": 129602.97783333373,
      "d": 458.01500000001397,
      "v": 93
    },
    {
      "midi": 59,
      "hit": false,
      "t": 129831.98533333374,
      "d": 229.00750000000698,
      "v": 88
    },
    {
      "midi": 52,
      "hit": false,
      "t": 130060.99283333374,
      "d": 19.083958333343617,
      "v": 88
    },
    {
      "midi": 61,
      "hit": false,
      "t": 130060.99283333374,
      "d": 244.27466666667897,
      "v": 93
    },
    {
      "midi": 57,
      "hit": false,
      "t": 130076.26000000042,
      "d": 213.740333333335,
      "v": 93
    },
    {
      "midi": 45,
      "hit": false,
      "t": 130080.07679166709,
      "d": 1774.8081249999814,
      "v": 99
    },
    {
      "midi": 52,
      "hit": false,
      "t": 130290.00033333375,
      "d": 763.3583333333518,
      "v": 93
    },
    {
      "midi": 57,
      "hit": false,
      "t": 130519.00783333376,
      "d": 744.2743749999936,
      "v": 99
    },
    {
      "midi": 61,
      "hit": false,
      "t": 130748.01533333377,
      "d": 1087.785624999975,
      "v": 93
    },
    {
      "midi": 52,
      "hit": false,
      "t": 131206.03033333377,
      "d": 286.2593749999942,
      "v": 99
    },
    {
      "midi": 57,
      "hit": false,
      "t": 131450.30500000043,
      "d": 385.49595833331114,
      "v": 99
    },
    {
      "midi": 52,
      "hit": false,
      "t": 131664.04533333375,
      "d": 190.83958333331975,
      "v": 93
    },
    {
      "midi": 45,
      "hit": false,
      "t": 131893.05283333373,
      "d": 19.083958333329065,
      "v": 104
    },
    {
      "midi": 52,
      "hit": false,
      "t": 131912.13679166706,
      "d": 1641.220416666707,
      "v": 104
    },
    {
      "midi": 59,
      "hit": false,
      "t": 132122.06033333373,
      "d": 801.5262500000244,
      "v": 93
    },
    {
      "midi": 64,
      "hit": false,
      "t": 132351.06783333374,
      "d": 801.5262500000244,
      "v": 99
    },
    {
      "midi": 68,
      "hit": false,
      "t": 132580.07533333375,
      "d": 1202.289374999993,
      "v": 99
    },
    {
      "midi": 59,
      "hit": false,
      "t": 133038.09033333376,
      "d": 320.6105000000098,
      "v": 84
    },
    {
      "midi": 64,
      "hit": false,
      "t": 133267.09783333377,
      "d": 496.182916666643,
      "v": 93
    },
    {
      "midi": 59,
      "hit": false,
      "t": 133496.10533333378,
      "d": 267.175416666636,
      "v": 84
    },
    {
      "midi": 52,
      "hit": false,
      "t": 133725.11283333375,
      "d": 38.16791666665813,
      "v": 104
    },
    {
      "midi": 52,
      "hit": false,
      "t": 133763.2807500004,
      "d": 19.083958333329065,
      "v": 84
    },
    {
      "midi": 57,
      "hit": false,
      "t": 133763.2807500004,
      "d": 209.92354166664882,
      "v": 93
    },
    {
      "midi": 45,
      "hit": false,
      "t": 133763.2807500004,
      "d": 1641.220416666678,
      "v": 104
    },
    {
      "midi": 61,
      "hit": false,
      "t": 133782.36470833374,
      "d": 229.00749999997788,
      "v": 99
    },
    {
      "midi": 52,
      "hit": false,
      "t": 133954.12033333373,
      "d": 801.5262499999953,
      "v": 93
    },
    {
      "midi": 57,
      "hit": false,
      "t": 134183.1278333337,
      "d": 782.4422916666954,
      "v": 93
    },
    {
      "midi": 61,
      "hit": false,
      "t": 134412.13533333372,
      "d": 1183.205416666693,
      "v": 93
    },
    {
      "midi": 52,
      "hit": false,
      "t": 134870.15033333373,
      "d": 301.5265416666807,
      "v": 84
    },
    {
      "midi": 57,
      "hit": false,
      "t": 135099.15783333374,
      "d": 511.45008333332953,
      "v": 88
    },
    {
      "midi": 52,
      "hit": false,
      "t": 135328.16533333375,
      "d": 248.09145833333605,
      "v": 88
    },
    {
      "midi": 45,
      "hit": false,
      "t": 135557.17283333375,
      "d": 38.16791666665813,
      "v": 104
    },
    {
      "midi": 59,
      "hit": false,
      "t": 135595.3407500004,
      "d": 19.083958333329065,
      "v": 88
    },
    {
      "midi": 68,
      "hit": false,
      "t": 135595.3407500004,
      "d": 229.00749999997788,
      "v": 93
    },
    {
      "midi": 52,
      "hit": false,
      "t": 135595.3407500004,
      "d": 1622.1364583332906,
      "v": 104
    },
    {
      "midi": 64,
      "hit": false,
      "t": 135614.42470833374,
      "d": 190.83958333331975,
      "v": 88
    },
    {
      "midi": 59,
      "hit": false,
      "t": 135786.18033333373,
      "d": 778.6254999999946,
      "v": 88
    },
    {
      "midi": 64,
      "hit": false,
      "t": 136015.1878333337,
      "d": 763.3583333333663,
      "v": 93
    },
    {
      "midi": 68,
      "hit": false,
      "t": 136244.19533333372,
      "d": 1202.289374999964,
      "v": 93
    },
    {
      "midi": 59,
      "hit": false,
      "t": 136702.21033333373,
      "d": 286.2593749999942,
      "v": 88
    },
    {
      "midi": 64,
      "hit": false,
      "t": 136931.21783333374,
      "d": 534.350833333272,
      "v": 93
    },
    {
      "midi": 59,
      "hit": false,
      "t": 137160.2253333337,
      "d": 248.09145833330695,
      "v": 88
    },
    {
      "midi": 52,
      "hit": false,
      "t": 137389.2328333337,
      "d": 57.251874999987194,
      "v": 99
    },
    {
      "midi": 61,
      "hit": false,
      "t": 137446.48470833368,
      "d": 190.83958333331975,
      "v": 93
    },
    {
      "midi": 45,
      "hit": false,
      "t": 137446.48470833368,
      "d": 1736.640208333265,
      "v": 99
    },
    {
      "midi": 57,
      "hit": false,
      "t": 137465.568666667,
      "d": 152.67166666666162,
      "v": 93
    },
    {
      "midi": 52,
      "hit": false,
      "t": 137618.24033333367,
      "d": 763.3583333333372,
      "v": 93
    },
    {
      "midi": 57,
      "hit": false,
      "t": 137847.24783333368,
      "d": 744.274374999979,
      "v": 99
    },
    {
      "midi": 61,
      "hit": false,
      "t": 138076.25533333368,
      "d": 1083.9688333332597,
      "v": 93
    },
    {
      "midi": 52,
      "hit": false,
      "t": 138534.27033333367,
      "d": 267.175416666636,
      "v": 99
    },
    {
      "midi": 57,
      "hit": false,
      "t": 138763.27783333365,
      "d": 400.76312499996857,
      "v": 99
    },
    {
      "midi": 52,
      "hit": false,
      "t": 138992.28533333362,
      "d": 171.7556249999907,
      "v": 93
    },
    {
      "midi": 45,
      "hit": false,
      "t": 139221.2928333336,
      "d": 57.251874999987194,
      "v": 104
    },
    {
      "midi": 52,
      "hit": false,
      "t": 139278.5447083336,
      "d": 1599.2357083333773,
      "v": 104
    },
    {
      "midi": 59,
      "hit": false,
      "t": 139450.30033333358,
      "d": 801.5262500000244,
      "v": 93
    },
    {
      "midi": 64,
      "hit": false,
      "t": 139679.3078333336,
      "d": 801.5262500000244,
      "v": 99
    },
    {
      "midi": 68,
      "hit": false,
      "t": 139908.3153333336,
      "d": 1202.2893750000221,
      "v": 99
    },
    {
      "midi": 59,
      "hit": false,
      "t": 140366.3303333336,
      "d": 324.4272916666814,
      "v": 84
    },
    {
      "midi": 64,
      "hit": false,
      "t": 140595.33783333361,
      "d": 534.3508333333302,
      "v": 93
    },
    {
      "midi": 59,
      "hit": false,
      "t": 140824.34533333362,
      "d": 286.2593749999942,
      "v": 84
    },
    {
      "midi": 52,
      "hit": false,
      "t": 141053.35283333363,
      "d": 57.251874999987194,
      "v": 104
    },
    {
      "midi": 52,
      "hit": false,
      "t": 141110.60470833362,
      "d": 19.083958333329065,
      "v": 84
    },
    {
      "midi": 61,
      "hit": false,
      "t": 141110.60470833362,
      "d": 225.19070833330625,
      "v": 99
    },
    {
      "midi": 45,
      "hit": false,
      "t": 141110.60470833362,
      "d": 1622.1364583333489,
      "v": 104
    },
    {
      "midi": 57,
      "hit": false,
      "t": 141129.68866666695,
      "d": 167.93883333331905,
      "v": 93
    },
    {
      "midi": 52,
      "hit": false,
      "t": 141282.3603333336,
      "d": 801.5262499999953,
      "v": 93
    },
    {
      "midi": 57,
      "hit": false,
      "t": 141511.36783333358,
      "d": 778.6255000000237,
      "v": 93
    },
    {
      "midi": 61,
      "hit": false,
      "t": 141740.3753333336,
      "d": 1183.205416666693,
      "v": 93
    },
    {
      "midi": 52,
      "hit": false,
      "t": 142198.3903333336,
      "d": 305.34333333335235,
      "v": 84
    },
    {
      "midi": 57,
      "hit": false,
      "t": 142427.3978333336,
      "d": 515.2668750000012,
      "v": 88
    },
    {
      "midi": 52,
      "hit": false,
      "t": 142656.40533333362,
      "d": 267.1754166666651,
      "v": 88
    },
    {
      "midi": 45,
      "hit": false,
      "t": 142885.41283333363,
      "d": 57.251874999987194,
      "v": 104
    },
    {
      "midi": 54,
      "hit": false,
      "t": 142923.58075000028,
      "d": 19.083958333329065,
      "v": 88
    },
    {
      "midi": 63,
      "hit": false,
      "t": 142923.58075000028,
      "d": 225.19070833330625,
      "v": 93
    },
    {
      "midi": 59,
      "hit": false,
      "t": 142942.6647083336,
      "d": 190.83958333331975,
      "v": 88
    },
    {
      "midi": 47,
      "hit": false,
      "t": 142942.6647083336,
      "d": 1603.0524999999325,
      "v": 104
    },
    {
      "midi": 54,
      "hit": false,
      "t": 143114.4203333336,
      "d": 782.4422916666372,
      "v": 88
    },
    {
      "midi": 59,
      "hit": false,
      "t": 143343.42783333358,
      "d": 763.3583333333372,
      "v": 93
    },
    {
      "midi": 63,
      "hit": false,
      "t": 143572.4353333336,
      "d": 1393.1289583332837,
      "v": 93
    },
    {
      "midi": 54,
      "hit": false,
      "t": 144030.45033333357,
      "d": 286.2593749999942,
      "v": 88
    },
    {
      "midi": 59,
      "hit": false,
      "t": 144259.45783333358,
      "d": 687.0224999999627,
      "v": 93
    },
    {
      "midi": 54,
      "hit": false,
      "t": 144488.46533333356,
      "d": 248.09145833330695,
      "v": 88
    },
    {
      "midi": 47,
      "hit": false,
      "t": 144717.47283333354,
      "d": 1793.8920833333104,
      "v": 99
    },
    {
      "midi": 54,
      "hit": false,
      "t": 144946.48033333354,
      "d": 759.5415416666947,
      "v": 93
    },
    {
      "midi": 59,
      "hit": false,
      "t": 145175.48783333355,
      "d": 744.2743750000081,
      "v": 99
    },
    {
      "midi": 63,
      "hit": false,
      "t": 145404.49533333356,
      "d": 1083.9688333332888,
      "v": 93
    },
    {
      "midi": 54,
      "hit": false,
      "t": 145862.51033333357,
      "d": 286.2593749999651,
      "v": 99
    },
    {
      "midi": 59,
      "hit": false,
      "t": 146091.51783333355,
      "d": 400.76312499996857,
      "v": 99
    },
    {
      "midi": 54,
      "hit": false,
      "t": 146320.52533333353,
      "d": 171.7556249999907,
      "v": 93
    },
    {
      "midi": 47,
      "hit": false,
      "t": 146549.5328333335,
      "d": 19.083958333329065,
      "v": 104
    },
    {
      "midi": 45,
      "hit": false,
      "t": 146568.61679166683,
      "d": 1637.4036250000645,
      "v": 104
    },
    {
      "midi": 52,
      "hit": false,
      "t": 146778.5403333335,
      "d": 801.5262500000244,
      "v": 93
    },
    {
      "midi": 57,
      "hit": false,
      "t": 147007.54783333352,
      "d": 801.5262500000244,
      "v": 99
    },
    {
      "midi": 61,
      "hit": false,
      "t": 147236.55533333353,
      "d": 1431.296875,
      "v": 99
    },
    {
      "midi": 52,
      "hit": false,
      "t": 147694.57033333354,
      "d": 324.4272916666814,
      "v": 84
    },
    {
      "midi": 57,
      "hit": false,
      "t": 147923.57783333355,
      "d": 706.1064583333209,
      "v": 93
    },
    {
      "midi": 52,
      "hit": false,
      "t": 148152.58533333355,
      "d": 267.1754166666651,
      "v": 84
    },
    {
      "midi": 45,
      "hit": false,
      "t": 148381.59283333356,
      "d": 1679.388333333336,
      "v": 104
    },
    {
      "midi": 52,
      "hit": false,
      "t": 148610.60033333354,
      "d": 801.5262499999953,
      "v": 93
    },
    {
      "midi": 57,
      "hit": false,
      "t": 148839.60783333352,
      "d": 782.4422916666954,
      "v": 93
    },
    {
      "midi": 61,
      "hit": false,
      "t": 149068.61533333352,
      "d": 1183.205416666693,
      "v": 93
    },
    {
      "midi": 52,
      "hit": false,
      "t": 149526.63033333354,
      "d": 305.34333333335235,
      "v": 84
    },
    {
      "midi": 57,
      "hit": false,
      "t": 149755.63783333355,
      "d": 515.2668750000012,
      "v": 88
    },
    {
      "midi": 52,
      "hit": false,
      "t": 149984.64533333355,
      "d": 267.1754166666651,
      "v": 88
    },
    {
      "midi": 45,
      "hit": false,
      "t": 150213.65283333356,
      "d": 38.16791666665813,
      "v": 104
    },
    {
      "midi": 59,
      "hit": false,
      "t": 150251.82075000022,
      "d": 19.083958333329065,
      "v": 88
    },
    {
      "midi": 68,
      "hit": false,
      "t": 150251.82075000022,
      "d": 229.00749999997788,
      "v": 93
    },
    {
      "midi": 52,
      "hit": false,
      "t": 150251.82075000022,
      "d": 1618.3196666666481,
      "v": 104
    },
    {
      "midi": 64,
      "hit": false,
      "t": 150270.90470833355,
      "d": 187.02279166664812,
      "v": 88
    },
    {
      "midi": 59,
      "hit": false,
      "t": 150442.66033333354,
      "d": 782.4422916666372,
      "v": 88
    },
    {
      "midi": 64,
      "hit": false,
      "t": 150671.66783333351,
      "d": 759.5415416666656,
      "v": 93
    },
    {
      "midi": 68,
      "hit": false,
      "t": 150900.67533333352,
      "d": 1393.1289583333419,
      "v": 93
    },
    {
      "midi": 59,
      "hit": false,
      "t": 151358.6903333335,
      "d": 282.44258333335165,
      "v": 88
    },
    {
      "midi": 64,
      "hit": false,
      "t": 151587.6978333335,
      "d": 687.022500000021,
      "v": 93
    },
    {
      "midi": 59,
      "hit": false,
      "t": 151816.70533333352,
      "d": 229.00750000000698,
      "v": 88
    },
    {
      "midi": 52,
      "hit": false,
      "t": 152045.71283333353,
      "d": 1793.8920833332813,
      "v": 99
    },
    {
      "midi": 59,
      "hit": false,
      "t": 152274.72033333353,
      "d": 763.3583333333372,
      "v": 93
    },
    {
      "midi": 64,
      "hit": false,
      "t": 152503.72783333354,
      "d": 744.274374999979,
      "v": 99
    },
    {
      "midi": 68,
      "hit": false,
      "t": 152732.73533333355,
      "d": 1087.7856249999313,
      "v": 93
    },
    {
      "midi": 59,
      "hit": false,
      "t": 153190.75033333353,
      "d": 267.175416666636,
      "v": 99
    },
    {
      "midi": 64,
      "hit": false,
      "t": 153419.7578333335,
      "d": 400.76312499996857,
      "v": 99
    },
    {
      "midi": 59,
      "hit": false,
      "t": 153648.7653333335,
      "d": 171.7556249999907,
      "v": 93
    },
    {
      "midi": 52,
      "hit": false,
      "t": 153877.77283333347,
      "d": 38.16791666665813,
      "v": 104
    },
    {
      "midi": 45,
      "hit": false,
      "t": 153915.94075000013,
      "d": 1618.3196666667063,
      "v": 104
    },
    {
      "midi": 52,
      "hit": false,
      "t": 154106.78033333345,
      "d": 797.7094583333528,
      "v": 93
    },
    {
      "midi": 57,
      "hit": false,
      "t": 154335.78783333345,
      "d": 801.5262500000244,
      "v": 99
    },
    {
      "midi": 61,
      "hit": false,
      "t": 154564.79533333346,
      "d": 1431.296875,
      "v": 99
    },
    {
      "midi": 52,
      "hit": false,
      "t": 155022.81033333347,
      "d": 320.6105000000098,
      "v": 84
    },
    {
      "midi": 57,
      "hit": false,
      "t": 155251.81783333348,
      "d": 706.1064583333209,
      "v": 93
    },
    {
      "midi": 52,
      "hit": false,
      "t": 155480.8253333335,
      "d": 263.3586249999935,
      "v": 84
    },
    {
      "midi": 45,
      "hit": false,
      "t": 155709.8328333335,
      "d": 1679.388333333336,
      "v": 104
    },
    {
      "midi": 52,
      "hit": false,
      "t": 155938.84033333347,
      "d": 801.5262499999953,
      "v": 93
    },
    {
      "midi": 57,
      "hit": false,
      "t": 156167.84783333345,
      "d": 782.4422916666954,
      "v": 93
    },
    {
      "midi": 61,
      "hit": false,
      "t": 156396.85533333346,
      "d": 1221.3733333333512,
      "v": 93
    },
    {
      "midi": 52,
      "hit": false,
      "t": 156854.87033333347,
      "d": 305.34333333335235,
      "v": 84
    },
    {
      "midi": 57,
      "hit": false,
      "t": 157083.87783333348,
      "d": 534.3508333333302,
      "v": 88
    },
    {
      "midi": 52,
      "hit": false,
      "t": 157312.88533333348,
      "d": 286.2593749999942,
      "v": 88
    },
    {
      "midi": 45,
      "hit": false,
      "t": 157541.8928333335,
      "d": 76.33583333331626,
      "v": 104
    },
    {
      "midi": 54,
      "hit": false,
      "t": 157599.14470833348,
      "d": 19.083958333329065,
      "v": 88
    },
    {
      "midi": 59,
      "hit": false,
      "t": 157618.2286666668,
      "d": 167.93883333331905,
      "v": 88
    },
    {
      "midi": 63,
      "hit": false,
      "t": 157618.2286666668,
      "d": 190.83958333331975,
      "v": 93
    },
    {
      "midi": 47,
      "hit": false,
      "t": 157618.2286666668,
      "d": 1583.9685416666325,
      "v": 104
    },
    {
      "midi": 54,
      "hit": false,
      "t": 157770.90033333347,
      "d": 778.6254999999946,
      "v": 88
    },
    {
      "midi": 59,
      "hit": false,
      "t": 157999.90783333345,
      "d": 763.3583333333663,
      "v": 93
    },
    {
      "midi": 63,
      "hit": false,
      "t": 158228.91533333345,
      "d": 1389.312166666612,
      "v": 93
    },
    {
      "midi": 54,
      "hit": false,
      "t": 158686.93033333347,
      "d": 286.2593749999942,
      "v": 88
    },
    {
      "midi": 59,
      "hit": false,
      "t": 158915.93783333348,
      "d": 687.0224999999336,
      "v": 93
    },
    {
      "midi": 54,
      "hit": false,
      "t": 159144.94533333345,
      "d": 244.2746666666353,
      "v": 88
    },
    {
      "midi": 47,
      "hit": false,
      "t": 159373.95283333343,
      "d": 1793.8920833332522,
      "v": 99
    },
    {
      "midi": 54,
      "hit": false,
      "t": 159602.9603333334,
      "d": 759.5415416666656,
      "v": 93
    },
    {
      "midi": 59,
      "hit": false,
      "t": 159831.9678333334,
      "d": 744.2743750000081,
      "v": 99
    },
    {
      "midi": 63,
      "hit": false,
      "t": 160060.9753333334,
      "d": 1087.7856249999604,
      "v": 93
    },
    {
      "midi": 54,
      "hit": false,
      "t": 160518.9903333334,
      "d": 286.2593749999651,
      "v": 99
    },
    {
      "midi": 59,
      "hit": false,
      "t": 160747.9978333334,
      "d": 400.76312499996857,
      "v": 99
    },
    {
      "midi": 54,
      "hit": false,
      "t": 160977.00533333336,
      "d": 171.7556249999907,
      "v": 93
    },
    {
      "midi": 47,
      "hit": false,
      "t": 161206.01283333334,
      "d": 38.16791666665813,
      "v": 104
    },
    {
      "midi": 52,
      "hit": false,
      "t": 161244.18075,
      "d": 1618.3196666666772,
      "v": 104
    },
    {
      "midi": 59,
      "hit": false,
      "t": 161435.02033333332,
      "d": 801.5262500000244,
      "v": 93
    },
    {
      "midi": 64,
      "hit": false,
      "t": 161664.02783333333,
      "d": 801.5262500000244,
      "v": 99
    },
    {
      "midi": 68,
      "hit": false,
      "t": 161893.03533333333,
      "d": 1164.1214583333349,
      "v": 99
    },
    {
      "midi": 59,
      "hit": false,
      "t": 162351.05033333335,
      "d": 324.4272916666814,
      "v": 84
    },
    {
      "midi": 64,
      "hit": false,
      "t": 162580.05783333335,
      "d": 477.09895833331393,
      "v": 93
    },
    {
      "midi": 59,
      "hit": false,
      "t": 162805.2485416667,
      "d": 232.82429166664951,
      "v": 84
    },
    {
      "midi": 52,
      "hit": false,
      "t": 163038.07283333334,
      "d": 38.16791666665813,
      "v": 84
    },
    {
      "midi": 57,
      "hit": false,
      "t": 163057.15679166667,
      "d": 225.19070833330625,
      "v": 93
    },
    {
      "midi": 61,
      "hit": false,
      "t": 163057.15679166667,
      "d": 263.3586249999644,
      "v": 99
    },
    {
      "midi": 45,
      "hit": false,
      "t": 163057.15679166667,
      "d": 1656.4875833333354,
      "v": 104
    },
    {
      "midi": 52,
      "hit": false,
      "t": 163267.08033333332,
      "d": 801.5262499999953,
      "v": 93
    },
    {
      "midi": 57,
      "hit": false,
      "t": 163496.0878333333,
      "d": 778.6255000000237,
      "v": 93
    },
    {
      "midi": 61,
      "hit": false,
      "t": 163725.0953333333,
      "d": 1183.205416666693,
      "v": 93
    },
    {
      "midi": 52,
      "hit": false,
      "t": 164183.11033333332,
      "d": 305.34333333335235,
      "v": 84
    },
    {
      "midi": 57,
      "hit": false,
      "t": 164412.11783333332,
      "d": 515.2668750000012,
      "v": 88
    },
    {
      "midi": 52,
      "hit": false,
      "t": 164641.12533333333,
      "d": 248.09145833333605,
      "v": 88
    },
    {
      "midi": 45,
      "hit": false,
      "t": 164870.13283333334,
      "d": 38.16791666665813,
      "v": 104
    },
    {
      "midi": 59,
      "hit": false,
      "t": 164889.21679166667,
      "d": 38.16791666665813,
      "v": 88
    },
    {
      "midi": 68,
      "hit": false,
      "t": 164908.30075,
      "d": 229.00749999997788,
      "v": 93
    },
    {
      "midi": 52,
      "hit": false,
      "t": 164908.30075,
      "d": 1618.319666666619,
      "v": 104
    },
    {
      "midi": 64,
      "hit": false,
      "t": 164927.38470833332,
      "d": 190.83958333331975,
      "v": 88
    },
    {
      "midi": 59,
      "hit": false,
      "t": 165099.14033333331,
      "d": 782.4422916666372,
      "v": 88
    },
    {
      "midi": 64,
      "hit": false,
      "t": 165328.1478333333,
      "d": 759.5415416666656,
      "v": 93
    },
    {
      "midi": 68,
      "hit": false,
      "t": 165557.1553333333,
      "d": 1145.0374999999767,
      "v": 93
    },
    {
      "midi": 59,
      "hit": false,
      "t": 166015.17033333328,
      "d": 286.2593749999942,
      "v": 88
    },
    {
      "midi": 64,
      "hit": false,
      "t": 166244.1778333333,
      "d": 477.09895833331393,
      "v": 93
    },
    {
      "midi": 59,
      "hit": false,
      "t": 166473.18533333327,
      "d": 248.09145833333605,
      "v": 88
    },
    {
      "midi": 52,
      "hit": false,
      "t": 166702.19283333328,
      "d": 19.083958333329065,
      "v": 99
    },
    {
      "midi": 52,
      "hit": false,
      "t": 166721.2767916666,
      "d": 19.083958333329065,
      "v": 88
    },
    {
      "midi": 57,
      "hit": false,
      "t": 166721.2767916666,
      "d": 209.92354166664882,
      "v": 93
    },
    {
      "midi": 61,
      "hit": false,
      "t": 166721.2767916666,
      "d": 229.00749999997788,
      "v": 93
    },
    {
      "midi": 45,
      "hit": false,
      "t": 166721.2767916666,
      "d": 1774.8081249999523,
      "v": 99
    },
    {
      "midi": 52,
      "hit": false,
      "t": 166931.20033333325,
      "d": 759.5415416666947,
      "v": 93
    },
    {
      "midi": 57,
      "hit": false,
      "t": 167160.20783333326,
      "d": 744.2743750000081,
      "v": 99
    },
    {
      "midi": 61,
      "hit": false,
      "t": 167389.21533333327,
      "d": 1087.7856249999604,
      "v": 93
    },
    {
      "midi": 52,
      "hit": false,
      "t": 167847.23033333328,
      "d": 267.175416666636,
      "v": 99
    },
    {
      "midi": 57,
      "hit": false,
      "t": 168076.23783333326,
      "d": 400.76312499996857,
      "v": 99
    },
    {
      "midi": 52,
      "hit": false,
      "t": 168305.24533333324,
      "d": 171.7556249999907,
      "v": 93
    },
    {
      "midi": 45,
      "hit": false,
      "t": 168534.25283333322,
      "d": 19.083958333329065,
      "v": 104
    },
    {
      "midi": 52,
      "hit": false,
      "t": 168553.33679166654,
      "d": 1641.220416666707,
      "v": 104
    },
    {
      "midi": 59,
      "hit": false,
      "t": 168763.26033333322,
      "d": 801.5262500000244,
      "v": 93
    },
    {
      "midi": 64,
      "hit": false,
      "t": 168992.26783333323,
      "d": 801.5262500000244,
      "v": 99
    },
    {
      "midi": 68,
      "hit": false,
      "t": 169221.27533333324,
      "d": 1202.289374999993,
      "v": 99
    },
    {
      "midi": 59,
      "hit": false,
      "t": 169679.29033333325,
      "d": 324.4272916666814,
      "v": 84
    },
    {
      "midi": 64,
      "hit": false,
      "t": 169908.29783333326,
      "d": 515.2668749999721,
      "v": 93
    },
    {
      "midi": 59,
      "hit": false,
      "t": 170137.30533333326,
      "d": 267.175416666636,
      "v": 84
    },
    {
      "midi": 52,
      "hit": false,
      "t": 170366.31283333324,
      "d": 38.16791666665813,
      "v": 104
    },
    {
      "midi": 52,
      "hit": false,
      "t": 170404.4807499999,
      "d": 19.083958333329065,
      "v": 84
    },
    {
      "midi": 45,
      "hit": false,
      "t": 170404.4807499999,
      "d": 1641.220416666678,
      "v": 104
    },
    {
      "midi": 57,
      "hit": false,
      "t": 170423.56470833323,
      "d": 190.83958333331975,
      "v": 93
    },
    {
      "midi": 61,
      "hit": false,
      "t": 170423.56470833323,
      "d": 229.00749999997788,
      "v": 99
    },
    {
      "midi": 52,
      "hit": false,
      "t": 170595.32033333322,
      "d": 801.5262499999953,
      "v": 93
    },
    {
      "midi": 57,
      "hit": false,
      "t": 170824.3278333332,
      "d": 782.4422916666954,
      "v": 93
    },
    {
      "midi": 61,
      "hit": false,
      "t": 171053.3353333332,
      "d": 1164.121458333364,
      "v": 93
    },
    {
      "midi": 52,
      "hit": false,
      "t": 171511.35033333322,
      "d": 305.34333333335235,
      "v": 84
    },
    {
      "midi": 57,
      "hit": false,
      "t": 171740.35783333323,
      "d": 477.09895833334303,
      "v": 88
    },
    {
      "midi": 52,
      "hit": false,
      "t": 171969.36533333323,
      "d": 248.09145833333605,
      "v": 88
    },
    {
      "midi": 45,
      "hit": false,
      "t": 172198.37283333324,
      "d": 19.083958333329065,
      "v": 104
    },
    {
      "midi": 54,
      "hit": false,
      "t": 172217.45679166657,
      "d": 38.16791666665813,
      "v": 88
    },
    {
      "midi": 59,
      "hit": false,
      "t": 172217.45679166657,
      "d": 229.00749999997788,
      "v": 88
    },
    {
      "midi": 63,
      "hit": false,
      "t": 172217.45679166657,
      "d": 248.09145833330695,
      "v": 93
    },
    {
      "midi": 47,
      "hit": false,
      "t": 172217.45679166657,
      "d": 1641.2204166665906,
      "v": 104
    },
    {
      "midi": 54,
      "hit": false,
      "t": 172427.38033333322,
      "d": 782.4422916666372,
      "v": 88
    },
    {
      "midi": 59,
      "hit": false,
      "t": 172656.3878333332,
      "d": 763.3583333333372,
      "v": 93
    },
    {
      "midi": 63,
      "hit": false,
      "t": 172885.3953333332,
      "d": 1393.1289583332837,
      "v": 93
    },
    {
      "midi": 54,
      "hit": false,
      "t": 173343.4103333332,
      "d": 286.2593749999942,
      "v": 88
    },
    {
      "midi": 59,
      "hit": false,
      "t": 173572.4178333332,
      "d": 687.0224999999627,
      "v": 93
    },
    {
      "midi": 54,
      "hit": false,
      "t": 173801.42533333317,
      "d": 248.09145833330695,
      "v": 88
    },
    {
      "midi": 47,
      "hit": false,
      "t": 174030.43283333315,
      "d": 1793.8920833332813,
      "v": 99
    },
    {
      "midi": 54,
      "hit": false,
      "t": 174259.44033333316,
      "d": 763.3583333333372,
      "v": 93
    },
    {
      "midi": 59,
      "hit": false,
      "t": 174488.44783333316,
      "d": 744.274374999979,
      "v": 99
    },
    {
      "midi": 63,
      "hit": false,
      "t": 174717.45533333317,
      "d": 1087.7856249999313,
      "v": 93
    },
    {
      "midi": 54,
      "hit": false,
      "t": 175175.47033333316,
      "d": 267.175416666636,
      "v": 99
    },
    {
      "midi": 59,
      "hit": false,
      "t": 175404.47783333313,
      "d": 400.76312499996857,
      "v": 99
    },
    {
      "midi": 54,
      "hit": false,
      "t": 175633.4853333331,
      "d": 171.7556249999907,
      "v": 93
    },
    {
      "midi": 47,
      "hit": false,
      "t": 175862.4928333331,
      "d": 38.16791666665813,
      "v": 104
    },
    {
      "midi": 52,
      "hit": false,
      "t": 175900.66074999975,
      "d": 1622.1364583333489,
      "v": 104
    },
    {
      "midi": 59,
      "hit": false,
      "t": 176091.50033333307,
      "d": 801.5262500000244,
      "v": 93
    },
    {
      "midi": 64,
      "hit": false,
      "t": 176320.50783333307,
      "d": 801.5262500000244,
      "v": 99
    },
    {
      "midi": 68,
      "hit": false,
      "t": 176549.51533333308,
      "d": 1183.205416666664,
      "v": 99
    },
    {
      "midi": 59,
      "hit": false,
      "t": 177007.5303333331,
      "d": 324.4272916666814,
      "v": 84
    },
    {
      "midi": 64,
      "hit": false,
      "t": 177236.5378333331,
      "d": 492.36612499997136,
      "v": 93
    },
    {
      "midi": 59,
      "hit": false,
      "t": 177465.5453333331,
      "d": 286.2593749999651,
      "v": 84
    },
    {
      "midi": 52,
      "hit": false,
      "t": 177694.5528333331,
      "d": 38.16791666665813,
      "v": 104
    },
    {
      "midi": 57,
      "hit": false,
      "t": 177732.72074999975,
      "d": 225.19070833330625,
      "v": 93
    },
    {
      "midi": 61,
      "hit": false,
      "t": 177732.72074999975,
      "d": 248.09145833330695,
      "v": 99
    },
    {
      "midi": 45,
      "hit": false,
      "t": 177732.72074999975,
      "d": 1641.220416666678,
      "v": 104
    },
    {
      "midi": 52,
      "hit": false,
      "t": 177923.56033333307,
      "d": 797.7094583333237,
      "v": 93
    },
    {
      "midi": 57,
      "hit": false,
      "t": 178152.56783333304,
      "d": 782.4422916666954,
      "v": 93
    },
    {
      "midi": 61,
      "hit": false,
      "t": 178381.57533333305,
      "d": 1183.205416666693,
      "v": 93
    },
    {
      "midi": 52,
      "hit": false,
      "t": 178839.59033333306,
      "d": 305.34333333335235,
      "v": 84
    },
    {
      "midi": 57,
      "hit": false,
      "t": 179068.59783333307,
      "d": 477.09895833334303,
      "v": 88
    },
    {
      "midi": 52,
      "hit": false,
      "t": 179297.60533333308,
      "d": 248.09145833333605,
      "v": 88
    },
    {
      "midi": 45,
      "hit": false,
      "t": 179526.61283333309,
      "d": 38.16791666665813,
      "v": 104
    },
    {
      "midi": 59,
      "hit": false,
      "t": 179545.6967916664,
      "d": 38.16791666665813,
      "v": 88
    },
    {
      "midi": 64,
      "hit": false,
      "t": 179564.78074999974,
      "d": 209.92354166664882,
      "v": 88
    },
    {
      "midi": 68,
      "hit": false,
      "t": 179564.78074999974,
      "d": 229.00749999997788,
      "v": 93
    },
    {
      "midi": 52,
      "hit": false,
      "t": 179564.78074999974,
      "d": 1622.1364583332906,
      "v": 104
    },
    {
      "midi": 59,
      "hit": false,
      "t": 179755.62033333306,
      "d": 778.6254999999946,
      "v": 88
    },
    {
      "midi": 64,
      "hit": false,
      "t": 179984.62783333304,
      "d": 763.3583333333663,
      "v": 93
    },
    {
      "midi": 68,
      "hit": false,
      "t": 180213.63533333305,
      "d": 1202.289374999964,
      "v": 93
    },
    {
      "midi": 59,
      "hit": false,
      "t": 180671.65033333306,
      "d": 305.34333333332324,
      "v": 88
    },
    {
      "midi": 64,
      "hit": false,
      "t": 180896.8410416664,
      "d": 499.9997083332855,
      "v": 93
    },
    {
      "midi": 59,
      "hit": false,
      "t": 181129.66533333305,
      "d": 229.00749999997788,
      "v": 88
    },
    {
      "midi": 52,
      "hit": false,
      "t": 181358.67283333302,
      "d": 57.251874999987194,
      "v": 99
    },
    {
      "midi": 57,
      "hit": false,
      "t": 181396.84074999968,
      "d": 190.83958333331975,
      "v": 93
    },
    {
      "midi": 61,
      "hit": false,
      "t": 181415.924708333,
      "d": 190.83958333331975,
      "v": 93
    },
    {
      "midi": 45,
      "hit": false,
      "t": 181415.924708333,
      "d": 1736.6402083332941,
      "v": 99
    },
    {
      "midi": 52,
      "hit": false,
      "t": 181587.680333333,
      "d": 763.3583333333372,
      "v": 93
    },
    {
      "midi": 57,
      "hit": false,
      "t": 181816.687833333,
      "d": 740.4575833333365,
      "v": 99
    },
    {
      "midi": 61,
      "hit": false,
      "t": 182045.69533333302,
      "d": 1087.7856249999604,
      "v": 93
    },
    {
      "midi": 52,
      "hit": false,
      "t": 182503.710333333,
      "d": 267.1754166666651,
      "v": 99
    },
    {
      "midi": 57,
      "hit": false,
      "t": 182732.717833333,
      "d": 400.76312499996857,
      "v": 99
    },
    {
      "midi": 52,
      "hit": false,
      "t": 182961.725333333,
      "d": 171.7556249999907,
      "v": 93
    },
    {
      "midi": 45,
      "hit": false,
      "t": 183190.73283333296,
      "d": 38.16791666665813,
      "v": 104
    },
    {
      "midi": 52,
      "hit": false,
      "t": 183228.90074999962,
      "d": 1622.1364583333489,
      "v": 104
    },
    {
      "midi": 59,
      "hit": false,
      "t": 183419.74033333294,
      "d": 801.5262500000244,
      "v": 93
    },
    {
      "midi": 64,
      "hit": false,
      "t": 183648.74783333295,
      "d": 801.5262500000244,
      "v": 99
    },
    {
      "midi": 68,
      "hit": false,
      "t": 183877.75533333296,
      "d": 1164.1214583333349,
      "v": 99
    },
    {
      "midi": 59,
      "hit": false,
      "t": 184335.77033333297,
      "d": 320.6105000000098,
      "v": 84
    },
    {
      "midi": 64,
      "hit": false,
      "t": 184564.77783333298,
      "d": 458.01499999998487,
      "v": 93
    },
    {
      "midi": 59,
      "hit": false,
      "t": 184793.78533333298,
      "d": 248.09145833330695,
      "v": 84
    },
    {
      "midi": 52,
      "hit": false,
      "t": 185022.79283333296,
      "d": 19.083958333329065,
      "v": 104
    },
    {
      "midi": 57,
      "hit": false,
      "t": 185022.79283333296,
      "d": 248.09145833330695,
      "v": 93
    },
    {
      "midi": 52,
      "hit": false,
      "t": 185041.8767916663,
      "d": 19.083958333329065,
      "v": 84
    },
    {
      "midi": 61,
      "hit": false,
      "t": 185041.8767916663,
      "d": 263.3586249999644,
      "v": 99
    },
    {
      "midi": 45,
      "hit": false,
      "t": 185041.8767916663,
      "d": 1660.3043749999779,
      "v": 104
    },
    {
      "midi": 52,
      "hit": false,
      "t": 185251.80033333294,
      "d": 801.5262499999953,
      "v": 93
    },
    {
      "midi": 57,
      "hit": false,
      "t": 185480.80783333292,
      "d": 782.4422916666954,
      "v": 93
    },
    {
      "midi": 61,
      "hit": false,
      "t": 185709.81533333292,
      "d": 1183.205416666664,
      "v": 93
    },
    {
      "midi": 52,
      "hit": false,
      "t": 186167.83033333294,
      "d": 305.34333333332324,
      "v": 84
    },
    {
      "midi": 57,
      "hit": false,
      "t": 186415.92179166627,
      "d": 496.182916666643,
      "v": 88
    },
    {
      "midi": 52,
      "hit": false,
      "t": 186625.84533333292,
      "d": 267.1754166666651,
      "v": 88
    },
    {
      "midi": 45,
      "hit": false,
      "t": 186851.03604166626,
      "d": 61.06866666665883,
      "v": 104
    },
    {
      "midi": 63,
      "hit": false,
      "t": 186893.0207499996,
      "d": 229.00749999997788,
      "v": 93
    },
    {
      "midi": 59,
      "hit": false,
      "t": 186912.10470833292,
      "d": 187.02279166664812,
      "v": 88
    },
    {
      "midi": 47,
      "hit": false,
      "t": 186912.10470833292,
      "d": 1603.0524999999616,
      "v": 104
    },
    {
      "midi": 54,
      "hit": false,
      "t": 187083.8603333329,
      "d": 782.4422916666372,
      "v": 88
    },
    {
      "midi": 59,
      "hit": false,
      "t": 187312.8678333329,
      "d": 763.3583333333372,
      "v": 93
    },
    {
      "midi": 63,
      "hit": false,
      "t": 187538.05854166622,
      "d": 1393.1289583332837,
      "v": 93
    },
    {
      "midi": 54,
      "hit": false,
      "t": 187999.89033333288,
      "d": 282.44258333335165,
      "v": 88
    },
    {
      "midi": 59,
      "hit": false,
      "t": 188228.89783333289,
      "d": 687.0224999999627,
      "v": 93
    },
    {
      "midi": 54,
      "hit": false,
      "t": 188457.9053333329,
      "d": 244.2746666666353,
      "v": 88
    },
    {
      "midi": 47,
      "hit": false,
      "t": 188686.91283333287,
      "d": 1793.8920833332522,
      "v": 99
    },
    {
      "midi": 54,
      "hit": false,
      "t": 188915.92033333285,
      "d": 763.3583333333081,
      "v": 93
    },
    {
      "midi": 59,
      "hit": false,
      "t": 189144.92783333283,
      "d": 740.4575833333365,
      "v": 99
    },
    {
      "midi": 63,
      "hit": false,
      "t": 189373.93533333283,
      "d": 1087.7856249999604,
      "v": 93
    },
    {
      "midi": 54,
      "hit": false,
      "t": 189831.95033333282,
      "d": 286.2593749999942,
      "v": 99
    },
    {
      "midi": 59,
      "hit": false,
      "t": 190080.04179166615,
      "d": 381.6791666666395,
      "v": 99
    },
    {
      "midi": 54,
      "hit": false,
      "t": 190289.9653333328,
      "d": 171.7556249999907,
      "v": 93
    },
    {
      "midi": 47,
      "hit": false,
      "t": 190518.97283333278,
      "d": 38.16791666665813,
      "v": 104
    },
    {
      "midi": 52,
      "hit": false,
      "t": 190572.4079166661,
      "d": 1606.8692916666914,
      "v": 104
    },
    {
      "midi": 59,
      "hit": false,
      "t": 190747.98033333276,
      "d": 797.7094583333528,
      "v": 93
    },
    {
      "midi": 64,
      "hit": false,
      "t": 190976.98783333277,
      "d": 801.5262500000244,
      "v": 99
    },
    {
      "midi": 68,
      "hit": false,
      "t": 191205.99533333277,
      "d": 1164.1214583333349,
      "v": 99
    },
    {
      "midi": 59,
      "hit": false,
      "t": 191664.0103333328,
      "d": 324.4272916666814,
      "v": 84
    },
    {
      "midi": 64,
      "hit": false,
      "t": 191893.0178333328,
      "d": 477.09895833331393,
      "v": 93
    },
    {
      "midi": 59,
      "hit": false,
      "t": 192122.0253333328,
      "d": 267.175416666636,
      "v": 84
    },
    {
      "midi": 52,
      "hit": false,
      "t": 192351.03283333278,
      "d": 38.16791666665813,
      "v": 104
    },
    {
      "midi": 57,
      "hit": false,
      "t": 192370.1167916661,
      "d": 229.00749999997788,
      "v": 93
    },
    {
      "midi": 61,
      "hit": false,
      "t": 192370.1167916661,
      "d": 263.3586249999644,
      "v": 99
    },
    {
      "midi": 45,
      "hit": false,
      "t": 192389.20074999944,
      "d": 1641.2204166666488,
      "v": 104
    },
    {
      "midi": 52,
      "hit": false,
      "t": 192580.04033333276,
      "d": 801.5262499999953,
      "v": 93
    },
    {
      "midi": 57,
      "hit": false,
      "t": 192809.04783333273,
      "d": 782.4422916666954,
      "v": 93
    },
    {
      "midi": 61,
      "hit": false,
      "t": 193038.05533333274,
      "d": 1183.205416666664,
      "v": 93
    },
    {
      "midi": 52,
      "hit": false,
      "t": 193496.07033333275,
      "d": 305.34333333332324,
      "v": 84
    },
    {
      "midi": 57,
      "hit": false,
      "t": 193740.34499999942,
      "d": 480.91574999998556,
      "v": 88
    },
    {
      "midi": 52,
      "hit": false,
      "t": 193954.08533333274,
      "d": 248.09145833333605,
      "v": 88
    },
    {
      "midi": 45,
      "hit": false,
      "t": 194183.09283333275,
      "d": 38.16791666665813,
      "v": 104
    },
    {
      "midi": 59,
      "hit": false,
      "t": 194221.2607499994,
      "d": 15.267166666657431,
      "v": 88
    },
    {
      "midi": 64,
      "hit": false,
      "t": 194221.2607499994,
      "d": 209.92354166664882,
      "v": 88
    },
    {
      "midi": 68,
      "hit": false,
      "t": 194221.2607499994,
      "d": 229.00749999997788,
      "v": 93
    },
    {
      "midi": 52,
      "hit": false,
      "t": 194221.2607499994,
      "d": 1622.1364583332906,
      "v": 104
    },
    {
      "midi": 59,
      "hit": false,
      "t": 194412.10033333272,
      "d": 778.6254999999946,
      "v": 88
    },
    {
      "midi": 64,
      "hit": false,
      "t": 194641.1078333327,
      "d": 763.3583333333663,
      "v": 93
    },
    {
      "midi": 68,
      "hit": false,
      "t": 194870.1153333327,
      "d": 1183.2054166666348,
      "v": 93
    },
    {
      "midi": 59,
      "hit": false,
      "t": 195328.13033333272,
      "d": 286.2593749999942,
      "v": 88
    },
    {
      "midi": 64,
      "hit": false,
      "t": 195557.13783333273,
      "d": 477.0989583332848,
      "v": 93
    },
    {
      "midi": 59,
      "hit": false,
      "t": 195786.1453333327,
      "d": 229.00749999997788,
      "v": 88
    },
    {
      "midi": 52,
      "hit": false,
      "t": 196015.1528333327,
      "d": 38.16791666665813,
      "v": 99
    },
    {
      "midi": 57,
      "hit": false,
      "t": 196034.23679166602,
      "d": 209.92354166664882,
      "v": 93
    },
    {
      "midi": 61,
      "hit": false,
      "t": 196053.32074999934,
      "d": 209.92354166664882,
      "v": 93
    },
    {
      "midi": 45,
      "hit": false,
      "t": 196053.32074999934,
      "d": 1755.7241666666232,
      "v": 99
    },
    {
      "midi": 52,
      "hit": false,
      "t": 196244.16033333266,
      "d": 782.4422916666663,
      "v": 93
    },
    {
      "midi": 57,
      "hit": false,
      "t": 196473.16783333267,
      "d": 740.4575833333365,
      "v": 99
    },
    {
      "midi": 61,
      "hit": false,
      "t": 196702.17533333268,
      "d": 1087.7856249999604,
      "v": 93
    },
    {
      "midi": 52,
      "hit": false,
      "t": 197160.19033333266,
      "d": 267.1754166666651,
      "v": 99
    },
    {
      "midi": 57,
      "hit": false,
      "t": 197408.281791666,
      "d": 381.6791666666395,
      "v": 99
    },
    {
      "midi": 52,
      "hit": false,
      "t": 197618.20533333265,
      "d": 171.7556249999907,
      "v": 93
    },
    {
      "midi": 45,
      "hit": false,
      "t": 197847.21283333263,
      "d": 38.16791666665813,
      "v": 104
    },
    {
      "midi": 52,
      "hit": false,
      "t": 197885.38074999928,
      "d": 1622.1364583333489,
      "v": 104
    },
    {
      "midi": 59,
      "hit": false,
      "t": 198076.2203333326,
      "d": 797.7094583333528,
      "v": 93
    },
    {
      "midi": 64,
      "hit": false,
      "t": 198305.2278333326,
      "d": 797.7094583333528,
      "v": 99
    },
    {
      "midi": 68,
      "hit": false,
      "t": 198534.23533333262,
      "d": 1164.1214583333349,
      "v": 99
    },
    {
      "midi": 59,
      "hit": false,
      "t": 198992.25033333263,
      "d": 324.4272916666814,
      "v": 84
    },
    {
      "midi": 64,
      "hit": false,
      "t": 199240.34179166597,
      "d": 458.01499999998487,
      "v": 93
    },
    {
      "midi": 59,
      "hit": false,
      "t": 199450.26533333265,
      "d": 248.09145833330695,
      "v": 84
    },
    {
      "midi": 52,
      "hit": false,
      "t": 199675.45604166595,
      "d": 22.9007500000007,
      "v": 104
    },
    {
      "midi": 52,
      "hit": false,
      "t": 199698.35679166595,
      "d": 19.083958333329065,
      "v": 84
    },
    {
      "midi": 57,
      "hit": false,
      "t": 199698.35679166595,
      "d": 229.00749999997788,
      "v": 93
    },
    {
      "midi": 45,
      "hit": false,
      "t": 199698.35679166595,
      "d": 1660.304375000007,
      "v": 104
    },
    {
      "midi": 61,
      "hit": false,
      "t": 199713.6239583326,
      "d": 251.90824999997858,
      "v": 99
    },
    {
      "midi": 52,
      "hit": false,
      "t": 199908.2803333326,
      "d": 801.5262499999953,
      "v": 93
    },
    {
      "midi": 57,
      "hit": false,
      "t": 200137.28783333258,
      "d": 778.6255000000237,
      "v": 93
    },
    {
      "midi": 61,
      "hit": false,
      "t": 200366.2953333326,
      "d": 1202.2893750000221,
      "v": 93
    },
    {
      "midi": 52,
      "hit": false,
      "t": 200824.3103333326,
      "d": 301.5265416666807,
      "v": 84
    },
    {
      "midi": 57,
      "hit": false,
      "t": 201053.3178333326,
      "d": 515.2668750000012,
      "v": 88
    },
    {
      "midi": 52,
      "hit": false,
      "t": 201282.3253333326,
      "d": 286.2593749999942,
      "v": 88
    },
    {
      "midi": 45,
      "hit": false,
      "t": 201511.33283333262,
      "d": 57.251874999987194,
      "v": 104
    },
    {
      "midi": 54,
      "hit": false,
      "t": 201568.5847083326,
      "d": 19.083958333329065,
      "v": 88
    },
    {
      "midi": 59,
      "hit": false,
      "t": 201568.5847083326,
      "d": 190.83958333331975,
      "v": 88
    },
    {
      "midi": 63,
      "hit": false,
      "t": 201568.5847083326,
      "d": 206.10674999997718,
      "v": 93
    },
    {
      "midi": 47,
      "hit": false,
      "t": 201568.5847083326,
      "d": 1599.23570833329,
      "v": 104
    },
    {
      "midi": 54,
      "hit": false,
      "t": 201740.3403333326,
      "d": 782.4422916666372,
      "v": 88
    },
    {
      "midi": 59,
      "hit": false,
      "t": 201969.34783333258,
      "d": 763.3583333333372,
      "v": 93
    },
    {
      "midi": 63,
      "hit": false,
      "t": 202198.35533333258,
      "d": 1393.1289583333128,
      "v": 93
    },
    {
      "midi": 54,
      "hit": false,
      "t": 202656.37033333257,
      "d": 286.2593749999942,
      "v": 88
    },
    {
      "midi": 59,
      "hit": false,
      "t": 202885.37783333258,
      "d": 687.0224999999919,
      "v": 93
    },
    {
      "midi": 54,
      "hit": false,
      "t": 203114.38533333255,
      "d": 248.09145833333605,
      "v": 88
    },
    {
      "midi": 47,
      "hit": false,
      "t": 203343.39283333256,
      "d": 1793.8920833332813,
      "v": 99
    },
    {
      "midi": 54,
      "hit": false,
      "t": 203572.40033333257,
      "d": 763.3583333333372,
      "v": 93
    },
    {
      "midi": 59,
      "hit": false,
      "t": 203801.40783333257,
      "d": 744.274374999979,
      "v": 99
    },
    {
      "midi": 63,
      "hit": false,
      "t": 204030.41533333258,
      "d": 1087.7856249999313,
      "v": 93
    },
    {
      "midi": 54,
      "hit": false,
      "t": 204488.43033333257,
      "d": 267.175416666636,
      "v": 99
    },
    {
      "midi": 59,
      "hit": false,
      "t": 204717.43783333254,
      "d": 400.76312499996857,
      "v": 99
    },
    {
      "midi": 54,
      "hit": false,
      "t": 204946.44533333252,
      "d": 171.7556249999907,
      "v": 93
    },
    {
      "midi": 47,
      "hit": false,
      "t": 205175.4528333325,
      "d": 38.16791666665813,
      "v": 104
    },
    {
      "midi": 45,
      "hit": false,
      "t": 205213.62074999916,
      "d": 1618.3196666667063,
      "v": 104
    },
    {
      "midi": 52,
      "hit": false,
      "t": 205404.46033333248,
      "d": 797.7094583333528,
      "v": 93
    },
    {
      "midi": 57,
      "hit": false,
      "t": 205633.46783333248,
      "d": 801.5262500000244,
      "v": 99
    },
    {
      "midi": 61,
      "hit": false,
      "t": 205862.4753333325,
      "d": 1431.296875,
      "v": 99
    },
    {
      "midi": 52,
      "hit": false,
      "t": 206320.4903333325,
      "d": 324.4272916666814,
      "v": 84
    },
    {
      "midi": 57,
      "hit": false,
      "t": 206549.4978333325,
      "d": 706.1064583333209,
      "v": 93
    },
    {
      "midi": 52,
      "hit": false,
      "t": 206778.50533333252,
      "d": 267.1754166666651,
      "v": 84
    },
    {
      "midi": 45,
      "hit": false,
      "t": 207007.51283333253,
      "d": 1679.388333333307,
      "v": 104
    },
    {
      "midi": 52,
      "hit": false,
      "t": 207236.5203333325,
      "d": 801.5262499999953,
      "v": 93
    },
    {
      "midi": 57,
      "hit": false,
      "t": 207465.52783333248,
      "d": 782.4422916666954,
      "v": 93
    },
    {
      "midi": 61,
      "hit": false,
      "t": 207694.5353333325,
      "d": 1164.1214583333349,
      "v": 93
    },
    {
      "midi": 52,
      "hit": false,
      "t": 208152.5503333325,
      "d": 305.34333333332324,
      "v": 84
    },
    {
      "midi": 57,
      "hit": false,
      "t": 208377.74104166584,
      "d": 480.91574999998556,
      "v": 88
    },
    {
      "midi": 52,
      "hit": false,
      "t": 208610.5653333325,
      "d": 248.09145833333605,
      "v": 88
    },
    {
      "midi": 45,
      "hit": false,
      "t": 208839.5728333325,
      "d": 19.083958333329065,
      "v": 104
    },
    {
      "midi": 59,
      "hit": false,
      "t": 208858.65679166582,
      "d": 38.16791666665813,
      "v": 88
    },
    {
      "midi": 64,
      "hit": false,
      "t": 208858.65679166582,
      "d": 225.19070833330625,
      "v": 88
    },
    {
      "midi": 68,
      "hit": false,
      "t": 208858.65679166582,
      "d": 248.09145833330695,
      "v": 93
    },
    {
      "midi": 52,
      "hit": false,
      "t": 208858.65679166582,
      "d": 1641.2204166665906,
      "v": 104
    },
    {
      "midi": 59,
      "hit": false,
      "t": 209068.58033333247,
      "d": 782.4422916666372,
      "v": 88
    },
    {
      "midi": 64,
      "hit": false,
      "t": 209297.58783333245,
      "d": 763.3583333333372,
      "v": 93
    },
    {
      "midi": 68,
      "hit": false,
      "t": 209526.59533333246,
      "d": 1389.312166666612,
      "v": 93
    },
    {
      "midi": 59,
      "hit": false,
      "t": 209984.61033333244,
      "d": 286.2593749999942,
      "v": 88
    },
    {
      "midi": 64,
      "hit": false,
      "t": 210213.61783333245,
      "d": 687.0224999999627,
      "v": 93
    },
    {
      "midi": 59,
      "hit": false,
      "t": 210442.62533333243,
      "d": 229.00749999997788,
      "v": 88
    },
    {
      "midi": 52,
      "hit": false,
      "t": 210671.6328333324,
      "d": 1793.8920833332813,
      "v": 99
    },
    {
      "midi": 59,
      "hit": false,
      "t": 210900.6403333324,
      "d": 763.3583333333081,
      "v": 93
    },
    {
      "midi": 64,
      "hit": false,
      "t": 211129.6478333324,
      "d": 744.274374999979,
      "v": 99
    },
    {
      "midi": 68,
      "hit": false,
      "t": 211358.6553333324,
      "d": 1083.9688333332888,
      "v": 93
    },
    {
      "midi": 59,
      "hit": false,
      "t": 211816.67033333238,
      "d": 267.175416666636,
      "v": 99
    },
    {
      "midi": 64,
      "hit": false,
      "t": 212045.67783333236,
      "d": 400.7631249999977,
      "v": 99
    },
    {
      "midi": 59,
      "hit": false,
      "t": 212270.8685416657,
      "d": 175.57241666666232,
      "v": 93
    },
    {
      "midi": 52,
      "hit": false,
      "t": 212503.69283333234,
      "d": 19.083958333329065,
      "v": 104
    },
    {
      "midi": 45,
      "hit": false,
      "t": 212522.77679166567,
      "d": 1641.220416666707,
      "v": 104
    },
    {
      "midi": 52,
      "hit": false,
      "t": 212732.70033333235,
      "d": 801.5262500000244,
      "v": 93
    },
    {
      "midi": 57,
      "hit": false,
      "t": 212961.70783333236,
      "d": 801.5262500000244,
      "v": 99
    },
    {
      "midi": 61,
      "hit": false,
      "t": 213190.71533333237,
      "d": 1221.373333333322,
      "v": 99
    },
    {
      "midi": 52,
      "hit": false,
      "t": 213648.73033333238,
      "d": 324.4272916666814,
      "v": 84
    },
    {
      "midi": 57,
      "hit": false,
      "t": 213877.7378333324,
      "d": 534.3508333333011,
      "v": 93
    },
    {
      "midi": 52,
      "hit": false,
      "t": 214106.7453333324,
      "d": 267.175416666636,
      "v": 84
    },
    {
      "midi": 45,
      "hit": false,
      "t": 214335.75283333237,
      "d": 76.33583333331626,
      "v": 104
    },
    {
      "midi": 54,
      "hit": false,
      "t": 214412.0886666657,
      "d": 171.7556249999907,
      "v": 93
    },
    {
      "midi": 57,
      "hit": false,
      "t": 214412.0886666657,
      "d": 209.92354166664882,
      "v": 99
    },
    {
      "midi": 42,
      "hit": false,
      "t": 214412.0886666657,
      "d": 1603.0525000000198,
      "v": 104
    },
    {
      "midi": 49,
      "hit": false,
      "t": 214564.76033333235,
      "d": 801.5262499999953,
      "v": 93
    },
    {
      "midi": 54,
      "hit": false,
      "t": 214793.76783333233,
      "d": 782.4422916666954,
      "v": 93
    },
    {
      "midi": 57,
      "hit": false,
      "t": 215022.77533333233,
      "d": 1183.205416666693,
      "v": 93
    },
    {
      "midi": 49,
      "hit": false,
      "t": 215480.79033333235,
      "d": 301.5265416666807,
      "v": 84
    },
    {
      "midi": 54,
      "hit": false,
      "t": 215709.79783333236,
      "d": 477.09895833334303,
      "v": 88
    },
    {
      "midi": 49,
      "hit": false,
      "t": 215938.80533333236,
      "d": 267.1754166666651,
      "v": 88
    },
    {
      "midi": 42,
      "hit": false,
      "t": 216167.81283333237,
      "d": 38.16791666665813,
      "v": 104
    },
    {
      "midi": 59,
      "hit": false,
      "t": 216186.8967916657,
      "d": 229.00749999997788,
      "v": 88
    },
    {
      "midi": 54,
      "hit": false,
      "t": 216205.98074999903,
      "d": 15.267166666657431,
      "v": 88
    },
    {
      "midi": 63,
      "hit": false,
      "t": 216205.98074999903,
      "d": 229.00749999997788,
      "v": 93
    },
    {
      "midi": 47,
      "hit": false,
      "t": 216205.98074999903,
      "d": 1622.1364583332906,
      "v": 104
    },
    {
      "midi": 54,
      "hit": false,
      "t": 216396.82033333235,
      "d": 778.6254999999946,
      "v": 88
    },
    {
      "midi": 59,
      "hit": false,
      "t": 216625.82783333233,
      "d": 763.3583333333663,
      "v": 93
    },
    {
      "midi": 63,
      "hit": false,
      "t": 216854.83533333233,
      "d": 1393.1289583332837,
      "v": 93
    },
    {
      "midi": 54,
      "hit": false,
      "t": 217312.85033333235,
      "d": 286.2593749999942,
      "v": 88
    },
    {
      "midi": 59,
      "hit": false,
      "t": 217541.85783333235,
      "d": 687.0224999999336,
      "v": 93
    },
    {
      "midi": 54,
      "hit": false,
      "t": 217770.86533333233,
      "d": 244.2746666666353,
      "v": 88
    },
    {
      "midi": 47,
      "hit": false,
      "t": 217999.8728333323,
      "d": 1793.8920833332813,
      "v": 99
    },
    {
      "midi": 54,
      "hit": false,
      "t": 218228.8803333323,
      "d": 759.5415416666947,
      "v": 93
    },
    {
      "midi": 59,
      "hit": false,
      "t": 218457.8878333323,
      "d": 744.2743750000081,
      "v": 99
    },
    {
      "midi": 63,
      "hit": false,
      "t": 218686.8953333323,
      "d": 1087.7856249999604,
      "v": 93
    },
    {
      "midi": 54,
      "hit": false,
      "t": 219144.91033333231,
      "d": 286.2593749999651,
      "v": 99
    },
    {
      "midi": 59,
      "hit": false,
      "t": 219373.9178333323,
      "d": 400.76312499996857,
      "v": 99
    },
    {
      "midi": 54,
      "hit": false,
      "t": 219602.92533333227,
      "d": 171.7556249999907,
      "v": 93
    },
    {
      "midi": 47,
      "hit": false,
      "t": 219831.93283333225,
      "d": 57.251874999987194,
      "v": 104
    },
    {
      "midi": 52,
      "hit": false,
      "t": 219889.18470833224,
      "d": 1603.0525000000198,
      "v": 104
    },
    {
      "midi": 59,
      "hit": false,
      "t": 220060.94033333223,
      "d": 801.5262500000244,
      "v": 93
    },
    {
      "midi": 64,
      "hit": false,
      "t": 220289.94783333223,
      "d": 801.5262500000244,
      "v": 99
    },
    {
      "midi": 68,
      "hit": false,
      "t": 220518.95533333224,
      "d": 1183.205416666664,
      "v": 99
    },
    {
      "midi": 59,
      "hit": false,
      "t": 220976.97033333225,
      "d": 324.4272916666814,
      "v": 84
    },
    {
      "midi": 64,
      "hit": false,
      "t": 221205.97783333226,
      "d": 515.2668749999721,
      "v": 93
    },
    {
      "midi": 59,
      "hit": false,
      "t": 221434.98533333227,
      "d": 267.175416666636,
      "v": 84
    },
    {
      "midi": 52,
      "hit": false,
      "t": 221663.99283333225,
      "d": 38.16791666665813,
      "v": 104
    },
    {
      "midi": 49,
      "hit": false,
      "t": 221702.1607499989,
      "d": 19.083958333329065,
      "v": 84
    },
    {
      "midi": 57,
      "hit": false,
      "t": 221702.1607499989,
      "d": 248.09145833330695,
      "v": 99
    },
    {
      "midi": 42,
      "hit": false,
      "t": 221702.1607499989,
      "d": 1641.220416666678,
      "v": 104
    },
    {
      "midi": 54,
      "hit": false,
      "t": 221721.24470833223,
      "d": 190.83958333331975,
      "v": 93
    },
    {
      "midi": 49,
      "hit": false,
      "t": 221893.00033333222,
      "d": 797.7094583333237,
      "v": 93
    },
    {
      "midi": 54,
      "hit": false,
      "t": 222122.0078333322,
      "d": 778.6255000000237,
      "v": 93
    },
    {
      "midi": 57,
      "hit": false,
      "t": 222351.0153333322,
      "d": 1183.205416666693,
      "v": 93
    },
    {
      "midi": 49,
      "hit": false,
      "t": 222809.03033333222,
      "d": 301.5265416666807,
      "v": 84
    },
    {
      "midi": 54,
      "hit": false,
      "t": 223038.03783333223,
      "d": 496.1829166666721,
      "v": 88
    },
    {
      "midi": 49,
      "hit": false,
      "t": 223267.04533333224,
      "d": 267.1754166666651,
      "v": 88
    },
    {
      "midi": 42,
      "hit": false,
      "t": 223496.05283333224,
      "d": 57.251874999987194,
      "v": 104
    },
    {
      "midi": 52,
      "hit": false,
      "t": 223534.2207499989,
      "d": 19.083958333329065,
      "v": 88
    },
    {
      "midi": 57,
      "hit": false,
      "t": 223534.2207499989,
      "d": 209.92354166664882,
      "v": 88
    },
    {
      "midi": 61,
      "hit": false,
      "t": 223553.30470833223,
      "d": 209.92354166664882,
      "v": 93
    },
    {
      "midi": 45,
      "hit": false,
      "t": 223553.30470833223,
      "d": 1603.0524999999616,
      "v": 104
    },
    {
      "midi": 52,
      "hit": false,
      "t": 223725.06033333222,
      "d": 778.6254999999946,
      "v": 88
    },
    {
      "midi": 57,
      "hit": false,
      "t": 223954.0678333322,
      "d": 763.3583333333663,
      "v": 93
    },
    {
      "midi": 61,
      "hit": false,
      "t": 224183.0753333322,
      "d": 1202.289374999964,
      "v": 93
    },
    {
      "midi": 52,
      "hit": false,
      "t": 224641.09033333222,
      "d": 286.2593749999942,
      "v": 88
    },
    {
      "midi": 57,
      "hit": false,
      "t": 224885.36499999888,
      "d": 499.9997083332855,
      "v": 93
    },
    {
      "midi": 52,
      "hit": false,
      "t": 225099.1053333322,
      "d": 229.00749999997788,
      "v": 88
    },
    {
      "midi": 45,
      "hit": false,
      "t": 225328.11283333218,
      "d": 57.251874999987194,
      "v": 99
    },
    {
      "midi": 59,
      "hit": false,
      "t": 225385.36470833217,
      "d": 171.7556249999907,
      "v": 93
    },
    {
      "midi": 63,
      "hit": false,
      "t": 225385.36470833217,
      "d": 187.02279166664812,
      "v": 93
    },
    {
      "midi": 47,
      "hit": false,
      "t": 225385.36470833217,
      "d": 1736.640208333236,
      "v": 99
    },
    {
      "midi": 54,
      "hit": false,
      "t": 225557.12033333216,
      "d": 763.3583333333081,
      "v": 93
    },
    {
      "midi": 59,
      "hit": false,
      "t": 225786.12783333214,
      "d": 744.274374999979,
      "v": 99
    },
    {
      "midi": 63,
      "hit": false,
      "t": 226015.13533333215,
      "d": 1087.7856249999313,
      "v": 93
    },
    {
      "midi": 54,
      "hit": false,
      "t": 226473.15033333213,
      "d": 267.175416666636,
      "v": 99
    },
    {
      "midi": 59,
      "hit": false,
      "t": 226702.1578333321,
      "d": 400.76312499996857,
      "v": 99
    },
    {
      "midi": 54,
      "hit": false,
      "t": 226931.1653333321,
      "d": 171.7556249999907,
      "v": 93
    },
    {
      "midi": 47,
      "hit": false,
      "t": 227160.17283333206,
      "d": 57.251874999987194,
      "v": 104
    },
    {
      "midi": 52,
      "hit": false,
      "t": 227217.42470833205,
      "d": 1599.2357083333773,
      "v": 104
    },
    {
      "midi": 59,
      "hit": false,
      "t": 227389.18033333204,
      "d": 797.7094583333528,
      "v": 93
    },
    {
      "midi": 64,
      "hit": false,
      "t": 227618.18783333205,
      "d": 801.5262500000244,
      "v": 99
    },
    {
      "midi": 68,
      "hit": false,
      "t": 227847.19533333206,
      "d": 1240.4572916666802,
      "v": 99
    },
    {
      "midi": 59,
      "hit": false,
      "t": 228305.21033333207,
      "d": 320.6105000000098,
      "v": 84
    },
    {
      "midi": 64,
      "hit": false,
      "t": 228534.21783333208,
      "d": 553.4347916666593,
      "v": 93
    },
    {
      "midi": 59,
      "hit": false,
      "t": 228763.22533333208,
      "d": 263.3586249999935,
      "v": 84
    },
    {
      "midi": 52,
      "hit": false,
      "t": 228992.2328333321,
      "d": 76.33583333331626,
      "v": 104
    },
    {
      "midi": 42,
      "hit": false,
      "t": 229068.5686666654,
      "d": 1603.0524999999907,
      "v": 104
    },
    {
      "midi": 54,
      "hit": false,
      "t": 229087.65262499874,
      "d": 152.67166666666162,
      "v": 93
    },
    {
      "midi": 57,
      "hit": false,
      "t": 229087.65262499874,
      "d": 190.83958333331975,
      "v": 99
    },
    {
      "midi": 49,
      "hit": false,
      "t": 229221.24033333207,
      "d": 797.7094583333237,
      "v": 93
    },
    {
      "midi": 54,
      "hit": false,
      "t": 229450.24783333205,
      "d": 782.4422916666954,
      "v": 93
    },
    {
      "midi": 57,
      "hit": false,
      "t": 229679.25533333205,
      "d": 1164.1214583333349,
      "v": 93
    },
    {
      "midi": 49,
      "hit": false,
      "t": 230137.27033333207,
      "d": 305.34333333332324,
      "v": 84
    },
    {
      "midi": 54,
      "hit": false,
      "t": 230381.54499999873,
      "d": 458.01499999998487,
      "v": 88
    },
    {
      "midi": 49,
      "hit": false,
      "t": 230595.28533333205,
      "d": 248.09145833333605,
      "v": 88
    },
    {
      "midi": 42,
      "hit": false,
      "t": 230824.29283333206,
      "d": 38.16791666665813,
      "v": 104
    },
    {
      "midi": 52,
      "hit": false,
      "t": 230843.3767916654,
      "d": 38.16791666665813,
      "v": 88
    },
    {
      "midi": 57,
      "hit": false,
      "t": 230843.3767916654,
      "d": 225.19070833330625,
      "v": 88
    },
    {
      "midi": 61,
      "hit": false,
      "t": 230862.46074999872,
      "d": 229.00749999997788,
      "v": 93
    },
    {
      "midi": 45,
      "hit": false,
      "t": 230862.46074999872,
      "d": 1622.1364583332615,
      "v": 104
    },
    {
      "midi": 52,
      "hit": false,
      "t": 231053.30033333204,
      "d": 782.4422916666372,
      "v": 88
    },
    {
      "midi": 57,
      "hit": false,
      "t": 231282.30783333202,
      "d": 759.5415416666656,
      "v": 93
    },
    {
      "midi": 61,
      "hit": false,
      "t": 231511.31533333202,
      "d": 1202.2893749999348,
      "v": 93
    },
    {
      "midi": 52,
      "hit": false,
      "t": 231969.330333332,
      "d": 286.2593749999942,
      "v": 88
    },
    {
      "midi": 57,
      "hit": false,
      "t": 232198.337833332,
      "d": 496.1829166666139,
      "v": 93
    },
    {
      "midi": 52,
      "hit": false,
      "t": 232427.345333332,
      "d": 229.00749999997788,
      "v": 88
    },
    {
      "midi": 45,
      "hit": false,
      "t": 232656.35283333197,
      "d": 57.251874999987194,
      "v": 99
    },
    {
      "midi": 59,
      "hit": false,
      "t": 232694.52074999863,
      "d": 190.83958333331975,
      "v": 93
    },
    {
      "midi": 63,
      "hit": false,
      "t": 232713.60470833196,
      "d": 209.92354166664882,
      "v": 93
    },
    {
      "midi": 47,
      "hit": false,
      "t": 232713.60470833196,
      "d": 1736.640208333265,
      "v": 99
    },
    {
      "midi": 54,
      "hit": false,
      "t": 232885.36033333195,
      "d": 763.3583333333081,
      "v": 93
    },
    {
      "midi": 59,
      "hit": false,
      "t": 233114.36783333193,
      "d": 740.4575833333365,
      "v": 99
    },
    {
      "midi": 63,
      "hit": false,
      "t": 233343.37533333193,
      "d": 1087.7856249999604,
      "v": 93
    },
    {
      "midi": 54,
      "hit": false,
      "t": 233801.39033333192,
      "d": 267.1754166666651,
      "v": 99
    },
    {
      "midi": 59,
      "hit": false,
      "t": 234049.48179166525,
      "d": 381.6791666666395,
      "v": 99
    },
    {
      "midi": 54,
      "hit": false,
      "t": 234259.4053333319,
      "d": 171.7556249999907,
      "v": 93
    },
    {
      "midi": 47,
      "hit": false,
      "t": 234488.41283333188,
      "d": 57.251874999987194,
      "v": 104
    },
    {
      "midi": 52,
      "hit": false,
      "t": 234545.66470833187,
      "d": 1603.0525000000198,
      "v": 104
    },
    {
      "midi": 59,
      "hit": false,
      "t": 234717.42033333186,
      "d": 797.7094583333528,
      "v": 93
    },
    {
      "midi": 64,
      "hit": false,
      "t": 234946.42783333187,
      "d": 801.5262500000244,
      "v": 99
    },
    {
      "midi": 68,
      "hit": false,
      "t": 235175.43533333187,
      "d": 1164.1214583333349,
      "v": 99
    },
    {
      "midi": 59,
      "hit": false,
      "t": 235633.4503333319,
      "d": 324.4272916666814,
      "v": 84
    },
    {
      "midi": 64,
      "hit": false,
      "t": 235862.4578333319,
      "d": 477.09895833331393,
      "v": 93
    },
    {
      "midi": 59,
      "hit": false,
      "t": 236091.4653333319,
      "d": 248.09145833330695,
      "v": 84
    },
    {
      "midi": 52,
      "hit": false,
      "t": 236320.47283333188,
      "d": 19.083958333329065,
      "v": 104
    },
    {
      "midi": 49,
      "hit": false,
      "t": 236339.5567916652,
      "d": 19.083958333329065,
      "v": 84
    },
    {
      "midi": 54,
      "hit": false,
      "t": 236339.5567916652,
      "d": 244.2746666666353,
      "v": 93
    },
    {
      "midi": 57,
      "hit": false,
      "t": 236339.5567916652,
      "d": 267.175416666636,
      "v": 99
    },
    {
      "midi": 42,
      "hit": false,
      "t": 236339.5567916652,
      "d": 1656.4875833333354,
      "v": 104
    },
    {
      "midi": 49,
      "hit": false,
      "t": 236549.48033333186,
      "d": 801.5262499999953,
      "v": 93
    },
    {
      "midi": 54,
      "hit": false,
      "t": 236778.48783333183,
      "d": 782.4422916666954,
      "v": 93
    },
    {
      "midi": 57,
      "hit": false,
      "t": 237007.49533333184,
      "d": 1164.121458333364,
      "v": 93
    },
    {
      "midi": 49,
      "hit": false,
      "t": 237465.51033333185,
      "d": 305.34333333335235,
      "v": 84
    },
    {
      "midi": 54,
      "hit": false,
      "t": 237694.51783333186,
      "d": 477.09895833334303,
      "v": 88
    },
    {
      "midi": 49,
      "hit": false,
      "t": 237923.52533333187,
      "d": 248.09145833333605,
      "v": 88
    },
    {
      "midi": 42,
      "hit": false,
      "t": 238152.53283333188,
      "d": 19.083958333329065,
      "v": 104
    },
    {
      "midi": 52,
      "hit": false,
      "t": 238171.6167916652,
      "d": 38.16791666665813,
      "v": 88
    },
    {
      "midi": 57,
      "hit": false,
      "t": 238171.6167916652,
      "d": 229.00749999997788,
      "v": 88
    },
    {
      "midi": 61,
      "hit": false,
      "t": 238171.6167916652,
      "d": 244.2746666666353,
      "v": 93
    },
    {
      "midi": 45,
      "hit": false,
      "t": 238186.88395833186,
      "d": 1625.9532499999332,
      "v": 104
    },
    {
      "midi": 52,
      "hit": false,
      "t": 238381.54033333185,
      "d": 782.4422916666372,
      "v": 88
    },
    {
      "midi": 57,
      "hit": false,
      "t": 238610.54783333183,
      "d": 763.3583333333372,
      "v": 93
    },
    {
      "midi": 61,
      "hit": false,
      "t": 238839.55533333184,
      "d": 1221.3733333332639,
      "v": 93
    },
    {
      "midi": 52,
      "hit": false,
      "t": 239297.57033333182,
      "d": 286.2593749999942,
      "v": 88
    },
    {
      "midi": 57,
      "hit": false,
      "t": 239526.57783333183,
      "d": 515.266874999943,
      "v": 93
    },
    {
      "midi": 52,
      "hit": false,
      "t": 239755.5853333318,
      "d": 248.09145833330695,
      "v": 88
    },
    {
      "midi": 45,
      "hit": false,
      "t": 239984.5928333318,
      "d": 57.251874999987194,
      "v": 99
    },
    {
      "midi": 59,
      "hit": false,
      "t": 240041.84470833177,
      "d": 171.7556249999907,
      "v": 93
    },
    {
      "midi": 63,
      "hit": false,
      "t": 240060.9286666651,
      "d": 171.7556249999907,
      "v": 93
    },
    {
      "midi": 47,
      "hit": false,
      "t": 240060.9286666651,
      "d": 1717.556249999936,
      "v": 99
    },
    {
      "midi": 54,
      "hit": false,
      "t": 240213.60033333176,
      "d": 763.3583333333372,
      "v": 93
    },
    {
      "midi": 59,
      "hit": false,
      "t": 240442.60783333177,
      "d": 744.274374999979,
      "v": 99
    },
    {
      "midi": 63,
      "hit": false,
      "t": 240671.61533333178,
      "d": 1083.9688333332597,
      "v": 93
    },
    {
      "midi": 54,
      "hit": false,
      "t": 241129.63033333176,
      "d": 286.2593749999651,
      "v": 99
    },
    {
      "midi": 59,
      "hit": false,
      "t": 241377.72179166507,
      "d": 381.6791666666395,
      "v": 99
    },
    {
      "midi": 54,
      "hit": false,
      "t": 241587.64533333172,
      "d": 171.7556249999907,
      "v": 93
    },
    {
      "midi": 47,
      "hit": false,
      "t": 241835.73679166503,
      "d": 38.16791666665813,
      "v": 104
    },
    {
      "midi": 52,
      "hit": false,
      "t": 241873.90470833168,
      "d": 1603.0525000000198,
      "v": 104
    },
    {
      "midi": 59,
      "hit": false,
      "t": 242045.66033333167,
      "d": 801.5262500000244,
      "v": 93
    },
    {
      "midi": 64,
      "hit": false,
      "t": 242274.66783333168,
      "d": 801.5262500000244,
      "v": 99
    },
    {
      "midi": 68,
      "hit": false,
      "t": 242503.6753333317,
      "d": 1202.289374999993,
      "v": 99
    },
    {
      "midi": 59,
      "hit": false,
      "t": 242961.6903333317,
      "d": 320.6105000000098,
      "v": 84
    },
    {
      "midi": 64,
      "hit": false,
      "t": 243190.6978333317,
      "d": 515.2668749999721,
      "v": 93
    },
    {
      "midi": 59,
      "hit": false,
      "t": 243419.70533333172,
      "d": 267.175416666636,
      "v": 84
    },
    {
      "midi": 52,
      "hit": false,
      "t": 243648.7128333317,
      "d": 57.251874999987194,
      "v": 104
    },
    {
      "midi": 49,
      "hit": false,
      "t": 243686.88074999835,
      "d": 19.083958333329065,
      "v": 84
    },
    {
      "midi": 54,
      "hit": false,
      "t": 243705.96470833168,
      "d": 190.83958333331975,
      "v": 93
    },
    {
      "midi": 57,
      "hit": false,
      "t": 243705.96470833168,
      "d": 225.19070833330625,
      "v": 99
    },
    {
      "midi": 42,
      "hit": false,
      "t": 243705.96470833168,
      "d": 1618.3196666666772,
      "v": 104
    },
    {
      "midi": 49,
      "hit": false,
      "t": 243877.72033333167,
      "d": 797.7094583333237,
      "v": 93
    },
    {
      "midi": 54,
      "hit": false,
      "t": 244106.72783333165,
      "d": 782.4422916666954,
      "v": 93
    },
    {
      "midi": 57,
      "hit": false,
      "t": 244335.73533333166,
      "d": 1183.205416666693,
      "v": 93
    },
    {
      "midi": 49,
      "hit": false,
      "t": 244793.75033333167,
      "d": 301.5265416666807,
      "v": 84
    },
    {
      "midi": 54,
      "hit": false,
      "t": 245022.75783333168,
      "d": 515.2668750000012,
      "v": 88
    },
    {
      "midi": 49,
      "hit": false,
      "t": 245251.76533333168,
      "d": 267.1754166666651,
      "v": 88
    },
    {
      "midi": 42,
      "hit": false,
      "t": 245480.7728333317,
      "d": 57.251874999987194,
      "v": 104
    },
    {
      "midi": 61,
      "hit": false,
      "t": 245518.94074999835,
      "d": 229.00749999997788,
      "v": 93
    },
    {
      "midi": 57,
      "hit": false,
      "t": 245538.02470833168,
      "d": 187.02279166664812,
      "v": 88
    },
    {
      "midi": 45,
      "hit": false,
      "t": 245538.02470833168,
      "d": 1603.0524999999325,
      "v": 104
    },
    {
      "midi": 52,
      "hit": false,
      "t": 245709.78033333167,
      "d": 782.4422916666372,
      "v": 88
    },
    {
      "midi": 57,
      "hit": false,
      "t": 245938.78783333165,
      "d": 782.4422916666663,
      "v": 93
    },
    {
      "midi": 61,
      "hit": false,
      "t": 246167.79533333165,
      "d": 1202.2893749999348,
      "v": 93
    },
    {
      "midi": 52,
      "hit": false,
      "t": 246625.81033333164,
      "d": 286.2593749999942,
      "v": 88
    },
    {
      "midi": 57,
      "hit": false,
      "t": 246854.81783333165,
      "d": 534.350833333272,
      "v": 93
    },
    {
      "midi": 52,
      "hit": false,
      "t": 247083.82533333162,
      "d": 248.09145833330695,
      "v": 88
    },
    {
      "midi": 45,
      "hit": false,
      "t": 247312.8328333316,
      "d": 76.33583333331626,
      "v": 99
    },
    {
      "midi": 63,
      "hit": false,
      "t": 247370.0847083316,
      "d": 190.83958333331975,
      "v": 93
    },
    {
      "midi": 59,
      "hit": false,
      "t": 247389.16866666492,
      "d": 152.67166666666162,
      "v": 93
    },
    {
      "midi": 47,
      "hit": false,
      "t": 247389.16866666492,
      "d": 1717.556249999936,
      "v": 99
    },
    {
      "midi": 54,
      "hit": false,
      "t": 247541.84033333158,
      "d": 763.3583333333372,
      "v": 93
    },
    {
      "midi": 59,
      "hit": false,
      "t": 247770.8478333316,
      "d": 744.274374999979,
      "v": 99
    },
    {
      "midi": 63,
      "hit": false,
      "t": 247999.8553333316,
      "d": 1087.7856249999313,
      "v": 93
    },
    {
      "midi": 54,
      "hit": false,
      "t": 248457.87033333158,
      "d": 267.175416666636,
      "v": 99
    },
    {
      "midi": 59,
      "hit": false,
      "t": 248705.9617916649,
      "d": 381.6791666666395,
      "v": 99
    },
    {
      "midi": 54,
      "hit": false,
      "t": 248915.88533333153,
      "d": 171.7556249999907,
      "v": 93
    },
    {
      "midi": 47,
      "hit": false,
      "t": 249163.97679166484,
      "d": 38.16791666665813,
      "v": 104
    },
    {
      "midi": 52,
      "hit": false,
      "t": 249202.1447083315,
      "d": 1603.0525000000198,
      "v": 104
    },
    {
      "midi": 59,
      "hit": false,
      "t": 249373.9003333315,
      "d": 801.5262500000244,
      "v": 93
    },
    {
      "midi": 64,
      "hit": false,
      "t": 249602.9078333315,
      "d": 801.5262500000244,
      "v": 99
    },
    {
      "midi": 68,
      "hit": false,
      "t": 249831.9153333315,
      "d": 1217.5565416666504,
      "v": 99
    },
    {
      "midi": 59,
      "hit": false,
      "t": 250289.93033333152,
      "d": 320.6105000000098,
      "v": 84
    },
    {
      "midi": 64,
      "hit": false,
      "t": 250518.93783333153,
      "d": 534.3508333333011,
      "v": 93
    },
    {
      "midi": 59,
      "hit": false,
      "t": 250747.94533333153,
      "d": 267.175416666636,
      "v": 84
    },
    {
      "midi": 52,
      "hit": false,
      "t": 250976.9528333315,
      "d": 57.251874999987194,
      "v": 104
    },
    {
      "midi": 42,
      "hit": false,
      "t": 251034.2047083315,
      "d": 1618.3196666666772,
      "v": 104
    },
    {
      "midi": 54,
      "hit": false,
      "t": 251053.28866666483,
      "d": 171.7556249999907,
      "v": 93
    },
    {
      "midi": 57,
      "hit": false,
      "t": 251053.28866666483,
      "d": 209.92354166664882,
      "v": 99
    },
    {
      "midi": 49,
      "hit": false,
      "t": 251205.9603333315,
      "d": 797.7094583333237,
      "v": 93
    },
    {
      "midi": 54,
      "hit": false,
      "t": 251434.96783333147,
      "d": 782.4422916666954,
      "v": 93
    },
    {
      "midi": 57,
      "hit": false,
      "t": 251663.97533333147,
      "d": 1202.2893750000221,
      "v": 93
    },
    {
      "midi": 49,
      "hit": false,
      "t": 252121.9903333315,
      "d": 305.34333333335235,
      "v": 84
    },
    {
      "midi": 54,
      "hit": false,
      "t": 252350.9978333315,
      "d": 515.2668750000012,
      "v": 88
    },
    {
      "midi": 49,
      "hit": false,
      "t": 252580.0053333315,
      "d": 286.2593749999942,
      "v": 88
    },
    {
      "midi": 42,
      "hit": false,
      "t": 252809.0128333315,
      "d": 76.33583333331626,
      "v": 104
    },
    {
      "midi": 57,
      "hit": false,
      "t": 252866.2647083315,
      "d": 187.02279166664812,
      "v": 88
    },
    {
      "midi": 61,
      "hit": false,
      "t": 252866.2647083315,
      "d": 206.10674999997718,
      "v": 93
    },
    {
      "midi": 45,
      "hit": false,
      "t": 252885.34866666482,
      "d": 1583.9685416666034,
      "v": 104
    },
    {
      "midi": 52,
      "hit": false,
      "t": 253038.0203333315,
      "d": 782.4422916666372,
      "v": 88
    },
    {
      "midi": 57,
      "hit": false,
      "t": 253267.02783333146,
      "d": 763.3583333333372,
      "v": 93
    },
    {
      "midi": 61,
      "hit": false,
      "t": 253496.03533333147,
      "d": 1202.2893749999348,
      "v": 93
    },
    {
      "midi": 52,
      "hit": false,
      "t": 253954.05033333146,
      "d": 286.2593749999942,
      "v": 88
    },
    {
      "midi": 57,
      "hit": false,
      "t": 254202.1417916648,
      "d": 496.1829166666139,
      "v": 93
    },
    {
      "midi": 52,
      "hit": false,
      "t": 254412.06533333144,
      "d": 248.09145833330695,
      "v": 88
    },
    {
      "midi": 45,
      "hit": false,
      "t": 254641.07283333142,
      "d": 38.16791666665813,
      "v": 99
    },
    {
      "midi": 47,
      "hit": false,
      "t": 254679.24074999808,
      "d": 1755.7241666666232,
      "v": 99
    },
    {
      "midi": 63,
      "hit": false,
      "t": 254698.3247083314,
      "d": 190.83958333331975,
      "v": 93
    },
    {
      "midi": 59,
      "hit": false,
      "t": 254717.40866666473,
      "d": 152.67166666666162,
      "v": 93
    },
    {
      "midi": 54,
      "hit": false,
      "t": 254870.0803333314,
      "d": 763.3583333333372,
      "v": 93
    },
    {
      "midi": 59,
      "hit": false,
      "t": 255099.0878333314,
      "d": 740.4575833333365,
      "v": 99
    },
    {
      "midi": 63,
      "hit": false,
      "t": 255328.0953333314,
      "d": 1083.9688333332888,
      "v": 93
    },
    {
      "midi": 54,
      "hit": false,
      "t": 255786.1103333314,
      "d": 267.1754166666651,
      "v": 99
    },
    {
      "midi": 59,
      "hit": false,
      "t": 256015.1178333314,
      "d": 400.76312499996857,
      "v": 99
    },
    {
      "midi": 54,
      "hit": false,
      "t": 256244.12533333138,
      "d": 171.7556249999907,
      "v": 93
    },
    {
      "midi": 47,
      "hit": false,
      "t": 256473.13283333136,
      "d": 38.16791666665813,
      "v": 104
    },
    {
      "midi": 52,
      "hit": false,
      "t": 256511.30074999802,
      "d": 1622.1364583333489,
      "v": 104
    },
    {
      "midi": 59,
      "hit": false,
      "t": 256702.14033333134,
      "d": 797.7094583333528,
      "v": 93
    },
    {
      "midi": 64,
      "hit": false,
      "t": 256931.14783333134,
      "d": 801.5262500000244,
      "v": 99
    },
    {
      "midi": 68,
      "hit": false,
      "t": 257160.15533333135,
      "d": 1431.296874999971,
      "v": 99
    },
    {
      "midi": 59,
      "hit": false,
      "t": 257618.17033333136,
      "d": 324.4272916666814,
      "v": 84
    },
    {
      "midi": 64,
      "hit": false,
      "t": 257847.17783333137,
      "d": 706.1064583332918,
      "v": 93
    },
    {
      "midi": 59,
      "hit": false,
      "t": 258076.18533333138,
      "d": 267.175416666636,
      "v": 84
    },
    {
      "midi": 52,
      "hit": false,
      "t": 258305.19283333136,
      "d": 1679.388333333336,
      "v": 104
    },
    {
      "midi": 59,
      "hit": false,
      "t": 258534.20033333133,
      "d": 797.7094583333237,
      "v": 93
    },
    {
      "midi": 64,
      "hit": false,
      "t": 258763.2078333313,
      "d": 782.4422916666954,
      "v": 93
    },
    {
      "midi": 68,
      "hit": false,
      "t": 258992.21533333132,
      "d": 1412.212916666671,
      "v": 93
    },
    {
      "midi": 59,
      "hit": false,
      "t": 259450.23033333133,
      "d": 305.34333333335235,
      "v": 84
    },
    {
      "midi": 64,
      "hit": false,
      "t": 259679.23783333134,
      "d": 706.1064583333209,
      "v": 88
    },
    {
      "midi": 59,
      "hit": false,
      "t": 259908.24533333135,
      "d": 286.2593749999942,
      "v": 88
    },
    {
      "midi": 52,
      "hit": false,
      "t": 260137.25283333135,
      "d": 1660.3043749999488,
      "v": 104
    },
    {
      "midi": 59,
      "hit": false,
      "t": 260366.26033333133,
      "d": 782.4422916666372,
      "v": 88
    },
    {
      "midi": 64,
      "hit": false,
      "t": 260595.2678333313,
      "d": 763.3583333333372,
      "v": 93
    },
    {
      "midi": 68,
      "hit": false,
      "t": 260824.27533333132,
      "d": 1221.373333333322,
      "v": 93
    },
    {
      "midi": 59,
      "hit": false,
      "t": 261282.2903333313,
      "d": 282.44258333335165,
      "v": 88
    },
    {
      "midi": 64,
      "hit": false,
      "t": 261511.2978333313,
      "d": 534.3508333333302,
      "v": 93
    },
    {
      "midi": 59,
      "hit": false,
      "t": 261740.30533333131,
      "d": 229.00749999997788,
      "v": 88
    },
    {
      "midi": 52,
      "hit": false,
      "t": 261969.3128333313,
      "d": 76.33583333334536,
      "v": 99
    }
  ]
}