{
  "jsonPath": "Electronic/Cantaditas/Orange Blue/can-somebody-tell-me-who-i-am-acoustic-version.json",
  "path": "Electronic\\Cantaditas\\Orange Blue\\Can Somebody Tell Me Who I Am (Acoustic Version).mid",
  "name": "Can Somebody Tell Me Who I Am (Acoustic Version)",
  "difficulty": "Advanced",
  "bpm": 126.000126000126,
  "notes": [
    {
      "midi": 76,
      "hit": false,
      "t": 1904.7599999999998,
      "d": 635.9120624999996,
      "v": 86
    },
    {
      "midi": 49,
      "hit": false,
      "t": 1904.7599999999998,
      "d": 1781.7442499999993,
      "v": 74
    },
    {
      "midi": 61,
      "hit": false,
      "t": 2142.8549999999996,
      "d": 732.1421249999994,
      "v": 66
    },
    {
      "midi": 68,
      "hit": false,
      "t": 2380.9499999999994,
      "d": 523.8089999999997,
      "v": 80
    },
    {
      "midi": 73,
      "hit": false,
      "t": 2619.044999999999,
      "d": 249.00768749999997,
      "v": 91
    },
    {
      "midi": 76,
      "hit": false,
      "t": 2857.139999999999,
      "d": 573.4121250000003,
      "v": 93
    },
    {
      "midi": 61,
      "hit": false,
      "t": 3095.234999999999,
      "d": 846.2293124999997,
      "v": 62
    },
    {
      "midi": 68,
      "hit": false,
      "t": 3333.329999999999,
      "d": 623.0152499999999,
      "v": 70
    },
    {
      "midi": 73,
      "hit": false,
      "t": 3571.4249999999993,
      "d": 241.07118749999972,
      "v": 66
    },
    {
      "midi": 76,
      "hit": false,
      "t": 3809.519999999999,
      "d": 710.3167500000004,
      "v": 82
    },
    {
      "midi": 49,
      "hit": false,
      "t": 4047.614999999999,
      "d": 1712.2998750000015,
      "v": 61
    },
    {
      "midi": 61,
      "hit": false,
      "t": 4285.709999999999,
      "d": 851.1896250000009,
      "v": 74
    },
    {
      "midi": 68,
      "hit": false,
      "t": 4523.804999999999,
      "d": 596.2295625000006,
      "v": 64
    },
    {
      "midi": 73,
      "hit": false,
      "t": 4761.9,
      "d": 273.80925000000025,
      "v": 82
    },
    {
      "midi": 76,
      "hit": false,
      "t": 4999.995,
      "d": 670.6342500000001,
      "v": 79
    },
    {
      "midi": 61,
      "hit": false,
      "t": 5238.09,
      "d": 439.4836875000001,
      "v": 82
    },
    {
      "midi": 68,
      "hit": false,
      "t": 5476.185,
      "d": 275.7933750000002,
      "v": 72
    },
    {
      "midi": 76,
      "hit": false,
      "t": 5714.280000000001,
      "d": 462.30112499999905,
      "v": 77
    },
    {
      "midi": 45,
      "hit": false,
      "t": 5714.280000000001,
      "d": 3795.6311250000035,
      "v": 69
    },
    {
      "midi": 57,
      "hit": false,
      "t": 5952.375,
      "d": 831.3483749999996,
      "v": 84
    },
    {
      "midi": 69,
      "hit": false,
      "t": 6190.469999999999,
      "d": 665.6739375000006,
      "v": 81
    },
    {
      "midi": 73,
      "hit": false,
      "t": 6428.565,
      "d": 650.7930000000006,
      "v": 64
    },
    {
      "midi": 76,
      "hit": false,
      "t": 6666.66,
      "d": 409.72181249999994,
      "v": 78
    },
    {
      "midi": 57,
      "hit": false,
      "t": 6904.755,
      "d": 826.3880625000011,
      "v": 81
    },
    {
      "midi": 69,
      "hit": false,
      "t": 7142.85,
      "d": 533.7296250000009,
      "v": 66
    },
    {
      "midi": 73,
      "hit": false,
      "t": 7380.945000000001,
      "d": 650.7930000000006,
      "v": 60
    },
    {
      "midi": 76,
      "hit": false,
      "t": 7619.040000000001,
      "d": 394.84087499999987,
      "v": 69
    },
    {
      "midi": 57,
      "hit": false,
      "t": 7857.135000000001,
      "d": 625.9914374999998,
      "v": 82
    },
    {
      "midi": 69,
      "hit": false,
      "t": 8095.230000000001,
      "d": 573.4121250000007,
      "v": 70
    },
    {
      "midi": 73,
      "hit": false,
      "t": 8333.325,
      "d": 447.4201875000017,
      "v": 66
    },
    {
      "midi": 57,
      "hit": false,
      "t": 8571.420000000002,
      "d": 422.618625000001,
      "v": 92
    },
    {
      "midi": 76,
      "hit": false,
      "t": 8809.515000000003,
      "d": 454.36462500000016,
      "v": 84
    },
    {
      "midi": 57,
      "hit": false,
      "t": 9047.610000000002,
      "d": 556.5470625000034,
      "v": 66
    },
    {
      "midi": 73,
      "hit": false,
      "t": 9285.705000000004,
      "d": 285.71400000000176,
      "v": 70
    },
    {
      "midi": 76,
      "hit": false,
      "t": 9523.800000000005,
      "d": 635.9120625000014,
      "v": 86
    },
    {
      "midi": 49,
      "hit": false,
      "t": 9523.800000000005,
      "d": 1781.7442500000016,
      "v": 74
    },
    {
      "midi": 61,
      "hit": false,
      "t": 9761.895000000006,
      "d": 732.1421250000003,
      "v": 66
    },
    {
      "midi": 68,
      "hit": false,
      "t": 9999.990000000005,
      "d": 523.8090000000011,
      "v": 80
    },
    {
      "midi": 73,
      "hit": false,
      "t": 10238.085000000006,
      "d": 249.00768749999952,
      "v": 91
    },
    {
      "midi": 76,
      "hit": false,
      "t": 10476.180000000006,
      "d": 573.4121250000007,
      "v": 93
    },
    {
      "midi": 61,
      "hit": false,
      "t": 10714.275000000007,
      "d": 846.2293124999997,
      "v": 62
    },
    {
      "midi": 68,
      "hit": false,
      "t": 10952.370000000006,
      "d": 623.0152500000004,
      "v": 70
    },
    {
      "midi": 73,
      "hit": false,
      "t": 11190.465000000006,
      "d": 241.07118750000154,
      "v": 66
    },
    {
      "midi": 76,
      "hit": false,
      "t": 11428.560000000007,
      "d": 710.3167499999981,
      "v": 82
    },
    {
      "midi": 49,
      "hit": false,
      "t": 11666.655000000006,
      "d": 1712.299874999997,
      "v": 61
    },
    {
      "midi": 61,
      "hit": false,
      "t": 11904.750000000005,
      "d": 851.1896249999972,
      "v": 74
    },
    {
      "midi": 68,
      "hit": false,
      "t": 12142.845000000005,
      "d": 596.2295624999988,
      "v": 64
    },
    {
      "midi": 73,
      "hit": false,
      "t": 12380.940000000004,
      "d": 273.80925000000025,
      "v": 82
    },
    {
      "midi": 76,
      "hit": false,
      "t": 12619.035000000003,
      "d": 670.6342499999992,
      "v": 79
    },
    {
      "midi": 61,
      "hit": false,
      "t": 12857.130000000003,
      "d": 439.4836875000001,
      "v": 82
    },
    {
      "midi": 68,
      "hit": false,
      "t": 13095.225000000002,
      "d": 275.7933750000011,
      "v": 72
    },
    {
      "midi": 76,
      "hit": false,
      "t": 13333.320000000003,
      "d": 462.30112499999996,
      "v": 77
    },
    {
      "midi": 45,
      "hit": false,
      "t": 13333.320000000003,
      "d": 3795.631125,
      "v": 69
    },
    {
      "midi": 57,
      "hit": false,
      "t": 13571.415000000003,
      "d": 831.3483749999996,
      "v": 84
    },
    {
      "midi": 69,
      "hit": false,
      "t": 13809.510000000004,
      "d": 665.6739374999979,
      "v": 81
    },
    {
      "midi": 73,
      "hit": false,
      "t": 14047.605000000003,
      "d": 650.7929999999997,
      "v": 64
    },
    {
      "midi": 76,
      "hit": false,
      "t": 14285.700000000003,
      "d": 409.72181249999994,
      "v": 78
    },
    {
      "midi": 57,
      "hit": false,
      "t": 14523.795000000002,
      "d": 826.3880625000002,
      "v": 81
    },
    {
      "midi": 69,
      "hit": false,
      "t": 14761.890000000003,
      "d": 533.7296249999981,
      "v": 66
    },
    {
      "midi": 73,
      "hit": false,
      "t": 14999.985000000002,
      "d": 650.7930000000015,
      "v": 60
    },
    {
      "midi": 76,
      "hit": false,
      "t": 15238.080000000002,
      "d": 394.8408750000017,
      "v": 69
    },
    {
      "midi": 57,
      "hit": false,
      "t": 15476.175000000003,
      "d": 625.9914375000008,
      "v": 82
    },
    {
      "midi": 69,
      "hit": false,
      "t": 15714.270000000004,
      "d": 573.4121249999989,
      "v": 70
    },
    {
      "midi": 73,
      "hit": false,
      "t": 15952.365000000003,
      "d": 447.42018749999806,
      "v": 66
    },
    {
      "midi": 57,
      "hit": false,
      "t": 16190.460000000003,
      "d": 422.61862499999916,
      "v": 92
    },
    {
      "midi": 76,
      "hit": false,
      "t": 16428.555,
      "d": 454.364625000002,
      "v": 84
    },
    {
      "midi": 57,
      "hit": false,
      "t": 16666.65,
      "d": 556.5470625000016,
      "v": 66
    },
    {
      "midi": 73,
      "hit": false,
      "t": 16904.745000000003,
      "d": 285.71399999999994,
      "v": 70
    },
    {
      "midi": 76,
      "hit": false,
      "t": 17142.840000000004,
      "d": 335.31712499999776,
      "v": 90
    },
    {
      "midi": 49,
      "hit": false,
      "t": 17142.840000000004,
      "d": 3701.3851875000073,
      "v": 76
    },
    {
      "midi": 61,
      "hit": false,
      "t": 17380.935,
      "d": 846.2293125000033,
      "v": 66
    },
    {
      "midi": 68,
      "hit": false,
      "t": 17619.030000000002,
      "d": 432.53925000000163,
      "v": 70
    },
    {
      "midi": 73,
      "hit": false,
      "t": 17857.125000000004,
      "d": 221.22993750000023,
      "v": 84
    },
    {
      "midi": 76,
      "hit": false,
      "t": 18095.220000000005,
      "d": 377.97581250000076,
      "v": 71
    },
    {
      "midi": 61,
      "hit": false,
      "t": 18333.315000000006,
      "d": 846.2293125000033,
      "v": 64
    },
    {
      "midi": 68,
      "hit": false,
      "t": 18571.410000000007,
      "d": 275.7933750000011,
      "v": 72
    },
    {
      "midi": 73,
      "hit": false,
      "t": 18809.50500000001,
      "d": 234.12674999999945,
      "v": 79
    },
    {
      "midi": 76,
      "hit": false,
      "t": 19047.60000000001,
      "d": 397.81706250000207,
      "v": 75
    },
    {
      "midi": 61,
      "hit": false,
      "t": 19285.69500000001,
      "d": 988.0942499999983,
      "v": 70
    },
    {
      "midi": 68,
      "hit": false,
      "t": 19523.79000000001,
      "d": 181.54743750000125,
      "v": 70
    },
    {
      "midi": 73,
      "hit": false,
      "t": 19761.885000000013,
      "d": 206.34899999999834,
      "v": 64
    },
    {
      "midi": 76,
      "hit": false,
      "t": 19999.98000000001,
      "d": 179.56331249999857,
      "v": 93
    },
    {
      "midi": 78,
      "hit": false,
      "t": 20238.075000000008,
      "d": 268.84893750000265,
      "v": 72
    },
    {
      "midi": 61,
      "hit": false,
      "t": 20476.17000000001,
      "d": 417.6583125000034,
      "v": 74
    },
    {
      "midi": 68,
      "hit": false,
      "t": 20714.26500000001,
      "d": 181.54743750000125,
      "v": 76
    },
    {
      "midi": 73,
      "hit": false,
      "t": 20952.36000000001,
      "d": 563.4915000000037,
      "v": 84
    },
    {
      "midi": 42,
      "hit": false,
      "t": 20952.36000000001,
      "d": 1937.4980625000098,
      "v": 76
    },
    {
      "midi": 54,
      "hit": false,
      "t": 21190.455000000013,
      "d": 1729.1649375000088,
      "v": 91
    },
    {
      "midi": 69,
      "hit": false,
      "t": 21428.550000000014,
      "d": 370.03931250000096,
      "v": 84
    },
    {
      "midi": 71,
      "hit": false,
      "t": 21666.645000000015,
      "d": 229.16643750000003,
      "v": 73
    },
    {
      "midi": 73,
      "hit": false,
      "t": 21904.740000000016,
      "d": 249.00768750000134,
      "v": 72
    },
    {
      "midi": 76,
      "hit": false,
      "t": 22142.835000000017,
      "d": 260.91243750000285,
      "v": 86
    },
    {
      "midi": 69,
      "hit": false,
      "t": 22380.93000000002,
      "d": 244.04737500000192,
      "v": 73
    },
    {
      "midi": 71,
      "hit": false,
      "t": 22619.02500000002,
      "d": 224.2061250000006,
      "v": 79
    },
    {
      "midi": 73,
      "hit": false,
      "t": 22857.12000000002,
      "d": 377.97581250000076,
      "v": 72
    },
    {
      "midi": 42,
      "hit": false,
      "t": 23095.215000000022,
      "d": 1573.411125000006,
      "v": 70
    },
    {
      "midi": 54,
      "hit": false,
      "t": 23333.310000000023,
      "d": 1034.721187500003,
      "v": 93
    },
    {
      "midi": 69,
      "hit": false,
      "t": 23571.405000000024,
      "d": 241.07118750000154,
      "v": 82
    },
    {
      "midi": 71,
      "hit": false,
      "t": 23809.500000000025,
      "d": 219.2458125000012,
      "v": 81
    },
    {
      "midi": 76,
      "hit": false,
      "t": 24047.595000000027,
      "d": 531.7455000000009,
      "v": 84
    },
    {
      "midi": 71,
      "hit": false,
      "t": 24285.690000000028,
      "d": 226.19024999999965,
      "v": 70
    },
    {
      "midi": 69,
      "hit": false,
      "t": 24523.78500000003,
      "d": 268.848937499999,
      "v": 93
    },
    {
      "midi": 54,
      "hit": false,
      "t": 24523.78500000003,
      "d": 270.83306249999805,
      "v": 74
    },
    {
      "midi": 76,
      "hit": false,
      "t": 24761.880000000026,
      "d": 293.65049999999974,
      "v": 96
    },
    {
      "midi": 49,
      "hit": false,
      "t": 24761.880000000026,
      "d": 3673.60743750001,
      "v": 79
    },
    {
      "midi": 61,
      "hit": false,
      "t": 24999.975000000028,
      "d": 811.5071250000001,
      "v": 74
    },
    {
      "midi": 68,
      "hit": false,
      "t": 25238.070000000025,
      "d": 268.84893750000265,
      "v": 68
    },
    {
      "midi": 73,
      "hit": false,
      "t": 25476.165000000026,
      "d": 206.34900000000198,
      "v": 87
    },
    {
      "midi": 76,
      "hit": false,
      "t": 25714.260000000028,
      "d": 452.38050000000294,
      "v": 86
    },
    {
      "midi": 61,
      "hit": false,
      "t": 25952.35500000003,
      "d": 859.1261250000061,
      "v": 64
    },
    {
      "midi": 68,
      "hit": false,
      "t": 26190.45000000003,
      "d": 328.37268750000294,
      "v": 74
    },
    {
      "midi": 73,
      "hit": false,
      "t": 26428.54500000003,
      "d": 199.40456250000352,
      "v": 66
    },
    {
      "midi": 76,
      "hit": false,
      "t": 26666.640000000036,
      "d": 452.3804999999993,
      "v": 86
    },
    {
      "midi": 61,
      "hit": false,
      "t": 26904.735000000033,
      "d": 667.6580624999988,
      "v": 66
    },
    {
      "midi": 68,
      "hit": false,
      "t": 27142.830000000034,
      "d": 201.38868749999892,
      "v": 68
    },
    {
      "midi": 78,
      "hit": false,
      "t": 27380.925000000032,
      "d": 546.6264375000028,
      "v": 87
    },
    {
      "midi": 68,
      "hit": false,
      "t": 27619.020000000033,
      "d": 467.2614375000012,
      "v": 56
    },
    {
      "midi": 61,
      "hit": false,
      "t": 27857.115000000034,
      "d": 647.8168125000047,
      "v": 68
    },
    {
      "midi": 76,
      "hit": false,
      "t": 28095.210000000036,
      "d": 397.81706250000207,
      "v": 96
    },
    {
      "midi": 76,
      "hit": false,
      "t": 28571.400000000038,
      "d": 407.7376875000009,
      "v": 84
    },
    {
      "midi": 45,
      "hit": false,
      "t": 28571.400000000038,
      "d": 3748.012125000001,
      "v": 78
    },
    {
      "midi": 57,
      "hit": false,
      "t": 28809.49500000004,
      "d": 869.0467500000013,
      "v": 71
    },
    {
      "midi": 69,
      "hit": false,
      "t": 29047.59000000004,
      "d": 417.65831249999974,
      "v": 90
    },
    {
      "midi": 73,
      "hit": false,
      "t": 29285.68500000004,
      "d": 270.83306249999805,
      "v": 72
    },
    {
      "midi": 76,
      "hit": false,
      "t": 29523.78000000004,
      "d": 434.52337500000067,
      "v": 92
    },
    {
      "midi": 57,
      "hit": false,
      "t": 29761.87500000004,
      "d": 819.4436250000035,
      "v": 82
    },
    {
      "midi": 69,
      "hit": false,
      "t": 29999.97000000004,
      "d": 424.60275000000183,
      "v": 93
    },
    {
      "midi": 73,
      "hit": false,
      "t": 30238.065000000042,
      "d": 249.00768750000134,
      "v": 72
    },
    {
      "midi": 76,
      "hit": false,
      "t": 30476.160000000044,
      "d": 417.65831249999974,
      "v": 96
    },
    {
      "midi": 57,
      "hit": false,
      "t": 30714.255000000045,
      "d": 583.3327499999941,
      "v": 84
    },
    {
      "midi": 69,
      "hit": false,
      "t": 30952.350000000042,
      "d": 204.3648749999993,
      "v": 84
    },
    {
      "midi": 76,
      "hit": false,
      "t": 31190.44500000004,
      "d": 457.3408124999987,
      "v": 100
    },
    {
      "midi": 57,
      "hit": false,
      "t": 31428.540000000037,
      "d": 978.1736249999994,
      "v": 75
    },
    {
      "midi": 69,
      "hit": false,
      "t": 31666.63500000004,
      "d": 667.6580624999988,
      "v": 93
    },
    {
      "midi": 73,
      "hit": false,
      "t": 31904.73000000004,
      "d": 224.2061250000006,
      "v": 76
    },
    {
      "midi": 76,
      "hit": false,
      "t": 32142.82500000004,
      "d": 219.24581249999756,
      "v": 97
    },
    {
      "midi": 54,
      "hit": false,
      "t": 32380.92,
      "d": 3800.5914374999993,
      "v": 1
    },
    {
      "midi": 57,
      "hit": false,
      "t": 32380.92,
      "d": 3800.5914374999993,
      "v": 1
    },
    {
      "midi": 62,
      "hit": false,
      "t": 32380.92,
      "d": 3800.5914374999993,
      "v": 1
    },
    {
      "midi": 76,
      "hit": false,
      "t": 32380.92000000004,
      "d": 573.4121249999989,
      "v": 105
    },
    {
      "midi": 50,
      "hit": false,
      "t": 32380.92000000004,
      "d": 3797.615250000006,
      "v": 92
    },
    {
      "midi": 57,
      "hit": false,
      "t": 32619.015000000036,
      "d": 928.5705000000016,
      "v": 78
    },
    {
      "midi": 66,
      "hit": false,
      "t": 32857.11000000004,
      "d": 548.6105624999982,
      "v": 68
    },
    {
      "midi": 76,
      "hit": false,
      "t": 33095.20500000004,
      "d": 290.67431249999936,
      "v": 96
    },
    {
      "midi": 74,
      "hit": false,
      "t": 33333.30000000004,
      "d": 650.7930000000051,
      "v": 102
    },
    {
      "midi": 57,
      "hit": false,
      "t": 33571.39500000004,
      "d": 776.7849375000005,
      "v": 88
    },
    {
      "midi": 62,
      "hit": false,
      "t": 33809.49000000004,
      "d": 521.8248749999984,
      "v": 97
    },
    {
      "midi": 66,
      "hit": false,
      "t": 34047.58500000004,
      "d": 258.9283125000002,
      "v": 91
    },
    {
      "midi": 73,
      "hit": false,
      "t": 34285.680000000044,
      "d": 548.6105624999982,
      "v": 97
    },
    {
      "midi": 57,
      "hit": false,
      "t": 34523.77500000004,
      "d": 687.4993125000037,
      "v": 70
    },
    {
      "midi": 62,
      "hit": false,
      "t": 34761.87000000004,
      "d": 447.4201874999999,
      "v": 93
    },
    {
      "midi": 73,
      "hit": false,
      "t": 34999.96500000004,
      "d": 236.1108749999985,
      "v": 76
    },
    {
      "midi": 71,
      "hit": false,
      "t": 35238.06000000004,
      "d": 454.364625000002,
      "v": 105
    },
    {
      "midi": 62,
      "hit": false,
      "t": 35476.15500000004,
      "d": 695.4358124999999,
      "v": 88
    },
    {
      "midi": 66,
      "hit": false,
      "t": 35714.250000000044,
      "d": 467.26143749999756,
      "v": 93
    },
    {
      "midi": 69,
      "hit": false,
      "t": 35952.345000000045,
      "d": 241.07118749999063,
      "v": 93
    },
    {
      "midi": 56,
      "hit": false,
      "t": 36190.439999999995,
      "d": 3800.5914374999993,
      "v": 1
    },
    {
      "midi": 59,
      "hit": false,
      "t": 36190.439999999995,
      "d": 3800.5914374999993,
      "v": 1
    },
    {
      "midi": 64,
      "hit": false,
      "t": 36190.439999999995,
      "d": 3800.5914374999993,
      "v": 1
    },
    {
      "midi": 76,
      "hit": false,
      "t": 36190.44000000004,
      "d": 908.7292499999967,
      "v": 100
    },
    {
      "midi": 52,
      "hit": false,
      "t": 36190.44000000004,
      "d": 3797.6152499999953,
      "v": 86
    },
    {
      "midi": 59,
      "hit": false,
      "t": 36428.53500000003,
      "d": 710.3167500000054,
      "v": 84
    },
    {
      "midi": 64,
      "hit": false,
      "t": 36666.630000000034,
      "d": 474.2058750000069,
      "v": 68
    },
    {
      "midi": 66,
      "hit": false,
      "t": 36904.725000000035,
      "d": 196.42837500000314,
      "v": 82
    },
    {
      "midi": 74,
      "hit": false,
      "t": 37142.82000000004,
      "d": 270.8330625000017,
      "v": 93
    },
    {
      "midi": 64,
      "hit": false,
      "t": 37380.915000000045,
      "d": 275.7933750000011,
      "v": 74
    },
    {
      "midi": 66,
      "hit": false,
      "t": 37619.010000000046,
      "d": 219.24581249999756,
      "v": 70
    },
    {
      "midi": 73,
      "hit": false,
      "t": 37857.10500000005,
      "d": 250.99181250000402,
      "v": 97
    },
    {
      "midi": 64,
      "hit": false,
      "t": 38095.20000000005,
      "d": 464.2852500000008,
      "v": 72
    },
    {
      "midi": 66,
      "hit": false,
      "t": 38333.29500000005,
      "d": 229.1664374999964,
      "v": 66
    },
    {
      "midi": 71,
      "hit": false,
      "t": 38571.39000000004,
      "d": 290.67431249999936,
      "v": 93
    },
    {
      "midi": 64,
      "hit": false,
      "t": 38809.485000000044,
      "d": 482.1423749999958,
      "v": 74
    },
    {
      "midi": 66,
      "hit": false,
      "t": 39047.580000000045,
      "d": 224.20612499999697,
      "v": 62
    },
    {
      "midi": 69,
      "hit": false,
      "t": 39285.67500000004,
      "d": 268.848937499999,
      "v": 102
    },
    {
      "midi": 64,
      "hit": false,
      "t": 39523.77000000004,
      "d": 303.57112499999494,
      "v": 82
    },
    {
      "midi": 57,
      "hit": false,
      "t": 39885.872812500034,
      "d": 2701.3861875000002,
      "v": 73
    },
    {
      "midi": 62,
      "hit": false,
      "t": 39917.61881250003,
      "d": 2669.640187500001,
      "v": 79
    },
    {
      "midi": 66,
      "hit": false,
      "t": 39975.15843750003,
      "d": 2620.0370624999996,
      "v": 70
    },
    {
      "midi": 50,
      "hit": false,
      "t": 39999.960000000036,
      "d": 3785.7104999999938,
      "v": 86
    },
    {
      "midi": 69,
      "hit": false,
      "t": 40036.666312500034,
      "d": 2555.553,
      "v": 70
    },
    {
      "midi": 74,
      "hit": false,
      "t": 42857.100000000006,
      "d": 204.3648749999993,
      "v": 86
    },
    {
      "midi": 73,
      "hit": false,
      "t": 43095.19500000001,
      "d": 189.48393750000105,
      "v": 84
    },
    {
      "midi": 71,
      "hit": false,
      "t": 43333.29000000001,
      "d": 196.42837500000314,
      "v": 105
    },
    {
      "midi": 69,
      "hit": false,
      "t": 43571.38500000001,
      "d": 204.3648749999993,
      "v": 114
    },
    {
      "midi": 71,
      "hit": false,
      "t": 43809.48000000001,
      "d": 437.49956250000105,
      "v": 93
    },
    {
      "midi": 52,
      "hit": false,
      "t": 44047.57500000001,
      "d": 1520.8318125000005,
      "v": 93
    },
    {
      "midi": 69,
      "hit": false,
      "t": 44285.67000000001,
      "d": 231.15056249999907,
      "v": 68
    },
    {
      "midi": 57,
      "hit": false,
      "t": 44285.67000000001,
      "d": 1379.9589374999996,
      "v": 92
    },
    {
      "midi": 71,
      "hit": false,
      "t": 44523.765000000014,
      "d": 394.8408750000017,
      "v": 97
    },
    {
      "midi": 73,
      "hit": false,
      "t": 44999.955000000016,
      "d": 434.52337499999703,
      "v": 107
    },
    {
      "midi": 64,
      "hit": false,
      "t": 45476.14500000001,
      "d": 948.4117500000066,
      "v": 88
    },
    {
      "midi": 52,
      "hit": false,
      "t": 45952.335000000014,
      "d": 1211.3083124999976,
      "v": 90
    },
    {
      "midi": 57,
      "hit": false,
      "t": 46190.430000000015,
      "d": 985.1180624999979,
      "v": 96
    },
    {
      "midi": 64,
      "hit": false,
      "t": 46428.525000000016,
      "d": 219.24581249999756,
      "v": 102
    },
    {
      "midi": 74,
      "hit": false,
      "t": 46666.62000000002,
      "d": 253.96800000000076,
      "v": 96
    },
    {
      "midi": 73,
      "hit": false,
      "t": 46904.71500000002,
      "d": 224.20612499999697,
      "v": 53
    },
    {
      "midi": 71,
      "hit": false,
      "t": 47142.81000000001,
      "d": 204.3648749999993,
      "v": 82
    },
    {
      "midi": 69,
      "hit": false,
      "t": 47380.90500000001,
      "d": 196.42837500000314,
      "v": 81
    },
    {
      "midi": 71,
      "hit": false,
      "t": 47619.000000000015,
      "d": 449.40431250000256,
      "v": 102
    },
    {
      "midi": 52,
      "hit": false,
      "t": 47857.095000000016,
      "d": 1892.8552500000005,
      "v": 81
    },
    {
      "midi": 69,
      "hit": false,
      "t": 48095.19000000002,
      "d": 236.1108749999985,
      "v": 75
    },
    {
      "midi": 57,
      "hit": false,
      "t": 48095.19000000002,
      "d": 1657.736437499996,
      "v": 93
    },
    {
      "midi": 71,
      "hit": false,
      "t": 48333.28500000002,
      "d": 434.52337499999703,
      "v": 97
    },
    {
      "midi": 76,
      "hit": false,
      "t": 48809.47500000001,
      "d": 432.53925000000163,
      "v": 96
    },
    {
      "midi": 73,
      "hit": false,
      "t": 49285.665000000015,
      "d": 1077.3798749999987,
      "v": 84
    },
    {
      "midi": 49,
      "hit": false,
      "t": 49761.85500000001,
      "d": 1434.5223750000077,
      "v": 74
    },
    {
      "midi": 54,
      "hit": false,
      "t": 49999.95000000001,
      "d": 1161.7051875000034,
      "v": 93
    },
    {
      "midi": 74,
      "hit": false,
      "t": 50476.140000000014,
      "d": 250.99181250000402,
      "v": 97
    },
    {
      "midi": 73,
      "hit": false,
      "t": 50714.235000000015,
      "d": 211.3093125000014,
      "v": 64
    },
    {
      "midi": 71,
      "hit": false,
      "t": 50952.330000000016,
      "d": 191.46806249999645,
      "v": 75
    },
    {
      "midi": 69,
      "hit": false,
      "t": 51190.42500000002,
      "d": 189.48393750000105,
      "v": 64
    },
    {
      "midi": 71,
      "hit": false,
      "t": 51428.52000000002,
      "d": 429.5630624999976,
      "v": 105
    },
    {
      "midi": 50,
      "hit": false,
      "t": 51666.61500000002,
      "d": 727.1818124999991,
      "v": 67
    },
    {
      "midi": 69,
      "hit": false,
      "t": 51904.710000000014,
      "d": 255.95212500000343,
      "v": 77
    },
    {
      "midi": 55,
      "hit": false,
      "t": 51904.710000000014,
      "d": 533.7296250000072,
      "v": 77
    },
    {
      "midi": 71,
      "hit": false,
      "t": 52142.805000000015,
      "d": 402.7773750000051,
      "v": 92
    },
    {
      "midi": 62,
      "hit": false,
      "t": 52142.805000000015,
      "d": 1563.4905000000072,
      "v": 93
    },
    {
      "midi": 73,
      "hit": false,
      "t": 52618.99500000002,
      "d": 414.68212499999936,
      "v": 84
    },
    {
      "midi": 50,
      "hit": false,
      "t": 52618.99500000002,
      "d": 839.2848750000048,
      "v": 82
    },
    {
      "midi": 55,
      "hit": false,
      "t": 52857.09000000002,
      "d": 246.0315000000046,
      "v": 81
    },
    {
      "midi": 57,
      "hit": false,
      "t": 53095.18500000002,
      "d": 526.7851875000051,
      "v": 93
    },
    {
      "midi": 74,
      "hit": false,
      "t": 53095.18500000002,
      "d": 702.380250000002,
      "v": 93
    },
    {
      "midi": 50,
      "hit": false,
      "t": 53571.37500000002,
      "d": 1588.292062499997,
      "v": 82
    },
    {
      "midi": 73,
      "hit": false,
      "t": 53809.47000000002,
      "d": 239.0870625000025,
      "v": 74
    },
    {
      "midi": 55,
      "hit": false,
      "t": 53809.47000000002,
      "d": 464.2852500000008,
      "v": 71
    },
    {
      "midi": 71,
      "hit": false,
      "t": 54047.565000000024,
      "d": 462.30112499999814,
      "v": 92
    },
    {
      "midi": 62,
      "hit": false,
      "t": 54047.565000000024,
      "d": 1079.3639999999941,
      "v": 90
    },
    {
      "midi": 55,
      "hit": false,
      "t": 54523.75500000002,
      "d": 601.1898749999964,
      "v": 73
    },
    {
      "midi": 69,
      "hit": false,
      "t": 54523.75500000002,
      "d": 695.4358124999999,
      "v": 84
    },
    {
      "midi": 74,
      "hit": false,
      "t": 55238.04000000002,
      "d": 424.6027499999982,
      "v": 96
    },
    {
      "midi": 47,
      "hit": false,
      "t": 55476.135000000024,
      "d": 732.1421249999912,
      "v": 100
    },
    {
      "midi": 73,
      "hit": false,
      "t": 55714.23000000002,
      "d": 268.848937499999,
      "v": 68
    },
    {
      "midi": 52,
      "hit": false,
      "t": 55714.23000000002,
      "d": 710.3167499999981,
      "v": 97
    },
    {
      "midi": 71,
      "hit": false,
      "t": 55952.32500000002,
      "d": 429.5630624999976,
      "v": 92
    },
    {
      "midi": 64,
      "hit": false,
      "t": 56071.3725,
      "d": 4998.010875,
      "v": 1
    },
    {
      "midi": 69,
      "hit": false,
      "t": 56428.515000000014,
      "d": 457.3408124999987,
      "v": 90
    },
    {
      "midi": 47,
      "hit": false,
      "t": 56428.515000000014,
      "d": 811.5071250000037,
      "v": 86
    },
    {
      "midi": 52,
      "hit": false,
      "t": 56666.610000000015,
      "d": 766.8643125000017,
      "v": 100
    },
    {
      "midi": 64,
      "hit": false,
      "t": 56904.705000000016,
      "d": 821.4277500000026,
      "v": 92
    },
    {
      "midi": 47,
      "hit": false,
      "t": 57380.89500000002,
      "d": 1456.347750000008,
      "v": 90
    },
    {
      "midi": 52,
      "hit": false,
      "t": 57618.99000000002,
      "d": 1216.2686250000042,
      "v": 100
    },
    {
      "midi": 64,
      "hit": false,
      "t": 57857.08500000002,
      "d": 234.12675000000309,
      "v": 97
    },
    {
      "midi": 74,
      "hit": false,
      "t": 58095.18000000002,
      "d": 181.5474374999976,
      "v": 105
    },
    {
      "midi": 73,
      "hit": false,
      "t": 58333.27500000002,
      "d": 249.00768750000134,
      "v": 82
    },
    {
      "midi": 71,
      "hit": false,
      "t": 58571.370000000024,
      "d": 181.5474374999976,
      "v": 81
    },
    {
      "midi": 69,
      "hit": false,
      "t": 58809.465000000026,
      "d": 204.3648749999993,
      "v": 78
    },
    {
      "midi": 71,
      "hit": false,
      "t": 59047.56000000003,
      "d": 437.49956250000105,
      "v": 93
    },
    {
      "midi": 52,
      "hit": false,
      "t": 59285.65500000003,
      "d": 1520.8318125000005,
      "v": 93
    },
    {
      "midi": 69,
      "hit": false,
      "t": 59523.75000000003,
      "d": 231.15056249999907,
      "v": 68
    },
    {
      "midi": 57,
      "hit": false,
      "t": 59523.75000000003,
      "d": 1379.9589374999996,
      "v": 92
    },
    {
      "midi": 71,
      "hit": false,
      "t": 59761.84500000003,
      "d": 394.8408750000017,
      "v": 97
    },
    {
      "midi": 73,
      "hit": false,
      "t": 60238.03500000003,
      "d": 434.52337499999703,
      "v": 107
    },
    {
      "midi": 64,
      "hit": false,
      "t": 60714.22500000003,
      "d": 948.4117500000066,
      "v": 88
    },
    {
      "midi": 62,
      "hit": false,
      "t": 60952.32,
      "d": 950.3958749999947,
      "v": 1
    },
    {
      "midi": 52,
      "hit": false,
      "t": 61190.41500000003,
      "d": 1211.3083124999976,
      "v": 90
    },
    {
      "midi": 57,
      "hit": false,
      "t": 61428.51000000003,
      "d": 985.1180624999979,
      "v": 96
    },
    {
      "midi": 64,
      "hit": false,
      "t": 61666.60500000003,
      "d": 219.24581249999756,
      "v": 102
    },
    {
      "midi": 61,
      "hit": false,
      "t": 61904.7,
      "d": 950.395875000002,
      "v": 1
    },
    {
      "midi": 74,
      "hit": false,
      "t": 61904.70000000003,
      "d": 253.96800000000076,
      "v": 96
    },
    {
      "midi": 73,
      "hit": false,
      "t": 62142.795000000035,
      "d": 224.20612499999697,
      "v": 53
    },
    {
      "midi": 71,
      "hit": false,
      "t": 62380.89000000003,
      "d": 204.3648749999993,
      "v": 82
    },
    {
      "midi": 69,
      "hit": false,
      "t": 62618.98500000003,
      "d": 196.42837500000314,
      "v": 81
    },
    {
      "midi": 71,
      "hit": false,
      "t": 62857.08000000003,
      "d": 449.40431250000256,
      "v": 102
    },
    {
      "midi": 52,
      "hit": false,
      "t": 63095.17500000003,
      "d": 1892.8552500000005,
      "v": 81
    },
    {
      "midi": 69,
      "hit": false,
      "t": 63333.27000000003,
      "d": 236.1108749999985,
      "v": 75
    },
    {
      "midi": 57,
      "hit": false,
      "t": 63333.27000000003,
      "d": 1657.736437499996,
      "v": 93
    },
    {
      "midi": 71,
      "hit": false,
      "t": 63571.365000000034,
      "d": 434.52337499999703,
      "v": 97
    },
    {
      "midi": 76,
      "hit": false,
      "t": 64047.55500000003,
      "d": 432.53925000000163,
      "v": 96
    },
    {
      "midi": 73,
      "hit": false,
      "t": 64523.74500000003,
      "d": 1077.3798749999914,
      "v": 84
    },
    {
      "midi": 49,
      "hit": false,
      "t": 64999.93500000003,
      "d": 1434.5223750000005,
      "v": 74
    },
    {
      "midi": 54,
      "hit": false,
      "t": 65238.03000000003,
      "d": 1161.7051875000034,
      "v": 93
    },
    {
      "midi": 74,
      "hit": false,
      "t": 65714.22000000003,
      "d": 250.99181249999674,
      "v": 97
    },
    {
      "midi": 73,
      "hit": false,
      "t": 65952.31500000003,
      "d": 211.3093125000014,
      "v": 64
    },
    {
      "midi": 71,
      "hit": false,
      "t": 66190.41000000003,
      "d": 191.46806250000373,
      "v": 75
    },
    {
      "midi": 69,
      "hit": false,
      "t": 66428.50500000003,
      "d": 189.4839374999865,
      "v": 64
    },
    {
      "midi": 71,
      "hit": false,
      "t": 66666.60000000002,
      "d": 429.5630625000049,
      "v": 105
    },
    {
      "midi": 50,
      "hit": false,
      "t": 66904.69500000002,
      "d": 727.1818124999991,
      "v": 67
    },
    {
      "midi": 69,
      "hit": false,
      "t": 67142.79000000002,
      "d": 255.95212499999616,
      "v": 77
    },
    {
      "midi": 55,
      "hit": false,
      "t": 67142.79000000002,
      "d": 533.7296249999927,
      "v": 77
    },
    {
      "midi": 71,
      "hit": false,
      "t": 67380.88500000002,
      "d": 402.77737499999057,
      "v": 92
    },
    {
      "midi": 62,
      "hit": false,
      "t": 67380.88500000002,
      "d": 1563.4904999999999,
      "v": 93
    },
    {
      "midi": 73,
      "hit": false,
      "t": 67857.07500000001,
      "d": 414.68212500000664,
      "v": 84
    },
    {
      "midi": 50,
      "hit": false,
      "t": 67857.07500000001,
      "d": 839.2848749999976,
      "v": 82
    },
    {
      "midi": 55,
      "hit": false,
      "t": 68095.17000000001,
      "d": 246.03149999999732,
      "v": 81
    },
    {
      "midi": 57,
      "hit": false,
      "t": 68333.26500000001,
      "d": 526.7851875000051,
      "v": 93
    },
    {
      "midi": 74,
      "hit": false,
      "t": 68333.26500000001,
      "d": 702.3802500000165,
      "v": 93
    },
    {
      "midi": 50,
      "hit": false,
      "t": 68809.45500000002,
      "d": 1588.2920625000115,
      "v": 82
    },
    {
      "midi": 73,
      "hit": false,
      "t": 69047.55000000003,
      "d": 239.08706249999523,
      "v": 74
    },
    {
      "midi": 55,
      "hit": false,
      "t": 69047.55000000003,
      "d": 464.2852500000008,
      "v": 71
    },
    {
      "midi": 71,
      "hit": false,
      "t": 69285.64500000003,
      "d": 462.30112499999814,
      "v": 92
    },
    {
      "midi": 62,
      "hit": false,
      "t": 69285.64500000003,
      "d": 1079.3640000000014,
      "v": 90
    },
    {
      "midi": 55,
      "hit": false,
      "t": 69761.83500000004,
      "d": 601.1898749999964,
      "v": 73
    },
    {
      "midi": 69,
      "hit": false,
      "t": 69761.83500000004,
      "d": 695.4358124999853,
      "v": 84
    },
    {
      "midi": 76,
      "hit": false,
      "t": 70476.12000000002,
      "d": 672.6183750000055,
      "v": 74
    },
    {
      "midi": 88,
      "hit": false,
      "t": 70476.12000000002,
      "d": 680.5548750000016,
      "v": 79
    },
    {
      "midi": 76,
      "hit": false,
      "t": 74285.64000000003,
      "d": 635.9120625000069,
      "v": 86
    },
    {
      "midi": 49,
      "hit": false,
      "t": 74285.64000000003,
      "d": 1781.7442499999888,
      "v": 74
    },
    {
      "midi": 61,
      "hit": false,
      "t": 74523.73500000003,
      "d": 732.1421249999985,
      "v": 66
    },
    {
      "midi": 68,
      "hit": false,
      "t": 74761.83000000003,
      "d": 523.8089999999938,
      "v": 80
    },
    {
      "midi": 73,
      "hit": false,
      "t": 74999.92500000003,
      "d": 249.00768749999406,
      "v": 91
    },
    {
      "midi": 76,
      "hit": false,
      "t": 75238.02000000003,
      "d": 573.412124999988,
      "v": 93
    },
    {
      "midi": 61,
      "hit": false,
      "t": 75476.11500000002,
      "d": 846.2293124999997,
      "v": 62
    },
    {
      "midi": 68,
      "hit": false,
      "t": 75714.21000000002,
      "d": 623.0152499999967,
      "v": 70
    },
    {
      "midi": 73,
      "hit": false,
      "t": 75952.30500000002,
      "d": 241.0711874999979,
      "v": 66
    },
    {
      "midi": 76,
      "hit": false,
      "t": 76190.40000000002,
      "d": 710.3167499999981,
      "v": 82
    },
    {
      "midi": 49,
      "hit": false,
      "t": 76428.49500000002,
      "d": 1712.299875000026,
      "v": 61
    },
    {
      "midi": 61,
      "hit": false,
      "t": 76666.59000000003,
      "d": 851.1896250000136,
      "v": 74
    },
    {
      "midi": 68,
      "hit": false,
      "t": 76904.68500000003,
      "d": 596.2295625000115,
      "v": 64
    },
    {
      "midi": 73,
      "hit": false,
      "t": 77142.78000000003,
      "d": 273.8092500000057,
      "v": 82
    },
    {
      "midi": 76,
      "hit": false,
      "t": 77380.87500000003,
      "d": 670.6342500000173,
      "v": 79
    },
    {
      "midi": 61,
      "hit": false,
      "t": 77618.97000000004,
      "d": 439.4836875000037,
      "v": 82
    },
    {
      "midi": 68,
      "hit": false,
      "t": 77857.06500000005,
      "d": 275.7933750000084,
      "v": 72
    },
    {
      "midi": 76,
      "hit": false,
      "t": 78095.16000000005,
      "d": 462.30112499999814,
      "v": 77
    },
    {
      "midi": 45,
      "hit": false,
      "t": 78095.16000000005,
      "d": 3795.631125,
      "v": 69
    },
    {
      "midi": 57,
      "hit": false,
      "t": 78333.25500000005,
      "d": 831.3483750000014,
      "v": 84
    },
    {
      "midi": 69,
      "hit": false,
      "t": 78571.35000000005,
      "d": 665.6739375000034,
      "v": 81
    },
    {
      "midi": 73,
      "hit": false,
      "t": 78809.44500000005,
      "d": 650.7930000000051,
      "v": 64
    },
    {
      "midi": 76,
      "hit": false,
      "t": 79047.54000000005,
      "d": 409.7218125000072,
      "v": 78
    },
    {
      "midi": 57,
      "hit": false,
      "t": 79285.63500000005,
      "d": 826.388062500002,
      "v": 81
    },
    {
      "midi": 69,
      "hit": false,
      "t": 79523.73000000005,
      "d": 533.7296250000072,
      "v": 66
    },
    {
      "midi": 73,
      "hit": false,
      "t": 79761.82500000006,
      "d": 650.7929999999906,
      "v": 60
    },
    {
      "midi": 76,
      "hit": false,
      "t": 79999.92000000006,
      "d": 394.8408749999944,
      "v": 69
    },
    {
      "midi": 57,
      "hit": false,
      "t": 80238.01500000006,
      "d": 625.9914374999935,
      "v": 82
    },
    {
      "midi": 69,
      "hit": false,
      "t": 80476.11000000004,
      "d": 573.4121250000026,
      "v": 70
    },
    {
      "midi": 73,
      "hit": false,
      "t": 80714.20500000005,
      "d": 447.4201874999999,
      "v": 66
    },
    {
      "midi": 57,
      "hit": false,
      "t": 80952.30000000005,
      "d": 422.6186250000028,
      "v": 92
    },
    {
      "midi": 76,
      "hit": false,
      "t": 81190.39500000005,
      "d": 454.364625000002,
      "v": 84
    },
    {
      "midi": 57,
      "hit": false,
      "t": 81428.49000000005,
      "d": 556.5470625000016,
      "v": 66
    },
    {
      "midi": 73,
      "hit": false,
      "t": 81666.58500000005,
      "d": 285.7140000000072,
      "v": 70
    },
    {
      "midi": 76,
      "hit": false,
      "t": 81904.68000000005,
      "d": 335.3171250000014,
      "v": 90
    },
    {
      "midi": 49,
      "hit": false,
      "t": 81904.68000000005,
      "d": 3701.3851875000255,
      "v": 76
    },
    {
      "midi": 61,
      "hit": false,
      "t": 82142.77500000005,
      "d": 846.2293124999997,
      "v": 66
    },
    {
      "midi": 68,
      "hit": false,
      "t": 82380.87000000005,
      "d": 432.53925000000163,
      "v": 70
    },
    {
      "midi": 73,
      "hit": false,
      "t": 82618.96500000005,
      "d": 221.22993750000023,
      "v": 84
    },
    {
      "midi": 76,
      "hit": false,
      "t": 82857.06000000006,
      "d": 377.97581250000803,
      "v": 71
    },
    {
      "midi": 61,
      "hit": false,
      "t": 83095.15500000006,
      "d": 846.2293125000142,
      "v": 64
    },
    {
      "midi": 68,
      "hit": false,
      "t": 83333.25000000006,
      "d": 275.7933750000084,
      "v": 72
    },
    {
      "midi": 73,
      "hit": false,
      "t": 83571.34500000006,
      "d": 234.12675000001036,
      "v": 79
    },
    {
      "midi": 76,
      "hit": false,
      "t": 83809.44000000008,
      "d": 397.8170625000057,
      "v": 75
    },
    {
      "midi": 61,
      "hit": false,
      "t": 84047.53500000008,
      "d": 988.0942500000092,
      "v": 70
    },
    {
      "midi": 68,
      "hit": false,
      "t": 84285.63000000008,
      "d": 181.5474375000049,
      "v": 70
    },
    {
      "midi": 73,
      "hit": false,
      "t": 84523.72500000008,
      "d": 206.34900000000198,
      "v": 64
    },
    {
      "midi": 76,
      "hit": false,
      "t": 84761.82000000008,
      "d": 179.5633125000022,
      "v": 93
    },
    {
      "midi": 78,
      "hit": false,
      "t": 84999.91500000008,
      "d": 268.8489375000063,
      "v": 72
    },
    {
      "midi": 61,
      "hit": false,
      "t": 85238.01000000008,
      "d": 417.6583124999888,
      "v": 74
    },
    {
      "midi": 68,
      "hit": false,
      "t": 85476.10500000008,
      "d": 181.54743749999034,
      "v": 76
    },
    {
      "midi": 73,
      "hit": false,
      "t": 85714.20000000007,
      "d": 563.4915000000037,
      "v": 84
    },
    {
      "midi": 42,
      "hit": false,
      "t": 85714.20000000007,
      "d": 1937.498062499988,
      "v": 76
    },
    {
      "midi": 54,
      "hit": false,
      "t": 85952.29500000007,
      "d": 1729.1649374999834,
      "v": 91
    },
    {
      "midi": 69,
      "hit": false,
      "t": 86190.39000000007,
      "d": 370.0393124999973,
      "v": 84
    },
    {
      "midi": 71,
      "hit": false,
      "t": 86428.48500000007,
      "d": 229.1664374999964,
      "v": 73
    },
    {
      "midi": 73,
      "hit": false,
      "t": 86666.58000000007,
      "d": 249.00768749999406,
      "v": 72
    },
    {
      "midi": 76,
      "hit": false,
      "t": 86904.67500000008,
      "d": 260.912437499981,
      "v": 86
    },
    {
      "midi": 69,
      "hit": false,
      "t": 87142.77000000006,
      "d": 244.04737499999464,
      "v": 73
    },
    {
      "midi": 71,
      "hit": false,
      "t": 87380.86500000006,
      "d": 224.20612499999697,
      "v": 79
    },
    {
      "midi": 73,
      "hit": false,
      "t": 87618.96000000006,
      "d": 377.9758124999935,
      "v": 72
    },
    {
      "midi": 42,
      "hit": false,
      "t": 87857.05500000005,
      "d": 1573.4111250000133,
      "v": 70
    },
    {
      "midi": 54,
      "hit": false,
      "t": 88095.15000000005,
      "d": 1034.7211875000066,
      "v": 93
    },
    {
      "midi": 69,
      "hit": false,
      "t": 88333.24500000005,
      "d": 241.0711874999979,
      "v": 82
    },
    {
      "midi": 71,
      "hit": false,
      "t": 88571.34000000005,
      "d": 219.24581249999756,
      "v": 81
    },
    {
      "midi": 76,
      "hit": false,
      "t": 88809.43500000006,
      "d": 531.7455000000045,
      "v": 84
    },
    {
      "midi": 71,
      "hit": false,
      "t": 89047.53000000006,
      "d": 226.19024999999965,
      "v": 70
    },
    {
      "midi": 69,
      "hit": false,
      "t": 89285.62500000006,
      "d": 268.8489375000063,
      "v": 93
    },
    {
      "midi": 54,
      "hit": false,
      "t": 89285.62500000006,
      "d": 270.83306250000896,
      "v": 74
    },
    {
      "midi": 76,
      "hit": false,
      "t": 89523.72000000006,
      "d": 293.6505000000034,
      "v": 96
    },
    {
      "midi": 49,
      "hit": false,
      "t": 89523.72000000006,
      "d": 3673.607437500017,
      "v": 79
    },
    {
      "midi": 61,
      "hit": false,
      "t": 89761.81500000006,
      "d": 811.5071250000037,
      "v": 74
    },
    {
      "midi": 68,
      "hit": false,
      "t": 89999.91000000006,
      "d": 268.8489375000063,
      "v": 68
    },
    {
      "midi": 73,
      "hit": false,
      "t": 90238.00500000006,
      "d": 206.34900000000198,
      "v": 87
    },
    {
      "midi": 76,
      "hit": false,
      "t": 90476.10000000006,
      "d": 452.3804999999993,
      "v": 86
    },
    {
      "midi": 61,
      "hit": false,
      "t": 90714.19500000007,
      "d": 859.1261250000098,
      "v": 64
    },
    {
      "midi": 68,
      "hit": false,
      "t": 90952.29000000007,
      "d": 328.3726874999993,
      "v": 74
    },
    {
      "midi": 73,
      "hit": false,
      "t": 91190.38500000007,
      "d": 199.40456249999988,
      "v": 66
    },
    {
      "midi": 76,
      "hit": false,
      "t": 91428.48000000007,
      "d": 452.3804999999993,
      "v": 86
    },
    {
      "midi": 61,
      "hit": false,
      "t": 91666.57500000007,
      "d": 667.658062500006,
      "v": 66
    },
    {
      "midi": 68,
      "hit": false,
      "t": 91904.67000000007,
      "d": 201.38868750000256,
      "v": 68
    },
    {
      "midi": 78,
      "hit": false,
      "t": 92142.76500000007,
      "d": 546.6264375000028,
      "v": 87
    },
    {
      "midi": 68,
      "hit": false,
      "t": 92380.86000000007,
      "d": 467.26143749999756,
      "v": 56
    },
    {
      "midi": 61,
      "hit": false,
      "t": 92618.95500000007,
      "d": 647.8168125000084,
      "v": 68
    },
    {
      "midi": 76,
      "hit": false,
      "t": 92857.05000000008,
      "d": 397.8170625000057,
      "v": 96
    },
    {
      "midi": 76,
      "hit": false,
      "t": 93333.24000000008,
      "d": 407.73768750000454,
      "v": 84
    },
    {
      "midi": 45,
      "hit": false,
      "t": 93333.24000000008,
      "d": 3748.0121250000084,
      "v": 78
    },
    {
      "midi": 57,
      "hit": false,
      "t": 93571.33500000008,
      "d": 869.0467499999941,
      "v": 71
    },
    {
      "midi": 69,
      "hit": false,
      "t": 93809.43000000008,
      "d": 417.6583125000034,
      "v": 90
    },
    {
      "midi": 73,
      "hit": false,
      "t": 94047.52500000008,
      "d": 270.8330624999944,
      "v": 72
    },
    {
      "midi": 76,
      "hit": false,
      "t": 94285.62000000008,
      "d": 434.52337499998976,
      "v": 92
    },
    {
      "midi": 57,
      "hit": false,
      "t": 94523.71500000007,
      "d": 819.4436249999999,
      "v": 82
    },
    {
      "midi": 69,
      "hit": false,
      "t": 94761.81000000007,
      "d": 424.60275000000547,
      "v": 93
    },
    {
      "midi": 73,
      "hit": false,
      "t": 94999.90500000007,
      "d": 249.00768749999406,
      "v": 72
    },
    {
      "midi": 76,
      "hit": false,
      "t": 95238.00000000007,
      "d": 417.6583125000034,
      "v": 96
    },
    {
      "midi": 57,
      "hit": false,
      "t": 95476.09500000007,
      "d": 583.3327500000014,
      "v": 84
    },
    {
      "midi": 69,
      "hit": false,
      "t": 95714.19000000008,
      "d": 204.3648749999993,
      "v": 84
    },
    {
      "midi": 76,
      "hit": false,
      "t": 95952.28500000008,
      "d": 457.3408124999987,
      "v": 100
    },
    {
      "midi": 57,
      "hit": false,
      "t": 96190.38000000008,
      "d": 978.1736250000104,
      "v": 75
    },
    {
      "midi": 69,
      "hit": false,
      "t": 96428.47500000008,
      "d": 667.658062500006,
      "v": 93
    },
    {
      "midi": 73,
      "hit": false,
      "t": 96666.57000000008,
      "d": 224.20612499999697,
      "v": 76
    },
    {
      "midi": 76,
      "hit": false,
      "t": 96904.66500000008,
      "d": 219.24581249999756,
      "v": 97
    },
    {
      "midi": 76,
      "hit": false,
      "t": 97142.76000000008,
      "d": 573.4121250000026,
      "v": 105
    },
    {
      "midi": 50,
      "hit": false,
      "t": 97142.76000000008,
      "d": 3797.615250000017,
      "v": 92
    },
    {
      "midi": 57,
      "hit": false,
      "t": 97380.85500000008,
      "d": 928.5705000000016,
      "v": 78
    },
    {
      "midi": 66,
      "hit": false,
      "t": 97618.95000000008,
      "d": 548.6105625000055,
      "v": 68
    },
    {
      "midi": 76,
      "hit": false,
      "t": 97857.04500000009,
      "d": 290.67431250000664,
      "v": 96
    },
    {
      "midi": 74,
      "hit": false,
      "t": 98095.14000000009,
      "d": 650.7930000000051,
      "v": 102
    },
    {
      "midi": 57,
      "hit": false,
      "t": 98333.23500000009,
      "d": 776.7849375000078,
      "v": 88
    },
    {
      "midi": 62,
      "hit": false,
      "t": 98571.33000000009,
      "d": 521.8248750000057,
      "v": 97
    },
    {
      "midi": 66,
      "hit": false,
      "t": 98809.42500000009,
      "d": 258.92831250000745,
      "v": 91
    },
    {
      "midi": 73,
      "hit": false,
      "t": 99047.52000000009,
      "d": 548.6105625000055,
      "v": 97
    },
    {
      "midi": 57,
      "hit": false,
      "t": 99285.61500000009,
      "d": 687.4993125000037,
      "v": 70
    },
    {
      "midi": 62,
      "hit": false,
      "t": 99523.7100000001,
      "d": 447.4201874999999,
      "v": 93
    },
    {
      "midi": 73,
      "hit": false,
      "t": 99761.8050000001,
      "d": 236.1108749999985,
      "v": 76
    },
    {
      "midi": 71,
      "hit": false,
      "t": 99999.9000000001,
      "d": 454.364625000002,
      "v": 105
    },
    {
      "midi": 62,
      "hit": false,
      "t": 100237.9950000001,
      "d": 695.4358124999999,
      "v": 88
    },
    {
      "midi": 66,
      "hit": false,
      "t": 100476.0900000001,
      "d": 467.26143749999756,
      "v": 93
    },
    {
      "midi": 69,
      "hit": false,
      "t": 100714.1850000001,
      "d": 241.0711874999979,
      "v": 93
    },
    {
      "midi": 76,
      "hit": false,
      "t": 100952.2800000001,
      "d": 908.729250000004,
      "v": 100
    },
    {
      "midi": 52,
      "hit": false,
      "t": 100952.2800000001,
      "d": 3797.615250000017,
      "v": 86
    },
    {
      "midi": 59,
      "hit": false,
      "t": 101190.3750000001,
      "d": 710.3167500000127,
      "v": 84
    },
    {
      "midi": 64,
      "hit": false,
      "t": 101428.4700000001,
      "d": 474.2058750000142,
      "v": 68
    },
    {
      "midi": 66,
      "hit": false,
      "t": 101666.5650000001,
      "d": 196.42837500000314,
      "v": 82
    },
    {
      "midi": 74,
      "hit": false,
      "t": 101904.66000000012,
      "d": 270.8330624999944,
      "v": 93
    },
    {
      "midi": 64,
      "hit": false,
      "t": 102142.75500000012,
      "d": 275.79337499999383,
      "v": 74
    },
    {
      "midi": 66,
      "hit": false,
      "t": 102380.85000000011,
      "d": 219.2458125000121,
      "v": 70
    },
    {
      "midi": 73,
      "hit": false,
      "t": 102618.94500000012,
      "d": 250.99181249999674,
      "v": 97
    },
    {
      "midi": 64,
      "hit": false,
      "t": 102857.04000000012,
      "d": 464.2852500000008,
      "v": 72
    },
    {
      "midi": 66,
      "hit": false,
      "t": 103095.13500000013,
      "d": 229.1664374999964,
      "v": 66
    },
    {
      "midi": 71,
      "hit": false,
      "t": 103333.23000000013,
      "d": 290.67431250000664,
      "v": 93
    },
    {
      "midi": 64,
      "hit": false,
      "t": 103571.32500000013,
      "d": 482.1423749999958,
      "v": 74
    },
    {
      "midi": 66,
      "hit": false,
      "t": 103809.42000000013,
      "d": 224.20612499999697,
      "v": 62
    },
    {
      "midi": 69,
      "hit": false,
      "t": 104047.51500000013,
      "d": 268.84893749999173,
      "v": 102
    },
    {
      "midi": 64,
      "hit": false,
      "t": 104285.61000000012,
      "d": 303.5711250000022,
      "v": 82
    },
    {
      "midi": 57,
      "hit": false,
      "t": 104647.71281250012,
      "d": 2701.3861875000002,
      "v": 73
    },
    {
      "midi": 62,
      "hit": false,
      "t": 104679.45881250012,
      "d": 2669.640187500001,
      "v": 79
    },
    {
      "midi": 66,
      "hit": false,
      "t": 104736.99843750012,
      "d": 2620.0370624999923,
      "v": 70
    },
    {
      "midi": 50,
      "hit": false,
      "t": 104761.80000000012,
      "d": 3785.710500000001,
      "v": 86
    },
    {
      "midi": 69,
      "hit": false,
      "t": 104798.50631250012,
      "d": 2555.553,
      "v": 70
    },
    {
      "midi": 74,
      "hit": false,
      "t": 107618.94000000003,
      "d": 219.24581249999756,
      "v": 111
    },
    {
      "midi": 73,
      "hit": false,
      "t": 107857.03500000003,
      "d": 199.40456249999988,
      "v": 97
    },
    {
      "midi": 71,
      "hit": false,
      "t": 108095.13000000003,
      "d": 206.34900000000198,
      "v": 100
    },
    {
      "midi": 69,
      "hit": false,
      "t": 108333.22500000003,
      "d": 194.44425000000047,
      "v": 114
    },
    {
      "midi": 71,
      "hit": false,
      "t": 108571.32000000004,
      "d": 437.49956250000105,
      "v": 93
    },
    {
      "midi": 52,
      "hit": false,
      "t": 108809.41500000004,
      "d": 1520.8318124999932,
      "v": 93
    },
    {
      "midi": 69,
      "hit": false,
      "t": 109047.51000000004,
      "d": 231.15056249999907,
      "v": 68
    },
    {
      "midi": 57,
      "hit": false,
      "t": 109047.51000000004,
      "d": 1379.9589374999923,
      "v": 92
    },
    {
      "midi": 71,
      "hit": false,
      "t": 109285.60500000004,
      "d": 394.8408749999944,
      "v": 97
    },
    {
      "midi": 73,
      "hit": false,
      "t": 109761.79500000003,
      "d": 434.5233750000043,
      "v": 107
    },
    {
      "midi": 64,
      "hit": false,
      "t": 110237.98500000003,
      "d": 948.4117499999993,
      "v": 88
    },
    {
      "midi": 52,
      "hit": false,
      "t": 110714.17500000003,
      "d": 1211.3083125000267,
      "v": 90
    },
    {
      "midi": 57,
      "hit": false,
      "t": 110952.27000000003,
      "d": 985.118062500027,
      "v": 96
    },
    {
      "midi": 64,
      "hit": false,
      "t": 111190.36500000003,
      "d": 219.24581249999756,
      "v": 102
    },
    {
      "midi": 74,
      "hit": false,
      "t": 111428.46000000004,
      "d": 253.96800000000803,
      "v": 96
    },
    {
      "midi": 73,
      "hit": false,
      "t": 111666.55500000004,
      "d": 224.20612500001153,
      "v": 53
    },
    {
      "midi": 71,
      "hit": false,
      "t": 111904.65000000005,
      "d": 204.36487500001385,
      "v": 82
    },
    {
      "midi": 69,
      "hit": false,
      "t": 112142.74500000007,
      "d": 196.42837500000314,
      "v": 81
    },
    {
      "midi": 71,
      "hit": false,
      "t": 112380.84000000007,
      "d": 449.40431250000256,
      "v": 102
    },
    {
      "midi": 52,
      "hit": false,
      "t": 112618.93500000007,
      "d": 1892.8552500000078,
      "v": 81
    },
    {
      "midi": 69,
      "hit": false,
      "t": 112857.03000000007,
      "d": 236.1108749999985,
      "v": 75
    },
    {
      "midi": 57,
      "hit": false,
      "t": 112857.03000000007,
      "d": 1657.7364375000034,
      "v": 93
    },
    {
      "midi": 71,
      "hit": false,
      "t": 113095.12500000007,
      "d": 434.5233750000043,
      "v": 97
    },
    {
      "midi": 76,
      "hit": false,
      "t": 113571.31500000008,
      "d": 432.53925000000163,
      "v": 96
    },
    {
      "midi": 73,
      "hit": false,
      "t": 114047.50500000008,
      "d": 1077.3798749999987,
      "v": 84
    },
    {
      "midi": 49,
      "hit": false,
      "t": 114523.69500000008,
      "d": 1434.5223750000005,
      "v": 74
    },
    {
      "midi": 54,
      "hit": false,
      "t": 114761.79000000008,
      "d": 1161.7051875000034,
      "v": 93
    },
    {
      "midi": 74,
      "hit": false,
      "t": 115237.98000000008,
      "d": 250.99181249999674,
      "v": 97
    },
    {
      "midi": 73,
      "hit": false,
      "t": 115476.07500000008,
      "d": 211.3093125000014,
      "v": 64
    },
    {
      "midi": 71,
      "hit": false,
      "t": 115714.17000000009,
      "d": 191.46806250000373,
      "v": 75
    },
    {
      "midi": 69,
      "hit": false,
      "t": 115952.26500000009,
      "d": 189.4839374999865,
      "v": 64
    },
    {
      "midi": 71,
      "hit": false,
      "t": 116190.36000000007,
      "d": 429.5630625000049,
      "v": 105
    },
    {
      "midi": 50,
      "hit": false,
      "t": 116428.45500000007,
      "d": 727.1818124999991,
      "v": 67
    },
    {
      "midi": 69,
      "hit": false,
      "t": 116666.55000000008,
      "d": 255.95212499999616,
      "v": 77
    },
    {
      "midi": 55,
      "hit": false,
      "t": 116666.55000000008,
      "d": 533.7296249999927,
      "v": 77
    },
    {
      "midi": 71,
      "hit": false,
      "t": 116904.64500000008,
      "d": 402.77737499999057,
      "v": 92
    },
    {
      "midi": 62,
      "hit": false,
      "t": 116904.64500000008,
      "d": 1563.4904999999999,
      "v": 93
    },
    {
      "midi": 73,
      "hit": false,
      "t": 117380.83500000006,
      "d": 414.68212500000664,
      "v": 84
    },
    {
      "midi": 50,
      "hit": false,
      "t": 117380.83500000006,
      "d": 839.2848749999976,
      "v": 82
    },
    {
      "midi": 55,
      "hit": false,
      "t": 117618.93000000007,
      "d": 246.03149999999732,
      "v": 81
    },
    {
      "midi": 57,
      "hit": false,
      "t": 117857.02500000007,
      "d": 526.7851875000051,
      "v": 93
    },
    {
      "midi": 74,
      "hit": false,
      "t": 117857.02500000007,
      "d": 702.3802500000165,
      "v": 93
    },
    {
      "midi": 50,
      "hit": false,
      "t": 118333.21500000007,
      "d": 1588.2920625000115,
      "v": 82
    },
    {
      "midi": 73,
      "hit": false,
      "t": 118571.31000000008,
      "d": 239.08706249999523,
      "v": 74
    },
    {
      "midi": 55,
      "hit": false,
      "t": 118571.31000000008,
      "d": 464.2852500000008,
      "v": 71
    },
    {
      "midi": 71,
      "hit": false,
      "t": 118809.40500000009,
      "d": 462.30112499999814,
      "v": 92
    },
    {
      "midi": 62,
      "hit": false,
      "t": 118809.40500000009,
      "d": 1079.3640000000014,
      "v": 90
    },
    {
      "midi": 55,
      "hit": false,
      "t": 119285.59500000009,
      "d": 601.1898749999964,
      "v": 73
    },
    {
      "midi": 69,
      "hit": false,
      "t": 119285.59500000009,
      "d": 695.4358124999853,
      "v": 84
    },
    {
      "midi": 74,
      "hit": false,
      "t": 119999.88000000008,
      "d": 424.60275000000547,
      "v": 96
    },
    {
      "midi": 47,
      "hit": false,
      "t": 120237.97500000008,
      "d": 732.142125000013,
      "v": 100
    },
    {
      "midi": 73,
      "hit": false,
      "t": 120476.07000000008,
      "d": 268.8489375000063,
      "v": 68
    },
    {
      "midi": 52,
      "hit": false,
      "t": 120476.07000000008,
      "d": 710.3167500000127,
      "v": 97
    },
    {
      "midi": 71,
      "hit": false,
      "t": 120714.16500000008,
      "d": 429.5630625000049,
      "v": 92
    },
    {
      "midi": 64,
      "hit": false,
      "t": 120833.2125,
      "d": 4998.010874999993,
      "v": 1
    },
    {
      "midi": 69,
      "hit": false,
      "t": 121190.3550000001,
      "d": 457.3408124999987,
      "v": 90
    },
    {
      "midi": 47,
      "hit": false,
      "t": 121190.3550000001,
      "d": 811.5071250000037,
      "v": 86
    },
    {
      "midi": 52,
      "hit": false,
      "t": 121428.4500000001,
      "d": 766.864312500009,
      "v": 100
    },
    {
      "midi": 64,
      "hit": false,
      "t": 121666.5450000001,
      "d": 821.4277500000026,
      "v": 92
    },
    {
      "midi": 47,
      "hit": false,
      "t": 122142.7350000001,
      "d": 1456.3477500000008,
      "v": 90
    },
    {
      "midi": 52,
      "hit": false,
      "t": 122380.8300000001,
      "d": 1216.268624999997,
      "v": 100
    },
    {
      "midi": 64,
      "hit": false,
      "t": 122618.9250000001,
      "d": 234.1267499999958,
      "v": 97
    },
    {
      "midi": 74,
      "hit": false,
      "t": 122857.0200000001,
      "d": 181.5474375000049,
      "v": 105
    },
    {
      "midi": 73,
      "hit": false,
      "t": 123095.1150000001,
      "d": 249.00768749999406,
      "v": 82
    },
    {
      "midi": 71,
      "hit": false,
      "t": 123333.21000000011,
      "d": 181.54743749999034,
      "v": 81
    },
    {
      "midi": 69,
      "hit": false,
      "t": 123571.3050000001,
      "d": 204.36487500001385,
      "v": 78
    },
    {
      "midi": 71,
      "hit": false,
      "t": 123809.40000000011,
      "d": 437.49956250000105,
      "v": 93
    },
    {
      "midi": 52,
      "hit": false,
      "t": 124047.49500000011,
      "d": 1520.8318124999932,
      "v": 93
    },
    {
      "midi": 69,
      "hit": false,
      "t": 124285.59000000011,
      "d": 231.15056249999907,
      "v": 68
    },
    {
      "midi": 57,
      "hit": false,
      "t": 124285.59000000011,
      "d": 1379.9589374999923,
      "v": 92
    },
    {
      "midi": 71,
      "hit": false,
      "t": 124523.68500000011,
      "d": 394.8408749999944,
      "v": 97
    },
    {
      "midi": 73,
      "hit": false,
      "t": 124999.8750000001,
      "d": 434.5233750000043,
      "v": 107
    },
    {
      "midi": 64,
      "hit": false,
      "t": 125476.0650000001,
      "d": 948.4117499999993,
      "v": 88
    },
    {
      "midi": 62,
      "hit": false,
      "t": 125714.15999999999,
      "d": 950.395875000002,
      "v": 1
    },
    {
      "midi": 52,
      "hit": false,
      "t": 125952.2550000001,
      "d": 1211.3083125000267,
      "v": 90
    },
    {
      "midi": 57,
      "hit": false,
      "t": 126190.35000000011,
      "d": 985.118062500027,
      "v": 96
    },
    {
      "midi": 64,
      "hit": false,
      "t": 126428.44500000011,
      "d": 219.24581249999756,
      "v": 102
    },
    {
      "midi": 61,
      "hit": false,
      "t": 126666.54,
      "d": 950.395875000002,
      "v": 1
    },
    {
      "midi": 74,
      "hit": false,
      "t": 126666.54000000011,
      "d": 253.96800000000803,
      "v": 96
    },
    {
      "midi": 73,
      "hit": false,
      "t": 126904.63500000011,
      "d": 224.20612500001153,
      "v": 53
    },
    {
      "midi": 71,
      "hit": false,
      "t": 127142.73000000013,
      "d": 204.36487500001385,
      "v": 82
    },
    {
      "midi": 69,
      "hit": false,
      "t": 127380.82500000014,
      "d": 196.42837500000314,
      "v": 81
    },
    {
      "midi": 71,
      "hit": false,
      "t": 127618.92000000014,
      "d": 449.40431250000256,
      "v": 102
    },
    {
      "midi": 52,
      "hit": false,
      "t": 127857.01500000014,
      "d": 1892.8552500000078,
      "v": 81
    },
    {
      "midi": 69,
      "hit": false,
      "t": 128095.11000000015,
      "d": 236.1108749999985,
      "v": 75
    },
    {
      "midi": 57,
      "hit": false,
      "t": 128095.11000000015,
      "d": 1657.7364375000034,
      "v": 93
    },
    {
      "midi": 71,
      "hit": false,
      "t": 128333.20500000015,
      "d": 434.5233750000043,
      "v": 97
    },
    {
      "midi": 76,
      "hit": false,
      "t": 128809.39500000015,
      "d": 432.53925000000163,
      "v": 96
    },
    {
      "midi": 73,
      "hit": false,
      "t": 129285.58500000015,
      "d": 1077.3798749999987,
      "v": 84
    },
    {
      "midi": 49,
      "hit": false,
      "t": 129761.77500000015,
      "d": 1434.522374999986,
      "v": 74
    },
    {
      "midi": 54,
      "hit": false,
      "t": 129999.87000000016,
      "d": 1161.7051875000034,
      "v": 93
    },
    {
      "midi": 74,
      "hit": false,
      "t": 130476.06000000016,
      "d": 250.99181249999674,
      "v": 97
    },
    {
      "midi": 73,
      "hit": false,
      "t": 130714.15500000016,
      "d": 211.3093125000014,
      "v": 64
    },
    {
      "midi": 71,
      "hit": false,
      "t": 130952.25000000016,
      "d": 191.46806249998917,
      "v": 75
    },
    {
      "midi": 69,
      "hit": false,
      "t": 131190.34500000015,
      "d": 189.4839374999865,
      "v": 64
    },
    {
      "midi": 71,
      "hit": false,
      "t": 131428.44000000012,
      "d": 429.5630625000049,
      "v": 105
    },
    {
      "midi": 50,
      "hit": false,
      "t": 131666.53500000012,
      "d": 727.1818124999991,
      "v": 67
    },
    {
      "midi": 69,
      "hit": false,
      "t": 131904.63000000012,
      "d": 255.9521250000107,
      "v": 77
    },
    {
      "midi": 55,
      "hit": false,
      "t": 131904.63000000012,
      "d": 533.7296250000072,
      "v": 77
    },
    {
      "midi": 71,
      "hit": false,
      "t": 132142.72500000012,
      "d": 402.7773750000051,
      "v": 92
    },
    {
      "midi": 62,
      "hit": false,
      "t": 132142.72500000012,
      "d": 1563.4905000000144,
      "v": 93
    },
    {
      "midi": 73,
      "hit": false,
      "t": 132618.91500000012,
      "d": 414.6821249999921,
      "v": 84
    },
    {
      "midi": 50,
      "hit": false,
      "t": 132618.91500000012,
      "d": 839.2848750000121,
      "v": 82
    },
    {
      "midi": 55,
      "hit": false,
      "t": 132857.01000000013,
      "d": 246.03150000001187,
      "v": 81
    },
    {
      "midi": 57,
      "hit": false,
      "t": 133095.10500000013,
      "d": 526.7851875000051,
      "v": 93
    },
    {
      "midi": 74,
      "hit": false,
      "t": 133095.10500000013,
      "d": 702.3802500000165,
      "v": 93
    },
    {
      "midi": 50,
      "hit": false,
      "t": 133571.29500000013,
      "d": 1588.292062500026,
      "v": 82
    },
    {
      "midi": 73,
      "hit": false,
      "t": 133809.39000000013,
      "d": 239.08706250000978,
      "v": 74
    },
    {
      "midi": 55,
      "hit": false,
      "t": 133809.39000000013,
      "d": 464.28525000001537,
      "v": 71
    },
    {
      "midi": 71,
      "hit": false,
      "t": 134047.48500000013,
      "d": 462.30112500002724,
      "v": 92
    },
    {
      "midi": 62,
      "hit": false,
      "t": 134047.48500000013,
      "d": 1079.3640000000305,
      "v": 90
    },
    {
      "midi": 55,
      "hit": false,
      "t": 134523.67500000016,
      "d": 601.1898750000109,
      "v": 73
    },
    {
      "midi": 69,
      "hit": false,
      "t": 134523.67500000016,
      "d": 695.4358124999853,
      "v": 84
    },
    {
      "midi": 76,
      "hit": false,
      "t": 135237.96000000014,
      "d": 672.6183749999909,
      "v": 74
    },
    {
      "midi": 88,
      "hit": false,
      "t": 135237.96000000014,
      "d": 680.5548750000016,
      "v": 79
    },
    {
      "midi": 59,
      "hit": false,
      "t": 139047.48000000013,
      "d": 586.3089374999981,
      "v": 97
    },
    {
      "midi": 68,
      "hit": false,
      "t": 139047.48000000013,
      "d": 591.2692500000121,
      "v": 87
    },
    {
      "midi": 64,
      "hit": false,
      "t": 139047.48000000013,
      "d": 596.2295625000261,
      "v": 100
    },
    {
      "midi": 59,
      "hit": false,
      "t": 139999.86000000016,
      "d": 546.6264375000028,
      "v": 97
    },
    {
      "midi": 68,
      "hit": false,
      "t": 139999.86000000016,
      "d": 551.5867500000168,
      "v": 84
    },
    {
      "midi": 64,
      "hit": false,
      "t": 139999.86000000016,
      "d": 561.5073750000156,
      "v": 102
    },
    {
      "midi": 59,
      "hit": false,
      "t": 140952.24000000017,
      "d": 551.5867499999877,
      "v": 92
    },
    {
      "midi": 64,
      "hit": false,
      "t": 140952.24000000017,
      "d": 558.5311874999898,
      "v": 86
    },
    {
      "midi": 68,
      "hit": false,
      "t": 140952.24000000017,
      "d": 563.4915000000037,
      "v": 76
    },
    {
      "midi": 64,
      "hit": false,
      "t": 141904.62000000017,
      "d": 494.0471250000119,
      "v": 92
    },
    {
      "midi": 59,
      "hit": false,
      "t": 141904.62000000017,
      "d": 508.9280625000247,
      "v": 93
    },
    {
      "midi": 68,
      "hit": false,
      "t": 141904.62000000017,
      "d": 516.8645625000354,
      "v": 79
    },
    {
      "midi": 59,
      "hit": false,
      "t": 142857.0000000002,
      "d": 576.3883124999993,
      "v": 78
    },
    {
      "midi": 62,
      "hit": false,
      "t": 142857.0000000002,
      "d": 581.3486250000133,
      "v": 96
    },
    {
      "midi": 68,
      "hit": false,
      "t": 142857.0000000002,
      "d": 606.1501875000249,
      "v": 76
    },
    {
      "midi": 59,
      "hit": false,
      "t": 143809.38000000024,
      "d": 556.5470625000016,
      "v": 90
    },
    {
      "midi": 62,
      "hit": false,
      "t": 143809.38000000024,
      "d": 566.4676875000005,
      "v": 102
    },
    {
      "midi": 68,
      "hit": false,
      "t": 143809.38000000024,
      "d": 591.2692500000121,
      "v": 79
    },
    {
      "midi": 59,
      "hit": false,
      "t": 144761.76000000024,
      "d": 541.6661249999888,
      "v": 88
    },
    {
      "midi": 62,
      "hit": false,
      "t": 144761.76000000024,
      "d": 553.5708749999758,
      "v": 102
    },
    {
      "midi": 68,
      "hit": false,
      "t": 144761.76000000024,
      "d": 563.4914999999746,
      "v": 79
    },
    {
      "midi": 59,
      "hit": false,
      "t": 145714.14000000022,
      "d": 397.81706249999115,
      "v": 90
    },
    {
      "midi": 62,
      "hit": false,
      "t": 145714.14000000022,
      "d": 409.7218124999781,
      "v": 100
    },
    {
      "midi": 68,
      "hit": false,
      "t": 145714.14000000022,
      "d": 422.6186249999737,
      "v": 84
    },
    {
      "midi": 64,
      "hit": false,
      "t": 146666.5200000002,
      "d": 457.34081250001327,
      "v": 102
    },
    {
      "midi": 69,
      "hit": false,
      "t": 146666.5200000002,
      "d": 462.30112500002724,
      "v": 90
    },
    {
      "midi": 61,
      "hit": false,
      "t": 146666.5200000002,
      "d": 469.24556250002934,
      "v": 72
    },
    {
      "midi": 64,
      "hit": false,
      "t": 147618.90000000023,
      "d": 499.00743749999674,
      "v": 100
    },
    {
      "midi": 69,
      "hit": false,
      "t": 147618.90000000023,
      "d": 513.8883750000095,
      "v": 84
    },
    {
      "midi": 61,
      "hit": false,
      "t": 147618.90000000023,
      "d": 531.7455000000191,
      "v": 61
    },
    {
      "midi": 64,
      "hit": false,
      "t": 148571.28000000023,
      "d": 528.7693124999932,
      "v": 86
    },
    {
      "midi": 60,
      "hit": false,
      "t": 148571.28000000023,
      "d": 538.6899374999921,
      "v": 75
    },
    {
      "midi": 69,
      "hit": false,
      "t": 148571.28000000023,
      "d": 551.5867499999877,
      "v": 79
    },
    {
      "midi": 69,
      "hit": false,
      "t": 149523.6600000002,
      "d": 392.8567500000063,
      "v": 90
    },
    {
      "midi": 64,
      "hit": false,
      "t": 149523.6600000002,
      "d": 412.69800000000396,
      "v": 97
    },
    {
      "midi": 60,
      "hit": false,
      "t": 149523.6600000002,
      "d": 419.64243750000605,
      "v": 82
    },
    {
      "midi": 58,
      "hit": false,
      "t": 150476.0400000002,
      "d": 561.5073749999865,
      "v": 66
    },
    {
      "midi": 63,
      "hit": false,
      "t": 150476.0400000002,
      "d": 563.4914999999746,
      "v": 91
    },
    {
      "midi": 67,
      "hit": false,
      "t": 150476.0400000002,
      "d": 593.2533749999711,
      "v": 86
    },
    {
      "midi": 63,
      "hit": false,
      "t": 151428.4200000002,
      "d": 477.18206250001094,
      "v": 93
    },
    {
      "midi": 58,
      "hit": false,
      "t": 151428.4200000002,
      "d": 499.00743749999674,
      "v": 72
    },
    {
      "midi": 67,
      "hit": false,
      "t": 151428.4200000002,
      "d": 543.650250000006,
      "v": 86
    },
    {
      "midi": 63,
      "hit": false,
      "t": 152380.8000000002,
      "d": 586.3089374999981,
      "v": 87
    },
    {
      "midi": 58,
      "hit": false,
      "t": 152380.8000000002,
      "d": 627.9755625000107,
      "v": 74
    },
    {
      "midi": 67,
      "hit": false,
      "t": 152380.8000000002,
      "d": 650.7930000000051,
      "v": 92
    },
    {
      "midi": 58,
      "hit": false,
      "t": 153333.1800000002,
      "d": 506.94393750000745,
      "v": 79
    },
    {
      "midi": 67,
      "hit": false,
      "t": 153333.1800000002,
      "d": 511.9042500000214,
      "v": 93
    },
    {
      "midi": 63,
      "hit": false,
      "t": 153333.1800000002,
      "d": 561.5073750000156,
      "v": 93
    },
    {
      "midi": 75,
      "hit": false,
      "t": 159082.18218750015,
      "d": 216.26962499998626,
      "v": 100
    },
    {
      "midi": 74,
      "hit": false,
      "t": 159307.38037500012,
      "d": 204.3648749999993,
      "v": 84
    },
    {
      "midi": 72,
      "hit": false,
      "t": 159530.5944375001,
      "d": 214.28549999999814,
      "v": 84
    },
    {
      "midi": 70,
      "hit": false,
      "t": 159773.6497500001,
      "d": 202.38075000001118,
      "v": 100
    },
    {
      "midi": 72,
      "hit": false,
      "t": 159999.8400000001,
      "d": 437.4995625000156,
      "v": 93
    },
    {
      "midi": 53,
      "hit": false,
      "t": 160237.9350000001,
      "d": 1520.8318124999932,
      "v": 93
    },
    {
      "midi": 70,
      "hit": false,
      "t": 160476.03000000012,
      "d": 231.15056249999907,
      "v": 68
    },
    {
      "midi": 58,
      "hit": false,
      "t": 160476.03000000012,
      "d": 1379.9589374999923,
      "v": 92
    },
    {
      "midi": 72,
      "hit": false,
      "t": 160714.12500000012,
      "d": 394.8408749999944,
      "v": 97
    },
    {
      "midi": 74,
      "hit": false,
      "t": 161190.31500000012,
      "d": 434.52337499998976,
      "v": 107
    },
    {
      "midi": 65,
      "hit": false,
      "t": 161666.50500000012,
      "d": 948.4117499999702,
      "v": 88
    },
    {
      "midi": 53,
      "hit": false,
      "t": 162142.6950000001,
      "d": 1211.308312500012,
      "v": 90
    },
    {
      "midi": 58,
      "hit": false,
      "t": 162380.7900000001,
      "d": 985.1180624999979,
      "v": 96
    },
    {
      "midi": 65,
      "hit": false,
      "t": 162618.8850000001,
      "d": 219.2458125000121,
      "v": 102
    },
    {
      "midi": 75,
      "hit": false,
      "t": 162856.9800000001,
      "d": 253.96799999999348,
      "v": 96
    },
    {
      "midi": 74,
      "hit": false,
      "t": 163095.0750000001,
      "d": 224.20612499999697,
      "v": 53
    },
    {
      "midi": 72,
      "hit": false,
      "t": 163333.1700000001,
      "d": 204.3648749999993,
      "v": 82
    },
    {
      "midi": 70,
      "hit": false,
      "t": 163571.2650000001,
      "d": 196.4283749999886,
      "v": 81
    },
    {
      "midi": 72,
      "hit": false,
      "t": 163809.3600000001,
      "d": 449.40431250000256,
      "v": 102
    },
    {
      "midi": 53,
      "hit": false,
      "t": 164047.4550000001,
      "d": 1892.8552499999932,
      "v": 81
    },
    {
      "midi": 70,
      "hit": false,
      "t": 164285.5500000001,
      "d": 236.11087500001304,
      "v": 75
    },
    {
      "midi": 58,
      "hit": false,
      "t": 164285.5500000001,
      "d": 1657.7364374999888,
      "v": 93
    },
    {
      "midi": 72,
      "hit": false,
      "t": 164523.6450000001,
      "d": 434.52337499998976,
      "v": 97
    },
    {
      "midi": 77,
      "hit": false,
      "t": 164999.8350000001,
      "d": 432.53925000000163,
      "v": 96
    },
    {
      "midi": 74,
      "hit": false,
      "t": 165476.0250000001,
      "d": 1077.3798749999842,
      "v": 84
    },
    {
      "midi": 50,
      "hit": false,
      "t": 165952.21500000008,
      "d": 1434.5223750000005,
      "v": 74
    },
    {
      "midi": 55,
      "hit": false,
      "t": 166190.31000000008,
      "d": 1161.705187500018,
      "v": 93
    },
    {
      "midi": 75,
      "hit": false,
      "t": 166666.5000000001,
      "d": 250.99181249999674,
      "v": 97
    },
    {
      "midi": 74,
      "hit": false,
      "t": 166904.5950000001,
      "d": 211.3093125000014,
      "v": 64
    },
    {
      "midi": 72,
      "hit": false,
      "t": 167142.6900000001,
      "d": 191.46806250000373,
      "v": 75
    },
    {
      "midi": 70,
      "hit": false,
      "t": 167380.7850000001,
      "d": 189.4839374999865,
      "v": 64
    },
    {
      "midi": 72,
      "hit": false,
      "t": 167618.88000000006,
      "d": 429.5630625000049,
      "v": 105
    },
    {
      "midi": 51,
      "hit": false,
      "t": 167856.97500000006,
      "d": 727.1818124999991,
      "v": 67
    },
    {
      "midi": 70,
      "hit": false,
      "t": 168095.07000000007,
      "d": 255.9521250000107,
      "v": 77
    },
    {
      "midi": 56,
      "hit": false,
      "t": 168095.07000000007,
      "d": 533.7296250000072,
      "v": 77
    },
    {
      "midi": 72,
      "hit": false,
      "t": 168333.16500000007,
      "d": 402.7773750000051,
      "v": 92
    },
    {
      "midi": 63,
      "hit": false,
      "t": 168333.16500000007,
      "d": 1563.4905000000144,
      "v": 93
    },
    {
      "midi": 74,
      "hit": false,
      "t": 168809.35500000007,
      "d": 414.6821249999921,
      "v": 84
    },
    {
      "midi": 51,
      "hit": false,
      "t": 168809.35500000007,
      "d": 839.2848750000121,
      "v": 82
    },
    {
      "midi": 56,
      "hit": false,
      "t": 169047.45000000007,
      "d": 246.03150000001187,
      "v": 81
    },
    {
      "midi": 58,
      "hit": false,
      "t": 169285.54500000007,
      "d": 526.7851875000051,
      "v": 93
    },
    {
      "midi": 75,
      "hit": false,
      "t": 169285.54500000007,
      "d": 702.3802500000165,
      "v": 93
    },
    {
      "midi": 51,
      "hit": false,
      "t": 169761.73500000007,
      "d": 1588.292062500026,
      "v": 82
    },
    {
      "midi": 74,
      "hit": false,
      "t": 169999.83000000007,
      "d": 239.08706250000978,
      "v": 74
    },
    {
      "midi": 56,
      "hit": false,
      "t": 169999.83000000007,
      "d": 464.28525000001537,
      "v": 71
    },
    {
      "midi": 72,
      "hit": false,
      "t": 170237.92500000008,
      "d": 462.30112500002724,
      "v": 92
    },
    {
      "midi": 63,
      "hit": false,
      "t": 170237.92500000008,
      "d": 1079.3640000000305,
      "v": 90
    },
    {
      "midi": 56,
      "hit": false,
      "t": 170714.1150000001,
      "d": 601.1898750000109,
      "v": 73
    },
    {
      "midi": 70,
      "hit": false,
      "t": 170714.1150000001,
      "d": 695.4358124999853,
      "v": 84
    },
    {
      "midi": 67,
      "hit": false,
      "t": 171428.4,
      "d": 1672.6173750000016,
      "v": 1
    },
    {
      "midi": 75,
      "hit": false,
      "t": 171428.40000000008,
      "d": 424.6027499999909,
      "v": 96
    },
    {
      "midi": 48,
      "hit": false,
      "t": 171666.49500000008,
      "d": 732.142125000013,
      "v": 100
    },
    {
      "midi": 74,
      "hit": false,
      "t": 171904.59000000008,
      "d": 268.8489375000063,
      "v": 68
    },
    {
      "midi": 53,
      "hit": false,
      "t": 171904.59000000008,
      "d": 710.3167499999981,
      "v": 97
    },
    {
      "midi": 72,
      "hit": false,
      "t": 172142.68500000008,
      "d": 429.5630625000049,
      "v": 92
    },
    {
      "midi": 70,
      "hit": false,
      "t": 172618.8750000001,
      "d": 457.34081250001327,
      "v": 90
    },
    {
      "midi": 48,
      "hit": false,
      "t": 172618.8750000001,
      "d": 811.5071250000037,
      "v": 86
    },
    {
      "midi": 53,
      "hit": false,
      "t": 172856.9700000001,
      "d": 766.8643124999944,
      "v": 100
    },
    {
      "midi": 65,
      "hit": false,
      "t": 173092.0888125,
      "d": 1154.7607499999867,
      "v": 1
    },
    {
      "midi": 65,
      "hit": false,
      "t": 173095.0650000001,
      "d": 821.4277500000026,
      "v": 92
    },
    {
      "midi": 48,
      "hit": false,
      "t": 173571.2550000001,
      "d": 1456.3477499999863,
      "v": 90
    },
    {
      "midi": 53,
      "hit": false,
      "t": 173809.3500000001,
      "d": 1216.268624999997,
      "v": 100
    },
    {
      "midi": 65,
      "hit": false,
      "t": 174047.4450000001,
      "d": 234.1267499999958,
      "v": 97
    },
    {
      "midi": 75,
      "hit": false,
      "t": 174285.5400000001,
      "d": 181.5474375000049,
      "v": 105
    },
    {
      "midi": 74,
      "hit": false,
      "t": 174523.6350000001,
      "d": 249.00768750000861,
      "v": 82
    },
    {
      "midi": 72,
      "hit": false,
      "t": 174761.7300000001,
      "d": 181.5474375000049,
      "v": 81
    },
    {
      "midi": 70,
      "hit": false,
      "t": 174999.8250000001,
      "d": 204.3648749999702,
      "v": 78
    },
    {
      "midi": 72,
      "hit": false,
      "t": 175237.92000000007,
      "d": 437.4995625000156,
      "v": 93
    },
    {
      "midi": 53,
      "hit": false,
      "t": 175476.01500000007,
      "d": 1520.8318124999932,
      "v": 93
    },
    {
      "midi": 70,
      "hit": false,
      "t": 175714.11000000007,
      "d": 231.15056249999907,
      "v": 68
    },
    {
      "midi": 58,
      "hit": false,
      "t": 175714.11000000007,
      "d": 1379.9589374999923,
      "v": 92
    },
    {
      "midi": 72,
      "hit": false,
      "t": 175952.20500000007,
      "d": 394.8408749999944,
      "v": 97
    },
    {
      "midi": 74,
      "hit": false,
      "t": 176428.39500000008,
      "d": 434.52337499998976,
      "v": 107
    },
    {
      "midi": 65,
      "hit": false,
      "t": 176904.58500000008,
      "d": 948.4117499999702,
      "v": 88
    },
    {
      "midi": 63,
      "hit": false,
      "t": 177142.68,
      "d": 943.4514375000144,
      "v": 1
    },
    {
      "midi": 53,
      "hit": false,
      "t": 177380.77500000005,
      "d": 1211.308312500012,
      "v": 90
    },
    {
      "midi": 58,
      "hit": false,
      "t": 177618.87000000005,
      "d": 985.1180624999979,
      "v": 96
    },
    {
      "midi": 65,
      "hit": false,
      "t": 177856.96500000005,
      "d": 219.2458125000121,
      "v": 102
    },
    {
      "midi": 62,
      "hit": false,
      "t": 178095.06,
      "d": 963.2926875000121,
      "v": 1
    },
    {
      "midi": 75,
      "hit": false,
      "t": 178095.06000000006,
      "d": 253.96799999999348,
      "v": 96
    },
    {
      "midi": 74,
      "hit": false,
      "t": 178333.15500000006,
      "d": 224.20612499999697,
      "v": 53
    },
    {
      "midi": 72,
      "hit": false,
      "t": 178571.25000000006,
      "d": 204.3648749999993,
      "v": 82
    },
    {
      "midi": 70,
      "hit": false,
      "t": 178809.34500000006,
      "d": 196.4283749999886,
      "v": 81
    },
    {
      "midi": 72,
      "hit": false,
      "t": 179047.44000000006,
      "d": 449.40431250000256,
      "v": 102
    },
    {
      "midi": 53,
      "hit": false,
      "t": 179285.53500000006,
      "d": 1892.8552499999932,
      "v": 81
    },
    {
      "midi": 70,
      "hit": false,
      "t": 179523.63000000006,
      "d": 236.11087500001304,
      "v": 75
    },
    {
      "midi": 58,
      "hit": false,
      "t": 179523.63000000006,
      "d": 1657.7364374999888,
      "v": 93
    },
    {
      "midi": 72,
      "hit": false,
      "t": 179761.72500000006,
      "d": 434.52337499998976,
      "v": 97
    },
    {
      "midi": 77,
      "hit": false,
      "t": 180237.91500000007,
      "d": 432.53925000000163,
      "v": 96
    },
    {
      "midi": 74,
      "hit": false,
      "t": 180714.10500000007,
      "d": 1077.3798749999842,
      "v": 84
    },
    {
      "midi": 50,
      "hit": false,
      "t": 181190.29500000004,
      "d": 1434.5223750000005,
      "v": 74
    },
    {
      "midi": 55,
      "hit": false,
      "t": 181428.39000000004,
      "d": 1161.705187500018,
      "v": 93
    },
    {
      "midi": 75,
      "hit": false,
      "t": 181904.58000000005,
      "d": 250.99181249999674,
      "v": 97
    },
    {
      "midi": 74,
      "hit": false,
      "t": 182142.67500000005,
      "d": 211.3093125000014,
      "v": 64
    },
    {
      "midi": 72,
      "hit": false,
      "t": 182380.77000000005,
      "d": 191.46806250000373,
      "v": 75
    },
    {
      "midi": 70,
      "hit": false,
      "t": 182618.86500000005,
      "d": 189.4839374999865,
      "v": 64
    },
    {
      "midi": 72,
      "hit": false,
      "t": 182856.96000000002,
      "d": 429.5630625000049,
      "v": 105
    },
    {
      "midi": 51,
      "hit": false,
      "t": 183095.05500000002,
      "d": 727.1818124999991,
      "v": 67
    },
    {
      "midi": 70,
      "hit": false,
      "t": 183333.15000000002,
      "d": 255.9521250000107,
      "v": 77
    },
    {
      "midi": 56,
      "hit": false,
      "t": 183333.15000000002,
      "d": 533.7296250000072,
      "v": 77
    },
    {
      "midi": 72,
      "hit": false,
      "t": 183571.24500000002,
      "d": 402.7773750000051,
      "v": 92
    },
    {
      "midi": 63,
      "hit": false,
      "t": 183571.24500000002,
      "d": 1563.4905000000144,
      "v": 93
    },
    {
      "midi": 74,
      "hit": false,
      "t": 184047.43500000003,
      "d": 414.6821249999921,
      "v": 84
    },
    {
      "midi": 51,
      "hit": false,
      "t": 184047.43500000003,
      "d": 839.2848750000121,
      "v": 82
    },
    {
      "midi": 56,
      "hit": false,
      "t": 184285.53000000003,
      "d": 246.03150000001187,
      "v": 81
    },
    {
      "midi": 58,
      "hit": false,
      "t": 184523.62500000003,
      "d": 526.7851875000051,
      "v": 93
    },
    {
      "midi": 75,
      "hit": false,
      "t": 184523.62500000003,
      "d": 702.3802500000165,
      "v": 93
    },
    {
      "midi": 51,
      "hit": false,
      "t": 184999.81500000003,
      "d": 1588.292062500026,
      "v": 82
    },
    {
      "midi": 74,
      "hit": false,
      "t": 185237.91000000003,
      "d": 239.08706250000978,
      "v": 74
    },
    {
      "midi": 56,
      "hit": false,
      "t": 185237.91000000003,
      "d": 464.28525000001537,
      "v": 71
    },
    {
      "midi": 72,
      "hit": false,
      "t": 185476.00500000003,
      "d": 462.30112500002724,
      "v": 92
    },
    {
      "midi": 63,
      "hit": false,
      "t": 185476.00500000003,
      "d": 1079.3640000000305,
      "v": 90
    },
    {
      "midi": 56,
      "hit": false,
      "t": 185952.19500000007,
      "d": 601.1898750000109,
      "v": 73
    },
    {
      "midi": 70,
      "hit": false,
      "t": 185952.19500000007,
      "d": 695.4358124999853,
      "v": 84
    },
    {
      "midi": 77,
      "hit": false,
      "t": 186666.48000000004,
      "d": 672.6183749999909,
      "v": 74
    },
    {
      "midi": 89,
      "hit": false,
      "t": 186666.48000000004,
      "d": 680.5548750000016,
      "v": 79
    },
    {
      "midi": 75,
      "hit": false,
      "t": 189558.34218750003,
      "d": 216.26962499998626,
      "v": 100
    },
    {
      "midi": 74,
      "hit": false,
      "t": 189783.540375,
      "d": 204.3648749999993,
      "v": 84
    },
    {
      "midi": 72,
      "hit": false,
      "t": 190006.7544375,
      "d": 214.28549999999814,
      "v": 84
    },
    {
      "midi": 70,
      "hit": false,
      "t": 190249.80975,
      "d": 202.38075000001118,
      "v": 100
    },
    {
      "midi": 72,
      "hit": false,
      "t": 190476,
      "d": 437.4995625000156,
      "v": 93
    },
    {
      "midi": 53,
      "hit": false,
      "t": 190714.095,
      "d": 1520.8318124999932,
      "v": 93
    },
    {
      "midi": 70,
      "hit": false,
      "t": 190952.19,
      "d": 231.15056249999907,
      "v": 68
    },
    {
      "midi": 58,
      "hit": false,
      "t": 190952.19,
      "d": 1379.9589374999923,
      "v": 92
    },
    {
      "midi": 72,
      "hit": false,
      "t": 191190.285,
      "d": 394.8408749999944,
      "v": 97
    },
    {
      "midi": 74,
      "hit": false,
      "t": 191666.475,
      "d": 434.52337499998976,
      "v": 107
    },
    {
      "midi": 65,
      "hit": false,
      "t": 192142.665,
      "d": 948.4117499999702,
      "v": 88
    },
    {
      "midi": 53,
      "hit": false,
      "t": 192618.85499999998,
      "d": 1211.308312500012,
      "v": 90
    },
    {
      "midi": 58,
      "hit": false,
      "t": 192856.94999999998,
      "d": 985.1180624999979,
      "v": 96
    },
    {
      "midi": 65,
      "hit": false,
      "t": 193095.04499999998,
      "d": 219.2458125000121,
      "v": 102
    },
    {
      "midi": 75,
      "hit": false,
      "t": 193333.13999999998,
      "d": 253.96799999999348,
      "v": 96
    },
    {
      "midi": 74,
      "hit": false,
      "t": 193571.235,
      "d": 224.20612499999697,
      "v": 53
    },
    {
      "midi": 72,
      "hit": false,
      "t": 193809.33,
      "d": 204.3648749999993,
      "v": 82
    },
    {
      "midi": 70,
      "hit": false,
      "t": 194047.425,
      "d": 196.4283749999886,
      "v": 81
    },
    {
      "midi": 72,
      "hit": false,
      "t": 194285.52,
      "d": 449.40431250000256,
      "v": 102
    },
    {
      "midi": 53,
      "hit": false,
      "t": 194523.615,
      "d": 1892.8552499999932,
      "v": 81
    },
    {
      "midi": 70,
      "hit": false,
      "t": 194761.71,
      "d": 236.11087500001304,
      "v": 75
    },
    {
      "midi": 58,
      "hit": false,
      "t": 194761.71,
      "d": 1657.7364374999888,
      "v": 93
    },
    {
      "midi": 72,
      "hit": false,
      "t": 194999.805,
      "d": 434.52337499998976,
      "v": 97
    },
    {
      "midi": 77,
      "hit": false,
      "t": 195475.995,
      "d": 432.53925000000163,
      "v": 96
    },
    {
      "midi": 74,
      "hit": false,
      "t": 195952.185,
      "d": 1077.3798749999842,
      "v": 84
    },
    {
      "midi": 50,
      "hit": false,
      "t": 196428.37499999997,
      "d": 1434.5223750000005,
      "v": 74
    },
    {
      "midi": 55,
      "hit": false,
      "t": 196666.46999999997,
      "d": 1161.705187500018,
      "v": 93
    },
    {
      "midi": 75,
      "hit": false,
      "t": 197142.65999999997,
      "d": 250.99181249999674,
      "v": 97
    },
    {
      "midi": 74,
      "hit": false,
      "t": 197380.75499999998,
      "d": 211.3093125000014,
      "v": 64
    },
    {
      "midi": 72,
      "hit": false,
      "t": 197618.84999999998,
      "d": 191.46806250000373,
      "v": 75
    },
    {
      "midi": 70,
      "hit": false,
      "t": 197856.94499999998,
      "d": 189.4839374999865,
      "v": 64
    },
    {
      "midi": 72,
      "hit": false,
      "t": 198095.03999999995,
      "d": 429.5630625000049,
      "v": 105
    },
    {
      "midi": 51,
      "hit": false,
      "t": 198333.13499999995,
      "d": 727.1818124999991,
      "v": 67
    },
    {
      "midi": 70,
      "hit": false,
      "t": 198571.22999999995,
      "d": 255.9521250000107,
      "v": 77
    },
    {
      "midi": 56,
      "hit": false,
      "t": 198571.22999999995,
      "d": 533.7296250000072,
      "v": 77
    },
    {
      "midi": 72,
      "hit": false,
      "t": 198809.32499999995,
      "d": 402.7773750000051,
      "v": 92
    },
    {
      "midi": 63,
      "hit": false,
      "t": 198809.32499999995,
      "d": 1563.4905000000144,
      "v": 93
    },
    {
      "midi": 74,
      "hit": false,
      "t": 199285.51499999996,
      "d": 414.6821249999921,
      "v": 84
    },
    {
      "midi": 51,
      "hit": false,
      "t": 199285.51499999996,
      "d": 839.2848750000121,
      "v": 82
    },
    {
      "midi": 56,
      "hit": false,
      "t": 199523.60999999996,
      "d": 246.03150000001187,
      "v": 81
    },
    {
      "midi": 58,
      "hit": false,
      "t": 199761.70499999996,
      "d": 526.7851875000051,
      "v": 93
    },
    {
      "midi": 75,
      "hit": false,
      "t": 199761.70499999996,
      "d": 702.3802500000165,
      "v": 93
    },
    {
      "midi": 51,
      "hit": false,
      "t": 200237.89499999996,
      "d": 1588.292062500026,
      "v": 82
    },
    {
      "midi": 74,
      "hit": false,
      "t": 200475.98999999996,
      "d": 239.08706250000978,
      "v": 74
    },
    {
      "midi": 56,
      "hit": false,
      "t": 200475.98999999996,
      "d": 464.28525000001537,
      "v": 71
    },
    {
      "midi": 72,
      "hit": false,
      "t": 200714.08499999996,
      "d": 462.30112500002724,
      "v": 92
    },
    {
      "midi": 63,
      "hit": false,
      "t": 200714.08499999996,
      "d": 1079.3640000000305,
      "v": 90
    },
    {
      "midi": 56,
      "hit": false,
      "t": 201190.275,
      "d": 601.1898750000109,
      "v": 73
    },
    {
      "midi": 70,
      "hit": false,
      "t": 201190.275,
      "d": 695.4358124999853,
      "v": 84
    },
    {
      "midi": 75,
      "hit": false,
      "t": 201904.55999999997,
      "d": 424.6027499999909,
      "v": 96
    },
    {
      "midi": 48,
      "hit": false,
      "t": 202142.65499999997,
      "d": 732.142125000013,
      "v": 100
    },
    {
      "midi": 74,
      "hit": false,
      "t": 202380.74999999997,
      "d": 268.8489375000063,
      "v": 68
    },
    {
      "midi": 53,
      "hit": false,
      "t": 202380.74999999997,
      "d": 710.3167499999981,
      "v": 97
    },
    {
      "midi": 72,
      "hit": false,
      "t": 202618.84499999997,
      "d": 429.5630625000049,
      "v": 92
    },
    {
      "midi": 70,
      "hit": false,
      "t": 203095.03499999997,
      "d": 457.34081250001327,
      "v": 90
    },
    {
      "midi": 48,
      "hit": false,
      "t": 203095.03499999997,
      "d": 811.5071250000037,
      "v": 86
    },
    {
      "midi": 53,
      "hit": false,
      "t": 203333.12999999998,
      "d": 766.8643124999944,
      "v": 100
    },
    {
      "midi": 65,
      "hit": false,
      "t": 203571.22499999998,
      "d": 821.4277500000026,
      "v": 92
    },
    {
      "midi": 65,
      "hit": false,
      "t": 205714.08000000002,
      "d": 712.3008749999863,
      "v": 1
    },
    {
      "midi": 70,
      "hit": false,
      "t": 205714.08000000002,
      "d": 712.3008749999863,
      "v": 1
    },
    {
      "midi": 74,
      "hit": false,
      "t": 205714.08000000002,
      "d": 712.3008749999863,
      "v": 1
    },
    {
      "midi": 77,
      "hit": false,
      "t": 205714.08000000002,
      "d": 712.3008749999863,
      "v": 1
    },
    {
      "midi": 62,
      "hit": false,
      "t": 205714.08000000022,
      "d": 3557.5361250000133,
      "v": 108
    },
    {
      "midi": 58,
      "hit": false,
      "t": 205714.08000000022,
      "d": 3589.282125000027,
      "v": 84
    },
    {
      "midi": 46,
      "hit": false,
      "t": 205714.08000000022,
      "d": 3592.2583125000237,
      "v": 87
    },
    {
      "midi": 65,
      "hit": false,
      "t": 205714.08000000022,
      "d": 3599.202750000026,
      "v": 96
    },
    {
      "midi": 65,
      "hit": false,
      "t": 206428.365,
      "d": 1664.680874999991,
      "v": 1
    },
    {
      "midi": 70,
      "hit": false,
      "t": 206428.365,
      "d": 1664.680874999991,
      "v": 1
    },
    {
      "midi": 75,
      "hit": false,
      "t": 206428.365,
      "d": 1664.680874999991,
      "v": 1
    },
    {
      "midi": 65,
      "hit": false,
      "t": 208095.02999999997,
      "d": 593.2533750000002,
      "v": 1
    },
    {
      "midi": 70,
      "hit": false,
      "t": 208095.02999999997,
      "d": 593.2533750000002,
      "v": 1
    },
    {
      "midi": 74,
      "hit": false,
      "t": 208095.02999999997,
      "d": 593.2533750000002,
      "v": 1
    },
    {
      "midi": 65,
      "hit": false,
      "t": 209523.59999999998,
      "d": 712.3008749999863,
      "v": 1
    },
    {
      "midi": 70,
      "hit": false,
      "t": 209523.59999999998,
      "d": 712.3008749999863,
      "v": 1
    },
    {
      "midi": 74,
      "hit": false,
      "t": 209523.59999999998,
      "d": 712.3008749999863,
      "v": 1
    },
    {
      "midi": 77,
      "hit": false,
      "t": 209523.59999999998,
      "d": 712.3008749999863,
      "v": 1
    },
    {
      "midi": 58,
      "hit": false,
      "t": 209523.60000000024,
      "d": 1188.4908749999886,
      "v": 74
    },
    {
      "midi": 62,
      "hit": false,
      "t": 209523.60000000024,
      "d": 1649.7999374999781,
      "v": 105
    },
    {
      "midi": 43,
      "hit": false,
      "t": 209523.60000000024,
      "d": 3594.242437500012,
      "v": 97
    },
    {
      "midi": 65,
      "hit": false,
      "t": 209523.60000000024,
      "d": 3594.242437500012,
      "v": 100
    },
    {
      "midi": 65,
      "hit": false,
      "t": 210237.88499999995,
      "d": 1188.4908749999886,
      "v": 1
    },
    {
      "midi": 70,
      "hit": false,
      "t": 210237.88499999995,
      "d": 1188.4908749999886,
      "v": 1
    },
    {
      "midi": 75,
      "hit": false,
      "t": 210237.88499999995,
      "d": 1188.4908749999886,
      "v": 1
    },
    {
      "midi": 60,
      "hit": false,
      "t": 210714.07500000022,
      "d": 497.0233125000086,
      "v": 111
    },
    {
      "midi": 62,
      "hit": false,
      "t": 211190.26500000022,
      "d": 1868.0536875000107,
      "v": 54
    },
    {
      "midi": 58,
      "hit": false,
      "t": 211190.26500000022,
      "d": 1902.7758750000212,
      "v": 87
    },
    {
      "midi": 65,
      "hit": false,
      "t": 211428.35999999993,
      "d": 950.3958749999874,
      "v": 1
    },
    {
      "midi": 70,
      "hit": false,
      "t": 211428.35999999993,
      "d": 950.3958749999874,
      "v": 1
    },
    {
      "midi": 74,
      "hit": false,
      "t": 211428.35999999993,
      "d": 950.3958749999874,
      "v": 1
    },
    {
      "midi": 63,
      "hit": false,
      "t": 213333.1199999999,
      "d": 712.3008749999863,
      "v": 1
    },
    {
      "midi": 68,
      "hit": false,
      "t": 213333.1199999999,
      "d": 712.3008749999863,
      "v": 1
    },
    {
      "midi": 74,
      "hit": false,
      "t": 213333.1199999999,
      "d": 712.3008749999863,
      "v": 1
    },
    {
      "midi": 63,
      "hit": false,
      "t": 213333.12000000026,
      "d": 548.6105624999909,
      "v": 87
    },
    {
      "midi": 60,
      "hit": false,
      "t": 213333.12000000026,
      "d": 1029.7608750000072,
      "v": 100
    },
    {
      "midi": 44,
      "hit": false,
      "t": 213333.12000000026,
      "d": 3666.6630000000296,
      "v": 84
    },
    {
      "midi": 56,
      "hit": false,
      "t": 213333.12000000026,
      "d": 3673.6074375000317,
      "v": 76
    },
    {
      "midi": 63,
      "hit": false,
      "t": 214047.40499999988,
      "d": 1664.680874999991,
      "v": 1
    },
    {
      "midi": 68,
      "hit": false,
      "t": 214047.40499999988,
      "d": 1664.680874999991,
      "v": 1
    },
    {
      "midi": 72,
      "hit": false,
      "t": 214047.40499999988,
      "d": 1664.680874999991,
      "v": 1
    },
    {
      "midi": 63,
      "hit": false,
      "t": 214047.40500000026,
      "d": 2954.362125000014,
      "v": 97
    },
    {
      "midi": 58,
      "hit": false,
      "t": 214523.59500000026,
      "d": 2471.22768750001,
      "v": 100
    },
    {
      "midi": 63,
      "hit": false,
      "t": 215714.06999999986,
      "d": 712.3008749999863,
      "v": 1
    },
    {
      "midi": 68,
      "hit": false,
      "t": 215714.06999999986,
      "d": 712.3008749999863,
      "v": 1
    },
    {
      "midi": 70,
      "hit": false,
      "t": 215714.06999999986,
      "d": 712.3008749999863,
      "v": 1
    },
    {
      "midi": 58,
      "hit": false,
      "t": 217142.64000000028,
      "d": 1742.0617499999935,
      "v": 72
    },
    {
      "midi": 60,
      "hit": false,
      "t": 217142.64000000028,
      "d": 3807.5358749999723,
      "v": 96
    },
    {
      "midi": 65,
      "hit": false,
      "t": 217142.64000000028,
      "d": 3815.472374999983,
      "v": 86
    },
    {
      "midi": 41,
      "hit": false,
      "t": 217142.64000000028,
      "d": 3822.416812499985,
      "v": 90
    },
    {
      "midi": 57,
      "hit": false,
      "t": 219047.40000000026,
      "d": 1952.3790000000154,
      "v": 79
    },
    {
      "midi": 46,
      "hit": false,
      "t": 222754.73756250026,
      "d": 5839.279875000007,
      "v": 98
    },
    {
      "midi": 58,
      "hit": false,
      "t": 222819.22162500027,
      "d": 5757.9307499999995,
      "v": 61
    },
    {
      "midi": 60,
      "hit": false,
      "t": 222891.64218750026,
      "d": 5199.39956250001,
      "v": 100
    },
    {
      "midi": 62,
      "hit": false,
      "t": 223022.59443750026,
      "d": 5060.510812499997,
      "v": 108
    },
    {
      "midi": 65,
      "hit": false,
      "t": 223394.61787500026,
      "d": 5192.455125000008,
      "v": 78
    },
    {
      "midi": 65,
      "hit": false,
      "t": 224761.67999999985,
      "d": 712.3008749999863,
      "v": 1
    },
    {
      "midi": 70,
      "hit": false,
      "t": 224761.67999999985,
      "d": 712.3008749999863,
      "v": 1
    },
    {
      "midi": 74,
      "hit": false,
      "t": 224761.67999999985,
      "d": 712.3008749999863,
      "v": 1
    },
    {
      "midi": 77,
      "hit": false,
      "t": 224761.67999999985,
      "d": 712.3008749999863,
      "v": 1
    },
    {
      "midi": 65,
      "hit": false,
      "t": 225475.96499999982,
      "d": 1664.680874999991,
      "v": 1
    },
    {
      "midi": 70,
      "hit": false,
      "t": 225475.96499999982,
      "d": 1664.680874999991,
      "v": 1
    },
    {
      "midi": 75,
      "hit": false,
      "t": 225475.96499999982,
      "d": 1664.680874999991,
      "v": 1
    },
    {
      "midi": 65,
      "hit": false,
      "t": 227142.6299999998,
      "d": 1426.5858749999898,
      "v": 1
    },
    {
      "midi": 70,
      "hit": false,
      "t": 227142.6299999998,
      "d": 1426.5858749999898,
      "v": 1
    },
    {
      "midi": 74,
      "hit": false,
      "t": 227142.6299999998,
      "d": 1426.5858749999898,
      "v": 1
    }
  ]
}