{
  "jsonPath": "Soundtracks/Video Game Music/Alladin/aladdin-rug-ride-by-gori-fater.json",
  "path": "Soundtracks\\Video Game Music\\Alladin\\Aladdin_-_Rug_Ride_by_Gori_Fater.mid",
  "name": "Aladdin_-_Rug_Ride_by_Gori_Fater",
  "difficulty": "Advanced",
  "bpm": 160,
  "notes": [
    {
      "midi": 57,
      "hit": false,
      "t": 3.6630078125,
      "d": 567.033609375,
      "v": 61
    },
    {
      "midi": 64,
      "hit": false,
      "t": 3.6630078125,
      "d": 567.033609375,
      "v": 61
    },
    {
      "midi": 69,
      "hit": false,
      "t": 3.6630078125,
      "d": 567.033609375,
      "v": 71
    },
    {
      "midi": 45,
      "hit": false,
      "t": 3.6630078125,
      "d": 567.033609375,
      "v": 61
    },
    {
      "midi": 52,
      "hit": false,
      "t": 3.6630078125,
      "d": 567.033609375,
      "v": 71
    },
    {
      "midi": 33,
      "hit": false,
      "t": 386.0810234375,
      "d": 371.42899218749994,
      "v": 62
    },
    {
      "midi": 57,
      "hit": false,
      "t": 571.06291796875,
      "d": 90.47629296875004,
      "v": 44
    },
    {
      "midi": 64,
      "hit": false,
      "t": 571.06291796875,
      "d": 90.47629296875004,
      "v": 44
    },
    {
      "midi": 69,
      "hit": false,
      "t": 571.06291796875,
      "d": 90.47629296875004,
      "v": 54
    },
    {
      "midi": 45,
      "hit": false,
      "t": 571.06291796875,
      "d": 90.47629296875004,
      "v": 44
    },
    {
      "midi": 52,
      "hit": false,
      "t": 571.06291796875,
      "d": 90.47629296875004,
      "v": 54
    },
    {
      "midi": 64,
      "hit": false,
      "t": 661.90551171875,
      "d": 95.60450390624999,
      "v": 44
    },
    {
      "midi": 69,
      "hit": false,
      "t": 661.90551171875,
      "d": 95.60450390624999,
      "v": 58
    },
    {
      "midi": 57,
      "hit": false,
      "t": 661.90551171875,
      "d": 101.09901562499988,
      "v": 44
    },
    {
      "midi": 52,
      "hit": false,
      "t": 661.90551171875,
      "d": 95.60450390624999,
      "v": 50
    },
    {
      "midi": 45,
      "hit": false,
      "t": 661.90551171875,
      "d": 101.09901562499988,
      "v": 55
    },
    {
      "midi": 59,
      "hit": false,
      "t": 757.8763164062499,
      "d": 556.41088671875,
      "v": 59
    },
    {
      "midi": 64,
      "hit": false,
      "t": 757.8763164062499,
      "d": 556.41088671875,
      "v": 59
    },
    {
      "midi": 71,
      "hit": false,
      "t": 757.8763164062499,
      "d": 556.41088671875,
      "v": 73
    },
    {
      "midi": 47,
      "hit": false,
      "t": 757.8763164062499,
      "d": 556.41088671875,
      "v": 70
    },
    {
      "midi": 52,
      "hit": false,
      "t": 757.8763164062499,
      "d": 556.41088671875,
      "v": 65
    },
    {
      "midi": 35,
      "hit": false,
      "t": 1129.671609375,
      "d": 370.3300898437499,
      "v": 63
    },
    {
      "midi": 59,
      "hit": false,
      "t": 1314.6535039062499,
      "d": 90.47629296874993,
      "v": 44
    },
    {
      "midi": 64,
      "hit": false,
      "t": 1314.6535039062499,
      "d": 90.47629296874993,
      "v": 44
    },
    {
      "midi": 71,
      "hit": false,
      "t": 1314.6535039062499,
      "d": 90.47629296874993,
      "v": 54
    },
    {
      "midi": 47,
      "hit": false,
      "t": 1314.6535039062499,
      "d": 90.47629296874993,
      "v": 44
    },
    {
      "midi": 52,
      "hit": false,
      "t": 1314.6535039062499,
      "d": 90.47629296874993,
      "v": 54
    },
    {
      "midi": 64,
      "hit": false,
      "t": 1405.4960976562497,
      "d": 94.50560156250003,
      "v": 44
    },
    {
      "midi": 71,
      "hit": false,
      "t": 1405.4960976562497,
      "d": 94.50560156250003,
      "v": 58
    },
    {
      "midi": 59,
      "hit": false,
      "t": 1405.4960976562497,
      "d": 100.00011328124992,
      "v": 44
    },
    {
      "midi": 52,
      "hit": false,
      "t": 1405.4960976562497,
      "d": 94.50560156250003,
      "v": 50
    },
    {
      "midi": 47,
      "hit": false,
      "t": 1405.4960976562497,
      "d": 100.00011328124992,
      "v": 55
    },
    {
      "midi": 60,
      "hit": false,
      "t": 1501.8332031249997,
      "d": 569.2314140624999,
      "v": 61
    },
    {
      "midi": 64,
      "hit": false,
      "t": 1501.8332031249997,
      "d": 569.2314140624999,
      "v": 61
    },
    {
      "midi": 72,
      "hit": false,
      "t": 1501.8332031249997,
      "d": 569.2314140624999,
      "v": 75
    },
    {
      "midi": 48,
      "hit": false,
      "t": 1501.8332031249997,
      "d": 569.2314140624999,
      "v": 72
    },
    {
      "midi": 52,
      "hit": false,
      "t": 1501.8332031249997,
      "d": 569.2314140624999,
      "v": 67
    },
    {
      "midi": 36,
      "hit": false,
      "t": 1886.4490234374996,
      "d": 371.4289921875004,
      "v": 63
    },
    {
      "midi": 60,
      "hit": false,
      "t": 2071.43091796875,
      "d": 90.47629296874993,
      "v": 44
    },
    {
      "midi": 64,
      "hit": false,
      "t": 2071.43091796875,
      "d": 90.47629296874993,
      "v": 44
    },
    {
      "midi": 72,
      "hit": false,
      "t": 2071.43091796875,
      "d": 90.47629296874993,
      "v": 54
    },
    {
      "midi": 48,
      "hit": false,
      "t": 2071.43091796875,
      "d": 90.47629296874993,
      "v": 44
    },
    {
      "midi": 52,
      "hit": false,
      "t": 2071.43091796875,
      "d": 90.47629296874993,
      "v": 54
    },
    {
      "midi": 72,
      "hit": false,
      "t": 2162.27351171875,
      "d": 95.6045039062501,
      "v": 58
    },
    {
      "midi": 60,
      "hit": false,
      "t": 2162.27351171875,
      "d": 101.09901562500045,
      "v": 44
    },
    {
      "midi": 64,
      "hit": false,
      "t": 2162.27351171875,
      "d": 101.09901562500045,
      "v": 44
    },
    {
      "midi": 52,
      "hit": false,
      "t": 2162.27351171875,
      "d": 95.6045039062501,
      "v": 58
    },
    {
      "midi": 48,
      "hit": false,
      "t": 2162.27351171875,
      "d": 101.09901562500045,
      "v": 44
    },
    {
      "midi": 62,
      "hit": false,
      "t": 2258.24431640625,
      "d": 556.4108867187501,
      "v": 59
    },
    {
      "midi": 65,
      "hit": false,
      "t": 2258.24431640625,
      "d": 556.4108867187501,
      "v": 59
    },
    {
      "midi": 74,
      "hit": false,
      "t": 2258.24431640625,
      "d": 556.4108867187501,
      "v": 73
    },
    {
      "midi": 50,
      "hit": false,
      "t": 2258.24431640625,
      "d": 556.4108867187501,
      "v": 59
    },
    {
      "midi": 53,
      "hit": false,
      "t": 2258.24431640625,
      "d": 556.4108867187501,
      "v": 73
    },
    {
      "midi": 38,
      "hit": false,
      "t": 2630.0396093750005,
      "d": 370.3300898437501,
      "v": 64
    },
    {
      "midi": 62,
      "hit": false,
      "t": 2815.0215039062505,
      "d": 90.47629296874993,
      "v": 44
    },
    {
      "midi": 65,
      "hit": false,
      "t": 2815.0215039062505,
      "d": 90.47629296874993,
      "v": 44
    },
    {
      "midi": 74,
      "hit": false,
      "t": 2815.0215039062505,
      "d": 90.47629296874993,
      "v": 54
    },
    {
      "midi": 50,
      "hit": false,
      "t": 2815.0215039062505,
      "d": 90.47629296874993,
      "v": 44
    },
    {
      "midi": 53,
      "hit": false,
      "t": 2815.0215039062505,
      "d": 90.47629296874993,
      "v": 54
    },
    {
      "midi": 74,
      "hit": false,
      "t": 2905.8640976562506,
      "d": 94.50560156250003,
      "v": 58
    },
    {
      "midi": 62,
      "hit": false,
      "t": 2905.8640976562506,
      "d": 100.00011328124992,
      "v": 44
    },
    {
      "midi": 65,
      "hit": false,
      "t": 2905.8640976562506,
      "d": 100.00011328124992,
      "v": 44
    },
    {
      "midi": 53,
      "hit": false,
      "t": 2905.8640976562506,
      "d": 94.50560156250003,
      "v": 58
    },
    {
      "midi": 50,
      "hit": false,
      "t": 2905.8640976562506,
      "d": 100.00011328124992,
      "v": 44
    },
    {
      "midi": 64,
      "hit": false,
      "t": 3002.2012031250006,
      "d": 569.2314140624999,
      "v": 61
    },
    {
      "midi": 68,
      "hit": false,
      "t": 3002.2012031250006,
      "d": 569.2314140624999,
      "v": 61
    },
    {
      "midi": 76,
      "hit": false,
      "t": 3002.2012031250006,
      "d": 569.2314140624999,
      "v": 75
    },
    {
      "midi": 52,
      "hit": false,
      "t": 3002.2012031250006,
      "d": 569.2314140624999,
      "v": 61
    },
    {
      "midi": 56,
      "hit": false,
      "t": 3002.2012031250006,
      "d": 569.2314140624999,
      "v": 75
    },
    {
      "midi": 40,
      "hit": false,
      "t": 3386.8170234375007,
      "d": 371.42899218750017,
      "v": 64
    },
    {
      "midi": 64,
      "hit": false,
      "t": 3571.7989179687506,
      "d": 90.47629296874993,
      "v": 44
    },
    {
      "midi": 68,
      "hit": false,
      "t": 3571.7989179687506,
      "d": 90.47629296874993,
      "v": 44
    },
    {
      "midi": 76,
      "hit": false,
      "t": 3571.7989179687506,
      "d": 90.47629296874993,
      "v": 54
    },
    {
      "midi": 52,
      "hit": false,
      "t": 3571.7989179687506,
      "d": 90.47629296874993,
      "v": 44
    },
    {
      "midi": 56,
      "hit": false,
      "t": 3571.7989179687506,
      "d": 90.47629296874993,
      "v": 54
    },
    {
      "midi": 76,
      "hit": false,
      "t": 3662.6415117187507,
      "d": 95.6045039062501,
      "v": 58
    },
    {
      "midi": 64,
      "hit": false,
      "t": 3662.6415117187507,
      "d": 101.09901562500045,
      "v": 44
    },
    {
      "midi": 68,
      "hit": false,
      "t": 3662.6415117187507,
      "d": 101.09901562500045,
      "v": 44
    },
    {
      "midi": 56,
      "hit": false,
      "t": 3662.6415117187507,
      "d": 95.6045039062501,
      "v": 58
    },
    {
      "midi": 52,
      "hit": false,
      "t": 3662.6415117187507,
      "d": 101.09901562500045,
      "v": 44
    },
    {
      "midi": 62,
      "hit": false,
      "t": 3758.612316406251,
      "d": 556.4108867187506,
      "v": 59
    },
    {
      "midi": 65,
      "hit": false,
      "t": 3758.612316406251,
      "d": 556.4108867187506,
      "v": 59
    },
    {
      "midi": 69,
      "hit": false,
      "t": 3758.612316406251,
      "d": 556.4108867187506,
      "v": 59
    },
    {
      "midi": 74,
      "hit": false,
      "t": 3758.612316406251,
      "d": 556.4108867187506,
      "v": 73
    },
    {
      "midi": 50,
      "hit": false,
      "t": 3758.612316406251,
      "d": 556.4108867187497,
      "v": 59
    },
    {
      "midi": 53,
      "hit": false,
      "t": 3758.612316406251,
      "d": 556.4108867187497,
      "v": 59
    },
    {
      "midi": 57,
      "hit": false,
      "t": 3758.612316406251,
      "d": 556.4108867187497,
      "v": 73
    },
    {
      "midi": 38,
      "hit": false,
      "t": 4130.407609375001,
      "d": 370.3300898437501,
      "v": 64
    },
    {
      "midi": 50,
      "hit": false,
      "t": 4315.389503906251,
      "d": 90.47629296875039,
      "v": 44
    },
    {
      "midi": 53,
      "hit": false,
      "t": 4315.389503906251,
      "d": 90.47629296875039,
      "v": 44
    },
    {
      "midi": 57,
      "hit": false,
      "t": 4315.389503906251,
      "d": 90.47629296875039,
      "v": 54
    },
    {
      "midi": 62,
      "hit": false,
      "t": 4315.389503906252,
      "d": 90.47629296875039,
      "v": 44
    },
    {
      "midi": 65,
      "hit": false,
      "t": 4315.389503906252,
      "d": 90.47629296875039,
      "v": 44
    },
    {
      "midi": 74,
      "hit": false,
      "t": 4315.389503906252,
      "d": 90.47629296875039,
      "v": 54
    },
    {
      "midi": 57,
      "hit": false,
      "t": 4406.232097656251,
      "d": 94.50560156249958,
      "v": 58
    },
    {
      "midi": 50,
      "hit": false,
      "t": 4406.232097656251,
      "d": 100.00011328124947,
      "v": 44
    },
    {
      "midi": 53,
      "hit": false,
      "t": 4406.232097656251,
      "d": 100.00011328124947,
      "v": 44
    },
    {
      "midi": 74,
      "hit": false,
      "t": 4406.232097656252,
      "d": 94.50560156249958,
      "v": 58
    },
    {
      "midi": 62,
      "hit": false,
      "t": 4406.232097656252,
      "d": 100.00011328124947,
      "v": 44
    },
    {
      "midi": 65,
      "hit": false,
      "t": 4406.232097656252,
      "d": 100.00011328124947,
      "v": 44
    },
    {
      "midi": 48,
      "hit": false,
      "t": 4502.569203125001,
      "d": 569.2314140624994,
      "v": 61
    },
    {
      "midi": 54,
      "hit": false,
      "t": 4502.569203125001,
      "d": 569.2314140624994,
      "v": 75
    },
    {
      "midi": 60,
      "hit": false,
      "t": 4502.569203125002,
      "d": 569.2314140625003,
      "v": 61
    },
    {
      "midi": 66,
      "hit": false,
      "t": 4502.569203125002,
      "d": 569.2314140625003,
      "v": 61
    },
    {
      "midi": 72,
      "hit": false,
      "t": 4502.569203125002,
      "d": 569.2314140625003,
      "v": 75
    },
    {
      "midi": 36,
      "hit": false,
      "t": 4887.185023437501,
      "d": 371.4289921875006,
      "v": 63
    },
    {
      "midi": 48,
      "hit": false,
      "t": 5072.166917968751,
      "d": 90.47629296875039,
      "v": 44
    },
    {
      "midi": 54,
      "hit": false,
      "t": 5072.166917968751,
      "d": 90.47629296875039,
      "v": 54
    },
    {
      "midi": 60,
      "hit": false,
      "t": 5072.166917968752,
      "d": 90.47629296875039,
      "v": 44
    },
    {
      "midi": 66,
      "hit": false,
      "t": 5072.166917968752,
      "d": 90.47629296875039,
      "v": 44
    },
    {
      "midi": 72,
      "hit": false,
      "t": 5072.166917968752,
      "d": 90.47629296875039,
      "v": 54
    },
    {
      "midi": 54,
      "hit": false,
      "t": 5163.009511718751,
      "d": 95.6045039062501,
      "v": 58
    },
    {
      "midi": 48,
      "hit": false,
      "t": 5163.009511718751,
      "d": 101.09901562499999,
      "v": 44
    },
    {
      "midi": 72,
      "hit": false,
      "t": 5163.009511718753,
      "d": 95.6045039062501,
      "v": 58
    },
    {
      "midi": 60,
      "hit": false,
      "t": 5163.009511718753,
      "d": 101.09901562499999,
      "v": 44
    },
    {
      "midi": 66,
      "hit": false,
      "t": 5163.009511718753,
      "d": 101.09901562499999,
      "v": 44
    },
    {
      "midi": 47,
      "hit": false,
      "t": 5258.980316406251,
      "d": 556.4108867187497,
      "v": 59
    },
    {
      "midi": 52,
      "hit": false,
      "t": 5258.980316406251,
      "d": 556.4108867187497,
      "v": 73
    },
    {
      "midi": 59,
      "hit": false,
      "t": 5258.980316406253,
      "d": 556.4108867187497,
      "v": 59
    },
    {
      "midi": 64,
      "hit": false,
      "t": 5258.980316406253,
      "d": 556.4108867187497,
      "v": 59
    },
    {
      "midi": 68,
      "hit": false,
      "t": 5258.980316406253,
      "d": 556.4108867187497,
      "v": 59
    },
    {
      "midi": 71,
      "hit": false,
      "t": 5258.980316406253,
      "d": 556.4108867187497,
      "v": 73
    },
    {
      "midi": 35,
      "hit": false,
      "t": 5630.775609375001,
      "d": 370.3300898437501,
      "v": 63
    },
    {
      "midi": 47,
      "hit": false,
      "t": 5815.757503906251,
      "d": 90.47629296875039,
      "v": 44
    },
    {
      "midi": 52,
      "hit": false,
      "t": 5815.757503906251,
      "d": 90.47629296875039,
      "v": 54
    },
    {
      "midi": 59,
      "hit": false,
      "t": 5815.757503906253,
      "d": 90.47629296875039,
      "v": 44
    },
    {
      "midi": 64,
      "hit": false,
      "t": 5815.757503906253,
      "d": 90.47629296875039,
      "v": 44
    },
    {
      "midi": 71,
      "hit": false,
      "t": 5815.757503906253,
      "d": 90.47629296875039,
      "v": 54
    },
    {
      "midi": 52,
      "hit": false,
      "t": 5906.600097656252,
      "d": 94.50560156249958,
      "v": 58
    },
    {
      "midi": 47,
      "hit": false,
      "t": 5906.600097656252,
      "d": 100.00011328124947,
      "v": 44
    },
    {
      "midi": 64,
      "hit": false,
      "t": 5906.600097656254,
      "d": 94.50560156249958,
      "v": 44
    },
    {
      "midi": 71,
      "hit": false,
      "t": 5906.600097656254,
      "d": 94.50560156249958,
      "v": 58
    },
    {
      "midi": 59,
      "hit": false,
      "t": 5906.600097656254,
      "d": 100.00011328124947,
      "v": 44
    },
    {
      "midi": 45,
      "hit": false,
      "t": 6002.937203125001,
      "d": 569.2314140624994,
      "v": 61
    },
    {
      "midi": 48,
      "hit": false,
      "t": 6002.937203125001,
      "d": 569.2314140624994,
      "v": 61
    },
    {
      "midi": 57,
      "hit": false,
      "t": 6002.937203125001,
      "d": 569.2314140624994,
      "v": 75
    },
    {
      "midi": 60,
      "hit": false,
      "t": 6002.937203125003,
      "d": 569.2314140624994,
      "v": 61
    },
    {
      "midi": 64,
      "hit": false,
      "t": 6002.937203125003,
      "d": 569.2314140624994,
      "v": 61
    },
    {
      "midi": 69,
      "hit": false,
      "t": 6002.937203125003,
      "d": 569.2314140624994,
      "v": 75
    },
    {
      "midi": 33,
      "hit": false,
      "t": 6387.553023437501,
      "d": 371.4289921875006,
      "v": 62
    },
    {
      "midi": 45,
      "hit": false,
      "t": 6572.534917968751,
      "d": 90.47629296875039,
      "v": 44
    },
    {
      "midi": 48,
      "hit": false,
      "t": 6572.534917968751,
      "d": 90.47629296875039,
      "v": 44
    },
    {
      "midi": 57,
      "hit": false,
      "t": 6572.534917968751,
      "d": 90.47629296875039,
      "v": 54
    },
    {
      "midi": 60,
      "hit": false,
      "t": 6572.534917968753,
      "d": 90.47629296875039,
      "v": 44
    },
    {
      "midi": 64,
      "hit": false,
      "t": 6572.534917968753,
      "d": 90.47629296875039,
      "v": 44
    },
    {
      "midi": 69,
      "hit": false,
      "t": 6572.534917968753,
      "d": 90.47629296875039,
      "v": 54
    },
    {
      "midi": 57,
      "hit": false,
      "t": 6663.3775117187515,
      "d": 95.6045039062501,
      "v": 58
    },
    {
      "midi": 45,
      "hit": false,
      "t": 6663.3775117187515,
      "d": 101.09901562499999,
      "v": 44
    },
    {
      "midi": 48,
      "hit": false,
      "t": 6663.3775117187515,
      "d": 101.09901562499999,
      "v": 44
    },
    {
      "midi": 64,
      "hit": false,
      "t": 6663.377511718753,
      "d": 95.6045039062501,
      "v": 44
    },
    {
      "midi": 69,
      "hit": false,
      "t": 6663.377511718753,
      "d": 95.6045039062501,
      "v": 58
    },
    {
      "midi": 60,
      "hit": false,
      "t": 6663.377511718753,
      "d": 101.09901562499999,
      "v": 44
    },
    {
      "midi": 43,
      "hit": false,
      "t": 6759.348316406252,
      "d": 556.4108867187497,
      "v": 59
    },
    {
      "midi": 52,
      "hit": false,
      "t": 6759.348316406252,
      "d": 556.4108867187497,
      "v": 59
    },
    {
      "midi": 55,
      "hit": false,
      "t": 6759.348316406252,
      "d": 556.4108867187497,
      "v": 73
    },
    {
      "midi": 64,
      "hit": false,
      "t": 6759.348316406254,
      "d": 556.4108867187497,
      "v": 59
    },
    {
      "midi": 71,
      "hit": false,
      "t": 6759.348316406254,
      "d": 556.4108867187497,
      "v": 73
    },
    {
      "midi": 31,
      "hit": false,
      "t": 7131.143609375002,
      "d": 370.3300898437501,
      "v": 62
    },
    {
      "midi": 43,
      "hit": false,
      "t": 7316.125503906252,
      "d": 90.47629296875039,
      "v": 44
    },
    {
      "midi": 52,
      "hit": false,
      "t": 7316.125503906252,
      "d": 90.47629296875039,
      "v": 44
    },
    {
      "midi": 55,
      "hit": false,
      "t": 7316.125503906252,
      "d": 90.47629296875039,
      "v": 54
    },
    {
      "midi": 64,
      "hit": false,
      "t": 7316.1255039062535,
      "d": 90.47629296875039,
      "v": 44
    },
    {
      "midi": 71,
      "hit": false,
      "t": 7316.1255039062535,
      "d": 90.47629296875039,
      "v": 54
    },
    {
      "midi": 55,
      "hit": false,
      "t": 7406.968097656252,
      "d": 94.50560156249958,
      "v": 58
    },
    {
      "midi": 43,
      "hit": false,
      "t": 7406.968097656252,
      "d": 100.00011328124947,
      "v": 44
    },
    {
      "midi": 52,
      "hit": false,
      "t": 7406.968097656252,
      "d": 100.00011328124947,
      "v": 44
    },
    {
      "midi": 71,
      "hit": false,
      "t": 7406.968097656254,
      "d": 94.50560156249958,
      "v": 58
    },
    {
      "midi": 64,
      "hit": false,
      "t": 7406.968097656254,
      "d": 100.00011328124947,
      "v": 44
    },
    {
      "midi": 41,
      "hit": false,
      "t": 7503.305203125002,
      "d": 569.2314140624994,
      "v": 61
    },
    {
      "midi": 57,
      "hit": false,
      "t": 7503.305203125002,
      "d": 569.2314140624994,
      "v": 75
    },
    {
      "midi": 65,
      "hit": false,
      "t": 7503.305203125004,
      "d": 569.2314140624994,
      "v": 61
    },
    {
      "midi": 69,
      "hit": false,
      "t": 7503.305203125004,
      "d": 569.2314140624994,
      "v": 61
    },
    {
      "midi": 72,
      "hit": false,
      "t": 7503.305203125004,
      "d": 569.2314140624994,
      "v": 75
    },
    {
      "midi": 29,
      "hit": false,
      "t": 7887.921023437501,
      "d": 371.4289921874997,
      "v": 61
    },
    {
      "midi": 41,
      "hit": false,
      "t": 8072.902917968751,
      "d": 90.47629296875039,
      "v": 44
    },
    {
      "midi": 57,
      "hit": false,
      "t": 8072.902917968751,
      "d": 90.47629296875039,
      "v": 54
    },
    {
      "midi": 65,
      "hit": false,
      "t": 8072.902917968753,
      "d": 90.47629296875039,
      "v": 44
    },
    {
      "midi": 69,
      "hit": false,
      "t": 8072.902917968753,
      "d": 90.47629296875039,
      "v": 44
    },
    {
      "midi": 72,
      "hit": false,
      "t": 8072.902917968753,
      "d": 90.47629296875039,
      "v": 54
    },
    {
      "midi": 57,
      "hit": false,
      "t": 8163.745511718752,
      "d": 95.60450390624919,
      "v": 50
    },
    {
      "midi": 41,
      "hit": false,
      "t": 8163.745511718752,
      "d": 101.09901562499999,
      "v": 55
    },
    {
      "midi": 65,
      "hit": false,
      "t": 8163.745511718754,
      "d": 95.60450390624919,
      "v": 44
    },
    {
      "midi": 69,
      "hit": false,
      "t": 8163.745511718754,
      "d": 95.60450390624919,
      "v": 44
    },
    {
      "midi": 72,
      "hit": false,
      "t": 8163.745511718754,
      "d": 95.60450390624919,
      "v": 58
    },
    {
      "midi": 43,
      "hit": false,
      "t": 8259.716316406251,
      "d": 556.4108867187515,
      "v": 70
    },
    {
      "midi": 57,
      "hit": false,
      "t": 8259.716316406251,
      "d": 556.4108867187515,
      "v": 65
    },
    {
      "midi": 65,
      "hit": false,
      "t": 8259.716316406253,
      "d": 556.4108867187497,
      "v": 59
    },
    {
      "midi": 69,
      "hit": false,
      "t": 8259.716316406253,
      "d": 556.4108867187497,
      "v": 59
    },
    {
      "midi": 74,
      "hit": false,
      "t": 8259.716316406253,
      "d": 556.4108867187497,
      "v": 73
    },
    {
      "midi": 31,
      "hit": false,
      "t": 8631.511609375002,
      "d": 370.3300898437501,
      "v": 62
    },
    {
      "midi": 65,
      "hit": false,
      "t": 8816.493503906253,
      "d": 90.47629296874948,
      "v": 44
    },
    {
      "midi": 69,
      "hit": false,
      "t": 8816.493503906253,
      "d": 90.47629296874948,
      "v": 44
    },
    {
      "midi": 74,
      "hit": false,
      "t": 8816.493503906253,
      "d": 90.47629296874948,
      "v": 54
    },
    {
      "midi": 43,
      "hit": false,
      "t": 8816.493503906253,
      "d": 90.47629296874948,
      "v": 44
    },
    {
      "midi": 57,
      "hit": false,
      "t": 8816.493503906253,
      "d": 90.47629296874948,
      "v": 54
    },
    {
      "midi": 74,
      "hit": false,
      "t": 8907.336097656253,
      "d": 94.50560156249958,
      "v": 58
    },
    {
      "midi": 65,
      "hit": false,
      "t": 8907.336097656253,
      "d": 100.00011328125038,
      "v": 44
    },
    {
      "midi": 69,
      "hit": false,
      "t": 8907.336097656253,
      "d": 100.00011328125038,
      "v": 44
    },
    {
      "midi": 57,
      "hit": false,
      "t": 8907.336097656253,
      "d": 94.50560156249958,
      "v": 58
    },
    {
      "midi": 43,
      "hit": false,
      "t": 8907.336097656253,
      "d": 100.00011328125038,
      "v": 44
    },
    {
      "midi": 68,
      "hit": false,
      "t": 9003.673203125003,
      "d": 198.16872265624988,
      "v": 61
    },
    {
      "midi": 76,
      "hit": false,
      "t": 9003.673203125003,
      "d": 198.16872265624988,
      "v": 75
    },
    {
      "midi": 64,
      "hit": false,
      "t": 9003.673203125003,
      "d": 384.24951953124946,
      "v": 69
    },
    {
      "midi": 40,
      "hit": false,
      "t": 9003.673203125003,
      "d": 198.16872265624988,
      "v": 60
    },
    {
      "midi": 52,
      "hit": false,
      "t": 9003.673203125003,
      "d": 198.16872265624988,
      "v": 75
    },
    {
      "midi": 68,
      "hit": false,
      "t": 9202.208226562503,
      "d": 90.84259374999965,
      "v": 44
    },
    {
      "midi": 76,
      "hit": false,
      "t": 9202.208226562503,
      "d": 90.84259374999965,
      "v": 54
    },
    {
      "midi": 40,
      "hit": false,
      "t": 9202.208226562503,
      "d": 85.34808203125067,
      "v": 63
    },
    {
      "midi": 68,
      "hit": false,
      "t": 9293.417121093753,
      "d": 94.50560156249958,
      "v": 44
    },
    {
      "midi": 76,
      "hit": false,
      "t": 9293.417121093753,
      "d": 94.50560156249958,
      "v": 54
    },
    {
      "midi": 52,
      "hit": false,
      "t": 9293.417121093753,
      "d": 89.0110898437506,
      "v": 64
    },
    {
      "midi": 68,
      "hit": false,
      "t": 9388.289023437503,
      "d": 184.6155937500007,
      "v": 57
    },
    {
      "midi": 76,
      "hit": false,
      "t": 9388.289023437503,
      "d": 184.6155937500007,
      "v": 67
    },
    {
      "midi": 64,
      "hit": false,
      "t": 9388.289023437503,
      "d": 371.4289921875006,
      "v": 65
    },
    {
      "midi": 40,
      "hit": false,
      "t": 9388.289023437503,
      "d": 184.6155937500007,
      "v": 64
    },
    {
      "midi": 68,
      "hit": false,
      "t": 9573.270917968754,
      "d": 90.47629296874948,
      "v": 44
    },
    {
      "midi": 76,
      "hit": false,
      "t": 9573.270917968754,
      "d": 90.47629296874948,
      "v": 54
    },
    {
      "midi": 40,
      "hit": false,
      "t": 9573.270917968754,
      "d": 84.9817812500005,
      "v": 63
    },
    {
      "midi": 68,
      "hit": false,
      "t": 9664.113511718753,
      "d": 95.6045039062501,
      "v": 44
    },
    {
      "midi": 76,
      "hit": false,
      "t": 9664.113511718753,
      "d": 95.6045039062501,
      "v": 54
    },
    {
      "midi": 52,
      "hit": false,
      "t": 9664.113511718753,
      "d": 90.1099921874993,
      "v": 64
    },
    {
      "midi": 40,
      "hit": false,
      "t": 9760.084316406252,
      "d": 186.44709765624975,
      "v": 66
    },
    {
      "midi": 68,
      "hit": false,
      "t": 9760.084316406253,
      "d": 186.44709765624975,
      "v": 59
    },
    {
      "midi": 76,
      "hit": false,
      "t": 9760.084316406253,
      "d": 186.44709765624975,
      "v": 69
    },
    {
      "midi": 62,
      "hit": false,
      "t": 9760.084316406253,
      "d": 371.4289921874988,
      "v": 67
    },
    {
      "midi": 40,
      "hit": false,
      "t": 9946.897714843752,
      "d": 84.9817812500005,
      "v": 63
    },
    {
      "midi": 68,
      "hit": false,
      "t": 9946.897714843753,
      "d": 90.47629296874948,
      "v": 44
    },
    {
      "midi": 76,
      "hit": false,
      "t": 9946.897714843753,
      "d": 90.47629296874948,
      "v": 54
    },
    {
      "midi": 52,
      "hit": false,
      "t": 10037.740308593751,
      "d": 88.27848828125025,
      "v": 64
    },
    {
      "midi": 68,
      "hit": false,
      "t": 10037.740308593753,
      "d": 93.77299999999923,
      "v": 44
    },
    {
      "midi": 76,
      "hit": false,
      "t": 10037.740308593753,
      "d": 93.77299999999923,
      "v": 54
    },
    {
      "midi": 40,
      "hit": false,
      "t": 10131.879609375,
      "d": 184.6155937500007,
      "v": 64
    },
    {
      "midi": 68,
      "hit": false,
      "t": 10131.879609375002,
      "d": 184.6155937500007,
      "v": 57
    },
    {
      "midi": 76,
      "hit": false,
      "t": 10131.879609375002,
      "d": 184.6155937500007,
      "v": 67
    },
    {
      "midi": 62,
      "hit": false,
      "t": 10131.879609375002,
      "d": 370.3300898437501,
      "v": 65
    },
    {
      "midi": 40,
      "hit": false,
      "t": 10316.861503906252,
      "d": 84.9817812500005,
      "v": 63
    },
    {
      "midi": 68,
      "hit": false,
      "t": 10316.861503906253,
      "d": 90.47629296874948,
      "v": 44
    },
    {
      "midi": 76,
      "hit": false,
      "t": 10316.861503906253,
      "d": 90.47629296874948,
      "v": 54
    },
    {
      "midi": 52,
      "hit": false,
      "t": 10407.704097656251,
      "d": 94.50560156249958,
      "v": 64
    },
    {
      "midi": 76,
      "hit": false,
      "t": 10407.704097656253,
      "d": 94.50560156249958,
      "v": 50
    },
    {
      "midi": 68,
      "hit": false,
      "t": 10407.704097656253,
      "d": 100.00011328125038,
      "v": 55
    },
    {
      "midi": 52,
      "hit": false,
      "t": 10504.041203125002,
      "d": 198.16872265624988,
      "v": 69
    },
    {
      "midi": 60,
      "hit": false,
      "t": 10504.041203125002,
      "d": 384.24951953124946,
      "v": 69
    },
    {
      "midi": 64,
      "hit": false,
      "t": 10504.041203125003,
      "d": 198.16872265624988,
      "v": 72
    },
    {
      "midi": 69,
      "hit": false,
      "t": 10504.041203125003,
      "d": 198.16872265624988,
      "v": 72
    },
    {
      "midi": 76,
      "hit": false,
      "t": 10504.041203125003,
      "d": 198.16872265624988,
      "v": 67
    },
    {
      "midi": 52,
      "hit": false,
      "t": 10702.576226562502,
      "d": 90.84259374999965,
      "v": 52
    },
    {
      "midi": 64,
      "hit": false,
      "t": 10702.576226562504,
      "d": 90.84259374999965,
      "v": 44
    },
    {
      "midi": 69,
      "hit": false,
      "t": 10702.576226562504,
      "d": 90.84259374999965,
      "v": 44
    },
    {
      "midi": 76,
      "hit": false,
      "t": 10702.576226562504,
      "d": 90.84259374999965,
      "v": 54
    },
    {
      "midi": 52,
      "hit": false,
      "t": 10793.785121093752,
      "d": 100.00011328125038,
      "v": 52
    },
    {
      "midi": 76,
      "hit": false,
      "t": 10793.785121093753,
      "d": 94.50560156249958,
      "v": 58
    },
    {
      "midi": 64,
      "hit": false,
      "t": 10793.785121093753,
      "d": 100.00011328125038,
      "v": 44
    },
    {
      "midi": 69,
      "hit": false,
      "t": 10793.785121093753,
      "d": 100.00011328125038,
      "v": 44
    },
    {
      "midi": 50,
      "hit": false,
      "t": 10888.657023437501,
      "d": 184.6155937500007,
      "v": 65
    },
    {
      "midi": 60,
      "hit": false,
      "t": 10888.657023437501,
      "d": 371.4289921875006,
      "v": 65
    },
    {
      "midi": 65,
      "hit": false,
      "t": 10888.657023437503,
      "d": 184.6155937500007,
      "v": 57
    },
    {
      "midi": 70,
      "hit": false,
      "t": 10888.657023437503,
      "d": 184.6155937500007,
      "v": 57
    },
    {
      "midi": 77,
      "hit": false,
      "t": 10888.657023437503,
      "d": 184.6155937500007,
      "v": 71
    },
    {
      "midi": 50,
      "hit": false,
      "t": 11073.638917968752,
      "d": 90.47629296874948,
      "v": 52
    },
    {
      "midi": 65,
      "hit": false,
      "t": 11073.638917968754,
      "d": 90.47629296874948,
      "v": 44
    },
    {
      "midi": 70,
      "hit": false,
      "t": 11073.638917968754,
      "d": 90.47629296874948,
      "v": 44
    },
    {
      "midi": 77,
      "hit": false,
      "t": 11073.638917968754,
      "d": 90.47629296874948,
      "v": 54
    },
    {
      "midi": 50,
      "hit": false,
      "t": 11164.481511718752,
      "d": 101.0990156250009,
      "v": 52
    },
    {
      "midi": 77,
      "hit": false,
      "t": 11164.481511718754,
      "d": 95.6045039062501,
      "v": 58
    },
    {
      "midi": 65,
      "hit": false,
      "t": 11164.481511718754,
      "d": 101.0990156250009,
      "v": 44
    },
    {
      "midi": 70,
      "hit": false,
      "t": 11164.481511718754,
      "d": 101.0990156250009,
      "v": 44
    },
    {
      "midi": 48,
      "hit": false,
      "t": 11260.452316406252,
      "d": 186.44709765624975,
      "v": 67
    },
    {
      "midi": 59,
      "hit": false,
      "t": 11260.452316406252,
      "d": 371.4289921874988,
      "v": 67
    },
    {
      "midi": 66,
      "hit": false,
      "t": 11260.452316406254,
      "d": 186.44709765624975,
      "v": 59
    },
    {
      "midi": 71,
      "hit": false,
      "t": 11260.452316406254,
      "d": 186.44709765624975,
      "v": 59
    },
    {
      "midi": 78,
      "hit": false,
      "t": 11260.452316406254,
      "d": 186.44709765624975,
      "v": 73
    },
    {
      "midi": 48,
      "hit": false,
      "t": 11447.265714843752,
      "d": 90.47629296874948,
      "v": 52
    },
    {
      "midi": 66,
      "hit": false,
      "t": 11447.265714843754,
      "d": 90.47629296874948,
      "v": 44
    },
    {
      "midi": 71,
      "hit": false,
      "t": 11447.265714843754,
      "d": 90.47629296874948,
      "v": 44
    },
    {
      "midi": 78,
      "hit": false,
      "t": 11447.265714843754,
      "d": 90.47629296874948,
      "v": 54
    },
    {
      "midi": 48,
      "hit": false,
      "t": 11538.108308593752,
      "d": 99.26751171875003,
      "v": 52
    },
    {
      "midi": 78,
      "hit": false,
      "t": 11538.108308593753,
      "d": 93.77299999999923,
      "v": 58
    },
    {
      "midi": 66,
      "hit": false,
      "t": 11538.108308593753,
      "d": 99.26751171875003,
      "v": 44
    },
    {
      "midi": 71,
      "hit": false,
      "t": 11538.108308593753,
      "d": 99.26751171875003,
      "v": 44
    },
    {
      "midi": 47,
      "hit": false,
      "t": 11632.247609375001,
      "d": 184.6155937500007,
      "v": 65
    },
    {
      "midi": 59,
      "hit": false,
      "t": 11632.247609375001,
      "d": 370.3300898437501,
      "v": 65
    },
    {
      "midi": 68,
      "hit": false,
      "t": 11632.247609375003,
      "d": 184.6155937500007,
      "v": 57
    },
    {
      "midi": 72,
      "hit": false,
      "t": 11632.247609375003,
      "d": 184.6155937500007,
      "v": 57
    },
    {
      "midi": 80,
      "hit": false,
      "t": 11632.247609375003,
      "d": 184.6155937500007,
      "v": 71
    },
    {
      "midi": 47,
      "hit": false,
      "t": 11817.229503906252,
      "d": 90.47629296874948,
      "v": 52
    },
    {
      "midi": 68,
      "hit": false,
      "t": 11817.229503906254,
      "d": 90.47629296874948,
      "v": 56
    },
    {
      "midi": 72,
      "hit": false,
      "t": 11817.229503906254,
      "d": 90.47629296874948,
      "v": 56
    },
    {
      "midi": 80,
      "hit": false,
      "t": 11817.229503906254,
      "d": 90.47629296874948,
      "v": 66
    },
    {
      "midi": 47,
      "hit": false,
      "t": 11908.072097656252,
      "d": 100.00011328125038,
      "v": 52
    },
    {
      "midi": 68,
      "hit": false,
      "t": 11908.072097656253,
      "d": 89.0110898437506,
      "v": 56
    },
    {
      "midi": 72,
      "hit": false,
      "t": 11908.072097656253,
      "d": 89.0110898437506,
      "v": 56
    },
    {
      "midi": 80,
      "hit": false,
      "t": 11908.072097656253,
      "d": 94.5056015625014,
      "v": 66
    },
    {
      "midi": 57,
      "hit": false,
      "t": 12004.409203125002,
      "d": 2998.9044960937536,
      "v": 66
    },
    {
      "midi": 69,
      "hit": false,
      "t": 12004.409203125006,
      "d": 101.46531640624926,
      "v": 69
    },
    {
      "midi": 81,
      "hit": false,
      "t": 12004.409203125006,
      "d": 1498.5364960937422,
      "v": 70
    },
    {
      "midi": 68,
      "hit": false,
      "t": 12111.735332031254,
      "d": 85.34808203125067,
      "v": 64
    },
    {
      "midi": 69,
      "hit": false,
      "t": 12202.944226562504,
      "d": 85.34808203125067,
      "v": 64
    },
    {
      "midi": 71,
      "hit": false,
      "t": 12294.153121093754,
      "d": 89.0110898437506,
      "v": 64
    },
    {
      "midi": 33,
      "hit": false,
      "t": 12389.025023437502,
      "d": 371.4289921875006,
      "v": 54
    },
    {
      "midi": 45,
      "hit": false,
      "t": 12389.025023437502,
      "d": 371.4289921875006,
      "v": 67
    },
    {
      "midi": 72,
      "hit": false,
      "t": 12389.025023437503,
      "d": 88.64478906250042,
      "v": 65
    },
    {
      "midi": 71,
      "hit": false,
      "t": 12483.530625000003,
      "d": 84.61548046875032,
      "v": 64
    },
    {
      "midi": 72,
      "hit": false,
      "t": 12574.006917968753,
      "d": 84.9817812500005,
      "v": 64
    },
    {
      "midi": 74,
      "hit": false,
      "t": 12664.849511718752,
      "d": 90.1099921874993,
      "v": 64
    },
    {
      "midi": 76,
      "hit": false,
      "t": 12760.82031640625,
      "d": 90.47629296874948,
      "v": 67
    },
    {
      "midi": 33,
      "hit": false,
      "t": 12760.820316406252,
      "d": 371.4289921875006,
      "v": 56
    },
    {
      "midi": 45,
      "hit": false,
      "t": 12760.820316406252,
      "d": 371.4289921875006,
      "v": 69
    },
    {
      "midi": 74,
      "hit": false,
      "t": 12857.157421875,
      "d": 84.61548046875032,
      "v": 64
    },
    {
      "midi": 72,
      "hit": false,
      "t": 12947.633714843749,
      "d": 84.9817812500005,
      "v": 64
    },
    {
      "midi": 77,
      "hit": false,
      "t": 13038.476308593748,
      "d": 88.27848828125025,
      "v": 64
    },
    {
      "midi": 76,
      "hit": false,
      "t": 13132.615609374998,
      "d": 88.27848828125025,
      "v": 65
    },
    {
      "midi": 33,
      "hit": false,
      "t": 13132.615609375003,
      "d": 370.3300898437501,
      "v": 54
    },
    {
      "midi": 45,
      "hit": false,
      "t": 13132.615609375003,
      "d": 370.6963906250003,
      "v": 67
    },
    {
      "midi": 74,
      "hit": false,
      "t": 13226.754910156247,
      "d": 84.9817812500005,
      "v": 64
    },
    {
      "midi": 72,
      "hit": false,
      "t": 13317.597503906247,
      "d": 84.9817812500005,
      "v": 64
    },
    {
      "midi": 71,
      "hit": false,
      "t": 13408.440097656247,
      "d": 89.0110898437506,
      "v": 64
    },
    {
      "midi": 69,
      "hit": false,
      "t": 13504.777203124999,
      "d": 101.46531640624926,
      "v": 69
    },
    {
      "midi": 33,
      "hit": false,
      "t": 13504.777203125004,
      "d": 384.24951953124946,
      "v": 66
    },
    {
      "midi": 71,
      "hit": false,
      "t": 13612.103332031247,
      "d": 85.34808203125067,
      "v": 64
    },
    {
      "midi": 72,
      "hit": false,
      "t": 13703.312226562497,
      "d": 85.34808203125067,
      "v": 64
    },
    {
      "midi": 71,
      "hit": false,
      "t": 13794.521121093747,
      "d": 89.0110898437506,
      "v": 64
    },
    {
      "midi": 69,
      "hit": false,
      "t": 13889.393023437497,
      "d": 88.64478906250042,
      "v": 65
    },
    {
      "midi": 33,
      "hit": false,
      "t": 13889.393023437504,
      "d": 371.4289921875006,
      "v": 54
    },
    {
      "midi": 45,
      "hit": false,
      "t": 13889.393023437504,
      "d": 371.4289921875006,
      "v": 67
    },
    {
      "midi": 67,
      "hit": false,
      "t": 13983.898624999996,
      "d": 84.61548046875032,
      "v": 64
    },
    {
      "midi": 65,
      "hit": false,
      "t": 14074.374917968746,
      "d": 84.9817812500005,
      "v": 64
    },
    {
      "midi": 67,
      "hit": false,
      "t": 14165.217511718745,
      "d": 90.1099921874993,
      "v": 64
    },
    {
      "midi": 69,
      "hit": false,
      "t": 14261.188316406244,
      "d": 90.47629296874948,
      "v": 67
    },
    {
      "midi": 33,
      "hit": false,
      "t": 14261.188316406255,
      "d": 371.4289921875006,
      "v": 56
    },
    {
      "midi": 45,
      "hit": false,
      "t": 14261.188316406255,
      "d": 371.4289921875006,
      "v": 69
    },
    {
      "midi": 68,
      "hit": false,
      "t": 14357.525421874992,
      "d": 84.61548046875032,
      "v": 64
    },
    {
      "midi": 69,
      "hit": false,
      "t": 14448.001714843742,
      "d": 84.9817812500005,
      "v": 64
    },
    {
      "midi": 71,
      "hit": false,
      "t": 14538.844308593742,
      "d": 88.27848828125025,
      "v": 64
    },
    {
      "midi": 72,
      "hit": false,
      "t": 14632.983609374991,
      "d": 88.27848828125025,
      "v": 65
    },
    {
      "midi": 45,
      "hit": false,
      "t": 14632.983609375005,
      "d": 370.3300898437501,
      "v": 71
    },
    {
      "midi": 33,
      "hit": false,
      "t": 14632.983609375005,
      "d": 370.3300898437501,
      "v": 54
    },
    {
      "midi": 71,
      "hit": false,
      "t": 14727.12291015624,
      "d": 84.9817812500005,
      "v": 64
    },
    {
      "midi": 76,
      "hit": false,
      "t": 14817.96550390624,
      "d": 84.9817812500005,
      "v": 56
    },
    {
      "midi": 72,
      "hit": false,
      "t": 14817.96550390624,
      "d": 90.4762929687513,
      "v": 56
    },
    {
      "midi": 81,
      "hit": false,
      "t": 14817.96550390624,
      "d": 90.4762929687513,
      "v": 66
    },
    {
      "midi": 72,
      "hit": false,
      "t": 14908.808097656241,
      "d": 89.0110898437506,
      "v": 56
    },
    {
      "midi": 74,
      "hit": false,
      "t": 14908.808097656241,
      "d": 89.0110898437506,
      "v": 67
    },
    {
      "midi": 76,
      "hit": false,
      "t": 14908.808097656241,
      "d": 94.5056015625014,
      "v": 56
    },
    {
      "midi": 81,
      "hit": false,
      "t": 14908.808097656241,
      "d": 94.5056015625014,
      "v": 62
    },
    {
      "midi": 76,
      "hit": false,
      "t": 15005.145203124994,
      "d": 101.46531640624926,
      "v": 69
    },
    {
      "midi": 83,
      "hit": false,
      "t": 15005.145203124994,
      "d": 1498.5364960937368,
      "v": 64
    },
    {
      "midi": 44,
      "hit": false,
      "t": 15005.145203125006,
      "d": 2998.904496093748,
      "v": 56
    },
    {
      "midi": 56,
      "hit": false,
      "t": 15005.145203125006,
      "d": 2998.904496093748,
      "v": 70
    },
    {
      "midi": 78,
      "hit": false,
      "t": 15112.471332031242,
      "d": 85.34808203125067,
      "v": 64
    },
    {
      "midi": 80,
      "hit": false,
      "t": 15203.680226562492,
      "d": 85.34808203125067,
      "v": 64
    },
    {
      "midi": 78,
      "hit": false,
      "t": 15294.889121093742,
      "d": 89.0110898437506,
      "v": 64
    },
    {
      "midi": 76,
      "hit": false,
      "t": 15389.761023437492,
      "d": 88.64478906250042,
      "v": 65
    },
    {
      "midi": 40,
      "hit": false,
      "t": 15389.761023437506,
      "d": 371.4289921875006,
      "v": 56
    },
    {
      "midi": 52,
      "hit": false,
      "t": 15389.761023437506,
      "d": 371.4289921875006,
      "v": 71
    },
    {
      "midi": 74,
      "hit": false,
      "t": 15484.266624999991,
      "d": 84.61548046875032,
      "v": 64
    },
    {
      "midi": 72,
      "hit": false,
      "t": 15574.74291796874,
      "d": 84.9817812500005,
      "v": 64
    },
    {
      "midi": 71,
      "hit": false,
      "t": 15665.58551171874,
      "d": 90.1099921874993,
      "v": 64
    },
    {
      "midi": 72,
      "hit": false,
      "t": 15761.556316406239,
      "d": 90.47629296874948,
      "v": 67
    },
    {
      "midi": 40,
      "hit": false,
      "t": 15761.556316406257,
      "d": 371.4289921875006,
      "v": 58
    },
    {
      "midi": 52,
      "hit": false,
      "t": 15761.556316406257,
      "d": 371.4289921875006,
      "v": 69
    },
    {
      "midi": 74,
      "hit": false,
      "t": 15857.893421874987,
      "d": 84.61548046875032,
      "v": 64
    },
    {
      "midi": 76,
      "hit": false,
      "t": 15948.369714843737,
      "d": 84.9817812500005,
      "v": 64
    },
    {
      "midi": 74,
      "hit": false,
      "t": 16039.212308593736,
      "d": 88.27848828125025,
      "v": 64
    },
    {
      "midi": 72,
      "hit": false,
      "t": 16133.351609374986,
      "d": 88.27848828125025,
      "v": 65
    },
    {
      "midi": 40,
      "hit": false,
      "t": 16133.351609375008,
      "d": 370.3300898437483,
      "v": 56
    },
    {
      "midi": 52,
      "hit": false,
      "t": 16133.351609375008,
      "d": 370.3300898437483,
      "v": 67
    },
    {
      "midi": 71,
      "hit": false,
      "t": 16227.490910156235,
      "d": 84.9817812500005,
      "v": 64
    },
    {
      "midi": 69,
      "hit": false,
      "t": 16318.333503906235,
      "d": 84.98178124999868,
      "v": 64
    },
    {
      "midi": 71,
      "hit": false,
      "t": 16409.176097656233,
      "d": 89.01108984374878,
      "v": 64
    },
    {
      "midi": 69,
      "hit": false,
      "t": 16505.51320312498,
      "d": 101.46531640625108,
      "v": 69
    },
    {
      "midi": 40,
      "hit": false,
      "t": 16505.513203125007,
      "d": 384.2495195312513,
      "v": 68
    },
    {
      "midi": 72,
      "hit": false,
      "t": 16612.83933203123,
      "d": 85.34808203125067,
      "v": 64
    },
    {
      "midi": 74,
      "hit": false,
      "t": 16704.04822656248,
      "d": 85.34808203125067,
      "v": 64
    },
    {
      "midi": 72,
      "hit": false,
      "t": 16795.25712109373,
      "d": 89.01108984374878,
      "v": 64
    },
    {
      "midi": 71,
      "hit": false,
      "t": 16890.12902343748,
      "d": 88.6447890624986,
      "v": 65
    },
    {
      "midi": 40,
      "hit": false,
      "t": 16890.12902343751,
      "d": 371.4289921874988,
      "v": 56
    },
    {
      "midi": 52,
      "hit": false,
      "t": 16890.12902343751,
      "d": 371.4289921874988,
      "v": 67
    },
    {
      "midi": 69,
      "hit": false,
      "t": 16984.634624999977,
      "d": 84.61548046875032,
      "v": 64
    },
    {
      "midi": 68,
      "hit": false,
      "t": 17075.110917968726,
      "d": 84.9817812500005,
      "v": 64
    },
    {
      "midi": 65,
      "hit": false,
      "t": 17165.953511718726,
      "d": 90.1099921874993,
      "v": 64
    },
    {
      "midi": 64,
      "hit": false,
      "t": 17261.924316406225,
      "d": 90.47629296874948,
      "v": 67
    },
    {
      "midi": 40,
      "hit": false,
      "t": 17261.924316406257,
      "d": 371.4289921874988,
      "v": 58
    },
    {
      "midi": 52,
      "hit": false,
      "t": 17261.924316406257,
      "d": 371.4289921874988,
      "v": 69
    },
    {
      "midi": 65,
      "hit": false,
      "t": 17358.261421874973,
      "d": 84.61548046875032,
      "v": 64
    },
    {
      "midi": 68,
      "hit": false,
      "t": 17448.737714843723,
      "d": 84.9817812500005,
      "v": 64
    },
    {
      "midi": 69,
      "hit": false,
      "t": 17539.580308593722,
      "d": 88.27848828124843,
      "v": 64
    },
    {
      "midi": 72,
      "hit": false,
      "t": 17633.71960937497,
      "d": 88.27848828124843,
      "v": 65
    },
    {
      "midi": 40,
      "hit": false,
      "t": 17633.719609375006,
      "d": 370.3300898437483,
      "v": 56
    },
    {
      "midi": 52,
      "hit": false,
      "t": 17633.719609375006,
      "d": 370.3300898437483,
      "v": 67
    },
    {
      "midi": 76,
      "hit": false,
      "t": 17727.858910156217,
      "d": 84.9817812500005,
      "v": 64
    },
    {
      "midi": 74,
      "hit": false,
      "t": 17818.701503906217,
      "d": 84.9817812500005,
      "v": 64
    },
    {
      "midi": 72,
      "hit": false,
      "t": 17909.544097656217,
      "d": 480.5866249999963,
      "v": 64
    },
    {
      "midi": 81,
      "hit": false,
      "t": 18005.881203124965,
      "d": 101.46531640625108,
      "v": 69
    },
    {
      "midi": 45,
      "hit": false,
      "t": 18005.881203125005,
      "d": 384.2495195312513,
      "v": 61
    },
    {
      "midi": 57,
      "hit": false,
      "t": 18005.881203125005,
      "d": 384.2495195312513,
      "v": 75
    },
    {
      "midi": 80,
      "hit": false,
      "t": 18113.207332031216,
      "d": 85.34808203125067,
      "v": 64
    },
    {
      "midi": 81,
      "hit": false,
      "t": 18204.416226562465,
      "d": 85.34808203125067,
      "v": 64
    },
    {
      "midi": 83,
      "hit": false,
      "t": 18295.625121093715,
      "d": 89.01108984374878,
      "v": 64
    },
    {
      "midi": 84,
      "hit": false,
      "t": 18390.497023437463,
      "d": 88.6447890624986,
      "v": 65
    },
    {
      "midi": 45,
      "hit": false,
      "t": 18390.497023437507,
      "d": 371.4289921874988,
      "v": 57
    },
    {
      "midi": 59,
      "hit": false,
      "t": 18390.497023437507,
      "d": 371.4289921874988,
      "v": 71
    },
    {
      "midi": 83,
      "hit": false,
      "t": 18485.00262499996,
      "d": 84.61548046875032,
      "v": 64
    },
    {
      "midi": 84,
      "hit": false,
      "t": 18575.47891796871,
      "d": 84.9817812500005,
      "v": 64
    },
    {
      "midi": 86,
      "hit": false,
      "t": 18666.32151171871,
      "d": 90.1099921874993,
      "v": 64
    },
    {
      "midi": 45,
      "hit": false,
      "t": 18762.292316406256,
      "d": 371.4289921874988,
      "v": 59
    },
    {
      "midi": 60,
      "hit": false,
      "t": 18762.292316406256,
      "d": 371.4289921874988,
      "v": 73
    },
    {
      "midi": 69,
      "hit": false,
      "t": 18949.10571484371,
      "d": 72.16125390625166,
      "v": 64
    },
    {
      "midi": 72,
      "hit": false,
      "t": 19134.08760937496,
      "d": 72.16125390625166,
      "v": 65
    },
    {
      "midi": 57,
      "hit": false,
      "t": 19134.087609375005,
      "d": 370.3300898437483,
      "v": 57
    },
    {
      "midi": 64,
      "hit": false,
      "t": 19134.087609375005,
      "d": 370.3300898437483,
      "v": 71
    },
    {
      "midi": 76,
      "hit": false,
      "t": 19319.069503906212,
      "d": 72.89385546874837,
      "v": 64
    },
    {
      "midi": 81,
      "hit": false,
      "t": 19506.24920312496,
      "d": 101.46531640625108,
      "v": 69
    },
    {
      "midi": 51,
      "hit": false,
      "t": 19506.249203125004,
      "d": 756.0448124999966,
      "v": 61
    },
    {
      "midi": 57,
      "hit": false,
      "t": 19506.249203125004,
      "d": 756.0448124999966,
      "v": 61
    },
    {
      "midi": 63,
      "hit": false,
      "t": 19506.249203125004,
      "d": 756.0448124999966,
      "v": 75
    },
    {
      "midi": 83,
      "hit": false,
      "t": 19613.57533203121,
      "d": 85.34808203125067,
      "v": 64
    },
    {
      "midi": 84,
      "hit": false,
      "t": 19704.78422656246,
      "d": 85.34808203125067,
      "v": 64
    },
    {
      "midi": 69,
      "hit": false,
      "t": 19704.784226562504,
      "d": 73.26015624999854,
      "v": 52
    },
    {
      "midi": 86,
      "hit": false,
      "t": 19795.99312109371,
      "d": 89.01108984374878,
      "v": 64
    },
    {
      "midi": 87,
      "hit": false,
      "t": 19890.865023437458,
      "d": 371.4289921874988,
      "v": 65
    },
    {
      "midi": 72,
      "hit": false,
      "t": 19890.8650234375,
      "d": 72.16125390625166,
      "v": 53
    },
    {
      "midi": 75,
      "hit": false,
      "t": 20075.846917968753,
      "d": 73.9927578124989,
      "v": 52
    },
    {
      "midi": 80,
      "hit": false,
      "t": 20262.660316406207,
      "d": 90.47629296874948,
      "v": 67
    },
    {
      "midi": 50,
      "hit": false,
      "t": 20262.66031640625,
      "d": 742.1253828125009,
      "v": 59
    },
    {
      "midi": 57,
      "hit": false,
      "t": 20262.66031640625,
      "d": 742.1253828125009,
      "v": 59
    },
    {
      "midi": 62,
      "hit": false,
      "t": 20262.66031640625,
      "d": 742.1253828125009,
      "v": 73
    },
    {
      "midi": 81,
      "hit": false,
      "t": 20358.997421874956,
      "d": 84.61548046875032,
      "v": 64
    },
    {
      "midi": 83,
      "hit": false,
      "t": 20449.473714843705,
      "d": 84.9817812500005,
      "v": 64
    },
    {
      "midi": 68,
      "hit": false,
      "t": 20449.473714843753,
      "d": 72.16125390625166,
      "v": 52
    },
    {
      "midi": 84,
      "hit": false,
      "t": 20540.316308593705,
      "d": 88.27848828124843,
      "v": 64
    },
    {
      "midi": 86,
      "hit": false,
      "t": 20634.455609374952,
      "d": 370.3300898437483,
      "v": 65
    },
    {
      "midi": 71,
      "hit": false,
      "t": 20634.455609375003,
      "d": 72.16125390625166,
      "v": 53
    },
    {
      "midi": 74,
      "hit": false,
      "t": 20819.437503906254,
      "d": 72.89385546874837,
      "v": 52
    },
    {
      "midi": 81,
      "hit": false,
      "t": 21006.61720312495,
      "d": 101.46531640625108,
      "v": 69
    },
    {
      "midi": 48,
      "hit": false,
      "t": 21006.617203125003,
      "d": 756.0448124999966,
      "v": 61
    },
    {
      "midi": 60,
      "hit": false,
      "t": 21006.617203125003,
      "d": 756.0448124999966,
      "v": 75
    },
    {
      "midi": 83,
      "hit": false,
      "t": 21113.943332031202,
      "d": 85.34808203125067,
      "v": 64
    },
    {
      "midi": 84,
      "hit": false,
      "t": 21205.15222656245,
      "d": 85.34808203125067,
      "v": 64
    },
    {
      "midi": 64,
      "hit": false,
      "t": 21205.152226562503,
      "d": 73.26015624999854,
      "v": 64
    },
    {
      "midi": 86,
      "hit": false,
      "t": 21296.3611210937,
      "d": 89.01108984374878,
      "v": 64
    },
    {
      "midi": 88,
      "hit": false,
      "t": 21391.23302343745,
      "d": 88.6447890624986,
      "v": 65
    },
    {
      "midi": 57,
      "hit": false,
      "t": 21391.2330234375,
      "d": 72.16125390625166,
      "v": 57
    },
    {
      "midi": 69,
      "hit": false,
      "t": 21391.2330234375,
      "d": 72.16125390625166,
      "v": 71
    },
    {
      "midi": 89,
      "hit": false,
      "t": 21485.738624999947,
      "d": 84.61548046875032,
      "v": 64
    },
    {
      "midi": 88,
      "hit": false,
      "t": 21576.214917968697,
      "d": 84.9817812500005,
      "v": 64
    },
    {
      "midi": 72,
      "hit": false,
      "t": 21576.21491796875,
      "d": 73.9927578124989,
      "v": 64
    },
    {
      "midi": 86,
      "hit": false,
      "t": 21667.057511718696,
      "d": 90.1099921874993,
      "v": 64
    },
    {
      "midi": 84,
      "hit": false,
      "t": 21763.028316406195,
      "d": 90.47629296874948,
      "v": 67
    },
    {
      "midi": 47,
      "hit": false,
      "t": 21763.02831640625,
      "d": 742.1253828125009,
      "v": 59
    },
    {
      "midi": 55,
      "hit": false,
      "t": 21763.02831640625,
      "d": 742.1253828125009,
      "v": 59
    },
    {
      "midi": 59,
      "hit": false,
      "t": 21763.02831640625,
      "d": 742.1253828125009,
      "v": 73
    },
    {
      "midi": 83,
      "hit": false,
      "t": 21859.365421874943,
      "d": 84.61548046875032,
      "v": 64
    },
    {
      "midi": 81,
      "hit": false,
      "t": 21949.841714843693,
      "d": 84.9817812500005,
      "v": 64
    },
    {
      "midi": 64,
      "hit": false,
      "t": 21949.84171484375,
      "d": 72.16125390625166,
      "v": 64
    },
    {
      "midi": 84,
      "hit": false,
      "t": 22040.684308593693,
      "d": 88.27848828124843,
      "v": 64
    },
    {
      "midi": 83,
      "hit": false,
      "t": 22134.82360937494,
      "d": 88.27848828124843,
      "v": 65
    },
    {
      "midi": 57,
      "hit": false,
      "t": 22134.823609375002,
      "d": 72.16125390625166,
      "v": 57
    },
    {
      "midi": 68,
      "hit": false,
      "t": 22134.823609375002,
      "d": 72.16125390625166,
      "v": 71
    },
    {
      "midi": 81,
      "hit": false,
      "t": 22228.962910156188,
      "d": 84.9817812500005,
      "v": 64
    },
    {
      "midi": 80,
      "hit": false,
      "t": 22319.805503906187,
      "d": 84.9817812500005,
      "v": 64
    },
    {
      "midi": 71,
      "hit": false,
      "t": 22319.805503906253,
      "d": 72.89385546874837,
      "v": 64
    },
    {
      "midi": 83,
      "hit": false,
      "t": 22410.648097656187,
      "d": 89.01108984374878,
      "v": 64
    },
    {
      "midi": 81,
      "hit": false,
      "t": 22506.985203124936,
      "d": 101.46531640625108,
      "v": 69
    },
    {
      "midi": 45,
      "hit": false,
      "t": 22506.985203125,
      "d": 1127.8401054687456,
      "v": 56
    },
    {
      "midi": 53,
      "hit": false,
      "t": 22506.985203125,
      "d": 1127.8401054687456,
      "v": 56
    },
    {
      "midi": 83,
      "hit": false,
      "t": 22614.311332031186,
      "d": 85.34808203125067,
      "v": 64
    },
    {
      "midi": 84,
      "hit": false,
      "t": 22705.520226562436,
      "d": 85.34808203125067,
      "v": 64
    },
    {
      "midi": 64,
      "hit": false,
      "t": 22705.5202265625,
      "d": 73.26015624999854,
      "v": 64
    },
    {
      "midi": 86,
      "hit": false,
      "t": 22796.729121093686,
      "d": 89.01108984374878,
      "v": 64
    },
    {
      "midi": 84,
      "hit": false,
      "t": 22891.601023437433,
      "d": 88.6447890624986,
      "v": 65
    },
    {
      "midi": 57,
      "hit": false,
      "t": 22891.6010234375,
      "d": 72.16125390625166,
      "v": 57
    },
    {
      "midi": 69,
      "hit": false,
      "t": 22891.6010234375,
      "d": 72.16125390625166,
      "v": 71
    },
    {
      "midi": 83,
      "hit": false,
      "t": 22986.10662499993,
      "d": 84.61548046875032,
      "v": 64
    },
    {
      "midi": 81,
      "hit": false,
      "t": 23076.58291796868,
      "d": 84.9817812500005,
      "v": 64
    },
    {
      "midi": 71,
      "hit": false,
      "t": 23076.58291796875,
      "d": 73.9927578124989,
      "v": 64
    },
    {
      "midi": 80,
      "hit": false,
      "t": 23167.42551171868,
      "d": 90.1099921874993,
      "v": 64
    },
    {
      "midi": 81,
      "hit": false,
      "t": 23263.39631640618,
      "d": 90.47629296874948,
      "v": 67
    },
    {
      "midi": 57,
      "hit": false,
      "t": 23263.396316406248,
      "d": 73.9927578124989,
      "v": 59
    },
    {
      "midi": 72,
      "hit": false,
      "t": 23263.396316406248,
      "d": 73.9927578124989,
      "v": 73
    },
    {
      "midi": 80,
      "hit": false,
      "t": 23359.733421874927,
      "d": 84.61548046875032,
      "v": 64
    },
    {
      "midi": 81,
      "hit": false,
      "t": 23450.209714843677,
      "d": 84.9817812500005,
      "v": 64
    },
    {
      "midi": 71,
      "hit": false,
      "t": 23450.209714843746,
      "d": 72.16125390625166,
      "v": 64
    },
    {
      "midi": 83,
      "hit": false,
      "t": 23541.052308593677,
      "d": 88.27848828124843,
      "v": 64
    },
    {
      "midi": 84,
      "hit": false,
      "t": 23635.191609374924,
      "d": 88.27848828124843,
      "v": 65
    },
    {
      "midi": 69,
      "hit": false,
      "t": 23635.191609374997,
      "d": 72.16125390625166,
      "v": 65
    },
    {
      "midi": 59,
      "hit": false,
      "t": 23635.191609374997,
      "d": 173.62657031250274,
      "v": 65
    },
    {
      "midi": 83,
      "hit": false,
      "t": 23729.33091015617,
      "d": 84.9817812500005,
      "v": 64
    },
    {
      "midi": 84,
      "hit": false,
      "t": 23820.17350390617,
      "d": 84.9817812500005,
      "v": 64
    },
    {
      "midi": 64,
      "hit": false,
      "t": 23820.17350390625,
      "d": 72.89385546874837,
      "v": 64
    },
    {
      "midi": 60,
      "hit": false,
      "t": 23820.17350390625,
      "d": 174.35917187499945,
      "v": 64
    },
    {
      "midi": 86,
      "hit": false,
      "t": 23911.01609765617,
      "d": 89.01108984374878,
      "v": 64
    },
    {
      "midi": 74,
      "hit": false,
      "t": 24007.35320312492,
      "d": 101.46531640625108,
      "v": 69
    },
    {
      "midi": 86,
      "hit": false,
      "t": 24007.35320312492,
      "d": 384.24951953124764,
      "v": 69
    },
    {
      "midi": 50,
      "hit": false,
      "t": 24007.353203125,
      "d": 384.2495195312513,
      "v": 61
    },
    {
      "midi": 62,
      "hit": false,
      "t": 24007.353203125,
      "d": 384.2495195312513,
      "v": 75
    },
    {
      "midi": 73,
      "hit": false,
      "t": 24114.67933203117,
      "d": 85.34808203125067,
      "v": 64
    },
    {
      "midi": 74,
      "hit": false,
      "t": 24205.88822656242,
      "d": 85.34808203125067,
      "v": 64
    },
    {
      "midi": 76,
      "hit": false,
      "t": 24297.09712109367,
      "d": 89.01108984374878,
      "v": 64
    },
    {
      "midi": 77,
      "hit": false,
      "t": 24391.969023437417,
      "d": 88.6447890624986,
      "v": 65
    },
    {
      "midi": 50,
      "hit": false,
      "t": 24391.9690234375,
      "d": 371.4289921874988,
      "v": 57
    },
    {
      "midi": 64,
      "hit": false,
      "t": 24391.9690234375,
      "d": 371.4289921874988,
      "v": 71
    },
    {
      "midi": 76,
      "hit": false,
      "t": 24486.474624999915,
      "d": 84.61548046875032,
      "v": 64
    },
    {
      "midi": 77,
      "hit": false,
      "t": 24576.950917968665,
      "d": 84.9817812500005,
      "v": 64
    },
    {
      "midi": 79,
      "hit": false,
      "t": 24667.793511718664,
      "d": 90.1099921874993,
      "v": 64
    },
    {
      "midi": 81,
      "hit": false,
      "t": 24763.764316406163,
      "d": 90.47629296874948,
      "v": 67
    },
    {
      "midi": 50,
      "hit": false,
      "t": 24763.76431640625,
      "d": 371.4289921874988,
      "v": 59
    },
    {
      "midi": 65,
      "hit": false,
      "t": 24763.76431640625,
      "d": 371.4289921874988,
      "v": 73
    },
    {
      "midi": 79,
      "hit": false,
      "t": 24860.10142187491,
      "d": 84.61548046875032,
      "v": 64
    },
    {
      "midi": 77,
      "hit": false,
      "t": 24950.57771484366,
      "d": 84.9817812500005,
      "v": 64
    },
    {
      "midi": 76,
      "hit": false,
      "t": 25041.42030859366,
      "d": 88.27848828124843,
      "v": 64
    },
    {
      "midi": 74,
      "hit": false,
      "t": 25135.559609374908,
      "d": 88.27848828124843,
      "v": 65
    },
    {
      "midi": 62,
      "hit": false,
      "t": 25135.559609375,
      "d": 370.3300898437483,
      "v": 57
    },
    {
      "midi": 69,
      "hit": false,
      "t": 25135.559609375,
      "d": 370.3300898437483,
      "v": 71
    },
    {
      "midi": 72,
      "hit": false,
      "t": 25229.698910156156,
      "d": 84.9817812500005,
      "v": 64
    },
    {
      "midi": 71,
      "hit": false,
      "t": 25320.541503906155,
      "d": 84.9817812500005,
      "v": 64
    },
    {
      "midi": 69,
      "hit": false,
      "t": 25411.384097656155,
      "d": 89.01108984374878,
      "v": 64
    },
    {
      "midi": 68,
      "hit": false,
      "t": 25507.721203124904,
      "d": 101.46531640625108,
      "v": 69
    },
    {
      "midi": 64,
      "hit": false,
      "t": 25507.721203125,
      "d": 384.2495195312513,
      "v": 69
    },
    {
      "midi": 56,
      "hit": false,
      "t": 25507.721203125,
      "d": 756.0448125000003,
      "v": 69
    },
    {
      "midi": 69,
      "hit": false,
      "t": 25615.047332031154,
      "d": 85.34808203125067,
      "v": 64
    },
    {
      "midi": 71,
      "hit": false,
      "t": 25706.256226562404,
      "d": 85.34808203125067,
      "v": 64
    },
    {
      "midi": 72,
      "hit": false,
      "t": 25797.465121093654,
      "d": 89.01108984374878,
      "v": 64
    },
    {
      "midi": 74,
      "hit": false,
      "t": 25892.3370234374,
      "d": 88.6447890624986,
      "v": 65
    },
    {
      "midi": 53,
      "hit": false,
      "t": 25892.3370234375,
      "d": 371.4289921874988,
      "v": 65
    },
    {
      "midi": 64,
      "hit": false,
      "t": 25892.3370234375,
      "d": 371.4289921874988,
      "v": 65
    },
    {
      "midi": 76,
      "hit": false,
      "t": 25986.8426249999,
      "d": 84.61548046875032,
      "v": 64
    },
    {
      "midi": 77,
      "hit": false,
      "t": 26077.31891796865,
      "d": 84.9817812500005,
      "v": 64
    },
    {
      "midi": 79,
      "hit": false,
      "t": 26168.16151171865,
      "d": 90.1099921874993,
      "v": 64
    },
    {
      "midi": 77,
      "hit": false,
      "t": 26264.132316406147,
      "d": 90.47629296874948,
      "v": 67
    },
    {
      "midi": 52,
      "hit": false,
      "t": 26264.13231640625,
      "d": 371.4289921874988,
      "v": 67
    },
    {
      "midi": 64,
      "hit": false,
      "t": 26264.13231640625,
      "d": 371.4289921874988,
      "v": 67
    },
    {
      "midi": 59,
      "hit": false,
      "t": 26264.13231640625,
      "d": 742.1253828124973,
      "v": 67
    },
    {
      "midi": 76,
      "hit": false,
      "t": 26360.469421874895,
      "d": 84.61548046875032,
      "v": 64
    },
    {
      "midi": 74,
      "hit": false,
      "t": 26450.945714843645,
      "d": 84.9817812500005,
      "v": 64
    },
    {
      "midi": 72,
      "hit": false,
      "t": 26541.788308593645,
      "d": 88.27848828124843,
      "v": 64
    },
    {
      "midi": 71,
      "hit": false,
      "t": 26635.927609374892,
      "d": 88.27848828124843,
      "v": 65
    },
    {
      "midi": 50,
      "hit": false,
      "t": 26635.927609374998,
      "d": 370.3300898437483,
      "v": 65
    },
    {
      "midi": 64,
      "hit": false,
      "t": 26635.927609374998,
      "d": 370.3300898437483,
      "v": 65
    },
    {
      "midi": 69,
      "hit": false,
      "t": 26730.06691015614,
      "d": 84.9817812500005,
      "v": 64
    },
    {
      "midi": 68,
      "hit": false,
      "t": 26820.90950390614,
      "d": 84.9817812500005,
      "v": 64
    },
    {
      "midi": 69,
      "hit": false,
      "t": 26911.75209765614,
      "d": 94.5056015625014,
      "v": 64
    },
    {
      "midi": 60,
      "hit": false,
      "t": 27008.08920312489,
      "d": 187.17969921874828,
      "v": 72
    },
    {
      "midi": 69,
      "hit": false,
      "t": 27008.08920312489,
      "d": 198.16872265624988,
      "v": 67
    },
    {
      "midi": 45,
      "hit": false,
      "t": 27008.089203124997,
      "d": 384.2495195312513,
      "v": 69
    },
    {
      "midi": 52,
      "hit": false,
      "t": 27008.089203124997,
      "d": 2256.412812499999,
      "v": 64
    },
    {
      "midi": 64,
      "hit": false,
      "t": 27206.62422656239,
      "d": 174.72547265624962,
      "v": 56
    },
    {
      "midi": 69,
      "hit": false,
      "t": 27206.62422656239,
      "d": 185.71449609375122,
      "v": 70
    },
    {
      "midi": 69,
      "hit": false,
      "t": 27392.705023437393,
      "d": 173.6265703124991,
      "v": 57
    },
    {
      "midi": 81,
      "hit": false,
      "t": 27392.705023437393,
      "d": 184.6155937500007,
      "v": 71
    },
    {
      "midi": 45,
      "hit": false,
      "t": 27392.7050234375,
      "d": 371.4289921874988,
      "v": 65
    },
    {
      "midi": 72,
      "hit": false,
      "t": 27577.686917968644,
      "d": 175.45807421874997,
      "v": 56
    },
    {
      "midi": 81,
      "hit": false,
      "t": 27577.686917968644,
      "d": 186.44709765625157,
      "v": 70
    },
    {
      "midi": 71,
      "hit": false,
      "t": 27764.500316406145,
      "d": 175.45807421874997,
      "v": 59
    },
    {
      "midi": 83,
      "hit": false,
      "t": 27764.500316406145,
      "d": 186.44709765625157,
      "v": 73
    },
    {
      "midi": 47,
      "hit": false,
      "t": 27764.500316406247,
      "d": 371.4289921874988,
      "v": 67
    },
    {
      "midi": 74,
      "hit": false,
      "t": 27951.313714843647,
      "d": 173.6265703124991,
      "v": 67
    },
    {
      "midi": 83,
      "hit": false,
      "t": 27951.313714843647,
      "d": 184.6155937500007,
      "v": 62
    },
    {
      "midi": 72,
      "hit": false,
      "t": 28136.295609374898,
      "d": 173.6265703124991,
      "v": 68
    },
    {
      "midi": 83,
      "hit": false,
      "t": 28136.295609374898,
      "d": 184.6155937500007,
      "v": 63
    },
    {
      "midi": 47,
      "hit": false,
      "t": 28136.295609374996,
      "d": 370.3300898437483,
      "v": 65
    },
    {
      "midi": 71,
      "hit": false,
      "t": 28321.27750390615,
      "d": 174.35917187499945,
      "v": 67
    },
    {
      "midi": 83,
      "hit": false,
      "t": 28321.27750390615,
      "d": 185.34819531250105,
      "v": 62
    },
    {
      "midi": 84,
      "hit": false,
      "t": 28508.4572031249,
      "d": 198.16872265624988,
      "v": 69
    },
    {
      "midi": 69,
      "hit": false,
      "t": 28508.4572031249,
      "d": 384.2495195312513,
      "v": 69
    },
    {
      "midi": 48,
      "hit": false,
      "t": 28508.457203124995,
      "d": 384.2495195312513,
      "v": 69
    },
    {
      "midi": 84,
      "hit": false,
      "t": 28706.9922265624,
      "d": 174.72547265624962,
      "v": 64
    },
    {
      "midi": 83,
      "hit": false,
      "t": 28893.073023437402,
      "d": 184.6155937500007,
      "v": 65
    },
    {
      "midi": 67,
      "hit": false,
      "t": 28893.073023437402,
      "d": 371.42899218750244,
      "v": 65
    },
    {
      "midi": 48,
      "hit": false,
      "t": 28893.073023437497,
      "d": 371.4289921874988,
      "v": 65
    },
    {
      "midi": 83,
      "hit": false,
      "t": 29078.054917968653,
      "d": 175.45807421874997,
      "v": 64
    },
    {
      "midi": 81,
      "hit": false,
      "t": 29264.868316406155,
      "d": 186.44709765625157,
      "v": 67
    },
    {
      "midi": 65,
      "hit": false,
      "t": 29264.868316406155,
      "d": 371.42899218750244,
      "v": 67
    },
    {
      "midi": 45,
      "hit": false,
      "t": 29264.868316406246,
      "d": 371.4289921874988,
      "v": 67
    },
    {
      "midi": 50,
      "hit": false,
      "t": 29264.868316406246,
      "d": 371.4289921874988,
      "v": 67
    },
    {
      "midi": 81,
      "hit": false,
      "t": 29451.681714843657,
      "d": 173.6265703124991,
      "v": 64
    },
    {
      "midi": 79,
      "hit": false,
      "t": 29636.663609374908,
      "d": 184.6155937500007,
      "v": 65
    },
    {
      "midi": 64,
      "hit": false,
      "t": 29636.663609374908,
      "d": 370.3300898437519,
      "v": 65
    },
    {
      "midi": 45,
      "hit": false,
      "t": 29636.663609374995,
      "d": 370.3300898437483,
      "v": 65
    },
    {
      "midi": 52,
      "hit": false,
      "t": 29636.663609374995,
      "d": 370.3300898437483,
      "v": 65
    },
    {
      "midi": 79,
      "hit": false,
      "t": 29821.64550390616,
      "d": 174.35917187499945,
      "v": 64
    },
    {
      "midi": 65,
      "hit": false,
      "t": 30008.82520312491,
      "d": 384.2495195312513,
      "v": 61
    },
    {
      "midi": 77,
      "hit": false,
      "t": 30008.82520312491,
      "d": 384.2495195312513,
      "v": 75
    },
    {
      "midi": 62,
      "hit": false,
      "t": 30008.82520312491,
      "d": 473.26060937500006,
      "v": 61
    },
    {
      "midi": 38,
      "hit": false,
      "t": 30008.825203124994,
      "d": 384.2495195312513,
      "v": 68
    },
    {
      "midi": 53,
      "hit": false,
      "t": 30008.825203124994,
      "d": 756.0448125000003,
      "v": 69
    },
    {
      "midi": 38,
      "hit": false,
      "t": 30393.441023437495,
      "d": 371.4289921874988,
      "v": 64
    },
    {
      "midi": 64,
      "hit": false,
      "t": 30487.94662499991,
      "d": 84.61548046875032,
      "v": 64
    },
    {
      "midi": 65,
      "hit": false,
      "t": 30578.42291796866,
      "d": 84.9817812500005,
      "v": 64
    },
    {
      "midi": 67,
      "hit": false,
      "t": 30669.26551171866,
      "d": 90.1099921874993,
      "v": 64
    },
    {
      "midi": 69,
      "hit": false,
      "t": 30765.236316406157,
      "d": 742.1253828125009,
      "v": 67
    },
    {
      "midi": 50,
      "hit": false,
      "t": 30765.236316406244,
      "d": 371.4289921874988,
      "v": 67
    },
    {
      "midi": 57,
      "hit": false,
      "t": 30765.236316406244,
      "d": 742.1253828124973,
      "v": 67
    },
    {
      "midi": 50,
      "hit": false,
      "t": 31137.031609374993,
      "d": 370.3300898437483,
      "v": 65
    },
    {
      "midi": 76,
      "hit": false,
      "t": 31509.19320312491,
      "d": 384.2495195312513,
      "v": 75
    },
    {
      "midi": 64,
      "hit": false,
      "t": 31509.19320312491,
      "d": 473.26060937500006,
      "v": 61
    },
    {
      "midi": 40,
      "hit": false,
      "t": 31509.193203124993,
      "d": 384.2495195312513,
      "v": 68
    },
    {
      "midi": 56,
      "hit": false,
      "t": 31509.193203124993,
      "d": 756.0448125000003,
      "v": 69
    },
    {
      "midi": 40,
      "hit": false,
      "t": 31893.809023437494,
      "d": 371.4289921874988,
      "v": 64
    },
    {
      "midi": 65,
      "hit": false,
      "t": 31988.314624999908,
      "d": 84.61548046875032,
      "v": 64
    },
    {
      "midi": 67,
      "hit": false,
      "t": 32078.790917968658,
      "d": 84.9817812500005,
      "v": 64
    },
    {
      "midi": 69,
      "hit": false,
      "t": 32169.633511718657,
      "d": 90.1099921874993,
      "v": 64
    },
    {
      "midi": 71,
      "hit": false,
      "t": 32265.604316406156,
      "d": 742.1253828124973,
      "v": 67
    },
    {
      "midi": 52,
      "hit": false,
      "t": 32265.604316406243,
      "d": 371.4289921874988,
      "v": 67
    },
    {
      "midi": 59,
      "hit": false,
      "t": 32265.604316406243,
      "d": 742.1253828124973,
      "v": 67
    },
    {
      "midi": 52,
      "hit": false,
      "t": 32637.399609374992,
      "d": 370.3300898437483,
      "v": 65
    },
    {
      "midi": 69,
      "hit": false,
      "t": 33009.561203124904,
      "d": 85.7143828124972,
      "v": 61
    },
    {
      "midi": 81,
      "hit": false,
      "t": 33009.561203124904,
      "d": 85.7143828124972,
      "v": 75
    },
    {
      "midi": 57,
      "hit": false,
      "t": 33009.56120312499,
      "d": 384.2495195312513,
      "v": 69
    },
    {
      "midi": 64,
      "hit": false,
      "t": 33009.56120312499,
      "d": 756.0448125000039,
      "v": 69
    },
    {
      "midi": 88,
      "hit": false,
      "t": 33208.096226562404,
      "d": 174.72547265625326,
      "v": 64
    },
    {
      "midi": 89,
      "hit": false,
      "t": 33394.177023437405,
      "d": 173.62657031250274,
      "v": 65
    },
    {
      "midi": 45,
      "hit": false,
      "t": 33394.17702343749,
      "d": 371.42899218750244,
      "v": 65
    },
    {
      "midi": 88,
      "hit": false,
      "t": 33579.158917968656,
      "d": 175.4580742187536,
      "v": 64
    },
    {
      "midi": 67,
      "hit": false,
      "t": 33765.97231640616,
      "d": 73.9927578124989,
      "v": 59
    },
    {
      "midi": 79,
      "hit": false,
      "t": 33765.97231640616,
      "d": 73.9927578124989,
      "v": 73
    },
    {
      "midi": 55,
      "hit": false,
      "t": 33765.972316406245,
      "d": 371.42899218750244,
      "v": 67
    },
    {
      "midi": 62,
      "hit": false,
      "t": 33765.972316406245,
      "d": 742.1253828125045,
      "v": 67
    },
    {
      "midi": 88,
      "hit": false,
      "t": 33952.78571484366,
      "d": 173.62657031250274,
      "v": 64
    },
    {
      "midi": 89,
      "hit": false,
      "t": 34137.76760937491,
      "d": 173.62657031250274,
      "v": 65
    },
    {
      "midi": 43,
      "hit": false,
      "t": 34137.767609375,
      "d": 370.3300898437519,
      "v": 65
    },
    {
      "midi": 88,
      "hit": false,
      "t": 34322.74950390616,
      "d": 174.35917187500309,
      "v": 64
    },
    {
      "midi": 65,
      "hit": false,
      "t": 34509.92920312491,
      "d": 85.7143828124972,
      "v": 61
    },
    {
      "midi": 77,
      "hit": false,
      "t": 34509.92920312491,
      "d": 85.7143828124972,
      "v": 75
    },
    {
      "midi": 53,
      "hit": false,
      "t": 34509.929203125,
      "d": 384.2495195312513,
      "v": 69
    },
    {
      "midi": 60,
      "hit": false,
      "t": 34509.929203125,
      "d": 756.0448125000039,
      "v": 69
    },
    {
      "midi": 88,
      "hit": false,
      "t": 34708.46422656241,
      "d": 174.72547265625326,
      "v": 64
    },
    {
      "midi": 89,
      "hit": false,
      "t": 34894.545023437415,
      "d": 173.62657031250274,
      "v": 65
    },
    {
      "midi": 41,
      "hit": false,
      "t": 34894.5450234375,
      "d": 371.42899218750244,
      "v": 65
    },
    {
      "midi": 88,
      "hit": false,
      "t": 35079.526917968666,
      "d": 175.4580742187536,
      "v": 64
    },
    {
      "midi": 64,
      "hit": false,
      "t": 35266.34031640617,
      "d": 73.9927578124989,
      "v": 59
    },
    {
      "midi": 76,
      "hit": false,
      "t": 35266.34031640617,
      "d": 73.9927578124989,
      "v": 73
    },
    {
      "midi": 52,
      "hit": false,
      "t": 35266.340316406255,
      "d": 371.42899218750244,
      "v": 67
    },
    {
      "midi": 59,
      "hit": false,
      "t": 35266.340316406255,
      "d": 742.1253828125045,
      "v": 67
    },
    {
      "midi": 88,
      "hit": false,
      "t": 35453.15371484367,
      "d": 173.62657031250274,
      "v": 64
    },
    {
      "midi": 89,
      "hit": false,
      "t": 35638.13560937492,
      "d": 173.62657031250274,
      "v": 65
    },
    {
      "midi": 40,
      "hit": false,
      "t": 35638.13560937501,
      "d": 370.3300898437519,
      "v": 64
    },
    {
      "midi": 88,
      "hit": false,
      "t": 35823.11750390617,
      "d": 174.35917187500309,
      "v": 64
    },
    {
      "midi": 75,
      "hit": false,
      "t": 36010.29720312492,
      "d": 85.7143828124972,
      "v": 69
    },
    {
      "midi": 53,
      "hit": false,
      "t": 36010.29720312501,
      "d": 384.2495195312513,
      "v": 61
    },
    {
      "midi": 63,
      "hit": false,
      "t": 36010.29720312501,
      "d": 384.2495195312513,
      "v": 75
    },
    {
      "midi": 87,
      "hit": false,
      "t": 36208.83222656242,
      "d": 73.26015624999854,
      "v": 64
    },
    {
      "midi": 74,
      "hit": false,
      "t": 36394.913023437424,
      "d": 72.16125390624802,
      "v": 65
    },
    {
      "midi": 53,
      "hit": false,
      "t": 36394.91302343751,
      "d": 371.42899218750244,
      "v": 57
    },
    {
      "midi": 62,
      "hit": false,
      "t": 36394.91302343751,
      "d": 371.42899218750244,
      "v": 71
    },
    {
      "midi": 86,
      "hit": false,
      "t": 36579.894917968675,
      "d": 73.9927578124989,
      "v": 64
    },
    {
      "midi": 72,
      "hit": false,
      "t": 36766.70831640618,
      "d": 73.9927578124989,
      "v": 67
    },
    {
      "midi": 52,
      "hit": false,
      "t": 36766.708316406264,
      "d": 371.42899218750244,
      "v": 59
    },
    {
      "midi": 60,
      "hit": false,
      "t": 36766.708316406264,
      "d": 371.42899218750244,
      "v": 73
    },
    {
      "midi": 84,
      "hit": false,
      "t": 36953.52171484368,
      "d": 72.16125390624802,
      "v": 64
    },
    {
      "midi": 71,
      "hit": false,
      "t": 37138.50360937493,
      "d": 72.16125390624802,
      "v": 65
    },
    {
      "midi": 52,
      "hit": false,
      "t": 37138.50360937502,
      "d": 370.3300898437519,
      "v": 57
    },
    {
      "midi": 59,
      "hit": false,
      "t": 37138.50360937502,
      "d": 370.3300898437519,
      "v": 71
    },
    {
      "midi": 83,
      "hit": false,
      "t": 37323.48550390618,
      "d": 72.89385546874837,
      "v": 64
    },
    {
      "midi": 69,
      "hit": false,
      "t": 37510.66520312493,
      "d": 85.7143828124972,
      "v": 69
    },
    {
      "midi": 50,
      "hit": false,
      "t": 37510.66520312502,
      "d": 384.2495195312513,
      "v": 61
    },
    {
      "midi": 57,
      "hit": false,
      "t": 37510.66520312502,
      "d": 384.2495195312513,
      "v": 75
    },
    {
      "midi": 81,
      "hit": false,
      "t": 37709.20022656243,
      "d": 73.26015624999854,
      "v": 64
    },
    {
      "midi": 67,
      "hit": false,
      "t": 37895.281023437434,
      "d": 72.16125390624802,
      "v": 65
    },
    {
      "midi": 50,
      "hit": false,
      "t": 37895.28102343752,
      "d": 371.42899218750244,
      "v": 57
    },
    {
      "midi": 60,
      "hit": false,
      "t": 37895.28102343752,
      "d": 371.42899218750244,
      "v": 71
    },
    {
      "midi": 79,
      "hit": false,
      "t": 38080.262917968685,
      "d": 73.9927578124989,
      "v": 64
    },
    {
      "midi": 53,
      "hit": false,
      "t": 38267.076316406274,
      "d": 371.42899218750244,
      "v": 67
    },
    {
      "midi": 65,
      "hit": false,
      "t": 38267.076316406274,
      "d": 556.4108867187533,
      "v": 67
    },
    {
      "midi": 77,
      "hit": false,
      "t": 38453.88971484368,
      "d": 72.16125390624802,
      "v": 64
    },
    {
      "midi": 64,
      "hit": false,
      "t": 38638.87160937493,
      "d": 72.16125390624802,
      "v": 65
    },
    {
      "midi": 57,
      "hit": false,
      "t": 38638.871609375026,
      "d": 88.27848828124843,
      "v": 65
    },
    {
      "midi": 53,
      "hit": false,
      "t": 38638.871609375026,
      "d": 370.3300898437592,
      "v": 65
    },
    {
      "midi": 59,
      "hit": false,
      "t": 38733.01091015628,
      "d": 84.98178124999686,
      "v": 64
    },
    {
      "midi": 76,
      "hit": false,
      "t": 38823.85350390618,
      "d": 72.89385546874837,
      "v": 64
    },
    {
      "midi": 60,
      "hit": false,
      "t": 38823.85350390628,
      "d": 84.98178124999686,
      "v": 64
    },
    {
      "midi": 64,
      "hit": false,
      "t": 38823.85350390628,
      "d": 174.35917187500309,
      "v": 64
    },
    {
      "midi": 62,
      "hit": false,
      "t": 38914.69609765628,
      "d": 89.01108984375605,
      "v": 64
    },
    {
      "midi": 64,
      "hit": false,
      "t": 39011.033203124935,
      "d": 85.7143828124972,
      "v": 69
    },
    {
      "midi": 52,
      "hit": false,
      "t": 39011.03320312504,
      "d": 384.2495195312513,
      "v": 69
    },
    {
      "midi": 59,
      "hit": false,
      "t": 39011.03320312504,
      "d": 2998.904496093768,
      "v": 64
    },
    {
      "midi": 76,
      "hit": false,
      "t": 39209.568226562435,
      "d": 174.72547265625326,
      "v": 64
    },
    {
      "midi": 77,
      "hit": false,
      "t": 39395.649023437436,
      "d": 173.62657031250274,
      "v": 65
    },
    {
      "midi": 40,
      "hit": false,
      "t": 39395.64902343754,
      "d": 371.42899218750244,
      "v": 64
    },
    {
      "midi": 76,
      "hit": false,
      "t": 39580.63091796869,
      "d": 175.4580742187536,
      "v": 64
    },
    {
      "midi": 62,
      "hit": false,
      "t": 39767.44431640619,
      "d": 73.9927578124989,
      "v": 67
    },
    {
      "midi": 40,
      "hit": false,
      "t": 39767.44431640629,
      "d": 371.42899218750244,
      "v": 66
    },
    {
      "midi": 76,
      "hit": false,
      "t": 39954.25771484369,
      "d": 173.62657031250274,
      "v": 64
    },
    {
      "midi": 77,
      "hit": false,
      "t": 40139.23960937494,
      "d": 173.62657031250274,
      "v": 65
    },
    {
      "midi": 40,
      "hit": false,
      "t": 40139.23960937504,
      "d": 370.3300898437519,
      "v": 64
    },
    {
      "midi": 76,
      "hit": false,
      "t": 40324.22150390619,
      "d": 174.35917187500309,
      "v": 64
    },
    {
      "midi": 60,
      "hit": false,
      "t": 40511.401203124944,
      "d": 85.7143828124972,
      "v": 69
    },
    {
      "midi": 40,
      "hit": false,
      "t": 40511.401203125046,
      "d": 384.2495195312513,
      "v": 60
    },
    {
      "midi": 52,
      "hit": false,
      "t": 40511.401203125046,
      "d": 384.2495195312513,
      "v": 75
    },
    {
      "midi": 76,
      "hit": false,
      "t": 40709.936226562444,
      "d": 174.72547265625326,
      "v": 64
    },
    {
      "midi": 77,
      "hit": false,
      "t": 40896.017023437445,
      "d": 173.62657031250274,
      "v": 65
    },
    {
      "midi": 38,
      "hit": false,
      "t": 40896.01702343755,
      "d": 371.42899218750244,
      "v": 56
    },
    {
      "midi": 50,
      "hit": false,
      "t": 40896.01702343755,
      "d": 371.42899218750244,
      "v": 71
    },
    {
      "midi": 76,
      "hit": false,
      "t": 41080.998917968696,
      "d": 175.4580742187536,
      "v": 64
    },
    {
      "midi": 59,
      "hit": false,
      "t": 41267.8123164062,
      "d": 73.9927578124989,
      "v": 67
    },
    {
      "midi": 36,
      "hit": false,
      "t": 41267.8123164063,
      "d": 371.42899218750244,
      "v": 57
    },
    {
      "midi": 48,
      "hit": false,
      "t": 41267.8123164063,
      "d": 371.42899218750244,
      "v": 73
    },
    {
      "midi": 76,
      "hit": false,
      "t": 41454.6257148437,
      "d": 173.62657031250274,
      "v": 64
    },
    {
      "midi": 77,
      "hit": false,
      "t": 41639.60760937495,
      "d": 173.62657031250274,
      "v": 65
    },
    {
      "midi": 35,
      "hit": false,
      "t": 41639.60760937505,
      "d": 370.3300898437519,
      "v": 55
    },
    {
      "midi": 47,
      "hit": false,
      "t": 41639.60760937505,
      "d": 370.3300898437519,
      "v": 71
    },
    {
      "midi": 76,
      "hit": false,
      "t": 41824.5895039062,
      "d": 174.35917187500309,
      "v": 64
    },
    {
      "midi": 74,
      "hit": false,
      "t": 42011.76920312495,
      "d": 101.46531640624744,
      "v": 69
    },
    {
      "midi": 38,
      "hit": false,
      "t": 42011.769203125055,
      "d": 384.2495195312513,
      "v": 60
    },
    {
      "midi": 50,
      "hit": false,
      "t": 42011.769203125055,
      "d": 384.2495195312513,
      "v": 71
    },
    {
      "midi": 73,
      "hit": false,
      "t": 42119.095332031204,
      "d": 85.34808203124703,
      "v": 64
    },
    {
      "midi": 74,
      "hit": false,
      "t": 42210.30422656245,
      "d": 85.34808203124703,
      "v": 64
    },
    {
      "midi": 76,
      "hit": false,
      "t": 42301.5131210937,
      "d": 89.01108984374878,
      "v": 64
    },
    {
      "midi": 77,
      "hit": false,
      "t": 42396.385023437455,
      "d": 88.6447890624986,
      "v": 65
    },
    {
      "midi": 38,
      "hit": false,
      "t": 42396.38502343756,
      "d": 371.42899218750244,
      "v": 56
    },
    {
      "midi": 50,
      "hit": false,
      "t": 42396.38502343756,
      "d": 371.42899218750244,
      "v": 67
    },
    {
      "midi": 76,
      "hit": false,
      "t": 42490.890624999956,
      "d": 84.61548046874668,
      "v": 64
    },
    {
      "midi": 77,
      "hit": false,
      "t": 42581.366917968706,
      "d": 84.98178124999686,
      "v": 64
    },
    {
      "midi": 79,
      "hit": false,
      "t": 42672.209511718705,
      "d": 90.1099921874993,
      "v": 64
    },
    {
      "midi": 81,
      "hit": false,
      "t": 42768.18031640621,
      "d": 556.4108867187533,
      "v": 67
    },
    {
      "midi": 38,
      "hit": false,
      "t": 42768.18031640631,
      "d": 371.42899218750244,
      "v": 58
    },
    {
      "midi": 50,
      "hit": false,
      "t": 42768.18031640631,
      "d": 371.42899218750244,
      "v": 69
    },
    {
      "midi": 38,
      "hit": false,
      "t": 43139.97560937506,
      "d": 370.3300898437519,
      "v": 56
    },
    {
      "midi": 50,
      "hit": false,
      "t": 43139.97560937506,
      "d": 370.3300898437519,
      "v": 71
    },
    {
      "midi": 79,
      "hit": false,
      "t": 43324.95750390621,
      "d": 84.98178124999686,
      "v": 64
    },
    {
      "midi": 77,
      "hit": false,
      "t": 43415.80009765621,
      "d": 89.01108984374878,
      "v": 64
    },
    {
      "midi": 76,
      "hit": false,
      "t": 43512.13720312496,
      "d": 187.17969921875192,
      "v": 69
    },
    {
      "midi": 40,
      "hit": false,
      "t": 43512.137203125065,
      "d": 384.2495195312513,
      "v": 60
    },
    {
      "midi": 52,
      "hit": false,
      "t": 43512.137203125065,
      "d": 384.2495195312513,
      "v": 75
    },
    {
      "midi": 64,
      "hit": false,
      "t": 43710.67222656246,
      "d": 90.84259374999965,
      "v": 44
    },
    {
      "midi": 71,
      "hit": false,
      "t": 43710.67222656246,
      "d": 90.84259374999965,
      "v": 54
    },
    {
      "midi": 71,
      "hit": false,
      "t": 43801.88112109371,
      "d": 94.5056015625014,
      "v": 58
    },
    {
      "midi": 64,
      "hit": false,
      "t": 43801.88112109371,
      "d": 100.00011328125402,
      "v": 44
    },
    {
      "midi": 68,
      "hit": false,
      "t": 43896.753023437464,
      "d": 173.62657031250274,
      "v": 57
    },
    {
      "midi": 76,
      "hit": false,
      "t": 43896.753023437464,
      "d": 184.6155937500007,
      "v": 71
    },
    {
      "midi": 40,
      "hit": false,
      "t": 43896.753023437566,
      "d": 371.42899218750244,
      "v": 56
    },
    {
      "midi": 52,
      "hit": false,
      "t": 43896.753023437566,
      "d": 371.42899218750244,
      "v": 67
    },
    {
      "midi": 71,
      "hit": false,
      "t": 44081.734917968715,
      "d": 175.4580742187536,
      "v": 56
    },
    {
      "midi": 80,
      "hit": false,
      "t": 44081.734917968715,
      "d": 186.44709765625157,
      "v": 70
    },
    {
      "midi": 76,
      "hit": false,
      "t": 44268.54831640622,
      "d": 175.4580742187536,
      "v": 59
    },
    {
      "midi": 83,
      "hit": false,
      "t": 44268.54831640622,
      "d": 186.44709765625157,
      "v": 73
    },
    {
      "midi": 40,
      "hit": false,
      "t": 44268.54831640632,
      "d": 371.42899218750244,
      "v": 58
    },
    {
      "midi": 52,
      "hit": false,
      "t": 44268.54831640632,
      "d": 371.42899218750244,
      "v": 69
    },
    {
      "midi": 71,
      "hit": false,
      "t": 44455.36171484372,
      "d": 173.62657031250274,
      "v": 56
    },
    {
      "midi": 80,
      "hit": false,
      "t": 44455.36171484372,
      "d": 184.6155937500007,
      "v": 70
    },
    {
      "midi": 69,
      "hit": false,
      "t": 44640.34360937497,
      "d": 173.62657031250274,
      "v": 57
    },
    {
      "midi": 76,
      "hit": false,
      "t": 44640.34360937497,
      "d": 184.6155937500007,
      "v": 71
    },
    {
      "midi": 40,
      "hit": false,
      "t": 44640.34360937507,
      "d": 370.3300898437519,
      "v": 56
    },
    {
      "midi": 52,
      "hit": false,
      "t": 44640.34360937507,
      "d": 370.3300898437519,
      "v": 71
    },
    {
      "midi": 71,
      "hit": false,
      "t": 44825.32550390622,
      "d": 174.35917187500309,
      "v": 56
    },
    {
      "midi": 80,
      "hit": false,
      "t": 44825.32550390622,
      "d": 185.34819531250105,
      "v": 70
    },
    {
      "midi": 69,
      "hit": false,
      "t": 45012.50520312497,
      "d": 101.46531640624744,
      "v": 69
    },
    {
      "midi": 76,
      "hit": false,
      "t": 45012.50520312497,
      "d": 384.2495195312513,
      "v": 69
    },
    {
      "midi": 33,
      "hit": false,
      "t": 45012.505203125074,
      "d": 384.2495195312513,
      "v": 58
    },
    {
      "midi": 45,
      "hit": false,
      "t": 45012.505203125074,
      "d": 384.2495195312513,
      "v": 75
    },
    {
      "midi": 68,
      "hit": false,
      "t": 45119.83133203122,
      "d": 85.34808203124703,
      "v": 64
    },
    {
      "midi": 69,
      "hit": false,
      "t": 45211.04022656247,
      "d": 85.34808203124703,
      "v": 64
    },
    {
      "midi": 71,
      "hit": false,
      "t": 45302.24912109372,
      "d": 89.01108984374878,
      "v": 64
    },
    {
      "midi": 72,
      "hit": false,
      "t": 45397.121023437474,
      "d": 88.6447890624986,
      "v": 65
    },
    {
      "midi": 35,
      "hit": false,
      "t": 45397.121023437576,
      "d": 371.42899218750244,
      "v": 55
    },
    {
      "midi": 47,
      "hit": false,
      "t": 45397.121023437576,
      "d": 371.42899218750244,
      "v": 71
    },
    {
      "midi": 71,
      "hit": false,
      "t": 45491.626624999975,
      "d": 84.61548046874668,
      "v": 64
    },
    {
      "midi": 72,
      "hit": false,
      "t": 45582.102917968725,
      "d": 84.98178124999686,
      "v": 64
    },
    {
      "midi": 74,
      "hit": false,
      "t": 45672.945511718724,
      "d": 90.1099921874993,
      "v": 64
    },
    {
      "midi": 76,
      "hit": false,
      "t": 45768.91631640623,
      "d": 90.47629296874948,
      "v": 67
    },
    {
      "midi": 36,
      "hit": false,
      "t": 45768.91631640633,
      "d": 371.42899218750244,
      "v": 57
    },
    {
      "midi": 48,
      "hit": false,
      "t": 45768.91631640633,
      "d": 371.42899218750244,
      "v": 73
    },
    {
      "midi": 77,
      "hit": false,
      "t": 45865.25342187498,
      "d": 84.61548046874668,
      "v": 64
    },
    {
      "midi": 76,
      "hit": false,
      "t": 45955.72971484373,
      "d": 84.98178124999686,
      "v": 64
    },
    {
      "midi": 74,
      "hit": false,
      "t": 46046.57230859373,
      "d": 88.27848828124843,
      "v": 64
    },
    {
      "midi": 72,
      "hit": false,
      "t": 46140.71160937498,
      "d": 88.27848828124843,
      "v": 65
    },
    {
      "midi": 40,
      "hit": false,
      "t": 46140.71160937508,
      "d": 370.3300898437519,
      "v": 56
    },
    {
      "midi": 52,
      "hit": false,
      "t": 46140.71160937508,
      "d": 370.3300898437519,
      "v": 71
    },
    {
      "midi": 71,
      "hit": false,
      "t": 46234.85091015623,
      "d": 84.98178124999686,
      "v": 64
    },
    {
      "midi": 69,
      "hit": false,
      "t": 46325.69350390623,
      "d": 84.98178124999686,
      "v": 64
    },
    {
      "midi": 67,
      "hit": false,
      "t": 46416.53609765623,
      "d": 89.01108984374878,
      "v": 64
    },
    {
      "midi": 65,
      "hit": false,
      "t": 46512.87320312498,
      "d": 198.16872265624988,
      "v": 69
    },
    {
      "midi": 41,
      "hit": false,
      "t": 46512.873203125084,
      "d": 384.2495195312513,
      "v": 61
    },
    {
      "midi": 53,
      "hit": false,
      "t": 46512.873203125084,
      "d": 384.2495195312513,
      "v": 75
    },
    {
      "midi": 65,
      "hit": false,
      "t": 46711.40822656248,
      "d": 90.84259374999965,
      "v": 44
    },
    {
      "midi": 72,
      "hit": false,
      "t": 46711.40822656248,
      "d": 90.84259374999965,
      "v": 54
    },
    {
      "midi": 72,
      "hit": false,
      "t": 46802.61712109373,
      "d": 94.5056015625014,
      "v": 58
    },
    {
      "midi": 65,
      "hit": false,
      "t": 46802.61712109373,
      "d": 100.00011328125402,
      "v": 44
    },
    {
      "midi": 69,
      "hit": false,
      "t": 46897.48902343748,
      "d": 173.62657031250274,
      "v": 57
    },
    {
      "midi": 77,
      "hit": false,
      "t": 46897.48902343748,
      "d": 184.6155937500007,
      "v": 71
    },
    {
      "midi": 40,
      "hit": false,
      "t": 46897.489023437585,
      "d": 371.42899218750244,
      "v": 56
    },
    {
      "midi": 52,
      "hit": false,
      "t": 46897.489023437585,
      "d": 371.42899218750244,
      "v": 71
    },
    {
      "midi": 72,
      "hit": false,
      "t": 47082.470917968734,
      "d": 175.4580742187536,
      "v": 56
    },
    {
      "midi": 81,
      "hit": false,
      "t": 47082.470917968734,
      "d": 186.44709765625157,
      "v": 70
    },
    {
      "midi": 77,
      "hit": false,
      "t": 47269.284316406236,
      "d": 175.4580742187536,
      "v": 59
    },
    {
      "midi": 84,
      "hit": false,
      "t": 47269.284316406236,
      "d": 186.44709765625157,
      "v": 73
    },
    {
      "midi": 38,
      "hit": false,
      "t": 47269.28431640634,
      "d": 371.42899218750244,
      "v": 58
    },
    {
      "midi": 50,
      "hit": false,
      "t": 47269.28431640634,
      "d": 371.42899218750244,
      "v": 73
    },
    {
      "midi": 72,
      "hit": false,
      "t": 47456.09771484374,
      "d": 173.62657031250274,
      "v": 56
    },
    {
      "midi": 81,
      "hit": false,
      "t": 47456.09771484374,
      "d": 184.6155937500007,
      "v": 70
    },
    {
      "midi": 69,
      "hit": false,
      "t": 47641.07960937499,
      "d": 173.62657031250274,
      "v": 57
    },
    {
      "midi": 77,
      "hit": false,
      "t": 47641.07960937499,
      "d": 184.6155937500007,
      "v": 71
    },
    {
      "midi": 36,
      "hit": false,
      "t": 47641.07960937509,
      "d": 370.3300898437519,
      "v": 55
    },
    {
      "midi": 48,
      "hit": false,
      "t": 47641.07960937509,
      "d": 370.3300898437519,
      "v": 71
    },
    {
      "midi": 71,
      "hit": false,
      "t": 47826.06150390624,
      "d": 84.98178124999686,
      "v": 56
    },
    {
      "midi": 79,
      "hit": false,
      "t": 47826.06150390624,
      "d": 90.47629296874948,
      "v": 70
    },
    {
      "midi": 72,
      "hit": false,
      "t": 47916.90409765624,
      "d": 89.01108984374878,
      "v": 56
    },
    {
      "midi": 81,
      "hit": false,
      "t": 47916.90409765624,
      "d": 94.5056015625014,
      "v": 70
    },
    {
      "midi": 74,
      "hit": false,
      "t": 48013.24120312499,
      "d": 101.46531640624744,
      "v": 69
    },
    {
      "midi": 81,
      "hit": false,
      "t": 48013.24120312499,
      "d": 384.2495195312513,
      "v": 69
    },
    {
      "midi": 38,
      "hit": false,
      "t": 48013.24120312509,
      "d": 384.2495195312513,
      "v": 60
    },
    {
      "midi": 50,
      "hit": false,
      "t": 48013.24120312509,
      "d": 384.2495195312513,
      "v": 75
    },
    {
      "midi": 76,
      "hit": false,
      "t": 48120.56733203124,
      "d": 85.34808203124703,
      "v": 64
    },
    {
      "midi": 74,
      "hit": false,
      "t": 48211.77622656249,
      "d": 85.34808203124703,
      "v": 64
    },
    {
      "midi": 76,
      "hit": false,
      "t": 48302.98512109374,
      "d": 89.01108984374878,
      "v": 64
    },
    {
      "midi": 74,
      "hit": false,
      "t": 48397.85702343749,
      "d": 88.6447890624986,
      "v": 65
    },
    {
      "midi": 38,
      "hit": false,
      "t": 48397.857023437595,
      "d": 371.42899218750244,
      "v": 56
    },
    {
      "midi": 50,
      "hit": false,
      "t": 48397.857023437595,
      "d": 371.42899218750244,
      "v": 67
    },
    {
      "midi": 76,
      "hit": false,
      "t": 48492.362624999994,
      "d": 84.61548046874668,
      "v": 64
    },
    {
      "midi": 74,
      "hit": false,
      "t": 48582.838917968744,
      "d": 84.98178124999686,
      "v": 64
    },
    {
      "midi": 76,
      "hit": false,
      "t": 48673.68151171874,
      "d": 90.1099921874993,
      "v": 64
    },
    {
      "midi": 74,
      "hit": false,
      "t": 48769.652316406246,
      "d": 90.47629296874948,
      "v": 67
    },
    {
      "midi": 38,
      "hit": false,
      "t": 48769.65231640635,
      "d": 371.42899218750244,
      "v": 58
    },
    {
      "midi": 50,
      "hit": false,
      "t": 48769.65231640635,
      "d": 371.42899218750244,
      "v": 69
    },
    {
      "midi": 76,
      "hit": false,
      "t": 48865.989421875,
      "d": 90.1099921874993,
      "v": 64
    },
    {
      "midi": 71,
      "hit": false,
      "t": 48956.46571484375,
      "d": 84.98178124999686,
      "v": 56
    },
    {
      "midi": 76,
      "hit": false,
      "t": 48956.46571484375,
      "d": 90.47629296874948,
      "v": 70
    },
    {
      "midi": 72,
      "hit": false,
      "t": 49047.30830859375,
      "d": 88.27848828124843,
      "v": 56
    },
    {
      "midi": 77,
      "hit": false,
      "t": 49047.30830859375,
      "d": 93.77300000000105,
      "v": 70
    },
    {
      "midi": 74,
      "hit": false,
      "t": 49141.447609375,
      "d": 173.62657031250274,
      "v": 57
    },
    {
      "midi": 81,
      "hit": false,
      "t": 49141.447609375,
      "d": 184.6155937500007,
      "v": 71
    },
    {
      "midi": 38,
      "hit": false,
      "t": 49141.4476093751,
      "d": 370.3300898437519,
      "v": 56
    },
    {
      "midi": 50,
      "hit": false,
      "t": 49141.4476093751,
      "d": 370.3300898437519,
      "v": 71
    },
    {
      "midi": 77,
      "hit": false,
      "t": 49326.42950390625,
      "d": 174.35917187500309,
      "v": 56
    },
    {
      "midi": 84,
      "hit": false,
      "t": 49326.42950390625,
      "d": 185.34819531250105,
      "v": 70
    },
    {
      "midi": 76,
      "hit": false,
      "t": 49513.609203125,
      "d": 101.46531640624744,
      "v": 69
    },
    {
      "midi": 83,
      "hit": false,
      "t": 49513.609203125,
      "d": 384.2495195312513,
      "v": 69
    },
    {
      "midi": 40,
      "hit": false,
      "t": 49513.6092031251,
      "d": 384.2495195312513,
      "v": 60
    },
    {
      "midi": 52,
      "hit": false,
      "t": 49513.6092031251,
      "d": 384.2495195312513,
      "v": 75
    },
    {
      "midi": 77,
      "hit": false,
      "t": 49620.93533203125,
      "d": 85.34808203124703,
      "v": 64
    },
    {
      "midi": 76,
      "hit": false,
      "t": 49712.1442265625,
      "d": 85.34808203124703,
      "v": 64
    },
    {
      "midi": 77,
      "hit": false,
      "t": 49803.35312109375,
      "d": 89.01108984374878,
      "v": 64
    },
    {
      "midi": 76,
      "hit": false,
      "t": 49898.2250234375,
      "d": 88.6447890624986,
      "v": 65
    },
    {
      "midi": 40,
      "hit": false,
      "t": 49898.225023437604,
      "d": 371.42899218750244,
      "v": 56
    },
    {
      "midi": 52,
      "hit": false,
      "t": 49898.225023437604,
      "d": 371.42899218750244,
      "v": 67
    },
    {
      "midi": 77,
      "hit": false,
      "t": 49992.730625000004,
      "d": 84.61548046874668,
      "v": 64
    },
    {
      "midi": 76,
      "hit": false,
      "t": 50083.20691796875,
      "d": 84.98178124999686,
      "v": 64
    },
    {
      "midi": 77,
      "hit": false,
      "t": 50174.04951171875,
      "d": 90.1099921874993,
      "v": 64
    },
    {
      "midi": 76,
      "hit": false,
      "t": 50270.020316406255,
      "d": 90.47629296874948,
      "v": 67
    },
    {
      "midi": 40,
      "hit": false,
      "t": 50270.02031640636,
      "d": 371.42899218750244,
      "v": 58
    },
    {
      "midi": 52,
      "hit": false,
      "t": 50270.02031640636,
      "d": 371.42899218750244,
      "v": 69
    },
    {
      "midi": 74,
      "hit": false,
      "t": 50366.35742187501,
      "d": 90.1099921874993,
      "v": 64
    },
    {
      "midi": 74,
      "hit": false,
      "t": 50456.83371484376,
      "d": 84.98178124999686,
      "v": 56
    },
    {
      "midi": 80,
      "hit": false,
      "t": 50456.83371484376,
      "d": 90.47629296874948,
      "v": 70
    },
    {
      "midi": 76,
      "hit": false,
      "t": 50547.67630859376,
      "d": 88.27848828124843,
      "v": 56
    },
    {
      "midi": 81,
      "hit": false,
      "t": 50547.67630859376,
      "d": 93.77300000000105,
      "v": 70
    },
    {
      "midi": 77,
      "hit": false,
      "t": 50641.81560937501,
      "d": 173.62657031250274,
      "v": 57
    },
    {
      "midi": 83,
      "hit": false,
      "t": 50641.81560937501,
      "d": 184.6155937500007,
      "v": 71
    },
    {
      "midi": 40,
      "hit": false,
      "t": 50641.81560937511,
      "d": 370.3300898437519,
      "v": 56
    },
    {
      "midi": 52,
      "hit": false,
      "t": 50641.81560937511,
      "d": 370.3300898437519,
      "v": 71
    },
    {
      "midi": 80,
      "hit": false,
      "t": 50826.79750390626,
      "d": 174.35917187500309,
      "v": 56
    },
    {
      "midi": 86,
      "hit": false,
      "t": 50826.79750390626,
      "d": 185.34819531250105,
      "v": 70
    },
    {
      "midi": 69,
      "hit": false,
      "t": 51013.97720312501,
      "d": 101.46531640624744,
      "v": 69
    },
    {
      "midi": 81,
      "hit": false,
      "t": 51013.97720312501,
      "d": 384.2495195312513,
      "v": 61
    },
    {
      "midi": 84,
      "hit": false,
      "t": 51013.97720312501,
      "d": 384.2495195312513,
      "v": 75
    },
    {
      "midi": 33,
      "hit": false,
      "t": 51013.97720312511,
      "d": 384.2495195312513,
      "v": 58
    },
    {
      "midi": 45,
      "hit": false,
      "t": 51013.97720312511,
      "d": 384.2495195312513,
      "v": 75
    },
    {
      "midi": 71,
      "hit": false,
      "t": 51121.30333203126,
      "d": 85.34808203124703,
      "v": 64
    },
    {
      "midi": 69,
      "hit": false,
      "t": 51212.51222656251,
      "d": 85.34808203124703,
      "v": 64
    },
    {
      "midi": 68,
      "hit": false,
      "t": 51303.72112109376,
      "d": 89.01108984374878,
      "v": 64
    },
    {
      "midi": 69,
      "hit": false,
      "t": 51398.59302343751,
      "d": 88.6447890624986,
      "v": 65
    },
    {
      "midi": 33,
      "hit": false,
      "t": 51398.593023437614,
      "d": 371.42899218750244,
      "v": 54
    },
    {
      "midi": 45,
      "hit": false,
      "t": 51398.593023437614,
      "d": 371.42899218750244,
      "v": 67
    },
    {
      "midi": 71,
      "hit": false,
      "t": 51493.09862500001,
      "d": 84.61548046874668,
      "v": 64
    },
    {
      "midi": 80,
      "hit": false,
      "t": 51583.57491796876,
      "d": 84.98178124999686,
      "v": 56
    },
    {
      "midi": 83,
      "hit": false,
      "t": 51583.57491796876,
      "d": 90.47629296874948,
      "v": 70
    },
    {
      "midi": 81,
      "hit": false,
      "t": 51674.41751171876,
      "d": 90.1099921874993,
      "v": 56
    },
    {
      "midi": 84,
      "hit": false,
      "t": 51674.41751171876,
      "d": 95.60450390625192,
      "v": 70
    },
    {
      "midi": 69,
      "hit": false,
      "t": 51770.388316406264,
      "d": 90.47629296874948,
      "v": 67
    },
    {
      "midi": 33,
      "hit": false,
      "t": 51770.388316406366,
      "d": 371.42899218750244,
      "v": 56
    },
    {
      "midi": 45,
      "hit": false,
      "t": 51770.388316406366,
      "d": 371.42899218750244,
      "v": 69
    },
    {
      "midi": 71,
      "hit": false,
      "t": 51866.72542187502,
      "d": 84.61548046874668,
      "v": 64
    },
    {
      "midi": 69,
      "hit": false,
      "t": 51957.201714843766,
      "d": 84.98178124999686,
      "v": 64
    },
    {
      "midi": 68,
      "hit": false,
      "t": 52048.044308593766,
      "d": 88.27848828124843,
      "v": 64
    },
    {
      "midi": 69,
      "hit": false,
      "t": 52142.18360937502,
      "d": 88.27848828124843,
      "v": 65
    },
    {
      "midi": 33,
      "hit": false,
      "t": 52142.18360937512,
      "d": 370.3300898437519,
      "v": 54
    },
    {
      "midi": 45,
      "hit": false,
      "t": 52142.18360937512,
      "d": 370.3300898437519,
      "v": 67
    },
    {
      "midi": 71,
      "hit": false,
      "t": 52236.32291015627,
      "d": 84.98178124999686,
      "v": 64
    },
    {
      "midi": 80,
      "hit": false,
      "t": 52327.16550390627,
      "d": 84.98178124999686,
      "v": 56
    },
    {
      "midi": 81,
      "hit": false,
      "t": 52327.16550390627,
      "d": 90.47629296874948,
      "v": 70
    },
    {
      "midi": 81,
      "hit": false,
      "t": 52418.00809765627,
      "d": 89.01108984374878,
      "v": 56
    },
    {
      "midi": 83,
      "hit": false,
      "t": 52418.00809765627,
      "d": 94.5056015625014,
      "v": 70
    },
    {
      "midi": 69,
      "hit": false,
      "t": 52514.34520312502,
      "d": 101.46531640624744,
      "v": 69
    },
    {
      "midi": 81,
      "hit": false,
      "t": 52514.34520312502,
      "d": 187.17969921875192,
      "v": 61
    },
    {
      "midi": 84,
      "hit": false,
      "t": 52514.34520312502,
      "d": 198.16872265625716,
      "v": 75
    },
    {
      "midi": 33,
      "hit": false,
      "t": 52514.34520312512,
      "d": 384.2495195312513,
      "v": 58
    },
    {
      "midi": 45,
      "hit": false,
      "t": 52514.34520312512,
      "d": 384.2495195312513,
      "v": 75
    },
    {
      "midi": 72,
      "hit": false,
      "t": 52621.67133203127,
      "d": 85.34808203125431,
      "v": 64
    },
    {
      "midi": 69,
      "hit": false,
      "t": 52712.88022656253,
      "d": 85.34808203124703,
      "v": 64
    },
    {
      "midi": 80,
      "hit": false,
      "t": 52712.88022656253,
      "d": 85.34808203124703,
      "v": 56
    },
    {
      "midi": 83,
      "hit": false,
      "t": 52712.88022656253,
      "d": 90.84259374999965,
      "v": 70
    },
    {
      "midi": 72,
      "hit": false,
      "t": 52804.08912109378,
      "d": 89.01108984374878,
      "v": 64
    },
    {
      "midi": 81,
      "hit": false,
      "t": 52804.08912109378,
      "d": 89.01108984374878,
      "v": 56
    },
    {
      "midi": 84,
      "hit": false,
      "t": 52804.08912109378,
      "d": 94.5056015625014,
      "v": 70
    },
    {
      "midi": 71,
      "hit": false,
      "t": 52898.96102343753,
      "d": 88.6447890624986,
      "v": 65
    },
    {
      "midi": 83,
      "hit": false,
      "t": 52898.96102343753,
      "d": 173.62657031250274,
      "v": 57
    },
    {
      "midi": 86,
      "hit": false,
      "t": 52898.96102343753,
      "d": 184.61559375000797,
      "v": 71
    },
    {
      "midi": 35,
      "hit": false,
      "t": 52898.96102343762,
      "d": 371.42899218750244,
      "v": 55
    },
    {
      "midi": 47,
      "hit": false,
      "t": 52898.96102343762,
      "d": 371.42899218750244,
      "v": 71
    },
    {
      "midi": 74,
      "hit": false,
      "t": 52993.46662500003,
      "d": 84.61548046875396,
      "v": 64
    },
    {
      "midi": 71,
      "hit": false,
      "t": 53083.94291796879,
      "d": 84.98178124999686,
      "v": 64
    },
    {
      "midi": 81,
      "hit": false,
      "t": 53083.94291796879,
      "d": 84.98178124999686,
      "v": 56
    },
    {
      "midi": 84,
      "hit": false,
      "t": 53083.94291796879,
      "d": 90.47629296874948,
      "v": 70
    },
    {
      "midi": 74,
      "hit": false,
      "t": 53174.78551171879,
      "d": 90.1099921874993,
      "v": 64
    },
    {
      "midi": 83,
      "hit": false,
      "t": 53174.78551171879,
      "d": 90.1099921874993,
      "v": 56
    },
    {
      "midi": 86,
      "hit": false,
      "t": 53174.78551171879,
      "d": 95.60450390625192,
      "v": 70
    },
    {
      "midi": 72,
      "hit": false,
      "t": 53270.75631640629,
      "d": 90.47629296874948,
      "v": 67
    },
    {
      "midi": 84,
      "hit": false,
      "t": 53270.75631640629,
      "d": 371.42899218750244,
      "v": 59
    },
    {
      "midi": 88,
      "hit": false,
      "t": 53270.75631640629,
      "d": 371.42899218750244,
      "v": 73
    },
    {
      "midi": 36,
      "hit": false,
      "t": 53270.756316406376,
      "d": 371.42899218750244,
      "v": 57
    },
    {
      "midi": 48,
      "hit": false,
      "t": 53270.756316406376,
      "d": 371.42899218750244,
      "v": 73
    },
    {
      "midi": 76,
      "hit": false,
      "t": 53367.09342187504,
      "d": 84.61548046874668,
      "v": 64
    },
    {
      "midi": 72,
      "hit": false,
      "t": 53457.56971484379,
      "d": 84.98178124999686,
      "v": 64
    },
    {
      "midi": 76,
      "hit": false,
      "t": 53548.41230859379,
      "d": 88.27848828124843,
      "v": 64
    },
    {
      "midi": 81,
      "hit": false,
      "t": 53642.55160937504,
      "d": 88.27848828124843,
      "v": 65
    },
    {
      "midi": 40,
      "hit": false,
      "t": 53642.55160937513,
      "d": 370.3300898437519,
      "v": 56
    },
    {
      "midi": 52,
      "hit": false,
      "t": 53642.55160937513,
      "d": 370.3300898437519,
      "v": 71
    },
    {
      "midi": 79,
      "hit": false,
      "t": 53736.69091015629,
      "d": 84.98178124999686,
      "v": 64
    },
    {
      "midi": 77,
      "hit": false,
      "t": 53827.53350390629,
      "d": 84.98178124999686,
      "v": 64
    },
    {
      "midi": 76,
      "hit": false,
      "t": 53918.37609765629,
      "d": 89.01108984374878,
      "v": 64
    },
    {
      "midi": 77,
      "hit": false,
      "t": 54014.713203125044,
      "d": 931.8691875000004,
      "v": 69
    },
    {
      "midi": 41,
      "hit": false,
      "t": 54014.71320312513,
      "d": 384.2495195312513,
      "v": 61
    },
    {
      "midi": 53,
      "hit": false,
      "t": 54014.71320312513,
      "d": 384.2495195312513,
      "v": 75
    },
    {
      "midi": 53,
      "hit": false,
      "t": 54213.248226562544,
      "d": 73.26015624999854,
      "v": 64
    },
    {
      "midi": 45,
      "hit": false,
      "t": 54213.24822656263,
      "d": 73.26015624999854,
      "v": 44
    },
    {
      "midi": 48,
      "hit": false,
      "t": 54213.24822656263,
      "d": 73.26015624999854,
      "v": 54
    },
    {
      "midi": 57,
      "hit": false,
      "t": 54399.329023437545,
      "d": 72.16125390624802,
      "v": 65
    },
    {
      "midi": 45,
      "hit": false,
      "t": 54399.32902343763,
      "d": 72.16125390624802,
      "v": 45
    },
    {
      "midi": 48,
      "hit": false,
      "t": 54399.32902343763,
      "d": 72.16125390624802,
      "v": 55
    },
    {
      "midi": 41,
      "hit": false,
      "t": 54399.32902343763,
      "d": 371.42899218750244,
      "v": 57
    },
    {
      "midi": 53,
      "hit": false,
      "t": 54399.32902343763,
      "d": 371.42899218750244,
      "v": 67
    },
    {
      "midi": 60,
      "hit": false,
      "t": 54584.310917968796,
      "d": 73.9927578124989,
      "v": 64
    },
    {
      "midi": 45,
      "hit": false,
      "t": 54584.31091796888,
      "d": 73.9927578124989,
      "v": 44
    },
    {
      "midi": 48,
      "hit": false,
      "t": 54584.31091796888,
      "d": 73.9927578124989,
      "v": 54
    },
    {
      "midi": 65,
      "hit": false,
      "t": 54771.1243164063,
      "d": 146.5203124999971,
      "v": 67
    },
    {
      "midi": 45,
      "hit": false,
      "t": 54771.124316406385,
      "d": 146.5203124999971,
      "v": 59
    },
    {
      "midi": 48,
      "hit": false,
      "t": 54771.124316406385,
      "d": 146.5203124999971,
      "v": 73
    },
    {
      "midi": 41,
      "hit": false,
      "t": 54771.124316406385,
      "d": 371.42899218749517,
      "v": 59
    },
    {
      "midi": 53,
      "hit": false,
      "t": 54771.124316406385,
      "d": 371.42899218749517,
      "v": 69
    },
    {
      "midi": 76,
      "hit": false,
      "t": 54957.93771484379,
      "d": 173.62657031250274,
      "v": 64
    },
    {
      "midi": 75,
      "hit": false,
      "t": 55142.91960937504,
      "d": 173.62657031250274,
      "v": 65
    },
    {
      "midi": 41,
      "hit": false,
      "t": 55142.91960937513,
      "d": 370.3300898437519,
      "v": 57
    },
    {
      "midi": 53,
      "hit": false,
      "t": 55142.91960937513,
      "d": 370.3300898437519,
      "v": 71
    },
    {
      "midi": 77,
      "hit": false,
      "t": 55327.901503906294,
      "d": 174.35917187500309,
      "v": 64
    },
    {
      "midi": 76,
      "hit": false,
      "t": 55515.081203125046,
      "d": 931.8691875000004,
      "v": 69
    },
    {
      "midi": 40,
      "hit": false,
      "t": 55515.08120312513,
      "d": 384.2495195312513,
      "v": 60
    },
    {
      "midi": 52,
      "hit": false,
      "t": 55515.08120312513,
      "d": 384.2495195312513,
      "v": 75
    },
    {
      "midi": 55,
      "hit": false,
      "t": 55713.616226562546,
      "d": 73.26015624999854,
      "v": 64
    },
    {
      "midi": 44,
      "hit": false,
      "t": 55713.61622656263,
      "d": 73.26015624999854,
      "v": 44
    },
    {
      "midi": 47,
      "hit": false,
      "t": 55713.61622656263,
      "d": 73.26015624999854,
      "v": 58
    },
    {
      "midi": 60,
      "hit": false,
      "t": 55899.69702343755,
      "d": 72.16125390624802,
      "v": 65
    },
    {
      "midi": 44,
      "hit": false,
      "t": 55899.697023437635,
      "d": 72.16125390624802,
      "v": 45
    },
    {
      "midi": 47,
      "hit": false,
      "t": 55899.697023437635,
      "d": 72.16125390624802,
      "v": 55
    },
    {
      "midi": 40,
      "hit": false,
      "t": 55899.697023437635,
      "d": 371.42899218750244,
      "v": 56
    },
    {
      "midi": 52,
      "hit": false,
      "t": 55899.697023437635,
      "d": 371.42899218750244,
      "v": 71
    },
    {
      "midi": 64,
      "hit": false,
      "t": 56084.6789179688,
      "d": 73.9927578124989,
      "v": 64
    },
    {
      "midi": 44,
      "hit": false,
      "t": 56084.678917968886,
      "d": 73.9927578124989,
      "v": 44
    },
    {
      "midi": 47,
      "hit": false,
      "t": 56084.678917968886,
      "d": 73.9927578124989,
      "v": 54
    },
    {
      "midi": 67,
      "hit": false,
      "t": 56271.4923164063,
      "d": 146.5203124999971,
      "v": 67
    },
    {
      "midi": 44,
      "hit": false,
      "t": 56271.49231640639,
      "d": 146.5203124999971,
      "v": 59
    },
    {
      "midi": 47,
      "hit": false,
      "t": 56271.49231640639,
      "d": 146.5203124999971,
      "v": 73
    },
    {
      "midi": 38,
      "hit": false,
      "t": 56271.49231640639,
      "d": 371.42899218749517,
      "v": 58
    },
    {
      "midi": 50,
      "hit": false,
      "t": 56271.49231640639,
      "d": 371.42899218749517,
      "v": 73
    },
    {
      "midi": 75,
      "hit": false,
      "t": 56458.305714843795,
      "d": 173.62657031250274,
      "v": 64
    },
    {
      "midi": 72,
      "hit": false,
      "t": 56643.287609375046,
      "d": 173.62657031250274,
      "v": 65
    },
    {
      "midi": 38,
      "hit": false,
      "t": 56643.28760937513,
      "d": 370.3300898437519,
      "v": 56
    },
    {
      "midi": 50,
      "hit": false,
      "t": 56643.28760937513,
      "d": 370.3300898437519,
      "v": 71
    },
    {
      "midi": 71,
      "hit": false,
      "t": 56828.2695039063,
      "d": 174.35917187500309,
      "v": 64
    },
    {
      "midi": 72,
      "hit": false,
      "t": 57015.44920312505,
      "d": 384.2495195312513,
      "v": 69
    },
    {
      "midi": 36,
      "hit": false,
      "t": 57015.449203125136,
      "d": 384.2495195312513,
      "v": 59
    },
    {
      "midi": 81,
      "hit": false,
      "t": 57213.98422656255,
      "d": 73.26015624999854,
      "v": 64
    },
    {
      "midi": 48,
      "hit": false,
      "t": 57213.984226562636,
      "d": 62.27113281250058,
      "v": 56
    },
    {
      "midi": 45,
      "hit": false,
      "t": 57213.984226562636,
      "d": 73.26015624999854,
      "v": 56
    },
    {
      "midi": 52,
      "hit": false,
      "t": 57213.984226562636,
      "d": 73.26015624999854,
      "v": 70
    },
    {
      "midi": 84,
      "hit": false,
      "t": 57400.06502343755,
      "d": 146.5203124999971,
      "v": 65
    },
    {
      "midi": 72,
      "hit": false,
      "t": 57400.06502343755,
      "d": 371.42899218749517,
      "v": 65
    },
    {
      "midi": 33,
      "hit": false,
      "t": 57400.06502343764,
      "d": 371.42899218750244,
      "v": 54
    },
    {
      "midi": 45,
      "hit": false,
      "t": 57400.06502343764,
      "d": 371.42899218750244,
      "v": 71
    },
    {
      "midi": 76,
      "hit": false,
      "t": 57771.860316406295,
      "d": 371.42899218750244,
      "v": 67
    },
    {
      "midi": 35,
      "hit": false,
      "t": 57771.86031640639,
      "d": 371.42899218750244,
      "v": 57
    },
    {
      "midi": 80,
      "hit": false,
      "t": 57958.6737148438,
      "d": 72.16125390624802,
      "v": 64
    },
    {
      "midi": 47,
      "hit": false,
      "t": 57958.67371484389,
      "d": 61.17223046875006,
      "v": 56
    },
    {
      "midi": 44,
      "hit": false,
      "t": 57958.67371484389,
      "d": 72.16125390624802,
      "v": 56
    },
    {
      "midi": 52,
      "hit": false,
      "t": 57958.67371484389,
      "d": 72.16125390624802,
      "v": 70
    },
    {
      "midi": 83,
      "hit": false,
      "t": 58143.65560937505,
      "d": 145.42141015624657,
      "v": 65
    },
    {
      "midi": 76,
      "hit": false,
      "t": 58143.65560937505,
      "d": 370.33008984374464,
      "v": 65
    },
    {
      "midi": 32,
      "hit": false,
      "t": 58143.65560937514,
      "d": 370.3300898437519,
      "v": 54
    },
    {
      "midi": 44,
      "hit": false,
      "t": 58143.65560937514,
      "d": 370.3300898437519,
      "v": 71
    },
    {
      "midi": 75,
      "hit": false,
      "t": 58515.81720312504,
      "d": 384.2495195312513,
      "v": 69
    },
    {
      "midi": 33,
      "hit": false,
      "t": 58515.817203125145,
      "d": 384.2495195312513,
      "v": 58
    },
    {
      "midi": 45,
      "hit": false,
      "t": 58515.817203125145,
      "d": 384.2495195312513,
      "v": 75
    },
    {
      "midi": 63,
      "hit": false,
      "t": 58714.35222656254,
      "d": 73.26015624999854,
      "v": 56
    },
    {
      "midi": 76,
      "hit": false,
      "t": 58714.35222656254,
      "d": 73.26015624999854,
      "v": 70
    },
    {
      "midi": 57,
      "hit": false,
      "t": 58714.352226562645,
      "d": 73.26015624999854,
      "v": 56
    },
    {
      "midi": 60,
      "hit": false,
      "t": 58714.352226562645,
      "d": 73.26015624999854,
      "v": 70
    },
    {
      "midi": 81,
      "hit": false,
      "t": 58900.433023437545,
      "d": 72.16125390624802,
      "v": 65
    },
    {
      "midi": 57,
      "hit": false,
      "t": 58900.43302343765,
      "d": 72.16125390624802,
      "v": 65
    },
    {
      "midi": 72,
      "hit": false,
      "t": 58900.43302343765,
      "d": 371.42899218750244,
      "v": 71
    },
    {
      "midi": 72,
      "hit": false,
      "t": 59085.414917968796,
      "d": 73.9927578124989,
      "v": 56
    },
    {
      "midi": 84,
      "hit": false,
      "t": 59085.414917968796,
      "d": 73.9927578124989,
      "v": 70
    },
    {
      "midi": 57,
      "hit": false,
      "t": 59085.4149179689,
      "d": 73.9927578124989,
      "v": 56
    },
    {
      "midi": 60,
      "hit": false,
      "t": 59085.4149179689,
      "d": 73.9927578124989,
      "v": 70
    },
    {
      "midi": 75,
      "hit": false,
      "t": 59272.2283164063,
      "d": 73.9927578124989,
      "v": 59
    },
    {
      "midi": 87,
      "hit": false,
      "t": 59272.2283164063,
      "d": 73.9927578124989,
      "v": 73
    },
    {
      "midi": 60,
      "hit": false,
      "t": 59272.2283164064,
      "d": 73.9927578124989,
      "v": 67
    },
    {
      "midi": 69,
      "hit": false,
      "t": 59272.2283164064,
      "d": 371.42899218750244,
      "v": 73
    },
    {
      "midi": 72,
      "hit": false,
      "t": 59459.0417148438,
      "d": 72.16125390624802,
      "v": 56
    },
    {
      "midi": 84,
      "hit": false,
      "t": 59459.0417148438,
      "d": 72.16125390624802,
      "v": 70
    },
    {
      "midi": 57,
      "hit": false,
      "t": 59459.0417148439,
      "d": 72.16125390624802,
      "v": 56
    },
    {
      "midi": 60,
      "hit": false,
      "t": 59459.0417148439,
      "d": 72.16125390624802,
      "v": 66
    },
    {
      "midi": 69,
      "hit": false,
      "t": 59644.02360937505,
      "d": 72.16125390624802,
      "v": 57
    },
    {
      "midi": 81,
      "hit": false,
      "t": 59644.02360937505,
      "d": 72.16125390624802,
      "v": 71
    },
    {
      "midi": 57,
      "hit": false,
      "t": 59644.02360937515,
      "d": 72.16125390624802,
      "v": 57
    },
    {
      "midi": 60,
      "hit": false,
      "t": 59644.02360937515,
      "d": 72.16125390624802,
      "v": 67
    },
    {
      "midi": 52,
      "hit": false,
      "t": 59644.02360937515,
      "d": 370.3300898437519,
      "v": 57
    },
    {
      "midi": 64,
      "hit": false,
      "t": 59644.02360937515,
      "d": 370.3300898437519,
      "v": 71
    },
    {
      "midi": 64,
      "hit": false,
      "t": 59829.0055039063,
      "d": 72.89385546874837,
      "v": 56
    },
    {
      "midi": 76,
      "hit": false,
      "t": 59829.0055039063,
      "d": 72.89385546874837,
      "v": 70
    },
    {
      "midi": 57,
      "hit": false,
      "t": 59829.0055039064,
      "d": 72.89385546874837,
      "v": 56
    },
    {
      "midi": 60,
      "hit": false,
      "t": 59829.0055039064,
      "d": 72.89385546874837,
      "v": 70
    },
    {
      "midi": 63,
      "hit": false,
      "t": 60016.18520312505,
      "d": 756.0448125000039,
      "v": 69
    },
    {
      "midi": 41,
      "hit": false,
      "t": 60016.185203125155,
      "d": 384.2495195312513,
      "v": 69
    },
    {
      "midi": 45,
      "hit": false,
      "t": 60016.185203125155,
      "d": 756.0448125000039,
      "v": 61
    },
    {
      "midi": 53,
      "hit": false,
      "t": 60016.185203125155,
      "d": 756.0448125000039,
      "v": 75
    },
    {
      "midi": 76,
      "hit": false,
      "t": 60214.72022656255,
      "d": 73.26015624999854,
      "v": 64
    },
    {
      "midi": 81,
      "hit": false,
      "t": 60400.801023437554,
      "d": 72.16125390624802,
      "v": 65
    },
    {
      "midi": 41,
      "hit": false,
      "t": 60400.801023437656,
      "d": 371.42899218750244,
      "v": 65
    },
    {
      "midi": 84,
      "hit": false,
      "t": 60585.782917968805,
      "d": 73.9927578124989,
      "v": 64
    },
    {
      "midi": 76,
      "hit": false,
      "t": 60772.59631640631,
      "d": 146.5203124999971,
      "v": 67
    },
    {
      "midi": 64,
      "hit": false,
      "t": 60772.59631640631,
      "d": 175.45807421874633,
      "v": 67
    },
    {
      "midi": 40,
      "hit": false,
      "t": 60772.59631640641,
      "d": 371.42899218750244,
      "v": 66
    },
    {
      "midi": 44,
      "hit": false,
      "t": 60772.59631640641,
      "d": 371.42899218750244,
      "v": 59
    },
    {
      "midi": 52,
      "hit": false,
      "t": 60772.59631640641,
      "d": 371.42899218750244,
      "v": 73
    },
    {
      "midi": 68,
      "hit": false,
      "t": 60959.4097148438,
      "d": 173.62657031250274,
      "v": 64
    },
    {
      "midi": 71,
      "hit": false,
      "t": 61144.39160937505,
      "d": 173.62657031250274,
      "v": 65
    },
    {
      "midi": 40,
      "hit": false,
      "t": 61144.39160937516,
      "d": 370.3300898437519,
      "v": 64
    },
    {
      "midi": 76,
      "hit": false,
      "t": 61329.3735039063,
      "d": 174.35917187500309,
      "v": 64
    },
    {
      "midi": 75,
      "hit": false,
      "t": 61516.553203125055,
      "d": 756.0448125000039,
      "v": 69
    },
    {
      "midi": 41,
      "hit": false,
      "t": 61516.553203125164,
      "d": 384.2495195312513,
      "v": 69
    },
    {
      "midi": 45,
      "hit": false,
      "t": 61516.553203125164,
      "d": 756.0448125000039,
      "v": 61
    },
    {
      "midi": 53,
      "hit": false,
      "t": 61516.553203125164,
      "d": 756.0448125000039,
      "v": 75
    },
    {
      "midi": 64,
      "hit": false,
      "t": 61715.088226562555,
      "d": 73.26015624999854,
      "v": 64
    },
    {
      "midi": 69,
      "hit": false,
      "t": 61901.16902343756,
      "d": 72.16125390624802,
      "v": 65
    },
    {
      "midi": 41,
      "hit": false,
      "t": 61901.169023437666,
      "d": 371.42899218750244,
      "v": 65
    },
    {
      "midi": 77,
      "hit": false,
      "t": 62086.15091796881,
      "d": 73.9927578124989,
      "v": 64
    },
    {
      "midi": 64,
      "hit": false,
      "t": 62272.96431640631,
      "d": 146.5203124999971,
      "v": 67
    },
    {
      "midi": 76,
      "hit": false,
      "t": 62272.96431640631,
      "d": 175.45807421874633,
      "v": 67
    },
    {
      "midi": 40,
      "hit": false,
      "t": 62272.96431640642,
      "d": 371.42899218750244,
      "v": 66
    },
    {
      "midi": 44,
      "hit": false,
      "t": 62272.96431640642,
      "d": 371.42899218750244,
      "v": 59
    },
    {
      "midi": 52,
      "hit": false,
      "t": 62272.96431640642,
      "d": 371.42899218750244,
      "v": 73
    },
    {
      "midi": 72,
      "hit": false,
      "t": 62459.7777148438,
      "d": 173.62657031250274,
      "v": 64
    },
    {
      "midi": 69,
      "hit": false,
      "t": 62644.759609375054,
      "d": 173.62657031250274,
      "v": 65
    },
    {
      "midi": 40,
      "hit": false,
      "t": 62644.75960937517,
      "d": 370.3300898437519,
      "v": 64
    },
    {
      "midi": 65,
      "hit": false,
      "t": 62829.741503906305,
      "d": 174.35917187500309,
      "v": 64
    },
    {
      "midi": 88,
      "hit": false,
      "t": 63016.92120312506,
      "d": 180.58628515624878,
      "v": 75
    },
    {
      "midi": 83,
      "hit": false,
      "t": 63016.92120312506,
      "d": 196.70351953124919,
      "v": 61
    },
    {
      "midi": 52,
      "hit": false,
      "t": 63016.92120312517,
      "d": 384.2495195312513,
      "v": 69
    },
    {
      "midi": 40,
      "hit": false,
      "t": 63016.92120312517,
      "d": 384.2495195312513,
      "v": 68
    },
    {
      "midi": 89,
      "hit": false,
      "t": 63215.45622656256,
      "d": 169.59726171875081,
      "v": 70
    },
    {
      "midi": 84,
      "hit": false,
      "t": 63215.45622656256,
      "d": 184.24929296875052,
      "v": 56
    },
    {
      "midi": 88,
      "hit": false,
      "t": 63401.53702343756,
      "d": 171.0624648437515,
      "v": 71
    },
    {
      "midi": 83,
      "hit": false,
      "t": 63401.53702343756,
      "d": 183.150390625,
      "v": 57
    },
    {
      "midi": 40,
      "hit": false,
      "t": 63401.537023437675,
      "d": 371.42899218750244,
      "v": 64
    },
    {
      "midi": 89,
      "hit": false,
      "t": 63586.51891796881,
      "d": 173.62657031250274,
      "v": 70
    },
    {
      "midi": 84,
      "hit": false,
      "t": 63586.51891796881,
      "d": 184.98189453125087,
      "v": 56
    },
    {
      "midi": 53,
      "hit": false,
      "t": 63586.518917968926,
      "d": 56.41032031249779,
      "v": 64
    },
    {
      "midi": 55,
      "hit": false,
      "t": 63646.958546875176,
      "d": 56.77662109374796,
      "v": 64
    },
    {
      "midi": 57,
      "hit": false,
      "t": 63707.764476562676,
      "d": 61.53853125000023,
      "v": 64
    },
    {
      "midi": 88,
      "hit": false,
      "t": 63773.33231640631,
      "d": 174.35917187500309,
      "v": 73
    },
    {
      "midi": 83,
      "hit": false,
      "t": 63773.33231640631,
      "d": 184.98189453125087,
      "v": 59
    },
    {
      "midi": 59,
      "hit": false,
      "t": 63773.33231640643,
      "d": 371.42899218750244,
      "v": 67
    },
    {
      "midi": 52,
      "hit": false,
      "t": 63773.33231640643,
      "d": 371.42899218750244,
      "v": 67
    },
    {
      "midi": 89,
      "hit": false,
      "t": 63960.14571484381,
      "d": 175.09177343750343,
      "v": 70
    },
    {
      "midi": 84,
      "hit": false,
      "t": 63960.14571484381,
      "d": 183.150390625,
      "v": 56
    },
    {
      "midi": 88,
      "hit": false,
      "t": 64145.127609375064,
      "d": 177.65587890624738,
      "v": 71
    },
    {
      "midi": 83,
      "hit": false,
      "t": 64145.127609375064,
      "d": 183.150390625,
      "v": 57
    },
    {
      "midi": 52,
      "hit": false,
      "t": 64145.12760937518,
      "d": 370.3300898437519,
      "v": 65
    },
    {
      "midi": 89,
      "hit": false,
      "t": 64330.109503906315,
      "d": 180.2199843749986,
      "v": 70
    },
    {
      "midi": 84,
      "hit": false,
      "t": 64330.109503906315,
      "d": 183.88299218750035,
      "v": 56
    },
    {
      "midi": 59,
      "hit": false,
      "t": 64330.10950390643,
      "d": 56.41032031249779,
      "v": 64
    },
    {
      "midi": 60,
      "hit": false,
      "t": 64390.54913281268,
      "d": 56.77662109374796,
      "v": 64
    },
    {
      "midi": 62,
      "hit": false,
      "t": 64451.35506250018,
      "d": 60.43962890624971,
      "v": 64
    },
    {
      "midi": 88,
      "hit": false,
      "t": 64517.28920312507,
      "d": 180.58628515624878,
      "v": 75
    },
    {
      "midi": 83,
      "hit": false,
      "t": 64517.28920312507,
      "d": 196.70351953124919,
      "v": 61
    },
    {
      "midi": 64,
      "hit": false,
      "t": 64517.28920312518,
      "d": 384.2495195312513,
      "v": 69
    },
    {
      "midi": 52,
      "hit": false,
      "t": 64517.28920312518,
      "d": 384.2495195312513,
      "v": 69
    },
    {
      "midi": 89,
      "hit": false,
      "t": 64715.82422656257,
      "d": 169.59726171875081,
      "v": 70
    },
    {
      "midi": 84,
      "hit": false,
      "t": 64715.82422656257,
      "d": 184.24929296875052,
      "v": 56
    },
    {
      "midi": 88,
      "hit": false,
      "t": 64901.90502343757,
      "d": 171.0624648437515,
      "v": 71
    },
    {
      "midi": 83,
      "hit": false,
      "t": 64901.90502343757,
      "d": 183.150390625,
      "v": 57
    },
    {
      "midi": 52,
      "hit": false,
      "t": 64901.905023437685,
      "d": 371.42899218750244,
      "v": 65
    },
    {
      "midi": 89,
      "hit": false,
      "t": 65086.88691796882,
      "d": 173.62657031250274,
      "v": 70
    },
    {
      "midi": 84,
      "hit": false,
      "t": 65086.88691796882,
      "d": 184.98189453125087,
      "v": 56
    },
    {
      "midi": 71,
      "hit": false,
      "t": 65086.886917968935,
      "d": 56.41032031249779,
      "v": 64
    },
    {
      "midi": 72,
      "hit": false,
      "t": 65147.326546875185,
      "d": 56.77662109374796,
      "v": 64
    },
    {
      "midi": 74,
      "hit": false,
      "t": 65208.132476562685,
      "d": 61.53853125000023,
      "v": 64
    },
    {
      "midi": 88,
      "hit": false,
      "t": 65273.70031640632,
      "d": 174.35917187500309,
      "v": 73
    },
    {
      "midi": 83,
      "hit": false,
      "t": 65273.70031640632,
      "d": 184.98189453125087,
      "v": 59
    },
    {
      "midi": 76,
      "hit": false,
      "t": 65273.70031640644,
      "d": 371.42899218750244,
      "v": 67
    },
    {
      "midi": 64,
      "hit": false,
      "t": 65273.70031640644,
      "d": 371.42899218750244,
      "v": 67
    },
    {
      "midi": 86,
      "hit": false,
      "t": 65460.51371484382,
      "d": 175.09177343749616,
      "v": 70
    },
    {
      "midi": 81,
      "hit": false,
      "t": 65460.51371484382,
      "d": 183.150390625,
      "v": 56
    },
    {
      "midi": 84,
      "hit": false,
      "t": 65645.49560937507,
      "d": 177.65587890625466,
      "v": 71
    },
    {
      "midi": 77,
      "hit": false,
      "t": 65645.49560937507,
      "d": 183.150390625,
      "v": 57
    },
    {
      "midi": 83,
      "hit": false,
      "t": 65830.47750390631,
      "d": 180.2199843749986,
      "v": 70
    },
    {
      "midi": 76,
      "hit": false,
      "t": 65830.47750390631,
      "d": 183.88299218750035,
      "v": 56
    },
    {
      "midi": 45,
      "hit": false,
      "t": 65947.32745312518,
      "d": 1383.15174999999,
      "v": 56
    },
    {
      "midi": 48,
      "hit": false,
      "t": 65970.77070312518,
      "d": 1359.7084999999934,
      "v": 56
    },
    {
      "midi": 52,
      "hit": false,
      "t": 65994.21395312517,
      "d": 21.611746093753027,
      "v": 56
    },
    {
      "midi": 69,
      "hit": false,
      "t": 66017.65720312505,
      "d": 101.46531640624744,
      "v": 69
    },
    {
      "midi": 57,
      "hit": false,
      "t": 66017.65720312517,
      "d": 1312.8220000000001,
      "v": 66
    },
    {
      "midi": 71,
      "hit": false,
      "t": 66124.9833320313,
      "d": 85.34808203125431,
      "v": 64
    },
    {
      "midi": 72,
      "hit": false,
      "t": 66216.19222656256,
      "d": 85.34808203125431,
      "v": 64
    },
    {
      "midi": 74,
      "hit": false,
      "t": 66307.40112109382,
      "d": 89.01108984375605,
      "v": 64
    },
    {
      "midi": 76,
      "hit": false,
      "t": 66402.27302343758,
      "d": 88.6447890624986,
      "v": 65
    },
    {
      "midi": 77,
      "hit": false,
      "t": 66496.77862500008,
      "d": 84.61548046875396,
      "v": 64
    },
    {
      "midi": 79,
      "hit": false,
      "t": 66587.25491796884,
      "d": 84.98178124999686,
      "v": 64
    },
    {
      "midi": 80,
      "hit": false,
      "t": 66678.09751171884,
      "d": 90.1099921874993,
      "v": 64
    },
    {
      "midi": 81,
      "hit": false,
      "t": 66774.06831640634,
      "d": 90.47629296875675,
      "v": 67
    },
    {
      "midi": 80,
      "hit": false,
      "t": 66870.4054218751,
      "d": 84.61548046875396,
      "v": 64
    },
    {
      "midi": 79,
      "hit": false,
      "t": 66960.88171484385,
      "d": 84.98178124999686,
      "v": 64
    },
    {
      "midi": 77,
      "hit": false,
      "t": 67051.72430859385,
      "d": 88.2784882812557,
      "v": 64
    },
    {
      "midi": 76,
      "hit": false,
      "t": 67145.86360937511,
      "d": 88.2784882812557,
      "v": 65
    },
    {
      "midi": 74,
      "hit": false,
      "t": 67240.00291015637,
      "d": 84.98178124999686,
      "v": 64
    },
    {
      "midi": 72,
      "hit": false,
      "t": 67330.84550390637,
      "d": 84.98178124999686,
      "v": 64
    },
    {
      "midi": 45,
      "hit": false,
      "t": 67330.84550390641,
      "d": 90.47629296875675,
      "v": 44
    },
    {
      "midi": 48,
      "hit": false,
      "t": 67330.84550390641,
      "d": 90.47629296875675,
      "v": 44
    },
    {
      "midi": 52,
      "hit": false,
      "t": 67330.84550390641,
      "d": 90.47629296875675,
      "v": 44
    },
    {
      "midi": 57,
      "hit": false,
      "t": 67330.84550390641,
      "d": 90.47629296875675,
      "v": 54
    },
    {
      "midi": 71,
      "hit": false,
      "t": 67421.68809765637,
      "d": 89.01108984375605,
      "v": 64
    },
    {
      "midi": 45,
      "hit": false,
      "t": 67421.68809765641,
      "d": 94.5056015625014,
      "v": 44
    },
    {
      "midi": 48,
      "hit": false,
      "t": 67421.68809765641,
      "d": 94.5056015625014,
      "v": 44
    },
    {
      "midi": 52,
      "hit": false,
      "t": 67421.68809765641,
      "d": 94.5056015625014,
      "v": 44
    },
    {
      "midi": 57,
      "hit": false,
      "t": 67421.68809765641,
      "d": 94.5056015625014,
      "v": 54
    },
    {
      "midi": 69,
      "hit": false,
      "t": 67518.02520312513,
      "d": 101.46531640624744,
      "v": 69
    },
    {
      "midi": 45,
      "hit": false,
      "t": 67518.02520312516,
      "d": 756.0448124999966,
      "v": 61
    },
    {
      "midi": 48,
      "hit": false,
      "t": 67518.02520312516,
      "d": 756.0448124999966,
      "v": 61
    },
    {
      "midi": 52,
      "hit": false,
      "t": 67518.02520312516,
      "d": 756.0448124999966,
      "v": 61
    },
    {
      "midi": 57,
      "hit": false,
      "t": 67518.02520312516,
      "d": 756.0448124999966,
      "v": 71
    },
    {
      "midi": 71,
      "hit": false,
      "t": 67625.35133203138,
      "d": 85.34808203125431,
      "v": 64
    },
    {
      "midi": 72,
      "hit": false,
      "t": 67716.56022656264,
      "d": 85.34808203125431,
      "v": 64
    },
    {
      "midi": 74,
      "hit": false,
      "t": 67807.7691210939,
      "d": 89.01108984375605,
      "v": 64
    },
    {
      "midi": 76,
      "hit": false,
      "t": 67902.64102343765,
      "d": 88.6447890624986,
      "v": 65
    },
    {
      "midi": 77,
      "hit": false,
      "t": 67997.14662500015,
      "d": 84.61548046875396,
      "v": 64
    },
    {
      "midi": 79,
      "hit": false,
      "t": 68087.62291796891,
      "d": 84.98178124999686,
      "v": 64
    },
    {
      "midi": 80,
      "hit": false,
      "t": 68178.46551171891,
      "d": 90.1099921874993,
      "v": 64
    },
    {
      "midi": 57,
      "hit": false,
      "t": 68274.4363164064,
      "d": 742.12538281249,
      "v": 69
    },
    {
      "midi": 81,
      "hit": false,
      "t": 68274.43631640641,
      "d": 90.47629296875675,
      "v": 67
    },
    {
      "midi": 83,
      "hit": false,
      "t": 68370.77342187517,
      "d": 84.61548046875396,
      "v": 64
    },
    {
      "midi": 84,
      "hit": false,
      "t": 68461.24971484393,
      "d": 84.98178124999686,
      "v": 64
    },
    {
      "midi": 86,
      "hit": false,
      "t": 68552.09230859393,
      "d": 88.2784882812557,
      "v": 64
    },
    {
      "midi": 84,
      "hit": false,
      "t": 68646.23160937519,
      "d": 88.2784882812557,
      "v": 65
    },
    {
      "midi": 83,
      "hit": false,
      "t": 68740.37091015645,
      "d": 84.98178124999686,
      "v": 64
    },
    {
      "midi": 81,
      "hit": false,
      "t": 68831.21350390645,
      "d": 84.98178124999686,
      "v": 64
    },
    {
      "midi": 80,
      "hit": false,
      "t": 68922.05609765644,
      "d": 89.01108984375605,
      "v": 64
    },
    {
      "midi": 45,
      "hit": false,
      "t": 68948.06345312514,
      "d": 68.49824609374627,
      "v": 56
    },
    {
      "midi": 48,
      "hit": false,
      "t": 68971.50670312514,
      "d": 45.05499609374965,
      "v": 56
    },
    {
      "midi": 52,
      "hit": false,
      "t": 68994.94995312513,
      "d": 21.611746093753027,
      "v": 56
    },
    {
      "midi": 57,
      "hit": false,
      "t": 69018.39320312513,
      "d": 1312.8220000000001,
      "v": 66
    },
    {
      "midi": 81,
      "hit": false,
      "t": 69018.3932031252,
      "d": 101.46531640624744,
      "v": 69
    },
    {
      "midi": 83,
      "hit": false,
      "t": 69125.71933203145,
      "d": 85.34808203125431,
      "v": 64
    },
    {
      "midi": 84,
      "hit": false,
      "t": 69216.92822656271,
      "d": 85.34808203125431,
      "v": 64
    },
    {
      "midi": 86,
      "hit": false,
      "t": 69308.13712109397,
      "d": 89.01108984375605,
      "v": 64
    },
    {
      "midi": 84,
      "hit": false,
      "t": 69403.00902343773,
      "d": 88.6447890624986,
      "v": 65
    },
    {
      "midi": 83,
      "hit": false,
      "t": 69497.51462500023,
      "d": 84.61548046875396,
      "v": 64
    },
    {
      "midi": 81,
      "hit": false,
      "t": 69587.99091796899,
      "d": 84.98178124999686,
      "v": 64
    },
    {
      "midi": 80,
      "hit": false,
      "t": 69678.83351171899,
      "d": 90.1099921874993,
      "v": 64
    },
    {
      "midi": 81,
      "hit": false,
      "t": 69774.80431640649,
      "d": 90.47629296875675,
      "v": 67
    },
    {
      "midi": 80,
      "hit": false,
      "t": 69871.14142187525,
      "d": 84.61548046875396,
      "v": 64
    },
    {
      "midi": 77,
      "hit": false,
      "t": 69961.617714844,
      "d": 84.98178124999686,
      "v": 64
    },
    {
      "midi": 76,
      "hit": false,
      "t": 70052.460308594,
      "d": 88.2784882812557,
      "v": 64
    },
    {
      "midi": 74,
      "hit": false,
      "t": 70146.59960937526,
      "d": 88.2784882812557,
      "v": 65
    },
    {
      "midi": 72,
      "hit": false,
      "t": 70240.73891015652,
      "d": 84.98178124999686,
      "v": 64
    },
    {
      "midi": 45,
      "hit": false,
      "t": 70331.58150390637,
      "d": 90.47629296875675,
      "v": 44
    },
    {
      "midi": 48,
      "hit": false,
      "t": 70331.58150390637,
      "d": 90.47629296875675,
      "v": 44
    },
    {
      "midi": 52,
      "hit": false,
      "t": 70331.58150390637,
      "d": 90.47629296875675,
      "v": 44
    },
    {
      "midi": 57,
      "hit": false,
      "t": 70331.58150390637,
      "d": 90.47629296875675,
      "v": 54
    },
    {
      "midi": 71,
      "hit": false,
      "t": 70331.58150390652,
      "d": 84.98178124999686,
      "v": 64
    },
    {
      "midi": 45,
      "hit": false,
      "t": 70422.42409765637,
      "d": 94.5056015625014,
      "v": 44
    },
    {
      "midi": 48,
      "hit": false,
      "t": 70422.42409765637,
      "d": 94.5056015625014,
      "v": 44
    },
    {
      "midi": 52,
      "hit": false,
      "t": 70422.42409765637,
      "d": 94.5056015625014,
      "v": 44
    },
    {
      "midi": 57,
      "hit": false,
      "t": 70422.42409765637,
      "d": 94.5056015625014,
      "v": 54
    },
    {
      "midi": 70,
      "hit": false,
      "t": 70422.42409765652,
      "d": 89.01108984375605,
      "v": 64
    },
    {
      "midi": 45,
      "hit": false,
      "t": 70518.76120312512,
      "d": 756.0448124999966,
      "v": 61
    },
    {
      "midi": 48,
      "hit": false,
      "t": 70518.76120312512,
      "d": 756.0448124999966,
      "v": 61
    },
    {
      "midi": 52,
      "hit": false,
      "t": 70518.76120312512,
      "d": 756.0448124999966,
      "v": 61
    },
    {
      "midi": 57,
      "hit": false,
      "t": 70518.76120312512,
      "d": 756.0448124999966,
      "v": 71
    },
    {
      "midi": 69,
      "hit": false,
      "t": 70518.76120312528,
      "d": 101.46531640624744,
      "v": 69
    },
    {
      "midi": 71,
      "hit": false,
      "t": 70626.08733203153,
      "d": 85.34808203125431,
      "v": 64
    },
    {
      "midi": 72,
      "hit": false,
      "t": 70717.29622656279,
      "d": 85.34808203125431,
      "v": 64
    },
    {
      "midi": 74,
      "hit": false,
      "t": 70808.50512109404,
      "d": 89.01108984375605,
      "v": 64
    },
    {
      "midi": 76,
      "hit": false,
      "t": 70903.3770234378,
      "d": 88.6447890624986,
      "v": 65
    },
    {
      "midi": 77,
      "hit": false,
      "t": 70997.8826250003,
      "d": 84.61548046875396,
      "v": 64
    },
    {
      "midi": 79,
      "hit": false,
      "t": 71088.35891796906,
      "d": 84.98178124999686,
      "v": 64
    },
    {
      "midi": 80,
      "hit": false,
      "t": 71179.20151171906,
      "d": 90.1099921874993,
      "v": 64
    },
    {
      "midi": 45,
      "hit": false,
      "t": 71275.17231640636,
      "d": 742.12538281249,
      "v": 59
    },
    {
      "midi": 48,
      "hit": false,
      "t": 71275.17231640636,
      "d": 742.12538281249,
      "v": 59
    },
    {
      "midi": 57,
      "hit": false,
      "t": 71275.17231640636,
      "d": 742.12538281249,
      "v": 73
    },
    {
      "midi": 81,
      "hit": false,
      "t": 71275.17231640656,
      "d": 175.4580742187536,
      "v": 67
    },
    {
      "midi": 79,
      "hit": false,
      "t": 71461.98571484406,
      "d": 173.62657031249546,
      "v": 64
    },
    {
      "midi": 77,
      "hit": false,
      "t": 71646.96760937531,
      "d": 173.62657031249546,
      "v": 65
    },
    {
      "midi": 76,
      "hit": false,
      "t": 71831.94950390655,
      "d": 174.3591718749958,
      "v": 64
    },
    {
      "midi": 44,
      "hit": false,
      "t": 71948.7994531251,
      "d": 1383.15174999999,
      "v": 56
    },
    {
      "midi": 47,
      "hit": false,
      "t": 71972.2427031251,
      "d": 1359.7084999999934,
      "v": 56
    },
    {
      "midi": 52,
      "hit": false,
      "t": 71995.6859531251,
      "d": 21.611746093753027,
      "v": 56
    },
    {
      "midi": 56,
      "hit": false,
      "t": 72019.12920312509,
      "d": 1312.8220000000001,
      "v": 70
    },
    {
      "midi": 68,
      "hit": false,
      "t": 72019.1292031253,
      "d": 101.46531640624744,
      "v": 69
    },
    {
      "midi": 69,
      "hit": false,
      "t": 72126.45533203155,
      "d": 85.34808203125431,
      "v": 64
    },
    {
      "midi": 71,
      "hit": false,
      "t": 72217.6642265628,
      "d": 85.34808203125431,
      "v": 64
    },
    {
      "midi": 72,
      "hit": false,
      "t": 72308.87312109406,
      "d": 89.01108984375605,
      "v": 64
    },
    {
      "midi": 74,
      "hit": false,
      "t": 72403.74502343782,
      "d": 88.6447890624986,
      "v": 65
    },
    {
      "midi": 76,
      "hit": false,
      "t": 72498.25062500032,
      "d": 84.61548046875396,
      "v": 64
    },
    {
      "midi": 77,
      "hit": false,
      "t": 72588.72691796908,
      "d": 84.98178124999686,
      "v": 64
    },
    {
      "midi": 79,
      "hit": false,
      "t": 72679.56951171908,
      "d": 90.1099921874993,
      "v": 64
    },
    {
      "midi": 81,
      "hit": false,
      "t": 72775.54031640658,
      "d": 90.47629296875675,
      "v": 67
    },
    {
      "midi": 83,
      "hit": false,
      "t": 72871.87742187534,
      "d": 84.61548046875396,
      "v": 64
    },
    {
      "midi": 84,
      "hit": false,
      "t": 72962.3537148441,
      "d": 84.98178124999686,
      "v": 64
    },
    {
      "midi": 86,
      "hit": false,
      "t": 73053.1963085941,
      "d": 88.2784882812557,
      "v": 64
    },
    {
      "midi": 84,
      "hit": false,
      "t": 73147.33560937535,
      "d": 88.2784882812557,
      "v": 65
    },
    {
      "midi": 83,
      "hit": false,
      "t": 73241.47491015661,
      "d": 84.98178124999686,
      "v": 64
    },
    {
      "midi": 44,
      "hit": false,
      "t": 73332.31750390634,
      "d": 90.47629296875675,
      "v": 44
    },
    {
      "midi": 47,
      "hit": false,
      "t": 73332.31750390634,
      "d": 90.47629296875675,
      "v": 44
    },
    {
      "midi": 52,
      "hit": false,
      "t": 73332.31750390634,
      "d": 90.47629296875675,
      "v": 44
    },
    {
      "midi": 56,
      "hit": false,
      "t": 73332.31750390634,
      "d": 90.47629296875675,
      "v": 54
    },
    {
      "midi": 81,
      "hit": false,
      "t": 73332.31750390661,
      "d": 84.98178124999686,
      "v": 64
    },
    {
      "midi": 44,
      "hit": false,
      "t": 73423.16009765633,
      "d": 94.5056015625014,
      "v": 44
    },
    {
      "midi": 47,
      "hit": false,
      "t": 73423.16009765633,
      "d": 94.5056015625014,
      "v": 44
    },
    {
      "midi": 52,
      "hit": false,
      "t": 73423.16009765633,
      "d": 94.5056015625014,
      "v": 44
    },
    {
      "midi": 56,
      "hit": false,
      "t": 73423.16009765633,
      "d": 94.5056015625014,
      "v": 54
    },
    {
      "midi": 77,
      "hit": false,
      "t": 73423.16009765661,
      "d": 89.01108984375605,
      "v": 64
    },
    {
      "midi": 44,
      "hit": false,
      "t": 73519.49720312508,
      "d": 756.0448124999966,
      "v": 61
    },
    {
      "midi": 47,
      "hit": false,
      "t": 73519.49720312508,
      "d": 756.0448124999966,
      "v": 61
    },
    {
      "midi": 52,
      "hit": false,
      "t": 73519.49720312508,
      "d": 756.0448124999966,
      "v": 61
    },
    {
      "midi": 56,
      "hit": false,
      "t": 73519.49720312508,
      "d": 756.0448124999966,
      "v": 71
    },
    {
      "midi": 76,
      "hit": false,
      "t": 73519.49720312537,
      "d": 101.46531640624744,
      "v": 69
    },
    {
      "midi": 74,
      "hit": false,
      "t": 73626.82333203162,
      "d": 85.34808203125431,
      "v": 64
    },
    {
      "midi": 72,
      "hit": false,
      "t": 73718.03222656288,
      "d": 85.34808203125431,
      "v": 64
    },
    {
      "midi": 71,
      "hit": false,
      "t": 73809.24112109414,
      "d": 89.01108984375605,
      "v": 64
    },
    {
      "midi": 74,
      "hit": false,
      "t": 73904.1130234379,
      "d": 88.6447890624986,
      "v": 65
    },
    {
      "midi": 72,
      "hit": false,
      "t": 73998.6186250004,
      "d": 84.61548046875396,
      "v": 64
    },
    {
      "midi": 71,
      "hit": false,
      "t": 74089.09491796915,
      "d": 84.98178124999686,
      "v": 64
    },
    {
      "midi": 69,
      "hit": false,
      "t": 74179.93751171915,
      "d": 90.1099921874993,
      "v": 64
    },
    {
      "midi": 56,
      "hit": false,
      "t": 74275.90831640632,
      "d": 742.12538281249,
      "v": 69
    },
    {
      "midi": 72,
      "hit": false,
      "t": 74275.90831640665,
      "d": 90.47629296875675,
      "v": 67
    },
    {
      "midi": 71,
      "hit": false,
      "t": 74372.24542187541,
      "d": 84.61548046875396,
      "v": 64
    },
    {
      "midi": 69,
      "hit": false,
      "t": 74462.72171484417,
      "d": 84.98178124999686,
      "v": 64
    },
    {
      "midi": 68,
      "hit": false,
      "t": 74553.56430859417,
      "d": 88.2784882812557,
      "v": 64
    },
    {
      "midi": 71,
      "hit": false,
      "t": 74647.70360937543,
      "d": 88.2784882812557,
      "v": 65
    },
    {
      "midi": 69,
      "hit": false,
      "t": 74741.84291015669,
      "d": 84.98178124999686,
      "v": 64
    },
    {
      "midi": 68,
      "hit": false,
      "t": 74832.68550390669,
      "d": 84.98178124999686,
      "v": 64
    },
    {
      "midi": 65,
      "hit": false,
      "t": 74923.52809765669,
      "d": 89.01108984375605,
      "v": 64
    },
    {
      "midi": 44,
      "hit": false,
      "t": 74949.53545312506,
      "d": 68.49824609374627,
      "v": 56
    },
    {
      "midi": 47,
      "hit": false,
      "t": 74972.97870312506,
      "d": 45.05499609374965,
      "v": 56
    },
    {
      "midi": 52,
      "hit": false,
      "t": 74996.42195312506,
      "d": 21.611746093753027,
      "v": 56
    },
    {
      "midi": 56,
      "hit": false,
      "t": 75019.86520312505,
      "d": 1312.8220000000001,
      "v": 66
    },
    {
      "midi": 64,
      "hit": false,
      "t": 75019.86520312545,
      "d": 101.46531640624744,
      "v": 69
    },
    {
      "midi": 65,
      "hit": false,
      "t": 75127.1913320317,
      "d": 85.34808203125431,
      "v": 64
    },
    {
      "midi": 64,
      "hit": false,
      "t": 75218.40022656295,
      "d": 85.34808203125431,
      "v": 64
    },
    {
      "midi": 63,
      "hit": false,
      "t": 75309.60912109421,
      "d": 89.01108984375605,
      "v": 64
    },
    {
      "midi": 64,
      "hit": false,
      "t": 75404.48102343797,
      "d": 88.6447890624986,
      "v": 65
    },
    {
      "midi": 65,
      "hit": false,
      "t": 75498.98662500047,
      "d": 84.61548046875396,
      "v": 64
    },
    {
      "midi": 64,
      "hit": false,
      "t": 75589.46291796923,
      "d": 84.98178124999686,
      "v": 64
    },
    {
      "midi": 63,
      "hit": false,
      "t": 75680.30551171923,
      "d": 90.1099921874993,
      "v": 64
    },
    {
      "midi": 64,
      "hit": false,
      "t": 75776.27631640673,
      "d": 90.47629296875675,
      "v": 67
    },
    {
      "midi": 76,
      "hit": false,
      "t": 75776.27631640673,
      "d": 371.428992187517,
      "v": 67
    },
    {
      "midi": 65,
      "hit": false,
      "t": 75872.61342187549,
      "d": 84.61548046875396,
      "v": 64
    },
    {
      "midi": 64,
      "hit": false,
      "t": 75963.08971484425,
      "d": 84.98178124999686,
      "v": 64
    },
    {
      "midi": 63,
      "hit": false,
      "t": 76053.93230859425,
      "d": 88.2784882812557,
      "v": 64
    },
    {
      "midi": 64,
      "hit": false,
      "t": 76148.07160937549,
      "d": 88.2784882812557,
      "v": 65
    },
    {
      "midi": 76,
      "hit": false,
      "t": 76148.07160937549,
      "d": 370.3300898437592,
      "v": 65
    },
    {
      "midi": 65,
      "hit": false,
      "t": 76242.21091015675,
      "d": 84.98178124999686,
      "v": 64
    },
    {
      "midi": 44,
      "hit": false,
      "t": 76333.0535039063,
      "d": 90.47629296875675,
      "v": 44
    },
    {
      "midi": 47,
      "hit": false,
      "t": 76333.0535039063,
      "d": 90.47629296875675,
      "v": 44
    },
    {
      "midi": 52,
      "hit": false,
      "t": 76333.0535039063,
      "d": 90.47629296875675,
      "v": 44
    },
    {
      "midi": 56,
      "hit": false,
      "t": 76333.0535039063,
      "d": 90.47629296875675,
      "v": 54
    },
    {
      "midi": 64,
      "hit": false,
      "t": 76333.05350390675,
      "d": 84.98178124999686,
      "v": 64
    },
    {
      "midi": 44,
      "hit": false,
      "t": 76423.8960976563,
      "d": 94.5056015625014,
      "v": 44
    },
    {
      "midi": 47,
      "hit": false,
      "t": 76423.8960976563,
      "d": 94.5056015625014,
      "v": 44
    },
    {
      "midi": 52,
      "hit": false,
      "t": 76423.8960976563,
      "d": 94.5056015625014,
      "v": 44
    },
    {
      "midi": 56,
      "hit": false,
      "t": 76423.8960976563,
      "d": 94.5056015625014,
      "v": 54
    },
    {
      "midi": 63,
      "hit": false,
      "t": 76423.89609765675,
      "d": 89.01108984375605,
      "v": 64
    },
    {
      "midi": 44,
      "hit": false,
      "t": 76520.23320312504,
      "d": 756.0448125000257,
      "v": 61
    },
    {
      "midi": 47,
      "hit": false,
      "t": 76520.23320312504,
      "d": 756.0448125000257,
      "v": 61
    },
    {
      "midi": 52,
      "hit": false,
      "t": 76520.23320312504,
      "d": 756.0448125000257,
      "v": 61
    },
    {
      "midi": 56,
      "hit": false,
      "t": 76520.23320312504,
      "d": 756.0448125000257,
      "v": 71
    },
    {
      "midi": 76,
      "hit": false,
      "t": 76520.23320312549,
      "d": 101.46531640624744,
      "v": 69
    },
    {
      "midi": 88,
      "hit": false,
      "t": 76520.23320312549,
      "d": 384.24951953126583,
      "v": 69
    },
    {
      "midi": 65,
      "hit": false,
      "t": 76627.55933203129,
      "d": 85.34808203125431,
      "v": 64
    },
    {
      "midi": 77,
      "hit": false,
      "t": 76627.55933203174,
      "d": 85.34808203125431,
      "v": 64
    },
    {
      "midi": 64,
      "hit": false,
      "t": 76718.76822656255,
      "d": 85.34808203125431,
      "v": 64
    },
    {
      "midi": 76,
      "hit": false,
      "t": 76718.768226563,
      "d": 85.34808203125431,
      "v": 64
    },
    {
      "midi": 63,
      "hit": false,
      "t": 76809.9771210938,
      "d": 89.01108984375605,
      "v": 64
    },
    {
      "midi": 75,
      "hit": false,
      "t": 76809.97712109426,
      "d": 89.01108984375605,
      "v": 64
    },
    {
      "midi": 64,
      "hit": false,
      "t": 76904.84902343756,
      "d": 88.6447890624986,
      "v": 65
    },
    {
      "midi": 76,
      "hit": false,
      "t": 76904.849023438,
      "d": 88.6447890624986,
      "v": 65
    },
    {
      "midi": 88,
      "hit": false,
      "t": 76904.849023438,
      "d": 371.42899218750244,
      "v": 65
    },
    {
      "midi": 65,
      "hit": false,
      "t": 76999.35462500007,
      "d": 84.61548046875396,
      "v": 64
    },
    {
      "midi": 77,
      "hit": false,
      "t": 76999.3546250005,
      "d": 84.61548046875396,
      "v": 64
    },
    {
      "midi": 66,
      "hit": false,
      "t": 77089.83091796882,
      "d": 84.98178124999686,
      "v": 64
    },
    {
      "midi": 78,
      "hit": false,
      "t": 77089.83091796926,
      "d": 84.98178124999686,
      "v": 64
    },
    {
      "midi": 67,
      "hit": false,
      "t": 77180.67351171882,
      "d": 90.1099921874993,
      "v": 64
    },
    {
      "midi": 79,
      "hit": false,
      "t": 77180.67351171926,
      "d": 90.1099921874993,
      "v": 64
    },
    {
      "midi": 44,
      "hit": false,
      "t": 77276.64431640631,
      "d": 742.1253828125191,
      "v": 59
    },
    {
      "midi": 47,
      "hit": false,
      "t": 77276.64431640631,
      "d": 742.1253828125191,
      "v": 59
    },
    {
      "midi": 52,
      "hit": false,
      "t": 77276.64431640631,
      "d": 742.1253828125191,
      "v": 59
    },
    {
      "midi": 56,
      "hit": false,
      "t": 77276.64431640631,
      "d": 742.1253828125191,
      "v": 69
    },
    {
      "midi": 80,
      "hit": false,
      "t": 77276.64431640675,
      "d": 90.47629296875675,
      "v": 67
    },
    {
      "midi": 67,
      "hit": false,
      "t": 77372.98142187505,
      "d": 84.61548046875396,
      "v": 64
    },
    {
      "midi": 79,
      "hit": false,
      "t": 77372.9814218755,
      "d": 84.61548046875396,
      "v": 64
    },
    {
      "midi": 66,
      "hit": false,
      "t": 77463.45771484381,
      "d": 84.98178124999686,
      "v": 64
    },
    {
      "midi": 78,
      "hit": false,
      "t": 77463.45771484426,
      "d": 84.98178124999686,
      "v": 64
    },
    {
      "midi": 65,
      "hit": false,
      "t": 77554.30030859381,
      "d": 88.2784882812557,
      "v": 64
    },
    {
      "midi": 77,
      "hit": false,
      "t": 77554.30030859426,
      "d": 88.2784882812557,
      "v": 64
    },
    {
      "midi": 64,
      "hit": false,
      "t": 77648.43960937507,
      "d": 88.2784882812557,
      "v": 65
    },
    {
      "midi": 76,
      "hit": false,
      "t": 77648.43960937552,
      "d": 88.2784882812557,
      "v": 65
    },
    {
      "midi": 65,
      "hit": false,
      "t": 77742.57891015633,
      "d": 84.98178124999686,
      "v": 64
    },
    {
      "midi": 77,
      "hit": false,
      "t": 77742.57891015678,
      "d": 84.98178124999686,
      "v": 64
    },
    {
      "midi": 66,
      "hit": false,
      "t": 77833.42150390633,
      "d": 84.98178124999686,
      "v": 64
    },
    {
      "midi": 78,
      "hit": false,
      "t": 77833.42150390678,
      "d": 84.98178124999686,
      "v": 64
    },
    {
      "midi": 68,
      "hit": false,
      "t": 77924.26409765633,
      "d": 89.01108984375605,
      "v": 64
    },
    {
      "midi": 80,
      "hit": false,
      "t": 77924.26409765678,
      "d": 89.01108984375605,
      "v": 64
    }
  ]
}