{
  "jsonPath": "Soul/Funk/The Undisputed Truth/ball-of-confusion-thats-what-the-world-is-today.json",
  "path": "Soul\\Funk\\The Undisputed Truth\\Ball Of Confusion (Thats What The World Is Today).mid",
  "name": "Ball Of Confusion (Thats What The World Is Today)",
  "difficulty": "Advanced",
  "bpm": 80,
  "notes": [
    {
      "midi": 48,
      "hit": false,
      "t": 33000,
      "d": 742.1875,
      "v": 102
    },
    {
      "midi": 46,
      "hit": false,
      "t": 33750,
      "d": 742.1875,
      "v": 104
    },
    {
      "midi": 43,
      "hit": false,
      "t": 34500,
      "d": 367.1875,
      "v": 106
    },
    {
      "midi": 43,
      "hit": false,
      "t": 34875,
      "d": 179.6875,
      "v": 87
    },
    {
      "midi": 43,
      "hit": false,
      "t": 35062.5,
      "d": 179.6875,
      "v": 100
    },
    {
      "midi": 43,
      "hit": false,
      "t": 35250,
      "d": 179.6875,
      "v": 95
    },
    {
      "midi": 43,
      "hit": false,
      "t": 35437.5,
      "d": 367.1875,
      "v": 106
    },
    {
      "midi": 36,
      "hit": false,
      "t": 35812.5,
      "d": 1304.6875,
      "v": 112
    },
    {
      "midi": 48,
      "hit": false,
      "t": 45000,
      "d": 179.6875,
      "v": 90
    },
    {
      "midi": 64,
      "hit": false,
      "t": 45000,
      "d": 179.6875,
      "v": 73
    },
    {
      "midi": 67,
      "hit": false,
      "t": 45000,
      "d": 179.6875,
      "v": 77
    },
    {
      "midi": 72,
      "hit": false,
      "t": 45000,
      "d": 179.6875,
      "v": 77
    },
    {
      "midi": 64,
      "hit": false,
      "t": 45187.5,
      "d": 1304.6875,
      "v": 61
    },
    {
      "midi": 67,
      "hit": false,
      "t": 45187.5,
      "d": 1304.6875,
      "v": 66
    },
    {
      "midi": 72,
      "hit": false,
      "t": 45187.5,
      "d": 1304.6875,
      "v": 69
    },
    {
      "midi": 48,
      "hit": false,
      "t": 45187.5,
      "d": 1312.5,
      "v": 70
    },
    {
      "midi": 46,
      "hit": false,
      "t": 46500,
      "d": 179.6875,
      "v": 85
    },
    {
      "midi": 63,
      "hit": false,
      "t": 46500,
      "d": 179.6875,
      "v": 90
    },
    {
      "midi": 67,
      "hit": false,
      "t": 46500,
      "d": 179.6875,
      "v": 85
    },
    {
      "midi": 70,
      "hit": false,
      "t": 46500,
      "d": 179.6875,
      "v": 88
    },
    {
      "midi": 43,
      "hit": false,
      "t": 46687.5,
      "d": 367.1875,
      "v": 75
    },
    {
      "midi": 60,
      "hit": false,
      "t": 46687.5,
      "d": 367.1875,
      "v": 78
    },
    {
      "midi": 64,
      "hit": false,
      "t": 46687.5,
      "d": 367.1875,
      "v": 76
    },
    {
      "midi": 67,
      "hit": false,
      "t": 46687.5,
      "d": 367.1875,
      "v": 79
    },
    {
      "midi": 39,
      "hit": false,
      "t": 47625,
      "d": 179.6875,
      "v": 101
    },
    {
      "midi": 57,
      "hit": false,
      "t": 47625,
      "d": 179.6875,
      "v": 96
    },
    {
      "midi": 60,
      "hit": false,
      "t": 47625,
      "d": 179.6875,
      "v": 96
    },
    {
      "midi": 63,
      "hit": false,
      "t": 47625,
      "d": 179.6875,
      "v": 96
    },
    {
      "midi": 36,
      "hit": false,
      "t": 47812.5,
      "d": 375,
      "v": 93
    },
    {
      "midi": 55,
      "hit": false,
      "t": 47812.5,
      "d": 375,
      "v": 82
    },
    {
      "midi": 58,
      "hit": false,
      "t": 47812.5,
      "d": 375,
      "v": 82
    },
    {
      "midi": 60,
      "hit": false,
      "t": 47812.5,
      "d": 375,
      "v": 85
    },
    {
      "midi": 36,
      "hit": false,
      "t": 54000,
      "d": 179.6875,
      "v": 91
    },
    {
      "midi": 55,
      "hit": false,
      "t": 54000,
      "d": 179.6875,
      "v": 85
    },
    {
      "midi": 58,
      "hit": false,
      "t": 54000,
      "d": 179.6875,
      "v": 93
    },
    {
      "midi": 63,
      "hit": false,
      "t": 54000,
      "d": 179.6875,
      "v": 101
    },
    {
      "midi": 36,
      "hit": false,
      "t": 54187.5,
      "d": 375,
      "v": 104
    },
    {
      "midi": 55,
      "hit": false,
      "t": 54187.5,
      "d": 375,
      "v": 88
    },
    {
      "midi": 58,
      "hit": false,
      "t": 54187.5,
      "d": 375,
      "v": 87
    },
    {
      "midi": 60,
      "hit": false,
      "t": 54187.5,
      "d": 375,
      "v": 97
    },
    {
      "midi": 36,
      "hit": false,
      "t": 60000,
      "d": 179.6875,
      "v": 91
    },
    {
      "midi": 55,
      "hit": false,
      "t": 60000,
      "d": 179.6875,
      "v": 85
    },
    {
      "midi": 58,
      "hit": false,
      "t": 60000,
      "d": 179.6875,
      "v": 93
    },
    {
      "midi": 63,
      "hit": false,
      "t": 60000,
      "d": 179.6875,
      "v": 101
    },
    {
      "midi": 36,
      "hit": false,
      "t": 60187.5,
      "d": 375,
      "v": 104
    },
    {
      "midi": 55,
      "hit": false,
      "t": 60187.5,
      "d": 375,
      "v": 88
    },
    {
      "midi": 58,
      "hit": false,
      "t": 60187.5,
      "d": 375,
      "v": 87
    },
    {
      "midi": 60,
      "hit": false,
      "t": 60187.5,
      "d": 375,
      "v": 97
    },
    {
      "midi": 48,
      "hit": false,
      "t": 69000,
      "d": 171.875,
      "v": 108
    },
    {
      "midi": 64,
      "hit": false,
      "t": 69000,
      "d": 171.875,
      "v": 108
    },
    {
      "midi": 67,
      "hit": false,
      "t": 69000,
      "d": 171.875,
      "v": 114
    },
    {
      "midi": 72,
      "hit": false,
      "t": 69000,
      "d": 171.875,
      "v": 87
    },
    {
      "midi": 48,
      "hit": false,
      "t": 69187.5,
      "d": 171.875,
      "v": 87
    },
    {
      "midi": 64,
      "hit": false,
      "t": 69187.5,
      "d": 171.875,
      "v": 88
    },
    {
      "midi": 67,
      "hit": false,
      "t": 69187.5,
      "d": 171.875,
      "v": 85
    },
    {
      "midi": 72,
      "hit": false,
      "t": 69187.5,
      "d": 171.875,
      "v": 78
    },
    {
      "midi": 48,
      "hit": false,
      "t": 69375,
      "d": 171.875,
      "v": 100
    },
    {
      "midi": 64,
      "hit": false,
      "t": 69375,
      "d": 171.875,
      "v": 80
    },
    {
      "midi": 67,
      "hit": false,
      "t": 69375,
      "d": 171.875,
      "v": 102
    },
    {
      "midi": 72,
      "hit": false,
      "t": 69375,
      "d": 171.875,
      "v": 90
    },
    {
      "midi": 62,
      "hit": false,
      "t": 69562.5,
      "d": 367.1875,
      "v": 98
    },
    {
      "midi": 65,
      "hit": false,
      "t": 69562.5,
      "d": 367.1875,
      "v": 97
    },
    {
      "midi": 70,
      "hit": false,
      "t": 69562.5,
      "d": 367.1875,
      "v": 97
    },
    {
      "midi": 46,
      "hit": false,
      "t": 69562.5,
      "d": 375,
      "v": 97
    },
    {
      "midi": 48,
      "hit": false,
      "t": 69937.5,
      "d": 3179.6875,
      "v": 108
    },
    {
      "midi": 64,
      "hit": false,
      "t": 69937.5,
      "d": 3179.6875,
      "v": 100
    },
    {
      "midi": 67,
      "hit": false,
      "t": 69937.5,
      "d": 3179.6875,
      "v": 114
    },
    {
      "midi": 72,
      "hit": false,
      "t": 69937.5,
      "d": 3179.6875,
      "v": 90
    },
    {
      "midi": 43,
      "hit": false,
      "t": 74625,
      "d": 93.75,
      "v": 80
    },
    {
      "midi": 46,
      "hit": false,
      "t": 74820.3125,
      "d": 70.3125,
      "v": 63
    },
    {
      "midi": 48,
      "hit": false,
      "t": 75000,
      "d": 93.75,
      "v": 98
    },
    {
      "midi": 48,
      "hit": false,
      "t": 75195.3125,
      "d": 140.625,
      "v": 84
    },
    {
      "midi": 46,
      "hit": false,
      "t": 75570.3125,
      "d": 54.6875,
      "v": 61
    },
    {
      "midi": 48,
      "hit": false,
      "t": 75750,
      "d": 132.8125,
      "v": 91
    },
    {
      "midi": 48,
      "hit": false,
      "t": 75945.3125,
      "d": 140.625,
      "v": 90
    },
    {
      "midi": 46,
      "hit": false,
      "t": 76320.3125,
      "d": 78.125,
      "v": 58
    },
    {
      "midi": 48,
      "hit": false,
      "t": 76500,
      "d": 304.6875,
      "v": 98
    },
    {
      "midi": 64,
      "hit": false,
      "t": 76875,
      "d": 375,
      "v": 95
    },
    {
      "midi": 67,
      "hit": false,
      "t": 76875,
      "d": 375,
      "v": 100
    },
    {
      "midi": 70,
      "hit": false,
      "t": 76875,
      "d": 375,
      "v": 91
    },
    {
      "midi": 72,
      "hit": false,
      "t": 76875,
      "d": 375,
      "v": 95
    },
    {
      "midi": 46,
      "hit": false,
      "t": 76875,
      "d": 187.5,
      "v": 58
    },
    {
      "midi": 48,
      "hit": false,
      "t": 77250,
      "d": 304.6875,
      "v": 94
    },
    {
      "midi": 62,
      "hit": false,
      "t": 77625,
      "d": 367.1875,
      "v": 87
    },
    {
      "midi": 65,
      "hit": false,
      "t": 77625,
      "d": 367.1875,
      "v": 98
    },
    {
      "midi": 69,
      "hit": false,
      "t": 77625,
      "d": 367.1875,
      "v": 98
    },
    {
      "midi": 51,
      "hit": false,
      "t": 77625,
      "d": 171.875,
      "v": 87
    },
    {
      "midi": 46,
      "hit": false,
      "t": 77820.3125,
      "d": 78.125,
      "v": 64
    },
    {
      "midi": 60,
      "hit": false,
      "t": 78000,
      "d": 375,
      "v": 79
    },
    {
      "midi": 64,
      "hit": false,
      "t": 78000,
      "d": 375,
      "v": 69
    },
    {
      "midi": 67,
      "hit": false,
      "t": 78000,
      "d": 375,
      "v": 76
    },
    {
      "midi": 48,
      "hit": false,
      "t": 78000,
      "d": 125,
      "v": 80
    },
    {
      "midi": 48,
      "hit": false,
      "t": 78195.3125,
      "d": 164.0625,
      "v": 70
    },
    {
      "midi": 46,
      "hit": false,
      "t": 78570.3125,
      "d": 54.6875,
      "v": 61
    },
    {
      "midi": 48,
      "hit": false,
      "t": 78750,
      "d": 109.375,
      "v": 95
    },
    {
      "midi": 48,
      "hit": false,
      "t": 78945.3125,
      "d": 171.875,
      "v": 75
    },
    {
      "midi": 46,
      "hit": false,
      "t": 79320.3125,
      "d": 54.6875,
      "v": 43
    },
    {
      "midi": 48,
      "hit": false,
      "t": 79500,
      "d": 304.6875,
      "v": 100
    },
    {
      "midi": 46,
      "hit": false,
      "t": 79875,
      "d": 179.6875,
      "v": 55
    },
    {
      "midi": 48,
      "hit": false,
      "t": 80250,
      "d": 320.3125,
      "v": 95
    },
    {
      "midi": 43,
      "hit": false,
      "t": 80625,
      "d": 164.0625,
      "v": 62
    },
    {
      "midi": 46,
      "hit": false,
      "t": 80820.3125,
      "d": 101.5625,
      "v": 70
    },
    {
      "midi": 48,
      "hit": false,
      "t": 81000,
      "d": 85.9375,
      "v": 106
    },
    {
      "midi": 48,
      "hit": false,
      "t": 81195.3125,
      "d": 171.875,
      "v": 88
    },
    {
      "midi": 46,
      "hit": false,
      "t": 81570.3125,
      "d": 62.5,
      "v": 61
    },
    {
      "midi": 48,
      "hit": false,
      "t": 81750,
      "d": 132.8125,
      "v": 104
    },
    {
      "midi": 48,
      "hit": false,
      "t": 81945.3125,
      "d": 179.6875,
      "v": 85
    },
    {
      "midi": 46,
      "hit": false,
      "t": 82320.3125,
      "d": 54.6875,
      "v": 59
    },
    {
      "midi": 48,
      "hit": false,
      "t": 82500,
      "d": 328.125,
      "v": 102
    },
    {
      "midi": 46,
      "hit": false,
      "t": 82875,
      "d": 171.875,
      "v": 64
    },
    {
      "midi": 48,
      "hit": false,
      "t": 83250,
      "d": 335.9375,
      "v": 88
    },
    {
      "midi": 51,
      "hit": false,
      "t": 83625,
      "d": 171.875,
      "v": 83
    },
    {
      "midi": 46,
      "hit": false,
      "t": 83820.3125,
      "d": 78.125,
      "v": 72
    },
    {
      "midi": 48,
      "hit": false,
      "t": 84000,
      "d": 125,
      "v": 73
    },
    {
      "midi": 48,
      "hit": false,
      "t": 84195.3125,
      "d": 179.6875,
      "v": 80
    },
    {
      "midi": 46,
      "hit": false,
      "t": 84570.3125,
      "d": 78.125,
      "v": 59
    },
    {
      "midi": 48,
      "hit": false,
      "t": 84750,
      "d": 140.625,
      "v": 95
    },
    {
      "midi": 48,
      "hit": false,
      "t": 84945.3125,
      "d": 140.625,
      "v": 79
    },
    {
      "midi": 46,
      "hit": false,
      "t": 85320.3125,
      "d": 101.5625,
      "v": 53
    },
    {
      "midi": 48,
      "hit": false,
      "t": 85500,
      "d": 312.5,
      "v": 100
    },
    {
      "midi": 46,
      "hit": false,
      "t": 85875,
      "d": 125,
      "v": 54
    },
    {
      "midi": 48,
      "hit": false,
      "t": 86250,
      "d": 296.875,
      "v": 95
    },
    {
      "midi": 43,
      "hit": false,
      "t": 86625,
      "d": 156.25,
      "v": 67
    },
    {
      "midi": 46,
      "hit": false,
      "t": 86820.3125,
      "d": 117.1875,
      "v": 65
    },
    {
      "midi": 48,
      "hit": false,
      "t": 87000,
      "d": 85.9375,
      "v": 102
    },
    {
      "midi": 48,
      "hit": false,
      "t": 87195.3125,
      "d": 203.125,
      "v": 85
    },
    {
      "midi": 46,
      "hit": false,
      "t": 87570.3125,
      "d": 85.9375,
      "v": 67
    },
    {
      "midi": 48,
      "hit": false,
      "t": 87750,
      "d": 125,
      "v": 100
    },
    {
      "midi": 48,
      "hit": false,
      "t": 87945.3125,
      "d": 164.0625,
      "v": 72
    },
    {
      "midi": 46,
      "hit": false,
      "t": 88320.3125,
      "d": 85.9375,
      "v": 56
    },
    {
      "midi": 48,
      "hit": false,
      "t": 88500,
      "d": 304.6875,
      "v": 86
    },
    {
      "midi": 46,
      "hit": false,
      "t": 88875,
      "d": 226.5625,
      "v": 54
    },
    {
      "midi": 48,
      "hit": false,
      "t": 89250,
      "d": 335.9375,
      "v": 83
    },
    {
      "midi": 51,
      "hit": false,
      "t": 89625,
      "d": 140.625,
      "v": 95
    },
    {
      "midi": 46,
      "hit": false,
      "t": 89820.3125,
      "d": 132.8125,
      "v": 44
    },
    {
      "midi": 48,
      "hit": false,
      "t": 90000,
      "d": 78.125,
      "v": 89
    },
    {
      "midi": 48,
      "hit": false,
      "t": 90195.3125,
      "d": 210.9375,
      "v": 73
    },
    {
      "midi": 46,
      "hit": false,
      "t": 90570.3125,
      "d": 62.5,
      "v": 56
    },
    {
      "midi": 48,
      "hit": false,
      "t": 90750,
      "d": 117.1875,
      "v": 92
    },
    {
      "midi": 48,
      "hit": false,
      "t": 90945.3125,
      "d": 187.5,
      "v": 83
    },
    {
      "midi": 46,
      "hit": false,
      "t": 91320.3125,
      "d": 46.875,
      "v": 49
    },
    {
      "midi": 48,
      "hit": false,
      "t": 91500,
      "d": 343.75,
      "v": 100
    },
    {
      "midi": 46,
      "hit": false,
      "t": 91875,
      "d": 187.5,
      "v": 64
    },
    {
      "midi": 48,
      "hit": false,
      "t": 92250,
      "d": 250,
      "v": 104
    },
    {
      "midi": 43,
      "hit": false,
      "t": 92625,
      "d": 156.25,
      "v": 66
    },
    {
      "midi": 46,
      "hit": false,
      "t": 92812.5,
      "d": 179.6875,
      "v": 84
    },
    {
      "midi": 55,
      "hit": false,
      "t": 92812.5,
      "d": 554.6875,
      "v": 86
    },
    {
      "midi": 60,
      "hit": false,
      "t": 92812.5,
      "d": 554.6875,
      "v": 95
    },
    {
      "midi": 64,
      "hit": false,
      "t": 92812.5,
      "d": 554.6875,
      "v": 92
    },
    {
      "midi": 46,
      "hit": false,
      "t": 92820.3125,
      "d": 109.375,
      "v": 56
    },
    {
      "midi": 48,
      "hit": false,
      "t": 93000,
      "d": 367.1875,
      "v": 84
    },
    {
      "midi": 48,
      "hit": false,
      "t": 93000,
      "d": 93.75,
      "v": 98
    },
    {
      "midi": 48,
      "hit": false,
      "t": 93195.3125,
      "d": 140.625,
      "v": 84
    },
    {
      "midi": 46,
      "hit": false,
      "t": 93570.3125,
      "d": 54.6875,
      "v": 61
    },
    {
      "midi": 48,
      "hit": false,
      "t": 93750,
      "d": 132.8125,
      "v": 91
    },
    {
      "midi": 48,
      "hit": false,
      "t": 93945.3125,
      "d": 140.625,
      "v": 90
    },
    {
      "midi": 46,
      "hit": false,
      "t": 94320.3125,
      "d": 78.125,
      "v": 58
    },
    {
      "midi": 48,
      "hit": false,
      "t": 94500,
      "d": 304.6875,
      "v": 98
    },
    {
      "midi": 46,
      "hit": false,
      "t": 94875,
      "d": 187.5,
      "v": 58
    },
    {
      "midi": 48,
      "hit": false,
      "t": 95250,
      "d": 304.6875,
      "v": 94
    },
    {
      "midi": 51,
      "hit": false,
      "t": 95625,
      "d": 171.875,
      "v": 87
    },
    {
      "midi": 46,
      "hit": false,
      "t": 95820.3125,
      "d": 78.125,
      "v": 64
    },
    {
      "midi": 48,
      "hit": false,
      "t": 96000,
      "d": 125,
      "v": 80
    },
    {
      "midi": 48,
      "hit": false,
      "t": 96195.3125,
      "d": 164.0625,
      "v": 70
    },
    {
      "midi": 46,
      "hit": false,
      "t": 96570.3125,
      "d": 54.6875,
      "v": 61
    },
    {
      "midi": 48,
      "hit": false,
      "t": 96750,
      "d": 109.375,
      "v": 95
    },
    {
      "midi": 48,
      "hit": false,
      "t": 96945.3125,
      "d": 171.875,
      "v": 75
    },
    {
      "midi": 46,
      "hit": false,
      "t": 97320.3125,
      "d": 54.6875,
      "v": 43
    },
    {
      "midi": 48,
      "hit": false,
      "t": 97500,
      "d": 304.6875,
      "v": 100
    },
    {
      "midi": 46,
      "hit": false,
      "t": 97875,
      "d": 179.6875,
      "v": 55
    },
    {
      "midi": 48,
      "hit": false,
      "t": 98250,
      "d": 320.3125,
      "v": 95
    },
    {
      "midi": 43,
      "hit": false,
      "t": 98625,
      "d": 164.0625,
      "v": 62
    },
    {
      "midi": 46,
      "hit": false,
      "t": 98820.3125,
      "d": 101.5625,
      "v": 70
    },
    {
      "midi": 48,
      "hit": false,
      "t": 99000,
      "d": 93.75,
      "v": 98
    },
    {
      "midi": 48,
      "hit": false,
      "t": 99195.3125,
      "d": 140.625,
      "v": 84
    },
    {
      "midi": 46,
      "hit": false,
      "t": 99570.3125,
      "d": 54.6875,
      "v": 61
    },
    {
      "midi": 48,
      "hit": false,
      "t": 99750,
      "d": 132.8125,
      "v": 91
    },
    {
      "midi": 48,
      "hit": false,
      "t": 99945.3125,
      "d": 140.625,
      "v": 90
    },
    {
      "midi": 46,
      "hit": false,
      "t": 100320.3125,
      "d": 78.125,
      "v": 58
    },
    {
      "midi": 48,
      "hit": false,
      "t": 100500,
      "d": 304.6875,
      "v": 98
    },
    {
      "midi": 46,
      "hit": false,
      "t": 100875,
      "d": 187.5,
      "v": 58
    },
    {
      "midi": 48,
      "hit": false,
      "t": 101250,
      "d": 304.6875,
      "v": 94
    },
    {
      "midi": 51,
      "hit": false,
      "t": 101625,
      "d": 171.875,
      "v": 87
    },
    {
      "midi": 46,
      "hit": false,
      "t": 101820.3125,
      "d": 78.125,
      "v": 64
    },
    {
      "midi": 48,
      "hit": false,
      "t": 102000,
      "d": 125,
      "v": 80
    },
    {
      "midi": 48,
      "hit": false,
      "t": 102195.3125,
      "d": 164.0625,
      "v": 70
    },
    {
      "midi": 46,
      "hit": false,
      "t": 102570.3125,
      "d": 54.6875,
      "v": 61
    },
    {
      "midi": 48,
      "hit": false,
      "t": 102750,
      "d": 109.375,
      "v": 95
    },
    {
      "midi": 48,
      "hit": false,
      "t": 102945.3125,
      "d": 171.875,
      "v": 75
    },
    {
      "midi": 46,
      "hit": false,
      "t": 103320.3125,
      "d": 54.6875,
      "v": 43
    },
    {
      "midi": 48,
      "hit": false,
      "t": 103500,
      "d": 304.6875,
      "v": 100
    },
    {
      "midi": 46,
      "hit": false,
      "t": 103875,
      "d": 179.6875,
      "v": 55
    },
    {
      "midi": 48,
      "hit": false,
      "t": 104250,
      "d": 320.3125,
      "v": 95
    },
    {
      "midi": 43,
      "hit": false,
      "t": 104625,
      "d": 164.0625,
      "v": 62
    },
    {
      "midi": 46,
      "hit": false,
      "t": 104820.3125,
      "d": 101.5625,
      "v": 70
    },
    {
      "midi": 48,
      "hit": false,
      "t": 105000,
      "d": 85.9375,
      "v": 106
    },
    {
      "midi": 48,
      "hit": false,
      "t": 105195.3125,
      "d": 171.875,
      "v": 88
    },
    {
      "midi": 46,
      "hit": false,
      "t": 105570.3125,
      "d": 62.5,
      "v": 61
    },
    {
      "midi": 48,
      "hit": false,
      "t": 105750,
      "d": 132.8125,
      "v": 104
    },
    {
      "midi": 48,
      "hit": false,
      "t": 105945.3125,
      "d": 179.6875,
      "v": 85
    },
    {
      "midi": 46,
      "hit": false,
      "t": 106320.3125,
      "d": 54.6875,
      "v": 59
    },
    {
      "midi": 48,
      "hit": false,
      "t": 106500,
      "d": 328.125,
      "v": 102
    },
    {
      "midi": 46,
      "hit": false,
      "t": 106875,
      "d": 171.875,
      "v": 64
    },
    {
      "midi": 48,
      "hit": false,
      "t": 107250,
      "d": 335.9375,
      "v": 88
    },
    {
      "midi": 51,
      "hit": false,
      "t": 107625,
      "d": 171.875,
      "v": 83
    },
    {
      "midi": 46,
      "hit": false,
      "t": 107820.3125,
      "d": 78.125,
      "v": 72
    },
    {
      "midi": 48,
      "hit": false,
      "t": 108000,
      "d": 125,
      "v": 73
    },
    {
      "midi": 48,
      "hit": false,
      "t": 108195.3125,
      "d": 179.6875,
      "v": 80
    },
    {
      "midi": 46,
      "hit": false,
      "t": 108570.3125,
      "d": 78.125,
      "v": 59
    },
    {
      "midi": 48,
      "hit": false,
      "t": 108750,
      "d": 140.625,
      "v": 95
    },
    {
      "midi": 48,
      "hit": false,
      "t": 108945.3125,
      "d": 140.625,
      "v": 79
    },
    {
      "midi": 46,
      "hit": false,
      "t": 109320.3125,
      "d": 101.5625,
      "v": 53
    },
    {
      "midi": 48,
      "hit": false,
      "t": 109500,
      "d": 312.5,
      "v": 100
    },
    {
      "midi": 36,
      "hit": false,
      "t": 109875,
      "d": 179.6875,
      "v": 110
    },
    {
      "midi": 46,
      "hit": false,
      "t": 109875,
      "d": 125,
      "v": 54
    },
    {
      "midi": 36,
      "hit": false,
      "t": 110062.5,
      "d": 179.6875,
      "v": 110
    },
    {
      "midi": 39,
      "hit": false,
      "t": 110250,
      "d": 367.1875,
      "v": 127
    },
    {
      "midi": 48,
      "hit": false,
      "t": 110250,
      "d": 296.875,
      "v": 95
    },
    {
      "midi": 40,
      "hit": false,
      "t": 110625,
      "d": 367.1875,
      "v": 120
    },
    {
      "midi": 43,
      "hit": false,
      "t": 110625,
      "d": 156.25,
      "v": 67
    },
    {
      "midi": 46,
      "hit": false,
      "t": 110820.3125,
      "d": 117.1875,
      "v": 65
    },
    {
      "midi": 36,
      "hit": false,
      "t": 111000,
      "d": 742.1875,
      "v": 120
    },
    {
      "midi": 48,
      "hit": false,
      "t": 111000,
      "d": 85.9375,
      "v": 102
    },
    {
      "midi": 48,
      "hit": false,
      "t": 111195.3125,
      "d": 203.125,
      "v": 85
    },
    {
      "midi": 46,
      "hit": false,
      "t": 111570.3125,
      "d": 85.9375,
      "v": 67
    },
    {
      "midi": 48,
      "hit": false,
      "t": 111750,
      "d": 125,
      "v": 100
    },
    {
      "midi": 48,
      "hit": false,
      "t": 111945.3125,
      "d": 164.0625,
      "v": 72
    },
    {
      "midi": 46,
      "hit": false,
      "t": 112320.3125,
      "d": 85.9375,
      "v": 56
    },
    {
      "midi": 48,
      "hit": false,
      "t": 112500,
      "d": 304.6875,
      "v": 86
    },
    {
      "midi": 46,
      "hit": false,
      "t": 112875,
      "d": 226.5625,
      "v": 54
    },
    {
      "midi": 48,
      "hit": false,
      "t": 113250,
      "d": 335.9375,
      "v": 83
    },
    {
      "midi": 51,
      "hit": false,
      "t": 113625,
      "d": 140.625,
      "v": 95
    },
    {
      "midi": 46,
      "hit": false,
      "t": 113820.3125,
      "d": 132.8125,
      "v": 44
    },
    {
      "midi": 48,
      "hit": false,
      "t": 114000,
      "d": 78.125,
      "v": 89
    },
    {
      "midi": 48,
      "hit": false,
      "t": 114195.3125,
      "d": 210.9375,
      "v": 73
    },
    {
      "midi": 46,
      "hit": false,
      "t": 114570.3125,
      "d": 62.5,
      "v": 56
    },
    {
      "midi": 48,
      "hit": false,
      "t": 114750,
      "d": 117.1875,
      "v": 92
    },
    {
      "midi": 48,
      "hit": false,
      "t": 114945.3125,
      "d": 187.5,
      "v": 83
    },
    {
      "midi": 46,
      "hit": false,
      "t": 115320.3125,
      "d": 46.875,
      "v": 49
    },
    {
      "midi": 48,
      "hit": false,
      "t": 115500,
      "d": 343.75,
      "v": 100
    },
    {
      "midi": 46,
      "hit": false,
      "t": 115875,
      "d": 187.5,
      "v": 64
    },
    {
      "midi": 48,
      "hit": false,
      "t": 116250,
      "d": 250,
      "v": 104
    },
    {
      "midi": 43,
      "hit": false,
      "t": 116625,
      "d": 156.25,
      "v": 66
    },
    {
      "midi": 46,
      "hit": false,
      "t": 116820.3125,
      "d": 109.375,
      "v": 56
    },
    {
      "midi": 36,
      "hit": false,
      "t": 117000,
      "d": 367.1875,
      "v": 80
    },
    {
      "midi": 55,
      "hit": false,
      "t": 117000,
      "d": 367.1875,
      "v": 88
    },
    {
      "midi": 58,
      "hit": false,
      "t": 117000,
      "d": 367.1875,
      "v": 77
    },
    {
      "midi": 64,
      "hit": false,
      "t": 117000,
      "d": 367.1875,
      "v": 95
    },
    {
      "midi": 48,
      "hit": false,
      "t": 117000,
      "d": 93.75,
      "v": 98
    },
    {
      "midi": 48,
      "hit": false,
      "t": 117195.3125,
      "d": 140.625,
      "v": 84
    },
    {
      "midi": 36,
      "hit": false,
      "t": 117375,
      "d": 171.875,
      "v": 56
    },
    {
      "midi": 55,
      "hit": false,
      "t": 117375,
      "d": 171.875,
      "v": 62
    },
    {
      "midi": 58,
      "hit": false,
      "t": 117375,
      "d": 171.875,
      "v": 48
    },
    {
      "midi": 64,
      "hit": false,
      "t": 117375,
      "d": 171.875,
      "v": 84
    },
    {
      "midi": 36,
      "hit": false,
      "t": 117562.5,
      "d": 171.875,
      "v": 51
    },
    {
      "midi": 55,
      "hit": false,
      "t": 117562.5,
      "d": 171.875,
      "v": 57
    },
    {
      "midi": 58,
      "hit": false,
      "t": 117562.5,
      "d": 171.875,
      "v": 52
    },
    {
      "midi": 64,
      "hit": false,
      "t": 117562.5,
      "d": 171.875,
      "v": 85
    },
    {
      "midi": 46,
      "hit": false,
      "t": 117570.3125,
      "d": 54.6875,
      "v": 61
    },
    {
      "midi": 36,
      "hit": false,
      "t": 117750,
      "d": 367.1875,
      "v": 80
    },
    {
      "midi": 55,
      "hit": false,
      "t": 117750,
      "d": 367.1875,
      "v": 88
    },
    {
      "midi": 58,
      "hit": false,
      "t": 117750,
      "d": 367.1875,
      "v": 77
    },
    {
      "midi": 64,
      "hit": false,
      "t": 117750,
      "d": 367.1875,
      "v": 95
    },
    {
      "midi": 48,
      "hit": false,
      "t": 117750,
      "d": 132.8125,
      "v": 91
    },
    {
      "midi": 48,
      "hit": false,
      "t": 117945.3125,
      "d": 140.625,
      "v": 90
    },
    {
      "midi": 36,
      "hit": false,
      "t": 118125,
      "d": 171.875,
      "v": 61
    },
    {
      "midi": 55,
      "hit": false,
      "t": 118125,
      "d": 171.875,
      "v": 68
    },
    {
      "midi": 58,
      "hit": false,
      "t": 118125,
      "d": 171.875,
      "v": 53
    },
    {
      "midi": 64,
      "hit": false,
      "t": 118125,
      "d": 171.875,
      "v": 73
    },
    {
      "midi": 36,
      "hit": false,
      "t": 118312.5,
      "d": 171.875,
      "v": 50
    },
    {
      "midi": 55,
      "hit": false,
      "t": 118312.5,
      "d": 171.875,
      "v": 71
    },
    {
      "midi": 58,
      "hit": false,
      "t": 118312.5,
      "d": 171.875,
      "v": 54
    },
    {
      "midi": 64,
      "hit": false,
      "t": 118312.5,
      "d": 171.875,
      "v": 78
    },
    {
      "midi": 46,
      "hit": false,
      "t": 118320.3125,
      "d": 78.125,
      "v": 58
    },
    {
      "midi": 36,
      "hit": false,
      "t": 118500,
      "d": 367.1875,
      "v": 78
    },
    {
      "midi": 55,
      "hit": false,
      "t": 118500,
      "d": 367.1875,
      "v": 90
    },
    {
      "midi": 58,
      "hit": false,
      "t": 118500,
      "d": 367.1875,
      "v": 72
    },
    {
      "midi": 64,
      "hit": false,
      "t": 118500,
      "d": 367.1875,
      "v": 92
    },
    {
      "midi": 48,
      "hit": false,
      "t": 118500,
      "d": 304.6875,
      "v": 98
    },
    {
      "midi": 36,
      "hit": false,
      "t": 118875,
      "d": 367.1875,
      "v": 63
    },
    {
      "midi": 55,
      "hit": false,
      "t": 118875,
      "d": 367.1875,
      "v": 64
    },
    {
      "midi": 58,
      "hit": false,
      "t": 118875,
      "d": 367.1875,
      "v": 51
    },
    {
      "midi": 64,
      "hit": false,
      "t": 118875,
      "d": 367.1875,
      "v": 90
    },
    {
      "midi": 46,
      "hit": false,
      "t": 118875,
      "d": 187.5,
      "v": 58
    },
    {
      "midi": 36,
      "hit": false,
      "t": 119250,
      "d": 554.6875,
      "v": 80
    },
    {
      "midi": 55,
      "hit": false,
      "t": 119250,
      "d": 554.6875,
      "v": 84
    },
    {
      "midi": 58,
      "hit": false,
      "t": 119250,
      "d": 554.6875,
      "v": 85
    },
    {
      "midi": 64,
      "hit": false,
      "t": 119250,
      "d": 554.6875,
      "v": 92
    },
    {
      "midi": 48,
      "hit": false,
      "t": 119250,
      "d": 304.6875,
      "v": 94
    },
    {
      "midi": 51,
      "hit": false,
      "t": 119625,
      "d": 171.875,
      "v": 87
    },
    {
      "midi": 46,
      "hit": false,
      "t": 119820.3125,
      "d": 78.125,
      "v": 64
    },
    {
      "midi": 36,
      "hit": false,
      "t": 120000,
      "d": 171.875,
      "v": 80
    },
    {
      "midi": 55,
      "hit": false,
      "t": 120000,
      "d": 171.875,
      "v": 80
    },
    {
      "midi": 58,
      "hit": false,
      "t": 120000,
      "d": 171.875,
      "v": 84
    },
    {
      "midi": 64,
      "hit": false,
      "t": 120000,
      "d": 171.875,
      "v": 95
    },
    {
      "midi": 48,
      "hit": false,
      "t": 120000,
      "d": 125,
      "v": 80
    },
    {
      "midi": 36,
      "hit": false,
      "t": 120187.5,
      "d": 171.875,
      "v": 66
    },
    {
      "midi": 55,
      "hit": false,
      "t": 120187.5,
      "d": 171.875,
      "v": 68
    },
    {
      "midi": 58,
      "hit": false,
      "t": 120187.5,
      "d": 171.875,
      "v": 61
    },
    {
      "midi": 64,
      "hit": false,
      "t": 120187.5,
      "d": 171.875,
      "v": 73
    },
    {
      "midi": 48,
      "hit": false,
      "t": 120195.3125,
      "d": 164.0625,
      "v": 70
    },
    {
      "midi": 36,
      "hit": false,
      "t": 120375,
      "d": 367.1875,
      "v": 64
    },
    {
      "midi": 55,
      "hit": false,
      "t": 120375,
      "d": 367.1875,
      "v": 62
    },
    {
      "midi": 58,
      "hit": false,
      "t": 120375,
      "d": 367.1875,
      "v": 71
    },
    {
      "midi": 64,
      "hit": false,
      "t": 120375,
      "d": 367.1875,
      "v": 90
    },
    {
      "midi": 46,
      "hit": false,
      "t": 120570.3125,
      "d": 54.6875,
      "v": 61
    },
    {
      "midi": 36,
      "hit": false,
      "t": 120750,
      "d": 171.875,
      "v": 80
    },
    {
      "midi": 55,
      "hit": false,
      "t": 120750,
      "d": 171.875,
      "v": 83
    },
    {
      "midi": 58,
      "hit": false,
      "t": 120750,
      "d": 171.875,
      "v": 78
    },
    {
      "midi": 64,
      "hit": false,
      "t": 120750,
      "d": 171.875,
      "v": 94
    },
    {
      "midi": 48,
      "hit": false,
      "t": 120750,
      "d": 109.375,
      "v": 95
    },
    {
      "midi": 36,
      "hit": false,
      "t": 120937.5,
      "d": 171.875,
      "v": 70
    },
    {
      "midi": 55,
      "hit": false,
      "t": 120937.5,
      "d": 171.875,
      "v": 73
    },
    {
      "midi": 58,
      "hit": false,
      "t": 120937.5,
      "d": 171.875,
      "v": 61
    },
    {
      "midi": 64,
      "hit": false,
      "t": 120937.5,
      "d": 171.875,
      "v": 70
    },
    {
      "midi": 48,
      "hit": false,
      "t": 120945.3125,
      "d": 171.875,
      "v": 75
    },
    {
      "midi": 36,
      "hit": false,
      "t": 121125,
      "d": 367.1875,
      "v": 65
    },
    {
      "midi": 55,
      "hit": false,
      "t": 121125,
      "d": 367.1875,
      "v": 74
    },
    {
      "midi": 58,
      "hit": false,
      "t": 121125,
      "d": 367.1875,
      "v": 63
    },
    {
      "midi": 64,
      "hit": false,
      "t": 121125,
      "d": 367.1875,
      "v": 92
    },
    {
      "midi": 46,
      "hit": false,
      "t": 121320.3125,
      "d": 54.6875,
      "v": 43
    },
    {
      "midi": 36,
      "hit": false,
      "t": 121500,
      "d": 171.875,
      "v": 68
    },
    {
      "midi": 55,
      "hit": false,
      "t": 121500,
      "d": 171.875,
      "v": 83
    },
    {
      "midi": 58,
      "hit": false,
      "t": 121500,
      "d": 171.875,
      "v": 66
    },
    {
      "midi": 64,
      "hit": false,
      "t": 121500,
      "d": 171.875,
      "v": 90
    },
    {
      "midi": 48,
      "hit": false,
      "t": 121500,
      "d": 304.6875,
      "v": 100
    },
    {
      "midi": 36,
      "hit": false,
      "t": 121687.5,
      "d": 171.875,
      "v": 56
    },
    {
      "midi": 55,
      "hit": false,
      "t": 121687.5,
      "d": 171.875,
      "v": 74
    },
    {
      "midi": 58,
      "hit": false,
      "t": 121687.5,
      "d": 171.875,
      "v": 49
    },
    {
      "midi": 64,
      "hit": false,
      "t": 121687.5,
      "d": 171.875,
      "v": 70
    },
    {
      "midi": 36,
      "hit": false,
      "t": 121875,
      "d": 171.875,
      "v": 36
    },
    {
      "midi": 55,
      "hit": false,
      "t": 121875,
      "d": 171.875,
      "v": 70
    },
    {
      "midi": 58,
      "hit": false,
      "t": 121875,
      "d": 171.875,
      "v": 49
    },
    {
      "midi": 64,
      "hit": false,
      "t": 121875,
      "d": 171.875,
      "v": 83
    },
    {
      "midi": 46,
      "hit": false,
      "t": 121875,
      "d": 179.6875,
      "v": 55
    },
    {
      "midi": 36,
      "hit": false,
      "t": 122062.5,
      "d": 929.6875,
      "v": 65
    },
    {
      "midi": 55,
      "hit": false,
      "t": 122062.5,
      "d": 929.6875,
      "v": 79
    },
    {
      "midi": 58,
      "hit": false,
      "t": 122062.5,
      "d": 929.6875,
      "v": 77
    },
    {
      "midi": 64,
      "hit": false,
      "t": 122062.5,
      "d": 929.6875,
      "v": 84
    },
    {
      "midi": 48,
      "hit": false,
      "t": 122250,
      "d": 320.3125,
      "v": 95
    },
    {
      "midi": 43,
      "hit": false,
      "t": 122625,
      "d": 164.0625,
      "v": 62
    },
    {
      "midi": 46,
      "hit": false,
      "t": 122820.3125,
      "d": 101.5625,
      "v": 70
    },
    {
      "midi": 36,
      "hit": false,
      "t": 123000,
      "d": 492.1875,
      "v": 120
    },
    {
      "midi": 40,
      "hit": false,
      "t": 123570.3125,
      "d": 437.5,
      "v": 104
    },
    {
      "midi": 43,
      "hit": false,
      "t": 124125,
      "d": 4750,
      "v": 113
    },
    {
      "midi": 41,
      "hit": false,
      "t": 129000,
      "d": 531.25,
      "v": 108
    },
    {
      "midi": 45,
      "hit": false,
      "t": 129570.3125,
      "d": 421.875,
      "v": 112
    },
    {
      "midi": 48,
      "hit": false,
      "t": 130125,
      "d": 4796.875,
      "v": 113
    },
    {
      "midi": 43,
      "hit": false,
      "t": 135000,
      "d": 429.6875,
      "v": 104
    },
    {
      "midi": 47,
      "hit": false,
      "t": 135570.3125,
      "d": 429.6875,
      "v": 104
    },
    {
      "midi": 50,
      "hit": false,
      "t": 136125,
      "d": 4601.5625,
      "v": 100
    },
    {
      "midi": 41,
      "hit": false,
      "t": 141000,
      "d": 117.1875,
      "v": 117
    },
    {
      "midi": 41,
      "hit": false,
      "t": 141195.3125,
      "d": 234.375,
      "v": 101
    },
    {
      "midi": 41,
      "hit": false,
      "t": 141570.3125,
      "d": 218.75,
      "v": 92
    },
    {
      "midi": 41,
      "hit": false,
      "t": 141945.3125,
      "d": 242.1875,
      "v": 106
    },
    {
      "midi": 41,
      "hit": false,
      "t": 142320.3125,
      "d": 242.1875,
      "v": 115
    },
    {
      "midi": 41,
      "hit": false,
      "t": 142695.3125,
      "d": 226.5625,
      "v": 106
    },
    {
      "midi": 41,
      "hit": false,
      "t": 143070.3125,
      "d": 39.0625,
      "v": 84
    },
    {
      "midi": 41,
      "hit": false,
      "t": 143250,
      "d": 296.875,
      "v": 118
    },
    {
      "midi": 48,
      "hit": false,
      "t": 144000,
      "d": 171.875,
      "v": 108
    },
    {
      "midi": 64,
      "hit": false,
      "t": 144000,
      "d": 171.875,
      "v": 108
    },
    {
      "midi": 67,
      "hit": false,
      "t": 144000,
      "d": 171.875,
      "v": 114
    },
    {
      "midi": 72,
      "hit": false,
      "t": 144000,
      "d": 171.875,
      "v": 87
    },
    {
      "midi": 48,
      "hit": false,
      "t": 144000,
      "d": 93.75,
      "v": 98
    },
    {
      "midi": 48,
      "hit": false,
      "t": 144187.5,
      "d": 171.875,
      "v": 87
    },
    {
      "midi": 64,
      "hit": false,
      "t": 144187.5,
      "d": 171.875,
      "v": 88
    },
    {
      "midi": 67,
      "hit": false,
      "t": 144187.5,
      "d": 171.875,
      "v": 85
    },
    {
      "midi": 72,
      "hit": false,
      "t": 144187.5,
      "d": 171.875,
      "v": 78
    },
    {
      "midi": 48,
      "hit": false,
      "t": 144195.3125,
      "d": 140.625,
      "v": 84
    },
    {
      "midi": 48,
      "hit": false,
      "t": 144375,
      "d": 171.875,
      "v": 100
    },
    {
      "midi": 64,
      "hit": false,
      "t": 144375,
      "d": 171.875,
      "v": 80
    },
    {
      "midi": 67,
      "hit": false,
      "t": 144375,
      "d": 171.875,
      "v": 102
    },
    {
      "midi": 72,
      "hit": false,
      "t": 144375,
      "d": 171.875,
      "v": 90
    },
    {
      "midi": 46,
      "hit": false,
      "t": 144562.5,
      "d": 367.1875,
      "v": 97
    },
    {
      "midi": 62,
      "hit": false,
      "t": 144562.5,
      "d": 367.1875,
      "v": 98
    },
    {
      "midi": 65,
      "hit": false,
      "t": 144562.5,
      "d": 367.1875,
      "v": 97
    },
    {
      "midi": 70,
      "hit": false,
      "t": 144562.5,
      "d": 367.1875,
      "v": 97
    },
    {
      "midi": 46,
      "hit": false,
      "t": 144570.3125,
      "d": 54.6875,
      "v": 61
    },
    {
      "midi": 48,
      "hit": false,
      "t": 144750,
      "d": 132.8125,
      "v": 91
    },
    {
      "midi": 48,
      "hit": false,
      "t": 144937.5,
      "d": 3179.6875,
      "v": 108
    },
    {
      "midi": 64,
      "hit": false,
      "t": 144937.5,
      "d": 3179.6875,
      "v": 100
    },
    {
      "midi": 67,
      "hit": false,
      "t": 144937.5,
      "d": 3179.6875,
      "v": 114
    },
    {
      "midi": 72,
      "hit": false,
      "t": 144937.5,
      "d": 3179.6875,
      "v": 90
    },
    {
      "midi": 48,
      "hit": false,
      "t": 144945.3125,
      "d": 140.625,
      "v": 90
    },
    {
      "midi": 46,
      "hit": false,
      "t": 145320.3125,
      "d": 78.125,
      "v": 58
    },
    {
      "midi": 48,
      "hit": false,
      "t": 145500,
      "d": 304.6875,
      "v": 98
    },
    {
      "midi": 46,
      "hit": false,
      "t": 145875,
      "d": 187.5,
      "v": 58
    },
    {
      "midi": 48,
      "hit": false,
      "t": 146250,
      "d": 304.6875,
      "v": 94
    },
    {
      "midi": 51,
      "hit": false,
      "t": 146625,
      "d": 171.875,
      "v": 87
    },
    {
      "midi": 46,
      "hit": false,
      "t": 146820.3125,
      "d": 78.125,
      "v": 64
    },
    {
      "midi": 48,
      "hit": false,
      "t": 147000,
      "d": 125,
      "v": 80
    },
    {
      "midi": 48,
      "hit": false,
      "t": 147195.3125,
      "d": 164.0625,
      "v": 70
    },
    {
      "midi": 46,
      "hit": false,
      "t": 147570.3125,
      "d": 54.6875,
      "v": 61
    },
    {
      "midi": 48,
      "hit": false,
      "t": 147750,
      "d": 109.375,
      "v": 95
    },
    {
      "midi": 48,
      "hit": false,
      "t": 147945.3125,
      "d": 171.875,
      "v": 75
    },
    {
      "midi": 46,
      "hit": false,
      "t": 148320.3125,
      "d": 54.6875,
      "v": 43
    },
    {
      "midi": 48,
      "hit": false,
      "t": 148500,
      "d": 304.6875,
      "v": 100
    },
    {
      "midi": 46,
      "hit": false,
      "t": 148875,
      "d": 179.6875,
      "v": 55
    },
    {
      "midi": 48,
      "hit": false,
      "t": 149250,
      "d": 320.3125,
      "v": 95
    },
    {
      "midi": 43,
      "hit": false,
      "t": 149625,
      "d": 164.0625,
      "v": 62
    },
    {
      "midi": 46,
      "hit": false,
      "t": 149820.3125,
      "d": 101.5625,
      "v": 70
    },
    {
      "midi": 70,
      "hit": false,
      "t": 150000,
      "d": 179.6875,
      "v": 113
    },
    {
      "midi": 48,
      "hit": false,
      "t": 150000,
      "d": 93.75,
      "v": 98
    },
    {
      "midi": 67,
      "hit": false,
      "t": 150187.5,
      "d": 367.1875,
      "v": 98
    },
    {
      "midi": 48,
      "hit": false,
      "t": 150195.3125,
      "d": 140.625,
      "v": 84
    },
    {
      "midi": 63,
      "hit": false,
      "t": 150562.5,
      "d": 179.6875,
      "v": 89
    },
    {
      "midi": 46,
      "hit": false,
      "t": 150570.3125,
      "d": 54.6875,
      "v": 61
    },
    {
      "midi": 65,
      "hit": false,
      "t": 150750,
      "d": 179.6875,
      "v": 100
    },
    {
      "midi": 48,
      "hit": false,
      "t": 150750,
      "d": 132.8125,
      "v": 91
    },
    {
      "midi": 65,
      "hit": false,
      "t": 150937.5,
      "d": 375,
      "v": 84
    },
    {
      "midi": 48,
      "hit": false,
      "t": 150945.3125,
      "d": 140.625,
      "v": 90
    },
    {
      "midi": 63,
      "hit": false,
      "t": 151312.5,
      "d": 179.6875,
      "v": 89
    },
    {
      "midi": 46,
      "hit": false,
      "t": 151320.3125,
      "d": 78.125,
      "v": 58
    },
    {
      "midi": 67,
      "hit": false,
      "t": 151500,
      "d": 367.1875,
      "v": 112
    },
    {
      "midi": 48,
      "hit": false,
      "t": 151500,
      "d": 304.6875,
      "v": 98
    },
    {
      "midi": 62,
      "hit": false,
      "t": 151875,
      "d": 367.1875,
      "v": 95
    },
    {
      "midi": 65,
      "hit": false,
      "t": 151875,
      "d": 367.1875,
      "v": 102
    },
    {
      "midi": 69,
      "hit": false,
      "t": 151875,
      "d": 367.1875,
      "v": 112
    },
    {
      "midi": 46,
      "hit": false,
      "t": 151875,
      "d": 187.5,
      "v": 58
    },
    {
      "midi": 60,
      "hit": false,
      "t": 152250,
      "d": 375,
      "v": 84
    },
    {
      "midi": 64,
      "hit": false,
      "t": 152250,
      "d": 375,
      "v": 81
    },
    {
      "midi": 67,
      "hit": false,
      "t": 152250,
      "d": 375,
      "v": 87
    },
    {
      "midi": 48,
      "hit": false,
      "t": 152250,
      "d": 304.6875,
      "v": 94
    },
    {
      "midi": 51,
      "hit": false,
      "t": 152625,
      "d": 171.875,
      "v": 87
    },
    {
      "midi": 46,
      "hit": false,
      "t": 152820.3125,
      "d": 78.125,
      "v": 64
    },
    {
      "midi": 48,
      "hit": false,
      "t": 153000,
      "d": 125,
      "v": 80
    },
    {
      "midi": 48,
      "hit": false,
      "t": 153195.3125,
      "d": 164.0625,
      "v": 70
    },
    {
      "midi": 46,
      "hit": false,
      "t": 153570.3125,
      "d": 54.6875,
      "v": 61
    },
    {
      "midi": 48,
      "hit": false,
      "t": 153750,
      "d": 109.375,
      "v": 95
    },
    {
      "midi": 48,
      "hit": false,
      "t": 153945.3125,
      "d": 171.875,
      "v": 75
    },
    {
      "midi": 46,
      "hit": false,
      "t": 154320.3125,
      "d": 54.6875,
      "v": 43
    },
    {
      "midi": 48,
      "hit": false,
      "t": 154500,
      "d": 304.6875,
      "v": 100
    },
    {
      "midi": 46,
      "hit": false,
      "t": 154875,
      "d": 179.6875,
      "v": 55
    },
    {
      "midi": 48,
      "hit": false,
      "t": 155250,
      "d": 320.3125,
      "v": 95
    },
    {
      "midi": 43,
      "hit": false,
      "t": 155625,
      "d": 164.0625,
      "v": 62
    },
    {
      "midi": 46,
      "hit": false,
      "t": 155820.3125,
      "d": 101.5625,
      "v": 70
    },
    {
      "midi": 48,
      "hit": false,
      "t": 156000,
      "d": 93.75,
      "v": 98
    },
    {
      "midi": 48,
      "hit": false,
      "t": 156195.3125,
      "d": 140.625,
      "v": 84
    },
    {
      "midi": 46,
      "hit": false,
      "t": 156570.3125,
      "d": 54.6875,
      "v": 61
    },
    {
      "midi": 48,
      "hit": false,
      "t": 156750,
      "d": 132.8125,
      "v": 91
    },
    {
      "midi": 48,
      "hit": false,
      "t": 156945.3125,
      "d": 140.625,
      "v": 90
    },
    {
      "midi": 46,
      "hit": false,
      "t": 157320.3125,
      "d": 78.125,
      "v": 58
    },
    {
      "midi": 48,
      "hit": false,
      "t": 157500,
      "d": 304.6875,
      "v": 98
    },
    {
      "midi": 46,
      "hit": false,
      "t": 157875,
      "d": 187.5,
      "v": 58
    },
    {
      "midi": 48,
      "hit": false,
      "t": 158250,
      "d": 304.6875,
      "v": 94
    },
    {
      "midi": 51,
      "hit": false,
      "t": 158625,
      "d": 171.875,
      "v": 87
    },
    {
      "midi": 46,
      "hit": false,
      "t": 158820.3125,
      "d": 78.125,
      "v": 64
    },
    {
      "midi": 48,
      "hit": false,
      "t": 159000,
      "d": 125,
      "v": 80
    },
    {
      "midi": 48,
      "hit": false,
      "t": 159195.3125,
      "d": 164.0625,
      "v": 70
    },
    {
      "midi": 46,
      "hit": false,
      "t": 159570.3125,
      "d": 54.6875,
      "v": 61
    },
    {
      "midi": 48,
      "hit": false,
      "t": 159750,
      "d": 109.375,
      "v": 95
    },
    {
      "midi": 48,
      "hit": false,
      "t": 159945.3125,
      "d": 171.875,
      "v": 75
    },
    {
      "midi": 46,
      "hit": false,
      "t": 160320.3125,
      "d": 54.6875,
      "v": 43
    },
    {
      "midi": 48,
      "hit": false,
      "t": 160500,
      "d": 304.6875,
      "v": 100
    },
    {
      "midi": 46,
      "hit": false,
      "t": 160875,
      "d": 179.6875,
      "v": 55
    },
    {
      "midi": 48,
      "hit": false,
      "t": 161250,
      "d": 320.3125,
      "v": 95
    },
    {
      "midi": 43,
      "hit": false,
      "t": 161625,
      "d": 164.0625,
      "v": 62
    },
    {
      "midi": 46,
      "hit": false,
      "t": 161820.3125,
      "d": 101.5625,
      "v": 70
    },
    {
      "midi": 48,
      "hit": false,
      "t": 162000,
      "d": 85.9375,
      "v": 106
    },
    {
      "midi": 48,
      "hit": false,
      "t": 162195.3125,
      "d": 171.875,
      "v": 88
    },
    {
      "midi": 46,
      "hit": false,
      "t": 162570.3125,
      "d": 62.5,
      "v": 61
    },
    {
      "midi": 48,
      "hit": false,
      "t": 162750,
      "d": 132.8125,
      "v": 104
    },
    {
      "midi": 48,
      "hit": false,
      "t": 162945.3125,
      "d": 179.6875,
      "v": 85
    },
    {
      "midi": 46,
      "hit": false,
      "t": 163320.3125,
      "d": 54.6875,
      "v": 59
    },
    {
      "midi": 48,
      "hit": false,
      "t": 163500,
      "d": 328.125,
      "v": 102
    },
    {
      "midi": 46,
      "hit": false,
      "t": 163875,
      "d": 171.875,
      "v": 64
    },
    {
      "midi": 48,
      "hit": false,
      "t": 164250,
      "d": 335.9375,
      "v": 88
    },
    {
      "midi": 51,
      "hit": false,
      "t": 164625,
      "d": 171.875,
      "v": 83
    },
    {
      "midi": 46,
      "hit": false,
      "t": 164820.3125,
      "d": 78.125,
      "v": 72
    },
    {
      "midi": 48,
      "hit": false,
      "t": 165000,
      "d": 125,
      "v": 73
    },
    {
      "midi": 48,
      "hit": false,
      "t": 165195.3125,
      "d": 179.6875,
      "v": 80
    },
    {
      "midi": 46,
      "hit": false,
      "t": 165570.3125,
      "d": 78.125,
      "v": 59
    },
    {
      "midi": 48,
      "hit": false,
      "t": 165750,
      "d": 140.625,
      "v": 95
    },
    {
      "midi": 48,
      "hit": false,
      "t": 165945.3125,
      "d": 140.625,
      "v": 79
    },
    {
      "midi": 46,
      "hit": false,
      "t": 166320.3125,
      "d": 101.5625,
      "v": 53
    },
    {
      "midi": 48,
      "hit": false,
      "t": 166500,
      "d": 312.5,
      "v": 100
    },
    {
      "midi": 36,
      "hit": false,
      "t": 166875,
      "d": 179.6875,
      "v": 110
    },
    {
      "midi": 46,
      "hit": false,
      "t": 166875,
      "d": 125,
      "v": 54
    },
    {
      "midi": 36,
      "hit": false,
      "t": 167062.5,
      "d": 179.6875,
      "v": 110
    },
    {
      "midi": 39,
      "hit": false,
      "t": 167250,
      "d": 367.1875,
      "v": 127
    },
    {
      "midi": 48,
      "hit": false,
      "t": 167250,
      "d": 296.875,
      "v": 95
    },
    {
      "midi": 40,
      "hit": false,
      "t": 167625,
      "d": 367.1875,
      "v": 120
    },
    {
      "midi": 43,
      "hit": false,
      "t": 167625,
      "d": 156.25,
      "v": 67
    },
    {
      "midi": 46,
      "hit": false,
      "t": 167820.3125,
      "d": 117.1875,
      "v": 65
    },
    {
      "midi": 36,
      "hit": false,
      "t": 168000,
      "d": 742.1875,
      "v": 120
    },
    {
      "midi": 48,
      "hit": false,
      "t": 168000,
      "d": 85.9375,
      "v": 102
    },
    {
      "midi": 48,
      "hit": false,
      "t": 168195.3125,
      "d": 203.125,
      "v": 85
    },
    {
      "midi": 46,
      "hit": false,
      "t": 168570.3125,
      "d": 85.9375,
      "v": 67
    },
    {
      "midi": 48,
      "hit": false,
      "t": 168750,
      "d": 125,
      "v": 100
    },
    {
      "midi": 48,
      "hit": false,
      "t": 168945.3125,
      "d": 164.0625,
      "v": 72
    },
    {
      "midi": 46,
      "hit": false,
      "t": 169320.3125,
      "d": 85.9375,
      "v": 56
    },
    {
      "midi": 48,
      "hit": false,
      "t": 169500,
      "d": 304.6875,
      "v": 86
    },
    {
      "midi": 46,
      "hit": false,
      "t": 169875,
      "d": 226.5625,
      "v": 54
    },
    {
      "midi": 48,
      "hit": false,
      "t": 170250,
      "d": 335.9375,
      "v": 83
    },
    {
      "midi": 51,
      "hit": false,
      "t": 170625,
      "d": 140.625,
      "v": 95
    },
    {
      "midi": 46,
      "hit": false,
      "t": 170820.3125,
      "d": 132.8125,
      "v": 44
    },
    {
      "midi": 48,
      "hit": false,
      "t": 171000,
      "d": 78.125,
      "v": 89
    },
    {
      "midi": 48,
      "hit": false,
      "t": 171195.3125,
      "d": 210.9375,
      "v": 73
    },
    {
      "midi": 46,
      "hit": false,
      "t": 171570.3125,
      "d": 62.5,
      "v": 56
    },
    {
      "midi": 48,
      "hit": false,
      "t": 171750,
      "d": 117.1875,
      "v": 92
    },
    {
      "midi": 48,
      "hit": false,
      "t": 171945.3125,
      "d": 187.5,
      "v": 83
    },
    {
      "midi": 46,
      "hit": false,
      "t": 172320.3125,
      "d": 46.875,
      "v": 49
    },
    {
      "midi": 48,
      "hit": false,
      "t": 172500,
      "d": 343.75,
      "v": 100
    },
    {
      "midi": 46,
      "hit": false,
      "t": 172875,
      "d": 187.5,
      "v": 64
    },
    {
      "midi": 48,
      "hit": false,
      "t": 173250,
      "d": 250,
      "v": 104
    },
    {
      "midi": 43,
      "hit": false,
      "t": 173625,
      "d": 156.25,
      "v": 66
    },
    {
      "midi": 46,
      "hit": false,
      "t": 173820.3125,
      "d": 109.375,
      "v": 56
    },
    {
      "midi": 48,
      "hit": false,
      "t": 174000,
      "d": 93.75,
      "v": 98
    },
    {
      "midi": 48,
      "hit": false,
      "t": 174195.3125,
      "d": 140.625,
      "v": 84
    },
    {
      "midi": 46,
      "hit": false,
      "t": 174570.3125,
      "d": 54.6875,
      "v": 61
    },
    {
      "midi": 48,
      "hit": false,
      "t": 174750,
      "d": 132.8125,
      "v": 91
    },
    {
      "midi": 48,
      "hit": false,
      "t": 174945.3125,
      "d": 140.625,
      "v": 90
    },
    {
      "midi": 46,
      "hit": false,
      "t": 175320.3125,
      "d": 78.125,
      "v": 58
    },
    {
      "midi": 48,
      "hit": false,
      "t": 175500,
      "d": 304.6875,
      "v": 98
    },
    {
      "midi": 46,
      "hit": false,
      "t": 175875,
      "d": 187.5,
      "v": 58
    },
    {
      "midi": 48,
      "hit": false,
      "t": 176250,
      "d": 304.6875,
      "v": 94
    },
    {
      "midi": 51,
      "hit": false,
      "t": 176625,
      "d": 171.875,
      "v": 87
    },
    {
      "midi": 46,
      "hit": false,
      "t": 176820.3125,
      "d": 78.125,
      "v": 64
    },
    {
      "midi": 48,
      "hit": false,
      "t": 177000,
      "d": 125,
      "v": 80
    },
    {
      "midi": 48,
      "hit": false,
      "t": 177195.3125,
      "d": 164.0625,
      "v": 70
    },
    {
      "midi": 46,
      "hit": false,
      "t": 177570.3125,
      "d": 54.6875,
      "v": 61
    },
    {
      "midi": 48,
      "hit": false,
      "t": 177750,
      "d": 109.375,
      "v": 95
    },
    {
      "midi": 48,
      "hit": false,
      "t": 177945.3125,
      "d": 171.875,
      "v": 75
    },
    {
      "midi": 46,
      "hit": false,
      "t": 178320.3125,
      "d": 54.6875,
      "v": 43
    },
    {
      "midi": 48,
      "hit": false,
      "t": 178500,
      "d": 367.1875,
      "v": 108
    },
    {
      "midi": 60,
      "hit": false,
      "t": 178500,
      "d": 367.1875,
      "v": 102
    },
    {
      "midi": 67,
      "hit": false,
      "t": 178500,
      "d": 367.1875,
      "v": 88
    },
    {
      "midi": 70,
      "hit": false,
      "t": 178500,
      "d": 367.1875,
      "v": 95
    },
    {
      "midi": 48,
      "hit": false,
      "t": 178500,
      "d": 304.6875,
      "v": 100
    },
    {
      "midi": 48,
      "hit": false,
      "t": 178875,
      "d": 367.1875,
      "v": 85
    },
    {
      "midi": 60,
      "hit": false,
      "t": 178875,
      "d": 367.1875,
      "v": 90
    },
    {
      "midi": 67,
      "hit": false,
      "t": 178875,
      "d": 367.1875,
      "v": 75
    },
    {
      "midi": 70,
      "hit": false,
      "t": 178875,
      "d": 367.1875,
      "v": 87
    },
    {
      "midi": 46,
      "hit": false,
      "t": 178875,
      "d": 179.6875,
      "v": 55
    },
    {
      "midi": 48,
      "hit": false,
      "t": 179250,
      "d": 179.6875,
      "v": 91
    },
    {
      "midi": 60,
      "hit": false,
      "t": 179250,
      "d": 179.6875,
      "v": 92
    },
    {
      "midi": 67,
      "hit": false,
      "t": 179250,
      "d": 179.6875,
      "v": 92
    },
    {
      "midi": 70,
      "hit": false,
      "t": 179250,
      "d": 179.6875,
      "v": 93
    },
    {
      "midi": 48,
      "hit": false,
      "t": 179250,
      "d": 320.3125,
      "v": 95
    },
    {
      "midi": 48,
      "hit": false,
      "t": 179437.5,
      "d": 179.6875,
      "v": 76
    },
    {
      "midi": 60,
      "hit": false,
      "t": 179437.5,
      "d": 179.6875,
      "v": 75
    },
    {
      "midi": 64,
      "hit": false,
      "t": 179437.5,
      "d": 179.6875,
      "v": 66
    },
    {
      "midi": 67,
      "hit": false,
      "t": 179437.5,
      "d": 179.6875,
      "v": 79
    },
    {
      "midi": 48,
      "hit": false,
      "t": 179625,
      "d": 367.1875,
      "v": 77
    },
    {
      "midi": 60,
      "hit": false,
      "t": 179625,
      "d": 367.1875,
      "v": 88
    },
    {
      "midi": 67,
      "hit": false,
      "t": 179625,
      "d": 367.1875,
      "v": 70
    },
    {
      "midi": 70,
      "hit": false,
      "t": 179625,
      "d": 375,
      "v": 90
    },
    {
      "midi": 43,
      "hit": false,
      "t": 179625,
      "d": 164.0625,
      "v": 62
    },
    {
      "midi": 46,
      "hit": false,
      "t": 179820.3125,
      "d": 101.5625,
      "v": 70
    },
    {
      "midi": 48,
      "hit": false,
      "t": 180000,
      "d": 179.6875,
      "v": 106
    },
    {
      "midi": 58,
      "hit": false,
      "t": 180000,
      "d": 179.6875,
      "v": 89
    },
    {
      "midi": 60,
      "hit": false,
      "t": 180000,
      "d": 179.6875,
      "v": 95
    },
    {
      "midi": 67,
      "hit": false,
      "t": 180000,
      "d": 179.6875,
      "v": 100
    },
    {
      "midi": 48,
      "hit": false,
      "t": 180000,
      "d": 93.75,
      "v": 98
    },
    {
      "midi": 48,
      "hit": false,
      "t": 180187.5,
      "d": 179.6875,
      "v": 76
    },
    {
      "midi": 58,
      "hit": false,
      "t": 180187.5,
      "d": 179.6875,
      "v": 47
    },
    {
      "midi": 60,
      "hit": false,
      "t": 180187.5,
      "d": 179.6875,
      "v": 71
    },
    {
      "midi": 65,
      "hit": false,
      "t": 180187.5,
      "d": 179.6875,
      "v": 76
    },
    {
      "midi": 48,
      "hit": false,
      "t": 180195.3125,
      "d": 140.625,
      "v": 84
    },
    {
      "midi": 48,
      "hit": false,
      "t": 180375,
      "d": 179.6875,
      "v": 68
    },
    {
      "midi": 58,
      "hit": false,
      "t": 180375,
      "d": 179.6875,
      "v": 56
    },
    {
      "midi": 60,
      "hit": false,
      "t": 180375,
      "d": 179.6875,
      "v": 73
    },
    {
      "midi": 65,
      "hit": false,
      "t": 180375,
      "d": 179.6875,
      "v": 70
    },
    {
      "midi": 48,
      "hit": false,
      "t": 180562.5,
      "d": 179.6875,
      "v": 91
    },
    {
      "midi": 58,
      "hit": false,
      "t": 180562.5,
      "d": 179.6875,
      "v": 84
    },
    {
      "midi": 60,
      "hit": false,
      "t": 180562.5,
      "d": 179.6875,
      "v": 86
    },
    {
      "midi": 67,
      "hit": false,
      "t": 180562.5,
      "d": 179.6875,
      "v": 91
    },
    {
      "midi": 46,
      "hit": false,
      "t": 180570.3125,
      "d": 54.6875,
      "v": 61
    },
    {
      "midi": 46,
      "hit": false,
      "t": 180750,
      "d": 179.6875,
      "v": 110
    },
    {
      "midi": 55,
      "hit": false,
      "t": 180750,
      "d": 179.6875,
      "v": 92
    },
    {
      "midi": 58,
      "hit": false,
      "t": 180750,
      "d": 179.6875,
      "v": 110
    },
    {
      "midi": 63,
      "hit": false,
      "t": 180750,
      "d": 179.6875,
      "v": 104
    },
    {
      "midi": 48,
      "hit": false,
      "t": 180750,
      "d": 132.8125,
      "v": 91
    },
    {
      "midi": 43,
      "hit": false,
      "t": 180937.5,
      "d": 179.6875,
      "v": 98
    },
    {
      "midi": 52,
      "hit": false,
      "t": 180937.5,
      "d": 179.6875,
      "v": 79
    },
    {
      "midi": 55,
      "hit": false,
      "t": 180937.5,
      "d": 179.6875,
      "v": 86
    },
    {
      "midi": 60,
      "hit": false,
      "t": 180937.5,
      "d": 179.6875,
      "v": 94
    },
    {
      "midi": 48,
      "hit": false,
      "t": 180945.3125,
      "d": 140.625,
      "v": 90
    },
    {
      "midi": 48,
      "hit": false,
      "t": 181125,
      "d": 367.1875,
      "v": 102
    },
    {
      "midi": 52,
      "hit": false,
      "t": 181125,
      "d": 367.1875,
      "v": 86
    },
    {
      "midi": 55,
      "hit": false,
      "t": 181125,
      "d": 367.1875,
      "v": 104
    },
    {
      "midi": 60,
      "hit": false,
      "t": 181125,
      "d": 367.1875,
      "v": 88
    },
    {
      "midi": 46,
      "hit": false,
      "t": 181320.3125,
      "d": 78.125,
      "v": 58
    },
    {
      "midi": 48,
      "hit": false,
      "t": 181500,
      "d": 304.6875,
      "v": 98
    },
    {
      "midi": 46,
      "hit": false,
      "t": 181875,
      "d": 187.5,
      "v": 58
    },
    {
      "midi": 48,
      "hit": false,
      "t": 182250,
      "d": 304.6875,
      "v": 94
    },
    {
      "midi": 51,
      "hit": false,
      "t": 182625,
      "d": 171.875,
      "v": 87
    },
    {
      "midi": 46,
      "hit": false,
      "t": 182820.3125,
      "d": 78.125,
      "v": 64
    },
    {
      "midi": 48,
      "hit": false,
      "t": 183000,
      "d": 125,
      "v": 80
    },
    {
      "midi": 48,
      "hit": false,
      "t": 183195.3125,
      "d": 164.0625,
      "v": 70
    },
    {
      "midi": 46,
      "hit": false,
      "t": 183570.3125,
      "d": 54.6875,
      "v": 61
    },
    {
      "midi": 48,
      "hit": false,
      "t": 183750,
      "d": 109.375,
      "v": 95
    },
    {
      "midi": 48,
      "hit": false,
      "t": 183945.3125,
      "d": 171.875,
      "v": 75
    },
    {
      "midi": 46,
      "hit": false,
      "t": 184320.3125,
      "d": 54.6875,
      "v": 43
    },
    {
      "midi": 48,
      "hit": false,
      "t": 184500,
      "d": 304.6875,
      "v": 100
    },
    {
      "midi": 46,
      "hit": false,
      "t": 184875,
      "d": 179.6875,
      "v": 55
    },
    {
      "midi": 48,
      "hit": false,
      "t": 185250,
      "d": 320.3125,
      "v": 95
    },
    {
      "midi": 43,
      "hit": false,
      "t": 185625,
      "d": 164.0625,
      "v": 62
    },
    {
      "midi": 46,
      "hit": false,
      "t": 185820.3125,
      "d": 101.5625,
      "v": 70
    },
    {
      "midi": 48,
      "hit": false,
      "t": 186000,
      "d": 85.9375,
      "v": 106
    },
    {
      "midi": 48,
      "hit": false,
      "t": 186195.3125,
      "d": 171.875,
      "v": 88
    },
    {
      "midi": 46,
      "hit": false,
      "t": 186570.3125,
      "d": 62.5,
      "v": 61
    },
    {
      "midi": 48,
      "hit": false,
      "t": 186750,
      "d": 132.8125,
      "v": 104
    },
    {
      "midi": 48,
      "hit": false,
      "t": 186945.3125,
      "d": 179.6875,
      "v": 85
    },
    {
      "midi": 46,
      "hit": false,
      "t": 187320.3125,
      "d": 54.6875,
      "v": 59
    },
    {
      "midi": 48,
      "hit": false,
      "t": 187500,
      "d": 328.125,
      "v": 102
    },
    {
      "midi": 36,
      "hit": false,
      "t": 187875,
      "d": 179.6875,
      "v": 110
    },
    {
      "midi": 46,
      "hit": false,
      "t": 187875,
      "d": 171.875,
      "v": 64
    },
    {
      "midi": 36,
      "hit": false,
      "t": 188062.5,
      "d": 179.6875,
      "v": 110
    },
    {
      "midi": 39,
      "hit": false,
      "t": 188250,
      "d": 367.1875,
      "v": 127
    },
    {
      "midi": 48,
      "hit": false,
      "t": 188250,
      "d": 335.9375,
      "v": 88
    },
    {
      "midi": 40,
      "hit": false,
      "t": 188625,
      "d": 367.1875,
      "v": 120
    },
    {
      "midi": 51,
      "hit": false,
      "t": 188625,
      "d": 171.875,
      "v": 83
    },
    {
      "midi": 46,
      "hit": false,
      "t": 188820.3125,
      "d": 78.125,
      "v": 72
    },
    {
      "midi": 36,
      "hit": false,
      "t": 189000,
      "d": 742.1875,
      "v": 120
    },
    {
      "midi": 48,
      "hit": false,
      "t": 189000,
      "d": 125,
      "v": 73
    },
    {
      "midi": 48,
      "hit": false,
      "t": 189195.3125,
      "d": 179.6875,
      "v": 80
    },
    {
      "midi": 46,
      "hit": false,
      "t": 189570.3125,
      "d": 78.125,
      "v": 59
    },
    {
      "midi": 48,
      "hit": false,
      "t": 189750,
      "d": 140.625,
      "v": 95
    },
    {
      "midi": 48,
      "hit": false,
      "t": 189945.3125,
      "d": 140.625,
      "v": 79
    },
    {
      "midi": 46,
      "hit": false,
      "t": 190320.3125,
      "d": 101.5625,
      "v": 53
    },
    {
      "midi": 48,
      "hit": false,
      "t": 190500,
      "d": 312.5,
      "v": 100
    },
    {
      "midi": 46,
      "hit": false,
      "t": 190875,
      "d": 125,
      "v": 54
    },
    {
      "midi": 48,
      "hit": false,
      "t": 191250,
      "d": 296.875,
      "v": 95
    },
    {
      "midi": 43,
      "hit": false,
      "t": 191625,
      "d": 156.25,
      "v": 67
    },
    {
      "midi": 46,
      "hit": false,
      "t": 191820.3125,
      "d": 117.1875,
      "v": 65
    },
    {
      "midi": 36,
      "hit": false,
      "t": 192000,
      "d": 492.1875,
      "v": 120
    },
    {
      "midi": 40,
      "hit": false,
      "t": 192570.3125,
      "d": 437.5,
      "v": 104
    },
    {
      "midi": 43,
      "hit": false,
      "t": 193125,
      "d": 4750,
      "v": 113
    },
    {
      "midi": 41,
      "hit": false,
      "t": 198000,
      "d": 531.25,
      "v": 108
    },
    {
      "midi": 45,
      "hit": false,
      "t": 198570.3125,
      "d": 421.875,
      "v": 112
    },
    {
      "midi": 48,
      "hit": false,
      "t": 199125,
      "d": 4796.875,
      "v": 113
    },
    {
      "midi": 43,
      "hit": false,
      "t": 204000,
      "d": 429.6875,
      "v": 104
    },
    {
      "midi": 47,
      "hit": false,
      "t": 204570.3125,
      "d": 429.6875,
      "v": 104
    },
    {
      "midi": 50,
      "hit": false,
      "t": 205125,
      "d": 4601.5625,
      "v": 100
    },
    {
      "midi": 41,
      "hit": false,
      "t": 210000,
      "d": 117.1875,
      "v": 117
    },
    {
      "midi": 41,
      "hit": false,
      "t": 210195.3125,
      "d": 234.375,
      "v": 101
    },
    {
      "midi": 41,
      "hit": false,
      "t": 210570.3125,
      "d": 218.75,
      "v": 92
    },
    {
      "midi": 41,
      "hit": false,
      "t": 210945.3125,
      "d": 242.1875,
      "v": 106
    },
    {
      "midi": 41,
      "hit": false,
      "t": 211320.3125,
      "d": 242.1875,
      "v": 115
    },
    {
      "midi": 41,
      "hit": false,
      "t": 211695.3125,
      "d": 226.5625,
      "v": 106
    },
    {
      "midi": 41,
      "hit": false,
      "t": 212070.3125,
      "d": 39.0625,
      "v": 84
    },
    {
      "midi": 41,
      "hit": false,
      "t": 212250,
      "d": 296.875,
      "v": 118
    },
    {
      "midi": 48,
      "hit": false,
      "t": 213000,
      "d": 171.875,
      "v": 108
    },
    {
      "midi": 64,
      "hit": false,
      "t": 213000,
      "d": 171.875,
      "v": 108
    },
    {
      "midi": 67,
      "hit": false,
      "t": 213000,
      "d": 171.875,
      "v": 114
    },
    {
      "midi": 72,
      "hit": false,
      "t": 213000,
      "d": 171.875,
      "v": 87
    },
    {
      "midi": 48,
      "hit": false,
      "t": 213000,
      "d": 93.75,
      "v": 98
    },
    {
      "midi": 48,
      "hit": false,
      "t": 213187.5,
      "d": 171.875,
      "v": 87
    },
    {
      "midi": 64,
      "hit": false,
      "t": 213187.5,
      "d": 171.875,
      "v": 88
    },
    {
      "midi": 67,
      "hit": false,
      "t": 213187.5,
      "d": 171.875,
      "v": 85
    },
    {
      "midi": 72,
      "hit": false,
      "t": 213187.5,
      "d": 171.875,
      "v": 78
    },
    {
      "midi": 48,
      "hit": false,
      "t": 213195.3125,
      "d": 140.625,
      "v": 84
    },
    {
      "midi": 48,
      "hit": false,
      "t": 213375,
      "d": 171.875,
      "v": 100
    },
    {
      "midi": 64,
      "hit": false,
      "t": 213375,
      "d": 171.875,
      "v": 80
    },
    {
      "midi": 67,
      "hit": false,
      "t": 213375,
      "d": 171.875,
      "v": 102
    },
    {
      "midi": 72,
      "hit": false,
      "t": 213375,
      "d": 171.875,
      "v": 90
    },
    {
      "midi": 46,
      "hit": false,
      "t": 213562.5,
      "d": 367.1875,
      "v": 97
    },
    {
      "midi": 62,
      "hit": false,
      "t": 213562.5,
      "d": 367.1875,
      "v": 98
    },
    {
      "midi": 65,
      "hit": false,
      "t": 213562.5,
      "d": 367.1875,
      "v": 97
    },
    {
      "midi": 70,
      "hit": false,
      "t": 213562.5,
      "d": 367.1875,
      "v": 97
    },
    {
      "midi": 46,
      "hit": false,
      "t": 213570.3125,
      "d": 54.6875,
      "v": 61
    },
    {
      "midi": 48,
      "hit": false,
      "t": 213750,
      "d": 132.8125,
      "v": 91
    },
    {
      "midi": 48,
      "hit": false,
      "t": 213937.5,
      "d": 4679.6875,
      "v": 108
    },
    {
      "midi": 64,
      "hit": false,
      "t": 213937.5,
      "d": 4679.6875,
      "v": 100
    },
    {
      "midi": 67,
      "hit": false,
      "t": 213937.5,
      "d": 4679.6875,
      "v": 114
    },
    {
      "midi": 72,
      "hit": false,
      "t": 213937.5,
      "d": 4679.6875,
      "v": 90
    },
    {
      "midi": 48,
      "hit": false,
      "t": 213945.3125,
      "d": 140.625,
      "v": 90
    },
    {
      "midi": 46,
      "hit": false,
      "t": 214320.3125,
      "d": 78.125,
      "v": 58
    },
    {
      "midi": 48,
      "hit": false,
      "t": 214500,
      "d": 304.6875,
      "v": 98
    },
    {
      "midi": 46,
      "hit": false,
      "t": 214875,
      "d": 187.5,
      "v": 58
    },
    {
      "midi": 48,
      "hit": false,
      "t": 215250,
      "d": 304.6875,
      "v": 94
    },
    {
      "midi": 51,
      "hit": false,
      "t": 215625,
      "d": 171.875,
      "v": 87
    },
    {
      "midi": 46,
      "hit": false,
      "t": 215820.3125,
      "d": 78.125,
      "v": 64
    },
    {
      "midi": 48,
      "hit": false,
      "t": 216000,
      "d": 125,
      "v": 80
    },
    {
      "midi": 48,
      "hit": false,
      "t": 216195.3125,
      "d": 164.0625,
      "v": 70
    },
    {
      "midi": 46,
      "hit": false,
      "t": 216570.3125,
      "d": 54.6875,
      "v": 61
    },
    {
      "midi": 48,
      "hit": false,
      "t": 216750,
      "d": 109.375,
      "v": 95
    },
    {
      "midi": 48,
      "hit": false,
      "t": 216945.3125,
      "d": 171.875,
      "v": 75
    },
    {
      "midi": 46,
      "hit": false,
      "t": 217320.3125,
      "d": 54.6875,
      "v": 43
    },
    {
      "midi": 48,
      "hit": false,
      "t": 217500,
      "d": 304.6875,
      "v": 100
    },
    {
      "midi": 46,
      "hit": false,
      "t": 217875,
      "d": 179.6875,
      "v": 55
    },
    {
      "midi": 48,
      "hit": false,
      "t": 218250,
      "d": 320.3125,
      "v": 95
    },
    {
      "midi": 43,
      "hit": false,
      "t": 218625,
      "d": 164.0625,
      "v": 62
    },
    {
      "midi": 46,
      "hit": false,
      "t": 218820.3125,
      "d": 101.5625,
      "v": 70
    },
    {
      "midi": 51,
      "hit": false,
      "t": 219000,
      "d": 179.6875,
      "v": 113
    },
    {
      "midi": 63,
      "hit": false,
      "t": 219000,
      "d": 179.6875,
      "v": 113
    },
    {
      "midi": 48,
      "hit": false,
      "t": 219000,
      "d": 93.75,
      "v": 98
    },
    {
      "midi": 51,
      "hit": false,
      "t": 219187.5,
      "d": 367.1875,
      "v": 99
    },
    {
      "midi": 63,
      "hit": false,
      "t": 219187.5,
      "d": 367.1875,
      "v": 98
    },
    {
      "midi": 48,
      "hit": false,
      "t": 219195.3125,
      "d": 140.625,
      "v": 84
    },
    {
      "midi": 48,
      "hit": false,
      "t": 219562.5,
      "d": 179.6875,
      "v": 85
    },
    {
      "midi": 60,
      "hit": false,
      "t": 219562.5,
      "d": 179.6875,
      "v": 89
    },
    {
      "midi": 46,
      "hit": false,
      "t": 219570.3125,
      "d": 54.6875,
      "v": 61
    },
    {
      "midi": 51,
      "hit": false,
      "t": 219750,
      "d": 179.6875,
      "v": 110
    },
    {
      "midi": 63,
      "hit": false,
      "t": 219750,
      "d": 179.6875,
      "v": 100
    },
    {
      "midi": 48,
      "hit": false,
      "t": 219750,
      "d": 132.8125,
      "v": 91
    },
    {
      "midi": 48,
      "hit": false,
      "t": 219937.5,
      "d": 367.1875,
      "v": 98
    },
    {
      "midi": 60,
      "hit": false,
      "t": 219937.5,
      "d": 375,
      "v": 84
    },
    {
      "midi": 48,
      "hit": false,
      "t": 219945.3125,
      "d": 140.625,
      "v": 90
    },
    {
      "midi": 46,
      "hit": false,
      "t": 220312.5,
      "d": 179.6875,
      "v": 91
    },
    {
      "midi": 58,
      "hit": false,
      "t": 220312.5,
      "d": 179.6875,
      "v": 89
    },
    {
      "midi": 46,
      "hit": false,
      "t": 220320.3125,
      "d": 78.125,
      "v": 58
    },
    {
      "midi": 48,
      "hit": false,
      "t": 220500,
      "d": 742.1875,
      "v": 98
    },
    {
      "midi": 60,
      "hit": false,
      "t": 220500,
      "d": 742.1875,
      "v": 112
    },
    {
      "midi": 48,
      "hit": false,
      "t": 220500,
      "d": 304.6875,
      "v": 98
    },
    {
      "midi": 46,
      "hit": false,
      "t": 220875,
      "d": 187.5,
      "v": 58
    },
    {
      "midi": 48,
      "hit": false,
      "t": 221250,
      "d": 304.6875,
      "v": 94
    },
    {
      "midi": 62,
      "hit": false,
      "t": 221625,
      "d": 367.1875,
      "v": 95
    },
    {
      "midi": 65,
      "hit": false,
      "t": 221625,
      "d": 367.1875,
      "v": 102
    },
    {
      "midi": 69,
      "hit": false,
      "t": 221625,
      "d": 367.1875,
      "v": 112
    },
    {
      "midi": 51,
      "hit": false,
      "t": 221625,
      "d": 171.875,
      "v": 87
    },
    {
      "midi": 46,
      "hit": false,
      "t": 221820.3125,
      "d": 78.125,
      "v": 64
    },
    {
      "midi": 60,
      "hit": false,
      "t": 222000,
      "d": 367.1875,
      "v": 84
    },
    {
      "midi": 64,
      "hit": false,
      "t": 222000,
      "d": 367.1875,
      "v": 81
    },
    {
      "midi": 67,
      "hit": false,
      "t": 222000,
      "d": 367.1875,
      "v": 87
    },
    {
      "midi": 48,
      "hit": false,
      "t": 222000,
      "d": 125,
      "v": 80
    },
    {
      "midi": 48,
      "hit": false,
      "t": 222195.3125,
      "d": 164.0625,
      "v": 70
    },
    {
      "midi": 46,
      "hit": false,
      "t": 222570.3125,
      "d": 54.6875,
      "v": 61
    },
    {
      "midi": 48,
      "hit": false,
      "t": 222750,
      "d": 109.375,
      "v": 95
    },
    {
      "midi": 48,
      "hit": false,
      "t": 222945.3125,
      "d": 171.875,
      "v": 75
    },
    {
      "midi": 46,
      "hit": false,
      "t": 223320.3125,
      "d": 54.6875,
      "v": 43
    },
    {
      "midi": 48,
      "hit": false,
      "t": 223500,
      "d": 304.6875,
      "v": 100
    },
    {
      "midi": 46,
      "hit": false,
      "t": 223875,
      "d": 179.6875,
      "v": 55
    },
    {
      "midi": 48,
      "hit": false,
      "t": 224250,
      "d": 320.3125,
      "v": 95
    },
    {
      "midi": 43,
      "hit": false,
      "t": 224625,
      "d": 164.0625,
      "v": 62
    },
    {
      "midi": 46,
      "hit": false,
      "t": 224820.3125,
      "d": 101.5625,
      "v": 70
    },
    {
      "midi": 48,
      "hit": false,
      "t": 225000,
      "d": 171.875,
      "v": 108
    },
    {
      "midi": 64,
      "hit": false,
      "t": 225000,
      "d": 171.875,
      "v": 108
    },
    {
      "midi": 67,
      "hit": false,
      "t": 225000,
      "d": 171.875,
      "v": 114
    },
    {
      "midi": 72,
      "hit": false,
      "t": 225000,
      "d": 171.875,
      "v": 87
    },
    {
      "midi": 48,
      "hit": false,
      "t": 225000,
      "d": 93.75,
      "v": 98
    },
    {
      "midi": 48,
      "hit": false,
      "t": 225187.5,
      "d": 171.875,
      "v": 87
    },
    {
      "midi": 64,
      "hit": false,
      "t": 225187.5,
      "d": 171.875,
      "v": 88
    },
    {
      "midi": 67,
      "hit": false,
      "t": 225187.5,
      "d": 171.875,
      "v": 85
    },
    {
      "midi": 72,
      "hit": false,
      "t": 225187.5,
      "d": 171.875,
      "v": 78
    },
    {
      "midi": 48,
      "hit": false,
      "t": 225195.3125,
      "d": 140.625,
      "v": 84
    },
    {
      "midi": 48,
      "hit": false,
      "t": 225375,
      "d": 171.875,
      "v": 100
    },
    {
      "midi": 64,
      "hit": false,
      "t": 225375,
      "d": 171.875,
      "v": 80
    },
    {
      "midi": 67,
      "hit": false,
      "t": 225375,
      "d": 171.875,
      "v": 102
    },
    {
      "midi": 72,
      "hit": false,
      "t": 225375,
      "d": 171.875,
      "v": 90
    },
    {
      "midi": 46,
      "hit": false,
      "t": 225562.5,
      "d": 367.1875,
      "v": 97
    },
    {
      "midi": 62,
      "hit": false,
      "t": 225562.5,
      "d": 367.1875,
      "v": 98
    },
    {
      "midi": 65,
      "hit": false,
      "t": 225562.5,
      "d": 367.1875,
      "v": 97
    },
    {
      "midi": 70,
      "hit": false,
      "t": 225562.5,
      "d": 367.1875,
      "v": 97
    },
    {
      "midi": 46,
      "hit": false,
      "t": 225570.3125,
      "d": 54.6875,
      "v": 61
    },
    {
      "midi": 48,
      "hit": false,
      "t": 225750,
      "d": 132.8125,
      "v": 91
    },
    {
      "midi": 48,
      "hit": false,
      "t": 225937.5,
      "d": 4304.6875,
      "v": 108
    },
    {
      "midi": 64,
      "hit": false,
      "t": 225937.5,
      "d": 4304.6875,
      "v": 100
    },
    {
      "midi": 67,
      "hit": false,
      "t": 225937.5,
      "d": 4304.6875,
      "v": 114
    },
    {
      "midi": 72,
      "hit": false,
      "t": 225937.5,
      "d": 4304.6875,
      "v": 90
    },
    {
      "midi": 48,
      "hit": false,
      "t": 225945.3125,
      "d": 140.625,
      "v": 90
    },
    {
      "midi": 46,
      "hit": false,
      "t": 226320.3125,
      "d": 78.125,
      "v": 58
    },
    {
      "midi": 48,
      "hit": false,
      "t": 226500,
      "d": 304.6875,
      "v": 98
    },
    {
      "midi": 46,
      "hit": false,
      "t": 226875,
      "d": 187.5,
      "v": 58
    },
    {
      "midi": 48,
      "hit": false,
      "t": 227250,
      "d": 304.6875,
      "v": 94
    },
    {
      "midi": 51,
      "hit": false,
      "t": 227625,
      "d": 171.875,
      "v": 87
    },
    {
      "midi": 46,
      "hit": false,
      "t": 227820.3125,
      "d": 78.125,
      "v": 64
    },
    {
      "midi": 48,
      "hit": false,
      "t": 228000,
      "d": 125,
      "v": 80
    },
    {
      "midi": 48,
      "hit": false,
      "t": 228195.3125,
      "d": 164.0625,
      "v": 70
    },
    {
      "midi": 46,
      "hit": false,
      "t": 228570.3125,
      "d": 54.6875,
      "v": 61
    },
    {
      "midi": 48,
      "hit": false,
      "t": 228750,
      "d": 109.375,
      "v": 95
    },
    {
      "midi": 48,
      "hit": false,
      "t": 228945.3125,
      "d": 171.875,
      "v": 75
    },
    {
      "midi": 46,
      "hit": false,
      "t": 229320.3125,
      "d": 54.6875,
      "v": 43
    },
    {
      "midi": 48,
      "hit": false,
      "t": 229500,
      "d": 304.6875,
      "v": 100
    },
    {
      "midi": 46,
      "hit": false,
      "t": 229875,
      "d": 179.6875,
      "v": 55
    },
    {
      "midi": 48,
      "hit": false,
      "t": 230250,
      "d": 320.3125,
      "v": 95
    },
    {
      "midi": 43,
      "hit": false,
      "t": 230625,
      "d": 164.0625,
      "v": 62
    },
    {
      "midi": 46,
      "hit": false,
      "t": 230820.3125,
      "d": 101.5625,
      "v": 70
    },
    {
      "midi": 51,
      "hit": false,
      "t": 231000,
      "d": 179.6875,
      "v": 113
    },
    {
      "midi": 63,
      "hit": false,
      "t": 231000,
      "d": 179.6875,
      "v": 113
    },
    {
      "midi": 48,
      "hit": false,
      "t": 231000,
      "d": 85.9375,
      "v": 106
    },
    {
      "midi": 51,
      "hit": false,
      "t": 231187.5,
      "d": 367.1875,
      "v": 99
    },
    {
      "midi": 63,
      "hit": false,
      "t": 231187.5,
      "d": 367.1875,
      "v": 98
    },
    {
      "midi": 48,
      "hit": false,
      "t": 231195.3125,
      "d": 171.875,
      "v": 88
    },
    {
      "midi": 48,
      "hit": false,
      "t": 231562.5,
      "d": 179.6875,
      "v": 85
    },
    {
      "midi": 60,
      "hit": false,
      "t": 231562.5,
      "d": 179.6875,
      "v": 89
    },
    {
      "midi": 46,
      "hit": false,
      "t": 231570.3125,
      "d": 62.5,
      "v": 61
    },
    {
      "midi": 51,
      "hit": false,
      "t": 231750,
      "d": 179.6875,
      "v": 110
    },
    {
      "midi": 63,
      "hit": false,
      "t": 231750,
      "d": 179.6875,
      "v": 100
    },
    {
      "midi": 48,
      "hit": false,
      "t": 231750,
      "d": 132.8125,
      "v": 104
    },
    {
      "midi": 48,
      "hit": false,
      "t": 231937.5,
      "d": 367.1875,
      "v": 98
    },
    {
      "midi": 60,
      "hit": false,
      "t": 231937.5,
      "d": 375,
      "v": 84
    },
    {
      "midi": 48,
      "hit": false,
      "t": 231945.3125,
      "d": 179.6875,
      "v": 85
    },
    {
      "midi": 46,
      "hit": false,
      "t": 232312.5,
      "d": 179.6875,
      "v": 91
    },
    {
      "midi": 58,
      "hit": false,
      "t": 232312.5,
      "d": 179.6875,
      "v": 89
    },
    {
      "midi": 46,
      "hit": false,
      "t": 232320.3125,
      "d": 54.6875,
      "v": 59
    },
    {
      "midi": 48,
      "hit": false,
      "t": 232500,
      "d": 742.1875,
      "v": 98
    },
    {
      "midi": 60,
      "hit": false,
      "t": 232500,
      "d": 742.1875,
      "v": 112
    },
    {
      "midi": 48,
      "hit": false,
      "t": 232500,
      "d": 328.125,
      "v": 102
    },
    {
      "midi": 46,
      "hit": false,
      "t": 232875,
      "d": 171.875,
      "v": 64
    },
    {
      "midi": 48,
      "hit": false,
      "t": 233250,
      "d": 335.9375,
      "v": 88
    },
    {
      "midi": 62,
      "hit": false,
      "t": 233625,
      "d": 367.1875,
      "v": 95
    },
    {
      "midi": 65,
      "hit": false,
      "t": 233625,
      "d": 367.1875,
      "v": 102
    },
    {
      "midi": 69,
      "hit": false,
      "t": 233625,
      "d": 367.1875,
      "v": 112
    },
    {
      "midi": 51,
      "hit": false,
      "t": 233625,
      "d": 171.875,
      "v": 83
    },
    {
      "midi": 46,
      "hit": false,
      "t": 233820.3125,
      "d": 78.125,
      "v": 72
    },
    {
      "midi": 60,
      "hit": false,
      "t": 234000,
      "d": 367.1875,
      "v": 84
    },
    {
      "midi": 64,
      "hit": false,
      "t": 234000,
      "d": 367.1875,
      "v": 81
    },
    {
      "midi": 67,
      "hit": false,
      "t": 234000,
      "d": 367.1875,
      "v": 87
    },
    {
      "midi": 48,
      "hit": false,
      "t": 234000,
      "d": 125,
      "v": 73
    },
    {
      "midi": 48,
      "hit": false,
      "t": 234195.3125,
      "d": 179.6875,
      "v": 80
    },
    {
      "midi": 46,
      "hit": false,
      "t": 234570.3125,
      "d": 78.125,
      "v": 59
    },
    {
      "midi": 48,
      "hit": false,
      "t": 234750,
      "d": 140.625,
      "v": 95
    },
    {
      "midi": 48,
      "hit": false,
      "t": 234945.3125,
      "d": 140.625,
      "v": 79
    },
    {
      "midi": 46,
      "hit": false,
      "t": 235320.3125,
      "d": 101.5625,
      "v": 53
    },
    {
      "midi": 48,
      "hit": false,
      "t": 235500,
      "d": 312.5,
      "v": 100
    },
    {
      "midi": 46,
      "hit": false,
      "t": 235875,
      "d": 125,
      "v": 54
    },
    {
      "midi": 48,
      "hit": false,
      "t": 236250,
      "d": 296.875,
      "v": 95
    },
    {
      "midi": 43,
      "hit": false,
      "t": 236625,
      "d": 156.25,
      "v": 67
    },
    {
      "midi": 46,
      "hit": false,
      "t": 236820.3125,
      "d": 117.1875,
      "v": 65
    },
    {
      "midi": 48,
      "hit": false,
      "t": 237000,
      "d": 171.875,
      "v": 108
    },
    {
      "midi": 64,
      "hit": false,
      "t": 237000,
      "d": 171.875,
      "v": 108
    },
    {
      "midi": 67,
      "hit": false,
      "t": 237000,
      "d": 171.875,
      "v": 114
    },
    {
      "midi": 72,
      "hit": false,
      "t": 237000,
      "d": 171.875,
      "v": 87
    },
    {
      "midi": 48,
      "hit": false,
      "t": 237000,
      "d": 85.9375,
      "v": 102
    },
    {
      "midi": 48,
      "hit": false,
      "t": 237187.5,
      "d": 171.875,
      "v": 87
    },
    {
      "midi": 64,
      "hit": false,
      "t": 237187.5,
      "d": 171.875,
      "v": 88
    },
    {
      "midi": 67,
      "hit": false,
      "t": 237187.5,
      "d": 171.875,
      "v": 85
    },
    {
      "midi": 72,
      "hit": false,
      "t": 237187.5,
      "d": 171.875,
      "v": 78
    },
    {
      "midi": 48,
      "hit": false,
      "t": 237195.3125,
      "d": 203.125,
      "v": 85
    },
    {
      "midi": 48,
      "hit": false,
      "t": 237375,
      "d": 171.875,
      "v": 100
    },
    {
      "midi": 64,
      "hit": false,
      "t": 237375,
      "d": 171.875,
      "v": 80
    },
    {
      "midi": 67,
      "hit": false,
      "t": 237375,
      "d": 171.875,
      "v": 102
    },
    {
      "midi": 72,
      "hit": false,
      "t": 237375,
      "d": 171.875,
      "v": 90
    },
    {
      "midi": 46,
      "hit": false,
      "t": 237562.5,
      "d": 367.1875,
      "v": 97
    },
    {
      "midi": 62,
      "hit": false,
      "t": 237562.5,
      "d": 367.1875,
      "v": 98
    },
    {
      "midi": 65,
      "hit": false,
      "t": 237562.5,
      "d": 367.1875,
      "v": 97
    },
    {
      "midi": 70,
      "hit": false,
      "t": 237562.5,
      "d": 367.1875,
      "v": 97
    },
    {
      "midi": 46,
      "hit": false,
      "t": 237570.3125,
      "d": 85.9375,
      "v": 67
    },
    {
      "midi": 48,
      "hit": false,
      "t": 237750,
      "d": 125,
      "v": 100
    },
    {
      "midi": 48,
      "hit": false,
      "t": 237937.5,
      "d": 4679.6875,
      "v": 108
    },
    {
      "midi": 64,
      "hit": false,
      "t": 237937.5,
      "d": 4679.6875,
      "v": 100
    },
    {
      "midi": 67,
      "hit": false,
      "t": 237937.5,
      "d": 4679.6875,
      "v": 114
    },
    {
      "midi": 72,
      "hit": false,
      "t": 237937.5,
      "d": 4679.6875,
      "v": 90
    },
    {
      "midi": 48,
      "hit": false,
      "t": 237945.3125,
      "d": 164.0625,
      "v": 72
    },
    {
      "midi": 46,
      "hit": false,
      "t": 238320.3125,
      "d": 85.9375,
      "v": 56
    },
    {
      "midi": 48,
      "hit": false,
      "t": 238500,
      "d": 304.6875,
      "v": 86
    },
    {
      "midi": 46,
      "hit": false,
      "t": 238875,
      "d": 226.5625,
      "v": 54
    },
    {
      "midi": 48,
      "hit": false,
      "t": 239250,
      "d": 335.9375,
      "v": 83
    },
    {
      "midi": 51,
      "hit": false,
      "t": 239625,
      "d": 140.625,
      "v": 95
    },
    {
      "midi": 46,
      "hit": false,
      "t": 239820.3125,
      "d": 132.8125,
      "v": 44
    },
    {
      "midi": 48,
      "hit": false,
      "t": 240000,
      "d": 78.125,
      "v": 89
    },
    {
      "midi": 48,
      "hit": false,
      "t": 240195.3125,
      "d": 210.9375,
      "v": 73
    },
    {
      "midi": 46,
      "hit": false,
      "t": 240570.3125,
      "d": 62.5,
      "v": 56
    },
    {
      "midi": 48,
      "hit": false,
      "t": 240750,
      "d": 117.1875,
      "v": 92
    },
    {
      "midi": 48,
      "hit": false,
      "t": 240945.3125,
      "d": 187.5,
      "v": 83
    },
    {
      "midi": 46,
      "hit": false,
      "t": 241320.3125,
      "d": 46.875,
      "v": 49
    },
    {
      "midi": 48,
      "hit": false,
      "t": 241500,
      "d": 343.75,
      "v": 100
    },
    {
      "midi": 46,
      "hit": false,
      "t": 241875,
      "d": 187.5,
      "v": 64
    },
    {
      "midi": 48,
      "hit": false,
      "t": 242250,
      "d": 250,
      "v": 104
    },
    {
      "midi": 43,
      "hit": false,
      "t": 242625,
      "d": 156.25,
      "v": 66
    },
    {
      "midi": 46,
      "hit": false,
      "t": 242820.3125,
      "d": 109.375,
      "v": 56
    },
    {
      "midi": 51,
      "hit": false,
      "t": 243000,
      "d": 179.6875,
      "v": 113
    },
    {
      "midi": 63,
      "hit": false,
      "t": 243000,
      "d": 179.6875,
      "v": 113
    },
    {
      "midi": 48,
      "hit": false,
      "t": 243000,
      "d": 93.75,
      "v": 98
    },
    {
      "midi": 51,
      "hit": false,
      "t": 243187.5,
      "d": 367.1875,
      "v": 99
    },
    {
      "midi": 63,
      "hit": false,
      "t": 243187.5,
      "d": 367.1875,
      "v": 98
    },
    {
      "midi": 48,
      "hit": false,
      "t": 243195.3125,
      "d": 140.625,
      "v": 84
    },
    {
      "midi": 48,
      "hit": false,
      "t": 243562.5,
      "d": 179.6875,
      "v": 85
    },
    {
      "midi": 60,
      "hit": false,
      "t": 243562.5,
      "d": 179.6875,
      "v": 89
    },
    {
      "midi": 46,
      "hit": false,
      "t": 243570.3125,
      "d": 54.6875,
      "v": 61
    },
    {
      "midi": 51,
      "hit": false,
      "t": 243750,
      "d": 179.6875,
      "v": 110
    },
    {
      "midi": 63,
      "hit": false,
      "t": 243750,
      "d": 179.6875,
      "v": 100
    },
    {
      "midi": 48,
      "hit": false,
      "t": 243750,
      "d": 132.8125,
      "v": 91
    },
    {
      "midi": 48,
      "hit": false,
      "t": 243937.5,
      "d": 367.1875,
      "v": 98
    },
    {
      "midi": 60,
      "hit": false,
      "t": 243937.5,
      "d": 375,
      "v": 84
    },
    {
      "midi": 48,
      "hit": false,
      "t": 243945.3125,
      "d": 140.625,
      "v": 90
    },
    {
      "midi": 46,
      "hit": false,
      "t": 244312.5,
      "d": 179.6875,
      "v": 91
    },
    {
      "midi": 58,
      "hit": false,
      "t": 244312.5,
      "d": 179.6875,
      "v": 89
    },
    {
      "midi": 46,
      "hit": false,
      "t": 244320.3125,
      "d": 78.125,
      "v": 58
    },
    {
      "midi": 48,
      "hit": false,
      "t": 244500,
      "d": 742.1875,
      "v": 98
    },
    {
      "midi": 60,
      "hit": false,
      "t": 244500,
      "d": 742.1875,
      "v": 112
    },
    {
      "midi": 48,
      "hit": false,
      "t": 244500,
      "d": 304.6875,
      "v": 98
    },
    {
      "midi": 46,
      "hit": false,
      "t": 244875,
      "d": 187.5,
      "v": 58
    },
    {
      "midi": 48,
      "hit": false,
      "t": 245250,
      "d": 304.6875,
      "v": 94
    },
    {
      "midi": 51,
      "hit": false,
      "t": 245625,
      "d": 171.875,
      "v": 87
    },
    {
      "midi": 46,
      "hit": false,
      "t": 245820.3125,
      "d": 78.125,
      "v": 64
    }
  ]
}