{
  "jsonPath": "Pop/Italian Arena Pop/Di Leva/heliga-moder.json",
  "path": "Pop\\Italian Arena Pop\\Di Leva\\Heliga Moder.mid",
  "name": "Heliga Moder",
  "difficulty": "Advanced",
  "bpm": 69.00009660013524,
  "notes": [
    {
      "midi": 55,
      "hit": false,
      "t": 0,
      "d": 1731.8816333333334,
      "v": 100
    },
    {
      "midi": 59,
      "hit": false,
      "t": 0,
      "d": 1731.8816333333334,
      "v": 100
    },
    {
      "midi": 62,
      "hit": false,
      "t": 434.78200000000004,
      "d": 427.5356333333333,
      "v": 100
    },
    {
      "midi": 67,
      "hit": false,
      "t": 869.564,
      "d": 427.5356333333333,
      "v": 100
    },
    {
      "midi": 71,
      "hit": false,
      "t": 1304.346,
      "d": 427.5356333333334,
      "v": 100
    },
    {
      "midi": 74,
      "hit": false,
      "t": 1739.1280000000002,
      "d": 862.3176333333336,
      "v": 100
    },
    {
      "midi": 54,
      "hit": false,
      "t": 1739.1280000000002,
      "d": 1731.8816333333339,
      "v": 100
    },
    {
      "midi": 59,
      "hit": false,
      "t": 1739.1280000000002,
      "d": 1731.8816333333339,
      "v": 100
    },
    {
      "midi": 71,
      "hit": false,
      "t": 2173.9100000000003,
      "d": 862.3176333333336,
      "v": 100
    },
    {
      "midi": 67,
      "hit": false,
      "t": 2608.6920000000005,
      "d": 862.3176333333336,
      "v": 100
    },
    {
      "midi": 52,
      "hit": false,
      "t": 3478.2560000000008,
      "d": 1434.7806000000005,
      "v": 100
    },
    {
      "midi": 55,
      "hit": false,
      "t": 3478.2560000000008,
      "d": 1673.9107,
      "v": 100
    },
    {
      "midi": 59,
      "hit": false,
      "t": 3478.2560000000008,
      "d": 1695.6497999999997,
      "v": 100
    },
    {
      "midi": 67,
      "hit": false,
      "t": 3913.038000000001,
      "d": 492.75293333333275,
      "v": 100
    },
    {
      "midi": 64,
      "hit": false,
      "t": 4347.820000000001,
      "d": 536.2311333333337,
      "v": 100
    },
    {
      "midi": 67,
      "hit": false,
      "t": 4782.602000000001,
      "d": 326.08650000000034,
      "v": 100
    },
    {
      "midi": 69,
      "hit": false,
      "t": 5217.384,
      "d": 413.0429000000004,
      "v": 100
    },
    {
      "midi": 55,
      "hit": false,
      "t": 5217.384,
      "d": 1333.3314666666674,
      "v": 100
    },
    {
      "midi": 59,
      "hit": false,
      "t": 5217.384,
      "d": 1347.824200000001,
      "v": 100
    },
    {
      "midi": 50,
      "hit": false,
      "t": 5217.384,
      "d": 1355.0705666666672,
      "v": 100
    },
    {
      "midi": 64,
      "hit": false,
      "t": 5652.166,
      "d": 847.8249000000005,
      "v": 100
    },
    {
      "midi": 67,
      "hit": false,
      "t": 6086.948,
      "d": 427.53563333333386,
      "v": 100
    },
    {
      "midi": 52,
      "hit": false,
      "t": 6956.512000000001,
      "d": 1710.1425333333318,
      "v": 100
    },
    {
      "midi": 48,
      "hit": false,
      "t": 6956.512000000001,
      "d": 1724.6352666666644,
      "v": 100
    },
    {
      "midi": 60,
      "hit": false,
      "t": 7826.076000000001,
      "d": 913.0421999999944,
      "v": 100
    },
    {
      "midi": 64,
      "hit": false,
      "t": 8043.467000000001,
      "d": 681.1584666666622,
      "v": 100
    },
    {
      "midi": 67,
      "hit": false,
      "t": 8478.249,
      "d": 304.3473999999951,
      "v": 100
    },
    {
      "midi": 55,
      "hit": false,
      "t": 8695.639999999998,
      "d": 14.49273333333258,
      "v": 100
    },
    {
      "midi": 52,
      "hit": false,
      "t": 8695.639999999998,
      "d": 644.9266333333308,
      "v": 100
    },
    {
      "midi": 59,
      "hit": false,
      "t": 9130.421999999995,
      "d": 210.14463333333333,
      "v": 100
    },
    {
      "midi": 59,
      "hit": false,
      "t": 9347.812999999995,
      "d": 210.14463333333333,
      "v": 100
    },
    {
      "midi": 52,
      "hit": false,
      "t": 9347.812999999995,
      "d": 1731.8816333333307,
      "v": 100
    },
    {
      "midi": 55,
      "hit": false,
      "t": 9347.812999999995,
      "d": 1731.8816333333307,
      "v": 100
    },
    {
      "midi": 60,
      "hit": false,
      "t": 9782.594999999994,
      "d": 427.53563333333295,
      "v": 100
    },
    {
      "midi": 64,
      "hit": false,
      "t": 9999.985999999994,
      "d": 427.53563333333295,
      "v": 100
    },
    {
      "midi": 67,
      "hit": false,
      "t": 10217.376999999993,
      "d": 427.53563333333295,
      "v": 100
    },
    {
      "midi": 50,
      "hit": false,
      "t": 10434.767999999993,
      "d": 1731.8816333333307,
      "v": 100
    },
    {
      "midi": 54,
      "hit": false,
      "t": 10434.767999999993,
      "d": 1731.8816333333307,
      "v": 100
    },
    {
      "midi": 57,
      "hit": false,
      "t": 10869.549999999992,
      "d": 427.53563333333295,
      "v": 100
    },
    {
      "midi": 60,
      "hit": false,
      "t": 11304.331999999991,
      "d": 427.53563333333295,
      "v": 100
    },
    {
      "midi": 62,
      "hit": false,
      "t": 11739.11399999999,
      "d": 427.53563333333295,
      "v": 100
    },
    {
      "midi": 62,
      "hit": false,
      "t": 12173.89599999999,
      "d": 862.317633333334,
      "v": 100
    },
    {
      "midi": 67,
      "hit": false,
      "t": 12173.89599999999,
      "d": 862.317633333334,
      "v": 100
    },
    {
      "midi": 69,
      "hit": false,
      "t": 12173.89599999999,
      "d": 862.317633333334,
      "v": 100
    },
    {
      "midi": 62,
      "hit": false,
      "t": 13043.45999999999,
      "d": 862.317633333334,
      "v": 100
    },
    {
      "midi": 66,
      "hit": false,
      "t": 13043.45999999999,
      "d": 862.317633333334,
      "v": 100
    },
    {
      "midi": 69,
      "hit": false,
      "t": 13043.45999999999,
      "d": 862.317633333334,
      "v": 100
    },
    {
      "midi": 55,
      "hit": false,
      "t": 13913.02399999999,
      "d": 1731.8816333333307,
      "v": 100
    },
    {
      "midi": 59,
      "hit": false,
      "t": 13913.02399999999,
      "d": 1731.8816333333307,
      "v": 100
    },
    {
      "midi": 62,
      "hit": false,
      "t": 14347.80599999999,
      "d": 427.53563333333295,
      "v": 100
    },
    {
      "midi": 67,
      "hit": false,
      "t": 14782.587999999989,
      "d": 427.53563333333295,
      "v": 100
    },
    {
      "midi": 71,
      "hit": false,
      "t": 15217.369999999988,
      "d": 427.53563333333295,
      "v": 100
    },
    {
      "midi": 74,
      "hit": false,
      "t": 15652.151999999987,
      "d": 862.3176333333322,
      "v": 100
    },
    {
      "midi": 54,
      "hit": false,
      "t": 15652.151999999987,
      "d": 1731.8816333333307,
      "v": 100
    },
    {
      "midi": 59,
      "hit": false,
      "t": 15652.151999999987,
      "d": 1731.8816333333307,
      "v": 100
    },
    {
      "midi": 71,
      "hit": false,
      "t": 16086.933999999987,
      "d": 862.3176333333322,
      "v": 100
    },
    {
      "midi": 67,
      "hit": false,
      "t": 16521.715999999986,
      "d": 862.3176333333322,
      "v": 100
    },
    {
      "midi": 52,
      "hit": false,
      "t": 17391.279999999984,
      "d": 1434.7805999999946,
      "v": 100
    },
    {
      "midi": 55,
      "hit": false,
      "t": 17391.279999999984,
      "d": 1673.9106999999967,
      "v": 100
    },
    {
      "midi": 59,
      "hit": false,
      "t": 17391.279999999984,
      "d": 1695.6497999999956,
      "v": 100
    },
    {
      "midi": 67,
      "hit": false,
      "t": 17826.061999999984,
      "d": 492.7529333333332,
      "v": 100
    },
    {
      "midi": 64,
      "hit": false,
      "t": 18260.843999999983,
      "d": 536.231133333331,
      "v": 100
    },
    {
      "midi": 67,
      "hit": false,
      "t": 18695.625999999982,
      "d": 326.0864999999976,
      "v": 100
    },
    {
      "midi": 69,
      "hit": false,
      "t": 19130.40799999998,
      "d": 413.0429000000004,
      "v": 100
    },
    {
      "midi": 55,
      "hit": false,
      "t": 19130.40799999998,
      "d": 1333.3314666666665,
      "v": 100
    },
    {
      "midi": 59,
      "hit": false,
      "t": 19130.40799999998,
      "d": 1347.824199999999,
      "v": 100
    },
    {
      "midi": 50,
      "hit": false,
      "t": 19130.40799999998,
      "d": 1355.0705666666654,
      "v": 100
    },
    {
      "midi": 64,
      "hit": false,
      "t": 19565.18999999998,
      "d": 847.8248999999996,
      "v": 100
    },
    {
      "midi": 67,
      "hit": false,
      "t": 19999.97199999998,
      "d": 427.53563333333295,
      "v": 100
    },
    {
      "midi": 52,
      "hit": false,
      "t": 20869.53599999998,
      "d": 1710.1425333333318,
      "v": 100
    },
    {
      "midi": 48,
      "hit": false,
      "t": 20869.53599999998,
      "d": 1724.6352666666644,
      "v": 100
    },
    {
      "midi": 60,
      "hit": false,
      "t": 21739.099999999977,
      "d": 913.0421999999962,
      "v": 100
    },
    {
      "midi": 64,
      "hit": false,
      "t": 21956.490999999976,
      "d": 681.158466666664,
      "v": 100
    },
    {
      "midi": 67,
      "hit": false,
      "t": 22391.272999999976,
      "d": 304.34739999999874,
      "v": 100
    },
    {
      "midi": 55,
      "hit": false,
      "t": 22608.663999999975,
      "d": 14.49273333333258,
      "v": 100
    },
    {
      "midi": 52,
      "hit": false,
      "t": 22608.663999999975,
      "d": 644.9266333333326,
      "v": 100
    },
    {
      "midi": 59,
      "hit": false,
      "t": 23043.445999999974,
      "d": 210.14463333333333,
      "v": 100
    },
    {
      "midi": 59,
      "hit": false,
      "t": 23260.836999999974,
      "d": 210.14463333333333,
      "v": 100
    },
    {
      "midi": 52,
      "hit": false,
      "t": 23260.836999999974,
      "d": 1731.8816333333307,
      "v": 100
    },
    {
      "midi": 55,
      "hit": false,
      "t": 23260.836999999974,
      "d": 1731.8816333333307,
      "v": 100
    },
    {
      "midi": 60,
      "hit": false,
      "t": 23695.618999999973,
      "d": 427.53563333333295,
      "v": 100
    },
    {
      "midi": 64,
      "hit": false,
      "t": 23913.009999999973,
      "d": 427.53563333333295,
      "v": 100
    },
    {
      "midi": 67,
      "hit": false,
      "t": 24130.400999999973,
      "d": 427.53563333333295,
      "v": 100
    },
    {
      "midi": 50,
      "hit": false,
      "t": 24347.791999999972,
      "d": 1731.8816333333307,
      "v": 100
    },
    {
      "midi": 54,
      "hit": false,
      "t": 24347.791999999972,
      "d": 1731.8816333333307,
      "v": 100
    },
    {
      "midi": 57,
      "hit": false,
      "t": 24782.57399999997,
      "d": 427.53563333333295,
      "v": 100
    },
    {
      "midi": 60,
      "hit": false,
      "t": 25217.35599999997,
      "d": 427.53563333333295,
      "v": 100
    },
    {
      "midi": 62,
      "hit": false,
      "t": 25652.13799999997,
      "d": 427.53563333333295,
      "v": 100
    },
    {
      "midi": 62,
      "hit": false,
      "t": 26086.91999999997,
      "d": 862.3176333333322,
      "v": 100
    },
    {
      "midi": 67,
      "hit": false,
      "t": 26086.91999999997,
      "d": 862.3176333333322,
      "v": 100
    },
    {
      "midi": 69,
      "hit": false,
      "t": 26086.91999999997,
      "d": 862.3176333333322,
      "v": 100
    },
    {
      "midi": 62,
      "hit": false,
      "t": 26956.483999999968,
      "d": 862.3176333333322,
      "v": 100
    },
    {
      "midi": 66,
      "hit": false,
      "t": 26956.483999999968,
      "d": 862.3176333333322,
      "v": 100
    },
    {
      "midi": 69,
      "hit": false,
      "t": 26956.483999999968,
      "d": 862.3176333333322,
      "v": 100
    },
    {
      "midi": 55,
      "hit": false,
      "t": 27826.047999999966,
      "d": 862.3176333333322,
      "v": 100
    },
    {
      "midi": 57,
      "hit": false,
      "t": 27826.047999999966,
      "d": 862.3176333333322,
      "v": 100
    },
    {
      "midi": 59,
      "hit": false,
      "t": 27826.047999999966,
      "d": 862.3176333333322,
      "v": 100
    },
    {
      "midi": 62,
      "hit": false,
      "t": 27826.047999999966,
      "d": 862.3176333333322,
      "v": 100
    },
    {
      "midi": 67,
      "hit": false,
      "t": 27826.047999999966,
      "d": 862.3176333333322,
      "v": 100
    },
    {
      "midi": 55,
      "hit": false,
      "t": 28695.611999999965,
      "d": 862.3176333333322,
      "v": 100
    },
    {
      "midi": 59,
      "hit": false,
      "t": 28695.611999999965,
      "d": 862.3176333333322,
      "v": 100
    },
    {
      "midi": 62,
      "hit": false,
      "t": 28695.611999999965,
      "d": 862.3176333333322,
      "v": 100
    },
    {
      "midi": 67,
      "hit": false,
      "t": 28695.611999999965,
      "d": 862.3176333333322,
      "v": 100
    },
    {
      "midi": 55,
      "hit": false,
      "t": 29565.175999999963,
      "d": 862.3176333333322,
      "v": 100
    },
    {
      "midi": 59,
      "hit": false,
      "t": 29565.175999999963,
      "d": 862.3176333333322,
      "v": 100
    },
    {
      "midi": 62,
      "hit": false,
      "t": 29565.175999999963,
      "d": 862.3176333333322,
      "v": 100
    },
    {
      "midi": 67,
      "hit": false,
      "t": 29565.175999999963,
      "d": 862.3176333333322,
      "v": 100
    },
    {
      "midi": 55,
      "hit": false,
      "t": 30434.73999999996,
      "d": 862.3176333333322,
      "v": 100
    },
    {
      "midi": 59,
      "hit": false,
      "t": 30434.73999999996,
      "d": 862.3176333333322,
      "v": 100
    },
    {
      "midi": 62,
      "hit": false,
      "t": 30434.73999999996,
      "d": 862.3176333333322,
      "v": 100
    },
    {
      "midi": 67,
      "hit": false,
      "t": 30434.73999999996,
      "d": 862.3176333333322,
      "v": 100
    },
    {
      "midi": 55,
      "hit": false,
      "t": 31304.30399999996,
      "d": 862.3176333333322,
      "v": 100
    },
    {
      "midi": 59,
      "hit": false,
      "t": 31304.30399999996,
      "d": 862.3176333333322,
      "v": 100
    },
    {
      "midi": 62,
      "hit": false,
      "t": 31304.30399999996,
      "d": 862.3176333333322,
      "v": 100
    },
    {
      "midi": 67,
      "hit": false,
      "t": 31304.30399999996,
      "d": 862.3176333333322,
      "v": 100
    },
    {
      "midi": 55,
      "hit": false,
      "t": 32173.86799999996,
      "d": 862.3176333333322,
      "v": 100
    },
    {
      "midi": 59,
      "hit": false,
      "t": 32173.86799999996,
      "d": 862.3176333333322,
      "v": 100
    },
    {
      "midi": 62,
      "hit": false,
      "t": 32173.86799999996,
      "d": 862.3176333333322,
      "v": 100
    },
    {
      "midi": 67,
      "hit": false,
      "t": 32173.86799999996,
      "d": 862.3176333333322,
      "v": 100
    },
    {
      "midi": 55,
      "hit": false,
      "t": 33043.43199999996,
      "d": 862.3176333333322,
      "v": 100
    },
    {
      "midi": 59,
      "hit": false,
      "t": 33043.43199999996,
      "d": 862.3176333333322,
      "v": 100
    },
    {
      "midi": 62,
      "hit": false,
      "t": 33043.43199999996,
      "d": 862.3176333333322,
      "v": 100
    },
    {
      "midi": 67,
      "hit": false,
      "t": 33043.43199999996,
      "d": 862.3176333333322,
      "v": 100
    },
    {
      "midi": 55,
      "hit": false,
      "t": 33912.995999999956,
      "d": 862.3176333333322,
      "v": 100
    },
    {
      "midi": 59,
      "hit": false,
      "t": 33912.995999999956,
      "d": 862.3176333333322,
      "v": 100
    },
    {
      "midi": 62,
      "hit": false,
      "t": 33912.995999999956,
      "d": 862.3176333333322,
      "v": 100
    },
    {
      "midi": 67,
      "hit": false,
      "t": 33912.995999999956,
      "d": 862.3176333333322,
      "v": 100
    },
    {
      "midi": 55,
      "hit": false,
      "t": 34782.559999999954,
      "d": 1731.8816333333307,
      "v": 100
    },
    {
      "midi": 59,
      "hit": false,
      "t": 34782.559999999954,
      "d": 1731.8816333333307,
      "v": 100
    },
    {
      "midi": 62,
      "hit": false,
      "t": 35217.34199999995,
      "d": 427.53563333333295,
      "v": 100
    },
    {
      "midi": 67,
      "hit": false,
      "t": 35652.12399999995,
      "d": 427.53563333333295,
      "v": 100
    },
    {
      "midi": 71,
      "hit": false,
      "t": 36086.90599999995,
      "d": 427.53563333333295,
      "v": 100
    },
    {
      "midi": 74,
      "hit": false,
      "t": 36521.68799999995,
      "d": 862.3176333333322,
      "v": 100
    },
    {
      "midi": 54,
      "hit": false,
      "t": 36521.68799999995,
      "d": 1731.8816333333307,
      "v": 100
    },
    {
      "midi": 59,
      "hit": false,
      "t": 36521.68799999995,
      "d": 1731.8816333333307,
      "v": 100
    },
    {
      "midi": 71,
      "hit": false,
      "t": 36956.46999999995,
      "d": 862.3176333333322,
      "v": 100
    },
    {
      "midi": 67,
      "hit": false,
      "t": 37391.25199999995,
      "d": 862.3176333333322,
      "v": 100
    },
    {
      "midi": 52,
      "hit": false,
      "t": 38260.81599999995,
      "d": 1434.7805999999982,
      "v": 100
    },
    {
      "midi": 55,
      "hit": false,
      "t": 38260.81599999995,
      "d": 1673.910699999993,
      "v": 100
    },
    {
      "midi": 59,
      "hit": false,
      "t": 38260.81599999995,
      "d": 1695.649799999992,
      "v": 100
    },
    {
      "midi": 67,
      "hit": false,
      "t": 38695.59799999995,
      "d": 492.75293333332957,
      "v": 100
    },
    {
      "midi": 64,
      "hit": false,
      "t": 39130.37999999995,
      "d": 536.2311333333346,
      "v": 100
    },
    {
      "midi": 67,
      "hit": false,
      "t": 39565.161999999946,
      "d": 326.0864999999976,
      "v": 100
    },
    {
      "midi": 69,
      "hit": false,
      "t": 39999.94399999994,
      "d": 413.0429000000004,
      "v": 100
    },
    {
      "midi": 55,
      "hit": false,
      "t": 39999.94399999994,
      "d": 1333.331466666663,
      "v": 100
    },
    {
      "midi": 59,
      "hit": false,
      "t": 39999.94399999994,
      "d": 1347.8241999999955,
      "v": 100
    },
    {
      "midi": 50,
      "hit": false,
      "t": 39999.94399999994,
      "d": 1355.0705666666618,
      "v": 100
    },
    {
      "midi": 64,
      "hit": false,
      "t": 40434.72599999994,
      "d": 847.8248999999996,
      "v": 100
    },
    {
      "midi": 67,
      "hit": false,
      "t": 40869.507999999936,
      "d": 427.53563333333295,
      "v": 100
    },
    {
      "midi": 52,
      "hit": false,
      "t": 41739.071999999935,
      "d": 1710.1425333333318,
      "v": 100
    },
    {
      "midi": 48,
      "hit": false,
      "t": 41739.071999999935,
      "d": 1724.6352666666644,
      "v": 100
    },
    {
      "midi": 60,
      "hit": false,
      "t": 42608.63599999993,
      "d": 913.0421999999962,
      "v": 100
    },
    {
      "midi": 64,
      "hit": false,
      "t": 42826.02699999994,
      "d": 681.1584666666604,
      "v": 100
    },
    {
      "midi": 67,
      "hit": false,
      "t": 43260.808999999936,
      "d": 304.34739999999147,
      "v": 100
    },
    {
      "midi": 55,
      "hit": false,
      "t": 43478.19999999993,
      "d": 14.49273333333258,
      "v": 100
    },
    {
      "midi": 52,
      "hit": false,
      "t": 43478.19999999993,
      "d": 644.9266333333289,
      "v": 100
    },
    {
      "midi": 59,
      "hit": false,
      "t": 43912.98199999992,
      "d": 210.14463333333697,
      "v": 100
    },
    {
      "midi": 59,
      "hit": false,
      "t": 44130.37299999993,
      "d": 210.14463333333697,
      "v": 100
    },
    {
      "midi": 52,
      "hit": false,
      "t": 44130.37299999993,
      "d": 1731.8816333333598,
      "v": 100
    },
    {
      "midi": 55,
      "hit": false,
      "t": 44130.37299999993,
      "d": 1731.8816333333598,
      "v": 100
    },
    {
      "midi": 60,
      "hit": false,
      "t": 44565.15499999993,
      "d": 427.53563333334023,
      "v": 100
    },
    {
      "midi": 64,
      "hit": false,
      "t": 44782.54599999994,
      "d": 427.53563333334023,
      "v": 100
    },
    {
      "midi": 67,
      "hit": false,
      "t": 44999.93699999994,
      "d": 427.53563333334023,
      "v": 100
    },
    {
      "midi": 50,
      "hit": false,
      "t": 45217.32799999994,
      "d": 1731.8816333333452,
      "v": 100
    },
    {
      "midi": 54,
      "hit": false,
      "t": 45217.32799999994,
      "d": 1731.8816333333452,
      "v": 100
    },
    {
      "midi": 57,
      "hit": false,
      "t": 45652.10999999995,
      "d": 427.53563333334023,
      "v": 100
    },
    {
      "midi": 60,
      "hit": false,
      "t": 46086.891999999956,
      "d": 427.53563333333295,
      "v": 100
    },
    {
      "midi": 62,
      "hit": false,
      "t": 46521.673999999955,
      "d": 427.53563333333295,
      "v": 100
    },
    {
      "midi": 62,
      "hit": false,
      "t": 46956.455999999955,
      "d": 862.3176333333322,
      "v": 100
    },
    {
      "midi": 67,
      "hit": false,
      "t": 46956.455999999955,
      "d": 862.3176333333322,
      "v": 100
    },
    {
      "midi": 69,
      "hit": false,
      "t": 46956.455999999955,
      "d": 862.3176333333322,
      "v": 100
    },
    {
      "midi": 62,
      "hit": false,
      "t": 47826.01999999995,
      "d": 862.3176333333322,
      "v": 100
    },
    {
      "midi": 66,
      "hit": false,
      "t": 47826.01999999995,
      "d": 862.3176333333322,
      "v": 100
    },
    {
      "midi": 69,
      "hit": false,
      "t": 47826.01999999995,
      "d": 862.3176333333322,
      "v": 100
    },
    {
      "midi": 55,
      "hit": false,
      "t": 48695.58399999995,
      "d": 1731.8816333333307,
      "v": 100
    },
    {
      "midi": 59,
      "hit": false,
      "t": 48695.58399999995,
      "d": 1731.8816333333307,
      "v": 100
    },
    {
      "midi": 62,
      "hit": false,
      "t": 49130.36599999995,
      "d": 427.53563333333295,
      "v": 100
    },
    {
      "midi": 67,
      "hit": false,
      "t": 49565.14799999995,
      "d": 427.53563333333295,
      "v": 100
    },
    {
      "midi": 71,
      "hit": false,
      "t": 49999.92999999995,
      "d": 427.53563333333295,
      "v": 100
    },
    {
      "midi": 74,
      "hit": false,
      "t": 50434.71199999995,
      "d": 862.3176333333322,
      "v": 100
    },
    {
      "midi": 54,
      "hit": false,
      "t": 50434.71199999995,
      "d": 1731.8816333333307,
      "v": 100
    },
    {
      "midi": 59,
      "hit": false,
      "t": 50434.71199999995,
      "d": 1731.8816333333307,
      "v": 100
    },
    {
      "midi": 71,
      "hit": false,
      "t": 50869.49399999995,
      "d": 862.3176333333322,
      "v": 100
    },
    {
      "midi": 67,
      "hit": false,
      "t": 51304.27599999995,
      "d": 862.3176333333322,
      "v": 100
    },
    {
      "midi": 52,
      "hit": false,
      "t": 52173.839999999946,
      "d": 1434.7805999999982,
      "v": 100
    },
    {
      "midi": 55,
      "hit": false,
      "t": 52173.839999999946,
      "d": 1673.910699999993,
      "v": 100
    },
    {
      "midi": 59,
      "hit": false,
      "t": 52173.839999999946,
      "d": 1695.649799999992,
      "v": 100
    },
    {
      "midi": 67,
      "hit": false,
      "t": 52608.621999999945,
      "d": 492.75293333332957,
      "v": 100
    },
    {
      "midi": 64,
      "hit": false,
      "t": 53043.403999999944,
      "d": 536.2311333333346,
      "v": 100
    },
    {
      "midi": 67,
      "hit": false,
      "t": 53478.18599999994,
      "d": 326.0864999999976,
      "v": 100
    },
    {
      "midi": 69,
      "hit": false,
      "t": 53912.967999999935,
      "d": 413.0429000000004,
      "v": 100
    },
    {
      "midi": 55,
      "hit": false,
      "t": 53912.967999999935,
      "d": 1333.331466666663,
      "v": 100
    },
    {
      "midi": 59,
      "hit": false,
      "t": 53912.967999999935,
      "d": 1347.8241999999955,
      "v": 100
    },
    {
      "midi": 50,
      "hit": false,
      "t": 53912.967999999935,
      "d": 1355.0705666666618,
      "v": 100
    },
    {
      "midi": 64,
      "hit": false,
      "t": 54347.749999999935,
      "d": 847.8248999999996,
      "v": 100
    },
    {
      "midi": 67,
      "hit": false,
      "t": 54782.531999999934,
      "d": 427.53563333333295,
      "v": 100
    },
    {
      "midi": 52,
      "hit": false,
      "t": 55652.09599999993,
      "d": 1710.1425333333318,
      "v": 100
    },
    {
      "midi": 48,
      "hit": false,
      "t": 55652.09599999993,
      "d": 1724.6352666666644,
      "v": 100
    },
    {
      "midi": 60,
      "hit": false,
      "t": 56521.65999999993,
      "d": 913.0421999999962,
      "v": 100
    },
    {
      "midi": 64,
      "hit": false,
      "t": 56739.050999999934,
      "d": 681.1584666666604,
      "v": 100
    },
    {
      "midi": 67,
      "hit": false,
      "t": 57173.83299999993,
      "d": 304.34739999999147,
      "v": 100
    },
    {
      "midi": 55,
      "hit": false,
      "t": 57391.22399999993,
      "d": 14.49273333333258,
      "v": 100
    },
    {
      "midi": 52,
      "hit": false,
      "t": 57391.22399999993,
      "d": 644.9266333333289,
      "v": 100
    },
    {
      "midi": 59,
      "hit": false,
      "t": 57826.00599999992,
      "d": 210.14463333333697,
      "v": 100
    },
    {
      "midi": 59,
      "hit": false,
      "t": 58043.396999999924,
      "d": 210.14463333333697,
      "v": 100
    },
    {
      "midi": 52,
      "hit": false,
      "t": 58043.396999999924,
      "d": 1731.8816333333598,
      "v": 100
    },
    {
      "midi": 55,
      "hit": false,
      "t": 58043.396999999924,
      "d": 1731.8816333333598,
      "v": 100
    },
    {
      "midi": 60,
      "hit": false,
      "t": 58478.17899999993,
      "d": 427.53563333334023,
      "v": 100
    },
    {
      "midi": 64,
      "hit": false,
      "t": 58695.569999999934,
      "d": 427.53563333334023,
      "v": 100
    },
    {
      "midi": 67,
      "hit": false,
      "t": 58912.96099999994,
      "d": 427.53563333334023,
      "v": 100
    },
    {
      "midi": 50,
      "hit": false,
      "t": 59130.35199999994,
      "d": 1731.8816333333452,
      "v": 100
    },
    {
      "midi": 54,
      "hit": false,
      "t": 59130.35199999994,
      "d": 1731.8816333333452,
      "v": 100
    },
    {
      "midi": 57,
      "hit": false,
      "t": 59565.13399999995,
      "d": 427.53563333334023,
      "v": 100
    },
    {
      "midi": 60,
      "hit": false,
      "t": 59999.915999999954,
      "d": 427.53563333333295,
      "v": 100
    },
    {
      "midi": 62,
      "hit": false,
      "t": 60434.69799999995,
      "d": 427.53563333333295,
      "v": 100
    },
    {
      "midi": 62,
      "hit": false,
      "t": 60869.47999999995,
      "d": 862.3176333333322,
      "v": 100
    },
    {
      "midi": 67,
      "hit": false,
      "t": 60869.47999999995,
      "d": 862.3176333333322,
      "v": 100
    },
    {
      "midi": 69,
      "hit": false,
      "t": 60869.47999999995,
      "d": 862.3176333333322,
      "v": 100
    },
    {
      "midi": 62,
      "hit": false,
      "t": 61739.04399999995,
      "d": 862.3176333333322,
      "v": 100
    },
    {
      "midi": 66,
      "hit": false,
      "t": 61739.04399999995,
      "d": 862.3176333333322,
      "v": 100
    },
    {
      "midi": 69,
      "hit": false,
      "t": 61739.04399999995,
      "d": 862.3176333333322,
      "v": 100
    },
    {
      "midi": 55,
      "hit": false,
      "t": 62608.60799999995,
      "d": 862.3176333333322,
      "v": 100
    },
    {
      "midi": 57,
      "hit": false,
      "t": 62608.60799999995,
      "d": 862.3176333333322,
      "v": 100
    },
    {
      "midi": 59,
      "hit": false,
      "t": 62608.60799999995,
      "d": 862.3176333333322,
      "v": 100
    },
    {
      "midi": 62,
      "hit": false,
      "t": 62608.60799999995,
      "d": 862.3176333333322,
      "v": 100
    },
    {
      "midi": 67,
      "hit": false,
      "t": 62608.60799999995,
      "d": 862.3176333333322,
      "v": 100
    },
    {
      "midi": 55,
      "hit": false,
      "t": 63478.17199999995,
      "d": 862.3176333333322,
      "v": 100
    },
    {
      "midi": 59,
      "hit": false,
      "t": 63478.17199999995,
      "d": 862.3176333333322,
      "v": 100
    },
    {
      "midi": 62,
      "hit": false,
      "t": 63478.17199999995,
      "d": 862.3176333333322,
      "v": 100
    },
    {
      "midi": 67,
      "hit": false,
      "t": 63478.17199999995,
      "d": 862.3176333333322,
      "v": 100
    },
    {
      "midi": 55,
      "hit": false,
      "t": 64347.735999999946,
      "d": 862.3176333333322,
      "v": 100
    },
    {
      "midi": 59,
      "hit": false,
      "t": 64347.735999999946,
      "d": 862.3176333333322,
      "v": 100
    },
    {
      "midi": 62,
      "hit": false,
      "t": 64347.735999999946,
      "d": 862.3176333333322,
      "v": 100
    },
    {
      "midi": 67,
      "hit": false,
      "t": 64347.735999999946,
      "d": 862.3176333333322,
      "v": 100
    },
    {
      "midi": 55,
      "hit": false,
      "t": 65217.299999999945,
      "d": 862.3176333333395,
      "v": 100
    },
    {
      "midi": 59,
      "hit": false,
      "t": 65217.299999999945,
      "d": 862.3176333333395,
      "v": 100
    },
    {
      "midi": 62,
      "hit": false,
      "t": 65217.299999999945,
      "d": 862.3176333333395,
      "v": 100
    },
    {
      "midi": 67,
      "hit": false,
      "t": 65217.299999999945,
      "d": 862.3176333333395,
      "v": 100
    },
    {
      "midi": 60,
      "hit": false,
      "t": 66086.86399999996,
      "d": 862.3176333333395,
      "v": 100
    },
    {
      "midi": 64,
      "hit": false,
      "t": 66086.86399999996,
      "d": 862.3176333333395,
      "v": 100
    },
    {
      "midi": 67,
      "hit": false,
      "t": 66086.86399999996,
      "d": 862.3176333333395,
      "v": 100
    },
    {
      "midi": 60,
      "hit": false,
      "t": 66956.42799999997,
      "d": 862.3176333333395,
      "v": 100
    },
    {
      "midi": 64,
      "hit": false,
      "t": 66956.42799999997,
      "d": 862.3176333333395,
      "v": 100
    },
    {
      "midi": 67,
      "hit": false,
      "t": 66956.42799999997,
      "d": 862.3176333333395,
      "v": 100
    },
    {
      "midi": 59,
      "hit": false,
      "t": 67825.99199999998,
      "d": 862.3176333333395,
      "v": 100
    },
    {
      "midi": 64,
      "hit": false,
      "t": 67825.99199999998,
      "d": 862.3176333333395,
      "v": 100
    },
    {
      "midi": 67,
      "hit": false,
      "t": 67825.99199999998,
      "d": 862.3176333333395,
      "v": 100
    },
    {
      "midi": 59,
      "hit": false,
      "t": 68695.556,
      "d": 862.3176333333395,
      "v": 100
    },
    {
      "midi": 64,
      "hit": false,
      "t": 68695.556,
      "d": 862.3176333333395,
      "v": 100
    },
    {
      "midi": 67,
      "hit": false,
      "t": 68695.556,
      "d": 862.3176333333395,
      "v": 100
    },
    {
      "midi": 59,
      "hit": false,
      "t": 69565.12000000001,
      "d": 862.3176333333395,
      "v": 100
    },
    {
      "midi": 64,
      "hit": false,
      "t": 69565.12000000001,
      "d": 862.3176333333395,
      "v": 100
    },
    {
      "midi": 67,
      "hit": false,
      "t": 69565.12000000001,
      "d": 862.3176333333395,
      "v": 100
    },
    {
      "midi": 59,
      "hit": false,
      "t": 70434.68400000002,
      "d": 862.3176333333395,
      "v": 100
    },
    {
      "midi": 64,
      "hit": false,
      "t": 70434.68400000002,
      "d": 862.3176333333395,
      "v": 100
    },
    {
      "midi": 67,
      "hit": false,
      "t": 70434.68400000002,
      "d": 862.3176333333395,
      "v": 100
    },
    {
      "midi": 59,
      "hit": false,
      "t": 71304.24800000004,
      "d": 862.3176333333395,
      "v": 100
    },
    {
      "midi": 62,
      "hit": false,
      "t": 71304.24800000004,
      "d": 862.3176333333395,
      "v": 100
    },
    {
      "midi": 67,
      "hit": false,
      "t": 71304.24800000004,
      "d": 862.3176333333395,
      "v": 100
    },
    {
      "midi": 59,
      "hit": false,
      "t": 72173.81200000005,
      "d": 862.3176333333395,
      "v": 100
    },
    {
      "midi": 62,
      "hit": false,
      "t": 72173.81200000005,
      "d": 862.3176333333395,
      "v": 100
    },
    {
      "midi": 67,
      "hit": false,
      "t": 72173.81200000005,
      "d": 862.3176333333395,
      "v": 100
    },
    {
      "midi": 60,
      "hit": false,
      "t": 73043.37600000006,
      "d": 862.3176333333395,
      "v": 100
    },
    {
      "midi": 64,
      "hit": false,
      "t": 73043.37600000006,
      "d": 862.3176333333395,
      "v": 100
    },
    {
      "midi": 67,
      "hit": false,
      "t": 73043.37600000006,
      "d": 862.3176333333395,
      "v": 100
    },
    {
      "midi": 60,
      "hit": false,
      "t": 73912.94000000008,
      "d": 862.3176333333395,
      "v": 100
    },
    {
      "midi": 64,
      "hit": false,
      "t": 73912.94000000008,
      "d": 862.3176333333395,
      "v": 100
    },
    {
      "midi": 67,
      "hit": false,
      "t": 73912.94000000008,
      "d": 862.3176333333395,
      "v": 100
    },
    {
      "midi": 59,
      "hit": false,
      "t": 74782.50400000009,
      "d": 862.3176333333395,
      "v": 100
    },
    {
      "midi": 64,
      "hit": false,
      "t": 74782.50400000009,
      "d": 862.3176333333395,
      "v": 100
    },
    {
      "midi": 67,
      "hit": false,
      "t": 74782.50400000009,
      "d": 862.3176333333395,
      "v": 100
    },
    {
      "midi": 59,
      "hit": false,
      "t": 75652.0680000001,
      "d": 862.3176333333395,
      "v": 100
    },
    {
      "midi": 64,
      "hit": false,
      "t": 75652.0680000001,
      "d": 862.3176333333395,
      "v": 100
    },
    {
      "midi": 67,
      "hit": false,
      "t": 75652.0680000001,
      "d": 862.3176333333395,
      "v": 100
    },
    {
      "midi": 59,
      "hit": false,
      "t": 76521.63200000011,
      "d": 862.3176333333395,
      "v": 100
    },
    {
      "midi": 64,
      "hit": false,
      "t": 76521.63200000011,
      "d": 862.3176333333395,
      "v": 100
    },
    {
      "midi": 67,
      "hit": false,
      "t": 76521.63200000011,
      "d": 862.3176333333395,
      "v": 100
    },
    {
      "midi": 59,
      "hit": false,
      "t": 77391.19600000013,
      "d": 862.3176333333395,
      "v": 100
    },
    {
      "midi": 64,
      "hit": false,
      "t": 77391.19600000013,
      "d": 862.3176333333395,
      "v": 100
    },
    {
      "midi": 67,
      "hit": false,
      "t": 77391.19600000013,
      "d": 862.3176333333395,
      "v": 100
    },
    {
      "midi": 59,
      "hit": false,
      "t": 78260.76000000014,
      "d": 862.3176333333395,
      "v": 100
    },
    {
      "midi": 62,
      "hit": false,
      "t": 78260.76000000014,
      "d": 862.3176333333395,
      "v": 100
    },
    {
      "midi": 67,
      "hit": false,
      "t": 78260.76000000014,
      "d": 862.3176333333395,
      "v": 100
    },
    {
      "midi": 59,
      "hit": false,
      "t": 79130.32400000015,
      "d": 862.3176333333395,
      "v": 100
    },
    {
      "midi": 62,
      "hit": false,
      "t": 79130.32400000015,
      "d": 862.3176333333395,
      "v": 100
    },
    {
      "midi": 67,
      "hit": false,
      "t": 79130.32400000015,
      "d": 862.3176333333395,
      "v": 100
    },
    {
      "midi": 60,
      "hit": false,
      "t": 79999.88800000017,
      "d": 862.3176333333395,
      "v": 100
    },
    {
      "midi": 64,
      "hit": false,
      "t": 79999.88800000017,
      "d": 862.3176333333395,
      "v": 100
    },
    {
      "midi": 67,
      "hit": false,
      "t": 79999.88800000017,
      "d": 862.3176333333395,
      "v": 100
    },
    {
      "midi": 60,
      "hit": false,
      "t": 80869.45200000018,
      "d": 862.3176333333395,
      "v": 100
    },
    {
      "midi": 64,
      "hit": false,
      "t": 80869.45200000018,
      "d": 862.3176333333395,
      "v": 100
    },
    {
      "midi": 67,
      "hit": false,
      "t": 80869.45200000018,
      "d": 862.3176333333395,
      "v": 100
    },
    {
      "midi": 62,
      "hit": false,
      "t": 81739.01600000019,
      "d": 862.3176333333395,
      "v": 100
    },
    {
      "midi": 66,
      "hit": false,
      "t": 81739.01600000019,
      "d": 862.3176333333395,
      "v": 100
    },
    {
      "midi": 69,
      "hit": false,
      "t": 81739.01600000019,
      "d": 862.3176333333395,
      "v": 100
    },
    {
      "midi": 62,
      "hit": false,
      "t": 82608.5800000002,
      "d": 862.3176333333395,
      "v": 100
    },
    {
      "midi": 67,
      "hit": false,
      "t": 82608.5800000002,
      "d": 862.3176333333395,
      "v": 100
    },
    {
      "midi": 69,
      "hit": false,
      "t": 82608.5800000002,
      "d": 862.3176333333395,
      "v": 100
    },
    {
      "midi": 62,
      "hit": false,
      "t": 83478.14400000022,
      "d": 862.3176333333395,
      "v": 100
    },
    {
      "midi": 66,
      "hit": false,
      "t": 83478.14400000022,
      "d": 862.3176333333395,
      "v": 100
    },
    {
      "midi": 69,
      "hit": false,
      "t": 83478.14400000022,
      "d": 862.3176333333395,
      "v": 100
    },
    {
      "midi": 62,
      "hit": false,
      "t": 84347.70800000023,
      "d": 862.3176333333395,
      "v": 100
    },
    {
      "midi": 66,
      "hit": false,
      "t": 84347.70800000023,
      "d": 862.3176333333395,
      "v": 100
    },
    {
      "midi": 69,
      "hit": false,
      "t": 84347.70800000023,
      "d": 862.3176333333395,
      "v": 100
    },
    {
      "midi": 62,
      "hit": false,
      "t": 85217.27200000024,
      "d": 1731.881633333338,
      "v": 100
    },
    {
      "midi": 66,
      "hit": false,
      "t": 85217.27200000024,
      "d": 1731.881633333338,
      "v": 100
    },
    {
      "midi": 69,
      "hit": false,
      "t": 85217.27200000024,
      "d": 1731.881633333338,
      "v": 100
    },
    {
      "midi": 62,
      "hit": false,
      "t": 86956.40000000026,
      "d": 862.3176333333395,
      "v": 100
    },
    {
      "midi": 67,
      "hit": false,
      "t": 86956.40000000026,
      "d": 862.3176333333395,
      "v": 100
    },
    {
      "midi": 71,
      "hit": false,
      "t": 86956.40000000026,
      "d": 862.3176333333395,
      "v": 100
    },
    {
      "midi": 62,
      "hit": false,
      "t": 87825.96400000027,
      "d": 862.3176333333395,
      "v": 100
    },
    {
      "midi": 67,
      "hit": false,
      "t": 87825.96400000027,
      "d": 862.3176333333395,
      "v": 100
    },
    {
      "midi": 71,
      "hit": false,
      "t": 87825.96400000027,
      "d": 862.3176333333395,
      "v": 100
    },
    {
      "midi": 62,
      "hit": false,
      "t": 88695.52800000028,
      "d": 862.3176333333395,
      "v": 100
    },
    {
      "midi": 67,
      "hit": false,
      "t": 88695.52800000028,
      "d": 862.3176333333395,
      "v": 100
    },
    {
      "midi": 71,
      "hit": false,
      "t": 88695.52800000028,
      "d": 862.3176333333395,
      "v": 100
    },
    {
      "midi": 62,
      "hit": false,
      "t": 89565.0920000003,
      "d": 862.3176333333395,
      "v": 100
    },
    {
      "midi": 66,
      "hit": false,
      "t": 89565.0920000003,
      "d": 862.3176333333395,
      "v": 100
    },
    {
      "midi": 67,
      "hit": false,
      "t": 89565.0920000003,
      "d": 862.3176333333395,
      "v": 100
    },
    {
      "midi": 71,
      "hit": false,
      "t": 89565.0920000003,
      "d": 862.3176333333395,
      "v": 100
    },
    {
      "midi": 64,
      "hit": false,
      "t": 90434.65600000031,
      "d": 862.3176333333395,
      "v": 100
    },
    {
      "midi": 67,
      "hit": false,
      "t": 90434.65600000031,
      "d": 862.3176333333395,
      "v": 100
    },
    {
      "midi": 71,
      "hit": false,
      "t": 90434.65600000031,
      "d": 862.3176333333395,
      "v": 100
    },
    {
      "midi": 64,
      "hit": false,
      "t": 91304.22000000032,
      "d": 862.3176333333395,
      "v": 100
    },
    {
      "midi": 67,
      "hit": false,
      "t": 91304.22000000032,
      "d": 862.3176333333395,
      "v": 100
    },
    {
      "midi": 71,
      "hit": false,
      "t": 91304.22000000032,
      "d": 862.3176333333395,
      "v": 100
    },
    {
      "midi": 62,
      "hit": false,
      "t": 92173.78400000033,
      "d": 862.3176333333395,
      "v": 100
    },
    {
      "midi": 67,
      "hit": false,
      "t": 92173.78400000033,
      "d": 862.3176333333395,
      "v": 100
    },
    {
      "midi": 71,
      "hit": false,
      "t": 92173.78400000033,
      "d": 862.3176333333395,
      "v": 100
    },
    {
      "midi": 62,
      "hit": false,
      "t": 93043.34800000035,
      "d": 862.3176333333395,
      "v": 100
    },
    {
      "midi": 67,
      "hit": false,
      "t": 93043.34800000035,
      "d": 862.3176333333395,
      "v": 100
    },
    {
      "midi": 71,
      "hit": false,
      "t": 93043.34800000035,
      "d": 862.3176333333395,
      "v": 100
    },
    {
      "midi": 60,
      "hit": false,
      "t": 93912.91200000036,
      "d": 862.3176333333395,
      "v": 100
    },
    {
      "midi": 64,
      "hit": false,
      "t": 93912.91200000036,
      "d": 862.3176333333395,
      "v": 100
    },
    {
      "midi": 67,
      "hit": false,
      "t": 93912.91200000036,
      "d": 862.3176333333395,
      "v": 100
    },
    {
      "midi": 60,
      "hit": false,
      "t": 94782.47600000037,
      "d": 862.3176333333395,
      "v": 100
    },
    {
      "midi": 64,
      "hit": false,
      "t": 94782.47600000037,
      "d": 862.3176333333395,
      "v": 100
    },
    {
      "midi": 67,
      "hit": false,
      "t": 94782.47600000037,
      "d": 862.3176333333395,
      "v": 100
    },
    {
      "midi": 59,
      "hit": false,
      "t": 95652.04000000039,
      "d": 862.3176333333395,
      "v": 100
    },
    {
      "midi": 64,
      "hit": false,
      "t": 95652.04000000039,
      "d": 862.3176333333395,
      "v": 100
    },
    {
      "midi": 67,
      "hit": false,
      "t": 95652.04000000039,
      "d": 862.3176333333395,
      "v": 100
    },
    {
      "midi": 59,
      "hit": false,
      "t": 96521.6040000004,
      "d": 862.3176333333395,
      "v": 100
    },
    {
      "midi": 64,
      "hit": false,
      "t": 96521.6040000004,
      "d": 862.3176333333395,
      "v": 100
    },
    {
      "midi": 67,
      "hit": false,
      "t": 96521.6040000004,
      "d": 862.3176333333395,
      "v": 100
    },
    {
      "midi": 62,
      "hit": false,
      "t": 97391.16800000041,
      "d": 862.3176333333395,
      "v": 100
    },
    {
      "midi": 67,
      "hit": false,
      "t": 97391.16800000041,
      "d": 862.3176333333395,
      "v": 100
    },
    {
      "midi": 69,
      "hit": false,
      "t": 97391.16800000041,
      "d": 862.3176333333395,
      "v": 100
    },
    {
      "midi": 71,
      "hit": false,
      "t": 97391.16800000041,
      "d": 862.3176333333395,
      "v": 100
    },
    {
      "midi": 62,
      "hit": false,
      "t": 98260.73200000043,
      "d": 862.3176333333395,
      "v": 100
    },
    {
      "midi": 67,
      "hit": false,
      "t": 98260.73200000043,
      "d": 862.3176333333395,
      "v": 100
    },
    {
      "midi": 69,
      "hit": false,
      "t": 98260.73200000043,
      "d": 862.3176333333395,
      "v": 100
    },
    {
      "midi": 62,
      "hit": false,
      "t": 99130.29600000044,
      "d": 862.3176333333395,
      "v": 100
    },
    {
      "midi": 66,
      "hit": false,
      "t": 99130.29600000044,
      "d": 862.3176333333395,
      "v": 100
    },
    {
      "midi": 69,
      "hit": false,
      "t": 99130.29600000044,
      "d": 862.3176333333395,
      "v": 100
    },
    {
      "midi": 62,
      "hit": false,
      "t": 99999.86000000045,
      "d": 862.3176333333395,
      "v": 100
    },
    {
      "midi": 66,
      "hit": false,
      "t": 99999.86000000045,
      "d": 862.3176333333395,
      "v": 100
    },
    {
      "midi": 69,
      "hit": false,
      "t": 99999.86000000045,
      "d": 862.3176333333395,
      "v": 100
    },
    {
      "midi": 62,
      "hit": false,
      "t": 100869.42400000046,
      "d": 862.3176333333395,
      "v": 100
    },
    {
      "midi": 67,
      "hit": false,
      "t": 100869.42400000046,
      "d": 862.3176333333395,
      "v": 100
    },
    {
      "midi": 71,
      "hit": false,
      "t": 100869.42400000046,
      "d": 862.3176333333395,
      "v": 100
    },
    {
      "midi": 62,
      "hit": false,
      "t": 101738.98800000048,
      "d": 862.3176333333395,
      "v": 100
    },
    {
      "midi": 67,
      "hit": false,
      "t": 101738.98800000048,
      "d": 862.3176333333395,
      "v": 100
    },
    {
      "midi": 71,
      "hit": false,
      "t": 101738.98800000048,
      "d": 862.3176333333395,
      "v": 100
    },
    {
      "midi": 62,
      "hit": false,
      "t": 102608.55200000049,
      "d": 862.3176333333395,
      "v": 100
    },
    {
      "midi": 66,
      "hit": false,
      "t": 102608.55200000049,
      "d": 862.3176333333395,
      "v": 100
    },
    {
      "midi": 70,
      "hit": false,
      "t": 102608.55200000049,
      "d": 862.3176333333395,
      "v": 100
    },
    {
      "midi": 71,
      "hit": false,
      "t": 102608.55200000049,
      "d": 862.3176333333395,
      "v": 100
    },
    {
      "midi": 62,
      "hit": false,
      "t": 103478.1160000005,
      "d": 862.3176333333395,
      "v": 100
    },
    {
      "midi": 66,
      "hit": false,
      "t": 103478.1160000005,
      "d": 862.3176333333395,
      "v": 100
    },
    {
      "midi": 71,
      "hit": false,
      "t": 103478.1160000005,
      "d": 862.3176333333395,
      "v": 100
    },
    {
      "midi": 64,
      "hit": false,
      "t": 104347.68000000052,
      "d": 862.3176333333395,
      "v": 100
    },
    {
      "midi": 67,
      "hit": false,
      "t": 104347.68000000052,
      "d": 862.3176333333395,
      "v": 100
    },
    {
      "midi": 71,
      "hit": false,
      "t": 104347.68000000052,
      "d": 862.3176333333395,
      "v": 100
    },
    {
      "midi": 64,
      "hit": false,
      "t": 105217.24400000053,
      "d": 862.3176333333395,
      "v": 100
    },
    {
      "midi": 67,
      "hit": false,
      "t": 105217.24400000053,
      "d": 862.3176333333395,
      "v": 100
    },
    {
      "midi": 71,
      "hit": false,
      "t": 105217.24400000053,
      "d": 862.3176333333395,
      "v": 100
    },
    {
      "midi": 62,
      "hit": false,
      "t": 106086.80800000054,
      "d": 862.3176333333395,
      "v": 100
    },
    {
      "midi": 67,
      "hit": false,
      "t": 106086.80800000054,
      "d": 862.3176333333395,
      "v": 100
    },
    {
      "midi": 71,
      "hit": false,
      "t": 106086.80800000054,
      "d": 862.3176333333395,
      "v": 100
    },
    {
      "midi": 62,
      "hit": false,
      "t": 106956.37200000056,
      "d": 862.3176333333395,
      "v": 100
    },
    {
      "midi": 67,
      "hit": false,
      "t": 106956.37200000056,
      "d": 862.3176333333395,
      "v": 100
    },
    {
      "midi": 71,
      "hit": false,
      "t": 106956.37200000056,
      "d": 862.3176333333395,
      "v": 100
    },
    {
      "midi": 60,
      "hit": false,
      "t": 107825.93600000057,
      "d": 862.3176333333395,
      "v": 100
    },
    {
      "midi": 64,
      "hit": false,
      "t": 107825.93600000057,
      "d": 862.3176333333395,
      "v": 100
    },
    {
      "midi": 67,
      "hit": false,
      "t": 107825.93600000057,
      "d": 862.3176333333395,
      "v": 100
    },
    {
      "midi": 60,
      "hit": false,
      "t": 108695.50000000058,
      "d": 862.3176333333395,
      "v": 100
    },
    {
      "midi": 64,
      "hit": false,
      "t": 108695.50000000058,
      "d": 862.3176333333395,
      "v": 100
    },
    {
      "midi": 67,
      "hit": false,
      "t": 108695.50000000058,
      "d": 862.3176333333395,
      "v": 100
    },
    {
      "midi": 62,
      "hit": false,
      "t": 109565.0640000006,
      "d": 862.3176333333395,
      "v": 100
    },
    {
      "midi": 66,
      "hit": false,
      "t": 109565.0640000006,
      "d": 862.3176333333395,
      "v": 100
    },
    {
      "midi": 69,
      "hit": false,
      "t": 109565.0640000006,
      "d": 862.3176333333395,
      "v": 100
    },
    {
      "midi": 62,
      "hit": false,
      "t": 110434.62800000061,
      "d": 862.3176333333395,
      "v": 100
    },
    {
      "midi": 66,
      "hit": false,
      "t": 110434.62800000061,
      "d": 862.3176333333395,
      "v": 100
    },
    {
      "midi": 69,
      "hit": false,
      "t": 110434.62800000061,
      "d": 862.3176333333395,
      "v": 100
    },
    {
      "midi": 62,
      "hit": false,
      "t": 111304.19200000062,
      "d": 862.3176333333395,
      "v": 100
    },
    {
      "midi": 67,
      "hit": false,
      "t": 111304.19200000062,
      "d": 862.3176333333395,
      "v": 100
    },
    {
      "midi": 71,
      "hit": false,
      "t": 111304.19200000062,
      "d": 862.3176333333395,
      "v": 100
    },
    {
      "midi": 62,
      "hit": false,
      "t": 112173.75600000063,
      "d": 862.3176333333395,
      "v": 100
    },
    {
      "midi": 67,
      "hit": false,
      "t": 112173.75600000063,
      "d": 862.3176333333395,
      "v": 100
    },
    {
      "midi": 71,
      "hit": false,
      "t": 112173.75600000063,
      "d": 862.3176333333395,
      "v": 100
    },
    {
      "midi": 62,
      "hit": false,
      "t": 113043.32000000065,
      "d": 862.3176333333395,
      "v": 100
    },
    {
      "midi": 67,
      "hit": false,
      "t": 113043.32000000065,
      "d": 862.3176333333395,
      "v": 100
    },
    {
      "midi": 71,
      "hit": false,
      "t": 113043.32000000065,
      "d": 862.3176333333395,
      "v": 100
    },
    {
      "midi": 67,
      "hit": false,
      "t": 113912.88400000066,
      "d": 862.3176333333395,
      "v": 100
    },
    {
      "midi": 62,
      "hit": false,
      "t": 114130.27500000066,
      "d": 644.9266333333362,
      "v": 100
    },
    {
      "midi": 71,
      "hit": false,
      "t": 114130.27500000066,
      "d": 644.9266333333362,
      "v": 100
    },
    {
      "midi": 62,
      "hit": false,
      "t": 114782.44800000067,
      "d": 210.1446333333297,
      "v": 100
    },
    {
      "midi": 66,
      "hit": false,
      "t": 114782.44800000067,
      "d": 210.1446333333297,
      "v": 100
    },
    {
      "midi": 59,
      "hit": false,
      "t": 114782.44800000067,
      "d": 862.3176333333249,
      "v": 100
    },
    {
      "midi": 59,
      "hit": false,
      "t": 115652.01200000067,
      "d": 862.3176333333395,
      "v": 100
    },
    {
      "midi": 62,
      "hit": false,
      "t": 115652.01200000067,
      "d": 862.3176333333395,
      "v": 100
    },
    {
      "midi": 66,
      "hit": false,
      "t": 115652.01200000067,
      "d": 862.3176333333395,
      "v": 100
    },
    {
      "midi": 59,
      "hit": false,
      "t": 116521.57600000068,
      "d": 862.3176333333395,
      "v": 100
    },
    {
      "midi": 62,
      "hit": false,
      "t": 116521.57600000068,
      "d": 862.3176333333395,
      "v": 100
    },
    {
      "midi": 66,
      "hit": false,
      "t": 116521.57600000068,
      "d": 862.3176333333395,
      "v": 100
    },
    {
      "midi": 59,
      "hit": false,
      "t": 117391.1400000007,
      "d": 862.3176333333395,
      "v": 100
    },
    {
      "midi": 62,
      "hit": false,
      "t": 117391.1400000007,
      "d": 862.3176333333395,
      "v": 100
    },
    {
      "midi": 66,
      "hit": false,
      "t": 117391.1400000007,
      "d": 862.3176333333395,
      "v": 100
    },
    {
      "midi": 60,
      "hit": false,
      "t": 118260.70400000071,
      "d": 862.3176333333395,
      "v": 100
    },
    {
      "midi": 64,
      "hit": false,
      "t": 118260.70400000071,
      "d": 862.3176333333395,
      "v": 100
    },
    {
      "midi": 67,
      "hit": false,
      "t": 118260.70400000071,
      "d": 862.3176333333395,
      "v": 100
    },
    {
      "midi": 60,
      "hit": false,
      "t": 119130.26800000072,
      "d": 862.3176333333395,
      "v": 100
    },
    {
      "midi": 64,
      "hit": false,
      "t": 119130.26800000072,
      "d": 862.3176333333395,
      "v": 100
    },
    {
      "midi": 67,
      "hit": false,
      "t": 119130.26800000072,
      "d": 862.3176333333395,
      "v": 100
    },
    {
      "midi": 60,
      "hit": false,
      "t": 119999.83200000074,
      "d": 862.3176333333395,
      "v": 100
    },
    {
      "midi": 64,
      "hit": false,
      "t": 119999.83200000074,
      "d": 862.3176333333395,
      "v": 100
    },
    {
      "midi": 67,
      "hit": false,
      "t": 119999.83200000074,
      "d": 862.3176333333395,
      "v": 100
    },
    {
      "midi": 60,
      "hit": false,
      "t": 120869.39600000075,
      "d": 862.3176333333395,
      "v": 100
    },
    {
      "midi": 64,
      "hit": false,
      "t": 120869.39600000075,
      "d": 862.3176333333395,
      "v": 100
    },
    {
      "midi": 67,
      "hit": false,
      "t": 120869.39600000075,
      "d": 862.3176333333395,
      "v": 100
    },
    {
      "midi": 59,
      "hit": false,
      "t": 121738.96000000076,
      "d": 862.3176333333395,
      "v": 100
    },
    {
      "midi": 64,
      "hit": false,
      "t": 121738.96000000076,
      "d": 862.3176333333395,
      "v": 100
    },
    {
      "midi": 67,
      "hit": false,
      "t": 121738.96000000076,
      "d": 862.3176333333395,
      "v": 100
    },
    {
      "midi": 59,
      "hit": false,
      "t": 122608.52400000078,
      "d": 862.3176333333395,
      "v": 100
    },
    {
      "midi": 64,
      "hit": false,
      "t": 122608.52400000078,
      "d": 862.3176333333395,
      "v": 100
    },
    {
      "midi": 67,
      "hit": false,
      "t": 122608.52400000078,
      "d": 862.3176333333395,
      "v": 100
    },
    {
      "midi": 59,
      "hit": false,
      "t": 123478.08800000079,
      "d": 862.3176333333395,
      "v": 100
    },
    {
      "midi": 64,
      "hit": false,
      "t": 123478.08800000079,
      "d": 862.3176333333395,
      "v": 100
    },
    {
      "midi": 67,
      "hit": false,
      "t": 123478.08800000079,
      "d": 862.3176333333395,
      "v": 100
    },
    {
      "midi": 59,
      "hit": false,
      "t": 124347.6520000008,
      "d": 862.3176333333395,
      "v": 100
    },
    {
      "midi": 64,
      "hit": false,
      "t": 124347.6520000008,
      "d": 862.3176333333395,
      "v": 100
    },
    {
      "midi": 67,
      "hit": false,
      "t": 124347.6520000008,
      "d": 862.3176333333395,
      "v": 100
    },
    {
      "midi": 60,
      "hit": false,
      "t": 125217.21600000082,
      "d": 862.3176333333395,
      "v": 100
    },
    {
      "midi": 65,
      "hit": false,
      "t": 125217.21600000082,
      "d": 862.3176333333395,
      "v": 100
    },
    {
      "midi": 69,
      "hit": false,
      "t": 125217.21600000082,
      "d": 862.3176333333395,
      "v": 100
    },
    {
      "midi": 60,
      "hit": false,
      "t": 126086.78000000083,
      "d": 862.3176333333395,
      "v": 100
    },
    {
      "midi": 65,
      "hit": false,
      "t": 126086.78000000083,
      "d": 862.3176333333395,
      "v": 100
    },
    {
      "midi": 69,
      "hit": false,
      "t": 126086.78000000083,
      "d": 862.3176333333395,
      "v": 100
    },
    {
      "midi": 60,
      "hit": false,
      "t": 126956.34400000084,
      "d": 862.3176333333395,
      "v": 100
    },
    {
      "midi": 65,
      "hit": false,
      "t": 126956.34400000084,
      "d": 862.3176333333395,
      "v": 100
    },
    {
      "midi": 69,
      "hit": false,
      "t": 126956.34400000084,
      "d": 862.3176333333395,
      "v": 100
    },
    {
      "midi": 60,
      "hit": false,
      "t": 127825.90800000085,
      "d": 862.3176333333395,
      "v": 100
    },
    {
      "midi": 65,
      "hit": false,
      "t": 127825.90800000085,
      "d": 862.3176333333395,
      "v": 100
    },
    {
      "midi": 69,
      "hit": false,
      "t": 127825.90800000085,
      "d": 862.3176333333395,
      "v": 100
    },
    {
      "midi": 61,
      "hit": false,
      "t": 128695.47200000087,
      "d": 862.3176333333395,
      "v": 100
    },
    {
      "midi": 64,
      "hit": false,
      "t": 128695.47200000087,
      "d": 862.3176333333395,
      "v": 100
    },
    {
      "midi": 69,
      "hit": false,
      "t": 128695.47200000087,
      "d": 862.3176333333395,
      "v": 100
    },
    {
      "midi": 61,
      "hit": false,
      "t": 129565.03600000088,
      "d": 862.3176333333395,
      "v": 100
    },
    {
      "midi": 64,
      "hit": false,
      "t": 129565.03600000088,
      "d": 862.3176333333395,
      "v": 100
    },
    {
      "midi": 69,
      "hit": false,
      "t": 129565.03600000088,
      "d": 862.3176333333395,
      "v": 100
    },
    {
      "midi": 61,
      "hit": false,
      "t": 130434.6000000009,
      "d": 862.3176333333395,
      "v": 100
    },
    {
      "midi": 64,
      "hit": false,
      "t": 130434.6000000009,
      "d": 862.3176333333395,
      "v": 100
    },
    {
      "midi": 69,
      "hit": false,
      "t": 130434.6000000009,
      "d": 862.3176333333395,
      "v": 100
    },
    {
      "midi": 61,
      "hit": false,
      "t": 131304.1640000009,
      "d": 862.3176333333249,
      "v": 100
    },
    {
      "midi": 64,
      "hit": false,
      "t": 131304.1640000009,
      "d": 862.3176333333249,
      "v": 100
    },
    {
      "midi": 69,
      "hit": false,
      "t": 131304.1640000009,
      "d": 862.3176333333249,
      "v": 100
    },
    {
      "midi": 66,
      "hit": false,
      "t": 132173.72800000088,
      "d": 862.3176333333249,
      "v": 100
    },
    {
      "midi": 62,
      "hit": false,
      "t": 132173.72800000088,
      "d": 1731.8816333333089,
      "v": 100
    },
    {
      "midi": 69,
      "hit": false,
      "t": 132173.72800000088,
      "d": 1731.8816333333089,
      "v": 100
    },
    {
      "midi": 66,
      "hit": false,
      "t": 133043.29200000086,
      "d": 862.3176333333249,
      "v": 100
    },
    {
      "midi": 61,
      "hit": false,
      "t": 133912.85600000084,
      "d": 862.3176333333249,
      "v": 100
    },
    {
      "midi": 64,
      "hit": false,
      "t": 133912.85600000084,
      "d": 862.3176333333249,
      "v": 100
    },
    {
      "midi": 69,
      "hit": false,
      "t": 133912.85600000084,
      "d": 862.3176333333249,
      "v": 100
    },
    {
      "midi": 59,
      "hit": false,
      "t": 134782.42000000083,
      "d": 862.3176333333249,
      "v": 100
    },
    {
      "midi": 62,
      "hit": false,
      "t": 134782.42000000083,
      "d": 862.3176333333249,
      "v": 100
    },
    {
      "midi": 66,
      "hit": false,
      "t": 134782.42000000083,
      "d": 862.3176333333249,
      "v": 100
    },
    {
      "midi": 64,
      "hit": false,
      "t": 135651.9840000008,
      "d": 1731.881633333338,
      "v": 100
    },
    {
      "midi": 68,
      "hit": false,
      "t": 135651.9840000008,
      "d": 1731.881633333338,
      "v": 100
    },
    {
      "midi": 71,
      "hit": false,
      "t": 135651.9840000008,
      "d": 1731.881633333338,
      "v": 100
    },
    {
      "midi": 62,
      "hit": false,
      "t": 137391.1120000008,
      "d": 1731.881633333338,
      "v": 100
    },
    {
      "midi": 68,
      "hit": false,
      "t": 137391.1120000008,
      "d": 1731.881633333338,
      "v": 100
    },
    {
      "midi": 71,
      "hit": false,
      "t": 137391.1120000008,
      "d": 1731.881633333338,
      "v": 100
    },
    {
      "midi": 61,
      "hit": false,
      "t": 139130.2400000008,
      "d": 862.3176333333249,
      "v": 100
    },
    {
      "midi": 64,
      "hit": false,
      "t": 139130.2400000008,
      "d": 862.3176333333249,
      "v": 100
    },
    {
      "midi": 69,
      "hit": false,
      "t": 139130.2400000008,
      "d": 862.3176333333249,
      "v": 100
    },
    {
      "midi": 61,
      "hit": false,
      "t": 139999.8040000008,
      "d": 862.3176333333249,
      "v": 100
    },
    {
      "midi": 64,
      "hit": false,
      "t": 139999.8040000008,
      "d": 862.3176333333249,
      "v": 100
    },
    {
      "midi": 69,
      "hit": false,
      "t": 139999.8040000008,
      "d": 862.3176333333249,
      "v": 100
    },
    {
      "midi": 61,
      "hit": false,
      "t": 140869.36800000077,
      "d": 862.3176333333249,
      "v": 100
    },
    {
      "midi": 64,
      "hit": false,
      "t": 140869.36800000077,
      "d": 862.3176333333249,
      "v": 100
    },
    {
      "midi": 68,
      "hit": false,
      "t": 140869.36800000077,
      "d": 862.3176333333249,
      "v": 100
    },
    {
      "midi": 61,
      "hit": false,
      "t": 141738.93200000076,
      "d": 862.3176333333249,
      "v": 100
    },
    {
      "midi": 64,
      "hit": false,
      "t": 141738.93200000076,
      "d": 862.3176333333249,
      "v": 100
    },
    {
      "midi": 68,
      "hit": false,
      "t": 141738.93200000076,
      "d": 862.3176333333249,
      "v": 100
    },
    {
      "midi": 61,
      "hit": false,
      "t": 142608.49600000074,
      "d": 862.3176333333249,
      "v": 100
    },
    {
      "midi": 66,
      "hit": false,
      "t": 142608.49600000074,
      "d": 862.3176333333249,
      "v": 100
    },
    {
      "midi": 69,
      "hit": false,
      "t": 142608.49600000074,
      "d": 862.3176333333249,
      "v": 100
    },
    {
      "midi": 61,
      "hit": false,
      "t": 143478.06000000073,
      "d": 862.3176333333249,
      "v": 100
    },
    {
      "midi": 66,
      "hit": false,
      "t": 143478.06000000073,
      "d": 862.3176333333249,
      "v": 100
    },
    {
      "midi": 69,
      "hit": false,
      "t": 143478.06000000073,
      "d": 862.3176333333249,
      "v": 100
    },
    {
      "midi": 61,
      "hit": false,
      "t": 144347.6240000007,
      "d": 862.3176333333249,
      "v": 100
    },
    {
      "midi": 64,
      "hit": false,
      "t": 144347.6240000007,
      "d": 862.3176333333249,
      "v": 100
    },
    {
      "midi": 69,
      "hit": false,
      "t": 144347.6240000007,
      "d": 862.3176333333249,
      "v": 100
    },
    {
      "midi": 61,
      "hit": false,
      "t": 145217.1880000007,
      "d": 862.3176333333249,
      "v": 100
    },
    {
      "midi": 64,
      "hit": false,
      "t": 145217.1880000007,
      "d": 862.3176333333249,
      "v": 100
    },
    {
      "midi": 69,
      "hit": false,
      "t": 145217.1880000007,
      "d": 862.3176333333249,
      "v": 100
    },
    {
      "midi": 62,
      "hit": false,
      "t": 146086.75200000068,
      "d": 862.3176333333249,
      "v": 100
    },
    {
      "midi": 66,
      "hit": false,
      "t": 146086.75200000068,
      "d": 862.3176333333249,
      "v": 100
    },
    {
      "midi": 68,
      "hit": false,
      "t": 146086.75200000068,
      "d": 862.3176333333249,
      "v": 100
    },
    {
      "midi": 69,
      "hit": false,
      "t": 146086.75200000068,
      "d": 862.3176333333249,
      "v": 100
    },
    {
      "midi": 62,
      "hit": false,
      "t": 146956.31600000066,
      "d": 862.3176333333249,
      "v": 100
    },
    {
      "midi": 66,
      "hit": false,
      "t": 146956.31600000066,
      "d": 862.3176333333249,
      "v": 100
    },
    {
      "midi": 69,
      "hit": false,
      "t": 146956.31600000066,
      "d": 862.3176333333249,
      "v": 100
    },
    {
      "midi": 61,
      "hit": false,
      "t": 147825.88000000064,
      "d": 862.3176333333249,
      "v": 100
    },
    {
      "midi": 66,
      "hit": false,
      "t": 147825.88000000064,
      "d": 862.3176333333249,
      "v": 100
    },
    {
      "midi": 69,
      "hit": false,
      "t": 147825.88000000064,
      "d": 862.3176333333249,
      "v": 100
    },
    {
      "midi": 61,
      "hit": false,
      "t": 148695.44400000063,
      "d": 862.3176333333249,
      "v": 100
    },
    {
      "midi": 66,
      "hit": false,
      "t": 148695.44400000063,
      "d": 862.3176333333249,
      "v": 100
    },
    {
      "midi": 69,
      "hit": false,
      "t": 148695.44400000063,
      "d": 862.3176333333249,
      "v": 100
    },
    {
      "midi": 64,
      "hit": false,
      "t": 149565.0080000006,
      "d": 862.3176333333249,
      "v": 100
    },
    {
      "midi": 68,
      "hit": false,
      "t": 149565.0080000006,
      "d": 862.3176333333249,
      "v": 100
    },
    {
      "midi": 71,
      "hit": false,
      "t": 149565.0080000006,
      "d": 862.3176333333249,
      "v": 100
    },
    {
      "midi": 64,
      "hit": false,
      "t": 150434.5720000006,
      "d": 862.3176333333249,
      "v": 100
    },
    {
      "midi": 68,
      "hit": false,
      "t": 150434.5720000006,
      "d": 862.3176333333249,
      "v": 100
    },
    {
      "midi": 71,
      "hit": false,
      "t": 150434.5720000006,
      "d": 862.3176333333249,
      "v": 100
    },
    {
      "midi": 62,
      "hit": false,
      "t": 151304.13600000058,
      "d": 862.3176333333249,
      "v": 100
    },
    {
      "midi": 68,
      "hit": false,
      "t": 151304.13600000058,
      "d": 862.3176333333249,
      "v": 100
    },
    {
      "midi": 71,
      "hit": false,
      "t": 151304.13600000058,
      "d": 862.3176333333249,
      "v": 100
    },
    {
      "midi": 62,
      "hit": false,
      "t": 152173.70000000056,
      "d": 862.3176333333249,
      "v": 100
    },
    {
      "midi": 68,
      "hit": false,
      "t": 152173.70000000056,
      "d": 862.3176333333249,
      "v": 100
    },
    {
      "midi": 71,
      "hit": false,
      "t": 152173.70000000056,
      "d": 862.3176333333249,
      "v": 100
    },
    {
      "midi": 61,
      "hit": false,
      "t": 153043.26400000055,
      "d": 862.3176333333249,
      "v": 100
    },
    {
      "midi": 64,
      "hit": false,
      "t": 153043.26400000055,
      "d": 862.3176333333249,
      "v": 100
    },
    {
      "midi": 69,
      "hit": false,
      "t": 153043.26400000055,
      "d": 862.3176333333249,
      "v": 100
    },
    {
      "midi": 61,
      "hit": false,
      "t": 153912.82800000053,
      "d": 862.3176333333249,
      "v": 100
    },
    {
      "midi": 64,
      "hit": false,
      "t": 153912.82800000053,
      "d": 862.3176333333249,
      "v": 100
    },
    {
      "midi": 69,
      "hit": false,
      "t": 153912.82800000053,
      "d": 862.3176333333249,
      "v": 100
    },
    {
      "midi": 61,
      "hit": false,
      "t": 154782.39200000052,
      "d": 862.3176333333249,
      "v": 100
    },
    {
      "midi": 64,
      "hit": false,
      "t": 154782.39200000052,
      "d": 862.3176333333249,
      "v": 100
    },
    {
      "midi": 68,
      "hit": false,
      "t": 154782.39200000052,
      "d": 862.3176333333249,
      "v": 100
    },
    {
      "midi": 61,
      "hit": false,
      "t": 155651.9560000005,
      "d": 862.3176333333249,
      "v": 100
    },
    {
      "midi": 64,
      "hit": false,
      "t": 155651.9560000005,
      "d": 862.3176333333249,
      "v": 100
    },
    {
      "midi": 68,
      "hit": false,
      "t": 155651.9560000005,
      "d": 862.3176333333249,
      "v": 100
    },
    {
      "midi": 61,
      "hit": false,
      "t": 156521.52000000048,
      "d": 862.3176333333249,
      "v": 100
    },
    {
      "midi": 66,
      "hit": false,
      "t": 156521.52000000048,
      "d": 862.3176333333249,
      "v": 100
    },
    {
      "midi": 69,
      "hit": false,
      "t": 156521.52000000048,
      "d": 862.3176333333249,
      "v": 100
    },
    {
      "midi": 61,
      "hit": false,
      "t": 157391.08400000047,
      "d": 862.3176333333249,
      "v": 100
    },
    {
      "midi": 66,
      "hit": false,
      "t": 157391.08400000047,
      "d": 862.3176333333249,
      "v": 100
    },
    {
      "midi": 69,
      "hit": false,
      "t": 157391.08400000047,
      "d": 862.3176333333249,
      "v": 100
    },
    {
      "midi": 61,
      "hit": false,
      "t": 158260.64800000045,
      "d": 862.3176333333249,
      "v": 100
    },
    {
      "midi": 64,
      "hit": false,
      "t": 158260.64800000045,
      "d": 862.3176333333249,
      "v": 100
    },
    {
      "midi": 69,
      "hit": false,
      "t": 158260.64800000045,
      "d": 862.3176333333249,
      "v": 100
    },
    {
      "midi": 61,
      "hit": false,
      "t": 159130.21200000044,
      "d": 862.3176333333249,
      "v": 100
    },
    {
      "midi": 64,
      "hit": false,
      "t": 159130.21200000044,
      "d": 862.3176333333249,
      "v": 100
    },
    {
      "midi": 69,
      "hit": false,
      "t": 159130.21200000044,
      "d": 862.3176333333249,
      "v": 100
    },
    {
      "midi": 62,
      "hit": false,
      "t": 159999.77600000042,
      "d": 862.3176333333249,
      "v": 100
    },
    {
      "midi": 66,
      "hit": false,
      "t": 159999.77600000042,
      "d": 862.3176333333249,
      "v": 100
    },
    {
      "midi": 69,
      "hit": false,
      "t": 159999.77600000042,
      "d": 862.3176333333249,
      "v": 100
    },
    {
      "midi": 62,
      "hit": false,
      "t": 160869.3400000004,
      "d": 862.3176333333249,
      "v": 100
    },
    {
      "midi": 66,
      "hit": false,
      "t": 160869.3400000004,
      "d": 862.3176333333249,
      "v": 100
    },
    {
      "midi": 69,
      "hit": false,
      "t": 160869.3400000004,
      "d": 862.3176333333249,
      "v": 100
    },
    {
      "midi": 64,
      "hit": false,
      "t": 161738.9040000004,
      "d": 862.3176333333249,
      "v": 100
    },
    {
      "midi": 68,
      "hit": false,
      "t": 161738.9040000004,
      "d": 862.3176333333249,
      "v": 100
    },
    {
      "midi": 71,
      "hit": false,
      "t": 161738.9040000004,
      "d": 862.3176333333249,
      "v": 100
    },
    {
      "midi": 64,
      "hit": false,
      "t": 162608.46800000037,
      "d": 862.3176333333249,
      "v": 100
    },
    {
      "midi": 68,
      "hit": false,
      "t": 162608.46800000037,
      "d": 862.3176333333249,
      "v": 100
    },
    {
      "midi": 71,
      "hit": false,
      "t": 162608.46800000037,
      "d": 862.3176333333249,
      "v": 100
    },
    {
      "midi": 61,
      "hit": false,
      "t": 163478.03200000036,
      "d": 862.3176333333249,
      "v": 100
    },
    {
      "midi": 64,
      "hit": false,
      "t": 163478.03200000036,
      "d": 862.3176333333249,
      "v": 100
    },
    {
      "midi": 69,
      "hit": false,
      "t": 163478.03200000036,
      "d": 862.3176333333249,
      "v": 100
    },
    {
      "midi": 61,
      "hit": false,
      "t": 164347.59600000034,
      "d": 862.3176333333249,
      "v": 100
    },
    {
      "midi": 64,
      "hit": false,
      "t": 164347.59600000034,
      "d": 862.3176333333249,
      "v": 100
    },
    {
      "midi": 69,
      "hit": false,
      "t": 164347.59600000034,
      "d": 862.3176333333249,
      "v": 100
    },
    {
      "midi": 61,
      "hit": false,
      "t": 165217.16000000032,
      "d": 1731.881633333338,
      "v": 100
    },
    {
      "midi": 64,
      "hit": false,
      "t": 165217.16000000032,
      "d": 1731.881633333338,
      "v": 100
    },
    {
      "midi": 69,
      "hit": false,
      "t": 165217.16000000032,
      "d": 1731.881633333338,
      "v": 100
    },
    {
      "midi": 61,
      "hit": false,
      "t": 166956.28800000032,
      "d": 862.3176333333249,
      "v": 100
    },
    {
      "midi": 64,
      "hit": false,
      "t": 166956.28800000032,
      "d": 862.3176333333249,
      "v": 100
    },
    {
      "midi": 69,
      "hit": false,
      "t": 166956.28800000032,
      "d": 862.3176333333249,
      "v": 100
    },
    {
      "midi": 61,
      "hit": false,
      "t": 167825.8520000003,
      "d": 862.3176333333249,
      "v": 100
    },
    {
      "midi": 64,
      "hit": false,
      "t": 167825.8520000003,
      "d": 862.3176333333249,
      "v": 100
    },
    {
      "midi": 69,
      "hit": false,
      "t": 167825.8520000003,
      "d": 862.3176333333249,
      "v": 100
    },
    {
      "midi": 61,
      "hit": false,
      "t": 168695.4160000003,
      "d": 862.3176333333249,
      "v": 100
    },
    {
      "midi": 64,
      "hit": false,
      "t": 168695.4160000003,
      "d": 862.3176333333249,
      "v": 100
    },
    {
      "midi": 69,
      "hit": false,
      "t": 168695.4160000003,
      "d": 862.3176333333249,
      "v": 100
    },
    {
      "midi": 61,
      "hit": false,
      "t": 169564.98000000027,
      "d": 210.14463333334425,
      "v": 100
    },
    {
      "midi": 64,
      "hit": false,
      "t": 169564.98000000027,
      "d": 210.14463333334425,
      "v": 100
    },
    {
      "midi": 68,
      "hit": false,
      "t": 169564.98000000027,
      "d": 210.14463333334425,
      "v": 100
    },
    {
      "midi": 69,
      "hit": false,
      "t": 169564.98000000027,
      "d": 210.14463333334425,
      "v": 100
    },
    {
      "midi": 61,
      "hit": false,
      "t": 169782.37100000028,
      "d": 644.9266333333217,
      "v": 100
    },
    {
      "midi": 64,
      "hit": false,
      "t": 169782.37100000028,
      "d": 644.9266333333217,
      "v": 100
    },
    {
      "midi": 68,
      "hit": false,
      "t": 169782.37100000028,
      "d": 644.9266333333217,
      "v": 100
    },
    {
      "midi": 61,
      "hit": false,
      "t": 170434.54400000026,
      "d": 862.3176333333249,
      "v": 100
    },
    {
      "midi": 66,
      "hit": false,
      "t": 170434.54400000026,
      "d": 862.3176333333249,
      "v": 100
    },
    {
      "midi": 69,
      "hit": false,
      "t": 170434.54400000026,
      "d": 862.3176333333249,
      "v": 100
    },
    {
      "midi": 61,
      "hit": false,
      "t": 171304.10800000024,
      "d": 862.3176333333249,
      "v": 100
    },
    {
      "midi": 66,
      "hit": false,
      "t": 171304.10800000024,
      "d": 862.3176333333249,
      "v": 100
    },
    {
      "midi": 69,
      "hit": false,
      "t": 171304.10800000024,
      "d": 862.3176333333249,
      "v": 100
    },
    {
      "midi": 61,
      "hit": false,
      "t": 172173.67200000022,
      "d": 862.3176333333249,
      "v": 100
    },
    {
      "midi": 66,
      "hit": false,
      "t": 172173.67200000022,
      "d": 862.3176333333249,
      "v": 100
    },
    {
      "midi": 69,
      "hit": false,
      "t": 172173.67200000022,
      "d": 862.3176333333249,
      "v": 100
    },
    {
      "midi": 61,
      "hit": false,
      "t": 173043.2360000002,
      "d": 210.14463333334425,
      "v": 100
    },
    {
      "midi": 66,
      "hit": false,
      "t": 173043.2360000002,
      "d": 210.14463333334425,
      "v": 100
    },
    {
      "midi": 69,
      "hit": false,
      "t": 173043.2360000002,
      "d": 210.14463333334425,
      "v": 100
    },
    {
      "midi": 61,
      "hit": false,
      "t": 173260.6270000002,
      "d": 644.9266333333217,
      "v": 100
    },
    {
      "midi": 64,
      "hit": false,
      "t": 173260.6270000002,
      "d": 644.9266333333217,
      "v": 100
    },
    {
      "midi": 69,
      "hit": false,
      "t": 173260.6270000002,
      "d": 644.9266333333217,
      "v": 100
    },
    {
      "midi": 62,
      "hit": false,
      "t": 173912.8000000002,
      "d": 862.3176333333249,
      "v": 100
    },
    {
      "midi": 66,
      "hit": false,
      "t": 173912.8000000002,
      "d": 862.3176333333249,
      "v": 100
    },
    {
      "midi": 69,
      "hit": false,
      "t": 173912.8000000002,
      "d": 862.3176333333249,
      "v": 100
    },
    {
      "midi": 62,
      "hit": false,
      "t": 174782.36400000018,
      "d": 862.3176333333249,
      "v": 100
    },
    {
      "midi": 66,
      "hit": false,
      "t": 174782.36400000018,
      "d": 862.3176333333249,
      "v": 100
    },
    {
      "midi": 69,
      "hit": false,
      "t": 174782.36400000018,
      "d": 862.3176333333249,
      "v": 100
    },
    {
      "midi": 62,
      "hit": false,
      "t": 175651.92800000016,
      "d": 862.3176333333249,
      "v": 100
    },
    {
      "midi": 66,
      "hit": false,
      "t": 175651.92800000016,
      "d": 862.3176333333249,
      "v": 100
    },
    {
      "midi": 69,
      "hit": false,
      "t": 175651.92800000016,
      "d": 862.3176333333249,
      "v": 100
    },
    {
      "midi": 62,
      "hit": false,
      "t": 176521.49200000014,
      "d": 210.14463333334425,
      "v": 100
    },
    {
      "midi": 66,
      "hit": false,
      "t": 176521.49200000014,
      "d": 210.14463333334425,
      "v": 100
    },
    {
      "midi": 69,
      "hit": false,
      "t": 176521.49200000014,
      "d": 210.14463333334425,
      "v": 100
    },
    {
      "midi": 61,
      "hit": false,
      "t": 176738.88300000015,
      "d": 427.5356333333475,
      "v": 100
    },
    {
      "midi": 66,
      "hit": false,
      "t": 176738.88300000015,
      "d": 427.5356333333475,
      "v": 100
    },
    {
      "midi": 69,
      "hit": false,
      "t": 176738.88300000015,
      "d": 427.5356333333475,
      "v": 100
    },
    {
      "midi": 64,
      "hit": false,
      "t": 177391.05600000016,
      "d": 862.3176333333249,
      "v": 100
    },
    {
      "midi": 68,
      "hit": false,
      "t": 177391.05600000016,
      "d": 862.3176333333249,
      "v": 100
    },
    {
      "midi": 71,
      "hit": false,
      "t": 177391.05600000016,
      "d": 862.3176333333249,
      "v": 100
    },
    {
      "midi": 64,
      "hit": false,
      "t": 178260.62000000014,
      "d": 862.3176333333249,
      "v": 100
    },
    {
      "midi": 68,
      "hit": false,
      "t": 178260.62000000014,
      "d": 862.3176333333249,
      "v": 100
    },
    {
      "midi": 71,
      "hit": false,
      "t": 178260.62000000014,
      "d": 862.3176333333249,
      "v": 100
    },
    {
      "midi": 64,
      "hit": false,
      "t": 179130.18400000012,
      "d": 862.3176333333249,
      "v": 100
    },
    {
      "midi": 68,
      "hit": false,
      "t": 179130.18400000012,
      "d": 862.3176333333249,
      "v": 100
    },
    {
      "midi": 71,
      "hit": false,
      "t": 179130.18400000012,
      "d": 862.3176333333249,
      "v": 100
    },
    {
      "midi": 64,
      "hit": false,
      "t": 179999.7480000001,
      "d": 862.3176333333249,
      "v": 100
    },
    {
      "midi": 68,
      "hit": false,
      "t": 179999.7480000001,
      "d": 862.3176333333249,
      "v": 100
    },
    {
      "midi": 71,
      "hit": false,
      "t": 179999.7480000001,
      "d": 862.3176333333249,
      "v": 100
    },
    {
      "midi": 61,
      "hit": false,
      "t": 180869.3120000001,
      "d": 862.3176333333249,
      "v": 100
    },
    {
      "midi": 64,
      "hit": false,
      "t": 180869.3120000001,
      "d": 862.3176333333249,
      "v": 100
    },
    {
      "midi": 69,
      "hit": false,
      "t": 180869.3120000001,
      "d": 862.3176333333249,
      "v": 100
    },
    {
      "midi": 61,
      "hit": false,
      "t": 181738.87600000008,
      "d": 862.3176333333249,
      "v": 100
    },
    {
      "midi": 64,
      "hit": false,
      "t": 181738.87600000008,
      "d": 862.3176333333249,
      "v": 100
    },
    {
      "midi": 69,
      "hit": false,
      "t": 181738.87600000008,
      "d": 862.3176333333249,
      "v": 100
    },
    {
      "midi": 61,
      "hit": false,
      "t": 182608.44000000006,
      "d": 862.3176333333249,
      "v": 100
    },
    {
      "midi": 64,
      "hit": false,
      "t": 182608.44000000006,
      "d": 862.3176333333249,
      "v": 100
    },
    {
      "midi": 69,
      "hit": false,
      "t": 182608.44000000006,
      "d": 862.3176333333249,
      "v": 100
    },
    {
      "midi": 61,
      "hit": false,
      "t": 183478.00400000004,
      "d": 210.14463333334425,
      "v": 100
    },
    {
      "midi": 64,
      "hit": false,
      "t": 183478.00400000004,
      "d": 210.14463333334425,
      "v": 100
    },
    {
      "midi": 68,
      "hit": false,
      "t": 183478.00400000004,
      "d": 210.14463333334425,
      "v": 100
    },
    {
      "midi": 69,
      "hit": false,
      "t": 183478.00400000004,
      "d": 210.14463333334425,
      "v": 100
    },
    {
      "midi": 61,
      "hit": false,
      "t": 183695.39500000005,
      "d": 644.9266333333217,
      "v": 100
    },
    {
      "midi": 64,
      "hit": false,
      "t": 183695.39500000005,
      "d": 644.9266333333217,
      "v": 100
    },
    {
      "midi": 68,
      "hit": false,
      "t": 183695.39500000005,
      "d": 644.9266333333217,
      "v": 100
    },
    {
      "midi": 61,
      "hit": false,
      "t": 184347.56800000003,
      "d": 862.3176333333249,
      "v": 100
    },
    {
      "midi": 66,
      "hit": false,
      "t": 184347.56800000003,
      "d": 862.3176333333249,
      "v": 100
    },
    {
      "midi": 69,
      "hit": false,
      "t": 184347.56800000003,
      "d": 862.3176333333249,
      "v": 100
    },
    {
      "midi": 61,
      "hit": false,
      "t": 185217.132,
      "d": 862.3176333333249,
      "v": 100
    },
    {
      "midi": 66,
      "hit": false,
      "t": 185217.132,
      "d": 862.3176333333249,
      "v": 100
    },
    {
      "midi": 69,
      "hit": false,
      "t": 185217.132,
      "d": 862.3176333333249,
      "v": 100
    },
    {
      "midi": 61,
      "hit": false,
      "t": 186086.696,
      "d": 862.3176333333249,
      "v": 100
    },
    {
      "midi": 66,
      "hit": false,
      "t": 186086.696,
      "d": 862.3176333333249,
      "v": 100
    },
    {
      "midi": 69,
      "hit": false,
      "t": 186086.696,
      "d": 862.3176333333249,
      "v": 100
    },
    {
      "midi": 61,
      "hit": false,
      "t": 186956.25999999998,
      "d": 210.14463333334425,
      "v": 100
    },
    {
      "midi": 66,
      "hit": false,
      "t": 186956.25999999998,
      "d": 210.14463333334425,
      "v": 100
    },
    {
      "midi": 69,
      "hit": false,
      "t": 186956.25999999998,
      "d": 210.14463333334425,
      "v": 100
    },
    {
      "midi": 61,
      "hit": false,
      "t": 187173.65099999998,
      "d": 644.9266333333217,
      "v": 100
    },
    {
      "midi": 64,
      "hit": false,
      "t": 187173.65099999998,
      "d": 644.9266333333217,
      "v": 100
    },
    {
      "midi": 69,
      "hit": false,
      "t": 187173.65099999998,
      "d": 644.9266333333217,
      "v": 100
    },
    {
      "midi": 62,
      "hit": false,
      "t": 187825.82399999996,
      "d": 862.3176333333249,
      "v": 100
    },
    {
      "midi": 66,
      "hit": false,
      "t": 187825.82399999996,
      "d": 862.3176333333249,
      "v": 100
    },
    {
      "midi": 69,
      "hit": false,
      "t": 187825.82399999996,
      "d": 862.3176333333249,
      "v": 100
    },
    {
      "midi": 62,
      "hit": false,
      "t": 188695.38799999995,
      "d": 862.3176333333249,
      "v": 100
    },
    {
      "midi": 66,
      "hit": false,
      "t": 188695.38799999995,
      "d": 862.3176333333249,
      "v": 100
    },
    {
      "midi": 69,
      "hit": false,
      "t": 188695.38799999995,
      "d": 862.3176333333249,
      "v": 100
    },
    {
      "midi": 61,
      "hit": false,
      "t": 189564.95199999993,
      "d": 862.3176333333249,
      "v": 100
    },
    {
      "midi": 66,
      "hit": false,
      "t": 189564.95199999993,
      "d": 862.3176333333249,
      "v": 100
    },
    {
      "midi": 71,
      "hit": false,
      "t": 189564.95199999993,
      "d": 862.3176333333249,
      "v": 100
    },
    {
      "midi": 61,
      "hit": false,
      "t": 190434.51599999992,
      "d": 862.3176333333249,
      "v": 100
    },
    {
      "midi": 66,
      "hit": false,
      "t": 190434.51599999992,
      "d": 862.3176333333249,
      "v": 100
    },
    {
      "midi": 71,
      "hit": false,
      "t": 190434.51599999992,
      "d": 862.3176333333249,
      "v": 100
    },
    {
      "midi": 64,
      "hit": false,
      "t": 191304.0799999999,
      "d": 862.3176333333249,
      "v": 100
    },
    {
      "midi": 68,
      "hit": false,
      "t": 191304.0799999999,
      "d": 862.3176333333249,
      "v": 100
    },
    {
      "midi": 71,
      "hit": false,
      "t": 191304.0799999999,
      "d": 862.3176333333249,
      "v": 100
    },
    {
      "midi": 64,
      "hit": false,
      "t": 192173.64399999988,
      "d": 862.3176333333249,
      "v": 100
    },
    {
      "midi": 68,
      "hit": false,
      "t": 192173.64399999988,
      "d": 862.3176333333249,
      "v": 100
    },
    {
      "midi": 71,
      "hit": false,
      "t": 192173.64399999988,
      "d": 862.3176333333249,
      "v": 100
    },
    {
      "midi": 62,
      "hit": false,
      "t": 193043.20799999987,
      "d": 862.3176333333249,
      "v": 100
    },
    {
      "midi": 68,
      "hit": false,
      "t": 193043.20799999987,
      "d": 862.3176333333249,
      "v": 100
    },
    {
      "midi": 71,
      "hit": false,
      "t": 193043.20799999987,
      "d": 862.3176333333249,
      "v": 100
    },
    {
      "midi": 62,
      "hit": false,
      "t": 193912.77199999985,
      "d": 862.3176333333249,
      "v": 100
    },
    {
      "midi": 68,
      "hit": false,
      "t": 193912.77199999985,
      "d": 862.3176333333249,
      "v": 100
    },
    {
      "midi": 71,
      "hit": false,
      "t": 193912.77199999985,
      "d": 862.3176333333249,
      "v": 100
    },
    {
      "midi": 61,
      "hit": false,
      "t": 194782.33599999984,
      "d": 862.3176333333249,
      "v": 100
    },
    {
      "midi": 64,
      "hit": false,
      "t": 194782.33599999984,
      "d": 862.3176333333249,
      "v": 100
    },
    {
      "midi": 69,
      "hit": false,
      "t": 194782.33599999984,
      "d": 862.3176333333249,
      "v": 100
    },
    {
      "midi": 61,
      "hit": false,
      "t": 195651.89999999982,
      "d": 862.3176333333249,
      "v": 100
    },
    {
      "midi": 64,
      "hit": false,
      "t": 195651.89999999982,
      "d": 862.3176333333249,
      "v": 100
    },
    {
      "midi": 69,
      "hit": false,
      "t": 195651.89999999982,
      "d": 862.3176333333249,
      "v": 100
    },
    {
      "midi": 61,
      "hit": false,
      "t": 196521.4639999998,
      "d": 1731.881633333338,
      "v": 100
    },
    {
      "midi": 64,
      "hit": false,
      "t": 196521.4639999998,
      "d": 1731.881633333338,
      "v": 100
    },
    {
      "midi": 69,
      "hit": false,
      "t": 196521.4639999998,
      "d": 1731.881633333338,
      "v": 100
    },
    {
      "midi": 61,
      "hit": false,
      "t": 198260.5919999998,
      "d": 862.3176333333249,
      "v": 100
    },
    {
      "midi": 64,
      "hit": false,
      "t": 198260.5919999998,
      "d": 862.3176333333249,
      "v": 100
    },
    {
      "midi": 69,
      "hit": false,
      "t": 198260.5919999998,
      "d": 862.3176333333249,
      "v": 100
    },
    {
      "midi": 61,
      "hit": false,
      "t": 199130.15599999978,
      "d": 862.3176333333249,
      "v": 100
    },
    {
      "midi": 64,
      "hit": false,
      "t": 199130.15599999978,
      "d": 862.3176333333249,
      "v": 100
    },
    {
      "midi": 68,
      "hit": false,
      "t": 199130.15599999978,
      "d": 862.3176333333249,
      "v": 100
    },
    {
      "midi": 69,
      "hit": false,
      "t": 199130.15599999978,
      "d": 862.3176333333249,
      "v": 100
    },
    {
      "midi": 61,
      "hit": false,
      "t": 199999.71999999977,
      "d": 862.3176333333249,
      "v": 100
    },
    {
      "midi": 64,
      "hit": false,
      "t": 199999.71999999977,
      "d": 862.3176333333249,
      "v": 100
    },
    {
      "midi": 68,
      "hit": false,
      "t": 199999.71999999977,
      "d": 862.3176333333249,
      "v": 100
    },
    {
      "midi": 61,
      "hit": false,
      "t": 200869.28399999975,
      "d": 862.3176333333249,
      "v": 100
    },
    {
      "midi": 64,
      "hit": false,
      "t": 200869.28399999975,
      "d": 862.3176333333249,
      "v": 100
    },
    {
      "midi": 68,
      "hit": false,
      "t": 200869.28399999975,
      "d": 862.3176333333249,
      "v": 100
    },
    {
      "midi": 61,
      "hit": false,
      "t": 201738.84799999974,
      "d": 862.3176333333249,
      "v": 100
    },
    {
      "midi": 66,
      "hit": false,
      "t": 201738.84799999974,
      "d": 862.3176333333249,
      "v": 100
    },
    {
      "midi": 69,
      "hit": false,
      "t": 201738.84799999974,
      "d": 862.3176333333249,
      "v": 100
    },
    {
      "midi": 61,
      "hit": false,
      "t": 202608.41199999972,
      "d": 862.3176333333249,
      "v": 100
    },
    {
      "midi": 66,
      "hit": false,
      "t": 202608.41199999972,
      "d": 862.3176333333249,
      "v": 100
    },
    {
      "midi": 69,
      "hit": false,
      "t": 202608.41199999972,
      "d": 862.3176333333249,
      "v": 100
    },
    {
      "midi": 61,
      "hit": false,
      "t": 203477.9759999997,
      "d": 862.3176333333249,
      "v": 100
    },
    {
      "midi": 64,
      "hit": false,
      "t": 203477.9759999997,
      "d": 862.3176333333249,
      "v": 100
    },
    {
      "midi": 69,
      "hit": false,
      "t": 203477.9759999997,
      "d": 862.3176333333249,
      "v": 100
    },
    {
      "midi": 61,
      "hit": false,
      "t": 204347.5399999997,
      "d": 862.3176333333249,
      "v": 100
    },
    {
      "midi": 64,
      "hit": false,
      "t": 204347.5399999997,
      "d": 862.3176333333249,
      "v": 100
    },
    {
      "midi": 69,
      "hit": false,
      "t": 204347.5399999997,
      "d": 862.3176333333249,
      "v": 100
    },
    {
      "midi": 62,
      "hit": false,
      "t": 205217.10399999967,
      "d": 862.3176333333249,
      "v": 100
    },
    {
      "midi": 66,
      "hit": false,
      "t": 205217.10399999967,
      "d": 862.3176333333249,
      "v": 100
    },
    {
      "midi": 69,
      "hit": false,
      "t": 205217.10399999967,
      "d": 862.3176333333249,
      "v": 100
    },
    {
      "midi": 62,
      "hit": false,
      "t": 206086.66799999966,
      "d": 862.3176333333249,
      "v": 100
    },
    {
      "midi": 66,
      "hit": false,
      "t": 206086.66799999966,
      "d": 862.3176333333249,
      "v": 100
    },
    {
      "midi": 69,
      "hit": false,
      "t": 206086.66799999966,
      "d": 862.3176333333249,
      "v": 100
    },
    {
      "midi": 61,
      "hit": false,
      "t": 206956.23199999964,
      "d": 862.3176333333249,
      "v": 100
    },
    {
      "midi": 66,
      "hit": false,
      "t": 206956.23199999964,
      "d": 862.3176333333249,
      "v": 100
    },
    {
      "midi": 69,
      "hit": false,
      "t": 206956.23199999964,
      "d": 862.3176333333249,
      "v": 100
    },
    {
      "midi": 61,
      "hit": false,
      "t": 207825.79599999962,
      "d": 862.3176333333249,
      "v": 100
    },
    {
      "midi": 66,
      "hit": false,
      "t": 207825.79599999962,
      "d": 862.3176333333249,
      "v": 100
    },
    {
      "midi": 69,
      "hit": false,
      "t": 207825.79599999962,
      "d": 862.3176333333249,
      "v": 100
    },
    {
      "midi": 64,
      "hit": false,
      "t": 208695.3599999996,
      "d": 862.3176333333249,
      "v": 100
    },
    {
      "midi": 68,
      "hit": false,
      "t": 208695.3599999996,
      "d": 862.3176333333249,
      "v": 100
    },
    {
      "midi": 71,
      "hit": false,
      "t": 208695.3599999996,
      "d": 862.3176333333249,
      "v": 100
    },
    {
      "midi": 64,
      "hit": false,
      "t": 209564.9239999996,
      "d": 862.3176333333249,
      "v": 100
    },
    {
      "midi": 68,
      "hit": false,
      "t": 209564.9239999996,
      "d": 862.3176333333249,
      "v": 100
    },
    {
      "midi": 71,
      "hit": false,
      "t": 209564.9239999996,
      "d": 862.3176333333249,
      "v": 100
    },
    {
      "midi": 62,
      "hit": false,
      "t": 210434.48799999958,
      "d": 862.3176333333249,
      "v": 100
    },
    {
      "midi": 68,
      "hit": false,
      "t": 210434.48799999958,
      "d": 862.3176333333249,
      "v": 100
    },
    {
      "midi": 71,
      "hit": false,
      "t": 210434.48799999958,
      "d": 862.3176333333249,
      "v": 100
    },
    {
      "midi": 62,
      "hit": false,
      "t": 211304.05199999956,
      "d": 862.3176333333249,
      "v": 100
    },
    {
      "midi": 68,
      "hit": false,
      "t": 211304.05199999956,
      "d": 862.3176333333249,
      "v": 100
    },
    {
      "midi": 71,
      "hit": false,
      "t": 211304.05199999956,
      "d": 862.3176333333249,
      "v": 100
    },
    {
      "midi": 61,
      "hit": false,
      "t": 212173.61599999954,
      "d": 862.3176333333249,
      "v": 100
    },
    {
      "midi": 64,
      "hit": false,
      "t": 212173.61599999954,
      "d": 862.3176333333249,
      "v": 100
    },
    {
      "midi": 69,
      "hit": false,
      "t": 212173.61599999954,
      "d": 862.3176333333249,
      "v": 100
    },
    {
      "midi": 61,
      "hit": false,
      "t": 213043.17999999953,
      "d": 862.3176333333249,
      "v": 100
    },
    {
      "midi": 64,
      "hit": false,
      "t": 213043.17999999953,
      "d": 862.3176333333249,
      "v": 100
    },
    {
      "midi": 69,
      "hit": false,
      "t": 213043.17999999953,
      "d": 862.3176333333249,
      "v": 100
    },
    {
      "midi": 61,
      "hit": false,
      "t": 213912.7439999995,
      "d": 862.3176333333249,
      "v": 100
    },
    {
      "midi": 64,
      "hit": false,
      "t": 213912.7439999995,
      "d": 862.3176333333249,
      "v": 100
    },
    {
      "midi": 68,
      "hit": false,
      "t": 213912.7439999995,
      "d": 862.3176333333249,
      "v": 100
    },
    {
      "midi": 61,
      "hit": false,
      "t": 214782.3079999995,
      "d": 862.3176333333249,
      "v": 100
    },
    {
      "midi": 64,
      "hit": false,
      "t": 214782.3079999995,
      "d": 862.3176333333249,
      "v": 100
    },
    {
      "midi": 68,
      "hit": false,
      "t": 214782.3079999995,
      "d": 862.3176333333249,
      "v": 100
    },
    {
      "midi": 61,
      "hit": false,
      "t": 215651.87199999948,
      "d": 862.3176333333249,
      "v": 100
    },
    {
      "midi": 66,
      "hit": false,
      "t": 215651.87199999948,
      "d": 862.3176333333249,
      "v": 100
    },
    {
      "midi": 69,
      "hit": false,
      "t": 215651.87199999948,
      "d": 862.3176333333249,
      "v": 100
    },
    {
      "midi": 61,
      "hit": false,
      "t": 216521.43599999946,
      "d": 862.3176333333249,
      "v": 100
    },
    {
      "midi": 66,
      "hit": false,
      "t": 216521.43599999946,
      "d": 862.3176333333249,
      "v": 100
    },
    {
      "midi": 69,
      "hit": false,
      "t": 216521.43599999946,
      "d": 862.3176333333249,
      "v": 100
    },
    {
      "midi": 61,
      "hit": false,
      "t": 217390.99999999945,
      "d": 862.3176333333249,
      "v": 100
    },
    {
      "midi": 64,
      "hit": false,
      "t": 217390.99999999945,
      "d": 862.3176333333249,
      "v": 100
    },
    {
      "midi": 69,
      "hit": false,
      "t": 217390.99999999945,
      "d": 862.3176333333249,
      "v": 100
    },
    {
      "midi": 61,
      "hit": false,
      "t": 218260.56399999943,
      "d": 862.3176333333249,
      "v": 100
    },
    {
      "midi": 64,
      "hit": false,
      "t": 218260.56399999943,
      "d": 862.3176333333249,
      "v": 100
    },
    {
      "midi": 69,
      "hit": false,
      "t": 218260.56399999943,
      "d": 862.3176333333249,
      "v": 100
    },
    {
      "midi": 62,
      "hit": false,
      "t": 219130.12799999941,
      "d": 862.3176333333249,
      "v": 100
    },
    {
      "midi": 66,
      "hit": false,
      "t": 219130.12799999941,
      "d": 862.3176333333249,
      "v": 100
    },
    {
      "midi": 69,
      "hit": false,
      "t": 219130.12799999941,
      "d": 862.3176333333249,
      "v": 100
    },
    {
      "midi": 62,
      "hit": false,
      "t": 219999.6919999994,
      "d": 862.3176333333249,
      "v": 100
    },
    {
      "midi": 66,
      "hit": false,
      "t": 219999.6919999994,
      "d": 862.3176333333249,
      "v": 100
    },
    {
      "midi": 69,
      "hit": false,
      "t": 219999.6919999994,
      "d": 862.3176333333249,
      "v": 100
    },
    {
      "midi": 64,
      "hit": false,
      "t": 220869.25599999938,
      "d": 862.3176333333249,
      "v": 100
    },
    {
      "midi": 68,
      "hit": false,
      "t": 220869.25599999938,
      "d": 862.3176333333249,
      "v": 100
    },
    {
      "midi": 71,
      "hit": false,
      "t": 220869.25599999938,
      "d": 862.3176333333249,
      "v": 100
    },
    {
      "midi": 64,
      "hit": false,
      "t": 221738.81999999937,
      "d": 862.3176333333249,
      "v": 100
    },
    {
      "midi": 68,
      "hit": false,
      "t": 221738.81999999937,
      "d": 862.3176333333249,
      "v": 100
    },
    {
      "midi": 71,
      "hit": false,
      "t": 221738.81999999937,
      "d": 862.3176333333249,
      "v": 100
    },
    {
      "midi": 61,
      "hit": false,
      "t": 222608.38399999935,
      "d": 862.3176333333249,
      "v": 100
    },
    {
      "midi": 64,
      "hit": false,
      "t": 222608.38399999935,
      "d": 862.3176333333249,
      "v": 100
    },
    {
      "midi": 69,
      "hit": false,
      "t": 222608.38399999935,
      "d": 862.3176333333249,
      "v": 100
    },
    {
      "midi": 61,
      "hit": false,
      "t": 223477.94799999933,
      "d": 862.3176333333249,
      "v": 100
    },
    {
      "midi": 64,
      "hit": false,
      "t": 223477.94799999933,
      "d": 862.3176333333249,
      "v": 100
    },
    {
      "midi": 69,
      "hit": false,
      "t": 223477.94799999933,
      "d": 862.3176333333249,
      "v": 100
    },
    {
      "midi": 61,
      "hit": false,
      "t": 224347.51199999932,
      "d": 862.3176333333249,
      "v": 100
    },
    {
      "midi": 64,
      "hit": false,
      "t": 224347.51199999932,
      "d": 862.3176333333249,
      "v": 100
    },
    {
      "midi": 69,
      "hit": false,
      "t": 224347.51199999932,
      "d": 862.3176333333249,
      "v": 100
    },
    {
      "midi": 61,
      "hit": false,
      "t": 225217.0759999993,
      "d": 137.6809666666668,
      "v": 100
    },
    {
      "midi": 64,
      "hit": false,
      "t": 225217.0759999993,
      "d": 137.6809666666668,
      "v": 100
    },
    {
      "midi": 69,
      "hit": false,
      "t": 225217.0759999993,
      "d": 137.6809666666668,
      "v": 100
    },
    {
      "midi": 61,
      "hit": false,
      "t": 225434.4669999993,
      "d": 644.9266333333217,
      "v": 100
    },
    {
      "midi": 64,
      "hit": false,
      "t": 225434.4669999993,
      "d": 644.9266333333217,
      "v": 100
    },
    {
      "midi": 68,
      "hit": false,
      "t": 225434.4669999993,
      "d": 644.9266333333217,
      "v": 100
    },
    {
      "midi": 62,
      "hit": false,
      "t": 226086.6399999993,
      "d": 644.9266333333217,
      "v": 100
    },
    {
      "midi": 67,
      "hit": false,
      "t": 226086.6399999993,
      "d": 644.9266333333217,
      "v": 100
    },
    {
      "midi": 71,
      "hit": false,
      "t": 226086.6399999993,
      "d": 644.9266333333217,
      "v": 100
    },
    {
      "midi": 62,
      "hit": false,
      "t": 226956.20399999927,
      "d": 644.9266333333217,
      "v": 100
    },
    {
      "midi": 67,
      "hit": false,
      "t": 226956.20399999927,
      "d": 644.9266333333217,
      "v": 100
    },
    {
      "midi": 71,
      "hit": false,
      "t": 226956.20399999927,
      "d": 644.9266333333217,
      "v": 100
    },
    {
      "midi": 62,
      "hit": false,
      "t": 227825.76799999925,
      "d": 644.9266333333217,
      "v": 100
    },
    {
      "midi": 67,
      "hit": false,
      "t": 227825.76799999925,
      "d": 644.9266333333217,
      "v": 100
    },
    {
      "midi": 71,
      "hit": false,
      "t": 227825.76799999925,
      "d": 644.9266333333217,
      "v": 100
    },
    {
      "midi": 62,
      "hit": false,
      "t": 228695.33199999924,
      "d": 427.5356333333475,
      "v": 100
    },
    {
      "midi": 67,
      "hit": false,
      "t": 228695.33199999924,
      "d": 427.5356333333475,
      "v": 100
    },
    {
      "midi": 71,
      "hit": false,
      "t": 228695.33199999924,
      "d": 427.5356333333475,
      "v": 100
    },
    {
      "midi": 61,
      "hit": false,
      "t": 229564.89599999925,
      "d": 644.9266333333217,
      "v": 100
    },
    {
      "midi": 64,
      "hit": false,
      "t": 229564.89599999925,
      "d": 644.9266333333217,
      "v": 100
    },
    {
      "midi": 69,
      "hit": false,
      "t": 229564.89599999925,
      "d": 644.9266333333217,
      "v": 100
    },
    {
      "midi": 61,
      "hit": false,
      "t": 230434.45999999924,
      "d": 644.9266333333217,
      "v": 100
    },
    {
      "midi": 64,
      "hit": false,
      "t": 230434.45999999924,
      "d": 644.9266333333217,
      "v": 100
    },
    {
      "midi": 69,
      "hit": false,
      "t": 230434.45999999924,
      "d": 644.9266333333217,
      "v": 100
    },
    {
      "midi": 61,
      "hit": false,
      "t": 231304.02399999922,
      "d": 644.9266333333217,
      "v": 100
    },
    {
      "midi": 64,
      "hit": false,
      "t": 231304.02399999922,
      "d": 644.9266333333217,
      "v": 100
    },
    {
      "midi": 69,
      "hit": false,
      "t": 231304.02399999922,
      "d": 644.9266333333217,
      "v": 100
    },
    {
      "midi": 61,
      "hit": false,
      "t": 232173.5879999992,
      "d": 427.5356333333475,
      "v": 100
    },
    {
      "midi": 64,
      "hit": false,
      "t": 232173.5879999992,
      "d": 427.5356333333475,
      "v": 100
    },
    {
      "midi": 69,
      "hit": false,
      "t": 232173.5879999992,
      "d": 427.5356333333475,
      "v": 100
    },
    {
      "midi": 70,
      "hit": false,
      "t": 233043.15199999922,
      "d": 210.14463333334425,
      "v": 100
    },
    {
      "midi": 63,
      "hit": false,
      "t": 233043.15199999922,
      "d": 644.9266333333508,
      "v": 100
    },
    {
      "midi": 66,
      "hit": false,
      "t": 233043.15199999922,
      "d": 644.9266333333508,
      "v": 100
    },
    {
      "midi": 71,
      "hit": false,
      "t": 233043.15199999922,
      "d": 644.9266333333508,
      "v": 100
    },
    {
      "midi": 63,
      "hit": false,
      "t": 233912.71599999923,
      "d": 644.9266333333217,
      "v": 100
    },
    {
      "midi": 66,
      "hit": false,
      "t": 233912.71599999923,
      "d": 644.9266333333217,
      "v": 100
    },
    {
      "midi": 71,
      "hit": false,
      "t": 233912.71599999923,
      "d": 644.9266333333217,
      "v": 100
    },
    {
      "midi": 63,
      "hit": false,
      "t": 234782.2799999992,
      "d": 644.9266333333217,
      "v": 100
    },
    {
      "midi": 66,
      "hit": false,
      "t": 234782.2799999992,
      "d": 644.9266333333217,
      "v": 100
    },
    {
      "midi": 71,
      "hit": false,
      "t": 234782.2799999992,
      "d": 644.9266333333217,
      "v": 100
    },
    {
      "midi": 63,
      "hit": false,
      "t": 235651.8439999992,
      "d": 427.5356333333475,
      "v": 100
    },
    {
      "midi": 66,
      "hit": false,
      "t": 235651.8439999992,
      "d": 427.5356333333475,
      "v": 100
    },
    {
      "midi": 71,
      "hit": false,
      "t": 235651.8439999992,
      "d": 427.5356333333475,
      "v": 100
    },
    {
      "midi": 70,
      "hit": false,
      "t": 236521.4079999992,
      "d": 210.14463333334425,
      "v": 100
    },
    {
      "midi": 62,
      "hit": false,
      "t": 236521.4079999992,
      "d": 644.9266333333508,
      "v": 100
    },
    {
      "midi": 67,
      "hit": false,
      "t": 236521.4079999992,
      "d": 644.9266333333508,
      "v": 100
    },
    {
      "midi": 71,
      "hit": false,
      "t": 236521.4079999992,
      "d": 644.9266333333508,
      "v": 100
    },
    {
      "midi": 62,
      "hit": false,
      "t": 237390.97199999922,
      "d": 644.9266333333217,
      "v": 100
    },
    {
      "midi": 67,
      "hit": false,
      "t": 237390.97199999922,
      "d": 644.9266333333217,
      "v": 100
    },
    {
      "midi": 71,
      "hit": false,
      "t": 237390.97199999922,
      "d": 644.9266333333217,
      "v": 100
    },
    {
      "midi": 62,
      "hit": false,
      "t": 238260.5359999992,
      "d": 644.9266333333217,
      "v": 100
    },
    {
      "midi": 67,
      "hit": false,
      "t": 238260.5359999992,
      "d": 644.9266333333217,
      "v": 100
    },
    {
      "midi": 71,
      "hit": false,
      "t": 238260.5359999992,
      "d": 644.9266333333217,
      "v": 100
    },
    {
      "midi": 62,
      "hit": false,
      "t": 239130.0999999992,
      "d": 427.5356333333475,
      "v": 100
    },
    {
      "midi": 67,
      "hit": false,
      "t": 239130.0999999992,
      "d": 427.5356333333475,
      "v": 100
    },
    {
      "midi": 71,
      "hit": false,
      "t": 239130.0999999992,
      "d": 427.5356333333475,
      "v": 100
    },
    {
      "midi": 61,
      "hit": false,
      "t": 239999.6639999992,
      "d": 644.9266333333217,
      "v": 100
    },
    {
      "midi": 64,
      "hit": false,
      "t": 239999.6639999992,
      "d": 644.9266333333217,
      "v": 100
    },
    {
      "midi": 69,
      "hit": false,
      "t": 239999.6639999992,
      "d": 644.9266333333217,
      "v": 100
    },
    {
      "midi": 68,
      "hit": false,
      "t": 240869.2279999992,
      "d": 210.14463333334425,
      "v": 100
    },
    {
      "midi": 61,
      "hit": false,
      "t": 240869.2279999992,
      "d": 644.9266333333508,
      "v": 100
    },
    {
      "midi": 64,
      "hit": false,
      "t": 240869.2279999992,
      "d": 644.9266333333508,
      "v": 100
    },
    {
      "midi": 69,
      "hit": false,
      "t": 240869.2279999992,
      "d": 644.9266333333508,
      "v": 100
    },
    {
      "midi": 61,
      "hit": false,
      "t": 241738.7919999992,
      "d": 644.9266333333217,
      "v": 100
    },
    {
      "midi": 64,
      "hit": false,
      "t": 241738.7919999992,
      "d": 644.9266333333217,
      "v": 100
    },
    {
      "midi": 69,
      "hit": false,
      "t": 241738.7919999992,
      "d": 644.9266333333217,
      "v": 100
    },
    {
      "midi": 61,
      "hit": false,
      "t": 242390.96499999918,
      "d": 210.14463333334425,
      "v": 100
    },
    {
      "midi": 64,
      "hit": false,
      "t": 242390.96499999918,
      "d": 210.14463333334425,
      "v": 100
    },
    {
      "midi": 69,
      "hit": false,
      "t": 242390.96499999918,
      "d": 210.14463333334425,
      "v": 100
    },
    {
      "midi": 61,
      "hit": false,
      "t": 242608.35599999918,
      "d": 427.5356333333475,
      "v": 100
    },
    {
      "midi": 64,
      "hit": false,
      "t": 242608.35599999918,
      "d": 427.5356333333475,
      "v": 100
    },
    {
      "midi": 69,
      "hit": false,
      "t": 242608.35599999918,
      "d": 644.9266333333508,
      "v": 100
    },
    {
      "midi": 62,
      "hit": false,
      "t": 243477.9199999992,
      "d": 644.9266333333217,
      "v": 100
    },
    {
      "midi": 66,
      "hit": false,
      "t": 243477.9199999992,
      "d": 644.9266333333217,
      "v": 100
    },
    {
      "midi": 69,
      "hit": false,
      "t": 243477.9199999992,
      "d": 644.9266333333217,
      "v": 100
    },
    {
      "midi": 62,
      "hit": false,
      "t": 244347.48399999918,
      "d": 644.9266333333217,
      "v": 100
    },
    {
      "midi": 66,
      "hit": false,
      "t": 244347.48399999918,
      "d": 644.9266333333217,
      "v": 100
    },
    {
      "midi": 69,
      "hit": false,
      "t": 244347.48399999918,
      "d": 644.9266333333217,
      "v": 100
    },
    {
      "midi": 62,
      "hit": false,
      "t": 245217.04799999917,
      "d": 644.9266333333217,
      "v": 100
    },
    {
      "midi": 66,
      "hit": false,
      "t": 245217.04799999917,
      "d": 644.9266333333217,
      "v": 100
    },
    {
      "midi": 71,
      "hit": false,
      "t": 245217.04799999917,
      "d": 644.9266333333217,
      "v": 100
    },
    {
      "midi": 66,
      "hit": false,
      "t": 246086.61199999915,
      "d": 427.5356333333475,
      "v": 100
    },
    {
      "midi": 62,
      "hit": false,
      "t": 246086.61199999915,
      "d": 644.9266333333508,
      "v": 100
    },
    {
      "midi": 71,
      "hit": false,
      "t": 246086.61199999915,
      "d": 644.9266333333508,
      "v": 100
    },
    {
      "midi": 62,
      "hit": false,
      "t": 246956.17599999916,
      "d": 644.9266333333217,
      "v": 100
    },
    {
      "midi": 67,
      "hit": false,
      "t": 246956.17599999916,
      "d": 644.9266333333217,
      "v": 100
    },
    {
      "midi": 71,
      "hit": false,
      "t": 246956.17599999916,
      "d": 644.9266333333217,
      "v": 100
    },
    {
      "midi": 62,
      "hit": false,
      "t": 247825.73999999915,
      "d": 644.9266333333217,
      "v": 100
    },
    {
      "midi": 67,
      "hit": false,
      "t": 247825.73999999915,
      "d": 644.9266333333217,
      "v": 100
    },
    {
      "midi": 71,
      "hit": false,
      "t": 247825.73999999915,
      "d": 644.9266333333217,
      "v": 100
    },
    {
      "midi": 62,
      "hit": false,
      "t": 248477.91299999913,
      "d": 210.14463333334425,
      "v": 100
    },
    {
      "midi": 67,
      "hit": false,
      "t": 248477.91299999913,
      "d": 210.14463333334425,
      "v": 100
    },
    {
      "midi": 71,
      "hit": false,
      "t": 248477.91299999913,
      "d": 210.14463333334425,
      "v": 100
    },
    {
      "midi": 62,
      "hit": false,
      "t": 248695.30399999913,
      "d": 644.9266333333217,
      "v": 100
    },
    {
      "midi": 66,
      "hit": false,
      "t": 248695.30399999913,
      "d": 644.9266333333217,
      "v": 100
    },
    {
      "midi": 69,
      "hit": false,
      "t": 248695.30399999913,
      "d": 644.9266333333217,
      "v": 100
    },
    {
      "midi": 67,
      "hit": false,
      "t": 249564.8679999991,
      "d": 427.5356333333475,
      "v": 100
    },
    {
      "midi": 71,
      "hit": false,
      "t": 249564.8679999991,
      "d": 427.5356333333475,
      "v": 100
    },
    {
      "midi": 64,
      "hit": false,
      "t": 249564.8679999991,
      "d": 644.9266333333508,
      "v": 100
    },
    {
      "midi": 60,
      "hit": false,
      "t": 250434.43199999913,
      "d": 862.3176333333249,
      "v": 100
    },
    {
      "midi": 64,
      "hit": false,
      "t": 250434.43199999913,
      "d": 862.3176333333249,
      "v": 100
    },
    {
      "midi": 67,
      "hit": false,
      "t": 250434.43199999913,
      "d": 862.3176333333249,
      "v": 100
    },
    {
      "midi": 67,
      "hit": false,
      "t": 251303.9959999991,
      "d": 427.5356333333475,
      "v": 100
    },
    {
      "midi": 60,
      "hit": false,
      "t": 251303.9959999991,
      "d": 644.9266333333508,
      "v": 100
    },
    {
      "midi": 64,
      "hit": false,
      "t": 251303.9959999991,
      "d": 644.9266333333508,
      "v": 100
    },
    {
      "midi": 62,
      "hit": false,
      "t": 252173.55999999912,
      "d": 644.9266333333217,
      "v": 100
    },
    {
      "midi": 67,
      "hit": false,
      "t": 252173.55999999912,
      "d": 644.9266333333217,
      "v": 100
    },
    {
      "midi": 71,
      "hit": false,
      "t": 252173.55999999912,
      "d": 644.9266333333217,
      "v": 100
    },
    {
      "midi": 61,
      "hit": false,
      "t": 253043.1239999991,
      "d": 427.5356333333475,
      "v": 100
    },
    {
      "midi": 64,
      "hit": false,
      "t": 253043.1239999991,
      "d": 427.5356333333475,
      "v": 100
    },
    {
      "midi": 69,
      "hit": false,
      "t": 253043.1239999991,
      "d": 644.9266333333508,
      "v": 100
    },
    {
      "midi": 62,
      "hit": false,
      "t": 253912.68799999912,
      "d": 427.5356333333475,
      "v": 100
    },
    {
      "midi": 67,
      "hit": false,
      "t": 253912.68799999912,
      "d": 427.5356333333475,
      "v": 100
    },
    {
      "midi": 69,
      "hit": false,
      "t": 253912.68799999912,
      "d": 427.5356333333475,
      "v": 100
    },
    {
      "midi": 62,
      "hit": false,
      "t": 254347.46999999913,
      "d": 210.14463333334425,
      "v": 100
    },
    {
      "midi": 67,
      "hit": false,
      "t": 254347.46999999913,
      "d": 210.14463333334425,
      "v": 100
    },
    {
      "midi": 69,
      "hit": false,
      "t": 254347.46999999913,
      "d": 210.14463333334425,
      "v": 100
    },
    {
      "midi": 62,
      "hit": false,
      "t": 254564.86099999913,
      "d": 427.5356333333475,
      "v": 100
    },
    {
      "midi": 67,
      "hit": false,
      "t": 254564.86099999913,
      "d": 427.5356333333475,
      "v": 100
    },
    {
      "midi": 69,
      "hit": false,
      "t": 254564.86099999913,
      "d": 427.5356333333475,
      "v": 100
    },
    {
      "midi": 62,
      "hit": false,
      "t": 254999.64299999914,
      "d": 427.5356333333475,
      "v": 100
    },
    {
      "midi": 67,
      "hit": false,
      "t": 254999.64299999914,
      "d": 427.5356333333475,
      "v": 100
    },
    {
      "midi": 69,
      "hit": false,
      "t": 254999.64299999914,
      "d": 427.5356333333475,
      "v": 100
    },
    {
      "midi": 62,
      "hit": false,
      "t": 255651.81599999915,
      "d": 1731.881633333338,
      "v": 100
    },
    {
      "midi": 66,
      "hit": false,
      "t": 255651.81599999915,
      "d": 1731.881633333338,
      "v": 100
    },
    {
      "midi": 69,
      "hit": false,
      "t": 255651.81599999915,
      "d": 1731.881633333338,
      "v": 100
    },
    {
      "midi": 62,
      "hit": false,
      "t": 257390.94399999914,
      "d": 862.3176333333249,
      "v": 100
    },
    {
      "midi": 67,
      "hit": false,
      "t": 257390.94399999914,
      "d": 862.3176333333249,
      "v": 100
    },
    {
      "midi": 71,
      "hit": false,
      "t": 257390.94399999914,
      "d": 862.3176333333249,
      "v": 100
    },
    {
      "midi": 62,
      "hit": false,
      "t": 258260.50799999913,
      "d": 862.3176333333249,
      "v": 100
    },
    {
      "midi": 67,
      "hit": false,
      "t": 258260.50799999913,
      "d": 862.3176333333249,
      "v": 100
    },
    {
      "midi": 71,
      "hit": false,
      "t": 258260.50799999913,
      "d": 862.3176333333249,
      "v": 100
    },
    {
      "midi": 62,
      "hit": false,
      "t": 259130.0719999991,
      "d": 862.3176333333249,
      "v": 100
    },
    {
      "midi": 67,
      "hit": false,
      "t": 259130.0719999991,
      "d": 862.3176333333249,
      "v": 100
    },
    {
      "midi": 71,
      "hit": false,
      "t": 259130.0719999991,
      "d": 862.3176333333249,
      "v": 100
    },
    {
      "midi": 62,
      "hit": false,
      "t": 259999.6359999991,
      "d": 862.3176333333249,
      "v": 100
    },
    {
      "midi": 66,
      "hit": false,
      "t": 259999.6359999991,
      "d": 862.3176333333249,
      "v": 100
    },
    {
      "midi": 67,
      "hit": false,
      "t": 259999.6359999991,
      "d": 862.3176333333249,
      "v": 100
    },
    {
      "midi": 71,
      "hit": false,
      "t": 259999.6359999991,
      "d": 862.3176333333249,
      "v": 100
    },
    {
      "midi": 64,
      "hit": false,
      "t": 260869.19999999908,
      "d": 862.3176333333249,
      "v": 100
    },
    {
      "midi": 67,
      "hit": false,
      "t": 260869.19999999908,
      "d": 862.3176333333249,
      "v": 100
    },
    {
      "midi": 71,
      "hit": false,
      "t": 260869.19999999908,
      "d": 862.3176333333249,
      "v": 100
    },
    {
      "midi": 64,
      "hit": false,
      "t": 261738.76399999906,
      "d": 862.317633333354,
      "v": 100
    },
    {
      "midi": 67,
      "hit": false,
      "t": 261738.76399999906,
      "d": 862.317633333354,
      "v": 100
    },
    {
      "midi": 71,
      "hit": false,
      "t": 261738.76399999906,
      "d": 862.317633333354,
      "v": 100
    },
    {
      "midi": 62,
      "hit": false,
      "t": 262608.3279999991,
      "d": 862.3176333333249,
      "v": 100
    },
    {
      "midi": 67,
      "hit": false,
      "t": 262608.3279999991,
      "d": 862.3176333333249,
      "v": 100
    },
    {
      "midi": 71,
      "hit": false,
      "t": 262608.3279999991,
      "d": 862.3176333333249,
      "v": 100
    },
    {
      "midi": 62,
      "hit": false,
      "t": 263477.8919999991,
      "d": 862.3176333333249,
      "v": 100
    },
    {
      "midi": 67,
      "hit": false,
      "t": 263477.8919999991,
      "d": 862.3176333333249,
      "v": 100
    },
    {
      "midi": 71,
      "hit": false,
      "t": 263477.8919999991,
      "d": 862.3176333333249,
      "v": 100
    },
    {
      "midi": 60,
      "hit": false,
      "t": 264347.45599999913,
      "d": 862.3176333333249,
      "v": 100
    },
    {
      "midi": 64,
      "hit": false,
      "t": 264347.45599999913,
      "d": 862.3176333333249,
      "v": 100
    },
    {
      "midi": 67,
      "hit": false,
      "t": 264347.45599999913,
      "d": 862.3176333333249,
      "v": 100
    },
    {
      "midi": 60,
      "hit": false,
      "t": 265217.01999999915,
      "d": 862.3176333333249,
      "v": 100
    },
    {
      "midi": 64,
      "hit": false,
      "t": 265217.01999999915,
      "d": 862.3176333333249,
      "v": 100
    },
    {
      "midi": 67,
      "hit": false,
      "t": 265217.01999999915,
      "d": 862.3176333333249,
      "v": 100
    },
    {
      "midi": 59,
      "hit": false,
      "t": 266086.58399999916,
      "d": 862.3176333333249,
      "v": 100
    },
    {
      "midi": 64,
      "hit": false,
      "t": 266086.58399999916,
      "d": 862.3176333333249,
      "v": 100
    },
    {
      "midi": 67,
      "hit": false,
      "t": 266086.58399999916,
      "d": 862.3176333333249,
      "v": 100
    },
    {
      "midi": 59,
      "hit": false,
      "t": 266956.1479999992,
      "d": 862.3176333333249,
      "v": 100
    },
    {
      "midi": 64,
      "hit": false,
      "t": 266956.1479999992,
      "d": 862.3176333333249,
      "v": 100
    },
    {
      "midi": 67,
      "hit": false,
      "t": 266956.1479999992,
      "d": 862.3176333333249,
      "v": 100
    },
    {
      "midi": 62,
      "hit": false,
      "t": 267825.7119999992,
      "d": 862.3176333333249,
      "v": 100
    },
    {
      "midi": 67,
      "hit": false,
      "t": 267825.7119999992,
      "d": 862.3176333333249,
      "v": 100
    },
    {
      "midi": 69,
      "hit": false,
      "t": 267825.7119999992,
      "d": 862.3176333333249,
      "v": 100
    },
    {
      "midi": 71,
      "hit": false,
      "t": 267825.7119999992,
      "d": 862.3176333333249,
      "v": 100
    },
    {
      "midi": 62,
      "hit": false,
      "t": 268695.2759999992,
      "d": 862.3176333333249,
      "v": 100
    },
    {
      "midi": 67,
      "hit": false,
      "t": 268695.2759999992,
      "d": 862.3176333333249,
      "v": 100
    },
    {
      "midi": 69,
      "hit": false,
      "t": 268695.2759999992,
      "d": 862.3176333333249,
      "v": 100
    },
    {
      "midi": 62,
      "hit": false,
      "t": 269564.8399999992,
      "d": 862.3176333333249,
      "v": 100
    },
    {
      "midi": 66,
      "hit": false,
      "t": 269564.8399999992,
      "d": 862.3176333333249,
      "v": 100
    },
    {
      "midi": 69,
      "hit": false,
      "t": 269564.8399999992,
      "d": 862.3176333333249,
      "v": 100
    },
    {
      "midi": 62,
      "hit": false,
      "t": 270434.4039999992,
      "d": 862.3176333333249,
      "v": 100
    },
    {
      "midi": 66,
      "hit": false,
      "t": 270434.4039999992,
      "d": 862.3176333333249,
      "v": 100
    },
    {
      "midi": 69,
      "hit": false,
      "t": 270434.4039999992,
      "d": 862.3176333333249,
      "v": 100
    },
    {
      "midi": 62,
      "hit": false,
      "t": 271303.96799999924,
      "d": 862.3176333333249,
      "v": 100
    },
    {
      "midi": 67,
      "hit": false,
      "t": 271303.96799999924,
      "d": 862.3176333333249,
      "v": 100
    },
    {
      "midi": 71,
      "hit": false,
      "t": 271303.96799999924,
      "d": 862.3176333333249,
      "v": 100
    },
    {
      "midi": 62,
      "hit": false,
      "t": 272173.53199999925,
      "d": 862.3176333333249,
      "v": 100
    },
    {
      "midi": 67,
      "hit": false,
      "t": 272173.53199999925,
      "d": 862.3176333333249,
      "v": 100
    },
    {
      "midi": 71,
      "hit": false,
      "t": 272173.53199999925,
      "d": 862.3176333333249,
      "v": 100
    },
    {
      "midi": 62,
      "hit": false,
      "t": 273043.09599999926,
      "d": 862.3176333333249,
      "v": 100
    },
    {
      "midi": 66,
      "hit": false,
      "t": 273043.09599999926,
      "d": 862.3176333333249,
      "v": 100
    },
    {
      "midi": 70,
      "hit": false,
      "t": 273043.09599999926,
      "d": 862.3176333333249,
      "v": 100
    },
    {
      "midi": 71,
      "hit": false,
      "t": 273043.09599999926,
      "d": 862.3176333333249,
      "v": 100
    },
    {
      "midi": 62,
      "hit": false,
      "t": 273912.6599999993,
      "d": 862.3176333333249,
      "v": 100
    },
    {
      "midi": 66,
      "hit": false,
      "t": 273912.6599999993,
      "d": 862.3176333333249,
      "v": 100
    },
    {
      "midi": 71,
      "hit": false,
      "t": 273912.6599999993,
      "d": 862.3176333333249,
      "v": 100
    },
    {
      "midi": 64,
      "hit": false,
      "t": 274782.2239999993,
      "d": 862.3176333333249,
      "v": 100
    },
    {
      "midi": 67,
      "hit": false,
      "t": 274782.2239999993,
      "d": 862.3176333333249,
      "v": 100
    },
    {
      "midi": 71,
      "hit": false,
      "t": 274782.2239999993,
      "d": 862.3176333333249,
      "v": 100
    },
    {
      "midi": 64,
      "hit": false,
      "t": 275651.7879999993,
      "d": 862.3176333333249,
      "v": 100
    },
    {
      "midi": 67,
      "hit": false,
      "t": 275651.7879999993,
      "d": 862.3176333333249,
      "v": 100
    },
    {
      "midi": 71,
      "hit": false,
      "t": 275651.7879999993,
      "d": 862.3176333333249,
      "v": 100
    },
    {
      "midi": 62,
      "hit": false,
      "t": 276521.3519999993,
      "d": 862.3176333333249,
      "v": 100
    },
    {
      "midi": 67,
      "hit": false,
      "t": 276521.3519999993,
      "d": 862.3176333333249,
      "v": 100
    },
    {
      "midi": 71,
      "hit": false,
      "t": 276521.3519999993,
      "d": 862.3176333333249,
      "v": 100
    },
    {
      "midi": 62,
      "hit": false,
      "t": 277390.9159999993,
      "d": 862.3176333333249,
      "v": 100
    },
    {
      "midi": 67,
      "hit": false,
      "t": 277390.9159999993,
      "d": 862.3176333333249,
      "v": 100
    },
    {
      "midi": 71,
      "hit": false,
      "t": 277390.9159999993,
      "d": 862.3176333333249,
      "v": 100
    },
    {
      "midi": 60,
      "hit": false,
      "t": 278260.47999999934,
      "d": 862.3176333333249,
      "v": 100
    },
    {
      "midi": 64,
      "hit": false,
      "t": 278260.47999999934,
      "d": 862.3176333333249,
      "v": 100
    },
    {
      "midi": 67,
      "hit": false,
      "t": 278260.47999999934,
      "d": 862.3176333333249,
      "v": 100
    },
    {
      "midi": 60,
      "hit": false,
      "t": 279130.04399999935,
      "d": 862.3176333333249,
      "v": 100
    },
    {
      "midi": 64,
      "hit": false,
      "t": 279130.04399999935,
      "d": 862.3176333333249,
      "v": 100
    },
    {
      "midi": 67,
      "hit": false,
      "t": 279130.04399999935,
      "d": 862.3176333333249,
      "v": 100
    },
    {
      "midi": 62,
      "hit": false,
      "t": 279999.60799999937,
      "d": 862.3176333333249,
      "v": 100
    },
    {
      "midi": 66,
      "hit": false,
      "t": 279999.60799999937,
      "d": 862.3176333333249,
      "v": 100
    },
    {
      "midi": 69,
      "hit": false,
      "t": 279999.60799999937,
      "d": 862.3176333333249,
      "v": 100
    },
    {
      "midi": 62,
      "hit": false,
      "t": 280869.1719999994,
      "d": 862.3176333333249,
      "v": 100
    },
    {
      "midi": 66,
      "hit": false,
      "t": 280869.1719999994,
      "d": 862.3176333333249,
      "v": 100
    },
    {
      "midi": 69,
      "hit": false,
      "t": 280869.1719999994,
      "d": 862.3176333333249,
      "v": 100
    },
    {
      "midi": 62,
      "hit": false,
      "t": 281738.7359999994,
      "d": 862.3176333333249,
      "v": 100
    },
    {
      "midi": 67,
      "hit": false,
      "t": 281738.7359999994,
      "d": 862.3176333333249,
      "v": 100
    },
    {
      "midi": 71,
      "hit": false,
      "t": 281738.7359999994,
      "d": 862.3176333333249,
      "v": 100
    },
    {
      "midi": 62,
      "hit": false,
      "t": 282608.2999999994,
      "d": 862.3176333333249,
      "v": 100
    },
    {
      "midi": 67,
      "hit": false,
      "t": 282608.2999999994,
      "d": 862.3176333333249,
      "v": 100
    },
    {
      "midi": 71,
      "hit": false,
      "t": 282608.2999999994,
      "d": 862.3176333333249,
      "v": 100
    },
    {
      "midi": 62,
      "hit": false,
      "t": 283477.8639999994,
      "d": 862.3176333333249,
      "v": 100
    },
    {
      "midi": 67,
      "hit": false,
      "t": 283477.8639999994,
      "d": 862.3176333333249,
      "v": 100
    },
    {
      "midi": 71,
      "hit": false,
      "t": 283477.8639999994,
      "d": 862.3176333333249,
      "v": 100
    },
    {
      "midi": 67,
      "hit": false,
      "t": 284347.42799999943,
      "d": 862.3176333333249,
      "v": 100
    },
    {
      "midi": 62,
      "hit": false,
      "t": 284564.81899999944,
      "d": 644.9266333333217,
      "v": 100
    },
    {
      "midi": 71,
      "hit": false,
      "t": 284564.81899999944,
      "d": 644.9266333333217,
      "v": 100
    },
    {
      "midi": 66,
      "hit": false,
      "t": 284564.81899999944,
      "d": 862.3176333333249,
      "v": 100
    },
    {
      "midi": 62,
      "hit": false,
      "t": 285216.99199999945,
      "d": 210.14463333331514,
      "v": 100
    },
    {
      "midi": 71,
      "hit": false,
      "t": 285216.99199999945,
      "d": 210.14463333331514,
      "v": 100
    },
    {
      "midi": 67,
      "hit": false,
      "t": 285216.99199999945,
      "d": 862.3176333333249,
      "v": 100
    },
    {
      "midi": 62,
      "hit": false,
      "t": 286086.55599999946,
      "d": 862.3176333333249,
      "v": 100
    },
    {
      "midi": 67,
      "hit": false,
      "t": 286086.55599999946,
      "d": 862.3176333333249,
      "v": 100
    },
    {
      "midi": 71,
      "hit": false,
      "t": 286086.55599999946,
      "d": 862.3176333333249,
      "v": 100
    },
    {
      "midi": 62,
      "hit": false,
      "t": 286956.1199999995,
      "d": 862.3176333333249,
      "v": 100
    },
    {
      "midi": 67,
      "hit": false,
      "t": 286956.1199999995,
      "d": 862.3176333333249,
      "v": 100
    },
    {
      "midi": 71,
      "hit": false,
      "t": 286956.1199999995,
      "d": 862.3176333333249,
      "v": 100
    },
    {
      "midi": 62,
      "hit": false,
      "t": 287825.6839999995,
      "d": 862.3176333333249,
      "v": 100
    },
    {
      "midi": 66,
      "hit": false,
      "t": 287825.6839999995,
      "d": 862.3176333333249,
      "v": 100
    },
    {
      "midi": 67,
      "hit": false,
      "t": 287825.6839999995,
      "d": 862.3176333333249,
      "v": 100
    },
    {
      "midi": 71,
      "hit": false,
      "t": 287825.6839999995,
      "d": 862.3176333333249,
      "v": 100
    },
    {
      "midi": 64,
      "hit": false,
      "t": 288695.2479999995,
      "d": 862.3176333333249,
      "v": 100
    },
    {
      "midi": 67,
      "hit": false,
      "t": 288695.2479999995,
      "d": 862.3176333333249,
      "v": 100
    },
    {
      "midi": 71,
      "hit": false,
      "t": 288695.2479999995,
      "d": 862.3176333333249,
      "v": 100
    },
    {
      "midi": 64,
      "hit": false,
      "t": 289564.8119999995,
      "d": 862.3176333333249,
      "v": 100
    },
    {
      "midi": 67,
      "hit": false,
      "t": 289564.8119999995,
      "d": 862.3176333333249,
      "v": 100
    },
    {
      "midi": 71,
      "hit": false,
      "t": 289564.8119999995,
      "d": 862.3176333333249,
      "v": 100
    },
    {
      "midi": 62,
      "hit": false,
      "t": 290434.3759999995,
      "d": 862.3176333333249,
      "v": 100
    },
    {
      "midi": 67,
      "hit": false,
      "t": 290434.3759999995,
      "d": 862.3176333333249,
      "v": 100
    },
    {
      "midi": 71,
      "hit": false,
      "t": 290434.3759999995,
      "d": 862.3176333333249,
      "v": 100
    },
    {
      "midi": 62,
      "hit": false,
      "t": 291303.93999999954,
      "d": 862.3176333333249,
      "v": 100
    },
    {
      "midi": 67,
      "hit": false,
      "t": 291303.93999999954,
      "d": 862.3176333333249,
      "v": 100
    },
    {
      "midi": 71,
      "hit": false,
      "t": 291303.93999999954,
      "d": 862.3176333333249,
      "v": 100
    },
    {
      "midi": 60,
      "hit": false,
      "t": 292173.50399999955,
      "d": 862.3176333333249,
      "v": 100
    },
    {
      "midi": 64,
      "hit": false,
      "t": 292173.50399999955,
      "d": 862.3176333333249,
      "v": 100
    },
    {
      "midi": 67,
      "hit": false,
      "t": 292173.50399999955,
      "d": 862.3176333333249,
      "v": 100
    },
    {
      "midi": 60,
      "hit": false,
      "t": 293043.06799999956,
      "d": 862.3176333333249,
      "v": 100
    },
    {
      "midi": 64,
      "hit": false,
      "t": 293043.06799999956,
      "d": 862.3176333333249,
      "v": 100
    },
    {
      "midi": 67,
      "hit": false,
      "t": 293043.06799999956,
      "d": 862.3176333333249,
      "v": 100
    },
    {
      "midi": 59,
      "hit": false,
      "t": 293912.6319999996,
      "d": 862.3176333333249,
      "v": 100
    },
    {
      "midi": 64,
      "hit": false,
      "t": 293912.6319999996,
      "d": 862.3176333333249,
      "v": 100
    },
    {
      "midi": 67,
      "hit": false,
      "t": 293912.6319999996,
      "d": 862.3176333333249,
      "v": 100
    },
    {
      "midi": 59,
      "hit": false,
      "t": 294782.1959999996,
      "d": 862.3176333333249,
      "v": 100
    },
    {
      "midi": 64,
      "hit": false,
      "t": 294782.1959999996,
      "d": 862.3176333333249,
      "v": 100
    },
    {
      "midi": 67,
      "hit": false,
      "t": 294782.1959999996,
      "d": 862.3176333333249,
      "v": 100
    },
    {
      "midi": 62,
      "hit": false,
      "t": 295651.7599999996,
      "d": 862.3176333333249,
      "v": 100
    },
    {
      "midi": 67,
      "hit": false,
      "t": 295651.7599999996,
      "d": 862.3176333333249,
      "v": 100
    },
    {
      "midi": 69,
      "hit": false,
      "t": 295651.7599999996,
      "d": 862.3176333333249,
      "v": 100
    },
    {
      "midi": 71,
      "hit": false,
      "t": 295651.7599999996,
      "d": 862.3176333333249,
      "v": 100
    },
    {
      "midi": 62,
      "hit": false,
      "t": 296521.3239999996,
      "d": 862.3176333333249,
      "v": 100
    },
    {
      "midi": 67,
      "hit": false,
      "t": 296521.3239999996,
      "d": 862.3176333333249,
      "v": 100
    },
    {
      "midi": 69,
      "hit": false,
      "t": 296521.3239999996,
      "d": 862.3176333333249,
      "v": 100
    },
    {
      "midi": 62,
      "hit": false,
      "t": 297390.8879999996,
      "d": 862.3176333333249,
      "v": 100
    },
    {
      "midi": 66,
      "hit": false,
      "t": 297390.8879999996,
      "d": 862.3176333333249,
      "v": 100
    },
    {
      "midi": 69,
      "hit": false,
      "t": 297390.8879999996,
      "d": 862.3176333333249,
      "v": 100
    },
    {
      "midi": 62,
      "hit": false,
      "t": 298260.45199999964,
      "d": 862.3176333333249,
      "v": 100
    },
    {
      "midi": 66,
      "hit": false,
      "t": 298260.45199999964,
      "d": 862.3176333333249,
      "v": 100
    },
    {
      "midi": 69,
      "hit": false,
      "t": 298260.45199999964,
      "d": 862.3176333333249,
      "v": 100
    },
    {
      "midi": 62,
      "hit": false,
      "t": 299130.01599999965,
      "d": 862.3176333333249,
      "v": 100
    },
    {
      "midi": 67,
      "hit": false,
      "t": 299130.01599999965,
      "d": 862.3176333333249,
      "v": 100
    },
    {
      "midi": 71,
      "hit": false,
      "t": 299130.01599999965,
      "d": 862.3176333333249,
      "v": 100
    },
    {
      "midi": 62,
      "hit": false,
      "t": 299999.57999999967,
      "d": 862.3176333333249,
      "v": 100
    },
    {
      "midi": 67,
      "hit": false,
      "t": 299999.57999999967,
      "d": 862.3176333333249,
      "v": 100
    },
    {
      "midi": 71,
      "hit": false,
      "t": 299999.57999999967,
      "d": 862.3176333333249,
      "v": 100
    },
    {
      "midi": 62,
      "hit": false,
      "t": 300869.1439999997,
      "d": 862.3176333333249,
      "v": 100
    },
    {
      "midi": 66,
      "hit": false,
      "t": 300869.1439999997,
      "d": 862.3176333333249,
      "v": 100
    },
    {
      "midi": 70,
      "hit": false,
      "t": 300869.1439999997,
      "d": 862.3176333333249,
      "v": 100
    },
    {
      "midi": 71,
      "hit": false,
      "t": 300869.1439999997,
      "d": 862.3176333333249,
      "v": 100
    },
    {
      "midi": 62,
      "hit": false,
      "t": 301738.7079999997,
      "d": 862.3176333333249,
      "v": 100
    },
    {
      "midi": 66,
      "hit": false,
      "t": 301738.7079999997,
      "d": 862.3176333333249,
      "v": 100
    },
    {
      "midi": 71,
      "hit": false,
      "t": 301738.7079999997,
      "d": 862.3176333333249,
      "v": 100
    },
    {
      "midi": 64,
      "hit": false,
      "t": 302608.2719999997,
      "d": 862.3176333333249,
      "v": 100
    },
    {
      "midi": 67,
      "hit": false,
      "t": 302608.2719999997,
      "d": 862.3176333333249,
      "v": 100
    },
    {
      "midi": 71,
      "hit": false,
      "t": 302608.2719999997,
      "d": 862.3176333333249,
      "v": 100
    },
    {
      "midi": 64,
      "hit": false,
      "t": 303477.8359999997,
      "d": 862.3176333333249,
      "v": 100
    },
    {
      "midi": 67,
      "hit": false,
      "t": 303477.8359999997,
      "d": 862.3176333333249,
      "v": 100
    },
    {
      "midi": 71,
      "hit": false,
      "t": 303477.8359999997,
      "d": 862.3176333333249,
      "v": 100
    },
    {
      "midi": 62,
      "hit": false,
      "t": 304347.39999999973,
      "d": 862.3176333333249,
      "v": 100
    },
    {
      "midi": 67,
      "hit": false,
      "t": 304347.39999999973,
      "d": 862.3176333333249,
      "v": 100
    },
    {
      "midi": 71,
      "hit": false,
      "t": 304347.39999999973,
      "d": 862.3176333333249,
      "v": 100
    },
    {
      "midi": 62,
      "hit": false,
      "t": 305216.96399999975,
      "d": 862.3176333333249,
      "v": 100
    },
    {
      "midi": 67,
      "hit": false,
      "t": 305216.96399999975,
      "d": 862.3176333333249,
      "v": 100
    },
    {
      "midi": 71,
      "hit": false,
      "t": 305216.96399999975,
      "d": 862.3176333333249,
      "v": 100
    },
    {
      "midi": 60,
      "hit": false,
      "t": 306086.52799999976,
      "d": 862.3176333333249,
      "v": 105
    },
    {
      "midi": 64,
      "hit": false,
      "t": 306086.52799999976,
      "d": 862.3176333333249,
      "v": 105
    },
    {
      "midi": 67,
      "hit": false,
      "t": 306086.52799999976,
      "d": 862.3176333333249,
      "v": 105
    },
    {
      "midi": 60,
      "hit": false,
      "t": 306956.0919999998,
      "d": 862.3176333333249,
      "v": 105
    },
    {
      "midi": 64,
      "hit": false,
      "t": 306956.0919999998,
      "d": 862.3176333333249,
      "v": 105
    },
    {
      "midi": 67,
      "hit": false,
      "t": 306956.0919999998,
      "d": 862.3176333333249,
      "v": 105
    },
    {
      "midi": 62,
      "hit": false,
      "t": 307825.6559999998,
      "d": 862.3176333333249,
      "v": 105
    },
    {
      "midi": 66,
      "hit": false,
      "t": 307825.6559999998,
      "d": 862.3176333333249,
      "v": 105
    },
    {
      "midi": 69,
      "hit": false,
      "t": 307825.6559999998,
      "d": 862.3176333333249,
      "v": 105
    },
    {
      "midi": 62,
      "hit": false,
      "t": 308695.2199999998,
      "d": 862.3176333333249,
      "v": 105
    },
    {
      "midi": 66,
      "hit": false,
      "t": 308695.2199999998,
      "d": 862.3176333333249,
      "v": 105
    },
    {
      "midi": 69,
      "hit": false,
      "t": 308695.2199999998,
      "d": 862.3176333333249,
      "v": 105
    },
    {
      "midi": 62,
      "hit": false,
      "t": 309564.7839999998,
      "d": 862.3176333333249,
      "v": 105
    },
    {
      "midi": 67,
      "hit": false,
      "t": 309564.7839999998,
      "d": 862.3176333333249,
      "v": 105
    },
    {
      "midi": 71,
      "hit": false,
      "t": 309564.7839999998,
      "d": 862.3176333333249,
      "v": 105
    },
    {
      "midi": 62,
      "hit": false,
      "t": 310434.3479999998,
      "d": 862.3176333333249,
      "v": 105
    },
    {
      "midi": 67,
      "hit": false,
      "t": 310434.3479999998,
      "d": 862.3176333333249,
      "v": 105
    },
    {
      "midi": 71,
      "hit": false,
      "t": 310434.3479999998,
      "d": 862.3176333333249,
      "v": 105
    },
    {
      "midi": 62,
      "hit": false,
      "t": 311303.91199999984,
      "d": 1731.881633333338,
      "v": 105
    },
    {
      "midi": 67,
      "hit": false,
      "t": 311303.91199999984,
      "d": 1731.881633333338,
      "v": 105
    },
    {
      "midi": 71,
      "hit": false,
      "t": 311303.91199999984,
      "d": 1731.881633333338,
      "v": 105
    },
    {
      "midi": 60,
      "hit": false,
      "t": 314564.7769999999,
      "d": 210.14463333331514,
      "v": 105
    },
    {
      "midi": 64,
      "hit": false,
      "t": 314564.7769999999,
      "d": 210.14463333331514,
      "v": 105
    },
    {
      "midi": 67,
      "hit": false,
      "t": 314564.7769999999,
      "d": 210.14463333331514,
      "v": 105
    },
    {
      "midi": 62,
      "hit": false,
      "t": 316303.90499999985,
      "d": 1731.881633333338,
      "v": 105
    },
    {
      "midi": 66,
      "hit": false,
      "t": 316303.90499999985,
      "d": 1731.881633333338,
      "v": 105
    },
    {
      "midi": 69,
      "hit": false,
      "t": 316303.90499999985,
      "d": 1731.881633333338,
      "v": 105
    },
    {
      "midi": 55,
      "hit": false,
      "t": 319999.55199999985,
      "d": 1731.881633333338,
      "v": 100
    },
    {
      "midi": 59,
      "hit": false,
      "t": 319999.55199999985,
      "d": 1731.881633333338,
      "v": 100
    },
    {
      "midi": 62,
      "hit": false,
      "t": 320434.33399999986,
      "d": 427.5356333333184,
      "v": 100
    },
    {
      "midi": 67,
      "hit": false,
      "t": 320869.11599999986,
      "d": 427.5356333333184,
      "v": 100
    },
    {
      "midi": 71,
      "hit": false,
      "t": 321303.89799999987,
      "d": 427.5356333333184,
      "v": 100
    },
    {
      "midi": 74,
      "hit": false,
      "t": 321738.6799999999,
      "d": 862.3176333333249,
      "v": 100
    },
    {
      "midi": 54,
      "hit": false,
      "t": 321738.6799999999,
      "d": 1731.881633333338,
      "v": 100
    },
    {
      "midi": 59,
      "hit": false,
      "t": 321738.6799999999,
      "d": 1731.881633333338,
      "v": 100
    },
    {
      "midi": 71,
      "hit": false,
      "t": 322173.4619999999,
      "d": 862.3176333333249,
      "v": 100
    },
    {
      "midi": 67,
      "hit": false,
      "t": 322608.2439999999,
      "d": 862.3176333333249,
      "v": 100
    },
    {
      "midi": 52,
      "hit": false,
      "t": 323477.8079999999,
      "d": 1434.7806000000564,
      "v": 100
    },
    {
      "midi": 55,
      "hit": false,
      "t": 323477.8079999999,
      "d": 1673.9107000000658,
      "v": 100
    },
    {
      "midi": 59,
      "hit": false,
      "t": 323477.8079999999,
      "d": 1695.649800000072,
      "v": 100
    },
    {
      "midi": 67,
      "hit": false,
      "t": 323912.5899999999,
      "d": 492.75293333333684,
      "v": 100
    },
    {
      "midi": 64,
      "hit": false,
      "t": 324347.3719999999,
      "d": 536.2311333333491,
      "v": 100
    },
    {
      "midi": 67,
      "hit": false,
      "t": 324782.1539999999,
      "d": 326.086500000034,
      "v": 100
    },
    {
      "midi": 69,
      "hit": false,
      "t": 325216.936,
      "d": 413.0429000000004,
      "v": 100
    },
    {
      "midi": 55,
      "hit": false,
      "t": 325216.936,
      "d": 1333.3314666666556,
      "v": 100
    },
    {
      "midi": 59,
      "hit": false,
      "t": 325216.936,
      "d": 1347.8241999999736,
      "v": 100
    },
    {
      "midi": 50,
      "hit": false,
      "t": 325216.936,
      "d": 1355.0705666666618,
      "v": 100
    },
    {
      "midi": 64,
      "hit": false,
      "t": 325651.718,
      "d": 847.8249000000069,
      "v": 100
    },
    {
      "midi": 67,
      "hit": false,
      "t": 326086.5,
      "d": 427.5356333333184,
      "v": 100
    },
    {
      "midi": 52,
      "hit": false,
      "t": 326956.06399999995,
      "d": 1710.1425333333318,
      "v": 100
    },
    {
      "midi": 48,
      "hit": false,
      "t": 326956.06399999995,
      "d": 1724.6352666666498,
      "v": 100
    },
    {
      "midi": 60,
      "hit": false,
      "t": 327825.62799999997,
      "d": 913.0421999999089,
      "v": 100
    },
    {
      "midi": 64,
      "hit": false,
      "t": 328043.019,
      "d": 681.1584666665876,
      "v": 100
    },
    {
      "midi": 67,
      "hit": false,
      "t": 328477.801,
      "d": 304.34739999991143,
      "v": 100
    },
    {
      "midi": 55,
      "hit": false,
      "t": 328695.1919999999,
      "d": 14.492733333318029,
      "v": 100
    },
    {
      "midi": 52,
      "hit": false,
      "t": 328695.1919999999,
      "d": 644.9266333332635,
      "v": 100
    },
    {
      "midi": 59,
      "hit": false,
      "t": 329129.9739999999,
      "d": 210.14463333331514,
      "v": 100
    },
    {
      "midi": 59,
      "hit": false,
      "t": 329347.3649999999,
      "d": 210.14463333331514,
      "v": 100
    },
    {
      "midi": 52,
      "hit": false,
      "t": 329347.3649999999,
      "d": 1731.881633333338,
      "v": 100
    },
    {
      "midi": 55,
      "hit": false,
      "t": 329347.3649999999,
      "d": 1731.881633333338,
      "v": 100
    },
    {
      "midi": 60,
      "hit": false,
      "t": 329782.1469999999,
      "d": 427.5356333333184,
      "v": 100
    },
    {
      "midi": 64,
      "hit": false,
      "t": 329999.5379999999,
      "d": 427.5356333333184,
      "v": 100
    },
    {
      "midi": 67,
      "hit": false,
      "t": 330216.9289999999,
      "d": 427.5356333333184,
      "v": 100
    },
    {
      "midi": 50,
      "hit": false,
      "t": 330434.3199999999,
      "d": 1731.881633333338,
      "v": 100
    },
    {
      "midi": 54,
      "hit": false,
      "t": 330434.3199999999,
      "d": 1731.881633333338,
      "v": 100
    },
    {
      "midi": 57,
      "hit": false,
      "t": 330869.1019999999,
      "d": 427.5356333333184,
      "v": 100
    },
    {
      "midi": 60,
      "hit": false,
      "t": 331303.8839999999,
      "d": 427.5356333333184,
      "v": 100
    },
    {
      "midi": 62,
      "hit": false,
      "t": 331738.6659999999,
      "d": 427.5356333333184,
      "v": 100
    },
    {
      "midi": 62,
      "hit": false,
      "t": 332173.4479999999,
      "d": 862.3176333333249,
      "v": 100
    },
    {
      "midi": 67,
      "hit": false,
      "t": 332173.4479999999,
      "d": 862.3176333333249,
      "v": 100
    },
    {
      "midi": 69,
      "hit": false,
      "t": 332173.4479999999,
      "d": 862.3176333333249,
      "v": 100
    },
    {
      "midi": 62,
      "hit": false,
      "t": 333043.01199999993,
      "d": 862.3176333333249,
      "v": 100
    },
    {
      "midi": 66,
      "hit": false,
      "t": 333043.01199999993,
      "d": 862.3176333333249,
      "v": 100
    },
    {
      "midi": 69,
      "hit": false,
      "t": 333043.01199999993,
      "d": 862.3176333333249,
      "v": 100
    },
    {
      "midi": 55,
      "hit": false,
      "t": 333912.57599999994,
      "d": 3471.009633333306,
      "v": 100
    },
    {
      "midi": 57,
      "hit": false,
      "t": 333985.0396666666,
      "d": 3471.009633333306,
      "v": 100
    },
    {
      "midi": 62,
      "hit": false,
      "t": 334057.50333333324,
      "d": 3471.009633333306,
      "v": 100
    },
    {
      "midi": 67,
      "hit": false,
      "t": 334129.9669999999,
      "d": 3471.009633333306,
      "v": 100
    }
  ]
}