{
  "jsonPath": "Rock/Neo-Progressive/I Collage/donna-musica.json",
  "path": "Rock\\Neo-Progressive\\I Collage\\Donna Musica.mid",
  "name": "Donna Musica",
  "difficulty": "Intermediate",
  "bpm": 107.01119515453308,
  "notes": [
    {
      "midi": 40,
      "hit": false,
      "t": 2242.7560000000008,
      "d": 4475.291106770834,
      "v": 96
    },
    {
      "midi": 47,
      "hit": false,
      "t": 2523.100500000001,
      "d": 4209.5478828125015,
      "v": 88
    },
    {
      "midi": 52,
      "hit": false,
      "t": 2803.445000000001,
      "d": 3933.583765625001,
      "v": 94
    },
    {
      "midi": 54,
      "hit": false,
      "t": 3083.789500000001,
      "d": 560.6889999999999,
      "v": 89
    },
    {
      "midi": 59,
      "hit": false,
      "t": 3644.478500000001,
      "d": 350.43062499999996,
      "v": 89
    },
    {
      "midi": 56,
      "hit": false,
      "t": 3924.8230000000012,
      "d": 2784.4633411458335,
      "v": 96
    },
    {
      "midi": 40,
      "hit": false,
      "t": 6722.427489583335,
      "d": 4476.751234375,
      "v": 96
    },
    {
      "midi": 47,
      "hit": false,
      "t": 7008.612500000002,
      "d": 4209.547882812501,
      "v": 88
    },
    {
      "midi": 52,
      "hit": false,
      "t": 7288.957000000002,
      "d": 3933.5837656250005,
      "v": 94
    },
    {
      "midi": 54,
      "hit": false,
      "t": 7569.301500000002,
      "d": 560.6890000000003,
      "v": 89
    },
    {
      "midi": 59,
      "hit": false,
      "t": 8129.990500000003,
      "d": 350.43062499999996,
      "v": 89
    },
    {
      "midi": 56,
      "hit": false,
      "t": 8410.335000000003,
      "d": 2784.4633411458326,
      "v": 96
    },
    {
      "midi": 59,
      "hit": false,
      "t": 29160.208382812503,
      "d": 4088.3572916666744,
      "v": 111
    },
    {
      "midi": 66,
      "hit": false,
      "t": 30001.241882812505,
      "d": 3256.0845572916696,
      "v": 113
    },
    {
      "midi": 68,
      "hit": false,
      "t": 30285.966765625006,
      "d": 2958.21852604167,
      "v": 101
    },
    {
      "midi": 60,
      "hit": false,
      "t": 33641.34000000001,
      "d": 4443.16829947917,
      "v": 111
    },
    {
      "midi": 64,
      "hit": false,
      "t": 35317.56648958335,
      "d": 2785.9234687499993,
      "v": 111
    },
    {
      "midi": 66,
      "hit": false,
      "t": 35603.75150000001,
      "d": 2476.376416666666,
      "v": 113
    },
    {
      "midi": 61,
      "hit": false,
      "t": 38126.85200000001,
      "d": 4078.1363984374984,
      "v": 109
    },
    {
      "midi": 66,
      "hit": false,
      "t": 38967.88550000001,
      "d": 3466.342932291671,
      "v": 111
    },
    {
      "midi": 68,
      "hit": false,
      "t": 39252.61038281251,
      "d": 3185.9984322916716,
      "v": 99
    },
    {
      "midi": 60,
      "hit": false,
      "t": 42606.52348958335,
      "d": 4411.045492187499,
      "v": 95
    },
    {
      "midi": 66,
      "hit": false,
      "t": 44849.27948958335,
      "d": 2187.271151041663,
      "v": 99
    },
    {
      "midi": 59,
      "hit": false,
      "t": 47102.25638281251,
      "d": 714.0023984375002,
      "v": 90
    },
    {
      "midi": 61,
      "hit": false,
      "t": 47102.25638281251,
      "d": 747.5853333333362,
      "v": 113
    },
    {
      "midi": 64,
      "hit": false,
      "t": 47102.25638281251,
      "d": 756.3460989583327,
      "v": 99
    },
    {
      "midi": 68,
      "hit": false,
      "t": 47102.25638281251,
      "d": 784.0885234375019,
      "v": 101
    },
    {
      "midi": 49,
      "hit": false,
      "t": 47227.827356770846,
      "d": 2125.9457916666724,
      "v": 80
    },
    {
      "midi": 61,
      "hit": false,
      "t": 47943.28988281252,
      "d": 1238.188208333333,
      "v": 87
    },
    {
      "midi": 64,
      "hit": false,
      "t": 47943.28988281252,
      "d": 1238.188208333333,
      "v": 70
    },
    {
      "midi": 59,
      "hit": false,
      "t": 47943.28988281252,
      "d": 1261.5502500000002,
      "v": 80
    },
    {
      "midi": 68,
      "hit": false,
      "t": 48774.102489583354,
      "d": 458.4800677083331,
      "v": 101
    },
    {
      "midi": 68,
      "hit": false,
      "t": 49334.79148958335,
      "d": 794.3094166666633,
      "v": 99
    },
    {
      "midi": 64,
      "hit": false,
      "t": 49334.79148958335,
      "d": 2225.2344687499935,
      "v": 87
    },
    {
      "midi": 61,
      "hit": false,
      "t": 49340.63200000002,
      "d": 2158.068598958329,
      "v": 95
    },
    {
      "midi": 42,
      "hit": false,
      "t": 49340.63200000002,
      "d": 4479.671489583321,
      "v": 89
    },
    {
      "midi": 57,
      "hit": false,
      "t": 49901.32100000002,
      "d": 3961.3261901041624,
      "v": 71
    },
    {
      "midi": 69,
      "hit": false,
      "t": 50181.66550000002,
      "d": 1401.7224999999962,
      "v": 89
    },
    {
      "midi": 61,
      "hit": false,
      "t": 51587.768382812515,
      "d": 2185.811023437498,
      "v": 95
    },
    {
      "midi": 64,
      "hit": false,
      "t": 51587.768382812515,
      "d": 2200.4122994791614,
      "v": 74
    },
    {
      "midi": 66,
      "hit": false,
      "t": 53830.52438281251,
      "d": 2004.7552005208345,
      "v": 99
    },
    {
      "midi": 71,
      "hit": false,
      "t": 53834.90476562501,
      "d": 1939.0494583333348,
      "v": 86
    },
    {
      "midi": 63,
      "hit": false,
      "t": 53834.90476562501,
      "d": 2060.2400494791655,
      "v": 101
    },
    {
      "midi": 64,
      "hit": false,
      "t": 56073.28038281251,
      "d": 2261.7376588541665,
      "v": 86
    },
    {
      "midi": 60,
      "hit": false,
      "t": 56073.28038281251,
      "d": 4451.9290651041665,
      "v": 74
    },
    {
      "midi": 68,
      "hit": false,
      "t": 56073.28038281251,
      "d": 4470.910723958332,
      "v": 85
    },
    {
      "midi": 63,
      "hit": false,
      "t": 58316.03638281251,
      "d": 2209.1730651041653,
      "v": 86
    },
    {
      "midi": 59,
      "hit": false,
      "t": 127841.47238281251,
      "d": 4088.35729166666,
      "v": 111
    },
    {
      "midi": 68,
      "hit": false,
      "t": 128967.23076562502,
      "d": 1667.465723958332,
      "v": 101
    },
    {
      "midi": 66,
      "hit": false,
      "t": 129799.50350000002,
      "d": 2523.1005000000005,
      "v": 113
    },
    {
      "midi": 68,
      "hit": false,
      "t": 130640.53700000001,
      "d": 1667.465723958332,
      "v": 101
    },
    {
      "midi": 60,
      "hit": false,
      "t": 132322.60400000002,
      "d": 4443.168299479148,
      "v": 111
    },
    {
      "midi": 64,
      "hit": false,
      "t": 134285.0155,
      "d": 2523.1005000000005,
      "v": 111
    },
    {
      "midi": 66,
      "hit": false,
      "t": 135126.049,
      "d": 1682.06700000001,
      "v": 113
    },
    {
      "midi": 61,
      "hit": false,
      "t": 136808.116,
      "d": 4078.136398437491,
      "v": 109
    },
    {
      "midi": 64,
      "hit": false,
      "t": 138209.8385,
      "d": 3083.7894999999844,
      "v": 111
    },
    {
      "midi": 66,
      "hit": false,
      "t": 139050.872,
      "d": 2242.755999999994,
      "v": 99
    },
    {
      "midi": 60,
      "hit": false,
      "t": 141287.78748958334,
      "d": 4411.045492187492,
      "v": 95
    },
    {
      "midi": 66,
      "hit": false,
      "t": 143530.54348958333,
      "d": 2187.2711510416702,
      "v": 99
    },
    {
      "midi": 59,
      "hit": false,
      "t": 145783.5203828125,
      "d": 714.0023984375002,
      "v": 90
    },
    {
      "midi": 61,
      "hit": false,
      "t": 145783.5203828125,
      "d": 747.5853333333216,
      "v": 113
    },
    {
      "midi": 64,
      "hit": false,
      "t": 145783.5203828125,
      "d": 756.3460989583109,
      "v": 99
    },
    {
      "midi": 68,
      "hit": false,
      "t": 145783.5203828125,
      "d": 784.0885234374728,
      "v": 101
    },
    {
      "midi": 49,
      "hit": false,
      "t": 145909.09135677083,
      "d": 2125.945791666629,
      "v": 80
    },
    {
      "midi": 61,
      "hit": false,
      "t": 146624.55388281247,
      "d": 1238.188208333333,
      "v": 87
    },
    {
      "midi": 64,
      "hit": false,
      "t": 146624.55388281247,
      "d": 1238.188208333333,
      "v": 70
    },
    {
      "midi": 59,
      "hit": false,
      "t": 146624.55388281247,
      "d": 1261.5502500000002,
      "v": 80
    },
    {
      "midi": 68,
      "hit": false,
      "t": 147455.3664895833,
      "d": 458.4800677083258,
      "v": 101
    },
    {
      "midi": 68,
      "hit": false,
      "t": 148016.0554895833,
      "d": 794.3094166666851,
      "v": 99
    },
    {
      "midi": 64,
      "hit": false,
      "t": 148016.0554895833,
      "d": 2225.2344687500154,
      "v": 87
    },
    {
      "midi": 61,
      "hit": false,
      "t": 148021.89599999995,
      "d": 2158.0685989583435,
      "v": 95
    },
    {
      "midi": 42,
      "hit": false,
      "t": 148021.89599999995,
      "d": 4479.6714895833575,
      "v": 89
    },
    {
      "midi": 57,
      "hit": false,
      "t": 148582.58499999996,
      "d": 3961.326190104155,
      "v": 71
    },
    {
      "midi": 69,
      "hit": false,
      "t": 148862.92949999997,
      "d": 1401.7225000000035,
      "v": 89
    },
    {
      "midi": 61,
      "hit": false,
      "t": 150269.03238281247,
      "d": 2185.8110234375054,
      "v": 95
    },
    {
      "midi": 64,
      "hit": false,
      "t": 150269.03238281247,
      "d": 2200.4122994791833,
      "v": 74
    },
    {
      "midi": 66,
      "hit": false,
      "t": 152511.78838281246,
      "d": 2004.7552005208272,
      "v": 99
    },
    {
      "midi": 71,
      "hit": false,
      "t": 152516.16876562496,
      "d": 1939.0494583333202,
      "v": 86
    },
    {
      "midi": 63,
      "hit": false,
      "t": 152516.16876562496,
      "d": 2060.24004947918,
      "v": 101
    },
    {
      "midi": 64,
      "hit": false,
      "t": 154754.54438281246,
      "d": 2261.7376588541665,
      "v": 86
    },
    {
      "midi": 60,
      "hit": false,
      "t": 154754.54438281246,
      "d": 4451.9290651041665,
      "v": 74
    },
    {
      "midi": 68,
      "hit": false,
      "t": 154754.54438281246,
      "d": 4470.910723958339,
      "v": 85
    },
    {
      "midi": 63,
      "hit": false,
      "t": 156997.30038281245,
      "d": 2209.1730651041726,
      "v": 86
    }
  ]
}