{
  "jsonPath": "Rock/Neo-Progressive/I Collage/la-gente-parla.json",
  "path": "Rock\\Neo-Progressive\\I Collage\\La Gente Parla.mid",
  "name": "La Gente Parla",
  "difficulty": "Advanced",
  "bpm": 63.000129150264755,
  "notes": [
    {
      "midi": 71,
      "hit": false,
      "t": 3814.476307291667,
      "d": 297.6184374999998,
      "v": 100
    },
    {
      "midi": 47,
      "hit": false,
      "t": 3814.476307291667,
      "d": 3754.9526197916643,
      "v": 52
    },
    {
      "midi": 73,
      "hit": false,
      "t": 4052.5710572916673,
      "d": 218.25352083333337,
      "v": 52
    },
    {
      "midi": 74,
      "hit": false,
      "t": 4290.665807291667,
      "d": 218.2535208333329,
      "v": 68
    },
    {
      "midi": 71,
      "hit": false,
      "t": 4528.760557291666,
      "d": 337.3008958333339,
      "v": 96
    },
    {
      "midi": 73,
      "hit": false,
      "t": 4766.855307291667,
      "d": 248.0153645833334,
      "v": 66
    },
    {
      "midi": 74,
      "hit": false,
      "t": 5004.950057291667,
      "d": 267.8565937499998,
      "v": 70
    },
    {
      "midi": 71,
      "hit": false,
      "t": 5243.044807291667,
      "d": 277.77720833333296,
      "v": 84
    },
    {
      "midi": 73,
      "hit": false,
      "t": 5481.139557291666,
      "d": 238.0947500000002,
      "v": 66
    },
    {
      "midi": 74,
      "hit": false,
      "t": 5719.2343072916665,
      "d": 267.8565937499998,
      "v": 68
    },
    {
      "midi": 71,
      "hit": false,
      "t": 5957.329057291667,
      "d": 302.5787447916664,
      "v": 88
    },
    {
      "midi": 73,
      "hit": false,
      "t": 6195.423807291666,
      "d": 287.69782291666706,
      "v": 98
    },
    {
      "midi": 74,
      "hit": false,
      "t": 6433.518557291666,
      "d": 257.9359791666666,
      "v": 78
    },
    {
      "midi": 71,
      "hit": false,
      "t": 6671.613307291666,
      "d": 267.85659374999886,
      "v": 92
    },
    {
      "midi": 73,
      "hit": false,
      "t": 6909.708057291666,
      "d": 228.1741354166661,
      "v": 78
    },
    {
      "midi": 74,
      "hit": false,
      "t": 7147.802807291665,
      "d": 248.0153645833334,
      "v": 68
    },
    {
      "midi": 71,
      "hit": false,
      "t": 7385.897557291665,
      "d": 208.33290624999972,
      "v": 80
    },
    {
      "midi": 73,
      "hit": false,
      "t": 7623.9923072916645,
      "d": 307.53905208333344,
      "v": 66
    },
    {
      "midi": 52,
      "hit": false,
      "t": 7623.9923072916645,
      "d": 3789.674770833335,
      "v": 88
    },
    {
      "midi": 74,
      "hit": false,
      "t": 7862.087057291665,
      "d": 252.97567187500044,
      "v": 68
    },
    {
      "midi": 71,
      "hit": false,
      "t": 8100.181807291665,
      "d": 282.737515625,
      "v": 78
    },
    {
      "midi": 73,
      "hit": false,
      "t": 8338.276557291665,
      "d": 267.8565937500007,
      "v": 60
    },
    {
      "midi": 74,
      "hit": false,
      "t": 8576.371307291665,
      "d": 257.9359791666666,
      "v": 70
    },
    {
      "midi": 71,
      "hit": false,
      "t": 8814.466057291665,
      "d": 287.69782291666706,
      "v": 84
    },
    {
      "midi": 73,
      "hit": false,
      "t": 9052.560807291666,
      "d": 267.8565937500007,
      "v": 52
    },
    {
      "midi": 74,
      "hit": false,
      "t": 9290.655557291666,
      "d": 257.9359791666666,
      "v": 70
    },
    {
      "midi": 71,
      "hit": false,
      "t": 9528.750307291666,
      "d": 267.8565937500007,
      "v": 74
    },
    {
      "midi": 73,
      "hit": false,
      "t": 9766.845057291666,
      "d": 287.69782291666706,
      "v": 56
    },
    {
      "midi": 74,
      "hit": false,
      "t": 10004.939807291667,
      "d": 267.8565937500007,
      "v": 70
    },
    {
      "midi": 71,
      "hit": false,
      "t": 10243.034557291667,
      "d": 297.61843749999935,
      "v": 84
    },
    {
      "midi": 73,
      "hit": false,
      "t": 10481.129307291667,
      "d": 277.77720833333115,
      "v": 52
    },
    {
      "midi": 74,
      "hit": false,
      "t": 10719.224057291665,
      "d": 238.0947500000002,
      "v": 70
    },
    {
      "midi": 71,
      "hit": false,
      "t": 10957.318807291666,
      "d": 208.33290624999972,
      "v": 84
    },
    {
      "midi": 73,
      "hit": false,
      "t": 11195.413557291666,
      "d": 168.65044791666696,
      "v": 66
    },
    {
      "midi": 73,
      "hit": false,
      "t": 11433.508307291666,
      "d": 277.77720833333296,
      "v": 106
    },
    {
      "midi": 57,
      "hit": false,
      "t": 11433.508307291666,
      "d": 1522.8143385416624,
      "v": 74
    },
    {
      "midi": 74,
      "hit": false,
      "t": 11671.603057291666,
      "d": 297.61843749999935,
      "v": 80
    },
    {
      "midi": 76,
      "hit": false,
      "t": 11909.697807291666,
      "d": 223.21382812499905,
      "v": 80
    },
    {
      "midi": 73,
      "hit": false,
      "t": 12147.792557291665,
      "d": 297.61843749999935,
      "v": 66
    },
    {
      "midi": 74,
      "hit": false,
      "t": 12385.887307291665,
      "d": 297.6184374999975,
      "v": 74
    },
    {
      "midi": 45,
      "hit": false,
      "t": 12385.887307291665,
      "d": 535.7131874999959,
      "v": 70
    },
    {
      "midi": 76,
      "hit": false,
      "t": 12623.982057291663,
      "d": 252.97567187499772,
      "v": 80
    },
    {
      "midi": 73,
      "hit": false,
      "t": 12862.076807291662,
      "d": 302.5787447916664,
      "v": 90
    },
    {
      "midi": 74,
      "hit": false,
      "t": 13100.171557291662,
      "d": 257.9359791666666,
      "v": 68
    },
    {
      "midi": 76,
      "hit": false,
      "t": 13338.266307291662,
      "d": 183.5313697916663,
      "v": 66
    },
    {
      "midi": 66,
      "hit": false,
      "t": 13338.266307291662,
      "d": 1220.2355937500015,
      "v": 56
    },
    {
      "midi": 61,
      "hit": false,
      "t": 13338.266307291662,
      "d": 1329.3623541666675,
      "v": 56
    },
    {
      "midi": 54,
      "hit": false,
      "t": 13338.266307291662,
      "d": 1488.0921875000022,
      "v": 72
    },
    {
      "midi": 73,
      "hit": false,
      "t": 13576.361057291662,
      "d": 307.53905208333344,
      "v": 48
    },
    {
      "midi": 74,
      "hit": false,
      "t": 13814.455807291662,
      "d": 228.1741354166661,
      "v": 68
    },
    {
      "midi": 76,
      "hit": false,
      "t": 14047.590249999996,
      "d": 267.8565937500007,
      "v": 58
    },
    {
      "midi": 73,
      "hit": false,
      "t": 14290.645307291663,
      "d": 500.99103645833384,
      "v": 56
    },
    {
      "midi": 74,
      "hit": false,
      "t": 14528.740057291663,
      "d": 238.0947500000002,
      "v": 60
    },
    {
      "midi": 76,
      "hit": false,
      "t": 14766.834807291663,
      "d": 188.49167708333516,
      "v": 74
    },
    {
      "midi": 66,
      "hit": false,
      "t": 15004.929557291665,
      "d": 238.0947500000002,
      "v": 84
    },
    {
      "midi": 71,
      "hit": false,
      "t": 15243.024307291666,
      "d": 297.61843749999935,
      "v": 78
    },
    {
      "midi": 47,
      "hit": false,
      "t": 15243.024307291666,
      "d": 3492.0563333333357,
      "v": 74
    },
    {
      "midi": 59,
      "hit": false,
      "t": 15243.024307291666,
      "d": 3690.468625000003,
      "v": 30
    },
    {
      "midi": 73,
      "hit": false,
      "t": 15481.119057291666,
      "d": 297.6184374999975,
      "v": 48
    },
    {
      "midi": 74,
      "hit": false,
      "t": 15719.213807291664,
      "d": 198.41229166666562,
      "v": 60
    },
    {
      "midi": 71,
      "hit": false,
      "t": 15957.308557291663,
      "d": 292.6581302083341,
      "v": 84
    },
    {
      "midi": 73,
      "hit": false,
      "t": 16195.403307291663,
      "d": 252.97567187500135,
      "v": 52
    },
    {
      "midi": 74,
      "hit": false,
      "t": 16433.498057291665,
      "d": 257.9359791666684,
      "v": 70
    },
    {
      "midi": 71,
      "hit": false,
      "t": 16671.592807291665,
      "d": 238.0947500000002,
      "v": 80
    },
    {
      "midi": 73,
      "hit": false,
      "t": 16909.687557291665,
      "d": 292.6581302083323,
      "v": 42
    },
    {
      "midi": 74,
      "hit": false,
      "t": 17147.782307291665,
      "d": 248.0153645833343,
      "v": 66
    },
    {
      "midi": 71,
      "hit": false,
      "t": 17385.877057291666,
      "d": 248.0153645833343,
      "v": 42
    },
    {
      "midi": 73,
      "hit": false,
      "t": 17623.971807291666,
      "d": 262.89628645833363,
      "v": 42
    },
    {
      "midi": 74,
      "hit": false,
      "t": 17862.066557291666,
      "d": 238.0947500000002,
      "v": 68
    },
    {
      "midi": 71,
      "hit": false,
      "t": 18100.161307291666,
      "d": 297.61843750000116,
      "v": 84
    },
    {
      "midi": 73,
      "hit": false,
      "t": 18338.256057291666,
      "d": 307.53905208333526,
      "v": 44
    },
    {
      "midi": 74,
      "hit": false,
      "t": 18576.350807291667,
      "d": 248.0153645833343,
      "v": 70
    },
    {
      "midi": 71,
      "hit": false,
      "t": 18814.445557291667,
      "d": 238.0947500000002,
      "v": 74
    },
    {
      "midi": 73,
      "hit": false,
      "t": 19052.540307291667,
      "d": 238.0947500000002,
      "v": 42
    },
    {
      "midi": 52,
      "hit": false,
      "t": 19052.540307291667,
      "d": 3640.865552083338,
      "v": 66
    },
    {
      "midi": 59,
      "hit": false,
      "t": 19057.500614583332,
      "d": 3596.22278645834,
      "v": 56
    },
    {
      "midi": 74,
      "hit": false,
      "t": 19290.635057291667,
      "d": 248.0153645833343,
      "v": 66
    },
    {
      "midi": 71,
      "hit": false,
      "t": 19528.729807291667,
      "d": 262.89628645833363,
      "v": 74
    },
    {
      "midi": 73,
      "hit": false,
      "t": 19766.824557291668,
      "d": 317.4596666666657,
      "v": 56
    },
    {
      "midi": 74,
      "hit": false,
      "t": 20004.919307291668,
      "d": 238.0947500000002,
      "v": 70
    },
    {
      "midi": 71,
      "hit": false,
      "t": 20243.014057291668,
      "d": 238.0947500000002,
      "v": 78
    },
    {
      "midi": 73,
      "hit": false,
      "t": 20481.10880729167,
      "d": 238.0947500000002,
      "v": 72
    },
    {
      "midi": 74,
      "hit": false,
      "t": 20719.20355729167,
      "d": 243.05505729166543,
      "v": 74
    },
    {
      "midi": 71,
      "hit": false,
      "t": 20957.29830729167,
      "d": 327.3802812499998,
      "v": 58
    },
    {
      "midi": 73,
      "hit": false,
      "t": 21195.39305729167,
      "d": 287.69782291666706,
      "v": 56
    },
    {
      "midi": 74,
      "hit": false,
      "t": 21433.48780729167,
      "d": 243.05505729166543,
      "v": 70
    },
    {
      "midi": 71,
      "hit": false,
      "t": 21671.58255729167,
      "d": 307.53905208333526,
      "v": 92
    },
    {
      "midi": 73,
      "hit": false,
      "t": 21909.67730729167,
      "d": 228.17413541666974,
      "v": 84
    },
    {
      "midi": 74,
      "hit": false,
      "t": 22147.772057291673,
      "d": 238.0947500000002,
      "v": 70
    },
    {
      "midi": 71,
      "hit": false,
      "t": 22385.866807291673,
      "d": 218.253520833332,
      "v": 84
    },
    {
      "midi": 73,
      "hit": false,
      "t": 22623.961557291674,
      "d": 158.72983333333104,
      "v": 72
    },
    {
      "midi": 73,
      "hit": false,
      "t": 22862.05630729167,
      "d": 238.0947500000002,
      "v": 72
    },
    {
      "midi": 45,
      "hit": false,
      "t": 22862.05630729167,
      "d": 3095.2317500000063,
      "v": 74
    },
    {
      "midi": 74,
      "hit": false,
      "t": 23100.15105729167,
      "d": 287.69782291666706,
      "v": 70
    },
    {
      "midi": 76,
      "hit": false,
      "t": 23338.24580729167,
      "d": 238.0947500000002,
      "v": 84
    },
    {
      "midi": 73,
      "hit": false,
      "t": 23576.34055729167,
      "d": 252.97567187499953,
      "v": 78
    },
    {
      "midi": 74,
      "hit": false,
      "t": 23814.43530729167,
      "d": 262.89628645833363,
      "v": 78
    },
    {
      "midi": 57,
      "hit": false,
      "t": 23814.43530729167,
      "d": 2207.3367447916753,
      "v": 38
    },
    {
      "midi": 76,
      "hit": false,
      "t": 24052.53005729167,
      "d": 243.05505729166543,
      "v": 84
    },
    {
      "midi": 73,
      "hit": false,
      "t": 24290.62480729167,
      "d": 257.9359791666684,
      "v": 84
    },
    {
      "midi": 74,
      "hit": false,
      "t": 24528.71955729167,
      "d": 287.69782291666706,
      "v": 78
    },
    {
      "midi": 76,
      "hit": false,
      "t": 24766.814307291672,
      "d": 238.0947500000002,
      "v": 84
    },
    {
      "midi": 73,
      "hit": false,
      "t": 25004.909057291672,
      "d": 243.05505729166543,
      "v": 48
    },
    {
      "midi": 74,
      "hit": false,
      "t": 25243.003807291672,
      "d": 248.0153645833343,
      "v": 70
    },
    {
      "midi": 76,
      "hit": false,
      "t": 25481.098557291672,
      "d": 218.25352083333564,
      "v": 84
    },
    {
      "midi": 73,
      "hit": false,
      "t": 25719.193307291676,
      "d": 282.73751562500183,
      "v": 90
    },
    {
      "midi": 74,
      "hit": false,
      "t": 25957.288057291677,
      "d": 287.6978229166707,
      "v": 80
    },
    {
      "midi": 76,
      "hit": false,
      "t": 26195.38280729168,
      "d": 198.41229166666744,
      "v": 74
    },
    {
      "midi": 73,
      "hit": false,
      "t": 26433.47755729168,
      "d": 213.29321354166677,
      "v": 84
    },
    {
      "midi": 74,
      "hit": false,
      "t": 26671.57230729168,
      "d": 218.253520833332,
      "v": 84
    },
    {
      "midi": 50,
      "hit": false,
      "t": 26671.57230729168,
      "d": 1428.5685000000012,
      "v": 70
    },
    {
      "midi": 62,
      "hit": false,
      "t": 26671.57230729168,
      "d": 1473.2112656249992,
      "v": 62
    },
    {
      "midi": 76,
      "hit": false,
      "t": 26909.66705729168,
      "d": 218.253520833332,
      "v": 74
    },
    {
      "midi": 78,
      "hit": false,
      "t": 27147.76180729168,
      "d": 238.0947500000002,
      "v": 52
    },
    {
      "midi": 74,
      "hit": false,
      "t": 27385.85655729168,
      "d": 238.0947500000002,
      "v": 74
    },
    {
      "midi": 76,
      "hit": false,
      "t": 27623.95130729168,
      "d": 262.89628645833363,
      "v": 74
    },
    {
      "midi": 78,
      "hit": false,
      "t": 27862.04605729168,
      "d": 277.77720833333296,
      "v": 72
    },
    {
      "midi": 74,
      "hit": false,
      "t": 28100.140807291682,
      "d": 228.1741354166661,
      "v": 70
    },
    {
      "midi": 76,
      "hit": false,
      "t": 28338.235557291682,
      "d": 228.1741354166661,
      "v": 80
    },
    {
      "midi": 78,
      "hit": false,
      "t": 28576.330307291682,
      "d": 337.3008958333339,
      "v": 66
    },
    {
      "midi": 66,
      "hit": false,
      "t": 28576.330307291682,
      "d": 1160.7119062499987,
      "v": 60
    },
    {
      "midi": 61,
      "hit": false,
      "t": 28576.330307291682,
      "d": 1230.1562083333301,
      "v": 60
    },
    {
      "midi": 54,
      "hit": false,
      "t": 28576.330307291682,
      "d": 1299.6005104166652,
      "v": 98
    },
    {
      "midi": 74,
      "hit": false,
      "t": 28814.425057291683,
      "d": 158.72983333333468,
      "v": 22
    },
    {
      "midi": 76,
      "hit": false,
      "t": 29052.519807291683,
      "d": 238.0947500000002,
      "v": 60
    },
    {
      "midi": 78,
      "hit": false,
      "t": 29290.614557291683,
      "d": 292.6581302083323,
      "v": 48
    },
    {
      "midi": 74,
      "hit": false,
      "t": 29528.709307291683,
      "d": 208.3329062499979,
      "v": 32
    },
    {
      "midi": 76,
      "hit": false,
      "t": 29766.80405729168,
      "d": 198.41229166666744,
      "v": 66
    },
    {
      "midi": 78,
      "hit": false,
      "t": 30004.89880729168,
      "d": 238.0947500000002,
      "v": 52
    },
    {
      "midi": 74,
      "hit": false,
      "t": 30242.99355729168,
      "d": 138.88860416666648,
      "v": 50
    },
    {
      "midi": 71,
      "hit": false,
      "t": 30481.08830729168,
      "d": 228.1741354166661,
      "v": 78
    },
    {
      "midi": 47,
      "hit": false,
      "t": 30481.08830729168,
      "d": 3377.9692656249936,
      "v": 80
    },
    {
      "midi": 59,
      "hit": false,
      "t": 30481.08830729168,
      "d": 3799.595385416662,
      "v": 74
    },
    {
      "midi": 73,
      "hit": false,
      "t": 30719.18305729168,
      "d": 238.0947500000002,
      "v": 48
    },
    {
      "midi": 74,
      "hit": false,
      "t": 30957.27780729168,
      "d": 243.05505729166543,
      "v": 66
    },
    {
      "midi": 71,
      "hit": false,
      "t": 31195.37255729168,
      "d": 238.0947500000002,
      "v": 80
    },
    {
      "midi": 73,
      "hit": false,
      "t": 31433.46730729168,
      "d": 228.1741354166661,
      "v": 84
    },
    {
      "midi": 74,
      "hit": false,
      "t": 31671.56205729168,
      "d": 238.0947500000002,
      "v": 70
    },
    {
      "midi": 71,
      "hit": false,
      "t": 31909.65680729168,
      "d": 287.69782291666706,
      "v": 84
    },
    {
      "midi": 73,
      "hit": false,
      "t": 32147.751557291682,
      "d": 228.1741354166661,
      "v": 66
    },
    {
      "midi": 74,
      "hit": false,
      "t": 32385.846307291682,
      "d": 238.0947500000002,
      "v": 70
    },
    {
      "midi": 71,
      "hit": false,
      "t": 32623.941057291682,
      "d": 282.7375156249982,
      "v": 78
    },
    {
      "midi": 73,
      "hit": false,
      "t": 32862.03580729168,
      "d": 218.25352083333564,
      "v": 72
    },
    {
      "midi": 74,
      "hit": false,
      "t": 33100.13055729168,
      "d": 243.0550572916618,
      "v": 70
    },
    {
      "midi": 71,
      "hit": false,
      "t": 33338.22530729168,
      "d": 287.6978229166634,
      "v": 80
    },
    {
      "midi": 73,
      "hit": false,
      "t": 33576.320057291676,
      "d": 277.77720833333296,
      "v": 106
    },
    {
      "midi": 74,
      "hit": false,
      "t": 33814.41480729167,
      "d": 223.21382812500087,
      "v": 74
    },
    {
      "midi": 71,
      "hit": false,
      "t": 34052.509557291676,
      "d": 208.3329062499979,
      "v": 88
    },
    {
      "midi": 73,
      "hit": false,
      "t": 34290.60430729167,
      "d": 287.6978229166634,
      "v": 90
    },
    {
      "midi": 52,
      "hit": false,
      "t": 34290.60430729167,
      "d": 3799.5953854166655,
      "v": 68
    },
    {
      "midi": 74,
      "hit": false,
      "t": 34528.69905729167,
      "d": 238.09475000000384,
      "v": 68
    },
    {
      "midi": 71,
      "hit": false,
      "t": 34766.79380729167,
      "d": 337.3008958333303,
      "v": 78
    },
    {
      "midi": 73,
      "hit": false,
      "t": 35004.88855729167,
      "d": 302.57874479167367,
      "v": 52
    },
    {
      "midi": 74,
      "hit": false,
      "t": 35242.98330729167,
      "d": 238.09475000000384,
      "v": 74
    },
    {
      "midi": 71,
      "hit": false,
      "t": 35481.07805729168,
      "d": 307.5390520833316,
      "v": 80
    },
    {
      "midi": 73,
      "hit": false,
      "t": 35719.172807291674,
      "d": 307.5390520833389,
      "v": 60
    },
    {
      "midi": 74,
      "hit": false,
      "t": 35957.26755729168,
      "d": 252.9756718750068,
      "v": 84
    },
    {
      "midi": 71,
      "hit": false,
      "t": 36195.36230729168,
      "d": 262.8962864583373,
      "v": 84
    },
    {
      "midi": 73,
      "hit": false,
      "t": 36433.457057291685,
      "d": 228.1741354166661,
      "v": 98
    },
    {
      "midi": 74,
      "hit": false,
      "t": 36671.55180729168,
      "d": 248.01536458332703,
      "v": 74
    },
    {
      "midi": 71,
      "hit": false,
      "t": 36909.64655729168,
      "d": 297.6184374999939,
      "v": 84
    },
    {
      "midi": 73,
      "hit": false,
      "t": 37147.741307291675,
      "d": 282.7375156249982,
      "v": 84
    },
    {
      "midi": 74,
      "hit": false,
      "t": 37385.83605729167,
      "d": 243.05505729166907,
      "v": 74
    },
    {
      "midi": 71,
      "hit": false,
      "t": 37623.930807291676,
      "d": 208.3329062499979,
      "v": 74
    },
    {
      "midi": 73,
      "hit": false,
      "t": 37862.02555729167,
      "d": 148.80921875000058,
      "v": 72
    },
    {
      "midi": 73,
      "hit": false,
      "t": 38100.12030729167,
      "d": 223.21382812500087,
      "v": 84
    },
    {
      "midi": 57,
      "hit": false,
      "t": 38100.12030729167,
      "d": 3705.349546874975,
      "v": 74
    },
    {
      "midi": 74,
      "hit": false,
      "t": 38338.21505729167,
      "d": 297.6184374999939,
      "v": 66
    },
    {
      "midi": 76,
      "hit": false,
      "t": 38576.30980729167,
      "d": 238.09474999999657,
      "v": 80
    },
    {
      "midi": 45,
      "hit": false,
      "t": 38576.30980729167,
      "d": 2752.9705468749817,
      "v": 46
    },
    {
      "midi": 73,
      "hit": false,
      "t": 38814.404557291666,
      "d": 287.6978229166634,
      "v": 60
    },
    {
      "midi": 74,
      "hit": false,
      "t": 39052.49930729166,
      "d": 277.77720833333296,
      "v": 74
    },
    {
      "midi": 76,
      "hit": false,
      "t": 39290.59405729166,
      "d": 228.17413541667338,
      "v": 78
    },
    {
      "midi": 73,
      "hit": false,
      "t": 39528.68880729166,
      "d": 287.6978229166634,
      "v": 56
    },
    {
      "midi": 74,
      "hit": false,
      "t": 39766.78355729166,
      "d": 262.89628645833,
      "v": 68
    },
    {
      "midi": 76,
      "hit": false,
      "t": 40004.878307291656,
      "d": 248.01536458332703,
      "v": 80
    },
    {
      "midi": 73,
      "hit": false,
      "t": 40242.97305729165,
      "d": 297.6184374999939,
      "v": 60
    },
    {
      "midi": 74,
      "hit": false,
      "t": 40481.06780729165,
      "d": 287.6978229166634,
      "v": 70
    },
    {
      "midi": 76,
      "hit": false,
      "t": 40719.162557291645,
      "d": 277.77720833333296,
      "v": 80
    },
    {
      "midi": 73,
      "hit": false,
      "t": 40957.25730729164,
      "d": 277.77720833334024,
      "v": 78
    },
    {
      "midi": 74,
      "hit": false,
      "t": 41195.352057291646,
      "d": 238.09475000000384,
      "v": 74
    },
    {
      "midi": 76,
      "hit": false,
      "t": 41433.44680729165,
      "d": 208.3329062499979,
      "v": 78
    },
    {
      "midi": 73,
      "hit": false,
      "t": 41671.541557291646,
      "d": 213.29321354166314,
      "v": 116
    },
    {
      "midi": 74,
      "hit": false,
      "t": 41909.63630729164,
      "d": 208.3329062499979,
      "v": 78
    },
    {
      "midi": 50,
      "hit": false,
      "t": 41909.63630729164,
      "d": 1388.8860416666503,
      "v": 62
    },
    {
      "midi": 76,
      "hit": false,
      "t": 42147.73105729164,
      "d": 188.4916770833297,
      "v": 70
    },
    {
      "midi": 78,
      "hit": false,
      "t": 42385.825807291636,
      "d": 243.0550572916618,
      "v": 60
    },
    {
      "midi": 74,
      "hit": false,
      "t": 42623.92055729163,
      "d": 218.25352083332837,
      "v": 68
    },
    {
      "midi": 76,
      "hit": false,
      "t": 42862.01530729163,
      "d": 238.09474999999657,
      "v": 74
    },
    {
      "midi": 62,
      "hit": false,
      "t": 42862.01530729163,
      "d": 634.9193333333315,
      "v": 62
    },
    {
      "midi": 78,
      "hit": false,
      "t": 43100.110057291626,
      "d": 262.8962864583373,
      "v": 42
    },
    {
      "midi": 74,
      "hit": false,
      "t": 43338.20480729163,
      "d": 252.97567187499953,
      "v": 70
    },
    {
      "midi": 76,
      "hit": false,
      "t": 43576.299557291626,
      "d": 213.2932135416704,
      "v": 74
    },
    {
      "midi": 78,
      "hit": false,
      "t": 43814.39430729163,
      "d": 297.61843750000116,
      "v": 52
    },
    {
      "midi": 54,
      "hit": false,
      "t": 43814.39430729163,
      "d": 1388.8860416666648,
      "v": 72
    },
    {
      "midi": 76,
      "hit": false,
      "t": 44290.58380729163,
      "d": 208.3329062499979,
      "v": 68
    },
    {
      "midi": 78,
      "hit": false,
      "t": 44528.67855729163,
      "d": 198.41229166666744,
      "v": 38
    },
    {
      "midi": 74,
      "hit": false,
      "t": 44766.77330729163,
      "d": 79.36491666666552,
      "v": 2
    },
    {
      "midi": 66,
      "hit": false,
      "t": 44766.77330729163,
      "d": 347.22151041666075,
      "v": 16
    },
    {
      "midi": 76,
      "hit": false,
      "t": 45004.86805729163,
      "d": 292.65813020833593,
      "v": 66
    },
    {
      "midi": 78,
      "hit": false,
      "t": 45242.96280729163,
      "d": 218.25352083333564,
      "v": 56
    },
    {
      "midi": 74,
      "hit": false,
      "t": 45481.057557291635,
      "d": 49.60307291666686,
      "v": 38
    },
    {
      "midi": 47,
      "hit": false,
      "t": 45719.15230729163,
      "d": 3199.3982031250052,
      "v": 68
    },
    {
      "midi": 66,
      "hit": false,
      "t": 45724.1126145833,
      "d": 897.8156197916687,
      "v": 84
    },
    {
      "midi": 71,
      "hit": false,
      "t": 45724.1126145833,
      "d": 1810.5121614583331,
      "v": 78
    },
    {
      "midi": 66,
      "hit": false,
      "t": 46671.53130729163,
      "d": 912.6965416666644,
      "v": 38
    },
    {
      "midi": 62,
      "hit": false,
      "t": 47623.91030729163,
      "d": 823.4110104166684,
      "v": 46
    },
    {
      "midi": 66,
      "hit": false,
      "t": 47623.91030729163,
      "d": 833.3316249999989,
      "v": 52
    },
    {
      "midi": 62,
      "hit": false,
      "t": 48576.289307291634,
      "d": 734.1254791666652,
      "v": 32
    },
    {
      "midi": 66,
      "hit": false,
      "t": 48576.289307291634,
      "d": 853.1728541666598,
      "v": 30
    },
    {
      "midi": 47,
      "hit": false,
      "t": 49052.478807291634,
      "d": 342.2612031249955,
      "v": 28
    },
    {
      "midi": 62,
      "hit": false,
      "t": 49528.66830729163,
      "d": 396.8245833333349,
      "v": 62
    },
    {
      "midi": 67,
      "hit": false,
      "t": 49528.66830729163,
      "d": 595.2368750000023,
      "v": 74
    },
    {
      "midi": 55,
      "hit": false,
      "t": 49528.66830729163,
      "d": 1319.441739583337,
      "v": 60
    },
    {
      "midi": 62,
      "hit": false,
      "t": 50004.85780729163,
      "d": 302.5787447916664,
      "v": 28
    },
    {
      "midi": 62,
      "hit": false,
      "t": 50481.04730729163,
      "d": 833.3316249999989,
      "v": 46
    },
    {
      "midi": 67,
      "hit": false,
      "t": 50481.04730729163,
      "d": 858.1331614583323,
      "v": 60
    },
    {
      "midi": 55,
      "hit": false,
      "t": 50957.23680729163,
      "d": 813.4903958333307,
      "v": 60
    },
    {
      "midi": 67,
      "hit": false,
      "t": 51433.42630729163,
      "d": 778.7682447916668,
      "v": 66
    },
    {
      "midi": 62,
      "hit": false,
      "t": 51433.42630729163,
      "d": 793.6491666666698,
      "v": 56
    },
    {
      "midi": 55,
      "hit": false,
      "t": 51909.61580729163,
      "d": 758.9270156249986,
      "v": 38
    },
    {
      "midi": 62,
      "hit": false,
      "t": 52385.80530729163,
      "d": 823.4110104166684,
      "v": 44
    },
    {
      "midi": 67,
      "hit": false,
      "t": 52385.80530729163,
      "d": 882.9346979166658,
      "v": 66
    },
    {
      "midi": 55,
      "hit": false,
      "t": 52861.99480729163,
      "d": 406.74519791666535,
      "v": 52
    },
    {
      "midi": 64,
      "hit": false,
      "t": 53338.18430729163,
      "d": 778.7682447916668,
      "v": 70
    },
    {
      "midi": 67,
      "hit": false,
      "t": 53338.18430729163,
      "d": 803.5697812500002,
      "v": 70
    },
    {
      "midi": 52,
      "hit": false,
      "t": 53338.18430729163,
      "d": 3184.5172812500095,
      "v": 74
    },
    {
      "midi": 64,
      "hit": false,
      "t": 54290.56330729163,
      "d": 823.4110104166684,
      "v": 68
    },
    {
      "midi": 67,
      "hit": false,
      "t": 54290.56330729163,
      "d": 838.2919322916714,
      "v": 66
    },
    {
      "midi": 64,
      "hit": false,
      "t": 55242.94230729164,
      "d": 739.0857864583304,
      "v": 68
    },
    {
      "midi": 67,
      "hit": false,
      "t": 55242.94230729164,
      "d": 758.9270156249986,
      "v": 68
    },
    {
      "midi": 67,
      "hit": false,
      "t": 56195.32130729164,
      "d": 684.5224062499983,
      "v": 62
    },
    {
      "midi": 64,
      "hit": false,
      "t": 56195.32130729164,
      "d": 803.5697812500002,
      "v": 52
    },
    {
      "midi": 52,
      "hit": false,
      "t": 56671.51080729164,
      "d": 426.58642708333355,
      "v": 50
    },
    {
      "midi": 64,
      "hit": false,
      "t": 57147.70030729164,
      "d": 783.728552083332,
      "v": 78
    },
    {
      "midi": 61,
      "hit": false,
      "t": 57147.70030729164,
      "d": 788.6888593749973,
      "v": 42
    },
    {
      "midi": 45,
      "hit": false,
      "t": 57147.70030729164,
      "d": 3700.389239583332,
      "v": 70
    },
    {
      "midi": 61,
      "hit": false,
      "t": 58100.07930729164,
      "d": 694.443020833336,
      "v": 38
    },
    {
      "midi": 64,
      "hit": false,
      "t": 58100.07930729164,
      "d": 704.3636354166665,
      "v": 68
    },
    {
      "midi": 61,
      "hit": false,
      "t": 59057.41861458331,
      "d": 1488.0921874999985,
      "v": 24
    },
    {
      "midi": 64,
      "hit": false,
      "t": 59057.41861458331,
      "d": 1641.8617135416644,
      "v": 60
    },
    {
      "midi": 62,
      "hit": false,
      "t": 60957.21630729164,
      "d": 818.4507031250032,
      "v": 62
    },
    {
      "midi": 66,
      "hit": false,
      "t": 60957.21630729164,
      "d": 843.2522395833366,
      "v": 52
    },
    {
      "midi": 50,
      "hit": false,
      "t": 60957.21630729164,
      "d": 7410.699093749987,
      "v": 60
    },
    {
      "midi": 62,
      "hit": false,
      "t": 61909.59530729164,
      "d": 783.728552083332,
      "v": 44
    },
    {
      "midi": 66,
      "hit": false,
      "t": 61909.59530729164,
      "d": 793.6491666666625,
      "v": 28
    },
    {
      "midi": 62,
      "hit": false,
      "t": 62861.97430729163,
      "d": 763.8873229166638,
      "v": 66
    },
    {
      "midi": 66,
      "hit": false,
      "t": 62861.97430729163,
      "d": 763.8873229166638,
      "v": 38
    },
    {
      "midi": 62,
      "hit": false,
      "t": 63814.35330729163,
      "d": 793.6491666666698,
      "v": 68
    },
    {
      "midi": 66,
      "hit": false,
      "t": 63814.35330729163,
      "d": 853.1728541666671,
      "v": 44
    },
    {
      "midi": 69,
      "hit": false,
      "t": 64766.73230729163,
      "d": 843.2522395833366,
      "v": 84
    },
    {
      "midi": 62,
      "hit": false,
      "t": 64766.73230729163,
      "d": 853.1728541666671,
      "v": 70
    },
    {
      "midi": 62,
      "hit": false,
      "t": 65719.11130729163,
      "d": 734.1254791666724,
      "v": 62
    },
    {
      "midi": 69,
      "hit": false,
      "t": 65719.11130729163,
      "d": 793.6491666666698,
      "v": 70
    },
    {
      "midi": 62,
      "hit": false,
      "t": 66671.49030729163,
      "d": 753.9667083333334,
      "v": 62
    },
    {
      "midi": 67,
      "hit": false,
      "t": 66671.49030729163,
      "d": 778.7682447916595,
      "v": 70
    },
    {
      "midi": 62,
      "hit": false,
      "t": 67623.86930729162,
      "d": 758.9270156249986,
      "v": 50
    },
    {
      "midi": 67,
      "hit": false,
      "t": 67623.86930729162,
      "d": 793.6491666666698,
      "v": 66
    },
    {
      "midi": 64,
      "hit": false,
      "t": 68576.24830729162,
      "d": 813.4903958333307,
      "v": 74
    },
    {
      "midi": 67,
      "hit": false,
      "t": 68576.24830729162,
      "d": 838.2919322916568,
      "v": 74
    },
    {
      "midi": 52,
      "hit": false,
      "t": 68576.24830729162,
      "d": 3635.9052447916474,
      "v": 68
    },
    {
      "midi": 67,
      "hit": false,
      "t": 69528.62730729161,
      "d": 763.8873229166638,
      "v": 70
    },
    {
      "midi": 64,
      "hit": false,
      "t": 69528.62730729161,
      "d": 768.8476302083291,
      "v": 68
    },
    {
      "midi": 67,
      "hit": false,
      "t": 70481.00630729161,
      "d": 486.11011458333815,
      "v": 48
    },
    {
      "midi": 64,
      "hit": false,
      "t": 70481.00630729161,
      "d": 793.6491666666698,
      "v": 48
    },
    {
      "midi": 64,
      "hit": false,
      "t": 71433.38530729161,
      "d": 719.2445572916622,
      "v": 70
    },
    {
      "midi": 67,
      "hit": false,
      "t": 71433.38530729161,
      "d": 773.8079374999943,
      "v": 70
    },
    {
      "midi": 62,
      "hit": false,
      "t": 72385.7643072916,
      "d": 793.6491666666698,
      "v": 66
    },
    {
      "midi": 67,
      "hit": false,
      "t": 72385.7643072916,
      "d": 823.4110104166757,
      "v": 78
    },
    {
      "midi": 43,
      "hit": false,
      "t": 72385.7643072916,
      "d": 1319.4417395833443,
      "v": 44
    },
    {
      "midi": 62,
      "hit": false,
      "t": 73338.14330729161,
      "d": 565.4750312499964,
      "v": 60
    },
    {
      "midi": 67,
      "hit": false,
      "t": 73338.14330729161,
      "d": 798.609473958335,
      "v": 74
    },
    {
      "midi": 43,
      "hit": false,
      "t": 73814.3328072916,
      "d": 416.66581250001036,
      "v": 50
    },
    {
      "midi": 64,
      "hit": false,
      "t": 74290.52230729161,
      "d": 744.0460937500029,
      "v": 84
    },
    {
      "midi": 61,
      "hit": false,
      "t": 74290.52230729161,
      "d": 773.8079375000088,
      "v": 66
    },
    {
      "midi": 45,
      "hit": false,
      "t": 74290.52230729161,
      "d": 1349.2035833333503,
      "v": 62
    },
    {
      "midi": 61,
      "hit": false,
      "t": 75242.90130729163,
      "d": 535.713187500005,
      "v": 44
    },
    {
      "midi": 64,
      "hit": false,
      "t": 75242.90130729163,
      "d": 793.6491666666698,
      "v": 80
    },
    {
      "midi": 45,
      "hit": false,
      "t": 75719.09080729164,
      "d": 411.7055052083306,
      "v": 66
    },
    {
      "midi": 62,
      "hit": false,
      "t": 76195.28030729163,
      "d": 729.1651718750072,
      "v": 60
    },
    {
      "midi": 66,
      "hit": false,
      "t": 76195.28030729163,
      "d": 739.0857864583377,
      "v": 48
    },
    {
      "midi": 50,
      "hit": false,
      "t": 76195.28030729163,
      "d": 3134.9142083333427,
      "v": 60
    },
    {
      "midi": 66,
      "hit": false,
      "t": 77147.65930729163,
      "d": 620.0384114583285,
      "v": 48
    },
    {
      "midi": 62,
      "hit": false,
      "t": 77147.65930729163,
      "d": 763.8873229166638,
      "v": 62
    },
    {
      "midi": 62,
      "hit": false,
      "t": 78100.03830729163,
      "d": 863.0934687499976,
      "v": 78
    },
    {
      "midi": 66,
      "hit": false,
      "t": 78100.03830729163,
      "d": 873.014083333328,
      "v": 44
    },
    {
      "midi": 66,
      "hit": false,
      "t": 79052.41730729163,
      "d": 803.5697812500148,
      "v": 56
    },
    {
      "midi": 62,
      "hit": false,
      "t": 79052.41730729163,
      "d": 833.3316250000207,
      "v": 68
    },
    {
      "midi": 50,
      "hit": false,
      "t": 79528.60680729164,
      "d": 456.34827083334676,
      "v": 62
    },
    {
      "midi": 62,
      "hit": false,
      "t": 80004.79630729165,
      "d": 778.7682447916595,
      "v": 78
    },
    {
      "midi": 67,
      "hit": false,
      "t": 80004.79630729165,
      "d": 833.3316249999916,
      "v": 84
    },
    {
      "midi": 43,
      "hit": false,
      "t": 80004.79630729165,
      "d": 3219.2394322916225,
      "v": 70
    },
    {
      "midi": 62,
      "hit": false,
      "t": 80957.17530729163,
      "d": 763.8873229166638,
      "v": 56
    },
    {
      "midi": 67,
      "hit": false,
      "t": 80957.17530729163,
      "d": 833.3316249999916,
      "v": 84
    },
    {
      "midi": 62,
      "hit": false,
      "t": 81909.55430729162,
      "d": 823.4110104166612,
      "v": 52
    },
    {
      "midi": 67,
      "hit": false,
      "t": 81909.55430729162,
      "d": 848.2125468749873,
      "v": 74
    },
    {
      "midi": 62,
      "hit": false,
      "t": 82861.9333072916,
      "d": 803.5697812500002,
      "v": 60
    },
    {
      "midi": 67,
      "hit": false,
      "t": 82861.9333072916,
      "d": 853.1728541666671,
      "v": 70
    },
    {
      "midi": 43,
      "hit": false,
      "t": 83338.1228072916,
      "d": 500.99103645833384,
      "v": 28
    },
    {
      "midi": 64,
      "hit": false,
      "t": 83814.3123072916,
      "d": 793.6491666666552,
      "v": 80
    },
    {
      "midi": 67,
      "hit": false,
      "t": 83814.3123072916,
      "d": 813.4903958333161,
      "v": 74
    },
    {
      "midi": 52,
      "hit": false,
      "t": 83814.3123072916,
      "d": 3293.644041666659,
      "v": 70
    },
    {
      "midi": 64,
      "hit": false,
      "t": 84766.69130729159,
      "d": 813.4903958333307,
      "v": 68
    },
    {
      "midi": 67,
      "hit": false,
      "t": 84766.69130729159,
      "d": 848.2125468750019,
      "v": 68
    },
    {
      "midi": 67,
      "hit": false,
      "t": 85719.0703072916,
      "d": 853.1728541666671,
      "v": 68
    },
    {
      "midi": 64,
      "hit": false,
      "t": 85719.0703072916,
      "d": 858.1331614583323,
      "v": 68
    },
    {
      "midi": 64,
      "hit": false,
      "t": 86671.4493072916,
      "d": 823.4110104166757,
      "v": 68
    },
    {
      "midi": 67,
      "hit": false,
      "t": 86671.4493072916,
      "d": 833.3316250000062,
      "v": 68
    },
    {
      "midi": 52,
      "hit": false,
      "t": 87147.6388072916,
      "d": 436.5070416666713,
      "v": 42
    },
    {
      "midi": 59,
      "hit": false,
      "t": 87623.82830729161,
      "d": 758.9270156249986,
      "v": 50
    },
    {
      "midi": 62,
      "hit": false,
      "t": 87623.82830729161,
      "d": 818.4507031249959,
      "v": 66
    },
    {
      "midi": 43,
      "hit": false,
      "t": 87623.82830729161,
      "d": 1289.6798958333384,
      "v": 68
    },
    {
      "midi": 59,
      "hit": false,
      "t": 88576.20730729161,
      "d": 689.4827135416708,
      "v": 62
    },
    {
      "midi": 62,
      "hit": false,
      "t": 88576.20730729161,
      "d": 833.3316250000062,
      "v": 78
    },
    {
      "midi": 43,
      "hit": false,
      "t": 89052.39680729162,
      "d": 362.1024322916637,
      "v": 78
    },
    {
      "midi": 61,
      "hit": false,
      "t": 89528.58630729161,
      "d": 818.4507031249959,
      "v": 72
    },
    {
      "midi": 64,
      "hit": false,
      "t": 89528.58630729161,
      "d": 853.1728541666671,
      "v": 78
    },
    {
      "midi": 45,
      "hit": false,
      "t": 89528.58630729161,
      "d": 1289.6798958333384,
      "v": 70
    },
    {
      "midi": 61,
      "hit": false,
      "t": 90480.96530729161,
      "d": 620.038411458343,
      "v": 66
    },
    {
      "midi": 64,
      "hit": false,
      "t": 90480.96530729161,
      "d": 773.8079375000088,
      "v": 80
    },
    {
      "midi": 45,
      "hit": false,
      "t": 90957.15480729162,
      "d": 347.221510416668,
      "v": 62
    },
    {
      "midi": 61,
      "hit": false,
      "t": 91433.34430729163,
      "d": 1071.4263749999955,
      "v": 66
    },
    {
      "midi": 66,
      "hit": false,
      "t": 91433.34430729163,
      "d": 1289.6798958333238,
      "v": 78
    },
    {
      "midi": 54,
      "hit": false,
      "t": 91433.34430729163,
      "d": 1636.9014062499919,
      "v": 98
    },
    {
      "midi": 66,
      "hit": false,
      "t": 93338.10230729161,
      "d": 3630.9449374999967,
      "v": 38
    },
    {
      "midi": 62,
      "hit": false,
      "t": 93338.10230729161,
      "d": 3650.7861666666577,
      "v": 56
    },
    {
      "midi": 47,
      "hit": false,
      "t": 93338.10230729161,
      "d": 3705.3495468749898,
      "v": 70
    },
    {
      "midi": 64,
      "hit": false,
      "t": 97147.6183072916,
      "d": 1815.4724687499984,
      "v": 68
    },
    {
      "midi": 67,
      "hit": false,
      "t": 97147.6183072916,
      "d": 2807.5339270833356,
      "v": 68
    },
    {
      "midi": 52,
      "hit": false,
      "t": 97147.6183072916,
      "d": 3159.715744791669,
      "v": 74
    },
    {
      "midi": 64,
      "hit": false,
      "t": 99052.3763072916,
      "d": 858.1331614583323,
      "v": 48
    },
    {
      "midi": 64,
      "hit": false,
      "t": 100004.7553072916,
      "d": 644.8399479166546,
      "v": 58
    },
    {
      "midi": 67,
      "hit": false,
      "t": 100004.7553072916,
      "d": 753.9667083333188,
      "v": 52
    },
    {
      "midi": 52,
      "hit": false,
      "t": 100480.9448072916,
      "d": 381.94366145832464,
      "v": 52
    },
    {
      "midi": 61,
      "hit": false,
      "t": 100957.13430729159,
      "d": 2559.5185625000013,
      "v": 28
    },
    {
      "midi": 45,
      "hit": false,
      "t": 100957.13430729159,
      "d": 3174.5966666666645,
      "v": 70
    },
    {
      "midi": 64,
      "hit": false,
      "t": 100962.09461458326,
      "d": 2663.6850156250002,
      "v": 74
    },
    {
      "midi": 69,
      "hit": false,
      "t": 102861.8923072916,
      "d": 1547.6158749999886,
      "v": 36
    },
    {
      "midi": 61,
      "hit": false,
      "t": 103814.2713072916,
      "d": 461.30857812499744,
      "v": 32
    },
    {
      "midi": 64,
      "hit": false,
      "t": 103814.2713072916,
      "d": 585.3162604166573,
      "v": 60
    },
    {
      "midi": 45,
      "hit": false,
      "t": 104290.46080729159,
      "d": 332.3405885416578,
      "v": 50
    },
    {
      "midi": 66,
      "hit": false,
      "t": 104766.65030729158,
      "d": 882.934697916673,
      "v": 52
    },
    {
      "midi": 50,
      "hit": false,
      "t": 104766.65030729158,
      "d": 1240.0768229166715,
      "v": 62
    },
    {
      "midi": 62,
      "hit": false,
      "t": 105719.02930729158,
      "d": 758.9270156250132,
      "v": 34
    },
    {
      "midi": 66,
      "hit": false,
      "t": 105719.02930729158,
      "d": 793.6491666666843,
      "v": 38
    },
    {
      "midi": 50,
      "hit": false,
      "t": 106195.21880729159,
      "d": 446.4276562500163,
      "v": 38
    },
    {
      "midi": 61,
      "hit": false,
      "t": 106671.40830729161,
      "d": 813.4903958333307,
      "v": 52
    },
    {
      "midi": 66,
      "hit": false,
      "t": 106671.40830729161,
      "d": 833.3316249999916,
      "v": 44
    },
    {
      "midi": 42,
      "hit": false,
      "t": 106671.40830729161,
      "d": 1289.6798958333238,
      "v": 36
    },
    {
      "midi": 61,
      "hit": false,
      "t": 107623.7873072916,
      "d": 436.5070416666713,
      "v": 84
    },
    {
      "midi": 66,
      "hit": false,
      "t": 107623.7873072916,
      "d": 515.8719583333441,
      "v": 66
    },
    {
      "midi": 42,
      "hit": false,
      "t": 108099.9768072916,
      "d": 446.42765625000175,
      "v": 66
    },
    {
      "midi": 62,
      "hit": false,
      "t": 108576.16630729161,
      "d": 833.3316250000062,
      "v": 62
    },
    {
      "midi": 66,
      "hit": false,
      "t": 108576.16630729161,
      "d": 858.1331614583323,
      "v": 44
    },
    {
      "midi": 47,
      "hit": false,
      "t": 108576.16630729161,
      "d": 3263.882197916668,
      "v": 74
    },
    {
      "midi": 62,
      "hit": false,
      "t": 109528.54530729161,
      "d": 753.9667083333334,
      "v": 48
    },
    {
      "midi": 66,
      "hit": false,
      "t": 109528.54530729161,
      "d": 793.6491666666698,
      "v": 42
    },
    {
      "midi": 62,
      "hit": false,
      "t": 110480.92430729161,
      "d": 833.3316250000062,
      "v": 48
    },
    {
      "midi": 66,
      "hit": false,
      "t": 110480.92430729161,
      "d": 838.2919322916714,
      "v": 30
    },
    {
      "midi": 62,
      "hit": false,
      "t": 111433.30330729162,
      "d": 793.6491666666552,
      "v": 44
    },
    {
      "midi": 66,
      "hit": false,
      "t": 111433.30330729162,
      "d": 863.093468749983,
      "v": 38
    },
    {
      "midi": 47,
      "hit": false,
      "t": 111909.49280729161,
      "d": 367.06273958332895,
      "v": 34
    },
    {
      "midi": 62,
      "hit": false,
      "t": 112385.6823072916,
      "d": 773.8079374999943,
      "v": 66
    },
    {
      "midi": 67,
      "hit": false,
      "t": 112385.6823072916,
      "d": 803.5697812500002,
      "v": 70
    },
    {
      "midi": 43,
      "hit": false,
      "t": 112385.6823072916,
      "d": 3134.914208333328,
      "v": 62
    },
    {
      "midi": 67,
      "hit": false,
      "t": 113338.0613072916,
      "d": 793.6491666666698,
      "v": 68
    },
    {
      "midi": 62,
      "hit": false,
      "t": 113338.0613072916,
      "d": 808.5300885416655,
      "v": 52
    },
    {
      "midi": 62,
      "hit": false,
      "t": 114290.4403072916,
      "d": 753.9667083333334,
      "v": 52
    },
    {
      "midi": 67,
      "hit": false,
      "t": 114290.4403072916,
      "d": 778.7682447916595,
      "v": 60
    },
    {
      "midi": 62,
      "hit": false,
      "t": 115242.81930729159,
      "d": 739.0857864583377,
      "v": 62
    },
    {
      "midi": 67,
      "hit": false,
      "t": 115242.81930729159,
      "d": 793.6491666666698,
      "v": 80
    },
    {
      "midi": 43,
      "hit": false,
      "t": 115719.0088072916,
      "d": 411.7055052083306,
      "v": 58
    },
    {
      "midi": 64,
      "hit": false,
      "t": 116195.19830729159,
      "d": 803.5697812500002,
      "v": 70
    },
    {
      "midi": 67,
      "hit": false,
      "t": 116195.19830729159,
      "d": 833.3316250000062,
      "v": 62
    },
    {
      "midi": 52,
      "hit": false,
      "t": 116195.19830729159,
      "d": 3095.2317499999917,
      "v": 62
    },
    {
      "midi": 64,
      "hit": false,
      "t": 117147.57730729159,
      "d": 863.0934687499976,
      "v": 62
    },
    {
      "midi": 67,
      "hit": false,
      "t": 117147.57730729159,
      "d": 877.9743906249932,
      "v": 62
    },
    {
      "midi": 64,
      "hit": false,
      "t": 118099.95630729158,
      "d": 763.8873229166638,
      "v": 68
    },
    {
      "midi": 67,
      "hit": false,
      "t": 118099.95630729158,
      "d": 803.5697812500002,
      "v": 68
    },
    {
      "midi": 67,
      "hit": false,
      "t": 119052.33530729158,
      "d": 654.7605625000142,
      "v": 70
    },
    {
      "midi": 64,
      "hit": false,
      "t": 119052.33530729158,
      "d": 813.4903958333452,
      "v": 66
    },
    {
      "midi": 52,
      "hit": false,
      "t": 119528.52480729159,
      "d": 525.7925729166745,
      "v": 66
    },
    {
      "midi": 64,
      "hit": false,
      "t": 120004.7143072916,
      "d": 729.1651718750072,
      "v": 80
    },
    {
      "midi": 61,
      "hit": false,
      "t": 120004.7143072916,
      "d": 739.0857864583377,
      "v": 52
    },
    {
      "midi": 45,
      "hit": false,
      "t": 120004.7143072916,
      "d": 3521.818177083347,
      "v": 70
    },
    {
      "midi": 61,
      "hit": false,
      "t": 120957.0933072916,
      "d": 729.1651718750072,
      "v": 30
    },
    {
      "midi": 64,
      "hit": false,
      "t": 120957.0933072916,
      "d": 753.9667083333334,
      "v": 70
    },
    {
      "midi": 61,
      "hit": false,
      "t": 121909.4723072916,
      "d": 1249.997437500002,
      "v": 38
    },
    {
      "midi": 64,
      "hit": false,
      "t": 121909.4723072916,
      "d": 1478.1715729166754,
      "v": 68
    },
    {
      "midi": 62,
      "hit": false,
      "t": 123814.23030729161,
      "d": 803.5697812500002,
      "v": 62
    },
    {
      "midi": 66,
      "hit": false,
      "t": 123814.23030729161,
      "d": 803.5697812500002,
      "v": 52
    },
    {
      "midi": 50,
      "hit": false,
      "t": 123814.23030729161,
      "d": 3110.112671875002,
      "v": 66
    },
    {
      "midi": 62,
      "hit": false,
      "t": 124766.60930729161,
      "d": 729.1651718749927,
      "v": 62
    },
    {
      "midi": 66,
      "hit": false,
      "t": 124766.60930729161,
      "d": 758.9270156249986,
      "v": 44
    },
    {
      "midi": 62,
      "hit": false,
      "t": 125718.98830729161,
      "d": 753.9667083333334,
      "v": 52
    },
    {
      "midi": 66,
      "hit": false,
      "t": 125718.98830729161,
      "d": 758.9270156249986,
      "v": 52
    },
    {
      "midi": 62,
      "hit": false,
      "t": 126671.36730729161,
      "d": 714.284249999997,
      "v": 58
    },
    {
      "midi": 66,
      "hit": false,
      "t": 126671.36730729161,
      "d": 714.284249999997,
      "v": 44
    },
    {
      "midi": 50,
      "hit": false,
      "t": 127147.5568072916,
      "d": 376.98335416667396,
      "v": 38
    },
    {
      "midi": 69,
      "hit": false,
      "t": 127623.74630729161,
      "d": 753.9667083333334,
      "v": 92
    },
    {
      "midi": 62,
      "hit": false,
      "t": 127623.74630729161,
      "d": 773.8079374999943,
      "v": 74
    },
    {
      "midi": 43,
      "hit": false,
      "t": 127623.74630729161,
      "d": 3189.477588541675,
      "v": 66
    },
    {
      "midi": 62,
      "hit": false,
      "t": 128576.12530729162,
      "d": 793.6491666666698,
      "v": 62
    },
    {
      "midi": 69,
      "hit": false,
      "t": 128576.12530729162,
      "d": 902.775927083334,
      "v": 84
    },
    {
      "midi": 62,
      "hit": false,
      "t": 129528.50430729162,
      "d": 739.0857864583377,
      "v": 42
    },
    {
      "midi": 67,
      "hit": false,
      "t": 129528.50430729162,
      "d": 793.6491666666698,
      "v": 66
    },
    {
      "midi": 62,
      "hit": false,
      "t": 130480.88330729162,
      "d": 768.8476302083436,
      "v": 50
    },
    {
      "midi": 67,
      "hit": false,
      "t": 130480.88330729162,
      "d": 808.5300885416655,
      "v": 60
    },
    {
      "midi": 43,
      "hit": false,
      "t": 130957.07280729162,
      "d": 446.42765625000175,
      "v": 40
    },
    {
      "midi": 67,
      "hit": false,
      "t": 131433.26230729162,
      "d": 793.6491666666698,
      "v": 68
    },
    {
      "midi": 52,
      "hit": false,
      "t": 131433.26230729162,
      "d": 3675.5877031250275,
      "v": 66
    },
    {
      "midi": 64,
      "hit": false,
      "t": 131438.2226145833,
      "d": 768.8476302083291,
      "v": 68
    },
    {
      "midi": 64,
      "hit": false,
      "t": 132385.64130729163,
      "d": 853.1728541666525,
      "v": 58
    },
    {
      "midi": 67,
      "hit": false,
      "t": 132385.64130729163,
      "d": 873.0140833333135,
      "v": 62
    },
    {
      "midi": 67,
      "hit": false,
      "t": 133338.02030729162,
      "d": 873.0140833333426,
      "v": 56
    },
    {
      "midi": 64,
      "hit": false,
      "t": 133338.02030729162,
      "d": 877.9743906250224,
      "v": 66
    },
    {
      "midi": 67,
      "hit": false,
      "t": 134290.39930729163,
      "d": 833.3316250000207,
      "v": 62
    },
    {
      "midi": 64,
      "hit": false,
      "t": 134290.39930729163,
      "d": 863.0934687500121,
      "v": 56
    },
    {
      "midi": 59,
      "hit": false,
      "t": 135242.77830729165,
      "d": 753.9667083333188,
      "v": 68
    },
    {
      "midi": 62,
      "hit": false,
      "t": 135242.77830729165,
      "d": 818.4507031249814,
      "v": 74
    },
    {
      "midi": 43,
      "hit": false,
      "t": 135242.77830729165,
      "d": 1269.8386666666484,
      "v": 60
    },
    {
      "midi": 59,
      "hit": false,
      "t": 136195.15730729164,
      "d": 654.7605625000142,
      "v": 68
    },
    {
      "midi": 62,
      "hit": false,
      "t": 136195.15730729164,
      "d": 714.2842500000261,
      "v": 66
    },
    {
      "midi": 43,
      "hit": false,
      "t": 136671.34680729164,
      "d": 357.14212500001304,
      "v": 50
    },
    {
      "midi": 64,
      "hit": false,
      "t": 137147.53630729165,
      "d": 416.6658124999958,
      "v": 66
    },
    {
      "midi": 61,
      "hit": false,
      "t": 137147.53630729165,
      "d": 560.5147239583312,
      "v": 78
    },
    {
      "midi": 45,
      "hit": false,
      "t": 137147.53630729165,
      "d": 1314.48143229165,
      "v": 84
    },
    {
      "midi": 62,
      "hit": false,
      "t": 137623.72580729166,
      "d": 426.58642708332627,
      "v": 70
    },
    {
      "midi": 61,
      "hit": false,
      "t": 138099.91530729164,
      "d": 644.8399479166837,
      "v": 52
    },
    {
      "midi": 64,
      "hit": false,
      "t": 138099.91530729164,
      "d": 679.5620989583549,
      "v": 78
    },
    {
      "midi": 45,
      "hit": false,
      "t": 138576.10480729165,
      "d": 416.6658125000249,
      "v": 68
    },
    {
      "midi": 62,
      "hit": false,
      "t": 139052.29430729168,
      "d": 778.7682447916595,
      "v": 66
    },
    {
      "midi": 66,
      "hit": false,
      "t": 139052.29430729168,
      "d": 793.6491666666698,
      "v": 48
    },
    {
      "midi": 50,
      "hit": false,
      "t": 139052.29430729168,
      "d": 3065.469906250015,
      "v": 74
    },
    {
      "midi": 62,
      "hit": false,
      "t": 140004.6733072917,
      "d": 843.2522395833221,
      "v": 62
    },
    {
      "midi": 66,
      "hit": false,
      "t": 140004.6733072917,
      "d": 892.8553124999744,
      "v": 38
    },
    {
      "midi": 62,
      "hit": false,
      "t": 140957.05230729168,
      "d": 773.8079375000088,
      "v": 52
    },
    {
      "midi": 66,
      "hit": false,
      "t": 140957.05230729168,
      "d": 773.8079375000088,
      "v": 42
    },
    {
      "midi": 62,
      "hit": false,
      "t": 141909.4313072917,
      "d": 753.9667083333479,
      "v": 62
    },
    {
      "midi": 66,
      "hit": false,
      "t": 141909.4313072917,
      "d": 808.53008854168,
      "v": 44
    },
    {
      "midi": 50,
      "hit": false,
      "t": 142385.6208072917,
      "d": 426.58642708332627,
      "v": 60
    },
    {
      "midi": 62,
      "hit": false,
      "t": 142861.8103072917,
      "d": 803.5697812500002,
      "v": 60
    },
    {
      "midi": 67,
      "hit": false,
      "t": 142861.8103072917,
      "d": 853.1728541666525,
      "v": 74
    },
    {
      "midi": 43,
      "hit": false,
      "t": 142861.8103072917,
      "d": 3873.999994791666,
      "v": 58
    },
    {
      "midi": 62,
      "hit": false,
      "t": 143814.18930729167,
      "d": 882.934697916673,
      "v": 62
    },
    {
      "midi": 67,
      "hit": false,
      "t": 143814.18930729167,
      "d": 917.6568489583442,
      "v": 74
    },
    {
      "midi": 62,
      "hit": false,
      "t": 144766.5683072917,
      "d": 798.6094739583205,
      "v": 56
    },
    {
      "midi": 67,
      "hit": false,
      "t": 144766.5683072917,
      "d": 858.1331614583323,
      "v": 66
    },
    {
      "midi": 62,
      "hit": false,
      "t": 145718.94730729167,
      "d": 833.3316249999916,
      "v": 62
    },
    {
      "midi": 67,
      "hit": false,
      "t": 145718.94730729167,
      "d": 848.2125468750019,
      "v": 62
    },
    {
      "midi": 64,
      "hit": false,
      "t": 146671.3263072917,
      "d": 714.284249999997,
      "v": 70
    },
    {
      "midi": 67,
      "hit": false,
      "t": 146671.3263072917,
      "d": 758.9270156249986,
      "v": 70
    },
    {
      "midi": 52,
      "hit": false,
      "t": 146671.3263072917,
      "d": 3611.1037083333067,
      "v": 66
    },
    {
      "midi": 64,
      "hit": false,
      "t": 147623.70530729168,
      "d": 778.7682447916595,
      "v": 58
    },
    {
      "midi": 67,
      "hit": false,
      "t": 147623.70530729168,
      "d": 823.4110104166612,
      "v": 58
    },
    {
      "midi": 67,
      "hit": false,
      "t": 148576.08430729166,
      "d": 739.0857864583377,
      "v": 52
    },
    {
      "midi": 64,
      "hit": false,
      "t": 148576.08430729166,
      "d": 798.6094739583496,
      "v": 66
    },
    {
      "midi": 64,
      "hit": false,
      "t": 149528.46330729168,
      "d": 535.7131874999905,
      "v": 62
    },
    {
      "midi": 67,
      "hit": false,
      "t": 149528.46330729168,
      "d": 664.6811770833156,
      "v": 62
    },
    {
      "midi": 59,
      "hit": false,
      "t": 150480.84230729166,
      "d": 620.038411458343,
      "v": 62
    },
    {
      "midi": 43,
      "hit": false,
      "t": 150480.84230729166,
      "d": 1195.4340572916553,
      "v": 62
    },
    {
      "midi": 62,
      "hit": false,
      "t": 150485.80261458334,
      "d": 709.3239427083172,
      "v": 74
    },
    {
      "midi": 59,
      "hit": false,
      "t": 151433.22130729165,
      "d": 605.1574895833328,
      "v": 52
    },
    {
      "midi": 62,
      "hit": false,
      "t": 151433.22130729165,
      "d": 808.53008854168,
      "v": 74
    },
    {
      "midi": 43,
      "hit": false,
      "t": 151909.41080729166,
      "d": 411.70550520834513,
      "v": 74
    },
    {
      "midi": 61,
      "hit": false,
      "t": 152385.60030729166,
      "d": 719.2445572916768,
      "v": 52
    },
    {
      "midi": 64,
      "hit": false,
      "t": 152385.60030729166,
      "d": 813.4903958333307,
      "v": 74
    },
    {
      "midi": 45,
      "hit": false,
      "t": 152385.60030729166,
      "d": 1180.553135416645,
      "v": 66
    },
    {
      "midi": 61,
      "hit": false,
      "t": 153337.97930729165,
      "d": 773.8079374999797,
      "v": 56
    },
    {
      "midi": 64,
      "hit": false,
      "t": 153337.97930729165,
      "d": 833.3316249999916,
      "v": 68
    },
    {
      "midi": 45,
      "hit": false,
      "t": 153814.16880729163,
      "d": 381.94366145835374,
      "v": 50
    },
    {
      "midi": 66,
      "hit": false,
      "t": 154290.35830729164,
      "d": 2936.5019166666607,
      "v": 78
    },
    {
      "midi": 47,
      "hit": false,
      "t": 154290.35830729164,
      "d": 3670.6273958333186,
      "v": 96
    },
    {
      "midi": 59,
      "hit": false,
      "t": 154295.31861458332,
      "d": 2857.136999999988,
      "v": 74
    },
    {
      "midi": 64,
      "hit": false,
      "t": 158099.8743072916,
      "d": 763.8873229166784,
      "v": 70
    },
    {
      "midi": 68,
      "hit": false,
      "t": 158099.8743072916,
      "d": 808.53008854168,
      "v": 44
    },
    {
      "midi": 52,
      "hit": false,
      "t": 158099.8743072916,
      "d": 3710.3098541666986,
      "v": 66
    },
    {
      "midi": 64,
      "hit": false,
      "t": 159052.25330729163,
      "d": 753.9667083333188,
      "v": 58
    },
    {
      "midi": 68,
      "hit": false,
      "t": 159052.25330729163,
      "d": 793.6491666666407,
      "v": 48
    },
    {
      "midi": 64,
      "hit": false,
      "t": 160004.6323072916,
      "d": 783.7285520833393,
      "v": 68
    },
    {
      "midi": 68,
      "hit": false,
      "t": 160004.6323072916,
      "d": 818.4507031250105,
      "v": 36
    },
    {
      "midi": 64,
      "hit": false,
      "t": 160957.01130729163,
      "d": 773.8079375000088,
      "v": 66
    },
    {
      "midi": 68,
      "hit": false,
      "t": 160957.01130729163,
      "d": 853.1728541666816,
      "v": 48
    },
    {
      "midi": 64,
      "hit": false,
      "t": 161909.39030729164,
      "d": 719.2445572916768,
      "v": 66
    },
    {
      "midi": 71,
      "hit": false,
      "t": 161909.39030729164,
      "d": 739.0857864583377,
      "v": 78
    },
    {
      "midi": 45,
      "hit": false,
      "t": 161909.39030729164,
      "d": 3184.5172812500386,
      "v": 62
    },
    {
      "midi": 64,
      "hit": false,
      "t": 162861.76930729166,
      "d": 793.6491666666698,
      "v": 62
    },
    {
      "midi": 71,
      "hit": false,
      "t": 162861.76930729166,
      "d": 882.934697916673,
      "v": 74
    },
    {
      "midi": 64,
      "hit": false,
      "t": 163814.14830729167,
      "d": 763.8873229166784,
      "v": 52
    },
    {
      "midi": 69,
      "hit": false,
      "t": 163814.14830729167,
      "d": 778.7682447916886,
      "v": 52
    },
    {
      "midi": 64,
      "hit": false,
      "t": 164766.5273072917,
      "d": 615.0781041666341,
      "v": 66
    },
    {
      "midi": 69,
      "hit": false,
      "t": 164766.5273072917,
      "d": 892.8553124999744,
      "v": 66
    },
    {
      "midi": 45,
      "hit": false,
      "t": 165242.71680729167,
      "d": 446.4276562499872,
      "v": 2
    },
    {
      "midi": 66,
      "hit": false,
      "t": 165718.90630729165,
      "d": 406.74519791666535,
      "v": 60
    },
    {
      "midi": 61,
      "hit": false,
      "t": 165718.90630729165,
      "d": 833.3316250000207,
      "v": 38
    },
    {
      "midi": 54,
      "hit": false,
      "t": 165718.90630729165,
      "d": 3100.192057291657,
      "v": 52
    },
    {
      "midi": 66,
      "hit": false,
      "t": 166195.09580729165,
      "d": 124.00768229167443,
      "v": 8
    },
    {
      "midi": 61,
      "hit": false,
      "t": 166671.28530729166,
      "d": 704.3636354166665,
      "v": 48
    },
    {
      "midi": 66,
      "hit": false,
      "t": 166671.28530729166,
      "d": 753.9667083333188,
      "v": 52
    },
    {
      "midi": 61,
      "hit": false,
      "t": 167623.66430729165,
      "d": 798.6094739583205,
      "v": 48
    },
    {
      "midi": 66,
      "hit": false,
      "t": 167623.66430729165,
      "d": 858.1331614583323,
      "v": 44
    },
    {
      "midi": 61,
      "hit": false,
      "t": 168576.04330729163,
      "d": 575.3956458333414,
      "v": 56
    },
    {
      "midi": 66,
      "hit": false,
      "t": 168576.04330729163,
      "d": 659.7208697916649,
      "v": 44
    },
    {
      "midi": 54,
      "hit": false,
      "t": 169052.23280729164,
      "d": 277.77720833331114,
      "v": 44
    },
    {
      "midi": 61,
      "hit": false,
      "t": 169528.42230729162,
      "d": 704.3636354166665,
      "v": 78
    },
    {
      "midi": 64,
      "hit": false,
      "t": 169528.42230729162,
      "d": 739.0857864583377,
      "v": 84
    },
    {
      "midi": 45,
      "hit": false,
      "t": 169528.42230729162,
      "d": 1170.6325208333437,
      "v": 62
    },
    {
      "midi": 61,
      "hit": false,
      "t": 170480.80130729164,
      "d": 481.14980729168747,
      "v": 44
    },
    {
      "midi": 64,
      "hit": false,
      "t": 170480.80130729164,
      "d": 520.8322656250093,
      "v": 68
    },
    {
      "midi": 45,
      "hit": false,
      "t": 170956.99080729164,
      "d": 416.6658124999958,
      "v": 68
    },
    {
      "midi": 63,
      "hit": false,
      "t": 171433.18030729165,
      "d": 699.4033281249867,
      "v": 60
    },
    {
      "midi": 66,
      "hit": false,
      "t": 171433.18030729165,
      "d": 729.1651718749781,
      "v": 44
    },
    {
      "midi": 47,
      "hit": false,
      "t": 171433.18030729165,
      "d": 1140.8706770833232,
      "v": 68
    },
    {
      "midi": 63,
      "hit": false,
      "t": 172385.55930729164,
      "d": 476.1895000000077,
      "v": 44
    },
    {
      "midi": 66,
      "hit": false,
      "t": 172385.55930729164,
      "d": 540.6734947916702,
      "v": 42
    },
    {
      "midi": 47,
      "hit": false,
      "t": 172861.74880729165,
      "d": 436.50704166665673,
      "v": 84
    },
    {
      "midi": 64,
      "hit": false,
      "t": 173337.93830729162,
      "d": 783.7285520833393,
      "v": 70
    },
    {
      "midi": 68,
      "hit": false,
      "t": 173337.93830729162,
      "d": 808.53008854168,
      "v": 60
    },
    {
      "midi": 52,
      "hit": false,
      "t": 173337.93830729162,
      "d": 3080.3508281250542,
      "v": 74
    },
    {
      "midi": 64,
      "hit": false,
      "t": 174290.31730729164,
      "d": 803.5697812500002,
      "v": 68
    },
    {
      "midi": 68,
      "hit": false,
      "t": 174290.31730729164,
      "d": 818.4507031250105,
      "v": 44
    },
    {
      "midi": 64,
      "hit": false,
      "t": 175242.69630729166,
      "d": 793.6491666666698,
      "v": 66
    },
    {
      "midi": 68,
      "hit": false,
      "t": 175242.69630729166,
      "d": 798.6094739583496,
      "v": 42
    },
    {
      "midi": 68,
      "hit": false,
      "t": 176195.07530729167,
      "d": 758.9270156249986,
      "v": 44
    },
    {
      "midi": 64,
      "hit": false,
      "t": 176195.07530729167,
      "d": 833.3316249999916,
      "v": 62
    },
    {
      "midi": 52,
      "hit": false,
      "t": 176671.26480729168,
      "d": 421.6261197916465,
      "v": 60
    },
    {
      "midi": 71,
      "hit": false,
      "t": 177147.45430729166,
      "d": 714.284249999997,
      "v": 84
    },
    {
      "midi": 61,
      "hit": false,
      "t": 177147.45430729166,
      "d": 758.9270156249986,
      "v": 66
    },
    {
      "midi": 45,
      "hit": false,
      "t": 177147.45430729166,
      "d": 3110.1126718749583,
      "v": 66
    },
    {
      "midi": 71,
      "hit": false,
      "t": 178099.83330729164,
      "d": 739.0857864583377,
      "v": 62
    },
    {
      "midi": 61,
      "hit": false,
      "t": 178099.83330729164,
      "d": 768.8476302083291,
      "v": 52
    },
    {
      "midi": 69,
      "hit": false,
      "t": 179052.21230729163,
      "d": 734.1254791666579,
      "v": 78
    },
    {
      "midi": 61,
      "hit": false,
      "t": 179052.21230729163,
      "d": 768.8476302083291,
      "v": 48
    },
    {
      "midi": 61,
      "hit": false,
      "t": 180004.59130729162,
      "d": 823.4110104166612,
      "v": 42
    },
    {
      "midi": 69,
      "hit": false,
      "t": 180004.59130729162,
      "d": 838.2919322916714,
      "v": 80
    },
    {
      "midi": 45,
      "hit": false,
      "t": 180480.78080729162,
      "d": 252.97567187499953,
      "v": 60
    },
    {
      "midi": 66,
      "hit": false,
      "t": 180956.97030729163,
      "d": 406.74519791666535,
      "v": 78
    },
    {
      "midi": 61,
      "hit": false,
      "t": 180956.97030729163,
      "d": 694.443020833336,
      "v": 48
    },
    {
      "midi": 54,
      "hit": false,
      "t": 180956.97030729163,
      "d": 2222.2176666666637,
      "v": 44
    },
    {
      "midi": 61,
      "hit": false,
      "t": 181909.34930729165,
      "d": 773.8079375000088,
      "v": 66
    },
    {
      "midi": 66,
      "hit": false,
      "t": 181909.34930729165,
      "d": 813.4903958333307,
      "v": 48
    },
    {
      "midi": 61,
      "hit": false,
      "t": 182861.72830729163,
      "d": 818.4507031250105,
      "v": 84
    },
    {
      "midi": 66,
      "hit": false,
      "t": 182861.72830729163,
      "d": 833.3316250000207,
      "v": 44
    },
    {
      "midi": 54,
      "hit": false,
      "t": 183337.91780729164,
      "d": 600.1971822916821,
      "v": 12
    },
    {
      "midi": 61,
      "hit": false,
      "t": 183814.10730729165,
      "d": 605.1574895833328,
      "v": 52
    },
    {
      "midi": 66,
      "hit": false,
      "t": 183814.10730729165,
      "d": 634.9193333333242,
      "v": 48
    },
    {
      "midi": 54,
      "hit": false,
      "t": 184290.29680729166,
      "d": 208.3329062499688,
      "v": 52
    },
    {
      "midi": 61,
      "hit": false,
      "t": 184766.48630729163,
      "d": 704.3636354166665,
      "v": 56
    },
    {
      "midi": 64,
      "hit": false,
      "t": 184766.48630729163,
      "d": 798.6094739583205,
      "v": 80
    },
    {
      "midi": 45,
      "hit": false,
      "t": 184766.48630729163,
      "d": 1170.6325208333146,
      "v": 68
    },
    {
      "midi": 61,
      "hit": false,
      "t": 185718.86530729162,
      "d": 436.50704166665673,
      "v": 44
    },
    {
      "midi": 64,
      "hit": false,
      "t": 185718.86530729162,
      "d": 456.34827083331766,
      "v": 74
    },
    {
      "midi": 45,
      "hit": false,
      "t": 186195.0548072916,
      "d": 421.6261197916756,
      "v": 58
    },
    {
      "midi": 63,
      "hit": false,
      "t": 186671.2443072916,
      "d": 778.7682447916595,
      "v": 60
    },
    {
      "midi": 66,
      "hit": false,
      "t": 186671.2443072916,
      "d": 798.6094739583205,
      "v": 60
    },
    {
      "midi": 47,
      "hit": false,
      "t": 186671.2443072916,
      "d": 1334.322661458311,
      "v": 52
    },
    {
      "midi": 63,
      "hit": false,
      "t": 187623.6233072916,
      "d": 421.6261197916465,
      "v": 44
    },
    {
      "midi": 66,
      "hit": false,
      "t": 187623.6233072916,
      "d": 540.6734947916411,
      "v": 36
    },
    {
      "midi": 47,
      "hit": false,
      "t": 188099.81280729157,
      "d": 436.50704166665673,
      "v": 46
    },
    {
      "midi": 64,
      "hit": false,
      "t": 188576.00230729155,
      "d": 773.8079375000088,
      "v": 74
    },
    {
      "midi": 68,
      "hit": false,
      "t": 188576.00230729155,
      "d": 793.6491666666698,
      "v": 60
    },
    {
      "midi": 52,
      "hit": false,
      "t": 188576.00230729155,
      "d": 3095.231749999977,
      "v": 68
    },
    {
      "midi": 64,
      "hit": false,
      "t": 189528.38130729157,
      "d": 719.2445572916768,
      "v": 62
    },
    {
      "midi": 68,
      "hit": false,
      "t": 189528.38130729157,
      "d": 803.5697812500002,
      "v": 28
    },
    {
      "midi": 64,
      "hit": false,
      "t": 190480.76030729155,
      "d": 803.5697812500002,
      "v": 66
    },
    {
      "midi": 68,
      "hit": false,
      "t": 190480.76030729155,
      "d": 843.2522395833221,
      "v": 48
    },
    {
      "midi": 64,
      "hit": false,
      "t": 191433.13930729154,
      "d": 605.1574895833037,
      "v": 66
    },
    {
      "midi": 68,
      "hit": false,
      "t": 191433.13930729154,
      "d": 699.4033281249576,
      "v": 48
    },
    {
      "midi": 52,
      "hit": false,
      "t": 191909.32880729152,
      "d": 421.6261197916465,
      "v": 70
    },
    {
      "midi": 71,
      "hit": false,
      "t": 192385.5183072915,
      "d": 714.284249999997,
      "v": 62
    },
    {
      "midi": 64,
      "hit": false,
      "t": 192385.5183072915,
      "d": 753.9667083333188,
      "v": 70
    },
    {
      "midi": 45,
      "hit": false,
      "t": 192385.5183072915,
      "d": 3110.1126718749583,
      "v": 62
    },
    {
      "midi": 71,
      "hit": false,
      "t": 193337.89730729148,
      "d": 739.0857864583377,
      "v": 62
    },
    {
      "midi": 64,
      "hit": false,
      "t": 193337.89730729148,
      "d": 768.8476302083291,
      "v": 70
    },
    {
      "midi": 69,
      "hit": false,
      "t": 194290.27630729147,
      "d": 729.1651718750072,
      "v": 74
    },
    {
      "midi": 64,
      "hit": false,
      "t": 194290.27630729147,
      "d": 768.8476302083291,
      "v": 68
    },
    {
      "midi": 64,
      "hit": false,
      "t": 195242.65530729145,
      "d": 605.1574895833328,
      "v": 74
    },
    {
      "midi": 69,
      "hit": false,
      "t": 195242.65530729145,
      "d": 873.0140833333426,
      "v": 74
    },
    {
      "midi": 45,
      "hit": false,
      "t": 195718.84480729146,
      "d": 287.6978229166707,
      "v": 68
    },
    {
      "midi": 69,
      "hit": false,
      "t": 196195.03430729147,
      "d": 793.6491666666698,
      "v": 68
    },
    {
      "midi": 61,
      "hit": false,
      "t": 196195.03430729147,
      "d": 833.3316249999916,
      "v": 48
    },
    {
      "midi": 54,
      "hit": false,
      "t": 196195.03430729147,
      "d": 3120.033286458347,
      "v": 56
    },
    {
      "midi": 61,
      "hit": false,
      "t": 197147.41330729146,
      "d": 763.8873229166784,
      "v": 66
    },
    {
      "midi": 69,
      "hit": false,
      "t": 197147.41330729146,
      "d": 778.7682447916886,
      "v": 74
    },
    {
      "midi": 66,
      "hit": false,
      "t": 198099.79230729147,
      "d": 610.1177968750126,
      "v": 52
    },
    {
      "midi": 61,
      "hit": false,
      "t": 198099.79230729147,
      "d": 793.6491666666698,
      "v": 44
    },
    {
      "midi": 69,
      "hit": false,
      "t": 198099.79230729147,
      "d": 798.6094739583496,
      "v": 70
    },
    {
      "midi": 69,
      "hit": false,
      "t": 199052.1713072915,
      "d": 530.7528802083398,
      "v": 78
    },
    {
      "midi": 61,
      "hit": false,
      "t": 199052.1713072915,
      "d": 719.2445572916768,
      "v": 66
    },
    {
      "midi": 54,
      "hit": false,
      "t": 199528.3608072915,
      "d": 292.6581302083214,
      "v": 48
    },
    {
      "midi": 61,
      "hit": false,
      "t": 200004.55030729147,
      "d": 858.1331614583323,
      "v": 52
    },
    {
      "midi": 64,
      "hit": false,
      "t": 200004.55030729147,
      "d": 897.8156197916542,
      "v": 78
    },
    {
      "midi": 45,
      "hit": false,
      "t": 200004.55030729147,
      "d": 1309.5211249999993,
      "v": 70
    },
    {
      "midi": 61,
      "hit": false,
      "t": 200956.92930729146,
      "d": 491.0704218750179,
      "v": 72
    },
    {
      "midi": 64,
      "hit": false,
      "t": 200956.92930729146,
      "d": 515.8719583333586,
      "v": 74
    },
    {
      "midi": 45,
      "hit": false,
      "t": 201433.11880729147,
      "d": 386.9039687500044,
      "v": 74
    },
    {
      "midi": 63,
      "hit": false,
      "t": 201909.30830729147,
      "d": 436.50704166665673,
      "v": 78
    },
    {
      "midi": 66,
      "hit": false,
      "t": 201909.30830729147,
      "d": 912.6965416666353,
      "v": 78
    },
    {
      "midi": 47,
      "hit": false,
      "t": 201909.30830729147,
      "d": 1279.7592812499497,
      "v": 78
    },
    {
      "midi": 64,
      "hit": false,
      "t": 202385.49780729145,
      "d": 381.94366145832464,
      "v": 66
    },
    {
      "midi": 63,
      "hit": false,
      "t": 202861.68730729143,
      "d": 565.4750312499818,
      "v": 52
    },
    {
      "midi": 66,
      "hit": false,
      "t": 202861.68730729143,
      "d": 833.3316249999916,
      "v": 56
    },
    {
      "midi": 47,
      "hit": false,
      "t": 203337.8768072914,
      "d": 396.8245833333349,
      "v": 70
    },
    {
      "midi": 64,
      "hit": false,
      "t": 203814.06630729142,
      "d": 753.9667083333188,
      "v": 80
    },
    {
      "midi": 68,
      "hit": false,
      "t": 203814.06630729142,
      "d": 793.6491666666407,
      "v": 48
    },
    {
      "midi": 52,
      "hit": false,
      "t": 203814.06630729142,
      "d": 3070.4302135416656,
      "v": 74
    },
    {
      "midi": 64,
      "hit": false,
      "t": 204766.4453072914,
      "d": 793.6491666666698,
      "v": 66
    },
    {
      "midi": 68,
      "hit": false,
      "t": 204766.4453072914,
      "d": 833.3316249999916,
      "v": 42
    },
    {
      "midi": 68,
      "hit": false,
      "t": 205718.8243072914,
      "d": 654.7605625000142,
      "v": 52
    },
    {
      "midi": 64,
      "hit": false,
      "t": 205718.8243072914,
      "d": 813.4903958333598,
      "v": 74
    },
    {
      "midi": 68,
      "hit": false,
      "t": 206671.2033072914,
      "d": 634.9193333333533,
      "v": 56
    },
    {
      "midi": 64,
      "hit": false,
      "t": 206676.16361458309,
      "d": 694.443020833336,
      "v": 68
    },
    {
      "midi": 52,
      "hit": false,
      "t": 207147.3928072914,
      "d": 381.94366145835374,
      "v": 52
    },
    {
      "midi": 71,
      "hit": false,
      "t": 207623.58230729142,
      "d": 545.6338020833209,
      "v": 74
    },
    {
      "midi": 61,
      "hit": false,
      "t": 207623.58230729142,
      "d": 694.443020833307,
      "v": 44
    },
    {
      "midi": 49,
      "hit": false,
      "t": 207623.58230729142,
      "d": 1810.5121614583186,
      "v": 52
    },
    {
      "midi": 61,
      "hit": false,
      "t": 208575.9613072914,
      "d": 823.4110104166612,
      "v": 72
    },
    {
      "midi": 71,
      "hit": false,
      "t": 208575.9613072914,
      "d": 823.4110104166612,
      "v": 80
    },
    {
      "midi": 61,
      "hit": false,
      "t": 209528.3403072914,
      "d": 704.3636354166665,
      "v": 60
    },
    {
      "midi": 69,
      "hit": false,
      "t": 209528.3403072914,
      "d": 714.284249999997,
      "v": 74
    },
    {
      "midi": 45,
      "hit": false,
      "t": 209528.3403072914,
      "d": 1160.7119062499842,
      "v": 56
    },
    {
      "midi": 69,
      "hit": false,
      "t": 210480.71930729138,
      "d": 491.0704218749888,
      "v": 84
    },
    {
      "midi": 61,
      "hit": false,
      "t": 210480.71930729138,
      "d": 778.7682447916304,
      "v": 78
    },
    {
      "midi": 45,
      "hit": false,
      "t": 210718.81405729137,
      "d": 436.50704166665673,
      "v": 56
    },
    {
      "midi": 54,
      "hit": false,
      "t": 211195.00355729135,
      "d": 3179.556973958359,
      "v": 44
    },
    {
      "midi": 66,
      "hit": false,
      "t": 211433.09830729134,
      "d": 605.1574895833328,
      "v": 48
    },
    {
      "midi": 61,
      "hit": false,
      "t": 211433.09830729134,
      "d": 719.2445572916768,
      "v": 78
    },
    {
      "midi": 61,
      "hit": false,
      "t": 212385.47730729135,
      "d": 773.8079375000088,
      "v": 56
    },
    {
      "midi": 66,
      "hit": false,
      "t": 212385.47730729135,
      "d": 798.6094739583496,
      "v": 56
    },
    {
      "midi": 61,
      "hit": false,
      "t": 213337.85630729137,
      "d": 719.2445572916768,
      "v": 60
    },
    {
      "midi": 66,
      "hit": false,
      "t": 213337.85630729137,
      "d": 753.9667083333479,
      "v": 60
    },
    {
      "midi": 66,
      "hit": false,
      "t": 214290.23530729138,
      "d": 466.2688854166481,
      "v": 52
    },
    {
      "midi": 61,
      "hit": false,
      "t": 214290.23530729138,
      "d": 515.8719583333004,
      "v": 84
    },
    {
      "midi": 54,
      "hit": false,
      "t": 214766.42480729136,
      "d": 262.89628645833,
      "v": 42
    },
    {
      "midi": 57,
      "hit": false,
      "t": 215242.61430729137,
      "d": 719.2445572916768,
      "v": 74
    },
    {
      "midi": 61,
      "hit": false,
      "t": 215242.61430729137,
      "d": 783.7285520833393,
      "v": 48
    },
    {
      "midi": 45,
      "hit": false,
      "t": 215242.61430729137,
      "d": 1195.4340572916844,
      "v": 70
    },
    {
      "midi": 57,
      "hit": false,
      "t": 216194.99330729138,
      "d": 426.58642708332627,
      "v": 68
    },
    {
      "midi": 61,
      "hit": false,
      "t": 216194.99330729138,
      "d": 446.4276562499872,
      "v": 84
    },
    {
      "midi": 45,
      "hit": false,
      "t": 216671.18280729136,
      "d": 426.58642708332627,
      "v": 66
    },
    {
      "midi": 63,
      "hit": false,
      "t": 217147.37230729134,
      "d": 386.9039687500044,
      "v": 106
    },
    {
      "midi": 59,
      "hit": false,
      "t": 217147.37230729134,
      "d": 1329.3623541666893,
      "v": 80
    },
    {
      "midi": 47,
      "hit": false,
      "t": 217147.37230729134,
      "d": 1825.3930833333288,
      "v": 74
    },
    {
      "midi": 64,
      "hit": false,
      "t": 217623.56180729135,
      "d": 396.8245833333349,
      "v": 88
    },
    {
      "midi": 66,
      "hit": false,
      "t": 218099.75130729136,
      "d": 446.4276562500163,
      "v": 72
    },
    {
      "midi": 59,
      "hit": false,
      "t": 218575.94080729136,
      "d": 317.4596666666621,
      "v": 30
    },
    {
      "midi": 63,
      "hit": false,
      "t": 218575.94080729136,
      "d": 367.0627395833144,
      "v": 52
    },
    {
      "midi": 59,
      "hit": false,
      "t": 219052.13030729134,
      "d": 3427.5723385416786,
      "v": 74
    },
    {
      "midi": 64,
      "hit": false,
      "t": 219052.13030729134,
      "d": 3467.2547968750005,
      "v": 84
    },
    {
      "midi": 40,
      "hit": false,
      "t": 219052.13030729134,
      "d": 3571.421250000014,
      "v": 100
    }
  ]
}