{
  "jsonPath": "Rock/Neo-Progressive/I Collage/piano-piano-minnamorai-di-te.json",
  "path": "Rock\\Neo-Progressive\\I Collage\\Piano Piano MInnamorai Di Te.mid",
  "name": "Piano Piano MInnamorai Di Te",
  "difficulty": "Advanced",
  "bpm": 67.00025348429234,
  "notes": [
    {
      "midi": 47,
      "hit": false,
      "t": 3636.36,
      "d": 1427.5553906249993,
      "v": 84
    },
    {
      "midi": 54,
      "hit": false,
      "t": 3863.6325,
      "d": 1209.7525781249992,
      "v": 64
    },
    {
      "midi": 59,
      "hit": false,
      "t": 4090.905,
      "d": 807.2908593749985,
      "v": 76
    },
    {
      "midi": 62,
      "hit": false,
      "t": 4318.1775,
      "d": 234.37476562499978,
      "v": 56
    },
    {
      "midi": 61,
      "hit": false,
      "t": 4545.45,
      "d": 172.82179687499956,
      "v": 72
    },
    {
      "midi": 62,
      "hit": false,
      "t": 4772.722499999999,
      "d": 286.45804687500004,
      "v": 72
    },
    {
      "midi": 61,
      "hit": false,
      "t": 4999.994999999999,
      "d": 196.49601562500084,
      "v": 52
    },
    {
      "midi": 59,
      "hit": false,
      "t": 5227.2675,
      "d": 324.3367968749999,
      "v": 80
    },
    {
      "midi": 47,
      "hit": false,
      "t": 5454.54,
      "d": 1394.4114843749994,
      "v": 88
    },
    {
      "midi": 54,
      "hit": false,
      "t": 5681.8125,
      "d": 1162.404140624999,
      "v": 68
    },
    {
      "midi": 59,
      "hit": false,
      "t": 5909.085,
      "d": 712.5939843749993,
      "v": 88
    },
    {
      "midi": 62,
      "hit": false,
      "t": 6136.3575,
      "d": 262.7838281249997,
      "v": 76
    },
    {
      "midi": 61,
      "hit": false,
      "t": 6363.63,
      "d": 210.70054687499942,
      "v": 80
    },
    {
      "midi": 62,
      "hit": false,
      "t": 6590.902499999999,
      "d": 300.66257812500044,
      "v": 76
    },
    {
      "midi": 61,
      "hit": false,
      "t": 6818.174999999999,
      "d": 210.70054687500033,
      "v": 68
    },
    {
      "midi": 59,
      "hit": false,
      "t": 7045.447499999999,
      "d": 215.43539062499985,
      "v": 68
    },
    {
      "midi": 47,
      "hit": false,
      "t": 7272.719999999999,
      "d": 1550.6613281249993,
      "v": 88
    },
    {
      "midi": 55,
      "hit": false,
      "t": 7499.992499999999,
      "d": 1328.1236718749997,
      "v": 72
    },
    {
      "midi": 59,
      "hit": false,
      "t": 7727.264999999999,
      "d": 731.5333593750001,
      "v": 64
    },
    {
      "midi": 62,
      "hit": false,
      "t": 7954.537499999999,
      "d": 243.84445312499975,
      "v": 68
    },
    {
      "midi": 61,
      "hit": false,
      "t": 8181.8099999999995,
      "d": 234.37476562499978,
      "v": 76
    },
    {
      "midi": 62,
      "hit": false,
      "t": 8409.082499999999,
      "d": 262.7838281250006,
      "v": 68
    },
    {
      "midi": 61,
      "hit": false,
      "t": 8636.355,
      "d": 220.1702343750003,
      "v": 48
    },
    {
      "midi": 59,
      "hit": false,
      "t": 8863.6275,
      "d": 253.3141406249997,
      "v": 68
    },
    {
      "midi": 47,
      "hit": false,
      "t": 9090.9,
      "d": 1569.6007031250028,
      "v": 92
    },
    {
      "midi": 55,
      "hit": false,
      "t": 9318.1725,
      "d": 1394.411484375003,
      "v": 72
    },
    {
      "midi": 59,
      "hit": false,
      "t": 9545.445,
      "d": 750.4727343750019,
      "v": 76
    },
    {
      "midi": 62,
      "hit": false,
      "t": 9772.7175,
      "d": 262.78382812499876,
      "v": 68
    },
    {
      "midi": 61,
      "hit": false,
      "t": 9999.99,
      "d": 220.1702343750003,
      "v": 68
    },
    {
      "midi": 62,
      "hit": false,
      "t": 10227.2625,
      "d": 314.86710937500175,
      "v": 64
    },
    {
      "midi": 61,
      "hit": false,
      "t": 10454.535000000002,
      "d": 229.63992187500116,
      "v": 72
    },
    {
      "midi": 59,
      "hit": false,
      "t": 10681.807500000003,
      "d": 243.84445312500065,
      "v": 84
    },
    {
      "midi": 45,
      "hit": false,
      "t": 10909.080000000004,
      "d": 1541.1916406249966,
      "v": 92
    },
    {
      "midi": 52,
      "hit": false,
      "t": 11136.352500000003,
      "d": 1342.3282031249983,
      "v": 84
    },
    {
      "midi": 57,
      "hit": false,
      "t": 11363.625000000002,
      "d": 1105.5860156249983,
      "v": 80
    },
    {
      "midi": 64,
      "hit": false,
      "t": 11590.897500000001,
      "d": 234.37476562499978,
      "v": 76
    },
    {
      "midi": 62,
      "hit": false,
      "t": 11818.17,
      "d": 205.9657031250008,
      "v": 60
    },
    {
      "midi": 64,
      "hit": false,
      "t": 12045.442500000001,
      "d": 286.4580468749991,
      "v": 64
    },
    {
      "midi": 62,
      "hit": false,
      "t": 12272.715,
      "d": 215.43539062500167,
      "v": 60
    },
    {
      "midi": 61,
      "hit": false,
      "t": 12499.987500000001,
      "d": 286.4580468749991,
      "v": 80
    },
    {
      "midi": 45,
      "hit": false,
      "t": 12727.26,
      "d": 1498.578046874998,
      "v": 96
    },
    {
      "midi": 52,
      "hit": false,
      "t": 12954.532500000001,
      "d": 1238.161640624996,
      "v": 72
    },
    {
      "midi": 57,
      "hit": false,
      "t": 13181.805,
      "d": 916.1922656249972,
      "v": 80
    },
    {
      "midi": 64,
      "hit": false,
      "t": 13409.0775,
      "d": 258.0489843749983,
      "v": 72
    },
    {
      "midi": 62,
      "hit": false,
      "t": 13636.349999999999,
      "d": 187.02632812499905,
      "v": 80
    },
    {
      "midi": 64,
      "hit": false,
      "t": 13863.622499999998,
      "d": 338.5413281250003,
      "v": 84
    },
    {
      "midi": 62,
      "hit": false,
      "t": 14090.894999999997,
      "d": 201.23085937500218,
      "v": 60
    },
    {
      "midi": 61,
      "hit": false,
      "t": 14318.1675,
      "d": 248.57929687499927,
      "v": 84
    },
    {
      "midi": 42,
      "hit": false,
      "t": 14545.439999999999,
      "d": 1498.578046874998,
      "v": 92
    },
    {
      "midi": 49,
      "hit": false,
      "t": 14772.712499999998,
      "d": 1313.9191406249993,
      "v": 68
    },
    {
      "midi": 54,
      "hit": false,
      "t": 14999.984999999997,
      "d": 1067.7072656250002,
      "v": 80
    },
    {
      "midi": 61,
      "hit": false,
      "t": 15227.257499999996,
      "d": 191.7611718750013,
      "v": 72
    },
    {
      "midi": 59,
      "hit": false,
      "t": 15454.529999999997,
      "d": 182.29148437500044,
      "v": 76
    },
    {
      "midi": 61,
      "hit": false,
      "t": 15681.802499999998,
      "d": 239.1096093749984,
      "v": 72
    },
    {
      "midi": 59,
      "hit": false,
      "t": 15909.074999999997,
      "d": 172.82179687499956,
      "v": 68
    },
    {
      "midi": 58,
      "hit": false,
      "t": 16136.347499999996,
      "d": 305.3974218750009,
      "v": 72
    },
    {
      "midi": 42,
      "hit": false,
      "t": 16363.619999999995,
      "d": 1830.0171093750032,
      "v": 88
    },
    {
      "midi": 49,
      "hit": false,
      "t": 16590.892499999998,
      "d": 1616.9491406250017,
      "v": 60
    },
    {
      "midi": 54,
      "hit": false,
      "t": 16818.164999999997,
      "d": 1384.9417968750022,
      "v": 64
    },
    {
      "midi": 61,
      "hit": false,
      "t": 17045.437499999996,
      "d": 220.1702343750003,
      "v": 64
    },
    {
      "midi": 59,
      "hit": false,
      "t": 17272.709999999995,
      "d": 196.49601562500175,
      "v": 84
    },
    {
      "midi": 61,
      "hit": false,
      "t": 17499.9825,
      "d": 243.84445312499884,
      "v": 76
    },
    {
      "midi": 59,
      "hit": false,
      "t": 17727.254999999997,
      "d": 177.556640625,
      "v": 72
    },
    {
      "midi": 58,
      "hit": false,
      "t": 17954.527499999997,
      "d": 253.31414062500335,
      "v": 72
    },
    {
      "midi": 47,
      "hit": false,
      "t": 18181.8,
      "d": 1370.7372656249936,
      "v": 88
    },
    {
      "midi": 54,
      "hit": false,
      "t": 18409.0725,
      "d": 1195.5480468749956,
      "v": 76
    },
    {
      "midi": 59,
      "hit": false,
      "t": 18636.344999999998,
      "d": 812.0257031249967,
      "v": 56
    },
    {
      "midi": 62,
      "hit": false,
      "t": 18863.617499999997,
      "d": 267.5186718749974,
      "v": 80
    },
    {
      "midi": 61,
      "hit": false,
      "t": 19090.889999999996,
      "d": 191.76117187499767,
      "v": 84
    },
    {
      "midi": 62,
      "hit": false,
      "t": 19318.162499999995,
      "d": 276.98835937499825,
      "v": 80
    },
    {
      "midi": 61,
      "hit": false,
      "t": 19545.434999999994,
      "d": 205.96570312499898,
      "v": 80
    },
    {
      "midi": 59,
      "hit": false,
      "t": 19772.707499999993,
      "d": 300.6625781250041,
      "v": 72
    },
    {
      "midi": 47,
      "hit": false,
      "t": 19999.979999999996,
      "d": 1285.510078124993,
      "v": 76
    },
    {
      "midi": 54,
      "hit": false,
      "t": 20227.252499999995,
      "d": 987.2149218749946,
      "v": 64
    },
    {
      "midi": 59,
      "hit": false,
      "t": 20454.524999999994,
      "d": 518.4653906249987,
      "v": 72
    },
    {
      "midi": 62,
      "hit": false,
      "t": 20681.797499999993,
      "d": 281.7232031249987,
      "v": 80
    },
    {
      "midi": 61,
      "hit": false,
      "t": 20909.069999999992,
      "d": 234.37476562499796,
      "v": 84
    },
    {
      "midi": 62,
      "hit": false,
      "t": 21136.34249999999,
      "d": 291.19289062499956,
      "v": 72
    },
    {
      "midi": 61,
      "hit": false,
      "t": 21363.61499999999,
      "d": 220.1702343750003,
      "v": 52
    },
    {
      "midi": 59,
      "hit": false,
      "t": 21590.88749999999,
      "d": 243.84445312499884,
      "v": 72
    },
    {
      "midi": 47,
      "hit": false,
      "t": 21818.15999999999,
      "d": 1451.2296093749937,
      "v": 92
    },
    {
      "midi": 55,
      "hit": false,
      "t": 22045.432499999988,
      "d": 1280.7752343749962,
      "v": 76
    },
    {
      "midi": 59,
      "hit": false,
      "t": 22272.704999999987,
      "d": 973.010390624997,
      "v": 84
    },
    {
      "midi": 62,
      "hit": false,
      "t": 22499.977499999986,
      "d": 276.98835937499825,
      "v": 64
    },
    {
      "midi": 61,
      "hit": false,
      "t": 22727.249999999985,
      "d": 187.02632812500087,
      "v": 68
    },
    {
      "midi": 62,
      "hit": false,
      "t": 22954.522499999985,
      "d": 258.04898437500015,
      "v": 76
    },
    {
      "midi": 61,
      "hit": false,
      "t": 23181.794999999984,
      "d": 229.63992187499753,
      "v": 64
    },
    {
      "midi": 59,
      "hit": false,
      "t": 23409.067499999983,
      "d": 234.37476562499796,
      "v": 76
    },
    {
      "midi": 47,
      "hit": false,
      "t": 23636.339999999982,
      "d": 1474.903828124996,
      "v": 88
    },
    {
      "midi": 55,
      "hit": false,
      "t": 23863.61249999998,
      "d": 1261.835859374998,
      "v": 72
    },
    {
      "midi": 59,
      "hit": false,
      "t": 24090.88499999998,
      "d": 991.9497656249987,
      "v": 80
    },
    {
      "midi": 62,
      "hit": false,
      "t": 24318.15749999998,
      "d": 305.3974218750009,
      "v": 56
    },
    {
      "midi": 61,
      "hit": false,
      "t": 24545.42999999998,
      "d": 215.4353906250035,
      "v": 80
    },
    {
      "midi": 62,
      "hit": false,
      "t": 24772.70249999998,
      "d": 276.98835937499825,
      "v": 68
    },
    {
      "midi": 61,
      "hit": false,
      "t": 24999.97499999998,
      "d": 267.5186718749974,
      "v": 76
    },
    {
      "midi": 59,
      "hit": false,
      "t": 25227.24749999998,
      "d": 224.9050781249971,
      "v": 84
    },
    {
      "midi": 45,
      "hit": false,
      "t": 25454.519999999975,
      "d": 1517.5174218749926,
      "v": 96
    },
    {
      "midi": 52,
      "hit": false,
      "t": 25681.792499999974,
      "d": 1342.3282031249946,
      "v": 76
    },
    {
      "midi": 57,
      "hit": false,
      "t": 25909.064999999973,
      "d": 1129.2602343749968,
      "v": 72
    },
    {
      "midi": 64,
      "hit": false,
      "t": 26136.337499999972,
      "d": 267.5186718749974,
      "v": 68
    },
    {
      "midi": 62,
      "hit": false,
      "t": 26363.60999999997,
      "d": 191.76117187499767,
      "v": 76
    },
    {
      "midi": 64,
      "hit": false,
      "t": 26590.88249999997,
      "d": 348.0110156249975,
      "v": 76
    },
    {
      "midi": 62,
      "hit": false,
      "t": 26818.15499999997,
      "d": 262.7838281250006,
      "v": 56
    },
    {
      "midi": 61,
      "hit": false,
      "t": 27045.42749999997,
      "d": 324.3367968750026,
      "v": 92
    },
    {
      "midi": 45,
      "hit": false,
      "t": 27272.69999999997,
      "d": 1309.1842968749952,
      "v": 96
    },
    {
      "midi": 52,
      "hit": false,
      "t": 27499.97249999997,
      "d": 1124.5253906249964,
      "v": 76
    },
    {
      "midi": 57,
      "hit": false,
      "t": 27727.24499999997,
      "d": 854.639296874997,
      "v": 84
    },
    {
      "midi": 64,
      "hit": false,
      "t": 27954.51749999997,
      "d": 267.5186718749974,
      "v": 60
    },
    {
      "midi": 62,
      "hit": false,
      "t": 28181.789999999968,
      "d": 205.96570312499898,
      "v": 72
    },
    {
      "midi": 64,
      "hit": false,
      "t": 28409.062499999967,
      "d": 348.0110156249975,
      "v": 72
    },
    {
      "midi": 62,
      "hit": false,
      "t": 28636.334999999966,
      "d": 258.04898437500015,
      "v": 56
    },
    {
      "midi": 61,
      "hit": false,
      "t": 28863.607499999966,
      "d": 229.63992187500116,
      "v": 68
    },
    {
      "midi": 50,
      "hit": false,
      "t": 29090.87999999997,
      "d": 1309.1842968749952,
      "v": 88
    },
    {
      "midi": 57,
      "hit": false,
      "t": 29318.152499999967,
      "d": 1053.502734374997,
      "v": 72
    },
    {
      "midi": 62,
      "hit": false,
      "t": 29545.424999999967,
      "d": 504.2608593749974,
      "v": 68
    },
    {
      "midi": 66,
      "hit": false,
      "t": 29772.697499999966,
      "d": 243.84445312499884,
      "v": 76
    },
    {
      "midi": 64,
      "hit": false,
      "t": 29999.969999999965,
      "d": 163.3521093749987,
      "v": 76
    },
    {
      "midi": 66,
      "hit": false,
      "t": 30227.242499999964,
      "d": 258.04898437500015,
      "v": 84
    },
    {
      "midi": 64,
      "hit": false,
      "t": 30454.514999999963,
      "d": 239.10960937500204,
      "v": 72
    },
    {
      "midi": 62,
      "hit": false,
      "t": 30681.787499999966,
      "d": 276.98835937499825,
      "v": 80
    },
    {
      "midi": 42,
      "hit": false,
      "t": 30909.059999999965,
      "d": 1498.5780468749945,
      "v": 96
    },
    {
      "midi": 49,
      "hit": false,
      "t": 31136.332499999964,
      "d": 1276.0403906249958,
      "v": 56
    },
    {
      "midi": 54,
      "hit": false,
      "t": 31363.604999999963,
      "d": 977.7452343749974,
      "v": 80
    },
    {
      "midi": 58,
      "hit": false,
      "t": 31590.877499999962,
      "d": 248.57929687499927,
      "v": 72
    },
    {
      "midi": 59,
      "hit": false,
      "t": 31818.14999999996,
      "d": 201.23085937499854,
      "v": 64
    },
    {
      "midi": 61,
      "hit": false,
      "t": 32045.42249999996,
      "d": 262.7838281250006,
      "v": 72
    },
    {
      "midi": 59,
      "hit": false,
      "t": 32272.69499999996,
      "d": 210.70054687499942,
      "v": 56
    },
    {
      "midi": 58,
      "hit": false,
      "t": 32499.96749999996,
      "d": 215.43539062499985,
      "v": 76
    },
    {
      "midi": 47,
      "hit": false,
      "t": 32727.239999999958,
      "d": 1370.7372656249972,
      "v": 88
    },
    {
      "midi": 54,
      "hit": false,
      "t": 32954.51249999995,
      "d": 1195.548046875003,
      "v": 76
    },
    {
      "midi": 59,
      "hit": false,
      "t": 33181.78499999995,
      "d": 812.0257031250003,
      "v": 56
    },
    {
      "midi": 62,
      "hit": false,
      "t": 33409.05749999995,
      "d": 267.5186718749974,
      "v": 80
    },
    {
      "midi": 61,
      "hit": false,
      "t": 33636.32999999995,
      "d": 191.76117187499767,
      "v": 84
    },
    {
      "midi": 62,
      "hit": false,
      "t": 33863.60249999995,
      "d": 276.98835937500553,
      "v": 80
    },
    {
      "midi": 61,
      "hit": false,
      "t": 34090.874999999956,
      "d": 205.96570312500262,
      "v": 80
    },
    {
      "midi": 59,
      "hit": false,
      "t": 34318.147499999955,
      "d": 300.6625781249968,
      "v": 72
    },
    {
      "midi": 47,
      "hit": false,
      "t": 34545.419999999955,
      "d": 1285.5100781250076,
      "v": 76
    },
    {
      "midi": 54,
      "hit": false,
      "t": 34772.692499999954,
      "d": 987.2149218750055,
      "v": 64
    },
    {
      "midi": 59,
      "hit": false,
      "t": 34999.96499999995,
      "d": 518.4653906250023,
      "v": 72
    },
    {
      "midi": 62,
      "hit": false,
      "t": 35227.23749999995,
      "d": 281.7232031250023,
      "v": 80
    },
    {
      "midi": 61,
      "hit": false,
      "t": 35454.50999999995,
      "d": 234.37476562500524,
      "v": 84
    },
    {
      "midi": 62,
      "hit": false,
      "t": 35681.78249999996,
      "d": 291.1928906250032,
      "v": 72
    },
    {
      "midi": 61,
      "hit": false,
      "t": 35909.054999999964,
      "d": 220.1702343750003,
      "v": 52
    },
    {
      "midi": 59,
      "hit": false,
      "t": 36136.32749999996,
      "d": 243.84445312499884,
      "v": 72
    },
    {
      "midi": 47,
      "hit": false,
      "t": 36363.59999999996,
      "d": 1451.2296093750047,
      "v": 92
    },
    {
      "midi": 55,
      "hit": false,
      "t": 36590.87249999997,
      "d": 1280.7752343749962,
      "v": 76
    },
    {
      "midi": 59,
      "hit": false,
      "t": 36818.14499999997,
      "d": 973.0103906250006,
      "v": 84
    },
    {
      "midi": 62,
      "hit": false,
      "t": 37045.41749999997,
      "d": 276.98835937500553,
      "v": 64
    },
    {
      "midi": 61,
      "hit": false,
      "t": 37272.68999999997,
      "d": 187.02632812500087,
      "v": 68
    },
    {
      "midi": 62,
      "hit": false,
      "t": 37499.96249999997,
      "d": 258.0489843749965,
      "v": 76
    },
    {
      "midi": 61,
      "hit": false,
      "t": 37727.23499999997,
      "d": 229.6399218749939,
      "v": 64
    },
    {
      "midi": 59,
      "hit": false,
      "t": 37954.50749999996,
      "d": 234.37476562499796,
      "v": 76
    },
    {
      "midi": 47,
      "hit": false,
      "t": 38181.77999999996,
      "d": 1474.9038281250105,
      "v": 88
    },
    {
      "midi": 55,
      "hit": false,
      "t": 38409.05249999996,
      "d": 1261.835859375009,
      "v": 72
    },
    {
      "midi": 59,
      "hit": false,
      "t": 38636.32499999996,
      "d": 991.9497656250096,
      "v": 80
    },
    {
      "midi": 62,
      "hit": false,
      "t": 38863.59749999996,
      "d": 305.39742187500815,
      "v": 56
    },
    {
      "midi": 61,
      "hit": false,
      "t": 39090.869999999966,
      "d": 215.4353906250035,
      "v": 80
    },
    {
      "midi": 62,
      "hit": false,
      "t": 39318.14249999997,
      "d": 276.98835937499825,
      "v": 68
    },
    {
      "midi": 61,
      "hit": false,
      "t": 39545.41499999997,
      "d": 267.5186718749974,
      "v": 76
    },
    {
      "midi": 59,
      "hit": false,
      "t": 39772.68749999997,
      "d": 224.9050781249971,
      "v": 84
    },
    {
      "midi": 45,
      "hit": false,
      "t": 39999.95999999997,
      "d": 1517.5174218749962,
      "v": 96
    },
    {
      "midi": 52,
      "hit": false,
      "t": 40227.23249999997,
      "d": 1342.3282031249983,
      "v": 76
    },
    {
      "midi": 57,
      "hit": false,
      "t": 40454.50499999997,
      "d": 1129.2602343749968,
      "v": 72
    },
    {
      "midi": 64,
      "hit": false,
      "t": 40681.77749999997,
      "d": 267.5186718749974,
      "v": 68
    },
    {
      "midi": 62,
      "hit": false,
      "t": 40909.04999999997,
      "d": 191.76117187499767,
      "v": 76
    },
    {
      "midi": 64,
      "hit": false,
      "t": 41136.322499999966,
      "d": 348.01101562500116,
      "v": 76
    },
    {
      "midi": 62,
      "hit": false,
      "t": 41363.594999999965,
      "d": 262.7838281250006,
      "v": 56
    },
    {
      "midi": 61,
      "hit": false,
      "t": 41590.867499999964,
      "d": 324.33679687499534,
      "v": 92
    },
    {
      "midi": 45,
      "hit": false,
      "t": 41818.13999999996,
      "d": 1309.1842968749916,
      "v": 96
    },
    {
      "midi": 52,
      "hit": false,
      "t": 42045.41249999996,
      "d": 1124.5253906249927,
      "v": 76
    },
    {
      "midi": 57,
      "hit": false,
      "t": 42272.68499999996,
      "d": 854.6392968749933,
      "v": 84
    },
    {
      "midi": 64,
      "hit": false,
      "t": 42499.95749999996,
      "d": 267.5186718749974,
      "v": 60
    },
    {
      "midi": 62,
      "hit": false,
      "t": 42727.22999999996,
      "d": 205.96570312499534,
      "v": 72
    },
    {
      "midi": 64,
      "hit": false,
      "t": 42954.50249999995,
      "d": 348.01101562500844,
      "v": 72
    },
    {
      "midi": 62,
      "hit": false,
      "t": 43181.77499999996,
      "d": 258.0489843749965,
      "v": 56
    },
    {
      "midi": 61,
      "hit": false,
      "t": 43409.04749999996,
      "d": 229.63992187500116,
      "v": 68
    },
    {
      "midi": 50,
      "hit": false,
      "t": 43636.319999999956,
      "d": 1309.1842968749916,
      "v": 88
    },
    {
      "midi": 57,
      "hit": false,
      "t": 43863.592499999955,
      "d": 1053.5027343749898,
      "v": 72
    },
    {
      "midi": 62,
      "hit": false,
      "t": 44090.864999999954,
      "d": 504.2608593749974,
      "v": 68
    },
    {
      "midi": 66,
      "hit": false,
      "t": 44318.13749999995,
      "d": 243.84445312499884,
      "v": 76
    },
    {
      "midi": 64,
      "hit": false,
      "t": 44545.40999999995,
      "d": 163.35210937499505,
      "v": 76
    },
    {
      "midi": 66,
      "hit": false,
      "t": 44772.682499999944,
      "d": 258.0489843750038,
      "v": 84
    },
    {
      "midi": 64,
      "hit": false,
      "t": 44999.95499999995,
      "d": 239.10960937500204,
      "v": 72
    },
    {
      "midi": 62,
      "hit": false,
      "t": 45227.22749999995,
      "d": 276.98835937500553,
      "v": 80
    },
    {
      "midi": 42,
      "hit": false,
      "t": 45454.499999999956,
      "d": 1498.5780468750017,
      "v": 96
    },
    {
      "midi": 49,
      "hit": false,
      "t": 45681.772499999955,
      "d": 1276.0403906249994,
      "v": 56
    },
    {
      "midi": 54,
      "hit": false,
      "t": 45909.044999999955,
      "d": 977.7452343750047,
      "v": 80
    },
    {
      "midi": 58,
      "hit": false,
      "t": 46136.317499999954,
      "d": 248.5792968750029,
      "v": 72
    },
    {
      "midi": 59,
      "hit": false,
      "t": 46363.58999999995,
      "d": 201.23085937500582,
      "v": 64
    },
    {
      "midi": 61,
      "hit": false,
      "t": 46590.86249999996,
      "d": 262.7838281250006,
      "v": 72
    },
    {
      "midi": 59,
      "hit": false,
      "t": 46818.13499999996,
      "d": 210.70054687499942,
      "v": 56
    },
    {
      "midi": 58,
      "hit": false,
      "t": 47045.40749999996,
      "d": 215.4353906250035,
      "v": 76
    },
    {
      "midi": 54,
      "hit": false,
      "t": 47272.67999999999,
      "d": 996.6846093749991,
      "v": 92
    },
    {
      "midi": 47,
      "hit": false,
      "t": 47272.67999999999,
      "d": 1020.3588281249977,
      "v": 104
    },
    {
      "midi": 59,
      "hit": false,
      "t": 47272.67999999999,
      "d": 1020.3588281249977,
      "v": 108
    },
    {
      "midi": 66,
      "hit": false,
      "t": 47272.67999999999,
      "d": 1034.5633593749953,
      "v": 100
    },
    {
      "midi": 54,
      "hit": false,
      "t": 48636.31499999999,
      "d": 1664.2975781249988,
      "v": 100
    },
    {
      "midi": 47,
      "hit": false,
      "t": 48636.31499999999,
      "d": 1692.7066406250015,
      "v": 96
    },
    {
      "midi": 59,
      "hit": false,
      "t": 48636.31499999999,
      "d": 1716.380859375,
      "v": 104
    },
    {
      "midi": 62,
      "hit": false,
      "t": 48636.31499999999,
      "d": 1725.8505468750009,
      "v": 108
    },
    {
      "midi": 66,
      "hit": false,
      "t": 48636.31499999999,
      "d": 1735.3202343750017,
      "v": 96
    },
    {
      "midi": 59,
      "hit": false,
      "t": 50909.039999999986,
      "d": 584.7532031250012,
      "v": 108
    },
    {
      "midi": 62,
      "hit": false,
      "t": 50909.039999999986,
      "d": 741.0030468750047,
      "v": 108
    },
    {
      "midi": 69,
      "hit": false,
      "t": 50909.039999999986,
      "d": 1006.1542968750073,
      "v": 108
    },
    {
      "midi": 55,
      "hit": false,
      "t": 50909.039999999986,
      "d": 1446.4947656250079,
      "v": 92
    },
    {
      "midi": 43,
      "hit": false,
      "t": 50909.039999999986,
      "d": 1451.2296093750047,
      "v": 88
    },
    {
      "midi": 59,
      "hit": false,
      "t": 51818.12999999999,
      "d": 527.9350781250032,
      "v": 80
    },
    {
      "midi": 62,
      "hit": false,
      "t": 51818.12999999999,
      "d": 636.8364843750023,
      "v": 80
    },
    {
      "midi": 67,
      "hit": false,
      "t": 51818.12999999999,
      "d": 1474.9038281250105,
      "v": 84
    },
    {
      "midi": 59,
      "hit": false,
      "t": 52727.219999999994,
      "d": 527.9350781250032,
      "v": 64
    },
    {
      "midi": 62,
      "hit": false,
      "t": 52727.219999999994,
      "d": 546.874453125005,
      "v": 56
    },
    {
      "midi": 55,
      "hit": false,
      "t": 52727.219999999994,
      "d": 636.8364843750096,
      "v": 68
    },
    {
      "midi": 43,
      "hit": false,
      "t": 52727.219999999994,
      "d": 982.4800781250087,
      "v": 56
    },
    {
      "midi": 59,
      "hit": false,
      "t": 53636.310000000005,
      "d": 106.53398437499709,
      "v": 108
    },
    {
      "midi": 55,
      "hit": false,
      "t": 53636.310000000005,
      "d": 125.47335937499884,
      "v": 80
    },
    {
      "midi": 62,
      "hit": false,
      "t": 53636.310000000005,
      "d": 187.02632812500087,
      "v": 112
    },
    {
      "midi": 62,
      "hit": false,
      "t": 53863.582500000004,
      "d": 40.246171874998254,
      "v": 64
    },
    {
      "midi": 59,
      "hit": false,
      "t": 53863.582500000004,
      "d": 97.06429687499622,
      "v": 96
    },
    {
      "midi": 64,
      "hit": false,
      "t": 53863.582500000004,
      "d": 139.6778906249965,
      "v": 104
    },
    {
      "midi": 43,
      "hit": false,
      "t": 54090.855,
      "d": 54.4507031250032,
      "v": 61
    },
    {
      "midi": 57,
      "hit": false,
      "t": 54545.40000000001,
      "d": 456.9124218750003,
      "v": 92
    },
    {
      "midi": 62,
      "hit": false,
      "t": 54545.40000000001,
      "d": 471.11695312499796,
      "v": 88
    },
    {
      "midi": 66,
      "hit": false,
      "t": 54545.40000000001,
      "d": 2057.289609374995,
      "v": 100
    },
    {
      "midi": 50,
      "hit": false,
      "t": 54545.40000000001,
      "d": 2227.743984374996,
      "v": 92
    },
    {
      "midi": 62,
      "hit": false,
      "t": 55454.490000000005,
      "d": 475.85179687500204,
      "v": 64
    },
    {
      "midi": 57,
      "hit": false,
      "t": 55454.490000000005,
      "d": 490.0563281249997,
      "v": 64
    },
    {
      "midi": 57,
      "hit": false,
      "t": 56363.58,
      "d": 471.11695312500524,
      "v": 84
    },
    {
      "midi": 62,
      "hit": false,
      "t": 56363.58,
      "d": 490.056328125007,
      "v": 72
    },
    {
      "midi": 64,
      "hit": false,
      "t": 56818.12500000001,
      "d": 191.76117187500495,
      "v": 92
    },
    {
      "midi": 66,
      "hit": false,
      "t": 57045.397500000014,
      "d": 348.01101562500116,
      "v": 88
    },
    {
      "midi": 57,
      "hit": false,
      "t": 57272.67000000001,
      "d": 92.32945312499942,
      "v": 84
    },
    {
      "midi": 50,
      "hit": false,
      "t": 57272.67000000001,
      "d": 163.35210937500233,
      "v": 76
    },
    {
      "midi": 62,
      "hit": false,
      "t": 57272.67000000001,
      "d": 428.5033593749977,
      "v": 100
    },
    {
      "midi": 57,
      "hit": false,
      "t": 57499.94250000001,
      "d": 248.57929687499563,
      "v": 88
    },
    {
      "midi": 50,
      "hit": false,
      "t": 57727.21500000001,
      "d": 78.12492187499447,
      "v": 72
    },
    {
      "midi": 61,
      "hit": false,
      "t": 58181.76,
      "d": 527.9350781249959,
      "v": 84
    },
    {
      "midi": 58,
      "hit": false,
      "t": 58181.76,
      "d": 537.4047656249968,
      "v": 84
    },
    {
      "midi": 66,
      "hit": false,
      "t": 58181.76,
      "d": 575.2835156250003,
      "v": 76
    },
    {
      "midi": 54,
      "hit": false,
      "t": 58181.76,
      "d": 3335.697421875004,
      "v": 96
    },
    {
      "midi": 42,
      "hit": false,
      "t": 58181.76,
      "d": 3411.4549218750035,
      "v": 100
    },
    {
      "midi": 58,
      "hit": false,
      "t": 59090.850000000006,
      "d": 442.7078906250026,
      "v": 88
    },
    {
      "midi": 61,
      "hit": false,
      "t": 59090.850000000006,
      "d": 461.64726562500437,
      "v": 64
    },
    {
      "midi": 66,
      "hit": false,
      "t": 59090.850000000006,
      "d": 490.056328125007,
      "v": 88
    },
    {
      "midi": 61,
      "hit": false,
      "t": 59999.94000000001,
      "d": 400.0942968750023,
      "v": 52
    },
    {
      "midi": 58,
      "hit": false,
      "t": 59999.94000000001,
      "d": 414.298828125,
      "v": 76
    },
    {
      "midi": 66,
      "hit": false,
      "t": 59999.94000000001,
      "d": 428.5033593749977,
      "v": 72
    },
    {
      "midi": 61,
      "hit": false,
      "t": 60909.030000000006,
      "d": 660.5107031250009,
      "v": 40
    },
    {
      "midi": 58,
      "hit": false,
      "t": 60909.030000000006,
      "d": 665.2455468749977,
      "v": 68
    },
    {
      "midi": 66,
      "hit": false,
      "t": 60909.030000000006,
      "d": 688.9197656249962,
      "v": 44
    },
    {
      "midi": 71,
      "hit": false,
      "t": 61818.12,
      "d": 447.4427343749994,
      "v": 92
    },
    {
      "midi": 66,
      "hit": false,
      "t": 61818.12,
      "d": 452.1775781249962,
      "v": 80
    },
    {
      "midi": 63,
      "hit": false,
      "t": 61818.12,
      "d": 471.11695312499796,
      "v": 92
    },
    {
      "midi": 47,
      "hit": false,
      "t": 61818.12,
      "d": 3070.5461718749866,
      "v": 92
    },
    {
      "midi": 59,
      "hit": false,
      "t": 62272.665,
      "d": 494.7911718749965,
      "v": 68
    },
    {
      "midi": 71,
      "hit": false,
      "t": 62727.21,
      "d": 442.70789062499534,
      "v": 88
    },
    {
      "midi": 66,
      "hit": false,
      "t": 62727.21,
      "d": 447.44273437499214,
      "v": 64
    },
    {
      "midi": 63,
      "hit": false,
      "t": 62727.21,
      "d": 466.3821093749939,
      "v": 84
    },
    {
      "midi": 59,
      "hit": false,
      "t": 63181.75499999999,
      "d": 499.52601562500786,
      "v": 64
    },
    {
      "midi": 66,
      "hit": false,
      "t": 63636.299999999996,
      "d": 433.23820312500175,
      "v": 76
    },
    {
      "midi": 71,
      "hit": false,
      "t": 63636.299999999996,
      "d": 433.23820312500175,
      "v": 88
    },
    {
      "midi": 63,
      "hit": false,
      "t": 63636.299999999996,
      "d": 447.4427343749994,
      "v": 92
    },
    {
      "midi": 59,
      "hit": false,
      "t": 64090.844999999994,
      "d": 485.32148437499563,
      "v": 68
    },
    {
      "midi": 54,
      "hit": false,
      "t": 64318.11749999999,
      "d": 523.2002343749991,
      "v": 1
    },
    {
      "midi": 63,
      "hit": false,
      "t": 64545.38999999999,
      "d": 409.5639843749959,
      "v": 92
    },
    {
      "midi": 71,
      "hit": false,
      "t": 64545.38999999999,
      "d": 419.0336718749968,
      "v": 84
    },
    {
      "midi": 66,
      "hit": false,
      "t": 64545.38999999999,
      "d": 428.5033593749977,
      "v": 84
    },
    {
      "midi": 59,
      "hit": false,
      "t": 64999.93499999999,
      "d": 499.5260156250006,
      "v": 84
    },
    {
      "midi": 70,
      "hit": false,
      "t": 65454.47999999999,
      "d": 461.6472656249898,
      "v": 100
    },
    {
      "midi": 64,
      "hit": false,
      "t": 65454.47999999999,
      "d": 523.2002343749846,
      "v": 92
    },
    {
      "midi": 40,
      "hit": false,
      "t": 65454.47999999999,
      "d": 2322.4408593749904,
      "v": 80
    },
    {
      "midi": 52,
      "hit": false,
      "t": 65454.47999999999,
      "d": 2355.58476562499,
      "v": 80
    },
    {
      "midi": 59,
      "hit": false,
      "t": 65909.02499999998,
      "d": 499.5260156250006,
      "v": 68
    },
    {
      "midi": 64,
      "hit": false,
      "t": 66363.56999999998,
      "d": 433.23820312500175,
      "v": 84
    },
    {
      "midi": 70,
      "hit": false,
      "t": 66363.56999999998,
      "d": 475.85179687499476,
      "v": 92
    },
    {
      "midi": 59,
      "hit": false,
      "t": 66818.11499999998,
      "d": 726.7985156249924,
      "v": 72
    },
    {
      "midi": 68,
      "hit": false,
      "t": 67272.65999999997,
      "d": 480.58664062499884,
      "v": 72
    },
    {
      "midi": 64,
      "hit": false,
      "t": 67272.65999999997,
      "d": 485.3214843750029,
      "v": 84
    },
    {
      "midi": 71,
      "hit": false,
      "t": 67272.65999999997,
      "d": 963.540703125007,
      "v": 88
    },
    {
      "midi": 59,
      "hit": false,
      "t": 67727.20499999997,
      "d": 490.056328125007,
      "v": 72
    },
    {
      "midi": 39,
      "hit": false,
      "t": 68181.74999999999,
      "d": 485.3214843750029,
      "v": 84
    },
    {
      "midi": 51,
      "hit": false,
      "t": 68181.74999999999,
      "d": 504.26085937500466,
      "v": 88
    },
    {
      "midi": 63,
      "hit": false,
      "t": 68181.74999999999,
      "d": 504.26085937500466,
      "v": 100
    },
    {
      "midi": 68,
      "hit": false,
      "t": 68181.74999999999,
      "d": 508.99570312500873,
      "v": 92
    },
    {
      "midi": 59,
      "hit": false,
      "t": 68636.29499999998,
      "d": 437.9730468750058,
      "v": 88
    },
    {
      "midi": 68,
      "hit": false,
      "t": 69090.84,
      "d": 475.85179687499476,
      "v": 96
    },
    {
      "midi": 64,
      "hit": false,
      "t": 69090.84,
      "d": 542.1396093749936,
      "v": 92
    },
    {
      "midi": 56,
      "hit": false,
      "t": 69090.84,
      "d": 1380.2069531250017,
      "v": 84
    },
    {
      "midi": 49,
      "hit": false,
      "t": 69090.84,
      "d": 1418.0857031250052,
      "v": 72
    },
    {
      "midi": 61,
      "hit": false,
      "t": 69545.385,
      "d": 433.23820312500175,
      "v": 76
    },
    {
      "midi": 64,
      "hit": false,
      "t": 69999.93,
      "d": 419.0336718750041,
      "v": 72
    },
    {
      "midi": 68,
      "hit": false,
      "t": 69999.93,
      "d": 475.8517968750093,
      "v": 76
    },
    {
      "midi": 61,
      "hit": false,
      "t": 70454.47499999999,
      "d": 490.056328125007,
      "v": 84
    },
    {
      "midi": 70,
      "hit": false,
      "t": 70909.02,
      "d": 456.91242187497846,
      "v": 88
    },
    {
      "midi": 73,
      "hit": false,
      "t": 70909.02,
      "d": 456.91242187497846,
      "v": 76
    },
    {
      "midi": 66,
      "hit": false,
      "t": 70909.02,
      "d": 490.0563281249779,
      "v": 88
    },
    {
      "midi": 42,
      "hit": false,
      "t": 70909.02,
      "d": 1290.2449218749825,
      "v": 60
    },
    {
      "midi": 54,
      "hit": false,
      "t": 70909.02,
      "d": 1299.7146093749761,
      "v": 52
    },
    {
      "midi": 61,
      "hit": false,
      "t": 71363.56499999999,
      "d": 471.11695312500524,
      "v": 76
    },
    {
      "midi": 70,
      "hit": false,
      "t": 71818.10999999999,
      "d": 452.17757812498894,
      "v": 84
    },
    {
      "midi": 66,
      "hit": false,
      "t": 71818.10999999999,
      "d": 466.3821093749866,
      "v": 96
    },
    {
      "midi": 73,
      "hit": false,
      "t": 71818.10999999999,
      "d": 466.3821093749866,
      "v": 92
    },
    {
      "midi": 61,
      "hit": false,
      "t": 72272.65499999997,
      "d": 258.0489843749965,
      "v": 76
    },
    {
      "midi": 71,
      "hit": false,
      "t": 72727.19999999997,
      "d": 428.5033593750122,
      "v": 90
    },
    {
      "midi": 66,
      "hit": false,
      "t": 72727.19999999997,
      "d": 461.64726562501164,
      "v": 90
    },
    {
      "midi": 63,
      "hit": false,
      "t": 72727.19999999997,
      "d": 475.8517968750093,
      "v": 90
    },
    {
      "midi": 54,
      "hit": false,
      "t": 72727.19999999997,
      "d": 3255.205078124971,
      "v": 90
    },
    {
      "midi": 47,
      "hit": false,
      "t": 72727.19999999997,
      "d": 3259.939921874975,
      "v": 90
    },
    {
      "midi": 59,
      "hit": false,
      "t": 73181.74499999998,
      "d": 456.912421874993,
      "v": 80
    },
    {
      "midi": 66,
      "hit": false,
      "t": 73636.28999999998,
      "d": 452.17757812498894,
      "v": 72
    },
    {
      "midi": 71,
      "hit": false,
      "t": 73636.28999999998,
      "d": 456.91242187497846,
      "v": 96
    },
    {
      "midi": 63,
      "hit": false,
      "t": 73636.28999999998,
      "d": 485.3214843749738,
      "v": 92
    },
    {
      "midi": 59,
      "hit": false,
      "t": 74090.83499999996,
      "d": 480.5866406249843,
      "v": 64
    },
    {
      "midi": 71,
      "hit": false,
      "t": 74545.37999999995,
      "d": 409.5639843749959,
      "v": 96
    },
    {
      "midi": 66,
      "hit": false,
      "t": 74545.37999999995,
      "d": 428.5033593749977,
      "v": 92
    },
    {
      "midi": 63,
      "hit": false,
      "t": 74545.37999999995,
      "d": 442.70789062499534,
      "v": 100
    },
    {
      "midi": 59,
      "hit": false,
      "t": 74999.92499999994,
      "d": 499.5260156250006,
      "v": 76
    },
    {
      "midi": 71,
      "hit": false,
      "t": 75454.46999999994,
      "d": 409.5639843749959,
      "v": 88
    },
    {
      "midi": 66,
      "hit": false,
      "t": 75454.46999999994,
      "d": 419.0336718749895,
      "v": 84
    },
    {
      "midi": 63,
      "hit": false,
      "t": 75454.46999999994,
      "d": 423.7685156249936,
      "v": 88
    },
    {
      "midi": 59,
      "hit": false,
      "t": 75909.01499999994,
      "d": 518.4653906250023,
      "v": 80
    },
    {
      "midi": 66,
      "hit": false,
      "t": 76363.55999999994,
      "d": 437.9730468750058,
      "v": 100
    },
    {
      "midi": 63,
      "hit": false,
      "t": 76363.55999999994,
      "d": 452.1775781250035,
      "v": 100
    },
    {
      "midi": 51,
      "hit": false,
      "t": 76363.55999999994,
      "d": 1313.9191406249884,
      "v": 84
    },
    {
      "midi": 39,
      "hit": false,
      "t": 76363.55999999994,
      "d": 1318.6539843749924,
      "v": 84
    },
    {
      "midi": 58,
      "hit": false,
      "t": 76818.10499999994,
      "d": 475.85179687499476,
      "v": 84
    },
    {
      "midi": 63,
      "hit": false,
      "t": 77272.64999999994,
      "d": 461.6472656249971,
      "v": 88
    },
    {
      "midi": 66,
      "hit": false,
      "t": 77272.64999999994,
      "d": 537.4047656250041,
      "v": 92
    },
    {
      "midi": 58,
      "hit": false,
      "t": 77727.19499999993,
      "d": 447.4427343749994,
      "v": 80
    },
    {
      "midi": 56,
      "hit": false,
      "t": 78181.73999999993,
      "d": 343.2761718749971,
      "v": 92
    },
    {
      "midi": 64,
      "hit": false,
      "t": 78181.73999999993,
      "d": 480.58664062499884,
      "v": 92
    },
    {
      "midi": 61,
      "hit": false,
      "t": 78181.73999999993,
      "d": 494.7911718749965,
      "v": 88
    },
    {
      "midi": 49,
      "hit": false,
      "t": 78181.73999999993,
      "d": 1266.5707031250058,
      "v": 92
    },
    {
      "midi": 56,
      "hit": false,
      "t": 78636.28499999993,
      "d": 485.3214843750029,
      "v": 76
    },
    {
      "midi": 64,
      "hit": false,
      "t": 79090.82999999993,
      "d": 433.2382031250163,
      "v": 80
    },
    {
      "midi": 61,
      "hit": false,
      "t": 79090.82999999993,
      "d": 437.9730468750204,
      "v": 64
    },
    {
      "midi": 56,
      "hit": false,
      "t": 79545.37499999996,
      "d": 456.912421874993,
      "v": 80
    },
    {
      "midi": 64,
      "hit": false,
      "t": 79999.91999999995,
      "d": 447.44273437498487,
      "v": 88
    },
    {
      "midi": 61,
      "hit": false,
      "t": 79999.91999999995,
      "d": 471.1169531249907,
      "v": 76
    },
    {
      "midi": 42,
      "hit": false,
      "t": 79999.91999999995,
      "d": 1318.653984375007,
      "v": 100
    },
    {
      "midi": 58,
      "hit": false,
      "t": 80454.46499999994,
      "d": 485.32148437501746,
      "v": 72
    },
    {
      "midi": 49,
      "hit": false,
      "t": 80909.00999999995,
      "d": 352.74585937500524,
      "v": 72
    },
    {
      "midi": 54,
      "hit": false,
      "t": 80909.00999999995,
      "d": 419.0336718750041,
      "v": 72
    },
    {
      "midi": 66,
      "hit": false,
      "t": 80909.00999999995,
      "d": 428.5033593749977,
      "v": 88
    },
    {
      "midi": 61,
      "hit": false,
      "t": 80909.00999999995,
      "d": 456.912421874993,
      "v": 84
    },
    {
      "midi": 58,
      "hit": false,
      "t": 81363.55499999995,
      "d": 196.49601562500175,
      "v": 68
    },
    {
      "midi": 66,
      "hit": false,
      "t": 81818.09999999995,
      "d": 447.4427343749994,
      "v": 84
    },
    {
      "midi": 63,
      "hit": false,
      "t": 81818.09999999995,
      "d": 456.912421874993,
      "v": 84
    },
    {
      "midi": 54,
      "hit": false,
      "t": 81818.09999999995,
      "d": 1403.881171874993,
      "v": 64
    },
    {
      "midi": 47,
      "hit": false,
      "t": 81818.09999999995,
      "d": 3302.5535156250116,
      "v": 64
    },
    {
      "midi": 59,
      "hit": false,
      "t": 82272.64499999995,
      "d": 475.85179687499476,
      "v": 64
    },
    {
      "midi": 66,
      "hit": false,
      "t": 82727.18999999994,
      "d": 447.4427343749994,
      "v": 84
    },
    {
      "midi": 63,
      "hit": false,
      "t": 82727.18999999994,
      "d": 475.85179687499476,
      "v": 92
    },
    {
      "midi": 59,
      "hit": false,
      "t": 83181.73499999994,
      "d": 532.669921875,
      "v": 76
    },
    {
      "midi": 63,
      "hit": false,
      "t": 83636.27999999994,
      "d": 437.9730468750058,
      "v": 96
    },
    {
      "midi": 68,
      "hit": false,
      "t": 83636.27999999994,
      "d": 456.91242187500757,
      "v": 104
    },
    {
      "midi": 59,
      "hit": false,
      "t": 84090.82499999995,
      "d": 504.26085937500466,
      "v": 64
    },
    {
      "midi": 70,
      "hit": false,
      "t": 84545.36999999995,
      "d": 395.3594531250128,
      "v": 100
    },
    {
      "midi": 63,
      "hit": false,
      "t": 84545.36999999995,
      "d": 437.9730468750058,
      "v": 100
    },
    {
      "midi": 59,
      "hit": false,
      "t": 84999.91499999996,
      "d": 400.0942968750023,
      "v": 90
    },
    {
      "midi": 71,
      "hit": false,
      "t": 85454.45999999996,
      "d": 447.4427343749994,
      "v": 92
    },
    {
      "midi": 66,
      "hit": false,
      "t": 85454.45999999996,
      "d": 452.1775781250035,
      "v": 80
    },
    {
      "midi": 63,
      "hit": false,
      "t": 85454.45999999996,
      "d": 471.11695312500524,
      "v": 92
    },
    {
      "midi": 47,
      "hit": false,
      "t": 85454.45999999996,
      "d": 3070.5461718750157,
      "v": 92
    },
    {
      "midi": 59,
      "hit": false,
      "t": 85909.00499999996,
      "d": 494.79117187501106,
      "v": 68
    },
    {
      "midi": 71,
      "hit": false,
      "t": 86363.54999999997,
      "d": 442.70789062499534,
      "v": 88
    },
    {
      "midi": 66,
      "hit": false,
      "t": 86363.54999999997,
      "d": 447.4427343749994,
      "v": 64
    },
    {
      "midi": 63,
      "hit": false,
      "t": 86363.54999999997,
      "d": 466.38210937500116,
      "v": 84
    },
    {
      "midi": 59,
      "hit": false,
      "t": 86818.09499999997,
      "d": 499.5260156250006,
      "v": 64
    },
    {
      "midi": 66,
      "hit": false,
      "t": 87272.63999999997,
      "d": 433.23820312500175,
      "v": 76
    },
    {
      "midi": 71,
      "hit": false,
      "t": 87272.63999999997,
      "d": 433.23820312500175,
      "v": 88
    },
    {
      "midi": 63,
      "hit": false,
      "t": 87272.63999999997,
      "d": 447.4427343749994,
      "v": 92
    },
    {
      "midi": 59,
      "hit": false,
      "t": 87727.18499999997,
      "d": 485.32148437501746,
      "v": 68
    },
    {
      "midi": 54,
      "hit": false,
      "t": 87954.45749999997,
      "d": 523.2002343750064,
      "v": 1
    },
    {
      "midi": 63,
      "hit": false,
      "t": 88181.72999999998,
      "d": 409.5639843749959,
      "v": 92
    },
    {
      "midi": 71,
      "hit": false,
      "t": 88181.72999999998,
      "d": 419.0336718749895,
      "v": 84
    },
    {
      "midi": 66,
      "hit": false,
      "t": 88181.72999999998,
      "d": 428.5033593749831,
      "v": 84
    },
    {
      "midi": 59,
      "hit": false,
      "t": 88636.27499999997,
      "d": 499.5260156250006,
      "v": 84
    },
    {
      "midi": 70,
      "hit": false,
      "t": 89090.81999999996,
      "d": 461.6472656249971,
      "v": 100
    },
    {
      "midi": 64,
      "hit": false,
      "t": 89090.81999999996,
      "d": 523.2002343749919,
      "v": 92
    },
    {
      "midi": 40,
      "hit": false,
      "t": 89090.81999999996,
      "d": 2322.4408593749977,
      "v": 80
    },
    {
      "midi": 52,
      "hit": false,
      "t": 89090.81999999996,
      "d": 2355.584765624997,
      "v": 80
    },
    {
      "midi": 59,
      "hit": false,
      "t": 89545.36499999996,
      "d": 499.5260156250006,
      "v": 68
    },
    {
      "midi": 64,
      "hit": false,
      "t": 89999.90999999996,
      "d": 433.23820312500175,
      "v": 84
    },
    {
      "midi": 70,
      "hit": false,
      "t": 89999.90999999996,
      "d": 475.85179687499476,
      "v": 92
    },
    {
      "midi": 59,
      "hit": false,
      "t": 90454.45499999996,
      "d": 726.7985156249924,
      "v": 72
    },
    {
      "midi": 68,
      "hit": false,
      "t": 90908.99999999996,
      "d": 480.58664062499884,
      "v": 72
    },
    {
      "midi": 64,
      "hit": false,
      "t": 90908.99999999996,
      "d": 485.3214843750029,
      "v": 84
    },
    {
      "midi": 71,
      "hit": false,
      "t": 90908.99999999996,
      "d": 963.540703125007,
      "v": 88
    },
    {
      "midi": 59,
      "hit": false,
      "t": 91363.54499999995,
      "d": 490.056328125007,
      "v": 72
    },
    {
      "midi": 39,
      "hit": false,
      "t": 91818.08999999997,
      "d": 485.3214843750029,
      "v": 84
    },
    {
      "midi": 51,
      "hit": false,
      "t": 91818.08999999997,
      "d": 504.26085937500466,
      "v": 88
    },
    {
      "midi": 63,
      "hit": false,
      "t": 91818.08999999997,
      "d": 504.26085937500466,
      "v": 100
    },
    {
      "midi": 68,
      "hit": false,
      "t": 91818.08999999997,
      "d": 508.99570312500873,
      "v": 92
    },
    {
      "midi": 59,
      "hit": false,
      "t": 92272.63499999997,
      "d": 437.9730468750058,
      "v": 88
    },
    {
      "midi": 68,
      "hit": false,
      "t": 92727.17999999998,
      "d": 475.85179687499476,
      "v": 96
    },
    {
      "midi": 64,
      "hit": false,
      "t": 92727.17999999998,
      "d": 542.1396093749936,
      "v": 92
    },
    {
      "midi": 56,
      "hit": false,
      "t": 92727.17999999998,
      "d": 1380.2069531250017,
      "v": 84
    },
    {
      "midi": 49,
      "hit": false,
      "t": 92727.17999999998,
      "d": 1418.0857031250052,
      "v": 72
    },
    {
      "midi": 61,
      "hit": false,
      "t": 93181.72499999998,
      "d": 433.23820312500175,
      "v": 76
    },
    {
      "midi": 64,
      "hit": false,
      "t": 93636.26999999997,
      "d": 419.0336718750041,
      "v": 72
    },
    {
      "midi": 68,
      "hit": false,
      "t": 93636.26999999997,
      "d": 475.8517968750093,
      "v": 76
    },
    {
      "midi": 61,
      "hit": false,
      "t": 94090.81499999997,
      "d": 490.056328125007,
      "v": 84
    },
    {
      "midi": 70,
      "hit": false,
      "t": 94545.35999999999,
      "d": 456.91242187497846,
      "v": 88
    },
    {
      "midi": 73,
      "hit": false,
      "t": 94545.35999999999,
      "d": 456.91242187497846,
      "v": 76
    },
    {
      "midi": 66,
      "hit": false,
      "t": 94545.35999999999,
      "d": 490.0563281249779,
      "v": 88
    },
    {
      "midi": 42,
      "hit": false,
      "t": 94545.35999999999,
      "d": 1290.2449218749825,
      "v": 60
    },
    {
      "midi": 54,
      "hit": false,
      "t": 94545.35999999999,
      "d": 1299.7146093749761,
      "v": 52
    },
    {
      "midi": 61,
      "hit": false,
      "t": 94999.90499999997,
      "d": 471.11695312500524,
      "v": 76
    },
    {
      "midi": 70,
      "hit": false,
      "t": 95454.44999999997,
      "d": 452.17757812498894,
      "v": 84
    },
    {
      "midi": 66,
      "hit": false,
      "t": 95454.44999999997,
      "d": 466.3821093749866,
      "v": 96
    },
    {
      "midi": 73,
      "hit": false,
      "t": 95454.44999999997,
      "d": 466.3821093749866,
      "v": 92
    },
    {
      "midi": 61,
      "hit": false,
      "t": 95908.99499999995,
      "d": 258.0489843749965,
      "v": 76
    },
    {
      "midi": 71,
      "hit": false,
      "t": 96363.53999999995,
      "d": 428.5033593750122,
      "v": 90
    },
    {
      "midi": 66,
      "hit": false,
      "t": 96363.53999999995,
      "d": 461.64726562501164,
      "v": 90
    },
    {
      "midi": 63,
      "hit": false,
      "t": 96363.53999999995,
      "d": 475.8517968750093,
      "v": 90
    },
    {
      "midi": 54,
      "hit": false,
      "t": 96363.53999999995,
      "d": 3255.205078124971,
      "v": 90
    },
    {
      "midi": 47,
      "hit": false,
      "t": 96363.53999999995,
      "d": 3259.939921874975,
      "v": 90
    },
    {
      "midi": 59,
      "hit": false,
      "t": 96818.08499999996,
      "d": 456.912421874993,
      "v": 80
    },
    {
      "midi": 66,
      "hit": false,
      "t": 97272.62999999996,
      "d": 452.17757812498894,
      "v": 72
    },
    {
      "midi": 71,
      "hit": false,
      "t": 97272.62999999996,
      "d": 456.91242187497846,
      "v": 96
    },
    {
      "midi": 63,
      "hit": false,
      "t": 97272.62999999996,
      "d": 485.3214843749738,
      "v": 92
    },
    {
      "midi": 59,
      "hit": false,
      "t": 97727.17499999994,
      "d": 480.5866406249843,
      "v": 64
    },
    {
      "midi": 71,
      "hit": false,
      "t": 98181.71999999993,
      "d": 409.5639843749959,
      "v": 96
    },
    {
      "midi": 66,
      "hit": false,
      "t": 98181.71999999993,
      "d": 428.5033593749977,
      "v": 92
    },
    {
      "midi": 63,
      "hit": false,
      "t": 98181.71999999993,
      "d": 442.70789062499534,
      "v": 100
    },
    {
      "midi": 59,
      "hit": false,
      "t": 98636.26499999993,
      "d": 499.5260156250006,
      "v": 76
    },
    {
      "midi": 71,
      "hit": false,
      "t": 99090.80999999992,
      "d": 409.5639843749959,
      "v": 88
    },
    {
      "midi": 66,
      "hit": false,
      "t": 99090.80999999992,
      "d": 419.0336718749895,
      "v": 84
    },
    {
      "midi": 63,
      "hit": false,
      "t": 99090.80999999992,
      "d": 423.7685156249936,
      "v": 88
    },
    {
      "midi": 59,
      "hit": false,
      "t": 99545.35499999992,
      "d": 518.4653906250023,
      "v": 80
    },
    {
      "midi": 68,
      "hit": false,
      "t": 99999.89999999992,
      "d": 447.4427343749994,
      "v": 84
    },
    {
      "midi": 71,
      "hit": false,
      "t": 99999.89999999992,
      "d": 456.912421874993,
      "v": 92
    },
    {
      "midi": 64,
      "hit": false,
      "t": 99999.89999999992,
      "d": 466.3821093749866,
      "v": 96
    },
    {
      "midi": 52,
      "hit": false,
      "t": 99999.89999999992,
      "d": 480.5866406249843,
      "v": 80
    },
    {
      "midi": 40,
      "hit": false,
      "t": 99999.89999999992,
      "d": 1328.123671874986,
      "v": 100
    },
    {
      "midi": 59,
      "hit": false,
      "t": 100454.44499999992,
      "d": 494.79117187498196,
      "v": 88
    },
    {
      "midi": 71,
      "hit": false,
      "t": 100908.9899999999,
      "d": 419.0336718750041,
      "v": 104
    },
    {
      "midi": 52,
      "hit": false,
      "t": 100908.9899999999,
      "d": 452.1775781250035,
      "v": 76
    },
    {
      "midi": 68,
      "hit": false,
      "t": 100908.9899999999,
      "d": 452.1775781250035,
      "v": 96
    },
    {
      "midi": 64,
      "hit": false,
      "t": 100908.9899999999,
      "d": 485.3214843750029,
      "v": 96
    },
    {
      "midi": 59,
      "hit": false,
      "t": 101363.5349999999,
      "d": 471.11695312500524,
      "v": 96
    },
    {
      "midi": 70,
      "hit": false,
      "t": 101818.0799999999,
      "d": 385.88976562500466,
      "v": 100
    },
    {
      "midi": 66,
      "hit": false,
      "t": 101818.0799999999,
      "d": 466.38210937500116,
      "v": 100
    },
    {
      "midi": 40,
      "hit": false,
      "t": 101818.0799999999,
      "d": 1290.244921874997,
      "v": 96
    },
    {
      "midi": 52,
      "hit": false,
      "t": 101818.0799999999,
      "d": 1290.244921874997,
      "v": 100
    },
    {
      "midi": 61,
      "hit": false,
      "t": 102272.6249999999,
      "d": 494.7911718749965,
      "v": 92
    },
    {
      "midi": 70,
      "hit": false,
      "t": 102727.1699999999,
      "d": 419.0336718750041,
      "v": 96
    },
    {
      "midi": 66,
      "hit": false,
      "t": 102727.1699999999,
      "d": 428.5033593749977,
      "v": 96
    },
    {
      "midi": 61,
      "hit": false,
      "t": 103181.7149999999,
      "d": 390.6246093749942,
      "v": 76
    },
    {
      "midi": 66,
      "hit": false,
      "t": 103636.2599999999,
      "d": 461.64726562501164,
      "v": 88
    },
    {
      "midi": 70,
      "hit": false,
      "t": 103636.2599999999,
      "d": 471.11695312500524,
      "v": 96
    },
    {
      "midi": 63,
      "hit": false,
      "t": 103636.2599999999,
      "d": 475.8517968750093,
      "v": 92
    },
    {
      "midi": 39,
      "hit": false,
      "t": 103636.2599999999,
      "d": 1285.5100781250076,
      "v": 84
    },
    {
      "midi": 51,
      "hit": false,
      "t": 103636.2599999999,
      "d": 1285.5100781250076,
      "v": 92
    },
    {
      "midi": 58,
      "hit": false,
      "t": 104090.8049999999,
      "d": 480.58664062499884,
      "v": 92
    },
    {
      "midi": 70,
      "hit": false,
      "t": 104545.3499999999,
      "d": 419.0336718749895,
      "v": 96
    },
    {
      "midi": 66,
      "hit": false,
      "t": 104545.3499999999,
      "d": 433.2382031249872,
      "v": 84
    },
    {
      "midi": 63,
      "hit": false,
      "t": 104545.3499999999,
      "d": 456.91242187497846,
      "v": 92
    },
    {
      "midi": 58,
      "hit": false,
      "t": 104999.89499999989,
      "d": 362.21554687499884,
      "v": 92
    },
    {
      "midi": 68,
      "hit": false,
      "t": 105454.43999999989,
      "d": 423.7685156249936,
      "v": 76
    },
    {
      "midi": 63,
      "hit": false,
      "t": 105454.43999999989,
      "d": 466.38210937500116,
      "v": 88
    },
    {
      "midi": 56,
      "hit": false,
      "t": 105454.43999999989,
      "d": 1252.3661718749936,
      "v": 92
    },
    {
      "midi": 51,
      "hit": false,
      "t": 105454.43999999989,
      "d": 1276.0403906249994,
      "v": 87
    },
    {
      "midi": 44,
      "hit": false,
      "t": 105454.43999999989,
      "d": 1323.3888281249965,
      "v": 84
    },
    {
      "midi": 59,
      "hit": false,
      "t": 105908.98499999988,
      "d": 475.85179687499476,
      "v": 88
    },
    {
      "midi": 68,
      "hit": false,
      "t": 106363.52999999988,
      "d": 414.298828125,
      "v": 96
    },
    {
      "midi": 63,
      "hit": false,
      "t": 106363.52999999988,
      "d": 447.4427343749994,
      "v": 96
    },
    {
      "midi": 59,
      "hit": false,
      "t": 106818.07499999988,
      "d": 229.63992187500116,
      "v": 92
    },
    {
      "midi": 59,
      "hit": false,
      "t": 107272.6199999999,
      "d": 300.6625781250041,
      "v": 84
    },
    {
      "midi": 68,
      "hit": false,
      "t": 107272.6199999999,
      "d": 490.05632812499243,
      "v": 88
    },
    {
      "midi": 61,
      "hit": false,
      "t": 107272.6199999999,
      "d": 518.4653906249878,
      "v": 84
    },
    {
      "midi": 64,
      "hit": false,
      "t": 107272.6199999999,
      "d": 537.4047656249895,
      "v": 92
    },
    {
      "midi": 49,
      "hit": false,
      "t": 107272.6199999999,
      "d": 1418.0857031250052,
      "v": 84
    },
    {
      "midi": 56,
      "hit": false,
      "t": 107727.16499999989,
      "d": 494.7911718749965,
      "v": 92
    },
    {
      "midi": 59,
      "hit": false,
      "t": 108181.70999999989,
      "d": 466.38210937500116,
      "v": 88
    },
    {
      "midi": 61,
      "hit": false,
      "t": 108181.70999999989,
      "d": 490.056328125007,
      "v": 80
    },
    {
      "midi": 64,
      "hit": false,
      "t": 108181.70999999989,
      "d": 523.2002343750064,
      "v": 88
    },
    {
      "midi": 68,
      "hit": false,
      "t": 108181.70999999989,
      "d": 575.2835156250076,
      "v": 76
    },
    {
      "midi": 56,
      "hit": false,
      "t": 108636.25499999989,
      "d": 447.44273437501397,
      "v": 81
    },
    {
      "midi": 58,
      "hit": false,
      "t": 109090.7999999999,
      "d": 527.9350781249959,
      "v": 84
    },
    {
      "midi": 61,
      "hit": false,
      "t": 109090.7999999999,
      "d": 527.9350781249959,
      "v": 72
    },
    {
      "midi": 64,
      "hit": false,
      "t": 109090.7999999999,
      "d": 546.8744531249977,
      "v": 84
    },
    {
      "midi": 66,
      "hit": false,
      "t": 109090.7999999999,
      "d": 551.6092968750017,
      "v": 88
    },
    {
      "midi": 42,
      "hit": false,
      "t": 109090.7999999999,
      "d": 1522.252265624993,
      "v": 92
    },
    {
      "midi": 54,
      "hit": false,
      "t": 109545.3449999999,
      "d": 485.3214843750029,
      "v": 87
    },
    {
      "midi": 61,
      "hit": false,
      "t": 109999.8899999999,
      "d": 480.58664062499884,
      "v": 72
    },
    {
      "midi": 58,
      "hit": false,
      "t": 109999.8899999999,
      "d": 485.3214843750029,
      "v": 80
    },
    {
      "midi": 66,
      "hit": false,
      "t": 109999.8899999999,
      "d": 499.5260156250006,
      "v": 68
    },
    {
      "midi": 64,
      "hit": false,
      "t": 109999.8899999999,
      "d": 508.9957031249942,
      "v": 84
    },
    {
      "midi": 54,
      "hit": false,
      "t": 110454.4349999999,
      "d": 281.7232031250023,
      "v": 81
    },
    {
      "midi": 47,
      "hit": false,
      "t": 110908.9799999999,
      "d": 1394.411484375043,
      "v": 92
    },
    {
      "midi": 54,
      "hit": false,
      "t": 111136.2524999999,
      "d": 1205.0177343750256,
      "v": 68
    },
    {
      "midi": 59,
      "hit": false,
      "t": 111363.5249999999,
      "d": 698.3894531250262,
      "v": 72
    },
    {
      "midi": 62,
      "hit": false,
      "t": 111590.79749999991,
      "d": 281.7232031250023,
      "v": 72
    },
    {
      "midi": 61,
      "hit": false,
      "t": 111818.06999999992,
      "d": 196.49601562500175,
      "v": 68
    },
    {
      "midi": 62,
      "hit": false,
      "t": 112045.34249999993,
      "d": 286.4580468750064,
      "v": 76
    },
    {
      "midi": 61,
      "hit": false,
      "t": 112272.61499999993,
      "d": 253.31414062499243,
      "v": 72
    },
    {
      "midi": 59,
      "hit": false,
      "t": 112499.88749999992,
      "d": 423.76851562500815,
      "v": 80
    },
    {
      "midi": 47,
      "hit": false,
      "t": 112727.15999999993,
      "d": 1664.2975781250134,
      "v": 76
    },
    {
      "midi": 54,
      "hit": false,
      "t": 112954.43249999994,
      "d": 1403.8811718750076,
      "v": 72
    },
    {
      "midi": 59,
      "hit": false,
      "t": 113181.70499999994,
      "d": 973.0103906250151,
      "v": 68
    },
    {
      "midi": 62,
      "hit": false,
      "t": 113408.97749999995,
      "d": 272.25351562500873,
      "v": 72
    },
    {
      "midi": 61,
      "hit": false,
      "t": 113636.24999999996,
      "d": 196.49601562500175,
      "v": 68
    },
    {
      "midi": 62,
      "hit": false,
      "t": 113844.58312499996,
      "d": 319.60195312499127,
      "v": 72
    },
    {
      "midi": 61,
      "hit": false,
      "t": 114090.79499999995,
      "d": 258.0489843749965,
      "v": 80
    },
    {
      "midi": 59,
      "hit": false,
      "t": 114318.06749999995,
      "d": 210.70054687499942,
      "v": 88
    },
    {
      "midi": 47,
      "hit": false,
      "t": 114545.33999999995,
      "d": 1370.7372656250081,
      "v": 88
    },
    {
      "midi": 54,
      "hit": false,
      "t": 114772.61249999994,
      "d": 1195.548046875003,
      "v": 76
    },
    {
      "midi": 59,
      "hit": false,
      "t": 114999.88499999995,
      "d": 812.0257031250076,
      "v": 56
    },
    {
      "midi": 62,
      "hit": false,
      "t": 115227.15749999996,
      "d": 267.51867187500466,
      "v": 80
    },
    {
      "midi": 61,
      "hit": false,
      "t": 115454.42999999996,
      "d": 191.76117187499767,
      "v": 84
    },
    {
      "midi": 62,
      "hit": false,
      "t": 115681.70249999996,
      "d": 276.98835937499825,
      "v": 80
    },
    {
      "midi": 61,
      "hit": false,
      "t": 115908.97499999996,
      "d": 205.9657031249808,
      "v": 80
    },
    {
      "midi": 59,
      "hit": false,
      "t": 116136.24749999994,
      "d": 300.6625781250041,
      "v": 72
    },
    {
      "midi": 47,
      "hit": false,
      "t": 116363.51999999995,
      "d": 1285.5100781250221,
      "v": 76
    },
    {
      "midi": 54,
      "hit": false,
      "t": 116590.79249999995,
      "d": 987.2149218750128,
      "v": 64
    },
    {
      "midi": 59,
      "hit": false,
      "t": 116818.06499999996,
      "d": 518.4653906250023,
      "v": 72
    },
    {
      "midi": 62,
      "hit": false,
      "t": 117045.33749999997,
      "d": 281.7232031250023,
      "v": 80
    },
    {
      "midi": 61,
      "hit": false,
      "t": 117272.60999999997,
      "d": 234.3747656249907,
      "v": 84
    },
    {
      "midi": 62,
      "hit": false,
      "t": 117499.88249999996,
      "d": 291.1928906250105,
      "v": 72
    },
    {
      "midi": 61,
      "hit": false,
      "t": 117727.15499999997,
      "d": 220.17023437500757,
      "v": 52
    },
    {
      "midi": 59,
      "hit": false,
      "t": 117954.42749999998,
      "d": 243.8444531250134,
      "v": 72
    },
    {
      "midi": 47,
      "hit": false,
      "t": 118181.69999999998,
      "d": 1451.2296093750483,
      "v": 92
    },
    {
      "midi": 55,
      "hit": false,
      "t": 118408.97249999999,
      "d": 1280.7752343750471,
      "v": 76
    },
    {
      "midi": 59,
      "hit": false,
      "t": 118636.245,
      "d": 973.0103906250297,
      "v": 84
    },
    {
      "midi": 62,
      "hit": false,
      "t": 118863.5175,
      "d": 276.9883593750128,
      "v": 64
    },
    {
      "midi": 61,
      "hit": false,
      "t": 119090.79000000001,
      "d": 187.02632812500815,
      "v": 68
    },
    {
      "midi": 62,
      "hit": false,
      "t": 119318.06250000001,
      "d": 258.04898437501106,
      "v": 76
    },
    {
      "midi": 61,
      "hit": false,
      "t": 119545.33500000002,
      "d": 229.63992187501572,
      "v": 64
    },
    {
      "midi": 59,
      "hit": false,
      "t": 119772.60750000004,
      "d": 234.3747656249907,
      "v": 76
    },
    {
      "midi": 47,
      "hit": false,
      "t": 119999.88000000003,
      "d": 1474.9038281250396,
      "v": 88
    },
    {
      "midi": 55,
      "hit": false,
      "t": 120227.15250000004,
      "d": 1261.8358593750309,
      "v": 72
    },
    {
      "midi": 59,
      "hit": false,
      "t": 120454.42500000005,
      "d": 991.9497656250314,
      "v": 80
    },
    {
      "midi": 62,
      "hit": false,
      "t": 120681.69750000005,
      "d": 305.39742187500815,
      "v": 56
    },
    {
      "midi": 61,
      "hit": false,
      "t": 120908.97000000006,
      "d": 215.4353906250035,
      "v": 80
    },
    {
      "midi": 62,
      "hit": false,
      "t": 121136.24250000007,
      "d": 276.9883593750128,
      "v": 68
    },
    {
      "midi": 61,
      "hit": false,
      "t": 121363.51500000007,
      "d": 267.5186718749901,
      "v": 76
    },
    {
      "midi": 59,
      "hit": false,
      "t": 121590.78750000006,
      "d": 224.9050781249971,
      "v": 84
    },
    {
      "midi": 45,
      "hit": false,
      "t": 121818.06000000006,
      "d": 1517.517421875018,
      "v": 96
    },
    {
      "midi": 52,
      "hit": false,
      "t": 122045.33250000006,
      "d": 1342.3282031250128,
      "v": 76
    },
    {
      "midi": 57,
      "hit": false,
      "t": 122272.60500000007,
      "d": 1129.260234375004,
      "v": 72
    },
    {
      "midi": 64,
      "hit": false,
      "t": 122499.87750000008,
      "d": 267.51867187500466,
      "v": 68
    },
    {
      "midi": 62,
      "hit": false,
      "t": 122727.15000000008,
      "d": 191.76117187499767,
      "v": 76
    },
    {
      "midi": 64,
      "hit": false,
      "t": 122954.42250000007,
      "d": 348.01101562500116,
      "v": 76
    },
    {
      "midi": 62,
      "hit": false,
      "t": 123181.69500000008,
      "d": 262.78382812498603,
      "v": 56
    },
    {
      "midi": 61,
      "hit": false,
      "t": 123408.96750000007,
      "d": 324.33679687499534,
      "v": 92
    },
    {
      "midi": 45,
      "hit": false,
      "t": 123636.24000000006,
      "d": 1309.1842968750134,
      "v": 96
    },
    {
      "midi": 52,
      "hit": false,
      "t": 123863.51250000007,
      "d": 1124.525390625,
      "v": 76
    },
    {
      "midi": 57,
      "hit": false,
      "t": 124090.78500000008,
      "d": 854.6392968750006,
      "v": 84
    },
    {
      "midi": 64,
      "hit": false,
      "t": 124318.05750000008,
      "d": 267.51867187500466,
      "v": 60
    },
    {
      "midi": 62,
      "hit": false,
      "t": 124545.33000000009,
      "d": 205.96570312499534,
      "v": 72
    },
    {
      "midi": 64,
      "hit": false,
      "t": 124772.60250000008,
      "d": 348.0110156249866,
      "v": 72
    },
    {
      "midi": 62,
      "hit": false,
      "t": 124999.87500000007,
      "d": 258.0489843749965,
      "v": 56
    },
    {
      "midi": 61,
      "hit": false,
      "t": 125227.14750000006,
      "d": 229.63992187500116,
      "v": 68
    },
    {
      "midi": 50,
      "hit": false,
      "t": 125454.42000000007,
      "d": 1309.1842968750134,
      "v": 88
    },
    {
      "midi": 57,
      "hit": false,
      "t": 125681.69250000006,
      "d": 1053.5027343750262,
      "v": 72
    },
    {
      "midi": 62,
      "hit": false,
      "t": 125908.96500000007,
      "d": 504.2608593750192,
      "v": 68
    },
    {
      "midi": 66,
      "hit": false,
      "t": 126136.23750000008,
      "d": 243.8444531250134,
      "v": 76
    },
    {
      "midi": 64,
      "hit": false,
      "t": 126363.51000000008,
      "d": 163.35210937500233,
      "v": 76
    },
    {
      "midi": 66,
      "hit": false,
      "t": 126590.78250000009,
      "d": 258.0489843749965,
      "v": 84
    },
    {
      "midi": 64,
      "hit": false,
      "t": 126818.05500000008,
      "d": 239.1096093750093,
      "v": 72
    },
    {
      "midi": 62,
      "hit": false,
      "t": 127045.32750000009,
      "d": 276.9883593750128,
      "v": 80
    },
    {
      "midi": 42,
      "hit": false,
      "t": 127272.6000000001,
      "d": 1498.5780468750163,
      "v": 96
    },
    {
      "midi": 49,
      "hit": false,
      "t": 127499.8725000001,
      "d": 1276.040390625014,
      "v": 56
    },
    {
      "midi": 54,
      "hit": false,
      "t": 127727.1450000001,
      "d": 977.7452343750047,
      "v": 80
    },
    {
      "midi": 58,
      "hit": false,
      "t": 127954.41750000011,
      "d": 248.5792968750029,
      "v": 72
    },
    {
      "midi": 59,
      "hit": false,
      "t": 128181.69000000012,
      "d": 201.23085937499127,
      "v": 64
    },
    {
      "midi": 61,
      "hit": false,
      "t": 128408.96250000011,
      "d": 262.7838281250006,
      "v": 72
    },
    {
      "midi": 59,
      "hit": false,
      "t": 128636.23500000012,
      "d": 210.70054687499942,
      "v": 56
    },
    {
      "midi": 58,
      "hit": false,
      "t": 128863.50750000012,
      "d": 215.43539062498894,
      "v": 76
    },
    {
      "midi": 47,
      "hit": false,
      "t": 129090.78000000012,
      "d": 1370.7372656250081,
      "v": 88
    },
    {
      "midi": 66,
      "hit": false,
      "t": 129090.78000000033,
      "d": 3250.470234374996,
      "v": 107
    },
    {
      "midi": 66,
      "hit": false,
      "t": 129128.65875000032,
      "d": 3250.4702343750105,
      "v": 107
    },
    {
      "midi": 54,
      "hit": false,
      "t": 129318.0525000001,
      "d": 1195.548046875003,
      "v": 76
    },
    {
      "midi": 59,
      "hit": false,
      "t": 129545.32500000011,
      "d": 812.0257031250076,
      "v": 56
    },
    {
      "midi": 62,
      "hit": false,
      "t": 129772.59750000012,
      "d": 267.51867187500466,
      "v": 80
    },
    {
      "midi": 61,
      "hit": false,
      "t": 129999.87000000013,
      "d": 191.76117187499767,
      "v": 84
    },
    {
      "midi": 62,
      "hit": false,
      "t": 130227.14250000012,
      "d": 276.98835937499825,
      "v": 80
    },
    {
      "midi": 61,
      "hit": false,
      "t": 130454.41500000012,
      "d": 205.9657031249808,
      "v": 80
    },
    {
      "midi": 59,
      "hit": false,
      "t": 130681.6875000001,
      "d": 300.6625781250041,
      "v": 72
    },
    {
      "midi": 47,
      "hit": false,
      "t": 130908.96000000011,
      "d": 1285.510078124964,
      "v": 76
    },
    {
      "midi": 54,
      "hit": false,
      "t": 131136.2325000001,
      "d": 987.2149218749837,
      "v": 64
    },
    {
      "midi": 59,
      "hit": false,
      "t": 131363.5050000001,
      "d": 518.4653906250023,
      "v": 72
    },
    {
      "midi": 62,
      "hit": false,
      "t": 131590.77750000008,
      "d": 281.7232031250023,
      "v": 80
    },
    {
      "midi": 61,
      "hit": false,
      "t": 131818.05000000008,
      "d": 234.3747656250198,
      "v": 84
    },
    {
      "midi": 62,
      "hit": false,
      "t": 132045.3225000001,
      "d": 291.19289062495227,
      "v": 72
    },
    {
      "midi": 61,
      "hit": false,
      "t": 132272.59500000006,
      "d": 220.17023437499302,
      "v": 52
    },
    {
      "midi": 59,
      "hit": false,
      "t": 132499.86750000005,
      "d": 243.84445312499884,
      "v": 72
    },
    {
      "midi": 47,
      "hit": false,
      "t": 132727.14000000004,
      "d": 1451.2296093750047,
      "v": 92
    },
    {
      "midi": 67,
      "hit": false,
      "t": 132727.14000000033,
      "d": 2900.091796875,
      "v": 103
    },
    {
      "midi": 67,
      "hit": false,
      "t": 132765.01875000034,
      "d": 2900.091796875,
      "v": 103
    },
    {
      "midi": 55,
      "hit": false,
      "t": 132954.41250000006,
      "d": 1280.7752343749744,
      "v": 76
    },
    {
      "midi": 59,
      "hit": false,
      "t": 133181.68500000006,
      "d": 973.010390624986,
      "v": 84
    },
    {
      "midi": 62,
      "hit": false,
      "t": 133408.95750000005,
      "d": 276.9883593749837,
      "v": 64
    },
    {
      "midi": 61,
      "hit": false,
      "t": 133636.23000000004,
      "d": 187.02632812497905,
      "v": 68
    },
    {
      "midi": 62,
      "hit": false,
      "t": 133863.50250000003,
      "d": 258.0489843749965,
      "v": 76
    },
    {
      "midi": 61,
      "hit": false,
      "t": 134090.77500000002,
      "d": 229.63992187503027,
      "v": 64
    },
    {
      "midi": 59,
      "hit": false,
      "t": 134318.04750000004,
      "d": 234.3747656250198,
      "v": 76
    },
    {
      "midi": 47,
      "hit": false,
      "t": 134545.32000000007,
      "d": 1474.9038281249232,
      "v": 88
    },
    {
      "midi": 55,
      "hit": false,
      "t": 134772.59250000006,
      "d": 1261.835859374929,
      "v": 72
    },
    {
      "midi": 59,
      "hit": false,
      "t": 134999.86500000005,
      "d": 991.9497656249441,
      "v": 80
    },
    {
      "midi": 62,
      "hit": false,
      "t": 135227.13750000004,
      "d": 305.39742187497905,
      "v": 56
    },
    {
      "midi": 61,
      "hit": false,
      "t": 135454.41000000003,
      "d": 215.4353906249744,
      "v": 80
    },
    {
      "midi": 62,
      "hit": false,
      "t": 135681.6825,
      "d": 276.9883593749837,
      "v": 68
    },
    {
      "midi": 61,
      "hit": false,
      "t": 135908.955,
      "d": 267.51867187500466,
      "v": 76
    },
    {
      "midi": 59,
      "hit": false,
      "t": 136136.22749999998,
      "d": 224.90507812501164,
      "v": 84
    },
    {
      "midi": 45,
      "hit": false,
      "t": 136363.5,
      "d": 1517.5174218750035,
      "v": 96
    },
    {
      "midi": 81,
      "hit": false,
      "t": 136363.50000000032,
      "d": 3269.4096093749977,
      "v": 95
    },
    {
      "midi": 81,
      "hit": false,
      "t": 136401.37875000032,
      "d": 3269.4096093749977,
      "v": 95
    },
    {
      "midi": 52,
      "hit": false,
      "t": 136590.7725,
      "d": 1342.3282031250128,
      "v": 76
    },
    {
      "midi": 57,
      "hit": false,
      "t": 136818.04499999998,
      "d": 1129.2602343750186,
      "v": 72
    },
    {
      "midi": 64,
      "hit": false,
      "t": 137045.31749999998,
      "d": 267.51867187500466,
      "v": 68
    },
    {
      "midi": 62,
      "hit": false,
      "t": 137272.58999999997,
      "d": 191.76117187502678,
      "v": 76
    },
    {
      "midi": 64,
      "hit": false,
      "t": 137499.8625,
      "d": 348.01101562500116,
      "v": 76
    },
    {
      "midi": 62,
      "hit": false,
      "t": 137727.13499999998,
      "d": 262.78382812501513,
      "v": 56
    },
    {
      "midi": 61,
      "hit": false,
      "t": 137954.4075,
      "d": 324.33679687499534,
      "v": 92
    },
    {
      "midi": 45,
      "hit": false,
      "t": 138181.68,
      "d": 1309.1842968749697,
      "v": 96
    },
    {
      "midi": 52,
      "hit": false,
      "t": 138408.95249999998,
      "d": 1124.525390624971,
      "v": 76
    },
    {
      "midi": 57,
      "hit": false,
      "t": 138636.22499999998,
      "d": 854.639296874986,
      "v": 84
    },
    {
      "midi": 64,
      "hit": false,
      "t": 138863.49749999997,
      "d": 267.51867187500466,
      "v": 60
    },
    {
      "midi": 62,
      "hit": false,
      "t": 139090.76999999996,
      "d": 205.96570312499534,
      "v": 72
    },
    {
      "midi": 64,
      "hit": false,
      "t": 139318.04249999995,
      "d": 348.01101562500116,
      "v": 72
    },
    {
      "midi": 62,
      "hit": false,
      "t": 139545.31499999994,
      "d": 258.0489843750256,
      "v": 56
    },
    {
      "midi": 61,
      "hit": false,
      "t": 139772.58749999997,
      "d": 229.63992187500116,
      "v": 68
    },
    {
      "midi": 50,
      "hit": false,
      "t": 139999.85999999996,
      "d": 1309.1842968749697,
      "v": 88
    },
    {
      "midi": 78,
      "hit": false,
      "t": 139999.8600000003,
      "d": 1650.0930468750012,
      "v": 91
    },
    {
      "midi": 78,
      "hit": false,
      "t": 140037.7387500003,
      "d": 1650.0930468750012,
      "v": 91
    },
    {
      "midi": 57,
      "hit": false,
      "t": 140227.13249999995,
      "d": 1053.5027343749825,
      "v": 72
    },
    {
      "midi": 62,
      "hit": false,
      "t": 140454.40499999994,
      "d": 504.26085937500466,
      "v": 68
    },
    {
      "midi": 66,
      "hit": false,
      "t": 140681.67749999993,
      "d": 243.84445312499884,
      "v": 76
    },
    {
      "midi": 64,
      "hit": false,
      "t": 140908.94999999992,
      "d": 163.35210937503143,
      "v": 76
    },
    {
      "midi": 66,
      "hit": false,
      "t": 141136.22249999995,
      "d": 258.0489843749965,
      "v": 84
    },
    {
      "midi": 64,
      "hit": false,
      "t": 141363.49499999994,
      "d": 239.1096093749802,
      "v": 72
    },
    {
      "midi": 62,
      "hit": false,
      "t": 141590.76749999993,
      "d": 276.9883593749837,
      "v": 80
    },
    {
      "midi": 42,
      "hit": false,
      "t": 141818.03999999992,
      "d": 1498.578046874958,
      "v": 96
    },
    {
      "midi": 78,
      "hit": false,
      "t": 141818.0400000003,
      "d": 1763.7292968750116,
      "v": 91
    },
    {
      "midi": 78,
      "hit": false,
      "t": 141855.9187500003,
      "d": 1763.7292968750116,
      "v": 91
    },
    {
      "midi": 49,
      "hit": false,
      "t": 142045.3124999999,
      "d": 1276.0403906249558,
      "v": 56
    },
    {
      "midi": 54,
      "hit": false,
      "t": 142272.5849999999,
      "d": 977.7452343749756,
      "v": 80
    },
    {
      "midi": 58,
      "hit": false,
      "t": 142499.8574999999,
      "d": 248.57929687498836,
      "v": 72
    },
    {
      "midi": 59,
      "hit": false,
      "t": 142727.1299999999,
      "d": 201.23085937500582,
      "v": 64
    },
    {
      "midi": 61,
      "hit": false,
      "t": 142954.40249999988,
      "d": 262.78382812498603,
      "v": 72
    },
    {
      "midi": 59,
      "hit": false,
      "t": 143181.67499999987,
      "d": 210.70054687498487,
      "v": 56
    },
    {
      "midi": 58,
      "hit": false,
      "t": 143408.94749999986,
      "d": 215.4353906250035,
      "v": 76
    },
    {
      "midi": 54,
      "hit": false,
      "t": 143636.21999999988,
      "d": 996.6846093749919,
      "v": 92
    },
    {
      "midi": 47,
      "hit": false,
      "t": 143636.21999999988,
      "d": 1020.3588281249977,
      "v": 104
    },
    {
      "midi": 59,
      "hit": false,
      "t": 143636.21999999988,
      "d": 1020.3588281249977,
      "v": 108
    },
    {
      "midi": 66,
      "hit": false,
      "t": 143636.21999999988,
      "d": 1034.5633593749953,
      "v": 100
    },
    {
      "midi": 54,
      "hit": false,
      "t": 144999.85499999986,
      "d": 1664.297578125028,
      "v": 100
    },
    {
      "midi": 47,
      "hit": false,
      "t": 144999.85499999986,
      "d": 1692.7066406250233,
      "v": 96
    },
    {
      "midi": 59,
      "hit": false,
      "t": 144999.85499999986,
      "d": 1716.380859375029,
      "v": 104
    },
    {
      "midi": 62,
      "hit": false,
      "t": 144999.85499999986,
      "d": 1725.8505468750373,
      "v": 108
    },
    {
      "midi": 66,
      "hit": false,
      "t": 144999.85499999986,
      "d": 1735.3202343750454,
      "v": 96
    },
    {
      "midi": 59,
      "hit": false,
      "t": 147272.57999999993,
      "d": 584.7532031249721,
      "v": 108
    },
    {
      "midi": 62,
      "hit": false,
      "t": 147272.57999999993,
      "d": 741.0030468749756,
      "v": 108
    },
    {
      "midi": 69,
      "hit": false,
      "t": 147272.57999999993,
      "d": 1006.1542968749709,
      "v": 108
    },
    {
      "midi": 55,
      "hit": false,
      "t": 147272.57999999993,
      "d": 1446.494765624986,
      "v": 92
    },
    {
      "midi": 43,
      "hit": false,
      "t": 147272.57999999993,
      "d": 1451.2296093749756,
      "v": 88
    },
    {
      "midi": 59,
      "hit": false,
      "t": 148181.6699999999,
      "d": 527.9350781250105,
      "v": 80
    },
    {
      "midi": 62,
      "hit": false,
      "t": 148181.6699999999,
      "d": 636.8364843750023,
      "v": 80
    },
    {
      "midi": 67,
      "hit": false,
      "t": 148181.6699999999,
      "d": 1474.9038281249814,
      "v": 84
    },
    {
      "midi": 59,
      "hit": false,
      "t": 149090.7599999999,
      "d": 527.9350781250105,
      "v": 64
    },
    {
      "midi": 62,
      "hit": false,
      "t": 149090.7599999999,
      "d": 546.8744531249977,
      "v": 56
    },
    {
      "midi": 55,
      "hit": false,
      "t": 149090.7599999999,
      "d": 636.8364843749732,
      "v": 68
    },
    {
      "midi": 43,
      "hit": false,
      "t": 149090.7599999999,
      "d": 982.4800781249651,
      "v": 56
    },
    {
      "midi": 59,
      "hit": false,
      "t": 149999.84999999986,
      "d": 106.53398437501164,
      "v": 108
    },
    {
      "midi": 55,
      "hit": false,
      "t": 149999.84999999986,
      "d": 125.47335937499884,
      "v": 80
    },
    {
      "midi": 62,
      "hit": false,
      "t": 149999.84999999986,
      "d": 187.02632812500815,
      "v": 112
    },
    {
      "midi": 62,
      "hit": false,
      "t": 150227.12249999988,
      "d": 40.246171875012806,
      "v": 64
    },
    {
      "midi": 59,
      "hit": false,
      "t": 150227.12249999988,
      "d": 97.06429687500349,
      "v": 96
    },
    {
      "midi": 64,
      "hit": false,
      "t": 150227.12249999988,
      "d": 139.6778906249965,
      "v": 104
    },
    {
      "midi": 43,
      "hit": false,
      "t": 150454.39499999987,
      "d": 54.45070312501048,
      "v": 61
    },
    {
      "midi": 57,
      "hit": false,
      "t": 150908.9399999999,
      "d": 456.9124218750221,
      "v": 92
    },
    {
      "midi": 62,
      "hit": false,
      "t": 150908.9399999999,
      "d": 471.1169531250198,
      "v": 88
    },
    {
      "midi": 66,
      "hit": false,
      "t": 150908.9399999999,
      "d": 2057.2896093750314,
      "v": 100
    },
    {
      "midi": 50,
      "hit": false,
      "t": 150908.9399999999,
      "d": 2227.7439843750326,
      "v": 92
    },
    {
      "midi": 62,
      "hit": false,
      "t": 151818.0299999999,
      "d": 475.8517968750093,
      "v": 64
    },
    {
      "midi": 57,
      "hit": false,
      "t": 151818.0299999999,
      "d": 490.056328125007,
      "v": 64
    },
    {
      "midi": 57,
      "hit": false,
      "t": 152727.1199999999,
      "d": 471.1169531250198,
      "v": 84
    },
    {
      "midi": 62,
      "hit": false,
      "t": 152727.1199999999,
      "d": 490.056328125007,
      "v": 72
    },
    {
      "midi": 64,
      "hit": false,
      "t": 153181.66499999992,
      "d": 191.76117187499767,
      "v": 92
    },
    {
      "midi": 66,
      "hit": false,
      "t": 153408.9374999999,
      "d": 348.01101562500116,
      "v": 88
    },
    {
      "midi": 57,
      "hit": false,
      "t": 153636.2099999999,
      "d": 92.32945312501397,
      "v": 84
    },
    {
      "midi": 50,
      "hit": false,
      "t": 153636.2099999999,
      "d": 163.35210937500233,
      "v": 76
    },
    {
      "midi": 62,
      "hit": false,
      "t": 153636.2099999999,
      "d": 428.5033593749977,
      "v": 100
    },
    {
      "midi": 57,
      "hit": false,
      "t": 153863.4824999999,
      "d": 248.57929687498836,
      "v": 88
    },
    {
      "midi": 50,
      "hit": false,
      "t": 154090.7549999999,
      "d": 78.1249218749872,
      "v": 72
    },
    {
      "midi": 61,
      "hit": false,
      "t": 154545.29999999987,
      "d": 527.9350781249814,
      "v": 84
    },
    {
      "midi": 58,
      "hit": false,
      "t": 154545.29999999987,
      "d": 537.4047656249895,
      "v": 84
    },
    {
      "midi": 66,
      "hit": false,
      "t": 154545.29999999987,
      "d": 575.283515624993,
      "v": 76
    },
    {
      "midi": 54,
      "hit": false,
      "t": 154545.29999999987,
      "d": 3335.6974218749674,
      "v": 96
    },
    {
      "midi": 42,
      "hit": false,
      "t": 154545.29999999987,
      "d": 3411.4549218749453,
      "v": 100
    },
    {
      "midi": 58,
      "hit": false,
      "t": 155454.38999999987,
      "d": 442.70789062499534,
      "v": 88
    },
    {
      "midi": 61,
      "hit": false,
      "t": 155454.38999999987,
      "d": 461.64726562498254,
      "v": 64
    },
    {
      "midi": 66,
      "hit": false,
      "t": 155454.38999999987,
      "d": 490.0563281249779,
      "v": 88
    },
    {
      "midi": 61,
      "hit": false,
      "t": 156363.47999999984,
      "d": 400.0942968750023,
      "v": 52
    },
    {
      "midi": 58,
      "hit": false,
      "t": 156363.47999999984,
      "d": 414.298828125,
      "v": 76
    },
    {
      "midi": 66,
      "hit": false,
      "t": 156363.47999999984,
      "d": 428.5033593749977,
      "v": 72
    },
    {
      "midi": 58,
      "hit": false,
      "t": 156590.75250000032,
      "d": 1399.1463281249453,
      "v": 100
    },
    {
      "midi": 58,
      "hit": false,
      "t": 156647.5706250003,
      "d": 1399.1463281249744,
      "v": 100
    },
    {
      "midi": 61,
      "hit": false,
      "t": 156818.0250000003,
      "d": 1233.4267968749336,
      "v": 100
    },
    {
      "midi": 61,
      "hit": false,
      "t": 156874.84312500033,
      "d": 1233.4267968749336,
      "v": 100
    },
    {
      "midi": 66,
      "hit": false,
      "t": 157045.2975000003,
      "d": 1001.4194531249523,
      "v": 92
    },
    {
      "midi": 66,
      "hit": false,
      "t": 157102.11562500033,
      "d": 1001.4194531249523,
      "v": 92
    },
    {
      "midi": 61,
      "hit": false,
      "t": 157272.56999999983,
      "d": 660.5107031250081,
      "v": 40
    },
    {
      "midi": 58,
      "hit": false,
      "t": 157272.56999999983,
      "d": 665.2455468749977,
      "v": 68
    },
    {
      "midi": 66,
      "hit": false,
      "t": 157272.56999999983,
      "d": 688.9197656249744,
      "v": 44
    },
    {
      "midi": 70,
      "hit": false,
      "t": 157272.5700000003,
      "d": 542.139609374979,
      "v": 100
    },
    {
      "midi": 70,
      "hit": false,
      "t": 157329.38812500032,
      "d": 542.139609374979,
      "v": 100
    },
    {
      "midi": 73,
      "hit": false,
      "t": 157499.8425000003,
      "d": 352.7458593749907,
      "v": 96
    },
    {
      "midi": 73,
      "hit": false,
      "t": 157556.6606250003,
      "d": 352.7458593749907,
      "v": 96
    },
    {
      "midi": 78,
      "hit": false,
      "t": 157727.11500000028,
      "d": 409.56398437495227,
      "v": 100
    },
    {
      "midi": 78,
      "hit": false,
      "t": 157783.9331250003,
      "d": 409.56398437495227,
      "v": 100
    },
    {
      "midi": 71,
      "hit": false,
      "t": 158181.6599999998,
      "d": 447.44273437501397,
      "v": 92
    },
    {
      "midi": 66,
      "hit": false,
      "t": 158181.6599999998,
      "d": 452.1775781250035,
      "v": 80
    },
    {
      "midi": 63,
      "hit": false,
      "t": 158181.6599999998,
      "d": 471.1169531250198,
      "v": 92
    },
    {
      "midi": 47,
      "hit": false,
      "t": 158181.6599999998,
      "d": 3070.5461718750303,
      "v": 92
    },
    {
      "midi": 59,
      "hit": false,
      "t": 158636.2049999998,
      "d": 494.7911718750256,
      "v": 68
    },
    {
      "midi": 71,
      "hit": false,
      "t": 159090.74999999983,
      "d": 442.70789062502445,
      "v": 88
    },
    {
      "midi": 66,
      "hit": false,
      "t": 159090.74999999983,
      "d": 447.44273437501397,
      "v": 64
    },
    {
      "midi": 63,
      "hit": false,
      "t": 159090.74999999983,
      "d": 466.38210937500116,
      "v": 84
    },
    {
      "midi": 59,
      "hit": false,
      "t": 159545.29499999984,
      "d": 499.52601562498603,
      "v": 64
    },
    {
      "midi": 66,
      "hit": false,
      "t": 159999.83999999982,
      "d": 433.2382031250163,
      "v": 76
    },
    {
      "midi": 71,
      "hit": false,
      "t": 159999.83999999982,
      "d": 433.2382031250163,
      "v": 88
    },
    {
      "midi": 63,
      "hit": false,
      "t": 159999.83999999982,
      "d": 447.44273437501397,
      "v": 92
    },
    {
      "midi": 59,
      "hit": false,
      "t": 160454.38499999983,
      "d": 485.32148437498836,
      "v": 68
    },
    {
      "midi": 54,
      "hit": false,
      "t": 160681.65749999983,
      "d": 523.2002343749919,
      "v": 1
    },
    {
      "midi": 63,
      "hit": false,
      "t": 160908.92999999982,
      "d": 409.5639843750105,
      "v": 92
    },
    {
      "midi": 71,
      "hit": false,
      "t": 160908.92999999982,
      "d": 419.0336718750186,
      "v": 84
    },
    {
      "midi": 66,
      "hit": false,
      "t": 160908.92999999982,
      "d": 428.5033593750268,
      "v": 84
    },
    {
      "midi": 59,
      "hit": false,
      "t": 161363.47499999983,
      "d": 499.52601562501513,
      "v": 84
    },
    {
      "midi": 70,
      "hit": false,
      "t": 161818.01999999984,
      "d": 461.64726562498254,
      "v": 100
    },
    {
      "midi": 64,
      "hit": false,
      "t": 161818.01999999984,
      "d": 523.2002343749919,
      "v": 92
    },
    {
      "midi": 40,
      "hit": false,
      "t": 161818.01999999984,
      "d": 2322.4408593749395,
      "v": 80
    },
    {
      "midi": 52,
      "hit": false,
      "t": 161818.01999999984,
      "d": 2355.5847656249534,
      "v": 80
    },
    {
      "midi": 59,
      "hit": false,
      "t": 162272.56499999983,
      "d": 499.52601562501513,
      "v": 68
    },
    {
      "midi": 64,
      "hit": false,
      "t": 162727.10999999984,
      "d": 433.2382031250163,
      "v": 84
    },
    {
      "midi": 70,
      "hit": false,
      "t": 162727.10999999984,
      "d": 475.8517968750093,
      "v": 92
    },
    {
      "midi": 59,
      "hit": false,
      "t": 163181.65499999985,
      "d": 726.7985156249779,
      "v": 72
    },
    {
      "midi": 68,
      "hit": false,
      "t": 163636.19999999984,
      "d": 480.58664062496973,
      "v": 72
    },
    {
      "midi": 64,
      "hit": false,
      "t": 163636.19999999984,
      "d": 485.32148437495925,
      "v": 84
    },
    {
      "midi": 71,
      "hit": false,
      "t": 163636.19999999984,
      "d": 963.5407031249488,
      "v": 88
    },
    {
      "midi": 59,
      "hit": false,
      "t": 164090.74499999982,
      "d": 490.0563281249779,
      "v": 72
    },
    {
      "midi": 39,
      "hit": false,
      "t": 164545.2899999998,
      "d": 485.32148437498836,
      "v": 84
    },
    {
      "midi": 51,
      "hit": false,
      "t": 164545.2899999998,
      "d": 504.26085937497555,
      "v": 88
    },
    {
      "midi": 63,
      "hit": false,
      "t": 164545.2899999998,
      "d": 504.26085937497555,
      "v": 100
    },
    {
      "midi": 68,
      "hit": false,
      "t": 164545.2899999998,
      "d": 508.9957031249651,
      "v": 92
    },
    {
      "midi": 59,
      "hit": false,
      "t": 164999.8349999998,
      "d": 437.9730468749767,
      "v": 88
    },
    {
      "midi": 68,
      "hit": false,
      "t": 165454.37999999977,
      "d": 475.8517968750093,
      "v": 96
    },
    {
      "midi": 64,
      "hit": false,
      "t": 165454.37999999977,
      "d": 542.1396093750081,
      "v": 92
    },
    {
      "midi": 56,
      "hit": false,
      "t": 165454.37999999977,
      "d": 1380.2069531249872,
      "v": 84
    },
    {
      "midi": 49,
      "hit": false,
      "t": 165454.37999999977,
      "d": 1418.0857031249907,
      "v": 72
    },
    {
      "midi": 61,
      "hit": false,
      "t": 165908.92499999978,
      "d": 433.2382031249872,
      "v": 76
    },
    {
      "midi": 64,
      "hit": false,
      "t": 166363.46999999977,
      "d": 419.0336718749895,
      "v": 72
    },
    {
      "midi": 68,
      "hit": false,
      "t": 166363.46999999977,
      "d": 475.8517968749802,
      "v": 76
    },
    {
      "midi": 61,
      "hit": false,
      "t": 166818.01499999975,
      "d": 490.056328125007,
      "v": 84
    },
    {
      "midi": 70,
      "hit": false,
      "t": 167272.55999999976,
      "d": 456.912421874993,
      "v": 88
    },
    {
      "midi": 73,
      "hit": false,
      "t": 167272.55999999976,
      "d": 456.912421874993,
      "v": 76
    },
    {
      "midi": 66,
      "hit": false,
      "t": 167272.55999999976,
      "d": 490.056328125007,
      "v": 88
    },
    {
      "midi": 42,
      "hit": false,
      "t": 167272.55999999976,
      "d": 1290.2449218750116,
      "v": 60
    },
    {
      "midi": 54,
      "hit": false,
      "t": 167272.55999999976,
      "d": 1299.7146093750198,
      "v": 52
    },
    {
      "midi": 61,
      "hit": false,
      "t": 167727.10499999975,
      "d": 471.1169531250198,
      "v": 76
    },
    {
      "midi": 70,
      "hit": false,
      "t": 168181.64999999976,
      "d": 452.1775781250326,
      "v": 84
    },
    {
      "midi": 66,
      "hit": false,
      "t": 168181.64999999976,
      "d": 466.38210937503027,
      "v": 96
    },
    {
      "midi": 73,
      "hit": false,
      "t": 168181.64999999976,
      "d": 466.38210937503027,
      "v": 92
    },
    {
      "midi": 61,
      "hit": false,
      "t": 168636.1949999998,
      "d": 258.0489843749965,
      "v": 76
    },
    {
      "midi": 71,
      "hit": false,
      "t": 169090.7399999998,
      "d": 428.5033593749977,
      "v": 90
    },
    {
      "midi": 66,
      "hit": false,
      "t": 169090.7399999998,
      "d": 461.64726562498254,
      "v": 90
    },
    {
      "midi": 63,
      "hit": false,
      "t": 169090.7399999998,
      "d": 475.8517968749802,
      "v": 90
    },
    {
      "midi": 54,
      "hit": false,
      "t": 169090.7399999998,
      "d": 3255.205078124971,
      "v": 90
    },
    {
      "midi": 47,
      "hit": false,
      "t": 169090.7399999998,
      "d": 3259.9399218749604,
      "v": 90
    },
    {
      "midi": 59,
      "hit": false,
      "t": 169545.28499999977,
      "d": 456.912421874993,
      "v": 80
    },
    {
      "midi": 66,
      "hit": false,
      "t": 169999.82999999975,
      "d": 452.1775781250035,
      "v": 72
    },
    {
      "midi": 71,
      "hit": false,
      "t": 169999.82999999975,
      "d": 456.9124218750221,
      "v": 96
    },
    {
      "midi": 63,
      "hit": false,
      "t": 169999.82999999975,
      "d": 485.32148437501746,
      "v": 92
    },
    {
      "midi": 59,
      "hit": false,
      "t": 170454.37499999977,
      "d": 480.58664062499884,
      "v": 64
    },
    {
      "midi": 71,
      "hit": false,
      "t": 170908.91999999978,
      "d": 409.5639843749814,
      "v": 96
    },
    {
      "midi": 66,
      "hit": false,
      "t": 170908.91999999978,
      "d": 428.50335937496857,
      "v": 92
    },
    {
      "midi": 63,
      "hit": false,
      "t": 170908.91999999978,
      "d": 442.70789062496624,
      "v": 100
    },
    {
      "midi": 59,
      "hit": false,
      "t": 171363.46499999973,
      "d": 499.52601562501513,
      "v": 76
    },
    {
      "midi": 71,
      "hit": false,
      "t": 171818.00999999975,
      "d": 409.5639843750105,
      "v": 88
    },
    {
      "midi": 66,
      "hit": false,
      "t": 171818.00999999975,
      "d": 419.0336718750186,
      "v": 84
    },
    {
      "midi": 63,
      "hit": false,
      "t": 171818.00999999975,
      "d": 423.76851562500815,
      "v": 88
    },
    {
      "midi": 59,
      "hit": false,
      "t": 172272.55499999976,
      "d": 518.4653906249732,
      "v": 80
    },
    {
      "midi": 66,
      "hit": false,
      "t": 172727.09999999974,
      "d": 437.9730468749767,
      "v": 100
    },
    {
      "midi": 63,
      "hit": false,
      "t": 172727.09999999974,
      "d": 452.1775781249744,
      "v": 100
    },
    {
      "midi": 51,
      "hit": false,
      "t": 172727.09999999974,
      "d": 1313.9191406249884,
      "v": 84
    },
    {
      "midi": 39,
      "hit": false,
      "t": 172727.09999999974,
      "d": 1318.6539843749779,
      "v": 84
    },
    {
      "midi": 58,
      "hit": false,
      "t": 173181.64499999973,
      "d": 475.8517968750093,
      "v": 84
    },
    {
      "midi": 63,
      "hit": false,
      "t": 173636.18999999974,
      "d": 461.64726562498254,
      "v": 88
    },
    {
      "midi": 66,
      "hit": false,
      "t": 173636.18999999974,
      "d": 537.4047656249895,
      "v": 92
    },
    {
      "midi": 58,
      "hit": false,
      "t": 174090.73499999972,
      "d": 447.44273437501397,
      "v": 80
    },
    {
      "midi": 56,
      "hit": false,
      "t": 174545.27999999974,
      "d": 343.27617187501164,
      "v": 92
    },
    {
      "midi": 64,
      "hit": false,
      "t": 174545.27999999974,
      "d": 480.58664062499884,
      "v": 92
    },
    {
      "midi": 61,
      "hit": false,
      "t": 174545.27999999974,
      "d": 494.7911718749965,
      "v": 88
    },
    {
      "midi": 49,
      "hit": false,
      "t": 174545.27999999974,
      "d": 1266.5707031250058,
      "v": 92
    },
    {
      "midi": 56,
      "hit": false,
      "t": 174999.82499999975,
      "d": 485.32148437498836,
      "v": 76
    },
    {
      "midi": 64,
      "hit": false,
      "t": 175454.36999999973,
      "d": 433.2382031250163,
      "v": 80
    },
    {
      "midi": 61,
      "hit": false,
      "t": 175454.36999999973,
      "d": 437.9730468750058,
      "v": 64
    },
    {
      "midi": 56,
      "hit": false,
      "t": 175908.91499999975,
      "d": 456.9124218750221,
      "v": 80
    },
    {
      "midi": 64,
      "hit": false,
      "t": 176363.45999999976,
      "d": 447.44273437501397,
      "v": 88
    },
    {
      "midi": 61,
      "hit": false,
      "t": 176363.45999999976,
      "d": 471.1169531250198,
      "v": 76
    },
    {
      "midi": 42,
      "hit": false,
      "t": 176363.45999999976,
      "d": 1318.653984375007,
      "v": 100
    },
    {
      "midi": 58,
      "hit": false,
      "t": 176818.00499999977,
      "d": 485.32148437501746,
      "v": 72
    },
    {
      "midi": 49,
      "hit": false,
      "t": 177272.54999999978,
      "d": 352.7458593749907,
      "v": 72
    },
    {
      "midi": 54,
      "hit": false,
      "t": 177272.54999999978,
      "d": 419.0336718749895,
      "v": 72
    },
    {
      "midi": 66,
      "hit": false,
      "t": 177272.54999999978,
      "d": 428.5033593749977,
      "v": 88
    },
    {
      "midi": 61,
      "hit": false,
      "t": 177272.54999999978,
      "d": 456.912421874993,
      "v": 84
    },
    {
      "midi": 58,
      "hit": false,
      "t": 177727.09499999977,
      "d": 196.4960156250163,
      "v": 68
    },
    {
      "midi": 66,
      "hit": false,
      "t": 178181.63999999978,
      "d": 447.44273437501397,
      "v": 84
    },
    {
      "midi": 63,
      "hit": false,
      "t": 178181.63999999978,
      "d": 456.9124218750221,
      "v": 84
    },
    {
      "midi": 54,
      "hit": false,
      "t": 178181.63999999978,
      "d": 1403.881171874993,
      "v": 64
    },
    {
      "midi": 47,
      "hit": false,
      "t": 178181.63999999978,
      "d": 3302.5535156249825,
      "v": 64
    },
    {
      "midi": 59,
      "hit": false,
      "t": 178636.1849999998,
      "d": 475.8517968750093,
      "v": 64
    },
    {
      "midi": 66,
      "hit": false,
      "t": 179090.7299999998,
      "d": 447.44273437498487,
      "v": 84
    },
    {
      "midi": 63,
      "hit": false,
      "t": 179090.7299999998,
      "d": 475.8517968749802,
      "v": 92
    },
    {
      "midi": 59,
      "hit": false,
      "t": 179545.2749999998,
      "d": 532.6699218749709,
      "v": 76
    },
    {
      "midi": 59,
      "hit": false,
      "t": 179829.36562500033,
      "d": 134.94304687500698,
      "v": 104
    },
    {
      "midi": 63,
      "hit": false,
      "t": 179999.81999999977,
      "d": 437.9730468749767,
      "v": 96
    },
    {
      "midi": 68,
      "hit": false,
      "t": 179999.81999999977,
      "d": 456.912421874993,
      "v": 104
    },
    {
      "midi": 66,
      "hit": false,
      "t": 180023.49421875033,
      "d": 523.2002343749919,
      "v": 104
    },
    {
      "midi": 59,
      "hit": false,
      "t": 180454.36499999976,
      "d": 504.26085937500466,
      "v": 64
    },
    {
      "midi": 64,
      "hit": false,
      "t": 180657.96328125033,
      "d": 262.78382812498603,
      "v": 108
    },
    {
      "midi": 63,
      "hit": false,
      "t": 180885.23578125032,
      "d": 561.0789843749953,
      "v": 108
    },
    {
      "midi": 70,
      "hit": false,
      "t": 180908.90999999977,
      "d": 395.3594531249837,
      "v": 100
    },
    {
      "midi": 63,
      "hit": false,
      "t": 180908.90999999977,
      "d": 437.9730468749767,
      "v": 100
    },
    {
      "midi": 59,
      "hit": false,
      "t": 181363.45499999975,
      "d": 400.0942968750023,
      "v": 90
    },
    {
      "midi": 61,
      "hit": false,
      "t": 181581.25781250032,
      "d": 177.556640625,
      "v": 104
    },
    {
      "midi": 63,
      "hit": false,
      "t": 181789.59093750032,
      "d": 229.63992187500116,
      "v": 112
    },
    {
      "midi": 71,
      "hit": false,
      "t": 181817.99999999977,
      "d": 447.44273437501397,
      "v": 92
    },
    {
      "midi": 66,
      "hit": false,
      "t": 181817.99999999977,
      "d": 452.1775781250035,
      "v": 80
    },
    {
      "midi": 63,
      "hit": false,
      "t": 181817.99999999977,
      "d": 471.1169531250198,
      "v": 92
    },
    {
      "midi": 47,
      "hit": false,
      "t": 181817.99999999977,
      "d": 3070.5461718750303,
      "v": 92
    },
    {
      "midi": 61,
      "hit": false,
      "t": 182002.65890625032,
      "d": 210.70054687501397,
      "v": 112
    },
    {
      "midi": 63,
      "hit": false,
      "t": 182225.19656250032,
      "d": 897.2528906250081,
      "v": 112
    },
    {
      "midi": 59,
      "hit": false,
      "t": 182272.54499999978,
      "d": 494.7911718750256,
      "v": 68
    },
    {
      "midi": 71,
      "hit": false,
      "t": 182727.0899999998,
      "d": 442.70789062502445,
      "v": 88
    },
    {
      "midi": 66,
      "hit": false,
      "t": 182727.0899999998,
      "d": 447.44273437501397,
      "v": 64
    },
    {
      "midi": 63,
      "hit": false,
      "t": 182727.0899999998,
      "d": 466.38210937500116,
      "v": 84
    },
    {
      "midi": 59,
      "hit": false,
      "t": 183181.6349999998,
      "d": 499.52601562498603,
      "v": 64
    },
    {
      "midi": 66,
      "hit": false,
      "t": 183636.1799999998,
      "d": 433.2382031250163,
      "v": 76
    },
    {
      "midi": 71,
      "hit": false,
      "t": 183636.1799999998,
      "d": 433.2382031250163,
      "v": 88
    },
    {
      "midi": 63,
      "hit": false,
      "t": 183636.1799999998,
      "d": 447.44273437501397,
      "v": 92
    },
    {
      "midi": 59,
      "hit": false,
      "t": 184090.7249999998,
      "d": 485.32148437498836,
      "v": 68
    },
    {
      "midi": 54,
      "hit": false,
      "t": 184317.9974999998,
      "d": 523.2002343749919,
      "v": 1
    },
    {
      "midi": 63,
      "hit": false,
      "t": 184545.2699999998,
      "d": 409.5639843750105,
      "v": 92
    },
    {
      "midi": 71,
      "hit": false,
      "t": 184545.2699999998,
      "d": 419.0336718750186,
      "v": 84
    },
    {
      "midi": 66,
      "hit": false,
      "t": 184545.2699999998,
      "d": 428.5033593750268,
      "v": 84
    },
    {
      "midi": 59,
      "hit": false,
      "t": 184999.8149999998,
      "d": 499.52601562501513,
      "v": 84
    },
    {
      "midi": 70,
      "hit": false,
      "t": 185454.3599999998,
      "d": 461.64726562498254,
      "v": 100
    },
    {
      "midi": 64,
      "hit": false,
      "t": 185454.3599999998,
      "d": 523.2002343749919,
      "v": 92
    },
    {
      "midi": 40,
      "hit": false,
      "t": 185454.3599999998,
      "d": 2322.4408593749395,
      "v": 80
    },
    {
      "midi": 52,
      "hit": false,
      "t": 185454.3599999998,
      "d": 2355.5847656249534,
      "v": 80
    },
    {
      "midi": 59,
      "hit": false,
      "t": 185908.9049999998,
      "d": 499.52601562501513,
      "v": 68
    },
    {
      "midi": 64,
      "hit": false,
      "t": 186363.4499999998,
      "d": 433.2382031250163,
      "v": 84
    },
    {
      "midi": 70,
      "hit": false,
      "t": 186363.4499999998,
      "d": 475.8517968750093,
      "v": 92
    },
    {
      "midi": 59,
      "hit": false,
      "t": 186817.99499999982,
      "d": 726.7985156249779,
      "v": 72
    },
    {
      "midi": 68,
      "hit": false,
      "t": 187272.5399999998,
      "d": 480.58664062496973,
      "v": 72
    },
    {
      "midi": 64,
      "hit": false,
      "t": 187272.5399999998,
      "d": 485.32148437495925,
      "v": 84
    },
    {
      "midi": 71,
      "hit": false,
      "t": 187272.5399999998,
      "d": 963.5407031249488,
      "v": 88
    },
    {
      "midi": 59,
      "hit": false,
      "t": 187727.0849999998,
      "d": 490.0563281249779,
      "v": 72
    },
    {
      "midi": 39,
      "hit": false,
      "t": 188181.62999999977,
      "d": 485.32148437498836,
      "v": 84
    },
    {
      "midi": 51,
      "hit": false,
      "t": 188181.62999999977,
      "d": 504.26085937497555,
      "v": 88
    },
    {
      "midi": 63,
      "hit": false,
      "t": 188181.62999999977,
      "d": 504.26085937497555,
      "v": 100
    },
    {
      "midi": 68,
      "hit": false,
      "t": 188181.62999999977,
      "d": 508.9957031249651,
      "v": 92
    },
    {
      "midi": 59,
      "hit": false,
      "t": 188636.17499999976,
      "d": 437.9730468749767,
      "v": 88
    },
    {
      "midi": 68,
      "hit": false,
      "t": 189090.71999999974,
      "d": 475.8517968750093,
      "v": 96
    },
    {
      "midi": 64,
      "hit": false,
      "t": 189090.71999999974,
      "d": 542.1396093750081,
      "v": 92
    },
    {
      "midi": 56,
      "hit": false,
      "t": 189090.71999999974,
      "d": 1380.2069531249872,
      "v": 84
    },
    {
      "midi": 49,
      "hit": false,
      "t": 189090.71999999974,
      "d": 1418.0857031249907,
      "v": 72
    },
    {
      "midi": 61,
      "hit": false,
      "t": 189545.26499999975,
      "d": 433.2382031249872,
      "v": 76
    },
    {
      "midi": 64,
      "hit": false,
      "t": 189999.80999999974,
      "d": 419.0336718749895,
      "v": 72
    },
    {
      "midi": 68,
      "hit": false,
      "t": 189999.80999999974,
      "d": 475.8517968749802,
      "v": 76
    },
    {
      "midi": 61,
      "hit": false,
      "t": 190454.35499999972,
      "d": 490.056328125007,
      "v": 84
    },
    {
      "midi": 70,
      "hit": false,
      "t": 190908.89999999973,
      "d": 456.912421874993,
      "v": 88
    },
    {
      "midi": 73,
      "hit": false,
      "t": 190908.89999999973,
      "d": 456.912421874993,
      "v": 76
    },
    {
      "midi": 66,
      "hit": false,
      "t": 190908.89999999973,
      "d": 490.056328125007,
      "v": 88
    },
    {
      "midi": 42,
      "hit": false,
      "t": 190908.89999999973,
      "d": 1290.2449218750116,
      "v": 60
    },
    {
      "midi": 54,
      "hit": false,
      "t": 190908.89999999973,
      "d": 1299.7146093750198,
      "v": 52
    },
    {
      "midi": 61,
      "hit": false,
      "t": 191363.44499999972,
      "d": 471.1169531250198,
      "v": 76
    },
    {
      "midi": 70,
      "hit": false,
      "t": 191817.98999999973,
      "d": 452.1775781250326,
      "v": 84
    },
    {
      "midi": 66,
      "hit": false,
      "t": 191817.98999999973,
      "d": 466.38210937503027,
      "v": 96
    },
    {
      "midi": 73,
      "hit": false,
      "t": 191817.98999999973,
      "d": 466.38210937503027,
      "v": 92
    },
    {
      "midi": 61,
      "hit": false,
      "t": 192272.53499999977,
      "d": 258.0489843749965,
      "v": 76
    },
    {
      "midi": 71,
      "hit": false,
      "t": 192727.07999999975,
      "d": 428.5033593749977,
      "v": 90
    },
    {
      "midi": 66,
      "hit": false,
      "t": 192727.07999999975,
      "d": 461.64726562498254,
      "v": 90
    },
    {
      "midi": 63,
      "hit": false,
      "t": 192727.07999999975,
      "d": 475.8517968749802,
      "v": 90
    },
    {
      "midi": 54,
      "hit": false,
      "t": 192727.07999999975,
      "d": 3255.205078124971,
      "v": 90
    },
    {
      "midi": 47,
      "hit": false,
      "t": 192727.07999999975,
      "d": 3259.9399218749604,
      "v": 90
    },
    {
      "midi": 59,
      "hit": false,
      "t": 193181.62499999974,
      "d": 456.912421874993,
      "v": 80
    },
    {
      "midi": 66,
      "hit": false,
      "t": 193636.16999999972,
      "d": 452.1775781250035,
      "v": 72
    },
    {
      "midi": 71,
      "hit": false,
      "t": 193636.16999999972,
      "d": 456.9124218750221,
      "v": 96
    },
    {
      "midi": 63,
      "hit": false,
      "t": 193636.16999999972,
      "d": 485.32148437501746,
      "v": 92
    },
    {
      "midi": 59,
      "hit": false,
      "t": 194090.71499999973,
      "d": 480.58664062499884,
      "v": 64
    },
    {
      "midi": 71,
      "hit": false,
      "t": 194545.25999999975,
      "d": 409.5639843749814,
      "v": 96
    },
    {
      "midi": 66,
      "hit": false,
      "t": 194545.25999999975,
      "d": 428.50335937496857,
      "v": 92
    },
    {
      "midi": 63,
      "hit": false,
      "t": 194545.25999999975,
      "d": 442.70789062496624,
      "v": 100
    },
    {
      "midi": 59,
      "hit": false,
      "t": 194999.8049999997,
      "d": 499.52601562501513,
      "v": 76
    },
    {
      "midi": 71,
      "hit": false,
      "t": 195454.34999999971,
      "d": 409.5639843750105,
      "v": 88
    },
    {
      "midi": 66,
      "hit": false,
      "t": 195454.34999999971,
      "d": 419.0336718750186,
      "v": 84
    },
    {
      "midi": 63,
      "hit": false,
      "t": 195454.34999999971,
      "d": 423.76851562500815,
      "v": 88
    },
    {
      "midi": 59,
      "hit": false,
      "t": 195908.89499999973,
      "d": 518.4653906249732,
      "v": 80
    },
    {
      "midi": 68,
      "hit": false,
      "t": 196363.4399999997,
      "d": 447.44273437498487,
      "v": 84
    },
    {
      "midi": 71,
      "hit": false,
      "t": 196363.4399999997,
      "d": 456.912421874993,
      "v": 92
    },
    {
      "midi": 64,
      "hit": false,
      "t": 196363.4399999997,
      "d": 466.38210937500116,
      "v": 96
    },
    {
      "midi": 52,
      "hit": false,
      "t": 196363.4399999997,
      "d": 480.58664062499884,
      "v": 80
    },
    {
      "midi": 40,
      "hit": false,
      "t": 196363.4399999997,
      "d": 1328.1236718750151,
      "v": 100
    },
    {
      "midi": 59,
      "hit": false,
      "t": 196817.9849999997,
      "d": 494.7911718750256,
      "v": 88
    },
    {
      "midi": 71,
      "hit": false,
      "t": 197272.5299999997,
      "d": 419.0336718750186,
      "v": 104
    },
    {
      "midi": 52,
      "hit": false,
      "t": 197272.5299999997,
      "d": 452.1775781250326,
      "v": 76
    },
    {
      "midi": 68,
      "hit": false,
      "t": 197272.5299999997,
      "d": 452.1775781250326,
      "v": 96
    },
    {
      "midi": 64,
      "hit": false,
      "t": 197272.5299999997,
      "d": 485.32148437504657,
      "v": 96
    },
    {
      "midi": 59,
      "hit": false,
      "t": 197727.07499999975,
      "d": 471.1169531250198,
      "v": 96
    },
    {
      "midi": 70,
      "hit": false,
      "t": 198181.61999999976,
      "d": 385.88976562500466,
      "v": 100
    },
    {
      "midi": 66,
      "hit": false,
      "t": 198181.61999999976,
      "d": 466.38210937500116,
      "v": 100
    },
    {
      "midi": 40,
      "hit": false,
      "t": 198181.61999999976,
      "d": 1290.2449218750116,
      "v": 96
    },
    {
      "midi": 52,
      "hit": false,
      "t": 198181.61999999976,
      "d": 1290.2449218750116,
      "v": 100
    },
    {
      "midi": 61,
      "hit": false,
      "t": 198636.16499999978,
      "d": 494.7911718749965,
      "v": 92
    },
    {
      "midi": 70,
      "hit": false,
      "t": 199090.70999999976,
      "d": 419.0336718750186,
      "v": 96
    },
    {
      "midi": 66,
      "hit": false,
      "t": 199090.70999999976,
      "d": 428.5033593750268,
      "v": 96
    },
    {
      "midi": 61,
      "hit": false,
      "t": 199545.25499999977,
      "d": 390.6246093749942,
      "v": 76
    },
    {
      "midi": 66,
      "hit": false,
      "t": 199999.79999999976,
      "d": 461.64726562498254,
      "v": 88
    },
    {
      "midi": 70,
      "hit": false,
      "t": 199999.79999999976,
      "d": 471.1169531249907,
      "v": 96
    },
    {
      "midi": 63,
      "hit": false,
      "t": 199999.79999999976,
      "d": 475.8517968749802,
      "v": 92
    },
    {
      "midi": 39,
      "hit": false,
      "t": 199999.79999999976,
      "d": 1285.510078124964,
      "v": 84
    },
    {
      "midi": 51,
      "hit": false,
      "t": 199999.79999999976,
      "d": 1285.510078124964,
      "v": 92
    },
    {
      "midi": 58,
      "hit": false,
      "t": 200454.34499999974,
      "d": 480.58664062496973,
      "v": 92
    },
    {
      "midi": 70,
      "hit": false,
      "t": 200908.88999999972,
      "d": 419.0336718749895,
      "v": 96
    },
    {
      "midi": 66,
      "hit": false,
      "t": 200908.88999999972,
      "d": 433.2382031249872,
      "v": 84
    },
    {
      "midi": 63,
      "hit": false,
      "t": 200908.88999999972,
      "d": 456.912421874993,
      "v": 92
    },
    {
      "midi": 58,
      "hit": false,
      "t": 201363.4349999997,
      "d": 362.21554687499884,
      "v": 92
    },
    {
      "midi": 68,
      "hit": false,
      "t": 201817.97999999972,
      "d": 423.76851562500815,
      "v": 76
    },
    {
      "midi": 63,
      "hit": false,
      "t": 201817.97999999972,
      "d": 466.38210937500116,
      "v": 88
    },
    {
      "midi": 56,
      "hit": false,
      "t": 201817.97999999972,
      "d": 1252.366171874979,
      "v": 92
    },
    {
      "midi": 51,
      "hit": false,
      "t": 201817.97999999972,
      "d": 1276.0403906249849,
      "v": 87
    },
    {
      "midi": 44,
      "hit": false,
      "t": 201817.97999999972,
      "d": 1323.3888281249965,
      "v": 84
    },
    {
      "midi": 59,
      "hit": false,
      "t": 202272.52499999973,
      "d": 475.8517968749802,
      "v": 88
    },
    {
      "midi": 68,
      "hit": false,
      "t": 202727.06999999972,
      "d": 414.298828125,
      "v": 96
    },
    {
      "midi": 63,
      "hit": false,
      "t": 202727.06999999972,
      "d": 447.44273437501397,
      "v": 96
    },
    {
      "midi": 59,
      "hit": false,
      "t": 203181.61499999973,
      "d": 229.63992187500116,
      "v": 92
    },
    {
      "midi": 68,
      "hit": false,
      "t": 203636.15999999974,
      "d": 404.82914062499185,
      "v": 84
    },
    {
      "midi": 61,
      "hit": false,
      "t": 203636.15999999974,
      "d": 437.9730468750058,
      "v": 80
    },
    {
      "midi": 64,
      "hit": false,
      "t": 203636.15999999974,
      "d": 447.44273437501397,
      "v": 88
    },
    {
      "midi": 37,
      "hit": false,
      "t": 203636.15999999974,
      "d": 3113.1597656250524,
      "v": 84
    },
    {
      "midi": 49,
      "hit": false,
      "t": 203636.15999999974,
      "d": 3165.2430468750536,
      "v": 76
    },
    {
      "midi": 56,
      "hit": false,
      "t": 204090.70499999975,
      "d": 499.52601562501513,
      "v": 76
    },
    {
      "midi": 68,
      "hit": false,
      "t": 204545.24999999977,
      "d": 414.298828125,
      "v": 84
    },
    {
      "midi": 61,
      "hit": false,
      "t": 204545.24999999977,
      "d": 471.1169531250198,
      "v": 72
    },
    {
      "midi": 64,
      "hit": false,
      "t": 204545.24999999977,
      "d": 471.1169531250198,
      "v": 80
    },
    {
      "midi": 56,
      "hit": false,
      "t": 204999.79499999978,
      "d": 437.9730468750058,
      "v": 88
    },
    {
      "midi": 68,
      "hit": false,
      "t": 205454.3399999998,
      "d": 466.38210937500116,
      "v": 76
    },
    {
      "midi": 64,
      "hit": false,
      "t": 205454.3399999998,
      "d": 471.1169531249907,
      "v": 84
    },
    {
      "midi": 61,
      "hit": false,
      "t": 205454.3399999998,
      "d": 480.58664062499884,
      "v": 72
    },
    {
      "midi": 56,
      "hit": false,
      "t": 205908.8849999998,
      "d": 461.64726562498254,
      "v": 72
    },
    {
      "midi": 61,
      "hit": false,
      "t": 206363.4299999998,
      "d": 452.1775781250035,
      "v": 56
    },
    {
      "midi": 64,
      "hit": false,
      "t": 206363.4299999998,
      "d": 471.1169531250198,
      "v": 88
    },
    {
      "midi": 68,
      "hit": false,
      "t": 206363.4299999998,
      "d": 480.58664062502794,
      "v": 76
    },
    {
      "midi": 56,
      "hit": false,
      "t": 206817.9749999998,
      "d": 314.8671093750163,
      "v": 88
    },
    {
      "midi": 66,
      "hit": false,
      "t": 207272.51999999981,
      "d": 452.1775781249744,
      "v": 93
    },
    {
      "midi": 61,
      "hit": false,
      "t": 207272.51999999981,
      "d": 461.64726562498254,
      "v": 93
    },
    {
      "midi": 64,
      "hit": false,
      "t": 207272.51999999981,
      "d": 461.64726562498254,
      "v": 93
    },
    {
      "midi": 54,
      "hit": false,
      "t": 207272.51999999981,
      "d": 3577.174453124986,
      "v": 93
    },
    {
      "midi": 42,
      "hit": false,
      "t": 207272.51999999981,
      "d": 3586.644140624994,
      "v": 93
    },
    {
      "midi": 58,
      "hit": false,
      "t": 207727.0649999998,
      "d": 485.32148437501746,
      "v": 78
    },
    {
      "midi": 66,
      "hit": false,
      "t": 208181.6099999998,
      "d": 475.8517968750093,
      "v": 87
    },
    {
      "midi": 64,
      "hit": false,
      "t": 208181.6099999998,
      "d": 485.32148437501746,
      "v": 87
    },
    {
      "midi": 61,
      "hit": false,
      "t": 208181.6099999998,
      "d": 504.26085937500466,
      "v": 87
    },
    {
      "midi": 58,
      "hit": false,
      "t": 208636.15499999982,
      "d": 475.8517968749802,
      "v": 88
    },
    {
      "midi": 64,
      "hit": false,
      "t": 209090.6999999998,
      "d": 471.1169531249907,
      "v": 87
    },
    {
      "midi": 61,
      "hit": false,
      "t": 209090.6999999998,
      "d": 490.0563281249779,
      "v": 87
    },
    {
      "midi": 66,
      "hit": false,
      "t": 209090.6999999998,
      "d": 499.52601562498603,
      "v": 87
    },
    {
      "midi": 73,
      "hit": false,
      "t": 209114.37421875034,
      "d": 485.32148437501746,
      "v": 114
    },
    {
      "midi": 58,
      "hit": false,
      "t": 209545.2449999998,
      "d": 490.056328125007,
      "v": 76
    },
    {
      "midi": 70,
      "hit": false,
      "t": 209559.44953125034,
      "d": 423.76851562500815,
      "v": 104
    },
    {
      "midi": 78,
      "hit": false,
      "t": 209990.32031250035,
      "d": 452.1775781250035,
      "v": 104
    },
    {
      "midi": 64,
      "hit": false,
      "t": 209999.7899999998,
      "d": 499.52601562498603,
      "v": 95
    },
    {
      "midi": 66,
      "hit": false,
      "t": 209999.7899999998,
      "d": 504.26085937497555,
      "v": 95
    },
    {
      "midi": 61,
      "hit": false,
      "t": 209999.7899999998,
      "d": 537.4047656249895,
      "v": 95
    },
    {
      "midi": 76,
      "hit": false,
      "t": 210449.60015625035,
      "d": 508.9957031250233,
      "v": 108
    },
    {
      "midi": 58,
      "hit": false,
      "t": 210454.3349999998,
      "d": 329.07164062501397,
      "v": 90
    },
    {
      "midi": 71,
      "hit": false,
      "t": 210908.8799999998,
      "d": 447.44273437501397,
      "v": 92
    },
    {
      "midi": 66,
      "hit": false,
      "t": 210908.8799999998,
      "d": 452.1775781250035,
      "v": 80
    },
    {
      "midi": 63,
      "hit": false,
      "t": 210908.8799999998,
      "d": 471.1169531250198,
      "v": 92
    },
    {
      "midi": 47,
      "hit": false,
      "t": 210908.8799999998,
      "d": 3070.5461718750303,
      "v": 92
    },
    {
      "midi": 75,
      "hit": false,
      "t": 210918.34968750036,
      "d": 1413.3508593750012,
      "v": 112
    },
    {
      "midi": 59,
      "hit": false,
      "t": 211363.4249999998,
      "d": 494.7911718750256,
      "v": 68
    },
    {
      "midi": 71,
      "hit": false,
      "t": 211817.96999999983,
      "d": 442.70789062502445,
      "v": 88
    },
    {
      "midi": 66,
      "hit": false,
      "t": 211817.96999999983,
      "d": 447.44273437501397,
      "v": 64
    },
    {
      "midi": 63,
      "hit": false,
      "t": 211817.96999999983,
      "d": 466.38210937500116,
      "v": 84
    },
    {
      "midi": 59,
      "hit": false,
      "t": 212272.51499999984,
      "d": 499.52601562498603,
      "v": 64
    },
    {
      "midi": 66,
      "hit": false,
      "t": 212727.05999999982,
      "d": 433.2382031250163,
      "v": 76
    },
    {
      "midi": 71,
      "hit": false,
      "t": 212727.05999999982,
      "d": 433.2382031250163,
      "v": 88
    },
    {
      "midi": 63,
      "hit": false,
      "t": 212727.05999999982,
      "d": 447.44273437501397,
      "v": 92
    },
    {
      "midi": 59,
      "hit": false,
      "t": 213181.60499999984,
      "d": 485.32148437498836,
      "v": 68
    },
    {
      "midi": 54,
      "hit": false,
      "t": 213408.87749999983,
      "d": 523.2002343749919,
      "v": 1
    },
    {
      "midi": 63,
      "hit": false,
      "t": 213636.14999999982,
      "d": 409.5639843750105,
      "v": 92
    },
    {
      "midi": 71,
      "hit": false,
      "t": 213636.14999999982,
      "d": 419.0336718750186,
      "v": 84
    },
    {
      "midi": 66,
      "hit": false,
      "t": 213636.14999999982,
      "d": 428.5033593750268,
      "v": 84
    },
    {
      "midi": 59,
      "hit": false,
      "t": 214090.69499999983,
      "d": 499.52601562501513,
      "v": 84
    },
    {
      "midi": 70,
      "hit": false,
      "t": 214545.23999999985,
      "d": 461.64726562498254,
      "v": 100
    },
    {
      "midi": 64,
      "hit": false,
      "t": 214545.23999999985,
      "d": 523.2002343749919,
      "v": 92
    },
    {
      "midi": 40,
      "hit": false,
      "t": 214545.23999999985,
      "d": 2322.4408593749686,
      "v": 80
    },
    {
      "midi": 52,
      "hit": false,
      "t": 214545.23999999985,
      "d": 2355.5847656249825,
      "v": 80
    },
    {
      "midi": 59,
      "hit": false,
      "t": 214999.78499999983,
      "d": 499.52601562501513,
      "v": 68
    },
    {
      "midi": 64,
      "hit": false,
      "t": 215454.32999999984,
      "d": 433.2382031249872,
      "v": 84
    },
    {
      "midi": 70,
      "hit": false,
      "t": 215454.32999999984,
      "d": 475.8517968749802,
      "v": 92
    },
    {
      "midi": 59,
      "hit": false,
      "t": 215908.87499999983,
      "d": 726.798515625007,
      "v": 72
    },
    {
      "midi": 68,
      "hit": false,
      "t": 216363.41999999984,
      "d": 480.58664062499884,
      "v": 72
    },
    {
      "midi": 64,
      "hit": false,
      "t": 216363.41999999984,
      "d": 485.32148437498836,
      "v": 84
    },
    {
      "midi": 71,
      "hit": false,
      "t": 216363.41999999984,
      "d": 963.540703125007,
      "v": 88
    },
    {
      "midi": 59,
      "hit": false,
      "t": 216817.96499999982,
      "d": 490.0563281250361,
      "v": 72
    },
    {
      "midi": 39,
      "hit": false,
      "t": 217272.50999999983,
      "d": 485.32148437504657,
      "v": 84
    },
    {
      "midi": 51,
      "hit": false,
      "t": 217272.50999999983,
      "d": 504.26085937503376,
      "v": 88
    },
    {
      "midi": 63,
      "hit": false,
      "t": 217272.50999999983,
      "d": 504.26085937503376,
      "v": 100
    },
    {
      "midi": 68,
      "hit": false,
      "t": 217272.50999999983,
      "d": 508.9957031250233,
      "v": 92
    },
    {
      "midi": 59,
      "hit": false,
      "t": 217727.05499999988,
      "d": 437.9730468749767,
      "v": 88
    },
    {
      "midi": 68,
      "hit": false,
      "t": 218181.59999999986,
      "d": 475.8517968750093,
      "v": 96
    },
    {
      "midi": 64,
      "hit": false,
      "t": 218181.59999999986,
      "d": 542.1396093750081,
      "v": 92
    },
    {
      "midi": 56,
      "hit": false,
      "t": 218181.59999999986,
      "d": 1380.2069531249872,
      "v": 84
    },
    {
      "midi": 49,
      "hit": false,
      "t": 218181.59999999986,
      "d": 1418.0857031249907,
      "v": 72
    },
    {
      "midi": 61,
      "hit": false,
      "t": 218636.14499999987,
      "d": 433.2382031249872,
      "v": 76
    },
    {
      "midi": 64,
      "hit": false,
      "t": 219090.68999999986,
      "d": 419.0336718749895,
      "v": 72
    },
    {
      "midi": 68,
      "hit": false,
      "t": 219090.68999999986,
      "d": 475.8517968749802,
      "v": 76
    },
    {
      "midi": 61,
      "hit": false,
      "t": 219545.23499999984,
      "d": 490.0563281250361,
      "v": 84
    },
    {
      "midi": 70,
      "hit": false,
      "t": 219999.77999999985,
      "d": 456.9124218750221,
      "v": 88
    },
    {
      "midi": 73,
      "hit": false,
      "t": 219999.77999999985,
      "d": 456.9124218750221,
      "v": 76
    },
    {
      "midi": 66,
      "hit": false,
      "t": 219999.77999999985,
      "d": 490.0563281250361,
      "v": 88
    },
    {
      "midi": 42,
      "hit": false,
      "t": 219999.77999999985,
      "d": 1290.2449218750698,
      "v": 60
    },
    {
      "midi": 54,
      "hit": false,
      "t": 219999.77999999985,
      "d": 1299.714609375078,
      "v": 52
    },
    {
      "midi": 61,
      "hit": false,
      "t": 220454.32499999987,
      "d": 471.1169531250489,
      "v": 76
    },
    {
      "midi": 70,
      "hit": false,
      "t": 220908.8699999999,
      "d": 452.1775781250326,
      "v": 84
    },
    {
      "midi": 66,
      "hit": false,
      "t": 220908.8699999999,
      "d": 466.3821093750594,
      "v": 96
    },
    {
      "midi": 73,
      "hit": false,
      "t": 220908.8699999999,
      "d": 466.3821093750594,
      "v": 92
    },
    {
      "midi": 61,
      "hit": false,
      "t": 221363.41499999995,
      "d": 258.0489843750256,
      "v": 76
    },
    {
      "midi": 71,
      "hit": false,
      "t": 221817.95999999996,
      "d": 428.5033593749977,
      "v": 90
    },
    {
      "midi": 66,
      "hit": false,
      "t": 221817.95999999996,
      "d": 461.64726562498254,
      "v": 90
    },
    {
      "midi": 63,
      "hit": false,
      "t": 221817.95999999996,
      "d": 475.8517968749802,
      "v": 90
    },
    {
      "midi": 54,
      "hit": false,
      "t": 221817.95999999996,
      "d": 3255.205078125029,
      "v": 90
    },
    {
      "midi": 47,
      "hit": false,
      "t": 221817.95999999996,
      "d": 3259.9399218750186,
      "v": 90
    },
    {
      "midi": 59,
      "hit": false,
      "t": 222272.50499999995,
      "d": 456.9124218750221,
      "v": 80
    },
    {
      "midi": 66,
      "hit": false,
      "t": 222727.04999999996,
      "d": 452.1775781250035,
      "v": 72
    },
    {
      "midi": 71,
      "hit": false,
      "t": 222727.04999999996,
      "d": 456.9124218750221,
      "v": 96
    },
    {
      "midi": 63,
      "hit": false,
      "t": 222727.04999999996,
      "d": 485.32148437501746,
      "v": 92
    },
    {
      "midi": 59,
      "hit": false,
      "t": 223181.59499999997,
      "d": 480.58664062502794,
      "v": 64
    },
    {
      "midi": 71,
      "hit": false,
      "t": 223636.13999999998,
      "d": 409.5639843750105,
      "v": 96
    },
    {
      "midi": 66,
      "hit": false,
      "t": 223636.13999999998,
      "d": 428.5033593749977,
      "v": 92
    },
    {
      "midi": 63,
      "hit": false,
      "t": 223636.13999999998,
      "d": 442.70789062499534,
      "v": 100
    },
    {
      "midi": 59,
      "hit": false,
      "t": 224090.68499999997,
      "d": 499.52601562501513,
      "v": 76
    },
    {
      "midi": 71,
      "hit": false,
      "t": 224545.22999999998,
      "d": 409.5639843750105,
      "v": 88
    },
    {
      "midi": 66,
      "hit": false,
      "t": 224545.22999999998,
      "d": 419.0336718750186,
      "v": 84
    },
    {
      "midi": 63,
      "hit": false,
      "t": 224545.22999999998,
      "d": 423.76851562500815,
      "v": 88
    },
    {
      "midi": 59,
      "hit": false,
      "t": 224999.775,
      "d": 518.4653906250314,
      "v": 80
    },
    {
      "midi": 66,
      "hit": false,
      "t": 225454.32,
      "d": 437.9730468750058,
      "v": 100
    },
    {
      "midi": 63,
      "hit": false,
      "t": 225454.32,
      "d": 452.1775781250035,
      "v": 100
    },
    {
      "midi": 51,
      "hit": false,
      "t": 225454.32,
      "d": 1313.9191406250175,
      "v": 84
    },
    {
      "midi": 39,
      "hit": false,
      "t": 225454.32,
      "d": 1318.653984375007,
      "v": 84
    },
    {
      "midi": 58,
      "hit": false,
      "t": 225908.86500000002,
      "d": 475.8517968750093,
      "v": 84
    },
    {
      "midi": 63,
      "hit": false,
      "t": 226363.41000000003,
      "d": 461.64726562498254,
      "v": 88
    },
    {
      "midi": 66,
      "hit": false,
      "t": 226363.41000000003,
      "d": 537.4047656249895,
      "v": 92
    },
    {
      "midi": 58,
      "hit": false,
      "t": 226817.95500000002,
      "d": 447.44273437501397,
      "v": 80
    },
    {
      "midi": 56,
      "hit": false,
      "t": 227272.50000000003,
      "d": 343.27617187504075,
      "v": 92
    },
    {
      "midi": 64,
      "hit": false,
      "t": 227272.50000000003,
      "d": 480.58664062505704,
      "v": 92
    },
    {
      "midi": 61,
      "hit": false,
      "t": 227272.50000000003,
      "d": 494.7911718750547,
      "v": 88
    },
    {
      "midi": 49,
      "hit": false,
      "t": 227272.50000000003,
      "d": 1266.570703125064,
      "v": 92
    },
    {
      "midi": 56,
      "hit": false,
      "t": 227727.04500000007,
      "d": 485.32148437501746,
      "v": 76
    },
    {
      "midi": 64,
      "hit": false,
      "t": 228181.59000000008,
      "d": 433.2382031250163,
      "v": 80
    },
    {
      "midi": 61,
      "hit": false,
      "t": 228181.59000000008,
      "d": 437.9730468750058,
      "v": 64
    },
    {
      "midi": 56,
      "hit": false,
      "t": 228636.1350000001,
      "d": 456.9124218750221,
      "v": 80
    },
    {
      "midi": 64,
      "hit": false,
      "t": 229090.6800000001,
      "d": 447.4427343750431,
      "v": 88
    },
    {
      "midi": 61,
      "hit": false,
      "t": 229090.6800000001,
      "d": 471.1169531250489,
      "v": 76
    },
    {
      "midi": 42,
      "hit": false,
      "t": 229090.6800000001,
      "d": 1318.653984375036,
      "v": 100
    },
    {
      "midi": 58,
      "hit": false,
      "t": 229545.22500000015,
      "d": 485.32148437501746,
      "v": 72
    },
    {
      "midi": 49,
      "hit": false,
      "t": 229999.77000000016,
      "d": 352.7458593749907,
      "v": 72
    },
    {
      "midi": 54,
      "hit": false,
      "t": 229999.77000000016,
      "d": 419.0336718749895,
      "v": 72
    },
    {
      "midi": 66,
      "hit": false,
      "t": 229999.77000000016,
      "d": 428.5033593749977,
      "v": 88
    },
    {
      "midi": 61,
      "hit": false,
      "t": 229999.77000000016,
      "d": 456.912421874993,
      "v": 84
    },
    {
      "midi": 58,
      "hit": false,
      "t": 230454.31500000015,
      "d": 196.4960156250163,
      "v": 68
    },
    {
      "midi": 66,
      "hit": false,
      "t": 230908.8600000002,
      "d": 447.4427343750431,
      "v": 84
    },
    {
      "midi": 63,
      "hit": false,
      "t": 230908.8600000002,
      "d": 456.9124218750512,
      "v": 84
    },
    {
      "midi": 54,
      "hit": false,
      "t": 230908.8600000002,
      "d": 1403.8811718750512,
      "v": 64
    },
    {
      "midi": 47,
      "hit": false,
      "t": 230908.8600000002,
      "d": 3302.553515625157,
      "v": 64
    },
    {
      "midi": 59,
      "hit": false,
      "t": 231363.40500000023,
      "d": 475.8517968750093,
      "v": 64
    },
    {
      "midi": 66,
      "hit": false,
      "t": 231817.95000000024,
      "d": 447.44273437501397,
      "v": 84
    },
    {
      "midi": 63,
      "hit": false,
      "t": 231817.95000000024,
      "d": 475.8517968750093,
      "v": 92
    },
    {
      "midi": 59,
      "hit": false,
      "t": 232272.49500000026,
      "d": 532.669921875,
      "v": 76
    },
    {
      "midi": 63,
      "hit": false,
      "t": 232727.04000000024,
      "d": 437.9730468750349,
      "v": 96
    },
    {
      "midi": 68,
      "hit": false,
      "t": 232727.04000000024,
      "d": 456.9124218750512,
      "v": 104
    },
    {
      "midi": 59,
      "hit": false,
      "t": 233181.58500000028,
      "d": 504.26085937503376,
      "v": 64
    },
    {
      "midi": 70,
      "hit": false,
      "t": 233636.1300000003,
      "d": 395.3594531250419,
      "v": 100
    },
    {
      "midi": 63,
      "hit": false,
      "t": 233636.1300000003,
      "d": 437.9730468750349,
      "v": 100
    },
    {
      "midi": 59,
      "hit": false,
      "t": 234090.67500000034,
      "d": 400.0942968750023,
      "v": 90
    }
  ]
}