{
  "jsonPath": "Country/Oklahoma Country/Spade Cooley/whippoorwill-waltz.json",
  "path": "Country\\Oklahoma Country\\Spade Cooley\\Whippoorwill Waltz.mid",
  "name": "Whippoorwill Waltz",
  "difficulty": "Advanced",
  "bpm": 112.00005973336519,
  "notes": [
    {
      "midi": 86,
      "hit": false,
      "t": 2812.5,
      "d": 220.703125,
      "v": 78
    },
    {
      "midi": 58,
      "hit": false,
      "t": 2812.5,
      "d": 2808.59375,
      "v": 1
    },
    {
      "midi": 62,
      "hit": false,
      "t": 2812.5,
      "d": 2808.59375,
      "v": 1
    },
    {
      "midi": 65,
      "hit": false,
      "t": 2812.5,
      "d": 2808.59375,
      "v": 1
    },
    {
      "midi": 82,
      "hit": false,
      "t": 2814.453125,
      "d": 189.453125,
      "v": 61
    },
    {
      "midi": 89,
      "hit": false,
      "t": 2814.453125,
      "d": 242.1875,
      "v": 73
    },
    {
      "midi": 86,
      "hit": false,
      "t": 3271.484375,
      "d": 201.171875,
      "v": 68
    },
    {
      "midi": 89,
      "hit": false,
      "t": 3271.484375,
      "d": 201.171875,
      "v": 59
    },
    {
      "midi": 82,
      "hit": false,
      "t": 3283.203125,
      "d": 160.15625,
      "v": 54
    },
    {
      "midi": 82,
      "hit": false,
      "t": 3750,
      "d": 175.78125,
      "v": 52
    },
    {
      "midi": 86,
      "hit": false,
      "t": 3750,
      "d": 205.078125,
      "v": 59
    },
    {
      "midi": 89,
      "hit": false,
      "t": 3750,
      "d": 230.46875,
      "v": 65
    },
    {
      "midi": 82,
      "hit": false,
      "t": 4208.984375,
      "d": 185.546875,
      "v": 53
    },
    {
      "midi": 86,
      "hit": false,
      "t": 4208.984375,
      "d": 214.84375,
      "v": 63
    },
    {
      "midi": 89,
      "hit": false,
      "t": 4210.9375,
      "d": 257.8125,
      "v": 57
    },
    {
      "midi": 82,
      "hit": false,
      "t": 4679.6875,
      "d": 173.828125,
      "v": 44
    },
    {
      "midi": 89,
      "hit": false,
      "t": 4679.6875,
      "d": 199.21875,
      "v": 59
    },
    {
      "midi": 86,
      "hit": false,
      "t": 4689.453125,
      "d": 154.296875,
      "v": 67
    },
    {
      "midi": 82,
      "hit": false,
      "t": 5148.4375,
      "d": 199.21875,
      "v": 51
    },
    {
      "midi": 89,
      "hit": false,
      "t": 5156.25,
      "d": 224.609375,
      "v": 59
    },
    {
      "midi": 86,
      "hit": false,
      "t": 5158.203125,
      "d": 193.359375,
      "v": 74
    },
    {
      "midi": 82,
      "hit": false,
      "t": 5615.234375,
      "d": 171.875,
      "v": 63
    },
    {
      "midi": 86,
      "hit": false,
      "t": 5615.234375,
      "d": 185.546875,
      "v": 72
    },
    {
      "midi": 91,
      "hit": false,
      "t": 5615.234375,
      "d": 250,
      "v": 69
    },
    {
      "midi": 58,
      "hit": false,
      "t": 5625,
      "d": 4214.84375,
      "v": 1
    },
    {
      "midi": 62,
      "hit": false,
      "t": 5625,
      "d": 4214.84375,
      "v": 1
    },
    {
      "midi": 67,
      "hit": false,
      "t": 5625,
      "d": 4214.84375,
      "v": 1
    },
    {
      "midi": 86,
      "hit": false,
      "t": 6083.984375,
      "d": 156.25,
      "v": 71
    },
    {
      "midi": 82,
      "hit": false,
      "t": 6085.9375,
      "d": 169.921875,
      "v": 56
    },
    {
      "midi": 91,
      "hit": false,
      "t": 6095.703125,
      "d": 242.1875,
      "v": 71
    },
    {
      "midi": 91,
      "hit": false,
      "t": 6552.734375,
      "d": 253.90625,
      "v": 59
    },
    {
      "midi": 82,
      "hit": false,
      "t": 6554.6875,
      "d": 189.453125,
      "v": 49
    },
    {
      "midi": 86,
      "hit": false,
      "t": 6554.6875,
      "d": 189.453125,
      "v": 62
    },
    {
      "midi": 91,
      "hit": false,
      "t": 7031.25,
      "d": 259.765625,
      "v": 64
    },
    {
      "midi": 82,
      "hit": false,
      "t": 7033.203125,
      "d": 179.6875,
      "v": 58
    },
    {
      "midi": 86,
      "hit": false,
      "t": 7033.203125,
      "d": 179.6875,
      "v": 71
    },
    {
      "midi": 82,
      "hit": false,
      "t": 7490.234375,
      "d": 156.25,
      "v": 57
    },
    {
      "midi": 91,
      "hit": false,
      "t": 7490.234375,
      "d": 224.609375,
      "v": 67
    },
    {
      "midi": 86,
      "hit": false,
      "t": 7500,
      "d": 152.34375,
      "v": 72
    },
    {
      "midi": 86,
      "hit": false,
      "t": 7960.9375,
      "d": 169.921875,
      "v": 64
    },
    {
      "midi": 91,
      "hit": false,
      "t": 7960.9375,
      "d": 300.78125,
      "v": 63
    },
    {
      "midi": 82,
      "hit": false,
      "t": 7968.75,
      "d": 175.78125,
      "v": 57
    },
    {
      "midi": 84,
      "hit": false,
      "t": 8427.734375,
      "d": 136.71875,
      "v": 75
    },
    {
      "midi": 87,
      "hit": false,
      "t": 8429.6875,
      "d": 144.53125,
      "v": 64
    },
    {
      "midi": 91,
      "hit": false,
      "t": 8429.6875,
      "d": 199.21875,
      "v": 72
    },
    {
      "midi": 84,
      "hit": false,
      "t": 8896.484375,
      "d": 175.78125,
      "v": 52
    },
    {
      "midi": 87,
      "hit": false,
      "t": 8906.25,
      "d": 185.546875,
      "v": 63
    },
    {
      "midi": 91,
      "hit": false,
      "t": 8908.203125,
      "d": 218.75,
      "v": 59
    },
    {
      "midi": 87,
      "hit": false,
      "t": 9375,
      "d": 166.015625,
      "v": 52
    },
    {
      "midi": 84,
      "hit": false,
      "t": 9376.953125,
      "d": 169.921875,
      "v": 50
    },
    {
      "midi": 91,
      "hit": false,
      "t": 9376.953125,
      "d": 212.890625,
      "v": 53
    },
    {
      "midi": 84,
      "hit": false,
      "t": 9835.9375,
      "d": 173.828125,
      "v": 65
    },
    {
      "midi": 91,
      "hit": false,
      "t": 9835.9375,
      "d": 212.890625,
      "v": 66
    },
    {
      "midi": 55,
      "hit": false,
      "t": 9843.75,
      "d": 464.84375,
      "v": 1
    },
    {
      "midi": 58,
      "hit": false,
      "t": 9843.75,
      "d": 464.84375,
      "v": 1
    },
    {
      "midi": 67,
      "hit": false,
      "t": 9843.75,
      "d": 464.84375,
      "v": 1
    },
    {
      "midi": 87,
      "hit": false,
      "t": 9845.703125,
      "d": 169.921875,
      "v": 65
    },
    {
      "midi": 84,
      "hit": false,
      "t": 10302.734375,
      "d": 195.3125,
      "v": 51
    },
    {
      "midi": 91,
      "hit": false,
      "t": 10302.734375,
      "d": 234.375,
      "v": 53
    },
    {
      "midi": 87,
      "hit": false,
      "t": 10312.5,
      "d": 181.640625,
      "v": 57
    },
    {
      "midi": 51,
      "hit": false,
      "t": 10312.5,
      "d": 464.84375,
      "v": 1
    },
    {
      "midi": 55,
      "hit": false,
      "t": 10312.5,
      "d": 464.84375,
      "v": 1
    },
    {
      "midi": 63,
      "hit": false,
      "t": 10312.5,
      "d": 464.84375,
      "v": 1
    },
    {
      "midi": 91,
      "hit": false,
      "t": 10773.4375,
      "d": 248.046875,
      "v": 56
    },
    {
      "midi": 55,
      "hit": false,
      "t": 10781.25,
      "d": 464.84375,
      "v": 1
    },
    {
      "midi": 58,
      "hit": false,
      "t": 10781.25,
      "d": 464.84375,
      "v": 1
    },
    {
      "midi": 67,
      "hit": false,
      "t": 10781.25,
      "d": 464.84375,
      "v": 1
    },
    {
      "midi": 87,
      "hit": false,
      "t": 10783.203125,
      "d": 179.6875,
      "v": 64
    },
    {
      "midi": 84,
      "hit": false,
      "t": 10783.203125,
      "d": 183.59375,
      "v": 54
    },
    {
      "midi": 84,
      "hit": false,
      "t": 11242.1875,
      "d": 232.421875,
      "v": 62
    },
    {
      "midi": 87,
      "hit": false,
      "t": 11250,
      "d": 259.765625,
      "v": 65
    },
    {
      "midi": 57,
      "hit": false,
      "t": 11250,
      "d": 2808.59375,
      "v": 1
    },
    {
      "midi": 60,
      "hit": false,
      "t": 11250,
      "d": 2808.59375,
      "v": 1
    },
    {
      "midi": 69,
      "hit": false,
      "t": 11250,
      "d": 2808.59375,
      "v": 1
    },
    {
      "midi": 89,
      "hit": false,
      "t": 11251.953125,
      "d": 291.015625,
      "v": 64
    },
    {
      "midi": 84,
      "hit": false,
      "t": 11710.9375,
      "d": 169.921875,
      "v": 54
    },
    {
      "midi": 87,
      "hit": false,
      "t": 11710.9375,
      "d": 173.828125,
      "v": 57
    },
    {
      "midi": 89,
      "hit": false,
      "t": 11720.703125,
      "d": 218.75,
      "v": 64
    },
    {
      "midi": 84,
      "hit": false,
      "t": 12177.734375,
      "d": 156.25,
      "v": 59
    },
    {
      "midi": 89,
      "hit": false,
      "t": 12177.734375,
      "d": 195.3125,
      "v": 69
    },
    {
      "midi": 87,
      "hit": false,
      "t": 12179.6875,
      "d": 164.0625,
      "v": 59
    },
    {
      "midi": 84,
      "hit": false,
      "t": 12646.484375,
      "d": 191.40625,
      "v": 63
    },
    {
      "midi": 87,
      "hit": false,
      "t": 12646.484375,
      "d": 195.3125,
      "v": 60
    },
    {
      "midi": 89,
      "hit": false,
      "t": 12646.484375,
      "d": 224.609375,
      "v": 66
    },
    {
      "midi": 89,
      "hit": false,
      "t": 13115.234375,
      "d": 214.84375,
      "v": 62
    },
    {
      "midi": 84,
      "hit": false,
      "t": 13125,
      "d": 195.3125,
      "v": 59
    },
    {
      "midi": 87,
      "hit": false,
      "t": 13126.953125,
      "d": 193.359375,
      "v": 62
    },
    {
      "midi": 89,
      "hit": false,
      "t": 13585.9375,
      "d": 154.296875,
      "v": 70
    },
    {
      "midi": 87,
      "hit": false,
      "t": 13593.75,
      "d": 146.484375,
      "v": 70
    },
    {
      "midi": 84,
      "hit": false,
      "t": 13595.703125,
      "d": 150.390625,
      "v": 70
    },
    {
      "midi": 86,
      "hit": false,
      "t": 14054.6875,
      "d": 232.421875,
      "v": 71
    },
    {
      "midi": 82,
      "hit": false,
      "t": 14062.5,
      "d": 185.546875,
      "v": 69
    },
    {
      "midi": 58,
      "hit": false,
      "t": 14062.5,
      "d": 2808.59375,
      "v": 1
    },
    {
      "midi": 62,
      "hit": false,
      "t": 14062.5,
      "d": 2808.59375,
      "v": 1
    },
    {
      "midi": 65,
      "hit": false,
      "t": 14062.5,
      "d": 2808.59375,
      "v": 1
    },
    {
      "midi": 89,
      "hit": false,
      "t": 14064.453125,
      "d": 242.1875,
      "v": 70
    },
    {
      "midi": 82,
      "hit": false,
      "t": 14521.484375,
      "d": 156.25,
      "v": 48
    },
    {
      "midi": 89,
      "hit": false,
      "t": 14531.25,
      "d": 201.171875,
      "v": 57
    },
    {
      "midi": 86,
      "hit": false,
      "t": 14533.203125,
      "d": 203.125,
      "v": 67
    },
    {
      "midi": 89,
      "hit": false,
      "t": 14992.1875,
      "d": 232.421875,
      "v": 61
    },
    {
      "midi": 82,
      "hit": false,
      "t": 15000,
      "d": 175.78125,
      "v": 50
    },
    {
      "midi": 86,
      "hit": false,
      "t": 15000,
      "d": 205.078125,
      "v": 56
    },
    {
      "midi": 86,
      "hit": false,
      "t": 15458.984375,
      "d": 214.84375,
      "v": 73
    },
    {
      "midi": 82,
      "hit": false,
      "t": 15460.9375,
      "d": 189.453125,
      "v": 57
    },
    {
      "midi": 89,
      "hit": false,
      "t": 15468.75,
      "d": 253.90625,
      "v": 61
    },
    {
      "midi": 86,
      "hit": false,
      "t": 15927.734375,
      "d": 152.34375,
      "v": 64
    },
    {
      "midi": 82,
      "hit": false,
      "t": 15939.453125,
      "d": 173.828125,
      "v": 44
    },
    {
      "midi": 89,
      "hit": false,
      "t": 15939.453125,
      "d": 199.21875,
      "v": 60
    },
    {
      "midi": 82,
      "hit": false,
      "t": 16396.484375,
      "d": 195.3125,
      "v": 54
    },
    {
      "midi": 86,
      "hit": false,
      "t": 16408.203125,
      "d": 193.359375,
      "v": 72
    },
    {
      "midi": 89,
      "hit": false,
      "t": 16408.203125,
      "d": 228.515625,
      "v": 55
    },
    {
      "midi": 82,
      "hit": false,
      "t": 16867.1875,
      "d": 173.828125,
      "v": 58
    },
    {
      "midi": 86,
      "hit": false,
      "t": 16875,
      "d": 185.546875,
      "v": 73
    },
    {
      "midi": 91,
      "hit": false,
      "t": 16875,
      "d": 250,
      "v": 64
    },
    {
      "midi": 58,
      "hit": false,
      "t": 16875,
      "d": 4214.84375,
      "v": 1
    },
    {
      "midi": 62,
      "hit": false,
      "t": 16875,
      "d": 4214.84375,
      "v": 1
    },
    {
      "midi": 67,
      "hit": false,
      "t": 16875,
      "d": 4214.84375,
      "v": 1
    },
    {
      "midi": 82,
      "hit": false,
      "t": 17333.984375,
      "d": 166.015625,
      "v": 62
    },
    {
      "midi": 86,
      "hit": false,
      "t": 17343.75,
      "d": 156.25,
      "v": 67
    },
    {
      "midi": 91,
      "hit": false,
      "t": 17343.75,
      "d": 240.234375,
      "v": 71
    },
    {
      "midi": 86,
      "hit": false,
      "t": 17802.734375,
      "d": 185.546875,
      "v": 67
    },
    {
      "midi": 91,
      "hit": false,
      "t": 17804.6875,
      "d": 257.8125,
      "v": 53
    },
    {
      "midi": 82,
      "hit": false,
      "t": 17812.5,
      "d": 185.546875,
      "v": 47
    },
    {
      "midi": 91,
      "hit": false,
      "t": 18273.4375,
      "d": 261.71875,
      "v": 61
    },
    {
      "midi": 82,
      "hit": false,
      "t": 18281.25,
      "d": 175.78125,
      "v": 52
    },
    {
      "midi": 86,
      "hit": false,
      "t": 18281.25,
      "d": 175.78125,
      "v": 66
    },
    {
      "midi": 86,
      "hit": false,
      "t": 18740.234375,
      "d": 152.34375,
      "v": 67
    },
    {
      "midi": 91,
      "hit": false,
      "t": 18740.234375,
      "d": 224.609375,
      "v": 61
    },
    {
      "midi": 82,
      "hit": false,
      "t": 18751.953125,
      "d": 160.15625,
      "v": 62
    },
    {
      "midi": 82,
      "hit": false,
      "t": 19208.984375,
      "d": 175.78125,
      "v": 51
    },
    {
      "midi": 86,
      "hit": false,
      "t": 19220.703125,
      "d": 169.921875,
      "v": 63
    },
    {
      "midi": 91,
      "hit": false,
      "t": 19220.703125,
      "d": 300.78125,
      "v": 61
    },
    {
      "midi": 87,
      "hit": false,
      "t": 19677.734375,
      "d": 142.578125,
      "v": 64
    },
    {
      "midi": 84,
      "hit": false,
      "t": 19679.6875,
      "d": 140.625,
      "v": 71
    },
    {
      "midi": 91,
      "hit": false,
      "t": 19687.5,
      "d": 195.3125,
      "v": 67
    },
    {
      "midi": 84,
      "hit": false,
      "t": 20146.484375,
      "d": 175.78125,
      "v": 58
    },
    {
      "midi": 87,
      "hit": false,
      "t": 20146.484375,
      "d": 185.546875,
      "v": 56
    },
    {
      "midi": 91,
      "hit": false,
      "t": 20156.25,
      "d": 214.84375,
      "v": 55
    },
    {
      "midi": 84,
      "hit": false,
      "t": 20615.234375,
      "d": 166.015625,
      "v": 54
    },
    {
      "midi": 91,
      "hit": false,
      "t": 20617.1875,
      "d": 212.890625,
      "v": 50
    },
    {
      "midi": 87,
      "hit": false,
      "t": 20626.953125,
      "d": 169.921875,
      "v": 52
    },
    {
      "midi": 87,
      "hit": false,
      "t": 21083.984375,
      "d": 166.015625,
      "v": 65
    },
    {
      "midi": 84,
      "hit": false,
      "t": 21083.984375,
      "d": 171.875,
      "v": 67
    },
    {
      "midi": 91,
      "hit": false,
      "t": 21085.9375,
      "d": 212.890625,
      "v": 60
    },
    {
      "midi": 55,
      "hit": false,
      "t": 21093.75,
      "d": 464.84375,
      "v": 1
    },
    {
      "midi": 58,
      "hit": false,
      "t": 21093.75,
      "d": 464.84375,
      "v": 1
    },
    {
      "midi": 67,
      "hit": false,
      "t": 21093.75,
      "d": 464.84375,
      "v": 1
    },
    {
      "midi": 87,
      "hit": false,
      "t": 21552.734375,
      "d": 181.640625,
      "v": 59
    },
    {
      "midi": 91,
      "hit": false,
      "t": 21554.6875,
      "d": 238.28125,
      "v": 55
    },
    {
      "midi": 51,
      "hit": false,
      "t": 21562.5,
      "d": 464.84375,
      "v": 1
    },
    {
      "midi": 55,
      "hit": false,
      "t": 21562.5,
      "d": 464.84375,
      "v": 1
    },
    {
      "midi": 63,
      "hit": false,
      "t": 21562.5,
      "d": 464.84375,
      "v": 1
    },
    {
      "midi": 84,
      "hit": false,
      "t": 21564.453125,
      "d": 199.21875,
      "v": 51
    },
    {
      "midi": 87,
      "hit": false,
      "t": 22021.484375,
      "d": 175.78125,
      "v": 62
    },
    {
      "midi": 91,
      "hit": false,
      "t": 22031.25,
      "d": 244.140625,
      "v": 52
    },
    {
      "midi": 55,
      "hit": false,
      "t": 22031.25,
      "d": 464.84375,
      "v": 1
    },
    {
      "midi": 58,
      "hit": false,
      "t": 22031.25,
      "d": 464.84375,
      "v": 1
    },
    {
      "midi": 67,
      "hit": false,
      "t": 22031.25,
      "d": 464.84375,
      "v": 1
    },
    {
      "midi": 84,
      "hit": false,
      "t": 22033.203125,
      "d": 183.59375,
      "v": 53
    },
    {
      "midi": 84,
      "hit": false,
      "t": 22490.234375,
      "d": 230.46875,
      "v": 62
    },
    {
      "midi": 89,
      "hit": false,
      "t": 22492.1875,
      "d": 291.015625,
      "v": 68
    },
    {
      "midi": 57,
      "hit": false,
      "t": 22500,
      "d": 1167.96875,
      "v": 1
    },
    {
      "midi": 60,
      "hit": false,
      "t": 22500,
      "d": 1167.96875,
      "v": 1
    },
    {
      "midi": 69,
      "hit": false,
      "t": 22500,
      "d": 1167.96875,
      "v": 1
    },
    {
      "midi": 87,
      "hit": false,
      "t": 22501.953125,
      "d": 261.71875,
      "v": 70
    },
    {
      "midi": 84,
      "hit": false,
      "t": 22958.984375,
      "d": 166.015625,
      "v": 51
    },
    {
      "midi": 87,
      "hit": false,
      "t": 22958.984375,
      "d": 171.875,
      "v": 64
    },
    {
      "midi": 89,
      "hit": false,
      "t": 22968.75,
      "d": 214.84375,
      "v": 58
    },
    {
      "midi": 87,
      "hit": false,
      "t": 23427.734375,
      "d": 162.109375,
      "v": 58
    },
    {
      "midi": 84,
      "hit": false,
      "t": 23437.5,
      "d": 156.25,
      "v": 61
    },
    {
      "midi": 89,
      "hit": false,
      "t": 23437.5,
      "d": 195.3125,
      "v": 65
    },
    {
      "midi": 89,
      "hit": false,
      "t": 23898.4375,
      "d": 228.515625,
      "v": 66
    },
    {
      "midi": 84,
      "hit": false,
      "t": 23906.25,
      "d": 191.40625,
      "v": 57
    },
    {
      "midi": 87,
      "hit": false,
      "t": 23908.203125,
      "d": 199.21875,
      "v": 60
    },
    {
      "midi": 87,
      "hit": false,
      "t": 24367.1875,
      "d": 193.359375,
      "v": 58
    },
    {
      "midi": 84,
      "hit": false,
      "t": 24367.1875,
      "d": 199.21875,
      "v": 56
    },
    {
      "midi": 89,
      "hit": false,
      "t": 24376.953125,
      "d": 218.75,
      "v": 61
    },
    {
      "midi": 89,
      "hit": false,
      "t": 24833.984375,
      "d": 152.34375,
      "v": 69
    },
    {
      "midi": 84,
      "hit": false,
      "t": 24835.9375,
      "d": 150.390625,
      "v": 67
    },
    {
      "midi": 87,
      "hit": false,
      "t": 24835.9375,
      "d": 150.390625,
      "v": 67
    },
    {
      "midi": 82,
      "hit": false,
      "t": 25312.5,
      "d": 185.546875,
      "v": 63
    },
    {
      "midi": 86,
      "hit": false,
      "t": 25312.5,
      "d": 230.46875,
      "v": 75
    },
    {
      "midi": 89,
      "hit": false,
      "t": 25312.5,
      "d": 240.234375,
      "v": 70
    },
    {
      "midi": 82,
      "hit": false,
      "t": 25781.25,
      "d": 156.25,
      "v": 55
    },
    {
      "midi": 86,
      "hit": false,
      "t": 25781.25,
      "d": 201.171875,
      "v": 61
    },
    {
      "midi": 89,
      "hit": false,
      "t": 25781.25,
      "d": 201.171875,
      "v": 60
    },
    {
      "midi": 82,
      "hit": false,
      "t": 26250,
      "d": 175.78125,
      "v": 46
    },
    {
      "midi": 86,
      "hit": false,
      "t": 26250,
      "d": 205.078125,
      "v": 59
    },
    {
      "midi": 89,
      "hit": false,
      "t": 26250,
      "d": 230.46875,
      "v": 59
    },
    {
      "midi": 58,
      "hit": false,
      "t": 26250,
      "d": 933.59375,
      "v": 1
    },
    {
      "midi": 62,
      "hit": false,
      "t": 26250,
      "d": 933.59375,
      "v": 1
    },
    {
      "midi": 82,
      "hit": false,
      "t": 26718.75,
      "d": 185.546875,
      "v": 52
    },
    {
      "midi": 86,
      "hit": false,
      "t": 26718.75,
      "d": 214.84375,
      "v": 68
    },
    {
      "midi": 89,
      "hit": false,
      "t": 26718.75,
      "d": 253.90625,
      "v": 66
    },
    {
      "midi": 86,
      "hit": false,
      "t": 27187.5,
      "d": 152.34375,
      "v": 63
    },
    {
      "midi": 82,
      "hit": false,
      "t": 27187.5,
      "d": 171.875,
      "v": 48
    },
    {
      "midi": 89,
      "hit": false,
      "t": 27187.5,
      "d": 195.3125,
      "v": 61
    },
    {
      "midi": 57,
      "hit": false,
      "t": 27187.5,
      "d": 464.84375,
      "v": 1
    },
    {
      "midi": 60,
      "hit": false,
      "t": 27187.5,
      "d": 464.84375,
      "v": 1
    },
    {
      "midi": 86,
      "hit": false,
      "t": 27656.25,
      "d": 191.40625,
      "v": 68
    },
    {
      "midi": 82,
      "hit": false,
      "t": 27656.25,
      "d": 195.3125,
      "v": 48
    },
    {
      "midi": 89,
      "hit": false,
      "t": 27656.25,
      "d": 224.609375,
      "v": 61
    },
    {
      "midi": 55,
      "hit": false,
      "t": 27656.25,
      "d": 464.84375,
      "v": 1
    },
    {
      "midi": 58,
      "hit": false,
      "t": 27656.25,
      "d": 464.84375,
      "v": 1
    },
    {
      "midi": 82,
      "hit": false,
      "t": 28125,
      "d": 171.875,
      "v": 61
    },
    {
      "midi": 86,
      "hit": false,
      "t": 28125,
      "d": 185.546875,
      "v": 75
    },
    {
      "midi": 89,
      "hit": false,
      "t": 28125,
      "d": 250,
      "v": 65
    },
    {
      "midi": 58,
      "hit": false,
      "t": 28125,
      "d": 933.59375,
      "v": 1
    },
    {
      "midi": 62,
      "hit": false,
      "t": 28125,
      "d": 933.59375,
      "v": 1
    },
    {
      "midi": 86,
      "hit": false,
      "t": 28593.75,
      "d": 156.25,
      "v": 67
    },
    {
      "midi": 82,
      "hit": false,
      "t": 28593.75,
      "d": 166.015625,
      "v": 56
    },
    {
      "midi": 89,
      "hit": false,
      "t": 28593.75,
      "d": 240.234375,
      "v": 69
    },
    {
      "midi": 82,
      "hit": false,
      "t": 29062.5,
      "d": 185.546875,
      "v": 49
    },
    {
      "midi": 86,
      "hit": false,
      "t": 29062.5,
      "d": 185.546875,
      "v": 59
    },
    {
      "midi": 89,
      "hit": false,
      "t": 29062.5,
      "d": 253.90625,
      "v": 59
    },
    {
      "midi": 82,
      "hit": false,
      "t": 29531.25,
      "d": 175.78125,
      "v": 60
    },
    {
      "midi": 86,
      "hit": false,
      "t": 29531.25,
      "d": 175.78125,
      "v": 62
    },
    {
      "midi": 89,
      "hit": false,
      "t": 29531.25,
      "d": 259.765625,
      "v": 64
    },
    {
      "midi": 86,
      "hit": false,
      "t": 30000,
      "d": 152.34375,
      "v": 65
    },
    {
      "midi": 82,
      "hit": false,
      "t": 30000,
      "d": 156.25,
      "v": 62
    },
    {
      "midi": 89,
      "hit": false,
      "t": 30000,
      "d": 224.609375,
      "v": 70
    },
    {
      "midi": 86,
      "hit": false,
      "t": 30468.75,
      "d": 166.015625,
      "v": 68
    },
    {
      "midi": 82,
      "hit": false,
      "t": 30468.75,
      "d": 175.78125,
      "v": 57
    },
    {
      "midi": 89,
      "hit": false,
      "t": 30468.75,
      "d": 298.828125,
      "v": 56
    },
    {
      "midi": 84,
      "hit": false,
      "t": 30937.5,
      "d": 136.71875,
      "v": 69
    },
    {
      "midi": 87,
      "hit": false,
      "t": 30937.5,
      "d": 142.578125,
      "v": 70
    },
    {
      "midi": 91,
      "hit": false,
      "t": 30937.5,
      "d": 195.3125,
      "v": 68
    },
    {
      "midi": 84,
      "hit": false,
      "t": 31406.25,
      "d": 175.78125,
      "v": 58
    },
    {
      "midi": 87,
      "hit": false,
      "t": 31406.25,
      "d": 185.546875,
      "v": 64
    },
    {
      "midi": 91,
      "hit": false,
      "t": 31406.25,
      "d": 214.84375,
      "v": 57
    },
    {
      "midi": 84,
      "hit": false,
      "t": 31875,
      "d": 166.015625,
      "v": 57
    },
    {
      "midi": 87,
      "hit": false,
      "t": 31875,
      "d": 166.015625,
      "v": 56
    },
    {
      "midi": 91,
      "hit": false,
      "t": 31875,
      "d": 210.9375,
      "v": 54
    },
    {
      "midi": 60,
      "hit": false,
      "t": 31875,
      "d": 933.59375,
      "v": 1
    },
    {
      "midi": 63,
      "hit": false,
      "t": 31875,
      "d": 933.59375,
      "v": 1
    },
    {
      "midi": 87,
      "hit": false,
      "t": 32343.75,
      "d": 166.015625,
      "v": 58
    },
    {
      "midi": 84,
      "hit": false,
      "t": 32343.75,
      "d": 171.875,
      "v": 64
    },
    {
      "midi": 91,
      "hit": false,
      "t": 32343.75,
      "d": 210.9375,
      "v": 66
    },
    {
      "midi": 87,
      "hit": false,
      "t": 32812.5,
      "d": 181.640625,
      "v": 55
    },
    {
      "midi": 84,
      "hit": false,
      "t": 32812.5,
      "d": 195.3125,
      "v": 46
    },
    {
      "midi": 91,
      "hit": false,
      "t": 32812.5,
      "d": 234.375,
      "v": 52
    },
    {
      "midi": 58,
      "hit": false,
      "t": 32812.5,
      "d": 464.84375,
      "v": 1
    },
    {
      "midi": 62,
      "hit": false,
      "t": 32812.5,
      "d": 464.84375,
      "v": 1
    },
    {
      "midi": 87,
      "hit": false,
      "t": 33281.25,
      "d": 175.78125,
      "v": 65
    },
    {
      "midi": 84,
      "hit": false,
      "t": 33281.25,
      "d": 181.640625,
      "v": 53
    },
    {
      "midi": 91,
      "hit": false,
      "t": 33281.25,
      "d": 244.140625,
      "v": 52
    },
    {
      "midi": 57,
      "hit": false,
      "t": 33281.25,
      "d": 464.84375,
      "v": 1
    },
    {
      "midi": 60,
      "hit": false,
      "t": 33281.25,
      "d": 464.84375,
      "v": 1
    },
    {
      "midi": 84,
      "hit": false,
      "t": 33750,
      "d": 230.46875,
      "v": 63
    },
    {
      "midi": 87,
      "hit": false,
      "t": 33750,
      "d": 259.765625,
      "v": 68
    },
    {
      "midi": 93,
      "hit": false,
      "t": 33750,
      "d": 289.0625,
      "v": 69
    },
    {
      "midi": 60,
      "hit": false,
      "t": 33750,
      "d": 933.59375,
      "v": 1
    },
    {
      "midi": 63,
      "hit": false,
      "t": 33750,
      "d": 933.59375,
      "v": 1
    },
    {
      "midi": 84,
      "hit": false,
      "t": 34218.75,
      "d": 166.015625,
      "v": 57
    },
    {
      "midi": 87,
      "hit": false,
      "t": 34218.75,
      "d": 171.875,
      "v": 65
    },
    {
      "midi": 93,
      "hit": false,
      "t": 34218.75,
      "d": 214.84375,
      "v": 60
    },
    {
      "midi": 84,
      "hit": false,
      "t": 34687.5,
      "d": 156.25,
      "v": 58
    },
    {
      "midi": 87,
      "hit": false,
      "t": 34687.5,
      "d": 162.109375,
      "v": 61
    },
    {
      "midi": 93,
      "hit": false,
      "t": 34687.5,
      "d": 195.3125,
      "v": 73
    },
    {
      "midi": 84,
      "hit": false,
      "t": 35156.25,
      "d": 191.40625,
      "v": 62
    },
    {
      "midi": 87,
      "hit": false,
      "t": 35156.25,
      "d": 195.3125,
      "v": 68
    },
    {
      "midi": 93,
      "hit": false,
      "t": 35156.25,
      "d": 224.609375,
      "v": 69
    },
    {
      "midi": 87,
      "hit": false,
      "t": 35625,
      "d": 191.40625,
      "v": 60
    },
    {
      "midi": 84,
      "hit": false,
      "t": 35625,
      "d": 195.3125,
      "v": 57
    },
    {
      "midi": 93,
      "hit": false,
      "t": 35625,
      "d": 214.84375,
      "v": 58
    },
    {
      "midi": 84,
      "hit": false,
      "t": 36093.75,
      "d": 146.484375,
      "v": 72
    },
    {
      "midi": 87,
      "hit": false,
      "t": 36093.75,
      "d": 146.484375,
      "v": 68
    },
    {
      "midi": 93,
      "hit": false,
      "t": 36093.75,
      "d": 152.34375,
      "v": 72
    },
    {
      "midi": 84,
      "hit": false,
      "t": 36562.5,
      "d": 185.546875,
      "v": 69
    },
    {
      "midi": 87,
      "hit": false,
      "t": 36562.5,
      "d": 230.46875,
      "v": 77
    },
    {
      "midi": 91,
      "hit": false,
      "t": 36562.5,
      "d": 240.234375,
      "v": 69
    },
    {
      "midi": 84,
      "hit": false,
      "t": 37031.25,
      "d": 156.25,
      "v": 56
    },
    {
      "midi": 87,
      "hit": false,
      "t": 37031.25,
      "d": 201.171875,
      "v": 69
    },
    {
      "midi": 91,
      "hit": false,
      "t": 37031.25,
      "d": 201.171875,
      "v": 61
    },
    {
      "midi": 84,
      "hit": false,
      "t": 37500,
      "d": 175.78125,
      "v": 49
    },
    {
      "midi": 87,
      "hit": false,
      "t": 37500,
      "d": 205.078125,
      "v": 58
    },
    {
      "midi": 91,
      "hit": false,
      "t": 37500,
      "d": 230.46875,
      "v": 61
    },
    {
      "midi": 60,
      "hit": false,
      "t": 37500,
      "d": 933.59375,
      "v": 1
    },
    {
      "midi": 63,
      "hit": false,
      "t": 37500,
      "d": 933.59375,
      "v": 1
    },
    {
      "midi": 84,
      "hit": false,
      "t": 37968.75,
      "d": 185.546875,
      "v": 57
    },
    {
      "midi": 87,
      "hit": false,
      "t": 37968.75,
      "d": 214.84375,
      "v": 72
    },
    {
      "midi": 91,
      "hit": false,
      "t": 37968.75,
      "d": 253.90625,
      "v": 62
    },
    {
      "midi": 87,
      "hit": false,
      "t": 38437.5,
      "d": 152.34375,
      "v": 67
    },
    {
      "midi": 84,
      "hit": false,
      "t": 38437.5,
      "d": 171.875,
      "v": 46
    },
    {
      "midi": 91,
      "hit": false,
      "t": 38437.5,
      "d": 195.3125,
      "v": 63
    },
    {
      "midi": 58,
      "hit": false,
      "t": 38437.5,
      "d": 464.84375,
      "v": 1
    },
    {
      "midi": 62,
      "hit": false,
      "t": 38437.5,
      "d": 464.84375,
      "v": 1
    },
    {
      "midi": 87,
      "hit": false,
      "t": 38906.25,
      "d": 191.40625,
      "v": 74
    },
    {
      "midi": 84,
      "hit": false,
      "t": 38906.25,
      "d": 195.3125,
      "v": 51
    },
    {
      "midi": 91,
      "hit": false,
      "t": 38906.25,
      "d": 224.609375,
      "v": 58
    },
    {
      "midi": 57,
      "hit": false,
      "t": 38906.25,
      "d": 464.84375,
      "v": 1
    },
    {
      "midi": 60,
      "hit": false,
      "t": 38906.25,
      "d": 464.84375,
      "v": 1
    },
    {
      "midi": 84,
      "hit": false,
      "t": 39375,
      "d": 171.875,
      "v": 58
    },
    {
      "midi": 87,
      "hit": false,
      "t": 39375,
      "d": 185.546875,
      "v": 74
    },
    {
      "midi": 93,
      "hit": false,
      "t": 39375,
      "d": 250,
      "v": 70
    },
    {
      "midi": 60,
      "hit": false,
      "t": 39375,
      "d": 933.59375,
      "v": 1
    },
    {
      "midi": 63,
      "hit": false,
      "t": 39375,
      "d": 933.59375,
      "v": 1
    },
    {
      "midi": 87,
      "hit": false,
      "t": 39843.75,
      "d": 156.25,
      "v": 66
    },
    {
      "midi": 84,
      "hit": false,
      "t": 39843.75,
      "d": 166.015625,
      "v": 60
    },
    {
      "midi": 93,
      "hit": false,
      "t": 39843.75,
      "d": 240.234375,
      "v": 64
    },
    {
      "midi": 84,
      "hit": false,
      "t": 40312.5,
      "d": 185.546875,
      "v": 46
    },
    {
      "midi": 87,
      "hit": false,
      "t": 40312.5,
      "d": 185.546875,
      "v": 64
    },
    {
      "midi": 93,
      "hit": false,
      "t": 40312.5,
      "d": 253.90625,
      "v": 56
    },
    {
      "midi": 84,
      "hit": false,
      "t": 40781.25,
      "d": 175.78125,
      "v": 59
    },
    {
      "midi": 87,
      "hit": false,
      "t": 40781.25,
      "d": 175.78125,
      "v": 62
    },
    {
      "midi": 93,
      "hit": false,
      "t": 40781.25,
      "d": 259.765625,
      "v": 65
    },
    {
      "midi": 87,
      "hit": false,
      "t": 41250,
      "d": 152.34375,
      "v": 69
    },
    {
      "midi": 84,
      "hit": false,
      "t": 41250,
      "d": 156.25,
      "v": 55
    },
    {
      "midi": 93,
      "hit": false,
      "t": 41250,
      "d": 224.609375,
      "v": 65
    },
    {
      "midi": 87,
      "hit": false,
      "t": 41718.75,
      "d": 166.015625,
      "v": 63
    },
    {
      "midi": 84,
      "hit": false,
      "t": 41718.75,
      "d": 175.78125,
      "v": 58
    },
    {
      "midi": 93,
      "hit": false,
      "t": 41718.75,
      "d": 298.828125,
      "v": 54
    },
    {
      "midi": 86,
      "hit": false,
      "t": 42187.5,
      "d": 136.71875,
      "v": 71
    },
    {
      "midi": 89,
      "hit": false,
      "t": 42187.5,
      "d": 142.578125,
      "v": 66
    },
    {
      "midi": 94,
      "hit": false,
      "t": 42187.5,
      "d": 195.3125,
      "v": 72
    },
    {
      "midi": 86,
      "hit": false,
      "t": 42656.25,
      "d": 175.78125,
      "v": 58
    },
    {
      "midi": 89,
      "hit": false,
      "t": 42656.25,
      "d": 185.546875,
      "v": 65
    },
    {
      "midi": 94,
      "hit": false,
      "t": 42656.25,
      "d": 214.84375,
      "v": 52
    },
    {
      "midi": 86,
      "hit": false,
      "t": 43125,
      "d": 166.015625,
      "v": 57
    },
    {
      "midi": 89,
      "hit": false,
      "t": 43125,
      "d": 166.015625,
      "v": 59
    },
    {
      "midi": 94,
      "hit": false,
      "t": 43125,
      "d": 210.9375,
      "v": 56
    },
    {
      "midi": 62,
      "hit": false,
      "t": 43125,
      "d": 933.59375,
      "v": 1
    },
    {
      "midi": 65,
      "hit": false,
      "t": 43125,
      "d": 933.59375,
      "v": 1
    },
    {
      "midi": 89,
      "hit": false,
      "t": 43593.75,
      "d": 166.015625,
      "v": 61
    },
    {
      "midi": 86,
      "hit": false,
      "t": 43593.75,
      "d": 171.875,
      "v": 62
    },
    {
      "midi": 94,
      "hit": false,
      "t": 43593.75,
      "d": 210.9375,
      "v": 61
    },
    {
      "midi": 89,
      "hit": false,
      "t": 44062.5,
      "d": 181.640625,
      "v": 61
    },
    {
      "midi": 86,
      "hit": false,
      "t": 44062.5,
      "d": 195.3125,
      "v": 50
    },
    {
      "midi": 94,
      "hit": false,
      "t": 44062.5,
      "d": 234.375,
      "v": 55
    },
    {
      "midi": 60,
      "hit": false,
      "t": 44062.5,
      "d": 464.84375,
      "v": 1
    },
    {
      "midi": 63,
      "hit": false,
      "t": 44062.5,
      "d": 464.84375,
      "v": 1
    },
    {
      "midi": 89,
      "hit": false,
      "t": 44531.25,
      "d": 175.78125,
      "v": 63
    },
    {
      "midi": 86,
      "hit": false,
      "t": 44531.25,
      "d": 181.640625,
      "v": 59
    },
    {
      "midi": 94,
      "hit": false,
      "t": 44531.25,
      "d": 244.140625,
      "v": 51
    },
    {
      "midi": 58,
      "hit": false,
      "t": 44531.25,
      "d": 464.84375,
      "v": 1
    },
    {
      "midi": 62,
      "hit": false,
      "t": 44531.25,
      "d": 464.84375,
      "v": 1
    },
    {
      "midi": 86,
      "hit": false,
      "t": 45000,
      "d": 136.71875,
      "v": 75
    },
    {
      "midi": 89,
      "hit": false,
      "t": 45000,
      "d": 142.578125,
      "v": 66
    },
    {
      "midi": 94,
      "hit": false,
      "t": 45000,
      "d": 195.3125,
      "v": 67
    },
    {
      "midi": 62,
      "hit": false,
      "t": 45000,
      "d": 933.59375,
      "v": 1
    },
    {
      "midi": 65,
      "hit": false,
      "t": 45000,
      "d": 933.59375,
      "v": 1
    },
    {
      "midi": 86,
      "hit": false,
      "t": 45468.75,
      "d": 175.78125,
      "v": 54
    },
    {
      "midi": 89,
      "hit": false,
      "t": 45468.75,
      "d": 185.546875,
      "v": 57
    },
    {
      "midi": 94,
      "hit": false,
      "t": 45468.75,
      "d": 214.84375,
      "v": 52
    },
    {
      "midi": 86,
      "hit": false,
      "t": 45937.5,
      "d": 166.015625,
      "v": 55
    },
    {
      "midi": 89,
      "hit": false,
      "t": 45937.5,
      "d": 166.015625,
      "v": 61
    },
    {
      "midi": 94,
      "hit": false,
      "t": 45937.5,
      "d": 210.9375,
      "v": 51
    },
    {
      "midi": 89,
      "hit": false,
      "t": 46406.25,
      "d": 166.015625,
      "v": 60
    },
    {
      "midi": 86,
      "hit": false,
      "t": 46406.25,
      "d": 171.875,
      "v": 60
    },
    {
      "midi": 94,
      "hit": false,
      "t": 46406.25,
      "d": 210.9375,
      "v": 65
    },
    {
      "midi": 89,
      "hit": false,
      "t": 46875,
      "d": 181.640625,
      "v": 53
    },
    {
      "midi": 86,
      "hit": false,
      "t": 46875,
      "d": 195.3125,
      "v": 51
    },
    {
      "midi": 94,
      "hit": false,
      "t": 46875,
      "d": 234.375,
      "v": 53
    },
    {
      "midi": 89,
      "hit": false,
      "t": 47343.75,
      "d": 175.78125,
      "v": 59
    },
    {
      "midi": 86,
      "hit": false,
      "t": 47343.75,
      "d": 181.640625,
      "v": 60
    },
    {
      "midi": 94,
      "hit": false,
      "t": 47343.75,
      "d": 244.140625,
      "v": 59
    },
    {
      "midi": 80,
      "hit": false,
      "t": 47812.5,
      "d": 185.546875,
      "v": 68
    },
    {
      "midi": 86,
      "hit": false,
      "t": 47812.5,
      "d": 230.46875,
      "v": 72
    },
    {
      "midi": 89,
      "hit": false,
      "t": 47812.5,
      "d": 240.234375,
      "v": 75
    },
    {
      "midi": 58,
      "hit": false,
      "t": 47812.5,
      "d": 2808.59375,
      "v": 1
    },
    {
      "midi": 62,
      "hit": false,
      "t": 47812.5,
      "d": 2808.59375,
      "v": 1
    },
    {
      "midi": 65,
      "hit": false,
      "t": 47812.5,
      "d": 2808.59375,
      "v": 1
    },
    {
      "midi": 80,
      "hit": false,
      "t": 48281.25,
      "d": 156.25,
      "v": 56
    },
    {
      "midi": 86,
      "hit": false,
      "t": 48281.25,
      "d": 201.171875,
      "v": 64
    },
    {
      "midi": 89,
      "hit": false,
      "t": 48281.25,
      "d": 201.171875,
      "v": 64
    },
    {
      "midi": 80,
      "hit": false,
      "t": 48750,
      "d": 175.78125,
      "v": 43
    },
    {
      "midi": 86,
      "hit": false,
      "t": 48750,
      "d": 205.078125,
      "v": 55
    },
    {
      "midi": 89,
      "hit": false,
      "t": 48750,
      "d": 230.46875,
      "v": 64
    },
    {
      "midi": 80,
      "hit": false,
      "t": 49218.75,
      "d": 185.546875,
      "v": 53
    },
    {
      "midi": 86,
      "hit": false,
      "t": 49218.75,
      "d": 214.84375,
      "v": 71
    },
    {
      "midi": 89,
      "hit": false,
      "t": 49218.75,
      "d": 253.90625,
      "v": 65
    },
    {
      "midi": 86,
      "hit": false,
      "t": 49687.5,
      "d": 152.34375,
      "v": 60
    },
    {
      "midi": 80,
      "hit": false,
      "t": 49687.5,
      "d": 171.875,
      "v": 49
    },
    {
      "midi": 89,
      "hit": false,
      "t": 49687.5,
      "d": 195.3125,
      "v": 54
    },
    {
      "midi": 86,
      "hit": false,
      "t": 50156.25,
      "d": 191.40625,
      "v": 67
    },
    {
      "midi": 80,
      "hit": false,
      "t": 50156.25,
      "d": 195.3125,
      "v": 50
    },
    {
      "midi": 89,
      "hit": false,
      "t": 50156.25,
      "d": 224.609375,
      "v": 62
    },
    {
      "midi": 80,
      "hit": false,
      "t": 50625,
      "d": 171.875,
      "v": 57
    },
    {
      "midi": 86,
      "hit": false,
      "t": 50625,
      "d": 185.546875,
      "v": 67
    },
    {
      "midi": 89,
      "hit": false,
      "t": 50625,
      "d": 250,
      "v": 67
    },
    {
      "midi": 58,
      "hit": false,
      "t": 50625,
      "d": 2808.59375,
      "v": 1
    },
    {
      "midi": 62,
      "hit": false,
      "t": 50625,
      "d": 2808.59375,
      "v": 1
    },
    {
      "midi": 68,
      "hit": false,
      "t": 50625,
      "d": 2808.59375,
      "v": 1
    },
    {
      "midi": 86,
      "hit": false,
      "t": 51093.75,
      "d": 156.25,
      "v": 71
    },
    {
      "midi": 80,
      "hit": false,
      "t": 51093.75,
      "d": 166.015625,
      "v": 61
    },
    {
      "midi": 89,
      "hit": false,
      "t": 51093.75,
      "d": 240.234375,
      "v": 72
    },
    {
      "midi": 80,
      "hit": false,
      "t": 51562.5,
      "d": 185.546875,
      "v": 48
    },
    {
      "midi": 86,
      "hit": false,
      "t": 51562.5,
      "d": 185.546875,
      "v": 65
    },
    {
      "midi": 89,
      "hit": false,
      "t": 51562.5,
      "d": 253.90625,
      "v": 53
    },
    {
      "midi": 80,
      "hit": false,
      "t": 52031.25,
      "d": 175.78125,
      "v": 51
    },
    {
      "midi": 86,
      "hit": false,
      "t": 52031.25,
      "d": 175.78125,
      "v": 71
    },
    {
      "midi": 89,
      "hit": false,
      "t": 52031.25,
      "d": 259.765625,
      "v": 61
    },
    {
      "midi": 86,
      "hit": false,
      "t": 52500,
      "d": 152.34375,
      "v": 74
    },
    {
      "midi": 80,
      "hit": false,
      "t": 52500,
      "d": 156.25,
      "v": 61
    },
    {
      "midi": 89,
      "hit": false,
      "t": 52500,
      "d": 224.609375,
      "v": 62
    },
    {
      "midi": 86,
      "hit": false,
      "t": 52968.75,
      "d": 166.015625,
      "v": 66
    },
    {
      "midi": 80,
      "hit": false,
      "t": 52968.75,
      "d": 175.78125,
      "v": 52
    },
    {
      "midi": 89,
      "hit": false,
      "t": 52968.75,
      "d": 298.828125,
      "v": 61
    },
    {
      "midi": 82,
      "hit": false,
      "t": 53437.5,
      "d": 136.71875,
      "v": 69
    },
    {
      "midi": 87,
      "hit": false,
      "t": 53437.5,
      "d": 142.578125,
      "v": 64
    },
    {
      "midi": 91,
      "hit": false,
      "t": 53437.5,
      "d": 195.3125,
      "v": 67
    },
    {
      "midi": 63,
      "hit": false,
      "t": 53437.5,
      "d": 2808.59375,
      "v": 1
    },
    {
      "midi": 67,
      "hit": false,
      "t": 53437.5,
      "d": 2808.59375,
      "v": 1
    },
    {
      "midi": 70,
      "hit": false,
      "t": 53437.5,
      "d": 2808.59375,
      "v": 1
    },
    {
      "midi": 82,
      "hit": false,
      "t": 53906.25,
      "d": 175.78125,
      "v": 57
    },
    {
      "midi": 87,
      "hit": false,
      "t": 53906.25,
      "d": 185.546875,
      "v": 56
    },
    {
      "midi": 91,
      "hit": false,
      "t": 53906.25,
      "d": 214.84375,
      "v": 57
    },
    {
      "midi": 82,
      "hit": false,
      "t": 54375,
      "d": 166.015625,
      "v": 52
    },
    {
      "midi": 87,
      "hit": false,
      "t": 54375,
      "d": 166.015625,
      "v": 60
    },
    {
      "midi": 91,
      "hit": false,
      "t": 54375,
      "d": 210.9375,
      "v": 51
    },
    {
      "midi": 87,
      "hit": false,
      "t": 54843.75,
      "d": 166.015625,
      "v": 62
    },
    {
      "midi": 82,
      "hit": false,
      "t": 54843.75,
      "d": 171.875,
      "v": 60
    },
    {
      "midi": 91,
      "hit": false,
      "t": 54843.75,
      "d": 210.9375,
      "v": 62
    },
    {
      "midi": 87,
      "hit": false,
      "t": 55312.5,
      "d": 181.640625,
      "v": 55
    },
    {
      "midi": 82,
      "hit": false,
      "t": 55312.5,
      "d": 195.3125,
      "v": 52
    },
    {
      "midi": 91,
      "hit": false,
      "t": 55312.5,
      "d": 234.375,
      "v": 50
    },
    {
      "midi": 87,
      "hit": false,
      "t": 55781.25,
      "d": 175.78125,
      "v": 63
    },
    {
      "midi": 82,
      "hit": false,
      "t": 55781.25,
      "d": 181.640625,
      "v": 60
    },
    {
      "midi": 91,
      "hit": false,
      "t": 55781.25,
      "d": 244.140625,
      "v": 56
    },
    {
      "midi": 82,
      "hit": false,
      "t": 56250,
      "d": 230.46875,
      "v": 59
    },
    {
      "midi": 87,
      "hit": false,
      "t": 56250,
      "d": 259.765625,
      "v": 65
    },
    {
      "midi": 91,
      "hit": false,
      "t": 56250,
      "d": 289.0625,
      "v": 64
    },
    {
      "midi": 60,
      "hit": false,
      "t": 56250,
      "d": 2808.59375,
      "v": 1
    },
    {
      "midi": 63,
      "hit": false,
      "t": 56250,
      "d": 2808.59375,
      "v": 1
    },
    {
      "midi": 67,
      "hit": false,
      "t": 56250,
      "d": 2808.59375,
      "v": 1
    },
    {
      "midi": 82,
      "hit": false,
      "t": 56718.75,
      "d": 166.015625,
      "v": 53
    },
    {
      "midi": 87,
      "hit": false,
      "t": 56718.75,
      "d": 171.875,
      "v": 61
    },
    {
      "midi": 91,
      "hit": false,
      "t": 56718.75,
      "d": 214.84375,
      "v": 65
    },
    {
      "midi": 82,
      "hit": false,
      "t": 57187.5,
      "d": 156.25,
      "v": 64
    },
    {
      "midi": 87,
      "hit": false,
      "t": 57187.5,
      "d": 162.109375,
      "v": 67
    },
    {
      "midi": 91,
      "hit": false,
      "t": 57187.5,
      "d": 195.3125,
      "v": 73
    },
    {
      "midi": 82,
      "hit": false,
      "t": 57656.25,
      "d": 191.40625,
      "v": 65
    },
    {
      "midi": 87,
      "hit": false,
      "t": 57656.25,
      "d": 195.3125,
      "v": 67
    },
    {
      "midi": 91,
      "hit": false,
      "t": 57656.25,
      "d": 224.609375,
      "v": 64
    },
    {
      "midi": 87,
      "hit": false,
      "t": 58125,
      "d": 191.40625,
      "v": 59
    },
    {
      "midi": 82,
      "hit": false,
      "t": 58125,
      "d": 195.3125,
      "v": 56
    },
    {
      "midi": 91,
      "hit": false,
      "t": 58125,
      "d": 214.84375,
      "v": 65
    },
    {
      "midi": 82,
      "hit": false,
      "t": 58593.75,
      "d": 146.484375,
      "v": 66
    },
    {
      "midi": 87,
      "hit": false,
      "t": 58593.75,
      "d": 146.484375,
      "v": 69
    },
    {
      "midi": 91,
      "hit": false,
      "t": 58593.75,
      "d": 152.34375,
      "v": 67
    },
    {
      "midi": 84,
      "hit": false,
      "t": 59062.5,
      "d": 185.546875,
      "v": 68
    },
    {
      "midi": 87,
      "hit": false,
      "t": 59062.5,
      "d": 230.46875,
      "v": 77
    },
    {
      "midi": 93,
      "hit": false,
      "t": 59062.5,
      "d": 240.234375,
      "v": 66
    },
    {
      "midi": 53,
      "hit": false,
      "t": 59062.5,
      "d": 3746.09375,
      "v": 1
    },
    {
      "midi": 65,
      "hit": false,
      "t": 59062.5,
      "d": 3746.09375,
      "v": 1
    },
    {
      "midi": 69,
      "hit": false,
      "t": 59062.5,
      "d": 3746.09375,
      "v": 1
    },
    {
      "midi": 84,
      "hit": false,
      "t": 59531.25,
      "d": 156.25,
      "v": 53
    },
    {
      "midi": 87,
      "hit": false,
      "t": 59531.25,
      "d": 201.171875,
      "v": 63
    },
    {
      "midi": 93,
      "hit": false,
      "t": 59531.25,
      "d": 201.171875,
      "v": 57
    },
    {
      "midi": 84,
      "hit": false,
      "t": 60000,
      "d": 175.78125,
      "v": 46
    },
    {
      "midi": 87,
      "hit": false,
      "t": 60000,
      "d": 205.078125,
      "v": 58
    },
    {
      "midi": 93,
      "hit": false,
      "t": 60000,
      "d": 230.46875,
      "v": 64
    },
    {
      "midi": 84,
      "hit": false,
      "t": 60468.75,
      "d": 185.546875,
      "v": 57
    },
    {
      "midi": 87,
      "hit": false,
      "t": 60468.75,
      "d": 214.84375,
      "v": 72
    },
    {
      "midi": 93,
      "hit": false,
      "t": 60468.75,
      "d": 253.90625,
      "v": 64
    },
    {
      "midi": 87,
      "hit": false,
      "t": 60937.5,
      "d": 152.34375,
      "v": 60
    },
    {
      "midi": 84,
      "hit": false,
      "t": 60937.5,
      "d": 171.875,
      "v": 42
    },
    {
      "midi": 93,
      "hit": false,
      "t": 60937.5,
      "d": 195.3125,
      "v": 60
    },
    {
      "midi": 87,
      "hit": false,
      "t": 61406.25,
      "d": 191.40625,
      "v": 66
    },
    {
      "midi": 84,
      "hit": false,
      "t": 61406.25,
      "d": 195.3125,
      "v": 52
    },
    {
      "midi": 93,
      "hit": false,
      "t": 61406.25,
      "d": 224.609375,
      "v": 62
    },
    {
      "midi": 84,
      "hit": false,
      "t": 61875,
      "d": 171.875,
      "v": 66
    },
    {
      "midi": 87,
      "hit": false,
      "t": 61875,
      "d": 185.546875,
      "v": 74
    },
    {
      "midi": 93,
      "hit": false,
      "t": 61875,
      "d": 250,
      "v": 72
    },
    {
      "midi": 87,
      "hit": false,
      "t": 62343.75,
      "d": 156.25,
      "v": 69
    },
    {
      "midi": 84,
      "hit": false,
      "t": 62343.75,
      "d": 166.015625,
      "v": 55
    },
    {
      "midi": 93,
      "hit": false,
      "t": 62343.75,
      "d": 240.234375,
      "v": 71
    },
    {
      "midi": 84,
      "hit": false,
      "t": 62812.5,
      "d": 185.546875,
      "v": 52
    },
    {
      "midi": 87,
      "hit": false,
      "t": 62812.5,
      "d": 185.546875,
      "v": 68
    },
    {
      "midi": 93,
      "hit": false,
      "t": 62812.5,
      "d": 253.90625,
      "v": 57
    },
    {
      "midi": 84,
      "hit": false,
      "t": 63281.25,
      "d": 175.78125,
      "v": 52
    },
    {
      "midi": 87,
      "hit": false,
      "t": 63281.25,
      "d": 175.78125,
      "v": 66
    },
    {
      "midi": 93,
      "hit": false,
      "t": 63281.25,
      "d": 259.765625,
      "v": 58
    },
    {
      "midi": 87,
      "hit": false,
      "t": 63750,
      "d": 152.34375,
      "v": 68
    },
    {
      "midi": 84,
      "hit": false,
      "t": 63750,
      "d": 156.25,
      "v": 58
    },
    {
      "midi": 93,
      "hit": false,
      "t": 63750,
      "d": 224.609375,
      "v": 70
    },
    {
      "midi": 87,
      "hit": false,
      "t": 64218.75,
      "d": 166.015625,
      "v": 62
    },
    {
      "midi": 84,
      "hit": false,
      "t": 64218.75,
      "d": 175.78125,
      "v": 57
    },
    {
      "midi": 93,
      "hit": false,
      "t": 64218.75,
      "d": 298.828125,
      "v": 56
    },
    {
      "midi": 86,
      "hit": false,
      "t": 64687.5,
      "d": 136.71875,
      "v": 71
    },
    {
      "midi": 89,
      "hit": false,
      "t": 64687.5,
      "d": 142.578125,
      "v": 71
    },
    {
      "midi": 94,
      "hit": false,
      "t": 64687.5,
      "d": 195.3125,
      "v": 71
    },
    {
      "midi": 86,
      "hit": false,
      "t": 65156.25,
      "d": 175.78125,
      "v": 53
    },
    {
      "midi": 89,
      "hit": false,
      "t": 65156.25,
      "d": 185.546875,
      "v": 64
    },
    {
      "midi": 94,
      "hit": false,
      "t": 65156.25,
      "d": 214.84375,
      "v": 61
    },
    {
      "midi": 58,
      "hit": false,
      "t": 65156.25,
      "d": 3277.34375,
      "v": 1
    },
    {
      "midi": 62,
      "hit": false,
      "t": 65156.25,
      "d": 3277.34375,
      "v": 1
    },
    {
      "midi": 65,
      "hit": false,
      "t": 65156.25,
      "d": 3277.34375,
      "v": 1
    },
    {
      "midi": 70,
      "hit": false,
      "t": 65156.25,
      "d": 3277.34375,
      "v": 1
    },
    {
      "midi": 86,
      "hit": false,
      "t": 65625,
      "d": 166.015625,
      "v": 59
    },
    {
      "midi": 89,
      "hit": false,
      "t": 65625,
      "d": 166.015625,
      "v": 55
    },
    {
      "midi": 94,
      "hit": false,
      "t": 65625,
      "d": 210.9375,
      "v": 58
    },
    {
      "midi": 89,
      "hit": false,
      "t": 66093.75,
      "d": 166.015625,
      "v": 60
    },
    {
      "midi": 86,
      "hit": false,
      "t": 66093.75,
      "d": 171.875,
      "v": 64
    },
    {
      "midi": 94,
      "hit": false,
      "t": 66093.75,
      "d": 210.9375,
      "v": 67
    },
    {
      "midi": 89,
      "hit": false,
      "t": 66562.5,
      "d": 181.640625,
      "v": 55
    },
    {
      "midi": 86,
      "hit": false,
      "t": 66562.5,
      "d": 195.3125,
      "v": 49
    },
    {
      "midi": 94,
      "hit": false,
      "t": 66562.5,
      "d": 234.375,
      "v": 55
    },
    {
      "midi": 89,
      "hit": false,
      "t": 67031.25,
      "d": 175.78125,
      "v": 63
    },
    {
      "midi": 86,
      "hit": false,
      "t": 67031.25,
      "d": 181.640625,
      "v": 53
    },
    {
      "midi": 94,
      "hit": false,
      "t": 67031.25,
      "d": 244.140625,
      "v": 55
    },
    {
      "midi": 86,
      "hit": false,
      "t": 67500,
      "d": 136.71875,
      "v": 70
    },
    {
      "midi": 89,
      "hit": false,
      "t": 67500,
      "d": 142.578125,
      "v": 68
    },
    {
      "midi": 94,
      "hit": false,
      "t": 67500,
      "d": 195.3125,
      "v": 70
    },
    {
      "midi": 86,
      "hit": false,
      "t": 67968.75,
      "d": 175.78125,
      "v": 58
    },
    {
      "midi": 89,
      "hit": false,
      "t": 67968.75,
      "d": 185.546875,
      "v": 60
    },
    {
      "midi": 94,
      "hit": false,
      "t": 67968.75,
      "d": 214.84375,
      "v": 60
    },
    {
      "midi": 86,
      "hit": false,
      "t": 68437.5,
      "d": 166.015625,
      "v": 55
    },
    {
      "midi": 89,
      "hit": false,
      "t": 68437.5,
      "d": 166.015625,
      "v": 53
    },
    {
      "midi": 94,
      "hit": false,
      "t": 68437.5,
      "d": 210.9375,
      "v": 56
    },
    {
      "midi": 89,
      "hit": false,
      "t": 68906.25,
      "d": 166.015625,
      "v": 63
    },
    {
      "midi": 86,
      "hit": false,
      "t": 68906.25,
      "d": 171.875,
      "v": 63
    },
    {
      "midi": 94,
      "hit": false,
      "t": 68906.25,
      "d": 210.9375,
      "v": 64
    },
    {
      "midi": 89,
      "hit": false,
      "t": 69375,
      "d": 181.640625,
      "v": 60
    },
    {
      "midi": 86,
      "hit": false,
      "t": 69375,
      "d": 195.3125,
      "v": 52
    },
    {
      "midi": 94,
      "hit": false,
      "t": 69375,
      "d": 234.375,
      "v": 51
    },
    {
      "midi": 89,
      "hit": false,
      "t": 69843.75,
      "d": 175.78125,
      "v": 60
    },
    {
      "midi": 86,
      "hit": false,
      "t": 69843.75,
      "d": 181.640625,
      "v": 54
    },
    {
      "midi": 94,
      "hit": false,
      "t": 69843.75,
      "d": 244.140625,
      "v": 58
    },
    {
      "midi": 87,
      "hit": false,
      "t": 70312.5,
      "d": 185.546875,
      "v": 65
    },
    {
      "midi": 91,
      "hit": false,
      "t": 70312.5,
      "d": 230.46875,
      "v": 70
    },
    {
      "midi": 94,
      "hit": false,
      "t": 70312.5,
      "d": 240.234375,
      "v": 69
    },
    {
      "midi": 87,
      "hit": false,
      "t": 70781.25,
      "d": 156.25,
      "v": 56
    },
    {
      "midi": 91,
      "hit": false,
      "t": 70781.25,
      "d": 201.171875,
      "v": 63
    },
    {
      "midi": 94,
      "hit": false,
      "t": 70781.25,
      "d": 201.171875,
      "v": 66
    },
    {
      "midi": 87,
      "hit": false,
      "t": 71250,
      "d": 175.78125,
      "v": 44
    },
    {
      "midi": 91,
      "hit": false,
      "t": 71250,
      "d": 205.078125,
      "v": 55
    },
    {
      "midi": 94,
      "hit": false,
      "t": 71250,
      "d": 230.46875,
      "v": 59
    },
    {
      "midi": 58,
      "hit": false,
      "t": 71250,
      "d": 1871.09375,
      "v": 1
    },
    {
      "midi": 63,
      "hit": false,
      "t": 71250,
      "d": 1871.09375,
      "v": 1
    },
    {
      "midi": 67,
      "hit": false,
      "t": 71250,
      "d": 1871.09375,
      "v": 1
    },
    {
      "midi": 87,
      "hit": false,
      "t": 71718.75,
      "d": 185.546875,
      "v": 56
    },
    {
      "midi": 91,
      "hit": false,
      "t": 71718.75,
      "d": 214.84375,
      "v": 73
    },
    {
      "midi": 94,
      "hit": false,
      "t": 71718.75,
      "d": 253.90625,
      "v": 64
    },
    {
      "midi": 91,
      "hit": false,
      "t": 72187.5,
      "d": 152.34375,
      "v": 64
    },
    {
      "midi": 87,
      "hit": false,
      "t": 72187.5,
      "d": 171.875,
      "v": 44
    },
    {
      "midi": 94,
      "hit": false,
      "t": 72187.5,
      "d": 195.3125,
      "v": 60
    },
    {
      "midi": 91,
      "hit": false,
      "t": 72656.25,
      "d": 191.40625,
      "v": 67
    },
    {
      "midi": 87,
      "hit": false,
      "t": 72656.25,
      "d": 195.3125,
      "v": 46
    },
    {
      "midi": 94,
      "hit": false,
      "t": 72656.25,
      "d": 224.609375,
      "v": 55
    },
    {
      "midi": 87,
      "hit": false,
      "t": 73125,
      "d": 171.875,
      "v": 62
    },
    {
      "midi": 91,
      "hit": false,
      "t": 73125,
      "d": 185.546875,
      "v": 70
    },
    {
      "midi": 94,
      "hit": false,
      "t": 73125,
      "d": 250,
      "v": 64
    },
    {
      "midi": 63,
      "hit": false,
      "t": 73125,
      "d": 2808.59375,
      "v": 1
    },
    {
      "midi": 67,
      "hit": false,
      "t": 73125,
      "d": 2808.59375,
      "v": 1
    },
    {
      "midi": 70,
      "hit": false,
      "t": 73125,
      "d": 2808.59375,
      "v": 1
    },
    {
      "midi": 91,
      "hit": false,
      "t": 73593.75,
      "d": 156.25,
      "v": 67
    },
    {
      "midi": 87,
      "hit": false,
      "t": 73593.75,
      "d": 166.015625,
      "v": 62
    },
    {
      "midi": 94,
      "hit": false,
      "t": 73593.75,
      "d": 240.234375,
      "v": 69
    },
    {
      "midi": 87,
      "hit": false,
      "t": 74062.5,
      "d": 185.546875,
      "v": 47
    },
    {
      "midi": 91,
      "hit": false,
      "t": 74062.5,
      "d": 185.546875,
      "v": 63
    },
    {
      "midi": 94,
      "hit": false,
      "t": 74062.5,
      "d": 253.90625,
      "v": 56
    },
    {
      "midi": 87,
      "hit": false,
      "t": 74531.25,
      "d": 175.78125,
      "v": 52
    },
    {
      "midi": 91,
      "hit": false,
      "t": 74531.25,
      "d": 175.78125,
      "v": 65
    },
    {
      "midi": 94,
      "hit": false,
      "t": 74531.25,
      "d": 259.765625,
      "v": 64
    },
    {
      "midi": 91,
      "hit": false,
      "t": 75000,
      "d": 152.34375,
      "v": 67
    },
    {
      "midi": 87,
      "hit": false,
      "t": 75000,
      "d": 156.25,
      "v": 53
    },
    {
      "midi": 94,
      "hit": false,
      "t": 75000,
      "d": 224.609375,
      "v": 66
    },
    {
      "midi": 91,
      "hit": false,
      "t": 75468.75,
      "d": 166.015625,
      "v": 61
    },
    {
      "midi": 87,
      "hit": false,
      "t": 75468.75,
      "d": 175.78125,
      "v": 50
    },
    {
      "midi": 94,
      "hit": false,
      "t": 75468.75,
      "d": 298.828125,
      "v": 56
    },
    {
      "midi": 82,
      "hit": false,
      "t": 75937.5,
      "d": 136.71875,
      "v": 75
    },
    {
      "midi": 86,
      "hit": false,
      "t": 75937.5,
      "d": 142.578125,
      "v": 65
    },
    {
      "midi": 89,
      "hit": false,
      "t": 75937.5,
      "d": 195.3125,
      "v": 70
    },
    {
      "midi": 82,
      "hit": false,
      "t": 76406.25,
      "d": 175.78125,
      "v": 52
    },
    {
      "midi": 86,
      "hit": false,
      "t": 76406.25,
      "d": 185.546875,
      "v": 58
    },
    {
      "midi": 89,
      "hit": false,
      "t": 76406.25,
      "d": 214.84375,
      "v": 60
    },
    {
      "midi": 82,
      "hit": false,
      "t": 76875,
      "d": 166.015625,
      "v": 55
    },
    {
      "midi": 86,
      "hit": false,
      "t": 76875,
      "d": 166.015625,
      "v": 53
    },
    {
      "midi": 89,
      "hit": false,
      "t": 76875,
      "d": 210.9375,
      "v": 54
    },
    {
      "midi": 62,
      "hit": false,
      "t": 76875,
      "d": 1402.34375,
      "v": 1
    },
    {
      "midi": 65,
      "hit": false,
      "t": 76875,
      "d": 1402.34375,
      "v": 1
    },
    {
      "midi": 70,
      "hit": false,
      "t": 76875,
      "d": 1402.34375,
      "v": 1
    },
    {
      "midi": 86,
      "hit": false,
      "t": 77343.75,
      "d": 166.015625,
      "v": 61
    },
    {
      "midi": 82,
      "hit": false,
      "t": 77343.75,
      "d": 171.875,
      "v": 63
    },
    {
      "midi": 89,
      "hit": false,
      "t": 77343.75,
      "d": 210.9375,
      "v": 63
    },
    {
      "midi": 86,
      "hit": false,
      "t": 77812.5,
      "d": 181.640625,
      "v": 58
    },
    {
      "midi": 82,
      "hit": false,
      "t": 77812.5,
      "d": 195.3125,
      "v": 49
    },
    {
      "midi": 89,
      "hit": false,
      "t": 77812.5,
      "d": 234.375,
      "v": 57
    },
    {
      "midi": 86,
      "hit": false,
      "t": 78281.25,
      "d": 175.78125,
      "v": 68
    },
    {
      "midi": 82,
      "hit": false,
      "t": 78281.25,
      "d": 181.640625,
      "v": 57
    },
    {
      "midi": 89,
      "hit": false,
      "t": 78281.25,
      "d": 244.140625,
      "v": 56
    },
    {
      "midi": 62,
      "hit": false,
      "t": 78281.25,
      "d": 464.84375,
      "v": 1
    },
    {
      "midi": 65,
      "hit": false,
      "t": 78281.25,
      "d": 464.84375,
      "v": 1
    },
    {
      "midi": 67,
      "hit": false,
      "t": 78281.25,
      "d": 464.84375,
      "v": 1
    },
    {
      "midi": 82,
      "hit": false,
      "t": 78750,
      "d": 230.46875,
      "v": 57
    },
    {
      "midi": 86,
      "hit": false,
      "t": 78750,
      "d": 259.765625,
      "v": 66
    },
    {
      "midi": 89,
      "hit": false,
      "t": 78750,
      "d": 289.0625,
      "v": 70
    },
    {
      "midi": 62,
      "hit": false,
      "t": 78750,
      "d": 2808.59375,
      "v": 1
    },
    {
      "midi": 65,
      "hit": false,
      "t": 78750,
      "d": 2808.59375,
      "v": 1
    },
    {
      "midi": 70,
      "hit": false,
      "t": 78750,
      "d": 2808.59375,
      "v": 1
    },
    {
      "midi": 82,
      "hit": false,
      "t": 79218.75,
      "d": 166.015625,
      "v": 50
    },
    {
      "midi": 86,
      "hit": false,
      "t": 79218.75,
      "d": 171.875,
      "v": 66
    },
    {
      "midi": 89,
      "hit": false,
      "t": 79218.75,
      "d": 214.84375,
      "v": 61
    },
    {
      "midi": 82,
      "hit": false,
      "t": 79687.5,
      "d": 156.25,
      "v": 65
    },
    {
      "midi": 86,
      "hit": false,
      "t": 79687.5,
      "d": 162.109375,
      "v": 60
    },
    {
      "midi": 89,
      "hit": false,
      "t": 79687.5,
      "d": 195.3125,
      "v": 68
    },
    {
      "midi": 82,
      "hit": false,
      "t": 80156.25,
      "d": 191.40625,
      "v": 62
    },
    {
      "midi": 86,
      "hit": false,
      "t": 80156.25,
      "d": 195.3125,
      "v": 68
    },
    {
      "midi": 89,
      "hit": false,
      "t": 80156.25,
      "d": 224.609375,
      "v": 72
    },
    {
      "midi": 86,
      "hit": false,
      "t": 80625,
      "d": 191.40625,
      "v": 58
    },
    {
      "midi": 82,
      "hit": false,
      "t": 80625,
      "d": 195.3125,
      "v": 53
    },
    {
      "midi": 89,
      "hit": false,
      "t": 80625,
      "d": 214.84375,
      "v": 58
    },
    {
      "midi": 82,
      "hit": false,
      "t": 81093.75,
      "d": 146.484375,
      "v": 66
    },
    {
      "midi": 86,
      "hit": false,
      "t": 81093.75,
      "d": 146.484375,
      "v": 64
    },
    {
      "midi": 89,
      "hit": false,
      "t": 81093.75,
      "d": 152.34375,
      "v": 75
    },
    {
      "midi": 84,
      "hit": false,
      "t": 81562.5,
      "d": 185.546875,
      "v": 67
    },
    {
      "midi": 88,
      "hit": false,
      "t": 81562.5,
      "d": 230.46875,
      "v": 79
    },
    {
      "midi": 91,
      "hit": false,
      "t": 81562.5,
      "d": 240.234375,
      "v": 71
    },
    {
      "midi": 84,
      "hit": false,
      "t": 82031.25,
      "d": 156.25,
      "v": 51
    },
    {
      "midi": 88,
      "hit": false,
      "t": 82031.25,
      "d": 201.171875,
      "v": 63
    },
    {
      "midi": 91,
      "hit": false,
      "t": 82031.25,
      "d": 201.171875,
      "v": 59
    },
    {
      "midi": 84,
      "hit": false,
      "t": 82500,
      "d": 175.78125,
      "v": 46
    },
    {
      "midi": 88,
      "hit": false,
      "t": 82500,
      "d": 205.078125,
      "v": 63
    },
    {
      "midi": 91,
      "hit": false,
      "t": 82500,
      "d": 230.46875,
      "v": 58
    },
    {
      "midi": 64,
      "hit": false,
      "t": 82500,
      "d": 1402.34375,
      "v": 1
    },
    {
      "midi": 67,
      "hit": false,
      "t": 82500,
      "d": 1402.34375,
      "v": 1
    },
    {
      "midi": 70,
      "hit": false,
      "t": 82500,
      "d": 1402.34375,
      "v": 1
    },
    {
      "midi": 84,
      "hit": false,
      "t": 82968.75,
      "d": 185.546875,
      "v": 59
    },
    {
      "midi": 88,
      "hit": false,
      "t": 82968.75,
      "d": 214.84375,
      "v": 70
    },
    {
      "midi": 91,
      "hit": false,
      "t": 82968.75,
      "d": 253.90625,
      "v": 65
    },
    {
      "midi": 88,
      "hit": false,
      "t": 83437.5,
      "d": 152.34375,
      "v": 60
    },
    {
      "midi": 84,
      "hit": false,
      "t": 83437.5,
      "d": 171.875,
      "v": 44
    },
    {
      "midi": 91,
      "hit": false,
      "t": 83437.5,
      "d": 195.3125,
      "v": 61
    },
    {
      "midi": 88,
      "hit": false,
      "t": 83906.25,
      "d": 191.40625,
      "v": 69
    },
    {
      "midi": 84,
      "hit": false,
      "t": 83906.25,
      "d": 195.3125,
      "v": 48
    },
    {
      "midi": 91,
      "hit": false,
      "t": 83906.25,
      "d": 224.609375,
      "v": 59
    },
    {
      "midi": 60,
      "hit": false,
      "t": 83906.25,
      "d": 464.84375,
      "v": 1
    },
    {
      "midi": 64,
      "hit": false,
      "t": 83906.25,
      "d": 464.84375,
      "v": 1
    },
    {
      "midi": 67,
      "hit": false,
      "t": 83906.25,
      "d": 464.84375,
      "v": 1
    },
    {
      "midi": 84,
      "hit": false,
      "t": 84375,
      "d": 171.875,
      "v": 62
    },
    {
      "midi": 88,
      "hit": false,
      "t": 84375,
      "d": 185.546875,
      "v": 73
    },
    {
      "midi": 91,
      "hit": false,
      "t": 84375,
      "d": 250,
      "v": 71
    },
    {
      "midi": 64,
      "hit": false,
      "t": 84375,
      "d": 2808.59375,
      "v": 1
    },
    {
      "midi": 67,
      "hit": false,
      "t": 84375,
      "d": 2808.59375,
      "v": 1
    },
    {
      "midi": 70,
      "hit": false,
      "t": 84375,
      "d": 2808.59375,
      "v": 1
    },
    {
      "midi": 88,
      "hit": false,
      "t": 84843.75,
      "d": 156.25,
      "v": 65
    },
    {
      "midi": 84,
      "hit": false,
      "t": 84843.75,
      "d": 166.015625,
      "v": 57
    },
    {
      "midi": 91,
      "hit": false,
      "t": 84843.75,
      "d": 240.234375,
      "v": 73
    },
    {
      "midi": 84,
      "hit": false,
      "t": 85312.5,
      "d": 185.546875,
      "v": 49
    },
    {
      "midi": 88,
      "hit": false,
      "t": 85312.5,
      "d": 185.546875,
      "v": 65
    },
    {
      "midi": 91,
      "hit": false,
      "t": 85312.5,
      "d": 253.90625,
      "v": 57
    },
    {
      "midi": 84,
      "hit": false,
      "t": 85781.25,
      "d": 175.78125,
      "v": 56
    },
    {
      "midi": 88,
      "hit": false,
      "t": 85781.25,
      "d": 175.78125,
      "v": 66
    },
    {
      "midi": 91,
      "hit": false,
      "t": 85781.25,
      "d": 259.765625,
      "v": 57
    },
    {
      "midi": 88,
      "hit": false,
      "t": 86250,
      "d": 152.34375,
      "v": 71
    },
    {
      "midi": 84,
      "hit": false,
      "t": 86250,
      "d": 156.25,
      "v": 54
    },
    {
      "midi": 91,
      "hit": false,
      "t": 86250,
      "d": 224.609375,
      "v": 67
    },
    {
      "midi": 88,
      "hit": false,
      "t": 86718.75,
      "d": 166.015625,
      "v": 70
    },
    {
      "midi": 84,
      "hit": false,
      "t": 86718.75,
      "d": 175.78125,
      "v": 58
    },
    {
      "midi": 91,
      "hit": false,
      "t": 86718.75,
      "d": 298.828125,
      "v": 58
    },
    {
      "midi": 87,
      "hit": false,
      "t": 87187.5,
      "d": 136.71875,
      "v": 68
    },
    {
      "midi": 90,
      "hit": false,
      "t": 87187.5,
      "d": 142.578125,
      "v": 73
    },
    {
      "midi": 94,
      "hit": false,
      "t": 87187.5,
      "d": 195.3125,
      "v": 73
    },
    {
      "midi": 87,
      "hit": false,
      "t": 87656.25,
      "d": 175.78125,
      "v": 52
    },
    {
      "midi": 90,
      "hit": false,
      "t": 87656.25,
      "d": 185.546875,
      "v": 65
    },
    {
      "midi": 94,
      "hit": false,
      "t": 87656.25,
      "d": 214.84375,
      "v": 52
    },
    {
      "midi": 60,
      "hit": false,
      "t": 87656.25,
      "d": 2339.84375,
      "v": 1
    },
    {
      "midi": 63,
      "hit": false,
      "t": 87656.25,
      "d": 2339.84375,
      "v": 1
    },
    {
      "midi": 66,
      "hit": false,
      "t": 87656.25,
      "d": 2339.84375,
      "v": 1
    },
    {
      "midi": 70,
      "hit": false,
      "t": 87656.25,
      "d": 2339.84375,
      "v": 1
    },
    {
      "midi": 87,
      "hit": false,
      "t": 88125,
      "d": 166.015625,
      "v": 59
    },
    {
      "midi": 90,
      "hit": false,
      "t": 88125,
      "d": 166.015625,
      "v": 60
    },
    {
      "midi": 94,
      "hit": false,
      "t": 88125,
      "d": 210.9375,
      "v": 57
    },
    {
      "midi": 90,
      "hit": false,
      "t": 88593.75,
      "d": 166.015625,
      "v": 62
    },
    {
      "midi": 87,
      "hit": false,
      "t": 88593.75,
      "d": 171.875,
      "v": 64
    },
    {
      "midi": 94,
      "hit": false,
      "t": 88593.75,
      "d": 210.9375,
      "v": 67
    },
    {
      "midi": 90,
      "hit": false,
      "t": 89062.5,
      "d": 181.640625,
      "v": 61
    },
    {
      "midi": 87,
      "hit": false,
      "t": 89062.5,
      "d": 195.3125,
      "v": 49
    },
    {
      "midi": 94,
      "hit": false,
      "t": 89062.5,
      "d": 234.375,
      "v": 53
    },
    {
      "midi": 90,
      "hit": false,
      "t": 89531.25,
      "d": 175.78125,
      "v": 68
    },
    {
      "midi": 87,
      "hit": false,
      "t": 89531.25,
      "d": 181.640625,
      "v": 58
    },
    {
      "midi": 94,
      "hit": false,
      "t": 89531.25,
      "d": 244.140625,
      "v": 57
    },
    {
      "midi": 87,
      "hit": false,
      "t": 90000,
      "d": 136.71875,
      "v": 67
    },
    {
      "midi": 89,
      "hit": false,
      "t": 90000,
      "d": 142.578125,
      "v": 65
    },
    {
      "midi": 93,
      "hit": false,
      "t": 90000,
      "d": 195.3125,
      "v": 74
    },
    {
      "midi": 63,
      "hit": false,
      "t": 90000,
      "d": 933.59375,
      "v": 1
    },
    {
      "midi": 65,
      "hit": false,
      "t": 90000,
      "d": 933.59375,
      "v": 1
    },
    {
      "midi": 69,
      "hit": false,
      "t": 90000,
      "d": 933.59375,
      "v": 1
    },
    {
      "midi": 80,
      "hit": false,
      "t": 92812.5,
      "d": 185.546875,
      "v": 62
    },
    {
      "midi": 86,
      "hit": false,
      "t": 92812.5,
      "d": 230.46875,
      "v": 75
    },
    {
      "midi": 89,
      "hit": false,
      "t": 92812.5,
      "d": 240.234375,
      "v": 72
    },
    {
      "midi": 80,
      "hit": false,
      "t": 93281.25,
      "d": 156.25,
      "v": 50
    },
    {
      "midi": 86,
      "hit": false,
      "t": 93281.25,
      "d": 201.171875,
      "v": 61
    },
    {
      "midi": 89,
      "hit": false,
      "t": 93281.25,
      "d": 201.171875,
      "v": 63
    },
    {
      "midi": 80,
      "hit": false,
      "t": 93750,
      "d": 175.78125,
      "v": 45
    },
    {
      "midi": 86,
      "hit": false,
      "t": 93750,
      "d": 205.078125,
      "v": 63
    },
    {
      "midi": 89,
      "hit": false,
      "t": 93750,
      "d": 230.46875,
      "v": 65
    },
    {
      "midi": 62,
      "hit": false,
      "t": 93750,
      "d": 933.59375,
      "v": 1
    },
    {
      "midi": 65,
      "hit": false,
      "t": 93750,
      "d": 933.59375,
      "v": 1
    },
    {
      "midi": 80,
      "hit": false,
      "t": 94218.75,
      "d": 185.546875,
      "v": 56
    },
    {
      "midi": 86,
      "hit": false,
      "t": 94218.75,
      "d": 214.84375,
      "v": 67
    },
    {
      "midi": 89,
      "hit": false,
      "t": 94218.75,
      "d": 253.90625,
      "v": 63
    },
    {
      "midi": 86,
      "hit": false,
      "t": 94687.5,
      "d": 152.34375,
      "v": 63
    },
    {
      "midi": 80,
      "hit": false,
      "t": 94687.5,
      "d": 171.875,
      "v": 47
    },
    {
      "midi": 89,
      "hit": false,
      "t": 94687.5,
      "d": 195.3125,
      "v": 55
    },
    {
      "midi": 60,
      "hit": false,
      "t": 94687.5,
      "d": 464.84375,
      "v": 1
    },
    {
      "midi": 63,
      "hit": false,
      "t": 94687.5,
      "d": 464.84375,
      "v": 1
    },
    {
      "midi": 86,
      "hit": false,
      "t": 95156.25,
      "d": 191.40625,
      "v": 66
    },
    {
      "midi": 80,
      "hit": false,
      "t": 95156.25,
      "d": 195.3125,
      "v": 48
    },
    {
      "midi": 89,
      "hit": false,
      "t": 95156.25,
      "d": 224.609375,
      "v": 59
    },
    {
      "midi": 58,
      "hit": false,
      "t": 95156.25,
      "d": 464.84375,
      "v": 1
    },
    {
      "midi": 62,
      "hit": false,
      "t": 95156.25,
      "d": 464.84375,
      "v": 1
    },
    {
      "midi": 80,
      "hit": false,
      "t": 95625,
      "d": 171.875,
      "v": 65
    },
    {
      "midi": 86,
      "hit": false,
      "t": 95625,
      "d": 185.546875,
      "v": 75
    },
    {
      "midi": 89,
      "hit": false,
      "t": 95625,
      "d": 250,
      "v": 71
    },
    {
      "midi": 62,
      "hit": false,
      "t": 95625,
      "d": 933.59375,
      "v": 1
    },
    {
      "midi": 65,
      "hit": false,
      "t": 95625,
      "d": 933.59375,
      "v": 1
    },
    {
      "midi": 86,
      "hit": false,
      "t": 96093.75,
      "d": 156.25,
      "v": 69
    },
    {
      "midi": 80,
      "hit": false,
      "t": 96093.75,
      "d": 166.015625,
      "v": 58
    },
    {
      "midi": 89,
      "hit": false,
      "t": 96093.75,
      "d": 240.234375,
      "v": 72
    },
    {
      "midi": 80,
      "hit": false,
      "t": 96562.5,
      "d": 185.546875,
      "v": 45
    },
    {
      "midi": 86,
      "hit": false,
      "t": 96562.5,
      "d": 185.546875,
      "v": 59
    },
    {
      "midi": 89,
      "hit": false,
      "t": 96562.5,
      "d": 253.90625,
      "v": 56
    },
    {
      "midi": 80,
      "hit": false,
      "t": 97031.25,
      "d": 175.78125,
      "v": 55
    },
    {
      "midi": 86,
      "hit": false,
      "t": 97031.25,
      "d": 175.78125,
      "v": 68
    },
    {
      "midi": 89,
      "hit": false,
      "t": 97031.25,
      "d": 259.765625,
      "v": 62
    },
    {
      "midi": 86,
      "hit": false,
      "t": 97500,
      "d": 152.34375,
      "v": 68
    },
    {
      "midi": 80,
      "hit": false,
      "t": 97500,
      "d": 156.25,
      "v": 54
    },
    {
      "midi": 89,
      "hit": false,
      "t": 97500,
      "d": 224.609375,
      "v": 68
    },
    {
      "midi": 86,
      "hit": false,
      "t": 97968.75,
      "d": 166.015625,
      "v": 66
    },
    {
      "midi": 80,
      "hit": false,
      "t": 97968.75,
      "d": 175.78125,
      "v": 58
    },
    {
      "midi": 89,
      "hit": false,
      "t": 97968.75,
      "d": 298.828125,
      "v": 58
    },
    {
      "midi": 82,
      "hit": false,
      "t": 98437.5,
      "d": 136.71875,
      "v": 73
    },
    {
      "midi": 87,
      "hit": false,
      "t": 98437.5,
      "d": 142.578125,
      "v": 68
    },
    {
      "midi": 91,
      "hit": false,
      "t": 98437.5,
      "d": 195.3125,
      "v": 73
    },
    {
      "midi": 82,
      "hit": false,
      "t": 98906.25,
      "d": 175.78125,
      "v": 56
    },
    {
      "midi": 87,
      "hit": false,
      "t": 98906.25,
      "d": 185.546875,
      "v": 60
    },
    {
      "midi": 91,
      "hit": false,
      "t": 98906.25,
      "d": 214.84375,
      "v": 59
    },
    {
      "midi": 82,
      "hit": false,
      "t": 99375,
      "d": 166.015625,
      "v": 52
    },
    {
      "midi": 87,
      "hit": false,
      "t": 99375,
      "d": 166.015625,
      "v": 56
    },
    {
      "midi": 91,
      "hit": false,
      "t": 99375,
      "d": 210.9375,
      "v": 58
    },
    {
      "midi": 63,
      "hit": false,
      "t": 99375,
      "d": 933.59375,
      "v": 1
    },
    {
      "midi": 67,
      "hit": false,
      "t": 99375,
      "d": 933.59375,
      "v": 1
    },
    {
      "midi": 87,
      "hit": false,
      "t": 99843.75,
      "d": 166.015625,
      "v": 58
    },
    {
      "midi": 82,
      "hit": false,
      "t": 99843.75,
      "d": 171.875,
      "v": 65
    },
    {
      "midi": 91,
      "hit": false,
      "t": 99843.75,
      "d": 210.9375,
      "v": 67
    },
    {
      "midi": 87,
      "hit": false,
      "t": 100312.5,
      "d": 181.640625,
      "v": 56
    },
    {
      "midi": 82,
      "hit": false,
      "t": 100312.5,
      "d": 195.3125,
      "v": 45
    },
    {
      "midi": 91,
      "hit": false,
      "t": 100312.5,
      "d": 234.375,
      "v": 54
    },
    {
      "midi": 62,
      "hit": false,
      "t": 100312.5,
      "d": 464.84375,
      "v": 1
    },
    {
      "midi": 65,
      "hit": false,
      "t": 100312.5,
      "d": 464.84375,
      "v": 1
    },
    {
      "midi": 87,
      "hit": false,
      "t": 100781.25,
      "d": 175.78125,
      "v": 68
    },
    {
      "midi": 82,
      "hit": false,
      "t": 100781.25,
      "d": 181.640625,
      "v": 52
    },
    {
      "midi": 91,
      "hit": false,
      "t": 100781.25,
      "d": 244.140625,
      "v": 51
    },
    {
      "midi": 60,
      "hit": false,
      "t": 100781.25,
      "d": 464.84375,
      "v": 1
    },
    {
      "midi": 63,
      "hit": false,
      "t": 100781.25,
      "d": 464.84375,
      "v": 1
    },
    {
      "midi": 82,
      "hit": false,
      "t": 101250,
      "d": 230.46875,
      "v": 63
    },
    {
      "midi": 87,
      "hit": false,
      "t": 101250,
      "d": 259.765625,
      "v": 68
    },
    {
      "midi": 91,
      "hit": false,
      "t": 101250,
      "d": 289.0625,
      "v": 66
    },
    {
      "midi": 63,
      "hit": false,
      "t": 101250,
      "d": 933.59375,
      "v": 1
    },
    {
      "midi": 67,
      "hit": false,
      "t": 101250,
      "d": 933.59375,
      "v": 1
    },
    {
      "midi": 82,
      "hit": false,
      "t": 101718.75,
      "d": 166.015625,
      "v": 57
    },
    {
      "midi": 87,
      "hit": false,
      "t": 101718.75,
      "d": 171.875,
      "v": 61
    },
    {
      "midi": 91,
      "hit": false,
      "t": 101718.75,
      "d": 214.84375,
      "v": 60
    },
    {
      "midi": 82,
      "hit": false,
      "t": 102187.5,
      "d": 156.25,
      "v": 61
    },
    {
      "midi": 87,
      "hit": false,
      "t": 102187.5,
      "d": 162.109375,
      "v": 62
    },
    {
      "midi": 91,
      "hit": false,
      "t": 102187.5,
      "d": 195.3125,
      "v": 64
    },
    {
      "midi": 82,
      "hit": false,
      "t": 102656.25,
      "d": 191.40625,
      "v": 58
    },
    {
      "midi": 87,
      "hit": false,
      "t": 102656.25,
      "d": 195.3125,
      "v": 59
    },
    {
      "midi": 91,
      "hit": false,
      "t": 102656.25,
      "d": 224.609375,
      "v": 67
    },
    {
      "midi": 87,
      "hit": false,
      "t": 103125,
      "d": 191.40625,
      "v": 54
    },
    {
      "midi": 82,
      "hit": false,
      "t": 103125,
      "d": 195.3125,
      "v": 54
    },
    {
      "midi": 91,
      "hit": false,
      "t": 103125,
      "d": 214.84375,
      "v": 61
    },
    {
      "midi": 82,
      "hit": false,
      "t": 103593.75,
      "d": 146.484375,
      "v": 69
    },
    {
      "midi": 87,
      "hit": false,
      "t": 103593.75,
      "d": 146.484375,
      "v": 64
    },
    {
      "midi": 91,
      "hit": false,
      "t": 103593.75,
      "d": 152.34375,
      "v": 71
    },
    {
      "midi": 84,
      "hit": false,
      "t": 104062.5,
      "d": 185.546875,
      "v": 60
    },
    {
      "midi": 87,
      "hit": false,
      "t": 104062.5,
      "d": 230.46875,
      "v": 71
    },
    {
      "midi": 93,
      "hit": false,
      "t": 104062.5,
      "d": 240.234375,
      "v": 66
    },
    {
      "midi": 84,
      "hit": false,
      "t": 104531.25,
      "d": 156.25,
      "v": 53
    },
    {
      "midi": 87,
      "hit": false,
      "t": 104531.25,
      "d": 201.171875,
      "v": 63
    },
    {
      "midi": 93,
      "hit": false,
      "t": 104531.25,
      "d": 201.171875,
      "v": 58
    },
    {
      "midi": 84,
      "hit": false,
      "t": 105000,
      "d": 175.78125,
      "v": 52
    },
    {
      "midi": 87,
      "hit": false,
      "t": 105000,
      "d": 205.078125,
      "v": 55
    },
    {
      "midi": 93,
      "hit": false,
      "t": 105000,
      "d": 230.46875,
      "v": 66
    },
    {
      "midi": 57,
      "hit": false,
      "t": 105000,
      "d": 933.59375,
      "v": 1
    },
    {
      "midi": 65,
      "hit": false,
      "t": 105000,
      "d": 933.59375,
      "v": 1
    },
    {
      "midi": 69,
      "hit": false,
      "t": 105000,
      "d": 933.59375,
      "v": 1
    },
    {
      "midi": 84,
      "hit": false,
      "t": 105468.75,
      "d": 185.546875,
      "v": 57
    },
    {
      "midi": 87,
      "hit": false,
      "t": 105468.75,
      "d": 214.84375,
      "v": 66
    },
    {
      "midi": 93,
      "hit": false,
      "t": 105468.75,
      "d": 253.90625,
      "v": 66
    },
    {
      "midi": 87,
      "hit": false,
      "t": 105937.5,
      "d": 152.34375,
      "v": 68
    },
    {
      "midi": 84,
      "hit": false,
      "t": 105937.5,
      "d": 171.875,
      "v": 51
    },
    {
      "midi": 93,
      "hit": false,
      "t": 105937.5,
      "d": 195.3125,
      "v": 56
    },
    {
      "midi": 55,
      "hit": false,
      "t": 105937.5,
      "d": 464.84375,
      "v": 1
    },
    {
      "midi": 63,
      "hit": false,
      "t": 105937.5,
      "d": 464.84375,
      "v": 1
    },
    {
      "midi": 67,
      "hit": false,
      "t": 105937.5,
      "d": 464.84375,
      "v": 1
    },
    {
      "midi": 87,
      "hit": false,
      "t": 106406.25,
      "d": 191.40625,
      "v": 68
    },
    {
      "midi": 84,
      "hit": false,
      "t": 106406.25,
      "d": 195.3125,
      "v": 54
    },
    {
      "midi": 93,
      "hit": false,
      "t": 106406.25,
      "d": 224.609375,
      "v": 63
    },
    {
      "midi": 53,
      "hit": false,
      "t": 106406.25,
      "d": 464.84375,
      "v": 1
    },
    {
      "midi": 62,
      "hit": false,
      "t": 106406.25,
      "d": 464.84375,
      "v": 1
    },
    {
      "midi": 65,
      "hit": false,
      "t": 106406.25,
      "d": 464.84375,
      "v": 1
    },
    {
      "midi": 84,
      "hit": false,
      "t": 106875,
      "d": 171.875,
      "v": 57
    },
    {
      "midi": 87,
      "hit": false,
      "t": 106875,
      "d": 185.546875,
      "v": 75
    },
    {
      "midi": 93,
      "hit": false,
      "t": 106875,
      "d": 250,
      "v": 66
    },
    {
      "midi": 57,
      "hit": false,
      "t": 106875,
      "d": 933.59375,
      "v": 1
    },
    {
      "midi": 65,
      "hit": false,
      "t": 106875,
      "d": 933.59375,
      "v": 1
    },
    {
      "midi": 69,
      "hit": false,
      "t": 106875,
      "d": 933.59375,
      "v": 1
    },
    {
      "midi": 87,
      "hit": false,
      "t": 107343.75,
      "d": 156.25,
      "v": 71
    },
    {
      "midi": 84,
      "hit": false,
      "t": 107343.75,
      "d": 166.015625,
      "v": 59
    },
    {
      "midi": 93,
      "hit": false,
      "t": 107343.75,
      "d": 240.234375,
      "v": 68
    },
    {
      "midi": 84,
      "hit": false,
      "t": 107812.5,
      "d": 185.546875,
      "v": 46
    },
    {
      "midi": 87,
      "hit": false,
      "t": 107812.5,
      "d": 185.546875,
      "v": 63
    },
    {
      "midi": 93,
      "hit": false,
      "t": 107812.5,
      "d": 253.90625,
      "v": 59
    },
    {
      "midi": 84,
      "hit": false,
      "t": 108281.25,
      "d": 175.78125,
      "v": 59
    },
    {
      "midi": 87,
      "hit": false,
      "t": 108281.25,
      "d": 175.78125,
      "v": 70
    },
    {
      "midi": 93,
      "hit": false,
      "t": 108281.25,
      "d": 259.765625,
      "v": 57
    },
    {
      "midi": 87,
      "hit": false,
      "t": 108750,
      "d": 152.34375,
      "v": 72
    },
    {
      "midi": 84,
      "hit": false,
      "t": 108750,
      "d": 156.25,
      "v": 56
    },
    {
      "midi": 93,
      "hit": false,
      "t": 108750,
      "d": 224.609375,
      "v": 65
    },
    {
      "midi": 87,
      "hit": false,
      "t": 109218.75,
      "d": 166.015625,
      "v": 66
    },
    {
      "midi": 84,
      "hit": false,
      "t": 109218.75,
      "d": 175.78125,
      "v": 50
    },
    {
      "midi": 93,
      "hit": false,
      "t": 109218.75,
      "d": 298.828125,
      "v": 55
    },
    {
      "midi": 86,
      "hit": false,
      "t": 109687.5,
      "d": 136.71875,
      "v": 70
    },
    {
      "midi": 89,
      "hit": false,
      "t": 109687.5,
      "d": 142.578125,
      "v": 64
    },
    {
      "midi": 94,
      "hit": false,
      "t": 109687.5,
      "d": 195.3125,
      "v": 72
    },
    {
      "midi": 86,
      "hit": false,
      "t": 110156.25,
      "d": 175.78125,
      "v": 57
    },
    {
      "midi": 89,
      "hit": false,
      "t": 110156.25,
      "d": 185.546875,
      "v": 61
    },
    {
      "midi": 94,
      "hit": false,
      "t": 110156.25,
      "d": 214.84375,
      "v": 56
    },
    {
      "midi": 58,
      "hit": false,
      "t": 110156.25,
      "d": 933.59375,
      "v": 1
    },
    {
      "midi": 62,
      "hit": false,
      "t": 110156.25,
      "d": 933.59375,
      "v": 1
    },
    {
      "midi": 65,
      "hit": false,
      "t": 110156.25,
      "d": 933.59375,
      "v": 1
    },
    {
      "midi": 70,
      "hit": false,
      "t": 110156.25,
      "d": 933.59375,
      "v": 1
    },
    {
      "midi": 86,
      "hit": false,
      "t": 110625,
      "d": 166.015625,
      "v": 59
    },
    {
      "midi": 89,
      "hit": false,
      "t": 110625,
      "d": 166.015625,
      "v": 52
    },
    {
      "midi": 94,
      "hit": false,
      "t": 110625,
      "d": 210.9375,
      "v": 57
    },
    {
      "midi": 91,
      "hit": false,
      "t": 111093.75,
      "d": 166.015625,
      "v": 62
    },
    {
      "midi": 87,
      "hit": false,
      "t": 111093.75,
      "d": 171.875,
      "v": 60
    },
    {
      "midi": 94,
      "hit": false,
      "t": 111093.75,
      "d": 210.9375,
      "v": 61
    },
    {
      "midi": 58,
      "hit": false,
      "t": 111093.75,
      "d": 1402.34375,
      "v": 1
    },
    {
      "midi": 63,
      "hit": false,
      "t": 111093.75,
      "d": 1402.34375,
      "v": 1
    },
    {
      "midi": 67,
      "hit": false,
      "t": 111093.75,
      "d": 1402.34375,
      "v": 1
    },
    {
      "midi": 70,
      "hit": false,
      "t": 111093.75,
      "d": 1402.34375,
      "v": 1
    },
    {
      "midi": 91,
      "hit": false,
      "t": 111562.5,
      "d": 181.640625,
      "v": 56
    },
    {
      "midi": 87,
      "hit": false,
      "t": 111562.5,
      "d": 195.3125,
      "v": 47
    },
    {
      "midi": 94,
      "hit": false,
      "t": 111562.5,
      "d": 234.375,
      "v": 54
    },
    {
      "midi": 91,
      "hit": false,
      "t": 112031.25,
      "d": 175.78125,
      "v": 67
    },
    {
      "midi": 87,
      "hit": false,
      "t": 112031.25,
      "d": 181.640625,
      "v": 56
    },
    {
      "midi": 94,
      "hit": false,
      "t": 112031.25,
      "d": 244.140625,
      "v": 53
    },
    {
      "midi": 86,
      "hit": false,
      "t": 112500,
      "d": 136.71875,
      "v": 70
    },
    {
      "midi": 89,
      "hit": false,
      "t": 112500,
      "d": 142.578125,
      "v": 65
    },
    {
      "midi": 94,
      "hit": false,
      "t": 112500,
      "d": 195.3125,
      "v": 70
    },
    {
      "midi": 58,
      "hit": false,
      "t": 112500,
      "d": 2808.59375,
      "v": 1
    },
    {
      "midi": 62,
      "hit": false,
      "t": 112500,
      "d": 2808.59375,
      "v": 1
    },
    {
      "midi": 65,
      "hit": false,
      "t": 112500,
      "d": 2808.59375,
      "v": 1
    },
    {
      "midi": 70,
      "hit": false,
      "t": 112500,
      "d": 2808.59375,
      "v": 1
    },
    {
      "midi": 86,
      "hit": false,
      "t": 112968.75,
      "d": 175.78125,
      "v": 60
    },
    {
      "midi": 89,
      "hit": false,
      "t": 112968.75,
      "d": 185.546875,
      "v": 60
    },
    {
      "midi": 94,
      "hit": false,
      "t": 112968.75,
      "d": 214.84375,
      "v": 54
    },
    {
      "midi": 86,
      "hit": false,
      "t": 113437.5,
      "d": 166.015625,
      "v": 51
    },
    {
      "midi": 89,
      "hit": false,
      "t": 113437.5,
      "d": 166.015625,
      "v": 52
    },
    {
      "midi": 94,
      "hit": false,
      "t": 113437.5,
      "d": 210.9375,
      "v": 53
    },
    {
      "midi": 89,
      "hit": false,
      "t": 113906.25,
      "d": 166.015625,
      "v": 65
    },
    {
      "midi": 86,
      "hit": false,
      "t": 113906.25,
      "d": 171.875,
      "v": 64
    },
    {
      "midi": 94,
      "hit": false,
      "t": 113906.25,
      "d": 210.9375,
      "v": 60
    },
    {
      "midi": 89,
      "hit": false,
      "t": 114375,
      "d": 181.640625,
      "v": 52
    },
    {
      "midi": 86,
      "hit": false,
      "t": 114375,
      "d": 195.3125,
      "v": 45
    },
    {
      "midi": 94,
      "hit": false,
      "t": 114375,
      "d": 234.375,
      "v": 53
    },
    {
      "midi": 89,
      "hit": false,
      "t": 114843.75,
      "d": 175.78125,
      "v": 61
    },
    {
      "midi": 86,
      "hit": false,
      "t": 114843.75,
      "d": 181.640625,
      "v": 54
    },
    {
      "midi": 94,
      "hit": false,
      "t": 114843.75,
      "d": 244.140625,
      "v": 54
    },
    {
      "midi": 82,
      "hit": false,
      "t": 115312.5,
      "d": 185.546875,
      "v": 60
    },
    {
      "midi": 86,
      "hit": false,
      "t": 115312.5,
      "d": 230.46875,
      "v": 75
    },
    {
      "midi": 89,
      "hit": false,
      "t": 115312.5,
      "d": 240.234375,
      "v": 69
    },
    {
      "midi": 82,
      "hit": false,
      "t": 115781.25,
      "d": 156.25,
      "v": 53
    },
    {
      "midi": 86,
      "hit": false,
      "t": 115781.25,
      "d": 201.171875,
      "v": 67
    },
    {
      "midi": 89,
      "hit": false,
      "t": 115781.25,
      "d": 201.171875,
      "v": 64
    },
    {
      "midi": 82,
      "hit": false,
      "t": 116250,
      "d": 175.78125,
      "v": 47
    },
    {
      "midi": 86,
      "hit": false,
      "t": 116250,
      "d": 205.078125,
      "v": 57
    },
    {
      "midi": 89,
      "hit": false,
      "t": 116250,
      "d": 230.46875,
      "v": 58
    },
    {
      "midi": 82,
      "hit": false,
      "t": 116718.75,
      "d": 185.546875,
      "v": 53
    },
    {
      "midi": 86,
      "hit": false,
      "t": 116718.75,
      "d": 214.84375,
      "v": 63
    },
    {
      "midi": 89,
      "hit": false,
      "t": 116718.75,
      "d": 253.90625,
      "v": 63
    },
    {
      "midi": 86,
      "hit": false,
      "t": 117187.5,
      "d": 152.34375,
      "v": 61
    },
    {
      "midi": 82,
      "hit": false,
      "t": 117187.5,
      "d": 171.875,
      "v": 45
    },
    {
      "midi": 89,
      "hit": false,
      "t": 117187.5,
      "d": 195.3125,
      "v": 63
    },
    {
      "midi": 86,
      "hit": false,
      "t": 117656.25,
      "d": 191.40625,
      "v": 69
    },
    {
      "midi": 82,
      "hit": false,
      "t": 117656.25,
      "d": 195.3125,
      "v": 47
    },
    {
      "midi": 89,
      "hit": false,
      "t": 117656.25,
      "d": 224.609375,
      "v": 59
    },
    {
      "midi": 82,
      "hit": false,
      "t": 118125,
      "d": 171.875,
      "v": 64
    },
    {
      "midi": 86,
      "hit": false,
      "t": 118125,
      "d": 185.546875,
      "v": 76
    },
    {
      "midi": 89,
      "hit": false,
      "t": 118125,
      "d": 250,
      "v": 67
    },
    {
      "midi": 86,
      "hit": false,
      "t": 118593.75,
      "d": 156.25,
      "v": 68
    },
    {
      "midi": 82,
      "hit": false,
      "t": 118593.75,
      "d": 166.015625,
      "v": 56
    },
    {
      "midi": 89,
      "hit": false,
      "t": 118593.75,
      "d": 240.234375,
      "v": 70
    },
    {
      "midi": 82,
      "hit": false,
      "t": 119062.5,
      "d": 185.546875,
      "v": 52
    },
    {
      "midi": 86,
      "hit": false,
      "t": 119062.5,
      "d": 185.546875,
      "v": 67
    },
    {
      "midi": 89,
      "hit": false,
      "t": 119062.5,
      "d": 253.90625,
      "v": 54
    },
    {
      "midi": 82,
      "hit": false,
      "t": 119531.25,
      "d": 175.78125,
      "v": 52
    },
    {
      "midi": 86,
      "hit": false,
      "t": 119531.25,
      "d": 175.78125,
      "v": 66
    },
    {
      "midi": 89,
      "hit": false,
      "t": 119531.25,
      "d": 259.765625,
      "v": 65
    },
    {
      "midi": 86,
      "hit": false,
      "t": 120000,
      "d": 152.34375,
      "v": 70
    },
    {
      "midi": 82,
      "hit": false,
      "t": 120000,
      "d": 156.25,
      "v": 59
    },
    {
      "midi": 89,
      "hit": false,
      "t": 120000,
      "d": 224.609375,
      "v": 65
    },
    {
      "midi": 86,
      "hit": false,
      "t": 120468.75,
      "d": 166.015625,
      "v": 67
    },
    {
      "midi": 82,
      "hit": false,
      "t": 120468.75,
      "d": 175.78125,
      "v": 59
    },
    {
      "midi": 89,
      "hit": false,
      "t": 120468.75,
      "d": 298.828125,
      "v": 58
    },
    {
      "midi": 84,
      "hit": false,
      "t": 120937.5,
      "d": 136.71875,
      "v": 69
    },
    {
      "midi": 87,
      "hit": false,
      "t": 120937.5,
      "d": 142.578125,
      "v": 71
    },
    {
      "midi": 91,
      "hit": false,
      "t": 120937.5,
      "d": 195.3125,
      "v": 70
    },
    {
      "midi": 84,
      "hit": false,
      "t": 121406.25,
      "d": 175.78125,
      "v": 57
    },
    {
      "midi": 87,
      "hit": false,
      "t": 121406.25,
      "d": 185.546875,
      "v": 62
    },
    {
      "midi": 91,
      "hit": false,
      "t": 121406.25,
      "d": 214.84375,
      "v": 58
    },
    {
      "midi": 84,
      "hit": false,
      "t": 121875,
      "d": 166.015625,
      "v": 53
    },
    {
      "midi": 87,
      "hit": false,
      "t": 121875,
      "d": 166.015625,
      "v": 52
    },
    {
      "midi": 91,
      "hit": false,
      "t": 121875,
      "d": 210.9375,
      "v": 56
    },
    {
      "midi": 87,
      "hit": false,
      "t": 122343.75,
      "d": 166.015625,
      "v": 61
    },
    {
      "midi": 84,
      "hit": false,
      "t": 122343.75,
      "d": 171.875,
      "v": 64
    },
    {
      "midi": 91,
      "hit": false,
      "t": 122343.75,
      "d": 210.9375,
      "v": 63
    },
    {
      "midi": 87,
      "hit": false,
      "t": 122812.5,
      "d": 181.640625,
      "v": 59
    },
    {
      "midi": 84,
      "hit": false,
      "t": 122812.5,
      "d": 195.3125,
      "v": 47
    },
    {
      "midi": 91,
      "hit": false,
      "t": 122812.5,
      "d": 234.375,
      "v": 48
    },
    {
      "midi": 87,
      "hit": false,
      "t": 123281.25,
      "d": 175.78125,
      "v": 63
    },
    {
      "midi": 84,
      "hit": false,
      "t": 123281.25,
      "d": 181.640625,
      "v": 61
    },
    {
      "midi": 91,
      "hit": false,
      "t": 123281.25,
      "d": 244.140625,
      "v": 51
    },
    {
      "midi": 84,
      "hit": false,
      "t": 123750,
      "d": 230.46875,
      "v": 57
    },
    {
      "midi": 87,
      "hit": false,
      "t": 123750,
      "d": 259.765625,
      "v": 63
    },
    {
      "midi": 93,
      "hit": false,
      "t": 123750,
      "d": 289.0625,
      "v": 63
    },
    {
      "midi": 84,
      "hit": false,
      "t": 124218.75,
      "d": 166.015625,
      "v": 58
    },
    {
      "midi": 87,
      "hit": false,
      "t": 124218.75,
      "d": 171.875,
      "v": 63
    },
    {
      "midi": 93,
      "hit": false,
      "t": 124218.75,
      "d": 214.84375,
      "v": 65
    },
    {
      "midi": 84,
      "hit": false,
      "t": 124687.5,
      "d": 156.25,
      "v": 59
    },
    {
      "midi": 87,
      "hit": false,
      "t": 124687.5,
      "d": 162.109375,
      "v": 67
    },
    {
      "midi": 93,
      "hit": false,
      "t": 124687.5,
      "d": 195.3125,
      "v": 64
    },
    {
      "midi": 84,
      "hit": false,
      "t": 125156.25,
      "d": 191.40625,
      "v": 56
    },
    {
      "midi": 87,
      "hit": false,
      "t": 125156.25,
      "d": 195.3125,
      "v": 66
    },
    {
      "midi": 93,
      "hit": false,
      "t": 125156.25,
      "d": 224.609375,
      "v": 70
    },
    {
      "midi": 87,
      "hit": false,
      "t": 125625,
      "d": 191.40625,
      "v": 60
    },
    {
      "midi": 84,
      "hit": false,
      "t": 125625,
      "d": 195.3125,
      "v": 60
    },
    {
      "midi": 93,
      "hit": false,
      "t": 125625,
      "d": 214.84375,
      "v": 66
    },
    {
      "midi": 84,
      "hit": false,
      "t": 126093.75,
      "d": 146.484375,
      "v": 65
    },
    {
      "midi": 87,
      "hit": false,
      "t": 126093.75,
      "d": 146.484375,
      "v": 65
    },
    {
      "midi": 93,
      "hit": false,
      "t": 126093.75,
      "d": 152.34375,
      "v": 69
    },
    {
      "midi": 84,
      "hit": false,
      "t": 126562.5,
      "d": 185.546875,
      "v": 61
    },
    {
      "midi": 87,
      "hit": false,
      "t": 126562.5,
      "d": 230.46875,
      "v": 73
    },
    {
      "midi": 91,
      "hit": false,
      "t": 126562.5,
      "d": 240.234375,
      "v": 70
    },
    {
      "midi": 84,
      "hit": false,
      "t": 127031.25,
      "d": 156.25,
      "v": 57
    },
    {
      "midi": 87,
      "hit": false,
      "t": 127031.25,
      "d": 201.171875,
      "v": 70
    },
    {
      "midi": 91,
      "hit": false,
      "t": 127031.25,
      "d": 201.171875,
      "v": 59
    },
    {
      "midi": 84,
      "hit": false,
      "t": 127500,
      "d": 175.78125,
      "v": 49
    },
    {
      "midi": 87,
      "hit": false,
      "t": 127500,
      "d": 205.078125,
      "v": 57
    },
    {
      "midi": 91,
      "hit": false,
      "t": 127500,
      "d": 230.46875,
      "v": 58
    },
    {
      "midi": 84,
      "hit": false,
      "t": 127968.75,
      "d": 185.546875,
      "v": 52
    },
    {
      "midi": 87,
      "hit": false,
      "t": 127968.75,
      "d": 214.84375,
      "v": 64
    },
    {
      "midi": 91,
      "hit": false,
      "t": 127968.75,
      "d": 253.90625,
      "v": 61
    },
    {
      "midi": 87,
      "hit": false,
      "t": 128437.5,
      "d": 152.34375,
      "v": 59
    },
    {
      "midi": 84,
      "hit": false,
      "t": 128437.5,
      "d": 171.875,
      "v": 46
    },
    {
      "midi": 91,
      "hit": false,
      "t": 128437.5,
      "d": 195.3125,
      "v": 54
    },
    {
      "midi": 87,
      "hit": false,
      "t": 128906.25,
      "d": 191.40625,
      "v": 65
    },
    {
      "midi": 84,
      "hit": false,
      "t": 128906.25,
      "d": 195.3125,
      "v": 55
    },
    {
      "midi": 91,
      "hit": false,
      "t": 128906.25,
      "d": 224.609375,
      "v": 55
    },
    {
      "midi": 84,
      "hit": false,
      "t": 129375,
      "d": 171.875,
      "v": 64
    },
    {
      "midi": 87,
      "hit": false,
      "t": 129375,
      "d": 185.546875,
      "v": 76
    },
    {
      "midi": 93,
      "hit": false,
      "t": 129375,
      "d": 250,
      "v": 73
    },
    {
      "midi": 87,
      "hit": false,
      "t": 129843.75,
      "d": 156.25,
      "v": 66
    },
    {
      "midi": 84,
      "hit": false,
      "t": 129843.75,
      "d": 166.015625,
      "v": 56
    },
    {
      "midi": 93,
      "hit": false,
      "t": 129843.75,
      "d": 240.234375,
      "v": 64
    },
    {
      "midi": 84,
      "hit": false,
      "t": 130312.5,
      "d": 185.546875,
      "v": 52
    },
    {
      "midi": 87,
      "hit": false,
      "t": 130312.5,
      "d": 185.546875,
      "v": 68
    },
    {
      "midi": 93,
      "hit": false,
      "t": 130312.5,
      "d": 253.90625,
      "v": 59
    },
    {
      "midi": 84,
      "hit": false,
      "t": 130781.25,
      "d": 175.78125,
      "v": 52
    },
    {
      "midi": 87,
      "hit": false,
      "t": 130781.25,
      "d": 175.78125,
      "v": 64
    },
    {
      "midi": 93,
      "hit": false,
      "t": 130781.25,
      "d": 259.765625,
      "v": 64
    },
    {
      "midi": 87,
      "hit": false,
      "t": 131250,
      "d": 152.34375,
      "v": 67
    },
    {
      "midi": 84,
      "hit": false,
      "t": 131250,
      "d": 156.25,
      "v": 61
    },
    {
      "midi": 93,
      "hit": false,
      "t": 131250,
      "d": 224.609375,
      "v": 66
    },
    {
      "midi": 87,
      "hit": false,
      "t": 131718.75,
      "d": 166.015625,
      "v": 66
    },
    {
      "midi": 84,
      "hit": false,
      "t": 131718.75,
      "d": 175.78125,
      "v": 53
    },
    {
      "midi": 93,
      "hit": false,
      "t": 131718.75,
      "d": 298.828125,
      "v": 55
    },
    {
      "midi": 86,
      "hit": false,
      "t": 132187.5,
      "d": 136.71875,
      "v": 67
    },
    {
      "midi": 89,
      "hit": false,
      "t": 132187.5,
      "d": 142.578125,
      "v": 67
    },
    {
      "midi": 94,
      "hit": false,
      "t": 132187.5,
      "d": 195.3125,
      "v": 73
    },
    {
      "midi": 86,
      "hit": false,
      "t": 132656.25,
      "d": 175.78125,
      "v": 56
    },
    {
      "midi": 89,
      "hit": false,
      "t": 132656.25,
      "d": 185.546875,
      "v": 62
    },
    {
      "midi": 94,
      "hit": false,
      "t": 132656.25,
      "d": 214.84375,
      "v": 52
    },
    {
      "midi": 86,
      "hit": false,
      "t": 133125,
      "d": 166.015625,
      "v": 51
    },
    {
      "midi": 89,
      "hit": false,
      "t": 133125,
      "d": 166.015625,
      "v": 54
    },
    {
      "midi": 94,
      "hit": false,
      "t": 133125,
      "d": 210.9375,
      "v": 51
    },
    {
      "midi": 89,
      "hit": false,
      "t": 133593.75,
      "d": 166.015625,
      "v": 64
    },
    {
      "midi": 86,
      "hit": false,
      "t": 133593.75,
      "d": 171.875,
      "v": 64
    },
    {
      "midi": 94,
      "hit": false,
      "t": 133593.75,
      "d": 210.9375,
      "v": 59
    },
    {
      "midi": 89,
      "hit": false,
      "t": 134062.5,
      "d": 181.640625,
      "v": 61
    },
    {
      "midi": 86,
      "hit": false,
      "t": 134062.5,
      "d": 195.3125,
      "v": 53
    },
    {
      "midi": 94,
      "hit": false,
      "t": 134062.5,
      "d": 234.375,
      "v": 55
    },
    {
      "midi": 89,
      "hit": false,
      "t": 134531.25,
      "d": 175.78125,
      "v": 64
    },
    {
      "midi": 86,
      "hit": false,
      "t": 134531.25,
      "d": 181.640625,
      "v": 54
    },
    {
      "midi": 94,
      "hit": false,
      "t": 134531.25,
      "d": 244.140625,
      "v": 52
    },
    {
      "midi": 86,
      "hit": false,
      "t": 135000,
      "d": 136.71875,
      "v": 69
    },
    {
      "midi": 89,
      "hit": false,
      "t": 135000,
      "d": 142.578125,
      "v": 67
    },
    {
      "midi": 94,
      "hit": false,
      "t": 135000,
      "d": 195.3125,
      "v": 76
    },
    {
      "midi": 86,
      "hit": false,
      "t": 135468.75,
      "d": 175.78125,
      "v": 57
    },
    {
      "midi": 89,
      "hit": false,
      "t": 135468.75,
      "d": 185.546875,
      "v": 64
    },
    {
      "midi": 94,
      "hit": false,
      "t": 135468.75,
      "d": 214.84375,
      "v": 54
    },
    {
      "midi": 86,
      "hit": false,
      "t": 135937.5,
      "d": 166.015625,
      "v": 55
    },
    {
      "midi": 89,
      "hit": false,
      "t": 135937.5,
      "d": 166.015625,
      "v": 61
    },
    {
      "midi": 94,
      "hit": false,
      "t": 135937.5,
      "d": 210.9375,
      "v": 53
    },
    {
      "midi": 89,
      "hit": false,
      "t": 136406.25,
      "d": 166.015625,
      "v": 66
    },
    {
      "midi": 86,
      "hit": false,
      "t": 136406.25,
      "d": 171.875,
      "v": 66
    },
    {
      "midi": 94,
      "hit": false,
      "t": 136406.25,
      "d": 210.9375,
      "v": 65
    },
    {
      "midi": 89,
      "hit": false,
      "t": 136875,
      "d": 181.640625,
      "v": 59
    },
    {
      "midi": 86,
      "hit": false,
      "t": 136875,
      "d": 195.3125,
      "v": 49
    },
    {
      "midi": 94,
      "hit": false,
      "t": 136875,
      "d": 234.375,
      "v": 49
    },
    {
      "midi": 89,
      "hit": false,
      "t": 137343.75,
      "d": 175.78125,
      "v": 67
    },
    {
      "midi": 86,
      "hit": false,
      "t": 137343.75,
      "d": 181.640625,
      "v": 58
    },
    {
      "midi": 94,
      "hit": false,
      "t": 137343.75,
      "d": 244.140625,
      "v": 60
    },
    {
      "midi": 80,
      "hit": false,
      "t": 137812.5,
      "d": 185.546875,
      "v": 60
    },
    {
      "midi": 86,
      "hit": false,
      "t": 137812.5,
      "d": 230.46875,
      "v": 73
    },
    {
      "midi": 89,
      "hit": false,
      "t": 137812.5,
      "d": 240.234375,
      "v": 66
    },
    {
      "midi": 80,
      "hit": false,
      "t": 138281.25,
      "d": 156.25,
      "v": 52
    },
    {
      "midi": 86,
      "hit": false,
      "t": 138281.25,
      "d": 201.171875,
      "v": 61
    },
    {
      "midi": 89,
      "hit": false,
      "t": 138281.25,
      "d": 201.171875,
      "v": 60
    },
    {
      "midi": 80,
      "hit": false,
      "t": 138750,
      "d": 175.78125,
      "v": 44
    },
    {
      "midi": 86,
      "hit": false,
      "t": 138750,
      "d": 205.078125,
      "v": 62
    },
    {
      "midi": 89,
      "hit": false,
      "t": 138750,
      "d": 230.46875,
      "v": 63
    },
    {
      "midi": 80,
      "hit": false,
      "t": 139218.75,
      "d": 185.546875,
      "v": 50
    },
    {
      "midi": 86,
      "hit": false,
      "t": 139218.75,
      "d": 214.84375,
      "v": 68
    },
    {
      "midi": 89,
      "hit": false,
      "t": 139218.75,
      "d": 253.90625,
      "v": 58
    },
    {
      "midi": 86,
      "hit": false,
      "t": 139687.5,
      "d": 152.34375,
      "v": 61
    },
    {
      "midi": 80,
      "hit": false,
      "t": 139687.5,
      "d": 171.875,
      "v": 51
    },
    {
      "midi": 89,
      "hit": false,
      "t": 139687.5,
      "d": 195.3125,
      "v": 56
    },
    {
      "midi": 86,
      "hit": false,
      "t": 140156.25,
      "d": 191.40625,
      "v": 74
    },
    {
      "midi": 80,
      "hit": false,
      "t": 140156.25,
      "d": 195.3125,
      "v": 46
    },
    {
      "midi": 89,
      "hit": false,
      "t": 140156.25,
      "d": 224.609375,
      "v": 58
    },
    {
      "midi": 80,
      "hit": false,
      "t": 140625,
      "d": 171.875,
      "v": 64
    },
    {
      "midi": 86,
      "hit": false,
      "t": 140625,
      "d": 185.546875,
      "v": 73
    },
    {
      "midi": 89,
      "hit": false,
      "t": 140625,
      "d": 250,
      "v": 70
    },
    {
      "midi": 86,
      "hit": false,
      "t": 141093.75,
      "d": 156.25,
      "v": 72
    },
    {
      "midi": 80,
      "hit": false,
      "t": 141093.75,
      "d": 166.015625,
      "v": 57
    },
    {
      "midi": 89,
      "hit": false,
      "t": 141093.75,
      "d": 240.234375,
      "v": 68
    },
    {
      "midi": 80,
      "hit": false,
      "t": 141562.5,
      "d": 185.546875,
      "v": 52
    },
    {
      "midi": 86,
      "hit": false,
      "t": 141562.5,
      "d": 185.546875,
      "v": 64
    },
    {
      "midi": 89,
      "hit": false,
      "t": 141562.5,
      "d": 253.90625,
      "v": 52
    },
    {
      "midi": 80,
      "hit": false,
      "t": 142031.25,
      "d": 175.78125,
      "v": 56
    },
    {
      "midi": 86,
      "hit": false,
      "t": 142031.25,
      "d": 175.78125,
      "v": 71
    },
    {
      "midi": 89,
      "hit": false,
      "t": 142031.25,
      "d": 259.765625,
      "v": 62
    },
    {
      "midi": 86,
      "hit": false,
      "t": 142500,
      "d": 152.34375,
      "v": 73
    },
    {
      "midi": 80,
      "hit": false,
      "t": 142500,
      "d": 156.25,
      "v": 60
    },
    {
      "midi": 89,
      "hit": false,
      "t": 142500,
      "d": 224.609375,
      "v": 65
    },
    {
      "midi": 86,
      "hit": false,
      "t": 142968.75,
      "d": 166.015625,
      "v": 69
    },
    {
      "midi": 80,
      "hit": false,
      "t": 142968.75,
      "d": 175.78125,
      "v": 59
    },
    {
      "midi": 89,
      "hit": false,
      "t": 142968.75,
      "d": 298.828125,
      "v": 63
    },
    {
      "midi": 82,
      "hit": false,
      "t": 143437.5,
      "d": 136.71875,
      "v": 71
    },
    {
      "midi": 87,
      "hit": false,
      "t": 143437.5,
      "d": 142.578125,
      "v": 68
    },
    {
      "midi": 91,
      "hit": false,
      "t": 143437.5,
      "d": 195.3125,
      "v": 71
    },
    {
      "midi": 82,
      "hit": false,
      "t": 143906.25,
      "d": 175.78125,
      "v": 59
    },
    {
      "midi": 87,
      "hit": false,
      "t": 143906.25,
      "d": 185.546875,
      "v": 57
    },
    {
      "midi": 91,
      "hit": false,
      "t": 143906.25,
      "d": 214.84375,
      "v": 56
    },
    {
      "midi": 82,
      "hit": false,
      "t": 144375,
      "d": 166.015625,
      "v": 53
    },
    {
      "midi": 87,
      "hit": false,
      "t": 144375,
      "d": 166.015625,
      "v": 54
    },
    {
      "midi": 91,
      "hit": false,
      "t": 144375,
      "d": 210.9375,
      "v": 51
    },
    {
      "midi": 87,
      "hit": false,
      "t": 144843.75,
      "d": 166.015625,
      "v": 59
    },
    {
      "midi": 82,
      "hit": false,
      "t": 144843.75,
      "d": 171.875,
      "v": 67
    },
    {
      "midi": 91,
      "hit": false,
      "t": 144843.75,
      "d": 210.9375,
      "v": 59
    },
    {
      "midi": 87,
      "hit": false,
      "t": 145312.5,
      "d": 181.640625,
      "v": 60
    },
    {
      "midi": 82,
      "hit": false,
      "t": 145312.5,
      "d": 195.3125,
      "v": 52
    },
    {
      "midi": 91,
      "hit": false,
      "t": 145312.5,
      "d": 234.375,
      "v": 52
    },
    {
      "midi": 87,
      "hit": false,
      "t": 145781.25,
      "d": 175.78125,
      "v": 66
    },
    {
      "midi": 82,
      "hit": false,
      "t": 145781.25,
      "d": 181.640625,
      "v": 54
    },
    {
      "midi": 91,
      "hit": false,
      "t": 145781.25,
      "d": 244.140625,
      "v": 54
    },
    {
      "midi": 82,
      "hit": false,
      "t": 146250,
      "d": 230.46875,
      "v": 55
    },
    {
      "midi": 87,
      "hit": false,
      "t": 146250,
      "d": 259.765625,
      "v": 68
    },
    {
      "midi": 91,
      "hit": false,
      "t": 146250,
      "d": 289.0625,
      "v": 72
    },
    {
      "midi": 82,
      "hit": false,
      "t": 146718.75,
      "d": 166.015625,
      "v": 57
    },
    {
      "midi": 87,
      "hit": false,
      "t": 146718.75,
      "d": 171.875,
      "v": 65
    },
    {
      "midi": 91,
      "hit": false,
      "t": 146718.75,
      "d": 214.84375,
      "v": 56
    },
    {
      "midi": 82,
      "hit": false,
      "t": 147187.5,
      "d": 156.25,
      "v": 64
    },
    {
      "midi": 87,
      "hit": false,
      "t": 147187.5,
      "d": 162.109375,
      "v": 66
    },
    {
      "midi": 91,
      "hit": false,
      "t": 147187.5,
      "d": 195.3125,
      "v": 68
    },
    {
      "midi": 82,
      "hit": false,
      "t": 147656.25,
      "d": 191.40625,
      "v": 56
    },
    {
      "midi": 87,
      "hit": false,
      "t": 147656.25,
      "d": 195.3125,
      "v": 65
    },
    {
      "midi": 91,
      "hit": false,
      "t": 147656.25,
      "d": 224.609375,
      "v": 72
    },
    {
      "midi": 87,
      "hit": false,
      "t": 148125,
      "d": 191.40625,
      "v": 63
    },
    {
      "midi": 82,
      "hit": false,
      "t": 148125,
      "d": 195.3125,
      "v": 56
    },
    {
      "midi": 91,
      "hit": false,
      "t": 148125,
      "d": 214.84375,
      "v": 58
    },
    {
      "midi": 82,
      "hit": false,
      "t": 148593.75,
      "d": 146.484375,
      "v": 64
    },
    {
      "midi": 87,
      "hit": false,
      "t": 148593.75,
      "d": 146.484375,
      "v": 70
    },
    {
      "midi": 91,
      "hit": false,
      "t": 148593.75,
      "d": 152.34375,
      "v": 68
    },
    {
      "midi": 84,
      "hit": false,
      "t": 149062.5,
      "d": 185.546875,
      "v": 65
    },
    {
      "midi": 87,
      "hit": false,
      "t": 149062.5,
      "d": 230.46875,
      "v": 73
    },
    {
      "midi": 93,
      "hit": false,
      "t": 149062.5,
      "d": 240.234375,
      "v": 75
    },
    {
      "midi": 84,
      "hit": false,
      "t": 149531.25,
      "d": 156.25,
      "v": 56
    },
    {
      "midi": 87,
      "hit": false,
      "t": 149531.25,
      "d": 201.171875,
      "v": 65
    },
    {
      "midi": 93,
      "hit": false,
      "t": 149531.25,
      "d": 201.171875,
      "v": 64
    },
    {
      "midi": 84,
      "hit": false,
      "t": 150000,
      "d": 175.78125,
      "v": 51
    },
    {
      "midi": 87,
      "hit": false,
      "t": 150000,
      "d": 205.078125,
      "v": 60
    },
    {
      "midi": 93,
      "hit": false,
      "t": 150000,
      "d": 230.46875,
      "v": 61
    },
    {
      "midi": 84,
      "hit": false,
      "t": 150468.75,
      "d": 185.546875,
      "v": 54
    },
    {
      "midi": 87,
      "hit": false,
      "t": 150468.75,
      "d": 214.84375,
      "v": 72
    },
    {
      "midi": 93,
      "hit": false,
      "t": 150468.75,
      "d": 253.90625,
      "v": 62
    },
    {
      "midi": 87,
      "hit": false,
      "t": 150937.5,
      "d": 152.34375,
      "v": 64
    },
    {
      "midi": 84,
      "hit": false,
      "t": 150937.5,
      "d": 171.875,
      "v": 48
    },
    {
      "midi": 93,
      "hit": false,
      "t": 150937.5,
      "d": 195.3125,
      "v": 57
    },
    {
      "midi": 87,
      "hit": false,
      "t": 151406.25,
      "d": 191.40625,
      "v": 73
    },
    {
      "midi": 84,
      "hit": false,
      "t": 151406.25,
      "d": 195.3125,
      "v": 47
    },
    {
      "midi": 93,
      "hit": false,
      "t": 151406.25,
      "d": 224.609375,
      "v": 56
    },
    {
      "midi": 84,
      "hit": false,
      "t": 151875,
      "d": 171.875,
      "v": 61
    },
    {
      "midi": 87,
      "hit": false,
      "t": 151875,
      "d": 185.546875,
      "v": 74
    },
    {
      "midi": 93,
      "hit": false,
      "t": 151875,
      "d": 250,
      "v": 67
    },
    {
      "midi": 87,
      "hit": false,
      "t": 152343.75,
      "d": 156.25,
      "v": 65
    },
    {
      "midi": 84,
      "hit": false,
      "t": 152343.75,
      "d": 166.015625,
      "v": 57
    },
    {
      "midi": 93,
      "hit": false,
      "t": 152343.75,
      "d": 240.234375,
      "v": 71
    },
    {
      "midi": 84,
      "hit": false,
      "t": 152812.5,
      "d": 185.546875,
      "v": 51
    },
    {
      "midi": 87,
      "hit": false,
      "t": 152812.5,
      "d": 185.546875,
      "v": 62
    },
    {
      "midi": 93,
      "hit": false,
      "t": 152812.5,
      "d": 253.90625,
      "v": 59
    },
    {
      "midi": 84,
      "hit": false,
      "t": 153281.25,
      "d": 175.78125,
      "v": 52
    },
    {
      "midi": 87,
      "hit": false,
      "t": 153281.25,
      "d": 175.78125,
      "v": 66
    },
    {
      "midi": 93,
      "hit": false,
      "t": 153281.25,
      "d": 259.765625,
      "v": 65
    },
    {
      "midi": 87,
      "hit": false,
      "t": 153750,
      "d": 152.34375,
      "v": 73
    },
    {
      "midi": 84,
      "hit": false,
      "t": 153750,
      "d": 156.25,
      "v": 61
    },
    {
      "midi": 93,
      "hit": false,
      "t": 153750,
      "d": 224.609375,
      "v": 70
    },
    {
      "midi": 87,
      "hit": false,
      "t": 154218.75,
      "d": 166.015625,
      "v": 64
    },
    {
      "midi": 84,
      "hit": false,
      "t": 154218.75,
      "d": 175.78125,
      "v": 55
    },
    {
      "midi": 93,
      "hit": false,
      "t": 154218.75,
      "d": 298.828125,
      "v": 61
    },
    {
      "midi": 86,
      "hit": false,
      "t": 154687.5,
      "d": 136.71875,
      "v": 71
    },
    {
      "midi": 89,
      "hit": false,
      "t": 154687.5,
      "d": 142.578125,
      "v": 73
    },
    {
      "midi": 94,
      "hit": false,
      "t": 154687.5,
      "d": 195.3125,
      "v": 70
    },
    {
      "midi": 86,
      "hit": false,
      "t": 155156.25,
      "d": 175.78125,
      "v": 56
    },
    {
      "midi": 89,
      "hit": false,
      "t": 155156.25,
      "d": 185.546875,
      "v": 65
    },
    {
      "midi": 94,
      "hit": false,
      "t": 155156.25,
      "d": 214.84375,
      "v": 57
    },
    {
      "midi": 86,
      "hit": false,
      "t": 155625,
      "d": 166.015625,
      "v": 54
    },
    {
      "midi": 89,
      "hit": false,
      "t": 155625,
      "d": 166.015625,
      "v": 52
    },
    {
      "midi": 94,
      "hit": false,
      "t": 155625,
      "d": 210.9375,
      "v": 53
    },
    {
      "midi": 89,
      "hit": false,
      "t": 156093.75,
      "d": 166.015625,
      "v": 62
    },
    {
      "midi": 86,
      "hit": false,
      "t": 156093.75,
      "d": 171.875,
      "v": 60
    },
    {
      "midi": 94,
      "hit": false,
      "t": 156093.75,
      "d": 210.9375,
      "v": 59
    },
    {
      "midi": 89,
      "hit": false,
      "t": 156562.5,
      "d": 181.640625,
      "v": 53
    },
    {
      "midi": 86,
      "hit": false,
      "t": 156562.5,
      "d": 195.3125,
      "v": 51
    },
    {
      "midi": 94,
      "hit": false,
      "t": 156562.5,
      "d": 234.375,
      "v": 56
    },
    {
      "midi": 89,
      "hit": false,
      "t": 157031.25,
      "d": 175.78125,
      "v": 67
    },
    {
      "midi": 86,
      "hit": false,
      "t": 157031.25,
      "d": 181.640625,
      "v": 59
    },
    {
      "midi": 94,
      "hit": false,
      "t": 157031.25,
      "d": 244.140625,
      "v": 54
    },
    {
      "midi": 86,
      "hit": false,
      "t": 157500,
      "d": 136.71875,
      "v": 72
    },
    {
      "midi": 89,
      "hit": false,
      "t": 157500,
      "d": 142.578125,
      "v": 71
    },
    {
      "midi": 94,
      "hit": false,
      "t": 157500,
      "d": 195.3125,
      "v": 73
    },
    {
      "midi": 86,
      "hit": false,
      "t": 157968.75,
      "d": 175.78125,
      "v": 53
    },
    {
      "midi": 89,
      "hit": false,
      "t": 157968.75,
      "d": 185.546875,
      "v": 59
    },
    {
      "midi": 94,
      "hit": false,
      "t": 157968.75,
      "d": 214.84375,
      "v": 61
    },
    {
      "midi": 86,
      "hit": false,
      "t": 158437.5,
      "d": 166.015625,
      "v": 56
    },
    {
      "midi": 89,
      "hit": false,
      "t": 158437.5,
      "d": 166.015625,
      "v": 54
    },
    {
      "midi": 94,
      "hit": false,
      "t": 158437.5,
      "d": 210.9375,
      "v": 57
    },
    {
      "midi": 89,
      "hit": false,
      "t": 158906.25,
      "d": 166.015625,
      "v": 59
    },
    {
      "midi": 86,
      "hit": false,
      "t": 158906.25,
      "d": 171.875,
      "v": 68
    },
    {
      "midi": 94,
      "hit": false,
      "t": 158906.25,
      "d": 210.9375,
      "v": 59
    },
    {
      "midi": 89,
      "hit": false,
      "t": 159375,
      "d": 181.640625,
      "v": 52
    },
    {
      "midi": 86,
      "hit": false,
      "t": 159375,
      "d": 195.3125,
      "v": 52
    },
    {
      "midi": 94,
      "hit": false,
      "t": 159375,
      "d": 234.375,
      "v": 52
    },
    {
      "midi": 89,
      "hit": false,
      "t": 159843.75,
      "d": 175.78125,
      "v": 67
    },
    {
      "midi": 86,
      "hit": false,
      "t": 159843.75,
      "d": 181.640625,
      "v": 57
    },
    {
      "midi": 94,
      "hit": false,
      "t": 159843.75,
      "d": 244.140625,
      "v": 57
    },
    {
      "midi": 87,
      "hit": false,
      "t": 160312.5,
      "d": 185.546875,
      "v": 66
    },
    {
      "midi": 91,
      "hit": false,
      "t": 160312.5,
      "d": 230.46875,
      "v": 73
    },
    {
      "midi": 94,
      "hit": false,
      "t": 160312.5,
      "d": 240.234375,
      "v": 76
    },
    {
      "midi": 87,
      "hit": false,
      "t": 160781.25,
      "d": 156.25,
      "v": 59
    },
    {
      "midi": 91,
      "hit": false,
      "t": 160781.25,
      "d": 201.171875,
      "v": 64
    },
    {
      "midi": 94,
      "hit": false,
      "t": 160781.25,
      "d": 201.171875,
      "v": 61
    },
    {
      "midi": 87,
      "hit": false,
      "t": 161250,
      "d": 175.78125,
      "v": 49
    },
    {
      "midi": 91,
      "hit": false,
      "t": 161250,
      "d": 205.078125,
      "v": 62
    },
    {
      "midi": 94,
      "hit": false,
      "t": 161250,
      "d": 230.46875,
      "v": 63
    },
    {
      "midi": 58,
      "hit": false,
      "t": 161250,
      "d": 1871.09375,
      "v": 1
    },
    {
      "midi": 63,
      "hit": false,
      "t": 161250,
      "d": 1871.09375,
      "v": 1
    },
    {
      "midi": 67,
      "hit": false,
      "t": 161250,
      "d": 1871.09375,
      "v": 1
    },
    {
      "midi": 87,
      "hit": false,
      "t": 161718.75,
      "d": 185.546875,
      "v": 57
    },
    {
      "midi": 91,
      "hit": false,
      "t": 161718.75,
      "d": 214.84375,
      "v": 67
    },
    {
      "midi": 94,
      "hit": false,
      "t": 161718.75,
      "d": 253.90625,
      "v": 62
    },
    {
      "midi": 91,
      "hit": false,
      "t": 162187.5,
      "d": 152.34375,
      "v": 69
    },
    {
      "midi": 87,
      "hit": false,
      "t": 162187.5,
      "d": 171.875,
      "v": 47
    },
    {
      "midi": 94,
      "hit": false,
      "t": 162187.5,
      "d": 195.3125,
      "v": 57
    },
    {
      "midi": 91,
      "hit": false,
      "t": 162656.25,
      "d": 191.40625,
      "v": 74
    },
    {
      "midi": 87,
      "hit": false,
      "t": 162656.25,
      "d": 195.3125,
      "v": 49
    },
    {
      "midi": 94,
      "hit": false,
      "t": 162656.25,
      "d": 224.609375,
      "v": 59
    },
    {
      "midi": 87,
      "hit": false,
      "t": 163125,
      "d": 171.875,
      "v": 65
    },
    {
      "midi": 91,
      "hit": false,
      "t": 163125,
      "d": 185.546875,
      "v": 79
    },
    {
      "midi": 94,
      "hit": false,
      "t": 163125,
      "d": 250,
      "v": 74
    },
    {
      "midi": 63,
      "hit": false,
      "t": 163125,
      "d": 2808.59375,
      "v": 1
    },
    {
      "midi": 67,
      "hit": false,
      "t": 163125,
      "d": 2808.59375,
      "v": 1
    },
    {
      "midi": 70,
      "hit": false,
      "t": 163125,
      "d": 2808.59375,
      "v": 1
    },
    {
      "midi": 91,
      "hit": false,
      "t": 163593.75,
      "d": 156.25,
      "v": 74
    },
    {
      "midi": 87,
      "hit": false,
      "t": 163593.75,
      "d": 166.015625,
      "v": 65
    },
    {
      "midi": 94,
      "hit": false,
      "t": 163593.75,
      "d": 240.234375,
      "v": 71
    },
    {
      "midi": 87,
      "hit": false,
      "t": 164062.5,
      "d": 185.546875,
      "v": 47
    },
    {
      "midi": 91,
      "hit": false,
      "t": 164062.5,
      "d": 185.546875,
      "v": 63
    },
    {
      "midi": 94,
      "hit": false,
      "t": 164062.5,
      "d": 253.90625,
      "v": 62
    },
    {
      "midi": 87,
      "hit": false,
      "t": 164531.25,
      "d": 175.78125,
      "v": 59
    },
    {
      "midi": 91,
      "hit": false,
      "t": 164531.25,
      "d": 175.78125,
      "v": 67
    },
    {
      "midi": 94,
      "hit": false,
      "t": 164531.25,
      "d": 259.765625,
      "v": 65
    },
    {
      "midi": 91,
      "hit": false,
      "t": 165000,
      "d": 152.34375,
      "v": 69
    },
    {
      "midi": 87,
      "hit": false,
      "t": 165000,
      "d": 156.25,
      "v": 57
    },
    {
      "midi": 94,
      "hit": false,
      "t": 165000,
      "d": 224.609375,
      "v": 70
    },
    {
      "midi": 91,
      "hit": false,
      "t": 165468.75,
      "d": 166.015625,
      "v": 73
    },
    {
      "midi": 87,
      "hit": false,
      "t": 165468.75,
      "d": 175.78125,
      "v": 61
    },
    {
      "midi": 94,
      "hit": false,
      "t": 165468.75,
      "d": 298.828125,
      "v": 58
    },
    {
      "midi": 82,
      "hit": false,
      "t": 165937.5,
      "d": 136.71875,
      "v": 74
    },
    {
      "midi": 86,
      "hit": false,
      "t": 165937.5,
      "d": 142.578125,
      "v": 72
    },
    {
      "midi": 89,
      "hit": false,
      "t": 165937.5,
      "d": 195.3125,
      "v": 70
    },
    {
      "midi": 82,
      "hit": false,
      "t": 166406.25,
      "d": 175.78125,
      "v": 55
    },
    {
      "midi": 86,
      "hit": false,
      "t": 166406.25,
      "d": 185.546875,
      "v": 66
    },
    {
      "midi": 89,
      "hit": false,
      "t": 166406.25,
      "d": 214.84375,
      "v": 56
    },
    {
      "midi": 82,
      "hit": false,
      "t": 166875,
      "d": 166.015625,
      "v": 55
    },
    {
      "midi": 86,
      "hit": false,
      "t": 166875,
      "d": 166.015625,
      "v": 56
    },
    {
      "midi": 89,
      "hit": false,
      "t": 166875,
      "d": 210.9375,
      "v": 56
    },
    {
      "midi": 62,
      "hit": false,
      "t": 166875,
      "d": 1402.34375,
      "v": 1
    },
    {
      "midi": 65,
      "hit": false,
      "t": 166875,
      "d": 1402.34375,
      "v": 1
    },
    {
      "midi": 70,
      "hit": false,
      "t": 166875,
      "d": 1402.34375,
      "v": 1
    },
    {
      "midi": 86,
      "hit": false,
      "t": 167343.75,
      "d": 166.015625,
      "v": 64
    },
    {
      "midi": 82,
      "hit": false,
      "t": 167343.75,
      "d": 171.875,
      "v": 66
    },
    {
      "midi": 89,
      "hit": false,
      "t": 167343.75,
      "d": 210.9375,
      "v": 69
    },
    {
      "midi": 86,
      "hit": false,
      "t": 167812.5,
      "d": 181.640625,
      "v": 62
    },
    {
      "midi": 82,
      "hit": false,
      "t": 167812.5,
      "d": 195.3125,
      "v": 51
    },
    {
      "midi": 89,
      "hit": false,
      "t": 167812.5,
      "d": 234.375,
      "v": 58
    },
    {
      "midi": 86,
      "hit": false,
      "t": 168281.25,
      "d": 175.78125,
      "v": 68
    },
    {
      "midi": 82,
      "hit": false,
      "t": 168281.25,
      "d": 181.640625,
      "v": 57
    },
    {
      "midi": 89,
      "hit": false,
      "t": 168281.25,
      "d": 244.140625,
      "v": 63
    },
    {
      "midi": 62,
      "hit": false,
      "t": 168281.25,
      "d": 464.84375,
      "v": 1
    },
    {
      "midi": 65,
      "hit": false,
      "t": 168281.25,
      "d": 464.84375,
      "v": 1
    },
    {
      "midi": 67,
      "hit": false,
      "t": 168281.25,
      "d": 464.84375,
      "v": 1
    },
    {
      "midi": 82,
      "hit": false,
      "t": 168750,
      "d": 230.46875,
      "v": 61
    },
    {
      "midi": 86,
      "hit": false,
      "t": 168750,
      "d": 259.765625,
      "v": 67
    },
    {
      "midi": 89,
      "hit": false,
      "t": 168750,
      "d": 289.0625,
      "v": 67
    },
    {
      "midi": 62,
      "hit": false,
      "t": 168750,
      "d": 2808.59375,
      "v": 1
    },
    {
      "midi": 65,
      "hit": false,
      "t": 168750,
      "d": 2808.59375,
      "v": 1
    },
    {
      "midi": 70,
      "hit": false,
      "t": 168750,
      "d": 2808.59375,
      "v": 1
    },
    {
      "midi": 82,
      "hit": false,
      "t": 169218.75,
      "d": 166.015625,
      "v": 57
    },
    {
      "midi": 86,
      "hit": false,
      "t": 169218.75,
      "d": 171.875,
      "v": 60
    },
    {
      "midi": 89,
      "hit": false,
      "t": 169218.75,
      "d": 214.84375,
      "v": 65
    },
    {
      "midi": 82,
      "hit": false,
      "t": 169687.5,
      "d": 156.25,
      "v": 69
    },
    {
      "midi": 86,
      "hit": false,
      "t": 169687.5,
      "d": 162.109375,
      "v": 61
    },
    {
      "midi": 89,
      "hit": false,
      "t": 169687.5,
      "d": 195.3125,
      "v": 71
    },
    {
      "midi": 82,
      "hit": false,
      "t": 170156.25,
      "d": 191.40625,
      "v": 60
    },
    {
      "midi": 86,
      "hit": false,
      "t": 170156.25,
      "d": 195.3125,
      "v": 70
    },
    {
      "midi": 89,
      "hit": false,
      "t": 170156.25,
      "d": 224.609375,
      "v": 66
    },
    {
      "midi": 86,
      "hit": false,
      "t": 170625,
      "d": 191.40625,
      "v": 64
    },
    {
      "midi": 82,
      "hit": false,
      "t": 170625,
      "d": 195.3125,
      "v": 55
    },
    {
      "midi": 89,
      "hit": false,
      "t": 170625,
      "d": 214.84375,
      "v": 71
    },
    {
      "midi": 82,
      "hit": false,
      "t": 171093.75,
      "d": 146.484375,
      "v": 69
    },
    {
      "midi": 86,
      "hit": false,
      "t": 171093.75,
      "d": 146.484375,
      "v": 74
    },
    {
      "midi": 89,
      "hit": false,
      "t": 171093.75,
      "d": 152.34375,
      "v": 71
    },
    {
      "midi": 84,
      "hit": false,
      "t": 171562.5,
      "d": 185.546875,
      "v": 64
    },
    {
      "midi": 88,
      "hit": false,
      "t": 171562.5,
      "d": 230.46875,
      "v": 74
    },
    {
      "midi": 91,
      "hit": false,
      "t": 171562.5,
      "d": 240.234375,
      "v": 72
    },
    {
      "midi": 84,
      "hit": false,
      "t": 172031.25,
      "d": 156.25,
      "v": 54
    },
    {
      "midi": 88,
      "hit": false,
      "t": 172031.25,
      "d": 201.171875,
      "v": 70
    },
    {
      "midi": 91,
      "hit": false,
      "t": 172031.25,
      "d": 201.171875,
      "v": 64
    },
    {
      "midi": 84,
      "hit": false,
      "t": 172500,
      "d": 175.78125,
      "v": 50
    },
    {
      "midi": 88,
      "hit": false,
      "t": 172500,
      "d": 205.078125,
      "v": 68
    },
    {
      "midi": 91,
      "hit": false,
      "t": 172500,
      "d": 230.46875,
      "v": 70
    },
    {
      "midi": 64,
      "hit": false,
      "t": 172500,
      "d": 1402.34375,
      "v": 1
    },
    {
      "midi": 67,
      "hit": false,
      "t": 172500,
      "d": 1402.34375,
      "v": 1
    },
    {
      "midi": 70,
      "hit": false,
      "t": 172500,
      "d": 1402.34375,
      "v": 1
    },
    {
      "midi": 84,
      "hit": false,
      "t": 172968.75,
      "d": 185.546875,
      "v": 59
    },
    {
      "midi": 88,
      "hit": false,
      "t": 172968.75,
      "d": 214.84375,
      "v": 73
    },
    {
      "midi": 91,
      "hit": false,
      "t": 172968.75,
      "d": 253.90625,
      "v": 61
    },
    {
      "midi": 88,
      "hit": false,
      "t": 173437.5,
      "d": 152.34375,
      "v": 66
    },
    {
      "midi": 84,
      "hit": false,
      "t": 173437.5,
      "d": 171.875,
      "v": 50
    },
    {
      "midi": 91,
      "hit": false,
      "t": 173437.5,
      "d": 195.3125,
      "v": 58
    },
    {
      "midi": 88,
      "hit": false,
      "t": 173906.25,
      "d": 191.40625,
      "v": 77
    },
    {
      "midi": 84,
      "hit": false,
      "t": 173906.25,
      "d": 195.3125,
      "v": 54
    },
    {
      "midi": 91,
      "hit": false,
      "t": 173906.25,
      "d": 224.609375,
      "v": 58
    },
    {
      "midi": 60,
      "hit": false,
      "t": 173906.25,
      "d": 464.84375,
      "v": 1
    },
    {
      "midi": 64,
      "hit": false,
      "t": 173906.25,
      "d": 464.84375,
      "v": 1
    },
    {
      "midi": 67,
      "hit": false,
      "t": 173906.25,
      "d": 464.84375,
      "v": 1
    },
    {
      "midi": 84,
      "hit": false,
      "t": 174375,
      "d": 171.875,
      "v": 60
    },
    {
      "midi": 88,
      "hit": false,
      "t": 174375,
      "d": 185.546875,
      "v": 70
    },
    {
      "midi": 91,
      "hit": false,
      "t": 174375,
      "d": 250,
      "v": 71
    },
    {
      "midi": 64,
      "hit": false,
      "t": 174375,
      "d": 2808.59375,
      "v": 1
    },
    {
      "midi": 67,
      "hit": false,
      "t": 174375,
      "d": 2808.59375,
      "v": 1
    },
    {
      "midi": 70,
      "hit": false,
      "t": 174375,
      "d": 2808.59375,
      "v": 1
    },
    {
      "midi": 88,
      "hit": false,
      "t": 174843.75,
      "d": 156.25,
      "v": 71
    },
    {
      "midi": 84,
      "hit": false,
      "t": 174843.75,
      "d": 166.015625,
      "v": 63
    },
    {
      "midi": 91,
      "hit": false,
      "t": 174843.75,
      "d": 240.234375,
      "v": 71
    },
    {
      "midi": 84,
      "hit": false,
      "t": 175312.5,
      "d": 185.546875,
      "v": 54
    },
    {
      "midi": 88,
      "hit": false,
      "t": 175312.5,
      "d": 185.546875,
      "v": 67
    },
    {
      "midi": 91,
      "hit": false,
      "t": 175312.5,
      "d": 253.90625,
      "v": 62
    },
    {
      "midi": 84,
      "hit": false,
      "t": 175781.25,
      "d": 175.78125,
      "v": 60
    },
    {
      "midi": 88,
      "hit": false,
      "t": 175781.25,
      "d": 175.78125,
      "v": 67
    },
    {
      "midi": 91,
      "hit": false,
      "t": 175781.25,
      "d": 259.765625,
      "v": 62
    },
    {
      "midi": 88,
      "hit": false,
      "t": 176250,
      "d": 152.34375,
      "v": 73
    },
    {
      "midi": 84,
      "hit": false,
      "t": 176250,
      "d": 156.25,
      "v": 59
    },
    {
      "midi": 91,
      "hit": false,
      "t": 176250,
      "d": 224.609375,
      "v": 68
    },
    {
      "midi": 88,
      "hit": false,
      "t": 176718.75,
      "d": 166.015625,
      "v": 66
    },
    {
      "midi": 84,
      "hit": false,
      "t": 176718.75,
      "d": 175.78125,
      "v": 58
    },
    {
      "midi": 91,
      "hit": false,
      "t": 176718.75,
      "d": 298.828125,
      "v": 66
    },
    {
      "midi": 87,
      "hit": false,
      "t": 177187.5,
      "d": 136.71875,
      "v": 75
    },
    {
      "midi": 90,
      "hit": false,
      "t": 177187.5,
      "d": 142.578125,
      "v": 76
    },
    {
      "midi": 94,
      "hit": false,
      "t": 177187.5,
      "d": 195.3125,
      "v": 73
    },
    {
      "midi": 87,
      "hit": false,
      "t": 177656.25,
      "d": 175.78125,
      "v": 60
    },
    {
      "midi": 90,
      "hit": false,
      "t": 177656.25,
      "d": 185.546875,
      "v": 63
    },
    {
      "midi": 94,
      "hit": false,
      "t": 177656.25,
      "d": 214.84375,
      "v": 63
    },
    {
      "midi": 60,
      "hit": false,
      "t": 177656.25,
      "d": 2339.84375,
      "v": 1
    },
    {
      "midi": 63,
      "hit": false,
      "t": 177656.25,
      "d": 2339.84375,
      "v": 1
    },
    {
      "midi": 66,
      "hit": false,
      "t": 177656.25,
      "d": 2339.84375,
      "v": 1
    },
    {
      "midi": 70,
      "hit": false,
      "t": 177656.25,
      "d": 2339.84375,
      "v": 1
    },
    {
      "midi": 87,
      "hit": false,
      "t": 178125,
      "d": 166.015625,
      "v": 59
    },
    {
      "midi": 90,
      "hit": false,
      "t": 178125,
      "d": 166.015625,
      "v": 58
    },
    {
      "midi": 94,
      "hit": false,
      "t": 178125,
      "d": 210.9375,
      "v": 54
    },
    {
      "midi": 90,
      "hit": false,
      "t": 178593.75,
      "d": 166.015625,
      "v": 66
    },
    {
      "midi": 87,
      "hit": false,
      "t": 178593.75,
      "d": 171.875,
      "v": 64
    },
    {
      "midi": 94,
      "hit": false,
      "t": 178593.75,
      "d": 210.9375,
      "v": 62
    },
    {
      "midi": 90,
      "hit": false,
      "t": 179062.5,
      "d": 181.640625,
      "v": 57
    },
    {
      "midi": 87,
      "hit": false,
      "t": 179062.5,
      "d": 195.3125,
      "v": 54
    },
    {
      "midi": 94,
      "hit": false,
      "t": 179062.5,
      "d": 234.375,
      "v": 59
    },
    {
      "midi": 90,
      "hit": false,
      "t": 179531.25,
      "d": 175.78125,
      "v": 71
    },
    {
      "midi": 87,
      "hit": false,
      "t": 179531.25,
      "d": 181.640625,
      "v": 62
    },
    {
      "midi": 94,
      "hit": false,
      "t": 179531.25,
      "d": 244.140625,
      "v": 63
    },
    {
      "midi": 87,
      "hit": false,
      "t": 180000,
      "d": 136.71875,
      "v": 73
    },
    {
      "midi": 89,
      "hit": false,
      "t": 180000,
      "d": 142.578125,
      "v": 68
    },
    {
      "midi": 93,
      "hit": false,
      "t": 180000,
      "d": 195.3125,
      "v": 76
    },
    {
      "midi": 63,
      "hit": false,
      "t": 180000,
      "d": 933.59375,
      "v": 1
    },
    {
      "midi": 65,
      "hit": false,
      "t": 180000,
      "d": 933.59375,
      "v": 1
    },
    {
      "midi": 69,
      "hit": false,
      "t": 180000,
      "d": 933.59375,
      "v": 1
    },
    {
      "midi": 80,
      "hit": false,
      "t": 182812.5,
      "d": 185.546875,
      "v": 68
    },
    {
      "midi": 86,
      "hit": false,
      "t": 182812.5,
      "d": 230.46875,
      "v": 80
    },
    {
      "midi": 89,
      "hit": false,
      "t": 182812.5,
      "d": 240.234375,
      "v": 70
    },
    {
      "midi": 80,
      "hit": false,
      "t": 183281.25,
      "d": 156.25,
      "v": 55
    },
    {
      "midi": 86,
      "hit": false,
      "t": 183281.25,
      "d": 201.171875,
      "v": 72
    },
    {
      "midi": 89,
      "hit": false,
      "t": 183281.25,
      "d": 201.171875,
      "v": 67
    },
    {
      "midi": 80,
      "hit": false,
      "t": 183750,
      "d": 175.78125,
      "v": 49
    },
    {
      "midi": 86,
      "hit": false,
      "t": 183750,
      "d": 205.078125,
      "v": 63
    },
    {
      "midi": 89,
      "hit": false,
      "t": 183750,
      "d": 230.46875,
      "v": 64
    },
    {
      "midi": 62,
      "hit": false,
      "t": 183750,
      "d": 933.59375,
      "v": 1
    },
    {
      "midi": 65,
      "hit": false,
      "t": 183750,
      "d": 933.59375,
      "v": 1
    },
    {
      "midi": 80,
      "hit": false,
      "t": 184218.75,
      "d": 185.546875,
      "v": 53
    },
    {
      "midi": 86,
      "hit": false,
      "t": 184218.75,
      "d": 214.84375,
      "v": 74
    },
    {
      "midi": 89,
      "hit": false,
      "t": 184218.75,
      "d": 253.90625,
      "v": 64
    },
    {
      "midi": 86,
      "hit": false,
      "t": 184687.5,
      "d": 152.34375,
      "v": 65
    },
    {
      "midi": 80,
      "hit": false,
      "t": 184687.5,
      "d": 171.875,
      "v": 52
    },
    {
      "midi": 89,
      "hit": false,
      "t": 184687.5,
      "d": 195.3125,
      "v": 60
    },
    {
      "midi": 60,
      "hit": false,
      "t": 184687.5,
      "d": 464.84375,
      "v": 1
    },
    {
      "midi": 63,
      "hit": false,
      "t": 184687.5,
      "d": 464.84375,
      "v": 1
    },
    {
      "midi": 86,
      "hit": false,
      "t": 185156.25,
      "d": 191.40625,
      "v": 73
    },
    {
      "midi": 80,
      "hit": false,
      "t": 185156.25,
      "d": 195.3125,
      "v": 57
    },
    {
      "midi": 89,
      "hit": false,
      "t": 185156.25,
      "d": 224.609375,
      "v": 60
    },
    {
      "midi": 58,
      "hit": false,
      "t": 185156.25,
      "d": 464.84375,
      "v": 1
    },
    {
      "midi": 62,
      "hit": false,
      "t": 185156.25,
      "d": 464.84375,
      "v": 1
    },
    {
      "midi": 80,
      "hit": false,
      "t": 185625,
      "d": 171.875,
      "v": 69
    },
    {
      "midi": 86,
      "hit": false,
      "t": 185625,
      "d": 185.546875,
      "v": 78
    },
    {
      "midi": 89,
      "hit": false,
      "t": 185625,
      "d": 250,
      "v": 70
    },
    {
      "midi": 62,
      "hit": false,
      "t": 185625,
      "d": 933.59375,
      "v": 1
    },
    {
      "midi": 65,
      "hit": false,
      "t": 185625,
      "d": 933.59375,
      "v": 1
    },
    {
      "midi": 86,
      "hit": false,
      "t": 186093.75,
      "d": 156.25,
      "v": 68
    },
    {
      "midi": 80,
      "hit": false,
      "t": 186093.75,
      "d": 166.015625,
      "v": 65
    },
    {
      "midi": 89,
      "hit": false,
      "t": 186093.75,
      "d": 240.234375,
      "v": 69
    },
    {
      "midi": 80,
      "hit": false,
      "t": 186562.5,
      "d": 185.546875,
      "v": 53
    },
    {
      "midi": 86,
      "hit": false,
      "t": 186562.5,
      "d": 185.546875,
      "v": 68
    },
    {
      "midi": 89,
      "hit": false,
      "t": 186562.5,
      "d": 253.90625,
      "v": 53
    },
    {
      "midi": 80,
      "hit": false,
      "t": 187031.25,
      "d": 175.78125,
      "v": 55
    },
    {
      "midi": 86,
      "hit": false,
      "t": 187031.25,
      "d": 175.78125,
      "v": 69
    },
    {
      "midi": 89,
      "hit": false,
      "t": 187031.25,
      "d": 259.765625,
      "v": 61
    },
    {
      "midi": 86,
      "hit": false,
      "t": 187500,
      "d": 152.34375,
      "v": 73
    },
    {
      "midi": 80,
      "hit": false,
      "t": 187500,
      "d": 156.25,
      "v": 58
    },
    {
      "midi": 89,
      "hit": false,
      "t": 187500,
      "d": 224.609375,
      "v": 72
    },
    {
      "midi": 86,
      "hit": false,
      "t": 187968.75,
      "d": 166.015625,
      "v": 72
    },
    {
      "midi": 80,
      "hit": false,
      "t": 187968.75,
      "d": 175.78125,
      "v": 57
    },
    {
      "midi": 89,
      "hit": false,
      "t": 187968.75,
      "d": 298.828125,
      "v": 61
    },
    {
      "midi": 82,
      "hit": false,
      "t": 188437.5,
      "d": 136.71875,
      "v": 76
    },
    {
      "midi": 87,
      "hit": false,
      "t": 188437.5,
      "d": 142.578125,
      "v": 67
    },
    {
      "midi": 91,
      "hit": false,
      "t": 188437.5,
      "d": 195.3125,
      "v": 73
    },
    {
      "midi": 82,
      "hit": false,
      "t": 188906.25,
      "d": 175.78125,
      "v": 61
    },
    {
      "midi": 87,
      "hit": false,
      "t": 188906.25,
      "d": 185.546875,
      "v": 64
    },
    {
      "midi": 91,
      "hit": false,
      "t": 188906.25,
      "d": 214.84375,
      "v": 61
    },
    {
      "midi": 82,
      "hit": false,
      "t": 189375,
      "d": 166.015625,
      "v": 55
    },
    {
      "midi": 87,
      "hit": false,
      "t": 189375,
      "d": 166.015625,
      "v": 57
    },
    {
      "midi": 91,
      "hit": false,
      "t": 189375,
      "d": 210.9375,
      "v": 61
    },
    {
      "midi": 63,
      "hit": false,
      "t": 189375,
      "d": 933.59375,
      "v": 1
    },
    {
      "midi": 67,
      "hit": false,
      "t": 189375,
      "d": 933.59375,
      "v": 1
    },
    {
      "midi": 87,
      "hit": false,
      "t": 189843.75,
      "d": 166.015625,
      "v": 67
    },
    {
      "midi": 82,
      "hit": false,
      "t": 189843.75,
      "d": 171.875,
      "v": 63
    },
    {
      "midi": 91,
      "hit": false,
      "t": 189843.75,
      "d": 210.9375,
      "v": 61
    },
    {
      "midi": 87,
      "hit": false,
      "t": 190312.5,
      "d": 181.640625,
      "v": 55
    },
    {
      "midi": 82,
      "hit": false,
      "t": 190312.5,
      "d": 195.3125,
      "v": 53
    },
    {
      "midi": 91,
      "hit": false,
      "t": 190312.5,
      "d": 234.375,
      "v": 59
    },
    {
      "midi": 62,
      "hit": false,
      "t": 190312.5,
      "d": 464.84375,
      "v": 1
    },
    {
      "midi": 65,
      "hit": false,
      "t": 190312.5,
      "d": 464.84375,
      "v": 1
    },
    {
      "midi": 87,
      "hit": false,
      "t": 190781.25,
      "d": 175.78125,
      "v": 71
    },
    {
      "midi": 82,
      "hit": false,
      "t": 190781.25,
      "d": 181.640625,
      "v": 56
    },
    {
      "midi": 91,
      "hit": false,
      "t": 190781.25,
      "d": 244.140625,
      "v": 56
    },
    {
      "midi": 60,
      "hit": false,
      "t": 190781.25,
      "d": 464.84375,
      "v": 1
    },
    {
      "midi": 63,
      "hit": false,
      "t": 190781.25,
      "d": 464.84375,
      "v": 1
    },
    {
      "midi": 82,
      "hit": false,
      "t": 191250,
      "d": 230.46875,
      "v": 61
    },
    {
      "midi": 87,
      "hit": false,
      "t": 191250,
      "d": 259.765625,
      "v": 71
    },
    {
      "midi": 91,
      "hit": false,
      "t": 191250,
      "d": 289.0625,
      "v": 71
    },
    {
      "midi": 63,
      "hit": false,
      "t": 191250,
      "d": 933.59375,
      "v": 1
    },
    {
      "midi": 67,
      "hit": false,
      "t": 191250,
      "d": 933.59375,
      "v": 1
    },
    {
      "midi": 82,
      "hit": false,
      "t": 191718.75,
      "d": 166.015625,
      "v": 55
    },
    {
      "midi": 87,
      "hit": false,
      "t": 191718.75,
      "d": 171.875,
      "v": 65
    },
    {
      "midi": 91,
      "hit": false,
      "t": 191718.75,
      "d": 214.84375,
      "v": 63
    },
    {
      "midi": 82,
      "hit": false,
      "t": 192187.5,
      "d": 156.25,
      "v": 63
    },
    {
      "midi": 87,
      "hit": false,
      "t": 192187.5,
      "d": 162.109375,
      "v": 71
    },
    {
      "midi": 91,
      "hit": false,
      "t": 192187.5,
      "d": 195.3125,
      "v": 73
    },
    {
      "midi": 82,
      "hit": false,
      "t": 192656.25,
      "d": 191.40625,
      "v": 61
    },
    {
      "midi": 87,
      "hit": false,
      "t": 192656.25,
      "d": 195.3125,
      "v": 67
    },
    {
      "midi": 91,
      "hit": false,
      "t": 192656.25,
      "d": 224.609375,
      "v": 66
    },
    {
      "midi": 87,
      "hit": false,
      "t": 193125,
      "d": 191.40625,
      "v": 60
    },
    {
      "midi": 82,
      "hit": false,
      "t": 193125,
      "d": 195.3125,
      "v": 64
    },
    {
      "midi": 91,
      "hit": false,
      "t": 193125,
      "d": 214.84375,
      "v": 70
    },
    {
      "midi": 82,
      "hit": false,
      "t": 193593.75,
      "d": 146.484375,
      "v": 69
    },
    {
      "midi": 87,
      "hit": false,
      "t": 193593.75,
      "d": 146.484375,
      "v": 66
    },
    {
      "midi": 91,
      "hit": false,
      "t": 193593.75,
      "d": 152.34375,
      "v": 74
    },
    {
      "midi": 84,
      "hit": false,
      "t": 194062.5,
      "d": 185.546875,
      "v": 63
    },
    {
      "midi": 87,
      "hit": false,
      "t": 194062.5,
      "d": 230.46875,
      "v": 75
    },
    {
      "midi": 93,
      "hit": false,
      "t": 194062.5,
      "d": 240.234375,
      "v": 78
    },
    {
      "midi": 84,
      "hit": false,
      "t": 194531.25,
      "d": 156.25,
      "v": 59
    },
    {
      "midi": 87,
      "hit": false,
      "t": 194531.25,
      "d": 201.171875,
      "v": 69
    },
    {
      "midi": 93,
      "hit": false,
      "t": 194531.25,
      "d": 201.171875,
      "v": 68
    },
    {
      "midi": 84,
      "hit": false,
      "t": 195000,
      "d": 175.78125,
      "v": 48
    },
    {
      "midi": 87,
      "hit": false,
      "t": 195000,
      "d": 205.078125,
      "v": 59
    },
    {
      "midi": 93,
      "hit": false,
      "t": 195000,
      "d": 230.46875,
      "v": 69
    },
    {
      "midi": 57,
      "hit": false,
      "t": 195000,
      "d": 933.59375,
      "v": 1
    },
    {
      "midi": 65,
      "hit": false,
      "t": 195000,
      "d": 933.59375,
      "v": 1
    },
    {
      "midi": 69,
      "hit": false,
      "t": 195000,
      "d": 933.59375,
      "v": 1
    },
    {
      "midi": 84,
      "hit": false,
      "t": 195468.75,
      "d": 185.546875,
      "v": 58
    },
    {
      "midi": 87,
      "hit": false,
      "t": 195468.75,
      "d": 214.84375,
      "v": 67
    },
    {
      "midi": 93,
      "hit": false,
      "t": 195468.75,
      "d": 253.90625,
      "v": 66
    },
    {
      "midi": 87,
      "hit": false,
      "t": 195937.5,
      "d": 152.34375,
      "v": 65
    },
    {
      "midi": 84,
      "hit": false,
      "t": 195937.5,
      "d": 171.875,
      "v": 53
    },
    {
      "midi": 93,
      "hit": false,
      "t": 195937.5,
      "d": 195.3125,
      "v": 58
    },
    {
      "midi": 55,
      "hit": false,
      "t": 195937.5,
      "d": 464.84375,
      "v": 1
    },
    {
      "midi": 63,
      "hit": false,
      "t": 195937.5,
      "d": 464.84375,
      "v": 1
    },
    {
      "midi": 67,
      "hit": false,
      "t": 195937.5,
      "d": 464.84375,
      "v": 1
    },
    {
      "midi": 87,
      "hit": false,
      "t": 196406.25,
      "d": 191.40625,
      "v": 76
    },
    {
      "midi": 84,
      "hit": false,
      "t": 196406.25,
      "d": 195.3125,
      "v": 49
    },
    {
      "midi": 93,
      "hit": false,
      "t": 196406.25,
      "d": 224.609375,
      "v": 63
    },
    {
      "midi": 53,
      "hit": false,
      "t": 196406.25,
      "d": 464.84375,
      "v": 1
    },
    {
      "midi": 62,
      "hit": false,
      "t": 196406.25,
      "d": 464.84375,
      "v": 1
    },
    {
      "midi": 65,
      "hit": false,
      "t": 196406.25,
      "d": 464.84375,
      "v": 1
    },
    {
      "midi": 84,
      "hit": false,
      "t": 196875,
      "d": 171.875,
      "v": 64
    },
    {
      "midi": 87,
      "hit": false,
      "t": 196875,
      "d": 185.546875,
      "v": 74
    },
    {
      "midi": 93,
      "hit": false,
      "t": 196875,
      "d": 250,
      "v": 73
    },
    {
      "midi": 57,
      "hit": false,
      "t": 196875,
      "d": 933.59375,
      "v": 1
    },
    {
      "midi": 65,
      "hit": false,
      "t": 196875,
      "d": 933.59375,
      "v": 1
    },
    {
      "midi": 69,
      "hit": false,
      "t": 196875,
      "d": 933.59375,
      "v": 1
    },
    {
      "midi": 87,
      "hit": false,
      "t": 197343.75,
      "d": 156.25,
      "v": 71
    },
    {
      "midi": 84,
      "hit": false,
      "t": 197343.75,
      "d": 166.015625,
      "v": 61
    },
    {
      "midi": 93,
      "hit": false,
      "t": 197343.75,
      "d": 240.234375,
      "v": 75
    },
    {
      "midi": 84,
      "hit": false,
      "t": 197812.5,
      "d": 185.546875,
      "v": 51
    },
    {
      "midi": 87,
      "hit": false,
      "t": 197812.5,
      "d": 185.546875,
      "v": 66
    },
    {
      "midi": 93,
      "hit": false,
      "t": 197812.5,
      "d": 253.90625,
      "v": 57
    },
    {
      "midi": 84,
      "hit": false,
      "t": 198281.25,
      "d": 175.78125,
      "v": 54
    },
    {
      "midi": 87,
      "hit": false,
      "t": 198281.25,
      "d": 175.78125,
      "v": 70
    },
    {
      "midi": 93,
      "hit": false,
      "t": 198281.25,
      "d": 259.765625,
      "v": 62
    },
    {
      "midi": 87,
      "hit": false,
      "t": 198750,
      "d": 152.34375,
      "v": 70
    },
    {
      "midi": 84,
      "hit": false,
      "t": 198750,
      "d": 156.25,
      "v": 65
    },
    {
      "midi": 93,
      "hit": false,
      "t": 198750,
      "d": 224.609375,
      "v": 73
    },
    {
      "midi": 87,
      "hit": false,
      "t": 199218.75,
      "d": 166.015625,
      "v": 64
    },
    {
      "midi": 84,
      "hit": false,
      "t": 199218.75,
      "d": 175.78125,
      "v": 59
    },
    {
      "midi": 93,
      "hit": false,
      "t": 199218.75,
      "d": 298.828125,
      "v": 60
    },
    {
      "midi": 86,
      "hit": false,
      "t": 199687.5,
      "d": 136.71875,
      "v": 74
    },
    {
      "midi": 89,
      "hit": false,
      "t": 199687.5,
      "d": 142.578125,
      "v": 70
    },
    {
      "midi": 94,
      "hit": false,
      "t": 199687.5,
      "d": 195.3125,
      "v": 71
    },
    {
      "midi": 86,
      "hit": false,
      "t": 200156.25,
      "d": 175.78125,
      "v": 56
    },
    {
      "midi": 89,
      "hit": false,
      "t": 200156.25,
      "d": 185.546875,
      "v": 65
    },
    {
      "midi": 94,
      "hit": false,
      "t": 200156.25,
      "d": 214.84375,
      "v": 63
    },
    {
      "midi": 58,
      "hit": false,
      "t": 200156.25,
      "d": 933.59375,
      "v": 1
    },
    {
      "midi": 62,
      "hit": false,
      "t": 200156.25,
      "d": 933.59375,
      "v": 1
    },
    {
      "midi": 65,
      "hit": false,
      "t": 200156.25,
      "d": 933.59375,
      "v": 1
    },
    {
      "midi": 70,
      "hit": false,
      "t": 200156.25,
      "d": 933.59375,
      "v": 1
    },
    {
      "midi": 86,
      "hit": false,
      "t": 200625,
      "d": 166.015625,
      "v": 61
    },
    {
      "midi": 89,
      "hit": false,
      "t": 200625,
      "d": 166.015625,
      "v": 63
    },
    {
      "midi": 94,
      "hit": false,
      "t": 200625,
      "d": 210.9375,
      "v": 53
    },
    {
      "midi": 91,
      "hit": false,
      "t": 201093.75,
      "d": 166.015625,
      "v": 63
    },
    {
      "midi": 87,
      "hit": false,
      "t": 201093.75,
      "d": 171.875,
      "v": 65
    },
    {
      "midi": 94,
      "hit": false,
      "t": 201093.75,
      "d": 210.9375,
      "v": 63
    },
    {
      "midi": 58,
      "hit": false,
      "t": 201093.75,
      "d": 1402.34375,
      "v": 1
    },
    {
      "midi": 63,
      "hit": false,
      "t": 201093.75,
      "d": 1402.34375,
      "v": 1
    },
    {
      "midi": 67,
      "hit": false,
      "t": 201093.75,
      "d": 1402.34375,
      "v": 1
    },
    {
      "midi": 70,
      "hit": false,
      "t": 201093.75,
      "d": 1402.34375,
      "v": 1
    },
    {
      "midi": 91,
      "hit": false,
      "t": 201562.5,
      "d": 181.640625,
      "v": 55
    },
    {
      "midi": 87,
      "hit": false,
      "t": 201562.5,
      "d": 195.3125,
      "v": 52
    },
    {
      "midi": 94,
      "hit": false,
      "t": 201562.5,
      "d": 234.375,
      "v": 58
    },
    {
      "midi": 91,
      "hit": false,
      "t": 202031.25,
      "d": 175.78125,
      "v": 64
    },
    {
      "midi": 87,
      "hit": false,
      "t": 202031.25,
      "d": 181.640625,
      "v": 58
    },
    {
      "midi": 94,
      "hit": false,
      "t": 202031.25,
      "d": 244.140625,
      "v": 54
    },
    {
      "midi": 86,
      "hit": false,
      "t": 202500,
      "d": 136.71875,
      "v": 76
    },
    {
      "midi": 89,
      "hit": false,
      "t": 202500,
      "d": 142.578125,
      "v": 69
    },
    {
      "midi": 94,
      "hit": false,
      "t": 202500,
      "d": 195.3125,
      "v": 69
    },
    {
      "midi": 58,
      "hit": false,
      "t": 202500,
      "d": 2808.59375,
      "v": 1
    },
    {
      "midi": 62,
      "hit": false,
      "t": 202500,
      "d": 2808.59375,
      "v": 1
    },
    {
      "midi": 65,
      "hit": false,
      "t": 202500,
      "d": 2808.59375,
      "v": 1
    },
    {
      "midi": 70,
      "hit": false,
      "t": 202500,
      "d": 2808.59375,
      "v": 1
    },
    {
      "midi": 86,
      "hit": false,
      "t": 202968.75,
      "d": 175.78125,
      "v": 62
    },
    {
      "midi": 89,
      "hit": false,
      "t": 202968.75,
      "d": 185.546875,
      "v": 62
    },
    {
      "midi": 94,
      "hit": false,
      "t": 202968.75,
      "d": 214.84375,
      "v": 63
    },
    {
      "midi": 86,
      "hit": false,
      "t": 203437.5,
      "d": 166.015625,
      "v": 58
    },
    {
      "midi": 89,
      "hit": false,
      "t": 203437.5,
      "d": 166.015625,
      "v": 57
    },
    {
      "midi": 94,
      "hit": false,
      "t": 203437.5,
      "d": 210.9375,
      "v": 54
    },
    {
      "midi": 89,
      "hit": false,
      "t": 203906.25,
      "d": 166.015625,
      "v": 63
    },
    {
      "midi": 86,
      "hit": false,
      "t": 203906.25,
      "d": 171.875,
      "v": 71
    },
    {
      "midi": 94,
      "hit": false,
      "t": 203906.25,
      "d": 210.9375,
      "v": 70
    },
    {
      "midi": 89,
      "hit": false,
      "t": 204375,
      "d": 181.640625,
      "v": 62
    },
    {
      "midi": 86,
      "hit": false,
      "t": 204375,
      "d": 195.3125,
      "v": 52
    },
    {
      "midi": 94,
      "hit": false,
      "t": 204375,
      "d": 234.375,
      "v": 59
    },
    {
      "midi": 89,
      "hit": false,
      "t": 204843.75,
      "d": 175.78125,
      "v": 68
    },
    {
      "midi": 86,
      "hit": false,
      "t": 204843.75,
      "d": 181.640625,
      "v": 61
    },
    {
      "midi": 94,
      "hit": false,
      "t": 204843.75,
      "d": 244.140625,
      "v": 54
    },
    {
      "midi": 84,
      "hit": false,
      "t": 205312.5,
      "d": 185.546875,
      "v": 70
    },
    {
      "midi": 87,
      "hit": false,
      "t": 205312.5,
      "d": 230.46875,
      "v": 74
    },
    {
      "midi": 93,
      "hit": false,
      "t": 205312.5,
      "d": 240.234375,
      "v": 78
    },
    {
      "midi": 84,
      "hit": false,
      "t": 205781.25,
      "d": 156.25,
      "v": 60
    },
    {
      "midi": 87,
      "hit": false,
      "t": 205781.25,
      "d": 201.171875,
      "v": 72
    },
    {
      "midi": 93,
      "hit": false,
      "t": 205781.25,
      "d": 201.171875,
      "v": 61
    },
    {
      "midi": 84,
      "hit": false,
      "t": 206250,
      "d": 175.78125,
      "v": 53
    },
    {
      "midi": 87,
      "hit": false,
      "t": 206250,
      "d": 205.078125,
      "v": 60
    },
    {
      "midi": 93,
      "hit": false,
      "t": 206250,
      "d": 230.46875,
      "v": 64
    },
    {
      "midi": 57,
      "hit": false,
      "t": 206250,
      "d": 933.59375,
      "v": 1
    },
    {
      "midi": 65,
      "hit": false,
      "t": 206250,
      "d": 933.59375,
      "v": 1
    },
    {
      "midi": 69,
      "hit": false,
      "t": 206250,
      "d": 933.59375,
      "v": 1
    },
    {
      "midi": 84,
      "hit": false,
      "t": 206718.75,
      "d": 185.546875,
      "v": 55
    },
    {
      "midi": 87,
      "hit": false,
      "t": 206718.75,
      "d": 214.84375,
      "v": 69
    },
    {
      "midi": 93,
      "hit": false,
      "t": 206718.75,
      "d": 253.90625,
      "v": 62
    },
    {
      "midi": 87,
      "hit": false,
      "t": 207187.5,
      "d": 152.34375,
      "v": 65
    },
    {
      "midi": 84,
      "hit": false,
      "t": 207187.5,
      "d": 171.875,
      "v": 47
    },
    {
      "midi": 93,
      "hit": false,
      "t": 207187.5,
      "d": 195.3125,
      "v": 59
    },
    {
      "midi": 55,
      "hit": false,
      "t": 207187.5,
      "d": 464.84375,
      "v": 1
    },
    {
      "midi": 63,
      "hit": false,
      "t": 207187.5,
      "d": 464.84375,
      "v": 1
    },
    {
      "midi": 67,
      "hit": false,
      "t": 207187.5,
      "d": 464.84375,
      "v": 1
    },
    {
      "midi": 87,
      "hit": false,
      "t": 207656.25,
      "d": 191.40625,
      "v": 76
    },
    {
      "midi": 84,
      "hit": false,
      "t": 207656.25,
      "d": 195.3125,
      "v": 54
    },
    {
      "midi": 93,
      "hit": false,
      "t": 207656.25,
      "d": 224.609375,
      "v": 66
    },
    {
      "midi": 53,
      "hit": false,
      "t": 207656.25,
      "d": 464.84375,
      "v": 1
    },
    {
      "midi": 62,
      "hit": false,
      "t": 207656.25,
      "d": 464.84375,
      "v": 1
    },
    {
      "midi": 65,
      "hit": false,
      "t": 207656.25,
      "d": 464.84375,
      "v": 1
    },
    {
      "midi": 84,
      "hit": false,
      "t": 208125,
      "d": 171.875,
      "v": 65
    },
    {
      "midi": 87,
      "hit": false,
      "t": 208125,
      "d": 185.546875,
      "v": 73
    },
    {
      "midi": 93,
      "hit": false,
      "t": 208125,
      "d": 250,
      "v": 76
    },
    {
      "midi": 57,
      "hit": false,
      "t": 208125,
      "d": 933.59375,
      "v": 1
    },
    {
      "midi": 65,
      "hit": false,
      "t": 208125,
      "d": 933.59375,
      "v": 1
    },
    {
      "midi": 69,
      "hit": false,
      "t": 208125,
      "d": 933.59375,
      "v": 1
    },
    {
      "midi": 58,
      "hit": false,
      "t": 210937.5,
      "d": 1402.34375,
      "v": 1
    },
    {
      "midi": 62,
      "hit": false,
      "t": 210937.5,
      "d": 1402.34375,
      "v": 1
    },
    {
      "midi": 65,
      "hit": false,
      "t": 210937.5,
      "d": 1402.34375,
      "v": 1
    },
    {
      "midi": 70,
      "hit": false,
      "t": 210937.5,
      "d": 1402.34375,
      "v": 1
    },
    {
      "midi": 55,
      "hit": false,
      "t": 212343.75,
      "d": 1402.34375,
      "v": 1
    },
    {
      "midi": 60,
      "hit": false,
      "t": 212343.75,
      "d": 1402.34375,
      "v": 1
    },
    {
      "midi": 63,
      "hit": false,
      "t": 212343.75,
      "d": 1402.34375,
      "v": 1
    },
    {
      "midi": 70,
      "hit": false,
      "t": 212343.75,
      "d": 1402.34375,
      "v": 1
    },
    {
      "midi": 58,
      "hit": false,
      "t": 213750,
      "d": 3746.09375,
      "v": 1
    },
    {
      "midi": 62,
      "hit": false,
      "t": 213750,
      "d": 3746.09375,
      "v": 1
    },
    {
      "midi": 65,
      "hit": false,
      "t": 213750,
      "d": 3746.09375,
      "v": 1
    },
    {
      "midi": 70,
      "hit": false,
      "t": 213750,
      "d": 3746.09375,
      "v": 1
    }
  ]
}