{
  "jsonPath": "Pop/Classic Italian Pop/Alex Baroni/binario-4.json",
  "path": "Pop\\Classic Italian Pop\\Alex Baroni\\Binario 4.mid",
  "name": "Binario 4",
  "difficulty": "Advanced",
  "bpm": 120,
  "notes": [
    {
      "midi": 42,
      "hit": false,
      "t": 5065.7898958333335,
      "d": 289.4737083333339,
      "v": 103
    },
    {
      "midi": 69,
      "hit": false,
      "t": 5065.7898958333335,
      "d": 312.5000260416673,
      "v": 87
    },
    {
      "midi": 64,
      "hit": false,
      "t": 5065.7898958333335,
      "d": 335.5263437500007,
      "v": 74
    },
    {
      "midi": 73,
      "hit": false,
      "t": 5095.395161458334,
      "d": 335.5263437500007,
      "v": 92
    },
    {
      "midi": 54,
      "hit": false,
      "t": 5381.579395833334,
      "d": 315.78950000000077,
      "v": 76
    },
    {
      "midi": 64,
      "hit": false,
      "t": 5697.368895833335,
      "d": 276.3158125,
      "v": 77
    },
    {
      "midi": 69,
      "hit": false,
      "t": 5703.947843750002,
      "d": 1871.7106822916667,
      "v": 76
    },
    {
      "midi": 73,
      "hit": false,
      "t": 5720.395213541668,
      "d": 361.8421354166667,
      "v": 91
    },
    {
      "midi": 57,
      "hit": false,
      "t": 6009.868921875001,
      "d": 1871.7106822916676,
      "v": 85
    },
    {
      "midi": 62,
      "hit": false,
      "t": 6009.868921875001,
      "d": 1871.7106822916676,
      "v": 79
    },
    {
      "midi": 66,
      "hit": false,
      "t": 6009.868921875001,
      "d": 1871.7106822916676,
      "v": 86
    },
    {
      "midi": 35,
      "hit": false,
      "t": 6013.158395833335,
      "d": 1253.289578125,
      "v": 91
    },
    {
      "midi": 35,
      "hit": false,
      "t": 7276.316395833335,
      "d": 917.763234375001,
      "v": 89
    },
    {
      "midi": 64,
      "hit": false,
      "t": 7907.895395833336,
      "d": 141.44738020833302,
      "v": 71
    },
    {
      "midi": 66,
      "hit": false,
      "t": 7927.632239583336,
      "d": 286.1842343750013,
      "v": 94
    },
    {
      "midi": 66,
      "hit": false,
      "t": 8223.684895833338,
      "d": 203.9473854166681,
      "v": 85
    },
    {
      "midi": 69,
      "hit": false,
      "t": 8223.684895833338,
      "d": 203.9473854166681,
      "v": 91
    },
    {
      "midi": 47,
      "hit": false,
      "t": 8223.684895833338,
      "d": 279.6052864583362,
      "v": 79
    },
    {
      "midi": 73,
      "hit": false,
      "t": 8240.132265625005,
      "d": 203.9473854166681,
      "v": 84
    },
    {
      "midi": 59,
      "hit": false,
      "t": 8532.895447916673,
      "d": 1562.5001302083347,
      "v": 70
    },
    {
      "midi": 64,
      "hit": false,
      "t": 8532.895447916673,
      "d": 1562.5001302083347,
      "v": 81
    },
    {
      "midi": 68,
      "hit": false,
      "t": 8532.895447916673,
      "d": 1562.5001302083347,
      "v": 92
    },
    {
      "midi": 40,
      "hit": false,
      "t": 8539.47439583334,
      "d": 595.3947864583333,
      "v": 84
    },
    {
      "midi": 37,
      "hit": false,
      "t": 9171.05339583334,
      "d": 266.4473906250005,
      "v": 85
    },
    {
      "midi": 40,
      "hit": false,
      "t": 9486.84289583334,
      "d": 269.73686458333395,
      "v": 92
    },
    {
      "midi": 37,
      "hit": false,
      "t": 9802.632395833341,
      "d": 236.8421249999992,
      "v": 77
    },
    {
      "midi": 54,
      "hit": false,
      "t": 10118.42189583334,
      "d": 131.5789583333335,
      "v": 97
    },
    {
      "midi": 64,
      "hit": false,
      "t": 10118.42189583334,
      "d": 266.4473906250005,
      "v": 80
    },
    {
      "midi": 69,
      "hit": false,
      "t": 10118.42189583334,
      "d": 266.4473906250005,
      "v": 89
    },
    {
      "midi": 73,
      "hit": false,
      "t": 10138.158739583341,
      "d": 266.4473906250005,
      "v": 93
    },
    {
      "midi": 54,
      "hit": false,
      "t": 10434.211395833341,
      "d": 266.4473906250005,
      "v": 93
    },
    {
      "midi": 64,
      "hit": false,
      "t": 10750.000895833342,
      "d": 276.3158124999991,
      "v": 78
    },
    {
      "midi": 71,
      "hit": false,
      "t": 10753.290369791675,
      "d": 46.05263541666682,
      "v": 81
    },
    {
      "midi": 69,
      "hit": false,
      "t": 10756.579843750009,
      "d": 1871.7106822916649,
      "v": 84
    },
    {
      "midi": 73,
      "hit": false,
      "t": 10776.31668750001,
      "d": 361.84213541666395,
      "v": 90
    },
    {
      "midi": 52,
      "hit": false,
      "t": 10907.895645833341,
      "d": 121.71053645833308,
      "v": 75
    },
    {
      "midi": 57,
      "hit": false,
      "t": 11062.500921875007,
      "d": 1871.7106822916667,
      "v": 79
    },
    {
      "midi": 62,
      "hit": false,
      "t": 11062.500921875007,
      "d": 1871.7106822916667,
      "v": 80
    },
    {
      "midi": 66,
      "hit": false,
      "t": 11062.500921875007,
      "d": 1871.7106822916667,
      "v": 80
    },
    {
      "midi": 35,
      "hit": false,
      "t": 11065.79039583334,
      "d": 1253.289578124999,
      "v": 98
    },
    {
      "midi": 35,
      "hit": false,
      "t": 12328.94839583334,
      "d": 601.9737343750003,
      "v": 84
    },
    {
      "midi": 64,
      "hit": false,
      "t": 12960.52739583334,
      "d": 141.44738020833393,
      "v": 73
    },
    {
      "midi": 47,
      "hit": false,
      "t": 12960.52739583334,
      "d": 279.6052864583344,
      "v": 74
    },
    {
      "midi": 66,
      "hit": false,
      "t": 12980.26423958334,
      "d": 286.1842343749995,
      "v": 89
    },
    {
      "midi": 66,
      "hit": false,
      "t": 13276.31689583334,
      "d": 203.9473854166681,
      "v": 84
    },
    {
      "midi": 69,
      "hit": false,
      "t": 13276.31689583334,
      "d": 203.9473854166681,
      "v": 86
    },
    {
      "midi": 42,
      "hit": false,
      "t": 13276.31689583334,
      "d": 279.6052864583362,
      "v": 77
    },
    {
      "midi": 73,
      "hit": false,
      "t": 13292.764265625008,
      "d": 203.9473854166681,
      "v": 77
    },
    {
      "midi": 59,
      "hit": false,
      "t": 13585.527447916676,
      "d": 1562.5001302083347,
      "v": 78
    },
    {
      "midi": 64,
      "hit": false,
      "t": 13585.527447916676,
      "d": 1562.5001302083347,
      "v": 94
    },
    {
      "midi": 68,
      "hit": false,
      "t": 13585.527447916676,
      "d": 1562.5001302083347,
      "v": 97
    },
    {
      "midi": 40,
      "hit": false,
      "t": 13592.106395833343,
      "d": 595.3947864583333,
      "v": 85
    },
    {
      "midi": 37,
      "hit": false,
      "t": 14223.685395833343,
      "d": 266.4473906250005,
      "v": 80
    },
    {
      "midi": 40,
      "hit": false,
      "t": 14539.474895833344,
      "d": 269.73686458333395,
      "v": 92
    },
    {
      "midi": 37,
      "hit": false,
      "t": 14855.264395833345,
      "d": 236.8421249999992,
      "v": 71
    },
    {
      "midi": 54,
      "hit": false,
      "t": 15171.053895833344,
      "d": 131.5789583333335,
      "v": 101
    },
    {
      "midi": 64,
      "hit": false,
      "t": 15171.053895833344,
      "d": 335.5263437500016,
      "v": 78
    },
    {
      "midi": 69,
      "hit": false,
      "t": 15171.053895833344,
      "d": 335.5263437500016,
      "v": 81
    },
    {
      "midi": 73,
      "hit": false,
      "t": 15190.790739583344,
      "d": 335.5263437500016,
      "v": 94
    },
    {
      "midi": 54,
      "hit": false,
      "t": 15486.843395833344,
      "d": 582.2368906250031,
      "v": 94
    },
    {
      "midi": 64,
      "hit": false,
      "t": 15802.632895833347,
      "d": 276.3158125000009,
      "v": 72
    },
    {
      "midi": 71,
      "hit": false,
      "t": 15805.92236979168,
      "d": 46.05263541666682,
      "v": 78
    },
    {
      "midi": 69,
      "hit": false,
      "t": 15809.211843750014,
      "d": 1871.7106822916685,
      "v": 85
    },
    {
      "midi": 73,
      "hit": false,
      "t": 15828.948687500015,
      "d": 361.84213541666577,
      "v": 87
    },
    {
      "midi": 57,
      "hit": false,
      "t": 16115.132921875014,
      "d": 1871.7106822916649,
      "v": 82
    },
    {
      "midi": 62,
      "hit": false,
      "t": 16115.132921875014,
      "d": 1871.7106822916649,
      "v": 83
    },
    {
      "midi": 66,
      "hit": false,
      "t": 16115.132921875014,
      "d": 1871.7106822916649,
      "v": 88
    },
    {
      "midi": 35,
      "hit": false,
      "t": 16118.422395833348,
      "d": 1095.3948281249995,
      "v": 99
    },
    {
      "midi": 47,
      "hit": false,
      "t": 17065.790895833346,
      "d": 111.84211458333448,
      "v": 76
    },
    {
      "midi": 35,
      "hit": false,
      "t": 17381.58039583335,
      "d": 601.9737343749985,
      "v": 85
    },
    {
      "midi": 64,
      "hit": false,
      "t": 18013.159395833347,
      "d": 141.44738020833393,
      "v": 71
    },
    {
      "midi": 47,
      "hit": false,
      "t": 18013.159395833347,
      "d": 279.60528645833256,
      "v": 80
    },
    {
      "midi": 66,
      "hit": false,
      "t": 18032.896239583348,
      "d": 286.1842343749995,
      "v": 93
    },
    {
      "midi": 66,
      "hit": false,
      "t": 18328.948895833346,
      "d": 203.94738541666447,
      "v": 78
    },
    {
      "midi": 69,
      "hit": false,
      "t": 18328.948895833346,
      "d": 203.94738541666447,
      "v": 91
    },
    {
      "midi": 42,
      "hit": false,
      "t": 18328.948895833346,
      "d": 279.6052864583289,
      "v": 81
    },
    {
      "midi": 73,
      "hit": false,
      "t": 18345.39626562501,
      "d": 203.94738541666447,
      "v": 77
    },
    {
      "midi": 59,
      "hit": false,
      "t": 18638.159447916674,
      "d": 1562.5001302083328,
      "v": 79
    },
    {
      "midi": 64,
      "hit": false,
      "t": 18638.159447916674,
      "d": 1562.5001302083328,
      "v": 95
    },
    {
      "midi": 68,
      "hit": false,
      "t": 18638.159447916674,
      "d": 1562.5001302083328,
      "v": 95
    },
    {
      "midi": 40,
      "hit": false,
      "t": 18644.73839583334,
      "d": 595.3947864583351,
      "v": 89
    },
    {
      "midi": 37,
      "hit": false,
      "t": 19276.317395833343,
      "d": 266.44739062499866,
      "v": 86
    },
    {
      "midi": 40,
      "hit": false,
      "t": 19592.10689583334,
      "d": 269.73686458333395,
      "v": 92
    },
    {
      "midi": 37,
      "hit": false,
      "t": 19907.89639583334,
      "d": 236.8421249999992,
      "v": 79
    },
    {
      "midi": 54,
      "hit": false,
      "t": 20223.68589583334,
      "d": 131.57895833333532,
      "v": 100
    },
    {
      "midi": 64,
      "hit": false,
      "t": 20223.68589583334,
      "d": 335.52634375000343,
      "v": 77
    },
    {
      "midi": 69,
      "hit": false,
      "t": 20223.68589583334,
      "d": 335.52634375000343,
      "v": 89
    },
    {
      "midi": 73,
      "hit": false,
      "t": 20243.42273958334,
      "d": 335.52634375000343,
      "v": 93
    },
    {
      "midi": 54,
      "hit": false,
      "t": 20539.475395833342,
      "d": 302.6316041666687,
      "v": 97
    },
    {
      "midi": 64,
      "hit": false,
      "t": 20855.264895833345,
      "d": 276.31581249999726,
      "v": 73
    },
    {
      "midi": 71,
      "hit": false,
      "t": 20858.554369791676,
      "d": 46.052635416665,
      "v": 84
    },
    {
      "midi": 69,
      "hit": false,
      "t": 20861.843843750008,
      "d": 1871.7106822916685,
      "v": 82
    },
    {
      "midi": 73,
      "hit": false,
      "t": 20881.58068750001,
      "d": 361.84213541666395,
      "v": 89
    },
    {
      "midi": 52,
      "hit": false,
      "t": 21013.15964583334,
      "d": 111.84211458333448,
      "v": 77
    },
    {
      "midi": 57,
      "hit": false,
      "t": 21167.76492187501,
      "d": 1871.7106822916649,
      "v": 80
    },
    {
      "midi": 62,
      "hit": false,
      "t": 21167.76492187501,
      "d": 1871.7106822916649,
      "v": 83
    },
    {
      "midi": 66,
      "hit": false,
      "t": 21167.76492187501,
      "d": 1871.7106822916649,
      "v": 85
    },
    {
      "midi": 35,
      "hit": false,
      "t": 21171.05439583334,
      "d": 1095.3948281250014,
      "v": 100
    },
    {
      "midi": 47,
      "hit": false,
      "t": 22118.42289583334,
      "d": 111.84211458333448,
      "v": 81
    },
    {
      "midi": 35,
      "hit": false,
      "t": 22434.212395833343,
      "d": 601.9737343749985,
      "v": 85
    },
    {
      "midi": 64,
      "hit": false,
      "t": 23065.79139583334,
      "d": 141.44738020833393,
      "v": 73
    },
    {
      "midi": 47,
      "hit": false,
      "t": 23065.79139583334,
      "d": 279.60528645833256,
      "v": 81
    },
    {
      "midi": 66,
      "hit": false,
      "t": 23085.528239583342,
      "d": 286.1842343749995,
      "v": 94
    },
    {
      "midi": 66,
      "hit": false,
      "t": 23381.58089583334,
      "d": 203.94738541666447,
      "v": 86
    },
    {
      "midi": 69,
      "hit": false,
      "t": 23381.58089583334,
      "d": 203.94738541666447,
      "v": 89
    },
    {
      "midi": 42,
      "hit": false,
      "t": 23381.58089583334,
      "d": 279.6052864583289,
      "v": 76
    },
    {
      "midi": 73,
      "hit": false,
      "t": 23398.028265625006,
      "d": 203.94738541666447,
      "v": 83
    },
    {
      "midi": 64,
      "hit": false,
      "t": 23690.79144791667,
      "d": 625.000052083331,
      "v": 88
    },
    {
      "midi": 59,
      "hit": false,
      "t": 23690.79144791667,
      "d": 1562.5001302083328,
      "v": 75
    },
    {
      "midi": 68,
      "hit": false,
      "t": 23690.79144791667,
      "d": 1562.5001302083328,
      "v": 97
    },
    {
      "midi": 40,
      "hit": false,
      "t": 23697.370395833335,
      "d": 595.3947864583315,
      "v": 84
    },
    {
      "midi": 64,
      "hit": false,
      "t": 24328.949395833333,
      "d": 424.34214062499814,
      "v": 77
    },
    {
      "midi": 40,
      "hit": false,
      "t": 24328.949395833333,
      "d": 618.421104166664,
      "v": 78
    },
    {
      "midi": 61,
      "hit": false,
      "t": 24644.738895833332,
      "d": 427.63161458333343,
      "v": 74
    },
    {
      "midi": 40,
      "hit": false,
      "t": 24960.52839583333,
      "d": 279.6052864583362,
      "v": 76
    },
    {
      "midi": 64,
      "hit": false,
      "t": 24960.52839583333,
      "d": 305.921078125004,
      "v": 67
    },
    {
      "midi": 42,
      "hit": false,
      "t": 25276.317895833334,
      "d": 289.47370833333116,
      "v": 97
    },
    {
      "midi": 69,
      "hit": false,
      "t": 25276.317895833334,
      "d": 312.50002604166366,
      "v": 95
    },
    {
      "midi": 64,
      "hit": false,
      "t": 25276.317895833334,
      "d": 335.52634374999616,
      "v": 73
    },
    {
      "midi": 73,
      "hit": false,
      "t": 25305.923161458333,
      "d": 335.52634374999616,
      "v": 90
    },
    {
      "midi": 54,
      "hit": false,
      "t": 25592.10739583333,
      "d": 279.60528645833256,
      "v": 78
    },
    {
      "midi": 64,
      "hit": false,
      "t": 25907.896895833328,
      "d": 276.3158125000009,
      "v": 74
    },
    {
      "midi": 69,
      "hit": false,
      "t": 25914.475843749995,
      "d": 1871.7106822916649,
      "v": 81
    },
    {
      "midi": 73,
      "hit": false,
      "t": 25930.92321354166,
      "d": 361.8421354166676,
      "v": 93
    },
    {
      "midi": 52,
      "hit": false,
      "t": 26065.791645833327,
      "d": 121.71053645833308,
      "v": 77
    },
    {
      "midi": 57,
      "hit": false,
      "t": 26220.396921874995,
      "d": 1871.7106822916649,
      "v": 87
    },
    {
      "midi": 62,
      "hit": false,
      "t": 26220.396921874995,
      "d": 1871.7106822916649,
      "v": 79
    },
    {
      "midi": 66,
      "hit": false,
      "t": 26220.396921874995,
      "d": 1871.7106822916649,
      "v": 84
    },
    {
      "midi": 35,
      "hit": false,
      "t": 26223.686395833327,
      "d": 904.6053385416672,
      "v": 93
    },
    {
      "midi": 47,
      "hit": false,
      "t": 26855.26539583333,
      "d": 286.1842343749995,
      "v": 83
    },
    {
      "midi": 35,
      "hit": false,
      "t": 27171.054895833327,
      "d": 128.28948437500003,
      "v": 89
    },
    {
      "midi": 35,
      "hit": false,
      "t": 27486.844395833326,
      "d": 917.763234375001,
      "v": 89
    },
    {
      "midi": 64,
      "hit": false,
      "t": 28118.423395833328,
      "d": 141.44738020833393,
      "v": 73
    },
    {
      "midi": 66,
      "hit": false,
      "t": 28138.16023958333,
      "d": 286.1842343749995,
      "v": 95
    },
    {
      "midi": 66,
      "hit": false,
      "t": 28434.212895833327,
      "d": 203.94738541666447,
      "v": 85
    },
    {
      "midi": 69,
      "hit": false,
      "t": 28434.212895833327,
      "d": 203.94738541666447,
      "v": 94
    },
    {
      "midi": 47,
      "hit": false,
      "t": 28434.212895833327,
      "d": 279.6052864583289,
      "v": 81
    },
    {
      "midi": 61,
      "hit": false,
      "t": 28444.081317708326,
      "d": 203.94738541666447,
      "v": 68
    },
    {
      "midi": 68,
      "hit": false,
      "t": 28743.423447916655,
      "d": 1549.342234374999,
      "v": 91
    },
    {
      "midi": 59,
      "hit": false,
      "t": 28743.423447916655,
      "d": 1562.5001302083292,
      "v": 74
    },
    {
      "midi": 64,
      "hit": false,
      "t": 28743.423447916655,
      "d": 1562.5001302083292,
      "v": 86
    },
    {
      "midi": 40,
      "hit": false,
      "t": 28750.002395833322,
      "d": 595.3947864583351,
      "v": 86
    },
    {
      "midi": 37,
      "hit": false,
      "t": 29381.581395833324,
      "d": 266.44739062499866,
      "v": 86
    },
    {
      "midi": 40,
      "hit": false,
      "t": 29697.370895833323,
      "d": 269.73686458333395,
      "v": 91
    },
    {
      "midi": 37,
      "hit": false,
      "t": 30013.16039583332,
      "d": 236.8421249999992,
      "v": 72
    },
    {
      "midi": 66,
      "hit": false,
      "t": 30302.634104166653,
      "d": 75.65790104166445,
      "v": 78
    },
    {
      "midi": 42,
      "hit": false,
      "t": 30328.949895833317,
      "d": 289.4737083333348,
      "v": 89
    },
    {
      "midi": 61,
      "hit": false,
      "t": 30328.949895833317,
      "d": 335.52634375000343,
      "v": 88
    },
    {
      "midi": 64,
      "hit": false,
      "t": 30328.949895833317,
      "d": 335.52634375000343,
      "v": 75
    },
    {
      "midi": 69,
      "hit": false,
      "t": 30328.949895833317,
      "d": 348.68423958333733,
      "v": 93
    },
    {
      "midi": 42,
      "hit": false,
      "t": 30644.73939583332,
      "d": 279.6052864583362,
      "v": 80
    },
    {
      "midi": 64,
      "hit": false,
      "t": 30960.528895833322,
      "d": 276.3158125000009,
      "v": 74
    },
    {
      "midi": 42,
      "hit": false,
      "t": 30960.528895833322,
      "d": 279.60528645833256,
      "v": 79
    },
    {
      "midi": 61,
      "hit": false,
      "t": 30960.528895833322,
      "d": 361.84213541666395,
      "v": 81
    },
    {
      "midi": 69,
      "hit": false,
      "t": 30967.10784374999,
      "d": 292.76318229166645,
      "v": 91
    },
    {
      "midi": 62,
      "hit": false,
      "t": 31273.02892187499,
      "d": 1855.2633124999993,
      "v": 79
    },
    {
      "midi": 57,
      "hit": false,
      "t": 31273.02892187499,
      "d": 1871.7106822916685,
      "v": 80
    },
    {
      "midi": 66,
      "hit": false,
      "t": 31273.02892187499,
      "d": 1871.7106822916685,
      "v": 79
    },
    {
      "midi": 35,
      "hit": false,
      "t": 31276.31839583332,
      "d": 937.5000781249983,
      "v": 93
    },
    {
      "midi": 47,
      "hit": false,
      "t": 32223.686895833318,
      "d": 286.1842343749995,
      "v": 78
    },
    {
      "midi": 35,
      "hit": false,
      "t": 32539.476395833317,
      "d": 917.763234375012,
      "v": 80
    },
    {
      "midi": 59,
      "hit": false,
      "t": 32855.26589583332,
      "d": 299.34213020833704,
      "v": 64
    },
    {
      "midi": 62,
      "hit": false,
      "t": 33171.055395833326,
      "d": 299.34213020833704,
      "v": 72
    },
    {
      "midi": 47,
      "hit": false,
      "t": 33486.84489583333,
      "d": 157.89474999999948,
      "v": 76
    },
    {
      "midi": 59,
      "hit": false,
      "t": 33486.84489583333,
      "d": 299.34213020832976,
      "v": 75
    },
    {
      "midi": 42,
      "hit": false,
      "t": 33644.73964583333,
      "d": 121.71053645833308,
      "v": 80
    },
    {
      "midi": 59,
      "hit": false,
      "t": 33796.05544791666,
      "d": 1562.5001302083328,
      "v": 70
    },
    {
      "midi": 64,
      "hit": false,
      "t": 33796.05544791666,
      "d": 1562.5001302083328,
      "v": 82
    },
    {
      "midi": 68,
      "hit": false,
      "t": 33796.05544791666,
      "d": 1562.5001302083328,
      "v": 93
    },
    {
      "midi": 40,
      "hit": false,
      "t": 33802.634395833324,
      "d": 1562.5001302083328,
      "v": 87
    },
    {
      "midi": 54,
      "hit": false,
      "t": 35381.581895833326,
      "d": 802.6316458333313,
      "v": 79
    },
    {
      "midi": 64,
      "hit": false,
      "t": 35381.581895833326,
      "d": 802.6316458333313,
      "v": 73
    },
    {
      "midi": 69,
      "hit": false,
      "t": 35381.581895833326,
      "d": 802.6316458333313,
      "v": 78
    },
    {
      "midi": 73,
      "hit": false,
      "t": 35381.581895833326,
      "d": 802.6316458333313,
      "v": 90
    },
    {
      "midi": 47,
      "hit": false,
      "t": 36328.95039583332,
      "d": 1467.1053854166676,
      "v": 82
    },
    {
      "midi": 62,
      "hit": false,
      "t": 36328.95039583332,
      "d": 1467.1053854166676,
      "v": 82
    },
    {
      "midi": 66,
      "hit": false,
      "t": 36328.95039583332,
      "d": 1467.1053854166676,
      "v": 83
    },
    {
      "midi": 69,
      "hit": false,
      "t": 36328.95039583332,
      "d": 1467.1053854166676,
      "v": 90
    },
    {
      "midi": 45,
      "hit": false,
      "t": 37907.897895833325,
      "d": 809.2105937500019,
      "v": 70
    },
    {
      "midi": 57,
      "hit": false,
      "t": 37907.897895833325,
      "d": 809.2105937500019,
      "v": 67
    },
    {
      "midi": 62,
      "hit": false,
      "t": 37907.897895833325,
      "d": 809.2105937500019,
      "v": 72
    },
    {
      "midi": 66,
      "hit": false,
      "t": 37907.897895833325,
      "d": 809.2105937500019,
      "v": 75
    },
    {
      "midi": 52,
      "hit": false,
      "t": 38855.26639583333,
      "d": 1453.9474895833337,
      "v": 68
    },
    {
      "midi": 56,
      "hit": false,
      "t": 38855.26639583333,
      "d": 1453.9474895833337,
      "v": 72
    },
    {
      "midi": 59,
      "hit": false,
      "t": 38855.26639583333,
      "d": 1453.9474895833337,
      "v": 72
    },
    {
      "midi": 64,
      "hit": false,
      "t": 38855.26639583333,
      "d": 1453.9474895833337,
      "v": 65
    },
    {
      "midi": 54,
      "hit": false,
      "t": 40434.21389583333,
      "d": 802.6316458333313,
      "v": 77
    },
    {
      "midi": 64,
      "hit": false,
      "t": 40434.21389583333,
      "d": 802.6316458333313,
      "v": 76
    },
    {
      "midi": 69,
      "hit": false,
      "t": 40434.21389583333,
      "d": 802.6316458333313,
      "v": 74
    },
    {
      "midi": 73,
      "hit": false,
      "t": 40434.21389583333,
      "d": 802.6316458333313,
      "v": 91
    },
    {
      "midi": 47,
      "hit": false,
      "t": 41381.58239583333,
      "d": 1467.1053854166676,
      "v": 75
    },
    {
      "midi": 62,
      "hit": false,
      "t": 41381.58239583333,
      "d": 1467.1053854166676,
      "v": 81
    },
    {
      "midi": 66,
      "hit": false,
      "t": 41381.58239583333,
      "d": 1467.1053854166676,
      "v": 79
    },
    {
      "midi": 69,
      "hit": false,
      "t": 41381.58239583333,
      "d": 1467.1053854166676,
      "v": 93
    },
    {
      "midi": 45,
      "hit": false,
      "t": 42960.52989583333,
      "d": 809.2105937500019,
      "v": 71
    },
    {
      "midi": 57,
      "hit": false,
      "t": 42960.52989583333,
      "d": 809.2105937500019,
      "v": 70
    },
    {
      "midi": 62,
      "hit": false,
      "t": 42960.52989583333,
      "d": 809.2105937500019,
      "v": 71
    },
    {
      "midi": 66,
      "hit": false,
      "t": 42960.52989583333,
      "d": 809.2105937500019,
      "v": 71
    },
    {
      "midi": 52,
      "hit": false,
      "t": 43907.898395833334,
      "d": 1453.9474895833337,
      "v": 72
    },
    {
      "midi": 56,
      "hit": false,
      "t": 43907.898395833334,
      "d": 1453.9474895833337,
      "v": 69
    },
    {
      "midi": 59,
      "hit": false,
      "t": 43907.898395833334,
      "d": 1453.9474895833337,
      "v": 68
    },
    {
      "midi": 64,
      "hit": false,
      "t": 43907.898395833334,
      "d": 1453.9474895833337,
      "v": 69
    },
    {
      "midi": 54,
      "hit": false,
      "t": 45486.845895833336,
      "d": 802.6316458333313,
      "v": 77
    },
    {
      "midi": 64,
      "hit": false,
      "t": 45486.845895833336,
      "d": 802.6316458333313,
      "v": 75
    },
    {
      "midi": 69,
      "hit": false,
      "t": 45486.845895833336,
      "d": 802.6316458333313,
      "v": 80
    },
    {
      "midi": 73,
      "hit": false,
      "t": 45486.845895833336,
      "d": 802.6316458333313,
      "v": 95
    },
    {
      "midi": 47,
      "hit": false,
      "t": 46434.21439583333,
      "d": 1467.1053854166676,
      "v": 76
    },
    {
      "midi": 62,
      "hit": false,
      "t": 46434.21439583333,
      "d": 1467.1053854166676,
      "v": 80
    },
    {
      "midi": 66,
      "hit": false,
      "t": 46434.21439583333,
      "d": 1467.1053854166676,
      "v": 80
    },
    {
      "midi": 69,
      "hit": false,
      "t": 46434.21439583333,
      "d": 1467.1053854166676,
      "v": 94
    },
    {
      "midi": 45,
      "hit": false,
      "t": 48013.161895833335,
      "d": 809.2105937500019,
      "v": 67
    },
    {
      "midi": 57,
      "hit": false,
      "t": 48013.161895833335,
      "d": 809.2105937500019,
      "v": 68
    },
    {
      "midi": 62,
      "hit": false,
      "t": 48013.161895833335,
      "d": 809.2105937500019,
      "v": 71
    },
    {
      "midi": 66,
      "hit": false,
      "t": 48013.161895833335,
      "d": 809.2105937500019,
      "v": 68
    },
    {
      "midi": 52,
      "hit": false,
      "t": 48960.53039583334,
      "d": 1453.9474895833337,
      "v": 75
    },
    {
      "midi": 56,
      "hit": false,
      "t": 48960.53039583334,
      "d": 1453.9474895833337,
      "v": 66
    },
    {
      "midi": 59,
      "hit": false,
      "t": 48960.53039583334,
      "d": 1453.9474895833337,
      "v": 70
    },
    {
      "midi": 64,
      "hit": false,
      "t": 48960.53039583334,
      "d": 1453.9474895833337,
      "v": 71
    },
    {
      "midi": 54,
      "hit": false,
      "t": 50539.47789583334,
      "d": 802.6316458333313,
      "v": 81
    },
    {
      "midi": 64,
      "hit": false,
      "t": 50539.47789583334,
      "d": 802.6316458333313,
      "v": 77
    },
    {
      "midi": 69,
      "hit": false,
      "t": 50539.47789583334,
      "d": 802.6316458333313,
      "v": 78
    },
    {
      "midi": 73,
      "hit": false,
      "t": 50539.47789583334,
      "d": 802.6316458333313,
      "v": 91
    },
    {
      "midi": 47,
      "hit": false,
      "t": 51486.84639583334,
      "d": 1467.1053854166676,
      "v": 76
    },
    {
      "midi": 62,
      "hit": false,
      "t": 51486.84639583334,
      "d": 1467.1053854166676,
      "v": 79
    },
    {
      "midi": 66,
      "hit": false,
      "t": 51486.84639583334,
      "d": 1467.1053854166676,
      "v": 87
    },
    {
      "midi": 69,
      "hit": false,
      "t": 51486.84639583334,
      "d": 1467.1053854166676,
      "v": 93
    },
    {
      "midi": 52,
      "hit": false,
      "t": 53065.79389583334,
      "d": 802.6316458333313,
      "v": 85
    },
    {
      "midi": 64,
      "hit": false,
      "t": 53065.79389583334,
      "d": 802.6316458333313,
      "v": 78
    },
    {
      "midi": 69,
      "hit": false,
      "t": 53065.79389583334,
      "d": 802.6316458333313,
      "v": 95
    },
    {
      "midi": 71,
      "hit": false,
      "t": 53065.79389583334,
      "d": 802.6316458333313,
      "v": 74
    },
    {
      "midi": 52,
      "hit": false,
      "t": 54013.16239583334,
      "d": 1500.0001249999987,
      "v": 83
    },
    {
      "midi": 59,
      "hit": false,
      "t": 54013.16239583334,
      "d": 1500.0001249999987,
      "v": 80
    },
    {
      "midi": 64,
      "hit": false,
      "t": 54013.16239583334,
      "d": 1500.0001249999987,
      "v": 78
    },
    {
      "midi": 68,
      "hit": false,
      "t": 54013.16239583334,
      "d": 1500.0001249999987,
      "v": 92
    },
    {
      "midi": 47,
      "hit": false,
      "t": 55592.10989583334,
      "d": 2467.10546875,
      "v": 79
    },
    {
      "midi": 62,
      "hit": false,
      "t": 55592.10989583334,
      "d": 2467.10546875,
      "v": 75
    },
    {
      "midi": 69,
      "hit": false,
      "t": 55592.10989583334,
      "d": 2467.10546875,
      "v": 82
    },
    {
      "midi": 71,
      "hit": false,
      "t": 55592.10989583334,
      "d": 2467.10546875,
      "v": 94
    },
    {
      "midi": 54,
      "hit": false,
      "t": 58118.42589583334,
      "d": 2467.10546875,
      "v": 85
    },
    {
      "midi": 64,
      "hit": false,
      "t": 58118.42589583334,
      "d": 2467.10546875,
      "v": 82
    },
    {
      "midi": 69,
      "hit": false,
      "t": 58118.42589583334,
      "d": 2467.10546875,
      "v": 79
    },
    {
      "midi": 73,
      "hit": false,
      "t": 58118.42589583334,
      "d": 2467.10546875,
      "v": 86
    },
    {
      "midi": 52,
      "hit": false,
      "t": 60644.74189583334,
      "d": 2467.10546875,
      "v": 78
    },
    {
      "midi": 64,
      "hit": false,
      "t": 60644.74189583334,
      "d": 2467.10546875,
      "v": 76
    },
    {
      "midi": 68,
      "hit": false,
      "t": 60644.74189583334,
      "d": 2467.10546875,
      "v": 85
    },
    {
      "midi": 71,
      "hit": false,
      "t": 60644.74189583334,
      "d": 2467.10546875,
      "v": 89
    },
    {
      "midi": 49,
      "hit": false,
      "t": 63171.057895833335,
      "d": 2467.1054687499854,
      "v": 84
    },
    {
      "midi": 59,
      "hit": false,
      "t": 63171.057895833335,
      "d": 2467.1054687499854,
      "v": 80
    },
    {
      "midi": 66,
      "hit": false,
      "t": 63328.952645833335,
      "d": 105.26316666666389,
      "v": 78
    },
    {
      "midi": 68,
      "hit": false,
      "t": 63328.952645833335,
      "d": 105.26316666666389,
      "v": 81
    },
    {
      "midi": 73,
      "hit": false,
      "t": 63328.952645833335,
      "d": 105.26316666666389,
      "v": 87
    },
    {
      "midi": 66,
      "hit": false,
      "t": 63802.63689583333,
      "d": 105.26316666666389,
      "v": 75
    },
    {
      "midi": 68,
      "hit": false,
      "t": 63802.63689583333,
      "d": 105.26316666666389,
      "v": 79
    },
    {
      "midi": 73,
      "hit": false,
      "t": 63802.63689583333,
      "d": 105.26316666666389,
      "v": 84
    },
    {
      "midi": 66,
      "hit": false,
      "t": 64276.32114583333,
      "d": 105.26316666666389,
      "v": 75
    },
    {
      "midi": 68,
      "hit": false,
      "t": 64276.32114583333,
      "d": 105.26316666666389,
      "v": 83
    },
    {
      "midi": 73,
      "hit": false,
      "t": 64276.32114583333,
      "d": 105.26316666666389,
      "v": 84
    },
    {
      "midi": 66,
      "hit": false,
      "t": 64750.00539583333,
      "d": 105.26316666666389,
      "v": 73
    },
    {
      "midi": 68,
      "hit": false,
      "t": 64750.00539583333,
      "d": 105.26316666666389,
      "v": 82
    },
    {
      "midi": 73,
      "hit": false,
      "t": 64750.00539583333,
      "d": 105.26316666666389,
      "v": 89
    },
    {
      "midi": 66,
      "hit": false,
      "t": 65223.68964583333,
      "d": 105.26316666666389,
      "v": 71
    },
    {
      "midi": 68,
      "hit": false,
      "t": 65223.68964583333,
      "d": 105.26316666666389,
      "v": 82
    },
    {
      "midi": 73,
      "hit": false,
      "t": 65223.68964583333,
      "d": 105.26316666666389,
      "v": 90
    },
    {
      "midi": 57,
      "hit": false,
      "t": 65697.37389583333,
      "d": 1835.526468750002,
      "v": 87
    },
    {
      "midi": 64,
      "hit": false,
      "t": 65697.37389583333,
      "d": 1835.526468750002,
      "v": 82
    },
    {
      "midi": 69,
      "hit": false,
      "t": 65697.37389583333,
      "d": 1835.526468750002,
      "v": 88
    },
    {
      "midi": 73,
      "hit": false,
      "t": 65697.37389583333,
      "d": 1835.526468750002,
      "v": 95
    },
    {
      "midi": 57,
      "hit": false,
      "t": 67592.11089583334,
      "d": 572.3684687500063,
      "v": 75
    },
    {
      "midi": 64,
      "hit": false,
      "t": 67592.11089583334,
      "d": 572.3684687500063,
      "v": 73
    },
    {
      "midi": 69,
      "hit": false,
      "t": 67592.11089583334,
      "d": 572.3684687500063,
      "v": 76
    },
    {
      "midi": 73,
      "hit": false,
      "t": 67592.11089583334,
      "d": 572.3684687500063,
      "v": 82
    },
    {
      "midi": 56,
      "hit": false,
      "t": 68223.68989583335,
      "d": 1835.526468750002,
      "v": 83
    },
    {
      "midi": 64,
      "hit": false,
      "t": 68223.68989583335,
      "d": 1835.526468750002,
      "v": 80
    },
    {
      "midi": 68,
      "hit": false,
      "t": 68223.68989583335,
      "d": 1835.526468750002,
      "v": 82
    },
    {
      "midi": 71,
      "hit": false,
      "t": 68223.68989583335,
      "d": 1835.526468750002,
      "v": 93
    },
    {
      "midi": 56,
      "hit": false,
      "t": 70118.42689583336,
      "d": 572.3684687500063,
      "v": 75
    },
    {
      "midi": 64,
      "hit": false,
      "t": 70118.42689583336,
      "d": 572.3684687500063,
      "v": 72
    },
    {
      "midi": 68,
      "hit": false,
      "t": 70118.42689583336,
      "d": 572.3684687500063,
      "v": 77
    },
    {
      "midi": 71,
      "hit": false,
      "t": 70118.42689583336,
      "d": 572.3684687500063,
      "v": 85
    },
    {
      "midi": 55,
      "hit": false,
      "t": 70750.00589583337,
      "d": 1835.526468750002,
      "v": 82
    },
    {
      "midi": 62,
      "hit": false,
      "t": 70750.00589583337,
      "d": 1835.526468750002,
      "v": 78
    },
    {
      "midi": 67,
      "hit": false,
      "t": 70750.00589583337,
      "d": 1835.526468750002,
      "v": 80
    },
    {
      "midi": 71,
      "hit": false,
      "t": 70750.00589583337,
      "d": 1835.526468750002,
      "v": 93
    },
    {
      "midi": 55,
      "hit": false,
      "t": 72644.74289583338,
      "d": 572.3684687500063,
      "v": 76
    },
    {
      "midi": 62,
      "hit": false,
      "t": 72644.74289583338,
      "d": 572.3684687500063,
      "v": 74
    },
    {
      "midi": 67,
      "hit": false,
      "t": 72644.74289583338,
      "d": 572.3684687500063,
      "v": 80
    },
    {
      "midi": 71,
      "hit": false,
      "t": 72644.74289583338,
      "d": 572.3684687500063,
      "v": 85
    },
    {
      "midi": 50,
      "hit": false,
      "t": 73276.32189583339,
      "d": 1203.9474687500042,
      "v": 81
    },
    {
      "midi": 62,
      "hit": false,
      "t": 73276.32189583339,
      "d": 1203.9474687500042,
      "v": 81
    },
    {
      "midi": 66,
      "hit": false,
      "t": 73276.32189583339,
      "d": 1203.9474687500042,
      "v": 80
    },
    {
      "midi": 69,
      "hit": false,
      "t": 73276.32189583339,
      "d": 1203.9474687500042,
      "v": 95
    },
    {
      "midi": 52,
      "hit": false,
      "t": 74539.4798958334,
      "d": 1203.9474687500042,
      "v": 82
    },
    {
      "midi": 64,
      "hit": false,
      "t": 74539.4798958334,
      "d": 1203.9474687500042,
      "v": 82
    },
    {
      "midi": 68,
      "hit": false,
      "t": 74539.4798958334,
      "d": 1203.9474687500042,
      "v": 81
    },
    {
      "midi": 71,
      "hit": false,
      "t": 74539.4798958334,
      "d": 1203.9474687500042,
      "v": 95
    },
    {
      "midi": 45,
      "hit": false,
      "t": 75802.63789583341,
      "d": 2467.10546875,
      "v": 86
    },
    {
      "midi": 64,
      "hit": false,
      "t": 75802.63789583341,
      "d": 2467.10546875,
      "v": 79
    },
    {
      "midi": 69,
      "hit": false,
      "t": 75802.63789583341,
      "d": 2467.10546875,
      "v": 88
    },
    {
      "midi": 73,
      "hit": false,
      "t": 75802.63789583341,
      "d": 2467.10546875,
      "v": 95
    },
    {
      "midi": 49,
      "hit": false,
      "t": 78328.95389583342,
      "d": 2467.10546875,
      "v": 79
    },
    {
      "midi": 64,
      "hit": false,
      "t": 78328.95389583342,
      "d": 2467.10546875,
      "v": 82
    },
    {
      "midi": 68,
      "hit": false,
      "t": 78328.95389583342,
      "d": 2467.10546875,
      "v": 83
    },
    {
      "midi": 73,
      "hit": false,
      "t": 78328.95389583342,
      "d": 2467.10546875,
      "v": 92
    },
    {
      "midi": 47,
      "hit": false,
      "t": 80855.26989583342,
      "d": 1203.9474687500042,
      "v": 87
    },
    {
      "midi": 62,
      "hit": false,
      "t": 80855.26989583342,
      "d": 1203.9474687500042,
      "v": 78
    },
    {
      "midi": 66,
      "hit": false,
      "t": 80855.26989583342,
      "d": 1203.9474687500042,
      "v": 84
    },
    {
      "midi": 71,
      "hit": false,
      "t": 80855.26989583342,
      "d": 1203.9474687500042,
      "v": 91
    },
    {
      "midi": 49,
      "hit": false,
      "t": 82118.42789583343,
      "d": 1203.9474687500042,
      "v": 79
    },
    {
      "midi": 64,
      "hit": false,
      "t": 82118.42789583343,
      "d": 1203.9474687500042,
      "v": 78
    },
    {
      "midi": 69,
      "hit": false,
      "t": 82118.42789583343,
      "d": 1203.9474687500042,
      "v": 81
    },
    {
      "midi": 73,
      "hit": false,
      "t": 82118.42789583343,
      "d": 1203.9474687500042,
      "v": 89
    },
    {
      "midi": 50,
      "hit": false,
      "t": 83381.58589583344,
      "d": 1203.9474687500042,
      "v": 81
    },
    {
      "midi": 66,
      "hit": false,
      "t": 83381.58589583344,
      "d": 1203.9474687500042,
      "v": 82
    },
    {
      "midi": 69,
      "hit": false,
      "t": 83381.58589583344,
      "d": 1203.9474687500042,
      "v": 78
    },
    {
      "midi": 74,
      "hit": false,
      "t": 83381.58589583344,
      "d": 1203.9474687500042,
      "v": 90
    },
    {
      "midi": 52,
      "hit": false,
      "t": 84644.74389583345,
      "d": 1203.9474687500042,
      "v": 80
    },
    {
      "midi": 68,
      "hit": false,
      "t": 84644.74389583345,
      "d": 1203.9474687500042,
      "v": 76
    },
    {
      "midi": 71,
      "hit": false,
      "t": 84644.74389583345,
      "d": 1203.9474687500042,
      "v": 82
    },
    {
      "midi": 76,
      "hit": false,
      "t": 84644.74389583345,
      "d": 1203.9474687500042,
      "v": 92
    },
    {
      "midi": 54,
      "hit": false,
      "t": 85907.90189583346,
      "d": 802.6316458333313,
      "v": 80
    },
    {
      "midi": 64,
      "hit": false,
      "t": 85907.90189583346,
      "d": 802.6316458333313,
      "v": 77
    },
    {
      "midi": 69,
      "hit": false,
      "t": 85907.90189583346,
      "d": 802.6316458333313,
      "v": 76
    },
    {
      "midi": 73,
      "hit": false,
      "t": 85907.90189583346,
      "d": 802.6316458333313,
      "v": 90
    },
    {
      "midi": 47,
      "hit": false,
      "t": 86855.27039583346,
      "d": 1467.1053854166676,
      "v": 74
    },
    {
      "midi": 62,
      "hit": false,
      "t": 86855.27039583346,
      "d": 1467.1053854166676,
      "v": 84
    },
    {
      "midi": 66,
      "hit": false,
      "t": 86855.27039583346,
      "d": 1467.1053854166676,
      "v": 81
    },
    {
      "midi": 69,
      "hit": false,
      "t": 86855.27039583346,
      "d": 1467.1053854166676,
      "v": 90
    },
    {
      "midi": 45,
      "hit": false,
      "t": 88434.21789583346,
      "d": 809.2105937500019,
      "v": 70
    },
    {
      "midi": 57,
      "hit": false,
      "t": 88434.21789583346,
      "d": 809.2105937500019,
      "v": 69
    },
    {
      "midi": 62,
      "hit": false,
      "t": 88434.21789583346,
      "d": 809.2105937500019,
      "v": 70
    },
    {
      "midi": 66,
      "hit": false,
      "t": 88434.21789583346,
      "d": 809.2105937500019,
      "v": 65
    },
    {
      "midi": 52,
      "hit": false,
      "t": 89381.58639583345,
      "d": 1453.9474895833264,
      "v": 72
    },
    {
      "midi": 56,
      "hit": false,
      "t": 89381.58639583345,
      "d": 1453.9474895833264,
      "v": 67
    },
    {
      "midi": 59,
      "hit": false,
      "t": 89381.58639583345,
      "d": 1453.9474895833264,
      "v": 66
    },
    {
      "midi": 64,
      "hit": false,
      "t": 89381.58639583345,
      "d": 1453.9474895833264,
      "v": 64
    },
    {
      "midi": 54,
      "hit": false,
      "t": 90960.53389583345,
      "d": 802.6316458333313,
      "v": 77
    },
    {
      "midi": 64,
      "hit": false,
      "t": 90960.53389583345,
      "d": 802.6316458333313,
      "v": 76
    },
    {
      "midi": 69,
      "hit": false,
      "t": 90960.53389583345,
      "d": 802.6316458333313,
      "v": 75
    },
    {
      "midi": 73,
      "hit": false,
      "t": 90960.53389583345,
      "d": 802.6316458333313,
      "v": 92
    },
    {
      "midi": 47,
      "hit": false,
      "t": 91907.90239583344,
      "d": 1467.1053854166676,
      "v": 79
    },
    {
      "midi": 62,
      "hit": false,
      "t": 91907.90239583344,
      "d": 1467.1053854166676,
      "v": 82
    },
    {
      "midi": 66,
      "hit": false,
      "t": 91907.90239583344,
      "d": 1467.1053854166676,
      "v": 85
    },
    {
      "midi": 69,
      "hit": false,
      "t": 91907.90239583344,
      "d": 1467.1053854166676,
      "v": 90
    },
    {
      "midi": 45,
      "hit": false,
      "t": 93486.84989583344,
      "d": 809.2105937500019,
      "v": 64
    },
    {
      "midi": 57,
      "hit": false,
      "t": 93486.84989583344,
      "d": 809.2105937500019,
      "v": 68
    },
    {
      "midi": 62,
      "hit": false,
      "t": 93486.84989583344,
      "d": 809.2105937500019,
      "v": 70
    },
    {
      "midi": 66,
      "hit": false,
      "t": 93486.84989583344,
      "d": 809.2105937500019,
      "v": 67
    },
    {
      "midi": 52,
      "hit": false,
      "t": 94434.21839583344,
      "d": 664.4737395833363,
      "v": 77
    },
    {
      "midi": 56,
      "hit": false,
      "t": 94434.21839583344,
      "d": 664.4737395833363,
      "v": 66
    },
    {
      "midi": 59,
      "hit": false,
      "t": 94434.21839583344,
      "d": 664.4737395833363,
      "v": 73
    },
    {
      "midi": 64,
      "hit": false,
      "t": 94434.21839583344,
      "d": 664.4737395833363,
      "v": 65
    },
    {
      "midi": 54,
      "hit": false,
      "t": 96013.16589583344,
      "d": 802.6316458333313,
      "v": 86
    },
    {
      "midi": 64,
      "hit": false,
      "t": 96013.16589583344,
      "d": 802.6316458333313,
      "v": 74
    },
    {
      "midi": 69,
      "hit": false,
      "t": 96013.16589583344,
      "d": 802.6316458333313,
      "v": 74
    },
    {
      "midi": 73,
      "hit": false,
      "t": 96013.16589583344,
      "d": 802.6316458333313,
      "v": 92
    },
    {
      "midi": 47,
      "hit": false,
      "t": 96960.53439583344,
      "d": 1467.1053854166676,
      "v": 82
    },
    {
      "midi": 62,
      "hit": false,
      "t": 96960.53439583344,
      "d": 1467.1053854166676,
      "v": 83
    },
    {
      "midi": 66,
      "hit": false,
      "t": 96960.53439583344,
      "d": 1467.1053854166676,
      "v": 86
    },
    {
      "midi": 69,
      "hit": false,
      "t": 96960.53439583344,
      "d": 1467.1053854166676,
      "v": 92
    },
    {
      "midi": 45,
      "hit": false,
      "t": 98539.48189583344,
      "d": 809.2105937500019,
      "v": 70
    },
    {
      "midi": 57,
      "hit": false,
      "t": 98539.48189583344,
      "d": 809.2105937500019,
      "v": 67
    },
    {
      "midi": 62,
      "hit": false,
      "t": 98539.48189583344,
      "d": 809.2105937500019,
      "v": 70
    },
    {
      "midi": 66,
      "hit": false,
      "t": 98539.48189583344,
      "d": 809.2105937500019,
      "v": 75
    },
    {
      "midi": 52,
      "hit": false,
      "t": 99486.85039583343,
      "d": 1453.9474895833264,
      "v": 71
    },
    {
      "midi": 56,
      "hit": false,
      "t": 99486.85039583343,
      "d": 1453.9474895833264,
      "v": 71
    },
    {
      "midi": 59,
      "hit": false,
      "t": 99486.85039583343,
      "d": 1453.9474895833264,
      "v": 68
    },
    {
      "midi": 64,
      "hit": false,
      "t": 99486.85039583343,
      "d": 1453.9474895833264,
      "v": 69
    },
    {
      "midi": 54,
      "hit": false,
      "t": 101065.79789583343,
      "d": 802.6316458333313,
      "v": 82
    },
    {
      "midi": 64,
      "hit": false,
      "t": 101065.79789583343,
      "d": 802.6316458333313,
      "v": 75
    },
    {
      "midi": 69,
      "hit": false,
      "t": 101065.79789583343,
      "d": 802.6316458333313,
      "v": 77
    },
    {
      "midi": 73,
      "hit": false,
      "t": 101065.79789583343,
      "d": 802.6316458333313,
      "v": 91
    },
    {
      "midi": 47,
      "hit": false,
      "t": 102013.16639583342,
      "d": 1467.1053854166676,
      "v": 78
    },
    {
      "midi": 62,
      "hit": false,
      "t": 102013.16639583342,
      "d": 1467.1053854166676,
      "v": 82
    },
    {
      "midi": 66,
      "hit": false,
      "t": 102013.16639583342,
      "d": 1467.1053854166676,
      "v": 85
    },
    {
      "midi": 69,
      "hit": false,
      "t": 102013.16639583342,
      "d": 1467.1053854166676,
      "v": 98
    },
    {
      "midi": 45,
      "hit": false,
      "t": 103592.11389583342,
      "d": 809.2105937500019,
      "v": 73
    },
    {
      "midi": 57,
      "hit": false,
      "t": 103592.11389583342,
      "d": 809.2105937500019,
      "v": 68
    },
    {
      "midi": 62,
      "hit": false,
      "t": 103592.11389583342,
      "d": 809.2105937500019,
      "v": 74
    },
    {
      "midi": 66,
      "hit": false,
      "t": 103592.11389583342,
      "d": 809.2105937500019,
      "v": 73
    },
    {
      "midi": 52,
      "hit": false,
      "t": 104539.48239583342,
      "d": 348.68423958333733,
      "v": 79
    },
    {
      "midi": 56,
      "hit": false,
      "t": 104539.48239583342,
      "d": 348.68423958333733,
      "v": 76
    },
    {
      "midi": 59,
      "hit": false,
      "t": 104539.48239583342,
      "d": 348.68423958333733,
      "v": 74
    },
    {
      "midi": 64,
      "hit": false,
      "t": 104539.48239583342,
      "d": 348.68423958333733,
      "v": 72
    },
    {
      "midi": 54,
      "hit": false,
      "t": 106118.42989583343,
      "d": 802.6316458333313,
      "v": 78
    },
    {
      "midi": 64,
      "hit": false,
      "t": 106118.42989583343,
      "d": 802.6316458333313,
      "v": 81
    },
    {
      "midi": 69,
      "hit": false,
      "t": 106118.42989583343,
      "d": 802.6316458333313,
      "v": 77
    },
    {
      "midi": 73,
      "hit": false,
      "t": 106118.42989583343,
      "d": 802.6316458333313,
      "v": 94
    },
    {
      "midi": 47,
      "hit": false,
      "t": 107065.79839583342,
      "d": 1467.1053854166676,
      "v": 78
    },
    {
      "midi": 62,
      "hit": false,
      "t": 107065.79839583342,
      "d": 1467.1053854166676,
      "v": 82
    },
    {
      "midi": 66,
      "hit": false,
      "t": 107065.79839583342,
      "d": 1467.1053854166676,
      "v": 86
    },
    {
      "midi": 69,
      "hit": false,
      "t": 107065.79839583342,
      "d": 1467.1053854166676,
      "v": 94
    },
    {
      "midi": 45,
      "hit": false,
      "t": 108644.74589583342,
      "d": 809.2105937500019,
      "v": 67
    },
    {
      "midi": 57,
      "hit": false,
      "t": 108644.74589583342,
      "d": 809.2105937500019,
      "v": 74
    },
    {
      "midi": 62,
      "hit": false,
      "t": 108644.74589583342,
      "d": 809.2105937500019,
      "v": 75
    },
    {
      "midi": 66,
      "hit": false,
      "t": 108644.74589583342,
      "d": 809.2105937500019,
      "v": 75
    },
    {
      "midi": 52,
      "hit": false,
      "t": 109592.11439583341,
      "d": 1453.9474895833264,
      "v": 76
    },
    {
      "midi": 56,
      "hit": false,
      "t": 109592.11439583341,
      "d": 1453.9474895833264,
      "v": 66
    },
    {
      "midi": 59,
      "hit": false,
      "t": 109592.11439583341,
      "d": 1453.9474895833264,
      "v": 66
    },
    {
      "midi": 64,
      "hit": false,
      "t": 109592.11439583341,
      "d": 1453.9474895833264,
      "v": 66
    },
    {
      "midi": 54,
      "hit": false,
      "t": 111171.06189583341,
      "d": 802.6316458333313,
      "v": 82
    },
    {
      "midi": 64,
      "hit": false,
      "t": 111171.06189583341,
      "d": 802.6316458333313,
      "v": 74
    },
    {
      "midi": 69,
      "hit": false,
      "t": 111171.06189583341,
      "d": 802.6316458333313,
      "v": 75
    },
    {
      "midi": 73,
      "hit": false,
      "t": 111171.06189583341,
      "d": 802.6316458333313,
      "v": 99
    },
    {
      "midi": 47,
      "hit": false,
      "t": 112118.4303958334,
      "d": 1467.1053854166676,
      "v": 82
    },
    {
      "midi": 62,
      "hit": false,
      "t": 112118.4303958334,
      "d": 1467.1053854166676,
      "v": 83
    },
    {
      "midi": 66,
      "hit": false,
      "t": 112118.4303958334,
      "d": 1467.1053854166676,
      "v": 80
    },
    {
      "midi": 69,
      "hit": false,
      "t": 112118.4303958334,
      "d": 1467.1053854166676,
      "v": 98
    },
    {
      "midi": 52,
      "hit": false,
      "t": 113697.3778958334,
      "d": 802.6316458333313,
      "v": 80
    },
    {
      "midi": 64,
      "hit": false,
      "t": 113697.3778958334,
      "d": 802.6316458333313,
      "v": 75
    },
    {
      "midi": 69,
      "hit": false,
      "t": 113697.3778958334,
      "d": 802.6316458333313,
      "v": 97
    },
    {
      "midi": 71,
      "hit": false,
      "t": 113697.3778958334,
      "d": 802.6316458333313,
      "v": 77
    },
    {
      "midi": 52,
      "hit": false,
      "t": 114644.7463958334,
      "d": 1500.000125000006,
      "v": 82
    },
    {
      "midi": 59,
      "hit": false,
      "t": 114644.7463958334,
      "d": 1500.000125000006,
      "v": 74
    },
    {
      "midi": 64,
      "hit": false,
      "t": 114644.7463958334,
      "d": 1500.000125000006,
      "v": 78
    },
    {
      "midi": 68,
      "hit": false,
      "t": 114644.7463958334,
      "d": 1500.000125000006,
      "v": 87
    },
    {
      "midi": 47,
      "hit": false,
      "t": 116223.6938958334,
      "d": 2467.10546875,
      "v": 86
    },
    {
      "midi": 62,
      "hit": false,
      "t": 116223.6938958334,
      "d": 2467.10546875,
      "v": 82
    },
    {
      "midi": 69,
      "hit": false,
      "t": 116223.6938958334,
      "d": 2467.10546875,
      "v": 84
    },
    {
      "midi": 71,
      "hit": false,
      "t": 116223.6938958334,
      "d": 2467.10546875,
      "v": 95
    },
    {
      "midi": 54,
      "hit": false,
      "t": 118750.00989583341,
      "d": 2467.10546875,
      "v": 83
    },
    {
      "midi": 64,
      "hit": false,
      "t": 118750.00989583341,
      "d": 2467.10546875,
      "v": 80
    },
    {
      "midi": 69,
      "hit": false,
      "t": 118750.00989583341,
      "d": 2467.10546875,
      "v": 85
    },
    {
      "midi": 73,
      "hit": false,
      "t": 118750.00989583341,
      "d": 2467.10546875,
      "v": 88
    },
    {
      "midi": 52,
      "hit": false,
      "t": 121276.32589583342,
      "d": 2467.10546875,
      "v": 82
    },
    {
      "midi": 64,
      "hit": false,
      "t": 121276.32589583342,
      "d": 2467.10546875,
      "v": 74
    },
    {
      "midi": 68,
      "hit": false,
      "t": 121276.32589583342,
      "d": 2467.10546875,
      "v": 82
    },
    {
      "midi": 71,
      "hit": false,
      "t": 121276.32589583342,
      "d": 2467.10546875,
      "v": 89
    },
    {
      "midi": 49,
      "hit": false,
      "t": 123802.64189583343,
      "d": 2467.105468750029,
      "v": 78
    },
    {
      "midi": 59,
      "hit": false,
      "t": 123802.64189583343,
      "d": 2467.105468750029,
      "v": 78
    },
    {
      "midi": 66,
      "hit": false,
      "t": 123960.53664583343,
      "d": 105.26316666667117,
      "v": 79
    },
    {
      "midi": 68,
      "hit": false,
      "t": 123960.53664583343,
      "d": 105.26316666667117,
      "v": 78
    },
    {
      "midi": 73,
      "hit": false,
      "t": 123960.53664583343,
      "d": 105.26316666667117,
      "v": 88
    },
    {
      "midi": 66,
      "hit": false,
      "t": 124434.22089583344,
      "d": 105.26316666667117,
      "v": 74
    },
    {
      "midi": 68,
      "hit": false,
      "t": 124434.22089583344,
      "d": 105.26316666667117,
      "v": 83
    },
    {
      "midi": 73,
      "hit": false,
      "t": 124434.22089583344,
      "d": 105.26316666667117,
      "v": 87
    },
    {
      "midi": 66,
      "hit": false,
      "t": 124907.90514583344,
      "d": 105.26316666667117,
      "v": 80
    },
    {
      "midi": 68,
      "hit": false,
      "t": 124907.90514583344,
      "d": 105.26316666667117,
      "v": 85
    },
    {
      "midi": 73,
      "hit": false,
      "t": 124907.90514583344,
      "d": 105.26316666667117,
      "v": 89
    },
    {
      "midi": 66,
      "hit": false,
      "t": 125381.58939583345,
      "d": 105.26316666667117,
      "v": 74
    },
    {
      "midi": 68,
      "hit": false,
      "t": 125381.58939583345,
      "d": 105.26316666667117,
      "v": 82
    },
    {
      "midi": 73,
      "hit": false,
      "t": 125381.58939583345,
      "d": 105.26316666667117,
      "v": 89
    },
    {
      "midi": 66,
      "hit": false,
      "t": 125855.27364583345,
      "d": 105.26316666667117,
      "v": 77
    },
    {
      "midi": 68,
      "hit": false,
      "t": 125855.27364583345,
      "d": 105.26316666667117,
      "v": 81
    },
    {
      "midi": 73,
      "hit": false,
      "t": 125855.27364583345,
      "d": 105.26316666667117,
      "v": 93
    },
    {
      "midi": 57,
      "hit": false,
      "t": 126328.95789583346,
      "d": 1835.526468750002,
      "v": 81
    },
    {
      "midi": 64,
      "hit": false,
      "t": 126328.95789583346,
      "d": 1835.526468750002,
      "v": 80
    },
    {
      "midi": 69,
      "hit": false,
      "t": 126328.95789583346,
      "d": 1835.526468750002,
      "v": 89
    },
    {
      "midi": 73,
      "hit": false,
      "t": 126328.95789583346,
      "d": 1835.526468750002,
      "v": 96
    },
    {
      "midi": 57,
      "hit": false,
      "t": 128223.69489583347,
      "d": 572.3684687500063,
      "v": 77
    },
    {
      "midi": 64,
      "hit": false,
      "t": 128223.69489583347,
      "d": 572.3684687500063,
      "v": 75
    },
    {
      "midi": 69,
      "hit": false,
      "t": 128223.69489583347,
      "d": 572.3684687500063,
      "v": 83
    },
    {
      "midi": 73,
      "hit": false,
      "t": 128223.69489583347,
      "d": 572.3684687500063,
      "v": 90
    },
    {
      "midi": 56,
      "hit": false,
      "t": 128855.27389583348,
      "d": 1835.526468750002,
      "v": 82
    },
    {
      "midi": 64,
      "hit": false,
      "t": 128855.27389583348,
      "d": 1835.526468750002,
      "v": 80
    },
    {
      "midi": 68,
      "hit": false,
      "t": 128855.27389583348,
      "d": 1835.526468750002,
      "v": 82
    },
    {
      "midi": 71,
      "hit": false,
      "t": 128855.27389583348,
      "d": 1835.526468750002,
      "v": 96
    },
    {
      "midi": 56,
      "hit": false,
      "t": 130750.01089583349,
      "d": 572.3684687500063,
      "v": 79
    },
    {
      "midi": 64,
      "hit": false,
      "t": 130750.01089583349,
      "d": 572.3684687500063,
      "v": 75
    },
    {
      "midi": 68,
      "hit": false,
      "t": 130750.01089583349,
      "d": 572.3684687500063,
      "v": 75
    },
    {
      "midi": 71,
      "hit": false,
      "t": 130750.01089583349,
      "d": 572.3684687500063,
      "v": 85
    },
    {
      "midi": 55,
      "hit": false,
      "t": 131381.5898958335,
      "d": 1835.526468750002,
      "v": 82
    },
    {
      "midi": 62,
      "hit": false,
      "t": 131381.5898958335,
      "d": 1835.526468750002,
      "v": 78
    },
    {
      "midi": 67,
      "hit": false,
      "t": 131381.5898958335,
      "d": 1835.526468750002,
      "v": 86
    },
    {
      "midi": 71,
      "hit": false,
      "t": 131381.5898958335,
      "d": 1835.526468750002,
      "v": 91
    },
    {
      "midi": 55,
      "hit": false,
      "t": 133276.32689583348,
      "d": 572.3684687500063,
      "v": 83
    },
    {
      "midi": 62,
      "hit": false,
      "t": 133276.32689583348,
      "d": 572.3684687500063,
      "v": 72
    },
    {
      "midi": 67,
      "hit": false,
      "t": 133276.32689583348,
      "d": 572.3684687500063,
      "v": 83
    },
    {
      "midi": 71,
      "hit": false,
      "t": 133276.32689583348,
      "d": 572.3684687500063,
      "v": 84
    },
    {
      "midi": 50,
      "hit": false,
      "t": 133907.90589583348,
      "d": 1203.9474687500042,
      "v": 87
    },
    {
      "midi": 62,
      "hit": false,
      "t": 133907.90589583348,
      "d": 1203.9474687500042,
      "v": 82
    },
    {
      "midi": 66,
      "hit": false,
      "t": 133907.90589583348,
      "d": 1203.9474687500042,
      "v": 89
    },
    {
      "midi": 69,
      "hit": false,
      "t": 133907.90589583348,
      "d": 1203.9474687500042,
      "v": 97
    },
    {
      "midi": 52,
      "hit": false,
      "t": 135171.06389583347,
      "d": 1203.9474687500042,
      "v": 82
    },
    {
      "midi": 64,
      "hit": false,
      "t": 135171.06389583347,
      "d": 1203.9474687500042,
      "v": 79
    },
    {
      "midi": 68,
      "hit": false,
      "t": 135171.06389583347,
      "d": 1203.9474687500042,
      "v": 81
    },
    {
      "midi": 71,
      "hit": false,
      "t": 135171.06389583347,
      "d": 1203.9474687500042,
      "v": 89
    },
    {
      "midi": 45,
      "hit": false,
      "t": 136434.22189583347,
      "d": 2467.10546875,
      "v": 85
    },
    {
      "midi": 64,
      "hit": false,
      "t": 136434.22189583347,
      "d": 2467.10546875,
      "v": 79
    },
    {
      "midi": 69,
      "hit": false,
      "t": 136434.22189583347,
      "d": 2467.10546875,
      "v": 81
    },
    {
      "midi": 73,
      "hit": false,
      "t": 136434.22189583347,
      "d": 2467.10546875,
      "v": 94
    },
    {
      "midi": 49,
      "hit": false,
      "t": 138960.53789583346,
      "d": 2467.10546875,
      "v": 81
    },
    {
      "midi": 64,
      "hit": false,
      "t": 138960.53789583346,
      "d": 2467.10546875,
      "v": 81
    },
    {
      "midi": 68,
      "hit": false,
      "t": 138960.53789583346,
      "d": 2467.10546875,
      "v": 83
    },
    {
      "midi": 73,
      "hit": false,
      "t": 138960.53789583346,
      "d": 2467.10546875,
      "v": 97
    },
    {
      "midi": 47,
      "hit": false,
      "t": 141486.85389583345,
      "d": 1203.9474687500042,
      "v": 83
    },
    {
      "midi": 62,
      "hit": false,
      "t": 141486.85389583345,
      "d": 1203.9474687500042,
      "v": 77
    },
    {
      "midi": 66,
      "hit": false,
      "t": 141486.85389583345,
      "d": 1203.9474687500042,
      "v": 86
    },
    {
      "midi": 71,
      "hit": false,
      "t": 141486.85389583345,
      "d": 1203.9474687500042,
      "v": 89
    },
    {
      "midi": 49,
      "hit": false,
      "t": 142750.01189583345,
      "d": 1203.9474687500042,
      "v": 84
    },
    {
      "midi": 64,
      "hit": false,
      "t": 142750.01189583345,
      "d": 1203.9474687500042,
      "v": 83
    },
    {
      "midi": 69,
      "hit": false,
      "t": 142750.01189583345,
      "d": 1203.9474687500042,
      "v": 83
    },
    {
      "midi": 73,
      "hit": false,
      "t": 142750.01189583345,
      "d": 1203.9474687500042,
      "v": 92
    },
    {
      "midi": 50,
      "hit": false,
      "t": 144013.16989583345,
      "d": 1203.9474687500042,
      "v": 88
    },
    {
      "midi": 66,
      "hit": false,
      "t": 144013.16989583345,
      "d": 1203.9474687500042,
      "v": 87
    },
    {
      "midi": 69,
      "hit": false,
      "t": 144013.16989583345,
      "d": 1203.9474687500042,
      "v": 78
    },
    {
      "midi": 74,
      "hit": false,
      "t": 144013.16989583345,
      "d": 1203.9474687500042,
      "v": 97
    },
    {
      "midi": 52,
      "hit": false,
      "t": 145276.32789583344,
      "d": 1203.9474687500042,
      "v": 80
    },
    {
      "midi": 68,
      "hit": false,
      "t": 145276.32789583344,
      "d": 1203.9474687500042,
      "v": 82
    },
    {
      "midi": 71,
      "hit": false,
      "t": 145276.32789583344,
      "d": 1203.9474687500042,
      "v": 89
    },
    {
      "midi": 76,
      "hit": false,
      "t": 145276.32789583344,
      "d": 1203.9474687500042,
      "v": 90
    },
    {
      "midi": 59,
      "hit": false,
      "t": 146539.48589583344,
      "d": 1835.526468750002,
      "v": 81
    },
    {
      "midi": 66,
      "hit": false,
      "t": 146539.48589583344,
      "d": 1835.526468750002,
      "v": 84
    },
    {
      "midi": 71,
      "hit": false,
      "t": 146539.48589583344,
      "d": 1835.526468750002,
      "v": 82
    },
    {
      "midi": 75,
      "hit": false,
      "t": 146539.48589583344,
      "d": 1835.526468750002,
      "v": 90
    },
    {
      "midi": 59,
      "hit": false,
      "t": 148434.22289583343,
      "d": 572.3684687500063,
      "v": 78
    },
    {
      "midi": 66,
      "hit": false,
      "t": 148434.22289583343,
      "d": 572.3684687500063,
      "v": 79
    },
    {
      "midi": 71,
      "hit": false,
      "t": 148434.22289583343,
      "d": 572.3684687500063,
      "v": 84
    },
    {
      "midi": 75,
      "hit": false,
      "t": 148434.22289583343,
      "d": 572.3684687500063,
      "v": 84
    },
    {
      "midi": 58,
      "hit": false,
      "t": 149065.80189583343,
      "d": 1835.526468750002,
      "v": 84
    },
    {
      "midi": 66,
      "hit": false,
      "t": 149065.80189583343,
      "d": 1835.526468750002,
      "v": 79
    },
    {
      "midi": 70,
      "hit": false,
      "t": 149065.80189583343,
      "d": 1835.526468750002,
      "v": 86
    },
    {
      "midi": 73,
      "hit": false,
      "t": 149065.80189583343,
      "d": 1835.526468750002,
      "v": 91
    },
    {
      "midi": 58,
      "hit": false,
      "t": 150960.53889583342,
      "d": 572.3684687500063,
      "v": 79
    },
    {
      "midi": 66,
      "hit": false,
      "t": 150960.53889583342,
      "d": 572.3684687500063,
      "v": 74
    },
    {
      "midi": 70,
      "hit": false,
      "t": 150960.53889583342,
      "d": 572.3684687500063,
      "v": 84
    },
    {
      "midi": 73,
      "hit": false,
      "t": 150960.53889583342,
      "d": 572.3684687500063,
      "v": 92
    },
    {
      "midi": 57,
      "hit": false,
      "t": 151592.11789583342,
      "d": 1835.526468750002,
      "v": 87
    },
    {
      "midi": 64,
      "hit": false,
      "t": 151592.11789583342,
      "d": 1835.526468750002,
      "v": 83
    },
    {
      "midi": 69,
      "hit": false,
      "t": 151592.11789583342,
      "d": 1835.526468750002,
      "v": 85
    },
    {
      "midi": 73,
      "hit": false,
      "t": 151592.11789583342,
      "d": 1835.526468750002,
      "v": 90
    },
    {
      "midi": 57,
      "hit": false,
      "t": 153486.8548958334,
      "d": 572.3684687500063,
      "v": 82
    },
    {
      "midi": 64,
      "hit": false,
      "t": 153486.8548958334,
      "d": 572.3684687500063,
      "v": 78
    },
    {
      "midi": 69,
      "hit": false,
      "t": 153486.8548958334,
      "d": 572.3684687500063,
      "v": 83
    },
    {
      "midi": 73,
      "hit": false,
      "t": 153486.8548958334,
      "d": 572.3684687500063,
      "v": 86
    },
    {
      "midi": 52,
      "hit": false,
      "t": 154118.4338958334,
      "d": 1203.9474687500042,
      "v": 89
    },
    {
      "midi": 64,
      "hit": false,
      "t": 154118.4338958334,
      "d": 1203.9474687500042,
      "v": 77
    },
    {
      "midi": 68,
      "hit": false,
      "t": 154118.4338958334,
      "d": 1203.9474687500042,
      "v": 85
    },
    {
      "midi": 71,
      "hit": false,
      "t": 154118.4338958334,
      "d": 1203.9474687500042,
      "v": 94
    },
    {
      "midi": 54,
      "hit": false,
      "t": 155381.5918958334,
      "d": 1203.9474687500042,
      "v": 85
    },
    {
      "midi": 66,
      "hit": false,
      "t": 155381.5918958334,
      "d": 1203.9474687500042,
      "v": 85
    },
    {
      "midi": 70,
      "hit": false,
      "t": 155381.5918958334,
      "d": 1203.9474687500042,
      "v": 85
    },
    {
      "midi": 73,
      "hit": false,
      "t": 155381.5918958334,
      "d": 1203.9474687500042,
      "v": 90
    },
    {
      "midi": 47,
      "hit": false,
      "t": 156644.7498958334,
      "d": 2467.10546875,
      "v": 86
    },
    {
      "midi": 66,
      "hit": false,
      "t": 156644.7498958334,
      "d": 2467.10546875,
      "v": 84
    },
    {
      "midi": 71,
      "hit": false,
      "t": 156644.7498958334,
      "d": 2467.10546875,
      "v": 86
    },
    {
      "midi": 75,
      "hit": false,
      "t": 156644.7498958334,
      "d": 2467.10546875,
      "v": 90
    },
    {
      "midi": 51,
      "hit": false,
      "t": 159171.0658958334,
      "d": 2467.10546875,
      "v": 89
    },
    {
      "midi": 66,
      "hit": false,
      "t": 159171.0658958334,
      "d": 2467.10546875,
      "v": 81
    },
    {
      "midi": 70,
      "hit": false,
      "t": 159171.0658958334,
      "d": 2467.10546875,
      "v": 83
    },
    {
      "midi": 75,
      "hit": false,
      "t": 159171.0658958334,
      "d": 2467.10546875,
      "v": 98
    },
    {
      "midi": 49,
      "hit": false,
      "t": 161697.3818958334,
      "d": 1203.9474687500042,
      "v": 85
    },
    {
      "midi": 64,
      "hit": false,
      "t": 161697.3818958334,
      "d": 1203.9474687500042,
      "v": 85
    },
    {
      "midi": 68,
      "hit": false,
      "t": 161697.3818958334,
      "d": 1203.9474687500042,
      "v": 84
    },
    {
      "midi": 73,
      "hit": false,
      "t": 161697.3818958334,
      "d": 1203.9474687500042,
      "v": 96
    },
    {
      "midi": 51,
      "hit": false,
      "t": 162960.53989583338,
      "d": 1203.9474687500042,
      "v": 81
    },
    {
      "midi": 66,
      "hit": false,
      "t": 162960.53989583338,
      "d": 1203.9474687500042,
      "v": 78
    },
    {
      "midi": 71,
      "hit": false,
      "t": 162960.53989583338,
      "d": 1203.9474687500042,
      "v": 82
    },
    {
      "midi": 75,
      "hit": false,
      "t": 162960.53989583338,
      "d": 1203.9474687500042,
      "v": 96
    },
    {
      "midi": 52,
      "hit": false,
      "t": 164223.69789583338,
      "d": 1203.9474687500042,
      "v": 85
    },
    {
      "midi": 68,
      "hit": false,
      "t": 164223.69789583338,
      "d": 1203.9474687500042,
      "v": 83
    },
    {
      "midi": 71,
      "hit": false,
      "t": 164223.69789583338,
      "d": 1203.9474687500042,
      "v": 81
    },
    {
      "midi": 76,
      "hit": false,
      "t": 164223.69789583338,
      "d": 1203.9474687500042,
      "v": 90
    },
    {
      "midi": 54,
      "hit": false,
      "t": 165486.85589583337,
      "d": 1203.9474687500042,
      "v": 86
    },
    {
      "midi": 70,
      "hit": false,
      "t": 165486.85589583337,
      "d": 1203.9474687500042,
      "v": 83
    },
    {
      "midi": 73,
      "hit": false,
      "t": 165486.85589583337,
      "d": 1203.9474687500042,
      "v": 89
    },
    {
      "midi": 78,
      "hit": false,
      "t": 165486.85589583337,
      "d": 1203.9474687500042,
      "v": 91
    },
    {
      "midi": 49,
      "hit": false,
      "t": 166750.01389583337,
      "d": 1203.9474687500042,
      "v": 83
    },
    {
      "midi": 64,
      "hit": false,
      "t": 166750.01389583337,
      "d": 1203.9474687500042,
      "v": 78
    },
    {
      "midi": 68,
      "hit": false,
      "t": 166750.01389583337,
      "d": 1203.9474687500042,
      "v": 90
    },
    {
      "midi": 73,
      "hit": false,
      "t": 166750.01389583337,
      "d": 1203.9474687500042,
      "v": 98
    },
    {
      "midi": 51,
      "hit": false,
      "t": 168013.17189583337,
      "d": 1203.9474687500042,
      "v": 83
    },
    {
      "midi": 66,
      "hit": false,
      "t": 168013.17189583337,
      "d": 1203.9474687500042,
      "v": 77
    },
    {
      "midi": 71,
      "hit": false,
      "t": 168013.17189583337,
      "d": 1203.9474687500042,
      "v": 83
    },
    {
      "midi": 75,
      "hit": false,
      "t": 168013.17189583337,
      "d": 1203.9474687500042,
      "v": 97
    },
    {
      "midi": 52,
      "hit": false,
      "t": 169276.32989583336,
      "d": 1203.9474687500042,
      "v": 86
    },
    {
      "midi": 68,
      "hit": false,
      "t": 169276.32989583336,
      "d": 1203.9474687500042,
      "v": 88
    },
    {
      "midi": 71,
      "hit": false,
      "t": 169276.32989583336,
      "d": 1203.9474687500042,
      "v": 79
    },
    {
      "midi": 76,
      "hit": false,
      "t": 169276.32989583336,
      "d": 1203.9474687500042,
      "v": 99
    },
    {
      "midi": 54,
      "hit": false,
      "t": 170539.48789583336,
      "d": 1203.9474687500042,
      "v": 88
    },
    {
      "midi": 70,
      "hit": false,
      "t": 170539.48789583336,
      "d": 1203.9474687500042,
      "v": 84
    },
    {
      "midi": 73,
      "hit": false,
      "t": 170539.48789583336,
      "d": 1203.9474687500042,
      "v": 89
    },
    {
      "midi": 78,
      "hit": false,
      "t": 170539.48789583336,
      "d": 1203.9474687500042,
      "v": 96
    },
    {
      "midi": 59,
      "hit": false,
      "t": 171802.64589583335,
      "d": 1203.9474687500042,
      "v": 81
    },
    {
      "midi": 66,
      "hit": false,
      "t": 171802.64589583335,
      "d": 1203.9474687500042,
      "v": 82
    },
    {
      "midi": 71,
      "hit": false,
      "t": 171802.64589583335,
      "d": 1203.9474687500042,
      "v": 85
    },
    {
      "midi": 75,
      "hit": false,
      "t": 171802.64589583335,
      "d": 1203.9474687500042,
      "v": 90
    },
    {
      "midi": 51,
      "hit": false,
      "t": 173065.80389583335,
      "d": 1203.9474687500042,
      "v": 75
    },
    {
      "midi": 66,
      "hit": false,
      "t": 173065.80389583335,
      "d": 1203.9474687500042,
      "v": 77
    },
    {
      "midi": 70,
      "hit": false,
      "t": 173065.80389583335,
      "d": 1203.9474687500042,
      "v": 80
    },
    {
      "midi": 75,
      "hit": false,
      "t": 173065.80389583335,
      "d": 1203.9474687500042,
      "v": 88
    },
    {
      "midi": 57,
      "hit": false,
      "t": 174328.96189583334,
      "d": 1203.9474687500042,
      "v": 87
    },
    {
      "midi": 64,
      "hit": false,
      "t": 174328.96189583334,
      "d": 1203.9474687500042,
      "v": 81
    },
    {
      "midi": 69,
      "hit": false,
      "t": 174328.96189583334,
      "d": 1203.9474687500042,
      "v": 91
    },
    {
      "midi": 73,
      "hit": false,
      "t": 174328.96189583334,
      "d": 1203.9474687500042,
      "v": 98
    },
    {
      "midi": 49,
      "hit": false,
      "t": 175592.11989583334,
      "d": 1203.9474687500042,
      "v": 80
    },
    {
      "midi": 64,
      "hit": false,
      "t": 175592.11989583334,
      "d": 1203.9474687500042,
      "v": 76
    },
    {
      "midi": 68,
      "hit": false,
      "t": 175592.11989583334,
      "d": 1203.9474687500042,
      "v": 77
    },
    {
      "midi": 73,
      "hit": false,
      "t": 175592.11989583334,
      "d": 1203.9474687500042,
      "v": 91
    },
    {
      "midi": 59,
      "hit": false,
      "t": 176855.27789583334,
      "d": 1203.9474687500042,
      "v": 81
    },
    {
      "midi": 66,
      "hit": false,
      "t": 176855.27789583334,
      "d": 1203.9474687500042,
      "v": 78
    },
    {
      "midi": 71,
      "hit": false,
      "t": 176855.27789583334,
      "d": 1203.9474687500042,
      "v": 89
    },
    {
      "midi": 75,
      "hit": false,
      "t": 176855.27789583334,
      "d": 1203.9474687500042,
      "v": 91
    },
    {
      "midi": 51,
      "hit": false,
      "t": 178118.43589583333,
      "d": 1203.9474687500042,
      "v": 78
    },
    {
      "midi": 66,
      "hit": false,
      "t": 178118.43589583333,
      "d": 1203.9474687500042,
      "v": 71
    },
    {
      "midi": 70,
      "hit": false,
      "t": 178118.43589583333,
      "d": 1203.9474687500042,
      "v": 78
    },
    {
      "midi": 75,
      "hit": false,
      "t": 178118.43589583333,
      "d": 1203.9474687500042,
      "v": 88
    },
    {
      "midi": 57,
      "hit": false,
      "t": 179381.59389583333,
      "d": 1203.9474687500042,
      "v": 89
    },
    {
      "midi": 64,
      "hit": false,
      "t": 179381.59389583333,
      "d": 1203.9474687500042,
      "v": 81
    },
    {
      "midi": 69,
      "hit": false,
      "t": 179381.59389583333,
      "d": 1203.9474687500042,
      "v": 86
    },
    {
      "midi": 73,
      "hit": false,
      "t": 179381.59389583333,
      "d": 1203.9474687500042,
      "v": 96
    },
    {
      "midi": 49,
      "hit": false,
      "t": 180644.75189583332,
      "d": 1203.9474687500042,
      "v": 75
    },
    {
      "midi": 64,
      "hit": false,
      "t": 180644.75189583332,
      "d": 1203.9474687500042,
      "v": 71
    },
    {
      "midi": 68,
      "hit": false,
      "t": 180644.75189583332,
      "d": 1203.9474687500042,
      "v": 83
    },
    {
      "midi": 73,
      "hit": false,
      "t": 180644.75189583332,
      "d": 1203.9474687500042,
      "v": 87
    },
    {
      "midi": 59,
      "hit": false,
      "t": 181907.90989583332,
      "d": 1203.9474687500042,
      "v": 81
    },
    {
      "midi": 66,
      "hit": false,
      "t": 181907.90989583332,
      "d": 1203.9474687500042,
      "v": 77
    },
    {
      "midi": 71,
      "hit": false,
      "t": 181907.90989583332,
      "d": 1203.9474687500042,
      "v": 90
    },
    {
      "midi": 75,
      "hit": false,
      "t": 181907.90989583332,
      "d": 1203.9474687500042,
      "v": 92
    },
    {
      "midi": 51,
      "hit": false,
      "t": 183171.06789583332,
      "d": 1203.9474687500042,
      "v": 78
    },
    {
      "midi": 66,
      "hit": false,
      "t": 183171.06789583332,
      "d": 1203.9474687500042,
      "v": 72
    },
    {
      "midi": 70,
      "hit": false,
      "t": 183171.06789583332,
      "d": 1203.9474687500042,
      "v": 79
    },
    {
      "midi": 75,
      "hit": false,
      "t": 183171.06789583332,
      "d": 1203.9474687500042,
      "v": 84
    },
    {
      "midi": 57,
      "hit": false,
      "t": 184434.2258958333,
      "d": 1203.9474687500042,
      "v": 82
    },
    {
      "midi": 64,
      "hit": false,
      "t": 184434.2258958333,
      "d": 1203.9474687500042,
      "v": 83
    },
    {
      "midi": 69,
      "hit": false,
      "t": 184434.2258958333,
      "d": 1203.9474687500042,
      "v": 90
    },
    {
      "midi": 73,
      "hit": false,
      "t": 184434.2258958333,
      "d": 1203.9474687500042,
      "v": 95
    },
    {
      "midi": 49,
      "hit": false,
      "t": 185697.3838958333,
      "d": 1203.9474687500042,
      "v": 75
    },
    {
      "midi": 64,
      "hit": false,
      "t": 185697.3838958333,
      "d": 1203.9474687500042,
      "v": 73
    },
    {
      "midi": 68,
      "hit": false,
      "t": 185697.3838958333,
      "d": 1203.9474687500042,
      "v": 83
    },
    {
      "midi": 73,
      "hit": false,
      "t": 185697.3838958333,
      "d": 1203.9474687500042,
      "v": 87
    },
    {
      "midi": 59,
      "hit": false,
      "t": 186960.5418958333,
      "d": 1203.9474687500042,
      "v": 82
    },
    {
      "midi": 66,
      "hit": false,
      "t": 186960.5418958333,
      "d": 1203.9474687500042,
      "v": 77
    },
    {
      "midi": 71,
      "hit": false,
      "t": 186960.5418958333,
      "d": 1203.9474687500042,
      "v": 82
    },
    {
      "midi": 75,
      "hit": false,
      "t": 186960.5418958333,
      "d": 1203.9474687500042,
      "v": 93
    },
    {
      "midi": 51,
      "hit": false,
      "t": 188223.6998958333,
      "d": 1203.9474687500042,
      "v": 83
    },
    {
      "midi": 66,
      "hit": false,
      "t": 188223.6998958333,
      "d": 1203.9474687500042,
      "v": 79
    },
    {
      "midi": 70,
      "hit": false,
      "t": 188223.6998958333,
      "d": 1203.9474687500042,
      "v": 83
    },
    {
      "midi": 75,
      "hit": false,
      "t": 188223.6998958333,
      "d": 1203.9474687500042,
      "v": 84
    },
    {
      "midi": 57,
      "hit": false,
      "t": 189486.8578958333,
      "d": 1203.9474687500042,
      "v": 86
    },
    {
      "midi": 64,
      "hit": false,
      "t": 189486.8578958333,
      "d": 1203.9474687500042,
      "v": 77
    },
    {
      "midi": 69,
      "hit": false,
      "t": 189486.8578958333,
      "d": 1203.9474687500042,
      "v": 82
    },
    {
      "midi": 73,
      "hit": false,
      "t": 189486.8578958333,
      "d": 1203.9474687500042,
      "v": 93
    },
    {
      "midi": 49,
      "hit": false,
      "t": 190750.0158958333,
      "d": 1203.9474687500042,
      "v": 81
    },
    {
      "midi": 64,
      "hit": false,
      "t": 190750.0158958333,
      "d": 1203.9474687500042,
      "v": 72
    },
    {
      "midi": 68,
      "hit": false,
      "t": 190750.0158958333,
      "d": 1203.9474687500042,
      "v": 77
    },
    {
      "midi": 73,
      "hit": false,
      "t": 190750.0158958333,
      "d": 1203.9474687500042,
      "v": 91
    },
    {
      "midi": 59,
      "hit": false,
      "t": 192013.1738958333,
      "d": 1203.9474687500042,
      "v": 84
    },
    {
      "midi": 66,
      "hit": false,
      "t": 192013.1738958333,
      "d": 1203.9474687500042,
      "v": 80
    },
    {
      "midi": 71,
      "hit": false,
      "t": 192013.1738958333,
      "d": 1203.9474687500042,
      "v": 90
    },
    {
      "midi": 75,
      "hit": false,
      "t": 192013.1738958333,
      "d": 1203.9474687500042,
      "v": 93
    },
    {
      "midi": 51,
      "hit": false,
      "t": 193276.33189583328,
      "d": 1203.9474687500042,
      "v": 75
    },
    {
      "midi": 66,
      "hit": false,
      "t": 193276.33189583328,
      "d": 1203.9474687500042,
      "v": 75
    },
    {
      "midi": 70,
      "hit": false,
      "t": 193276.33189583328,
      "d": 1203.9474687500042,
      "v": 81
    },
    {
      "midi": 75,
      "hit": false,
      "t": 193276.33189583328,
      "d": 1203.9474687500042,
      "v": 88
    },
    {
      "midi": 57,
      "hit": false,
      "t": 194539.48989583328,
      "d": 1203.9474687500042,
      "v": 81
    },
    {
      "midi": 64,
      "hit": false,
      "t": 194539.48989583328,
      "d": 1203.9474687500042,
      "v": 83
    },
    {
      "midi": 69,
      "hit": false,
      "t": 194539.48989583328,
      "d": 1203.9474687500042,
      "v": 83
    },
    {
      "midi": 73,
      "hit": false,
      "t": 194539.48989583328,
      "d": 1203.9474687500042,
      "v": 91
    },
    {
      "midi": 49,
      "hit": false,
      "t": 195802.64789583327,
      "d": 1203.9474687500042,
      "v": 83
    },
    {
      "midi": 64,
      "hit": false,
      "t": 195802.64789583327,
      "d": 1203.9474687500042,
      "v": 78
    },
    {
      "midi": 68,
      "hit": false,
      "t": 195802.64789583327,
      "d": 1203.9474687500042,
      "v": 84
    },
    {
      "midi": 73,
      "hit": false,
      "t": 195802.64789583327,
      "d": 1203.9474687500042,
      "v": 91
    },
    {
      "midi": 59,
      "hit": false,
      "t": 197065.80589583327,
      "d": 1203.9474687500042,
      "v": 86
    },
    {
      "midi": 66,
      "hit": false,
      "t": 197065.80589583327,
      "d": 1203.9474687500042,
      "v": 84
    },
    {
      "midi": 71,
      "hit": false,
      "t": 197065.80589583327,
      "d": 1203.9474687500042,
      "v": 87
    },
    {
      "midi": 75,
      "hit": false,
      "t": 197065.80589583327,
      "d": 1203.9474687500042,
      "v": 93
    },
    {
      "midi": 51,
      "hit": false,
      "t": 198328.96389583327,
      "d": 1203.9474687500042,
      "v": 82
    },
    {
      "midi": 66,
      "hit": false,
      "t": 198328.96389583327,
      "d": 1203.9474687500042,
      "v": 77
    },
    {
      "midi": 70,
      "hit": false,
      "t": 198328.96389583327,
      "d": 1203.9474687500042,
      "v": 82
    },
    {
      "midi": 75,
      "hit": false,
      "t": 198328.96389583327,
      "d": 1203.9474687500042,
      "v": 88
    },
    {
      "midi": 57,
      "hit": false,
      "t": 199592.12189583326,
      "d": 1203.9474687500042,
      "v": 87
    },
    {
      "midi": 64,
      "hit": false,
      "t": 199592.12189583326,
      "d": 1203.9474687500042,
      "v": 82
    },
    {
      "midi": 69,
      "hit": false,
      "t": 199592.12189583326,
      "d": 1203.9474687500042,
      "v": 82
    },
    {
      "midi": 73,
      "hit": false,
      "t": 199592.12189583326,
      "d": 1203.9474687500042,
      "v": 98
    },
    {
      "midi": 49,
      "hit": false,
      "t": 200855.27989583326,
      "d": 1203.9474687500042,
      "v": 81
    },
    {
      "midi": 64,
      "hit": false,
      "t": 200855.27989583326,
      "d": 1203.9474687500042,
      "v": 72
    },
    {
      "midi": 68,
      "hit": false,
      "t": 200855.27989583326,
      "d": 1203.9474687500042,
      "v": 84
    },
    {
      "midi": 73,
      "hit": false,
      "t": 200855.27989583326,
      "d": 1203.9474687500042,
      "v": 86
    },
    {
      "midi": 59,
      "hit": false,
      "t": 202118.43789583325,
      "d": 1203.9474687500042,
      "v": 81
    },
    {
      "midi": 66,
      "hit": false,
      "t": 202118.43789583325,
      "d": 1203.9474687500042,
      "v": 82
    },
    {
      "midi": 71,
      "hit": false,
      "t": 202118.43789583325,
      "d": 1203.9474687500042,
      "v": 83
    },
    {
      "midi": 75,
      "hit": false,
      "t": 202118.43789583325,
      "d": 1203.9474687500042,
      "v": 93
    },
    {
      "midi": 51,
      "hit": false,
      "t": 203381.59589583325,
      "d": 1203.9474687500042,
      "v": 76
    },
    {
      "midi": 66,
      "hit": false,
      "t": 203381.59589583325,
      "d": 1203.9474687500042,
      "v": 77
    },
    {
      "midi": 70,
      "hit": false,
      "t": 203381.59589583325,
      "d": 1203.9474687500042,
      "v": 77
    },
    {
      "midi": 75,
      "hit": false,
      "t": 203381.59589583325,
      "d": 1203.9474687500042,
      "v": 92
    },
    {
      "midi": 57,
      "hit": false,
      "t": 204644.75389583324,
      "d": 1203.9474687500042,
      "v": 84
    },
    {
      "midi": 64,
      "hit": false,
      "t": 204644.75389583324,
      "d": 1203.9474687500042,
      "v": 83
    },
    {
      "midi": 69,
      "hit": false,
      "t": 204644.75389583324,
      "d": 1203.9474687500042,
      "v": 89
    },
    {
      "midi": 73,
      "hit": false,
      "t": 204644.75389583324,
      "d": 1203.9474687500042,
      "v": 95
    },
    {
      "midi": 49,
      "hit": false,
      "t": 205907.91189583324,
      "d": 1203.9474687500042,
      "v": 76
    },
    {
      "midi": 64,
      "hit": false,
      "t": 205907.91189583324,
      "d": 1203.9474687500042,
      "v": 72
    },
    {
      "midi": 68,
      "hit": false,
      "t": 205907.91189583324,
      "d": 1203.9474687500042,
      "v": 78
    },
    {
      "midi": 73,
      "hit": false,
      "t": 205907.91189583324,
      "d": 1203.9474687500042,
      "v": 85
    },
    {
      "midi": 59,
      "hit": false,
      "t": 207171.06989583324,
      "d": 1203.9474687500042,
      "v": 85
    },
    {
      "midi": 66,
      "hit": false,
      "t": 207171.06989583324,
      "d": 1203.9474687500042,
      "v": 81
    },
    {
      "midi": 71,
      "hit": false,
      "t": 207171.06989583324,
      "d": 1203.9474687500042,
      "v": 87
    },
    {
      "midi": 75,
      "hit": false,
      "t": 207171.06989583324,
      "d": 1203.9474687500042,
      "v": 93
    },
    {
      "midi": 51,
      "hit": false,
      "t": 208434.22789583323,
      "d": 1203.9474687500042,
      "v": 76
    },
    {
      "midi": 66,
      "hit": false,
      "t": 208434.22789583323,
      "d": 1203.9474687500042,
      "v": 74
    },
    {
      "midi": 70,
      "hit": false,
      "t": 208434.22789583323,
      "d": 1203.9474687500042,
      "v": 76
    },
    {
      "midi": 75,
      "hit": false,
      "t": 208434.22789583323,
      "d": 1203.9474687500042,
      "v": 91
    },
    {
      "midi": 57,
      "hit": false,
      "t": 209697.38589583323,
      "d": 1203.9474687500042,
      "v": 82
    },
    {
      "midi": 64,
      "hit": false,
      "t": 209697.38589583323,
      "d": 1203.9474687500042,
      "v": 85
    },
    {
      "midi": 69,
      "hit": false,
      "t": 209697.38589583323,
      "d": 1203.9474687500042,
      "v": 85
    },
    {
      "midi": 73,
      "hit": false,
      "t": 209697.38589583323,
      "d": 1203.9474687500042,
      "v": 92
    },
    {
      "midi": 49,
      "hit": false,
      "t": 210960.54389583322,
      "d": 1203.9474687500042,
      "v": 75
    },
    {
      "midi": 64,
      "hit": false,
      "t": 210960.54389583322,
      "d": 1203.9474687500042,
      "v": 79
    },
    {
      "midi": 68,
      "hit": false,
      "t": 210960.54389583322,
      "d": 1203.9474687500042,
      "v": 76
    },
    {
      "midi": 73,
      "hit": false,
      "t": 210960.54389583322,
      "d": 1203.9474687500042,
      "v": 88
    },
    {
      "midi": 59,
      "hit": false,
      "t": 212223.70189583322,
      "d": 2516.447578124993,
      "v": 81
    },
    {
      "midi": 63,
      "hit": false,
      "t": 212223.70189583322,
      "d": 2516.447578124993,
      "v": 96
    },
    {
      "midi": 66,
      "hit": false,
      "t": 212223.70189583322,
      "d": 2516.447578124993,
      "v": 84
    },
    {
      "midi": 71,
      "hit": false,
      "t": 212223.70189583322,
      "d": 2516.447578124993,
      "v": 84
    }
  ]
}