{
  "jsonPath": "Pop/Classic Italian Pop/Alex Baroni/la-voce-della-luna.json",
  "path": "Pop\\Classic Italian Pop\\Alex Baroni\\La Voce Della Luna.mid",
  "name": "La Voce Della Luna",
  "difficulty": "Advanced",
  "bpm": 85.00004250002125,
  "notes": [
    {
      "midi": 44,
      "hit": false,
      "t": 2823.5280000000002,
      "d": 2759.189796875,
      "v": 58
    },
    {
      "midi": 44,
      "hit": false,
      "t": 2823.5280000000002,
      "d": 2759.189796875,
      "v": 73
    },
    {
      "midi": 51,
      "hit": false,
      "t": 3176.469,
      "d": 2406.248796875,
      "v": 58
    },
    {
      "midi": 51,
      "hit": false,
      "t": 3176.469,
      "d": 2406.248796875,
      "v": 73
    },
    {
      "midi": 56,
      "hit": false,
      "t": 3529.41,
      "d": 2068.013671875,
      "v": 58
    },
    {
      "midi": 56,
      "hit": false,
      "t": 3529.41,
      "d": 2068.013671875,
      "v": 73
    },
    {
      "midi": 58,
      "hit": false,
      "t": 3882.3509999999997,
      "d": 720.5878750000002,
      "v": 72
    },
    {
      "midi": 58,
      "hit": false,
      "t": 3882.3509999999997,
      "d": 720.5878750000002,
      "v": 78
    },
    {
      "midi": 60,
      "hit": false,
      "t": 4588.233,
      "d": 729.779046875,
      "v": 72
    },
    {
      "midi": 60,
      "hit": false,
      "t": 4588.233,
      "d": 729.779046875,
      "v": 78
    },
    {
      "midi": 61,
      "hit": false,
      "t": 5294.115,
      "d": 670.9555468749995,
      "v": 72
    },
    {
      "midi": 61,
      "hit": false,
      "t": 5294.115,
      "d": 670.9555468749995,
      "v": 78
    },
    {
      "midi": 44,
      "hit": false,
      "t": 5647.056,
      "d": 2814.3368281249977,
      "v": 58
    },
    {
      "midi": 44,
      "hit": false,
      "t": 5647.056,
      "d": 2814.3368281249977,
      "v": 73
    },
    {
      "midi": 52,
      "hit": false,
      "t": 5999.996999999999,
      "d": 2391.542921874998,
      "v": 58
    },
    {
      "midi": 52,
      "hit": false,
      "t": 5999.996999999999,
      "d": 2391.542921874998,
      "v": 73
    },
    {
      "midi": 63,
      "hit": false,
      "t": 6352.937999999999,
      "d": 2477.9399374999985,
      "v": 72
    },
    {
      "midi": 56,
      "hit": false,
      "t": 6352.937999999999,
      "d": 2117.645999999998,
      "v": 63
    },
    {
      "midi": 63,
      "hit": false,
      "t": 6352.937999999999,
      "d": 2477.9399374999985,
      "v": 78
    },
    {
      "midi": 68,
      "hit": false,
      "t": 6705.878999999999,
      "d": 762.8672656249992,
      "v": 72
    },
    {
      "midi": 68,
      "hit": false,
      "t": 6705.878999999999,
      "d": 762.8672656249992,
      "v": 78
    },
    {
      "midi": 70,
      "hit": false,
      "t": 7411.760999999999,
      "d": 799.6319531249992,
      "v": 72
    },
    {
      "midi": 70,
      "hit": false,
      "t": 7411.760999999999,
      "d": 799.6319531249992,
      "v": 78
    },
    {
      "midi": 72,
      "hit": false,
      "t": 8117.642999999998,
      "d": 658.0879062499989,
      "v": 72
    },
    {
      "midi": 72,
      "hit": false,
      "t": 8117.642999999998,
      "d": 658.0879062499989,
      "v": 78
    },
    {
      "midi": 41,
      "hit": false,
      "t": 8470.583999999997,
      "d": 2803.3074218750007,
      "v": 63
    },
    {
      "midi": 41,
      "hit": false,
      "t": 8470.583999999997,
      "d": 2803.3074218750007,
      "v": 78
    },
    {
      "midi": 48,
      "hit": false,
      "t": 8823.524999999998,
      "d": 2415.439968750001,
      "v": 63
    },
    {
      "midi": 48,
      "hit": false,
      "t": 8823.524999999998,
      "d": 2415.439968750001,
      "v": 78
    },
    {
      "midi": 56,
      "hit": false,
      "t": 9176.465999999999,
      "d": 352.9410000000007,
      "v": 72
    },
    {
      "midi": 56,
      "hit": false,
      "t": 9176.465999999999,
      "d": 352.9410000000007,
      "v": 78
    },
    {
      "midi": 55,
      "hit": false,
      "t": 9529.407,
      "d": 1698.5285624999997,
      "v": 72
    },
    {
      "midi": 55,
      "hit": false,
      "t": 9529.407,
      "d": 1698.5285624999997,
      "v": 78
    },
    {
      "midi": 53,
      "hit": false,
      "t": 11294.111999999997,
      "d": 2729.7780468750007,
      "v": 63
    },
    {
      "midi": 56,
      "hit": false,
      "t": 11294.111999999997,
      "d": 2773.8956718750014,
      "v": 63
    },
    {
      "midi": 39,
      "hit": false,
      "t": 11294.111999999997,
      "d": 2786.763312500001,
      "v": 63
    },
    {
      "midi": 51,
      "hit": false,
      "t": 11294.111999999997,
      "d": 2799.630953125001,
      "v": 63
    },
    {
      "midi": 61,
      "hit": false,
      "t": 11294.111999999997,
      "d": 2803.3074218750007,
      "v": 63
    },
    {
      "midi": 53,
      "hit": false,
      "t": 11294.111999999997,
      "d": 2729.7780468750007,
      "v": 72
    },
    {
      "midi": 56,
      "hit": false,
      "t": 11294.111999999997,
      "d": 2773.8956718750014,
      "v": 72
    },
    {
      "midi": 39,
      "hit": false,
      "t": 11294.111999999997,
      "d": 2786.763312500001,
      "v": 72
    },
    {
      "midi": 51,
      "hit": false,
      "t": 11294.111999999997,
      "d": 2799.630953125001,
      "v": 72
    },
    {
      "midi": 61,
      "hit": false,
      "t": 11294.111999999997,
      "d": 2803.3074218750007,
      "v": 72
    },
    {
      "midi": 37,
      "hit": false,
      "t": 14117.639999999998,
      "d": 1023.8965468749993,
      "v": 72
    },
    {
      "midi": 65,
      "hit": false,
      "t": 14117.639999999998,
      "d": 1036.764187499999,
      "v": 72
    },
    {
      "midi": 61,
      "hit": false,
      "t": 14117.639999999998,
      "d": 1069.8524062499982,
      "v": 72
    },
    {
      "midi": 49,
      "hit": false,
      "t": 14117.639999999998,
      "d": 1090.0729843749978,
      "v": 72
    },
    {
      "midi": 56,
      "hit": false,
      "t": 14117.639999999998,
      "d": 2784.9250781249993,
      "v": 72
    },
    {
      "midi": 68,
      "hit": false,
      "t": 15176.462999999996,
      "d": 1400.7345937499995,
      "v": 72
    },
    {
      "midi": 63,
      "hit": false,
      "t": 15176.462999999996,
      "d": 1742.6461875000023,
      "v": 72
    },
    {
      "midi": 60,
      "hit": false,
      "t": 15176.462999999996,
      "d": 1746.3226562500022,
      "v": 72
    },
    {
      "midi": 48,
      "hit": false,
      "t": 15176.462999999996,
      "d": 1772.0579375000016,
      "v": 72
    },
    {
      "midi": 58,
      "hit": false,
      "t": 16941.167999999998,
      "d": 2773.8956718750014,
      "v": 72
    },
    {
      "midi": 56,
      "hit": false,
      "t": 16941.167999999998,
      "d": 2788.601546875001,
      "v": 72
    },
    {
      "midi": 61,
      "hit": false,
      "t": 16941.167999999998,
      "d": 2818.0132968750004,
      "v": 72
    },
    {
      "midi": 46,
      "hit": false,
      "t": 16941.167999999998,
      "d": 2821.6897656250003,
      "v": 72
    },
    {
      "midi": 61,
      "hit": false,
      "t": 19764.696,
      "d": 2749.998625,
      "v": 72
    },
    {
      "midi": 65,
      "hit": false,
      "t": 19764.696,
      "d": 2772.0574374999997,
      "v": 72
    },
    {
      "midi": 56,
      "hit": false,
      "t": 19764.696,
      "d": 2777.5721406250013,
      "v": 72
    },
    {
      "midi": 39,
      "hit": false,
      "t": 19764.696,
      "d": 2808.8221250000024,
      "v": 72
    },
    {
      "midi": 51,
      "hit": false,
      "t": 19764.696,
      "d": 2816.1750625000022,
      "v": 72
    },
    {
      "midi": 56,
      "hit": false,
      "t": 22588.224000000002,
      "d": 2781.2486093750013,
      "v": 72
    },
    {
      "midi": 60,
      "hit": false,
      "t": 22588.224000000002,
      "d": 2781.2486093750013,
      "v": 72
    },
    {
      "midi": 63,
      "hit": false,
      "t": 22588.224000000002,
      "d": 2856.6162187500013,
      "v": 72
    },
    {
      "midi": 44,
      "hit": false,
      "t": 22588.224000000002,
      "d": 5623.158953125003,
      "v": 72
    },
    {
      "midi": 61,
      "hit": false,
      "t": 25411.752000000004,
      "d": 2748.1603906249984,
      "v": 58
    },
    {
      "midi": 52,
      "hit": false,
      "t": 25411.752000000004,
      "d": 2772.0574374999997,
      "v": 62
    },
    {
      "midi": 56,
      "hit": false,
      "t": 25411.752000000004,
      "d": 2772.0574374999997,
      "v": 58
    },
    {
      "midi": 60,
      "hit": false,
      "t": 28235.280000000006,
      "d": 2722.425109374999,
      "v": 72
    },
    {
      "midi": 53,
      "hit": false,
      "t": 28235.280000000006,
      "d": 2737.1309843749987,
      "v": 72
    },
    {
      "midi": 56,
      "hit": false,
      "t": 28235.280000000006,
      "d": 2773.895671874998,
      "v": 72
    },
    {
      "midi": 41,
      "hit": false,
      "t": 28235.280000000006,
      "d": 2775.7339062499996,
      "v": 72
    },
    {
      "midi": 67,
      "hit": false,
      "t": 31058.808000000005,
      "d": 876.8377968749992,
      "v": 72
    },
    {
      "midi": 39,
      "hit": false,
      "t": 31058.808000000005,
      "d": 2746.322156250004,
      "v": 52
    },
    {
      "midi": 58,
      "hit": false,
      "t": 31411.749000000003,
      "d": 2413.6017343750063,
      "v": 72
    },
    {
      "midi": 63,
      "hit": false,
      "t": 31764.690000000002,
      "d": 2066.175437500009,
      "v": 72
    },
    {
      "midi": 67,
      "hit": false,
      "t": 32117.631000000005,
      "d": 1761.028531250009,
      "v": 72
    },
    {
      "midi": 56,
      "hit": false,
      "t": 33882.33600000002,
      "d": 345.58806249999907,
      "v": 72
    },
    {
      "midi": 61,
      "hit": false,
      "t": 33882.33600000002,
      "d": 597.4261718749985,
      "v": 72
    },
    {
      "midi": 65,
      "hit": false,
      "t": 33882.33600000002,
      "d": 854.7789843749997,
      "v": 72
    },
    {
      "midi": 37,
      "hit": false,
      "t": 33882.33600000002,
      "d": 2799.630953125001,
      "v": 72
    },
    {
      "midi": 49,
      "hit": false,
      "t": 34235.27700000002,
      "d": 2428.3076093749987,
      "v": 72
    },
    {
      "midi": 56,
      "hit": false,
      "t": 34588.218000000015,
      "d": 2044.116624999995,
      "v": 72
    },
    {
      "midi": 61,
      "hit": false,
      "t": 34941.159000000014,
      "d": 1420.9551718750008,
      "v": 72
    },
    {
      "midi": 65,
      "hit": false,
      "t": 34941.159000000014,
      "d": 1463.2345625000016,
      "v": 72
    },
    {
      "midi": 63,
      "hit": false,
      "t": 36352.92300000002,
      "d": 297.79396874999657,
      "v": 72
    },
    {
      "midi": 61,
      "hit": false,
      "t": 36529.39350000001,
      "d": 113.97053125000093,
      "v": 72
    },
    {
      "midi": 56,
      "hit": false,
      "t": 36705.864000000016,
      "d": 2761.0280312499963,
      "v": 72
    },
    {
      "midi": 63,
      "hit": false,
      "t": 36705.864000000016,
      "d": 2797.7927187499954,
      "v": 72
    },
    {
      "midi": 60,
      "hit": false,
      "t": 36705.864000000016,
      "d": 2816.1750624999986,
      "v": 72
    },
    {
      "midi": 48,
      "hit": false,
      "t": 36705.864000000016,
      "d": 2818.0132968749967,
      "v": 72
    },
    {
      "midi": 36,
      "hit": false,
      "t": 36705.864000000016,
      "d": 2821.6897656250003,
      "v": 72
    },
    {
      "midi": 65,
      "hit": false,
      "t": 39529.392000000014,
      "d": 2751.8368593749983,
      "v": 72
    },
    {
      "midi": 56,
      "hit": false,
      "t": 39529.392000000014,
      "d": 2772.0574374999997,
      "v": 72
    },
    {
      "midi": 61,
      "hit": false,
      "t": 39529.392000000014,
      "d": 2784.925078125001,
      "v": 72
    },
    {
      "midi": 58,
      "hit": false,
      "t": 39529.392000000014,
      "d": 2814.3368281250005,
      "v": 72
    },
    {
      "midi": 46,
      "hit": false,
      "t": 39529.392000000014,
      "d": 2821.6897656250003,
      "v": 72
    },
    {
      "midi": 56,
      "hit": false,
      "t": 42352.92000000001,
      "d": 2779.4103749999995,
      "v": 72
    },
    {
      "midi": 65,
      "hit": false,
      "t": 42352.92000000001,
      "d": 2790.439781250003,
      "v": 72
    },
    {
      "midi": 61,
      "hit": false,
      "t": 42352.92000000001,
      "d": 2808.822125000006,
      "v": 72
    },
    {
      "midi": 51,
      "hit": false,
      "t": 42352.92000000001,
      "d": 2818.013296875004,
      "v": 72
    },
    {
      "midi": 39,
      "hit": false,
      "t": 42352.92000000001,
      "d": 2832.7191718750037,
      "v": 72
    },
    {
      "midi": 56,
      "hit": false,
      "t": 45176.448000000004,
      "d": 2781.2486093749976,
      "v": 72
    },
    {
      "midi": 60,
      "hit": false,
      "t": 45176.448000000004,
      "d": 2781.2486093749976,
      "v": 72
    },
    {
      "midi": 63,
      "hit": false,
      "t": 45176.448000000004,
      "d": 2856.6162187500013,
      "v": 72
    },
    {
      "midi": 44,
      "hit": false,
      "t": 45176.448000000004,
      "d": 5623.158953124999,
      "v": 72
    },
    {
      "midi": 56,
      "hit": false,
      "t": 45176.44800000002,
      "d": 2781.2486093749976,
      "v": 72
    },
    {
      "midi": 60,
      "hit": false,
      "t": 45176.44800000002,
      "d": 2781.2486093749976,
      "v": 72
    },
    {
      "midi": 63,
      "hit": false,
      "t": 45176.44800000002,
      "d": 2856.6162187500013,
      "v": 72
    },
    {
      "midi": 44,
      "hit": false,
      "t": 45176.44800000002,
      "d": 5623.158953124999,
      "v": 72
    },
    {
      "midi": 61,
      "hit": false,
      "t": 47999.976,
      "d": 2748.160390625002,
      "v": 58
    },
    {
      "midi": 52,
      "hit": false,
      "t": 47999.976,
      "d": 2772.0574374999997,
      "v": 62
    },
    {
      "midi": 56,
      "hit": false,
      "t": 47999.976,
      "d": 2772.0574374999997,
      "v": 58
    },
    {
      "midi": 61,
      "hit": false,
      "t": 47999.97600000002,
      "d": 2748.160390625002,
      "v": 58
    },
    {
      "midi": 52,
      "hit": false,
      "t": 47999.97600000002,
      "d": 2772.0574374999997,
      "v": 62
    },
    {
      "midi": 56,
      "hit": false,
      "t": 47999.97600000002,
      "d": 2772.0574374999997,
      "v": 58
    },
    {
      "midi": 63,
      "hit": false,
      "t": 48705.85800000001,
      "d": 1889.7049374999988,
      "v": 58
    },
    {
      "midi": 63,
      "hit": false,
      "t": 48705.85800000002,
      "d": 1889.7049374999988,
      "v": 58
    },
    {
      "midi": 68,
      "hit": false,
      "t": 49058.799000000006,
      "d": 724.264343750001,
      "v": 62
    },
    {
      "midi": 68,
      "hit": false,
      "t": 49058.79900000002,
      "d": 724.264343750001,
      "v": 62
    },
    {
      "midi": 70,
      "hit": false,
      "t": 49764.681000000004,
      "d": 1018.3818437500013,
      "v": 66
    },
    {
      "midi": 70,
      "hit": false,
      "t": 49764.68100000002,
      "d": 1018.3818437500013,
      "v": 66
    },
    {
      "midi": 72,
      "hit": false,
      "t": 50823.504,
      "d": 882.3525000000009,
      "v": 72
    },
    {
      "midi": 41,
      "hit": false,
      "t": 50823.504,
      "d": 2775.733906250003,
      "v": 65
    },
    {
      "midi": 72,
      "hit": false,
      "t": 50823.504000000015,
      "d": 882.3525000000009,
      "v": 72
    },
    {
      "midi": 41,
      "hit": false,
      "t": 50823.504000000015,
      "d": 2775.733906250003,
      "v": 72
    },
    {
      "midi": 63,
      "hit": false,
      "t": 51176.445,
      "d": 1487.1316093750065,
      "v": 62
    },
    {
      "midi": 48,
      "hit": false,
      "t": 51176.445,
      "d": 2470.587000000007,
      "v": 65
    },
    {
      "midi": 63,
      "hit": false,
      "t": 51176.445000000014,
      "d": 1487.1316093750065,
      "v": 60
    },
    {
      "midi": 48,
      "hit": false,
      "t": 51176.445000000014,
      "d": 2470.587000000007,
      "v": 72
    },
    {
      "midi": 56,
      "hit": false,
      "t": 51529.386,
      "d": 2117.646000000008,
      "v": 65
    },
    {
      "midi": 56,
      "hit": false,
      "t": 51529.38600000001,
      "d": 2117.646000000008,
      "v": 72
    },
    {
      "midi": 55,
      "hit": false,
      "t": 51882.327000000005,
      "d": 1727.9403125000026,
      "v": 64
    },
    {
      "midi": 55,
      "hit": false,
      "t": 51882.32700000002,
      "d": 1727.9403125000026,
      "v": 72
    },
    {
      "midi": 51,
      "hit": false,
      "t": 53647.03200000001,
      "d": 2790.439781250003,
      "v": 56
    },
    {
      "midi": 60,
      "hit": false,
      "t": 53647.03200000001,
      "d": 2795.9544843750045,
      "v": 58
    },
    {
      "midi": 55,
      "hit": false,
      "t": 53647.03200000001,
      "d": 2825.366234375004,
      "v": 56
    },
    {
      "midi": 39,
      "hit": false,
      "t": 53647.03200000002,
      "d": 2770.2192031250015,
      "v": 62
    },
    {
      "midi": 51,
      "hit": false,
      "t": 53647.03200000002,
      "d": 2790.439781250003,
      "v": 62
    },
    {
      "midi": 60,
      "hit": false,
      "t": 53647.03200000002,
      "d": 2795.9544843750045,
      "v": 64
    },
    {
      "midi": 55,
      "hit": false,
      "t": 53647.03200000002,
      "d": 2825.366234375004,
      "v": 62
    },
    {
      "midi": 72,
      "hit": false,
      "t": 54705.85500000002,
      "d": 1691.1756250000035,
      "v": 65
    },
    {
      "midi": 56,
      "hit": false,
      "t": 56470.56000000003,
      "d": 345.58806249999907,
      "v": 72
    },
    {
      "midi": 61,
      "hit": false,
      "t": 56470.56000000003,
      "d": 597.4261718749985,
      "v": 72
    },
    {
      "midi": 65,
      "hit": false,
      "t": 56470.56000000003,
      "d": 854.7789843749997,
      "v": 72
    },
    {
      "midi": 37,
      "hit": false,
      "t": 56470.56000000003,
      "d": 2799.630953125001,
      "v": 72
    },
    {
      "midi": 49,
      "hit": false,
      "t": 56823.501000000026,
      "d": 2428.3076093749987,
      "v": 72
    },
    {
      "midi": 56,
      "hit": false,
      "t": 57176.442000000025,
      "d": 2044.116624999995,
      "v": 72
    },
    {
      "midi": 61,
      "hit": false,
      "t": 57529.38300000002,
      "d": 1420.9551718750008,
      "v": 72
    },
    {
      "midi": 65,
      "hit": false,
      "t": 57529.38300000002,
      "d": 1463.2345625000016,
      "v": 72
    },
    {
      "midi": 63,
      "hit": false,
      "t": 58941.147000000026,
      "d": 297.79396874999657,
      "v": 72
    },
    {
      "midi": 61,
      "hit": false,
      "t": 59117.61750000002,
      "d": 113.97053125000093,
      "v": 72
    },
    {
      "midi": 56,
      "hit": false,
      "t": 59294.088000000025,
      "d": 2761.0280312500036,
      "v": 72
    },
    {
      "midi": 63,
      "hit": false,
      "t": 59294.088000000025,
      "d": 2797.7927187500027,
      "v": 72
    },
    {
      "midi": 60,
      "hit": false,
      "t": 59294.088000000025,
      "d": 2816.175062500006,
      "v": 72
    },
    {
      "midi": 48,
      "hit": false,
      "t": 59294.088000000025,
      "d": 2818.013296875004,
      "v": 72
    },
    {
      "midi": 36,
      "hit": false,
      "t": 59294.088000000025,
      "d": 2821.6897656250076,
      "v": 72
    },
    {
      "midi": 65,
      "hit": false,
      "t": 62117.61600000003,
      "d": 2751.8368593749983,
      "v": 72
    },
    {
      "midi": 56,
      "hit": false,
      "t": 62117.61600000003,
      "d": 2772.0574374999997,
      "v": 72
    },
    {
      "midi": 61,
      "hit": false,
      "t": 62117.61600000003,
      "d": 2784.925078125001,
      "v": 72
    },
    {
      "midi": 58,
      "hit": false,
      "t": 62117.61600000003,
      "d": 2814.3368281250005,
      "v": 72
    },
    {
      "midi": 46,
      "hit": false,
      "t": 62117.61600000003,
      "d": 2821.6897656250003,
      "v": 72
    },
    {
      "midi": 56,
      "hit": false,
      "t": 64941.14400000003,
      "d": 2779.4103750000068,
      "v": 72
    },
    {
      "midi": 65,
      "hit": false,
      "t": 64941.14400000003,
      "d": 2790.43978125001,
      "v": 72
    },
    {
      "midi": 61,
      "hit": false,
      "t": 64941.14400000003,
      "d": 2808.822125000006,
      "v": 72
    },
    {
      "midi": 51,
      "hit": false,
      "t": 64941.14400000003,
      "d": 2818.0132968750113,
      "v": 72
    },
    {
      "midi": 39,
      "hit": false,
      "t": 64941.14400000003,
      "d": 2832.719171875011,
      "v": 72
    },
    {
      "midi": 56,
      "hit": false,
      "t": 67764.67200000004,
      "d": 1694.8520937499998,
      "v": 72
    },
    {
      "midi": 60,
      "hit": false,
      "t": 67764.67200000004,
      "d": 1801.4696875000081,
      "v": 72
    },
    {
      "midi": 63,
      "hit": false,
      "t": 67764.67200000004,
      "d": 1919.1166875000054,
      "v": 72
    },
    {
      "midi": 44,
      "hit": false,
      "t": 67764.67200000004,
      "d": 2272.0576875000115,
      "v": 72
    },
    {
      "midi": 56,
      "hit": false,
      "t": 69529.37700000004,
      "d": 1058.823000000004,
      "v": 72
    },
    {
      "midi": 60,
      "hit": false,
      "t": 69882.31800000004,
      "d": 628.6761562500033,
      "v": 72
    },
    {
      "midi": 63,
      "hit": false,
      "t": 69882.31800000004,
      "d": 658.0879062500026,
      "v": 72
    },
    {
      "midi": 44,
      "hit": false,
      "t": 70235.25900000005,
      "d": 340.0733593749901,
      "v": 72
    },
    {
      "midi": 48,
      "hit": false,
      "t": 70588.20000000004,
      "d": 928.3083593750052,
      "v": 72
    },
    {
      "midi": 36,
      "hit": false,
      "t": 70588.20000000004,
      "d": 2727.9398125000007,
      "v": 72
    },
    {
      "midi": 63,
      "hit": false,
      "t": 70588.20000000004,
      "d": 2753.6750937500037,
      "v": 72
    },
    {
      "midi": 58,
      "hit": false,
      "t": 70588.20000000004,
      "d": 2779.4103750000068,
      "v": 72
    },
    {
      "midi": 60,
      "hit": false,
      "t": 70588.20000000004,
      "d": 2779.4103750000068,
      "v": 72
    },
    {
      "midi": 67,
      "hit": false,
      "t": 70588.20000000004,
      "d": 2781.248609375005,
      "v": 72
    },
    {
      "midi": 48,
      "hit": false,
      "t": 72705.84600000005,
      "d": 661.7643749999988,
      "v": 72
    },
    {
      "midi": 56,
      "hit": false,
      "t": 73411.72800000005,
      "d": 1654.410937499997,
      "v": 72
    },
    {
      "midi": 49,
      "hit": false,
      "t": 73411.72800000005,
      "d": 1731.6167812499916,
      "v": 72
    },
    {
      "midi": 61,
      "hit": false,
      "t": 73411.72800000005,
      "d": 2352.939999999988,
      "v": 72
    },
    {
      "midi": 65,
      "hit": false,
      "t": 73411.72800000005,
      "d": 2426.469374999986,
      "v": 72
    },
    {
      "midi": 37,
      "hit": false,
      "t": 73411.72800000005,
      "d": 2472.425234374983,
      "v": 72
    },
    {
      "midi": 56,
      "hit": false,
      "t": 75176.43300000003,
      "d": 365.8086406250077,
      "v": 72
    },
    {
      "midi": 49,
      "hit": false,
      "t": 75529.37400000004,
      "d": 292.2792656249949,
      "v": 72
    },
    {
      "midi": 63,
      "hit": false,
      "t": 75882.31500000003,
      "d": 1347.4257968750026,
      "v": 72
    },
    {
      "midi": 58,
      "hit": false,
      "t": 75882.31500000003,
      "d": 1374.9993125000037,
      "v": 72
    },
    {
      "midi": 54,
      "hit": false,
      "t": 75882.31500000003,
      "d": 1382.3522500000108,
      "v": 72
    },
    {
      "midi": 61,
      "hit": false,
      "t": 75882.31500000003,
      "d": 1397.0581250000105,
      "v": 72
    },
    {
      "midi": 42,
      "hit": false,
      "t": 75882.31500000003,
      "d": 1420.9551718750154,
      "v": 72
    },
    {
      "midi": 43,
      "hit": false,
      "t": 77294.07900000004,
      "d": 920.9554218749981,
      "v": 72
    },
    {
      "midi": 63,
      "hit": false,
      "t": 77294.07900000004,
      "d": 1707.7197343750013,
      "v": 72
    },
    {
      "midi": 55,
      "hit": false,
      "t": 77294.07900000004,
      "d": 1713.2344374999957,
      "v": 72
    },
    {
      "midi": 58,
      "hit": false,
      "t": 77294.07900000004,
      "d": 1715.0726718749938,
      "v": 72
    },
    {
      "midi": 43,
      "hit": false,
      "t": 78352.90200000005,
      "d": 658.087906249988,
      "v": 72
    },
    {
      "midi": 56,
      "hit": false,
      "t": 79058.78400000003,
      "d": 920.9554218749981,
      "v": 72
    },
    {
      "midi": 44,
      "hit": false,
      "t": 79058.78400000003,
      "d": 1071.6906406250055,
      "v": 72
    },
    {
      "midi": 63,
      "hit": false,
      "t": 79058.78400000003,
      "d": 1354.7787343750097,
      "v": 72
    },
    {
      "midi": 60,
      "hit": false,
      "t": 79058.78400000003,
      "d": 2018.3813437500066,
      "v": 72
    },
    {
      "midi": 56,
      "hit": false,
      "t": 80117.60700000003,
      "d": 229.779296875,
      "v": 72
    },
    {
      "midi": 44,
      "hit": false,
      "t": 80294.07750000003,
      "d": 1049.6318281250133,
      "v": 72
    },
    {
      "midi": 63,
      "hit": false,
      "t": 80470.54800000004,
      "d": 1365.8081406249985,
      "v": 72
    },
    {
      "midi": 56,
      "hit": false,
      "t": 80470.54800000004,
      "d": 1384.1904843749944,
      "v": 72
    },
    {
      "midi": 60,
      "hit": false,
      "t": 81176.43000000004,
      "d": 656.2496718750044,
      "v": 72
    },
    {
      "midi": 44,
      "hit": false,
      "t": 81529.37100000004,
      "d": 270.2204531250027,
      "v": 72
    },
    {
      "midi": 48,
      "hit": false,
      "t": 81882.31200000003,
      "d": 860.2936875000014,
      "v": 72
    },
    {
      "midi": 58,
      "hit": false,
      "t": 81882.31200000003,
      "d": 1999.9989999999962,
      "v": 72
    },
    {
      "midi": 60,
      "hit": false,
      "t": 81882.31200000003,
      "d": 2044.116624999995,
      "v": 72
    },
    {
      "midi": 67,
      "hit": false,
      "t": 81882.31200000003,
      "d": 2051.469562500002,
      "v": 72
    },
    {
      "midi": 63,
      "hit": false,
      "t": 81882.31200000003,
      "d": 2084.557781249998,
      "v": 72
    },
    {
      "midi": 36,
      "hit": false,
      "t": 81882.31200000003,
      "d": 2270.219453124999,
      "v": 72
    },
    {
      "midi": 48,
      "hit": false,
      "t": 82941.13500000004,
      "d": 1338.2346249999973,
      "v": 72
    },
    {
      "midi": 55,
      "hit": false,
      "t": 83647.01700000004,
      "d": 1034.925953124999,
      "v": 72
    },
    {
      "midi": 60,
      "hit": false,
      "t": 83999.95800000003,
      "d": 648.8967343750119,
      "v": 72
    },
    {
      "midi": 63,
      "hit": false,
      "t": 83999.95800000003,
      "d": 696.6908281250071,
      "v": 72
    },
    {
      "midi": 58,
      "hit": false,
      "t": 83999.95800000003,
      "d": 718.7496406250139,
      "v": 72
    },
    {
      "midi": 36,
      "hit": false,
      "t": 84352.89900000003,
      "d": 354.7792343750043,
      "v": 72
    },
    {
      "midi": 49,
      "hit": false,
      "t": 84705.84000000004,
      "d": 1284.9258281250077,
      "v": 72
    },
    {
      "midi": 56,
      "hit": false,
      "t": 84705.84000000004,
      "d": 1652.5727031250135,
      "v": 72
    },
    {
      "midi": 61,
      "hit": false,
      "t": 84705.84000000004,
      "d": 1979.7784218750166,
      "v": 72
    },
    {
      "midi": 37,
      "hit": false,
      "t": 84705.84000000004,
      "d": 2386.028218750027,
      "v": 72
    },
    {
      "midi": 65,
      "hit": false,
      "t": 84705.84000000004,
      "d": 2408.0870312500338,
      "v": 72
    },
    {
      "midi": 49,
      "hit": false,
      "t": 86117.60400000005,
      "d": 1034.9259531250136,
      "v": 72
    },
    {
      "midi": 56,
      "hit": false,
      "t": 86470.54500000006,
      "d": 647.0585000000137,
      "v": 72
    },
    {
      "midi": 61,
      "hit": false,
      "t": 86823.48600000006,
      "d": 308.8233750000072,
      "v": 72
    },
    {
      "midi": 63,
      "hit": false,
      "t": 87176.42700000007,
      "d": 1352.940499999997,
      "v": 72
    },
    {
      "midi": 58,
      "hit": false,
      "t": 87176.42700000007,
      "d": 1358.4552031249914,
      "v": 72
    },
    {
      "midi": 42,
      "hit": false,
      "t": 87176.42700000007,
      "d": 1373.161078124991,
      "v": 72
    },
    {
      "midi": 54,
      "hit": false,
      "t": 87176.42700000007,
      "d": 1382.3522499999963,
      "v": 72
    },
    {
      "midi": 61,
      "hit": false,
      "t": 87176.42700000007,
      "d": 1406.2492968750012,
      "v": 72
    },
    {
      "midi": 55,
      "hit": false,
      "t": 88588.19100000006,
      "d": 1711.3962031249976,
      "v": 72
    },
    {
      "midi": 43,
      "hit": false,
      "t": 88588.19100000006,
      "d": 1740.8079531249969,
      "v": 72
    },
    {
      "midi": 58,
      "hit": false,
      "t": 88588.19100000006,
      "d": 1740.8079531249969,
      "v": 72
    },
    {
      "midi": 63,
      "hit": false,
      "t": 88588.19100000006,
      "d": 1788.6020468750066,
      "v": 72
    },
    {
      "midi": 53,
      "hit": false,
      "t": 90352.89600000007,
      "d": 803.3084218750009,
      "v": 72
    },
    {
      "midi": 65,
      "hit": false,
      "t": 90352.89600000007,
      "d": 1040.440656250008,
      "v": 70
    },
    {
      "midi": 56,
      "hit": false,
      "t": 90352.89600000007,
      "d": 2777.5721406250086,
      "v": 72
    },
    {
      "midi": 60,
      "hit": false,
      "t": 90352.89600000007,
      "d": 2812.4985937500023,
      "v": 72
    },
    {
      "midi": 68,
      "hit": false,
      "t": 90705.83700000007,
      "d": 1444.8522187499912,
      "v": 68
    },
    {
      "midi": 53,
      "hit": false,
      "t": 91411.71900000007,
      "d": 630.5143906250014,
      "v": 64
    },
    {
      "midi": 53,
      "hit": false,
      "t": 92117.60100000007,
      "d": 566.1761874999938,
      "v": 60
    },
    {
      "midi": 72,
      "hit": false,
      "t": 92117.60100000007,
      "d": 904.4113125000003,
      "v": 89
    },
    {
      "midi": 53,
      "hit": false,
      "t": 92823.48300000007,
      "d": 235.29400000000896,
      "v": 72
    },
    {
      "midi": 52,
      "hit": false,
      "t": 93176.42400000007,
      "d": 2327.2047187499993,
      "v": 72
    },
    {
      "midi": 72,
      "hit": false,
      "t": 93176.42400000007,
      "d": 2523.8957968750037,
      "v": 89
    },
    {
      "midi": 56,
      "hit": false,
      "t": 93176.42400000007,
      "d": 2803.307421874997,
      "v": 72
    },
    {
      "midi": 60,
      "hit": false,
      "t": 93176.42400000007,
      "d": 2803.307421874997,
      "v": 72
    },
    {
      "midi": 52,
      "hit": false,
      "t": 95647.01100000007,
      "d": 329.0439531250013,
      "v": 72
    },
    {
      "midi": 72,
      "hit": false,
      "t": 95999.95200000006,
      "d": 1753.6755937499984,
      "v": 89
    },
    {
      "midi": 56,
      "hit": false,
      "t": 95999.95200000006,
      "d": 2757.3515625000146,
      "v": 72
    },
    {
      "midi": 53,
      "hit": false,
      "t": 95999.95200000006,
      "d": 2759.1897968750127,
      "v": 72
    },
    {
      "midi": 63,
      "hit": false,
      "t": 95999.95200000006,
      "d": 2775.7339062500105,
      "v": 72
    },
    {
      "midi": 60,
      "hit": false,
      "t": 95999.95200000006,
      "d": 2805.14565625001,
      "v": 72
    },
    {
      "midi": 65,
      "hit": false,
      "t": 97764.65700000006,
      "d": 663.6026093750115,
      "v": 85
    },
    {
      "midi": 77,
      "hit": false,
      "t": 98117.59800000007,
      "d": 818.0142968750006,
      "v": 85
    },
    {
      "midi": 53,
      "hit": false,
      "t": 98823.48000000007,
      "d": 499.9997500000027,
      "v": 72
    },
    {
      "midi": 56,
      "hit": false,
      "t": 98823.48000000007,
      "d": 1373.161078124991,
      "v": 72
    },
    {
      "midi": 61,
      "hit": false,
      "t": 98823.48000000007,
      "d": 1376.8375468749873,
      "v": 72
    },
    {
      "midi": 58,
      "hit": false,
      "t": 98823.48000000007,
      "d": 1378.6757812499854,
      "v": 72
    },
    {
      "midi": 53,
      "hit": false,
      "t": 99529.36200000007,
      "d": 670.9555468749895,
      "v": 72
    },
    {
      "midi": 65,
      "hit": false,
      "t": 100235.24400000005,
      "d": 1374.9993125000037,
      "v": 72
    },
    {
      "midi": 56,
      "hit": false,
      "t": 100235.24400000005,
      "d": 1376.8375468750019,
      "v": 72
    },
    {
      "midi": 61,
      "hit": false,
      "t": 100235.24400000005,
      "d": 1382.3522499999963,
      "v": 72
    },
    {
      "midi": 56,
      "hit": false,
      "t": 101647.00800000005,
      "d": 1941.1754999999976,
      "v": 72
    },
    {
      "midi": 60,
      "hit": false,
      "t": 101647.00800000005,
      "d": 2027.5725156249973,
      "v": 72
    },
    {
      "midi": 63,
      "hit": false,
      "t": 101647.00800000005,
      "d": 2053.3077968750003,
      "v": 72
    },
    {
      "midi": 56,
      "hit": false,
      "t": 103764.65400000004,
      "d": 599.264406250004,
      "v": 72
    },
    {
      "midi": 60,
      "hit": false,
      "t": 103764.65400000004,
      "d": 610.2938125000073,
      "v": 72
    },
    {
      "midi": 63,
      "hit": false,
      "t": 103764.65400000004,
      "d": 663.6026093750115,
      "v": 72
    },
    {
      "midi": 65,
      "hit": false,
      "t": 104470.53600000005,
      "d": 2071.6901406249963,
      "v": 72
    },
    {
      "midi": 60,
      "hit": false,
      "t": 104470.53600000005,
      "d": 2095.587187500001,
      "v": 72
    },
    {
      "midi": 62,
      "hit": false,
      "t": 104470.53600000005,
      "d": 2099.2636562499974,
      "v": 72
    },
    {
      "midi": 65,
      "hit": false,
      "t": 106588.18200000004,
      "d": 641.5437968750048,
      "v": 72
    },
    {
      "midi": 60,
      "hit": false,
      "t": 106588.18200000004,
      "d": 665.4408437500097,
      "v": 72
    },
    {
      "midi": 62,
      "hit": false,
      "t": 106588.18200000004,
      "d": 672.7937812500168,
      "v": 72
    },
    {
      "midi": 56,
      "hit": false,
      "t": 107294.06400000006,
      "d": 985.2936250000057,
      "v": 72
    },
    {
      "midi": 61,
      "hit": false,
      "t": 107294.06400000006,
      "d": 1055.1465312500077,
      "v": 72
    },
    {
      "midi": 65,
      "hit": false,
      "t": 107294.06400000006,
      "d": 1056.9847656250058,
      "v": 72
    },
    {
      "midi": 56,
      "hit": false,
      "t": 108352.88700000006,
      "d": 1718.7491406250047,
      "v": 72
    },
    {
      "midi": 60,
      "hit": false,
      "t": 108352.88700000006,
      "d": 1731.6167812500062,
      "v": 72
    },
    {
      "midi": 63,
      "hit": false,
      "t": 108352.88700000006,
      "d": 1746.3226562500058,
      "v": 72
    },
    {
      "midi": 65,
      "hit": false,
      "t": 110117.59200000006,
      "d": 1011.0289062499942,
      "v": 72
    },
    {
      "midi": 61,
      "hit": false,
      "t": 110117.59200000006,
      "d": 1014.7053749999905,
      "v": 72
    },
    {
      "midi": 58,
      "hit": false,
      "t": 110117.59200000006,
      "d": 1025.7347812499938,
      "v": 72
    },
    {
      "midi": 61,
      "hit": false,
      "t": 111176.41500000005,
      "d": 1724.263843749999,
      "v": 72
    },
    {
      "midi": 65,
      "hit": false,
      "t": 111176.41500000005,
      "d": 1727.9403124999953,
      "v": 72
    },
    {
      "midi": 56,
      "hit": false,
      "t": 111176.41500000005,
      "d": 1737.1314843750006,
      "v": 72
    },
    {
      "midi": 60,
      "hit": false,
      "t": 112941.12000000005,
      "d": 2733.454515624995,
      "v": 73
    },
    {
      "midi": 56,
      "hit": false,
      "t": 112941.12000000005,
      "d": 2737.1309843749914,
      "v": 73
    },
    {
      "midi": 63,
      "hit": false,
      "t": 112941.12000000005,
      "d": 2746.3221562499966,
      "v": 73
    },
    {
      "midi": 56,
      "hit": false,
      "t": 115764.64800000004,
      "d": 2729.7780468750134,
      "v": 63
    },
    {
      "midi": 61,
      "hit": false,
      "t": 115764.64800000004,
      "d": 2729.7780468750134,
      "v": 63
    },
    {
      "midi": 63,
      "hit": false,
      "t": 116470.53000000004,
      "d": 2477.939937500021,
      "v": 78
    },
    {
      "midi": 68,
      "hit": false,
      "t": 116823.47100000005,
      "d": 762.8672656249983,
      "v": 78
    },
    {
      "midi": 70,
      "hit": false,
      "t": 117529.35300000005,
      "d": 799.6319531250047,
      "v": 78
    },
    {
      "midi": 72,
      "hit": false,
      "t": 118235.23500000004,
      "d": 658.0879062500171,
      "v": 78
    },
    {
      "midi": 53,
      "hit": false,
      "t": 118588.17600000006,
      "d": 2799.630953125001,
      "v": 78
    },
    {
      "midi": 56,
      "hit": false,
      "t": 118588.17600000006,
      "d": 2799.630953125001,
      "v": 78
    },
    {
      "midi": 60,
      "hit": false,
      "t": 118588.17600000006,
      "d": 2799.630953125001,
      "v": 78
    },
    {
      "midi": 61,
      "hit": false,
      "t": 121411.70400000007,
      "d": 2082.7195468749997,
      "v": 72
    },
    {
      "midi": 56,
      "hit": false,
      "t": 121411.70400000007,
      "d": 2084.557781249998,
      "v": 72
    },
    {
      "midi": 53,
      "hit": false,
      "t": 121411.70400000007,
      "d": 2086.396015624996,
      "v": 72
    },
    {
      "midi": 56,
      "hit": false,
      "t": 123529.35000000006,
      "d": 661.7643749999988,
      "v": 72
    },
    {
      "midi": 61,
      "hit": false,
      "t": 123529.35000000006,
      "d": 661.7643749999988,
      "v": 72
    },
    {
      "midi": 56,
      "hit": false,
      "t": 124235.23200000006,
      "d": 2781.248609375005,
      "v": 72
    },
    {
      "midi": 60,
      "hit": false,
      "t": 124235.23200000006,
      "d": 2781.248609375005,
      "v": 72
    },
    {
      "midi": 63,
      "hit": false,
      "t": 124235.23200000006,
      "d": 2856.6162187500013,
      "v": 72
    },
    {
      "midi": 61,
      "hit": false,
      "t": 127058.76000000007,
      "d": 2748.1603906249948,
      "v": 72
    },
    {
      "midi": 52,
      "hit": false,
      "t": 127058.76000000007,
      "d": 2772.0574374999997,
      "v": 72
    },
    {
      "midi": 56,
      "hit": false,
      "t": 127058.76000000007,
      "d": 2772.0574374999997,
      "v": 72
    },
    {
      "midi": 70,
      "hit": false,
      "t": 129176.40600000006,
      "d": 705.8820000000123,
      "v": 72
    },
    {
      "midi": 60,
      "hit": false,
      "t": 129882.28800000007,
      "d": 2722.4251093749917,
      "v": 72
    },
    {
      "midi": 53,
      "hit": false,
      "t": 129882.28800000007,
      "d": 2737.130984375006,
      "v": 72
    },
    {
      "midi": 72,
      "hit": false,
      "t": 129882.28800000007,
      "d": 2748.1603906249948,
      "v": 72
    },
    {
      "midi": 56,
      "hit": false,
      "t": 129882.28800000007,
      "d": 2773.895671874998,
      "v": 72
    },
    {
      "midi": 51,
      "hit": false,
      "t": 132705.81600000008,
      "d": 2812.4985937500023,
      "v": 72
    },
    {
      "midi": 55,
      "hit": false,
      "t": 132705.81600000008,
      "d": 2812.4985937500023,
      "v": 72
    },
    {
      "midi": 60,
      "hit": false,
      "t": 132705.81600000008,
      "d": 2812.4985937500023,
      "v": 72
    },
    {
      "midi": 63,
      "hit": false,
      "t": 132705.81600000008,
      "d": 2812.4985937500023,
      "v": 72
    },
    {
      "midi": 61,
      "hit": false,
      "t": 135529.34400000007,
      "d": 2792.2780156249937,
      "v": 72
    },
    {
      "midi": 53,
      "hit": false,
      "t": 135529.34400000007,
      "d": 2812.4985937500023,
      "v": 72
    },
    {
      "midi": 56,
      "hit": false,
      "t": 135529.34400000007,
      "d": 2812.4985937500023,
      "v": 72
    },
    {
      "midi": 65,
      "hit": false,
      "t": 135529.34400000007,
      "d": 2812.4985937500023,
      "v": 72
    },
    {
      "midi": 56,
      "hit": false,
      "t": 138352.87200000006,
      "d": 2761.0280312499963,
      "v": 72
    },
    {
      "midi": 63,
      "hit": false,
      "t": 138352.87200000006,
      "d": 2797.792718749988,
      "v": 72
    },
    {
      "midi": 60,
      "hit": false,
      "t": 138352.87200000006,
      "d": 2816.1750624999986,
      "v": 72
    },
    {
      "midi": 65,
      "hit": false,
      "t": 141176.40000000005,
      "d": 2751.8368593750056,
      "v": 72
    },
    {
      "midi": 56,
      "hit": false,
      "t": 141176.40000000005,
      "d": 2772.057437500014,
      "v": 72
    },
    {
      "midi": 61,
      "hit": false,
      "t": 141176.40000000005,
      "d": 2784.925078125001,
      "v": 72
    },
    {
      "midi": 58,
      "hit": false,
      "t": 141176.40000000005,
      "d": 2814.3368281250005,
      "v": 72
    },
    {
      "midi": 56,
      "hit": false,
      "t": 143999.92800000004,
      "d": 2779.4103750000068,
      "v": 72
    },
    {
      "midi": 65,
      "hit": false,
      "t": 143999.92800000004,
      "d": 2790.4397812499956,
      "v": 72
    },
    {
      "midi": 61,
      "hit": false,
      "t": 143999.92800000004,
      "d": 2808.822125000006,
      "v": 72
    },
    {
      "midi": 56,
      "hit": false,
      "t": 146823.45600000006,
      "d": 1694.8520937499998,
      "v": 72
    },
    {
      "midi": 60,
      "hit": false,
      "t": 146823.45600000006,
      "d": 1801.469687499979,
      "v": 72
    },
    {
      "midi": 63,
      "hit": false,
      "t": 146823.45600000006,
      "d": 1919.1166874999763,
      "v": 72
    },
    {
      "midi": 56,
      "hit": false,
      "t": 148588.16100000005,
      "d": 1058.823000000004,
      "v": 72
    },
    {
      "midi": 60,
      "hit": false,
      "t": 148941.10200000004,
      "d": 628.6761562500033,
      "v": 72
    },
    {
      "midi": 63,
      "hit": false,
      "t": 148941.10200000004,
      "d": 658.0879062500026,
      "v": 72
    },
    {
      "midi": 63,
      "hit": false,
      "t": 149646.98400000005,
      "d": 2753.6750937500037,
      "v": 72
    },
    {
      "midi": 60,
      "hit": false,
      "t": 149646.98400000005,
      "d": 2779.4103750000068,
      "v": 72
    },
    {
      "midi": 67,
      "hit": false,
      "t": 149646.98400000005,
      "d": 2781.248609375005,
      "v": 72
    },
    {
      "midi": 56,
      "hit": false,
      "t": 152470.51200000005,
      "d": 1654.4109375000116,
      "v": 72
    },
    {
      "midi": 61,
      "hit": false,
      "t": 152470.51200000005,
      "d": 2352.9400000000314,
      "v": 72
    },
    {
      "midi": 65,
      "hit": false,
      "t": 152470.51200000005,
      "d": 2426.4693750000442,
      "v": 72
    },
    {
      "midi": 56,
      "hit": false,
      "t": 154235.21700000006,
      "d": 365.8086406250077,
      "v": 72
    },
    {
      "midi": 63,
      "hit": false,
      "t": 154941.0990000001,
      "d": 1347.4257968750026,
      "v": 72
    },
    {
      "midi": 58,
      "hit": false,
      "t": 154941.0990000001,
      "d": 1374.9993125000037,
      "v": 72
    },
    {
      "midi": 63,
      "hit": false,
      "t": 156352.8630000001,
      "d": 1707.7197343749867,
      "v": 72
    },
    {
      "midi": 58,
      "hit": false,
      "t": 156352.8630000001,
      "d": 1715.0726718749793,
      "v": 72
    },
    {
      "midi": 56,
      "hit": false,
      "t": 158117.5680000001,
      "d": 1941.175500000012,
      "v": 72
    },
    {
      "midi": 60,
      "hit": false,
      "t": 158117.5680000001,
      "d": 2027.5725156250119,
      "v": 72
    },
    {
      "midi": 63,
      "hit": false,
      "t": 158117.5680000001,
      "d": 2053.307796875015,
      "v": 72
    },
    {
      "midi": 56,
      "hit": false,
      "t": 160235.2140000001,
      "d": 599.264406250004,
      "v": 72
    },
    {
      "midi": 60,
      "hit": false,
      "t": 160235.2140000001,
      "d": 610.2938124999928,
      "v": 72
    },
    {
      "midi": 63,
      "hit": false,
      "t": 160235.2140000001,
      "d": 663.602609374997,
      "v": 72
    },
    {
      "midi": 56,
      "hit": false,
      "t": 160941.09600000008,
      "d": 2020.2195781249902,
      "v": 72
    },
    {
      "midi": 65,
      "hit": false,
      "t": 160941.09600000008,
      "d": 2071.6901406249963,
      "v": 72
    },
    {
      "midi": 60,
      "hit": false,
      "t": 160941.09600000008,
      "d": 2095.587187500001,
      "v": 72
    },
    {
      "midi": 62,
      "hit": false,
      "t": 160941.09600000008,
      "d": 2099.2636562499974,
      "v": 72
    },
    {
      "midi": 65,
      "hit": false,
      "t": 163058.7420000001,
      "d": 641.5437968749902,
      "v": 72
    },
    {
      "midi": 56,
      "hit": false,
      "t": 163058.7420000001,
      "d": 663.602609374997,
      "v": 72
    },
    {
      "midi": 60,
      "hit": false,
      "t": 163058.7420000001,
      "d": 665.4408437499951,
      "v": 72
    },
    {
      "midi": 62,
      "hit": false,
      "t": 163058.7420000001,
      "d": 672.7937812499877,
      "v": 72
    },
    {
      "midi": 56,
      "hit": false,
      "t": 163764.62400000007,
      "d": 985.2936249999912,
      "v": 72
    },
    {
      "midi": 61,
      "hit": false,
      "t": 163764.62400000007,
      "d": 1055.1465312499786,
      "v": 72
    },
    {
      "midi": 65,
      "hit": false,
      "t": 163764.62400000007,
      "d": 1056.9847656249767,
      "v": 72
    },
    {
      "midi": 56,
      "hit": false,
      "t": 164823.44700000004,
      "d": 1718.7491406250047,
      "v": 72
    },
    {
      "midi": 60,
      "hit": false,
      "t": 164823.44700000004,
      "d": 1731.6167812499916,
      "v": 72
    },
    {
      "midi": 63,
      "hit": false,
      "t": 164823.44700000004,
      "d": 1746.3226562500058,
      "v": 72
    },
    {
      "midi": 65,
      "hit": false,
      "t": 166588.15200000006,
      "d": 1011.0289062499942,
      "v": 72
    },
    {
      "midi": 61,
      "hit": false,
      "t": 166588.15200000006,
      "d": 1014.7053749999905,
      "v": 72
    },
    {
      "midi": 56,
      "hit": false,
      "t": 166588.15200000006,
      "d": 1033.087718750001,
      "v": 72
    },
    {
      "midi": 61,
      "hit": false,
      "t": 167646.97500000006,
      "d": 1724.263843749999,
      "v": 72
    },
    {
      "midi": 65,
      "hit": false,
      "t": 167646.97500000006,
      "d": 1727.9403124999953,
      "v": 72
    },
    {
      "midi": 56,
      "hit": false,
      "t": 167646.97500000006,
      "d": 1737.131484374986,
      "v": 72
    },
    {
      "midi": 59,
      "hit": false,
      "t": 169411.68000000005,
      "d": 2005.5137031250051,
      "v": 85
    },
    {
      "midi": 63,
      "hit": false,
      "t": 169411.68000000005,
      "d": 2544.1163750000123,
      "v": 85
    },
    {
      "midi": 66,
      "hit": false,
      "t": 169411.68000000005,
      "d": 2689.3368906250107,
      "v": 85
    },
    {
      "midi": 59,
      "hit": false,
      "t": 171705.79650000005,
      "d": 301.47043750001467,
      "v": 85
    },
    {
      "midi": 61,
      "hit": false,
      "t": 172058.73750000008,
      "d": 91.91171874999418,
      "v": 85
    },
    {
      "midi": 61,
      "hit": false,
      "t": 172235.20800000007,
      "d": 1487.1316093750065,
      "v": 85
    },
    {
      "midi": 56,
      "hit": false,
      "t": 172235.20800000007,
      "d": 1591.9109687500168,
      "v": 85
    },
    {
      "midi": 65,
      "hit": false,
      "t": 172235.20800000007,
      "d": 1643.3815312500228,
      "v": 85
    },
    {
      "midi": 56,
      "hit": false,
      "t": 173999.9130000001,
      "d": 397.0586250000051,
      "v": 85
    },
    {
      "midi": 61,
      "hit": false,
      "t": 173999.9130000001,
      "d": 422.79390625000815,
      "v": 85
    },
    {
      "midi": 68,
      "hit": false,
      "t": 173999.9130000001,
      "d": 459.55859375,
      "v": 85
    },
    {
      "midi": 61,
      "hit": false,
      "t": 174529.32450000008,
      "d": 358.45570312498603,
      "v": 85
    },
    {
      "midi": 56,
      "hit": false,
      "t": 174529.32450000008,
      "d": 417.27920312498463,
      "v": 85
    },
    {
      "midi": 65,
      "hit": false,
      "t": 174529.32450000008,
      "d": 525.7350312499912,
      "v": 85
    },
    {
      "midi": 58,
      "hit": false,
      "t": 175058.73600000006,
      "d": 1558.822749999992,
      "v": 85
    },
    {
      "midi": 63,
      "hit": false,
      "t": 175058.73600000006,
      "d": 1799.631453124981,
      "v": 85
    },
    {
      "midi": 67,
      "hit": false,
      "t": 175058.73600000006,
      "d": 1992.646062499989,
      "v": 85
    },
    {
      "midi": 58,
      "hit": false,
      "t": 176823.44100000005,
      "d": 279.4116250000079,
      "v": 85
    },
    {
      "midi": 62,
      "hit": false,
      "t": 177176.38200000007,
      "d": 608.4555781249946,
      "v": 85
    },
    {
      "midi": 58,
      "hit": false,
      "t": 177176.38200000007,
      "d": 612.1320468749909,
      "v": 85
    },
    {
      "midi": 55,
      "hit": false,
      "t": 177882.26400000005,
      "d": 1659.925640625006,
      "v": 85
    },
    {
      "midi": 63,
      "hit": false,
      "t": 177882.26400000005,
      "d": 1718.7491406250047,
      "v": 85
    },
    {
      "midi": 60,
      "hit": false,
      "t": 177882.26400000005,
      "d": 1737.1314843750151,
      "v": 85
    },
    {
      "midi": 55,
      "hit": false,
      "t": 179646.96900000007,
      "d": 408.08803124999395,
      "v": 85
    },
    {
      "midi": 60,
      "hit": false,
      "t": 179646.96900000007,
      "d": 454.0438906250056,
      "v": 85
    },
    {
      "midi": 67,
      "hit": false,
      "t": 179646.96900000007,
      "d": 955.8818750000501,
      "v": 85
    },
    {
      "midi": 55,
      "hit": false,
      "t": 180176.3805000001,
      "d": 187.49990625001374,
      "v": 85
    },
    {
      "midi": 60,
      "hit": false,
      "t": 180176.3805000001,
      "d": 268.3822187500191,
      "v": 85
    },
    {
      "midi": 63,
      "hit": false,
      "t": 180176.3805000001,
      "d": 297.7939687500184,
      "v": 85
    },
    {
      "midi": 59,
      "hit": false,
      "t": 180529.3215000001,
      "d": 2393.3811562500196,
      "v": 85
    },
    {
      "midi": 63,
      "hit": false,
      "t": 180705.79200000013,
      "d": 2612.1310468750016,
      "v": 85
    },
    {
      "midi": 66,
      "hit": false,
      "t": 180705.79200000013,
      "d": 2639.704562500003,
      "v": 85
    },
    {
      "midi": 59,
      "hit": false,
      "t": 182999.90850000014,
      "d": 424.6321406249772,
      "v": 85
    },
    {
      "midi": 61,
      "hit": false,
      "t": 183352.84950000013,
      "d": 113.97053124997183,
      "v": 85
    },
    {
      "midi": 56,
      "hit": false,
      "t": 183529.3200000001,
      "d": 900.7348437499895,
      "v": 85
    },
    {
      "midi": 61,
      "hit": false,
      "t": 183529.3200000001,
      "d": 1678.3079843750165,
      "v": 85
    },
    {
      "midi": 65,
      "hit": false,
      "t": 183529.3200000001,
      "d": 1784.925578125025,
      "v": 85
    },
    {
      "midi": 56,
      "hit": false,
      "t": 184588.1430000001,
      "d": 518.3820937499986,
      "v": 85
    },
    {
      "midi": 56,
      "hit": false,
      "t": 185294.0250000001,
      "d": 424.6321406250063,
      "v": 85
    },
    {
      "midi": 61,
      "hit": false,
      "t": 185470.4955000001,
      "d": 507.3526875000098,
      "v": 85
    },
    {
      "midi": 65,
      "hit": false,
      "t": 185470.4955000001,
      "d": 566.1761875000084,
      "v": 85
    },
    {
      "midi": 56,
      "hit": false,
      "t": 185823.43650000013,
      "d": 150.73521874999278,
      "v": 85
    },
    {
      "midi": 58,
      "hit": false,
      "t": 186352.84800000011,
      "d": 1459.5580937500054,
      "v": 85
    },
    {
      "midi": 67,
      "hit": false,
      "t": 186352.84800000011,
      "d": 1744.4844218750077,
      "v": 85
    },
    {
      "midi": 63,
      "hit": false,
      "t": 186352.84800000011,
      "d": 1777.5726406250033,
      "v": 85
    },
    {
      "midi": 58,
      "hit": false,
      "t": 188117.55300000013,
      "d": 387.86745312498533,
      "v": 85
    },
    {
      "midi": 63,
      "hit": false,
      "t": 188294.02350000013,
      "d": 876.8377968750137,
      "v": 85
    },
    {
      "midi": 58,
      "hit": false,
      "t": 188646.96450000012,
      "d": 275.73515625001164,
      "v": 85
    },
    {
      "midi": 60,
      "hit": false,
      "t": 189176.37600000013,
      "d": 729.7790468749881,
      "v": 85
    },
    {
      "midi": 63,
      "hit": false,
      "t": 189176.37600000013,
      "d": 749.9996249999967,
      "v": 85
    },
    {
      "midi": 67,
      "hit": false,
      "t": 189176.37600000013,
      "d": 816.1760624999879,
      "v": 85
    },
    {
      "midi": 67,
      "hit": false,
      "t": 190235.1990000001,
      "d": 485.293875000003,
      "v": 85
    },
    {
      "midi": 72,
      "hit": false,
      "t": 190411.6695000001,
      "d": 1525.7345312500547,
      "v": 85
    },
    {
      "midi": 67,
      "hit": false,
      "t": 190764.61050000013,
      "d": 459.55859375,
      "v": 85
    },
    {
      "midi": 75,
      "hit": false,
      "t": 190764.61050000013,
      "d": 477.9409375000105,
      "v": 85
    },
    {
      "midi": 79,
      "hit": false,
      "t": 191294.02200000014,
      "d": 437.49978124999325,
      "v": 85
    },
    {
      "midi": 67,
      "hit": false,
      "t": 191294.02200000014,
      "d": 645.2202656250156,
      "v": 85
    },
    {
      "midi": 75,
      "hit": false,
      "t": 191646.96300000013,
      "d": 246.32340625001234,
      "v": 85
    },
    {
      "midi": 68,
      "hit": false,
      "t": 191999.90400000016,
      "d": 1738.9697187500133,
      "v": 85
    },
    {
      "midi": 61,
      "hit": false,
      "t": 191999.90400000016,
      "d": 1764.7050000000163,
      "v": 85
    },
    {
      "midi": 65,
      "hit": false,
      "t": 191999.90400000016,
      "d": 1764.7050000000163,
      "v": 85
    },
    {
      "midi": 60,
      "hit": false,
      "t": 193764.60900000017,
      "d": 1058.823000000004,
      "v": 85
    },
    {
      "midi": 63,
      "hit": false,
      "t": 193764.60900000017,
      "d": 1058.823000000004,
      "v": 85
    },
    {
      "midi": 65,
      "hit": false,
      "t": 194823.43200000018,
      "d": 1384.1904843749944,
      "v": 85
    },
    {
      "midi": 61,
      "hit": false,
      "t": 194823.43200000018,
      "d": 1387.8669531249907,
      "v": 85
    },
    {
      "midi": 58,
      "hit": false,
      "t": 194823.43200000018,
      "d": 1411.7639999999956,
      "v": 85
    },
    {
      "midi": 65,
      "hit": false,
      "t": 196235.19600000017,
      "d": 1356.6169687499932,
      "v": 85
    },
    {
      "midi": 61,
      "hit": false,
      "t": 196235.19600000017,
      "d": 1393.381656249985,
      "v": 85
    },
    {
      "midi": 68,
      "hit": false,
      "t": 196235.19600000017,
      "d": 1393.381656249985,
      "v": 85
    },
    {
      "midi": 56,
      "hit": false,
      "t": 197646.96000000017,
      "d": 1941.175500000012,
      "v": 72
    },
    {
      "midi": 60,
      "hit": false,
      "t": 197646.96000000017,
      "d": 2027.5725156250119,
      "v": 72
    },
    {
      "midi": 63,
      "hit": false,
      "t": 197646.96000000017,
      "d": 2053.307796875015,
      "v": 72
    },
    {
      "midi": 56,
      "hit": false,
      "t": 199764.60600000017,
      "d": 599.264406250004,
      "v": 72
    },
    {
      "midi": 60,
      "hit": false,
      "t": 199764.60600000017,
      "d": 610.2938124999928,
      "v": 72
    },
    {
      "midi": 63,
      "hit": false,
      "t": 199764.60600000017,
      "d": 663.602609374997,
      "v": 72
    },
    {
      "midi": 65,
      "hit": false,
      "t": 200470.48800000016,
      "d": 1713.2344375000102,
      "v": 72
    },
    {
      "midi": 60,
      "hit": false,
      "t": 200470.48800000016,
      "d": 2095.5871875000303,
      "v": 72
    },
    {
      "midi": 62,
      "hit": false,
      "t": 200470.48800000016,
      "d": 2099.2636562500265,
      "v": 72
    },
    {
      "midi": 65,
      "hit": false,
      "t": 202235.19300000017,
      "d": 529.4115000000165,
      "v": 90
    },
    {
      "midi": 77,
      "hit": false,
      "t": 202235.19300000017,
      "d": 529.4115000000165,
      "v": 90
    },
    {
      "midi": 62,
      "hit": false,
      "t": 202588.1340000002,
      "d": 672.7937812499877,
      "v": 72
    },
    {
      "midi": 67,
      "hit": false,
      "t": 202764.6045000002,
      "d": 529.4114999999874,
      "v": 90
    },
    {
      "midi": 79,
      "hit": false,
      "t": 202764.6045000002,
      "d": 529.4114999999874,
      "v": 90
    },
    {
      "midi": 68,
      "hit": false,
      "t": 203294.01600000018,
      "d": 641.5437968749902,
      "v": 90
    },
    {
      "midi": 80,
      "hit": false,
      "t": 203294.01600000018,
      "d": 641.5437968749902,
      "v": 90
    },
    {
      "midi": 61,
      "hit": false,
      "t": 203294.01600000018,
      "d": 1055.1465312499786,
      "v": 72
    },
    {
      "midi": 65,
      "hit": false,
      "t": 203294.01600000018,
      "d": 1056.9847656249767,
      "v": 72
    },
    {
      "midi": 56,
      "hit": false,
      "t": 204352.83900000015,
      "d": 1718.7491406250047,
      "v": 72
    },
    {
      "midi": 60,
      "hit": false,
      "t": 204352.83900000015,
      "d": 1731.6167812499916,
      "v": 72
    },
    {
      "midi": 63,
      "hit": false,
      "t": 204352.83900000015,
      "d": 1746.3226562500058,
      "v": 72
    },
    {
      "midi": 65,
      "hit": false,
      "t": 206117.54400000017,
      "d": 1011.0289062499942,
      "v": 72
    },
    {
      "midi": 61,
      "hit": false,
      "t": 206117.54400000017,
      "d": 1014.7053749999905,
      "v": 72
    },
    {
      "midi": 58,
      "hit": false,
      "t": 206117.54400000017,
      "d": 1025.7347812499793,
      "v": 72
    },
    {
      "midi": 56,
      "hit": false,
      "t": 206117.54400000017,
      "d": 1033.0877187499718,
      "v": 72
    },
    {
      "midi": 61,
      "hit": false,
      "t": 207176.36700000014,
      "d": 1724.263843749999,
      "v": 72
    },
    {
      "midi": 65,
      "hit": false,
      "t": 207176.36700000014,
      "d": 1727.9403124999953,
      "v": 72
    },
    {
      "midi": 56,
      "hit": false,
      "t": 207176.36700000014,
      "d": 1737.131484374986,
      "v": 72
    },
    {
      "midi": 58,
      "hit": false,
      "t": 208941.07200000013,
      "d": 1941.175500000012,
      "v": 72
    },
    {
      "midi": 62,
      "hit": false,
      "t": 208941.07200000013,
      "d": 2027.5725156250119,
      "v": 72
    },
    {
      "midi": 65,
      "hit": false,
      "t": 208941.07200000013,
      "d": 2053.307796875015,
      "v": 72
    },
    {
      "midi": 58,
      "hit": false,
      "t": 211058.71800000014,
      "d": 599.264406250004,
      "v": 72
    },
    {
      "midi": 62,
      "hit": false,
      "t": 211058.71800000014,
      "d": 610.2938124999928,
      "v": 72
    },
    {
      "midi": 65,
      "hit": false,
      "t": 211058.71800000014,
      "d": 663.602609374997,
      "v": 72
    },
    {
      "midi": 58,
      "hit": false,
      "t": 211764.60000000012,
      "d": 2020.2195781249902,
      "v": 72
    },
    {
      "midi": 67,
      "hit": false,
      "t": 211764.60000000012,
      "d": 2071.6901406249963,
      "v": 72
    },
    {
      "midi": 62,
      "hit": false,
      "t": 211764.60000000012,
      "d": 2095.587187500001,
      "v": 72
    },
    {
      "midi": 64,
      "hit": false,
      "t": 211764.60000000012,
      "d": 2099.2636562499974,
      "v": 72
    },
    {
      "midi": 67,
      "hit": false,
      "t": 213882.24600000013,
      "d": 641.5437968749902,
      "v": 72
    },
    {
      "midi": 58,
      "hit": false,
      "t": 213882.24600000013,
      "d": 663.602609374997,
      "v": 72
    },
    {
      "midi": 62,
      "hit": false,
      "t": 213882.24600000013,
      "d": 665.4408437499951,
      "v": 72
    },
    {
      "midi": 64,
      "hit": false,
      "t": 213882.24600000013,
      "d": 672.7937812499877,
      "v": 72
    },
    {
      "midi": 58,
      "hit": false,
      "t": 214588.1280000001,
      "d": 985.2936249999912,
      "v": 72
    },
    {
      "midi": 63,
      "hit": false,
      "t": 214588.1280000001,
      "d": 1055.1465312499786,
      "v": 72
    },
    {
      "midi": 67,
      "hit": false,
      "t": 214588.1280000001,
      "d": 1056.9847656249767,
      "v": 72
    },
    {
      "midi": 58,
      "hit": false,
      "t": 215646.9510000001,
      "d": 1718.7491406250047,
      "v": 72
    },
    {
      "midi": 62,
      "hit": false,
      "t": 215646.9510000001,
      "d": 1731.6167812499916,
      "v": 72
    },
    {
      "midi": 65,
      "hit": false,
      "t": 215646.9510000001,
      "d": 1746.3226562500058,
      "v": 72
    },
    {
      "midi": 67,
      "hit": false,
      "t": 217411.6560000001,
      "d": 1011.0289062499942,
      "v": 72
    },
    {
      "midi": 63,
      "hit": false,
      "t": 217411.6560000001,
      "d": 1014.7053749999905,
      "v": 72
    },
    {
      "midi": 60,
      "hit": false,
      "t": 217411.6560000001,
      "d": 1025.7347812499793,
      "v": 72
    },
    {
      "midi": 58,
      "hit": false,
      "t": 217411.6560000001,
      "d": 1033.0877187499718,
      "v": 72
    },
    {
      "midi": 63,
      "hit": false,
      "t": 218470.47900000008,
      "d": 1724.263843749999,
      "v": 72
    },
    {
      "midi": 67,
      "hit": false,
      "t": 218470.47900000008,
      "d": 1727.9403124999953,
      "v": 72
    },
    {
      "midi": 58,
      "hit": false,
      "t": 218470.47900000008,
      "d": 1737.131484374986,
      "v": 72
    },
    {
      "midi": 58,
      "hit": false,
      "t": 220235.18400000007,
      "d": 1941.175500000012,
      "v": 72
    },
    {
      "midi": 62,
      "hit": false,
      "t": 220235.18400000007,
      "d": 2027.5725156250119,
      "v": 72
    },
    {
      "midi": 65,
      "hit": false,
      "t": 220235.18400000007,
      "d": 2053.307796875015,
      "v": 72
    },
    {
      "midi": 58,
      "hit": false,
      "t": 222352.83000000007,
      "d": 599.264406250004,
      "v": 72
    },
    {
      "midi": 62,
      "hit": false,
      "t": 222352.83000000007,
      "d": 610.2938124999928,
      "v": 72
    },
    {
      "midi": 65,
      "hit": false,
      "t": 222352.83000000007,
      "d": 663.602609374997,
      "v": 72
    },
    {
      "midi": 58,
      "hit": false,
      "t": 223058.71200000006,
      "d": 2020.2195781249902,
      "v": 72
    },
    {
      "midi": 67,
      "hit": false,
      "t": 223058.71200000006,
      "d": 2071.6901406249963,
      "v": 72
    },
    {
      "midi": 62,
      "hit": false,
      "t": 223058.71200000006,
      "d": 2095.587187500001,
      "v": 72
    },
    {
      "midi": 64,
      "hit": false,
      "t": 223058.71200000006,
      "d": 2099.2636562499974,
      "v": 72
    },
    {
      "midi": 67,
      "hit": false,
      "t": 225176.35800000007,
      "d": 641.5437968749902,
      "v": 72
    },
    {
      "midi": 58,
      "hit": false,
      "t": 225176.35800000007,
      "d": 663.602609374997,
      "v": 72
    },
    {
      "midi": 64,
      "hit": false,
      "t": 225176.35800000007,
      "d": 672.7937812499877,
      "v": 72
    },
    {
      "midi": 58,
      "hit": false,
      "t": 225882.24000000005,
      "d": 985.2936249999912,
      "v": 72
    },
    {
      "midi": 63,
      "hit": false,
      "t": 225882.24000000005,
      "d": 1055.1465312499786,
      "v": 72
    },
    {
      "midi": 67,
      "hit": false,
      "t": 225882.24000000005,
      "d": 1056.9847656249767,
      "v": 72
    },
    {
      "midi": 58,
      "hit": false,
      "t": 226941.06300000002,
      "d": 1718.7491406250047,
      "v": 72
    },
    {
      "midi": 62,
      "hit": false,
      "t": 226941.06300000002,
      "d": 1731.6167812499916,
      "v": 72
    },
    {
      "midi": 65,
      "hit": false,
      "t": 226941.06300000002,
      "d": 1746.3226562500058,
      "v": 72
    },
    {
      "midi": 67,
      "hit": false,
      "t": 228705.76800000004,
      "d": 1011.0289062499942,
      "v": 72
    },
    {
      "midi": 63,
      "hit": false,
      "t": 228705.76800000004,
      "d": 1014.7053749999905,
      "v": 72
    },
    {
      "midi": 58,
      "hit": false,
      "t": 228705.76800000004,
      "d": 1033.087718750001,
      "v": 72
    },
    {
      "midi": 63,
      "hit": false,
      "t": 229764.59100000004,
      "d": 1724.263843749999,
      "v": 72
    },
    {
      "midi": 67,
      "hit": false,
      "t": 229764.59100000004,
      "d": 1727.9403124999953,
      "v": 72
    },
    {
      "midi": 58,
      "hit": false,
      "t": 229764.59100000004,
      "d": 1737.131484374986,
      "v": 72
    },
    {
      "midi": 49,
      "hit": false,
      "t": 231529.29600000003,
      "d": 2568.013421874988,
      "v": 80
    },
    {
      "midi": 54,
      "hit": false,
      "t": 231529.29600000003,
      "d": 2612.1310468750016,
      "v": 80
    },
    {
      "midi": 58,
      "hit": false,
      "t": 231529.29600000003,
      "d": 2685.6604218750144,
      "v": 80
    },
    {
      "midi": 73,
      "hit": false,
      "t": 232235.17800000004,
      "d": 665.4408437499951,
      "v": 89
    },
    {
      "midi": 72,
      "hit": false,
      "t": 232941.06000000003,
      "d": 663.602609374997,
      "v": 89
    },
    {
      "midi": 73,
      "hit": false,
      "t": 233646.942,
      "d": 761.0290312500438,
      "v": 89
    },
    {
      "midi": 75,
      "hit": false,
      "t": 234352.82400000005,
      "d": 687.4996562500019,
      "v": 89
    },
    {
      "midi": 60,
      "hit": false,
      "t": 234352.82400000005,
      "d": 2558.8222500000265,
      "v": 80
    },
    {
      "midi": 56,
      "hit": false,
      "t": 234352.82400000005,
      "d": 2624.9986875000177,
      "v": 80
    },
    {
      "midi": 51,
      "hit": false,
      "t": 234352.82400000005,
      "d": 2630.513390625012,
      "v": 80
    },
    {
      "midi": 73,
      "hit": false,
      "t": 235058.70600000006,
      "d": 726.102578125021,
      "v": 89
    },
    {
      "midi": 72,
      "hit": false,
      "t": 235764.58800000008,
      "d": 829.043703125004,
      "v": 89
    },
    {
      "midi": 68,
      "hit": false,
      "t": 236470.4700000001,
      "d": 696.6908281249634,
      "v": 89
    },
    {
      "midi": 49,
      "hit": false,
      "t": 237176.35200000004,
      "d": 2538.601671875018,
      "v": 80
    },
    {
      "midi": 54,
      "hit": false,
      "t": 237176.35200000004,
      "d": 2558.8222500000265,
      "v": 80
    },
    {
      "midi": 58,
      "hit": false,
      "t": 237176.35200000004,
      "d": 2606.6163437500363,
      "v": 80
    },
    {
      "midi": 73,
      "hit": false,
      "t": 237882.23400000005,
      "d": 665.4408437499951,
      "v": 89
    },
    {
      "midi": 72,
      "hit": false,
      "t": 238588.11600000004,
      "d": 757.3525625000184,
      "v": 89
    },
    {
      "midi": 73,
      "hit": false,
      "t": 239293.99800000005,
      "d": 715.0731718750321,
      "v": 89
    },
    {
      "midi": 75,
      "hit": false,
      "t": 239999.8800000001,
      "d": 716.9114062499721,
      "v": 89
    },
    {
      "midi": 51,
      "hit": false,
      "t": 239999.8800000001,
      "d": 2288.60179687498,
      "v": 80
    },
    {
      "midi": 56,
      "hit": false,
      "t": 239999.8800000001,
      "d": 2349.263531249977,
      "v": 80
    },
    {
      "midi": 60,
      "hit": false,
      "t": 239999.8800000001,
      "d": 2398.895859374985,
      "v": 80
    },
    {
      "midi": 73,
      "hit": false,
      "t": 240705.76200000008,
      "d": 733.4555156249844,
      "v": 89
    },
    {
      "midi": 72,
      "hit": false,
      "t": 241411.64400000006,
      "d": 898.8966093750205,
      "v": 89
    },
    {
      "midi": 68,
      "hit": false,
      "t": 242117.52600000007,
      "d": 700.3672968750179,
      "v": 89
    },
    {
      "midi": 62,
      "hit": false,
      "t": 242823.40800000008,
      "d": 3196.6895781249914,
      "v": 80
    },
    {
      "midi": 58,
      "hit": false,
      "t": 242823.40800000008,
      "d": 4601.100640624994,
      "v": 80
    },
    {
      "midi": 70,
      "hit": false,
      "t": 242823.40800000008,
      "d": 5249.997375000006,
      "v": 89
    },
    {
      "midi": 53,
      "hit": false,
      "t": 242823.40800000008,
      "d": 5415.438468750013,
      "v": 80
    }
  ]
}