{
  "jsonPath": "Soundtracks/Video Game Music/Pokemon Red Blue Yellow/pokemon-red-blue-yellow-route3-by-alf.json",
  "path": "Soundtracks\\Video Game Music\\Pokemon Red Blue Yellow\\Pokemon_Red_Blue_Yellow_Route3_by_ALF.mid",
  "name": "Pokemon_Red_Blue_Yellow_Route3_by_ALF",
  "difficulty": "Advanced",
  "bpm": 135.000135000135,
  "notes": [
    {
      "midi": 64,
      "hit": false,
      "t": 4.340302734375,
      "d": 219.18528808593751,
      "v": 69
    },
    {
      "midi": 56,
      "hit": false,
      "t": 4.340302734375,
      "d": 232.20619628906252,
      "v": 59
    },
    {
      "midi": 52,
      "hit": false,
      "t": 4.340302734375,
      "d": 245.661134765625,
      "v": 49
    },
    {
      "midi": 66,
      "hit": false,
      "t": 345.0540673828125,
      "d": 105.46935644531254,
      "v": 64
    },
    {
      "midi": 64,
      "hit": false,
      "t": 457.46790820312503,
      "d": 1319.8860615234375,
      "v": 64
    },
    {
      "midi": 56,
      "hit": false,
      "t": 457.46790820312503,
      "d": 218.75125781250006,
      "v": 55
    },
    {
      "midi": 52,
      "hit": false,
      "t": 457.46790820312503,
      "d": 232.20619628906252,
      "v": 45
    },
    {
      "midi": 56,
      "hit": false,
      "t": 898.0086357421876,
      "d": 220.92140917968754,
      "v": 57
    },
    {
      "midi": 52,
      "hit": false,
      "t": 898.0086357421876,
      "d": 234.37634765625012,
      "v": 47
    },
    {
      "midi": 52,
      "hit": false,
      "t": 1338.5493632812502,
      "d": 438.80460644531263,
      "v": 57
    },
    {
      "midi": 56,
      "hit": false,
      "t": 1338.5493632812502,
      "d": 675.7851357421878,
      "v": 67
    },
    {
      "midi": 59,
      "hit": false,
      "t": 1779.5241210937502,
      "d": 221.7894697265624,
      "v": 69
    },
    {
      "midi": 52,
      "hit": false,
      "t": 1779.5241210937504,
      "d": 221.78946972656263,
      "v": 61
    },
    {
      "midi": 60,
      "hit": false,
      "t": 2122.8420673828127,
      "d": 105.46935644531231,
      "v": 64
    },
    {
      "midi": 59,
      "hit": false,
      "t": 2235.255908203125,
      "d": 880.6474248046875,
      "v": 65
    },
    {
      "midi": 52,
      "hit": false,
      "t": 2235.2559082031253,
      "d": 205.73034960937503,
      "v": 57
    },
    {
      "midi": 56,
      "hit": false,
      "t": 2235.2559082031253,
      "d": 218.75125781250017,
      "v": 67
    },
    {
      "midi": 52,
      "hit": false,
      "t": 2675.796635742188,
      "d": 207.9005009765624,
      "v": 59
    },
    {
      "midi": 56,
      "hit": false,
      "t": 2675.796635742188,
      "d": 220.92140917968754,
      "v": 69
    },
    {
      "midi": 52,
      "hit": false,
      "t": 3116.33736328125,
      "d": 104.60129589843746,
      "v": 57
    },
    {
      "midi": 59,
      "hit": false,
      "t": 3116.33736328125,
      "d": 111.11175000000003,
      "v": 71
    },
    {
      "midi": 51,
      "hit": false,
      "t": 3116.3373632812504,
      "d": 205.73034960937503,
      "v": 65
    },
    {
      "midi": 54,
      "hit": false,
      "t": 3227.8831435546876,
      "d": 100.69502343749991,
      "v": 56
    },
    {
      "midi": 64,
      "hit": false,
      "t": 3227.8831435546876,
      "d": 107.20547753906249,
      "v": 70
    },
    {
      "midi": 59,
      "hit": false,
      "t": 3335.522651367188,
      "d": 100.69502343749991,
      "v": 56
    },
    {
      "midi": 66,
      "hit": false,
      "t": 3335.522651367188,
      "d": 107.20547753906249,
      "v": 70
    },
    {
      "midi": 61,
      "hit": false,
      "t": 3443.162159179688,
      "d": 105.46935644531231,
      "v": 56
    },
    {
      "midi": 71,
      "hit": false,
      "t": 3443.162159179688,
      "d": 111.97981054687489,
      "v": 70
    },
    {
      "midi": 71,
      "hit": false,
      "t": 3557.31212109375,
      "d": 674.4830449218748,
      "v": 61
    },
    {
      "midi": 76,
      "hit": false,
      "t": 3557.31212109375,
      "d": 674.4830449218748,
      "v": 75
    },
    {
      "midi": 52,
      "hit": false,
      "t": 3557.3121210937506,
      "d": 221.7894697265624,
      "v": 69
    },
    {
      "midi": 52,
      "hit": false,
      "t": 4013.0439082031257,
      "d": 111.54578027343769,
      "v": 53
    },
    {
      "midi": 52,
      "hit": false,
      "t": 4125.023718750001,
      "d": 106.77144726562528,
      "v": 52
    },
    {
      "midi": 71,
      "hit": false,
      "t": 4232.229196289062,
      "d": 220.92140917968754,
      "v": 70
    },
    {
      "midi": 64,
      "hit": false,
      "t": 4232.229196289062,
      "d": 661.4621367187501,
      "v": 56
    },
    {
      "midi": 52,
      "hit": false,
      "t": 4232.229196289063,
      "d": 107.20547753906249,
      "v": 52
    },
    {
      "midi": 52,
      "hit": false,
      "t": 4339.868704101563,
      "d": 113.28190136718786,
      "v": 52
    },
    {
      "midi": 71,
      "hit": false,
      "t": 4453.584635742187,
      "d": 440.10669726562537,
      "v": 73
    },
    {
      "midi": 52,
      "hit": false,
      "t": 4453.584635742188,
      "d": 220.92140917968754,
      "v": 67
    },
    {
      "midi": 52,
      "hit": false,
      "t": 4674.940075195313,
      "d": 205.73034960937548,
      "v": 64
    },
    {
      "midi": 76,
      "hit": false,
      "t": 4894.1253632812495,
      "d": 438.80460644531286,
      "v": 57
    },
    {
      "midi": 83,
      "hit": false,
      "t": 4894.1253632812495,
      "d": 438.80460644531286,
      "v": 71
    },
    {
      "midi": 52,
      "hit": false,
      "t": 5113.310651367188,
      "d": 206.59841015624988,
      "v": 64
    },
    {
      "midi": 74,
      "hit": false,
      "t": 5335.10012109375,
      "d": 455.29775683593743,
      "v": 61
    },
    {
      "midi": 81,
      "hit": false,
      "t": 5335.10012109375,
      "d": 455.29775683593743,
      "v": 75
    },
    {
      "midi": 54,
      "hit": false,
      "t": 5335.10012109375,
      "d": 221.78946972656286,
      "v": 69
    },
    {
      "midi": 73,
      "hit": false,
      "t": 5790.831908203125,
      "d": 440.10669726562537,
      "v": 57
    },
    {
      "midi": 80,
      "hit": false,
      "t": 5790.831908203125,
      "d": 440.10669726562537,
      "v": 71
    },
    {
      "midi": 54,
      "hit": false,
      "t": 5790.831908203126,
      "d": 111.54578027343723,
      "v": 53
    },
    {
      "midi": 54,
      "hit": false,
      "t": 5902.81171875,
      "d": 106.77144726562528,
      "v": 52
    },
    {
      "midi": 54,
      "hit": false,
      "t": 6010.017196289063,
      "d": 107.20547753906249,
      "v": 52
    },
    {
      "midi": 54,
      "hit": false,
      "t": 6117.656704101562,
      "d": 113.28190136718786,
      "v": 52
    },
    {
      "midi": 71,
      "hit": false,
      "t": 6231.372635742187,
      "d": 440.10669726562537,
      "v": 59
    },
    {
      "midi": 78,
      "hit": false,
      "t": 6231.372635742187,
      "d": 440.10669726562537,
      "v": 73
    },
    {
      "midi": 54,
      "hit": false,
      "t": 6231.372635742187,
      "d": 220.92140917968754,
      "v": 67
    },
    {
      "midi": 54,
      "hit": false,
      "t": 6452.728075195312,
      "d": 205.73034960937457,
      "v": 64
    },
    {
      "midi": 78,
      "hit": false,
      "t": 6671.91336328125,
      "d": 104.60129589843746,
      "v": 65
    },
    {
      "midi": 69,
      "hit": false,
      "t": 6671.91336328125,
      "d": 438.80460644531195,
      "v": 65
    },
    {
      "midi": 81,
      "hit": false,
      "t": 6783.459143554687,
      "d": 100.69502343749991,
      "v": 64
    },
    {
      "midi": 80,
      "hit": false,
      "t": 6891.098651367187,
      "d": 100.69502343749991,
      "v": 64
    },
    {
      "midi": 57,
      "hit": false,
      "t": 6891.098651367187,
      "d": 206.59841015624988,
      "v": 64
    },
    {
      "midi": 78,
      "hit": false,
      "t": 6998.738159179687,
      "d": 105.46935644531277,
      "v": 64
    },
    {
      "midi": 56,
      "hit": false,
      "t": 7112.888121093749,
      "d": 221.78946972656286,
      "v": 69
    },
    {
      "midi": 68,
      "hit": false,
      "t": 7112.88812109375,
      "d": 221.78946972656286,
      "v": 61
    },
    {
      "midi": 80,
      "hit": false,
      "t": 7112.88812109375,
      "d": 234.810377929688,
      "v": 75
    },
    {
      "midi": 64,
      "hit": false,
      "t": 7456.206067382813,
      "d": 105.46935644531277,
      "v": 56
    },
    {
      "midi": 76,
      "hit": false,
      "t": 7456.206067382813,
      "d": 111.97981054687534,
      "v": 70
    },
    {
      "midi": 56,
      "hit": false,
      "t": 7568.619908203124,
      "d": 111.54578027343723,
      "v": 53
    },
    {
      "midi": 66,
      "hit": false,
      "t": 7568.619908203125,
      "d": 1319.886061523437,
      "v": 56
    },
    {
      "midi": 71,
      "hit": false,
      "t": 7568.619908203125,
      "d": 1319.886061523437,
      "v": 70
    },
    {
      "midi": 56,
      "hit": false,
      "t": 7680.599718749999,
      "d": 106.77144726562528,
      "v": 52
    },
    {
      "midi": 56,
      "hit": false,
      "t": 7787.805196289061,
      "d": 107.20547753906249,
      "v": 52
    },
    {
      "midi": 56,
      "hit": false,
      "t": 7895.444704101561,
      "d": 113.28190136718786,
      "v": 52
    },
    {
      "midi": 56,
      "hit": false,
      "t": 8009.160635742186,
      "d": 220.92140917968754,
      "v": 55
    },
    {
      "midi": 56,
      "hit": false,
      "t": 8230.516075195312,
      "d": 232.20619628906206,
      "v": 52
    },
    {
      "midi": 56,
      "hit": false,
      "t": 8668.886651367186,
      "d": 219.61931835937503,
      "v": 52
    },
    {
      "midi": 56,
      "hit": false,
      "t": 8890.676121093747,
      "d": 248.26531640625035,
      "v": 57
    },
    {
      "midi": 59,
      "hit": false,
      "t": 8890.67612109375,
      "d": 221.78946972656195,
      "v": 69
    },
    {
      "midi": 64,
      "hit": false,
      "t": 8890.67612109375,
      "d": 895.8384843749991,
      "v": 69
    },
    {
      "midi": 60,
      "hit": false,
      "t": 9233.994067382811,
      "d": 105.46935644531186,
      "v": 64
    },
    {
      "midi": 56,
      "hit": false,
      "t": 9346.407908203122,
      "d": 111.54578027343814,
      "v": 53
    },
    {
      "midi": 59,
      "hit": false,
      "t": 9346.407908203124,
      "d": 880.647424804687,
      "v": 65
    },
    {
      "midi": 56,
      "hit": false,
      "t": 9458.387718749998,
      "d": 106.77144726562437,
      "v": 52
    },
    {
      "midi": 56,
      "hit": false,
      "t": 9565.59319628906,
      "d": 107.20547753906249,
      "v": 52
    },
    {
      "midi": 56,
      "hit": false,
      "t": 9673.232704101561,
      "d": 113.28190136718695,
      "v": 52
    },
    {
      "midi": 63,
      "hit": false,
      "t": 9786.948635742187,
      "d": 440.10669726562446,
      "v": 67
    },
    {
      "midi": 56,
      "hit": false,
      "t": 9786.948635742187,
      "d": 220.92140917968754,
      "v": 67
    },
    {
      "midi": 56,
      "hit": false,
      "t": 10008.304075195312,
      "d": 205.73034960937548,
      "v": 64
    },
    {
      "midi": 66,
      "hit": false,
      "t": 10227.48936328125,
      "d": 438.80460644531195,
      "v": 65
    },
    {
      "midi": 63,
      "hit": false,
      "t": 10227.48936328125,
      "d": 438.80460644531195,
      "v": 65
    },
    {
      "midi": 56,
      "hit": false,
      "t": 10446.674651367188,
      "d": 206.59841015624988,
      "v": 64
    },
    {
      "midi": 71,
      "hit": false,
      "t": 10668.464121093748,
      "d": 674.4830449218753,
      "v": 61
    },
    {
      "midi": 76,
      "hit": false,
      "t": 10668.464121093748,
      "d": 674.4830449218753,
      "v": 75
    },
    {
      "midi": 52,
      "hit": false,
      "t": 10668.46412109375,
      "d": 221.78946972656195,
      "v": 69
    },
    {
      "midi": 52,
      "hit": false,
      "t": 11124.195908203124,
      "d": 111.54578027343814,
      "v": 53
    },
    {
      "midi": 52,
      "hit": false,
      "t": 11236.17571875,
      "d": 106.77144726562437,
      "v": 52
    },
    {
      "midi": 71,
      "hit": false,
      "t": 11343.381196289061,
      "d": 220.92140917968754,
      "v": 70
    },
    {
      "midi": 64,
      "hit": false,
      "t": 11343.381196289061,
      "d": 661.4621367187501,
      "v": 56
    },
    {
      "midi": 52,
      "hit": false,
      "t": 11343.381196289063,
      "d": 107.20547753906249,
      "v": 52
    },
    {
      "midi": 52,
      "hit": false,
      "t": 11451.020704101564,
      "d": 113.28190136718695,
      "v": 52
    },
    {
      "midi": 71,
      "hit": false,
      "t": 11564.736635742187,
      "d": 440.10669726562446,
      "v": 73
    },
    {
      "midi": 52,
      "hit": false,
      "t": 11564.736635742189,
      "d": 220.92140917968754,
      "v": 67
    },
    {
      "midi": 52,
      "hit": false,
      "t": 11786.092075195314,
      "d": 205.73034960937548,
      "v": 64
    },
    {
      "midi": 76,
      "hit": false,
      "t": 12005.27736328125,
      "d": 438.80460644531195,
      "v": 57
    },
    {
      "midi": 83,
      "hit": false,
      "t": 12005.27736328125,
      "d": 438.80460644531195,
      "v": 71
    },
    {
      "midi": 52,
      "hit": false,
      "t": 12224.46265136719,
      "d": 206.59841015624988,
      "v": 64
    },
    {
      "midi": 74,
      "hit": false,
      "t": 12446.252121093748,
      "d": 455.29775683593834,
      "v": 61
    },
    {
      "midi": 81,
      "hit": false,
      "t": 12446.252121093748,
      "d": 455.29775683593834,
      "v": 75
    },
    {
      "midi": 54,
      "hit": false,
      "t": 12446.252121093752,
      "d": 221.78946972656195,
      "v": 69
    },
    {
      "midi": 73,
      "hit": false,
      "t": 12901.983908203125,
      "d": 440.10669726562446,
      "v": 57
    },
    {
      "midi": 80,
      "hit": false,
      "t": 12901.983908203125,
      "d": 440.10669726562446,
      "v": 71
    },
    {
      "midi": 54,
      "hit": false,
      "t": 12901.983908203127,
      "d": 111.54578027343814,
      "v": 53
    },
    {
      "midi": 54,
      "hit": false,
      "t": 13013.963718750003,
      "d": 106.77144726562437,
      "v": 52
    },
    {
      "midi": 54,
      "hit": false,
      "t": 13121.169196289065,
      "d": 107.20547753906249,
      "v": 52
    },
    {
      "midi": 54,
      "hit": false,
      "t": 13228.808704101566,
      "d": 113.28190136718695,
      "v": 52
    },
    {
      "midi": 71,
      "hit": false,
      "t": 13342.524635742187,
      "d": 440.10669726562446,
      "v": 59
    },
    {
      "midi": 78,
      "hit": false,
      "t": 13342.524635742187,
      "d": 440.10669726562446,
      "v": 73
    },
    {
      "midi": 54,
      "hit": false,
      "t": 13342.524635742191,
      "d": 220.92140917968754,
      "v": 67
    },
    {
      "midi": 54,
      "hit": false,
      "t": 13563.880075195317,
      "d": 205.73034960937548,
      "v": 64
    },
    {
      "midi": 81,
      "hit": false,
      "t": 13783.06536328125,
      "d": 104.60129589843746,
      "v": 65
    },
    {
      "midi": 69,
      "hit": false,
      "t": 13783.06536328125,
      "d": 438.80460644531377,
      "v": 65
    },
    {
      "midi": 85,
      "hit": false,
      "t": 13894.611143554688,
      "d": 100.69502343749991,
      "v": 64
    },
    {
      "midi": 83,
      "hit": false,
      "t": 14002.250651367189,
      "d": 100.69502343749991,
      "v": 64
    },
    {
      "midi": 57,
      "hit": false,
      "t": 14002.250651367192,
      "d": 206.59841015624988,
      "v": 64
    },
    {
      "midi": 81,
      "hit": false,
      "t": 14109.89015917969,
      "d": 105.46935644531186,
      "v": 64
    },
    {
      "midi": 76,
      "hit": false,
      "t": 14224.04012109375,
      "d": 221.78946972656195,
      "v": 61
    },
    {
      "midi": 83,
      "hit": false,
      "t": 14224.04012109375,
      "d": 234.8103779296871,
      "v": 75
    },
    {
      "midi": 59,
      "hit": false,
      "t": 14224.040121093754,
      "d": 221.78946972656195,
      "v": 69
    },
    {
      "midi": 75,
      "hit": false,
      "t": 14567.358067382813,
      "d": 105.46935644531186,
      "v": 56
    },
    {
      "midi": 81,
      "hit": false,
      "t": 14567.358067382813,
      "d": 111.97981054687443,
      "v": 70
    },
    {
      "midi": 76,
      "hit": false,
      "t": 14679.771908203125,
      "d": 1319.886061523437,
      "v": 56
    },
    {
      "midi": 80,
      "hit": false,
      "t": 14679.771908203125,
      "d": 1319.886061523437,
      "v": 70
    },
    {
      "midi": 59,
      "hit": false,
      "t": 14679.771908203129,
      "d": 111.54578027343814,
      "v": 53
    },
    {
      "midi": 59,
      "hit": false,
      "t": 14791.751718750005,
      "d": 106.77144726562437,
      "v": 52
    },
    {
      "midi": 59,
      "hit": false,
      "t": 14898.957196289068,
      "d": 107.20547753906249,
      "v": 52
    },
    {
      "midi": 59,
      "hit": false,
      "t": 15006.596704101568,
      "d": 113.28190136718695,
      "v": 52
    },
    {
      "midi": 59,
      "hit": false,
      "t": 15120.312635742193,
      "d": 220.92140917968754,
      "v": 67
    },
    {
      "midi": 59,
      "hit": false,
      "t": 15341.668075195319,
      "d": 205.73034960937548,
      "v": 64
    },
    {
      "midi": 59,
      "hit": false,
      "t": 15780.038651367195,
      "d": 206.59841015624988,
      "v": 64
    },
    {
      "midi": 71,
      "hit": false,
      "t": 16001.82812109375,
      "d": 221.78946972656195,
      "v": 69
    },
    {
      "midi": 52,
      "hit": false,
      "t": 16001.828121093757,
      "d": 221.78946972656195,
      "v": 69
    },
    {
      "midi": 69,
      "hit": false,
      "t": 16345.146067382811,
      "d": 105.46935644531186,
      "v": 64
    },
    {
      "midi": 68,
      "hit": false,
      "t": 16457.559908203122,
      "d": 880.647424804687,
      "v": 65
    },
    {
      "midi": 52,
      "hit": false,
      "t": 16457.55990820313,
      "d": 111.54578027343814,
      "v": 53
    },
    {
      "midi": 52,
      "hit": false,
      "t": 16569.539718750006,
      "d": 106.7714472656262,
      "v": 52
    },
    {
      "midi": 52,
      "hit": false,
      "t": 16676.74519628907,
      "d": 107.2054775390643,
      "v": 52
    },
    {
      "midi": 52,
      "hit": false,
      "t": 16784.384704101572,
      "d": 113.28190136718695,
      "v": 52
    },
    {
      "midi": 52,
      "hit": false,
      "t": 16898.100635742197,
      "d": 220.92140917968572,
      "v": 67
    },
    {
      "midi": 52,
      "hit": false,
      "t": 17119.45607519532,
      "d": 205.73034960937366,
      "v": 64
    },
    {
      "midi": 76,
      "hit": false,
      "t": 17338.641363281247,
      "d": 438.80460644531195,
      "v": 65
    },
    {
      "midi": 57,
      "hit": false,
      "t": 17557.826651367195,
      "d": 206.59841015624988,
      "v": 64
    },
    {
      "midi": 81,
      "hit": false,
      "t": 17779.616121093746,
      "d": 289.4981923828127,
      "v": 69
    },
    {
      "midi": 62,
      "hit": false,
      "t": 17779.616121093757,
      "d": 221.78946972656195,
      "v": 69
    },
    {
      "midi": 54,
      "hit": false,
      "t": 17779.616121093757,
      "d": 221.78946972656195,
      "v": 69
    },
    {
      "midi": 64,
      "hit": false,
      "t": 18014.860529296882,
      "d": 207.032440429688,
      "v": 64
    },
    {
      "midi": 80,
      "hit": false,
      "t": 18086.909554687496,
      "d": 278.6474355468745,
      "v": 64
    },
    {
      "midi": 54,
      "hit": false,
      "t": 18235.347908203134,
      "d": 111.54578027343814,
      "v": 53
    },
    {
      "midi": 66,
      "hit": false,
      "t": 18235.347908203134,
      "d": 205.7303496093773,
      "v": 65
    },
    {
      "midi": 54,
      "hit": false,
      "t": 18347.32771875001,
      "d": 106.7714472656262,
      "v": 52
    },
    {
      "midi": 78,
      "hit": false,
      "t": 18383.352231445308,
      "d": 292.10237402343773,
      "v": 64
    },
    {
      "midi": 54,
      "hit": false,
      "t": 18454.533196289074,
      "d": 107.2054775390643,
      "v": 52
    },
    {
      "midi": 68,
      "hit": false,
      "t": 18454.533196289074,
      "d": 207.90050097656422,
      "v": 64
    },
    {
      "midi": 69,
      "hit": false,
      "t": 18675.888635742183,
      "d": 207.90050097656422,
      "v": 67
    },
    {
      "midi": 78,
      "hit": false,
      "t": 18675.888635742183,
      "d": 879.3453339843763,
      "v": 67
    },
    {
      "midi": 54,
      "hit": false,
      "t": 18675.8886357422,
      "d": 6.076423828126281,
      "v": 67
    },
    {
      "midi": 71,
      "hit": false,
      "t": 18897.24407519531,
      "d": 205.73034960937366,
      "v": 64
    },
    {
      "midi": 54,
      "hit": false,
      "t": 18897.24407519533,
      "d": 205.73034960937366,
      "v": 64
    },
    {
      "midi": 73,
      "hit": false,
      "t": 19116.429363281248,
      "d": 205.73034960937366,
      "v": 65
    },
    {
      "midi": 74,
      "hit": false,
      "t": 19335.614651367185,
      "d": 206.59841015624988,
      "v": 64
    },
    {
      "midi": 54,
      "hit": false,
      "t": 19335.614651367203,
      "d": 206.59841015624988,
      "v": 64
    },
    {
      "midi": 74,
      "hit": false,
      "t": 19557.404121093747,
      "d": 221.78946972656195,
      "v": 69
    },
    {
      "midi": 50,
      "hit": false,
      "t": 19557.404121093765,
      "d": 221.78946972656195,
      "v": 69
    },
    {
      "midi": 69,
      "hit": false,
      "t": 19792.648529296872,
      "d": 207.032440429688,
      "v": 64
    },
    {
      "midi": 66,
      "hit": false,
      "t": 20013.135908203123,
      "d": 205.73034960937366,
      "v": 65
    },
    {
      "midi": 50,
      "hit": false,
      "t": 20013.135908203138,
      "d": 111.54578027343814,
      "v": 53
    },
    {
      "midi": 50,
      "hit": false,
      "t": 20125.115718750014,
      "d": 106.7714472656262,
      "v": 52
    },
    {
      "midi": 64,
      "hit": false,
      "t": 20232.32119628906,
      "d": 207.90050097656422,
      "v": 64
    },
    {
      "midi": 50,
      "hit": false,
      "t": 20232.32119628908,
      "d": 107.2054775390643,
      "v": 52
    },
    {
      "midi": 50,
      "hit": false,
      "t": 20339.96070410158,
      "d": 113.28190136718695,
      "v": 52
    },
    {
      "midi": 62,
      "hit": false,
      "t": 20453.676635742188,
      "d": 207.90050097656422,
      "v": 67
    },
    {
      "midi": 69,
      "hit": false,
      "t": 20453.676635742188,
      "d": 440.1066972656263,
      "v": 67
    },
    {
      "midi": 50,
      "hit": false,
      "t": 20453.676635742206,
      "d": 220.92140917968572,
      "v": 67
    },
    {
      "midi": 64,
      "hit": false,
      "t": 20675.032075195315,
      "d": 205.73034960937366,
      "v": 64
    },
    {
      "midi": 50,
      "hit": false,
      "t": 20675.03207519533,
      "d": 205.73034960937366,
      "v": 64
    },
    {
      "midi": 66,
      "hit": false,
      "t": 20894.217363281252,
      "d": 205.73034960937366,
      "v": 65
    },
    {
      "midi": 78,
      "hit": false,
      "t": 20894.217363281252,
      "d": 438.80460644531195,
      "v": 65
    },
    {
      "midi": 69,
      "hit": false,
      "t": 21113.40265136719,
      "d": 206.59841015624988,
      "v": 64
    },
    {
      "midi": 50,
      "hit": false,
      "t": 21113.402651367203,
      "d": 206.59841015624988,
      "v": 64
    },
    {
      "midi": 68,
      "hit": false,
      "t": 21335.19212109375,
      "d": 221.78946972656195,
      "v": 69
    },
    {
      "midi": 80,
      "hit": false,
      "t": 21335.19212109375,
      "d": 289.4981923828127,
      "v": 69
    },
    {
      "midi": 52,
      "hit": false,
      "t": 21335.192121093765,
      "d": 221.78946972656195,
      "v": 69
    },
    {
      "midi": 66,
      "hit": false,
      "t": 21570.436529296876,
      "d": 207.032440429688,
      "v": 64
    },
    {
      "midi": 78,
      "hit": false,
      "t": 21642.4855546875,
      "d": 278.6474355468781,
      "v": 64
    },
    {
      "midi": 64,
      "hit": false,
      "t": 21790.923908203127,
      "d": 205.7303496093773,
      "v": 65
    },
    {
      "midi": 52,
      "hit": false,
      "t": 21790.923908203138,
      "d": 111.54578027343814,
      "v": 53
    },
    {
      "midi": 52,
      "hit": false,
      "t": 21902.903718750014,
      "d": 106.7714472656262,
      "v": 52
    },
    {
      "midi": 76,
      "hit": false,
      "t": 21938.928231445316,
      "d": 292.10237402344137,
      "v": 64
    },
    {
      "midi": 66,
      "hit": false,
      "t": 22010.109196289068,
      "d": 207.90050097656422,
      "v": 64
    },
    {
      "midi": 52,
      "hit": false,
      "t": 22010.10919628908,
      "d": 107.2054775390643,
      "v": 52
    },
    {
      "midi": 52,
      "hit": false,
      "t": 22117.74870410158,
      "d": 113.28190136718695,
      "v": 52
    },
    {
      "midi": 68,
      "hit": false,
      "t": 22231.464635742195,
      "d": 207.90050097656422,
      "v": 67
    },
    {
      "midi": 76,
      "hit": false,
      "t": 22231.464635742195,
      "d": 879.3453339843763,
      "v": 67
    },
    {
      "midi": 52,
      "hit": false,
      "t": 22231.464635742206,
      "d": 220.92140917968572,
      "v": 67
    },
    {
      "midi": 69,
      "hit": false,
      "t": 22452.820075195323,
      "d": 205.73034960937366,
      "v": 64
    },
    {
      "midi": 52,
      "hit": false,
      "t": 22452.82007519533,
      "d": 205.73034960937366,
      "v": 64
    },
    {
      "midi": 71,
      "hit": false,
      "t": 22672.00536328126,
      "d": 205.73034960937366,
      "v": 65
    },
    {
      "midi": 75,
      "hit": false,
      "t": 22891.190651367197,
      "d": 206.59841015624988,
      "v": 64
    },
    {
      "midi": 52,
      "hit": false,
      "t": 22891.190651367204,
      "d": 206.59841015624988,
      "v": 64
    },
    {
      "midi": 76,
      "hit": false,
      "t": 23112.98012109376,
      "d": 221.78946972656195,
      "v": 69
    },
    {
      "midi": 56,
      "hit": false,
      "t": 23112.980121093766,
      "d": 221.78946972656195,
      "v": 69
    },
    {
      "midi": 71,
      "hit": false,
      "t": 23348.224529296884,
      "d": 207.032440429688,
      "v": 64
    },
    {
      "midi": 68,
      "hit": false,
      "t": 23568.711908203135,
      "d": 205.73034960937366,
      "v": 65
    },
    {
      "midi": 56,
      "hit": false,
      "t": 23568.71190820314,
      "d": 111.54578027343814,
      "v": 53
    },
    {
      "midi": 56,
      "hit": false,
      "t": 23680.691718750015,
      "d": 106.7714472656262,
      "v": 52
    },
    {
      "midi": 66,
      "hit": false,
      "t": 23787.897196289072,
      "d": 207.90050097656422,
      "v": 64
    },
    {
      "midi": 56,
      "hit": false,
      "t": 23787.89719628908,
      "d": 107.2054775390643,
      "v": 52
    },
    {
      "midi": 56,
      "hit": false,
      "t": 23895.53670410158,
      "d": 113.28190136718695,
      "v": 52
    },
    {
      "midi": 64,
      "hit": false,
      "t": 24009.2526357422,
      "d": 207.90050097656422,
      "v": 67
    },
    {
      "midi": 68,
      "hit": false,
      "t": 24009.2526357422,
      "d": 440.1066972656263,
      "v": 67
    },
    {
      "midi": 56,
      "hit": false,
      "t": 24009.252635742207,
      "d": 220.92140917968572,
      "v": 67
    },
    {
      "midi": 66,
      "hit": false,
      "t": 24230.608075195327,
      "d": 205.73034960937366,
      "v": 64
    },
    {
      "midi": 56,
      "hit": false,
      "t": 24230.60807519533,
      "d": 205.73034960937366,
      "v": 64
    },
    {
      "midi": 68,
      "hit": false,
      "t": 24449.793363281264,
      "d": 205.73034960937366,
      "v": 65
    },
    {
      "midi": 76,
      "hit": false,
      "t": 24449.793363281264,
      "d": 438.80460644531195,
      "v": 65
    },
    {
      "midi": 71,
      "hit": false,
      "t": 24668.9786513672,
      "d": 206.59841015624988,
      "v": 64
    },
    {
      "midi": 56,
      "hit": false,
      "t": 24668.978651367204,
      "d": 206.59841015624988,
      "v": 64
    },
    {
      "midi": 69,
      "hit": false,
      "t": 24890.768121093763,
      "d": 289.4981923828127,
      "v": 61
    },
    {
      "midi": 78,
      "hit": false,
      "t": 24890.768121093763,
      "d": 306.8594033203117,
      "v": 75
    },
    {
      "midi": 54,
      "hit": false,
      "t": 24890.768121093766,
      "d": 221.78946972656195,
      "v": 69
    },
    {
      "midi": 68,
      "hit": false,
      "t": 25198.061554687512,
      "d": 278.6474355468745,
      "v": 56
    },
    {
      "midi": 75,
      "hit": false,
      "t": 25198.061554687512,
      "d": 296.00864648437346,
      "v": 70
    },
    {
      "midi": 54,
      "hit": false,
      "t": 25346.49990820314,
      "d": 111.54578027343814,
      "v": 53
    },
    {
      "midi": 54,
      "hit": false,
      "t": 25458.479718750015,
      "d": 106.7714472656262,
      "v": 52
    },
    {
      "midi": 66,
      "hit": false,
      "t": 25494.504231445324,
      "d": 274.74116308593875,
      "v": 56
    },
    {
      "midi": 71,
      "hit": false,
      "t": 25494.504231445324,
      "d": 292.10237402343773,
      "v": 70
    },
    {
      "midi": 54,
      "hit": false,
      "t": 25565.68519628908,
      "d": 107.2054775390643,
      "v": 52
    },
    {
      "midi": 54,
      "hit": false,
      "t": 25673.324704101582,
      "d": 113.28190136718695,
      "v": 52
    },
    {
      "midi": 76,
      "hit": false,
      "t": 25787.0406357422,
      "d": 275.1751933593732,
      "v": 67
    },
    {
      "midi": 83,
      "hit": false,
      "t": 25787.0406357422,
      "d": 1777.3539697265587,
      "v": 67
    },
    {
      "midi": 54,
      "hit": false,
      "t": 25787.040635742207,
      "d": 220.92140917968572,
      "v": 67
    },
    {
      "midi": 54,
      "hit": false,
      "t": 26008.39607519533,
      "d": 205.73034960937366,
      "v": 64
    },
    {
      "midi": 75,
      "hit": false,
      "t": 26080.01107031251,
      "d": 277.3453447265638,
      "v": 64
    },
    {
      "midi": 73,
      "hit": false,
      "t": 26375.15165625001,
      "d": 291.2343134765615,
      "v": 64
    },
    {
      "midi": 54,
      "hit": false,
      "t": 26446.766651367205,
      "d": 206.59841015624988,
      "v": 64
    },
    {
      "midi": 73,
      "hit": false,
      "t": 26668.55612109376,
      "d": 289.4981923828127,
      "v": 69
    },
    {
      "midi": 59,
      "hit": false,
      "t": 26668.556121093767,
      "d": 221.78946972656195,
      "v": 69
    },
    {
      "midi": 71,
      "hit": false,
      "t": 26975.84955468751,
      "d": 278.6474355468745,
      "v": 64
    },
    {
      "midi": 59,
      "hit": false,
      "t": 27124.28790820314,
      "d": 111.54578027343814,
      "v": 53
    },
    {
      "midi": 59,
      "hit": false,
      "t": 27236.267718750016,
      "d": 106.7714472656262,
      "v": 52
    },
    {
      "midi": 69,
      "hit": false,
      "t": 27272.29223144532,
      "d": 274.74116308593875,
      "v": 64
    },
    {
      "midi": 59,
      "hit": false,
      "t": 27343.47319628908,
      "d": 107.2054775390643,
      "v": 52
    },
    {
      "midi": 59,
      "hit": false,
      "t": 27451.112704101582,
      "d": 113.28190136718695,
      "v": 52
    },
    {
      "midi": 71,
      "hit": false,
      "t": 27564.828635742197,
      "d": 275.17519335937686,
      "v": 67
    },
    {
      "midi": 81,
      "hit": false,
      "t": 27564.828635742197,
      "d": 879.3453339843763,
      "v": 67
    },
    {
      "midi": 59,
      "hit": false,
      "t": 27564.828635742208,
      "d": 220.92140917968572,
      "v": 67
    },
    {
      "midi": 59,
      "hit": false,
      "t": 27786.18407519533,
      "d": 205.73034960937366,
      "v": 64
    },
    {
      "midi": 73,
      "hit": false,
      "t": 27857.79907031251,
      "d": 277.3453447265638,
      "v": 64
    },
    {
      "midi": 75,
      "hit": false,
      "t": 28152.93965625001,
      "d": 273.87310253906253,
      "v": 64
    },
    {
      "midi": 59,
      "hit": false,
      "t": 28224.554651367205,
      "d": 206.59841015624988,
      "v": 64
    },
    {
      "midi": 80,
      "hit": false,
      "t": 28446.34412109376,
      "d": 120.22638574218581,
      "v": 69
    },
    {
      "midi": 64,
      "hit": false,
      "t": 28446.34412109376,
      "d": 221.7894697265583,
      "v": 69
    },
    {
      "midi": 56,
      "hit": false,
      "t": 28446.344121093767,
      "d": 221.78946972656195,
      "v": 69
    },
    {
      "midi": 78,
      "hit": false,
      "t": 28573.514991210945,
      "d": 101.12905371093439,
      "v": 64
    },
    {
      "midi": 66,
      "hit": false,
      "t": 28681.588529296878,
      "d": 207.032440429688,
      "v": 64
    },
    {
      "midi": 76,
      "hit": false,
      "t": 28681.588529296878,
      "d": 1540.3734404296883,
      "v": 64
    },
    {
      "midi": 68,
      "hit": false,
      "t": 28902.07590820313,
      "d": 205.73034960937366,
      "v": 65
    },
    {
      "midi": 56,
      "hit": false,
      "t": 28902.07590820314,
      "d": 111.54578027343814,
      "v": 53
    },
    {
      "midi": 56,
      "hit": false,
      "t": 29014.055718750016,
      "d": 106.7714472656262,
      "v": 52
    },
    {
      "midi": 69,
      "hit": false,
      "t": 29121.261196289066,
      "d": 207.90050097656422,
      "v": 64
    },
    {
      "midi": 56,
      "hit": false,
      "t": 29121.26119628908,
      "d": 107.2054775390643,
      "v": 52
    },
    {
      "midi": 56,
      "hit": false,
      "t": 29228.900704101583,
      "d": 113.28190136718695,
      "v": 52
    },
    {
      "midi": 71,
      "hit": false,
      "t": 29342.616635742193,
      "d": 275.1751933593732,
      "v": 67
    },
    {
      "midi": 56,
      "hit": false,
      "t": 29342.616635742208,
      "d": 220.92140917968572,
      "v": 67
    },
    {
      "midi": 56,
      "hit": false,
      "t": 29563.972075195332,
      "d": 205.73034960937366,
      "v": 64
    },
    {
      "midi": 73,
      "hit": false,
      "t": 29635.587070312504,
      "d": 277.3453447265638,
      "v": 64
    },
    {
      "midi": 75,
      "hit": false,
      "t": 29930.727656250005,
      "d": 273.87310253906253,
      "v": 64
    },
    {
      "midi": 56,
      "hit": false,
      "t": 30002.342651367206,
      "d": 206.59841015624988,
      "v": 64
    },
    {
      "midi": 76,
      "hit": false,
      "t": 30224.132121093753,
      "d": 221.78946972656195,
      "v": 69
    },
    {
      "midi": 52,
      "hit": false,
      "t": 30224.132121093768,
      "d": 221.78946972656195,
      "v": 69
    },
    {
      "midi": 71,
      "hit": false,
      "t": 30459.37652929688,
      "d": 207.032440429688,
      "v": 64
    },
    {
      "midi": 68,
      "hit": false,
      "t": 30679.86390820313,
      "d": 205.73034960937366,
      "v": 65
    },
    {
      "midi": 52,
      "hit": false,
      "t": 30679.86390820314,
      "d": 111.54578027343814,
      "v": 53
    },
    {
      "midi": 52,
      "hit": false,
      "t": 30791.843718750017,
      "d": 106.7714472656262,
      "v": 52
    },
    {
      "midi": 66,
      "hit": false,
      "t": 30899.049196289066,
      "d": 207.90050097656422,
      "v": 64
    },
    {
      "midi": 52,
      "hit": false,
      "t": 30899.04919628908,
      "d": 107.2054775390643,
      "v": 52
    },
    {
      "midi": 52,
      "hit": false,
      "t": 31006.688704101583,
      "d": 113.28190136718695,
      "v": 52
    },
    {
      "midi": 64,
      "hit": false,
      "t": 31120.404635742194,
      "d": 207.90050097656422,
      "v": 67
    },
    {
      "midi": 52,
      "hit": false,
      "t": 31120.40463574221,
      "d": 220.92140917968572,
      "v": 67
    },
    {
      "midi": 66,
      "hit": false,
      "t": 31341.76007519532,
      "d": 205.73034960937366,
      "v": 64
    },
    {
      "midi": 52,
      "hit": false,
      "t": 31341.760075195332,
      "d": 205.73034960937366,
      "v": 64
    },
    {
      "midi": 68,
      "hit": false,
      "t": 31560.94536328126,
      "d": 205.73034960937366,
      "v": 65
    },
    {
      "midi": 69,
      "hit": false,
      "t": 31780.130651367195,
      "d": 206.59841015624988,
      "v": 64
    },
    {
      "midi": 51,
      "hit": false,
      "t": 31780.130651367206,
      "d": 206.59841015624988,
      "v": 64
    },
    {
      "midi": 71,
      "hit": false,
      "t": 32001.920121093757,
      "d": 674.4830449218753,
      "v": 61
    },
    {
      "midi": 76,
      "hit": false,
      "t": 32001.920121093757,
      "d": 674.4830449218753,
      "v": 75
    },
    {
      "midi": 52,
      "hit": false,
      "t": 32001.920121093768,
      "d": 221.78946972656195,
      "v": 69
    },
    {
      "midi": 52,
      "hit": false,
      "t": 32457.65190820314,
      "d": 111.54578027343814,
      "v": 53
    },
    {
      "midi": 52,
      "hit": false,
      "t": 32569.631718750017,
      "d": 106.7714472656262,
      "v": 52
    },
    {
      "midi": 71,
      "hit": false,
      "t": 32676.83719628907,
      "d": 220.92140917968572,
      "v": 70
    },
    {
      "midi": 64,
      "hit": false,
      "t": 32676.83719628907,
      "d": 661.4621367187465,
      "v": 56
    },
    {
      "midi": 52,
      "hit": false,
      "t": 32676.83719628908,
      "d": 107.2054775390643,
      "v": 52
    },
    {
      "midi": 52,
      "hit": false,
      "t": 32784.47670410158,
      "d": 113.28190136719059,
      "v": 52
    },
    {
      "midi": 71,
      "hit": false,
      "t": 32898.19263574219,
      "d": 440.1066972656263,
      "v": 73
    },
    {
      "midi": 52,
      "hit": false,
      "t": 32898.192635742205,
      "d": 220.92140917968936,
      "v": 67
    },
    {
      "midi": 52,
      "hit": false,
      "t": 33119.54807519533,
      "d": 205.73034960937366,
      "v": 64
    },
    {
      "midi": 76,
      "hit": false,
      "t": 33338.73336328125,
      "d": 438.8046064453156,
      "v": 57
    },
    {
      "midi": 83,
      "hit": false,
      "t": 33338.73336328125,
      "d": 438.8046064453156,
      "v": 71
    },
    {
      "midi": 52,
      "hit": false,
      "t": 33557.9186513672,
      "d": 206.59841015624988,
      "v": 64
    },
    {
      "midi": 74,
      "hit": false,
      "t": 33779.708121093754,
      "d": 455.2977568359347,
      "v": 61
    },
    {
      "midi": 81,
      "hit": false,
      "t": 33779.708121093754,
      "d": 455.2977568359347,
      "v": 75
    },
    {
      "midi": 54,
      "hit": false,
      "t": 33779.70812109377,
      "d": 221.78946972656559,
      "v": 69
    },
    {
      "midi": 73,
      "hit": false,
      "t": 34235.43990820312,
      "d": 440.1066972656263,
      "v": 57
    },
    {
      "midi": 80,
      "hit": false,
      "t": 34235.43990820312,
      "d": 440.1066972656263,
      "v": 71
    },
    {
      "midi": 54,
      "hit": false,
      "t": 34235.439908203145,
      "d": 111.54578027343814,
      "v": 53
    },
    {
      "midi": 54,
      "hit": false,
      "t": 34347.41971875002,
      "d": 106.77144726562256,
      "v": 52
    },
    {
      "midi": 54,
      "hit": false,
      "t": 34454.625196289075,
      "d": 107.2054775390643,
      "v": 52
    },
    {
      "midi": 54,
      "hit": false,
      "t": 34562.26470410157,
      "d": 113.28190136719059,
      "v": 52
    },
    {
      "midi": 71,
      "hit": false,
      "t": 34675.980635742184,
      "d": 440.1066972656263,
      "v": 59
    },
    {
      "midi": 78,
      "hit": false,
      "t": 34675.980635742184,
      "d": 440.1066972656263,
      "v": 73
    },
    {
      "midi": 54,
      "hit": false,
      "t": 34675.9806357422,
      "d": 220.92140917968936,
      "v": 67
    },
    {
      "midi": 54,
      "hit": false,
      "t": 34897.33607519532,
      "d": 205.73034960937366,
      "v": 64
    },
    {
      "midi": 78,
      "hit": false,
      "t": 35116.521363281245,
      "d": 104.60129589843564,
      "v": 65
    },
    {
      "midi": 69,
      "hit": false,
      "t": 35116.521363281245,
      "d": 438.80460644532286,
      "v": 65
    },
    {
      "midi": 81,
      "hit": false,
      "t": 35228.06714355468,
      "d": 100.69502343750355,
      "v": 64
    },
    {
      "midi": 80,
      "hit": false,
      "t": 35335.70665136719,
      "d": 100.69502343750355,
      "v": 64
    },
    {
      "midi": 57,
      "hit": false,
      "t": 35335.706651367196,
      "d": 206.59841015624988,
      "v": 64
    },
    {
      "midi": 78,
      "hit": false,
      "t": 35443.346159179695,
      "d": 105.46935644531186,
      "v": 64
    },
    {
      "midi": 68,
      "hit": false,
      "t": 35557.496121093754,
      "d": 221.78946972656559,
      "v": 61
    },
    {
      "midi": 80,
      "hit": false,
      "t": 35557.496121093754,
      "d": 234.8103779296871,
      "v": 75
    },
    {
      "midi": 56,
      "hit": false,
      "t": 35557.49612109376,
      "d": 221.78946972656559,
      "v": 69
    },
    {
      "midi": 64,
      "hit": false,
      "t": 35900.81406738282,
      "d": 105.46935644531186,
      "v": 56
    },
    {
      "midi": 76,
      "hit": false,
      "t": 35900.81406738282,
      "d": 111.97981054687261,
      "v": 70
    },
    {
      "midi": 66,
      "hit": false,
      "t": 36013.227908203124,
      "d": 1319.886061523437,
      "v": 56
    },
    {
      "midi": 71,
      "hit": false,
      "t": 36013.227908203124,
      "d": 1319.886061523437,
      "v": 70
    },
    {
      "midi": 56,
      "hit": false,
      "t": 36013.22790820314,
      "d": 111.54578027343814,
      "v": 53
    },
    {
      "midi": 56,
      "hit": false,
      "t": 36125.20771875001,
      "d": 106.77144726562256,
      "v": 52
    },
    {
      "midi": 56,
      "hit": false,
      "t": 36232.41319628907,
      "d": 107.2054775390643,
      "v": 52
    },
    {
      "midi": 56,
      "hit": false,
      "t": 36340.05270410157,
      "d": 113.28190136719059,
      "v": 52
    },
    {
      "midi": 56,
      "hit": false,
      "t": 36453.76863574219,
      "d": 220.92140917968936,
      "v": 55
    },
    {
      "midi": 56,
      "hit": false,
      "t": 36675.124075195316,
      "d": 232.2061962890657,
      "v": 52
    },
    {
      "midi": 56,
      "hit": false,
      "t": 37113.4946513672,
      "d": 219.61931835937867,
      "v": 52
    },
    {
      "midi": 59,
      "hit": false,
      "t": 37335.28412109375,
      "d": 221.78946972656559,
      "v": 69
    },
    {
      "midi": 64,
      "hit": false,
      "t": 37335.28412109375,
      "d": 895.8384843750027,
      "v": 69
    },
    {
      "midi": 56,
      "hit": false,
      "t": 37335.28412109376,
      "d": 248.26531640625035,
      "v": 57
    },
    {
      "midi": 60,
      "hit": false,
      "t": 37678.60206738281,
      "d": 105.46935644531186,
      "v": 64
    },
    {
      "midi": 59,
      "hit": false,
      "t": 37791.015908203124,
      "d": 880.647424804687,
      "v": 65
    },
    {
      "midi": 56,
      "hit": false,
      "t": 37791.01590820314,
      "d": 111.54578027343814,
      "v": 53
    },
    {
      "midi": 56,
      "hit": false,
      "t": 37902.99571875001,
      "d": 106.77144726562256,
      "v": 52
    },
    {
      "midi": 56,
      "hit": false,
      "t": 38010.20119628907,
      "d": 107.2054775390643,
      "v": 52
    },
    {
      "midi": 56,
      "hit": false,
      "t": 38117.84070410157,
      "d": 113.28190136719059,
      "v": 52
    },
    {
      "midi": 63,
      "hit": false,
      "t": 38231.556635742185,
      "d": 440.1066972656263,
      "v": 67
    },
    {
      "midi": 56,
      "hit": false,
      "t": 38231.55663574219,
      "d": 220.92140917968936,
      "v": 67
    },
    {
      "midi": 56,
      "hit": false,
      "t": 38452.912075195316,
      "d": 205.73034960937366,
      "v": 64
    },
    {
      "midi": 66,
      "hit": false,
      "t": 38672.097363281246,
      "d": 438.8046064453156,
      "v": 65
    },
    {
      "midi": 63,
      "hit": false,
      "t": 38672.097363281246,
      "d": 438.8046064453156,
      "v": 65
    },
    {
      "midi": 56,
      "hit": false,
      "t": 38891.28265136719,
      "d": 206.59841015624988,
      "v": 64
    },
    {
      "midi": 71,
      "hit": false,
      "t": 39113.07212109375,
      "d": 674.4830449218716,
      "v": 61
    },
    {
      "midi": 76,
      "hit": false,
      "t": 39113.07212109375,
      "d": 674.4830449218716,
      "v": 75
    },
    {
      "midi": 52,
      "hit": false,
      "t": 39113.072121093755,
      "d": 221.78946972656559,
      "v": 69
    },
    {
      "midi": 52,
      "hit": false,
      "t": 39568.80390820313,
      "d": 111.54578027343814,
      "v": 53
    },
    {
      "midi": 52,
      "hit": false,
      "t": 39680.783718750004,
      "d": 106.77144726562256,
      "v": 52
    },
    {
      "midi": 71,
      "hit": false,
      "t": 39787.989196289054,
      "d": 220.92140917968936,
      "v": 70
    },
    {
      "midi": 64,
      "hit": false,
      "t": 39787.989196289054,
      "d": 661.4621367187501,
      "v": 56
    },
    {
      "midi": 52,
      "hit": false,
      "t": 39787.98919628906,
      "d": 107.2054775390643,
      "v": 52
    },
    {
      "midi": 52,
      "hit": false,
      "t": 39895.62870410156,
      "d": 113.28190136719059,
      "v": 52
    },
    {
      "midi": 71,
      "hit": false,
      "t": 40009.34463574218,
      "d": 440.1066972656263,
      "v": 73
    },
    {
      "midi": 52,
      "hit": false,
      "t": 40009.344635742185,
      "d": 220.92140917968936,
      "v": 67
    },
    {
      "midi": 52,
      "hit": false,
      "t": 40230.70007519531,
      "d": 205.73034960937366,
      "v": 64
    },
    {
      "midi": 76,
      "hit": false,
      "t": 40449.88536328124,
      "d": 438.8046064453156,
      "v": 57
    },
    {
      "midi": 83,
      "hit": false,
      "t": 40449.88536328124,
      "d": 438.8046064453156,
      "v": 71
    },
    {
      "midi": 52,
      "hit": false,
      "t": 40669.07065136718,
      "d": 206.59841015624988,
      "v": 64
    },
    {
      "midi": 74,
      "hit": false,
      "t": 40890.86012109374,
      "d": 455.2977568359347,
      "v": 61
    },
    {
      "midi": 81,
      "hit": false,
      "t": 40890.86012109374,
      "d": 455.2977568359347,
      "v": 75
    },
    {
      "midi": 54,
      "hit": false,
      "t": 40890.86012109375,
      "d": 221.78946972656559,
      "v": 69
    },
    {
      "midi": 73,
      "hit": false,
      "t": 41346.59190820311,
      "d": 440.1066972656263,
      "v": 57
    },
    {
      "midi": 80,
      "hit": false,
      "t": 41346.59190820311,
      "d": 440.1066972656263,
      "v": 71
    },
    {
      "midi": 54,
      "hit": false,
      "t": 41346.591908203125,
      "d": 111.54578027343814,
      "v": 53
    },
    {
      "midi": 54,
      "hit": false,
      "t": 41458.57171875,
      "d": 106.77144726562256,
      "v": 52
    },
    {
      "midi": 54,
      "hit": false,
      "t": 41565.777196289055,
      "d": 107.2054775390643,
      "v": 52
    },
    {
      "midi": 54,
      "hit": false,
      "t": 41673.41670410155,
      "d": 113.28190136719059,
      "v": 52
    },
    {
      "midi": 71,
      "hit": false,
      "t": 41787.13263574217,
      "d": 440.1066972656263,
      "v": 59
    },
    {
      "midi": 78,
      "hit": false,
      "t": 41787.13263574217,
      "d": 440.1066972656263,
      "v": 73
    },
    {
      "midi": 54,
      "hit": false,
      "t": 41787.13263574218,
      "d": 220.92140917968936,
      "v": 67
    },
    {
      "midi": 54,
      "hit": false,
      "t": 42008.4880751953,
      "d": 205.73034960937366,
      "v": 64
    },
    {
      "midi": 81,
      "hit": false,
      "t": 42227.67336328123,
      "d": 104.60129589843564,
      "v": 65
    },
    {
      "midi": 69,
      "hit": false,
      "t": 42227.67336328123,
      "d": 438.80460644532286,
      "v": 65
    },
    {
      "midi": 85,
      "hit": false,
      "t": 42339.21914355467,
      "d": 100.69502343750355,
      "v": 64
    },
    {
      "midi": 83,
      "hit": false,
      "t": 42446.858651367176,
      "d": 100.69502343750355,
      "v": 64
    },
    {
      "midi": 57,
      "hit": false,
      "t": 42446.858651367176,
      "d": 206.59841015624988,
      "v": 64
    },
    {
      "midi": 81,
      "hit": false,
      "t": 42554.49815917968,
      "d": 105.46935644531186,
      "v": 64
    },
    {
      "midi": 76,
      "hit": false,
      "t": 42668.64812109374,
      "d": 221.78946972656559,
      "v": 61
    },
    {
      "midi": 83,
      "hit": false,
      "t": 42668.64812109374,
      "d": 234.8103779296871,
      "v": 75
    },
    {
      "midi": 59,
      "hit": false,
      "t": 42668.64812109374,
      "d": 221.78946972656559,
      "v": 69
    },
    {
      "midi": 75,
      "hit": false,
      "t": 43011.966067382804,
      "d": 105.46935644531186,
      "v": 56
    },
    {
      "midi": 81,
      "hit": false,
      "t": 43011.966067382804,
      "d": 111.97981054687261,
      "v": 70
    },
    {
      "midi": 76,
      "hit": false,
      "t": 43124.37990820311,
      "d": 1319.886061523437,
      "v": 56
    },
    {
      "midi": 80,
      "hit": false,
      "t": 43124.37990820311,
      "d": 1319.886061523437,
      "v": 70
    },
    {
      "midi": 59,
      "hit": false,
      "t": 43124.37990820312,
      "d": 111.54578027343814,
      "v": 53
    },
    {
      "midi": 59,
      "hit": false,
      "t": 43236.35971874999,
      "d": 106.77144726562256,
      "v": 52
    },
    {
      "midi": 59,
      "hit": false,
      "t": 43343.56519628905,
      "d": 107.2054775390643,
      "v": 52
    },
    {
      "midi": 59,
      "hit": false,
      "t": 43451.20470410155,
      "d": 113.28190136719059,
      "v": 52
    },
    {
      "midi": 59,
      "hit": false,
      "t": 43564.92063574217,
      "d": 220.92140917968936,
      "v": 67
    },
    {
      "midi": 59,
      "hit": false,
      "t": 43786.276075195296,
      "d": 205.73034960937366,
      "v": 64
    },
    {
      "midi": 59,
      "hit": false,
      "t": 44224.64665136717,
      "d": 206.59841015624988,
      "v": 64
    },
    {
      "midi": 71,
      "hit": false,
      "t": 44446.436121093735,
      "d": 221.78946972656559,
      "v": 69
    },
    {
      "midi": 52,
      "hit": false,
      "t": 44446.436121093735,
      "d": 221.78946972656559,
      "v": 69
    },
    {
      "midi": 69,
      "hit": false,
      "t": 44789.7540673828,
      "d": 105.46935644531186,
      "v": 64
    },
    {
      "midi": 68,
      "hit": false,
      "t": 44902.16790820311,
      "d": 880.647424804687,
      "v": 65
    },
    {
      "midi": 52,
      "hit": false,
      "t": 44902.16790820311,
      "d": 111.54578027343814,
      "v": 53
    },
    {
      "midi": 52,
      "hit": false,
      "t": 45014.147718749984,
      "d": 106.77144726562256,
      "v": 52
    },
    {
      "midi": 52,
      "hit": false,
      "t": 45121.35319628904,
      "d": 107.2054775390643,
      "v": 52
    },
    {
      "midi": 52,
      "hit": false,
      "t": 45228.99270410154,
      "d": 113.28190136719059,
      "v": 52
    },
    {
      "midi": 52,
      "hit": false,
      "t": 45342.708635742165,
      "d": 220.92140917968936,
      "v": 67
    },
    {
      "midi": 52,
      "hit": false,
      "t": 45564.06407519529,
      "d": 205.73034960937366,
      "v": 64
    },
    {
      "midi": 76,
      "hit": false,
      "t": 45783.24936328123,
      "d": 438.8046064453156,
      "v": 65
    },
    {
      "midi": 57,
      "hit": false,
      "t": 46002.43465136716,
      "d": 206.59841015624988,
      "v": 64
    },
    {
      "midi": 62,
      "hit": false,
      "t": 46224.22412109373,
      "d": 221.78946972656559,
      "v": 69
    },
    {
      "midi": 54,
      "hit": false,
      "t": 46224.22412109373,
      "d": 221.78946972656559,
      "v": 69
    },
    {
      "midi": 81,
      "hit": false,
      "t": 46224.224121093735,
      "d": 289.49819238280907,
      "v": 69
    },
    {
      "midi": 64,
      "hit": false,
      "t": 46459.46852929686,
      "d": 207.03244042968436,
      "v": 64
    },
    {
      "midi": 80,
      "hit": false,
      "t": 46531.51755468748,
      "d": 278.6474355468745,
      "v": 64
    },
    {
      "midi": 54,
      "hit": false,
      "t": 46679.955908203105,
      "d": 111.54578027343814,
      "v": 53
    },
    {
      "midi": 66,
      "hit": false,
      "t": 46679.955908203105,
      "d": 205.73034960937366,
      "v": 65
    },
    {
      "midi": 54,
      "hit": false,
      "t": 46791.93571874998,
      "d": 106.77144726562256,
      "v": 52
    },
    {
      "midi": 78,
      "hit": false,
      "t": 46827.96023144529,
      "d": 292.10237402343773,
      "v": 64
    },
    {
      "midi": 54,
      "hit": false,
      "t": 46899.141196289034,
      "d": 107.2054775390643,
      "v": 52
    },
    {
      "midi": 68,
      "hit": false,
      "t": 46899.141196289034,
      "d": 207.90050097656058,
      "v": 64
    },
    {
      "midi": 54,
      "hit": false,
      "t": 47120.49663574216,
      "d": 6.076423828126281,
      "v": 67
    },
    {
      "midi": 69,
      "hit": false,
      "t": 47120.496635742165,
      "d": 207.90050097656058,
      "v": 67
    },
    {
      "midi": 78,
      "hit": false,
      "t": 47120.496635742165,
      "d": 879.3453339843691,
      "v": 67
    },
    {
      "midi": 54,
      "hit": false,
      "t": 47341.85207519528,
      "d": 205.73034960937366,
      "v": 64
    },
    {
      "midi": 71,
      "hit": false,
      "t": 47341.85207519529,
      "d": 205.73034960937366,
      "v": 64
    },
    {
      "midi": 73,
      "hit": false,
      "t": 47561.037363281226,
      "d": 205.73034960937366,
      "v": 65
    },
    {
      "midi": 54,
      "hit": false,
      "t": 47780.222651367156,
      "d": 206.59841015624988,
      "v": 64
    },
    {
      "midi": 74,
      "hit": false,
      "t": 47780.22265136716,
      "d": 206.59841015624988,
      "v": 64
    },
    {
      "midi": 74,
      "hit": false,
      "t": 48002.01212109372,
      "d": 221.78946972656559,
      "v": 69
    },
    {
      "midi": 50,
      "hit": false,
      "t": 48002.01212109372,
      "d": 221.78946972656559,
      "v": 69
    },
    {
      "midi": 69,
      "hit": false,
      "t": 48237.25652929685,
      "d": 207.03244042968436,
      "v": 64
    },
    {
      "midi": 66,
      "hit": false,
      "t": 48457.7439082031,
      "d": 205.73034960937366,
      "v": 65
    },
    {
      "midi": 50,
      "hit": false,
      "t": 48457.7439082031,
      "d": 111.54578027343814,
      "v": 53
    },
    {
      "midi": 50,
      "hit": false,
      "t": 48569.72371874997,
      "d": 106.77144726562256,
      "v": 52
    },
    {
      "midi": 50,
      "hit": false,
      "t": 48676.92919628903,
      "d": 107.2054775390643,
      "v": 52
    },
    {
      "midi": 64,
      "hit": false,
      "t": 48676.929196289035,
      "d": 207.90050097656058,
      "v": 64
    },
    {
      "midi": 50,
      "hit": false,
      "t": 48784.568704101526,
      "d": 113.28190136719059,
      "v": 52
    },
    {
      "midi": 50,
      "hit": false,
      "t": 48898.28463574215,
      "d": 220.92140917968936,
      "v": 67
    },
    {
      "midi": 62,
      "hit": false,
      "t": 48898.28463574216,
      "d": 207.90050097656058,
      "v": 67
    },
    {
      "midi": 69,
      "hit": false,
      "t": 48898.28463574216,
      "d": 440.106697265619,
      "v": 67
    },
    {
      "midi": 50,
      "hit": false,
      "t": 49119.640075195275,
      "d": 205.73034960937366,
      "v": 64
    },
    {
      "midi": 64,
      "hit": false,
      "t": 49119.64007519528,
      "d": 205.73034960937366,
      "v": 64
    },
    {
      "midi": 66,
      "hit": false,
      "t": 49338.82536328121,
      "d": 205.73034960937366,
      "v": 65
    },
    {
      "midi": 78,
      "hit": false,
      "t": 49338.82536328121,
      "d": 438.8046064453083,
      "v": 65
    },
    {
      "midi": 69,
      "hit": false,
      "t": 49558.01065136715,
      "d": 206.59841015624988,
      "v": 64
    },
    {
      "midi": 50,
      "hit": false,
      "t": 49558.01065136715,
      "d": 206.59841015624988,
      "v": 64
    },
    {
      "midi": 68,
      "hit": false,
      "t": 49779.80012109371,
      "d": 221.78946972656559,
      "v": 69
    },
    {
      "midi": 80,
      "hit": false,
      "t": 49779.80012109371,
      "d": 289.49819238281634,
      "v": 69
    },
    {
      "midi": 52,
      "hit": false,
      "t": 49779.800121093715,
      "d": 221.78946972656559,
      "v": 69
    },
    {
      "midi": 66,
      "hit": false,
      "t": 50015.044529296836,
      "d": 207.03244042968436,
      "v": 64
    },
    {
      "midi": 78,
      "hit": false,
      "t": 50087.09355468746,
      "d": 278.6474355468745,
      "v": 64
    },
    {
      "midi": 64,
      "hit": false,
      "t": 50235.531908203084,
      "d": 205.73034960937366,
      "v": 65
    },
    {
      "midi": 52,
      "hit": false,
      "t": 50235.53190820309,
      "d": 111.54578027343814,
      "v": 53
    },
    {
      "midi": 52,
      "hit": false,
      "t": 50347.51171874996,
      "d": 106.77144726562256,
      "v": 52
    },
    {
      "midi": 76,
      "hit": false,
      "t": 50383.53623144527,
      "d": 292.10237402343046,
      "v": 64
    },
    {
      "midi": 66,
      "hit": false,
      "t": 50454.71719628902,
      "d": 207.90050097656058,
      "v": 64
    },
    {
      "midi": 52,
      "hit": false,
      "t": 50454.71719628902,
      "d": 107.2054775390643,
      "v": 52
    },
    {
      "midi": 52,
      "hit": false,
      "t": 50562.35670410152,
      "d": 113.28190136719059,
      "v": 52
    },
    {
      "midi": 68,
      "hit": false,
      "t": 50676.07263574214,
      "d": 207.90050097656058,
      "v": 67
    },
    {
      "midi": 76,
      "hit": false,
      "t": 50676.07263574214,
      "d": 879.3453339843691,
      "v": 67
    },
    {
      "midi": 52,
      "hit": false,
      "t": 50676.072635742144,
      "d": 220.92140917968936,
      "v": 67
    },
    {
      "midi": 69,
      "hit": false,
      "t": 50897.42807519526,
      "d": 205.73034960937366,
      "v": 64
    },
    {
      "midi": 52,
      "hit": false,
      "t": 50897.42807519527,
      "d": 205.73034960937366,
      "v": 64
    },
    {
      "midi": 71,
      "hit": false,
      "t": 51116.6133632812,
      "d": 205.73034960937366,
      "v": 65
    },
    {
      "midi": 75,
      "hit": false,
      "t": 51335.798651367135,
      "d": 206.59841015624988,
      "v": 64
    },
    {
      "midi": 52,
      "hit": false,
      "t": 51335.79865136714,
      "d": 206.59841015624988,
      "v": 64
    },
    {
      "midi": 76,
      "hit": false,
      "t": 51557.58812109369,
      "d": 221.78946972656559,
      "v": 69
    },
    {
      "midi": 56,
      "hit": false,
      "t": 51557.58812109371,
      "d": 221.78946972656559,
      "v": 69
    },
    {
      "midi": 71,
      "hit": false,
      "t": 51792.83252929682,
      "d": 207.03244042968436,
      "v": 64
    },
    {
      "midi": 68,
      "hit": false,
      "t": 52013.31990820307,
      "d": 205.73034960937366,
      "v": 65
    },
    {
      "midi": 56,
      "hit": false,
      "t": 52013.319908203084,
      "d": 111.54578027343814,
      "v": 53
    },
    {
      "midi": 56,
      "hit": false,
      "t": 52125.29971874996,
      "d": 106.77144726562256,
      "v": 52
    },
    {
      "midi": 66,
      "hit": false,
      "t": 52232.50519628901,
      "d": 207.90050097656058,
      "v": 64
    },
    {
      "midi": 56,
      "hit": false,
      "t": 52232.505196289014,
      "d": 107.2054775390643,
      "v": 52
    },
    {
      "midi": 56,
      "hit": false,
      "t": 52340.14470410151,
      "d": 113.28190136719059,
      "v": 52
    },
    {
      "midi": 64,
      "hit": false,
      "t": 52453.86063574213,
      "d": 207.90050097656058,
      "v": 67
    },
    {
      "midi": 68,
      "hit": false,
      "t": 52453.86063574213,
      "d": 440.106697265619,
      "v": 67
    },
    {
      "midi": 56,
      "hit": false,
      "t": 52453.86063574214,
      "d": 220.92140917968936,
      "v": 67
    },
    {
      "midi": 66,
      "hit": false,
      "t": 52675.216075195254,
      "d": 205.73034960937366,
      "v": 64
    },
    {
      "midi": 56,
      "hit": false,
      "t": 52675.21607519526,
      "d": 205.73034960937366,
      "v": 64
    },
    {
      "midi": 68,
      "hit": false,
      "t": 52894.401363281184,
      "d": 205.73034960937366,
      "v": 65
    },
    {
      "midi": 76,
      "hit": false,
      "t": 52894.401363281184,
      "d": 438.8046064453083,
      "v": 65
    },
    {
      "midi": 71,
      "hit": false,
      "t": 53113.58665136712,
      "d": 206.59841015624988,
      "v": 64
    },
    {
      "midi": 56,
      "hit": false,
      "t": 53113.586651367135,
      "d": 206.59841015624988,
      "v": 64
    },
    {
      "midi": 69,
      "hit": false,
      "t": 53335.37612109368,
      "d": 289.49819238280907,
      "v": 61
    },
    {
      "midi": 78,
      "hit": false,
      "t": 53335.37612109368,
      "d": 306.8594033203117,
      "v": 75
    },
    {
      "midi": 54,
      "hit": false,
      "t": 53335.3761210937,
      "d": 221.78946972656559,
      "v": 69
    },
    {
      "midi": 68,
      "hit": false,
      "t": 53642.669554687425,
      "d": 278.6474355468745,
      "v": 56
    },
    {
      "midi": 75,
      "hit": false,
      "t": 53642.669554687425,
      "d": 296.0086464843771,
      "v": 70
    },
    {
      "midi": 54,
      "hit": false,
      "t": 53791.10790820308,
      "d": 111.54578027343814,
      "v": 53
    },
    {
      "midi": 54,
      "hit": false,
      "t": 53903.08771874995,
      "d": 106.77144726562256,
      "v": 52
    },
    {
      "midi": 66,
      "hit": false,
      "t": 53939.11223144524,
      "d": 274.7411630859351,
      "v": 56
    },
    {
      "midi": 71,
      "hit": false,
      "t": 53939.11223144524,
      "d": 292.10237402343773,
      "v": 70
    },
    {
      "midi": 54,
      "hit": false,
      "t": 54010.29319628901,
      "d": 107.2054775390643,
      "v": 52
    },
    {
      "midi": 54,
      "hit": false,
      "t": 54117.932704101506,
      "d": 113.28190136719059,
      "v": 52
    },
    {
      "midi": 76,
      "hit": false,
      "t": 54231.64863574211,
      "d": 275.17519335937686,
      "v": 67
    },
    {
      "midi": 83,
      "hit": false,
      "t": 54231.64863574211,
      "d": 1777.3539697265587,
      "v": 67
    },
    {
      "midi": 54,
      "hit": false,
      "t": 54231.64863574213,
      "d": 220.92140917968936,
      "v": 67
    },
    {
      "midi": 54,
      "hit": false,
      "t": 54453.004075195255,
      "d": 205.73034960937366,
      "v": 64
    },
    {
      "midi": 75,
      "hit": false,
      "t": 54524.61907031242,
      "d": 277.3453447265638,
      "v": 64
    },
    {
      "midi": 73,
      "hit": false,
      "t": 54819.759656249924,
      "d": 291.2343134765615,
      "v": 64
    },
    {
      "midi": 54,
      "hit": false,
      "t": 54891.37465136713,
      "d": 206.59841015624988,
      "v": 64
    },
    {
      "midi": 73,
      "hit": false,
      "t": 55113.16412109367,
      "d": 289.49819238280907,
      "v": 69
    },
    {
      "midi": 59,
      "hit": false,
      "t": 55113.164121093694,
      "d": 221.78946972656559,
      "v": 69
    },
    {
      "midi": 71,
      "hit": false,
      "t": 55420.45755468742,
      "d": 278.6474355468745,
      "v": 64
    },
    {
      "midi": 59,
      "hit": false,
      "t": 55568.89590820307,
      "d": 111.54578027343814,
      "v": 53
    },
    {
      "midi": 59,
      "hit": false,
      "t": 55680.87571874994,
      "d": 106.77144726562256,
      "v": 52
    },
    {
      "midi": 69,
      "hit": false,
      "t": 55716.90023144523,
      "d": 274.7411630859351,
      "v": 64
    },
    {
      "midi": 59,
      "hit": false,
      "t": 55788.081196289,
      "d": 107.2054775390643,
      "v": 52
    },
    {
      "midi": 59,
      "hit": false,
      "t": 55895.7207041015,
      "d": 113.28190136719059,
      "v": 52
    },
    {
      "midi": 71,
      "hit": false,
      "t": 56009.4366357421,
      "d": 275.17519335937686,
      "v": 67
    },
    {
      "midi": 81,
      "hit": false,
      "t": 56009.4366357421,
      "d": 879.3453339843836,
      "v": 67
    },
    {
      "midi": 59,
      "hit": false,
      "t": 56009.436635742124,
      "d": 220.92140917968936,
      "v": 67
    },
    {
      "midi": 59,
      "hit": false,
      "t": 56230.79207519525,
      "d": 205.73034960937366,
      "v": 64
    },
    {
      "midi": 73,
      "hit": false,
      "t": 56302.407070312416,
      "d": 277.3453447265638,
      "v": 64
    },
    {
      "midi": 75,
      "hit": false,
      "t": 56597.54765624992,
      "d": 273.87310253906617,
      "v": 64
    },
    {
      "midi": 59,
      "hit": false,
      "t": 56669.16265136712,
      "d": 206.59841015624988,
      "v": 64
    },
    {
      "midi": 80,
      "hit": false,
      "t": 56890.95212109367,
      "d": 120.22638574218581,
      "v": 69
    },
    {
      "midi": 64,
      "hit": false,
      "t": 56890.95212109367,
      "d": 221.78946972656559,
      "v": 69
    },
    {
      "midi": 56,
      "hit": false,
      "t": 56890.95212109369,
      "d": 221.78946972656559,
      "v": 69
    },
    {
      "midi": 78,
      "hit": false,
      "t": 57018.12299121086,
      "d": 101.12905371093802,
      "v": 64
    },
    {
      "midi": 66,
      "hit": false,
      "t": 57126.1965292968,
      "d": 207.03244042968436,
      "v": 64
    },
    {
      "midi": 76,
      "hit": false,
      "t": 57126.1965292968,
      "d": 1540.3734404296847,
      "v": 64
    },
    {
      "midi": 68,
      "hit": false,
      "t": 57346.68390820305,
      "d": 205.73034960937366,
      "v": 65
    },
    {
      "midi": 56,
      "hit": false,
      "t": 57346.683908203064,
      "d": 111.54578027343814,
      "v": 53
    },
    {
      "midi": 56,
      "hit": false,
      "t": 57458.66371874994,
      "d": 106.77144726562256,
      "v": 52
    },
    {
      "midi": 69,
      "hit": false,
      "t": 57565.869196288986,
      "d": 207.90050097656058,
      "v": 64
    },
    {
      "midi": 56,
      "hit": false,
      "t": 57565.86919628899,
      "d": 107.2054775390643,
      "v": 52
    },
    {
      "midi": 56,
      "hit": false,
      "t": 57673.50870410149,
      "d": 113.28190136719059,
      "v": 52
    },
    {
      "midi": 71,
      "hit": false,
      "t": 57787.22463574211,
      "d": 275.17519335937686,
      "v": 67
    },
    {
      "midi": 56,
      "hit": false,
      "t": 57787.22463574212,
      "d": 220.92140917968936,
      "v": 67
    },
    {
      "midi": 56,
      "hit": false,
      "t": 58008.58007519524,
      "d": 205.73034960937366,
      "v": 64
    },
    {
      "midi": 73,
      "hit": false,
      "t": 58080.195070312424,
      "d": 277.3453447265638,
      "v": 64
    },
    {
      "midi": 75,
      "hit": false,
      "t": 58375.335656249925,
      "d": 273.8731025390589,
      "v": 64
    },
    {
      "midi": 56,
      "hit": false,
      "t": 58446.950651367115,
      "d": 206.59841015624988,
      "v": 64
    },
    {
      "midi": 76,
      "hit": false,
      "t": 58668.74012109367,
      "d": 221.78946972656559,
      "v": 69
    },
    {
      "midi": 52,
      "hit": false,
      "t": 58668.74012109368,
      "d": 221.78946972656559,
      "v": 69
    },
    {
      "midi": 71,
      "hit": false,
      "t": 58903.9845292968,
      "d": 207.03244042968436,
      "v": 64
    },
    {
      "midi": 68,
      "hit": false,
      "t": 59124.47190820305,
      "d": 205.73034960937366,
      "v": 65
    },
    {
      "midi": 52,
      "hit": false,
      "t": 59124.47190820306,
      "d": 111.54578027343814,
      "v": 53
    },
    {
      "midi": 52,
      "hit": false,
      "t": 59236.45171874993,
      "d": 106.77144726562256,
      "v": 52
    },
    {
      "midi": 66,
      "hit": false,
      "t": 59343.65719628899,
      "d": 207.90050097656058,
      "v": 64
    },
    {
      "midi": 52,
      "hit": false,
      "t": 59343.65719628899,
      "d": 107.2054775390643,
      "v": 52
    },
    {
      "midi": 52,
      "hit": false,
      "t": 59451.296704101485,
      "d": 113.28190136719059,
      "v": 52
    },
    {
      "midi": 64,
      "hit": false,
      "t": 59565.01263574211,
      "d": 207.90050097656058,
      "v": 67
    },
    {
      "midi": 52,
      "hit": false,
      "t": 59565.01263574211,
      "d": 220.92140917968936,
      "v": 67
    },
    {
      "midi": 66,
      "hit": false,
      "t": 59786.368075195234,
      "d": 205.73034960937366,
      "v": 64
    },
    {
      "midi": 52,
      "hit": false,
      "t": 59786.368075195234,
      "d": 205.73034960937366,
      "v": 64
    },
    {
      "midi": 68,
      "hit": false,
      "t": 60005.55336328117,
      "d": 205.73034960937366,
      "v": 65
    },
    {
      "midi": 69,
      "hit": false,
      "t": 60224.73865136711,
      "d": 206.59841015624988,
      "v": 64
    },
    {
      "midi": 51,
      "hit": false,
      "t": 60224.73865136711,
      "d": 206.59841015624988,
      "v": 64
    }
  ]
}