{
  "jsonPath": "Soul/Soul/Jackson 5/ill-be-there.json",
  "path": "Soul\\Soul\\Jackson 5\\Ill Be There.mid",
  "name": "Ill Be There",
  "difficulty": "Advanced",
  "bpm": 89.9999550000225,
  "notes": [
    {
      "midi": 72,
      "hit": false,
      "t": 5106.375999999999,
      "d": 558.5098750000006,
      "v": 93
    },
    {
      "midi": 77,
      "hit": false,
      "t": 5106.375999999999,
      "d": 558.5098750000006,
      "v": 101
    },
    {
      "midi": 81,
      "hit": false,
      "t": 5106.375999999999,
      "d": 558.5098750000006,
      "v": 93
    },
    {
      "midi": 41,
      "hit": false,
      "t": 5106.375999999999,
      "d": 1755.3167500000009,
      "v": 83
    },
    {
      "midi": 72,
      "hit": false,
      "t": 5724.72621875,
      "d": 558.5098749999997,
      "v": 90
    },
    {
      "midi": 77,
      "hit": false,
      "t": 5724.72621875,
      "d": 558.5098749999997,
      "v": 104
    },
    {
      "midi": 81,
      "hit": false,
      "t": 5724.72621875,
      "d": 558.5098749999997,
      "v": 92
    },
    {
      "midi": 72,
      "hit": false,
      "t": 6363.02321875,
      "d": 113.03176041666666,
      "v": 78
    },
    {
      "midi": 77,
      "hit": false,
      "t": 6363.02321875,
      "d": 113.03176041666666,
      "v": 100
    },
    {
      "midi": 82,
      "hit": false,
      "t": 6382.969999999999,
      "d": 106.38283333333402,
      "v": 113
    },
    {
      "midi": 77,
      "hit": false,
      "t": 6522.59746875,
      "d": 398.9356250000001,
      "v": 85
    },
    {
      "midi": 72,
      "hit": false,
      "t": 6529.246395833334,
      "d": 398.9356250000001,
      "v": 71
    },
    {
      "midi": 81,
      "hit": false,
      "t": 6529.246395833334,
      "d": 398.9356250000001,
      "v": 85
    },
    {
      "midi": 72,
      "hit": false,
      "t": 6994.6712916666675,
      "d": 565.1588020833333,
      "v": 90
    },
    {
      "midi": 77,
      "hit": false,
      "t": 6994.6712916666675,
      "d": 565.1588020833333,
      "v": 101
    },
    {
      "midi": 81,
      "hit": false,
      "t": 6994.6712916666675,
      "d": 565.1588020833333,
      "v": 92
    },
    {
      "midi": 41,
      "hit": false,
      "t": 7007.969145833335,
      "d": 571.8077291666659,
      "v": 81
    },
    {
      "midi": 75,
      "hit": false,
      "t": 7639.617218750001,
      "d": 186.16995833333385,
      "v": 95
    },
    {
      "midi": 80,
      "hit": false,
      "t": 7639.617218750001,
      "d": 186.16995833333385,
      "v": 97
    },
    {
      "midi": 70,
      "hit": false,
      "t": 7639.617218750001,
      "d": 192.8188854166674,
      "v": 93
    },
    {
      "midi": 51,
      "hit": false,
      "t": 7646.266145833334,
      "d": 837.7648125000005,
      "v": 103
    },
    {
      "midi": 75,
      "hit": false,
      "t": 7958.765718750002,
      "d": 458.77596874999927,
      "v": 95
    },
    {
      "midi": 79,
      "hit": false,
      "t": 7958.765718750002,
      "d": 492.0206041666652,
      "v": 97
    },
    {
      "midi": 70,
      "hit": false,
      "t": 7958.765718750002,
      "d": 505.3184583333323,
      "v": 95
    },
    {
      "midi": 73,
      "hit": false,
      "t": 8590.413791666668,
      "d": 59.84034375000192,
      "v": 71
    },
    {
      "midi": 46,
      "hit": false,
      "t": 8617.009500000002,
      "d": 571.8077291666687,
      "v": 99
    },
    {
      "midi": 74,
      "hit": false,
      "t": 8623.658427083335,
      "d": 1422.8703958333372,
      "v": 60
    },
    {
      "midi": 70,
      "hit": false,
      "t": 8623.658427083335,
      "d": 1462.7639583333366,
      "v": 93
    },
    {
      "midi": 77,
      "hit": false,
      "t": 8623.658427083335,
      "d": 1462.7639583333366,
      "v": 97
    },
    {
      "midi": 47,
      "hit": false,
      "t": 9202.115083333338,
      "d": 59.8403437500001,
      "v": 64
    },
    {
      "midi": 48,
      "hit": false,
      "t": 9242.008645833337,
      "d": 272.60601041666814,
      "v": 106
    },
    {
      "midi": 50,
      "hit": false,
      "t": 9554.508218750005,
      "d": 299.2017187500005,
      "v": 91
    },
    {
      "midi": 53,
      "hit": false,
      "t": 9880.30564583334,
      "d": 2699.4643958333345,
      "v": 103
    },
    {
      "midi": 72,
      "hit": false,
      "t": 10212.752000000006,
      "d": 558.5098749999997,
      "v": 93
    },
    {
      "midi": 77,
      "hit": false,
      "t": 10212.752000000006,
      "d": 558.5098749999997,
      "v": 101
    },
    {
      "midi": 81,
      "hit": false,
      "t": 10212.752000000006,
      "d": 558.5098749999997,
      "v": 93
    },
    {
      "midi": 72,
      "hit": false,
      "t": 10831.102218750006,
      "d": 558.5098749999997,
      "v": 90
    },
    {
      "midi": 77,
      "hit": false,
      "t": 10831.102218750006,
      "d": 558.5098749999997,
      "v": 104
    },
    {
      "midi": 81,
      "hit": false,
      "t": 10831.102218750006,
      "d": 558.5098749999997,
      "v": 92
    },
    {
      "midi": 72,
      "hit": false,
      "t": 11469.399218750006,
      "d": 113.03176041666666,
      "v": 78
    },
    {
      "midi": 77,
      "hit": false,
      "t": 11469.399218750006,
      "d": 113.03176041666666,
      "v": 100
    },
    {
      "midi": 82,
      "hit": false,
      "t": 11489.346000000007,
      "d": 106.38283333333311,
      "v": 113
    },
    {
      "midi": 77,
      "hit": false,
      "t": 11628.973468750006,
      "d": 398.9356250000001,
      "v": 85
    },
    {
      "midi": 72,
      "hit": false,
      "t": 11635.62239583334,
      "d": 398.9356250000001,
      "v": 71
    },
    {
      "midi": 81,
      "hit": false,
      "t": 11635.62239583334,
      "d": 398.9356250000001,
      "v": 85
    },
    {
      "midi": 72,
      "hit": false,
      "t": 12101.047291666673,
      "d": 565.1588020833333,
      "v": 90
    },
    {
      "midi": 77,
      "hit": false,
      "t": 12101.047291666673,
      "d": 565.1588020833333,
      "v": 101
    },
    {
      "midi": 81,
      "hit": false,
      "t": 12101.047291666673,
      "d": 565.1588020833333,
      "v": 92
    },
    {
      "midi": 77,
      "hit": false,
      "t": 12765.940000000006,
      "d": 2480.049802083333,
      "v": 98
    },
    {
      "midi": 82,
      "hit": false,
      "t": 12765.940000000006,
      "d": 2480.049802083333,
      "v": 93
    },
    {
      "midi": 72,
      "hit": false,
      "t": 12765.940000000006,
      "d": 2493.34765625,
      "v": 86
    },
    {
      "midi": 41,
      "hit": false,
      "t": 12765.940000000006,
      "d": 2499.9965833333335,
      "v": 84
    },
    {
      "midi": 72,
      "hit": false,
      "t": 15319.128000000006,
      "d": 398.9356250000001,
      "v": 74
    },
    {
      "midi": 69,
      "hit": false,
      "t": 15319.128000000006,
      "d": 405.5845520833336,
      "v": 71
    },
    {
      "midi": 65,
      "hit": false,
      "t": 15319.128000000006,
      "d": 425.53133333333426,
      "v": 72
    },
    {
      "midi": 53,
      "hit": false,
      "t": 15319.128000000006,
      "d": 2526.5922916666696,
      "v": 76
    },
    {
      "midi": 60,
      "hit": false,
      "t": 15644.925427083339,
      "d": 405.5845520833336,
      "v": 63
    },
    {
      "midi": 72,
      "hit": false,
      "t": 15950.776072916673,
      "d": 359.0420624999988,
      "v": 71
    },
    {
      "midi": 65,
      "hit": false,
      "t": 15950.776072916673,
      "d": 398.93562499999825,
      "v": 65
    },
    {
      "midi": 69,
      "hit": false,
      "t": 15950.776072916673,
      "d": 398.93562499999825,
      "v": 58
    },
    {
      "midi": 60,
      "hit": false,
      "t": 16269.924572916672,
      "d": 392.2866979166647,
      "v": 64
    },
    {
      "midi": 72,
      "hit": false,
      "t": 16589.07307291667,
      "d": 352.39313541666706,
      "v": 76
    },
    {
      "midi": 69,
      "hit": false,
      "t": 16589.07307291667,
      "d": 385.6377708333348,
      "v": 71
    },
    {
      "midi": 65,
      "hit": false,
      "t": 16589.07307291667,
      "d": 398.9356250000019,
      "v": 69
    },
    {
      "midi": 60,
      "hit": false,
      "t": 16914.870500000005,
      "d": 412.233479166669,
      "v": 67
    },
    {
      "midi": 65,
      "hit": false,
      "t": 17227.370072916674,
      "d": 352.39313541666706,
      "v": 69
    },
    {
      "midi": 69,
      "hit": false,
      "t": 17227.370072916674,
      "d": 372.3399166666677,
      "v": 71
    },
    {
      "midi": 72,
      "hit": false,
      "t": 17240.66792708334,
      "d": 332.4463541666664,
      "v": 75
    },
    {
      "midi": 60,
      "hit": false,
      "t": 17553.167500000007,
      "d": 265.9570833333346,
      "v": 64
    },
    {
      "midi": 72,
      "hit": false,
      "t": 17872.31600000001,
      "d": 378.98884375000125,
      "v": 69
    },
    {
      "midi": 52,
      "hit": false,
      "t": 17872.31600000001,
      "d": 1582.4446458333405,
      "v": 70
    },
    {
      "midi": 67,
      "hit": false,
      "t": 17878.964927083343,
      "d": 378.98884375000125,
      "v": 72
    },
    {
      "midi": 64,
      "hit": false,
      "t": 17878.964927083343,
      "d": 392.28669791666834,
      "v": 64
    },
    {
      "midi": 60,
      "hit": false,
      "t": 18198.113427083343,
      "d": 359.04206250000425,
      "v": 61
    },
    {
      "midi": 67,
      "hit": false,
      "t": 18517.261927083346,
      "d": 345.74420833333716,
      "v": 77
    },
    {
      "midi": 72,
      "hit": false,
      "t": 18517.261927083346,
      "d": 345.74420833333716,
      "v": 70
    },
    {
      "midi": 64,
      "hit": false,
      "t": 18517.261927083346,
      "d": 352.3931354166707,
      "v": 66
    },
    {
      "midi": 60,
      "hit": false,
      "t": 18836.41042708335,
      "d": 319.14850000000297,
      "v": 67
    },
    {
      "midi": 67,
      "hit": false,
      "t": 19142.261072916684,
      "d": 332.4463541666664,
      "v": 78
    },
    {
      "midi": 64,
      "hit": false,
      "t": 19142.261072916684,
      "d": 339.09528124999997,
      "v": 72
    },
    {
      "midi": 72,
      "hit": false,
      "t": 19142.261072916684,
      "d": 352.39313541666706,
      "v": 80
    },
    {
      "midi": 53,
      "hit": false,
      "t": 19468.058500000017,
      "d": 279.2549375000017,
      "v": 67
    },
    {
      "midi": 60,
      "hit": false,
      "t": 19474.70742708335,
      "d": 332.44635416667006,
      "v": 71
    },
    {
      "midi": 67,
      "hit": false,
      "t": 19780.558072916687,
      "d": 319.14849999999933,
      "v": 81
    },
    {
      "midi": 72,
      "hit": false,
      "t": 19780.558072916687,
      "d": 319.14849999999933,
      "v": 78
    },
    {
      "midi": 55,
      "hit": false,
      "t": 19780.558072916687,
      "d": 332.4463541666664,
      "v": 74
    },
    {
      "midi": 64,
      "hit": false,
      "t": 19780.558072916687,
      "d": 345.7442083333335,
      "v": 78
    },
    {
      "midi": 52,
      "hit": false,
      "t": 20099.706572916686,
      "d": 292.5527916666688,
      "v": 70
    },
    {
      "midi": 60,
      "hit": false,
      "t": 20099.706572916686,
      "d": 299.2017187500023,
      "v": 76
    },
    {
      "midi": 72,
      "hit": false,
      "t": 20418.85507291669,
      "d": 345.7442083333335,
      "v": 78
    },
    {
      "midi": 65,
      "hit": false,
      "t": 20418.85507291669,
      "d": 365.69098958333416,
      "v": 65
    },
    {
      "midi": 69,
      "hit": false,
      "t": 20418.85507291669,
      "d": 365.69098958333416,
      "v": 77
    },
    {
      "midi": 50,
      "hit": false,
      "t": 20418.85507291669,
      "d": 1263.2961458333411,
      "v": 72
    },
    {
      "midi": 60,
      "hit": false,
      "t": 20738.00357291669,
      "d": 359.04206250000425,
      "v": 69
    },
    {
      "midi": 72,
      "hit": false,
      "t": 21057.15207291669,
      "d": 339.0952812500036,
      "v": 71
    },
    {
      "midi": 69,
      "hit": false,
      "t": 21057.15207291669,
      "d": 345.74420833333716,
      "v": 77
    },
    {
      "midi": 65,
      "hit": false,
      "t": 21057.15207291669,
      "d": 372.33991666667134,
      "v": 73
    },
    {
      "midi": 60,
      "hit": false,
      "t": 21376.300572916694,
      "d": 325.7974270833365,
      "v": 71
    },
    {
      "midi": 72,
      "hit": false,
      "t": 21688.800145833364,
      "d": 312.4995729166658,
      "v": 76
    },
    {
      "midi": 69,
      "hit": false,
      "t": 21688.800145833364,
      "d": 345.7442083333335,
      "v": 78
    },
    {
      "midi": 65,
      "hit": false,
      "t": 21688.800145833364,
      "d": 378.98884375000125,
      "v": 75
    },
    {
      "midi": 48,
      "hit": false,
      "t": 21688.800145833364,
      "d": 1017.2858437500072,
      "v": 65
    },
    {
      "midi": 60,
      "hit": false,
      "t": 22007.948645833363,
      "d": 359.04206250000425,
      "v": 71
    },
    {
      "midi": 72,
      "hit": false,
      "t": 22327.097145833366,
      "d": 319.14850000000297,
      "v": 78
    },
    {
      "midi": 65,
      "hit": false,
      "t": 22327.097145833366,
      "d": 339.0952812500036,
      "v": 78
    },
    {
      "midi": 69,
      "hit": false,
      "t": 22327.097145833366,
      "d": 365.6909895833378,
      "v": 81
    },
    {
      "midi": 60,
      "hit": false,
      "t": 22646.24564583337,
      "d": 239.3613750000004,
      "v": 71
    },
    {
      "midi": 46,
      "hit": false,
      "t": 22646.24564583337,
      "d": 265.9570833333346,
      "v": 58
    },
    {
      "midi": 69,
      "hit": false,
      "t": 22958.74521875004,
      "d": 359.0420625000006,
      "v": 78
    },
    {
      "midi": 45,
      "hit": false,
      "t": 22958.74521875004,
      "d": 1482.7107395833445,
      "v": 67
    },
    {
      "midi": 72,
      "hit": false,
      "t": 22965.394145833372,
      "d": 325.7974270833329,
      "v": 69
    },
    {
      "midi": 64,
      "hit": false,
      "t": 22965.394145833372,
      "d": 332.4463541666664,
      "v": 72
    },
    {
      "midi": 60,
      "hit": false,
      "t": 23284.54264583337,
      "d": 359.04206250000425,
      "v": 71
    },
    {
      "midi": 72,
      "hit": false,
      "t": 23597.04221875004,
      "d": 339.0952812500036,
      "v": 72
    },
    {
      "midi": 64,
      "hit": false,
      "t": 23597.04221875004,
      "d": 345.74420833333716,
      "v": 71
    },
    {
      "midi": 69,
      "hit": false,
      "t": 23597.04221875004,
      "d": 365.6909895833378,
      "v": 73
    },
    {
      "midi": 60,
      "hit": false,
      "t": 23922.839645833377,
      "d": 372.33991666667134,
      "v": 69
    },
    {
      "midi": 72,
      "hit": false,
      "t": 24241.98814583338,
      "d": 319.14850000000297,
      "v": 71
    },
    {
      "midi": 64,
      "hit": false,
      "t": 24241.98814583338,
      "d": 345.74420833333716,
      "v": 71
    },
    {
      "midi": 69,
      "hit": false,
      "t": 24241.98814583338,
      "d": 345.74420833333716,
      "v": 76
    },
    {
      "midi": 45,
      "hit": false,
      "t": 24561.136645833383,
      "d": 279.2549375000017,
      "v": 64
    },
    {
      "midi": 60,
      "hit": false,
      "t": 24561.136645833383,
      "d": 359.04206250000425,
      "v": 78
    },
    {
      "midi": 46,
      "hit": false,
      "t": 24880.285145833386,
      "d": 299.2017187500023,
      "v": 59
    },
    {
      "midi": 72,
      "hit": false,
      "t": 24880.285145833386,
      "d": 305.8506458333359,
      "v": 78
    },
    {
      "midi": 69,
      "hit": false,
      "t": 24880.285145833386,
      "d": 319.14850000000297,
      "v": 83
    },
    {
      "midi": 64,
      "hit": false,
      "t": 24880.285145833386,
      "d": 339.0952812500036,
      "v": 81
    },
    {
      "midi": 60,
      "hit": false,
      "t": 25199.43364583339,
      "d": 239.3613750000004,
      "v": 78
    },
    {
      "midi": 48,
      "hit": false,
      "t": 25212.731500000056,
      "d": 312.4995729166658,
      "v": 61
    },
    {
      "midi": 70,
      "hit": false,
      "t": 25531.880000000056,
      "d": 319.14849999999933,
      "v": 73
    },
    {
      "midi": 74,
      "hit": false,
      "t": 25531.880000000056,
      "d": 319.14849999999933,
      "v": 75
    },
    {
      "midi": 65,
      "hit": false,
      "t": 25531.880000000056,
      "d": 345.7442083333335,
      "v": 69
    },
    {
      "midi": 46,
      "hit": false,
      "t": 25531.880000000056,
      "d": 1263.2961458333411,
      "v": 71
    },
    {
      "midi": 62,
      "hit": false,
      "t": 25837.730645833388,
      "d": 359.04206250000425,
      "v": 67
    },
    {
      "midi": 65,
      "hit": false,
      "t": 26150.230218750057,
      "d": 385.63777083333844,
      "v": 69
    },
    {
      "midi": 74,
      "hit": false,
      "t": 26156.87914583339,
      "d": 345.74420833333716,
      "v": 80
    },
    {
      "midi": 70,
      "hit": false,
      "t": 26156.87914583339,
      "d": 352.3931354166707,
      "v": 70
    },
    {
      "midi": 62,
      "hit": false,
      "t": 26476.027645833394,
      "d": 325.7974270833365,
      "v": 69
    },
    {
      "midi": 74,
      "hit": false,
      "t": 26795.176145833397,
      "d": 339.09528124999997,
      "v": 82
    },
    {
      "midi": 70,
      "hit": false,
      "t": 26795.176145833397,
      "d": 345.7442083333335,
      "v": 71
    },
    {
      "midi": 65,
      "hit": false,
      "t": 26795.176145833397,
      "d": 378.98884375000125,
      "v": 71
    },
    {
      "midi": 55,
      "hit": false,
      "t": 26795.176145833397,
      "d": 1303.1897083333388,
      "v": 73
    },
    {
      "midi": 62,
      "hit": false,
      "t": 27114.324645833396,
      "d": 392.28669791666834,
      "v": 69
    },
    {
      "midi": 65,
      "hit": false,
      "t": 27433.4731458334,
      "d": 465.4248958333337,
      "v": 69
    },
    {
      "midi": 70,
      "hit": false,
      "t": 27433.4731458334,
      "d": 472.07382291666727,
      "v": 69
    },
    {
      "midi": 74,
      "hit": false,
      "t": 27433.4731458334,
      "d": 478.7227500000008,
      "v": 78
    },
    {
      "midi": 62,
      "hit": false,
      "t": 27759.270572916732,
      "d": 292.5527916666688,
      "v": 67
    },
    {
      "midi": 74,
      "hit": false,
      "t": 28078.419072916735,
      "d": 352.39313541666706,
      "v": 78
    },
    {
      "midi": 65,
      "hit": false,
      "t": 28078.419072916735,
      "d": 378.98884375000125,
      "v": 69
    },
    {
      "midi": 70,
      "hit": false,
      "t": 28078.419072916735,
      "d": 378.98884375000125,
      "v": 66
    },
    {
      "midi": 48,
      "hit": false,
      "t": 28078.419072916735,
      "d": 1296.5407812500089,
      "v": 71
    },
    {
      "midi": 62,
      "hit": false,
      "t": 28404.216500000068,
      "d": 359.04206250000425,
      "v": 69
    },
    {
      "midi": 70,
      "hit": false,
      "t": 28716.716072916737,
      "d": 372.33991666667134,
      "v": 72
    },
    {
      "midi": 74,
      "hit": false,
      "t": 28716.716072916737,
      "d": 392.286697916672,
      "v": 84
    },
    {
      "midi": 65,
      "hit": false,
      "t": 28716.716072916737,
      "d": 398.93562500000553,
      "v": 70
    },
    {
      "midi": 62,
      "hit": false,
      "t": 29035.86457291674,
      "d": 272.60601041666814,
      "v": 70
    },
    {
      "midi": 74,
      "hit": false,
      "t": 29355.013072916743,
      "d": 345.7442083333335,
      "v": 90
    },
    {
      "midi": 70,
      "hit": false,
      "t": 29355.013072916743,
      "d": 359.0420625000006,
      "v": 76
    },
    {
      "midi": 55,
      "hit": false,
      "t": 29355.013072916743,
      "d": 372.3399166666677,
      "v": 74
    },
    {
      "midi": 65,
      "hit": false,
      "t": 29355.013072916743,
      "d": 372.3399166666677,
      "v": 77
    },
    {
      "midi": 57,
      "hit": false,
      "t": 29687.45942708341,
      "d": 285.90386458333523,
      "v": 70
    },
    {
      "midi": 62,
      "hit": false,
      "t": 29687.45942708341,
      "d": 365.6909895833378,
      "v": 78
    },
    {
      "midi": 58,
      "hit": false,
      "t": 30006.607927083413,
      "d": 339.0952812500036,
      "v": 71
    },
    {
      "midi": 65,
      "hit": false,
      "t": 30006.607927083413,
      "d": 472.0738229166709,
      "v": 76
    },
    {
      "midi": 70,
      "hit": false,
      "t": 30006.607927083413,
      "d": 472.0738229166709,
      "v": 75
    },
    {
      "midi": 74,
      "hit": false,
      "t": 30006.607927083413,
      "d": 472.0738229166709,
      "v": 87
    },
    {
      "midi": 60,
      "hit": false,
      "t": 30325.756427083415,
      "d": 312.4995729166694,
      "v": 69
    },
    {
      "midi": 65,
      "hit": false,
      "t": 30638.256000000085,
      "d": 339.09528124999997,
      "v": 74
    },
    {
      "midi": 69,
      "hit": false,
      "t": 30638.256000000085,
      "d": 339.09528124999997,
      "v": 73
    },
    {
      "midi": 72,
      "hit": false,
      "t": 30638.256000000085,
      "d": 339.09528124999997,
      "v": 83
    },
    {
      "midi": 53,
      "hit": false,
      "t": 30638.256000000085,
      "d": 864.360520833332,
      "v": 80
    },
    {
      "midi": 60,
      "hit": false,
      "t": 30950.75557291675,
      "d": 345.7442083333335,
      "v": 62
    },
    {
      "midi": 72,
      "hit": false,
      "t": 31263.255145833416,
      "d": 339.09528124999997,
      "v": 65
    },
    {
      "midi": 69,
      "hit": false,
      "t": 31263.255145833416,
      "d": 345.7442083333335,
      "v": 60
    },
    {
      "midi": 65,
      "hit": false,
      "t": 31263.255145833416,
      "d": 352.39313541666706,
      "v": 63
    },
    {
      "midi": 60,
      "hit": false,
      "t": 31589.05257291675,
      "d": 325.7974270833329,
      "v": 62
    },
    {
      "midi": 52,
      "hit": false,
      "t": 31595.701500000083,
      "d": 1216.7536562499954,
      "v": 78
    },
    {
      "midi": 72,
      "hit": false,
      "t": 31901.552145833415,
      "d": 332.4463541666664,
      "v": 69
    },
    {
      "midi": 69,
      "hit": false,
      "t": 31901.552145833415,
      "d": 339.09528124999997,
      "v": 63
    },
    {
      "midi": 65,
      "hit": false,
      "t": 31901.552145833415,
      "d": 352.39313541666706,
      "v": 69
    },
    {
      "midi": 60,
      "hit": false,
      "t": 32220.700645833414,
      "d": 339.09528124999997,
      "v": 70
    },
    {
      "midi": 72,
      "hit": false,
      "t": 32539.849145833414,
      "d": 339.09528124999997,
      "v": 69
    },
    {
      "midi": 65,
      "hit": false,
      "t": 32539.849145833414,
      "d": 352.39313541666706,
      "v": 69
    },
    {
      "midi": 69,
      "hit": false,
      "t": 32539.849145833414,
      "d": 352.39313541666706,
      "v": 67
    },
    {
      "midi": 60,
      "hit": false,
      "t": 32865.64657291675,
      "d": 332.44635416667006,
      "v": 68
    },
    {
      "midi": 50,
      "hit": false,
      "t": 32872.29550000008,
      "d": 624.9991458333388,
      "v": 76
    },
    {
      "midi": 69,
      "hit": false,
      "t": 33178.146145833416,
      "d": 339.0952812500036,
      "v": 67
    },
    {
      "midi": 72,
      "hit": false,
      "t": 33178.146145833416,
      "d": 339.0952812500036,
      "v": 69
    },
    {
      "midi": 65,
      "hit": false,
      "t": 33178.146145833416,
      "d": 352.3931354166707,
      "v": 69
    },
    {
      "midi": 60,
      "hit": false,
      "t": 33503.94357291675,
      "d": 332.44635416667006,
      "v": 64
    },
    {
      "midi": 48,
      "hit": false,
      "t": 33510.592500000086,
      "d": 658.2437812500066,
      "v": 78
    },
    {
      "midi": 72,
      "hit": false,
      "t": 33816.44314583342,
      "d": 345.74420833333716,
      "v": 69
    },
    {
      "midi": 69,
      "hit": false,
      "t": 33816.44314583342,
      "d": 352.3931354166707,
      "v": 64
    },
    {
      "midi": 65,
      "hit": false,
      "t": 33816.44314583342,
      "d": 359.04206250000425,
      "v": 67
    },
    {
      "midi": 60,
      "hit": false,
      "t": 34142.24057291676,
      "d": 319.14850000000297,
      "v": 61
    },
    {
      "midi": 46,
      "hit": false,
      "t": 34148.88950000009,
      "d": 591.7545104166711,
      "v": 76
    },
    {
      "midi": 69,
      "hit": false,
      "t": 34454.74014583343,
      "d": 339.0952812500036,
      "v": 60
    },
    {
      "midi": 72,
      "hit": false,
      "t": 34454.74014583343,
      "d": 339.0952812500036,
      "v": 67
    },
    {
      "midi": 65,
      "hit": false,
      "t": 34454.74014583343,
      "d": 352.3931354166707,
      "v": 61
    },
    {
      "midi": 60,
      "hit": false,
      "t": 34780.537572916764,
      "d": 332.44635416667006,
      "v": 67
    },
    {
      "midi": 45,
      "hit": false,
      "t": 34787.1865000001,
      "d": 299.2017187500023,
      "v": 78
    },
    {
      "midi": 65,
      "hit": false,
      "t": 35093.037145833434,
      "d": 392.286697916672,
      "v": 65
    },
    {
      "midi": 69,
      "hit": false,
      "t": 35099.68607291677,
      "d": 378.9888437500049,
      "v": 63
    },
    {
      "midi": 72,
      "hit": false,
      "t": 35099.68607291677,
      "d": 378.9888437500049,
      "v": 69
    },
    {
      "midi": 43,
      "hit": false,
      "t": 35106.3350000001,
      "d": 545.2120208333363,
      "v": 80
    },
    {
      "midi": 60,
      "hit": false,
      "t": 35418.83457291677,
      "d": 292.5527916666688,
      "v": 61
    },
    {
      "midi": 72,
      "hit": false,
      "t": 35744.63200000011,
      "d": 398.93562500000553,
      "v": 74
    },
    {
      "midi": 69,
      "hit": false,
      "t": 35744.63200000011,
      "d": 405.5845520833391,
      "v": 71
    },
    {
      "midi": 65,
      "hit": false,
      "t": 35744.63200000011,
      "d": 425.5313333333397,
      "v": 72
    },
    {
      "midi": 60,
      "hit": false,
      "t": 36070.42942708344,
      "d": 405.5845520833391,
      "v": 63
    },
    {
      "midi": 72,
      "hit": false,
      "t": 36376.28007291678,
      "d": 359.04206250000425,
      "v": 71
    },
    {
      "midi": 65,
      "hit": false,
      "t": 36376.28007291678,
      "d": 398.93562500000553,
      "v": 65
    },
    {
      "midi": 69,
      "hit": false,
      "t": 36376.28007291678,
      "d": 398.93562500000553,
      "v": 58
    },
    {
      "midi": 60,
      "hit": false,
      "t": 36695.42857291678,
      "d": 392.286697916672,
      "v": 64
    },
    {
      "midi": 72,
      "hit": false,
      "t": 37014.577072916785,
      "d": 352.3931354166707,
      "v": 76
    },
    {
      "midi": 69,
      "hit": false,
      "t": 37014.577072916785,
      "d": 385.63777083333844,
      "v": 71
    },
    {
      "midi": 65,
      "hit": false,
      "t": 37014.577072916785,
      "d": 398.93562500000553,
      "v": 69
    },
    {
      "midi": 60,
      "hit": false,
      "t": 37340.37450000012,
      "d": 412.2334791666726,
      "v": 67
    },
    {
      "midi": 65,
      "hit": false,
      "t": 37652.87407291679,
      "d": 352.3931354166707,
      "v": 69
    },
    {
      "midi": 69,
      "hit": false,
      "t": 37652.87407291679,
      "d": 372.33991666667134,
      "v": 71
    },
    {
      "midi": 72,
      "hit": false,
      "t": 37666.17192708346,
      "d": 332.44635416667006,
      "v": 75
    },
    {
      "midi": 60,
      "hit": false,
      "t": 37978.67150000013,
      "d": 265.9570833333346,
      "v": 64
    },
    {
      "midi": 72,
      "hit": false,
      "t": 38297.82000000013,
      "d": 378.9888437500049,
      "v": 69
    },
    {
      "midi": 67,
      "hit": false,
      "t": 38304.468927083464,
      "d": 378.9888437500049,
      "v": 72
    },
    {
      "midi": 64,
      "hit": false,
      "t": 38304.468927083464,
      "d": 392.286697916672,
      "v": 64
    },
    {
      "midi": 60,
      "hit": false,
      "t": 38623.61742708347,
      "d": 359.04206250000425,
      "v": 61
    },
    {
      "midi": 67,
      "hit": false,
      "t": 38942.76592708347,
      "d": 345.74420833333716,
      "v": 77
    },
    {
      "midi": 72,
      "hit": false,
      "t": 38942.76592708347,
      "d": 345.74420833333716,
      "v": 70
    },
    {
      "midi": 64,
      "hit": false,
      "t": 38942.76592708347,
      "d": 352.3931354166707,
      "v": 66
    },
    {
      "midi": 60,
      "hit": false,
      "t": 39261.91442708347,
      "d": 319.14850000000297,
      "v": 67
    },
    {
      "midi": 67,
      "hit": false,
      "t": 39567.76507291681,
      "d": 332.44635416667006,
      "v": 78
    },
    {
      "midi": 64,
      "hit": false,
      "t": 39567.76507291681,
      "d": 339.0952812500036,
      "v": 72
    },
    {
      "midi": 72,
      "hit": false,
      "t": 39567.76507291681,
      "d": 352.3931354166707,
      "v": 80
    },
    {
      "midi": 60,
      "hit": false,
      "t": 39900.21142708348,
      "d": 332.44635416667006,
      "v": 71
    },
    {
      "midi": 67,
      "hit": false,
      "t": 40206.062072916815,
      "d": 319.14850000000297,
      "v": 81
    },
    {
      "midi": 72,
      "hit": false,
      "t": 40206.062072916815,
      "d": 319.14850000000297,
      "v": 78
    },
    {
      "midi": 64,
      "hit": false,
      "t": 40206.062072916815,
      "d": 345.74420833333716,
      "v": 78
    },
    {
      "midi": 60,
      "hit": false,
      "t": 40525.21057291682,
      "d": 299.2017187500023,
      "v": 76
    },
    {
      "midi": 72,
      "hit": false,
      "t": 40844.35907291682,
      "d": 345.74420833333716,
      "v": 78
    },
    {
      "midi": 65,
      "hit": false,
      "t": 40844.35907291682,
      "d": 365.6909895833378,
      "v": 65
    },
    {
      "midi": 69,
      "hit": false,
      "t": 40844.35907291682,
      "d": 365.6909895833378,
      "v": 77
    },
    {
      "midi": 60,
      "hit": false,
      "t": 41163.507572916824,
      "d": 359.04206250000425,
      "v": 69
    },
    {
      "midi": 72,
      "hit": false,
      "t": 41482.65607291683,
      "d": 339.0952812500036,
      "v": 71
    },
    {
      "midi": 69,
      "hit": false,
      "t": 41482.65607291683,
      "d": 345.74420833333716,
      "v": 77
    },
    {
      "midi": 65,
      "hit": false,
      "t": 41482.65607291683,
      "d": 372.33991666667134,
      "v": 73
    },
    {
      "midi": 60,
      "hit": false,
      "t": 41801.80457291683,
      "d": 325.7974270833365,
      "v": 71
    },
    {
      "midi": 72,
      "hit": false,
      "t": 42114.3041458335,
      "d": 312.4995729166694,
      "v": 76
    },
    {
      "midi": 69,
      "hit": false,
      "t": 42114.3041458335,
      "d": 345.74420833333716,
      "v": 78
    },
    {
      "midi": 65,
      "hit": false,
      "t": 42114.3041458335,
      "d": 378.9888437500049,
      "v": 75
    },
    {
      "midi": 60,
      "hit": false,
      "t": 42433.4526458335,
      "d": 359.04206250000425,
      "v": 71
    },
    {
      "midi": 72,
      "hit": false,
      "t": 42752.601145833505,
      "d": 319.14850000000297,
      "v": 78
    },
    {
      "midi": 65,
      "hit": false,
      "t": 42752.601145833505,
      "d": 339.0952812500036,
      "v": 78
    },
    {
      "midi": 69,
      "hit": false,
      "t": 42752.601145833505,
      "d": 365.6909895833378,
      "v": 81
    },
    {
      "midi": 60,
      "hit": false,
      "t": 43071.74964583351,
      "d": 239.3613750000004,
      "v": 71
    },
    {
      "midi": 69,
      "hit": false,
      "t": 43384.24921875018,
      "d": 359.04206250000425,
      "v": 78
    },
    {
      "midi": 72,
      "hit": false,
      "t": 43390.89814583351,
      "d": 325.7974270833365,
      "v": 69
    },
    {
      "midi": 64,
      "hit": false,
      "t": 43390.89814583351,
      "d": 332.44635416667006,
      "v": 72
    },
    {
      "midi": 60,
      "hit": false,
      "t": 43710.046645833514,
      "d": 359.04206250000425,
      "v": 71
    },
    {
      "midi": 72,
      "hit": false,
      "t": 44022.54621875018,
      "d": 339.0952812500036,
      "v": 72
    },
    {
      "midi": 64,
      "hit": false,
      "t": 44022.54621875018,
      "d": 345.74420833333716,
      "v": 71
    },
    {
      "midi": 69,
      "hit": false,
      "t": 44022.54621875018,
      "d": 365.6909895833378,
      "v": 73
    },
    {
      "midi": 60,
      "hit": false,
      "t": 44348.34364583352,
      "d": 372.33991666667134,
      "v": 69
    },
    {
      "midi": 72,
      "hit": false,
      "t": 44667.49214583352,
      "d": 319.14850000000297,
      "v": 71
    },
    {
      "midi": 64,
      "hit": false,
      "t": 44667.49214583352,
      "d": 345.74420833333716,
      "v": 71
    },
    {
      "midi": 69,
      "hit": false,
      "t": 44667.49214583352,
      "d": 345.74420833333716,
      "v": 76
    },
    {
      "midi": 60,
      "hit": false,
      "t": 44986.640645833526,
      "d": 359.04206250000425,
      "v": 78
    },
    {
      "midi": 72,
      "hit": false,
      "t": 45305.78914583353,
      "d": 305.8506458333359,
      "v": 78
    },
    {
      "midi": 69,
      "hit": false,
      "t": 45305.78914583353,
      "d": 319.14850000000297,
      "v": 83
    },
    {
      "midi": 64,
      "hit": false,
      "t": 45305.78914583353,
      "d": 339.0952812500036,
      "v": 81
    },
    {
      "midi": 60,
      "hit": false,
      "t": 45624.93764583353,
      "d": 239.3613750000004,
      "v": 78
    },
    {
      "midi": 70,
      "hit": false,
      "t": 45957.3840000002,
      "d": 319.14850000000297,
      "v": 73
    },
    {
      "midi": 74,
      "hit": false,
      "t": 45957.3840000002,
      "d": 319.14850000000297,
      "v": 75
    },
    {
      "midi": 65,
      "hit": false,
      "t": 45957.3840000002,
      "d": 345.74420833333716,
      "v": 69
    },
    {
      "midi": 62,
      "hit": false,
      "t": 46263.23464583354,
      "d": 359.04206250000425,
      "v": 67
    },
    {
      "midi": 65,
      "hit": false,
      "t": 46575.73421875021,
      "d": 385.63777083333844,
      "v": 69
    },
    {
      "midi": 74,
      "hit": false,
      "t": 46582.38314583354,
      "d": 345.74420833333716,
      "v": 80
    },
    {
      "midi": 70,
      "hit": false,
      "t": 46582.38314583354,
      "d": 352.3931354166707,
      "v": 70
    },
    {
      "midi": 62,
      "hit": false,
      "t": 46901.531645833544,
      "d": 325.7974270833365,
      "v": 69
    },
    {
      "midi": 74,
      "hit": false,
      "t": 47220.68014583355,
      "d": 339.0952812500036,
      "v": 82
    },
    {
      "midi": 70,
      "hit": false,
      "t": 47220.68014583355,
      "d": 345.74420833333716,
      "v": 71
    },
    {
      "midi": 65,
      "hit": false,
      "t": 47220.68014583355,
      "d": 378.9888437500049,
      "v": 71
    },
    {
      "midi": 62,
      "hit": false,
      "t": 47539.82864583355,
      "d": 392.286697916672,
      "v": 69
    },
    {
      "midi": 65,
      "hit": false,
      "t": 47858.97714583355,
      "d": 465.4248958333337,
      "v": 69
    },
    {
      "midi": 70,
      "hit": false,
      "t": 47858.97714583355,
      "d": 472.07382291666727,
      "v": 69
    },
    {
      "midi": 74,
      "hit": false,
      "t": 47858.97714583355,
      "d": 478.7227500000008,
      "v": 78
    },
    {
      "midi": 62,
      "hit": false,
      "t": 48184.77457291689,
      "d": 292.5527916666615,
      "v": 67
    },
    {
      "midi": 74,
      "hit": false,
      "t": 48503.923072916885,
      "d": 352.3931354166707,
      "v": 78
    },
    {
      "midi": 65,
      "hit": false,
      "t": 48503.923072916885,
      "d": 378.9888437500049,
      "v": 69
    },
    {
      "midi": 70,
      "hit": false,
      "t": 48503.923072916885,
      "d": 378.9888437500049,
      "v": 66
    },
    {
      "midi": 62,
      "hit": false,
      "t": 48829.72050000022,
      "d": 359.04206250000425,
      "v": 69
    },
    {
      "midi": 70,
      "hit": false,
      "t": 49142.22007291689,
      "d": 372.33991666667134,
      "v": 72
    },
    {
      "midi": 74,
      "hit": false,
      "t": 49142.22007291689,
      "d": 392.286697916672,
      "v": 84
    },
    {
      "midi": 65,
      "hit": false,
      "t": 49142.22007291689,
      "d": 398.93562500000553,
      "v": 70
    },
    {
      "midi": 62,
      "hit": false,
      "t": 49461.368572916894,
      "d": 272.60601041666814,
      "v": 70
    },
    {
      "midi": 74,
      "hit": false,
      "t": 49780.5170729169,
      "d": 345.74420833333716,
      "v": 90
    },
    {
      "midi": 70,
      "hit": false,
      "t": 49780.5170729169,
      "d": 359.04206250000425,
      "v": 76
    },
    {
      "midi": 65,
      "hit": false,
      "t": 49780.5170729169,
      "d": 372.33991666667134,
      "v": 77
    },
    {
      "midi": 62,
      "hit": false,
      "t": 50112.96342708357,
      "d": 365.6909895833378,
      "v": 78
    },
    {
      "midi": 65,
      "hit": false,
      "t": 50432.11192708357,
      "d": 472.07382291666727,
      "v": 76
    },
    {
      "midi": 70,
      "hit": false,
      "t": 50432.11192708357,
      "d": 472.07382291666727,
      "v": 75
    },
    {
      "midi": 74,
      "hit": false,
      "t": 50432.11192708357,
      "d": 472.07382291666727,
      "v": 87
    },
    {
      "midi": 62,
      "hit": false,
      "t": 50744.61150000024,
      "d": 365.6909895833305,
      "v": 78
    },
    {
      "midi": 65,
      "hit": false,
      "t": 51063.760000000235,
      "d": 339.0952812500036,
      "v": 74
    },
    {
      "midi": 69,
      "hit": false,
      "t": 51063.760000000235,
      "d": 339.0952812500036,
      "v": 73
    },
    {
      "midi": 72,
      "hit": false,
      "t": 51063.760000000235,
      "d": 339.0952812500036,
      "v": 83
    },
    {
      "midi": 60,
      "hit": false,
      "t": 51376.259572916904,
      "d": 345.74420833333716,
      "v": 62
    },
    {
      "midi": 72,
      "hit": false,
      "t": 51688.759145833574,
      "d": 339.0952812500036,
      "v": 65
    },
    {
      "midi": 69,
      "hit": false,
      "t": 51688.759145833574,
      "d": 345.74420833333716,
      "v": 60
    },
    {
      "midi": 65,
      "hit": false,
      "t": 51688.759145833574,
      "d": 352.3931354166707,
      "v": 63
    },
    {
      "midi": 60,
      "hit": false,
      "t": 52014.55657291691,
      "d": 325.7974270833365,
      "v": 62
    },
    {
      "midi": 72,
      "hit": false,
      "t": 52327.05614583358,
      "d": 332.44635416667006,
      "v": 69
    },
    {
      "midi": 69,
      "hit": false,
      "t": 52327.05614583358,
      "d": 339.0952812500036,
      "v": 63
    },
    {
      "midi": 65,
      "hit": false,
      "t": 52327.05614583358,
      "d": 352.3931354166707,
      "v": 69
    },
    {
      "midi": 60,
      "hit": false,
      "t": 52646.20464583358,
      "d": 339.0952812500036,
      "v": 70
    },
    {
      "midi": 72,
      "hit": false,
      "t": 52965.353145833586,
      "d": 339.0952812500036,
      "v": 69
    },
    {
      "midi": 65,
      "hit": false,
      "t": 52965.353145833586,
      "d": 352.3931354166707,
      "v": 69
    },
    {
      "midi": 69,
      "hit": false,
      "t": 52965.353145833586,
      "d": 352.3931354166707,
      "v": 67
    },
    {
      "midi": 60,
      "hit": false,
      "t": 53291.15057291692,
      "d": 332.44635416667006,
      "v": 68
    },
    {
      "midi": 69,
      "hit": false,
      "t": 53603.65014583359,
      "d": 339.0952812500036,
      "v": 67
    },
    {
      "midi": 72,
      "hit": false,
      "t": 53603.65014583359,
      "d": 339.0952812500036,
      "v": 69
    },
    {
      "midi": 65,
      "hit": false,
      "t": 53603.65014583359,
      "d": 352.3931354166707,
      "v": 69
    },
    {
      "midi": 60,
      "hit": false,
      "t": 53929.44757291693,
      "d": 332.44635416667006,
      "v": 64
    },
    {
      "midi": 72,
      "hit": false,
      "t": 54241.9471458336,
      "d": 345.74420833333716,
      "v": 69
    },
    {
      "midi": 69,
      "hit": false,
      "t": 54241.9471458336,
      "d": 352.3931354166707,
      "v": 64
    },
    {
      "midi": 65,
      "hit": false,
      "t": 54241.9471458336,
      "d": 359.04206250000425,
      "v": 67
    },
    {
      "midi": 60,
      "hit": false,
      "t": 54567.744572916934,
      "d": 319.14850000000297,
      "v": 61
    },
    {
      "midi": 69,
      "hit": false,
      "t": 54880.2441458336,
      "d": 339.0952812500036,
      "v": 60
    },
    {
      "midi": 72,
      "hit": false,
      "t": 54880.2441458336,
      "d": 339.0952812500036,
      "v": 67
    },
    {
      "midi": 65,
      "hit": false,
      "t": 54880.2441458336,
      "d": 352.3931354166707,
      "v": 61
    },
    {
      "midi": 60,
      "hit": false,
      "t": 55206.04157291694,
      "d": 332.44635416667006,
      "v": 67
    },
    {
      "midi": 65,
      "hit": false,
      "t": 55518.54114583361,
      "d": 392.286697916672,
      "v": 65
    },
    {
      "midi": 69,
      "hit": false,
      "t": 55525.19007291694,
      "d": 378.9888437500049,
      "v": 63
    },
    {
      "midi": 72,
      "hit": false,
      "t": 55525.19007291694,
      "d": 378.9888437500049,
      "v": 69
    },
    {
      "midi": 60,
      "hit": false,
      "t": 55844.338572916946,
      "d": 292.5527916666688,
      "v": 61
    },
    {
      "midi": 63,
      "hit": false,
      "t": 56176.784927083325,
      "d": 578.4566562499967,
      "v": 84
    },
    {
      "midi": 56,
      "hit": false,
      "t": 56183.43385416666,
      "d": 571.8077291666632,
      "v": 95
    },
    {
      "midi": 60,
      "hit": false,
      "t": 56183.43385416666,
      "d": 571.8077291666632,
      "v": 92
    },
    {
      "midi": 56,
      "hit": false,
      "t": 56815.08192708332,
      "d": 565.1588020833369,
      "v": 97
    },
    {
      "midi": 60,
      "hit": false,
      "t": 56815.08192708332,
      "d": 565.1588020833369,
      "v": 97
    },
    {
      "midi": 63,
      "hit": false,
      "t": 56815.08192708332,
      "d": 565.1588020833369,
      "v": 87
    },
    {
      "midi": 61,
      "hit": false,
      "t": 57440.08107291666,
      "d": 319.14850000000297,
      "v": 99
    },
    {
      "midi": 56,
      "hit": false,
      "t": 57440.08107291666,
      "d": 917.5519375000003,
      "v": 91
    },
    {
      "midi": 63,
      "hit": false,
      "t": 57440.08107291666,
      "d": 917.5519375000003,
      "v": 87
    },
    {
      "midi": 60,
      "hit": false,
      "t": 57759.229572916665,
      "d": 591.7545104166638,
      "v": 84
    },
    {
      "midi": 67,
      "hit": false,
      "t": 58404.1755,
      "d": 897.6051562499997,
      "v": 97
    },
    {
      "midi": 58,
      "hit": false,
      "t": 58404.1755,
      "d": 910.9030104166668,
      "v": 85
    },
    {
      "midi": 63,
      "hit": false,
      "t": 58404.1755,
      "d": 910.9030104166668,
      "v": 97
    },
    {
      "midi": 58,
      "hit": false,
      "t": 59368.26992708333,
      "d": 578.456656250004,
      "v": 87
    },
    {
      "midi": 63,
      "hit": false,
      "t": 59368.26992708333,
      "d": 578.456656250004,
      "v": 95
    },
    {
      "midi": 67,
      "hit": false,
      "t": 59374.918854166666,
      "d": 558.5098750000034,
      "v": 98
    },
    {
      "midi": 68,
      "hit": false,
      "t": 60006.56692708334,
      "d": 292.5527916666688,
      "v": 99
    },
    {
      "midi": 63,
      "hit": false,
      "t": 60006.56692708334,
      "d": 890.9562291666662,
      "v": 93
    },
    {
      "midi": 58,
      "hit": false,
      "t": 60006.56692708334,
      "d": 897.6051562499997,
      "v": 85
    },
    {
      "midi": 67,
      "hit": false,
      "t": 60325.71542708334,
      "d": 571.8077291666632,
      "v": 100
    },
    {
      "midi": 58,
      "hit": false,
      "t": 60957.36350000001,
      "d": 910.9030104166668,
      "v": 84
    },
    {
      "midi": 62,
      "hit": false,
      "t": 60964.01242708334,
      "d": 904.2540833333333,
      "v": 97
    },
    {
      "midi": 65,
      "hit": false,
      "t": 60964.01242708334,
      "d": 904.2540833333333,
      "v": 87
    },
    {
      "midi": 62,
      "hit": false,
      "t": 61921.45792708334,
      "d": 551.8609479166698,
      "v": 98
    },
    {
      "midi": 58,
      "hit": false,
      "t": 61921.45792708334,
      "d": 571.8077291666705,
      "v": 91
    },
    {
      "midi": 65,
      "hit": false,
      "t": 61921.45792708334,
      "d": 571.8077291666705,
      "v": 84
    },
    {
      "midi": 63,
      "hit": false,
      "t": 62553.106000000014,
      "d": 312.4995729166694,
      "v": 97
    },
    {
      "midi": 58,
      "hit": false,
      "t": 62559.75492708335,
      "d": 791.2223229166702,
      "v": 85
    },
    {
      "midi": 65,
      "hit": false,
      "t": 62559.75492708335,
      "d": 791.2223229166702,
      "v": 86
    },
    {
      "midi": 62,
      "hit": false,
      "t": 62865.605572916684,
      "d": 472.07382291666727,
      "v": 87
    },
    {
      "midi": 57,
      "hit": false,
      "t": 63503.90257291668,
      "d": 598.4034374999974,
      "v": 83
    },
    {
      "midi": 60,
      "hit": false,
      "t": 63503.90257291668,
      "d": 598.4034374999974,
      "v": 95
    },
    {
      "midi": 65,
      "hit": false,
      "t": 63503.90257291668,
      "d": 611.7012916666645,
      "v": 81
    },
    {
      "midi": 65,
      "hit": false,
      "t": 64135.55064583335,
      "d": 299.2017187500023,
      "v": 62
    },
    {
      "midi": 57,
      "hit": false,
      "t": 64142.19957291668,
      "d": 292.5527916666688,
      "v": 61
    },
    {
      "midi": 60,
      "hit": false,
      "t": 64142.19957291668,
      "d": 292.5527916666688,
      "v": 73
    },
    {
      "midi": 65,
      "hit": false,
      "t": 64454.69914583335,
      "d": 605.0523645833309,
      "v": 84
    },
    {
      "midi": 57,
      "hit": false,
      "t": 64454.69914583335,
      "d": 611.7012916666645,
      "v": 87
    },
    {
      "midi": 60,
      "hit": false,
      "t": 64454.69914583335,
      "d": 611.7012916666645,
      "v": 92
    },
    {
      "midi": 60,
      "hit": false,
      "t": 65106.294000000016,
      "d": 292.5527916666688,
      "v": 50
    },
    {
      "midi": 65,
      "hit": false,
      "t": 65106.294000000016,
      "d": 292.5527916666688,
      "v": 51
    },
    {
      "midi": 57,
      "hit": false,
      "t": 65106.294000000016,
      "d": 299.2017187500023,
      "v": 54
    },
    {
      "midi": 65,
      "hit": false,
      "t": 65425.44250000002,
      "d": 285.90386458333523,
      "v": 68
    },
    {
      "midi": 60,
      "hit": false,
      "t": 65425.44250000002,
      "d": 292.5527916666615,
      "v": 68
    },
    {
      "midi": 57,
      "hit": false,
      "t": 65432.09142708335,
      "d": 279.2549375000017,
      "v": 65
    },
    {
      "midi": 65,
      "hit": false,
      "t": 65737.94207291667,
      "d": 299.2017187500023,
      "v": 88
    },
    {
      "midi": 57,
      "hit": false,
      "t": 65737.94207291667,
      "d": 305.8506458333286,
      "v": 84
    },
    {
      "midi": 60,
      "hit": false,
      "t": 65737.94207291667,
      "d": 305.8506458333286,
      "v": 94
    },
    {
      "midi": 60,
      "hit": false,
      "t": 66063.7395,
      "d": 285.9038645833207,
      "v": 80
    },
    {
      "midi": 65,
      "hit": false,
      "t": 66063.7395,
      "d": 285.9038645833207,
      "v": 78
    },
    {
      "midi": 57,
      "hit": false,
      "t": 66070.38842708332,
      "d": 272.60601041666814,
      "v": 75
    },
    {
      "midi": 56,
      "hit": false,
      "t": 66382.88799999998,
      "d": 571.8077291666559,
      "v": 95
    },
    {
      "midi": 60,
      "hit": false,
      "t": 66382.88799999998,
      "d": 571.8077291666559,
      "v": 92
    },
    {
      "midi": 63,
      "hit": false,
      "t": 66389.5369270833,
      "d": 578.4566562499967,
      "v": 84
    },
    {
      "midi": 56,
      "hit": false,
      "t": 67027.8339270833,
      "d": 565.1588020833296,
      "v": 97
    },
    {
      "midi": 60,
      "hit": false,
      "t": 67027.8339270833,
      "d": 565.1588020833296,
      "v": 97
    },
    {
      "midi": 63,
      "hit": false,
      "t": 67027.8339270833,
      "d": 565.1588020833296,
      "v": 87
    },
    {
      "midi": 61,
      "hit": false,
      "t": 67652.83307291662,
      "d": 319.1484999999957,
      "v": 99
    },
    {
      "midi": 56,
      "hit": false,
      "t": 67652.83307291662,
      "d": 917.5519374999858,
      "v": 91
    },
    {
      "midi": 63,
      "hit": false,
      "t": 67652.83307291662,
      "d": 917.5519374999858,
      "v": 87
    },
    {
      "midi": 60,
      "hit": false,
      "t": 67971.98157291661,
      "d": 591.7545104166638,
      "v": 84
    },
    {
      "midi": 67,
      "hit": false,
      "t": 68616.92749999993,
      "d": 897.605156250007,
      "v": 97
    },
    {
      "midi": 58,
      "hit": false,
      "t": 68616.92749999993,
      "d": 910.9030104166741,
      "v": 85
    },
    {
      "midi": 63,
      "hit": false,
      "t": 68616.92749999993,
      "d": 910.9030104166741,
      "v": 97
    },
    {
      "midi": 58,
      "hit": false,
      "t": 69581.02192708327,
      "d": 578.4566562499967,
      "v": 87
    },
    {
      "midi": 63,
      "hit": false,
      "t": 69581.02192708327,
      "d": 578.4566562499967,
      "v": 95
    },
    {
      "midi": 67,
      "hit": false,
      "t": 69587.6708541666,
      "d": 558.5098750000034,
      "v": 98
    },
    {
      "midi": 68,
      "hit": false,
      "t": 70219.31892708327,
      "d": 292.5527916666615,
      "v": 99
    },
    {
      "midi": 63,
      "hit": false,
      "t": 70219.31892708327,
      "d": 890.9562291666662,
      "v": 93
    },
    {
      "midi": 58,
      "hit": false,
      "t": 70219.31892708327,
      "d": 897.6051562499924,
      "v": 85
    },
    {
      "midi": 67,
      "hit": false,
      "t": 70538.46742708326,
      "d": 571.8077291666705,
      "v": 100
    },
    {
      "midi": 58,
      "hit": false,
      "t": 71170.11549999993,
      "d": 910.9030104166595,
      "v": 84
    },
    {
      "midi": 62,
      "hit": false,
      "t": 71176.76442708325,
      "d": 904.2540833333333,
      "v": 97
    },
    {
      "midi": 65,
      "hit": false,
      "t": 71176.76442708325,
      "d": 904.2540833333333,
      "v": 87
    },
    {
      "midi": 62,
      "hit": false,
      "t": 72134.20992708326,
      "d": 551.8609479166626,
      "v": 98
    },
    {
      "midi": 58,
      "hit": false,
      "t": 72134.20992708326,
      "d": 571.8077291666559,
      "v": 91
    },
    {
      "midi": 65,
      "hit": false,
      "t": 72134.20992708326,
      "d": 571.8077291666559,
      "v": 84
    },
    {
      "midi": 63,
      "hit": false,
      "t": 72765.8579999999,
      "d": 312.49957291665487,
      "v": 97
    },
    {
      "midi": 58,
      "hit": false,
      "t": 72772.50692708323,
      "d": 791.2223229166557,
      "v": 85
    },
    {
      "midi": 65,
      "hit": false,
      "t": 72772.50692708323,
      "d": 791.2223229166557,
      "v": 86
    },
    {
      "midi": 62,
      "hit": false,
      "t": 73078.35757291656,
      "d": 472.07382291666,
      "v": 87
    },
    {
      "midi": 57,
      "hit": false,
      "t": 73716.65457291655,
      "d": 2386.9648229166633,
      "v": 83
    },
    {
      "midi": 60,
      "hit": false,
      "t": 73716.65457291655,
      "d": 2386.9648229166633,
      "v": 95
    },
    {
      "midi": 65,
      "hit": false,
      "t": 73716.65457291655,
      "d": 2386.9648229166633,
      "v": 81
    },
    {
      "midi": 58,
      "hit": false,
      "t": 76276.49149999989,
      "d": 2739.357958333334,
      "v": 93
    },
    {
      "midi": 60,
      "hit": false,
      "t": 76276.49149999989,
      "d": 2746.00688541666,
      "v": 94
    },
    {
      "midi": 65,
      "hit": false,
      "t": 76276.49149999989,
      "d": 2746.00688541666,
      "v": 90
    },
    {
      "midi": 58,
      "hit": false,
      "t": 79148.82799999988,
      "d": 2400.2626770833303,
      "v": 84
    },
    {
      "midi": 60,
      "hit": false,
      "t": 79148.82799999988,
      "d": 2400.2626770833303,
      "v": 94
    },
    {
      "midi": 65,
      "hit": false,
      "t": 79148.82799999988,
      "d": 2420.2094583333237,
      "v": 87
    },
    {
      "midi": 72,
      "hit": false,
      "t": 81702.01600000028,
      "d": 398.93562499999825,
      "v": 74
    },
    {
      "midi": 69,
      "hit": false,
      "t": 81702.01600000028,
      "d": 405.5845520833245,
      "v": 71
    },
    {
      "midi": 65,
      "hit": false,
      "t": 81702.01600000028,
      "d": 425.5313333333179,
      "v": 72
    },
    {
      "midi": 60,
      "hit": false,
      "t": 82027.81342708362,
      "d": 405.58455208331,
      "v": 63
    },
    {
      "midi": 72,
      "hit": false,
      "t": 82333.66407291693,
      "d": 359.042062499997,
      "v": 71
    },
    {
      "midi": 65,
      "hit": false,
      "t": 82333.66407291693,
      "d": 398.93562499999825,
      "v": 65
    },
    {
      "midi": 69,
      "hit": false,
      "t": 82333.66407291693,
      "d": 398.93562499999825,
      "v": 58
    },
    {
      "midi": 60,
      "hit": false,
      "t": 82652.81257291693,
      "d": 392.28669791665743,
      "v": 64
    },
    {
      "midi": 72,
      "hit": false,
      "t": 82971.96107291692,
      "d": 352.39313541665615,
      "v": 76
    },
    {
      "midi": 69,
      "hit": false,
      "t": 82971.96107291692,
      "d": 385.6377708333166,
      "v": 71
    },
    {
      "midi": 65,
      "hit": false,
      "t": 82971.96107291692,
      "d": 398.9356249999837,
      "v": 69
    },
    {
      "midi": 60,
      "hit": false,
      "t": 83297.75850000024,
      "d": 412.2334791666508,
      "v": 67
    },
    {
      "midi": 65,
      "hit": false,
      "t": 83610.2580729169,
      "d": 352.3931354166416,
      "v": 69
    },
    {
      "midi": 69,
      "hit": false,
      "t": 83610.2580729169,
      "d": 372.33991666663496,
      "v": 71
    },
    {
      "midi": 72,
      "hit": false,
      "t": 83623.55592708357,
      "d": 332.44635416664823,
      "v": 75
    },
    {
      "midi": 60,
      "hit": false,
      "t": 83936.05550000022,
      "d": 265.95708333331277,
      "v": 64
    },
    {
      "midi": 72,
      "hit": false,
      "t": 84255.2040000002,
      "d": 378.98884374999034,
      "v": 69
    },
    {
      "midi": 67,
      "hit": false,
      "t": 84261.85292708353,
      "d": 378.98884374999034,
      "v": 72
    },
    {
      "midi": 64,
      "hit": false,
      "t": 84261.85292708353,
      "d": 392.28669791665743,
      "v": 64
    },
    {
      "midi": 60,
      "hit": false,
      "t": 84581.00142708352,
      "d": 359.042062499997,
      "v": 61
    },
    {
      "midi": 67,
      "hit": false,
      "t": 84900.14992708352,
      "d": 345.7442083333299,
      "v": 77
    },
    {
      "midi": 72,
      "hit": false,
      "t": 84900.14992708352,
      "d": 345.7442083333299,
      "v": 70
    },
    {
      "midi": 64,
      "hit": false,
      "t": 84900.14992708352,
      "d": 352.39313541665615,
      "v": 66
    },
    {
      "midi": 60,
      "hit": false,
      "t": 85219.29842708351,
      "d": 319.1484999999957,
      "v": 67
    },
    {
      "midi": 67,
      "hit": false,
      "t": 85525.14907291684,
      "d": 332.4463541666628,
      "v": 78
    },
    {
      "midi": 64,
      "hit": false,
      "t": 85525.14907291684,
      "d": 339.09528124998906,
      "v": 72
    },
    {
      "midi": 72,
      "hit": false,
      "t": 85525.14907291684,
      "d": 352.39313541665615,
      "v": 80
    },
    {
      "midi": 60,
      "hit": false,
      "t": 85857.5954270835,
      "d": 332.4463541666628,
      "v": 71
    },
    {
      "midi": 67,
      "hit": false,
      "t": 86163.44607291683,
      "d": 319.1484999999957,
      "v": 81
    },
    {
      "midi": 72,
      "hit": false,
      "t": 86163.44607291683,
      "d": 319.1484999999957,
      "v": 78
    },
    {
      "midi": 64,
      "hit": false,
      "t": 86163.44607291683,
      "d": 345.7442083333299,
      "v": 78
    },
    {
      "midi": 60,
      "hit": false,
      "t": 86482.59457291683,
      "d": 299.2017187500023,
      "v": 76
    },
    {
      "midi": 72,
      "hit": false,
      "t": 86801.74307291683,
      "d": 345.7442083333299,
      "v": 78
    },
    {
      "midi": 65,
      "hit": false,
      "t": 86801.74307291683,
      "d": 365.69098958332324,
      "v": 65
    },
    {
      "midi": 69,
      "hit": false,
      "t": 86801.74307291683,
      "d": 365.69098958332324,
      "v": 77
    },
    {
      "midi": 60,
      "hit": false,
      "t": 87120.89157291682,
      "d": 359.042062499997,
      "v": 69
    },
    {
      "midi": 72,
      "hit": false,
      "t": 87440.04007291682,
      "d": 339.09528124998906,
      "v": 71
    },
    {
      "midi": 69,
      "hit": false,
      "t": 87440.04007291682,
      "d": 345.7442083333153,
      "v": 77
    },
    {
      "midi": 65,
      "hit": false,
      "t": 87440.04007291682,
      "d": 372.3399166666495,
      "v": 73
    },
    {
      "midi": 60,
      "hit": false,
      "t": 87759.18857291681,
      "d": 325.79742708332196,
      "v": 71
    },
    {
      "midi": 72,
      "hit": false,
      "t": 88071.68814583347,
      "d": 312.4995729166694,
      "v": 76
    },
    {
      "midi": 69,
      "hit": false,
      "t": 88071.68814583347,
      "d": 345.7442083333299,
      "v": 78
    },
    {
      "midi": 65,
      "hit": false,
      "t": 88071.68814583347,
      "d": 378.98884374999034,
      "v": 75
    },
    {
      "midi": 60,
      "hit": false,
      "t": 88390.83664583346,
      "d": 359.042062499997,
      "v": 71
    },
    {
      "midi": 65,
      "hit": false,
      "t": 88709.98514583346,
      "d": 472.07382291666,
      "v": 78
    },
    {
      "midi": 69,
      "hit": false,
      "t": 88709.98514583346,
      "d": 472.07382291666,
      "v": 81
    },
    {
      "midi": 72,
      "hit": false,
      "t": 88709.98514583346,
      "d": 472.07382291666,
      "v": 78
    },
    {
      "midi": 60,
      "hit": false,
      "t": 89029.13364583346,
      "d": 292.5527916666615,
      "v": 71
    },
    {
      "midi": 69,
      "hit": false,
      "t": 89341.63321875011,
      "d": 359.04206249996787,
      "v": 78
    },
    {
      "midi": 72,
      "hit": false,
      "t": 89348.28214583344,
      "d": 325.79742708332196,
      "v": 69
    },
    {
      "midi": 64,
      "hit": false,
      "t": 89348.28214583344,
      "d": 332.44635416664823,
      "v": 72
    },
    {
      "midi": 60,
      "hit": false,
      "t": 89667.43064583343,
      "d": 359.04206249996787,
      "v": 71
    },
    {
      "midi": 72,
      "hit": false,
      "t": 89979.93021875007,
      "d": 339.09528124998906,
      "v": 72
    },
    {
      "midi": 64,
      "hit": false,
      "t": 89979.93021875007,
      "d": 345.7442083333153,
      "v": 71
    },
    {
      "midi": 69,
      "hit": false,
      "t": 89979.93021875007,
      "d": 365.6909895833087,
      "v": 73
    },
    {
      "midi": 60,
      "hit": false,
      "t": 90305.7276458334,
      "d": 372.3399166666495,
      "v": 69
    },
    {
      "midi": 72,
      "hit": false,
      "t": 90624.87614583338,
      "d": 319.1484999999957,
      "v": 71
    },
    {
      "midi": 64,
      "hit": false,
      "t": 90624.87614583338,
      "d": 345.7442083333299,
      "v": 71
    },
    {
      "midi": 69,
      "hit": false,
      "t": 90624.87614583338,
      "d": 345.7442083333299,
      "v": 76
    },
    {
      "midi": 60,
      "hit": false,
      "t": 90944.02464583337,
      "d": 359.042062499997,
      "v": 78
    },
    {
      "midi": 72,
      "hit": false,
      "t": 91263.17314583337,
      "d": 305.8506458333286,
      "v": 78
    },
    {
      "midi": 69,
      "hit": false,
      "t": 91263.17314583337,
      "d": 319.1484999999957,
      "v": 83
    },
    {
      "midi": 64,
      "hit": false,
      "t": 91263.17314583337,
      "d": 339.09528124998906,
      "v": 81
    },
    {
      "midi": 60,
      "hit": false,
      "t": 91582.32164583336,
      "d": 239.36137499999313,
      "v": 78
    },
    {
      "midi": 70,
      "hit": false,
      "t": 91914.76800000003,
      "d": 319.1484999999957,
      "v": 73
    },
    {
      "midi": 74,
      "hit": false,
      "t": 91914.76800000003,
      "d": 319.1484999999957,
      "v": 75
    },
    {
      "midi": 65,
      "hit": false,
      "t": 91914.76800000003,
      "d": 345.7442083333299,
      "v": 69
    },
    {
      "midi": 62,
      "hit": false,
      "t": 92220.61864583335,
      "d": 359.042062499997,
      "v": 67
    },
    {
      "midi": 65,
      "hit": false,
      "t": 92533.11821875002,
      "d": 385.6377708333166,
      "v": 69
    },
    {
      "midi": 74,
      "hit": false,
      "t": 92539.76714583335,
      "d": 345.7442083333299,
      "v": 80
    },
    {
      "midi": 70,
      "hit": false,
      "t": 92539.76714583335,
      "d": 352.39313541665615,
      "v": 70
    },
    {
      "midi": 62,
      "hit": false,
      "t": 92858.91564583335,
      "d": 325.79742708332196,
      "v": 69
    },
    {
      "midi": 74,
      "hit": false,
      "t": 93178.06414583334,
      "d": 339.09528124998906,
      "v": 82
    },
    {
      "midi": 70,
      "hit": false,
      "t": 93178.06414583334,
      "d": 345.7442083333153,
      "v": 71
    },
    {
      "midi": 65,
      "hit": false,
      "t": 93178.06414583334,
      "d": 378.9888437499758,
      "v": 71
    },
    {
      "midi": 62,
      "hit": false,
      "t": 93497.21264583334,
      "d": 392.2866979166429,
      "v": 69
    },
    {
      "midi": 65,
      "hit": false,
      "t": 93816.36114583332,
      "d": 465.42489583331917,
      "v": 69
    },
    {
      "midi": 70,
      "hit": false,
      "t": 93816.36114583332,
      "d": 472.07382291664544,
      "v": 69
    },
    {
      "midi": 74,
      "hit": false,
      "t": 93816.36114583332,
      "d": 478.7227499999717,
      "v": 78
    },
    {
      "midi": 62,
      "hit": false,
      "t": 94142.15857291664,
      "d": 292.55279166664695,
      "v": 67
    },
    {
      "midi": 74,
      "hit": false,
      "t": 94461.30707291662,
      "d": 352.3931354166707,
      "v": 78
    },
    {
      "midi": 65,
      "hit": false,
      "t": 94461.30707291662,
      "d": 378.9888437500049,
      "v": 69
    },
    {
      "midi": 70,
      "hit": false,
      "t": 94461.30707291662,
      "d": 378.9888437500049,
      "v": 66
    },
    {
      "midi": 62,
      "hit": false,
      "t": 94787.10449999996,
      "d": 359.042062499997,
      "v": 69
    },
    {
      "midi": 70,
      "hit": false,
      "t": 95099.60407291663,
      "d": 372.33991666666407,
      "v": 72
    },
    {
      "midi": 74,
      "hit": false,
      "t": 95099.60407291663,
      "d": 392.28669791665743,
      "v": 84
    },
    {
      "midi": 65,
      "hit": false,
      "t": 95099.60407291663,
      "d": 398.9356249999837,
      "v": 70
    },
    {
      "midi": 62,
      "hit": false,
      "t": 95418.75257291662,
      "d": 272.6060104166536,
      "v": 70
    },
    {
      "midi": 74,
      "hit": false,
      "t": 95737.9010729166,
      "d": 345.7442083333299,
      "v": 90
    },
    {
      "midi": 70,
      "hit": false,
      "t": 95737.9010729166,
      "d": 359.042062499997,
      "v": 76
    },
    {
      "midi": 65,
      "hit": false,
      "t": 95737.9010729166,
      "d": 372.33991666666407,
      "v": 77
    },
    {
      "midi": 62,
      "hit": false,
      "t": 96070.34742708327,
      "d": 365.69098958332324,
      "v": 78
    },
    {
      "midi": 65,
      "hit": false,
      "t": 96389.49592708326,
      "d": 472.07382291666,
      "v": 76
    },
    {
      "midi": 70,
      "hit": false,
      "t": 96389.49592708326,
      "d": 472.07382291666,
      "v": 75
    },
    {
      "midi": 74,
      "hit": false,
      "t": 96389.49592708326,
      "d": 472.07382291666,
      "v": 87
    },
    {
      "midi": 62,
      "hit": false,
      "t": 96701.99549999992,
      "d": 365.6909895833378,
      "v": 78
    },
    {
      "midi": 65,
      "hit": false,
      "t": 97021.14399999993,
      "d": 339.09528124998906,
      "v": 74
    },
    {
      "midi": 69,
      "hit": false,
      "t": 97021.14399999993,
      "d": 339.09528124998906,
      "v": 73
    },
    {
      "midi": 72,
      "hit": false,
      "t": 97021.14399999993,
      "d": 339.09528124998906,
      "v": 83
    },
    {
      "midi": 60,
      "hit": false,
      "t": 97333.64357291658,
      "d": 345.7442083333299,
      "v": 62
    },
    {
      "midi": 72,
      "hit": false,
      "t": 97646.14314583325,
      "d": 339.09528124998906,
      "v": 65
    },
    {
      "midi": 69,
      "hit": false,
      "t": 97646.14314583325,
      "d": 345.7442083333153,
      "v": 60
    },
    {
      "midi": 65,
      "hit": false,
      "t": 97646.14314583325,
      "d": 352.3931354166416,
      "v": 63
    },
    {
      "midi": 60,
      "hit": false,
      "t": 97971.94057291657,
      "d": 325.79742708332196,
      "v": 62
    },
    {
      "midi": 72,
      "hit": false,
      "t": 98284.44014583323,
      "d": 332.4463541666628,
      "v": 69
    },
    {
      "midi": 69,
      "hit": false,
      "t": 98284.44014583323,
      "d": 339.09528124998906,
      "v": 63
    },
    {
      "midi": 65,
      "hit": false,
      "t": 98284.44014583323,
      "d": 352.39313541665615,
      "v": 69
    },
    {
      "midi": 60,
      "hit": false,
      "t": 98603.58864583322,
      "d": 339.09528124998906,
      "v": 70
    },
    {
      "midi": 72,
      "hit": false,
      "t": 98922.73714583322,
      "d": 339.09528124998906,
      "v": 69
    },
    {
      "midi": 65,
      "hit": false,
      "t": 98922.73714583322,
      "d": 352.39313541665615,
      "v": 69
    },
    {
      "midi": 69,
      "hit": false,
      "t": 98922.73714583322,
      "d": 352.39313541665615,
      "v": 67
    },
    {
      "midi": 60,
      "hit": false,
      "t": 99248.53457291654,
      "d": 332.4463541666628,
      "v": 68
    },
    {
      "midi": 69,
      "hit": false,
      "t": 99561.03414583321,
      "d": 339.09528124998906,
      "v": 67
    },
    {
      "midi": 72,
      "hit": false,
      "t": 99561.03414583321,
      "d": 339.09528124998906,
      "v": 69
    },
    {
      "midi": 65,
      "hit": false,
      "t": 99561.03414583321,
      "d": 352.39313541665615,
      "v": 69
    },
    {
      "midi": 60,
      "hit": false,
      "t": 99886.83157291653,
      "d": 332.4463541666628,
      "v": 64
    },
    {
      "midi": 72,
      "hit": false,
      "t": 100199.3311458332,
      "d": 345.7442083333153,
      "v": 69
    },
    {
      "midi": 69,
      "hit": false,
      "t": 100199.3311458332,
      "d": 352.3931354166416,
      "v": 64
    },
    {
      "midi": 65,
      "hit": false,
      "t": 100199.3311458332,
      "d": 359.04206249996787,
      "v": 67
    },
    {
      "midi": 60,
      "hit": false,
      "t": 100525.12857291652,
      "d": 319.1484999999666,
      "v": 61
    },
    {
      "midi": 69,
      "hit": false,
      "t": 100837.62814583317,
      "d": 339.09528124998906,
      "v": 60
    },
    {
      "midi": 72,
      "hit": false,
      "t": 100837.62814583317,
      "d": 339.09528124998906,
      "v": 67
    },
    {
      "midi": 65,
      "hit": false,
      "t": 100837.62814583317,
      "d": 352.39313541665615,
      "v": 61
    },
    {
      "midi": 60,
      "hit": false,
      "t": 101163.42557291649,
      "d": 332.4463541666628,
      "v": 67
    },
    {
      "midi": 65,
      "hit": false,
      "t": 101475.92514583316,
      "d": 392.2866979166429,
      "v": 65
    },
    {
      "midi": 69,
      "hit": false,
      "t": 101482.57407291648,
      "d": 378.98884374999034,
      "v": 63
    },
    {
      "midi": 72,
      "hit": false,
      "t": 101482.57407291648,
      "d": 378.98884374999034,
      "v": 69
    },
    {
      "midi": 60,
      "hit": false,
      "t": 101801.72257291648,
      "d": 292.55279166664695,
      "v": 61
    },
    {
      "midi": 72,
      "hit": false,
      "t": 102127.51999999979,
      "d": 398.93562499999825,
      "v": 74
    },
    {
      "midi": 69,
      "hit": false,
      "t": 102127.51999999979,
      "d": 405.5845520833245,
      "v": 71
    },
    {
      "midi": 65,
      "hit": false,
      "t": 102127.51999999979,
      "d": 425.5313333333179,
      "v": 72
    },
    {
      "midi": 60,
      "hit": false,
      "t": 102453.31742708312,
      "d": 405.58455208331,
      "v": 63
    },
    {
      "midi": 72,
      "hit": false,
      "t": 102759.16807291644,
      "d": 359.042062499997,
      "v": 71
    },
    {
      "midi": 65,
      "hit": false,
      "t": 102759.16807291644,
      "d": 398.93562499999825,
      "v": 65
    },
    {
      "midi": 69,
      "hit": false,
      "t": 102759.16807291644,
      "d": 398.93562499999825,
      "v": 58
    },
    {
      "midi": 60,
      "hit": false,
      "t": 103078.31657291643,
      "d": 392.28669791665743,
      "v": 64
    },
    {
      "midi": 72,
      "hit": false,
      "t": 103397.46507291643,
      "d": 352.39313541665615,
      "v": 76
    },
    {
      "midi": 69,
      "hit": false,
      "t": 103397.46507291643,
      "d": 385.6377708333166,
      "v": 71
    },
    {
      "midi": 65,
      "hit": false,
      "t": 103397.46507291643,
      "d": 398.9356249999837,
      "v": 69
    },
    {
      "midi": 60,
      "hit": false,
      "t": 103723.26249999975,
      "d": 412.2334791666508,
      "v": 67
    },
    {
      "midi": 65,
      "hit": false,
      "t": 104035.7620729164,
      "d": 352.39313541665615,
      "v": 69
    },
    {
      "midi": 69,
      "hit": false,
      "t": 104035.7620729164,
      "d": 372.3399166666495,
      "v": 71
    },
    {
      "midi": 72,
      "hit": false,
      "t": 104049.05992708307,
      "d": 332.4463541666628,
      "v": 75
    },
    {
      "midi": 60,
      "hit": false,
      "t": 104361.55949999974,
      "d": 265.95708333331277,
      "v": 64
    },
    {
      "midi": 72,
      "hit": false,
      "t": 104680.70799999972,
      "d": 378.98884374999034,
      "v": 69
    },
    {
      "midi": 67,
      "hit": false,
      "t": 104687.35692708305,
      "d": 378.98884374999034,
      "v": 72
    },
    {
      "midi": 64,
      "hit": false,
      "t": 104687.35692708305,
      "d": 392.28669791665743,
      "v": 64
    },
    {
      "midi": 60,
      "hit": false,
      "t": 105006.50542708304,
      "d": 359.042062499997,
      "v": 61
    },
    {
      "midi": 67,
      "hit": false,
      "t": 105325.65392708304,
      "d": 345.7442083333299,
      "v": 77
    },
    {
      "midi": 72,
      "hit": false,
      "t": 105325.65392708304,
      "d": 345.7442083333299,
      "v": 70
    },
    {
      "midi": 64,
      "hit": false,
      "t": 105325.65392708304,
      "d": 352.39313541665615,
      "v": 66
    },
    {
      "midi": 60,
      "hit": false,
      "t": 105644.80242708304,
      "d": 319.1484999999957,
      "v": 67
    },
    {
      "midi": 67,
      "hit": false,
      "t": 105950.65307291636,
      "d": 332.4463541666628,
      "v": 78
    },
    {
      "midi": 64,
      "hit": false,
      "t": 105950.65307291636,
      "d": 339.09528124998906,
      "v": 72
    },
    {
      "midi": 72,
      "hit": false,
      "t": 105950.65307291636,
      "d": 352.39313541665615,
      "v": 80
    },
    {
      "midi": 60,
      "hit": false,
      "t": 106283.09942708303,
      "d": 332.4463541666628,
      "v": 71
    },
    {
      "midi": 67,
      "hit": false,
      "t": 106588.95007291636,
      "d": 319.1484999999957,
      "v": 81
    },
    {
      "midi": 72,
      "hit": false,
      "t": 106588.95007291636,
      "d": 319.1484999999957,
      "v": 78
    },
    {
      "midi": 64,
      "hit": false,
      "t": 106588.95007291636,
      "d": 345.7442083333299,
      "v": 78
    },
    {
      "midi": 60,
      "hit": false,
      "t": 106908.09857291635,
      "d": 299.2017187500023,
      "v": 76
    },
    {
      "midi": 72,
      "hit": false,
      "t": 107227.24707291635,
      "d": 345.7442083333299,
      "v": 78
    },
    {
      "midi": 65,
      "hit": false,
      "t": 107227.24707291635,
      "d": 365.69098958332324,
      "v": 65
    },
    {
      "midi": 69,
      "hit": false,
      "t": 107227.24707291635,
      "d": 365.69098958332324,
      "v": 77
    },
    {
      "midi": 60,
      "hit": false,
      "t": 107546.39557291634,
      "d": 359.042062499997,
      "v": 69
    },
    {
      "midi": 72,
      "hit": false,
      "t": 107865.54407291634,
      "d": 339.09528124998906,
      "v": 71
    },
    {
      "midi": 69,
      "hit": false,
      "t": 107865.54407291634,
      "d": 345.7442083333153,
      "v": 77
    },
    {
      "midi": 65,
      "hit": false,
      "t": 107865.54407291634,
      "d": 372.3399166666495,
      "v": 73
    },
    {
      "midi": 60,
      "hit": false,
      "t": 108184.69257291633,
      "d": 325.79742708332196,
      "v": 71
    },
    {
      "midi": 72,
      "hit": false,
      "t": 108497.19214583299,
      "d": 312.4995729166694,
      "v": 76
    },
    {
      "midi": 69,
      "hit": false,
      "t": 108497.19214583299,
      "d": 345.7442083333299,
      "v": 78
    },
    {
      "midi": 65,
      "hit": false,
      "t": 108497.19214583299,
      "d": 378.98884374999034,
      "v": 75
    },
    {
      "midi": 60,
      "hit": false,
      "t": 108816.34064583298,
      "d": 359.042062499997,
      "v": 71
    },
    {
      "midi": 65,
      "hit": false,
      "t": 109135.48914583298,
      "d": 472.07382291666,
      "v": 78
    },
    {
      "midi": 69,
      "hit": false,
      "t": 109135.48914583298,
      "d": 472.07382291666,
      "v": 81
    },
    {
      "midi": 72,
      "hit": false,
      "t": 109135.48914583298,
      "d": 472.07382291666,
      "v": 78
    },
    {
      "midi": 60,
      "hit": false,
      "t": 109454.63764583298,
      "d": 292.5527916666615,
      "v": 71
    },
    {
      "midi": 69,
      "hit": false,
      "t": 109767.13721874963,
      "d": 359.04206249996787,
      "v": 78
    },
    {
      "midi": 72,
      "hit": false,
      "t": 109773.78614583296,
      "d": 325.79742708332196,
      "v": 69
    },
    {
      "midi": 64,
      "hit": false,
      "t": 109773.78614583296,
      "d": 332.44635416664823,
      "v": 72
    },
    {
      "midi": 60,
      "hit": false,
      "t": 110092.93464583295,
      "d": 359.04206249996787,
      "v": 71
    },
    {
      "midi": 72,
      "hit": false,
      "t": 110405.4342187496,
      "d": 339.09528124998906,
      "v": 72
    },
    {
      "midi": 64,
      "hit": false,
      "t": 110405.4342187496,
      "d": 345.7442083333153,
      "v": 71
    },
    {
      "midi": 69,
      "hit": false,
      "t": 110405.4342187496,
      "d": 365.6909895833087,
      "v": 73
    },
    {
      "midi": 60,
      "hit": false,
      "t": 110731.23164583292,
      "d": 372.3399166666495,
      "v": 69
    },
    {
      "midi": 72,
      "hit": false,
      "t": 111050.3801458329,
      "d": 319.1484999999957,
      "v": 71
    },
    {
      "midi": 64,
      "hit": false,
      "t": 111050.3801458329,
      "d": 345.7442083333299,
      "v": 71
    },
    {
      "midi": 69,
      "hit": false,
      "t": 111050.3801458329,
      "d": 345.7442083333299,
      "v": 76
    },
    {
      "midi": 60,
      "hit": false,
      "t": 111369.52864583289,
      "d": 359.042062499997,
      "v": 78
    },
    {
      "midi": 72,
      "hit": false,
      "t": 111688.67714583289,
      "d": 305.8506458333286,
      "v": 78
    },
    {
      "midi": 69,
      "hit": false,
      "t": 111688.67714583289,
      "d": 319.1484999999957,
      "v": 83
    },
    {
      "midi": 64,
      "hit": false,
      "t": 111688.67714583289,
      "d": 339.09528124998906,
      "v": 81
    },
    {
      "midi": 60,
      "hit": false,
      "t": 112007.82564583288,
      "d": 239.36137499999313,
      "v": 78
    },
    {
      "midi": 70,
      "hit": false,
      "t": 112340.27199999955,
      "d": 319.1484999999957,
      "v": 73
    },
    {
      "midi": 74,
      "hit": false,
      "t": 112340.27199999955,
      "d": 319.1484999999957,
      "v": 75
    },
    {
      "midi": 65,
      "hit": false,
      "t": 112340.27199999955,
      "d": 345.7442083333299,
      "v": 69
    },
    {
      "midi": 62,
      "hit": false,
      "t": 112646.12264583287,
      "d": 359.042062499997,
      "v": 67
    },
    {
      "midi": 65,
      "hit": false,
      "t": 112958.62221874954,
      "d": 385.6377708333166,
      "v": 69
    },
    {
      "midi": 74,
      "hit": false,
      "t": 112965.27114583287,
      "d": 345.7442083333299,
      "v": 80
    },
    {
      "midi": 70,
      "hit": false,
      "t": 112965.27114583287,
      "d": 352.39313541665615,
      "v": 70
    },
    {
      "midi": 62,
      "hit": false,
      "t": 113284.41964583287,
      "d": 325.79742708332196,
      "v": 69
    },
    {
      "midi": 74,
      "hit": false,
      "t": 113603.56814583286,
      "d": 339.09528124998906,
      "v": 82
    },
    {
      "midi": 70,
      "hit": false,
      "t": 113603.56814583286,
      "d": 345.7442083333153,
      "v": 71
    },
    {
      "midi": 65,
      "hit": false,
      "t": 113603.56814583286,
      "d": 378.9888437499758,
      "v": 71
    },
    {
      "midi": 62,
      "hit": false,
      "t": 113922.71664583286,
      "d": 392.2866979166429,
      "v": 69
    },
    {
      "midi": 65,
      "hit": false,
      "t": 114241.86514583284,
      "d": 465.42489583331917,
      "v": 69
    },
    {
      "midi": 70,
      "hit": false,
      "t": 114241.86514583284,
      "d": 472.07382291664544,
      "v": 69
    },
    {
      "midi": 74,
      "hit": false,
      "t": 114241.86514583284,
      "d": 478.7227499999717,
      "v": 78
    },
    {
      "midi": 62,
      "hit": false,
      "t": 114567.66257291616,
      "d": 292.55279166664695,
      "v": 67
    },
    {
      "midi": 74,
      "hit": false,
      "t": 114886.81107291614,
      "d": 352.3931354166707,
      "v": 78
    },
    {
      "midi": 65,
      "hit": false,
      "t": 114886.81107291614,
      "d": 378.9888437500049,
      "v": 69
    },
    {
      "midi": 70,
      "hit": false,
      "t": 114886.81107291614,
      "d": 378.9888437500049,
      "v": 66
    },
    {
      "midi": 62,
      "hit": false,
      "t": 115212.60849999948,
      "d": 359.042062499997,
      "v": 69
    },
    {
      "midi": 70,
      "hit": false,
      "t": 115525.10807291615,
      "d": 372.33991666666407,
      "v": 72
    },
    {
      "midi": 74,
      "hit": false,
      "t": 115525.10807291615,
      "d": 392.28669791665743,
      "v": 84
    },
    {
      "midi": 65,
      "hit": false,
      "t": 115525.10807291615,
      "d": 398.9356249999837,
      "v": 70
    },
    {
      "midi": 62,
      "hit": false,
      "t": 115844.25657291614,
      "d": 272.6060104166536,
      "v": 70
    },
    {
      "midi": 74,
      "hit": false,
      "t": 116163.40507291612,
      "d": 345.7442083333299,
      "v": 90
    },
    {
      "midi": 70,
      "hit": false,
      "t": 116163.40507291612,
      "d": 359.042062499997,
      "v": 76
    },
    {
      "midi": 65,
      "hit": false,
      "t": 116163.40507291612,
      "d": 372.33991666666407,
      "v": 77
    },
    {
      "midi": 62,
      "hit": false,
      "t": 116495.85142708279,
      "d": 365.69098958332324,
      "v": 78
    },
    {
      "midi": 65,
      "hit": false,
      "t": 116814.99992708278,
      "d": 472.07382291666,
      "v": 76
    },
    {
      "midi": 70,
      "hit": false,
      "t": 116814.99992708278,
      "d": 472.07382291666,
      "v": 75
    },
    {
      "midi": 74,
      "hit": false,
      "t": 116814.99992708278,
      "d": 472.07382291666,
      "v": 87
    },
    {
      "midi": 62,
      "hit": false,
      "t": 117127.49949999944,
      "d": 365.6909895833378,
      "v": 78
    },
    {
      "midi": 65,
      "hit": false,
      "t": 117446.64799999945,
      "d": 339.09528124998906,
      "v": 74
    },
    {
      "midi": 69,
      "hit": false,
      "t": 117446.64799999945,
      "d": 339.09528124998906,
      "v": 73
    },
    {
      "midi": 72,
      "hit": false,
      "t": 117446.64799999945,
      "d": 339.09528124998906,
      "v": 83
    },
    {
      "midi": 60,
      "hit": false,
      "t": 117759.1475729161,
      "d": 345.7442083333299,
      "v": 62
    },
    {
      "midi": 72,
      "hit": false,
      "t": 118071.64714583277,
      "d": 339.09528124998906,
      "v": 65
    },
    {
      "midi": 69,
      "hit": false,
      "t": 118071.64714583277,
      "d": 345.7442083333153,
      "v": 60
    },
    {
      "midi": 65,
      "hit": false,
      "t": 118071.64714583277,
      "d": 352.3931354166416,
      "v": 63
    },
    {
      "midi": 60,
      "hit": false,
      "t": 118397.4445729161,
      "d": 325.79742708332196,
      "v": 62
    },
    {
      "midi": 72,
      "hit": false,
      "t": 118709.94414583275,
      "d": 332.4463541666628,
      "v": 69
    },
    {
      "midi": 69,
      "hit": false,
      "t": 118709.94414583275,
      "d": 339.09528124998906,
      "v": 63
    },
    {
      "midi": 65,
      "hit": false,
      "t": 118709.94414583275,
      "d": 352.39313541665615,
      "v": 69
    },
    {
      "midi": 60,
      "hit": false,
      "t": 119029.09264583274,
      "d": 339.09528124998906,
      "v": 70
    },
    {
      "midi": 72,
      "hit": false,
      "t": 119348.24114583274,
      "d": 339.09528124998906,
      "v": 69
    },
    {
      "midi": 65,
      "hit": false,
      "t": 119348.24114583274,
      "d": 352.39313541665615,
      "v": 69
    },
    {
      "midi": 69,
      "hit": false,
      "t": 119348.24114583274,
      "d": 352.39313541665615,
      "v": 67
    },
    {
      "midi": 60,
      "hit": false,
      "t": 119674.03857291606,
      "d": 332.4463541666628,
      "v": 68
    },
    {
      "midi": 69,
      "hit": false,
      "t": 119986.53814583273,
      "d": 339.09528124998906,
      "v": 67
    },
    {
      "midi": 72,
      "hit": false,
      "t": 119986.53814583273,
      "d": 339.09528124998906,
      "v": 69
    },
    {
      "midi": 65,
      "hit": false,
      "t": 119986.53814583273,
      "d": 352.39313541665615,
      "v": 69
    },
    {
      "midi": 60,
      "hit": false,
      "t": 120312.33557291605,
      "d": 332.4463541666628,
      "v": 64
    },
    {
      "midi": 72,
      "hit": false,
      "t": 120624.83514583272,
      "d": 345.7442083333153,
      "v": 69
    },
    {
      "midi": 69,
      "hit": false,
      "t": 120624.83514583272,
      "d": 352.3931354166416,
      "v": 64
    },
    {
      "midi": 65,
      "hit": false,
      "t": 120624.83514583272,
      "d": 359.04206249996787,
      "v": 67
    },
    {
      "midi": 60,
      "hit": false,
      "t": 120950.63257291605,
      "d": 319.1484999999666,
      "v": 61
    },
    {
      "midi": 69,
      "hit": false,
      "t": 121263.13214583269,
      "d": 339.09528124998906,
      "v": 60
    },
    {
      "midi": 72,
      "hit": false,
      "t": 121263.13214583269,
      "d": 339.09528124998906,
      "v": 67
    },
    {
      "midi": 65,
      "hit": false,
      "t": 121263.13214583269,
      "d": 352.39313541665615,
      "v": 61
    },
    {
      "midi": 60,
      "hit": false,
      "t": 121588.92957291601,
      "d": 332.4463541666628,
      "v": 67
    },
    {
      "midi": 65,
      "hit": false,
      "t": 121901.42914583268,
      "d": 392.2866979166429,
      "v": 65
    },
    {
      "midi": 69,
      "hit": false,
      "t": 121908.078072916,
      "d": 378.98884374999034,
      "v": 63
    },
    {
      "midi": 72,
      "hit": false,
      "t": 121908.078072916,
      "d": 378.98884374999034,
      "v": 69
    },
    {
      "midi": 60,
      "hit": false,
      "t": 122227.226572916,
      "d": 292.55279166664695,
      "v": 61
    },
    {
      "midi": 63,
      "hit": false,
      "t": 122559.6729270832,
      "d": 578.4566562499967,
      "v": 84
    },
    {
      "midi": 56,
      "hit": false,
      "t": 122566.32185416653,
      "d": 571.8077291666705,
      "v": 95
    },
    {
      "midi": 60,
      "hit": false,
      "t": 122566.32185416653,
      "d": 571.8077291666705,
      "v": 92
    },
    {
      "midi": 56,
      "hit": false,
      "t": 123197.96992708319,
      "d": 565.1588020833296,
      "v": 97
    },
    {
      "midi": 60,
      "hit": false,
      "t": 123197.96992708319,
      "d": 565.1588020833296,
      "v": 97
    },
    {
      "midi": 63,
      "hit": false,
      "t": 123197.96992708319,
      "d": 565.1588020833296,
      "v": 87
    },
    {
      "midi": 61,
      "hit": false,
      "t": 123822.96907291652,
      "d": 319.1484999999957,
      "v": 99
    },
    {
      "midi": 56,
      "hit": false,
      "t": 123822.96907291652,
      "d": 917.5519374999858,
      "v": 91
    },
    {
      "midi": 63,
      "hit": false,
      "t": 123822.96907291652,
      "d": 917.5519374999858,
      "v": 87
    },
    {
      "midi": 60,
      "hit": false,
      "t": 124142.11757291651,
      "d": 591.7545104166638,
      "v": 84
    },
    {
      "midi": 67,
      "hit": false,
      "t": 124787.06349999983,
      "d": 897.605156250007,
      "v": 97
    },
    {
      "midi": 58,
      "hit": false,
      "t": 124787.06349999983,
      "d": 910.9030104166741,
      "v": 85
    },
    {
      "midi": 63,
      "hit": false,
      "t": 124787.06349999983,
      "d": 910.9030104166741,
      "v": 97
    },
    {
      "midi": 58,
      "hit": false,
      "t": 125751.15792708317,
      "d": 578.4566562499967,
      "v": 87
    },
    {
      "midi": 63,
      "hit": false,
      "t": 125751.15792708317,
      "d": 578.4566562499967,
      "v": 95
    },
    {
      "midi": 67,
      "hit": false,
      "t": 125757.8068541665,
      "d": 558.5098750000034,
      "v": 98
    },
    {
      "midi": 68,
      "hit": false,
      "t": 126389.45492708316,
      "d": 292.5527916666615,
      "v": 99
    },
    {
      "midi": 63,
      "hit": false,
      "t": 126389.45492708316,
      "d": 890.9562291666662,
      "v": 93
    },
    {
      "midi": 58,
      "hit": false,
      "t": 126389.45492708316,
      "d": 897.6051562499924,
      "v": 85
    },
    {
      "midi": 67,
      "hit": false,
      "t": 126708.60342708316,
      "d": 571.8077291666705,
      "v": 100
    },
    {
      "midi": 58,
      "hit": false,
      "t": 127340.25149999982,
      "d": 910.9030104166595,
      "v": 84
    },
    {
      "midi": 62,
      "hit": false,
      "t": 127346.90042708315,
      "d": 904.2540833333333,
      "v": 97
    },
    {
      "midi": 65,
      "hit": false,
      "t": 127346.90042708315,
      "d": 904.2540833333333,
      "v": 87
    },
    {
      "midi": 62,
      "hit": false,
      "t": 128304.34592708315,
      "d": 551.8609479166626,
      "v": 98
    },
    {
      "midi": 58,
      "hit": false,
      "t": 128304.34592708315,
      "d": 571.8077291666559,
      "v": 91
    },
    {
      "midi": 65,
      "hit": false,
      "t": 128304.34592708315,
      "d": 571.8077291666559,
      "v": 84
    },
    {
      "midi": 63,
      "hit": false,
      "t": 128935.9939999998,
      "d": 312.49957291665487,
      "v": 97
    },
    {
      "midi": 58,
      "hit": false,
      "t": 128942.64292708313,
      "d": 791.2223229166557,
      "v": 85
    },
    {
      "midi": 65,
      "hit": false,
      "t": 128942.64292708313,
      "d": 791.2223229166557,
      "v": 86
    },
    {
      "midi": 62,
      "hit": false,
      "t": 129248.49357291646,
      "d": 472.07382291666,
      "v": 87
    },
    {
      "midi": 57,
      "hit": false,
      "t": 129886.79057291645,
      "d": 598.4034375000047,
      "v": 83
    },
    {
      "midi": 60,
      "hit": false,
      "t": 129886.79057291645,
      "d": 598.4034375000047,
      "v": 95
    },
    {
      "midi": 65,
      "hit": false,
      "t": 129886.79057291645,
      "d": 611.7012916666718,
      "v": 81
    },
    {
      "midi": 65,
      "hit": false,
      "t": 130518.43864583311,
      "d": 299.2017187499878,
      "v": 62
    },
    {
      "midi": 57,
      "hit": false,
      "t": 130525.08757291644,
      "d": 292.5527916666615,
      "v": 61
    },
    {
      "midi": 60,
      "hit": false,
      "t": 130525.08757291644,
      "d": 292.5527916666615,
      "v": 73
    },
    {
      "midi": 65,
      "hit": false,
      "t": 130837.5871458331,
      "d": 605.0523645833309,
      "v": 84
    },
    {
      "midi": 57,
      "hit": false,
      "t": 130837.5871458331,
      "d": 611.7012916666572,
      "v": 87
    },
    {
      "midi": 60,
      "hit": false,
      "t": 130837.5871458331,
      "d": 611.7012916666572,
      "v": 92
    },
    {
      "midi": 60,
      "hit": false,
      "t": 131489.18199999974,
      "d": 292.55279166667606,
      "v": 50
    },
    {
      "midi": 65,
      "hit": false,
      "t": 131489.18199999974,
      "d": 292.55279166667606,
      "v": 51
    },
    {
      "midi": 57,
      "hit": false,
      "t": 131489.18199999974,
      "d": 299.2017187500023,
      "v": 54
    },
    {
      "midi": 65,
      "hit": false,
      "t": 131808.33049999975,
      "d": 285.9038645833207,
      "v": 68
    },
    {
      "midi": 60,
      "hit": false,
      "t": 131808.33049999975,
      "d": 292.55279166664695,
      "v": 68
    },
    {
      "midi": 57,
      "hit": false,
      "t": 131814.97942708308,
      "d": 279.2549374999944,
      "v": 65
    },
    {
      "midi": 65,
      "hit": false,
      "t": 132120.8300729164,
      "d": 299.2017187500023,
      "v": 88
    },
    {
      "midi": 57,
      "hit": false,
      "t": 132120.8300729164,
      "d": 305.8506458333286,
      "v": 84
    },
    {
      "midi": 60,
      "hit": false,
      "t": 132120.8300729164,
      "d": 305.8506458333286,
      "v": 94
    },
    {
      "midi": 60,
      "hit": false,
      "t": 132446.62749999974,
      "d": 285.9038645833207,
      "v": 80
    },
    {
      "midi": 65,
      "hit": false,
      "t": 132446.62749999974,
      "d": 285.9038645833207,
      "v": 78
    },
    {
      "midi": 57,
      "hit": false,
      "t": 132453.27642708307,
      "d": 272.60601041666814,
      "v": 75
    },
    {
      "midi": 56,
      "hit": false,
      "t": 132765.77599999972,
      "d": 571.8077291666705,
      "v": 95
    },
    {
      "midi": 60,
      "hit": false,
      "t": 132765.77599999972,
      "d": 571.8077291666705,
      "v": 92
    },
    {
      "midi": 63,
      "hit": false,
      "t": 132772.42492708305,
      "d": 578.4566562499967,
      "v": 84
    },
    {
      "midi": 56,
      "hit": false,
      "t": 133410.72192708304,
      "d": 565.1588020833442,
      "v": 97
    },
    {
      "midi": 60,
      "hit": false,
      "t": 133410.72192708304,
      "d": 565.1588020833442,
      "v": 97
    },
    {
      "midi": 63,
      "hit": false,
      "t": 133410.72192708304,
      "d": 565.1588020833442,
      "v": 87
    },
    {
      "midi": 61,
      "hit": false,
      "t": 134035.72107291638,
      "d": 319.14850000001024,
      "v": 99
    },
    {
      "midi": 56,
      "hit": false,
      "t": 134035.72107291638,
      "d": 917.5519375000149,
      "v": 91
    },
    {
      "midi": 63,
      "hit": false,
      "t": 134035.72107291638,
      "d": 917.5519375000149,
      "v": 87
    },
    {
      "midi": 60,
      "hit": false,
      "t": 134354.8695729164,
      "d": 591.7545104166784,
      "v": 84
    },
    {
      "midi": 67,
      "hit": false,
      "t": 134999.81549999974,
      "d": 897.605156250007,
      "v": 97
    },
    {
      "midi": 58,
      "hit": false,
      "t": 134999.81549999974,
      "d": 910.9030104166595,
      "v": 85
    },
    {
      "midi": 63,
      "hit": false,
      "t": 134999.81549999974,
      "d": 910.9030104166595,
      "v": 97
    },
    {
      "midi": 58,
      "hit": false,
      "t": 135963.90992708306,
      "d": 578.4566562499676,
      "v": 87
    },
    {
      "midi": 63,
      "hit": false,
      "t": 135963.90992708306,
      "d": 578.4566562499676,
      "v": 95
    },
    {
      "midi": 67,
      "hit": false,
      "t": 135970.5588541664,
      "d": 558.5098749999888,
      "v": 98
    },
    {
      "midi": 68,
      "hit": false,
      "t": 136602.20692708303,
      "d": 292.55279166667606,
      "v": 99
    },
    {
      "midi": 63,
      "hit": false,
      "t": 136602.20692708303,
      "d": 890.9562291666807,
      "v": 93
    },
    {
      "midi": 58,
      "hit": false,
      "t": 136602.20692708303,
      "d": 897.605156250007,
      "v": 85
    },
    {
      "midi": 67,
      "hit": false,
      "t": 136921.35542708304,
      "d": 571.8077291666705,
      "v": 100
    },
    {
      "midi": 58,
      "hit": false,
      "t": 137553.0034999997,
      "d": 910.9030104166595,
      "v": 84
    },
    {
      "midi": 62,
      "hit": false,
      "t": 137559.65242708303,
      "d": 904.2540833333333,
      "v": 97
    },
    {
      "midi": 65,
      "hit": false,
      "t": 137559.65242708303,
      "d": 904.2540833333333,
      "v": 87
    },
    {
      "midi": 62,
      "hit": false,
      "t": 138517.09792708303,
      "d": 551.8609479166626,
      "v": 98
    },
    {
      "midi": 58,
      "hit": false,
      "t": 138517.09792708303,
      "d": 571.8077291666705,
      "v": 91
    },
    {
      "midi": 65,
      "hit": false,
      "t": 138517.09792708303,
      "d": 571.8077291666705,
      "v": 84
    },
    {
      "midi": 63,
      "hit": false,
      "t": 139148.7459999997,
      "d": 312.49957291665487,
      "v": 97
    },
    {
      "midi": 58,
      "hit": false,
      "t": 139155.39492708302,
      "d": 791.2223229166411,
      "v": 85
    },
    {
      "midi": 65,
      "hit": false,
      "t": 139155.39492708302,
      "d": 791.2223229166411,
      "v": 86
    },
    {
      "midi": 62,
      "hit": false,
      "t": 139461.24557291635,
      "d": 472.07382291666,
      "v": 87
    },
    {
      "midi": 57,
      "hit": false,
      "t": 140099.54257291634,
      "d": 2386.9648229166633,
      "v": 83
    },
    {
      "midi": 60,
      "hit": false,
      "t": 140099.54257291634,
      "d": 2386.9648229166633,
      "v": 95
    },
    {
      "midi": 65,
      "hit": false,
      "t": 140099.54257291634,
      "d": 2386.9648229166633,
      "v": 81
    },
    {
      "midi": 58,
      "hit": false,
      "t": 142659.37949999966,
      "d": 2739.357958333334,
      "v": 93
    },
    {
      "midi": 60,
      "hit": false,
      "t": 142659.37949999966,
      "d": 2746.00688541666,
      "v": 94
    },
    {
      "midi": 65,
      "hit": false,
      "t": 142659.37949999966,
      "d": 2746.00688541666,
      "v": 90
    },
    {
      "midi": 58,
      "hit": false,
      "t": 145531.71599999967,
      "d": 2400.262677083345,
      "v": 84
    },
    {
      "midi": 60,
      "hit": false,
      "t": 145531.71599999967,
      "d": 2400.262677083345,
      "v": 94
    },
    {
      "midi": 65,
      "hit": false,
      "t": 145531.71599999967,
      "d": 2420.209458333353,
      "v": 87
    },
    {
      "midi": 72,
      "hit": false,
      "t": 148084.9039999993,
      "d": 398.9356250000128,
      "v": 74
    },
    {
      "midi": 69,
      "hit": false,
      "t": 148084.9039999993,
      "d": 405.5845520833391,
      "v": 71
    },
    {
      "midi": 65,
      "hit": false,
      "t": 148084.9039999993,
      "d": 425.531333333347,
      "v": 72
    },
    {
      "midi": 60,
      "hit": false,
      "t": 148410.70142708265,
      "d": 405.5845520833682,
      "v": 63
    },
    {
      "midi": 72,
      "hit": false,
      "t": 148716.552072916,
      "d": 359.042062499997,
      "v": 71
    },
    {
      "midi": 65,
      "hit": false,
      "t": 148716.552072916,
      "d": 398.9356249999837,
      "v": 65
    },
    {
      "midi": 69,
      "hit": false,
      "t": 148716.552072916,
      "d": 398.9356249999837,
      "v": 58
    },
    {
      "midi": 60,
      "hit": false,
      "t": 149035.70057291602,
      "d": 392.28669791665743,
      "v": 64
    },
    {
      "midi": 72,
      "hit": false,
      "t": 149354.849072916,
      "d": 352.3931354166707,
      "v": 76
    },
    {
      "midi": 69,
      "hit": false,
      "t": 149354.849072916,
      "d": 385.63777083333116,
      "v": 71
    },
    {
      "midi": 65,
      "hit": false,
      "t": 149354.849072916,
      "d": 398.9356249999837,
      "v": 69
    },
    {
      "midi": 60,
      "hit": false,
      "t": 149680.64649999933,
      "d": 412.23347916663624,
      "v": 67
    },
    {
      "midi": 65,
      "hit": false,
      "t": 149993.146072916,
      "d": 352.3931354166416,
      "v": 69
    },
    {
      "midi": 69,
      "hit": false,
      "t": 149993.146072916,
      "d": 372.3399166666495,
      "v": 71
    },
    {
      "midi": 72,
      "hit": false,
      "t": 150006.44392708264,
      "d": 332.4463541666628,
      "v": 75
    },
    {
      "midi": 60,
      "hit": false,
      "t": 150318.9434999993,
      "d": 265.95708333334187,
      "v": 64
    },
    {
      "midi": 72,
      "hit": false,
      "t": 150638.0919999993,
      "d": 378.9888437500049,
      "v": 69
    },
    {
      "midi": 67,
      "hit": false,
      "t": 150644.74092708263,
      "d": 378.9888437500049,
      "v": 72
    },
    {
      "midi": 64,
      "hit": false,
      "t": 150644.74092708263,
      "d": 392.28669791665743,
      "v": 64
    },
    {
      "midi": 60,
      "hit": false,
      "t": 150963.88942708264,
      "d": 359.04206249996787,
      "v": 61
    },
    {
      "midi": 67,
      "hit": false,
      "t": 151283.03792708262,
      "d": 345.7442083333153,
      "v": 77
    },
    {
      "midi": 72,
      "hit": false,
      "t": 151283.03792708262,
      "d": 345.7442083333153,
      "v": 70
    },
    {
      "midi": 64,
      "hit": false,
      "t": 151283.03792708262,
      "d": 352.3931354166416,
      "v": 66
    },
    {
      "midi": 60,
      "hit": false,
      "t": 151602.1864270826,
      "d": 319.14849999998114,
      "v": 67
    },
    {
      "midi": 67,
      "hit": false,
      "t": 151908.03707291593,
      "d": 332.4463541666628,
      "v": 78
    },
    {
      "midi": 64,
      "hit": false,
      "t": 151908.03707291593,
      "d": 339.09528124998906,
      "v": 72
    },
    {
      "midi": 72,
      "hit": false,
      "t": 151908.03707291593,
      "d": 352.3931354166416,
      "v": 80
    },
    {
      "midi": 60,
      "hit": false,
      "t": 152240.4834270826,
      "d": 332.4463541666337,
      "v": 71
    },
    {
      "midi": 67,
      "hit": false,
      "t": 152546.3340729159,
      "d": 319.14850000001024,
      "v": 81
    },
    {
      "midi": 72,
      "hit": false,
      "t": 152546.3340729159,
      "d": 319.14850000001024,
      "v": 78
    },
    {
      "midi": 64,
      "hit": false,
      "t": 152546.3340729159,
      "d": 345.74420833334443,
      "v": 78
    },
    {
      "midi": 60,
      "hit": false,
      "t": 152865.4825729159,
      "d": 299.2017187500023,
      "v": 76
    },
    {
      "midi": 72,
      "hit": false,
      "t": 153184.63107291592,
      "d": 345.74420833334443,
      "v": 78
    },
    {
      "midi": 65,
      "hit": false,
      "t": 153184.63107291592,
      "d": 365.69098958335235,
      "v": 65
    },
    {
      "midi": 69,
      "hit": false,
      "t": 153184.63107291592,
      "d": 365.69098958335235,
      "v": 77
    },
    {
      "midi": 60,
      "hit": false,
      "t": 153503.77957291593,
      "d": 359.042062499997,
      "v": 69
    },
    {
      "midi": 72,
      "hit": false,
      "t": 153822.92807291594,
      "d": 339.09528124998906,
      "v": 71
    },
    {
      "midi": 69,
      "hit": false,
      "t": 153822.92807291594,
      "d": 345.7442083333153,
      "v": 77
    },
    {
      "midi": 65,
      "hit": false,
      "t": 153822.92807291594,
      "d": 372.3399166666495,
      "v": 73
    },
    {
      "midi": 60,
      "hit": false,
      "t": 154142.07657291592,
      "d": 325.7974270833074,
      "v": 71
    },
    {
      "midi": 72,
      "hit": false,
      "t": 154454.57614583257,
      "d": 312.49957291665487,
      "v": 76
    },
    {
      "midi": 69,
      "hit": false,
      "t": 154454.57614583257,
      "d": 345.7442083333153,
      "v": 78
    },
    {
      "midi": 65,
      "hit": false,
      "t": 154454.57614583257,
      "d": 378.9888437499758,
      "v": 75
    },
    {
      "midi": 60,
      "hit": false,
      "t": 154773.72464583255,
      "d": 359.04206249996787,
      "v": 71
    },
    {
      "midi": 65,
      "hit": false,
      "t": 155092.87314583253,
      "d": 472.07382291666,
      "v": 78
    },
    {
      "midi": 69,
      "hit": false,
      "t": 155092.87314583253,
      "d": 472.07382291666,
      "v": 81
    },
    {
      "midi": 72,
      "hit": false,
      "t": 155092.87314583253,
      "d": 472.07382291666,
      "v": 78
    },
    {
      "midi": 60,
      "hit": false,
      "t": 155412.02164583252,
      "d": 292.55279166667606,
      "v": 71
    },
    {
      "midi": 69,
      "hit": false,
      "t": 155724.5212187492,
      "d": 359.042062499997,
      "v": 78
    },
    {
      "midi": 72,
      "hit": false,
      "t": 155731.17014583253,
      "d": 325.7974270833365,
      "v": 69
    },
    {
      "midi": 64,
      "hit": false,
      "t": 155731.17014583253,
      "d": 332.4463541666628,
      "v": 72
    },
    {
      "midi": 60,
      "hit": false,
      "t": 156050.31864583254,
      "d": 359.042062499997,
      "v": 71
    },
    {
      "midi": 72,
      "hit": false,
      "t": 156362.8182187492,
      "d": 339.09528124998906,
      "v": 72
    },
    {
      "midi": 64,
      "hit": false,
      "t": 156362.8182187492,
      "d": 345.7442083333153,
      "v": 71
    },
    {
      "midi": 69,
      "hit": false,
      "t": 156362.8182187492,
      "d": 365.69098958332324,
      "v": 73
    },
    {
      "midi": 60,
      "hit": false,
      "t": 156688.61564583253,
      "d": 372.3399166666495,
      "v": 69
    },
    {
      "midi": 72,
      "hit": false,
      "t": 157007.7641458325,
      "d": 319.14850000001024,
      "v": 71
    },
    {
      "midi": 64,
      "hit": false,
      "t": 157007.7641458325,
      "d": 345.74420833334443,
      "v": 71
    },
    {
      "midi": 69,
      "hit": false,
      "t": 157007.7641458325,
      "d": 345.74420833334443,
      "v": 76
    },
    {
      "midi": 60,
      "hit": false,
      "t": 157326.91264583252,
      "d": 359.042062499997,
      "v": 78
    },
    {
      "midi": 72,
      "hit": false,
      "t": 157646.06114583253,
      "d": 305.8506458333286,
      "v": 78
    },
    {
      "midi": 69,
      "hit": false,
      "t": 157646.06114583253,
      "d": 319.14849999998114,
      "v": 83
    },
    {
      "midi": 64,
      "hit": false,
      "t": 157646.06114583253,
      "d": 339.09528124998906,
      "v": 81
    },
    {
      "midi": 60,
      "hit": false,
      "t": 157965.2096458325,
      "d": 239.36137500000768,
      "v": 78
    },
    {
      "midi": 70,
      "hit": false,
      "t": 158297.65599999917,
      "d": 319.14849999998114,
      "v": 73
    },
    {
      "midi": 74,
      "hit": false,
      "t": 158297.65599999917,
      "d": 319.14849999998114,
      "v": 75
    },
    {
      "midi": 65,
      "hit": false,
      "t": 158297.65599999917,
      "d": 345.7442083333153,
      "v": 69
    },
    {
      "midi": 62,
      "hit": false,
      "t": 158603.5066458325,
      "d": 359.04206249996787,
      "v": 67
    },
    {
      "midi": 65,
      "hit": false,
      "t": 158916.00621874916,
      "d": 385.63777083330206,
      "v": 69
    },
    {
      "midi": 74,
      "hit": false,
      "t": 158922.65514583248,
      "d": 345.7442083333153,
      "v": 80
    },
    {
      "midi": 70,
      "hit": false,
      "t": 158922.65514583248,
      "d": 352.3931354166416,
      "v": 70
    },
    {
      "midi": 62,
      "hit": false,
      "t": 159241.80364583246,
      "d": 325.7974270833074,
      "v": 69
    },
    {
      "midi": 74,
      "hit": false,
      "t": 159560.95214583245,
      "d": 339.09528124998906,
      "v": 82
    },
    {
      "midi": 70,
      "hit": false,
      "t": 159560.95214583245,
      "d": 345.7442083333153,
      "v": 71
    },
    {
      "midi": 65,
      "hit": false,
      "t": 159560.95214583245,
      "d": 378.9888437499758,
      "v": 71
    },
    {
      "midi": 62,
      "hit": false,
      "t": 159880.10064583243,
      "d": 392.28669791665743,
      "v": 69
    },
    {
      "midi": 65,
      "hit": false,
      "t": 160199.2491458324,
      "d": 465.4248958333337,
      "v": 69
    },
    {
      "midi": 70,
      "hit": false,
      "t": 160199.2491458324,
      "d": 472.07382291666,
      "v": 69
    },
    {
      "midi": 74,
      "hit": false,
      "t": 160199.2491458324,
      "d": 478.72274999998626,
      "v": 78
    },
    {
      "midi": 62,
      "hit": false,
      "t": 160525.04657291574,
      "d": 292.55279166664695,
      "v": 67
    },
    {
      "midi": 74,
      "hit": false,
      "t": 160844.19507291573,
      "d": 352.3931354166707,
      "v": 78
    },
    {
      "midi": 65,
      "hit": false,
      "t": 160844.19507291573,
      "d": 378.9888437500049,
      "v": 69
    },
    {
      "midi": 70,
      "hit": false,
      "t": 160844.19507291573,
      "d": 378.9888437500049,
      "v": 66
    },
    {
      "midi": 62,
      "hit": false,
      "t": 161169.99249999906,
      "d": 359.042062499997,
      "v": 69
    },
    {
      "midi": 70,
      "hit": false,
      "t": 161482.49207291572,
      "d": 372.3399166666786,
      "v": 72
    },
    {
      "midi": 74,
      "hit": false,
      "t": 161482.49207291572,
      "d": 392.28669791668653,
      "v": 84
    },
    {
      "midi": 65,
      "hit": false,
      "t": 161482.49207291572,
      "d": 398.9356250000128,
      "v": 70
    },
    {
      "midi": 62,
      "hit": false,
      "t": 161801.64057291573,
      "d": 272.60601041666814,
      "v": 70
    },
    {
      "midi": 74,
      "hit": false,
      "t": 162120.78907291574,
      "d": 345.7442083333153,
      "v": 90
    },
    {
      "midi": 70,
      "hit": false,
      "t": 162120.78907291574,
      "d": 359.04206249996787,
      "v": 76
    },
    {
      "midi": 65,
      "hit": false,
      "t": 162120.78907291574,
      "d": 372.3399166666204,
      "v": 77
    },
    {
      "midi": 62,
      "hit": false,
      "t": 162453.2354270824,
      "d": 365.69098958329414,
      "v": 78
    },
    {
      "midi": 65,
      "hit": false,
      "t": 162772.38392708235,
      "d": 472.0738229166891,
      "v": 76
    },
    {
      "midi": 70,
      "hit": false,
      "t": 162772.38392708235,
      "d": 472.0738229166891,
      "v": 75
    },
    {
      "midi": 74,
      "hit": false,
      "t": 162772.38392708235,
      "d": 472.0738229166891,
      "v": 87
    },
    {
      "midi": 62,
      "hit": false,
      "t": 163084.88349999904,
      "d": 365.69098958335235,
      "v": 78
    },
    {
      "midi": 65,
      "hit": false,
      "t": 163404.03199999905,
      "d": 339.09528125001816,
      "v": 74
    },
    {
      "midi": 69,
      "hit": false,
      "t": 163404.03199999905,
      "d": 339.09528125001816,
      "v": 73
    },
    {
      "midi": 72,
      "hit": false,
      "t": 163404.03199999905,
      "d": 339.09528125001816,
      "v": 83
    },
    {
      "midi": 60,
      "hit": false,
      "t": 163716.53157291573,
      "d": 345.7442083333153,
      "v": 62
    },
    {
      "midi": 72,
      "hit": false,
      "t": 164029.03114583238,
      "d": 339.09528124998906,
      "v": 65
    },
    {
      "midi": 69,
      "hit": false,
      "t": 164029.03114583238,
      "d": 345.7442083333153,
      "v": 60
    },
    {
      "midi": 65,
      "hit": false,
      "t": 164029.03114583238,
      "d": 352.3931354166416,
      "v": 63
    },
    {
      "midi": 60,
      "hit": false,
      "t": 164354.82857291572,
      "d": 325.7974270832783,
      "v": 62
    },
    {
      "midi": 72,
      "hit": false,
      "t": 164667.32814583235,
      "d": 332.4463541666337,
      "v": 69
    },
    {
      "midi": 69,
      "hit": false,
      "t": 164667.32814583235,
      "d": 339.09528124995995,
      "v": 63
    },
    {
      "midi": 65,
      "hit": false,
      "t": 164667.32814583235,
      "d": 352.3931354166125,
      "v": 69
    },
    {
      "midi": 60,
      "hit": false,
      "t": 164986.47664583233,
      "d": 339.09528124995995,
      "v": 70
    },
    {
      "midi": 72,
      "hit": false,
      "t": 165305.62514583228,
      "d": 339.09528124998906,
      "v": 69
    },
    {
      "midi": 65,
      "hit": false,
      "t": 165305.62514583228,
      "d": 352.3931354166416,
      "v": 69
    },
    {
      "midi": 69,
      "hit": false,
      "t": 165305.62514583228,
      "d": 352.3931354166416,
      "v": 67
    },
    {
      "midi": 60,
      "hit": false,
      "t": 165631.42257291562,
      "d": 332.4463541666337,
      "v": 68
    },
    {
      "midi": 69,
      "hit": false,
      "t": 165943.92214583224,
      "d": 339.09528124998906,
      "v": 67
    },
    {
      "midi": 72,
      "hit": false,
      "t": 165943.92214583224,
      "d": 339.09528124998906,
      "v": 69
    },
    {
      "midi": 65,
      "hit": false,
      "t": 165943.92214583224,
      "d": 352.3931354166416,
      "v": 69
    },
    {
      "midi": 60,
      "hit": false,
      "t": 166269.71957291558,
      "d": 332.4463541666337,
      "v": 64
    },
    {
      "midi": 72,
      "hit": false,
      "t": 166582.2191458322,
      "d": 345.74420833334443,
      "v": 69
    },
    {
      "midi": 69,
      "hit": false,
      "t": 166582.2191458322,
      "d": 352.3931354166707,
      "v": 64
    },
    {
      "midi": 65,
      "hit": false,
      "t": 166582.2191458322,
      "d": 359.042062499997,
      "v": 67
    },
    {
      "midi": 60,
      "hit": false,
      "t": 166908.01657291554,
      "d": 319.14849999998114,
      "v": 61
    },
    {
      "midi": 69,
      "hit": false,
      "t": 167220.5161458322,
      "d": 339.09528124998906,
      "v": 60
    },
    {
      "midi": 72,
      "hit": false,
      "t": 167220.5161458322,
      "d": 339.09528124998906,
      "v": 67
    },
    {
      "midi": 65,
      "hit": false,
      "t": 167220.5161458322,
      "d": 352.3931354166416,
      "v": 61
    },
    {
      "midi": 60,
      "hit": false,
      "t": 167546.31357291553,
      "d": 332.4463541666046,
      "v": 67
    },
    {
      "midi": 65,
      "hit": false,
      "t": 167858.81314583216,
      "d": 392.2866979166283,
      "v": 65
    },
    {
      "midi": 69,
      "hit": false,
      "t": 167865.46207291548,
      "d": 378.9888437499758,
      "v": 63
    },
    {
      "midi": 72,
      "hit": false,
      "t": 167865.46207291548,
      "d": 378.9888437499758,
      "v": 69
    },
    {
      "midi": 60,
      "hit": false,
      "t": 168184.61057291547,
      "d": 292.55279166664695,
      "v": 61
    },
    {
      "midi": 72,
      "hit": false,
      "t": 168510.40799999877,
      "d": 398.9356250000128,
      "v": 74
    },
    {
      "midi": 69,
      "hit": false,
      "t": 168510.40799999877,
      "d": 405.5845520833391,
      "v": 71
    },
    {
      "midi": 65,
      "hit": false,
      "t": 168510.40799999877,
      "d": 425.531333333347,
      "v": 72
    },
    {
      "midi": 60,
      "hit": false,
      "t": 168836.2054270821,
      "d": 405.5845520833682,
      "v": 63
    },
    {
      "midi": 72,
      "hit": false,
      "t": 169142.05607291547,
      "d": 359.042062499997,
      "v": 71
    },
    {
      "midi": 65,
      "hit": false,
      "t": 169142.05607291547,
      "d": 398.9356249999837,
      "v": 65
    },
    {
      "midi": 69,
      "hit": false,
      "t": 169142.05607291547,
      "d": 398.9356249999837,
      "v": 58
    },
    {
      "midi": 60,
      "hit": false,
      "t": 169461.20457291548,
      "d": 392.28669791665743,
      "v": 64
    },
    {
      "midi": 72,
      "hit": false,
      "t": 169780.35307291546,
      "d": 352.3931354166707,
      "v": 76
    },
    {
      "midi": 69,
      "hit": false,
      "t": 169780.35307291546,
      "d": 385.63777083333116,
      "v": 71
    },
    {
      "midi": 65,
      "hit": false,
      "t": 169780.35307291546,
      "d": 398.9356249999837,
      "v": 69
    },
    {
      "midi": 60,
      "hit": false,
      "t": 170106.1504999988,
      "d": 412.23347916663624,
      "v": 67
    },
    {
      "midi": 65,
      "hit": false,
      "t": 170418.65007291545,
      "d": 352.3931354166416,
      "v": 69
    },
    {
      "midi": 69,
      "hit": false,
      "t": 170418.65007291545,
      "d": 372.3399166666495,
      "v": 71
    },
    {
      "midi": 72,
      "hit": false,
      "t": 170431.9479270821,
      "d": 332.4463541666628,
      "v": 75
    },
    {
      "midi": 60,
      "hit": false,
      "t": 170744.44749999876,
      "d": 265.95708333334187,
      "v": 64
    },
    {
      "midi": 72,
      "hit": false,
      "t": 171063.59599999877,
      "d": 378.9888437500049,
      "v": 69
    },
    {
      "midi": 67,
      "hit": false,
      "t": 171070.2449270821,
      "d": 378.9888437500049,
      "v": 72
    },
    {
      "midi": 64,
      "hit": false,
      "t": 171070.2449270821,
      "d": 392.28669791665743,
      "v": 64
    },
    {
      "midi": 60,
      "hit": false,
      "t": 171389.3934270821,
      "d": 359.04206249996787,
      "v": 61
    },
    {
      "midi": 67,
      "hit": false,
      "t": 171708.5419270821,
      "d": 345.7442083333153,
      "v": 77
    },
    {
      "midi": 72,
      "hit": false,
      "t": 171708.5419270821,
      "d": 345.7442083333153,
      "v": 70
    },
    {
      "midi": 64,
      "hit": false,
      "t": 171708.5419270821,
      "d": 352.3931354166416,
      "v": 66
    },
    {
      "midi": 60,
      "hit": false,
      "t": 172027.69042708207,
      "d": 319.14849999998114,
      "v": 67
    },
    {
      "midi": 67,
      "hit": false,
      "t": 172333.5410729154,
      "d": 332.4463541666628,
      "v": 78
    },
    {
      "midi": 64,
      "hit": false,
      "t": 172333.5410729154,
      "d": 339.09528124998906,
      "v": 72
    },
    {
      "midi": 72,
      "hit": false,
      "t": 172333.5410729154,
      "d": 352.3931354166416,
      "v": 80
    },
    {
      "midi": 60,
      "hit": false,
      "t": 172665.98742708206,
      "d": 332.4463541666337,
      "v": 71
    },
    {
      "midi": 67,
      "hit": false,
      "t": 172971.83807291536,
      "d": 319.14850000001024,
      "v": 81
    },
    {
      "midi": 72,
      "hit": false,
      "t": 172971.83807291536,
      "d": 319.14850000001024,
      "v": 78
    },
    {
      "midi": 64,
      "hit": false,
      "t": 172971.83807291536,
      "d": 345.74420833334443,
      "v": 78
    },
    {
      "midi": 60,
      "hit": false,
      "t": 173290.98657291537,
      "d": 299.2017187500023,
      "v": 76
    },
    {
      "midi": 72,
      "hit": false,
      "t": 173610.13507291538,
      "d": 345.74420833334443,
      "v": 78
    },
    {
      "midi": 65,
      "hit": false,
      "t": 173610.13507291538,
      "d": 365.69098958335235,
      "v": 65
    },
    {
      "midi": 69,
      "hit": false,
      "t": 173610.13507291538,
      "d": 365.69098958335235,
      "v": 77
    },
    {
      "midi": 60,
      "hit": false,
      "t": 173929.2835729154,
      "d": 359.042062499997,
      "v": 69
    },
    {
      "midi": 72,
      "hit": false,
      "t": 174248.4320729154,
      "d": 339.09528124998906,
      "v": 71
    },
    {
      "midi": 69,
      "hit": false,
      "t": 174248.4320729154,
      "d": 345.7442083333153,
      "v": 77
    },
    {
      "midi": 65,
      "hit": false,
      "t": 174248.4320729154,
      "d": 372.3399166666495,
      "v": 73
    },
    {
      "midi": 60,
      "hit": false,
      "t": 174567.58057291538,
      "d": 325.7974270833074,
      "v": 71
    },
    {
      "midi": 72,
      "hit": false,
      "t": 174880.08014583203,
      "d": 312.49957291665487,
      "v": 76
    },
    {
      "midi": 69,
      "hit": false,
      "t": 174880.08014583203,
      "d": 345.7442083333153,
      "v": 78
    },
    {
      "midi": 65,
      "hit": false,
      "t": 174880.08014583203,
      "d": 378.9888437499758,
      "v": 75
    },
    {
      "midi": 60,
      "hit": false,
      "t": 175199.22864583202,
      "d": 359.04206249996787,
      "v": 71
    },
    {
      "midi": 65,
      "hit": false,
      "t": 175518.377145832,
      "d": 472.07382291666,
      "v": 78
    },
    {
      "midi": 69,
      "hit": false,
      "t": 175518.377145832,
      "d": 472.07382291666,
      "v": 81
    },
    {
      "midi": 72,
      "hit": false,
      "t": 175518.377145832,
      "d": 472.07382291666,
      "v": 78
    },
    {
      "midi": 60,
      "hit": false,
      "t": 175837.52564583198,
      "d": 292.55279166667606,
      "v": 71
    },
    {
      "midi": 69,
      "hit": false,
      "t": 176150.02521874866,
      "d": 359.042062499997,
      "v": 78
    },
    {
      "midi": 72,
      "hit": false,
      "t": 176156.674145832,
      "d": 325.7974270833365,
      "v": 69
    },
    {
      "midi": 64,
      "hit": false,
      "t": 176156.674145832,
      "d": 332.4463541666628,
      "v": 72
    },
    {
      "midi": 60,
      "hit": false,
      "t": 176475.822645832,
      "d": 359.042062499997,
      "v": 71
    },
    {
      "midi": 72,
      "hit": false,
      "t": 176788.32221874865,
      "d": 339.09528124998906,
      "v": 72
    },
    {
      "midi": 64,
      "hit": false,
      "t": 176788.32221874865,
      "d": 345.7442083333153,
      "v": 71
    },
    {
      "midi": 69,
      "hit": false,
      "t": 176788.32221874865,
      "d": 365.69098958332324,
      "v": 73
    },
    {
      "midi": 60,
      "hit": false,
      "t": 177114.119645832,
      "d": 372.3399166666495,
      "v": 69
    },
    {
      "midi": 72,
      "hit": false,
      "t": 177433.26814583197,
      "d": 319.14850000001024,
      "v": 71
    },
    {
      "midi": 64,
      "hit": false,
      "t": 177433.26814583197,
      "d": 345.74420833334443,
      "v": 71
    },
    {
      "midi": 69,
      "hit": false,
      "t": 177433.26814583197,
      "d": 345.74420833334443,
      "v": 76
    },
    {
      "midi": 60,
      "hit": false,
      "t": 177752.41664583198,
      "d": 359.042062499997,
      "v": 78
    },
    {
      "midi": 72,
      "hit": false,
      "t": 178071.565145832,
      "d": 305.8506458333286,
      "v": 78
    },
    {
      "midi": 69,
      "hit": false,
      "t": 178071.565145832,
      "d": 319.14849999998114,
      "v": 83
    },
    {
      "midi": 64,
      "hit": false,
      "t": 178071.565145832,
      "d": 339.09528124998906,
      "v": 81
    },
    {
      "midi": 60,
      "hit": false,
      "t": 178390.71364583197,
      "d": 239.36137500000768,
      "v": 78
    },
    {
      "midi": 70,
      "hit": false,
      "t": 178723.15999999864,
      "d": 319.14849999998114,
      "v": 73
    },
    {
      "midi": 74,
      "hit": false,
      "t": 178723.15999999864,
      "d": 319.14849999998114,
      "v": 75
    },
    {
      "midi": 65,
      "hit": false,
      "t": 178723.15999999864,
      "d": 345.7442083333153,
      "v": 69
    },
    {
      "midi": 62,
      "hit": false,
      "t": 179029.01064583196,
      "d": 359.04206249996787,
      "v": 67
    },
    {
      "midi": 65,
      "hit": false,
      "t": 179341.51021874862,
      "d": 385.63777083330206,
      "v": 69
    },
    {
      "midi": 74,
      "hit": false,
      "t": 179348.15914583195,
      "d": 345.7442083333153,
      "v": 80
    },
    {
      "midi": 70,
      "hit": false,
      "t": 179348.15914583195,
      "d": 352.3931354166416,
      "v": 70
    },
    {
      "midi": 62,
      "hit": false,
      "t": 179667.30764583193,
      "d": 325.7974270833074,
      "v": 69
    },
    {
      "midi": 74,
      "hit": false,
      "t": 179986.4561458319,
      "d": 339.09528124998906,
      "v": 82
    },
    {
      "midi": 70,
      "hit": false,
      "t": 179986.4561458319,
      "d": 345.7442083333153,
      "v": 71
    },
    {
      "midi": 65,
      "hit": false,
      "t": 179986.4561458319,
      "d": 378.9888437499758,
      "v": 71
    },
    {
      "midi": 62,
      "hit": false,
      "t": 180305.6046458319,
      "d": 392.28669791665743,
      "v": 69
    },
    {
      "midi": 65,
      "hit": false,
      "t": 180624.75314583187,
      "d": 465.4248958333337,
      "v": 69
    },
    {
      "midi": 70,
      "hit": false,
      "t": 180624.75314583187,
      "d": 472.07382291666,
      "v": 69
    },
    {
      "midi": 74,
      "hit": false,
      "t": 180624.75314583187,
      "d": 478.72274999998626,
      "v": 78
    },
    {
      "midi": 62,
      "hit": false,
      "t": 180950.5505729152,
      "d": 292.55279166664695,
      "v": 67
    },
    {
      "midi": 74,
      "hit": false,
      "t": 181269.6990729152,
      "d": 352.3931354166707,
      "v": 78
    },
    {
      "midi": 65,
      "hit": false,
      "t": 181269.6990729152,
      "d": 378.9888437500049,
      "v": 69
    },
    {
      "midi": 70,
      "hit": false,
      "t": 181269.6990729152,
      "d": 378.9888437500049,
      "v": 66
    },
    {
      "midi": 62,
      "hit": false,
      "t": 181595.49649999852,
      "d": 359.042062499997,
      "v": 69
    },
    {
      "midi": 70,
      "hit": false,
      "t": 181907.99607291518,
      "d": 372.3399166666786,
      "v": 72
    },
    {
      "midi": 74,
      "hit": false,
      "t": 181907.99607291518,
      "d": 392.28669791668653,
      "v": 84
    },
    {
      "midi": 65,
      "hit": false,
      "t": 181907.99607291518,
      "d": 398.9356250000128,
      "v": 70
    },
    {
      "midi": 62,
      "hit": false,
      "t": 182227.1445729152,
      "d": 272.60601041666814,
      "v": 70
    },
    {
      "midi": 74,
      "hit": false,
      "t": 182546.2930729152,
      "d": 345.7442083333153,
      "v": 90
    },
    {
      "midi": 70,
      "hit": false,
      "t": 182546.2930729152,
      "d": 359.04206249996787,
      "v": 76
    },
    {
      "midi": 65,
      "hit": false,
      "t": 182546.2930729152,
      "d": 372.3399166666204,
      "v": 77
    },
    {
      "midi": 62,
      "hit": false,
      "t": 182878.73942708186,
      "d": 365.69098958329414,
      "v": 78
    },
    {
      "midi": 65,
      "hit": false,
      "t": 183197.8879270818,
      "d": 472.0738229166891,
      "v": 76
    },
    {
      "midi": 70,
      "hit": false,
      "t": 183197.8879270818,
      "d": 472.0738229166891,
      "v": 75
    },
    {
      "midi": 74,
      "hit": false,
      "t": 183197.8879270818,
      "d": 472.0738229166891,
      "v": 87
    },
    {
      "midi": 62,
      "hit": false,
      "t": 183510.3874999985,
      "d": 365.69098958335235,
      "v": 78
    },
    {
      "midi": 65,
      "hit": false,
      "t": 183829.5359999985,
      "d": 339.09528125001816,
      "v": 74
    },
    {
      "midi": 69,
      "hit": false,
      "t": 183829.5359999985,
      "d": 339.09528125001816,
      "v": 73
    },
    {
      "midi": 72,
      "hit": false,
      "t": 183829.5359999985,
      "d": 339.09528125001816,
      "v": 83
    },
    {
      "midi": 60,
      "hit": false,
      "t": 184142.0355729152,
      "d": 345.7442083333153,
      "v": 62
    },
    {
      "midi": 72,
      "hit": false,
      "t": 184454.53514583185,
      "d": 339.09528124998906,
      "v": 65
    },
    {
      "midi": 69,
      "hit": false,
      "t": 184454.53514583185,
      "d": 345.7442083333153,
      "v": 60
    },
    {
      "midi": 65,
      "hit": false,
      "t": 184454.53514583185,
      "d": 352.3931354166416,
      "v": 63
    },
    {
      "midi": 60,
      "hit": false,
      "t": 184780.33257291518,
      "d": 325.7974270832783,
      "v": 62
    },
    {
      "midi": 72,
      "hit": false,
      "t": 185092.8321458318,
      "d": 332.4463541666337,
      "v": 69
    },
    {
      "midi": 69,
      "hit": false,
      "t": 185092.8321458318,
      "d": 339.09528124995995,
      "v": 63
    },
    {
      "midi": 65,
      "hit": false,
      "t": 185092.8321458318,
      "d": 352.3931354166125,
      "v": 69
    },
    {
      "midi": 60,
      "hit": false,
      "t": 185411.9806458318,
      "d": 339.09528124995995,
      "v": 70
    },
    {
      "midi": 72,
      "hit": false,
      "t": 185731.12914583174,
      "d": 339.09528124998906,
      "v": 69
    },
    {
      "midi": 65,
      "hit": false,
      "t": 185731.12914583174,
      "d": 352.3931354166416,
      "v": 69
    },
    {
      "midi": 69,
      "hit": false,
      "t": 185731.12914583174,
      "d": 352.3931354166416,
      "v": 67
    },
    {
      "midi": 60,
      "hit": false,
      "t": 186056.92657291508,
      "d": 332.4463541666337,
      "v": 68
    },
    {
      "midi": 69,
      "hit": false,
      "t": 186369.4261458317,
      "d": 339.09528124998906,
      "v": 67
    },
    {
      "midi": 72,
      "hit": false,
      "t": 186369.4261458317,
      "d": 339.09528124998906,
      "v": 69
    },
    {
      "midi": 65,
      "hit": false,
      "t": 186369.4261458317,
      "d": 352.3931354166416,
      "v": 69
    },
    {
      "midi": 60,
      "hit": false,
      "t": 186695.22357291504,
      "d": 332.4463541666337,
      "v": 64
    },
    {
      "midi": 72,
      "hit": false,
      "t": 187007.72314583167,
      "d": 345.74420833334443,
      "v": 69
    },
    {
      "midi": 69,
      "hit": false,
      "t": 187007.72314583167,
      "d": 352.3931354166707,
      "v": 64
    },
    {
      "midi": 65,
      "hit": false,
      "t": 187007.72314583167,
      "d": 359.042062499997,
      "v": 67
    },
    {
      "midi": 60,
      "hit": false,
      "t": 187333.520572915,
      "d": 319.14849999998114,
      "v": 61
    },
    {
      "midi": 69,
      "hit": false,
      "t": 187646.02014583166,
      "d": 339.09528124998906,
      "v": 60
    },
    {
      "midi": 72,
      "hit": false,
      "t": 187646.02014583166,
      "d": 339.09528124998906,
      "v": 67
    },
    {
      "midi": 65,
      "hit": false,
      "t": 187646.02014583166,
      "d": 352.3931354166416,
      "v": 61
    },
    {
      "midi": 60,
      "hit": false,
      "t": 187971.817572915,
      "d": 332.4463541666046,
      "v": 67
    },
    {
      "midi": 65,
      "hit": false,
      "t": 188284.31714583162,
      "d": 392.2866979166283,
      "v": 65
    },
    {
      "midi": 69,
      "hit": false,
      "t": 188290.96607291495,
      "d": 378.9888437499758,
      "v": 63
    },
    {
      "midi": 72,
      "hit": false,
      "t": 188290.96607291495,
      "d": 378.9888437499758,
      "v": 69
    },
    {
      "midi": 60,
      "hit": false,
      "t": 188610.11457291493,
      "d": 292.55279166664695,
      "v": 61
    },
    {
      "midi": 72,
      "hit": false,
      "t": 188935.91199999824,
      "d": 398.9356250000128,
      "v": 74
    },
    {
      "midi": 69,
      "hit": false,
      "t": 188935.91199999824,
      "d": 405.5845520833391,
      "v": 71
    },
    {
      "midi": 65,
      "hit": false,
      "t": 188935.91199999824,
      "d": 425.531333333347,
      "v": 72
    },
    {
      "midi": 60,
      "hit": false,
      "t": 189261.70942708157,
      "d": 405.5845520833682,
      "v": 63
    },
    {
      "midi": 72,
      "hit": false,
      "t": 189567.56007291493,
      "d": 359.042062499997,
      "v": 71
    },
    {
      "midi": 65,
      "hit": false,
      "t": 189567.56007291493,
      "d": 398.9356249999837,
      "v": 65
    },
    {
      "midi": 69,
      "hit": false,
      "t": 189567.56007291493,
      "d": 398.9356249999837,
      "v": 58
    },
    {
      "midi": 60,
      "hit": false,
      "t": 189886.70857291494,
      "d": 392.28669791665743,
      "v": 64
    },
    {
      "midi": 72,
      "hit": false,
      "t": 190205.85707291492,
      "d": 352.3931354166707,
      "v": 76
    },
    {
      "midi": 69,
      "hit": false,
      "t": 190205.85707291492,
      "d": 385.63777083333116,
      "v": 71
    },
    {
      "midi": 65,
      "hit": false,
      "t": 190205.85707291492,
      "d": 398.9356249999837,
      "v": 69
    },
    {
      "midi": 60,
      "hit": false,
      "t": 190531.65449999826,
      "d": 412.23347916663624,
      "v": 67
    },
    {
      "midi": 65,
      "hit": false,
      "t": 190844.1540729149,
      "d": 352.3931354166416,
      "v": 69
    },
    {
      "midi": 69,
      "hit": false,
      "t": 190844.1540729149,
      "d": 372.3399166666495,
      "v": 71
    },
    {
      "midi": 72,
      "hit": false,
      "t": 190857.45192708157,
      "d": 332.4463541666628,
      "v": 75
    },
    {
      "midi": 60,
      "hit": false,
      "t": 191169.95149999822,
      "d": 265.95708333334187,
      "v": 64
    },
    {
      "midi": 72,
      "hit": false,
      "t": 191489.09999999823,
      "d": 378.9888437500049,
      "v": 69
    },
    {
      "midi": 67,
      "hit": false,
      "t": 191495.74892708156,
      "d": 378.9888437500049,
      "v": 72
    },
    {
      "midi": 64,
      "hit": false,
      "t": 191495.74892708156,
      "d": 392.28669791665743,
      "v": 64
    },
    {
      "midi": 60,
      "hit": false,
      "t": 191814.89742708157,
      "d": 359.04206249996787,
      "v": 61
    },
    {
      "midi": 67,
      "hit": false,
      "t": 192134.04592708155,
      "d": 345.7442083333153,
      "v": 77
    },
    {
      "midi": 72,
      "hit": false,
      "t": 192134.04592708155,
      "d": 345.7442083333153,
      "v": 70
    },
    {
      "midi": 64,
      "hit": false,
      "t": 192134.04592708155,
      "d": 352.3931354166416,
      "v": 66
    },
    {
      "midi": 60,
      "hit": false,
      "t": 192453.19442708153,
      "d": 319.14849999998114,
      "v": 67
    },
    {
      "midi": 67,
      "hit": false,
      "t": 192759.04507291486,
      "d": 332.4463541666628,
      "v": 78
    },
    {
      "midi": 64,
      "hit": false,
      "t": 192759.04507291486,
      "d": 339.09528124998906,
      "v": 72
    },
    {
      "midi": 72,
      "hit": false,
      "t": 192759.04507291486,
      "d": 352.3931354166416,
      "v": 80
    },
    {
      "midi": 60,
      "hit": false,
      "t": 193091.49142708152,
      "d": 332.4463541666337,
      "v": 71
    },
    {
      "midi": 67,
      "hit": false,
      "t": 193397.34207291482,
      "d": 319.14850000001024,
      "v": 81
    },
    {
      "midi": 72,
      "hit": false,
      "t": 193397.34207291482,
      "d": 319.14850000001024,
      "v": 78
    },
    {
      "midi": 64,
      "hit": false,
      "t": 193397.34207291482,
      "d": 345.74420833334443,
      "v": 78
    },
    {
      "midi": 60,
      "hit": false,
      "t": 193716.49057291483,
      "d": 299.2017187500023,
      "v": 76
    },
    {
      "midi": 72,
      "hit": false,
      "t": 194035.63907291484,
      "d": 345.74420833334443,
      "v": 78
    },
    {
      "midi": 65,
      "hit": false,
      "t": 194035.63907291484,
      "d": 365.69098958335235,
      "v": 65
    },
    {
      "midi": 69,
      "hit": false,
      "t": 194035.63907291484,
      "d": 365.69098958335235,
      "v": 77
    },
    {
      "midi": 60,
      "hit": false,
      "t": 194354.78757291485,
      "d": 359.042062499997,
      "v": 69
    },
    {
      "midi": 72,
      "hit": false,
      "t": 194673.93607291486,
      "d": 339.09528124998906,
      "v": 71
    },
    {
      "midi": 69,
      "hit": false,
      "t": 194673.93607291486,
      "d": 345.7442083333153,
      "v": 77
    },
    {
      "midi": 65,
      "hit": false,
      "t": 194673.93607291486,
      "d": 372.3399166666495,
      "v": 73
    },
    {
      "midi": 60,
      "hit": false,
      "t": 194993.08457291484,
      "d": 325.7974270833074,
      "v": 71
    },
    {
      "midi": 72,
      "hit": false,
      "t": 195305.5841458315,
      "d": 312.49957291665487,
      "v": 76
    },
    {
      "midi": 69,
      "hit": false,
      "t": 195305.5841458315,
      "d": 345.7442083333153,
      "v": 78
    },
    {
      "midi": 65,
      "hit": false,
      "t": 195305.5841458315,
      "d": 378.9888437499758,
      "v": 75
    },
    {
      "midi": 60,
      "hit": false,
      "t": 195624.73264583148,
      "d": 359.04206249996787,
      "v": 71
    },
    {
      "midi": 65,
      "hit": false,
      "t": 195943.88114583146,
      "d": 472.07382291666,
      "v": 78
    },
    {
      "midi": 69,
      "hit": false,
      "t": 195943.88114583146,
      "d": 472.07382291666,
      "v": 81
    },
    {
      "midi": 72,
      "hit": false,
      "t": 195943.88114583146,
      "d": 472.07382291666,
      "v": 78
    },
    {
      "midi": 60,
      "hit": false,
      "t": 196263.02964583144,
      "d": 292.55279166667606,
      "v": 71
    },
    {
      "midi": 69,
      "hit": false,
      "t": 196575.52921874812,
      "d": 359.042062499997,
      "v": 78
    },
    {
      "midi": 72,
      "hit": false,
      "t": 196582.17814583145,
      "d": 325.7974270833365,
      "v": 69
    },
    {
      "midi": 64,
      "hit": false,
      "t": 196582.17814583145,
      "d": 332.4463541666628,
      "v": 72
    },
    {
      "midi": 60,
      "hit": false,
      "t": 196901.32664583146,
      "d": 359.042062499997,
      "v": 71
    },
    {
      "midi": 72,
      "hit": false,
      "t": 197213.82621874812,
      "d": 339.09528124998906,
      "v": 72
    },
    {
      "midi": 64,
      "hit": false,
      "t": 197213.82621874812,
      "d": 345.7442083333153,
      "v": 71
    },
    {
      "midi": 69,
      "hit": false,
      "t": 197213.82621874812,
      "d": 365.69098958332324,
      "v": 73
    },
    {
      "midi": 60,
      "hit": false,
      "t": 197539.62364583145,
      "d": 372.3399166666495,
      "v": 69
    },
    {
      "midi": 72,
      "hit": false,
      "t": 197858.77214583143,
      "d": 319.14850000001024,
      "v": 71
    },
    {
      "midi": 64,
      "hit": false,
      "t": 197858.77214583143,
      "d": 345.74420833334443,
      "v": 71
    },
    {
      "midi": 69,
      "hit": false,
      "t": 197858.77214583143,
      "d": 345.74420833334443,
      "v": 76
    },
    {
      "midi": 60,
      "hit": false,
      "t": 198177.92064583144,
      "d": 359.042062499997,
      "v": 78
    },
    {
      "midi": 72,
      "hit": false,
      "t": 198497.06914583145,
      "d": 305.8506458333286,
      "v": 78
    },
    {
      "midi": 69,
      "hit": false,
      "t": 198497.06914583145,
      "d": 319.14849999998114,
      "v": 83
    },
    {
      "midi": 64,
      "hit": false,
      "t": 198497.06914583145,
      "d": 339.09528124998906,
      "v": 81
    },
    {
      "midi": 60,
      "hit": false,
      "t": 198816.21764583144,
      "d": 239.36137500000768,
      "v": 78
    },
    {
      "midi": 70,
      "hit": false,
      "t": 199148.6639999981,
      "d": 319.14849999998114,
      "v": 73
    },
    {
      "midi": 74,
      "hit": false,
      "t": 199148.6639999981,
      "d": 319.14849999998114,
      "v": 75
    },
    {
      "midi": 65,
      "hit": false,
      "t": 199148.6639999981,
      "d": 345.7442083333153,
      "v": 69
    },
    {
      "midi": 62,
      "hit": false,
      "t": 199454.51464583143,
      "d": 359.04206249996787,
      "v": 67
    },
    {
      "midi": 65,
      "hit": false,
      "t": 199767.01421874808,
      "d": 385.63777083330206,
      "v": 69
    },
    {
      "midi": 74,
      "hit": false,
      "t": 199773.6631458314,
      "d": 345.7442083333153,
      "v": 80
    },
    {
      "midi": 70,
      "hit": false,
      "t": 199773.6631458314,
      "d": 352.3931354166416,
      "v": 70
    },
    {
      "midi": 62,
      "hit": false,
      "t": 200092.8116458314,
      "d": 325.7974270833074,
      "v": 69
    },
    {
      "midi": 74,
      "hit": false,
      "t": 200411.96014583137,
      "d": 339.09528124998906,
      "v": 82
    },
    {
      "midi": 70,
      "hit": false,
      "t": 200411.96014583137,
      "d": 345.7442083333153,
      "v": 71
    },
    {
      "midi": 65,
      "hit": false,
      "t": 200411.96014583137,
      "d": 378.9888437499758,
      "v": 71
    },
    {
      "midi": 62,
      "hit": false,
      "t": 200731.10864583135,
      "d": 392.28669791665743,
      "v": 69
    },
    {
      "midi": 65,
      "hit": false,
      "t": 201050.25714583133,
      "d": 465.4248958333337,
      "v": 69
    },
    {
      "midi": 70,
      "hit": false,
      "t": 201050.25714583133,
      "d": 472.07382291666,
      "v": 69
    },
    {
      "midi": 74,
      "hit": false,
      "t": 201050.25714583133,
      "d": 478.72274999998626,
      "v": 78
    },
    {
      "midi": 62,
      "hit": false,
      "t": 201376.05457291467,
      "d": 292.55279166664695,
      "v": 67
    },
    {
      "midi": 74,
      "hit": false,
      "t": 201695.20307291465,
      "d": 352.3931354166707,
      "v": 78
    },
    {
      "midi": 65,
      "hit": false,
      "t": 201695.20307291465,
      "d": 378.9888437500049,
      "v": 69
    },
    {
      "midi": 70,
      "hit": false,
      "t": 201695.20307291465,
      "d": 378.9888437500049,
      "v": 66
    },
    {
      "midi": 62,
      "hit": false,
      "t": 202021.000499998,
      "d": 359.042062499997,
      "v": 69
    },
    {
      "midi": 70,
      "hit": false,
      "t": 202333.50007291464,
      "d": 372.3399166666786,
      "v": 72
    },
    {
      "midi": 74,
      "hit": false,
      "t": 202333.50007291464,
      "d": 392.28669791668653,
      "v": 84
    },
    {
      "midi": 65,
      "hit": false,
      "t": 202333.50007291464,
      "d": 398.9356250000128,
      "v": 70
    },
    {
      "midi": 62,
      "hit": false,
      "t": 202652.64857291465,
      "d": 272.60601041666814,
      "v": 70
    },
    {
      "midi": 74,
      "hit": false,
      "t": 202971.79707291466,
      "d": 345.7442083333153,
      "v": 90
    },
    {
      "midi": 70,
      "hit": false,
      "t": 202971.79707291466,
      "d": 359.04206249996787,
      "v": 76
    },
    {
      "midi": 65,
      "hit": false,
      "t": 202971.79707291466,
      "d": 372.3399166666204,
      "v": 77
    },
    {
      "midi": 62,
      "hit": false,
      "t": 203304.24342708132,
      "d": 365.69098958329414,
      "v": 78
    },
    {
      "midi": 65,
      "hit": false,
      "t": 203623.39192708128,
      "d": 472.0738229166891,
      "v": 76
    },
    {
      "midi": 70,
      "hit": false,
      "t": 203623.39192708128,
      "d": 472.0738229166891,
      "v": 75
    },
    {
      "midi": 74,
      "hit": false,
      "t": 203623.39192708128,
      "d": 472.0738229166891,
      "v": 87
    },
    {
      "midi": 62,
      "hit": false,
      "t": 203935.89149999796,
      "d": 365.69098958335235,
      "v": 78
    },
    {
      "midi": 65,
      "hit": false,
      "t": 204255.03999999797,
      "d": 339.09528125001816,
      "v": 74
    },
    {
      "midi": 69,
      "hit": false,
      "t": 204255.03999999797,
      "d": 339.09528125001816,
      "v": 73
    },
    {
      "midi": 72,
      "hit": false,
      "t": 204255.03999999797,
      "d": 339.09528125001816,
      "v": 83
    },
    {
      "midi": 60,
      "hit": false,
      "t": 204567.53957291465,
      "d": 345.7442083333153,
      "v": 62
    },
    {
      "midi": 72,
      "hit": false,
      "t": 204880.0391458313,
      "d": 339.09528124998906,
      "v": 65
    },
    {
      "midi": 69,
      "hit": false,
      "t": 204880.0391458313,
      "d": 345.7442083333153,
      "v": 60
    },
    {
      "midi": 65,
      "hit": false,
      "t": 204880.0391458313,
      "d": 352.3931354166416,
      "v": 63
    },
    {
      "midi": 60,
      "hit": false,
      "t": 205205.83657291465,
      "d": 325.7974270832783,
      "v": 62
    },
    {
      "midi": 72,
      "hit": false,
      "t": 205518.33614583127,
      "d": 332.4463541666337,
      "v": 69
    },
    {
      "midi": 69,
      "hit": false,
      "t": 205518.33614583127,
      "d": 339.09528124995995,
      "v": 63
    },
    {
      "midi": 65,
      "hit": false,
      "t": 205518.33614583127,
      "d": 352.3931354166125,
      "v": 69
    },
    {
      "midi": 60,
      "hit": false,
      "t": 205837.48464583125,
      "d": 339.09528124995995,
      "v": 70
    },
    {
      "midi": 72,
      "hit": false,
      "t": 206156.6331458312,
      "d": 339.09528124998906,
      "v": 69
    },
    {
      "midi": 65,
      "hit": false,
      "t": 206156.6331458312,
      "d": 352.3931354166416,
      "v": 69
    },
    {
      "midi": 69,
      "hit": false,
      "t": 206156.6331458312,
      "d": 352.3931354166416,
      "v": 67
    },
    {
      "midi": 60,
      "hit": false,
      "t": 206482.43057291454,
      "d": 332.4463541666337,
      "v": 68
    },
    {
      "midi": 69,
      "hit": false,
      "t": 206794.93014583117,
      "d": 339.09528124998906,
      "v": 67
    },
    {
      "midi": 72,
      "hit": false,
      "t": 206794.93014583117,
      "d": 339.09528124998906,
      "v": 69
    },
    {
      "midi": 65,
      "hit": false,
      "t": 206794.93014583117,
      "d": 352.3931354166416,
      "v": 69
    },
    {
      "midi": 60,
      "hit": false,
      "t": 207120.7275729145,
      "d": 332.4463541666337,
      "v": 64
    },
    {
      "midi": 72,
      "hit": false,
      "t": 207433.22714583113,
      "d": 345.74420833334443,
      "v": 69
    },
    {
      "midi": 69,
      "hit": false,
      "t": 207433.22714583113,
      "d": 352.3931354166707,
      "v": 64
    },
    {
      "midi": 65,
      "hit": false,
      "t": 207433.22714583113,
      "d": 359.042062499997,
      "v": 67
    },
    {
      "midi": 60,
      "hit": false,
      "t": 207759.02457291447,
      "d": 319.14849999998114,
      "v": 61
    },
    {
      "midi": 69,
      "hit": false,
      "t": 208071.52414583112,
      "d": 339.09528124998906,
      "v": 60
    },
    {
      "midi": 72,
      "hit": false,
      "t": 208071.52414583112,
      "d": 339.09528124998906,
      "v": 67
    },
    {
      "midi": 65,
      "hit": false,
      "t": 208071.52414583112,
      "d": 352.3931354166416,
      "v": 61
    },
    {
      "midi": 60,
      "hit": false,
      "t": 208397.32157291446,
      "d": 332.4463541666046,
      "v": 67
    },
    {
      "midi": 65,
      "hit": false,
      "t": 208709.82114583108,
      "d": 392.2866979166283,
      "v": 65
    },
    {
      "midi": 69,
      "hit": false,
      "t": 208716.4700729144,
      "d": 378.9888437499758,
      "v": 63
    },
    {
      "midi": 72,
      "hit": false,
      "t": 208716.4700729144,
      "d": 378.9888437499758,
      "v": 69
    },
    {
      "midi": 60,
      "hit": false,
      "t": 209035.6185729144,
      "d": 292.55279166664695,
      "v": 61
    },
    {
      "midi": 72,
      "hit": false,
      "t": 209361.4159999977,
      "d": 398.9356250000128,
      "v": 74
    },
    {
      "midi": 69,
      "hit": false,
      "t": 209361.4159999977,
      "d": 405.5845520833391,
      "v": 71
    },
    {
      "midi": 65,
      "hit": false,
      "t": 209361.4159999977,
      "d": 425.531333333347,
      "v": 72
    },
    {
      "midi": 60,
      "hit": false,
      "t": 209687.21342708103,
      "d": 405.5845520833682,
      "v": 63
    },
    {
      "midi": 72,
      "hit": false,
      "t": 209993.0640729144,
      "d": 359.042062499997,
      "v": 71
    },
    {
      "midi": 65,
      "hit": false,
      "t": 209993.0640729144,
      "d": 398.9356249999837,
      "v": 65
    },
    {
      "midi": 69,
      "hit": false,
      "t": 209993.0640729144,
      "d": 398.9356249999837,
      "v": 58
    },
    {
      "midi": 60,
      "hit": false,
      "t": 210312.2125729144,
      "d": 392.28669791665743,
      "v": 64
    },
    {
      "midi": 72,
      "hit": false,
      "t": 210631.36107291438,
      "d": 352.3931354166707,
      "v": 76
    },
    {
      "midi": 69,
      "hit": false,
      "t": 210631.36107291438,
      "d": 385.63777083333116,
      "v": 71
    },
    {
      "midi": 65,
      "hit": false,
      "t": 210631.36107291438,
      "d": 398.9356249999837,
      "v": 69
    },
    {
      "midi": 60,
      "hit": false,
      "t": 210957.15849999772,
      "d": 412.23347916663624,
      "v": 67
    },
    {
      "midi": 65,
      "hit": false,
      "t": 211269.65807291438,
      "d": 352.3931354166416,
      "v": 69
    },
    {
      "midi": 69,
      "hit": false,
      "t": 211269.65807291438,
      "d": 372.3399166666495,
      "v": 71
    },
    {
      "midi": 72,
      "hit": false,
      "t": 211282.95592708103,
      "d": 332.4463541666628,
      "v": 75
    },
    {
      "midi": 60,
      "hit": false,
      "t": 211595.45549999768,
      "d": 265.95708333334187,
      "v": 64
    },
    {
      "midi": 72,
      "hit": false,
      "t": 211914.6039999977,
      "d": 378.9888437500049,
      "v": 69
    },
    {
      "midi": 67,
      "hit": false,
      "t": 211921.25292708102,
      "d": 378.9888437500049,
      "v": 72
    },
    {
      "midi": 64,
      "hit": false,
      "t": 211921.25292708102,
      "d": 392.28669791665743,
      "v": 64
    },
    {
      "midi": 60,
      "hit": false,
      "t": 212240.40142708103,
      "d": 359.04206249996787,
      "v": 61
    },
    {
      "midi": 67,
      "hit": false,
      "t": 212559.549927081,
      "d": 345.7442083333153,
      "v": 77
    },
    {
      "midi": 72,
      "hit": false,
      "t": 212559.549927081,
      "d": 345.7442083333153,
      "v": 70
    },
    {
      "midi": 64,
      "hit": false,
      "t": 212559.549927081,
      "d": 352.3931354166416,
      "v": 66
    },
    {
      "midi": 60,
      "hit": false,
      "t": 212878.698427081,
      "d": 319.14849999998114,
      "v": 67
    },
    {
      "midi": 67,
      "hit": false,
      "t": 213184.54907291432,
      "d": 332.4463541666628,
      "v": 78
    },
    {
      "midi": 64,
      "hit": false,
      "t": 213184.54907291432,
      "d": 339.09528124998906,
      "v": 72
    },
    {
      "midi": 72,
      "hit": false,
      "t": 213184.54907291432,
      "d": 352.3931354166416,
      "v": 80
    },
    {
      "midi": 60,
      "hit": false,
      "t": 213516.99542708098,
      "d": 332.4463541666337,
      "v": 71
    },
    {
      "midi": 67,
      "hit": false,
      "t": 213822.84607291428,
      "d": 319.14850000001024,
      "v": 81
    },
    {
      "midi": 72,
      "hit": false,
      "t": 213822.84607291428,
      "d": 319.14850000001024,
      "v": 78
    },
    {
      "midi": 64,
      "hit": false,
      "t": 213822.84607291428,
      "d": 345.74420833334443,
      "v": 78
    },
    {
      "midi": 60,
      "hit": false,
      "t": 214141.9945729143,
      "d": 299.2017187500023,
      "v": 76
    },
    {
      "midi": 72,
      "hit": false,
      "t": 214461.1430729143,
      "d": 345.74420833334443,
      "v": 78
    },
    {
      "midi": 65,
      "hit": false,
      "t": 214461.1430729143,
      "d": 365.69098958335235,
      "v": 65
    },
    {
      "midi": 69,
      "hit": false,
      "t": 214461.1430729143,
      "d": 365.69098958335235,
      "v": 77
    },
    {
      "midi": 60,
      "hit": false,
      "t": 214780.2915729143,
      "d": 359.042062499997,
      "v": 69
    },
    {
      "midi": 72,
      "hit": false,
      "t": 215099.44007291432,
      "d": 339.09528124998906,
      "v": 71
    },
    {
      "midi": 69,
      "hit": false,
      "t": 215099.44007291432,
      "d": 345.7442083333153,
      "v": 77
    },
    {
      "midi": 65,
      "hit": false,
      "t": 215099.44007291432,
      "d": 372.3399166666495,
      "v": 73
    },
    {
      "midi": 60,
      "hit": false,
      "t": 215418.5885729143,
      "d": 325.7974270833074,
      "v": 71
    },
    {
      "midi": 72,
      "hit": false,
      "t": 215731.08814583096,
      "d": 312.49957291665487,
      "v": 76
    },
    {
      "midi": 69,
      "hit": false,
      "t": 215731.08814583096,
      "d": 345.7442083333153,
      "v": 78
    },
    {
      "midi": 65,
      "hit": false,
      "t": 215731.08814583096,
      "d": 378.9888437499758,
      "v": 75
    },
    {
      "midi": 60,
      "hit": false,
      "t": 216050.23664583094,
      "d": 359.04206249996787,
      "v": 71
    },
    {
      "midi": 65,
      "hit": false,
      "t": 216369.38514583092,
      "d": 472.07382291666,
      "v": 78
    },
    {
      "midi": 69,
      "hit": false,
      "t": 216369.38514583092,
      "d": 472.07382291666,
      "v": 81
    },
    {
      "midi": 72,
      "hit": false,
      "t": 216369.38514583092,
      "d": 472.07382291666,
      "v": 78
    },
    {
      "midi": 60,
      "hit": false,
      "t": 216688.5336458309,
      "d": 292.55279166667606,
      "v": 71
    },
    {
      "midi": 69,
      "hit": false,
      "t": 217001.0332187476,
      "d": 359.042062499997,
      "v": 78
    },
    {
      "midi": 72,
      "hit": false,
      "t": 217007.6821458309,
      "d": 325.7974270833365,
      "v": 69
    },
    {
      "midi": 64,
      "hit": false,
      "t": 217007.6821458309,
      "d": 332.4463541666628,
      "v": 72
    },
    {
      "midi": 60,
      "hit": false,
      "t": 217326.83064583092,
      "d": 359.042062499997,
      "v": 71
    },
    {
      "midi": 72,
      "hit": false,
      "t": 217639.33021874758,
      "d": 339.09528124998906,
      "v": 72
    },
    {
      "midi": 64,
      "hit": false,
      "t": 217639.33021874758,
      "d": 345.7442083333153,
      "v": 71
    },
    {
      "midi": 69,
      "hit": false,
      "t": 217639.33021874758,
      "d": 365.69098958332324,
      "v": 73
    },
    {
      "midi": 60,
      "hit": false,
      "t": 217965.12764583091,
      "d": 372.3399166666495,
      "v": 69
    },
    {
      "midi": 72,
      "hit": false,
      "t": 218284.2761458309,
      "d": 319.14850000001024,
      "v": 71
    },
    {
      "midi": 64,
      "hit": false,
      "t": 218284.2761458309,
      "d": 345.74420833334443,
      "v": 71
    },
    {
      "midi": 69,
      "hit": false,
      "t": 218284.2761458309,
      "d": 345.74420833334443,
      "v": 76
    },
    {
      "midi": 60,
      "hit": false,
      "t": 218603.4246458309,
      "d": 359.042062499997,
      "v": 78
    },
    {
      "midi": 72,
      "hit": false,
      "t": 218922.57314583092,
      "d": 305.8506458333286,
      "v": 78
    },
    {
      "midi": 69,
      "hit": false,
      "t": 218922.57314583092,
      "d": 319.14849999998114,
      "v": 83
    },
    {
      "midi": 64,
      "hit": false,
      "t": 218922.57314583092,
      "d": 339.09528124998906,
      "v": 81
    },
    {
      "midi": 60,
      "hit": false,
      "t": 219241.7216458309,
      "d": 239.36137500000768,
      "v": 78
    },
    {
      "midi": 70,
      "hit": false,
      "t": 219574.16799999756,
      "d": 319.14849999998114,
      "v": 73
    },
    {
      "midi": 74,
      "hit": false,
      "t": 219574.16799999756,
      "d": 319.14849999998114,
      "v": 75
    },
    {
      "midi": 65,
      "hit": false,
      "t": 219574.16799999756,
      "d": 345.7442083333153,
      "v": 69
    },
    {
      "midi": 62,
      "hit": false,
      "t": 219880.0186458309,
      "d": 359.04206249996787,
      "v": 67
    },
    {
      "midi": 65,
      "hit": false,
      "t": 220192.51821874754,
      "d": 385.63777083330206,
      "v": 69
    },
    {
      "midi": 74,
      "hit": false,
      "t": 220199.16714583087,
      "d": 345.7442083333153,
      "v": 80
    },
    {
      "midi": 70,
      "hit": false,
      "t": 220199.16714583087,
      "d": 352.3931354166416,
      "v": 70
    },
    {
      "midi": 62,
      "hit": false,
      "t": 220518.31564583085,
      "d": 325.7974270833074,
      "v": 69
    },
    {
      "midi": 74,
      "hit": false,
      "t": 220837.46414583083,
      "d": 339.09528124998906,
      "v": 82
    },
    {
      "midi": 70,
      "hit": false,
      "t": 220837.46414583083,
      "d": 345.7442083333153,
      "v": 71
    },
    {
      "midi": 65,
      "hit": false,
      "t": 220837.46414583083,
      "d": 378.9888437499758,
      "v": 71
    },
    {
      "midi": 62,
      "hit": false,
      "t": 221156.6126458308,
      "d": 392.28669791665743,
      "v": 69
    },
    {
      "midi": 65,
      "hit": false,
      "t": 221475.7611458308,
      "d": 465.4248958333337,
      "v": 69
    },
    {
      "midi": 70,
      "hit": false,
      "t": 221475.7611458308,
      "d": 472.07382291666,
      "v": 69
    },
    {
      "midi": 74,
      "hit": false,
      "t": 221475.7611458308,
      "d": 478.72274999998626,
      "v": 78
    },
    {
      "midi": 62,
      "hit": false,
      "t": 221801.55857291413,
      "d": 292.55279166664695,
      "v": 67
    },
    {
      "midi": 74,
      "hit": false,
      "t": 222120.7070729141,
      "d": 352.3931354166707,
      "v": 78
    },
    {
      "midi": 65,
      "hit": false,
      "t": 222120.7070729141,
      "d": 378.9888437500049,
      "v": 69
    },
    {
      "midi": 70,
      "hit": false,
      "t": 222120.7070729141,
      "d": 378.9888437500049,
      "v": 66
    },
    {
      "midi": 62,
      "hit": false,
      "t": 222446.50449999745,
      "d": 359.042062499997,
      "v": 69
    },
    {
      "midi": 70,
      "hit": false,
      "t": 222759.0040729141,
      "d": 372.3399166666786,
      "v": 72
    },
    {
      "midi": 74,
      "hit": false,
      "t": 222759.0040729141,
      "d": 392.28669791668653,
      "v": 84
    },
    {
      "midi": 65,
      "hit": false,
      "t": 222759.0040729141,
      "d": 398.9356250000128,
      "v": 70
    },
    {
      "midi": 62,
      "hit": false,
      "t": 223078.1525729141,
      "d": 272.60601041666814,
      "v": 70
    },
    {
      "midi": 74,
      "hit": false,
      "t": 223397.30107291412,
      "d": 345.7442083333153,
      "v": 90
    },
    {
      "midi": 70,
      "hit": false,
      "t": 223397.30107291412,
      "d": 359.04206249996787,
      "v": 76
    },
    {
      "midi": 65,
      "hit": false,
      "t": 223397.30107291412,
      "d": 372.3399166666204,
      "v": 77
    },
    {
      "midi": 62,
      "hit": false,
      "t": 223729.7474270808,
      "d": 365.69098958329414,
      "v": 78
    },
    {
      "midi": 65,
      "hit": false,
      "t": 224048.89592708074,
      "d": 472.0738229166891,
      "v": 76
    },
    {
      "midi": 70,
      "hit": false,
      "t": 224048.89592708074,
      "d": 472.0738229166891,
      "v": 75
    },
    {
      "midi": 74,
      "hit": false,
      "t": 224048.89592708074,
      "d": 472.0738229166891,
      "v": 87
    },
    {
      "midi": 62,
      "hit": false,
      "t": 224361.39549999742,
      "d": 365.69098958335235,
      "v": 78
    },
    {
      "midi": 65,
      "hit": false,
      "t": 224680.54399999743,
      "d": 339.09528125001816,
      "v": 74
    },
    {
      "midi": 69,
      "hit": false,
      "t": 224680.54399999743,
      "d": 339.09528125001816,
      "v": 73
    },
    {
      "midi": 72,
      "hit": false,
      "t": 224680.54399999743,
      "d": 339.09528125001816,
      "v": 83
    },
    {
      "midi": 60,
      "hit": false,
      "t": 224993.04357291412,
      "d": 345.7442083333153,
      "v": 62
    },
    {
      "midi": 72,
      "hit": false,
      "t": 225305.54314583077,
      "d": 339.09528124998906,
      "v": 65
    },
    {
      "midi": 69,
      "hit": false,
      "t": 225305.54314583077,
      "d": 345.7442083333153,
      "v": 60
    },
    {
      "midi": 65,
      "hit": false,
      "t": 225305.54314583077,
      "d": 352.3931354166416,
      "v": 63
    },
    {
      "midi": 60,
      "hit": false,
      "t": 225631.3405729141,
      "d": 325.7974270832783,
      "v": 62
    },
    {
      "midi": 72,
      "hit": false,
      "t": 225943.84014583073,
      "d": 332.4463541666337,
      "v": 69
    },
    {
      "midi": 69,
      "hit": false,
      "t": 225943.84014583073,
      "d": 339.09528124995995,
      "v": 63
    },
    {
      "midi": 65,
      "hit": false,
      "t": 225943.84014583073,
      "d": 352.3931354166125,
      "v": 69
    },
    {
      "midi": 60,
      "hit": false,
      "t": 226262.98864583072,
      "d": 339.09528124995995,
      "v": 70
    },
    {
      "midi": 72,
      "hit": false,
      "t": 226582.13714583067,
      "d": 339.09528124998906,
      "v": 69
    },
    {
      "midi": 65,
      "hit": false,
      "t": 226582.13714583067,
      "d": 352.3931354166416,
      "v": 69
    },
    {
      "midi": 69,
      "hit": false,
      "t": 226582.13714583067,
      "d": 352.3931354166416,
      "v": 67
    },
    {
      "midi": 60,
      "hit": false,
      "t": 226907.934572914,
      "d": 332.4463541666337,
      "v": 68
    },
    {
      "midi": 69,
      "hit": false,
      "t": 227220.43414583063,
      "d": 339.09528124998906,
      "v": 67
    },
    {
      "midi": 72,
      "hit": false,
      "t": 227220.43414583063,
      "d": 339.09528124998906,
      "v": 69
    },
    {
      "midi": 65,
      "hit": false,
      "t": 227220.43414583063,
      "d": 352.3931354166416,
      "v": 69
    },
    {
      "midi": 60,
      "hit": false,
      "t": 227546.23157291397,
      "d": 332.4463541666337,
      "v": 64
    },
    {
      "midi": 72,
      "hit": false,
      "t": 227858.7311458306,
      "d": 345.74420833334443,
      "v": 69
    },
    {
      "midi": 69,
      "hit": false,
      "t": 227858.7311458306,
      "d": 352.3931354166707,
      "v": 64
    },
    {
      "midi": 65,
      "hit": false,
      "t": 227858.7311458306,
      "d": 359.042062499997,
      "v": 67
    },
    {
      "midi": 60,
      "hit": false,
      "t": 228184.52857291393,
      "d": 319.14849999998114,
      "v": 61
    },
    {
      "midi": 69,
      "hit": false,
      "t": 228497.02814583058,
      "d": 339.09528124998906,
      "v": 60
    },
    {
      "midi": 72,
      "hit": false,
      "t": 228497.02814583058,
      "d": 339.09528124998906,
      "v": 67
    },
    {
      "midi": 65,
      "hit": false,
      "t": 228497.02814583058,
      "d": 352.3931354166416,
      "v": 61
    },
    {
      "midi": 60,
      "hit": false,
      "t": 228822.82557291392,
      "d": 332.4463541666046,
      "v": 67
    },
    {
      "midi": 65,
      "hit": false,
      "t": 229135.32514583055,
      "d": 392.2866979166283,
      "v": 65
    },
    {
      "midi": 69,
      "hit": false,
      "t": 229141.97407291387,
      "d": 378.9888437499758,
      "v": 63
    },
    {
      "midi": 72,
      "hit": false,
      "t": 229141.97407291387,
      "d": 378.9888437499758,
      "v": 69
    },
    {
      "midi": 60,
      "hit": false,
      "t": 229461.12257291385,
      "d": 292.55279166664695,
      "v": 61
    },
    {
      "midi": 65,
      "hit": false,
      "t": 229786.91999999716,
      "d": 4461.430072916672,
      "v": 80
    },
    {
      "midi": 60,
      "hit": false,
      "t": 229793.5689270805,
      "d": 4461.430072916672,
      "v": 75
    },
    {
      "midi": 69,
      "hit": false,
      "t": 229793.5689270805,
      "d": 4461.430072916672,
      "v": 71
    },
    {
      "midi": 72,
      "hit": false,
      "t": 229793.5689270805,
      "d": 4461.430072916672,
      "v": 83
    }
  ]
}