{
  "jsonPath": "Pop/Brill Building Pop/The Shangri-Las/remember-walkin-i-the-sand.json",
  "path": "Pop\\Brill Building Pop\\The Shangri-Las\\Remember (Walkin I The Sand).mid",
  "name": "Remember (Walkin I The Sand)",
  "difficulty": "Advanced",
  "bpm": 66.000066000066,
  "notes": [
    {
      "midi": 41,
      "hit": false,
      "t": 9081.4303125,
      "d": 909.0900000000001,
      "v": 127
    },
    {
      "midi": 40,
      "hit": false,
      "t": 9999.990000000002,
      "d": 842.8021874999995,
      "v": 127
    },
    {
      "midi": 57,
      "hit": false,
      "t": 10899.6103125,
      "d": 75.75750000000153,
      "v": 92
    },
    {
      "midi": 53,
      "hit": false,
      "t": 10899.6103125,
      "d": 85.2271875000024,
      "v": 82
    },
    {
      "midi": 62,
      "hit": false,
      "t": 10899.6103125,
      "d": 85.2271875000024,
      "v": 84
    },
    {
      "midi": 38,
      "hit": false,
      "t": 10909.080000000002,
      "d": 2670.451875000006,
      "v": 127
    },
    {
      "midi": 53,
      "hit": false,
      "t": 11202.640312500003,
      "d": 104.16656250000051,
      "v": 49
    },
    {
      "midi": 57,
      "hit": false,
      "t": 11212.110000000004,
      "d": 75.75749999999971,
      "v": 59
    },
    {
      "midi": 62,
      "hit": false,
      "t": 11212.110000000004,
      "d": 94.69687499999964,
      "v": 49
    },
    {
      "midi": 57,
      "hit": false,
      "t": 11505.670312500004,
      "d": 75.75749999999971,
      "v": 80
    },
    {
      "midi": 53,
      "hit": false,
      "t": 11505.670312500004,
      "d": 94.69687499999964,
      "v": 67
    },
    {
      "midi": 62,
      "hit": false,
      "t": 11505.670312500004,
      "d": 94.69687499999964,
      "v": 67
    },
    {
      "midi": 57,
      "hit": false,
      "t": 11808.700312500003,
      "d": 75.75749999999971,
      "v": 92
    },
    {
      "midi": 53,
      "hit": false,
      "t": 11808.700312500003,
      "d": 94.69687499999964,
      "v": 88
    },
    {
      "midi": 62,
      "hit": false,
      "t": 11808.700312500003,
      "d": 104.16656250000051,
      "v": 82
    },
    {
      "midi": 57,
      "hit": false,
      "t": 12111.730312500003,
      "d": 75.75749999999971,
      "v": 57
    },
    {
      "midi": 62,
      "hit": false,
      "t": 12111.730312500003,
      "d": 85.22718750000058,
      "v": 43
    },
    {
      "midi": 53,
      "hit": false,
      "t": 12111.730312500003,
      "d": 94.69687500000146,
      "v": 47
    },
    {
      "midi": 57,
      "hit": false,
      "t": 12414.760312500004,
      "d": 75.75749999999971,
      "v": 70
    },
    {
      "midi": 62,
      "hit": false,
      "t": 12414.760312500004,
      "d": 85.22718750000058,
      "v": 51
    },
    {
      "midi": 53,
      "hit": false,
      "t": 12414.760312500004,
      "d": 94.69687500000146,
      "v": 59
    },
    {
      "midi": 57,
      "hit": false,
      "t": 12717.790312500005,
      "d": 75.75750000000153,
      "v": 86
    },
    {
      "midi": 53,
      "hit": false,
      "t": 12717.790312500005,
      "d": 94.69687500000146,
      "v": 70
    },
    {
      "midi": 62,
      "hit": false,
      "t": 12727.260000000006,
      "d": 85.22718750000058,
      "v": 80
    },
    {
      "midi": 62,
      "hit": false,
      "t": 13020.820312500005,
      "d": 75.75750000000153,
      "v": 65
    },
    {
      "midi": 53,
      "hit": false,
      "t": 13020.820312500005,
      "d": 85.2271875000024,
      "v": 63
    },
    {
      "midi": 57,
      "hit": false,
      "t": 13030.290000000006,
      "d": 56.81812499999978,
      "v": 76
    },
    {
      "midi": 57,
      "hit": false,
      "t": 13323.850312500008,
      "d": 66.28781250000065,
      "v": 70
    },
    {
      "midi": 53,
      "hit": false,
      "t": 13323.850312500008,
      "d": 85.22718750000058,
      "v": 61
    },
    {
      "midi": 62,
      "hit": false,
      "t": 13323.850312500008,
      "d": 85.22718750000058,
      "v": 61
    },
    {
      "midi": 57,
      "hit": false,
      "t": 13626.880312500009,
      "d": 85.22718750000058,
      "v": 96
    },
    {
      "midi": 53,
      "hit": false,
      "t": 13626.880312500009,
      "d": 104.16656250000051,
      "v": 84
    },
    {
      "midi": 62,
      "hit": false,
      "t": 13626.880312500009,
      "d": 104.16656250000051,
      "v": 84
    },
    {
      "midi": 36,
      "hit": false,
      "t": 13636.35000000001,
      "d": 804.9234374999996,
      "v": 124
    },
    {
      "midi": 57,
      "hit": false,
      "t": 13929.91031250001,
      "d": 66.28781250000065,
      "v": 82
    },
    {
      "midi": 53,
      "hit": false,
      "t": 13929.91031250001,
      "d": 94.69687500000146,
      "v": 72
    },
    {
      "midi": 62,
      "hit": false,
      "t": 13929.91031250001,
      "d": 94.69687500000146,
      "v": 68
    },
    {
      "midi": 57,
      "hit": false,
      "t": 14232.94031250001,
      "d": 75.75749999999971,
      "v": 82
    },
    {
      "midi": 53,
      "hit": false,
      "t": 14232.94031250001,
      "d": 94.69687499999964,
      "v": 68
    },
    {
      "midi": 62,
      "hit": false,
      "t": 14232.94031250001,
      "d": 94.69687499999964,
      "v": 68
    },
    {
      "midi": 58,
      "hit": false,
      "t": 14535.970312500009,
      "d": 94.69687500000146,
      "v": 74
    },
    {
      "midi": 62,
      "hit": false,
      "t": 14535.970312500009,
      "d": 104.16656250000233,
      "v": 68
    },
    {
      "midi": 53,
      "hit": false,
      "t": 14535.970312500009,
      "d": 113.6362500000032,
      "v": 78
    },
    {
      "midi": 34,
      "hit": false,
      "t": 14545.44000000001,
      "d": 2424.240000000009,
      "v": 121
    },
    {
      "midi": 58,
      "hit": false,
      "t": 14839.000312500011,
      "d": 85.22718750000058,
      "v": 76
    },
    {
      "midi": 53,
      "hit": false,
      "t": 14839.000312500011,
      "d": 94.69687500000146,
      "v": 74
    },
    {
      "midi": 62,
      "hit": false,
      "t": 14839.000312500011,
      "d": 94.69687500000146,
      "v": 78
    },
    {
      "midi": 58,
      "hit": false,
      "t": 15142.030312500012,
      "d": 75.75749999999971,
      "v": 72
    },
    {
      "midi": 53,
      "hit": false,
      "t": 15142.030312500012,
      "d": 94.69687499999964,
      "v": 67
    },
    {
      "midi": 62,
      "hit": false,
      "t": 15142.030312500012,
      "d": 94.69687499999964,
      "v": 61
    },
    {
      "midi": 58,
      "hit": false,
      "t": 15445.06031250001,
      "d": 94.69687499999964,
      "v": 74
    },
    {
      "midi": 62,
      "hit": false,
      "t": 15445.06031250001,
      "d": 113.63624999999956,
      "v": 61
    },
    {
      "midi": 53,
      "hit": false,
      "t": 15445.06031250001,
      "d": 123.10593750000044,
      "v": 72
    },
    {
      "midi": 58,
      "hit": false,
      "t": 15748.090312500011,
      "d": 66.28781250000065,
      "v": 68
    },
    {
      "midi": 53,
      "hit": false,
      "t": 15748.090312500011,
      "d": 94.69687500000146,
      "v": 61
    },
    {
      "midi": 62,
      "hit": false,
      "t": 15748.090312500011,
      "d": 94.69687500000146,
      "v": 51
    },
    {
      "midi": 58,
      "hit": false,
      "t": 16051.120312500012,
      "d": 75.75749999999971,
      "v": 67
    },
    {
      "midi": 62,
      "hit": false,
      "t": 16051.120312500012,
      "d": 85.22718750000058,
      "v": 57
    },
    {
      "midi": 53,
      "hit": false,
      "t": 16051.120312500012,
      "d": 94.69687500000146,
      "v": 61
    },
    {
      "midi": 58,
      "hit": false,
      "t": 16354.150312500013,
      "d": 94.69687500000146,
      "v": 76
    },
    {
      "midi": 53,
      "hit": false,
      "t": 16354.150312500013,
      "d": 104.16656250000233,
      "v": 72
    },
    {
      "midi": 62,
      "hit": false,
      "t": 16354.150312500013,
      "d": 113.6362500000032,
      "v": 76
    },
    {
      "midi": 58,
      "hit": false,
      "t": 16657.180312500015,
      "d": 85.22718750000058,
      "v": 68
    },
    {
      "midi": 53,
      "hit": false,
      "t": 16657.180312500015,
      "d": 94.69687500000146,
      "v": 61
    },
    {
      "midi": 62,
      "hit": false,
      "t": 16657.180312500015,
      "d": 94.69687500000146,
      "v": 65
    },
    {
      "midi": 53,
      "hit": false,
      "t": 16960.210312500018,
      "d": 94.69687500000146,
      "v": 76
    },
    {
      "midi": 58,
      "hit": false,
      "t": 16960.210312500018,
      "d": 94.69687500000146,
      "v": 74
    },
    {
      "midi": 62,
      "hit": false,
      "t": 16960.210312500018,
      "d": 104.16656250000233,
      "v": 72
    },
    {
      "midi": 57,
      "hit": false,
      "t": 17263.24031250002,
      "d": 66.28781249999884,
      "v": 86
    },
    {
      "midi": 53,
      "hit": false,
      "t": 17263.24031250002,
      "d": 104.16656249999869,
      "v": 82
    },
    {
      "midi": 62,
      "hit": false,
      "t": 17263.24031250002,
      "d": 104.16656249999869,
      "v": 82
    },
    {
      "midi": 33,
      "hit": false,
      "t": 17263.24031250002,
      "d": 880.6809375000012,
      "v": 122
    },
    {
      "midi": 57,
      "hit": false,
      "t": 17566.27031250002,
      "d": 85.22718750000058,
      "v": 90
    },
    {
      "midi": 53,
      "hit": false,
      "t": 17566.27031250002,
      "d": 104.16656250000233,
      "v": 76
    },
    {
      "midi": 62,
      "hit": false,
      "t": 17566.27031250002,
      "d": 104.16656250000233,
      "v": 72
    },
    {
      "midi": 57,
      "hit": false,
      "t": 17869.30031250002,
      "d": 66.28781249999884,
      "v": 94
    },
    {
      "midi": 53,
      "hit": false,
      "t": 17869.30031250002,
      "d": 85.22718750000058,
      "v": 90
    },
    {
      "midi": 62,
      "hit": false,
      "t": 17869.30031250002,
      "d": 85.22718750000058,
      "v": 80
    },
    {
      "midi": 55,
      "hit": false,
      "t": 18172.33031250002,
      "d": 85.22718750000058,
      "v": 78
    },
    {
      "midi": 58,
      "hit": false,
      "t": 18172.33031250002,
      "d": 94.69687500000146,
      "v": 82
    },
    {
      "midi": 62,
      "hit": false,
      "t": 18172.33031250002,
      "d": 94.69687500000146,
      "v": 78
    },
    {
      "midi": 31,
      "hit": false,
      "t": 18172.33031250002,
      "d": 3456.4359375000095,
      "v": 118
    },
    {
      "midi": 55,
      "hit": false,
      "t": 18475.360312500023,
      "d": 75.75749999999971,
      "v": 68
    },
    {
      "midi": 58,
      "hit": false,
      "t": 18475.360312500023,
      "d": 85.22718750000058,
      "v": 74
    },
    {
      "midi": 62,
      "hit": false,
      "t": 18475.360312500023,
      "d": 85.22718750000058,
      "v": 68
    },
    {
      "midi": 55,
      "hit": false,
      "t": 18778.39031250002,
      "d": 66.28781249999884,
      "v": 65
    },
    {
      "midi": 58,
      "hit": false,
      "t": 18778.39031250002,
      "d": 66.28781249999884,
      "v": 70
    },
    {
      "midi": 62,
      "hit": false,
      "t": 18778.39031250002,
      "d": 75.75749999999971,
      "v": 57
    },
    {
      "midi": 55,
      "hit": false,
      "t": 19081.42031250002,
      "d": 85.22718750000058,
      "v": 74
    },
    {
      "midi": 58,
      "hit": false,
      "t": 19081.42031250002,
      "d": 85.22718750000058,
      "v": 76
    },
    {
      "midi": 62,
      "hit": false,
      "t": 19081.42031250002,
      "d": 85.22718750000058,
      "v": 74
    },
    {
      "midi": 55,
      "hit": false,
      "t": 19384.45031250002,
      "d": 75.75749999999971,
      "v": 67
    },
    {
      "midi": 58,
      "hit": false,
      "t": 19384.45031250002,
      "d": 85.22718750000058,
      "v": 74
    },
    {
      "midi": 62,
      "hit": false,
      "t": 19384.45031250002,
      "d": 85.22718750000058,
      "v": 68
    },
    {
      "midi": 55,
      "hit": false,
      "t": 19687.480312500018,
      "d": 75.75749999999971,
      "v": 68
    },
    {
      "midi": 62,
      "hit": false,
      "t": 19687.480312500018,
      "d": 75.75749999999971,
      "v": 68
    },
    {
      "midi": 58,
      "hit": false,
      "t": 19687.480312500018,
      "d": 85.22718750000058,
      "v": 76
    },
    {
      "midi": 58,
      "hit": false,
      "t": 19990.510312500017,
      "d": 85.22718750000058,
      "v": 74
    },
    {
      "midi": 55,
      "hit": false,
      "t": 19990.510312500017,
      "d": 94.69687500000146,
      "v": 78
    },
    {
      "midi": 62,
      "hit": false,
      "t": 19990.510312500017,
      "d": 94.69687500000146,
      "v": 76
    },
    {
      "midi": 55,
      "hit": false,
      "t": 20293.54031250002,
      "d": 75.75749999999971,
      "v": 49
    },
    {
      "midi": 58,
      "hit": false,
      "t": 20293.54031250002,
      "d": 75.75749999999971,
      "v": 51
    },
    {
      "midi": 62,
      "hit": false,
      "t": 20293.54031250002,
      "d": 94.69687500000146,
      "v": 47
    },
    {
      "midi": 55,
      "hit": false,
      "t": 20596.570312500022,
      "d": 75.75749999999971,
      "v": 74
    },
    {
      "midi": 58,
      "hit": false,
      "t": 20596.570312500022,
      "d": 75.75749999999971,
      "v": 78
    },
    {
      "midi": 62,
      "hit": false,
      "t": 20596.570312500022,
      "d": 94.69687500000146,
      "v": 80
    },
    {
      "midi": 58,
      "hit": false,
      "t": 20899.600312500024,
      "d": 85.22718750000058,
      "v": 72
    },
    {
      "midi": 55,
      "hit": false,
      "t": 20899.600312500024,
      "d": 94.69687500000146,
      "v": 70
    },
    {
      "midi": 62,
      "hit": false,
      "t": 20899.600312500024,
      "d": 104.16656250000233,
      "v": 67
    },
    {
      "midi": 55,
      "hit": false,
      "t": 21202.630312500027,
      "d": 85.22718750000058,
      "v": 80
    },
    {
      "midi": 58,
      "hit": false,
      "t": 21202.630312500027,
      "d": 85.22718750000058,
      "v": 76
    },
    {
      "midi": 62,
      "hit": false,
      "t": 21202.630312500027,
      "d": 104.16656250000233,
      "v": 84
    },
    {
      "midi": 55,
      "hit": false,
      "t": 21505.66031250003,
      "d": 85.22718750000058,
      "v": 82
    },
    {
      "midi": 58,
      "hit": false,
      "t": 21505.66031250003,
      "d": 85.22718750000058,
      "v": 76
    },
    {
      "midi": 62,
      "hit": false,
      "t": 21505.66031250003,
      "d": 85.22718750000058,
      "v": 70
    },
    {
      "midi": 57,
      "hit": false,
      "t": 21808.690312500028,
      "d": 85.22718750000058,
      "v": 104
    },
    {
      "midi": 61,
      "hit": false,
      "t": 21808.690312500028,
      "d": 85.22718750000058,
      "v": 82
    },
    {
      "midi": 52,
      "hit": false,
      "t": 21808.690312500028,
      "d": 94.69687500000146,
      "v": 88
    },
    {
      "midi": 33,
      "hit": false,
      "t": 21818.16000000003,
      "d": 1647.72562500001,
      "v": 119
    },
    {
      "midi": 61,
      "hit": false,
      "t": 22111.72031250003,
      "d": 75.75749999999971,
      "v": 37
    },
    {
      "midi": 57,
      "hit": false,
      "t": 22111.72031250003,
      "d": 94.69687500000146,
      "v": 49
    },
    {
      "midi": 52,
      "hit": false,
      "t": 22111.72031250003,
      "d": 104.16656250000233,
      "v": 49
    },
    {
      "midi": 57,
      "hit": false,
      "t": 22414.750312500033,
      "d": 75.75749999999971,
      "v": 67
    },
    {
      "midi": 61,
      "hit": false,
      "t": 22414.750312500033,
      "d": 75.75749999999971,
      "v": 45
    },
    {
      "midi": 52,
      "hit": false,
      "t": 22414.750312500033,
      "d": 104.16656249999869,
      "v": 61
    },
    {
      "midi": 61,
      "hit": false,
      "t": 22717.780312500032,
      "d": 85.22718750000058,
      "v": 72
    },
    {
      "midi": 57,
      "hit": false,
      "t": 22717.780312500032,
      "d": 94.69687500000146,
      "v": 92
    },
    {
      "midi": 52,
      "hit": false,
      "t": 22717.780312500032,
      "d": 104.16656250000233,
      "v": 68
    },
    {
      "midi": 57,
      "hit": false,
      "t": 23020.810312500034,
      "d": 75.75749999999971,
      "v": 63
    },
    {
      "midi": 61,
      "hit": false,
      "t": 23020.810312500034,
      "d": 85.22718750000058,
      "v": 45
    },
    {
      "midi": 52,
      "hit": false,
      "t": 23020.810312500034,
      "d": 94.69687500000146,
      "v": 65
    },
    {
      "midi": 61,
      "hit": false,
      "t": 23323.840312500037,
      "d": 75.75749999999971,
      "v": 53
    },
    {
      "midi": 57,
      "hit": false,
      "t": 23323.840312500037,
      "d": 85.22718750000058,
      "v": 78
    },
    {
      "midi": 52,
      "hit": false,
      "t": 23323.840312500037,
      "d": 94.69687500000146,
      "v": 63
    },
    {
      "midi": 61,
      "hit": false,
      "t": 23626.87031250004,
      "d": 75.75749999999971,
      "v": 76
    },
    {
      "midi": 57,
      "hit": false,
      "t": 23626.87031250004,
      "d": 85.22718750000058,
      "v": 94
    },
    {
      "midi": 53,
      "hit": false,
      "t": 23626.87031250004,
      "d": 104.16656250000233,
      "v": 65
    },
    {
      "midi": 41,
      "hit": false,
      "t": 23626.87031250004,
      "d": 871.2112500000003,
      "v": 122
    },
    {
      "midi": 57,
      "hit": false,
      "t": 23929.90031250004,
      "d": 66.28781249999884,
      "v": 78
    },
    {
      "midi": 61,
      "hit": false,
      "t": 23929.90031250004,
      "d": 66.28781249999884,
      "v": 57
    },
    {
      "midi": 53,
      "hit": false,
      "t": 23929.90031250004,
      "d": 104.16656249999869,
      "v": 68
    },
    {
      "midi": 57,
      "hit": false,
      "t": 24232.93031250004,
      "d": 75.75749999999971,
      "v": 90
    },
    {
      "midi": 61,
      "hit": false,
      "t": 24232.93031250004,
      "d": 75.75749999999971,
      "v": 70
    },
    {
      "midi": 53,
      "hit": false,
      "t": 24232.93031250004,
      "d": 104.16656249999869,
      "v": 72
    },
    {
      "midi": 57,
      "hit": false,
      "t": 24535.96031250004,
      "d": 85.22718750000058,
      "v": 94
    },
    {
      "midi": 52,
      "hit": false,
      "t": 24535.96031250004,
      "d": 94.69687500000146,
      "v": 84
    },
    {
      "midi": 61,
      "hit": false,
      "t": 24535.96031250004,
      "d": 94.69687500000146,
      "v": 76
    },
    {
      "midi": 40,
      "hit": false,
      "t": 24535.96031250004,
      "d": 909.0900000000038,
      "v": 126
    },
    {
      "midi": 52,
      "hit": false,
      "t": 24838.990312500042,
      "d": 94.69687500000146,
      "v": 63
    },
    {
      "midi": 57,
      "hit": false,
      "t": 24838.990312500042,
      "d": 94.69687500000146,
      "v": 70
    },
    {
      "midi": 61,
      "hit": false,
      "t": 24838.990312500042,
      "d": 94.69687500000146,
      "v": 63
    },
    {
      "midi": 57,
      "hit": false,
      "t": 25142.020312500044,
      "d": 75.75749999999971,
      "v": 94
    },
    {
      "midi": 52,
      "hit": false,
      "t": 25142.020312500044,
      "d": 85.22718750000058,
      "v": 72
    },
    {
      "midi": 61,
      "hit": false,
      "t": 25142.020312500044,
      "d": 85.22718750000058,
      "v": 74
    },
    {
      "midi": 57,
      "hit": false,
      "t": 25445.050312500043,
      "d": 94.69687500000146,
      "v": 86
    },
    {
      "midi": 53,
      "hit": false,
      "t": 25445.050312500043,
      "d": 104.16656250000233,
      "v": 68
    },
    {
      "midi": 62,
      "hit": false,
      "t": 25445.050312500043,
      "d": 113.6362500000032,
      "v": 80
    },
    {
      "midi": 38,
      "hit": false,
      "t": 25454.520000000044,
      "d": 2585.224687500013,
      "v": 123
    },
    {
      "midi": 57,
      "hit": false,
      "t": 25748.080312500046,
      "d": 66.28781249999884,
      "v": 67
    },
    {
      "midi": 53,
      "hit": false,
      "t": 25748.080312500046,
      "d": 94.69687499999782,
      "v": 55
    },
    {
      "midi": 62,
      "hit": false,
      "t": 25748.080312500046,
      "d": 94.69687499999782,
      "v": 61
    },
    {
      "midi": 57,
      "hit": false,
      "t": 26051.110312500045,
      "d": 75.75749999999971,
      "v": 68
    },
    {
      "midi": 53,
      "hit": false,
      "t": 26051.110312500045,
      "d": 94.69687500000146,
      "v": 53
    },
    {
      "midi": 62,
      "hit": false,
      "t": 26051.110312500045,
      "d": 94.69687500000146,
      "v": 51
    },
    {
      "midi": 57,
      "hit": false,
      "t": 26354.140312500047,
      "d": 85.22718750000058,
      "v": 94
    },
    {
      "midi": 62,
      "hit": false,
      "t": 26354.140312500047,
      "d": 85.22718750000058,
      "v": 80
    },
    {
      "midi": 53,
      "hit": false,
      "t": 26354.140312500047,
      "d": 94.69687500000146,
      "v": 78
    },
    {
      "midi": 57,
      "hit": false,
      "t": 26657.17031250005,
      "d": 66.28781249999884,
      "v": 61
    },
    {
      "midi": 62,
      "hit": false,
      "t": 26657.17031250005,
      "d": 85.22718750000058,
      "v": 41
    },
    {
      "midi": 53,
      "hit": false,
      "t": 26657.17031250005,
      "d": 94.69687500000146,
      "v": 41
    },
    {
      "midi": 57,
      "hit": false,
      "t": 26960.200312500052,
      "d": 75.75749999999971,
      "v": 82
    },
    {
      "midi": 53,
      "hit": false,
      "t": 26960.200312500052,
      "d": 94.69687500000146,
      "v": 65
    },
    {
      "midi": 62,
      "hit": false,
      "t": 26960.200312500052,
      "d": 94.69687500000146,
      "v": 63
    },
    {
      "midi": 57,
      "hit": false,
      "t": 27263.230312500054,
      "d": 75.75749999999971,
      "v": 88
    },
    {
      "midi": 53,
      "hit": false,
      "t": 27263.230312500054,
      "d": 85.22718750000058,
      "v": 76
    },
    {
      "midi": 62,
      "hit": false,
      "t": 27263.230312500054,
      "d": 94.69687500000146,
      "v": 76
    },
    {
      "midi": 57,
      "hit": false,
      "t": 27566.260312500057,
      "d": 66.28781249999884,
      "v": 68
    },
    {
      "midi": 53,
      "hit": false,
      "t": 27566.260312500057,
      "d": 75.75749999999971,
      "v": 51
    },
    {
      "midi": 62,
      "hit": false,
      "t": 27566.260312500057,
      "d": 75.75749999999971,
      "v": 49
    },
    {
      "midi": 57,
      "hit": false,
      "t": 27869.290312500056,
      "d": 66.28781249999884,
      "v": 78
    },
    {
      "midi": 62,
      "hit": false,
      "t": 27869.290312500056,
      "d": 75.75749999999971,
      "v": 53
    },
    {
      "midi": 53,
      "hit": false,
      "t": 27869.290312500056,
      "d": 85.22718750000058,
      "v": 63
    },
    {
      "midi": 57,
      "hit": false,
      "t": 28172.32031250006,
      "d": 94.69687500000146,
      "v": 84
    },
    {
      "midi": 53,
      "hit": false,
      "t": 28172.32031250006,
      "d": 104.16656250000233,
      "v": 72
    },
    {
      "midi": 62,
      "hit": false,
      "t": 28172.32031250006,
      "d": 104.16656250000233,
      "v": 61
    },
    {
      "midi": 36,
      "hit": false,
      "t": 28172.32031250006,
      "d": 852.2718750000058,
      "v": 124
    },
    {
      "midi": 57,
      "hit": false,
      "t": 28475.35031250006,
      "d": 75.75749999999971,
      "v": 78
    },
    {
      "midi": 53,
      "hit": false,
      "t": 28475.35031250006,
      "d": 94.69687500000146,
      "v": 57
    },
    {
      "midi": 62,
      "hit": false,
      "t": 28475.35031250006,
      "d": 94.69687500000146,
      "v": 59
    },
    {
      "midi": 57,
      "hit": false,
      "t": 28778.380312500063,
      "d": 75.75749999999971,
      "v": 92
    },
    {
      "midi": 53,
      "hit": false,
      "t": 28778.380312500063,
      "d": 85.22718750000058,
      "v": 80
    },
    {
      "midi": 62,
      "hit": false,
      "t": 28778.380312500063,
      "d": 94.69687500000146,
      "v": 76
    },
    {
      "midi": 58,
      "hit": false,
      "t": 29081.410312500066,
      "d": 85.22718750000058,
      "v": 76
    },
    {
      "midi": 53,
      "hit": false,
      "t": 29081.410312500066,
      "d": 104.16656250000233,
      "v": 68
    },
    {
      "midi": 62,
      "hit": false,
      "t": 29081.410312500066,
      "d": 104.16656250000233,
      "v": 72
    },
    {
      "midi": 34,
      "hit": false,
      "t": 29081.410312500066,
      "d": 2575.755000000012,
      "v": 112
    },
    {
      "midi": 53,
      "hit": false,
      "t": 29384.440312500068,
      "d": 85.22718750000058,
      "v": 76
    },
    {
      "midi": 58,
      "hit": false,
      "t": 29384.440312500068,
      "d": 85.22718750000058,
      "v": 78
    },
    {
      "midi": 62,
      "hit": false,
      "t": 29384.440312500068,
      "d": 85.22718750000058,
      "v": 67
    },
    {
      "midi": 58,
      "hit": false,
      "t": 29687.470312500067,
      "d": 75.75749999999971,
      "v": 76
    },
    {
      "midi": 62,
      "hit": false,
      "t": 29687.470312500067,
      "d": 85.22718750000058,
      "v": 65
    },
    {
      "midi": 53,
      "hit": false,
      "t": 29687.470312500067,
      "d": 94.69687500000146,
      "v": 76
    },
    {
      "midi": 58,
      "hit": false,
      "t": 29990.50031250007,
      "d": 75.75749999999971,
      "v": 78
    },
    {
      "midi": 62,
      "hit": false,
      "t": 29990.50031250007,
      "d": 85.22718750000058,
      "v": 90
    },
    {
      "midi": 53,
      "hit": false,
      "t": 29990.50031250007,
      "d": 94.69687500000146,
      "v": 84
    },
    {
      "midi": 58,
      "hit": false,
      "t": 30293.530312500072,
      "d": 75.75749999999971,
      "v": 70
    },
    {
      "midi": 53,
      "hit": false,
      "t": 30293.530312500072,
      "d": 85.22718750000058,
      "v": 59
    },
    {
      "midi": 62,
      "hit": false,
      "t": 30293.530312500072,
      "d": 94.69687500000146,
      "v": 63
    },
    {
      "midi": 58,
      "hit": false,
      "t": 30596.560312500074,
      "d": 66.28781249999884,
      "v": 76
    },
    {
      "midi": 53,
      "hit": false,
      "t": 30596.560312500074,
      "d": 85.22718750000058,
      "v": 76
    },
    {
      "midi": 62,
      "hit": false,
      "t": 30596.560312500074,
      "d": 85.22718750000058,
      "v": 80
    },
    {
      "midi": 58,
      "hit": false,
      "t": 30899.590312500073,
      "d": 75.75749999999971,
      "v": 78
    },
    {
      "midi": 53,
      "hit": false,
      "t": 30899.590312500073,
      "d": 85.22718750000058,
      "v": 80
    },
    {
      "midi": 62,
      "hit": false,
      "t": 30899.590312500073,
      "d": 94.69687500000146,
      "v": 82
    },
    {
      "midi": 53,
      "hit": false,
      "t": 31202.620312500076,
      "d": 66.28781249999884,
      "v": 78
    },
    {
      "midi": 58,
      "hit": false,
      "t": 31202.620312500076,
      "d": 66.28781249999884,
      "v": 80
    },
    {
      "midi": 62,
      "hit": false,
      "t": 31202.620312500076,
      "d": 75.75749999999971,
      "v": 78
    },
    {
      "midi": 53,
      "hit": false,
      "t": 31505.650312500075,
      "d": 85.22718750000058,
      "v": 82
    },
    {
      "midi": 58,
      "hit": false,
      "t": 31505.650312500075,
      "d": 85.22718750000058,
      "v": 80
    },
    {
      "midi": 62,
      "hit": false,
      "t": 31505.650312500075,
      "d": 94.69687500000146,
      "v": 84
    },
    {
      "midi": 57,
      "hit": false,
      "t": 31808.680312500077,
      "d": 75.75749999999971,
      "v": 98
    },
    {
      "midi": 62,
      "hit": false,
      "t": 31808.680312500077,
      "d": 85.22718750000058,
      "v": 84
    },
    {
      "midi": 53,
      "hit": false,
      "t": 31808.680312500077,
      "d": 94.69687500000146,
      "v": 82
    },
    {
      "midi": 33,
      "hit": false,
      "t": 31808.680312500077,
      "d": 852.2718750000022,
      "v": 121
    },
    {
      "midi": 57,
      "hit": false,
      "t": 32111.71031250008,
      "d": 75.75749999999971,
      "v": 80
    },
    {
      "midi": 53,
      "hit": false,
      "t": 32111.71031250008,
      "d": 85.22718750000058,
      "v": 55
    },
    {
      "midi": 62,
      "hit": false,
      "t": 32111.71031250008,
      "d": 85.22718750000058,
      "v": 53
    },
    {
      "midi": 53,
      "hit": false,
      "t": 32414.74031250008,
      "d": 75.75749999999971,
      "v": 80
    },
    {
      "midi": 57,
      "hit": false,
      "t": 32414.74031250008,
      "d": 75.75749999999971,
      "v": 92
    },
    {
      "midi": 62,
      "hit": false,
      "t": 32414.74031250008,
      "d": 75.75749999999971,
      "v": 72
    },
    {
      "midi": 55,
      "hit": false,
      "t": 32717.77031250008,
      "d": 75.75750000000335,
      "v": 82
    },
    {
      "midi": 58,
      "hit": false,
      "t": 32717.77031250008,
      "d": 75.75750000000335,
      "v": 80
    },
    {
      "midi": 62,
      "hit": false,
      "t": 32717.77031250008,
      "d": 104.16656250000597,
      "v": 82
    },
    {
      "midi": 31,
      "hit": false,
      "t": 32717.77031250008,
      "d": 3494.314687499991,
      "v": 118
    },
    {
      "midi": 55,
      "hit": false,
      "t": 33020.80031250008,
      "d": 75.75749999999971,
      "v": 72
    },
    {
      "midi": 58,
      "hit": false,
      "t": 33020.80031250008,
      "d": 75.75749999999971,
      "v": 76
    },
    {
      "midi": 62,
      "hit": false,
      "t": 33020.80031250008,
      "d": 75.75749999999971,
      "v": 65
    },
    {
      "midi": 58,
      "hit": false,
      "t": 33323.83031250008,
      "d": 75.75749999999971,
      "v": 72
    },
    {
      "midi": 55,
      "hit": false,
      "t": 33323.83031250008,
      "d": 85.22718750000058,
      "v": 65
    },
    {
      "midi": 62,
      "hit": false,
      "t": 33323.83031250008,
      "d": 85.22718750000058,
      "v": 72
    },
    {
      "midi": 58,
      "hit": false,
      "t": 33626.86031250008,
      "d": 75.75749999999971,
      "v": 76
    },
    {
      "midi": 62,
      "hit": false,
      "t": 33626.86031250008,
      "d": 85.22718750000058,
      "v": 68
    },
    {
      "midi": 55,
      "hit": false,
      "t": 33626.86031250008,
      "d": 94.69687500000146,
      "v": 72
    },
    {
      "midi": 58,
      "hit": false,
      "t": 33929.89031250008,
      "d": 56.81812499999796,
      "v": 72
    },
    {
      "midi": 62,
      "hit": false,
      "t": 33929.89031250008,
      "d": 66.28781249999884,
      "v": 49
    },
    {
      "midi": 55,
      "hit": false,
      "t": 33929.89031250008,
      "d": 75.75749999999971,
      "v": 59
    },
    {
      "midi": 58,
      "hit": false,
      "t": 34232.92031250008,
      "d": 66.28781249999884,
      "v": 76
    },
    {
      "midi": 62,
      "hit": false,
      "t": 34232.92031250008,
      "d": 75.75749999999971,
      "v": 72
    },
    {
      "midi": 55,
      "hit": false,
      "t": 34232.92031250008,
      "d": 85.22718750000058,
      "v": 76
    },
    {
      "midi": 58,
      "hit": false,
      "t": 34535.95031250008,
      "d": 75.75749999999971,
      "v": 74
    },
    {
      "midi": 62,
      "hit": false,
      "t": 34535.95031250008,
      "d": 85.22718750000058,
      "v": 68
    },
    {
      "midi": 55,
      "hit": false,
      "t": 34535.95031250008,
      "d": 94.69687500000146,
      "v": 67
    },
    {
      "midi": 55,
      "hit": false,
      "t": 34838.980312500076,
      "d": 75.75749999999971,
      "v": 57
    },
    {
      "midi": 58,
      "hit": false,
      "t": 34838.980312500076,
      "d": 75.75749999999971,
      "v": 74
    },
    {
      "midi": 62,
      "hit": false,
      "t": 34838.980312500076,
      "d": 94.69687500000146,
      "v": 65
    },
    {
      "midi": 55,
      "hit": false,
      "t": 35142.010312500075,
      "d": 66.28781249999884,
      "v": 61
    },
    {
      "midi": 58,
      "hit": false,
      "t": 35142.010312500075,
      "d": 66.28781249999884,
      "v": 76
    },
    {
      "midi": 62,
      "hit": false,
      "t": 35142.010312500075,
      "d": 85.22718750000058,
      "v": 65
    },
    {
      "midi": 55,
      "hit": false,
      "t": 35445.040312500074,
      "d": 85.22718750000058,
      "v": 72
    },
    {
      "midi": 58,
      "hit": false,
      "t": 35445.040312500074,
      "d": 85.22718750000058,
      "v": 78
    },
    {
      "midi": 62,
      "hit": false,
      "t": 35445.040312500074,
      "d": 94.69687500000146,
      "v": 72
    },
    {
      "midi": 58,
      "hit": false,
      "t": 35748.07031250007,
      "d": 66.28781249999884,
      "v": 78
    },
    {
      "midi": 55,
      "hit": false,
      "t": 35748.07031250007,
      "d": 75.75749999999971,
      "v": 74
    },
    {
      "midi": 62,
      "hit": false,
      "t": 35748.07031250007,
      "d": 94.69687500000146,
      "v": 82
    },
    {
      "midi": 62,
      "hit": false,
      "t": 36051.10031250007,
      "d": 66.28781249999884,
      "v": 86
    },
    {
      "midi": 55,
      "hit": false,
      "t": 36051.10031250007,
      "d": 75.75749999999971,
      "v": 88
    },
    {
      "midi": 58,
      "hit": false,
      "t": 36051.10031250007,
      "d": 85.22718750000058,
      "v": 86
    },
    {
      "midi": 61,
      "hit": false,
      "t": 36354.13031250007,
      "d": 66.28781249999884,
      "v": 78
    },
    {
      "midi": 57,
      "hit": false,
      "t": 36354.13031250007,
      "d": 75.75749999999971,
      "v": 100
    },
    {
      "midi": 52,
      "hit": false,
      "t": 36354.13031250007,
      "d": 94.69687500000146,
      "v": 90
    },
    {
      "midi": 33,
      "hit": false,
      "t": 36354.13031250007,
      "d": 1780.3012499999968,
      "v": 112
    },
    {
      "midi": 61,
      "hit": false,
      "t": 36657.16031250007,
      "d": 66.28781249999884,
      "v": 51
    },
    {
      "midi": 52,
      "hit": false,
      "t": 36657.16031250007,
      "d": 75.75749999999971,
      "v": 67
    },
    {
      "midi": 57,
      "hit": false,
      "t": 36657.16031250007,
      "d": 75.75749999999971,
      "v": 76
    },
    {
      "midi": 61,
      "hit": false,
      "t": 36960.19031250007,
      "d": 66.28781249999884,
      "v": 65
    },
    {
      "midi": 57,
      "hit": false,
      "t": 36960.19031250007,
      "d": 75.75749999999971,
      "v": 92
    },
    {
      "midi": 52,
      "hit": false,
      "t": 36960.19031250007,
      "d": 85.22718750000058,
      "v": 68
    },
    {
      "midi": 61,
      "hit": false,
      "t": 37263.22031250007,
      "d": 56.81812499999796,
      "v": 70
    },
    {
      "midi": 57,
      "hit": false,
      "t": 37263.22031250007,
      "d": 75.75749999999971,
      "v": 98
    },
    {
      "midi": 52,
      "hit": false,
      "t": 37263.22031250007,
      "d": 85.22718750000058,
      "v": 76
    },
    {
      "midi": 57,
      "hit": false,
      "t": 37566.250312500066,
      "d": 66.28781249999884,
      "v": 96
    },
    {
      "midi": 61,
      "hit": false,
      "t": 37566.250312500066,
      "d": 66.28781249999884,
      "v": 74
    },
    {
      "midi": 52,
      "hit": false,
      "t": 37566.250312500066,
      "d": 75.75749999999971,
      "v": 74
    },
    {
      "midi": 57,
      "hit": false,
      "t": 37869.280312500065,
      "d": 75.75749999999971,
      "v": 80
    },
    {
      "midi": 52,
      "hit": false,
      "t": 37869.280312500065,
      "d": 85.22718750000058,
      "v": 65
    },
    {
      "midi": 61,
      "hit": false,
      "t": 37869.280312500065,
      "d": 85.22718750000058,
      "v": 53
    },
    {
      "midi": 61,
      "hit": false,
      "t": 38172.31031250007,
      "d": 75.75749999999971,
      "v": 76
    },
    {
      "midi": 53,
      "hit": false,
      "t": 38172.31031250007,
      "d": 85.22718750000058,
      "v": 70
    },
    {
      "midi": 57,
      "hit": false,
      "t": 38172.31031250007,
      "d": 85.22718750000058,
      "v": 94
    },
    {
      "midi": 41,
      "hit": false,
      "t": 38172.31031250007,
      "d": 918.5596874999974,
      "v": 121
    },
    {
      "midi": 57,
      "hit": false,
      "t": 38475.34031250007,
      "d": 56.81812499999796,
      "v": 86
    },
    {
      "midi": 61,
      "hit": false,
      "t": 38475.34031250007,
      "d": 66.28781249999884,
      "v": 74
    },
    {
      "midi": 53,
      "hit": false,
      "t": 38475.34031250007,
      "d": 75.75749999999971,
      "v": 76
    },
    {
      "midi": 61,
      "hit": false,
      "t": 38778.37031250007,
      "d": 56.81812499999796,
      "v": 72
    },
    {
      "midi": 57,
      "hit": false,
      "t": 38778.37031250007,
      "d": 66.28781249999884,
      "v": 94
    },
    {
      "midi": 53,
      "hit": false,
      "t": 38778.37031250007,
      "d": 94.69687500000146,
      "v": 76
    },
    {
      "midi": 57,
      "hit": false,
      "t": 39081.40031250007,
      "d": 75.75749999999971,
      "v": 94
    },
    {
      "midi": 61,
      "hit": false,
      "t": 39081.40031250007,
      "d": 75.75749999999971,
      "v": 74
    },
    {
      "midi": 52,
      "hit": false,
      "t": 39081.40031250007,
      "d": 85.22718750000058,
      "v": 78
    },
    {
      "midi": 40,
      "hit": false,
      "t": 39081.40031250007,
      "d": 918.5596874999974,
      "v": 119
    },
    {
      "midi": 52,
      "hit": false,
      "t": 39384.430312500066,
      "d": 75.75749999999971,
      "v": 72
    },
    {
      "midi": 57,
      "hit": false,
      "t": 39384.430312500066,
      "d": 75.75749999999971,
      "v": 92
    },
    {
      "midi": 61,
      "hit": false,
      "t": 39384.430312500066,
      "d": 85.22718750000058,
      "v": 78
    },
    {
      "midi": 57,
      "hit": false,
      "t": 39687.460312500065,
      "d": 75.75749999999971,
      "v": 68
    },
    {
      "midi": 61,
      "hit": false,
      "t": 39687.460312500065,
      "d": 75.75749999999971,
      "v": 43
    },
    {
      "midi": 52,
      "hit": false,
      "t": 39687.460312500065,
      "d": 85.22718750000058,
      "v": 57
    },
    {
      "midi": 57,
      "hit": false,
      "t": 39990.490312500064,
      "d": 75.75749999999971,
      "v": 94
    },
    {
      "midi": 53,
      "hit": false,
      "t": 39990.490312500064,
      "d": 94.69687500000146,
      "v": 80
    },
    {
      "midi": 62,
      "hit": false,
      "t": 39990.490312500064,
      "d": 94.69687500000146,
      "v": 88
    },
    {
      "midi": 38,
      "hit": false,
      "t": 39990.490312500064,
      "d": 2689.3912499999933,
      "v": 118
    },
    {
      "midi": 57,
      "hit": false,
      "t": 40293.52031250006,
      "d": 66.28781249999884,
      "v": 86
    },
    {
      "midi": 53,
      "hit": false,
      "t": 40293.52031250006,
      "d": 85.22718750000058,
      "v": 68
    },
    {
      "midi": 62,
      "hit": false,
      "t": 40293.52031250006,
      "d": 85.22718750000058,
      "v": 80
    },
    {
      "midi": 57,
      "hit": false,
      "t": 40596.55031250006,
      "d": 66.28781249999884,
      "v": 82
    },
    {
      "midi": 62,
      "hit": false,
      "t": 40596.55031250006,
      "d": 75.75749999999971,
      "v": 63
    },
    {
      "midi": 53,
      "hit": false,
      "t": 40596.55031250006,
      "d": 85.22718750000058,
      "v": 67
    },
    {
      "midi": 57,
      "hit": false,
      "t": 40899.58031250006,
      "d": 66.28781249999884,
      "v": 88
    },
    {
      "midi": 62,
      "hit": false,
      "t": 40899.58031250006,
      "d": 75.75749999999971,
      "v": 68
    },
    {
      "midi": 53,
      "hit": false,
      "t": 40899.58031250006,
      "d": 94.69687500000146,
      "v": 72
    },
    {
      "midi": 57,
      "hit": false,
      "t": 41202.61031250006,
      "d": 56.81812499999796,
      "v": 88
    },
    {
      "midi": 62,
      "hit": false,
      "t": 41202.61031250006,
      "d": 66.28781249999884,
      "v": 65
    },
    {
      "midi": 53,
      "hit": false,
      "t": 41202.61031250006,
      "d": 75.75749999999971,
      "v": 72
    },
    {
      "midi": 57,
      "hit": false,
      "t": 41505.64031250006,
      "d": 66.28781249999884,
      "v": 67
    },
    {
      "midi": 62,
      "hit": false,
      "t": 41505.64031250006,
      "d": 75.75749999999971,
      "v": 47
    },
    {
      "midi": 53,
      "hit": false,
      "t": 41505.64031250006,
      "d": 85.22718750000058,
      "v": 53
    },
    {
      "midi": 57,
      "hit": false,
      "t": 41808.67031250006,
      "d": 66.28781249999884,
      "v": 82
    },
    {
      "midi": 62,
      "hit": false,
      "t": 41808.67031250006,
      "d": 85.22718750000058,
      "v": 61
    },
    {
      "midi": 53,
      "hit": false,
      "t": 41808.67031250006,
      "d": 94.69687500000146,
      "v": 68
    },
    {
      "midi": 57,
      "hit": false,
      "t": 42111.700312500056,
      "d": 66.28781249999884,
      "v": 80
    },
    {
      "midi": 62,
      "hit": false,
      "t": 42111.700312500056,
      "d": 75.75749999999971,
      "v": 57
    },
    {
      "midi": 53,
      "hit": false,
      "t": 42111.700312500056,
      "d": 85.22718750000058,
      "v": 61
    },
    {
      "midi": 57,
      "hit": false,
      "t": 42414.730312500054,
      "d": 66.28781249999884,
      "v": 84
    },
    {
      "midi": 62,
      "hit": false,
      "t": 42414.730312500054,
      "d": 66.28781249999884,
      "v": 65
    },
    {
      "midi": 53,
      "hit": false,
      "t": 42414.730312500054,
      "d": 85.22718750000058,
      "v": 65
    },
    {
      "midi": 57,
      "hit": false,
      "t": 42717.76031250006,
      "d": 75.75749999999971,
      "v": 90
    },
    {
      "midi": 62,
      "hit": false,
      "t": 42717.76031250006,
      "d": 85.22718750000058,
      "v": 68
    },
    {
      "midi": 53,
      "hit": false,
      "t": 42717.76031250006,
      "d": 94.69687500000146,
      "v": 76
    },
    {
      "midi": 36,
      "hit": false,
      "t": 42717.76031250006,
      "d": 956.4384374999936,
      "v": 121
    },
    {
      "midi": 57,
      "hit": false,
      "t": 43020.79031250006,
      "d": 66.28781249999884,
      "v": 82
    },
    {
      "midi": 53,
      "hit": false,
      "t": 43020.79031250006,
      "d": 75.75749999999971,
      "v": 59
    },
    {
      "midi": 62,
      "hit": false,
      "t": 43020.79031250006,
      "d": 75.75749999999971,
      "v": 61
    },
    {
      "midi": 53,
      "hit": false,
      "t": 43323.82031250006,
      "d": 75.75749999999971,
      "v": 61
    },
    {
      "midi": 57,
      "hit": false,
      "t": 43323.82031250006,
      "d": 75.75749999999971,
      "v": 84
    },
    {
      "midi": 62,
      "hit": false,
      "t": 43323.82031250006,
      "d": 75.75749999999971,
      "v": 65
    },
    {
      "midi": 53,
      "hit": false,
      "t": 43626.85031250006,
      "d": 94.69687499999418,
      "v": 82
    },
    {
      "midi": 58,
      "hit": false,
      "t": 43626.85031250006,
      "d": 94.69687499999418,
      "v": 82
    },
    {
      "midi": 62,
      "hit": false,
      "t": 43626.85031250006,
      "d": 94.69687499999418,
      "v": 90
    },
    {
      "midi": 34,
      "hit": false,
      "t": 43626.85031250006,
      "d": 2604.1640624999854,
      "v": 121
    },
    {
      "midi": 58,
      "hit": false,
      "t": 43929.88031250005,
      "d": 66.28781249999884,
      "v": 74
    },
    {
      "midi": 53,
      "hit": false,
      "t": 43929.88031250005,
      "d": 75.75749999999971,
      "v": 68
    },
    {
      "midi": 62,
      "hit": false,
      "t": 43929.88031250005,
      "d": 85.22718750000058,
      "v": 68
    },
    {
      "midi": 58,
      "hit": false,
      "t": 44232.91031250005,
      "d": 56.81812499999796,
      "v": 76
    },
    {
      "midi": 62,
      "hit": false,
      "t": 44232.91031250005,
      "d": 75.75749999999971,
      "v": 76
    },
    {
      "midi": 53,
      "hit": false,
      "t": 44232.91031250005,
      "d": 85.22718750000058,
      "v": 82
    },
    {
      "midi": 58,
      "hit": false,
      "t": 44535.940312500046,
      "d": 75.75749999999971,
      "v": 76
    },
    {
      "midi": 62,
      "hit": false,
      "t": 44535.940312500046,
      "d": 85.22718750000058,
      "v": 68
    },
    {
      "midi": 53,
      "hit": false,
      "t": 44535.940312500046,
      "d": 94.69687500000146,
      "v": 76
    },
    {
      "midi": 58,
      "hit": false,
      "t": 44838.970312500045,
      "d": 66.28781249999884,
      "v": 78
    },
    {
      "midi": 53,
      "hit": false,
      "t": 44838.970312500045,
      "d": 75.75749999999971,
      "v": 82
    },
    {
      "midi": 62,
      "hit": false,
      "t": 44838.970312500045,
      "d": 75.75749999999971,
      "v": 76
    },
    {
      "midi": 53,
      "hit": false,
      "t": 45142.000312500044,
      "d": 75.75749999999971,
      "v": 68
    },
    {
      "midi": 58,
      "hit": false,
      "t": 45142.000312500044,
      "d": 75.75749999999971,
      "v": 76
    },
    {
      "midi": 62,
      "hit": false,
      "t": 45142.000312500044,
      "d": 85.22718750000058,
      "v": 72
    },
    {
      "midi": 58,
      "hit": false,
      "t": 45445.03031250004,
      "d": 75.75749999999971,
      "v": 78
    },
    {
      "midi": 53,
      "hit": false,
      "t": 45445.03031250004,
      "d": 85.22718750000058,
      "v": 85
    },
    {
      "midi": 62,
      "hit": false,
      "t": 45445.03031250004,
      "d": 85.22718750000058,
      "v": 84
    },
    {
      "midi": 58,
      "hit": false,
      "t": 45748.06031250004,
      "d": 66.28781249999884,
      "v": 79
    },
    {
      "midi": 53,
      "hit": false,
      "t": 45748.06031250004,
      "d": 75.75749999999971,
      "v": 76
    },
    {
      "midi": 62,
      "hit": false,
      "t": 45748.06031250004,
      "d": 75.75749999999971,
      "v": 69
    },
    {
      "midi": 53,
      "hit": false,
      "t": 46051.09031250004,
      "d": 85.22718750000058,
      "v": 79
    },
    {
      "midi": 58,
      "hit": false,
      "t": 46051.09031250004,
      "d": 85.22718750000058,
      "v": 80
    },
    {
      "midi": 62,
      "hit": false,
      "t": 46051.09031250004,
      "d": 94.69687500000146,
      "v": 79
    },
    {
      "midi": 57,
      "hit": false,
      "t": 46354.12031250004,
      "d": 85.22718750000058,
      "v": 98
    },
    {
      "midi": 53,
      "hit": false,
      "t": 46354.12031250004,
      "d": 94.69687500000146,
      "v": 80
    },
    {
      "midi": 62,
      "hit": false,
      "t": 46354.12031250004,
      "d": 94.69687500000146,
      "v": 86
    },
    {
      "midi": 33,
      "hit": false,
      "t": 46354.12031250004,
      "d": 890.1506249999948,
      "v": 121
    },
    {
      "midi": 57,
      "hit": false,
      "t": 46657.15031250004,
      "d": 75.75749999999971,
      "v": 90
    },
    {
      "midi": 62,
      "hit": false,
      "t": 46657.15031250004,
      "d": 75.75749999999971,
      "v": 74
    },
    {
      "midi": 53,
      "hit": false,
      "t": 46657.15031250004,
      "d": 94.69687500000146,
      "v": 76
    },
    {
      "midi": 57,
      "hit": false,
      "t": 46960.18031250004,
      "d": 66.28781249999884,
      "v": 88
    },
    {
      "midi": 53,
      "hit": false,
      "t": 46960.18031250004,
      "d": 85.22718750000058,
      "v": 78
    },
    {
      "midi": 62,
      "hit": false,
      "t": 46960.18031250004,
      "d": 85.22718750000058,
      "v": 76
    },
    {
      "midi": 58,
      "hit": false,
      "t": 47263.210312500036,
      "d": 75.75749999999971,
      "v": 82
    },
    {
      "midi": 55,
      "hit": false,
      "t": 47263.210312500036,
      "d": 85.22718750000058,
      "v": 82
    },
    {
      "midi": 62,
      "hit": false,
      "t": 47263.210312500036,
      "d": 94.69687500000146,
      "v": 84
    },
    {
      "midi": 31,
      "hit": false,
      "t": 47263.210312500036,
      "d": 3645.829687499987,
      "v": 108
    },
    {
      "midi": 58,
      "hit": false,
      "t": 47566.240312500035,
      "d": 56.81812499999796,
      "v": 70
    },
    {
      "midi": 55,
      "hit": false,
      "t": 47566.240312500035,
      "d": 75.75749999999971,
      "v": 65
    },
    {
      "midi": 62,
      "hit": false,
      "t": 47566.240312500035,
      "d": 75.75749999999971,
      "v": 65
    },
    {
      "midi": 58,
      "hit": false,
      "t": 47869.27031250003,
      "d": 66.28781249999884,
      "v": 74
    },
    {
      "midi": 62,
      "hit": false,
      "t": 47869.27031250003,
      "d": 75.75749999999971,
      "v": 67
    },
    {
      "midi": 55,
      "hit": false,
      "t": 47869.27031250003,
      "d": 85.22718750000058,
      "v": 76
    },
    {
      "midi": 58,
      "hit": false,
      "t": 48172.30031250003,
      "d": 66.28781249999884,
      "v": 72
    },
    {
      "midi": 55,
      "hit": false,
      "t": 48172.30031250003,
      "d": 85.22718750000058,
      "v": 61
    },
    {
      "midi": 62,
      "hit": false,
      "t": 48172.30031250003,
      "d": 94.69687500000146,
      "v": 76
    },
    {
      "midi": 55,
      "hit": false,
      "t": 48475.33031250003,
      "d": 66.28781249999884,
      "v": 61
    },
    {
      "midi": 58,
      "hit": false,
      "t": 48475.33031250003,
      "d": 66.28781249999884,
      "v": 76
    },
    {
      "midi": 62,
      "hit": false,
      "t": 48475.33031250003,
      "d": 75.75749999999971,
      "v": 74
    },
    {
      "midi": 58,
      "hit": false,
      "t": 48778.36031250003,
      "d": 66.28781249999884,
      "v": 82
    },
    {
      "midi": 55,
      "hit": false,
      "t": 48778.36031250003,
      "d": 75.75749999999971,
      "v": 80
    },
    {
      "midi": 62,
      "hit": false,
      "t": 48778.36031250003,
      "d": 85.22718750000058,
      "v": 80
    },
    {
      "midi": 55,
      "hit": false,
      "t": 49081.39031250003,
      "d": 75.75749999999971,
      "v": 68
    },
    {
      "midi": 58,
      "hit": false,
      "t": 49081.39031250003,
      "d": 75.75749999999971,
      "v": 76
    },
    {
      "midi": 62,
      "hit": false,
      "t": 49081.39031250003,
      "d": 85.22718750000058,
      "v": 72
    },
    {
      "midi": 55,
      "hit": false,
      "t": 49384.42031250003,
      "d": 66.28781249999884,
      "v": 61
    },
    {
      "midi": 58,
      "hit": false,
      "t": 49384.42031250003,
      "d": 66.28781249999884,
      "v": 76
    },
    {
      "midi": 62,
      "hit": false,
      "t": 49384.42031250003,
      "d": 85.22718750000058,
      "v": 72
    },
    {
      "midi": 58,
      "hit": false,
      "t": 49687.45031250003,
      "d": 66.28781249999884,
      "v": 74
    },
    {
      "midi": 55,
      "hit": false,
      "t": 49687.45031250003,
      "d": 75.75749999999971,
      "v": 61
    },
    {
      "midi": 62,
      "hit": false,
      "t": 49687.45031250003,
      "d": 85.22718750000058,
      "v": 68
    },
    {
      "midi": 58,
      "hit": false,
      "t": 49990.480312500025,
      "d": 66.28781249999884,
      "v": 76
    },
    {
      "midi": 55,
      "hit": false,
      "t": 49990.480312500025,
      "d": 85.22718750000058,
      "v": 68
    },
    {
      "midi": 62,
      "hit": false,
      "t": 49990.480312500025,
      "d": 85.22718750000058,
      "v": 72
    },
    {
      "midi": 58,
      "hit": false,
      "t": 50293.510312500024,
      "d": 75.75749999999971,
      "v": 76
    },
    {
      "midi": 55,
      "hit": false,
      "t": 50293.510312500024,
      "d": 85.22718750000058,
      "v": 76
    },
    {
      "midi": 62,
      "hit": false,
      "t": 50293.510312500024,
      "d": 94.69687500000146,
      "v": 82
    },
    {
      "midi": 55,
      "hit": false,
      "t": 50596.54031250002,
      "d": 66.28781249999884,
      "v": 86
    },
    {
      "midi": 58,
      "hit": false,
      "t": 50596.54031250002,
      "d": 66.28781249999884,
      "v": 82
    },
    {
      "midi": 62,
      "hit": false,
      "t": 50596.54031250002,
      "d": 66.28781249999884,
      "v": 84
    },
    {
      "midi": 57,
      "hit": false,
      "t": 50899.57031250002,
      "d": 75.75749999999971,
      "v": 98
    },
    {
      "midi": 61,
      "hit": false,
      "t": 50899.57031250002,
      "d": 75.75749999999971,
      "v": 72
    },
    {
      "midi": 52,
      "hit": false,
      "t": 50899.57031250002,
      "d": 94.69687500000146,
      "v": 82
    },
    {
      "midi": 33,
      "hit": false,
      "t": 50899.57031250002,
      "d": 1770.831562499996,
      "v": 108
    },
    {
      "midi": 61,
      "hit": false,
      "t": 51202.60031250002,
      "d": 75.75749999999971,
      "v": 53
    },
    {
      "midi": 57,
      "hit": false,
      "t": 51202.60031250002,
      "d": 85.22718750000058,
      "v": 74
    },
    {
      "midi": 52,
      "hit": false,
      "t": 51202.60031250002,
      "d": 94.69687500000146,
      "v": 57
    },
    {
      "midi": 61,
      "hit": false,
      "t": 51505.63031250002,
      "d": 66.28781249999884,
      "v": 61
    },
    {
      "midi": 57,
      "hit": false,
      "t": 51505.63031250002,
      "d": 75.75749999999971,
      "v": 82
    },
    {
      "midi": 52,
      "hit": false,
      "t": 51505.63031250002,
      "d": 85.22718750000058,
      "v": 68
    },
    {
      "midi": 52,
      "hit": false,
      "t": 51808.66031250002,
      "d": 75.75749999999971,
      "v": 70
    },
    {
      "midi": 57,
      "hit": false,
      "t": 51808.66031250002,
      "d": 75.75749999999971,
      "v": 84
    },
    {
      "midi": 61,
      "hit": false,
      "t": 51808.66031250002,
      "d": 75.75749999999971,
      "v": 72
    },
    {
      "midi": 57,
      "hit": false,
      "t": 52111.69031250002,
      "d": 66.28781249999884,
      "v": 92
    },
    {
      "midi": 52,
      "hit": false,
      "t": 52111.69031250002,
      "d": 85.22718750000058,
      "v": 78
    },
    {
      "midi": 61,
      "hit": false,
      "t": 52111.69031250002,
      "d": 85.22718750000058,
      "v": 80
    },
    {
      "midi": 57,
      "hit": false,
      "t": 52414.720312500016,
      "d": 75.75749999999971,
      "v": 86
    },
    {
      "midi": 52,
      "hit": false,
      "t": 52414.720312500016,
      "d": 85.22718750000058,
      "v": 72
    },
    {
      "midi": 61,
      "hit": false,
      "t": 52414.720312500016,
      "d": 85.22718750000058,
      "v": 68
    },
    {
      "midi": 57,
      "hit": false,
      "t": 52717.750312500015,
      "d": 66.28781249999884,
      "v": 94
    },
    {
      "midi": 61,
      "hit": false,
      "t": 52717.750312500015,
      "d": 85.22718750000058,
      "v": 80
    },
    {
      "midi": 53,
      "hit": false,
      "t": 52717.750312500015,
      "d": 94.69687500000146,
      "v": 72
    },
    {
      "midi": 41,
      "hit": false,
      "t": 52717.750312500015,
      "d": 928.0293749999983,
      "v": 122
    },
    {
      "midi": 57,
      "hit": false,
      "t": 53020.780312500014,
      "d": 66.28781249999884,
      "v": 94
    },
    {
      "midi": 61,
      "hit": false,
      "t": 53020.780312500014,
      "d": 85.22718750000058,
      "v": 76
    },
    {
      "midi": 53,
      "hit": false,
      "t": 53020.780312500014,
      "d": 94.69687500000146,
      "v": 78
    },
    {
      "midi": 57,
      "hit": false,
      "t": 53323.81031250001,
      "d": 66.28781249999884,
      "v": 92
    },
    {
      "midi": 61,
      "hit": false,
      "t": 53323.81031250001,
      "d": 75.75749999999971,
      "v": 76
    },
    {
      "midi": 53,
      "hit": false,
      "t": 53323.81031250001,
      "d": 94.69687500000146,
      "v": 80
    },
    {
      "midi": 57,
      "hit": false,
      "t": 53626.84031250001,
      "d": 66.28781249999884,
      "v": 98
    },
    {
      "midi": 52,
      "hit": false,
      "t": 53626.84031250001,
      "d": 85.22718750000058,
      "v": 86
    },
    {
      "midi": 61,
      "hit": false,
      "t": 53626.84031250001,
      "d": 85.22718750000058,
      "v": 78
    },
    {
      "midi": 40,
      "hit": false,
      "t": 53626.84031250001,
      "d": 871.2112500000003,
      "v": 118
    },
    {
      "midi": 57,
      "hit": false,
      "t": 53929.87031250001,
      "d": 85.22718750000058,
      "v": 84
    },
    {
      "midi": 52,
      "hit": false,
      "t": 53929.87031250001,
      "d": 94.69687500000146,
      "v": 68
    },
    {
      "midi": 61,
      "hit": false,
      "t": 53929.87031250001,
      "d": 94.69687500000146,
      "v": 67
    },
    {
      "midi": 57,
      "hit": false,
      "t": 54232.90031250001,
      "d": 104.16656250000233,
      "v": 90
    },
    {
      "midi": 61,
      "hit": false,
      "t": 54232.90031250001,
      "d": 113.6362500000032,
      "v": 76
    },
    {
      "midi": 52,
      "hit": false,
      "t": 54232.90031250001,
      "d": 123.10593750000407,
      "v": 76
    },
    {
      "midi": 50,
      "hit": false,
      "t": 54535.930312500015,
      "d": 142.04531249999854,
      "v": 109
    },
    {
      "midi": 38,
      "hit": false,
      "t": 54535.930312500015,
      "d": 388.2571874999994,
      "v": 116
    },
    {
      "midi": 50,
      "hit": false,
      "t": 56354.110312500015,
      "d": 160.9846875000003,
      "v": 106
    },
    {
      "midi": 38,
      "hit": false,
      "t": 56354.110312500015,
      "d": 416.66625000000204,
      "v": 112
    },
    {
      "midi": 46,
      "hit": false,
      "t": 58172.290312500016,
      "d": 189.3937500000029,
      "v": 96
    },
    {
      "midi": 34,
      "hit": false,
      "t": 58181.76000000002,
      "d": 274.6209375000035,
      "v": 127
    },
    {
      "midi": 45,
      "hit": false,
      "t": 61657.13531250002,
      "d": 208.33312499999738,
      "v": 92
    },
    {
      "midi": 33,
      "hit": false,
      "t": 61666.60500000002,
      "d": 132.57562499999767,
      "v": 118
    },
    {
      "midi": 50,
      "hit": false,
      "t": 61808.650312500016,
      "d": 227.27249999999913,
      "v": 86
    },
    {
      "midi": 38,
      "hit": false,
      "t": 61818.12000000002,
      "d": 246.21187500000087,
      "v": 94
    },
    {
      "midi": 45,
      "hit": false,
      "t": 65293.49531250002,
      "d": 198.86343750000378,
      "v": 92
    },
    {
      "midi": 33,
      "hit": false,
      "t": 65302.96500000002,
      "d": 160.9846875000003,
      "v": 118
    },
    {
      "midi": 50,
      "hit": false,
      "t": 65445.01031250002,
      "d": 189.3937500000029,
      "v": 92
    },
    {
      "midi": 38,
      "hit": false,
      "t": 65445.01031250002,
      "d": 303.02999999999884,
      "v": 69
    },
    {
      "midi": 45,
      "hit": false,
      "t": 68929.85531250002,
      "d": 189.39374999998836,
      "v": 92
    },
    {
      "midi": 33,
      "hit": false,
      "t": 68929.85531250002,
      "d": 198.86343749998196,
      "v": 123
    },
    {
      "midi": 50,
      "hit": false,
      "t": 69090.84000000001,
      "d": 179.92406249999476,
      "v": 100
    },
    {
      "midi": 38,
      "hit": false,
      "t": 69090.84000000001,
      "d": 217.80281249999825,
      "v": 98
    },
    {
      "midi": 35,
      "hit": false,
      "t": 72566.2153125,
      "d": 85.22718750000058,
      "v": 108
    },
    {
      "midi": 33,
      "hit": false,
      "t": 72566.2153125,
      "d": 160.98468749999302,
      "v": 121
    },
    {
      "midi": 45,
      "hit": false,
      "t": 72566.2153125,
      "d": 160.98468749999302,
      "v": 84
    },
    {
      "midi": 50,
      "hit": false,
      "t": 72717.7303125,
      "d": 208.3331249999901,
      "v": 98
    },
    {
      "midi": 38,
      "hit": false,
      "t": 72727.2,
      "d": 255.68156250000175,
      "v": 121
    },
    {
      "midi": 45,
      "hit": false,
      "t": 76202.5753125,
      "d": 170.4543749999866,
      "v": 59
    },
    {
      "midi": 33,
      "hit": false,
      "t": 76212.045,
      "d": 160.98468749999302,
      "v": 126
    },
    {
      "midi": 50,
      "hit": false,
      "t": 76354.0903125,
      "d": 189.39374999998836,
      "v": 98
    },
    {
      "midi": 38,
      "hit": false,
      "t": 76363.56,
      "d": 208.3331249999901,
      "v": 122
    },
    {
      "midi": 33,
      "hit": false,
      "t": 79838.93531249999,
      "d": 151.51499999999942,
      "v": 124
    },
    {
      "midi": 45,
      "hit": false,
      "t": 79838.93531249999,
      "d": 189.3937500000029,
      "v": 57
    },
    {
      "midi": 50,
      "hit": false,
      "t": 79990.45031249999,
      "d": 208.33312500000466,
      "v": 98
    },
    {
      "midi": 38,
      "hit": false,
      "t": 79990.45031249999,
      "d": 217.80281249999825,
      "v": 108
    },
    {
      "midi": 33,
      "hit": false,
      "t": 83475.29531249999,
      "d": 151.51499999999942,
      "v": 123
    },
    {
      "midi": 45,
      "hit": false,
      "t": 83475.29531249999,
      "d": 170.45437500000116,
      "v": 76
    },
    {
      "midi": 50,
      "hit": false,
      "t": 83626.81031249999,
      "d": 198.8634374999965,
      "v": 94
    },
    {
      "midi": 38,
      "hit": false,
      "t": 83626.81031249999,
      "d": 208.3331249999901,
      "v": 124
    },
    {
      "midi": 33,
      "hit": false,
      "t": 87263.17031249998,
      "d": 160.98468749999302,
      "v": 96
    },
    {
      "midi": 61,
      "hit": false,
      "t": 87566.20031249998,
      "d": 94.69687499999418,
      "v": 49
    },
    {
      "midi": 64,
      "hit": false,
      "t": 87566.20031249998,
      "d": 94.69687499999418,
      "v": 61
    },
    {
      "midi": 57,
      "hit": false,
      "t": 87566.20031249998,
      "d": 113.63624999999593,
      "v": 63
    },
    {
      "midi": 33,
      "hit": false,
      "t": 87566.20031249998,
      "d": 151.51499999999942,
      "v": 90
    },
    {
      "midi": 61,
      "hit": false,
      "t": 87869.23031249997,
      "d": 104.16656250000233,
      "v": 47
    },
    {
      "midi": 64,
      "hit": false,
      "t": 87869.23031249997,
      "d": 123.10593750000407,
      "v": 61
    },
    {
      "midi": 57,
      "hit": false,
      "t": 87869.23031249997,
      "d": 132.57562499999767,
      "v": 41
    },
    {
      "midi": 33,
      "hit": false,
      "t": 87869.23031249997,
      "d": 151.51499999999942,
      "v": 90
    },
    {
      "midi": 33,
      "hit": false,
      "t": 88172.26031249997,
      "d": 160.98468749999302,
      "v": 90
    },
    {
      "midi": 61,
      "hit": false,
      "t": 88475.29031249997,
      "d": 94.69687499999418,
      "v": 65
    },
    {
      "midi": 57,
      "hit": false,
      "t": 88475.29031249997,
      "d": 104.16656249998778,
      "v": 61
    },
    {
      "midi": 64,
      "hit": false,
      "t": 88475.29031249997,
      "d": 104.16656249998778,
      "v": 72
    },
    {
      "midi": 33,
      "hit": false,
      "t": 88475.29031249997,
      "d": 170.4543749999866,
      "v": 88
    },
    {
      "midi": 61,
      "hit": false,
      "t": 88778.32031249996,
      "d": 113.63624999999593,
      "v": 70
    },
    {
      "midi": 64,
      "hit": false,
      "t": 88778.32031249996,
      "d": 123.10593749998952,
      "v": 80
    },
    {
      "midi": 57,
      "hit": false,
      "t": 88778.32031249996,
      "d": 142.04531249999127,
      "v": 61
    },
    {
      "midi": 33,
      "hit": false,
      "t": 88778.32031249996,
      "d": 170.4543749999866,
      "v": 86
    },
    {
      "midi": 33,
      "hit": false,
      "t": 89081.35031249994,
      "d": 170.45437500000116,
      "v": 92
    },
    {
      "midi": 61,
      "hit": false,
      "t": 89384.38031249994,
      "d": 94.69687499999418,
      "v": 72
    },
    {
      "midi": 64,
      "hit": false,
      "t": 89384.38031249994,
      "d": 104.16656249998778,
      "v": 90
    },
    {
      "midi": 57,
      "hit": false,
      "t": 89384.38031249994,
      "d": 123.10593749998952,
      "v": 76
    },
    {
      "midi": 33,
      "hit": false,
      "t": 89384.38031249994,
      "d": 179.92406249999476,
      "v": 96
    },
    {
      "midi": 61,
      "hit": false,
      "t": 89687.41031249994,
      "d": 132.57562499999767,
      "v": 45
    },
    {
      "midi": 64,
      "hit": false,
      "t": 89687.41031249994,
      "d": 142.04531249999127,
      "v": 72
    },
    {
      "midi": 57,
      "hit": false,
      "t": 89687.41031249994,
      "d": 151.51499999998487,
      "v": 53
    },
    {
      "midi": 33,
      "hit": false,
      "t": 89696.87999999993,
      "d": 189.39374999998836,
      "v": 92
    },
    {
      "midi": 61,
      "hit": false,
      "t": 89990.44031249992,
      "d": 113.63624999999593,
      "v": 65
    },
    {
      "midi": 57,
      "hit": false,
      "t": 89990.44031249992,
      "d": 132.57562499999767,
      "v": 57
    },
    {
      "midi": 64,
      "hit": false,
      "t": 89990.44031249992,
      "d": 132.57562499999767,
      "v": 80
    },
    {
      "midi": 33,
      "hit": false,
      "t": 89999.90999999992,
      "d": 189.3937500000029,
      "v": 100
    },
    {
      "midi": 61,
      "hit": false,
      "t": 90293.47031249992,
      "d": 170.45437500000116,
      "v": 70
    },
    {
      "midi": 64,
      "hit": false,
      "t": 90293.47031249992,
      "d": 170.45437500000116,
      "v": 84
    },
    {
      "midi": 57,
      "hit": false,
      "t": 90293.47031249992,
      "d": 179.92406249999476,
      "v": 49
    },
    {
      "midi": 33,
      "hit": false,
      "t": 90293.47031249992,
      "d": 189.39374999998836,
      "v": 96
    },
    {
      "midi": 61,
      "hit": false,
      "t": 90596.5003124999,
      "d": 142.04531250000582,
      "v": 84
    },
    {
      "midi": 64,
      "hit": false,
      "t": 90596.5003124999,
      "d": 151.51499999999942,
      "v": 108
    },
    {
      "midi": 57,
      "hit": false,
      "t": 90596.5003124999,
      "d": 160.98468749999302,
      "v": 88
    },
    {
      "midi": 33,
      "hit": false,
      "t": 90596.5003124999,
      "d": 179.92406249999476,
      "v": 110
    },
    {
      "midi": 57,
      "hit": false,
      "t": 90908.9999999999,
      "d": 56.81812500000524,
      "v": 61
    },
    {
      "midi": 62,
      "hit": false,
      "t": 90908.9999999999,
      "d": 75.75750000000698,
      "v": 67
    },
    {
      "midi": 53,
      "hit": false,
      "t": 90908.9999999999,
      "d": 85.22718750000058,
      "v": 51
    },
    {
      "midi": 38,
      "hit": false,
      "t": 90908.9999999999,
      "d": 2689.3912499999715,
      "v": 118
    },
    {
      "midi": 57,
      "hit": false,
      "t": 91202.5603124999,
      "d": 85.22718750000058,
      "v": 57
    },
    {
      "midi": 62,
      "hit": false,
      "t": 91202.5603124999,
      "d": 94.69687499999418,
      "v": 41
    },
    {
      "midi": 53,
      "hit": false,
      "t": 91202.5603124999,
      "d": 113.63624999999593,
      "v": 51
    },
    {
      "midi": 57,
      "hit": false,
      "t": 91505.5903124999,
      "d": 85.22718750000058,
      "v": 57
    },
    {
      "midi": 53,
      "hit": false,
      "t": 91505.5903124999,
      "d": 94.69687499999418,
      "v": 41
    },
    {
      "midi": 62,
      "hit": false,
      "t": 91505.5903124999,
      "d": 94.69687499999418,
      "v": 51
    },
    {
      "midi": 57,
      "hit": false,
      "t": 91808.6203124999,
      "d": 85.22718750000058,
      "v": 76
    },
    {
      "midi": 53,
      "hit": false,
      "t": 91808.6203124999,
      "d": 94.69687499999418,
      "v": 68
    },
    {
      "midi": 62,
      "hit": false,
      "t": 91808.6203124999,
      "d": 94.69687499999418,
      "v": 72
    },
    {
      "midi": 57,
      "hit": false,
      "t": 92111.6503124999,
      "d": 75.75750000000698,
      "v": 59
    },
    {
      "midi": 53,
      "hit": false,
      "t": 92111.6503124999,
      "d": 85.22718750000058,
      "v": 45
    },
    {
      "midi": 62,
      "hit": false,
      "t": 92111.6503124999,
      "d": 85.22718750000058,
      "v": 45
    },
    {
      "midi": 57,
      "hit": false,
      "t": 92414.6803124999,
      "d": 85.22718750000058,
      "v": 74
    },
    {
      "midi": 62,
      "hit": false,
      "t": 92414.6803124999,
      "d": 85.22718750000058,
      "v": 61
    },
    {
      "midi": 53,
      "hit": false,
      "t": 92414.6803124999,
      "d": 94.69687499999418,
      "v": 61
    },
    {
      "midi": 57,
      "hit": false,
      "t": 92717.7103124999,
      "d": 85.22718750000058,
      "v": 74
    },
    {
      "midi": 62,
      "hit": false,
      "t": 92717.7103124999,
      "d": 94.69687499999418,
      "v": 67
    },
    {
      "midi": 53,
      "hit": false,
      "t": 92717.7103124999,
      "d": 104.16656249998778,
      "v": 65
    },
    {
      "midi": 57,
      "hit": false,
      "t": 93020.74031249988,
      "d": 85.22718750000058,
      "v": 57
    },
    {
      "midi": 62,
      "hit": false,
      "t": 93020.74031249988,
      "d": 94.69687499999418,
      "v": 45
    },
    {
      "midi": 53,
      "hit": false,
      "t": 93020.74031249988,
      "d": 104.16656249998778,
      "v": 47
    },
    {
      "midi": 57,
      "hit": false,
      "t": 93323.77031249987,
      "d": 75.75750000000698,
      "v": 45
    },
    {
      "midi": 62,
      "hit": false,
      "t": 93323.77031249987,
      "d": 85.22718750000058,
      "v": 37
    },
    {
      "midi": 53,
      "hit": false,
      "t": 93323.77031249987,
      "d": 104.16656250000233,
      "v": 43
    },
    {
      "midi": 57,
      "hit": false,
      "t": 93626.80031249986,
      "d": 104.16656249998778,
      "v": 80
    },
    {
      "midi": 53,
      "hit": false,
      "t": 93626.80031249986,
      "d": 113.63624999998137,
      "v": 68
    },
    {
      "midi": 62,
      "hit": false,
      "t": 93626.80031249986,
      "d": 113.63624999998137,
      "v": 76
    },
    {
      "midi": 36,
      "hit": false,
      "t": 93636.26999999986,
      "d": 909.0899999999674,
      "v": 116
    },
    {
      "midi": 57,
      "hit": false,
      "t": 93929.83031249985,
      "d": 94.69687499999418,
      "v": 68
    },
    {
      "midi": 62,
      "hit": false,
      "t": 93929.83031249985,
      "d": 94.69687499999418,
      "v": 53
    },
    {
      "midi": 53,
      "hit": false,
      "t": 93929.83031249985,
      "d": 104.16656249998778,
      "v": 53
    },
    {
      "midi": 57,
      "hit": false,
      "t": 94232.86031249983,
      "d": 85.22718750000058,
      "v": 65
    },
    {
      "midi": 53,
      "hit": false,
      "t": 94232.86031249983,
      "d": 104.16656250000233,
      "v": 51
    },
    {
      "midi": 62,
      "hit": false,
      "t": 94232.86031249983,
      "d": 104.16656250000233,
      "v": 51
    },
    {
      "midi": 58,
      "hit": false,
      "t": 94535.89031249983,
      "d": 94.69687499999418,
      "v": 76
    },
    {
      "midi": 62,
      "hit": false,
      "t": 94535.89031249983,
      "d": 104.16656249998778,
      "v": 80
    },
    {
      "midi": 53,
      "hit": false,
      "t": 94535.89031249983,
      "d": 113.63624999998137,
      "v": 72
    },
    {
      "midi": 34,
      "hit": false,
      "t": 94535.89031249983,
      "d": 2670.4518749999697,
      "v": 98
    },
    {
      "midi": 58,
      "hit": false,
      "t": 94838.92031249982,
      "d": 85.22718750000058,
      "v": 68
    },
    {
      "midi": 62,
      "hit": false,
      "t": 94838.92031249982,
      "d": 85.22718750000058,
      "v": 63
    },
    {
      "midi": 53,
      "hit": false,
      "t": 94838.92031249982,
      "d": 94.69687499999418,
      "v": 68
    },
    {
      "midi": 58,
      "hit": false,
      "t": 95141.95031249982,
      "d": 75.75750000000698,
      "v": 55
    },
    {
      "midi": 53,
      "hit": false,
      "t": 95141.95031249982,
      "d": 94.69687500000873,
      "v": 45
    },
    {
      "midi": 62,
      "hit": false,
      "t": 95141.95031249982,
      "d": 94.69687500000873,
      "v": 47
    },
    {
      "midi": 58,
      "hit": false,
      "t": 95444.98031249983,
      "d": 75.75750000000698,
      "v": 76
    },
    {
      "midi": 62,
      "hit": false,
      "t": 95444.98031249983,
      "d": 94.69687500000873,
      "v": 76
    },
    {
      "midi": 53,
      "hit": false,
      "t": 95444.98031249983,
      "d": 104.16656250000233,
      "v": 76
    },
    {
      "midi": 58,
      "hit": false,
      "t": 95748.01031249983,
      "d": 75.75750000000698,
      "v": 61
    },
    {
      "midi": 62,
      "hit": false,
      "t": 95748.01031249983,
      "d": 85.22718750000058,
      "v": 49
    },
    {
      "midi": 53,
      "hit": false,
      "t": 95748.01031249983,
      "d": 94.69687499999418,
      "v": 57
    },
    {
      "midi": 58,
      "hit": false,
      "t": 96051.04031249983,
      "d": 66.28781249999884,
      "v": 70
    },
    {
      "midi": 62,
      "hit": false,
      "t": 96051.04031249983,
      "d": 75.75749999999243,
      "v": 65
    },
    {
      "midi": 53,
      "hit": false,
      "t": 96051.04031249983,
      "d": 85.22718749998603,
      "v": 74
    },
    {
      "midi": 58,
      "hit": false,
      "t": 96354.07031249981,
      "d": 85.22718750000058,
      "v": 76
    },
    {
      "midi": 62,
      "hit": false,
      "t": 96354.07031249981,
      "d": 94.69687499999418,
      "v": 78
    },
    {
      "midi": 53,
      "hit": false,
      "t": 96354.07031249981,
      "d": 113.63624999999593,
      "v": 72
    },
    {
      "midi": 58,
      "hit": false,
      "t": 96657.10031249981,
      "d": 85.22718750000058,
      "v": 70
    },
    {
      "midi": 53,
      "hit": false,
      "t": 96657.10031249981,
      "d": 94.69687499999418,
      "v": 67
    },
    {
      "midi": 62,
      "hit": false,
      "t": 96657.10031249981,
      "d": 94.69687499999418,
      "v": 63
    },
    {
      "midi": 58,
      "hit": false,
      "t": 96960.13031249981,
      "d": 94.69687499999418,
      "v": 68
    },
    {
      "midi": 53,
      "hit": false,
      "t": 96960.13031249981,
      "d": 113.63624999999593,
      "v": 67
    },
    {
      "midi": 62,
      "hit": false,
      "t": 96960.13031249981,
      "d": 113.63624999999593,
      "v": 65
    },
    {
      "midi": 57,
      "hit": false,
      "t": 97263.16031249981,
      "d": 104.16656250000233,
      "v": 90
    },
    {
      "midi": 53,
      "hit": false,
      "t": 97263.16031249981,
      "d": 123.10593750000407,
      "v": 76
    },
    {
      "midi": 62,
      "hit": false,
      "t": 97263.16031249981,
      "d": 123.10593750000407,
      "v": 82
    },
    {
      "midi": 33,
      "hit": false,
      "t": 97263.16031249981,
      "d": 861.7415624999994,
      "v": 108
    },
    {
      "midi": 57,
      "hit": false,
      "t": 97566.1903124998,
      "d": 94.69687499999418,
      "v": 57
    },
    {
      "midi": 53,
      "hit": false,
      "t": 97566.1903124998,
      "d": 113.63624999999593,
      "v": 45
    },
    {
      "midi": 62,
      "hit": false,
      "t": 97566.1903124998,
      "d": 113.63624999999593,
      "v": 49
    },
    {
      "midi": 53,
      "hit": false,
      "t": 97869.2203124998,
      "d": 85.22718750000058,
      "v": 53
    },
    {
      "midi": 57,
      "hit": false,
      "t": 97869.2203124998,
      "d": 85.22718750000058,
      "v": 68
    },
    {
      "midi": 62,
      "hit": false,
      "t": 97869.2203124998,
      "d": 104.16656250000233,
      "v": 47
    },
    {
      "midi": 58,
      "hit": false,
      "t": 98172.2503124998,
      "d": 75.75750000000698,
      "v": 84
    },
    {
      "midi": 62,
      "hit": false,
      "t": 98172.2503124998,
      "d": 85.22718750000058,
      "v": 96
    },
    {
      "midi": 55,
      "hit": false,
      "t": 98172.2503124998,
      "d": 104.16656250000233,
      "v": 86
    },
    {
      "midi": 31,
      "hit": false,
      "t": 98172.2503124998,
      "d": 3589.0115625000035,
      "v": 100
    },
    {
      "midi": 58,
      "hit": false,
      "t": 98475.2803124998,
      "d": 75.75750000000698,
      "v": 68
    },
    {
      "midi": 55,
      "hit": false,
      "t": 98475.2803124998,
      "d": 94.69687500000873,
      "v": 67
    },
    {
      "midi": 62,
      "hit": false,
      "t": 98475.2803124998,
      "d": 94.69687500000873,
      "v": 63
    },
    {
      "midi": 58,
      "hit": false,
      "t": 98778.31031249982,
      "d": 85.22718750000058,
      "v": 55
    },
    {
      "midi": 62,
      "hit": false,
      "t": 98778.31031249982,
      "d": 85.22718750000058,
      "v": 41
    },
    {
      "midi": 55,
      "hit": false,
      "t": 98778.31031249982,
      "d": 94.69687499999418,
      "v": 47
    },
    {
      "midi": 55,
      "hit": false,
      "t": 99081.34031249981,
      "d": 85.22718750000058,
      "v": 74
    },
    {
      "midi": 58,
      "hit": false,
      "t": 99081.34031249981,
      "d": 85.22718750000058,
      "v": 78
    },
    {
      "midi": 62,
      "hit": false,
      "t": 99081.34031249981,
      "d": 85.22718750000058,
      "v": 80
    },
    {
      "midi": 55,
      "hit": false,
      "t": 99384.37031249981,
      "d": 75.75750000000698,
      "v": 49
    },
    {
      "midi": 58,
      "hit": false,
      "t": 99384.37031249981,
      "d": 75.75750000000698,
      "v": 61
    },
    {
      "midi": 62,
      "hit": false,
      "t": 99384.37031249981,
      "d": 85.22718750000058,
      "v": 57
    },
    {
      "midi": 58,
      "hit": false,
      "t": 99687.40031249981,
      "d": 66.28781249999884,
      "v": 76
    },
    {
      "midi": 55,
      "hit": false,
      "t": 99687.40031249981,
      "d": 75.75749999999243,
      "v": 72
    },
    {
      "midi": 62,
      "hit": false,
      "t": 99687.40031249981,
      "d": 75.75749999999243,
      "v": 80
    },
    {
      "midi": 58,
      "hit": false,
      "t": 99990.43031249981,
      "d": 85.22718750000058,
      "v": 72
    },
    {
      "midi": 55,
      "hit": false,
      "t": 99990.43031249981,
      "d": 94.69687499999418,
      "v": 65
    },
    {
      "midi": 62,
      "hit": false,
      "t": 99990.43031249981,
      "d": 94.69687499999418,
      "v": 72
    },
    {
      "midi": 55,
      "hit": false,
      "t": 100293.46031249981,
      "d": 75.75750000000698,
      "v": 45
    },
    {
      "midi": 58,
      "hit": false,
      "t": 100293.46031249981,
      "d": 75.75750000000698,
      "v": 51
    },
    {
      "midi": 62,
      "hit": false,
      "t": 100293.46031249981,
      "d": 85.22718750000058,
      "v": 47
    },
    {
      "midi": 58,
      "hit": false,
      "t": 100596.49031249981,
      "d": 75.75750000000698,
      "v": 65
    },
    {
      "midi": 55,
      "hit": false,
      "t": 100596.49031249981,
      "d": 85.22718750000058,
      "v": 53
    },
    {
      "midi": 62,
      "hit": false,
      "t": 100596.49031249981,
      "d": 85.22718750000058,
      "v": 61
    },
    {
      "midi": 55,
      "hit": false,
      "t": 100899.52031249981,
      "d": 94.69687499999418,
      "v": 63
    },
    {
      "midi": 58,
      "hit": false,
      "t": 100899.52031249981,
      "d": 94.69687499999418,
      "v": 70
    },
    {
      "midi": 62,
      "hit": false,
      "t": 100899.52031249981,
      "d": 113.63624999999593,
      "v": 67
    },
    {
      "midi": 55,
      "hit": false,
      "t": 101202.5503124998,
      "d": 85.22718750000058,
      "v": 61
    },
    {
      "midi": 58,
      "hit": false,
      "t": 101202.5503124998,
      "d": 85.22718750000058,
      "v": 72
    },
    {
      "midi": 62,
      "hit": false,
      "t": 101202.5503124998,
      "d": 104.16656250000233,
      "v": 76
    },
    {
      "midi": 62,
      "hit": false,
      "t": 101505.5803124998,
      "d": 75.75750000000698,
      "v": 76
    },
    {
      "midi": 55,
      "hit": false,
      "t": 101505.5803124998,
      "d": 85.22718750000058,
      "v": 78
    },
    {
      "midi": 58,
      "hit": false,
      "t": 101505.5803124998,
      "d": 85.22718750000058,
      "v": 78
    },
    {
      "midi": 61,
      "hit": false,
      "t": 101808.6103124998,
      "d": 75.75750000000698,
      "v": 76
    },
    {
      "midi": 57,
      "hit": false,
      "t": 101808.6103124998,
      "d": 85.22718750000058,
      "v": 98
    },
    {
      "midi": 52,
      "hit": false,
      "t": 101808.6103124998,
      "d": 94.69687499999418,
      "v": 88
    },
    {
      "midi": 33,
      "hit": false,
      "t": 101808.6103124998,
      "d": 1666.6649999999645,
      "v": 112
    },
    {
      "midi": 57,
      "hit": false,
      "t": 102111.6403124998,
      "d": 75.75750000000698,
      "v": 49
    },
    {
      "midi": 61,
      "hit": false,
      "t": 102111.6403124998,
      "d": 75.75750000000698,
      "v": 37
    },
    {
      "midi": 52,
      "hit": false,
      "t": 102111.6403124998,
      "d": 85.22718750000058,
      "v": 43
    },
    {
      "midi": 61,
      "hit": false,
      "t": 102414.6703124998,
      "d": 75.75750000000698,
      "v": 45
    },
    {
      "midi": 57,
      "hit": false,
      "t": 102414.6703124998,
      "d": 85.22718750000058,
      "v": 78
    },
    {
      "midi": 52,
      "hit": false,
      "t": 102414.6703124998,
      "d": 104.16656250000233,
      "v": 65
    },
    {
      "midi": 57,
      "hit": false,
      "t": 102717.7003124998,
      "d": 85.22718750000058,
      "v": 90
    },
    {
      "midi": 61,
      "hit": false,
      "t": 102717.7003124998,
      "d": 85.22718750000058,
      "v": 72
    },
    {
      "midi": 52,
      "hit": false,
      "t": 102717.7003124998,
      "d": 104.16656250000233,
      "v": 72
    },
    {
      "midi": 57,
      "hit": false,
      "t": 103020.7303124998,
      "d": 94.69687499999418,
      "v": 82
    },
    {
      "midi": 61,
      "hit": false,
      "t": 103020.7303124998,
      "d": 94.69687499999418,
      "v": 53
    },
    {
      "midi": 52,
      "hit": false,
      "t": 103020.7303124998,
      "d": 104.16656249998778,
      "v": 65
    },
    {
      "midi": 57,
      "hit": false,
      "t": 103323.76031249978,
      "d": 85.22718750000058,
      "v": 82
    },
    {
      "midi": 61,
      "hit": false,
      "t": 103323.76031249978,
      "d": 94.69687499999418,
      "v": 51
    },
    {
      "midi": 52,
      "hit": false,
      "t": 103323.76031249978,
      "d": 104.16656249998778,
      "v": 65
    },
    {
      "midi": 57,
      "hit": false,
      "t": 103626.79031249977,
      "d": 94.69687499999418,
      "v": 90
    },
    {
      "midi": 61,
      "hit": false,
      "t": 103626.79031249977,
      "d": 94.69687499999418,
      "v": 72
    },
    {
      "midi": 53,
      "hit": false,
      "t": 103626.79031249977,
      "d": 113.63624999999593,
      "v": 68
    },
    {
      "midi": 41,
      "hit": false,
      "t": 103626.79031249977,
      "d": 946.9687499999854,
      "v": 119
    },
    {
      "midi": 57,
      "hit": false,
      "t": 103929.82031249977,
      "d": 66.28781249999884,
      "v": 82
    },
    {
      "midi": 61,
      "hit": false,
      "t": 103929.82031249977,
      "d": 66.28781249999884,
      "v": 61
    },
    {
      "midi": 53,
      "hit": false,
      "t": 103929.82031249977,
      "d": 104.16656250000233,
      "v": 65
    },
    {
      "midi": 57,
      "hit": false,
      "t": 104232.85031249977,
      "d": 85.22718750000058,
      "v": 92
    },
    {
      "midi": 61,
      "hit": false,
      "t": 104232.85031249977,
      "d": 85.22718750000058,
      "v": 74
    },
    {
      "midi": 53,
      "hit": false,
      "t": 104232.85031249977,
      "d": 104.16656250000233,
      "v": 72
    },
    {
      "midi": 57,
      "hit": false,
      "t": 104535.88031249976,
      "d": 94.69687499999418,
      "v": 88
    },
    {
      "midi": 61,
      "hit": false,
      "t": 104535.88031249976,
      "d": 94.69687499999418,
      "v": 76
    },
    {
      "midi": 52,
      "hit": false,
      "t": 104535.88031249976,
      "d": 104.16656249998778,
      "v": 80
    },
    {
      "midi": 40,
      "hit": false,
      "t": 104545.34999999976,
      "d": 928.0293749999837,
      "v": 116
    },
    {
      "midi": 57,
      "hit": false,
      "t": 104838.91031249975,
      "d": 104.16656250000233,
      "v": 84
    },
    {
      "midi": 61,
      "hit": false,
      "t": 104838.91031249975,
      "d": 104.16656250000233,
      "v": 67
    },
    {
      "midi": 52,
      "hit": false,
      "t": 104838.91031249975,
      "d": 113.63624999999593,
      "v": 68
    },
    {
      "midi": 57,
      "hit": false,
      "t": 105141.94031249975,
      "d": 75.75750000000698,
      "v": 82
    },
    {
      "midi": 52,
      "hit": false,
      "t": 105141.94031249975,
      "d": 85.22718750000058,
      "v": 59
    },
    {
      "midi": 61,
      "hit": false,
      "t": 105141.94031249975,
      "d": 85.22718750000058,
      "v": 49
    },
    {
      "midi": 57,
      "hit": false,
      "t": 105444.97031249975,
      "d": 94.69687499999418,
      "v": 88
    },
    {
      "midi": 53,
      "hit": false,
      "t": 105444.97031249975,
      "d": 113.63624999999593,
      "v": 72
    },
    {
      "midi": 62,
      "hit": false,
      "t": 105444.97031249975,
      "d": 113.63624999999593,
      "v": 84
    },
    {
      "midi": 38,
      "hit": false,
      "t": 105454.43999999974,
      "d": 2708.3306250000023,
      "v": 123
    },
    {
      "midi": 57,
      "hit": false,
      "t": 105748.00031249975,
      "d": 66.28781249999884,
      "v": 78
    },
    {
      "midi": 53,
      "hit": false,
      "t": 105748.00031249975,
      "d": 94.69687499999418,
      "v": 65
    },
    {
      "midi": 62,
      "hit": false,
      "t": 105748.00031249975,
      "d": 94.69687499999418,
      "v": 61
    },
    {
      "midi": 57,
      "hit": false,
      "t": 106051.03031249974,
      "d": 66.28781249999884,
      "v": 90
    },
    {
      "midi": 62,
      "hit": false,
      "t": 106051.03031249974,
      "d": 66.28781249999884,
      "v": 68
    },
    {
      "midi": 53,
      "hit": false,
      "t": 106051.03031249974,
      "d": 85.22718750000058,
      "v": 76
    },
    {
      "midi": 57,
      "hit": false,
      "t": 106354.06031249974,
      "d": 66.28781249999884,
      "v": 92
    },
    {
      "midi": 62,
      "hit": false,
      "t": 106354.06031249974,
      "d": 75.75749999999243,
      "v": 74
    },
    {
      "midi": 53,
      "hit": false,
      "t": 106354.06031249974,
      "d": 85.22718749998603,
      "v": 78
    },
    {
      "midi": 57,
      "hit": false,
      "t": 106657.09031249973,
      "d": 66.28781249999884,
      "v": 61
    },
    {
      "midi": 62,
      "hit": false,
      "t": 106657.09031249973,
      "d": 75.75749999999243,
      "v": 43
    },
    {
      "midi": 53,
      "hit": false,
      "t": 106657.09031249973,
      "d": 94.69687499999418,
      "v": 49
    },
    {
      "midi": 57,
      "hit": false,
      "t": 106960.12031249973,
      "d": 75.75750000000698,
      "v": 80
    },
    {
      "midi": 62,
      "hit": false,
      "t": 106960.12031249973,
      "d": 75.75750000000698,
      "v": 59
    },
    {
      "midi": 53,
      "hit": false,
      "t": 106960.12031249973,
      "d": 94.69687500000873,
      "v": 61
    },
    {
      "midi": 57,
      "hit": false,
      "t": 107263.15031249974,
      "d": 75.75750000000698,
      "v": 84
    },
    {
      "midi": 62,
      "hit": false,
      "t": 107263.15031249974,
      "d": 85.22718750000058,
      "v": 72
    },
    {
      "midi": 53,
      "hit": false,
      "t": 107263.15031249974,
      "d": 94.69687499999418,
      "v": 68
    },
    {
      "midi": 57,
      "hit": false,
      "t": 107566.18031249974,
      "d": 75.75750000000698,
      "v": 74
    },
    {
      "midi": 53,
      "hit": false,
      "t": 107566.18031249974,
      "d": 85.22718750000058,
      "v": 57
    },
    {
      "midi": 62,
      "hit": false,
      "t": 107566.18031249974,
      "d": 85.22718750000058,
      "v": 57
    },
    {
      "midi": 57,
      "hit": false,
      "t": 107869.21031249974,
      "d": 75.75750000000698,
      "v": 82
    },
    {
      "midi": 62,
      "hit": false,
      "t": 107869.21031249974,
      "d": 75.75750000000698,
      "v": 59
    },
    {
      "midi": 53,
      "hit": false,
      "t": 107869.21031249974,
      "d": 94.69687500000873,
      "v": 70
    },
    {
      "midi": 57,
      "hit": false,
      "t": 108172.24031249974,
      "d": 85.22718750000058,
      "v": 80
    },
    {
      "midi": 62,
      "hit": false,
      "t": 108172.24031249974,
      "d": 94.69687499999418,
      "v": 63
    },
    {
      "midi": 53,
      "hit": false,
      "t": 108172.24031249974,
      "d": 104.16656249998778,
      "v": 68
    },
    {
      "midi": 36,
      "hit": false,
      "t": 108172.24031249974,
      "d": 937.4990624999919,
      "v": 121
    },
    {
      "midi": 57,
      "hit": false,
      "t": 108475.27031249972,
      "d": 85.22718750000058,
      "v": 84
    },
    {
      "midi": 53,
      "hit": false,
      "t": 108475.27031249972,
      "d": 104.16656250000233,
      "v": 68
    },
    {
      "midi": 62,
      "hit": false,
      "t": 108475.27031249972,
      "d": 104.16656250000233,
      "v": 68
    },
    {
      "midi": 57,
      "hit": false,
      "t": 108778.30031249972,
      "d": 75.75750000000698,
      "v": 88
    },
    {
      "midi": 53,
      "hit": false,
      "t": 108778.30031249972,
      "d": 94.69687500000873,
      "v": 70
    },
    {
      "midi": 62,
      "hit": false,
      "t": 108778.30031249972,
      "d": 94.69687500000873,
      "v": 72
    },
    {
      "midi": 58,
      "hit": false,
      "t": 109081.33031249973,
      "d": 75.75749999999243,
      "v": 78
    },
    {
      "midi": 53,
      "hit": false,
      "t": 109081.33031249973,
      "d": 94.69687499999418,
      "v": 80
    },
    {
      "midi": 62,
      "hit": false,
      "t": 109081.33031249973,
      "d": 104.16656249998778,
      "v": 82
    },
    {
      "midi": 34,
      "hit": false,
      "t": 109081.33031249973,
      "d": 2689.3912499999424,
      "v": 104
    },
    {
      "midi": 58,
      "hit": false,
      "t": 109384.36031249972,
      "d": 66.28781249999884,
      "v": 72
    },
    {
      "midi": 62,
      "hit": false,
      "t": 109384.36031249972,
      "d": 75.75749999999243,
      "v": 68
    },
    {
      "midi": 53,
      "hit": false,
      "t": 109384.36031249972,
      "d": 85.22718749998603,
      "v": 72
    },
    {
      "midi": 58,
      "hit": false,
      "t": 109687.3903124997,
      "d": 75.75750000000698,
      "v": 72
    },
    {
      "midi": 62,
      "hit": false,
      "t": 109687.3903124997,
      "d": 85.22718750000058,
      "v": 65
    },
    {
      "midi": 53,
      "hit": false,
      "t": 109687.3903124997,
      "d": 94.69687499999418,
      "v": 74
    },
    {
      "midi": 58,
      "hit": false,
      "t": 109990.4203124997,
      "d": 85.22718750000058,
      "v": 76
    },
    {
      "midi": 53,
      "hit": false,
      "t": 109990.4203124997,
      "d": 104.16656250000233,
      "v": 78
    },
    {
      "midi": 62,
      "hit": false,
      "t": 109990.4203124997,
      "d": 104.16656250000233,
      "v": 76
    },
    {
      "midi": 58,
      "hit": false,
      "t": 110293.4503124997,
      "d": 75.75750000000698,
      "v": 72
    },
    {
      "midi": 62,
      "hit": false,
      "t": 110293.4503124997,
      "d": 85.22718750000058,
      "v": 61
    },
    {
      "midi": 53,
      "hit": false,
      "t": 110293.4503124997,
      "d": 94.69687499999418,
      "v": 65
    },
    {
      "midi": 58,
      "hit": false,
      "t": 110596.4803124997,
      "d": 66.28781249999884,
      "v": 70
    },
    {
      "midi": 53,
      "hit": false,
      "t": 110596.4803124997,
      "d": 85.22718750000058,
      "v": 72
    },
    {
      "midi": 62,
      "hit": false,
      "t": 110596.4803124997,
      "d": 85.22718750000058,
      "v": 70
    },
    {
      "midi": 58,
      "hit": false,
      "t": 110899.5103124997,
      "d": 75.75750000000698,
      "v": 76
    },
    {
      "midi": 53,
      "hit": false,
      "t": 110899.5103124997,
      "d": 85.22718750000058,
      "v": 68
    },
    {
      "midi": 62,
      "hit": false,
      "t": 110899.5103124997,
      "d": 85.22718750000058,
      "v": 72
    },
    {
      "midi": 58,
      "hit": false,
      "t": 111202.5403124997,
      "d": 66.28781249999884,
      "v": 84
    },
    {
      "midi": 53,
      "hit": false,
      "t": 111202.5403124997,
      "d": 75.75749999999243,
      "v": 90
    },
    {
      "midi": 62,
      "hit": false,
      "t": 111202.5403124997,
      "d": 85.22718749998603,
      "v": 86
    },
    {
      "midi": 53,
      "hit": false,
      "t": 111505.57031249968,
      "d": 85.22718750000058,
      "v": 90
    },
    {
      "midi": 58,
      "hit": false,
      "t": 111505.57031249968,
      "d": 85.22718750000058,
      "v": 86
    },
    {
      "midi": 62,
      "hit": false,
      "t": 111505.57031249968,
      "d": 85.22718750000058,
      "v": 86
    },
    {
      "midi": 57,
      "hit": false,
      "t": 111808.60031249968,
      "d": 66.28781249999884,
      "v": 102
    },
    {
      "midi": 53,
      "hit": false,
      "t": 111808.60031249968,
      "d": 85.22718750000058,
      "v": 88
    },
    {
      "midi": 62,
      "hit": false,
      "t": 111808.60031249968,
      "d": 85.22718750000058,
      "v": 88
    },
    {
      "midi": 33,
      "hit": false,
      "t": 111808.60031249968,
      "d": 880.6809374999866,
      "v": 114
    },
    {
      "midi": 57,
      "hit": false,
      "t": 112111.63031249968,
      "d": 85.22718750000058,
      "v": 88
    },
    {
      "midi": 62,
      "hit": false,
      "t": 112111.63031249968,
      "d": 85.22718750000058,
      "v": 72
    },
    {
      "midi": 53,
      "hit": false,
      "t": 112111.63031249968,
      "d": 94.69687499999418,
      "v": 68
    },
    {
      "midi": 57,
      "hit": false,
      "t": 112414.66031249968,
      "d": 66.28781249999884,
      "v": 90
    },
    {
      "midi": 53,
      "hit": false,
      "t": 112414.66031249968,
      "d": 75.75749999999243,
      "v": 76
    },
    {
      "midi": 62,
      "hit": false,
      "t": 112414.66031249968,
      "d": 75.75749999999243,
      "v": 80
    },
    {
      "midi": 55,
      "hit": false,
      "t": 112717.69031249966,
      "d": 85.22718750000058,
      "v": 70
    },
    {
      "midi": 58,
      "hit": false,
      "t": 112717.69031249966,
      "d": 85.22718750000058,
      "v": 76
    },
    {
      "midi": 62,
      "hit": false,
      "t": 112717.69031249966,
      "d": 94.69687499999418,
      "v": 76
    },
    {
      "midi": 31,
      "hit": false,
      "t": 112717.69031249966,
      "d": 3598.4812499999825,
      "v": 114
    },
    {
      "midi": 58,
      "hit": false,
      "t": 113020.72031249966,
      "d": 66.28781249999884,
      "v": 74
    },
    {
      "midi": 55,
      "hit": false,
      "t": 113020.72031249966,
      "d": 85.22718750000058,
      "v": 70
    },
    {
      "midi": 62,
      "hit": false,
      "t": 113020.72031249966,
      "d": 85.22718750000058,
      "v": 67
    },
    {
      "midi": 58,
      "hit": false,
      "t": 113323.75031249966,
      "d": 75.75750000000698,
      "v": 78
    },
    {
      "midi": 55,
      "hit": false,
      "t": 113323.75031249966,
      "d": 85.22718750000058,
      "v": 80
    },
    {
      "midi": 62,
      "hit": false,
      "t": 113323.75031249966,
      "d": 85.22718750000058,
      "v": 76
    },
    {
      "midi": 58,
      "hit": false,
      "t": 113626.78031249966,
      "d": 75.75750000000698,
      "v": 74
    },
    {
      "midi": 55,
      "hit": false,
      "t": 113626.78031249966,
      "d": 85.22718750000058,
      "v": 65
    },
    {
      "midi": 62,
      "hit": false,
      "t": 113626.78031249966,
      "d": 85.22718750000058,
      "v": 68
    },
    {
      "midi": 55,
      "hit": false,
      "t": 113929.81031249966,
      "d": 75.75750000000698,
      "v": 63
    },
    {
      "midi": 58,
      "hit": false,
      "t": 113929.81031249966,
      "d": 75.75750000000698,
      "v": 72
    },
    {
      "midi": 62,
      "hit": false,
      "t": 113929.81031249966,
      "d": 75.75750000000698,
      "v": 61
    },
    {
      "midi": 55,
      "hit": false,
      "t": 114232.84031249967,
      "d": 75.75750000000698,
      "v": 57
    },
    {
      "midi": 58,
      "hit": false,
      "t": 114232.84031249967,
      "d": 75.75750000000698,
      "v": 72
    },
    {
      "midi": 62,
      "hit": false,
      "t": 114232.84031249967,
      "d": 85.22718750000058,
      "v": 55
    },
    {
      "midi": 55,
      "hit": false,
      "t": 114535.87031249967,
      "d": 85.22718750000058,
      "v": 61
    },
    {
      "midi": 58,
      "hit": false,
      "t": 114535.87031249967,
      "d": 85.22718750000058,
      "v": 72
    },
    {
      "midi": 62,
      "hit": false,
      "t": 114535.87031249967,
      "d": 94.69687499999418,
      "v": 65
    },
    {
      "midi": 58,
      "hit": false,
      "t": 114838.90031249967,
      "d": 66.28781249999884,
      "v": 74
    },
    {
      "midi": 55,
      "hit": false,
      "t": 114838.90031249967,
      "d": 75.75749999999243,
      "v": 65
    },
    {
      "midi": 62,
      "hit": false,
      "t": 114838.90031249967,
      "d": 75.75749999999243,
      "v": 68
    },
    {
      "midi": 58,
      "hit": false,
      "t": 115141.93031249967,
      "d": 66.28781249999884,
      "v": 68
    },
    {
      "midi": 55,
      "hit": false,
      "t": 115141.93031249967,
      "d": 75.75749999999243,
      "v": 55
    },
    {
      "midi": 62,
      "hit": false,
      "t": 115141.93031249967,
      "d": 85.22718749998603,
      "v": 59
    },
    {
      "midi": 55,
      "hit": false,
      "t": 115444.96031249965,
      "d": 85.22718750000058,
      "v": 67
    },
    {
      "midi": 58,
      "hit": false,
      "t": 115444.96031249965,
      "d": 85.22718750000058,
      "v": 72
    },
    {
      "midi": 62,
      "hit": false,
      "t": 115444.96031249965,
      "d": 94.69687499999418,
      "v": 70
    },
    {
      "midi": 55,
      "hit": false,
      "t": 115747.99031249965,
      "d": 85.22718750000058,
      "v": 74
    },
    {
      "midi": 58,
      "hit": false,
      "t": 115747.99031249965,
      "d": 85.22718750000058,
      "v": 78
    },
    {
      "midi": 62,
      "hit": false,
      "t": 115747.99031249965,
      "d": 85.22718750000058,
      "v": 76
    },
    {
      "midi": 55,
      "hit": false,
      "t": 116051.02031249965,
      "d": 66.28781249999884,
      "v": 76
    },
    {
      "midi": 58,
      "hit": false,
      "t": 116051.02031249965,
      "d": 66.28781249999884,
      "v": 80
    },
    {
      "midi": 62,
      "hit": false,
      "t": 116051.02031249965,
      "d": 75.75749999999243,
      "v": 78
    },
    {
      "midi": 57,
      "hit": false,
      "t": 116354.05031249965,
      "d": 1865.5284375000047,
      "v": 96
    },
    {
      "midi": 61,
      "hit": false,
      "t": 116354.05031249965,
      "d": 1874.9981249999983,
      "v": 76
    },
    {
      "midi": 52,
      "hit": false,
      "t": 116354.05031249965,
      "d": 1884.4678124999919,
      "v": 68
    },
    {
      "midi": 33,
      "hit": false,
      "t": 116354.05031249965,
      "d": 2821.9668749999983,
      "v": 110
    },
    {
      "midi": 45,
      "hit": false,
      "t": 119838.89531249965,
      "d": 208.33312500000466,
      "v": 92
    },
    {
      "midi": 50,
      "hit": false,
      "t": 119990.41031249965,
      "d": 227.2725000000064,
      "v": 86
    },
    {
      "midi": 45,
      "hit": false,
      "t": 123475.25531249965,
      "d": 198.8634374999965,
      "v": 92
    },
    {
      "midi": 50,
      "hit": false,
      "t": 123626.77031249965,
      "d": 189.3937500000029,
      "v": 92
    },
    {
      "midi": 45,
      "hit": false,
      "t": 127111.61531249965,
      "d": 189.39374999998836,
      "v": 92
    },
    {
      "midi": 50,
      "hit": false,
      "t": 127272.59999999964,
      "d": 179.92406249999476,
      "v": 100
    },
    {
      "midi": 45,
      "hit": false,
      "t": 130747.97531249964,
      "d": 160.98468749999302,
      "v": 84
    },
    {
      "midi": 50,
      "hit": false,
      "t": 130899.49031249963,
      "d": 208.33312500000466,
      "v": 98
    },
    {
      "midi": 45,
      "hit": false,
      "t": 134384.33531249964,
      "d": 170.45437500000116,
      "v": 59
    },
    {
      "midi": 50,
      "hit": false,
      "t": 134535.85031249965,
      "d": 189.39374999998836,
      "v": 98
    },
    {
      "midi": 45,
      "hit": false,
      "t": 138020.69531249965,
      "d": 189.39375000001746,
      "v": 57
    },
    {
      "midi": 50,
      "hit": false,
      "t": 138172.21031249966,
      "d": 208.33312500000466,
      "v": 98
    },
    {
      "midi": 45,
      "hit": false,
      "t": 141657.05531249967,
      "d": 170.45437500000116,
      "v": 76
    },
    {
      "midi": 50,
      "hit": false,
      "t": 141808.57031249968,
      "d": 198.8634374999965,
      "v": 94
    },
    {
      "midi": 69,
      "hit": false,
      "t": 145454.39999999967,
      "d": 918.5596875000047,
      "v": 90
    },
    {
      "midi": 45,
      "hit": false,
      "t": 145454.39999999967,
      "d": 928.0293750000128,
      "v": 98
    },
    {
      "midi": 64,
      "hit": false,
      "t": 145454.39999999967,
      "d": 1846.5890624999884,
      "v": 93
    },
    {
      "midi": 61,
      "hit": false,
      "t": 145454.39999999967,
      "d": 3693.1781249999767,
      "v": 86
    },
    {
      "midi": 43,
      "hit": false,
      "t": 146344.55062499968,
      "d": 937.4990624999919,
      "v": 106
    },
    {
      "midi": 67,
      "hit": false,
      "t": 146354.0203124997,
      "d": 928.0293749999837,
      "v": 91
    },
    {
      "midi": 41,
      "hit": false,
      "t": 147244.1709374997,
      "d": 965.9081249999581,
      "v": 90
    },
    {
      "midi": 65,
      "hit": false,
      "t": 147263.1103124997,
      "d": 994.3171874999825,
      "v": 89
    },
    {
      "midi": 40,
      "hit": false,
      "t": 148191.13968749967,
      "d": 804.9234374999942,
      "v": 106
    },
    {
      "midi": 64,
      "hit": false,
      "t": 148191.13968749967,
      "d": 823.8628124999814,
      "v": 95
    },
    {
      "midi": 38,
      "hit": false,
      "t": 148986.59343749966,
      "d": 4223.480625000026,
      "v": 67
    },
    {
      "midi": 50,
      "hit": false,
      "t": 148996.06312499967,
      "d": 4185.601875000022,
      "v": 76
    },
    {
      "midi": 53,
      "hit": false,
      "t": 149071.82062499964,
      "d": 4090.905000000028,
      "v": 92
    },
    {
      "midi": 57,
      "hit": false,
      "t": 149157.04781249966,
      "d": 4034.0868750000373,
      "v": 82
    },
    {
      "midi": 62,
      "hit": false,
      "t": 149232.80531249967,
      "d": 3939.390000000014,
      "v": 72
    }
  ]
}