{
  "jsonPath": "Rock/Garage Rock/Magnet/the-day-we-left-town.json",
  "path": "Rock\\Garage Rock\\Magnet\\The Day We Left Town.mid",
  "name": "The Day We Left Town",
  "difficulty": "Advanced",
  "bpm": 120,
  "notes": [
    {
      "midi": 78,
      "hit": false,
      "t": 5766.666666666667,
      "d": 150,
      "v": 112
    },
    {
      "midi": 66,
      "hit": false,
      "t": 5766.666666666667,
      "d": 1650,
      "v": 93
    },
    {
      "midi": 57,
      "hit": false,
      "t": 5766.666666666667,
      "d": 1816.666666666667,
      "v": 84
    },
    {
      "midi": 61,
      "hit": false,
      "t": 5766.666666666667,
      "d": 1833.333333333334,
      "v": 86
    },
    {
      "midi": 54,
      "hit": false,
      "t": 5766.666666666667,
      "d": 1866.666666666667,
      "v": 103
    },
    {
      "midi": 78,
      "hit": false,
      "t": 6083.333333333334,
      "d": 333.33333333333303,
      "v": 119
    },
    {
      "midi": 76,
      "hit": false,
      "t": 6416.666666666667,
      "d": 366.66666666666697,
      "v": 105
    },
    {
      "midi": 78,
      "hit": false,
      "t": 6733.333333333334,
      "d": 333.33333333333394,
      "v": 112
    },
    {
      "midi": 76,
      "hit": false,
      "t": 7050.000000000001,
      "d": 350,
      "v": 105
    },
    {
      "midi": 78,
      "hit": false,
      "t": 7366.666666666668,
      "d": 366.66666666666606,
      "v": 103
    },
    {
      "midi": 76,
      "hit": false,
      "t": 7683.333333333334,
      "d": 350,
      "v": 105
    },
    {
      "midi": 68,
      "hit": false,
      "t": 7683.333333333334,
      "d": 1566.666666666666,
      "v": 93
    },
    {
      "midi": 61,
      "hit": false,
      "t": 7683.333333333334,
      "d": 1583.3333333333321,
      "v": 75
    },
    {
      "midi": 64,
      "hit": false,
      "t": 7683.333333333334,
      "d": 1583.3333333333321,
      "v": 78
    },
    {
      "midi": 49,
      "hit": false,
      "t": 7683.333333333334,
      "d": 1633.3333333333321,
      "v": 112
    },
    {
      "midi": 73,
      "hit": false,
      "t": 8016.666666666667,
      "d": 366.66666666666697,
      "v": 107
    },
    {
      "midi": 71,
      "hit": false,
      "t": 8333.333333333334,
      "d": 366.66666666666606,
      "v": 103
    },
    {
      "midi": 73,
      "hit": false,
      "t": 8650,
      "d": 816.6666666666661,
      "v": 119
    },
    {
      "midi": 78,
      "hit": false,
      "t": 9616.666666666666,
      "d": 516.6666666666661,
      "v": 115
    },
    {
      "midi": 57,
      "hit": false,
      "t": 9616.666666666666,
      "d": 800,
      "v": 91
    },
    {
      "midi": 66,
      "hit": false,
      "t": 9616.666666666666,
      "d": 800,
      "v": 86
    },
    {
      "midi": 50,
      "hit": false,
      "t": 9616.666666666666,
      "d": 850,
      "v": 97
    },
    {
      "midi": 62,
      "hit": false,
      "t": 9616.666666666666,
      "d": 866.6666666666661,
      "v": 95
    },
    {
      "midi": 78,
      "hit": false,
      "t": 10249.999999999998,
      "d": 250,
      "v": 115
    },
    {
      "midi": 76,
      "hit": false,
      "t": 10566.666666666664,
      "d": 683.3333333333339,
      "v": 109
    },
    {
      "midi": 52,
      "hit": false,
      "t": 10566.666666666666,
      "d": 850,
      "v": 91
    },
    {
      "midi": 68,
      "hit": false,
      "t": 10566.666666666666,
      "d": 850,
      "v": 93
    },
    {
      "midi": 59,
      "hit": false,
      "t": 10566.666666666666,
      "d": 866.6666666666661,
      "v": 82
    },
    {
      "midi": 64,
      "hit": false,
      "t": 10566.666666666666,
      "d": 900,
      "v": 86
    },
    {
      "midi": 78,
      "hit": false,
      "t": 11216.666666666664,
      "d": 350.0000000000018,
      "v": 103
    },
    {
      "midi": 73,
      "hit": false,
      "t": 11533.333333333332,
      "d": 1333.333333333334,
      "v": 124
    },
    {
      "midi": 57,
      "hit": false,
      "t": 11533.333333333332,
      "d": 1666.666666666666,
      "v": 97
    },
    {
      "midi": 61,
      "hit": false,
      "t": 11533.333333333332,
      "d": 1666.666666666666,
      "v": 93
    },
    {
      "midi": 64,
      "hit": false,
      "t": 11533.333333333332,
      "d": 1666.666666666666,
      "v": 93
    },
    {
      "midi": 69,
      "hit": false,
      "t": 12816.666666666666,
      "d": 400,
      "v": 86
    },
    {
      "midi": 73,
      "hit": false,
      "t": 13133.333333333332,
      "d": 366.6666666666679,
      "v": 103
    },
    {
      "midi": 59,
      "hit": false,
      "t": 13466.666666666664,
      "d": 1766.666666666666,
      "v": 84
    },
    {
      "midi": 62,
      "hit": false,
      "t": 13466.666666666664,
      "d": 1766.666666666666,
      "v": 100
    },
    {
      "midi": 66,
      "hit": false,
      "t": 13466.666666666664,
      "d": 1783.3333333333321,
      "v": 93
    },
    {
      "midi": 71,
      "hit": false,
      "t": 13466.666666666666,
      "d": 200,
      "v": 118
    },
    {
      "midi": 71,
      "hit": false,
      "t": 13783.333333333332,
      "d": 383.3333333333321,
      "v": 101
    },
    {
      "midi": 69,
      "hit": false,
      "t": 14099.999999999998,
      "d": 383.3333333333321,
      "v": 105
    },
    {
      "midi": 71,
      "hit": false,
      "t": 14416.666666666664,
      "d": 350,
      "v": 112
    },
    {
      "midi": 69,
      "hit": false,
      "t": 14733.33333333333,
      "d": 333.33333333333394,
      "v": 107
    },
    {
      "midi": 71,
      "hit": false,
      "t": 15066.666666666664,
      "d": 333.3333333333321,
      "v": 103
    },
    {
      "midi": 69,
      "hit": false,
      "t": 15383.33333333333,
      "d": 333.3333333333321,
      "v": 107
    },
    {
      "midi": 66,
      "hit": false,
      "t": 15383.33333333333,
      "d": 1716.666666666666,
      "v": 93
    },
    {
      "midi": 57,
      "hit": false,
      "t": 15383.33333333333,
      "d": 1733.333333333334,
      "v": 89
    },
    {
      "midi": 61,
      "hit": false,
      "t": 15383.33333333333,
      "d": 1733.333333333334,
      "v": 93
    },
    {
      "midi": 54,
      "hit": false,
      "t": 15383.33333333333,
      "d": 1766.666666666666,
      "v": 98
    },
    {
      "midi": 66,
      "hit": false,
      "t": 15699.999999999996,
      "d": 350,
      "v": 98
    },
    {
      "midi": 64,
      "hit": false,
      "t": 16016.666666666662,
      "d": 333.33333333333394,
      "v": 94
    },
    {
      "midi": 66,
      "hit": false,
      "t": 16349.999999999996,
      "d": 766.6666666666679,
      "v": 112
    },
    {
      "midi": 69,
      "hit": false,
      "t": 17299.999999999996,
      "d": 750,
      "v": 118
    },
    {
      "midi": 50,
      "hit": false,
      "t": 17299.999999999996,
      "d": 1683.3333333333321,
      "v": 89
    },
    {
      "midi": 62,
      "hit": false,
      "t": 17299.999999999996,
      "d": 1733.3333333333321,
      "v": 100
    },
    {
      "midi": 66,
      "hit": false,
      "t": 17299.999999999996,
      "d": 1766.6666666666642,
      "v": 98
    },
    {
      "midi": 57,
      "hit": false,
      "t": 17299.999999999996,
      "d": 1799.9999999999964,
      "v": 89
    },
    {
      "midi": 66,
      "hit": false,
      "t": 17949.999999999996,
      "d": 316.6666666666679,
      "v": 112
    },
    {
      "midi": 69,
      "hit": false,
      "t": 18266.666666666664,
      "d": 300,
      "v": 105
    },
    {
      "midi": 71,
      "hit": false,
      "t": 18583.333333333332,
      "d": 350,
      "v": 82
    },
    {
      "midi": 73,
      "hit": false,
      "t": 18900,
      "d": 233.33333333333212,
      "v": 107
    },
    {
      "midi": 65,
      "hit": false,
      "t": 19233.333333333325,
      "d": 1566.6666666666679,
      "v": 104
    },
    {
      "midi": 49,
      "hit": false,
      "t": 19233.333333333325,
      "d": 1700,
      "v": 81
    },
    {
      "midi": 61,
      "hit": false,
      "t": 19233.333333333325,
      "d": 1766.6666666666679,
      "v": 95
    },
    {
      "midi": 73,
      "hit": false,
      "t": 19233.333333333332,
      "d": 1450,
      "v": 115
    },
    {
      "midi": 66,
      "hit": false,
      "t": 21149.999999999993,
      "d": 1650,
      "v": 98
    },
    {
      "midi": 57,
      "hit": false,
      "t": 21149.999999999993,
      "d": 1733.3333333333321,
      "v": 93
    },
    {
      "midi": 54,
      "hit": false,
      "t": 21149.999999999993,
      "d": 1783.3333333333321,
      "v": 103
    },
    {
      "midi": 61,
      "hit": false,
      "t": 21149.999999999993,
      "d": 1800,
      "v": 91
    },
    {
      "midi": 61,
      "hit": false,
      "t": 23066.66666666666,
      "d": 1616.6666666666679,
      "v": 79
    },
    {
      "midi": 68,
      "hit": false,
      "t": 23066.66666666666,
      "d": 1633.3333333333358,
      "v": 100
    },
    {
      "midi": 49,
      "hit": false,
      "t": 23066.66666666666,
      "d": 1650.0000000000036,
      "v": 103
    },
    {
      "midi": 64,
      "hit": false,
      "t": 23066.66666666666,
      "d": 1650.0000000000036,
      "v": 91
    },
    {
      "midi": 57,
      "hit": false,
      "t": 24999.999999999996,
      "d": 800,
      "v": 93
    },
    {
      "midi": 66,
      "hit": false,
      "t": 24999.999999999996,
      "d": 816.6666666666679,
      "v": 86
    },
    {
      "midi": 62,
      "hit": false,
      "t": 24999.999999999996,
      "d": 883.3333333333358,
      "v": 97
    },
    {
      "midi": 50,
      "hit": false,
      "t": 24999.999999999996,
      "d": 900.0000000000036,
      "v": 89
    },
    {
      "midi": 68,
      "hit": false,
      "t": 25950,
      "d": 816.6666666666679,
      "v": 81
    },
    {
      "midi": 59,
      "hit": false,
      "t": 25950,
      "d": 833.3333333333358,
      "v": 95
    },
    {
      "midi": 52,
      "hit": false,
      "t": 25950,
      "d": 850.0000000000036,
      "v": 100
    },
    {
      "midi": 64,
      "hit": false,
      "t": 25950,
      "d": 850.0000000000036,
      "v": 80
    },
    {
      "midi": 57,
      "hit": false,
      "t": 26916.66666666667,
      "d": 1666.6666666666679,
      "v": 100
    },
    {
      "midi": 61,
      "hit": false,
      "t": 26916.66666666667,
      "d": 1666.6666666666679,
      "v": 93
    },
    {
      "midi": 64,
      "hit": false,
      "t": 26916.66666666667,
      "d": 1700,
      "v": 86
    },
    {
      "midi": 59,
      "hit": false,
      "t": 28833.33333333334,
      "d": 1800,
      "v": 89
    },
    {
      "midi": 62,
      "hit": false,
      "t": 28833.33333333334,
      "d": 1800,
      "v": 100
    },
    {
      "midi": 66,
      "hit": false,
      "t": 28833.33333333334,
      "d": 1800,
      "v": 95
    },
    {
      "midi": 61,
      "hit": false,
      "t": 30766.66666666667,
      "d": 1783.3333333333321,
      "v": 103
    },
    {
      "midi": 66,
      "hit": false,
      "t": 30766.66666666667,
      "d": 1783.3333333333321,
      "v": 100
    },
    {
      "midi": 57,
      "hit": false,
      "t": 30766.66666666667,
      "d": 1800,
      "v": 93
    },
    {
      "midi": 57,
      "hit": false,
      "t": 32683.33333333334,
      "d": 616.6666666666679,
      "v": 67
    },
    {
      "midi": 66,
      "hit": false,
      "t": 32683.33333333334,
      "d": 733.3333333333321,
      "v": 93
    },
    {
      "midi": 50,
      "hit": false,
      "t": 32683.33333333334,
      "d": 783.3333333333321,
      "v": 95
    },
    {
      "midi": 62,
      "hit": false,
      "t": 32683.33333333334,
      "d": 799.9999999999964,
      "v": 102
    },
    {
      "midi": 52,
      "hit": false,
      "t": 33650,
      "d": 733.3333333333358,
      "v": 97
    },
    {
      "midi": 59,
      "hit": false,
      "t": 33650,
      "d": 750,
      "v": 86
    },
    {
      "midi": 68,
      "hit": false,
      "t": 33650,
      "d": 783.3333333333358,
      "v": 98
    },
    {
      "midi": 64,
      "hit": false,
      "t": 33650,
      "d": 800,
      "v": 89
    },
    {
      "midi": 57,
      "hit": false,
      "t": 34600,
      "d": 1716.6666666666642,
      "v": 97
    },
    {
      "midi": 61,
      "hit": false,
      "t": 34600,
      "d": 1733.3333333333285,
      "v": 93
    },
    {
      "midi": 66,
      "hit": false,
      "t": 34600,
      "d": 1733.3333333333285,
      "v": 95
    },
    {
      "midi": 54,
      "hit": false,
      "t": 34600,
      "d": 1749.9999999999927,
      "v": 95
    },
    {
      "midi": 57,
      "hit": false,
      "t": 51916.66666666666,
      "d": 1799.9999999999927,
      "v": 95
    },
    {
      "midi": 64,
      "hit": false,
      "t": 52233.33333333332,
      "d": 1466.6666666666642,
      "v": 82
    },
    {
      "midi": 69,
      "hit": false,
      "t": 52549.999999999985,
      "d": 1000,
      "v": 89
    },
    {
      "midi": 76,
      "hit": false,
      "t": 52866.66666666665,
      "d": 633.3333333333358,
      "v": 91
    },
    {
      "midi": 68,
      "hit": false,
      "t": 53833.333333333314,
      "d": 1483.3333333333358,
      "v": 79
    },
    {
      "midi": 73,
      "hit": false,
      "t": 53833.333333333314,
      "d": 1633.3333333333358,
      "v": 75
    },
    {
      "midi": 64,
      "hit": false,
      "t": 53833.333333333314,
      "d": 1716.6666666666715,
      "v": 84
    },
    {
      "midi": 66,
      "hit": false,
      "t": 55749.999999999985,
      "d": 1416.6666666666715,
      "v": 84
    },
    {
      "midi": 54,
      "hit": false,
      "t": 55749.999999999985,
      "d": 1733.3333333333358,
      "v": 98
    },
    {
      "midi": 69,
      "hit": false,
      "t": 55749.999999999985,
      "d": 1816.6666666666715,
      "v": 91
    },
    {
      "midi": 73,
      "hit": false,
      "t": 55749.999999999985,
      "d": 1866.6666666666715,
      "v": 86
    },
    {
      "midi": 64,
      "hit": false,
      "t": 57033.33333333332,
      "d": 383.33333333333576,
      "v": 76
    },
    {
      "midi": 66,
      "hit": false,
      "t": 57366.66666666666,
      "d": 233.33333333333576,
      "v": 86
    },
    {
      "midi": 61,
      "hit": false,
      "t": 57683.33333333332,
      "d": 1616.6666666666642,
      "v": 95
    },
    {
      "midi": 68,
      "hit": false,
      "t": 57683.33333333332,
      "d": 1666.6666666666642,
      "v": 95
    },
    {
      "midi": 73,
      "hit": false,
      "t": 57683.33333333332,
      "d": 1666.6666666666642,
      "v": 75
    },
    {
      "midi": 64,
      "hit": false,
      "t": 57683.33333333332,
      "d": 1700,
      "v": 93
    },
    {
      "midi": 66,
      "hit": false,
      "t": 59599.999999999985,
      "d": 1783.3333333333358,
      "v": 100
    },
    {
      "midi": 62,
      "hit": false,
      "t": 59599.999999999985,
      "d": 1800,
      "v": 95
    },
    {
      "midi": 69,
      "hit": false,
      "t": 59599.999999999985,
      "d": 1833.3333333333358,
      "v": 102
    },
    {
      "midi": 64,
      "hit": false,
      "t": 61533.33333333332,
      "d": 1716.6666666666642,
      "v": 73
    },
    {
      "midi": 73,
      "hit": false,
      "t": 61533.33333333332,
      "d": 1716.6666666666642,
      "v": 91
    },
    {
      "midi": 69,
      "hit": false,
      "t": 61533.33333333332,
      "d": 1766.6666666666642,
      "v": 91
    },
    {
      "midi": 57,
      "hit": false,
      "t": 61533.33333333332,
      "d": 1783.3333333333285,
      "v": 95
    },
    {
      "midi": 62,
      "hit": false,
      "t": 63449.999999999985,
      "d": 1550,
      "v": 86
    },
    {
      "midi": 66,
      "hit": false,
      "t": 63449.999999999985,
      "d": 1583.3333333333358,
      "v": 91
    },
    {
      "midi": 71,
      "hit": false,
      "t": 63449.999999999985,
      "d": 1616.6666666666715,
      "v": 91
    },
    {
      "midi": 59,
      "hit": false,
      "t": 63449.999999999985,
      "d": 1866.6666666666715,
      "v": 82
    },
    {
      "midi": 73,
      "hit": false,
      "t": 65366.66666666666,
      "d": 800,
      "v": 91
    },
    {
      "midi": 68,
      "hit": false,
      "t": 65366.66666666666,
      "d": 850,
      "v": 88
    },
    {
      "midi": 61,
      "hit": false,
      "t": 65366.66666666666,
      "d": 1616.666666666686,
      "v": 91
    },
    {
      "midi": 64,
      "hit": false,
      "t": 65366.66666666666,
      "d": 1766.666666666686,
      "v": 78
    },
    {
      "midi": 76,
      "hit": false,
      "t": 66333.33333333333,
      "d": 216.66666666667152,
      "v": 100
    },
    {
      "midi": 73,
      "hit": false,
      "t": 66650,
      "d": 433.33333333334303,
      "v": 95
    },
    {
      "midi": 68,
      "hit": false,
      "t": 66966.66666666667,
      "d": 183.33333333334303,
      "v": 67
    },
    {
      "midi": 62,
      "hit": false,
      "t": 67300.00000000001,
      "d": 1716.6666666666715,
      "v": 93
    },
    {
      "midi": 66,
      "hit": false,
      "t": 67300.00000000001,
      "d": 1733.333333333343,
      "v": 95
    },
    {
      "midi": 50,
      "hit": false,
      "t": 67300.00000000001,
      "d": 1750.0000000000146,
      "v": 78
    },
    {
      "midi": 69,
      "hit": false,
      "t": 67300.00000000001,
      "d": 1750.0000000000146,
      "v": 100
    },
    {
      "midi": 71,
      "hit": false,
      "t": 69216.6666666667,
      "d": 1483.3333333333285,
      "v": 97
    },
    {
      "midi": 68,
      "hit": false,
      "t": 69216.6666666667,
      "d": 1533.3333333333285,
      "v": 100
    },
    {
      "midi": 52,
      "hit": false,
      "t": 69216.6666666667,
      "d": 1866.666666666657,
      "v": 93
    },
    {
      "midi": 64,
      "hit": false,
      "t": 69216.6666666667,
      "d": 1899.9999999999854,
      "v": 74
    },
    {
      "midi": 69,
      "hit": false,
      "t": 71133.33333333336,
      "d": 1633.3333333333285,
      "v": 97
    },
    {
      "midi": 66,
      "hit": false,
      "t": 71133.33333333336,
      "d": 1650,
      "v": 86
    },
    {
      "midi": 73,
      "hit": false,
      "t": 71133.33333333336,
      "d": 1750,
      "v": 95
    },
    {
      "midi": 54,
      "hit": false,
      "t": 71133.33333333336,
      "d": 1766.6666666666715,
      "v": 98
    },
    {
      "midi": 49,
      "hit": false,
      "t": 73066.6666666667,
      "d": 850,
      "v": 88
    },
    {
      "midi": 64,
      "hit": false,
      "t": 73066.6666666667,
      "d": 850,
      "v": 93
    },
    {
      "midi": 68,
      "hit": false,
      "t": 73066.6666666667,
      "d": 866.6666666666715,
      "v": 93
    },
    {
      "midi": 73,
      "hit": false,
      "t": 73066.6666666667,
      "d": 866.6666666666715,
      "v": 93
    },
    {
      "midi": 49,
      "hit": false,
      "t": 74016.6666666667,
      "d": 566.6666666666715,
      "v": 100
    },
    {
      "midi": 73,
      "hit": false,
      "t": 74016.6666666667,
      "d": 566.6666666666715,
      "v": 93
    },
    {
      "midi": 68,
      "hit": false,
      "t": 74016.6666666667,
      "d": 583.333333333343,
      "v": 93
    },
    {
      "midi": 64,
      "hit": false,
      "t": 74016.6666666667,
      "d": 600.0000000000146,
      "v": 82
    },
    {
      "midi": 66,
      "hit": false,
      "t": 74983.33333333339,
      "d": 1550,
      "v": 79
    },
    {
      "midi": 69,
      "hit": false,
      "t": 74983.33333333339,
      "d": 1550,
      "v": 91
    },
    {
      "midi": 73,
      "hit": false,
      "t": 74983.33333333339,
      "d": 1566.6666666666715,
      "v": 86
    },
    {
      "midi": 54,
      "hit": false,
      "t": 74983.33333333339,
      "d": 1666.6666666666715,
      "v": 95
    },
    {
      "midi": 73,
      "hit": false,
      "t": 76900.00000000006,
      "d": 1583.3333333333285,
      "v": 93
    },
    {
      "midi": 49,
      "hit": false,
      "t": 76900.00000000006,
      "d": 1616.666666666657,
      "v": 65
    },
    {
      "midi": 64,
      "hit": false,
      "t": 76900.00000000006,
      "d": 1633.3333333333285,
      "v": 71
    },
    {
      "midi": 68,
      "hit": false,
      "t": 76900.00000000006,
      "d": 1650,
      "v": 93
    },
    {
      "midi": 50,
      "hit": false,
      "t": 78833.33333333339,
      "d": 1733.3333333333285,
      "v": 82
    },
    {
      "midi": 62,
      "hit": false,
      "t": 78833.33333333339,
      "d": 1766.666666666657,
      "v": 80
    },
    {
      "midi": 66,
      "hit": false,
      "t": 78833.33333333339,
      "d": 1799.9999999999854,
      "v": 95
    },
    {
      "midi": 69,
      "hit": false,
      "t": 78833.33333333339,
      "d": 1833.333333333314,
      "v": 100
    },
    {
      "midi": 64,
      "hit": false,
      "t": 80750.00000000003,
      "d": 616.6666666666715,
      "v": 59
    },
    {
      "midi": 69,
      "hit": false,
      "t": 80750.00000000003,
      "d": 666.6666666666715,
      "v": 86
    },
    {
      "midi": 73,
      "hit": false,
      "t": 80750.00000000003,
      "d": 666.6666666666715,
      "v": 93
    },
    {
      "midi": 57,
      "hit": false,
      "t": 80750.00000000003,
      "d": 1883.333333333343,
      "v": 86
    },
    {
      "midi": 64,
      "hit": false,
      "t": 81716.6666666667,
      "d": 716.6666666666715,
      "v": 91
    },
    {
      "midi": 69,
      "hit": false,
      "t": 82033.33333333337,
      "d": 316.6666666666715,
      "v": 102
    },
    {
      "midi": 76,
      "hit": false,
      "t": 82350.00000000004,
      "d": 300,
      "v": 95
    },
    {
      "midi": 74,
      "hit": false,
      "t": 82666.66666666672,
      "d": 916.6666666666715,
      "v": 106
    },
    {
      "midi": 59,
      "hit": false,
      "t": 82666.66666666672,
      "d": 1933.3333333333285,
      "v": 80
    },
    {
      "midi": 73,
      "hit": false,
      "t": 83633.33333333339,
      "d": 550,
      "v": 93
    },
    {
      "midi": 73,
      "hit": false,
      "t": 84283.33333333339,
      "d": 33.33333333332848,
      "v": 47
    },
    {
      "midi": 71,
      "hit": false,
      "t": 84283.33333333339,
      "d": 433.3333333333285,
      "v": 86
    },
    {
      "midi": 69,
      "hit": false,
      "t": 84600.00000000004,
      "d": 1749.9999999999854,
      "v": 102
    },
    {
      "midi": 54,
      "hit": false,
      "t": 84600.00000000004,
      "d": 1816.666666666657,
      "v": 86
    },
    {
      "midi": 71,
      "hit": false,
      "t": 84750.00000000004,
      "d": 33.33333333332848,
      "v": 47
    },
    {
      "midi": 73,
      "hit": false,
      "t": 85566.6666666667,
      "d": 683.3333333333285,
      "v": 77
    },
    {
      "midi": 66,
      "hit": false,
      "t": 85566.6666666667,
      "d": 750,
      "v": 75
    },
    {
      "midi": 50,
      "hit": false,
      "t": 86516.6666666667,
      "d": 1816.6666666666715,
      "v": 74
    },
    {
      "midi": 62,
      "hit": false,
      "t": 86516.6666666667,
      "d": 1816.6666666666715,
      "v": 86
    },
    {
      "midi": 66,
      "hit": false,
      "t": 86516.6666666667,
      "d": 1833.333333333343,
      "v": 93
    },
    {
      "midi": 69,
      "hit": false,
      "t": 86516.6666666667,
      "d": 1833.333333333343,
      "v": 97
    },
    {
      "midi": 64,
      "hit": false,
      "t": 88450.00000000004,
      "d": 800,
      "v": 62
    },
    {
      "midi": 52,
      "hit": false,
      "t": 88450.00000000004,
      "d": 816.6666666666715,
      "v": 89
    },
    {
      "midi": 68,
      "hit": false,
      "t": 88450.00000000004,
      "d": 833.333333333343,
      "v": 91
    },
    {
      "midi": 71,
      "hit": false,
      "t": 88450.00000000004,
      "d": 833.333333333343,
      "v": 84
    },
    {
      "midi": 71,
      "hit": false,
      "t": 89400.00000000006,
      "d": 600,
      "v": 80
    },
    {
      "midi": 68,
      "hit": false,
      "t": 89400.00000000006,
      "d": 616.6666666666715,
      "v": 81
    },
    {
      "midi": 52,
      "hit": false,
      "t": 89400.00000000006,
      "d": 900,
      "v": 91
    },
    {
      "midi": 64,
      "hit": false,
      "t": 89400.00000000006,
      "d": 933.3333333333285,
      "v": 66
    },
    {
      "midi": 54,
      "hit": false,
      "t": 90366.66666666672,
      "d": 1750,
      "v": 91
    },
    {
      "midi": 66,
      "hit": false,
      "t": 90366.66666666672,
      "d": 1750,
      "v": 72
    },
    {
      "midi": 69,
      "hit": false,
      "t": 90366.66666666672,
      "d": 1750,
      "v": 86
    },
    {
      "midi": 73,
      "hit": false,
      "t": 90366.66666666672,
      "d": 1800,
      "v": 93
    },
    {
      "midi": 73,
      "hit": false,
      "t": 92283.33333333339,
      "d": 1750,
      "v": 95
    },
    {
      "midi": 68,
      "hit": false,
      "t": 92283.33333333339,
      "d": 1783.3333333333285,
      "v": 88
    },
    {
      "midi": 64,
      "hit": false,
      "t": 92283.33333333339,
      "d": 1800,
      "v": 78
    },
    {
      "midi": 62,
      "hit": false,
      "t": 94216.66666666672,
      "d": 1900,
      "v": 86
    },
    {
      "midi": 66,
      "hit": false,
      "t": 94216.66666666672,
      "d": 1900,
      "v": 91
    },
    {
      "midi": 69,
      "hit": false,
      "t": 94216.66666666672,
      "d": 1916.6666666666715,
      "v": 95
    },
    {
      "midi": 57,
      "hit": false,
      "t": 96133.33333333339,
      "d": 1683.333333333343,
      "v": 86
    },
    {
      "midi": 64,
      "hit": false,
      "t": 96450.00000000006,
      "d": 1400,
      "v": 93
    },
    {
      "midi": 74,
      "hit": false,
      "t": 96766.66666666673,
      "d": 316.6666666666715,
      "v": 97
    },
    {
      "midi": 73,
      "hit": false,
      "t": 97100.00000000007,
      "d": 283.3333333333285,
      "v": 93
    },
    {
      "midi": 71,
      "hit": false,
      "t": 97416.66666666673,
      "d": 366.6666666666715,
      "v": 84
    },
    {
      "midi": 69,
      "hit": false,
      "t": 97733.3333333334,
      "d": 149.99999999998545,
      "v": 89
    },
    {
      "midi": 59,
      "hit": false,
      "t": 98050.00000000006,
      "d": 1600,
      "v": 73
    },
    {
      "midi": 66,
      "hit": false,
      "t": 98050.00000000006,
      "d": 1633.3333333333285,
      "v": 91
    },
    {
      "midi": 71,
      "hit": false,
      "t": 98050.00000000006,
      "d": 1700,
      "v": 89
    },
    {
      "midi": 62,
      "hit": false,
      "t": 98050.00000000006,
      "d": 1716.6666666666715,
      "v": 91
    },
    {
      "midi": 73,
      "hit": false,
      "t": 99983.3333333334,
      "d": 1633.3333333333285,
      "v": 93
    },
    {
      "midi": 54,
      "hit": false,
      "t": 99983.3333333334,
      "d": 1700,
      "v": 98
    },
    {
      "midi": 69,
      "hit": false,
      "t": 99983.3333333334,
      "d": 1766.6666666666715,
      "v": 93
    },
    {
      "midi": 66,
      "hit": false,
      "t": 99983.3333333334,
      "d": 1783.333333333343,
      "v": 81
    },
    {
      "midi": 62,
      "hit": false,
      "t": 101900.00000000007,
      "d": 1733.3333333333285,
      "v": 73
    },
    {
      "midi": 66,
      "hit": false,
      "t": 101900.00000000007,
      "d": 1750,
      "v": 86
    },
    {
      "midi": 50,
      "hit": false,
      "t": 101900.00000000007,
      "d": 1766.6666666666715,
      "v": 76
    },
    {
      "midi": 69,
      "hit": false,
      "t": 101900.00000000007,
      "d": 1766.6666666666715,
      "v": 91
    },
    {
      "midi": 64,
      "hit": false,
      "t": 103816.66666666674,
      "d": 1650,
      "v": 64
    },
    {
      "midi": 68,
      "hit": false,
      "t": 103816.66666666674,
      "d": 1666.6666666666715,
      "v": 95
    },
    {
      "midi": 71,
      "hit": false,
      "t": 103816.66666666674,
      "d": 1700,
      "v": 89
    },
    {
      "midi": 52,
      "hit": false,
      "t": 103816.66666666674,
      "d": 3750,
      "v": 80
    },
    {
      "midi": 68,
      "hit": false,
      "t": 105583.33333333342,
      "d": 1950,
      "v": 86
    },
    {
      "midi": 64,
      "hit": false,
      "t": 105583.33333333342,
      "d": 1983.3333333333285,
      "v": 59
    },
    {
      "midi": 76,
      "hit": false,
      "t": 105750.00000000009,
      "d": 1783.3333333333285,
      "v": 95
    },
    {
      "midi": 73,
      "hit": false,
      "t": 107666.66666666674,
      "d": 1516.6666666666715,
      "v": 100
    },
    {
      "midi": 68,
      "hit": false,
      "t": 107666.66666666674,
      "d": 1583.333333333343,
      "v": 93
    },
    {
      "midi": 64,
      "hit": false,
      "t": 107666.66666666674,
      "d": 1800.0000000000146,
      "v": 86
    },
    {
      "midi": 66,
      "hit": false,
      "t": 124966.66666666676,
      "d": 1650,
      "v": 98
    },
    {
      "midi": 57,
      "hit": false,
      "t": 124966.66666666676,
      "d": 1733.3333333333285,
      "v": 93
    },
    {
      "midi": 54,
      "hit": false,
      "t": 124966.66666666676,
      "d": 1783.3333333333285,
      "v": 103
    },
    {
      "midi": 61,
      "hit": false,
      "t": 124966.66666666676,
      "d": 1816.666666666657,
      "v": 91
    },
    {
      "midi": 61,
      "hit": false,
      "t": 126900.00000000009,
      "d": 1616.6666666666715,
      "v": 79
    },
    {
      "midi": 68,
      "hit": false,
      "t": 126900.00000000009,
      "d": 1616.6666666666715,
      "v": 100
    },
    {
      "midi": 64,
      "hit": false,
      "t": 126900.00000000009,
      "d": 1633.333333333343,
      "v": 91
    },
    {
      "midi": 49,
      "hit": false,
      "t": 126900.00000000009,
      "d": 1650.0000000000146,
      "v": 103
    },
    {
      "midi": 57,
      "hit": false,
      "t": 128816.66666666677,
      "d": 816.6666666666715,
      "v": 93
    },
    {
      "midi": 66,
      "hit": false,
      "t": 128816.66666666677,
      "d": 833.333333333343,
      "v": 86
    },
    {
      "midi": 62,
      "hit": false,
      "t": 128816.66666666677,
      "d": 883.333333333343,
      "v": 97
    },
    {
      "midi": 50,
      "hit": false,
      "t": 128816.66666666677,
      "d": 900.0000000000146,
      "v": 89
    },
    {
      "midi": 59,
      "hit": false,
      "t": 129783.33333333346,
      "d": 816.6666666666715,
      "v": 95
    },
    {
      "midi": 68,
      "hit": false,
      "t": 129783.33333333346,
      "d": 816.6666666666715,
      "v": 81
    },
    {
      "midi": 52,
      "hit": false,
      "t": 129783.33333333346,
      "d": 833.333333333343,
      "v": 100
    },
    {
      "midi": 64,
      "hit": false,
      "t": 129783.33333333346,
      "d": 850.0000000000146,
      "v": 80
    },
    {
      "midi": 61,
      "hit": false,
      "t": 130733.33333333347,
      "d": 1666.6666666666715,
      "v": 93
    },
    {
      "midi": 57,
      "hit": false,
      "t": 130733.33333333347,
      "d": 1683.3333333333285,
      "v": 100
    },
    {
      "midi": 64,
      "hit": false,
      "t": 130733.33333333347,
      "d": 1699.9999999999854,
      "v": 86
    },
    {
      "midi": 59,
      "hit": false,
      "t": 132666.6666666668,
      "d": 1783.333333333343,
      "v": 89
    },
    {
      "midi": 66,
      "hit": false,
      "t": 132666.6666666668,
      "d": 1783.333333333343,
      "v": 95
    },
    {
      "midi": 62,
      "hit": false,
      "t": 132666.6666666668,
      "d": 1800,
      "v": 100
    },
    {
      "midi": 61,
      "hit": false,
      "t": 134583.33333333346,
      "d": 1783.333333333343,
      "v": 103
    },
    {
      "midi": 66,
      "hit": false,
      "t": 134583.33333333346,
      "d": 1783.333333333343,
      "v": 100
    },
    {
      "midi": 57,
      "hit": false,
      "t": 134583.33333333346,
      "d": 1800,
      "v": 93
    },
    {
      "midi": 57,
      "hit": false,
      "t": 136516.6666666668,
      "d": 616.666666666657,
      "v": 67
    },
    {
      "midi": 66,
      "hit": false,
      "t": 136516.6666666668,
      "d": 733.3333333333139,
      "v": 93
    },
    {
      "midi": 50,
      "hit": false,
      "t": 136516.6666666668,
      "d": 766.666666666657,
      "v": 95
    },
    {
      "midi": 62,
      "hit": false,
      "t": 136516.6666666668,
      "d": 800,
      "v": 102
    },
    {
      "midi": 52,
      "hit": false,
      "t": 137466.6666666668,
      "d": 733.333333333343,
      "v": 97
    },
    {
      "midi": 59,
      "hit": false,
      "t": 137466.6666666668,
      "d": 750,
      "v": 86
    },
    {
      "midi": 68,
      "hit": false,
      "t": 137466.6666666668,
      "d": 783.333333333343,
      "v": 98
    },
    {
      "midi": 64,
      "hit": false,
      "t": 137466.6666666668,
      "d": 816.6666666666861,
      "v": 89
    },
    {
      "midi": 57,
      "hit": false,
      "t": 138433.3333333335,
      "d": 1716.666666666657,
      "v": 97
    },
    {
      "midi": 61,
      "hit": false,
      "t": 138433.3333333335,
      "d": 1716.666666666657,
      "v": 93
    },
    {
      "midi": 54,
      "hit": false,
      "t": 138433.3333333335,
      "d": 1733.333333333314,
      "v": 95
    },
    {
      "midi": 66,
      "hit": false,
      "t": 138433.3333333335,
      "d": 1733.333333333314,
      "v": 95
    },
    {
      "midi": 57,
      "hit": false,
      "t": 140350.00000000015,
      "d": 416.66666666668607,
      "v": 95
    },
    {
      "midi": 64,
      "hit": false,
      "t": 140683.3333333335,
      "d": 1450.000000000029,
      "v": 82
    },
    {
      "midi": 69,
      "hit": false,
      "t": 141000.00000000017,
      "d": 983.333333333343,
      "v": 89
    },
    {
      "midi": 76,
      "hit": false,
      "t": 141316.66666666683,
      "d": 633.333333333343,
      "v": 91
    },
    {
      "midi": 68,
      "hit": false,
      "t": 142283.33333333352,
      "d": 1483.333333333343,
      "v": 79
    },
    {
      "midi": 73,
      "hit": false,
      "t": 142283.33333333352,
      "d": 1616.666666666686,
      "v": 75
    },
    {
      "midi": 64,
      "hit": false,
      "t": 142283.33333333352,
      "d": 1716.666666666686,
      "v": 84
    },
    {
      "midi": 66,
      "hit": false,
      "t": 144200.0000000002,
      "d": 1400,
      "v": 84
    },
    {
      "midi": 54,
      "hit": false,
      "t": 144200.0000000002,
      "d": 1716.666666666657,
      "v": 98
    },
    {
      "midi": 69,
      "hit": false,
      "t": 144200.0000000002,
      "d": 1816.666666666657,
      "v": 91
    },
    {
      "midi": 73,
      "hit": false,
      "t": 144200.0000000002,
      "d": 1866.666666666657,
      "v": 86
    },
    {
      "midi": 64,
      "hit": false,
      "t": 145483.33333333355,
      "d": 383.33333333331393,
      "v": 76
    },
    {
      "midi": 66,
      "hit": false,
      "t": 145800.0000000002,
      "d": 250,
      "v": 86
    },
    {
      "midi": 61,
      "hit": false,
      "t": 146116.66666666686,
      "d": 1633.333333333343,
      "v": 95
    },
    {
      "midi": 73,
      "hit": false,
      "t": 146116.66666666686,
      "d": 1666.666666666686,
      "v": 75
    },
    {
      "midi": 68,
      "hit": false,
      "t": 146116.66666666686,
      "d": 1683.333333333343,
      "v": 95
    },
    {
      "midi": 64,
      "hit": false,
      "t": 146116.66666666686,
      "d": 1700,
      "v": 93
    },
    {
      "midi": 62,
      "hit": false,
      "t": 148050.0000000002,
      "d": 1783.333333333343,
      "v": 95
    },
    {
      "midi": 66,
      "hit": false,
      "t": 148050.0000000002,
      "d": 1783.333333333343,
      "v": 100
    },
    {
      "midi": 69,
      "hit": false,
      "t": 148050.0000000002,
      "d": 1833.333333333343,
      "v": 102
    },
    {
      "midi": 64,
      "hit": false,
      "t": 149966.6666666669,
      "d": 1716.666666666657,
      "v": 73
    },
    {
      "midi": 73,
      "hit": false,
      "t": 149966.6666666669,
      "d": 1733.333333333314,
      "v": 91
    },
    {
      "midi": 69,
      "hit": false,
      "t": 149966.6666666669,
      "d": 1766.666666666657,
      "v": 91
    },
    {
      "midi": 57,
      "hit": false,
      "t": 149966.6666666669,
      "d": 1783.333333333314,
      "v": 95
    },
    {
      "midi": 62,
      "hit": false,
      "t": 151883.33333333355,
      "d": 1550,
      "v": 86
    },
    {
      "midi": 66,
      "hit": false,
      "t": 151883.33333333355,
      "d": 1600,
      "v": 91
    },
    {
      "midi": 71,
      "hit": false,
      "t": 151883.33333333355,
      "d": 1633.333333333343,
      "v": 91
    },
    {
      "midi": 59,
      "hit": false,
      "t": 151883.33333333355,
      "d": 1883.333333333343,
      "v": 82
    },
    {
      "midi": 73,
      "hit": false,
      "t": 153816.6666666669,
      "d": 783.333333333343,
      "v": 91
    },
    {
      "midi": 68,
      "hit": false,
      "t": 153816.6666666669,
      "d": 850,
      "v": 88
    },
    {
      "midi": 61,
      "hit": false,
      "t": 153816.6666666669,
      "d": 1616.666666666657,
      "v": 91
    },
    {
      "midi": 64,
      "hit": false,
      "t": 153816.6666666669,
      "d": 1750,
      "v": 78
    },
    {
      "midi": 76,
      "hit": false,
      "t": 154766.6666666669,
      "d": 233.33333333334303,
      "v": 100
    },
    {
      "midi": 73,
      "hit": false,
      "t": 155100.00000000023,
      "d": 433.33333333331393,
      "v": 95
    },
    {
      "midi": 68,
      "hit": false,
      "t": 155416.6666666669,
      "d": 183.33333333334303,
      "v": 67
    },
    {
      "midi": 57,
      "hit": false,
      "t": 155733.33333333358,
      "d": 1800,
      "v": 95
    },
    {
      "midi": 64,
      "hit": false,
      "t": 156050.00000000023,
      "d": 1466.666666666686,
      "v": 82
    },
    {
      "midi": 69,
      "hit": false,
      "t": 156383.33333333358,
      "d": 983.333333333343,
      "v": 89
    },
    {
      "midi": 76,
      "hit": false,
      "t": 156700.00000000023,
      "d": 633.333333333343,
      "v": 91
    },
    {
      "midi": 68,
      "hit": false,
      "t": 157666.66666666692,
      "d": 1466.666666666657,
      "v": 79
    },
    {
      "midi": 73,
      "hit": false,
      "t": 157666.66666666692,
      "d": 1616.666666666657,
      "v": 75
    },
    {
      "midi": 64,
      "hit": false,
      "t": 157666.66666666692,
      "d": 1716.666666666657,
      "v": 84
    },
    {
      "midi": 66,
      "hit": false,
      "t": 159583.33333333358,
      "d": 1400,
      "v": 84
    },
    {
      "midi": 54,
      "hit": false,
      "t": 159583.33333333358,
      "d": 1716.666666666657,
      "v": 98
    },
    {
      "midi": 69,
      "hit": false,
      "t": 159583.33333333358,
      "d": 1816.666666666657,
      "v": 91
    },
    {
      "midi": 73,
      "hit": false,
      "t": 159583.33333333358,
      "d": 1849.999999999971,
      "v": 86
    },
    {
      "midi": 64,
      "hit": false,
      "t": 160866.66666666692,
      "d": 383.33333333331393,
      "v": 76
    },
    {
      "midi": 66,
      "hit": false,
      "t": 161183.33333333358,
      "d": 233.33333333331393,
      "v": 86
    },
    {
      "midi": 61,
      "hit": false,
      "t": 161500.0000000002,
      "d": 1633.333333333343,
      "v": 95
    },
    {
      "midi": 73,
      "hit": false,
      "t": 161500.0000000002,
      "d": 1666.666666666686,
      "v": 75
    },
    {
      "midi": 68,
      "hit": false,
      "t": 161500.0000000002,
      "d": 1683.333333333343,
      "v": 95
    },
    {
      "midi": 64,
      "hit": false,
      "t": 161500.0000000002,
      "d": 1700,
      "v": 93
    },
    {
      "midi": 62,
      "hit": false,
      "t": 163433.33333333355,
      "d": 1783.333333333343,
      "v": 95
    },
    {
      "midi": 66,
      "hit": false,
      "t": 163433.33333333355,
      "d": 1783.333333333343,
      "v": 100
    },
    {
      "midi": 69,
      "hit": false,
      "t": 163433.33333333355,
      "d": 1833.333333333343,
      "v": 102
    },
    {
      "midi": 64,
      "hit": false,
      "t": 165350.00000000023,
      "d": 1716.666666666657,
      "v": 73
    },
    {
      "midi": 73,
      "hit": false,
      "t": 165350.00000000023,
      "d": 1733.333333333314,
      "v": 91
    },
    {
      "midi": 69,
      "hit": false,
      "t": 165350.00000000023,
      "d": 1766.666666666657,
      "v": 91
    },
    {
      "midi": 57,
      "hit": false,
      "t": 165350.00000000023,
      "d": 1783.333333333314,
      "v": 95
    },
    {
      "midi": 62,
      "hit": false,
      "t": 167266.6666666669,
      "d": 1550,
      "v": 86
    },
    {
      "midi": 66,
      "hit": false,
      "t": 167266.6666666669,
      "d": 1583.333333333343,
      "v": 91
    },
    {
      "midi": 71,
      "hit": false,
      "t": 167266.6666666669,
      "d": 1633.333333333343,
      "v": 91
    },
    {
      "midi": 59,
      "hit": false,
      "t": 167266.6666666669,
      "d": 1883.333333333343,
      "v": 82
    },
    {
      "midi": 73,
      "hit": false,
      "t": 169200.00000000023,
      "d": 783.333333333343,
      "v": 91
    },
    {
      "midi": 68,
      "hit": false,
      "t": 169200.00000000023,
      "d": 850,
      "v": 88
    },
    {
      "midi": 61,
      "hit": false,
      "t": 169200.00000000023,
      "d": 1616.666666666657,
      "v": 91
    },
    {
      "midi": 64,
      "hit": false,
      "t": 169200.00000000023,
      "d": 1750,
      "v": 78
    },
    {
      "midi": 76,
      "hit": false,
      "t": 170150.00000000023,
      "d": 233.33333333334303,
      "v": 100
    },
    {
      "midi": 73,
      "hit": false,
      "t": 170483.33333333358,
      "d": 433.33333333331393,
      "v": 95
    },
    {
      "midi": 68,
      "hit": false,
      "t": 170800.00000000023,
      "d": 166.66666666665697,
      "v": 67
    },
    {
      "midi": 62,
      "hit": false,
      "t": 171116.6666666669,
      "d": 1733.333333333343,
      "v": 93
    },
    {
      "midi": 66,
      "hit": false,
      "t": 171116.6666666669,
      "d": 1750,
      "v": 95
    },
    {
      "midi": 50,
      "hit": false,
      "t": 171116.6666666669,
      "d": 1766.666666666657,
      "v": 78
    },
    {
      "midi": 69,
      "hit": false,
      "t": 171116.6666666669,
      "d": 1766.666666666657,
      "v": 100
    },
    {
      "midi": 71,
      "hit": false,
      "t": 173033.33333333355,
      "d": 1500,
      "v": 97
    },
    {
      "midi": 68,
      "hit": false,
      "t": 173033.33333333355,
      "d": 1533.333333333343,
      "v": 100
    },
    {
      "midi": 52,
      "hit": false,
      "t": 173033.33333333355,
      "d": 1883.333333333343,
      "v": 93
    },
    {
      "midi": 64,
      "hit": false,
      "t": 173033.33333333355,
      "d": 1916.666666666686,
      "v": 74
    },
    {
      "midi": 66,
      "hit": false,
      "t": 174966.6666666669,
      "d": 1633.333333333343,
      "v": 86
    },
    {
      "midi": 69,
      "hit": false,
      "t": 174966.6666666669,
      "d": 1633.333333333343,
      "v": 97
    },
    {
      "midi": 73,
      "hit": false,
      "t": 174966.6666666669,
      "d": 1733.333333333343,
      "v": 95
    },
    {
      "midi": 54,
      "hit": false,
      "t": 174966.6666666669,
      "d": 1766.666666666686,
      "v": 98
    },
    {
      "midi": 49,
      "hit": false,
      "t": 176883.33333333358,
      "d": 850,
      "v": 88
    },
    {
      "midi": 64,
      "hit": false,
      "t": 176883.33333333358,
      "d": 850,
      "v": 93
    },
    {
      "midi": 68,
      "hit": false,
      "t": 176883.33333333358,
      "d": 866.666666666657,
      "v": 93
    },
    {
      "midi": 73,
      "hit": false,
      "t": 176883.33333333358,
      "d": 866.666666666657,
      "v": 93
    },
    {
      "midi": 49,
      "hit": false,
      "t": 177850.00000000023,
      "d": 550,
      "v": 100
    },
    {
      "midi": 73,
      "hit": false,
      "t": 177850.00000000023,
      "d": 566.666666666657,
      "v": 93
    },
    {
      "midi": 68,
      "hit": false,
      "t": 177850.00000000023,
      "d": 583.3333333333139,
      "v": 93
    },
    {
      "midi": 64,
      "hit": false,
      "t": 177850.00000000023,
      "d": 599.9999999999709,
      "v": 82
    },
    {
      "midi": 66,
      "hit": false,
      "t": 178800.0000000002,
      "d": 1550,
      "v": 79
    },
    {
      "midi": 69,
      "hit": false,
      "t": 178800.0000000002,
      "d": 1566.666666666657,
      "v": 91
    },
    {
      "midi": 73,
      "hit": false,
      "t": 178800.0000000002,
      "d": 1566.666666666657,
      "v": 86
    },
    {
      "midi": 54,
      "hit": false,
      "t": 178800.0000000002,
      "d": 1683.333333333314,
      "v": 95
    },
    {
      "midi": 73,
      "hit": false,
      "t": 180733.33333333352,
      "d": 1583.333333333343,
      "v": 93
    },
    {
      "midi": 49,
      "hit": false,
      "t": 180733.33333333352,
      "d": 1616.666666666686,
      "v": 65
    },
    {
      "midi": 64,
      "hit": false,
      "t": 180733.33333333352,
      "d": 1616.666666666686,
      "v": 71
    },
    {
      "midi": 68,
      "hit": false,
      "t": 180733.33333333352,
      "d": 1633.333333333343,
      "v": 93
    },
    {
      "midi": 50,
      "hit": false,
      "t": 182650.0000000002,
      "d": 1733.333333333343,
      "v": 82
    },
    {
      "midi": 62,
      "hit": false,
      "t": 182650.0000000002,
      "d": 1766.666666666686,
      "v": 80
    },
    {
      "midi": 66,
      "hit": false,
      "t": 182650.0000000002,
      "d": 1800.000000000029,
      "v": 95
    },
    {
      "midi": 69,
      "hit": false,
      "t": 182650.0000000002,
      "d": 1850.000000000029,
      "v": 100
    },
    {
      "midi": 64,
      "hit": false,
      "t": 184583.33333333358,
      "d": 600,
      "v": 59
    },
    {
      "midi": 69,
      "hit": false,
      "t": 184583.33333333358,
      "d": 650,
      "v": 86
    },
    {
      "midi": 73,
      "hit": false,
      "t": 184583.33333333358,
      "d": 650,
      "v": 93
    },
    {
      "midi": 57,
      "hit": false,
      "t": 184583.33333333358,
      "d": 1883.333333333314,
      "v": 86
    },
    {
      "midi": 64,
      "hit": false,
      "t": 185533.33333333358,
      "d": 716.666666666657,
      "v": 91
    },
    {
      "midi": 69,
      "hit": false,
      "t": 185850.00000000023,
      "d": 333.33333333334303,
      "v": 102
    },
    {
      "midi": 76,
      "hit": false,
      "t": 186183.33333333358,
      "d": 283.33333333331393,
      "v": 95
    },
    {
      "midi": 74,
      "hit": false,
      "t": 186500.00000000023,
      "d": 916.666666666657,
      "v": 106
    },
    {
      "midi": 59,
      "hit": false,
      "t": 186500.00000000023,
      "d": 1933.333333333343,
      "v": 80
    },
    {
      "midi": 73,
      "hit": false,
      "t": 187466.6666666669,
      "d": 550,
      "v": 93
    },
    {
      "midi": 73,
      "hit": false,
      "t": 188100.00000000023,
      "d": 33.333333333343035,
      "v": 47
    },
    {
      "midi": 71,
      "hit": false,
      "t": 188100.00000000023,
      "d": 433.33333333334303,
      "v": 86
    },
    {
      "midi": 69,
      "hit": false,
      "t": 188416.66666666692,
      "d": 1766.666666666657,
      "v": 102
    },
    {
      "midi": 54,
      "hit": false,
      "t": 188416.66666666692,
      "d": 1833.333333333314,
      "v": 86
    },
    {
      "midi": 71,
      "hit": false,
      "t": 188583.33333333358,
      "d": 33.333333333343035,
      "v": 47
    },
    {
      "midi": 73,
      "hit": false,
      "t": 189383.33333333358,
      "d": 683.333333333343,
      "v": 77
    },
    {
      "midi": 66,
      "hit": false,
      "t": 189383.33333333358,
      "d": 750,
      "v": 75
    },
    {
      "midi": 50,
      "hit": false,
      "t": 190350.00000000023,
      "d": 1800,
      "v": 74
    },
    {
      "midi": 62,
      "hit": false,
      "t": 190350.00000000023,
      "d": 1800,
      "v": 86
    },
    {
      "midi": 66,
      "hit": false,
      "t": 190350.00000000023,
      "d": 1816.666666666657,
      "v": 93
    },
    {
      "midi": 69,
      "hit": false,
      "t": 190350.00000000023,
      "d": 1833.333333333314,
      "v": 97
    },
    {
      "midi": 52,
      "hit": false,
      "t": 192266.6666666669,
      "d": 816.666666666657,
      "v": 89
    },
    {
      "midi": 64,
      "hit": false,
      "t": 192266.6666666669,
      "d": 816.666666666657,
      "v": 62
    },
    {
      "midi": 68,
      "hit": false,
      "t": 192266.6666666669,
      "d": 833.3333333333139,
      "v": 91
    },
    {
      "midi": 71,
      "hit": false,
      "t": 192266.6666666669,
      "d": 833.3333333333139,
      "v": 84
    },
    {
      "midi": 71,
      "hit": false,
      "t": 193233.33333333355,
      "d": 600,
      "v": 80
    },
    {
      "midi": 68,
      "hit": false,
      "t": 193233.33333333355,
      "d": 616.666666666657,
      "v": 81
    },
    {
      "midi": 52,
      "hit": false,
      "t": 193233.33333333355,
      "d": 883.3333333333139,
      "v": 91
    },
    {
      "midi": 64,
      "hit": false,
      "t": 193233.33333333355,
      "d": 916.666666666657,
      "v": 66
    },
    {
      "midi": 54,
      "hit": false,
      "t": 194183.33333333355,
      "d": 1766.666666666657,
      "v": 91
    },
    {
      "midi": 66,
      "hit": false,
      "t": 194183.33333333355,
      "d": 1766.666666666657,
      "v": 72
    },
    {
      "midi": 69,
      "hit": false,
      "t": 194183.33333333355,
      "d": 1766.666666666657,
      "v": 86
    },
    {
      "midi": 73,
      "hit": false,
      "t": 194183.33333333355,
      "d": 1816.666666666657,
      "v": 93
    },
    {
      "midi": 73,
      "hit": false,
      "t": 196116.66666666686,
      "d": 1750,
      "v": 95
    },
    {
      "midi": 68,
      "hit": false,
      "t": 196116.66666666686,
      "d": 1766.666666666657,
      "v": 88
    },
    {
      "midi": 64,
      "hit": false,
      "t": 196116.66666666686,
      "d": 1783.333333333314,
      "v": 78
    },
    {
      "midi": 62,
      "hit": false,
      "t": 198033.33333333352,
      "d": 1900,
      "v": 86
    },
    {
      "midi": 66,
      "hit": false,
      "t": 198033.33333333352,
      "d": 1900,
      "v": 91
    },
    {
      "midi": 69,
      "hit": false,
      "t": 198033.33333333352,
      "d": 1916.666666666657,
      "v": 95
    },
    {
      "midi": 57,
      "hit": false,
      "t": 199950.00000000017,
      "d": 1700,
      "v": 86
    },
    {
      "midi": 64,
      "hit": false,
      "t": 200283.33333333352,
      "d": 1400,
      "v": 93
    },
    {
      "midi": 74,
      "hit": false,
      "t": 200600.00000000017,
      "d": 300,
      "v": 97
    },
    {
      "midi": 73,
      "hit": false,
      "t": 200916.66666666683,
      "d": 300,
      "v": 93
    },
    {
      "midi": 71,
      "hit": false,
      "t": 201233.3333333335,
      "d": 366.66666666668607,
      "v": 84
    },
    {
      "midi": 69,
      "hit": false,
      "t": 201566.66666666683,
      "d": 150.0000000000291,
      "v": 89
    },
    {
      "midi": 59,
      "hit": false,
      "t": 201883.33333333352,
      "d": 1583.333333333343,
      "v": 73
    },
    {
      "midi": 66,
      "hit": false,
      "t": 201883.33333333352,
      "d": 1633.333333333343,
      "v": 91
    },
    {
      "midi": 71,
      "hit": false,
      "t": 201883.33333333352,
      "d": 1683.333333333343,
      "v": 89
    },
    {
      "midi": 62,
      "hit": false,
      "t": 201883.33333333352,
      "d": 1716.666666666686,
      "v": 91
    },
    {
      "midi": 73,
      "hit": false,
      "t": 203800.0000000002,
      "d": 1633.333333333343,
      "v": 93
    },
    {
      "midi": 54,
      "hit": false,
      "t": 203800.0000000002,
      "d": 1716.666666666686,
      "v": 98
    },
    {
      "midi": 69,
      "hit": false,
      "t": 203800.0000000002,
      "d": 1766.666666666686,
      "v": 93
    },
    {
      "midi": 66,
      "hit": false,
      "t": 203800.0000000002,
      "d": 1783.333333333343,
      "v": 81
    },
    {
      "midi": 62,
      "hit": false,
      "t": 205733.33333333355,
      "d": 1716.666666666657,
      "v": 73
    },
    {
      "midi": 66,
      "hit": false,
      "t": 205733.33333333355,
      "d": 1750,
      "v": 86
    },
    {
      "midi": 50,
      "hit": false,
      "t": 205733.33333333355,
      "d": 1766.666666666657,
      "v": 76
    },
    {
      "midi": 69,
      "hit": false,
      "t": 205733.33333333355,
      "d": 1766.666666666657,
      "v": 91
    },
    {
      "midi": 64,
      "hit": false,
      "t": 207650.0000000002,
      "d": 1650,
      "v": 64
    },
    {
      "midi": 68,
      "hit": false,
      "t": 207650.0000000002,
      "d": 1666.666666666657,
      "v": 95
    },
    {
      "midi": 71,
      "hit": false,
      "t": 207650.0000000002,
      "d": 1700,
      "v": 89
    },
    {
      "midi": 52,
      "hit": false,
      "t": 207650.0000000002,
      "d": 3733.333333333343,
      "v": 80
    },
    {
      "midi": 68,
      "hit": false,
      "t": 209416.66666666686,
      "d": 1933.333333333343,
      "v": 86
    },
    {
      "midi": 64,
      "hit": false,
      "t": 209416.66666666686,
      "d": 1983.333333333343,
      "v": 59
    },
    {
      "midi": 76,
      "hit": false,
      "t": 209566.66666666686,
      "d": 1783.333333333343,
      "v": 95
    },
    {
      "midi": 73,
      "hit": false,
      "t": 211500.0000000002,
      "d": 1500,
      "v": 100
    },
    {
      "midi": 68,
      "hit": false,
      "t": 211500.0000000002,
      "d": 1583.333333333343,
      "v": 93
    },
    {
      "midi": 64,
      "hit": false,
      "t": 211500.0000000002,
      "d": 1783.333333333343,
      "v": 86
    },
    {
      "midi": 61,
      "hit": false,
      "t": 213416.6666666669,
      "d": 1783.333333333343,
      "v": 93
    },
    {
      "midi": 66,
      "hit": false,
      "t": 213416.6666666669,
      "d": 1783.333333333343,
      "v": 93
    },
    {
      "midi": 57,
      "hit": false,
      "t": 213416.6666666669,
      "d": 1800,
      "v": 97
    },
    {
      "midi": 66,
      "hit": false,
      "t": 215333.33333333355,
      "d": 1550,
      "v": 79
    },
    {
      "midi": 69,
      "hit": false,
      "t": 215333.33333333355,
      "d": 1566.666666666657,
      "v": 91
    },
    {
      "midi": 73,
      "hit": false,
      "t": 215333.33333333355,
      "d": 1566.666666666657,
      "v": 86
    },
    {
      "midi": 54,
      "hit": false,
      "t": 215333.33333333355,
      "d": 1683.333333333314,
      "v": 95
    },
    {
      "midi": 73,
      "hit": false,
      "t": 217266.66666666686,
      "d": 1566.666666666657,
      "v": 93
    },
    {
      "midi": 49,
      "hit": false,
      "t": 217266.66666666686,
      "d": 1616.666666666657,
      "v": 65
    },
    {
      "midi": 64,
      "hit": false,
      "t": 217266.66666666686,
      "d": 1616.666666666657,
      "v": 71
    },
    {
      "midi": 68,
      "hit": false,
      "t": 217266.66666666686,
      "d": 1633.333333333314,
      "v": 93
    },
    {
      "midi": 50,
      "hit": false,
      "t": 219183.33333333352,
      "d": 1733.333333333343,
      "v": 82
    },
    {
      "midi": 62,
      "hit": false,
      "t": 219183.33333333352,
      "d": 1766.666666666686,
      "v": 80
    },
    {
      "midi": 66,
      "hit": false,
      "t": 219183.33333333352,
      "d": 1800.000000000029,
      "v": 95
    },
    {
      "midi": 69,
      "hit": false,
      "t": 219183.33333333352,
      "d": 1850.000000000029,
      "v": 100
    },
    {
      "midi": 64,
      "hit": false,
      "t": 221100.0000000002,
      "d": 616.666666666657,
      "v": 59
    },
    {
      "midi": 69,
      "hit": false,
      "t": 221100.0000000002,
      "d": 666.666666666657,
      "v": 86
    },
    {
      "midi": 73,
      "hit": false,
      "t": 221100.0000000002,
      "d": 666.666666666657,
      "v": 93
    },
    {
      "midi": 57,
      "hit": false,
      "t": 221100.0000000002,
      "d": 1883.333333333314,
      "v": 86
    },
    {
      "midi": 64,
      "hit": false,
      "t": 222066.66666666686,
      "d": 716.666666666657,
      "v": 91
    },
    {
      "midi": 69,
      "hit": false,
      "t": 222383.33333333352,
      "d": 333.33333333334303,
      "v": 102
    },
    {
      "midi": 76,
      "hit": false,
      "t": 222716.66666666686,
      "d": 283.33333333331393,
      "v": 95
    },
    {
      "midi": 74,
      "hit": false,
      "t": 223033.33333333352,
      "d": 916.666666666657,
      "v": 106
    },
    {
      "midi": 59,
      "hit": false,
      "t": 223033.33333333352,
      "d": 1933.333333333343,
      "v": 80
    },
    {
      "midi": 73,
      "hit": false,
      "t": 223983.33333333352,
      "d": 566.666666666657,
      "v": 93
    },
    {
      "midi": 73,
      "hit": false,
      "t": 224633.33333333352,
      "d": 33.333333333343035,
      "v": 47
    },
    {
      "midi": 71,
      "hit": false,
      "t": 224633.33333333352,
      "d": 433.33333333334303,
      "v": 86
    },
    {
      "midi": 69,
      "hit": false,
      "t": 224950.0000000002,
      "d": 1750,
      "v": 102
    },
    {
      "midi": 54,
      "hit": false,
      "t": 224950.0000000002,
      "d": 1833.333333333343,
      "v": 86
    },
    {
      "midi": 71,
      "hit": false,
      "t": 225116.66666666686,
      "d": 33.333333333343035,
      "v": 47
    },
    {
      "midi": 73,
      "hit": false,
      "t": 225916.66666666686,
      "d": 683.333333333343,
      "v": 77
    },
    {
      "midi": 66,
      "hit": false,
      "t": 225916.66666666686,
      "d": 750,
      "v": 75
    },
    {
      "midi": 50,
      "hit": false,
      "t": 226866.6666666669,
      "d": 1816.666666666657,
      "v": 74
    },
    {
      "midi": 62,
      "hit": false,
      "t": 226866.6666666669,
      "d": 1816.666666666657,
      "v": 86
    },
    {
      "midi": 66,
      "hit": false,
      "t": 226866.6666666669,
      "d": 1833.333333333314,
      "v": 93
    },
    {
      "midi": 69,
      "hit": false,
      "t": 226866.6666666669,
      "d": 1849.999999999971,
      "v": 97
    },
    {
      "midi": 64,
      "hit": false,
      "t": 228800.0000000002,
      "d": 800,
      "v": 62
    },
    {
      "midi": 52,
      "hit": false,
      "t": 228800.0000000002,
      "d": 816.666666666657,
      "v": 89
    },
    {
      "midi": 68,
      "hit": false,
      "t": 228800.0000000002,
      "d": 833.3333333333139,
      "v": 91
    },
    {
      "midi": 71,
      "hit": false,
      "t": 228800.0000000002,
      "d": 833.3333333333139,
      "v": 84
    },
    {
      "midi": 71,
      "hit": false,
      "t": 229766.66666666686,
      "d": 600,
      "v": 80
    },
    {
      "midi": 68,
      "hit": false,
      "t": 229766.66666666686,
      "d": 616.666666666657,
      "v": 81
    },
    {
      "midi": 52,
      "hit": false,
      "t": 229766.66666666686,
      "d": 883.3333333333139,
      "v": 91
    },
    {
      "midi": 64,
      "hit": false,
      "t": 229766.66666666686,
      "d": 916.666666666657,
      "v": 66
    },
    {
      "midi": 54,
      "hit": false,
      "t": 230716.66666666686,
      "d": 1750,
      "v": 91
    },
    {
      "midi": 66,
      "hit": false,
      "t": 230716.66666666686,
      "d": 1750,
      "v": 72
    },
    {
      "midi": 69,
      "hit": false,
      "t": 230716.66666666686,
      "d": 1750,
      "v": 86
    },
    {
      "midi": 73,
      "hit": false,
      "t": 230716.66666666686,
      "d": 1800,
      "v": 93
    },
    {
      "midi": 73,
      "hit": false,
      "t": 232650.0000000002,
      "d": 1733.333333333343,
      "v": 95
    },
    {
      "midi": 68,
      "hit": false,
      "t": 232650.0000000002,
      "d": 1766.666666666686,
      "v": 88
    },
    {
      "midi": 64,
      "hit": false,
      "t": 232650.0000000002,
      "d": 1783.333333333343,
      "v": 78
    },
    {
      "midi": 62,
      "hit": false,
      "t": 234566.6666666669,
      "d": 1900,
      "v": 86
    },
    {
      "midi": 66,
      "hit": false,
      "t": 234566.6666666669,
      "d": 1900,
      "v": 91
    },
    {
      "midi": 69,
      "hit": false,
      "t": 234566.6666666669,
      "d": 1916.666666666657,
      "v": 95
    },
    {
      "midi": 57,
      "hit": false,
      "t": 236483.33333333355,
      "d": 1699.999999999971,
      "v": 86
    },
    {
      "midi": 64,
      "hit": false,
      "t": 236816.6666666669,
      "d": 1399.999999999971,
      "v": 93
    },
    {
      "midi": 76,
      "hit": false,
      "t": 237133.33333333355,
      "d": 300,
      "v": 97
    },
    {
      "midi": 73,
      "hit": false,
      "t": 237450.0000000002,
      "d": 300,
      "v": 93
    },
    {
      "midi": 71,
      "hit": false,
      "t": 237766.66666666686,
      "d": 366.66666666665697,
      "v": 84
    },
    {
      "midi": 69,
      "hit": false,
      "t": 238083.33333333352,
      "d": 166.66666666668607,
      "v": 89
    },
    {
      "midi": 59,
      "hit": false,
      "t": 238416.66666666686,
      "d": 1583.333333333343,
      "v": 73
    },
    {
      "midi": 66,
      "hit": false,
      "t": 238416.66666666686,
      "d": 1633.333333333343,
      "v": 91
    },
    {
      "midi": 71,
      "hit": false,
      "t": 238416.66666666686,
      "d": 1683.333333333343,
      "v": 89
    },
    {
      "midi": 62,
      "hit": false,
      "t": 238416.66666666686,
      "d": 1716.666666666686,
      "v": 91
    },
    {
      "midi": 73,
      "hit": false,
      "t": 240333.33333333355,
      "d": 1633.333333333343,
      "v": 93
    },
    {
      "midi": 54,
      "hit": false,
      "t": 240333.33333333355,
      "d": 1700,
      "v": 98
    },
    {
      "midi": 69,
      "hit": false,
      "t": 240333.33333333355,
      "d": 1766.666666666657,
      "v": 93
    },
    {
      "midi": 66,
      "hit": false,
      "t": 240333.33333333355,
      "d": 1783.333333333314,
      "v": 81
    },
    {
      "midi": 62,
      "hit": false,
      "t": 242250.0000000002,
      "d": 1733.333333333343,
      "v": 73
    },
    {
      "midi": 66,
      "hit": false,
      "t": 242250.0000000002,
      "d": 1766.666666666686,
      "v": 86
    },
    {
      "midi": 50,
      "hit": false,
      "t": 242250.0000000002,
      "d": 1783.333333333343,
      "v": 76
    },
    {
      "midi": 69,
      "hit": false,
      "t": 242250.0000000002,
      "d": 1783.333333333343,
      "v": 91
    },
    {
      "midi": 68,
      "hit": false,
      "t": 244183.33333333355,
      "d": 116.66666666665697,
      "v": 93
    },
    {
      "midi": 71,
      "hit": false,
      "t": 244183.33333333355,
      "d": 133.33333333331393,
      "v": 89
    },
    {
      "midi": 64,
      "hit": false,
      "t": 244183.33333333355,
      "d": 149.9999999999709,
      "v": 73
    },
    {
      "midi": 68,
      "hit": false,
      "t": 244500.00000000017,
      "d": 133.33333333334303,
      "v": 91
    },
    {
      "midi": 71,
      "hit": false,
      "t": 244500.00000000017,
      "d": 133.33333333334303,
      "v": 89
    },
    {
      "midi": 64,
      "hit": false,
      "t": 244500.00000000017,
      "d": 150,
      "v": 73
    },
    {
      "midi": 68,
      "hit": false,
      "t": 244816.66666666683,
      "d": 133.33333333334303,
      "v": 93
    },
    {
      "midi": 71,
      "hit": false,
      "t": 244816.66666666683,
      "d": 133.33333333334303,
      "v": 86
    },
    {
      "midi": 64,
      "hit": false,
      "t": 244816.66666666683,
      "d": 150,
      "v": 76
    },
    {
      "midi": 68,
      "hit": false,
      "t": 245133.3333333335,
      "d": 150,
      "v": 95
    },
    {
      "midi": 71,
      "hit": false,
      "t": 245133.3333333335,
      "d": 150,
      "v": 91
    },
    {
      "midi": 64,
      "hit": false,
      "t": 245133.3333333335,
      "d": 166.66666666665697,
      "v": 89
    },
    {
      "midi": 68,
      "hit": false,
      "t": 245466.6666666668,
      "d": 116.66666666665697,
      "v": 93
    },
    {
      "midi": 71,
      "hit": false,
      "t": 245466.6666666668,
      "d": 116.66666666665697,
      "v": 89
    },
    {
      "midi": 64,
      "hit": false,
      "t": 245466.6666666668,
      "d": 133.33333333331393,
      "v": 82
    },
    {
      "midi": 68,
      "hit": false,
      "t": 245783.33333333346,
      "d": 116.66666666665697,
      "v": 91
    },
    {
      "midi": 71,
      "hit": false,
      "t": 245783.33333333346,
      "d": 116.66666666665697,
      "v": 80
    },
    {
      "midi": 64,
      "hit": false,
      "t": 245783.33333333346,
      "d": 133.33333333331393,
      "v": 76
    },
    {
      "midi": 68,
      "hit": false,
      "t": 246100.00000000012,
      "d": 900,
      "v": 103
    },
    {
      "midi": 71,
      "hit": false,
      "t": 246100.00000000012,
      "d": 900,
      "v": 93
    },
    {
      "midi": 64,
      "hit": false,
      "t": 246100.00000000012,
      "d": 933.333333333343,
      "v": 95
    },
    {
      "midi": 73,
      "hit": false,
      "t": 248016.6666666668,
      "d": 1516.666666666657,
      "v": 100
    },
    {
      "midi": 68,
      "hit": false,
      "t": 248016.6666666668,
      "d": 1600,
      "v": 93
    },
    {
      "midi": 64,
      "hit": false,
      "t": 248016.6666666668,
      "d": 1800,
      "v": 86
    },
    {
      "midi": 66,
      "hit": false,
      "t": 249950.00000000015,
      "d": 1650,
      "v": 98
    },
    {
      "midi": 57,
      "hit": false,
      "t": 249950.00000000015,
      "d": 1733.333333333343,
      "v": 93
    },
    {
      "midi": 54,
      "hit": false,
      "t": 249950.00000000015,
      "d": 1783.333333333343,
      "v": 103
    },
    {
      "midi": 61,
      "hit": false,
      "t": 249950.00000000015,
      "d": 1800,
      "v": 91
    },
    {
      "midi": 61,
      "hit": false,
      "t": 251866.6666666668,
      "d": 1616.666666666657,
      "v": 79
    },
    {
      "midi": 68,
      "hit": false,
      "t": 251866.6666666668,
      "d": 1633.333333333314,
      "v": 100
    },
    {
      "midi": 49,
      "hit": false,
      "t": 251866.6666666668,
      "d": 1649.999999999971,
      "v": 103
    },
    {
      "midi": 64,
      "hit": false,
      "t": 251866.6666666668,
      "d": 1649.999999999971,
      "v": 91
    },
    {
      "midi": 57,
      "hit": false,
      "t": 253800.00000000012,
      "d": 800,
      "v": 93
    },
    {
      "midi": 66,
      "hit": false,
      "t": 253800.00000000012,
      "d": 816.666666666657,
      "v": 86
    },
    {
      "midi": 62,
      "hit": false,
      "t": 253800.00000000012,
      "d": 866.666666666657,
      "v": 97
    },
    {
      "midi": 50,
      "hit": false,
      "t": 253800.00000000012,
      "d": 883.3333333333139,
      "v": 89
    },
    {
      "midi": 68,
      "hit": false,
      "t": 254750.0000000001,
      "d": 816.666666666657,
      "v": 81
    },
    {
      "midi": 59,
      "hit": false,
      "t": 254750.0000000001,
      "d": 833.3333333333139,
      "v": 95
    },
    {
      "midi": 52,
      "hit": false,
      "t": 254750.0000000001,
      "d": 849.9999999999709,
      "v": 100
    },
    {
      "midi": 64,
      "hit": false,
      "t": 254750.0000000001,
      "d": 849.9999999999709,
      "v": 80
    },
    {
      "midi": 57,
      "hit": false,
      "t": 255716.66666666672,
      "d": 1666.666666666657,
      "v": 100
    },
    {
      "midi": 61,
      "hit": false,
      "t": 255716.66666666672,
      "d": 1666.666666666657,
      "v": 93
    },
    {
      "midi": 64,
      "hit": false,
      "t": 255716.66666666672,
      "d": 1700,
      "v": 86
    },
    {
      "midi": 59,
      "hit": false,
      "t": 257633.33333333337,
      "d": 1783.333333333343,
      "v": 89
    },
    {
      "midi": 66,
      "hit": false,
      "t": 257633.33333333337,
      "d": 1783.333333333343,
      "v": 95
    },
    {
      "midi": 62,
      "hit": false,
      "t": 257633.33333333337,
      "d": 1800,
      "v": 100
    },
    {
      "midi": 61,
      "hit": false,
      "t": 259566.66666666672,
      "d": 1783.333333333343,
      "v": 103
    },
    {
      "midi": 66,
      "hit": false,
      "t": 259566.66666666672,
      "d": 1783.333333333343,
      "v": 100
    },
    {
      "midi": 57,
      "hit": false,
      "t": 259566.66666666672,
      "d": 1800,
      "v": 93
    },
    {
      "midi": 57,
      "hit": false,
      "t": 261483.33333333337,
      "d": 850,
      "v": 67
    },
    {
      "midi": 66,
      "hit": false,
      "t": 261483.33333333337,
      "d": 1016.6666666666861,
      "v": 93
    },
    {
      "midi": 50,
      "hit": false,
      "t": 261483.33333333337,
      "d": 1066.666666666686,
      "v": 95
    },
    {
      "midi": 62,
      "hit": false,
      "t": 261483.33333333337,
      "d": 1100,
      "v": 102
    },
    {
      "midi": 52,
      "hit": false,
      "t": 262816.6666666667,
      "d": 916.6666666666861,
      "v": 97
    },
    {
      "midi": 59,
      "hit": false,
      "t": 262816.6666666667,
      "d": 950,
      "v": 86
    },
    {
      "midi": 68,
      "hit": false,
      "t": 262816.6666666667,
      "d": 1000,
      "v": 98
    },
    {
      "midi": 64,
      "hit": false,
      "t": 262816.6666666667,
      "d": 1016.6666666666861,
      "v": 89
    },
    {
      "midi": 57,
      "hit": false,
      "t": 264033.3333333334,
      "d": 1700,
      "v": 97
    },
    {
      "midi": 54,
      "hit": false,
      "t": 264033.3333333334,
      "d": 2566.666666666686,
      "v": 95
    },
    {
      "midi": 61,
      "hit": false,
      "t": 264033.3333333334,
      "d": 2566.666666666686,
      "v": 93
    },
    {
      "midi": 66,
      "hit": false,
      "t": 264033.3333333334,
      "d": 2566.666666666686,
      "v": 95
    }
  ]
}