{
  "jsonPath": "Rock/Merseybeat/Chris Farlowe/reach-out-ill-be-there-original.json",
  "path": "Rock\\Merseybeat\\Chris Farlowe\\Reach Out_ Ill Be There - Original.mid",
  "name": "Reach Out_ Ill Be There - Original",
  "difficulty": "Advanced",
  "bpm": 116.00008506672904,
  "notes": [
    {
      "midi": 67,
      "hit": false,
      "t": 20689.64,
      "d": 447.197947916673,
      "v": 71
    },
    {
      "midi": 57,
      "hit": false,
      "t": 20695.027927083334,
      "d": 436.4220937500031,
      "v": 108
    },
    {
      "midi": 60,
      "hit": false,
      "t": 20700.41585416667,
      "d": 441.81002083333806,
      "v": 102
    },
    {
      "midi": 64,
      "hit": false,
      "t": 20705.803781250004,
      "d": 431.03416666666817,
      "v": 80
    },
    {
      "midi": 60,
      "hit": false,
      "t": 21206.88100000001,
      "d": 441.8100208333344,
      "v": 91
    },
    {
      "midi": 67,
      "hit": false,
      "t": 21206.88100000001,
      "d": 463.3617291666669,
      "v": 79
    },
    {
      "midi": 64,
      "hit": false,
      "t": 21217.656854166675,
      "d": 404.0945312500007,
      "v": 77
    },
    {
      "midi": 57,
      "hit": false,
      "t": 21223.04478125001,
      "d": 420.2583124999983,
      "v": 102
    },
    {
      "midi": 67,
      "hit": false,
      "t": 21729.50992708334,
      "d": 91.59476041666858,
      "v": 51
    },
    {
      "midi": 57,
      "hit": false,
      "t": 21729.50992708334,
      "d": 167.02573958333596,
      "v": 91
    },
    {
      "midi": 60,
      "hit": false,
      "t": 21734.897854166677,
      "d": 161.63781250000102,
      "v": 85
    },
    {
      "midi": 64,
      "hit": false,
      "t": 21745.673708333343,
      "d": 145.47403124999983,
      "v": 74
    },
    {
      "midi": 62,
      "hit": false,
      "t": 21998.906281250012,
      "d": 414.8703854166706,
      "v": 91
    },
    {
      "midi": 67,
      "hit": false,
      "t": 22004.294208333347,
      "d": 409.48245833333567,
      "v": 102
    },
    {
      "midi": 55,
      "hit": false,
      "t": 22009.682135416682,
      "d": 382.54282291666823,
      "v": 102
    },
    {
      "midi": 59,
      "hit": false,
      "t": 22015.070062500017,
      "d": 350.21526041666584,
      "v": 102
    },
    {
      "midi": 62,
      "hit": false,
      "t": 22499.983500000017,
      "d": 754.3097916666702,
      "v": 55
    },
    {
      "midi": 54,
      "hit": false,
      "t": 22510.759354166683,
      "d": 721.9822291666715,
      "v": 97
    },
    {
      "midi": 57,
      "hit": false,
      "t": 22516.147281250018,
      "d": 738.146010416669,
      "v": 102
    },
    {
      "midi": 66,
      "hit": false,
      "t": 22521.535208333353,
      "d": 1767.2400833333413,
      "v": 70
    },
    {
      "midi": 74,
      "hit": false,
      "t": 23275.84500000002,
      "d": 624.9995416666716,
      "v": 68
    },
    {
      "midi": 54,
      "hit": false,
      "t": 23292.00878125002,
      "d": 721.9822291666678,
      "v": 73
    },
    {
      "midi": 57,
      "hit": false,
      "t": 23297.396708333355,
      "d": 463.36172916667056,
      "v": 79
    },
    {
      "midi": 62,
      "hit": false,
      "t": 23302.78463541669,
      "d": 382.54282291666823,
      "v": 51
    },
    {
      "midi": 57,
      "hit": false,
      "t": 23782.31014583336,
      "d": 220.90501041666357,
      "v": 27
    },
    {
      "midi": 62,
      "hit": false,
      "t": 23825.413562500024,
      "d": 118.53439583333238,
      "v": 57
    },
    {
      "midi": 57,
      "hit": false,
      "t": 24051.706500000022,
      "d": 528.0168541666717,
      "v": 85
    },
    {
      "midi": 54,
      "hit": false,
      "t": 24057.094427083357,
      "d": 511.8530729166705,
      "v": 55
    },
    {
      "midi": 74,
      "hit": false,
      "t": 24062.482354166692,
      "d": 506.46514583333555,
      "v": 64
    },
    {
      "midi": 62,
      "hit": false,
      "t": 24067.870281250027,
      "d": 571.120270833333,
      "v": 108
    },
    {
      "midi": 67,
      "hit": false,
      "t": 24827.56800000003,
      "d": 447.197947916673,
      "v": 71
    },
    {
      "midi": 57,
      "hit": false,
      "t": 24832.955927083363,
      "d": 436.4220937500031,
      "v": 108
    },
    {
      "midi": 60,
      "hit": false,
      "t": 24838.3438541667,
      "d": 441.81002083333806,
      "v": 102
    },
    {
      "midi": 64,
      "hit": false,
      "t": 24843.731781250033,
      "d": 431.03416666666817,
      "v": 80
    },
    {
      "midi": 60,
      "hit": false,
      "t": 25344.809000000037,
      "d": 441.8100208333344,
      "v": 91
    },
    {
      "midi": 67,
      "hit": false,
      "t": 25344.809000000037,
      "d": 463.3617291666669,
      "v": 79
    },
    {
      "midi": 64,
      "hit": false,
      "t": 25355.584854166704,
      "d": 404.0945312500007,
      "v": 77
    },
    {
      "midi": 57,
      "hit": false,
      "t": 25360.97278125004,
      "d": 420.2583124999983,
      "v": 102
    },
    {
      "midi": 67,
      "hit": false,
      "t": 25867.43792708337,
      "d": 91.59476041666858,
      "v": 51
    },
    {
      "midi": 57,
      "hit": false,
      "t": 25867.43792708337,
      "d": 167.02573958333596,
      "v": 91
    },
    {
      "midi": 60,
      "hit": false,
      "t": 25872.825854166706,
      "d": 161.63781250000102,
      "v": 85
    },
    {
      "midi": 64,
      "hit": false,
      "t": 25883.60170833337,
      "d": 145.47403124999983,
      "v": 74
    },
    {
      "midi": 62,
      "hit": false,
      "t": 26136.83428125004,
      "d": 414.8703854166706,
      "v": 91
    },
    {
      "midi": 67,
      "hit": false,
      "t": 26142.222208333376,
      "d": 409.48245833333567,
      "v": 102
    },
    {
      "midi": 55,
      "hit": false,
      "t": 26147.61013541671,
      "d": 382.54282291666823,
      "v": 102
    },
    {
      "midi": 59,
      "hit": false,
      "t": 26152.998062500046,
      "d": 350.21526041666584,
      "v": 102
    },
    {
      "midi": 62,
      "hit": false,
      "t": 26637.911500000046,
      "d": 754.3097916666702,
      "v": 55
    },
    {
      "midi": 54,
      "hit": false,
      "t": 26648.687354166712,
      "d": 721.9822291666715,
      "v": 97
    },
    {
      "midi": 57,
      "hit": false,
      "t": 26654.075281250047,
      "d": 738.146010416669,
      "v": 102
    },
    {
      "midi": 66,
      "hit": false,
      "t": 26659.46320833338,
      "d": 1767.2400833333413,
      "v": 70
    },
    {
      "midi": 74,
      "hit": false,
      "t": 27413.77300000005,
      "d": 624.9995416666716,
      "v": 68
    },
    {
      "midi": 54,
      "hit": false,
      "t": 27429.93678125005,
      "d": 721.9822291666678,
      "v": 73
    },
    {
      "midi": 57,
      "hit": false,
      "t": 27435.324708333384,
      "d": 463.36172916667056,
      "v": 79
    },
    {
      "midi": 62,
      "hit": false,
      "t": 27440.71263541672,
      "d": 382.54282291666823,
      "v": 51
    },
    {
      "midi": 57,
      "hit": false,
      "t": 27920.238145833388,
      "d": 220.90501041666357,
      "v": 27
    },
    {
      "midi": 62,
      "hit": false,
      "t": 27963.341562500053,
      "d": 118.53439583333238,
      "v": 57
    },
    {
      "midi": 57,
      "hit": false,
      "t": 28189.63450000005,
      "d": 528.0168541666717,
      "v": 85
    },
    {
      "midi": 54,
      "hit": false,
      "t": 28195.022427083386,
      "d": 511.8530729166705,
      "v": 55
    },
    {
      "midi": 74,
      "hit": false,
      "t": 28200.41035416672,
      "d": 506.46514583333555,
      "v": 64
    },
    {
      "midi": 62,
      "hit": false,
      "t": 28205.798281250056,
      "d": 571.120270833333,
      "v": 108
    },
    {
      "midi": 67,
      "hit": false,
      "t": 28965.496000000057,
      "d": 447.197947916673,
      "v": 71
    },
    {
      "midi": 57,
      "hit": false,
      "t": 28970.883927083392,
      "d": 436.4220937500031,
      "v": 108
    },
    {
      "midi": 60,
      "hit": false,
      "t": 28976.271854166727,
      "d": 441.81002083333806,
      "v": 102
    },
    {
      "midi": 64,
      "hit": false,
      "t": 28981.659781250062,
      "d": 431.03416666666817,
      "v": 80
    },
    {
      "midi": 60,
      "hit": false,
      "t": 29482.737000000066,
      "d": 441.8100208333344,
      "v": 91
    },
    {
      "midi": 67,
      "hit": false,
      "t": 29482.737000000066,
      "d": 463.3617291666669,
      "v": 79
    },
    {
      "midi": 64,
      "hit": false,
      "t": 29493.512854166733,
      "d": 404.0945312500007,
      "v": 77
    },
    {
      "midi": 57,
      "hit": false,
      "t": 29498.900781250068,
      "d": 420.2583124999983,
      "v": 102
    },
    {
      "midi": 67,
      "hit": false,
      "t": 30005.3659270834,
      "d": 91.59476041666858,
      "v": 51
    },
    {
      "midi": 57,
      "hit": false,
      "t": 30005.3659270834,
      "d": 167.02573958333596,
      "v": 91
    },
    {
      "midi": 60,
      "hit": false,
      "t": 30010.753854166735,
      "d": 161.63781250000102,
      "v": 85
    },
    {
      "midi": 64,
      "hit": false,
      "t": 30021.5297083334,
      "d": 145.47403124999983,
      "v": 74
    },
    {
      "midi": 62,
      "hit": false,
      "t": 30274.76228125007,
      "d": 414.8703854166706,
      "v": 91
    },
    {
      "midi": 67,
      "hit": false,
      "t": 30280.150208333405,
      "d": 409.48245833333567,
      "v": 102
    },
    {
      "midi": 55,
      "hit": false,
      "t": 30285.53813541674,
      "d": 382.54282291666823,
      "v": 102
    },
    {
      "midi": 59,
      "hit": false,
      "t": 30290.926062500075,
      "d": 350.21526041666584,
      "v": 102
    },
    {
      "midi": 62,
      "hit": false,
      "t": 30775.839500000075,
      "d": 754.3097916666702,
      "v": 55
    },
    {
      "midi": 54,
      "hit": false,
      "t": 30786.61535416674,
      "d": 721.9822291666715,
      "v": 97
    },
    {
      "midi": 57,
      "hit": false,
      "t": 30792.003281250076,
      "d": 738.146010416669,
      "v": 102
    },
    {
      "midi": 66,
      "hit": false,
      "t": 30797.39120833341,
      "d": 1767.2400833333413,
      "v": 70
    },
    {
      "midi": 74,
      "hit": false,
      "t": 31551.701000000077,
      "d": 624.9995416666716,
      "v": 68
    },
    {
      "midi": 54,
      "hit": false,
      "t": 31567.86478125008,
      "d": 721.9822291666678,
      "v": 73
    },
    {
      "midi": 57,
      "hit": false,
      "t": 31573.252708333413,
      "d": 463.36172916667056,
      "v": 79
    },
    {
      "midi": 62,
      "hit": false,
      "t": 31578.64063541675,
      "d": 382.54282291666823,
      "v": 51
    },
    {
      "midi": 57,
      "hit": false,
      "t": 32058.166145833417,
      "d": 220.90501041666357,
      "v": 27
    },
    {
      "midi": 62,
      "hit": false,
      "t": 32101.26956250008,
      "d": 118.53439583333238,
      "v": 57
    },
    {
      "midi": 57,
      "hit": false,
      "t": 32327.56250000008,
      "d": 528.0168541666717,
      "v": 85
    },
    {
      "midi": 54,
      "hit": false,
      "t": 32332.950427083415,
      "d": 511.85307291666686,
      "v": 55
    },
    {
      "midi": 74,
      "hit": false,
      "t": 32338.33835416675,
      "d": 506.4651458333319,
      "v": 64
    },
    {
      "midi": 62,
      "hit": false,
      "t": 32343.726281250085,
      "d": 571.1202708333367,
      "v": 108
    },
    {
      "midi": 67,
      "hit": false,
      "t": 33103.42400000009,
      "d": 447.19794791667664,
      "v": 71
    },
    {
      "midi": 57,
      "hit": false,
      "t": 33108.81192708342,
      "d": 436.42209375000675,
      "v": 108
    },
    {
      "midi": 60,
      "hit": false,
      "t": 33114.199854166756,
      "d": 441.8100208333417,
      "v": 102
    },
    {
      "midi": 64,
      "hit": false,
      "t": 33119.58778125009,
      "d": 431.0341666666718,
      "v": 80
    },
    {
      "midi": 60,
      "hit": false,
      "t": 33620.665000000095,
      "d": 441.8100208333417,
      "v": 91
    },
    {
      "midi": 67,
      "hit": false,
      "t": 33620.665000000095,
      "d": 463.3617291666742,
      "v": 79
    },
    {
      "midi": 64,
      "hit": false,
      "t": 33631.440854166765,
      "d": 404.09453125000437,
      "v": 77
    },
    {
      "midi": 57,
      "hit": false,
      "t": 33636.8287812501,
      "d": 420.2583125000019,
      "v": 102
    },
    {
      "midi": 67,
      "hit": false,
      "t": 34143.29392708344,
      "d": 91.59476041667222,
      "v": 51
    },
    {
      "midi": 57,
      "hit": false,
      "t": 34143.29392708344,
      "d": 167.0257395833396,
      "v": 91
    },
    {
      "midi": 60,
      "hit": false,
      "t": 34148.681854166774,
      "d": 161.63781250000466,
      "v": 85
    },
    {
      "midi": 64,
      "hit": false,
      "t": 34159.457708333444,
      "d": 145.47403124999983,
      "v": 74
    },
    {
      "midi": 62,
      "hit": false,
      "t": 34412.690281250114,
      "d": 414.87038541667425,
      "v": 91
    },
    {
      "midi": 67,
      "hit": false,
      "t": 34418.07820833345,
      "d": 409.4824583333393,
      "v": 102
    },
    {
      "midi": 55,
      "hit": false,
      "t": 34423.466135416784,
      "d": 382.54282291667187,
      "v": 102
    },
    {
      "midi": 59,
      "hit": false,
      "t": 34428.85406250012,
      "d": 350.2152604166695,
      "v": 102
    },
    {
      "midi": 62,
      "hit": false,
      "t": 34913.76750000012,
      "d": 754.3097916666738,
      "v": 55
    },
    {
      "midi": 54,
      "hit": false,
      "t": 34924.54335416679,
      "d": 721.9822291666715,
      "v": 97
    },
    {
      "midi": 57,
      "hit": false,
      "t": 34929.93128125012,
      "d": 738.146010416669,
      "v": 102
    },
    {
      "midi": 66,
      "hit": false,
      "t": 34935.31920833346,
      "d": 1767.2400833333377,
      "v": 70
    },
    {
      "midi": 74,
      "hit": false,
      "t": 35689.629000000125,
      "d": 624.9995416666643,
      "v": 68
    },
    {
      "midi": 54,
      "hit": false,
      "t": 35705.79278125012,
      "d": 721.9822291666715,
      "v": 73
    },
    {
      "midi": 57,
      "hit": false,
      "t": 35711.18070833346,
      "d": 463.3617291666669,
      "v": 79
    },
    {
      "midi": 62,
      "hit": false,
      "t": 35716.56863541679,
      "d": 382.5428229166646,
      "v": 51
    },
    {
      "midi": 57,
      "hit": false,
      "t": 36196.09414583346,
      "d": 220.9050104166672,
      "v": 27
    },
    {
      "midi": 62,
      "hit": false,
      "t": 36239.19756250012,
      "d": 118.53439583333238,
      "v": 57
    },
    {
      "midi": 57,
      "hit": false,
      "t": 36465.49050000012,
      "d": 528.0168541666717,
      "v": 85
    },
    {
      "midi": 54,
      "hit": false,
      "t": 36470.87842708346,
      "d": 511.85307291666686,
      "v": 55
    },
    {
      "midi": 74,
      "hit": false,
      "t": 36476.26635416679,
      "d": 506.4651458333319,
      "v": 64
    },
    {
      "midi": 62,
      "hit": false,
      "t": 36481.65428125013,
      "d": 571.1202708333367,
      "v": 108
    },
    {
      "midi": 67,
      "hit": false,
      "t": 37241.35200000013,
      "d": 447.19794791667664,
      "v": 71
    },
    {
      "midi": 57,
      "hit": false,
      "t": 37246.739927083465,
      "d": 436.42209375000675,
      "v": 108
    },
    {
      "midi": 60,
      "hit": false,
      "t": 37252.1278541668,
      "d": 441.8100208333417,
      "v": 102
    },
    {
      "midi": 64,
      "hit": false,
      "t": 37257.515781250135,
      "d": 431.0341666666718,
      "v": 80
    },
    {
      "midi": 60,
      "hit": false,
      "t": 37758.59300000014,
      "d": 441.8100208333417,
      "v": 91
    },
    {
      "midi": 67,
      "hit": false,
      "t": 37758.59300000014,
      "d": 463.3617291666742,
      "v": 79
    },
    {
      "midi": 64,
      "hit": false,
      "t": 37769.36885416681,
      "d": 404.09453125000437,
      "v": 77
    },
    {
      "midi": 57,
      "hit": false,
      "t": 37774.756781250144,
      "d": 420.2583125000019,
      "v": 102
    },
    {
      "midi": 67,
      "hit": false,
      "t": 38281.22192708348,
      "d": 91.59476041667222,
      "v": 51
    },
    {
      "midi": 57,
      "hit": false,
      "t": 38281.22192708348,
      "d": 167.0257395833396,
      "v": 91
    },
    {
      "midi": 60,
      "hit": false,
      "t": 38286.60985416682,
      "d": 161.63781250000466,
      "v": 85
    },
    {
      "midi": 64,
      "hit": false,
      "t": 38297.38570833349,
      "d": 145.47403124999983,
      "v": 74
    },
    {
      "midi": 62,
      "hit": false,
      "t": 38550.61828125016,
      "d": 414.87038541667425,
      "v": 91
    },
    {
      "midi": 67,
      "hit": false,
      "t": 38556.00620833349,
      "d": 409.4824583333393,
      "v": 102
    },
    {
      "midi": 55,
      "hit": false,
      "t": 38561.39413541683,
      "d": 382.54282291667187,
      "v": 102
    },
    {
      "midi": 59,
      "hit": false,
      "t": 38566.78206250016,
      "d": 350.2152604166695,
      "v": 102
    },
    {
      "midi": 62,
      "hit": false,
      "t": 39051.69550000016,
      "d": 754.3097916666738,
      "v": 55
    },
    {
      "midi": 54,
      "hit": false,
      "t": 39062.47135416683,
      "d": 721.9822291666715,
      "v": 97
    },
    {
      "midi": 57,
      "hit": false,
      "t": 39067.85928125017,
      "d": 738.146010416669,
      "v": 102
    },
    {
      "midi": 66,
      "hit": false,
      "t": 39073.2472083335,
      "d": 1767.2400833333377,
      "v": 70
    },
    {
      "midi": 74,
      "hit": false,
      "t": 39827.55700000017,
      "d": 624.9995416666643,
      "v": 68
    },
    {
      "midi": 54,
      "hit": false,
      "t": 39843.720781250166,
      "d": 721.9822291666715,
      "v": 73
    },
    {
      "midi": 57,
      "hit": false,
      "t": 39849.1087083335,
      "d": 463.3617291666669,
      "v": 79
    },
    {
      "midi": 62,
      "hit": false,
      "t": 39854.496635416835,
      "d": 382.5428229166646,
      "v": 51
    },
    {
      "midi": 57,
      "hit": false,
      "t": 40334.0221458335,
      "d": 220.9050104166672,
      "v": 27
    },
    {
      "midi": 62,
      "hit": false,
      "t": 40377.125562500165,
      "d": 118.53439583333238,
      "v": 57
    },
    {
      "midi": 57,
      "hit": false,
      "t": 40603.41850000017,
      "d": 528.0168541666717,
      "v": 85
    },
    {
      "midi": 54,
      "hit": false,
      "t": 40608.8064270835,
      "d": 511.85307291666686,
      "v": 55
    },
    {
      "midi": 74,
      "hit": false,
      "t": 40614.19435416684,
      "d": 506.4651458333319,
      "v": 64
    },
    {
      "midi": 62,
      "hit": false,
      "t": 40619.58228125017,
      "d": 571.1202708333367,
      "v": 108
    },
    {
      "midi": 62,
      "hit": false,
      "t": 41379.28000000017,
      "d": 1966.5933854166651,
      "v": 109
    },
    {
      "midi": 71,
      "hit": false,
      "t": 41379.28000000017,
      "d": 1966.5933854166651,
      "v": 98
    },
    {
      "midi": 67,
      "hit": false,
      "t": 41384.66792708351,
      "d": 1971.9813125,
      "v": 115
    },
    {
      "midi": 67,
      "hit": false,
      "t": 43448.24400000017,
      "d": 1610.990197916668,
      "v": 104
    },
    {
      "midi": 71,
      "hit": false,
      "t": 43453.63192708351,
      "d": 1713.3608125000028,
      "v": 92
    },
    {
      "midi": 62,
      "hit": false,
      "t": 43459.01985416684,
      "d": 1610.990197916668,
      "v": 104
    },
    {
      "midi": 66,
      "hit": false,
      "t": 45511.820072916846,
      "d": 172.41366666666727,
      "v": 98
    },
    {
      "midi": 71,
      "hit": false,
      "t": 45517.20800000018,
      "d": 1874.9986250000002,
      "v": 109
    },
    {
      "midi": 63,
      "hit": false,
      "t": 45522.595927083516,
      "d": 1945.0416770833326,
      "v": 104
    },
    {
      "midi": 66,
      "hit": false,
      "t": 47570.00821875018,
      "d": 1530.171291666673,
      "v": 56
    },
    {
      "midi": 63,
      "hit": false,
      "t": 47575.39614583352,
      "d": 1514.007510416668,
      "v": 74
    },
    {
      "midi": 69,
      "hit": false,
      "t": 47580.78407291685,
      "d": 1449.3523854166706,
      "v": 98
    },
    {
      "midi": 72,
      "hit": false,
      "t": 47591.55992708352,
      "d": 1454.7403124999983,
      "v": 127
    },
    {
      "midi": 59,
      "hit": false,
      "t": 51734.87585416686,
      "d": 409.4824583333393,
      "v": 103
    },
    {
      "midi": 63,
      "hit": false,
      "t": 51740.26378125019,
      "d": 409.4824583333393,
      "v": 80
    },
    {
      "midi": 66,
      "hit": false,
      "t": 51745.65170833353,
      "d": 404.09453125000437,
      "v": 72
    },
    {
      "midi": 63,
      "hit": false,
      "t": 52246.72892708353,
      "d": 360.9911145833321,
      "v": 74
    },
    {
      "midi": 66,
      "hit": false,
      "t": 52252.11685416687,
      "d": 377.15489583332965,
      "v": 72
    },
    {
      "midi": 59,
      "hit": false,
      "t": 52262.89270833354,
      "d": 280.17220833332976,
      "v": 92
    },
    {
      "midi": 59,
      "hit": false,
      "t": 52656.211385416864,
      "d": 193.96537499999977,
      "v": 103
    },
    {
      "midi": 66,
      "hit": false,
      "t": 52774.745781250196,
      "d": 102.37061458333483,
      "v": 92
    },
    {
      "midi": 63,
      "hit": false,
      "t": 52780.13370833353,
      "d": 70.04305208333244,
      "v": 70
    },
    {
      "midi": 63,
      "hit": false,
      "t": 53038.75420833353,
      "d": 474.1375833333368,
      "v": 92
    },
    {
      "midi": 66,
      "hit": false,
      "t": 53044.14213541686,
      "d": 495.6892916666693,
      "v": 80
    },
    {
      "midi": 59,
      "hit": false,
      "t": 53049.5300625002,
      "d": 323.27562500000204,
      "v": 109
    },
    {
      "midi": 59,
      "hit": false,
      "t": 53550.6072812502,
      "d": 156.2498854166697,
      "v": 98
    },
    {
      "midi": 63,
      "hit": false,
      "t": 53561.38313541687,
      "d": 70.04305208333244,
      "v": 20
    },
    {
      "midi": 67,
      "hit": false,
      "t": 53803.83985416687,
      "d": 371.76696875000926,
      "v": 98
    },
    {
      "midi": 59,
      "hit": false,
      "t": 53814.61570833354,
      "d": 355.6031875000044,
      "v": 92
    },
    {
      "midi": 64,
      "hit": false,
      "t": 53820.00363541688,
      "d": 360.99111458333937,
      "v": 72
    },
    {
      "midi": 59,
      "hit": false,
      "t": 54304.91707291688,
      "d": 264.0084270833395,
      "v": 92
    },
    {
      "midi": 67,
      "hit": false,
      "t": 54310.30500000022,
      "d": 377.1548958333369,
      "v": 103
    },
    {
      "midi": 64,
      "hit": false,
      "t": 54321.08085416689,
      "d": 425.64623958333686,
      "v": 80
    },
    {
      "midi": 59,
      "hit": false,
      "t": 54714.39953125022,
      "d": 183.18952083333716,
      "v": 98
    },
    {
      "midi": 67,
      "hit": false,
      "t": 54838.32185416689,
      "d": 96.98268749999988,
      "v": 115
    },
    {
      "midi": 64,
      "hit": false,
      "t": 54843.709781250225,
      "d": 75.43097916666738,
      "v": 80
    },
    {
      "midi": 59,
      "hit": false,
      "t": 55075.390645833555,
      "d": 420.2583125000019,
      "v": 98
    },
    {
      "midi": 64,
      "hit": false,
      "t": 55086.166500000225,
      "d": 581.8961249999993,
      "v": 80
    },
    {
      "midi": 67,
      "hit": false,
      "t": 55091.55442708356,
      "d": 490.3013645833271,
      "v": 80
    },
    {
      "midi": 59,
      "hit": false,
      "t": 55614.18335416689,
      "d": 118.53439583333238,
      "v": 86
    },
    {
      "midi": 59,
      "hit": false,
      "t": 55851.252145833554,
      "d": 377.1548958333369,
      "v": 74
    },
    {
      "midi": 67,
      "hit": false,
      "t": 55862.028000000224,
      "d": 366.37904166666704,
      "v": 103
    },
    {
      "midi": 64,
      "hit": false,
      "t": 55867.41592708356,
      "d": 366.37904166666704,
      "v": 86
    },
    {
      "midi": 59,
      "hit": false,
      "t": 56368.493145833556,
      "d": 274.7842812500021,
      "v": 98
    },
    {
      "midi": 67,
      "hit": false,
      "t": 56379.269000000226,
      "d": 404.09453125000437,
      "v": 109
    },
    {
      "midi": 64,
      "hit": false,
      "t": 56384.65692708356,
      "d": 420.2583125000019,
      "v": 86
    },
    {
      "midi": 59,
      "hit": false,
      "t": 56772.58767708356,
      "d": 199.3533020833347,
      "v": 86
    },
    {
      "midi": 64,
      "hit": false,
      "t": 56901.89792708356,
      "d": 96.98268749999988,
      "v": 86
    },
    {
      "midi": 67,
      "hit": false,
      "t": 56907.2858541669,
      "d": 96.98268749999988,
      "v": 109
    },
    {
      "midi": 59,
      "hit": false,
      "t": 57160.51842708357,
      "d": 328.663552083337,
      "v": 108
    },
    {
      "midi": 67,
      "hit": false,
      "t": 57171.29428125024,
      "d": 560.3444166666668,
      "v": 109
    },
    {
      "midi": 64,
      "hit": false,
      "t": 57176.68220833357,
      "d": 560.3444166666668,
      "v": 86
    },
    {
      "midi": 59,
      "hit": false,
      "t": 57672.371500000234,
      "d": 123.9223229166746,
      "v": 86
    },
    {
      "midi": 63,
      "hit": false,
      "t": 57936.37992708357,
      "d": 393.31867708334175,
      "v": 72
    },
    {
      "midi": 66,
      "hit": false,
      "t": 57941.76785416691,
      "d": 398.7066041666767,
      "v": 68
    },
    {
      "midi": 59,
      "hit": false,
      "t": 57952.54370833358,
      "d": 366.37904166666704,
      "v": 86
    },
    {
      "midi": 59,
      "hit": false,
      "t": 58442.84507291692,
      "d": 301.72391666666954,
      "v": 98
    },
    {
      "midi": 63,
      "hit": false,
      "t": 58448.233000000255,
      "d": 360.9911145833321,
      "v": 86
    },
    {
      "midi": 66,
      "hit": false,
      "t": 58459.008854166925,
      "d": 377.15489583332965,
      "v": 74
    },
    {
      "midi": 59,
      "hit": false,
      "t": 58863.10338541692,
      "d": 226.29293750000215,
      "v": 92
    },
    {
      "midi": 63,
      "hit": false,
      "t": 58987.02570833359,
      "d": 86.20683333333727,
      "v": 68
    },
    {
      "midi": 66,
      "hit": false,
      "t": 58992.413635416924,
      "d": 75.43097916666738,
      "v": 72
    },
    {
      "midi": 59,
      "hit": false,
      "t": 59224.094500000254,
      "d": 183.18952083333716,
      "v": 98
    },
    {
      "midi": 63,
      "hit": false,
      "t": 59229.48242708359,
      "d": 366.37904166666704,
      "v": 92
    },
    {
      "midi": 66,
      "hit": false,
      "t": 59234.870354166924,
      "d": 377.15489583332965,
      "v": 86
    },
    {
      "midi": 59,
      "hit": false,
      "t": 59730.559645833586,
      "d": 269.3963541666744,
      "v": 109
    },
    {
      "midi": 63,
      "hit": false,
      "t": 59735.94757291692,
      "d": 264.0084270833395,
      "v": 92
    },
    {
      "midi": 66,
      "hit": false,
      "t": 59746.72342708359,
      "d": 253.2325729166696,
      "v": 86
    },
    {
      "midi": 59,
      "hit": false,
      "t": 60010.73185416693,
      "d": 409.4824583333393,
      "v": 103
    },
    {
      "midi": 63,
      "hit": false,
      "t": 60016.119781250265,
      "d": 409.4824583333393,
      "v": 80
    },
    {
      "midi": 66,
      "hit": false,
      "t": 60021.5077083336,
      "d": 404.09453125000437,
      "v": 72
    },
    {
      "midi": 63,
      "hit": false,
      "t": 60522.584927083604,
      "d": 360.9911145833321,
      "v": 74
    },
    {
      "midi": 66,
      "hit": false,
      "t": 60527.97285416694,
      "d": 377.15489583332965,
      "v": 72
    },
    {
      "midi": 59,
      "hit": false,
      "t": 60538.74870833361,
      "d": 280.17220833332976,
      "v": 92
    },
    {
      "midi": 59,
      "hit": false,
      "t": 60932.067385416936,
      "d": 193.96537499999977,
      "v": 103
    },
    {
      "midi": 66,
      "hit": false,
      "t": 61050.60178125027,
      "d": 102.37061458333483,
      "v": 92
    },
    {
      "midi": 63,
      "hit": false,
      "t": 61055.9897083336,
      "d": 70.04305208333244,
      "v": 70
    },
    {
      "midi": 63,
      "hit": false,
      "t": 61314.6102083336,
      "d": 474.1375833333368,
      "v": 92
    },
    {
      "midi": 66,
      "hit": false,
      "t": 61319.998135416936,
      "d": 495.6892916666693,
      "v": 80
    },
    {
      "midi": 59,
      "hit": false,
      "t": 61325.38606250027,
      "d": 323.27562500000204,
      "v": 109
    },
    {
      "midi": 59,
      "hit": false,
      "t": 61826.463281250275,
      "d": 156.2498854166697,
      "v": 98
    },
    {
      "midi": 63,
      "hit": false,
      "t": 61837.239135416945,
      "d": 70.04305208333244,
      "v": 20
    },
    {
      "midi": 67,
      "hit": false,
      "t": 62079.695854166945,
      "d": 371.76696875000926,
      "v": 98
    },
    {
      "midi": 59,
      "hit": false,
      "t": 62090.471708333615,
      "d": 355.6031875000044,
      "v": 92
    },
    {
      "midi": 64,
      "hit": false,
      "t": 62095.85963541695,
      "d": 360.99111458333937,
      "v": 72
    },
    {
      "midi": 59,
      "hit": false,
      "t": 62580.773072916956,
      "d": 264.0084270833395,
      "v": 92
    },
    {
      "midi": 67,
      "hit": false,
      "t": 62586.16100000029,
      "d": 377.1548958333369,
      "v": 103
    },
    {
      "midi": 64,
      "hit": false,
      "t": 62596.93685416696,
      "d": 425.64623958333686,
      "v": 80
    },
    {
      "midi": 59,
      "hit": false,
      "t": 62990.255531250295,
      "d": 183.18952083333716,
      "v": 98
    },
    {
      "midi": 67,
      "hit": false,
      "t": 63114.17785416696,
      "d": 96.98268749999988,
      "v": 115
    },
    {
      "midi": 64,
      "hit": false,
      "t": 63119.5657812503,
      "d": 75.43097916666738,
      "v": 80
    },
    {
      "midi": 59,
      "hit": false,
      "t": 63351.24664583363,
      "d": 420.2583125000019,
      "v": 98
    },
    {
      "midi": 64,
      "hit": false,
      "t": 63362.0225000003,
      "d": 581.8961249999993,
      "v": 80
    },
    {
      "midi": 67,
      "hit": false,
      "t": 63367.41042708363,
      "d": 490.3013645833271,
      "v": 80
    },
    {
      "midi": 59,
      "hit": false,
      "t": 63890.03935416696,
      "d": 118.53439583333238,
      "v": 86
    },
    {
      "midi": 59,
      "hit": false,
      "t": 64127.10814583363,
      "d": 377.1548958333369,
      "v": 74
    },
    {
      "midi": 67,
      "hit": false,
      "t": 64137.8840000003,
      "d": 366.37904166666704,
      "v": 103
    },
    {
      "midi": 64,
      "hit": false,
      "t": 64143.27192708363,
      "d": 366.37904166666704,
      "v": 86
    },
    {
      "midi": 59,
      "hit": false,
      "t": 64644.34914583363,
      "d": 274.7842812500021,
      "v": 98
    },
    {
      "midi": 67,
      "hit": false,
      "t": 64655.1250000003,
      "d": 404.09453125000437,
      "v": 109
    },
    {
      "midi": 64,
      "hit": false,
      "t": 64660.51292708363,
      "d": 420.2583125000019,
      "v": 86
    },
    {
      "midi": 59,
      "hit": false,
      "t": 65048.44367708363,
      "d": 199.3533020833347,
      "v": 86
    },
    {
      "midi": 64,
      "hit": false,
      "t": 65177.753927083635,
      "d": 96.98268749999988,
      "v": 86
    },
    {
      "midi": 67,
      "hit": false,
      "t": 65183.14185416697,
      "d": 96.98268749999988,
      "v": 109
    },
    {
      "midi": 59,
      "hit": false,
      "t": 65436.37442708364,
      "d": 328.66355208334426,
      "v": 108
    },
    {
      "midi": 67,
      "hit": false,
      "t": 65447.15028125031,
      "d": 560.3444166666668,
      "v": 109
    },
    {
      "midi": 64,
      "hit": false,
      "t": 65452.538208333644,
      "d": 560.3444166666595,
      "v": 86
    },
    {
      "midi": 59,
      "hit": false,
      "t": 65948.22750000031,
      "d": 123.92232291665277,
      "v": 86
    },
    {
      "midi": 63,
      "hit": false,
      "t": 66212.23592708363,
      "d": 393.3186770833272,
      "v": 72
    },
    {
      "midi": 66,
      "hit": false,
      "t": 66217.62385416696,
      "d": 398.7066041666694,
      "v": 68
    },
    {
      "midi": 59,
      "hit": false,
      "t": 66228.39970833363,
      "d": 366.37904166665976,
      "v": 86
    },
    {
      "midi": 59,
      "hit": false,
      "t": 66718.70107291696,
      "d": 301.72391666666954,
      "v": 98
    },
    {
      "midi": 63,
      "hit": false,
      "t": 66724.08900000028,
      "d": 360.99111458334664,
      "v": 86
    },
    {
      "midi": 66,
      "hit": false,
      "t": 66734.86485416695,
      "d": 377.1548958333442,
      "v": 74
    },
    {
      "midi": 59,
      "hit": false,
      "t": 67138.95938541697,
      "d": 226.29293749998033,
      "v": 92
    },
    {
      "midi": 63,
      "hit": false,
      "t": 67262.88170833363,
      "d": 86.20683333331544,
      "v": 68
    },
    {
      "midi": 66,
      "hit": false,
      "t": 67268.26963541696,
      "d": 75.43097916666011,
      "v": 72
    },
    {
      "midi": 59,
      "hit": false,
      "t": 67499.95050000028,
      "d": 183.18952083331533,
      "v": 98
    },
    {
      "midi": 63,
      "hit": false,
      "t": 67505.33842708361,
      "d": 366.37904166665976,
      "v": 92
    },
    {
      "midi": 66,
      "hit": false,
      "t": 67510.72635416694,
      "d": 377.15489583332965,
      "v": 86
    },
    {
      "midi": 59,
      "hit": false,
      "t": 68006.41564583361,
      "d": 269.3963541666599,
      "v": 109
    },
    {
      "midi": 63,
      "hit": false,
      "t": 68011.80357291694,
      "d": 264.0084270833322,
      "v": 92
    },
    {
      "midi": 66,
      "hit": false,
      "t": 68022.5794270836,
      "d": 253.23257291666232,
      "v": 86
    },
    {
      "midi": 63,
      "hit": false,
      "t": 68281.1999270836,
      "d": 91.59476041665766,
      "v": 82
    },
    {
      "midi": 66,
      "hit": false,
      "t": 68286.58785416692,
      "d": 91.59476041665766,
      "v": 70
    },
    {
      "midi": 59,
      "hit": false,
      "t": 68291.97578125025,
      "d": 21.551708333339775,
      "v": 105
    },
    {
      "midi": 59,
      "hit": false,
      "t": 68529.04457291692,
      "d": 75.43097916666011,
      "v": 105
    },
    {
      "midi": 63,
      "hit": false,
      "t": 68529.04457291692,
      "d": 75.43097916666011,
      "v": 70
    },
    {
      "midi": 66,
      "hit": false,
      "t": 68534.43250000024,
      "d": 75.43097916666011,
      "v": 76
    },
    {
      "midi": 63,
      "hit": false,
      "t": 68787.6650729169,
      "d": 199.35330208332743,
      "v": 88
    },
    {
      "midi": 59,
      "hit": false,
      "t": 68787.6650729169,
      "d": 204.7412291666551,
      "v": 117
    },
    {
      "midi": 66,
      "hit": false,
      "t": 68793.05300000023,
      "d": 193.96537499999977,
      "v": 99
    },
    {
      "midi": 66,
      "hit": false,
      "t": 69294.13021875023,
      "d": 102.37061458332755,
      "v": 82
    },
    {
      "midi": 63,
      "hit": false,
      "t": 69299.51814583356,
      "d": 21.551708333339775,
      "v": 66
    },
    {
      "midi": 59,
      "hit": false,
      "t": 69299.51814583356,
      "d": 80.81890625000233,
      "v": 105
    },
    {
      "midi": 59,
      "hit": false,
      "t": 69552.75071875022,
      "d": 86.20683333333,
      "v": 105
    },
    {
      "midi": 63,
      "hit": false,
      "t": 69552.75071875022,
      "d": 86.20683333333,
      "v": 76
    },
    {
      "midi": 66,
      "hit": false,
      "t": 69558.13864583355,
      "d": 70.04305208333244,
      "v": 82
    },
    {
      "midi": 59,
      "hit": false,
      "t": 69811.37121875021,
      "d": 231.68086458332255,
      "v": 117
    },
    {
      "midi": 63,
      "hit": false,
      "t": 69816.75914583354,
      "d": 226.29293749999488,
      "v": 88
    },
    {
      "midi": 66,
      "hit": false,
      "t": 69822.14707291686,
      "d": 220.9050104166672,
      "v": 88
    },
    {
      "midi": 67,
      "hit": false,
      "t": 70344.7760000002,
      "d": 447.19794791664754,
      "v": 71
    },
    {
      "midi": 57,
      "hit": false,
      "t": 70350.16392708353,
      "d": 436.4220937499922,
      "v": 108
    },
    {
      "midi": 60,
      "hit": false,
      "t": 70355.55185416686,
      "d": 441.81002083331987,
      "v": 102
    },
    {
      "midi": 64,
      "hit": false,
      "t": 70360.93978125018,
      "d": 431.03416666666453,
      "v": 80
    },
    {
      "midi": 60,
      "hit": false,
      "t": 70862.01700000018,
      "d": 441.8100208333344,
      "v": 91
    },
    {
      "midi": 67,
      "hit": false,
      "t": 70862.01700000018,
      "d": 463.3617291666742,
      "v": 79
    },
    {
      "midi": 64,
      "hit": false,
      "t": 70872.79285416685,
      "d": 404.0945312499971,
      "v": 77
    },
    {
      "midi": 57,
      "hit": false,
      "t": 70878.18078125018,
      "d": 420.2583125000092,
      "v": 102
    },
    {
      "midi": 67,
      "hit": false,
      "t": 71384.64592708352,
      "d": 91.59476041665766,
      "v": 51
    },
    {
      "midi": 57,
      "hit": false,
      "t": 71384.64592708352,
      "d": 167.02573958331777,
      "v": 91
    },
    {
      "midi": 60,
      "hit": false,
      "t": 71390.03385416685,
      "d": 161.6378124999901,
      "v": 85
    },
    {
      "midi": 64,
      "hit": false,
      "t": 71400.80970833352,
      "d": 145.47403124999255,
      "v": 74
    },
    {
      "midi": 62,
      "hit": false,
      "t": 71654.04228125016,
      "d": 414.8703854166524,
      "v": 91
    },
    {
      "midi": 67,
      "hit": false,
      "t": 71659.43020833349,
      "d": 409.48245833332476,
      "v": 102
    },
    {
      "midi": 55,
      "hit": false,
      "t": 71664.81813541682,
      "d": 382.5428229166573,
      "v": 102
    },
    {
      "midi": 59,
      "hit": false,
      "t": 71670.20606250015,
      "d": 350.2152604166622,
      "v": 102
    },
    {
      "midi": 62,
      "hit": false,
      "t": 72155.11950000015,
      "d": 754.3097916666593,
      "v": 55
    },
    {
      "midi": 54,
      "hit": false,
      "t": 72165.89535416682,
      "d": 721.9822291666496,
      "v": 97
    },
    {
      "midi": 57,
      "hit": false,
      "t": 72171.28328125014,
      "d": 738.1460104166617,
      "v": 102
    },
    {
      "midi": 66,
      "hit": false,
      "t": 72176.67120833347,
      "d": 1767.2400833333086,
      "v": 70
    },
    {
      "midi": 74,
      "hit": false,
      "t": 72930.98100000015,
      "d": 624.9995416666497,
      "v": 68
    },
    {
      "midi": 54,
      "hit": false,
      "t": 72947.14478125014,
      "d": 721.9822291666496,
      "v": 73
    },
    {
      "midi": 57,
      "hit": false,
      "t": 72952.53270833347,
      "d": 463.36172916665964,
      "v": 79
    },
    {
      "midi": 62,
      "hit": false,
      "t": 72957.9206354168,
      "d": 382.54282291667187,
      "v": 51
    },
    {
      "midi": 57,
      "hit": false,
      "t": 73437.44614583347,
      "d": 220.90501041665266,
      "v": 27
    },
    {
      "midi": 62,
      "hit": false,
      "t": 73480.54956250013,
      "d": 118.5343958333251,
      "v": 57
    },
    {
      "midi": 57,
      "hit": false,
      "t": 73706.84250000013,
      "d": 528.0168541666499,
      "v": 85
    },
    {
      "midi": 54,
      "hit": false,
      "t": 73712.23042708346,
      "d": 511.8530729166523,
      "v": 55
    },
    {
      "midi": 74,
      "hit": false,
      "t": 73717.61835416679,
      "d": 506.46514583332464,
      "v": 64
    },
    {
      "midi": 62,
      "hit": false,
      "t": 73723.00628125011,
      "d": 571.1202708333294,
      "v": 108
    },
    {
      "midi": 67,
      "hit": false,
      "t": 74482.70400000011,
      "d": 447.19794791664754,
      "v": 71
    },
    {
      "midi": 57,
      "hit": false,
      "t": 74488.09192708344,
      "d": 436.4220937499922,
      "v": 108
    },
    {
      "midi": 60,
      "hit": false,
      "t": 74493.47985416677,
      "d": 441.81002083331987,
      "v": 102
    },
    {
      "midi": 64,
      "hit": false,
      "t": 74498.8677812501,
      "d": 431.03416666666453,
      "v": 80
    },
    {
      "midi": 60,
      "hit": false,
      "t": 74999.9450000001,
      "d": 441.8100208333344,
      "v": 91
    },
    {
      "midi": 67,
      "hit": false,
      "t": 74999.9450000001,
      "d": 463.3617291666742,
      "v": 79
    },
    {
      "midi": 64,
      "hit": false,
      "t": 75010.72085416676,
      "d": 404.0945312499971,
      "v": 77
    },
    {
      "midi": 57,
      "hit": false,
      "t": 75016.10878125009,
      "d": 420.2583125000092,
      "v": 102
    },
    {
      "midi": 67,
      "hit": false,
      "t": 75522.57392708343,
      "d": 91.59476041665766,
      "v": 51
    },
    {
      "midi": 57,
      "hit": false,
      "t": 75522.57392708343,
      "d": 167.02573958331777,
      "v": 91
    },
    {
      "midi": 60,
      "hit": false,
      "t": 75527.96185416676,
      "d": 161.6378124999901,
      "v": 85
    },
    {
      "midi": 64,
      "hit": false,
      "t": 75538.73770833343,
      "d": 145.47403124999255,
      "v": 74
    },
    {
      "midi": 62,
      "hit": false,
      "t": 75791.97028125008,
      "d": 414.8703854166524,
      "v": 91
    },
    {
      "midi": 67,
      "hit": false,
      "t": 75797.3582083334,
      "d": 409.48245833332476,
      "v": 102
    },
    {
      "midi": 55,
      "hit": false,
      "t": 75802.74613541673,
      "d": 382.5428229166573,
      "v": 102
    },
    {
      "midi": 59,
      "hit": false,
      "t": 75808.13406250006,
      "d": 350.2152604166622,
      "v": 102
    },
    {
      "midi": 62,
      "hit": false,
      "t": 76293.04750000006,
      "d": 754.3097916666593,
      "v": 55
    },
    {
      "midi": 54,
      "hit": false,
      "t": 76303.82335416673,
      "d": 721.9822291666496,
      "v": 97
    },
    {
      "midi": 57,
      "hit": false,
      "t": 76309.21128125006,
      "d": 738.1460104166617,
      "v": 102
    },
    {
      "midi": 66,
      "hit": false,
      "t": 76314.59920833338,
      "d": 1767.2400833333086,
      "v": 70
    },
    {
      "midi": 74,
      "hit": false,
      "t": 77068.90900000006,
      "d": 624.9995416666497,
      "v": 68
    },
    {
      "midi": 54,
      "hit": false,
      "t": 77085.07278125006,
      "d": 721.9822291666496,
      "v": 73
    },
    {
      "midi": 57,
      "hit": false,
      "t": 77090.46070833338,
      "d": 463.36172916665964,
      "v": 79
    },
    {
      "midi": 62,
      "hit": false,
      "t": 77095.84863541671,
      "d": 382.54282291667187,
      "v": 51
    },
    {
      "midi": 57,
      "hit": false,
      "t": 77575.37414583338,
      "d": 220.90501041665266,
      "v": 27
    },
    {
      "midi": 62,
      "hit": false,
      "t": 77618.47756250005,
      "d": 118.5343958333251,
      "v": 57
    },
    {
      "midi": 57,
      "hit": false,
      "t": 77844.77050000004,
      "d": 528.0168541666499,
      "v": 85
    },
    {
      "midi": 54,
      "hit": false,
      "t": 77850.15842708337,
      "d": 511.8530729166523,
      "v": 55
    },
    {
      "midi": 74,
      "hit": false,
      "t": 77855.5463541667,
      "d": 506.46514583332464,
      "v": 64
    },
    {
      "midi": 62,
      "hit": false,
      "t": 77860.93428125003,
      "d": 571.1202708333294,
      "v": 108
    },
    {
      "midi": 67,
      "hit": false,
      "t": 78620.63200000003,
      "d": 447.19794791664754,
      "v": 71
    },
    {
      "midi": 57,
      "hit": false,
      "t": 78626.01992708335,
      "d": 436.4220937499922,
      "v": 108
    },
    {
      "midi": 60,
      "hit": false,
      "t": 78631.40785416668,
      "d": 441.81002083331987,
      "v": 102
    },
    {
      "midi": 64,
      "hit": false,
      "t": 78636.79578125001,
      "d": 431.03416666666453,
      "v": 80
    },
    {
      "midi": 60,
      "hit": false,
      "t": 79137.873,
      "d": 441.8100208333344,
      "v": 91
    },
    {
      "midi": 67,
      "hit": false,
      "t": 79137.873,
      "d": 463.3617291666742,
      "v": 79
    },
    {
      "midi": 64,
      "hit": false,
      "t": 79148.64885416668,
      "d": 404.0945312499971,
      "v": 77
    },
    {
      "midi": 57,
      "hit": false,
      "t": 79154.03678125,
      "d": 420.2583125000092,
      "v": 102
    },
    {
      "midi": 67,
      "hit": false,
      "t": 79660.50192708334,
      "d": 91.59476041665766,
      "v": 51
    },
    {
      "midi": 57,
      "hit": false,
      "t": 79660.50192708334,
      "d": 167.02573958331777,
      "v": 91
    },
    {
      "midi": 60,
      "hit": false,
      "t": 79665.88985416667,
      "d": 161.6378124999901,
      "v": 85
    },
    {
      "midi": 64,
      "hit": false,
      "t": 79676.66570833334,
      "d": 145.47403124999255,
      "v": 74
    },
    {
      "midi": 62,
      "hit": false,
      "t": 79929.89828124999,
      "d": 414.8703854166524,
      "v": 91
    },
    {
      "midi": 67,
      "hit": false,
      "t": 79935.28620833332,
      "d": 409.48245833332476,
      "v": 102
    },
    {
      "midi": 55,
      "hit": false,
      "t": 79940.67413541664,
      "d": 382.5428229166573,
      "v": 102
    },
    {
      "midi": 59,
      "hit": false,
      "t": 79946.06206249997,
      "d": 350.2152604166622,
      "v": 102
    },
    {
      "midi": 62,
      "hit": false,
      "t": 80430.97549999997,
      "d": 754.3097916666593,
      "v": 55
    },
    {
      "midi": 54,
      "hit": false,
      "t": 80441.75135416664,
      "d": 721.9822291666496,
      "v": 97
    },
    {
      "midi": 57,
      "hit": false,
      "t": 80447.13928124997,
      "d": 738.1460104166617,
      "v": 102
    },
    {
      "midi": 66,
      "hit": false,
      "t": 80452.5272083333,
      "d": 1767.2400833333086,
      "v": 70
    },
    {
      "midi": 74,
      "hit": false,
      "t": 81206.83699999997,
      "d": 624.9995416666497,
      "v": 68
    },
    {
      "midi": 54,
      "hit": false,
      "t": 81223.00078124997,
      "d": 721.9822291666496,
      "v": 73
    },
    {
      "midi": 57,
      "hit": false,
      "t": 81228.3887083333,
      "d": 463.36172916665964,
      "v": 79
    },
    {
      "midi": 62,
      "hit": false,
      "t": 81233.77663541662,
      "d": 382.54282291667187,
      "v": 51
    },
    {
      "midi": 57,
      "hit": false,
      "t": 81713.3021458333,
      "d": 220.90501041665266,
      "v": 27
    },
    {
      "midi": 62,
      "hit": false,
      "t": 81756.40556249996,
      "d": 118.5343958333251,
      "v": 57
    },
    {
      "midi": 57,
      "hit": false,
      "t": 81982.69849999995,
      "d": 528.0168541666499,
      "v": 85
    },
    {
      "midi": 54,
      "hit": false,
      "t": 81988.08642708328,
      "d": 511.8530729166523,
      "v": 55
    },
    {
      "midi": 74,
      "hit": false,
      "t": 81993.47435416661,
      "d": 506.46514583332464,
      "v": 64
    },
    {
      "midi": 62,
      "hit": false,
      "t": 81998.86228124994,
      "d": 571.1202708333294,
      "v": 108
    },
    {
      "midi": 67,
      "hit": false,
      "t": 82758.55999999994,
      "d": 447.19794791664754,
      "v": 71
    },
    {
      "midi": 57,
      "hit": false,
      "t": 82763.94792708327,
      "d": 436.4220937499922,
      "v": 108
    },
    {
      "midi": 60,
      "hit": false,
      "t": 82769.3358541666,
      "d": 441.81002083331987,
      "v": 102
    },
    {
      "midi": 64,
      "hit": false,
      "t": 82774.72378124992,
      "d": 431.03416666666453,
      "v": 80
    },
    {
      "midi": 60,
      "hit": false,
      "t": 83275.80099999992,
      "d": 441.8100208333344,
      "v": 91
    },
    {
      "midi": 67,
      "hit": false,
      "t": 83275.80099999992,
      "d": 463.3617291666742,
      "v": 79
    },
    {
      "midi": 64,
      "hit": false,
      "t": 83286.57685416659,
      "d": 404.0945312499971,
      "v": 77
    },
    {
      "midi": 57,
      "hit": false,
      "t": 83291.96478124992,
      "d": 420.2583125000092,
      "v": 102
    },
    {
      "midi": 67,
      "hit": false,
      "t": 83798.42992708326,
      "d": 91.59476041665766,
      "v": 51
    },
    {
      "midi": 57,
      "hit": false,
      "t": 83798.42992708326,
      "d": 167.02573958331777,
      "v": 91
    },
    {
      "midi": 60,
      "hit": false,
      "t": 83803.81785416658,
      "d": 161.6378124999901,
      "v": 85
    },
    {
      "midi": 64,
      "hit": false,
      "t": 83814.59370833325,
      "d": 145.47403124999255,
      "v": 74
    },
    {
      "midi": 62,
      "hit": false,
      "t": 84067.8262812499,
      "d": 414.8703854166524,
      "v": 91
    },
    {
      "midi": 67,
      "hit": false,
      "t": 84073.21420833323,
      "d": 409.48245833332476,
      "v": 102
    },
    {
      "midi": 55,
      "hit": false,
      "t": 84078.60213541656,
      "d": 382.5428229166573,
      "v": 102
    },
    {
      "midi": 59,
      "hit": false,
      "t": 84083.99006249988,
      "d": 350.2152604166622,
      "v": 102
    },
    {
      "midi": 62,
      "hit": false,
      "t": 84568.90349999988,
      "d": 754.3097916666593,
      "v": 55
    },
    {
      "midi": 54,
      "hit": false,
      "t": 84579.67935416655,
      "d": 721.9822291666496,
      "v": 97
    },
    {
      "midi": 57,
      "hit": false,
      "t": 84585.06728124988,
      "d": 738.1460104166617,
      "v": 102
    },
    {
      "midi": 66,
      "hit": false,
      "t": 84590.45520833321,
      "d": 1767.2400833333086,
      "v": 70
    },
    {
      "midi": 74,
      "hit": false,
      "t": 85344.76499999988,
      "d": 624.9995416666497,
      "v": 68
    },
    {
      "midi": 54,
      "hit": false,
      "t": 85360.92878124988,
      "d": 721.9822291666496,
      "v": 73
    },
    {
      "midi": 57,
      "hit": false,
      "t": 85366.31670833321,
      "d": 463.36172916665964,
      "v": 79
    },
    {
      "midi": 62,
      "hit": false,
      "t": 85371.70463541654,
      "d": 382.54282291667187,
      "v": 51
    },
    {
      "midi": 57,
      "hit": false,
      "t": 85851.23014583321,
      "d": 220.90501041665266,
      "v": 27
    },
    {
      "midi": 62,
      "hit": false,
      "t": 85894.33356249987,
      "d": 118.5343958333251,
      "v": 57
    },
    {
      "midi": 57,
      "hit": false,
      "t": 86120.62649999987,
      "d": 528.0168541666499,
      "v": 85
    },
    {
      "midi": 54,
      "hit": false,
      "t": 86126.0144270832,
      "d": 511.8530729166523,
      "v": 55
    },
    {
      "midi": 74,
      "hit": false,
      "t": 86131.40235416652,
      "d": 506.46514583332464,
      "v": 64
    },
    {
      "midi": 62,
      "hit": false,
      "t": 86136.79028124985,
      "d": 571.1202708333294,
      "v": 108
    },
    {
      "midi": 67,
      "hit": false,
      "t": 86896.48799999985,
      "d": 447.19794791664754,
      "v": 71
    },
    {
      "midi": 57,
      "hit": false,
      "t": 86901.87592708318,
      "d": 436.4220937499922,
      "v": 108
    },
    {
      "midi": 60,
      "hit": false,
      "t": 86907.26385416651,
      "d": 441.81002083331987,
      "v": 102
    },
    {
      "midi": 64,
      "hit": false,
      "t": 86912.65178124984,
      "d": 431.03416666666453,
      "v": 80
    },
    {
      "midi": 60,
      "hit": false,
      "t": 87413.72899999983,
      "d": 441.8100208333344,
      "v": 91
    },
    {
      "midi": 67,
      "hit": false,
      "t": 87413.72899999983,
      "d": 463.3617291666742,
      "v": 79
    },
    {
      "midi": 64,
      "hit": false,
      "t": 87424.5048541665,
      "d": 404.0945312499971,
      "v": 77
    },
    {
      "midi": 57,
      "hit": false,
      "t": 87429.89278124983,
      "d": 420.2583125000092,
      "v": 102
    },
    {
      "midi": 67,
      "hit": false,
      "t": 87936.35792708317,
      "d": 91.59476041665766,
      "v": 51
    },
    {
      "midi": 57,
      "hit": false,
      "t": 87936.35792708317,
      "d": 167.02573958331777,
      "v": 91
    },
    {
      "midi": 60,
      "hit": false,
      "t": 87941.7458541665,
      "d": 161.6378124999901,
      "v": 85
    },
    {
      "midi": 64,
      "hit": false,
      "t": 87952.52170833317,
      "d": 145.47403124999255,
      "v": 74
    },
    {
      "midi": 62,
      "hit": false,
      "t": 88205.75428124981,
      "d": 414.8703854166524,
      "v": 91
    },
    {
      "midi": 67,
      "hit": false,
      "t": 88211.14220833314,
      "d": 409.48245833332476,
      "v": 102
    },
    {
      "midi": 55,
      "hit": false,
      "t": 88216.53013541647,
      "d": 382.5428229166573,
      "v": 102
    },
    {
      "midi": 59,
      "hit": false,
      "t": 88221.9180624998,
      "d": 350.2152604166622,
      "v": 102
    },
    {
      "midi": 62,
      "hit": false,
      "t": 88706.8314999998,
      "d": 754.3097916666593,
      "v": 55
    },
    {
      "midi": 54,
      "hit": false,
      "t": 88717.60735416647,
      "d": 721.9822291666496,
      "v": 97
    },
    {
      "midi": 57,
      "hit": false,
      "t": 88722.9952812498,
      "d": 738.1460104166617,
      "v": 102
    },
    {
      "midi": 66,
      "hit": false,
      "t": 88728.38320833312,
      "d": 1767.2400833333086,
      "v": 70
    },
    {
      "midi": 74,
      "hit": false,
      "t": 89482.6929999998,
      "d": 624.9995416666497,
      "v": 68
    },
    {
      "midi": 54,
      "hit": false,
      "t": 89498.8567812498,
      "d": 721.9822291666496,
      "v": 73
    },
    {
      "midi": 57,
      "hit": false,
      "t": 89504.24470833312,
      "d": 463.36172916665964,
      "v": 79
    },
    {
      "midi": 62,
      "hit": false,
      "t": 89509.63263541645,
      "d": 382.54282291667187,
      "v": 51
    },
    {
      "midi": 57,
      "hit": false,
      "t": 89989.15814583312,
      "d": 220.90501041665266,
      "v": 27
    },
    {
      "midi": 62,
      "hit": false,
      "t": 90032.26156249979,
      "d": 118.5343958333251,
      "v": 57
    },
    {
      "midi": 57,
      "hit": false,
      "t": 90258.55449999978,
      "d": 528.0168541666499,
      "v": 85
    },
    {
      "midi": 54,
      "hit": false,
      "t": 90263.94242708311,
      "d": 511.8530729166523,
      "v": 55
    },
    {
      "midi": 74,
      "hit": false,
      "t": 90269.33035416644,
      "d": 506.46514583332464,
      "v": 64
    },
    {
      "midi": 62,
      "hit": false,
      "t": 90274.71828124976,
      "d": 571.1202708333294,
      "v": 108
    },
    {
      "midi": 62,
      "hit": false,
      "t": 91034.41599999976,
      "d": 1966.5933854166651,
      "v": 109
    },
    {
      "midi": 71,
      "hit": false,
      "t": 91034.41599999976,
      "d": 1966.5933854166651,
      "v": 98
    },
    {
      "midi": 67,
      "hit": false,
      "t": 91045.19185416643,
      "d": 1971.9813124999928,
      "v": 115
    },
    {
      "midi": 67,
      "hit": false,
      "t": 93103.37999999976,
      "d": 1610.9901979166607,
      "v": 104
    },
    {
      "midi": 71,
      "hit": false,
      "t": 93108.76792708308,
      "d": 1713.3608125000028,
      "v": 92
    },
    {
      "midi": 62,
      "hit": false,
      "t": 93119.54378124975,
      "d": 1616.378125000003,
      "v": 104
    },
    {
      "midi": 66,
      "hit": false,
      "t": 95166.95607291642,
      "d": 172.41366666666,
      "v": 98
    },
    {
      "midi": 71,
      "hit": false,
      "t": 95172.34399999975,
      "d": 1874.998624999993,
      "v": 109
    },
    {
      "midi": 63,
      "hit": false,
      "t": 95183.11985416642,
      "d": 1945.0416770833253,
      "v": 104
    },
    {
      "midi": 66,
      "hit": false,
      "t": 97214.36836458308,
      "d": 1530.171291666673,
      "v": 56
    },
    {
      "midi": 63,
      "hit": false,
      "t": 97225.14421874975,
      "d": 1514.0075104166754,
      "v": 74
    },
    {
      "midi": 69,
      "hit": false,
      "t": 97235.92007291641,
      "d": 1449.3523854166706,
      "v": 98
    },
    {
      "midi": 72,
      "hit": false,
      "t": 97252.08385416641,
      "d": 1454.7403125000128,
      "v": 127
    },
    {
      "midi": 59,
      "hit": false,
      "t": 101390.01185416641,
      "d": 409.48245833332476,
      "v": 103
    },
    {
      "midi": 63,
      "hit": false,
      "t": 101395.39978124974,
      "d": 409.48245833332476,
      "v": 80
    },
    {
      "midi": 66,
      "hit": false,
      "t": 101400.78770833307,
      "d": 404.0945312499971,
      "v": 72
    },
    {
      "midi": 63,
      "hit": false,
      "t": 101901.86492708306,
      "d": 360.9911145833321,
      "v": 74
    },
    {
      "midi": 66,
      "hit": false,
      "t": 101907.25285416639,
      "d": 377.1548958333442,
      "v": 72
    },
    {
      "midi": 59,
      "hit": false,
      "t": 101918.02870833306,
      "d": 280.17220833332976,
      "v": 92
    },
    {
      "midi": 59,
      "hit": false,
      "t": 102311.3473854164,
      "d": 193.96537499999977,
      "v": 103
    },
    {
      "midi": 66,
      "hit": false,
      "t": 102429.88178124974,
      "d": 102.37061458332755,
      "v": 92
    },
    {
      "midi": 63,
      "hit": false,
      "t": 102435.26970833307,
      "d": 70.04305208333244,
      "v": 70
    },
    {
      "midi": 63,
      "hit": false,
      "t": 102693.89020833308,
      "d": 474.137583333315,
      "v": 92
    },
    {
      "midi": 66,
      "hit": false,
      "t": 102699.2781354164,
      "d": 495.68929166665475,
      "v": 80
    },
    {
      "midi": 59,
      "hit": false,
      "t": 102704.66606249973,
      "d": 323.27562499999476,
      "v": 109
    },
    {
      "midi": 59,
      "hit": false,
      "t": 103205.74328124973,
      "d": 156.24988541666244,
      "v": 98
    },
    {
      "midi": 63,
      "hit": false,
      "t": 103216.5191354164,
      "d": 70.04305208333244,
      "v": 20
    },
    {
      "midi": 67,
      "hit": false,
      "t": 103458.97585416639,
      "d": 371.7669687499874,
      "v": 98
    },
    {
      "midi": 59,
      "hit": false,
      "t": 103469.75170833306,
      "d": 355.6031874999899,
      "v": 92
    },
    {
      "midi": 64,
      "hit": false,
      "t": 103475.13963541639,
      "d": 360.99111458331754,
      "v": 72
    },
    {
      "midi": 59,
      "hit": false,
      "t": 103960.05307291637,
      "d": 264.0084270833322,
      "v": 92
    },
    {
      "midi": 67,
      "hit": false,
      "t": 103965.4409999997,
      "d": 377.1548958333442,
      "v": 103
    },
    {
      "midi": 64,
      "hit": false,
      "t": 103976.21685416637,
      "d": 425.64623958333686,
      "v": 80
    },
    {
      "midi": 59,
      "hit": false,
      "t": 104369.53553124971,
      "d": 183.18952083332988,
      "v": 98
    },
    {
      "midi": 67,
      "hit": false,
      "t": 104493.45785416638,
      "d": 96.98268749999988,
      "v": 115
    },
    {
      "midi": 64,
      "hit": false,
      "t": 104498.8457812497,
      "d": 75.43097916667466,
      "v": 80
    },
    {
      "midi": 59,
      "hit": false,
      "t": 104730.52664583304,
      "d": 420.25831249999464,
      "v": 98
    },
    {
      "midi": 64,
      "hit": false,
      "t": 104741.30249999971,
      "d": 581.8961249999847,
      "v": 80
    },
    {
      "midi": 67,
      "hit": false,
      "t": 104746.69042708304,
      "d": 490.3013645833271,
      "v": 80
    },
    {
      "midi": 59,
      "hit": false,
      "t": 105269.31935416636,
      "d": 118.53439583333966,
      "v": 86
    },
    {
      "midi": 59,
      "hit": false,
      "t": 105506.38814583304,
      "d": 377.15489583332965,
      "v": 74
    },
    {
      "midi": 67,
      "hit": false,
      "t": 105517.16399999971,
      "d": 366.37904166665976,
      "v": 103
    },
    {
      "midi": 64,
      "hit": false,
      "t": 105522.55192708304,
      "d": 366.37904166665976,
      "v": 86
    },
    {
      "midi": 59,
      "hit": false,
      "t": 106023.62914583304,
      "d": 274.7842812500021,
      "v": 98
    },
    {
      "midi": 67,
      "hit": false,
      "t": 106034.40499999971,
      "d": 404.0945312499971,
      "v": 109
    },
    {
      "midi": 64,
      "hit": false,
      "t": 106039.79292708304,
      "d": 420.2583125000092,
      "v": 86
    },
    {
      "midi": 59,
      "hit": false,
      "t": 106427.72367708303,
      "d": 199.353302083342,
      "v": 86
    },
    {
      "midi": 64,
      "hit": false,
      "t": 106557.03392708304,
      "d": 96.98268749999988,
      "v": 86
    },
    {
      "midi": 67,
      "hit": false,
      "t": 106562.42185416637,
      "d": 96.98268749999988,
      "v": 109
    },
    {
      "midi": 59,
      "hit": false,
      "t": 106815.65442708303,
      "d": 328.663552083337,
      "v": 108
    },
    {
      "midi": 67,
      "hit": false,
      "t": 106826.4302812497,
      "d": 560.3444166666595,
      "v": 109
    },
    {
      "midi": 64,
      "hit": false,
      "t": 106831.81820833303,
      "d": 560.3444166666595,
      "v": 86
    },
    {
      "midi": 59,
      "hit": false,
      "t": 107327.5074999997,
      "d": 123.92232291665277,
      "v": 86
    },
    {
      "midi": 63,
      "hit": false,
      "t": 107591.51592708302,
      "d": 393.3186770833272,
      "v": 72
    },
    {
      "midi": 66,
      "hit": false,
      "t": 107596.90385416635,
      "d": 398.7066041666694,
      "v": 68
    },
    {
      "midi": 59,
      "hit": false,
      "t": 107607.67970833302,
      "d": 366.37904166665976,
      "v": 86
    },
    {
      "midi": 59,
      "hit": false,
      "t": 108097.98107291634,
      "d": 301.72391666666954,
      "v": 98
    },
    {
      "midi": 63,
      "hit": false,
      "t": 108103.36899999967,
      "d": 360.99111458334664,
      "v": 86
    },
    {
      "midi": 66,
      "hit": false,
      "t": 108114.14485416634,
      "d": 377.1548958333442,
      "v": 74
    },
    {
      "midi": 59,
      "hit": false,
      "t": 108518.23938541635,
      "d": 226.29293749998033,
      "v": 92
    },
    {
      "midi": 63,
      "hit": false,
      "t": 108642.16170833302,
      "d": 86.20683333331544,
      "v": 68
    },
    {
      "midi": 66,
      "hit": false,
      "t": 108647.54963541635,
      "d": 75.43097916666011,
      "v": 72
    },
    {
      "midi": 59,
      "hit": false,
      "t": 108879.23049999967,
      "d": 183.18952083331533,
      "v": 98
    },
    {
      "midi": 63,
      "hit": false,
      "t": 108884.618427083,
      "d": 366.37904166665976,
      "v": 92
    },
    {
      "midi": 66,
      "hit": false,
      "t": 108890.00635416633,
      "d": 377.15489583332965,
      "v": 86
    },
    {
      "midi": 59,
      "hit": false,
      "t": 109385.695645833,
      "d": 269.3963541666599,
      "v": 109
    },
    {
      "midi": 63,
      "hit": false,
      "t": 109391.08357291632,
      "d": 264.0084270833322,
      "v": 92
    },
    {
      "midi": 66,
      "hit": false,
      "t": 109401.85942708299,
      "d": 253.23257291666232,
      "v": 86
    },
    {
      "midi": 59,
      "hit": false,
      "t": 109665.86785416632,
      "d": 409.48245833332476,
      "v": 103
    },
    {
      "midi": 63,
      "hit": false,
      "t": 109671.25578124965,
      "d": 409.48245833332476,
      "v": 80
    },
    {
      "midi": 66,
      "hit": false,
      "t": 109676.64370833298,
      "d": 404.0945312499971,
      "v": 72
    },
    {
      "midi": 63,
      "hit": false,
      "t": 110177.72092708298,
      "d": 360.9911145833321,
      "v": 74
    },
    {
      "midi": 66,
      "hit": false,
      "t": 110183.1088541663,
      "d": 377.1548958333442,
      "v": 72
    },
    {
      "midi": 59,
      "hit": false,
      "t": 110193.88470833297,
      "d": 280.17220833332976,
      "v": 92
    },
    {
      "midi": 59,
      "hit": false,
      "t": 110587.20338541632,
      "d": 193.96537499999977,
      "v": 103
    },
    {
      "midi": 66,
      "hit": false,
      "t": 110705.73778124966,
      "d": 102.37061458332755,
      "v": 92
    },
    {
      "midi": 63,
      "hit": false,
      "t": 110711.12570833298,
      "d": 70.04305208333244,
      "v": 70
    },
    {
      "midi": 63,
      "hit": false,
      "t": 110969.74620833299,
      "d": 474.137583333315,
      "v": 92
    },
    {
      "midi": 66,
      "hit": false,
      "t": 110975.13413541632,
      "d": 495.68929166665475,
      "v": 80
    },
    {
      "midi": 59,
      "hit": false,
      "t": 110980.52206249964,
      "d": 323.27562499999476,
      "v": 109
    },
    {
      "midi": 59,
      "hit": false,
      "t": 111481.59928124964,
      "d": 156.24988541666244,
      "v": 98
    },
    {
      "midi": 63,
      "hit": false,
      "t": 111492.37513541631,
      "d": 70.04305208333244,
      "v": 20
    },
    {
      "midi": 67,
      "hit": false,
      "t": 111734.8318541663,
      "d": 371.7669687499874,
      "v": 98
    },
    {
      "midi": 59,
      "hit": false,
      "t": 111745.60770833297,
      "d": 355.6031874999899,
      "v": 92
    },
    {
      "midi": 64,
      "hit": false,
      "t": 111750.9956354163,
      "d": 360.99111458331754,
      "v": 72
    },
    {
      "midi": 59,
      "hit": false,
      "t": 112235.90907291629,
      "d": 264.0084270833322,
      "v": 92
    },
    {
      "midi": 67,
      "hit": false,
      "t": 112241.29699999961,
      "d": 377.1548958333442,
      "v": 103
    },
    {
      "midi": 64,
      "hit": false,
      "t": 112252.07285416628,
      "d": 425.64623958333686,
      "v": 80
    },
    {
      "midi": 59,
      "hit": false,
      "t": 112645.39153124962,
      "d": 183.18952083332988,
      "v": 98
    },
    {
      "midi": 67,
      "hit": false,
      "t": 112769.31385416629,
      "d": 96.98268749999988,
      "v": 115
    },
    {
      "midi": 64,
      "hit": false,
      "t": 112774.70178124962,
      "d": 75.43097916667466,
      "v": 80
    },
    {
      "midi": 59,
      "hit": false,
      "t": 113006.38264583296,
      "d": 420.25831249999464,
      "v": 98
    },
    {
      "midi": 64,
      "hit": false,
      "t": 113017.15849999963,
      "d": 581.8961249999847,
      "v": 80
    },
    {
      "midi": 67,
      "hit": false,
      "t": 113022.54642708295,
      "d": 490.3013645833271,
      "v": 80
    },
    {
      "midi": 59,
      "hit": false,
      "t": 113545.17535416628,
      "d": 118.53439583333966,
      "v": 86
    },
    {
      "midi": 59,
      "hit": false,
      "t": 113782.24414583296,
      "d": 377.15489583332965,
      "v": 74
    },
    {
      "midi": 67,
      "hit": false,
      "t": 113793.01999999963,
      "d": 366.37904166665976,
      "v": 103
    },
    {
      "midi": 64,
      "hit": false,
      "t": 113798.40792708295,
      "d": 366.37904166665976,
      "v": 86
    },
    {
      "midi": 59,
      "hit": false,
      "t": 114299.48514583295,
      "d": 274.7842812500021,
      "v": 98
    },
    {
      "midi": 67,
      "hit": false,
      "t": 114310.26099999962,
      "d": 404.0945312499971,
      "v": 109
    },
    {
      "midi": 64,
      "hit": false,
      "t": 114315.64892708295,
      "d": 420.2583125000092,
      "v": 86
    },
    {
      "midi": 59,
      "hit": false,
      "t": 114703.57967708295,
      "d": 199.353302083342,
      "v": 86
    },
    {
      "midi": 64,
      "hit": false,
      "t": 114832.88992708296,
      "d": 96.98268749999988,
      "v": 86
    },
    {
      "midi": 67,
      "hit": false,
      "t": 114838.27785416628,
      "d": 96.98268749999988,
      "v": 109
    },
    {
      "midi": 59,
      "hit": false,
      "t": 115091.51042708295,
      "d": 328.663552083337,
      "v": 108
    },
    {
      "midi": 67,
      "hit": false,
      "t": 115102.28628124962,
      "d": 560.3444166666595,
      "v": 109
    },
    {
      "midi": 64,
      "hit": false,
      "t": 115107.67420833294,
      "d": 560.3444166666595,
      "v": 86
    },
    {
      "midi": 59,
      "hit": false,
      "t": 115603.36349999961,
      "d": 123.92232291665277,
      "v": 86
    },
    {
      "midi": 63,
      "hit": false,
      "t": 115867.37192708293,
      "d": 393.3186770833272,
      "v": 72
    },
    {
      "midi": 66,
      "hit": false,
      "t": 115872.75985416626,
      "d": 398.7066041666694,
      "v": 68
    },
    {
      "midi": 59,
      "hit": false,
      "t": 115883.53570833293,
      "d": 366.37904166665976,
      "v": 86
    },
    {
      "midi": 59,
      "hit": false,
      "t": 116373.83707291626,
      "d": 301.72391666666954,
      "v": 98
    },
    {
      "midi": 63,
      "hit": false,
      "t": 116379.22499999958,
      "d": 360.99111458334664,
      "v": 86
    },
    {
      "midi": 66,
      "hit": false,
      "t": 116390.00085416625,
      "d": 377.1548958333442,
      "v": 74
    },
    {
      "midi": 59,
      "hit": false,
      "t": 116794.09538541627,
      "d": 226.29293749998033,
      "v": 92
    },
    {
      "midi": 63,
      "hit": false,
      "t": 116918.01770833293,
      "d": 86.20683333331544,
      "v": 68
    },
    {
      "midi": 66,
      "hit": false,
      "t": 116923.40563541626,
      "d": 75.43097916666011,
      "v": 72
    },
    {
      "midi": 59,
      "hit": false,
      "t": 117155.08649999958,
      "d": 183.18952083331533,
      "v": 98
    },
    {
      "midi": 63,
      "hit": false,
      "t": 117160.47442708291,
      "d": 366.37904166665976,
      "v": 92
    },
    {
      "midi": 66,
      "hit": false,
      "t": 117165.86235416624,
      "d": 377.15489583332965,
      "v": 86
    },
    {
      "midi": 59,
      "hit": false,
      "t": 117661.55164583291,
      "d": 269.3963541666599,
      "v": 109
    },
    {
      "midi": 63,
      "hit": false,
      "t": 117666.93957291624,
      "d": 264.0084270833322,
      "v": 92
    },
    {
      "midi": 66,
      "hit": false,
      "t": 117677.7154270829,
      "d": 253.23257291666232,
      "v": 86
    },
    {
      "midi": 63,
      "hit": false,
      "t": 117936.3359270829,
      "d": 91.59476041665766,
      "v": 82
    },
    {
      "midi": 66,
      "hit": false,
      "t": 117941.72385416622,
      "d": 91.59476041665766,
      "v": 70
    },
    {
      "midi": 59,
      "hit": false,
      "t": 117947.11178124955,
      "d": 21.551708333339775,
      "v": 105
    },
    {
      "midi": 59,
      "hit": false,
      "t": 118184.18057291622,
      "d": 75.43097916666011,
      "v": 105
    },
    {
      "midi": 63,
      "hit": false,
      "t": 118184.18057291622,
      "d": 75.43097916666011,
      "v": 70
    },
    {
      "midi": 66,
      "hit": false,
      "t": 118189.56849999954,
      "d": 75.43097916666011,
      "v": 76
    },
    {
      "midi": 63,
      "hit": false,
      "t": 118442.8010729162,
      "d": 199.35330208332743,
      "v": 88
    },
    {
      "midi": 59,
      "hit": false,
      "t": 118442.8010729162,
      "d": 204.7412291666551,
      "v": 117
    },
    {
      "midi": 66,
      "hit": false,
      "t": 118448.18899999953,
      "d": 193.96537499999977,
      "v": 99
    },
    {
      "midi": 66,
      "hit": false,
      "t": 118949.26621874953,
      "d": 102.37061458332755,
      "v": 82
    },
    {
      "midi": 63,
      "hit": false,
      "t": 118954.65414583286,
      "d": 21.551708333339775,
      "v": 66
    },
    {
      "midi": 59,
      "hit": false,
      "t": 118954.65414583286,
      "d": 80.81890625000233,
      "v": 105
    },
    {
      "midi": 59,
      "hit": false,
      "t": 119207.88671874952,
      "d": 86.20683333333,
      "v": 105
    },
    {
      "midi": 63,
      "hit": false,
      "t": 119207.88671874952,
      "d": 86.20683333333,
      "v": 76
    },
    {
      "midi": 66,
      "hit": false,
      "t": 119213.27464583285,
      "d": 70.04305208333244,
      "v": 82
    },
    {
      "midi": 59,
      "hit": false,
      "t": 119466.50721874951,
      "d": 231.68086458332255,
      "v": 117
    },
    {
      "midi": 63,
      "hit": false,
      "t": 119471.89514583284,
      "d": 226.29293749999488,
      "v": 88
    },
    {
      "midi": 66,
      "hit": false,
      "t": 119477.28307291617,
      "d": 220.9050104166672,
      "v": 88
    },
    {
      "midi": 59,
      "hit": false,
      "t": 120010.68785416617,
      "d": 409.48245833332476,
      "v": 103
    },
    {
      "midi": 63,
      "hit": false,
      "t": 120016.0757812495,
      "d": 409.48245833332476,
      "v": 80
    },
    {
      "midi": 66,
      "hit": false,
      "t": 120021.46370833283,
      "d": 404.0945312499971,
      "v": 72
    },
    {
      "midi": 63,
      "hit": false,
      "t": 120522.54092708282,
      "d": 360.9911145833321,
      "v": 74
    },
    {
      "midi": 66,
      "hit": false,
      "t": 120527.92885416615,
      "d": 377.1548958333442,
      "v": 72
    },
    {
      "midi": 59,
      "hit": false,
      "t": 120538.70470833282,
      "d": 280.17220833332976,
      "v": 92
    },
    {
      "midi": 59,
      "hit": false,
      "t": 120932.02338541616,
      "d": 193.96537499999977,
      "v": 103
    },
    {
      "midi": 66,
      "hit": false,
      "t": 121050.5577812495,
      "d": 102.37061458332755,
      "v": 92
    },
    {
      "midi": 63,
      "hit": false,
      "t": 121055.94570833283,
      "d": 70.04305208333244,
      "v": 70
    },
    {
      "midi": 63,
      "hit": false,
      "t": 121314.56620833284,
      "d": 474.137583333315,
      "v": 92
    },
    {
      "midi": 66,
      "hit": false,
      "t": 121319.95413541616,
      "d": 495.68929166665475,
      "v": 80
    },
    {
      "midi": 59,
      "hit": false,
      "t": 121325.34206249949,
      "d": 323.27562499999476,
      "v": 109
    },
    {
      "midi": 59,
      "hit": false,
      "t": 121826.41928124949,
      "d": 156.24988541666244,
      "v": 98
    },
    {
      "midi": 63,
      "hit": false,
      "t": 121837.19513541616,
      "d": 70.04305208333244,
      "v": 20
    },
    {
      "midi": 67,
      "hit": false,
      "t": 122079.65185416615,
      "d": 371.7669687499874,
      "v": 98
    },
    {
      "midi": 59,
      "hit": false,
      "t": 122090.42770833282,
      "d": 355.6031874999899,
      "v": 92
    },
    {
      "midi": 64,
      "hit": false,
      "t": 122095.81563541615,
      "d": 360.99111458331754,
      "v": 72
    },
    {
      "midi": 59,
      "hit": false,
      "t": 122580.72907291613,
      "d": 264.0084270833322,
      "v": 92
    },
    {
      "midi": 67,
      "hit": false,
      "t": 122586.11699999946,
      "d": 377.1548958333442,
      "v": 103
    },
    {
      "midi": 64,
      "hit": false,
      "t": 122596.89285416613,
      "d": 425.64623958333686,
      "v": 80
    },
    {
      "midi": 59,
      "hit": false,
      "t": 122990.21153124947,
      "d": 183.18952083332988,
      "v": 98
    },
    {
      "midi": 67,
      "hit": false,
      "t": 123114.13385416614,
      "d": 96.98268749999988,
      "v": 115
    },
    {
      "midi": 64,
      "hit": false,
      "t": 123119.52178124947,
      "d": 75.43097916667466,
      "v": 80
    },
    {
      "midi": 59,
      "hit": false,
      "t": 123351.2026458328,
      "d": 420.25831249999464,
      "v": 98
    },
    {
      "midi": 64,
      "hit": false,
      "t": 123361.97849999947,
      "d": 581.8961249999847,
      "v": 80
    },
    {
      "midi": 67,
      "hit": false,
      "t": 123367.3664270828,
      "d": 490.3013645833271,
      "v": 80
    },
    {
      "midi": 59,
      "hit": false,
      "t": 123889.99535416612,
      "d": 118.53439583333966,
      "v": 86
    },
    {
      "midi": 59,
      "hit": false,
      "t": 124127.0641458328,
      "d": 377.15489583332965,
      "v": 74
    },
    {
      "midi": 67,
      "hit": false,
      "t": 124137.83999999947,
      "d": 366.37904166665976,
      "v": 103
    },
    {
      "midi": 64,
      "hit": false,
      "t": 124143.2279270828,
      "d": 366.37904166665976,
      "v": 86
    },
    {
      "midi": 59,
      "hit": false,
      "t": 124644.3051458328,
      "d": 274.7842812500021,
      "v": 98
    },
    {
      "midi": 67,
      "hit": false,
      "t": 124655.08099999947,
      "d": 404.0945312499971,
      "v": 109
    },
    {
      "midi": 64,
      "hit": false,
      "t": 124660.4689270828,
      "d": 420.2583125000092,
      "v": 86
    },
    {
      "midi": 59,
      "hit": false,
      "t": 125048.3996770828,
      "d": 199.353302083342,
      "v": 86
    },
    {
      "midi": 64,
      "hit": false,
      "t": 125177.7099270828,
      "d": 96.98268749999988,
      "v": 86
    },
    {
      "midi": 67,
      "hit": false,
      "t": 125183.09785416613,
      "d": 96.98268749999988,
      "v": 109
    },
    {
      "midi": 59,
      "hit": false,
      "t": 125436.3304270828,
      "d": 328.663552083337,
      "v": 108
    },
    {
      "midi": 67,
      "hit": false,
      "t": 125447.10628124946,
      "d": 560.3444166666595,
      "v": 109
    },
    {
      "midi": 64,
      "hit": false,
      "t": 125452.49420833279,
      "d": 560.3444166666595,
      "v": 86
    },
    {
      "midi": 59,
      "hit": false,
      "t": 125948.18349999946,
      "d": 123.92232291665277,
      "v": 86
    },
    {
      "midi": 63,
      "hit": false,
      "t": 126212.19192708278,
      "d": 393.3186770833272,
      "v": 72
    },
    {
      "midi": 66,
      "hit": false,
      "t": 126217.5798541661,
      "d": 398.7066041666694,
      "v": 68
    },
    {
      "midi": 59,
      "hit": false,
      "t": 126228.35570833278,
      "d": 366.37904166665976,
      "v": 86
    },
    {
      "midi": 59,
      "hit": false,
      "t": 126718.6570729161,
      "d": 301.72391666666954,
      "v": 98
    },
    {
      "midi": 63,
      "hit": false,
      "t": 126724.04499999943,
      "d": 360.99111458334664,
      "v": 86
    },
    {
      "midi": 66,
      "hit": false,
      "t": 126734.8208541661,
      "d": 377.1548958333442,
      "v": 74
    },
    {
      "midi": 59,
      "hit": false,
      "t": 127138.91538541611,
      "d": 226.29293749998033,
      "v": 92
    },
    {
      "midi": 63,
      "hit": false,
      "t": 127262.83770833278,
      "d": 86.20683333331544,
      "v": 68
    },
    {
      "midi": 66,
      "hit": false,
      "t": 127268.2256354161,
      "d": 75.43097916666011,
      "v": 72
    },
    {
      "midi": 59,
      "hit": false,
      "t": 127499.90649999943,
      "d": 183.18952083331533,
      "v": 98
    },
    {
      "midi": 63,
      "hit": false,
      "t": 127505.29442708276,
      "d": 366.37904166665976,
      "v": 92
    },
    {
      "midi": 66,
      "hit": false,
      "t": 127510.68235416609,
      "d": 377.15489583332965,
      "v": 86
    },
    {
      "midi": 59,
      "hit": false,
      "t": 128006.37164583275,
      "d": 269.3963541666599,
      "v": 109
    },
    {
      "midi": 63,
      "hit": false,
      "t": 128011.75957291608,
      "d": 264.0084270833322,
      "v": 92
    },
    {
      "midi": 66,
      "hit": false,
      "t": 128022.53542708275,
      "d": 253.23257291666232,
      "v": 86
    },
    {
      "midi": 59,
      "hit": false,
      "t": 128286.54385416608,
      "d": 409.48245833332476,
      "v": 103
    },
    {
      "midi": 63,
      "hit": false,
      "t": 128291.93178124941,
      "d": 409.48245833332476,
      "v": 80
    },
    {
      "midi": 66,
      "hit": false,
      "t": 128297.31970833274,
      "d": 404.0945312499971,
      "v": 72
    },
    {
      "midi": 63,
      "hit": false,
      "t": 128798.39692708274,
      "d": 360.9911145833321,
      "v": 74
    },
    {
      "midi": 66,
      "hit": false,
      "t": 128803.78485416606,
      "d": 377.1548958333442,
      "v": 72
    },
    {
      "midi": 59,
      "hit": false,
      "t": 128814.56070833273,
      "d": 280.17220833332976,
      "v": 92
    },
    {
      "midi": 59,
      "hit": false,
      "t": 129207.87938541608,
      "d": 193.96537499999977,
      "v": 103
    },
    {
      "midi": 66,
      "hit": false,
      "t": 129326.41378124942,
      "d": 102.37061458332755,
      "v": 92
    },
    {
      "midi": 63,
      "hit": false,
      "t": 129331.80170833274,
      "d": 70.04305208333244,
      "v": 70
    },
    {
      "midi": 63,
      "hit": false,
      "t": 129590.42220833275,
      "d": 474.137583333315,
      "v": 92
    },
    {
      "midi": 66,
      "hit": false,
      "t": 129595.81013541608,
      "d": 495.68929166665475,
      "v": 80
    },
    {
      "midi": 59,
      "hit": false,
      "t": 129601.1980624994,
      "d": 323.27562499999476,
      "v": 109
    },
    {
      "midi": 59,
      "hit": false,
      "t": 130102.2752812494,
      "d": 156.24988541666244,
      "v": 98
    },
    {
      "midi": 63,
      "hit": false,
      "t": 130113.05113541607,
      "d": 70.04305208333244,
      "v": 20
    },
    {
      "midi": 67,
      "hit": false,
      "t": 130355.50785416606,
      "d": 371.7669687499874,
      "v": 98
    },
    {
      "midi": 59,
      "hit": false,
      "t": 130366.28370833273,
      "d": 355.6031874999899,
      "v": 92
    },
    {
      "midi": 64,
      "hit": false,
      "t": 130371.67163541606,
      "d": 360.99111458331754,
      "v": 72
    },
    {
      "midi": 59,
      "hit": false,
      "t": 130856.58507291604,
      "d": 264.0084270833322,
      "v": 92
    },
    {
      "midi": 67,
      "hit": false,
      "t": 130861.97299999937,
      "d": 377.15489583332965,
      "v": 103
    },
    {
      "midi": 64,
      "hit": false,
      "t": 130872.74885416604,
      "d": 425.6462395833223,
      "v": 80
    },
    {
      "midi": 59,
      "hit": false,
      "t": 131266.06753124937,
      "d": 183.18952083331533,
      "v": 98
    },
    {
      "midi": 67,
      "hit": false,
      "t": 131389.98985416602,
      "d": 96.98268750001444,
      "v": 115
    },
    {
      "midi": 64,
      "hit": false,
      "t": 131395.37778124935,
      "d": 75.43097916667466,
      "v": 80
    },
    {
      "midi": 59,
      "hit": false,
      "t": 131627.0586458327,
      "d": 420.25831249999464,
      "v": 98
    },
    {
      "midi": 64,
      "hit": false,
      "t": 131637.83449999936,
      "d": 581.8961249999993,
      "v": 80
    },
    {
      "midi": 67,
      "hit": false,
      "t": 131643.22242708268,
      "d": 490.30136458334164,
      "v": 80
    },
    {
      "midi": 59,
      "hit": false,
      "t": 132165.85135416602,
      "d": 118.5343958333251,
      "v": 86
    },
    {
      "midi": 59,
      "hit": false,
      "t": 132402.92014583267,
      "d": 377.1548958333151,
      "v": 74
    },
    {
      "midi": 67,
      "hit": false,
      "t": 132413.69599999933,
      "d": 366.37904166665976,
      "v": 103
    },
    {
      "midi": 64,
      "hit": false,
      "t": 132419.08392708265,
      "d": 366.37904166665976,
      "v": 86
    },
    {
      "midi": 59,
      "hit": false,
      "t": 132920.16114583265,
      "d": 274.784281249973,
      "v": 98
    },
    {
      "midi": 67,
      "hit": false,
      "t": 132930.9369999993,
      "d": 404.09453124998254,
      "v": 109
    },
    {
      "midi": 64,
      "hit": false,
      "t": 132936.32492708263,
      "d": 420.25831249999464,
      "v": 86
    },
    {
      "midi": 59,
      "hit": false,
      "t": 133324.25567708263,
      "d": 199.35330208332743,
      "v": 86
    },
    {
      "midi": 64,
      "hit": false,
      "t": 133453.56592708264,
      "d": 96.98268749998533,
      "v": 86
    },
    {
      "midi": 67,
      "hit": false,
      "t": 133458.95385416597,
      "d": 96.98268749998533,
      "v": 109
    },
    {
      "midi": 59,
      "hit": false,
      "t": 133712.18642708263,
      "d": 328.6635520833079,
      "v": 108
    },
    {
      "midi": 67,
      "hit": false,
      "t": 133722.9622812493,
      "d": 560.3444166666595,
      "v": 109
    },
    {
      "midi": 64,
      "hit": false,
      "t": 133728.35020833262,
      "d": 560.3444166666595,
      "v": 86
    },
    {
      "midi": 59,
      "hit": false,
      "t": 134224.0394999993,
      "d": 123.92232291665277,
      "v": 86
    },
    {
      "midi": 63,
      "hit": false,
      "t": 134488.0479270826,
      "d": 393.3186770832981,
      "v": 72
    },
    {
      "midi": 66,
      "hit": false,
      "t": 134493.43585416593,
      "d": 398.70660416662577,
      "v": 68
    },
    {
      "midi": 59,
      "hit": false,
      "t": 134504.2117083326,
      "d": 366.37904166665976,
      "v": 86
    },
    {
      "midi": 59,
      "hit": false,
      "t": 134994.5130729159,
      "d": 301.72391666664043,
      "v": 98
    },
    {
      "midi": 63,
      "hit": false,
      "t": 134999.90099999923,
      "d": 360.991114583303,
      "v": 86
    },
    {
      "midi": 66,
      "hit": false,
      "t": 135010.67685416588,
      "d": 377.1548958333151,
      "v": 74
    },
    {
      "midi": 59,
      "hit": false,
      "t": 135414.77138541586,
      "d": 226.29293749999488,
      "v": 92
    },
    {
      "midi": 63,
      "hit": false,
      "t": 135538.69370833252,
      "d": 86.20683333333,
      "v": 68
    },
    {
      "midi": 66,
      "hit": false,
      "t": 135544.08163541585,
      "d": 75.43097916667466,
      "v": 72
    },
    {
      "midi": 59,
      "hit": false,
      "t": 135775.7624999992,
      "d": 183.18952083331533,
      "v": 98
    },
    {
      "midi": 63,
      "hit": false,
      "t": 135781.15042708252,
      "d": 366.37904166665976,
      "v": 92
    },
    {
      "midi": 66,
      "hit": false,
      "t": 135786.53835416585,
      "d": 377.1548958333442,
      "v": 86
    },
    {
      "midi": 59,
      "hit": false,
      "t": 136282.22764583252,
      "d": 269.3963541666453,
      "v": 109
    },
    {
      "midi": 63,
      "hit": false,
      "t": 136287.61557291585,
      "d": 264.00842708331766,
      "v": 92
    },
    {
      "midi": 66,
      "hit": false,
      "t": 136298.3914270825,
      "d": 253.23257291666232,
      "v": 86
    },
    {
      "midi": 67,
      "hit": false,
      "t": 136551.62399999917,
      "d": 447.197947916633,
      "v": 71
    },
    {
      "midi": 57,
      "hit": false,
      "t": 136557.0119270825,
      "d": 436.42209374997765,
      "v": 108
    },
    {
      "midi": 60,
      "hit": false,
      "t": 136562.39985416582,
      "d": 441.8100208333053,
      "v": 102
    },
    {
      "midi": 64,
      "hit": false,
      "t": 136567.78778124915,
      "d": 431.03416666665,
      "v": 80
    },
    {
      "midi": 60,
      "hit": false,
      "t": 137068.86499999912,
      "d": 441.8100208333053,
      "v": 91
    },
    {
      "midi": 67,
      "hit": false,
      "t": 137068.86499999912,
      "d": 463.3617291666451,
      "v": 79
    },
    {
      "midi": 64,
      "hit": false,
      "t": 137079.64085416577,
      "d": 404.09453124998254,
      "v": 77
    },
    {
      "midi": 57,
      "hit": false,
      "t": 137085.0287812491,
      "d": 420.25831249999464,
      "v": 102
    },
    {
      "midi": 67,
      "hit": false,
      "t": 137591.49392708243,
      "d": 91.59476041665766,
      "v": 51
    },
    {
      "midi": 57,
      "hit": false,
      "t": 137591.49392708243,
      "d": 167.02573958333232,
      "v": 91
    },
    {
      "midi": 60,
      "hit": false,
      "t": 137596.88185416575,
      "d": 161.63781250000466,
      "v": 85
    },
    {
      "midi": 64,
      "hit": false,
      "t": 137607.6577083324,
      "d": 145.47403125002165,
      "v": 74
    },
    {
      "midi": 62,
      "hit": false,
      "t": 137860.8902812491,
      "d": 414.870385416667,
      "v": 91
    },
    {
      "midi": 67,
      "hit": false,
      "t": 137866.27820833243,
      "d": 409.4824583333393,
      "v": 102
    },
    {
      "midi": 55,
      "hit": false,
      "t": 137871.66613541575,
      "d": 382.54282291667187,
      "v": 102
    },
    {
      "midi": 59,
      "hit": false,
      "t": 137877.05406249908,
      "d": 350.21526041667676,
      "v": 102
    },
    {
      "midi": 62,
      "hit": false,
      "t": 138361.9674999991,
      "d": 754.3097916666593,
      "v": 55
    },
    {
      "midi": 54,
      "hit": false,
      "t": 138372.74335416575,
      "d": 721.9822291666642,
      "v": 97
    },
    {
      "midi": 57,
      "hit": false,
      "t": 138378.13128124908,
      "d": 738.1460104166763,
      "v": 102
    },
    {
      "midi": 66,
      "hit": false,
      "t": 138383.5192083324,
      "d": 1767.2400833333668,
      "v": 70
    },
    {
      "midi": 74,
      "hit": false,
      "t": 139137.8289999991,
      "d": 624.999541666708,
      "v": 68
    },
    {
      "midi": 54,
      "hit": false,
      "t": 139153.9927812491,
      "d": 721.9822291666933,
      "v": 73
    },
    {
      "midi": 57,
      "hit": false,
      "t": 139159.38070833244,
      "d": 463.3617291666742,
      "v": 79
    },
    {
      "midi": 62,
      "hit": false,
      "t": 139164.76863541576,
      "d": 382.54282291667187,
      "v": 51
    },
    {
      "midi": 57,
      "hit": false,
      "t": 139644.29414583245,
      "d": 220.9050104166963,
      "v": 27
    },
    {
      "midi": 62,
      "hit": false,
      "t": 139687.39756249913,
      "d": 118.53439583335421,
      "v": 57
    },
    {
      "midi": 57,
      "hit": false,
      "t": 139913.69049999912,
      "d": 528.0168541666353,
      "v": 85
    },
    {
      "midi": 54,
      "hit": false,
      "t": 139919.07842708245,
      "d": 511.8530729166523,
      "v": 55
    },
    {
      "midi": 74,
      "hit": false,
      "t": 139924.46635416578,
      "d": 506.46514583332464,
      "v": 64
    },
    {
      "midi": 62,
      "hit": false,
      "t": 139929.8542812491,
      "d": 571.1202708333149,
      "v": 108
    },
    {
      "midi": 67,
      "hit": false,
      "t": 140689.5519999991,
      "d": 447.197947916633,
      "v": 71
    },
    {
      "midi": 57,
      "hit": false,
      "t": 140694.93992708242,
      "d": 436.42209374997765,
      "v": 108
    },
    {
      "midi": 60,
      "hit": false,
      "t": 140700.32785416575,
      "d": 441.8100208333053,
      "v": 102
    },
    {
      "midi": 64,
      "hit": false,
      "t": 140705.71578124908,
      "d": 431.03416666665,
      "v": 80
    },
    {
      "midi": 60,
      "hit": false,
      "t": 141206.79299999904,
      "d": 441.8100208333053,
      "v": 91
    },
    {
      "midi": 67,
      "hit": false,
      "t": 141206.79299999904,
      "d": 463.3617291666451,
      "v": 79
    },
    {
      "midi": 64,
      "hit": false,
      "t": 141217.5688541657,
      "d": 404.09453124998254,
      "v": 77
    },
    {
      "midi": 57,
      "hit": false,
      "t": 141222.95678124903,
      "d": 420.25831249999464,
      "v": 102
    },
    {
      "midi": 67,
      "hit": false,
      "t": 141729.42192708235,
      "d": 91.59476041665766,
      "v": 51
    },
    {
      "midi": 57,
      "hit": false,
      "t": 141729.42192708235,
      "d": 167.02573958333232,
      "v": 91
    },
    {
      "midi": 60,
      "hit": false,
      "t": 141734.80985416568,
      "d": 161.63781250000466,
      "v": 85
    },
    {
      "midi": 64,
      "hit": false,
      "t": 141745.58570833234,
      "d": 145.47403125002165,
      "v": 74
    },
    {
      "midi": 62,
      "hit": false,
      "t": 141998.81828124903,
      "d": 414.870385416667,
      "v": 91
    },
    {
      "midi": 67,
      "hit": false,
      "t": 142004.20620833235,
      "d": 409.4824583333393,
      "v": 102
    },
    {
      "midi": 55,
      "hit": false,
      "t": 142009.59413541568,
      "d": 382.54282291667187,
      "v": 102
    },
    {
      "midi": 59,
      "hit": false,
      "t": 142014.982062499,
      "d": 350.21526041667676,
      "v": 102
    },
    {
      "midi": 62,
      "hit": false,
      "t": 142499.89549999902,
      "d": 754.3097916666593,
      "v": 55
    },
    {
      "midi": 54,
      "hit": false,
      "t": 142510.67135416568,
      "d": 721.9822291666642,
      "v": 97
    },
    {
      "midi": 57,
      "hit": false,
      "t": 142516.059281249,
      "d": 738.1460104166763,
      "v": 102
    },
    {
      "midi": 66,
      "hit": false,
      "t": 142521.44720833233,
      "d": 1767.2400833333668,
      "v": 70
    },
    {
      "midi": 74,
      "hit": false,
      "t": 143275.75699999902,
      "d": 624.999541666708,
      "v": 68
    },
    {
      "midi": 54,
      "hit": false,
      "t": 143291.92078124903,
      "d": 721.9822291666933,
      "v": 73
    },
    {
      "midi": 57,
      "hit": false,
      "t": 143297.30870833236,
      "d": 463.3617291666742,
      "v": 79
    },
    {
      "midi": 62,
      "hit": false,
      "t": 143302.6966354157,
      "d": 382.54282291667187,
      "v": 51
    },
    {
      "midi": 57,
      "hit": false,
      "t": 143782.22214583238,
      "d": 220.9050104166963,
      "v": 27
    },
    {
      "midi": 62,
      "hit": false,
      "t": 143825.32556249906,
      "d": 118.53439583335421,
      "v": 57
    },
    {
      "midi": 57,
      "hit": false,
      "t": 144051.61849999905,
      "d": 528.0168541666353,
      "v": 85
    },
    {
      "midi": 54,
      "hit": false,
      "t": 144057.00642708238,
      "d": 511.8530729166523,
      "v": 55
    },
    {
      "midi": 74,
      "hit": false,
      "t": 144062.3943541657,
      "d": 506.46514583332464,
      "v": 64
    },
    {
      "midi": 62,
      "hit": false,
      "t": 144067.78228124903,
      "d": 571.1202708333149,
      "v": 108
    },
    {
      "midi": 67,
      "hit": false,
      "t": 144827.47999999902,
      "d": 447.197947916633,
      "v": 71
    },
    {
      "midi": 57,
      "hit": false,
      "t": 144832.86792708235,
      "d": 436.42209374997765,
      "v": 108
    },
    {
      "midi": 60,
      "hit": false,
      "t": 144838.25585416568,
      "d": 441.8100208333053,
      "v": 102
    },
    {
      "midi": 64,
      "hit": false,
      "t": 144843.643781249,
      "d": 431.03416666665,
      "v": 80
    },
    {
      "midi": 60,
      "hit": false,
      "t": 145344.72099999897,
      "d": 441.8100208333053,
      "v": 91
    },
    {
      "midi": 67,
      "hit": false,
      "t": 145344.72099999897,
      "d": 463.3617291666451,
      "v": 79
    },
    {
      "midi": 64,
      "hit": false,
      "t": 145355.49685416563,
      "d": 404.09453124998254,
      "v": 77
    },
    {
      "midi": 57,
      "hit": false,
      "t": 145360.88478124895,
      "d": 420.25831249999464,
      "v": 102
    },
    {
      "midi": 67,
      "hit": false,
      "t": 145867.34992708228,
      "d": 91.59476041665766,
      "v": 51
    },
    {
      "midi": 57,
      "hit": false,
      "t": 145867.34992708228,
      "d": 167.02573958333232,
      "v": 91
    },
    {
      "midi": 60,
      "hit": false,
      "t": 145872.7378541656,
      "d": 161.63781250000466,
      "v": 85
    },
    {
      "midi": 64,
      "hit": false,
      "t": 145883.51370833226,
      "d": 145.47403125002165,
      "v": 74
    },
    {
      "midi": 62,
      "hit": false,
      "t": 146136.74628124895,
      "d": 414.870385416667,
      "v": 91
    },
    {
      "midi": 67,
      "hit": false,
      "t": 146142.13420833228,
      "d": 409.4824583333393,
      "v": 102
    },
    {
      "midi": 55,
      "hit": false,
      "t": 146147.5221354156,
      "d": 382.54282291667187,
      "v": 102
    },
    {
      "midi": 59,
      "hit": false,
      "t": 146152.91006249894,
      "d": 350.21526041667676,
      "v": 102
    },
    {
      "midi": 62,
      "hit": false,
      "t": 146637.82349999895,
      "d": 754.3097916666593,
      "v": 55
    },
    {
      "midi": 54,
      "hit": false,
      "t": 146648.5993541656,
      "d": 721.9822291666642,
      "v": 97
    },
    {
      "midi": 57,
      "hit": false,
      "t": 146653.98728124893,
      "d": 738.1460104166763,
      "v": 102
    },
    {
      "midi": 66,
      "hit": false,
      "t": 146659.37520833226,
      "d": 1767.2400833333668,
      "v": 70
    },
    {
      "midi": 74,
      "hit": false,
      "t": 147413.68499999895,
      "d": 624.999541666708,
      "v": 68
    },
    {
      "midi": 54,
      "hit": false,
      "t": 147429.84878124896,
      "d": 721.9822291666933,
      "v": 73
    },
    {
      "midi": 57,
      "hit": false,
      "t": 147435.2367083323,
      "d": 463.3617291666742,
      "v": 79
    },
    {
      "midi": 62,
      "hit": false,
      "t": 147440.62463541562,
      "d": 382.54282291667187,
      "v": 51
    },
    {
      "midi": 57,
      "hit": false,
      "t": 147920.1501458323,
      "d": 220.9050104166963,
      "v": 27
    },
    {
      "midi": 62,
      "hit": false,
      "t": 147963.25356249898,
      "d": 118.53439583335421,
      "v": 57
    },
    {
      "midi": 57,
      "hit": false,
      "t": 148189.54649999898,
      "d": 528.0168541666353,
      "v": 85
    },
    {
      "midi": 54,
      "hit": false,
      "t": 148194.9344270823,
      "d": 511.8530729166523,
      "v": 55
    },
    {
      "midi": 74,
      "hit": false,
      "t": 148200.32235416563,
      "d": 506.46514583332464,
      "v": 64
    },
    {
      "midi": 62,
      "hit": false,
      "t": 148205.71028124896,
      "d": 571.1202708333149,
      "v": 108
    },
    {
      "midi": 67,
      "hit": false,
      "t": 148965.40799999895,
      "d": 447.197947916633,
      "v": 71
    },
    {
      "midi": 57,
      "hit": false,
      "t": 148970.79592708228,
      "d": 436.42209374997765,
      "v": 108
    },
    {
      "midi": 60,
      "hit": false,
      "t": 148976.1838541656,
      "d": 441.8100208333053,
      "v": 102
    },
    {
      "midi": 64,
      "hit": false,
      "t": 148981.57178124893,
      "d": 431.03416666665,
      "v": 80
    },
    {
      "midi": 60,
      "hit": false,
      "t": 149482.6489999989,
      "d": 441.8100208333053,
      "v": 91
    },
    {
      "midi": 67,
      "hit": false,
      "t": 149482.6489999989,
      "d": 463.3617291666451,
      "v": 79
    },
    {
      "midi": 64,
      "hit": false,
      "t": 149493.42485416555,
      "d": 404.09453124998254,
      "v": 77
    },
    {
      "midi": 57,
      "hit": false,
      "t": 149498.81278124888,
      "d": 420.25831249999464,
      "v": 102
    },
    {
      "midi": 67,
      "hit": false,
      "t": 150005.2779270822,
      "d": 91.59476041665766,
      "v": 51
    },
    {
      "midi": 57,
      "hit": false,
      "t": 150005.2779270822,
      "d": 167.02573958333232,
      "v": 91
    },
    {
      "midi": 60,
      "hit": false,
      "t": 150010.66585416553,
      "d": 161.63781250000466,
      "v": 85
    },
    {
      "midi": 64,
      "hit": false,
      "t": 150021.4417083322,
      "d": 145.47403125002165,
      "v": 74
    },
    {
      "midi": 62,
      "hit": false,
      "t": 150274.67428124888,
      "d": 414.870385416667,
      "v": 91
    },
    {
      "midi": 67,
      "hit": false,
      "t": 150280.0622083322,
      "d": 409.4824583333393,
      "v": 102
    },
    {
      "midi": 55,
      "hit": false,
      "t": 150285.45013541554,
      "d": 382.54282291667187,
      "v": 102
    },
    {
      "midi": 59,
      "hit": false,
      "t": 150290.83806249886,
      "d": 350.21526041667676,
      "v": 102
    },
    {
      "midi": 62,
      "hit": false,
      "t": 150775.75149999888,
      "d": 754.3097916666593,
      "v": 55
    },
    {
      "midi": 54,
      "hit": false,
      "t": 150786.52735416553,
      "d": 721.9822291666642,
      "v": 97
    },
    {
      "midi": 57,
      "hit": false,
      "t": 150791.91528124886,
      "d": 738.1460104166763,
      "v": 102
    },
    {
      "midi": 66,
      "hit": false,
      "t": 150797.3032083322,
      "d": 1767.2400833333668,
      "v": 70
    },
    {
      "midi": 74,
      "hit": false,
      "t": 151551.61299999888,
      "d": 624.999541666708,
      "v": 68
    },
    {
      "midi": 54,
      "hit": false,
      "t": 151567.7767812489,
      "d": 721.9822291666933,
      "v": 73
    },
    {
      "midi": 57,
      "hit": false,
      "t": 151573.16470833222,
      "d": 463.3617291666742,
      "v": 79
    },
    {
      "midi": 62,
      "hit": false,
      "t": 151578.55263541554,
      "d": 382.54282291667187,
      "v": 51
    },
    {
      "midi": 57,
      "hit": false,
      "t": 152058.07814583223,
      "d": 220.9050104166963,
      "v": 27
    },
    {
      "midi": 62,
      "hit": false,
      "t": 152101.1815624989,
      "d": 118.53439583335421,
      "v": 57
    },
    {
      "midi": 57,
      "hit": false,
      "t": 152327.4744999989,
      "d": 528.0168541666353,
      "v": 85
    },
    {
      "midi": 54,
      "hit": false,
      "t": 152332.86242708223,
      "d": 511.8530729166523,
      "v": 55
    },
    {
      "midi": 74,
      "hit": false,
      "t": 152338.25035416556,
      "d": 506.46514583332464,
      "v": 64
    },
    {
      "midi": 62,
      "hit": false,
      "t": 152343.6382812489,
      "d": 571.1202708333149,
      "v": 108
    },
    {
      "midi": 67,
      "hit": false,
      "t": 153103.33599999888,
      "d": 447.197947916633,
      "v": 71
    },
    {
      "midi": 57,
      "hit": false,
      "t": 153108.7239270822,
      "d": 436.42209374997765,
      "v": 108
    },
    {
      "midi": 60,
      "hit": false,
      "t": 153114.11185416553,
      "d": 441.8100208333053,
      "v": 102
    },
    {
      "midi": 64,
      "hit": false,
      "t": 153119.49978124886,
      "d": 431.03416666665,
      "v": 80
    },
    {
      "midi": 60,
      "hit": false,
      "t": 153620.57699999883,
      "d": 441.8100208333053,
      "v": 91
    },
    {
      "midi": 67,
      "hit": false,
      "t": 153620.57699999883,
      "d": 463.3617291666451,
      "v": 79
    },
    {
      "midi": 64,
      "hit": false,
      "t": 153631.35285416548,
      "d": 404.09453124998254,
      "v": 77
    },
    {
      "midi": 57,
      "hit": false,
      "t": 153636.7407812488,
      "d": 420.25831249999464,
      "v": 102
    },
    {
      "midi": 67,
      "hit": false,
      "t": 154143.20592708213,
      "d": 91.59476041665766,
      "v": 51
    },
    {
      "midi": 57,
      "hit": false,
      "t": 154143.20592708213,
      "d": 167.02573958333232,
      "v": 91
    },
    {
      "midi": 60,
      "hit": false,
      "t": 154148.59385416546,
      "d": 161.63781250000466,
      "v": 85
    },
    {
      "midi": 64,
      "hit": false,
      "t": 154159.36970833212,
      "d": 145.47403125002165,
      "v": 74
    },
    {
      "midi": 62,
      "hit": false,
      "t": 154412.6022812488,
      "d": 414.870385416667,
      "v": 91
    },
    {
      "midi": 67,
      "hit": false,
      "t": 154417.99020833214,
      "d": 409.4824583333393,
      "v": 102
    },
    {
      "midi": 55,
      "hit": false,
      "t": 154423.37813541546,
      "d": 382.54282291667187,
      "v": 102
    },
    {
      "midi": 59,
      "hit": false,
      "t": 154428.7660624988,
      "d": 350.21526041667676,
      "v": 102
    },
    {
      "midi": 62,
      "hit": false,
      "t": 154913.6794999988,
      "d": 754.3097916666593,
      "v": 55
    },
    {
      "midi": 54,
      "hit": false,
      "t": 154924.45535416546,
      "d": 721.9822291666642,
      "v": 97
    },
    {
      "midi": 57,
      "hit": false,
      "t": 154929.8432812488,
      "d": 738.1460104166763,
      "v": 102
    },
    {
      "midi": 66,
      "hit": false,
      "t": 154935.23120833212,
      "d": 1767.2400833333668,
      "v": 70
    },
    {
      "midi": 74,
      "hit": false,
      "t": 155689.5409999988,
      "d": 624.999541666708,
      "v": 68
    },
    {
      "midi": 54,
      "hit": false,
      "t": 155705.70478124882,
      "d": 721.9822291666933,
      "v": 73
    },
    {
      "midi": 57,
      "hit": false,
      "t": 155711.09270833214,
      "d": 463.3617291666742,
      "v": 79
    },
    {
      "midi": 62,
      "hit": false,
      "t": 155716.48063541547,
      "d": 382.54282291667187,
      "v": 51
    },
    {
      "midi": 57,
      "hit": false,
      "t": 156196.00614583216,
      "d": 220.9050104166963,
      "v": 27
    },
    {
      "midi": 62,
      "hit": false,
      "t": 156239.10956249884,
      "d": 118.53439583335421,
      "v": 57
    },
    {
      "midi": 57,
      "hit": false,
      "t": 156465.40249999883,
      "d": 528.0168541666353,
      "v": 85
    },
    {
      "midi": 54,
      "hit": false,
      "t": 156470.79042708216,
      "d": 511.8530729166523,
      "v": 55
    },
    {
      "midi": 74,
      "hit": false,
      "t": 156476.1783541655,
      "d": 506.46514583332464,
      "v": 64
    },
    {
      "midi": 62,
      "hit": false,
      "t": 156481.56628124882,
      "d": 571.1202708333149,
      "v": 108
    },
    {
      "midi": 62,
      "hit": false,
      "t": 157241.2639999988,
      "d": 1966.5933854166651,
      "v": 109
    },
    {
      "midi": 71,
      "hit": false,
      "t": 157241.2639999988,
      "d": 1966.5933854166651,
      "v": 98
    },
    {
      "midi": 67,
      "hit": false,
      "t": 157252.03985416546,
      "d": 1971.9813125000219,
      "v": 115
    },
    {
      "midi": 67,
      "hit": false,
      "t": 159310.2279999988,
      "d": 1610.9901979166607,
      "v": 104
    },
    {
      "midi": 71,
      "hit": false,
      "t": 159315.61592708214,
      "d": 1713.3608125000028,
      "v": 92
    },
    {
      "midi": 62,
      "hit": false,
      "t": 159326.3917812488,
      "d": 1616.3781250000175,
      "v": 116
    },
    {
      "midi": 66,
      "hit": false,
      "t": 161373.80407291546,
      "d": 172.41366666666,
      "v": 98
    },
    {
      "midi": 71,
      "hit": false,
      "t": 161379.1919999988,
      "d": 1874.9986250000075,
      "v": 109
    },
    {
      "midi": 63,
      "hit": false,
      "t": 161389.96785416544,
      "d": 1945.0416770833544,
      "v": 104
    },
    {
      "midi": 66,
      "hit": false,
      "t": 163421.21636458213,
      "d": 1530.1712916666584,
      "v": 56
    },
    {
      "midi": 63,
      "hit": false,
      "t": 163431.99221874878,
      "d": 1514.0075104166754,
      "v": 74
    },
    {
      "midi": 69,
      "hit": false,
      "t": 163442.76807291544,
      "d": 1449.3523854166851,
      "v": 98
    },
    {
      "midi": 72,
      "hit": false,
      "t": 163458.93185416545,
      "d": 1454.7403125000128,
      "v": 127
    },
    {
      "midi": 59,
      "hit": false,
      "t": 167596.85985416546,
      "d": 409.4824583333102,
      "v": 103
    },
    {
      "midi": 63,
      "hit": false,
      "t": 167602.2477812488,
      "d": 409.4824583333102,
      "v": 80
    },
    {
      "midi": 66,
      "hit": false,
      "t": 167607.63570833212,
      "d": 404.09453124998254,
      "v": 72
    },
    {
      "midi": 63,
      "hit": false,
      "t": 168108.71292708212,
      "d": 360.991114583303,
      "v": 74
    },
    {
      "midi": 66,
      "hit": false,
      "t": 168114.10085416544,
      "d": 377.1548958333151,
      "v": 72
    },
    {
      "midi": 59,
      "hit": false,
      "t": 168124.8767083321,
      "d": 280.17220833332976,
      "v": 92
    },
    {
      "midi": 59,
      "hit": false,
      "t": 168518.19538541543,
      "d": 193.96537499999977,
      "v": 103
    },
    {
      "midi": 66,
      "hit": false,
      "t": 168636.72978124875,
      "d": 102.3706145833421,
      "v": 92
    },
    {
      "midi": 63,
      "hit": false,
      "t": 168642.11770833208,
      "d": 70.04305208334699,
      "v": 70
    },
    {
      "midi": 63,
      "hit": false,
      "t": 168900.7382083321,
      "d": 474.13758333332953,
      "v": 92
    },
    {
      "midi": 66,
      "hit": false,
      "t": 168906.12613541543,
      "d": 495.6892916666693,
      "v": 80
    },
    {
      "midi": 59,
      "hit": false,
      "t": 168911.51406249875,
      "d": 323.2756250000093,
      "v": 109
    },
    {
      "midi": 59,
      "hit": false,
      "t": 169412.59128124875,
      "d": 156.249885416677,
      "v": 98
    },
    {
      "midi": 63,
      "hit": false,
      "t": 169423.3671354154,
      "d": 70.04305208334699,
      "v": 20
    },
    {
      "midi": 67,
      "hit": false,
      "t": 169665.82385416544,
      "d": 371.7669687499874,
      "v": 98
    },
    {
      "midi": 59,
      "hit": false,
      "t": 169676.5997083321,
      "d": 355.6031875000044,
      "v": 92
    },
    {
      "midi": 64,
      "hit": false,
      "t": 169681.98763541543,
      "d": 360.9911145833321,
      "v": 72
    },
    {
      "midi": 59,
      "hit": false,
      "t": 170166.9010729154,
      "d": 264.00842708331766,
      "v": 92
    },
    {
      "midi": 67,
      "hit": false,
      "t": 170172.28899999874,
      "d": 377.1548958333151,
      "v": 103
    },
    {
      "midi": 64,
      "hit": false,
      "t": 170183.0648541654,
      "d": 425.6462395833223,
      "v": 80
    },
    {
      "midi": 59,
      "hit": false,
      "t": 170576.38353124872,
      "d": 183.18952083331533,
      "v": 98
    },
    {
      "midi": 67,
      "hit": false,
      "t": 170700.30585416537,
      "d": 96.98268750001444,
      "v": 115
    },
    {
      "midi": 64,
      "hit": false,
      "t": 170705.6937812487,
      "d": 75.43097916667466,
      "v": 80
    },
    {
      "midi": 59,
      "hit": false,
      "t": 170937.37464583205,
      "d": 420.25831249999464,
      "v": 98
    },
    {
      "midi": 64,
      "hit": false,
      "t": 170948.1504999987,
      "d": 581.8961249999993,
      "v": 80
    },
    {
      "midi": 67,
      "hit": false,
      "t": 170953.53842708204,
      "d": 490.30136458334164,
      "v": 80
    },
    {
      "midi": 59,
      "hit": false,
      "t": 171476.16735416537,
      "d": 118.5343958333251,
      "v": 86
    },
    {
      "midi": 59,
      "hit": false,
      "t": 171713.23614583202,
      "d": 377.1548958333151,
      "v": 74
    },
    {
      "midi": 67,
      "hit": false,
      "t": 171724.01199999868,
      "d": 366.37904166665976,
      "v": 103
    },
    {
      "midi": 64,
      "hit": false,
      "t": 171729.399927082,
      "d": 366.37904166665976,
      "v": 86
    },
    {
      "midi": 59,
      "hit": false,
      "t": 172230.477145832,
      "d": 274.784281249973,
      "v": 98
    },
    {
      "midi": 67,
      "hit": false,
      "t": 172241.25299999866,
      "d": 404.09453124998254,
      "v": 109
    },
    {
      "midi": 64,
      "hit": false,
      "t": 172246.640927082,
      "d": 420.25831249999464,
      "v": 86
    },
    {
      "midi": 59,
      "hit": false,
      "t": 172634.57167708199,
      "d": 199.35330208332743,
      "v": 86
    },
    {
      "midi": 64,
      "hit": false,
      "t": 172763.881927082,
      "d": 96.98268749998533,
      "v": 86
    },
    {
      "midi": 67,
      "hit": false,
      "t": 172769.26985416532,
      "d": 96.98268749998533,
      "v": 109
    },
    {
      "midi": 59,
      "hit": false,
      "t": 173022.50242708198,
      "d": 328.6635520833079,
      "v": 108
    },
    {
      "midi": 67,
      "hit": false,
      "t": 173033.27828124864,
      "d": 560.3444166666595,
      "v": 109
    },
    {
      "midi": 64,
      "hit": false,
      "t": 173038.66620833197,
      "d": 560.3444166666595,
      "v": 86
    },
    {
      "midi": 59,
      "hit": false,
      "t": 173534.35549999864,
      "d": 123.92232291665277,
      "v": 86
    },
    {
      "midi": 63,
      "hit": false,
      "t": 173798.36392708195,
      "d": 393.3186770832981,
      "v": 72
    },
    {
      "midi": 66,
      "hit": false,
      "t": 173803.75185416528,
      "d": 398.70660416662577,
      "v": 68
    },
    {
      "midi": 59,
      "hit": false,
      "t": 173814.52770833194,
      "d": 366.37904166665976,
      "v": 86
    },
    {
      "midi": 59,
      "hit": false,
      "t": 174304.82907291525,
      "d": 301.72391666664043,
      "v": 98
    },
    {
      "midi": 63,
      "hit": false,
      "t": 174310.21699999858,
      "d": 360.991114583303,
      "v": 86
    },
    {
      "midi": 66,
      "hit": false,
      "t": 174320.99285416523,
      "d": 377.1548958333151,
      "v": 74
    },
    {
      "midi": 59,
      "hit": false,
      "t": 174725.08738541522,
      "d": 226.29293749999488,
      "v": 92
    },
    {
      "midi": 63,
      "hit": false,
      "t": 174849.00970833187,
      "d": 86.20683333333,
      "v": 68
    },
    {
      "midi": 66,
      "hit": false,
      "t": 174854.3976354152,
      "d": 75.43097916667466,
      "v": 72
    },
    {
      "midi": 59,
      "hit": false,
      "t": 175086.07849999855,
      "d": 183.18952083331533,
      "v": 98
    },
    {
      "midi": 63,
      "hit": false,
      "t": 175091.46642708188,
      "d": 366.37904166665976,
      "v": 92
    },
    {
      "midi": 66,
      "hit": false,
      "t": 175096.8543541652,
      "d": 377.1548958333442,
      "v": 86
    },
    {
      "midi": 59,
      "hit": false,
      "t": 175592.54364583187,
      "d": 269.3963541666453,
      "v": 109
    },
    {
      "midi": 63,
      "hit": false,
      "t": 175597.9315729152,
      "d": 264.00842708331766,
      "v": 92
    },
    {
      "midi": 66,
      "hit": false,
      "t": 175608.70742708186,
      "d": 253.23257291666232,
      "v": 86
    },
    {
      "midi": 59,
      "hit": false,
      "t": 175872.71585416517,
      "d": 409.4824583333102,
      "v": 103
    },
    {
      "midi": 63,
      "hit": false,
      "t": 175878.1037812485,
      "d": 409.4824583333102,
      "v": 80
    },
    {
      "midi": 66,
      "hit": false,
      "t": 175883.49170833183,
      "d": 404.09453124998254,
      "v": 72
    },
    {
      "midi": 63,
      "hit": false,
      "t": 176384.56892708183,
      "d": 360.991114583303,
      "v": 74
    },
    {
      "midi": 66,
      "hit": false,
      "t": 176389.95685416515,
      "d": 377.1548958333151,
      "v": 72
    },
    {
      "midi": 59,
      "hit": false,
      "t": 176400.7327083318,
      "d": 280.17220833332976,
      "v": 92
    },
    {
      "midi": 59,
      "hit": false,
      "t": 176794.05138541514,
      "d": 193.96537499999977,
      "v": 103
    },
    {
      "midi": 66,
      "hit": false,
      "t": 176912.58578124846,
      "d": 102.3706145833421,
      "v": 92
    },
    {
      "midi": 63,
      "hit": false,
      "t": 176917.9737083318,
      "d": 70.04305208334699,
      "v": 70
    },
    {
      "midi": 63,
      "hit": false,
      "t": 177176.5942083318,
      "d": 474.13758333332953,
      "v": 92
    },
    {
      "midi": 66,
      "hit": false,
      "t": 177181.98213541514,
      "d": 495.6892916666693,
      "v": 80
    },
    {
      "midi": 59,
      "hit": false,
      "t": 177187.37006249846,
      "d": 323.2756250000093,
      "v": 109
    },
    {
      "midi": 59,
      "hit": false,
      "t": 177688.44728124846,
      "d": 156.249885416677,
      "v": 98
    },
    {
      "midi": 63,
      "hit": false,
      "t": 177699.22313541512,
      "d": 70.04305208334699,
      "v": 20
    },
    {
      "midi": 67,
      "hit": false,
      "t": 177941.67985416515,
      "d": 371.7669687499874,
      "v": 98
    },
    {
      "midi": 59,
      "hit": false,
      "t": 177952.4557083318,
      "d": 355.6031875000044,
      "v": 92
    },
    {
      "midi": 64,
      "hit": false,
      "t": 177957.84363541513,
      "d": 360.9911145833321,
      "v": 72
    },
    {
      "midi": 59,
      "hit": false,
      "t": 178442.75707291512,
      "d": 264.00842708331766,
      "v": 92
    },
    {
      "midi": 67,
      "hit": false,
      "t": 178448.14499999845,
      "d": 377.1548958333151,
      "v": 103
    },
    {
      "midi": 64,
      "hit": false,
      "t": 178458.9208541651,
      "d": 425.6462395833223,
      "v": 80
    },
    {
      "midi": 59,
      "hit": false,
      "t": 178852.23953124843,
      "d": 183.18952083331533,
      "v": 98
    },
    {
      "midi": 67,
      "hit": false,
      "t": 178976.16185416508,
      "d": 96.98268750001444,
      "v": 115
    },
    {
      "midi": 64,
      "hit": false,
      "t": 178981.5497812484,
      "d": 75.43097916667466,
      "v": 80
    },
    {
      "midi": 59,
      "hit": false,
      "t": 179213.23064583176,
      "d": 420.25831249999464,
      "v": 98
    },
    {
      "midi": 64,
      "hit": false,
      "t": 179224.00649999842,
      "d": 581.8961249999993,
      "v": 80
    },
    {
      "midi": 67,
      "hit": false,
      "t": 179229.39442708174,
      "d": 490.30136458334164,
      "v": 80
    },
    {
      "midi": 59,
      "hit": false,
      "t": 179752.02335416508,
      "d": 118.5343958333251,
      "v": 86
    },
    {
      "midi": 59,
      "hit": false,
      "t": 179989.09214583173,
      "d": 377.1548958333151,
      "v": 74
    },
    {
      "midi": 67,
      "hit": false,
      "t": 179999.8679999984,
      "d": 366.37904166665976,
      "v": 103
    },
    {
      "midi": 64,
      "hit": false,
      "t": 180005.25592708171,
      "d": 366.37904166665976,
      "v": 86
    },
    {
      "midi": 59,
      "hit": false,
      "t": 180506.3331458317,
      "d": 274.784281249973,
      "v": 98
    },
    {
      "midi": 67,
      "hit": false,
      "t": 180517.10899999837,
      "d": 404.09453124998254,
      "v": 109
    },
    {
      "midi": 64,
      "hit": false,
      "t": 180522.4969270817,
      "d": 420.25831249999464,
      "v": 86
    },
    {
      "midi": 59,
      "hit": false,
      "t": 180910.4276770817,
      "d": 199.35330208332743,
      "v": 86
    },
    {
      "midi": 64,
      "hit": false,
      "t": 181039.7379270817,
      "d": 96.98268749998533,
      "v": 86
    },
    {
      "midi": 67,
      "hit": false,
      "t": 181045.12585416503,
      "d": 96.98268749998533,
      "v": 109
    },
    {
      "midi": 59,
      "hit": false,
      "t": 181298.3584270817,
      "d": 328.6635520833079,
      "v": 108
    },
    {
      "midi": 67,
      "hit": false,
      "t": 181309.13428124835,
      "d": 560.3444166666595,
      "v": 109
    },
    {
      "midi": 64,
      "hit": false,
      "t": 181314.52220833168,
      "d": 560.3444166666595,
      "v": 86
    },
    {
      "midi": 59,
      "hit": false,
      "t": 181810.21149999835,
      "d": 123.92232291665277,
      "v": 86
    },
    {
      "midi": 63,
      "hit": false,
      "t": 182074.21992708166,
      "d": 393.3186770832981,
      "v": 72
    },
    {
      "midi": 66,
      "hit": false,
      "t": 182079.607854165,
      "d": 398.70660416662577,
      "v": 68
    },
    {
      "midi": 59,
      "hit": false,
      "t": 182090.38370833165,
      "d": 366.37904166665976,
      "v": 86
    },
    {
      "midi": 59,
      "hit": false,
      "t": 182580.68507291496,
      "d": 301.72391666664043,
      "v": 98
    },
    {
      "midi": 63,
      "hit": false,
      "t": 182586.0729999983,
      "d": 360.991114583303,
      "v": 86
    },
    {
      "midi": 66,
      "hit": false,
      "t": 182596.84885416494,
      "d": 377.1548958333151,
      "v": 74
    },
    {
      "midi": 59,
      "hit": false,
      "t": 183000.94338541492,
      "d": 226.29293749999488,
      "v": 92
    },
    {
      "midi": 63,
      "hit": false,
      "t": 183124.86570833158,
      "d": 86.20683333333,
      "v": 68
    },
    {
      "midi": 66,
      "hit": false,
      "t": 183130.2536354149,
      "d": 75.43097916667466,
      "v": 72
    },
    {
      "midi": 59,
      "hit": false,
      "t": 183361.93449999826,
      "d": 183.18952083331533,
      "v": 98
    },
    {
      "midi": 63,
      "hit": false,
      "t": 183367.32242708158,
      "d": 366.37904166665976,
      "v": 92
    },
    {
      "midi": 66,
      "hit": false,
      "t": 183372.7103541649,
      "d": 377.1548958333442,
      "v": 86
    },
    {
      "midi": 59,
      "hit": false,
      "t": 183868.39964583158,
      "d": 269.3963541666453,
      "v": 109
    },
    {
      "midi": 63,
      "hit": false,
      "t": 183873.7875729149,
      "d": 264.00842708331766,
      "v": 92
    },
    {
      "midi": 66,
      "hit": false,
      "t": 183884.56342708156,
      "d": 253.23257291666232,
      "v": 86
    },
    {
      "midi": 52,
      "hit": false,
      "t": 184137.79599999823,
      "d": 2586.204999999987,
      "v": 72
    },
    {
      "midi": 55,
      "hit": false,
      "t": 184137.79599999823,
      "d": 2586.204999999987,
      "v": 92
    },
    {
      "midi": 59,
      "hit": false,
      "t": 184137.79599999823,
      "d": 2586.204999999987,
      "v": 64
    },
    {
      "midi": 64,
      "hit": false,
      "t": 184137.79599999823,
      "d": 2586.204999999987,
      "v": 70
    },
    {
      "midi": 67,
      "hit": false,
      "t": 184137.79599999823,
      "d": 2586.204999999987,
      "v": 92
    },
    {
      "midi": 71,
      "hit": false,
      "t": 184137.79599999823,
      "d": 2586.204999999987,
      "v": 86
    }
  ]
}