{
  "jsonPath": "Classical/Classical/Camille Saint-Saëns/karneval-der-tiere-intruduction-et-marche-royal-de-lion-intruduction-and-royal-march-of-the-lion.json",
  "path": "Classical\\Classical\\Camille Saint-Saëns\\Karneval der Tiere - Intruduction et marche royal de lion  Intruduction And Royal March Of The Lion.mid",
  "name": "Karneval der Tiere - Intruduction et marche royal de lion  Intruduction And Royal March Of The Lion",
  "difficulty": "Advanced",
  "bpm": 100,
  "notes": [
    {
      "midi": 67,
      "hit": false,
      "t": 2400,
      "d": 85,
      "v": 45
    },
    {
      "midi": 74,
      "hit": false,
      "t": 2400,
      "d": 85,
      "v": 45
    },
    {
      "midi": 79,
      "hit": false,
      "t": 2420,
      "d": 55,
      "v": 45
    },
    {
      "midi": 81,
      "hit": false,
      "t": 2465,
      "d": 105,
      "v": 45
    },
    {
      "midi": 86,
      "hit": false,
      "t": 2495,
      "d": 70,
      "v": 45
    },
    {
      "midi": 93,
      "hit": false,
      "t": 2495,
      "d": 75,
      "v": 45
    },
    {
      "midi": 67,
      "hit": false,
      "t": 2585,
      "d": 95,
      "v": 45
    },
    {
      "midi": 74,
      "hit": false,
      "t": 2590,
      "d": 80,
      "v": 45
    },
    {
      "midi": 79,
      "hit": false,
      "t": 2590,
      "d": 80,
      "v": 45
    },
    {
      "midi": 81,
      "hit": false,
      "t": 2680,
      "d": 85,
      "v": 45
    },
    {
      "midi": 93,
      "hit": false,
      "t": 2680,
      "d": 90,
      "v": 45
    },
    {
      "midi": 86,
      "hit": false,
      "t": 2685,
      "d": 85,
      "v": 45
    },
    {
      "midi": 67,
      "hit": false,
      "t": 2775,
      "d": 130,
      "v": 46
    },
    {
      "midi": 74,
      "hit": false,
      "t": 2790,
      "d": 80,
      "v": 46
    },
    {
      "midi": 79,
      "hit": false,
      "t": 2795,
      "d": 80,
      "v": 46
    },
    {
      "midi": 81,
      "hit": false,
      "t": 2870,
      "d": 95,
      "v": 46
    },
    {
      "midi": 93,
      "hit": false,
      "t": 2870,
      "d": 130,
      "v": 46
    },
    {
      "midi": 86,
      "hit": false,
      "t": 2875,
      "d": 105,
      "v": 46
    },
    {
      "midi": 67,
      "hit": false,
      "t": 2965,
      "d": 145,
      "v": 46
    },
    {
      "midi": 79,
      "hit": false,
      "t": 2980,
      "d": 95,
      "v": 46
    },
    {
      "midi": 74,
      "hit": false,
      "t": 2980,
      "d": 100,
      "v": 46
    },
    {
      "midi": 93,
      "hit": false,
      "t": 3070,
      "d": 130,
      "v": 47
    },
    {
      "midi": 81,
      "hit": false,
      "t": 3080,
      "d": 80,
      "v": 47
    },
    {
      "midi": 86,
      "hit": false,
      "t": 3085,
      "d": 80,
      "v": 47
    },
    {
      "midi": 67,
      "hit": false,
      "t": 3185,
      "d": 125,
      "v": 47
    },
    {
      "midi": 79,
      "hit": false,
      "t": 3195,
      "d": 80,
      "v": 47
    },
    {
      "midi": 74,
      "hit": false,
      "t": 3195,
      "d": 85,
      "v": 47
    },
    {
      "midi": 93,
      "hit": false,
      "t": 3275,
      "d": 110,
      "v": 47
    },
    {
      "midi": 81,
      "hit": false,
      "t": 3280,
      "d": 85,
      "v": 47
    },
    {
      "midi": 86,
      "hit": false,
      "t": 3280,
      "d": 90,
      "v": 47
    },
    {
      "midi": 67,
      "hit": false,
      "t": 3385,
      "d": 155,
      "v": 48
    },
    {
      "midi": 74,
      "hit": false,
      "t": 3400,
      "d": 100,
      "v": 48
    },
    {
      "midi": 79,
      "hit": false,
      "t": 3400,
      "d": 100,
      "v": 48
    },
    {
      "midi": 93,
      "hit": false,
      "t": 3465,
      "d": 125,
      "v": 48
    },
    {
      "midi": 81,
      "hit": false,
      "t": 3480,
      "d": 90,
      "v": 48
    },
    {
      "midi": 86,
      "hit": false,
      "t": 3480,
      "d": 95,
      "v": 48
    },
    {
      "midi": 67,
      "hit": false,
      "t": 3585,
      "d": 150,
      "v": 48
    },
    {
      "midi": 79,
      "hit": false,
      "t": 3595,
      "d": 90,
      "v": 48
    },
    {
      "midi": 74,
      "hit": false,
      "t": 3615,
      "d": 75,
      "v": 48
    },
    {
      "midi": 81,
      "hit": false,
      "t": 3680,
      "d": 95,
      "v": 49
    },
    {
      "midi": 86,
      "hit": false,
      "t": 3685,
      "d": 105,
      "v": 49
    },
    {
      "midi": 93,
      "hit": false,
      "t": 3685,
      "d": 115,
      "v": 49
    },
    {
      "midi": 67,
      "hit": false,
      "t": 3805,
      "d": 320,
      "v": 49
    },
    {
      "midi": 74,
      "hit": false,
      "t": 3830,
      "d": 45,
      "v": 49
    },
    {
      "midi": 79,
      "hit": false,
      "t": 3835,
      "d": 40,
      "v": 49
    },
    {
      "midi": 81,
      "hit": false,
      "t": 3900,
      "d": 100,
      "v": 49
    },
    {
      "midi": 93,
      "hit": false,
      "t": 3900,
      "d": 110,
      "v": 49
    },
    {
      "midi": 86,
      "hit": false,
      "t": 3905,
      "d": 105,
      "v": 49
    },
    {
      "midi": 79,
      "hit": false,
      "t": 4005,
      "d": 85,
      "v": 50
    },
    {
      "midi": 74,
      "hit": false,
      "t": 4005,
      "d": 90,
      "v": 50
    },
    {
      "midi": 81,
      "hit": false,
      "t": 4120,
      "d": 90,
      "v": 50
    },
    {
      "midi": 86,
      "hit": false,
      "t": 4120,
      "d": 110,
      "v": 50
    },
    {
      "midi": 93,
      "hit": false,
      "t": 4120,
      "d": 110,
      "v": 50
    },
    {
      "midi": 67,
      "hit": false,
      "t": 4190,
      "d": 130,
      "v": 50
    },
    {
      "midi": 74,
      "hit": false,
      "t": 4210,
      "d": 90,
      "v": 50
    },
    {
      "midi": 79,
      "hit": false,
      "t": 4210,
      "d": 90,
      "v": 50
    },
    {
      "midi": 81,
      "hit": false,
      "t": 4330,
      "d": 100,
      "v": 51
    },
    {
      "midi": 86,
      "hit": false,
      "t": 4330,
      "d": 120,
      "v": 51
    },
    {
      "midi": 93,
      "hit": false,
      "t": 4330,
      "d": 120,
      "v": 51
    },
    {
      "midi": 67,
      "hit": false,
      "t": 4415,
      "d": 110,
      "v": 51
    },
    {
      "midi": 79,
      "hit": false,
      "t": 4425,
      "d": 100,
      "v": 51
    },
    {
      "midi": 74,
      "hit": false,
      "t": 4425,
      "d": 105,
      "v": 51
    },
    {
      "midi": 81,
      "hit": false,
      "t": 4550,
      "d": 100,
      "v": 51
    },
    {
      "midi": 86,
      "hit": false,
      "t": 4550,
      "d": 100,
      "v": 51
    },
    {
      "midi": 93,
      "hit": false,
      "t": 4550,
      "d": 115,
      "v": 51
    },
    {
      "midi": 74,
      "hit": false,
      "t": 4630,
      "d": 100,
      "v": 51
    },
    {
      "midi": 67,
      "hit": false,
      "t": 4630,
      "d": 110,
      "v": 51
    },
    {
      "midi": 79,
      "hit": false,
      "t": 4650,
      "d": 85,
      "v": 52
    },
    {
      "midi": 81,
      "hit": false,
      "t": 4770,
      "d": 105,
      "v": 52
    },
    {
      "midi": 93,
      "hit": false,
      "t": 4770,
      "d": 105,
      "v": 52
    },
    {
      "midi": 86,
      "hit": false,
      "t": 4770,
      "d": 110,
      "v": 52
    },
    {
      "midi": 55,
      "hit": false,
      "t": 4795,
      "d": 140,
      "v": 52
    },
    {
      "midi": 67,
      "hit": false,
      "t": 4810,
      "d": 95,
      "v": 52
    },
    {
      "midi": 62,
      "hit": false,
      "t": 4820,
      "d": 95,
      "v": 52
    },
    {
      "midi": 67,
      "hit": false,
      "t": 4835,
      "d": 115,
      "v": 52
    },
    {
      "midi": 74,
      "hit": false,
      "t": 4855,
      "d": 85,
      "v": 52
    },
    {
      "midi": 79,
      "hit": false,
      "t": 4855,
      "d": 85,
      "v": 52
    },
    {
      "midi": 69,
      "hit": false,
      "t": 4915,
      "d": 110,
      "v": 52
    },
    {
      "midi": 74,
      "hit": false,
      "t": 4940,
      "d": 85,
      "v": 52
    },
    {
      "midi": 81,
      "hit": false,
      "t": 4940,
      "d": 100,
      "v": 52
    },
    {
      "midi": 81,
      "hit": false,
      "t": 4985,
      "d": 105,
      "v": 53
    },
    {
      "midi": 86,
      "hit": false,
      "t": 4985,
      "d": 105,
      "v": 53
    },
    {
      "midi": 93,
      "hit": false,
      "t": 5005,
      "d": 85,
      "v": 53
    },
    {
      "midi": 67,
      "hit": false,
      "t": 5040,
      "d": 85,
      "v": 53
    },
    {
      "midi": 62,
      "hit": false,
      "t": 5040,
      "d": 90,
      "v": 53
    },
    {
      "midi": 79,
      "hit": false,
      "t": 5055,
      "d": 100,
      "v": 53
    },
    {
      "midi": 67,
      "hit": false,
      "t": 5060,
      "d": 95,
      "v": 53
    },
    {
      "midi": 74,
      "hit": false,
      "t": 5060,
      "d": 100,
      "v": 53
    },
    {
      "midi": 81,
      "hit": false,
      "t": 5165,
      "d": 100,
      "v": 53
    },
    {
      "midi": 74,
      "hit": false,
      "t": 5175,
      "d": 90,
      "v": 53
    },
    {
      "midi": 69,
      "hit": false,
      "t": 5180,
      "d": 60,
      "v": 53
    },
    {
      "midi": 81,
      "hit": false,
      "t": 5205,
      "d": 100,
      "v": 53
    },
    {
      "midi": 86,
      "hit": false,
      "t": 5205,
      "d": 110,
      "v": 53
    },
    {
      "midi": 93,
      "hit": false,
      "t": 5225,
      "d": 90,
      "v": 53
    },
    {
      "midi": 62,
      "hit": false,
      "t": 5245,
      "d": 105,
      "v": 53
    },
    {
      "midi": 55,
      "hit": false,
      "t": 5255,
      "d": 90,
      "v": 53
    },
    {
      "midi": 67,
      "hit": false,
      "t": 5265,
      "d": 80,
      "v": 53
    },
    {
      "midi": 74,
      "hit": false,
      "t": 5285,
      "d": 105,
      "v": 54
    },
    {
      "midi": 67,
      "hit": false,
      "t": 5285,
      "d": 110,
      "v": 54
    },
    {
      "midi": 79,
      "hit": false,
      "t": 5300,
      "d": 85,
      "v": 54
    },
    {
      "midi": 69,
      "hit": false,
      "t": 5390,
      "d": 90,
      "v": 54
    },
    {
      "midi": 81,
      "hit": false,
      "t": 5390,
      "d": 95,
      "v": 54
    },
    {
      "midi": 74,
      "hit": false,
      "t": 5390,
      "d": 105,
      "v": 54
    },
    {
      "midi": 81,
      "hit": false,
      "t": 5420,
      "d": 120,
      "v": 54
    },
    {
      "midi": 86,
      "hit": false,
      "t": 5430,
      "d": 110,
      "v": 54
    },
    {
      "midi": 93,
      "hit": false,
      "t": 5435,
      "d": 110,
      "v": 54
    },
    {
      "midi": 55,
      "hit": false,
      "t": 5455,
      "d": 110,
      "v": 54
    },
    {
      "midi": 62,
      "hit": false,
      "t": 5460,
      "d": 105,
      "v": 54
    },
    {
      "midi": 67,
      "hit": false,
      "t": 5465,
      "d": 90,
      "v": 54
    },
    {
      "midi": 67,
      "hit": false,
      "t": 5515,
      "d": 95,
      "v": 54
    },
    {
      "midi": 74,
      "hit": false,
      "t": 5515,
      "d": 100,
      "v": 54
    },
    {
      "midi": 79,
      "hit": false,
      "t": 5520,
      "d": 85,
      "v": 54
    },
    {
      "midi": 69,
      "hit": false,
      "t": 5610,
      "d": 95,
      "v": 55
    },
    {
      "midi": 81,
      "hit": false,
      "t": 5620,
      "d": 70,
      "v": 55
    },
    {
      "midi": 74,
      "hit": false,
      "t": 5620,
      "d": 95,
      "v": 55
    },
    {
      "midi": 81,
      "hit": false,
      "t": 5650,
      "d": 90,
      "v": 55
    },
    {
      "midi": 86,
      "hit": false,
      "t": 5650,
      "d": 95,
      "v": 55
    },
    {
      "midi": 93,
      "hit": false,
      "t": 5655,
      "d": 100,
      "v": 55
    },
    {
      "midi": 62,
      "hit": false,
      "t": 5705,
      "d": 90,
      "v": 55
    },
    {
      "midi": 55,
      "hit": false,
      "t": 5710,
      "d": 85,
      "v": 55
    },
    {
      "midi": 67,
      "hit": false,
      "t": 5715,
      "d": 140,
      "v": 55
    },
    {
      "midi": 67,
      "hit": false,
      "t": 5715,
      "d": 70,
      "v": 55
    },
    {
      "midi": 74,
      "hit": false,
      "t": 5730,
      "d": 105,
      "v": 55
    },
    {
      "midi": 79,
      "hit": false,
      "t": 5745,
      "d": 85,
      "v": 55
    },
    {
      "midi": 81,
      "hit": false,
      "t": 5850,
      "d": 70,
      "v": 55
    },
    {
      "midi": 74,
      "hit": false,
      "t": 5850,
      "d": 90,
      "v": 55
    },
    {
      "midi": 69,
      "hit": false,
      "t": 5855,
      "d": 75,
      "v": 55
    },
    {
      "midi": 81,
      "hit": false,
      "t": 5885,
      "d": 95,
      "v": 55
    },
    {
      "midi": 86,
      "hit": false,
      "t": 5885,
      "d": 95,
      "v": 55
    },
    {
      "midi": 93,
      "hit": false,
      "t": 5885,
      "d": 95,
      "v": 55
    },
    {
      "midi": 55,
      "hit": false,
      "t": 5920,
      "d": 100,
      "v": 56
    },
    {
      "midi": 62,
      "hit": false,
      "t": 5925,
      "d": 95,
      "v": 56
    },
    {
      "midi": 67,
      "hit": false,
      "t": 5935,
      "d": 85,
      "v": 56
    },
    {
      "midi": 67,
      "hit": false,
      "t": 5945,
      "d": 105,
      "v": 56
    },
    {
      "midi": 74,
      "hit": false,
      "t": 5960,
      "d": 85,
      "v": 56
    },
    {
      "midi": 79,
      "hit": false,
      "t": 5960,
      "d": 85,
      "v": 56
    },
    {
      "midi": 69,
      "hit": false,
      "t": 6065,
      "d": 100,
      "v": 56
    },
    {
      "midi": 81,
      "hit": false,
      "t": 6070,
      "d": 105,
      "v": 56
    },
    {
      "midi": 74,
      "hit": false,
      "t": 6075,
      "d": 100,
      "v": 56
    },
    {
      "midi": 81,
      "hit": false,
      "t": 6105,
      "d": 105,
      "v": 56
    },
    {
      "midi": 86,
      "hit": false,
      "t": 6105,
      "d": 105,
      "v": 56
    },
    {
      "midi": 93,
      "hit": false,
      "t": 6105,
      "d": 120,
      "v": 56
    },
    {
      "midi": 55,
      "hit": false,
      "t": 6150,
      "d": 100,
      "v": 56
    },
    {
      "midi": 67,
      "hit": false,
      "t": 6160,
      "d": 90,
      "v": 56
    },
    {
      "midi": 62,
      "hit": false,
      "t": 6160,
      "d": 95,
      "v": 56
    },
    {
      "midi": 79,
      "hit": false,
      "t": 6185,
      "d": 100,
      "v": 56
    },
    {
      "midi": 74,
      "hit": false,
      "t": 6185,
      "d": 110,
      "v": 56
    },
    {
      "midi": 67,
      "hit": false,
      "t": 6210,
      "d": 70,
      "v": 56
    },
    {
      "midi": 69,
      "hit": false,
      "t": 6290,
      "d": 100,
      "v": 57
    },
    {
      "midi": 81,
      "hit": false,
      "t": 6290,
      "d": 115,
      "v": 57
    },
    {
      "midi": 74,
      "hit": false,
      "t": 6295,
      "d": 110,
      "v": 57
    },
    {
      "midi": 81,
      "hit": false,
      "t": 6340,
      "d": 85,
      "v": 57
    },
    {
      "midi": 86,
      "hit": false,
      "t": 6340,
      "d": 90,
      "v": 57
    },
    {
      "midi": 93,
      "hit": false,
      "t": 6340,
      "d": 90,
      "v": 57
    },
    {
      "midi": 55,
      "hit": false,
      "t": 6385,
      "d": 85,
      "v": 57
    },
    {
      "midi": 62,
      "hit": false,
      "t": 6390,
      "d": 80,
      "v": 57
    },
    {
      "midi": 67,
      "hit": false,
      "t": 6400,
      "d": 70,
      "v": 57
    },
    {
      "midi": 74,
      "hit": false,
      "t": 6425,
      "d": 95,
      "v": 57
    },
    {
      "midi": 79,
      "hit": false,
      "t": 6425,
      "d": 95,
      "v": 57
    },
    {
      "midi": 67,
      "hit": false,
      "t": 6455,
      "d": 50,
      "v": 57
    },
    {
      "midi": 69,
      "hit": false,
      "t": 6515,
      "d": 100,
      "v": 57
    },
    {
      "midi": 81,
      "hit": false,
      "t": 6515,
      "d": 125,
      "v": 57
    },
    {
      "midi": 74,
      "hit": false,
      "t": 6525,
      "d": 105,
      "v": 57
    },
    {
      "midi": 81,
      "hit": false,
      "t": 6565,
      "d": 80,
      "v": 58
    },
    {
      "midi": 86,
      "hit": false,
      "t": 6565,
      "d": 90,
      "v": 58
    },
    {
      "midi": 93,
      "hit": false,
      "t": 6585,
      "d": 70,
      "v": 58
    },
    {
      "midi": 55,
      "hit": false,
      "t": 6605,
      "d": 90,
      "v": 58
    },
    {
      "midi": 67,
      "hit": false,
      "t": 6605,
      "d": 95,
      "v": 58
    },
    {
      "midi": 62,
      "hit": false,
      "t": 6610,
      "d": 85,
      "v": 58
    },
    {
      "midi": 79,
      "hit": false,
      "t": 6650,
      "d": 65,
      "v": 58
    },
    {
      "midi": 74,
      "hit": false,
      "t": 6650,
      "d": 80,
      "v": 58
    },
    {
      "midi": 67,
      "hit": false,
      "t": 6675,
      "d": 40,
      "v": 58
    },
    {
      "midi": 69,
      "hit": false,
      "t": 6750,
      "d": 105,
      "v": 58
    },
    {
      "midi": 81,
      "hit": false,
      "t": 6750,
      "d": 110,
      "v": 58
    },
    {
      "midi": 74,
      "hit": false,
      "t": 6755,
      "d": 105,
      "v": 58
    },
    {
      "midi": 86,
      "hit": false,
      "t": 6780,
      "d": 95,
      "v": 58
    },
    {
      "midi": 81,
      "hit": false,
      "t": 6790,
      "d": 65,
      "v": 58
    },
    {
      "midi": 93,
      "hit": false,
      "t": 6790,
      "d": 70,
      "v": 58
    },
    {
      "midi": 67,
      "hit": false,
      "t": 6835,
      "d": 75,
      "v": 58
    },
    {
      "midi": 74,
      "hit": false,
      "t": 6835,
      "d": 80,
      "v": 58
    },
    {
      "midi": 55,
      "hit": false,
      "t": 6835,
      "d": 110,
      "v": 58
    },
    {
      "midi": 79,
      "hit": false,
      "t": 6855,
      "d": 45,
      "v": 58
    },
    {
      "midi": 67,
      "hit": false,
      "t": 6855,
      "d": 75,
      "v": 58
    },
    {
      "midi": 62,
      "hit": false,
      "t": 6855,
      "d": 80,
      "v": 58
    },
    {
      "midi": 69,
      "hit": false,
      "t": 6975,
      "d": 100,
      "v": 59
    },
    {
      "midi": 74,
      "hit": false,
      "t": 6975,
      "d": 110,
      "v": 59
    },
    {
      "midi": 81,
      "hit": false,
      "t": 6980,
      "d": 100,
      "v": 59
    },
    {
      "midi": 81,
      "hit": false,
      "t": 6990,
      "d": 90,
      "v": 59
    },
    {
      "midi": 86,
      "hit": false,
      "t": 6990,
      "d": 90,
      "v": 59
    },
    {
      "midi": 93,
      "hit": false,
      "t": 6990,
      "d": 90,
      "v": 59
    },
    {
      "midi": 79,
      "hit": false,
      "t": 7050,
      "d": 75,
      "v": 59
    },
    {
      "midi": 74,
      "hit": false,
      "t": 7050,
      "d": 80,
      "v": 59
    },
    {
      "midi": 67,
      "hit": false,
      "t": 7050,
      "d": 90,
      "v": 59
    },
    {
      "midi": 55,
      "hit": false,
      "t": 7075,
      "d": 100,
      "v": 59
    },
    {
      "midi": 67,
      "hit": false,
      "t": 7085,
      "d": 80,
      "v": 59
    },
    {
      "midi": 62,
      "hit": false,
      "t": 7085,
      "d": 90,
      "v": 59
    },
    {
      "midi": 81,
      "hit": false,
      "t": 7195,
      "d": 75,
      "v": 59
    },
    {
      "midi": 86,
      "hit": false,
      "t": 7195,
      "d": 100,
      "v": 59
    },
    {
      "midi": 93,
      "hit": false,
      "t": 7195,
      "d": 105,
      "v": 59
    },
    {
      "midi": 69,
      "hit": false,
      "t": 7195,
      "d": 100,
      "v": 59
    },
    {
      "midi": 81,
      "hit": false,
      "t": 7200,
      "d": 95,
      "v": 60
    },
    {
      "midi": 74,
      "hit": false,
      "t": 7200,
      "d": 110,
      "v": 60
    },
    {
      "midi": 67,
      "hit": false,
      "t": 7265,
      "d": 55,
      "v": 60
    },
    {
      "midi": 79,
      "hit": false,
      "t": 7270,
      "d": 65,
      "v": 60
    },
    {
      "midi": 74,
      "hit": false,
      "t": 7270,
      "d": 75,
      "v": 60
    },
    {
      "midi": 55,
      "hit": false,
      "t": 7310,
      "d": 80,
      "v": 60
    },
    {
      "midi": 62,
      "hit": false,
      "t": 7310,
      "d": 80,
      "v": 60
    },
    {
      "midi": 67,
      "hit": false,
      "t": 7315,
      "d": 70,
      "v": 60
    },
    {
      "midi": 81,
      "hit": false,
      "t": 7380,
      "d": 100,
      "v": 60
    },
    {
      "midi": 93,
      "hit": false,
      "t": 7380,
      "d": 100,
      "v": 60
    },
    {
      "midi": 86,
      "hit": false,
      "t": 7385,
      "d": 95,
      "v": 60
    },
    {
      "midi": 81,
      "hit": false,
      "t": 7425,
      "d": 100,
      "v": 60
    },
    {
      "midi": 74,
      "hit": false,
      "t": 7425,
      "d": 110,
      "v": 60
    },
    {
      "midi": 69,
      "hit": false,
      "t": 7430,
      "d": 90,
      "v": 60
    },
    {
      "midi": 79,
      "hit": false,
      "t": 7455,
      "d": 90,
      "v": 60
    },
    {
      "midi": 67,
      "hit": false,
      "t": 7455,
      "d": 95,
      "v": 60
    },
    {
      "midi": 74,
      "hit": false,
      "t": 7475,
      "d": 70,
      "v": 60
    },
    {
      "midi": 55,
      "hit": false,
      "t": 7510,
      "d": 110,
      "v": 60
    },
    {
      "midi": 67,
      "hit": false,
      "t": 7520,
      "d": 95,
      "v": 61
    },
    {
      "midi": 62,
      "hit": false,
      "t": 7525,
      "d": 90,
      "v": 61
    },
    {
      "midi": 81,
      "hit": false,
      "t": 7590,
      "d": 80,
      "v": 61
    },
    {
      "midi": 86,
      "hit": false,
      "t": 7590,
      "d": 95,
      "v": 61
    },
    {
      "midi": 93,
      "hit": false,
      "t": 7590,
      "d": 100,
      "v": 61
    },
    {
      "midi": 69,
      "hit": false,
      "t": 7640,
      "d": 105,
      "v": 61
    },
    {
      "midi": 74,
      "hit": false,
      "t": 7640,
      "d": 110,
      "v": 61
    },
    {
      "midi": 81,
      "hit": false,
      "t": 7645,
      "d": 105,
      "v": 61
    },
    {
      "midi": 79,
      "hit": false,
      "t": 7685,
      "d": 70,
      "v": 61
    },
    {
      "midi": 67,
      "hit": false,
      "t": 7690,
      "d": 55,
      "v": 61
    },
    {
      "midi": 74,
      "hit": false,
      "t": 7690,
      "d": 75,
      "v": 61
    },
    {
      "midi": 55,
      "hit": false,
      "t": 7735,
      "d": 105,
      "v": 61
    },
    {
      "midi": 67,
      "hit": false,
      "t": 7745,
      "d": 85,
      "v": 61
    },
    {
      "midi": 62,
      "hit": false,
      "t": 7750,
      "d": 90,
      "v": 61
    },
    {
      "midi": 81,
      "hit": false,
      "t": 7805,
      "d": 90,
      "v": 61
    },
    {
      "midi": 86,
      "hit": false,
      "t": 7805,
      "d": 105,
      "v": 61
    },
    {
      "midi": 93,
      "hit": false,
      "t": 7825,
      "d": 85,
      "v": 61
    },
    {
      "midi": 69,
      "hit": false,
      "t": 7870,
      "d": 110,
      "v": 62
    },
    {
      "midi": 81,
      "hit": false,
      "t": 7870,
      "d": 110,
      "v": 62
    },
    {
      "midi": 74,
      "hit": false,
      "t": 7875,
      "d": 105,
      "v": 62
    },
    {
      "midi": 74,
      "hit": false,
      "t": 7890,
      "d": 80,
      "v": 62
    },
    {
      "midi": 79,
      "hit": false,
      "t": 7890,
      "d": 80,
      "v": 62
    },
    {
      "midi": 67,
      "hit": false,
      "t": 7915,
      "d": 45,
      "v": 62
    },
    {
      "midi": 67,
      "hit": false,
      "t": 7965,
      "d": 90,
      "v": 62
    },
    {
      "midi": 55,
      "hit": false,
      "t": 7965,
      "d": 95,
      "v": 62
    },
    {
      "midi": 62,
      "hit": false,
      "t": 7970,
      "d": 90,
      "v": 62
    },
    {
      "midi": 81,
      "hit": false,
      "t": 8025,
      "d": 80,
      "v": 62
    },
    {
      "midi": 86,
      "hit": false,
      "t": 8025,
      "d": 90,
      "v": 62
    },
    {
      "midi": 93,
      "hit": false,
      "t": 8025,
      "d": 95,
      "v": 62
    },
    {
      "midi": 81,
      "hit": false,
      "t": 8090,
      "d": 135,
      "v": 62
    },
    {
      "midi": 69,
      "hit": false,
      "t": 8095,
      "d": 95,
      "v": 62
    },
    {
      "midi": 74,
      "hit": false,
      "t": 8095,
      "d": 105,
      "v": 62
    },
    {
      "midi": 79,
      "hit": false,
      "t": 8115,
      "d": 75,
      "v": 62
    },
    {
      "midi": 67,
      "hit": false,
      "t": 8115,
      "d": 80,
      "v": 62
    },
    {
      "midi": 74,
      "hit": false,
      "t": 8120,
      "d": 75,
      "v": 62
    },
    {
      "midi": 55,
      "hit": false,
      "t": 8190,
      "d": 125,
      "v": 63
    },
    {
      "midi": 62,
      "hit": false,
      "t": 8200,
      "d": 100,
      "v": 63
    },
    {
      "midi": 67,
      "hit": false,
      "t": 8200,
      "d": 100,
      "v": 63
    },
    {
      "midi": 86,
      "hit": false,
      "t": 8245,
      "d": 100,
      "v": 63
    },
    {
      "midi": 81,
      "hit": false,
      "t": 8250,
      "d": 80,
      "v": 63
    },
    {
      "midi": 93,
      "hit": false,
      "t": 8270,
      "d": 75,
      "v": 63
    },
    {
      "midi": 81,
      "hit": false,
      "t": 8305,
      "d": 140,
      "v": 63
    },
    {
      "midi": 69,
      "hit": false,
      "t": 8310,
      "d": 105,
      "v": 63
    },
    {
      "midi": 74,
      "hit": false,
      "t": 8315,
      "d": 115,
      "v": 63
    },
    {
      "midi": 67,
      "hit": false,
      "t": 8340,
      "d": 40,
      "v": 63
    },
    {
      "midi": 74,
      "hit": false,
      "t": 8340,
      "d": 60,
      "v": 63
    },
    {
      "midi": 79,
      "hit": false,
      "t": 8340,
      "d": 60,
      "v": 63
    },
    {
      "midi": 67,
      "hit": false,
      "t": 8425,
      "d": 115,
      "v": 63
    },
    {
      "midi": 55,
      "hit": false,
      "t": 8425,
      "d": 120,
      "v": 63
    },
    {
      "midi": 62,
      "hit": false,
      "t": 8430,
      "d": 95,
      "v": 63
    },
    {
      "midi": 86,
      "hit": false,
      "t": 8470,
      "d": 80,
      "v": 63
    },
    {
      "midi": 93,
      "hit": false,
      "t": 8470,
      "d": 80,
      "v": 63
    },
    {
      "midi": 81,
      "hit": false,
      "t": 8485,
      "d": 60,
      "v": 64
    },
    {
      "midi": 74,
      "hit": false,
      "t": 8525,
      "d": 95,
      "v": 64
    },
    {
      "midi": 79,
      "hit": false,
      "t": 8525,
      "d": 95,
      "v": 64
    },
    {
      "midi": 69,
      "hit": false,
      "t": 8540,
      "d": 105,
      "v": 64
    },
    {
      "midi": 67,
      "hit": false,
      "t": 8545,
      "d": 80,
      "v": 64
    },
    {
      "midi": 74,
      "hit": false,
      "t": 8545,
      "d": 105,
      "v": 64
    },
    {
      "midi": 81,
      "hit": false,
      "t": 8545,
      "d": 120,
      "v": 64
    },
    {
      "midi": 55,
      "hit": false,
      "t": 8650,
      "d": 125,
      "v": 64
    },
    {
      "midi": 62,
      "hit": false,
      "t": 8660,
      "d": 95,
      "v": 64
    },
    {
      "midi": 67,
      "hit": false,
      "t": 8665,
      "d": 90,
      "v": 64
    },
    {
      "midi": 86,
      "hit": false,
      "t": 8670,
      "d": 100,
      "v": 64
    },
    {
      "midi": 93,
      "hit": false,
      "t": 8670,
      "d": 115,
      "v": 64
    },
    {
      "midi": 81,
      "hit": false,
      "t": 8675,
      "d": 90,
      "v": 64
    },
    {
      "midi": 69,
      "hit": false,
      "t": 8765,
      "d": 115,
      "v": 64
    },
    {
      "midi": 81,
      "hit": false,
      "t": 8765,
      "d": 115,
      "v": 64
    },
    {
      "midi": 74,
      "hit": false,
      "t": 8775,
      "d": 100,
      "v": 64
    },
    {
      "midi": 79,
      "hit": false,
      "t": 8780,
      "d": 85,
      "v": 64
    },
    {
      "midi": 67,
      "hit": false,
      "t": 8780,
      "d": 100,
      "v": 64
    },
    {
      "midi": 74,
      "hit": false,
      "t": 8780,
      "d": 100,
      "v": 64
    },
    {
      "midi": 55,
      "hit": false,
      "t": 8880,
      "d": 120,
      "v": 65
    },
    {
      "midi": 67,
      "hit": false,
      "t": 8895,
      "d": 90,
      "v": 65
    },
    {
      "midi": 62,
      "hit": false,
      "t": 8895,
      "d": 95,
      "v": 65
    },
    {
      "midi": 86,
      "hit": false,
      "t": 8900,
      "d": 100,
      "v": 65
    },
    {
      "midi": 93,
      "hit": false,
      "t": 8900,
      "d": 115,
      "v": 65
    },
    {
      "midi": 81,
      "hit": false,
      "t": 8905,
      "d": 85,
      "v": 65
    },
    {
      "midi": 69,
      "hit": false,
      "t": 8985,
      "d": 120,
      "v": 65
    },
    {
      "midi": 81,
      "hit": false,
      "t": 9000,
      "d": 110,
      "v": 65
    },
    {
      "midi": 74,
      "hit": false,
      "t": 9005,
      "d": 90,
      "v": 65
    },
    {
      "midi": 79,
      "hit": false,
      "t": 9010,
      "d": 95,
      "v": 65
    },
    {
      "midi": 67,
      "hit": false,
      "t": 9015,
      "d": 80,
      "v": 65
    },
    {
      "midi": 74,
      "hit": false,
      "t": 9015,
      "d": 85,
      "v": 65
    },
    {
      "midi": 55,
      "hit": false,
      "t": 9110,
      "d": 120,
      "v": 65
    },
    {
      "midi": 67,
      "hit": false,
      "t": 9115,
      "d": 110,
      "v": 65
    },
    {
      "midi": 62,
      "hit": false,
      "t": 9120,
      "d": 100,
      "v": 66
    },
    {
      "midi": 81,
      "hit": false,
      "t": 9135,
      "d": 85,
      "v": 66
    },
    {
      "midi": 86,
      "hit": false,
      "t": 9135,
      "d": 90,
      "v": 66
    },
    {
      "midi": 93,
      "hit": false,
      "t": 9135,
      "d": 120,
      "v": 66
    },
    {
      "midi": 69,
      "hit": false,
      "t": 9230,
      "d": 110,
      "v": 66
    },
    {
      "midi": 81,
      "hit": false,
      "t": 9230,
      "d": 140,
      "v": 66
    },
    {
      "midi": 79,
      "hit": false,
      "t": 9235,
      "d": 95,
      "v": 66
    },
    {
      "midi": 74,
      "hit": false,
      "t": 9235,
      "d": 100,
      "v": 66
    },
    {
      "midi": 74,
      "hit": false,
      "t": 9235,
      "d": 105,
      "v": 66
    },
    {
      "midi": 67,
      "hit": false,
      "t": 9255,
      "d": 80,
      "v": 66
    },
    {
      "midi": 86,
      "hit": false,
      "t": 9350,
      "d": 105,
      "v": 66
    },
    {
      "midi": 93,
      "hit": false,
      "t": 9350,
      "d": 130,
      "v": 66
    },
    {
      "midi": 81,
      "hit": false,
      "t": 9355,
      "d": 85,
      "v": 66
    },
    {
      "midi": 55,
      "hit": false,
      "t": 9380,
      "d": 95,
      "v": 66
    },
    {
      "midi": 62,
      "hit": false,
      "t": 9385,
      "d": 90,
      "v": 66
    },
    {
      "midi": 67,
      "hit": false,
      "t": 9385,
      "d": 90,
      "v": 66
    },
    {
      "midi": 69,
      "hit": false,
      "t": 9465,
      "d": 100,
      "v": 67
    },
    {
      "midi": 74,
      "hit": false,
      "t": 9470,
      "d": 125,
      "v": 67
    },
    {
      "midi": 81,
      "hit": false,
      "t": 9470,
      "d": 125,
      "v": 67
    },
    {
      "midi": 74,
      "hit": false,
      "t": 9480,
      "d": 85,
      "v": 67
    },
    {
      "midi": 79,
      "hit": false,
      "t": 9485,
      "d": 75,
      "v": 67
    },
    {
      "midi": 67,
      "hit": false,
      "t": 9485,
      "d": 80,
      "v": 67
    },
    {
      "midi": 81,
      "hit": false,
      "t": 9570,
      "d": 90,
      "v": 67
    },
    {
      "midi": 86,
      "hit": false,
      "t": 9570,
      "d": 100,
      "v": 67
    },
    {
      "midi": 93,
      "hit": false,
      "t": 9570,
      "d": 115,
      "v": 67
    },
    {
      "midi": 62,
      "hit": false,
      "t": 9610,
      "d": 100,
      "v": 67
    },
    {
      "midi": 67,
      "hit": false,
      "t": 9610,
      "d": 100,
      "v": 67
    },
    {
      "midi": 55,
      "hit": false,
      "t": 9610,
      "d": 105,
      "v": 67
    },
    {
      "midi": 67,
      "hit": false,
      "t": 9685,
      "d": 85,
      "v": 67
    },
    {
      "midi": 74,
      "hit": false,
      "t": 9690,
      "d": 75,
      "v": 67
    },
    {
      "midi": 79,
      "hit": false,
      "t": 9690,
      "d": 75,
      "v": 67
    },
    {
      "midi": 69,
      "hit": false,
      "t": 9705,
      "d": 105,
      "v": 67
    },
    {
      "midi": 81,
      "hit": false,
      "t": 9705,
      "d": 120,
      "v": 67
    },
    {
      "midi": 74,
      "hit": false,
      "t": 9710,
      "d": 100,
      "v": 67
    },
    {
      "midi": 86,
      "hit": false,
      "t": 9785,
      "d": 105,
      "v": 68
    },
    {
      "midi": 93,
      "hit": false,
      "t": 9785,
      "d": 135,
      "v": 68
    },
    {
      "midi": 81,
      "hit": false,
      "t": 9790,
      "d": 95,
      "v": 68
    },
    {
      "midi": 55,
      "hit": false,
      "t": 9825,
      "d": 110,
      "v": 68
    },
    {
      "midi": 62,
      "hit": false,
      "t": 9830,
      "d": 100,
      "v": 68
    },
    {
      "midi": 67,
      "hit": false,
      "t": 9830,
      "d": 100,
      "v": 68
    },
    {
      "midi": 74,
      "hit": false,
      "t": 9895,
      "d": 85,
      "v": 68
    },
    {
      "midi": 79,
      "hit": false,
      "t": 9895,
      "d": 85,
      "v": 68
    },
    {
      "midi": 67,
      "hit": false,
      "t": 9895,
      "d": 95,
      "v": 68
    },
    {
      "midi": 69,
      "hit": false,
      "t": 9930,
      "d": 115,
      "v": 68
    },
    {
      "midi": 81,
      "hit": false,
      "t": 9930,
      "d": 130,
      "v": 68
    },
    {
      "midi": 74,
      "hit": false,
      "t": 9935,
      "d": 110,
      "v": 68
    },
    {
      "midi": 81,
      "hit": false,
      "t": 10010,
      "d": 95,
      "v": 68
    },
    {
      "midi": 86,
      "hit": false,
      "t": 10010,
      "d": 110,
      "v": 68
    },
    {
      "midi": 93,
      "hit": false,
      "t": 10015,
      "d": 115,
      "v": 68
    },
    {
      "midi": 55,
      "hit": false,
      "t": 10060,
      "d": 110,
      "v": 68
    },
    {
      "midi": 62,
      "hit": false,
      "t": 10065,
      "d": 95,
      "v": 68
    },
    {
      "midi": 67,
      "hit": false,
      "t": 10065,
      "d": 95,
      "v": 68
    },
    {
      "midi": 74,
      "hit": false,
      "t": 10130,
      "d": 80,
      "v": 69
    },
    {
      "midi": 79,
      "hit": false,
      "t": 10130,
      "d": 80,
      "v": 69
    },
    {
      "midi": 67,
      "hit": false,
      "t": 10155,
      "d": 65,
      "v": 69
    },
    {
      "midi": 69,
      "hit": false,
      "t": 10175,
      "d": 100,
      "v": 69
    },
    {
      "midi": 74,
      "hit": false,
      "t": 10175,
      "d": 110,
      "v": 69
    },
    {
      "midi": 81,
      "hit": false,
      "t": 10180,
      "d": 125,
      "v": 69
    },
    {
      "midi": 93,
      "hit": false,
      "t": 10225,
      "d": 120,
      "v": 69
    },
    {
      "midi": 81,
      "hit": false,
      "t": 10240,
      "d": 95,
      "v": 69
    },
    {
      "midi": 86,
      "hit": false,
      "t": 10240,
      "d": 95,
      "v": 69
    },
    {
      "midi": 55,
      "hit": false,
      "t": 10290,
      "d": 145,
      "v": 69
    },
    {
      "midi": 67,
      "hit": false,
      "t": 10300,
      "d": 90,
      "v": 69
    },
    {
      "midi": 62,
      "hit": false,
      "t": 10300,
      "d": 110,
      "v": 69
    },
    {
      "midi": 67,
      "hit": false,
      "t": 10345,
      "d": 80,
      "v": 69
    },
    {
      "midi": 79,
      "hit": false,
      "t": 10350,
      "d": 70,
      "v": 69
    },
    {
      "midi": 74,
      "hit": false,
      "t": 10350,
      "d": 75,
      "v": 69
    },
    {
      "midi": 74,
      "hit": false,
      "t": 10420,
      "d": 95,
      "v": 70
    },
    {
      "midi": 81,
      "hit": false,
      "t": 10420,
      "d": 115,
      "v": 70
    },
    {
      "midi": 69,
      "hit": false,
      "t": 10430,
      "d": 75,
      "v": 70
    },
    {
      "midi": 86,
      "hit": false,
      "t": 10455,
      "d": 100,
      "v": 70
    },
    {
      "midi": 81,
      "hit": false,
      "t": 10460,
      "d": 80,
      "v": 70
    },
    {
      "midi": 93,
      "hit": false,
      "t": 10460,
      "d": 100,
      "v": 70
    },
    {
      "midi": 67,
      "hit": false,
      "t": 10540,
      "d": 110,
      "v": 70
    },
    {
      "midi": 67,
      "hit": false,
      "t": 10545,
      "d": 70,
      "v": 70
    },
    {
      "midi": 62,
      "hit": false,
      "t": 10545,
      "d": 85,
      "v": 70
    },
    {
      "midi": 55,
      "hit": false,
      "t": 10545,
      "d": 290,
      "v": 70
    },
    {
      "midi": 79,
      "hit": false,
      "t": 10555,
      "d": 85,
      "v": 70
    },
    {
      "midi": 74,
      "hit": false,
      "t": 10560,
      "d": 80,
      "v": 70
    },
    {
      "midi": 69,
      "hit": false,
      "t": 10645,
      "d": 90,
      "v": 70
    },
    {
      "midi": 74,
      "hit": false,
      "t": 10645,
      "d": 95,
      "v": 70
    },
    {
      "midi": 81,
      "hit": false,
      "t": 10645,
      "d": 115,
      "v": 70
    },
    {
      "midi": 81,
      "hit": false,
      "t": 10665,
      "d": 95,
      "v": 70
    },
    {
      "midi": 86,
      "hit": false,
      "t": 10665,
      "d": 100,
      "v": 70
    },
    {
      "midi": 93,
      "hit": false,
      "t": 10665,
      "d": 120,
      "v": 70
    },
    {
      "midi": 62,
      "hit": false,
      "t": 10735,
      "d": 90,
      "v": 71
    },
    {
      "midi": 67,
      "hit": false,
      "t": 10735,
      "d": 90,
      "v": 71
    },
    {
      "midi": 67,
      "hit": false,
      "t": 10765,
      "d": 105,
      "v": 71
    },
    {
      "midi": 79,
      "hit": false,
      "t": 10780,
      "d": 75,
      "v": 71
    },
    {
      "midi": 74,
      "hit": false,
      "t": 10785,
      "d": 70,
      "v": 71
    },
    {
      "midi": 69,
      "hit": false,
      "t": 10870,
      "d": 95,
      "v": 71
    },
    {
      "midi": 81,
      "hit": false,
      "t": 10870,
      "d": 125,
      "v": 71
    },
    {
      "midi": 74,
      "hit": false,
      "t": 10875,
      "d": 95,
      "v": 71
    },
    {
      "midi": 81,
      "hit": false,
      "t": 10885,
      "d": 100,
      "v": 71
    },
    {
      "midi": 86,
      "hit": false,
      "t": 10885,
      "d": 115,
      "v": 71
    },
    {
      "midi": 93,
      "hit": false,
      "t": 10890,
      "d": 105,
      "v": 71
    },
    {
      "midi": 67,
      "hit": false,
      "t": 10965,
      "d": 90,
      "v": 71
    },
    {
      "midi": 55,
      "hit": false,
      "t": 10965,
      "d": 105,
      "v": 71
    },
    {
      "midi": 62,
      "hit": false,
      "t": 10970,
      "d": 95,
      "v": 71
    },
    {
      "midi": 67,
      "hit": false,
      "t": 11000,
      "d": 120,
      "v": 71
    },
    {
      "midi": 79,
      "hit": false,
      "t": 11005,
      "d": 100,
      "v": 71
    },
    {
      "midi": 74,
      "hit": false,
      "t": 11005,
      "d": 105,
      "v": 71
    },
    {
      "midi": 86,
      "hit": false,
      "t": 11095,
      "d": 110,
      "v": 72
    },
    {
      "midi": 69,
      "hit": false,
      "t": 11100,
      "d": 100,
      "v": 72
    },
    {
      "midi": 74,
      "hit": false,
      "t": 11100,
      "d": 110,
      "v": 72
    },
    {
      "midi": 81,
      "hit": false,
      "t": 11105,
      "d": 90,
      "v": 72
    },
    {
      "midi": 81,
      "hit": false,
      "t": 11105,
      "d": 120,
      "v": 72
    },
    {
      "midi": 93,
      "hit": false,
      "t": 11125,
      "d": 55,
      "v": 72
    },
    {
      "midi": 55,
      "hit": false,
      "t": 11200,
      "d": 100,
      "v": 72
    },
    {
      "midi": 62,
      "hit": false,
      "t": 11205,
      "d": 85,
      "v": 72
    },
    {
      "midi": 67,
      "hit": false,
      "t": 11205,
      "d": 85,
      "v": 72
    },
    {
      "midi": 67,
      "hit": false,
      "t": 11220,
      "d": 100,
      "v": 72
    },
    {
      "midi": 79,
      "hit": false,
      "t": 11225,
      "d": 85,
      "v": 72
    },
    {
      "midi": 74,
      "hit": false,
      "t": 11230,
      "d": 80,
      "v": 72
    },
    {
      "midi": 81,
      "hit": false,
      "t": 11315,
      "d": 105,
      "v": 72
    },
    {
      "midi": 86,
      "hit": false,
      "t": 11315,
      "d": 105,
      "v": 72
    },
    {
      "midi": 93,
      "hit": false,
      "t": 11315,
      "d": 125,
      "v": 72
    },
    {
      "midi": 69,
      "hit": false,
      "t": 11340,
      "d": 115,
      "v": 72
    },
    {
      "midi": 74,
      "hit": false,
      "t": 11340,
      "d": 115,
      "v": 72
    },
    {
      "midi": 81,
      "hit": false,
      "t": 11340,
      "d": 125,
      "v": 72
    },
    {
      "midi": 67,
      "hit": false,
      "t": 11415,
      "d": 100,
      "v": 73
    },
    {
      "midi": 55,
      "hit": false,
      "t": 11430,
      "d": 100,
      "v": 73
    },
    {
      "midi": 67,
      "hit": false,
      "t": 11430,
      "d": 100,
      "v": 73
    },
    {
      "midi": 74,
      "hit": false,
      "t": 11435,
      "d": 80,
      "v": 73
    },
    {
      "midi": 79,
      "hit": false,
      "t": 11435,
      "d": 80,
      "v": 73
    },
    {
      "midi": 62,
      "hit": false,
      "t": 11455,
      "d": 80,
      "v": 73
    },
    {
      "midi": 81,
      "hit": false,
      "t": 11530,
      "d": 105,
      "v": 73
    },
    {
      "midi": 86,
      "hit": false,
      "t": 11530,
      "d": 110,
      "v": 73
    },
    {
      "midi": 93,
      "hit": false,
      "t": 11550,
      "d": 100,
      "v": 73
    },
    {
      "midi": 74,
      "hit": false,
      "t": 11580,
      "d": 105,
      "v": 73
    },
    {
      "midi": 69,
      "hit": false,
      "t": 11585,
      "d": 95,
      "v": 73
    },
    {
      "midi": 81,
      "hit": false,
      "t": 11585,
      "d": 130,
      "v": 73
    },
    {
      "midi": 67,
      "hit": false,
      "t": 11645,
      "d": 95,
      "v": 73
    },
    {
      "midi": 74,
      "hit": false,
      "t": 11645,
      "d": 100,
      "v": 73
    },
    {
      "midi": 79,
      "hit": false,
      "t": 11645,
      "d": 100,
      "v": 73
    },
    {
      "midi": 55,
      "hit": false,
      "t": 11675,
      "d": 125,
      "v": 73
    },
    {
      "midi": 62,
      "hit": false,
      "t": 11680,
      "d": 105,
      "v": 74
    },
    {
      "midi": 67,
      "hit": false,
      "t": 11685,
      "d": 100,
      "v": 74
    },
    {
      "midi": 81,
      "hit": false,
      "t": 11755,
      "d": 110,
      "v": 74
    },
    {
      "midi": 86,
      "hit": false,
      "t": 11755,
      "d": 115,
      "v": 74
    },
    {
      "midi": 93,
      "hit": false,
      "t": 11775,
      "d": 90,
      "v": 74
    },
    {
      "midi": 81,
      "hit": false,
      "t": 11815,
      "d": 135,
      "v": 74
    },
    {
      "midi": 74,
      "hit": false,
      "t": 11830,
      "d": 95,
      "v": 74
    },
    {
      "midi": 69,
      "hit": false,
      "t": 11835,
      "d": 85,
      "v": 74
    },
    {
      "midi": 74,
      "hit": false,
      "t": 11880,
      "d": 90,
      "v": 74
    },
    {
      "midi": 79,
      "hit": false,
      "t": 11880,
      "d": 90,
      "v": 74
    },
    {
      "midi": 67,
      "hit": false,
      "t": 11880,
      "d": 100,
      "v": 74
    },
    {
      "midi": 55,
      "hit": false,
      "t": 11920,
      "d": 105,
      "v": 74
    },
    {
      "midi": 67,
      "hit": false,
      "t": 11925,
      "d": 100,
      "v": 74
    },
    {
      "midi": 62,
      "hit": false,
      "t": 11935,
      "d": 90,
      "v": 74
    },
    {
      "midi": 81,
      "hit": false,
      "t": 12005,
      "d": 100,
      "v": 75
    },
    {
      "midi": 86,
      "hit": false,
      "t": 12005,
      "d": 110,
      "v": 75
    },
    {
      "midi": 93,
      "hit": false,
      "t": 12010,
      "d": 105,
      "v": 75
    },
    {
      "midi": 69,
      "hit": false,
      "t": 12055,
      "d": 95,
      "v": 75
    },
    {
      "midi": 74,
      "hit": false,
      "t": 12055,
      "d": 95,
      "v": 75
    },
    {
      "midi": 81,
      "hit": false,
      "t": 12060,
      "d": 105,
      "v": 75
    },
    {
      "midi": 79,
      "hit": false,
      "t": 12115,
      "d": 95,
      "v": 75
    },
    {
      "midi": 74,
      "hit": false,
      "t": 12130,
      "d": 75,
      "v": 75
    },
    {
      "midi": 55,
      "hit": false,
      "t": 12130,
      "d": 135,
      "v": 75
    },
    {
      "midi": 67,
      "hit": false,
      "t": 12135,
      "d": 75,
      "v": 75
    },
    {
      "midi": 67,
      "hit": false,
      "t": 12145,
      "d": 95,
      "v": 75
    },
    {
      "midi": 62,
      "hit": false,
      "t": 12150,
      "d": 80,
      "v": 75
    },
    {
      "midi": 86,
      "hit": false,
      "t": 12240,
      "d": 110,
      "v": 75
    },
    {
      "midi": 81,
      "hit": false,
      "t": 12250,
      "d": 95,
      "v": 75
    },
    {
      "midi": 93,
      "hit": false,
      "t": 12265,
      "d": 70,
      "v": 75
    },
    {
      "midi": 69,
      "hit": false,
      "t": 12275,
      "d": 105,
      "v": 75
    },
    {
      "midi": 74,
      "hit": false,
      "t": 12275,
      "d": 105,
      "v": 75
    },
    {
      "midi": 81,
      "hit": false,
      "t": 12275,
      "d": 120,
      "v": 75
    },
    {
      "midi": 67,
      "hit": false,
      "t": 12350,
      "d": 105,
      "v": 76
    },
    {
      "midi": 55,
      "hit": false,
      "t": 12350,
      "d": 120,
      "v": 76
    },
    {
      "midi": 79,
      "hit": false,
      "t": 12355,
      "d": 75,
      "v": 76
    },
    {
      "midi": 67,
      "hit": false,
      "t": 12355,
      "d": 90,
      "v": 76
    },
    {
      "midi": 74,
      "hit": false,
      "t": 12355,
      "d": 90,
      "v": 76
    },
    {
      "midi": 62,
      "hit": false,
      "t": 12380,
      "d": 75,
      "v": 76
    },
    {
      "midi": 81,
      "hit": false,
      "t": 12485,
      "d": 110,
      "v": 76
    },
    {
      "midi": 86,
      "hit": false,
      "t": 12485,
      "d": 110,
      "v": 76
    },
    {
      "midi": 93,
      "hit": false,
      "t": 12505,
      "d": 65,
      "v": 76
    },
    {
      "midi": 69,
      "hit": false,
      "t": 12510,
      "d": 95,
      "v": 76
    },
    {
      "midi": 74,
      "hit": false,
      "t": 12510,
      "d": 105,
      "v": 76
    },
    {
      "midi": 81,
      "hit": false,
      "t": 12515,
      "d": 120,
      "v": 76
    },
    {
      "midi": 55,
      "hit": false,
      "t": 12545,
      "d": 100,
      "v": 76
    },
    {
      "midi": 62,
      "hit": false,
      "t": 12565,
      "d": 80,
      "v": 76
    },
    {
      "midi": 67,
      "hit": false,
      "t": 12570,
      "d": 70,
      "v": 76
    },
    {
      "midi": 74,
      "hit": false,
      "t": 12570,
      "d": 75,
      "v": 76
    },
    {
      "midi": 67,
      "hit": false,
      "t": 12570,
      "d": 75,
      "v": 76
    },
    {
      "midi": 79,
      "hit": false,
      "t": 12575,
      "d": 70,
      "v": 76
    },
    {
      "midi": 81,
      "hit": false,
      "t": 12710,
      "d": 95,
      "v": 77
    },
    {
      "midi": 86,
      "hit": false,
      "t": 12710,
      "d": 100,
      "v": 77
    },
    {
      "midi": 93,
      "hit": false,
      "t": 12730,
      "d": 80,
      "v": 77
    },
    {
      "midi": 55,
      "hit": false,
      "t": 12750,
      "d": 105,
      "v": 77
    },
    {
      "midi": 67,
      "hit": false,
      "t": 12755,
      "d": 100,
      "v": 77
    },
    {
      "midi": 62,
      "hit": false,
      "t": 12760,
      "d": 95,
      "v": 77
    },
    {
      "midi": 74,
      "hit": false,
      "t": 12765,
      "d": 215,
      "v": 77
    },
    {
      "midi": 69,
      "hit": false,
      "t": 12765,
      "d": 225,
      "v": 77
    },
    {
      "midi": 81,
      "hit": false,
      "t": 12775,
      "d": 260,
      "v": 77
    },
    {
      "midi": 79,
      "hit": false,
      "t": 12795,
      "d": 80,
      "v": 77
    },
    {
      "midi": 67,
      "hit": false,
      "t": 12805,
      "d": 70,
      "v": 77
    },
    {
      "midi": 74,
      "hit": false,
      "t": 12805,
      "d": 75,
      "v": 77
    },
    {
      "midi": 81,
      "hit": false,
      "t": 12960,
      "d": 85,
      "v": 78
    },
    {
      "midi": 86,
      "hit": false,
      "t": 12960,
      "d": 90,
      "v": 78
    },
    {
      "midi": 93,
      "hit": false,
      "t": 12980,
      "d": 75,
      "v": 78
    },
    {
      "midi": 55,
      "hit": false,
      "t": 12990,
      "d": 110,
      "v": 78
    },
    {
      "midi": 67,
      "hit": false,
      "t": 12995,
      "d": 95,
      "v": 78
    },
    {
      "midi": 62,
      "hit": false,
      "t": 13000,
      "d": 95,
      "v": 78
    },
    {
      "midi": 79,
      "hit": false,
      "t": 13045,
      "d": 70,
      "v": 78
    },
    {
      "midi": 67,
      "hit": false,
      "t": 13050,
      "d": 65,
      "v": 78
    },
    {
      "midi": 74,
      "hit": false,
      "t": 13050,
      "d": 75,
      "v": 78
    },
    {
      "midi": 69,
      "hit": false,
      "t": 13100,
      "d": 95,
      "v": 78
    },
    {
      "midi": 74,
      "hit": false,
      "t": 13100,
      "d": 110,
      "v": 78
    },
    {
      "midi": 81,
      "hit": false,
      "t": 13115,
      "d": 110,
      "v": 78
    },
    {
      "midi": 81,
      "hit": false,
      "t": 13175,
      "d": 95,
      "v": 78
    },
    {
      "midi": 93,
      "hit": false,
      "t": 13175,
      "d": 95,
      "v": 78
    },
    {
      "midi": 86,
      "hit": false,
      "t": 13175,
      "d": 105,
      "v": 78
    },
    {
      "midi": 55,
      "hit": false,
      "t": 13230,
      "d": 90,
      "v": 78
    },
    {
      "midi": 67,
      "hit": false,
      "t": 13235,
      "d": 85,
      "v": 78
    },
    {
      "midi": 62,
      "hit": false,
      "t": 13235,
      "d": 95,
      "v": 78
    },
    {
      "midi": 79,
      "hit": false,
      "t": 13280,
      "d": 85,
      "v": 79
    },
    {
      "midi": 74,
      "hit": false,
      "t": 13295,
      "d": 70,
      "v": 79
    },
    {
      "midi": 67,
      "hit": false,
      "t": 13305,
      "d": 45,
      "v": 79
    },
    {
      "midi": 69,
      "hit": false,
      "t": 13330,
      "d": 105,
      "v": 79
    },
    {
      "midi": 74,
      "hit": false,
      "t": 13330,
      "d": 110,
      "v": 79
    },
    {
      "midi": 81,
      "hit": false,
      "t": 13335,
      "d": 120,
      "v": 79
    },
    {
      "midi": 81,
      "hit": false,
      "t": 13405,
      "d": 90,
      "v": 79
    },
    {
      "midi": 86,
      "hit": false,
      "t": 13405,
      "d": 105,
      "v": 79
    },
    {
      "midi": 93,
      "hit": false,
      "t": 13425,
      "d": 110,
      "v": 79
    },
    {
      "midi": 67,
      "hit": false,
      "t": 13460,
      "d": 90,
      "v": 79
    },
    {
      "midi": 55,
      "hit": false,
      "t": 13460,
      "d": 110,
      "v": 79
    },
    {
      "midi": 62,
      "hit": false,
      "t": 13465,
      "d": 85,
      "v": 79
    },
    {
      "midi": 67,
      "hit": false,
      "t": 13510,
      "d": 110,
      "v": 79
    },
    {
      "midi": 79,
      "hit": false,
      "t": 13515,
      "d": 100,
      "v": 79
    },
    {
      "midi": 74,
      "hit": false,
      "t": 13535,
      "d": 70,
      "v": 79
    },
    {
      "midi": 69,
      "hit": false,
      "t": 13570,
      "d": 110,
      "v": 79
    },
    {
      "midi": 74,
      "hit": false,
      "t": 13575,
      "d": 105,
      "v": 79
    },
    {
      "midi": 81,
      "hit": false,
      "t": 13575,
      "d": 125,
      "v": 79
    },
    {
      "midi": 86,
      "hit": false,
      "t": 13635,
      "d": 110,
      "v": 80
    },
    {
      "midi": 93,
      "hit": false,
      "t": 13635,
      "d": 130,
      "v": 80
    },
    {
      "midi": 81,
      "hit": false,
      "t": 13640,
      "d": 95,
      "v": 80
    },
    {
      "midi": 67,
      "hit": false,
      "t": 13705,
      "d": 85,
      "v": 80
    },
    {
      "midi": 55,
      "hit": false,
      "t": 13705,
      "d": 105,
      "v": 80
    },
    {
      "midi": 62,
      "hit": false,
      "t": 13710,
      "d": 80,
      "v": 80
    },
    {
      "midi": 79,
      "hit": false,
      "t": 13760,
      "d": 85,
      "v": 80
    },
    {
      "midi": 67,
      "hit": false,
      "t": 13760,
      "d": 105,
      "v": 80
    },
    {
      "midi": 74,
      "hit": false,
      "t": 13785,
      "d": 80,
      "v": 80
    },
    {
      "midi": 69,
      "hit": false,
      "t": 13815,
      "d": 90,
      "v": 80
    },
    {
      "midi": 74,
      "hit": false,
      "t": 13815,
      "d": 95,
      "v": 80
    },
    {
      "midi": 81,
      "hit": false,
      "t": 13830,
      "d": 75,
      "v": 80
    },
    {
      "midi": 93,
      "hit": false,
      "t": 13840,
      "d": 90,
      "v": 80
    },
    {
      "midi": 81,
      "hit": false,
      "t": 13840,
      "d": 95,
      "v": 80
    },
    {
      "midi": 86,
      "hit": false,
      "t": 13840,
      "d": 100,
      "v": 80
    },
    {
      "midi": 55,
      "hit": false,
      "t": 13940,
      "d": 80,
      "v": 81
    },
    {
      "midi": 62,
      "hit": false,
      "t": 13940,
      "d": 80,
      "v": 81
    },
    {
      "midi": 67,
      "hit": false,
      "t": 13940,
      "d": 80,
      "v": 81
    },
    {
      "midi": 67,
      "hit": false,
      "t": 13990,
      "d": 95,
      "v": 81
    },
    {
      "midi": 79,
      "hit": false,
      "t": 13995,
      "d": 90,
      "v": 81
    },
    {
      "midi": 74,
      "hit": false,
      "t": 14015,
      "d": 65,
      "v": 81
    },
    {
      "midi": 69,
      "hit": false,
      "t": 14045,
      "d": 90,
      "v": 81
    },
    {
      "midi": 74,
      "hit": false,
      "t": 14045,
      "d": 105,
      "v": 81
    },
    {
      "midi": 81,
      "hit": false,
      "t": 14050,
      "d": 120,
      "v": 81
    },
    {
      "midi": 81,
      "hit": false,
      "t": 14065,
      "d": 100,
      "v": 81
    },
    {
      "midi": 86,
      "hit": false,
      "t": 14065,
      "d": 115,
      "v": 81
    },
    {
      "midi": 93,
      "hit": false,
      "t": 14080,
      "d": 100,
      "v": 81
    },
    {
      "midi": 55,
      "hit": false,
      "t": 14160,
      "d": 100,
      "v": 81
    },
    {
      "midi": 67,
      "hit": false,
      "t": 14165,
      "d": 80,
      "v": 81
    },
    {
      "midi": 62,
      "hit": false,
      "t": 14170,
      "d": 75,
      "v": 81
    },
    {
      "midi": 79,
      "hit": false,
      "t": 14230,
      "d": 105,
      "v": 81
    },
    {
      "midi": 67,
      "hit": false,
      "t": 14230,
      "d": 110,
      "v": 81
    },
    {
      "midi": 74,
      "hit": false,
      "t": 14255,
      "d": 80,
      "v": 82
    },
    {
      "midi": 69,
      "hit": false,
      "t": 14285,
      "d": 85,
      "v": 82
    },
    {
      "midi": 74,
      "hit": false,
      "t": 14285,
      "d": 90,
      "v": 82
    },
    {
      "midi": 81,
      "hit": false,
      "t": 14285,
      "d": 115,
      "v": 82
    },
    {
      "midi": 81,
      "hit": false,
      "t": 14315,
      "d": 115,
      "v": 82
    },
    {
      "midi": 86,
      "hit": false,
      "t": 14315,
      "d": 125,
      "v": 82
    },
    {
      "midi": 93,
      "hit": false,
      "t": 14335,
      "d": 110,
      "v": 82
    },
    {
      "midi": 67,
      "hit": false,
      "t": 14385,
      "d": 95,
      "v": 82
    },
    {
      "midi": 55,
      "hit": false,
      "t": 14385,
      "d": 120,
      "v": 82
    },
    {
      "midi": 62,
      "hit": false,
      "t": 14400,
      "d": 80,
      "v": 82
    },
    {
      "midi": 79,
      "hit": false,
      "t": 14475,
      "d": 90,
      "v": 82
    },
    {
      "midi": 67,
      "hit": false,
      "t": 14485,
      "d": 80,
      "v": 82
    },
    {
      "midi": 74,
      "hit": false,
      "t": 14485,
      "d": 80,
      "v": 82
    },
    {
      "midi": 69,
      "hit": false,
      "t": 14515,
      "d": 95,
      "v": 82
    },
    {
      "midi": 74,
      "hit": false,
      "t": 14515,
      "d": 95,
      "v": 82
    },
    {
      "midi": 81,
      "hit": false,
      "t": 14515,
      "d": 120,
      "v": 82
    },
    {
      "midi": 86,
      "hit": false,
      "t": 14595,
      "d": 110,
      "v": 83
    },
    {
      "midi": 81,
      "hit": false,
      "t": 14605,
      "d": 95,
      "v": 83
    },
    {
      "midi": 93,
      "hit": false,
      "t": 14620,
      "d": 70,
      "v": 83
    },
    {
      "midi": 67,
      "hit": false,
      "t": 14625,
      "d": 100,
      "v": 83
    },
    {
      "midi": 62,
      "hit": false,
      "t": 14635,
      "d": 90,
      "v": 83
    },
    {
      "midi": 55,
      "hit": false,
      "t": 14640,
      "d": 110,
      "v": 83
    },
    {
      "midi": 79,
      "hit": false,
      "t": 14720,
      "d": 80,
      "v": 83
    },
    {
      "midi": 74,
      "hit": false,
      "t": 14730,
      "d": 70,
      "v": 83
    },
    {
      "midi": 67,
      "hit": false,
      "t": 14730,
      "d": 85,
      "v": 83
    },
    {
      "midi": 69,
      "hit": false,
      "t": 14765,
      "d": 95,
      "v": 83
    },
    {
      "midi": 74,
      "hit": false,
      "t": 14765,
      "d": 95,
      "v": 83
    },
    {
      "midi": 81,
      "hit": false,
      "t": 14765,
      "d": 120,
      "v": 83
    },
    {
      "midi": 86,
      "hit": false,
      "t": 14845,
      "d": 105,
      "v": 83
    },
    {
      "midi": 81,
      "hit": false,
      "t": 14850,
      "d": 90,
      "v": 83
    },
    {
      "midi": 93,
      "hit": false,
      "t": 14855,
      "d": 85,
      "v": 83
    },
    {
      "midi": 62,
      "hit": false,
      "t": 14875,
      "d": 85,
      "v": 83
    },
    {
      "midi": 67,
      "hit": false,
      "t": 14875,
      "d": 85,
      "v": 83
    },
    {
      "midi": 55,
      "hit": false,
      "t": 14875,
      "d": 100,
      "v": 83
    },
    {
      "midi": 79,
      "hit": false,
      "t": 14955,
      "d": 85,
      "v": 84
    },
    {
      "midi": 67,
      "hit": false,
      "t": 14965,
      "d": 65,
      "v": 84
    },
    {
      "midi": 74,
      "hit": false,
      "t": 14975,
      "d": 40,
      "v": 84
    },
    {
      "midi": 74,
      "hit": false,
      "t": 14990,
      "d": 110,
      "v": 84
    },
    {
      "midi": 69,
      "hit": false,
      "t": 15000,
      "d": 95,
      "v": 84
    },
    {
      "midi": 81,
      "hit": false,
      "t": 15015,
      "d": 85,
      "v": 84
    },
    {
      "midi": 81,
      "hit": false,
      "t": 15090,
      "d": 90,
      "v": 84
    },
    {
      "midi": 86,
      "hit": false,
      "t": 15090,
      "d": 105,
      "v": 84
    },
    {
      "midi": 93,
      "hit": false,
      "t": 15095,
      "d": 110,
      "v": 84
    },
    {
      "midi": 55,
      "hit": false,
      "t": 15095,
      "d": 115,
      "v": 84
    },
    {
      "midi": 62,
      "hit": false,
      "t": 15125,
      "d": 70,
      "v": 84
    },
    {
      "midi": 67,
      "hit": false,
      "t": 15125,
      "d": 80,
      "v": 84
    },
    {
      "midi": 79,
      "hit": false,
      "t": 15180,
      "d": 55,
      "v": 84
    },
    {
      "midi": 74,
      "hit": false,
      "t": 15185,
      "d": 40,
      "v": 84
    },
    {
      "midi": 69,
      "hit": false,
      "t": 15225,
      "d": 105,
      "v": 85
    },
    {
      "midi": 74,
      "hit": false,
      "t": 15230,
      "d": 100,
      "v": 85
    },
    {
      "midi": 81,
      "hit": false,
      "t": 15230,
      "d": 130,
      "v": 85
    },
    {
      "midi": 81,
      "hit": false,
      "t": 15310,
      "d": 95,
      "v": 85
    },
    {
      "midi": 93,
      "hit": false,
      "t": 15315,
      "d": 90,
      "v": 85
    },
    {
      "midi": 86,
      "hit": false,
      "t": 15315,
      "d": 95,
      "v": 85
    },
    {
      "midi": 67,
      "hit": false,
      "t": 15350,
      "d": 100,
      "v": 85
    },
    {
      "midi": 55,
      "hit": false,
      "t": 15360,
      "d": 105,
      "v": 85
    },
    {
      "midi": 62,
      "hit": false,
      "t": 15365,
      "d": 90,
      "v": 85
    },
    {
      "midi": 67,
      "hit": false,
      "t": 15370,
      "d": 100,
      "v": 85
    },
    {
      "midi": 74,
      "hit": false,
      "t": 15385,
      "d": 70,
      "v": 85
    },
    {
      "midi": 79,
      "hit": false,
      "t": 15385,
      "d": 75,
      "v": 85
    },
    {
      "midi": 69,
      "hit": false,
      "t": 15475,
      "d": 80,
      "v": 85
    },
    {
      "midi": 74,
      "hit": false,
      "t": 15475,
      "d": 90,
      "v": 85
    },
    {
      "midi": 81,
      "hit": false,
      "t": 15480,
      "d": 85,
      "v": 85
    },
    {
      "midi": 81,
      "hit": false,
      "t": 15520,
      "d": 95,
      "v": 86
    },
    {
      "midi": 86,
      "hit": false,
      "t": 15520,
      "d": 115,
      "v": 86
    },
    {
      "midi": 93,
      "hit": false,
      "t": 15525,
      "d": 110,
      "v": 86
    },
    {
      "midi": 55,
      "hit": false,
      "t": 15585,
      "d": 115,
      "v": 86
    },
    {
      "midi": 62,
      "hit": false,
      "t": 15600,
      "d": 80,
      "v": 86
    },
    {
      "midi": 67,
      "hit": false,
      "t": 15600,
      "d": 85,
      "v": 86
    },
    {
      "midi": 79,
      "hit": false,
      "t": 15630,
      "d": 100,
      "v": 86
    },
    {
      "midi": 67,
      "hit": false,
      "t": 15630,
      "d": 120,
      "v": 86
    },
    {
      "midi": 74,
      "hit": false,
      "t": 15640,
      "d": 90,
      "v": 86
    },
    {
      "midi": 81,
      "hit": false,
      "t": 15680,
      "d": 150,
      "v": 86
    },
    {
      "midi": 69,
      "hit": false,
      "t": 15700,
      "d": 105,
      "v": 86
    },
    {
      "midi": 74,
      "hit": false,
      "t": 15700,
      "d": 110,
      "v": 86
    },
    {
      "midi": 86,
      "hit": false,
      "t": 15770,
      "d": 110,
      "v": 86
    },
    {
      "midi": 81,
      "hit": false,
      "t": 15775,
      "d": 90,
      "v": 86
    },
    {
      "midi": 93,
      "hit": false,
      "t": 15790,
      "d": 90,
      "v": 86
    },
    {
      "midi": 67,
      "hit": false,
      "t": 15815,
      "d": 110,
      "v": 86
    },
    {
      "midi": 62,
      "hit": false,
      "t": 15825,
      "d": 100,
      "v": 86
    },
    {
      "midi": 55,
      "hit": false,
      "t": 15830,
      "d": 95,
      "v": 86
    },
    {
      "midi": 79,
      "hit": false,
      "t": 15880,
      "d": 85,
      "v": 87
    },
    {
      "midi": 74,
      "hit": false,
      "t": 15895,
      "d": 60,
      "v": 87
    },
    {
      "midi": 67,
      "hit": false,
      "t": 15895,
      "d": 65,
      "v": 87
    },
    {
      "midi": 74,
      "hit": false,
      "t": 15940,
      "d": 110,
      "v": 87
    },
    {
      "midi": 81,
      "hit": false,
      "t": 15940,
      "d": 135,
      "v": 87
    },
    {
      "midi": 69,
      "hit": false,
      "t": 15945,
      "d": 100,
      "v": 87
    },
    {
      "midi": 81,
      "hit": false,
      "t": 16015,
      "d": 90,
      "v": 87
    },
    {
      "midi": 86,
      "hit": false,
      "t": 16015,
      "d": 105,
      "v": 87
    },
    {
      "midi": 93,
      "hit": false,
      "t": 16035,
      "d": 85,
      "v": 87
    },
    {
      "midi": 67,
      "hit": false,
      "t": 16060,
      "d": 105,
      "v": 87
    },
    {
      "midi": 55,
      "hit": false,
      "t": 16060,
      "d": 115,
      "v": 87
    },
    {
      "midi": 62,
      "hit": false,
      "t": 16070,
      "d": 90,
      "v": 87
    },
    {
      "midi": 79,
      "hit": false,
      "t": 16130,
      "d": 90,
      "v": 87
    },
    {
      "midi": 67,
      "hit": false,
      "t": 16130,
      "d": 105,
      "v": 87
    },
    {
      "midi": 74,
      "hit": false,
      "t": 16135,
      "d": 90,
      "v": 87
    },
    {
      "midi": 69,
      "hit": false,
      "t": 16180,
      "d": 100,
      "v": 88
    },
    {
      "midi": 74,
      "hit": false,
      "t": 16180,
      "d": 115,
      "v": 88
    },
    {
      "midi": 81,
      "hit": false,
      "t": 16180,
      "d": 145,
      "v": 88
    },
    {
      "midi": 81,
      "hit": false,
      "t": 16260,
      "d": 100,
      "v": 88
    },
    {
      "midi": 86,
      "hit": false,
      "t": 16260,
      "d": 105,
      "v": 88
    },
    {
      "midi": 93,
      "hit": false,
      "t": 16280,
      "d": 95,
      "v": 88
    },
    {
      "midi": 55,
      "hit": false,
      "t": 16300,
      "d": 120,
      "v": 88
    },
    {
      "midi": 67,
      "hit": false,
      "t": 16310,
      "d": 95,
      "v": 88
    },
    {
      "midi": 62,
      "hit": false,
      "t": 16315,
      "d": 90,
      "v": 88
    },
    {
      "midi": 79,
      "hit": false,
      "t": 16375,
      "d": 90,
      "v": 88
    },
    {
      "midi": 67,
      "hit": false,
      "t": 16390,
      "d": 75,
      "v": 88
    },
    {
      "midi": 74,
      "hit": false,
      "t": 16390,
      "d": 75,
      "v": 88
    },
    {
      "midi": 81,
      "hit": false,
      "t": 16415,
      "d": 140,
      "v": 88
    },
    {
      "midi": 74,
      "hit": false,
      "t": 16420,
      "d": 120,
      "v": 88
    },
    {
      "midi": 69,
      "hit": false,
      "t": 16435,
      "d": 85,
      "v": 88
    },
    {
      "midi": 86,
      "hit": false,
      "t": 16495,
      "d": 120,
      "v": 89
    },
    {
      "midi": 81,
      "hit": false,
      "t": 16505,
      "d": 85,
      "v": 89
    },
    {
      "midi": 93,
      "hit": false,
      "t": 16505,
      "d": 110,
      "v": 89
    },
    {
      "midi": 55,
      "hit": false,
      "t": 16530,
      "d": 135,
      "v": 89
    },
    {
      "midi": 67,
      "hit": false,
      "t": 16540,
      "d": 100,
      "v": 89
    },
    {
      "midi": 62,
      "hit": false,
      "t": 16545,
      "d": 90,
      "v": 89
    },
    {
      "midi": 67,
      "hit": false,
      "t": 16600,
      "d": 105,
      "v": 89
    },
    {
      "midi": 74,
      "hit": false,
      "t": 16610,
      "d": 90,
      "v": 89
    },
    {
      "midi": 79,
      "hit": false,
      "t": 16610,
      "d": 95,
      "v": 89
    },
    {
      "midi": 74,
      "hit": false,
      "t": 16665,
      "d": 105,
      "v": 89
    },
    {
      "midi": 81,
      "hit": false,
      "t": 16665,
      "d": 140,
      "v": 89
    },
    {
      "midi": 69,
      "hit": false,
      "t": 16670,
      "d": 100,
      "v": 89
    },
    {
      "midi": 86,
      "hit": false,
      "t": 16740,
      "d": 120,
      "v": 89
    },
    {
      "midi": 81,
      "hit": false,
      "t": 16745,
      "d": 95,
      "v": 89
    },
    {
      "midi": 93,
      "hit": false,
      "t": 16745,
      "d": 130,
      "v": 89
    },
    {
      "midi": 67,
      "hit": false,
      "t": 16785,
      "d": 100,
      "v": 89
    },
    {
      "midi": 55,
      "hit": false,
      "t": 16785,
      "d": 125,
      "v": 89
    },
    {
      "midi": 62,
      "hit": false,
      "t": 16790,
      "d": 95,
      "v": 89
    },
    {
      "midi": 79,
      "hit": false,
      "t": 16840,
      "d": 85,
      "v": 90
    },
    {
      "midi": 67,
      "hit": false,
      "t": 16840,
      "d": 90,
      "v": 90
    },
    {
      "midi": 74,
      "hit": false,
      "t": 16860,
      "d": 65,
      "v": 90
    },
    {
      "midi": 81,
      "hit": false,
      "t": 16900,
      "d": 145,
      "v": 90
    },
    {
      "midi": 69,
      "hit": false,
      "t": 16905,
      "d": 100,
      "v": 90
    },
    {
      "midi": 74,
      "hit": false,
      "t": 16905,
      "d": 105,
      "v": 90
    },
    {
      "midi": 93,
      "hit": false,
      "t": 16975,
      "d": 135,
      "v": 90
    },
    {
      "midi": 81,
      "hit": false,
      "t": 16980,
      "d": 90,
      "v": 90
    },
    {
      "midi": 86,
      "hit": false,
      "t": 16980,
      "d": 115,
      "v": 90
    },
    {
      "midi": 67,
      "hit": false,
      "t": 17045,
      "d": 85,
      "v": 90
    },
    {
      "midi": 55,
      "hit": false,
      "t": 17045,
      "d": 105,
      "v": 90
    },
    {
      "midi": 62,
      "hit": false,
      "t": 17050,
      "d": 80,
      "v": 90
    },
    {
      "midi": 79,
      "hit": false,
      "t": 17065,
      "d": 110,
      "v": 90
    },
    {
      "midi": 67,
      "hit": false,
      "t": 17070,
      "d": 115,
      "v": 90
    },
    {
      "midi": 74,
      "hit": false,
      "t": 17090,
      "d": 85,
      "v": 90
    },
    {
      "midi": 74,
      "hit": false,
      "t": 17145,
      "d": 120,
      "v": 90
    },
    {
      "midi": 81,
      "hit": false,
      "t": 17145,
      "d": 145,
      "v": 90
    },
    {
      "midi": 69,
      "hit": false,
      "t": 17155,
      "d": 105,
      "v": 90
    },
    {
      "midi": 81,
      "hit": false,
      "t": 17215,
      "d": 95,
      "v": 90
    },
    {
      "midi": 86,
      "hit": false,
      "t": 17215,
      "d": 110,
      "v": 90
    },
    {
      "midi": 93,
      "hit": false,
      "t": 17215,
      "d": 120,
      "v": 90
    },
    {
      "midi": 67,
      "hit": false,
      "t": 17275,
      "d": 100,
      "v": 90
    },
    {
      "midi": 55,
      "hit": false,
      "t": 17275,
      "d": 110,
      "v": 90
    },
    {
      "midi": 62,
      "hit": false,
      "t": 17280,
      "d": 90,
      "v": 90
    },
    {
      "midi": 79,
      "hit": false,
      "t": 17335,
      "d": 100,
      "v": 90
    },
    {
      "midi": 67,
      "hit": false,
      "t": 17335,
      "d": 115,
      "v": 90
    },
    {
      "midi": 74,
      "hit": false,
      "t": 17355,
      "d": 80,
      "v": 90
    },
    {
      "midi": 81,
      "hit": false,
      "t": 17385,
      "d": 140,
      "v": 90
    },
    {
      "midi": 69,
      "hit": false,
      "t": 17390,
      "d": 115,
      "v": 90
    },
    {
      "midi": 74,
      "hit": false,
      "t": 17390,
      "d": 115,
      "v": 90
    },
    {
      "midi": 81,
      "hit": false,
      "t": 17465,
      "d": 100,
      "v": 90
    },
    {
      "midi": 86,
      "hit": false,
      "t": 17465,
      "d": 110,
      "v": 90
    },
    {
      "midi": 93,
      "hit": false,
      "t": 17490,
      "d": 90,
      "v": 90
    },
    {
      "midi": 67,
      "hit": false,
      "t": 17520,
      "d": 100,
      "v": 90
    },
    {
      "midi": 55,
      "hit": false,
      "t": 17520,
      "d": 120,
      "v": 90
    },
    {
      "midi": 62,
      "hit": false,
      "t": 17530,
      "d": 90,
      "v": 90
    },
    {
      "midi": 79,
      "hit": false,
      "t": 17595,
      "d": 90,
      "v": 90
    },
    {
      "midi": 67,
      "hit": false,
      "t": 17595,
      "d": 125,
      "v": 90
    },
    {
      "midi": 74,
      "hit": false,
      "t": 17615,
      "d": 85,
      "v": 90
    },
    {
      "midi": 74,
      "hit": false,
      "t": 17630,
      "d": 110,
      "v": 90
    },
    {
      "midi": 81,
      "hit": false,
      "t": 17630,
      "d": 135,
      "v": 90
    },
    {
      "midi": 69,
      "hit": false,
      "t": 17635,
      "d": 105,
      "v": 90
    },
    {
      "midi": 81,
      "hit": false,
      "t": 17740,
      "d": 95,
      "v": 90
    },
    {
      "midi": 86,
      "hit": false,
      "t": 17740,
      "d": 105,
      "v": 90
    },
    {
      "midi": 67,
      "hit": false,
      "t": 17760,
      "d": 100,
      "v": 90
    },
    {
      "midi": 62,
      "hit": false,
      "t": 17760,
      "d": 105,
      "v": 90
    },
    {
      "midi": 55,
      "hit": false,
      "t": 17760,
      "d": 120,
      "v": 90
    },
    {
      "midi": 93,
      "hit": false,
      "t": 17765,
      "d": 80,
      "v": 90
    },
    {
      "midi": 79,
      "hit": false,
      "t": 17840,
      "d": 120,
      "v": 90
    },
    {
      "midi": 67,
      "hit": false,
      "t": 17845,
      "d": 140,
      "v": 90
    },
    {
      "midi": 74,
      "hit": false,
      "t": 17870,
      "d": 90,
      "v": 90
    },
    {
      "midi": 74,
      "hit": false,
      "t": 17880,
      "d": 110,
      "v": 90
    },
    {
      "midi": 81,
      "hit": false,
      "t": 17880,
      "d": 155,
      "v": 90
    },
    {
      "midi": 69,
      "hit": false,
      "t": 17885,
      "d": 105,
      "v": 90
    },
    {
      "midi": 55,
      "hit": false,
      "t": 18000,
      "d": 140,
      "v": 90
    },
    {
      "midi": 67,
      "hit": false,
      "t": 18005,
      "d": 105,
      "v": 90
    },
    {
      "midi": 81,
      "hit": false,
      "t": 18015,
      "d": 85,
      "v": 90
    },
    {
      "midi": 86,
      "hit": false,
      "t": 18015,
      "d": 100,
      "v": 90
    },
    {
      "midi": 62,
      "hit": false,
      "t": 18020,
      "d": 85,
      "v": 90
    },
    {
      "midi": 93,
      "hit": false,
      "t": 18035,
      "d": 80,
      "v": 90
    },
    {
      "midi": 74,
      "hit": false,
      "t": 18120,
      "d": 115,
      "v": 90
    },
    {
      "midi": 81,
      "hit": false,
      "t": 18120,
      "d": 145,
      "v": 90
    },
    {
      "midi": 79,
      "hit": false,
      "t": 18125,
      "d": 100,
      "v": 90
    },
    {
      "midi": 67,
      "hit": false,
      "t": 18125,
      "d": 115,
      "v": 90
    },
    {
      "midi": 69,
      "hit": false,
      "t": 18140,
      "d": 85,
      "v": 90
    },
    {
      "midi": 74,
      "hit": false,
      "t": 18145,
      "d": 80,
      "v": 90
    },
    {
      "midi": 55,
      "hit": false,
      "t": 18255,
      "d": 115,
      "v": 90
    },
    {
      "midi": 62,
      "hit": false,
      "t": 18260,
      "d": 95,
      "v": 90
    },
    {
      "midi": 67,
      "hit": false,
      "t": 18260,
      "d": 100,
      "v": 90
    },
    {
      "midi": 81,
      "hit": false,
      "t": 18270,
      "d": 90,
      "v": 90
    },
    {
      "midi": 86,
      "hit": false,
      "t": 18270,
      "d": 100,
      "v": 90
    },
    {
      "midi": 93,
      "hit": false,
      "t": 18290,
      "d": 85,
      "v": 90
    },
    {
      "midi": 74,
      "hit": false,
      "t": 18355,
      "d": 125,
      "v": 90
    },
    {
      "midi": 81,
      "hit": false,
      "t": 18355,
      "d": 145,
      "v": 90
    },
    {
      "midi": 69,
      "hit": false,
      "t": 18370,
      "d": 100,
      "v": 90
    },
    {
      "midi": 67,
      "hit": false,
      "t": 18385,
      "d": 80,
      "v": 90
    },
    {
      "midi": 79,
      "hit": false,
      "t": 18385,
      "d": 80,
      "v": 90
    },
    {
      "midi": 74,
      "hit": false,
      "t": 18405,
      "d": 60,
      "v": 90
    },
    {
      "midi": 55,
      "hit": false,
      "t": 18475,
      "d": 150,
      "v": 90
    },
    {
      "midi": 67,
      "hit": false,
      "t": 18490,
      "d": 105,
      "v": 90
    },
    {
      "midi": 62,
      "hit": false,
      "t": 18500,
      "d": 85,
      "v": 90
    },
    {
      "midi": 86,
      "hit": false,
      "t": 18520,
      "d": 115,
      "v": 90
    },
    {
      "midi": 81,
      "hit": false,
      "t": 18525,
      "d": 90,
      "v": 90
    },
    {
      "midi": 93,
      "hit": false,
      "t": 18540,
      "d": 95,
      "v": 90
    },
    {
      "midi": 81,
      "hit": false,
      "t": 18595,
      "d": 140,
      "v": 90
    },
    {
      "midi": 74,
      "hit": false,
      "t": 18600,
      "d": 115,
      "v": 90
    },
    {
      "midi": 69,
      "hit": false,
      "t": 18605,
      "d": 105,
      "v": 90
    },
    {
      "midi": 67,
      "hit": false,
      "t": 18615,
      "d": 130,
      "v": 90
    },
    {
      "midi": 79,
      "hit": false,
      "t": 18630,
      "d": 85,
      "v": 90
    },
    {
      "midi": 74,
      "hit": false,
      "t": 18635,
      "d": 90,
      "v": 90
    },
    {
      "midi": 67,
      "hit": false,
      "t": 18725,
      "d": 115,
      "v": 90
    },
    {
      "midi": 55,
      "hit": false,
      "t": 18725,
      "d": 120,
      "v": 90
    },
    {
      "midi": 62,
      "hit": false,
      "t": 18740,
      "d": 95,
      "v": 90
    },
    {
      "midi": 81,
      "hit": false,
      "t": 18780,
      "d": 95,
      "v": 90
    },
    {
      "midi": 86,
      "hit": false,
      "t": 18780,
      "d": 120,
      "v": 90
    },
    {
      "midi": 93,
      "hit": false,
      "t": 18795,
      "d": 105,
      "v": 90
    },
    {
      "midi": 69,
      "hit": false,
      "t": 18855,
      "d": 105,
      "v": 90
    },
    {
      "midi": 74,
      "hit": false,
      "t": 18855,
      "d": 105,
      "v": 90
    },
    {
      "midi": 81,
      "hit": false,
      "t": 18855,
      "d": 130,
      "v": 90
    },
    {
      "midi": 79,
      "hit": false,
      "t": 18875,
      "d": 90,
      "v": 90
    },
    {
      "midi": 67,
      "hit": false,
      "t": 18875,
      "d": 100,
      "v": 90
    },
    {
      "midi": 74,
      "hit": false,
      "t": 18900,
      "d": 75,
      "v": 90
    },
    {
      "midi": 55,
      "hit": false,
      "t": 18950,
      "d": 115,
      "v": 90
    },
    {
      "midi": 62,
      "hit": false,
      "t": 18975,
      "d": 70,
      "v": 90
    },
    {
      "midi": 67,
      "hit": false,
      "t": 18980,
      "d": 65,
      "v": 90
    },
    {
      "midi": 81,
      "hit": false,
      "t": 19020,
      "d": 95,
      "v": 90
    },
    {
      "midi": 86,
      "hit": false,
      "t": 19020,
      "d": 105,
      "v": 90
    },
    {
      "midi": 93,
      "hit": false,
      "t": 19040,
      "d": 90,
      "v": 90
    },
    {
      "midi": 69,
      "hit": false,
      "t": 19090,
      "d": 105,
      "v": 90
    },
    {
      "midi": 74,
      "hit": false,
      "t": 19090,
      "d": 110,
      "v": 90
    },
    {
      "midi": 81,
      "hit": false,
      "t": 19090,
      "d": 140,
      "v": 90
    },
    {
      "midi": 79,
      "hit": false,
      "t": 19125,
      "d": 90,
      "v": 90
    },
    {
      "midi": 74,
      "hit": false,
      "t": 19130,
      "d": 95,
      "v": 90
    },
    {
      "midi": 67,
      "hit": false,
      "t": 19130,
      "d": 100,
      "v": 90
    },
    {
      "midi": 67,
      "hit": false,
      "t": 19185,
      "d": 120,
      "v": 90
    },
    {
      "midi": 55,
      "hit": false,
      "t": 19185,
      "d": 130,
      "v": 90
    },
    {
      "midi": 62,
      "hit": false,
      "t": 19200,
      "d": 95,
      "v": 90
    },
    {
      "midi": 81,
      "hit": false,
      "t": 19250,
      "d": 95,
      "v": 90
    },
    {
      "midi": 86,
      "hit": false,
      "t": 19250,
      "d": 105,
      "v": 90
    },
    {
      "midi": 93,
      "hit": false,
      "t": 19255,
      "d": 115,
      "v": 90
    },
    {
      "midi": 74,
      "hit": false,
      "t": 19320,
      "d": 115,
      "v": 90
    },
    {
      "midi": 81,
      "hit": false,
      "t": 19320,
      "d": 140,
      "v": 90
    },
    {
      "midi": 69,
      "hit": false,
      "t": 19325,
      "d": 110,
      "v": 90
    },
    {
      "midi": 79,
      "hit": false,
      "t": 19375,
      "d": 110,
      "v": 90
    },
    {
      "midi": 67,
      "hit": false,
      "t": 19375,
      "d": 150,
      "v": 90
    },
    {
      "midi": 74,
      "hit": false,
      "t": 19400,
      "d": 85,
      "v": 90
    },
    {
      "midi": 67,
      "hit": false,
      "t": 19440,
      "d": 100,
      "v": 90
    },
    {
      "midi": 62,
      "hit": false,
      "t": 19440,
      "d": 110,
      "v": 90
    },
    {
      "midi": 55,
      "hit": false,
      "t": 19440,
      "d": 120,
      "v": 90
    },
    {
      "midi": 81,
      "hit": false,
      "t": 19490,
      "d": 110,
      "v": 90
    },
    {
      "midi": 86,
      "hit": false,
      "t": 19490,
      "d": 110,
      "v": 90
    },
    {
      "midi": 93,
      "hit": false,
      "t": 19490,
      "d": 120,
      "v": 90
    },
    {
      "midi": 69,
      "hit": false,
      "t": 19570,
      "d": 110,
      "v": 90
    },
    {
      "midi": 74,
      "hit": false,
      "t": 19570,
      "d": 110,
      "v": 90
    },
    {
      "midi": 81,
      "hit": false,
      "t": 19575,
      "d": 140,
      "v": 90
    },
    {
      "midi": 79,
      "hit": false,
      "t": 19650,
      "d": 100,
      "v": 90
    },
    {
      "midi": 67,
      "hit": false,
      "t": 19650,
      "d": 140,
      "v": 90
    },
    {
      "midi": 74,
      "hit": false,
      "t": 19655,
      "d": 100,
      "v": 90
    },
    {
      "midi": 55,
      "hit": false,
      "t": 19685,
      "d": 120,
      "v": 90
    },
    {
      "midi": 67,
      "hit": false,
      "t": 19695,
      "d": 95,
      "v": 90
    },
    {
      "midi": 62,
      "hit": false,
      "t": 19700,
      "d": 90,
      "v": 90
    },
    {
      "midi": 86,
      "hit": false,
      "t": 19755,
      "d": 100,
      "v": 90
    },
    {
      "midi": 81,
      "hit": false,
      "t": 19760,
      "d": 90,
      "v": 90
    },
    {
      "midi": 93,
      "hit": false,
      "t": 19760,
      "d": 120,
      "v": 90
    },
    {
      "midi": 69,
      "hit": false,
      "t": 19815,
      "d": 120,
      "v": 90
    },
    {
      "midi": 81,
      "hit": false,
      "t": 19815,
      "d": 135,
      "v": 90
    },
    {
      "midi": 74,
      "hit": false,
      "t": 19820,
      "d": 105,
      "v": 90
    },
    {
      "midi": 79,
      "hit": false,
      "t": 19900,
      "d": 90,
      "v": 90
    },
    {
      "midi": 74,
      "hit": false,
      "t": 19900,
      "d": 105,
      "v": 90
    },
    {
      "midi": 67,
      "hit": false,
      "t": 19900,
      "d": 110,
      "v": 90
    },
    {
      "midi": 67,
      "hit": false,
      "t": 19940,
      "d": 110,
      "v": 90
    },
    {
      "midi": 55,
      "hit": false,
      "t": 19940,
      "d": 130,
      "v": 90
    },
    {
      "midi": 62,
      "hit": false,
      "t": 19950,
      "d": 100,
      "v": 90
    },
    {
      "midi": 86,
      "hit": false,
      "t": 20005,
      "d": 110,
      "v": 90
    },
    {
      "midi": 81,
      "hit": false,
      "t": 20005,
      "d": 115,
      "v": 90
    },
    {
      "midi": 93,
      "hit": false,
      "t": 20010,
      "d": 130,
      "v": 90
    },
    {
      "midi": 81,
      "hit": false,
      "t": 20060,
      "d": 150,
      "v": 90
    },
    {
      "midi": 69,
      "hit": false,
      "t": 20070,
      "d": 95,
      "v": 90
    },
    {
      "midi": 74,
      "hit": false,
      "t": 20070,
      "d": 110,
      "v": 90
    },
    {
      "midi": 79,
      "hit": false,
      "t": 20145,
      "d": 90,
      "v": 90
    },
    {
      "midi": 67,
      "hit": false,
      "t": 20145,
      "d": 120,
      "v": 90
    },
    {
      "midi": 74,
      "hit": false,
      "t": 20165,
      "d": 75,
      "v": 90
    },
    {
      "midi": 55,
      "hit": false,
      "t": 20200,
      "d": 115,
      "v": 90
    },
    {
      "midi": 67,
      "hit": false,
      "t": 20210,
      "d": 85,
      "v": 90
    },
    {
      "midi": 62,
      "hit": false,
      "t": 20210,
      "d": 105,
      "v": 90
    },
    {
      "midi": 86,
      "hit": false,
      "t": 20260,
      "d": 105,
      "v": 90
    },
    {
      "midi": 81,
      "hit": false,
      "t": 20260,
      "d": 115,
      "v": 90
    },
    {
      "midi": 93,
      "hit": false,
      "t": 20260,
      "d": 130,
      "v": 90
    },
    {
      "midi": 74,
      "hit": false,
      "t": 20315,
      "d": 125,
      "v": 90
    },
    {
      "midi": 81,
      "hit": false,
      "t": 20315,
      "d": 140,
      "v": 90
    },
    {
      "midi": 69,
      "hit": false,
      "t": 20325,
      "d": 115,
      "v": 90
    },
    {
      "midi": 67,
      "hit": false,
      "t": 20410,
      "d": 135,
      "v": 90
    },
    {
      "midi": 79,
      "hit": false,
      "t": 20415,
      "d": 85,
      "v": 90
    },
    {
      "midi": 74,
      "hit": false,
      "t": 20415,
      "d": 95,
      "v": 90
    },
    {
      "midi": 67,
      "hit": false,
      "t": 20465,
      "d": 110,
      "v": 90
    },
    {
      "midi": 62,
      "hit": false,
      "t": 20470,
      "d": 95,
      "v": 90
    },
    {
      "midi": 55,
      "hit": false,
      "t": 20470,
      "d": 115,
      "v": 90
    },
    {
      "midi": 81,
      "hit": false,
      "t": 20515,
      "d": 115,
      "v": 90
    },
    {
      "midi": 93,
      "hit": false,
      "t": 20515,
      "d": 135,
      "v": 90
    },
    {
      "midi": 86,
      "hit": false,
      "t": 20520,
      "d": 105,
      "v": 90
    },
    {
      "midi": 69,
      "hit": false,
      "t": 20570,
      "d": 115,
      "v": 90
    },
    {
      "midi": 74,
      "hit": false,
      "t": 20575,
      "d": 110,
      "v": 90
    },
    {
      "midi": 81,
      "hit": false,
      "t": 20575,
      "d": 150,
      "v": 90
    },
    {
      "midi": 74,
      "hit": false,
      "t": 20660,
      "d": 95,
      "v": 90
    },
    {
      "midi": 79,
      "hit": false,
      "t": 20660,
      "d": 95,
      "v": 90
    },
    {
      "midi": 67,
      "hit": false,
      "t": 20660,
      "d": 120,
      "v": 90
    },
    {
      "midi": 67,
      "hit": false,
      "t": 20710,
      "d": 105,
      "v": 90
    },
    {
      "midi": 62,
      "hit": false,
      "t": 20730,
      "d": 80,
      "v": 90
    },
    {
      "midi": 55,
      "hit": false,
      "t": 20730,
      "d": 100,
      "v": 90
    },
    {
      "midi": 81,
      "hit": false,
      "t": 20780,
      "d": 100,
      "v": 90
    },
    {
      "midi": 93,
      "hit": false,
      "t": 20780,
      "d": 130,
      "v": 90
    },
    {
      "midi": 86,
      "hit": false,
      "t": 20785,
      "d": 95,
      "v": 90
    },
    {
      "midi": 74,
      "hit": false,
      "t": 20810,
      "d": 105,
      "v": 90
    },
    {
      "midi": 69,
      "hit": false,
      "t": 20815,
      "d": 100,
      "v": 90
    },
    {
      "midi": 81,
      "hit": false,
      "t": 20815,
      "d": 135,
      "v": 90
    },
    {
      "midi": 79,
      "hit": false,
      "t": 20925,
      "d": 90,
      "v": 90
    },
    {
      "midi": 74,
      "hit": false,
      "t": 20925,
      "d": 95,
      "v": 90
    },
    {
      "midi": 67,
      "hit": false,
      "t": 20925,
      "d": 140,
      "v": 90
    },
    {
      "midi": 62,
      "hit": false,
      "t": 20970,
      "d": 110,
      "v": 90
    },
    {
      "midi": 55,
      "hit": false,
      "t": 20980,
      "d": 115,
      "v": 90
    },
    {
      "midi": 67,
      "hit": false,
      "t": 20985,
      "d": 90,
      "v": 90
    },
    {
      "midi": 93,
      "hit": false,
      "t": 21035,
      "d": 135,
      "v": 90
    },
    {
      "midi": 81,
      "hit": false,
      "t": 21040,
      "d": 95,
      "v": 90
    },
    {
      "midi": 86,
      "hit": false,
      "t": 21040,
      "d": 100,
      "v": 90
    },
    {
      "midi": 69,
      "hit": false,
      "t": 21040,
      "d": 100,
      "v": 90
    },
    {
      "midi": 74,
      "hit": false,
      "t": 21040,
      "d": 110,
      "v": 90
    },
    {
      "midi": 81,
      "hit": false,
      "t": 21040,
      "d": 135,
      "v": 90
    },
    {
      "midi": 79,
      "hit": false,
      "t": 21175,
      "d": 90,
      "v": 90
    },
    {
      "midi": 74,
      "hit": false,
      "t": 21175,
      "d": 105,
      "v": 90
    },
    {
      "midi": 67,
      "hit": false,
      "t": 21175,
      "d": 110,
      "v": 90
    },
    {
      "midi": 67,
      "hit": false,
      "t": 21210,
      "d": 105,
      "v": 90
    },
    {
      "midi": 62,
      "hit": false,
      "t": 21215,
      "d": 100,
      "v": 90
    },
    {
      "midi": 55,
      "hit": false,
      "t": 21220,
      "d": 95,
      "v": 90
    },
    {
      "midi": 81,
      "hit": false,
      "t": 21255,
      "d": 155,
      "v": 90
    },
    {
      "midi": 69,
      "hit": false,
      "t": 21260,
      "d": 105,
      "v": 90
    },
    {
      "midi": 74,
      "hit": false,
      "t": 21260,
      "d": 115,
      "v": 90
    },
    {
      "midi": 86,
      "hit": false,
      "t": 21280,
      "d": 105,
      "v": 90
    },
    {
      "midi": 81,
      "hit": false,
      "t": 21285,
      "d": 100,
      "v": 90
    },
    {
      "midi": 93,
      "hit": false,
      "t": 21285,
      "d": 115,
      "v": 90
    },
    {
      "midi": 67,
      "hit": false,
      "t": 21415,
      "d": 125,
      "v": 90
    },
    {
      "midi": 79,
      "hit": false,
      "t": 21420,
      "d": 95,
      "v": 90
    },
    {
      "midi": 55,
      "hit": false,
      "t": 21420,
      "d": 105,
      "v": 90
    },
    {
      "midi": 74,
      "hit": false,
      "t": 21440,
      "d": 100,
      "v": 90
    },
    {
      "midi": 67,
      "hit": false,
      "t": 21445,
      "d": 75,
      "v": 90
    },
    {
      "midi": 62,
      "hit": false,
      "t": 21445,
      "d": 80,
      "v": 90
    },
    {
      "midi": 93,
      "hit": false,
      "t": 21505,
      "d": 140,
      "v": 90
    },
    {
      "midi": 81,
      "hit": false,
      "t": 21515,
      "d": 100,
      "v": 90
    },
    {
      "midi": 86,
      "hit": false,
      "t": 21515,
      "d": 100,
      "v": 90
    },
    {
      "midi": 74,
      "hit": false,
      "t": 21515,
      "d": 115,
      "v": 90
    },
    {
      "midi": 81,
      "hit": false,
      "t": 21515,
      "d": 140,
      "v": 90
    },
    {
      "midi": 69,
      "hit": false,
      "t": 21525,
      "d": 100,
      "v": 90
    },
    {
      "midi": 67,
      "hit": false,
      "t": 21665,
      "d": 90,
      "v": 90
    },
    {
      "midi": 79,
      "hit": false,
      "t": 21675,
      "d": 75,
      "v": 90
    },
    {
      "midi": 62,
      "hit": false,
      "t": 21675,
      "d": 80,
      "v": 90
    },
    {
      "midi": 55,
      "hit": false,
      "t": 21675,
      "d": 95,
      "v": 90
    },
    {
      "midi": 74,
      "hit": false,
      "t": 21680,
      "d": 70,
      "v": 90
    },
    {
      "midi": 67,
      "hit": false,
      "t": 21700,
      "d": 50,
      "v": 90
    },
    {
      "midi": 93,
      "hit": false,
      "t": 21710,
      "d": 140,
      "v": 90
    },
    {
      "midi": 81,
      "hit": false,
      "t": 21730,
      "d": 100,
      "v": 90
    },
    {
      "midi": 86,
      "hit": false,
      "t": 21730,
      "d": 115,
      "v": 90
    },
    {
      "midi": 69,
      "hit": false,
      "t": 21765,
      "d": 125,
      "v": 90
    },
    {
      "midi": 74,
      "hit": false,
      "t": 21770,
      "d": 120,
      "v": 90
    },
    {
      "midi": 81,
      "hit": false,
      "t": 21770,
      "d": 145,
      "v": 90
    },
    {
      "midi": 79,
      "hit": false,
      "t": 21860,
      "d": 95,
      "v": 90
    },
    {
      "midi": 67,
      "hit": false,
      "t": 21860,
      "d": 110,
      "v": 90
    },
    {
      "midi": 74,
      "hit": false,
      "t": 21865,
      "d": 90,
      "v": 90
    },
    {
      "midi": 67,
      "hit": false,
      "t": 21915,
      "d": 95,
      "v": 90
    },
    {
      "midi": 62,
      "hit": false,
      "t": 21920,
      "d": 85,
      "v": 90
    },
    {
      "midi": 55,
      "hit": false,
      "t": 21920,
      "d": 95,
      "v": 90
    },
    {
      "midi": 81,
      "hit": false,
      "t": 21975,
      "d": 105,
      "v": 90
    },
    {
      "midi": 86,
      "hit": false,
      "t": 21975,
      "d": 105,
      "v": 90
    },
    {
      "midi": 93,
      "hit": false,
      "t": 21975,
      "d": 125,
      "v": 90
    },
    {
      "midi": 81,
      "hit": false,
      "t": 22005,
      "d": 140,
      "v": 90
    },
    {
      "midi": 74,
      "hit": false,
      "t": 22010,
      "d": 100,
      "v": 90
    },
    {
      "midi": 69,
      "hit": false,
      "t": 22015,
      "d": 90,
      "v": 90
    },
    {
      "midi": 79,
      "hit": false,
      "t": 22115,
      "d": 90,
      "v": 90
    },
    {
      "midi": 74,
      "hit": false,
      "t": 22115,
      "d": 95,
      "v": 90
    },
    {
      "midi": 67,
      "hit": false,
      "t": 22120,
      "d": 100,
      "v": 90
    },
    {
      "midi": 55,
      "hit": false,
      "t": 22165,
      "d": 95,
      "v": 90
    },
    {
      "midi": 67,
      "hit": false,
      "t": 22165,
      "d": 100,
      "v": 90
    },
    {
      "midi": 62,
      "hit": false,
      "t": 22170,
      "d": 90,
      "v": 90
    },
    {
      "midi": 81,
      "hit": false,
      "t": 22230,
      "d": 100,
      "v": 90
    },
    {
      "midi": 86,
      "hit": false,
      "t": 22230,
      "d": 110,
      "v": 90
    },
    {
      "midi": 93,
      "hit": false,
      "t": 22230,
      "d": 125,
      "v": 90
    },
    {
      "midi": 81,
      "hit": false,
      "t": 22255,
      "d": 150,
      "v": 90
    },
    {
      "midi": 74,
      "hit": false,
      "t": 22260,
      "d": 115,
      "v": 90
    },
    {
      "midi": 69,
      "hit": false,
      "t": 22265,
      "d": 95,
      "v": 90
    },
    {
      "midi": 74,
      "hit": false,
      "t": 22380,
      "d": 90,
      "v": 90
    },
    {
      "midi": 79,
      "hit": false,
      "t": 22380,
      "d": 90,
      "v": 90
    },
    {
      "midi": 67,
      "hit": false,
      "t": 22380,
      "d": 110,
      "v": 90
    },
    {
      "midi": 62,
      "hit": false,
      "t": 22410,
      "d": 110,
      "v": 90
    },
    {
      "midi": 67,
      "hit": false,
      "t": 22410,
      "d": 110,
      "v": 90
    },
    {
      "midi": 55,
      "hit": false,
      "t": 22410,
      "d": 120,
      "v": 90
    },
    {
      "midi": 81,
      "hit": false,
      "t": 22495,
      "d": 80,
      "v": 90
    },
    {
      "midi": 86,
      "hit": false,
      "t": 22495,
      "d": 90,
      "v": 90
    },
    {
      "midi": 93,
      "hit": false,
      "t": 22495,
      "d": 110,
      "v": 90
    },
    {
      "midi": 74,
      "hit": false,
      "t": 22525,
      "d": 95,
      "v": 90
    },
    {
      "midi": 81,
      "hit": false,
      "t": 22525,
      "d": 120,
      "v": 90
    },
    {
      "midi": 69,
      "hit": false,
      "t": 22530,
      "d": 90,
      "v": 90
    },
    {
      "midi": 74,
      "hit": false,
      "t": 22645,
      "d": 80,
      "v": 90
    },
    {
      "midi": 79,
      "hit": false,
      "t": 22645,
      "d": 85,
      "v": 90
    },
    {
      "midi": 67,
      "hit": false,
      "t": 22665,
      "d": 60,
      "v": 90
    },
    {
      "midi": 67,
      "hit": false,
      "t": 22665,
      "d": 95,
      "v": 90
    },
    {
      "midi": 62,
      "hit": false,
      "t": 22680,
      "d": 85,
      "v": 90
    },
    {
      "midi": 55,
      "hit": false,
      "t": 22680,
      "d": 90,
      "v": 90
    },
    {
      "midi": 81,
      "hit": false,
      "t": 22740,
      "d": 95,
      "v": 90
    },
    {
      "midi": 86,
      "hit": false,
      "t": 22740,
      "d": 95,
      "v": 90
    },
    {
      "midi": 93,
      "hit": false,
      "t": 22760,
      "d": 90,
      "v": 90
    },
    {
      "midi": 74,
      "hit": false,
      "t": 22765,
      "d": 100,
      "v": 90
    },
    {
      "midi": 81,
      "hit": false,
      "t": 22765,
      "d": 120,
      "v": 90
    },
    {
      "midi": 69,
      "hit": false,
      "t": 22770,
      "d": 85,
      "v": 90
    },
    {
      "midi": 74,
      "hit": false,
      "t": 22915,
      "d": 75,
      "v": 90
    },
    {
      "midi": 79,
      "hit": false,
      "t": 22915,
      "d": 75,
      "v": 90
    },
    {
      "midi": 67,
      "hit": false,
      "t": 22915,
      "d": 95,
      "v": 90
    },
    {
      "midi": 67,
      "hit": false,
      "t": 22915,
      "d": 85,
      "v": 90
    },
    {
      "midi": 55,
      "hit": false,
      "t": 22920,
      "d": 75,
      "v": 90
    },
    {
      "midi": 62,
      "hit": false,
      "t": 22920,
      "d": 75,
      "v": 90
    },
    {
      "midi": 81,
      "hit": false,
      "t": 22990,
      "d": 115,
      "v": 90
    },
    {
      "midi": 74,
      "hit": false,
      "t": 22995,
      "d": 100,
      "v": 90
    },
    {
      "midi": 69,
      "hit": false,
      "t": 23000,
      "d": 90,
      "v": 90
    },
    {
      "midi": 81,
      "hit": false,
      "t": 23005,
      "d": 100,
      "v": 90
    },
    {
      "midi": 86,
      "hit": false,
      "t": 23005,
      "d": 100,
      "v": 90
    },
    {
      "midi": 93,
      "hit": false,
      "t": 23005,
      "d": 120,
      "v": 90
    },
    {
      "midi": 67,
      "hit": false,
      "t": 23135,
      "d": 95,
      "v": 90
    },
    {
      "midi": 55,
      "hit": false,
      "t": 23140,
      "d": 90,
      "v": 90
    },
    {
      "midi": 62,
      "hit": false,
      "t": 23145,
      "d": 75,
      "v": 90
    },
    {
      "midi": 79,
      "hit": false,
      "t": 23180,
      "d": 75,
      "v": 90
    },
    {
      "midi": 74,
      "hit": false,
      "t": 23180,
      "d": 80,
      "v": 90
    },
    {
      "midi": 67,
      "hit": false,
      "t": 23180,
      "d": 105,
      "v": 90
    },
    {
      "midi": 69,
      "hit": false,
      "t": 23245,
      "d": 100,
      "v": 90
    },
    {
      "midi": 74,
      "hit": false,
      "t": 23245,
      "d": 105,
      "v": 90
    },
    {
      "midi": 81,
      "hit": false,
      "t": 23245,
      "d": 120,
      "v": 90
    },
    {
      "midi": 81,
      "hit": false,
      "t": 23285,
      "d": 85,
      "v": 90
    },
    {
      "midi": 93,
      "hit": false,
      "t": 23285,
      "d": 115,
      "v": 90
    },
    {
      "midi": 86,
      "hit": false,
      "t": 23290,
      "d": 90,
      "v": 90
    },
    {
      "midi": 62,
      "hit": false,
      "t": 23395,
      "d": 80,
      "v": 90
    },
    {
      "midi": 67,
      "hit": false,
      "t": 23395,
      "d": 80,
      "v": 90
    },
    {
      "midi": 55,
      "hit": false,
      "t": 23395,
      "d": 95,
      "v": 90
    },
    {
      "midi": 79,
      "hit": false,
      "t": 23430,
      "d": 90,
      "v": 90
    },
    {
      "midi": 74,
      "hit": false,
      "t": 23435,
      "d": 85,
      "v": 90
    },
    {
      "midi": 67,
      "hit": false,
      "t": 23455,
      "d": 80,
      "v": 90
    },
    {
      "midi": 81,
      "hit": false,
      "t": 23490,
      "d": 125,
      "v": 90
    },
    {
      "midi": 69,
      "hit": false,
      "t": 23500,
      "d": 95,
      "v": 90
    },
    {
      "midi": 74,
      "hit": false,
      "t": 23500,
      "d": 95,
      "v": 90
    },
    {
      "midi": 81,
      "hit": false,
      "t": 23550,
      "d": 80,
      "v": 90
    },
    {
      "midi": 86,
      "hit": false,
      "t": 23550,
      "d": 80,
      "v": 90
    },
    {
      "midi": 93,
      "hit": false,
      "t": 23550,
      "d": 120,
      "v": 90
    },
    {
      "midi": 67,
      "hit": false,
      "t": 23650,
      "d": 95,
      "v": 90
    },
    {
      "midi": 62,
      "hit": false,
      "t": 23655,
      "d": 90,
      "v": 90
    },
    {
      "midi": 55,
      "hit": false,
      "t": 23655,
      "d": 95,
      "v": 90
    },
    {
      "midi": 74,
      "hit": false,
      "t": 23720,
      "d": 45,
      "v": 90
    },
    {
      "midi": 79,
      "hit": false,
      "t": 23720,
      "d": 45,
      "v": 90
    },
    {
      "midi": 67,
      "hit": false,
      "t": 23740,
      "d": 25,
      "v": 90
    },
    {
      "midi": 81,
      "hit": false,
      "t": 23750,
      "d": 135,
      "v": 90
    },
    {
      "midi": 69,
      "hit": false,
      "t": 23755,
      "d": 100,
      "v": 90
    },
    {
      "midi": 74,
      "hit": false,
      "t": 23755,
      "d": 105,
      "v": 90
    },
    {
      "midi": 81,
      "hit": false,
      "t": 23805,
      "d": 85,
      "v": 90
    },
    {
      "midi": 86,
      "hit": false,
      "t": 23805,
      "d": 85,
      "v": 90
    },
    {
      "midi": 93,
      "hit": false,
      "t": 23820,
      "d": 70,
      "v": 90
    },
    {
      "midi": 62,
      "hit": false,
      "t": 23910,
      "d": 90,
      "v": 90
    },
    {
      "midi": 67,
      "hit": false,
      "t": 23910,
      "d": 90,
      "v": 90
    },
    {
      "midi": 55,
      "hit": false,
      "t": 23910,
      "d": 105,
      "v": 90
    },
    {
      "midi": 74,
      "hit": false,
      "t": 23950,
      "d": 75,
      "v": 90
    },
    {
      "midi": 79,
      "hit": false,
      "t": 23950,
      "d": 75,
      "v": 90
    },
    {
      "midi": 67,
      "hit": false,
      "t": 23950,
      "d": 80,
      "v": 90
    },
    {
      "midi": 81,
      "hit": false,
      "t": 24030,
      "d": 135,
      "v": 90
    },
    {
      "midi": 69,
      "hit": false,
      "t": 24040,
      "d": 85,
      "v": 90
    },
    {
      "midi": 74,
      "hit": false,
      "t": 24040,
      "d": 90,
      "v": 90
    },
    {
      "midi": 81,
      "hit": false,
      "t": 24070,
      "d": 80,
      "v": 90
    },
    {
      "midi": 86,
      "hit": false,
      "t": 24070,
      "d": 90,
      "v": 90
    },
    {
      "midi": 93,
      "hit": false,
      "t": 24070,
      "d": 110,
      "v": 90
    },
    {
      "midi": 67,
      "hit": false,
      "t": 24175,
      "d": 90,
      "v": 90
    },
    {
      "midi": 55,
      "hit": false,
      "t": 24175,
      "d": 105,
      "v": 90
    },
    {
      "midi": 62,
      "hit": false,
      "t": 24180,
      "d": 85,
      "v": 90
    },
    {
      "midi": 79,
      "hit": false,
      "t": 24205,
      "d": 65,
      "v": 90
    },
    {
      "midi": 74,
      "hit": false,
      "t": 24205,
      "d": 70,
      "v": 90
    },
    {
      "midi": 67,
      "hit": false,
      "t": 24225,
      "d": 30,
      "v": 90
    },
    {
      "midi": 74,
      "hit": false,
      "t": 24285,
      "d": 95,
      "v": 90
    },
    {
      "midi": 69,
      "hit": false,
      "t": 24290,
      "d": 90,
      "v": 90
    },
    {
      "midi": 81,
      "hit": false,
      "t": 24290,
      "d": 105,
      "v": 90
    },
    {
      "midi": 81,
      "hit": false,
      "t": 24315,
      "d": 90,
      "v": 90
    },
    {
      "midi": 86,
      "hit": false,
      "t": 24315,
      "d": 90,
      "v": 90
    },
    {
      "midi": 93,
      "hit": false,
      "t": 24315,
      "d": 105,
      "v": 90
    },
    {
      "midi": 67,
      "hit": false,
      "t": 24425,
      "d": 90,
      "v": 90
    },
    {
      "midi": 62,
      "hit": false,
      "t": 24430,
      "d": 85,
      "v": 90
    },
    {
      "midi": 55,
      "hit": false,
      "t": 24430,
      "d": 100,
      "v": 90
    },
    {
      "midi": 79,
      "hit": false,
      "t": 24455,
      "d": 85,
      "v": 90
    },
    {
      "midi": 74,
      "hit": false,
      "t": 24465,
      "d": 75,
      "v": 90
    },
    {
      "midi": 67,
      "hit": false,
      "t": 24470,
      "d": 75,
      "v": 90
    },
    {
      "midi": 69,
      "hit": false,
      "t": 24530,
      "d": 105,
      "v": 90
    },
    {
      "midi": 74,
      "hit": false,
      "t": 24535,
      "d": 105,
      "v": 90
    },
    {
      "midi": 81,
      "hit": false,
      "t": 24535,
      "d": 130,
      "v": 90
    },
    {
      "midi": 81,
      "hit": false,
      "t": 24585,
      "d": 80,
      "v": 90
    },
    {
      "midi": 86,
      "hit": false,
      "t": 24585,
      "d": 90,
      "v": 90
    },
    {
      "midi": 93,
      "hit": false,
      "t": 24585,
      "d": 105,
      "v": 90
    },
    {
      "midi": 62,
      "hit": false,
      "t": 24690,
      "d": 80,
      "v": 90
    },
    {
      "midi": 67,
      "hit": false,
      "t": 24690,
      "d": 80,
      "v": 90
    },
    {
      "midi": 55,
      "hit": false,
      "t": 24690,
      "d": 95,
      "v": 90
    },
    {
      "midi": 79,
      "hit": false,
      "t": 24710,
      "d": 80,
      "v": 90
    },
    {
      "midi": 74,
      "hit": false,
      "t": 24720,
      "d": 70,
      "v": 90
    },
    {
      "midi": 67,
      "hit": false,
      "t": 24740,
      "d": 50,
      "v": 90
    },
    {
      "midi": 69,
      "hit": false,
      "t": 24795,
      "d": 105,
      "v": 90
    },
    {
      "midi": 74,
      "hit": false,
      "t": 24795,
      "d": 110,
      "v": 90
    },
    {
      "midi": 81,
      "hit": false,
      "t": 24795,
      "d": 140,
      "v": 90
    },
    {
      "midi": 81,
      "hit": false,
      "t": 24840,
      "d": 85,
      "v": 90
    },
    {
      "midi": 86,
      "hit": false,
      "t": 24845,
      "d": 80,
      "v": 90
    },
    {
      "midi": 93,
      "hit": false,
      "t": 24845,
      "d": 105,
      "v": 90
    },
    {
      "midi": 67,
      "hit": false,
      "t": 24950,
      "d": 85,
      "v": 90
    },
    {
      "midi": 62,
      "hit": false,
      "t": 24955,
      "d": 80,
      "v": 90
    },
    {
      "midi": 55,
      "hit": false,
      "t": 24955,
      "d": 90,
      "v": 90
    },
    {
      "midi": 79,
      "hit": false,
      "t": 24970,
      "d": 85,
      "v": 90
    },
    {
      "midi": 74,
      "hit": false,
      "t": 24990,
      "d": 65,
      "v": 90
    },
    {
      "midi": 67,
      "hit": false,
      "t": 25000,
      "d": 30,
      "v": 90
    },
    {
      "midi": 74,
      "hit": false,
      "t": 25050,
      "d": 105,
      "v": 90
    },
    {
      "midi": 81,
      "hit": false,
      "t": 25050,
      "d": 130,
      "v": 90
    },
    {
      "midi": 69,
      "hit": false,
      "t": 25055,
      "d": 95,
      "v": 90
    },
    {
      "midi": 81,
      "hit": false,
      "t": 25085,
      "d": 80,
      "v": 90
    },
    {
      "midi": 86,
      "hit": false,
      "t": 25085,
      "d": 85,
      "v": 90
    },
    {
      "midi": 93,
      "hit": false,
      "t": 25105,
      "d": 90,
      "v": 90
    },
    {
      "midi": 67,
      "hit": false,
      "t": 25200,
      "d": 95,
      "v": 90
    },
    {
      "midi": 74,
      "hit": false,
      "t": 25210,
      "d": 85,
      "v": 90
    },
    {
      "midi": 79,
      "hit": false,
      "t": 25210,
      "d": 90,
      "v": 90
    },
    {
      "midi": 67,
      "hit": false,
      "t": 25210,
      "d": 105,
      "v": 90
    },
    {
      "midi": 55,
      "hit": false,
      "t": 25210,
      "d": 85,
      "v": 90
    },
    {
      "midi": 62,
      "hit": false,
      "t": 25210,
      "d": 85,
      "v": 90
    },
    {
      "midi": 69,
      "hit": false,
      "t": 25305,
      "d": 105,
      "v": 90
    },
    {
      "midi": 74,
      "hit": false,
      "t": 25305,
      "d": 110,
      "v": 90
    },
    {
      "midi": 81,
      "hit": false,
      "t": 25310,
      "d": 130,
      "v": 90
    },
    {
      "midi": 81,
      "hit": false,
      "t": 25345,
      "d": 80,
      "v": 90
    },
    {
      "midi": 86,
      "hit": false,
      "t": 25345,
      "d": 90,
      "v": 90
    },
    {
      "midi": 93,
      "hit": false,
      "t": 25365,
      "d": 85,
      "v": 90
    },
    {
      "midi": 67,
      "hit": false,
      "t": 25455,
      "d": 90,
      "v": 90
    },
    {
      "midi": 55,
      "hit": false,
      "t": 25460,
      "d": 90,
      "v": 90
    },
    {
      "midi": 62,
      "hit": false,
      "t": 25465,
      "d": 80,
      "v": 90
    },
    {
      "midi": 79,
      "hit": false,
      "t": 25495,
      "d": 75,
      "v": 90
    },
    {
      "midi": 74,
      "hit": false,
      "t": 25500,
      "d": 75,
      "v": 90
    },
    {
      "midi": 67,
      "hit": false,
      "t": 25520,
      "d": 45,
      "v": 90
    },
    {
      "midi": 69,
      "hit": false,
      "t": 25575,
      "d": 105,
      "v": 90
    },
    {
      "midi": 74,
      "hit": false,
      "t": 25575,
      "d": 110,
      "v": 90
    },
    {
      "midi": 81,
      "hit": false,
      "t": 25575,
      "d": 135,
      "v": 90
    },
    {
      "midi": 81,
      "hit": false,
      "t": 25585,
      "d": 90,
      "v": 90
    },
    {
      "midi": 86,
      "hit": false,
      "t": 25585,
      "d": 95,
      "v": 90
    },
    {
      "midi": 93,
      "hit": false,
      "t": 25605,
      "d": 90,
      "v": 90
    },
    {
      "midi": 67,
      "hit": false,
      "t": 25710,
      "d": 90,
      "v": 90
    },
    {
      "midi": 55,
      "hit": false,
      "t": 25715,
      "d": 60,
      "v": 90
    },
    {
      "midi": 62,
      "hit": false,
      "t": 25730,
      "d": 70,
      "v": 90
    },
    {
      "midi": 79,
      "hit": false,
      "t": 25770,
      "d": 85,
      "v": 90
    },
    {
      "midi": 74,
      "hit": false,
      "t": 25780,
      "d": 75,
      "v": 90
    },
    {
      "midi": 67,
      "hit": false,
      "t": 25795,
      "d": 45,
      "v": 90
    },
    {
      "midi": 86,
      "hit": false,
      "t": 25815,
      "d": 105,
      "v": 90
    },
    {
      "midi": 74,
      "hit": false,
      "t": 25830,
      "d": 115,
      "v": 90
    },
    {
      "midi": 81,
      "hit": false,
      "t": 25835,
      "d": 80,
      "v": 90
    },
    {
      "midi": 93,
      "hit": false,
      "t": 25835,
      "d": 80,
      "v": 90
    },
    {
      "midi": 69,
      "hit": false,
      "t": 25835,
      "d": 105,
      "v": 90
    },
    {
      "midi": 81,
      "hit": false,
      "t": 25855,
      "d": 130,
      "v": 90
    },
    {
      "midi": 55,
      "hit": false,
      "t": 25960,
      "d": 80,
      "v": 90
    },
    {
      "midi": 62,
      "hit": false,
      "t": 25960,
      "d": 80,
      "v": 90
    },
    {
      "midi": 67,
      "hit": false,
      "t": 25960,
      "d": 85,
      "v": 90
    },
    {
      "midi": 67,
      "hit": false,
      "t": 25995,
      "d": 85,
      "v": 90
    },
    {
      "midi": 79,
      "hit": false,
      "t": 25995,
      "d": 85,
      "v": 90
    },
    {
      "midi": 74,
      "hit": false,
      "t": 26015,
      "d": 60,
      "v": 90
    },
    {
      "midi": 69,
      "hit": false,
      "t": 26080,
      "d": 105,
      "v": 90
    },
    {
      "midi": 74,
      "hit": false,
      "t": 26080,
      "d": 115,
      "v": 90
    },
    {
      "midi": 81,
      "hit": false,
      "t": 26085,
      "d": 90,
      "v": 90
    },
    {
      "midi": 86,
      "hit": false,
      "t": 26085,
      "d": 105,
      "v": 90
    },
    {
      "midi": 81,
      "hit": false,
      "t": 26085,
      "d": 135,
      "v": 90
    },
    {
      "midi": 93,
      "hit": false,
      "t": 26105,
      "d": 90,
      "v": 90
    },
    {
      "midi": 55,
      "hit": false,
      "t": 26205,
      "d": 115,
      "v": 90
    },
    {
      "midi": 67,
      "hit": false,
      "t": 26210,
      "d": 85,
      "v": 90
    },
    {
      "midi": 62,
      "hit": false,
      "t": 26215,
      "d": 85,
      "v": 90
    },
    {
      "midi": 79,
      "hit": false,
      "t": 26240,
      "d": 90,
      "v": 90
    },
    {
      "midi": 74,
      "hit": false,
      "t": 26250,
      "d": 75,
      "v": 90
    },
    {
      "midi": 67,
      "hit": false,
      "t": 26265,
      "d": 50,
      "v": 90
    },
    {
      "midi": 69,
      "hit": false,
      "t": 26340,
      "d": 100,
      "v": 90
    },
    {
      "midi": 74,
      "hit": false,
      "t": 26340,
      "d": 110,
      "v": 90
    },
    {
      "midi": 81,
      "hit": false,
      "t": 26345,
      "d": 125,
      "v": 90
    },
    {
      "midi": 81,
      "hit": false,
      "t": 26360,
      "d": 90,
      "v": 90
    },
    {
      "midi": 86,
      "hit": false,
      "t": 26360,
      "d": 95,
      "v": 90
    },
    {
      "midi": 93,
      "hit": false,
      "t": 26360,
      "d": 115,
      "v": 90
    },
    {
      "midi": 67,
      "hit": false,
      "t": 26500,
      "d": 365,
      "v": 90
    },
    {
      "midi": 62,
      "hit": false,
      "t": 26500,
      "d": 380,
      "v": 90
    },
    {
      "midi": 55,
      "hit": false,
      "t": 26500,
      "d": 395,
      "v": 90
    },
    {
      "midi": 31,
      "hit": false,
      "t": 26960,
      "d": 75,
      "v": 90
    },
    {
      "midi": 43,
      "hit": false,
      "t": 26960,
      "d": 75,
      "v": 90
    },
    {
      "midi": 91,
      "hit": false,
      "t": 27000,
      "d": 70,
      "v": 90
    },
    {
      "midi": 103,
      "hit": false,
      "t": 27000,
      "d": 70,
      "v": 90
    },
    {
      "midi": 33,
      "hit": false,
      "t": 27015,
      "d": 85,
      "v": 90
    },
    {
      "midi": 45,
      "hit": false,
      "t": 27015,
      "d": 85,
      "v": 90
    },
    {
      "midi": 89,
      "hit": false,
      "t": 27050,
      "d": 70,
      "v": 90
    },
    {
      "midi": 101,
      "hit": false,
      "t": 27050,
      "d": 70,
      "v": 90
    },
    {
      "midi": 35,
      "hit": false,
      "t": 27085,
      "d": 70,
      "v": 90
    },
    {
      "midi": 47,
      "hit": false,
      "t": 27085,
      "d": 70,
      "v": 90
    },
    {
      "midi": 88,
      "hit": false,
      "t": 27095,
      "d": 75,
      "v": 90
    },
    {
      "midi": 100,
      "hit": false,
      "t": 27095,
      "d": 75,
      "v": 90
    },
    {
      "midi": 86,
      "hit": false,
      "t": 27140,
      "d": 85,
      "v": 90
    },
    {
      "midi": 98,
      "hit": false,
      "t": 27140,
      "d": 85,
      "v": 90
    },
    {
      "midi": 36,
      "hit": false,
      "t": 27140,
      "d": 75,
      "v": 90
    },
    {
      "midi": 48,
      "hit": false,
      "t": 27140,
      "d": 75,
      "v": 90
    },
    {
      "midi": 84,
      "hit": false,
      "t": 27190,
      "d": 85,
      "v": 90
    },
    {
      "midi": 96,
      "hit": false,
      "t": 27190,
      "d": 85,
      "v": 90
    },
    {
      "midi": 38,
      "hit": false,
      "t": 27195,
      "d": 85,
      "v": 90
    },
    {
      "midi": 50,
      "hit": false,
      "t": 27195,
      "d": 85,
      "v": 90
    },
    {
      "midi": 83,
      "hit": false,
      "t": 27240,
      "d": 90,
      "v": 90
    },
    {
      "midi": 95,
      "hit": false,
      "t": 27240,
      "d": 90,
      "v": 90
    },
    {
      "midi": 40,
      "hit": false,
      "t": 27260,
      "d": 85,
      "v": 90
    },
    {
      "midi": 52,
      "hit": false,
      "t": 27260,
      "d": 85,
      "v": 90
    },
    {
      "midi": 81,
      "hit": false,
      "t": 27300,
      "d": 85,
      "v": 90
    },
    {
      "midi": 93,
      "hit": false,
      "t": 27300,
      "d": 85,
      "v": 90
    },
    {
      "midi": 41,
      "hit": false,
      "t": 27330,
      "d": 85,
      "v": 90
    },
    {
      "midi": 53,
      "hit": false,
      "t": 27330,
      "d": 85,
      "v": 90
    },
    {
      "midi": 79,
      "hit": false,
      "t": 27370,
      "d": 95,
      "v": 90
    },
    {
      "midi": 91,
      "hit": false,
      "t": 27370,
      "d": 95,
      "v": 90
    },
    {
      "midi": 43,
      "hit": false,
      "t": 27395,
      "d": 95,
      "v": 90
    },
    {
      "midi": 55,
      "hit": false,
      "t": 27395,
      "d": 95,
      "v": 90
    },
    {
      "midi": 77,
      "hit": false,
      "t": 27445,
      "d": 95,
      "v": 90
    },
    {
      "midi": 89,
      "hit": false,
      "t": 27445,
      "d": 95,
      "v": 90
    },
    {
      "midi": 45,
      "hit": false,
      "t": 27470,
      "d": 85,
      "v": 90
    },
    {
      "midi": 57,
      "hit": false,
      "t": 27470,
      "d": 85,
      "v": 90
    },
    {
      "midi": 76,
      "hit": false,
      "t": 27515,
      "d": 100,
      "v": 90
    },
    {
      "midi": 88,
      "hit": false,
      "t": 27515,
      "d": 100,
      "v": 90
    },
    {
      "midi": 47,
      "hit": false,
      "t": 27535,
      "d": 75,
      "v": 90
    },
    {
      "midi": 59,
      "hit": false,
      "t": 27535,
      "d": 75,
      "v": 90
    },
    {
      "midi": 74,
      "hit": false,
      "t": 27590,
      "d": 90,
      "v": 90
    },
    {
      "midi": 86,
      "hit": false,
      "t": 27590,
      "d": 90,
      "v": 90
    },
    {
      "midi": 48,
      "hit": false,
      "t": 27590,
      "d": 65,
      "v": 90
    },
    {
      "midi": 60,
      "hit": false,
      "t": 27590,
      "d": 65,
      "v": 90
    },
    {
      "midi": 50,
      "hit": false,
      "t": 27635,
      "d": 60,
      "v": 90
    },
    {
      "midi": 62,
      "hit": false,
      "t": 27635,
      "d": 60,
      "v": 90
    },
    {
      "midi": 72,
      "hit": false,
      "t": 27655,
      "d": 85,
      "v": 90
    },
    {
      "midi": 84,
      "hit": false,
      "t": 27655,
      "d": 85,
      "v": 90
    },
    {
      "midi": 52,
      "hit": false,
      "t": 27680,
      "d": 55,
      "v": 90
    },
    {
      "midi": 64,
      "hit": false,
      "t": 27680,
      "d": 55,
      "v": 90
    },
    {
      "midi": 71,
      "hit": false,
      "t": 27710,
      "d": 85,
      "v": 90
    },
    {
      "midi": 83,
      "hit": false,
      "t": 27710,
      "d": 85,
      "v": 90
    },
    {
      "midi": 53,
      "hit": false,
      "t": 27720,
      "d": 55,
      "v": 90
    },
    {
      "midi": 65,
      "hit": false,
      "t": 27720,
      "d": 55,
      "v": 90
    },
    {
      "midi": 55,
      "hit": false,
      "t": 27755,
      "d": 60,
      "v": 90
    },
    {
      "midi": 67,
      "hit": false,
      "t": 27755,
      "d": 60,
      "v": 90
    },
    {
      "midi": 69,
      "hit": false,
      "t": 27770,
      "d": 90,
      "v": 90
    },
    {
      "midi": 81,
      "hit": false,
      "t": 27770,
      "d": 90,
      "v": 90
    },
    {
      "midi": 57,
      "hit": false,
      "t": 27795,
      "d": 65,
      "v": 90
    },
    {
      "midi": 69,
      "hit": false,
      "t": 27795,
      "d": 65,
      "v": 90
    },
    {
      "midi": 67,
      "hit": false,
      "t": 27835,
      "d": 90,
      "v": 90
    },
    {
      "midi": 79,
      "hit": false,
      "t": 27835,
      "d": 90,
      "v": 90
    },
    {
      "midi": 59,
      "hit": false,
      "t": 27840,
      "d": 60,
      "v": 90
    },
    {
      "midi": 71,
      "hit": false,
      "t": 27840,
      "d": 60,
      "v": 90
    },
    {
      "midi": 60,
      "hit": false,
      "t": 27880,
      "d": 65,
      "v": 90
    },
    {
      "midi": 72,
      "hit": false,
      "t": 27880,
      "d": 65,
      "v": 90
    },
    {
      "midi": 65,
      "hit": false,
      "t": 27910,
      "d": 90,
      "v": 90
    },
    {
      "midi": 77,
      "hit": false,
      "t": 27910,
      "d": 90,
      "v": 90
    },
    {
      "midi": 62,
      "hit": false,
      "t": 27920,
      "d": 65,
      "v": 90
    },
    {
      "midi": 74,
      "hit": false,
      "t": 27920,
      "d": 65,
      "v": 90
    },
    {
      "midi": 64,
      "hit": false,
      "t": 27965,
      "d": 70,
      "v": 90
    },
    {
      "midi": 76,
      "hit": false,
      "t": 27965,
      "d": 70,
      "v": 90
    },
    {
      "midi": 64,
      "hit": false,
      "t": 27985,
      "d": 70,
      "v": 90
    },
    {
      "midi": 76,
      "hit": false,
      "t": 27985,
      "d": 70,
      "v": 90
    },
    {
      "midi": 65,
      "hit": false,
      "t": 28015,
      "d": 65,
      "v": 90
    },
    {
      "midi": 77,
      "hit": false,
      "t": 28015,
      "d": 65,
      "v": 90
    },
    {
      "midi": 62,
      "hit": false,
      "t": 28035,
      "d": 70,
      "v": 90
    },
    {
      "midi": 74,
      "hit": false,
      "t": 28035,
      "d": 70,
      "v": 90
    },
    {
      "midi": 67,
      "hit": false,
      "t": 28060,
      "d": 75,
      "v": 90
    },
    {
      "midi": 79,
      "hit": false,
      "t": 28060,
      "d": 75,
      "v": 90
    },
    {
      "midi": 60,
      "hit": false,
      "t": 28085,
      "d": 65,
      "v": 90
    },
    {
      "midi": 72,
      "hit": false,
      "t": 28085,
      "d": 65,
      "v": 90
    },
    {
      "midi": 69,
      "hit": false,
      "t": 28110,
      "d": 70,
      "v": 90
    },
    {
      "midi": 81,
      "hit": false,
      "t": 28110,
      "d": 70,
      "v": 90
    },
    {
      "midi": 59,
      "hit": false,
      "t": 28130,
      "d": 65,
      "v": 90
    },
    {
      "midi": 71,
      "hit": false,
      "t": 28130,
      "d": 65,
      "v": 90
    },
    {
      "midi": 71,
      "hit": false,
      "t": 28165,
      "d": 55,
      "v": 90
    },
    {
      "midi": 83,
      "hit": false,
      "t": 28165,
      "d": 55,
      "v": 90
    },
    {
      "midi": 57,
      "hit": false,
      "t": 28175,
      "d": 65,
      "v": 90
    },
    {
      "midi": 69,
      "hit": false,
      "t": 28175,
      "d": 65,
      "v": 90
    },
    {
      "midi": 72,
      "hit": false,
      "t": 28215,
      "d": 70,
      "v": 90
    },
    {
      "midi": 84,
      "hit": false,
      "t": 28215,
      "d": 70,
      "v": 90
    },
    {
      "midi": 55,
      "hit": false,
      "t": 28225,
      "d": 55,
      "v": 90
    },
    {
      "midi": 67,
      "hit": false,
      "t": 28225,
      "d": 55,
      "v": 90
    },
    {
      "midi": 74,
      "hit": false,
      "t": 28260,
      "d": 75,
      "v": 90
    },
    {
      "midi": 86,
      "hit": false,
      "t": 28260,
      "d": 75,
      "v": 90
    },
    {
      "midi": 53,
      "hit": false,
      "t": 28265,
      "d": 50,
      "v": 90
    },
    {
      "midi": 65,
      "hit": false,
      "t": 28265,
      "d": 50,
      "v": 90
    },
    {
      "midi": 52,
      "hit": false,
      "t": 28305,
      "d": 55,
      "v": 90
    },
    {
      "midi": 64,
      "hit": false,
      "t": 28305,
      "d": 55,
      "v": 90
    },
    {
      "midi": 76,
      "hit": false,
      "t": 28310,
      "d": 75,
      "v": 90
    },
    {
      "midi": 88,
      "hit": false,
      "t": 28310,
      "d": 75,
      "v": 90
    },
    {
      "midi": 50,
      "hit": false,
      "t": 28350,
      "d": 55,
      "v": 90
    },
    {
      "midi": 62,
      "hit": false,
      "t": 28350,
      "d": 55,
      "v": 90
    },
    {
      "midi": 77,
      "hit": false,
      "t": 28365,
      "d": 70,
      "v": 90
    },
    {
      "midi": 89,
      "hit": false,
      "t": 28365,
      "d": 70,
      "v": 90
    },
    {
      "midi": 48,
      "hit": false,
      "t": 28390,
      "d": 55,
      "v": 90
    },
    {
      "midi": 60,
      "hit": false,
      "t": 28390,
      "d": 55,
      "v": 90
    },
    {
      "midi": 79,
      "hit": false,
      "t": 28415,
      "d": 70,
      "v": 90
    },
    {
      "midi": 91,
      "hit": false,
      "t": 28415,
      "d": 70,
      "v": 90
    },
    {
      "midi": 47,
      "hit": false,
      "t": 28425,
      "d": 55,
      "v": 90
    },
    {
      "midi": 59,
      "hit": false,
      "t": 28425,
      "d": 55,
      "v": 90
    },
    {
      "midi": 45,
      "hit": false,
      "t": 28465,
      "d": 60,
      "v": 90
    },
    {
      "midi": 57,
      "hit": false,
      "t": 28465,
      "d": 60,
      "v": 90
    },
    {
      "midi": 81,
      "hit": false,
      "t": 28475,
      "d": 75,
      "v": 90
    },
    {
      "midi": 93,
      "hit": false,
      "t": 28475,
      "d": 75,
      "v": 90
    },
    {
      "midi": 43,
      "hit": false,
      "t": 28500,
      "d": 55,
      "v": 90
    },
    {
      "midi": 55,
      "hit": false,
      "t": 28500,
      "d": 55,
      "v": 90
    },
    {
      "midi": 41,
      "hit": false,
      "t": 28535,
      "d": 60,
      "v": 90
    },
    {
      "midi": 53,
      "hit": false,
      "t": 28535,
      "d": 60,
      "v": 90
    },
    {
      "midi": 83,
      "hit": false,
      "t": 28535,
      "d": 90,
      "v": 90
    },
    {
      "midi": 95,
      "hit": false,
      "t": 28535,
      "d": 90,
      "v": 90
    },
    {
      "midi": 40,
      "hit": false,
      "t": 28570,
      "d": 60,
      "v": 90
    },
    {
      "midi": 52,
      "hit": false,
      "t": 28570,
      "d": 60,
      "v": 90
    },
    {
      "midi": 84,
      "hit": false,
      "t": 28595,
      "d": 85,
      "v": 90
    },
    {
      "midi": 96,
      "hit": false,
      "t": 28595,
      "d": 85,
      "v": 90
    },
    {
      "midi": 38,
      "hit": false,
      "t": 28610,
      "d": 60,
      "v": 90
    },
    {
      "midi": 50,
      "hit": false,
      "t": 28610,
      "d": 60,
      "v": 90
    },
    {
      "midi": 36,
      "hit": false,
      "t": 28655,
      "d": 50,
      "v": 90
    },
    {
      "midi": 48,
      "hit": false,
      "t": 28655,
      "d": 50,
      "v": 90
    },
    {
      "midi": 86,
      "hit": false,
      "t": 28660,
      "d": 85,
      "v": 90
    },
    {
      "midi": 98,
      "hit": false,
      "t": 28660,
      "d": 90,
      "v": 90
    },
    {
      "midi": 35,
      "hit": false,
      "t": 28690,
      "d": 40,
      "v": 90
    },
    {
      "midi": 47,
      "hit": false,
      "t": 28690,
      "d": 40,
      "v": 90
    },
    {
      "midi": 100,
      "hit": false,
      "t": 28720,
      "d": 80,
      "v": 90
    },
    {
      "midi": 88,
      "hit": false,
      "t": 28720,
      "d": 105,
      "v": 90
    },
    {
      "midi": 89,
      "hit": false,
      "t": 28760,
      "d": 85,
      "v": 90
    },
    {
      "midi": 101,
      "hit": false,
      "t": 28760,
      "d": 85,
      "v": 90
    },
    {
      "midi": 31,
      "hit": false,
      "t": 28800,
      "d": 260,
      "v": 116
    },
    {
      "midi": 43,
      "hit": false,
      "t": 28800,
      "d": 260,
      "v": 119
    },
    {
      "midi": 91,
      "hit": false,
      "t": 28800,
      "d": 160,
      "v": 114
    },
    {
      "midi": 103,
      "hit": false,
      "t": 28800,
      "d": 160,
      "v": 114
    },
    {
      "midi": 64,
      "hit": false,
      "t": 33000,
      "d": 145,
      "v": 96
    },
    {
      "midi": 67,
      "hit": false,
      "t": 33000,
      "d": 165,
      "v": 96
    },
    {
      "midi": 60,
      "hit": false,
      "t": 33000,
      "d": 185,
      "v": 84
    },
    {
      "midi": 64,
      "hit": false,
      "t": 33300,
      "d": 70,
      "v": 91
    },
    {
      "midi": 67,
      "hit": false,
      "t": 33300,
      "d": 70,
      "v": 88
    },
    {
      "midi": 60,
      "hit": false,
      "t": 33300,
      "d": 90,
      "v": 87
    },
    {
      "midi": 67,
      "hit": false,
      "t": 33450,
      "d": 70,
      "v": 97
    },
    {
      "midi": 64,
      "hit": false,
      "t": 33450,
      "d": 80,
      "v": 82
    },
    {
      "midi": 60,
      "hit": false,
      "t": 33450,
      "d": 90,
      "v": 88
    },
    {
      "midi": 64,
      "hit": false,
      "t": 33600,
      "d": 425,
      "v": 109
    },
    {
      "midi": 67,
      "hit": false,
      "t": 33600,
      "d": 455,
      "v": 114
    },
    {
      "midi": 60,
      "hit": false,
      "t": 33600,
      "d": 460,
      "v": 105
    },
    {
      "midi": 64,
      "hit": false,
      "t": 34200,
      "d": 195,
      "v": 105
    },
    {
      "midi": 60,
      "hit": false,
      "t": 34200,
      "d": 225,
      "v": 96
    },
    {
      "midi": 67,
      "hit": false,
      "t": 34200,
      "d": 230,
      "v": 107
    },
    {
      "midi": 64,
      "hit": false,
      "t": 34500,
      "d": 75,
      "v": 98
    },
    {
      "midi": 67,
      "hit": false,
      "t": 34500,
      "d": 90,
      "v": 94
    },
    {
      "midi": 60,
      "hit": false,
      "t": 34500,
      "d": 95,
      "v": 92
    },
    {
      "midi": 64,
      "hit": false,
      "t": 34650,
      "d": 75,
      "v": 84
    },
    {
      "midi": 67,
      "hit": false,
      "t": 34650,
      "d": 90,
      "v": 87
    },
    {
      "midi": 60,
      "hit": false,
      "t": 34650,
      "d": 95,
      "v": 96
    },
    {
      "midi": 64,
      "hit": false,
      "t": 34800,
      "d": 390,
      "v": 107
    },
    {
      "midi": 67,
      "hit": false,
      "t": 34800,
      "d": 450,
      "v": 105
    },
    {
      "midi": 60,
      "hit": false,
      "t": 34800,
      "d": 475,
      "v": 107
    },
    {
      "midi": 79,
      "hit": false,
      "t": 35400,
      "d": 230,
      "v": 100
    },
    {
      "midi": 72,
      "hit": false,
      "t": 35400,
      "d": 240,
      "v": 104
    },
    {
      "midi": 76,
      "hit": false,
      "t": 35400,
      "d": 265,
      "v": 98
    },
    {
      "midi": 64,
      "hit": false,
      "t": 35400,
      "d": 190,
      "v": 109
    },
    {
      "midi": 67,
      "hit": false,
      "t": 35400,
      "d": 240,
      "v": 105
    },
    {
      "midi": 60,
      "hit": false,
      "t": 35400,
      "d": 245,
      "v": 94
    },
    {
      "midi": 72,
      "hit": false,
      "t": 35700,
      "d": 65,
      "v": 96
    },
    {
      "midi": 76,
      "hit": false,
      "t": 35700,
      "d": 85,
      "v": 94
    },
    {
      "midi": 79,
      "hit": false,
      "t": 35700,
      "d": 85,
      "v": 83
    },
    {
      "midi": 64,
      "hit": false,
      "t": 35700,
      "d": 65,
      "v": 92
    },
    {
      "midi": 60,
      "hit": false,
      "t": 35700,
      "d": 95,
      "v": 85
    },
    {
      "midi": 67,
      "hit": false,
      "t": 35700,
      "d": 95,
      "v": 93
    },
    {
      "midi": 72,
      "hit": false,
      "t": 35850,
      "d": 70,
      "v": 91
    },
    {
      "midi": 76,
      "hit": false,
      "t": 35850,
      "d": 90,
      "v": 94
    },
    {
      "midi": 79,
      "hit": false,
      "t": 35850,
      "d": 90,
      "v": 90
    },
    {
      "midi": 64,
      "hit": false,
      "t": 35850,
      "d": 70,
      "v": 78
    },
    {
      "midi": 67,
      "hit": false,
      "t": 35850,
      "d": 80,
      "v": 93
    },
    {
      "midi": 60,
      "hit": false,
      "t": 35850,
      "d": 85,
      "v": 85
    },
    {
      "midi": 79,
      "hit": false,
      "t": 36000,
      "d": 455,
      "v": 96
    },
    {
      "midi": 72,
      "hit": false,
      "t": 36000,
      "d": 470,
      "v": 100
    },
    {
      "midi": 76,
      "hit": false,
      "t": 36000,
      "d": 505,
      "v": 101
    },
    {
      "midi": 64,
      "hit": false,
      "t": 36000,
      "d": 450,
      "v": 102
    },
    {
      "midi": 60,
      "hit": false,
      "t": 36000,
      "d": 490,
      "v": 104
    },
    {
      "midi": 67,
      "hit": false,
      "t": 36000,
      "d": 490,
      "v": 102
    },
    {
      "midi": 79,
      "hit": false,
      "t": 36600,
      "d": 220,
      "v": 97
    },
    {
      "midi": 72,
      "hit": false,
      "t": 36600,
      "d": 230,
      "v": 107
    },
    {
      "midi": 76,
      "hit": false,
      "t": 36600,
      "d": 260,
      "v": 104
    },
    {
      "midi": 64,
      "hit": false,
      "t": 36600,
      "d": 125,
      "v": 104
    },
    {
      "midi": 60,
      "hit": false,
      "t": 36600,
      "d": 200,
      "v": 90
    },
    {
      "midi": 67,
      "hit": false,
      "t": 36600,
      "d": 215,
      "v": 114
    },
    {
      "midi": 72,
      "hit": false,
      "t": 36900,
      "d": 65,
      "v": 96
    },
    {
      "midi": 79,
      "hit": false,
      "t": 36900,
      "d": 70,
      "v": 98
    },
    {
      "midi": 76,
      "hit": false,
      "t": 36900,
      "d": 75,
      "v": 96
    },
    {
      "midi": 60,
      "hit": false,
      "t": 36900,
      "d": 70,
      "v": 86
    },
    {
      "midi": 64,
      "hit": false,
      "t": 36900,
      "d": 75,
      "v": 88
    },
    {
      "midi": 67,
      "hit": false,
      "t": 36900,
      "d": 75,
      "v": 88
    },
    {
      "midi": 72,
      "hit": false,
      "t": 37050,
      "d": 45,
      "v": 98
    },
    {
      "midi": 76,
      "hit": false,
      "t": 37050,
      "d": 85,
      "v": 102
    },
    {
      "midi": 79,
      "hit": false,
      "t": 37050,
      "d": 85,
      "v": 101
    },
    {
      "midi": 64,
      "hit": false,
      "t": 37050,
      "d": 50,
      "v": 78
    },
    {
      "midi": 60,
      "hit": false,
      "t": 37050,
      "d": 70,
      "v": 88
    },
    {
      "midi": 67,
      "hit": false,
      "t": 37050,
      "d": 70,
      "v": 91
    },
    {
      "midi": 79,
      "hit": false,
      "t": 37200,
      "d": 435,
      "v": 92
    },
    {
      "midi": 72,
      "hit": false,
      "t": 37200,
      "d": 475,
      "v": 101
    },
    {
      "midi": 76,
      "hit": false,
      "t": 37200,
      "d": 505,
      "v": 104
    },
    {
      "midi": 64,
      "hit": false,
      "t": 37200,
      "d": 440,
      "v": 98
    },
    {
      "midi": 60,
      "hit": false,
      "t": 37200,
      "d": 470,
      "v": 101
    },
    {
      "midi": 67,
      "hit": false,
      "t": 37200,
      "d": 495,
      "v": 93
    },
    {
      "midi": 79,
      "hit": false,
      "t": 37800,
      "d": 185,
      "v": 93
    },
    {
      "midi": 72,
      "hit": false,
      "t": 37800,
      "d": 220,
      "v": 104
    },
    {
      "midi": 76,
      "hit": false,
      "t": 37800,
      "d": 230,
      "v": 98
    },
    {
      "midi": 64,
      "hit": false,
      "t": 37800,
      "d": 110,
      "v": 111
    },
    {
      "midi": 67,
      "hit": false,
      "t": 37800,
      "d": 175,
      "v": 114
    },
    {
      "midi": 60,
      "hit": false,
      "t": 37800,
      "d": 205,
      "v": 94
    },
    {
      "midi": 72,
      "hit": false,
      "t": 38100,
      "d": 60,
      "v": 94
    },
    {
      "midi": 79,
      "hit": false,
      "t": 38100,
      "d": 70,
      "v": 89
    },
    {
      "midi": 76,
      "hit": false,
      "t": 38100,
      "d": 85,
      "v": 92
    },
    {
      "midi": 60,
      "hit": false,
      "t": 38100,
      "d": 75,
      "v": 87
    },
    {
      "midi": 64,
      "hit": false,
      "t": 38100,
      "d": 75,
      "v": 91
    },
    {
      "midi": 67,
      "hit": false,
      "t": 38100,
      "d": 85,
      "v": 98
    },
    {
      "midi": 72,
      "hit": false,
      "t": 38250,
      "d": 50,
      "v": 91
    },
    {
      "midi": 76,
      "hit": false,
      "t": 38250,
      "d": 65,
      "v": 98
    },
    {
      "midi": 79,
      "hit": false,
      "t": 38250,
      "d": 90,
      "v": 92
    },
    {
      "midi": 64,
      "hit": false,
      "t": 38250,
      "d": 45,
      "v": 77
    },
    {
      "midi": 67,
      "hit": false,
      "t": 38250,
      "d": 60,
      "v": 93
    },
    {
      "midi": 60,
      "hit": false,
      "t": 38250,
      "d": 70,
      "v": 88
    },
    {
      "midi": 76,
      "hit": false,
      "t": 38400,
      "d": 315,
      "v": 97
    },
    {
      "midi": 79,
      "hit": false,
      "t": 38400,
      "d": 360,
      "v": 88
    },
    {
      "midi": 72,
      "hit": false,
      "t": 38400,
      "d": 420,
      "v": 101
    },
    {
      "midi": 60,
      "hit": false,
      "t": 38400,
      "d": 400,
      "v": 92
    },
    {
      "midi": 64,
      "hit": false,
      "t": 38400,
      "d": 475,
      "v": 97
    },
    {
      "midi": 67,
      "hit": false,
      "t": 38400,
      "d": 485,
      "v": 104
    },
    {
      "midi": 81,
      "hit": false,
      "t": 39000,
      "d": 380,
      "v": 102
    },
    {
      "midi": 76,
      "hit": false,
      "t": 39000,
      "d": 425,
      "v": 105
    },
    {
      "midi": 72,
      "hit": false,
      "t": 39000,
      "d": 500,
      "v": 109
    },
    {
      "midi": 69,
      "hit": false,
      "t": 39000,
      "d": 505,
      "v": 98
    },
    {
      "midi": 60,
      "hit": false,
      "t": 39000,
      "d": 430,
      "v": 82
    },
    {
      "midi": 64,
      "hit": false,
      "t": 39000,
      "d": 450,
      "v": 102
    },
    {
      "midi": 57,
      "hit": false,
      "t": 39000,
      "d": 465,
      "v": 92
    },
    {
      "midi": 69,
      "hit": false,
      "t": 39000,
      "d": 465,
      "v": 94
    },
    {
      "midi": 76,
      "hit": false,
      "t": 39600,
      "d": 375,
      "v": 107
    },
    {
      "midi": 79,
      "hit": false,
      "t": 39600,
      "d": 385,
      "v": 100
    },
    {
      "midi": 72,
      "hit": false,
      "t": 39600,
      "d": 465,
      "v": 107
    },
    {
      "midi": 64,
      "hit": false,
      "t": 39600,
      "d": 445,
      "v": 111
    },
    {
      "midi": 60,
      "hit": false,
      "t": 39600,
      "d": 480,
      "v": 93
    },
    {
      "midi": 67,
      "hit": false,
      "t": 39600,
      "d": 480,
      "v": 107
    },
    {
      "midi": 81,
      "hit": false,
      "t": 40200,
      "d": 355,
      "v": 98
    },
    {
      "midi": 76,
      "hit": false,
      "t": 40200,
      "d": 460,
      "v": 109
    },
    {
      "midi": 72,
      "hit": false,
      "t": 40200,
      "d": 470,
      "v": 112
    },
    {
      "midi": 69,
      "hit": false,
      "t": 40200,
      "d": 510,
      "v": 100
    },
    {
      "midi": 64,
      "hit": false,
      "t": 40200,
      "d": 415,
      "v": 107
    },
    {
      "midi": 69,
      "hit": false,
      "t": 40200,
      "d": 425,
      "v": 105
    },
    {
      "midi": 60,
      "hit": false,
      "t": 40200,
      "d": 440,
      "v": 94
    },
    {
      "midi": 57,
      "hit": false,
      "t": 40200,
      "d": 485,
      "v": 102
    },
    {
      "midi": 76,
      "hit": false,
      "t": 40800,
      "d": 335,
      "v": 102
    },
    {
      "midi": 79,
      "hit": false,
      "t": 40800,
      "d": 340,
      "v": 102
    },
    {
      "midi": 72,
      "hit": false,
      "t": 40800,
      "d": 420,
      "v": 107
    },
    {
      "midi": 64,
      "hit": false,
      "t": 40800,
      "d": 480,
      "v": 112
    },
    {
      "midi": 60,
      "hit": false,
      "t": 40800,
      "d": 495,
      "v": 94
    },
    {
      "midi": 67,
      "hit": false,
      "t": 40800,
      "d": 500,
      "v": 111
    },
    {
      "midi": 81,
      "hit": false,
      "t": 41400,
      "d": 310,
      "v": 98
    },
    {
      "midi": 76,
      "hit": false,
      "t": 41400,
      "d": 410,
      "v": 96
    },
    {
      "midi": 72,
      "hit": false,
      "t": 41400,
      "d": 465,
      "v": 97
    },
    {
      "midi": 69,
      "hit": false,
      "t": 41400,
      "d": 490,
      "v": 93
    },
    {
      "midi": 64,
      "hit": false,
      "t": 41400,
      "d": 460,
      "v": 116
    },
    {
      "midi": 69,
      "hit": false,
      "t": 41400,
      "d": 480,
      "v": 101
    },
    {
      "midi": 60,
      "hit": false,
      "t": 41400,
      "d": 485,
      "v": 97
    },
    {
      "midi": 57,
      "hit": false,
      "t": 41400,
      "d": 505,
      "v": 102
    },
    {
      "midi": 76,
      "hit": false,
      "t": 42000,
      "d": 340,
      "v": 101
    },
    {
      "midi": 79,
      "hit": false,
      "t": 42000,
      "d": 340,
      "v": 92
    },
    {
      "midi": 72,
      "hit": false,
      "t": 42000,
      "d": 435,
      "v": 100
    },
    {
      "midi": 60,
      "hit": false,
      "t": 42000,
      "d": 440,
      "v": 96
    },
    {
      "midi": 64,
      "hit": false,
      "t": 42000,
      "d": 455,
      "v": 112
    },
    {
      "midi": 67,
      "hit": false,
      "t": 42000,
      "d": 480,
      "v": 111
    },
    {
      "midi": 76,
      "hit": false,
      "t": 42600,
      "d": 410,
      "v": 102
    },
    {
      "midi": 81,
      "hit": false,
      "t": 42600,
      "d": 420,
      "v": 98
    },
    {
      "midi": 69,
      "hit": false,
      "t": 42600,
      "d": 435,
      "v": 101
    },
    {
      "midi": 72,
      "hit": false,
      "t": 42600,
      "d": 440,
      "v": 111
    },
    {
      "midi": 64,
      "hit": false,
      "t": 42600,
      "d": 325,
      "v": 112
    },
    {
      "midi": 69,
      "hit": false,
      "t": 42600,
      "d": 345,
      "v": 102
    },
    {
      "midi": 60,
      "hit": false,
      "t": 42600,
      "d": 350,
      "v": 102
    },
    {
      "midi": 57,
      "hit": false,
      "t": 42600,
      "d": 365,
      "v": 100
    },
    {
      "midi": 76,
      "hit": false,
      "t": 51000,
      "d": 180,
      "v": 97
    },
    {
      "midi": 64,
      "hit": false,
      "t": 51000,
      "d": 210,
      "v": 91
    },
    {
      "midi": 76,
      "hit": false,
      "t": 51450,
      "d": 95,
      "v": 96
    },
    {
      "midi": 64,
      "hit": false,
      "t": 51450,
      "d": 100,
      "v": 87
    },
    {
      "midi": 76,
      "hit": false,
      "t": 51600,
      "d": 135,
      "v": 102
    },
    {
      "midi": 64,
      "hit": false,
      "t": 51600,
      "d": 140,
      "v": 102
    },
    {
      "midi": 76,
      "hit": false,
      "t": 51900,
      "d": 120,
      "v": 107
    },
    {
      "midi": 64,
      "hit": false,
      "t": 51900,
      "d": 130,
      "v": 105
    },
    {
      "midi": 76,
      "hit": false,
      "t": 52200,
      "d": 115,
      "v": 100
    },
    {
      "midi": 64,
      "hit": false,
      "t": 52200,
      "d": 125,
      "v": 100
    },
    {
      "midi": 64,
      "hit": false,
      "t": 52500,
      "d": 135,
      "v": 105
    },
    {
      "midi": 76,
      "hit": false,
      "t": 52500,
      "d": 135,
      "v": 102
    },
    {
      "midi": 76,
      "hit": false,
      "t": 52800,
      "d": 1160,
      "v": 116
    },
    {
      "midi": 64,
      "hit": false,
      "t": 52800,
      "d": 1205,
      "v": 116
    },
    {
      "midi": 76,
      "hit": false,
      "t": 60600,
      "d": 200,
      "v": 100
    },
    {
      "midi": 64,
      "hit": false,
      "t": 60600,
      "d": 210,
      "v": 96
    },
    {
      "midi": 76,
      "hit": false,
      "t": 61050,
      "d": 90,
      "v": 97
    },
    {
      "midi": 64,
      "hit": false,
      "t": 61050,
      "d": 110,
      "v": 89
    },
    {
      "midi": 64,
      "hit": false,
      "t": 61200,
      "d": 125,
      "v": 107
    },
    {
      "midi": 76,
      "hit": false,
      "t": 61200,
      "d": 140,
      "v": 100
    },
    {
      "midi": 76,
      "hit": false,
      "t": 61500,
      "d": 125,
      "v": 102
    },
    {
      "midi": 64,
      "hit": false,
      "t": 61500,
      "d": 135,
      "v": 97
    },
    {
      "midi": 76,
      "hit": false,
      "t": 61800,
      "d": 130,
      "v": 102
    },
    {
      "midi": 64,
      "hit": false,
      "t": 61800,
      "d": 150,
      "v": 100
    },
    {
      "midi": 64,
      "hit": false,
      "t": 62100,
      "d": 165,
      "v": 97
    },
    {
      "midi": 76,
      "hit": false,
      "t": 62100,
      "d": 165,
      "v": 90
    },
    {
      "midi": 45,
      "hit": false,
      "t": 62400,
      "d": 785,
      "v": 98
    },
    {
      "midi": 33,
      "hit": false,
      "t": 62400,
      "d": 795,
      "v": 87
    },
    {
      "midi": 40,
      "hit": false,
      "t": 62400,
      "d": 840,
      "v": 96
    },
    {
      "midi": 76,
      "hit": false,
      "t": 62400,
      "d": 1160,
      "v": 116
    },
    {
      "midi": 64,
      "hit": false,
      "t": 62400,
      "d": 1170,
      "v": 114
    },
    {
      "midi": 64,
      "hit": false,
      "t": 63000,
      "d": 100,
      "v": 89
    },
    {
      "midi": 52,
      "hit": false,
      "t": 63000,
      "d": 120,
      "v": 89
    },
    {
      "midi": 57,
      "hit": false,
      "t": 63000,
      "d": 120,
      "v": 102
    },
    {
      "midi": 64,
      "hit": false,
      "t": 63200,
      "d": 90,
      "v": 90
    },
    {
      "midi": 52,
      "hit": false,
      "t": 63200,
      "d": 125,
      "v": 90
    },
    {
      "midi": 57,
      "hit": false,
      "t": 63200,
      "d": 125,
      "v": 85
    },
    {
      "midi": 57,
      "hit": false,
      "t": 63400,
      "d": 105,
      "v": 87
    },
    {
      "midi": 64,
      "hit": false,
      "t": 63400,
      "d": 130,
      "v": 97
    },
    {
      "midi": 52,
      "hit": false,
      "t": 63400,
      "d": 135,
      "v": 92
    },
    {
      "midi": 57,
      "hit": false,
      "t": 63600,
      "d": 110,
      "v": 97
    },
    {
      "midi": 52,
      "hit": false,
      "t": 63600,
      "d": 190,
      "v": 105
    },
    {
      "midi": 64,
      "hit": false,
      "t": 63600,
      "d": 190,
      "v": 100
    },
    {
      "midi": 57,
      "hit": false,
      "t": 64200,
      "d": 140,
      "v": 114
    },
    {
      "midi": 52,
      "hit": false,
      "t": 64200,
      "d": 170,
      "v": 97
    },
    {
      "midi": 64,
      "hit": false,
      "t": 64200,
      "d": 175,
      "v": 114
    },
    {
      "midi": 45,
      "hit": false,
      "t": 64800,
      "d": 960,
      "v": 94
    },
    {
      "midi": 40,
      "hit": false,
      "t": 64800,
      "d": 1020,
      "v": 96
    },
    {
      "midi": 33,
      "hit": false,
      "t": 64800,
      "d": 1055,
      "v": 89
    },
    {
      "midi": 52,
      "hit": false,
      "t": 65400,
      "d": 110,
      "v": 90
    },
    {
      "midi": 57,
      "hit": false,
      "t": 65400,
      "d": 110,
      "v": 100
    },
    {
      "midi": 64,
      "hit": false,
      "t": 65400,
      "d": 130,
      "v": 94
    },
    {
      "midi": 57,
      "hit": false,
      "t": 65600,
      "d": 110,
      "v": 84
    },
    {
      "midi": 52,
      "hit": false,
      "t": 65600,
      "d": 120,
      "v": 83
    },
    {
      "midi": 64,
      "hit": false,
      "t": 65600,
      "d": 120,
      "v": 94
    },
    {
      "midi": 57,
      "hit": false,
      "t": 65800,
      "d": 100,
      "v": 84
    },
    {
      "midi": 52,
      "hit": false,
      "t": 65800,
      "d": 110,
      "v": 88
    },
    {
      "midi": 64,
      "hit": false,
      "t": 65800,
      "d": 115,
      "v": 91
    },
    {
      "midi": 52,
      "hit": false,
      "t": 66000,
      "d": 115,
      "v": 102
    },
    {
      "midi": 57,
      "hit": false,
      "t": 66000,
      "d": 115,
      "v": 96
    },
    {
      "midi": 64,
      "hit": false,
      "t": 66000,
      "d": 140,
      "v": 100
    },
    {
      "midi": 57,
      "hit": false,
      "t": 66600,
      "d": 80,
      "v": 109
    },
    {
      "midi": 52,
      "hit": false,
      "t": 66600,
      "d": 135,
      "v": 102
    },
    {
      "midi": 64,
      "hit": false,
      "t": 66600,
      "d": 150,
      "v": 102
    },
    {
      "midi": 33,
      "hit": false,
      "t": 67200,
      "d": 680,
      "v": 90
    },
    {
      "midi": 40,
      "hit": false,
      "t": 67200,
      "d": 680,
      "v": 92
    },
    {
      "midi": 45,
      "hit": false,
      "t": 67200,
      "d": 685,
      "v": 93
    },
    {
      "midi": 64,
      "hit": false,
      "t": 67800,
      "d": 105,
      "v": 96
    },
    {
      "midi": 52,
      "hit": false,
      "t": 67800,
      "d": 110,
      "v": 93
    },
    {
      "midi": 57,
      "hit": false,
      "t": 67800,
      "d": 110,
      "v": 101
    },
    {
      "midi": 57,
      "hit": false,
      "t": 68000,
      "d": 80,
      "v": 82
    },
    {
      "midi": 64,
      "hit": false,
      "t": 68000,
      "d": 120,
      "v": 98
    },
    {
      "midi": 52,
      "hit": false,
      "t": 68000,
      "d": 125,
      "v": 94
    },
    {
      "midi": 52,
      "hit": false,
      "t": 68200,
      "d": 105,
      "v": 85
    },
    {
      "midi": 57,
      "hit": false,
      "t": 68200,
      "d": 120,
      "v": 94
    },
    {
      "midi": 64,
      "hit": false,
      "t": 68200,
      "d": 125,
      "v": 100
    },
    {
      "midi": 64,
      "hit": false,
      "t": 68400,
      "d": 105,
      "v": 92
    },
    {
      "midi": 57,
      "hit": false,
      "t": 68400,
      "d": 110,
      "v": 76
    },
    {
      "midi": 52,
      "hit": false,
      "t": 68400,
      "d": 125,
      "v": 101
    },
    {
      "midi": 57,
      "hit": false,
      "t": 69000,
      "d": 130,
      "v": 107
    },
    {
      "midi": 64,
      "hit": false,
      "t": 69000,
      "d": 150,
      "v": 100
    },
    {
      "midi": 52,
      "hit": false,
      "t": 69000,
      "d": 160,
      "v": 96
    },
    {
      "midi": 45,
      "hit": false,
      "t": 69600,
      "d": 750,
      "v": 96
    },
    {
      "midi": 33,
      "hit": false,
      "t": 69600,
      "d": 770,
      "v": 90
    },
    {
      "midi": 40,
      "hit": false,
      "t": 69600,
      "d": 785,
      "v": 92
    },
    {
      "midi": 76,
      "hit": false,
      "t": 69600,
      "d": 145,
      "v": 77
    },
    {
      "midi": 88,
      "hit": false,
      "t": 69600,
      "d": 145,
      "v": 83
    },
    {
      "midi": 78,
      "hit": false,
      "t": 69750,
      "d": 145,
      "v": 77
    },
    {
      "midi": 90,
      "hit": false,
      "t": 69750,
      "d": 145,
      "v": 83
    },
    {
      "midi": 76,
      "hit": false,
      "t": 69900,
      "d": 145,
      "v": 77
    },
    {
      "midi": 88,
      "hit": false,
      "t": 69900,
      "d": 145,
      "v": 86
    },
    {
      "midi": 78,
      "hit": false,
      "t": 70050,
      "d": 145,
      "v": 78
    },
    {
      "midi": 90,
      "hit": false,
      "t": 70050,
      "d": 145,
      "v": 80
    },
    {
      "midi": 57,
      "hit": false,
      "t": 70200,
      "d": 90,
      "v": 86
    },
    {
      "midi": 64,
      "hit": false,
      "t": 70200,
      "d": 90,
      "v": 94
    },
    {
      "midi": 52,
      "hit": false,
      "t": 70200,
      "d": 115,
      "v": 88
    },
    {
      "midi": 76,
      "hit": false,
      "t": 70200,
      "d": 145,
      "v": 78
    },
    {
      "midi": 88,
      "hit": false,
      "t": 70200,
      "d": 145,
      "v": 84
    },
    {
      "midi": 78,
      "hit": false,
      "t": 70350,
      "d": 145,
      "v": 78
    },
    {
      "midi": 90,
      "hit": false,
      "t": 70350,
      "d": 145,
      "v": 78
    },
    {
      "midi": 64,
      "hit": false,
      "t": 70400,
      "d": 95,
      "v": 92
    },
    {
      "midi": 57,
      "hit": false,
      "t": 70400,
      "d": 100,
      "v": 81
    },
    {
      "midi": 52,
      "hit": false,
      "t": 70400,
      "d": 120,
      "v": 89
    },
    {
      "midi": 76,
      "hit": false,
      "t": 70500,
      "d": 145,
      "v": 82
    },
    {
      "midi": 88,
      "hit": false,
      "t": 70500,
      "d": 145,
      "v": 78
    },
    {
      "midi": 64,
      "hit": false,
      "t": 70600,
      "d": 100,
      "v": 107
    },
    {
      "midi": 57,
      "hit": false,
      "t": 70600,
      "d": 105,
      "v": 85
    },
    {
      "midi": 52,
      "hit": false,
      "t": 70600,
      "d": 115,
      "v": 92
    },
    {
      "midi": 57,
      "hit": false,
      "t": 70800,
      "d": 90,
      "v": 94
    },
    {
      "midi": 52,
      "hit": false,
      "t": 70800,
      "d": 115,
      "v": 101
    },
    {
      "midi": 64,
      "hit": false,
      "t": 70800,
      "d": 130,
      "v": 101
    },
    {
      "midi": 88,
      "hit": false,
      "t": 70800,
      "d": 145,
      "v": 79
    },
    {
      "midi": 100,
      "hit": false,
      "t": 70800,
      "d": 145,
      "v": 86
    },
    {
      "midi": 90,
      "hit": false,
      "t": 70950,
      "d": 145,
      "v": 73
    },
    {
      "midi": 102,
      "hit": false,
      "t": 70950,
      "d": 145,
      "v": 76
    },
    {
      "midi": 88,
      "hit": false,
      "t": 71100,
      "d": 145,
      "v": 76
    },
    {
      "midi": 100,
      "hit": false,
      "t": 71100,
      "d": 145,
      "v": 81
    },
    {
      "midi": 90,
      "hit": false,
      "t": 71250,
      "d": 145,
      "v": 66
    },
    {
      "midi": 102,
      "hit": false,
      "t": 71250,
      "d": 145,
      "v": 81
    },
    {
      "midi": 57,
      "hit": false,
      "t": 71400,
      "d": 95,
      "v": 111
    },
    {
      "midi": 52,
      "hit": false,
      "t": 71400,
      "d": 140,
      "v": 93
    },
    {
      "midi": 64,
      "hit": false,
      "t": 71400,
      "d": 140,
      "v": 112
    },
    {
      "midi": 88,
      "hit": false,
      "t": 71400,
      "d": 145,
      "v": 76
    },
    {
      "midi": 100,
      "hit": false,
      "t": 71400,
      "d": 145,
      "v": 84
    },
    {
      "midi": 90,
      "hit": false,
      "t": 71550,
      "d": 145,
      "v": 83
    },
    {
      "midi": 102,
      "hit": false,
      "t": 71550,
      "d": 145,
      "v": 77
    },
    {
      "midi": 88,
      "hit": false,
      "t": 71700,
      "d": 145,
      "v": 81
    },
    {
      "midi": 100,
      "hit": false,
      "t": 71700,
      "d": 145,
      "v": 92
    },
    {
      "midi": 45,
      "hit": false,
      "t": 72000,
      "d": 835,
      "v": 91
    },
    {
      "midi": 40,
      "hit": false,
      "t": 72000,
      "d": 840,
      "v": 94
    },
    {
      "midi": 33,
      "hit": false,
      "t": 72000,
      "d": 915,
      "v": 93
    },
    {
      "midi": 64,
      "hit": false,
      "t": 72600,
      "d": 95,
      "v": 92
    },
    {
      "midi": 52,
      "hit": false,
      "t": 72600,
      "d": 120,
      "v": 90
    },
    {
      "midi": 57,
      "hit": false,
      "t": 72600,
      "d": 120,
      "v": 92
    },
    {
      "midi": 57,
      "hit": false,
      "t": 72800,
      "d": 90,
      "v": 78
    },
    {
      "midi": 52,
      "hit": false,
      "t": 72800,
      "d": 110,
      "v": 88
    },
    {
      "midi": 64,
      "hit": false,
      "t": 72800,
      "d": 110,
      "v": 86
    },
    {
      "midi": 57,
      "hit": false,
      "t": 73000,
      "d": 105,
      "v": 88
    },
    {
      "midi": 52,
      "hit": false,
      "t": 73000,
      "d": 115,
      "v": 84
    },
    {
      "midi": 64,
      "hit": false,
      "t": 73000,
      "d": 115,
      "v": 98
    },
    {
      "midi": 64,
      "hit": false,
      "t": 73200,
      "d": 85,
      "v": 87
    },
    {
      "midi": 57,
      "hit": false,
      "t": 73200,
      "d": 90,
      "v": 78
    },
    {
      "midi": 52,
      "hit": false,
      "t": 73200,
      "d": 120,
      "v": 102
    },
    {
      "midi": 57,
      "hit": false,
      "t": 73800,
      "d": 115,
      "v": 104
    },
    {
      "midi": 64,
      "hit": false,
      "t": 73800,
      "d": 140,
      "v": 101
    },
    {
      "midi": 52,
      "hit": false,
      "t": 73800,
      "d": 145,
      "v": 98
    },
    {
      "midi": 45,
      "hit": false,
      "t": 74400,
      "d": 705,
      "v": 82
    },
    {
      "midi": 33,
      "hit": false,
      "t": 74400,
      "d": 715,
      "v": 87
    },
    {
      "midi": 40,
      "hit": false,
      "t": 74400,
      "d": 730,
      "v": 92
    },
    {
      "midi": 57,
      "hit": false,
      "t": 75000,
      "d": 90,
      "v": 93
    },
    {
      "midi": 52,
      "hit": false,
      "t": 75000,
      "d": 110,
      "v": 88
    },
    {
      "midi": 64,
      "hit": false,
      "t": 75000,
      "d": 115,
      "v": 89
    },
    {
      "midi": 57,
      "hit": false,
      "t": 75200,
      "d": 105,
      "v": 82
    },
    {
      "midi": 64,
      "hit": false,
      "t": 75200,
      "d": 105,
      "v": 90
    },
    {
      "midi": 52,
      "hit": false,
      "t": 75200,
      "d": 110,
      "v": 82
    },
    {
      "midi": 57,
      "hit": false,
      "t": 75400,
      "d": 85,
      "v": 88
    },
    {
      "midi": 64,
      "hit": false,
      "t": 75400,
      "d": 85,
      "v": 87
    },
    {
      "midi": 52,
      "hit": false,
      "t": 75400,
      "d": 110,
      "v": 86
    },
    {
      "midi": 57,
      "hit": false,
      "t": 75600,
      "d": 100,
      "v": 89
    },
    {
      "midi": 52,
      "hit": false,
      "t": 75600,
      "d": 110,
      "v": 102
    },
    {
      "midi": 64,
      "hit": false,
      "t": 75600,
      "d": 135,
      "v": 97
    },
    {
      "midi": 57,
      "hit": false,
      "t": 76200,
      "d": 65,
      "v": 101
    },
    {
      "midi": 64,
      "hit": false,
      "t": 76200,
      "d": 130,
      "v": 104
    },
    {
      "midi": 52,
      "hit": false,
      "t": 76200,
      "d": 140,
      "v": 102
    },
    {
      "midi": 45,
      "hit": false,
      "t": 76800,
      "d": 620,
      "v": 86
    },
    {
      "midi": 40,
      "hit": false,
      "t": 76800,
      "d": 645,
      "v": 90
    },
    {
      "midi": 33,
      "hit": false,
      "t": 76800,
      "d": 690,
      "v": 84
    },
    {
      "midi": 57,
      "hit": false,
      "t": 77400,
      "d": 95,
      "v": 89
    },
    {
      "midi": 64,
      "hit": false,
      "t": 77400,
      "d": 95,
      "v": 83
    },
    {
      "midi": 52,
      "hit": false,
      "t": 77400,
      "d": 125,
      "v": 87
    },
    {
      "midi": 57,
      "hit": false,
      "t": 77600,
      "d": 105,
      "v": 82
    },
    {
      "midi": 64,
      "hit": false,
      "t": 77600,
      "d": 115,
      "v": 101
    },
    {
      "midi": 52,
      "hit": false,
      "t": 77600,
      "d": 120,
      "v": 94
    },
    {
      "midi": 57,
      "hit": false,
      "t": 77800,
      "d": 120,
      "v": 78
    },
    {
      "midi": 52,
      "hit": false,
      "t": 77800,
      "d": 130,
      "v": 85
    },
    {
      "midi": 64,
      "hit": false,
      "t": 77800,
      "d": 130,
      "v": 94
    },
    {
      "midi": 52,
      "hit": false,
      "t": 78000,
      "d": 155,
      "v": 86
    },
    {
      "midi": 57,
      "hit": false,
      "t": 78000,
      "d": 155,
      "v": 92
    },
    {
      "midi": 64,
      "hit": false,
      "t": 78000,
      "d": 195,
      "v": 92
    },
    {
      "midi": 52,
      "hit": false,
      "t": 78600,
      "d": 135,
      "v": 88
    },
    {
      "midi": 57,
      "hit": false,
      "t": 78600,
      "d": 140,
      "v": 96
    },
    {
      "midi": 64,
      "hit": false,
      "t": 78600,
      "d": 175,
      "v": 91
    },
    {
      "midi": 52,
      "hit": false,
      "t": 79200,
      "d": 590,
      "v": 82
    },
    {
      "midi": 40,
      "hit": false,
      "t": 79200,
      "d": 660,
      "v": 92
    },
    {
      "midi": 28,
      "hit": false,
      "t": 79200,
      "d": 665,
      "v": 101
    },
    {
      "midi": 52,
      "hit": false,
      "t": 79800,
      "d": 90,
      "v": 86
    },
    {
      "midi": 76,
      "hit": false,
      "t": 79800,
      "d": 110,
      "v": 91
    },
    {
      "midi": 60,
      "hit": false,
      "t": 79800,
      "d": 115,
      "v": 89
    },
    {
      "midi": 84,
      "hit": false,
      "t": 79800,
      "d": 115,
      "v": 91
    },
    {
      "midi": 88,
      "hit": false,
      "t": 79800,
      "d": 120,
      "v": 88
    },
    {
      "midi": 64,
      "hit": false,
      "t": 79800,
      "d": 140,
      "v": 82
    },
    {
      "midi": 84,
      "hit": false,
      "t": 80000,
      "d": 80,
      "v": 88
    },
    {
      "midi": 52,
      "hit": false,
      "t": 80000,
      "d": 110,
      "v": 64
    },
    {
      "midi": 60,
      "hit": false,
      "t": 80000,
      "d": 110,
      "v": 84
    },
    {
      "midi": 76,
      "hit": false,
      "t": 80000,
      "d": 120,
      "v": 86
    },
    {
      "midi": 88,
      "hit": false,
      "t": 80000,
      "d": 130,
      "v": 67
    },
    {
      "midi": 64,
      "hit": false,
      "t": 80000,
      "d": 145,
      "v": 72
    },
    {
      "midi": 76,
      "hit": false,
      "t": 80200,
      "d": 70,
      "v": 90
    },
    {
      "midi": 84,
      "hit": false,
      "t": 80200,
      "d": 95,
      "v": 98
    },
    {
      "midi": 88,
      "hit": false,
      "t": 80200,
      "d": 100,
      "v": 88
    },
    {
      "midi": 52,
      "hit": false,
      "t": 80200,
      "d": 110,
      "v": 90
    },
    {
      "midi": 60,
      "hit": false,
      "t": 80200,
      "d": 110,
      "v": 93
    },
    {
      "midi": 64,
      "hit": false,
      "t": 80200,
      "d": 120,
      "v": 89
    },
    {
      "midi": 84,
      "hit": false,
      "t": 80400,
      "d": 110,
      "v": 102
    },
    {
      "midi": 76,
      "hit": false,
      "t": 80400,
      "d": 135,
      "v": 102
    },
    {
      "midi": 88,
      "hit": false,
      "t": 80400,
      "d": 135,
      "v": 107
    },
    {
      "midi": 60,
      "hit": false,
      "t": 80400,
      "d": 200,
      "v": 104
    },
    {
      "midi": 64,
      "hit": false,
      "t": 80400,
      "d": 255,
      "v": 96
    },
    {
      "midi": 52,
      "hit": false,
      "t": 80400,
      "d": 340,
      "v": 93
    },
    {
      "midi": 76,
      "hit": false,
      "t": 81000,
      "d": 155,
      "v": 104
    },
    {
      "midi": 84,
      "hit": false,
      "t": 81000,
      "d": 175,
      "v": 111
    },
    {
      "midi": 88,
      "hit": false,
      "t": 81000,
      "d": 195,
      "v": 102
    },
    {
      "midi": 60,
      "hit": false,
      "t": 81000,
      "d": 235,
      "v": 104
    },
    {
      "midi": 64,
      "hit": false,
      "t": 81000,
      "d": 250,
      "v": 112
    },
    {
      "midi": 52,
      "hit": false,
      "t": 81000,
      "d": 270,
      "v": 91
    },
    {
      "midi": 28,
      "hit": false,
      "t": 81600,
      "d": 195,
      "v": 60
    },
    {
      "midi": 40,
      "hit": false,
      "t": 81600,
      "d": 195,
      "v": 57
    },
    {
      "midi": 41,
      "hit": false,
      "t": 81800,
      "d": 195,
      "v": 67
    },
    {
      "midi": 53,
      "hit": false,
      "t": 81800,
      "d": 195,
      "v": 67
    },
    {
      "midi": 30,
      "hit": false,
      "t": 82000,
      "d": 195,
      "v": 75
    },
    {
      "midi": 42,
      "hit": false,
      "t": 82000,
      "d": 195,
      "v": 71
    },
    {
      "midi": 43,
      "hit": false,
      "t": 82200,
      "d": 195,
      "v": 82
    },
    {
      "midi": 55,
      "hit": false,
      "t": 82200,
      "d": 195,
      "v": 86
    },
    {
      "midi": 32,
      "hit": false,
      "t": 82400,
      "d": 195,
      "v": 81
    },
    {
      "midi": 44,
      "hit": false,
      "t": 82400,
      "d": 195,
      "v": 80
    },
    {
      "midi": 45,
      "hit": false,
      "t": 82600,
      "d": 195,
      "v": 93
    },
    {
      "midi": 57,
      "hit": false,
      "t": 82600,
      "d": 195,
      "v": 88
    },
    {
      "midi": 34,
      "hit": false,
      "t": 82800,
      "d": 195,
      "v": 82
    },
    {
      "midi": 46,
      "hit": false,
      "t": 82800,
      "d": 195,
      "v": 103
    },
    {
      "midi": 47,
      "hit": false,
      "t": 83000,
      "d": 195,
      "v": 85
    },
    {
      "midi": 59,
      "hit": false,
      "t": 83000,
      "d": 195,
      "v": 84
    },
    {
      "midi": 36,
      "hit": false,
      "t": 83200,
      "d": 195,
      "v": 80
    },
    {
      "midi": 47,
      "hit": false,
      "t": 83200,
      "d": 195,
      "v": 75
    },
    {
      "midi": 48,
      "hit": false,
      "t": 83200,
      "d": 195,
      "v": 90
    },
    {
      "midi": 49,
      "hit": false,
      "t": 83400,
      "d": 195,
      "v": 103
    },
    {
      "midi": 61,
      "hit": false,
      "t": 83400,
      "d": 195,
      "v": 87
    },
    {
      "midi": 38,
      "hit": false,
      "t": 83600,
      "d": 195,
      "v": 85
    },
    {
      "midi": 50,
      "hit": false,
      "t": 83600,
      "d": 195,
      "v": 84
    },
    {
      "midi": 51,
      "hit": false,
      "t": 83800,
      "d": 195,
      "v": 101
    },
    {
      "midi": 63,
      "hit": false,
      "t": 83800,
      "d": 195,
      "v": 85
    },
    {
      "midi": 40,
      "hit": false,
      "t": 84000,
      "d": 195,
      "v": 78
    },
    {
      "midi": 52,
      "hit": false,
      "t": 84000,
      "d": 195,
      "v": 76
    },
    {
      "midi": 51,
      "hit": false,
      "t": 84200,
      "d": 195,
      "v": 88
    },
    {
      "midi": 63,
      "hit": false,
      "t": 84200,
      "d": 195,
      "v": 79
    },
    {
      "midi": 38,
      "hit": false,
      "t": 84400,
      "d": 195,
      "v": 82
    },
    {
      "midi": 50,
      "hit": false,
      "t": 84400,
      "d": 195,
      "v": 84
    },
    {
      "midi": 49,
      "hit": false,
      "t": 84600,
      "d": 195,
      "v": 82
    },
    {
      "midi": 61,
      "hit": false,
      "t": 84600,
      "d": 195,
      "v": 83
    },
    {
      "midi": 36,
      "hit": false,
      "t": 84800,
      "d": 195,
      "v": 72
    },
    {
      "midi": 48,
      "hit": false,
      "t": 84800,
      "d": 195,
      "v": 82
    },
    {
      "midi": 47,
      "hit": false,
      "t": 85000,
      "d": 195,
      "v": 72
    },
    {
      "midi": 59,
      "hit": false,
      "t": 85000,
      "d": 195,
      "v": 72
    },
    {
      "midi": 34,
      "hit": false,
      "t": 85200,
      "d": 195,
      "v": 68
    },
    {
      "midi": 46,
      "hit": false,
      "t": 85200,
      "d": 195,
      "v": 68
    },
    {
      "midi": 45,
      "hit": false,
      "t": 85400,
      "d": 195,
      "v": 80
    },
    {
      "midi": 57,
      "hit": false,
      "t": 85400,
      "d": 195,
      "v": 78
    },
    {
      "midi": 32,
      "hit": false,
      "t": 85600,
      "d": 195,
      "v": 63
    },
    {
      "midi": 44,
      "hit": false,
      "t": 85600,
      "d": 195,
      "v": 64
    },
    {
      "midi": 43,
      "hit": false,
      "t": 85800,
      "d": 195,
      "v": 74
    },
    {
      "midi": 55,
      "hit": false,
      "t": 85800,
      "d": 195,
      "v": 82
    },
    {
      "midi": 30,
      "hit": false,
      "t": 86000,
      "d": 195,
      "v": 73
    },
    {
      "midi": 42,
      "hit": false,
      "t": 86000,
      "d": 195,
      "v": 75
    },
    {
      "midi": 41,
      "hit": false,
      "t": 86200,
      "d": 195,
      "v": 65
    },
    {
      "midi": 53,
      "hit": false,
      "t": 86200,
      "d": 195,
      "v": 74
    },
    {
      "midi": 28,
      "hit": false,
      "t": 86400,
      "d": 195,
      "v": 67
    },
    {
      "midi": 40,
      "hit": false,
      "t": 86400,
      "d": 195,
      "v": 71
    },
    {
      "midi": 88,
      "hit": false,
      "t": 87000,
      "d": 110,
      "v": 97
    },
    {
      "midi": 64,
      "hit": false,
      "t": 87000,
      "d": 125,
      "v": 82
    },
    {
      "midi": 68,
      "hit": false,
      "t": 87000,
      "d": 125,
      "v": 78
    },
    {
      "midi": 71,
      "hit": false,
      "t": 87000,
      "d": 140,
      "v": 82
    },
    {
      "midi": 83,
      "hit": false,
      "t": 87000,
      "d": 140,
      "v": 101
    },
    {
      "midi": 95,
      "hit": false,
      "t": 87000,
      "d": 150,
      "v": 87
    },
    {
      "midi": 76,
      "hit": false,
      "t": 87000,
      "d": 750,
      "v": 82
    },
    {
      "midi": 71,
      "hit": false,
      "t": 87300,
      "d": 115,
      "v": 82
    },
    {
      "midi": 88,
      "hit": false,
      "t": 87300,
      "d": 115,
      "v": 93
    },
    {
      "midi": 83,
      "hit": false,
      "t": 87300,
      "d": 120,
      "v": 92
    },
    {
      "midi": 64,
      "hit": false,
      "t": 87300,
      "d": 125,
      "v": 87
    },
    {
      "midi": 68,
      "hit": false,
      "t": 87300,
      "d": 125,
      "v": 78
    },
    {
      "midi": 95,
      "hit": false,
      "t": 87300,
      "d": 130,
      "v": 85
    },
    {
      "midi": 68,
      "hit": false,
      "t": 87600,
      "d": 195,
      "v": 93
    },
    {
      "midi": 88,
      "hit": false,
      "t": 87600,
      "d": 200,
      "v": 112
    },
    {
      "midi": 64,
      "hit": false,
      "t": 87600,
      "d": 205,
      "v": 104
    },
    {
      "midi": 71,
      "hit": false,
      "t": 87600,
      "d": 215,
      "v": 98
    },
    {
      "midi": 83,
      "hit": false,
      "t": 87600,
      "d": 220,
      "v": 109
    },
    {
      "midi": 95,
      "hit": false,
      "t": 87600,
      "d": 220,
      "v": 97
    },
    {
      "midi": 83,
      "hit": false,
      "t": 88200,
      "d": 125,
      "v": 104
    },
    {
      "midi": 88,
      "hit": false,
      "t": 88200,
      "d": 140,
      "v": 100
    },
    {
      "midi": 95,
      "hit": false,
      "t": 88200,
      "d": 205,
      "v": 84
    },
    {
      "midi": 71,
      "hit": false,
      "t": 88200,
      "d": 220,
      "v": 94
    },
    {
      "midi": 68,
      "hit": false,
      "t": 88200,
      "d": 235,
      "v": 91
    },
    {
      "midi": 64,
      "hit": false,
      "t": 88200,
      "d": 275,
      "v": 97
    },
    {
      "midi": 76,
      "hit": false,
      "t": 88200,
      "d": 325,
      "v": 84
    },
    {
      "midi": 76,
      "hit": false,
      "t": 88800,
      "d": 680,
      "v": 61
    },
    {
      "midi": 72,
      "hit": false,
      "t": 88800,
      "d": 750,
      "v": 93
    },
    {
      "midi": 100,
      "hit": false,
      "t": 88800,
      "d": 750,
      "v": 93
    },
    {
      "midi": 67,
      "hit": false,
      "t": 88800,
      "d": 765,
      "v": 101
    },
    {
      "midi": 64,
      "hit": false,
      "t": 88800,
      "d": 770,
      "v": 105
    },
    {
      "midi": 91,
      "hit": false,
      "t": 88800,
      "d": 805,
      "v": 116
    },
    {
      "midi": 88,
      "hit": false,
      "t": 88800,
      "d": 825,
      "v": 123
    },
    {
      "midi": 100,
      "hit": false,
      "t": 90000,
      "d": 610,
      "v": 109
    },
    {
      "midi": 91,
      "hit": false,
      "t": 90000,
      "d": 705,
      "v": 121
    },
    {
      "midi": 88,
      "hit": false,
      "t": 90000,
      "d": 730,
      "v": 116
    },
    {
      "midi": 72,
      "hit": false,
      "t": 90000,
      "d": 800,
      "v": 102
    },
    {
      "midi": 76,
      "hit": false,
      "t": 90000,
      "d": 840,
      "v": 82
    },
    {
      "midi": 64,
      "hit": false,
      "t": 90000,
      "d": 845,
      "v": 109
    },
    {
      "midi": 67,
      "hit": false,
      "t": 90000,
      "d": 845,
      "v": 100
    },
    {
      "midi": 28,
      "hit": false,
      "t": 91200,
      "d": 195,
      "v": 66
    },
    {
      "midi": 40,
      "hit": false,
      "t": 91200,
      "d": 195,
      "v": 58
    },
    {
      "midi": 41,
      "hit": false,
      "t": 91400,
      "d": 195,
      "v": 67
    },
    {
      "midi": 53,
      "hit": false,
      "t": 91400,
      "d": 195,
      "v": 69
    },
    {
      "midi": 30,
      "hit": false,
      "t": 91600,
      "d": 195,
      "v": 75
    },
    {
      "midi": 42,
      "hit": false,
      "t": 91600,
      "d": 195,
      "v": 63
    },
    {
      "midi": 43,
      "hit": false,
      "t": 91800,
      "d": 195,
      "v": 75
    },
    {
      "midi": 55,
      "hit": false,
      "t": 91800,
      "d": 195,
      "v": 76
    },
    {
      "midi": 32,
      "hit": false,
      "t": 92000,
      "d": 195,
      "v": 78
    },
    {
      "midi": 44,
      "hit": false,
      "t": 92000,
      "d": 195,
      "v": 78
    },
    {
      "midi": 45,
      "hit": false,
      "t": 92200,
      "d": 195,
      "v": 78
    },
    {
      "midi": 57,
      "hit": false,
      "t": 92200,
      "d": 195,
      "v": 85
    },
    {
      "midi": 34,
      "hit": false,
      "t": 92400,
      "d": 195,
      "v": 76
    },
    {
      "midi": 46,
      "hit": false,
      "t": 92400,
      "d": 195,
      "v": 83
    },
    {
      "midi": 47,
      "hit": false,
      "t": 92600,
      "d": 195,
      "v": 88
    },
    {
      "midi": 59,
      "hit": false,
      "t": 92600,
      "d": 195,
      "v": 85
    },
    {
      "midi": 36,
      "hit": false,
      "t": 92800,
      "d": 195,
      "v": 71
    },
    {
      "midi": 48,
      "hit": false,
      "t": 92800,
      "d": 195,
      "v": 79
    },
    {
      "midi": 49,
      "hit": false,
      "t": 93000,
      "d": 195,
      "v": 81
    },
    {
      "midi": 61,
      "hit": false,
      "t": 93000,
      "d": 195,
      "v": 85
    },
    {
      "midi": 38,
      "hit": false,
      "t": 93200,
      "d": 195,
      "v": 85
    },
    {
      "midi": 50,
      "hit": false,
      "t": 93200,
      "d": 195,
      "v": 78
    },
    {
      "midi": 51,
      "hit": false,
      "t": 93400,
      "d": 195,
      "v": 110
    },
    {
      "midi": 63,
      "hit": false,
      "t": 93400,
      "d": 195,
      "v": 86
    },
    {
      "midi": 40,
      "hit": false,
      "t": 93600,
      "d": 195,
      "v": 82
    },
    {
      "midi": 52,
      "hit": false,
      "t": 93600,
      "d": 195,
      "v": 85
    },
    {
      "midi": 51,
      "hit": false,
      "t": 93800,
      "d": 195,
      "v": 108
    },
    {
      "midi": 63,
      "hit": false,
      "t": 93800,
      "d": 195,
      "v": 85
    },
    {
      "midi": 38,
      "hit": false,
      "t": 94000,
      "d": 195,
      "v": 82
    },
    {
      "midi": 50,
      "hit": false,
      "t": 94000,
      "d": 195,
      "v": 83
    },
    {
      "midi": 49,
      "hit": false,
      "t": 94200,
      "d": 195,
      "v": 82
    },
    {
      "midi": 61,
      "hit": false,
      "t": 94200,
      "d": 195,
      "v": 85
    },
    {
      "midi": 36,
      "hit": false,
      "t": 94400,
      "d": 195,
      "v": 76
    },
    {
      "midi": 48,
      "hit": false,
      "t": 94400,
      "d": 195,
      "v": 72
    },
    {
      "midi": 47,
      "hit": false,
      "t": 94600,
      "d": 195,
      "v": 72
    },
    {
      "midi": 59,
      "hit": false,
      "t": 94600,
      "d": 195,
      "v": 74
    },
    {
      "midi": 34,
      "hit": false,
      "t": 94800,
      "d": 195,
      "v": 68
    },
    {
      "midi": 46,
      "hit": false,
      "t": 94800,
      "d": 195,
      "v": 68
    },
    {
      "midi": 45,
      "hit": false,
      "t": 95000,
      "d": 195,
      "v": 72
    },
    {
      "midi": 57,
      "hit": false,
      "t": 95000,
      "d": 195,
      "v": 72
    },
    {
      "midi": 32,
      "hit": false,
      "t": 95200,
      "d": 195,
      "v": 64
    },
    {
      "midi": 44,
      "hit": false,
      "t": 95200,
      "d": 195,
      "v": 68
    },
    {
      "midi": 43,
      "hit": false,
      "t": 95400,
      "d": 195,
      "v": 60
    },
    {
      "midi": 55,
      "hit": false,
      "t": 95400,
      "d": 195,
      "v": 67
    },
    {
      "midi": 30,
      "hit": false,
      "t": 95600,
      "d": 195,
      "v": 46
    },
    {
      "midi": 42,
      "hit": false,
      "t": 95600,
      "d": 195,
      "v": 59
    },
    {
      "midi": 41,
      "hit": false,
      "t": 95800,
      "d": 195,
      "v": 58
    },
    {
      "midi": 53,
      "hit": false,
      "t": 95800,
      "d": 195,
      "v": 62
    },
    {
      "midi": 28,
      "hit": false,
      "t": 96000,
      "d": 195,
      "v": 63
    },
    {
      "midi": 40,
      "hit": false,
      "t": 96000,
      "d": 195,
      "v": 67
    },
    {
      "midi": 64,
      "hit": false,
      "t": 96600,
      "d": 125,
      "v": 84
    },
    {
      "midi": 83,
      "hit": false,
      "t": 96600,
      "d": 130,
      "v": 85
    },
    {
      "midi": 71,
      "hit": false,
      "t": 96600,
      "d": 140,
      "v": 88
    },
    {
      "midi": 88,
      "hit": false,
      "t": 96600,
      "d": 140,
      "v": 93
    },
    {
      "midi": 68,
      "hit": false,
      "t": 96600,
      "d": 145,
      "v": 82
    },
    {
      "midi": 95,
      "hit": false,
      "t": 96600,
      "d": 160,
      "v": 80
    },
    {
      "midi": 76,
      "hit": false,
      "t": 96600,
      "d": 225,
      "v": 82
    },
    {
      "midi": 88,
      "hit": false,
      "t": 96900,
      "d": 120,
      "v": 100
    },
    {
      "midi": 83,
      "hit": false,
      "t": 96900,
      "d": 125,
      "v": 96
    },
    {
      "midi": 64,
      "hit": false,
      "t": 96900,
      "d": 130,
      "v": 93
    },
    {
      "midi": 71,
      "hit": false,
      "t": 96900,
      "d": 140,
      "v": 81
    },
    {
      "midi": 68,
      "hit": false,
      "t": 96900,
      "d": 165,
      "v": 87
    },
    {
      "midi": 95,
      "hit": false,
      "t": 96900,
      "d": 170,
      "v": 93
    },
    {
      "midi": 76,
      "hit": false,
      "t": 96900,
      "d": 220,
      "v": 71
    },
    {
      "midi": 88,
      "hit": false,
      "t": 97200,
      "d": 180,
      "v": 112
    },
    {
      "midi": 83,
      "hit": false,
      "t": 97200,
      "d": 190,
      "v": 107
    },
    {
      "midi": 95,
      "hit": false,
      "t": 97200,
      "d": 250,
      "v": 92
    },
    {
      "midi": 64,
      "hit": false,
      "t": 97200,
      "d": 255,
      "v": 109
    },
    {
      "midi": 68,
      "hit": false,
      "t": 97200,
      "d": 270,
      "v": 99
    },
    {
      "midi": 71,
      "hit": false,
      "t": 97200,
      "d": 315,
      "v": 102
    },
    {
      "midi": 76,
      "hit": false,
      "t": 97200,
      "d": 340,
      "v": 91
    },
    {
      "midi": 83,
      "hit": false,
      "t": 97800,
      "d": 145,
      "v": 104
    },
    {
      "midi": 88,
      "hit": false,
      "t": 97800,
      "d": 150,
      "v": 101
    },
    {
      "midi": 95,
      "hit": false,
      "t": 97800,
      "d": 230,
      "v": 90
    },
    {
      "midi": 64,
      "hit": false,
      "t": 97800,
      "d": 270,
      "v": 100
    },
    {
      "midi": 68,
      "hit": false,
      "t": 97800,
      "d": 275,
      "v": 88
    },
    {
      "midi": 71,
      "hit": false,
      "t": 97800,
      "d": 285,
      "v": 91
    },
    {
      "midi": 76,
      "hit": false,
      "t": 97800,
      "d": 295,
      "v": 87
    },
    {
      "midi": 100,
      "hit": false,
      "t": 98400,
      "d": 655,
      "v": 109
    },
    {
      "midi": 76,
      "hit": false,
      "t": 98400,
      "d": 780,
      "v": 96
    },
    {
      "midi": 64,
      "hit": false,
      "t": 98400,
      "d": 810,
      "v": 123
    },
    {
      "midi": 67,
      "hit": false,
      "t": 98400,
      "d": 810,
      "v": 111
    },
    {
      "midi": 91,
      "hit": false,
      "t": 98400,
      "d": 810,
      "v": 116
    },
    {
      "midi": 88,
      "hit": false,
      "t": 98400,
      "d": 840,
      "v": 116
    },
    {
      "midi": 88,
      "hit": false,
      "t": 99600,
      "d": 690,
      "v": 127
    },
    {
      "midi": 91,
      "hit": false,
      "t": 99600,
      "d": 690,
      "v": 125
    },
    {
      "midi": 100,
      "hit": false,
      "t": 99600,
      "d": 700,
      "v": 109
    },
    {
      "midi": 76,
      "hit": false,
      "t": 99600,
      "d": 790,
      "v": 100
    },
    {
      "midi": 67,
      "hit": false,
      "t": 99600,
      "d": 800,
      "v": 127
    },
    {
      "midi": 64,
      "hit": false,
      "t": 99600,
      "d": 810,
      "v": 127
    },
    {
      "midi": 21,
      "hit": false,
      "t": 100735,
      "d": 160,
      "v": 70
    },
    {
      "midi": 33,
      "hit": false,
      "t": 100755,
      "d": 175,
      "v": 60
    },
    {
      "midi": 34,
      "hit": false,
      "t": 100975,
      "d": 130,
      "v": 64
    },
    {
      "midi": 46,
      "hit": false,
      "t": 100975,
      "d": 145,
      "v": 69
    },
    {
      "midi": 23,
      "hit": false,
      "t": 101155,
      "d": 145,
      "v": 70
    },
    {
      "midi": 35,
      "hit": false,
      "t": 101170,
      "d": 85,
      "v": 72
    },
    {
      "midi": 36,
      "hit": false,
      "t": 101415,
      "d": 125,
      "v": 58
    },
    {
      "midi": 48,
      "hit": false,
      "t": 101425,
      "d": 115,
      "v": 70
    },
    {
      "midi": 37,
      "hit": false,
      "t": 101595,
      "d": 140,
      "v": 86
    },
    {
      "midi": 25,
      "hit": false,
      "t": 101610,
      "d": 115,
      "v": 71
    },
    {
      "midi": 50,
      "hit": false,
      "t": 101790,
      "d": 165,
      "v": 82
    },
    {
      "midi": 38,
      "hit": false,
      "t": 101800,
      "d": 140,
      "v": 79
    },
    {
      "midi": 39,
      "hit": false,
      "t": 101995,
      "d": 145,
      "v": 86
    },
    {
      "midi": 27,
      "hit": false,
      "t": 102015,
      "d": 100,
      "v": 75
    },
    {
      "midi": 40,
      "hit": false,
      "t": 102175,
      "d": 155,
      "v": 87
    },
    {
      "midi": 52,
      "hit": false,
      "t": 102190,
      "d": 170,
      "v": 88
    },
    {
      "midi": 41,
      "hit": false,
      "t": 102450,
      "d": 125,
      "v": 80
    },
    {
      "midi": 40,
      "hit": false,
      "t": 102460,
      "d": 95,
      "v": 80
    },
    {
      "midi": 29,
      "hit": false,
      "t": 102460,
      "d": 105,
      "v": 76
    },
    {
      "midi": 28,
      "hit": false,
      "t": 102475,
      "d": 55,
      "v": 74
    },
    {
      "midi": 43,
      "hit": false,
      "t": 102660,
      "d": 145,
      "v": 97
    },
    {
      "midi": 55,
      "hit": false,
      "t": 102715,
      "d": 85,
      "v": 72
    },
    {
      "midi": 43,
      "hit": false,
      "t": 102880,
      "d": 125,
      "v": 85
    },
    {
      "midi": 31,
      "hit": false,
      "t": 102885,
      "d": 110,
      "v": 85
    },
    {
      "midi": 41,
      "hit": false,
      "t": 102905,
      "d": 35,
      "v": 74
    },
    {
      "midi": 56,
      "hit": false,
      "t": 103065,
      "d": 140,
      "v": 93
    },
    {
      "midi": 44,
      "hit": false,
      "t": 103075,
      "d": 125,
      "v": 103
    },
    {
      "midi": 33,
      "hit": false,
      "t": 103245,
      "d": 160,
      "v": 92
    },
    {
      "midi": 45,
      "hit": false,
      "t": 103255,
      "d": 130,
      "v": 107
    },
    {
      "midi": 44,
      "hit": false,
      "t": 103420,
      "d": 145,
      "v": 99
    },
    {
      "midi": 56,
      "hit": false,
      "t": 103420,
      "d": 145,
      "v": 98
    },
    {
      "midi": 43,
      "hit": false,
      "t": 103605,
      "d": 140,
      "v": 87
    },
    {
      "midi": 31,
      "hit": false,
      "t": 103615,
      "d": 130,
      "v": 81
    },
    {
      "midi": 54,
      "hit": false,
      "t": 103805,
      "d": 145,
      "v": 87
    },
    {
      "midi": 42,
      "hit": false,
      "t": 103815,
      "d": 125,
      "v": 88
    },
    {
      "midi": 41,
      "hit": false,
      "t": 103960,
      "d": 110,
      "v": 84
    },
    {
      "midi": 29,
      "hit": false,
      "t": 103975,
      "d": 130,
      "v": 79
    },
    {
      "midi": 52,
      "hit": false,
      "t": 104215,
      "d": 140,
      "v": 84
    },
    {
      "midi": 40,
      "hit": false,
      "t": 104230,
      "d": 115,
      "v": 85
    },
    {
      "midi": 39,
      "hit": false,
      "t": 104400,
      "d": 130,
      "v": 81
    },
    {
      "midi": 27,
      "hit": false,
      "t": 104415,
      "d": 95,
      "v": 81
    },
    {
      "midi": 50,
      "hit": false,
      "t": 104640,
      "d": 120,
      "v": 66
    },
    {
      "midi": 38,
      "hit": false,
      "t": 104640,
      "d": 135,
      "v": 84
    },
    {
      "midi": 37,
      "hit": false,
      "t": 104820,
      "d": 115,
      "v": 66
    },
    {
      "midi": 25,
      "hit": false,
      "t": 104835,
      "d": 100,
      "v": 79
    },
    {
      "midi": 36,
      "hit": false,
      "t": 105025,
      "d": 140,
      "v": 77
    },
    {
      "midi": 48,
      "hit": false,
      "t": 105040,
      "d": 110,
      "v": 65
    },
    {
      "midi": 35,
      "hit": false,
      "t": 105250,
      "d": 135,
      "v": 71
    },
    {
      "midi": 23,
      "hit": false,
      "t": 105265,
      "d": 115,
      "v": 76
    },
    {
      "midi": 46,
      "hit": false,
      "t": 105440,
      "d": 145,
      "v": 73
    },
    {
      "midi": 34,
      "hit": false,
      "t": 105440,
      "d": 160,
      "v": 93
    },
    {
      "midi": 33,
      "hit": false,
      "t": 105680,
      "d": 400,
      "v": 78
    },
    {
      "midi": 21,
      "hit": false,
      "t": 105690,
      "d": 395,
      "v": 76
    },
    {
      "midi": 69,
      "hit": false,
      "t": 106200,
      "d": 100,
      "v": 72
    },
    {
      "midi": 81,
      "hit": false,
      "t": 106200,
      "d": 125,
      "v": 89
    },
    {
      "midi": 64,
      "hit": false,
      "t": 106200,
      "d": 135,
      "v": 80
    },
    {
      "midi": 57,
      "hit": false,
      "t": 106200,
      "d": 140,
      "v": 76
    },
    {
      "midi": 76,
      "hit": false,
      "t": 106200,
      "d": 140,
      "v": 87
    },
    {
      "midi": 88,
      "hit": false,
      "t": 106200,
      "d": 170,
      "v": 85
    },
    {
      "midi": 61,
      "hit": false,
      "t": 106200,
      "d": 185,
      "v": 73
    },
    {
      "midi": 76,
      "hit": false,
      "t": 106500,
      "d": 125,
      "v": 89
    },
    {
      "midi": 88,
      "hit": false,
      "t": 106500,
      "d": 135,
      "v": 86
    },
    {
      "midi": 69,
      "hit": false,
      "t": 106500,
      "d": 140,
      "v": 83
    },
    {
      "midi": 81,
      "hit": false,
      "t": 106500,
      "d": 140,
      "v": 93
    },
    {
      "midi": 57,
      "hit": false,
      "t": 106500,
      "d": 155,
      "v": 76
    },
    {
      "midi": 61,
      "hit": false,
      "t": 106500,
      "d": 175,
      "v": 77
    },
    {
      "midi": 64,
      "hit": false,
      "t": 106500,
      "d": 180,
      "v": 87
    },
    {
      "midi": 57,
      "hit": false,
      "t": 106800,
      "d": 180,
      "v": 80
    },
    {
      "midi": 69,
      "hit": false,
      "t": 106800,
      "d": 200,
      "v": 85
    },
    {
      "midi": 61,
      "hit": false,
      "t": 106800,
      "d": 210,
      "v": 80
    },
    {
      "midi": 64,
      "hit": false,
      "t": 106800,
      "d": 210,
      "v": 91
    },
    {
      "midi": 81,
      "hit": false,
      "t": 106800,
      "d": 220,
      "v": 109
    },
    {
      "midi": 76,
      "hit": false,
      "t": 106800,
      "d": 235,
      "v": 111
    },
    {
      "midi": 88,
      "hit": false,
      "t": 106800,
      "d": 255,
      "v": 98
    },
    {
      "midi": 64,
      "hit": false,
      "t": 107400,
      "d": 180,
      "v": 88
    },
    {
      "midi": 57,
      "hit": false,
      "t": 107400,
      "d": 185,
      "v": 74
    },
    {
      "midi": 61,
      "hit": false,
      "t": 107400,
      "d": 240,
      "v": 77
    },
    {
      "midi": 69,
      "hit": false,
      "t": 107400,
      "d": 250,
      "v": 101
    },
    {
      "midi": 88,
      "hit": false,
      "t": 107400,
      "d": 260,
      "v": 82
    },
    {
      "midi": 76,
      "hit": false,
      "t": 107400,
      "d": 285,
      "v": 92
    },
    {
      "midi": 81,
      "hit": false,
      "t": 107400,
      "d": 335,
      "v": 92
    },
    {
      "midi": 89,
      "hit": false,
      "t": 108000,
      "d": 750,
      "v": 101
    },
    {
      "midi": 81,
      "hit": false,
      "t": 108000,
      "d": 780,
      "v": 114
    },
    {
      "midi": 77,
      "hit": false,
      "t": 108000,
      "d": 830,
      "v": 116
    },
    {
      "midi": 57,
      "hit": false,
      "t": 108000,
      "d": 875,
      "v": 85
    },
    {
      "midi": 60,
      "hit": false,
      "t": 108000,
      "d": 880,
      "v": 78
    },
    {
      "midi": 65,
      "hit": false,
      "t": 108000,
      "d": 895,
      "v": 97
    },
    {
      "midi": 69,
      "hit": false,
      "t": 108000,
      "d": 900,
      "v": 90
    },
    {
      "midi": 89,
      "hit": false,
      "t": 109200,
      "d": 760,
      "v": 111
    },
    {
      "midi": 101,
      "hit": false,
      "t": 109200,
      "d": 780,
      "v": 102
    },
    {
      "midi": 93,
      "hit": false,
      "t": 109200,
      "d": 820,
      "v": 109
    },
    {
      "midi": 77,
      "hit": false,
      "t": 109200,
      "d": 850,
      "v": 116
    },
    {
      "midi": 69,
      "hit": false,
      "t": 109200,
      "d": 890,
      "v": 114
    },
    {
      "midi": 72,
      "hit": false,
      "t": 109200,
      "d": 900,
      "v": 111
    },
    {
      "midi": 81,
      "hit": false,
      "t": 109200,
      "d": 910,
      "v": 101
    },
    {
      "midi": 21,
      "hit": false,
      "t": 110395,
      "d": 135,
      "v": 67
    },
    {
      "midi": 33,
      "hit": false,
      "t": 110450,
      "d": 110,
      "v": 55
    },
    {
      "midi": 46,
      "hit": false,
      "t": 110625,
      "d": 170,
      "v": 66
    },
    {
      "midi": 34,
      "hit": false,
      "t": 110635,
      "d": 130,
      "v": 52
    },
    {
      "midi": 23,
      "hit": false,
      "t": 110775,
      "d": 145,
      "v": 70
    },
    {
      "midi": 35,
      "hit": false,
      "t": 110790,
      "d": 115,
      "v": 69
    },
    {
      "midi": 36,
      "hit": false,
      "t": 111015,
      "d": 135,
      "v": 67
    },
    {
      "midi": 48,
      "hit": false,
      "t": 111040,
      "d": 95,
      "v": 59
    },
    {
      "midi": 37,
      "hit": false,
      "t": 111205,
      "d": 150,
      "v": 85
    },
    {
      "midi": 25,
      "hit": false,
      "t": 111220,
      "d": 115,
      "v": 68
    },
    {
      "midi": 38,
      "hit": false,
      "t": 111395,
      "d": 145,
      "v": 83
    },
    {
      "midi": 50,
      "hit": false,
      "t": 111405,
      "d": 150,
      "v": 82
    },
    {
      "midi": 39,
      "hit": false,
      "t": 111630,
      "d": 120,
      "v": 81
    },
    {
      "midi": 27,
      "hit": false,
      "t": 111655,
      "d": 75,
      "v": 69
    },
    {
      "midi": 40,
      "hit": false,
      "t": 111760,
      "d": 150,
      "v": 84
    },
    {
      "midi": 52,
      "hit": false,
      "t": 111775,
      "d": 180,
      "v": 89
    },
    {
      "midi": 41,
      "hit": false,
      "t": 112030,
      "d": 125,
      "v": 76
    },
    {
      "midi": 40,
      "hit": false,
      "t": 112035,
      "d": 110,
      "v": 76
    },
    {
      "midi": 28,
      "hit": false,
      "t": 112070,
      "d": 50,
      "v": 65
    },
    {
      "midi": 29,
      "hit": false,
      "t": 112070,
      "d": 50,
      "v": 68
    },
    {
      "midi": 41,
      "hit": false,
      "t": 112220,
      "d": 140,
      "v": 71
    },
    {
      "midi": 54,
      "hit": false,
      "t": 112235,
      "d": 120,
      "v": 70
    },
    {
      "midi": 53,
      "hit": false,
      "t": 112280,
      "d": 55,
      "v": 55
    },
    {
      "midi": 31,
      "hit": false,
      "t": 112480,
      "d": 105,
      "v": 70
    },
    {
      "midi": 43,
      "hit": false,
      "t": 112480,
      "d": 110,
      "v": 101
    },
    {
      "midi": 41,
      "hit": false,
      "t": 112505,
      "d": 30,
      "v": 76
    },
    {
      "midi": 44,
      "hit": false,
      "t": 112630,
      "d": 140,
      "v": 99
    },
    {
      "midi": 56,
      "hit": false,
      "t": 112640,
      "d": 130,
      "v": 91
    },
    {
      "midi": 45,
      "hit": false,
      "t": 112850,
      "d": 130,
      "v": 88
    },
    {
      "midi": 33,
      "hit": false,
      "t": 112850,
      "d": 150,
      "v": 96
    },
    {
      "midi": 43,
      "hit": false,
      "t": 112865,
      "d": 85,
      "v": 90
    },
    {
      "midi": 56,
      "hit": false,
      "t": 112980,
      "d": 160,
      "v": 99
    },
    {
      "midi": 44,
      "hit": false,
      "t": 112985,
      "d": 140,
      "v": 110
    },
    {
      "midi": 43,
      "hit": false,
      "t": 113175,
      "d": 140,
      "v": 90
    },
    {
      "midi": 31,
      "hit": false,
      "t": 113190,
      "d": 135,
      "v": 82
    },
    {
      "midi": 42,
      "hit": false,
      "t": 113345,
      "d": 140,
      "v": 98
    },
    {
      "midi": 54,
      "hit": false,
      "t": 113355,
      "d": 130,
      "v": 95
    },
    {
      "midi": 41,
      "hit": false,
      "t": 113520,
      "d": 105,
      "v": 90
    },
    {
      "midi": 29,
      "hit": false,
      "t": 113535,
      "d": 145,
      "v": 82
    },
    {
      "midi": 52,
      "hit": false,
      "t": 113755,
      "d": 125,
      "v": 90
    },
    {
      "midi": 40,
      "hit": false,
      "t": 113755,
      "d": 130,
      "v": 101
    },
    {
      "midi": 39,
      "hit": false,
      "t": 113960,
      "d": 125,
      "v": 96
    },
    {
      "midi": 27,
      "hit": false,
      "t": 113965,
      "d": 110,
      "v": 79
    },
    {
      "midi": 50,
      "hit": false,
      "t": 114145,
      "d": 135,
      "v": 84
    },
    {
      "midi": 38,
      "hit": false,
      "t": 114155,
      "d": 135,
      "v": 84
    },
    {
      "midi": 37,
      "hit": false,
      "t": 114365,
      "d": 110,
      "v": 78
    },
    {
      "midi": 25,
      "hit": false,
      "t": 114380,
      "d": 95,
      "v": 79
    },
    {
      "midi": 48,
      "hit": false,
      "t": 114530,
      "d": 135,
      "v": 84
    },
    {
      "midi": 36,
      "hit": false,
      "t": 114530,
      "d": 140,
      "v": 81
    },
    {
      "midi": 35,
      "hit": false,
      "t": 114780,
      "d": 130,
      "v": 79
    },
    {
      "midi": 23,
      "hit": false,
      "t": 114795,
      "d": 90,
      "v": 74
    },
    {
      "midi": 34,
      "hit": false,
      "t": 114950,
      "d": 190,
      "v": 83
    },
    {
      "midi": 46,
      "hit": false,
      "t": 114960,
      "d": 200,
      "v": 81
    },
    {
      "midi": 33,
      "hit": false,
      "t": 115190,
      "d": 540,
      "v": 82
    },
    {
      "midi": 21,
      "hit": false,
      "t": 115215,
      "d": 555,
      "v": 82
    },
    {
      "midi": 57,
      "hit": false,
      "t": 115800,
      "d": 120,
      "v": 74
    },
    {
      "midi": 76,
      "hit": false,
      "t": 115800,
      "d": 130,
      "v": 91
    },
    {
      "midi": 81,
      "hit": false,
      "t": 115800,
      "d": 140,
      "v": 98
    },
    {
      "midi": 69,
      "hit": false,
      "t": 115800,
      "d": 155,
      "v": 74
    },
    {
      "midi": 88,
      "hit": false,
      "t": 115800,
      "d": 160,
      "v": 87
    },
    {
      "midi": 64,
      "hit": false,
      "t": 115800,
      "d": 170,
      "v": 81
    },
    {
      "midi": 61,
      "hit": false,
      "t": 115800,
      "d": 180,
      "v": 70
    },
    {
      "midi": 57,
      "hit": false,
      "t": 116100,
      "d": 110,
      "v": 70
    },
    {
      "midi": 76,
      "hit": false,
      "t": 116100,
      "d": 120,
      "v": 100
    },
    {
      "midi": 88,
      "hit": false,
      "t": 116100,
      "d": 130,
      "v": 86
    },
    {
      "midi": 81,
      "hit": false,
      "t": 116100,
      "d": 135,
      "v": 98
    },
    {
      "midi": 69,
      "hit": false,
      "t": 116100,
      "d": 185,
      "v": 88
    },
    {
      "midi": 61,
      "hit": false,
      "t": 116100,
      "d": 190,
      "v": 75
    },
    {
      "midi": 64,
      "hit": false,
      "t": 116100,
      "d": 190,
      "v": 83
    },
    {
      "midi": 57,
      "hit": false,
      "t": 116400,
      "d": 140,
      "v": 75
    },
    {
      "midi": 76,
      "hit": false,
      "t": 116400,
      "d": 155,
      "v": 111
    },
    {
      "midi": 81,
      "hit": false,
      "t": 116400,
      "d": 190,
      "v": 105
    },
    {
      "midi": 88,
      "hit": false,
      "t": 116400,
      "d": 215,
      "v": 94
    },
    {
      "midi": 61,
      "hit": false,
      "t": 116400,
      "d": 230,
      "v": 70
    },
    {
      "midi": 64,
      "hit": false,
      "t": 116400,
      "d": 275,
      "v": 84
    },
    {
      "midi": 69,
      "hit": false,
      "t": 116400,
      "d": 280,
      "v": 88
    },
    {
      "midi": 64,
      "hit": false,
      "t": 117000,
      "d": 140,
      "v": 82
    },
    {
      "midi": 76,
      "hit": false,
      "t": 117000,
      "d": 140,
      "v": 105
    },
    {
      "midi": 88,
      "hit": false,
      "t": 117000,
      "d": 140,
      "v": 87
    },
    {
      "midi": 57,
      "hit": false,
      "t": 117000,
      "d": 195,
      "v": 74
    },
    {
      "midi": 81,
      "hit": false,
      "t": 117000,
      "d": 205,
      "v": 100
    },
    {
      "midi": 61,
      "hit": false,
      "t": 117000,
      "d": 225,
      "v": 77
    },
    {
      "midi": 69,
      "hit": false,
      "t": 117000,
      "d": 270,
      "v": 83
    },
    {
      "midi": 90,
      "hit": false,
      "t": 117600,
      "d": 670,
      "v": 99
    },
    {
      "midi": 81,
      "hit": false,
      "t": 117600,
      "d": 675,
      "v": 109
    },
    {
      "midi": 57,
      "hit": false,
      "t": 117600,
      "d": 685,
      "v": 91
    },
    {
      "midi": 78,
      "hit": false,
      "t": 117600,
      "d": 720,
      "v": 103
    },
    {
      "midi": 61,
      "hit": false,
      "t": 117600,
      "d": 745,
      "v": 85
    },
    {
      "midi": 66,
      "hit": false,
      "t": 117600,
      "d": 745,
      "v": 101
    },
    {
      "midi": 69,
      "hit": false,
      "t": 117600,
      "d": 810,
      "v": 100
    },
    {
      "midi": 102,
      "hit": false,
      "t": 118800,
      "d": 765,
      "v": 101
    },
    {
      "midi": 81,
      "hit": false,
      "t": 118800,
      "d": 785,
      "v": 91
    },
    {
      "midi": 93,
      "hit": false,
      "t": 118800,
      "d": 795,
      "v": 118
    },
    {
      "midi": 78,
      "hit": false,
      "t": 118800,
      "d": 815,
      "v": 92
    },
    {
      "midi": 90,
      "hit": false,
      "t": 118800,
      "d": 815,
      "v": 110
    },
    {
      "midi": 73,
      "hit": false,
      "t": 118800,
      "d": 820,
      "v": 101
    },
    {
      "midi": 69,
      "hit": false,
      "t": 118800,
      "d": 835,
      "v": 109
    },
    {
      "midi": 57,
      "hit": false,
      "t": 120000,
      "d": 510,
      "v": 40
    },
    {
      "midi": 69,
      "hit": false,
      "t": 120000,
      "d": 515,
      "v": 40
    },
    {
      "midi": 81,
      "hit": false,
      "t": 120000,
      "d": 645,
      "v": 40
    },
    {
      "midi": 93,
      "hit": false,
      "t": 120000,
      "d": 675,
      "v": 40
    },
    {
      "midi": 40,
      "hit": false,
      "t": 120000,
      "d": 175,
      "v": 57
    },
    {
      "midi": 45,
      "hit": false,
      "t": 120000,
      "d": 190,
      "v": 57
    },
    {
      "midi": 33,
      "hit": false,
      "t": 120000,
      "d": 230,
      "v": 57
    },
    {
      "midi": 40,
      "hit": false,
      "t": 120300,
      "d": 295,
      "v": 57
    },
    {
      "midi": 33,
      "hit": false,
      "t": 120300,
      "d": 315,
      "v": 57
    },
    {
      "midi": 45,
      "hit": false,
      "t": 120300,
      "d": 320,
      "v": 57
    },
    {
      "midi": 88,
      "hit": false,
      "t": 120600,
      "d": 140,
      "v": 42
    },
    {
      "midi": 100,
      "hit": false,
      "t": 120600,
      "d": 150,
      "v": 42
    },
    {
      "midi": 76,
      "hit": false,
      "t": 120600,
      "d": 210,
      "v": 42
    },
    {
      "midi": 64,
      "hit": false,
      "t": 120600,
      "d": 230,
      "v": 42
    },
    {
      "midi": 76,
      "hit": false,
      "t": 120600,
      "d": 170,
      "v": 57
    },
    {
      "midi": 69,
      "hit": false,
      "t": 120600,
      "d": 180,
      "v": 57
    },
    {
      "midi": 64,
      "hit": false,
      "t": 120600,
      "d": 225,
      "v": 57
    },
    {
      "midi": 76,
      "hit": false,
      "t": 120900,
      "d": 200,
      "v": 57
    },
    {
      "midi": 64,
      "hit": false,
      "t": 120900,
      "d": 240,
      "v": 57
    },
    {
      "midi": 69,
      "hit": false,
      "t": 120900,
      "d": 255,
      "v": 57
    },
    {
      "midi": 88,
      "hit": false,
      "t": 121200,
      "d": 125,
      "v": 45
    },
    {
      "midi": 100,
      "hit": false,
      "t": 121200,
      "d": 145,
      "v": 45
    },
    {
      "midi": 64,
      "hit": false,
      "t": 121200,
      "d": 160,
      "v": 45
    },
    {
      "midi": 76,
      "hit": false,
      "t": 121200,
      "d": 165,
      "v": 45
    },
    {
      "midi": 57,
      "hit": false,
      "t": 121200,
      "d": 245,
      "v": 57
    },
    {
      "midi": 69,
      "hit": false,
      "t": 121500,
      "d": 20,
      "v": 57
    },
    {
      "midi": 64,
      "hit": false,
      "t": 121500,
      "d": 25,
      "v": 57
    },
    {
      "midi": 57,
      "hit": false,
      "t": 121500,
      "d": 240,
      "v": 57
    },
    {
      "midi": 100,
      "hit": false,
      "t": 121800,
      "d": 180,
      "v": 47
    },
    {
      "midi": 88,
      "hit": false,
      "t": 121800,
      "d": 190,
      "v": 47
    },
    {
      "midi": 64,
      "hit": false,
      "t": 121800,
      "d": 195,
      "v": 47
    },
    {
      "midi": 76,
      "hit": false,
      "t": 121800,
      "d": 200,
      "v": 47
    },
    {
      "midi": 81,
      "hit": false,
      "t": 121800,
      "d": 140,
      "v": 57
    },
    {
      "midi": 76,
      "hit": false,
      "t": 121800,
      "d": 145,
      "v": 57
    },
    {
      "midi": 88,
      "hit": false,
      "t": 121800,
      "d": 230,
      "v": 57
    },
    {
      "midi": 88,
      "hit": false,
      "t": 122100,
      "d": 165,
      "v": 57
    },
    {
      "midi": 76,
      "hit": false,
      "t": 122100,
      "d": 180,
      "v": 57
    },
    {
      "midi": 81,
      "hit": false,
      "t": 122100,
      "d": 215,
      "v": 57
    },
    {
      "midi": 102,
      "hit": false,
      "t": 122400,
      "d": 575,
      "v": 50
    },
    {
      "midi": 78,
      "hit": false,
      "t": 122400,
      "d": 720,
      "v": 50
    },
    {
      "midi": 90,
      "hit": false,
      "t": 122400,
      "d": 805,
      "v": 50
    },
    {
      "midi": 66,
      "hit": false,
      "t": 122400,
      "d": 875,
      "v": 50
    },
    {
      "midi": 45,
      "hit": false,
      "t": 122400,
      "d": 180,
      "v": 57
    },
    {
      "midi": 40,
      "hit": false,
      "t": 122400,
      "d": 190,
      "v": 57
    },
    {
      "midi": 33,
      "hit": false,
      "t": 122400,
      "d": 215,
      "v": 57
    },
    {
      "midi": 45,
      "hit": false,
      "t": 122700,
      "d": 170,
      "v": 57
    },
    {
      "midi": 40,
      "hit": false,
      "t": 122700,
      "d": 205,
      "v": 57
    },
    {
      "midi": 33,
      "hit": false,
      "t": 122700,
      "d": 290,
      "v": 57
    },
    {
      "midi": 69,
      "hit": false,
      "t": 123000,
      "d": 145,
      "v": 57
    },
    {
      "midi": 76,
      "hit": false,
      "t": 123000,
      "d": 145,
      "v": 57
    },
    {
      "midi": 64,
      "hit": false,
      "t": 123000,
      "d": 170,
      "v": 57
    },
    {
      "midi": 76,
      "hit": false,
      "t": 123300,
      "d": 220,
      "v": 53
    },
    {
      "midi": 100,
      "hit": false,
      "t": 123300,
      "d": 235,
      "v": 53
    },
    {
      "midi": 64,
      "hit": false,
      "t": 123300,
      "d": 255,
      "v": 53
    },
    {
      "midi": 88,
      "hit": false,
      "t": 123300,
      "d": 280,
      "v": 53
    },
    {
      "midi": 76,
      "hit": false,
      "t": 123300,
      "d": 240,
      "v": 57
    },
    {
      "midi": 69,
      "hit": false,
      "t": 123300,
      "d": 265,
      "v": 57
    },
    {
      "midi": 64,
      "hit": false,
      "t": 123300,
      "d": 280,
      "v": 57
    },
    {
      "midi": 74,
      "hit": false,
      "t": 123600,
      "d": 240,
      "v": 55
    },
    {
      "midi": 62,
      "hit": false,
      "t": 123600,
      "d": 285,
      "v": 55
    },
    {
      "midi": 86,
      "hit": false,
      "t": 123600,
      "d": 405,
      "v": 55
    },
    {
      "midi": 98,
      "hit": false,
      "t": 123600,
      "d": 445,
      "v": 55
    },
    {
      "midi": 57,
      "hit": false,
      "t": 123600,
      "d": 155,
      "v": 57
    },
    {
      "midi": 69,
      "hit": false,
      "t": 123600,
      "d": 170,
      "v": 57
    },
    {
      "midi": 64,
      "hit": false,
      "t": 123600,
      "d": 180,
      "v": 57
    },
    {
      "midi": 69,
      "hit": false,
      "t": 123900,
      "d": 150,
      "v": 57
    },
    {
      "midi": 57,
      "hit": false,
      "t": 123900,
      "d": 155,
      "v": 57
    },
    {
      "midi": 64,
      "hit": false,
      "t": 123900,
      "d": 225,
      "v": 57
    },
    {
      "midi": 100,
      "hit": false,
      "t": 124200,
      "d": 160,
      "v": 57
    },
    {
      "midi": 76,
      "hit": false,
      "t": 124200,
      "d": 170,
      "v": 57
    },
    {
      "midi": 64,
      "hit": false,
      "t": 124200,
      "d": 175,
      "v": 57
    },
    {
      "midi": 88,
      "hit": false,
      "t": 124200,
      "d": 180,
      "v": 57
    },
    {
      "midi": 76,
      "hit": false,
      "t": 124200,
      "d": 130,
      "v": 57
    },
    {
      "midi": 81,
      "hit": false,
      "t": 124200,
      "d": 155,
      "v": 57
    },
    {
      "midi": 88,
      "hit": false,
      "t": 124200,
      "d": 250,
      "v": 57
    },
    {
      "midi": 81,
      "hit": false,
      "t": 124500,
      "d": 150,
      "v": 57
    },
    {
      "midi": 88,
      "hit": false,
      "t": 124500,
      "d": 190,
      "v": 57
    },
    {
      "midi": 76,
      "hit": false,
      "t": 124500,
      "d": 200,
      "v": 57
    },
    {
      "midi": 72,
      "hit": false,
      "t": 124800,
      "d": 225,
      "v": 60
    },
    {
      "midi": 96,
      "hit": false,
      "t": 124800,
      "d": 245,
      "v": 60
    },
    {
      "midi": 84,
      "hit": false,
      "t": 124800,
      "d": 290,
      "v": 60
    },
    {
      "midi": 60,
      "hit": false,
      "t": 124800,
      "d": 350,
      "v": 60
    },
    {
      "midi": 40,
      "hit": false,
      "t": 124800,
      "d": 145,
      "v": 57
    },
    {
      "midi": 45,
      "hit": false,
      "t": 124800,
      "d": 165,
      "v": 57
    },
    {
      "midi": 33,
      "hit": false,
      "t": 124800,
      "d": 225,
      "v": 57
    },
    {
      "midi": 95,
      "hit": false,
      "t": 125100,
      "d": 230,
      "v": 61
    },
    {
      "midi": 71,
      "hit": false,
      "t": 125100,
      "d": 260,
      "v": 61
    },
    {
      "midi": 59,
      "hit": false,
      "t": 125100,
      "d": 280,
      "v": 61
    },
    {
      "midi": 83,
      "hit": false,
      "t": 125100,
      "d": 305,
      "v": 61
    },
    {
      "midi": 33,
      "hit": false,
      "t": 125100,
      "d": 165,
      "v": 57
    },
    {
      "midi": 45,
      "hit": false,
      "t": 125100,
      "d": 240,
      "v": 57
    },
    {
      "midi": 40,
      "hit": false,
      "t": 125100,
      "d": 250,
      "v": 57
    },
    {
      "midi": 69,
      "hit": false,
      "t": 125400,
      "d": 230,
      "v": 62
    },
    {
      "midi": 93,
      "hit": false,
      "t": 125400,
      "d": 230,
      "v": 62
    },
    {
      "midi": 57,
      "hit": false,
      "t": 125400,
      "d": 250,
      "v": 62
    },
    {
      "midi": 81,
      "hit": false,
      "t": 125400,
      "d": 320,
      "v": 62
    },
    {
      "midi": 76,
      "hit": false,
      "t": 125400,
      "d": 145,
      "v": 57
    },
    {
      "midi": 69,
      "hit": false,
      "t": 125400,
      "d": 150,
      "v": 57
    },
    {
      "midi": 64,
      "hit": false,
      "t": 125400,
      "d": 195,
      "v": 57
    },
    {
      "midi": 71,
      "hit": false,
      "t": 125700,
      "d": 240,
      "v": 63
    },
    {
      "midi": 95,
      "hit": false,
      "t": 125700,
      "d": 250,
      "v": 63
    },
    {
      "midi": 59,
      "hit": false,
      "t": 125700,
      "d": 300,
      "v": 63
    },
    {
      "midi": 83,
      "hit": false,
      "t": 125700,
      "d": 330,
      "v": 63
    },
    {
      "midi": 76,
      "hit": false,
      "t": 125700,
      "d": 175,
      "v": 57
    },
    {
      "midi": 69,
      "hit": false,
      "t": 125700,
      "d": 200,
      "v": 57
    },
    {
      "midi": 64,
      "hit": false,
      "t": 125700,
      "d": 215,
      "v": 57
    },
    {
      "midi": 72,
      "hit": false,
      "t": 126000,
      "d": 245,
      "v": 65
    },
    {
      "midi": 84,
      "hit": false,
      "t": 126000,
      "d": 250,
      "v": 65
    },
    {
      "midi": 60,
      "hit": false,
      "t": 126000,
      "d": 305,
      "v": 65
    },
    {
      "midi": 96,
      "hit": false,
      "t": 126000,
      "d": 380,
      "v": 65
    },
    {
      "midi": 57,
      "hit": false,
      "t": 126000,
      "d": 120,
      "v": 57
    },
    {
      "midi": 69,
      "hit": false,
      "t": 126000,
      "d": 120,
      "v": 57
    },
    {
      "midi": 64,
      "hit": false,
      "t": 126000,
      "d": 165,
      "v": 57
    },
    {
      "midi": 64,
      "hit": false,
      "t": 126300,
      "d": 145,
      "v": 57
    },
    {
      "midi": 57,
      "hit": false,
      "t": 126300,
      "d": 190,
      "v": 57
    },
    {
      "midi": 69,
      "hit": false,
      "t": 126300,
      "d": 200,
      "v": 57
    },
    {
      "midi": 62,
      "hit": false,
      "t": 126600,
      "d": 230,
      "v": 67
    },
    {
      "midi": 74,
      "hit": false,
      "t": 126600,
      "d": 250,
      "v": 67
    },
    {
      "midi": 86,
      "hit": false,
      "t": 126600,
      "d": 305,
      "v": 67
    },
    {
      "midi": 98,
      "hit": false,
      "t": 126600,
      "d": 350,
      "v": 67
    },
    {
      "midi": 76,
      "hit": false,
      "t": 126600,
      "d": 165,
      "v": 57
    },
    {
      "midi": 81,
      "hit": false,
      "t": 126600,
      "d": 180,
      "v": 57
    },
    {
      "midi": 88,
      "hit": false,
      "t": 126600,
      "d": 190,
      "v": 57
    },
    {
      "midi": 76,
      "hit": false,
      "t": 126900,
      "d": 130,
      "v": 57
    },
    {
      "midi": 81,
      "hit": false,
      "t": 126900,
      "d": 150,
      "v": 57
    },
    {
      "midi": 88,
      "hit": false,
      "t": 126900,
      "d": 195,
      "v": 57
    },
    {
      "midi": 95,
      "hit": false,
      "t": 127200,
      "d": 2015,
      "v": 70
    },
    {
      "midi": 71,
      "hit": false,
      "t": 127200,
      "d": 2055,
      "v": 70
    },
    {
      "midi": 83,
      "hit": false,
      "t": 127200,
      "d": 2055,
      "v": 70
    },
    {
      "midi": 59,
      "hit": false,
      "t": 127200,
      "d": 2085,
      "v": 70
    },
    {
      "midi": 40,
      "hit": false,
      "t": 127200,
      "d": 165,
      "v": 57
    },
    {
      "midi": 45,
      "hit": false,
      "t": 127200,
      "d": 180,
      "v": 57
    },
    {
      "midi": 33,
      "hit": false,
      "t": 127200,
      "d": 195,
      "v": 57
    },
    {
      "midi": 45,
      "hit": false,
      "t": 127500,
      "d": 130,
      "v": 57
    },
    {
      "midi": 33,
      "hit": false,
      "t": 127500,
      "d": 195,
      "v": 57
    },
    {
      "midi": 40,
      "hit": false,
      "t": 127500,
      "d": 205,
      "v": 57
    },
    {
      "midi": 69,
      "hit": false,
      "t": 127800,
      "d": 145,
      "v": 57
    },
    {
      "midi": 76,
      "hit": false,
      "t": 127800,
      "d": 150,
      "v": 57
    },
    {
      "midi": 64,
      "hit": false,
      "t": 127800,
      "d": 565,
      "v": 57
    },
    {
      "midi": 69,
      "hit": false,
      "t": 128100,
      "d": 255,
      "v": 57
    },
    {
      "midi": 76,
      "hit": false,
      "t": 128100,
      "d": 255,
      "v": 57
    },
    {
      "midi": 57,
      "hit": false,
      "t": 128400,
      "d": 165,
      "v": 57
    },
    {
      "midi": 64,
      "hit": false,
      "t": 128400,
      "d": 165,
      "v": 57
    },
    {
      "midi": 69,
      "hit": false,
      "t": 128400,
      "d": 220,
      "v": 57
    },
    {
      "midi": 57,
      "hit": false,
      "t": 128700,
      "d": 165,
      "v": 57
    },
    {
      "midi": 69,
      "hit": false,
      "t": 128700,
      "d": 170,
      "v": 57
    },
    {
      "midi": 64,
      "hit": false,
      "t": 128700,
      "d": 175,
      "v": 57
    },
    {
      "midi": 81,
      "hit": false,
      "t": 129000,
      "d": 175,
      "v": 57
    },
    {
      "midi": 88,
      "hit": false,
      "t": 129000,
      "d": 180,
      "v": 57
    },
    {
      "midi": 76,
      "hit": false,
      "t": 129000,
      "d": 195,
      "v": 57
    },
    {
      "midi": 81,
      "hit": false,
      "t": 129300,
      "d": 195,
      "v": 57
    },
    {
      "midi": 76,
      "hit": false,
      "t": 129300,
      "d": 200,
      "v": 57
    },
    {
      "midi": 88,
      "hit": false,
      "t": 129300,
      "d": 230,
      "v": 57
    },
    {
      "midi": 57,
      "hit": false,
      "t": 129600,
      "d": 640,
      "v": 80
    },
    {
      "midi": 81,
      "hit": false,
      "t": 129600,
      "d": 640,
      "v": 80
    },
    {
      "midi": 93,
      "hit": false,
      "t": 129600,
      "d": 645,
      "v": 80
    },
    {
      "midi": 69,
      "hit": false,
      "t": 129600,
      "d": 655,
      "v": 80
    },
    {
      "midi": 45,
      "hit": false,
      "t": 129600,
      "d": 145,
      "v": 57
    },
    {
      "midi": 40,
      "hit": false,
      "t": 129600,
      "d": 175,
      "v": 57
    },
    {
      "midi": 33,
      "hit": false,
      "t": 129600,
      "d": 180,
      "v": 57
    },
    {
      "midi": 40,
      "hit": false,
      "t": 129900,
      "d": 155,
      "v": 57
    },
    {
      "midi": 45,
      "hit": false,
      "t": 129900,
      "d": 190,
      "v": 57
    },
    {
      "midi": 33,
      "hit": false,
      "t": 129900,
      "d": 215,
      "v": 57
    },
    {
      "midi": 64,
      "hit": false,
      "t": 130200,
      "d": 120,
      "v": 72
    },
    {
      "midi": 76,
      "hit": false,
      "t": 130200,
      "d": 145,
      "v": 76
    },
    {
      "midi": 88,
      "hit": false,
      "t": 130200,
      "d": 185,
      "v": 78
    },
    {
      "midi": 100,
      "hit": false,
      "t": 130200,
      "d": 185,
      "v": 91
    },
    {
      "midi": 76,
      "hit": false,
      "t": 130200,
      "d": 200,
      "v": 57
    },
    {
      "midi": 69,
      "hit": false,
      "t": 130200,
      "d": 205,
      "v": 57
    },
    {
      "midi": 64,
      "hit": false,
      "t": 130200,
      "d": 225,
      "v": 57
    },
    {
      "midi": 76,
      "hit": false,
      "t": 130500,
      "d": 190,
      "v": 57
    },
    {
      "midi": 69,
      "hit": false,
      "t": 130500,
      "d": 240,
      "v": 57
    },
    {
      "midi": 64,
      "hit": false,
      "t": 130500,
      "d": 255,
      "v": 57
    },
    {
      "midi": 64,
      "hit": false,
      "t": 130800,
      "d": 150,
      "v": 76
    },
    {
      "midi": 76,
      "hit": false,
      "t": 130800,
      "d": 170,
      "v": 85
    },
    {
      "midi": 100,
      "hit": false,
      "t": 130800,
      "d": 180,
      "v": 86
    },
    {
      "midi": 88,
      "hit": false,
      "t": 130800,
      "d": 205,
      "v": 83
    },
    {
      "midi": 64,
      "hit": false,
      "t": 130800,
      "d": 145,
      "v": 57
    },
    {
      "midi": 57,
      "hit": false,
      "t": 130800,
      "d": 165,
      "v": 57
    },
    {
      "midi": 69,
      "hit": false,
      "t": 130800,
      "d": 205,
      "v": 57
    },
    {
      "midi": 69,
      "hit": false,
      "t": 131100,
      "d": 155,
      "v": 57
    },
    {
      "midi": 57,
      "hit": false,
      "t": 131100,
      "d": 190,
      "v": 57
    },
    {
      "midi": 64,
      "hit": false,
      "t": 131100,
      "d": 220,
      "v": 57
    },
    {
      "midi": 64,
      "hit": false,
      "t": 131400,
      "d": 205,
      "v": 76
    },
    {
      "midi": 100,
      "hit": false,
      "t": 131400,
      "d": 210,
      "v": 86
    },
    {
      "midi": 88,
      "hit": false,
      "t": 131400,
      "d": 230,
      "v": 82
    },
    {
      "midi": 76,
      "hit": false,
      "t": 131400,
      "d": 235,
      "v": 85
    },
    {
      "midi": 88,
      "hit": false,
      "t": 131400,
      "d": 165,
      "v": 57
    },
    {
      "midi": 81,
      "hit": false,
      "t": 131400,
      "d": 180,
      "v": 57
    },
    {
      "midi": 76,
      "hit": false,
      "t": 131400,
      "d": 200,
      "v": 57
    },
    {
      "midi": 76,
      "hit": false,
      "t": 131700,
      "d": 200,
      "v": 57
    },
    {
      "midi": 81,
      "hit": false,
      "t": 131700,
      "d": 220,
      "v": 57
    },
    {
      "midi": 88,
      "hit": false,
      "t": 131700,
      "d": 245,
      "v": 57
    },
    {
      "midi": 102,
      "hit": false,
      "t": 132000,
      "d": 580,
      "v": 87
    },
    {
      "midi": 90,
      "hit": false,
      "t": 132000,
      "d": 785,
      "v": 87
    },
    {
      "midi": 78,
      "hit": false,
      "t": 132000,
      "d": 890,
      "v": 85
    },
    {
      "midi": 66,
      "hit": false,
      "t": 132000,
      "d": 925,
      "v": 78
    },
    {
      "midi": 40,
      "hit": false,
      "t": 132000,
      "d": 175,
      "v": 57
    },
    {
      "midi": 45,
      "hit": false,
      "t": 132000,
      "d": 190,
      "v": 57
    },
    {
      "midi": 33,
      "hit": false,
      "t": 132000,
      "d": 215,
      "v": 57
    },
    {
      "midi": 45,
      "hit": false,
      "t": 132300,
      "d": 215,
      "v": 57
    },
    {
      "midi": 33,
      "hit": false,
      "t": 132300,
      "d": 240,
      "v": 57
    },
    {
      "midi": 40,
      "hit": false,
      "t": 132300,
      "d": 240,
      "v": 57
    },
    {
      "midi": 69,
      "hit": false,
      "t": 132600,
      "d": 125,
      "v": 57
    },
    {
      "midi": 76,
      "hit": false,
      "t": 132600,
      "d": 170,
      "v": 57
    },
    {
      "midi": 64,
      "hit": false,
      "t": 132600,
      "d": 245,
      "v": 57
    },
    {
      "midi": 100,
      "hit": false,
      "t": 132900,
      "d": 220,
      "v": 78
    },
    {
      "midi": 88,
      "hit": false,
      "t": 132900,
      "d": 260,
      "v": 71
    },
    {
      "midi": 76,
      "hit": false,
      "t": 132900,
      "d": 270,
      "v": 76
    },
    {
      "midi": 64,
      "hit": false,
      "t": 132900,
      "d": 290,
      "v": 75
    },
    {
      "midi": 69,
      "hit": false,
      "t": 132900,
      "d": 215,
      "v": 57
    },
    {
      "midi": 76,
      "hit": false,
      "t": 132900,
      "d": 230,
      "v": 57
    },
    {
      "midi": 64,
      "hit": false,
      "t": 132900,
      "d": 250,
      "v": 57
    },
    {
      "midi": 98,
      "hit": false,
      "t": 133200,
      "d": 270,
      "v": 78
    },
    {
      "midi": 86,
      "hit": false,
      "t": 133200,
      "d": 315,
      "v": 73
    },
    {
      "midi": 62,
      "hit": false,
      "t": 133200,
      "d": 335,
      "v": 77
    },
    {
      "midi": 74,
      "hit": false,
      "t": 133200,
      "d": 370,
      "v": 78
    },
    {
      "midi": 57,
      "hit": false,
      "t": 133200,
      "d": 120,
      "v": 57
    },
    {
      "midi": 64,
      "hit": false,
      "t": 133200,
      "d": 170,
      "v": 57
    },
    {
      "midi": 69,
      "hit": false,
      "t": 133200,
      "d": 200,
      "v": 57
    },
    {
      "midi": 57,
      "hit": false,
      "t": 133500,
      "d": 170,
      "v": 57
    },
    {
      "midi": 64,
      "hit": false,
      "t": 133500,
      "d": 180,
      "v": 57
    },
    {
      "midi": 69,
      "hit": false,
      "t": 133500,
      "d": 180,
      "v": 57
    },
    {
      "midi": 88,
      "hit": false,
      "t": 133800,
      "d": 270,
      "v": 71
    },
    {
      "midi": 64,
      "hit": false,
      "t": 133800,
      "d": 310,
      "v": 72
    },
    {
      "midi": 76,
      "hit": false,
      "t": 133800,
      "d": 340,
      "v": 82
    },
    {
      "midi": 100,
      "hit": false,
      "t": 133800,
      "d": 360,
      "v": 84
    },
    {
      "midi": 76,
      "hit": false,
      "t": 133800,
      "d": 165,
      "v": 57
    },
    {
      "midi": 81,
      "hit": false,
      "t": 133800,
      "d": 190,
      "v": 57
    },
    {
      "midi": 88,
      "hit": false,
      "t": 133800,
      "d": 195,
      "v": 57
    },
    {
      "midi": 76,
      "hit": false,
      "t": 134100,
      "d": 215,
      "v": 57
    },
    {
      "midi": 81,
      "hit": false,
      "t": 134100,
      "d": 240,
      "v": 57
    },
    {
      "midi": 88,
      "hit": false,
      "t": 134100,
      "d": 280,
      "v": 57
    },
    {
      "midi": 96,
      "hit": false,
      "t": 134400,
      "d": 220,
      "v": 82
    },
    {
      "midi": 72,
      "hit": false,
      "t": 134400,
      "d": 240,
      "v": 82
    },
    {
      "midi": 60,
      "hit": false,
      "t": 134400,
      "d": 245,
      "v": 64
    },
    {
      "midi": 84,
      "hit": false,
      "t": 134400,
      "d": 290,
      "v": 72
    },
    {
      "midi": 45,
      "hit": false,
      "t": 134400,
      "d": 165,
      "v": 57
    },
    {
      "midi": 40,
      "hit": false,
      "t": 134400,
      "d": 195,
      "v": 57
    },
    {
      "midi": 33,
      "hit": false,
      "t": 134400,
      "d": 205,
      "v": 57
    },
    {
      "midi": 74,
      "hit": false,
      "t": 134700,
      "d": 250,
      "v": 74
    },
    {
      "midi": 98,
      "hit": false,
      "t": 134700,
      "d": 250,
      "v": 72
    },
    {
      "midi": 86,
      "hit": false,
      "t": 134700,
      "d": 300,
      "v": 72
    },
    {
      "midi": 62,
      "hit": false,
      "t": 134700,
      "d": 305,
      "v": 75
    },
    {
      "midi": 45,
      "hit": false,
      "t": 134700,
      "d": 170,
      "v": 57
    },
    {
      "midi": 33,
      "hit": false,
      "t": 134700,
      "d": 215,
      "v": 57
    },
    {
      "midi": 40,
      "hit": false,
      "t": 134700,
      "d": 240,
      "v": 57
    },
    {
      "midi": 64,
      "hit": false,
      "t": 135000,
      "d": 240,
      "v": 72
    },
    {
      "midi": 100,
      "hit": false,
      "t": 135000,
      "d": 280,
      "v": 76
    },
    {
      "midi": 88,
      "hit": false,
      "t": 135000,
      "d": 300,
      "v": 75
    },
    {
      "midi": 76,
      "hit": false,
      "t": 135000,
      "d": 320,
      "v": 77
    },
    {
      "midi": 69,
      "hit": false,
      "t": 135000,
      "d": 145,
      "v": 57
    },
    {
      "midi": 64,
      "hit": false,
      "t": 135000,
      "d": 155,
      "v": 57
    },
    {
      "midi": 76,
      "hit": false,
      "t": 135000,
      "d": 170,
      "v": 57
    },
    {
      "midi": 74,
      "hit": false,
      "t": 135300,
      "d": 275,
      "v": 77
    },
    {
      "midi": 62,
      "hit": false,
      "t": 135300,
      "d": 290,
      "v": 75
    },
    {
      "midi": 98,
      "hit": false,
      "t": 135300,
      "d": 300,
      "v": 72
    },
    {
      "midi": 86,
      "hit": false,
      "t": 135300,
      "d": 360,
      "v": 68
    },
    {
      "midi": 69,
      "hit": false,
      "t": 135300,
      "d": 230,
      "v": 57
    },
    {
      "midi": 76,
      "hit": false,
      "t": 135300,
      "d": 230,
      "v": 57
    },
    {
      "midi": 64,
      "hit": false,
      "t": 135300,
      "d": 245,
      "v": 57
    },
    {
      "midi": 84,
      "hit": false,
      "t": 135600,
      "d": 215,
      "v": 74
    },
    {
      "midi": 96,
      "hit": false,
      "t": 135600,
      "d": 230,
      "v": 82
    },
    {
      "midi": 60,
      "hit": false,
      "t": 135600,
      "d": 300,
      "v": 72
    },
    {
      "midi": 72,
      "hit": false,
      "t": 135600,
      "d": 370,
      "v": 77
    },
    {
      "midi": 69,
      "hit": false,
      "t": 135600,
      "d": 150,
      "v": 57
    },
    {
      "midi": 57,
      "hit": false,
      "t": 135600,
      "d": 180,
      "v": 57
    },
    {
      "midi": 64,
      "hit": false,
      "t": 135600,
      "d": 215,
      "v": 57
    },
    {
      "midi": 57,
      "hit": false,
      "t": 135900,
      "d": 165,
      "v": 57
    },
    {
      "midi": 64,
      "hit": false,
      "t": 135900,
      "d": 190,
      "v": 57
    },
    {
      "midi": 69,
      "hit": false,
      "t": 135900,
      "d": 195,
      "v": 57
    },
    {
      "midi": 95,
      "hit": false,
      "t": 136200,
      "d": 220,
      "v": 82
    },
    {
      "midi": 83,
      "hit": false,
      "t": 136200,
      "d": 255,
      "v": 74
    },
    {
      "midi": 59,
      "hit": false,
      "t": 136200,
      "d": 420,
      "v": 60
    },
    {
      "midi": 71,
      "hit": false,
      "t": 136200,
      "d": 445,
      "v": 82
    },
    {
      "midi": 81,
      "hit": false,
      "t": 136200,
      "d": 155,
      "v": 57
    },
    {
      "midi": 76,
      "hit": false,
      "t": 136200,
      "d": 180,
      "v": 57
    },
    {
      "midi": 88,
      "hit": false,
      "t": 136200,
      "d": 215,
      "v": 57
    },
    {
      "midi": 76,
      "hit": false,
      "t": 136500,
      "d": 165,
      "v": 57
    },
    {
      "midi": 81,
      "hit": false,
      "t": 136500,
      "d": 195,
      "v": 57
    },
    {
      "midi": 88,
      "hit": false,
      "t": 136500,
      "d": 250,
      "v": 57
    },
    {
      "midi": 84,
      "hit": false,
      "t": 136800,
      "d": 1970,
      "v": 83
    },
    {
      "midi": 60,
      "hit": false,
      "t": 136800,
      "d": 2080,
      "v": 72
    },
    {
      "midi": 96,
      "hit": false,
      "t": 136800,
      "d": 2100,
      "v": 90
    },
    {
      "midi": 72,
      "hit": false,
      "t": 136800,
      "d": 2165,
      "v": 86
    },
    {
      "midi": 40,
      "hit": false,
      "t": 136800,
      "d": 190,
      "v": 57
    },
    {
      "midi": 28,
      "hit": false,
      "t": 136800,
      "d": 200,
      "v": 57
    },
    {
      "midi": 28,
      "hit": false,
      "t": 137100,
      "d": 220,
      "v": 57
    },
    {
      "midi": 40,
      "hit": false,
      "t": 137100,
      "d": 245,
      "v": 57
    },
    {
      "midi": 76,
      "hit": false,
      "t": 137400,
      "d": 125,
      "v": 57
    },
    {
      "midi": 72,
      "hit": false,
      "t": 137400,
      "d": 175,
      "v": 57
    },
    {
      "midi": 64,
      "hit": false,
      "t": 137400,
      "d": 230,
      "v": 57
    },
    {
      "midi": 64,
      "hit": false,
      "t": 137700,
      "d": 215,
      "v": 57
    },
    {
      "midi": 76,
      "hit": false,
      "t": 137700,
      "d": 250,
      "v": 57
    },
    {
      "midi": 72,
      "hit": false,
      "t": 137700,
      "d": 315,
      "v": 57
    },
    {
      "midi": 52,
      "hit": false,
      "t": 138000,
      "d": 175,
      "v": 57
    },
    {
      "midi": 60,
      "hit": false,
      "t": 138000,
      "d": 200,
      "v": 57
    },
    {
      "midi": 64,
      "hit": false,
      "t": 138000,
      "d": 200,
      "v": 57
    },
    {
      "midi": 52,
      "hit": false,
      "t": 138300,
      "d": 195,
      "v": 57
    },
    {
      "midi": 64,
      "hit": false,
      "t": 138300,
      "d": 215,
      "v": 57
    },
    {
      "midi": 60,
      "hit": false,
      "t": 138300,
      "d": 245,
      "v": 57
    },
    {
      "midi": 76,
      "hit": false,
      "t": 138600,
      "d": 150,
      "v": 57
    },
    {
      "midi": 84,
      "hit": false,
      "t": 138600,
      "d": 150,
      "v": 57
    },
    {
      "midi": 88,
      "hit": false,
      "t": 138600,
      "d": 190,
      "v": 57
    },
    {
      "midi": 88,
      "hit": false,
      "t": 138900,
      "d": 150,
      "v": 57
    },
    {
      "midi": 76,
      "hit": false,
      "t": 138900,
      "d": 165,
      "v": 57
    },
    {
      "midi": 84,
      "hit": false,
      "t": 138900,
      "d": 195,
      "v": 57
    },
    {
      "midi": 84,
      "hit": false,
      "t": 139200,
      "d": 250,
      "v": 78
    },
    {
      "midi": 96,
      "hit": false,
      "t": 139200,
      "d": 250,
      "v": 82
    },
    {
      "midi": 72,
      "hit": false,
      "t": 139200,
      "d": 265,
      "v": 89
    },
    {
      "midi": 60,
      "hit": false,
      "t": 139200,
      "d": 290,
      "v": 78
    },
    {
      "midi": 40,
      "hit": false,
      "t": 139200,
      "d": 175,
      "v": 57
    },
    {
      "midi": 45,
      "hit": false,
      "t": 139200,
      "d": 200,
      "v": 57
    },
    {
      "midi": 33,
      "hit": false,
      "t": 139200,
      "d": 250,
      "v": 57
    },
    {
      "midi": 74,
      "hit": false,
      "t": 139500,
      "d": 250,
      "v": 82
    },
    {
      "midi": 98,
      "hit": false,
      "t": 139500,
      "d": 280,
      "v": 76
    },
    {
      "midi": 86,
      "hit": false,
      "t": 139500,
      "d": 300,
      "v": 71
    },
    {
      "midi": 62,
      "hit": false,
      "t": 139500,
      "d": 410,
      "v": 78
    },
    {
      "midi": 33,
      "hit": false,
      "t": 139500,
      "d": 155,
      "v": 59
    },
    {
      "midi": 45,
      "hit": false,
      "t": 139500,
      "d": 155,
      "v": 59
    },
    {
      "midi": 40,
      "hit": false,
      "t": 139500,
      "d": 220,
      "v": 59
    },
    {
      "midi": 88,
      "hit": false,
      "t": 139800,
      "d": 290,
      "v": 63
    },
    {
      "midi": 100,
      "hit": false,
      "t": 139800,
      "d": 330,
      "v": 82
    },
    {
      "midi": 76,
      "hit": false,
      "t": 139800,
      "d": 360,
      "v": 84
    },
    {
      "midi": 64,
      "hit": false,
      "t": 139800,
      "d": 370,
      "v": 84
    },
    {
      "midi": 76,
      "hit": false,
      "t": 139800,
      "d": 150,
      "v": 61
    },
    {
      "midi": 69,
      "hit": false,
      "t": 139800,
      "d": 190,
      "v": 61
    },
    {
      "midi": 64,
      "hit": false,
      "t": 139800,
      "d": 225,
      "v": 61
    },
    {
      "midi": 62,
      "hit": false,
      "t": 140100,
      "d": 260,
      "v": 85
    },
    {
      "midi": 86,
      "hit": false,
      "t": 140100,
      "d": 280,
      "v": 79
    },
    {
      "midi": 98,
      "hit": false,
      "t": 140100,
      "d": 305,
      "v": 88
    },
    {
      "midi": 74,
      "hit": false,
      "t": 140100,
      "d": 380,
      "v": 89
    },
    {
      "midi": 76,
      "hit": false,
      "t": 140100,
      "d": 225,
      "v": 64
    },
    {
      "midi": 64,
      "hit": false,
      "t": 140100,
      "d": 240,
      "v": 64
    },
    {
      "midi": 69,
      "hit": false,
      "t": 140100,
      "d": 265,
      "v": 64
    },
    {
      "midi": 96,
      "hit": false,
      "t": 140400,
      "d": 270,
      "v": 93
    },
    {
      "midi": 72,
      "hit": false,
      "t": 140400,
      "d": 310,
      "v": 89
    },
    {
      "midi": 84,
      "hit": false,
      "t": 140400,
      "d": 310,
      "v": 78
    },
    {
      "midi": 60,
      "hit": false,
      "t": 140400,
      "d": 365,
      "v": 80
    },
    {
      "midi": 57,
      "hit": false,
      "t": 140400,
      "d": 155,
      "v": 66
    },
    {
      "midi": 64,
      "hit": false,
      "t": 140400,
      "d": 155,
      "v": 66
    },
    {
      "midi": 69,
      "hit": false,
      "t": 140400,
      "d": 215,
      "v": 66
    },
    {
      "midi": 57,
      "hit": false,
      "t": 140700,
      "d": 155,
      "v": 68
    },
    {
      "midi": 69,
      "hit": false,
      "t": 140700,
      "d": 180,
      "v": 68
    },
    {
      "midi": 64,
      "hit": false,
      "t": 140700,
      "d": 195,
      "v": 68
    },
    {
      "midi": 95,
      "hit": false,
      "t": 141000,
      "d": 290,
      "v": 98
    },
    {
      "midi": 71,
      "hit": false,
      "t": 141000,
      "d": 370,
      "v": 97
    },
    {
      "midi": 83,
      "hit": false,
      "t": 141000,
      "d": 370,
      "v": 90
    },
    {
      "midi": 59,
      "hit": false,
      "t": 141000,
      "d": 415,
      "v": 89
    },
    {
      "midi": 76,
      "hit": false,
      "t": 141000,
      "d": 180,
      "v": 71
    },
    {
      "midi": 81,
      "hit": false,
      "t": 141000,
      "d": 190,
      "v": 71
    },
    {
      "midi": 88,
      "hit": false,
      "t": 141000,
      "d": 205,
      "v": 71
    },
    {
      "midi": 81,
      "hit": false,
      "t": 141300,
      "d": 140,
      "v": 73
    },
    {
      "midi": 76,
      "hit": false,
      "t": 141300,
      "d": 190,
      "v": 73
    },
    {
      "midi": 88,
      "hit": false,
      "t": 141300,
      "d": 190,
      "v": 73
    },
    {
      "midi": 60,
      "hit": false,
      "t": 141600,
      "d": 1990,
      "v": 90
    },
    {
      "midi": 72,
      "hit": false,
      "t": 141600,
      "d": 2015,
      "v": 114
    },
    {
      "midi": 84,
      "hit": false,
      "t": 141600,
      "d": 2055,
      "v": 89
    },
    {
      "midi": 96,
      "hit": false,
      "t": 141600,
      "d": 2170,
      "v": 109
    },
    {
      "midi": 28,
      "hit": false,
      "t": 141600,
      "d": 130,
      "v": 76
    },
    {
      "midi": 40,
      "hit": false,
      "t": 141600,
      "d": 130,
      "v": 76
    },
    {
      "midi": 28,
      "hit": false,
      "t": 141900,
      "d": 245,
      "v": 78
    },
    {
      "midi": 40,
      "hit": false,
      "t": 141900,
      "d": 275,
      "v": 78
    },
    {
      "midi": 76,
      "hit": false,
      "t": 142200,
      "d": 140,
      "v": 80
    },
    {
      "midi": 72,
      "hit": false,
      "t": 142200,
      "d": 200,
      "v": 80
    },
    {
      "midi": 64,
      "hit": false,
      "t": 142200,
      "d": 220,
      "v": 80
    },
    {
      "midi": 64,
      "hit": false,
      "t": 142500,
      "d": 250,
      "v": 83
    },
    {
      "midi": 72,
      "hit": false,
      "t": 142500,
      "d": 280,
      "v": 83
    },
    {
      "midi": 76,
      "hit": false,
      "t": 142500,
      "d": 315,
      "v": 83
    },
    {
      "midi": 64,
      "hit": false,
      "t": 142800,
      "d": 175,
      "v": 85
    },
    {
      "midi": 52,
      "hit": false,
      "t": 142800,
      "d": 205,
      "v": 85
    },
    {
      "midi": 60,
      "hit": false,
      "t": 142800,
      "d": 230,
      "v": 85
    },
    {
      "midi": 52,
      "hit": false,
      "t": 143100,
      "d": 180,
      "v": 87
    },
    {
      "midi": 60,
      "hit": false,
      "t": 143100,
      "d": 245,
      "v": 87
    },
    {
      "midi": 64,
      "hit": false,
      "t": 143100,
      "d": 270,
      "v": 87
    },
    {
      "midi": 76,
      "hit": false,
      "t": 143400,
      "d": 155,
      "v": 90
    },
    {
      "midi": 84,
      "hit": false,
      "t": 143400,
      "d": 175,
      "v": 90
    },
    {
      "midi": 88,
      "hit": false,
      "t": 143400,
      "d": 230,
      "v": 90
    },
    {
      "midi": 88,
      "hit": false,
      "t": 143700,
      "d": 155,
      "v": 92
    },
    {
      "midi": 76,
      "hit": false,
      "t": 143700,
      "d": 170,
      "v": 92
    },
    {
      "midi": 84,
      "hit": false,
      "t": 143700,
      "d": 175,
      "v": 92
    },
    {
      "midi": 57,
      "hit": false,
      "t": 144000,
      "d": 230,
      "v": 79
    },
    {
      "midi": 81,
      "hit": false,
      "t": 144000,
      "d": 230,
      "v": 79
    },
    {
      "midi": 69,
      "hit": false,
      "t": 144000,
      "d": 240,
      "v": 78
    },
    {
      "midi": 93,
      "hit": false,
      "t": 144000,
      "d": 240,
      "v": 78
    },
    {
      "midi": 59,
      "hit": false,
      "t": 144300,
      "d": 230,
      "v": 62
    },
    {
      "midi": 83,
      "hit": false,
      "t": 144300,
      "d": 230,
      "v": 62
    },
    {
      "midi": 71,
      "hit": false,
      "t": 144300,
      "d": 265,
      "v": 67
    },
    {
      "midi": 95,
      "hit": false,
      "t": 144300,
      "d": 265,
      "v": 67
    },
    {
      "midi": 60,
      "hit": false,
      "t": 144600,
      "d": 280,
      "v": 71
    },
    {
      "midi": 84,
      "hit": false,
      "t": 144600,
      "d": 280,
      "v": 71
    },
    {
      "midi": 72,
      "hit": false,
      "t": 144600,
      "d": 320,
      "v": 78
    },
    {
      "midi": 96,
      "hit": false,
      "t": 144600,
      "d": 320,
      "v": 78
    },
    {
      "midi": 59,
      "hit": false,
      "t": 144900,
      "d": 220,
      "v": 78
    },
    {
      "midi": 83,
      "hit": false,
      "t": 144900,
      "d": 220,
      "v": 78
    },
    {
      "midi": 71,
      "hit": false,
      "t": 144900,
      "d": 280,
      "v": 72
    },
    {
      "midi": 95,
      "hit": false,
      "t": 144900,
      "d": 280,
      "v": 72
    },
    {
      "midi": 57,
      "hit": false,
      "t": 145200,
      "d": 225,
      "v": 84
    },
    {
      "midi": 69,
      "hit": false,
      "t": 145200,
      "d": 225,
      "v": 84
    },
    {
      "midi": 81,
      "hit": false,
      "t": 145200,
      "d": 225,
      "v": 84
    },
    {
      "midi": 93,
      "hit": false,
      "t": 145200,
      "d": 225,
      "v": 84
    },
    {
      "midi": 55,
      "hit": false,
      "t": 145800,
      "d": 195,
      "v": 81
    },
    {
      "midi": 79,
      "hit": false,
      "t": 145800,
      "d": 195,
      "v": 81
    },
    {
      "midi": 67,
      "hit": false,
      "t": 145800,
      "d": 250,
      "v": 82
    },
    {
      "midi": 91,
      "hit": false,
      "t": 145800,
      "d": 250,
      "v": 82
    },
    {
      "midi": 64,
      "hit": false,
      "t": 146400,
      "d": 240,
      "v": 83
    },
    {
      "midi": 88,
      "hit": false,
      "t": 146400,
      "d": 240,
      "v": 83
    },
    {
      "midi": 52,
      "hit": false,
      "t": 146400,
      "d": 325,
      "v": 71
    },
    {
      "midi": 76,
      "hit": false,
      "t": 146400,
      "d": 325,
      "v": 71
    },
    {
      "midi": 66,
      "hit": false,
      "t": 146700,
      "d": 265,
      "v": 66
    },
    {
      "midi": 90,
      "hit": false,
      "t": 146700,
      "d": 265,
      "v": 66
    },
    {
      "midi": 54,
      "hit": false,
      "t": 146700,
      "d": 330,
      "v": 70
    },
    {
      "midi": 78,
      "hit": false,
      "t": 146700,
      "d": 330,
      "v": 70
    },
    {
      "midi": 67,
      "hit": false,
      "t": 147000,
      "d": 310,
      "v": 73
    },
    {
      "midi": 91,
      "hit": false,
      "t": 147000,
      "d": 310,
      "v": 73
    },
    {
      "midi": 55,
      "hit": false,
      "t": 147000,
      "d": 355,
      "v": 74
    },
    {
      "midi": 79,
      "hit": false,
      "t": 147000,
      "d": 355,
      "v": 74
    },
    {
      "midi": 66,
      "hit": false,
      "t": 147300,
      "d": 255,
      "v": 70
    },
    {
      "midi": 90,
      "hit": false,
      "t": 147300,
      "d": 255,
      "v": 70
    },
    {
      "midi": 54,
      "hit": false,
      "t": 147300,
      "d": 350,
      "v": 65
    },
    {
      "midi": 78,
      "hit": false,
      "t": 147300,
      "d": 350,
      "v": 65
    },
    {
      "midi": 52,
      "hit": false,
      "t": 147600,
      "d": 225,
      "v": 79
    },
    {
      "midi": 76,
      "hit": false,
      "t": 147600,
      "d": 225,
      "v": 79
    },
    {
      "midi": 64,
      "hit": false,
      "t": 147600,
      "d": 240,
      "v": 84
    },
    {
      "midi": 88,
      "hit": false,
      "t": 147600,
      "d": 240,
      "v": 84
    },
    {
      "midi": 50,
      "hit": false,
      "t": 148200,
      "d": 240,
      "v": 77
    },
    {
      "midi": 74,
      "hit": false,
      "t": 148200,
      "d": 240,
      "v": 77
    },
    {
      "midi": 62,
      "hit": false,
      "t": 148200,
      "d": 280,
      "v": 82
    },
    {
      "midi": 86,
      "hit": false,
      "t": 148200,
      "d": 280,
      "v": 82
    },
    {
      "midi": 48,
      "hit": false,
      "t": 148800,
      "d": 270,
      "v": 71
    },
    {
      "midi": 72,
      "hit": false,
      "t": 148800,
      "d": 270,
      "v": 71
    },
    {
      "midi": 60,
      "hit": false,
      "t": 148800,
      "d": 325,
      "v": 87
    },
    {
      "midi": 84,
      "hit": false,
      "t": 148800,
      "d": 325,
      "v": 87
    },
    {
      "midi": 62,
      "hit": false,
      "t": 149100,
      "d": 255,
      "v": 71
    },
    {
      "midi": 86,
      "hit": false,
      "t": 149100,
      "d": 255,
      "v": 71
    },
    {
      "midi": 50,
      "hit": false,
      "t": 149100,
      "d": 275,
      "v": 77
    },
    {
      "midi": 74,
      "hit": false,
      "t": 149100,
      "d": 275,
      "v": 77
    },
    {
      "midi": 52,
      "hit": false,
      "t": 149400,
      "d": 255,
      "v": 72
    },
    {
      "midi": 76,
      "hit": false,
      "t": 149400,
      "d": 255,
      "v": 72
    },
    {
      "midi": 64,
      "hit": false,
      "t": 149400,
      "d": 290,
      "v": 80
    },
    {
      "midi": 88,
      "hit": false,
      "t": 149400,
      "d": 290,
      "v": 80
    },
    {
      "midi": 50,
      "hit": false,
      "t": 149700,
      "d": 275,
      "v": 74
    },
    {
      "midi": 74,
      "hit": false,
      "t": 149700,
      "d": 275,
      "v": 74
    },
    {
      "midi": 62,
      "hit": false,
      "t": 149700,
      "d": 295,
      "v": 68
    },
    {
      "midi": 86,
      "hit": false,
      "t": 149700,
      "d": 295,
      "v": 68
    },
    {
      "midi": 48,
      "hit": false,
      "t": 150000,
      "d": 265,
      "v": 79
    },
    {
      "midi": 72,
      "hit": false,
      "t": 150000,
      "d": 265,
      "v": 79
    },
    {
      "midi": 60,
      "hit": false,
      "t": 150000,
      "d": 305,
      "v": 82
    },
    {
      "midi": 84,
      "hit": false,
      "t": 150000,
      "d": 305,
      "v": 82
    },
    {
      "midi": 59,
      "hit": false,
      "t": 150600,
      "d": 280,
      "v": 76
    },
    {
      "midi": 83,
      "hit": false,
      "t": 150600,
      "d": 280,
      "v": 76
    },
    {
      "midi": 47,
      "hit": false,
      "t": 150600,
      "d": 295,
      "v": 78
    },
    {
      "midi": 71,
      "hit": false,
      "t": 150600,
      "d": 295,
      "v": 78
    },
    {
      "midi": 57,
      "hit": false,
      "t": 151200,
      "d": 750,
      "v": 87
    },
    {
      "midi": 81,
      "hit": false,
      "t": 151200,
      "d": 750,
      "v": 87
    },
    {
      "midi": 45,
      "hit": false,
      "t": 151200,
      "d": 790,
      "v": 84
    },
    {
      "midi": 69,
      "hit": false,
      "t": 151200,
      "d": 790,
      "v": 84
    },
    {
      "midi": 81,
      "hit": false,
      "t": 151200,
      "d": 610,
      "v": 85
    },
    {
      "midi": 45,
      "hit": false,
      "t": 151200,
      "d": 695,
      "v": 84
    },
    {
      "midi": 76,
      "hit": false,
      "t": 151200,
      "d": 710,
      "v": 97
    },
    {
      "midi": 72,
      "hit": false,
      "t": 151200,
      "d": 725,
      "v": 96
    },
    {
      "midi": 69,
      "hit": false,
      "t": 151200,
      "d": 730,
      "v": 102
    },
    {
      "midi": 57,
      "hit": false,
      "t": 151200,
      "d": 745,
      "v": 84
    },
    {
      "midi": 48,
      "hit": false,
      "t": 151200,
      "d": 755,
      "v": 79
    },
    {
      "midi": 52,
      "hit": false,
      "t": 151200,
      "d": 755,
      "v": 83
    },
    {
      "midi": 81,
      "hit": false,
      "t": 152400,
      "d": 665,
      "v": 89
    },
    {
      "midi": 52,
      "hit": false,
      "t": 152400,
      "d": 715,
      "v": 102
    },
    {
      "midi": 69,
      "hit": false,
      "t": 152400,
      "d": 720,
      "v": 104
    },
    {
      "midi": 57,
      "hit": false,
      "t": 152400,
      "d": 740,
      "v": 101
    },
    {
      "midi": 76,
      "hit": false,
      "t": 152400,
      "d": 770,
      "v": 101
    },
    {
      "midi": 72,
      "hit": false,
      "t": 152400,
      "d": 775,
      "v": 96
    },
    {
      "midi": 45,
      "hit": false,
      "t": 152400,
      "d": 790,
      "v": 85
    },
    {
      "midi": 48,
      "hit": false,
      "t": 152400,
      "d": 805,
      "v": 88
    },
    {
      "midi": 45,
      "hit": false,
      "t": 153600,
      "d": 260,
      "v": 77
    },
    {
      "midi": 69,
      "hit": false,
      "t": 153600,
      "d": 260,
      "v": 77
    },
    {
      "midi": 57,
      "hit": false,
      "t": 153600,
      "d": 400,
      "v": 75
    },
    {
      "midi": 81,
      "hit": false,
      "t": 153600,
      "d": 400,
      "v": 75
    },
    {
      "midi": 59,
      "hit": false,
      "t": 153900,
      "d": 260,
      "v": 74
    },
    {
      "midi": 83,
      "hit": false,
      "t": 153900,
      "d": 260,
      "v": 74
    },
    {
      "midi": 47,
      "hit": false,
      "t": 153900,
      "d": 350,
      "v": 65
    },
    {
      "midi": 71,
      "hit": false,
      "t": 153900,
      "d": 350,
      "v": 65
    },
    {
      "midi": 48,
      "hit": false,
      "t": 154200,
      "d": 285,
      "v": 68
    },
    {
      "midi": 72,
      "hit": false,
      "t": 154200,
      "d": 285,
      "v": 68
    },
    {
      "midi": 60,
      "hit": false,
      "t": 154200,
      "d": 400,
      "v": 76
    },
    {
      "midi": 84,
      "hit": false,
      "t": 154200,
      "d": 400,
      "v": 76
    },
    {
      "midi": 59,
      "hit": false,
      "t": 154500,
      "d": 325,
      "v": 74
    },
    {
      "midi": 83,
      "hit": false,
      "t": 154500,
      "d": 325,
      "v": 74
    },
    {
      "midi": 47,
      "hit": false,
      "t": 154500,
      "d": 360,
      "v": 74
    },
    {
      "midi": 71,
      "hit": false,
      "t": 154500,
      "d": 360,
      "v": 74
    },
    {
      "midi": 45,
      "hit": false,
      "t": 154800,
      "d": 225,
      "v": 76
    },
    {
      "midi": 69,
      "hit": false,
      "t": 154800,
      "d": 225,
      "v": 76
    },
    {
      "midi": 57,
      "hit": false,
      "t": 154800,
      "d": 285,
      "v": 82
    },
    {
      "midi": 81,
      "hit": false,
      "t": 154800,
      "d": 285,
      "v": 82
    },
    {
      "midi": 43,
      "hit": false,
      "t": 155400,
      "d": 205,
      "v": 65
    },
    {
      "midi": 67,
      "hit": false,
      "t": 155400,
      "d": 205,
      "v": 65
    },
    {
      "midi": 55,
      "hit": false,
      "t": 155400,
      "d": 260,
      "v": 82
    },
    {
      "midi": 79,
      "hit": false,
      "t": 155400,
      "d": 260,
      "v": 82
    },
    {
      "midi": 52,
      "hit": false,
      "t": 156000,
      "d": 245,
      "v": 82
    },
    {
      "midi": 76,
      "hit": false,
      "t": 156000,
      "d": 245,
      "v": 82
    },
    {
      "midi": 40,
      "hit": false,
      "t": 156000,
      "d": 335,
      "v": 72
    },
    {
      "midi": 64,
      "hit": false,
      "t": 156000,
      "d": 335,
      "v": 72
    },
    {
      "midi": 54,
      "hit": false,
      "t": 156300,
      "d": 260,
      "v": 66
    },
    {
      "midi": 78,
      "hit": false,
      "t": 156300,
      "d": 260,
      "v": 66
    },
    {
      "midi": 42,
      "hit": false,
      "t": 156300,
      "d": 335,
      "v": 76
    },
    {
      "midi": 66,
      "hit": false,
      "t": 156300,
      "d": 335,
      "v": 76
    },
    {
      "midi": 43,
      "hit": false,
      "t": 156600,
      "d": 240,
      "v": 59
    },
    {
      "midi": 67,
      "hit": false,
      "t": 156600,
      "d": 240,
      "v": 59
    },
    {
      "midi": 55,
      "hit": false,
      "t": 156600,
      "d": 285,
      "v": 71
    },
    {
      "midi": 79,
      "hit": false,
      "t": 156600,
      "d": 285,
      "v": 71
    },
    {
      "midi": 42,
      "hit": false,
      "t": 156900,
      "d": 315,
      "v": 70
    },
    {
      "midi": 66,
      "hit": false,
      "t": 156900,
      "d": 315,
      "v": 70
    },
    {
      "midi": 54,
      "hit": false,
      "t": 156900,
      "d": 340,
      "v": 62
    },
    {
      "midi": 78,
      "hit": false,
      "t": 156900,
      "d": 340,
      "v": 62
    },
    {
      "midi": 52,
      "hit": false,
      "t": 157200,
      "d": 280,
      "v": 85
    },
    {
      "midi": 76,
      "hit": false,
      "t": 157200,
      "d": 280,
      "v": 85
    },
    {
      "midi": 40,
      "hit": false,
      "t": 157200,
      "d": 285,
      "v": 75
    },
    {
      "midi": 64,
      "hit": false,
      "t": 157200,
      "d": 285,
      "v": 75
    },
    {
      "midi": 38,
      "hit": false,
      "t": 157800,
      "d": 260,
      "v": 80
    },
    {
      "midi": 62,
      "hit": false,
      "t": 157800,
      "d": 260,
      "v": 80
    },
    {
      "midi": 50,
      "hit": false,
      "t": 157800,
      "d": 295,
      "v": 82
    },
    {
      "midi": 74,
      "hit": false,
      "t": 157800,
      "d": 295,
      "v": 82
    },
    {
      "midi": 36,
      "hit": false,
      "t": 158400,
      "d": 260,
      "v": 72
    },
    {
      "midi": 60,
      "hit": false,
      "t": 158400,
      "d": 260,
      "v": 72
    },
    {
      "midi": 48,
      "hit": false,
      "t": 158400,
      "d": 285,
      "v": 89
    },
    {
      "midi": 72,
      "hit": false,
      "t": 158400,
      "d": 285,
      "v": 89
    },
    {
      "midi": 50,
      "hit": false,
      "t": 158700,
      "d": 255,
      "v": 69
    },
    {
      "midi": 74,
      "hit": false,
      "t": 158700,
      "d": 255,
      "v": 69
    },
    {
      "midi": 38,
      "hit": false,
      "t": 158700,
      "d": 270,
      "v": 75
    },
    {
      "midi": 62,
      "hit": false,
      "t": 158700,
      "d": 270,
      "v": 75
    },
    {
      "midi": 40,
      "hit": false,
      "t": 159000,
      "d": 245,
      "v": 70
    },
    {
      "midi": 64,
      "hit": false,
      "t": 159000,
      "d": 245,
      "v": 70
    },
    {
      "midi": 52,
      "hit": false,
      "t": 159000,
      "d": 290,
      "v": 76
    },
    {
      "midi": 76,
      "hit": false,
      "t": 159000,
      "d": 290,
      "v": 76
    },
    {
      "midi": 38,
      "hit": false,
      "t": 159300,
      "d": 265,
      "v": 74
    },
    {
      "midi": 62,
      "hit": false,
      "t": 159300,
      "d": 265,
      "v": 74
    },
    {
      "midi": 50,
      "hit": false,
      "t": 159300,
      "d": 310,
      "v": 78
    },
    {
      "midi": 74,
      "hit": false,
      "t": 159300,
      "d": 310,
      "v": 78
    },
    {
      "midi": 36,
      "hit": false,
      "t": 159600,
      "d": 260,
      "v": 71
    },
    {
      "midi": 60,
      "hit": false,
      "t": 159600,
      "d": 260,
      "v": 71
    },
    {
      "midi": 48,
      "hit": false,
      "t": 159600,
      "d": 330,
      "v": 83
    },
    {
      "midi": 72,
      "hit": false,
      "t": 159600,
      "d": 330,
      "v": 83
    },
    {
      "midi": 47,
      "hit": false,
      "t": 160200,
      "d": 265,
      "v": 80
    },
    {
      "midi": 71,
      "hit": false,
      "t": 160200,
      "d": 265,
      "v": 80
    },
    {
      "midi": 35,
      "hit": false,
      "t": 160200,
      "d": 280,
      "v": 70
    },
    {
      "midi": 59,
      "hit": false,
      "t": 160200,
      "d": 280,
      "v": 70
    },
    {
      "midi": 36,
      "hit": false,
      "t": 160800,
      "d": 805,
      "v": 70
    },
    {
      "midi": 60,
      "hit": false,
      "t": 160800,
      "d": 805,
      "v": 70
    },
    {
      "midi": 45,
      "hit": false,
      "t": 160800,
      "d": 840,
      "v": 89
    },
    {
      "midi": 69,
      "hit": false,
      "t": 160800,
      "d": 840,
      "v": 89
    },
    {
      "midi": 40,
      "hit": false,
      "t": 160800,
      "d": 855,
      "v": 87
    },
    {
      "midi": 64,
      "hit": false,
      "t": 160800,
      "d": 855,
      "v": 87
    },
    {
      "midi": 33,
      "hit": false,
      "t": 160800,
      "d": 920,
      "v": 78
    },
    {
      "midi": 57,
      "hit": false,
      "t": 160800,
      "d": 920,
      "v": 78
    },
    {
      "midi": 81,
      "hit": false,
      "t": 160800,
      "d": 565,
      "v": 97
    },
    {
      "midi": 45,
      "hit": false,
      "t": 160800,
      "d": 665,
      "v": 98
    },
    {
      "midi": 52,
      "hit": false,
      "t": 160800,
      "d": 695,
      "v": 98
    },
    {
      "midi": 48,
      "hit": false,
      "t": 160800,
      "d": 720,
      "v": 94
    },
    {
      "midi": 57,
      "hit": false,
      "t": 160800,
      "d": 720,
      "v": 94
    },
    {
      "midi": 76,
      "hit": false,
      "t": 160800,
      "d": 730,
      "v": 97
    },
    {
      "midi": 72,
      "hit": false,
      "t": 160800,
      "d": 755,
      "v": 97
    },
    {
      "midi": 69,
      "hit": false,
      "t": 160800,
      "d": 770,
      "v": 100
    },
    {
      "midi": 45,
      "hit": false,
      "t": 162000,
      "d": 315,
      "v": 90
    },
    {
      "midi": 52,
      "hit": false,
      "t": 162000,
      "d": 320,
      "v": 100
    },
    {
      "midi": 48,
      "hit": false,
      "t": 162000,
      "d": 330,
      "v": 96
    },
    {
      "midi": 57,
      "hit": false,
      "t": 162000,
      "d": 380,
      "v": 98
    },
    {
      "midi": 69,
      "hit": false,
      "t": 162000,
      "d": 555,
      "v": 105
    },
    {
      "midi": 76,
      "hit": false,
      "t": 162000,
      "d": 580,
      "v": 102
    },
    {
      "midi": 72,
      "hit": false,
      "t": 162000,
      "d": 595,
      "v": 98
    },
    {
      "midi": 81,
      "hit": false,
      "t": 162000,
      "d": 625,
      "v": 87
    },
    {
      "midi": 88,
      "hit": false,
      "t": 163200,
      "d": 725,
      "v": 96
    },
    {
      "midi": 76,
      "hit": false,
      "t": 163200,
      "d": 760,
      "v": 104
    },
    {
      "midi": 81,
      "hit": false,
      "t": 163200,
      "d": 785,
      "v": 102
    },
    {
      "midi": 52,
      "hit": false,
      "t": 163200,
      "d": 810,
      "v": 87
    },
    {
      "midi": 57,
      "hit": false,
      "t": 163200,
      "d": 830,
      "v": 101
    },
    {
      "midi": 64,
      "hit": false,
      "t": 163200,
      "d": 830,
      "v": 100
    },
    {
      "midi": 88,
      "hit": false,
      "t": 164400,
      "d": 650,
      "v": 93
    },
    {
      "midi": 81,
      "hit": false,
      "t": 164400,
      "d": 655,
      "v": 114
    },
    {
      "midi": 76,
      "hit": false,
      "t": 164400,
      "d": 670,
      "v": 116
    },
    {
      "midi": 64,
      "hit": false,
      "t": 164400,
      "d": 675,
      "v": 101
    },
    {
      "midi": 57,
      "hit": false,
      "t": 164400,
      "d": 715,
      "v": 107
    },
    {
      "midi": 52,
      "hit": false,
      "t": 164400,
      "d": 750,
      "v": 91
    },
    {
      "midi": 21,
      "hit": false,
      "t": 165600,
      "d": 245,
      "v": 82
    },
    {
      "midi": 33,
      "hit": false,
      "t": 165600,
      "d": 245,
      "v": 83
    },
    {
      "midi": 34,
      "hit": false,
      "t": 165800,
      "d": 245,
      "v": 91
    },
    {
      "midi": 46,
      "hit": false,
      "t": 165800,
      "d": 245,
      "v": 78
    },
    {
      "midi": 23,
      "hit": false,
      "t": 166000,
      "d": 245,
      "v": 82
    },
    {
      "midi": 35,
      "hit": false,
      "t": 166000,
      "d": 245,
      "v": 82
    },
    {
      "midi": 36,
      "hit": false,
      "t": 166200,
      "d": 245,
      "v": 77
    },
    {
      "midi": 48,
      "hit": false,
      "t": 166200,
      "d": 245,
      "v": 78
    },
    {
      "midi": 25,
      "hit": false,
      "t": 166400,
      "d": 245,
      "v": 88
    },
    {
      "midi": 37,
      "hit": false,
      "t": 166400,
      "d": 245,
      "v": 81
    },
    {
      "midi": 38,
      "hit": false,
      "t": 166600,
      "d": 245,
      "v": 86
    },
    {
      "midi": 50,
      "hit": false,
      "t": 166600,
      "d": 245,
      "v": 85
    },
    {
      "midi": 27,
      "hit": false,
      "t": 166800,
      "d": 245,
      "v": 78
    },
    {
      "midi": 39,
      "hit": false,
      "t": 166800,
      "d": 245,
      "v": 110
    },
    {
      "midi": 40,
      "hit": false,
      "t": 167000,
      "d": 245,
      "v": 102
    },
    {
      "midi": 52,
      "hit": false,
      "t": 167000,
      "d": 245,
      "v": 92
    },
    {
      "midi": 29,
      "hit": false,
      "t": 167200,
      "d": 245,
      "v": 89
    },
    {
      "midi": 41,
      "hit": false,
      "t": 167200,
      "d": 245,
      "v": 92
    },
    {
      "midi": 42,
      "hit": false,
      "t": 167400,
      "d": 245,
      "v": 103
    },
    {
      "midi": 54,
      "hit": false,
      "t": 167400,
      "d": 245,
      "v": 92
    },
    {
      "midi": 31,
      "hit": false,
      "t": 167600,
      "d": 245,
      "v": 86
    },
    {
      "midi": 43,
      "hit": false,
      "t": 167600,
      "d": 245,
      "v": 92
    },
    {
      "midi": 44,
      "hit": false,
      "t": 167800,
      "d": 245,
      "v": 106
    },
    {
      "midi": 56,
      "hit": false,
      "t": 167800,
      "d": 245,
      "v": 80
    },
    {
      "midi": 64,
      "hit": false,
      "t": 167850,
      "d": 115,
      "v": 89
    },
    {
      "midi": 76,
      "hit": false,
      "t": 167850,
      "d": 120,
      "v": 93
    },
    {
      "midi": 33,
      "hit": false,
      "t": 168000,
      "d": 245,
      "v": 93
    },
    {
      "midi": 45,
      "hit": false,
      "t": 168000,
      "d": 245,
      "v": 91
    },
    {
      "midi": 76,
      "hit": false,
      "t": 168000,
      "d": 975,
      "v": 114
    },
    {
      "midi": 64,
      "hit": false,
      "t": 168000,
      "d": 1000,
      "v": 111
    },
    {
      "midi": 44,
      "hit": false,
      "t": 168200,
      "d": 245,
      "v": 91
    },
    {
      "midi": 56,
      "hit": false,
      "t": 168200,
      "d": 245,
      "v": 88
    },
    {
      "midi": 31,
      "hit": false,
      "t": 168400,
      "d": 245,
      "v": 67
    },
    {
      "midi": 43,
      "hit": false,
      "t": 168400,
      "d": 245,
      "v": 62
    },
    {
      "midi": 42,
      "hit": false,
      "t": 168600,
      "d": 245,
      "v": 92
    },
    {
      "midi": 54,
      "hit": false,
      "t": 168600,
      "d": 245,
      "v": 80
    },
    {
      "midi": 29,
      "hit": false,
      "t": 168800,
      "d": 245,
      "v": 77
    },
    {
      "midi": 41,
      "hit": false,
      "t": 168800,
      "d": 245,
      "v": 79
    },
    {
      "midi": 40,
      "hit": false,
      "t": 169000,
      "d": 245,
      "v": 92
    },
    {
      "midi": 52,
      "hit": false,
      "t": 169000,
      "d": 245,
      "v": 88
    },
    {
      "midi": 27,
      "hit": false,
      "t": 169200,
      "d": 245,
      "v": 76
    },
    {
      "midi": 39,
      "hit": false,
      "t": 169200,
      "d": 245,
      "v": 88
    },
    {
      "midi": 76,
      "hit": false,
      "t": 169200,
      "d": 1020,
      "v": 114
    },
    {
      "midi": 64,
      "hit": false,
      "t": 169200,
      "d": 1040,
      "v": 107
    },
    {
      "midi": 38,
      "hit": false,
      "t": 169400,
      "d": 245,
      "v": 83
    },
    {
      "midi": 50,
      "hit": false,
      "t": 169400,
      "d": 245,
      "v": 76
    },
    {
      "midi": 25,
      "hit": false,
      "t": 169600,
      "d": 245,
      "v": 78
    },
    {
      "midi": 37,
      "hit": false,
      "t": 169600,
      "d": 245,
      "v": 75
    },
    {
      "midi": 36,
      "hit": false,
      "t": 169800,
      "d": 245,
      "v": 69
    },
    {
      "midi": 48,
      "hit": false,
      "t": 169800,
      "d": 245,
      "v": 74
    },
    {
      "midi": 23,
      "hit": false,
      "t": 170000,
      "d": 245,
      "v": 62
    },
    {
      "midi": 35,
      "hit": false,
      "t": 170000,
      "d": 245,
      "v": 69
    },
    {
      "midi": 34,
      "hit": false,
      "t": 170200,
      "d": 245,
      "v": 55
    },
    {
      "midi": 46,
      "hit": false,
      "t": 170200,
      "d": 245,
      "v": 68
    },
    {
      "midi": 21,
      "hit": false,
      "t": 170400,
      "d": 245,
      "v": 71
    },
    {
      "midi": 33,
      "hit": false,
      "t": 170400,
      "d": 245,
      "v": 66
    },
    {
      "midi": 76,
      "hit": false,
      "t": 170400,
      "d": 705,
      "v": 121
    },
    {
      "midi": 64,
      "hit": false,
      "t": 170400,
      "d": 760,
      "v": 112
    }
  ]
}