{
  "jsonPath": "Folk/Lilith/Garrison/i-hear-you-knocking.json",
  "path": "Folk\\Lilith\\Garrison\\I hear you knocking.mid",
  "name": "I hear you knocking",
  "difficulty": "Intermediate",
  "bpm": 104.0005546696249,
  "notes": [
    {
      "midi": 47,
      "hit": false,
      "t": 96345.63999999998,
      "d": 530.3457291666709,
      "v": 109
    },
    {
      "midi": 59,
      "hit": false,
      "t": 96345.63999999998,
      "d": 530.3457291666709,
      "v": 111
    },
    {
      "midi": 63,
      "hit": false,
      "t": 96345.63999999998,
      "d": 530.3457291666709,
      "v": 115
    },
    {
      "midi": 67,
      "hit": false,
      "t": 96345.63999999998,
      "d": 530.3457291666709,
      "v": 111
    },
    {
      "midi": 71,
      "hit": false,
      "t": 96345.63999999998,
      "d": 530.3457291666709,
      "v": 110
    },
    {
      "midi": 47,
      "hit": false,
      "t": 151729.96,
      "d": 530.3457291666709,
      "v": 112
    },
    {
      "midi": 59,
      "hit": false,
      "t": 151729.96,
      "d": 530.3457291666709,
      "v": 114
    },
    {
      "midi": 63,
      "hit": false,
      "t": 151729.96,
      "d": 530.3457291666709,
      "v": 109
    },
    {
      "midi": 67,
      "hit": false,
      "t": 151729.96,
      "d": 530.3457291666709,
      "v": 110
    },
    {
      "midi": 71,
      "hit": false,
      "t": 151729.96,
      "d": 530.3457291666709,
      "v": 111
    },
    {
      "midi": 47,
      "hit": false,
      "t": 179422.12,
      "d": 530.3457291666709,
      "v": 116
    },
    {
      "midi": 59,
      "hit": false,
      "t": 179422.12,
      "d": 530.3457291666709,
      "v": 109
    },
    {
      "midi": 63,
      "hit": false,
      "t": 179422.12,
      "d": 530.3457291666709,
      "v": 111
    },
    {
      "midi": 67,
      "hit": false,
      "t": 179422.12,
      "d": 530.3457291666709,
      "v": 108
    },
    {
      "midi": 71,
      "hit": false,
      "t": 179422.12,
      "d": 530.3457291666709,
      "v": 114
    },
    {
      "midi": 52,
      "hit": false,
      "t": 179999.04,
      "d": 386.11572916666046,
      "v": 111
    },
    {
      "midi": 59,
      "hit": false,
      "t": 179999.04,
      "d": 386.11572916666046,
      "v": 109
    },
    {
      "midi": 64,
      "hit": false,
      "t": 179999.04,
      "d": 386.11572916666046,
      "v": 111
    },
    {
      "midi": 68,
      "hit": false,
      "t": 179999.04,
      "d": 386.11572916666046,
      "v": 108
    },
    {
      "midi": 71,
      "hit": false,
      "t": 179999.04,
      "d": 386.11572916666046,
      "v": 115
    }
  ]
}