{
  "jsonPath": "Rock/Soft Rock/Rod Stewart/the-best-of-my-love.json",
  "path": "Rock\\Soft Rock\\Rod Stewart\\The Best Of My Love.mid",
  "name": "The Best Of My Love",
  "difficulty": "Advanced",
  "bpm": 88.00002346667293,
  "notes": [
    {
      "midi": 55,
      "hit": false,
      "t": 2727.272,
      "d": 161.93177500000002,
      "v": 63
    },
    {
      "midi": 59,
      "hit": false,
      "t": 2727.272,
      "d": 161.93177500000002,
      "v": 82
    },
    {
      "midi": 64,
      "hit": false,
      "t": 2727.272,
      "d": 178.9772250000001,
      "v": 82
    },
    {
      "midi": 48,
      "hit": false,
      "t": 2727.272,
      "d": 2394.885725,
      "v": 72
    },
    {
      "midi": 55,
      "hit": false,
      "t": 3068.181,
      "d": 93.74997500000018,
      "v": 60
    },
    {
      "midi": 60,
      "hit": false,
      "t": 3068.181,
      "d": 113.63633333333337,
      "v": 78
    },
    {
      "midi": 64,
      "hit": false,
      "t": 3068.181,
      "d": 124.99996666666675,
      "v": 82
    },
    {
      "midi": 60,
      "hit": false,
      "t": 3749.999,
      "d": 1264.2042083333336,
      "v": 60
    },
    {
      "midi": 55,
      "hit": false,
      "t": 3749.999,
      "d": 1329.5451000000003,
      "v": 57
    },
    {
      "midi": 64,
      "hit": false,
      "t": 3749.999,
      "d": 1340.9087333333337,
      "v": 53
    },
    {
      "midi": 55,
      "hit": false,
      "t": 5454.544,
      "d": 218.74994166666693,
      "v": 66
    },
    {
      "midi": 59,
      "hit": false,
      "t": 5454.544,
      "d": 238.63630000000012,
      "v": 70
    },
    {
      "midi": 64,
      "hit": false,
      "t": 5454.544,
      "d": 244.31811666666636,
      "v": 68
    },
    {
      "midi": 48,
      "hit": false,
      "t": 5454.544,
      "d": 249.9999333333326,
      "v": 70
    },
    {
      "midi": 64,
      "hit": false,
      "t": 5795.4529999999995,
      "d": 491.4771416666672,
      "v": 89
    },
    {
      "midi": 60,
      "hit": false,
      "t": 5795.4529999999995,
      "d": 511.3635000000004,
      "v": 91
    },
    {
      "midi": 55,
      "hit": false,
      "t": 5795.4529999999995,
      "d": 519.8862250000002,
      "v": 72
    },
    {
      "midi": 48,
      "hit": false,
      "t": 5795.4529999999995,
      "d": 528.40895,
      "v": 68
    },
    {
      "midi": 48,
      "hit": false,
      "t": 6477.271,
      "d": 607.9543833333337,
      "v": 74
    },
    {
      "midi": 60,
      "hit": false,
      "t": 6477.271,
      "d": 855.1134083333336,
      "v": 72
    },
    {
      "midi": 64,
      "hit": false,
      "t": 6477.271,
      "d": 906.2497583333334,
      "v": 70
    },
    {
      "midi": 55,
      "hit": false,
      "t": 6477.271,
      "d": 917.6133916666668,
      "v": 63
    },
    {
      "midi": 55,
      "hit": false,
      "t": 8181.816,
      "d": 181.81813333333503,
      "v": 80
    },
    {
      "midi": 59,
      "hit": false,
      "t": 8181.816,
      "d": 207.38630833333536,
      "v": 87
    },
    {
      "midi": 50,
      "hit": false,
      "t": 8181.816,
      "d": 213.0681250000025,
      "v": 74
    },
    {
      "midi": 53,
      "hit": false,
      "t": 8181.816,
      "d": 213.0681250000025,
      "v": 61
    },
    {
      "midi": 64,
      "hit": false,
      "t": 8181.816,
      "d": 224.43175833333498,
      "v": 85
    },
    {
      "midi": 50,
      "hit": false,
      "t": 8522.725000000002,
      "d": 488.6362333333327,
      "v": 76
    },
    {
      "midi": 60,
      "hit": false,
      "t": 8522.725000000002,
      "d": 499.9998666666652,
      "v": 82
    },
    {
      "midi": 64,
      "hit": false,
      "t": 8522.725000000002,
      "d": 534.0907666666644,
      "v": 82
    },
    {
      "midi": 57,
      "hit": false,
      "t": 8522.725000000002,
      "d": 542.6134916666651,
      "v": 76
    },
    {
      "midi": 50,
      "hit": false,
      "t": 9204.543000000001,
      "d": 1190.3405916666652,
      "v": 60
    },
    {
      "midi": 60,
      "hit": false,
      "t": 9204.543000000001,
      "d": 1269.886024999998,
      "v": 66
    },
    {
      "midi": 64,
      "hit": false,
      "t": 9204.543000000001,
      "d": 1278.4087499999987,
      "v": 63
    },
    {
      "midi": 57,
      "hit": false,
      "t": 9204.543000000001,
      "d": 1321.0223749999986,
      "v": 63
    },
    {
      "midi": 55,
      "hit": false,
      "t": 10909.088000000002,
      "d": 244.31811666666727,
      "v": 82
    },
    {
      "midi": 59,
      "hit": false,
      "t": 10909.088000000002,
      "d": 255.68174999999974,
      "v": 85
    },
    {
      "midi": 50,
      "hit": false,
      "t": 10909.088000000002,
      "d": 278.4090166666665,
      "v": 87
    },
    {
      "midi": 64,
      "hit": false,
      "t": 10909.088000000002,
      "d": 281.2499250000001,
      "v": 89
    },
    {
      "midi": 50,
      "hit": false,
      "t": 11249.997000000001,
      "d": 474.43169166666667,
      "v": 76
    },
    {
      "midi": 60,
      "hit": false,
      "t": 11249.997000000001,
      "d": 508.5225916666659,
      "v": 82
    },
    {
      "midi": 64,
      "hit": false,
      "t": 11249.997000000001,
      "d": 514.204408333333,
      "v": 87
    },
    {
      "midi": 57,
      "hit": false,
      "t": 11249.997000000001,
      "d": 525.5680416666655,
      "v": 70
    },
    {
      "midi": 76,
      "hit": false,
      "t": 11590.905999999999,
      "d": 278.4090166666665,
      "v": 103
    },
    {
      "midi": 77,
      "hit": false,
      "t": 11931.814999999999,
      "d": 355.1135416666675,
      "v": 103
    },
    {
      "midi": 60,
      "hit": false,
      "t": 11931.815,
      "d": 1374.999633333333,
      "v": 82
    },
    {
      "midi": 50,
      "hit": false,
      "t": 11931.815,
      "d": 1380.68145,
      "v": 64
    },
    {
      "midi": 57,
      "hit": false,
      "t": 11931.815,
      "d": 1389.2041750000008,
      "v": 72
    },
    {
      "midi": 64,
      "hit": false,
      "t": 11931.815,
      "d": 1400.5678083333332,
      "v": 85
    },
    {
      "midi": 76,
      "hit": false,
      "t": 12272.724,
      "d": 318.1817333333329,
      "v": 103
    },
    {
      "midi": 72,
      "hit": false,
      "t": 12613.633,
      "d": 366.477175,
      "v": 103
    },
    {
      "midi": 69,
      "hit": false,
      "t": 12954.542,
      "d": 357.95444999999927,
      "v": 103
    },
    {
      "midi": 67,
      "hit": false,
      "t": 13295.451,
      "d": 335.2271833333325,
      "v": 103
    },
    {
      "midi": 64,
      "hit": false,
      "t": 13636.359999999999,
      "d": 2099.4312583333303,
      "v": 103
    },
    {
      "midi": 60,
      "hit": false,
      "t": 13636.359999999999,
      "d": 2159.09033333333,
      "v": 103
    },
    {
      "midi": 55,
      "hit": false,
      "t": 13636.36,
      "d": 161.93177500000093,
      "v": 63
    },
    {
      "midi": 59,
      "hit": false,
      "t": 13636.36,
      "d": 161.93177500000093,
      "v": 82
    },
    {
      "midi": 64,
      "hit": false,
      "t": 13636.36,
      "d": 178.97722500000054,
      "v": 82
    },
    {
      "midi": 48,
      "hit": false,
      "t": 13636.36,
      "d": 2394.8857249999983,
      "v": 72
    },
    {
      "midi": 55,
      "hit": false,
      "t": 13977.269,
      "d": 93.74997500000063,
      "v": 60
    },
    {
      "midi": 60,
      "hit": false,
      "t": 13977.269,
      "d": 113.63633333333382,
      "v": 78
    },
    {
      "midi": 64,
      "hit": false,
      "t": 13977.269,
      "d": 124.9999666666663,
      "v": 82
    },
    {
      "midi": 60,
      "hit": false,
      "t": 14659.087,
      "d": 1264.2042083333326,
      "v": 60
    },
    {
      "midi": 55,
      "hit": false,
      "t": 14659.087,
      "d": 1329.5450999999994,
      "v": 57
    },
    {
      "midi": 64,
      "hit": false,
      "t": 14659.087,
      "d": 1340.9087333333318,
      "v": 53
    },
    {
      "midi": 67,
      "hit": false,
      "t": 14659.087,
      "d": 1008.5224583333311,
      "v": 103
    },
    {
      "midi": 72,
      "hit": false,
      "t": 15681.813999999997,
      "d": 394.8862583333321,
      "v": 103
    },
    {
      "midi": 76,
      "hit": false,
      "t": 16363.631999999996,
      "d": 468.7498749999995,
      "v": 103
    },
    {
      "midi": 55,
      "hit": false,
      "t": 16363.631999999998,
      "d": 218.74994166666875,
      "v": 66
    },
    {
      "midi": 59,
      "hit": false,
      "t": 16363.631999999998,
      "d": 238.63630000000194,
      "v": 70
    },
    {
      "midi": 64,
      "hit": false,
      "t": 16363.631999999998,
      "d": 244.31811666666908,
      "v": 68
    },
    {
      "midi": 48,
      "hit": false,
      "t": 16363.631999999998,
      "d": 249.99993333333623,
      "v": 70
    },
    {
      "midi": 64,
      "hit": false,
      "t": 16704.541,
      "d": 491.4771416666663,
      "v": 89
    },
    {
      "midi": 60,
      "hit": false,
      "t": 16704.541,
      "d": 511.3634999999995,
      "v": 91
    },
    {
      "midi": 55,
      "hit": false,
      "t": 16704.541,
      "d": 519.8862249999984,
      "v": 72
    },
    {
      "midi": 48,
      "hit": false,
      "t": 16704.541,
      "d": 528.4089499999973,
      "v": 68
    },
    {
      "midi": 74,
      "hit": false,
      "t": 17045.449999999997,
      "d": 93.74997499999881,
      "v": 103
    },
    {
      "midi": 48,
      "hit": false,
      "t": 17386.358999999997,
      "d": 607.9543833333337,
      "v": 74
    },
    {
      "midi": 60,
      "hit": false,
      "t": 17386.358999999997,
      "d": 855.1134083333345,
      "v": 72
    },
    {
      "midi": 64,
      "hit": false,
      "t": 17386.358999999997,
      "d": 906.2497583333352,
      "v": 70
    },
    {
      "midi": 55,
      "hit": false,
      "t": 17386.358999999997,
      "d": 917.6133916666695,
      "v": 63
    },
    {
      "midi": 71,
      "hit": false,
      "t": 17727.267999999996,
      "d": 133.5226916666652,
      "v": 103
    },
    {
      "midi": 67,
      "hit": false,
      "t": 18409.085999999996,
      "d": 545.4543999999987,
      "v": 103
    },
    {
      "midi": 67,
      "hit": false,
      "t": 19090.903999999995,
      "d": 2142.0448833333394,
      "v": 103
    },
    {
      "midi": 55,
      "hit": false,
      "t": 19090.904,
      "d": 181.81813333333412,
      "v": 80
    },
    {
      "midi": 59,
      "hit": false,
      "t": 19090.904,
      "d": 207.38630833333445,
      "v": 87
    },
    {
      "midi": 50,
      "hit": false,
      "t": 19090.904,
      "d": 213.0681250000016,
      "v": 74
    },
    {
      "midi": 53,
      "hit": false,
      "t": 19090.904,
      "d": 213.0681250000016,
      "v": 61
    },
    {
      "midi": 64,
      "hit": false,
      "t": 19090.904,
      "d": 224.4317583333359,
      "v": 85
    },
    {
      "midi": 50,
      "hit": false,
      "t": 19431.813000000002,
      "d": 488.63623333333453,
      "v": 76
    },
    {
      "midi": 60,
      "hit": false,
      "t": 19431.813000000002,
      "d": 499.9998666666688,
      "v": 82
    },
    {
      "midi": 64,
      "hit": false,
      "t": 19431.813000000002,
      "d": 534.0907666666681,
      "v": 82
    },
    {
      "midi": 57,
      "hit": false,
      "t": 19431.813000000002,
      "d": 542.613491666667,
      "v": 76
    },
    {
      "midi": 50,
      "hit": false,
      "t": 20113.631,
      "d": 1190.340591666667,
      "v": 60
    },
    {
      "midi": 60,
      "hit": false,
      "t": 20113.631,
      "d": 1269.8860249999998,
      "v": 66
    },
    {
      "midi": 64,
      "hit": false,
      "t": 20113.631,
      "d": 1278.4087499999987,
      "v": 63
    },
    {
      "midi": 57,
      "hit": false,
      "t": 20113.631,
      "d": 1321.0223750000005,
      "v": 63
    },
    {
      "midi": 55,
      "hit": false,
      "t": 21818.176,
      "d": 244.31811666666545,
      "v": 82
    },
    {
      "midi": 59,
      "hit": false,
      "t": 21818.176,
      "d": 255.68174999999974,
      "v": 85
    },
    {
      "midi": 50,
      "hit": false,
      "t": 21818.176,
      "d": 278.4090166666647,
      "v": 87
    },
    {
      "midi": 64,
      "hit": false,
      "t": 21818.176,
      "d": 281.24992499999644,
      "v": 89
    },
    {
      "midi": 50,
      "hit": false,
      "t": 22159.084999999995,
      "d": 474.43169166666485,
      "v": 76
    },
    {
      "midi": 60,
      "hit": false,
      "t": 22159.084999999995,
      "d": 508.5225916666641,
      "v": 82
    },
    {
      "midi": 64,
      "hit": false,
      "t": 22159.084999999995,
      "d": 514.2044083333312,
      "v": 87
    },
    {
      "midi": 57,
      "hit": false,
      "t": 22159.084999999995,
      "d": 525.5680416666655,
      "v": 70
    },
    {
      "midi": 60,
      "hit": false,
      "t": 22840.902999999995,
      "d": 1374.999633333333,
      "v": 82
    },
    {
      "midi": 50,
      "hit": false,
      "t": 22840.902999999995,
      "d": 1380.68145,
      "v": 64
    },
    {
      "midi": 57,
      "hit": false,
      "t": 22840.902999999995,
      "d": 1389.204174999999,
      "v": 72
    },
    {
      "midi": 64,
      "hit": false,
      "t": 22840.902999999995,
      "d": 1400.5678083333332,
      "v": 85
    },
    {
      "midi": 74,
      "hit": false,
      "t": 23181.811999999998,
      "d": 380.68171666666603,
      "v": 103
    },
    {
      "midi": 71,
      "hit": false,
      "t": 23522.720999999998,
      "d": 329.54536666666536,
      "v": 103
    },
    {
      "midi": 67,
      "hit": false,
      "t": 23863.629999999997,
      "d": 25.568175000000338,
      "v": 103
    },
    {
      "midi": 69,
      "hit": false,
      "t": 24204.538999999997,
      "d": 360.79535833333284,
      "v": 103
    },
    {
      "midi": 55,
      "hit": false,
      "t": 24545.447999999993,
      "d": 161.93177500000093,
      "v": 63
    },
    {
      "midi": 59,
      "hit": false,
      "t": 24545.447999999993,
      "d": 161.93177500000093,
      "v": 82
    },
    {
      "midi": 64,
      "hit": false,
      "t": 24545.447999999993,
      "d": 178.97722500000236,
      "v": 82
    },
    {
      "midi": 48,
      "hit": false,
      "t": 24545.447999999993,
      "d": 2394.8857250000037,
      "v": 72
    },
    {
      "midi": 60,
      "hit": false,
      "t": 24545.447999999997,
      "d": 3264.2036750000007,
      "v": 103
    },
    {
      "midi": 55,
      "hit": false,
      "t": 24886.356999999996,
      "d": 93.74997499999881,
      "v": 60
    },
    {
      "midi": 60,
      "hit": false,
      "t": 24886.356999999996,
      "d": 113.636333333332,
      "v": 78
    },
    {
      "midi": 64,
      "hit": false,
      "t": 24886.356999999996,
      "d": 124.9999666666663,
      "v": 82
    },
    {
      "midi": 60,
      "hit": false,
      "t": 25568.174999999996,
      "d": 1264.2042083333326,
      "v": 60
    },
    {
      "midi": 55,
      "hit": false,
      "t": 25568.174999999996,
      "d": 1329.5450999999994,
      "v": 57
    },
    {
      "midi": 64,
      "hit": false,
      "t": 25568.174999999996,
      "d": 1340.9087333333337,
      "v": 53
    },
    {
      "midi": 55,
      "hit": false,
      "t": 27272.719999999998,
      "d": 218.74994166666875,
      "v": 66
    },
    {
      "midi": 59,
      "hit": false,
      "t": 27272.719999999998,
      "d": 238.63630000000194,
      "v": 70
    },
    {
      "midi": 64,
      "hit": false,
      "t": 27272.719999999998,
      "d": 244.31811666666908,
      "v": 68
    },
    {
      "midi": 48,
      "hit": false,
      "t": 27272.719999999998,
      "d": 249.99993333333623,
      "v": 70
    },
    {
      "midi": 64,
      "hit": false,
      "t": 27613.629,
      "d": 491.4771416666663,
      "v": 89
    },
    {
      "midi": 60,
      "hit": false,
      "t": 27613.629,
      "d": 511.3634999999995,
      "v": 91
    },
    {
      "midi": 55,
      "hit": false,
      "t": 27613.629,
      "d": 519.8862249999984,
      "v": 72
    },
    {
      "midi": 48,
      "hit": false,
      "t": 27613.629,
      "d": 528.4089499999973,
      "v": 68
    },
    {
      "midi": 48,
      "hit": false,
      "t": 28295.446999999996,
      "d": 607.9543833333337,
      "v": 74
    },
    {
      "midi": 60,
      "hit": false,
      "t": 28295.446999999996,
      "d": 855.1134083333345,
      "v": 72
    },
    {
      "midi": 64,
      "hit": false,
      "t": 28295.446999999996,
      "d": 906.2497583333352,
      "v": 70
    },
    {
      "midi": 55,
      "hit": false,
      "t": 28295.446999999996,
      "d": 917.6133916666695,
      "v": 63
    },
    {
      "midi": 55,
      "hit": false,
      "t": 29999.992,
      "d": 181.81813333333412,
      "v": 80
    },
    {
      "midi": 59,
      "hit": false,
      "t": 29999.992,
      "d": 207.38630833333445,
      "v": 87
    },
    {
      "midi": 50,
      "hit": false,
      "t": 29999.992,
      "d": 213.0681250000016,
      "v": 74
    },
    {
      "midi": 53,
      "hit": false,
      "t": 29999.992,
      "d": 213.0681250000016,
      "v": 61
    },
    {
      "midi": 64,
      "hit": false,
      "t": 29999.992,
      "d": 224.4317583333359,
      "v": 85
    },
    {
      "midi": 50,
      "hit": false,
      "t": 30340.901,
      "d": 488.63623333333453,
      "v": 76
    },
    {
      "midi": 60,
      "hit": false,
      "t": 30340.901,
      "d": 499.9998666666688,
      "v": 82
    },
    {
      "midi": 64,
      "hit": false,
      "t": 30340.901,
      "d": 534.0907666666681,
      "v": 82
    },
    {
      "midi": 57,
      "hit": false,
      "t": 30340.901,
      "d": 542.613491666667,
      "v": 76
    },
    {
      "midi": 50,
      "hit": false,
      "t": 31022.719,
      "d": 1190.340591666667,
      "v": 60
    },
    {
      "midi": 60,
      "hit": false,
      "t": 31022.719,
      "d": 1269.8860249999998,
      "v": 66
    },
    {
      "midi": 64,
      "hit": false,
      "t": 31022.719,
      "d": 1278.4087499999987,
      "v": 63
    },
    {
      "midi": 57,
      "hit": false,
      "t": 31022.719,
      "d": 1321.0223750000005,
      "v": 63
    },
    {
      "midi": 55,
      "hit": false,
      "t": 32727.264,
      "d": 244.31811666666545,
      "v": 82
    },
    {
      "midi": 59,
      "hit": false,
      "t": 32727.264,
      "d": 255.68174999999974,
      "v": 85
    },
    {
      "midi": 50,
      "hit": false,
      "t": 32727.264,
      "d": 278.4090166666683,
      "v": 87
    },
    {
      "midi": 64,
      "hit": false,
      "t": 32727.264,
      "d": 281.2499250000001,
      "v": 89
    },
    {
      "midi": 50,
      "hit": false,
      "t": 33068.173,
      "d": 474.4316916666721,
      "v": 76
    },
    {
      "midi": 60,
      "hit": false,
      "t": 33068.173,
      "d": 508.522591666675,
      "v": 82
    },
    {
      "midi": 64,
      "hit": false,
      "t": 33068.173,
      "d": 514.2044083333385,
      "v": 87
    },
    {
      "midi": 57,
      "hit": false,
      "t": 33068.173,
      "d": 525.5680416666728,
      "v": 70
    },
    {
      "midi": 60,
      "hit": false,
      "t": 33749.99100000001,
      "d": 1374.999633333333,
      "v": 82
    },
    {
      "midi": 50,
      "hit": false,
      "t": 33749.99100000001,
      "d": 1380.6814499999964,
      "v": 64
    },
    {
      "midi": 57,
      "hit": false,
      "t": 33749.99100000001,
      "d": 1389.204174999999,
      "v": 72
    },
    {
      "midi": 64,
      "hit": false,
      "t": 33749.99100000001,
      "d": 1400.5678083333332,
      "v": 85
    },
    {
      "midi": 69,
      "hit": false,
      "t": 35454.536,
      "d": 19.88635833333683,
      "v": 103
    },
    {
      "midi": 60,
      "hit": false,
      "t": 35454.536,
      "d": 3264.2036750000043,
      "v": 103
    },
    {
      "midi": 55,
      "hit": false,
      "t": 35454.53600000001,
      "d": 161.9317749999973,
      "v": 63
    },
    {
      "midi": 59,
      "hit": false,
      "t": 35454.53600000001,
      "d": 161.9317749999973,
      "v": 82
    },
    {
      "midi": 64,
      "hit": false,
      "t": 35454.53600000001,
      "d": 178.9772249999951,
      "v": 82
    },
    {
      "midi": 48,
      "hit": false,
      "t": 35454.53600000001,
      "d": 2394.885724999993,
      "v": 72
    },
    {
      "midi": 55,
      "hit": false,
      "t": 35795.445,
      "d": 93.74997499999881,
      "v": 60
    },
    {
      "midi": 60,
      "hit": false,
      "t": 35795.445,
      "d": 113.63633333333564,
      "v": 78
    },
    {
      "midi": 64,
      "hit": false,
      "t": 35795.445,
      "d": 124.99996666666993,
      "v": 82
    },
    {
      "midi": 60,
      "hit": false,
      "t": 36477.263,
      "d": 1264.2042083333363,
      "v": 60
    },
    {
      "midi": 55,
      "hit": false,
      "t": 36477.263,
      "d": 1329.545100000003,
      "v": 57
    },
    {
      "midi": 64,
      "hit": false,
      "t": 36477.263,
      "d": 1340.9087333333373,
      "v": 53
    },
    {
      "midi": 55,
      "hit": false,
      "t": 38181.808,
      "d": 218.74994166666875,
      "v": 66
    },
    {
      "midi": 59,
      "hit": false,
      "t": 38181.808,
      "d": 238.63630000000558,
      "v": 70
    },
    {
      "midi": 64,
      "hit": false,
      "t": 38181.808,
      "d": 244.31811666666908,
      "v": 68
    },
    {
      "midi": 48,
      "hit": false,
      "t": 38181.808,
      "d": 249.9999333333326,
      "v": 70
    },
    {
      "midi": 64,
      "hit": false,
      "t": 38522.717,
      "d": 491.4771416666699,
      "v": 89
    },
    {
      "midi": 60,
      "hit": false,
      "t": 38522.717,
      "d": 511.36350000000675,
      "v": 91
    },
    {
      "midi": 55,
      "hit": false,
      "t": 38522.717,
      "d": 519.8862250000093,
      "v": 72
    },
    {
      "midi": 48,
      "hit": false,
      "t": 38522.717,
      "d": 528.4089500000118,
      "v": 68
    },
    {
      "midi": 48,
      "hit": false,
      "t": 39204.53500000001,
      "d": 607.95438333333,
      "v": 74
    },
    {
      "midi": 60,
      "hit": false,
      "t": 39204.53500000001,
      "d": 855.1134083333309,
      "v": 72
    },
    {
      "midi": 64,
      "hit": false,
      "t": 39204.53500000001,
      "d": 906.2497583333316,
      "v": 70
    },
    {
      "midi": 55,
      "hit": false,
      "t": 39204.53500000001,
      "d": 917.6133916666658,
      "v": 63
    },
    {
      "midi": 55,
      "hit": false,
      "t": 40909.08000000001,
      "d": 181.81813333333412,
      "v": 80
    },
    {
      "midi": 59,
      "hit": false,
      "t": 40909.08000000001,
      "d": 207.38630833333445,
      "v": 87
    },
    {
      "midi": 50,
      "hit": false,
      "t": 40909.08000000001,
      "d": 213.06812499999796,
      "v": 74
    },
    {
      "midi": 53,
      "hit": false,
      "t": 40909.08000000001,
      "d": 213.06812499999796,
      "v": 61
    },
    {
      "midi": 64,
      "hit": false,
      "t": 40909.08000000001,
      "d": 224.43175833333225,
      "v": 85
    },
    {
      "midi": 50,
      "hit": false,
      "t": 41249.98900000001,
      "d": 488.6362333333309,
      "v": 76
    },
    {
      "midi": 60,
      "hit": false,
      "t": 41249.98900000001,
      "d": 499.9998666666652,
      "v": 82
    },
    {
      "midi": 64,
      "hit": false,
      "t": 41249.98900000001,
      "d": 534.0907666666681,
      "v": 82
    },
    {
      "midi": 57,
      "hit": false,
      "t": 41249.98900000001,
      "d": 542.6134916666706,
      "v": 76
    },
    {
      "midi": 50,
      "hit": false,
      "t": 41931.807000000015,
      "d": 1190.340591666667,
      "v": 60
    },
    {
      "midi": 60,
      "hit": false,
      "t": 41931.807000000015,
      "d": 1269.8860249999998,
      "v": 66
    },
    {
      "midi": 64,
      "hit": false,
      "t": 41931.807000000015,
      "d": 1278.4087500000023,
      "v": 63
    },
    {
      "midi": 57,
      "hit": false,
      "t": 41931.807000000015,
      "d": 1321.0223750000005,
      "v": 63
    },
    {
      "midi": 55,
      "hit": false,
      "t": 43636.35200000002,
      "d": 244.3181166666618,
      "v": 82
    },
    {
      "midi": 59,
      "hit": false,
      "t": 43636.35200000002,
      "d": 255.6817499999961,
      "v": 85
    },
    {
      "midi": 50,
      "hit": false,
      "t": 43636.35200000002,
      "d": 278.4090166666647,
      "v": 87
    },
    {
      "midi": 64,
      "hit": false,
      "t": 43636.35200000002,
      "d": 281.24992499999644,
      "v": 89
    },
    {
      "midi": 50,
      "hit": false,
      "t": 43977.26100000002,
      "d": 474.4316916666721,
      "v": 76
    },
    {
      "midi": 60,
      "hit": false,
      "t": 43977.26100000002,
      "d": 508.522591666675,
      "v": 82
    },
    {
      "midi": 64,
      "hit": false,
      "t": 43977.26100000002,
      "d": 514.2044083333385,
      "v": 87
    },
    {
      "midi": 57,
      "hit": false,
      "t": 43977.26100000002,
      "d": 525.5680416666728,
      "v": 70
    },
    {
      "midi": 60,
      "hit": false,
      "t": 44659.07900000003,
      "d": 1374.999633333333,
      "v": 82
    },
    {
      "midi": 50,
      "hit": false,
      "t": 44659.07900000003,
      "d": 1380.6814499999964,
      "v": 64
    },
    {
      "midi": 57,
      "hit": false,
      "t": 44659.07900000003,
      "d": 1389.204174999999,
      "v": 72
    },
    {
      "midi": 64,
      "hit": false,
      "t": 44659.07900000003,
      "d": 1400.5678083333332,
      "v": 85
    },
    {
      "midi": 74,
      "hit": false,
      "t": 44999.988000000005,
      "d": 306.8180999999968,
      "v": 103
    },
    {
      "midi": 72,
      "hit": false,
      "t": 45340.897000000004,
      "d": 249.9999333333326,
      "v": 103
    },
    {
      "midi": 76,
      "hit": false,
      "t": 45681.806000000004,
      "d": 178.97722500000236,
      "v": 103
    },
    {
      "midi": 71,
      "hit": false,
      "t": 46363.62400000001,
      "d": 2096.590350000006,
      "v": 103
    },
    {
      "midi": 74,
      "hit": false,
      "t": 46363.62400000001,
      "d": 2119.3176166666744,
      "v": 103
    },
    {
      "midi": 67,
      "hit": false,
      "t": 46363.62400000001,
      "d": 2124.999433333338,
      "v": 103
    },
    {
      "midi": 55,
      "hit": false,
      "t": 46363.624000000025,
      "d": 1502.8405083333273,
      "v": 91
    },
    {
      "midi": 59,
      "hit": false,
      "t": 46363.624000000025,
      "d": 1755.6813499999917,
      "v": 91
    },
    {
      "midi": 62,
      "hit": false,
      "t": 46363.624000000025,
      "d": 1803.9767916666606,
      "v": 98
    },
    {
      "midi": 52,
      "hit": false,
      "t": 46363.624000000025,
      "d": 1906.249491666662,
      "v": 91
    },
    {
      "midi": 55,
      "hit": false,
      "t": 48068.169000000016,
      "d": 201.70449166667095,
      "v": 91
    },
    {
      "midi": 62,
      "hit": false,
      "t": 48409.07800000002,
      "d": 139.20450833333598,
      "v": 105
    },
    {
      "midi": 59,
      "hit": false,
      "t": 48409.07800000002,
      "d": 150.56814166667027,
      "v": 100
    },
    {
      "midi": 69,
      "hit": false,
      "t": 49090.896000000015,
      "d": 974.4315583333228,
      "v": 103
    },
    {
      "midi": 72,
      "hit": false,
      "t": 49090.896000000015,
      "d": 985.795191666657,
      "v": 103
    },
    {
      "midi": 53,
      "hit": false,
      "t": 49090.89600000002,
      "d": 639.2043750000012,
      "v": 76
    },
    {
      "midi": 57,
      "hit": false,
      "t": 49090.89600000002,
      "d": 659.090733333338,
      "v": 85
    },
    {
      "midi": 60,
      "hit": false,
      "t": 49090.89600000002,
      "d": 673.295275000004,
      "v": 85
    },
    {
      "midi": 50,
      "hit": false,
      "t": 49090.89600000002,
      "d": 1897.726766666674,
      "v": 89
    },
    {
      "midi": 64,
      "hit": false,
      "t": 50113.62300000003,
      "d": 82.38634166666452,
      "v": 107
    },
    {
      "midi": 77,
      "hit": false,
      "t": 50454.53200000001,
      "d": 71.02270833333023,
      "v": 103
    },
    {
      "midi": 76,
      "hit": false,
      "t": 50795.441000000006,
      "d": 71.02270833333023,
      "v": 103
    },
    {
      "midi": 67,
      "hit": false,
      "t": 50795.44100000003,
      "d": 73.86361666666926,
      "v": 107
    },
    {
      "midi": 74,
      "hit": false,
      "t": 51136.350000000006,
      "d": 88.0681583333353,
      "v": 103
    },
    {
      "midi": 72,
      "hit": false,
      "t": 51477.259000000005,
      "d": 113.63633333333564,
      "v": 103
    },
    {
      "midi": 74,
      "hit": false,
      "t": 51818.168000000005,
      "d": 2255.681216666664,
      "v": 103
    },
    {
      "midi": 52,
      "hit": false,
      "t": 51818.168000000034,
      "d": 1508.522324999998,
      "v": 87
    },
    {
      "midi": 62,
      "hit": false,
      "t": 51818.168000000034,
      "d": 1832.3858749999927,
      "v": 91
    },
    {
      "midi": 55,
      "hit": false,
      "t": 51818.168000000034,
      "d": 1855.1131416666612,
      "v": 78
    },
    {
      "midi": 59,
      "hit": false,
      "t": 51818.168000000034,
      "d": 1857.954049999993,
      "v": 91
    },
    {
      "midi": 52,
      "hit": false,
      "t": 53522.71300000003,
      "d": 96.59088333333057,
      "v": 85
    },
    {
      "midi": 59,
      "hit": false,
      "t": 53863.622000000025,
      "d": 124.99996666666993,
      "v": 100
    },
    {
      "midi": 62,
      "hit": false,
      "t": 53863.622000000025,
      "d": 130.68178333333344,
      "v": 100
    },
    {
      "midi": 55,
      "hit": false,
      "t": 53863.622000000025,
      "d": 136.36359999999695,
      "v": 89
    },
    {
      "midi": 65,
      "hit": false,
      "t": 54545.439999999995,
      "d": 2019.8858249999976,
      "v": 103
    },
    {
      "midi": 69,
      "hit": false,
      "t": 54545.439999999995,
      "d": 2062.4994499999957,
      "v": 103
    },
    {
      "midi": 43,
      "hit": false,
      "t": 54545.440000000024,
      "d": 2099.4312583333376,
      "v": 85
    },
    {
      "midi": 53,
      "hit": false,
      "t": 54545.440000000024,
      "d": 2130.6812500000015,
      "v": 87
    },
    {
      "midi": 57,
      "hit": false,
      "t": 54545.440000000024,
      "d": 2133.522158333333,
      "v": 100
    },
    {
      "midi": 60,
      "hit": false,
      "t": 54545.440000000024,
      "d": 2153.40851666667,
      "v": 93
    },
    {
      "midi": 67,
      "hit": false,
      "t": 56590.89399999999,
      "d": 511.3634999999995,
      "v": 103
    },
    {
      "midi": 48,
      "hit": false,
      "t": 57272.71200000002,
      "d": 1781.2495249999993,
      "v": 68
    },
    {
      "midi": 52,
      "hit": false,
      "t": 57272.71200000002,
      "d": 1789.7722500000018,
      "v": 64
    },
    {
      "midi": 55,
      "hit": false,
      "t": 57272.71200000002,
      "d": 1812.4995166666704,
      "v": 60
    },
    {
      "midi": 60,
      "hit": false,
      "t": 57272.71200000002,
      "d": 1909.090400000001,
      "v": 74
    },
    {
      "midi": 64,
      "hit": false,
      "t": 57272.71200000002,
      "d": 1909.090400000001,
      "v": 89
    },
    {
      "midi": 62,
      "hit": false,
      "t": 59999.984000000026,
      "d": 866.4770416666724,
      "v": 87
    },
    {
      "midi": 57,
      "hit": false,
      "t": 59999.984000000026,
      "d": 2386.363000000005,
      "v": 70
    },
    {
      "midi": 50,
      "hit": false,
      "t": 59999.984000000026,
      "d": 2392.0448166666683,
      "v": 72
    },
    {
      "midi": 53,
      "hit": false,
      "t": 59999.984000000026,
      "d": 2394.885725,
      "v": 63
    },
    {
      "midi": 60,
      "hit": false,
      "t": 61022.71100000003,
      "d": 1019.8860916666672,
      "v": 87
    },
    {
      "midi": 64,
      "hit": false,
      "t": 61022.71100000003,
      "d": 1065.340624999997,
      "v": 91
    },
    {
      "midi": 55,
      "hit": false,
      "t": 62727.25600000002,
      "d": 767.0452500000029,
      "v": 80
    },
    {
      "midi": 60,
      "hit": false,
      "t": 62727.25600000002,
      "d": 1258.5223916666728,
      "v": 72
    },
    {
      "midi": 64,
      "hit": false,
      "t": 62727.25600000002,
      "d": 1272.7269333333388,
      "v": 87
    },
    {
      "midi": 52,
      "hit": false,
      "t": 62727.25600000002,
      "d": 1696.022275000003,
      "v": 61
    },
    {
      "midi": 48,
      "hit": false,
      "t": 62727.25600000002,
      "d": 1698.8631833333347,
      "v": 78
    },
    {
      "midi": 74,
      "hit": false,
      "t": 63409.07399999999,
      "d": 1321.0223749999932,
      "v": 103
    },
    {
      "midi": 55,
      "hit": false,
      "t": 63749.98300000003,
      "d": 275.56810833333293,
      "v": 70
    },
    {
      "midi": 67,
      "hit": false,
      "t": 64090.89200000003,
      "d": 301.13628333333327,
      "v": 74
    },
    {
      "midi": 72,
      "hit": false,
      "t": 64772.709999999985,
      "d": 440.34079166666925,
      "v": 103
    },
    {
      "midi": 84,
      "hit": false,
      "t": 65454.527999999984,
      "d": 664.7725500000015,
      "v": 103
    },
    {
      "midi": 71,
      "hit": false,
      "t": 65454.52800000002,
      "d": 241.47720833333733,
      "v": 98
    },
    {
      "midi": 67,
      "hit": false,
      "t": 65454.52800000002,
      "d": 275.56810833333293,
      "v": 89
    },
    {
      "midi": 81,
      "hit": false,
      "t": 66136.34599999999,
      "d": 338.0680916666606,
      "v": 103
    },
    {
      "midi": 69,
      "hit": false,
      "t": 66136.34600000002,
      "d": 349.4317250000022,
      "v": 89
    },
    {
      "midi": 65,
      "hit": false,
      "t": 66136.34600000002,
      "d": 394.88625833333936,
      "v": 78
    },
    {
      "midi": 79,
      "hit": false,
      "t": 66818.16399999999,
      "d": 79.54543333333277,
      "v": 103
    },
    {
      "midi": 67,
      "hit": false,
      "t": 66818.16400000003,
      "d": 289.772649999999,
      "v": 80
    },
    {
      "midi": 64,
      "hit": false,
      "t": 66818.16400000003,
      "d": 363.63626666666823,
      "v": 76
    },
    {
      "midi": 76,
      "hit": false,
      "t": 67159.07299999999,
      "d": 116.4772416666674,
      "v": 103
    },
    {
      "midi": 74,
      "hit": false,
      "t": 67499.98199999999,
      "d": 610.7952916666545,
      "v": 103
    },
    {
      "midi": 62,
      "hit": false,
      "t": 67499.98200000003,
      "d": 400.56807500000286,
      "v": 70
    },
    {
      "midi": 65,
      "hit": false,
      "t": 67499.98200000003,
      "d": 403.4089833333419,
      "v": 78
    },
    {
      "midi": 74,
      "hit": false,
      "t": 68181.79999999997,
      "d": 1999.9994666666753,
      "v": 103
    },
    {
      "midi": 55,
      "hit": false,
      "t": 68181.80000000005,
      "d": 161.93177499999,
      "v": 63
    },
    {
      "midi": 59,
      "hit": false,
      "t": 68181.80000000005,
      "d": 161.93177499999,
      "v": 82
    },
    {
      "midi": 64,
      "hit": false,
      "t": 68181.80000000005,
      "d": 178.9772249999951,
      "v": 82
    },
    {
      "midi": 48,
      "hit": false,
      "t": 68181.80000000005,
      "d": 2394.885725,
      "v": 72
    },
    {
      "midi": 55,
      "hit": false,
      "t": 68522.70900000005,
      "d": 93.74997499999881,
      "v": 60
    },
    {
      "midi": 60,
      "hit": false,
      "t": 68522.70900000005,
      "d": 113.63633333332837,
      "v": 78
    },
    {
      "midi": 64,
      "hit": false,
      "t": 68522.70900000005,
      "d": 124.99996666665538,
      "v": 82
    },
    {
      "midi": 60,
      "hit": false,
      "t": 69204.52700000005,
      "d": 1264.2042083333363,
      "v": 60
    },
    {
      "midi": 55,
      "hit": false,
      "t": 69204.52700000005,
      "d": 1329.545100000003,
      "v": 57
    },
    {
      "midi": 64,
      "hit": false,
      "t": 69204.52700000005,
      "d": 1340.90873333333,
      "v": 53
    },
    {
      "midi": 55,
      "hit": false,
      "t": 70909.07200000006,
      "d": 218.74994166666875,
      "v": 66
    },
    {
      "midi": 59,
      "hit": false,
      "t": 70909.07200000006,
      "d": 238.6362999999983,
      "v": 70
    },
    {
      "midi": 64,
      "hit": false,
      "t": 70909.07200000006,
      "d": 244.3181166666618,
      "v": 68
    },
    {
      "midi": 48,
      "hit": false,
      "t": 70909.07200000006,
      "d": 249.99993333332532,
      "v": 70
    },
    {
      "midi": 64,
      "hit": false,
      "t": 71249.98100000004,
      "d": 491.47714166666265,
      "v": 89
    },
    {
      "midi": 60,
      "hit": false,
      "t": 71249.98100000004,
      "d": 511.3634999999922,
      "v": 91
    },
    {
      "midi": 55,
      "hit": false,
      "t": 71249.98100000004,
      "d": 519.8862249999947,
      "v": 72
    },
    {
      "midi": 48,
      "hit": false,
      "t": 71249.98100000004,
      "d": 528.4089499999973,
      "v": 68
    },
    {
      "midi": 48,
      "hit": false,
      "t": 71931.79900000004,
      "d": 607.95438333333,
      "v": 74
    },
    {
      "midi": 60,
      "hit": false,
      "t": 71931.79900000004,
      "d": 855.1134083333309,
      "v": 72
    },
    {
      "midi": 64,
      "hit": false,
      "t": 71931.79900000004,
      "d": 906.2497583333316,
      "v": 70
    },
    {
      "midi": 55,
      "hit": false,
      "t": 71931.79900000004,
      "d": 917.6133916666586,
      "v": 63
    },
    {
      "midi": 55,
      "hit": false,
      "t": 73636.34400000004,
      "d": 181.81813333333412,
      "v": 80
    },
    {
      "midi": 59,
      "hit": false,
      "t": 73636.34400000004,
      "d": 207.38630833332718,
      "v": 87
    },
    {
      "midi": 50,
      "hit": false,
      "t": 73636.34400000004,
      "d": 213.0681249999907,
      "v": 74
    },
    {
      "midi": 53,
      "hit": false,
      "t": 73636.34400000004,
      "d": 213.0681249999907,
      "v": 61
    },
    {
      "midi": 64,
      "hit": false,
      "t": 73636.34400000004,
      "d": 224.4317583333177,
      "v": 85
    },
    {
      "midi": 50,
      "hit": false,
      "t": 73977.25300000003,
      "d": 488.6362333333236,
      "v": 76
    },
    {
      "midi": 60,
      "hit": false,
      "t": 73977.25300000003,
      "d": 499.99986666665063,
      "v": 82
    },
    {
      "midi": 64,
      "hit": false,
      "t": 73977.25300000003,
      "d": 534.0907666666462,
      "v": 82
    },
    {
      "midi": 57,
      "hit": false,
      "t": 73977.25300000003,
      "d": 542.6134916666488,
      "v": 76
    },
    {
      "midi": 50,
      "hit": false,
      "t": 74659.07100000001,
      "d": 1190.340591666667,
      "v": 60
    },
    {
      "midi": 60,
      "hit": false,
      "t": 74659.07100000001,
      "d": 1269.8860249999998,
      "v": 66
    },
    {
      "midi": 64,
      "hit": false,
      "t": 74659.07100000001,
      "d": 1278.4087500000023,
      "v": 63
    },
    {
      "midi": 57,
      "hit": false,
      "t": 74659.07100000001,
      "d": 1321.0223750000005,
      "v": 63
    },
    {
      "midi": 55,
      "hit": false,
      "t": 76363.61600000001,
      "d": 244.31811666667636,
      "v": 82
    },
    {
      "midi": 59,
      "hit": false,
      "t": 76363.61600000001,
      "d": 255.68175000000338,
      "v": 85
    },
    {
      "midi": 50,
      "hit": false,
      "t": 76363.61600000001,
      "d": 278.40901666667196,
      "v": 87
    },
    {
      "midi": 64,
      "hit": false,
      "t": 76363.61600000001,
      "d": 281.249925000011,
      "v": 89
    },
    {
      "midi": 50,
      "hit": false,
      "t": 76704.52500000002,
      "d": 474.43169166665757,
      "v": 76
    },
    {
      "midi": 60,
      "hit": false,
      "t": 76704.52500000002,
      "d": 508.52259166665317,
      "v": 82
    },
    {
      "midi": 64,
      "hit": false,
      "t": 76704.52500000002,
      "d": 514.2044083333167,
      "v": 87
    },
    {
      "midi": 57,
      "hit": false,
      "t": 76704.52500000002,
      "d": 525.5680416666437,
      "v": 70
    },
    {
      "midi": 60,
      "hit": false,
      "t": 77386.343,
      "d": 1374.9996333333256,
      "v": 82
    },
    {
      "midi": 50,
      "hit": false,
      "t": 77386.343,
      "d": 1380.6814499999891,
      "v": 64
    },
    {
      "midi": 57,
      "hit": false,
      "t": 77386.343,
      "d": 1389.2041749999917,
      "v": 72
    },
    {
      "midi": 64,
      "hit": false,
      "t": 77386.343,
      "d": 1400.5678083333187,
      "v": 85
    },
    {
      "midi": 55,
      "hit": false,
      "t": 79090.88799999998,
      "d": 161.93177499999,
      "v": 63
    },
    {
      "midi": 59,
      "hit": false,
      "t": 79090.88799999998,
      "d": 161.93177499999,
      "v": 82
    },
    {
      "midi": 64,
      "hit": false,
      "t": 79090.88799999998,
      "d": 178.9772249999951,
      "v": 82
    },
    {
      "midi": 48,
      "hit": false,
      "t": 79090.88799999998,
      "d": 2394.885725,
      "v": 72
    },
    {
      "midi": 69,
      "hit": false,
      "t": 79090.88799999999,
      "d": 19.886358333329554,
      "v": 103
    },
    {
      "midi": 60,
      "hit": false,
      "t": 79090.88799999999,
      "d": 3264.203674999997,
      "v": 103
    },
    {
      "midi": 55,
      "hit": false,
      "t": 79431.79699999998,
      "d": 93.74997499999881,
      "v": 60
    },
    {
      "midi": 60,
      "hit": false,
      "t": 79431.79699999998,
      "d": 113.63633333332837,
      "v": 78
    },
    {
      "midi": 64,
      "hit": false,
      "t": 79431.79699999998,
      "d": 124.99996666665538,
      "v": 82
    },
    {
      "midi": 60,
      "hit": false,
      "t": 80113.61499999998,
      "d": 1264.2042083333363,
      "v": 60
    },
    {
      "midi": 55,
      "hit": false,
      "t": 80113.61499999998,
      "d": 1329.545100000003,
      "v": 57
    },
    {
      "midi": 64,
      "hit": false,
      "t": 80113.61499999998,
      "d": 1340.90873333333,
      "v": 53
    },
    {
      "midi": 55,
      "hit": false,
      "t": 81818.15999999999,
      "d": 218.74994166666875,
      "v": 66
    },
    {
      "midi": 59,
      "hit": false,
      "t": 81818.15999999999,
      "d": 238.6362999999983,
      "v": 70
    },
    {
      "midi": 64,
      "hit": false,
      "t": 81818.15999999999,
      "d": 244.3181166666618,
      "v": 68
    },
    {
      "midi": 48,
      "hit": false,
      "t": 81818.15999999999,
      "d": 249.99993333332532,
      "v": 70
    },
    {
      "midi": 64,
      "hit": false,
      "t": 82159.06899999997,
      "d": 491.47714166666265,
      "v": 89
    },
    {
      "midi": 60,
      "hit": false,
      "t": 82159.06899999997,
      "d": 511.3634999999922,
      "v": 91
    },
    {
      "midi": 55,
      "hit": false,
      "t": 82159.06899999997,
      "d": 519.8862249999947,
      "v": 72
    },
    {
      "midi": 48,
      "hit": false,
      "t": 82159.06899999997,
      "d": 528.4089499999973,
      "v": 68
    },
    {
      "midi": 48,
      "hit": false,
      "t": 82840.88699999997,
      "d": 607.95438333333,
      "v": 74
    },
    {
      "midi": 60,
      "hit": false,
      "t": 82840.88699999997,
      "d": 855.1134083333309,
      "v": 72
    },
    {
      "midi": 64,
      "hit": false,
      "t": 82840.88699999997,
      "d": 906.2497583333316,
      "v": 70
    },
    {
      "midi": 55,
      "hit": false,
      "t": 82840.88699999997,
      "d": 917.6133916666586,
      "v": 63
    },
    {
      "midi": 55,
      "hit": false,
      "t": 84545.43199999997,
      "d": 181.81813333333412,
      "v": 80
    },
    {
      "midi": 59,
      "hit": false,
      "t": 84545.43199999997,
      "d": 207.38630833332718,
      "v": 87
    },
    {
      "midi": 50,
      "hit": false,
      "t": 84545.43199999997,
      "d": 213.0681249999907,
      "v": 74
    },
    {
      "midi": 53,
      "hit": false,
      "t": 84545.43199999997,
      "d": 213.0681249999907,
      "v": 61
    },
    {
      "midi": 64,
      "hit": false,
      "t": 84545.43199999997,
      "d": 224.4317583333177,
      "v": 85
    },
    {
      "midi": 50,
      "hit": false,
      "t": 84886.34099999996,
      "d": 488.6362333333236,
      "v": 76
    },
    {
      "midi": 60,
      "hit": false,
      "t": 84886.34099999996,
      "d": 499.99986666665063,
      "v": 82
    },
    {
      "midi": 64,
      "hit": false,
      "t": 84886.34099999996,
      "d": 534.0907666666462,
      "v": 82
    },
    {
      "midi": 57,
      "hit": false,
      "t": 84886.34099999996,
      "d": 542.6134916666488,
      "v": 76
    },
    {
      "midi": 50,
      "hit": false,
      "t": 85568.15899999994,
      "d": 1190.340591666667,
      "v": 60
    },
    {
      "midi": 60,
      "hit": false,
      "t": 85568.15899999994,
      "d": 1269.8860249999998,
      "v": 66
    },
    {
      "midi": 64,
      "hit": false,
      "t": 85568.15899999994,
      "d": 1278.4087500000023,
      "v": 63
    },
    {
      "midi": 57,
      "hit": false,
      "t": 85568.15899999994,
      "d": 1321.0223750000005,
      "v": 63
    },
    {
      "midi": 55,
      "hit": false,
      "t": 87272.70399999994,
      "d": 244.31811666667636,
      "v": 82
    },
    {
      "midi": 59,
      "hit": false,
      "t": 87272.70399999994,
      "d": 255.68175000000338,
      "v": 85
    },
    {
      "midi": 50,
      "hit": false,
      "t": 87272.70399999994,
      "d": 278.40901666667196,
      "v": 87
    },
    {
      "midi": 64,
      "hit": false,
      "t": 87272.70399999994,
      "d": 281.249925000011,
      "v": 89
    },
    {
      "midi": 50,
      "hit": false,
      "t": 87613.61299999995,
      "d": 474.43169166665757,
      "v": 76
    },
    {
      "midi": 60,
      "hit": false,
      "t": 87613.61299999995,
      "d": 508.52259166665317,
      "v": 82
    },
    {
      "midi": 64,
      "hit": false,
      "t": 87613.61299999995,
      "d": 514.2044083333167,
      "v": 87
    },
    {
      "midi": 57,
      "hit": false,
      "t": 87613.61299999995,
      "d": 525.5680416666437,
      "v": 70
    },
    {
      "midi": 60,
      "hit": false,
      "t": 88295.43099999992,
      "d": 1374.9996333333256,
      "v": 82
    },
    {
      "midi": 50,
      "hit": false,
      "t": 88295.43099999992,
      "d": 1380.6814499999891,
      "v": 64
    },
    {
      "midi": 57,
      "hit": false,
      "t": 88295.43099999992,
      "d": 1389.2041749999917,
      "v": 72
    },
    {
      "midi": 64,
      "hit": false,
      "t": 88295.43099999992,
      "d": 1400.5678083333187,
      "v": 85
    },
    {
      "midi": 74,
      "hit": false,
      "t": 88636.33999999998,
      "d": 306.81810000000405,
      "v": 103
    },
    {
      "midi": 72,
      "hit": false,
      "t": 88977.24899999998,
      "d": 249.99993333333987,
      "v": 103
    },
    {
      "midi": 76,
      "hit": false,
      "t": 89318.15799999998,
      "d": 178.9772249999951,
      "v": 103
    },
    {
      "midi": 55,
      "hit": false,
      "t": 89999.97599999991,
      "d": 1502.8405083333346,
      "v": 91
    },
    {
      "midi": 59,
      "hit": false,
      "t": 89999.97599999991,
      "d": 1755.681349999999,
      "v": 91
    },
    {
      "midi": 62,
      "hit": false,
      "t": 89999.97599999991,
      "d": 1803.9767916666606,
      "v": 98
    },
    {
      "midi": 52,
      "hit": false,
      "t": 89999.97599999991,
      "d": 1906.249491666662,
      "v": 91
    },
    {
      "midi": 71,
      "hit": false,
      "t": 89999.97599999998,
      "d": 2096.5903499999986,
      "v": 103
    },
    {
      "midi": 74,
      "hit": false,
      "t": 89999.97599999998,
      "d": 2119.317616666667,
      "v": 103
    },
    {
      "midi": 67,
      "hit": false,
      "t": 89999.97599999998,
      "d": 2124.9994333333307,
      "v": 103
    },
    {
      "midi": 55,
      "hit": false,
      "t": 91704.5209999999,
      "d": 201.70449166666367,
      "v": 91
    },
    {
      "midi": 62,
      "hit": false,
      "t": 92045.4299999999,
      "d": 139.20450833333598,
      "v": 105
    },
    {
      "midi": 59,
      "hit": false,
      "t": 92045.4299999999,
      "d": 150.568141666663,
      "v": 100
    },
    {
      "midi": 53,
      "hit": false,
      "t": 92727.2479999999,
      "d": 639.2043750000012,
      "v": 76
    },
    {
      "midi": 57,
      "hit": false,
      "t": 92727.2479999999,
      "d": 659.0907333333307,
      "v": 85
    },
    {
      "midi": 60,
      "hit": false,
      "t": 92727.2479999999,
      "d": 673.2952749999968,
      "v": 85
    },
    {
      "midi": 50,
      "hit": false,
      "t": 92727.2479999999,
      "d": 1897.726766666674,
      "v": 89
    },
    {
      "midi": 69,
      "hit": false,
      "t": 92727.24799999998,
      "d": 974.4315583333373,
      "v": 103
    },
    {
      "midi": 72,
      "hit": false,
      "t": 92727.24799999998,
      "d": 985.7951916666643,
      "v": 103
    },
    {
      "midi": 64,
      "hit": false,
      "t": 93749.9749999999,
      "d": 82.3863416666718,
      "v": 107
    },
    {
      "midi": 77,
      "hit": false,
      "t": 94090.88399999998,
      "d": 71.02270833333023,
      "v": 103
    },
    {
      "midi": 67,
      "hit": false,
      "t": 94431.7929999999,
      "d": 73.86361666666926,
      "v": 107
    },
    {
      "midi": 76,
      "hit": false,
      "t": 94431.79299999998,
      "d": 71.02270833333023,
      "v": 103
    },
    {
      "midi": 74,
      "hit": false,
      "t": 94772.70199999998,
      "d": 88.0681583333353,
      "v": 103
    },
    {
      "midi": 72,
      "hit": false,
      "t": 95113.61099999998,
      "d": 113.63633333334292,
      "v": 103
    },
    {
      "midi": 52,
      "hit": false,
      "t": 95454.5199999999,
      "d": 1508.522324999998,
      "v": 87
    },
    {
      "midi": 62,
      "hit": false,
      "t": 95454.5199999999,
      "d": 1832.3858750000072,
      "v": 91
    },
    {
      "midi": 55,
      "hit": false,
      "t": 95454.5199999999,
      "d": 1855.1131416666758,
      "v": 78
    },
    {
      "midi": 59,
      "hit": false,
      "t": 95454.5199999999,
      "d": 1857.9540500000148,
      "v": 91
    },
    {
      "midi": 74,
      "hit": false,
      "t": 95454.51999999997,
      "d": 2255.681216666664,
      "v": 103
    },
    {
      "midi": 52,
      "hit": false,
      "t": 97159.0649999999,
      "d": 96.59088333333784,
      "v": 85
    },
    {
      "midi": 59,
      "hit": false,
      "t": 97499.97399999991,
      "d": 124.99996666666993,
      "v": 100
    },
    {
      "midi": 62,
      "hit": false,
      "t": 97499.97399999991,
      "d": 130.68178333333344,
      "v": 100
    },
    {
      "midi": 55,
      "hit": false,
      "t": 97499.97399999991,
      "d": 136.36359999999695,
      "v": 89
    },
    {
      "midi": 64,
      "hit": false,
      "t": 98181.79199999991,
      "d": 911.9315750000096,
      "v": 102
    },
    {
      "midi": 60,
      "hit": false,
      "t": 98181.79199999991,
      "d": 931.8179333333392,
      "v": 98
    },
    {
      "midi": 57,
      "hit": false,
      "t": 98181.79199999991,
      "d": 2463.067525000006,
      "v": 87
    },
    {
      "midi": 53,
      "hit": false,
      "t": 98181.79199999991,
      "d": 2477.272066666672,
      "v": 82
    },
    {
      "midi": 50,
      "hit": false,
      "t": 98181.79199999991,
      "d": 2480.112975000011,
      "v": 95
    },
    {
      "midi": 76,
      "hit": false,
      "t": 98863.60999999999,
      "d": 261.3635666666669,
      "v": 103
    },
    {
      "midi": 62,
      "hit": false,
      "t": 99204.51899999993,
      "d": 332.3862749999971,
      "v": 107
    },
    {
      "midi": 77,
      "hit": false,
      "t": 99204.51899999999,
      "d": 343.7499083333387,
      "v": 103
    },
    {
      "midi": 60,
      "hit": false,
      "t": 99545.42799999993,
      "d": 1071.0224416666606,
      "v": 98
    },
    {
      "midi": 76,
      "hit": false,
      "t": 99545.42799999999,
      "d": 306.81810000000405,
      "v": 103
    },
    {
      "midi": 72,
      "hit": false,
      "t": 99886.337,
      "d": 644.8861916666647,
      "v": 103
    },
    {
      "midi": 69,
      "hit": false,
      "t": 100568.155,
      "d": 275.56810833333293,
      "v": 103
    },
    {
      "midi": 43,
      "hit": false,
      "t": 100909.06399999993,
      "d": 2099.4312583333376,
      "v": 85
    },
    {
      "midi": 53,
      "hit": false,
      "t": 100909.06399999993,
      "d": 2130.6812500000087,
      "v": 87
    },
    {
      "midi": 57,
      "hit": false,
      "t": 100909.06399999993,
      "d": 2133.5221583333478,
      "v": 100
    },
    {
      "midi": 60,
      "hit": false,
      "t": 100909.06399999993,
      "d": 2153.4085166666773,
      "v": 93
    },
    {
      "midi": 65,
      "hit": false,
      "t": 100909.064,
      "d": 2019.8858250000048,
      "v": 103
    },
    {
      "midi": 69,
      "hit": false,
      "t": 100909.064,
      "d": 2062.499450000003,
      "v": 103
    },
    {
      "midi": 67,
      "hit": false,
      "t": 102954.518,
      "d": 511.36350000000675,
      "v": 103
    },
    {
      "midi": 48,
      "hit": false,
      "t": 103636.33599999994,
      "d": 1781.249524999992,
      "v": 68
    },
    {
      "midi": 52,
      "hit": false,
      "t": 103636.33599999994,
      "d": 1789.7722499999945,
      "v": 64
    },
    {
      "midi": 55,
      "hit": false,
      "t": 103636.33599999994,
      "d": 1812.499516666663,
      "v": 60
    },
    {
      "midi": 60,
      "hit": false,
      "t": 103636.33599999994,
      "d": 1909.090400000001,
      "v": 74
    },
    {
      "midi": 64,
      "hit": false,
      "t": 103636.33599999994,
      "d": 1909.090400000001,
      "v": 89
    },
    {
      "midi": 62,
      "hit": false,
      "t": 106363.60799999993,
      "d": 866.4770416666579,
      "v": 87
    },
    {
      "midi": 57,
      "hit": false,
      "t": 106363.60799999993,
      "d": 2386.3629999999976,
      "v": 70
    },
    {
      "midi": 50,
      "hit": false,
      "t": 106363.60799999993,
      "d": 2392.044816666661,
      "v": 72
    },
    {
      "midi": 53,
      "hit": false,
      "t": 106363.60799999993,
      "d": 2394.885725,
      "v": 63
    },
    {
      "midi": 60,
      "hit": false,
      "t": 107386.33499999992,
      "d": 1019.8860916666745,
      "v": 87
    },
    {
      "midi": 64,
      "hit": false,
      "t": 107386.33499999992,
      "d": 1065.3406250000116,
      "v": 91
    },
    {
      "midi": 55,
      "hit": false,
      "t": 109090.87999999993,
      "d": 767.0452499999956,
      "v": 80
    },
    {
      "midi": 60,
      "hit": false,
      "t": 109090.87999999993,
      "d": 1258.5223916666728,
      "v": 72
    },
    {
      "midi": 64,
      "hit": false,
      "t": 109090.87999999993,
      "d": 1272.7269333333388,
      "v": 87
    },
    {
      "midi": 52,
      "hit": false,
      "t": 109090.87999999993,
      "d": 1696.0222750000103,
      "v": 61
    },
    {
      "midi": 48,
      "hit": false,
      "t": 109090.87999999993,
      "d": 1698.8631833333493,
      "v": 78
    },
    {
      "midi": 79,
      "hit": false,
      "t": 109772.698,
      "d": 536.9316749999998,
      "v": 103
    },
    {
      "midi": 55,
      "hit": false,
      "t": 110113.60699999993,
      "d": 275.56810833333293,
      "v": 70
    },
    {
      "midi": 67,
      "hit": false,
      "t": 110454.51599999993,
      "d": 301.13628333334054,
      "v": 74
    },
    {
      "midi": 79,
      "hit": false,
      "t": 110454.516,
      "d": 1329.5450999999885,
      "v": 103
    },
    {
      "midi": 71,
      "hit": false,
      "t": 111818.15199999994,
      "d": 241.47720833333733,
      "v": 98
    },
    {
      "midi": 67,
      "hit": false,
      "t": 111818.15199999994,
      "d": 275.56810833333293,
      "v": 89
    },
    {
      "midi": 84,
      "hit": false,
      "t": 111818.15199999999,
      "d": 352.27263333332667,
      "v": 103
    },
    {
      "midi": 83,
      "hit": false,
      "t": 112159.06099999999,
      "d": 321.02264166665555,
      "v": 103
    },
    {
      "midi": 69,
      "hit": false,
      "t": 112499.96999999994,
      "d": 349.4317250000022,
      "v": 89
    },
    {
      "midi": 65,
      "hit": false,
      "t": 112499.96999999994,
      "d": 394.88625833333936,
      "v": 78
    },
    {
      "midi": 81,
      "hit": false,
      "t": 112499.96999999997,
      "d": 340.90899999999965,
      "v": 103
    },
    {
      "midi": 79,
      "hit": false,
      "t": 112840.87899999997,
      "d": 326.7044583333336,
      "v": 103
    },
    {
      "midi": 67,
      "hit": false,
      "t": 113181.78799999996,
      "d": 289.772649999999,
      "v": 80
    },
    {
      "midi": 64,
      "hit": false,
      "t": 113181.78799999996,
      "d": 363.63626666666823,
      "v": 76
    },
    {
      "midi": 77,
      "hit": false,
      "t": 113181.78799999997,
      "d": 1071.0224416666606,
      "v": 103
    },
    {
      "midi": 62,
      "hit": false,
      "t": 113863.60599999996,
      "d": 400.56807500000286,
      "v": 70
    },
    {
      "midi": 65,
      "hit": false,
      "t": 113863.60599999996,
      "d": 403.4089833333419,
      "v": 78
    },
    {
      "midi": 55,
      "hit": false,
      "t": 114545.42399999997,
      "d": 161.93177499999,
      "v": 63
    },
    {
      "midi": 59,
      "hit": false,
      "t": 114545.42399999997,
      "d": 161.93177499999,
      "v": 82
    },
    {
      "midi": 64,
      "hit": false,
      "t": 114545.42399999997,
      "d": 178.9772249999951,
      "v": 82
    },
    {
      "midi": 48,
      "hit": false,
      "t": 114545.42399999997,
      "d": 2394.885725,
      "v": 72
    },
    {
      "midi": 72,
      "hit": false,
      "t": 114545.42399999997,
      "d": 4301.135216666662,
      "v": 103
    },
    {
      "midi": 76,
      "hit": false,
      "t": 114545.42399999997,
      "d": 4482.953349999996,
      "v": 103
    },
    {
      "midi": 55,
      "hit": false,
      "t": 114886.33299999997,
      "d": 93.74997499999881,
      "v": 60
    },
    {
      "midi": 60,
      "hit": false,
      "t": 114886.33299999997,
      "d": 113.63633333332837,
      "v": 78
    },
    {
      "midi": 64,
      "hit": false,
      "t": 114886.33299999997,
      "d": 124.99996666665538,
      "v": 82
    },
    {
      "midi": 60,
      "hit": false,
      "t": 115568.15099999997,
      "d": 1264.2042083333363,
      "v": 60
    },
    {
      "midi": 55,
      "hit": false,
      "t": 115568.15099999997,
      "d": 1329.545100000003,
      "v": 57
    },
    {
      "midi": 64,
      "hit": false,
      "t": 115568.15099999997,
      "d": 1340.90873333333,
      "v": 53
    },
    {
      "midi": 55,
      "hit": false,
      "t": 117272.69599999998,
      "d": 218.74994166666875,
      "v": 66
    },
    {
      "midi": 59,
      "hit": false,
      "t": 117272.69599999998,
      "d": 238.6362999999983,
      "v": 70
    },
    {
      "midi": 64,
      "hit": false,
      "t": 117272.69599999998,
      "d": 244.3181166666618,
      "v": 68
    },
    {
      "midi": 48,
      "hit": false,
      "t": 117272.69599999998,
      "d": 249.99993333332532,
      "v": 70
    },
    {
      "midi": 64,
      "hit": false,
      "t": 117613.60499999997,
      "d": 491.47714166666265,
      "v": 89
    },
    {
      "midi": 60,
      "hit": false,
      "t": 117613.60499999997,
      "d": 511.3634999999922,
      "v": 91
    },
    {
      "midi": 55,
      "hit": false,
      "t": 117613.60499999997,
      "d": 519.8862249999947,
      "v": 72
    },
    {
      "midi": 48,
      "hit": false,
      "t": 117613.60499999997,
      "d": 528.4089499999973,
      "v": 68
    },
    {
      "midi": 48,
      "hit": false,
      "t": 118295.42299999997,
      "d": 607.95438333333,
      "v": 74
    },
    {
      "midi": 60,
      "hit": false,
      "t": 118295.42299999997,
      "d": 855.1134083333309,
      "v": 72
    },
    {
      "midi": 64,
      "hit": false,
      "t": 118295.42299999997,
      "d": 906.2497583333316,
      "v": 70
    },
    {
      "midi": 55,
      "hit": false,
      "t": 118295.42299999997,
      "d": 917.6133916666586,
      "v": 63
    },
    {
      "midi": 76,
      "hit": false,
      "t": 119318.14999999997,
      "d": 738.6361666666635,
      "v": 103
    },
    {
      "midi": 55,
      "hit": false,
      "t": 119999.96799999996,
      "d": 181.81813333333412,
      "v": 80
    },
    {
      "midi": 59,
      "hit": false,
      "t": 119999.96799999996,
      "d": 207.38630833332718,
      "v": 87
    },
    {
      "midi": 50,
      "hit": false,
      "t": 119999.96799999996,
      "d": 213.0681249999907,
      "v": 74
    },
    {
      "midi": 53,
      "hit": false,
      "t": 119999.96799999996,
      "d": 213.0681249999907,
      "v": 61
    },
    {
      "midi": 64,
      "hit": false,
      "t": 119999.96799999996,
      "d": 224.4317583333177,
      "v": 85
    },
    {
      "midi": 77,
      "hit": false,
      "t": 119999.96799999996,
      "d": 3451.7036249999946,
      "v": 103
    },
    {
      "midi": 50,
      "hit": false,
      "t": 120340.87699999995,
      "d": 488.6362333333236,
      "v": 76
    },
    {
      "midi": 60,
      "hit": false,
      "t": 120340.87699999995,
      "d": 499.99986666665063,
      "v": 82
    },
    {
      "midi": 64,
      "hit": false,
      "t": 120340.87699999995,
      "d": 534.0907666666462,
      "v": 82
    },
    {
      "midi": 57,
      "hit": false,
      "t": 120340.87699999995,
      "d": 542.6134916666488,
      "v": 76
    },
    {
      "midi": 50,
      "hit": false,
      "t": 121022.69499999993,
      "d": 1190.340591666667,
      "v": 60
    },
    {
      "midi": 60,
      "hit": false,
      "t": 121022.69499999993,
      "d": 1269.8860249999998,
      "v": 66
    },
    {
      "midi": 64,
      "hit": false,
      "t": 121022.69499999993,
      "d": 1278.4087500000023,
      "v": 63
    },
    {
      "midi": 57,
      "hit": false,
      "t": 121022.69499999993,
      "d": 1321.0223750000005,
      "v": 63
    },
    {
      "midi": 55,
      "hit": false,
      "t": 122727.23999999993,
      "d": 244.31811666667636,
      "v": 82
    },
    {
      "midi": 59,
      "hit": false,
      "t": 122727.23999999993,
      "d": 255.68175000000338,
      "v": 85
    },
    {
      "midi": 50,
      "hit": false,
      "t": 122727.23999999993,
      "d": 278.40901666667196,
      "v": 87
    },
    {
      "midi": 64,
      "hit": false,
      "t": 122727.23999999993,
      "d": 281.249925000011,
      "v": 89
    },
    {
      "midi": 50,
      "hit": false,
      "t": 123068.14899999995,
      "d": 474.43169166665757,
      "v": 76
    },
    {
      "midi": 60,
      "hit": false,
      "t": 123068.14899999995,
      "d": 508.52259166665317,
      "v": 82
    },
    {
      "midi": 64,
      "hit": false,
      "t": 123068.14899999995,
      "d": 514.2044083333167,
      "v": 87
    },
    {
      "midi": 57,
      "hit": false,
      "t": 123068.14899999995,
      "d": 525.5680416666437,
      "v": 70
    },
    {
      "midi": 60,
      "hit": false,
      "t": 123749.96699999992,
      "d": 1374.9996333333256,
      "v": 82
    },
    {
      "midi": 50,
      "hit": false,
      "t": 123749.96699999992,
      "d": 1380.6814499999891,
      "v": 64
    },
    {
      "midi": 57,
      "hit": false,
      "t": 123749.96699999992,
      "d": 1389.2041749999917,
      "v": 72
    },
    {
      "midi": 64,
      "hit": false,
      "t": 123749.96699999992,
      "d": 1400.5678083333187,
      "v": 85
    },
    {
      "midi": 55,
      "hit": false,
      "t": 125454.5119999999,
      "d": 161.93177499999,
      "v": 63
    },
    {
      "midi": 59,
      "hit": false,
      "t": 125454.5119999999,
      "d": 161.93177499999,
      "v": 82
    },
    {
      "midi": 64,
      "hit": false,
      "t": 125454.5119999999,
      "d": 178.9772249999951,
      "v": 82
    },
    {
      "midi": 48,
      "hit": false,
      "t": 125454.5119999999,
      "d": 2394.885725,
      "v": 72
    },
    {
      "midi": 67,
      "hit": false,
      "t": 125454.51199999996,
      "d": 2764.203808333332,
      "v": 103
    },
    {
      "midi": 64,
      "hit": false,
      "t": 125454.51199999996,
      "d": 2784.0901666666614,
      "v": 103
    },
    {
      "midi": 71,
      "hit": false,
      "t": 125454.51199999996,
      "d": 2795.4537999999884,
      "v": 103
    },
    {
      "midi": 55,
      "hit": false,
      "t": 125795.4209999999,
      "d": 93.74997499999881,
      "v": 60
    },
    {
      "midi": 60,
      "hit": false,
      "t": 125795.4209999999,
      "d": 113.63633333332837,
      "v": 78
    },
    {
      "midi": 64,
      "hit": false,
      "t": 125795.4209999999,
      "d": 124.99996666665538,
      "v": 82
    },
    {
      "midi": 60,
      "hit": false,
      "t": 126477.2389999999,
      "d": 1264.2042083333363,
      "v": 60
    },
    {
      "midi": 55,
      "hit": false,
      "t": 126477.2389999999,
      "d": 1329.545100000003,
      "v": 57
    },
    {
      "midi": 64,
      "hit": false,
      "t": 126477.2389999999,
      "d": 1340.90873333333,
      "v": 53
    },
    {
      "midi": 55,
      "hit": false,
      "t": 128181.78399999991,
      "d": 218.74994166666875,
      "v": 66
    },
    {
      "midi": 59,
      "hit": false,
      "t": 128181.78399999991,
      "d": 238.6362999999983,
      "v": 70
    },
    {
      "midi": 64,
      "hit": false,
      "t": 128181.78399999991,
      "d": 244.3181166666618,
      "v": 68
    },
    {
      "midi": 48,
      "hit": false,
      "t": 128181.78399999991,
      "d": 249.99993333332532,
      "v": 70
    },
    {
      "midi": 64,
      "hit": false,
      "t": 128522.6929999999,
      "d": 491.47714166666265,
      "v": 89
    },
    {
      "midi": 60,
      "hit": false,
      "t": 128522.6929999999,
      "d": 511.3634999999922,
      "v": 91
    },
    {
      "midi": 55,
      "hit": false,
      "t": 128522.6929999999,
      "d": 519.8862249999947,
      "v": 72
    },
    {
      "midi": 48,
      "hit": false,
      "t": 128522.6929999999,
      "d": 528.4089499999973,
      "v": 68
    },
    {
      "midi": 71,
      "hit": false,
      "t": 128863.60199999996,
      "d": 343.7499083333387,
      "v": 103
    },
    {
      "midi": 48,
      "hit": false,
      "t": 129204.5109999999,
      "d": 607.95438333333,
      "v": 74
    },
    {
      "midi": 60,
      "hit": false,
      "t": 129204.5109999999,
      "d": 855.1134083333309,
      "v": 72
    },
    {
      "midi": 64,
      "hit": false,
      "t": 129204.5109999999,
      "d": 906.2497583333316,
      "v": 70
    },
    {
      "midi": 55,
      "hit": false,
      "t": 129204.5109999999,
      "d": 917.6133916666586,
      "v": 63
    },
    {
      "midi": 72,
      "hit": false,
      "t": 129204.51099999995,
      "d": 386.36353333335137,
      "v": 103
    },
    {
      "midi": 71,
      "hit": false,
      "t": 129545.41999999997,
      "d": 292.613558333338,
      "v": 103
    },
    {
      "midi": 67,
      "hit": false,
      "t": 129886.32899999997,
      "d": 377.8408083333343,
      "v": 103
    },
    {
      "midi": 64,
      "hit": false,
      "t": 130227.23799999997,
      "d": 576.7043916666735,
      "v": 103
    },
    {
      "midi": 55,
      "hit": false,
      "t": 130909.0559999999,
      "d": 181.81813333331957,
      "v": 80
    },
    {
      "midi": 59,
      "hit": false,
      "t": 130909.0559999999,
      "d": 207.38630833331263,
      "v": 87
    },
    {
      "midi": 50,
      "hit": false,
      "t": 130909.0559999999,
      "d": 213.0681249999907,
      "v": 74
    },
    {
      "midi": 53,
      "hit": false,
      "t": 130909.0559999999,
      "d": 213.0681249999907,
      "v": 61
    },
    {
      "midi": 64,
      "hit": false,
      "t": 130909.0559999999,
      "d": 224.4317583333177,
      "v": 85
    },
    {
      "midi": 64,
      "hit": false,
      "t": 130909.05599999998,
      "d": 2312.499383333343,
      "v": 103
    },
    {
      "midi": 50,
      "hit": false,
      "t": 131249.96499999988,
      "d": 488.6362333333527,
      "v": 76
    },
    {
      "midi": 60,
      "hit": false,
      "t": 131249.96499999988,
      "d": 499.99986666667974,
      "v": 82
    },
    {
      "midi": 64,
      "hit": false,
      "t": 131249.96499999988,
      "d": 534.0907666666899,
      "v": 82
    },
    {
      "midi": 57,
      "hit": false,
      "t": 131249.96499999988,
      "d": 542.6134916666779,
      "v": 76
    },
    {
      "midi": 50,
      "hit": false,
      "t": 131931.78299999988,
      "d": 1190.340591666667,
      "v": 60
    },
    {
      "midi": 60,
      "hit": false,
      "t": 131931.78299999988,
      "d": 1269.8860250000143,
      "v": 66
    },
    {
      "midi": 64,
      "hit": false,
      "t": 131931.78299999988,
      "d": 1278.4087500000023,
      "v": 63
    },
    {
      "midi": 57,
      "hit": false,
      "t": 131931.78299999988,
      "d": 1321.0223750000005,
      "v": 63
    },
    {
      "midi": 55,
      "hit": false,
      "t": 133636.3279999999,
      "d": 244.3181166666618,
      "v": 82
    },
    {
      "midi": 59,
      "hit": false,
      "t": 133636.3279999999,
      "d": 255.68174999998882,
      "v": 85
    },
    {
      "midi": 50,
      "hit": false,
      "t": 133636.3279999999,
      "d": 278.40901666664286,
      "v": 87
    },
    {
      "midi": 64,
      "hit": false,
      "t": 133636.3279999999,
      "d": 281.2499249999819,
      "v": 89
    },
    {
      "midi": 50,
      "hit": false,
      "t": 133977.23699999988,
      "d": 474.4316916666867,
      "v": 76
    },
    {
      "midi": 60,
      "hit": false,
      "t": 133977.23699999988,
      "d": 508.5225916666968,
      "v": 82
    },
    {
      "midi": 64,
      "hit": false,
      "t": 133977.23699999988,
      "d": 514.2044083333749,
      "v": 87
    },
    {
      "midi": 57,
      "hit": false,
      "t": 133977.23699999988,
      "d": 525.5680416667019,
      "v": 70
    },
    {
      "midi": 60,
      "hit": false,
      "t": 134659.0549999999,
      "d": 1374.9996333333256,
      "v": 82
    },
    {
      "midi": 50,
      "hit": false,
      "t": 134659.0549999999,
      "d": 1380.6814500000037,
      "v": 64
    },
    {
      "midi": 57,
      "hit": false,
      "t": 134659.0549999999,
      "d": 1389.2041749999917,
      "v": 72
    },
    {
      "midi": 64,
      "hit": false,
      "t": 134659.0549999999,
      "d": 1400.5678083333187,
      "v": 85
    },
    {
      "midi": 53,
      "hit": false,
      "t": 136363.5999999999,
      "d": 2122.158524999977,
      "v": 85
    },
    {
      "midi": 56,
      "hit": false,
      "t": 136363.5999999999,
      "d": 2130.681249999965,
      "v": 87
    },
    {
      "midi": 60,
      "hit": false,
      "t": 136363.5999999999,
      "d": 2142.044883333292,
      "v": 100
    },
    {
      "midi": 41,
      "hit": false,
      "t": 136363.5999999999,
      "d": 3855.112608333293,
      "v": 85
    },
    {
      "midi": 65,
      "hit": false,
      "t": 136363.6,
      "d": 3588.067225000006,
      "v": 103
    },
    {
      "midi": 68,
      "hit": false,
      "t": 136363.6,
      "d": 3619.3172166666773,
      "v": 103
    },
    {
      "midi": 72,
      "hit": false,
      "t": 136363.6,
      "d": 3642.0444833333313,
      "v": 103
    },
    {
      "midi": 68,
      "hit": false,
      "t": 139090.87199999986,
      "d": 107.95451666667941,
      "v": 82
    },
    {
      "midi": 65,
      "hit": false,
      "t": 139090.87199999986,
      "d": 116.4772416666674,
      "v": 68
    },
    {
      "midi": 72,
      "hit": false,
      "t": 140113.59900000002,
      "d": 1380.6814500000037,
      "v": 103
    },
    {
      "midi": 60,
      "hit": false,
      "t": 141818.14399999985,
      "d": 357.9544499999902,
      "v": 85
    },
    {
      "midi": 64,
      "hit": false,
      "t": 141818.14399999985,
      "d": 363.63626666666823,
      "v": 89
    },
    {
      "midi": 52,
      "hit": false,
      "t": 141818.14399999985,
      "d": 2477.2720666666573,
      "v": 59
    },
    {
      "midi": 48,
      "hit": false,
      "t": 141818.14399999985,
      "d": 2485.7947916666453,
      "v": 64
    },
    {
      "midi": 55,
      "hit": false,
      "t": 141818.14399999985,
      "d": 2485.7947916666453,
      "v": 62
    },
    {
      "midi": 71,
      "hit": false,
      "t": 142159.053,
      "d": 2079.544900000037,
      "v": 103
    },
    {
      "midi": 67,
      "hit": false,
      "t": 142499.96200000003,
      "d": 1732.954083333345,
      "v": 103
    },
    {
      "midi": 64,
      "hit": false,
      "t": 142840.87099999987,
      "d": 124.99996666665538,
      "v": 85
    },
    {
      "midi": 59,
      "hit": false,
      "t": 142840.87099999987,
      "d": 147.7272333333094,
      "v": 74
    },
    {
      "midi": 64,
      "hit": false,
      "t": 142840.87100000004,
      "d": 1360.7950916666596,
      "v": 103
    },
    {
      "midi": 64,
      "hit": false,
      "t": 144545.41599999982,
      "d": 153.40904999998747,
      "v": 66
    },
    {
      "midi": 52,
      "hit": false,
      "t": 144545.41599999982,
      "d": 161.93177499997546,
      "v": 58
    },
    {
      "midi": 60,
      "hit": false,
      "t": 144545.41599999982,
      "d": 161.93177499997546,
      "v": 61
    },
    {
      "midi": 48,
      "hit": false,
      "t": 144545.41599999982,
      "d": 164.7726833333145,
      "v": 61
    },
    {
      "midi": 67,
      "hit": false,
      "t": 144545.41599999982,
      "d": 176.1363166666415,
      "v": 82
    },
    {
      "midi": 55,
      "hit": false,
      "t": 144545.41599999982,
      "d": 184.6590416666295,
      "v": 52
    },
    {
      "midi": 67,
      "hit": false,
      "t": 144545.41600000003,
      "d": 2088.067624999967,
      "v": 103
    },
    {
      "midi": 64,
      "hit": false,
      "t": 145909.05200000003,
      "d": 715.9088999999803,
      "v": 103
    },
    {
      "midi": 53,
      "hit": false,
      "t": 147272.6879999998,
      "d": 2031.2494583333319,
      "v": 82
    },
    {
      "midi": 56,
      "hit": false,
      "t": 147272.6879999998,
      "d": 2031.2494583333319,
      "v": 89
    },
    {
      "midi": 60,
      "hit": false,
      "t": 147272.6879999998,
      "d": 2039.7721833333198,
      "v": 91
    },
    {
      "midi": 41,
      "hit": false,
      "t": 147272.6879999998,
      "d": 3573.862683333311,
      "v": 80
    },
    {
      "midi": 65,
      "hit": false,
      "t": 147272.688,
      "d": 1755.681349999999,
      "v": 103
    },
    {
      "midi": 68,
      "hit": false,
      "t": 147272.688,
      "d": 1809.658608333324,
      "v": 103
    },
    {
      "midi": 72,
      "hit": false,
      "t": 148977.233,
      "d": 170.45449999996345,
      "v": 103
    },
    {
      "midi": 60,
      "hit": false,
      "t": 149999.9599999998,
      "d": 105.11360833334038,
      "v": 98
    },
    {
      "midi": 65,
      "hit": false,
      "t": 149999.9599999998,
      "d": 127.84087499999441,
      "v": 95
    },
    {
      "midi": 77,
      "hit": false,
      "t": 149999.95999999996,
      "d": 105.11360833334038,
      "v": 103
    },
    {
      "midi": 57,
      "hit": false,
      "t": 152727.23199999979,
      "d": 1917.6131250000035,
      "v": 76
    },
    {
      "midi": 53,
      "hit": false,
      "t": 152727.23199999979,
      "d": 1920.4540333333425,
      "v": 68
    },
    {
      "midi": 50,
      "hit": false,
      "t": 152727.23199999979,
      "d": 1937.4994833333476,
      "v": 76
    },
    {
      "midi": 64,
      "hit": false,
      "t": 152727.23199999979,
      "d": 1977.2722000000067,
      "v": 91
    },
    {
      "midi": 60,
      "hit": false,
      "t": 152727.23199999979,
      "d": 1985.7949249999947,
      "v": 85
    },
    {
      "midi": 72,
      "hit": false,
      "t": 152727.23199999996,
      "d": 1338.0678250000055,
      "v": 103
    },
    {
      "midi": 71,
      "hit": false,
      "t": 154090.86799999996,
      "d": 1369.3178166666767,
      "v": 103
    },
    {
      "midi": 43,
      "hit": false,
      "t": 155454.50399999978,
      "d": 2428.9766250000102,
      "v": 78
    },
    {
      "midi": 55,
      "hit": false,
      "t": 155454.50399999978,
      "d": 2448.8629833333544,
      "v": 70
    },
    {
      "midi": 59,
      "hit": false,
      "t": 155454.50399999978,
      "d": 2477.2720666666864,
      "v": 78
    },
    {
      "midi": 67,
      "hit": false,
      "t": 155454.50399999996,
      "d": 2247.1584916666907,
      "v": 103
    },
    {
      "midi": 55,
      "hit": false,
      "t": 158181.7759999998,
      "d": 161.93177500000456,
      "v": 63
    },
    {
      "midi": 59,
      "hit": false,
      "t": 158181.7759999998,
      "d": 161.93177500000456,
      "v": 82
    },
    {
      "midi": 64,
      "hit": false,
      "t": 158181.7759999998,
      "d": 178.97722500000964,
      "v": 82
    },
    {
      "midi": 48,
      "hit": false,
      "t": 158181.7759999998,
      "d": 2394.885725000029,
      "v": 72
    },
    {
      "midi": 74,
      "hit": false,
      "t": 158181.77599999998,
      "d": 1999.9994666666607,
      "v": 103
    },
    {
      "midi": 55,
      "hit": false,
      "t": 158522.68499999982,
      "d": 93.74997500001336,
      "v": 60
    },
    {
      "midi": 60,
      "hit": false,
      "t": 158522.68499999982,
      "d": 113.63633333335747,
      "v": 78
    },
    {
      "midi": 64,
      "hit": false,
      "t": 158522.68499999982,
      "d": 124.99996666668449,
      "v": 82
    },
    {
      "midi": 60,
      "hit": false,
      "t": 159204.50299999985,
      "d": 1264.2042083333363,
      "v": 60
    },
    {
      "midi": 55,
      "hit": false,
      "t": 159204.50299999985,
      "d": 1329.5450999999885,
      "v": 57
    },
    {
      "midi": 64,
      "hit": false,
      "t": 159204.50299999985,
      "d": 1340.9087333333155,
      "v": 53
    },
    {
      "midi": 55,
      "hit": false,
      "t": 160909.04799999984,
      "d": 218.74994166666875,
      "v": 66
    },
    {
      "midi": 59,
      "hit": false,
      "t": 160909.04799999984,
      "d": 238.63630000001285,
      "v": 70
    },
    {
      "midi": 64,
      "hit": false,
      "t": 160909.04799999984,
      "d": 244.3181166666909,
      "v": 68
    },
    {
      "midi": 48,
      "hit": false,
      "t": 160909.04799999984,
      "d": 249.99993333336897,
      "v": 70
    },
    {
      "midi": 64,
      "hit": false,
      "t": 161249.95699999988,
      "d": 491.47714166666265,
      "v": 89
    },
    {
      "midi": 60,
      "hit": false,
      "t": 161249.95699999988,
      "d": 511.36350000000675,
      "v": 91
    },
    {
      "midi": 55,
      "hit": false,
      "t": 161249.95699999988,
      "d": 519.8862249999947,
      "v": 72
    },
    {
      "midi": 48,
      "hit": false,
      "t": 161249.95699999988,
      "d": 528.4089499999827,
      "v": 68
    },
    {
      "midi": 48,
      "hit": false,
      "t": 161931.77499999985,
      "d": 607.95438333333,
      "v": 74
    },
    {
      "midi": 60,
      "hit": false,
      "t": 161931.77499999985,
      "d": 855.1134083333309,
      "v": 72
    },
    {
      "midi": 64,
      "hit": false,
      "t": 161931.77499999985,
      "d": 906.249758333317,
      "v": 70
    },
    {
      "midi": 55,
      "hit": false,
      "t": 161931.77499999985,
      "d": 917.613391666644,
      "v": 63
    },
    {
      "midi": 55,
      "hit": false,
      "t": 163636.31999999983,
      "d": 181.81813333331957,
      "v": 80
    },
    {
      "midi": 59,
      "hit": false,
      "t": 163636.31999999983,
      "d": 207.38630833331263,
      "v": 87
    },
    {
      "midi": 50,
      "hit": false,
      "t": 163636.31999999983,
      "d": 213.0681249999907,
      "v": 74
    },
    {
      "midi": 53,
      "hit": false,
      "t": 163636.31999999983,
      "d": 213.0681249999907,
      "v": 61
    },
    {
      "midi": 64,
      "hit": false,
      "t": 163636.31999999983,
      "d": 224.4317583333177,
      "v": 85
    },
    {
      "midi": 50,
      "hit": false,
      "t": 163977.22899999982,
      "d": 488.6362333333527,
      "v": 76
    },
    {
      "midi": 60,
      "hit": false,
      "t": 163977.22899999982,
      "d": 499.99986666667974,
      "v": 82
    },
    {
      "midi": 64,
      "hit": false,
      "t": 163977.22899999982,
      "d": 534.0907666666899,
      "v": 82
    },
    {
      "midi": 57,
      "hit": false,
      "t": 163977.22899999982,
      "d": 542.6134916666779,
      "v": 76
    },
    {
      "midi": 50,
      "hit": false,
      "t": 164659.04699999982,
      "d": 1190.340591666667,
      "v": 60
    },
    {
      "midi": 60,
      "hit": false,
      "t": 164659.04699999982,
      "d": 1269.8860250000143,
      "v": 66
    },
    {
      "midi": 64,
      "hit": false,
      "t": 164659.04699999982,
      "d": 1278.4087500000023,
      "v": 63
    },
    {
      "midi": 57,
      "hit": false,
      "t": 164659.04699999982,
      "d": 1321.0223750000005,
      "v": 63
    },
    {
      "midi": 55,
      "hit": false,
      "t": 166363.59199999983,
      "d": 244.3181166666618,
      "v": 82
    },
    {
      "midi": 59,
      "hit": false,
      "t": 166363.59199999983,
      "d": 255.68174999998882,
      "v": 85
    },
    {
      "midi": 50,
      "hit": false,
      "t": 166363.59199999983,
      "d": 278.40901666664286,
      "v": 87
    },
    {
      "midi": 64,
      "hit": false,
      "t": 166363.59199999983,
      "d": 281.2499249999819,
      "v": 89
    },
    {
      "midi": 50,
      "hit": false,
      "t": 166704.50099999981,
      "d": 474.4316916666867,
      "v": 76
    },
    {
      "midi": 60,
      "hit": false,
      "t": 166704.50099999981,
      "d": 508.5225916666968,
      "v": 82
    },
    {
      "midi": 64,
      "hit": false,
      "t": 166704.50099999981,
      "d": 514.2044083333749,
      "v": 87
    },
    {
      "midi": 57,
      "hit": false,
      "t": 166704.50099999981,
      "d": 525.5680416667019,
      "v": 70
    },
    {
      "midi": 60,
      "hit": false,
      "t": 167386.31899999984,
      "d": 1374.9996333333256,
      "v": 82
    },
    {
      "midi": 50,
      "hit": false,
      "t": 167386.31899999984,
      "d": 1380.6814500000037,
      "v": 64
    },
    {
      "midi": 57,
      "hit": false,
      "t": 167386.31899999984,
      "d": 1389.2041749999917,
      "v": 72
    },
    {
      "midi": 64,
      "hit": false,
      "t": 167386.31899999984,
      "d": 1400.5678083333187,
      "v": 85
    },
    {
      "midi": 55,
      "hit": false,
      "t": 169090.86399999983,
      "d": 161.93177500000456,
      "v": 63
    },
    {
      "midi": 59,
      "hit": false,
      "t": 169090.86399999983,
      "d": 161.93177500000456,
      "v": 82
    },
    {
      "midi": 64,
      "hit": false,
      "t": 169090.86399999983,
      "d": 178.97722500000964,
      "v": 82
    },
    {
      "midi": 48,
      "hit": false,
      "t": 169090.86399999983,
      "d": 2394.885725000029,
      "v": 72
    },
    {
      "midi": 69,
      "hit": false,
      "t": 169090.86399999997,
      "d": 19.886358333344106,
      "v": 103
    },
    {
      "midi": 60,
      "hit": false,
      "t": 169090.86399999997,
      "d": 3264.203674999997,
      "v": 103
    },
    {
      "midi": 55,
      "hit": false,
      "t": 169431.77299999984,
      "d": 93.74997500001336,
      "v": 60
    },
    {
      "midi": 60,
      "hit": false,
      "t": 169431.77299999984,
      "d": 113.63633333335747,
      "v": 78
    },
    {
      "midi": 64,
      "hit": false,
      "t": 169431.77299999984,
      "d": 124.99996666668449,
      "v": 82
    },
    {
      "midi": 60,
      "hit": false,
      "t": 170113.59099999987,
      "d": 1264.2042083333363,
      "v": 60
    },
    {
      "midi": 55,
      "hit": false,
      "t": 170113.59099999987,
      "d": 1329.5450999999885,
      "v": 57
    },
    {
      "midi": 64,
      "hit": false,
      "t": 170113.59099999987,
      "d": 1340.9087333333155,
      "v": 53
    },
    {
      "midi": 55,
      "hit": false,
      "t": 171818.13599999985,
      "d": 218.74994166666875,
      "v": 66
    },
    {
      "midi": 59,
      "hit": false,
      "t": 171818.13599999985,
      "d": 238.63630000001285,
      "v": 70
    },
    {
      "midi": 64,
      "hit": false,
      "t": 171818.13599999985,
      "d": 244.3181166666909,
      "v": 68
    },
    {
      "midi": 48,
      "hit": false,
      "t": 171818.13599999985,
      "d": 249.99993333336897,
      "v": 70
    },
    {
      "midi": 64,
      "hit": false,
      "t": 172159.0449999999,
      "d": 491.47714166666265,
      "v": 89
    },
    {
      "midi": 60,
      "hit": false,
      "t": 172159.0449999999,
      "d": 511.36350000000675,
      "v": 91
    },
    {
      "midi": 55,
      "hit": false,
      "t": 172159.0449999999,
      "d": 519.8862249999947,
      "v": 72
    },
    {
      "midi": 48,
      "hit": false,
      "t": 172159.0449999999,
      "d": 528.4089499999827,
      "v": 68
    },
    {
      "midi": 48,
      "hit": false,
      "t": 172840.86299999987,
      "d": 607.95438333333,
      "v": 74
    },
    {
      "midi": 60,
      "hit": false,
      "t": 172840.86299999987,
      "d": 855.1134083333309,
      "v": 72
    },
    {
      "midi": 64,
      "hit": false,
      "t": 172840.86299999987,
      "d": 906.249758333317,
      "v": 70
    },
    {
      "midi": 55,
      "hit": false,
      "t": 172840.86299999987,
      "d": 917.613391666644,
      "v": 63
    },
    {
      "midi": 55,
      "hit": false,
      "t": 174545.40799999985,
      "d": 181.81813333331957,
      "v": 80
    },
    {
      "midi": 59,
      "hit": false,
      "t": 174545.40799999985,
      "d": 207.38630833331263,
      "v": 87
    },
    {
      "midi": 50,
      "hit": false,
      "t": 174545.40799999985,
      "d": 213.0681249999907,
      "v": 74
    },
    {
      "midi": 53,
      "hit": false,
      "t": 174545.40799999985,
      "d": 213.0681249999907,
      "v": 61
    },
    {
      "midi": 64,
      "hit": false,
      "t": 174545.40799999985,
      "d": 224.4317583333177,
      "v": 85
    },
    {
      "midi": 50,
      "hit": false,
      "t": 174886.31699999984,
      "d": 488.6362333333527,
      "v": 76
    },
    {
      "midi": 60,
      "hit": false,
      "t": 174886.31699999984,
      "d": 499.99986666667974,
      "v": 82
    },
    {
      "midi": 64,
      "hit": false,
      "t": 174886.31699999984,
      "d": 534.0907666666899,
      "v": 82
    },
    {
      "midi": 57,
      "hit": false,
      "t": 174886.31699999984,
      "d": 542.6134916666779,
      "v": 76
    },
    {
      "midi": 50,
      "hit": false,
      "t": 175568.13499999983,
      "d": 1190.340591666667,
      "v": 60
    },
    {
      "midi": 60,
      "hit": false,
      "t": 175568.13499999983,
      "d": 1269.8860250000143,
      "v": 66
    },
    {
      "midi": 64,
      "hit": false,
      "t": 175568.13499999983,
      "d": 1278.4087500000023,
      "v": 63
    },
    {
      "midi": 57,
      "hit": false,
      "t": 175568.13499999983,
      "d": 1321.0223750000005,
      "v": 63
    },
    {
      "midi": 55,
      "hit": false,
      "t": 177272.67999999985,
      "d": 244.3181166666618,
      "v": 82
    },
    {
      "midi": 59,
      "hit": false,
      "t": 177272.67999999985,
      "d": 255.68174999998882,
      "v": 85
    },
    {
      "midi": 50,
      "hit": false,
      "t": 177272.67999999985,
      "d": 278.40901666664286,
      "v": 87
    },
    {
      "midi": 64,
      "hit": false,
      "t": 177272.67999999985,
      "d": 281.2499249999819,
      "v": 89
    },
    {
      "midi": 50,
      "hit": false,
      "t": 177613.58899999983,
      "d": 474.4316916666867,
      "v": 76
    },
    {
      "midi": 60,
      "hit": false,
      "t": 177613.58899999983,
      "d": 508.5225916666968,
      "v": 82
    },
    {
      "midi": 64,
      "hit": false,
      "t": 177613.58899999983,
      "d": 514.2044083333749,
      "v": 87
    },
    {
      "midi": 57,
      "hit": false,
      "t": 177613.58899999983,
      "d": 525.5680416667019,
      "v": 70
    },
    {
      "midi": 60,
      "hit": false,
      "t": 178295.40699999986,
      "d": 1374.9996333333256,
      "v": 82
    },
    {
      "midi": 50,
      "hit": false,
      "t": 178295.40699999986,
      "d": 1380.6814500000037,
      "v": 64
    },
    {
      "midi": 57,
      "hit": false,
      "t": 178295.40699999986,
      "d": 1389.2041749999917,
      "v": 72
    },
    {
      "midi": 64,
      "hit": false,
      "t": 178295.40699999986,
      "d": 1400.5678083333187,
      "v": 85
    },
    {
      "midi": 74,
      "hit": false,
      "t": 178636.31599999996,
      "d": 306.81809999997495,
      "v": 103
    },
    {
      "midi": 72,
      "hit": false,
      "t": 178977.22499999995,
      "d": 249.99993333333987,
      "v": 103
    },
    {
      "midi": 76,
      "hit": false,
      "t": 179318.13399999996,
      "d": 178.97722500000964,
      "v": 103
    },
    {
      "midi": 55,
      "hit": false,
      "t": 179999.95199999984,
      "d": 1502.8405083333491,
      "v": 91
    },
    {
      "midi": 59,
      "hit": false,
      "t": 179999.95199999984,
      "d": 1755.681349999999,
      "v": 91
    },
    {
      "midi": 62,
      "hit": false,
      "t": 179999.95199999984,
      "d": 1803.9767916666751,
      "v": 98
    },
    {
      "midi": 52,
      "hit": false,
      "t": 179999.95199999984,
      "d": 1906.2494916666765,
      "v": 91
    },
    {
      "midi": 71,
      "hit": false,
      "t": 179999.95199999996,
      "d": 2096.590349999984,
      "v": 103
    },
    {
      "midi": 74,
      "hit": false,
      "t": 179999.95199999996,
      "d": 2119.317616666638,
      "v": 103
    },
    {
      "midi": 67,
      "hit": false,
      "t": 179999.95199999996,
      "d": 2124.999433333316,
      "v": 103
    },
    {
      "midi": 55,
      "hit": false,
      "t": 181704.49699999986,
      "d": 201.70449166666367,
      "v": 91
    },
    {
      "midi": 62,
      "hit": false,
      "t": 182045.40599999984,
      "d": 139.20450833332143,
      "v": 105
    },
    {
      "midi": 59,
      "hit": false,
      "t": 182045.40599999984,
      "d": 150.56814166664844,
      "v": 100
    },
    {
      "midi": 53,
      "hit": false,
      "t": 182727.2239999998,
      "d": 639.2043750000012,
      "v": 76
    },
    {
      "midi": 57,
      "hit": false,
      "t": 182727.2239999998,
      "d": 659.0907333333453,
      "v": 85
    },
    {
      "midi": 60,
      "hit": false,
      "t": 182727.2239999998,
      "d": 673.2952750000113,
      "v": 85
    },
    {
      "midi": 50,
      "hit": false,
      "t": 182727.2239999998,
      "d": 1897.7267666666885,
      "v": 89
    },
    {
      "midi": 69,
      "hit": false,
      "t": 182727.22399999993,
      "d": 974.4315583333373,
      "v": 103
    },
    {
      "midi": 72,
      "hit": false,
      "t": 182727.22399999993,
      "d": 985.7951916666643,
      "v": 103
    },
    {
      "midi": 64,
      "hit": false,
      "t": 183749.95099999983,
      "d": 82.38634166665724,
      "v": 107
    },
    {
      "midi": 77,
      "hit": false,
      "t": 184090.8599999999,
      "d": 71.02270833333023,
      "v": 103
    },
    {
      "midi": 67,
      "hit": false,
      "t": 184431.76899999983,
      "d": 73.86361666666926,
      "v": 107
    },
    {
      "midi": 76,
      "hit": false,
      "t": 184431.76899999988,
      "d": 71.02270833333023,
      "v": 103
    },
    {
      "midi": 74,
      "hit": false,
      "t": 184772.67799999987,
      "d": 88.0681583333353,
      "v": 103
    },
    {
      "midi": 72,
      "hit": false,
      "t": 185113.58699999988,
      "d": 113.63633333332837,
      "v": 103
    },
    {
      "midi": 52,
      "hit": false,
      "t": 185454.49599999984,
      "d": 1508.522324999998,
      "v": 87
    },
    {
      "midi": 62,
      "hit": false,
      "t": 185454.49599999984,
      "d": 1832.3858749999781,
      "v": 91
    },
    {
      "midi": 55,
      "hit": false,
      "t": 185454.49599999984,
      "d": 1855.1131416666321,
      "v": 78
    },
    {
      "midi": 59,
      "hit": false,
      "t": 185454.49599999984,
      "d": 1857.9540499999712,
      "v": 91
    },
    {
      "midi": 74,
      "hit": false,
      "t": 185454.49599999987,
      "d": 2255.6812166666787,
      "v": 103
    },
    {
      "midi": 52,
      "hit": false,
      "t": 187159.04099999982,
      "d": 96.59088333332329,
      "v": 85
    },
    {
      "midi": 59,
      "hit": false,
      "t": 187499.9499999998,
      "d": 124.99996666665538,
      "v": 100
    },
    {
      "midi": 62,
      "hit": false,
      "t": 187499.9499999998,
      "d": 130.68178333333344,
      "v": 100
    },
    {
      "midi": 55,
      "hit": false,
      "t": 187499.9499999998,
      "d": 136.3636000000115,
      "v": 89
    },
    {
      "midi": 64,
      "hit": false,
      "t": 188181.7679999998,
      "d": 911.9315749999951,
      "v": 102
    },
    {
      "midi": 60,
      "hit": false,
      "t": 188181.7679999998,
      "d": 931.8179333333392,
      "v": 98
    },
    {
      "midi": 57,
      "hit": false,
      "t": 188181.7679999998,
      "d": 2463.0675249999913,
      "v": 87
    },
    {
      "midi": 53,
      "hit": false,
      "t": 188181.7679999998,
      "d": 2477.2720666666573,
      "v": 82
    },
    {
      "midi": 50,
      "hit": false,
      "t": 188181.7679999998,
      "d": 2480.1129749999964,
      "v": 95
    },
    {
      "midi": 76,
      "hit": false,
      "t": 188863.58599999986,
      "d": 261.3635666666669,
      "v": 103
    },
    {
      "midi": 62,
      "hit": false,
      "t": 189204.49499999982,
      "d": 332.3862749999971,
      "v": 107
    },
    {
      "midi": 77,
      "hit": false,
      "t": 189204.49499999988,
      "d": 343.74990833332413,
      "v": 103
    },
    {
      "midi": 60,
      "hit": false,
      "t": 189545.4039999998,
      "d": 1071.0224416666606,
      "v": 98
    },
    {
      "midi": 76,
      "hit": false,
      "t": 189545.40399999986,
      "d": 306.81810000000405,
      "v": 103
    },
    {
      "midi": 72,
      "hit": false,
      "t": 189886.31299999988,
      "d": 644.8861916666501,
      "v": 103
    },
    {
      "midi": 69,
      "hit": false,
      "t": 190568.13099999988,
      "d": 275.56810833333293,
      "v": 103
    },
    {
      "midi": 43,
      "hit": false,
      "t": 190909.0399999998,
      "d": 2099.431258333323,
      "v": 85
    },
    {
      "midi": 53,
      "hit": false,
      "t": 190909.0399999998,
      "d": 2130.681249999994,
      "v": 87
    },
    {
      "midi": 57,
      "hit": false,
      "t": 190909.0399999998,
      "d": 2133.522158333333,
      "v": 100
    },
    {
      "midi": 60,
      "hit": false,
      "t": 190909.0399999998,
      "d": 2153.4085166666773,
      "v": 93
    },
    {
      "midi": 65,
      "hit": false,
      "t": 190909.03999999986,
      "d": 2019.8858249999757,
      "v": 103
    },
    {
      "midi": 69,
      "hit": false,
      "t": 190909.03999999986,
      "d": 2062.499449999974,
      "v": 103
    },
    {
      "midi": 67,
      "hit": false,
      "t": 192954.49399999983,
      "d": 511.36350000000675,
      "v": 103
    },
    {
      "midi": 48,
      "hit": false,
      "t": 193636.31199999983,
      "d": 1781.249524999992,
      "v": 68
    },
    {
      "midi": 52,
      "hit": false,
      "t": 193636.31199999983,
      "d": 1789.77224999998,
      "v": 64
    },
    {
      "midi": 55,
      "hit": false,
      "t": 193636.31199999983,
      "d": 1812.499516666634,
      "v": 60
    },
    {
      "midi": 60,
      "hit": false,
      "t": 193636.31199999983,
      "d": 1909.0903999999573,
      "v": 74
    },
    {
      "midi": 64,
      "hit": false,
      "t": 193636.31199999983,
      "d": 1909.0903999999573,
      "v": 89
    },
    {
      "midi": 62,
      "hit": false,
      "t": 196363.58399999977,
      "d": 866.477041666687,
      "v": 87
    },
    {
      "midi": 57,
      "hit": false,
      "t": 196363.58399999977,
      "d": 2386.363000000012,
      "v": 70
    },
    {
      "midi": 50,
      "hit": false,
      "t": 196363.58399999977,
      "d": 2392.04481666669,
      "v": 72
    },
    {
      "midi": 53,
      "hit": false,
      "t": 196363.58399999977,
      "d": 2394.885725000029,
      "v": 63
    },
    {
      "midi": 60,
      "hit": false,
      "t": 197386.31099999978,
      "d": 1019.8860916666745,
      "v": 87
    },
    {
      "midi": 64,
      "hit": false,
      "t": 197386.31099999978,
      "d": 1065.3406250000116,
      "v": 91
    },
    {
      "midi": 55,
      "hit": false,
      "t": 199090.8559999998,
      "d": 767.0452499999956,
      "v": 80
    },
    {
      "midi": 60,
      "hit": false,
      "t": 199090.8559999998,
      "d": 1258.5223916666582,
      "v": 72
    },
    {
      "midi": 64,
      "hit": false,
      "t": 199090.8559999998,
      "d": 1272.7269333333243,
      "v": 87
    },
    {
      "midi": 52,
      "hit": false,
      "t": 199090.8559999998,
      "d": 1696.0222749999666,
      "v": 61
    },
    {
      "midi": 48,
      "hit": false,
      "t": 199090.8559999998,
      "d": 1698.8631833333056,
      "v": 78
    },
    {
      "midi": 79,
      "hit": false,
      "t": 199772.67399999982,
      "d": 536.9316749999998,
      "v": 103
    },
    {
      "midi": 55,
      "hit": false,
      "t": 200113.58299999978,
      "d": 275.56810833333293,
      "v": 70
    },
    {
      "midi": 67,
      "hit": false,
      "t": 200454.49199999977,
      "d": 301.136283333326,
      "v": 74
    },
    {
      "midi": 79,
      "hit": false,
      "t": 200454.49199999982,
      "d": 1329.5450999999885,
      "v": 103
    },
    {
      "midi": 71,
      "hit": false,
      "t": 201818.12799999976,
      "d": 241.47720833332278,
      "v": 98
    },
    {
      "midi": 67,
      "hit": false,
      "t": 201818.12799999976,
      "d": 275.56810833333293,
      "v": 89
    },
    {
      "midi": 84,
      "hit": false,
      "t": 201818.12799999982,
      "d": 352.2726333333121,
      "v": 103
    },
    {
      "midi": 83,
      "hit": false,
      "t": 202159.0369999998,
      "d": 321.0226416666701,
      "v": 103
    },
    {
      "midi": 69,
      "hit": false,
      "t": 202499.94599999976,
      "d": 349.4317250000022,
      "v": 89
    },
    {
      "midi": 65,
      "hit": false,
      "t": 202499.94599999976,
      "d": 394.88625833333936,
      "v": 78
    },
    {
      "midi": 81,
      "hit": false,
      "t": 202499.94599999982,
      "d": 340.9089999999851,
      "v": 103
    },
    {
      "midi": 79,
      "hit": false,
      "t": 202840.8549999998,
      "d": 326.70445833331905,
      "v": 103
    },
    {
      "midi": 67,
      "hit": false,
      "t": 203181.76399999976,
      "d": 289.7726500000281,
      "v": 80
    },
    {
      "midi": 64,
      "hit": false,
      "t": 203181.76399999976,
      "d": 363.63626666669734,
      "v": 76
    },
    {
      "midi": 77,
      "hit": false,
      "t": 203181.7639999998,
      "d": 1071.0224416666606,
      "v": 103
    },
    {
      "midi": 62,
      "hit": false,
      "t": 203863.5819999998,
      "d": 400.5680749999883,
      "v": 70
    },
    {
      "midi": 65,
      "hit": false,
      "t": 203863.5819999998,
      "d": 403.40898333332734,
      "v": 78
    },
    {
      "midi": 55,
      "hit": false,
      "t": 204545.3999999998,
      "d": 161.93177500000456,
      "v": 63
    },
    {
      "midi": 59,
      "hit": false,
      "t": 204545.3999999998,
      "d": 161.93177500000456,
      "v": 82
    },
    {
      "midi": 64,
      "hit": false,
      "t": 204545.3999999998,
      "d": 178.97722500000964,
      "v": 82
    },
    {
      "midi": 48,
      "hit": false,
      "t": 204545.3999999998,
      "d": 2394.885725000029,
      "v": 72
    },
    {
      "midi": 72,
      "hit": false,
      "t": 204545.3999999998,
      "d": 4301.135216666677,
      "v": 103
    },
    {
      "midi": 76,
      "hit": false,
      "t": 204545.3999999998,
      "d": 4482.953349999996,
      "v": 103
    },
    {
      "midi": 55,
      "hit": false,
      "t": 204886.3089999998,
      "d": 93.74997500001336,
      "v": 60
    },
    {
      "midi": 60,
      "hit": false,
      "t": 204886.3089999998,
      "d": 113.63633333335747,
      "v": 78
    },
    {
      "midi": 64,
      "hit": false,
      "t": 204886.3089999998,
      "d": 124.99996666668449,
      "v": 82
    },
    {
      "midi": 60,
      "hit": false,
      "t": 205568.12699999983,
      "d": 1264.2042083333363,
      "v": 60
    },
    {
      "midi": 55,
      "hit": false,
      "t": 205568.12699999983,
      "d": 1329.5450999999885,
      "v": 57
    },
    {
      "midi": 64,
      "hit": false,
      "t": 205568.12699999983,
      "d": 1340.9087333333155,
      "v": 53
    },
    {
      "midi": 55,
      "hit": false,
      "t": 207272.67199999982,
      "d": 218.74994166666875,
      "v": 66
    },
    {
      "midi": 59,
      "hit": false,
      "t": 207272.67199999982,
      "d": 238.63630000001285,
      "v": 70
    },
    {
      "midi": 64,
      "hit": false,
      "t": 207272.67199999982,
      "d": 244.3181166666909,
      "v": 68
    },
    {
      "midi": 48,
      "hit": false,
      "t": 207272.67199999982,
      "d": 249.99993333336897,
      "v": 70
    },
    {
      "midi": 64,
      "hit": false,
      "t": 207613.58099999986,
      "d": 491.47714166666265,
      "v": 89
    },
    {
      "midi": 60,
      "hit": false,
      "t": 207613.58099999986,
      "d": 511.36350000000675,
      "v": 91
    },
    {
      "midi": 55,
      "hit": false,
      "t": 207613.58099999986,
      "d": 519.8862249999947,
      "v": 72
    },
    {
      "midi": 48,
      "hit": false,
      "t": 207613.58099999986,
      "d": 528.4089499999827,
      "v": 68
    },
    {
      "midi": 48,
      "hit": false,
      "t": 208295.39899999983,
      "d": 607.95438333333,
      "v": 74
    },
    {
      "midi": 60,
      "hit": false,
      "t": 208295.39899999983,
      "d": 855.1134083333309,
      "v": 72
    },
    {
      "midi": 64,
      "hit": false,
      "t": 208295.39899999983,
      "d": 906.249758333317,
      "v": 70
    },
    {
      "midi": 55,
      "hit": false,
      "t": 208295.39899999983,
      "d": 917.613391666644,
      "v": 63
    },
    {
      "midi": 76,
      "hit": false,
      "t": 209318.1259999998,
      "d": 738.6361666666635,
      "v": 103
    },
    {
      "midi": 77,
      "hit": false,
      "t": 209999.94399999978,
      "d": 3451.7036249999946,
      "v": 103
    },
    {
      "midi": 55,
      "hit": false,
      "t": 209999.9439999998,
      "d": 181.81813333331957,
      "v": 80
    },
    {
      "midi": 59,
      "hit": false,
      "t": 209999.9439999998,
      "d": 207.38630833331263,
      "v": 87
    },
    {
      "midi": 50,
      "hit": false,
      "t": 209999.9439999998,
      "d": 213.0681249999907,
      "v": 74
    },
    {
      "midi": 53,
      "hit": false,
      "t": 209999.9439999998,
      "d": 213.0681249999907,
      "v": 61
    },
    {
      "midi": 64,
      "hit": false,
      "t": 209999.9439999998,
      "d": 224.4317583333177,
      "v": 85
    },
    {
      "midi": 50,
      "hit": false,
      "t": 210340.8529999998,
      "d": 488.6362333333527,
      "v": 76
    },
    {
      "midi": 60,
      "hit": false,
      "t": 210340.8529999998,
      "d": 499.99986666667974,
      "v": 82
    },
    {
      "midi": 64,
      "hit": false,
      "t": 210340.8529999998,
      "d": 534.0907666666899,
      "v": 82
    },
    {
      "midi": 57,
      "hit": false,
      "t": 210340.8529999998,
      "d": 542.6134916666779,
      "v": 76
    },
    {
      "midi": 50,
      "hit": false,
      "t": 211022.6709999998,
      "d": 1190.340591666667,
      "v": 60
    },
    {
      "midi": 60,
      "hit": false,
      "t": 211022.6709999998,
      "d": 1269.8860250000143,
      "v": 66
    },
    {
      "midi": 64,
      "hit": false,
      "t": 211022.6709999998,
      "d": 1278.4087500000023,
      "v": 63
    },
    {
      "midi": 57,
      "hit": false,
      "t": 211022.6709999998,
      "d": 1321.0223750000005,
      "v": 63
    },
    {
      "midi": 55,
      "hit": false,
      "t": 212727.2159999998,
      "d": 244.3181166666618,
      "v": 82
    },
    {
      "midi": 59,
      "hit": false,
      "t": 212727.2159999998,
      "d": 255.68174999998882,
      "v": 85
    },
    {
      "midi": 50,
      "hit": false,
      "t": 212727.2159999998,
      "d": 278.40901666664286,
      "v": 87
    },
    {
      "midi": 64,
      "hit": false,
      "t": 212727.2159999998,
      "d": 281.2499249999819,
      "v": 89
    },
    {
      "midi": 50,
      "hit": false,
      "t": 213068.1249999998,
      "d": 474.4316916666867,
      "v": 76
    },
    {
      "midi": 60,
      "hit": false,
      "t": 213068.1249999998,
      "d": 508.5225916666968,
      "v": 82
    },
    {
      "midi": 64,
      "hit": false,
      "t": 213068.1249999998,
      "d": 514.2044083333749,
      "v": 87
    },
    {
      "midi": 57,
      "hit": false,
      "t": 213068.1249999998,
      "d": 525.5680416667019,
      "v": 70
    },
    {
      "midi": 60,
      "hit": false,
      "t": 213749.94299999982,
      "d": 1374.9996333333256,
      "v": 82
    },
    {
      "midi": 50,
      "hit": false,
      "t": 213749.94299999982,
      "d": 1380.6814500000037,
      "v": 64
    },
    {
      "midi": 57,
      "hit": false,
      "t": 213749.94299999982,
      "d": 1389.2041749999917,
      "v": 72
    },
    {
      "midi": 64,
      "hit": false,
      "t": 213749.94299999982,
      "d": 1400.5678083333187,
      "v": 85
    },
    {
      "midi": 67,
      "hit": false,
      "t": 215454.48799999978,
      "d": 2764.2038083333464,
      "v": 103
    },
    {
      "midi": 64,
      "hit": false,
      "t": 215454.48799999978,
      "d": 2784.0901666666905,
      "v": 103
    },
    {
      "midi": 71,
      "hit": false,
      "t": 215454.48799999978,
      "d": 2795.4538000000175,
      "v": 103
    },
    {
      "midi": 55,
      "hit": false,
      "t": 215454.4879999998,
      "d": 161.93177500000456,
      "v": 63
    },
    {
      "midi": 59,
      "hit": false,
      "t": 215454.4879999998,
      "d": 161.93177500000456,
      "v": 82
    },
    {
      "midi": 64,
      "hit": false,
      "t": 215454.4879999998,
      "d": 178.97722500000964,
      "v": 82
    },
    {
      "midi": 48,
      "hit": false,
      "t": 215454.4879999998,
      "d": 2394.885725000029,
      "v": 72
    },
    {
      "midi": 55,
      "hit": false,
      "t": 215795.39699999982,
      "d": 93.74997500001336,
      "v": 60
    },
    {
      "midi": 60,
      "hit": false,
      "t": 215795.39699999982,
      "d": 113.63633333335747,
      "v": 78
    },
    {
      "midi": 64,
      "hit": false,
      "t": 215795.39699999982,
      "d": 124.99996666668449,
      "v": 82
    },
    {
      "midi": 60,
      "hit": false,
      "t": 216477.21499999985,
      "d": 1264.2042083333363,
      "v": 60
    },
    {
      "midi": 55,
      "hit": false,
      "t": 216477.21499999985,
      "d": 1329.5450999999885,
      "v": 57
    },
    {
      "midi": 64,
      "hit": false,
      "t": 216477.21499999985,
      "d": 1340.9087333333155,
      "v": 53
    },
    {
      "midi": 55,
      "hit": false,
      "t": 218181.75999999983,
      "d": 218.74994166666875,
      "v": 66
    },
    {
      "midi": 59,
      "hit": false,
      "t": 218181.75999999983,
      "d": 238.63630000001285,
      "v": 70
    },
    {
      "midi": 64,
      "hit": false,
      "t": 218181.75999999983,
      "d": 244.3181166666909,
      "v": 68
    },
    {
      "midi": 48,
      "hit": false,
      "t": 218181.75999999983,
      "d": 249.99993333336897,
      "v": 70
    },
    {
      "midi": 64,
      "hit": false,
      "t": 218522.66899999988,
      "d": 491.47714166666265,
      "v": 89
    },
    {
      "midi": 60,
      "hit": false,
      "t": 218522.66899999988,
      "d": 511.36350000000675,
      "v": 91
    },
    {
      "midi": 55,
      "hit": false,
      "t": 218522.66899999988,
      "d": 519.8862249999947,
      "v": 72
    },
    {
      "midi": 48,
      "hit": false,
      "t": 218522.66899999988,
      "d": 528.4089499999827,
      "v": 68
    },
    {
      "midi": 71,
      "hit": false,
      "t": 218863.57799999978,
      "d": 343.74990833332413,
      "v": 103
    },
    {
      "midi": 72,
      "hit": false,
      "t": 219204.48699999976,
      "d": 386.36353333332227,
      "v": 103
    },
    {
      "midi": 48,
      "hit": false,
      "t": 219204.48699999985,
      "d": 607.95438333333,
      "v": 74
    },
    {
      "midi": 60,
      "hit": false,
      "t": 219204.48699999985,
      "d": 855.1134083333309,
      "v": 72
    },
    {
      "midi": 64,
      "hit": false,
      "t": 219204.48699999985,
      "d": 906.249758333317,
      "v": 70
    },
    {
      "midi": 55,
      "hit": false,
      "t": 219204.48699999985,
      "d": 917.613391666644,
      "v": 63
    },
    {
      "midi": 71,
      "hit": false,
      "t": 219545.39599999975,
      "d": 292.613558333338,
      "v": 103
    },
    {
      "midi": 67,
      "hit": false,
      "t": 219886.30499999976,
      "d": 377.8408083333052,
      "v": 103
    },
    {
      "midi": 64,
      "hit": false,
      "t": 220227.21399999975,
      "d": 576.7043916666589,
      "v": 103
    },
    {
      "midi": 64,
      "hit": false,
      "t": 220909.03199999974,
      "d": 2312.499383333343,
      "v": 103
    },
    {
      "midi": 55,
      "hit": false,
      "t": 220909.03199999983,
      "d": 181.81813333331957,
      "v": 80
    },
    {
      "midi": 59,
      "hit": false,
      "t": 220909.03199999983,
      "d": 207.38630833331263,
      "v": 87
    },
    {
      "midi": 50,
      "hit": false,
      "t": 220909.03199999983,
      "d": 213.0681249999907,
      "v": 74
    },
    {
      "midi": 53,
      "hit": false,
      "t": 220909.03199999983,
      "d": 213.0681249999907,
      "v": 61
    },
    {
      "midi": 64,
      "hit": false,
      "t": 220909.03199999983,
      "d": 224.4317583333177,
      "v": 85
    },
    {
      "midi": 50,
      "hit": false,
      "t": 221249.94099999982,
      "d": 488.6362333333527,
      "v": 76
    },
    {
      "midi": 60,
      "hit": false,
      "t": 221249.94099999982,
      "d": 499.99986666667974,
      "v": 82
    },
    {
      "midi": 64,
      "hit": false,
      "t": 221249.94099999982,
      "d": 534.0907666666899,
      "v": 82
    },
    {
      "midi": 57,
      "hit": false,
      "t": 221249.94099999982,
      "d": 542.6134916666779,
      "v": 76
    },
    {
      "midi": 50,
      "hit": false,
      "t": 221931.75899999982,
      "d": 1190.340591666667,
      "v": 60
    },
    {
      "midi": 60,
      "hit": false,
      "t": 221931.75899999982,
      "d": 1269.8860250000143,
      "v": 66
    },
    {
      "midi": 64,
      "hit": false,
      "t": 221931.75899999982,
      "d": 1278.4087500000023,
      "v": 63
    },
    {
      "midi": 57,
      "hit": false,
      "t": 221931.75899999982,
      "d": 1321.0223750000005,
      "v": 63
    },
    {
      "midi": 55,
      "hit": false,
      "t": 223636.30399999983,
      "d": 244.3181166666618,
      "v": 82
    },
    {
      "midi": 59,
      "hit": false,
      "t": 223636.30399999983,
      "d": 255.68174999998882,
      "v": 85
    },
    {
      "midi": 50,
      "hit": false,
      "t": 223636.30399999983,
      "d": 278.40901666664286,
      "v": 87
    },
    {
      "midi": 64,
      "hit": false,
      "t": 223636.30399999983,
      "d": 281.2499249999819,
      "v": 89
    },
    {
      "midi": 50,
      "hit": false,
      "t": 223977.2129999998,
      "d": 474.4316916666867,
      "v": 76
    },
    {
      "midi": 60,
      "hit": false,
      "t": 223977.2129999998,
      "d": 508.5225916666968,
      "v": 82
    },
    {
      "midi": 64,
      "hit": false,
      "t": 223977.2129999998,
      "d": 514.2044083333749,
      "v": 87
    },
    {
      "midi": 57,
      "hit": false,
      "t": 223977.2129999998,
      "d": 525.5680416667019,
      "v": 70
    },
    {
      "midi": 60,
      "hit": false,
      "t": 224659.03099999984,
      "d": 1374.9996333333256,
      "v": 82
    },
    {
      "midi": 50,
      "hit": false,
      "t": 224659.03099999984,
      "d": 1380.6814500000037,
      "v": 64
    },
    {
      "midi": 57,
      "hit": false,
      "t": 224659.03099999984,
      "d": 1389.2041749999917,
      "v": 72
    },
    {
      "midi": 64,
      "hit": false,
      "t": 224659.03099999984,
      "d": 1400.5678083333187,
      "v": 85
    },
    {
      "midi": 72,
      "hit": false,
      "t": 226363.57599999977,
      "d": 4301.135216666677,
      "v": 103
    },
    {
      "midi": 76,
      "hit": false,
      "t": 226363.57599999977,
      "d": 4482.953349999996,
      "v": 103
    },
    {
      "midi": 55,
      "hit": false,
      "t": 226363.57599999983,
      "d": 161.93177500000456,
      "v": 63
    },
    {
      "midi": 59,
      "hit": false,
      "t": 226363.57599999983,
      "d": 161.93177500000456,
      "v": 82
    },
    {
      "midi": 64,
      "hit": false,
      "t": 226363.57599999983,
      "d": 178.97722500000964,
      "v": 82
    },
    {
      "midi": 48,
      "hit": false,
      "t": 226363.57599999983,
      "d": 2394.885725000029,
      "v": 72
    },
    {
      "midi": 55,
      "hit": false,
      "t": 226704.48499999984,
      "d": 93.74997500001336,
      "v": 60
    },
    {
      "midi": 60,
      "hit": false,
      "t": 226704.48499999984,
      "d": 113.63633333335747,
      "v": 78
    },
    {
      "midi": 64,
      "hit": false,
      "t": 226704.48499999984,
      "d": 124.99996666668449,
      "v": 82
    },
    {
      "midi": 60,
      "hit": false,
      "t": 227386.30299999987,
      "d": 1264.2042083333363,
      "v": 60
    },
    {
      "midi": 55,
      "hit": false,
      "t": 227386.30299999987,
      "d": 1329.5450999999885,
      "v": 57
    },
    {
      "midi": 64,
      "hit": false,
      "t": 227386.30299999987,
      "d": 1340.9087333333155,
      "v": 53
    },
    {
      "midi": 55,
      "hit": false,
      "t": 229090.84799999985,
      "d": 218.74994166666875,
      "v": 66
    },
    {
      "midi": 59,
      "hit": false,
      "t": 229090.84799999985,
      "d": 238.63630000001285,
      "v": 70
    },
    {
      "midi": 64,
      "hit": false,
      "t": 229090.84799999985,
      "d": 244.3181166666909,
      "v": 68
    },
    {
      "midi": 48,
      "hit": false,
      "t": 229090.84799999985,
      "d": 249.99993333336897,
      "v": 70
    },
    {
      "midi": 64,
      "hit": false,
      "t": 229431.7569999999,
      "d": 491.47714166666265,
      "v": 89
    },
    {
      "midi": 60,
      "hit": false,
      "t": 229431.7569999999,
      "d": 511.36350000000675,
      "v": 91
    },
    {
      "midi": 55,
      "hit": false,
      "t": 229431.7569999999,
      "d": 519.8862249999947,
      "v": 72
    },
    {
      "midi": 48,
      "hit": false,
      "t": 229431.7569999999,
      "d": 528.4089499999827,
      "v": 68
    },
    {
      "midi": 48,
      "hit": false,
      "t": 230113.57499999987,
      "d": 607.95438333333,
      "v": 74
    },
    {
      "midi": 60,
      "hit": false,
      "t": 230113.57499999987,
      "d": 855.1134083333309,
      "v": 72
    },
    {
      "midi": 64,
      "hit": false,
      "t": 230113.57499999987,
      "d": 906.249758333317,
      "v": 70
    },
    {
      "midi": 55,
      "hit": false,
      "t": 230113.57499999987,
      "d": 917.613391666644,
      "v": 63
    },
    {
      "midi": 76,
      "hit": false,
      "t": 231136.30199999976,
      "d": 738.6361666666635,
      "v": 103
    },
    {
      "midi": 77,
      "hit": false,
      "t": 231818.11999999976,
      "d": 3451.7036249999946,
      "v": 103
    },
    {
      "midi": 55,
      "hit": false,
      "t": 231818.11999999985,
      "d": 181.81813333331957,
      "v": 80
    },
    {
      "midi": 59,
      "hit": false,
      "t": 231818.11999999985,
      "d": 207.38630833331263,
      "v": 87
    },
    {
      "midi": 50,
      "hit": false,
      "t": 231818.11999999985,
      "d": 213.0681249999907,
      "v": 74
    },
    {
      "midi": 53,
      "hit": false,
      "t": 231818.11999999985,
      "d": 213.0681249999907,
      "v": 61
    },
    {
      "midi": 64,
      "hit": false,
      "t": 231818.11999999985,
      "d": 224.4317583333177,
      "v": 85
    },
    {
      "midi": 50,
      "hit": false,
      "t": 232159.02899999983,
      "d": 488.6362333333527,
      "v": 76
    },
    {
      "midi": 60,
      "hit": false,
      "t": 232159.02899999983,
      "d": 499.99986666667974,
      "v": 82
    },
    {
      "midi": 64,
      "hit": false,
      "t": 232159.02899999983,
      "d": 534.0907666666899,
      "v": 82
    },
    {
      "midi": 57,
      "hit": false,
      "t": 232159.02899999983,
      "d": 542.6134916666779,
      "v": 76
    },
    {
      "midi": 50,
      "hit": false,
      "t": 232840.84699999983,
      "d": 1190.340591666667,
      "v": 60
    },
    {
      "midi": 60,
      "hit": false,
      "t": 232840.84699999983,
      "d": 1269.8860250000143,
      "v": 66
    },
    {
      "midi": 64,
      "hit": false,
      "t": 232840.84699999983,
      "d": 1278.4087500000023,
      "v": 63
    },
    {
      "midi": 57,
      "hit": false,
      "t": 232840.84699999983,
      "d": 1321.0223750000005,
      "v": 63
    },
    {
      "midi": 55,
      "hit": false,
      "t": 234545.39199999985,
      "d": 244.3181166666618,
      "v": 82
    },
    {
      "midi": 59,
      "hit": false,
      "t": 234545.39199999985,
      "d": 255.68174999998882,
      "v": 85
    },
    {
      "midi": 50,
      "hit": false,
      "t": 234545.39199999985,
      "d": 278.40901666664286,
      "v": 87
    },
    {
      "midi": 64,
      "hit": false,
      "t": 234545.39199999985,
      "d": 281.2499249999819,
      "v": 89
    },
    {
      "midi": 50,
      "hit": false,
      "t": 234886.30099999983,
      "d": 474.4316916666867,
      "v": 76
    },
    {
      "midi": 60,
      "hit": false,
      "t": 234886.30099999983,
      "d": 508.5225916666968,
      "v": 82
    },
    {
      "midi": 64,
      "hit": false,
      "t": 234886.30099999983,
      "d": 514.2044083333749,
      "v": 87
    },
    {
      "midi": 57,
      "hit": false,
      "t": 234886.30099999983,
      "d": 525.5680416667019,
      "v": 70
    },
    {
      "midi": 60,
      "hit": false,
      "t": 235568.11899999986,
      "d": 1374.9996333333256,
      "v": 82
    },
    {
      "midi": 50,
      "hit": false,
      "t": 235568.11899999986,
      "d": 1380.6814500000037,
      "v": 64
    },
    {
      "midi": 57,
      "hit": false,
      "t": 235568.11899999986,
      "d": 1389.2041749999917,
      "v": 72
    },
    {
      "midi": 64,
      "hit": false,
      "t": 235568.11899999986,
      "d": 1400.5678083333187,
      "v": 85
    },
    {
      "midi": 67,
      "hit": false,
      "t": 237272.66399999976,
      "d": 2764.2038083333464,
      "v": 103
    },
    {
      "midi": 64,
      "hit": false,
      "t": 237272.66399999976,
      "d": 2784.0901666666905,
      "v": 103
    },
    {
      "midi": 71,
      "hit": false,
      "t": 237272.66399999976,
      "d": 2795.4538000000175,
      "v": 103
    },
    {
      "midi": 55,
      "hit": false,
      "t": 237272.66399999984,
      "d": 161.93177500000456,
      "v": 63
    },
    {
      "midi": 59,
      "hit": false,
      "t": 237272.66399999984,
      "d": 161.93177500000456,
      "v": 82
    },
    {
      "midi": 64,
      "hit": false,
      "t": 237272.66399999984,
      "d": 178.97722500000964,
      "v": 82
    },
    {
      "midi": 48,
      "hit": false,
      "t": 237272.66399999984,
      "d": 2394.885725000029,
      "v": 72
    },
    {
      "midi": 55,
      "hit": false,
      "t": 237613.57299999986,
      "d": 93.74997500001336,
      "v": 60
    },
    {
      "midi": 60,
      "hit": false,
      "t": 237613.57299999986,
      "d": 113.63633333335747,
      "v": 78
    },
    {
      "midi": 64,
      "hit": false,
      "t": 237613.57299999986,
      "d": 124.99996666668449,
      "v": 82
    },
    {
      "midi": 60,
      "hit": false,
      "t": 238295.3909999999,
      "d": 1264.2042083333363,
      "v": 60
    },
    {
      "midi": 55,
      "hit": false,
      "t": 238295.3909999999,
      "d": 1329.5450999999885,
      "v": 57
    },
    {
      "midi": 64,
      "hit": false,
      "t": 238295.3909999999,
      "d": 1340.9087333333155,
      "v": 53
    },
    {
      "midi": 55,
      "hit": false,
      "t": 239999.93599999987,
      "d": 218.74994166666875,
      "v": 66
    },
    {
      "midi": 59,
      "hit": false,
      "t": 239999.93599999987,
      "d": 238.63630000001285,
      "v": 70
    },
    {
      "midi": 64,
      "hit": false,
      "t": 239999.93599999987,
      "d": 244.3181166666909,
      "v": 68
    },
    {
      "midi": 48,
      "hit": false,
      "t": 239999.93599999987,
      "d": 249.99993333336897,
      "v": 70
    },
    {
      "midi": 64,
      "hit": false,
      "t": 240340.8449999999,
      "d": 491.47714166666265,
      "v": 89
    },
    {
      "midi": 60,
      "hit": false,
      "t": 240340.8449999999,
      "d": 511.36350000000675,
      "v": 91
    },
    {
      "midi": 55,
      "hit": false,
      "t": 240340.8449999999,
      "d": 519.8862249999947,
      "v": 72
    },
    {
      "midi": 48,
      "hit": false,
      "t": 240340.8449999999,
      "d": 528.4089499999827,
      "v": 68
    },
    {
      "midi": 71,
      "hit": false,
      "t": 240681.75399999975,
      "d": 343.74990833332413,
      "v": 103
    },
    {
      "midi": 72,
      "hit": false,
      "t": 241022.66299999974,
      "d": 386.36353333332227,
      "v": 103
    },
    {
      "midi": 48,
      "hit": false,
      "t": 241022.66299999988,
      "d": 607.95438333333,
      "v": 74
    },
    {
      "midi": 60,
      "hit": false,
      "t": 241022.66299999988,
      "d": 855.1134083333309,
      "v": 72
    },
    {
      "midi": 64,
      "hit": false,
      "t": 241022.66299999988,
      "d": 906.249758333317,
      "v": 70
    },
    {
      "midi": 55,
      "hit": false,
      "t": 241022.66299999988,
      "d": 917.613391666644,
      "v": 63
    },
    {
      "midi": 71,
      "hit": false,
      "t": 241363.57199999972,
      "d": 292.613558333338,
      "v": 103
    },
    {
      "midi": 67,
      "hit": false,
      "t": 241704.48099999974,
      "d": 377.8408083333052,
      "v": 103
    },
    {
      "midi": 64,
      "hit": false,
      "t": 242045.38999999972,
      "d": 576.7043916666589,
      "v": 103
    },
    {
      "midi": 64,
      "hit": false,
      "t": 242727.20799999972,
      "d": 2312.499383333343,
      "v": 103
    },
    {
      "midi": 55,
      "hit": false,
      "t": 242727.20799999987,
      "d": 181.81813333331957,
      "v": 80
    },
    {
      "midi": 59,
      "hit": false,
      "t": 242727.20799999987,
      "d": 207.38630833331263,
      "v": 87
    },
    {
      "midi": 50,
      "hit": false,
      "t": 242727.20799999987,
      "d": 213.0681249999907,
      "v": 74
    },
    {
      "midi": 53,
      "hit": false,
      "t": 242727.20799999987,
      "d": 213.0681249999907,
      "v": 61
    },
    {
      "midi": 64,
      "hit": false,
      "t": 242727.20799999987,
      "d": 224.4317583333177,
      "v": 85
    },
    {
      "midi": 50,
      "hit": false,
      "t": 243068.11699999985,
      "d": 488.6362333333527,
      "v": 76
    },
    {
      "midi": 60,
      "hit": false,
      "t": 243068.11699999985,
      "d": 499.99986666667974,
      "v": 82
    },
    {
      "midi": 64,
      "hit": false,
      "t": 243068.11699999985,
      "d": 534.0907666666899,
      "v": 82
    },
    {
      "midi": 57,
      "hit": false,
      "t": 243068.11699999985,
      "d": 542.6134916666779,
      "v": 76
    },
    {
      "midi": 50,
      "hit": false,
      "t": 243749.93499999985,
      "d": 1190.340591666667,
      "v": 60
    },
    {
      "midi": 60,
      "hit": false,
      "t": 243749.93499999985,
      "d": 1269.8860250000143,
      "v": 66
    },
    {
      "midi": 64,
      "hit": false,
      "t": 243749.93499999985,
      "d": 1278.4087500000023,
      "v": 63
    },
    {
      "midi": 57,
      "hit": false,
      "t": 243749.93499999985,
      "d": 1321.0223750000005,
      "v": 63
    },
    {
      "midi": 55,
      "hit": false,
      "t": 245454.47999999986,
      "d": 244.3181166666618,
      "v": 82
    },
    {
      "midi": 59,
      "hit": false,
      "t": 245454.47999999986,
      "d": 255.68174999998882,
      "v": 85
    },
    {
      "midi": 50,
      "hit": false,
      "t": 245454.47999999986,
      "d": 278.40901666664286,
      "v": 87
    },
    {
      "midi": 64,
      "hit": false,
      "t": 245454.47999999986,
      "d": 281.2499249999819,
      "v": 89
    },
    {
      "midi": 50,
      "hit": false,
      "t": 245795.38899999985,
      "d": 474.4316916666867,
      "v": 76
    },
    {
      "midi": 60,
      "hit": false,
      "t": 245795.38899999985,
      "d": 508.5225916666968,
      "v": 82
    },
    {
      "midi": 64,
      "hit": false,
      "t": 245795.38899999985,
      "d": 514.2044083333749,
      "v": 87
    },
    {
      "midi": 57,
      "hit": false,
      "t": 245795.38899999985,
      "d": 525.5680416667019,
      "v": 70
    },
    {
      "midi": 60,
      "hit": false,
      "t": 246477.20699999988,
      "d": 1374.9996333333256,
      "v": 82
    },
    {
      "midi": 50,
      "hit": false,
      "t": 246477.20699999988,
      "d": 1380.6814500000037,
      "v": 64
    },
    {
      "midi": 57,
      "hit": false,
      "t": 246477.20699999988,
      "d": 1389.2041749999917,
      "v": 72
    },
    {
      "midi": 64,
      "hit": false,
      "t": 246477.20699999988,
      "d": 1400.5678083333187,
      "v": 85
    },
    {
      "midi": 76,
      "hit": false,
      "t": 246818.11599999972,
      "d": 284.0908333333209,
      "v": 103
    },
    {
      "midi": 77,
      "hit": false,
      "t": 247159.0249999997,
      "d": 340.9090000000142,
      "v": 103
    },
    {
      "midi": 76,
      "hit": false,
      "t": 247499.93399999972,
      "d": 534.0907666666608,
      "v": 103
    },
    {
      "midi": 83,
      "hit": false,
      "t": 248181.75199999972,
      "d": 4303.976125000045,
      "v": 103
    },
    {
      "midi": 48,
      "hit": false,
      "t": 248181.75199999986,
      "d": 5284.089500000002,
      "v": 72
    },
    {
      "midi": 43,
      "hit": false,
      "t": 248181.75199999986,
      "d": 5306.816766666656,
      "v": 80
    },
    {
      "midi": 55,
      "hit": false,
      "t": 248181.75199999986,
      "d": 5323.862216666661,
      "v": 89
    },
    {
      "midi": 36,
      "hit": false,
      "t": 248181.75199999986,
      "d": 5335.225849999988,
      "v": 78
    },
    {
      "midi": 59,
      "hit": false,
      "t": 248181.75199999986,
      "d": 5363.63493333332,
      "v": 95
    },
    {
      "midi": 64,
      "hit": false,
      "t": 248181.75199999986,
      "d": 5409.089466666657,
      "v": 102
    },
    {
      "midi": 79,
      "hit": false,
      "t": 248693.11549999972,
      "d": 3809.658075000043,
      "v": 103
    },
    {
      "midi": 76,
      "hit": false,
      "t": 249204.47899999973,
      "d": 3247.158225000021,
      "v": 103
    },
    {
      "midi": 71,
      "hit": false,
      "t": 249715.84249999974,
      "d": 2715.90836666667,
      "v": 103
    }
  ]
}