{
  "jsonPath": "Pop/Dance Pop/Charlie/georgia-on-my-mind.json",
  "path": "Pop\\Dance Pop\\Charlie\\Georgia on my Mind.mid",
  "name": "Georgia on my Mind",
  "difficulty": "Advanced",
  "bpm": 62.000124000248,
  "notes": [
    {
      "midi": 61,
      "hit": false,
      "t": 17419.32,
      "d": 7.560468750001746,
      "v": 114
    },
    {
      "midi": 50,
      "hit": false,
      "t": 17419.32,
      "d": 3830.6375000000007,
      "v": 104
    },
    {
      "midi": 55,
      "hit": false,
      "t": 17419.32,
      "d": 3830.6375000000007,
      "v": 104
    },
    {
      "midi": 59,
      "hit": false,
      "t": 17419.32,
      "d": 3830.6375000000007,
      "v": 104
    },
    {
      "midi": 62,
      "hit": false,
      "t": 17459.6425,
      "d": 2983.8650000000016,
      "v": 114
    },
    {
      "midi": 61,
      "hit": false,
      "t": 20604.797500000004,
      "d": 7.560468750001746,
      "v": 114
    },
    {
      "midi": 62,
      "hit": false,
      "t": 20645.120000000006,
      "d": 282.2574999999997,
      "v": 114
    },
    {
      "midi": 59,
      "hit": false,
      "t": 20967.700000000004,
      "d": 362.90250000000015,
      "v": 114
    },
    {
      "midi": 51,
      "hit": false,
      "t": 21290.28,
      "d": 2862.897499999999,
      "v": 104
    },
    {
      "midi": 54,
      "hit": false,
      "t": 21290.28,
      "d": 2862.897499999999,
      "v": 104
    },
    {
      "midi": 57,
      "hit": false,
      "t": 21290.28,
      "d": 2862.897499999999,
      "v": 104
    },
    {
      "midi": 59,
      "hit": false,
      "t": 21290.28,
      "d": 2862.897499999999,
      "v": 104
    },
    {
      "midi": 57,
      "hit": false,
      "t": 21290.280000000006,
      "d": 322.5799999999981,
      "v": 114
    },
    {
      "midi": 63,
      "hit": false,
      "t": 21935.440000000006,
      "d": 1814.5125000000007,
      "v": 114
    },
    {
      "midi": 71,
      "hit": false,
      "t": 21935.440000000006,
      "d": 1814.5125000000007,
      "v": 114
    },
    {
      "midi": 51,
      "hit": false,
      "t": 24193.499999999996,
      "d": 604.8375000000015,
      "v": 104
    },
    {
      "midi": 54,
      "hit": false,
      "t": 24193.499999999996,
      "d": 604.8375000000015,
      "v": 104
    },
    {
      "midi": 59,
      "hit": false,
      "t": 24193.499999999996,
      "d": 604.8375000000015,
      "v": 104
    },
    {
      "midi": 69,
      "hit": false,
      "t": 24193.500000000007,
      "d": 322.58000000000175,
      "v": 114
    },
    {
      "midi": 63,
      "hit": false,
      "t": 24193.500000000007,
      "d": 725.8050000000003,
      "v": 114
    },
    {
      "midi": 66,
      "hit": false,
      "t": 24193.500000000007,
      "d": 725.8050000000003,
      "v": 114
    },
    {
      "midi": 71,
      "hit": false,
      "t": 24516.08000000001,
      "d": 201.61249999999927,
      "v": 114
    },
    {
      "midi": 51,
      "hit": false,
      "t": 24838.659999999996,
      "d": 282.2574999999997,
      "v": 104
    },
    {
      "midi": 54,
      "hit": false,
      "t": 24838.659999999996,
      "d": 282.2574999999997,
      "v": 104
    },
    {
      "midi": 57,
      "hit": false,
      "t": 24838.659999999996,
      "d": 282.2574999999997,
      "v": 104
    },
    {
      "midi": 69,
      "hit": false,
      "t": 24838.660000000007,
      "d": 161.29000000000087,
      "v": 114
    },
    {
      "midi": 52,
      "hit": false,
      "t": 25161.239999999994,
      "d": 604.8375000000015,
      "v": 104
    },
    {
      "midi": 55,
      "hit": false,
      "t": 25161.239999999994,
      "d": 604.8375000000015,
      "v": 104
    },
    {
      "midi": 59,
      "hit": false,
      "t": 25161.239999999994,
      "d": 604.8375000000015,
      "v": 104
    },
    {
      "midi": 67,
      "hit": false,
      "t": 25161.24000000001,
      "d": 282.2574999999997,
      "v": 114
    },
    {
      "midi": 59,
      "hit": false,
      "t": 25161.24000000001,
      "d": 604.8374999999978,
      "v": 114
    },
    {
      "midi": 64,
      "hit": false,
      "t": 25161.24000000001,
      "d": 604.8374999999978,
      "v": 114
    },
    {
      "midi": 69,
      "hit": false,
      "t": 25483.820000000007,
      "d": 282.2574999999997,
      "v": 114
    },
    {
      "midi": 52,
      "hit": false,
      "t": 25806.399999999994,
      "d": 1249.9975000000013,
      "v": 104
    },
    {
      "midi": 55,
      "hit": false,
      "t": 25806.399999999994,
      "d": 1249.9975000000013,
      "v": 104
    },
    {
      "midi": 59,
      "hit": false,
      "t": 25806.399999999994,
      "d": 1249.9975000000013,
      "v": 104
    },
    {
      "midi": 59,
      "hit": false,
      "t": 25806.400000000005,
      "d": 1290.3199999999997,
      "v": 114
    },
    {
      "midi": 64,
      "hit": false,
      "t": 25806.400000000005,
      "d": 1290.3199999999997,
      "v": 114
    },
    {
      "midi": 67,
      "hit": false,
      "t": 25806.400000000005,
      "d": 1330.642499999998,
      "v": 114
    },
    {
      "midi": 50,
      "hit": false,
      "t": 27741.879999999997,
      "d": 927.4174999999996,
      "v": 104
    },
    {
      "midi": 53,
      "hit": false,
      "t": 27741.879999999997,
      "d": 927.4174999999996,
      "v": 104
    },
    {
      "midi": 55,
      "hit": false,
      "t": 27741.879999999997,
      "d": 927.4174999999996,
      "v": 104
    },
    {
      "midi": 59,
      "hit": false,
      "t": 27741.879999999997,
      "d": 927.4174999999996,
      "v": 104
    },
    {
      "midi": 62,
      "hit": false,
      "t": 27741.880000000005,
      "d": 282.2574999999997,
      "v": 114
    },
    {
      "midi": 67,
      "hit": false,
      "t": 27741.880000000005,
      "d": 282.2574999999997,
      "v": 114
    },
    {
      "midi": 59,
      "hit": false,
      "t": 27741.880000000005,
      "d": 1048.3849999999984,
      "v": 114
    },
    {
      "midi": 62,
      "hit": false,
      "t": 28064.460000000003,
      "d": 685.4825000000019,
      "v": 114
    },
    {
      "midi": 67,
      "hit": false,
      "t": 28064.460000000003,
      "d": 685.4825000000019,
      "v": 114
    },
    {
      "midi": 50,
      "hit": false,
      "t": 28709.619999999995,
      "d": 282.2574999999997,
      "v": 104
    },
    {
      "midi": 53,
      "hit": false,
      "t": 28709.619999999995,
      "d": 282.2574999999997,
      "v": 104
    },
    {
      "midi": 55,
      "hit": false,
      "t": 28709.619999999995,
      "d": 282.2574999999997,
      "v": 104
    },
    {
      "midi": 59,
      "hit": false,
      "t": 28709.619999999995,
      "d": 282.2574999999997,
      "v": 104
    },
    {
      "midi": 55,
      "hit": false,
      "t": 29032.199999999993,
      "d": 1895.1575000000012,
      "v": 104
    },
    {
      "midi": 60,
      "hit": false,
      "t": 29032.199999999993,
      "d": 1895.1575000000012,
      "v": 104
    },
    {
      "midi": 62,
      "hit": false,
      "t": 29032.199999999993,
      "d": 1895.1575000000012,
      "v": 104
    },
    {
      "midi": 64,
      "hit": false,
      "t": 29032.199999999993,
      "d": 1895.1575000000012,
      "v": 104
    },
    {
      "midi": 67,
      "hit": false,
      "t": 29999.940000000002,
      "d": 282.2574999999997,
      "v": 114
    },
    {
      "midi": 69,
      "hit": false,
      "t": 30322.52,
      "d": 282.2574999999997,
      "v": 114
    },
    {
      "midi": 67,
      "hit": false,
      "t": 30645.1,
      "d": 282.2574999999997,
      "v": 114
    },
    {
      "midi": 55,
      "hit": false,
      "t": 30967.679999999993,
      "d": 604.8375000000015,
      "v": 104
    },
    {
      "midi": 58,
      "hit": false,
      "t": 30967.679999999993,
      "d": 604.8375000000015,
      "v": 104
    },
    {
      "midi": 61,
      "hit": false,
      "t": 30967.679999999993,
      "d": 604.8375000000015,
      "v": 104
    },
    {
      "midi": 64,
      "hit": false,
      "t": 30967.679999999993,
      "d": 604.8375000000015,
      "v": 104
    },
    {
      "midi": 70,
      "hit": false,
      "t": 30967.679999999997,
      "d": 1491.932499999999,
      "v": 114
    },
    {
      "midi": 55,
      "hit": false,
      "t": 31612.839999999993,
      "d": 1249.9975000000013,
      "v": 104
    },
    {
      "midi": 58,
      "hit": false,
      "t": 31612.839999999993,
      "d": 1249.9975000000013,
      "v": 104
    },
    {
      "midi": 61,
      "hit": false,
      "t": 31612.839999999993,
      "d": 1249.9975000000013,
      "v": 104
    },
    {
      "midi": 64,
      "hit": false,
      "t": 31612.839999999993,
      "d": 1249.9975000000013,
      "v": 104
    },
    {
      "midi": 55,
      "hit": false,
      "t": 32903.159999999996,
      "d": 1895.1575000000012,
      "v": 104
    },
    {
      "midi": 57,
      "hit": false,
      "t": 32903.159999999996,
      "d": 1895.1575000000012,
      "v": 104
    },
    {
      "midi": 59,
      "hit": false,
      "t": 32903.159999999996,
      "d": 1895.1575000000012,
      "v": 104
    },
    {
      "midi": 62,
      "hit": false,
      "t": 32903.159999999996,
      "d": 1895.1575000000012,
      "v": 104
    },
    {
      "midi": 72,
      "hit": false,
      "t": 34838.64,
      "d": 604.8375000000015,
      "v": 114
    },
    {
      "midi": 68,
      "hit": false,
      "t": 34838.64,
      "d": 645.1600000000035,
      "v": 114
    },
    {
      "midi": 62,
      "hit": false,
      "t": 34838.64,
      "d": 887.0950000000012,
      "v": 114
    },
    {
      "midi": 64,
      "hit": false,
      "t": 34838.64,
      "d": 887.0950000000012,
      "v": 114
    },
    {
      "midi": 52,
      "hit": false,
      "t": 34838.64,
      "d": 1895.1575000000012,
      "v": 104
    },
    {
      "midi": 56,
      "hit": false,
      "t": 34838.64,
      "d": 1895.1575000000012,
      "v": 104
    },
    {
      "midi": 60,
      "hit": false,
      "t": 34838.64,
      "d": 1895.1575000000012,
      "v": 104
    },
    {
      "midi": 64,
      "hit": false,
      "t": 34838.64,
      "d": 1895.1575000000012,
      "v": 104
    },
    {
      "midi": 75,
      "hit": false,
      "t": 35806.38,
      "d": 7.560468750001746,
      "v": 114
    },
    {
      "midi": 76,
      "hit": false,
      "t": 35846.7025,
      "d": 241.93499999999767,
      "v": 114
    },
    {
      "midi": 64,
      "hit": false,
      "t": 36128.96,
      "d": 282.2574999999997,
      "v": 114
    },
    {
      "midi": 62,
      "hit": false,
      "t": 36451.54,
      "d": 322.58000000000175,
      "v": 114
    },
    {
      "midi": 61,
      "hit": false,
      "t": 36774.12,
      "d": 403.22499999999854,
      "v": 114
    },
    {
      "midi": 55,
      "hit": false,
      "t": 36774.12,
      "d": 1895.1575000000012,
      "v": 104
    },
    {
      "midi": 59,
      "hit": false,
      "t": 36774.12,
      "d": 1895.1575000000012,
      "v": 104
    },
    {
      "midi": 61,
      "hit": false,
      "t": 36774.12,
      "d": 1895.1575000000012,
      "v": 104
    },
    {
      "midi": 64,
      "hit": false,
      "t": 36774.12,
      "d": 1895.1575000000012,
      "v": 104
    },
    {
      "midi": 70,
      "hit": false,
      "t": 37419.28,
      "d": 40.32250000000204,
      "v": 114
    },
    {
      "midi": 71,
      "hit": false,
      "t": 37419.28,
      "d": 282.2574999999997,
      "v": 114
    },
    {
      "midi": 71,
      "hit": false,
      "t": 37741.86,
      "d": 927.4175000000032,
      "v": 114
    },
    {
      "midi": 67,
      "hit": false,
      "t": 38709.600000000006,
      "d": 927.4175000000032,
      "v": 114
    },
    {
      "midi": 50,
      "hit": false,
      "t": 38709.600000000006,
      "d": 927.4175000000032,
      "v": 104
    },
    {
      "midi": 55,
      "hit": false,
      "t": 38709.600000000006,
      "d": 927.4175000000032,
      "v": 104
    },
    {
      "midi": 57,
      "hit": false,
      "t": 38709.600000000006,
      "d": 927.4175000000032,
      "v": 104
    },
    {
      "midi": 60,
      "hit": false,
      "t": 38709.600000000006,
      "d": 927.4175000000032,
      "v": 104
    },
    {
      "midi": 64,
      "hit": false,
      "t": 38709.600000000006,
      "d": 927.4175000000032,
      "v": 104
    },
    {
      "midi": 66,
      "hit": false,
      "t": 39677.34000000001,
      "d": 927.4175000000032,
      "v": 114
    },
    {
      "midi": 50,
      "hit": false,
      "t": 39677.34000000001,
      "d": 927.4175000000032,
      "v": 104
    },
    {
      "midi": 54,
      "hit": false,
      "t": 39677.34000000001,
      "d": 927.4175000000032,
      "v": 104
    },
    {
      "midi": 57,
      "hit": false,
      "t": 39677.34000000001,
      "d": 927.4175000000032,
      "v": 104
    },
    {
      "midi": 60,
      "hit": false,
      "t": 39677.34000000001,
      "d": 927.4175000000032,
      "v": 104
    },
    {
      "midi": 64,
      "hit": false,
      "t": 39677.34000000001,
      "d": 927.4175000000032,
      "v": 104
    },
    {
      "midi": 63,
      "hit": false,
      "t": 40645.080000000016,
      "d": 1572.5774999999994,
      "v": 114
    },
    {
      "midi": 67,
      "hit": false,
      "t": 40645.080000000016,
      "d": 1572.5774999999994,
      "v": 114
    },
    {
      "midi": 71,
      "hit": false,
      "t": 40645.080000000016,
      "d": 1572.5774999999994,
      "v": 114
    },
    {
      "midi": 53,
      "hit": false,
      "t": 40645.080000000016,
      "d": 1895.1575000000012,
      "v": 104
    },
    {
      "midi": 59,
      "hit": false,
      "t": 40645.080000000016,
      "d": 1895.1575000000012,
      "v": 104
    },
    {
      "midi": 63,
      "hit": false,
      "t": 40645.080000000016,
      "d": 1895.1575000000012,
      "v": 104
    },
    {
      "midi": 65,
      "hit": false,
      "t": 40645.080000000016,
      "d": 1895.1575000000012,
      "v": 104
    },
    {
      "midi": 67,
      "hit": false,
      "t": 40645.080000000016,
      "d": 1895.1575000000012,
      "v": 104
    },
    {
      "midi": 70,
      "hit": false,
      "t": 42257.98000000002,
      "d": 7.560468750001746,
      "v": 114
    },
    {
      "midi": 73,
      "hit": false,
      "t": 42257.98000000002,
      "d": 7.560468750001746,
      "v": 114
    },
    {
      "midi": 71,
      "hit": false,
      "t": 42257.98000000002,
      "d": 322.58000000000175,
      "v": 114
    },
    {
      "midi": 74,
      "hit": false,
      "t": 42257.98000000002,
      "d": 322.58000000000175,
      "v": 114
    },
    {
      "midi": 62,
      "hit": false,
      "t": 42580.56000000002,
      "d": 604.8375000000015,
      "v": 114
    },
    {
      "midi": 52,
      "hit": false,
      "t": 42580.56000000002,
      "d": 1895.1575000000012,
      "v": 104
    },
    {
      "midi": 59,
      "hit": false,
      "t": 42580.56000000002,
      "d": 1895.1575000000012,
      "v": 104
    },
    {
      "midi": 62,
      "hit": false,
      "t": 42580.56000000002,
      "d": 1895.1575000000012,
      "v": 104
    },
    {
      "midi": 66,
      "hit": false,
      "t": 42580.56000000002,
      "d": 1895.1575000000012,
      "v": 104
    },
    {
      "midi": 76,
      "hit": false,
      "t": 43225.72000000002,
      "d": 241.93499999999767,
      "v": 114
    },
    {
      "midi": 76,
      "hit": false,
      "t": 43548.30000000002,
      "d": 282.2574999999997,
      "v": 114
    },
    {
      "midi": 64,
      "hit": false,
      "t": 43870.88000000002,
      "d": 282.2574999999997,
      "v": 114
    },
    {
      "midi": 62,
      "hit": false,
      "t": 44193.46000000002,
      "d": 282.2574999999997,
      "v": 114
    },
    {
      "midi": 61,
      "hit": false,
      "t": 44516.04000000002,
      "d": 604.8375000000015,
      "v": 114
    },
    {
      "midi": 55,
      "hit": false,
      "t": 44516.04000000002,
      "d": 1895.1575000000012,
      "v": 104
    },
    {
      "midi": 57,
      "hit": false,
      "t": 44516.04000000002,
      "d": 1895.1575000000012,
      "v": 104
    },
    {
      "midi": 61,
      "hit": false,
      "t": 44516.04000000002,
      "d": 1895.1575000000012,
      "v": 104
    },
    {
      "midi": 64,
      "hit": false,
      "t": 44516.04000000002,
      "d": 1895.1575000000012,
      "v": 104
    },
    {
      "midi": 71,
      "hit": false,
      "t": 45161.200000000026,
      "d": 201.6125000000029,
      "v": 114
    },
    {
      "midi": 67,
      "hit": false,
      "t": 45483.78000000003,
      "d": 282.2574999999997,
      "v": 114
    },
    {
      "midi": 69,
      "hit": false,
      "t": 45806.36000000003,
      "d": 282.2574999999997,
      "v": 114
    },
    {
      "midi": 67,
      "hit": false,
      "t": 46128.94000000003,
      "d": 282.2574999999997,
      "v": 114
    },
    {
      "midi": 50,
      "hit": false,
      "t": 46451.520000000026,
      "d": 1895.1575000000012,
      "v": 104
    },
    {
      "midi": 54,
      "hit": false,
      "t": 46451.520000000026,
      "d": 1895.1575000000012,
      "v": 104
    },
    {
      "midi": 58,
      "hit": false,
      "t": 46451.520000000026,
      "d": 1895.1575000000012,
      "v": 104
    },
    {
      "midi": 60,
      "hit": false,
      "t": 46451.520000000026,
      "d": 1895.1575000000012,
      "v": 104
    },
    {
      "midi": 62,
      "hit": false,
      "t": 46451.520000000026,
      "d": 1895.1575000000012,
      "v": 104
    },
    {
      "midi": 71,
      "hit": false,
      "t": 46451.52000000003,
      "d": 282.2574999999997,
      "v": 114
    },
    {
      "midi": 74,
      "hit": false,
      "t": 46774.100000000035,
      "d": 282.2574999999997,
      "v": 114
    },
    {
      "midi": 62,
      "hit": false,
      "t": 47096.68000000004,
      "d": 282.2574999999997,
      "v": 114
    },
    {
      "midi": 74,
      "hit": false,
      "t": 47419.26000000004,
      "d": 282.2574999999997,
      "v": 114
    },
    {
      "midi": 62,
      "hit": false,
      "t": 47741.84000000004,
      "d": 604.8375000000015,
      "v": 114
    },
    {
      "midi": 50,
      "hit": false,
      "t": 48387.00000000003,
      "d": 1572.5774999999994,
      "v": 104
    },
    {
      "midi": 55,
      "hit": false,
      "t": 48387.00000000003,
      "d": 1572.5774999999994,
      "v": 104
    },
    {
      "midi": 59,
      "hit": false,
      "t": 48387.00000000003,
      "d": 1572.5774999999994,
      "v": 104
    },
    {
      "midi": 61,
      "hit": false,
      "t": 48387.000000000044,
      "d": 7.560468750001746,
      "v": 114
    },
    {
      "midi": 70,
      "hit": false,
      "t": 48387.000000000044,
      "d": 7.560468750001746,
      "v": 114
    },
    {
      "midi": 62,
      "hit": false,
      "t": 48387.000000000044,
      "d": 1008.0625,
      "v": 114
    },
    {
      "midi": 71,
      "hit": false,
      "t": 48387.000000000044,
      "d": 1048.385000000002,
      "v": 114
    },
    {
      "midi": 66,
      "hit": false,
      "t": 49959.57750000004,
      "d": 7.560468750001746,
      "v": 114
    },
    {
      "midi": 75,
      "hit": false,
      "t": 49959.57750000004,
      "d": 7.560468750001746,
      "v": 114
    },
    {
      "midi": 52,
      "hit": false,
      "t": 49999.90000000003,
      "d": 282.2574999999997,
      "v": 104
    },
    {
      "midi": 55,
      "hit": false,
      "t": 49999.90000000003,
      "d": 282.2574999999997,
      "v": 104
    },
    {
      "midi": 59,
      "hit": false,
      "t": 49999.90000000003,
      "d": 282.2574999999997,
      "v": 104
    },
    {
      "midi": 76,
      "hit": false,
      "t": 49999.900000000045,
      "d": 282.2574999999997,
      "v": 114
    },
    {
      "midi": 67,
      "hit": false,
      "t": 49999.900000000045,
      "d": 524.1924999999974,
      "v": 114
    },
    {
      "midi": 50,
      "hit": false,
      "t": 50322.48000000003,
      "d": 604.8375000000015,
      "v": 104
    },
    {
      "midi": 55,
      "hit": false,
      "t": 50322.48000000003,
      "d": 604.8375000000015,
      "v": 104
    },
    {
      "midi": 59,
      "hit": false,
      "t": 50322.48000000003,
      "d": 604.8375000000015,
      "v": 104
    },
    {
      "midi": 74,
      "hit": false,
      "t": 50362.80250000004,
      "d": 161.29000000000087,
      "v": 114
    },
    {
      "midi": 52,
      "hit": false,
      "t": 50967.640000000036,
      "d": 282.2574999999997,
      "v": 104
    },
    {
      "midi": 55,
      "hit": false,
      "t": 50967.640000000036,
      "d": 282.2574999999997,
      "v": 104
    },
    {
      "midi": 59,
      "hit": false,
      "t": 50967.640000000036,
      "d": 282.2574999999997,
      "v": 104
    },
    {
      "midi": 70,
      "hit": false,
      "t": 50967.64000000004,
      "d": 7.560468750001746,
      "v": 114
    },
    {
      "midi": 71,
      "hit": false,
      "t": 51007.962500000045,
      "d": 282.2574999999997,
      "v": 114
    },
    {
      "midi": 62,
      "hit": false,
      "t": 51007.962500000045,
      "d": 362.9024999999965,
      "v": 114
    },
    {
      "midi": 50,
      "hit": false,
      "t": 51290.22000000004,
      "d": 604.8375000000015,
      "v": 104
    },
    {
      "midi": 55,
      "hit": false,
      "t": 51290.22000000004,
      "d": 604.8375000000015,
      "v": 104
    },
    {
      "midi": 59,
      "hit": false,
      "t": 51290.22000000004,
      "d": 604.8375000000015,
      "v": 104
    },
    {
      "midi": 67,
      "hit": false,
      "t": 51290.220000000045,
      "d": 282.2574999999997,
      "v": 114
    },
    {
      "midi": 62,
      "hit": false,
      "t": 51612.80000000005,
      "d": 282.2574999999997,
      "v": 114
    },
    {
      "midi": 50,
      "hit": false,
      "t": 51935.38000000004,
      "d": 282.2574999999997,
      "v": 104
    },
    {
      "midi": 55,
      "hit": false,
      "t": 51935.38000000004,
      "d": 282.2574999999997,
      "v": 104
    },
    {
      "midi": 59,
      "hit": false,
      "t": 51935.38000000004,
      "d": 282.2574999999997,
      "v": 104
    },
    {
      "midi": 64,
      "hit": false,
      "t": 51935.38000000005,
      "d": 161.29000000000087,
      "v": 114
    },
    {
      "midi": 51,
      "hit": false,
      "t": 52257.96000000004,
      "d": 2862.897499999999,
      "v": 104
    },
    {
      "midi": 54,
      "hit": false,
      "t": 52257.96000000004,
      "d": 2862.897499999999,
      "v": 104
    },
    {
      "midi": 57,
      "hit": false,
      "t": 52257.96000000004,
      "d": 2862.897499999999,
      "v": 104
    },
    {
      "midi": 59,
      "hit": false,
      "t": 52257.96000000004,
      "d": 2862.897499999999,
      "v": 104
    },
    {
      "midi": 57,
      "hit": false,
      "t": 52257.96000000005,
      "d": 604.8375000000015,
      "v": 114
    },
    {
      "midi": 66,
      "hit": false,
      "t": 52257.96000000005,
      "d": 604.8375000000015,
      "v": 114
    },
    {
      "midi": 71,
      "hit": false,
      "t": 52903.12000000005,
      "d": 282.2574999999997,
      "v": 114
    },
    {
      "midi": 63,
      "hit": false,
      "t": 53225.700000000055,
      "d": 1895.1575000000012,
      "v": 114
    },
    {
      "midi": 66,
      "hit": false,
      "t": 53225.700000000055,
      "d": 1895.1575000000012,
      "v": 114
    },
    {
      "midi": 69,
      "hit": false,
      "t": 53225.700000000055,
      "d": 1895.1575000000012,
      "v": 114
    },
    {
      "midi": 51,
      "hit": false,
      "t": 55161.180000000044,
      "d": 604.8375000000015,
      "v": 104
    },
    {
      "midi": 54,
      "hit": false,
      "t": 55161.180000000044,
      "d": 604.8375000000015,
      "v": 104
    },
    {
      "midi": 59,
      "hit": false,
      "t": 55161.180000000044,
      "d": 604.8375000000015,
      "v": 104
    },
    {
      "midi": 63,
      "hit": false,
      "t": 55161.18000000006,
      "d": 282.2574999999997,
      "v": 114
    },
    {
      "midi": 66,
      "hit": false,
      "t": 55161.18000000006,
      "d": 282.2574999999997,
      "v": 114
    },
    {
      "midi": 69,
      "hit": false,
      "t": 55161.18000000006,
      "d": 282.2574999999997,
      "v": 114
    },
    {
      "midi": 71,
      "hit": false,
      "t": 55483.76000000006,
      "d": 282.2574999999997,
      "v": 114
    },
    {
      "midi": 51,
      "hit": false,
      "t": 55806.34000000005,
      "d": 282.2574999999997,
      "v": 104
    },
    {
      "midi": 54,
      "hit": false,
      "t": 55806.34000000005,
      "d": 282.2574999999997,
      "v": 104
    },
    {
      "midi": 57,
      "hit": false,
      "t": 55806.34000000005,
      "d": 282.2574999999997,
      "v": 104
    },
    {
      "midi": 63,
      "hit": false,
      "t": 55806.34000000006,
      "d": 282.2574999999997,
      "v": 114
    },
    {
      "midi": 66,
      "hit": false,
      "t": 55806.34000000006,
      "d": 282.2574999999997,
      "v": 114
    },
    {
      "midi": 69,
      "hit": false,
      "t": 55806.34000000006,
      "d": 282.2574999999997,
      "v": 114
    },
    {
      "midi": 52,
      "hit": false,
      "t": 56128.92000000005,
      "d": 604.8375000000015,
      "v": 104
    },
    {
      "midi": 55,
      "hit": false,
      "t": 56128.92000000005,
      "d": 604.8375000000015,
      "v": 104
    },
    {
      "midi": 59,
      "hit": false,
      "t": 56128.92000000005,
      "d": 604.8375000000015,
      "v": 104
    },
    {
      "midi": 67,
      "hit": false,
      "t": 56128.920000000064,
      "d": 282.2574999999997,
      "v": 114
    },
    {
      "midi": 59,
      "hit": false,
      "t": 56128.920000000064,
      "d": 604.8375000000015,
      "v": 114
    },
    {
      "midi": 64,
      "hit": false,
      "t": 56128.920000000064,
      "d": 604.8375000000015,
      "v": 114
    },
    {
      "midi": 69,
      "hit": false,
      "t": 56451.500000000065,
      "d": 282.2574999999997,
      "v": 114
    },
    {
      "midi": 52,
      "hit": false,
      "t": 56774.08000000005,
      "d": 1249.9974999999977,
      "v": 104
    },
    {
      "midi": 55,
      "hit": false,
      "t": 56774.08000000005,
      "d": 1249.9974999999977,
      "v": 104
    },
    {
      "midi": 59,
      "hit": false,
      "t": 56774.08000000005,
      "d": 1249.9974999999977,
      "v": 104
    },
    {
      "midi": 59,
      "hit": false,
      "t": 56774.08000000007,
      "d": 1290.3199999999997,
      "v": 114
    },
    {
      "midi": 64,
      "hit": false,
      "t": 56774.08000000007,
      "d": 1290.3199999999997,
      "v": 114
    },
    {
      "midi": 67,
      "hit": false,
      "t": 56774.08000000007,
      "d": 1290.3199999999997,
      "v": 114
    },
    {
      "midi": 50,
      "hit": false,
      "t": 58709.56000000005,
      "d": 927.4175000000032,
      "v": 104
    },
    {
      "midi": 53,
      "hit": false,
      "t": 58709.56000000005,
      "d": 927.4175000000032,
      "v": 104
    },
    {
      "midi": 55,
      "hit": false,
      "t": 58709.56000000005,
      "d": 927.4175000000032,
      "v": 104
    },
    {
      "midi": 59,
      "hit": false,
      "t": 58709.56000000005,
      "d": 927.4175000000032,
      "v": 104
    },
    {
      "midi": 62,
      "hit": false,
      "t": 58709.56000000007,
      "d": 282.2574999999997,
      "v": 114
    },
    {
      "midi": 67,
      "hit": false,
      "t": 58709.56000000007,
      "d": 282.2574999999997,
      "v": 114
    },
    {
      "midi": 59,
      "hit": false,
      "t": 58709.56000000007,
      "d": 1048.385000000002,
      "v": 114
    },
    {
      "midi": 62,
      "hit": false,
      "t": 59032.14000000007,
      "d": 685.4824999999983,
      "v": 114
    },
    {
      "midi": 67,
      "hit": false,
      "t": 59032.14000000007,
      "d": 685.4824999999983,
      "v": 114
    },
    {
      "midi": 50,
      "hit": false,
      "t": 59677.300000000054,
      "d": 282.2574999999997,
      "v": 104
    },
    {
      "midi": 53,
      "hit": false,
      "t": 59677.300000000054,
      "d": 282.2574999999997,
      "v": 104
    },
    {
      "midi": 55,
      "hit": false,
      "t": 59677.300000000054,
      "d": 282.2574999999997,
      "v": 104
    },
    {
      "midi": 59,
      "hit": false,
      "t": 59677.300000000054,
      "d": 282.2574999999997,
      "v": 104
    },
    {
      "midi": 55,
      "hit": false,
      "t": 59999.880000000056,
      "d": 1895.1575000000012,
      "v": 104
    },
    {
      "midi": 60,
      "hit": false,
      "t": 59999.880000000056,
      "d": 1895.1575000000012,
      "v": 104
    },
    {
      "midi": 62,
      "hit": false,
      "t": 59999.880000000056,
      "d": 1895.1575000000012,
      "v": 104
    },
    {
      "midi": 64,
      "hit": false,
      "t": 59999.880000000056,
      "d": 1895.1575000000012,
      "v": 104
    },
    {
      "midi": 60,
      "hit": false,
      "t": 60967.620000000075,
      "d": 927.4175000000032,
      "v": 114
    },
    {
      "midi": 62,
      "hit": false,
      "t": 60967.620000000075,
      "d": 927.4175000000032,
      "v": 114
    },
    {
      "midi": 64,
      "hit": false,
      "t": 60967.620000000075,
      "d": 927.4175000000032,
      "v": 114
    },
    {
      "midi": 67,
      "hit": false,
      "t": 60967.620000000075,
      "d": 927.4175000000032,
      "v": 114
    },
    {
      "midi": 55,
      "hit": false,
      "t": 61935.36000000006,
      "d": 604.8375000000015,
      "v": 104
    },
    {
      "midi": 58,
      "hit": false,
      "t": 61935.36000000006,
      "d": 604.8375000000015,
      "v": 104
    },
    {
      "midi": 61,
      "hit": false,
      "t": 61935.36000000006,
      "d": 604.8375000000015,
      "v": 104
    },
    {
      "midi": 64,
      "hit": false,
      "t": 61935.36000000006,
      "d": 604.8375000000015,
      "v": 104
    },
    {
      "midi": 61,
      "hit": false,
      "t": 61935.36000000008,
      "d": 927.4175000000032,
      "v": 114
    },
    {
      "midi": 64,
      "hit": false,
      "t": 61935.36000000008,
      "d": 927.4175000000032,
      "v": 114
    },
    {
      "midi": 67,
      "hit": false,
      "t": 61935.36000000008,
      "d": 927.4175000000032,
      "v": 114
    },
    {
      "midi": 55,
      "hit": false,
      "t": 62580.52000000006,
      "d": 1249.9974999999977,
      "v": 104
    },
    {
      "midi": 58,
      "hit": false,
      "t": 62580.52000000006,
      "d": 1249.9974999999977,
      "v": 104
    },
    {
      "midi": 61,
      "hit": false,
      "t": 62580.52000000006,
      "d": 1249.9974999999977,
      "v": 104
    },
    {
      "midi": 64,
      "hit": false,
      "t": 62580.52000000006,
      "d": 1249.9974999999977,
      "v": 104
    },
    {
      "midi": 58,
      "hit": false,
      "t": 62903.100000000086,
      "d": 927.4175000000032,
      "v": 114
    },
    {
      "midi": 64,
      "hit": false,
      "t": 62903.100000000086,
      "d": 927.4175000000032,
      "v": 114
    },
    {
      "midi": 67,
      "hit": false,
      "t": 62903.100000000086,
      "d": 927.4175000000032,
      "v": 114
    },
    {
      "midi": 55,
      "hit": false,
      "t": 63870.84000000006,
      "d": 1895.157499999994,
      "v": 104
    },
    {
      "midi": 57,
      "hit": false,
      "t": 63870.84000000006,
      "d": 1895.157499999994,
      "v": 104
    },
    {
      "midi": 59,
      "hit": false,
      "t": 63870.84000000006,
      "d": 1895.157499999994,
      "v": 104
    },
    {
      "midi": 62,
      "hit": false,
      "t": 63870.84000000006,
      "d": 1895.157499999994,
      "v": 104
    },
    {
      "midi": 52,
      "hit": false,
      "t": 65806.32000000005,
      "d": 1895.1575000000012,
      "v": 104
    },
    {
      "midi": 56,
      "hit": false,
      "t": 65806.32000000005,
      "d": 1895.1575000000012,
      "v": 104
    },
    {
      "midi": 60,
      "hit": false,
      "t": 65806.32000000005,
      "d": 1895.1575000000012,
      "v": 104
    },
    {
      "midi": 64,
      "hit": false,
      "t": 65806.32000000005,
      "d": 1895.1575000000012,
      "v": 104
    },
    {
      "midi": 62,
      "hit": false,
      "t": 65806.3200000001,
      "d": 604.8374999999942,
      "v": 114
    },
    {
      "midi": 64,
      "hit": false,
      "t": 65806.3200000001,
      "d": 604.8374999999942,
      "v": 114
    },
    {
      "midi": 68,
      "hit": false,
      "t": 65806.3200000001,
      "d": 604.8374999999942,
      "v": 114
    },
    {
      "midi": 71,
      "hit": false,
      "t": 65806.3200000001,
      "d": 604.8374999999942,
      "v": 114
    },
    {
      "midi": 76,
      "hit": false,
      "t": 66451.48000000008,
      "d": 604.8374999999942,
      "v": 114
    },
    {
      "midi": 71,
      "hit": false,
      "t": 67096.64000000007,
      "d": 120.96749999999884,
      "v": 114
    },
    {
      "midi": 68,
      "hit": false,
      "t": 67257.93000000007,
      "d": 120.96749999999884,
      "v": 114
    },
    {
      "midi": 64,
      "hit": false,
      "t": 67419.22000000006,
      "d": 120.96749999999884,
      "v": 114
    },
    {
      "midi": 62,
      "hit": false,
      "t": 67580.51000000005,
      "d": 120.96749999999884,
      "v": 114
    },
    {
      "midi": 61,
      "hit": false,
      "t": 67741.80000000005,
      "d": 604.8374999999942,
      "v": 114
    },
    {
      "midi": 55,
      "hit": false,
      "t": 67741.80000000005,
      "d": 1895.1575000000012,
      "v": 104
    },
    {
      "midi": 59,
      "hit": false,
      "t": 67741.80000000005,
      "d": 1895.1575000000012,
      "v": 104
    },
    {
      "midi": 61,
      "hit": false,
      "t": 67741.80000000005,
      "d": 1895.1575000000012,
      "v": 104
    },
    {
      "midi": 64,
      "hit": false,
      "t": 67741.80000000005,
      "d": 1895.1575000000012,
      "v": 104
    },
    {
      "midi": 61,
      "hit": false,
      "t": 68386.96000000004,
      "d": 282.257500000007,
      "v": 114
    },
    {
      "midi": 71,
      "hit": false,
      "t": 68386.96000000004,
      "d": 282.257500000007,
      "v": 114
    },
    {
      "midi": 67,
      "hit": false,
      "t": 68709.54000000004,
      "d": 927.4174999999959,
      "v": 114
    },
    {
      "midi": 60,
      "hit": false,
      "t": 69677.28000000003,
      "d": 927.4174999999959,
      "v": 114
    },
    {
      "midi": 64,
      "hit": false,
      "t": 69677.28000000003,
      "d": 927.4174999999959,
      "v": 114
    },
    {
      "midi": 67,
      "hit": false,
      "t": 69677.28000000003,
      "d": 927.4174999999959,
      "v": 114
    },
    {
      "midi": 50,
      "hit": false,
      "t": 69677.28000000004,
      "d": 927.4174999999959,
      "v": 104
    },
    {
      "midi": 55,
      "hit": false,
      "t": 69677.28000000004,
      "d": 927.4174999999959,
      "v": 104
    },
    {
      "midi": 57,
      "hit": false,
      "t": 69677.28000000004,
      "d": 927.4174999999959,
      "v": 104
    },
    {
      "midi": 60,
      "hit": false,
      "t": 69677.28000000004,
      "d": 927.4174999999959,
      "v": 104
    },
    {
      "midi": 64,
      "hit": false,
      "t": 69677.28000000004,
      "d": 927.4174999999959,
      "v": 104
    },
    {
      "midi": 60,
      "hit": false,
      "t": 70645.02000000002,
      "d": 604.8374999999942,
      "v": 114
    },
    {
      "midi": 64,
      "hit": false,
      "t": 70645.02000000002,
      "d": 604.8374999999942,
      "v": 114
    },
    {
      "midi": 67,
      "hit": false,
      "t": 70645.02000000002,
      "d": 604.8374999999942,
      "v": 114
    },
    {
      "midi": 50,
      "hit": false,
      "t": 70645.02000000003,
      "d": 927.4174999999959,
      "v": 104
    },
    {
      "midi": 54,
      "hit": false,
      "t": 70645.02000000003,
      "d": 927.4174999999959,
      "v": 104
    },
    {
      "midi": 57,
      "hit": false,
      "t": 70645.02000000003,
      "d": 927.4174999999959,
      "v": 104
    },
    {
      "midi": 60,
      "hit": false,
      "t": 70645.02000000003,
      "d": 927.4174999999959,
      "v": 104
    },
    {
      "midi": 64,
      "hit": false,
      "t": 70645.02000000003,
      "d": 927.4174999999959,
      "v": 104
    },
    {
      "midi": 64,
      "hit": false,
      "t": 71290.18000000001,
      "d": 282.257500000007,
      "v": 114
    },
    {
      "midi": 62,
      "hit": false,
      "t": 71612.76000000001,
      "d": 927.4174999999959,
      "v": 114
    },
    {
      "midi": 55,
      "hit": false,
      "t": 71612.76000000002,
      "d": 1895.1575000000012,
      "v": 104
    },
    {
      "midi": 57,
      "hit": false,
      "t": 71612.76000000002,
      "d": 1895.1575000000012,
      "v": 104
    },
    {
      "midi": 59,
      "hit": false,
      "t": 71612.76000000002,
      "d": 1895.1575000000012,
      "v": 104
    },
    {
      "midi": 62,
      "hit": false,
      "t": 71612.76000000002,
      "d": 1895.1575000000012,
      "v": 104
    },
    {
      "midi": 62,
      "hit": false,
      "t": 72903.08,
      "d": 120.96749999999884,
      "v": 114
    },
    {
      "midi": 63,
      "hit": false,
      "t": 73064.37,
      "d": 120.96749999999884,
      "v": 114
    },
    {
      "midi": 64,
      "hit": false,
      "t": 73225.65999999999,
      "d": 120.96749999999884,
      "v": 114
    },
    {
      "midi": 65,
      "hit": false,
      "t": 73386.94999999998,
      "d": 120.96749999999884,
      "v": 114
    },
    {
      "midi": 66,
      "hit": false,
      "t": 73548.23999999998,
      "d": 201.6125000000029,
      "v": 114
    },
    {
      "midi": 54,
      "hit": false,
      "t": 73548.24000000002,
      "d": 1895.1575000000012,
      "v": 104
    },
    {
      "midi": 58,
      "hit": false,
      "t": 73548.24000000002,
      "d": 1895.1575000000012,
      "v": 104
    },
    {
      "midi": 60,
      "hit": false,
      "t": 73548.24000000002,
      "d": 1895.1575000000012,
      "v": 104
    },
    {
      "midi": 64,
      "hit": false,
      "t": 73548.24000000002,
      "d": 1895.1575000000012,
      "v": 104
    },
    {
      "midi": 62,
      "hit": false,
      "t": 73790.17499999997,
      "d": 201.6125000000029,
      "v": 114
    },
    {
      "midi": 69,
      "hit": false,
      "t": 74032.10999999997,
      "d": 201.6125000000029,
      "v": 114
    },
    {
      "midi": 63,
      "hit": false,
      "t": 74274.04499999997,
      "d": 201.6125000000029,
      "v": 114
    },
    {
      "midi": 67,
      "hit": false,
      "t": 74515.97999999997,
      "d": 282.257500000007,
      "v": 114
    },
    {
      "midi": 69,
      "hit": false,
      "t": 74838.55999999997,
      "d": 120.96749999999884,
      "v": 114
    },
    {
      "midi": 67,
      "hit": false,
      "t": 74999.84999999996,
      "d": 120.96749999999884,
      "v": 114
    },
    {
      "midi": 63,
      "hit": false,
      "t": 75161.13999999996,
      "d": 120.96749999999884,
      "v": 114
    },
    {
      "midi": 59,
      "hit": false,
      "t": 75322.42999999995,
      "d": 120.96749999999884,
      "v": 114
    },
    {
      "midi": 62,
      "hit": false,
      "t": 75483.71999999994,
      "d": 604.8374999999942,
      "v": 114
    },
    {
      "midi": 55,
      "hit": false,
      "t": 75483.72000000002,
      "d": 1895.1575000000012,
      "v": 104
    },
    {
      "midi": 59,
      "hit": false,
      "t": 75483.72000000002,
      "d": 1895.1575000000012,
      "v": 104
    },
    {
      "midi": 62,
      "hit": false,
      "t": 75483.72000000002,
      "d": 1895.1575000000012,
      "v": 104
    },
    {
      "midi": 64,
      "hit": false,
      "t": 75483.72000000002,
      "d": 1895.1575000000012,
      "v": 104
    },
    {
      "midi": 59,
      "hit": false,
      "t": 76128.87999999993,
      "d": 282.257500000007,
      "v": 114
    },
    {
      "midi": 67,
      "hit": false,
      "t": 76451.45999999993,
      "d": 201.6125000000029,
      "v": 114
    },
    {
      "midi": 62,
      "hit": false,
      "t": 76693.39499999993,
      "d": 201.6125000000029,
      "v": 114
    },
    {
      "midi": 59,
      "hit": false,
      "t": 76935.32999999993,
      "d": 201.6125000000029,
      "v": 114
    },
    {
      "midi": 58,
      "hit": false,
      "t": 77177.26499999993,
      "d": 201.6125000000029,
      "v": 114
    },
    {
      "midi": 57,
      "hit": false,
      "t": 77419.19999999992,
      "d": 282.257500000007,
      "v": 114
    },
    {
      "midi": 54,
      "hit": false,
      "t": 77419.20000000001,
      "d": 1895.1575000000012,
      "v": 104
    },
    {
      "midi": 57,
      "hit": false,
      "t": 77419.20000000001,
      "d": 1895.1575000000012,
      "v": 104
    },
    {
      "midi": 59,
      "hit": false,
      "t": 77419.20000000001,
      "d": 1895.1575000000012,
      "v": 104
    },
    {
      "midi": 63,
      "hit": false,
      "t": 77419.20000000001,
      "d": 1895.1575000000012,
      "v": 104
    },
    {
      "midi": 59,
      "hit": false,
      "t": 77741.77999999993,
      "d": 120.96749999999884,
      "v": 114
    },
    {
      "midi": 63,
      "hit": false,
      "t": 77903.06999999992,
      "d": 120.96749999999884,
      "v": 114
    },
    {
      "midi": 66,
      "hit": false,
      "t": 78064.35999999991,
      "d": 120.96749999999884,
      "v": 114
    },
    {
      "midi": 71,
      "hit": false,
      "t": 78225.6499999999,
      "d": 120.96749999999884,
      "v": 114
    },
    {
      "midi": 69,
      "hit": false,
      "t": 78386.9399999999,
      "d": 282.257500000007,
      "v": 114
    },
    {
      "midi": 71,
      "hit": false,
      "t": 78709.5199999999,
      "d": 282.257500000007,
      "v": 114
    },
    {
      "midi": 69,
      "hit": false,
      "t": 79032.0999999999,
      "d": 282.257500000007,
      "v": 114
    },
    {
      "midi": 59,
      "hit": false,
      "t": 79354.6799999999,
      "d": 282.257500000007,
      "v": 114
    },
    {
      "midi": 64,
      "hit": false,
      "t": 79354.6799999999,
      "d": 282.257500000007,
      "v": 114
    },
    {
      "midi": 67,
      "hit": false,
      "t": 79354.6799999999,
      "d": 282.257500000007,
      "v": 114
    },
    {
      "midi": 52,
      "hit": false,
      "t": 79354.68000000001,
      "d": 604.8374999999942,
      "v": 104
    },
    {
      "midi": 55,
      "hit": false,
      "t": 79354.68000000001,
      "d": 604.8374999999942,
      "v": 104
    },
    {
      "midi": 59,
      "hit": false,
      "t": 79354.68000000001,
      "d": 604.8374999999942,
      "v": 104
    },
    {
      "midi": 69,
      "hit": false,
      "t": 79677.25999999991,
      "d": 282.257500000007,
      "v": 114
    },
    {
      "midi": 59,
      "hit": false,
      "t": 79999.83999999991,
      "d": 3830.637499999997,
      "v": 114
    },
    {
      "midi": 64,
      "hit": false,
      "t": 79999.83999999991,
      "d": 3830.637499999997,
      "v": 114
    },
    {
      "midi": 67,
      "hit": false,
      "t": 79999.83999999991,
      "d": 3830.637499999997,
      "v": 114
    },
    {
      "midi": 52,
      "hit": false,
      "t": 79999.84,
      "d": 1249.9974999999977,
      "v": 104
    },
    {
      "midi": 55,
      "hit": false,
      "t": 79999.84,
      "d": 1249.9974999999977,
      "v": 104
    },
    {
      "midi": 59,
      "hit": false,
      "t": 79999.84,
      "d": 1249.9974999999977,
      "v": 104
    },
    {
      "midi": 64,
      "hit": false,
      "t": 83870.7999999999,
      "d": 282.257500000007,
      "v": 114
    },
    {
      "midi": 67,
      "hit": false,
      "t": 84193.3799999999,
      "d": 927.4174999999959,
      "v": 114
    },
    {
      "midi": 67,
      "hit": false,
      "t": 86451.4399999999,
      "d": 282.257500000007,
      "v": 114
    },
    {
      "midi": 60,
      "hit": false,
      "t": 86774.0199999999,
      "d": 282.257500000007,
      "v": 114
    },
    {
      "midi": 64,
      "hit": false,
      "t": 87096.5999999999,
      "d": 282.257500000007,
      "v": 114
    },
    {
      "midi": 52,
      "hit": false,
      "t": 87096.59999999999,
      "d": 604.8374999999942,
      "v": 104
    },
    {
      "midi": 55,
      "hit": false,
      "t": 87096.59999999999,
      "d": 604.8374999999942,
      "v": 104
    },
    {
      "midi": 59,
      "hit": false,
      "t": 87096.59999999999,
      "d": 604.8374999999942,
      "v": 104
    },
    {
      "midi": 67,
      "hit": false,
      "t": 87419.1799999999,
      "d": 282.257500000007,
      "v": 114
    },
    {
      "midi": 55,
      "hit": false,
      "t": 87741.75999999991,
      "d": 282.257500000007,
      "v": 114
    },
    {
      "midi": 62,
      "hit": false,
      "t": 87741.75999999991,
      "d": 282.257500000007,
      "v": 114
    },
    {
      "midi": 64,
      "hit": false,
      "t": 87741.75999999991,
      "d": 282.257500000007,
      "v": 114
    },
    {
      "midi": 52,
      "hit": false,
      "t": 87741.75999999998,
      "d": 1249.9974999999977,
      "v": 104
    },
    {
      "midi": 55,
      "hit": false,
      "t": 87741.75999999998,
      "d": 1249.9974999999977,
      "v": 104
    },
    {
      "midi": 59,
      "hit": false,
      "t": 87741.75999999998,
      "d": 1249.9974999999977,
      "v": 104
    },
    {
      "midi": 59,
      "hit": false,
      "t": 88064.33999999991,
      "d": 927.4174999999959,
      "v": 114
    },
    {
      "midi": 62,
      "hit": false,
      "t": 88064.33999999991,
      "d": 927.4174999999959,
      "v": 114
    },
    {
      "midi": 64,
      "hit": false,
      "t": 88064.33999999991,
      "d": 927.4174999999959,
      "v": 114
    },
    {
      "midi": 67,
      "hit": false,
      "t": 88064.33999999991,
      "d": 927.4174999999959,
      "v": 114
    },
    {
      "midi": 52,
      "hit": false,
      "t": 90967.55999999998,
      "d": 1895.1575000000012,
      "v": 104
    },
    {
      "midi": 55,
      "hit": false,
      "t": 90967.55999999998,
      "d": 1895.1575000000012,
      "v": 104
    },
    {
      "midi": 59,
      "hit": false,
      "t": 90967.55999999998,
      "d": 1895.1575000000012,
      "v": 104
    },
    {
      "midi": 62,
      "hit": false,
      "t": 90967.55999999998,
      "d": 1895.1575000000012,
      "v": 104
    },
    {
      "midi": 71,
      "hit": false,
      "t": 91612.7199999999,
      "d": 282.257500000007,
      "v": 114
    },
    {
      "midi": 74,
      "hit": false,
      "t": 91612.7199999999,
      "d": 282.257500000007,
      "v": 114
    },
    {
      "midi": 62,
      "hit": false,
      "t": 91935.2999999999,
      "d": 927.4174999999959,
      "v": 114
    },
    {
      "midi": 64,
      "hit": false,
      "t": 91935.2999999999,
      "d": 927.4174999999959,
      "v": 114
    },
    {
      "midi": 67,
      "hit": false,
      "t": 91935.2999999999,
      "d": 927.4174999999959,
      "v": 114
    },
    {
      "midi": 71,
      "hit": false,
      "t": 91935.2999999999,
      "d": 927.4174999999959,
      "v": 114
    },
    {
      "midi": 66,
      "hit": false,
      "t": 92903.03999999989,
      "d": 1895.1575000000012,
      "v": 114
    },
    {
      "midi": 73,
      "hit": false,
      "t": 92903.03999999989,
      "d": 1895.1575000000012,
      "v": 114
    },
    {
      "midi": 45,
      "hit": false,
      "t": 92903.03999999998,
      "d": 1895.1575000000012,
      "v": 104
    },
    {
      "midi": 55,
      "hit": false,
      "t": 92903.03999999998,
      "d": 1895.1575000000012,
      "v": 104
    },
    {
      "midi": 57,
      "hit": false,
      "t": 92903.03999999998,
      "d": 1895.1575000000012,
      "v": 104
    },
    {
      "midi": 61,
      "hit": false,
      "t": 92903.03999999998,
      "d": 1895.1575000000012,
      "v": 104
    },
    {
      "midi": 63,
      "hit": false,
      "t": 92903.03999999998,
      "d": 1895.1575000000012,
      "v": 104
    },
    {
      "midi": 63,
      "hit": false,
      "t": 94838.51999999989,
      "d": 7.560468750001746,
      "v": 114
    },
    {
      "midi": 75,
      "hit": false,
      "t": 94838.51999999989,
      "d": 7.560468750001746,
      "v": 114
    },
    {
      "midi": 52,
      "hit": false,
      "t": 94838.51999999997,
      "d": 604.8374999999942,
      "v": 104
    },
    {
      "midi": 55,
      "hit": false,
      "t": 94838.51999999997,
      "d": 604.8374999999942,
      "v": 104
    },
    {
      "midi": 59,
      "hit": false,
      "t": 94838.51999999997,
      "d": 604.8374999999942,
      "v": 104
    },
    {
      "midi": 64,
      "hit": false,
      "t": 94878.84249999988,
      "d": 443.5475000000006,
      "v": 114
    },
    {
      "midi": 76,
      "hit": false,
      "t": 94878.84249999988,
      "d": 443.5475000000006,
      "v": 114
    },
    {
      "midi": 76,
      "hit": false,
      "t": 95483.67999999988,
      "d": 1814.512499999997,
      "v": 114
    },
    {
      "midi": 64,
      "hit": false,
      "t": 95483.67999999988,
      "d": 1975.8024999999907,
      "v": 114
    },
    {
      "midi": 52,
      "hit": false,
      "t": 95483.67999999996,
      "d": 1249.9974999999977,
      "v": 104
    },
    {
      "midi": 55,
      "hit": false,
      "t": 95483.67999999996,
      "d": 1249.9974999999977,
      "v": 104
    },
    {
      "midi": 59,
      "hit": false,
      "t": 95483.67999999996,
      "d": 1249.9974999999977,
      "v": 104
    },
    {
      "midi": 52,
      "hit": false,
      "t": 96773.99999999996,
      "d": 1895.1575000000012,
      "v": 104
    },
    {
      "midi": 55,
      "hit": false,
      "t": 96773.99999999996,
      "d": 1895.1575000000012,
      "v": 104
    },
    {
      "midi": 60,
      "hit": false,
      "t": 96773.99999999996,
      "d": 1895.1575000000012,
      "v": 104
    },
    {
      "midi": 62,
      "hit": false,
      "t": 98709.47999999986,
      "d": 1572.5774999999994,
      "v": 114
    },
    {
      "midi": 64,
      "hit": false,
      "t": 98709.47999999986,
      "d": 1572.5774999999994,
      "v": 114
    },
    {
      "midi": 67,
      "hit": false,
      "t": 98709.47999999986,
      "d": 1572.5774999999994,
      "v": 114
    },
    {
      "midi": 71,
      "hit": false,
      "t": 98709.47999999986,
      "d": 1572.5774999999994,
      "v": 114
    },
    {
      "midi": 52,
      "hit": false,
      "t": 98709.47999999995,
      "d": 1249.9974999999977,
      "v": 104
    },
    {
      "midi": 55,
      "hit": false,
      "t": 98709.47999999995,
      "d": 1249.9974999999977,
      "v": 104
    },
    {
      "midi": 59,
      "hit": false,
      "t": 98709.47999999995,
      "d": 1249.9974999999977,
      "v": 104
    },
    {
      "midi": 62,
      "hit": false,
      "t": 98709.47999999995,
      "d": 1249.9974999999977,
      "v": 104
    },
    {
      "midi": 66,
      "hit": false,
      "t": 100322.37999999986,
      "d": 927.4174999999959,
      "v": 114
    },
    {
      "midi": 70,
      "hit": false,
      "t": 100322.37999999986,
      "d": 927.4174999999959,
      "v": 114
    },
    {
      "midi": 73,
      "hit": false,
      "t": 100322.37999999986,
      "d": 927.4174999999959,
      "v": 114
    },
    {
      "midi": 54,
      "hit": false,
      "t": 100322.37999999995,
      "d": 2217.737500000003,
      "v": 104
    },
    {
      "midi": 58,
      "hit": false,
      "t": 100322.37999999995,
      "d": 2217.737500000003,
      "v": 104
    },
    {
      "midi": 61,
      "hit": false,
      "t": 100322.37999999995,
      "d": 2217.737500000003,
      "v": 104
    },
    {
      "midi": 64,
      "hit": false,
      "t": 100322.37999999995,
      "d": 2217.737500000003,
      "v": 104
    },
    {
      "midi": 66,
      "hit": false,
      "t": 101290.11999999985,
      "d": 282.257500000007,
      "v": 114
    },
    {
      "midi": 64,
      "hit": false,
      "t": 101612.69999999985,
      "d": 927.4174999999959,
      "v": 114
    },
    {
      "midi": 69,
      "hit": false,
      "t": 103225.59999999985,
      "d": 1249.9974999999977,
      "v": 114
    },
    {
      "midi": 54,
      "hit": false,
      "t": 103225.59999999995,
      "d": 1249.9974999999977,
      "v": 104
    },
    {
      "midi": 57,
      "hit": false,
      "t": 103225.59999999995,
      "d": 1249.9974999999977,
      "v": 104
    },
    {
      "midi": 59,
      "hit": false,
      "t": 103225.59999999995,
      "d": 1249.9974999999977,
      "v": 104
    },
    {
      "midi": 62,
      "hit": false,
      "t": 103225.59999999995,
      "d": 1249.9974999999977,
      "v": 104
    },
    {
      "midi": 74,
      "hit": false,
      "t": 105161.07999999984,
      "d": 927.4174999999959,
      "v": 114
    },
    {
      "midi": 56,
      "hit": false,
      "t": 105161.07999999994,
      "d": 1249.9974999999977,
      "v": 104
    },
    {
      "midi": 58,
      "hit": false,
      "t": 105161.07999999994,
      "d": 1249.9974999999977,
      "v": 104
    },
    {
      "midi": 62,
      "hit": false,
      "t": 105161.07999999994,
      "d": 1249.9974999999977,
      "v": 104
    },
    {
      "midi": 64,
      "hit": false,
      "t": 105161.07999999994,
      "d": 1249.9974999999977,
      "v": 104
    },
    {
      "midi": 62,
      "hit": false,
      "t": 106128.81999999983,
      "d": 282.257500000007,
      "v": 114
    },
    {
      "midi": 61,
      "hit": false,
      "t": 106451.39999999983,
      "d": 604.8374999999942,
      "v": 114
    },
    {
      "midi": 55,
      "hit": false,
      "t": 106451.39999999994,
      "d": 1895.1575000000012,
      "v": 104
    },
    {
      "midi": 57,
      "hit": false,
      "t": 106451.39999999994,
      "d": 1895.1575000000012,
      "v": 104
    },
    {
      "midi": 61,
      "hit": false,
      "t": 106451.39999999994,
      "d": 1895.1575000000012,
      "v": 104
    },
    {
      "midi": 64,
      "hit": false,
      "t": 106451.39999999994,
      "d": 1895.1575000000012,
      "v": 104
    },
    {
      "midi": 71,
      "hit": false,
      "t": 107096.55999999982,
      "d": 604.8374999999942,
      "v": 114
    },
    {
      "midi": 62,
      "hit": false,
      "t": 107741.71999999981,
      "d": 282.257500000007,
      "v": 114
    },
    {
      "midi": 61,
      "hit": false,
      "t": 108064.29999999981,
      "d": 282.257500000007,
      "v": 114
    },
    {
      "midi": 60,
      "hit": false,
      "t": 108386.87999999982,
      "d": 604.8374999999942,
      "v": 114
    },
    {
      "midi": 50,
      "hit": false,
      "t": 108386.87999999993,
      "d": 1895.1575000000012,
      "v": 104
    },
    {
      "midi": 55,
      "hit": false,
      "t": 108386.87999999993,
      "d": 1895.1575000000012,
      "v": 104
    },
    {
      "midi": 57,
      "hit": false,
      "t": 108386.87999999993,
      "d": 1895.1575000000012,
      "v": 104
    },
    {
      "midi": 60,
      "hit": false,
      "t": 108386.87999999993,
      "d": 1895.1575000000012,
      "v": 104
    },
    {
      "midi": 64,
      "hit": false,
      "t": 108386.87999999993,
      "d": 1895.1575000000012,
      "v": 104
    },
    {
      "midi": 69,
      "hit": false,
      "t": 109032.0399999998,
      "d": 1249.9974999999977,
      "v": 114
    },
    {
      "midi": 50,
      "hit": false,
      "t": 110322.35999999993,
      "d": 1895.1575000000012,
      "v": 104
    },
    {
      "midi": 55,
      "hit": false,
      "t": 110322.35999999993,
      "d": 1895.1575000000012,
      "v": 104
    },
    {
      "midi": 59,
      "hit": false,
      "t": 110322.35999999993,
      "d": 1895.1575000000012,
      "v": 104
    },
    {
      "midi": 70,
      "hit": false,
      "t": 112217.5174999998,
      "d": 7.560468750001746,
      "v": 114
    },
    {
      "midi": 66,
      "hit": false,
      "t": 112217.5174999998,
      "d": 40.32249999999476,
      "v": 114
    },
    {
      "midi": 67,
      "hit": false,
      "t": 112257.8399999998,
      "d": 201.6125000000029,
      "v": 114
    },
    {
      "midi": 71,
      "hit": false,
      "t": 112257.8399999998,
      "d": 201.6125000000029,
      "v": 114
    },
    {
      "midi": 55,
      "hit": false,
      "t": 112257.8399999998,
      "d": 322.58000000000175,
      "v": 114
    },
    {
      "midi": 50,
      "hit": false,
      "t": 112257.83999999992,
      "d": 604.8374999999942,
      "v": 104
    },
    {
      "midi": 55,
      "hit": false,
      "t": 112257.83999999992,
      "d": 604.8374999999942,
      "v": 104
    },
    {
      "midi": 59,
      "hit": false,
      "t": 112257.83999999992,
      "d": 604.8374999999942,
      "v": 104
    },
    {
      "midi": 57,
      "hit": false,
      "t": 112580.4199999998,
      "d": 201.6125000000029,
      "v": 114
    },
    {
      "midi": 69,
      "hit": false,
      "t": 112580.4199999998,
      "d": 201.6125000000029,
      "v": 114
    },
    {
      "midi": 72,
      "hit": false,
      "t": 112580.4199999998,
      "d": 241.93499999999767,
      "v": 114
    },
    {
      "midi": 71,
      "hit": false,
      "t": 112902.9999999998,
      "d": 201.6125000000029,
      "v": 114
    },
    {
      "midi": 74,
      "hit": false,
      "t": 112902.9999999998,
      "d": 201.6125000000029,
      "v": 114
    },
    {
      "midi": 59,
      "hit": false,
      "t": 112902.9999999998,
      "d": 241.93499999999767,
      "v": 114
    },
    {
      "midi": 50,
      "hit": false,
      "t": 112902.99999999991,
      "d": 604.8374999999942,
      "v": 104
    },
    {
      "midi": 55,
      "hit": false,
      "t": 112902.99999999991,
      "d": 604.8374999999942,
      "v": 104
    },
    {
      "midi": 59,
      "hit": false,
      "t": 112902.99999999991,
      "d": 604.8374999999942,
      "v": 104
    },
    {
      "midi": 69,
      "hit": false,
      "t": 113225.5799999998,
      "d": 241.93499999999767,
      "v": 114
    },
    {
      "midi": 72,
      "hit": false,
      "t": 113225.5799999998,
      "d": 241.93499999999767,
      "v": 114
    },
    {
      "midi": 57,
      "hit": false,
      "t": 113225.5799999998,
      "d": 282.25749999999243,
      "v": 114
    },
    {
      "midi": 67,
      "hit": false,
      "t": 113548.15999999979,
      "d": 403.2250000000058,
      "v": 114
    },
    {
      "midi": 71,
      "hit": false,
      "t": 113548.15999999979,
      "d": 403.2250000000058,
      "v": 114
    },
    {
      "midi": 55,
      "hit": false,
      "t": 113548.15999999979,
      "d": 483.8700000000099,
      "v": 114
    },
    {
      "midi": 50,
      "hit": false,
      "t": 113548.1599999999,
      "d": 604.8374999999942,
      "v": 104
    },
    {
      "midi": 55,
      "hit": false,
      "t": 113548.1599999999,
      "d": 604.8374999999942,
      "v": 104
    },
    {
      "midi": 59,
      "hit": false,
      "t": 113548.1599999999,
      "d": 604.8374999999942,
      "v": 104
    },
    {
      "midi": 63,
      "hit": false,
      "t": 114193.31999999979,
      "d": 2862.8975000000064,
      "v": 114
    },
    {
      "midi": 66,
      "hit": false,
      "t": 114193.31999999979,
      "d": 2862.8975000000064,
      "v": 114
    },
    {
      "midi": 71,
      "hit": false,
      "t": 114193.31999999979,
      "d": 2862.8975000000064,
      "v": 114
    },
    {
      "midi": 51,
      "hit": false,
      "t": 114193.31999999989,
      "d": 2862.8975000000064,
      "v": 104
    },
    {
      "midi": 54,
      "hit": false,
      "t": 114193.31999999989,
      "d": 2862.8975000000064,
      "v": 104
    },
    {
      "midi": 57,
      "hit": false,
      "t": 114193.31999999989,
      "d": 2862.8975000000064,
      "v": 104
    },
    {
      "midi": 59,
      "hit": false,
      "t": 114193.31999999989,
      "d": 2862.8975000000064,
      "v": 104
    },
    {
      "midi": 63,
      "hit": false,
      "t": 117096.53999999979,
      "d": 282.257500000007,
      "v": 114
    },
    {
      "midi": 66,
      "hit": false,
      "t": 117096.53999999979,
      "d": 282.257500000007,
      "v": 114
    },
    {
      "midi": 69,
      "hit": false,
      "t": 117096.53999999979,
      "d": 282.257500000007,
      "v": 114
    },
    {
      "midi": 51,
      "hit": false,
      "t": 117096.53999999989,
      "d": 604.8374999999942,
      "v": 104
    },
    {
      "midi": 54,
      "hit": false,
      "t": 117096.53999999989,
      "d": 604.8374999999942,
      "v": 104
    },
    {
      "midi": 59,
      "hit": false,
      "t": 117096.53999999989,
      "d": 604.8374999999942,
      "v": 104
    },
    {
      "midi": 71,
      "hit": false,
      "t": 117419.11999999979,
      "d": 282.257500000007,
      "v": 114
    },
    {
      "midi": 63,
      "hit": false,
      "t": 117741.6999999998,
      "d": 282.257500000007,
      "v": 114
    },
    {
      "midi": 66,
      "hit": false,
      "t": 117741.6999999998,
      "d": 282.257500000007,
      "v": 114
    },
    {
      "midi": 69,
      "hit": false,
      "t": 117741.6999999998,
      "d": 282.257500000007,
      "v": 114
    },
    {
      "midi": 51,
      "hit": false,
      "t": 117741.69999999988,
      "d": 282.257500000007,
      "v": 104
    },
    {
      "midi": 54,
      "hit": false,
      "t": 117741.69999999988,
      "d": 282.257500000007,
      "v": 104
    },
    {
      "midi": 57,
      "hit": false,
      "t": 117741.69999999988,
      "d": 282.257500000007,
      "v": 104
    },
    {
      "midi": 67,
      "hit": false,
      "t": 118064.2799999998,
      "d": 282.257500000007,
      "v": 114
    },
    {
      "midi": 59,
      "hit": false,
      "t": 118064.2799999998,
      "d": 604.8375000000087,
      "v": 114
    },
    {
      "midi": 64,
      "hit": false,
      "t": 118064.2799999998,
      "d": 604.8375000000087,
      "v": 114
    },
    {
      "midi": 52,
      "hit": false,
      "t": 118064.27999999988,
      "d": 604.8374999999942,
      "v": 104
    },
    {
      "midi": 55,
      "hit": false,
      "t": 118064.27999999988,
      "d": 604.8374999999942,
      "v": 104
    },
    {
      "midi": 59,
      "hit": false,
      "t": 118064.27999999988,
      "d": 604.8374999999942,
      "v": 104
    },
    {
      "midi": 69,
      "hit": false,
      "t": 118386.8599999998,
      "d": 282.257500000007,
      "v": 114
    },
    {
      "midi": 59,
      "hit": false,
      "t": 118709.4399999998,
      "d": 1290.320000000007,
      "v": 114
    },
    {
      "midi": 64,
      "hit": false,
      "t": 118709.4399999998,
      "d": 1290.320000000007,
      "v": 114
    },
    {
      "midi": 67,
      "hit": false,
      "t": 118709.4399999998,
      "d": 1330.6425000000017,
      "v": 114
    },
    {
      "midi": 52,
      "hit": false,
      "t": 118709.43999999987,
      "d": 1249.9974999999977,
      "v": 104
    },
    {
      "midi": 55,
      "hit": false,
      "t": 118709.43999999987,
      "d": 1249.9974999999977,
      "v": 104
    },
    {
      "midi": 59,
      "hit": false,
      "t": 118709.43999999987,
      "d": 1249.9974999999977,
      "v": 104
    },
    {
      "midi": 62,
      "hit": false,
      "t": 120644.9199999998,
      "d": 282.257500000007,
      "v": 114
    },
    {
      "midi": 67,
      "hit": false,
      "t": 120644.9199999998,
      "d": 282.257500000007,
      "v": 114
    },
    {
      "midi": 59,
      "hit": false,
      "t": 120644.9199999998,
      "d": 1048.3849999999948,
      "v": 114
    },
    {
      "midi": 50,
      "hit": false,
      "t": 120644.91999999987,
      "d": 927.4174999999959,
      "v": 104
    },
    {
      "midi": 53,
      "hit": false,
      "t": 120644.91999999987,
      "d": 927.4174999999959,
      "v": 104
    },
    {
      "midi": 55,
      "hit": false,
      "t": 120644.91999999987,
      "d": 927.4174999999959,
      "v": 104
    },
    {
      "midi": 59,
      "hit": false,
      "t": 120644.91999999987,
      "d": 927.4174999999959,
      "v": 104
    },
    {
      "midi": 62,
      "hit": false,
      "t": 120967.4999999998,
      "d": 685.4824999999983,
      "v": 114
    },
    {
      "midi": 67,
      "hit": false,
      "t": 120967.4999999998,
      "d": 685.4824999999983,
      "v": 114
    },
    {
      "midi": 50,
      "hit": false,
      "t": 121612.65999999986,
      "d": 282.257500000007,
      "v": 104
    },
    {
      "midi": 53,
      "hit": false,
      "t": 121612.65999999986,
      "d": 282.257500000007,
      "v": 104
    },
    {
      "midi": 55,
      "hit": false,
      "t": 121612.65999999986,
      "d": 282.257500000007,
      "v": 104
    },
    {
      "midi": 59,
      "hit": false,
      "t": 121612.65999999986,
      "d": 282.257500000007,
      "v": 104
    },
    {
      "midi": 55,
      "hit": false,
      "t": 121935.23999999986,
      "d": 1895.1575000000012,
      "v": 104
    },
    {
      "midi": 60,
      "hit": false,
      "t": 121935.23999999986,
      "d": 1895.1575000000012,
      "v": 104
    },
    {
      "midi": 62,
      "hit": false,
      "t": 121935.23999999986,
      "d": 1895.1575000000012,
      "v": 104
    },
    {
      "midi": 64,
      "hit": false,
      "t": 121935.23999999986,
      "d": 1895.1575000000012,
      "v": 104
    },
    {
      "midi": 60,
      "hit": false,
      "t": 122902.97999999979,
      "d": 927.4174999999959,
      "v": 114
    },
    {
      "midi": 62,
      "hit": false,
      "t": 122902.97999999979,
      "d": 927.4174999999959,
      "v": 114
    },
    {
      "midi": 64,
      "hit": false,
      "t": 122902.97999999979,
      "d": 927.4174999999959,
      "v": 114
    },
    {
      "midi": 67,
      "hit": false,
      "t": 122902.97999999979,
      "d": 927.4174999999959,
      "v": 114
    },
    {
      "midi": 61,
      "hit": false,
      "t": 123870.71999999978,
      "d": 927.4174999999959,
      "v": 114
    },
    {
      "midi": 64,
      "hit": false,
      "t": 123870.71999999978,
      "d": 927.4174999999959,
      "v": 114
    },
    {
      "midi": 67,
      "hit": false,
      "t": 123870.71999999978,
      "d": 927.4174999999959,
      "v": 114
    },
    {
      "midi": 55,
      "hit": false,
      "t": 123870.71999999986,
      "d": 604.8374999999942,
      "v": 104
    },
    {
      "midi": 58,
      "hit": false,
      "t": 123870.71999999986,
      "d": 604.8374999999942,
      "v": 104
    },
    {
      "midi": 61,
      "hit": false,
      "t": 123870.71999999986,
      "d": 604.8374999999942,
      "v": 104
    },
    {
      "midi": 64,
      "hit": false,
      "t": 123870.71999999986,
      "d": 604.8374999999942,
      "v": 104
    },
    {
      "midi": 55,
      "hit": false,
      "t": 124515.87999999984,
      "d": 1249.9974999999977,
      "v": 104
    },
    {
      "midi": 58,
      "hit": false,
      "t": 124515.87999999984,
      "d": 1249.9974999999977,
      "v": 104
    },
    {
      "midi": 61,
      "hit": false,
      "t": 124515.87999999984,
      "d": 1249.9974999999977,
      "v": 104
    },
    {
      "midi": 64,
      "hit": false,
      "t": 124515.87999999984,
      "d": 1249.9974999999977,
      "v": 104
    },
    {
      "midi": 58,
      "hit": false,
      "t": 124838.45999999977,
      "d": 927.4174999999959,
      "v": 114
    },
    {
      "midi": 64,
      "hit": false,
      "t": 124838.45999999977,
      "d": 927.4174999999959,
      "v": 114
    },
    {
      "midi": 67,
      "hit": false,
      "t": 124838.45999999977,
      "d": 927.4174999999959,
      "v": 114
    },
    {
      "midi": 55,
      "hit": false,
      "t": 125806.19999999984,
      "d": 1895.1575000000012,
      "v": 104
    },
    {
      "midi": 57,
      "hit": false,
      "t": 125806.19999999984,
      "d": 1895.1575000000012,
      "v": 104
    },
    {
      "midi": 59,
      "hit": false,
      "t": 125806.19999999984,
      "d": 1895.1575000000012,
      "v": 104
    },
    {
      "midi": 62,
      "hit": false,
      "t": 125806.19999999984,
      "d": 1895.1575000000012,
      "v": 104
    },
    {
      "midi": 62,
      "hit": false,
      "t": 127741.67999999977,
      "d": 604.8374999999942,
      "v": 114
    },
    {
      "midi": 64,
      "hit": false,
      "t": 127741.67999999977,
      "d": 604.8374999999942,
      "v": 114
    },
    {
      "midi": 68,
      "hit": false,
      "t": 127741.67999999977,
      "d": 604.8374999999942,
      "v": 114
    },
    {
      "midi": 71,
      "hit": false,
      "t": 127741.67999999977,
      "d": 604.8374999999942,
      "v": 114
    },
    {
      "midi": 52,
      "hit": false,
      "t": 127741.67999999983,
      "d": 1895.1575000000012,
      "v": 104
    },
    {
      "midi": 56,
      "hit": false,
      "t": 127741.67999999983,
      "d": 1895.1575000000012,
      "v": 104
    },
    {
      "midi": 60,
      "hit": false,
      "t": 127741.67999999983,
      "d": 1895.1575000000012,
      "v": 104
    },
    {
      "midi": 64,
      "hit": false,
      "t": 127741.67999999983,
      "d": 1895.1575000000012,
      "v": 104
    },
    {
      "midi": 76,
      "hit": false,
      "t": 128386.83999999976,
      "d": 604.8374999999942,
      "v": 114
    },
    {
      "midi": 71,
      "hit": false,
      "t": 129031.99999999975,
      "d": 120.96749999999884,
      "v": 114
    },
    {
      "midi": 68,
      "hit": false,
      "t": 129193.28999999975,
      "d": 120.96749999999884,
      "v": 114
    },
    {
      "midi": 64,
      "hit": false,
      "t": 129354.57999999974,
      "d": 120.96749999999884,
      "v": 114
    },
    {
      "midi": 62,
      "hit": false,
      "t": 129515.86999999973,
      "d": 120.96749999999884,
      "v": 114
    },
    {
      "midi": 61,
      "hit": false,
      "t": 129677.15999999973,
      "d": 604.8374999999942,
      "v": 114
    },
    {
      "midi": 55,
      "hit": false,
      "t": 129677.15999999983,
      "d": 1895.1575000000012,
      "v": 104
    },
    {
      "midi": 59,
      "hit": false,
      "t": 129677.15999999983,
      "d": 1895.1575000000012,
      "v": 104
    },
    {
      "midi": 61,
      "hit": false,
      "t": 129677.15999999983,
      "d": 1895.1575000000012,
      "v": 104
    },
    {
      "midi": 64,
      "hit": false,
      "t": 129677.15999999983,
      "d": 1895.1575000000012,
      "v": 104
    },
    {
      "midi": 61,
      "hit": false,
      "t": 130322.31999999972,
      "d": 282.257500000007,
      "v": 114
    },
    {
      "midi": 71,
      "hit": false,
      "t": 130322.31999999972,
      "d": 282.257500000007,
      "v": 114
    },
    {
      "midi": 67,
      "hit": false,
      "t": 130644.89999999972,
      "d": 927.4174999999959,
      "v": 114
    },
    {
      "midi": 60,
      "hit": false,
      "t": 131612.63999999972,
      "d": 927.4175000000105,
      "v": 114
    },
    {
      "midi": 64,
      "hit": false,
      "t": 131612.63999999972,
      "d": 927.4175000000105,
      "v": 114
    },
    {
      "midi": 67,
      "hit": false,
      "t": 131612.63999999972,
      "d": 927.4175000000105,
      "v": 114
    },
    {
      "midi": 50,
      "hit": false,
      "t": 131612.63999999984,
      "d": 927.4175000000105,
      "v": 104
    },
    {
      "midi": 55,
      "hit": false,
      "t": 131612.63999999984,
      "d": 927.4175000000105,
      "v": 104
    },
    {
      "midi": 57,
      "hit": false,
      "t": 131612.63999999984,
      "d": 927.4175000000105,
      "v": 104
    },
    {
      "midi": 60,
      "hit": false,
      "t": 131612.63999999984,
      "d": 927.4175000000105,
      "v": 104
    },
    {
      "midi": 64,
      "hit": false,
      "t": 131612.63999999984,
      "d": 927.4175000000105,
      "v": 104
    },
    {
      "midi": 60,
      "hit": false,
      "t": 132580.37999999974,
      "d": 604.8374999999942,
      "v": 114
    },
    {
      "midi": 64,
      "hit": false,
      "t": 132580.37999999974,
      "d": 604.8374999999942,
      "v": 114
    },
    {
      "midi": 67,
      "hit": false,
      "t": 132580.37999999974,
      "d": 604.8374999999942,
      "v": 114
    },
    {
      "midi": 50,
      "hit": false,
      "t": 132580.37999999986,
      "d": 927.4175000000105,
      "v": 104
    },
    {
      "midi": 54,
      "hit": false,
      "t": 132580.37999999986,
      "d": 927.4175000000105,
      "v": 104
    },
    {
      "midi": 57,
      "hit": false,
      "t": 132580.37999999986,
      "d": 927.4175000000105,
      "v": 104
    },
    {
      "midi": 60,
      "hit": false,
      "t": 132580.37999999986,
      "d": 927.4175000000105,
      "v": 104
    },
    {
      "midi": 64,
      "hit": false,
      "t": 132580.37999999986,
      "d": 927.4175000000105,
      "v": 104
    },
    {
      "midi": 64,
      "hit": false,
      "t": 133225.53999999975,
      "d": 282.257500000007,
      "v": 114
    },
    {
      "midi": 62,
      "hit": false,
      "t": 133548.11999999976,
      "d": 927.4175000000105,
      "v": 114
    },
    {
      "midi": 55,
      "hit": false,
      "t": 133548.11999999988,
      "d": 1895.1575000000012,
      "v": 104
    },
    {
      "midi": 57,
      "hit": false,
      "t": 133548.11999999988,
      "d": 1895.1575000000012,
      "v": 104
    },
    {
      "midi": 59,
      "hit": false,
      "t": 133548.11999999988,
      "d": 1895.1575000000012,
      "v": 104
    },
    {
      "midi": 62,
      "hit": false,
      "t": 133548.11999999988,
      "d": 1895.1575000000012,
      "v": 104
    },
    {
      "midi": 62,
      "hit": false,
      "t": 134838.43999999977,
      "d": 120.96749999999884,
      "v": 114
    },
    {
      "midi": 63,
      "hit": false,
      "t": 134999.72999999978,
      "d": 120.96749999999884,
      "v": 114
    },
    {
      "midi": 64,
      "hit": false,
      "t": 135161.0199999998,
      "d": 120.96749999999884,
      "v": 114
    },
    {
      "midi": 65,
      "hit": false,
      "t": 135322.3099999998,
      "d": 120.96749999999884,
      "v": 114
    },
    {
      "midi": 66,
      "hit": false,
      "t": 135483.5999999998,
      "d": 201.61249999998836,
      "v": 114
    },
    {
      "midi": 54,
      "hit": false,
      "t": 135483.5999999999,
      "d": 1895.1575000000012,
      "v": 104
    },
    {
      "midi": 58,
      "hit": false,
      "t": 135483.5999999999,
      "d": 1895.1575000000012,
      "v": 104
    },
    {
      "midi": 60,
      "hit": false,
      "t": 135483.5999999999,
      "d": 1895.1575000000012,
      "v": 104
    },
    {
      "midi": 64,
      "hit": false,
      "t": 135483.5999999999,
      "d": 1895.1575000000012,
      "v": 104
    },
    {
      "midi": 62,
      "hit": false,
      "t": 135725.5349999998,
      "d": 201.61249999998836,
      "v": 114
    },
    {
      "midi": 69,
      "hit": false,
      "t": 135967.4699999998,
      "d": 201.61249999998836,
      "v": 114
    },
    {
      "midi": 63,
      "hit": false,
      "t": 136209.4049999998,
      "d": 201.61249999998836,
      "v": 114
    },
    {
      "midi": 67,
      "hit": false,
      "t": 136451.3399999998,
      "d": 282.257500000007,
      "v": 114
    },
    {
      "midi": 69,
      "hit": false,
      "t": 136773.9199999998,
      "d": 120.96749999999884,
      "v": 114
    },
    {
      "midi": 67,
      "hit": false,
      "t": 136935.20999999982,
      "d": 120.96749999999884,
      "v": 114
    },
    {
      "midi": 63,
      "hit": false,
      "t": 137096.49999999983,
      "d": 120.96749999999884,
      "v": 114
    },
    {
      "midi": 59,
      "hit": false,
      "t": 137257.78999999983,
      "d": 120.96749999999884,
      "v": 114
    },
    {
      "midi": 62,
      "hit": false,
      "t": 137419.07999999984,
      "d": 604.8374999999942,
      "v": 114
    },
    {
      "midi": 55,
      "hit": false,
      "t": 137419.0799999999,
      "d": 1895.1575000000012,
      "v": 104
    },
    {
      "midi": 59,
      "hit": false,
      "t": 137419.0799999999,
      "d": 1895.1575000000012,
      "v": 104
    },
    {
      "midi": 62,
      "hit": false,
      "t": 137419.0799999999,
      "d": 1895.1575000000012,
      "v": 104
    },
    {
      "midi": 64,
      "hit": false,
      "t": 137419.0799999999,
      "d": 1895.1575000000012,
      "v": 104
    },
    {
      "midi": 59,
      "hit": false,
      "t": 138064.23999999985,
      "d": 282.257500000007,
      "v": 114
    },
    {
      "midi": 67,
      "hit": false,
      "t": 138386.81999999986,
      "d": 201.61249999998836,
      "v": 114
    },
    {
      "midi": 62,
      "hit": false,
      "t": 138628.75499999986,
      "d": 201.61249999998836,
      "v": 114
    },
    {
      "midi": 59,
      "hit": false,
      "t": 138870.68999999986,
      "d": 201.61249999998836,
      "v": 114
    },
    {
      "midi": 58,
      "hit": false,
      "t": 139112.62499999985,
      "d": 201.61249999998836,
      "v": 114
    },
    {
      "midi": 57,
      "hit": false,
      "t": 139354.55999999985,
      "d": 282.257500000007,
      "v": 114
    },
    {
      "midi": 54,
      "hit": false,
      "t": 139354.5599999999,
      "d": 1895.1575000000012,
      "v": 104
    },
    {
      "midi": 57,
      "hit": false,
      "t": 139354.5599999999,
      "d": 1895.1575000000012,
      "v": 104
    },
    {
      "midi": 59,
      "hit": false,
      "t": 139354.5599999999,
      "d": 1895.1575000000012,
      "v": 104
    },
    {
      "midi": 63,
      "hit": false,
      "t": 139354.5599999999,
      "d": 1895.1575000000012,
      "v": 104
    },
    {
      "midi": 59,
      "hit": false,
      "t": 139677.13999999987,
      "d": 120.96749999999884,
      "v": 114
    },
    {
      "midi": 63,
      "hit": false,
      "t": 139838.42999999988,
      "d": 120.96749999999884,
      "v": 114
    },
    {
      "midi": 66,
      "hit": false,
      "t": 139999.71999999988,
      "d": 120.96749999999884,
      "v": 114
    },
    {
      "midi": 71,
      "hit": false,
      "t": 140161.0099999999,
      "d": 120.96749999999884,
      "v": 114
    },
    {
      "midi": 69,
      "hit": false,
      "t": 140322.2999999999,
      "d": 282.257500000007,
      "v": 114
    },
    {
      "midi": 71,
      "hit": false,
      "t": 140644.87999999992,
      "d": 282.257500000007,
      "v": 114
    },
    {
      "midi": 69,
      "hit": false,
      "t": 140967.45999999993,
      "d": 282.257500000007,
      "v": 114
    },
    {
      "midi": 52,
      "hit": false,
      "t": 141290.03999999992,
      "d": 604.8374999999942,
      "v": 104
    },
    {
      "midi": 55,
      "hit": false,
      "t": 141290.03999999992,
      "d": 604.8374999999942,
      "v": 104
    },
    {
      "midi": 59,
      "hit": false,
      "t": 141290.03999999992,
      "d": 604.8374999999942,
      "v": 104
    },
    {
      "midi": 59,
      "hit": false,
      "t": 141290.03999999995,
      "d": 282.257500000007,
      "v": 114
    },
    {
      "midi": 64,
      "hit": false,
      "t": 141290.03999999995,
      "d": 282.257500000007,
      "v": 114
    },
    {
      "midi": 67,
      "hit": false,
      "t": 141290.03999999995,
      "d": 282.257500000007,
      "v": 114
    },
    {
      "midi": 69,
      "hit": false,
      "t": 141612.61999999997,
      "d": 282.257500000007,
      "v": 114
    },
    {
      "midi": 52,
      "hit": false,
      "t": 141935.19999999992,
      "d": 1249.9974999999977,
      "v": 104
    },
    {
      "midi": 55,
      "hit": false,
      "t": 141935.19999999992,
      "d": 1249.9974999999977,
      "v": 104
    },
    {
      "midi": 59,
      "hit": false,
      "t": 141935.19999999992,
      "d": 1249.9974999999977,
      "v": 104
    },
    {
      "midi": 59,
      "hit": false,
      "t": 141935.19999999998,
      "d": 3830.6375000000116,
      "v": 114
    },
    {
      "midi": 64,
      "hit": false,
      "t": 141935.19999999998,
      "d": 3830.6375000000116,
      "v": 114
    },
    {
      "midi": 67,
      "hit": false,
      "t": 141935.19999999998,
      "d": 3830.6375000000116,
      "v": 114
    },
    {
      "midi": 52,
      "hit": false,
      "t": 145160.9999999999,
      "d": 604.8374999999942,
      "v": 104
    },
    {
      "midi": 55,
      "hit": false,
      "t": 145160.9999999999,
      "d": 604.8374999999942,
      "v": 104
    },
    {
      "midi": 59,
      "hit": false,
      "t": 145160.9999999999,
      "d": 604.8374999999942,
      "v": 104
    },
    {
      "midi": 62,
      "hit": false,
      "t": 145160.9999999999,
      "d": 604.8374999999942,
      "v": 104
    },
    {
      "midi": 52,
      "hit": false,
      "t": 145806.15999999992,
      "d": 1249.9974999999977,
      "v": 104
    },
    {
      "midi": 55,
      "hit": false,
      "t": 145806.15999999992,
      "d": 1249.9974999999977,
      "v": 104
    },
    {
      "midi": 59,
      "hit": false,
      "t": 145806.15999999992,
      "d": 1249.9974999999977,
      "v": 104
    },
    {
      "midi": 62,
      "hit": false,
      "t": 145806.15999999992,
      "d": 1249.9974999999977,
      "v": 104
    },
    {
      "midi": 64,
      "hit": false,
      "t": 145806.16,
      "d": 282.257500000007,
      "v": 127
    },
    {
      "midi": 62,
      "hit": false,
      "t": 146128.74000000002,
      "d": 927.4175000000105,
      "v": 127
    },
    {
      "midi": 52,
      "hit": false,
      "t": 147096.47999999992,
      "d": 927.4175000000105,
      "v": 104
    },
    {
      "midi": 55,
      "hit": false,
      "t": 147096.47999999992,
      "d": 927.4175000000105,
      "v": 104
    },
    {
      "midi": 58,
      "hit": false,
      "t": 147096.47999999992,
      "d": 927.4175000000105,
      "v": 104
    },
    {
      "midi": 62,
      "hit": false,
      "t": 147096.47999999992,
      "d": 927.4175000000105,
      "v": 104
    },
    {
      "midi": 60,
      "hit": false,
      "t": 147419.06000000003,
      "d": 282.257500000007,
      "v": 127
    },
    {
      "midi": 69,
      "hit": false,
      "t": 147741.64000000004,
      "d": 120.96749999999884,
      "v": 127
    },
    {
      "midi": 64,
      "hit": false,
      "t": 147902.93000000005,
      "d": 120.96749999999884,
      "v": 127
    },
    {
      "midi": 52,
      "hit": false,
      "t": 148064.21999999994,
      "d": 927.4175000000105,
      "v": 104
    },
    {
      "midi": 55,
      "hit": false,
      "t": 148064.21999999994,
      "d": 927.4175000000105,
      "v": 104
    },
    {
      "midi": 58,
      "hit": false,
      "t": 148064.21999999994,
      "d": 927.4175000000105,
      "v": 104
    },
    {
      "midi": 62,
      "hit": false,
      "t": 148064.21999999994,
      "d": 927.4175000000105,
      "v": 104
    },
    {
      "midi": 67,
      "hit": false,
      "t": 148064.22000000006,
      "d": 201.61249999998836,
      "v": 107
    },
    {
      "midi": 69,
      "hit": false,
      "t": 148306.15500000006,
      "d": 201.61249999998836,
      "v": 127
    },
    {
      "midi": 64,
      "hit": false,
      "t": 148548.09000000005,
      "d": 201.61249999998836,
      "v": 127
    },
    {
      "midi": 60,
      "hit": false,
      "t": 148790.02500000005,
      "d": 201.61249999998836,
      "v": 127
    },
    {
      "midi": 52,
      "hit": false,
      "t": 149031.95999999996,
      "d": 604.8374999999942,
      "v": 104
    },
    {
      "midi": 55,
      "hit": false,
      "t": 149031.95999999996,
      "d": 604.8374999999942,
      "v": 104
    },
    {
      "midi": 59,
      "hit": false,
      "t": 149031.95999999996,
      "d": 604.8374999999942,
      "v": 104
    },
    {
      "midi": 37,
      "hit": false,
      "t": 149031.96000000005,
      "d": 201.61249999998836,
      "v": 103
    },
    {
      "midi": 67,
      "hit": false,
      "t": 149354.54000000004,
      "d": 282.257500000007,
      "v": 114
    },
    {
      "midi": 52,
      "hit": false,
      "t": 149677.11999999997,
      "d": 1249.9974999999977,
      "v": 104
    },
    {
      "midi": 55,
      "hit": false,
      "t": 149677.11999999997,
      "d": 1249.9974999999977,
      "v": 104
    },
    {
      "midi": 59,
      "hit": false,
      "t": 149677.11999999997,
      "d": 1249.9974999999977,
      "v": 104
    },
    {
      "midi": 55,
      "hit": false,
      "t": 149677.12000000005,
      "d": 282.257500000007,
      "v": 114
    },
    {
      "midi": 62,
      "hit": false,
      "t": 149677.12000000005,
      "d": 282.257500000007,
      "v": 114
    },
    {
      "midi": 64,
      "hit": false,
      "t": 149677.12000000005,
      "d": 282.257500000007,
      "v": 114
    },
    {
      "midi": 59,
      "hit": false,
      "t": 149999.70000000007,
      "d": 927.4175000000105,
      "v": 114
    },
    {
      "midi": 62,
      "hit": false,
      "t": 149999.70000000007,
      "d": 927.4175000000105,
      "v": 114
    },
    {
      "midi": 64,
      "hit": false,
      "t": 149999.70000000007,
      "d": 927.4175000000105,
      "v": 114
    },
    {
      "midi": 67,
      "hit": false,
      "t": 149999.70000000007,
      "d": 927.4175000000105,
      "v": 114
    },
    {
      "midi": 52,
      "hit": false,
      "t": 152902.91999999995,
      "d": 1895.1575000000012,
      "v": 104
    },
    {
      "midi": 55,
      "hit": false,
      "t": 152902.91999999995,
      "d": 1895.1575000000012,
      "v": 104
    },
    {
      "midi": 59,
      "hit": false,
      "t": 152902.91999999995,
      "d": 1895.1575000000012,
      "v": 104
    },
    {
      "midi": 62,
      "hit": false,
      "t": 152902.91999999995,
      "d": 1895.1575000000012,
      "v": 104
    },
    {
      "midi": 71,
      "hit": false,
      "t": 153548.08000000007,
      "d": 282.257500000007,
      "v": 114
    },
    {
      "midi": 74,
      "hit": false,
      "t": 153548.08000000007,
      "d": 282.257500000007,
      "v": 114
    },
    {
      "midi": 62,
      "hit": false,
      "t": 153870.6600000001,
      "d": 927.4175000000105,
      "v": 114
    },
    {
      "midi": 64,
      "hit": false,
      "t": 153870.6600000001,
      "d": 927.4175000000105,
      "v": 114
    },
    {
      "midi": 67,
      "hit": false,
      "t": 153870.6600000001,
      "d": 927.4175000000105,
      "v": 114
    },
    {
      "midi": 71,
      "hit": false,
      "t": 153870.6600000001,
      "d": 927.4175000000105,
      "v": 114
    },
    {
      "midi": 45,
      "hit": false,
      "t": 154838.39999999997,
      "d": 1895.1575000000012,
      "v": 104
    },
    {
      "midi": 55,
      "hit": false,
      "t": 154838.39999999997,
      "d": 1895.1575000000012,
      "v": 104
    },
    {
      "midi": 57,
      "hit": false,
      "t": 154838.39999999997,
      "d": 1895.1575000000012,
      "v": 104
    },
    {
      "midi": 61,
      "hit": false,
      "t": 154838.39999999997,
      "d": 1895.1575000000012,
      "v": 104
    },
    {
      "midi": 63,
      "hit": false,
      "t": 154838.39999999997,
      "d": 1895.1575000000012,
      "v": 104
    },
    {
      "midi": 66,
      "hit": false,
      "t": 154838.4000000001,
      "d": 1895.1575000000012,
      "v": 114
    },
    {
      "midi": 73,
      "hit": false,
      "t": 154838.4000000001,
      "d": 1895.1575000000012,
      "v": 114
    },
    {
      "midi": 52,
      "hit": false,
      "t": 156773.87999999998,
      "d": 604.8374999999942,
      "v": 104
    },
    {
      "midi": 55,
      "hit": false,
      "t": 156773.87999999998,
      "d": 604.8374999999942,
      "v": 104
    },
    {
      "midi": 59,
      "hit": false,
      "t": 156773.87999999998,
      "d": 604.8374999999942,
      "v": 104
    },
    {
      "midi": 63,
      "hit": false,
      "t": 156773.88000000012,
      "d": 7.560468749987194,
      "v": 114
    },
    {
      "midi": 75,
      "hit": false,
      "t": 156773.88000000012,
      "d": 7.560468749987194,
      "v": 114
    },
    {
      "midi": 64,
      "hit": false,
      "t": 156814.2025000001,
      "d": 443.54749999998603,
      "v": 114
    },
    {
      "midi": 76,
      "hit": false,
      "t": 156814.2025000001,
      "d": 443.54749999998603,
      "v": 114
    },
    {
      "midi": 52,
      "hit": false,
      "t": 157419.03999999998,
      "d": 1249.9974999999977,
      "v": 104
    },
    {
      "midi": 55,
      "hit": false,
      "t": 157419.03999999998,
      "d": 1249.9974999999977,
      "v": 104
    },
    {
      "midi": 59,
      "hit": false,
      "t": 157419.03999999998,
      "d": 1249.9974999999977,
      "v": 104
    },
    {
      "midi": 76,
      "hit": false,
      "t": 157419.0400000001,
      "d": 1814.5125000000116,
      "v": 114
    },
    {
      "midi": 64,
      "hit": false,
      "t": 157419.0400000001,
      "d": 1975.8025000000198,
      "v": 114
    },
    {
      "midi": 52,
      "hit": false,
      "t": 158709.36,
      "d": 1895.1575000000012,
      "v": 104
    },
    {
      "midi": 55,
      "hit": false,
      "t": 158709.36,
      "d": 1895.1575000000012,
      "v": 104
    },
    {
      "midi": 60,
      "hit": false,
      "t": 158709.36,
      "d": 1895.1575000000012,
      "v": 104
    },
    {
      "midi": 52,
      "hit": false,
      "t": 160644.84,
      "d": 1249.9974999999977,
      "v": 104
    },
    {
      "midi": 55,
      "hit": false,
      "t": 160644.84,
      "d": 1249.9974999999977,
      "v": 104
    },
    {
      "midi": 59,
      "hit": false,
      "t": 160644.84,
      "d": 1249.9974999999977,
      "v": 104
    },
    {
      "midi": 62,
      "hit": false,
      "t": 160644.84,
      "d": 1249.9974999999977,
      "v": 104
    },
    {
      "midi": 62,
      "hit": false,
      "t": 160644.8400000001,
      "d": 1572.577500000014,
      "v": 114
    },
    {
      "midi": 64,
      "hit": false,
      "t": 160644.8400000001,
      "d": 1572.577500000014,
      "v": 114
    },
    {
      "midi": 67,
      "hit": false,
      "t": 160644.8400000001,
      "d": 1572.577500000014,
      "v": 114
    },
    {
      "midi": 71,
      "hit": false,
      "t": 160644.8400000001,
      "d": 1572.577500000014,
      "v": 114
    },
    {
      "midi": 54,
      "hit": false,
      "t": 162257.74,
      "d": 2217.7374999999884,
      "v": 104
    },
    {
      "midi": 58,
      "hit": false,
      "t": 162257.74,
      "d": 2217.7374999999884,
      "v": 104
    },
    {
      "midi": 61,
      "hit": false,
      "t": 162257.74,
      "d": 2217.7374999999884,
      "v": 104
    },
    {
      "midi": 64,
      "hit": false,
      "t": 162257.74,
      "d": 2217.7374999999884,
      "v": 104
    },
    {
      "midi": 66,
      "hit": false,
      "t": 162257.74000000014,
      "d": 927.4175000000105,
      "v": 114
    },
    {
      "midi": 70,
      "hit": false,
      "t": 162257.74000000014,
      "d": 927.4175000000105,
      "v": 114
    },
    {
      "midi": 73,
      "hit": false,
      "t": 162257.74000000014,
      "d": 927.4175000000105,
      "v": 114
    },
    {
      "midi": 66,
      "hit": false,
      "t": 163225.48000000016,
      "d": 282.257500000007,
      "v": 114
    },
    {
      "midi": 64,
      "hit": false,
      "t": 163548.06000000017,
      "d": 927.4175000000105,
      "v": 114
    },
    {
      "midi": 54,
      "hit": false,
      "t": 165160.96,
      "d": 1249.9974999999977,
      "v": 104
    },
    {
      "midi": 57,
      "hit": false,
      "t": 165160.96,
      "d": 1249.9974999999977,
      "v": 104
    },
    {
      "midi": 59,
      "hit": false,
      "t": 165160.96,
      "d": 1249.9974999999977,
      "v": 104
    },
    {
      "midi": 62,
      "hit": false,
      "t": 165160.96,
      "d": 1249.9974999999977,
      "v": 104
    },
    {
      "midi": 69,
      "hit": false,
      "t": 165160.9600000002,
      "d": 1249.9974999999977,
      "v": 114
    },
    {
      "midi": 56,
      "hit": false,
      "t": 167096.44,
      "d": 1249.9974999999977,
      "v": 104
    },
    {
      "midi": 58,
      "hit": false,
      "t": 167096.44,
      "d": 1249.9974999999977,
      "v": 104
    },
    {
      "midi": 62,
      "hit": false,
      "t": 167096.44,
      "d": 1249.9974999999977,
      "v": 104
    },
    {
      "midi": 64,
      "hit": false,
      "t": 167096.44,
      "d": 1249.9974999999977,
      "v": 104
    },
    {
      "midi": 74,
      "hit": false,
      "t": 167096.4400000002,
      "d": 927.4175000000105,
      "v": 114
    },
    {
      "midi": 62,
      "hit": false,
      "t": 168064.18000000023,
      "d": 282.257500000007,
      "v": 114
    },
    {
      "midi": 55,
      "hit": false,
      "t": 168386.76,
      "d": 1895.1575000000012,
      "v": 104
    },
    {
      "midi": 57,
      "hit": false,
      "t": 168386.76,
      "d": 1895.1575000000012,
      "v": 104
    },
    {
      "midi": 61,
      "hit": false,
      "t": 168386.76,
      "d": 1895.1575000000012,
      "v": 104
    },
    {
      "midi": 64,
      "hit": false,
      "t": 168386.76,
      "d": 1895.1575000000012,
      "v": 104
    },
    {
      "midi": 61,
      "hit": false,
      "t": 168386.76000000024,
      "d": 604.8374999999942,
      "v": 114
    },
    {
      "midi": 71,
      "hit": false,
      "t": 169031.92000000025,
      "d": 604.8374999999942,
      "v": 114
    },
    {
      "midi": 62,
      "hit": false,
      "t": 169677.08000000025,
      "d": 282.257500000007,
      "v": 114
    },
    {
      "midi": 61,
      "hit": false,
      "t": 169999.66000000027,
      "d": 282.257500000007,
      "v": 114
    },
    {
      "midi": 50,
      "hit": false,
      "t": 170322.24000000002,
      "d": 1895.1575000000012,
      "v": 104
    },
    {
      "midi": 55,
      "hit": false,
      "t": 170322.24000000002,
      "d": 1895.1575000000012,
      "v": 104
    },
    {
      "midi": 57,
      "hit": false,
      "t": 170322.24000000002,
      "d": 1895.1575000000012,
      "v": 104
    },
    {
      "midi": 60,
      "hit": false,
      "t": 170322.24000000002,
      "d": 1895.1575000000012,
      "v": 104
    },
    {
      "midi": 64,
      "hit": false,
      "t": 170322.24000000002,
      "d": 1895.1575000000012,
      "v": 104
    },
    {
      "midi": 60,
      "hit": false,
      "t": 170322.24000000028,
      "d": 604.8374999999942,
      "v": 114
    },
    {
      "midi": 69,
      "hit": false,
      "t": 170967.40000000029,
      "d": 1249.9974999999977,
      "v": 114
    },
    {
      "midi": 50,
      "hit": false,
      "t": 172257.72000000003,
      "d": 1572.577500000014,
      "v": 104
    },
    {
      "midi": 55,
      "hit": false,
      "t": 172257.72000000003,
      "d": 1572.577500000014,
      "v": 104
    },
    {
      "midi": 59,
      "hit": false,
      "t": 172257.72000000003,
      "d": 1572.577500000014,
      "v": 104
    },
    {
      "midi": 61,
      "hit": false,
      "t": 172257.7200000003,
      "d": 7.560468749987194,
      "v": 114
    },
    {
      "midi": 70,
      "hit": false,
      "t": 172257.7200000003,
      "d": 7.560468749987194,
      "v": 114
    },
    {
      "midi": 62,
      "hit": false,
      "t": 172257.7200000003,
      "d": 1008.0625,
      "v": 114
    },
    {
      "midi": 71,
      "hit": false,
      "t": 172257.7200000003,
      "d": 1048.3850000000093,
      "v": 114
    },
    {
      "midi": 66,
      "hit": false,
      "t": 173830.2975000003,
      "d": 7.560468749987194,
      "v": 114
    },
    {
      "midi": 75,
      "hit": false,
      "t": 173830.2975000003,
      "d": 7.560468749987194,
      "v": 114
    },
    {
      "midi": 52,
      "hit": false,
      "t": 173870.62000000005,
      "d": 282.257500000007,
      "v": 104
    },
    {
      "midi": 55,
      "hit": false,
      "t": 173870.62000000005,
      "d": 282.257500000007,
      "v": 104
    },
    {
      "midi": 59,
      "hit": false,
      "t": 173870.62000000005,
      "d": 282.257500000007,
      "v": 104
    },
    {
      "midi": 76,
      "hit": false,
      "t": 173870.6200000003,
      "d": 282.257500000007,
      "v": 114
    },
    {
      "midi": 67,
      "hit": false,
      "t": 173870.6200000003,
      "d": 524.1925000000047,
      "v": 114
    },
    {
      "midi": 50,
      "hit": false,
      "t": 174193.20000000007,
      "d": 604.8374999999942,
      "v": 104
    },
    {
      "midi": 55,
      "hit": false,
      "t": 174193.20000000007,
      "d": 604.8374999999942,
      "v": 104
    },
    {
      "midi": 59,
      "hit": false,
      "t": 174193.20000000007,
      "d": 604.8374999999942,
      "v": 104
    },
    {
      "midi": 74,
      "hit": false,
      "t": 174233.52250000028,
      "d": 161.29000000000815,
      "v": 114
    },
    {
      "midi": 52,
      "hit": false,
      "t": 174838.36000000007,
      "d": 282.257500000007,
      "v": 104
    },
    {
      "midi": 55,
      "hit": false,
      "t": 174838.36000000007,
      "d": 282.257500000007,
      "v": 104
    },
    {
      "midi": 59,
      "hit": false,
      "t": 174838.36000000007,
      "d": 282.257500000007,
      "v": 104
    },
    {
      "midi": 70,
      "hit": false,
      "t": 174838.36000000028,
      "d": 7.560468749987194,
      "v": 114
    },
    {
      "midi": 71,
      "hit": false,
      "t": 174878.68250000026,
      "d": 282.257500000007,
      "v": 114
    },
    {
      "midi": 62,
      "hit": false,
      "t": 174878.68250000026,
      "d": 362.9024999999965,
      "v": 114
    },
    {
      "midi": 50,
      "hit": false,
      "t": 175160.9400000001,
      "d": 604.8374999999942,
      "v": 104
    },
    {
      "midi": 55,
      "hit": false,
      "t": 175160.9400000001,
      "d": 604.8374999999942,
      "v": 104
    },
    {
      "midi": 59,
      "hit": false,
      "t": 175160.9400000001,
      "d": 604.8374999999942,
      "v": 104
    },
    {
      "midi": 67,
      "hit": false,
      "t": 175160.94000000026,
      "d": 282.2574999999779,
      "v": 114
    },
    {
      "midi": 62,
      "hit": false,
      "t": 175483.52000000025,
      "d": 282.257500000007,
      "v": 114
    },
    {
      "midi": 50,
      "hit": false,
      "t": 175806.1000000001,
      "d": 282.257500000007,
      "v": 104
    },
    {
      "midi": 55,
      "hit": false,
      "t": 175806.1000000001,
      "d": 282.257500000007,
      "v": 104
    },
    {
      "midi": 59,
      "hit": false,
      "t": 175806.1000000001,
      "d": 282.257500000007,
      "v": 104
    },
    {
      "midi": 64,
      "hit": false,
      "t": 175806.10000000027,
      "d": 161.29000000000815,
      "v": 114
    },
    {
      "midi": 51,
      "hit": false,
      "t": 176128.6800000001,
      "d": 2862.897499999992,
      "v": 104
    },
    {
      "midi": 54,
      "hit": false,
      "t": 176128.6800000001,
      "d": 2862.897499999992,
      "v": 104
    },
    {
      "midi": 57,
      "hit": false,
      "t": 176128.6800000001,
      "d": 2862.897499999992,
      "v": 104
    },
    {
      "midi": 59,
      "hit": false,
      "t": 176128.6800000001,
      "d": 2862.897499999992,
      "v": 104
    },
    {
      "midi": 57,
      "hit": false,
      "t": 176128.68000000028,
      "d": 322.5799999999872,
      "v": 114
    },
    {
      "midi": 63,
      "hit": false,
      "t": 176773.84000000026,
      "d": 1814.5125000000116,
      "v": 114
    },
    {
      "midi": 71,
      "hit": false,
      "t": 176773.84000000026,
      "d": 1814.5125000000116,
      "v": 114
    },
    {
      "midi": 51,
      "hit": false,
      "t": 179031.9000000001,
      "d": 604.8374999999942,
      "v": 104
    },
    {
      "midi": 54,
      "hit": false,
      "t": 179031.9000000001,
      "d": 604.8374999999942,
      "v": 104
    },
    {
      "midi": 59,
      "hit": false,
      "t": 179031.9000000001,
      "d": 604.8374999999942,
      "v": 104
    },
    {
      "midi": 69,
      "hit": false,
      "t": 179031.90000000026,
      "d": 322.5799999999872,
      "v": 114
    },
    {
      "midi": 63,
      "hit": false,
      "t": 179031.90000000026,
      "d": 725.8049999999639,
      "v": 114
    },
    {
      "midi": 66,
      "hit": false,
      "t": 179031.90000000026,
      "d": 725.8049999999639,
      "v": 114
    },
    {
      "midi": 71,
      "hit": false,
      "t": 179354.48000000024,
      "d": 201.61249999998836,
      "v": 114
    },
    {
      "midi": 51,
      "hit": false,
      "t": 179677.0600000001,
      "d": 282.257500000007,
      "v": 104
    },
    {
      "midi": 54,
      "hit": false,
      "t": 179677.0600000001,
      "d": 282.257500000007,
      "v": 104
    },
    {
      "midi": 57,
      "hit": false,
      "t": 179677.0600000001,
      "d": 282.257500000007,
      "v": 104
    },
    {
      "midi": 69,
      "hit": false,
      "t": 179677.06000000023,
      "d": 161.28999999997905,
      "v": 114
    },
    {
      "midi": 52,
      "hit": false,
      "t": 179999.64000000013,
      "d": 604.8374999999942,
      "v": 104
    },
    {
      "midi": 55,
      "hit": false,
      "t": 179999.64000000013,
      "d": 604.8374999999942,
      "v": 104
    },
    {
      "midi": 59,
      "hit": false,
      "t": 179999.64000000013,
      "d": 604.8374999999942,
      "v": 104
    },
    {
      "midi": 67,
      "hit": false,
      "t": 179999.64000000022,
      "d": 282.257500000007,
      "v": 114
    },
    {
      "midi": 59,
      "hit": false,
      "t": 179999.64000000022,
      "d": 604.8375000000233,
      "v": 114
    },
    {
      "midi": 64,
      "hit": false,
      "t": 179999.64000000022,
      "d": 604.8375000000233,
      "v": 114
    },
    {
      "midi": 69,
      "hit": false,
      "t": 180322.22000000023,
      "d": 282.257500000007,
      "v": 114
    },
    {
      "midi": 52,
      "hit": false,
      "t": 180644.80000000013,
      "d": 1249.9974999999977,
      "v": 104
    },
    {
      "midi": 55,
      "hit": false,
      "t": 180644.80000000013,
      "d": 1249.9974999999977,
      "v": 104
    },
    {
      "midi": 59,
      "hit": false,
      "t": 180644.80000000013,
      "d": 1249.9974999999977,
      "v": 104
    },
    {
      "midi": 59,
      "hit": false,
      "t": 180644.80000000025,
      "d": 1290.320000000007,
      "v": 114
    },
    {
      "midi": 64,
      "hit": false,
      "t": 180644.80000000025,
      "d": 1290.320000000007,
      "v": 114
    },
    {
      "midi": 67,
      "hit": false,
      "t": 180644.80000000025,
      "d": 1330.6425000000163,
      "v": 114
    },
    {
      "midi": 50,
      "hit": false,
      "t": 182580.28000000014,
      "d": 927.4175000000105,
      "v": 104
    },
    {
      "midi": 53,
      "hit": false,
      "t": 182580.28000000014,
      "d": 927.4175000000105,
      "v": 104
    },
    {
      "midi": 55,
      "hit": false,
      "t": 182580.28000000014,
      "d": 927.4175000000105,
      "v": 104
    },
    {
      "midi": 59,
      "hit": false,
      "t": 182580.28000000014,
      "d": 927.4175000000105,
      "v": 104
    },
    {
      "midi": 62,
      "hit": false,
      "t": 182580.28000000026,
      "d": 282.257500000007,
      "v": 114
    },
    {
      "midi": 67,
      "hit": false,
      "t": 182580.28000000026,
      "d": 282.257500000007,
      "v": 114
    },
    {
      "midi": 59,
      "hit": false,
      "t": 182580.28000000026,
      "d": 1048.3850000000384,
      "v": 114
    },
    {
      "midi": 62,
      "hit": false,
      "t": 182902.86000000028,
      "d": 685.4825000000128,
      "v": 114
    },
    {
      "midi": 67,
      "hit": false,
      "t": 182902.86000000028,
      "d": 685.4825000000128,
      "v": 114
    },
    {
      "midi": 50,
      "hit": false,
      "t": 183548.02000000016,
      "d": 282.257500000007,
      "v": 104
    },
    {
      "midi": 53,
      "hit": false,
      "t": 183548.02000000016,
      "d": 282.257500000007,
      "v": 104
    },
    {
      "midi": 55,
      "hit": false,
      "t": 183548.02000000016,
      "d": 282.257500000007,
      "v": 104
    },
    {
      "midi": 59,
      "hit": false,
      "t": 183548.02000000016,
      "d": 282.257500000007,
      "v": 104
    },
    {
      "midi": 55,
      "hit": false,
      "t": 183870.60000000018,
      "d": 1895.1575000000012,
      "v": 104
    },
    {
      "midi": 60,
      "hit": false,
      "t": 183870.60000000018,
      "d": 1895.1575000000012,
      "v": 104
    },
    {
      "midi": 62,
      "hit": false,
      "t": 183870.60000000018,
      "d": 1895.1575000000012,
      "v": 104
    },
    {
      "midi": 64,
      "hit": false,
      "t": 183870.60000000018,
      "d": 1895.1575000000012,
      "v": 104
    },
    {
      "midi": 67,
      "hit": false,
      "t": 184838.3400000003,
      "d": 282.257500000007,
      "v": 114
    },
    {
      "midi": 69,
      "hit": false,
      "t": 185160.9200000003,
      "d": 282.257500000007,
      "v": 114
    },
    {
      "midi": 67,
      "hit": false,
      "t": 185483.50000000032,
      "d": 282.257500000007,
      "v": 114
    },
    {
      "midi": 55,
      "hit": false,
      "t": 185806.0800000002,
      "d": 604.8374999999942,
      "v": 104
    },
    {
      "midi": 58,
      "hit": false,
      "t": 185806.0800000002,
      "d": 604.8374999999942,
      "v": 104
    },
    {
      "midi": 61,
      "hit": false,
      "t": 185806.0800000002,
      "d": 604.8374999999942,
      "v": 104
    },
    {
      "midi": 64,
      "hit": false,
      "t": 185806.0800000002,
      "d": 604.8374999999942,
      "v": 104
    },
    {
      "midi": 70,
      "hit": false,
      "t": 185806.08000000034,
      "d": 1491.9324999999953,
      "v": 114
    },
    {
      "midi": 55,
      "hit": false,
      "t": 186451.2400000002,
      "d": 1249.9974999999977,
      "v": 104
    },
    {
      "midi": 58,
      "hit": false,
      "t": 186451.2400000002,
      "d": 1249.9974999999977,
      "v": 104
    },
    {
      "midi": 61,
      "hit": false,
      "t": 186451.2400000002,
      "d": 1249.9974999999977,
      "v": 104
    },
    {
      "midi": 64,
      "hit": false,
      "t": 186451.2400000002,
      "d": 1249.9974999999977,
      "v": 104
    },
    {
      "midi": 55,
      "hit": false,
      "t": 187741.5600000002,
      "d": 1895.1575000000012,
      "v": 104
    },
    {
      "midi": 57,
      "hit": false,
      "t": 187741.5600000002,
      "d": 1895.1575000000012,
      "v": 104
    },
    {
      "midi": 59,
      "hit": false,
      "t": 187741.5600000002,
      "d": 1895.1575000000012,
      "v": 104
    },
    {
      "midi": 62,
      "hit": false,
      "t": 187741.5600000002,
      "d": 1895.1575000000012,
      "v": 104
    },
    {
      "midi": 52,
      "hit": false,
      "t": 189677.0400000002,
      "d": 1895.1575000000012,
      "v": 104
    },
    {
      "midi": 56,
      "hit": false,
      "t": 189677.0400000002,
      "d": 1895.1575000000012,
      "v": 104
    },
    {
      "midi": 60,
      "hit": false,
      "t": 189677.0400000002,
      "d": 1895.1575000000012,
      "v": 104
    },
    {
      "midi": 64,
      "hit": false,
      "t": 189677.0400000002,
      "d": 1895.1575000000012,
      "v": 104
    },
    {
      "midi": 72,
      "hit": false,
      "t": 189677.04000000033,
      "d": 604.8374999999942,
      "v": 114
    },
    {
      "midi": 68,
      "hit": false,
      "t": 189677.04000000033,
      "d": 645.1600000000035,
      "v": 114
    },
    {
      "midi": 62,
      "hit": false,
      "t": 189677.04000000033,
      "d": 887.0950000000012,
      "v": 114
    },
    {
      "midi": 64,
      "hit": false,
      "t": 189677.04000000033,
      "d": 887.0950000000012,
      "v": 114
    },
    {
      "midi": 75,
      "hit": false,
      "t": 190644.78000000032,
      "d": 7.560468749987194,
      "v": 114
    },
    {
      "midi": 76,
      "hit": false,
      "t": 190685.1025000003,
      "d": 241.93499999999767,
      "v": 114
    },
    {
      "midi": 64,
      "hit": false,
      "t": 190967.3600000003,
      "d": 282.257500000007,
      "v": 114
    },
    {
      "midi": 62,
      "hit": false,
      "t": 191289.94000000032,
      "d": 322.5799999999872,
      "v": 114
    },
    {
      "midi": 55,
      "hit": false,
      "t": 191612.52000000022,
      "d": 1895.1575000000012,
      "v": 104
    },
    {
      "midi": 59,
      "hit": false,
      "t": 191612.52000000022,
      "d": 1895.1575000000012,
      "v": 104
    },
    {
      "midi": 61,
      "hit": false,
      "t": 191612.52000000022,
      "d": 1895.1575000000012,
      "v": 104
    },
    {
      "midi": 64,
      "hit": false,
      "t": 191612.52000000022,
      "d": 1895.1575000000012,
      "v": 104
    },
    {
      "midi": 61,
      "hit": false,
      "t": 191612.5200000003,
      "d": 403.2250000000058,
      "v": 114
    },
    {
      "midi": 70,
      "hit": false,
      "t": 192257.6800000003,
      "d": 40.32250000000931,
      "v": 114
    },
    {
      "midi": 71,
      "hit": false,
      "t": 192257.6800000003,
      "d": 282.257500000007,
      "v": 114
    },
    {
      "midi": 71,
      "hit": false,
      "t": 192580.26000000033,
      "d": 927.4175000000105,
      "v": 114
    },
    {
      "midi": 50,
      "hit": false,
      "t": 193548.00000000023,
      "d": 927.4175000000105,
      "v": 104
    },
    {
      "midi": 55,
      "hit": false,
      "t": 193548.00000000023,
      "d": 927.4175000000105,
      "v": 104
    },
    {
      "midi": 57,
      "hit": false,
      "t": 193548.00000000023,
      "d": 927.4175000000105,
      "v": 104
    },
    {
      "midi": 60,
      "hit": false,
      "t": 193548.00000000023,
      "d": 927.4175000000105,
      "v": 104
    },
    {
      "midi": 64,
      "hit": false,
      "t": 193548.00000000023,
      "d": 927.4175000000105,
      "v": 104
    },
    {
      "midi": 67,
      "hit": false,
      "t": 193548.00000000035,
      "d": 927.4175000000105,
      "v": 114
    },
    {
      "midi": 50,
      "hit": false,
      "t": 194515.74000000025,
      "d": 927.4175000000105,
      "v": 104
    },
    {
      "midi": 54,
      "hit": false,
      "t": 194515.74000000025,
      "d": 927.4175000000105,
      "v": 104
    },
    {
      "midi": 57,
      "hit": false,
      "t": 194515.74000000025,
      "d": 927.4175000000105,
      "v": 104
    },
    {
      "midi": 60,
      "hit": false,
      "t": 194515.74000000025,
      "d": 927.4175000000105,
      "v": 104
    },
    {
      "midi": 64,
      "hit": false,
      "t": 194515.74000000025,
      "d": 927.4175000000105,
      "v": 104
    },
    {
      "midi": 66,
      "hit": false,
      "t": 194515.74000000037,
      "d": 927.4175000000105,
      "v": 114
    },
    {
      "midi": 53,
      "hit": false,
      "t": 196128.64000000028,
      "d": 3185.477500000008,
      "v": 104
    },
    {
      "midi": 59,
      "hit": false,
      "t": 196128.64000000028,
      "d": 3185.477500000008,
      "v": 104
    },
    {
      "midi": 63,
      "hit": false,
      "t": 196128.64000000028,
      "d": 3185.477500000008,
      "v": 104
    },
    {
      "midi": 65,
      "hit": false,
      "t": 196128.64000000028,
      "d": 3185.477500000008,
      "v": 104
    },
    {
      "midi": 67,
      "hit": false,
      "t": 196128.64000000028,
      "d": 3185.477500000008,
      "v": 104
    },
    {
      "midi": 60,
      "hit": false,
      "t": 196128.6400000004,
      "d": 3185.477500000008,
      "v": 114
    },
    {
      "midi": 63,
      "hit": false,
      "t": 196128.6400000004,
      "d": 3185.477500000008,
      "v": 114
    },
    {
      "midi": 67,
      "hit": false,
      "t": 196128.6400000004,
      "d": 3185.477500000008,
      "v": 114
    },
    {
      "midi": 71,
      "hit": false,
      "t": 196128.6400000004,
      "d": 3185.477500000008,
      "v": 114
    },
    {
      "midi": 56,
      "hit": false,
      "t": 199999.6000000003,
      "d": 2217.7374999999884,
      "v": 104
    },
    {
      "midi": 59,
      "hit": false,
      "t": 199999.6000000003,
      "d": 2217.7374999999884,
      "v": 104
    },
    {
      "midi": 62,
      "hit": false,
      "t": 199999.6000000003,
      "d": 2217.7374999999884,
      "v": 104
    },
    {
      "midi": 64,
      "hit": false,
      "t": 199999.6000000003,
      "d": 2217.7374999999884,
      "v": 104
    },
    {
      "midi": 68,
      "hit": false,
      "t": 199999.6000000004,
      "d": 1895.1575000000012,
      "v": 114
    },
    {
      "midi": 71,
      "hit": false,
      "t": 199999.6000000004,
      "d": 1895.1575000000012,
      "v": 114
    },
    {
      "midi": 76,
      "hit": false,
      "t": 199999.6000000004,
      "d": 1895.1575000000012,
      "v": 114
    },
    {
      "midi": 62,
      "hit": false,
      "t": 201935.08000000042,
      "d": 927.4175000000105,
      "v": 114
    },
    {
      "midi": 64,
      "hit": false,
      "t": 201935.08000000042,
      "d": 927.4175000000105,
      "v": 114
    },
    {
      "midi": 68,
      "hit": false,
      "t": 201935.08000000042,
      "d": 927.4175000000105,
      "v": 114
    },
    {
      "midi": 72,
      "hit": false,
      "t": 201935.08000000042,
      "d": 927.4175000000105,
      "v": 114
    },
    {
      "midi": 52,
      "hit": false,
      "t": 202257.6600000003,
      "d": 927.4175000000105,
      "v": 104
    },
    {
      "midi": 56,
      "hit": false,
      "t": 202257.6600000003,
      "d": 927.4175000000105,
      "v": 104
    },
    {
      "midi": 59,
      "hit": false,
      "t": 202257.6600000003,
      "d": 927.4175000000105,
      "v": 104
    },
    {
      "midi": 62,
      "hit": false,
      "t": 202257.6600000003,
      "d": 927.4175000000105,
      "v": 104
    },
    {
      "midi": 62,
      "hit": false,
      "t": 202902.82000000044,
      "d": 282.257500000007,
      "v": 114
    },
    {
      "midi": 64,
      "hit": false,
      "t": 202902.82000000044,
      "d": 282.257500000007,
      "v": 114
    },
    {
      "midi": 68,
      "hit": false,
      "t": 202902.82000000044,
      "d": 282.257500000007,
      "v": 114
    },
    {
      "midi": 71,
      "hit": false,
      "t": 202902.82000000044,
      "d": 282.257500000007,
      "v": 114
    },
    {
      "midi": 55,
      "hit": false,
      "t": 203225.4000000003,
      "d": 927.4175000000105,
      "v": 104
    },
    {
      "midi": 59,
      "hit": false,
      "t": 203225.4000000003,
      "d": 927.4175000000105,
      "v": 104
    },
    {
      "midi": 61,
      "hit": false,
      "t": 203225.4000000003,
      "d": 927.4175000000105,
      "v": 104
    },
    {
      "midi": 64,
      "hit": false,
      "t": 203225.4000000003,
      "d": 927.4175000000105,
      "v": 104
    },
    {
      "midi": 61,
      "hit": false,
      "t": 203225.40000000046,
      "d": 2540.3175000000047,
      "v": 114
    },
    {
      "midi": 64,
      "hit": false,
      "t": 203225.40000000046,
      "d": 2540.3175000000047,
      "v": 114
    },
    {
      "midi": 67,
      "hit": false,
      "t": 203225.40000000046,
      "d": 2540.3175000000047,
      "v": 114
    },
    {
      "midi": 71,
      "hit": false,
      "t": 203225.40000000046,
      "d": 2540.3175000000047,
      "v": 114
    },
    {
      "midi": 55,
      "hit": false,
      "t": 204193.14000000033,
      "d": 2862.897499999992,
      "v": 104
    },
    {
      "midi": 59,
      "hit": false,
      "t": 204193.14000000033,
      "d": 2862.897499999992,
      "v": 104
    },
    {
      "midi": 61,
      "hit": false,
      "t": 204193.14000000033,
      "d": 2862.897499999992,
      "v": 104
    },
    {
      "midi": 64,
      "hit": false,
      "t": 204193.14000000033,
      "d": 2862.897499999992,
      "v": 104
    },
    {
      "midi": 61,
      "hit": false,
      "t": 205806.04000000047,
      "d": 927.4175000000105,
      "v": 114
    },
    {
      "midi": 64,
      "hit": false,
      "t": 205806.04000000047,
      "d": 927.4175000000105,
      "v": 114
    },
    {
      "midi": 67,
      "hit": false,
      "t": 205806.04000000047,
      "d": 927.4175000000105,
      "v": 114
    },
    {
      "midi": 55,
      "hit": false,
      "t": 206773.7800000005,
      "d": 282.257500000007,
      "v": 114
    },
    {
      "midi": 57,
      "hit": false,
      "t": 206773.7800000005,
      "d": 282.257500000007,
      "v": 114
    },
    {
      "midi": 61,
      "hit": false,
      "t": 206773.7800000005,
      "d": 282.257500000007,
      "v": 114
    },
    {
      "midi": 64,
      "hit": false,
      "t": 206773.7800000005,
      "d": 282.257500000007,
      "v": 114
    },
    {
      "midi": 60,
      "hit": false,
      "t": 207096.3600000005,
      "d": 2540.3175000000047,
      "v": 114
    },
    {
      "midi": 64,
      "hit": false,
      "t": 207096.3600000005,
      "d": 2540.3175000000047,
      "v": 114
    },
    {
      "midi": 67,
      "hit": false,
      "t": 207096.3600000005,
      "d": 2540.3175000000047,
      "v": 114
    },
    {
      "midi": 71,
      "hit": false,
      "t": 207096.3600000005,
      "d": 2540.3175000000047,
      "v": 114
    },
    {
      "midi": 50,
      "hit": false,
      "t": 207741.52000000034,
      "d": 1895.1575000000012,
      "v": 104
    },
    {
      "midi": 57,
      "hit": false,
      "t": 207741.52000000034,
      "d": 1895.1575000000012,
      "v": 104
    },
    {
      "midi": 60,
      "hit": false,
      "t": 207741.52000000034,
      "d": 1895.1575000000012,
      "v": 104
    },
    {
      "midi": 64,
      "hit": false,
      "t": 207741.52000000034,
      "d": 1895.1575000000012,
      "v": 104
    },
    {
      "midi": 67,
      "hit": false,
      "t": 207741.52000000034,
      "d": 1895.1575000000012,
      "v": 104
    },
    {
      "midi": 50,
      "hit": false,
      "t": 209677.00000000035,
      "d": 1249.9974999999977,
      "v": 104
    },
    {
      "midi": 60,
      "hit": false,
      "t": 209677.00000000035,
      "d": 1249.9974999999977,
      "v": 104
    },
    {
      "midi": 64,
      "hit": false,
      "t": 209677.00000000035,
      "d": 1249.9974999999977,
      "v": 104
    },
    {
      "midi": 66,
      "hit": false,
      "t": 209677.00000000035,
      "d": 1249.9974999999977,
      "v": 104
    },
    {
      "midi": 71,
      "hit": false,
      "t": 209677.00000000035,
      "d": 1249.9974999999977,
      "v": 104
    },
    {
      "midi": 60,
      "hit": false,
      "t": 209677.00000000052,
      "d": 927.4175000000105,
      "v": 114
    },
    {
      "midi": 62,
      "hit": false,
      "t": 209677.00000000052,
      "d": 927.4175000000105,
      "v": 114
    },
    {
      "midi": 66,
      "hit": false,
      "t": 209677.00000000052,
      "d": 927.4175000000105,
      "v": 114
    },
    {
      "midi": 71,
      "hit": false,
      "t": 209677.00000000052,
      "d": 927.4175000000105,
      "v": 114
    },
    {
      "midi": 60,
      "hit": false,
      "t": 210644.74000000054,
      "d": 282.257500000007,
      "v": 114
    },
    {
      "midi": 64,
      "hit": false,
      "t": 210644.74000000054,
      "d": 282.257500000007,
      "v": 114
    },
    {
      "midi": 67,
      "hit": false,
      "t": 210644.74000000054,
      "d": 282.257500000007,
      "v": 114
    },
    {
      "midi": 43,
      "hit": false,
      "t": 210967.32000000036,
      "d": 927.4175000000105,
      "v": 104
    },
    {
      "midi": 55,
      "hit": false,
      "t": 210967.32000000036,
      "d": 927.4175000000105,
      "v": 104
    },
    {
      "midi": 59,
      "hit": false,
      "t": 210967.32000000036,
      "d": 927.4175000000105,
      "v": 104
    },
    {
      "midi": 62,
      "hit": false,
      "t": 210967.32000000036,
      "d": 927.4175000000105,
      "v": 104
    },
    {
      "midi": 67,
      "hit": false,
      "t": 211612.48000000056,
      "d": 322.5800000000163,
      "v": 114
    },
    {
      "midi": 73,
      "hit": false,
      "t": 211894.73750000057,
      "d": 40.32250000000931,
      "v": 114
    },
    {
      "midi": 47,
      "hit": false,
      "t": 211935.06000000038,
      "d": 927.4175000000105,
      "v": 104
    },
    {
      "midi": 53,
      "hit": false,
      "t": 211935.06000000038,
      "d": 927.4175000000105,
      "v": 104
    },
    {
      "midi": 55,
      "hit": false,
      "t": 211935.06000000038,
      "d": 927.4175000000105,
      "v": 104
    },
    {
      "midi": 59,
      "hit": false,
      "t": 211935.06000000038,
      "d": 927.4175000000105,
      "v": 104
    },
    {
      "midi": 62,
      "hit": false,
      "t": 211935.06000000038,
      "d": 927.4175000000105,
      "v": 104
    },
    {
      "midi": 74,
      "hit": false,
      "t": 211935.06000000058,
      "d": 241.93499999999767,
      "v": 114
    },
    {
      "midi": 73,
      "hit": false,
      "t": 212539.89750000057,
      "d": 40.32250000000931,
      "v": 114
    },
    {
      "midi": 74,
      "hit": false,
      "t": 212580.22000000058,
      "d": 241.93499999999767,
      "v": 114
    },
    {
      "midi": 48,
      "hit": false,
      "t": 212902.8000000004,
      "d": 927.4175000000105,
      "v": 104
    },
    {
      "midi": 55,
      "hit": false,
      "t": 212902.8000000004,
      "d": 927.4175000000105,
      "v": 104
    },
    {
      "midi": 60,
      "hit": false,
      "t": 212902.8000000004,
      "d": 927.4175000000105,
      "v": 104
    },
    {
      "midi": 62,
      "hit": false,
      "t": 212902.8000000004,
      "d": 927.4175000000105,
      "v": 104
    },
    {
      "midi": 64,
      "hit": false,
      "t": 212902.8000000004,
      "d": 927.4175000000105,
      "v": 104
    },
    {
      "midi": 72,
      "hit": false,
      "t": 212902.80000000057,
      "d": 241.93499999999767,
      "v": 114
    },
    {
      "midi": 49,
      "hit": false,
      "t": 213870.54000000042,
      "d": 927.4175000000105,
      "v": 104
    },
    {
      "midi": 55,
      "hit": false,
      "t": 213870.54000000042,
      "d": 927.4175000000105,
      "v": 104
    },
    {
      "midi": 58,
      "hit": false,
      "t": 213870.54000000042,
      "d": 927.4175000000105,
      "v": 104
    },
    {
      "midi": 61,
      "hit": false,
      "t": 213870.54000000042,
      "d": 927.4175000000105,
      "v": 104
    },
    {
      "midi": 64,
      "hit": false,
      "t": 213870.54000000042,
      "d": 927.4175000000105,
      "v": 104
    },
    {
      "midi": 70,
      "hit": false,
      "t": 213870.54000000056,
      "d": 201.61249999998836,
      "v": 114
    },
    {
      "midi": 50,
      "hit": false,
      "t": 214838.28000000044,
      "d": 927.4175000000105,
      "v": 104
    },
    {
      "midi": 55,
      "hit": false,
      "t": 214838.28000000044,
      "d": 927.4175000000105,
      "v": 104
    },
    {
      "midi": 59,
      "hit": false,
      "t": 214838.28000000044,
      "d": 927.4175000000105,
      "v": 104
    },
    {
      "midi": 62,
      "hit": false,
      "t": 214838.28000000044,
      "d": 927.4175000000105,
      "v": 104
    },
    {
      "midi": 64,
      "hit": false,
      "t": 214838.28000000044,
      "d": 927.4175000000105,
      "v": 104
    },
    {
      "midi": 62,
      "hit": false,
      "t": 214838.28000000055,
      "d": 7.560468749987194,
      "v": 114
    },
    {
      "midi": 67,
      "hit": false,
      "t": 214838.28000000055,
      "d": 7.560468749987194,
      "v": 114
    },
    {
      "midi": 70,
      "hit": false,
      "t": 214878.60250000053,
      "d": 7.560468749987194,
      "v": 114
    },
    {
      "midi": 71,
      "hit": false,
      "t": 214878.60250000053,
      "d": 241.93499999999767,
      "v": 114
    },
    {
      "midi": 67,
      "hit": false,
      "t": 215080.21500000052,
      "d": 120.96749999999884,
      "v": 114
    },
    {
      "midi": 65,
      "hit": false,
      "t": 215322.15000000052,
      "d": 80.64499999998952,
      "v": 114
    },
    {
      "midi": 62,
      "hit": false,
      "t": 215483.4400000005,
      "d": 80.64499999998952,
      "v": 114
    },
    {
      "midi": 44,
      "hit": false,
      "t": 215806.02000000046,
      "d": 604.8374999999942,
      "v": 104
    },
    {
      "midi": 54,
      "hit": false,
      "t": 215806.02000000046,
      "d": 604.8374999999942,
      "v": 104
    },
    {
      "midi": 58,
      "hit": false,
      "t": 215806.02000000046,
      "d": 604.8374999999942,
      "v": 104
    },
    {
      "midi": 60,
      "hit": false,
      "t": 215806.02000000046,
      "d": 604.8374999999942,
      "v": 104
    },
    {
      "midi": 63,
      "hit": false,
      "t": 215806.02000000046,
      "d": 604.8374999999942,
      "v": 104
    },
    {
      "midi": 60,
      "hit": false,
      "t": 215806.02000000048,
      "d": 241.93499999999767,
      "v": 114
    },
    {
      "midi": 43,
      "hit": false,
      "t": 216451.18000000046,
      "d": 927.4175000000105,
      "v": 104
    },
    {
      "midi": 53,
      "hit": false,
      "t": 216451.18000000046,
      "d": 927.4175000000105,
      "v": 104
    },
    {
      "midi": 57,
      "hit": false,
      "t": 216451.18000000046,
      "d": 927.4175000000105,
      "v": 104
    },
    {
      "midi": 59,
      "hit": false,
      "t": 216451.18000000046,
      "d": 927.4175000000105,
      "v": 104
    },
    {
      "midi": 62,
      "hit": false,
      "t": 216451.18000000046,
      "d": 927.4175000000105,
      "v": 104
    },
    {
      "midi": 59,
      "hit": false,
      "t": 216451.1800000005,
      "d": 685.4825000000128,
      "v": 114
    },
    {
      "midi": 55,
      "hit": false,
      "t": 217418.92000000048,
      "d": 5120.9574999999895,
      "v": 104
    },
    {
      "midi": 59,
      "hit": false,
      "t": 217418.92000000048,
      "d": 5120.9574999999895,
      "v": 104
    },
    {
      "midi": 62,
      "hit": false,
      "t": 217418.92000000048,
      "d": 5120.9574999999895,
      "v": 104
    },
    {
      "midi": 65,
      "hit": false,
      "t": 217418.92000000048,
      "d": 5120.9574999999895,
      "v": 104
    },
    {
      "midi": 70,
      "hit": false,
      "t": 217418.92000000048,
      "d": 5120.9574999999895,
      "v": 104
    },
    {
      "midi": 62,
      "hit": false,
      "t": 219354.4000000005,
      "d": 282.257500000007,
      "v": 114
    },
    {
      "midi": 70,
      "hit": false,
      "t": 219676.9800000005,
      "d": 604.8374999999942,
      "v": 114
    },
    {
      "midi": 77,
      "hit": false,
      "t": 220322.1400000005,
      "d": 282.257500000007,
      "v": 114
    },
    {
      "midi": 82,
      "hit": false,
      "t": 220644.72000000053,
      "d": 604.8374999999942,
      "v": 114
    },
    {
      "midi": 89,
      "hit": false,
      "t": 221289.88000000053,
      "d": 282.257500000007,
      "v": 114
    },
    {
      "midi": 94,
      "hit": false,
      "t": 221612.46000000054,
      "d": 927.4175000000105,
      "v": 114
    }
  ]
}