{
  "jsonPath": "Animes/Clamp Campus Detectives MIDI Collection/csdetect.json",
  "path": "Animes\\Clamp Campus Detectives MIDI Collection\\csdetect.mid",
  "name": "csdetect",
  "difficulty": "Advanced",
  "bpm": 240,
  "notes": [
    {
      "midi": 62,
      "hit": false,
      "t": 1000.0000000000011,
      "d": 5.2966041666666115,
      "v": 127
    },
    {
      "midi": 50,
      "hit": false,
      "t": 1000.0000000000011,
      "d": 31.779624999999896,
      "v": 114
    },
    {
      "midi": 74,
      "hit": false,
      "t": 1010.5932083333344,
      "d": 84.7456666666667,
      "v": 127
    },
    {
      "midi": 38,
      "hit": false,
      "t": 1010.5932083333344,
      "d": 95.33887499999992,
      "v": 127
    },
    {
      "midi": 62,
      "hit": false,
      "t": 1254.2370000000008,
      "d": 5.2966041666666115,
      "v": 6
    },
    {
      "midi": 50,
      "hit": false,
      "t": 1254.2370000000008,
      "d": 31.779624999999896,
      "v": 73
    },
    {
      "midi": 38,
      "hit": false,
      "t": 1254.2370000000008,
      "d": 137.71170833333326,
      "v": 73
    },
    {
      "midi": 52,
      "hit": false,
      "t": 1762.7110000000007,
      "d": 5.2966041666666115,
      "v": 114
    },
    {
      "midi": 64,
      "hit": false,
      "t": 1762.7110000000007,
      "d": 5.2966041666666115,
      "v": 127
    },
    {
      "midi": 40,
      "hit": false,
      "t": 1773.304208333334,
      "d": 90.0422708333333,
      "v": 127
    },
    {
      "midi": 76,
      "hit": false,
      "t": 1773.304208333334,
      "d": 90.0422708333333,
      "v": 127
    },
    {
      "midi": 52,
      "hit": false,
      "t": 2016.9480000000003,
      "d": 5.2966041666666115,
      "v": 73
    },
    {
      "midi": 64,
      "hit": false,
      "t": 2016.9480000000003,
      "d": 5.2966041666666115,
      "v": 6
    },
    {
      "midi": 40,
      "hit": false,
      "t": 2016.9480000000003,
      "d": 100.63547916666676,
      "v": 73
    },
    {
      "midi": 60,
      "hit": false,
      "t": 2525.4220000000005,
      "d": 5.296604166666839,
      "v": 127
    },
    {
      "midi": 48,
      "hit": false,
      "t": 2525.4220000000005,
      "d": 42.3728333333338,
      "v": 114
    },
    {
      "midi": 72,
      "hit": false,
      "t": 2536.015208333334,
      "d": 74.15245833333347,
      "v": 127
    },
    {
      "midi": 36,
      "hit": false,
      "t": 2536.015208333334,
      "d": 84.7456666666667,
      "v": 127
    },
    {
      "midi": 48,
      "hit": false,
      "t": 2779.6590000000006,
      "d": 42.37283333333335,
      "v": 73
    },
    {
      "midi": 36,
      "hit": false,
      "t": 2779.6590000000006,
      "d": 148.3049166666665,
      "v": 73
    },
    {
      "midi": 50,
      "hit": false,
      "t": 3033.896,
      "d": 15.889812500000062,
      "v": 114
    },
    {
      "midi": 62,
      "hit": false,
      "t": 3033.896,
      "d": 15.889812500000062,
      "v": 127
    },
    {
      "midi": 38,
      "hit": false,
      "t": 3033.896,
      "d": 116.52529166666682,
      "v": 114
    },
    {
      "midi": 74,
      "hit": false,
      "t": 3044.4892083333334,
      "d": 95.33887500000037,
      "v": 127
    },
    {
      "midi": 96,
      "hit": false,
      "t": 3065.6756250000003,
      "d": 5052.960375000001,
      "v": 113
    },
    {
      "midi": 84,
      "hit": false,
      "t": 3065.6756250000003,
      "d": 5074.146791666668,
      "v": 105
    },
    {
      "midi": 50,
      "hit": false,
      "t": 3288.1330000000003,
      "d": 15.889812500000062,
      "v": 73
    },
    {
      "midi": 38,
      "hit": false,
      "t": 3288.1330000000003,
      "d": 116.52529166666682,
      "v": 48
    },
    {
      "midi": 58,
      "hit": false,
      "t": 3786.0137916666667,
      "d": 10.593208333333223,
      "v": 127
    },
    {
      "midi": 70,
      "hit": false,
      "t": 3786.0137916666667,
      "d": 10.593208333333223,
      "v": 127
    },
    {
      "midi": 77,
      "hit": false,
      "t": 3786.0137916666667,
      "d": 10.593208333333223,
      "v": 70
    },
    {
      "midi": 77,
      "hit": false,
      "t": 3796.607,
      "d": 5.296604166666839,
      "v": 70
    },
    {
      "midi": 34,
      "hit": false,
      "t": 3796.607,
      "d": 10.593208333333678,
      "v": 127
    },
    {
      "midi": 46,
      "hit": false,
      "t": 3796.607,
      "d": 10.593208333333678,
      "v": 81
    },
    {
      "midi": 65,
      "hit": false,
      "t": 3796.607,
      "d": 10.593208333333678,
      "v": 127
    },
    {
      "midi": 70,
      "hit": false,
      "t": 3796.607,
      "d": 10.593208333333678,
      "v": 127
    },
    {
      "midi": 58,
      "hit": false,
      "t": 3796.607,
      "d": 79.44906250000031,
      "v": 127
    },
    {
      "midi": 34,
      "hit": false,
      "t": 3807.2002083333336,
      "d": 37.07622916666651,
      "v": 127
    },
    {
      "midi": 46,
      "hit": false,
      "t": 3807.2002083333336,
      "d": 37.07622916666651,
      "v": 81
    },
    {
      "midi": 65,
      "hit": false,
      "t": 3807.2002083333336,
      "d": 37.07622916666651,
      "v": 127
    },
    {
      "midi": 70,
      "hit": false,
      "t": 3807.2002083333336,
      "d": 68.85585416666663,
      "v": 127
    },
    {
      "midi": 60,
      "hit": false,
      "t": 4294.487791666666,
      "d": 10.593208333333678,
      "v": 127
    },
    {
      "midi": 72,
      "hit": false,
      "t": 4294.487791666666,
      "d": 10.593208333333678,
      "v": 127
    },
    {
      "midi": 79,
      "hit": false,
      "t": 4294.487791666666,
      "d": 10.593208333333678,
      "v": 70
    },
    {
      "midi": 79,
      "hit": false,
      "t": 4305.081,
      "d": 5.296604166666839,
      "v": 70
    },
    {
      "midi": 36,
      "hit": false,
      "t": 4305.081,
      "d": 10.593208333333678,
      "v": 127
    },
    {
      "midi": 48,
      "hit": false,
      "t": 4305.081,
      "d": 10.593208333333678,
      "v": 81
    },
    {
      "midi": 67,
      "hit": false,
      "t": 4305.081,
      "d": 10.593208333333678,
      "v": 127
    },
    {
      "midi": 72,
      "hit": false,
      "t": 4305.081,
      "d": 10.593208333333678,
      "v": 127
    },
    {
      "midi": 60,
      "hit": false,
      "t": 4305.081,
      "d": 79.44906250000076,
      "v": 127
    },
    {
      "midi": 36,
      "hit": false,
      "t": 4315.674208333334,
      "d": 31.779625000000124,
      "v": 127
    },
    {
      "midi": 48,
      "hit": false,
      "t": 4315.674208333334,
      "d": 31.779625000000124,
      "v": 81
    },
    {
      "midi": 67,
      "hit": false,
      "t": 4315.674208333334,
      "d": 31.779625000000124,
      "v": 127
    },
    {
      "midi": 72,
      "hit": false,
      "t": 4315.674208333334,
      "d": 68.85585416666709,
      "v": 127
    },
    {
      "midi": 38,
      "hit": false,
      "t": 5067.792000000003,
      "d": 0,
      "v": 76
    },
    {
      "midi": 50,
      "hit": false,
      "t": 5067.792000000003,
      "d": 0,
      "v": 64
    },
    {
      "midi": 38,
      "hit": false,
      "t": 5067.792000000003,
      "d": 10.593208333333678,
      "v": 127
    },
    {
      "midi": 50,
      "hit": false,
      "t": 5067.792000000003,
      "d": 79.44906250000076,
      "v": 127
    },
    {
      "midi": 38,
      "hit": false,
      "t": 5078.385208333337,
      "d": 68.85585416666709,
      "v": 127
    },
    {
      "midi": 99,
      "hit": false,
      "t": 5152.537666666671,
      "d": 3463.9791249999944,
      "v": 127
    },
    {
      "midi": 82,
      "hit": false,
      "t": 5152.537666666671,
      "d": 3479.868937499994,
      "v": 118
    },
    {
      "midi": 121,
      "hit": false,
      "t": 5194.9105000000045,
      "d": 3463.9791249999935,
      "v": 127
    },
    {
      "midi": 91,
      "hit": false,
      "t": 5194.9105000000045,
      "d": 3479.868937499993,
      "v": 118
    },
    {
      "midi": 108,
      "hit": false,
      "t": 5364.401833333338,
      "d": 2632.412270833329,
      "v": 118
    },
    {
      "midi": 56,
      "hit": false,
      "t": 5597.4524166666715,
      "d": 58.2626458333325,
      "v": 124
    },
    {
      "midi": 62,
      "hit": false,
      "t": 5597.4524166666715,
      "d": 58.2626458333325,
      "v": 124
    },
    {
      "midi": 56,
      "hit": false,
      "t": 5745.757333333337,
      "d": 84.74566666666578,
      "v": 82
    },
    {
      "midi": 62,
      "hit": false,
      "t": 5745.757333333337,
      "d": 84.74566666666578,
      "v": 82
    },
    {
      "midi": 116,
      "hit": false,
      "t": 5788.1301666666695,
      "d": 2081.565437499996,
      "v": 118
    },
    {
      "midi": 103,
      "hit": false,
      "t": 6116.519625000001,
      "d": 1996.8197708333328,
      "v": 127
    },
    {
      "midi": 106,
      "hit": false,
      "t": 6116.519625000001,
      "d": 1996.8197708333328,
      "v": 119
    },
    {
      "midi": 38,
      "hit": false,
      "t": 7101.687999999998,
      "d": 0,
      "v": 76
    },
    {
      "midi": 50,
      "hit": false,
      "t": 7101.687999999998,
      "d": 0,
      "v": 64
    },
    {
      "midi": 38,
      "hit": false,
      "t": 7101.687999999998,
      "d": 10.593208333333678,
      "v": 127
    },
    {
      "midi": 50,
      "hit": false,
      "t": 7101.687999999998,
      "d": 79.44906250000076,
      "v": 127
    },
    {
      "midi": 38,
      "hit": false,
      "t": 7112.281208333332,
      "d": 68.85585416666709,
      "v": 127
    },
    {
      "midi": 44,
      "hit": false,
      "t": 7610.161999999998,
      "d": 63.55925000000025,
      "v": 127
    },
    {
      "midi": 49,
      "hit": false,
      "t": 7610.161999999998,
      "d": 63.55925000000025,
      "v": 127
    },
    {
      "midi": 44,
      "hit": false,
      "t": 7753.1703124999985,
      "d": 63.55925000000025,
      "v": 127
    },
    {
      "midi": 49,
      "hit": false,
      "t": 7753.1703124999985,
      "d": 63.55925000000025,
      "v": 127
    },
    {
      "midi": 55,
      "hit": false,
      "t": 7906.771833333332,
      "d": 10.593208333333678,
      "v": 64
    },
    {
      "midi": 67,
      "hit": false,
      "t": 7906.771833333332,
      "d": 10.593208333333678,
      "v": 54
    },
    {
      "midi": 56,
      "hit": false,
      "t": 7949.144666666666,
      "d": 10.593208333333678,
      "v": 64
    },
    {
      "midi": 68,
      "hit": false,
      "t": 7949.144666666666,
      "d": 10.593208333333678,
      "v": 54
    },
    {
      "midi": 57,
      "hit": false,
      "t": 7991.5175,
      "d": 10.593208333333678,
      "v": 64
    },
    {
      "midi": 69,
      "hit": false,
      "t": 7991.5175,
      "d": 10.593208333333678,
      "v": 54
    },
    {
      "midi": 58,
      "hit": false,
      "t": 8033.890333333333,
      "d": 10.593208333333678,
      "v": 64
    },
    {
      "midi": 70,
      "hit": false,
      "t": 8033.890333333333,
      "d": 10.593208333333678,
      "v": 54
    },
    {
      "midi": 59,
      "hit": false,
      "t": 8076.263166666667,
      "d": 10.593208333333678,
      "v": 64
    },
    {
      "midi": 71,
      "hit": false,
      "t": 8076.263166666667,
      "d": 10.593208333333678,
      "v": 54
    },
    {
      "midi": 50,
      "hit": false,
      "t": 8118.636,
      "d": 10.593208333333678,
      "v": 64
    },
    {
      "midi": 62,
      "hit": false,
      "t": 8118.636,
      "d": 10.593208333333678,
      "v": 54
    },
    {
      "midi": 51,
      "hit": false,
      "t": 8161.008833333335,
      "d": 10.593208333333678,
      "v": 64
    },
    {
      "midi": 63,
      "hit": false,
      "t": 8161.008833333335,
      "d": 10.593208333333678,
      "v": 54
    },
    {
      "midi": 52,
      "hit": false,
      "t": 8203.381666666668,
      "d": 10.593208333333678,
      "v": 64
    },
    {
      "midi": 64,
      "hit": false,
      "t": 8203.381666666668,
      "d": 10.593208333333678,
      "v": 54
    },
    {
      "midi": 53,
      "hit": false,
      "t": 8245.754500000001,
      "d": 10.593208333333678,
      "v": 64
    },
    {
      "midi": 65,
      "hit": false,
      "t": 8245.754500000001,
      "d": 10.593208333333678,
      "v": 54
    },
    {
      "midi": 54,
      "hit": false,
      "t": 8288.127333333334,
      "d": 10.593208333333678,
      "v": 64
    },
    {
      "midi": 66,
      "hit": false,
      "t": 8288.127333333334,
      "d": 10.593208333333678,
      "v": 54
    },
    {
      "midi": 55,
      "hit": false,
      "t": 8330.500166666667,
      "d": 10.593208333333678,
      "v": 64
    },
    {
      "midi": 67,
      "hit": false,
      "t": 8330.500166666667,
      "d": 10.593208333333678,
      "v": 54
    },
    {
      "midi": 56,
      "hit": false,
      "t": 8372.873,
      "d": 10.593208333333678,
      "v": 64
    },
    {
      "midi": 68,
      "hit": false,
      "t": 8372.873,
      "d": 10.593208333333678,
      "v": 54
    },
    {
      "midi": 57,
      "hit": false,
      "t": 8415.245833333332,
      "d": 10.593208333333678,
      "v": 64
    },
    {
      "midi": 69,
      "hit": false,
      "t": 8415.245833333332,
      "d": 10.593208333333678,
      "v": 54
    },
    {
      "midi": 58,
      "hit": false,
      "t": 8457.618666666665,
      "d": 10.593208333333678,
      "v": 64
    },
    {
      "midi": 70,
      "hit": false,
      "t": 8457.618666666665,
      "d": 10.593208333333678,
      "v": 54
    },
    {
      "midi": 59,
      "hit": false,
      "t": 8499.991499999998,
      "d": 10.593208333333678,
      "v": 64
    },
    {
      "midi": 71,
      "hit": false,
      "t": 8499.991499999998,
      "d": 10.593208333333678,
      "v": 54
    },
    {
      "midi": 60,
      "hit": false,
      "t": 8542.364333333331,
      "d": 10.593208333333678,
      "v": 64
    },
    {
      "midi": 72,
      "hit": false,
      "t": 8542.364333333331,
      "d": 10.593208333333678,
      "v": 54
    },
    {
      "midi": 61,
      "hit": false,
      "t": 8584.737166666664,
      "d": 10.593208333333678,
      "v": 64
    },
    {
      "midi": 73,
      "hit": false,
      "t": 8584.737166666664,
      "d": 10.593208333333678,
      "v": 54
    },
    {
      "midi": 62,
      "hit": false,
      "t": 8627.109999999999,
      "d": 10.593208333331859,
      "v": 64
    },
    {
      "midi": 74,
      "hit": false,
      "t": 8627.109999999999,
      "d": 10.593208333331859,
      "v": 54
    },
    {
      "midi": 63,
      "hit": false,
      "t": 8669.482833333332,
      "d": 10.593208333331859,
      "v": 64
    },
    {
      "midi": 75,
      "hit": false,
      "t": 8669.482833333332,
      "d": 10.593208333331859,
      "v": 54
    },
    {
      "midi": 64,
      "hit": false,
      "t": 8711.855666666663,
      "d": 10.593208333333678,
      "v": 64
    },
    {
      "midi": 76,
      "hit": false,
      "t": 8711.855666666663,
      "d": 10.593208333333678,
      "v": 54
    },
    {
      "midi": 65,
      "hit": false,
      "t": 8754.228499999996,
      "d": 10.593208333333678,
      "v": 64
    },
    {
      "midi": 77,
      "hit": false,
      "t": 8754.228499999996,
      "d": 10.593208333333678,
      "v": 54
    },
    {
      "midi": 66,
      "hit": false,
      "t": 8796.601333333329,
      "d": 10.593208333333678,
      "v": 64
    },
    {
      "midi": 78,
      "hit": false,
      "t": 8796.601333333329,
      "d": 10.593208333333678,
      "v": 54
    },
    {
      "midi": 67,
      "hit": false,
      "t": 8838.974166666661,
      "d": 10.593208333333678,
      "v": 64
    },
    {
      "midi": 79,
      "hit": false,
      "t": 8838.974166666661,
      "d": 10.593208333333678,
      "v": 54
    },
    {
      "midi": 68,
      "hit": false,
      "t": 8881.346999999994,
      "d": 10.593208333333678,
      "v": 64
    },
    {
      "midi": 80,
      "hit": false,
      "t": 8881.346999999994,
      "d": 10.593208333333678,
      "v": 54
    },
    {
      "midi": 69,
      "hit": false,
      "t": 8923.719833333327,
      "d": 10.593208333333678,
      "v": 64
    },
    {
      "midi": 81,
      "hit": false,
      "t": 8923.719833333327,
      "d": 10.593208333333678,
      "v": 54
    },
    {
      "midi": 70,
      "hit": false,
      "t": 8966.09266666666,
      "d": 10.593208333333678,
      "v": 64
    },
    {
      "midi": 82,
      "hit": false,
      "t": 8966.09266666666,
      "d": 10.593208333333678,
      "v": 54
    },
    {
      "midi": 71,
      "hit": false,
      "t": 9008.465499999993,
      "d": 10.593208333333678,
      "v": 64
    },
    {
      "midi": 83,
      "hit": false,
      "t": 9008.465499999993,
      "d": 10.593208333333678,
      "v": 54
    },
    {
      "midi": 72,
      "hit": false,
      "t": 9050.838333333326,
      "d": 10.593208333333678,
      "v": 64
    },
    {
      "midi": 84,
      "hit": false,
      "t": 9050.838333333326,
      "d": 10.593208333333678,
      "v": 54
    },
    {
      "midi": 73,
      "hit": false,
      "t": 9093.211166666659,
      "d": 10.593208333333678,
      "v": 64
    },
    {
      "midi": 85,
      "hit": false,
      "t": 9093.211166666659,
      "d": 10.593208333333678,
      "v": 54
    },
    {
      "midi": 42,
      "hit": false,
      "t": 9130.287395833326,
      "d": 5.296604166665929,
      "v": 43
    },
    {
      "midi": 49,
      "hit": false,
      "t": 9135.583999999992,
      "d": 5.296604166665929,
      "v": 106
    },
    {
      "midi": 57,
      "hit": false,
      "t": 9135.583999999992,
      "d": 5.296604166665929,
      "v": 102
    },
    {
      "midi": 61,
      "hit": false,
      "t": 9135.583999999992,
      "d": 5.296604166665929,
      "v": 42
    },
    {
      "midi": 77,
      "hit": false,
      "t": 9135.583999999992,
      "d": 5.296604166665929,
      "v": 58
    },
    {
      "midi": 82,
      "hit": false,
      "t": 9135.583999999992,
      "d": 5.296604166665929,
      "v": 17
    },
    {
      "midi": 62,
      "hit": false,
      "t": 9135.583999999992,
      "d": 31.779624999999214,
      "v": 120
    },
    {
      "midi": 35,
      "hit": false,
      "t": 9135.583999999992,
      "d": 74.1524583333321,
      "v": 120
    },
    {
      "midi": 50,
      "hit": false,
      "t": 9135.583999999992,
      "d": 195.97435416666121,
      "v": 100
    },
    {
      "midi": 74,
      "hit": false,
      "t": 9135.583999999992,
      "d": 476.6943749999846,
      "v": 89
    },
    {
      "midi": 86,
      "hit": false,
      "t": 9135.583999999992,
      "d": 476.6943749999846,
      "v": 91
    },
    {
      "midi": 82,
      "hit": false,
      "t": 9262.70249999999,
      "d": 5.296604166665929,
      "v": 9
    },
    {
      "midi": 62,
      "hit": false,
      "t": 9262.70249999999,
      "d": 31.779624999995576,
      "v": 103
    },
    {
      "midi": 42,
      "hit": false,
      "t": 9267.999104166656,
      "d": 5.296604166665929,
      "v": 35
    },
    {
      "midi": 61,
      "hit": false,
      "t": 9273.295708333322,
      "d": 5.296604166665929,
      "v": 40
    },
    {
      "midi": 77,
      "hit": false,
      "t": 9283.888916666654,
      "d": 5.296604166665929,
      "v": 52
    },
    {
      "midi": 48,
      "hit": false,
      "t": 9305.07533333332,
      "d": 58.2626458333325,
      "v": 87
    },
    {
      "midi": 60,
      "hit": false,
      "t": 9305.07533333332,
      "d": 58.2626458333325,
      "v": 87
    },
    {
      "midi": 47,
      "hit": false,
      "t": 9336.854958333319,
      "d": 68.85585416666436,
      "v": 92
    },
    {
      "midi": 59,
      "hit": false,
      "t": 9336.854958333319,
      "d": 68.85585416666436,
      "v": 92
    },
    {
      "midi": 45,
      "hit": false,
      "t": 9379.227791666652,
      "d": 58.26264583333068,
      "v": 85
    },
    {
      "midi": 57,
      "hit": false,
      "t": 9379.227791666652,
      "d": 58.26264583333068,
      "v": 85
    },
    {
      "midi": 98,
      "hit": false,
      "t": 9384.524395833318,
      "d": 10.593208333331859,
      "v": 117
    },
    {
      "midi": 102,
      "hit": false,
      "t": 9384.524395833318,
      "d": 10.593208333331859,
      "v": 82
    },
    {
      "midi": 105,
      "hit": false,
      "t": 9384.524395833318,
      "d": 10.593208333331859,
      "v": 92
    },
    {
      "midi": 42,
      "hit": false,
      "t": 9389.820999999984,
      "d": 5.296604166665929,
      "v": 92
    },
    {
      "midi": 61,
      "hit": false,
      "t": 9389.820999999984,
      "d": 5.296604166665929,
      "v": 49
    },
    {
      "midi": 77,
      "hit": false,
      "t": 9389.820999999984,
      "d": 5.296604166665929,
      "v": 14
    },
    {
      "midi": 82,
      "hit": false,
      "t": 9389.820999999984,
      "d": 5.296604166665929,
      "v": 19
    },
    {
      "midi": 62,
      "hit": false,
      "t": 9389.820999999984,
      "d": 31.779624999999214,
      "v": 109
    },
    {
      "midi": 43,
      "hit": false,
      "t": 9411.007416666649,
      "d": 79.44906249999985,
      "v": 91
    },
    {
      "midi": 55,
      "hit": false,
      "t": 9411.007416666649,
      "d": 79.44906249999985,
      "v": 91
    },
    {
      "midi": 41,
      "hit": false,
      "t": 9432.193833333316,
      "d": 58.2626458333325,
      "v": 75
    },
    {
      "midi": 53,
      "hit": false,
      "t": 9432.193833333316,
      "d": 58.2626458333325,
      "v": 75
    },
    {
      "midi": 40,
      "hit": false,
      "t": 9463.973458333316,
      "d": 90.04227083332808,
      "v": 78
    },
    {
      "midi": 52,
      "hit": false,
      "t": 9463.973458333316,
      "d": 90.04227083332808,
      "v": 78
    },
    {
      "midi": 38,
      "hit": false,
      "t": 9474.56666666665,
      "d": 79.4490624999944,
      "v": 86
    },
    {
      "midi": 50,
      "hit": false,
      "t": 9474.56666666665,
      "d": 79.4490624999944,
      "v": 86
    },
    {
      "midi": 82,
      "hit": false,
      "t": 9516.939499999982,
      "d": 5.296604166665929,
      "v": 46
    },
    {
      "midi": 62,
      "hit": false,
      "t": 9516.939499999982,
      "d": 31.779624999995576,
      "v": 58
    },
    {
      "midi": 42,
      "hit": false,
      "t": 9522.236104166648,
      "d": 5.296604166665929,
      "v": 38
    },
    {
      "midi": 61,
      "hit": false,
      "t": 9527.532708333314,
      "d": 5.296604166665929,
      "v": 26
    },
    {
      "midi": 36,
      "hit": false,
      "t": 9527.532708333314,
      "d": 58.26264583332886,
      "v": 76
    },
    {
      "midi": 48,
      "hit": false,
      "t": 9527.532708333314,
      "d": 58.26264583332886,
      "v": 76
    },
    {
      "midi": 77,
      "hit": false,
      "t": 9538.125916666646,
      "d": 5.296604166665929,
      "v": 57
    },
    {
      "midi": 35,
      "hit": false,
      "t": 9559.31233333331,
      "d": 58.2626458333325,
      "v": 85
    },
    {
      "midi": 47,
      "hit": false,
      "t": 9559.31233333331,
      "d": 58.2626458333325,
      "v": 85
    },
    {
      "midi": 33,
      "hit": false,
      "t": 9591.091958333309,
      "d": 90.04227083333171,
      "v": 65
    },
    {
      "midi": 45,
      "hit": false,
      "t": 9591.091958333309,
      "d": 90.04227083333171,
      "v": 65
    },
    {
      "midi": 42,
      "hit": false,
      "t": 9638.76139583331,
      "d": 5.296604166665929,
      "v": 43
    },
    {
      "midi": 30,
      "hit": false,
      "t": 9644.057999999975,
      "d": 5.296604166665929,
      "v": 90
    },
    {
      "midi": 60,
      "hit": false,
      "t": 9644.057999999975,
      "d": 5.296604166665929,
      "v": 43
    },
    {
      "midi": 77,
      "hit": false,
      "t": 9644.057999999975,
      "d": 5.296604166665929,
      "v": 56
    },
    {
      "midi": 82,
      "hit": false,
      "t": 9644.057999999975,
      "d": 5.296604166665929,
      "v": 17
    },
    {
      "midi": 62,
      "hit": false,
      "t": 9644.057999999975,
      "d": 31.779624999999214,
      "v": 127
    },
    {
      "midi": 86,
      "hit": false,
      "t": 9644.057999999975,
      "d": 74.1524583333321,
      "v": 109
    },
    {
      "midi": 35,
      "hit": false,
      "t": 9644.057999999975,
      "d": 74.1524583333321,
      "v": 120
    },
    {
      "midi": 74,
      "hit": false,
      "t": 9644.057999999975,
      "d": 95.33887499999946,
      "v": 124
    },
    {
      "midi": 78,
      "hit": false,
      "t": 9644.057999999975,
      "d": 95.33887499999946,
      "v": 104
    },
    {
      "midi": 31,
      "hit": false,
      "t": 9654.651208333307,
      "d": 111.22868750000089,
      "v": 59
    },
    {
      "midi": 43,
      "hit": false,
      "t": 9654.651208333307,
      "d": 111.22868750000089,
      "v": 59
    },
    {
      "midi": 82,
      "hit": false,
      "t": 9771.176499999974,
      "d": 5.296604166665929,
      "v": 9
    },
    {
      "midi": 62,
      "hit": false,
      "t": 9771.176499999974,
      "d": 31.779624999995576,
      "v": 127
    },
    {
      "midi": 42,
      "hit": false,
      "t": 9776.47310416664,
      "d": 5.296604166665929,
      "v": 35
    },
    {
      "midi": 61,
      "hit": false,
      "t": 9781.769708333306,
      "d": 5.296604166665929,
      "v": 13
    },
    {
      "midi": 77,
      "hit": false,
      "t": 9792.362916666638,
      "d": 5.296604166665929,
      "v": 63
    },
    {
      "midi": 98,
      "hit": false,
      "t": 9892.998395833303,
      "d": 10.593208333331859,
      "v": 104
    },
    {
      "midi": 102,
      "hit": false,
      "t": 9892.998395833303,
      "d": 10.593208333331859,
      "v": 69
    },
    {
      "midi": 105,
      "hit": false,
      "t": 9892.998395833303,
      "d": 10.593208333331859,
      "v": 79
    },
    {
      "midi": 42,
      "hit": false,
      "t": 9898.29499999997,
      "d": 5.296604166665929,
      "v": 92
    },
    {
      "midi": 61,
      "hit": false,
      "t": 9898.29499999997,
      "d": 5.296604166665929,
      "v": 37
    },
    {
      "midi": 77,
      "hit": false,
      "t": 9898.29499999997,
      "d": 5.296604166665929,
      "v": 15
    },
    {
      "midi": 82,
      "hit": false,
      "t": 9898.29499999997,
      "d": 5.296604166665929,
      "v": 19
    },
    {
      "midi": 62,
      "hit": false,
      "t": 9898.29499999997,
      "d": 31.779624999999214,
      "v": 114
    },
    {
      "midi": 95,
      "hit": false,
      "t": 9898.29499999997,
      "d": 79.44906249999985,
      "v": 107
    },
    {
      "midi": 79,
      "hit": false,
      "t": 9898.29499999997,
      "d": 90.04227083333353,
      "v": 90
    },
    {
      "midi": 83,
      "hit": false,
      "t": 9898.29499999997,
      "d": 90.04227083333353,
      "v": 110
    },
    {
      "midi": 38,
      "hit": false,
      "t": 10025.41349999997,
      "d": 5.296604166665929,
      "v": 40
    },
    {
      "midi": 82,
      "hit": false,
      "t": 10025.41349999997,
      "d": 5.296604166665929,
      "v": 46
    },
    {
      "midi": 62,
      "hit": false,
      "t": 10025.41349999997,
      "d": 31.779624999995576,
      "v": 79
    },
    {
      "midi": 42,
      "hit": false,
      "t": 10030.710104166636,
      "d": 5.296604166665929,
      "v": 38
    },
    {
      "midi": 61,
      "hit": false,
      "t": 10036.006708333302,
      "d": 5.296604166665929,
      "v": 50
    },
    {
      "midi": 77,
      "hit": false,
      "t": 10046.599916666633,
      "d": 5.296604166665929,
      "v": 60
    },
    {
      "midi": 38,
      "hit": false,
      "t": 10067.786333333299,
      "d": 5.296604166665929,
      "v": 40
    },
    {
      "midi": 38,
      "hit": false,
      "t": 10110.159166666632,
      "d": 5.296604166665929,
      "v": 40
    },
    {
      "midi": 42,
      "hit": false,
      "t": 10147.235395833297,
      "d": 5.296604166665929,
      "v": 58
    },
    {
      "midi": 98,
      "hit": false,
      "t": 10147.235395833297,
      "d": 10.593208333331859,
      "v": 94
    },
    {
      "midi": 100,
      "hit": false,
      "t": 10147.235395833297,
      "d": 10.593208333331859,
      "v": 78
    },
    {
      "midi": 105,
      "hit": false,
      "t": 10147.235395833297,
      "d": 10.593208333331859,
      "v": 88
    },
    {
      "midi": 38,
      "hit": false,
      "t": 10152.531999999963,
      "d": 5.296604166665929,
      "v": 40
    },
    {
      "midi": 61,
      "hit": false,
      "t": 10152.531999999963,
      "d": 5.296604166665929,
      "v": 42
    },
    {
      "midi": 77,
      "hit": false,
      "t": 10152.531999999963,
      "d": 5.296604166665929,
      "v": 65
    },
    {
      "midi": 82,
      "hit": false,
      "t": 10152.531999999963,
      "d": 5.296604166665929,
      "v": 17
    },
    {
      "midi": 62,
      "hit": false,
      "t": 10152.531999999963,
      "d": 31.779624999999214,
      "v": 108
    },
    {
      "midi": 35,
      "hit": false,
      "t": 10152.531999999963,
      "d": 74.1524583333321,
      "v": 120
    },
    {
      "midi": 93,
      "hit": false,
      "t": 10152.531999999963,
      "d": 397.2453124999902,
      "v": 96
    },
    {
      "midi": 78,
      "hit": false,
      "t": 10152.531999999963,
      "d": 503.1773958333215,
      "v": 90
    },
    {
      "midi": 81,
      "hit": false,
      "t": 10152.531999999963,
      "d": 503.1773958333215,
      "v": 110
    },
    {
      "midi": 98,
      "hit": false,
      "t": 10274.353895833296,
      "d": 10.593208333331859,
      "v": 70
    },
    {
      "midi": 100,
      "hit": false,
      "t": 10274.353895833296,
      "d": 10.593208333331859,
      "v": 54
    },
    {
      "midi": 105,
      "hit": false,
      "t": 10274.353895833296,
      "d": 10.593208333331859,
      "v": 64
    },
    {
      "midi": 82,
      "hit": false,
      "t": 10279.650499999962,
      "d": 5.296604166665929,
      "v": 9
    },
    {
      "midi": 62,
      "hit": false,
      "t": 10279.650499999962,
      "d": 31.779624999995576,
      "v": 91
    },
    {
      "midi": 42,
      "hit": false,
      "t": 10284.947104166627,
      "d": 5.296604166665929,
      "v": 37
    },
    {
      "midi": 61,
      "hit": false,
      "t": 10290.243708333293,
      "d": 5.296604166665929,
      "v": 40
    },
    {
      "midi": 77,
      "hit": false,
      "t": 10300.836916666625,
      "d": 5.296604166665929,
      "v": 64
    },
    {
      "midi": 42,
      "hit": false,
      "t": 10406.768999999957,
      "d": 5.296604166665929,
      "v": 77
    },
    {
      "midi": 61,
      "hit": false,
      "t": 10406.768999999957,
      "d": 5.296604166665929,
      "v": 49
    },
    {
      "midi": 77,
      "hit": false,
      "t": 10406.768999999957,
      "d": 5.296604166665929,
      "v": 13
    },
    {
      "midi": 82,
      "hit": false,
      "t": 10406.768999999957,
      "d": 5.296604166665929,
      "v": 19
    },
    {
      "midi": 62,
      "hit": false,
      "t": 10406.768999999957,
      "d": 31.779624999999214,
      "v": 114
    },
    {
      "midi": 98,
      "hit": false,
      "t": 10528.59089583329,
      "d": 10.593208333331859,
      "v": 97
    },
    {
      "midi": 100,
      "hit": false,
      "t": 10528.59089583329,
      "d": 10.593208333331859,
      "v": 81
    },
    {
      "midi": 105,
      "hit": false,
      "t": 10528.59089583329,
      "d": 10.593208333331859,
      "v": 91
    },
    {
      "midi": 82,
      "hit": false,
      "t": 10533.887499999955,
      "d": 5.296604166665929,
      "v": 46
    },
    {
      "midi": 62,
      "hit": false,
      "t": 10533.887499999955,
      "d": 31.779624999995576,
      "v": 59
    },
    {
      "midi": 42,
      "hit": false,
      "t": 10539.184104166621,
      "d": 5.296604166665929,
      "v": 38
    },
    {
      "midi": 61,
      "hit": false,
      "t": 10544.480708333287,
      "d": 5.296604166665929,
      "v": 19
    },
    {
      "midi": 77,
      "hit": false,
      "t": 10555.073916666619,
      "d": 5.296604166665929,
      "v": 59
    },
    {
      "midi": 42,
      "hit": false,
      "t": 10655.709395833284,
      "d": 5.296604166665929,
      "v": 67
    },
    {
      "midi": 40,
      "hit": false,
      "t": 10661.00599999995,
      "d": 5.296604166665929,
      "v": 93
    },
    {
      "midi": 60,
      "hit": false,
      "t": 10661.00599999995,
      "d": 5.296604166665929,
      "v": 43
    },
    {
      "midi": 77,
      "hit": false,
      "t": 10661.00599999995,
      "d": 5.296604166665929,
      "v": 57
    },
    {
      "midi": 82,
      "hit": false,
      "t": 10661.00599999995,
      "d": 5.296604166665929,
      "v": 17
    },
    {
      "midi": 62,
      "hit": false,
      "t": 10661.00599999995,
      "d": 31.779624999999214,
      "v": 118
    },
    {
      "midi": 35,
      "hit": false,
      "t": 10661.00599999995,
      "d": 74.1524583333321,
      "v": 120
    },
    {
      "midi": 79,
      "hit": false,
      "t": 10661.00599999995,
      "d": 291.31322916665886,
      "v": 107
    },
    {
      "midi": 83,
      "hit": false,
      "t": 10661.00599999995,
      "d": 291.31322916665886,
      "v": 127
    },
    {
      "midi": 95,
      "hit": false,
      "t": 10661.00599999995,
      "d": 376.05889583332464,
      "v": 104
    },
    {
      "midi": 82,
      "hit": false,
      "t": 10788.124499999949,
      "d": 5.296604166665929,
      "v": 9
    },
    {
      "midi": 62,
      "hit": false,
      "t": 10788.124499999949,
      "d": 31.779624999995576,
      "v": 108
    },
    {
      "midi": 42,
      "hit": false,
      "t": 10793.421104166615,
      "d": 5.296604166665929,
      "v": 43
    },
    {
      "midi": 61,
      "hit": false,
      "t": 10798.71770833328,
      "d": 5.296604166665929,
      "v": 13
    },
    {
      "midi": 77,
      "hit": false,
      "t": 10809.310916666613,
      "d": 5.296604166665929,
      "v": 60
    },
    {
      "midi": 98,
      "hit": false,
      "t": 10909.946395833278,
      "d": 10.593208333331859,
      "v": 105
    },
    {
      "midi": 102,
      "hit": false,
      "t": 10909.946395833278,
      "d": 10.593208333331859,
      "v": 70
    },
    {
      "midi": 105,
      "hit": false,
      "t": 10909.946395833278,
      "d": 10.593208333331859,
      "v": 80
    },
    {
      "midi": 42,
      "hit": false,
      "t": 10915.242999999944,
      "d": 5.296604166665929,
      "v": 69
    },
    {
      "midi": 61,
      "hit": false,
      "t": 10915.242999999944,
      "d": 5.296604166665929,
      "v": 46
    },
    {
      "midi": 77,
      "hit": false,
      "t": 10915.242999999944,
      "d": 5.296604166665929,
      "v": 13
    },
    {
      "midi": 82,
      "hit": false,
      "t": 10915.242999999944,
      "d": 5.296604166665929,
      "v": 19
    },
    {
      "midi": 62,
      "hit": false,
      "t": 10915.242999999944,
      "d": 31.779624999999214,
      "v": 114
    },
    {
      "midi": 42,
      "hit": false,
      "t": 11042.36149999994,
      "d": 5.296604166665929,
      "v": 69
    },
    {
      "midi": 82,
      "hit": false,
      "t": 11042.36149999994,
      "d": 5.296604166665929,
      "v": 46
    },
    {
      "midi": 62,
      "hit": false,
      "t": 11042.36149999994,
      "d": 31.779624999995576,
      "v": 94
    },
    {
      "midi": 69,
      "hit": false,
      "t": 11042.36149999994,
      "d": 121.82189583332729,
      "v": 106
    },
    {
      "midi": 74,
      "hit": false,
      "t": 11042.36149999994,
      "d": 121.82189583332729,
      "v": 126
    },
    {
      "midi": 61,
      "hit": false,
      "t": 11052.954708333273,
      "d": 5.296604166665929,
      "v": 44
    },
    {
      "midi": 86,
      "hit": false,
      "t": 11052.954708333273,
      "d": 105.9320833333295,
      "v": 98
    },
    {
      "midi": 77,
      "hit": false,
      "t": 11063.547916666605,
      "d": 5.296604166665929,
      "v": 50
    },
    {
      "midi": 42,
      "hit": false,
      "t": 11164.183395833268,
      "d": 5.296604166665929,
      "v": 43
    },
    {
      "midi": 61,
      "hit": false,
      "t": 11169.479999999934,
      "d": 5.296604166665929,
      "v": 42
    },
    {
      "midi": 77,
      "hit": false,
      "t": 11169.479999999934,
      "d": 5.296604166665929,
      "v": 58
    },
    {
      "midi": 82,
      "hit": false,
      "t": 11169.479999999934,
      "d": 5.296604166665929,
      "v": 17
    },
    {
      "midi": 62,
      "hit": false,
      "t": 11169.479999999934,
      "d": 31.779624999999214,
      "v": 120
    },
    {
      "midi": 35,
      "hit": false,
      "t": 11169.479999999934,
      "d": 74.1524583333321,
      "v": 120
    },
    {
      "midi": 82,
      "hit": false,
      "t": 11296.598499999933,
      "d": 5.296604166665929,
      "v": 9
    },
    {
      "midi": 62,
      "hit": false,
      "t": 11296.598499999933,
      "d": 31.779624999995576,
      "v": 103
    },
    {
      "midi": 42,
      "hit": false,
      "t": 11301.895104166599,
      "d": 5.296604166665929,
      "v": 35
    },
    {
      "midi": 61,
      "hit": false,
      "t": 11307.191708333265,
      "d": 5.296604166665929,
      "v": 40
    },
    {
      "midi": 86,
      "hit": false,
      "t": 11307.191708333265,
      "d": 68.85585416666436,
      "v": 107
    },
    {
      "midi": 77,
      "hit": false,
      "t": 11317.784916666596,
      "d": 5.296604166665929,
      "v": 52
    },
    {
      "midi": 98,
      "hit": false,
      "t": 11418.420395833262,
      "d": 10.593208333331859,
      "v": 117
    },
    {
      "midi": 102,
      "hit": false,
      "t": 11418.420395833262,
      "d": 10.593208333331859,
      "v": 82
    },
    {
      "midi": 105,
      "hit": false,
      "t": 11418.420395833262,
      "d": 10.593208333331859,
      "v": 92
    },
    {
      "midi": 42,
      "hit": false,
      "t": 11423.716999999928,
      "d": 5.296604166665929,
      "v": 92
    },
    {
      "midi": 61,
      "hit": false,
      "t": 11423.716999999928,
      "d": 5.296604166665929,
      "v": 49
    },
    {
      "midi": 77,
      "hit": false,
      "t": 11423.716999999928,
      "d": 5.296604166665929,
      "v": 14
    },
    {
      "midi": 82,
      "hit": false,
      "t": 11423.716999999928,
      "d": 5.296604166665929,
      "v": 19
    },
    {
      "midi": 62,
      "hit": false,
      "t": 11423.716999999928,
      "d": 31.779624999999214,
      "v": 109
    },
    {
      "midi": 69,
      "hit": false,
      "t": 11423.716999999928,
      "d": 248.94039583332597,
      "v": 85
    },
    {
      "midi": 74,
      "hit": false,
      "t": 11423.716999999928,
      "d": 248.94039583332597,
      "v": 105
    },
    {
      "midi": 82,
      "hit": false,
      "t": 11550.835499999926,
      "d": 5.296604166665929,
      "v": 46
    },
    {
      "midi": 62,
      "hit": false,
      "t": 11550.835499999926,
      "d": 31.779624999995576,
      "v": 58
    },
    {
      "midi": 42,
      "hit": false,
      "t": 11556.132104166592,
      "d": 5.296604166665929,
      "v": 38
    },
    {
      "midi": 61,
      "hit": false,
      "t": 11561.428708333258,
      "d": 5.296604166665929,
      "v": 26
    },
    {
      "midi": 86,
      "hit": false,
      "t": 11561.428708333258,
      "d": 63.55924999999661,
      "v": 111
    },
    {
      "midi": 77,
      "hit": false,
      "t": 11572.02191666659,
      "d": 5.296604166665929,
      "v": 57
    },
    {
      "midi": 94,
      "hit": false,
      "t": 11656.767583333254,
      "d": 26.483020833331466,
      "v": 95
    },
    {
      "midi": 42,
      "hit": false,
      "t": 11672.657395833254,
      "d": 5.296604166665929,
      "v": 43
    },
    {
      "midi": 40,
      "hit": false,
      "t": 11677.95399999992,
      "d": 5.296604166665929,
      "v": 93
    },
    {
      "midi": 60,
      "hit": false,
      "t": 11677.95399999992,
      "d": 5.296604166665929,
      "v": 43
    },
    {
      "midi": 77,
      "hit": false,
      "t": 11677.95399999992,
      "d": 5.296604166665929,
      "v": 56
    },
    {
      "midi": 82,
      "hit": false,
      "t": 11677.95399999992,
      "d": 5.296604166665929,
      "v": 17
    },
    {
      "midi": 62,
      "hit": false,
      "t": 11677.95399999992,
      "d": 31.779624999999214,
      "v": 127
    },
    {
      "midi": 35,
      "hit": false,
      "t": 11677.95399999992,
      "d": 74.1524583333321,
      "v": 120
    },
    {
      "midi": 83,
      "hit": false,
      "t": 11677.95399999992,
      "d": 259.53360416665964,
      "v": 111
    },
    {
      "midi": 79,
      "hit": false,
      "t": 11677.95399999992,
      "d": 513.7706041666515,
      "v": 91
    },
    {
      "midi": 95,
      "hit": false,
      "t": 11688.547208333252,
      "d": 434.3215416666553,
      "v": 105
    },
    {
      "midi": 82,
      "hit": false,
      "t": 11805.072499999918,
      "d": 5.296604166665929,
      "v": 9
    },
    {
      "midi": 62,
      "hit": false,
      "t": 11805.072499999918,
      "d": 31.779624999995576,
      "v": 127
    },
    {
      "midi": 42,
      "hit": false,
      "t": 11810.369104166584,
      "d": 5.296604166665929,
      "v": 35
    },
    {
      "midi": 61,
      "hit": false,
      "t": 11815.66570833325,
      "d": 5.296604166665929,
      "v": 13
    },
    {
      "midi": 77,
      "hit": false,
      "t": 11826.258916666582,
      "d": 5.296604166665929,
      "v": 63
    },
    {
      "midi": 98,
      "hit": false,
      "t": 11926.894395833247,
      "d": 10.593208333331859,
      "v": 104
    },
    {
      "midi": 102,
      "hit": false,
      "t": 11926.894395833247,
      "d": 10.593208333331859,
      "v": 69
    },
    {
      "midi": 105,
      "hit": false,
      "t": 11926.894395833247,
      "d": 10.593208333331859,
      "v": 79
    },
    {
      "midi": 42,
      "hit": false,
      "t": 11932.190999999913,
      "d": 5.296604166665929,
      "v": 92
    },
    {
      "midi": 61,
      "hit": false,
      "t": 11932.190999999913,
      "d": 5.296604166665929,
      "v": 37
    },
    {
      "midi": 77,
      "hit": false,
      "t": 11932.190999999913,
      "d": 5.296604166665929,
      "v": 15
    },
    {
      "midi": 82,
      "hit": false,
      "t": 11932.190999999913,
      "d": 5.296604166665929,
      "v": 19
    },
    {
      "midi": 62,
      "hit": false,
      "t": 11932.190999999913,
      "d": 31.779624999999214,
      "v": 114
    },
    {
      "midi": 82,
      "hit": false,
      "t": 12059.309499999912,
      "d": 5.296604166665929,
      "v": 46
    },
    {
      "midi": 62,
      "hit": false,
      "t": 12059.309499999912,
      "d": 31.779624999995576,
      "v": 79
    },
    {
      "midi": 42,
      "hit": false,
      "t": 12064.606104166578,
      "d": 5.296604166665929,
      "v": 38
    },
    {
      "midi": 61,
      "hit": false,
      "t": 12069.902708333244,
      "d": 5.296604166665929,
      "v": 50
    },
    {
      "midi": 77,
      "hit": false,
      "t": 12080.495916666576,
      "d": 5.296604166665929,
      "v": 60
    },
    {
      "midi": 42,
      "hit": false,
      "t": 12181.13139583324,
      "d": 5.296604166665929,
      "v": 58
    },
    {
      "midi": 98,
      "hit": false,
      "t": 12181.13139583324,
      "d": 10.593208333331859,
      "v": 94
    },
    {
      "midi": 100,
      "hit": false,
      "t": 12181.13139583324,
      "d": 10.593208333331859,
      "v": 78
    },
    {
      "midi": 105,
      "hit": false,
      "t": 12181.13139583324,
      "d": 10.593208333331859,
      "v": 88
    },
    {
      "midi": 61,
      "hit": false,
      "t": 12186.427999999905,
      "d": 5.296604166665929,
      "v": 42
    },
    {
      "midi": 77,
      "hit": false,
      "t": 12186.427999999905,
      "d": 5.296604166665929,
      "v": 65
    },
    {
      "midi": 82,
      "hit": false,
      "t": 12186.427999999905,
      "d": 5.296604166665929,
      "v": 17
    },
    {
      "midi": 62,
      "hit": false,
      "t": 12186.427999999905,
      "d": 31.779624999999214,
      "v": 108
    },
    {
      "midi": 35,
      "hit": false,
      "t": 12186.427999999905,
      "d": 74.1524583333321,
      "v": 120
    },
    {
      "midi": 81,
      "hit": false,
      "t": 12186.427999999905,
      "d": 503.1773958333215,
      "v": 111
    },
    {
      "midi": 76,
      "hit": false,
      "t": 12186.427999999905,
      "d": 630.2958958333202,
      "v": 91
    },
    {
      "midi": 93,
      "hit": false,
      "t": 12186.427999999905,
      "d": 715.0415624999823,
      "v": 102
    },
    {
      "midi": 98,
      "hit": false,
      "t": 12308.249895833238,
      "d": 10.593208333331859,
      "v": 70
    },
    {
      "midi": 100,
      "hit": false,
      "t": 12308.249895833238,
      "d": 10.593208333331859,
      "v": 54
    },
    {
      "midi": 105,
      "hit": false,
      "t": 12308.249895833238,
      "d": 10.593208333331859,
      "v": 64
    },
    {
      "midi": 82,
      "hit": false,
      "t": 12313.546499999904,
      "d": 5.296604166665929,
      "v": 9
    },
    {
      "midi": 62,
      "hit": false,
      "t": 12313.546499999904,
      "d": 31.779624999995576,
      "v": 91
    },
    {
      "midi": 42,
      "hit": false,
      "t": 12318.84310416657,
      "d": 5.296604166665929,
      "v": 37
    },
    {
      "midi": 61,
      "hit": false,
      "t": 12324.139708333236,
      "d": 5.296604166665929,
      "v": 40
    },
    {
      "midi": 77,
      "hit": false,
      "t": 12334.732916666568,
      "d": 5.296604166665929,
      "v": 64
    },
    {
      "midi": 42,
      "hit": false,
      "t": 12440.664999999899,
      "d": 5.296604166665929,
      "v": 77
    },
    {
      "midi": 61,
      "hit": false,
      "t": 12440.664999999899,
      "d": 5.296604166665929,
      "v": 49
    },
    {
      "midi": 77,
      "hit": false,
      "t": 12440.664999999899,
      "d": 5.296604166665929,
      "v": 13
    },
    {
      "midi": 82,
      "hit": false,
      "t": 12440.664999999899,
      "d": 5.296604166665929,
      "v": 19
    },
    {
      "midi": 62,
      "hit": false,
      "t": 12440.664999999899,
      "d": 31.779624999999214,
      "v": 114
    },
    {
      "midi": 98,
      "hit": false,
      "t": 12562.486895833232,
      "d": 10.593208333331859,
      "v": 97
    },
    {
      "midi": 100,
      "hit": false,
      "t": 12562.486895833232,
      "d": 10.593208333331859,
      "v": 81
    },
    {
      "midi": 105,
      "hit": false,
      "t": 12562.486895833232,
      "d": 10.593208333331859,
      "v": 91
    },
    {
      "midi": 82,
      "hit": false,
      "t": 12567.783499999898,
      "d": 5.296604166665929,
      "v": 46
    },
    {
      "midi": 62,
      "hit": false,
      "t": 12567.783499999898,
      "d": 31.779624999995576,
      "v": 59
    },
    {
      "midi": 42,
      "hit": false,
      "t": 12573.080104166564,
      "d": 5.296604166665929,
      "v": 38
    },
    {
      "midi": 61,
      "hit": false,
      "t": 12578.37670833323,
      "d": 5.296604166665929,
      "v": 19
    },
    {
      "midi": 77,
      "hit": false,
      "t": 12588.969916666561,
      "d": 5.296604166665929,
      "v": 59
    },
    {
      "midi": 42,
      "hit": false,
      "t": 12689.605395833227,
      "d": 5.296604166665929,
      "v": 67
    },
    {
      "midi": 40,
      "hit": false,
      "t": 12694.901999999893,
      "d": 5.296604166665929,
      "v": 93
    },
    {
      "midi": 60,
      "hit": false,
      "t": 12694.901999999893,
      "d": 5.296604166665929,
      "v": 43
    },
    {
      "midi": 77,
      "hit": false,
      "t": 12694.901999999893,
      "d": 5.296604166665929,
      "v": 57
    },
    {
      "midi": 82,
      "hit": false,
      "t": 12694.901999999893,
      "d": 5.296604166665929,
      "v": 17
    },
    {
      "midi": 62,
      "hit": false,
      "t": 12694.901999999893,
      "d": 31.779624999999214,
      "v": 118
    },
    {
      "midi": 35,
      "hit": false,
      "t": 12694.901999999893,
      "d": 74.1524583333321,
      "v": 120
    },
    {
      "midi": 82,
      "hit": false,
      "t": 12822.020499999891,
      "d": 5.296604166665929,
      "v": 9
    },
    {
      "midi": 62,
      "hit": false,
      "t": 12822.020499999891,
      "d": 31.779624999995576,
      "v": 108
    },
    {
      "midi": 42,
      "hit": false,
      "t": 12827.317104166557,
      "d": 5.296604166665929,
      "v": 43
    },
    {
      "midi": 61,
      "hit": false,
      "t": 12832.613708333223,
      "d": 5.296604166665929,
      "v": 13
    },
    {
      "midi": 77,
      "hit": false,
      "t": 12843.206916666555,
      "d": 5.296604166665929,
      "v": 60
    },
    {
      "midi": 98,
      "hit": false,
      "t": 12943.84239583322,
      "d": 10.593208333331859,
      "v": 105
    },
    {
      "midi": 102,
      "hit": false,
      "t": 12943.84239583322,
      "d": 10.593208333331859,
      "v": 70
    },
    {
      "midi": 105,
      "hit": false,
      "t": 12943.84239583322,
      "d": 10.593208333331859,
      "v": 80
    },
    {
      "midi": 42,
      "hit": false,
      "t": 12949.138999999886,
      "d": 5.296604166665929,
      "v": 69
    },
    {
      "midi": 61,
      "hit": false,
      "t": 12949.138999999886,
      "d": 5.296604166665929,
      "v": 46
    },
    {
      "midi": 77,
      "hit": false,
      "t": 12949.138999999886,
      "d": 5.296604166665929,
      "v": 13
    },
    {
      "midi": 82,
      "hit": false,
      "t": 12949.138999999886,
      "d": 5.296604166665929,
      "v": 19
    },
    {
      "midi": 62,
      "hit": false,
      "t": 12949.138999999886,
      "d": 31.779624999999214,
      "v": 114
    },
    {
      "midi": 42,
      "hit": false,
      "t": 13076.257499999885,
      "d": 5.296604166665929,
      "v": 69
    },
    {
      "midi": 82,
      "hit": false,
      "t": 13076.257499999885,
      "d": 5.296604166665929,
      "v": 46
    },
    {
      "midi": 62,
      "hit": false,
      "t": 13076.257499999885,
      "d": 31.779624999995576,
      "v": 94
    },
    {
      "midi": 61,
      "hit": false,
      "t": 13086.850708333217,
      "d": 5.296604166665929,
      "v": 44
    },
    {
      "midi": 77,
      "hit": false,
      "t": 13097.443916666549,
      "d": 5.296604166665929,
      "v": 50
    },
    {
      "midi": 42,
      "hit": false,
      "t": 13198.079395833214,
      "d": 5.296604166665929,
      "v": 43
    },
    {
      "midi": 61,
      "hit": false,
      "t": 13203.37599999988,
      "d": 5.296604166665929,
      "v": 42
    },
    {
      "midi": 77,
      "hit": false,
      "t": 13203.37599999988,
      "d": 5.296604166665929,
      "v": 58
    },
    {
      "midi": 82,
      "hit": false,
      "t": 13203.37599999988,
      "d": 5.296604166665929,
      "v": 17
    },
    {
      "midi": 62,
      "hit": false,
      "t": 13203.37599999988,
      "d": 31.779624999999214,
      "v": 120
    },
    {
      "midi": 35,
      "hit": false,
      "t": 13203.37599999988,
      "d": 74.1524583333321,
      "v": 120
    },
    {
      "midi": 82,
      "hit": false,
      "t": 13330.494499999879,
      "d": 5.296604166665929,
      "v": 9
    },
    {
      "midi": 62,
      "hit": false,
      "t": 13330.494499999879,
      "d": 31.779624999995576,
      "v": 103
    },
    {
      "midi": 42,
      "hit": false,
      "t": 13335.791104166545,
      "d": 5.296604166665929,
      "v": 35
    },
    {
      "midi": 61,
      "hit": false,
      "t": 13341.08770833321,
      "d": 5.296604166665929,
      "v": 40
    },
    {
      "midi": 77,
      "hit": false,
      "t": 13351.680916666543,
      "d": 5.296604166665929,
      "v": 52
    },
    {
      "midi": 98,
      "hit": false,
      "t": 13452.316395833208,
      "d": 10.593208333331859,
      "v": 117
    },
    {
      "midi": 102,
      "hit": false,
      "t": 13452.316395833208,
      "d": 10.593208333331859,
      "v": 82
    },
    {
      "midi": 105,
      "hit": false,
      "t": 13452.316395833208,
      "d": 10.593208333331859,
      "v": 92
    },
    {
      "midi": 42,
      "hit": false,
      "t": 13457.612999999874,
      "d": 5.296604166665929,
      "v": 92
    },
    {
      "midi": 61,
      "hit": false,
      "t": 13457.612999999874,
      "d": 5.296604166665929,
      "v": 49
    },
    {
      "midi": 77,
      "hit": false,
      "t": 13457.612999999874,
      "d": 5.296604166665929,
      "v": 14
    },
    {
      "midi": 82,
      "hit": false,
      "t": 13457.612999999874,
      "d": 5.296604166665929,
      "v": 19
    },
    {
      "midi": 62,
      "hit": false,
      "t": 13457.612999999874,
      "d": 31.779624999999214,
      "v": 109
    },
    {
      "midi": 82,
      "hit": false,
      "t": 13584.731499999873,
      "d": 5.296604166665929,
      "v": 46
    },
    {
      "midi": 62,
      "hit": false,
      "t": 13584.731499999873,
      "d": 31.779624999995576,
      "v": 58
    },
    {
      "midi": 42,
      "hit": false,
      "t": 13590.028104166538,
      "d": 5.296604166665929,
      "v": 38
    },
    {
      "midi": 61,
      "hit": false,
      "t": 13595.324708333204,
      "d": 5.296604166665929,
      "v": 26
    },
    {
      "midi": 77,
      "hit": false,
      "t": 13605.917916666536,
      "d": 5.296604166665929,
      "v": 57
    },
    {
      "midi": 42,
      "hit": false,
      "t": 13706.553395833202,
      "d": 5.296604166665929,
      "v": 43
    },
    {
      "midi": 30,
      "hit": false,
      "t": 13711.849999999868,
      "d": 5.296604166665929,
      "v": 90
    },
    {
      "midi": 60,
      "hit": false,
      "t": 13711.849999999868,
      "d": 5.296604166665929,
      "v": 43
    },
    {
      "midi": 77,
      "hit": false,
      "t": 13711.849999999868,
      "d": 5.296604166665929,
      "v": 56
    },
    {
      "midi": 82,
      "hit": false,
      "t": 13711.849999999868,
      "d": 5.296604166665929,
      "v": 17
    },
    {
      "midi": 62,
      "hit": false,
      "t": 13711.849999999868,
      "d": 31.779624999999214,
      "v": 127
    },
    {
      "midi": 86,
      "hit": false,
      "t": 13711.849999999868,
      "d": 58.2626458333325,
      "v": 108
    },
    {
      "midi": 35,
      "hit": false,
      "t": 13711.849999999868,
      "d": 74.1524583333321,
      "v": 120
    },
    {
      "midi": 74,
      "hit": false,
      "t": 13711.849999999868,
      "d": 95.33887499999946,
      "v": 112
    },
    {
      "midi": 78,
      "hit": false,
      "t": 13711.849999999868,
      "d": 95.33887499999946,
      "v": 92
    },
    {
      "midi": 82,
      "hit": false,
      "t": 13838.968499999866,
      "d": 5.296604166665929,
      "v": 9
    },
    {
      "midi": 62,
      "hit": false,
      "t": 13838.968499999866,
      "d": 31.779624999995576,
      "v": 127
    },
    {
      "midi": 42,
      "hit": false,
      "t": 13844.265104166532,
      "d": 5.296604166665929,
      "v": 35
    },
    {
      "midi": 61,
      "hit": false,
      "t": 13849.561708333198,
      "d": 5.296604166665929,
      "v": 13
    },
    {
      "midi": 77,
      "hit": false,
      "t": 13860.15491666653,
      "d": 5.296604166665929,
      "v": 63
    },
    {
      "midi": 98,
      "hit": false,
      "t": 13960.790395833195,
      "d": 10.593208333331859,
      "v": 104
    },
    {
      "midi": 102,
      "hit": false,
      "t": 13960.790395833195,
      "d": 10.593208333331859,
      "v": 69
    },
    {
      "midi": 105,
      "hit": false,
      "t": 13960.790395833195,
      "d": 10.593208333331859,
      "v": 79
    },
    {
      "midi": 42,
      "hit": false,
      "t": 13966.086999999861,
      "d": 5.296604166665929,
      "v": 92
    },
    {
      "midi": 61,
      "hit": false,
      "t": 13966.086999999861,
      "d": 5.296604166665929,
      "v": 37
    },
    {
      "midi": 77,
      "hit": false,
      "t": 13966.086999999861,
      "d": 5.296604166665929,
      "v": 15
    },
    {
      "midi": 82,
      "hit": false,
      "t": 13966.086999999861,
      "d": 5.296604166665929,
      "v": 19
    },
    {
      "midi": 62,
      "hit": false,
      "t": 13966.086999999861,
      "d": 31.779624999999214,
      "v": 114
    },
    {
      "midi": 95,
      "hit": false,
      "t": 13966.086999999861,
      "d": 68.85585416666618,
      "v": 100
    },
    {
      "midi": 79,
      "hit": false,
      "t": 13966.086999999861,
      "d": 248.94039583332597,
      "v": 92
    },
    {
      "midi": 83,
      "hit": false,
      "t": 13966.086999999861,
      "d": 248.94039583332597,
      "v": 112
    },
    {
      "midi": 38,
      "hit": false,
      "t": 14093.20549999986,
      "d": 5.296604166665929,
      "v": 40
    },
    {
      "midi": 82,
      "hit": false,
      "t": 14093.20549999986,
      "d": 5.296604166665929,
      "v": 46
    },
    {
      "midi": 62,
      "hit": false,
      "t": 14093.20549999986,
      "d": 31.779624999995576,
      "v": 79
    },
    {
      "midi": 42,
      "hit": false,
      "t": 14098.502104166526,
      "d": 5.296604166665929,
      "v": 38
    },
    {
      "midi": 61,
      "hit": false,
      "t": 14103.798708333192,
      "d": 5.296604166665929,
      "v": 50
    },
    {
      "midi": 77,
      "hit": false,
      "t": 14114.391916666524,
      "d": 5.296604166665929,
      "v": 60
    },
    {
      "midi": 38,
      "hit": false,
      "t": 14135.57833333319,
      "d": 5.296604166665929,
      "v": 40
    },
    {
      "midi": 38,
      "hit": false,
      "t": 14177.951166666522,
      "d": 5.296604166665929,
      "v": 40
    },
    {
      "midi": 42,
      "hit": false,
      "t": 14215.027395833187,
      "d": 5.296604166665929,
      "v": 58
    },
    {
      "midi": 98,
      "hit": false,
      "t": 14215.027395833187,
      "d": 10.593208333331859,
      "v": 94
    },
    {
      "midi": 100,
      "hit": false,
      "t": 14215.027395833187,
      "d": 10.593208333331859,
      "v": 78
    },
    {
      "midi": 105,
      "hit": false,
      "t": 14215.027395833187,
      "d": 10.593208333331859,
      "v": 88
    },
    {
      "midi": 38,
      "hit": false,
      "t": 14220.323999999853,
      "d": 5.296604166665929,
      "v": 40
    },
    {
      "midi": 61,
      "hit": false,
      "t": 14220.323999999853,
      "d": 5.296604166665929,
      "v": 42
    },
    {
      "midi": 77,
      "hit": false,
      "t": 14220.323999999853,
      "d": 5.296604166665929,
      "v": 65
    },
    {
      "midi": 82,
      "hit": false,
      "t": 14220.323999999853,
      "d": 5.296604166665929,
      "v": 17
    },
    {
      "midi": 62,
      "hit": false,
      "t": 14220.323999999853,
      "d": 31.779624999999214,
      "v": 108
    },
    {
      "midi": 35,
      "hit": false,
      "t": 14220.323999999853,
      "d": 74.1524583333321,
      "v": 120
    },
    {
      "midi": 81,
      "hit": false,
      "t": 14220.323999999853,
      "d": 381.3554999999924,
      "v": 113
    },
    {
      "midi": 78,
      "hit": false,
      "t": 14220.323999999853,
      "d": 503.1773958333215,
      "v": 93
    },
    {
      "midi": 93,
      "hit": false,
      "t": 14220.323999999853,
      "d": 503.1773958333215,
      "v": 99
    },
    {
      "midi": 98,
      "hit": false,
      "t": 14342.145895833186,
      "d": 10.593208333331859,
      "v": 70
    },
    {
      "midi": 100,
      "hit": false,
      "t": 14342.145895833186,
      "d": 10.593208333331859,
      "v": 54
    },
    {
      "midi": 105,
      "hit": false,
      "t": 14342.145895833186,
      "d": 10.593208333331859,
      "v": 64
    },
    {
      "midi": 82,
      "hit": false,
      "t": 14347.442499999852,
      "d": 5.296604166665929,
      "v": 9
    },
    {
      "midi": 62,
      "hit": false,
      "t": 14347.442499999852,
      "d": 31.779624999995576,
      "v": 91
    },
    {
      "midi": 42,
      "hit": false,
      "t": 14352.739104166518,
      "d": 5.296604166665929,
      "v": 37
    },
    {
      "midi": 61,
      "hit": false,
      "t": 14358.035708333184,
      "d": 5.296604166665929,
      "v": 40
    },
    {
      "midi": 77,
      "hit": false,
      "t": 14368.628916666516,
      "d": 5.296604166665929,
      "v": 64
    },
    {
      "midi": 42,
      "hit": false,
      "t": 14474.560999999847,
      "d": 5.296604166665929,
      "v": 77
    },
    {
      "midi": 61,
      "hit": false,
      "t": 14474.560999999847,
      "d": 5.296604166665929,
      "v": 49
    },
    {
      "midi": 77,
      "hit": false,
      "t": 14474.560999999847,
      "d": 5.296604166665929,
      "v": 13
    },
    {
      "midi": 82,
      "hit": false,
      "t": 14474.560999999847,
      "d": 5.296604166665929,
      "v": 19
    },
    {
      "midi": 62,
      "hit": false,
      "t": 14474.560999999847,
      "d": 31.779624999999214,
      "v": 114
    },
    {
      "midi": 98,
      "hit": false,
      "t": 14596.38289583318,
      "d": 10.593208333331859,
      "v": 97
    },
    {
      "midi": 100,
      "hit": false,
      "t": 14596.38289583318,
      "d": 10.593208333331859,
      "v": 81
    },
    {
      "midi": 105,
      "hit": false,
      "t": 14596.38289583318,
      "d": 10.593208333331859,
      "v": 91
    },
    {
      "midi": 82,
      "hit": false,
      "t": 14601.679499999846,
      "d": 5.296604166665929,
      "v": 46
    },
    {
      "midi": 62,
      "hit": false,
      "t": 14601.679499999846,
      "d": 31.779624999995576,
      "v": 59
    },
    {
      "midi": 42,
      "hit": false,
      "t": 14606.976104166512,
      "d": 5.296604166665929,
      "v": 38
    },
    {
      "midi": 61,
      "hit": false,
      "t": 14612.272708333177,
      "d": 5.296604166665929,
      "v": 19
    },
    {
      "midi": 77,
      "hit": false,
      "t": 14622.86591666651,
      "d": 5.296604166665929,
      "v": 59
    },
    {
      "midi": 42,
      "hit": false,
      "t": 14723.501395833175,
      "d": 5.296604166665929,
      "v": 67
    },
    {
      "midi": 40,
      "hit": false,
      "t": 14728.79799999984,
      "d": 5.296604166665929,
      "v": 93
    },
    {
      "midi": 60,
      "hit": false,
      "t": 14728.79799999984,
      "d": 5.296604166665929,
      "v": 43
    },
    {
      "midi": 77,
      "hit": false,
      "t": 14728.79799999984,
      "d": 5.296604166665929,
      "v": 57
    },
    {
      "midi": 82,
      "hit": false,
      "t": 14728.79799999984,
      "d": 5.296604166665929,
      "v": 17
    },
    {
      "midi": 62,
      "hit": false,
      "t": 14728.79799999984,
      "d": 31.779624999999214,
      "v": 118
    },
    {
      "midi": 35,
      "hit": false,
      "t": 14728.79799999984,
      "d": 74.1524583333321,
      "v": 120
    },
    {
      "midi": 95,
      "hit": false,
      "t": 14728.79799999984,
      "d": 418.4317291666539,
      "v": 96
    },
    {
      "midi": 79,
      "hit": false,
      "t": 14728.79799999984,
      "d": 503.1773958333197,
      "v": 101
    },
    {
      "midi": 83,
      "hit": false,
      "t": 14728.79799999984,
      "d": 503.1773958333197,
      "v": 121
    },
    {
      "midi": 82,
      "hit": false,
      "t": 14855.91649999984,
      "d": 5.296604166665929,
      "v": 9
    },
    {
      "midi": 62,
      "hit": false,
      "t": 14855.91649999984,
      "d": 31.779624999995576,
      "v": 108
    },
    {
      "midi": 42,
      "hit": false,
      "t": 14861.213104166505,
      "d": 5.296604166665929,
      "v": 43
    },
    {
      "midi": 61,
      "hit": false,
      "t": 14866.509708333171,
      "d": 5.296604166665929,
      "v": 13
    },
    {
      "midi": 77,
      "hit": false,
      "t": 14877.102916666503,
      "d": 5.296604166665929,
      "v": 60
    },
    {
      "midi": 98,
      "hit": false,
      "t": 14977.738395833168,
      "d": 10.593208333331859,
      "v": 105
    },
    {
      "midi": 102,
      "hit": false,
      "t": 14977.738395833168,
      "d": 10.593208333331859,
      "v": 70
    },
    {
      "midi": 105,
      "hit": false,
      "t": 14977.738395833168,
      "d": 10.593208333331859,
      "v": 80
    },
    {
      "midi": 42,
      "hit": false,
      "t": 14983.034999999834,
      "d": 5.296604166665929,
      "v": 69
    },
    {
      "midi": 61,
      "hit": false,
      "t": 14983.034999999834,
      "d": 5.296604166665929,
      "v": 46
    },
    {
      "midi": 77,
      "hit": false,
      "t": 14983.034999999834,
      "d": 5.296604166665929,
      "v": 13
    },
    {
      "midi": 82,
      "hit": false,
      "t": 14983.034999999834,
      "d": 5.296604166665929,
      "v": 19
    },
    {
      "midi": 62,
      "hit": false,
      "t": 14983.034999999834,
      "d": 31.779624999999214,
      "v": 114
    },
    {
      "midi": 42,
      "hit": false,
      "t": 15110.153499999833,
      "d": 5.296604166665929,
      "v": 69
    },
    {
      "midi": 82,
      "hit": false,
      "t": 15110.153499999833,
      "d": 5.296604166665929,
      "v": 46
    },
    {
      "midi": 62,
      "hit": false,
      "t": 15110.153499999833,
      "d": 31.779624999995576,
      "v": 94
    },
    {
      "midi": 61,
      "hit": false,
      "t": 15120.746708333165,
      "d": 5.296604166665929,
      "v": 44
    },
    {
      "midi": 77,
      "hit": false,
      "t": 15131.339916666497,
      "d": 5.296604166665929,
      "v": 50
    },
    {
      "midi": 42,
      "hit": false,
      "t": 15231.97539583316,
      "d": 5.296604166665929,
      "v": 43
    },
    {
      "midi": 61,
      "hit": false,
      "t": 15237.271999999826,
      "d": 5.296604166665929,
      "v": 42
    },
    {
      "midi": 77,
      "hit": false,
      "t": 15237.271999999826,
      "d": 5.296604166665929,
      "v": 58
    },
    {
      "midi": 82,
      "hit": false,
      "t": 15237.271999999826,
      "d": 5.296604166665929,
      "v": 17
    },
    {
      "midi": 62,
      "hit": false,
      "t": 15237.271999999826,
      "d": 31.779624999999214,
      "v": 120
    },
    {
      "midi": 35,
      "hit": false,
      "t": 15237.271999999826,
      "d": 74.1524583333321,
      "v": 120
    },
    {
      "midi": 82,
      "hit": false,
      "t": 15364.390499999825,
      "d": 5.296604166665929,
      "v": 9
    },
    {
      "midi": 62,
      "hit": false,
      "t": 15364.390499999825,
      "d": 31.779624999995576,
      "v": 103
    },
    {
      "midi": 42,
      "hit": false,
      "t": 15369.68710416649,
      "d": 5.296604166665929,
      "v": 35
    },
    {
      "midi": 61,
      "hit": false,
      "t": 15374.983708333157,
      "d": 5.296604166665929,
      "v": 40
    },
    {
      "midi": 77,
      "hit": false,
      "t": 15385.576916666489,
      "d": 5.296604166665929,
      "v": 52
    },
    {
      "midi": 98,
      "hit": false,
      "t": 15486.212395833154,
      "d": 10.593208333331859,
      "v": 117
    },
    {
      "midi": 102,
      "hit": false,
      "t": 15486.212395833154,
      "d": 10.593208333331859,
      "v": 82
    },
    {
      "midi": 105,
      "hit": false,
      "t": 15486.212395833154,
      "d": 10.593208333331859,
      "v": 92
    },
    {
      "midi": 42,
      "hit": false,
      "t": 15491.50899999982,
      "d": 5.296604166665929,
      "v": 92
    },
    {
      "midi": 61,
      "hit": false,
      "t": 15491.50899999982,
      "d": 5.296604166665929,
      "v": 49
    },
    {
      "midi": 77,
      "hit": false,
      "t": 15491.50899999982,
      "d": 5.296604166665929,
      "v": 14
    },
    {
      "midi": 82,
      "hit": false,
      "t": 15491.50899999982,
      "d": 5.296604166665929,
      "v": 19
    },
    {
      "midi": 62,
      "hit": false,
      "t": 15491.50899999982,
      "d": 31.779624999999214,
      "v": 109
    },
    {
      "midi": 81,
      "hit": false,
      "t": 15491.50899999982,
      "d": 68.85585416666618,
      "v": 121
    },
    {
      "midi": 93,
      "hit": false,
      "t": 15491.50899999982,
      "d": 243.64379166666004,
      "v": 106
    },
    {
      "midi": 82,
      "hit": false,
      "t": 15618.627499999819,
      "d": 5.296604166665929,
      "v": 46
    },
    {
      "midi": 62,
      "hit": false,
      "t": 15618.627499999819,
      "d": 31.779624999995576,
      "v": 58
    },
    {
      "midi": 81,
      "hit": false,
      "t": 15618.627499999819,
      "d": 121.82189583332729,
      "v": 101
    },
    {
      "midi": 42,
      "hit": false,
      "t": 15623.924104166485,
      "d": 5.296604166665929,
      "v": 38
    },
    {
      "midi": 61,
      "hit": false,
      "t": 15629.22070833315,
      "d": 5.296604166665929,
      "v": 26
    },
    {
      "midi": 77,
      "hit": false,
      "t": 15639.813916666482,
      "d": 5.296604166665929,
      "v": 57
    },
    {
      "midi": 42,
      "hit": false,
      "t": 15740.449395833146,
      "d": 5.296604166665929,
      "v": 43
    },
    {
      "midi": 40,
      "hit": false,
      "t": 15745.745999999812,
      "d": 5.296604166665929,
      "v": 93
    },
    {
      "midi": 60,
      "hit": false,
      "t": 15745.745999999812,
      "d": 5.296604166665929,
      "v": 43
    },
    {
      "midi": 77,
      "hit": false,
      "t": 15745.745999999812,
      "d": 5.296604166665929,
      "v": 56
    },
    {
      "midi": 82,
      "hit": false,
      "t": 15745.745999999812,
      "d": 5.296604166665929,
      "v": 17
    },
    {
      "midi": 62,
      "hit": false,
      "t": 15745.745999999812,
      "d": 31.779624999999214,
      "v": 127
    },
    {
      "midi": 35,
      "hit": false,
      "t": 15745.745999999812,
      "d": 74.1524583333321,
      "v": 120
    },
    {
      "midi": 95,
      "hit": false,
      "t": 15745.745999999812,
      "d": 105.93208333333132,
      "v": 108
    },
    {
      "midi": 81,
      "hit": false,
      "t": 15745.745999999812,
      "d": 254.2369999999937,
      "v": 119
    },
    {
      "midi": 82,
      "hit": false,
      "t": 15872.86449999981,
      "d": 5.296604166665929,
      "v": 9
    },
    {
      "midi": 62,
      "hit": false,
      "t": 15872.86449999981,
      "d": 31.779624999995576,
      "v": 127
    },
    {
      "midi": 42,
      "hit": false,
      "t": 15878.161104166476,
      "d": 5.296604166665929,
      "v": 35
    },
    {
      "midi": 61,
      "hit": false,
      "t": 15883.457708333142,
      "d": 5.296604166665929,
      "v": 13
    },
    {
      "midi": 77,
      "hit": false,
      "t": 15894.050916666474,
      "d": 5.296604166665929,
      "v": 63
    },
    {
      "midi": 98,
      "hit": false,
      "t": 15994.68639583314,
      "d": 10.593208333331859,
      "v": 104
    },
    {
      "midi": 102,
      "hit": false,
      "t": 15994.68639583314,
      "d": 10.593208333331859,
      "v": 69
    },
    {
      "midi": 105,
      "hit": false,
      "t": 15994.68639583314,
      "d": 10.593208333331859,
      "v": 79
    },
    {
      "midi": 42,
      "hit": false,
      "t": 15999.982999999806,
      "d": 5.296604166665929,
      "v": 92
    },
    {
      "midi": 61,
      "hit": false,
      "t": 15999.982999999806,
      "d": 5.296604166665929,
      "v": 37
    },
    {
      "midi": 77,
      "hit": false,
      "t": 15999.982999999806,
      "d": 5.296604166665929,
      "v": 15
    },
    {
      "midi": 82,
      "hit": false,
      "t": 15999.982999999806,
      "d": 5.296604166665929,
      "v": 19
    },
    {
      "midi": 62,
      "hit": false,
      "t": 15999.982999999806,
      "d": 31.779624999999214,
      "v": 114
    },
    {
      "midi": 78,
      "hit": false,
      "t": 15999.982999999806,
      "d": 121.82189583333275,
      "v": 102
    },
    {
      "midi": 90,
      "hit": false,
      "t": 15999.982999999806,
      "d": 259.53360416665964,
      "v": 100
    },
    {
      "midi": 82,
      "hit": false,
      "t": 16127.101499999804,
      "d": 5.296604166665929,
      "v": 46
    },
    {
      "midi": 62,
      "hit": false,
      "t": 16127.101499999804,
      "d": 31.779624999995576,
      "v": 79
    },
    {
      "midi": 42,
      "hit": false,
      "t": 16132.39810416647,
      "d": 5.296604166665929,
      "v": 38
    },
    {
      "midi": 61,
      "hit": false,
      "t": 16137.694708333136,
      "d": 5.296604166665929,
      "v": 50
    },
    {
      "midi": 77,
      "hit": false,
      "t": 16148.287916666468,
      "d": 5.296604166665929,
      "v": 60
    },
    {
      "midi": 42,
      "hit": false,
      "t": 16248.923395833133,
      "d": 5.296604166665929,
      "v": 58
    },
    {
      "midi": 98,
      "hit": false,
      "t": 16248.923395833133,
      "d": 10.593208333331859,
      "v": 94
    },
    {
      "midi": 100,
      "hit": false,
      "t": 16248.923395833133,
      "d": 10.593208333331859,
      "v": 78
    },
    {
      "midi": 105,
      "hit": false,
      "t": 16248.923395833133,
      "d": 10.593208333331859,
      "v": 88
    },
    {
      "midi": 61,
      "hit": false,
      "t": 16254.2199999998,
      "d": 5.296604166665929,
      "v": 42
    },
    {
      "midi": 77,
      "hit": false,
      "t": 16254.2199999998,
      "d": 5.296604166665929,
      "v": 65
    },
    {
      "midi": 82,
      "hit": false,
      "t": 16254.2199999998,
      "d": 5.296604166665929,
      "v": 17
    },
    {
      "midi": 62,
      "hit": false,
      "t": 16254.2199999998,
      "d": 31.779624999999214,
      "v": 108
    },
    {
      "midi": 35,
      "hit": false,
      "t": 16254.2199999998,
      "d": 74.1524583333321,
      "v": 120
    },
    {
      "midi": 76,
      "hit": false,
      "t": 16254.2199999998,
      "d": 503.1773958333233,
      "v": 110
    },
    {
      "midi": 88,
      "hit": false,
      "t": 16254.2199999998,
      "d": 503.1773958333233,
      "v": 93
    },
    {
      "midi": 98,
      "hit": false,
      "t": 16376.041895833132,
      "d": 10.593208333331859,
      "v": 70
    },
    {
      "midi": 100,
      "hit": false,
      "t": 16376.041895833132,
      "d": 10.593208333331859,
      "v": 54
    },
    {
      "midi": 105,
      "hit": false,
      "t": 16376.041895833132,
      "d": 10.593208333331859,
      "v": 64
    },
    {
      "midi": 40,
      "hit": false,
      "t": 16381.338499999798,
      "d": 5.296604166665929,
      "v": 93
    },
    {
      "midi": 82,
      "hit": false,
      "t": 16381.338499999798,
      "d": 5.296604166665929,
      "v": 9
    },
    {
      "midi": 62,
      "hit": false,
      "t": 16381.338499999798,
      "d": 31.779624999995576,
      "v": 91
    },
    {
      "midi": 42,
      "hit": false,
      "t": 16386.635104166464,
      "d": 5.296604166665929,
      "v": 37
    },
    {
      "midi": 61,
      "hit": false,
      "t": 16391.93170833313,
      "d": 5.296604166665929,
      "v": 40
    },
    {
      "midi": 77,
      "hit": false,
      "t": 16402.52491666646,
      "d": 5.296604166665929,
      "v": 64
    },
    {
      "midi": 42,
      "hit": false,
      "t": 16508.456999999795,
      "d": 5.296604166665929,
      "v": 77
    },
    {
      "midi": 61,
      "hit": false,
      "t": 16508.456999999795,
      "d": 5.296604166665929,
      "v": 49
    },
    {
      "midi": 77,
      "hit": false,
      "t": 16508.456999999795,
      "d": 5.296604166665929,
      "v": 13
    },
    {
      "midi": 82,
      "hit": false,
      "t": 16508.456999999795,
      "d": 5.296604166665929,
      "v": 19
    },
    {
      "midi": 62,
      "hit": false,
      "t": 16508.456999999795,
      "d": 31.779624999999214,
      "v": 114
    },
    {
      "midi": 98,
      "hit": false,
      "t": 16630.278895833126,
      "d": 10.593208333331859,
      "v": 97
    },
    {
      "midi": 100,
      "hit": false,
      "t": 16630.278895833126,
      "d": 10.593208333331859,
      "v": 81
    },
    {
      "midi": 105,
      "hit": false,
      "t": 16630.278895833126,
      "d": 10.593208333331859,
      "v": 91
    },
    {
      "midi": 82,
      "hit": false,
      "t": 16635.57549999979,
      "d": 5.296604166665929,
      "v": 46
    },
    {
      "midi": 62,
      "hit": false,
      "t": 16635.57549999979,
      "d": 31.779624999995576,
      "v": 59
    },
    {
      "midi": 42,
      "hit": false,
      "t": 16640.872104166458,
      "d": 5.296604166665929,
      "v": 38
    },
    {
      "midi": 61,
      "hit": false,
      "t": 16646.168708333124,
      "d": 5.296604166665929,
      "v": 19
    },
    {
      "midi": 77,
      "hit": false,
      "t": 16656.761916666455,
      "d": 5.296604166665929,
      "v": 59
    },
    {
      "midi": 42,
      "hit": false,
      "t": 16757.397395833123,
      "d": 5.296604166665929,
      "v": 67
    },
    {
      "midi": 40,
      "hit": false,
      "t": 16762.69399999979,
      "d": 5.296604166665929,
      "v": 93
    },
    {
      "midi": 60,
      "hit": false,
      "t": 16762.69399999979,
      "d": 5.296604166665929,
      "v": 43
    },
    {
      "midi": 77,
      "hit": false,
      "t": 16762.69399999979,
      "d": 5.296604166665929,
      "v": 57
    },
    {
      "midi": 82,
      "hit": false,
      "t": 16762.69399999979,
      "d": 5.296604166665929,
      "v": 17
    },
    {
      "midi": 62,
      "hit": false,
      "t": 16762.69399999979,
      "d": 31.779624999999214,
      "v": 118
    },
    {
      "midi": 35,
      "hit": false,
      "t": 16762.69399999979,
      "d": 74.15245833333393,
      "v": 120
    },
    {
      "midi": 71,
      "hit": false,
      "t": 16762.69399999979,
      "d": 248.94039583332778,
      "v": 70
    },
    {
      "midi": 83,
      "hit": false,
      "t": 16762.69399999979,
      "d": 460.8045624999868,
      "v": 84
    },
    {
      "midi": 82,
      "hit": false,
      "t": 16889.81249999979,
      "d": 5.296604166665929,
      "v": 9
    },
    {
      "midi": 62,
      "hit": false,
      "t": 16889.81249999979,
      "d": 31.779624999995576,
      "v": 108
    },
    {
      "midi": 74,
      "hit": false,
      "t": 16889.81249999979,
      "d": 47.669437499997,
      "v": 119
    },
    {
      "midi": 78,
      "hit": false,
      "t": 16889.81249999979,
      "d": 58.26264583332886,
      "v": 127
    },
    {
      "midi": 90,
      "hit": false,
      "t": 16889.81249999979,
      "d": 58.26264583332886,
      "v": 90
    },
    {
      "midi": 42,
      "hit": false,
      "t": 16895.109104166455,
      "d": 5.296604166665929,
      "v": 43
    },
    {
      "midi": 61,
      "hit": false,
      "t": 16900.40570833312,
      "d": 5.296604166665929,
      "v": 13
    },
    {
      "midi": 77,
      "hit": false,
      "t": 16910.998916666453,
      "d": 5.296604166665929,
      "v": 60
    },
    {
      "midi": 98,
      "hit": false,
      "t": 17011.634395833116,
      "d": 10.593208333331859,
      "v": 105
    },
    {
      "midi": 102,
      "hit": false,
      "t": 17011.634395833116,
      "d": 10.593208333331859,
      "v": 70
    },
    {
      "midi": 105,
      "hit": false,
      "t": 17011.634395833116,
      "d": 10.593208333331859,
      "v": 80
    },
    {
      "midi": 42,
      "hit": false,
      "t": 17016.930999999782,
      "d": 5.296604166665929,
      "v": 69
    },
    {
      "midi": 61,
      "hit": false,
      "t": 17016.930999999782,
      "d": 5.296604166665929,
      "v": 46
    },
    {
      "midi": 77,
      "hit": false,
      "t": 17016.930999999782,
      "d": 5.296604166665929,
      "v": 13
    },
    {
      "midi": 82,
      "hit": false,
      "t": 17016.930999999782,
      "d": 5.296604166665929,
      "v": 19
    },
    {
      "midi": 62,
      "hit": false,
      "t": 17016.930999999782,
      "d": 31.779624999999214,
      "v": 114
    },
    {
      "midi": 78,
      "hit": false,
      "t": 17016.930999999782,
      "d": 58.2626458333325,
      "v": 127
    },
    {
      "midi": 90,
      "hit": false,
      "t": 17016.930999999782,
      "d": 58.2626458333325,
      "v": 90
    },
    {
      "midi": 74,
      "hit": false,
      "t": 17016.930999999782,
      "d": 68.85585416666436,
      "v": 98
    },
    {
      "midi": 69,
      "hit": false,
      "t": 17016.930999999782,
      "d": 222.4573749999945,
      "v": 94
    },
    {
      "midi": 42,
      "hit": false,
      "t": 17144.04949999978,
      "d": 5.296604166665929,
      "v": 69
    },
    {
      "midi": 82,
      "hit": false,
      "t": 17144.04949999978,
      "d": 5.296604166665929,
      "v": 46
    },
    {
      "midi": 62,
      "hit": false,
      "t": 17144.04949999978,
      "d": 31.779624999995576,
      "v": 94
    },
    {
      "midi": 74,
      "hit": false,
      "t": 17144.04949999978,
      "d": 79.44906249999622,
      "v": 98
    },
    {
      "midi": 78,
      "hit": false,
      "t": 17144.04949999978,
      "d": 95.33887499999764,
      "v": 122
    },
    {
      "midi": 90,
      "hit": false,
      "t": 17144.04949999978,
      "d": 95.33887499999764,
      "v": 85
    },
    {
      "midi": 61,
      "hit": false,
      "t": 17154.64270833311,
      "d": 5.296604166665929,
      "v": 44
    },
    {
      "midi": 77,
      "hit": false,
      "t": 17165.235916666443,
      "d": 5.296604166665929,
      "v": 50
    },
    {
      "midi": 42,
      "hit": false,
      "t": 17265.87139583311,
      "d": 5.296604166665929,
      "v": 43
    },
    {
      "midi": 57,
      "hit": false,
      "t": 17271.167999999776,
      "d": 5.296604166665929,
      "v": 127
    },
    {
      "midi": 61,
      "hit": false,
      "t": 17271.167999999776,
      "d": 5.296604166665929,
      "v": 42
    },
    {
      "midi": 77,
      "hit": false,
      "t": 17271.167999999776,
      "d": 5.296604166665929,
      "v": 58
    },
    {
      "midi": 82,
      "hit": false,
      "t": 17271.167999999776,
      "d": 5.296604166665929,
      "v": 17
    },
    {
      "midi": 50,
      "hit": false,
      "t": 17271.167999999776,
      "d": 10.593208333331859,
      "v": 98
    },
    {
      "midi": 62,
      "hit": false,
      "t": 17271.167999999776,
      "d": 10.593208333331859,
      "v": 120
    },
    {
      "midi": 35,
      "hit": false,
      "t": 17271.167999999776,
      "d": 74.15245833333393,
      "v": 120
    },
    {
      "midi": 50,
      "hit": false,
      "t": 17366.506874999777,
      "d": 132.41510416665915,
      "v": 57
    },
    {
      "midi": 82,
      "hit": false,
      "t": 17398.286499999776,
      "d": 5.296604166665929,
      "v": 9
    },
    {
      "midi": 62,
      "hit": false,
      "t": 17398.286499999776,
      "d": 31.779624999995576,
      "v": 103
    },
    {
      "midi": 76,
      "hit": false,
      "t": 17398.286499999776,
      "d": 90.04227083332808,
      "v": 117
    },
    {
      "midi": 42,
      "hit": false,
      "t": 17403.583104166442,
      "d": 5.296604166665929,
      "v": 35
    },
    {
      "midi": 61,
      "hit": false,
      "t": 17408.87970833311,
      "d": 5.296604166665929,
      "v": 40
    },
    {
      "midi": 77,
      "hit": false,
      "t": 17419.47291666644,
      "d": 5.296604166665929,
      "v": 52
    },
    {
      "midi": 98,
      "hit": false,
      "t": 17520.108395833104,
      "d": 10.593208333331859,
      "v": 117
    },
    {
      "midi": 102,
      "hit": false,
      "t": 17520.108395833104,
      "d": 10.593208333331859,
      "v": 82
    },
    {
      "midi": 105,
      "hit": false,
      "t": 17520.108395833104,
      "d": 10.593208333331859,
      "v": 92
    },
    {
      "midi": 42,
      "hit": false,
      "t": 17525.40499999977,
      "d": 5.296604166665929,
      "v": 92
    },
    {
      "midi": 61,
      "hit": false,
      "t": 17525.40499999977,
      "d": 5.296604166665929,
      "v": 49
    },
    {
      "midi": 77,
      "hit": false,
      "t": 17525.40499999977,
      "d": 5.296604166665929,
      "v": 14
    },
    {
      "midi": 82,
      "hit": false,
      "t": 17525.40499999977,
      "d": 5.296604166665929,
      "v": 19
    },
    {
      "midi": 62,
      "hit": false,
      "t": 17525.40499999977,
      "d": 31.779624999999214,
      "v": 109
    },
    {
      "midi": 75,
      "hit": false,
      "t": 17525.40499999977,
      "d": 74.15245833333393,
      "v": 117
    },
    {
      "midi": 50,
      "hit": false,
      "t": 17636.63368749977,
      "d": 105.9320833333295,
      "v": 58
    },
    {
      "midi": 82,
      "hit": false,
      "t": 17652.52349999977,
      "d": 5.296604166665929,
      "v": 46
    },
    {
      "midi": 62,
      "hit": false,
      "t": 17652.52349999977,
      "d": 31.779624999995576,
      "v": 58
    },
    {
      "midi": 74,
      "hit": false,
      "t": 17652.52349999977,
      "d": 84.74566666666215,
      "v": 114
    },
    {
      "midi": 42,
      "hit": false,
      "t": 17657.820104166436,
      "d": 5.296604166665929,
      "v": 38
    },
    {
      "midi": 61,
      "hit": false,
      "t": 17663.116708333102,
      "d": 5.296604166665929,
      "v": 26
    },
    {
      "midi": 77,
      "hit": false,
      "t": 17673.709916666434,
      "d": 5.296604166665929,
      "v": 57
    },
    {
      "midi": 52,
      "hit": false,
      "t": 17747.862374999764,
      "d": 105.9320833333295,
      "v": 69
    },
    {
      "midi": 64,
      "hit": false,
      "t": 17747.862374999764,
      "d": 105.9320833333295,
      "v": 69
    },
    {
      "midi": 42,
      "hit": false,
      "t": 17774.345395833097,
      "d": 5.296604166665929,
      "v": 43
    },
    {
      "midi": 30,
      "hit": false,
      "t": 17779.641999999763,
      "d": 5.296604166665929,
      "v": 90
    },
    {
      "midi": 60,
      "hit": false,
      "t": 17779.641999999763,
      "d": 5.296604166665929,
      "v": 43
    },
    {
      "midi": 77,
      "hit": false,
      "t": 17779.641999999763,
      "d": 5.296604166665929,
      "v": 56
    },
    {
      "midi": 82,
      "hit": false,
      "t": 17779.641999999763,
      "d": 5.296604166665929,
      "v": 17
    },
    {
      "midi": 62,
      "hit": false,
      "t": 17779.641999999763,
      "d": 31.779624999999214,
      "v": 127
    },
    {
      "midi": 74,
      "hit": false,
      "t": 17779.641999999763,
      "d": 68.85585416666436,
      "v": 124
    },
    {
      "midi": 86,
      "hit": false,
      "t": 17779.641999999763,
      "d": 74.15245833333029,
      "v": 109
    },
    {
      "midi": 35,
      "hit": false,
      "t": 17779.641999999763,
      "d": 74.15245833333029,
      "v": 120
    },
    {
      "midi": 78,
      "hit": false,
      "t": 17779.641999999763,
      "d": 95.33887499999764,
      "v": 103
    },
    {
      "midi": 82,
      "hit": false,
      "t": 17906.76049999976,
      "d": 5.296604166665929,
      "v": 9
    },
    {
      "midi": 62,
      "hit": false,
      "t": 17906.76049999976,
      "d": 31.779624999995576,
      "v": 127
    },
    {
      "midi": 42,
      "hit": false,
      "t": 17912.057104166426,
      "d": 5.296604166665929,
      "v": 35
    },
    {
      "midi": 61,
      "hit": false,
      "t": 17917.353708333092,
      "d": 5.296604166665929,
      "v": 13
    },
    {
      "midi": 77,
      "hit": false,
      "t": 17927.946916666424,
      "d": 5.296604166665929,
      "v": 63
    },
    {
      "midi": 54,
      "hit": false,
      "t": 18017.989187499756,
      "d": 90.04227083333171,
      "v": 39
    },
    {
      "midi": 66,
      "hit": false,
      "t": 18017.989187499756,
      "d": 90.04227083333171,
      "v": 39
    },
    {
      "midi": 98,
      "hit": false,
      "t": 18028.582395833088,
      "d": 10.593208333331859,
      "v": 104
    },
    {
      "midi": 102,
      "hit": false,
      "t": 18028.582395833088,
      "d": 10.593208333331859,
      "v": 69
    },
    {
      "midi": 105,
      "hit": false,
      "t": 18028.582395833088,
      "d": 10.593208333331859,
      "v": 79
    },
    {
      "midi": 42,
      "hit": false,
      "t": 18033.878999999753,
      "d": 5.296604166665929,
      "v": 92
    },
    {
      "midi": 61,
      "hit": false,
      "t": 18033.878999999753,
      "d": 5.296604166665929,
      "v": 37
    },
    {
      "midi": 77,
      "hit": false,
      "t": 18033.878999999753,
      "d": 5.296604166665929,
      "v": 15
    },
    {
      "midi": 82,
      "hit": false,
      "t": 18033.878999999753,
      "d": 5.296604166665929,
      "v": 19
    },
    {
      "midi": 62,
      "hit": false,
      "t": 18033.878999999753,
      "d": 31.779624999999214,
      "v": 114
    },
    {
      "midi": 83,
      "hit": false,
      "t": 18033.878999999753,
      "d": 74.15245833333393,
      "v": 110
    },
    {
      "midi": 95,
      "hit": false,
      "t": 18033.878999999753,
      "d": 79.44906249999985,
      "v": 107
    },
    {
      "midi": 79,
      "hit": false,
      "t": 18033.878999999753,
      "d": 90.04227083333171,
      "v": 89
    },
    {
      "midi": 38,
      "hit": false,
      "t": 18160.99749999975,
      "d": 5.296604166665929,
      "v": 40
    },
    {
      "midi": 82,
      "hit": false,
      "t": 18160.99749999975,
      "d": 5.296604166665929,
      "v": 46
    },
    {
      "midi": 62,
      "hit": false,
      "t": 18160.99749999975,
      "d": 31.779624999995576,
      "v": 79
    },
    {
      "midi": 42,
      "hit": false,
      "t": 18166.294104166416,
      "d": 5.296604166665929,
      "v": 38
    },
    {
      "midi": 61,
      "hit": false,
      "t": 18171.590708333082,
      "d": 5.296604166665929,
      "v": 50
    },
    {
      "midi": 77,
      "hit": false,
      "t": 18182.183916666414,
      "d": 5.296604166665929,
      "v": 60
    },
    {
      "midi": 38,
      "hit": false,
      "t": 18203.370333333078,
      "d": 5.296604166665929,
      "v": 40
    },
    {
      "midi": 38,
      "hit": false,
      "t": 18245.74316666641,
      "d": 5.296604166665929,
      "v": 40
    },
    {
      "midi": 42,
      "hit": false,
      "t": 18282.819395833074,
      "d": 5.296604166665929,
      "v": 58
    },
    {
      "midi": 98,
      "hit": false,
      "t": 18282.819395833074,
      "d": 10.593208333331859,
      "v": 94
    },
    {
      "midi": 100,
      "hit": false,
      "t": 18282.819395833074,
      "d": 10.593208333331859,
      "v": 78
    },
    {
      "midi": 105,
      "hit": false,
      "t": 18282.819395833074,
      "d": 10.593208333331859,
      "v": 88
    },
    {
      "midi": 38,
      "hit": false,
      "t": 18288.11599999974,
      "d": 5.296604166665929,
      "v": 40
    },
    {
      "midi": 61,
      "hit": false,
      "t": 18288.11599999974,
      "d": 5.296604166665929,
      "v": 42
    },
    {
      "midi": 77,
      "hit": false,
      "t": 18288.11599999974,
      "d": 5.296604166665929,
      "v": 65
    },
    {
      "midi": 82,
      "hit": false,
      "t": 18288.11599999974,
      "d": 5.296604166665929,
      "v": 17
    },
    {
      "midi": 62,
      "hit": false,
      "t": 18288.11599999974,
      "d": 31.779624999999214,
      "v": 108
    },
    {
      "midi": 35,
      "hit": false,
      "t": 18288.11599999974,
      "d": 74.15245833333393,
      "v": 120
    },
    {
      "midi": 78,
      "hit": false,
      "t": 18288.11599999974,
      "d": 248.94039583332778,
      "v": 89
    },
    {
      "midi": 81,
      "hit": false,
      "t": 18288.11599999974,
      "d": 376.05889583332464,
      "v": 110
    },
    {
      "midi": 93,
      "hit": false,
      "t": 18288.11599999974,
      "d": 397.24531249998836,
      "v": 96
    },
    {
      "midi": 98,
      "hit": false,
      "t": 18409.937895833074,
      "d": 10.593208333331859,
      "v": 70
    },
    {
      "midi": 100,
      "hit": false,
      "t": 18409.937895833074,
      "d": 10.593208333331859,
      "v": 54
    },
    {
      "midi": 105,
      "hit": false,
      "t": 18409.937895833074,
      "d": 10.593208333331859,
      "v": 64
    },
    {
      "midi": 82,
      "hit": false,
      "t": 18415.23449999974,
      "d": 5.296604166665929,
      "v": 9
    },
    {
      "midi": 62,
      "hit": false,
      "t": 18415.23449999974,
      "d": 31.779624999995576,
      "v": 91
    },
    {
      "midi": 42,
      "hit": false,
      "t": 18420.531104166406,
      "d": 5.296604166665929,
      "v": 37
    },
    {
      "midi": 61,
      "hit": false,
      "t": 18425.827708333072,
      "d": 5.296604166665929,
      "v": 40
    },
    {
      "midi": 77,
      "hit": false,
      "t": 18436.420916666404,
      "d": 5.296604166665929,
      "v": 64
    },
    {
      "midi": 42,
      "hit": false,
      "t": 18542.352999999734,
      "d": 5.296604166665929,
      "v": 77
    },
    {
      "midi": 61,
      "hit": false,
      "t": 18542.352999999734,
      "d": 5.296604166665929,
      "v": 49
    },
    {
      "midi": 77,
      "hit": false,
      "t": 18542.352999999734,
      "d": 5.296604166665929,
      "v": 13
    },
    {
      "midi": 82,
      "hit": false,
      "t": 18542.352999999734,
      "d": 5.296604166665929,
      "v": 19
    },
    {
      "midi": 62,
      "hit": false,
      "t": 18542.352999999734,
      "d": 31.779624999999214,
      "v": 114
    },
    {
      "midi": 98,
      "hit": false,
      "t": 18664.174895833065,
      "d": 10.593208333331859,
      "v": 97
    },
    {
      "midi": 100,
      "hit": false,
      "t": 18664.174895833065,
      "d": 10.593208333331859,
      "v": 81
    },
    {
      "midi": 105,
      "hit": false,
      "t": 18664.174895833065,
      "d": 10.593208333331859,
      "v": 91
    },
    {
      "midi": 82,
      "hit": false,
      "t": 18669.47149999973,
      "d": 5.296604166665929,
      "v": 46
    },
    {
      "midi": 62,
      "hit": false,
      "t": 18669.47149999973,
      "d": 31.779624999995576,
      "v": 59
    },
    {
      "midi": 42,
      "hit": false,
      "t": 18674.768104166396,
      "d": 5.296604166665929,
      "v": 38
    },
    {
      "midi": 61,
      "hit": false,
      "t": 18680.064708333062,
      "d": 5.296604166665929,
      "v": 19
    },
    {
      "midi": 77,
      "hit": false,
      "t": 18690.657916666394,
      "d": 5.296604166665929,
      "v": 59
    },
    {
      "midi": 42,
      "hit": false,
      "t": 18791.293395833058,
      "d": 5.296604166665929,
      "v": 67
    },
    {
      "midi": 40,
      "hit": false,
      "t": 18796.589999999724,
      "d": 5.296604166665929,
      "v": 93
    },
    {
      "midi": 60,
      "hit": false,
      "t": 18796.589999999724,
      "d": 5.296604166665929,
      "v": 43
    },
    {
      "midi": 77,
      "hit": false,
      "t": 18796.589999999724,
      "d": 5.296604166665929,
      "v": 57
    },
    {
      "midi": 82,
      "hit": false,
      "t": 18796.589999999724,
      "d": 5.296604166665929,
      "v": 17
    },
    {
      "midi": 62,
      "hit": false,
      "t": 18796.589999999724,
      "d": 31.779624999999214,
      "v": 118
    },
    {
      "midi": 35,
      "hit": false,
      "t": 18796.589999999724,
      "d": 74.15245833333393,
      "v": 120
    },
    {
      "midi": 79,
      "hit": false,
      "t": 18796.589999999724,
      "d": 376.05889583332464,
      "v": 106
    },
    {
      "midi": 83,
      "hit": false,
      "t": 18796.589999999724,
      "d": 376.05889583332464,
      "v": 127
    },
    {
      "midi": 95,
      "hit": false,
      "t": 18796.589999999724,
      "d": 376.05889583332464,
      "v": 104
    },
    {
      "midi": 82,
      "hit": false,
      "t": 18923.708499999724,
      "d": 5.296604166665929,
      "v": 9
    },
    {
      "midi": 62,
      "hit": false,
      "t": 18923.708499999724,
      "d": 31.779624999995576,
      "v": 108
    },
    {
      "midi": 42,
      "hit": false,
      "t": 18929.00510416639,
      "d": 5.296604166665929,
      "v": 43
    },
    {
      "midi": 61,
      "hit": false,
      "t": 18934.301708333056,
      "d": 5.296604166665929,
      "v": 13
    },
    {
      "midi": 77,
      "hit": false,
      "t": 18944.894916666388,
      "d": 5.296604166665929,
      "v": 60
    },
    {
      "midi": 98,
      "hit": false,
      "t": 19045.53039583305,
      "d": 10.593208333331859,
      "v": 105
    },
    {
      "midi": 102,
      "hit": false,
      "t": 19045.53039583305,
      "d": 10.593208333331859,
      "v": 70
    },
    {
      "midi": 105,
      "hit": false,
      "t": 19045.53039583305,
      "d": 10.593208333331859,
      "v": 80
    },
    {
      "midi": 42,
      "hit": false,
      "t": 19050.826999999717,
      "d": 5.296604166665929,
      "v": 69
    },
    {
      "midi": 61,
      "hit": false,
      "t": 19050.826999999717,
      "d": 5.296604166665929,
      "v": 46
    },
    {
      "midi": 77,
      "hit": false,
      "t": 19050.826999999717,
      "d": 5.296604166665929,
      "v": 13
    },
    {
      "midi": 82,
      "hit": false,
      "t": 19050.826999999717,
      "d": 5.296604166665929,
      "v": 19
    },
    {
      "midi": 62,
      "hit": false,
      "t": 19050.826999999717,
      "d": 31.779624999999214,
      "v": 114
    },
    {
      "midi": 42,
      "hit": false,
      "t": 19177.945499999714,
      "d": 5.296604166665929,
      "v": 69
    },
    {
      "midi": 82,
      "hit": false,
      "t": 19177.945499999714,
      "d": 5.296604166665929,
      "v": 46
    },
    {
      "midi": 74,
      "hit": false,
      "t": 19177.945499999714,
      "d": 84.74566666666215,
      "v": 104
    },
    {
      "midi": 69,
      "hit": false,
      "t": 19177.945499999714,
      "d": 376.05889583332464,
      "v": 83
    },
    {
      "midi": 61,
      "hit": false,
      "t": 19188.538708333046,
      "d": 5.296604166665929,
      "v": 44
    },
    {
      "midi": 62,
      "hit": false,
      "t": 19188.538708333046,
      "d": 21.186416666663717,
      "v": 127
    },
    {
      "midi": 86,
      "hit": false,
      "t": 19188.538708333046,
      "d": 105.9320833333295,
      "v": 98
    },
    {
      "midi": 50,
      "hit": false,
      "t": 19188.538708333046,
      "d": 105.9320833333295,
      "v": 114
    },
    {
      "midi": 77,
      "hit": false,
      "t": 19199.131916666378,
      "d": 5.296604166665929,
      "v": 50
    },
    {
      "midi": 42,
      "hit": false,
      "t": 19299.76739583304,
      "d": 5.296604166665929,
      "v": 43
    },
    {
      "midi": 61,
      "hit": false,
      "t": 19305.063999999707,
      "d": 5.296604166665929,
      "v": 42
    },
    {
      "midi": 77,
      "hit": false,
      "t": 19305.063999999707,
      "d": 5.296604166665929,
      "v": 58
    },
    {
      "midi": 82,
      "hit": false,
      "t": 19305.063999999707,
      "d": 5.296604166665929,
      "v": 17
    },
    {
      "midi": 62,
      "hit": false,
      "t": 19305.063999999707,
      "d": 31.779624999999214,
      "v": 120
    },
    {
      "midi": 35,
      "hit": false,
      "t": 19305.063999999707,
      "d": 74.15245833333393,
      "v": 120
    },
    {
      "midi": 82,
      "hit": false,
      "t": 19432.182499999708,
      "d": 5.296604166665929,
      "v": 9
    },
    {
      "midi": 74,
      "hit": false,
      "t": 19432.182499999708,
      "d": 63.55924999999479,
      "v": 122
    },
    {
      "midi": 42,
      "hit": false,
      "t": 19437.479104166374,
      "d": 5.296604166665929,
      "v": 35
    },
    {
      "midi": 62,
      "hit": false,
      "t": 19437.479104166374,
      "d": 26.483020833329647,
      "v": 121
    },
    {
      "midi": 50,
      "hit": false,
      "t": 19437.479104166374,
      "d": 74.15245833333029,
      "v": 108
    },
    {
      "midi": 61,
      "hit": false,
      "t": 19442.77570833304,
      "d": 5.296604166665929,
      "v": 40
    },
    {
      "midi": 86,
      "hit": false,
      "t": 19442.77570833304,
      "d": 68.85585416666436,
      "v": 107
    },
    {
      "midi": 77,
      "hit": false,
      "t": 19453.36891666637,
      "d": 5.296604166665929,
      "v": 52
    },
    {
      "midi": 98,
      "hit": false,
      "t": 19554.00439583304,
      "d": 10.593208333331859,
      "v": 117
    },
    {
      "midi": 102,
      "hit": false,
      "t": 19554.00439583304,
      "d": 10.593208333331859,
      "v": 82
    },
    {
      "midi": 105,
      "hit": false,
      "t": 19554.00439583304,
      "d": 10.593208333331859,
      "v": 92
    },
    {
      "midi": 42,
      "hit": false,
      "t": 19559.300999999705,
      "d": 5.296604166665929,
      "v": 92
    },
    {
      "midi": 61,
      "hit": false,
      "t": 19559.300999999705,
      "d": 5.296604166665929,
      "v": 49
    },
    {
      "midi": 77,
      "hit": false,
      "t": 19559.300999999705,
      "d": 5.296604166665929,
      "v": 14
    },
    {
      "midi": 82,
      "hit": false,
      "t": 19559.300999999705,
      "d": 5.296604166665929,
      "v": 19
    },
    {
      "midi": 62,
      "hit": false,
      "t": 19559.300999999705,
      "d": 31.779624999999214,
      "v": 109
    },
    {
      "midi": 82,
      "hit": false,
      "t": 19686.419499999705,
      "d": 5.296604166665929,
      "v": 46
    },
    {
      "midi": 74,
      "hit": false,
      "t": 19686.419499999705,
      "d": 105.9320833333295,
      "v": 105
    },
    {
      "midi": 42,
      "hit": false,
      "t": 19691.71610416637,
      "d": 5.296604166665929,
      "v": 38
    },
    {
      "midi": 62,
      "hit": false,
      "t": 19691.71610416637,
      "d": 26.483020833329647,
      "v": 103
    },
    {
      "midi": 50,
      "hit": false,
      "t": 19691.71610416637,
      "d": 90.04227083333171,
      "v": 90
    },
    {
      "midi": 61,
      "hit": false,
      "t": 19697.012708333037,
      "d": 5.296604166665929,
      "v": 26
    },
    {
      "midi": 86,
      "hit": false,
      "t": 19697.012708333037,
      "d": 63.55924999999843,
      "v": 111
    },
    {
      "midi": 77,
      "hit": false,
      "t": 19707.60591666637,
      "d": 5.296604166665929,
      "v": 57
    },
    {
      "midi": 94,
      "hit": false,
      "t": 19792.351583333035,
      "d": 26.483020833333285,
      "v": 95
    },
    {
      "midi": 42,
      "hit": false,
      "t": 19808.241395833036,
      "d": 5.296604166665929,
      "v": 43
    },
    {
      "midi": 40,
      "hit": false,
      "t": 19813.537999999702,
      "d": 5.296604166665929,
      "v": 93
    },
    {
      "midi": 60,
      "hit": false,
      "t": 19813.537999999702,
      "d": 5.296604166665929,
      "v": 43
    },
    {
      "midi": 77,
      "hit": false,
      "t": 19813.537999999702,
      "d": 5.296604166665929,
      "v": 56
    },
    {
      "midi": 82,
      "hit": false,
      "t": 19813.537999999702,
      "d": 5.296604166665929,
      "v": 17
    },
    {
      "midi": 62,
      "hit": false,
      "t": 19813.537999999702,
      "d": 31.779624999999214,
      "v": 127
    },
    {
      "midi": 35,
      "hit": false,
      "t": 19813.537999999702,
      "d": 74.15245833333029,
      "v": 120
    },
    {
      "midi": 79,
      "hit": false,
      "t": 19813.537999999702,
      "d": 386.6521041666565,
      "v": 96
    },
    {
      "midi": 58,
      "hit": false,
      "t": 19824.131208333034,
      "d": 68.85585416666436,
      "v": 114
    },
    {
      "midi": 70,
      "hit": false,
      "t": 19824.131208333034,
      "d": 68.85585416666436,
      "v": 127
    },
    {
      "midi": 95,
      "hit": false,
      "t": 19824.131208333034,
      "d": 434.3215416666535,
      "v": 105
    },
    {
      "midi": 59,
      "hit": false,
      "t": 19850.614229166367,
      "d": 365.46568749998914,
      "v": 104
    },
    {
      "midi": 71,
      "hit": false,
      "t": 19850.614229166367,
      "d": 365.46568749998914,
      "v": 117
    },
    {
      "midi": 83,
      "hit": false,
      "t": 19877.0972499997,
      "d": 195.97435416665758,
      "v": 108
    },
    {
      "midi": 82,
      "hit": false,
      "t": 19940.6564999997,
      "d": 5.296604166665929,
      "v": 9
    },
    {
      "midi": 62,
      "hit": false,
      "t": 19940.6564999997,
      "d": 31.779624999995576,
      "v": 127
    },
    {
      "midi": 42,
      "hit": false,
      "t": 19945.953104166365,
      "d": 5.296604166665929,
      "v": 35
    },
    {
      "midi": 61,
      "hit": false,
      "t": 19951.24970833303,
      "d": 5.296604166665929,
      "v": 13
    },
    {
      "midi": 77,
      "hit": false,
      "t": 19961.842916666363,
      "d": 5.296604166665929,
      "v": 63
    },
    {
      "midi": 98,
      "hit": false,
      "t": 20062.478395833026,
      "d": 10.593208333331859,
      "v": 104
    },
    {
      "midi": 102,
      "hit": false,
      "t": 20062.478395833026,
      "d": 10.593208333331859,
      "v": 69
    },
    {
      "midi": 105,
      "hit": false,
      "t": 20062.478395833026,
      "d": 10.593208333331859,
      "v": 79
    },
    {
      "midi": 42,
      "hit": false,
      "t": 20067.774999999692,
      "d": 5.296604166665929,
      "v": 92
    },
    {
      "midi": 61,
      "hit": false,
      "t": 20067.774999999692,
      "d": 5.296604166665929,
      "v": 37
    },
    {
      "midi": 77,
      "hit": false,
      "t": 20067.774999999692,
      "d": 5.296604166665929,
      "v": 15
    },
    {
      "midi": 82,
      "hit": false,
      "t": 20067.774999999692,
      "d": 5.296604166665929,
      "v": 19
    },
    {
      "midi": 62,
      "hit": false,
      "t": 20067.774999999692,
      "d": 31.779624999999214,
      "v": 114
    },
    {
      "midi": 82,
      "hit": false,
      "t": 20194.893499999693,
      "d": 5.296604166665929,
      "v": 46
    },
    {
      "midi": 62,
      "hit": false,
      "t": 20194.893499999693,
      "d": 31.779624999995576,
      "v": 79
    },
    {
      "midi": 42,
      "hit": false,
      "t": 20200.19010416636,
      "d": 5.296604166665929,
      "v": 38
    },
    {
      "midi": 61,
      "hit": false,
      "t": 20205.486708333025,
      "d": 5.296604166665929,
      "v": 50
    },
    {
      "midi": 77,
      "hit": false,
      "t": 20216.079916666356,
      "d": 5.296604166665929,
      "v": 60
    },
    {
      "midi": 80,
      "hit": false,
      "t": 20284.93577083302,
      "d": 127.1185000000005,
      "v": 89
    },
    {
      "midi": 42,
      "hit": false,
      "t": 20316.71539583302,
      "d": 5.296604166665929,
      "v": 58
    },
    {
      "midi": 98,
      "hit": false,
      "t": 20316.71539583302,
      "d": 10.593208333331859,
      "v": 94
    },
    {
      "midi": 100,
      "hit": false,
      "t": 20316.71539583302,
      "d": 10.593208333331859,
      "v": 78
    },
    {
      "midi": 105,
      "hit": false,
      "t": 20316.71539583302,
      "d": 10.593208333331859,
      "v": 88
    },
    {
      "midi": 61,
      "hit": false,
      "t": 20322.011999999686,
      "d": 5.296604166665929,
      "v": 42
    },
    {
      "midi": 77,
      "hit": false,
      "t": 20322.011999999686,
      "d": 5.296604166665929,
      "v": 65
    },
    {
      "midi": 82,
      "hit": false,
      "t": 20322.011999999686,
      "d": 5.296604166665929,
      "v": 17
    },
    {
      "midi": 62,
      "hit": false,
      "t": 20322.011999999686,
      "d": 31.779624999999214,
      "v": 108
    },
    {
      "midi": 35,
      "hit": false,
      "t": 20322.011999999686,
      "d": 74.15245833333393,
      "v": 120
    },
    {
      "midi": 76,
      "hit": false,
      "t": 20322.011999999686,
      "d": 503.1773958333215,
      "v": 90
    },
    {
      "midi": 93,
      "hit": false,
      "t": 20322.011999999686,
      "d": 715.0415624999841,
      "v": 102
    },
    {
      "midi": 57,
      "hit": false,
      "t": 20343.198416666353,
      "d": 953.3887499999801,
      "v": 114
    },
    {
      "midi": 69,
      "hit": false,
      "t": 20343.198416666353,
      "d": 953.3887499999801,
      "v": 127
    },
    {
      "midi": 81,
      "hit": false,
      "t": 20369.681437499687,
      "d": 455.50795833332086,
      "v": 112
    },
    {
      "midi": 98,
      "hit": false,
      "t": 20443.83389583302,
      "d": 10.593208333331859,
      "v": 70
    },
    {
      "midi": 100,
      "hit": false,
      "t": 20443.83389583302,
      "d": 10.593208333331859,
      "v": 54
    },
    {
      "midi": 105,
      "hit": false,
      "t": 20443.83389583302,
      "d": 10.593208333331859,
      "v": 64
    },
    {
      "midi": 82,
      "hit": false,
      "t": 20449.130499999686,
      "d": 5.296604166665929,
      "v": 9
    },
    {
      "midi": 62,
      "hit": false,
      "t": 20449.130499999686,
      "d": 31.779624999995576,
      "v": 91
    },
    {
      "midi": 42,
      "hit": false,
      "t": 20454.427104166352,
      "d": 5.296604166665929,
      "v": 37
    },
    {
      "midi": 61,
      "hit": false,
      "t": 20459.72370833302,
      "d": 5.296604166665929,
      "v": 40
    },
    {
      "midi": 77,
      "hit": false,
      "t": 20470.31691666635,
      "d": 5.296604166665929,
      "v": 64
    },
    {
      "midi": 42,
      "hit": false,
      "t": 20576.248999999683,
      "d": 5.296604166665929,
      "v": 77
    },
    {
      "midi": 61,
      "hit": false,
      "t": 20576.248999999683,
      "d": 5.296604166665929,
      "v": 49
    },
    {
      "midi": 77,
      "hit": false,
      "t": 20576.248999999683,
      "d": 5.296604166665929,
      "v": 13
    },
    {
      "midi": 82,
      "hit": false,
      "t": 20576.248999999683,
      "d": 5.296604166665929,
      "v": 19
    },
    {
      "midi": 62,
      "hit": false,
      "t": 20576.248999999683,
      "d": 31.779624999999214,
      "v": 114
    },
    {
      "midi": 98,
      "hit": false,
      "t": 20698.070895833014,
      "d": 10.593208333331859,
      "v": 97
    },
    {
      "midi": 100,
      "hit": false,
      "t": 20698.070895833014,
      "d": 10.593208333331859,
      "v": 81
    },
    {
      "midi": 105,
      "hit": false,
      "t": 20698.070895833014,
      "d": 10.593208333331859,
      "v": 91
    },
    {
      "midi": 82,
      "hit": false,
      "t": 20703.36749999968,
      "d": 5.296604166665929,
      "v": 46
    },
    {
      "midi": 62,
      "hit": false,
      "t": 20703.36749999968,
      "d": 31.779624999995576,
      "v": 59
    },
    {
      "midi": 42,
      "hit": false,
      "t": 20708.664104166346,
      "d": 5.296604166665929,
      "v": 38
    },
    {
      "midi": 61,
      "hit": false,
      "t": 20713.960708333012,
      "d": 5.296604166665929,
      "v": 19
    },
    {
      "midi": 77,
      "hit": false,
      "t": 20724.553916666344,
      "d": 5.296604166665929,
      "v": 59
    },
    {
      "midi": 42,
      "hit": false,
      "t": 20825.189395833007,
      "d": 5.296604166665929,
      "v": 67
    },
    {
      "midi": 40,
      "hit": false,
      "t": 20830.485999999673,
      "d": 5.296604166665929,
      "v": 93
    },
    {
      "midi": 60,
      "hit": false,
      "t": 20830.485999999673,
      "d": 5.296604166665929,
      "v": 43
    },
    {
      "midi": 77,
      "hit": false,
      "t": 20830.485999999673,
      "d": 5.296604166665929,
      "v": 57
    },
    {
      "midi": 82,
      "hit": false,
      "t": 20830.485999999673,
      "d": 5.296604166665929,
      "v": 17
    },
    {
      "midi": 62,
      "hit": false,
      "t": 20830.485999999673,
      "d": 31.779624999999214,
      "v": 118
    },
    {
      "midi": 35,
      "hit": false,
      "t": 20830.485999999673,
      "d": 74.15245833333393,
      "v": 120
    },
    {
      "midi": 82,
      "hit": false,
      "t": 20957.604499999674,
      "d": 5.296604166665929,
      "v": 9
    },
    {
      "midi": 62,
      "hit": false,
      "t": 20957.604499999674,
      "d": 31.779624999995576,
      "v": 108
    },
    {
      "midi": 42,
      "hit": false,
      "t": 20962.90110416634,
      "d": 5.296604166665929,
      "v": 43
    },
    {
      "midi": 61,
      "hit": false,
      "t": 20968.197708333006,
      "d": 5.296604166665929,
      "v": 13
    },
    {
      "midi": 77,
      "hit": false,
      "t": 20978.790916666338,
      "d": 5.296604166665929,
      "v": 60
    },
    {
      "midi": 98,
      "hit": false,
      "t": 21079.426395833005,
      "d": 10.593208333331859,
      "v": 105
    },
    {
      "midi": 102,
      "hit": false,
      "t": 21079.426395833005,
      "d": 10.593208333331859,
      "v": 70
    },
    {
      "midi": 105,
      "hit": false,
      "t": 21079.426395833005,
      "d": 10.593208333331859,
      "v": 80
    },
    {
      "midi": 42,
      "hit": false,
      "t": 21084.72299999967,
      "d": 5.296604166665929,
      "v": 69
    },
    {
      "midi": 61,
      "hit": false,
      "t": 21084.72299999967,
      "d": 5.296604166665929,
      "v": 46
    },
    {
      "midi": 77,
      "hit": false,
      "t": 21084.72299999967,
      "d": 5.296604166665929,
      "v": 13
    },
    {
      "midi": 82,
      "hit": false,
      "t": 21084.72299999967,
      "d": 5.296604166665929,
      "v": 19
    },
    {
      "midi": 62,
      "hit": false,
      "t": 21084.72299999967,
      "d": 31.779624999999214,
      "v": 114
    },
    {
      "midi": 42,
      "hit": false,
      "t": 21211.84149999967,
      "d": 5.296604166665929,
      "v": 69
    },
    {
      "midi": 82,
      "hit": false,
      "t": 21211.84149999967,
      "d": 5.296604166665929,
      "v": 46
    },
    {
      "midi": 62,
      "hit": false,
      "t": 21211.84149999967,
      "d": 31.779624999995576,
      "v": 94
    },
    {
      "midi": 61,
      "hit": false,
      "t": 21222.434708333003,
      "d": 5.296604166665929,
      "v": 44
    },
    {
      "midi": 77,
      "hit": false,
      "t": 21233.027916666335,
      "d": 5.296604166665929,
      "v": 50
    },
    {
      "midi": 42,
      "hit": false,
      "t": 21333.663395833,
      "d": 5.296604166665929,
      "v": 43
    },
    {
      "midi": 61,
      "hit": false,
      "t": 21338.959999999664,
      "d": 5.296604166665929,
      "v": 42
    },
    {
      "midi": 77,
      "hit": false,
      "t": 21338.959999999664,
      "d": 5.296604166665929,
      "v": 58
    },
    {
      "midi": 82,
      "hit": false,
      "t": 21338.959999999664,
      "d": 5.296604166665929,
      "v": 17
    },
    {
      "midi": 62,
      "hit": false,
      "t": 21338.959999999664,
      "d": 31.779624999999214,
      "v": 120
    },
    {
      "midi": 35,
      "hit": false,
      "t": 21338.959999999664,
      "d": 74.15245833333393,
      "v": 120
    },
    {
      "midi": 82,
      "hit": false,
      "t": 21466.078499999665,
      "d": 5.296604166665929,
      "v": 9
    },
    {
      "midi": 62,
      "hit": false,
      "t": 21466.078499999665,
      "d": 31.779624999995576,
      "v": 103
    },
    {
      "midi": 42,
      "hit": false,
      "t": 21471.37510416633,
      "d": 5.296604166665929,
      "v": 35
    },
    {
      "midi": 61,
      "hit": false,
      "t": 21476.671708332997,
      "d": 5.296604166665929,
      "v": 40
    },
    {
      "midi": 77,
      "hit": false,
      "t": 21487.26491666633,
      "d": 5.296604166665929,
      "v": 52
    },
    {
      "midi": 98,
      "hit": false,
      "t": 21587.900395832992,
      "d": 10.593208333331859,
      "v": 117
    },
    {
      "midi": 102,
      "hit": false,
      "t": 21587.900395832992,
      "d": 10.593208333331859,
      "v": 82
    },
    {
      "midi": 105,
      "hit": false,
      "t": 21587.900395832992,
      "d": 10.593208333331859,
      "v": 92
    },
    {
      "midi": 42,
      "hit": false,
      "t": 21593.196999999658,
      "d": 5.296604166665929,
      "v": 92
    },
    {
      "midi": 61,
      "hit": false,
      "t": 21593.196999999658,
      "d": 5.296604166665929,
      "v": 49
    },
    {
      "midi": 77,
      "hit": false,
      "t": 21593.196999999658,
      "d": 5.296604166665929,
      "v": 14
    },
    {
      "midi": 82,
      "hit": false,
      "t": 21593.196999999658,
      "d": 5.296604166665929,
      "v": 19
    },
    {
      "midi": 62,
      "hit": false,
      "t": 21593.196999999658,
      "d": 31.779624999999214,
      "v": 109
    },
    {
      "midi": 82,
      "hit": false,
      "t": 21720.31549999966,
      "d": 5.296604166665929,
      "v": 46
    },
    {
      "midi": 62,
      "hit": false,
      "t": 21720.31549999966,
      "d": 31.779624999995576,
      "v": 58
    },
    {
      "midi": 42,
      "hit": false,
      "t": 21725.612104166325,
      "d": 5.296604166665929,
      "v": 38
    },
    {
      "midi": 61,
      "hit": false,
      "t": 21730.90870833299,
      "d": 5.296604166665929,
      "v": 26
    },
    {
      "midi": 77,
      "hit": false,
      "t": 21741.501916666322,
      "d": 5.296604166665929,
      "v": 57
    },
    {
      "midi": 42,
      "hit": false,
      "t": 21842.137395832986,
      "d": 5.296604166665929,
      "v": 43
    },
    {
      "midi": 30,
      "hit": false,
      "t": 21847.433999999652,
      "d": 5.296604166665929,
      "v": 90
    },
    {
      "midi": 60,
      "hit": false,
      "t": 21847.433999999652,
      "d": 5.296604166665929,
      "v": 43
    },
    {
      "midi": 77,
      "hit": false,
      "t": 21847.433999999652,
      "d": 5.296604166665929,
      "v": 56
    },
    {
      "midi": 82,
      "hit": false,
      "t": 21847.433999999652,
      "d": 5.296604166665929,
      "v": 17
    },
    {
      "midi": 62,
      "hit": false,
      "t": 21847.433999999652,
      "d": 31.779624999999214,
      "v": 127
    },
    {
      "midi": 86,
      "hit": false,
      "t": 21847.433999999652,
      "d": 58.2626458333325,
      "v": 108
    },
    {
      "midi": 74,
      "hit": false,
      "t": 21847.433999999652,
      "d": 63.55924999999843,
      "v": 112
    },
    {
      "midi": 35,
      "hit": false,
      "t": 21847.433999999652,
      "d": 74.15245833333029,
      "v": 120
    },
    {
      "midi": 78,
      "hit": false,
      "t": 21847.433999999652,
      "d": 95.33887499999764,
      "v": 91
    },
    {
      "midi": 50,
      "hit": false,
      "t": 21858.027208332984,
      "d": 100.63547916666357,
      "v": 98
    },
    {
      "midi": 82,
      "hit": false,
      "t": 21974.55249999965,
      "d": 5.296604166665929,
      "v": 9
    },
    {
      "midi": 62,
      "hit": false,
      "t": 21974.55249999965,
      "d": 31.779624999995576,
      "v": 127
    },
    {
      "midi": 42,
      "hit": false,
      "t": 21979.849104166315,
      "d": 5.296604166665929,
      "v": 35
    },
    {
      "midi": 61,
      "hit": false,
      "t": 21985.14570833298,
      "d": 5.296604166665929,
      "v": 13
    },
    {
      "midi": 77,
      "hit": false,
      "t": 21995.738916666312,
      "d": 5.296604166665929,
      "v": 63
    },
    {
      "midi": 59,
      "hit": false,
      "t": 22085.781187499644,
      "d": 95.338874999994,
      "v": 98
    },
    {
      "midi": 98,
      "hit": false,
      "t": 22096.374395832976,
      "d": 10.593208333331859,
      "v": 104
    },
    {
      "midi": 102,
      "hit": false,
      "t": 22096.374395832976,
      "d": 10.593208333331859,
      "v": 69
    },
    {
      "midi": 105,
      "hit": false,
      "t": 22096.374395832976,
      "d": 10.593208333331859,
      "v": 79
    },
    {
      "midi": 42,
      "hit": false,
      "t": 22101.670999999642,
      "d": 5.296604166665929,
      "v": 92
    },
    {
      "midi": 61,
      "hit": false,
      "t": 22101.670999999642,
      "d": 5.296604166665929,
      "v": 37
    },
    {
      "midi": 77,
      "hit": false,
      "t": 22101.670999999642,
      "d": 5.296604166665929,
      "v": 15
    },
    {
      "midi": 82,
      "hit": false,
      "t": 22101.670999999642,
      "d": 5.296604166665929,
      "v": 19
    },
    {
      "midi": 62,
      "hit": false,
      "t": 22101.670999999642,
      "d": 31.779624999999214,
      "v": 114
    },
    {
      "midi": 83,
      "hit": false,
      "t": 22101.670999999642,
      "d": 68.85585416666436,
      "v": 112
    },
    {
      "midi": 95,
      "hit": false,
      "t": 22101.670999999642,
      "d": 68.85585416666436,
      "v": 100
    },
    {
      "midi": 71,
      "hit": false,
      "t": 22101.670999999642,
      "d": 95.33887499999764,
      "v": 127
    },
    {
      "midi": 79,
      "hit": false,
      "t": 22101.670999999642,
      "d": 248.9403958333205,
      "v": 91
    },
    {
      "midi": 38,
      "hit": false,
      "t": 22228.78949999964,
      "d": 5.296604166665929,
      "v": 40
    },
    {
      "midi": 82,
      "hit": false,
      "t": 22228.78949999964,
      "d": 5.296604166665929,
      "v": 46
    },
    {
      "midi": 62,
      "hit": false,
      "t": 22228.78949999964,
      "d": 31.779624999995576,
      "v": 79
    },
    {
      "midi": 42,
      "hit": false,
      "t": 22234.086104166305,
      "d": 5.296604166665929,
      "v": 38
    },
    {
      "midi": 61,
      "hit": false,
      "t": 22239.38270833297,
      "d": 5.296604166665929,
      "v": 50
    },
    {
      "midi": 77,
      "hit": false,
      "t": 22249.975916666303,
      "d": 5.296604166665929,
      "v": 60
    },
    {
      "midi": 38,
      "hit": false,
      "t": 22271.162333332966,
      "d": 5.296604166665929,
      "v": 40
    },
    {
      "midi": 38,
      "hit": false,
      "t": 22313.535166666297,
      "d": 5.296604166665929,
      "v": 40
    },
    {
      "midi": 80,
      "hit": false,
      "t": 22340.01818749963,
      "d": 47.669437499993364,
      "v": 127
    },
    {
      "midi": 68,
      "hit": false,
      "t": 22345.314791666297,
      "d": 31.779624999995576,
      "v": 127
    },
    {
      "midi": 42,
      "hit": false,
      "t": 22350.611395832962,
      "d": 5.296604166665929,
      "v": 58
    },
    {
      "midi": 98,
      "hit": false,
      "t": 22350.611395832962,
      "d": 10.593208333331859,
      "v": 94
    },
    {
      "midi": 100,
      "hit": false,
      "t": 22350.611395832962,
      "d": 10.593208333331859,
      "v": 78
    },
    {
      "midi": 105,
      "hit": false,
      "t": 22350.611395832962,
      "d": 10.593208333331859,
      "v": 88
    },
    {
      "midi": 38,
      "hit": false,
      "t": 22355.90799999963,
      "d": 5.296604166665929,
      "v": 40
    },
    {
      "midi": 61,
      "hit": false,
      "t": 22355.90799999963,
      "d": 5.296604166665929,
      "v": 42
    },
    {
      "midi": 77,
      "hit": false,
      "t": 22355.90799999963,
      "d": 5.296604166665929,
      "v": 65
    },
    {
      "midi": 82,
      "hit": false,
      "t": 22355.90799999963,
      "d": 5.296604166665929,
      "v": 17
    },
    {
      "midi": 62,
      "hit": false,
      "t": 22355.90799999963,
      "d": 31.779624999995576,
      "v": 108
    },
    {
      "midi": 35,
      "hit": false,
      "t": 22355.90799999963,
      "d": 74.15245833333029,
      "v": 120
    },
    {
      "midi": 78,
      "hit": false,
      "t": 22355.90799999963,
      "d": 381.35549999999057,
      "v": 92
    },
    {
      "midi": 93,
      "hit": false,
      "t": 22355.90799999963,
      "d": 503.17739583331786,
      "v": 99
    },
    {
      "midi": 57,
      "hit": false,
      "t": 22366.50120833296,
      "d": 148.30491666666057,
      "v": 124
    },
    {
      "midi": 69,
      "hit": false,
      "t": 22366.50120833296,
      "d": 148.30491666666057,
      "v": 124
    },
    {
      "midi": 81,
      "hit": false,
      "t": 22382.391020832958,
      "d": 354.8724791666609,
      "v": 127
    },
    {
      "midi": 98,
      "hit": false,
      "t": 22477.72989583296,
      "d": 10.593208333331859,
      "v": 70
    },
    {
      "midi": 100,
      "hit": false,
      "t": 22477.72989583296,
      "d": 10.593208333331859,
      "v": 54
    },
    {
      "midi": 105,
      "hit": false,
      "t": 22477.72989583296,
      "d": 10.593208333331859,
      "v": 64
    },
    {
      "midi": 82,
      "hit": false,
      "t": 22483.026499999625,
      "d": 5.296604166665929,
      "v": 9
    },
    {
      "midi": 62,
      "hit": false,
      "t": 22483.026499999625,
      "d": 31.779624999995576,
      "v": 91
    },
    {
      "midi": 42,
      "hit": false,
      "t": 22488.32310416629,
      "d": 5.296604166665929,
      "v": 37
    },
    {
      "midi": 59,
      "hit": false,
      "t": 22488.32310416629,
      "d": 148.3049166666642,
      "v": 124
    },
    {
      "midi": 71,
      "hit": false,
      "t": 22488.32310416629,
      "d": 148.3049166666642,
      "v": 124
    },
    {
      "midi": 61,
      "hit": false,
      "t": 22493.619708332957,
      "d": 5.296604166665929,
      "v": 40
    },
    {
      "midi": 77,
      "hit": false,
      "t": 22504.21291666629,
      "d": 5.296604166665929,
      "v": 64
    },
    {
      "midi": 42,
      "hit": false,
      "t": 22610.144999999622,
      "d": 5.296604166665929,
      "v": 77
    },
    {
      "midi": 61,
      "hit": false,
      "t": 22610.144999999622,
      "d": 5.296604166665929,
      "v": 124
    },
    {
      "midi": 77,
      "hit": false,
      "t": 22610.144999999622,
      "d": 5.296604166665929,
      "v": 13
    },
    {
      "midi": 82,
      "hit": false,
      "t": 22610.144999999622,
      "d": 5.296604166665929,
      "v": 19
    },
    {
      "midi": 62,
      "hit": false,
      "t": 22610.144999999622,
      "d": 31.779624999999214,
      "v": 114
    },
    {
      "midi": 73,
      "hit": false,
      "t": 22610.144999999622,
      "d": 121.82189583333093,
      "v": 124
    },
    {
      "midi": 74,
      "hit": false,
      "t": 22705.48387499962,
      "d": 148.30491666666057,
      "v": 124
    },
    {
      "midi": 98,
      "hit": false,
      "t": 22731.966895832953,
      "d": 10.593208333331859,
      "v": 97
    },
    {
      "midi": 100,
      "hit": false,
      "t": 22731.966895832953,
      "d": 10.593208333331859,
      "v": 81
    },
    {
      "midi": 105,
      "hit": false,
      "t": 22731.966895832953,
      "d": 10.593208333331859,
      "v": 91
    },
    {
      "midi": 82,
      "hit": false,
      "t": 22737.26349999962,
      "d": 5.296604166665929,
      "v": 46
    },
    {
      "midi": 62,
      "hit": false,
      "t": 22737.26349999962,
      "d": 31.779624999995576,
      "v": 59
    },
    {
      "midi": 42,
      "hit": false,
      "t": 22742.560104166285,
      "d": 5.296604166665929,
      "v": 38
    },
    {
      "midi": 61,
      "hit": false,
      "t": 22747.85670833295,
      "d": 5.296604166665929,
      "v": 19
    },
    {
      "midi": 77,
      "hit": false,
      "t": 22758.449916666283,
      "d": 5.296604166665929,
      "v": 59
    },
    {
      "midi": 64,
      "hit": false,
      "t": 22827.305770832947,
      "d": 105.9320833333295,
      "v": 125
    },
    {
      "midi": 76,
      "hit": false,
      "t": 22827.305770832947,
      "d": 105.9320833333295,
      "v": 125
    },
    {
      "midi": 42,
      "hit": false,
      "t": 22859.085395832946,
      "d": 5.296604166665929,
      "v": 67
    },
    {
      "midi": 40,
      "hit": false,
      "t": 22864.381999999612,
      "d": 5.296604166665929,
      "v": 94
    },
    {
      "midi": 60,
      "hit": false,
      "t": 22864.381999999612,
      "d": 5.296604166665929,
      "v": 43
    },
    {
      "midi": 77,
      "hit": false,
      "t": 22864.381999999612,
      "d": 5.296604166665929,
      "v": 57
    },
    {
      "midi": 82,
      "hit": false,
      "t": 22864.381999999612,
      "d": 5.296604166665929,
      "v": 17
    },
    {
      "midi": 62,
      "hit": false,
      "t": 22864.381999999612,
      "d": 31.779624999999214,
      "v": 118
    },
    {
      "midi": 35,
      "hit": false,
      "t": 22864.381999999612,
      "d": 74.15245833333029,
      "v": 120
    },
    {
      "midi": 71,
      "hit": false,
      "t": 22864.381999999612,
      "d": 280.72002083332336,
      "v": 127
    },
    {
      "midi": 95,
      "hit": false,
      "t": 22864.381999999612,
      "d": 291.3132291666552,
      "v": 96
    },
    {
      "midi": 59,
      "hit": false,
      "t": 22869.678604166278,
      "d": 280.72002083332336,
      "v": 98
    },
    {
      "midi": 83,
      "hit": false,
      "t": 22896.16162499961,
      "d": 264.83020833332193,
      "v": 127
    },
    {
      "midi": 66,
      "hit": false,
      "t": 22901.458229166277,
      "d": 143.008312499991,
      "v": 125
    },
    {
      "midi": 78,
      "hit": false,
      "t": 22901.458229166277,
      "d": 143.008312499991,
      "v": 125
    },
    {
      "midi": 82,
      "hit": false,
      "t": 22991.50049999961,
      "d": 5.296604166665929,
      "v": 9
    },
    {
      "midi": 62,
      "hit": false,
      "t": 22991.50049999961,
      "d": 31.779624999995576,
      "v": 108
    },
    {
      "midi": 42,
      "hit": false,
      "t": 22996.797104166275,
      "d": 5.296604166665929,
      "v": 43
    },
    {
      "midi": 61,
      "hit": false,
      "t": 23002.09370833294,
      "d": 5.296604166665929,
      "v": 13
    },
    {
      "midi": 77,
      "hit": false,
      "t": 23012.686916666273,
      "d": 5.296604166665929,
      "v": 60
    },
    {
      "midi": 67,
      "hit": false,
      "t": 23017.98352083294,
      "d": 121.82189583333093,
      "v": 125
    },
    {
      "midi": 79,
      "hit": false,
      "t": 23017.98352083294,
      "d": 121.82189583333093,
      "v": 125
    },
    {
      "midi": 69,
      "hit": false,
      "t": 23033.873333332936,
      "d": 153.60152083333014,
      "v": 125
    },
    {
      "midi": 81,
      "hit": false,
      "t": 23033.873333332936,
      "d": 153.60152083333014,
      "v": 125
    },
    {
      "midi": 98,
      "hit": false,
      "t": 23113.322395832936,
      "d": 10.593208333331859,
      "v": 105
    },
    {
      "midi": 102,
      "hit": false,
      "t": 23113.322395832936,
      "d": 10.593208333331859,
      "v": 70
    },
    {
      "midi": 105,
      "hit": false,
      "t": 23113.322395832936,
      "d": 10.593208333331859,
      "v": 80
    },
    {
      "midi": 42,
      "hit": false,
      "t": 23118.618999999602,
      "d": 5.296604166665929,
      "v": 69
    },
    {
      "midi": 61,
      "hit": false,
      "t": 23118.618999999602,
      "d": 5.296604166665929,
      "v": 46
    },
    {
      "midi": 77,
      "hit": false,
      "t": 23118.618999999602,
      "d": 5.296604166665929,
      "v": 13
    },
    {
      "midi": 82,
      "hit": false,
      "t": 23118.618999999602,
      "d": 5.296604166665929,
      "v": 19
    },
    {
      "midi": 62,
      "hit": false,
      "t": 23118.618999999602,
      "d": 31.779624999999214,
      "v": 114
    },
    {
      "midi": 83,
      "hit": false,
      "t": 23160.991833332933,
      "d": 79.44906249999985,
      "v": 126
    },
    {
      "midi": 71,
      "hit": false,
      "t": 23160.991833332933,
      "d": 105.9320833333295,
      "v": 126
    },
    {
      "midi": 73,
      "hit": false,
      "t": 23182.1782499996,
      "d": 153.6015208333265,
      "v": 126
    },
    {
      "midi": 85,
      "hit": false,
      "t": 23182.1782499996,
      "d": 153.6015208333265,
      "v": 126
    },
    {
      "midi": 42,
      "hit": false,
      "t": 23245.7374999996,
      "d": 5.296604166665929,
      "v": 69
    },
    {
      "midi": 82,
      "hit": false,
      "t": 23245.7374999996,
      "d": 5.296604166665929,
      "v": 46
    },
    {
      "midi": 86,
      "hit": false,
      "t": 23245.7374999996,
      "d": 15.889812499997788,
      "v": 126
    },
    {
      "midi": 62,
      "hit": false,
      "t": 23245.7374999996,
      "d": 90.04227083332808,
      "v": 127
    },
    {
      "midi": 74,
      "hit": false,
      "t": 23245.7374999996,
      "d": 105.9320833333295,
      "v": 126
    },
    {
      "midi": 26,
      "hit": false,
      "t": 23245.7374999996,
      "d": 111.22868749999543,
      "v": 100
    },
    {
      "midi": 38,
      "hit": false,
      "t": 23245.7374999996,
      "d": 111.22868749999543,
      "v": 89
    },
    {
      "midi": 78,
      "hit": false,
      "t": 23245.7374999996,
      "d": 127.11849999999322,
      "v": 95
    },
    {
      "midi": 61,
      "hit": false,
      "t": 23256.33070833293,
      "d": 5.296604166665929,
      "v": 44
    },
    {
      "midi": 98,
      "hit": false,
      "t": 23256.33070833293,
      "d": 121.82189583332729,
      "v": 104
    },
    {
      "midi": 77,
      "hit": false,
      "t": 23266.923916666263,
      "d": 5.296604166665929,
      "v": 50
    },
    {
      "midi": 86,
      "hit": false,
      "t": 23277.517124999595,
      "d": 74.15245833333393,
      "v": 127
    },
    {
      "midi": 35,
      "hit": false,
      "t": 23372.855999999592,
      "d": 74.15245833333029,
      "v": 120
    },
    {
      "midi": 40,
      "hit": false,
      "t": 23499.97449999959,
      "d": 5.296604166665929,
      "v": 94
    },
    {
      "midi": 74,
      "hit": false,
      "t": 23499.97449999959,
      "d": 79.44906249999622,
      "v": 96
    },
    {
      "midi": 66,
      "hit": false,
      "t": 23499.97449999959,
      "d": 84.74566666666215,
      "v": 96
    },
    {
      "midi": 26,
      "hit": false,
      "t": 23499.97449999959,
      "d": 116.52529166666136,
      "v": 100
    },
    {
      "midi": 38,
      "hit": false,
      "t": 23499.97449999959,
      "d": 116.52529166666136,
      "v": 89
    },
    {
      "midi": 78,
      "hit": false,
      "t": 23499.97449999959,
      "d": 127.11849999999322,
      "v": 95
    },
    {
      "midi": 62,
      "hit": false,
      "t": 23499.97449999959,
      "d": 248.94039583332415,
      "v": 105
    },
    {
      "midi": 86,
      "hit": false,
      "t": 23510.56770833292,
      "d": 74.15245833333029,
      "v": 98
    },
    {
      "midi": 98,
      "hit": false,
      "t": 23510.56770833292,
      "d": 121.82189583332729,
      "v": 91
    },
    {
      "midi": 40,
      "hit": false,
      "t": 23754.21149999958,
      "d": 5.296604166665929,
      "v": 94
    },
    {
      "midi": 74,
      "hit": false,
      "t": 23754.21149999958,
      "d": 42.37283333333107,
      "v": 96
    },
    {
      "midi": 86,
      "hit": false,
      "t": 23754.21149999958,
      "d": 47.669437499997,
      "v": 121
    },
    {
      "midi": 26,
      "hit": false,
      "t": 23754.21149999958,
      "d": 63.55924999999479,
      "v": 100
    },
    {
      "midi": 38,
      "hit": false,
      "t": 23754.21149999958,
      "d": 63.55924999999479,
      "v": 89
    },
    {
      "midi": 66,
      "hit": false,
      "t": 23754.21149999958,
      "d": 68.85585416666072,
      "v": 96
    },
    {
      "midi": 78,
      "hit": false,
      "t": 23754.21149999958,
      "d": 121.82189583332729,
      "v": 95
    },
    {
      "midi": 62,
      "hit": false,
      "t": 23754.21149999958,
      "d": 121.82189583332729,
      "v": 105
    },
    {
      "midi": 98,
      "hit": false,
      "t": 23764.80470833291,
      "d": 111.22868749999543,
      "v": 91
    },
    {
      "midi": 86,
      "hit": false,
      "t": 23876.033395832907,
      "d": 0,
      "v": 127
    },
    {
      "midi": 40,
      "hit": false,
      "t": 23881.329999999572,
      "d": 5.296604166665929,
      "v": 94
    },
    {
      "midi": 38,
      "hit": false,
      "t": 23881.329999999572,
      "d": 52.96604166666657,
      "v": 89
    },
    {
      "midi": 35,
      "hit": false,
      "t": 23881.329999999572,
      "d": 74.15245833333029,
      "v": 120
    },
    {
      "midi": 66,
      "hit": false,
      "t": 23881.329999999572,
      "d": 100.63547916666357,
      "v": 96
    },
    {
      "midi": 74,
      "hit": false,
      "t": 23881.329999999572,
      "d": 100.63547916666357,
      "v": 96
    },
    {
      "midi": 26,
      "hit": false,
      "t": 23881.329999999572,
      "d": 116.52529166666136,
      "v": 100
    },
    {
      "midi": 98,
      "hit": false,
      "t": 23881.329999999572,
      "d": 121.82189583332729,
      "v": 98
    },
    {
      "midi": 62,
      "hit": false,
      "t": 23881.329999999572,
      "d": 121.82189583332729,
      "v": 105
    },
    {
      "midi": 78,
      "hit": false,
      "t": 23881.329999999572,
      "d": 127.11849999999322,
      "v": 99
    },
    {
      "midi": 86,
      "hit": false,
      "t": 23886.62660416624,
      "d": 58.2626458333325,
      "v": 98
    },
    {
      "midi": 40,
      "hit": false,
      "t": 24135.566999999563,
      "d": 5.296604166665929,
      "v": 94
    },
    {
      "midi": 38,
      "hit": false,
      "t": 24135.566999999563,
      "d": 52.96604166666657,
      "v": 89
    },
    {
      "midi": 74,
      "hit": false,
      "t": 24135.566999999563,
      "d": 74.15245833333029,
      "v": 96
    },
    {
      "midi": 66,
      "hit": false,
      "t": 24135.566999999563,
      "d": 90.04227083332808,
      "v": 96
    },
    {
      "midi": 26,
      "hit": false,
      "t": 24135.566999999563,
      "d": 105.93208333332586,
      "v": 100
    },
    {
      "midi": 98,
      "hit": false,
      "t": 24135.566999999563,
      "d": 121.82189583332729,
      "v": 91
    },
    {
      "midi": 62,
      "hit": false,
      "t": 24135.566999999563,
      "d": 121.82189583332729,
      "v": 105
    },
    {
      "midi": 78,
      "hit": false,
      "t": 24135.566999999563,
      "d": 169.4913333333243,
      "v": 95
    },
    {
      "midi": 86,
      "hit": false,
      "t": 24140.86360416623,
      "d": 79.44906249999622,
      "v": 98
    },
    {
      "midi": 35,
      "hit": false,
      "t": 24389.803999999553,
      "d": 74.15245833333029,
      "v": 120
    },
    {
      "midi": 38,
      "hit": false,
      "t": 24389.803999999553,
      "d": 116.525291666665,
      "v": 89
    },
    {
      "midi": 98,
      "hit": false,
      "t": 24389.803999999553,
      "d": 121.82189583333093,
      "v": 101
    },
    {
      "midi": 26,
      "hit": false,
      "t": 24389.803999999553,
      "d": 127.11849999999686,
      "v": 100
    },
    {
      "midi": 66,
      "hit": false,
      "t": 24389.803999999553,
      "d": 127.11849999999686,
      "v": 96
    },
    {
      "midi": 74,
      "hit": false,
      "t": 24389.803999999553,
      "d": 127.11849999999686,
      "v": 96
    },
    {
      "midi": 64,
      "hit": false,
      "t": 24389.803999999553,
      "d": 248.94039583332415,
      "v": 91
    },
    {
      "midi": 78,
      "hit": false,
      "t": 24389.803999999553,
      "d": 254.23699999999008,
      "v": 104
    },
    {
      "midi": 86,
      "hit": false,
      "t": 24395.10060416622,
      "d": 121.82189583333093,
      "v": 98
    },
    {
      "midi": 40,
      "hit": false,
      "t": 24771.15949999954,
      "d": 5.296604166665929,
      "v": 81
    },
    {
      "midi": 40,
      "hit": false,
      "t": 24898.277999999536,
      "d": 5.296604166665929,
      "v": 94
    },
    {
      "midi": 40,
      "hit": false,
      "t": 25152.514999999537,
      "d": 5.296604166665929,
      "v": 29
    },
    {
      "midi": 40,
      "hit": false,
      "t": 25279.633499999538,
      "d": 5.296604166665929,
      "v": 70
    },
    {
      "midi": 42,
      "hit": false,
      "t": 25401.455395832865,
      "d": 5.296604166665929,
      "v": 52
    },
    {
      "midi": 57,
      "hit": false,
      "t": 25406.75199999953,
      "d": 5.296604166665929,
      "v": 75
    },
    {
      "midi": 81,
      "hit": false,
      "t": 25406.75199999953,
      "d": 63.55924999999843,
      "v": 115
    },
    {
      "midi": 69,
      "hit": false,
      "t": 25406.75199999953,
      "d": 63.55924999999843,
      "v": 97
    },
    {
      "midi": 35,
      "hit": false,
      "t": 25406.75199999953,
      "d": 74.15245833333029,
      "v": 120
    },
    {
      "midi": 21,
      "hit": false,
      "t": 25406.75199999953,
      "d": 206.56756249999307,
      "v": 100
    },
    {
      "midi": 33,
      "hit": false,
      "t": 25406.75199999953,
      "d": 206.56756249999307,
      "v": 100
    },
    {
      "midi": 64,
      "hit": false,
      "t": 25417.345208332863,
      "d": 5.296604166665929,
      "v": 79
    },
    {
      "midi": 64,
      "hit": false,
      "t": 25533.870499999528,
      "d": 5.296604166665929,
      "v": 80
    },
    {
      "midi": 81,
      "hit": false,
      "t": 25533.870499999528,
      "d": 116.52529166666136,
      "v": 115
    },
    {
      "midi": 69,
      "hit": false,
      "t": 25533.870499999528,
      "d": 116.52529166666136,
      "v": 97
    },
    {
      "midi": 42,
      "hit": false,
      "t": 25539.167104166194,
      "d": 5.296604166665929,
      "v": 44
    },
    {
      "midi": 57,
      "hit": false,
      "t": 25544.46370833286,
      "d": 5.296604166665929,
      "v": 75
    },
    {
      "midi": 42,
      "hit": false,
      "t": 25660.98899999952,
      "d": 5.296604166665929,
      "v": 101
    },
    {
      "midi": 57,
      "hit": false,
      "t": 25660.98899999952,
      "d": 21.186416666663717,
      "v": 87
    },
    {
      "midi": 93,
      "hit": false,
      "t": 25660.98899999952,
      "d": 111.22868749999543,
      "v": 115
    },
    {
      "midi": 81,
      "hit": false,
      "t": 25660.98899999952,
      "d": 111.22868749999543,
      "v": 97
    },
    {
      "midi": 64,
      "hit": false,
      "t": 25671.582208332853,
      "d": 5.296604166665929,
      "v": 98
    },
    {
      "midi": 64,
      "hit": false,
      "t": 25788.107499999518,
      "d": 5.296604166665929,
      "v": 62
    },
    {
      "midi": 21,
      "hit": false,
      "t": 25788.107499999518,
      "d": 68.85585416666436,
      "v": 100
    },
    {
      "midi": 33,
      "hit": false,
      "t": 25788.107499999518,
      "d": 68.85585416666436,
      "v": 100
    },
    {
      "midi": 81,
      "hit": false,
      "t": 25788.107499999518,
      "d": 116.525291666665,
      "v": 115
    },
    {
      "midi": 69,
      "hit": false,
      "t": 25788.107499999518,
      "d": 116.525291666665,
      "v": 97
    },
    {
      "midi": 42,
      "hit": false,
      "t": 25793.404104166184,
      "d": 5.296604166665929,
      "v": 47
    },
    {
      "midi": 57,
      "hit": false,
      "t": 25798.70070833285,
      "d": 37.076229166665144,
      "v": 83
    },
    {
      "midi": 42,
      "hit": false,
      "t": 25909.92939583285,
      "d": 5.296604166665929,
      "v": 52
    },
    {
      "midi": 40,
      "hit": false,
      "t": 25915.225999999515,
      "d": 5.296604166665929,
      "v": 93
    },
    {
      "midi": 57,
      "hit": false,
      "t": 25915.225999999515,
      "d": 5.296604166665929,
      "v": 75
    },
    {
      "midi": 64,
      "hit": false,
      "t": 25915.225999999515,
      "d": 37.076229166665144,
      "v": 86
    },
    {
      "midi": 35,
      "hit": false,
      "t": 25915.225999999515,
      "d": 74.15245833333029,
      "v": 120
    },
    {
      "midi": 92,
      "hit": false,
      "t": 25915.225999999515,
      "d": 111.22868749999543,
      "v": 115
    },
    {
      "midi": 80,
      "hit": false,
      "t": 25915.225999999515,
      "d": 111.22868749999543,
      "v": 97
    },
    {
      "midi": 21,
      "hit": false,
      "t": 25915.225999999515,
      "d": 270.1268124999915,
      "v": 100
    },
    {
      "midi": 33,
      "hit": false,
      "t": 25915.225999999515,
      "d": 270.1268124999915,
      "v": 100
    },
    {
      "midi": 64,
      "hit": false,
      "t": 26042.34449999951,
      "d": 37.076229166665144,
      "v": 82
    },
    {
      "midi": 81,
      "hit": false,
      "t": 26042.34449999951,
      "d": 100.63547916666357,
      "v": 115
    },
    {
      "midi": 69,
      "hit": false,
      "t": 26042.34449999951,
      "d": 100.63547916666357,
      "v": 97
    },
    {
      "midi": 42,
      "hit": false,
      "t": 26047.641104166178,
      "d": 5.296604166665929,
      "v": 44
    },
    {
      "midi": 57,
      "hit": false,
      "t": 26052.937708332844,
      "d": 5.296604166665929,
      "v": 75
    },
    {
      "midi": 42,
      "hit": false,
      "t": 26169.46299999951,
      "d": 5.296604166665929,
      "v": 101
    },
    {
      "midi": 57,
      "hit": false,
      "t": 26169.46299999951,
      "d": 5.296604166665929,
      "v": 75
    },
    {
      "midi": 91,
      "hit": false,
      "t": 26169.46299999951,
      "d": 116.525291666665,
      "v": 115
    },
    {
      "midi": 79,
      "hit": false,
      "t": 26169.46299999951,
      "d": 116.525291666665,
      "v": 97
    },
    {
      "midi": 26,
      "hit": false,
      "t": 26169.46299999951,
      "d": 143.00831249999464,
      "v": 100
    },
    {
      "midi": 38,
      "hit": false,
      "t": 26169.46299999951,
      "d": 143.00831249999464,
      "v": 100
    },
    {
      "midi": 64,
      "hit": false,
      "t": 26180.05620833284,
      "d": 5.296604166665929,
      "v": 79
    },
    {
      "midi": 28,
      "hit": false,
      "t": 26296.581499999505,
      "d": 90.04227083332808,
      "v": 100
    },
    {
      "midi": 40,
      "hit": false,
      "t": 26296.581499999505,
      "d": 90.04227083332808,
      "v": 100
    },
    {
      "midi": 81,
      "hit": false,
      "t": 26296.581499999505,
      "d": 127.11849999999322,
      "v": 115
    },
    {
      "midi": 69,
      "hit": false,
      "t": 26296.581499999505,
      "d": 127.11849999999322,
      "v": 97
    },
    {
      "midi": 42,
      "hit": false,
      "t": 26301.87810416617,
      "d": 5.296604166665929,
      "v": 47
    },
    {
      "midi": 64,
      "hit": false,
      "t": 26317.76791666617,
      "d": 5.296604166665929,
      "v": 80
    },
    {
      "midi": 57,
      "hit": false,
      "t": 26328.3611249995,
      "d": 5.296604166665929,
      "v": 75
    },
    {
      "midi": 28,
      "hit": false,
      "t": 26407.8101874995,
      "d": 148.30491666666057,
      "v": 100
    },
    {
      "midi": 40,
      "hit": false,
      "t": 26407.8101874995,
      "d": 148.30491666666057,
      "v": 100
    },
    {
      "midi": 42,
      "hit": false,
      "t": 26418.403395832833,
      "d": 5.296604166665929,
      "v": 67
    },
    {
      "midi": 64,
      "hit": false,
      "t": 26423.6999999995,
      "d": 42.37283333333107,
      "v": 84
    },
    {
      "midi": 35,
      "hit": false,
      "t": 26423.6999999995,
      "d": 74.15245833333029,
      "v": 120
    },
    {
      "midi": 90,
      "hit": false,
      "t": 26423.6999999995,
      "d": 111.22868749999543,
      "v": 115
    },
    {
      "midi": 78,
      "hit": false,
      "t": 26423.6999999995,
      "d": 111.22868749999543,
      "v": 97
    },
    {
      "midi": 57,
      "hit": false,
      "t": 26434.29320833283,
      "d": 37.076229166665144,
      "v": 92
    },
    {
      "midi": 31,
      "hit": false,
      "t": 26534.928687499494,
      "d": 148.3049166666642,
      "v": 100
    },
    {
      "midi": 43,
      "hit": false,
      "t": 26534.928687499494,
      "d": 148.3049166666642,
      "v": 100
    },
    {
      "midi": 81,
      "hit": false,
      "t": 26550.818499999496,
      "d": 127.11849999999686,
      "v": 115
    },
    {
      "midi": 69,
      "hit": false,
      "t": 26550.818499999496,
      "d": 127.11849999999686,
      "v": 97
    },
    {
      "midi": 42,
      "hit": false,
      "t": 26556.11510416616,
      "d": 5.296604166665929,
      "v": 46
    },
    {
      "midi": 64,
      "hit": false,
      "t": 26561.411708332827,
      "d": 21.186416666663717,
      "v": 99
    },
    {
      "midi": 57,
      "hit": false,
      "t": 26572.00491666616,
      "d": 15.889812499997788,
      "v": 87
    },
    {
      "midi": 28,
      "hit": false,
      "t": 26662.04718749949,
      "d": 121.82189583333457,
      "v": 100
    },
    {
      "midi": 40,
      "hit": false,
      "t": 26662.04718749949,
      "d": 121.82189583333457,
      "v": 100
    },
    {
      "midi": 42,
      "hit": false,
      "t": 26677.936999999492,
      "d": 5.296604166665929,
      "v": 86
    },
    {
      "midi": 64,
      "hit": false,
      "t": 26677.936999999492,
      "d": 42.37283333333107,
      "v": 84
    },
    {
      "midi": 57,
      "hit": false,
      "t": 26677.936999999492,
      "d": 47.669437499997,
      "v": 90
    },
    {
      "midi": 89,
      "hit": false,
      "t": 26677.936999999492,
      "d": 90.04227083333171,
      "v": 115
    },
    {
      "midi": 77,
      "hit": false,
      "t": 26677.936999999492,
      "d": 90.04227083333171,
      "v": 97
    },
    {
      "midi": 81,
      "hit": false,
      "t": 26805.055499999493,
      "d": 105.9320833333295,
      "v": 115
    },
    {
      "midi": 69,
      "hit": false,
      "t": 26805.055499999493,
      "d": 105.9320833333295,
      "v": 97
    },
    {
      "midi": 42,
      "hit": false,
      "t": 26810.35210416616,
      "d": 5.296604166665929,
      "v": 47
    },
    {
      "midi": 64,
      "hit": false,
      "t": 26815.648708332825,
      "d": 5.296604166665929,
      "v": 94
    },
    {
      "midi": 57,
      "hit": false,
      "t": 26826.241916666157,
      "d": 5.296604166665929,
      "v": 35
    },
    {
      "midi": 42,
      "hit": false,
      "t": 26926.877395832824,
      "d": 5.296604166665929,
      "v": 76
    },
    {
      "midi": 40,
      "hit": false,
      "t": 26932.17399999949,
      "d": 5.296604166665929,
      "v": 93
    },
    {
      "midi": 57,
      "hit": false,
      "t": 26932.17399999949,
      "d": 5.296604166665929,
      "v": 75
    },
    {
      "midi": 35,
      "hit": false,
      "t": 26932.17399999949,
      "d": 74.15245833333029,
      "v": 120
    },
    {
      "midi": 88,
      "hit": false,
      "t": 26932.17399999949,
      "d": 100.63547916666357,
      "v": 115
    },
    {
      "midi": 76,
      "hit": false,
      "t": 26932.17399999949,
      "d": 100.63547916666357,
      "v": 97
    },
    {
      "midi": 31,
      "hit": false,
      "t": 26932.17399999949,
      "d": 248.94039583332778,
      "v": 100
    },
    {
      "midi": 43,
      "hit": false,
      "t": 26932.17399999949,
      "d": 248.94039583332778,
      "v": 100
    },
    {
      "midi": 64,
      "hit": false,
      "t": 26942.76720833282,
      "d": 5.296604166665929,
      "v": 79
    },
    {
      "midi": 76,
      "hit": false,
      "t": 27059.292499999487,
      "d": 10.593208333331859,
      "v": 63
    },
    {
      "midi": 81,
      "hit": false,
      "t": 27059.292499999487,
      "d": 111.22868749999907,
      "v": 115
    },
    {
      "midi": 69,
      "hit": false,
      "t": 27059.292499999487,
      "d": 111.22868749999907,
      "v": 97
    },
    {
      "midi": 42,
      "hit": false,
      "t": 27064.589104166153,
      "d": 5.296604166665929,
      "v": 52
    },
    {
      "midi": 64,
      "hit": false,
      "t": 27069.88570833282,
      "d": 5.296604166665929,
      "v": 75
    },
    {
      "midi": 46,
      "hit": false,
      "t": 27186.410999999483,
      "d": 5.296604166665929,
      "v": 78
    },
    {
      "midi": 57,
      "hit": false,
      "t": 27186.410999999483,
      "d": 21.186416666663717,
      "v": 87
    },
    {
      "midi": 87,
      "hit": false,
      "t": 27186.410999999483,
      "d": 90.04227083333171,
      "v": 115
    },
    {
      "midi": 75,
      "hit": false,
      "t": 27186.410999999483,
      "d": 90.04227083333171,
      "v": 97
    },
    {
      "midi": 31,
      "hit": false,
      "t": 27186.410999999483,
      "d": 169.49133333332793,
      "v": 100
    },
    {
      "midi": 43,
      "hit": false,
      "t": 27186.410999999483,
      "d": 169.49133333332793,
      "v": 100
    },
    {
      "midi": 64,
      "hit": false,
      "t": 27197.004208332815,
      "d": 5.296604166665929,
      "v": 98
    },
    {
      "midi": 64,
      "hit": false,
      "t": 27313.52949999948,
      "d": 5.296604166665929,
      "v": 62
    },
    {
      "midi": 81,
      "hit": false,
      "t": 27313.52949999948,
      "d": 111.22868749999543,
      "v": 115
    },
    {
      "midi": 69,
      "hit": false,
      "t": 27313.52949999948,
      "d": 111.22868749999543,
      "v": 97
    },
    {
      "midi": 33,
      "hit": false,
      "t": 27313.52949999948,
      "d": 121.82189583332729,
      "v": 100
    },
    {
      "midi": 45,
      "hit": false,
      "t": 27313.52949999948,
      "d": 121.82189583332729,
      "v": 100
    },
    {
      "midi": 44,
      "hit": false,
      "t": 27318.826104166146,
      "d": 5.296604166665929,
      "v": 78
    },
    {
      "midi": 57,
      "hit": false,
      "t": 27324.122708332812,
      "d": 37.076229166665144,
      "v": 83
    },
    {
      "midi": 42,
      "hit": false,
      "t": 27435.351395832808,
      "d": 5.296604166665929,
      "v": 52
    },
    {
      "midi": 57,
      "hit": false,
      "t": 27440.647999999474,
      "d": 5.296604166665929,
      "v": 75
    },
    {
      "midi": 35,
      "hit": false,
      "t": 27440.647999999474,
      "d": 74.15245833333029,
      "v": 120
    },
    {
      "midi": 86,
      "hit": false,
      "t": 27440.647999999474,
      "d": 105.9320833333295,
      "v": 115
    },
    {
      "midi": 74,
      "hit": false,
      "t": 27440.647999999474,
      "d": 105.9320833333295,
      "v": 97
    },
    {
      "midi": 21,
      "hit": false,
      "t": 27440.647999999474,
      "d": 185.38114583332936,
      "v": 100
    },
    {
      "midi": 33,
      "hit": false,
      "t": 27440.647999999474,
      "d": 185.38114583332936,
      "v": 100
    },
    {
      "midi": 64,
      "hit": false,
      "t": 27451.241208332805,
      "d": 5.296604166665929,
      "v": 79
    },
    {
      "midi": 64,
      "hit": false,
      "t": 27567.76649999947,
      "d": 5.296604166665929,
      "v": 80
    },
    {
      "midi": 81,
      "hit": false,
      "t": 27567.76649999947,
      "d": 84.74566666666578,
      "v": 115
    },
    {
      "midi": 69,
      "hit": false,
      "t": 27567.76649999947,
      "d": 84.74566666666578,
      "v": 97
    },
    {
      "midi": 42,
      "hit": false,
      "t": 27573.063104166136,
      "d": 5.296604166665929,
      "v": 44
    },
    {
      "midi": 57,
      "hit": false,
      "t": 27578.359708332802,
      "d": 5.296604166665929,
      "v": 75
    },
    {
      "midi": 42,
      "hit": false,
      "t": 27694.88499999947,
      "d": 5.296604166665929,
      "v": 101
    },
    {
      "midi": 57,
      "hit": false,
      "t": 27694.88499999947,
      "d": 21.186416666663717,
      "v": 87
    },
    {
      "midi": 85,
      "hit": false,
      "t": 27694.88499999947,
      "d": 100.63547916666357,
      "v": 115
    },
    {
      "midi": 73,
      "hit": false,
      "t": 27694.88499999947,
      "d": 100.63547916666357,
      "v": 97
    },
    {
      "midi": 64,
      "hit": false,
      "t": 27705.478208332803,
      "d": 5.296604166665929,
      "v": 98
    },
    {
      "midi": 64,
      "hit": false,
      "t": 27822.003499999468,
      "d": 5.296604166665929,
      "v": 62
    },
    {
      "midi": 21,
      "hit": false,
      "t": 27822.003499999468,
      "d": 58.26264583332886,
      "v": 100
    },
    {
      "midi": 33,
      "hit": false,
      "t": 27822.003499999468,
      "d": 58.26264583332886,
      "v": 100
    },
    {
      "midi": 81,
      "hit": false,
      "t": 27822.003499999468,
      "d": 95.338874999994,
      "v": 115
    },
    {
      "midi": 69,
      "hit": false,
      "t": 27822.003499999468,
      "d": 95.338874999994,
      "v": 97
    },
    {
      "midi": 42,
      "hit": false,
      "t": 27827.300104166134,
      "d": 5.296604166665929,
      "v": 47
    },
    {
      "midi": 57,
      "hit": false,
      "t": 27832.5967083328,
      "d": 37.076229166665144,
      "v": 83
    },
    {
      "midi": 42,
      "hit": false,
      "t": 27943.825395832795,
      "d": 5.296604166665929,
      "v": 52
    },
    {
      "midi": 40,
      "hit": false,
      "t": 27949.12199999946,
      "d": 5.296604166665929,
      "v": 93
    },
    {
      "midi": 57,
      "hit": false,
      "t": 27949.12199999946,
      "d": 5.296604166665929,
      "v": 75
    },
    {
      "midi": 64,
      "hit": false,
      "t": 27949.12199999946,
      "d": 37.076229166665144,
      "v": 86
    },
    {
      "midi": 35,
      "hit": false,
      "t": 27949.12199999946,
      "d": 74.15245833333029,
      "v": 120
    },
    {
      "midi": 84,
      "hit": false,
      "t": 27949.12199999946,
      "d": 111.22868749999543,
      "v": 115
    },
    {
      "midi": 72,
      "hit": false,
      "t": 27949.12199999946,
      "d": 111.22868749999543,
      "v": 97
    },
    {
      "midi": 21,
      "hit": false,
      "t": 27949.12199999946,
      "d": 270.1268124999915,
      "v": 100
    },
    {
      "midi": 33,
      "hit": false,
      "t": 27949.12199999946,
      "d": 270.1268124999915,
      "v": 100
    },
    {
      "midi": 76,
      "hit": false,
      "t": 28076.240499999458,
      "d": 42.37283333333107,
      "v": 102
    },
    {
      "midi": 81,
      "hit": false,
      "t": 28076.240499999458,
      "d": 90.04227083333171,
      "v": 115
    },
    {
      "midi": 69,
      "hit": false,
      "t": 28076.240499999458,
      "d": 90.04227083333171,
      "v": 97
    },
    {
      "midi": 42,
      "hit": false,
      "t": 28081.537104166124,
      "d": 5.296604166665929,
      "v": 44
    },
    {
      "midi": 64,
      "hit": false,
      "t": 28086.83370833279,
      "d": 5.296604166665929,
      "v": 75
    },
    {
      "midi": 42,
      "hit": false,
      "t": 28203.358999999455,
      "d": 5.296604166665929,
      "v": 101
    },
    {
      "midi": 57,
      "hit": false,
      "t": 28203.358999999455,
      "d": 5.296604166665929,
      "v": 75
    },
    {
      "midi": 83,
      "hit": false,
      "t": 28203.358999999455,
      "d": 121.82189583333093,
      "v": 115
    },
    {
      "midi": 26,
      "hit": false,
      "t": 28203.358999999455,
      "d": 121.82189583333093,
      "v": 100
    },
    {
      "midi": 38,
      "hit": false,
      "t": 28203.358999999455,
      "d": 121.82189583333093,
      "v": 100
    },
    {
      "midi": 71,
      "hit": false,
      "t": 28203.358999999455,
      "d": 121.82189583333093,
      "v": 97
    },
    {
      "midi": 64,
      "hit": false,
      "t": 28213.952208332787,
      "d": 5.296604166665929,
      "v": 79
    },
    {
      "midi": 81,
      "hit": false,
      "t": 28330.47749999945,
      "d": 84.74566666666215,
      "v": 115
    },
    {
      "midi": 69,
      "hit": false,
      "t": 28330.47749999945,
      "d": 84.74566666666215,
      "v": 97
    },
    {
      "midi": 28,
      "hit": false,
      "t": 28330.47749999945,
      "d": 90.04227083332808,
      "v": 100
    },
    {
      "midi": 40,
      "hit": false,
      "t": 28330.47749999945,
      "d": 90.04227083332808,
      "v": 100
    },
    {
      "midi": 42,
      "hit": false,
      "t": 28335.774104166117,
      "d": 5.296604166665929,
      "v": 47
    },
    {
      "midi": 64,
      "hit": false,
      "t": 28351.663916666115,
      "d": 5.296604166665929,
      "v": 80
    },
    {
      "midi": 57,
      "hit": false,
      "t": 28362.257124999447,
      "d": 5.296604166665929,
      "v": 75
    },
    {
      "midi": 28,
      "hit": false,
      "t": 28441.706187499447,
      "d": 206.56756249998216,
      "v": 100
    },
    {
      "midi": 42,
      "hit": false,
      "t": 28452.29939583278,
      "d": 5.296604166665929,
      "v": 67
    },
    {
      "midi": 57,
      "hit": false,
      "t": 28457.595999999445,
      "d": 5.296604166665929,
      "v": 97
    },
    {
      "midi": 64,
      "hit": false,
      "t": 28457.595999999445,
      "d": 5.296604166665929,
      "v": 86
    },
    {
      "midi": 35,
      "hit": false,
      "t": 28457.595999999445,
      "d": 74.15245833332665,
      "v": 120
    },
    {
      "midi": 69,
      "hit": false,
      "t": 28457.595999999445,
      "d": 84.74566666665851,
      "v": 115
    },
    {
      "midi": 31,
      "hit": false,
      "t": 28568.824687499437,
      "d": 137.71170833332508,
      "v": 100
    },
    {
      "midi": 43,
      "hit": false,
      "t": 28568.824687499437,
      "d": 137.71170833332508,
      "v": 100
    },
    {
      "midi": 40,
      "hit": false,
      "t": 28584.714499999434,
      "d": 5.296604166665929,
      "v": 93
    },
    {
      "midi": 74,
      "hit": false,
      "t": 28584.714499999434,
      "d": 84.74566666666215,
      "v": 115
    },
    {
      "midi": 62,
      "hit": false,
      "t": 28584.714499999434,
      "d": 84.74566666666215,
      "v": 97
    },
    {
      "midi": 42,
      "hit": false,
      "t": 28590.0111041661,
      "d": 5.296604166665929,
      "v": 46
    },
    {
      "midi": 64,
      "hit": false,
      "t": 28595.307708332766,
      "d": 47.669437499997,
      "v": 82
    },
    {
      "midi": 57,
      "hit": false,
      "t": 28605.900916666098,
      "d": 42.37283333333107,
      "v": 86
    },
    {
      "midi": 28,
      "hit": false,
      "t": 28695.94318749943,
      "d": 158.89812499999243,
      "v": 100
    },
    {
      "midi": 40,
      "hit": false,
      "t": 28695.94318749943,
      "d": 158.89812499999243,
      "v": 100
    },
    {
      "midi": 42,
      "hit": false,
      "t": 28711.832999999428,
      "d": 5.296604166665929,
      "v": 86
    },
    {
      "midi": 64,
      "hit": false,
      "t": 28711.832999999428,
      "d": 68.85585416666436,
      "v": 97
    },
    {
      "midi": 57,
      "hit": false,
      "t": 28711.832999999428,
      "d": 74.15245833333029,
      "v": 89
    },
    {
      "midi": 76,
      "hit": false,
      "t": 28711.832999999428,
      "d": 84.74566666666215,
      "v": 115
    },
    {
      "midi": 81,
      "hit": false,
      "t": 28838.951499999424,
      "d": 84.74566666666578,
      "v": 115
    },
    {
      "midi": 69,
      "hit": false,
      "t": 28838.951499999424,
      "d": 84.74566666666578,
      "v": 97
    },
    {
      "midi": 42,
      "hit": false,
      "t": 28844.24810416609,
      "d": 5.296604166665929,
      "v": 47
    },
    {
      "midi": 42,
      "hit": false,
      "t": 28960.773395832755,
      "d": 5.296604166665929,
      "v": 76
    },
    {
      "midi": 40,
      "hit": false,
      "t": 28966.06999999942,
      "d": 5.296604166665929,
      "v": 93
    },
    {
      "midi": 57,
      "hit": false,
      "t": 28966.06999999942,
      "d": 5.296604166665929,
      "v": 75
    },
    {
      "midi": 35,
      "hit": false,
      "t": 28966.06999999942,
      "d": 74.15245833333029,
      "v": 120
    },
    {
      "midi": 86,
      "hit": false,
      "t": 28966.06999999942,
      "d": 84.74566666666215,
      "v": 115
    },
    {
      "midi": 74,
      "hit": false,
      "t": 28966.06999999942,
      "d": 84.74566666666215,
      "v": 97
    },
    {
      "midi": 31,
      "hit": false,
      "t": 28966.06999999942,
      "d": 169.49133333332793,
      "v": 100
    },
    {
      "midi": 43,
      "hit": false,
      "t": 28966.06999999942,
      "d": 169.49133333332793,
      "v": 100
    },
    {
      "midi": 64,
      "hit": false,
      "t": 28976.663208332753,
      "d": 5.296604166665929,
      "v": 79
    },
    {
      "midi": 40,
      "hit": false,
      "t": 29093.188499999418,
      "d": 5.296604166665929,
      "v": 93
    },
    {
      "midi": 64,
      "hit": false,
      "t": 29093.188499999418,
      "d": 5.296604166665929,
      "v": 80
    },
    {
      "midi": 76,
      "hit": false,
      "t": 29093.188499999418,
      "d": 90.04227083333171,
      "v": 109
    },
    {
      "midi": 88,
      "hit": false,
      "t": 29093.188499999418,
      "d": 95.33887499999764,
      "v": 127
    },
    {
      "midi": 33,
      "hit": false,
      "t": 29093.188499999418,
      "d": 121.82189583333093,
      "v": 100
    },
    {
      "midi": 45,
      "hit": false,
      "t": 29093.188499999418,
      "d": 121.82189583333093,
      "v": 100
    },
    {
      "midi": 42,
      "hit": false,
      "t": 29098.485104166084,
      "d": 5.296604166665929,
      "v": 52
    },
    {
      "midi": 57,
      "hit": false,
      "t": 29103.78170833275,
      "d": 5.296604166665929,
      "v": 75
    },
    {
      "midi": 46,
      "hit": false,
      "t": 29220.306999999415,
      "d": 5.296604166665929,
      "v": 78
    },
    {
      "midi": 57,
      "hit": false,
      "t": 29220.306999999415,
      "d": 21.186416666663717,
      "v": 87
    },
    {
      "midi": 64,
      "hit": false,
      "t": 29230.900208332747,
      "d": 5.296604166665929,
      "v": 98
    },
    {
      "midi": 64,
      "hit": false,
      "t": 29347.425499999412,
      "d": 5.296604166665929,
      "v": 62
    },
    {
      "midi": 44,
      "hit": false,
      "t": 29352.722104166078,
      "d": 5.296604166665929,
      "v": 78
    },
    {
      "midi": 57,
      "hit": false,
      "t": 29358.018708332744,
      "d": 37.076229166665144,
      "v": 83
    },
    {
      "midi": 42,
      "hit": false,
      "t": 29469.247395832743,
      "d": 5.296604166665929,
      "v": 52
    },
    {
      "midi": 57,
      "hit": false,
      "t": 29474.54399999941,
      "d": 5.296604166665929,
      "v": 127
    },
    {
      "midi": 52,
      "hit": false,
      "t": 29474.54399999941,
      "d": 5.296604166665929,
      "v": 81
    },
    {
      "midi": 35,
      "hit": false,
      "t": 29474.54399999941,
      "d": 74.15245833333029,
      "v": 120
    },
    {
      "midi": 28,
      "hit": false,
      "t": 29474.54399999941,
      "d": 90.04227083333171,
      "v": 77
    },
    {
      "midi": 40,
      "hit": false,
      "t": 29474.54399999941,
      "d": 190.67774999999165,
      "v": 100
    },
    {
      "midi": 67,
      "hit": false,
      "t": 29474.54399999941,
      "d": 243.64379166665822,
      "v": 127
    },
    {
      "midi": 59,
      "hit": false,
      "t": 29485.13720833274,
      "d": 5.296604166665929,
      "v": 85
    },
    {
      "midi": 66,
      "hit": false,
      "t": 29601.662499999406,
      "d": 1896.1842916666064,
      "v": 88
    },
    {
      "midi": 42,
      "hit": false,
      "t": 29606.95910416607,
      "d": 5.296604166665929,
      "v": 44
    },
    {
      "midi": 59,
      "hit": false,
      "t": 29612.255708332737,
      "d": 5.296604166665929,
      "v": 86
    },
    {
      "midi": 52,
      "hit": false,
      "t": 29622.84891666607,
      "d": 5.296604166665929,
      "v": 81
    },
    {
      "midi": 98,
      "hit": false,
      "t": 29723.484395832733,
      "d": 10.593208333331859,
      "v": 65
    },
    {
      "midi": 103,
      "hit": false,
      "t": 29723.484395832733,
      "d": 10.593208333331859,
      "v": 76
    },
    {
      "midi": 42,
      "hit": false,
      "t": 29728.7809999994,
      "d": 5.296604166665929,
      "v": 101
    },
    {
      "midi": 52,
      "hit": false,
      "t": 29728.7809999994,
      "d": 68.85585416666436,
      "v": 64
    },
    {
      "midi": 55,
      "hit": false,
      "t": 29728.7809999994,
      "d": 68.85585416666436,
      "v": 83
    },
    {
      "midi": 59,
      "hit": false,
      "t": 29728.7809999994,
      "d": 111.22868749999543,
      "v": 93
    },
    {
      "midi": 67,
      "hit": false,
      "t": 29728.7809999994,
      "d": 1769.0657916666132,
      "v": 92
    },
    {
      "midi": 64,
      "hit": false,
      "t": 29739.37420833273,
      "d": 90.04227083333171,
      "v": 104
    },
    {
      "midi": 28,
      "hit": false,
      "t": 29855.899499999396,
      "d": 47.669437499997,
      "v": 100
    },
    {
      "midi": 40,
      "hit": false,
      "t": 29855.899499999396,
      "d": 47.669437499997,
      "v": 63
    },
    {
      "midi": 42,
      "hit": false,
      "t": 29861.19610416606,
      "d": 5.296604166665929,
      "v": 47
    },
    {
      "midi": 59,
      "hit": false,
      "t": 29866.492708332727,
      "d": 47.669437499997,
      "v": 94
    },
    {
      "midi": 52,
      "hit": false,
      "t": 29877.08591666606,
      "d": 37.076229166665144,
      "v": 89
    },
    {
      "midi": 28,
      "hit": false,
      "t": 29967.12818749939,
      "d": 137.71170833333235,
      "v": 100
    },
    {
      "midi": 42,
      "hit": false,
      "t": 29977.721395832723,
      "d": 5.296604166665929,
      "v": 52
    },
    {
      "midi": 40,
      "hit": false,
      "t": 29983.01799999939,
      "d": 5.296604166665929,
      "v": 93
    },
    {
      "midi": 59,
      "hit": false,
      "t": 29983.01799999939,
      "d": 5.296604166665929,
      "v": 82
    },
    {
      "midi": 35,
      "hit": false,
      "t": 29983.01799999939,
      "d": 74.15245833333393,
      "v": 120
    },
    {
      "midi": 43,
      "hit": false,
      "t": 29983.01799999939,
      "d": 201.27095833333078,
      "v": 75
    },
    {
      "midi": 74,
      "hit": false,
      "t": 29983.01799999939,
      "d": 503.1773958333215,
      "v": 106
    },
    {
      "midi": 42,
      "hit": false,
      "t": 30115.433104166055,
      "d": 5.296604166665929,
      "v": 44
    },
    {
      "midi": 59,
      "hit": false,
      "t": 30120.72970833272,
      "d": 5.296604166665929,
      "v": 78
    },
    {
      "midi": 26,
      "hit": false,
      "t": 30216.06858333272,
      "d": 121.82189583332729,
      "v": 100
    },
    {
      "midi": 38,
      "hit": false,
      "t": 30216.06858333272,
      "d": 121.82189583332729,
      "v": 100
    },
    {
      "midi": 93,
      "hit": false,
      "t": 30231.95839583272,
      "d": 10.593208333331859,
      "v": 56
    },
    {
      "midi": 98,
      "hit": false,
      "t": 30231.95839583272,
      "d": 10.593208333331859,
      "v": 67
    },
    {
      "midi": 42,
      "hit": false,
      "t": 30237.254999999386,
      "d": 5.296604166665929,
      "v": 101
    },
    {
      "midi": 50,
      "hit": false,
      "t": 30237.254999999386,
      "d": 5.296604166665929,
      "v": 81
    },
    {
      "midi": 57,
      "hit": false,
      "t": 30247.848208332718,
      "d": 5.296604166665929,
      "v": 85
    },
    {
      "midi": 62,
      "hit": false,
      "t": 30258.44141666605,
      "d": 5.296604166665929,
      "v": 96
    },
    {
      "midi": 40,
      "hit": false,
      "t": 30343.187083332712,
      "d": 153.60152083333014,
      "v": 100
    },
    {
      "midi": 95,
      "hit": false,
      "t": 30359.076895832713,
      "d": 10.593208333331859,
      "v": 52
    },
    {
      "midi": 100,
      "hit": false,
      "t": 30359.076895832713,
      "d": 10.593208333331859,
      "v": 63
    },
    {
      "midi": 64,
      "hit": false,
      "t": 30364.37349999938,
      "d": 5.296604166665929,
      "v": 102
    },
    {
      "midi": 52,
      "hit": false,
      "t": 30364.37349999938,
      "d": 58.26264583332886,
      "v": 60
    },
    {
      "midi": 42,
      "hit": false,
      "t": 30369.670104166045,
      "d": 5.296604166665929,
      "v": 47
    },
    {
      "midi": 57,
      "hit": false,
      "t": 30374.96670833271,
      "d": 5.296604166665929,
      "v": 86
    },
    {
      "midi": 50,
      "hit": false,
      "t": 30385.559916666043,
      "d": 5.296604166665929,
      "v": 81
    },
    {
      "midi": 31,
      "hit": false,
      "t": 30470.30558333271,
      "d": 116.525291666665,
      "v": 100
    },
    {
      "midi": 43,
      "hit": false,
      "t": 30470.30558333271,
      "d": 116.525291666665,
      "v": 100
    },
    {
      "midi": 42,
      "hit": false,
      "t": 30486.19539583271,
      "d": 5.296604166665929,
      "v": 67
    },
    {
      "midi": 93,
      "hit": false,
      "t": 30486.19539583271,
      "d": 10.593208333331859,
      "v": 56
    },
    {
      "midi": 98,
      "hit": false,
      "t": 30486.19539583271,
      "d": 10.593208333331859,
      "v": 67
    },
    {
      "midi": 28,
      "hit": false,
      "t": 30491.491999999376,
      "d": 5.296604166665929,
      "v": 63
    },
    {
      "midi": 35,
      "hit": false,
      "t": 30491.491999999376,
      "d": 74.15245833333029,
      "v": 120
    },
    {
      "midi": 57,
      "hit": false,
      "t": 30491.491999999376,
      "d": 90.04227083333171,
      "v": 93
    },
    {
      "midi": 73,
      "hit": false,
      "t": 30491.491999999376,
      "d": 503.17739583331786,
      "v": 92
    },
    {
      "midi": 62,
      "hit": false,
      "t": 30502.085208332708,
      "d": 58.2626458333325,
      "v": 104
    },
    {
      "midi": 31,
      "hit": false,
      "t": 30597.424083332706,
      "d": 148.3049166666642,
      "v": 100
    },
    {
      "midi": 43,
      "hit": false,
      "t": 30597.424083332706,
      "d": 148.3049166666642,
      "v": 100
    },
    {
      "midi": 93,
      "hit": false,
      "t": 30613.313895832707,
      "d": 10.593208333331859,
      "v": 32
    },
    {
      "midi": 98,
      "hit": false,
      "t": 30613.313895832707,
      "d": 10.593208333331859,
      "v": 43
    },
    {
      "midi": 42,
      "hit": false,
      "t": 30623.90710416604,
      "d": 5.296604166665929,
      "v": 46
    },
    {
      "midi": 57,
      "hit": false,
      "t": 30629.203708332705,
      "d": 5.296604166665929,
      "v": 124
    },
    {
      "midi": 50,
      "hit": false,
      "t": 30639.796916666037,
      "d": 5.296604166665929,
      "v": 89
    },
    {
      "midi": 28,
      "hit": false,
      "t": 30729.83918749937,
      "d": 169.49133333332793,
      "v": 100
    },
    {
      "midi": 40,
      "hit": false,
      "t": 30729.83918749937,
      "d": 169.49133333332793,
      "v": 100
    },
    {
      "midi": 42,
      "hit": false,
      "t": 30745.72899999937,
      "d": 5.296604166665929,
      "v": 86
    },
    {
      "midi": 50,
      "hit": false,
      "t": 30745.72899999937,
      "d": 5.296604166665929,
      "v": 62
    },
    {
      "midi": 57,
      "hit": false,
      "t": 30756.322208332702,
      "d": 5.296604166665929,
      "v": 114
    },
    {
      "midi": 93,
      "hit": false,
      "t": 30867.5508958327,
      "d": 26.483020833329647,
      "v": 52
    },
    {
      "midi": 98,
      "hit": false,
      "t": 30867.5508958327,
      "d": 26.483020833329647,
      "v": 63
    },
    {
      "midi": 52,
      "hit": false,
      "t": 30872.847499999367,
      "d": 90.04227083332808,
      "v": 58
    },
    {
      "midi": 42,
      "hit": false,
      "t": 30878.144104166033,
      "d": 5.296604166665929,
      "v": 47
    },
    {
      "midi": 62,
      "hit": false,
      "t": 30883.4407083327,
      "d": 349.575874999995,
      "v": 106
    },
    {
      "midi": 57,
      "hit": false,
      "t": 30894.03391666603,
      "d": 344.27927083332906,
      "v": 71
    },
    {
      "midi": 31,
      "hit": false,
      "t": 30989.37279166603,
      "d": 376.05889583332464,
      "v": 100
    },
    {
      "midi": 43,
      "hit": false,
      "t": 30989.37279166603,
      "d": 376.05889583332464,
      "v": 100
    },
    {
      "midi": 42,
      "hit": false,
      "t": 30994.669395832694,
      "d": 5.296604166665929,
      "v": 76
    },
    {
      "midi": 40,
      "hit": false,
      "t": 30999.96599999936,
      "d": 5.296604166665929,
      "v": 93
    },
    {
      "midi": 35,
      "hit": false,
      "t": 30999.96599999936,
      "d": 74.15245833333393,
      "v": 120
    },
    {
      "midi": 69,
      "hit": false,
      "t": 30999.96599999936,
      "d": 503.17739583331786,
      "v": 89
    },
    {
      "midi": 28,
      "hit": false,
      "t": 31127.08449999936,
      "d": 90.04227083333171,
      "v": 41
    },
    {
      "midi": 42,
      "hit": false,
      "t": 31132.381104166026,
      "d": 5.296604166665929,
      "v": 52
    },
    {
      "midi": 95,
      "hit": false,
      "t": 31248.90639583269,
      "d": 10.593208333331859,
      "v": 65
    },
    {
      "midi": 100,
      "hit": false,
      "t": 31248.90639583269,
      "d": 10.593208333331859,
      "v": 76
    },
    {
      "midi": 46,
      "hit": false,
      "t": 31254.202999999357,
      "d": 5.296604166665929,
      "v": 78
    },
    {
      "midi": 52,
      "hit": false,
      "t": 31254.202999999357,
      "d": 5.296604166665929,
      "v": 81
    },
    {
      "midi": 55,
      "hit": false,
      "t": 31254.202999999357,
      "d": 90.04227083332808,
      "v": 77
    },
    {
      "midi": 59,
      "hit": false,
      "t": 31264.79620833269,
      "d": 5.296604166665929,
      "v": 85
    },
    {
      "midi": 64,
      "hit": false,
      "t": 31275.38941666602,
      "d": 5.296604166665929,
      "v": 96
    },
    {
      "midi": 33,
      "hit": false,
      "t": 31370.72829166602,
      "d": 100.63547916665993,
      "v": 100
    },
    {
      "midi": 45,
      "hit": false,
      "t": 31370.72829166602,
      "d": 100.63547916665993,
      "v": 100
    },
    {
      "midi": 57,
      "hit": false,
      "t": 31381.32149999935,
      "d": 58.26264583332886,
      "v": 60
    },
    {
      "midi": 44,
      "hit": false,
      "t": 31386.618104166017,
      "d": 5.296604166665929,
      "v": 78
    },
    {
      "midi": 50,
      "hit": false,
      "t": 31402.507916666014,
      "d": 5.296604166665929,
      "v": 81
    },
    {
      "midi": 42,
      "hit": false,
      "t": 31503.143395832678,
      "d": 5.296604166665929,
      "v": 52
    },
    {
      "midi": 55,
      "hit": false,
      "t": 31508.439999999344,
      "d": 5.296604166665929,
      "v": 82
    },
    {
      "midi": 35,
      "hit": false,
      "t": 31508.439999999344,
      "d": 74.15245833333029,
      "v": 120
    },
    {
      "midi": 31,
      "hit": false,
      "t": 31508.439999999344,
      "d": 90.04227083333171,
      "v": 77
    },
    {
      "midi": 26,
      "hit": false,
      "t": 31508.439999999344,
      "d": 190.67774999999529,
      "v": 100
    },
    {
      "midi": 38,
      "hit": false,
      "t": 31508.439999999344,
      "d": 190.67774999999529,
      "v": 100
    },
    {
      "midi": 74,
      "hit": false,
      "t": 31508.439999999344,
      "d": 370.7622916666587,
      "v": 115
    },
    {
      "midi": 54,
      "hit": false,
      "t": 31508.439999999344,
      "d": 2012.7095833332896,
      "v": 68
    },
    {
      "midi": 59,
      "hit": false,
      "t": 31519.033208332676,
      "d": 5.296604166665929,
      "v": 86
    },
    {
      "midi": 59,
      "hit": false,
      "t": 31635.55849999934,
      "d": 5.296604166665929,
      "v": 87
    },
    {
      "midi": 66,
      "hit": false,
      "t": 31635.55849999934,
      "d": 1896.1842916666246,
      "v": 72
    },
    {
      "midi": 42,
      "hit": false,
      "t": 31640.855104166007,
      "d": 5.296604166665929,
      "v": 44
    },
    {
      "midi": 55,
      "hit": false,
      "t": 31646.151708332673,
      "d": 5.296604166665929,
      "v": 82
    },
    {
      "midi": 98,
      "hit": false,
      "t": 31757.38039583267,
      "d": 10.593208333331859,
      "v": 65
    },
    {
      "midi": 103,
      "hit": false,
      "t": 31757.38039583267,
      "d": 10.593208333331859,
      "v": 76
    },
    {
      "midi": 42,
      "hit": false,
      "t": 31762.676999999338,
      "d": 5.296604166665929,
      "v": 101
    },
    {
      "midi": 55,
      "hit": false,
      "t": 31762.676999999338,
      "d": 21.186416666663717,
      "v": 94
    },
    {
      "midi": 47,
      "hit": false,
      "t": 31762.676999999338,
      "d": 68.85585416666436,
      "v": 64
    },
    {
      "midi": 50,
      "hit": false,
      "t": 31762.676999999338,
      "d": 68.85585416666436,
      "v": 83
    },
    {
      "midi": 69,
      "hit": false,
      "t": 31762.676999999338,
      "d": 1769.0657916666278,
      "v": 94
    },
    {
      "midi": 59,
      "hit": false,
      "t": 31773.27020833267,
      "d": 5.296604166665929,
      "v": 105
    },
    {
      "midi": 26,
      "hit": false,
      "t": 31889.795499999334,
      "d": 47.669437499997,
      "v": 100
    },
    {
      "midi": 38,
      "hit": false,
      "t": 31889.795499999334,
      "d": 47.669437499997,
      "v": 100
    },
    {
      "midi": 59,
      "hit": false,
      "t": 31889.795499999334,
      "d": 47.669437499997,
      "v": 95
    },
    {
      "midi": 31,
      "hit": false,
      "t": 31889.795499999334,
      "d": 90.04227083333171,
      "v": 63
    },
    {
      "midi": 42,
      "hit": false,
      "t": 31895.092104166,
      "d": 5.296604166665929,
      "v": 47
    },
    {
      "midi": 55,
      "hit": false,
      "t": 31900.388708332666,
      "d": 37.076229166665144,
      "v": 90
    },
    {
      "midi": 26,
      "hit": false,
      "t": 32001.024187499333,
      "d": 137.71170833333235,
      "v": 100
    },
    {
      "midi": 42,
      "hit": false,
      "t": 32011.617395832665,
      "d": 5.296604166665929,
      "v": 52
    },
    {
      "midi": 40,
      "hit": false,
      "t": 32016.91399999933,
      "d": 5.296604166665929,
      "v": 93
    },
    {
      "midi": 59,
      "hit": false,
      "t": 32016.91399999933,
      "d": 5.296604166665929,
      "v": 83
    },
    {
      "midi": 35,
      "hit": false,
      "t": 32016.91399999933,
      "d": 74.15245833333393,
      "v": 120
    },
    {
      "midi": 38,
      "hit": false,
      "t": 32016.91399999933,
      "d": 121.82189583333457,
      "v": 63
    },
    {
      "midi": 59,
      "hit": false,
      "t": 32144.03249999933,
      "d": 5.296604166665929,
      "v": 79
    },
    {
      "midi": 42,
      "hit": false,
      "t": 32149.329104165998,
      "d": 5.296604166665929,
      "v": 44
    },
    {
      "midi": 26,
      "hit": false,
      "t": 32249.96458333266,
      "d": 121.82189583332729,
      "v": 100
    },
    {
      "midi": 38,
      "hit": false,
      "t": 32249.96458333266,
      "d": 121.82189583332729,
      "v": 100
    },
    {
      "midi": 93,
      "hit": false,
      "t": 32265.854395832663,
      "d": 10.593208333331859,
      "v": 56
    },
    {
      "midi": 98,
      "hit": false,
      "t": 32265.854395832663,
      "d": 10.593208333331859,
      "v": 67
    },
    {
      "midi": 42,
      "hit": false,
      "t": 32271.15099999933,
      "d": 5.296604166665929,
      "v": 101
    },
    {
      "midi": 55,
      "hit": false,
      "t": 32271.15099999933,
      "d": 5.296604166665929,
      "v": 82
    },
    {
      "midi": 50,
      "hit": false,
      "t": 32271.15099999933,
      "d": 90.04227083332808,
      "v": 77
    },
    {
      "midi": 62,
      "hit": false,
      "t": 32281.74420833266,
      "d": 5.296604166665929,
      "v": 86
    },
    {
      "midi": 67,
      "hit": false,
      "t": 32292.337416665992,
      "d": 5.296604166665929,
      "v": 111
    },
    {
      "midi": 28,
      "hit": false,
      "t": 32377.083083332654,
      "d": 158.89812499999607,
      "v": 100
    },
    {
      "midi": 40,
      "hit": false,
      "t": 32377.083083332654,
      "d": 158.89812499999607,
      "v": 100
    },
    {
      "midi": 95,
      "hit": false,
      "t": 32392.972895832656,
      "d": 10.593208333331859,
      "v": 52
    },
    {
      "midi": 100,
      "hit": false,
      "t": 32392.972895832656,
      "d": 10.593208333331859,
      "v": 63
    },
    {
      "midi": 52,
      "hit": false,
      "t": 32398.269499999322,
      "d": 58.26264583332886,
      "v": 60
    },
    {
      "midi": 42,
      "hit": false,
      "t": 32403.566104165988,
      "d": 5.296604166665929,
      "v": 47
    },
    {
      "midi": 67,
      "hit": false,
      "t": 32408.862708332654,
      "d": 5.296604166665929,
      "v": 117
    },
    {
      "midi": 62,
      "hit": false,
      "t": 32419.455916665986,
      "d": 5.296604166665929,
      "v": 87
    },
    {
      "midi": 55,
      "hit": false,
      "t": 32430.049124999317,
      "d": 5.296604166665929,
      "v": 82
    },
    {
      "midi": 43,
      "hit": false,
      "t": 32504.20158333265,
      "d": 116.52529166666136,
      "v": 100
    },
    {
      "midi": 42,
      "hit": false,
      "t": 32520.091395832653,
      "d": 5.296604166665929,
      "v": 46
    },
    {
      "midi": 93,
      "hit": false,
      "t": 32520.091395832653,
      "d": 10.593208333331859,
      "v": 56
    },
    {
      "midi": 98,
      "hit": false,
      "t": 32520.091395832653,
      "d": 10.593208333331859,
      "v": 67
    },
    {
      "midi": 35,
      "hit": false,
      "t": 32525.38799999932,
      "d": 74.15245833333029,
      "v": 120
    },
    {
      "midi": 31,
      "hit": false,
      "t": 32525.38799999932,
      "d": 90.04227083332808,
      "v": 63
    },
    {
      "midi": 73,
      "hit": false,
      "t": 32525.38799999932,
      "d": 376.058895833321,
      "v": 107
    },
    {
      "midi": 62,
      "hit": false,
      "t": 32535.98120833265,
      "d": 5.296604166665929,
      "v": 86
    },
    {
      "midi": 42,
      "hit": false,
      "t": 32610.13366666598,
      "d": 5.296604166665929,
      "v": 62
    },
    {
      "midi": 31,
      "hit": false,
      "t": 32631.320083332645,
      "d": 148.3049166666642,
      "v": 100
    },
    {
      "midi": 43,
      "hit": false,
      "t": 32631.320083332645,
      "d": 148.3049166666642,
      "v": 100
    },
    {
      "midi": 93,
      "hit": false,
      "t": 32647.209895832646,
      "d": 10.593208333331859,
      "v": 32
    },
    {
      "midi": 98,
      "hit": false,
      "t": 32647.209895832646,
      "d": 10.593208333331859,
      "v": 43
    },
    {
      "midi": 55,
      "hit": false,
      "t": 32652.506499999312,
      "d": 90.04227083333171,
      "v": 77
    },
    {
      "midi": 67,
      "hit": false,
      "t": 32663.099708332644,
      "d": 5.296604166665929,
      "v": 125
    },
    {
      "midi": 62,
      "hit": false,
      "t": 32673.692916665976,
      "d": 5.296604166665929,
      "v": 90
    },
    {
      "midi": 42,
      "hit": false,
      "t": 32694.879333332643,
      "d": 5.296604166665929,
      "v": 77
    },
    {
      "midi": 28,
      "hit": false,
      "t": 32763.73518749931,
      "d": 169.4913333333243,
      "v": 100
    },
    {
      "midi": 40,
      "hit": false,
      "t": 32763.73518749931,
      "d": 169.4913333333243,
      "v": 100
    },
    {
      "midi": 42,
      "hit": false,
      "t": 32779.62499999931,
      "d": 5.296604166665929,
      "v": 86
    },
    {
      "midi": 62,
      "hit": false,
      "t": 32779.62499999931,
      "d": 5.296604166665929,
      "v": 63
    },
    {
      "midi": 67,
      "hit": false,
      "t": 32779.62499999931,
      "d": 5.296604166665929,
      "v": 115
    },
    {
      "midi": 93,
      "hit": false,
      "t": 32901.44689583264,
      "d": 26.483020833329647,
      "v": 52
    },
    {
      "midi": 98,
      "hit": false,
      "t": 32901.44689583264,
      "d": 26.483020833329647,
      "v": 63
    },
    {
      "midi": 52,
      "hit": false,
      "t": 32906.743499999306,
      "d": 90.04227083332808,
      "v": 50
    },
    {
      "midi": 74,
      "hit": false,
      "t": 32906.743499999306,
      "d": 376.05889583332464,
      "v": 105
    },
    {
      "midi": 42,
      "hit": false,
      "t": 32912.04010416597,
      "d": 5.296604166665929,
      "v": 47
    },
    {
      "midi": 67,
      "hit": false,
      "t": 32917.33670833264,
      "d": 5.296604166665929,
      "v": 103
    },
    {
      "midi": 62,
      "hit": false,
      "t": 32927.92991666597,
      "d": 5.296604166665929,
      "v": 87
    },
    {
      "midi": 55,
      "hit": false,
      "t": 32938.5231249993,
      "d": 5.296604166665929,
      "v": 82
    },
    {
      "midi": 31,
      "hit": false,
      "t": 33023.26879166597,
      "d": 121.82189583332365,
      "v": 100
    },
    {
      "midi": 43,
      "hit": false,
      "t": 33023.26879166597,
      "d": 121.82189583332365,
      "v": 100
    },
    {
      "midi": 42,
      "hit": false,
      "t": 33028.56539583264,
      "d": 5.296604166665929,
      "v": 76
    },
    {
      "midi": 40,
      "hit": false,
      "t": 33033.8619999993,
      "d": 5.296604166665929,
      "v": 93
    },
    {
      "midi": 35,
      "hit": false,
      "t": 33033.8619999993,
      "d": 74.15245833333029,
      "v": 120
    },
    {
      "midi": 55,
      "hit": false,
      "t": 33033.8619999993,
      "d": 90.04227083332808,
      "v": 69
    },
    {
      "midi": 62,
      "hit": false,
      "t": 33033.8619999993,
      "d": 127.11849999998958,
      "v": 115
    },
    {
      "midi": 31,
      "hit": false,
      "t": 33150.38729166596,
      "d": 169.49133333333884,
      "v": 100
    },
    {
      "midi": 43,
      "hit": false,
      "t": 33160.98049999929,
      "d": 90.04227083333535,
      "v": 41
    },
    {
      "midi": 64,
      "hit": false,
      "t": 33160.98049999929,
      "d": 127.11850000000413,
      "v": 96
    },
    {
      "midi": 42,
      "hit": false,
      "t": 33166.27710416596,
      "d": 5.296604166665929,
      "v": 52
    },
    {
      "midi": 33,
      "hit": false,
      "t": 33277.505791665964,
      "d": 100.63547916666721,
      "v": 100
    },
    {
      "midi": 45,
      "hit": false,
      "t": 33277.505791665964,
      "d": 100.63547916666721,
      "v": 100
    },
    {
      "midi": 95,
      "hit": false,
      "t": 33282.80239583263,
      "d": 10.593208333331859,
      "v": 65
    },
    {
      "midi": 100,
      "hit": false,
      "t": 33282.80239583263,
      "d": 10.593208333331859,
      "v": 76
    },
    {
      "midi": 46,
      "hit": false,
      "t": 33288.098999999296,
      "d": 5.296604166665929,
      "v": 78
    },
    {
      "midi": 62,
      "hit": false,
      "t": 33288.098999999296,
      "d": 5.296604166665929,
      "v": 63
    },
    {
      "midi": 55,
      "hit": false,
      "t": 33288.098999999296,
      "d": 90.04227083333535,
      "v": 77
    },
    {
      "midi": 44,
      "hit": false,
      "t": 33420.514104165966,
      "d": 5.296604166665929,
      "v": 78
    },
    {
      "midi": 57,
      "hit": false,
      "t": 33436.403916665964,
      "d": 5.296604166665929,
      "v": 101
    },
    {
      "midi": 42,
      "hit": false,
      "t": 33537.03939583263,
      "d": 5.296604166665929,
      "v": 52
    },
    {
      "midi": 57,
      "hit": false,
      "t": 33542.3359999993,
      "d": 5.296604166665929,
      "v": 75
    },
    {
      "midi": 35,
      "hit": false,
      "t": 33542.3359999993,
      "d": 74.15245833333029,
      "v": 120
    },
    {
      "midi": 33,
      "hit": false,
      "t": 33542.3359999993,
      "d": 90.04227083332808,
      "v": 77
    },
    {
      "midi": 21,
      "hit": false,
      "t": 33542.3359999993,
      "d": 190.67774999999529,
      "v": 100
    },
    {
      "midi": 49,
      "hit": false,
      "t": 33542.3359999993,
      "d": 4046.6055833331993,
      "v": 39
    },
    {
      "midi": 81,
      "hit": false,
      "t": 33542.3359999993,
      "d": 4057.198791666531,
      "v": 117
    },
    {
      "midi": 64,
      "hit": false,
      "t": 33552.92920833263,
      "d": 5.296604166665929,
      "v": 79
    },
    {
      "midi": 64,
      "hit": false,
      "t": 33669.454499999294,
      "d": 5.296604166665929,
      "v": 80
    },
    {
      "midi": 76,
      "hit": false,
      "t": 33669.454499999294,
      "d": 42.37283333333471,
      "v": 113
    },
    {
      "midi": 42,
      "hit": false,
      "t": 33674.75110416596,
      "d": 5.296604166665929,
      "v": 44
    },
    {
      "midi": 57,
      "hit": false,
      "t": 33680.047708332626,
      "d": 5.296604166665929,
      "v": 75
    },
    {
      "midi": 98,
      "hit": false,
      "t": 33791.276395832625,
      "d": 10.593208333331859,
      "v": 65
    },
    {
      "midi": 103,
      "hit": false,
      "t": 33791.276395832625,
      "d": 10.593208333331859,
      "v": 76
    },
    {
      "midi": 42,
      "hit": false,
      "t": 33796.57299999929,
      "d": 5.296604166665929,
      "v": 101
    },
    {
      "midi": 57,
      "hit": false,
      "t": 33796.57299999929,
      "d": 21.186416666663717,
      "v": 87
    },
    {
      "midi": 52,
      "hit": false,
      "t": 33796.57299999929,
      "d": 68.85585416666436,
      "v": 64
    },
    {
      "midi": 55,
      "hit": false,
      "t": 33796.57299999929,
      "d": 68.85585416666436,
      "v": 83
    },
    {
      "midi": 73,
      "hit": false,
      "t": 33796.57299999929,
      "d": 3802.9617916665375,
      "v": 114
    },
    {
      "midi": 64,
      "hit": false,
      "t": 33807.16620833262,
      "d": 5.296604166665929,
      "v": 98
    },
    {
      "midi": 64,
      "hit": false,
      "t": 33923.69149999929,
      "d": 5.296604166665929,
      "v": 62
    },
    {
      "midi": 21,
      "hit": false,
      "t": 33923.69149999929,
      "d": 47.66943750000064,
      "v": 100
    },
    {
      "midi": 33,
      "hit": false,
      "t": 33923.69149999929,
      "d": 47.66943750000064,
      "v": 100
    },
    {
      "midi": 45,
      "hit": false,
      "t": 33923.69149999929,
      "d": 90.04227083333535,
      "v": 63
    },
    {
      "midi": 42,
      "hit": false,
      "t": 33928.988104165954,
      "d": 5.296604166665929,
      "v": 47
    },
    {
      "midi": 57,
      "hit": false,
      "t": 33934.28470833262,
      "d": 37.07622916666878,
      "v": 83
    },
    {
      "midi": 21,
      "hit": false,
      "t": 34034.92018749929,
      "d": 137.71170833332872,
      "v": 100
    },
    {
      "midi": 33,
      "hit": false,
      "t": 34034.92018749929,
      "d": 137.71170833332872,
      "v": 100
    },
    {
      "midi": 42,
      "hit": false,
      "t": 34045.51339583262,
      "d": 5.296604166665929,
      "v": 52
    },
    {
      "midi": 40,
      "hit": false,
      "t": 34050.809999999285,
      "d": 5.296604166665929,
      "v": 93
    },
    {
      "midi": 57,
      "hit": false,
      "t": 34050.809999999285,
      "d": 5.296604166665929,
      "v": 75
    },
    {
      "midi": 64,
      "hit": false,
      "t": 34050.809999999285,
      "d": 37.076229166661506,
      "v": 86
    },
    {
      "midi": 35,
      "hit": false,
      "t": 34050.809999999285,
      "d": 74.15245833333029,
      "v": 120
    },
    {
      "midi": 45,
      "hit": false,
      "t": 34050.809999999285,
      "d": 201.27095833332714,
      "v": 63
    },
    {
      "midi": 76,
      "hit": false,
      "t": 34071.99641666595,
      "d": 10.593208333331859,
      "v": 76
    },
    {
      "midi": 64,
      "hit": false,
      "t": 34177.92849999928,
      "d": 37.076229166661506,
      "v": 82
    },
    {
      "midi": 42,
      "hit": false,
      "t": 34183.22510416595,
      "d": 5.296604166665929,
      "v": 44
    },
    {
      "midi": 57,
      "hit": false,
      "t": 34188.52170833261,
      "d": 5.296604166665929,
      "v": 75
    },
    {
      "midi": 76,
      "hit": false,
      "t": 34188.52170833261,
      "d": 10.593208333331859,
      "v": 82
    },
    {
      "midi": 26,
      "hit": false,
      "t": 34283.860583332615,
      "d": 121.82189583332365,
      "v": 100
    },
    {
      "midi": 38,
      "hit": false,
      "t": 34283.860583332615,
      "d": 121.82189583332365,
      "v": 100
    },
    {
      "midi": 93,
      "hit": false,
      "t": 34299.75039583261,
      "d": 10.593208333331859,
      "v": 56
    },
    {
      "midi": 98,
      "hit": false,
      "t": 34299.75039583261,
      "d": 10.593208333331859,
      "v": 67
    },
    {
      "midi": 42,
      "hit": false,
      "t": 34305.04699999928,
      "d": 5.296604166665929,
      "v": 101
    },
    {
      "midi": 57,
      "hit": false,
      "t": 34305.04699999928,
      "d": 5.296604166665929,
      "v": 75
    },
    {
      "midi": 50,
      "hit": false,
      "t": 34305.04699999928,
      "d": 90.04227083332808,
      "v": 77
    },
    {
      "midi": 64,
      "hit": false,
      "t": 34315.64020833261,
      "d": 5.296604166665929,
      "v": 79
    },
    {
      "midi": 76,
      "hit": false,
      "t": 34326.23341666594,
      "d": 52.96604166666657,
      "v": 94
    },
    {
      "midi": 28,
      "hit": false,
      "t": 34410.979083332604,
      "d": 121.82189583332365,
      "v": 100
    },
    {
      "midi": 40,
      "hit": false,
      "t": 34410.979083332604,
      "d": 121.82189583332365,
      "v": 100
    },
    {
      "midi": 95,
      "hit": false,
      "t": 34426.8688958326,
      "d": 10.593208333331859,
      "v": 52
    },
    {
      "midi": 100,
      "hit": false,
      "t": 34426.8688958326,
      "d": 10.593208333331859,
      "v": 63
    },
    {
      "midi": 52,
      "hit": false,
      "t": 34432.16549999927,
      "d": 58.26264583332522,
      "v": 60
    },
    {
      "midi": 42,
      "hit": false,
      "t": 34437.462104165934,
      "d": 5.296604166665929,
      "v": 47
    },
    {
      "midi": 76,
      "hit": false,
      "t": 34442.7587083326,
      "d": 52.966041666659294,
      "v": 100
    },
    {
      "midi": 64,
      "hit": false,
      "t": 34453.35191666593,
      "d": 5.296604166665929,
      "v": 80
    },
    {
      "midi": 57,
      "hit": false,
      "t": 34463.94512499926,
      "d": 5.296604166665929,
      "v": 75
    },
    {
      "midi": 28,
      "hit": false,
      "t": 34538.097583332594,
      "d": 148.3049166666533,
      "v": 100
    },
    {
      "midi": 40,
      "hit": false,
      "t": 34538.097583332594,
      "d": 148.3049166666533,
      "v": 100
    },
    {
      "midi": 42,
      "hit": false,
      "t": 34553.98739583259,
      "d": 5.296604166665929,
      "v": 67
    },
    {
      "midi": 93,
      "hit": false,
      "t": 34553.98739583259,
      "d": 10.593208333331859,
      "v": 56
    },
    {
      "midi": 98,
      "hit": false,
      "t": 34553.98739583259,
      "d": 10.593208333331859,
      "v": 67
    },
    {
      "midi": 35,
      "hit": false,
      "t": 34559.28399999926,
      "d": 74.15245833333029,
      "v": 120
    },
    {
      "midi": 33,
      "hit": false,
      "t": 34559.28399999926,
      "d": 90.04227083332808,
      "v": 63
    },
    {
      "midi": 76,
      "hit": false,
      "t": 34559.28399999926,
      "d": 127.11849999998958,
      "v": 108
    },
    {
      "midi": 71,
      "hit": false,
      "t": 34569.87720833259,
      "d": 116.52529166665772,
      "v": 116
    },
    {
      "midi": 31,
      "hit": false,
      "t": 34665.21608333258,
      "d": 148.30491666666057,
      "v": 100
    },
    {
      "midi": 43,
      "hit": false,
      "t": 34665.21608333258,
      "d": 148.30491666666057,
      "v": 100
    },
    {
      "midi": 93,
      "hit": false,
      "t": 34681.10589583258,
      "d": 10.593208333331859,
      "v": 32
    },
    {
      "midi": 98,
      "hit": false,
      "t": 34681.10589583258,
      "d": 10.593208333331859,
      "v": 43
    },
    {
      "midi": 50,
      "hit": false,
      "t": 34686.40249999925,
      "d": 90.04227083332808,
      "v": 77
    },
    {
      "midi": 42,
      "hit": false,
      "t": 34691.69910416591,
      "d": 5.296604166665929,
      "v": 46
    },
    {
      "midi": 76,
      "hit": false,
      "t": 34696.99570833258,
      "d": 105.93208333333314,
      "v": 123
    },
    {
      "midi": 71,
      "hit": false,
      "t": 34707.58891666591,
      "d": 95.33887500000128,
      "v": 111
    },
    {
      "midi": 28,
      "hit": false,
      "t": 34802.92779166591,
      "d": 169.4913333333243,
      "v": 100
    },
    {
      "midi": 40,
      "hit": false,
      "t": 34802.92779166591,
      "d": 169.4913333333243,
      "v": 100
    },
    {
      "midi": 42,
      "hit": false,
      "t": 34813.520999999244,
      "d": 5.296604166665929,
      "v": 86
    },
    {
      "midi": 71,
      "hit": false,
      "t": 34813.520999999244,
      "d": 127.11849999999686,
      "v": 114
    },
    {
      "midi": 76,
      "hit": false,
      "t": 34813.520999999244,
      "d": 127.11849999999686,
      "v": 108
    },
    {
      "midi": 93,
      "hit": false,
      "t": 34935.342895832575,
      "d": 26.483020833329647,
      "v": 52
    },
    {
      "midi": 98,
      "hit": false,
      "t": 34935.342895832575,
      "d": 26.483020833329647,
      "v": 63
    },
    {
      "midi": 52,
      "hit": false,
      "t": 34940.63949999924,
      "d": 90.04227083333535,
      "v": 77
    },
    {
      "midi": 42,
      "hit": false,
      "t": 34945.93610416591,
      "d": 5.296604166665929,
      "v": 47
    },
    {
      "midi": 76,
      "hit": false,
      "t": 34951.23270833257,
      "d": 84.74566666666942,
      "v": 118
    },
    {
      "midi": 71,
      "hit": false,
      "t": 34961.825916665905,
      "d": 79.44906250000349,
      "v": 59
    },
    {
      "midi": 57,
      "hit": false,
      "t": 34972.41912499924,
      "d": 5.296604166665929,
      "v": 75
    },
    {
      "midi": 42,
      "hit": false,
      "t": 35062.46139583257,
      "d": 5.296604166665929,
      "v": 76
    },
    {
      "midi": 31,
      "hit": false,
      "t": 35062.46139583257,
      "d": 121.82189583333093,
      "v": 100
    },
    {
      "midi": 43,
      "hit": false,
      "t": 35062.46139583257,
      "d": 121.82189583333093,
      "v": 100
    },
    {
      "midi": 40,
      "hit": false,
      "t": 35067.75799999924,
      "d": 5.296604166665929,
      "v": 93
    },
    {
      "midi": 57,
      "hit": false,
      "t": 35067.75799999924,
      "d": 5.296604166665929,
      "v": 75
    },
    {
      "midi": 35,
      "hit": false,
      "t": 35067.75799999924,
      "d": 74.15245833333029,
      "v": 120
    },
    {
      "midi": 64,
      "hit": false,
      "t": 35078.35120833257,
      "d": 5.296604166665929,
      "v": 79
    },
    {
      "midi": 76,
      "hit": false,
      "t": 35194.876499999235,
      "d": 10.593208333331859,
      "v": 87
    },
    {
      "midi": 33,
      "hit": false,
      "t": 35194.876499999235,
      "d": 90.04227083332808,
      "v": 41
    },
    {
      "midi": 42,
      "hit": false,
      "t": 35200.1731041659,
      "d": 5.296604166665929,
      "v": 52
    },
    {
      "midi": 64,
      "hit": false,
      "t": 35205.46970833257,
      "d": 5.296604166665929,
      "v": 75
    },
    {
      "midi": 95,
      "hit": false,
      "t": 35316.698395832565,
      "d": 10.593208333331859,
      "v": 65
    },
    {
      "midi": 100,
      "hit": false,
      "t": 35316.698395832565,
      "d": 10.593208333331859,
      "v": 76
    },
    {
      "midi": 31,
      "hit": false,
      "t": 35316.698395832565,
      "d": 143.00831249999464,
      "v": 100
    },
    {
      "midi": 43,
      "hit": false,
      "t": 35316.698395832565,
      "d": 143.00831249999464,
      "v": 100
    },
    {
      "midi": 46,
      "hit": false,
      "t": 35321.99499999923,
      "d": 5.296604166665929,
      "v": 78
    },
    {
      "midi": 57,
      "hit": false,
      "t": 35321.99499999923,
      "d": 21.186416666663717,
      "v": 87
    },
    {
      "midi": 55,
      "hit": false,
      "t": 35321.99499999923,
      "d": 90.04227083332808,
      "v": 77
    },
    {
      "midi": 64,
      "hit": false,
      "t": 35332.58820833256,
      "d": 5.296604166665929,
      "v": 98
    },
    {
      "midi": 33,
      "hit": false,
      "t": 35443.81689583256,
      "d": 100.63547916666721,
      "v": 100
    },
    {
      "midi": 45,
      "hit": false,
      "t": 35443.81689583256,
      "d": 100.63547916666721,
      "v": 100
    },
    {
      "midi": 64,
      "hit": false,
      "t": 35449.11349999923,
      "d": 5.296604166665929,
      "v": 62
    },
    {
      "midi": 44,
      "hit": false,
      "t": 35454.410104165894,
      "d": 5.296604166665929,
      "v": 78
    },
    {
      "midi": 57,
      "hit": false,
      "t": 35459.70670833256,
      "d": 37.07622916666878,
      "v": 83
    },
    {
      "midi": 42,
      "hit": false,
      "t": 35570.93539583257,
      "d": 5.296604166665929,
      "v": 52
    },
    {
      "midi": 57,
      "hit": false,
      "t": 35576.23199999923,
      "d": 5.296604166665929,
      "v": 75
    },
    {
      "midi": 35,
      "hit": false,
      "t": 35576.23199999923,
      "d": 74.15245833333029,
      "v": 120
    },
    {
      "midi": 33,
      "hit": false,
      "t": 35576.23199999923,
      "d": 90.04227083332808,
      "v": 77
    },
    {
      "midi": 21,
      "hit": false,
      "t": 35576.23199999923,
      "d": 190.67774999999529,
      "v": 100
    },
    {
      "midi": 64,
      "hit": false,
      "t": 35586.825208332564,
      "d": 5.296604166665929,
      "v": 79
    },
    {
      "midi": 64,
      "hit": false,
      "t": 35703.35049999923,
      "d": 5.296604166665929,
      "v": 80
    },
    {
      "midi": 42,
      "hit": false,
      "t": 35708.647104165895,
      "d": 5.296604166665929,
      "v": 44
    },
    {
      "midi": 57,
      "hit": false,
      "t": 35713.94370833256,
      "d": 5.296604166665929,
      "v": 75
    },
    {
      "midi": 98,
      "hit": false,
      "t": 35825.17239583256,
      "d": 10.593208333331859,
      "v": 65
    },
    {
      "midi": 103,
      "hit": false,
      "t": 35825.17239583256,
      "d": 10.593208333331859,
      "v": 76
    },
    {
      "midi": 42,
      "hit": false,
      "t": 35830.468999999226,
      "d": 5.296604166665929,
      "v": 101
    },
    {
      "midi": 57,
      "hit": false,
      "t": 35830.468999999226,
      "d": 21.186416666663717,
      "v": 87
    },
    {
      "midi": 45,
      "hit": false,
      "t": 35830.468999999226,
      "d": 52.96604166666657,
      "v": 61
    },
    {
      "midi": 50,
      "hit": false,
      "t": 35830.468999999226,
      "d": 52.96604166666657,
      "v": 80
    },
    {
      "midi": 64,
      "hit": false,
      "t": 35841.06220833256,
      "d": 5.296604166665929,
      "v": 98
    },
    {
      "midi": 64,
      "hit": false,
      "t": 35957.58749999922,
      "d": 5.296604166665929,
      "v": 62
    },
    {
      "midi": 21,
      "hit": false,
      "t": 35957.58749999922,
      "d": 47.66943750000064,
      "v": 100
    },
    {
      "midi": 33,
      "hit": false,
      "t": 35957.58749999922,
      "d": 47.66943750000064,
      "v": 100
    },
    {
      "midi": 45,
      "hit": false,
      "t": 35957.58749999922,
      "d": 90.04227083333535,
      "v": 63
    },
    {
      "midi": 42,
      "hit": false,
      "t": 35962.88410416589,
      "d": 5.296604166665929,
      "v": 47
    },
    {
      "midi": 57,
      "hit": false,
      "t": 35968.180708332555,
      "d": 37.07622916666878,
      "v": 83
    },
    {
      "midi": 21,
      "hit": false,
      "t": 36068.81618749922,
      "d": 137.711708333336,
      "v": 100
    },
    {
      "midi": 33,
      "hit": false,
      "t": 36068.81618749922,
      "d": 137.711708333336,
      "v": 100
    },
    {
      "midi": 42,
      "hit": false,
      "t": 36079.409395832554,
      "d": 5.296604166665929,
      "v": 52
    },
    {
      "midi": 40,
      "hit": false,
      "t": 36084.70599999922,
      "d": 5.296604166665929,
      "v": 93
    },
    {
      "midi": 57,
      "hit": false,
      "t": 36084.70599999922,
      "d": 5.296604166665929,
      "v": 75
    },
    {
      "midi": 64,
      "hit": false,
      "t": 36084.70599999922,
      "d": 37.07622916666878,
      "v": 86
    },
    {
      "midi": 35,
      "hit": false,
      "t": 36084.70599999922,
      "d": 74.15245833333756,
      "v": 120
    },
    {
      "midi": 76,
      "hit": false,
      "t": 36211.824499999224,
      "d": 42.37283333333471,
      "v": 127
    },
    {
      "midi": 40,
      "hit": false,
      "t": 36211.824499999224,
      "d": 90.04227083333535,
      "v": 63
    },
    {
      "midi": 42,
      "hit": false,
      "t": 36217.12110416589,
      "d": 5.296604166665929,
      "v": 44
    },
    {
      "midi": 64,
      "hit": false,
      "t": 36222.417708332556,
      "d": 5.296604166665929,
      "v": 75
    },
    {
      "midi": 26,
      "hit": false,
      "t": 36317.75658333256,
      "d": 121.82189583332365,
      "v": 100
    },
    {
      "midi": 38,
      "hit": false,
      "t": 36317.75658333256,
      "d": 121.82189583332365,
      "v": 100
    },
    {
      "midi": 93,
      "hit": false,
      "t": 36333.646395832555,
      "d": 10.593208333331859,
      "v": 56
    },
    {
      "midi": 98,
      "hit": false,
      "t": 36333.646395832555,
      "d": 10.593208333331859,
      "v": 67
    },
    {
      "midi": 42,
      "hit": false,
      "t": 36338.94299999922,
      "d": 5.296604166665929,
      "v": 101
    },
    {
      "midi": 57,
      "hit": false,
      "t": 36338.94299999922,
      "d": 5.296604166665929,
      "v": 75
    },
    {
      "midi": 50,
      "hit": false,
      "t": 36338.94299999922,
      "d": 90.04227083332808,
      "v": 77
    },
    {
      "midi": 64,
      "hit": false,
      "t": 36349.53620833255,
      "d": 5.296604166665929,
      "v": 79
    },
    {
      "midi": 28,
      "hit": false,
      "t": 36444.87508333255,
      "d": 121.82189583332365,
      "v": 100
    },
    {
      "midi": 40,
      "hit": false,
      "t": 36444.87508333255,
      "d": 121.82189583332365,
      "v": 100
    },
    {
      "midi": 95,
      "hit": false,
      "t": 36460.764895832544,
      "d": 10.593208333331859,
      "v": 52
    },
    {
      "midi": 100,
      "hit": false,
      "t": 36460.764895832544,
      "d": 10.593208333331859,
      "v": 63
    },
    {
      "midi": 52,
      "hit": false,
      "t": 36466.06149999921,
      "d": 58.26264583332522,
      "v": 60
    },
    {
      "midi": 42,
      "hit": false,
      "t": 36471.358104165876,
      "d": 5.296604166665929,
      "v": 47
    },
    {
      "midi": 64,
      "hit": false,
      "t": 36487.247916665874,
      "d": 5.296604166665929,
      "v": 80
    },
    {
      "midi": 57,
      "hit": false,
      "t": 36497.841124999206,
      "d": 5.296604166665929,
      "v": 75
    },
    {
      "midi": 28,
      "hit": false,
      "t": 36571.993583332536,
      "d": 148.3049166666533,
      "v": 100
    },
    {
      "midi": 40,
      "hit": false,
      "t": 36571.993583332536,
      "d": 148.3049166666533,
      "v": 100
    },
    {
      "midi": 42,
      "hit": false,
      "t": 36587.883395832534,
      "d": 5.296604166665929,
      "v": 67
    },
    {
      "midi": 93,
      "hit": false,
      "t": 36587.883395832534,
      "d": 10.593208333331859,
      "v": 56
    },
    {
      "midi": 98,
      "hit": false,
      "t": 36587.883395832534,
      "d": 10.593208333331859,
      "v": 67
    },
    {
      "midi": 35,
      "hit": false,
      "t": 36593.1799999992,
      "d": 74.15245833333029,
      "v": 120
    },
    {
      "midi": 33,
      "hit": false,
      "t": 36593.1799999992,
      "d": 90.04227083332808,
      "v": 63
    },
    {
      "midi": 76,
      "hit": false,
      "t": 36593.1799999992,
      "d": 105.93208333332586,
      "v": 89
    },
    {
      "midi": 71,
      "hit": false,
      "t": 36603.77320833253,
      "d": 100.63547916665993,
      "v": 116
    },
    {
      "midi": 31,
      "hit": false,
      "t": 36699.112083332526,
      "d": 148.3049166666533,
      "v": 100
    },
    {
      "midi": 43,
      "hit": false,
      "t": 36699.112083332526,
      "d": 148.3049166666533,
      "v": 100
    },
    {
      "midi": 93,
      "hit": false,
      "t": 36715.00189583252,
      "d": 10.593208333331859,
      "v": 32
    },
    {
      "midi": 98,
      "hit": false,
      "t": 36715.00189583252,
      "d": 10.593208333331859,
      "v": 43
    },
    {
      "midi": 55,
      "hit": false,
      "t": 36720.29849999919,
      "d": 90.04227083332808,
      "v": 77
    },
    {
      "midi": 42,
      "hit": false,
      "t": 36725.595104165855,
      "d": 5.296604166665929,
      "v": 46
    },
    {
      "midi": 76,
      "hit": false,
      "t": 36730.89170833252,
      "d": 84.74566666666215,
      "v": 107
    },
    {
      "midi": 71,
      "hit": false,
      "t": 36741.48491666585,
      "d": 79.44906249999622,
      "v": 111
    },
    {
      "midi": 28,
      "hit": false,
      "t": 36836.82379166585,
      "d": 169.4913333333243,
      "v": 100
    },
    {
      "midi": 40,
      "hit": false,
      "t": 36836.82379166585,
      "d": 169.4913333333243,
      "v": 100
    },
    {
      "midi": 42,
      "hit": false,
      "t": 36847.41699999918,
      "d": 5.296604166665929,
      "v": 86
    },
    {
      "midi": 76,
      "hit": false,
      "t": 36847.41699999918,
      "d": 105.93208333333314,
      "v": 102
    },
    {
      "midi": 71,
      "hit": false,
      "t": 36847.41699999918,
      "d": 111.22868749999907,
      "v": 114
    },
    {
      "midi": 93,
      "hit": false,
      "t": 36969.23889583251,
      "d": 26.483020833329647,
      "v": 52
    },
    {
      "midi": 98,
      "hit": false,
      "t": 36969.23889583251,
      "d": 26.483020833329647,
      "v": 63
    },
    {
      "midi": 52,
      "hit": false,
      "t": 36974.535499999176,
      "d": 90.04227083332808,
      "v": 50
    },
    {
      "midi": 42,
      "hit": false,
      "t": 36979.83210416584,
      "d": 5.296604166665929,
      "v": 47
    },
    {
      "midi": 76,
      "hit": false,
      "t": 36985.12870833251,
      "d": 68.85585416666436,
      "v": 99
    },
    {
      "midi": 71,
      "hit": false,
      "t": 36995.72191666584,
      "d": 63.55924999999843,
      "v": 75
    },
    {
      "midi": 57,
      "hit": false,
      "t": 37006.31512499917,
      "d": 5.296604166665929,
      "v": 75
    },
    {
      "midi": 42,
      "hit": false,
      "t": 37096.35739583251,
      "d": 5.296604166665929,
      "v": 76
    },
    {
      "midi": 31,
      "hit": false,
      "t": 37096.35739583251,
      "d": 121.82189583333093,
      "v": 100
    },
    {
      "midi": 43,
      "hit": false,
      "t": 37096.35739583251,
      "d": 121.82189583333093,
      "v": 100
    },
    {
      "midi": 40,
      "hit": false,
      "t": 37101.65399999917,
      "d": 5.296604166665929,
      "v": 93
    },
    {
      "midi": 57,
      "hit": false,
      "t": 37101.65399999917,
      "d": 5.296604166665929,
      "v": 75
    },
    {
      "midi": 35,
      "hit": false,
      "t": 37101.65399999917,
      "d": 74.15245833333029,
      "v": 120
    },
    {
      "midi": 55,
      "hit": false,
      "t": 37101.65399999917,
      "d": 90.04227083332808,
      "v": 69
    },
    {
      "midi": 64,
      "hit": false,
      "t": 37112.247208332505,
      "d": 5.296604166665929,
      "v": 79
    },
    {
      "midi": 76,
      "hit": false,
      "t": 37228.77249999917,
      "d": 10.593208333331859,
      "v": 87
    },
    {
      "midi": 43,
      "hit": false,
      "t": 37228.77249999917,
      "d": 90.04227083332808,
      "v": 41
    },
    {
      "midi": 42,
      "hit": false,
      "t": 37234.069104165836,
      "d": 5.296604166665929,
      "v": 52
    },
    {
      "midi": 64,
      "hit": false,
      "t": 37239.3657083325,
      "d": 5.296604166665929,
      "v": 75
    },
    {
      "midi": 95,
      "hit": false,
      "t": 37350.5943958325,
      "d": 10.593208333331859,
      "v": 65
    },
    {
      "midi": 100,
      "hit": false,
      "t": 37350.5943958325,
      "d": 10.593208333331859,
      "v": 76
    },
    {
      "midi": 31,
      "hit": false,
      "t": 37350.5943958325,
      "d": 143.00831249999464,
      "v": 100
    },
    {
      "midi": 43,
      "hit": false,
      "t": 37350.5943958325,
      "d": 143.00831249999464,
      "v": 100
    },
    {
      "midi": 44,
      "hit": false,
      "t": 37355.89099999917,
      "d": 5.296604166665929,
      "v": 78
    },
    {
      "midi": 57,
      "hit": false,
      "t": 37355.89099999917,
      "d": 21.186416666663717,
      "v": 87
    },
    {
      "midi": 55,
      "hit": false,
      "t": 37355.89099999917,
      "d": 90.04227083332808,
      "v": 77
    },
    {
      "midi": 64,
      "hit": false,
      "t": 37366.4842083325,
      "d": 5.296604166665929,
      "v": 98
    },
    {
      "midi": 42,
      "hit": false,
      "t": 37440.63666666583,
      "d": 5.296604166665929,
      "v": 57
    },
    {
      "midi": 33,
      "hit": false,
      "t": 37477.7128958325,
      "d": 100.63547916666721,
      "v": 100
    },
    {
      "midi": 45,
      "hit": false,
      "t": 37477.7128958325,
      "d": 100.63547916666721,
      "v": 100
    },
    {
      "midi": 64,
      "hit": false,
      "t": 37483.00949999916,
      "d": 5.296604166665929,
      "v": 62
    },
    {
      "midi": 57,
      "hit": false,
      "t": 37493.602708332495,
      "d": 37.07622916666878,
      "v": 83
    },
    {
      "midi": 42,
      "hit": false,
      "t": 37604.831395832494,
      "d": 5.296604166665929,
      "v": 52
    },
    {
      "midi": 52,
      "hit": false,
      "t": 37610.12799999916,
      "d": 5.296604166665929,
      "v": 81
    },
    {
      "midi": 35,
      "hit": false,
      "t": 37610.12799999916,
      "d": 74.15245833333029,
      "v": 120
    },
    {
      "midi": 28,
      "hit": false,
      "t": 37610.12799999916,
      "d": 90.04227083332808,
      "v": 77
    },
    {
      "midi": 40,
      "hit": false,
      "t": 37610.12799999916,
      "d": 190.67774999999529,
      "v": 100
    },
    {
      "midi": 67,
      "hit": false,
      "t": 37610.12799999916,
      "d": 243.64379166666185,
      "v": 127
    },
    {
      "midi": 59,
      "hit": false,
      "t": 37620.72120833249,
      "d": 5.296604166665929,
      "v": 85
    },
    {
      "midi": 66,
      "hit": false,
      "t": 37737.24649999916,
      "d": 1896.184291666592,
      "v": 88
    },
    {
      "midi": 42,
      "hit": false,
      "t": 37742.54310416582,
      "d": 5.296604166665929,
      "v": 44
    },
    {
      "midi": 59,
      "hit": false,
      "t": 37747.83970833249,
      "d": 5.296604166665929,
      "v": 86
    },
    {
      "midi": 52,
      "hit": false,
      "t": 37758.43291666582,
      "d": 5.296604166665929,
      "v": 81
    },
    {
      "midi": 98,
      "hit": false,
      "t": 37859.06839583249,
      "d": 10.593208333331859,
      "v": 65
    },
    {
      "midi": 103,
      "hit": false,
      "t": 37859.06839583249,
      "d": 10.593208333331859,
      "v": 76
    },
    {
      "midi": 42,
      "hit": false,
      "t": 37864.364999999154,
      "d": 5.296604166665929,
      "v": 101
    },
    {
      "midi": 52,
      "hit": false,
      "t": 37864.364999999154,
      "d": 68.85585416666436,
      "v": 64
    },
    {
      "midi": 55,
      "hit": false,
      "t": 37864.364999999154,
      "d": 68.85585416666436,
      "v": 83
    },
    {
      "midi": 59,
      "hit": false,
      "t": 37864.364999999154,
      "d": 111.22868749999907,
      "v": 93
    },
    {
      "midi": 67,
      "hit": false,
      "t": 37864.364999999154,
      "d": 1769.065791666595,
      "v": 92
    },
    {
      "midi": 64,
      "hit": false,
      "t": 37874.958208332486,
      "d": 90.04227083333535,
      "v": 104
    },
    {
      "midi": 28,
      "hit": false,
      "t": 37991.48349999915,
      "d": 47.66943750000064,
      "v": 100
    },
    {
      "midi": 40,
      "hit": false,
      "t": 37991.48349999915,
      "d": 47.66943750000064,
      "v": 63
    },
    {
      "midi": 42,
      "hit": false,
      "t": 37996.78010416582,
      "d": 5.296604166665929,
      "v": 47
    },
    {
      "midi": 59,
      "hit": false,
      "t": 38002.07670833248,
      "d": 47.66943750000064,
      "v": 94
    },
    {
      "midi": 52,
      "hit": false,
      "t": 38012.669916665815,
      "d": 37.07622916666878,
      "v": 89
    },
    {
      "midi": 28,
      "hit": false,
      "t": 38102.71218749915,
      "d": 137.71170833332872,
      "v": 100
    },
    {
      "midi": 42,
      "hit": false,
      "t": 38113.30539583248,
      "d": 5.296604166665929,
      "v": 52
    },
    {
      "midi": 40,
      "hit": false,
      "t": 38118.60199999915,
      "d": 5.296604166665929,
      "v": 93
    },
    {
      "midi": 59,
      "hit": false,
      "t": 38118.60199999915,
      "d": 5.296604166665929,
      "v": 82
    },
    {
      "midi": 35,
      "hit": false,
      "t": 38118.60199999915,
      "d": 74.15245833333029,
      "v": 120
    },
    {
      "midi": 43,
      "hit": false,
      "t": 38118.60199999915,
      "d": 201.27095833332714,
      "v": 75
    },
    {
      "midi": 74,
      "hit": false,
      "t": 38118.60199999915,
      "d": 503.1773958333142,
      "v": 106
    },
    {
      "midi": 42,
      "hit": false,
      "t": 38251.01710416581,
      "d": 5.296604166665929,
      "v": 44
    },
    {
      "midi": 59,
      "hit": false,
      "t": 38256.31370833248,
      "d": 5.296604166665929,
      "v": 78
    },
    {
      "midi": 26,
      "hit": false,
      "t": 38351.65258333248,
      "d": 121.82189583332365,
      "v": 100
    },
    {
      "midi": 38,
      "hit": false,
      "t": 38351.65258333248,
      "d": 121.82189583332365,
      "v": 100
    },
    {
      "midi": 93,
      "hit": false,
      "t": 38367.542395832475,
      "d": 10.593208333331859,
      "v": 56
    },
    {
      "midi": 98,
      "hit": false,
      "t": 38367.542395832475,
      "d": 10.593208333331859,
      "v": 67
    },
    {
      "midi": 42,
      "hit": false,
      "t": 38372.83899999914,
      "d": 5.296604166665929,
      "v": 101
    },
    {
      "midi": 50,
      "hit": false,
      "t": 38372.83899999914,
      "d": 5.296604166665929,
      "v": 81
    },
    {
      "midi": 57,
      "hit": false,
      "t": 38383.43220833247,
      "d": 5.296604166665929,
      "v": 85
    },
    {
      "midi": 62,
      "hit": false,
      "t": 38394.025416665805,
      "d": 5.296604166665929,
      "v": 96
    },
    {
      "midi": 40,
      "hit": false,
      "t": 38478.77108333247,
      "d": 153.6015208333265,
      "v": 100
    },
    {
      "midi": 95,
      "hit": false,
      "t": 38494.660895832465,
      "d": 10.593208333331859,
      "v": 52
    },
    {
      "midi": 100,
      "hit": false,
      "t": 38494.660895832465,
      "d": 10.593208333331859,
      "v": 63
    },
    {
      "midi": 64,
      "hit": false,
      "t": 38499.95749999913,
      "d": 5.296604166665929,
      "v": 102
    },
    {
      "midi": 52,
      "hit": false,
      "t": 38499.95749999913,
      "d": 58.2626458333325,
      "v": 60
    },
    {
      "midi": 42,
      "hit": false,
      "t": 38505.2541041658,
      "d": 5.296604166665929,
      "v": 47
    },
    {
      "midi": 57,
      "hit": false,
      "t": 38510.55070833246,
      "d": 5.296604166665929,
      "v": 86
    },
    {
      "midi": 50,
      "hit": false,
      "t": 38521.143916665795,
      "d": 5.296604166665929,
      "v": 81
    },
    {
      "midi": 31,
      "hit": false,
      "t": 38605.889583332464,
      "d": 116.52529166665772,
      "v": 100
    },
    {
      "midi": 43,
      "hit": false,
      "t": 38605.889583332464,
      "d": 116.52529166665772,
      "v": 100
    },
    {
      "midi": 42,
      "hit": false,
      "t": 38621.77939583246,
      "d": 5.296604166665929,
      "v": 67
    },
    {
      "midi": 93,
      "hit": false,
      "t": 38621.77939583246,
      "d": 10.593208333331859,
      "v": 56
    },
    {
      "midi": 98,
      "hit": false,
      "t": 38621.77939583246,
      "d": 10.593208333331859,
      "v": 67
    },
    {
      "midi": 28,
      "hit": false,
      "t": 38627.07599999913,
      "d": 5.296604166665929,
      "v": 63
    },
    {
      "midi": 35,
      "hit": false,
      "t": 38627.07599999913,
      "d": 74.15245833333029,
      "v": 120
    },
    {
      "midi": 57,
      "hit": false,
      "t": 38627.07599999913,
      "d": 90.04227083332808,
      "v": 93
    },
    {
      "midi": 73,
      "hit": false,
      "t": 38627.07599999913,
      "d": 503.17739583330695,
      "v": 92
    },
    {
      "midi": 62,
      "hit": false,
      "t": 38637.66920833246,
      "d": 58.2626458333325,
      "v": 104
    },
    {
      "midi": 31,
      "hit": false,
      "t": 38733.008083332454,
      "d": 148.3049166666533,
      "v": 100
    },
    {
      "midi": 43,
      "hit": false,
      "t": 38733.008083332454,
      "d": 148.3049166666533,
      "v": 100
    },
    {
      "midi": 93,
      "hit": false,
      "t": 38748.89789583245,
      "d": 10.593208333331859,
      "v": 32
    },
    {
      "midi": 98,
      "hit": false,
      "t": 38748.89789583245,
      "d": 10.593208333331859,
      "v": 43
    },
    {
      "midi": 62,
      "hit": false,
      "t": 38754.19449999912,
      "d": 31.779624999995576,
      "v": 102
    },
    {
      "midi": 42,
      "hit": false,
      "t": 38759.49110416578,
      "d": 5.296604166665929,
      "v": 46
    },
    {
      "midi": 57,
      "hit": false,
      "t": 38764.78770833245,
      "d": 5.296604166665929,
      "v": 124
    },
    {
      "midi": 50,
      "hit": false,
      "t": 38775.38091666578,
      "d": 5.296604166665929,
      "v": 89
    },
    {
      "midi": 28,
      "hit": false,
      "t": 38865.42318749911,
      "d": 169.4913333333243,
      "v": 100
    },
    {
      "midi": 40,
      "hit": false,
      "t": 38865.42318749911,
      "d": 169.4913333333243,
      "v": 100
    },
    {
      "midi": 42,
      "hit": false,
      "t": 38881.31299999911,
      "d": 5.296604166665929,
      "v": 86
    },
    {
      "midi": 50,
      "hit": false,
      "t": 38881.31299999911,
      "d": 5.296604166665929,
      "v": 62
    },
    {
      "midi": 57,
      "hit": false,
      "t": 38891.90620833244,
      "d": 5.296604166665929,
      "v": 114
    },
    {
      "midi": 93,
      "hit": false,
      "t": 39003.13489583244,
      "d": 26.483020833329647,
      "v": 52
    },
    {
      "midi": 98,
      "hit": false,
      "t": 39003.13489583244,
      "d": 26.483020833329647,
      "v": 63
    },
    {
      "midi": 52,
      "hit": false,
      "t": 39008.431499999104,
      "d": 90.04227083332808,
      "v": 58
    },
    {
      "midi": 42,
      "hit": false,
      "t": 39013.72810416577,
      "d": 5.296604166665929,
      "v": 47
    },
    {
      "midi": 62,
      "hit": false,
      "t": 39019.024708332436,
      "d": 349.575874999995,
      "v": 106
    },
    {
      "midi": 57,
      "hit": false,
      "t": 39029.61791666577,
      "d": 344.27927083332906,
      "v": 71
    },
    {
      "midi": 31,
      "hit": false,
      "t": 39124.95679166577,
      "d": 376.05889583331737,
      "v": 100
    },
    {
      "midi": 43,
      "hit": false,
      "t": 39124.95679166577,
      "d": 376.05889583331737,
      "v": 100
    },
    {
      "midi": 42,
      "hit": false,
      "t": 39130.253395832435,
      "d": 5.296604166665929,
      "v": 76
    },
    {
      "midi": 40,
      "hit": false,
      "t": 39135.5499999991,
      "d": 5.296604166665929,
      "v": 93
    },
    {
      "midi": 35,
      "hit": false,
      "t": 39135.5499999991,
      "d": 74.15245833333029,
      "v": 120
    },
    {
      "midi": 69,
      "hit": false,
      "t": 39135.5499999991,
      "d": 503.1773958333142,
      "v": 89
    },
    {
      "midi": 28,
      "hit": false,
      "t": 39262.6684999991,
      "d": 90.04227083333535,
      "v": 41
    },
    {
      "midi": 42,
      "hit": false,
      "t": 39267.96510416576,
      "d": 5.296604166665929,
      "v": 52
    },
    {
      "midi": 95,
      "hit": false,
      "t": 39384.49039583243,
      "d": 10.593208333331859,
      "v": 65
    },
    {
      "midi": 100,
      "hit": false,
      "t": 39384.49039583243,
      "d": 10.593208333331859,
      "v": 76
    },
    {
      "midi": 46,
      "hit": false,
      "t": 39389.786999999094,
      "d": 5.296604166665929,
      "v": 78
    },
    {
      "midi": 52,
      "hit": false,
      "t": 39389.786999999094,
      "d": 5.296604166665929,
      "v": 81
    },
    {
      "midi": 55,
      "hit": false,
      "t": 39389.786999999094,
      "d": 90.04227083332808,
      "v": 77
    },
    {
      "midi": 59,
      "hit": false,
      "t": 39400.380208332426,
      "d": 5.296604166665929,
      "v": 85
    },
    {
      "midi": 64,
      "hit": false,
      "t": 39410.97341666576,
      "d": 5.296604166665929,
      "v": 96
    },
    {
      "midi": 33,
      "hit": false,
      "t": 39506.31229166575,
      "d": 100.63547916666721,
      "v": 100
    },
    {
      "midi": 45,
      "hit": false,
      "t": 39506.31229166575,
      "d": 100.63547916666721,
      "v": 100
    },
    {
      "midi": 57,
      "hit": false,
      "t": 39516.905499999084,
      "d": 58.2626458333325,
      "v": 60
    },
    {
      "midi": 44,
      "hit": false,
      "t": 39522.20210416575,
      "d": 5.296604166665929,
      "v": 78
    },
    {
      "midi": 50,
      "hit": false,
      "t": 39538.09191666575,
      "d": 5.296604166665929,
      "v": 81
    },
    {
      "midi": 42,
      "hit": false,
      "t": 39638.727395832415,
      "d": 5.296604166665929,
      "v": 52
    },
    {
      "midi": 55,
      "hit": false,
      "t": 39644.02399999908,
      "d": 5.296604166665929,
      "v": 82
    },
    {
      "midi": 35,
      "hit": false,
      "t": 39644.02399999908,
      "d": 74.15245833333029,
      "v": 120
    },
    {
      "midi": 31,
      "hit": false,
      "t": 39644.02399999908,
      "d": 90.04227083332808,
      "v": 77
    },
    {
      "midi": 26,
      "hit": false,
      "t": 39644.02399999908,
      "d": 190.67774999999529,
      "v": 100
    },
    {
      "midi": 38,
      "hit": false,
      "t": 39644.02399999908,
      "d": 190.67774999999529,
      "v": 100
    },
    {
      "midi": 74,
      "hit": false,
      "t": 39644.02399999908,
      "d": 370.7622916666587,
      "v": 115
    },
    {
      "midi": 54,
      "hit": false,
      "t": 39644.02399999908,
      "d": 2012.7095833332496,
      "v": 68
    },
    {
      "midi": 59,
      "hit": false,
      "t": 39654.61720833241,
      "d": 5.296604166665929,
      "v": 86
    },
    {
      "midi": 59,
      "hit": false,
      "t": 39771.14249999908,
      "d": 5.296604166665929,
      "v": 87
    },
    {
      "midi": 66,
      "hit": false,
      "t": 39771.14249999908,
      "d": 1896.1842916665846,
      "v": 72
    },
    {
      "midi": 42,
      "hit": false,
      "t": 39776.43910416574,
      "d": 5.296604166665929,
      "v": 44
    },
    {
      "midi": 55,
      "hit": false,
      "t": 39781.73570833241,
      "d": 5.296604166665929,
      "v": 82
    },
    {
      "midi": 98,
      "hit": false,
      "t": 39892.96439583241,
      "d": 10.593208333331859,
      "v": 65
    },
    {
      "midi": 103,
      "hit": false,
      "t": 39892.96439583241,
      "d": 10.593208333331859,
      "v": 76
    },
    {
      "midi": 42,
      "hit": false,
      "t": 39898.260999999075,
      "d": 5.296604166665929,
      "v": 101
    },
    {
      "midi": 55,
      "hit": false,
      "t": 39898.260999999075,
      "d": 21.186416666663717,
      "v": 94
    },
    {
      "midi": 47,
      "hit": false,
      "t": 39898.260999999075,
      "d": 68.85585416666436,
      "v": 64
    },
    {
      "midi": 50,
      "hit": false,
      "t": 39898.260999999075,
      "d": 68.85585416666436,
      "v": 83
    },
    {
      "midi": 69,
      "hit": false,
      "t": 39898.260999999075,
      "d": 1769.0657916665878,
      "v": 94
    },
    {
      "midi": 59,
      "hit": false,
      "t": 39908.85420833241,
      "d": 5.296604166665929,
      "v": 105
    },
    {
      "midi": 26,
      "hit": false,
      "t": 40025.37949999907,
      "d": 47.66943750000064,
      "v": 100
    },
    {
      "midi": 38,
      "hit": false,
      "t": 40025.37949999907,
      "d": 47.66943750000064,
      "v": 100
    },
    {
      "midi": 59,
      "hit": false,
      "t": 40025.37949999907,
      "d": 47.66943750000064,
      "v": 95
    },
    {
      "midi": 31,
      "hit": false,
      "t": 40025.37949999907,
      "d": 90.04227083333535,
      "v": 63
    },
    {
      "midi": 74,
      "hit": false,
      "t": 40025.37949999907,
      "d": 1641.947291666591,
      "v": 112
    },
    {
      "midi": 42,
      "hit": false,
      "t": 40030.67610416574,
      "d": 5.296604166665929,
      "v": 47
    },
    {
      "midi": 55,
      "hit": false,
      "t": 40035.9727083324,
      "d": 37.07622916666878,
      "v": 90
    },
    {
      "midi": 26,
      "hit": false,
      "t": 40136.60818749907,
      "d": 137.71170833332872,
      "v": 100
    },
    {
      "midi": 42,
      "hit": false,
      "t": 40147.2013958324,
      "d": 5.296604166665929,
      "v": 52
    },
    {
      "midi": 40,
      "hit": false,
      "t": 40152.49799999907,
      "d": 5.296604166665929,
      "v": 93
    },
    {
      "midi": 59,
      "hit": false,
      "t": 40152.49799999907,
      "d": 5.296604166665929,
      "v": 83
    },
    {
      "midi": 35,
      "hit": false,
      "t": 40152.49799999907,
      "d": 74.15245833333029,
      "v": 120
    },
    {
      "midi": 38,
      "hit": false,
      "t": 40152.49799999907,
      "d": 121.82189583333093,
      "v": 63
    },
    {
      "midi": 59,
      "hit": false,
      "t": 40279.616499999065,
      "d": 5.296604166665929,
      "v": 79
    },
    {
      "midi": 42,
      "hit": false,
      "t": 40284.91310416573,
      "d": 5.296604166665929,
      "v": 44
    },
    {
      "midi": 26,
      "hit": false,
      "t": 40385.5485833324,
      "d": 121.82189583332365,
      "v": 100
    },
    {
      "midi": 38,
      "hit": false,
      "t": 40385.5485833324,
      "d": 121.82189583332365,
      "v": 100
    },
    {
      "midi": 93,
      "hit": false,
      "t": 40401.438395832396,
      "d": 10.593208333331859,
      "v": 56
    },
    {
      "midi": 98,
      "hit": false,
      "t": 40401.438395832396,
      "d": 10.593208333331859,
      "v": 67
    },
    {
      "midi": 42,
      "hit": false,
      "t": 40406.73499999906,
      "d": 5.296604166665929,
      "v": 101
    },
    {
      "midi": 55,
      "hit": false,
      "t": 40406.73499999906,
      "d": 5.296604166665929,
      "v": 82
    },
    {
      "midi": 50,
      "hit": false,
      "t": 40406.73499999906,
      "d": 90.04227083332808,
      "v": 77
    },
    {
      "midi": 62,
      "hit": false,
      "t": 40417.328208332394,
      "d": 5.296604166665929,
      "v": 86
    },
    {
      "midi": 67,
      "hit": false,
      "t": 40427.921416665726,
      "d": 5.296604166665929,
      "v": 111
    },
    {
      "midi": 28,
      "hit": false,
      "t": 40512.66708333239,
      "d": 158.89812499998516,
      "v": 100
    },
    {
      "midi": 40,
      "hit": false,
      "t": 40512.66708333239,
      "d": 158.89812499998516,
      "v": 100
    },
    {
      "midi": 95,
      "hit": false,
      "t": 40528.556895832386,
      "d": 10.593208333331859,
      "v": 52
    },
    {
      "midi": 100,
      "hit": false,
      "t": 40528.556895832386,
      "d": 10.593208333331859,
      "v": 63
    },
    {
      "midi": 52,
      "hit": false,
      "t": 40533.85349999905,
      "d": 58.26264583332522,
      "v": 60
    },
    {
      "midi": 42,
      "hit": false,
      "t": 40539.15010416572,
      "d": 5.296604166665929,
      "v": 47
    },
    {
      "midi": 67,
      "hit": false,
      "t": 40544.44670833238,
      "d": 5.296604166665929,
      "v": 117
    },
    {
      "midi": 62,
      "hit": false,
      "t": 40555.039916665715,
      "d": 5.296604166665929,
      "v": 87
    },
    {
      "midi": 55,
      "hit": false,
      "t": 40565.63312499905,
      "d": 5.296604166665929,
      "v": 82
    },
    {
      "midi": 43,
      "hit": false,
      "t": 40639.78558333238,
      "d": 116.52529166665772,
      "v": 100
    },
    {
      "midi": 42,
      "hit": false,
      "t": 40655.675395832375,
      "d": 5.296604166665929,
      "v": 46
    },
    {
      "midi": 93,
      "hit": false,
      "t": 40655.675395832375,
      "d": 10.593208333331859,
      "v": 56
    },
    {
      "midi": 98,
      "hit": false,
      "t": 40655.675395832375,
      "d": 10.593208333331859,
      "v": 67
    },
    {
      "midi": 35,
      "hit": false,
      "t": 40660.97199999904,
      "d": 74.15245833333029,
      "v": 120
    },
    {
      "midi": 31,
      "hit": false,
      "t": 40660.97199999904,
      "d": 90.04227083332808,
      "v": 63
    },
    {
      "midi": 79,
      "hit": false,
      "t": 40660.97199999904,
      "d": 376.0588958333101,
      "v": 107
    },
    {
      "midi": 62,
      "hit": false,
      "t": 40671.56520833237,
      "d": 5.296604166665929,
      "v": 86
    },
    {
      "midi": 42,
      "hit": false,
      "t": 40745.7176666657,
      "d": 5.296604166665929,
      "v": 62
    },
    {
      "midi": 31,
      "hit": false,
      "t": 40766.90408333237,
      "d": 148.3049166666533,
      "v": 100
    },
    {
      "midi": 43,
      "hit": false,
      "t": 40766.90408333237,
      "d": 148.3049166666533,
      "v": 100
    },
    {
      "midi": 93,
      "hit": false,
      "t": 40782.793895832365,
      "d": 10.593208333331859,
      "v": 32
    },
    {
      "midi": 98,
      "hit": false,
      "t": 40782.793895832365,
      "d": 10.593208333331859,
      "v": 43
    },
    {
      "midi": 55,
      "hit": false,
      "t": 40788.09049999903,
      "d": 90.04227083332808,
      "v": 77
    },
    {
      "midi": 62,
      "hit": false,
      "t": 40809.276916665694,
      "d": 79.44906249999622,
      "v": 90
    },
    {
      "midi": 42,
      "hit": false,
      "t": 40830.46333333236,
      "d": 5.296604166665929,
      "v": 77
    },
    {
      "midi": 28,
      "hit": false,
      "t": 40899.31918749902,
      "d": 169.4913333333243,
      "v": 100
    },
    {
      "midi": 40,
      "hit": false,
      "t": 40899.31918749902,
      "d": 169.4913333333243,
      "v": 100
    },
    {
      "midi": 42,
      "hit": false,
      "t": 40915.20899999902,
      "d": 5.296604166665929,
      "v": 86
    },
    {
      "midi": 55,
      "hit": false,
      "t": 40915.20899999902,
      "d": 5.296604166665929,
      "v": 63
    },
    {
      "midi": 62,
      "hit": false,
      "t": 40915.20899999902,
      "d": 5.296604166665929,
      "v": 80
    },
    {
      "midi": 93,
      "hit": false,
      "t": 41037.03089583235,
      "d": 26.483020833329647,
      "v": 52
    },
    {
      "midi": 98,
      "hit": false,
      "t": 41037.03089583235,
      "d": 26.483020833329647,
      "v": 63
    },
    {
      "midi": 52,
      "hit": false,
      "t": 41042.32749999902,
      "d": 90.04227083332808,
      "v": 50
    },
    {
      "midi": 78,
      "hit": false,
      "t": 41042.32749999902,
      "d": 376.0588958333101,
      "v": 101
    },
    {
      "midi": 42,
      "hit": false,
      "t": 41047.62410416568,
      "d": 5.296604166665929,
      "v": 47
    },
    {
      "midi": 62,
      "hit": false,
      "t": 41063.51391666568,
      "d": 84.74566666666215,
      "v": 87
    },
    {
      "midi": 55,
      "hit": false,
      "t": 41074.10712499901,
      "d": 5.296604166665929,
      "v": 82
    },
    {
      "midi": 31,
      "hit": false,
      "t": 41158.852791665675,
      "d": 121.82189583332365,
      "v": 100
    },
    {
      "midi": 43,
      "hit": false,
      "t": 41158.852791665675,
      "d": 121.82189583332365,
      "v": 100
    },
    {
      "midi": 42,
      "hit": false,
      "t": 41164.14939583234,
      "d": 5.296604166665929,
      "v": 76
    },
    {
      "midi": 40,
      "hit": false,
      "t": 41169.44599999901,
      "d": 5.296604166665929,
      "v": 93
    },
    {
      "midi": 62,
      "hit": false,
      "t": 41169.44599999901,
      "d": 5.296604166665929,
      "v": 80
    },
    {
      "midi": 35,
      "hit": false,
      "t": 41169.44599999901,
      "d": 74.15245833333029,
      "v": 120
    },
    {
      "midi": 55,
      "hit": false,
      "t": 41169.44599999901,
      "d": 90.04227083332808,
      "v": 69
    },
    {
      "midi": 31,
      "hit": false,
      "t": 41285.971291665664,
      "d": 169.49133333333157,
      "v": 100
    },
    {
      "midi": 43,
      "hit": false,
      "t": 41296.564499998996,
      "d": 90.04227083332808,
      "v": 41
    },
    {
      "midi": 42,
      "hit": false,
      "t": 41301.86110416566,
      "d": 5.296604166665929,
      "v": 52
    },
    {
      "midi": 62,
      "hit": false,
      "t": 41317.75091666566,
      "d": 5.296604166665929,
      "v": 87
    },
    {
      "midi": 33,
      "hit": false,
      "t": 41413.08979166566,
      "d": 100.63547916666721,
      "v": 100
    },
    {
      "midi": 45,
      "hit": false,
      "t": 41413.08979166566,
      "d": 100.63547916666721,
      "v": 100
    },
    {
      "midi": 95,
      "hit": false,
      "t": 41418.38639583233,
      "d": 10.593208333331859,
      "v": 65
    },
    {
      "midi": 100,
      "hit": false,
      "t": 41418.38639583233,
      "d": 10.593208333331859,
      "v": 76
    },
    {
      "midi": 46,
      "hit": false,
      "t": 41423.68299999899,
      "d": 5.296604166665929,
      "v": 78
    },
    {
      "midi": 55,
      "hit": false,
      "t": 41423.68299999899,
      "d": 90.04227083333535,
      "v": 77
    },
    {
      "midi": 62,
      "hit": false,
      "t": 41423.68299999899,
      "d": 127.11850000000413,
      "v": 115
    },
    {
      "midi": 76,
      "hit": false,
      "t": 41423.68299999899,
      "d": 248.94039583333506,
      "v": 106
    },
    {
      "midi": 64,
      "hit": false,
      "t": 41550.801499999,
      "d": 127.11849999999686,
      "v": 96
    },
    {
      "midi": 44,
      "hit": false,
      "t": 41556.09810416566,
      "d": 5.296604166665929,
      "v": 78
    },
    {
      "midi": 57,
      "hit": false,
      "t": 41571.98791666566,
      "d": 5.296604166665929,
      "v": 101
    },
    {
      "midi": 42,
      "hit": false,
      "t": 41672.62339583233,
      "d": 5.296604166665929,
      "v": 52
    },
    {
      "midi": 57,
      "hit": false,
      "t": 41677.919999998994,
      "d": 5.296604166665929,
      "v": 75
    },
    {
      "midi": 35,
      "hit": false,
      "t": 41677.919999998994,
      "d": 74.15245833333029,
      "v": 120
    },
    {
      "midi": 33,
      "hit": false,
      "t": 41677.919999998994,
      "d": 90.04227083332808,
      "v": 77
    },
    {
      "midi": 21,
      "hit": false,
      "t": 41677.919999998994,
      "d": 190.67774999999529,
      "v": 100
    },
    {
      "midi": 69,
      "hit": false,
      "t": 41677.919999998994,
      "d": 423.7283333333253,
      "v": 110
    },
    {
      "midi": 49,
      "hit": false,
      "t": 41677.919999998994,
      "d": 4046.6055833331848,
      "v": 39
    },
    {
      "midi": 81,
      "hit": false,
      "t": 41677.919999998994,
      "d": 4057.1987916665166,
      "v": 117
    },
    {
      "midi": 64,
      "hit": false,
      "t": 41688.513208332326,
      "d": 5.296604166665929,
      "v": 79
    },
    {
      "midi": 64,
      "hit": false,
      "t": 41805.03849999899,
      "d": 5.296604166665929,
      "v": 80
    },
    {
      "midi": 42,
      "hit": false,
      "t": 41810.33510416566,
      "d": 5.296604166665929,
      "v": 44
    },
    {
      "midi": 57,
      "hit": false,
      "t": 41815.63170833232,
      "d": 5.296604166665929,
      "v": 75
    },
    {
      "midi": 98,
      "hit": false,
      "t": 41926.86039583232,
      "d": 10.593208333331859,
      "v": 65
    },
    {
      "midi": 103,
      "hit": false,
      "t": 41926.86039583232,
      "d": 10.593208333331859,
      "v": 76
    },
    {
      "midi": 42,
      "hit": false,
      "t": 41932.15699999899,
      "d": 5.296604166665929,
      "v": 101
    },
    {
      "midi": 57,
      "hit": false,
      "t": 41932.15699999899,
      "d": 21.186416666663717,
      "v": 87
    },
    {
      "midi": 52,
      "hit": false,
      "t": 41932.15699999899,
      "d": 68.85585416666436,
      "v": 64
    },
    {
      "midi": 55,
      "hit": false,
      "t": 41932.15699999899,
      "d": 68.85585416666436,
      "v": 83
    },
    {
      "midi": 73,
      "hit": false,
      "t": 41932.15699999899,
      "d": 3802.961791666523,
      "v": 114
    },
    {
      "midi": 64,
      "hit": false,
      "t": 41942.75020833232,
      "d": 5.296604166665929,
      "v": 98
    },
    {
      "midi": 64,
      "hit": false,
      "t": 42059.275499998985,
      "d": 5.296604166665929,
      "v": 62
    },
    {
      "midi": 21,
      "hit": false,
      "t": 42059.275499998985,
      "d": 47.66943750000064,
      "v": 100
    },
    {
      "midi": 33,
      "hit": false,
      "t": 42059.275499998985,
      "d": 47.66943750000064,
      "v": 100
    },
    {
      "midi": 45,
      "hit": false,
      "t": 42059.275499998985,
      "d": 90.04227083333535,
      "v": 63
    },
    {
      "midi": 42,
      "hit": false,
      "t": 42064.57210416565,
      "d": 5.296604166665929,
      "v": 47
    },
    {
      "midi": 57,
      "hit": false,
      "t": 42069.86870833232,
      "d": 37.07622916666878,
      "v": 83
    },
    {
      "midi": 21,
      "hit": false,
      "t": 42170.504187498984,
      "d": 137.71170833332872,
      "v": 100
    },
    {
      "midi": 33,
      "hit": false,
      "t": 42170.504187498984,
      "d": 137.71170833332872,
      "v": 100
    },
    {
      "midi": 42,
      "hit": false,
      "t": 42181.097395832316,
      "d": 5.296604166665929,
      "v": 52
    },
    {
      "midi": 40,
      "hit": false,
      "t": 42186.39399999898,
      "d": 5.296604166665929,
      "v": 93
    },
    {
      "midi": 57,
      "hit": false,
      "t": 42186.39399999898,
      "d": 5.296604166665929,
      "v": 75
    },
    {
      "midi": 64,
      "hit": false,
      "t": 42186.39399999898,
      "d": 37.076229166661506,
      "v": 86
    },
    {
      "midi": 35,
      "hit": false,
      "t": 42186.39399999898,
      "d": 74.15245833333029,
      "v": 120
    },
    {
      "midi": 45,
      "hit": false,
      "t": 42186.39399999898,
      "d": 201.27095833332714,
      "v": 63
    },
    {
      "midi": 76,
      "hit": false,
      "t": 42207.580416665645,
      "d": 21.186416666663717,
      "v": 121
    },
    {
      "midi": 64,
      "hit": false,
      "t": 42313.51249999898,
      "d": 37.076229166661506,
      "v": 82
    },
    {
      "midi": 42,
      "hit": false,
      "t": 42318.809104165644,
      "d": 5.296604166665929,
      "v": 44
    },
    {
      "midi": 57,
      "hit": false,
      "t": 42324.10570833231,
      "d": 5.296604166665929,
      "v": 75
    },
    {
      "midi": 76,
      "hit": false,
      "t": 42324.10570833231,
      "d": 21.186416666663717,
      "v": 104
    },
    {
      "midi": 26,
      "hit": false,
      "t": 42419.44458333231,
      "d": 121.82189583332365,
      "v": 100
    },
    {
      "midi": 38,
      "hit": false,
      "t": 42419.44458333231,
      "d": 121.82189583332365,
      "v": 100
    },
    {
      "midi": 93,
      "hit": false,
      "t": 42435.33439583231,
      "d": 10.593208333331859,
      "v": 56
    },
    {
      "midi": 98,
      "hit": false,
      "t": 42435.33439583231,
      "d": 10.593208333331859,
      "v": 67
    },
    {
      "midi": 42,
      "hit": false,
      "t": 42440.630999998975,
      "d": 5.296604166665929,
      "v": 101
    },
    {
      "midi": 57,
      "hit": false,
      "t": 42440.630999998975,
      "d": 5.296604166665929,
      "v": 75
    },
    {
      "midi": 50,
      "hit": false,
      "t": 42440.630999998975,
      "d": 90.04227083332808,
      "v": 77
    },
    {
      "midi": 64,
      "hit": false,
      "t": 42451.22420833231,
      "d": 5.296604166665929,
      "v": 79
    },
    {
      "midi": 76,
      "hit": false,
      "t": 42461.81741666564,
      "d": 15.889812499997788,
      "v": 116
    },
    {
      "midi": 28,
      "hit": false,
      "t": 42546.5630833323,
      "d": 121.82189583332365,
      "v": 100
    },
    {
      "midi": 40,
      "hit": false,
      "t": 42546.5630833323,
      "d": 121.82189583332365,
      "v": 100
    },
    {
      "midi": 95,
      "hit": false,
      "t": 42562.4528958323,
      "d": 10.593208333331859,
      "v": 52
    },
    {
      "midi": 100,
      "hit": false,
      "t": 42562.4528958323,
      "d": 10.593208333331859,
      "v": 63
    },
    {
      "midi": 52,
      "hit": false,
      "t": 42567.749499998965,
      "d": 58.26264583332522,
      "v": 60
    },
    {
      "midi": 42,
      "hit": false,
      "t": 42573.04610416563,
      "d": 5.296604166665929,
      "v": 47
    },
    {
      "midi": 76,
      "hit": false,
      "t": 42578.3427083323,
      "d": 15.889812499997788,
      "v": 100
    },
    {
      "midi": 64,
      "hit": false,
      "t": 42588.93591666563,
      "d": 5.296604166665929,
      "v": 80
    },
    {
      "midi": 57,
      "hit": false,
      "t": 42599.52912499896,
      "d": 5.296604166665929,
      "v": 75
    },
    {
      "midi": 28,
      "hit": false,
      "t": 42673.68158333229,
      "d": 148.3049166666533,
      "v": 100
    },
    {
      "midi": 40,
      "hit": false,
      "t": 42673.68158333229,
      "d": 148.3049166666533,
      "v": 100
    },
    {
      "midi": 42,
      "hit": false,
      "t": 42689.57139583229,
      "d": 5.296604166665929,
      "v": 67
    },
    {
      "midi": 93,
      "hit": false,
      "t": 42689.57139583229,
      "d": 10.593208333331859,
      "v": 56
    },
    {
      "midi": 98,
      "hit": false,
      "t": 42689.57139583229,
      "d": 10.593208333331859,
      "v": 67
    },
    {
      "midi": 35,
      "hit": false,
      "t": 42694.867999998954,
      "d": 74.15245833333029,
      "v": 120
    },
    {
      "midi": 33,
      "hit": false,
      "t": 42694.867999998954,
      "d": 90.04227083332808,
      "v": 63
    },
    {
      "midi": 76,
      "hit": false,
      "t": 42694.867999998954,
      "d": 127.11849999998958,
      "v": 108
    },
    {
      "midi": 71,
      "hit": false,
      "t": 42705.461208332286,
      "d": 116.52529166665772,
      "v": 116
    },
    {
      "midi": 31,
      "hit": false,
      "t": 42800.80008333228,
      "d": 148.30491666666057,
      "v": 100
    },
    {
      "midi": 43,
      "hit": false,
      "t": 42800.80008333228,
      "d": 148.30491666666057,
      "v": 100
    },
    {
      "midi": 93,
      "hit": false,
      "t": 42816.68989583228,
      "d": 10.593208333331859,
      "v": 32
    },
    {
      "midi": 98,
      "hit": false,
      "t": 42816.68989583228,
      "d": 10.593208333331859,
      "v": 43
    },
    {
      "midi": 50,
      "hit": false,
      "t": 42821.986499998944,
      "d": 90.04227083332808,
      "v": 77
    },
    {
      "midi": 42,
      "hit": false,
      "t": 42827.28310416561,
      "d": 5.296604166665929,
      "v": 46
    },
    {
      "midi": 76,
      "hit": false,
      "t": 42832.579708332276,
      "d": 105.93208333333314,
      "v": 123
    },
    {
      "midi": 71,
      "hit": false,
      "t": 42843.17291666561,
      "d": 95.33887500000128,
      "v": 111
    },
    {
      "midi": 28,
      "hit": false,
      "t": 42938.51179166561,
      "d": 169.4913333333243,
      "v": 100
    },
    {
      "midi": 40,
      "hit": false,
      "t": 42938.51179166561,
      "d": 169.4913333333243,
      "v": 100
    },
    {
      "midi": 42,
      "hit": false,
      "t": 42949.10499999894,
      "d": 5.296604166665929,
      "v": 86
    },
    {
      "midi": 71,
      "hit": false,
      "t": 42949.10499999894,
      "d": 127.11849999999686,
      "v": 114
    },
    {
      "midi": 76,
      "hit": false,
      "t": 42949.10499999894,
      "d": 127.11849999999686,
      "v": 108
    },
    {
      "midi": 93,
      "hit": false,
      "t": 43070.92689583227,
      "d": 26.483020833329647,
      "v": 52
    },
    {
      "midi": 98,
      "hit": false,
      "t": 43070.92689583227,
      "d": 26.483020833329647,
      "v": 63
    },
    {
      "midi": 52,
      "hit": false,
      "t": 43076.22349999894,
      "d": 90.04227083333535,
      "v": 77
    },
    {
      "midi": 42,
      "hit": false,
      "t": 43081.520104165604,
      "d": 5.296604166665929,
      "v": 47
    },
    {
      "midi": 76,
      "hit": false,
      "t": 43086.81670833227,
      "d": 84.74566666666942,
      "v": 118
    },
    {
      "midi": 71,
      "hit": false,
      "t": 43097.4099166656,
      "d": 79.44906250000349,
      "v": 59
    },
    {
      "midi": 57,
      "hit": false,
      "t": 43108.00312499893,
      "d": 5.296604166665929,
      "v": 75
    },
    {
      "midi": 42,
      "hit": false,
      "t": 43198.04539583227,
      "d": 5.296604166665929,
      "v": 76
    },
    {
      "midi": 31,
      "hit": false,
      "t": 43198.04539583227,
      "d": 121.82189583333093,
      "v": 100
    },
    {
      "midi": 43,
      "hit": false,
      "t": 43198.04539583227,
      "d": 121.82189583333093,
      "v": 100
    },
    {
      "midi": 40,
      "hit": false,
      "t": 43203.341999998935,
      "d": 5.296604166665929,
      "v": 93
    },
    {
      "midi": 57,
      "hit": false,
      "t": 43203.341999998935,
      "d": 5.296604166665929,
      "v": 75
    },
    {
      "midi": 35,
      "hit": false,
      "t": 43203.341999998935,
      "d": 74.15245833333029,
      "v": 120
    },
    {
      "midi": 64,
      "hit": false,
      "t": 43213.93520833227,
      "d": 5.296604166665929,
      "v": 79
    },
    {
      "midi": 76,
      "hit": false,
      "t": 43330.46049999893,
      "d": 10.593208333331859,
      "v": 87
    },
    {
      "midi": 33,
      "hit": false,
      "t": 43330.46049999893,
      "d": 90.04227083332808,
      "v": 41
    },
    {
      "midi": 42,
      "hit": false,
      "t": 43335.7571041656,
      "d": 5.296604166665929,
      "v": 52
    },
    {
      "midi": 64,
      "hit": false,
      "t": 43341.05370833226,
      "d": 5.296604166665929,
      "v": 75
    },
    {
      "midi": 95,
      "hit": false,
      "t": 43452.28239583226,
      "d": 10.593208333331859,
      "v": 65
    },
    {
      "midi": 100,
      "hit": false,
      "t": 43452.28239583226,
      "d": 10.593208333331859,
      "v": 76
    },
    {
      "midi": 31,
      "hit": false,
      "t": 43452.28239583226,
      "d": 143.00831249999464,
      "v": 100
    },
    {
      "midi": 43,
      "hit": false,
      "t": 43452.28239583226,
      "d": 143.00831249999464,
      "v": 100
    },
    {
      "midi": 46,
      "hit": false,
      "t": 43457.57899999893,
      "d": 5.296604166665929,
      "v": 78
    },
    {
      "midi": 57,
      "hit": false,
      "t": 43457.57899999893,
      "d": 21.186416666663717,
      "v": 87
    },
    {
      "midi": 55,
      "hit": false,
      "t": 43457.57899999893,
      "d": 90.04227083332808,
      "v": 77
    },
    {
      "midi": 64,
      "hit": false,
      "t": 43468.17220833226,
      "d": 5.296604166665929,
      "v": 98
    },
    {
      "midi": 33,
      "hit": false,
      "t": 43579.40089583226,
      "d": 100.63547916666721,
      "v": 100
    },
    {
      "midi": 45,
      "hit": false,
      "t": 43579.40089583226,
      "d": 100.63547916666721,
      "v": 100
    },
    {
      "midi": 64,
      "hit": false,
      "t": 43584.697499998925,
      "d": 5.296604166665929,
      "v": 62
    },
    {
      "midi": 44,
      "hit": false,
      "t": 43589.99410416559,
      "d": 5.296604166665929,
      "v": 78
    },
    {
      "midi": 57,
      "hit": false,
      "t": 43595.29070833226,
      "d": 37.07622916666878,
      "v": 83
    },
    {
      "midi": 42,
      "hit": false,
      "t": 43706.51939583226,
      "d": 5.296604166665929,
      "v": 52
    },
    {
      "midi": 57,
      "hit": false,
      "t": 43711.81599999893,
      "d": 5.296604166665929,
      "v": 75
    },
    {
      "midi": 35,
      "hit": false,
      "t": 43711.81599999893,
      "d": 74.15245833333029,
      "v": 120
    },
    {
      "midi": 33,
      "hit": false,
      "t": 43711.81599999893,
      "d": 90.04227083332808,
      "v": 77
    },
    {
      "midi": 21,
      "hit": false,
      "t": 43711.81599999893,
      "d": 190.67774999999529,
      "v": 100
    },
    {
      "midi": 64,
      "hit": false,
      "t": 43722.40920833226,
      "d": 5.296604166665929,
      "v": 79
    },
    {
      "midi": 64,
      "hit": false,
      "t": 43838.934499998926,
      "d": 5.296604166665929,
      "v": 80
    },
    {
      "midi": 42,
      "hit": false,
      "t": 43844.23110416559,
      "d": 5.296604166665929,
      "v": 44
    },
    {
      "midi": 57,
      "hit": false,
      "t": 43849.52770833226,
      "d": 5.296604166665929,
      "v": 75
    },
    {
      "midi": 98,
      "hit": false,
      "t": 43960.75639583226,
      "d": 10.593208333331859,
      "v": 65
    },
    {
      "midi": 103,
      "hit": false,
      "t": 43960.75639583226,
      "d": 10.593208333331859,
      "v": 76
    },
    {
      "midi": 42,
      "hit": false,
      "t": 43966.05299999892,
      "d": 5.296604166665929,
      "v": 101
    },
    {
      "midi": 57,
      "hit": false,
      "t": 43966.05299999892,
      "d": 21.186416666663717,
      "v": 87
    },
    {
      "midi": 45,
      "hit": false,
      "t": 43966.05299999892,
      "d": 52.96604166666657,
      "v": 61
    },
    {
      "midi": 50,
      "hit": false,
      "t": 43966.05299999892,
      "d": 52.96604166666657,
      "v": 80
    },
    {
      "midi": 64,
      "hit": false,
      "t": 43976.646208332255,
      "d": 5.296604166665929,
      "v": 98
    },
    {
      "midi": 64,
      "hit": false,
      "t": 44093.17149999892,
      "d": 5.296604166665929,
      "v": 62
    },
    {
      "midi": 21,
      "hit": false,
      "t": 44093.17149999892,
      "d": 47.66943750000064,
      "v": 100
    },
    {
      "midi": 33,
      "hit": false,
      "t": 44093.17149999892,
      "d": 47.66943750000064,
      "v": 100
    },
    {
      "midi": 76,
      "hit": false,
      "t": 44093.17149999892,
      "d": 74.15245833333756,
      "v": 107
    },
    {
      "midi": 45,
      "hit": false,
      "t": 44093.17149999892,
      "d": 90.04227083333535,
      "v": 63
    },
    {
      "midi": 42,
      "hit": false,
      "t": 44098.468104165586,
      "d": 5.296604166665929,
      "v": 47
    },
    {
      "midi": 57,
      "hit": false,
      "t": 44103.76470833225,
      "d": 37.07622916666878,
      "v": 83
    },
    {
      "midi": 21,
      "hit": false,
      "t": 44204.40018749892,
      "d": 137.711708333336,
      "v": 100
    },
    {
      "midi": 33,
      "hit": false,
      "t": 44204.40018749892,
      "d": 137.711708333336,
      "v": 100
    },
    {
      "midi": 42,
      "hit": false,
      "t": 44214.99339583225,
      "d": 5.296604166665929,
      "v": 52
    },
    {
      "midi": 40,
      "hit": false,
      "t": 44220.28999999892,
      "d": 5.296604166665929,
      "v": 93
    },
    {
      "midi": 57,
      "hit": false,
      "t": 44220.28999999892,
      "d": 5.296604166665929,
      "v": 75
    },
    {
      "midi": 64,
      "hit": false,
      "t": 44220.28999999892,
      "d": 37.07622916666878,
      "v": 86
    },
    {
      "midi": 35,
      "hit": false,
      "t": 44220.28999999892,
      "d": 74.15245833333756,
      "v": 120
    },
    {
      "midi": 78,
      "hit": false,
      "t": 44347.40849999892,
      "d": 74.15245833333029,
      "v": 107
    },
    {
      "midi": 40,
      "hit": false,
      "t": 44347.40849999892,
      "d": 90.04227083332808,
      "v": 63
    },
    {
      "midi": 42,
      "hit": false,
      "t": 44352.70510416559,
      "d": 5.296604166665929,
      "v": 44
    },
    {
      "midi": 64,
      "hit": false,
      "t": 44358.00170833225,
      "d": 5.296604166665929,
      "v": 75
    },
    {
      "midi": 26,
      "hit": false,
      "t": 44453.34058333225,
      "d": 121.82189583332365,
      "v": 100
    },
    {
      "midi": 38,
      "hit": false,
      "t": 44453.34058333225,
      "d": 121.82189583332365,
      "v": 100
    },
    {
      "midi": 93,
      "hit": false,
      "t": 44469.230395832245,
      "d": 10.593208333331859,
      "v": 56
    },
    {
      "midi": 98,
      "hit": false,
      "t": 44469.230395832245,
      "d": 10.593208333331859,
      "v": 67
    },
    {
      "midi": 42,
      "hit": false,
      "t": 44474.52699999891,
      "d": 5.296604166665929,
      "v": 101
    },
    {
      "midi": 57,
      "hit": false,
      "t": 44474.52699999891,
      "d": 5.296604166665929,
      "v": 75
    },
    {
      "midi": 50,
      "hit": false,
      "t": 44474.52699999891,
      "d": 90.04227083332808,
      "v": 77
    },
    {
      "midi": 64,
      "hit": false,
      "t": 44485.12020833224,
      "d": 5.296604166665929,
      "v": 79
    },
    {
      "midi": 28,
      "hit": false,
      "t": 44580.459083332236,
      "d": 121.82189583332365,
      "v": 100
    },
    {
      "midi": 40,
      "hit": false,
      "t": 44580.459083332236,
      "d": 121.82189583332365,
      "v": 100
    },
    {
      "midi": 95,
      "hit": false,
      "t": 44596.348895832234,
      "d": 10.593208333331859,
      "v": 52
    },
    {
      "midi": 100,
      "hit": false,
      "t": 44596.348895832234,
      "d": 10.593208333331859,
      "v": 63
    },
    {
      "midi": 52,
      "hit": false,
      "t": 44601.6454999989,
      "d": 58.26264583332522,
      "v": 60
    },
    {
      "midi": 42,
      "hit": false,
      "t": 44606.942104165566,
      "d": 5.296604166665929,
      "v": 47
    },
    {
      "midi": 64,
      "hit": false,
      "t": 44622.831916665564,
      "d": 5.296604166665929,
      "v": 80
    },
    {
      "midi": 57,
      "hit": false,
      "t": 44633.425124998896,
      "d": 5.296604166665929,
      "v": 75
    },
    {
      "midi": 28,
      "hit": false,
      "t": 44707.577583332226,
      "d": 148.30491666664602,
      "v": 100
    },
    {
      "midi": 40,
      "hit": false,
      "t": 44707.577583332226,
      "d": 148.30491666664602,
      "v": 100
    },
    {
      "midi": 42,
      "hit": false,
      "t": 44723.467395832224,
      "d": 5.296604166665929,
      "v": 67
    },
    {
      "midi": 93,
      "hit": false,
      "t": 44723.467395832224,
      "d": 10.593208333331859,
      "v": 56
    },
    {
      "midi": 98,
      "hit": false,
      "t": 44723.467395832224,
      "d": 10.593208333331859,
      "v": 67
    },
    {
      "midi": 35,
      "hit": false,
      "t": 44728.76399999889,
      "d": 74.15245833332301,
      "v": 120
    },
    {
      "midi": 33,
      "hit": false,
      "t": 44728.76399999889,
      "d": 90.0422708333208,
      "v": 63
    },
    {
      "midi": 76,
      "hit": false,
      "t": 44728.76399999889,
      "d": 105.93208333331859,
      "v": 89
    },
    {
      "midi": 71,
      "hit": false,
      "t": 44739.35720833222,
      "d": 100.63547916665266,
      "v": 116
    },
    {
      "midi": 31,
      "hit": false,
      "t": 44834.69608333221,
      "d": 148.3049166666533,
      "v": 100
    },
    {
      "midi": 43,
      "hit": false,
      "t": 44834.69608333221,
      "d": 148.3049166666533,
      "v": 100
    },
    {
      "midi": 93,
      "hit": false,
      "t": 44850.585895832206,
      "d": 10.593208333331859,
      "v": 32
    },
    {
      "midi": 98,
      "hit": false,
      "t": 44850.585895832206,
      "d": 10.593208333331859,
      "v": 43
    },
    {
      "midi": 40,
      "hit": false,
      "t": 44855.88249999887,
      "d": 5.296604166665929,
      "v": 93
    },
    {
      "midi": 55,
      "hit": false,
      "t": 44855.88249999887,
      "d": 90.04227083332808,
      "v": 77
    },
    {
      "midi": 42,
      "hit": false,
      "t": 44861.17910416554,
      "d": 5.296604166665929,
      "v": 46
    },
    {
      "midi": 76,
      "hit": false,
      "t": 44866.475708332204,
      "d": 84.74566666666215,
      "v": 107
    },
    {
      "midi": 71,
      "hit": false,
      "t": 44877.068916665536,
      "d": 79.44906249999622,
      "v": 111
    },
    {
      "midi": 28,
      "hit": false,
      "t": 44972.40779166553,
      "d": 169.4913333333243,
      "v": 100
    },
    {
      "midi": 40,
      "hit": false,
      "t": 44972.40779166553,
      "d": 169.4913333333243,
      "v": 100
    },
    {
      "midi": 42,
      "hit": false,
      "t": 44983.00099999886,
      "d": 5.296604166665929,
      "v": 86
    },
    {
      "midi": 76,
      "hit": false,
      "t": 44983.00099999886,
      "d": 105.93208333333314,
      "v": 102
    },
    {
      "midi": 71,
      "hit": false,
      "t": 44983.00099999886,
      "d": 111.22868749999907,
      "v": 114
    },
    {
      "midi": 93,
      "hit": false,
      "t": 45104.82289583219,
      "d": 26.483020833329647,
      "v": 52
    },
    {
      "midi": 98,
      "hit": false,
      "t": 45104.82289583219,
      "d": 26.483020833329647,
      "v": 63
    },
    {
      "midi": 52,
      "hit": false,
      "t": 45110.11949999886,
      "d": 90.04227083332808,
      "v": 50
    },
    {
      "midi": 42,
      "hit": false,
      "t": 45115.416104165524,
      "d": 5.296604166665929,
      "v": 47
    },
    {
      "midi": 76,
      "hit": false,
      "t": 45120.71270833219,
      "d": 68.85585416666436,
      "v": 99
    },
    {
      "midi": 71,
      "hit": false,
      "t": 45131.30591666552,
      "d": 63.55924999999843,
      "v": 75
    },
    {
      "midi": 57,
      "hit": false,
      "t": 45141.899124998854,
      "d": 5.296604166665929,
      "v": 75
    },
    {
      "midi": 42,
      "hit": false,
      "t": 45231.94139583219,
      "d": 5.296604166665929,
      "v": 76
    },
    {
      "midi": 31,
      "hit": false,
      "t": 45231.94139583219,
      "d": 121.82189583333093,
      "v": 100
    },
    {
      "midi": 43,
      "hit": false,
      "t": 45231.94139583219,
      "d": 121.82189583333093,
      "v": 100
    },
    {
      "midi": 40,
      "hit": false,
      "t": 45237.237999998855,
      "d": 5.296604166665929,
      "v": 93
    },
    {
      "midi": 57,
      "hit": false,
      "t": 45237.237999998855,
      "d": 5.296604166665929,
      "v": 75
    },
    {
      "midi": 35,
      "hit": false,
      "t": 45237.237999998855,
      "d": 74.15245833333029,
      "v": 120
    },
    {
      "midi": 55,
      "hit": false,
      "t": 45237.237999998855,
      "d": 90.04227083332808,
      "v": 69
    },
    {
      "midi": 64,
      "hit": false,
      "t": 45247.83120833219,
      "d": 5.296604166665929,
      "v": 79
    },
    {
      "midi": 76,
      "hit": false,
      "t": 45364.35649999885,
      "d": 10.593208333331859,
      "v": 87
    },
    {
      "midi": 43,
      "hit": false,
      "t": 45364.35649999885,
      "d": 90.04227083332808,
      "v": 41
    },
    {
      "midi": 42,
      "hit": false,
      "t": 45369.65310416552,
      "d": 5.296604166665929,
      "v": 52
    },
    {
      "midi": 64,
      "hit": false,
      "t": 45374.949708332184,
      "d": 5.296604166665929,
      "v": 75
    },
    {
      "midi": 95,
      "hit": false,
      "t": 45486.17839583218,
      "d": 10.593208333331859,
      "v": 65
    },
    {
      "midi": 100,
      "hit": false,
      "t": 45486.17839583218,
      "d": 10.593208333331859,
      "v": 76
    },
    {
      "midi": 31,
      "hit": false,
      "t": 45486.17839583218,
      "d": 143.00831249999464,
      "v": 100
    },
    {
      "midi": 43,
      "hit": false,
      "t": 45486.17839583218,
      "d": 143.00831249999464,
      "v": 100
    },
    {
      "midi": 40,
      "hit": false,
      "t": 45491.47499999885,
      "d": 5.296604166665929,
      "v": 93
    },
    {
      "midi": 44,
      "hit": false,
      "t": 45491.47499999885,
      "d": 5.296604166665929,
      "v": 78
    },
    {
      "midi": 57,
      "hit": false,
      "t": 45491.47499999885,
      "d": 21.186416666663717,
      "v": 87
    },
    {
      "midi": 55,
      "hit": false,
      "t": 45491.47499999885,
      "d": 90.04227083332808,
      "v": 77
    },
    {
      "midi": 64,
      "hit": false,
      "t": 45502.06820833218,
      "d": 5.296604166665929,
      "v": 98
    },
    {
      "midi": 42,
      "hit": false,
      "t": 45576.22066666551,
      "d": 5.296604166665929,
      "v": 57
    },
    {
      "midi": 33,
      "hit": false,
      "t": 45613.29689583218,
      "d": 100.63547916666721,
      "v": 100
    },
    {
      "midi": 45,
      "hit": false,
      "t": 45613.29689583218,
      "d": 100.63547916666721,
      "v": 100
    },
    {
      "midi": 40,
      "hit": false,
      "t": 45618.593499998846,
      "d": 5.296604166665929,
      "v": 93
    },
    {
      "midi": 64,
      "hit": false,
      "t": 45618.593499998846,
      "d": 5.296604166665929,
      "v": 62
    },
    {
      "midi": 57,
      "hit": false,
      "t": 45629.18670833218,
      "d": 37.07622916666878,
      "v": 83
    },
    {
      "midi": 42,
      "hit": false,
      "t": 45740.41539583218,
      "d": 5.296604166665929,
      "v": 52
    },
    {
      "midi": 52,
      "hit": false,
      "t": 45745.71199999884,
      "d": 5.296604166665929,
      "v": 81
    },
    {
      "midi": 35,
      "hit": false,
      "t": 45745.71199999884,
      "d": 74.15245833333029,
      "v": 120
    },
    {
      "midi": 28,
      "hit": false,
      "t": 45745.71199999884,
      "d": 90.04227083332808,
      "v": 77
    },
    {
      "midi": 50,
      "hit": false,
      "t": 45745.71199999884,
      "d": 169.4913333333243,
      "v": 57
    },
    {
      "midi": 40,
      "hit": false,
      "t": 45745.71199999884,
      "d": 190.677749999988,
      "v": 100
    },
    {
      "midi": 67,
      "hit": false,
      "t": 45745.71199999884,
      "d": 243.64379166665458,
      "v": 127
    },
    {
      "midi": 59,
      "hit": false,
      "t": 45756.305208332175,
      "d": 5.296604166665929,
      "v": 85
    },
    {
      "midi": 43,
      "hit": false,
      "t": 45756.305208332175,
      "d": 185.38114583332208,
      "v": 60
    },
    {
      "midi": 66,
      "hit": false,
      "t": 45872.83049999884,
      "d": 1896.1842916666064,
      "v": 88
    },
    {
      "midi": 42,
      "hit": false,
      "t": 45878.127104165505,
      "d": 5.296604166665929,
      "v": 44
    },
    {
      "midi": 59,
      "hit": false,
      "t": 45883.42370833217,
      "d": 5.296604166665929,
      "v": 86
    },
    {
      "midi": 52,
      "hit": false,
      "t": 45894.0169166655,
      "d": 5.296604166665929,
      "v": 81
    },
    {
      "midi": 98,
      "hit": false,
      "t": 45994.65239583216,
      "d": 10.593208333331859,
      "v": 65
    },
    {
      "midi": 103,
      "hit": false,
      "t": 45994.65239583216,
      "d": 10.593208333331859,
      "v": 76
    },
    {
      "midi": 42,
      "hit": false,
      "t": 45999.94899999883,
      "d": 5.296604166665929,
      "v": 101
    },
    {
      "midi": 52,
      "hit": false,
      "t": 45999.94899999883,
      "d": 68.85585416666436,
      "v": 64
    },
    {
      "midi": 55,
      "hit": false,
      "t": 45999.94899999883,
      "d": 68.85585416666436,
      "v": 83
    },
    {
      "midi": 59,
      "hit": false,
      "t": 45999.94899999883,
      "d": 111.22868749999907,
      "v": 93
    },
    {
      "midi": 67,
      "hit": false,
      "t": 45999.94899999883,
      "d": 1769.0657916666169,
      "v": 92
    },
    {
      "midi": 64,
      "hit": false,
      "t": 46010.54220833216,
      "d": 90.04227083333535,
      "v": 104
    },
    {
      "midi": 28,
      "hit": false,
      "t": 46127.067499998826,
      "d": 47.66943750000064,
      "v": 100
    },
    {
      "midi": 40,
      "hit": false,
      "t": 46127.067499998826,
      "d": 47.66943750000064,
      "v": 63
    },
    {
      "midi": 42,
      "hit": false,
      "t": 46132.36410416549,
      "d": 5.296604166665929,
      "v": 47
    },
    {
      "midi": 59,
      "hit": false,
      "t": 46137.66070833216,
      "d": 47.66943750000064,
      "v": 94
    },
    {
      "midi": 52,
      "hit": false,
      "t": 46148.25391666549,
      "d": 37.07622916666878,
      "v": 89
    },
    {
      "midi": 28,
      "hit": false,
      "t": 46238.296187498825,
      "d": 137.711708333336,
      "v": 100
    },
    {
      "midi": 42,
      "hit": false,
      "t": 46248.88939583216,
      "d": 5.296604166665929,
      "v": 52
    },
    {
      "midi": 40,
      "hit": false,
      "t": 46254.18599999882,
      "d": 5.296604166665929,
      "v": 93
    },
    {
      "midi": 59,
      "hit": false,
      "t": 46254.18599999882,
      "d": 5.296604166665929,
      "v": 82
    },
    {
      "midi": 35,
      "hit": false,
      "t": 46254.18599999882,
      "d": 74.15245833333756,
      "v": 120
    },
    {
      "midi": 43,
      "hit": false,
      "t": 46254.18599999882,
      "d": 201.2709583333417,
      "v": 75
    },
    {
      "midi": 74,
      "hit": false,
      "t": 46291.26222916549,
      "d": 137.711708333336,
      "v": 84
    },
    {
      "midi": 42,
      "hit": false,
      "t": 46386.60110416549,
      "d": 5.296604166665929,
      "v": 44
    },
    {
      "midi": 59,
      "hit": false,
      "t": 46391.89770833216,
      "d": 5.296604166665929,
      "v": 78
    },
    {
      "midi": 26,
      "hit": false,
      "t": 46487.23658333217,
      "d": 121.82189583332365,
      "v": 100
    },
    {
      "midi": 38,
      "hit": false,
      "t": 46487.23658333217,
      "d": 121.82189583332365,
      "v": 100
    },
    {
      "midi": 93,
      "hit": false,
      "t": 46503.126395832165,
      "d": 10.593208333331859,
      "v": 56
    },
    {
      "midi": 98,
      "hit": false,
      "t": 46503.126395832165,
      "d": 10.593208333331859,
      "v": 67
    },
    {
      "midi": 42,
      "hit": false,
      "t": 46508.42299999883,
      "d": 5.296604166665929,
      "v": 101
    },
    {
      "midi": 50,
      "hit": false,
      "t": 46508.42299999883,
      "d": 5.296604166665929,
      "v": 81
    },
    {
      "midi": 74,
      "hit": false,
      "t": 46508.42299999883,
      "d": 248.9403958333205,
      "v": 91
    },
    {
      "midi": 57,
      "hit": false,
      "t": 46519.01620833216,
      "d": 5.296604166665929,
      "v": 85
    },
    {
      "midi": 62,
      "hit": false,
      "t": 46529.609416665495,
      "d": 5.296604166665929,
      "v": 96
    },
    {
      "midi": 40,
      "hit": false,
      "t": 46614.35508333216,
      "d": 153.6015208333265,
      "v": 100
    },
    {
      "midi": 95,
      "hit": false,
      "t": 46630.244895832155,
      "d": 10.593208333331859,
      "v": 52
    },
    {
      "midi": 100,
      "hit": false,
      "t": 46630.244895832155,
      "d": 10.593208333331859,
      "v": 63
    },
    {
      "midi": 64,
      "hit": false,
      "t": 46635.54149999882,
      "d": 5.296604166665929,
      "v": 102
    },
    {
      "midi": 52,
      "hit": false,
      "t": 46635.54149999882,
      "d": 58.2626458333325,
      "v": 60
    },
    {
      "midi": 42,
      "hit": false,
      "t": 46640.83810416549,
      "d": 5.296604166665929,
      "v": 47
    },
    {
      "midi": 57,
      "hit": false,
      "t": 46646.13470833215,
      "d": 5.296604166665929,
      "v": 86
    },
    {
      "midi": 50,
      "hit": false,
      "t": 46656.727916665484,
      "d": 5.296604166665929,
      "v": 81
    },
    {
      "midi": 31,
      "hit": false,
      "t": 46741.473583332154,
      "d": 116.52529166665772,
      "v": 100
    },
    {
      "midi": 43,
      "hit": false,
      "t": 46741.473583332154,
      "d": 116.52529166665772,
      "v": 100
    },
    {
      "midi": 42,
      "hit": false,
      "t": 46757.36339583215,
      "d": 5.296604166665929,
      "v": 67
    },
    {
      "midi": 93,
      "hit": false,
      "t": 46757.36339583215,
      "d": 10.593208333331859,
      "v": 56
    },
    {
      "midi": 98,
      "hit": false,
      "t": 46757.36339583215,
      "d": 10.593208333331859,
      "v": 67
    },
    {
      "midi": 28,
      "hit": false,
      "t": 46762.65999999882,
      "d": 5.296604166665929,
      "v": 63
    },
    {
      "midi": 35,
      "hit": false,
      "t": 46762.65999999882,
      "d": 74.15245833333029,
      "v": 120
    },
    {
      "midi": 57,
      "hit": false,
      "t": 46762.65999999882,
      "d": 90.04227083332808,
      "v": 93
    },
    {
      "midi": 62,
      "hit": false,
      "t": 46773.25320833215,
      "d": 58.2626458333325,
      "v": 104
    },
    {
      "midi": 73,
      "hit": false,
      "t": 46794.43962499881,
      "d": 418.4317291666448,
      "v": 67
    },
    {
      "midi": 31,
      "hit": false,
      "t": 46868.59208333214,
      "d": 148.3049166666533,
      "v": 100
    },
    {
      "midi": 43,
      "hit": false,
      "t": 46868.59208333214,
      "d": 148.3049166666533,
      "v": 100
    },
    {
      "midi": 93,
      "hit": false,
      "t": 46884.48189583214,
      "d": 10.593208333331859,
      "v": 32
    },
    {
      "midi": 98,
      "hit": false,
      "t": 46884.48189583214,
      "d": 10.593208333331859,
      "v": 43
    },
    {
      "midi": 42,
      "hit": false,
      "t": 46895.07510416547,
      "d": 5.296604166665929,
      "v": 46
    },
    {
      "midi": 57,
      "hit": false,
      "t": 46900.37170833214,
      "d": 5.296604166665929,
      "v": 124
    },
    {
      "midi": 50,
      "hit": false,
      "t": 46910.96491666547,
      "d": 5.296604166665929,
      "v": 89
    },
    {
      "midi": 28,
      "hit": false,
      "t": 47001.0071874988,
      "d": 169.4913333333243,
      "v": 100
    },
    {
      "midi": 40,
      "hit": false,
      "t": 47001.0071874988,
      "d": 169.4913333333243,
      "v": 100
    },
    {
      "midi": 42,
      "hit": false,
      "t": 47016.8969999988,
      "d": 5.296604166665929,
      "v": 86
    },
    {
      "midi": 50,
      "hit": false,
      "t": 47016.8969999988,
      "d": 5.296604166665929,
      "v": 62
    },
    {
      "midi": 57,
      "hit": false,
      "t": 47027.49020833213,
      "d": 5.296604166665929,
      "v": 114
    },
    {
      "midi": 93,
      "hit": false,
      "t": 47138.71889583213,
      "d": 26.483020833329647,
      "v": 52
    },
    {
      "midi": 98,
      "hit": false,
      "t": 47138.71889583213,
      "d": 26.483020833329647,
      "v": 63
    },
    {
      "midi": 64,
      "hit": false,
      "t": 47144.01549999879,
      "d": 84.74566666666215,
      "v": 102
    },
    {
      "midi": 52,
      "hit": false,
      "t": 47144.01549999879,
      "d": 90.04227083332808,
      "v": 58
    },
    {
      "midi": 42,
      "hit": false,
      "t": 47149.31210416546,
      "d": 5.296604166665929,
      "v": 47
    },
    {
      "midi": 31,
      "hit": false,
      "t": 47260.54079166546,
      "d": 376.0588958333319,
      "v": 100
    },
    {
      "midi": 43,
      "hit": false,
      "t": 47260.54079166546,
      "d": 376.0588958333319,
      "v": 100
    },
    {
      "midi": 42,
      "hit": false,
      "t": 47265.837395832124,
      "d": 5.296604166665929,
      "v": 76
    },
    {
      "midi": 40,
      "hit": false,
      "t": 47271.13399999879,
      "d": 5.296604166665929,
      "v": 93
    },
    {
      "midi": 35,
      "hit": false,
      "t": 47271.13399999879,
      "d": 74.15245833333029,
      "v": 120
    },
    {
      "midi": 69,
      "hit": false,
      "t": 47271.13399999879,
      "d": 460.80456249999406,
      "v": 72
    },
    {
      "midi": 28,
      "hit": false,
      "t": 47398.25249999879,
      "d": 90.04227083333535,
      "v": 41
    },
    {
      "midi": 42,
      "hit": false,
      "t": 47403.54910416545,
      "d": 5.296604166665929,
      "v": 52
    },
    {
      "midi": 95,
      "hit": false,
      "t": 47520.074395832125,
      "d": 10.593208333331859,
      "v": 65
    },
    {
      "midi": 100,
      "hit": false,
      "t": 47520.074395832125,
      "d": 10.593208333331859,
      "v": 76
    },
    {
      "midi": 46,
      "hit": false,
      "t": 47525.37099999879,
      "d": 5.296604166665929,
      "v": 78
    },
    {
      "midi": 50,
      "hit": false,
      "t": 47525.37099999879,
      "d": 5.296604166665929,
      "v": 81
    },
    {
      "midi": 55,
      "hit": false,
      "t": 47525.37099999879,
      "d": 90.04227083333535,
      "v": 77
    },
    {
      "midi": 57,
      "hit": false,
      "t": 47535.96420833212,
      "d": 105.93208333333314,
      "v": 117
    },
    {
      "midi": 33,
      "hit": false,
      "t": 47641.89629166546,
      "d": 100.63547916665993,
      "v": 100
    },
    {
      "midi": 45,
      "hit": false,
      "t": 47641.89629166546,
      "d": 100.63547916665993,
      "v": 100
    },
    {
      "midi": 57,
      "hit": false,
      "t": 47652.48949999879,
      "d": 58.2626458333325,
      "v": 60
    },
    {
      "midi": 59,
      "hit": false,
      "t": 47652.48949999879,
      "d": 105.93208333332586,
      "v": 79
    },
    {
      "midi": 44,
      "hit": false,
      "t": 47657.786104165454,
      "d": 5.296604166665929,
      "v": 78
    },
    {
      "midi": 50,
      "hit": false,
      "t": 47673.67591666545,
      "d": 5.296604166665929,
      "v": 81
    },
    {
      "midi": 42,
      "hit": false,
      "t": 47774.31139583211,
      "d": 5.296604166665929,
      "v": 52
    },
    {
      "midi": 55,
      "hit": false,
      "t": 47779.60799999878,
      "d": 5.296604166665929,
      "v": 82
    },
    {
      "midi": 35,
      "hit": false,
      "t": 47779.60799999878,
      "d": 74.15245833333029,
      "v": 120
    },
    {
      "midi": 31,
      "hit": false,
      "t": 47779.60799999878,
      "d": 90.04227083332808,
      "v": 77
    },
    {
      "midi": 50,
      "hit": false,
      "t": 47779.60799999878,
      "d": 169.49133333333157,
      "v": 57
    },
    {
      "midi": 26,
      "hit": false,
      "t": 47779.60799999878,
      "d": 190.67774999999529,
      "v": 100
    },
    {
      "midi": 38,
      "hit": false,
      "t": 47779.60799999878,
      "d": 190.67774999999529,
      "v": 100
    },
    {
      "midi": 74,
      "hit": false,
      "t": 47779.60799999878,
      "d": 370.7622916666587,
      "v": 115
    },
    {
      "midi": 54,
      "hit": false,
      "t": 47779.60799999878,
      "d": 2012.709583333257,
      "v": 68
    },
    {
      "midi": 59,
      "hit": false,
      "t": 47790.20120833211,
      "d": 5.296604166665929,
      "v": 86
    },
    {
      "midi": 45,
      "hit": false,
      "t": 47790.20120833211,
      "d": 185.38114583332936,
      "v": 60
    },
    {
      "midi": 59,
      "hit": false,
      "t": 47906.726499998775,
      "d": 5.296604166665929,
      "v": 87
    },
    {
      "midi": 42,
      "hit": false,
      "t": 47912.02310416544,
      "d": 5.296604166665929,
      "v": 44
    },
    {
      "midi": 55,
      "hit": false,
      "t": 47917.31970833211,
      "d": 5.296604166665929,
      "v": 82
    },
    {
      "midi": 98,
      "hit": false,
      "t": 48028.548395832106,
      "d": 10.593208333331859,
      "v": 65
    },
    {
      "midi": 103,
      "hit": false,
      "t": 48028.548395832106,
      "d": 10.593208333331859,
      "v": 76
    },
    {
      "midi": 42,
      "hit": false,
      "t": 48033.84499999877,
      "d": 5.296604166665929,
      "v": 101
    },
    {
      "midi": 55,
      "hit": false,
      "t": 48033.84499999877,
      "d": 21.186416666663717,
      "v": 94
    },
    {
      "midi": 47,
      "hit": false,
      "t": 48033.84499999877,
      "d": 68.85585416666436,
      "v": 64
    },
    {
      "midi": 50,
      "hit": false,
      "t": 48033.84499999877,
      "d": 68.85585416666436,
      "v": 83
    },
    {
      "midi": 59,
      "hit": false,
      "t": 48044.4382083321,
      "d": 5.296604166665929,
      "v": 105
    },
    {
      "midi": 26,
      "hit": false,
      "t": 48160.96349999877,
      "d": 47.66943750000064,
      "v": 100
    },
    {
      "midi": 38,
      "hit": false,
      "t": 48160.96349999877,
      "d": 47.66943750000064,
      "v": 100
    },
    {
      "midi": 59,
      "hit": false,
      "t": 48160.96349999877,
      "d": 47.66943750000064,
      "v": 95
    },
    {
      "midi": 31,
      "hit": false,
      "t": 48160.96349999877,
      "d": 90.04227083333535,
      "v": 63
    },
    {
      "midi": 42,
      "hit": false,
      "t": 48166.260104165434,
      "d": 5.296604166665929,
      "v": 47
    },
    {
      "midi": 55,
      "hit": false,
      "t": 48171.5567083321,
      "d": 37.07622916666878,
      "v": 90
    },
    {
      "midi": 26,
      "hit": false,
      "t": 48272.19218749877,
      "d": 137.71170833332872,
      "v": 100
    },
    {
      "midi": 42,
      "hit": false,
      "t": 48282.7853958321,
      "d": 5.296604166665929,
      "v": 52
    },
    {
      "midi": 40,
      "hit": false,
      "t": 48288.081999998765,
      "d": 5.296604166665929,
      "v": 93
    },
    {
      "midi": 59,
      "hit": false,
      "t": 48288.081999998765,
      "d": 5.296604166665929,
      "v": 83
    },
    {
      "midi": 35,
      "hit": false,
      "t": 48288.081999998765,
      "d": 74.15245833333029,
      "v": 120
    },
    {
      "midi": 38,
      "hit": false,
      "t": 48288.081999998765,
      "d": 121.82189583333093,
      "v": 63
    },
    {
      "midi": 59,
      "hit": false,
      "t": 48415.20049999876,
      "d": 5.296604166665929,
      "v": 79
    },
    {
      "midi": 42,
      "hit": false,
      "t": 48420.49710416543,
      "d": 5.296604166665929,
      "v": 44
    },
    {
      "midi": 26,
      "hit": false,
      "t": 48521.132583332095,
      "d": 121.82189583332365,
      "v": 100
    },
    {
      "midi": 38,
      "hit": false,
      "t": 48521.132583332095,
      "d": 121.82189583332365,
      "v": 100
    },
    {
      "midi": 93,
      "hit": false,
      "t": 48537.02239583209,
      "d": 10.593208333331859,
      "v": 56
    },
    {
      "midi": 98,
      "hit": false,
      "t": 48537.02239583209,
      "d": 10.593208333331859,
      "v": 67
    },
    {
      "midi": 42,
      "hit": false,
      "t": 48542.31899999876,
      "d": 5.296604166665929,
      "v": 101
    },
    {
      "midi": 55,
      "hit": false,
      "t": 48542.31899999876,
      "d": 5.296604166665929,
      "v": 82
    },
    {
      "midi": 50,
      "hit": false,
      "t": 48542.31899999876,
      "d": 90.04227083332808,
      "v": 77
    },
    {
      "midi": 62,
      "hit": false,
      "t": 48552.91220833209,
      "d": 5.296604166665929,
      "v": 86
    },
    {
      "midi": 67,
      "hit": false,
      "t": 48563.50541666542,
      "d": 5.296604166665929,
      "v": 111
    },
    {
      "midi": 28,
      "hit": false,
      "t": 48648.251083332085,
      "d": 158.89812499998516,
      "v": 100
    },
    {
      "midi": 40,
      "hit": false,
      "t": 48648.251083332085,
      "d": 158.89812499998516,
      "v": 100
    },
    {
      "midi": 95,
      "hit": false,
      "t": 48664.14089583208,
      "d": 10.593208333331859,
      "v": 52
    },
    {
      "midi": 100,
      "hit": false,
      "t": 48664.14089583208,
      "d": 10.593208333331859,
      "v": 63
    },
    {
      "midi": 52,
      "hit": false,
      "t": 48669.43749999875,
      "d": 58.26264583332522,
      "v": 60
    },
    {
      "midi": 42,
      "hit": false,
      "t": 48674.734104165414,
      "d": 5.296604166665929,
      "v": 47
    },
    {
      "midi": 67,
      "hit": false,
      "t": 48680.03070833208,
      "d": 5.296604166665929,
      "v": 117
    },
    {
      "midi": 62,
      "hit": false,
      "t": 48690.62391666541,
      "d": 5.296604166665929,
      "v": 87
    },
    {
      "midi": 55,
      "hit": false,
      "t": 48701.217124998744,
      "d": 5.296604166665929,
      "v": 82
    },
    {
      "midi": 43,
      "hit": false,
      "t": 48775.369583332074,
      "d": 116.52529166665772,
      "v": 100
    },
    {
      "midi": 42,
      "hit": false,
      "t": 48791.25939583207,
      "d": 5.296604166665929,
      "v": 46
    },
    {
      "midi": 93,
      "hit": false,
      "t": 48791.25939583207,
      "d": 10.593208333331859,
      "v": 56
    },
    {
      "midi": 98,
      "hit": false,
      "t": 48791.25939583207,
      "d": 10.593208333331859,
      "v": 67
    },
    {
      "midi": 35,
      "hit": false,
      "t": 48796.55599999874,
      "d": 74.15245833333029,
      "v": 120
    },
    {
      "midi": 31,
      "hit": false,
      "t": 48796.55599999874,
      "d": 90.04227083332808,
      "v": 63
    },
    {
      "midi": 73,
      "hit": false,
      "t": 48796.55599999874,
      "d": 376.0588958333101,
      "v": 107
    },
    {
      "midi": 62,
      "hit": false,
      "t": 48807.14920833207,
      "d": 5.296604166665929,
      "v": 86
    },
    {
      "midi": 42,
      "hit": false,
      "t": 48881.3016666654,
      "d": 5.296604166665929,
      "v": 62
    },
    {
      "midi": 31,
      "hit": false,
      "t": 48902.488083332064,
      "d": 148.3049166666533,
      "v": 100
    },
    {
      "midi": 43,
      "hit": false,
      "t": 48902.488083332064,
      "d": 148.3049166666533,
      "v": 100
    },
    {
      "midi": 93,
      "hit": false,
      "t": 48918.37789583206,
      "d": 10.593208333331859,
      "v": 32
    },
    {
      "midi": 98,
      "hit": false,
      "t": 48918.37789583206,
      "d": 10.593208333331859,
      "v": 43
    },
    {
      "midi": 55,
      "hit": false,
      "t": 48923.67449999873,
      "d": 90.04227083332808,
      "v": 77
    },
    {
      "midi": 67,
      "hit": false,
      "t": 48934.26770833206,
      "d": 5.296604166665929,
      "v": 125
    },
    {
      "midi": 62,
      "hit": false,
      "t": 48944.86091666539,
      "d": 5.296604166665929,
      "v": 90
    },
    {
      "midi": 42,
      "hit": false,
      "t": 48966.047333332055,
      "d": 5.296604166665929,
      "v": 77
    },
    {
      "midi": 28,
      "hit": false,
      "t": 49034.90318749872,
      "d": 169.4913333333243,
      "v": 100
    },
    {
      "midi": 40,
      "hit": false,
      "t": 49034.90318749872,
      "d": 169.4913333333243,
      "v": 100
    },
    {
      "midi": 42,
      "hit": false,
      "t": 49050.79299999872,
      "d": 5.296604166665929,
      "v": 86
    },
    {
      "midi": 62,
      "hit": false,
      "t": 49050.79299999872,
      "d": 5.296604166665929,
      "v": 63
    },
    {
      "midi": 67,
      "hit": false,
      "t": 49050.79299999872,
      "d": 5.296604166665929,
      "v": 115
    },
    {
      "midi": 93,
      "hit": false,
      "t": 49172.61489583205,
      "d": 26.483020833329647,
      "v": 52
    },
    {
      "midi": 98,
      "hit": false,
      "t": 49172.61489583205,
      "d": 26.483020833329647,
      "v": 63
    },
    {
      "midi": 52,
      "hit": false,
      "t": 49177.911499998714,
      "d": 90.04227083332808,
      "v": 50
    },
    {
      "midi": 74,
      "hit": false,
      "t": 49177.911499998714,
      "d": 376.05889583331737,
      "v": 105
    },
    {
      "midi": 42,
      "hit": false,
      "t": 49183.20810416538,
      "d": 5.296604166665929,
      "v": 47
    },
    {
      "midi": 64,
      "hit": false,
      "t": 49188.504708332046,
      "d": 111.22868749999907,
      "v": 103
    },
    {
      "midi": 55,
      "hit": false,
      "t": 49209.69112499871,
      "d": 5.296604166665929,
      "v": 82
    },
    {
      "midi": 31,
      "hit": false,
      "t": 49294.43679166538,
      "d": 121.82189583332365,
      "v": 100
    },
    {
      "midi": 43,
      "hit": false,
      "t": 49294.43679166538,
      "d": 121.82189583332365,
      "v": 100
    },
    {
      "midi": 42,
      "hit": false,
      "t": 49299.733395832045,
      "d": 5.296604166665929,
      "v": 76
    },
    {
      "midi": 40,
      "hit": false,
      "t": 49305.02999999871,
      "d": 5.296604166665929,
      "v": 93
    },
    {
      "midi": 35,
      "hit": false,
      "t": 49305.02999999871,
      "d": 74.15245833333029,
      "v": 120
    },
    {
      "midi": 55,
      "hit": false,
      "t": 49305.02999999871,
      "d": 90.04227083332808,
      "v": 69
    },
    {
      "midi": 66,
      "hit": false,
      "t": 49305.02999999871,
      "d": 127.11849999998958,
      "v": 115
    },
    {
      "midi": 31,
      "hit": false,
      "t": 49421.55529166537,
      "d": 169.49133333333157,
      "v": 100
    },
    {
      "midi": 69,
      "hit": false,
      "t": 49432.1484999987,
      "d": 74.15245833333029,
      "v": 101
    },
    {
      "midi": 43,
      "hit": false,
      "t": 49432.1484999987,
      "d": 90.04227083332808,
      "v": 41
    },
    {
      "midi": 42,
      "hit": false,
      "t": 49437.44510416537,
      "d": 5.296604166665929,
      "v": 52
    },
    {
      "midi": 33,
      "hit": false,
      "t": 49548.673791665366,
      "d": 100.63547916666721,
      "v": 100
    },
    {
      "midi": 45,
      "hit": false,
      "t": 49548.673791665366,
      "d": 100.63547916666721,
      "v": 100
    },
    {
      "midi": 95,
      "hit": false,
      "t": 49553.97039583203,
      "d": 10.593208333331859,
      "v": 65
    },
    {
      "midi": 100,
      "hit": false,
      "t": 49553.97039583203,
      "d": 10.593208333331859,
      "v": 76
    },
    {
      "midi": 46,
      "hit": false,
      "t": 49559.2669999987,
      "d": 5.296604166665929,
      "v": 78
    },
    {
      "midi": 62,
      "hit": false,
      "t": 49559.2669999987,
      "d": 5.296604166665929,
      "v": 63
    },
    {
      "midi": 55,
      "hit": false,
      "t": 49559.2669999987,
      "d": 90.04227083333535,
      "v": 77
    },
    {
      "midi": 44,
      "hit": false,
      "t": 49691.68210416537,
      "d": 5.296604166665929,
      "v": 78
    },
    {
      "midi": 57,
      "hit": false,
      "t": 49707.571916665365,
      "d": 5.296604166665929,
      "v": 101
    },
    {
      "midi": 42,
      "hit": false,
      "t": 49808.20739583203,
      "d": 5.296604166665929,
      "v": 52
    },
    {
      "midi": 57,
      "hit": false,
      "t": 49813.5039999987,
      "d": 5.296604166665929,
      "v": 75
    },
    {
      "midi": 35,
      "hit": false,
      "t": 49813.5039999987,
      "d": 74.15245833333029,
      "v": 120
    },
    {
      "midi": 33,
      "hit": false,
      "t": 49813.5039999987,
      "d": 90.04227083332808,
      "v": 77
    },
    {
      "midi": 52,
      "hit": false,
      "t": 49813.5039999987,
      "d": 169.49133333333157,
      "v": 57
    },
    {
      "midi": 21,
      "hit": false,
      "t": 49813.5039999987,
      "d": 190.67774999999529,
      "v": 100
    },
    {
      "midi": 49,
      "hit": false,
      "t": 49813.5039999987,
      "d": 4046.6055833331993,
      "v": 39
    },
    {
      "midi": 81,
      "hit": false,
      "t": 49813.5039999987,
      "d": 4057.198791666531,
      "v": 117
    },
    {
      "midi": 64,
      "hit": false,
      "t": 49824.09720833203,
      "d": 5.296604166665929,
      "v": 79
    },
    {
      "midi": 45,
      "hit": false,
      "t": 49824.09720833203,
      "d": 185.38114583332936,
      "v": 60
    },
    {
      "midi": 64,
      "hit": false,
      "t": 49940.622499998695,
      "d": 5.296604166665929,
      "v": 80
    },
    {
      "midi": 76,
      "hit": false,
      "t": 49940.622499998695,
      "d": 42.37283333333471,
      "v": 113
    },
    {
      "midi": 42,
      "hit": false,
      "t": 49945.91910416536,
      "d": 5.296604166665929,
      "v": 44
    },
    {
      "midi": 57,
      "hit": false,
      "t": 49951.21570833203,
      "d": 5.296604166665929,
      "v": 75
    },
    {
      "midi": 98,
      "hit": false,
      "t": 50062.444395832026,
      "d": 10.593208333331859,
      "v": 65
    },
    {
      "midi": 103,
      "hit": false,
      "t": 50062.444395832026,
      "d": 10.593208333331859,
      "v": 76
    },
    {
      "midi": 42,
      "hit": false,
      "t": 50067.74099999869,
      "d": 5.296604166665929,
      "v": 101
    },
    {
      "midi": 57,
      "hit": false,
      "t": 50067.74099999869,
      "d": 21.186416666663717,
      "v": 87
    },
    {
      "midi": 52,
      "hit": false,
      "t": 50067.74099999869,
      "d": 68.85585416666436,
      "v": 64
    },
    {
      "midi": 55,
      "hit": false,
      "t": 50067.74099999869,
      "d": 68.85585416666436,
      "v": 83
    },
    {
      "midi": 64,
      "hit": false,
      "t": 50078.334208332024,
      "d": 5.296604166665929,
      "v": 98
    },
    {
      "midi": 64,
      "hit": false,
      "t": 50194.85949999869,
      "d": 5.296604166665929,
      "v": 62
    },
    {
      "midi": 21,
      "hit": false,
      "t": 50194.85949999869,
      "d": 47.66943750000064,
      "v": 100
    },
    {
      "midi": 33,
      "hit": false,
      "t": 50194.85949999869,
      "d": 47.66943750000064,
      "v": 100
    },
    {
      "midi": 45,
      "hit": false,
      "t": 50194.85949999869,
      "d": 90.04227083333535,
      "v": 63
    },
    {
      "midi": 42,
      "hit": false,
      "t": 50200.156104165355,
      "d": 5.296604166665929,
      "v": 47
    },
    {
      "midi": 57,
      "hit": false,
      "t": 50205.45270833202,
      "d": 37.07622916666878,
      "v": 83
    },
    {
      "midi": 21,
      "hit": false,
      "t": 50306.08818749869,
      "d": 137.71170833332872,
      "v": 100
    },
    {
      "midi": 33,
      "hit": false,
      "t": 50306.08818749869,
      "d": 137.71170833332872,
      "v": 100
    },
    {
      "midi": 42,
      "hit": false,
      "t": 50316.68139583202,
      "d": 5.296604166665929,
      "v": 52
    },
    {
      "midi": 40,
      "hit": false,
      "t": 50321.977999998686,
      "d": 5.296604166665929,
      "v": 93
    },
    {
      "midi": 57,
      "hit": false,
      "t": 50321.977999998686,
      "d": 5.296604166665929,
      "v": 75
    },
    {
      "midi": 64,
      "hit": false,
      "t": 50321.977999998686,
      "d": 37.076229166661506,
      "v": 86
    },
    {
      "midi": 35,
      "hit": false,
      "t": 50321.977999998686,
      "d": 74.15245833333029,
      "v": 120
    },
    {
      "midi": 45,
      "hit": false,
      "t": 50321.977999998686,
      "d": 201.27095833332714,
      "v": 63
    },
    {
      "midi": 76,
      "hit": false,
      "t": 50343.16441666535,
      "d": 10.593208333331859,
      "v": 76
    },
    {
      "midi": 64,
      "hit": false,
      "t": 50449.09649999868,
      "d": 37.076229166661506,
      "v": 82
    },
    {
      "midi": 42,
      "hit": false,
      "t": 50454.39310416535,
      "d": 5.296604166665929,
      "v": 44
    },
    {
      "midi": 57,
      "hit": false,
      "t": 50459.689708332015,
      "d": 5.296604166665929,
      "v": 75
    },
    {
      "midi": 76,
      "hit": false,
      "t": 50459.689708332015,
      "d": 10.593208333331859,
      "v": 82
    },
    {
      "midi": 26,
      "hit": false,
      "t": 50555.028583332016,
      "d": 121.82189583332365,
      "v": 100
    },
    {
      "midi": 38,
      "hit": false,
      "t": 50555.028583332016,
      "d": 121.82189583332365,
      "v": 100
    },
    {
      "midi": 93,
      "hit": false,
      "t": 50570.91839583201,
      "d": 10.593208333331859,
      "v": 56
    },
    {
      "midi": 98,
      "hit": false,
      "t": 50570.91839583201,
      "d": 10.593208333331859,
      "v": 67
    },
    {
      "midi": 42,
      "hit": false,
      "t": 50576.21499999868,
      "d": 5.296604166665929,
      "v": 101
    },
    {
      "midi": 57,
      "hit": false,
      "t": 50576.21499999868,
      "d": 5.296604166665929,
      "v": 75
    },
    {
      "midi": 50,
      "hit": false,
      "t": 50576.21499999868,
      "d": 90.04227083332808,
      "v": 77
    },
    {
      "midi": 64,
      "hit": false,
      "t": 50586.80820833201,
      "d": 5.296604166665929,
      "v": 79
    },
    {
      "midi": 76,
      "hit": false,
      "t": 50597.40141666534,
      "d": 52.96604166666657,
      "v": 94
    },
    {
      "midi": 28,
      "hit": false,
      "t": 50682.147083332005,
      "d": 121.82189583332365,
      "v": 100
    },
    {
      "midi": 40,
      "hit": false,
      "t": 50682.147083332005,
      "d": 121.82189583332365,
      "v": 100
    },
    {
      "midi": 95,
      "hit": false,
      "t": 50698.036895832,
      "d": 10.593208333331859,
      "v": 52
    },
    {
      "midi": 100,
      "hit": false,
      "t": 50698.036895832,
      "d": 10.593208333331859,
      "v": 63
    },
    {
      "midi": 52,
      "hit": false,
      "t": 50703.33349999867,
      "d": 58.26264583332522,
      "v": 60
    },
    {
      "midi": 42,
      "hit": false,
      "t": 50708.630104165335,
      "d": 5.296604166665929,
      "v": 47
    },
    {
      "midi": 76,
      "hit": false,
      "t": 50713.926708332,
      "d": 52.966041666659294,
      "v": 100
    },
    {
      "midi": 64,
      "hit": false,
      "t": 50724.51991666533,
      "d": 5.296604166665929,
      "v": 80
    },
    {
      "midi": 57,
      "hit": false,
      "t": 50735.113124998665,
      "d": 5.296604166665929,
      "v": 75
    },
    {
      "midi": 28,
      "hit": false,
      "t": 50809.265583331995,
      "d": 148.3049166666533,
      "v": 100
    },
    {
      "midi": 40,
      "hit": false,
      "t": 50809.265583331995,
      "d": 148.3049166666533,
      "v": 100
    },
    {
      "midi": 42,
      "hit": false,
      "t": 50825.15539583199,
      "d": 5.296604166665929,
      "v": 67
    },
    {
      "midi": 93,
      "hit": false,
      "t": 50825.15539583199,
      "d": 10.593208333331859,
      "v": 56
    },
    {
      "midi": 98,
      "hit": false,
      "t": 50825.15539583199,
      "d": 10.593208333331859,
      "v": 67
    },
    {
      "midi": 35,
      "hit": false,
      "t": 50830.45199999866,
      "d": 74.15245833333029,
      "v": 120
    },
    {
      "midi": 33,
      "hit": false,
      "t": 50830.45199999866,
      "d": 90.04227083332808,
      "v": 63
    },
    {
      "midi": 76,
      "hit": false,
      "t": 50830.45199999866,
      "d": 127.11849999998958,
      "v": 108
    },
    {
      "midi": 71,
      "hit": false,
      "t": 50841.04520833199,
      "d": 116.52529166665772,
      "v": 116
    },
    {
      "midi": 31,
      "hit": false,
      "t": 50936.384083331985,
      "d": 148.30491666666057,
      "v": 100
    },
    {
      "midi": 43,
      "hit": false,
      "t": 50936.384083331985,
      "d": 148.30491666666057,
      "v": 100
    },
    {
      "midi": 93,
      "hit": false,
      "t": 50952.27389583198,
      "d": 10.593208333331859,
      "v": 32
    },
    {
      "midi": 98,
      "hit": false,
      "t": 50952.27389583198,
      "d": 10.593208333331859,
      "v": 43
    },
    {
      "midi": 50,
      "hit": false,
      "t": 50957.57049999865,
      "d": 90.04227083332808,
      "v": 77
    },
    {
      "midi": 42,
      "hit": false,
      "t": 50962.867104165314,
      "d": 5.296604166665929,
      "v": 46
    },
    {
      "midi": 76,
      "hit": false,
      "t": 50968.16370833198,
      "d": 105.93208333333314,
      "v": 123
    },
    {
      "midi": 71,
      "hit": false,
      "t": 50978.75691666531,
      "d": 95.33887500000128,
      "v": 111
    },
    {
      "midi": 28,
      "hit": false,
      "t": 51074.09579166531,
      "d": 169.4913333333243,
      "v": 100
    },
    {
      "midi": 40,
      "hit": false,
      "t": 51074.09579166531,
      "d": 169.4913333333243,
      "v": 100
    },
    {
      "midi": 42,
      "hit": false,
      "t": 51084.688999998645,
      "d": 5.296604166665929,
      "v": 86
    },
    {
      "midi": 71,
      "hit": false,
      "t": 51084.688999998645,
      "d": 127.11849999999686,
      "v": 114
    },
    {
      "midi": 76,
      "hit": false,
      "t": 51084.688999998645,
      "d": 127.11849999999686,
      "v": 108
    },
    {
      "midi": 93,
      "hit": false,
      "t": 51206.510895831976,
      "d": 26.483020833329647,
      "v": 52
    },
    {
      "midi": 98,
      "hit": false,
      "t": 51206.510895831976,
      "d": 26.483020833329647,
      "v": 63
    },
    {
      "midi": 52,
      "hit": false,
      "t": 51211.80749999864,
      "d": 90.04227083333535,
      "v": 77
    },
    {
      "midi": 42,
      "hit": false,
      "t": 51217.10410416531,
      "d": 5.296604166665929,
      "v": 47
    },
    {
      "midi": 76,
      "hit": false,
      "t": 51222.400708331974,
      "d": 84.74566666666942,
      "v": 118
    },
    {
      "midi": 71,
      "hit": false,
      "t": 51232.993916665306,
      "d": 79.44906250000349,
      "v": 59
    },
    {
      "midi": 57,
      "hit": false,
      "t": 51243.58712499864,
      "d": 5.296604166665929,
      "v": 75
    },
    {
      "midi": 42,
      "hit": false,
      "t": 51333.62939583197,
      "d": 5.296604166665929,
      "v": 76
    },
    {
      "midi": 31,
      "hit": false,
      "t": 51333.62939583197,
      "d": 121.82189583333093,
      "v": 100
    },
    {
      "midi": 43,
      "hit": false,
      "t": 51333.62939583197,
      "d": 121.82189583333093,
      "v": 100
    },
    {
      "midi": 40,
      "hit": false,
      "t": 51338.92599999864,
      "d": 5.296604166665929,
      "v": 93
    },
    {
      "midi": 57,
      "hit": false,
      "t": 51338.92599999864,
      "d": 5.296604166665929,
      "v": 75
    },
    {
      "midi": 35,
      "hit": false,
      "t": 51338.92599999864,
      "d": 74.15245833333029,
      "v": 120
    },
    {
      "midi": 64,
      "hit": false,
      "t": 51349.51920833197,
      "d": 5.296604166665929,
      "v": 79
    },
    {
      "midi": 76,
      "hit": false,
      "t": 51466.044499998636,
      "d": 10.593208333331859,
      "v": 87
    },
    {
      "midi": 33,
      "hit": false,
      "t": 51466.044499998636,
      "d": 90.04227083332808,
      "v": 41
    },
    {
      "midi": 42,
      "hit": false,
      "t": 51471.3411041653,
      "d": 5.296604166665929,
      "v": 52
    },
    {
      "midi": 64,
      "hit": false,
      "t": 51476.63770833197,
      "d": 5.296604166665929,
      "v": 75
    },
    {
      "midi": 95,
      "hit": false,
      "t": 51587.86639583197,
      "d": 10.593208333331859,
      "v": 65
    },
    {
      "midi": 100,
      "hit": false,
      "t": 51587.86639583197,
      "d": 10.593208333331859,
      "v": 76
    },
    {
      "midi": 31,
      "hit": false,
      "t": 51587.86639583197,
      "d": 143.00831249999464,
      "v": 100
    },
    {
      "midi": 43,
      "hit": false,
      "t": 51587.86639583197,
      "d": 143.00831249999464,
      "v": 100
    },
    {
      "midi": 46,
      "hit": false,
      "t": 51593.16299999863,
      "d": 5.296604166665929,
      "v": 78
    },
    {
      "midi": 57,
      "hit": false,
      "t": 51593.16299999863,
      "d": 21.186416666663717,
      "v": 87
    },
    {
      "midi": 55,
      "hit": false,
      "t": 51593.16299999863,
      "d": 90.04227083332808,
      "v": 77
    },
    {
      "midi": 64,
      "hit": false,
      "t": 51603.756208331964,
      "d": 5.296604166665929,
      "v": 98
    },
    {
      "midi": 33,
      "hit": false,
      "t": 51714.98489583196,
      "d": 100.63547916666721,
      "v": 100
    },
    {
      "midi": 45,
      "hit": false,
      "t": 51714.98489583196,
      "d": 100.63547916666721,
      "v": 100
    },
    {
      "midi": 64,
      "hit": false,
      "t": 51720.28149999863,
      "d": 5.296604166665929,
      "v": 62
    },
    {
      "midi": 44,
      "hit": false,
      "t": 51725.578104165295,
      "d": 5.296604166665929,
      "v": 78
    },
    {
      "midi": 57,
      "hit": false,
      "t": 51730.87470833196,
      "d": 37.07622916666878,
      "v": 83
    },
    {
      "midi": 42,
      "hit": false,
      "t": 51842.10339583197,
      "d": 5.296604166665929,
      "v": 52
    },
    {
      "midi": 57,
      "hit": false,
      "t": 51847.39999999863,
      "d": 5.296604166665929,
      "v": 75
    },
    {
      "midi": 35,
      "hit": false,
      "t": 51847.39999999863,
      "d": 74.15245833333029,
      "v": 120
    },
    {
      "midi": 33,
      "hit": false,
      "t": 51847.39999999863,
      "d": 90.04227083332808,
      "v": 77
    },
    {
      "midi": 21,
      "hit": false,
      "t": 51847.39999999863,
      "d": 190.67774999999529,
      "v": 100
    },
    {
      "midi": 64,
      "hit": false,
      "t": 51857.993208331965,
      "d": 5.296604166665929,
      "v": 79
    },
    {
      "midi": 64,
      "hit": false,
      "t": 51974.51849999863,
      "d": 5.296604166665929,
      "v": 80
    },
    {
      "midi": 42,
      "hit": false,
      "t": 51979.815104165296,
      "d": 5.296604166665929,
      "v": 44
    },
    {
      "midi": 57,
      "hit": false,
      "t": 51985.11170833196,
      "d": 5.296604166665929,
      "v": 75
    },
    {
      "midi": 98,
      "hit": false,
      "t": 52096.34039583196,
      "d": 10.593208333331859,
      "v": 65
    },
    {
      "midi": 103,
      "hit": false,
      "t": 52096.34039583196,
      "d": 10.593208333331859,
      "v": 76
    },
    {
      "midi": 42,
      "hit": false,
      "t": 52101.63699999863,
      "d": 5.296604166665929,
      "v": 101
    },
    {
      "midi": 57,
      "hit": false,
      "t": 52101.63699999863,
      "d": 21.186416666663717,
      "v": 87
    },
    {
      "midi": 45,
      "hit": false,
      "t": 52101.63699999863,
      "d": 52.96604166666657,
      "v": 61
    },
    {
      "midi": 50,
      "hit": false,
      "t": 52101.63699999863,
      "d": 52.96604166666657,
      "v": 80
    },
    {
      "midi": 64,
      "hit": false,
      "t": 52112.23020833196,
      "d": 5.296604166665929,
      "v": 98
    },
    {
      "midi": 64,
      "hit": false,
      "t": 52228.755499998624,
      "d": 5.296604166665929,
      "v": 62
    },
    {
      "midi": 76,
      "hit": false,
      "t": 52228.755499998624,
      "d": 42.37283333333471,
      "v": 127
    },
    {
      "midi": 21,
      "hit": false,
      "t": 52228.755499998624,
      "d": 47.66943750000064,
      "v": 100
    },
    {
      "midi": 33,
      "hit": false,
      "t": 52228.755499998624,
      "d": 47.66943750000064,
      "v": 100
    },
    {
      "midi": 45,
      "hit": false,
      "t": 52228.755499998624,
      "d": 90.04227083333535,
      "v": 63
    },
    {
      "midi": 42,
      "hit": false,
      "t": 52234.05210416529,
      "d": 5.296604166665929,
      "v": 47
    },
    {
      "midi": 57,
      "hit": false,
      "t": 52239.348708331956,
      "d": 37.07622916666878,
      "v": 83
    },
    {
      "midi": 21,
      "hit": false,
      "t": 52339.98418749862,
      "d": 137.711708333336,
      "v": 100
    },
    {
      "midi": 33,
      "hit": false,
      "t": 52339.98418749862,
      "d": 137.711708333336,
      "v": 100
    },
    {
      "midi": 42,
      "hit": false,
      "t": 52350.577395831955,
      "d": 5.296604166665929,
      "v": 52
    },
    {
      "midi": 40,
      "hit": false,
      "t": 52355.87399999862,
      "d": 5.296604166665929,
      "v": 93
    },
    {
      "midi": 57,
      "hit": false,
      "t": 52355.87399999862,
      "d": 5.296604166665929,
      "v": 75
    },
    {
      "midi": 64,
      "hit": false,
      "t": 52355.87399999862,
      "d": 37.07622916666878,
      "v": 86
    },
    {
      "midi": 35,
      "hit": false,
      "t": 52355.87399999862,
      "d": 74.15245833333756,
      "v": 120
    },
    {
      "midi": 76,
      "hit": false,
      "t": 52482.992499998625,
      "d": 42.37283333333471,
      "v": 127
    },
    {
      "midi": 40,
      "hit": false,
      "t": 52482.992499998625,
      "d": 90.04227083333535,
      "v": 63
    },
    {
      "midi": 42,
      "hit": false,
      "t": 52488.28910416529,
      "d": 5.296604166665929,
      "v": 44
    },
    {
      "midi": 64,
      "hit": false,
      "t": 52493.58570833196,
      "d": 5.296604166665929,
      "v": 75
    },
    {
      "midi": 26,
      "hit": false,
      "t": 52588.92458333196,
      "d": 121.82189583332365,
      "v": 100
    },
    {
      "midi": 38,
      "hit": false,
      "t": 52588.92458333196,
      "d": 121.82189583332365,
      "v": 100
    },
    {
      "midi": 93,
      "hit": false,
      "t": 52604.814395831956,
      "d": 10.593208333331859,
      "v": 56
    },
    {
      "midi": 98,
      "hit": false,
      "t": 52604.814395831956,
      "d": 10.593208333331859,
      "v": 67
    },
    {
      "midi": 42,
      "hit": false,
      "t": 52610.11099999862,
      "d": 5.296604166665929,
      "v": 101
    },
    {
      "midi": 57,
      "hit": false,
      "t": 52610.11099999862,
      "d": 5.296604166665929,
      "v": 75
    },
    {
      "midi": 50,
      "hit": false,
      "t": 52610.11099999862,
      "d": 90.04227083332808,
      "v": 77
    },
    {
      "midi": 69,
      "hit": false,
      "t": 52610.11099999862,
      "d": 148.3049166666533,
      "v": 79
    },
    {
      "midi": 64,
      "hit": false,
      "t": 52620.704208331954,
      "d": 5.296604166665929,
      "v": 79
    },
    {
      "midi": 70,
      "hit": false,
      "t": 52694.856666665284,
      "d": 148.3049166666533,
      "v": 78
    },
    {
      "midi": 28,
      "hit": false,
      "t": 52716.04308333195,
      "d": 121.82189583332365,
      "v": 100
    },
    {
      "midi": 40,
      "hit": false,
      "t": 52716.04308333195,
      "d": 121.82189583332365,
      "v": 100
    },
    {
      "midi": 95,
      "hit": false,
      "t": 52731.932895831946,
      "d": 10.593208333331859,
      "v": 52
    },
    {
      "midi": 100,
      "hit": false,
      "t": 52731.932895831946,
      "d": 10.593208333331859,
      "v": 63
    },
    {
      "midi": 52,
      "hit": false,
      "t": 52737.22949999861,
      "d": 58.26264583332522,
      "v": 60
    },
    {
      "midi": 42,
      "hit": false,
      "t": 52742.52610416528,
      "d": 5.296604166665929,
      "v": 47
    },
    {
      "midi": 64,
      "hit": false,
      "t": 52758.415916665275,
      "d": 5.296604166665929,
      "v": 80
    },
    {
      "midi": 57,
      "hit": false,
      "t": 52769.00912499861,
      "d": 5.296604166665929,
      "v": 75
    },
    {
      "midi": 69,
      "hit": false,
      "t": 52779.60233333194,
      "d": 1038.134416666624,
      "v": 79
    },
    {
      "midi": 28,
      "hit": false,
      "t": 52843.16158333194,
      "d": 148.3049166666533,
      "v": 100
    },
    {
      "midi": 40,
      "hit": false,
      "t": 52843.16158333194,
      "d": 148.3049166666533,
      "v": 100
    },
    {
      "midi": 42,
      "hit": false,
      "t": 52859.051395831935,
      "d": 5.296604166665929,
      "v": 67
    },
    {
      "midi": 93,
      "hit": false,
      "t": 52859.051395831935,
      "d": 10.593208333331859,
      "v": 56
    },
    {
      "midi": 98,
      "hit": false,
      "t": 52859.051395831935,
      "d": 10.593208333331859,
      "v": 67
    },
    {
      "midi": 35,
      "hit": false,
      "t": 52864.3479999986,
      "d": 74.15245833333029,
      "v": 120
    },
    {
      "midi": 33,
      "hit": false,
      "t": 52864.3479999986,
      "d": 90.04227083332808,
      "v": 63
    },
    {
      "midi": 76,
      "hit": false,
      "t": 52864.3479999986,
      "d": 105.93208333332586,
      "v": 89
    },
    {
      "midi": 70,
      "hit": false,
      "t": 52864.3479999986,
      "d": 953.3887499999619,
      "v": 72
    },
    {
      "midi": 71,
      "hit": false,
      "t": 52874.94120833193,
      "d": 100.63547916665993,
      "v": 116
    },
    {
      "midi": 31,
      "hit": false,
      "t": 52970.28008333193,
      "d": 148.3049166666533,
      "v": 100
    },
    {
      "midi": 43,
      "hit": false,
      "t": 52970.28008333193,
      "d": 148.3049166666533,
      "v": 100
    },
    {
      "midi": 93,
      "hit": false,
      "t": 52986.169895831925,
      "d": 10.593208333331859,
      "v": 32
    },
    {
      "midi": 98,
      "hit": false,
      "t": 52986.169895831925,
      "d": 10.593208333331859,
      "v": 43
    },
    {
      "midi": 55,
      "hit": false,
      "t": 52991.46649999859,
      "d": 90.04227083332808,
      "v": 77
    },
    {
      "midi": 42,
      "hit": false,
      "t": 52996.76310416526,
      "d": 5.296604166665929,
      "v": 46
    },
    {
      "midi": 76,
      "hit": false,
      "t": 53002.05970833192,
      "d": 84.74566666666215,
      "v": 107
    },
    {
      "midi": 71,
      "hit": false,
      "t": 53012.652916665254,
      "d": 79.44906249999622,
      "v": 111
    },
    {
      "midi": 28,
      "hit": false,
      "t": 53107.99179166525,
      "d": 169.4913333333243,
      "v": 100
    },
    {
      "midi": 40,
      "hit": false,
      "t": 53107.99179166525,
      "d": 169.4913333333243,
      "v": 100
    },
    {
      "midi": 42,
      "hit": false,
      "t": 53118.58499999858,
      "d": 5.296604166665929,
      "v": 86
    },
    {
      "midi": 76,
      "hit": false,
      "t": 53118.58499999858,
      "d": 105.93208333333314,
      "v": 102
    },
    {
      "midi": 71,
      "hit": false,
      "t": 53118.58499999858,
      "d": 111.22868749999907,
      "v": 114
    },
    {
      "midi": 72,
      "hit": false,
      "t": 53118.58499999858,
      "d": 699.1517499999827,
      "v": 81
    },
    {
      "midi": 93,
      "hit": false,
      "t": 53240.40689583191,
      "d": 26.483020833329647,
      "v": 52
    },
    {
      "midi": 98,
      "hit": false,
      "t": 53240.40689583191,
      "d": 26.483020833329647,
      "v": 63
    },
    {
      "midi": 52,
      "hit": false,
      "t": 53245.70349999858,
      "d": 90.04227083332808,
      "v": 50
    },
    {
      "midi": 73,
      "hit": false,
      "t": 53245.70349999858,
      "d": 572.0332499999859,
      "v": 85
    },
    {
      "midi": 42,
      "hit": false,
      "t": 53251.00010416524,
      "d": 5.296604166665929,
      "v": 47
    },
    {
      "midi": 76,
      "hit": false,
      "t": 53256.29670833191,
      "d": 68.85585416666436,
      "v": 99
    },
    {
      "midi": 71,
      "hit": false,
      "t": 53266.88991666524,
      "d": 63.55924999999843,
      "v": 75
    },
    {
      "midi": 57,
      "hit": false,
      "t": 53277.48312499857,
      "d": 5.296604166665929,
      "v": 75
    },
    {
      "midi": 42,
      "hit": false,
      "t": 53367.52539583191,
      "d": 5.296604166665929,
      "v": 76
    },
    {
      "midi": 31,
      "hit": false,
      "t": 53367.52539583191,
      "d": 121.82189583333093,
      "v": 100
    },
    {
      "midi": 43,
      "hit": false,
      "t": 53367.52539583191,
      "d": 121.82189583333093,
      "v": 100
    },
    {
      "midi": 40,
      "hit": false,
      "t": 53372.821999998574,
      "d": 5.296604166665929,
      "v": 93
    },
    {
      "midi": 57,
      "hit": false,
      "t": 53372.821999998574,
      "d": 5.296604166665929,
      "v": 75
    },
    {
      "midi": 35,
      "hit": false,
      "t": 53372.821999998574,
      "d": 74.15245833333029,
      "v": 120
    },
    {
      "midi": 55,
      "hit": false,
      "t": 53372.821999998574,
      "d": 90.04227083332808,
      "v": 69
    },
    {
      "midi": 74,
      "hit": false,
      "t": 53372.821999998574,
      "d": 444.914749999989,
      "v": 94
    },
    {
      "midi": 64,
      "hit": false,
      "t": 53383.415208331906,
      "d": 5.296604166665929,
      "v": 79
    },
    {
      "midi": 76,
      "hit": false,
      "t": 53499.94049999857,
      "d": 10.593208333331859,
      "v": 87
    },
    {
      "midi": 43,
      "hit": false,
      "t": 53499.94049999857,
      "d": 90.04227083332808,
      "v": 41
    },
    {
      "midi": 42,
      "hit": false,
      "t": 53505.23710416524,
      "d": 5.296604166665929,
      "v": 52
    },
    {
      "midi": 64,
      "hit": false,
      "t": 53510.5337083319,
      "d": 5.296604166665929,
      "v": 75
    },
    {
      "midi": 95,
      "hit": false,
      "t": 53621.7623958319,
      "d": 10.593208333331859,
      "v": 65
    },
    {
      "midi": 100,
      "hit": false,
      "t": 53621.7623958319,
      "d": 10.593208333331859,
      "v": 76
    },
    {
      "midi": 31,
      "hit": false,
      "t": 53621.7623958319,
      "d": 143.00831249999464,
      "v": 100
    },
    {
      "midi": 43,
      "hit": false,
      "t": 53621.7623958319,
      "d": 143.00831249999464,
      "v": 100
    },
    {
      "midi": 44,
      "hit": false,
      "t": 53627.05899999857,
      "d": 5.296604166665929,
      "v": 78
    },
    {
      "midi": 57,
      "hit": false,
      "t": 53627.05899999857,
      "d": 21.186416666663717,
      "v": 87
    },
    {
      "midi": 55,
      "hit": false,
      "t": 53627.05899999857,
      "d": 90.04227083332808,
      "v": 77
    },
    {
      "midi": 77,
      "hit": false,
      "t": 53627.05899999857,
      "d": 190.67774999999529,
      "v": 87
    },
    {
      "midi": 64,
      "hit": false,
      "t": 53637.6522083319,
      "d": 5.296604166665929,
      "v": 98
    },
    {
      "midi": 42,
      "hit": false,
      "t": 53711.80466666523,
      "d": 5.296604166665929,
      "v": 57
    },
    {
      "midi": 33,
      "hit": false,
      "t": 53748.8808958319,
      "d": 100.63547916666721,
      "v": 100
    },
    {
      "midi": 45,
      "hit": false,
      "t": 53748.8808958319,
      "d": 100.63547916666721,
      "v": 100
    },
    {
      "midi": 64,
      "hit": false,
      "t": 53754.177499998565,
      "d": 5.296604166665929,
      "v": 62
    },
    {
      "midi": 78,
      "hit": false,
      "t": 53754.177499998565,
      "d": 190.67774999999529,
      "v": 79
    },
    {
      "midi": 57,
      "hit": false,
      "t": 53764.7707083319,
      "d": 37.07622916666878,
      "v": 83
    },
    {
      "midi": 42,
      "hit": false,
      "t": 53875.999395831896,
      "d": 5.296604166665929,
      "v": 52
    },
    {
      "midi": 52,
      "hit": false,
      "t": 53881.29599999856,
      "d": 5.296604166665929,
      "v": 81
    },
    {
      "midi": 35,
      "hit": false,
      "t": 53881.29599999856,
      "d": 74.15245833333029,
      "v": 120
    },
    {
      "midi": 28,
      "hit": false,
      "t": 53881.29599999856,
      "d": 90.04227083332808,
      "v": 77
    },
    {
      "midi": 50,
      "hit": false,
      "t": 53881.29599999856,
      "d": 169.4913333333243,
      "v": 57
    },
    {
      "midi": 40,
      "hit": false,
      "t": 53881.29599999856,
      "d": 190.677749999988,
      "v": 100
    },
    {
      "midi": 67,
      "hit": false,
      "t": 53881.29599999856,
      "d": 243.64379166665458,
      "v": 127
    },
    {
      "midi": 79,
      "hit": false,
      "t": 53881.29599999856,
      "d": 444.9147499999817,
      "v": 98
    },
    {
      "midi": 59,
      "hit": false,
      "t": 53891.88920833189,
      "d": 5.296604166665929,
      "v": 85
    },
    {
      "midi": 43,
      "hit": false,
      "t": 53891.88920833189,
      "d": 185.38114583332208,
      "v": 60
    },
    {
      "midi": 66,
      "hit": false,
      "t": 54008.41449999856,
      "d": 1896.1842916665846,
      "v": 88
    },
    {
      "midi": 42,
      "hit": false,
      "t": 54013.711104165224,
      "d": 5.296604166665929,
      "v": 44
    },
    {
      "midi": 59,
      "hit": false,
      "t": 54019.00770833189,
      "d": 5.296604166665929,
      "v": 86
    },
    {
      "midi": 52,
      "hit": false,
      "t": 54029.60091666522,
      "d": 5.296604166665929,
      "v": 81
    },
    {
      "midi": 98,
      "hit": false,
      "t": 54130.23639583188,
      "d": 10.593208333331859,
      "v": 65
    },
    {
      "midi": 103,
      "hit": false,
      "t": 54130.23639583188,
      "d": 10.593208333331859,
      "v": 76
    },
    {
      "midi": 42,
      "hit": false,
      "t": 54135.53299999855,
      "d": 5.296604166665929,
      "v": 101
    },
    {
      "midi": 52,
      "hit": false,
      "t": 54135.53299999855,
      "d": 68.85585416666436,
      "v": 64
    },
    {
      "midi": 55,
      "hit": false,
      "t": 54135.53299999855,
      "d": 68.85585416666436,
      "v": 83
    },
    {
      "midi": 59,
      "hit": false,
      "t": 54135.53299999855,
      "d": 111.22868749999907,
      "v": 93
    },
    {
      "midi": 67,
      "hit": false,
      "t": 54135.53299999855,
      "d": 1769.065791666595,
      "v": 92
    },
    {
      "midi": 64,
      "hit": false,
      "t": 54146.12620833188,
      "d": 90.04227083333535,
      "v": 104
    },
    {
      "midi": 28,
      "hit": false,
      "t": 54262.651499998545,
      "d": 47.66943750000064,
      "v": 100
    },
    {
      "midi": 40,
      "hit": false,
      "t": 54262.651499998545,
      "d": 47.66943750000064,
      "v": 63
    },
    {
      "midi": 42,
      "hit": false,
      "t": 54267.94810416521,
      "d": 5.296604166665929,
      "v": 47
    },
    {
      "midi": 59,
      "hit": false,
      "t": 54273.24470833188,
      "d": 47.66943750000064,
      "v": 94
    },
    {
      "midi": 52,
      "hit": false,
      "t": 54283.83791666521,
      "d": 37.07622916666878,
      "v": 89
    },
    {
      "midi": 28,
      "hit": false,
      "t": 54373.880187498544,
      "d": 137.71170833332872,
      "v": 100
    },
    {
      "midi": 42,
      "hit": false,
      "t": 54384.473395831876,
      "d": 5.296604166665929,
      "v": 52
    },
    {
      "midi": 40,
      "hit": false,
      "t": 54389.76999999854,
      "d": 5.296604166665929,
      "v": 93
    },
    {
      "midi": 59,
      "hit": false,
      "t": 54389.76999999854,
      "d": 5.296604166665929,
      "v": 82
    },
    {
      "midi": 35,
      "hit": false,
      "t": 54389.76999999854,
      "d": 74.15245833333029,
      "v": 120
    },
    {
      "midi": 43,
      "hit": false,
      "t": 54389.76999999854,
      "d": 201.27095833332714,
      "v": 75
    },
    {
      "midi": 74,
      "hit": false,
      "t": 54389.76999999854,
      "d": 487.28758333331643,
      "v": 77
    },
    {
      "midi": 42,
      "hit": false,
      "t": 54522.185104165204,
      "d": 5.296604166665929,
      "v": 44
    },
    {
      "midi": 59,
      "hit": false,
      "t": 54527.48170833187,
      "d": 5.296604166665929,
      "v": 78
    },
    {
      "midi": 26,
      "hit": false,
      "t": 54622.82058333187,
      "d": 121.82189583332365,
      "v": 100
    },
    {
      "midi": 38,
      "hit": false,
      "t": 54622.82058333187,
      "d": 121.82189583332365,
      "v": 100
    },
    {
      "midi": 93,
      "hit": false,
      "t": 54638.71039583187,
      "d": 10.593208333331859,
      "v": 56
    },
    {
      "midi": 98,
      "hit": false,
      "t": 54638.71039583187,
      "d": 10.593208333331859,
      "v": 67
    },
    {
      "midi": 42,
      "hit": false,
      "t": 54644.006999998535,
      "d": 5.296604166665929,
      "v": 101
    },
    {
      "midi": 50,
      "hit": false,
      "t": 54644.006999998535,
      "d": 5.296604166665929,
      "v": 81
    },
    {
      "midi": 57,
      "hit": false,
      "t": 54654.60020833187,
      "d": 5.296604166665929,
      "v": 85
    },
    {
      "midi": 62,
      "hit": false,
      "t": 54665.1934166652,
      "d": 5.296604166665929,
      "v": 96
    },
    {
      "midi": 40,
      "hit": false,
      "t": 54749.93908333186,
      "d": 153.6015208333265,
      "v": 100
    },
    {
      "midi": 95,
      "hit": false,
      "t": 54765.82889583186,
      "d": 10.593208333331859,
      "v": 52
    },
    {
      "midi": 100,
      "hit": false,
      "t": 54765.82889583186,
      "d": 10.593208333331859,
      "v": 63
    },
    {
      "midi": 64,
      "hit": false,
      "t": 54771.125499998525,
      "d": 5.296604166665929,
      "v": 102
    },
    {
      "midi": 52,
      "hit": false,
      "t": 54771.125499998525,
      "d": 58.2626458333325,
      "v": 60
    },
    {
      "midi": 42,
      "hit": false,
      "t": 54776.42210416519,
      "d": 5.296604166665929,
      "v": 47
    },
    {
      "midi": 57,
      "hit": false,
      "t": 54781.71870833186,
      "d": 5.296604166665929,
      "v": 86
    },
    {
      "midi": 50,
      "hit": false,
      "t": 54792.31191666519,
      "d": 5.296604166665929,
      "v": 81
    },
    {
      "midi": 31,
      "hit": false,
      "t": 54877.05758333186,
      "d": 116.52529166665772,
      "v": 100
    },
    {
      "midi": 43,
      "hit": false,
      "t": 54877.05758333186,
      "d": 116.52529166665772,
      "v": 100
    },
    {
      "midi": 42,
      "hit": false,
      "t": 54892.947395831856,
      "d": 5.296604166665929,
      "v": 67
    },
    {
      "midi": 93,
      "hit": false,
      "t": 54892.947395831856,
      "d": 10.593208333331859,
      "v": 56
    },
    {
      "midi": 98,
      "hit": false,
      "t": 54892.947395831856,
      "d": 10.593208333331859,
      "v": 67
    },
    {
      "midi": 28,
      "hit": false,
      "t": 54898.24399999852,
      "d": 5.296604166665929,
      "v": 63
    },
    {
      "midi": 35,
      "hit": false,
      "t": 54898.24399999852,
      "d": 74.15245833333029,
      "v": 120
    },
    {
      "midi": 57,
      "hit": false,
      "t": 54898.24399999852,
      "d": 90.04227083332808,
      "v": 93
    },
    {
      "midi": 73,
      "hit": false,
      "t": 54898.24399999852,
      "d": 487.2875833333019,
      "v": 77
    },
    {
      "midi": 62,
      "hit": false,
      "t": 54908.83720833185,
      "d": 58.2626458333325,
      "v": 104
    },
    {
      "midi": 31,
      "hit": false,
      "t": 55004.17608333185,
      "d": 148.3049166666533,
      "v": 100
    },
    {
      "midi": 43,
      "hit": false,
      "t": 55004.17608333185,
      "d": 148.3049166666533,
      "v": 100
    },
    {
      "midi": 93,
      "hit": false,
      "t": 55020.065895831845,
      "d": 10.593208333331859,
      "v": 32
    },
    {
      "midi": 98,
      "hit": false,
      "t": 55020.065895831845,
      "d": 10.593208333331859,
      "v": 43
    },
    {
      "midi": 62,
      "hit": false,
      "t": 55025.36249999851,
      "d": 31.779624999995576,
      "v": 102
    },
    {
      "midi": 42,
      "hit": false,
      "t": 55030.65910416518,
      "d": 5.296604166665929,
      "v": 46
    },
    {
      "midi": 57,
      "hit": false,
      "t": 55035.95570833184,
      "d": 5.296604166665929,
      "v": 124
    },
    {
      "midi": 50,
      "hit": false,
      "t": 55046.548916665175,
      "d": 5.296604166665929,
      "v": 89
    },
    {
      "midi": 28,
      "hit": false,
      "t": 55136.5911874985,
      "d": 169.4913333333243,
      "v": 100
    },
    {
      "midi": 40,
      "hit": false,
      "t": 55136.5911874985,
      "d": 169.4913333333243,
      "v": 100
    },
    {
      "midi": 42,
      "hit": false,
      "t": 55152.4809999985,
      "d": 5.296604166665929,
      "v": 86
    },
    {
      "midi": 50,
      "hit": false,
      "t": 55152.4809999985,
      "d": 5.296604166665929,
      "v": 62
    },
    {
      "midi": 57,
      "hit": false,
      "t": 55163.07420833183,
      "d": 5.296604166665929,
      "v": 114
    },
    {
      "midi": 93,
      "hit": false,
      "t": 55274.30289583183,
      "d": 26.483020833329647,
      "v": 52
    },
    {
      "midi": 98,
      "hit": false,
      "t": 55274.30289583183,
      "d": 26.483020833329647,
      "v": 63
    },
    {
      "midi": 52,
      "hit": false,
      "t": 55279.5994999985,
      "d": 90.04227083332808,
      "v": 58
    },
    {
      "midi": 42,
      "hit": false,
      "t": 55284.896104165164,
      "d": 5.296604166665929,
      "v": 47
    },
    {
      "midi": 62,
      "hit": false,
      "t": 55290.19270833183,
      "d": 349.5758749999877,
      "v": 106
    },
    {
      "midi": 57,
      "hit": false,
      "t": 55300.78591666516,
      "d": 344.2792708333218,
      "v": 71
    },
    {
      "midi": 31,
      "hit": false,
      "t": 55396.124791665155,
      "d": 376.05889583332464,
      "v": 100
    },
    {
      "midi": 43,
      "hit": false,
      "t": 55396.124791665155,
      "d": 376.05889583332464,
      "v": 100
    },
    {
      "midi": 42,
      "hit": false,
      "t": 55401.42139583182,
      "d": 5.296604166665929,
      "v": 76
    },
    {
      "midi": 40,
      "hit": false,
      "t": 55406.71799999849,
      "d": 5.296604166665929,
      "v": 93
    },
    {
      "midi": 35,
      "hit": false,
      "t": 55406.71799999849,
      "d": 74.15245833333029,
      "v": 120
    },
    {
      "midi": 69,
      "hit": false,
      "t": 55406.71799999849,
      "d": 487.2875833333237,
      "v": 77
    },
    {
      "midi": 28,
      "hit": false,
      "t": 55533.836499998484,
      "d": 90.04227083333535,
      "v": 41
    },
    {
      "midi": 42,
      "hit": false,
      "t": 55539.13310416515,
      "d": 5.296604166665929,
      "v": 52
    },
    {
      "midi": 95,
      "hit": false,
      "t": 55655.658395831815,
      "d": 10.593208333331859,
      "v": 65
    },
    {
      "midi": 100,
      "hit": false,
      "t": 55655.658395831815,
      "d": 10.593208333331859,
      "v": 76
    },
    {
      "midi": 46,
      "hit": false,
      "t": 55660.95499999848,
      "d": 5.296604166665929,
      "v": 78
    },
    {
      "midi": 52,
      "hit": false,
      "t": 55660.95499999848,
      "d": 5.296604166665929,
      "v": 81
    },
    {
      "midi": 55,
      "hit": false,
      "t": 55660.95499999848,
      "d": 90.04227083333535,
      "v": 77
    },
    {
      "midi": 33,
      "hit": false,
      "t": 55777.480291665146,
      "d": 100.63547916666721,
      "v": 100
    },
    {
      "midi": 45,
      "hit": false,
      "t": 55777.480291665146,
      "d": 100.63547916666721,
      "v": 100
    },
    {
      "midi": 57,
      "hit": false,
      "t": 55788.07349999848,
      "d": 15.889812499997788,
      "v": 60
    },
    {
      "midi": 44,
      "hit": false,
      "t": 55793.370104165144,
      "d": 5.296604166665929,
      "v": 78
    },
    {
      "midi": 50,
      "hit": false,
      "t": 55809.25991666514,
      "d": 5.296604166665929,
      "v": 81
    },
    {
      "midi": 59,
      "hit": false,
      "t": 55809.25991666514,
      "d": 37.07622916666878,
      "v": 104
    },
    {
      "midi": 42,
      "hit": false,
      "t": 55909.89539583181,
      "d": 5.296604166665929,
      "v": 52
    },
    {
      "midi": 55,
      "hit": false,
      "t": 55915.191999998475,
      "d": 5.296604166665929,
      "v": 82
    },
    {
      "midi": 35,
      "hit": false,
      "t": 55915.191999998475,
      "d": 74.15245833333029,
      "v": 120
    },
    {
      "midi": 31,
      "hit": false,
      "t": 55915.191999998475,
      "d": 90.04227083332808,
      "v": 77
    },
    {
      "midi": 50,
      "hit": false,
      "t": 55915.191999998475,
      "d": 169.49133333333157,
      "v": 57
    },
    {
      "midi": 26,
      "hit": false,
      "t": 55915.191999998475,
      "d": 190.67774999999529,
      "v": 100
    },
    {
      "midi": 38,
      "hit": false,
      "t": 55915.191999998475,
      "d": 190.67774999999529,
      "v": 100
    },
    {
      "midi": 74,
      "hit": false,
      "t": 55915.191999998475,
      "d": 370.7622916666587,
      "v": 115
    },
    {
      "midi": 54,
      "hit": false,
      "t": 55915.191999998475,
      "d": 2012.7095833332496,
      "v": 68
    },
    {
      "midi": 59,
      "hit": false,
      "t": 55925.78520833181,
      "d": 5.296604166665929,
      "v": 86
    },
    {
      "midi": 45,
      "hit": false,
      "t": 55925.78520833181,
      "d": 185.38114583332936,
      "v": 60
    },
    {
      "midi": 59,
      "hit": false,
      "t": 56042.31049999847,
      "d": 5.296604166665929,
      "v": 87
    },
    {
      "midi": 42,
      "hit": false,
      "t": 56047.60710416514,
      "d": 5.296604166665929,
      "v": 44
    },
    {
      "midi": 55,
      "hit": false,
      "t": 56052.9037083318,
      "d": 5.296604166665929,
      "v": 82
    },
    {
      "midi": 98,
      "hit": false,
      "t": 56164.1323958318,
      "d": 10.593208333331859,
      "v": 65
    },
    {
      "midi": 103,
      "hit": false,
      "t": 56164.1323958318,
      "d": 10.593208333331859,
      "v": 76
    },
    {
      "midi": 42,
      "hit": false,
      "t": 56169.42899999847,
      "d": 5.296604166665929,
      "v": 101
    },
    {
      "midi": 55,
      "hit": false,
      "t": 56169.42899999847,
      "d": 21.186416666663717,
      "v": 94
    },
    {
      "midi": 47,
      "hit": false,
      "t": 56169.42899999847,
      "d": 68.85585416666436,
      "v": 64
    },
    {
      "midi": 50,
      "hit": false,
      "t": 56169.42899999847,
      "d": 68.85585416666436,
      "v": 83
    },
    {
      "midi": 69,
      "hit": false,
      "t": 56169.42899999847,
      "d": 1769.0657916665878,
      "v": 94
    },
    {
      "midi": 59,
      "hit": false,
      "t": 56180.0222083318,
      "d": 5.296604166665929,
      "v": 105
    },
    {
      "midi": 26,
      "hit": false,
      "t": 56296.547499998465,
      "d": 47.66943750000064,
      "v": 100
    },
    {
      "midi": 38,
      "hit": false,
      "t": 56296.547499998465,
      "d": 47.66943750000064,
      "v": 100
    },
    {
      "midi": 59,
      "hit": false,
      "t": 56296.547499998465,
      "d": 47.66943750000064,
      "v": 95
    },
    {
      "midi": 31,
      "hit": false,
      "t": 56296.547499998465,
      "d": 90.04227083333535,
      "v": 63
    },
    {
      "midi": 74,
      "hit": false,
      "t": 56296.547499998465,
      "d": 1641.947291666591,
      "v": 112
    },
    {
      "midi": 42,
      "hit": false,
      "t": 56301.84410416513,
      "d": 5.296604166665929,
      "v": 47
    },
    {
      "midi": 55,
      "hit": false,
      "t": 56307.1407083318,
      "d": 37.07622916666878,
      "v": 90
    },
    {
      "midi": 26,
      "hit": false,
      "t": 56407.776187498464,
      "d": 137.71170833332872,
      "v": 100
    },
    {
      "midi": 42,
      "hit": false,
      "t": 56418.369395831796,
      "d": 5.296604166665929,
      "v": 52
    },
    {
      "midi": 40,
      "hit": false,
      "t": 56423.66599999846,
      "d": 5.296604166665929,
      "v": 93
    },
    {
      "midi": 59,
      "hit": false,
      "t": 56423.66599999846,
      "d": 5.296604166665929,
      "v": 83
    },
    {
      "midi": 35,
      "hit": false,
      "t": 56423.66599999846,
      "d": 74.15245833333029,
      "v": 120
    },
    {
      "midi": 38,
      "hit": false,
      "t": 56423.66599999846,
      "d": 121.82189583333093,
      "v": 63
    },
    {
      "midi": 55,
      "hit": false,
      "t": 56550.78449999846,
      "d": 5.296604166665929,
      "v": 79
    },
    {
      "midi": 42,
      "hit": false,
      "t": 56556.081104165125,
      "d": 5.296604166665929,
      "v": 44
    },
    {
      "midi": 62,
      "hit": false,
      "t": 56561.37770833179,
      "d": 79.44906250000349,
      "v": 117
    },
    {
      "midi": 26,
      "hit": false,
      "t": 56656.71658333179,
      "d": 121.82189583332365,
      "v": 100
    },
    {
      "midi": 38,
      "hit": false,
      "t": 56656.71658333179,
      "d": 121.82189583332365,
      "v": 100
    },
    {
      "midi": 93,
      "hit": false,
      "t": 56672.60639583179,
      "d": 10.593208333331859,
      "v": 56
    },
    {
      "midi": 98,
      "hit": false,
      "t": 56672.60639583179,
      "d": 10.593208333331859,
      "v": 67
    },
    {
      "midi": 42,
      "hit": false,
      "t": 56677.902999998456,
      "d": 5.296604166665929,
      "v": 101
    },
    {
      "midi": 55,
      "hit": false,
      "t": 56677.902999998456,
      "d": 5.296604166665929,
      "v": 82
    },
    {
      "midi": 50,
      "hit": false,
      "t": 56677.902999998456,
      "d": 90.04227083332808,
      "v": 77
    },
    {
      "midi": 62,
      "hit": false,
      "t": 56688.49620833179,
      "d": 5.296604166665929,
      "v": 86
    },
    {
      "midi": 28,
      "hit": false,
      "t": 56783.83508333178,
      "d": 158.89812499998516,
      "v": 100
    },
    {
      "midi": 40,
      "hit": false,
      "t": 56783.83508333178,
      "d": 158.89812499998516,
      "v": 100
    },
    {
      "midi": 95,
      "hit": false,
      "t": 56799.72489583178,
      "d": 10.593208333331859,
      "v": 52
    },
    {
      "midi": 100,
      "hit": false,
      "t": 56799.72489583178,
      "d": 10.593208333331859,
      "v": 63
    },
    {
      "midi": 52,
      "hit": false,
      "t": 56805.021499998446,
      "d": 58.26264583332522,
      "v": 60
    },
    {
      "midi": 42,
      "hit": false,
      "t": 56810.31810416511,
      "d": 5.296604166665929,
      "v": 47
    },
    {
      "midi": 62,
      "hit": false,
      "t": 56826.20791666511,
      "d": 5.296604166665929,
      "v": 87
    },
    {
      "midi": 55,
      "hit": false,
      "t": 56836.80112499844,
      "d": 5.296604166665929,
      "v": 82
    },
    {
      "midi": 43,
      "hit": false,
      "t": 56910.95358333177,
      "d": 116.52529166665772,
      "v": 100
    },
    {
      "midi": 42,
      "hit": false,
      "t": 56926.84339583177,
      "d": 5.296604166665929,
      "v": 46
    },
    {
      "midi": 93,
      "hit": false,
      "t": 56926.84339583177,
      "d": 10.593208333331859,
      "v": 56
    },
    {
      "midi": 98,
      "hit": false,
      "t": 56926.84339583177,
      "d": 10.593208333331859,
      "v": 67
    },
    {
      "midi": 35,
      "hit": false,
      "t": 56932.139999998435,
      "d": 74.15245833333029,
      "v": 120
    },
    {
      "midi": 31,
      "hit": false,
      "t": 56932.139999998435,
      "d": 90.04227083332808,
      "v": 63
    },
    {
      "midi": 79,
      "hit": false,
      "t": 56932.139999998435,
      "d": 376.0588958333101,
      "v": 107
    },
    {
      "midi": 62,
      "hit": false,
      "t": 56942.73320833177,
      "d": 5.296604166665929,
      "v": 127
    },
    {
      "midi": 42,
      "hit": false,
      "t": 57016.8856666651,
      "d": 5.296604166665929,
      "v": 62
    },
    {
      "midi": 31,
      "hit": false,
      "t": 57038.07208333176,
      "d": 148.3049166666533,
      "v": 100
    },
    {
      "midi": 43,
      "hit": false,
      "t": 57038.07208333176,
      "d": 148.3049166666533,
      "v": 100
    },
    {
      "midi": 93,
      "hit": false,
      "t": 57053.96189583176,
      "d": 10.593208333331859,
      "v": 32
    },
    {
      "midi": 98,
      "hit": false,
      "t": 57053.96189583176,
      "d": 10.593208333331859,
      "v": 43
    },
    {
      "midi": 55,
      "hit": false,
      "t": 57059.258499998425,
      "d": 90.04227083332808,
      "v": 77
    },
    {
      "midi": 66,
      "hit": false,
      "t": 57080.44491666509,
      "d": 116.52529166665772,
      "v": 127
    },
    {
      "midi": 42,
      "hit": false,
      "t": 57101.63133333175,
      "d": 5.296604166665929,
      "v": 77
    },
    {
      "midi": 28,
      "hit": false,
      "t": 57170.48718749842,
      "d": 169.4913333333243,
      "v": 100
    },
    {
      "midi": 40,
      "hit": false,
      "t": 57170.48718749842,
      "d": 169.4913333333243,
      "v": 100
    },
    {
      "midi": 42,
      "hit": false,
      "t": 57186.376999998414,
      "d": 5.296604166665929,
      "v": 86
    },
    {
      "midi": 55,
      "hit": false,
      "t": 57186.376999998414,
      "d": 5.296604166665929,
      "v": 63
    },
    {
      "midi": 64,
      "hit": false,
      "t": 57186.376999998414,
      "d": 143.00831249999464,
      "v": 90
    },
    {
      "midi": 93,
      "hit": false,
      "t": 57308.198895831745,
      "d": 26.483020833329647,
      "v": 52
    },
    {
      "midi": 98,
      "hit": false,
      "t": 57308.198895831745,
      "d": 26.483020833329647,
      "v": 63
    },
    {
      "midi": 52,
      "hit": false,
      "t": 57313.49549999841,
      "d": 90.04227083332808,
      "v": 50
    },
    {
      "midi": 78,
      "hit": false,
      "t": 57313.49549999841,
      "d": 376.0588958333101,
      "v": 101
    },
    {
      "midi": 42,
      "hit": false,
      "t": 57318.79210416508,
      "d": 5.296604166665929,
      "v": 47
    },
    {
      "midi": 62,
      "hit": false,
      "t": 57334.681916665075,
      "d": 84.74566666666215,
      "v": 97
    },
    {
      "midi": 55,
      "hit": false,
      "t": 57345.27512499841,
      "d": 5.296604166665929,
      "v": 82
    },
    {
      "midi": 31,
      "hit": false,
      "t": 57430.02079166507,
      "d": 121.82189583332365,
      "v": 100
    },
    {
      "midi": 43,
      "hit": false,
      "t": 57430.02079166507,
      "d": 121.82189583332365,
      "v": 100
    },
    {
      "midi": 42,
      "hit": false,
      "t": 57435.317395831735,
      "d": 5.296604166665929,
      "v": 76
    },
    {
      "midi": 40,
      "hit": false,
      "t": 57440.6139999984,
      "d": 5.296604166665929,
      "v": 93
    },
    {
      "midi": 35,
      "hit": false,
      "t": 57440.6139999984,
      "d": 74.15245833333029,
      "v": 120
    },
    {
      "midi": 55,
      "hit": false,
      "t": 57440.6139999984,
      "d": 90.04227083332808,
      "v": 69
    },
    {
      "midi": 62,
      "hit": false,
      "t": 57440.6139999984,
      "d": 143.00831249998737,
      "v": 100
    },
    {
      "midi": 31,
      "hit": false,
      "t": 57557.13929166506,
      "d": 169.49133333333157,
      "v": 100
    },
    {
      "midi": 43,
      "hit": false,
      "t": 57567.73249999839,
      "d": 90.04227083332808,
      "v": 41
    },
    {
      "midi": 42,
      "hit": false,
      "t": 57573.029104165056,
      "d": 5.296604166665929,
      "v": 52
    },
    {
      "midi": 59,
      "hit": false,
      "t": 57588.918916665054,
      "d": 5.296604166665929,
      "v": 87
    },
    {
      "midi": 33,
      "hit": false,
      "t": 57684.257791665055,
      "d": 100.63547916666721,
      "v": 100
    },
    {
      "midi": 45,
      "hit": false,
      "t": 57684.257791665055,
      "d": 100.63547916666721,
      "v": 100
    },
    {
      "midi": 95,
      "hit": false,
      "t": 57689.55439583172,
      "d": 10.593208333331859,
      "v": 65
    },
    {
      "midi": 100,
      "hit": false,
      "t": 57689.55439583172,
      "d": 10.593208333331859,
      "v": 76
    },
    {
      "midi": 46,
      "hit": false,
      "t": 57694.85099999839,
      "d": 5.296604166665929,
      "v": 78
    },
    {
      "midi": 55,
      "hit": false,
      "t": 57694.85099999839,
      "d": 90.04227083333535,
      "v": 77
    },
    {
      "midi": 76,
      "hit": false,
      "t": 57694.85099999839,
      "d": 248.94039583333506,
      "v": 106
    },
    {
      "midi": 57,
      "hit": false,
      "t": 57821.96949999839,
      "d": 0,
      "v": 60
    },
    {
      "midi": 59,
      "hit": false,
      "t": 57821.96949999839,
      "d": 79.44906249999622,
      "v": 63
    },
    {
      "midi": 44,
      "hit": false,
      "t": 57827.26610416506,
      "d": 5.296604166665929,
      "v": 78
    },
    {
      "midi": 57,
      "hit": false,
      "t": 57843.155916665055,
      "d": 5.296604166665929,
      "v": 101
    },
    {
      "midi": 42,
      "hit": false,
      "t": 57943.79139583172,
      "d": 5.296604166665929,
      "v": 52
    },
    {
      "midi": 57,
      "hit": false,
      "t": 57949.08799999839,
      "d": 5.296604166665929,
      "v": 75
    },
    {
      "midi": 81,
      "hit": false,
      "t": 57949.08799999839,
      "d": 63.55924999999843,
      "v": 100
    },
    {
      "midi": 35,
      "hit": false,
      "t": 57949.08799999839,
      "d": 74.15245833333029,
      "v": 120
    },
    {
      "midi": 33,
      "hit": false,
      "t": 57949.08799999839,
      "d": 90.04227083332808,
      "v": 77
    },
    {
      "midi": 52,
      "hit": false,
      "t": 57949.08799999839,
      "d": 169.49133333333157,
      "v": 57
    },
    {
      "midi": 21,
      "hit": false,
      "t": 57949.08799999839,
      "d": 190.67774999999529,
      "v": 100
    },
    {
      "midi": 49,
      "hit": false,
      "t": 57949.08799999839,
      "d": 4046.6055833331775,
      "v": 39
    },
    {
      "midi": 64,
      "hit": false,
      "t": 57959.68120833172,
      "d": 5.296604166665929,
      "v": 79
    },
    {
      "midi": 45,
      "hit": false,
      "t": 57959.68120833172,
      "d": 185.38114583332936,
      "v": 60
    },
    {
      "midi": 64,
      "hit": false,
      "t": 58076.206499998385,
      "d": 5.296604166665929,
      "v": 80
    },
    {
      "midi": 81,
      "hit": false,
      "t": 58076.206499998385,
      "d": 116.525291666665,
      "v": 100
    },
    {
      "midi": 42,
      "hit": false,
      "t": 58081.50310416505,
      "d": 5.296604166665929,
      "v": 44
    },
    {
      "midi": 57,
      "hit": false,
      "t": 58086.79970833172,
      "d": 5.296604166665929,
      "v": 75
    },
    {
      "midi": 98,
      "hit": false,
      "t": 58198.028395831716,
      "d": 10.593208333331859,
      "v": 65
    },
    {
      "midi": 103,
      "hit": false,
      "t": 58198.028395831716,
      "d": 10.593208333331859,
      "v": 76
    },
    {
      "midi": 42,
      "hit": false,
      "t": 58203.32499999838,
      "d": 5.296604166665929,
      "v": 101
    },
    {
      "midi": 57,
      "hit": false,
      "t": 58203.32499999838,
      "d": 21.186416666663717,
      "v": 87
    },
    {
      "midi": 52,
      "hit": false,
      "t": 58203.32499999838,
      "d": 68.85585416666436,
      "v": 64
    },
    {
      "midi": 55,
      "hit": false,
      "t": 58203.32499999838,
      "d": 68.85585416666436,
      "v": 83
    },
    {
      "midi": 93,
      "hit": false,
      "t": 58203.32499999838,
      "d": 111.22868749999907,
      "v": 100
    },
    {
      "midi": 64,
      "hit": false,
      "t": 58213.918208331714,
      "d": 5.296604166665929,
      "v": 98
    },
    {
      "midi": 64,
      "hit": false,
      "t": 58330.44349999838,
      "d": 5.296604166665929,
      "v": 62
    },
    {
      "midi": 21,
      "hit": false,
      "t": 58330.44349999838,
      "d": 47.66943750000064,
      "v": 100
    },
    {
      "midi": 33,
      "hit": false,
      "t": 58330.44349999838,
      "d": 47.66943750000064,
      "v": 100
    },
    {
      "midi": 45,
      "hit": false,
      "t": 58330.44349999838,
      "d": 90.04227083333535,
      "v": 63
    },
    {
      "midi": 81,
      "hit": false,
      "t": 58330.44349999838,
      "d": 116.525291666665,
      "v": 100
    },
    {
      "midi": 42,
      "hit": false,
      "t": 58335.740104165045,
      "d": 5.296604166665929,
      "v": 47
    },
    {
      "midi": 57,
      "hit": false,
      "t": 58341.03670833171,
      "d": 37.07622916666878,
      "v": 83
    },
    {
      "midi": 21,
      "hit": false,
      "t": 58441.67218749838,
      "d": 137.71170833332872,
      "v": 100
    },
    {
      "midi": 33,
      "hit": false,
      "t": 58441.67218749838,
      "d": 137.71170833332872,
      "v": 100
    },
    {
      "midi": 42,
      "hit": false,
      "t": 58452.26539583171,
      "d": 5.296604166665929,
      "v": 52
    },
    {
      "midi": 40,
      "hit": false,
      "t": 58457.561999998376,
      "d": 5.296604166665929,
      "v": 93
    },
    {
      "midi": 57,
      "hit": false,
      "t": 58457.561999998376,
      "d": 5.296604166665929,
      "v": 75
    },
    {
      "midi": 64,
      "hit": false,
      "t": 58457.561999998376,
      "d": 37.076229166661506,
      "v": 86
    },
    {
      "midi": 35,
      "hit": false,
      "t": 58457.561999998376,
      "d": 74.15245833333029,
      "v": 120
    },
    {
      "midi": 92,
      "hit": false,
      "t": 58457.561999998376,
      "d": 111.22868749999907,
      "v": 100
    },
    {
      "midi": 45,
      "hit": false,
      "t": 58457.561999998376,
      "d": 201.27095833332714,
      "v": 63
    },
    {
      "midi": 76,
      "hit": false,
      "t": 58478.74841666504,
      "d": 21.186416666663717,
      "v": 121
    },
    {
      "midi": 64,
      "hit": false,
      "t": 58584.68049999837,
      "d": 37.076229166661506,
      "v": 82
    },
    {
      "midi": 81,
      "hit": false,
      "t": 58584.68049999837,
      "d": 100.63547916666721,
      "v": 100
    },
    {
      "midi": 42,
      "hit": false,
      "t": 58589.97710416504,
      "d": 5.296604166665929,
      "v": 44
    },
    {
      "midi": 57,
      "hit": false,
      "t": 58595.273708331704,
      "d": 5.296604166665929,
      "v": 75
    },
    {
      "midi": 76,
      "hit": false,
      "t": 58595.273708331704,
      "d": 21.186416666663717,
      "v": 104
    },
    {
      "midi": 26,
      "hit": false,
      "t": 58690.612583331706,
      "d": 121.82189583332365,
      "v": 100
    },
    {
      "midi": 38,
      "hit": false,
      "t": 58690.612583331706,
      "d": 121.82189583332365,
      "v": 100
    },
    {
      "midi": 93,
      "hit": false,
      "t": 58706.5023958317,
      "d": 10.593208333331859,
      "v": 56
    },
    {
      "midi": 98,
      "hit": false,
      "t": 58706.5023958317,
      "d": 10.593208333331859,
      "v": 67
    },
    {
      "midi": 42,
      "hit": false,
      "t": 58711.79899999837,
      "d": 5.296604166665929,
      "v": 101
    },
    {
      "midi": 57,
      "hit": false,
      "t": 58711.79899999837,
      "d": 5.296604166665929,
      "v": 75
    },
    {
      "midi": 50,
      "hit": false,
      "t": 58711.79899999837,
      "d": 90.04227083332808,
      "v": 77
    },
    {
      "midi": 91,
      "hit": false,
      "t": 58711.79899999837,
      "d": 116.52529166665772,
      "v": 100
    },
    {
      "midi": 64,
      "hit": false,
      "t": 58722.3922083317,
      "d": 5.296604166665929,
      "v": 79
    },
    {
      "midi": 76,
      "hit": false,
      "t": 58732.98541666503,
      "d": 15.889812499997788,
      "v": 116
    },
    {
      "midi": 28,
      "hit": false,
      "t": 58817.731083331695,
      "d": 121.82189583332365,
      "v": 100
    },
    {
      "midi": 40,
      "hit": false,
      "t": 58817.731083331695,
      "d": 121.82189583332365,
      "v": 100
    },
    {
      "midi": 95,
      "hit": false,
      "t": 58833.62089583169,
      "d": 10.593208333331859,
      "v": 52
    },
    {
      "midi": 100,
      "hit": false,
      "t": 58833.62089583169,
      "d": 10.593208333331859,
      "v": 63
    },
    {
      "midi": 52,
      "hit": false,
      "t": 58838.91749999836,
      "d": 58.26264583332522,
      "v": 60
    },
    {
      "midi": 81,
      "hit": false,
      "t": 58838.91749999836,
      "d": 127.11849999998958,
      "v": 100
    },
    {
      "midi": 42,
      "hit": false,
      "t": 58844.214104165025,
      "d": 5.296604166665929,
      "v": 47
    },
    {
      "midi": 76,
      "hit": false,
      "t": 58849.51070833169,
      "d": 15.889812499997788,
      "v": 100
    },
    {
      "midi": 64,
      "hit": false,
      "t": 58860.10391666502,
      "d": 5.296604166665929,
      "v": 80
    },
    {
      "midi": 57,
      "hit": false,
      "t": 58870.697124998354,
      "d": 5.296604166665929,
      "v": 75
    },
    {
      "midi": 28,
      "hit": false,
      "t": 58944.849583331685,
      "d": 148.3049166666533,
      "v": 100
    },
    {
      "midi": 40,
      "hit": false,
      "t": 58944.849583331685,
      "d": 148.3049166666533,
      "v": 100
    },
    {
      "midi": 42,
      "hit": false,
      "t": 58960.73939583168,
      "d": 5.296604166665929,
      "v": 67
    },
    {
      "midi": 93,
      "hit": false,
      "t": 58960.73939583168,
      "d": 10.593208333331859,
      "v": 56
    },
    {
      "midi": 98,
      "hit": false,
      "t": 58960.73939583168,
      "d": 10.593208333331859,
      "v": 67
    },
    {
      "midi": 35,
      "hit": false,
      "t": 58966.03599999835,
      "d": 74.15245833333029,
      "v": 120
    },
    {
      "midi": 33,
      "hit": false,
      "t": 58966.03599999835,
      "d": 90.04227083332808,
      "v": 63
    },
    {
      "midi": 90,
      "hit": false,
      "t": 58966.03599999835,
      "d": 111.22868749999179,
      "v": 100
    },
    {
      "midi": 76,
      "hit": false,
      "t": 58966.03599999835,
      "d": 127.11849999998958,
      "v": 108
    },
    {
      "midi": 71,
      "hit": false,
      "t": 58976.62920833168,
      "d": 116.52529166665772,
      "v": 116
    },
    {
      "midi": 31,
      "hit": false,
      "t": 59071.968083331674,
      "d": 148.30491666666057,
      "v": 100
    },
    {
      "midi": 43,
      "hit": false,
      "t": 59071.968083331674,
      "d": 148.30491666666057,
      "v": 100
    },
    {
      "midi": 93,
      "hit": false,
      "t": 59087.85789583167,
      "d": 10.593208333331859,
      "v": 32
    },
    {
      "midi": 98,
      "hit": false,
      "t": 59087.85789583167,
      "d": 10.593208333331859,
      "v": 43
    },
    {
      "midi": 50,
      "hit": false,
      "t": 59093.15449999834,
      "d": 90.04227083332808,
      "v": 77
    },
    {
      "midi": 81,
      "hit": false,
      "t": 59093.15449999834,
      "d": 127.11849999999686,
      "v": 100
    },
    {
      "midi": 42,
      "hit": false,
      "t": 59098.451104165004,
      "d": 5.296604166665929,
      "v": 46
    },
    {
      "midi": 76,
      "hit": false,
      "t": 59103.74770833167,
      "d": 105.93208333333314,
      "v": 123
    },
    {
      "midi": 71,
      "hit": false,
      "t": 59114.340916665,
      "d": 95.33887500000128,
      "v": 111
    },
    {
      "midi": 28,
      "hit": false,
      "t": 59209.679791665,
      "d": 169.49133333333157,
      "v": 100
    },
    {
      "midi": 40,
      "hit": false,
      "t": 59209.679791665,
      "d": 169.49133333333157,
      "v": 100
    },
    {
      "midi": 42,
      "hit": false,
      "t": 59220.272999998335,
      "d": 5.296604166665929,
      "v": 86
    },
    {
      "midi": 89,
      "hit": false,
      "t": 59220.272999998335,
      "d": 90.04227083333535,
      "v": 100
    },
    {
      "midi": 71,
      "hit": false,
      "t": 59220.272999998335,
      "d": 127.11850000000413,
      "v": 114
    },
    {
      "midi": 76,
      "hit": false,
      "t": 59220.272999998335,
      "d": 127.11850000000413,
      "v": 108
    },
    {
      "midi": 93,
      "hit": false,
      "t": 59342.09489583167,
      "d": 26.483020833329647,
      "v": 52
    },
    {
      "midi": 98,
      "hit": false,
      "t": 59342.09489583167,
      "d": 26.483020833329647,
      "v": 63
    },
    {
      "midi": 52,
      "hit": false,
      "t": 59347.39149999834,
      "d": 90.04227083333535,
      "v": 77
    },
    {
      "midi": 81,
      "hit": false,
      "t": 59347.39149999834,
      "d": 105.93208333333314,
      "v": 100
    },
    {
      "midi": 42,
      "hit": false,
      "t": 59352.688104165005,
      "d": 5.296604166665929,
      "v": 47
    },
    {
      "midi": 76,
      "hit": false,
      "t": 59357.98470833167,
      "d": 84.74566666666942,
      "v": 118
    },
    {
      "midi": 71,
      "hit": false,
      "t": 59368.577916665,
      "d": 79.44906250000349,
      "v": 59
    },
    {
      "midi": 57,
      "hit": false,
      "t": 59379.171124998335,
      "d": 5.296604166665929,
      "v": 75
    },
    {
      "midi": 42,
      "hit": false,
      "t": 59469.21339583167,
      "d": 5.296604166665929,
      "v": 76
    },
    {
      "midi": 31,
      "hit": false,
      "t": 59469.21339583167,
      "d": 121.82189583333093,
      "v": 100
    },
    {
      "midi": 43,
      "hit": false,
      "t": 59469.21339583167,
      "d": 121.82189583333093,
      "v": 100
    },
    {
      "midi": 40,
      "hit": false,
      "t": 59474.509999998336,
      "d": 5.296604166665929,
      "v": 93
    },
    {
      "midi": 57,
      "hit": false,
      "t": 59474.509999998336,
      "d": 5.296604166665929,
      "v": 75
    },
    {
      "midi": 35,
      "hit": false,
      "t": 59474.509999998336,
      "d": 74.15245833333029,
      "v": 120
    },
    {
      "midi": 88,
      "hit": false,
      "t": 59474.509999998336,
      "d": 100.63547916666721,
      "v": 100
    },
    {
      "midi": 64,
      "hit": false,
      "t": 59485.10320833167,
      "d": 5.296604166665929,
      "v": 79
    },
    {
      "midi": 76,
      "hit": false,
      "t": 59601.62849999833,
      "d": 10.593208333331859,
      "v": 87
    },
    {
      "midi": 33,
      "hit": false,
      "t": 59601.62849999833,
      "d": 90.04227083332808,
      "v": 41
    },
    {
      "midi": 81,
      "hit": false,
      "t": 59601.62849999833,
      "d": 111.22868749999179,
      "v": 100
    },
    {
      "midi": 42,
      "hit": false,
      "t": 59606.925104165,
      "d": 5.296604166665929,
      "v": 52
    },
    {
      "midi": 64,
      "hit": false,
      "t": 59612.221708331665,
      "d": 5.296604166665929,
      "v": 75
    },
    {
      "midi": 95,
      "hit": false,
      "t": 59723.450395831656,
      "d": 10.593208333331859,
      "v": 65
    },
    {
      "midi": 100,
      "hit": false,
      "t": 59723.450395831656,
      "d": 10.593208333331859,
      "v": 76
    },
    {
      "midi": 31,
      "hit": false,
      "t": 59723.450395831656,
      "d": 143.00831249999464,
      "v": 100
    },
    {
      "midi": 43,
      "hit": false,
      "t": 59723.450395831656,
      "d": 143.00831249999464,
      "v": 100
    },
    {
      "midi": 46,
      "hit": false,
      "t": 59728.74699999832,
      "d": 5.296604166665929,
      "v": 78
    },
    {
      "midi": 57,
      "hit": false,
      "t": 59728.74699999832,
      "d": 21.186416666663717,
      "v": 87
    },
    {
      "midi": 87,
      "hit": false,
      "t": 59728.74699999832,
      "d": 90.04227083332808,
      "v": 100
    },
    {
      "midi": 55,
      "hit": false,
      "t": 59728.74699999832,
      "d": 90.04227083332808,
      "v": 77
    },
    {
      "midi": 64,
      "hit": false,
      "t": 59739.340208331654,
      "d": 5.296604166665929,
      "v": 98
    },
    {
      "midi": 33,
      "hit": false,
      "t": 59850.56889583165,
      "d": 100.63547916666721,
      "v": 100
    },
    {
      "midi": 45,
      "hit": false,
      "t": 59850.56889583165,
      "d": 100.63547916666721,
      "v": 100
    },
    {
      "midi": 64,
      "hit": false,
      "t": 59855.86549999832,
      "d": 5.296604166665929,
      "v": 62
    },
    {
      "midi": 81,
      "hit": false,
      "t": 59855.86549999832,
      "d": 111.22868749999907,
      "v": 100
    },
    {
      "midi": 44,
      "hit": false,
      "t": 59861.162104164985,
      "d": 5.296604166665929,
      "v": 78
    },
    {
      "midi": 57,
      "hit": false,
      "t": 59866.45870833165,
      "d": 37.07622916666878,
      "v": 83
    },
    {
      "midi": 42,
      "hit": false,
      "t": 59977.68739583165,
      "d": 5.296604166665929,
      "v": 52
    },
    {
      "midi": 57,
      "hit": false,
      "t": 59982.983999998316,
      "d": 5.296604166665929,
      "v": 75
    },
    {
      "midi": 35,
      "hit": false,
      "t": 59982.983999998316,
      "d": 74.15245833333029,
      "v": 120
    },
    {
      "midi": 33,
      "hit": false,
      "t": 59982.983999998316,
      "d": 90.04227083332808,
      "v": 77
    },
    {
      "midi": 86,
      "hit": false,
      "t": 59982.983999998316,
      "d": 105.93208333332586,
      "v": 100
    },
    {
      "midi": 21,
      "hit": false,
      "t": 59982.983999998316,
      "d": 190.677749999988,
      "v": 100
    },
    {
      "midi": 64,
      "hit": false,
      "t": 59993.57720833165,
      "d": 5.296604166665929,
      "v": 79
    },
    {
      "midi": 64,
      "hit": false,
      "t": 60110.102499998306,
      "d": 5.296604166665929,
      "v": 80
    },
    {
      "midi": 81,
      "hit": false,
      "t": 60110.102499998306,
      "d": 84.74566666666215,
      "v": 100
    },
    {
      "midi": 42,
      "hit": false,
      "t": 60115.39910416497,
      "d": 5.296604166665929,
      "v": 44
    },
    {
      "midi": 57,
      "hit": false,
      "t": 60120.69570833164,
      "d": 5.296604166665929,
      "v": 75
    },
    {
      "midi": 98,
      "hit": false,
      "t": 60231.92439583164,
      "d": 10.593208333331859,
      "v": 65
    },
    {
      "midi": 103,
      "hit": false,
      "t": 60231.92439583164,
      "d": 10.593208333331859,
      "v": 76
    },
    {
      "midi": 42,
      "hit": false,
      "t": 60237.2209999983,
      "d": 5.296604166665929,
      "v": 101
    },
    {
      "midi": 57,
      "hit": false,
      "t": 60237.2209999983,
      "d": 21.186416666663717,
      "v": 87
    },
    {
      "midi": 45,
      "hit": false,
      "t": 60237.2209999983,
      "d": 52.96604166666657,
      "v": 61
    },
    {
      "midi": 50,
      "hit": false,
      "t": 60237.2209999983,
      "d": 52.96604166666657,
      "v": 80
    },
    {
      "midi": 85,
      "hit": false,
      "t": 60237.2209999983,
      "d": 100.63547916666721,
      "v": 100
    },
    {
      "midi": 64,
      "hit": false,
      "t": 60247.814208331634,
      "d": 5.296604166665929,
      "v": 98
    },
    {
      "midi": 21,
      "hit": false,
      "t": 60364.33949999831,
      "d": 47.66943750000064,
      "v": 100
    },
    {
      "midi": 33,
      "hit": false,
      "t": 60364.33949999831,
      "d": 47.66943750000064,
      "v": 100
    },
    {
      "midi": 76,
      "hit": false,
      "t": 60364.33949999831,
      "d": 58.2626458333325,
      "v": 123
    },
    {
      "midi": 71,
      "hit": false,
      "t": 60364.33949999831,
      "d": 68.85585416666436,
      "v": 83
    },
    {
      "midi": 45,
      "hit": false,
      "t": 60364.33949999831,
      "d": 90.04227083332808,
      "v": 63
    },
    {
      "midi": 81,
      "hit": false,
      "t": 60364.33949999831,
      "d": 95.338874999994,
      "v": 100
    },
    {
      "midi": 42,
      "hit": false,
      "t": 60369.63610416497,
      "d": 5.296604166665929,
      "v": 47
    },
    {
      "midi": 57,
      "hit": false,
      "t": 60374.93270833164,
      "d": 37.07622916666878,
      "v": 83
    },
    {
      "midi": 21,
      "hit": false,
      "t": 60475.5681874983,
      "d": 137.711708333336,
      "v": 100
    },
    {
      "midi": 33,
      "hit": false,
      "t": 60475.5681874983,
      "d": 137.711708333336,
      "v": 100
    },
    {
      "midi": 42,
      "hit": false,
      "t": 60486.16139583163,
      "d": 5.296604166665929,
      "v": 52
    },
    {
      "midi": 40,
      "hit": false,
      "t": 60491.457999998296,
      "d": 5.296604166665929,
      "v": 93
    },
    {
      "midi": 57,
      "hit": false,
      "t": 60491.457999998296,
      "d": 5.296604166665929,
      "v": 75
    },
    {
      "midi": 64,
      "hit": false,
      "t": 60491.457999998296,
      "d": 37.07622916666878,
      "v": 86
    },
    {
      "midi": 35,
      "hit": false,
      "t": 60491.457999998296,
      "d": 74.15245833333756,
      "v": 120
    },
    {
      "midi": 84,
      "hit": false,
      "t": 60491.457999998296,
      "d": 111.22868750000634,
      "v": 100
    },
    {
      "midi": 76,
      "hit": false,
      "t": 60618.5764999983,
      "d": 58.2626458333325,
      "v": 123
    },
    {
      "midi": 81,
      "hit": false,
      "t": 60618.5764999983,
      "d": 90.04227083332808,
      "v": 100
    },
    {
      "midi": 40,
      "hit": false,
      "t": 60618.5764999983,
      "d": 90.04227083332808,
      "v": 63
    },
    {
      "midi": 42,
      "hit": false,
      "t": 60623.873104164966,
      "d": 5.296604166665929,
      "v": 44
    },
    {
      "midi": 71,
      "hit": false,
      "t": 60629.16970833163,
      "d": 68.85585416666436,
      "v": 96
    },
    {
      "midi": 26,
      "hit": false,
      "t": 60724.508583331626,
      "d": 121.82189583332365,
      "v": 100
    },
    {
      "midi": 38,
      "hit": false,
      "t": 60724.508583331626,
      "d": 121.82189583332365,
      "v": 100
    },
    {
      "midi": 93,
      "hit": false,
      "t": 60740.398395831624,
      "d": 10.593208333331859,
      "v": 56
    },
    {
      "midi": 98,
      "hit": false,
      "t": 60740.398395831624,
      "d": 10.593208333331859,
      "v": 67
    },
    {
      "midi": 42,
      "hit": false,
      "t": 60745.69499999829,
      "d": 5.296604166665929,
      "v": 101
    },
    {
      "midi": 57,
      "hit": false,
      "t": 60745.69499999829,
      "d": 5.296604166665929,
      "v": 75
    },
    {
      "midi": 50,
      "hit": false,
      "t": 60745.69499999829,
      "d": 90.04227083332808,
      "v": 77
    },
    {
      "midi": 83,
      "hit": false,
      "t": 60745.69499999829,
      "d": 121.82189583332365,
      "v": 100
    },
    {
      "midi": 64,
      "hit": false,
      "t": 60756.28820833162,
      "d": 5.296604166665929,
      "v": 79
    },
    {
      "midi": 28,
      "hit": false,
      "t": 60851.627083331616,
      "d": 121.82189583332365,
      "v": 100
    },
    {
      "midi": 40,
      "hit": false,
      "t": 60851.627083331616,
      "d": 121.82189583332365,
      "v": 100
    },
    {
      "midi": 95,
      "hit": false,
      "t": 60867.51689583161,
      "d": 10.593208333331859,
      "v": 52
    },
    {
      "midi": 100,
      "hit": false,
      "t": 60867.51689583161,
      "d": 10.593208333331859,
      "v": 63
    },
    {
      "midi": 52,
      "hit": false,
      "t": 60872.81349999828,
      "d": 58.26264583332522,
      "v": 60
    },
    {
      "midi": 81,
      "hit": false,
      "t": 60872.81349999828,
      "d": 84.74566666666215,
      "v": 100
    },
    {
      "midi": 42,
      "hit": false,
      "t": 60878.110104164945,
      "d": 5.296604166665929,
      "v": 47
    },
    {
      "midi": 64,
      "hit": false,
      "t": 60893.99991666494,
      "d": 5.296604166665929,
      "v": 80
    },
    {
      "midi": 57,
      "hit": false,
      "t": 60904.593124998275,
      "d": 5.296604166665929,
      "v": 75
    },
    {
      "midi": 28,
      "hit": false,
      "t": 60978.745583331605,
      "d": 148.3049166666533,
      "v": 100
    },
    {
      "midi": 40,
      "hit": false,
      "t": 60978.745583331605,
      "d": 148.3049166666533,
      "v": 100
    },
    {
      "midi": 42,
      "hit": false,
      "t": 60994.6353958316,
      "d": 5.296604166665929,
      "v": 67
    },
    {
      "midi": 93,
      "hit": false,
      "t": 60994.6353958316,
      "d": 10.593208333331859,
      "v": 56
    },
    {
      "midi": 98,
      "hit": false,
      "t": 60994.6353958316,
      "d": 10.593208333331859,
      "v": 67
    },
    {
      "midi": 35,
      "hit": false,
      "t": 60999.93199999827,
      "d": 74.15245833333029,
      "v": 120
    },
    {
      "midi": 33,
      "hit": false,
      "t": 60999.93199999827,
      "d": 90.04227083332808,
      "v": 63
    },
    {
      "midi": 76,
      "hit": false,
      "t": 60999.93199999827,
      "d": 105.93208333332586,
      "v": 89
    },
    {
      "midi": 71,
      "hit": false,
      "t": 61010.5252083316,
      "d": 100.63547916665993,
      "v": 116
    },
    {
      "midi": 31,
      "hit": false,
      "t": 61105.864083331595,
      "d": 148.3049166666533,
      "v": 100
    },
    {
      "midi": 43,
      "hit": false,
      "t": 61105.864083331595,
      "d": 148.3049166666533,
      "v": 100
    },
    {
      "midi": 98,
      "hit": false,
      "t": 61121.75389583159,
      "d": 10.593208333331859,
      "v": 43
    },
    {
      "midi": 93,
      "hit": false,
      "t": 61127.05049999826,
      "d": 5.296604166665929,
      "v": 85
    },
    {
      "midi": 40,
      "hit": false,
      "t": 61127.05049999826,
      "d": 5.296604166665929,
      "v": 93
    },
    {
      "midi": 55,
      "hit": false,
      "t": 61127.05049999826,
      "d": 90.04227083332808,
      "v": 77
    },
    {
      "midi": 69,
      "hit": false,
      "t": 61127.05049999826,
      "d": 121.82189583332365,
      "v": 105
    },
    {
      "midi": 81,
      "hit": false,
      "t": 61127.05049999826,
      "d": 121.82189583332365,
      "v": 116
    },
    {
      "midi": 42,
      "hit": false,
      "t": 61132.347104164925,
      "d": 5.296604166665929,
      "v": 46
    },
    {
      "midi": 76,
      "hit": false,
      "t": 61137.64370833159,
      "d": 84.74566666666215,
      "v": 107
    },
    {
      "midi": 71,
      "hit": false,
      "t": 61148.23691666492,
      "d": 79.44906249999622,
      "v": 111
    },
    {
      "midi": 28,
      "hit": false,
      "t": 61243.575791664916,
      "d": 169.4913333333243,
      "v": 100
    },
    {
      "midi": 40,
      "hit": false,
      "t": 61243.575791664916,
      "d": 169.4913333333243,
      "v": 100
    },
    {
      "midi": 42,
      "hit": false,
      "t": 61254.16899999825,
      "d": 5.296604166665929,
      "v": 86
    },
    {
      "midi": 76,
      "hit": false,
      "t": 61254.16899999825,
      "d": 105.93208333333314,
      "v": 102
    },
    {
      "midi": 71,
      "hit": false,
      "t": 61254.16899999825,
      "d": 111.22868749999907,
      "v": 114
    },
    {
      "midi": 68,
      "hit": false,
      "t": 61254.16899999825,
      "d": 121.82189583333093,
      "v": 105
    },
    {
      "midi": 92,
      "hit": false,
      "t": 61254.16899999825,
      "d": 121.82189583333093,
      "v": 85
    },
    {
      "midi": 80,
      "hit": false,
      "t": 61254.16899999825,
      "d": 121.82189583333093,
      "v": 116
    },
    {
      "midi": 98,
      "hit": false,
      "t": 61375.99089583158,
      "d": 26.483020833329647,
      "v": 63
    },
    {
      "midi": 93,
      "hit": false,
      "t": 61381.287499998245,
      "d": 21.186416666663717,
      "v": 85
    },
    {
      "midi": 52,
      "hit": false,
      "t": 61381.287499998245,
      "d": 90.04227083333535,
      "v": 50
    },
    {
      "midi": 69,
      "hit": false,
      "t": 61381.287499998245,
      "d": 121.82189583333093,
      "v": 105
    },
    {
      "midi": 81,
      "hit": false,
      "t": 61381.287499998245,
      "d": 121.82189583333093,
      "v": 116
    },
    {
      "midi": 42,
      "hit": false,
      "t": 61386.58410416491,
      "d": 5.296604166665929,
      "v": 47
    },
    {
      "midi": 76,
      "hit": false,
      "t": 61391.88070833158,
      "d": 180.08454166665615,
      "v": 99
    },
    {
      "midi": 57,
      "hit": false,
      "t": 61413.06712499824,
      "d": 105.93208333333314,
      "v": 75
    },
    {
      "midi": 42,
      "hit": false,
      "t": 61503.109395831576,
      "d": 5.296604166665929,
      "v": 76
    },
    {
      "midi": 31,
      "hit": false,
      "t": 61503.109395831576,
      "d": 121.82189583332365,
      "v": 100
    },
    {
      "midi": 43,
      "hit": false,
      "t": 61503.109395831576,
      "d": 121.82189583332365,
      "v": 100
    },
    {
      "midi": 40,
      "hit": false,
      "t": 61508.40599999824,
      "d": 5.296604166665929,
      "v": 93
    },
    {
      "midi": 71,
      "hit": false,
      "t": 61508.40599999824,
      "d": 68.85585416665708,
      "v": 105
    },
    {
      "midi": 35,
      "hit": false,
      "t": 61508.40599999824,
      "d": 74.15245833332301,
      "v": 120
    },
    {
      "midi": 55,
      "hit": false,
      "t": 61508.40599999824,
      "d": 90.0422708333208,
      "v": 69
    },
    {
      "midi": 95,
      "hit": false,
      "t": 61508.40599999824,
      "d": 121.82189583332365,
      "v": 85
    },
    {
      "midi": 83,
      "hit": false,
      "t": 61508.40599999824,
      "d": 121.82189583332365,
      "v": 116
    },
    {
      "midi": 43,
      "hit": false,
      "t": 61635.52449999823,
      "d": 90.04227083333535,
      "v": 41
    },
    {
      "midi": 73,
      "hit": false,
      "t": 61635.52449999823,
      "d": 148.30491666666785,
      "v": 105
    },
    {
      "midi": 97,
      "hit": false,
      "t": 61635.52449999823,
      "d": 148.30491666666785,
      "v": 85
    },
    {
      "midi": 85,
      "hit": false,
      "t": 61635.52449999823,
      "d": 148.30491666666785,
      "v": 116
    },
    {
      "midi": 42,
      "hit": false,
      "t": 61640.8211041649,
      "d": 5.296604166665929,
      "v": 52
    },
    {
      "midi": 95,
      "hit": false,
      "t": 61757.34639583157,
      "d": 10.593208333331859,
      "v": 65
    },
    {
      "midi": 100,
      "hit": false,
      "t": 61757.34639583157,
      "d": 10.593208333331859,
      "v": 76
    },
    {
      "midi": 31,
      "hit": false,
      "t": 61757.34639583157,
      "d": 143.00831249999464,
      "v": 100
    },
    {
      "midi": 43,
      "hit": false,
      "t": 61757.34639583157,
      "d": 143.00831249999464,
      "v": 100
    },
    {
      "midi": 40,
      "hit": false,
      "t": 61762.642999998236,
      "d": 5.296604166665929,
      "v": 93
    },
    {
      "midi": 44,
      "hit": false,
      "t": 61762.642999998236,
      "d": 5.296604166665929,
      "v": 78
    },
    {
      "midi": 55,
      "hit": false,
      "t": 61762.642999998236,
      "d": 90.04227083332808,
      "v": 77
    },
    {
      "midi": 74,
      "hit": false,
      "t": 61762.642999998236,
      "d": 153.6015208333265,
      "v": 105
    },
    {
      "midi": 98,
      "hit": false,
      "t": 61762.642999998236,
      "d": 153.6015208333265,
      "v": 85
    },
    {
      "midi": 86,
      "hit": false,
      "t": 61762.642999998236,
      "d": 153.6015208333265,
      "v": 116
    },
    {
      "midi": 42,
      "hit": false,
      "t": 61847.3886666649,
      "d": 5.296604166665929,
      "v": 57
    },
    {
      "midi": 33,
      "hit": false,
      "t": 61884.46489583157,
      "d": 100.63547916666721,
      "v": 100
    },
    {
      "midi": 45,
      "hit": false,
      "t": 61884.46489583157,
      "d": 100.63547916666721,
      "v": 100
    },
    {
      "midi": 40,
      "hit": false,
      "t": 61889.76149999823,
      "d": 5.296604166665929,
      "v": 93
    },
    {
      "midi": 57,
      "hit": false,
      "t": 61889.76149999823,
      "d": 58.2626458333325,
      "v": 60
    },
    {
      "midi": 75,
      "hit": false,
      "t": 61889.76149999823,
      "d": 143.00831249999464,
      "v": 105
    },
    {
      "midi": 99,
      "hit": false,
      "t": 61889.76149999823,
      "d": 143.00831249999464,
      "v": 85
    },
    {
      "midi": 87,
      "hit": false,
      "t": 61889.76149999823,
      "d": 143.00831249999464,
      "v": 116
    },
    {
      "midi": 42,
      "hit": false,
      "t": 62011.58339583156,
      "d": 5.296604166665929,
      "v": 58
    },
    {
      "midi": 82,
      "hit": false,
      "t": 62016.87999999823,
      "d": 5.296604166665929,
      "v": 44
    },
    {
      "midi": 35,
      "hit": false,
      "t": 62016.87999999823,
      "d": 74.15245833333029,
      "v": 120
    },
    {
      "midi": 28,
      "hit": false,
      "t": 62016.87999999823,
      "d": 190.67774999999529,
      "v": 100
    },
    {
      "midi": 40,
      "hit": false,
      "t": 62016.87999999823,
      "d": 190.67774999999529,
      "v": 100
    },
    {
      "midi": 64,
      "hit": false,
      "t": 62016.87999999823,
      "d": 1006.354791666643,
      "v": 108
    },
    {
      "midi": 76,
      "hit": false,
      "t": 62016.87999999823,
      "d": 1011.6513958333089,
      "v": 100
    },
    {
      "midi": 100,
      "hit": false,
      "t": 62016.87999999823,
      "d": 1011.6513958333089,
      "v": 60
    },
    {
      "midi": 88,
      "hit": false,
      "t": 62016.87999999823,
      "d": 1011.6513958333089,
      "v": 110
    },
    {
      "midi": 62,
      "hit": false,
      "t": 62016.87999999823,
      "d": 2028.599395833291,
      "v": 87
    },
    {
      "midi": 67,
      "hit": false,
      "t": 62027.47320833156,
      "d": 995.7615833333111,
      "v": 92
    },
    {
      "midi": 82,
      "hit": false,
      "t": 62143.998499998226,
      "d": 5.296604166665929,
      "v": 31
    },
    {
      "midi": 42,
      "hit": false,
      "t": 62149.29510416489,
      "d": 5.296604166665929,
      "v": 50
    },
    {
      "midi": 42,
      "hit": false,
      "t": 62271.11699999822,
      "d": 5.296604166665929,
      "v": 107
    },
    {
      "midi": 82,
      "hit": false,
      "t": 62271.11699999822,
      "d": 5.296604166665929,
      "v": 46
    },
    {
      "midi": 71,
      "hit": false,
      "t": 62271.11699999822,
      "d": 248.94039583332778,
      "v": 106
    },
    {
      "midi": 82,
      "hit": false,
      "t": 62398.23549999822,
      "d": 5.296604166665929,
      "v": 87
    },
    {
      "midi": 28,
      "hit": false,
      "t": 62398.23549999822,
      "d": 47.66943750000064,
      "v": 100
    },
    {
      "midi": 40,
      "hit": false,
      "t": 62398.23549999822,
      "d": 47.66943750000064,
      "v": 100
    },
    {
      "midi": 42,
      "hit": false,
      "t": 62403.532104164886,
      "d": 5.296604166665929,
      "v": 53
    },
    {
      "midi": 28,
      "hit": false,
      "t": 62514.760791664885,
      "d": 164.19472916665836,
      "v": 100
    },
    {
      "midi": 40,
      "hit": false,
      "t": 62514.760791664885,
      "d": 164.19472916665836,
      "v": 100
    },
    {
      "midi": 46,
      "hit": false,
      "t": 62525.35399999822,
      "d": 5.296604166665929,
      "v": 70
    },
    {
      "midi": 82,
      "hit": false,
      "t": 62525.35399999822,
      "d": 5.296604166665929,
      "v": 44
    },
    {
      "midi": 35,
      "hit": false,
      "t": 62525.35399999822,
      "d": 74.15245833333029,
      "v": 120
    },
    {
      "midi": 73,
      "hit": false,
      "t": 62525.35399999822,
      "d": 248.94039583332778,
      "v": 94
    },
    {
      "midi": 82,
      "hit": false,
      "t": 62652.47249999821,
      "d": 5.296604166665929,
      "v": 31
    },
    {
      "midi": 44,
      "hit": false,
      "t": 62657.76910416488,
      "d": 5.296604166665929,
      "v": 50
    },
    {
      "midi": 26,
      "hit": false,
      "t": 62758.40458333155,
      "d": 121.82189583333093,
      "v": 100
    },
    {
      "midi": 38,
      "hit": false,
      "t": 62758.40458333155,
      "d": 121.82189583333093,
      "v": 100
    },
    {
      "midi": 42,
      "hit": false,
      "t": 62779.59099999821,
      "d": 5.296604166665929,
      "v": 107
    },
    {
      "midi": 82,
      "hit": false,
      "t": 62779.59099999821,
      "d": 5.296604166665929,
      "v": 46
    },
    {
      "midi": 74,
      "hit": false,
      "t": 62779.59099999821,
      "d": 248.94039583332778,
      "v": 98
    },
    {
      "midi": 28,
      "hit": false,
      "t": 62885.52308333154,
      "d": 153.6015208333265,
      "v": 100
    },
    {
      "midi": 40,
      "hit": false,
      "t": 62885.52308333154,
      "d": 153.6015208333265,
      "v": 100
    },
    {
      "midi": 82,
      "hit": false,
      "t": 62906.70949999821,
      "d": 5.296604166665929,
      "v": 87
    },
    {
      "midi": 42,
      "hit": false,
      "t": 62912.00610416487,
      "d": 5.296604166665929,
      "v": 53
    },
    {
      "midi": 31,
      "hit": false,
      "t": 63012.64158333154,
      "d": 116.52529166665772,
      "v": 100
    },
    {
      "midi": 43,
      "hit": false,
      "t": 63012.64158333154,
      "d": 116.52529166665772,
      "v": 100
    },
    {
      "midi": 42,
      "hit": false,
      "t": 63028.53139583154,
      "d": 5.296604166665929,
      "v": 73
    },
    {
      "midi": 35,
      "hit": false,
      "t": 63033.827999998204,
      "d": 74.15245833333029,
      "v": 120
    },
    {
      "midi": 76,
      "hit": false,
      "t": 63033.827999998204,
      "d": 503.1773958333215,
      "v": 104
    },
    {
      "midi": 67,
      "hit": false,
      "t": 63033.827999998204,
      "d": 1006.3547916666503,
      "v": 111
    },
    {
      "midi": 71,
      "hit": false,
      "t": 63033.827999998204,
      "d": 1006.3547916666503,
      "v": 110
    },
    {
      "midi": 74,
      "hit": false,
      "t": 63033.827999998204,
      "d": 1006.3547916666503,
      "v": 100
    },
    {
      "midi": 98,
      "hit": false,
      "t": 63033.827999998204,
      "d": 1011.6513958333162,
      "v": 60
    },
    {
      "midi": 86,
      "hit": false,
      "t": 63033.827999998204,
      "d": 1011.6513958333162,
      "v": 110
    },
    {
      "midi": 31,
      "hit": false,
      "t": 63139.76008333153,
      "d": 148.30491666666785,
      "v": 100
    },
    {
      "midi": 43,
      "hit": false,
      "t": 63139.76008333153,
      "d": 148.30491666666785,
      "v": 100
    },
    {
      "midi": 42,
      "hit": false,
      "t": 63166.24310416487,
      "d": 5.296604166665929,
      "v": 52
    },
    {
      "midi": 28,
      "hit": false,
      "t": 63272.1751874982,
      "d": 169.4913333333243,
      "v": 100
    },
    {
      "midi": 40,
      "hit": false,
      "t": 63272.1751874982,
      "d": 169.4913333333243,
      "v": 100
    },
    {
      "midi": 46,
      "hit": false,
      "t": 63288.0649999982,
      "d": 5.296604166665929,
      "v": 76
    },
    {
      "midi": 42,
      "hit": false,
      "t": 63420.48010416486,
      "d": 5.296604166665929,
      "v": 53
    },
    {
      "midi": 31,
      "hit": false,
      "t": 63531.70879166486,
      "d": 121.82189583333093,
      "v": 100
    },
    {
      "midi": 43,
      "hit": false,
      "t": 63531.70879166486,
      "d": 121.82189583333093,
      "v": 100
    },
    {
      "midi": 42,
      "hit": false,
      "t": 63537.005395831526,
      "d": 5.296604166665929,
      "v": 82
    },
    {
      "midi": 40,
      "hit": false,
      "t": 63542.30199999819,
      "d": 5.296604166665929,
      "v": 93
    },
    {
      "midi": 35,
      "hit": false,
      "t": 63542.30199999819,
      "d": 74.15245833333029,
      "v": 120
    },
    {
      "midi": 78,
      "hit": false,
      "t": 63542.30199999819,
      "d": 434.32154166665714,
      "v": 107
    },
    {
      "midi": 42,
      "hit": false,
      "t": 63674.717104164854,
      "d": 5.296604166665929,
      "v": 58
    },
    {
      "midi": 31,
      "hit": false,
      "t": 63785.94579166485,
      "d": 121.82189583333093,
      "v": 100
    },
    {
      "midi": 43,
      "hit": false,
      "t": 63785.94579166485,
      "d": 121.82189583333093,
      "v": 100
    },
    {
      "midi": 46,
      "hit": false,
      "t": 63796.538999998185,
      "d": 5.296604166665929,
      "v": 84
    },
    {
      "midi": 33,
      "hit": false,
      "t": 63913.06429166485,
      "d": 100.63547916666721,
      "v": 100
    },
    {
      "midi": 45,
      "hit": false,
      "t": 63913.06429166485,
      "d": 100.63547916666721,
      "v": 100
    },
    {
      "midi": 44,
      "hit": false,
      "t": 63928.95410416485,
      "d": 5.296604166665929,
      "v": 84
    },
    {
      "midi": 42,
      "hit": false,
      "t": 64050.775999998186,
      "d": 0,
      "v": 100
    },
    {
      "midi": 82,
      "hit": false,
      "t": 64050.775999998186,
      "d": 5.296604166665929,
      "v": 44
    },
    {
      "midi": 35,
      "hit": false,
      "t": 64050.775999998186,
      "d": 74.15245833333029,
      "v": 120
    },
    {
      "midi": 30,
      "hit": false,
      "t": 64050.775999998186,
      "d": 100.63547916666721,
      "v": 100
    },
    {
      "midi": 66,
      "hit": false,
      "t": 64050.775999998186,
      "d": 1006.3547916666648,
      "v": 123
    },
    {
      "midi": 69,
      "hit": false,
      "t": 64050.775999998186,
      "d": 1006.3547916666648,
      "v": 100
    },
    {
      "midi": 97,
      "hit": false,
      "t": 64050.775999998186,
      "d": 1520.1253958333182,
      "v": 60
    },
    {
      "midi": 85,
      "hit": false,
      "t": 64050.775999998186,
      "d": 1520.1253958333182,
      "v": 110
    },
    {
      "midi": 73,
      "hit": false,
      "t": 64071.96241666485,
      "d": 736.2279791666733,
      "v": 97
    },
    {
      "midi": 82,
      "hit": false,
      "t": 64177.89449999819,
      "d": 5.296604166665929,
      "v": 31
    },
    {
      "midi": 30,
      "hit": false,
      "t": 64177.89449999819,
      "d": 100.63547916666721,
      "v": 100
    },
    {
      "midi": 42,
      "hit": false,
      "t": 64183.19110416486,
      "d": 5.296604166665929,
      "v": 50
    },
    {
      "midi": 42,
      "hit": false,
      "t": 64305.012999998195,
      "d": 5.296604166665929,
      "v": 107
    },
    {
      "midi": 82,
      "hit": false,
      "t": 64305.012999998195,
      "d": 5.296604166665929,
      "v": 46
    },
    {
      "midi": 82,
      "hit": false,
      "t": 64432.1314999982,
      "d": 5.296604166665929,
      "v": 87
    },
    {
      "midi": 30,
      "hit": false,
      "t": 64432.1314999982,
      "d": 84.74566666666215,
      "v": 100
    },
    {
      "midi": 42,
      "hit": false,
      "t": 64437.428104164865,
      "d": 5.296604166665929,
      "v": 53
    },
    {
      "midi": 30,
      "hit": false,
      "t": 64548.656791664864,
      "d": 79.44906249999622,
      "v": 100
    },
    {
      "midi": 42,
      "hit": false,
      "t": 64548.656791664864,
      "d": 79.44906249999622,
      "v": 100
    },
    {
      "midi": 46,
      "hit": false,
      "t": 64559.249999998196,
      "d": 5.296604166665929,
      "v": 70
    },
    {
      "midi": 82,
      "hit": false,
      "t": 64559.249999998196,
      "d": 5.296604166665929,
      "v": 44
    },
    {
      "midi": 35,
      "hit": false,
      "t": 64559.249999998196,
      "d": 74.15245833333029,
      "v": 120
    },
    {
      "midi": 82,
      "hit": false,
      "t": 64686.36849999819,
      "d": 5.296604166665929,
      "v": 31
    },
    {
      "midi": 44,
      "hit": false,
      "t": 64691.66510416486,
      "d": 5.296604166665929,
      "v": 50
    },
    {
      "midi": 30,
      "hit": false,
      "t": 64792.300583331526,
      "d": 121.82189583333093,
      "v": 100
    },
    {
      "midi": 42,
      "hit": false,
      "t": 64813.48699999819,
      "d": 5.296604166665929,
      "v": 107
    },
    {
      "midi": 82,
      "hit": false,
      "t": 64813.48699999819,
      "d": 5.296604166665929,
      "v": 46
    },
    {
      "midi": 73,
      "hit": false,
      "t": 64813.48699999819,
      "d": 243.64379166666185,
      "v": 79
    },
    {
      "midi": 25,
      "hit": false,
      "t": 64919.41908333152,
      "d": 153.6015208333265,
      "v": 100
    },
    {
      "midi": 37,
      "hit": false,
      "t": 64919.41908333152,
      "d": 153.6015208333265,
      "v": 100
    },
    {
      "midi": 82,
      "hit": false,
      "t": 64940.605499998186,
      "d": 5.296604166665929,
      "v": 87
    },
    {
      "midi": 42,
      "hit": false,
      "t": 64945.90210416485,
      "d": 5.296604166665929,
      "v": 53
    },
    {
      "midi": 42,
      "hit": false,
      "t": 65062.42739583152,
      "d": 5.296604166665929,
      "v": 73
    },
    {
      "midi": 82,
      "hit": false,
      "t": 65067.72399999818,
      "d": 5.296604166665929,
      "v": 44
    },
    {
      "midi": 23,
      "hit": false,
      "t": 65067.72399999818,
      "d": 74.15245833333029,
      "v": 100
    },
    {
      "midi": 35,
      "hit": false,
      "t": 65067.72399999818,
      "d": 74.15245833333029,
      "v": 120
    },
    {
      "midi": 73,
      "hit": false,
      "t": 65067.72399999818,
      "d": 503.1773958333215,
      "v": 121
    },
    {
      "midi": 64,
      "hit": false,
      "t": 65067.72399999818,
      "d": 1006.354791666643,
      "v": 104
    },
    {
      "midi": 69,
      "hit": false,
      "t": 65067.72399999818,
      "d": 1006.354791666643,
      "v": 127
    },
    {
      "midi": 81,
      "hit": false,
      "t": 65067.72399999818,
      "d": 1016.9479999999749,
      "v": 108
    },
    {
      "midi": 40,
      "hit": false,
      "t": 65194.84249999818,
      "d": 5.296604166665929,
      "v": 93
    },
    {
      "midi": 82,
      "hit": false,
      "t": 65194.84249999818,
      "d": 5.296604166665929,
      "v": 31
    },
    {
      "midi": 30,
      "hit": false,
      "t": 65194.84249999818,
      "d": 105.93208333333314,
      "v": 100
    },
    {
      "midi": 42,
      "hit": false,
      "t": 65200.139104164846,
      "d": 5.296604166665929,
      "v": 62
    },
    {
      "midi": 23,
      "hit": false,
      "t": 65306.07118749818,
      "d": 169.4913333333243,
      "v": 100
    },
    {
      "midi": 35,
      "hit": false,
      "t": 65306.07118749818,
      "d": 169.4913333333243,
      "v": 100
    },
    {
      "midi": 42,
      "hit": false,
      "t": 65321.96099999818,
      "d": 5.296604166665929,
      "v": 76
    },
    {
      "midi": 82,
      "hit": false,
      "t": 65321.96099999818,
      "d": 5.296604166665929,
      "v": 46
    },
    {
      "midi": 82,
      "hit": false,
      "t": 65449.07949999817,
      "d": 5.296604166665929,
      "v": 87
    },
    {
      "midi": 42,
      "hit": false,
      "t": 65454.37610416484,
      "d": 5.296604166665929,
      "v": 63
    },
    {
      "midi": 33,
      "hit": false,
      "t": 65565.60479166484,
      "d": 121.82189583333093,
      "v": 100
    },
    {
      "midi": 45,
      "hit": false,
      "t": 65565.60479166484,
      "d": 121.82189583333093,
      "v": 100
    },
    {
      "midi": 42,
      "hit": false,
      "t": 65570.9013958315,
      "d": 5.296604166665929,
      "v": 82
    },
    {
      "midi": 40,
      "hit": false,
      "t": 65576.19799999817,
      "d": 5.296604166665929,
      "v": 93
    },
    {
      "midi": 82,
      "hit": false,
      "t": 65576.19799999817,
      "d": 5.296604166665929,
      "v": 46
    },
    {
      "midi": 35,
      "hit": false,
      "t": 65576.19799999817,
      "d": 74.15245833333756,
      "v": 120
    },
    {
      "midi": 72,
      "hit": false,
      "t": 65576.19799999817,
      "d": 503.1773958333215,
      "v": 100
    },
    {
      "midi": 96,
      "hit": false,
      "t": 65576.19799999817,
      "d": 503.1773958333215,
      "v": 60
    },
    {
      "midi": 84,
      "hit": false,
      "t": 65576.19799999817,
      "d": 503.1773958333215,
      "v": 110
    },
    {
      "midi": 42,
      "hit": false,
      "t": 65708.61310416483,
      "d": 5.296604166665929,
      "v": 58
    },
    {
      "midi": 33,
      "hit": false,
      "t": 65819.84179166483,
      "d": 148.30491666666057,
      "v": 100
    },
    {
      "midi": 45,
      "hit": false,
      "t": 65819.84179166483,
      "d": 148.30491666666057,
      "v": 100
    },
    {
      "midi": 46,
      "hit": false,
      "t": 65830.43499999816,
      "d": 5.296604166665929,
      "v": 84
    },
    {
      "midi": 35,
      "hit": false,
      "t": 65946.96029166483,
      "d": 100.63547916666721,
      "v": 100
    },
    {
      "midi": 47,
      "hit": false,
      "t": 65946.96029166483,
      "d": 100.63547916666721,
      "v": 100
    },
    {
      "midi": 44,
      "hit": false,
      "t": 65962.85010416483,
      "d": 5.296604166665929,
      "v": 84
    },
    {
      "midi": 42,
      "hit": false,
      "t": 66079.37539583149,
      "d": 5.296604166665929,
      "v": 58
    },
    {
      "midi": 82,
      "hit": false,
      "t": 66084.67199999816,
      "d": 5.296604166665929,
      "v": 44
    },
    {
      "midi": 35,
      "hit": false,
      "t": 66084.67199999816,
      "d": 74.15245833333756,
      "v": 120
    },
    {
      "midi": 28,
      "hit": false,
      "t": 66084.67199999816,
      "d": 190.6777500000171,
      "v": 100
    },
    {
      "midi": 40,
      "hit": false,
      "t": 66084.67199999816,
      "d": 190.6777500000171,
      "v": 100
    },
    {
      "midi": 95,
      "hit": false,
      "t": 66084.67199999816,
      "d": 1011.6513958333526,
      "v": 60
    },
    {
      "midi": 83,
      "hit": false,
      "t": 66084.67199999816,
      "d": 1011.6513958333526,
      "v": 110
    },
    {
      "midi": 52,
      "hit": false,
      "t": 66084.67199999816,
      "d": 1032.8378125000163,
      "v": 83
    },
    {
      "midi": 82,
      "hit": false,
      "t": 66211.79049999817,
      "d": 5.296604166665929,
      "v": 31
    },
    {
      "midi": 42,
      "hit": false,
      "t": 66217.08710416484,
      "d": 5.296604166665929,
      "v": 50
    },
    {
      "midi": 42,
      "hit": false,
      "t": 66338.90899999818,
      "d": 5.296604166665929,
      "v": 107
    },
    {
      "midi": 82,
      "hit": false,
      "t": 66338.90899999818,
      "d": 5.296604166665929,
      "v": 46
    },
    {
      "midi": 71,
      "hit": false,
      "t": 66338.90899999818,
      "d": 248.94039583332778,
      "v": 100
    },
    {
      "midi": 62,
      "hit": false,
      "t": 66338.90899999818,
      "d": 752.1177916666638,
      "v": 85
    },
    {
      "midi": 82,
      "hit": false,
      "t": 66466.02749999818,
      "d": 5.296604166665929,
      "v": 87
    },
    {
      "midi": 28,
      "hit": false,
      "t": 66466.02749999818,
      "d": 47.669437499993364,
      "v": 100
    },
    {
      "midi": 40,
      "hit": false,
      "t": 66466.02749999818,
      "d": 47.669437499993364,
      "v": 100
    },
    {
      "midi": 42,
      "hit": false,
      "t": 66471.32410416484,
      "d": 5.296604166665929,
      "v": 53
    },
    {
      "midi": 28,
      "hit": false,
      "t": 66582.55279166484,
      "d": 164.19472916667291,
      "v": 100
    },
    {
      "midi": 40,
      "hit": false,
      "t": 66582.55279166484,
      "d": 164.19472916667291,
      "v": 100
    },
    {
      "midi": 46,
      "hit": false,
      "t": 66593.14599999817,
      "d": 5.296604166665929,
      "v": 70
    },
    {
      "midi": 82,
      "hit": false,
      "t": 66593.14599999817,
      "d": 5.296604166665929,
      "v": 44
    },
    {
      "midi": 35,
      "hit": false,
      "t": 66593.14599999817,
      "d": 74.15245833333756,
      "v": 120
    },
    {
      "midi": 73,
      "hit": false,
      "t": 66593.14599999817,
      "d": 248.94039583334234,
      "v": 88
    },
    {
      "midi": 71,
      "hit": false,
      "t": 66593.14599999817,
      "d": 497.8807916666701,
      "v": 110
    },
    {
      "midi": 82,
      "hit": false,
      "t": 66720.26449999819,
      "d": 5.296604166665929,
      "v": 31
    },
    {
      "midi": 44,
      "hit": false,
      "t": 66725.56110416485,
      "d": 5.296604166665929,
      "v": 50
    },
    {
      "midi": 26,
      "hit": false,
      "t": 66826.19658333152,
      "d": 121.82189583333093,
      "v": 100
    },
    {
      "midi": 38,
      "hit": false,
      "t": 66826.19658333152,
      "d": 121.82189583333093,
      "v": 100
    },
    {
      "midi": 42,
      "hit": false,
      "t": 66847.38299999818,
      "d": 5.296604166665929,
      "v": 107
    },
    {
      "midi": 82,
      "hit": false,
      "t": 66847.38299999818,
      "d": 5.296604166665929,
      "v": 46
    },
    {
      "midi": 67,
      "hit": false,
      "t": 66847.38299999818,
      "d": 243.64379166666185,
      "v": 96
    },
    {
      "midi": 74,
      "hit": false,
      "t": 66847.38299999818,
      "d": 248.94039583332778,
      "v": 92
    },
    {
      "midi": 28,
      "hit": false,
      "t": 66953.31508333152,
      "d": 153.6015208333265,
      "v": 100
    },
    {
      "midi": 40,
      "hit": false,
      "t": 66953.31508333152,
      "d": 153.6015208333265,
      "v": 100
    },
    {
      "midi": 82,
      "hit": false,
      "t": 66974.50149999818,
      "d": 5.296604166665929,
      "v": 87
    },
    {
      "midi": 42,
      "hit": false,
      "t": 66979.79810416485,
      "d": 5.296604166665929,
      "v": 53
    },
    {
      "midi": 31,
      "hit": false,
      "t": 67080.43358333151,
      "d": 116.525291666665,
      "v": 100
    },
    {
      "midi": 43,
      "hit": false,
      "t": 67080.43358333151,
      "d": 116.525291666665,
      "v": 100
    },
    {
      "midi": 42,
      "hit": false,
      "t": 67096.32339583151,
      "d": 5.296604166665929,
      "v": 73
    },
    {
      "midi": 82,
      "hit": false,
      "t": 67101.61999999818,
      "d": 5.296604166665929,
      "v": 44
    },
    {
      "midi": 35,
      "hit": false,
      "t": 67101.61999999818,
      "d": 74.15245833333756,
      "v": 120
    },
    {
      "midi": 76,
      "hit": false,
      "t": 67101.61999999818,
      "d": 503.1773958333215,
      "v": 98
    },
    {
      "midi": 67,
      "hit": false,
      "t": 67101.61999999818,
      "d": 985.1683749999647,
      "v": 111
    },
    {
      "midi": 71,
      "hit": false,
      "t": 67101.61999999818,
      "d": 1001.0581874999625,
      "v": 110
    },
    {
      "midi": 74,
      "hit": false,
      "t": 67101.61999999818,
      "d": 1006.3547916666284,
      "v": 126
    },
    {
      "midi": 69,
      "hit": false,
      "t": 67101.61999999818,
      "d": 1011.6513958332944,
      "v": 100
    },
    {
      "midi": 93,
      "hit": false,
      "t": 67101.61999999818,
      "d": 1011.6513958332944,
      "v": 60
    },
    {
      "midi": 81,
      "hit": false,
      "t": 67101.61999999818,
      "d": 1011.6513958332944,
      "v": 110
    },
    {
      "midi": 31,
      "hit": false,
      "t": 67207.55208333151,
      "d": 148.30491666666057,
      "v": 100
    },
    {
      "midi": 43,
      "hit": false,
      "t": 67207.55208333151,
      "d": 148.30491666666057,
      "v": 100
    },
    {
      "midi": 82,
      "hit": false,
      "t": 67228.73849999817,
      "d": 5.296604166665929,
      "v": 31
    },
    {
      "midi": 42,
      "hit": false,
      "t": 67234.03510416484,
      "d": 5.296604166665929,
      "v": 62
    },
    {
      "midi": 28,
      "hit": false,
      "t": 67339.96718749817,
      "d": 169.4913333333243,
      "v": 100
    },
    {
      "midi": 40,
      "hit": false,
      "t": 67339.96718749817,
      "d": 169.4913333333243,
      "v": 100
    },
    {
      "midi": 42,
      "hit": false,
      "t": 67355.85699999817,
      "d": 5.296604166665929,
      "v": 76
    },
    {
      "midi": 82,
      "hit": false,
      "t": 67355.85699999817,
      "d": 5.296604166665929,
      "v": 46
    },
    {
      "midi": 82,
      "hit": false,
      "t": 67482.97549999817,
      "d": 5.296604166665929,
      "v": 87
    },
    {
      "midi": 42,
      "hit": false,
      "t": 67488.27210416483,
      "d": 5.296604166665929,
      "v": 63
    },
    {
      "midi": 31,
      "hit": false,
      "t": 67599.50079166483,
      "d": 121.82189583333093,
      "v": 100
    },
    {
      "midi": 43,
      "hit": false,
      "t": 67599.50079166483,
      "d": 121.82189583333093,
      "v": 100
    },
    {
      "midi": 42,
      "hit": false,
      "t": 67604.7973958315,
      "d": 5.296604166665929,
      "v": 82
    },
    {
      "midi": 40,
      "hit": false,
      "t": 67610.09399999816,
      "d": 5.296604166665929,
      "v": 93
    },
    {
      "midi": 82,
      "hit": false,
      "t": 67610.09399999816,
      "d": 5.296604166665929,
      "v": 46
    },
    {
      "midi": 35,
      "hit": false,
      "t": 67610.09399999816,
      "d": 74.15245833333756,
      "v": 120
    },
    {
      "midi": 78,
      "hit": false,
      "t": 67610.09399999816,
      "d": 434.32154166664986,
      "v": 101
    },
    {
      "midi": 42,
      "hit": false,
      "t": 67742.50910416483,
      "d": 5.296604166665929,
      "v": 58
    },
    {
      "midi": 31,
      "hit": false,
      "t": 67853.73779166483,
      "d": 121.82189583333093,
      "v": 100
    },
    {
      "midi": 43,
      "hit": false,
      "t": 67853.73779166483,
      "d": 121.82189583333093,
      "v": 100
    },
    {
      "midi": 46,
      "hit": false,
      "t": 67864.33099999816,
      "d": 5.296604166665929,
      "v": 84
    },
    {
      "midi": 33,
      "hit": false,
      "t": 67980.85629166482,
      "d": 100.63547916665266,
      "v": 100
    },
    {
      "midi": 45,
      "hit": false,
      "t": 67980.85629166482,
      "d": 100.63547916665266,
      "v": 100
    },
    {
      "midi": 44,
      "hit": false,
      "t": 67996.74610416482,
      "d": 5.296604166665929,
      "v": 84
    },
    {
      "midi": 42,
      "hit": false,
      "t": 68118.56799999814,
      "d": 0,
      "v": 100
    },
    {
      "midi": 82,
      "hit": false,
      "t": 68118.56799999814,
      "d": 5.296604166665929,
      "v": 44
    },
    {
      "midi": 35,
      "hit": false,
      "t": 68118.56799999814,
      "d": 74.15245833333756,
      "v": 120
    },
    {
      "midi": 30,
      "hit": false,
      "t": 68118.56799999814,
      "d": 100.63547916666721,
      "v": 100
    },
    {
      "midi": 61,
      "hit": false,
      "t": 68118.56799999814,
      "d": 1006.3547916666575,
      "v": 104
    },
    {
      "midi": 66,
      "hit": false,
      "t": 68118.56799999814,
      "d": 1006.3547916666575,
      "v": 107
    },
    {
      "midi": 69,
      "hit": false,
      "t": 68118.56799999814,
      "d": 1006.3547916666575,
      "v": 94
    },
    {
      "midi": 81,
      "hit": false,
      "t": 68129.16120833147,
      "d": 757.4143958333298,
      "v": 115
    },
    {
      "midi": 73,
      "hit": false,
      "t": 68139.7544166648,
      "d": 1011.6513958333235,
      "v": 91
    },
    {
      "midi": 82,
      "hit": false,
      "t": 68245.68649999813,
      "d": 5.296604166665929,
      "v": 31
    },
    {
      "midi": 30,
      "hit": false,
      "t": 68245.68649999813,
      "d": 100.63547916666721,
      "v": 100
    },
    {
      "midi": 42,
      "hit": false,
      "t": 68250.9831041648,
      "d": 5.296604166665929,
      "v": 50
    },
    {
      "midi": 42,
      "hit": false,
      "t": 68372.80499999813,
      "d": 5.296604166665929,
      "v": 107
    },
    {
      "midi": 82,
      "hit": false,
      "t": 68372.80499999813,
      "d": 5.296604166665929,
      "v": 46
    },
    {
      "midi": 78,
      "hit": false,
      "t": 68372.80499999813,
      "d": 248.94039583332778,
      "v": 100
    },
    {
      "midi": 102,
      "hit": false,
      "t": 68372.80499999813,
      "d": 248.94039583332778,
      "v": 60
    },
    {
      "midi": 90,
      "hit": false,
      "t": 68372.80499999813,
      "d": 248.94039583332778,
      "v": 110
    },
    {
      "midi": 82,
      "hit": false,
      "t": 68499.92349999813,
      "d": 5.296604166665929,
      "v": 87
    },
    {
      "midi": 30,
      "hit": false,
      "t": 68499.92349999813,
      "d": 84.74566666666942,
      "v": 100
    },
    {
      "midi": 42,
      "hit": false,
      "t": 68505.2201041648,
      "d": 5.296604166665929,
      "v": 53
    },
    {
      "midi": 30,
      "hit": false,
      "t": 68616.44879166479,
      "d": 79.44906250000349,
      "v": 100
    },
    {
      "midi": 42,
      "hit": false,
      "t": 68616.44879166479,
      "d": 79.44906250000349,
      "v": 100
    },
    {
      "midi": 46,
      "hit": false,
      "t": 68627.04199999812,
      "d": 5.296604166665929,
      "v": 70
    },
    {
      "midi": 82,
      "hit": false,
      "t": 68627.04199999812,
      "d": 5.296604166665929,
      "v": 44
    },
    {
      "midi": 35,
      "hit": false,
      "t": 68627.04199999812,
      "d": 74.15245833333756,
      "v": 120
    },
    {
      "midi": 77,
      "hit": false,
      "t": 68627.04199999812,
      "d": 248.94039583334234,
      "v": 100
    },
    {
      "midi": 101,
      "hit": false,
      "t": 68627.04199999812,
      "d": 248.94039583334234,
      "v": 60
    },
    {
      "midi": 89,
      "hit": false,
      "t": 68627.04199999812,
      "d": 248.94039583334234,
      "v": 110
    },
    {
      "midi": 82,
      "hit": false,
      "t": 68754.16049999814,
      "d": 5.296604166665929,
      "v": 31
    },
    {
      "midi": 44,
      "hit": false,
      "t": 68759.4571041648,
      "d": 5.296604166665929,
      "v": 50
    },
    {
      "midi": 30,
      "hit": false,
      "t": 68860.09258333147,
      "d": 121.82189583333093,
      "v": 100
    },
    {
      "midi": 42,
      "hit": false,
      "t": 68881.27899999813,
      "d": 5.296604166665929,
      "v": 107
    },
    {
      "midi": 82,
      "hit": false,
      "t": 68881.27899999813,
      "d": 5.296604166665929,
      "v": 46
    },
    {
      "midi": 83,
      "hit": false,
      "t": 68881.27899999813,
      "d": 121.82189583333093,
      "v": 105
    },
    {
      "midi": 78,
      "hit": false,
      "t": 68881.27899999813,
      "d": 248.94039583332778,
      "v": 100
    },
    {
      "midi": 102,
      "hit": false,
      "t": 68881.27899999813,
      "d": 248.94039583332778,
      "v": 60
    },
    {
      "midi": 90,
      "hit": false,
      "t": 68881.27899999813,
      "d": 248.94039583332778,
      "v": 110
    },
    {
      "midi": 25,
      "hit": false,
      "t": 68987.21108333147,
      "d": 153.6015208333265,
      "v": 100
    },
    {
      "midi": 37,
      "hit": false,
      "t": 68987.21108333147,
      "d": 153.6015208333265,
      "v": 100
    },
    {
      "midi": 82,
      "hit": false,
      "t": 69008.39749999813,
      "d": 5.296604166665929,
      "v": 87
    },
    {
      "midi": 81,
      "hit": false,
      "t": 69008.39749999813,
      "d": 121.82189583333093,
      "v": 93
    },
    {
      "midi": 42,
      "hit": false,
      "t": 69013.6941041648,
      "d": 5.296604166665929,
      "v": 53
    },
    {
      "midi": 42,
      "hit": false,
      "t": 69130.21939583146,
      "d": 5.296604166665929,
      "v": 73
    },
    {
      "midi": 82,
      "hit": false,
      "t": 69135.51599999813,
      "d": 5.296604166665929,
      "v": 44
    },
    {
      "midi": 23,
      "hit": false,
      "t": 69135.51599999813,
      "d": 74.15245833333756,
      "v": 100
    },
    {
      "midi": 35,
      "hit": false,
      "t": 69135.51599999813,
      "d": 74.15245833333756,
      "v": 120
    },
    {
      "midi": 81,
      "hit": false,
      "t": 69135.51599999813,
      "d": 248.94039583334234,
      "v": 100
    },
    {
      "midi": 105,
      "hit": false,
      "t": 69135.51599999813,
      "d": 248.94039583334234,
      "v": 60
    },
    {
      "midi": 93,
      "hit": false,
      "t": 69135.51599999813,
      "d": 248.94039583334234,
      "v": 121
    },
    {
      "midi": 57,
      "hit": false,
      "t": 69135.51599999813,
      "d": 1006.3547916666575,
      "v": 104
    },
    {
      "midi": 63,
      "hit": false,
      "t": 69135.51599999813,
      "d": 1006.3547916666575,
      "v": 108
    },
    {
      "midi": 66,
      "hit": false,
      "t": 69135.51599999813,
      "d": 1006.3547916666575,
      "v": 94
    },
    {
      "midi": 40,
      "hit": false,
      "t": 69262.63449999814,
      "d": 5.296604166665929,
      "v": 93
    },
    {
      "midi": 82,
      "hit": false,
      "t": 69262.63449999814,
      "d": 5.296604166665929,
      "v": 31
    },
    {
      "midi": 30,
      "hit": false,
      "t": 69262.63449999814,
      "d": 105.93208333333314,
      "v": 100
    },
    {
      "midi": 42,
      "hit": false,
      "t": 69267.9311041648,
      "d": 5.296604166665929,
      "v": 62
    },
    {
      "midi": 23,
      "hit": false,
      "t": 69373.86318749814,
      "d": 169.4913333333243,
      "v": 100
    },
    {
      "midi": 35,
      "hit": false,
      "t": 69373.86318749814,
      "d": 169.4913333333243,
      "v": 100
    },
    {
      "midi": 42,
      "hit": false,
      "t": 69389.75299999813,
      "d": 5.296604166665929,
      "v": 76
    },
    {
      "midi": 82,
      "hit": false,
      "t": 69389.75299999813,
      "d": 5.296604166665929,
      "v": 46
    },
    {
      "midi": 79,
      "hit": false,
      "t": 69389.75299999813,
      "d": 248.94039583332778,
      "v": 100
    },
    {
      "midi": 103,
      "hit": false,
      "t": 69389.75299999813,
      "d": 248.94039583332778,
      "v": 60
    },
    {
      "midi": 91,
      "hit": false,
      "t": 69389.75299999813,
      "d": 248.94039583332778,
      "v": 110
    },
    {
      "midi": 82,
      "hit": false,
      "t": 69516.87149999813,
      "d": 5.296604166665929,
      "v": 87
    },
    {
      "midi": 42,
      "hit": false,
      "t": 69522.1681041648,
      "d": 5.296604166665929,
      "v": 63
    },
    {
      "midi": 33,
      "hit": false,
      "t": 69633.3967916648,
      "d": 121.82189583333093,
      "v": 100
    },
    {
      "midi": 45,
      "hit": false,
      "t": 69633.3967916648,
      "d": 121.82189583333093,
      "v": 100
    },
    {
      "midi": 42,
      "hit": false,
      "t": 69638.69339583146,
      "d": 5.296604166665929,
      "v": 82
    },
    {
      "midi": 40,
      "hit": false,
      "t": 69643.98999999813,
      "d": 5.296604166665929,
      "v": 93
    },
    {
      "midi": 82,
      "hit": false,
      "t": 69643.98999999813,
      "d": 5.296604166665929,
      "v": 44
    },
    {
      "midi": 35,
      "hit": false,
      "t": 69643.98999999813,
      "d": 74.15245833333756,
      "v": 120
    },
    {
      "midi": 78,
      "hit": false,
      "t": 69643.98999999813,
      "d": 248.94039583332778,
      "v": 100
    },
    {
      "midi": 102,
      "hit": false,
      "t": 69643.98999999813,
      "d": 248.94039583332778,
      "v": 60
    },
    {
      "midi": 90,
      "hit": false,
      "t": 69643.98999999813,
      "d": 248.94039583332778,
      "v": 110
    },
    {
      "midi": 82,
      "hit": false,
      "t": 69771.10849999812,
      "d": 5.296604166665929,
      "v": 31
    },
    {
      "midi": 42,
      "hit": false,
      "t": 69776.40510416479,
      "d": 5.296604166665929,
      "v": 58
    },
    {
      "midi": 33,
      "hit": false,
      "t": 69887.63379166479,
      "d": 148.30491666666057,
      "v": 100
    },
    {
      "midi": 45,
      "hit": false,
      "t": 69887.63379166479,
      "d": 148.30491666666057,
      "v": 100
    },
    {
      "midi": 46,
      "hit": false,
      "t": 69898.22699999812,
      "d": 5.296604166665929,
      "v": 84
    },
    {
      "midi": 82,
      "hit": false,
      "t": 69898.22699999812,
      "d": 5.296604166665929,
      "v": 46
    },
    {
      "midi": 74,
      "hit": false,
      "t": 69898.22699999812,
      "d": 248.94039583332778,
      "v": 100
    },
    {
      "midi": 98,
      "hit": false,
      "t": 69898.22699999812,
      "d": 248.94039583332778,
      "v": 60
    },
    {
      "midi": 86,
      "hit": false,
      "t": 69898.22699999812,
      "d": 248.94039583332778,
      "v": 110
    },
    {
      "midi": 35,
      "hit": false,
      "t": 70014.75229166479,
      "d": 100.63547916666721,
      "v": 100
    },
    {
      "midi": 47,
      "hit": false,
      "t": 70014.75229166479,
      "d": 100.63547916666721,
      "v": 100
    },
    {
      "midi": 44,
      "hit": false,
      "t": 70030.64210416478,
      "d": 5.296604166665929,
      "v": 84
    },
    {
      "midi": 57,
      "hit": false,
      "t": 70152.46399999812,
      "d": 5.296604166665929,
      "v": 127
    },
    {
      "midi": 82,
      "hit": false,
      "t": 70152.46399999812,
      "d": 5.296604166665929,
      "v": 44
    },
    {
      "midi": 71,
      "hit": false,
      "t": 70152.46399999812,
      "d": 15.889812499997788,
      "v": 100
    },
    {
      "midi": 35,
      "hit": false,
      "t": 70152.46399999812,
      "d": 74.15245833333756,
      "v": 120
    },
    {
      "midi": 28,
      "hit": false,
      "t": 70152.46399999812,
      "d": 1006.3547916666575,
      "v": 100
    },
    {
      "midi": 62,
      "hit": false,
      "t": 70152.46399999812,
      "d": 1006.3547916666575,
      "v": 75
    },
    {
      "midi": 64,
      "hit": false,
      "t": 70152.46399999812,
      "d": 1011.6513958333235,
      "v": 94
    },
    {
      "midi": 52,
      "hit": false,
      "t": 70152.46399999812,
      "d": 1011.6513958333235,
      "v": 78
    },
    {
      "midi": 76,
      "hit": false,
      "t": 70152.46399999812,
      "d": 1011.6513958333235,
      "v": 100
    },
    {
      "midi": 100,
      "hit": false,
      "t": 70152.46399999812,
      "d": 1011.6513958333235,
      "v": 60
    },
    {
      "midi": 88,
      "hit": false,
      "t": 70152.46399999812,
      "d": 1011.6513958333235,
      "v": 110
    },
    {
      "midi": 40,
      "hit": false,
      "t": 70163.05720833145,
      "d": 995.7615833333257,
      "v": 79
    },
    {
      "midi": 47,
      "hit": false,
      "t": 70163.05720833145,
      "d": 1001.0581874999916,
      "v": 65
    },
    {
      "midi": 67,
      "hit": false,
      "t": 70173.65041666478,
      "d": 985.1683749999938,
      "v": 91
    },
    {
      "midi": 82,
      "hit": false,
      "t": 70279.58249999813,
      "d": 5.296604166665929,
      "v": 31
    },
    {
      "midi": 82,
      "hit": false,
      "t": 70406.70099999812,
      "d": 5.296604166665929,
      "v": 46
    },
    {
      "midi": 82,
      "hit": false,
      "t": 70533.81949999812,
      "d": 5.296604166665929,
      "v": 87
    },
    {
      "midi": 82,
      "hit": false,
      "t": 70660.93799999812,
      "d": 5.296604166665929,
      "v": 44
    },
    {
      "midi": 35,
      "hit": false,
      "t": 70660.93799999812,
      "d": 74.15245833333756,
      "v": 120
    },
    {
      "midi": 79,
      "hit": false,
      "t": 70660.93799999812,
      "d": 248.94039583334234,
      "v": 103
    },
    {
      "midi": 82,
      "hit": false,
      "t": 70788.05649999813,
      "d": 5.296604166665929,
      "v": 31
    },
    {
      "midi": 82,
      "hit": false,
      "t": 70915.17499999813,
      "d": 5.296604166665929,
      "v": 46
    },
    {
      "midi": 79,
      "hit": false,
      "t": 70915.17499999813,
      "d": 248.94039583331323,
      "v": 99
    },
    {
      "midi": 38,
      "hit": false,
      "t": 71042.29349999812,
      "d": 5.296604166665929,
      "v": 30
    },
    {
      "midi": 51,
      "hit": false,
      "t": 71042.29349999812,
      "d": 5.296604166665929,
      "v": 77
    },
    {
      "midi": 82,
      "hit": false,
      "t": 71042.29349999812,
      "d": 5.296604166665929,
      "v": 87
    },
    {
      "midi": 38,
      "hit": false,
      "t": 71084.66633333145,
      "d": 5.296604166665929,
      "v": 30
    },
    {
      "midi": 51,
      "hit": false,
      "t": 71084.66633333145,
      "d": 5.296604166665929,
      "v": 81
    },
    {
      "midi": 38,
      "hit": false,
      "t": 71127.03916666478,
      "d": 5.296604166665929,
      "v": 30
    },
    {
      "midi": 51,
      "hit": false,
      "t": 71127.03916666478,
      "d": 5.296604166665929,
      "v": 85
    },
    {
      "midi": 38,
      "hit": false,
      "t": 71169.4119999981,
      "d": 5.296604166665929,
      "v": 30
    },
    {
      "midi": 51,
      "hit": false,
      "t": 71169.4119999981,
      "d": 5.296604166665929,
      "v": 108
    },
    {
      "midi": 35,
      "hit": false,
      "t": 71169.4119999981,
      "d": 74.15245833333756,
      "v": 120
    },
    {
      "midi": 78,
      "hit": false,
      "t": 71169.4119999981,
      "d": 503.17739583333605,
      "v": 106
    },
    {
      "midi": 74,
      "hit": false,
      "t": 71169.4119999981,
      "d": 503.17739583333605,
      "v": 100
    },
    {
      "midi": 98,
      "hit": false,
      "t": 71169.4119999981,
      "d": 503.17739583333605,
      "v": 60
    },
    {
      "midi": 86,
      "hit": false,
      "t": 71169.4119999981,
      "d": 503.17739583333605,
      "v": 110
    },
    {
      "midi": 30,
      "hit": false,
      "t": 71169.4119999981,
      "d": 1006.3547916666867,
      "v": 100
    },
    {
      "midi": 61,
      "hit": false,
      "t": 71169.4119999981,
      "d": 1006.3547916666867,
      "v": 94
    },
    {
      "midi": 64,
      "hit": false,
      "t": 71169.4119999981,
      "d": 1006.3547916666867,
      "v": 98
    },
    {
      "midi": 70,
      "hit": false,
      "t": 71169.4119999981,
      "d": 1006.3547916666867,
      "v": 98
    },
    {
      "midi": 54,
      "hit": false,
      "t": 71169.4119999981,
      "d": 1011.6513958333526,
      "v": 78
    },
    {
      "midi": 42,
      "hit": false,
      "t": 71180.00520833144,
      "d": 995.7615833333548,
      "v": 83
    },
    {
      "midi": 49,
      "hit": false,
      "t": 71180.00520833144,
      "d": 1001.0581875000207,
      "v": 62
    },
    {
      "midi": 40,
      "hit": false,
      "t": 71677.8859999981,
      "d": 5.296604166665929,
      "v": 93
    },
    {
      "midi": 35,
      "hit": false,
      "t": 71677.8859999981,
      "d": 74.15245833333756,
      "v": 120
    },
    {
      "midi": 76,
      "hit": false,
      "t": 71677.8859999981,
      "d": 503.1773958333506,
      "v": 103
    },
    {
      "midi": 73,
      "hit": false,
      "t": 71677.8859999981,
      "d": 503.1773958333506,
      "v": 100
    },
    {
      "midi": 97,
      "hit": false,
      "t": 71677.8859999981,
      "d": 503.1773958333506,
      "v": 60
    },
    {
      "midi": 85,
      "hit": false,
      "t": 71677.8859999981,
      "d": 503.1773958333506,
      "v": 110
    },
    {
      "midi": 57,
      "hit": false,
      "t": 72186.35999999812,
      "d": 5.296604166665929,
      "v": 127
    },
    {
      "midi": 82,
      "hit": false,
      "t": 72186.35999999812,
      "d": 5.296604166665929,
      "v": 44
    },
    {
      "midi": 66,
      "hit": false,
      "t": 72186.35999999812,
      "d": 15.889812499997788,
      "v": 83
    },
    {
      "midi": 35,
      "hit": false,
      "t": 72186.35999999812,
      "d": 74.15245833333756,
      "v": 120
    },
    {
      "midi": 47,
      "hit": false,
      "t": 72186.35999999812,
      "d": 386.65210416667105,
      "v": 92
    },
    {
      "midi": 59,
      "hit": false,
      "t": 72186.35999999812,
      "d": 487.2875833333237,
      "v": 94
    },
    {
      "midi": 74,
      "hit": false,
      "t": 72186.35999999812,
      "d": 503.1773958333215,
      "v": 117
    },
    {
      "midi": 95,
      "hit": false,
      "t": 72186.35999999812,
      "d": 503.1773958333215,
      "v": 60
    },
    {
      "midi": 83,
      "hit": false,
      "t": 72186.35999999812,
      "d": 503.1773958333215,
      "v": 110
    },
    {
      "midi": 71,
      "hit": false,
      "t": 72207.54641666479,
      "d": 476.69437499999185,
      "v": 91
    },
    {
      "midi": 82,
      "hit": false,
      "t": 72313.47849999813,
      "d": 5.296604166665929,
      "v": 31
    },
    {
      "midi": 82,
      "hit": false,
      "t": 72440.59699999813,
      "d": 5.296604166665929,
      "v": 46
    },
    {
      "midi": 51,
      "hit": false,
      "t": 72567.71549999813,
      "d": 5.296604166665929,
      "v": 77
    },
    {
      "midi": 82,
      "hit": false,
      "t": 72567.71549999813,
      "d": 5.296604166665929,
      "v": 87
    },
    {
      "midi": 51,
      "hit": false,
      "t": 72610.08833333146,
      "d": 5.296604166665929,
      "v": 81
    },
    {
      "midi": 51,
      "hit": false,
      "t": 72652.46116666478,
      "d": 5.296604166665929,
      "v": 85
    },
    {
      "midi": 51,
      "hit": false,
      "t": 72694.83399999811,
      "d": 5.296604166665929,
      "v": 108
    },
    {
      "midi": 82,
      "hit": false,
      "t": 72694.83399999811,
      "d": 5.296604166665929,
      "v": 110
    },
    {
      "midi": 35,
      "hit": false,
      "t": 72694.83399999811,
      "d": 74.15245833333756,
      "v": 120
    },
    {
      "midi": 61,
      "hit": false,
      "t": 72694.83399999811,
      "d": 439.6181458333449,
      "v": 94
    },
    {
      "midi": 34,
      "hit": false,
      "t": 72694.83399999811,
      "d": 497.8807916666847,
      "v": 100
    },
    {
      "midi": 70,
      "hit": false,
      "t": 72694.83399999811,
      "d": 497.8807916666847,
      "v": 100
    },
    {
      "midi": 74,
      "hit": false,
      "t": 72694.83399999811,
      "d": 503.1773958333506,
      "v": 68
    },
    {
      "midi": 78,
      "hit": false,
      "t": 72694.83399999811,
      "d": 503.1773958333506,
      "v": 110
    },
    {
      "midi": 94,
      "hit": false,
      "t": 72694.83399999811,
      "d": 503.1773958333506,
      "v": 60
    },
    {
      "midi": 46,
      "hit": false,
      "t": 72705.42720833144,
      "d": 487.2875833333528,
      "v": 95
    },
    {
      "midi": 82,
      "hit": false,
      "t": 72821.95249999812,
      "d": 5.296604166665929,
      "v": 31
    },
    {
      "midi": 82,
      "hit": false,
      "t": 72949.07099999812,
      "d": 5.296604166665929,
      "v": 46
    },
    {
      "midi": 82,
      "hit": false,
      "t": 73076.18949999812,
      "d": 5.296604166665929,
      "v": 87
    },
    {
      "midi": 57,
      "hit": false,
      "t": 73203.30799999813,
      "d": 5.296604166665929,
      "v": 99
    },
    {
      "midi": 82,
      "hit": false,
      "t": 73203.30799999813,
      "d": 5.296604166665929,
      "v": 44
    },
    {
      "midi": 35,
      "hit": false,
      "t": 73203.30799999813,
      "d": 74.15245833333756,
      "v": 120
    },
    {
      "midi": 33,
      "hit": false,
      "t": 73203.30799999813,
      "d": 497.88079166665557,
      "v": 100
    },
    {
      "midi": 69,
      "hit": false,
      "t": 73203.30799999813,
      "d": 497.88079166665557,
      "v": 100
    },
    {
      "midi": 78,
      "hit": false,
      "t": 73203.30799999813,
      "d": 503.1773958333215,
      "v": 66
    },
    {
      "midi": 83,
      "hit": false,
      "t": 73203.30799999813,
      "d": 503.1773958333215,
      "v": 108
    },
    {
      "midi": 62,
      "hit": false,
      "t": 73203.30799999813,
      "d": 503.1773958333215,
      "v": 94
    },
    {
      "midi": 93,
      "hit": false,
      "t": 73203.30799999813,
      "d": 503.1773958333215,
      "v": 60
    },
    {
      "midi": 81,
      "hit": false,
      "t": 73203.30799999813,
      "d": 503.1773958333215,
      "v": 110
    },
    {
      "midi": 45,
      "hit": false,
      "t": 73213.90120833146,
      "d": 487.2875833333237,
      "v": 95
    },
    {
      "midi": 40,
      "hit": false,
      "t": 73330.42649999814,
      "d": 5.296604166665929,
      "v": 93
    },
    {
      "midi": 82,
      "hit": false,
      "t": 73330.42649999814,
      "d": 5.296604166665929,
      "v": 31
    },
    {
      "midi": 82,
      "hit": false,
      "t": 73457.54499999814,
      "d": 5.296604166665929,
      "v": 46
    },
    {
      "midi": 51,
      "hit": false,
      "t": 73584.66349999813,
      "d": 5.296604166665929,
      "v": 77
    },
    {
      "midi": 82,
      "hit": false,
      "t": 73584.66349999813,
      "d": 5.296604166665929,
      "v": 87
    },
    {
      "midi": 51,
      "hit": false,
      "t": 73627.03633333146,
      "d": 5.296604166665929,
      "v": 81
    },
    {
      "midi": 51,
      "hit": false,
      "t": 73669.40916666479,
      "d": 5.296604166665929,
      "v": 85
    },
    {
      "midi": 40,
      "hit": false,
      "t": 73711.78199999811,
      "d": 5.296604166665929,
      "v": 93
    },
    {
      "midi": 51,
      "hit": false,
      "t": 73711.78199999811,
      "d": 5.296604166665929,
      "v": 108
    },
    {
      "midi": 82,
      "hit": false,
      "t": 73711.78199999811,
      "d": 5.296604166665929,
      "v": 46
    },
    {
      "midi": 35,
      "hit": false,
      "t": 73711.78199999811,
      "d": 74.15245833333756,
      "v": 120
    },
    {
      "midi": 32,
      "hit": false,
      "t": 73711.78199999811,
      "d": 497.8807916666701,
      "v": 100
    },
    {
      "midi": 68,
      "hit": false,
      "t": 73711.78199999811,
      "d": 497.8807916666701,
      "v": 100
    },
    {
      "midi": 79,
      "hit": false,
      "t": 73711.78199999811,
      "d": 503.17739583333605,
      "v": 60
    },
    {
      "midi": 85,
      "hit": false,
      "t": 73711.78199999811,
      "d": 503.17739583333605,
      "v": 102
    },
    {
      "midi": 59,
      "hit": false,
      "t": 73711.78199999811,
      "d": 503.17739583333605,
      "v": 107
    },
    {
      "midi": 92,
      "hit": false,
      "t": 73711.78199999811,
      "d": 503.17739583333605,
      "v": 60
    },
    {
      "midi": 80,
      "hit": false,
      "t": 73711.78199999811,
      "d": 503.17739583333605,
      "v": 110
    },
    {
      "midi": 44,
      "hit": false,
      "t": 73722.37520833145,
      "d": 487.28758333333826,
      "v": 95
    },
    {
      "midi": 42,
      "hit": false,
      "t": 74214.95939583145,
      "d": 5.296604166665929,
      "v": 58
    },
    {
      "midi": 82,
      "hit": false,
      "t": 74220.25599999812,
      "d": 5.296604166665929,
      "v": 44
    },
    {
      "midi": 35,
      "hit": false,
      "t": 74220.25599999812,
      "d": 74.15245833333756,
      "v": 120
    },
    {
      "midi": 71,
      "hit": false,
      "t": 74220.25599999812,
      "d": 185.38114583333663,
      "v": 105
    },
    {
      "midi": 83,
      "hit": false,
      "t": 74220.25599999812,
      "d": 185.38114583333663,
      "v": 115
    },
    {
      "midi": 95,
      "hit": false,
      "t": 74220.25599999812,
      "d": 185.38114583333663,
      "v": 85
    },
    {
      "midi": 33,
      "hit": false,
      "t": 74220.25599999812,
      "d": 238.34718750001048,
      "v": 100
    },
    {
      "midi": 45,
      "hit": false,
      "t": 74220.25599999812,
      "d": 238.34718750001048,
      "v": 92
    },
    {
      "midi": 57,
      "hit": false,
      "t": 74220.25599999812,
      "d": 2028.5993958332256,
      "v": 101
    },
    {
      "midi": 82,
      "hit": false,
      "t": 74347.37449999813,
      "d": 5.296604166665929,
      "v": 31
    },
    {
      "midi": 42,
      "hit": false,
      "t": 74352.6711041648,
      "d": 5.296604166665929,
      "v": 50
    },
    {
      "midi": 42,
      "hit": false,
      "t": 74474.49299999813,
      "d": 5.296604166665929,
      "v": 107
    },
    {
      "midi": 82,
      "hit": false,
      "t": 74474.49299999813,
      "d": 5.296604166665929,
      "v": 46
    },
    {
      "midi": 94,
      "hit": false,
      "t": 74474.49299999813,
      "d": 58.262645833339775,
      "v": 56
    },
    {
      "midi": 70,
      "hit": false,
      "t": 74474.49299999813,
      "d": 84.74566666666942,
      "v": 76
    },
    {
      "midi": 91,
      "hit": false,
      "t": 74559.2386666648,
      "d": 58.26264583332522,
      "v": 56
    },
    {
      "midi": 67,
      "hit": false,
      "t": 74559.2386666648,
      "d": 84.74566666665487,
      "v": 76
    },
    {
      "midi": 79,
      "hit": false,
      "t": 74559.2386666648,
      "d": 84.74566666665487,
      "v": 103
    },
    {
      "midi": 82,
      "hit": false,
      "t": 74601.61149999812,
      "d": 5.296604166665929,
      "v": 87
    },
    {
      "midi": 33,
      "hit": false,
      "t": 74601.61149999812,
      "d": 105.93208333333314,
      "v": 100
    },
    {
      "midi": 45,
      "hit": false,
      "t": 74601.61149999812,
      "d": 105.93208333333314,
      "v": 100
    },
    {
      "midi": 42,
      "hit": false,
      "t": 74606.90810416479,
      "d": 5.296604166665929,
      "v": 53
    },
    {
      "midi": 90,
      "hit": false,
      "t": 74643.98433333145,
      "d": 58.262645833339775,
      "v": 74
    },
    {
      "midi": 66,
      "hit": false,
      "t": 74643.98433333145,
      "d": 84.74566666666942,
      "v": 94
    },
    {
      "midi": 78,
      "hit": false,
      "t": 74643.98433333145,
      "d": 84.74566666666942,
      "v": 94
    },
    {
      "midi": 21,
      "hit": false,
      "t": 74712.84018749812,
      "d": 137.71170833332872,
      "v": 100
    },
    {
      "midi": 33,
      "hit": false,
      "t": 74712.84018749812,
      "d": 137.71170833332872,
      "v": 100
    },
    {
      "midi": 46,
      "hit": false,
      "t": 74728.72999999812,
      "d": 5.296604166665929,
      "v": 70
    },
    {
      "midi": 82,
      "hit": false,
      "t": 74728.72999999812,
      "d": 5.296604166665929,
      "v": 44
    },
    {
      "midi": 35,
      "hit": false,
      "t": 74728.72999999812,
      "d": 74.15245833333756,
      "v": 120
    },
    {
      "midi": 64,
      "hit": false,
      "t": 74728.72999999812,
      "d": 185.38114583332208,
      "v": 107
    },
    {
      "midi": 76,
      "hit": false,
      "t": 74728.72999999812,
      "d": 185.38114583332208,
      "v": 120
    },
    {
      "midi": 88,
      "hit": false,
      "t": 74728.72999999812,
      "d": 185.38114583332208,
      "v": 87
    },
    {
      "midi": 82,
      "hit": false,
      "t": 74855.84849999812,
      "d": 5.296604166665929,
      "v": 31
    },
    {
      "midi": 44,
      "hit": false,
      "t": 74861.14510416478,
      "d": 5.296604166665929,
      "v": 50
    },
    {
      "midi": 26,
      "hit": false,
      "t": 74961.78058333143,
      "d": 121.82189583333093,
      "v": 100
    },
    {
      "midi": 38,
      "hit": false,
      "t": 74961.78058333143,
      "d": 121.82189583333093,
      "v": 100
    },
    {
      "midi": 42,
      "hit": false,
      "t": 74982.9669999981,
      "d": 5.296604166665929,
      "v": 107
    },
    {
      "midi": 82,
      "hit": false,
      "t": 74982.9669999981,
      "d": 5.296604166665929,
      "v": 46
    },
    {
      "midi": 86,
      "hit": false,
      "t": 74982.9669999981,
      "d": 58.262645833339775,
      "v": 59
    },
    {
      "midi": 62,
      "hit": false,
      "t": 74982.9669999981,
      "d": 84.74566666666942,
      "v": 79
    },
    {
      "midi": 74,
      "hit": false,
      "t": 74982.9669999981,
      "d": 84.74566666666942,
      "v": 102
    },
    {
      "midi": 85,
      "hit": false,
      "t": 75067.71266666477,
      "d": 58.26264583332522,
      "v": 65
    },
    {
      "midi": 61,
      "hit": false,
      "t": 75067.71266666477,
      "d": 84.74566666665487,
      "v": 85
    },
    {
      "midi": 73,
      "hit": false,
      "t": 75067.71266666477,
      "d": 84.74566666665487,
      "v": 86
    },
    {
      "midi": 28,
      "hit": false,
      "t": 75088.89908333143,
      "d": 158.89812499997788,
      "v": 100
    },
    {
      "midi": 40,
      "hit": false,
      "t": 75088.89908333143,
      "d": 158.89812499997788,
      "v": 100
    },
    {
      "midi": 38,
      "hit": false,
      "t": 75110.0854999981,
      "d": 5.296604166665929,
      "v": 30
    },
    {
      "midi": 82,
      "hit": false,
      "t": 75110.0854999981,
      "d": 5.296604166665929,
      "v": 87
    },
    {
      "midi": 42,
      "hit": false,
      "t": 75115.38210416476,
      "d": 5.296604166665929,
      "v": 53
    },
    {
      "midi": 38,
      "hit": false,
      "t": 75152.45833333142,
      "d": 5.296604166665929,
      "v": 30
    },
    {
      "midi": 84,
      "hit": false,
      "t": 75152.45833333142,
      "d": 58.26264583332522,
      "v": 74
    },
    {
      "midi": 60,
      "hit": false,
      "t": 75152.45833333142,
      "d": 84.74566666665487,
      "v": 94
    },
    {
      "midi": 72,
      "hit": false,
      "t": 75152.45833333142,
      "d": 84.74566666665487,
      "v": 95
    },
    {
      "midi": 38,
      "hit": false,
      "t": 75194.83116666475,
      "d": 5.296604166665929,
      "v": 30
    },
    {
      "midi": 31,
      "hit": false,
      "t": 75216.01758333141,
      "d": 116.525291666665,
      "v": 100
    },
    {
      "midi": 43,
      "hit": false,
      "t": 75216.01758333141,
      "d": 116.525291666665,
      "v": 100
    },
    {
      "midi": 42,
      "hit": false,
      "t": 75231.90739583141,
      "d": 5.296604166665929,
      "v": 73
    },
    {
      "midi": 38,
      "hit": false,
      "t": 75237.20399999808,
      "d": 5.296604166665929,
      "v": 30
    },
    {
      "midi": 82,
      "hit": false,
      "t": 75237.20399999808,
      "d": 5.296604166665929,
      "v": 44
    },
    {
      "midi": 35,
      "hit": false,
      "t": 75237.20399999808,
      "d": 74.15245833333756,
      "v": 120
    },
    {
      "midi": 59,
      "hit": false,
      "t": 75237.20399999808,
      "d": 79.44906250000349,
      "v": 91
    },
    {
      "midi": 71,
      "hit": false,
      "t": 75237.20399999808,
      "d": 79.44906250000349,
      "v": 101
    },
    {
      "midi": 83,
      "hit": false,
      "t": 75237.20399999808,
      "d": 79.44906250000349,
      "v": 71
    },
    {
      "midi": 88,
      "hit": false,
      "t": 75237.20399999808,
      "d": 513.7706041666534,
      "v": 58
    },
    {
      "midi": 31,
      "hit": false,
      "t": 75343.13608333141,
      "d": 148.30491666666057,
      "v": 100
    },
    {
      "midi": 43,
      "hit": false,
      "t": 75343.13608333141,
      "d": 148.30491666666057,
      "v": 100
    },
    {
      "midi": 82,
      "hit": false,
      "t": 75364.32249999807,
      "d": 5.296604166665929,
      "v": 31
    },
    {
      "midi": 62,
      "hit": false,
      "t": 75364.32249999807,
      "d": 79.44906250000349,
      "v": 94
    },
    {
      "midi": 74,
      "hit": false,
      "t": 75364.32249999807,
      "d": 79.44906250000349,
      "v": 104
    },
    {
      "midi": 86,
      "hit": false,
      "t": 75364.32249999807,
      "d": 79.44906250000349,
      "v": 74
    },
    {
      "midi": 42,
      "hit": false,
      "t": 75369.61910416474,
      "d": 5.296604166665929,
      "v": 62
    },
    {
      "midi": 28,
      "hit": false,
      "t": 75475.55118749807,
      "d": 169.4913333333243,
      "v": 100
    },
    {
      "midi": 40,
      "hit": false,
      "t": 75475.55118749807,
      "d": 169.4913333333243,
      "v": 100
    },
    {
      "midi": 42,
      "hit": false,
      "t": 75491.44099999807,
      "d": 5.296604166665929,
      "v": 76
    },
    {
      "midi": 82,
      "hit": false,
      "t": 75491.44099999807,
      "d": 5.296604166665929,
      "v": 46
    },
    {
      "midi": 69,
      "hit": false,
      "t": 75491.44099999807,
      "d": 79.44906250000349,
      "v": 94
    },
    {
      "midi": 81,
      "hit": false,
      "t": 75491.44099999807,
      "d": 79.44906250000349,
      "v": 104
    },
    {
      "midi": 93,
      "hit": false,
      "t": 75491.44099999807,
      "d": 79.44906250000349,
      "v": 74
    },
    {
      "midi": 82,
      "hit": false,
      "t": 75618.55949999807,
      "d": 5.296604166665929,
      "v": 87
    },
    {
      "midi": 68,
      "hit": false,
      "t": 75618.55949999807,
      "d": 79.44906250000349,
      "v": 94
    },
    {
      "midi": 80,
      "hit": false,
      "t": 75618.55949999807,
      "d": 79.44906250000349,
      "v": 104
    },
    {
      "midi": 92,
      "hit": false,
      "t": 75618.55949999807,
      "d": 79.44906250000349,
      "v": 74
    },
    {
      "midi": 42,
      "hit": false,
      "t": 75623.85610416473,
      "d": 5.296604166665929,
      "v": 63
    },
    {
      "midi": 31,
      "hit": false,
      "t": 75735.08479166473,
      "d": 121.82189583333093,
      "v": 100
    },
    {
      "midi": 43,
      "hit": false,
      "t": 75735.08479166473,
      "d": 121.82189583333093,
      "v": 100
    },
    {
      "midi": 42,
      "hit": false,
      "t": 75740.3813958314,
      "d": 5.296604166665929,
      "v": 82
    },
    {
      "midi": 40,
      "hit": false,
      "t": 75745.67799999806,
      "d": 5.296604166665929,
      "v": 93
    },
    {
      "midi": 82,
      "hit": false,
      "t": 75745.67799999806,
      "d": 5.296604166665929,
      "v": 46
    },
    {
      "midi": 45,
      "hit": false,
      "t": 75745.67799999806,
      "d": 5.296604166665929,
      "v": 115
    },
    {
      "midi": 35,
      "hit": false,
      "t": 75745.67799999806,
      "d": 74.15245833333756,
      "v": 120
    },
    {
      "midi": 67,
      "hit": false,
      "t": 75745.67799999806,
      "d": 79.44906250000349,
      "v": 93
    },
    {
      "midi": 79,
      "hit": false,
      "t": 75745.67799999806,
      "d": 79.44906250000349,
      "v": 103
    },
    {
      "midi": 91,
      "hit": false,
      "t": 75745.67799999806,
      "d": 79.44906250000349,
      "v": 73
    },
    {
      "midi": 71,
      "hit": false,
      "t": 75872.79649999806,
      "d": 79.44906249998894,
      "v": 94
    },
    {
      "midi": 83,
      "hit": false,
      "t": 75872.79649999806,
      "d": 79.44906249998894,
      "v": 104
    },
    {
      "midi": 95,
      "hit": false,
      "t": 75872.79649999806,
      "d": 79.44906249998894,
      "v": 74
    },
    {
      "midi": 42,
      "hit": false,
      "t": 75878.09310416473,
      "d": 5.296604166665929,
      "v": 58
    },
    {
      "midi": 31,
      "hit": false,
      "t": 75989.32179166471,
      "d": 169.49133333330974,
      "v": 100
    },
    {
      "midi": 43,
      "hit": false,
      "t": 75989.32179166471,
      "d": 169.49133333330974,
      "v": 100
    },
    {
      "midi": 46,
      "hit": false,
      "t": 75999.91499999804,
      "d": 5.296604166665929,
      "v": 84
    },
    {
      "midi": 78,
      "hit": false,
      "t": 75999.91499999804,
      "d": 79.44906249998894,
      "v": 94
    },
    {
      "midi": 90,
      "hit": false,
      "t": 75999.91499999804,
      "d": 79.44906249998894,
      "v": 104
    },
    {
      "midi": 102,
      "hit": false,
      "t": 75999.91499999804,
      "d": 79.44906249998894,
      "v": 74
    },
    {
      "midi": 33,
      "hit": false,
      "t": 76116.4402916647,
      "d": 100.63547916665266,
      "v": 100
    },
    {
      "midi": 45,
      "hit": false,
      "t": 76116.4402916647,
      "d": 100.63547916665266,
      "v": 100
    },
    {
      "midi": 76,
      "hit": false,
      "t": 76127.03349999803,
      "d": 79.44906249998894,
      "v": 94
    },
    {
      "midi": 88,
      "hit": false,
      "t": 76127.03349999803,
      "d": 79.44906249998894,
      "v": 104
    },
    {
      "midi": 100,
      "hit": false,
      "t": 76127.03349999803,
      "d": 79.44906249998894,
      "v": 74
    },
    {
      "midi": 44,
      "hit": false,
      "t": 76132.33010416469,
      "d": 5.296604166665929,
      "v": 84
    },
    {
      "midi": 61,
      "hit": false,
      "t": 76227.66897916468,
      "d": 15.889812499997788,
      "v": 79
    },
    {
      "midi": 42,
      "hit": false,
      "t": 76248.85539583134,
      "d": 5.296604166665929,
      "v": 58
    },
    {
      "midi": 82,
      "hit": false,
      "t": 76254.15199999801,
      "d": 5.296604166665929,
      "v": 44
    },
    {
      "midi": 61,
      "hit": false,
      "t": 76254.15199999801,
      "d": 15.889812499997788,
      "v": 111
    },
    {
      "midi": 35,
      "hit": false,
      "t": 76254.15199999801,
      "d": 74.15245833333756,
      "v": 120
    },
    {
      "midi": 40,
      "hit": false,
      "t": 76381.27049999802,
      "d": 5.296604166665929,
      "v": 115
    },
    {
      "midi": 57,
      "hit": false,
      "t": 76381.27049999802,
      "d": 5.296604166665929,
      "v": 125
    },
    {
      "midi": 82,
      "hit": false,
      "t": 76381.27049999802,
      "d": 5.296604166665929,
      "v": 31
    },
    {
      "midi": 58,
      "hit": false,
      "t": 76381.27049999802,
      "d": 90.04227083333535,
      "v": 107
    },
    {
      "midi": 70,
      "hit": false,
      "t": 76381.27049999802,
      "d": 90.04227083333535,
      "v": 117
    },
    {
      "midi": 28,
      "hit": false,
      "t": 76381.27049999802,
      "d": 312.49964583331894,
      "v": 100
    },
    {
      "midi": 42,
      "hit": false,
      "t": 76386.56710416469,
      "d": 5.296604166665929,
      "v": 50
    },
    {
      "midi": 42,
      "hit": false,
      "t": 76508.38899999802,
      "d": 5.296604166665929,
      "v": 107
    },
    {
      "midi": 82,
      "hit": false,
      "t": 76508.38899999802,
      "d": 5.296604166665929,
      "v": 46
    },
    {
      "midi": 55,
      "hit": false,
      "t": 76508.38899999802,
      "d": 90.04227083333535,
      "v": 107
    },
    {
      "midi": 67,
      "hit": false,
      "t": 76508.38899999802,
      "d": 90.04227083333535,
      "v": 117
    },
    {
      "midi": 79,
      "hit": false,
      "t": 76508.38899999802,
      "d": 90.04227083333535,
      "v": 89
    },
    {
      "midi": 82,
      "hit": false,
      "t": 76635.50749999801,
      "d": 5.296604166665929,
      "v": 87
    },
    {
      "midi": 52,
      "hit": false,
      "t": 76635.50749999801,
      "d": 90.0422708333208,
      "v": 107
    },
    {
      "midi": 64,
      "hit": false,
      "t": 76635.50749999801,
      "d": 90.0422708333208,
      "v": 117
    },
    {
      "midi": 76,
      "hit": false,
      "t": 76635.50749999801,
      "d": 90.0422708333208,
      "v": 89
    },
    {
      "midi": 42,
      "hit": false,
      "t": 76640.80410416468,
      "d": 5.296604166665929,
      "v": 53
    },
    {
      "midi": 64,
      "hit": false,
      "t": 76746.736187498,
      "d": 5.296604166665929,
      "v": 90
    },
    {
      "midi": 40,
      "hit": false,
      "t": 76762.625999998,
      "d": 5.296604166665929,
      "v": 93
    },
    {
      "midi": 46,
      "hit": false,
      "t": 76762.625999998,
      "d": 5.296604166665929,
      "v": 70
    },
    {
      "midi": 49,
      "hit": false,
      "t": 76762.625999998,
      "d": 5.296604166665929,
      "v": 99
    },
    {
      "midi": 57,
      "hit": false,
      "t": 76762.625999998,
      "d": 5.296604166665929,
      "v": 99
    },
    {
      "midi": 82,
      "hit": false,
      "t": 76762.625999998,
      "d": 5.296604166665929,
      "v": 44
    },
    {
      "midi": 35,
      "hit": false,
      "t": 76762.625999998,
      "d": 74.15245833333756,
      "v": 120
    },
    {
      "midi": 67,
      "hit": false,
      "t": 76762.625999998,
      "d": 90.04227083333535,
      "v": 93
    },
    {
      "midi": 79,
      "hit": false,
      "t": 76762.625999998,
      "d": 90.04227083333535,
      "v": 117
    },
    {
      "midi": 91,
      "hit": false,
      "t": 76762.625999998,
      "d": 90.04227083333535,
      "v": 89
    },
    {
      "midi": 31,
      "hit": false,
      "t": 76762.625999998,
      "d": 455.50795833332813,
      "v": 100
    },
    {
      "midi": 43,
      "hit": false,
      "t": 76762.625999998,
      "d": 455.50795833332813,
      "v": 115
    },
    {
      "midi": 73,
      "hit": false,
      "t": 76762.625999998,
      "d": 497.88079166665557,
      "v": 123
    },
    {
      "midi": 82,
      "hit": false,
      "t": 76889.74449999799,
      "d": 5.296604166665929,
      "v": 31
    },
    {
      "midi": 64,
      "hit": false,
      "t": 76889.74449999799,
      "d": 90.04227083333535,
      "v": 107
    },
    {
      "midi": 76,
      "hit": false,
      "t": 76889.74449999799,
      "d": 90.04227083333535,
      "v": 117
    },
    {
      "midi": 88,
      "hit": false,
      "t": 76889.74449999799,
      "d": 90.04227083333535,
      "v": 89
    },
    {
      "midi": 44,
      "hit": false,
      "t": 76895.04110416466,
      "d": 5.296604166665929,
      "v": 50
    },
    {
      "midi": 42,
      "hit": false,
      "t": 77016.86299999799,
      "d": 5.296604166665929,
      "v": 107
    },
    {
      "midi": 82,
      "hit": false,
      "t": 77016.86299999799,
      "d": 5.296604166665929,
      "v": 46
    },
    {
      "midi": 67,
      "hit": false,
      "t": 77016.86299999799,
      "d": 90.04227083333535,
      "v": 107
    },
    {
      "midi": 79,
      "hit": false,
      "t": 77016.86299999799,
      "d": 90.04227083333535,
      "v": 117
    },
    {
      "midi": 91,
      "hit": false,
      "t": 77016.86299999799,
      "d": 90.04227083333535,
      "v": 89
    },
    {
      "midi": 82,
      "hit": false,
      "t": 77143.98149999799,
      "d": 5.296604166665929,
      "v": 87
    },
    {
      "midi": 70,
      "hit": false,
      "t": 77143.98149999799,
      "d": 90.04227083333535,
      "v": 107
    },
    {
      "midi": 94,
      "hit": false,
      "t": 77143.98149999799,
      "d": 90.04227083333535,
      "v": 89
    },
    {
      "midi": 42,
      "hit": false,
      "t": 77149.27810416465,
      "d": 5.296604166665929,
      "v": 53
    },
    {
      "midi": 42,
      "hit": false,
      "t": 77265.80339583132,
      "d": 5.296604166665929,
      "v": 73
    },
    {
      "midi": 82,
      "hit": false,
      "t": 77271.09999999798,
      "d": 5.296604166665929,
      "v": 44
    },
    {
      "midi": 35,
      "hit": false,
      "t": 77271.09999999798,
      "d": 74.15245833333756,
      "v": 120
    },
    {
      "midi": 70,
      "hit": false,
      "t": 77271.09999999798,
      "d": 90.04227083333535,
      "v": 93
    },
    {
      "midi": 94,
      "hit": false,
      "t": 77271.09999999798,
      "d": 90.04227083333535,
      "v": 90
    },
    {
      "midi": 76,
      "hit": false,
      "t": 77271.09999999798,
      "d": 497.88079166665557,
      "v": 123
    },
    {
      "midi": 34,
      "hit": false,
      "t": 77271.09999999798,
      "d": 503.1773958333215,
      "v": 100
    },
    {
      "midi": 46,
      "hit": false,
      "t": 77271.09999999798,
      "d": 503.1773958333215,
      "v": 103
    },
    {
      "midi": 40,
      "hit": false,
      "t": 77398.21849999798,
      "d": 5.296604166665929,
      "v": 93
    },
    {
      "midi": 82,
      "hit": false,
      "t": 77398.21849999798,
      "d": 5.296604166665929,
      "v": 31
    },
    {
      "midi": 67,
      "hit": false,
      "t": 77398.21849999798,
      "d": 90.04227083333535,
      "v": 107
    },
    {
      "midi": 79,
      "hit": false,
      "t": 77398.21849999798,
      "d": 90.04227083333535,
      "v": 117
    },
    {
      "midi": 91,
      "hit": false,
      "t": 77398.21849999798,
      "d": 90.04227083333535,
      "v": 89
    },
    {
      "midi": 42,
      "hit": false,
      "t": 77403.51510416465,
      "d": 5.296604166665929,
      "v": 62
    },
    {
      "midi": 42,
      "hit": false,
      "t": 77525.33699999798,
      "d": 5.296604166665929,
      "v": 76
    },
    {
      "midi": 82,
      "hit": false,
      "t": 77525.33699999798,
      "d": 5.296604166665929,
      "v": 46
    },
    {
      "midi": 70,
      "hit": false,
      "t": 77525.33699999798,
      "d": 90.04227083333535,
      "v": 107
    },
    {
      "midi": 94,
      "hit": false,
      "t": 77525.33699999798,
      "d": 90.04227083333535,
      "v": 89
    },
    {
      "midi": 82,
      "hit": false,
      "t": 77652.45549999797,
      "d": 5.296604166665929,
      "v": 87
    },
    {
      "midi": 73,
      "hit": false,
      "t": 77652.45549999797,
      "d": 90.04227083333535,
      "v": 107
    },
    {
      "midi": 85,
      "hit": false,
      "t": 77652.45549999797,
      "d": 90.04227083333535,
      "v": 117
    },
    {
      "midi": 97,
      "hit": false,
      "t": 77652.45549999797,
      "d": 90.04227083333535,
      "v": 89
    },
    {
      "midi": 42,
      "hit": false,
      "t": 77657.75210416464,
      "d": 5.296604166665929,
      "v": 63
    },
    {
      "midi": 42,
      "hit": false,
      "t": 77774.2773958313,
      "d": 5.296604166665929,
      "v": 82
    },
    {
      "midi": 40,
      "hit": false,
      "t": 77779.57399999797,
      "d": 5.296604166665929,
      "v": 93
    },
    {
      "midi": 82,
      "hit": false,
      "t": 77779.57399999797,
      "d": 5.296604166665929,
      "v": 44
    },
    {
      "midi": 35,
      "hit": false,
      "t": 77779.57399999797,
      "d": 74.15245833333756,
      "v": 120
    },
    {
      "midi": 73,
      "hit": false,
      "t": 77779.57399999797,
      "d": 90.04227083333535,
      "v": 93
    },
    {
      "midi": 85,
      "hit": false,
      "t": 77779.57399999797,
      "d": 90.04227083333535,
      "v": 118
    },
    {
      "midi": 97,
      "hit": false,
      "t": 77779.57399999797,
      "d": 90.04227083333535,
      "v": 90
    },
    {
      "midi": 79,
      "hit": false,
      "t": 77779.57399999797,
      "d": 497.88079166665557,
      "v": 123
    },
    {
      "midi": 37,
      "hit": false,
      "t": 77779.57399999797,
      "d": 503.1773958333215,
      "v": 100
    },
    {
      "midi": 49,
      "hit": false,
      "t": 77779.57399999797,
      "d": 503.1773958333215,
      "v": 103
    },
    {
      "midi": 82,
      "hit": false,
      "t": 77906.69249999797,
      "d": 5.296604166665929,
      "v": 31
    },
    {
      "midi": 70,
      "hit": false,
      "t": 77906.69249999797,
      "d": 90.04227083333535,
      "v": 107
    },
    {
      "midi": 94,
      "hit": false,
      "t": 77906.69249999797,
      "d": 90.04227083333535,
      "v": 89
    },
    {
      "midi": 42,
      "hit": false,
      "t": 77911.98910416463,
      "d": 5.296604166665929,
      "v": 58
    },
    {
      "midi": 40,
      "hit": false,
      "t": 78033.81099999796,
      "d": 5.296604166665929,
      "v": 93
    },
    {
      "midi": 46,
      "hit": false,
      "t": 78033.81099999796,
      "d": 5.296604166665929,
      "v": 84
    },
    {
      "midi": 82,
      "hit": false,
      "t": 78033.81099999796,
      "d": 5.296604166665929,
      "v": 46
    },
    {
      "midi": 73,
      "hit": false,
      "t": 78033.81099999796,
      "d": 90.04227083333535,
      "v": 107
    },
    {
      "midi": 85,
      "hit": false,
      "t": 78033.81099999796,
      "d": 90.04227083333535,
      "v": 117
    },
    {
      "midi": 97,
      "hit": false,
      "t": 78033.81099999796,
      "d": 90.04227083333535,
      "v": 89
    },
    {
      "midi": 40,
      "hit": false,
      "t": 78160.92949999796,
      "d": 5.296604166665929,
      "v": 93
    },
    {
      "midi": 76,
      "hit": false,
      "t": 78160.92949999796,
      "d": 90.04227083333535,
      "v": 107
    },
    {
      "midi": 88,
      "hit": false,
      "t": 78160.92949999796,
      "d": 90.04227083333535,
      "v": 117
    },
    {
      "midi": 100,
      "hit": false,
      "t": 78160.92949999796,
      "d": 90.04227083333535,
      "v": 89
    },
    {
      "midi": 44,
      "hit": false,
      "t": 78166.22610416463,
      "d": 5.296604166665929,
      "v": 84
    },
    {
      "midi": 42,
      "hit": false,
      "t": 78282.75139583129,
      "d": 5.296604166665929,
      "v": 53
    },
    {
      "midi": 49,
      "hit": false,
      "t": 78288.04799999796,
      "d": 5.296604166665929,
      "v": 108
    },
    {
      "midi": 57,
      "hit": false,
      "t": 78288.04799999796,
      "d": 5.296604166665929,
      "v": 108
    },
    {
      "midi": 77,
      "hit": false,
      "t": 78288.04799999796,
      "d": 5.296604166665929,
      "v": 58
    },
    {
      "midi": 82,
      "hit": false,
      "t": 78288.04799999796,
      "d": 5.296604166665929,
      "v": 7
    },
    {
      "midi": 74,
      "hit": false,
      "t": 78288.04799999796,
      "d": 31.779624999995576,
      "v": 110
    },
    {
      "midi": 33,
      "hit": false,
      "t": 78288.04799999796,
      "d": 58.26264583332522,
      "v": 100
    },
    {
      "midi": 50,
      "hit": false,
      "t": 78288.04799999796,
      "d": 95.33887499998673,
      "v": 70
    },
    {
      "midi": 62,
      "hit": false,
      "t": 78298.64120833129,
      "d": 74.15245833332301,
      "v": 113
    },
    {
      "midi": 35,
      "hit": false,
      "t": 78319.82762499795,
      "d": 42.372833333327435,
      "v": 100
    },
    {
      "midi": 36,
      "hit": false,
      "t": 78351.60724999795,
      "d": 47.669437499993364,
      "v": 100
    },
    {
      "midi": 38,
      "hit": false,
      "t": 78362.20045833128,
      "d": 31.779624999995576,
      "v": 100
    },
    {
      "midi": 40,
      "hit": false,
      "t": 78372.79366666461,
      "d": 58.26264583332522,
      "v": 100
    },
    {
      "midi": 41,
      "hit": false,
      "t": 78383.38687499794,
      "d": 68.85585416665708,
      "v": 100
    },
    {
      "midi": 82,
      "hit": false,
      "t": 78415.16649999794,
      "d": 5.296604166665929,
      "v": 1
    },
    {
      "midi": 74,
      "hit": false,
      "t": 78415.16649999794,
      "d": 31.779624999995576,
      "v": 93
    },
    {
      "midi": 50,
      "hit": false,
      "t": 78415.16649999794,
      "d": 206.56756249997125,
      "v": 65
    },
    {
      "midi": 42,
      "hit": false,
      "t": 78420.4631041646,
      "d": 5.296604166665929,
      "v": 45
    },
    {
      "midi": 69,
      "hit": false,
      "t": 78420.4631041646,
      "d": 58.26264583332522,
      "v": 110
    },
    {
      "midi": 43,
      "hit": false,
      "t": 78425.75970833127,
      "d": 52.966041666659294,
      "v": 100
    },
    {
      "midi": 77,
      "hit": false,
      "t": 78436.3529166646,
      "d": 5.296604166665929,
      "v": 52
    },
    {
      "midi": 45,
      "hit": false,
      "t": 78436.3529166646,
      "d": 58.26264583332522,
      "v": 100
    },
    {
      "midi": 47,
      "hit": false,
      "t": 78457.53933333127,
      "d": 90.0422708333208,
      "v": 100
    },
    {
      "midi": 45,
      "hit": false,
      "t": 78521.09858333126,
      "d": 68.85585416665708,
      "v": 100
    },
    {
      "midi": 98,
      "hit": false,
      "t": 78536.98839583126,
      "d": 10.593208333331859,
      "v": 117
    },
    {
      "midi": 102,
      "hit": false,
      "t": 78536.98839583126,
      "d": 10.593208333331859,
      "v": 82
    },
    {
      "midi": 105,
      "hit": false,
      "t": 78536.98839583126,
      "d": 10.593208333331859,
      "v": 92
    },
    {
      "midi": 42,
      "hit": false,
      "t": 78542.28499999792,
      "d": 5.296604166665929,
      "v": 102
    },
    {
      "midi": 77,
      "hit": false,
      "t": 78542.28499999792,
      "d": 5.296604166665929,
      "v": 14
    },
    {
      "midi": 82,
      "hit": false,
      "t": 78542.28499999792,
      "d": 5.296604166665929,
      "v": 9
    },
    {
      "midi": 74,
      "hit": false,
      "t": 78542.28499999792,
      "d": 31.779624999995576,
      "v": 99
    },
    {
      "midi": 43,
      "hit": false,
      "t": 78542.28499999792,
      "d": 63.55924999999115,
      "v": 100
    },
    {
      "midi": 69,
      "hit": false,
      "t": 78552.87820833125,
      "d": 52.966041666659294,
      "v": 95
    },
    {
      "midi": 41,
      "hit": false,
      "t": 78552.87820833125,
      "d": 79.44906249998894,
      "v": 100
    },
    {
      "midi": 40,
      "hit": false,
      "t": 78574.06462499792,
      "d": 63.55924999999115,
      "v": 100
    },
    {
      "midi": 38,
      "hit": false,
      "t": 78595.25104166458,
      "d": 52.966041666659294,
      "v": 100
    },
    {
      "midi": 36,
      "hit": false,
      "t": 78605.84424999791,
      "d": 74.15245833332301,
      "v": 100
    },
    {
      "midi": 35,
      "hit": false,
      "t": 78627.03066666458,
      "d": 52.966041666659294,
      "v": 100
    },
    {
      "midi": 33,
      "hit": false,
      "t": 78648.21708333124,
      "d": 68.85585416665708,
      "v": 100
    },
    {
      "midi": 69,
      "hit": false,
      "t": 78658.81029166457,
      "d": 84.74566666665487,
      "v": 93
    },
    {
      "midi": 82,
      "hit": false,
      "t": 78669.4034999979,
      "d": 5.296604166665929,
      "v": 36
    },
    {
      "midi": 74,
      "hit": false,
      "t": 78669.4034999979,
      "d": 31.779624999995576,
      "v": 48
    },
    {
      "midi": 31,
      "hit": false,
      "t": 78669.4034999979,
      "d": 58.26264583332522,
      "v": 100
    },
    {
      "midi": 50,
      "hit": false,
      "t": 78669.4034999979,
      "d": 95.33887499998673,
      "v": 65
    },
    {
      "midi": 38,
      "hit": false,
      "t": 78669.4034999979,
      "d": 105.93208333331859,
      "v": 80
    },
    {
      "midi": 42,
      "hit": false,
      "t": 78674.70010416457,
      "d": 5.296604166665929,
      "v": 48
    },
    {
      "midi": 29,
      "hit": false,
      "t": 78679.99670833124,
      "d": 52.966041666659294,
      "v": 100
    },
    {
      "midi": 77,
      "hit": false,
      "t": 78690.58991666457,
      "d": 5.296604166665929,
      "v": 57
    },
    {
      "midi": 28,
      "hit": false,
      "t": 78701.1831249979,
      "d": 52.966041666659294,
      "v": 100
    },
    {
      "midi": 26,
      "hit": false,
      "t": 78722.36954166456,
      "d": 63.55924999999115,
      "v": 100
    },
    {
      "midi": 24,
      "hit": false,
      "t": 78743.55595833123,
      "d": 68.85585416665708,
      "v": 100
    },
    {
      "midi": 23,
      "hit": false,
      "t": 78754.14916666456,
      "d": 68.85585416665708,
      "v": 100
    },
    {
      "midi": 42,
      "hit": false,
      "t": 78791.22539583122,
      "d": 5.296604166665929,
      "v": 53
    },
    {
      "midi": 40,
      "hit": false,
      "t": 78796.52199999789,
      "d": 5.296604166665929,
      "v": 93
    },
    {
      "midi": 77,
      "hit": false,
      "t": 78796.52199999789,
      "d": 5.296604166665929,
      "v": 56
    },
    {
      "midi": 82,
      "hit": false,
      "t": 78796.52199999789,
      "d": 5.296604166665929,
      "v": 7
    },
    {
      "midi": 35,
      "hit": false,
      "t": 78796.52199999789,
      "d": 21.186416666663717,
      "v": 120
    },
    {
      "midi": 74,
      "hit": false,
      "t": 78796.52199999789,
      "d": 31.779624999995576,
      "v": 126
    },
    {
      "midi": 86,
      "hit": false,
      "t": 78796.52199999789,
      "d": 74.15245833332301,
      "v": 109
    },
    {
      "midi": 78,
      "hit": false,
      "t": 78796.52199999789,
      "d": 95.33887499998673,
      "v": 104
    },
    {
      "midi": 52,
      "hit": false,
      "t": 78796.52199999789,
      "d": 105.93208333331859,
      "v": 65
    },
    {
      "midi": 21,
      "hit": false,
      "t": 78796.52199999789,
      "d": 238.34718749996682,
      "v": 100
    },
    {
      "midi": 82,
      "hit": false,
      "t": 78923.64049999787,
      "d": 5.296604166665929,
      "v": 1
    },
    {
      "midi": 52,
      "hit": false,
      "t": 78923.64049999787,
      "d": 5.296604166665929,
      "v": 35
    },
    {
      "midi": 74,
      "hit": false,
      "t": 78923.64049999787,
      "d": 31.779624999995576,
      "v": 121
    },
    {
      "midi": 42,
      "hit": false,
      "t": 78928.93710416454,
      "d": 5.296604166665929,
      "v": 45
    },
    {
      "midi": 77,
      "hit": false,
      "t": 78944.82691666453,
      "d": 5.296604166665929,
      "v": 63
    },
    {
      "midi": 98,
      "hit": false,
      "t": 79045.46239583119,
      "d": 10.593208333331859,
      "v": 104
    },
    {
      "midi": 102,
      "hit": false,
      "t": 79045.46239583119,
      "d": 10.593208333331859,
      "v": 69
    },
    {
      "midi": 105,
      "hit": false,
      "t": 79045.46239583119,
      "d": 10.593208333331859,
      "v": 79
    },
    {
      "midi": 42,
      "hit": false,
      "t": 79050.75899999785,
      "d": 5.296604166665929,
      "v": 102
    },
    {
      "midi": 77,
      "hit": false,
      "t": 79050.75899999785,
      "d": 5.296604166665929,
      "v": 15
    },
    {
      "midi": 82,
      "hit": false,
      "t": 79050.75899999785,
      "d": 5.296604166665929,
      "v": 9
    },
    {
      "midi": 74,
      "hit": false,
      "t": 79050.75899999785,
      "d": 31.779624999995576,
      "v": 104
    },
    {
      "midi": 95,
      "hit": false,
      "t": 79050.75899999785,
      "d": 79.44906249998894,
      "v": 107
    },
    {
      "midi": 79,
      "hit": false,
      "t": 79050.75899999785,
      "d": 90.0422708333208,
      "v": 90
    },
    {
      "midi": 83,
      "hit": false,
      "t": 79050.75899999785,
      "d": 90.0422708333208,
      "v": 110
    },
    {
      "midi": 54,
      "hit": false,
      "t": 79050.75899999785,
      "d": 227.75397916663496,
      "v": 79
    },
    {
      "midi": 38,
      "hit": false,
      "t": 79177.87749999783,
      "d": 5.296604166665929,
      "v": 40
    },
    {
      "midi": 82,
      "hit": false,
      "t": 79177.87749999783,
      "d": 5.296604166665929,
      "v": 36
    },
    {
      "midi": 74,
      "hit": false,
      "t": 79177.87749999783,
      "d": 31.779624999995576,
      "v": 69
    },
    {
      "midi": 42,
      "hit": false,
      "t": 79183.1741041645,
      "d": 5.296604166665929,
      "v": 48
    },
    {
      "midi": 77,
      "hit": false,
      "t": 79199.0639166645,
      "d": 5.296604166665929,
      "v": 60
    },
    {
      "midi": 38,
      "hit": false,
      "t": 79220.25033333116,
      "d": 5.296604166665929,
      "v": 40
    },
    {
      "midi": 38,
      "hit": false,
      "t": 79262.62316666449,
      "d": 5.296604166665929,
      "v": 40
    },
    {
      "midi": 42,
      "hit": false,
      "t": 79299.69939583115,
      "d": 5.296604166665929,
      "v": 68
    },
    {
      "midi": 98,
      "hit": false,
      "t": 79299.69939583115,
      "d": 10.593208333331859,
      "v": 94
    },
    {
      "midi": 100,
      "hit": false,
      "t": 79299.69939583115,
      "d": 10.593208333331859,
      "v": 78
    },
    {
      "midi": 105,
      "hit": false,
      "t": 79299.69939583115,
      "d": 10.593208333331859,
      "v": 88
    },
    {
      "midi": 38,
      "hit": false,
      "t": 79304.99599999782,
      "d": 5.296604166665929,
      "v": 40
    },
    {
      "midi": 77,
      "hit": false,
      "t": 79304.99599999782,
      "d": 5.296604166665929,
      "v": 65
    },
    {
      "midi": 82,
      "hit": false,
      "t": 79304.99599999782,
      "d": 5.296604166665929,
      "v": 7
    },
    {
      "midi": 74,
      "hit": false,
      "t": 79304.99599999782,
      "d": 31.779624999995576,
      "v": 98
    },
    {
      "midi": 93,
      "hit": false,
      "t": 79304.99599999782,
      "d": 397.24531249995925,
      "v": 96
    },
    {
      "midi": 78,
      "hit": false,
      "t": 79304.99599999782,
      "d": 503.17739583327784,
      "v": 90
    },
    {
      "midi": 81,
      "hit": false,
      "t": 79304.99599999782,
      "d": 503.17739583327784,
      "v": 110
    },
    {
      "midi": 35,
      "hit": false,
      "t": 79315.58920833115,
      "d": 63.55924999999115,
      "v": 80
    },
    {
      "midi": 47,
      "hit": false,
      "t": 79315.58920833115,
      "d": 127.1184999999823,
      "v": 64
    },
    {
      "midi": 23,
      "hit": false,
      "t": 79315.58920833115,
      "d": 238.34718749998137,
      "v": 100
    },
    {
      "midi": 98,
      "hit": false,
      "t": 79426.81789583113,
      "d": 10.593208333331859,
      "v": 70
    },
    {
      "midi": 100,
      "hit": false,
      "t": 79426.81789583113,
      "d": 10.593208333331859,
      "v": 54
    },
    {
      "midi": 105,
      "hit": false,
      "t": 79426.81789583113,
      "d": 10.593208333331859,
      "v": 64
    },
    {
      "midi": 82,
      "hit": false,
      "t": 79432.1144999978,
      "d": 5.296604166665929,
      "v": 1
    },
    {
      "midi": 74,
      "hit": false,
      "t": 79432.1144999978,
      "d": 31.779624999995576,
      "v": 81
    },
    {
      "midi": 42,
      "hit": false,
      "t": 79437.41110416446,
      "d": 5.296604166665929,
      "v": 47
    },
    {
      "midi": 77,
      "hit": false,
      "t": 79453.30091666446,
      "d": 5.296604166665929,
      "v": 64
    },
    {
      "midi": 42,
      "hit": false,
      "t": 79559.2329999978,
      "d": 5.296604166665929,
      "v": 87
    },
    {
      "midi": 77,
      "hit": false,
      "t": 79559.2329999978,
      "d": 5.296604166665929,
      "v": 13
    },
    {
      "midi": 82,
      "hit": false,
      "t": 79559.2329999978,
      "d": 5.296604166665929,
      "v": 9
    },
    {
      "midi": 74,
      "hit": false,
      "t": 79559.2329999978,
      "d": 31.779624999995576,
      "v": 104
    },
    {
      "midi": 47,
      "hit": false,
      "t": 79569.82620833113,
      "d": 127.1184999999823,
      "v": 64
    },
    {
      "midi": 35,
      "hit": false,
      "t": 79569.82620833113,
      "d": 233.0505833333009,
      "v": 80
    },
    {
      "midi": 23,
      "hit": false,
      "t": 79569.82620833113,
      "d": 238.34718749996682,
      "v": 100
    },
    {
      "midi": 98,
      "hit": false,
      "t": 79681.05489583111,
      "d": 10.593208333331859,
      "v": 97
    },
    {
      "midi": 100,
      "hit": false,
      "t": 79681.05489583111,
      "d": 10.593208333331859,
      "v": 81
    },
    {
      "midi": 105,
      "hit": false,
      "t": 79681.05489583111,
      "d": 10.593208333331859,
      "v": 91
    },
    {
      "midi": 82,
      "hit": false,
      "t": 79686.35149999778,
      "d": 5.296604166665929,
      "v": 36
    },
    {
      "midi": 74,
      "hit": false,
      "t": 79686.35149999778,
      "d": 31.779624999995576,
      "v": 49
    },
    {
      "midi": 42,
      "hit": false,
      "t": 79691.64810416444,
      "d": 5.296604166665929,
      "v": 48
    },
    {
      "midi": 77,
      "hit": false,
      "t": 79707.53791666444,
      "d": 5.296604166665929,
      "v": 59
    },
    {
      "midi": 42,
      "hit": false,
      "t": 79808.1733958311,
      "d": 5.296604166665929,
      "v": 77
    },
    {
      "midi": 40,
      "hit": false,
      "t": 79813.46999999776,
      "d": 5.296604166665929,
      "v": 93
    },
    {
      "midi": 77,
      "hit": false,
      "t": 79813.46999999776,
      "d": 5.296604166665929,
      "v": 57
    },
    {
      "midi": 82,
      "hit": false,
      "t": 79813.46999999776,
      "d": 5.296604166665929,
      "v": 7
    },
    {
      "midi": 74,
      "hit": false,
      "t": 79813.46999999776,
      "d": 31.779624999995576,
      "v": 108
    },
    {
      "midi": 35,
      "hit": false,
      "t": 79813.46999999776,
      "d": 74.15245833332301,
      "v": 120
    },
    {
      "midi": 79,
      "hit": false,
      "t": 79813.46999999776,
      "d": 291.3132291666261,
      "v": 107
    },
    {
      "midi": 83,
      "hit": false,
      "t": 79813.46999999776,
      "d": 291.3132291666261,
      "v": 127
    },
    {
      "midi": 95,
      "hit": false,
      "t": 79813.46999999776,
      "d": 376.05889583329554,
      "v": 104
    },
    {
      "midi": 49,
      "hit": false,
      "t": 79824.06320833109,
      "d": 116.52529166665045,
      "v": 65
    },
    {
      "midi": 37,
      "hit": false,
      "t": 79824.06320833109,
      "d": 360.16908333329775,
      "v": 80
    },
    {
      "midi": 25,
      "hit": false,
      "t": 79824.06320833109,
      "d": 365.4656874999637,
      "v": 100
    },
    {
      "midi": 82,
      "hit": false,
      "t": 79940.58849999774,
      "d": 5.296604166665929,
      "v": 1
    },
    {
      "midi": 74,
      "hit": false,
      "t": 79940.58849999774,
      "d": 31.779624999995576,
      "v": 98
    },
    {
      "midi": 42,
      "hit": false,
      "t": 79945.88510416441,
      "d": 5.296604166665929,
      "v": 53
    },
    {
      "midi": 77,
      "hit": false,
      "t": 79961.7749166644,
      "d": 5.296604166665929,
      "v": 60
    },
    {
      "midi": 98,
      "hit": false,
      "t": 80062.41039583106,
      "d": 10.593208333331859,
      "v": 105
    },
    {
      "midi": 102,
      "hit": false,
      "t": 80062.41039583106,
      "d": 10.593208333331859,
      "v": 70
    },
    {
      "midi": 105,
      "hit": false,
      "t": 80062.41039583106,
      "d": 10.593208333331859,
      "v": 80
    },
    {
      "midi": 42,
      "hit": false,
      "t": 80067.70699999772,
      "d": 5.296604166665929,
      "v": 79
    },
    {
      "midi": 77,
      "hit": false,
      "t": 80067.70699999772,
      "d": 5.296604166665929,
      "v": 13
    },
    {
      "midi": 82,
      "hit": false,
      "t": 80067.70699999772,
      "d": 5.296604166665929,
      "v": 9
    },
    {
      "midi": 74,
      "hit": false,
      "t": 80067.70699999772,
      "d": 31.779624999995576,
      "v": 104
    },
    {
      "midi": 49,
      "hit": false,
      "t": 80078.30020833106,
      "d": 116.525291666665,
      "v": 65
    },
    {
      "midi": 40,
      "hit": false,
      "t": 80194.82549999772,
      "d": 5.296604166665929,
      "v": 93
    },
    {
      "midi": 42,
      "hit": false,
      "t": 80194.82549999772,
      "d": 5.296604166665929,
      "v": 79
    },
    {
      "midi": 82,
      "hit": false,
      "t": 80194.82549999772,
      "d": 5.296604166665929,
      "v": 36
    },
    {
      "midi": 74,
      "hit": false,
      "t": 80194.82549999772,
      "d": 31.779624999995576,
      "v": 84
    },
    {
      "midi": 69,
      "hit": false,
      "t": 80194.82549999772,
      "d": 121.82189583333093,
      "v": 106
    },
    {
      "midi": 86,
      "hit": false,
      "t": 80205.41870833105,
      "d": 105.93208333333314,
      "v": 98
    },
    {
      "midi": 38,
      "hit": false,
      "t": 80205.41870833105,
      "d": 105.93208333333314,
      "v": 80
    },
    {
      "midi": 26,
      "hit": false,
      "t": 80205.41870833105,
      "d": 111.22868749999907,
      "v": 100
    },
    {
      "midi": 77,
      "hit": false,
      "t": 80216.01191666439,
      "d": 5.296604166665929,
      "v": 50
    },
    {
      "midi": 50,
      "hit": false,
      "t": 80226.60512499772,
      "d": 74.15245833333756,
      "v": 113
    },
    {
      "midi": 62,
      "hit": false,
      "t": 80226.60512499772,
      "d": 100.63547916666721,
      "v": 113
    },
    {
      "midi": 42,
      "hit": false,
      "t": 80316.64739583105,
      "d": 5.296604166665929,
      "v": 53
    },
    {
      "midi": 77,
      "hit": false,
      "t": 80321.94399999772,
      "d": 5.296604166665929,
      "v": 58
    },
    {
      "midi": 82,
      "hit": false,
      "t": 80321.94399999772,
      "d": 5.296604166665929,
      "v": 7
    },
    {
      "midi": 74,
      "hit": false,
      "t": 80321.94399999772,
      "d": 31.779624999995576,
      "v": 110
    },
    {
      "midi": 35,
      "hit": false,
      "t": 80321.94399999772,
      "d": 74.15245833332301,
      "v": 120
    },
    {
      "midi": 82,
      "hit": false,
      "t": 80449.06249999772,
      "d": 5.296604166665929,
      "v": 1
    },
    {
      "midi": 74,
      "hit": false,
      "t": 80449.06249999772,
      "d": 31.779624999995576,
      "v": 93
    },
    {
      "midi": 38,
      "hit": false,
      "t": 80449.06249999772,
      "d": 243.64379166663275,
      "v": 89
    },
    {
      "midi": 26,
      "hit": false,
      "t": 80449.06249999772,
      "d": 248.94039583329868,
      "v": 109
    },
    {
      "midi": 42,
      "hit": false,
      "t": 80454.35910416438,
      "d": 5.296604166665929,
      "v": 45
    },
    {
      "midi": 86,
      "hit": false,
      "t": 80459.65570833105,
      "d": 68.85585416665708,
      "v": 107
    },
    {
      "midi": 77,
      "hit": false,
      "t": 80470.24891666438,
      "d": 5.296604166665929,
      "v": 52
    },
    {
      "midi": 50,
      "hit": false,
      "t": 80480.84212499771,
      "d": 68.85585416665708,
      "v": 113
    },
    {
      "midi": 62,
      "hit": false,
      "t": 80480.84212499771,
      "d": 68.85585416665708,
      "v": 113
    },
    {
      "midi": 98,
      "hit": false,
      "t": 80570.88439583103,
      "d": 10.593208333331859,
      "v": 117
    },
    {
      "midi": 102,
      "hit": false,
      "t": 80570.88439583103,
      "d": 10.593208333331859,
      "v": 82
    },
    {
      "midi": 105,
      "hit": false,
      "t": 80570.88439583103,
      "d": 10.593208333331859,
      "v": 92
    },
    {
      "midi": 42,
      "hit": false,
      "t": 80576.1809999977,
      "d": 5.296604166665929,
      "v": 102
    },
    {
      "midi": 77,
      "hit": false,
      "t": 80576.1809999977,
      "d": 5.296604166665929,
      "v": 14
    },
    {
      "midi": 82,
      "hit": false,
      "t": 80576.1809999977,
      "d": 5.296604166665929,
      "v": 9
    },
    {
      "midi": 74,
      "hit": false,
      "t": 80576.1809999977,
      "d": 31.779624999995576,
      "v": 99
    },
    {
      "midi": 69,
      "hit": false,
      "t": 80576.1809999977,
      "d": 248.94039583329868,
      "v": 85
    },
    {
      "midi": 82,
      "hit": false,
      "t": 80703.29949999768,
      "d": 5.296604166665929,
      "v": 36
    },
    {
      "midi": 74,
      "hit": false,
      "t": 80703.29949999768,
      "d": 31.779624999995576,
      "v": 48
    },
    {
      "midi": 50,
      "hit": false,
      "t": 80703.29949999768,
      "d": 79.44906249998894,
      "v": 65
    },
    {
      "midi": 62,
      "hit": false,
      "t": 80703.29949999768,
      "d": 79.44906249998894,
      "v": 100
    },
    {
      "midi": 38,
      "hit": false,
      "t": 80703.29949999768,
      "d": 100.63547916665266,
      "v": 80
    },
    {
      "midi": 26,
      "hit": false,
      "t": 80703.29949999768,
      "d": 105.93208333331859,
      "v": 100
    },
    {
      "midi": 42,
      "hit": false,
      "t": 80708.59610416435,
      "d": 5.296604166665929,
      "v": 48
    },
    {
      "midi": 86,
      "hit": false,
      "t": 80713.89270833101,
      "d": 63.55924999999115,
      "v": 111
    },
    {
      "midi": 77,
      "hit": false,
      "t": 80724.48591666434,
      "d": 5.296604166665929,
      "v": 57
    },
    {
      "midi": 94,
      "hit": false,
      "t": 80809.231583331,
      "d": 26.483020833329647,
      "v": 95
    },
    {
      "midi": 42,
      "hit": false,
      "t": 80825.121395831,
      "d": 5.296604166665929,
      "v": 53
    },
    {
      "midi": 40,
      "hit": false,
      "t": 80830.41799999766,
      "d": 5.296604166665929,
      "v": 93
    },
    {
      "midi": 77,
      "hit": false,
      "t": 80830.41799999766,
      "d": 5.296604166665929,
      "v": 56
    },
    {
      "midi": 82,
      "hit": false,
      "t": 80830.41799999766,
      "d": 5.296604166665929,
      "v": 7
    },
    {
      "midi": 74,
      "hit": false,
      "t": 80830.41799999766,
      "d": 31.779624999995576,
      "v": 126
    },
    {
      "midi": 35,
      "hit": false,
      "t": 80830.41799999766,
      "d": 74.15245833332301,
      "v": 120
    },
    {
      "midi": 52,
      "hit": false,
      "t": 80830.41799999766,
      "d": 105.93208333331859,
      "v": 65
    },
    {
      "midi": 28,
      "hit": false,
      "t": 80830.41799999766,
      "d": 248.94039583329868,
      "v": 100
    },
    {
      "midi": 79,
      "hit": false,
      "t": 80830.41799999766,
      "d": 513.7706041666097,
      "v": 91
    },
    {
      "midi": 58,
      "hit": false,
      "t": 80841.011208331,
      "d": 26.483020833329647,
      "v": 113
    },
    {
      "midi": 70,
      "hit": false,
      "t": 80841.011208331,
      "d": 26.483020833329647,
      "v": 113
    },
    {
      "midi": 59,
      "hit": false,
      "t": 80841.011208331,
      "d": 376.05889583329554,
      "v": 67
    },
    {
      "midi": 71,
      "hit": false,
      "t": 80841.011208331,
      "d": 376.05889583329554,
      "v": 67
    },
    {
      "midi": 95,
      "hit": false,
      "t": 80841.011208331,
      "d": 434.32154166662076,
      "v": 105
    },
    {
      "midi": 83,
      "hit": false,
      "t": 80893.97724999765,
      "d": 195.9743541666394,
      "v": 108
    },
    {
      "midi": 82,
      "hit": false,
      "t": 80957.53649999764,
      "d": 5.296604166665929,
      "v": 1
    },
    {
      "midi": 52,
      "hit": false,
      "t": 80957.53649999764,
      "d": 5.296604166665929,
      "v": 35
    },
    {
      "midi": 74,
      "hit": false,
      "t": 80957.53649999764,
      "d": 31.779624999995576,
      "v": 121
    },
    {
      "midi": 42,
      "hit": false,
      "t": 80962.83310416431,
      "d": 5.296604166665929,
      "v": 45
    },
    {
      "midi": 77,
      "hit": false,
      "t": 80978.72291666431,
      "d": 5.296604166665929,
      "v": 63
    },
    {
      "midi": 98,
      "hit": false,
      "t": 81079.35839583096,
      "d": 10.593208333331859,
      "v": 104
    },
    {
      "midi": 102,
      "hit": false,
      "t": 81079.35839583096,
      "d": 10.593208333331859,
      "v": 69
    },
    {
      "midi": 105,
      "hit": false,
      "t": 81079.35839583096,
      "d": 10.593208333331859,
      "v": 79
    },
    {
      "midi": 42,
      "hit": false,
      "t": 81084.65499999763,
      "d": 5.296604166665929,
      "v": 102
    },
    {
      "midi": 77,
      "hit": false,
      "t": 81084.65499999763,
      "d": 5.296604166665929,
      "v": 15
    },
    {
      "midi": 82,
      "hit": false,
      "t": 81084.65499999763,
      "d": 5.296604166665929,
      "v": 9
    },
    {
      "midi": 74,
      "hit": false,
      "t": 81084.65499999763,
      "d": 31.779624999995576,
      "v": 104
    },
    {
      "midi": 30,
      "hit": false,
      "t": 81084.65499999763,
      "d": 90.04227083333535,
      "v": 100
    },
    {
      "midi": 54,
      "hit": false,
      "t": 81084.65499999763,
      "d": 217.16077083331766,
      "v": 86
    },
    {
      "midi": 82,
      "hit": false,
      "t": 81211.77349999762,
      "d": 5.296604166665929,
      "v": 36
    },
    {
      "midi": 74,
      "hit": false,
      "t": 81211.77349999762,
      "d": 31.779624999995576,
      "v": 69
    },
    {
      "midi": 42,
      "hit": false,
      "t": 81217.07010416429,
      "d": 5.296604166665929,
      "v": 48
    },
    {
      "midi": 77,
      "hit": false,
      "t": 81232.95991666429,
      "d": 5.296604166665929,
      "v": 60
    },
    {
      "midi": 56,
      "hit": false,
      "t": 81328.29879166427,
      "d": 21.186416666663717,
      "v": 113
    },
    {
      "midi": 68,
      "hit": false,
      "t": 81328.29879166427,
      "d": 21.186416666663717,
      "v": 113
    },
    {
      "midi": 42,
      "hit": false,
      "t": 81333.59539583094,
      "d": 5.296604166665929,
      "v": 68
    },
    {
      "midi": 98,
      "hit": false,
      "t": 81333.59539583094,
      "d": 10.593208333331859,
      "v": 94
    },
    {
      "midi": 100,
      "hit": false,
      "t": 81333.59539583094,
      "d": 10.593208333331859,
      "v": 78
    },
    {
      "midi": 105,
      "hit": false,
      "t": 81333.59539583094,
      "d": 10.593208333331859,
      "v": 88
    },
    {
      "midi": 77,
      "hit": false,
      "t": 81338.8919999976,
      "d": 5.296604166665929,
      "v": 65
    },
    {
      "midi": 82,
      "hit": false,
      "t": 81338.8919999976,
      "d": 5.296604166665929,
      "v": 7
    },
    {
      "midi": 74,
      "hit": false,
      "t": 81338.8919999976,
      "d": 31.779624999995576,
      "v": 98
    },
    {
      "midi": 35,
      "hit": false,
      "t": 81338.8919999976,
      "d": 74.15245833332301,
      "v": 120
    },
    {
      "midi": 47,
      "hit": false,
      "t": 81338.8919999976,
      "d": 180.0845416666416,
      "v": 80
    },
    {
      "midi": 23,
      "hit": false,
      "t": 81338.8919999976,
      "d": 248.94039583331323,
      "v": 100
    },
    {
      "midi": 76,
      "hit": false,
      "t": 81338.8919999976,
      "d": 630.2958958332601,
      "v": 91
    },
    {
      "midi": 93,
      "hit": false,
      "t": 81338.8919999976,
      "d": 715.041562499915,
      "v": 102
    },
    {
      "midi": 81,
      "hit": false,
      "t": 81349.48520833094,
      "d": 492.584187499946,
      "v": 127
    },
    {
      "midi": 57,
      "hit": false,
      "t": 81349.48520833094,
      "d": 826.2702499998995,
      "v": 113
    },
    {
      "midi": 69,
      "hit": false,
      "t": 81349.48520833094,
      "d": 826.2702499998995,
      "v": 113
    },
    {
      "midi": 98,
      "hit": false,
      "t": 81460.71389583092,
      "d": 10.593208333331859,
      "v": 70
    },
    {
      "midi": 100,
      "hit": false,
      "t": 81460.71389583092,
      "d": 10.593208333331859,
      "v": 54
    },
    {
      "midi": 105,
      "hit": false,
      "t": 81460.71389583092,
      "d": 10.593208333331859,
      "v": 64
    },
    {
      "midi": 82,
      "hit": false,
      "t": 81466.01049999759,
      "d": 5.296604166665929,
      "v": 1
    },
    {
      "midi": 74,
      "hit": false,
      "t": 81466.01049999759,
      "d": 31.779624999995576,
      "v": 81
    },
    {
      "midi": 42,
      "hit": false,
      "t": 81471.30710416425,
      "d": 5.296604166665929,
      "v": 47
    },
    {
      "midi": 77,
      "hit": false,
      "t": 81487.19691666425,
      "d": 5.296604166665929,
      "v": 64
    },
    {
      "midi": 42,
      "hit": false,
      "t": 81593.12899999759,
      "d": 5.296604166665929,
      "v": 87
    },
    {
      "midi": 77,
      "hit": false,
      "t": 81593.12899999759,
      "d": 5.296604166665929,
      "v": 13
    },
    {
      "midi": 82,
      "hit": false,
      "t": 81593.12899999759,
      "d": 5.296604166665929,
      "v": 9
    },
    {
      "midi": 74,
      "hit": false,
      "t": 81593.12899999759,
      "d": 31.779624999995576,
      "v": 104
    },
    {
      "midi": 47,
      "hit": false,
      "t": 81593.12899999759,
      "d": 180.0845416666416,
      "v": 65
    },
    {
      "midi": 35,
      "hit": false,
      "t": 81593.12899999759,
      "d": 243.64379166663275,
      "v": 80
    },
    {
      "midi": 23,
      "hit": false,
      "t": 81593.12899999759,
      "d": 248.94039583329868,
      "v": 100
    },
    {
      "midi": 98,
      "hit": false,
      "t": 81714.9508958309,
      "d": 10.593208333331859,
      "v": 97
    },
    {
      "midi": 100,
      "hit": false,
      "t": 81714.9508958309,
      "d": 10.593208333331859,
      "v": 81
    },
    {
      "midi": 105,
      "hit": false,
      "t": 81714.9508958309,
      "d": 10.593208333331859,
      "v": 91
    },
    {
      "midi": 82,
      "hit": false,
      "t": 81720.24749999757,
      "d": 5.296604166665929,
      "v": 36
    },
    {
      "midi": 74,
      "hit": false,
      "t": 81720.24749999757,
      "d": 31.779624999995576,
      "v": 49
    },
    {
      "midi": 42,
      "hit": false,
      "t": 81725.54410416423,
      "d": 5.296604166665929,
      "v": 48
    },
    {
      "midi": 77,
      "hit": false,
      "t": 81741.43391666423,
      "d": 5.296604166665929,
      "v": 59
    },
    {
      "midi": 42,
      "hit": false,
      "t": 81842.06939583088,
      "d": 5.296604166665929,
      "v": 77
    },
    {
      "midi": 40,
      "hit": false,
      "t": 81847.36599999755,
      "d": 5.296604166665929,
      "v": 93
    },
    {
      "midi": 77,
      "hit": false,
      "t": 81847.36599999755,
      "d": 5.296604166665929,
      "v": 57
    },
    {
      "midi": 82,
      "hit": false,
      "t": 81847.36599999755,
      "d": 5.296604166665929,
      "v": 7
    },
    {
      "midi": 74,
      "hit": false,
      "t": 81847.36599999755,
      "d": 31.779624999995576,
      "v": 108
    },
    {
      "midi": 35,
      "hit": false,
      "t": 81847.36599999755,
      "d": 74.15245833332301,
      "v": 120
    },
    {
      "midi": 45,
      "hit": false,
      "t": 81847.36599999755,
      "d": 328.3894583332876,
      "v": 80
    },
    {
      "midi": 33,
      "hit": false,
      "t": 81847.36599999755,
      "d": 370.76229166661506,
      "v": 80
    },
    {
      "midi": 21,
      "hit": false,
      "t": 81847.36599999755,
      "d": 376.058895833281,
      "v": 100
    },
    {
      "midi": 82,
      "hit": false,
      "t": 81974.48449999753,
      "d": 5.296604166665929,
      "v": 1
    },
    {
      "midi": 74,
      "hit": false,
      "t": 81974.48449999753,
      "d": 31.779624999995576,
      "v": 98
    },
    {
      "midi": 42,
      "hit": false,
      "t": 81979.7811041642,
      "d": 5.296604166665929,
      "v": 53
    },
    {
      "midi": 77,
      "hit": false,
      "t": 81995.6709166642,
      "d": 5.296604166665929,
      "v": 60
    },
    {
      "midi": 98,
      "hit": false,
      "t": 82096.30639583085,
      "d": 10.593208333331859,
      "v": 105
    },
    {
      "midi": 102,
      "hit": false,
      "t": 82096.30639583085,
      "d": 10.593208333331859,
      "v": 70
    },
    {
      "midi": 105,
      "hit": false,
      "t": 82096.30639583085,
      "d": 10.593208333331859,
      "v": 80
    },
    {
      "midi": 42,
      "hit": false,
      "t": 82101.60299999751,
      "d": 5.296604166665929,
      "v": 79
    },
    {
      "midi": 77,
      "hit": false,
      "t": 82101.60299999751,
      "d": 5.296604166665929,
      "v": 13
    },
    {
      "midi": 82,
      "hit": false,
      "t": 82101.60299999751,
      "d": 5.296604166665929,
      "v": 9
    },
    {
      "midi": 74,
      "hit": false,
      "t": 82101.60299999751,
      "d": 31.779624999995576,
      "v": 104
    },
    {
      "midi": 42,
      "hit": false,
      "t": 82228.7214999975,
      "d": 5.296604166665929,
      "v": 79
    },
    {
      "midi": 82,
      "hit": false,
      "t": 82228.7214999975,
      "d": 5.296604166665929,
      "v": 36
    },
    {
      "midi": 74,
      "hit": false,
      "t": 82228.7214999975,
      "d": 31.779624999995576,
      "v": 84
    },
    {
      "midi": 50,
      "hit": false,
      "t": 82228.7214999975,
      "d": 95.33887500000128,
      "v": 65
    },
    {
      "midi": 38,
      "hit": false,
      "t": 82228.7214999975,
      "d": 105.93208333333314,
      "v": 80
    },
    {
      "midi": 26,
      "hit": false,
      "t": 82228.7214999975,
      "d": 111.22868749999907,
      "v": 100
    },
    {
      "midi": 77,
      "hit": false,
      "t": 82249.90791666416,
      "d": 5.296604166665929,
      "v": 50
    },
    {
      "midi": 42,
      "hit": false,
      "t": 82350.54339583083,
      "d": 5.296604166665929,
      "v": 53
    },
    {
      "midi": 77,
      "hit": false,
      "t": 82355.8399999975,
      "d": 5.296604166665929,
      "v": 58
    },
    {
      "midi": 82,
      "hit": false,
      "t": 82355.8399999975,
      "d": 5.296604166665929,
      "v": 7
    },
    {
      "midi": 74,
      "hit": false,
      "t": 82355.8399999975,
      "d": 31.779624999995576,
      "v": 110
    },
    {
      "midi": 50,
      "hit": false,
      "t": 82355.8399999975,
      "d": 74.15245833332301,
      "v": 104
    },
    {
      "midi": 62,
      "hit": false,
      "t": 82355.8399999975,
      "d": 74.15245833332301,
      "v": 104
    },
    {
      "midi": 35,
      "hit": false,
      "t": 82355.8399999975,
      "d": 74.15245833332301,
      "v": 120
    },
    {
      "midi": 82,
      "hit": false,
      "t": 82482.95849999749,
      "d": 5.296604166665929,
      "v": 1
    },
    {
      "midi": 74,
      "hit": false,
      "t": 82482.95849999749,
      "d": 31.779624999995576,
      "v": 93
    },
    {
      "midi": 76,
      "hit": false,
      "t": 82482.95849999749,
      "d": 79.44906249998894,
      "v": 114
    },
    {
      "midi": 57,
      "hit": false,
      "t": 82482.95849999749,
      "d": 84.74566666665487,
      "v": 91
    },
    {
      "midi": 69,
      "hit": false,
      "t": 82482.95849999749,
      "d": 84.74566666665487,
      "v": 91
    },
    {
      "midi": 50,
      "hit": false,
      "t": 82482.95849999749,
      "d": 206.56756249997125,
      "v": 65
    },
    {
      "midi": 38,
      "hit": false,
      "t": 82482.95849999749,
      "d": 233.0505833333009,
      "v": 80
    },
    {
      "midi": 26,
      "hit": false,
      "t": 82482.95849999749,
      "d": 238.34718749996682,
      "v": 100
    },
    {
      "midi": 42,
      "hit": false,
      "t": 82488.25510416416,
      "d": 5.296604166665929,
      "v": 45
    },
    {
      "midi": 77,
      "hit": false,
      "t": 82504.14491666415,
      "d": 5.296604166665929,
      "v": 52
    },
    {
      "midi": 98,
      "hit": false,
      "t": 82604.7803958308,
      "d": 10.593208333331859,
      "v": 117
    },
    {
      "midi": 102,
      "hit": false,
      "t": 82604.7803958308,
      "d": 10.593208333331859,
      "v": 82
    },
    {
      "midi": 105,
      "hit": false,
      "t": 82604.7803958308,
      "d": 10.593208333331859,
      "v": 92
    },
    {
      "midi": 42,
      "hit": false,
      "t": 82610.07699999747,
      "d": 5.296604166665929,
      "v": 102
    },
    {
      "midi": 77,
      "hit": false,
      "t": 82610.07699999747,
      "d": 5.296604166665929,
      "v": 14
    },
    {
      "midi": 82,
      "hit": false,
      "t": 82610.07699999747,
      "d": 5.296604166665929,
      "v": 9
    },
    {
      "midi": 74,
      "hit": false,
      "t": 82610.07699999747,
      "d": 31.779624999995576,
      "v": 99
    },
    {
      "midi": 75,
      "hit": false,
      "t": 82610.07699999747,
      "d": 79.44906249998894,
      "v": 109
    },
    {
      "midi": 57,
      "hit": false,
      "t": 82610.07699999747,
      "d": 100.63547916665266,
      "v": 94
    },
    {
      "midi": 69,
      "hit": false,
      "t": 82610.07699999747,
      "d": 100.63547916665266,
      "v": 94
    },
    {
      "midi": 82,
      "hit": false,
      "t": 82737.19549999746,
      "d": 5.296604166665929,
      "v": 36
    },
    {
      "midi": 74,
      "hit": false,
      "t": 82737.19549999746,
      "d": 31.779624999995576,
      "v": 48
    },
    {
      "midi": 50,
      "hit": false,
      "t": 82737.19549999746,
      "d": 95.33887499998673,
      "v": 65
    },
    {
      "midi": 57,
      "hit": false,
      "t": 82737.19549999746,
      "d": 100.63547916665266,
      "v": 94
    },
    {
      "midi": 69,
      "hit": false,
      "t": 82737.19549999746,
      "d": 100.63547916665266,
      "v": 94
    },
    {
      "midi": 38,
      "hit": false,
      "t": 82737.19549999746,
      "d": 105.93208333331859,
      "v": 80
    },
    {
      "midi": 26,
      "hit": false,
      "t": 82737.19549999746,
      "d": 111.22868749998452,
      "v": 100
    },
    {
      "midi": 42,
      "hit": false,
      "t": 82742.49210416412,
      "d": 5.296604166665929,
      "v": 48
    },
    {
      "midi": 77,
      "hit": false,
      "t": 82758.38191666412,
      "d": 5.296604166665929,
      "v": 57
    },
    {
      "midi": 42,
      "hit": false,
      "t": 82859.01739583077,
      "d": 5.296604166665929,
      "v": 53
    },
    {
      "midi": 40,
      "hit": false,
      "t": 82864.31399999744,
      "d": 5.296604166665929,
      "v": 93
    },
    {
      "midi": 77,
      "hit": false,
      "t": 82864.31399999744,
      "d": 5.296604166665929,
      "v": 56
    },
    {
      "midi": 82,
      "hit": false,
      "t": 82864.31399999744,
      "d": 5.296604166665929,
      "v": 7
    },
    {
      "midi": 74,
      "hit": false,
      "t": 82864.31399999744,
      "d": 31.779624999995576,
      "v": 126
    },
    {
      "midi": 86,
      "hit": false,
      "t": 82864.31399999744,
      "d": 58.26264583332522,
      "v": 108
    },
    {
      "midi": 35,
      "hit": false,
      "t": 82864.31399999744,
      "d": 74.15245833332301,
      "v": 120
    },
    {
      "midi": 78,
      "hit": false,
      "t": 82864.31399999744,
      "d": 95.33887499998673,
      "v": 92
    },
    {
      "midi": 52,
      "hit": false,
      "t": 82864.31399999744,
      "d": 105.93208333331859,
      "v": 82
    },
    {
      "midi": 28,
      "hit": false,
      "t": 82864.31399999744,
      "d": 238.34718749996682,
      "v": 100
    },
    {
      "midi": 50,
      "hit": false,
      "t": 82869.6106041641,
      "d": 100.63547916665266,
      "v": 85
    },
    {
      "midi": 62,
      "hit": false,
      "t": 82869.6106041641,
      "d": 100.63547916665266,
      "v": 90
    },
    {
      "midi": 82,
      "hit": false,
      "t": 82991.43249999742,
      "d": 5.296604166665929,
      "v": 1
    },
    {
      "midi": 52,
      "hit": false,
      "t": 82991.43249999742,
      "d": 5.296604166665929,
      "v": 35
    },
    {
      "midi": 74,
      "hit": false,
      "t": 82991.43249999742,
      "d": 31.779624999995576,
      "v": 121
    },
    {
      "midi": 42,
      "hit": false,
      "t": 82996.72910416409,
      "d": 5.296604166665929,
      "v": 45
    },
    {
      "midi": 77,
      "hit": false,
      "t": 83012.61891666408,
      "d": 5.296604166665929,
      "v": 63
    },
    {
      "midi": 98,
      "hit": false,
      "t": 83113.25439583074,
      "d": 10.593208333331859,
      "v": 104
    },
    {
      "midi": 102,
      "hit": false,
      "t": 83113.25439583074,
      "d": 10.593208333331859,
      "v": 69
    },
    {
      "midi": 105,
      "hit": false,
      "t": 83113.25439583074,
      "d": 10.593208333331859,
      "v": 79
    },
    {
      "midi": 42,
      "hit": false,
      "t": 83118.5509999974,
      "d": 5.296604166665929,
      "v": 102
    },
    {
      "midi": 77,
      "hit": false,
      "t": 83118.5509999974,
      "d": 5.296604166665929,
      "v": 15
    },
    {
      "midi": 82,
      "hit": false,
      "t": 83118.5509999974,
      "d": 5.296604166665929,
      "v": 9
    },
    {
      "midi": 74,
      "hit": false,
      "t": 83118.5509999974,
      "d": 31.779624999995576,
      "v": 104
    },
    {
      "midi": 95,
      "hit": false,
      "t": 83118.5509999974,
      "d": 68.85585416665708,
      "v": 100
    },
    {
      "midi": 83,
      "hit": false,
      "t": 83118.5509999974,
      "d": 79.44906249998894,
      "v": 112
    },
    {
      "midi": 30,
      "hit": false,
      "t": 83118.5509999974,
      "d": 238.34718749996682,
      "v": 100
    },
    {
      "midi": 79,
      "hit": false,
      "t": 83118.5509999974,
      "d": 248.94039583329868,
      "v": 92
    },
    {
      "midi": 54,
      "hit": false,
      "t": 83129.14420833073,
      "d": 90.0422708333208,
      "v": 85
    },
    {
      "midi": 66,
      "hit": false,
      "t": 83129.14420833073,
      "d": 90.0422708333208,
      "v": 90
    },
    {
      "midi": 38,
      "hit": false,
      "t": 83245.66949999738,
      "d": 5.296604166665929,
      "v": 40
    },
    {
      "midi": 82,
      "hit": false,
      "t": 83245.66949999738,
      "d": 5.296604166665929,
      "v": 36
    },
    {
      "midi": 74,
      "hit": false,
      "t": 83245.66949999738,
      "d": 31.779624999995576,
      "v": 69
    },
    {
      "midi": 42,
      "hit": false,
      "t": 83250.96610416405,
      "d": 5.296604166665929,
      "v": 48
    },
    {
      "midi": 77,
      "hit": false,
      "t": 83266.85591666405,
      "d": 5.296604166665929,
      "v": 60
    },
    {
      "midi": 38,
      "hit": false,
      "t": 83288.04233333071,
      "d": 5.296604166665929,
      "v": 40
    },
    {
      "midi": 38,
      "hit": false,
      "t": 83330.41516666404,
      "d": 5.296604166665929,
      "v": 40
    },
    {
      "midi": 42,
      "hit": false,
      "t": 83367.4913958307,
      "d": 5.296604166665929,
      "v": 68
    },
    {
      "midi": 98,
      "hit": false,
      "t": 83367.4913958307,
      "d": 10.593208333331859,
      "v": 94
    },
    {
      "midi": 100,
      "hit": false,
      "t": 83367.4913958307,
      "d": 10.593208333331859,
      "v": 78
    },
    {
      "midi": 105,
      "hit": false,
      "t": 83367.4913958307,
      "d": 10.593208333331859,
      "v": 88
    },
    {
      "midi": 38,
      "hit": false,
      "t": 83372.78799999737,
      "d": 5.296604166665929,
      "v": 40
    },
    {
      "midi": 77,
      "hit": false,
      "t": 83372.78799999737,
      "d": 5.296604166665929,
      "v": 65
    },
    {
      "midi": 82,
      "hit": false,
      "t": 83372.78799999737,
      "d": 5.296604166665929,
      "v": 7
    },
    {
      "midi": 74,
      "hit": false,
      "t": 83372.78799999737,
      "d": 31.779624999995576,
      "v": 98
    },
    {
      "midi": 35,
      "hit": false,
      "t": 83372.78799999737,
      "d": 74.15245833332301,
      "v": 120
    },
    {
      "midi": 78,
      "hit": false,
      "t": 83372.78799999737,
      "d": 503.17739583327784,
      "v": 93
    },
    {
      "midi": 93,
      "hit": false,
      "t": 83372.78799999737,
      "d": 503.17739583327784,
      "v": 99
    },
    {
      "midi": 81,
      "hit": false,
      "t": 83378.08460416403,
      "d": 365.4656874999637,
      "v": 127
    },
    {
      "midi": 45,
      "hit": false,
      "t": 83383.3812083307,
      "d": 158.89812499997788,
      "v": 46
    },
    {
      "midi": 33,
      "hit": false,
      "t": 83383.3812083307,
      "d": 233.05058333331544,
      "v": 80
    },
    {
      "midi": 21,
      "hit": false,
      "t": 83383.3812083307,
      "d": 238.34718749998137,
      "v": 100
    },
    {
      "midi": 57,
      "hit": false,
      "t": 83399.2710208307,
      "d": 365.4656874999637,
      "v": 82
    },
    {
      "midi": 69,
      "hit": false,
      "t": 83399.2710208307,
      "d": 365.4656874999637,
      "v": 87
    },
    {
      "midi": 98,
      "hit": false,
      "t": 83494.60989583068,
      "d": 10.593208333331859,
      "v": 70
    },
    {
      "midi": 100,
      "hit": false,
      "t": 83494.60989583068,
      "d": 10.593208333331859,
      "v": 54
    },
    {
      "midi": 105,
      "hit": false,
      "t": 83494.60989583068,
      "d": 10.593208333331859,
      "v": 64
    },
    {
      "midi": 82,
      "hit": false,
      "t": 83499.90649999735,
      "d": 5.296604166665929,
      "v": 1
    },
    {
      "midi": 74,
      "hit": false,
      "t": 83499.90649999735,
      "d": 31.779624999995576,
      "v": 81
    },
    {
      "midi": 42,
      "hit": false,
      "t": 83505.20310416401,
      "d": 5.296604166665929,
      "v": 47
    },
    {
      "midi": 77,
      "hit": false,
      "t": 83521.09291666401,
      "d": 5.296604166665929,
      "v": 64
    },
    {
      "midi": 42,
      "hit": false,
      "t": 83627.02499999735,
      "d": 5.296604166665929,
      "v": 87
    },
    {
      "midi": 77,
      "hit": false,
      "t": 83627.02499999735,
      "d": 5.296604166665929,
      "v": 13
    },
    {
      "midi": 82,
      "hit": false,
      "t": 83627.02499999735,
      "d": 5.296604166665929,
      "v": 9
    },
    {
      "midi": 74,
      "hit": false,
      "t": 83627.02499999735,
      "d": 31.779624999995576,
      "v": 104
    },
    {
      "midi": 45,
      "hit": false,
      "t": 83637.61820833068,
      "d": 158.89812499997788,
      "v": 46
    },
    {
      "midi": 33,
      "hit": false,
      "t": 83637.61820833068,
      "d": 233.0505833333009,
      "v": 80
    },
    {
      "midi": 21,
      "hit": false,
      "t": 83637.61820833068,
      "d": 238.34718749996682,
      "v": 100
    },
    {
      "midi": 98,
      "hit": false,
      "t": 83748.84689583066,
      "d": 10.593208333331859,
      "v": 97
    },
    {
      "midi": 100,
      "hit": false,
      "t": 83748.84689583066,
      "d": 10.593208333331859,
      "v": 81
    },
    {
      "midi": 105,
      "hit": false,
      "t": 83748.84689583066,
      "d": 10.593208333331859,
      "v": 91
    },
    {
      "midi": 82,
      "hit": false,
      "t": 83754.14349999733,
      "d": 5.296604166665929,
      "v": 36
    },
    {
      "midi": 74,
      "hit": false,
      "t": 83754.14349999733,
      "d": 31.779624999995576,
      "v": 49
    },
    {
      "midi": 42,
      "hit": false,
      "t": 83759.440104164,
      "d": 5.296604166665929,
      "v": 48
    },
    {
      "midi": 77,
      "hit": false,
      "t": 83775.32991666399,
      "d": 5.296604166665929,
      "v": 59
    },
    {
      "midi": 42,
      "hit": false,
      "t": 83875.96539583064,
      "d": 5.296604166665929,
      "v": 77
    },
    {
      "midi": 40,
      "hit": false,
      "t": 83881.26199999731,
      "d": 5.296604166665929,
      "v": 93
    },
    {
      "midi": 77,
      "hit": false,
      "t": 83881.26199999731,
      "d": 5.296604166665929,
      "v": 57
    },
    {
      "midi": 82,
      "hit": false,
      "t": 83881.26199999731,
      "d": 5.296604166665929,
      "v": 7
    },
    {
      "midi": 74,
      "hit": false,
      "t": 83881.26199999731,
      "d": 31.779624999995576,
      "v": 108
    },
    {
      "midi": 95,
      "hit": false,
      "t": 83881.26199999731,
      "d": 418.4317291666084,
      "v": 96
    },
    {
      "midi": 79,
      "hit": false,
      "t": 83881.26199999731,
      "d": 503.17739583327784,
      "v": 101
    },
    {
      "midi": 59,
      "hit": false,
      "t": 83886.55860416398,
      "d": 349.57587499995134,
      "v": 85
    },
    {
      "midi": 71,
      "hit": false,
      "t": 83886.55860416398,
      "d": 349.57587499995134,
      "v": 90
    },
    {
      "midi": 35,
      "hit": false,
      "t": 83891.85520833064,
      "d": 63.55924999999115,
      "v": 80
    },
    {
      "midi": 23,
      "hit": false,
      "t": 83891.85520833064,
      "d": 238.34718749996682,
      "v": 100
    },
    {
      "midi": 47,
      "hit": false,
      "t": 83891.85520833064,
      "d": 317.79624999995576,
      "v": 65
    },
    {
      "midi": 83,
      "hit": false,
      "t": 83891.85520833064,
      "d": 391.9487083332788,
      "v": 119
    },
    {
      "midi": 82,
      "hit": false,
      "t": 84008.38049999729,
      "d": 5.296604166665929,
      "v": 1
    },
    {
      "midi": 74,
      "hit": false,
      "t": 84008.38049999729,
      "d": 31.779624999995576,
      "v": 98
    },
    {
      "midi": 42,
      "hit": false,
      "t": 84013.67710416396,
      "d": 5.296604166665929,
      "v": 53
    },
    {
      "midi": 77,
      "hit": false,
      "t": 84029.56691666396,
      "d": 5.296604166665929,
      "v": 60
    },
    {
      "midi": 98,
      "hit": false,
      "t": 84130.20239583061,
      "d": 10.593208333331859,
      "v": 105
    },
    {
      "midi": 102,
      "hit": false,
      "t": 84130.20239583061,
      "d": 10.593208333331859,
      "v": 70
    },
    {
      "midi": 105,
      "hit": false,
      "t": 84130.20239583061,
      "d": 10.593208333331859,
      "v": 80
    },
    {
      "midi": 42,
      "hit": false,
      "t": 84135.49899999727,
      "d": 5.296604166665929,
      "v": 79
    },
    {
      "midi": 77,
      "hit": false,
      "t": 84135.49899999727,
      "d": 5.296604166665929,
      "v": 13
    },
    {
      "midi": 82,
      "hit": false,
      "t": 84135.49899999727,
      "d": 5.296604166665929,
      "v": 9
    },
    {
      "midi": 74,
      "hit": false,
      "t": 84135.49899999727,
      "d": 31.779624999995576,
      "v": 104
    },
    {
      "midi": 40,
      "hit": false,
      "t": 84262.61749999726,
      "d": 5.296604166665929,
      "v": 93
    },
    {
      "midi": 42,
      "hit": false,
      "t": 84262.61749999726,
      "d": 5.296604166665929,
      "v": 79
    },
    {
      "midi": 82,
      "hit": false,
      "t": 84262.61749999726,
      "d": 5.296604166665929,
      "v": 36
    },
    {
      "midi": 74,
      "hit": false,
      "t": 84262.61749999726,
      "d": 31.779624999995576,
      "v": 84
    },
    {
      "midi": 50,
      "hit": false,
      "t": 84262.61749999726,
      "d": 105.93208333333314,
      "v": 74
    },
    {
      "midi": 38,
      "hit": false,
      "t": 84262.61749999726,
      "d": 116.525291666665,
      "v": 89
    },
    {
      "midi": 26,
      "hit": false,
      "t": 84262.61749999726,
      "d": 121.82189583333093,
      "v": 109
    },
    {
      "midi": 77,
      "hit": false,
      "t": 84283.80391666392,
      "d": 5.296604166665929,
      "v": 50
    },
    {
      "midi": 42,
      "hit": false,
      "t": 84384.43939583059,
      "d": 5.296604166665929,
      "v": 53
    },
    {
      "midi": 77,
      "hit": false,
      "t": 84389.73599999725,
      "d": 5.296604166665929,
      "v": 58
    },
    {
      "midi": 82,
      "hit": false,
      "t": 84389.73599999725,
      "d": 5.296604166665929,
      "v": 7
    },
    {
      "midi": 74,
      "hit": false,
      "t": 84389.73599999725,
      "d": 31.779624999995576,
      "v": 110
    },
    {
      "midi": 35,
      "hit": false,
      "t": 84389.73599999725,
      "d": 74.15245833332301,
      "v": 120
    },
    {
      "midi": 82,
      "hit": false,
      "t": 84516.85449999725,
      "d": 5.296604166665929,
      "v": 1
    },
    {
      "midi": 74,
      "hit": false,
      "t": 84516.85449999725,
      "d": 31.779624999995576,
      "v": 93
    },
    {
      "midi": 50,
      "hit": false,
      "t": 84516.85449999725,
      "d": 217.16077083331766,
      "v": 74
    },
    {
      "midi": 38,
      "hit": false,
      "t": 84516.85449999725,
      "d": 243.6437916666473,
      "v": 89
    },
    {
      "midi": 26,
      "hit": false,
      "t": 84516.85449999725,
      "d": 248.94039583331323,
      "v": 109
    },
    {
      "midi": 42,
      "hit": false,
      "t": 84522.15110416392,
      "d": 5.296604166665929,
      "v": 45
    },
    {
      "midi": 77,
      "hit": false,
      "t": 84538.04091666391,
      "d": 5.296604166665929,
      "v": 52
    },
    {
      "midi": 98,
      "hit": false,
      "t": 84638.67639583058,
      "d": 10.593208333331859,
      "v": 117
    },
    {
      "midi": 102,
      "hit": false,
      "t": 84638.67639583058,
      "d": 10.593208333331859,
      "v": 82
    },
    {
      "midi": 105,
      "hit": false,
      "t": 84638.67639583058,
      "d": 10.593208333331859,
      "v": 92
    },
    {
      "midi": 42,
      "hit": false,
      "t": 84643.97299999725,
      "d": 5.296604166665929,
      "v": 102
    },
    {
      "midi": 77,
      "hit": false,
      "t": 84643.97299999725,
      "d": 5.296604166665929,
      "v": 14
    },
    {
      "midi": 82,
      "hit": false,
      "t": 84643.97299999725,
      "d": 5.296604166665929,
      "v": 9
    },
    {
      "midi": 74,
      "hit": false,
      "t": 84643.97299999725,
      "d": 31.779624999995576,
      "v": 99
    },
    {
      "midi": 81,
      "hit": false,
      "t": 84643.97299999725,
      "d": 68.85585416665708,
      "v": 121
    },
    {
      "midi": 93,
      "hit": false,
      "t": 84643.97299999725,
      "d": 243.64379166663275,
      "v": 106
    },
    {
      "midi": 82,
      "hit": false,
      "t": 84771.09149999723,
      "d": 5.296604166665929,
      "v": 36
    },
    {
      "midi": 74,
      "hit": false,
      "t": 84771.09149999723,
      "d": 31.779624999995576,
      "v": 48
    },
    {
      "midi": 50,
      "hit": false,
      "t": 84771.09149999723,
      "d": 90.0422708333208,
      "v": 65
    },
    {
      "midi": 38,
      "hit": false,
      "t": 84771.09149999723,
      "d": 100.63547916665266,
      "v": 80
    },
    {
      "midi": 26,
      "hit": false,
      "t": 84771.09149999723,
      "d": 105.93208333331859,
      "v": 100
    },
    {
      "midi": 81,
      "hit": false,
      "t": 84771.09149999723,
      "d": 121.82189583331638,
      "v": 101
    },
    {
      "midi": 42,
      "hit": false,
      "t": 84776.3881041639,
      "d": 5.296604166665929,
      "v": 48
    },
    {
      "midi": 77,
      "hit": false,
      "t": 84792.2779166639,
      "d": 5.296604166665929,
      "v": 57
    },
    {
      "midi": 42,
      "hit": false,
      "t": 84892.91339583055,
      "d": 5.296604166665929,
      "v": 53
    },
    {
      "midi": 40,
      "hit": false,
      "t": 84898.20999999721,
      "d": 5.296604166665929,
      "v": 93
    },
    {
      "midi": 77,
      "hit": false,
      "t": 84898.20999999721,
      "d": 5.296604166665929,
      "v": 56
    },
    {
      "midi": 82,
      "hit": false,
      "t": 84898.20999999721,
      "d": 5.296604166665929,
      "v": 7
    },
    {
      "midi": 74,
      "hit": false,
      "t": 84898.20999999721,
      "d": 31.779624999995576,
      "v": 126
    },
    {
      "midi": 35,
      "hit": false,
      "t": 84898.20999999721,
      "d": 74.15245833332301,
      "v": 120
    },
    {
      "midi": 95,
      "hit": false,
      "t": 84898.20999999721,
      "d": 105.93208333331859,
      "v": 108
    },
    {
      "midi": 52,
      "hit": false,
      "t": 84898.20999999721,
      "d": 105.93208333331859,
      "v": 65
    },
    {
      "midi": 28,
      "hit": false,
      "t": 84898.20999999721,
      "d": 248.94039583329868,
      "v": 100
    },
    {
      "midi": 81,
      "hit": false,
      "t": 84898.20999999721,
      "d": 254.2369999999646,
      "v": 119
    },
    {
      "midi": 82,
      "hit": false,
      "t": 85025.3284999972,
      "d": 5.296604166665929,
      "v": 1
    },
    {
      "midi": 52,
      "hit": false,
      "t": 85025.3284999972,
      "d": 5.296604166665929,
      "v": 65
    },
    {
      "midi": 74,
      "hit": false,
      "t": 85025.3284999972,
      "d": 31.779624999995576,
      "v": 121
    },
    {
      "midi": 42,
      "hit": false,
      "t": 85030.62510416386,
      "d": 5.296604166665929,
      "v": 45
    },
    {
      "midi": 77,
      "hit": false,
      "t": 85046.51491666386,
      "d": 5.296604166665929,
      "v": 63
    },
    {
      "midi": 98,
      "hit": false,
      "t": 85147.15039583051,
      "d": 10.593208333331859,
      "v": 104
    },
    {
      "midi": 102,
      "hit": false,
      "t": 85147.15039583051,
      "d": 10.593208333331859,
      "v": 69
    },
    {
      "midi": 105,
      "hit": false,
      "t": 85147.15039583051,
      "d": 10.593208333331859,
      "v": 79
    },
    {
      "midi": 42,
      "hit": false,
      "t": 85152.44699999718,
      "d": 5.296604166665929,
      "v": 102
    },
    {
      "midi": 77,
      "hit": false,
      "t": 85152.44699999718,
      "d": 5.296604166665929,
      "v": 15
    },
    {
      "midi": 82,
      "hit": false,
      "t": 85152.44699999718,
      "d": 5.296604166665929,
      "v": 9
    },
    {
      "midi": 74,
      "hit": false,
      "t": 85152.44699999718,
      "d": 31.779624999995576,
      "v": 104
    },
    {
      "midi": 30,
      "hit": false,
      "t": 85152.44699999718,
      "d": 90.04227083333535,
      "v": 100
    },
    {
      "midi": 78,
      "hit": false,
      "t": 85152.44699999718,
      "d": 121.82189583333093,
      "v": 102
    },
    {
      "midi": 54,
      "hit": false,
      "t": 85152.44699999718,
      "d": 190.677749999988,
      "v": 85
    },
    {
      "midi": 90,
      "hit": false,
      "t": 85152.44699999718,
      "d": 259.53360416665964,
      "v": 100
    },
    {
      "midi": 82,
      "hit": false,
      "t": 85279.56549999717,
      "d": 5.296604166665929,
      "v": 36
    },
    {
      "midi": 74,
      "hit": false,
      "t": 85279.56549999717,
      "d": 31.779624999995576,
      "v": 69
    },
    {
      "midi": 42,
      "hit": false,
      "t": 85284.86210416384,
      "d": 5.296604166665929,
      "v": 48
    },
    {
      "midi": 77,
      "hit": false,
      "t": 85300.75191666384,
      "d": 5.296604166665929,
      "v": 60
    },
    {
      "midi": 42,
      "hit": false,
      "t": 85401.3873958305,
      "d": 5.296604166665929,
      "v": 68
    },
    {
      "midi": 98,
      "hit": false,
      "t": 85401.3873958305,
      "d": 10.593208333331859,
      "v": 94
    },
    {
      "midi": 100,
      "hit": false,
      "t": 85401.3873958305,
      "d": 10.593208333331859,
      "v": 78
    },
    {
      "midi": 105,
      "hit": false,
      "t": 85401.3873958305,
      "d": 10.593208333331859,
      "v": 88
    },
    {
      "midi": 77,
      "hit": false,
      "t": 85406.68399999717,
      "d": 5.296604166665929,
      "v": 65
    },
    {
      "midi": 82,
      "hit": false,
      "t": 85406.68399999717,
      "d": 5.296604166665929,
      "v": 7
    },
    {
      "midi": 35,
      "hit": false,
      "t": 85406.68399999717,
      "d": 74.15245833333756,
      "v": 120
    },
    {
      "midi": 47,
      "hit": false,
      "t": 85406.68399999717,
      "d": 105.93208333333314,
      "v": 65
    },
    {
      "midi": 23,
      "hit": false,
      "t": 85406.68399999717,
      "d": 248.94039583332778,
      "v": 100
    },
    {
      "midi": 62,
      "hit": false,
      "t": 85406.68399999717,
      "d": 248.94039583332778,
      "v": 118
    },
    {
      "midi": 76,
      "hit": false,
      "t": 85406.68399999717,
      "d": 503.1773958332924,
      "v": 110
    },
    {
      "midi": 88,
      "hit": false,
      "t": 85406.68399999717,
      "d": 503.1773958332924,
      "v": 93
    },
    {
      "midi": 98,
      "hit": false,
      "t": 85528.5058958305,
      "d": 10.593208333331859,
      "v": 70
    },
    {
      "midi": 100,
      "hit": false,
      "t": 85528.5058958305,
      "d": 10.593208333331859,
      "v": 54
    },
    {
      "midi": 105,
      "hit": false,
      "t": 85528.5058958305,
      "d": 10.593208333331859,
      "v": 64
    },
    {
      "midi": 40,
      "hit": false,
      "t": 85533.80249999717,
      "d": 5.296604166665929,
      "v": 93
    },
    {
      "midi": 82,
      "hit": false,
      "t": 85533.80249999717,
      "d": 5.296604166665929,
      "v": 1
    },
    {
      "midi": 42,
      "hit": false,
      "t": 85539.09910416383,
      "d": 5.296604166665929,
      "v": 47
    },
    {
      "midi": 77,
      "hit": false,
      "t": 85554.98891666383,
      "d": 5.296604166665929,
      "v": 64
    },
    {
      "midi": 42,
      "hit": false,
      "t": 85660.92099999716,
      "d": 5.296604166665929,
      "v": 87
    },
    {
      "midi": 77,
      "hit": false,
      "t": 85660.92099999716,
      "d": 5.296604166665929,
      "v": 13
    },
    {
      "midi": 82,
      "hit": false,
      "t": 85660.92099999716,
      "d": 5.296604166665929,
      "v": 9
    },
    {
      "midi": 47,
      "hit": false,
      "t": 85660.92099999716,
      "d": 217.1607708333031,
      "v": 65
    },
    {
      "midi": 35,
      "hit": false,
      "t": 85660.92099999716,
      "d": 243.64379166663275,
      "v": 80
    },
    {
      "midi": 23,
      "hit": false,
      "t": 85660.92099999716,
      "d": 248.94039583329868,
      "v": 100
    },
    {
      "midi": 98,
      "hit": false,
      "t": 85782.74289583048,
      "d": 10.593208333331859,
      "v": 97
    },
    {
      "midi": 100,
      "hit": false,
      "t": 85782.74289583048,
      "d": 10.593208333331859,
      "v": 81
    },
    {
      "midi": 105,
      "hit": false,
      "t": 85782.74289583048,
      "d": 10.593208333331859,
      "v": 91
    },
    {
      "midi": 82,
      "hit": false,
      "t": 85788.03949999715,
      "d": 5.296604166665929,
      "v": 36
    },
    {
      "midi": 42,
      "hit": false,
      "t": 85793.33610416381,
      "d": 5.296604166665929,
      "v": 48
    },
    {
      "midi": 77,
      "hit": false,
      "t": 85809.22591666381,
      "d": 5.296604166665929,
      "v": 59
    },
    {
      "midi": 42,
      "hit": false,
      "t": 85909.86139583046,
      "d": 5.296604166665929,
      "v": 77
    },
    {
      "midi": 40,
      "hit": false,
      "t": 85915.15799999713,
      "d": 5.296604166665929,
      "v": 93
    },
    {
      "midi": 77,
      "hit": false,
      "t": 85915.15799999713,
      "d": 5.296604166665929,
      "v": 57
    },
    {
      "midi": 82,
      "hit": false,
      "t": 85915.15799999713,
      "d": 5.296604166665929,
      "v": 7
    },
    {
      "midi": 35,
      "hit": false,
      "t": 85915.15799999713,
      "d": 74.15245833332301,
      "v": 120
    },
    {
      "midi": 71,
      "hit": false,
      "t": 85915.15799999713,
      "d": 248.94039583329868,
      "v": 70
    },
    {
      "midi": 45,
      "hit": false,
      "t": 85915.15799999713,
      "d": 439.61814583330124,
      "v": 73
    },
    {
      "midi": 83,
      "hit": false,
      "t": 85915.15799999713,
      "d": 460.80456249996496,
      "v": 84
    },
    {
      "midi": 33,
      "hit": false,
      "t": 85915.15799999713,
      "d": 497.88079166662646,
      "v": 80
    },
    {
      "midi": 21,
      "hit": false,
      "t": 85915.15799999713,
      "d": 503.1773958332924,
      "v": 100
    },
    {
      "midi": 82,
      "hit": false,
      "t": 86042.27649999711,
      "d": 5.296604166665929,
      "v": 1
    },
    {
      "midi": 74,
      "hit": false,
      "t": 86042.27649999711,
      "d": 47.669437499993364,
      "v": 119
    },
    {
      "midi": 78,
      "hit": false,
      "t": 86042.27649999711,
      "d": 58.26264583332522,
      "v": 127
    },
    {
      "midi": 90,
      "hit": false,
      "t": 86042.27649999711,
      "d": 58.26264583332522,
      "v": 90
    },
    {
      "midi": 42,
      "hit": false,
      "t": 86047.57310416378,
      "d": 5.296604166665929,
      "v": 53
    },
    {
      "midi": 77,
      "hit": false,
      "t": 86063.46291666378,
      "d": 5.296604166665929,
      "v": 60
    },
    {
      "midi": 98,
      "hit": false,
      "t": 86164.09839583043,
      "d": 10.593208333331859,
      "v": 105
    },
    {
      "midi": 102,
      "hit": false,
      "t": 86164.09839583043,
      "d": 10.593208333331859,
      "v": 70
    },
    {
      "midi": 105,
      "hit": false,
      "t": 86164.09839583043,
      "d": 10.593208333331859,
      "v": 80
    },
    {
      "midi": 42,
      "hit": false,
      "t": 86169.3949999971,
      "d": 5.296604166665929,
      "v": 79
    },
    {
      "midi": 77,
      "hit": false,
      "t": 86169.3949999971,
      "d": 5.296604166665929,
      "v": 13
    },
    {
      "midi": 82,
      "hit": false,
      "t": 86169.3949999971,
      "d": 5.296604166665929,
      "v": 9
    },
    {
      "midi": 78,
      "hit": false,
      "t": 86169.3949999971,
      "d": 58.262645833339775,
      "v": 127
    },
    {
      "midi": 90,
      "hit": false,
      "t": 86169.3949999971,
      "d": 58.262645833339775,
      "v": 90
    },
    {
      "midi": 74,
      "hit": false,
      "t": 86169.3949999971,
      "d": 68.85585416667163,
      "v": 98
    },
    {
      "midi": 69,
      "hit": false,
      "t": 86169.3949999971,
      "d": 222.45737499999814,
      "v": 94
    },
    {
      "midi": 40,
      "hit": false,
      "t": 86296.5134999971,
      "d": 5.296604166665929,
      "v": 93
    },
    {
      "midi": 42,
      "hit": false,
      "t": 86296.5134999971,
      "d": 5.296604166665929,
      "v": 79
    },
    {
      "midi": 82,
      "hit": false,
      "t": 86296.5134999971,
      "d": 5.296604166665929,
      "v": 36
    },
    {
      "midi": 74,
      "hit": false,
      "t": 86296.5134999971,
      "d": 79.44906249998894,
      "v": 98
    },
    {
      "midi": 78,
      "hit": false,
      "t": 86296.5134999971,
      "d": 95.33887499998673,
      "v": 122
    },
    {
      "midi": 90,
      "hit": false,
      "t": 86296.5134999971,
      "d": 95.33887499998673,
      "v": 85
    },
    {
      "midi": 77,
      "hit": false,
      "t": 86317.69991666377,
      "d": 5.296604166665929,
      "v": 50
    },
    {
      "midi": 62,
      "hit": false,
      "t": 86375.9625624971,
      "d": 42.372833333327435,
      "v": 73
    },
    {
      "midi": 42,
      "hit": false,
      "t": 86418.33539583042,
      "d": 5.296604166665929,
      "v": 53
    },
    {
      "midi": 49,
      "hit": false,
      "t": 86423.63199999709,
      "d": 5.296604166665929,
      "v": 108
    },
    {
      "midi": 57,
      "hit": false,
      "t": 86423.63199999709,
      "d": 5.296604166665929,
      "v": 108
    },
    {
      "midi": 77,
      "hit": false,
      "t": 86423.63199999709,
      "d": 5.296604166665929,
      "v": 58
    },
    {
      "midi": 82,
      "hit": false,
      "t": 86423.63199999709,
      "d": 5.296604166665929,
      "v": 7
    },
    {
      "midi": 50,
      "hit": false,
      "t": 86423.63199999709,
      "d": 10.593208333331859,
      "v": 77
    },
    {
      "midi": 74,
      "hit": false,
      "t": 86423.63199999709,
      "d": 31.779624999995576,
      "v": 110
    },
    {
      "midi": 35,
      "hit": false,
      "t": 86423.63199999709,
      "d": 74.15245833332301,
      "v": 120
    },
    {
      "midi": 38,
      "hit": false,
      "t": 86423.63199999709,
      "d": 105.93208333331859,
      "v": 80
    },
    {
      "midi": 26,
      "hit": false,
      "t": 86423.63199999709,
      "d": 111.22868749998452,
      "v": 100
    },
    {
      "midi": 50,
      "hit": false,
      "t": 86518.97087499707,
      "d": 0,
      "v": 57
    },
    {
      "midi": 62,
      "hit": false,
      "t": 86518.97087499707,
      "d": 190.677749999988,
      "v": 57
    },
    {
      "midi": 82,
      "hit": false,
      "t": 86550.75049999707,
      "d": 5.296604166665929,
      "v": 1
    },
    {
      "midi": 74,
      "hit": false,
      "t": 86550.75049999707,
      "d": 31.779624999995576,
      "v": 93
    },
    {
      "midi": 76,
      "hit": false,
      "t": 86550.75049999707,
      "d": 90.04227083333535,
      "v": 117
    },
    {
      "midi": 50,
      "hit": false,
      "t": 86550.75049999707,
      "d": 158.89812499999243,
      "v": 65
    },
    {
      "midi": 38,
      "hit": false,
      "t": 86550.75049999707,
      "d": 233.05058333331544,
      "v": 80
    },
    {
      "midi": 26,
      "hit": false,
      "t": 86550.75049999707,
      "d": 238.34718749998137,
      "v": 100
    },
    {
      "midi": 42,
      "hit": false,
      "t": 86556.04710416374,
      "d": 5.296604166665929,
      "v": 45
    },
    {
      "midi": 77,
      "hit": false,
      "t": 86571.93691666373,
      "d": 5.296604166665929,
      "v": 52
    },
    {
      "midi": 98,
      "hit": false,
      "t": 86672.5723958304,
      "d": 10.593208333331859,
      "v": 117
    },
    {
      "midi": 102,
      "hit": false,
      "t": 86672.5723958304,
      "d": 10.593208333331859,
      "v": 82
    },
    {
      "midi": 105,
      "hit": false,
      "t": 86672.5723958304,
      "d": 10.593208333331859,
      "v": 92
    },
    {
      "midi": 42,
      "hit": false,
      "t": 86677.86899999707,
      "d": 5.296604166665929,
      "v": 102
    },
    {
      "midi": 77,
      "hit": false,
      "t": 86677.86899999707,
      "d": 5.296604166665929,
      "v": 14
    },
    {
      "midi": 82,
      "hit": false,
      "t": 86677.86899999707,
      "d": 5.296604166665929,
      "v": 9
    },
    {
      "midi": 74,
      "hit": false,
      "t": 86677.86899999707,
      "d": 31.779624999995576,
      "v": 99
    },
    {
      "midi": 75,
      "hit": false,
      "t": 86677.86899999707,
      "d": 74.15245833332301,
      "v": 117
    },
    {
      "midi": 62,
      "hit": false,
      "t": 86789.09768749705,
      "d": 105.93208333331859,
      "v": 58
    },
    {
      "midi": 82,
      "hit": false,
      "t": 86804.98749999705,
      "d": 5.296604166665929,
      "v": 36
    },
    {
      "midi": 74,
      "hit": false,
      "t": 86804.98749999705,
      "d": 31.779624999995576,
      "v": 48
    },
    {
      "midi": 50,
      "hit": false,
      "t": 86804.98749999705,
      "d": 90.0422708333208,
      "v": 65
    },
    {
      "midi": 38,
      "hit": false,
      "t": 86804.98749999705,
      "d": 105.93208333331859,
      "v": 80
    },
    {
      "midi": 26,
      "hit": false,
      "t": 86804.98749999705,
      "d": 111.22868749998452,
      "v": 100
    },
    {
      "midi": 42,
      "hit": false,
      "t": 86810.28410416371,
      "d": 5.296604166665929,
      "v": 48
    },
    {
      "midi": 77,
      "hit": false,
      "t": 86826.17391666371,
      "d": 5.296604166665929,
      "v": 57
    },
    {
      "midi": 64,
      "hit": false,
      "t": 86900.32637499704,
      "d": 105.93208333331859,
      "v": 69
    },
    {
      "midi": 42,
      "hit": false,
      "t": 86926.80939583037,
      "d": 5.296604166665929,
      "v": 53
    },
    {
      "midi": 40,
      "hit": false,
      "t": 86932.10599999703,
      "d": 5.296604166665929,
      "v": 93
    },
    {
      "midi": 77,
      "hit": false,
      "t": 86932.10599999703,
      "d": 5.296604166665929,
      "v": 56
    },
    {
      "midi": 82,
      "hit": false,
      "t": 86932.10599999703,
      "d": 5.296604166665929,
      "v": 7
    },
    {
      "midi": 74,
      "hit": false,
      "t": 86932.10599999703,
      "d": 31.779624999995576,
      "v": 126
    },
    {
      "midi": 86,
      "hit": false,
      "t": 86932.10599999703,
      "d": 74.15245833332301,
      "v": 109
    },
    {
      "midi": 52,
      "hit": false,
      "t": 86932.10599999703,
      "d": 74.15245833332301,
      "v": 65
    },
    {
      "midi": 35,
      "hit": false,
      "t": 86932.10599999703,
      "d": 74.15245833332301,
      "v": 120
    },
    {
      "midi": 78,
      "hit": false,
      "t": 86932.10599999703,
      "d": 95.33887499998673,
      "v": 103
    },
    {
      "midi": 28,
      "hit": false,
      "t": 86932.10599999703,
      "d": 111.22868749998452,
      "v": 100
    },
    {
      "midi": 82,
      "hit": false,
      "t": 87059.22449999701,
      "d": 5.296604166665929,
      "v": 1
    },
    {
      "midi": 52,
      "hit": false,
      "t": 87059.22449999701,
      "d": 5.296604166665929,
      "v": 65
    },
    {
      "midi": 74,
      "hit": false,
      "t": 87059.22449999701,
      "d": 31.779624999995576,
      "v": 121
    },
    {
      "midi": 42,
      "hit": false,
      "t": 87064.52110416368,
      "d": 5.296604166665929,
      "v": 45
    },
    {
      "midi": 77,
      "hit": false,
      "t": 87080.41091666368,
      "d": 5.296604166665929,
      "v": 63
    },
    {
      "midi": 66,
      "hit": false,
      "t": 87170.453187497,
      "d": 90.0422708333208,
      "v": 39
    },
    {
      "midi": 98,
      "hit": false,
      "t": 87181.04639583033,
      "d": 10.593208333331859,
      "v": 104
    },
    {
      "midi": 102,
      "hit": false,
      "t": 87181.04639583033,
      "d": 10.593208333331859,
      "v": 69
    },
    {
      "midi": 105,
      "hit": false,
      "t": 87181.04639583033,
      "d": 10.593208333331859,
      "v": 79
    },
    {
      "midi": 42,
      "hit": false,
      "t": 87186.342999997,
      "d": 5.296604166665929,
      "v": 102
    },
    {
      "midi": 77,
      "hit": false,
      "t": 87186.342999997,
      "d": 5.296604166665929,
      "v": 15
    },
    {
      "midi": 82,
      "hit": false,
      "t": 87186.342999997,
      "d": 5.296604166665929,
      "v": 9
    },
    {
      "midi": 74,
      "hit": false,
      "t": 87186.342999997,
      "d": 31.779624999995576,
      "v": 104
    },
    {
      "midi": 83,
      "hit": false,
      "t": 87186.342999997,
      "d": 74.15245833332301,
      "v": 110
    },
    {
      "midi": 54,
      "hit": false,
      "t": 87186.342999997,
      "d": 74.15245833332301,
      "v": 83
    },
    {
      "midi": 95,
      "hit": false,
      "t": 87186.342999997,
      "d": 79.44906249998894,
      "v": 107
    },
    {
      "midi": 79,
      "hit": false,
      "t": 87186.342999997,
      "d": 90.0422708333208,
      "v": 89
    },
    {
      "midi": 30,
      "hit": false,
      "t": 87186.342999997,
      "d": 111.22868749998452,
      "v": 100
    },
    {
      "midi": 38,
      "hit": false,
      "t": 87313.46149999698,
      "d": 5.296604166665929,
      "v": 40
    },
    {
      "midi": 82,
      "hit": false,
      "t": 87313.46149999698,
      "d": 5.296604166665929,
      "v": 36
    },
    {
      "midi": 74,
      "hit": false,
      "t": 87313.46149999698,
      "d": 31.779624999995576,
      "v": 69
    },
    {
      "midi": 42,
      "hit": false,
      "t": 87318.75810416364,
      "d": 5.296604166665929,
      "v": 48
    },
    {
      "midi": 77,
      "hit": false,
      "t": 87334.64791666364,
      "d": 5.296604166665929,
      "v": 60
    },
    {
      "midi": 38,
      "hit": false,
      "t": 87355.8343333303,
      "d": 5.296604166665929,
      "v": 40
    },
    {
      "midi": 38,
      "hit": false,
      "t": 87398.20716666363,
      "d": 5.296604166665929,
      "v": 40
    },
    {
      "midi": 42,
      "hit": false,
      "t": 87435.2833958303,
      "d": 5.296604166665929,
      "v": 68
    },
    {
      "midi": 98,
      "hit": false,
      "t": 87435.2833958303,
      "d": 10.593208333331859,
      "v": 94
    },
    {
      "midi": 100,
      "hit": false,
      "t": 87435.2833958303,
      "d": 10.593208333331859,
      "v": 78
    },
    {
      "midi": 105,
      "hit": false,
      "t": 87435.2833958303,
      "d": 10.593208333331859,
      "v": 88
    },
    {
      "midi": 38,
      "hit": false,
      "t": 87440.57999999696,
      "d": 5.296604166665929,
      "v": 40
    },
    {
      "midi": 77,
      "hit": false,
      "t": 87440.57999999696,
      "d": 5.296604166665929,
      "v": 65
    },
    {
      "midi": 82,
      "hit": false,
      "t": 87440.57999999696,
      "d": 5.296604166665929,
      "v": 7
    },
    {
      "midi": 74,
      "hit": false,
      "t": 87440.57999999696,
      "d": 31.779624999995576,
      "v": 98
    },
    {
      "midi": 35,
      "hit": false,
      "t": 87440.57999999696,
      "d": 74.15245833332301,
      "v": 120
    },
    {
      "midi": 23,
      "hit": false,
      "t": 87440.57999999696,
      "d": 111.22868749998452,
      "v": 100
    },
    {
      "midi": 40,
      "hit": false,
      "t": 87440.57999999696,
      "d": 116.52529166665045,
      "v": 80
    },
    {
      "midi": 47,
      "hit": false,
      "t": 87440.57999999696,
      "d": 116.52529166665045,
      "v": 81
    },
    {
      "midi": 78,
      "hit": false,
      "t": 87440.57999999696,
      "d": 248.94039583331323,
      "v": 89
    },
    {
      "midi": 81,
      "hit": false,
      "t": 87440.57999999696,
      "d": 376.05889583329554,
      "v": 110
    },
    {
      "midi": 93,
      "hit": false,
      "t": 87440.57999999696,
      "d": 397.24531249995925,
      "v": 96
    },
    {
      "midi": 98,
      "hit": false,
      "t": 87562.40189583028,
      "d": 10.593208333331859,
      "v": 70
    },
    {
      "midi": 100,
      "hit": false,
      "t": 87562.40189583028,
      "d": 10.593208333331859,
      "v": 54
    },
    {
      "midi": 105,
      "hit": false,
      "t": 87562.40189583028,
      "d": 10.593208333331859,
      "v": 64
    },
    {
      "midi": 82,
      "hit": false,
      "t": 87567.69849999694,
      "d": 5.296604166665929,
      "v": 1
    },
    {
      "midi": 74,
      "hit": false,
      "t": 87567.69849999694,
      "d": 31.779624999995576,
      "v": 81
    },
    {
      "midi": 42,
      "hit": false,
      "t": 87572.99510416361,
      "d": 5.296604166665929,
      "v": 47
    },
    {
      "midi": 77,
      "hit": false,
      "t": 87588.8849166636,
      "d": 5.296604166665929,
      "v": 64
    },
    {
      "midi": 42,
      "hit": false,
      "t": 87694.81699999694,
      "d": 5.296604166665929,
      "v": 87
    },
    {
      "midi": 77,
      "hit": false,
      "t": 87694.81699999694,
      "d": 5.296604166665929,
      "v": 13
    },
    {
      "midi": 82,
      "hit": false,
      "t": 87694.81699999694,
      "d": 5.296604166665929,
      "v": 9
    },
    {
      "midi": 74,
      "hit": false,
      "t": 87694.81699999694,
      "d": 31.779624999995576,
      "v": 104
    },
    {
      "midi": 40,
      "hit": false,
      "t": 87694.81699999694,
      "d": 95.33887499998673,
      "v": 65
    },
    {
      "midi": 47,
      "hit": false,
      "t": 87694.81699999694,
      "d": 206.56756249997125,
      "v": 65
    },
    {
      "midi": 35,
      "hit": false,
      "t": 87694.81699999694,
      "d": 233.0505833333009,
      "v": 80
    },
    {
      "midi": 23,
      "hit": false,
      "t": 87694.81699999694,
      "d": 238.34718749996682,
      "v": 100
    },
    {
      "midi": 98,
      "hit": false,
      "t": 87816.63889583026,
      "d": 10.593208333331859,
      "v": 97
    },
    {
      "midi": 100,
      "hit": false,
      "t": 87816.63889583026,
      "d": 10.593208333331859,
      "v": 81
    },
    {
      "midi": 105,
      "hit": false,
      "t": 87816.63889583026,
      "d": 10.593208333331859,
      "v": 91
    },
    {
      "midi": 82,
      "hit": false,
      "t": 87821.93549999692,
      "d": 5.296604166665929,
      "v": 36
    },
    {
      "midi": 74,
      "hit": false,
      "t": 87821.93549999692,
      "d": 31.779624999995576,
      "v": 49
    },
    {
      "midi": 42,
      "hit": false,
      "t": 87827.23210416359,
      "d": 5.296604166665929,
      "v": 48
    },
    {
      "midi": 77,
      "hit": false,
      "t": 87843.12191666359,
      "d": 5.296604166665929,
      "v": 59
    },
    {
      "midi": 42,
      "hit": false,
      "t": 87943.75739583024,
      "d": 5.296604166665929,
      "v": 77
    },
    {
      "midi": 40,
      "hit": false,
      "t": 87949.0539999969,
      "d": 5.296604166665929,
      "v": 93
    },
    {
      "midi": 77,
      "hit": false,
      "t": 87949.0539999969,
      "d": 5.296604166665929,
      "v": 57
    },
    {
      "midi": 82,
      "hit": false,
      "t": 87949.0539999969,
      "d": 5.296604166665929,
      "v": 7
    },
    {
      "midi": 74,
      "hit": false,
      "t": 87949.0539999969,
      "d": 31.779624999995576,
      "v": 108
    },
    {
      "midi": 35,
      "hit": false,
      "t": 87949.0539999969,
      "d": 74.15245833332301,
      "v": 120
    },
    {
      "midi": 49,
      "hit": false,
      "t": 87949.0539999969,
      "d": 95.33887499998673,
      "v": 74
    },
    {
      "midi": 37,
      "hit": false,
      "t": 87949.0539999969,
      "d": 360.16908333329775,
      "v": 80
    },
    {
      "midi": 25,
      "hit": false,
      "t": 87949.0539999969,
      "d": 365.4656874999637,
      "v": 100
    },
    {
      "midi": 79,
      "hit": false,
      "t": 87949.0539999969,
      "d": 376.05889583329554,
      "v": 106
    },
    {
      "midi": 83,
      "hit": false,
      "t": 87949.0539999969,
      "d": 376.05889583329554,
      "v": 127
    },
    {
      "midi": 95,
      "hit": false,
      "t": 87949.0539999969,
      "d": 376.05889583329554,
      "v": 104
    },
    {
      "midi": 82,
      "hit": false,
      "t": 88076.17249999689,
      "d": 5.296604166665929,
      "v": 1
    },
    {
      "midi": 74,
      "hit": false,
      "t": 88076.17249999689,
      "d": 31.779624999995576,
      "v": 98
    },
    {
      "midi": 42,
      "hit": false,
      "t": 88081.46910416355,
      "d": 5.296604166665929,
      "v": 53
    },
    {
      "midi": 77,
      "hit": false,
      "t": 88097.35891666355,
      "d": 5.296604166665929,
      "v": 60
    },
    {
      "midi": 98,
      "hit": false,
      "t": 88197.9943958302,
      "d": 10.593208333331859,
      "v": 105
    },
    {
      "midi": 102,
      "hit": false,
      "t": 88197.9943958302,
      "d": 10.593208333331859,
      "v": 70
    },
    {
      "midi": 105,
      "hit": false,
      "t": 88197.9943958302,
      "d": 10.593208333331859,
      "v": 80
    },
    {
      "midi": 42,
      "hit": false,
      "t": 88203.29099999687,
      "d": 5.296604166665929,
      "v": 79
    },
    {
      "midi": 77,
      "hit": false,
      "t": 88203.29099999687,
      "d": 5.296604166665929,
      "v": 13
    },
    {
      "midi": 82,
      "hit": false,
      "t": 88203.29099999687,
      "d": 5.296604166665929,
      "v": 9
    },
    {
      "midi": 74,
      "hit": false,
      "t": 88203.29099999687,
      "d": 31.779624999995576,
      "v": 104
    },
    {
      "midi": 49,
      "hit": false,
      "t": 88203.29099999687,
      "d": 95.33887500000128,
      "v": 65
    },
    {
      "midi": 40,
      "hit": false,
      "t": 88330.40949999687,
      "d": 5.296604166665929,
      "v": 93
    },
    {
      "midi": 42,
      "hit": false,
      "t": 88330.40949999687,
      "d": 5.296604166665929,
      "v": 79
    },
    {
      "midi": 82,
      "hit": false,
      "t": 88330.40949999687,
      "d": 5.296604166665929,
      "v": 36
    },
    {
      "midi": 74,
      "hit": false,
      "t": 88330.40949999687,
      "d": 31.779624999995576,
      "v": 84
    },
    {
      "midi": 38,
      "hit": false,
      "t": 88330.40949999687,
      "d": 105.93208333333314,
      "v": 80
    },
    {
      "midi": 26,
      "hit": false,
      "t": 88330.40949999687,
      "d": 111.22868749999907,
      "v": 100
    },
    {
      "midi": 69,
      "hit": false,
      "t": 88330.40949999687,
      "d": 121.82189583333093,
      "v": 83
    },
    {
      "midi": 50,
      "hit": false,
      "t": 88341.0027083302,
      "d": 84.74566666666942,
      "v": 114
    },
    {
      "midi": 86,
      "hit": false,
      "t": 88341.0027083302,
      "d": 105.93208333333314,
      "v": 98
    },
    {
      "midi": 62,
      "hit": false,
      "t": 88341.0027083302,
      "d": 105.93208333333314,
      "v": 127
    },
    {
      "midi": 77,
      "hit": false,
      "t": 88351.59591666353,
      "d": 5.296604166665929,
      "v": 50
    },
    {
      "midi": 42,
      "hit": false,
      "t": 88452.2313958302,
      "d": 5.296604166665929,
      "v": 53
    },
    {
      "midi": 77,
      "hit": false,
      "t": 88457.52799999686,
      "d": 5.296604166665929,
      "v": 58
    },
    {
      "midi": 82,
      "hit": false,
      "t": 88457.52799999686,
      "d": 5.296604166665929,
      "v": 7
    },
    {
      "midi": 74,
      "hit": false,
      "t": 88457.52799999686,
      "d": 31.779624999995576,
      "v": 110
    },
    {
      "midi": 35,
      "hit": false,
      "t": 88457.52799999686,
      "d": 74.15245833332301,
      "v": 120
    },
    {
      "midi": 82,
      "hit": false,
      "t": 88584.64649999686,
      "d": 5.296604166665929,
      "v": 1
    },
    {
      "midi": 74,
      "hit": false,
      "t": 88584.64649999686,
      "d": 31.779624999995576,
      "v": 93
    },
    {
      "midi": 69,
      "hit": false,
      "t": 88584.64649999686,
      "d": 121.82189583331638,
      "v": 83
    },
    {
      "midi": 38,
      "hit": false,
      "t": 88584.64649999686,
      "d": 243.64379166663275,
      "v": 89
    },
    {
      "midi": 26,
      "hit": false,
      "t": 88584.64649999686,
      "d": 248.94039583329868,
      "v": 109
    },
    {
      "midi": 42,
      "hit": false,
      "t": 88589.94310416353,
      "d": 5.296604166665929,
      "v": 45
    },
    {
      "midi": 50,
      "hit": false,
      "t": 88589.94310416353,
      "d": 74.15245833332301,
      "v": 108
    },
    {
      "midi": 62,
      "hit": false,
      "t": 88589.94310416353,
      "d": 74.15245833332301,
      "v": 121
    },
    {
      "midi": 86,
      "hit": false,
      "t": 88595.23970833019,
      "d": 68.85585416665708,
      "v": 107
    },
    {
      "midi": 77,
      "hit": false,
      "t": 88605.83291666352,
      "d": 5.296604166665929,
      "v": 52
    },
    {
      "midi": 98,
      "hit": false,
      "t": 88706.46839583018,
      "d": 10.593208333331859,
      "v": 117
    },
    {
      "midi": 102,
      "hit": false,
      "t": 88706.46839583018,
      "d": 10.593208333331859,
      "v": 82
    },
    {
      "midi": 105,
      "hit": false,
      "t": 88706.46839583018,
      "d": 10.593208333331859,
      "v": 92
    },
    {
      "midi": 42,
      "hit": false,
      "t": 88711.76499999684,
      "d": 5.296604166665929,
      "v": 102
    },
    {
      "midi": 77,
      "hit": false,
      "t": 88711.76499999684,
      "d": 5.296604166665929,
      "v": 14
    },
    {
      "midi": 82,
      "hit": false,
      "t": 88711.76499999684,
      "d": 5.296604166665929,
      "v": 9
    },
    {
      "midi": 74,
      "hit": false,
      "t": 88711.76499999684,
      "d": 31.779624999995576,
      "v": 99
    },
    {
      "midi": 82,
      "hit": false,
      "t": 88838.88349999682,
      "d": 5.296604166665929,
      "v": 36
    },
    {
      "midi": 74,
      "hit": false,
      "t": 88838.88349999682,
      "d": 31.779624999995576,
      "v": 48
    },
    {
      "midi": 38,
      "hit": false,
      "t": 88838.88349999682,
      "d": 100.63547916665266,
      "v": 80
    },
    {
      "midi": 26,
      "hit": false,
      "t": 88838.88349999682,
      "d": 105.93208333331859,
      "v": 100
    },
    {
      "midi": 69,
      "hit": false,
      "t": 88838.88349999682,
      "d": 121.82189583331638,
      "v": 83
    },
    {
      "midi": 42,
      "hit": false,
      "t": 88844.18010416349,
      "d": 5.296604166665929,
      "v": 48
    },
    {
      "midi": 50,
      "hit": false,
      "t": 88844.18010416349,
      "d": 84.74566666665487,
      "v": 90
    },
    {
      "midi": 62,
      "hit": false,
      "t": 88844.18010416349,
      "d": 90.0422708333208,
      "v": 103
    },
    {
      "midi": 86,
      "hit": false,
      "t": 88849.47670833016,
      "d": 63.55924999999115,
      "v": 111
    },
    {
      "midi": 77,
      "hit": false,
      "t": 88860.06991666349,
      "d": 5.296604166665929,
      "v": 57
    },
    {
      "midi": 94,
      "hit": false,
      "t": 88944.81558333014,
      "d": 26.483020833329647,
      "v": 95
    },
    {
      "midi": 42,
      "hit": false,
      "t": 88960.70539583014,
      "d": 5.296604166665929,
      "v": 53
    },
    {
      "midi": 40,
      "hit": false,
      "t": 88966.0019999968,
      "d": 5.296604166665929,
      "v": 93
    },
    {
      "midi": 77,
      "hit": false,
      "t": 88966.0019999968,
      "d": 5.296604166665929,
      "v": 56
    },
    {
      "midi": 82,
      "hit": false,
      "t": 88966.0019999968,
      "d": 5.296604166665929,
      "v": 7
    },
    {
      "midi": 74,
      "hit": false,
      "t": 88966.0019999968,
      "d": 31.779624999995576,
      "v": 126
    },
    {
      "midi": 35,
      "hit": false,
      "t": 88966.0019999968,
      "d": 74.15245833332301,
      "v": 120
    },
    {
      "midi": 52,
      "hit": false,
      "t": 88966.0019999968,
      "d": 105.93208333331859,
      "v": 73
    },
    {
      "midi": 28,
      "hit": false,
      "t": 88966.0019999968,
      "d": 248.94039583329868,
      "v": 100
    },
    {
      "midi": 79,
      "hit": false,
      "t": 88966.0019999968,
      "d": 513.7706041666097,
      "v": 96
    },
    {
      "midi": 58,
      "hit": false,
      "t": 88976.59520833014,
      "d": 68.85585416665708,
      "v": 114
    },
    {
      "midi": 70,
      "hit": false,
      "t": 88976.59520833014,
      "d": 68.85585416665708,
      "v": 127
    },
    {
      "midi": 95,
      "hit": false,
      "t": 88976.59520833014,
      "d": 434.32154166662076,
      "v": 105
    },
    {
      "midi": 59,
      "hit": false,
      "t": 89003.07822916347,
      "d": 365.4656874999637,
      "v": 104
    },
    {
      "midi": 71,
      "hit": false,
      "t": 89003.07822916347,
      "d": 365.4656874999637,
      "v": 117
    },
    {
      "midi": 83,
      "hit": false,
      "t": 89029.5612499968,
      "d": 195.9743541666394,
      "v": 108
    },
    {
      "midi": 82,
      "hit": false,
      "t": 89093.12049999679,
      "d": 5.296604166665929,
      "v": 1
    },
    {
      "midi": 74,
      "hit": false,
      "t": 89093.12049999679,
      "d": 31.779624999995576,
      "v": 121
    },
    {
      "midi": 52,
      "hit": false,
      "t": 89093.12049999679,
      "d": 105.93208333331859,
      "v": 16
    },
    {
      "midi": 42,
      "hit": false,
      "t": 89098.41710416345,
      "d": 5.296604166665929,
      "v": 45
    },
    {
      "midi": 77,
      "hit": false,
      "t": 89114.30691666345,
      "d": 5.296604166665929,
      "v": 63
    },
    {
      "midi": 98,
      "hit": false,
      "t": 89214.9423958301,
      "d": 10.593208333331859,
      "v": 104
    },
    {
      "midi": 102,
      "hit": false,
      "t": 89214.9423958301,
      "d": 10.593208333331859,
      "v": 69
    },
    {
      "midi": 105,
      "hit": false,
      "t": 89214.9423958301,
      "d": 10.593208333331859,
      "v": 79
    },
    {
      "midi": 42,
      "hit": false,
      "t": 89220.23899999677,
      "d": 5.296604166665929,
      "v": 102
    },
    {
      "midi": 77,
      "hit": false,
      "t": 89220.23899999677,
      "d": 5.296604166665929,
      "v": 15
    },
    {
      "midi": 82,
      "hit": false,
      "t": 89220.23899999677,
      "d": 5.296604166665929,
      "v": 9
    },
    {
      "midi": 74,
      "hit": false,
      "t": 89220.23899999677,
      "d": 31.779624999995576,
      "v": 104
    },
    {
      "midi": 30,
      "hit": false,
      "t": 89220.23899999677,
      "d": 90.04227083333535,
      "v": 100
    },
    {
      "midi": 54,
      "hit": false,
      "t": 89220.23899999677,
      "d": 217.16077083331766,
      "v": 79
    },
    {
      "midi": 82,
      "hit": false,
      "t": 89347.35749999677,
      "d": 5.296604166665929,
      "v": 36
    },
    {
      "midi": 74,
      "hit": false,
      "t": 89347.35749999677,
      "d": 31.779624999995576,
      "v": 69
    },
    {
      "midi": 42,
      "hit": false,
      "t": 89352.65410416343,
      "d": 5.296604166665929,
      "v": 48
    },
    {
      "midi": 77,
      "hit": false,
      "t": 89368.54391666343,
      "d": 5.296604166665929,
      "v": 60
    },
    {
      "midi": 80,
      "hit": false,
      "t": 89437.39977083009,
      "d": 127.1184999999823,
      "v": 89
    },
    {
      "midi": 42,
      "hit": false,
      "t": 89469.17939583008,
      "d": 5.296604166665929,
      "v": 68
    },
    {
      "midi": 98,
      "hit": false,
      "t": 89469.17939583008,
      "d": 10.593208333331859,
      "v": 94
    },
    {
      "midi": 100,
      "hit": false,
      "t": 89469.17939583008,
      "d": 10.593208333331859,
      "v": 78
    },
    {
      "midi": 105,
      "hit": false,
      "t": 89469.17939583008,
      "d": 10.593208333331859,
      "v": 88
    },
    {
      "midi": 77,
      "hit": false,
      "t": 89474.47599999675,
      "d": 5.296604166665929,
      "v": 65
    },
    {
      "midi": 82,
      "hit": false,
      "t": 89474.47599999675,
      "d": 5.296604166665929,
      "v": 7
    },
    {
      "midi": 74,
      "hit": false,
      "t": 89474.47599999675,
      "d": 31.779624999995576,
      "v": 98
    },
    {
      "midi": 35,
      "hit": false,
      "t": 89474.47599999675,
      "d": 74.15245833332301,
      "v": 120
    },
    {
      "midi": 40,
      "hit": false,
      "t": 89474.47599999675,
      "d": 217.16077083331766,
      "v": 65
    },
    {
      "midi": 47,
      "hit": false,
      "t": 89474.47599999675,
      "d": 217.16077083331766,
      "v": 65
    },
    {
      "midi": 23,
      "hit": false,
      "t": 89474.47599999675,
      "d": 248.94039583331323,
      "v": 100
    },
    {
      "midi": 76,
      "hit": false,
      "t": 89474.47599999675,
      "d": 503.17739583327784,
      "v": 90
    },
    {
      "midi": 93,
      "hit": false,
      "t": 89474.47599999675,
      "d": 715.041562499915,
      "v": 102
    },
    {
      "midi": 57,
      "hit": false,
      "t": 89495.66241666341,
      "d": 953.3887499998964,
      "v": 114
    },
    {
      "midi": 69,
      "hit": false,
      "t": 89495.66241666341,
      "d": 953.3887499998964,
      "v": 127
    },
    {
      "midi": 81,
      "hit": false,
      "t": 89522.14543749674,
      "d": 455.5079583332845,
      "v": 112
    },
    {
      "midi": 98,
      "hit": false,
      "t": 89596.29789583007,
      "d": 10.593208333331859,
      "v": 70
    },
    {
      "midi": 100,
      "hit": false,
      "t": 89596.29789583007,
      "d": 10.593208333331859,
      "v": 54
    },
    {
      "midi": 105,
      "hit": false,
      "t": 89596.29789583007,
      "d": 10.593208333331859,
      "v": 64
    },
    {
      "midi": 82,
      "hit": false,
      "t": 89601.59449999673,
      "d": 5.296604166665929,
      "v": 1
    },
    {
      "midi": 74,
      "hit": false,
      "t": 89601.59449999673,
      "d": 31.779624999995576,
      "v": 81
    },
    {
      "midi": 42,
      "hit": false,
      "t": 89606.8911041634,
      "d": 5.296604166665929,
      "v": 47
    },
    {
      "midi": 77,
      "hit": false,
      "t": 89622.7809166634,
      "d": 5.296604166665929,
      "v": 64
    },
    {
      "midi": 42,
      "hit": false,
      "t": 89728.71299999673,
      "d": 5.296604166665929,
      "v": 87
    },
    {
      "midi": 77,
      "hit": false,
      "t": 89728.71299999673,
      "d": 5.296604166665929,
      "v": 13
    },
    {
      "midi": 82,
      "hit": false,
      "t": 89728.71299999673,
      "d": 5.296604166665929,
      "v": 9
    },
    {
      "midi": 74,
      "hit": false,
      "t": 89728.71299999673,
      "d": 31.779624999995576,
      "v": 104
    },
    {
      "midi": 40,
      "hit": false,
      "t": 89728.71299999673,
      "d": 217.1607708333031,
      "v": 65
    },
    {
      "midi": 47,
      "hit": false,
      "t": 89728.71299999673,
      "d": 217.1607708333031,
      "v": 65
    },
    {
      "midi": 35,
      "hit": false,
      "t": 89728.71299999673,
      "d": 243.64379166663275,
      "v": 80
    },
    {
      "midi": 23,
      "hit": false,
      "t": 89728.71299999673,
      "d": 248.94039583329868,
      "v": 100
    },
    {
      "midi": 98,
      "hit": false,
      "t": 89850.53489583005,
      "d": 10.593208333331859,
      "v": 97
    },
    {
      "midi": 100,
      "hit": false,
      "t": 89850.53489583005,
      "d": 10.593208333331859,
      "v": 81
    },
    {
      "midi": 105,
      "hit": false,
      "t": 89850.53489583005,
      "d": 10.593208333331859,
      "v": 91
    },
    {
      "midi": 82,
      "hit": false,
      "t": 89855.83149999671,
      "d": 5.296604166665929,
      "v": 36
    },
    {
      "midi": 74,
      "hit": false,
      "t": 89855.83149999671,
      "d": 31.779624999995576,
      "v": 49
    },
    {
      "midi": 42,
      "hit": false,
      "t": 89861.12810416338,
      "d": 5.296604166665929,
      "v": 48
    },
    {
      "midi": 77,
      "hit": false,
      "t": 89877.01791666338,
      "d": 5.296604166665929,
      "v": 59
    },
    {
      "midi": 42,
      "hit": false,
      "t": 89977.65339583003,
      "d": 5.296604166665929,
      "v": 77
    },
    {
      "midi": 40,
      "hit": false,
      "t": 89982.9499999967,
      "d": 5.296604166665929,
      "v": 93
    },
    {
      "midi": 77,
      "hit": false,
      "t": 89982.9499999967,
      "d": 5.296604166665929,
      "v": 57
    },
    {
      "midi": 82,
      "hit": false,
      "t": 89982.9499999967,
      "d": 5.296604166665929,
      "v": 7
    },
    {
      "midi": 74,
      "hit": false,
      "t": 89982.9499999967,
      "d": 31.779624999995576,
      "v": 108
    },
    {
      "midi": 35,
      "hit": false,
      "t": 89982.9499999967,
      "d": 74.15245833332301,
      "v": 120
    },
    {
      "midi": 45,
      "hit": false,
      "t": 89982.9499999967,
      "d": 328.3894583332876,
      "v": 65
    },
    {
      "midi": 33,
      "hit": false,
      "t": 89982.9499999967,
      "d": 370.76229166661506,
      "v": 80
    },
    {
      "midi": 21,
      "hit": false,
      "t": 89982.9499999967,
      "d": 376.058895833281,
      "v": 100
    },
    {
      "midi": 82,
      "hit": false,
      "t": 90110.06849999668,
      "d": 5.296604166665929,
      "v": 1
    },
    {
      "midi": 74,
      "hit": false,
      "t": 90110.06849999668,
      "d": 31.779624999995576,
      "v": 98
    },
    {
      "midi": 42,
      "hit": false,
      "t": 90115.36510416334,
      "d": 5.296604166665929,
      "v": 53
    },
    {
      "midi": 77,
      "hit": false,
      "t": 90131.25491666334,
      "d": 5.296604166665929,
      "v": 60
    },
    {
      "midi": 98,
      "hit": false,
      "t": 90231.89039582999,
      "d": 10.593208333331859,
      "v": 105
    },
    {
      "midi": 102,
      "hit": false,
      "t": 90231.89039582999,
      "d": 10.593208333331859,
      "v": 70
    },
    {
      "midi": 105,
      "hit": false,
      "t": 90231.89039582999,
      "d": 10.593208333331859,
      "v": 80
    },
    {
      "midi": 42,
      "hit": false,
      "t": 90237.18699999666,
      "d": 5.296604166665929,
      "v": 79
    },
    {
      "midi": 77,
      "hit": false,
      "t": 90237.18699999666,
      "d": 5.296604166665929,
      "v": 13
    },
    {
      "midi": 82,
      "hit": false,
      "t": 90237.18699999666,
      "d": 5.296604166665929,
      "v": 9
    },
    {
      "midi": 74,
      "hit": false,
      "t": 90237.18699999666,
      "d": 31.779624999995576,
      "v": 104
    },
    {
      "midi": 42,
      "hit": false,
      "t": 90364.30549999664,
      "d": 5.296604166665929,
      "v": 79
    },
    {
      "midi": 82,
      "hit": false,
      "t": 90364.30549999664,
      "d": 5.296604166665929,
      "v": 36
    },
    {
      "midi": 74,
      "hit": false,
      "t": 90364.30549999664,
      "d": 31.779624999995576,
      "v": 84
    },
    {
      "midi": 50,
      "hit": false,
      "t": 90364.30549999664,
      "d": 95.33887500000128,
      "v": 77
    },
    {
      "midi": 38,
      "hit": false,
      "t": 90364.30549999664,
      "d": 105.93208333333314,
      "v": 80
    },
    {
      "midi": 26,
      "hit": false,
      "t": 90364.30549999664,
      "d": 111.22868749999907,
      "v": 100
    },
    {
      "midi": 77,
      "hit": false,
      "t": 90385.4919166633,
      "d": 5.296604166665929,
      "v": 50
    },
    {
      "midi": 42,
      "hit": false,
      "t": 90486.12739582997,
      "d": 5.296604166665929,
      "v": 53
    },
    {
      "midi": 77,
      "hit": false,
      "t": 90491.42399999664,
      "d": 5.296604166665929,
      "v": 58
    },
    {
      "midi": 82,
      "hit": false,
      "t": 90491.42399999664,
      "d": 5.296604166665929,
      "v": 7
    },
    {
      "midi": 74,
      "hit": false,
      "t": 90491.42399999664,
      "d": 31.779624999995576,
      "v": 110
    },
    {
      "midi": 35,
      "hit": false,
      "t": 90491.42399999664,
      "d": 74.15245833332301,
      "v": 120
    },
    {
      "midi": 82,
      "hit": false,
      "t": 90618.54249999663,
      "d": 5.296604166665929,
      "v": 1
    },
    {
      "midi": 74,
      "hit": false,
      "t": 90618.54249999663,
      "d": 31.779624999995576,
      "v": 93
    },
    {
      "midi": 50,
      "hit": false,
      "t": 90618.54249999663,
      "d": 206.5675624999858,
      "v": 65
    },
    {
      "midi": 38,
      "hit": false,
      "t": 90618.54249999663,
      "d": 233.05058333331544,
      "v": 80
    },
    {
      "midi": 26,
      "hit": false,
      "t": 90618.54249999663,
      "d": 238.34718749998137,
      "v": 100
    },
    {
      "midi": 42,
      "hit": false,
      "t": 90623.8391041633,
      "d": 5.296604166665929,
      "v": 45
    },
    {
      "midi": 77,
      "hit": false,
      "t": 90639.7289166633,
      "d": 5.296604166665929,
      "v": 52
    },
    {
      "midi": 98,
      "hit": false,
      "t": 90740.36439582997,
      "d": 10.593208333331859,
      "v": 117
    },
    {
      "midi": 102,
      "hit": false,
      "t": 90740.36439582997,
      "d": 10.593208333331859,
      "v": 82
    },
    {
      "midi": 105,
      "hit": false,
      "t": 90740.36439582997,
      "d": 10.593208333331859,
      "v": 92
    },
    {
      "midi": 42,
      "hit": false,
      "t": 90745.66099999663,
      "d": 5.296604166665929,
      "v": 102
    },
    {
      "midi": 77,
      "hit": false,
      "t": 90745.66099999663,
      "d": 5.296604166665929,
      "v": 14
    },
    {
      "midi": 82,
      "hit": false,
      "t": 90745.66099999663,
      "d": 5.296604166665929,
      "v": 9
    },
    {
      "midi": 74,
      "hit": false,
      "t": 90745.66099999663,
      "d": 31.779624999995576,
      "v": 99
    },
    {
      "midi": 82,
      "hit": false,
      "t": 90872.77949999661,
      "d": 5.296604166665929,
      "v": 36
    },
    {
      "midi": 74,
      "hit": false,
      "t": 90872.77949999661,
      "d": 31.779624999995576,
      "v": 48
    },
    {
      "midi": 50,
      "hit": false,
      "t": 90872.77949999661,
      "d": 95.33887499998673,
      "v": 65
    },
    {
      "midi": 38,
      "hit": false,
      "t": 90872.77949999661,
      "d": 105.93208333331859,
      "v": 80
    },
    {
      "midi": 26,
      "hit": false,
      "t": 90872.77949999661,
      "d": 111.22868749998452,
      "v": 100
    },
    {
      "midi": 42,
      "hit": false,
      "t": 90878.07610416328,
      "d": 5.296604166665929,
      "v": 48
    },
    {
      "midi": 77,
      "hit": false,
      "t": 90893.96591666328,
      "d": 5.296604166665929,
      "v": 57
    },
    {
      "midi": 42,
      "hit": false,
      "t": 90994.60139582993,
      "d": 5.296604166665929,
      "v": 53
    },
    {
      "midi": 40,
      "hit": false,
      "t": 90999.8979999966,
      "d": 5.296604166665929,
      "v": 93
    },
    {
      "midi": 77,
      "hit": false,
      "t": 90999.8979999966,
      "d": 5.296604166665929,
      "v": 56
    },
    {
      "midi": 82,
      "hit": false,
      "t": 90999.8979999966,
      "d": 5.296604166665929,
      "v": 7
    },
    {
      "midi": 74,
      "hit": false,
      "t": 90999.8979999966,
      "d": 31.779624999995576,
      "v": 126
    },
    {
      "midi": 86,
      "hit": false,
      "t": 90999.8979999966,
      "d": 58.26264583332522,
      "v": 108
    },
    {
      "midi": 35,
      "hit": false,
      "t": 90999.8979999966,
      "d": 74.15245833332301,
      "v": 120
    },
    {
      "midi": 78,
      "hit": false,
      "t": 90999.8979999966,
      "d": 95.33887499998673,
      "v": 91
    },
    {
      "midi": 62,
      "hit": false,
      "t": 90999.8979999966,
      "d": 100.63547916665266,
      "v": 127
    },
    {
      "midi": 52,
      "hit": false,
      "t": 90999.8979999966,
      "d": 105.93208333331859,
      "v": 65
    },
    {
      "midi": 28,
      "hit": false,
      "t": 90999.8979999966,
      "d": 238.34718749996682,
      "v": 100
    },
    {
      "midi": 50,
      "hit": false,
      "t": 91010.49120832993,
      "d": 100.63547916665266,
      "v": 98
    },
    {
      "midi": 82,
      "hit": false,
      "t": 91127.01649999658,
      "d": 5.296604166665929,
      "v": 1
    },
    {
      "midi": 74,
      "hit": false,
      "t": 91127.01649999658,
      "d": 31.779624999995576,
      "v": 121
    },
    {
      "midi": 52,
      "hit": false,
      "t": 91127.01649999658,
      "d": 95.33887499998673,
      "v": 4
    },
    {
      "midi": 42,
      "hit": false,
      "t": 91132.31310416324,
      "d": 5.296604166665929,
      "v": 45
    },
    {
      "midi": 77,
      "hit": false,
      "t": 91148.20291666324,
      "d": 5.296604166665929,
      "v": 63
    },
    {
      "midi": 59,
      "hit": false,
      "t": 91238.24518749656,
      "d": 95.33887499998673,
      "v": 98
    },
    {
      "midi": 98,
      "hit": false,
      "t": 91248.8383958299,
      "d": 10.593208333331859,
      "v": 104
    },
    {
      "midi": 102,
      "hit": false,
      "t": 91248.8383958299,
      "d": 10.593208333331859,
      "v": 69
    },
    {
      "midi": 105,
      "hit": false,
      "t": 91248.8383958299,
      "d": 10.593208333331859,
      "v": 79
    },
    {
      "midi": 42,
      "hit": false,
      "t": 91254.13499999656,
      "d": 5.296604166665929,
      "v": 102
    },
    {
      "midi": 77,
      "hit": false,
      "t": 91254.13499999656,
      "d": 5.296604166665929,
      "v": 15
    },
    {
      "midi": 82,
      "hit": false,
      "t": 91254.13499999656,
      "d": 5.296604166665929,
      "v": 9
    },
    {
      "midi": 74,
      "hit": false,
      "t": 91254.13499999656,
      "d": 31.779624999995576,
      "v": 104
    },
    {
      "midi": 83,
      "hit": false,
      "t": 91254.13499999656,
      "d": 68.85585416665708,
      "v": 112
    },
    {
      "midi": 95,
      "hit": false,
      "t": 91254.13499999656,
      "d": 68.85585416665708,
      "v": 100
    },
    {
      "midi": 71,
      "hit": false,
      "t": 91254.13499999656,
      "d": 95.33887499998673,
      "v": 127
    },
    {
      "midi": 54,
      "hit": false,
      "t": 91254.13499999656,
      "d": 206.56756249997125,
      "v": 82
    },
    {
      "midi": 30,
      "hit": false,
      "t": 91254.13499999656,
      "d": 238.34718749996682,
      "v": 100
    },
    {
      "midi": 79,
      "hit": false,
      "t": 91254.13499999656,
      "d": 248.94039583329868,
      "v": 91
    },
    {
      "midi": 38,
      "hit": false,
      "t": 91381.25349999654,
      "d": 5.296604166665929,
      "v": 40
    },
    {
      "midi": 82,
      "hit": false,
      "t": 91381.25349999654,
      "d": 5.296604166665929,
      "v": 36
    },
    {
      "midi": 74,
      "hit": false,
      "t": 91381.25349999654,
      "d": 31.779624999995576,
      "v": 69
    },
    {
      "midi": 42,
      "hit": false,
      "t": 91386.55010416321,
      "d": 5.296604166665929,
      "v": 48
    },
    {
      "midi": 77,
      "hit": false,
      "t": 91402.4399166632,
      "d": 5.296604166665929,
      "v": 60
    },
    {
      "midi": 38,
      "hit": false,
      "t": 91423.62633332987,
      "d": 5.296604166665929,
      "v": 40
    },
    {
      "midi": 38,
      "hit": false,
      "t": 91465.9991666632,
      "d": 5.296604166665929,
      "v": 40
    },
    {
      "midi": 80,
      "hit": false,
      "t": 91492.48218749653,
      "d": 47.669437499993364,
      "v": 127
    },
    {
      "midi": 68,
      "hit": false,
      "t": 91497.7787916632,
      "d": 31.779624999995576,
      "v": 127
    },
    {
      "midi": 98,
      "hit": false,
      "t": 91503.07539582986,
      "d": 10.593208333331859,
      "v": 94
    },
    {
      "midi": 100,
      "hit": false,
      "t": 91503.07539582986,
      "d": 10.593208333331859,
      "v": 78
    },
    {
      "midi": 105,
      "hit": false,
      "t": 91503.07539582986,
      "d": 10.593208333331859,
      "v": 88
    },
    {
      "midi": 38,
      "hit": false,
      "t": 91508.37199999653,
      "d": 5.296604166665929,
      "v": 40
    },
    {
      "midi": 46,
      "hit": false,
      "t": 91508.37199999653,
      "d": 5.296604166665929,
      "v": 57
    },
    {
      "midi": 77,
      "hit": false,
      "t": 91508.37199999653,
      "d": 5.296604166665929,
      "v": 65
    },
    {
      "midi": 82,
      "hit": false,
      "t": 91508.37199999653,
      "d": 5.296604166665929,
      "v": 7
    },
    {
      "midi": 74,
      "hit": false,
      "t": 91508.37199999653,
      "d": 31.779624999995576,
      "v": 98
    },
    {
      "midi": 35,
      "hit": false,
      "t": 91508.37199999653,
      "d": 74.15245833332301,
      "v": 120
    },
    {
      "midi": 78,
      "hit": false,
      "t": 91508.37199999653,
      "d": 381.35549999996147,
      "v": 92
    },
    {
      "midi": 93,
      "hit": false,
      "t": 91508.37199999653,
      "d": 503.17739583327784,
      "v": 99
    },
    {
      "midi": 57,
      "hit": false,
      "t": 91518.96520832986,
      "d": 148.30491666664602,
      "v": 124
    },
    {
      "midi": 69,
      "hit": false,
      "t": 91518.96520832986,
      "d": 148.30491666664602,
      "v": 124
    },
    {
      "midi": 45,
      "hit": false,
      "t": 91518.96520832986,
      "d": 206.5675624999858,
      "v": 65
    },
    {
      "midi": 33,
      "hit": false,
      "t": 91518.96520832986,
      "d": 233.05058333331544,
      "v": 80
    },
    {
      "midi": 21,
      "hit": false,
      "t": 91518.96520832986,
      "d": 238.34718749998137,
      "v": 100
    },
    {
      "midi": 81,
      "hit": false,
      "t": 91534.85502082985,
      "d": 354.8724791666318,
      "v": 127
    },
    {
      "midi": 98,
      "hit": false,
      "t": 91630.19389582984,
      "d": 10.593208333331859,
      "v": 70
    },
    {
      "midi": 100,
      "hit": false,
      "t": 91630.19389582984,
      "d": 10.593208333331859,
      "v": 54
    },
    {
      "midi": 105,
      "hit": false,
      "t": 91630.19389582984,
      "d": 10.593208333331859,
      "v": 64
    },
    {
      "midi": 82,
      "hit": false,
      "t": 91635.49049999651,
      "d": 5.296604166665929,
      "v": 1
    },
    {
      "midi": 74,
      "hit": false,
      "t": 91635.49049999651,
      "d": 31.779624999995576,
      "v": 81
    },
    {
      "midi": 42,
      "hit": false,
      "t": 91640.78710416317,
      "d": 5.296604166665929,
      "v": 47
    },
    {
      "midi": 59,
      "hit": false,
      "t": 91640.78710416317,
      "d": 148.30491666666057,
      "v": 124
    },
    {
      "midi": 71,
      "hit": false,
      "t": 91640.78710416317,
      "d": 148.30491666666057,
      "v": 124
    },
    {
      "midi": 77,
      "hit": false,
      "t": 91656.67691666317,
      "d": 5.296604166665929,
      "v": 64
    },
    {
      "midi": 46,
      "hit": false,
      "t": 91762.6089999965,
      "d": 5.296604166665929,
      "v": 76
    },
    {
      "midi": 77,
      "hit": false,
      "t": 91762.6089999965,
      "d": 5.296604166665929,
      "v": 13
    },
    {
      "midi": 82,
      "hit": false,
      "t": 91762.6089999965,
      "d": 5.296604166665929,
      "v": 9
    },
    {
      "midi": 74,
      "hit": false,
      "t": 91762.6089999965,
      "d": 31.779624999995576,
      "v": 104
    },
    {
      "midi": 61,
      "hit": false,
      "t": 91762.6089999965,
      "d": 121.82189583331638,
      "v": 124
    },
    {
      "midi": 73,
      "hit": false,
      "t": 91762.6089999965,
      "d": 121.82189583331638,
      "v": 124
    },
    {
      "midi": 45,
      "hit": false,
      "t": 91773.20220832984,
      "d": 206.56756249997125,
      "v": 65
    },
    {
      "midi": 33,
      "hit": false,
      "t": 91773.20220832984,
      "d": 233.0505833333009,
      "v": 80
    },
    {
      "midi": 21,
      "hit": false,
      "t": 91773.20220832984,
      "d": 238.34718749996682,
      "v": 100
    },
    {
      "midi": 62,
      "hit": false,
      "t": 91857.94787499649,
      "d": 148.30491666664602,
      "v": 124
    },
    {
      "midi": 98,
      "hit": false,
      "t": 91884.43089582982,
      "d": 10.593208333331859,
      "v": 97
    },
    {
      "midi": 100,
      "hit": false,
      "t": 91884.43089582982,
      "d": 10.593208333331859,
      "v": 81
    },
    {
      "midi": 105,
      "hit": false,
      "t": 91884.43089582982,
      "d": 10.593208333331859,
      "v": 91
    },
    {
      "midi": 82,
      "hit": false,
      "t": 91889.72749999649,
      "d": 5.296604166665929,
      "v": 36
    },
    {
      "midi": 74,
      "hit": false,
      "t": 91889.72749999649,
      "d": 31.779624999995576,
      "v": 49
    },
    {
      "midi": 77,
      "hit": false,
      "t": 91910.91391666315,
      "d": 5.296604166665929,
      "v": 59
    },
    {
      "midi": 64,
      "hit": false,
      "t": 91979.76977082981,
      "d": 105.93208333331859,
      "v": 125
    },
    {
      "midi": 76,
      "hit": false,
      "t": 91979.76977082981,
      "d": 105.93208333331859,
      "v": 125
    },
    {
      "midi": 42,
      "hit": false,
      "t": 92011.5493958298,
      "d": 5.296604166665929,
      "v": 77
    },
    {
      "midi": 40,
      "hit": false,
      "t": 92016.84599999647,
      "d": 5.296604166665929,
      "v": 93
    },
    {
      "midi": 77,
      "hit": false,
      "t": 92016.84599999647,
      "d": 5.296604166665929,
      "v": 57
    },
    {
      "midi": 82,
      "hit": false,
      "t": 92016.84599999647,
      "d": 5.296604166665929,
      "v": 7
    },
    {
      "midi": 74,
      "hit": false,
      "t": 92016.84599999647,
      "d": 31.779624999995576,
      "v": 108
    },
    {
      "midi": 71,
      "hit": false,
      "t": 92016.84599999647,
      "d": 280.72002083329426,
      "v": 127
    },
    {
      "midi": 95,
      "hit": false,
      "t": 92016.84599999647,
      "d": 291.3132291666261,
      "v": 96
    },
    {
      "midi": 59,
      "hit": false,
      "t": 92022.14260416313,
      "d": 280.72002083329426,
      "v": 98
    },
    {
      "midi": 35,
      "hit": false,
      "t": 92027.4392083298,
      "d": 63.55924999999115,
      "v": 80
    },
    {
      "midi": 47,
      "hit": false,
      "t": 92027.4392083298,
      "d": 206.56756249997125,
      "v": 65
    },
    {
      "midi": 23,
      "hit": false,
      "t": 92027.4392083298,
      "d": 238.34718749996682,
      "v": 100
    },
    {
      "midi": 83,
      "hit": false,
      "t": 92048.62562499646,
      "d": 264.83020833329647,
      "v": 127
    },
    {
      "midi": 66,
      "hit": false,
      "t": 92053.92222916313,
      "d": 143.0083124999801,
      "v": 125
    },
    {
      "midi": 78,
      "hit": false,
      "t": 92053.92222916313,
      "d": 143.0083124999801,
      "v": 125
    },
    {
      "midi": 82,
      "hit": false,
      "t": 92143.96449999645,
      "d": 5.296604166665929,
      "v": 1
    },
    {
      "midi": 74,
      "hit": false,
      "t": 92143.96449999645,
      "d": 31.779624999995576,
      "v": 98
    },
    {
      "midi": 42,
      "hit": false,
      "t": 92149.26110416312,
      "d": 5.296604166665929,
      "v": 53
    },
    {
      "midi": 77,
      "hit": false,
      "t": 92165.15091666311,
      "d": 5.296604166665929,
      "v": 60
    },
    {
      "midi": 67,
      "hit": false,
      "t": 92170.44752082978,
      "d": 121.82189583331638,
      "v": 125
    },
    {
      "midi": 79,
      "hit": false,
      "t": 92170.44752082978,
      "d": 121.82189583331638,
      "v": 125
    },
    {
      "midi": 69,
      "hit": false,
      "t": 92186.33733332978,
      "d": 153.60152083331195,
      "v": 125
    },
    {
      "midi": 81,
      "hit": false,
      "t": 92186.33733332978,
      "d": 153.60152083331195,
      "v": 125
    },
    {
      "midi": 98,
      "hit": false,
      "t": 92265.78639582977,
      "d": 10.593208333331859,
      "v": 105
    },
    {
      "midi": 102,
      "hit": false,
      "t": 92265.78639582977,
      "d": 10.593208333331859,
      "v": 70
    },
    {
      "midi": 105,
      "hit": false,
      "t": 92265.78639582977,
      "d": 10.593208333331859,
      "v": 80
    },
    {
      "midi": 42,
      "hit": false,
      "t": 92271.08299999643,
      "d": 5.296604166665929,
      "v": 79
    },
    {
      "midi": 77,
      "hit": false,
      "t": 92271.08299999643,
      "d": 5.296604166665929,
      "v": 13
    },
    {
      "midi": 82,
      "hit": false,
      "t": 92271.08299999643,
      "d": 5.296604166665929,
      "v": 9
    },
    {
      "midi": 74,
      "hit": false,
      "t": 92271.08299999643,
      "d": 31.779624999995576,
      "v": 104
    },
    {
      "midi": 83,
      "hit": false,
      "t": 92313.45583332976,
      "d": 79.44906249998894,
      "v": 126
    },
    {
      "midi": 71,
      "hit": false,
      "t": 92313.45583332976,
      "d": 105.93208333331859,
      "v": 126
    },
    {
      "midi": 73,
      "hit": false,
      "t": 92334.64224999642,
      "d": 153.6015208333265,
      "v": 126
    },
    {
      "midi": 85,
      "hit": false,
      "t": 92334.64224999642,
      "d": 153.6015208333265,
      "v": 126
    },
    {
      "midi": 40,
      "hit": false,
      "t": 92398.20149999642,
      "d": 5.296604166665929,
      "v": 93
    },
    {
      "midi": 42,
      "hit": false,
      "t": 92398.20149999642,
      "d": 5.296604166665929,
      "v": 103
    },
    {
      "midi": 82,
      "hit": false,
      "t": 92398.20149999642,
      "d": 5.296604166665929,
      "v": 36
    },
    {
      "midi": 86,
      "hit": false,
      "t": 92398.20149999642,
      "d": 15.889812499997788,
      "v": 126
    },
    {
      "midi": 74,
      "hit": false,
      "t": 92398.20149999642,
      "d": 31.779624999995576,
      "v": 126
    },
    {
      "midi": 69,
      "hit": false,
      "t": 92398.20149999642,
      "d": 105.93208333333314,
      "v": 99
    },
    {
      "midi": 50,
      "hit": false,
      "t": 92398.20149999642,
      "d": 105.93208333333314,
      "v": 88
    },
    {
      "midi": 38,
      "hit": false,
      "t": 92398.20149999642,
      "d": 116.525291666665,
      "v": 89
    },
    {
      "midi": 26,
      "hit": false,
      "t": 92398.20149999642,
      "d": 121.82189583333093,
      "v": 109
    },
    {
      "midi": 78,
      "hit": false,
      "t": 92398.20149999642,
      "d": 127.11849999999686,
      "v": 95
    },
    {
      "midi": 81,
      "hit": false,
      "t": 92398.20149999642,
      "d": 127.11849999999686,
      "v": 95
    },
    {
      "midi": 98,
      "hit": false,
      "t": 92408.79470832975,
      "d": 121.82189583333093,
      "v": 104
    },
    {
      "midi": 77,
      "hit": false,
      "t": 92419.38791666308,
      "d": 5.296604166665929,
      "v": 50
    },
    {
      "midi": 86,
      "hit": false,
      "t": 92429.98112499641,
      "d": 74.15245833333756,
      "v": 127
    },
    {
      "midi": 35,
      "hit": false,
      "t": 92525.31999999641,
      "d": 74.15245833332301,
      "v": 120
    },
    {
      "midi": 40,
      "hit": false,
      "t": 92652.4384999964,
      "d": 5.296604166665929,
      "v": 93
    },
    {
      "midi": 42,
      "hit": false,
      "t": 92652.4384999964,
      "d": 5.296604166665929,
      "v": 88
    },
    {
      "midi": 74,
      "hit": false,
      "t": 92652.4384999964,
      "d": 79.44906249998894,
      "v": 96
    },
    {
      "midi": 66,
      "hit": false,
      "t": 92652.4384999964,
      "d": 84.74566666665487,
      "v": 96
    },
    {
      "midi": 69,
      "hit": false,
      "t": 92652.4384999964,
      "d": 95.33887499998673,
      "v": 99
    },
    {
      "midi": 50,
      "hit": false,
      "t": 92652.4384999964,
      "d": 105.93208333331859,
      "v": 74
    },
    {
      "midi": 38,
      "hit": false,
      "t": 92652.4384999964,
      "d": 116.52529166665045,
      "v": 89
    },
    {
      "midi": 26,
      "hit": false,
      "t": 92652.4384999964,
      "d": 121.82189583331638,
      "v": 109
    },
    {
      "midi": 78,
      "hit": false,
      "t": 92652.4384999964,
      "d": 127.1184999999823,
      "v": 95
    },
    {
      "midi": 81,
      "hit": false,
      "t": 92652.4384999964,
      "d": 127.1184999999823,
      "v": 95
    },
    {
      "midi": 57,
      "hit": false,
      "t": 92652.4384999964,
      "d": 248.94039583331323,
      "v": 105
    },
    {
      "midi": 62,
      "hit": false,
      "t": 92652.4384999964,
      "d": 248.94039583331323,
      "v": 105
    },
    {
      "midi": 86,
      "hit": false,
      "t": 92663.03170832973,
      "d": 74.15245833332301,
      "v": 98
    },
    {
      "midi": 98,
      "hit": false,
      "t": 92663.03170832973,
      "d": 121.82189583331638,
      "v": 91
    },
    {
      "midi": 40,
      "hit": false,
      "t": 92906.67549999637,
      "d": 5.296604166665929,
      "v": 93
    },
    {
      "midi": 42,
      "hit": false,
      "t": 92906.67549999637,
      "d": 5.296604166665929,
      "v": 88
    },
    {
      "midi": 69,
      "hit": false,
      "t": 92906.67549999637,
      "d": 42.372833333327435,
      "v": 97
    },
    {
      "midi": 74,
      "hit": false,
      "t": 92906.67549999637,
      "d": 42.372833333327435,
      "v": 96
    },
    {
      "midi": 86,
      "hit": false,
      "t": 92906.67549999637,
      "d": 47.669437499993364,
      "v": 121
    },
    {
      "midi": 66,
      "hit": false,
      "t": 92906.67549999637,
      "d": 68.85585416665708,
      "v": 96
    },
    {
      "midi": 50,
      "hit": false,
      "t": 92906.67549999637,
      "d": 105.93208333331859,
      "v": 74
    },
    {
      "midi": 38,
      "hit": false,
      "t": 92906.67549999637,
      "d": 116.52529166665045,
      "v": 89
    },
    {
      "midi": 26,
      "hit": false,
      "t": 92906.67549999637,
      "d": 121.82189583331638,
      "v": 109
    },
    {
      "midi": 78,
      "hit": false,
      "t": 92906.67549999637,
      "d": 121.82189583331638,
      "v": 95
    },
    {
      "midi": 81,
      "hit": false,
      "t": 92906.67549999637,
      "d": 121.82189583331638,
      "v": 95
    },
    {
      "midi": 57,
      "hit": false,
      "t": 92906.67549999637,
      "d": 121.82189583331638,
      "v": 105
    },
    {
      "midi": 62,
      "hit": false,
      "t": 92906.67549999637,
      "d": 121.82189583331638,
      "v": 105
    },
    {
      "midi": 98,
      "hit": false,
      "t": 92917.2687083297,
      "d": 111.22868749998452,
      "v": 91
    },
    {
      "midi": 86,
      "hit": false,
      "t": 93028.49739582969,
      "d": 0,
      "v": 127
    },
    {
      "midi": 42,
      "hit": false,
      "t": 93028.49739582969,
      "d": 5.296604166665929,
      "v": 88
    },
    {
      "midi": 40,
      "hit": false,
      "t": 93033.79399999636,
      "d": 5.296604166665929,
      "v": 93
    },
    {
      "midi": 50,
      "hit": false,
      "t": 93033.79399999636,
      "d": 47.669437499993364,
      "v": 83
    },
    {
      "midi": 38,
      "hit": false,
      "t": 93033.79399999636,
      "d": 52.966041666659294,
      "v": 89
    },
    {
      "midi": 26,
      "hit": false,
      "t": 93033.79399999636,
      "d": 58.26264583332522,
      "v": 109
    },
    {
      "midi": 35,
      "hit": false,
      "t": 93033.79399999636,
      "d": 74.15245833332301,
      "v": 120
    },
    {
      "midi": 69,
      "hit": false,
      "t": 93033.79399999636,
      "d": 84.74566666665487,
      "v": 96
    },
    {
      "midi": 66,
      "hit": false,
      "t": 93033.79399999636,
      "d": 100.63547916665266,
      "v": 96
    },
    {
      "midi": 74,
      "hit": false,
      "t": 93033.79399999636,
      "d": 100.63547916665266,
      "v": 96
    },
    {
      "midi": 98,
      "hit": false,
      "t": 93033.79399999636,
      "d": 121.82189583331638,
      "v": 98
    },
    {
      "midi": 57,
      "hit": false,
      "t": 93033.79399999636,
      "d": 121.82189583331638,
      "v": 105
    },
    {
      "midi": 62,
      "hit": false,
      "t": 93033.79399999636,
      "d": 121.82189583331638,
      "v": 105
    },
    {
      "midi": 78,
      "hit": false,
      "t": 93033.79399999636,
      "d": 127.1184999999823,
      "v": 99
    },
    {
      "midi": 81,
      "hit": false,
      "t": 93033.79399999636,
      "d": 127.1184999999823,
      "v": 99
    },
    {
      "midi": 86,
      "hit": false,
      "t": 93039.09060416302,
      "d": 58.26264583332522,
      "v": 98
    },
    {
      "midi": 40,
      "hit": false,
      "t": 93288.03099999632,
      "d": 5.296604166665929,
      "v": 93
    },
    {
      "midi": 42,
      "hit": false,
      "t": 93288.03099999632,
      "d": 5.296604166665929,
      "v": 88
    },
    {
      "midi": 50,
      "hit": false,
      "t": 93288.03099999632,
      "d": 47.669437499993364,
      "v": 74
    },
    {
      "midi": 38,
      "hit": false,
      "t": 93288.03099999632,
      "d": 52.966041666659294,
      "v": 89
    },
    {
      "midi": 26,
      "hit": false,
      "t": 93288.03099999632,
      "d": 58.26264583332522,
      "v": 109
    },
    {
      "midi": 69,
      "hit": false,
      "t": 93288.03099999632,
      "d": 74.15245833332301,
      "v": 97
    },
    {
      "midi": 74,
      "hit": false,
      "t": 93288.03099999632,
      "d": 74.15245833332301,
      "v": 96
    },
    {
      "midi": 66,
      "hit": false,
      "t": 93288.03099999632,
      "d": 90.0422708333208,
      "v": 96
    },
    {
      "midi": 98,
      "hit": false,
      "t": 93288.03099999632,
      "d": 121.82189583331638,
      "v": 91
    },
    {
      "midi": 57,
      "hit": false,
      "t": 93288.03099999632,
      "d": 121.82189583331638,
      "v": 105
    },
    {
      "midi": 62,
      "hit": false,
      "t": 93288.03099999632,
      "d": 121.82189583331638,
      "v": 105
    },
    {
      "midi": 78,
      "hit": false,
      "t": 93288.03099999632,
      "d": 169.49133333330974,
      "v": 95
    },
    {
      "midi": 81,
      "hit": false,
      "t": 93288.03099999632,
      "d": 169.49133333330974,
      "v": 95
    },
    {
      "midi": 86,
      "hit": false,
      "t": 93293.32760416299,
      "d": 79.44906249998894,
      "v": 98
    },
    {
      "midi": 42,
      "hit": false,
      "t": 93536.97139582962,
      "d": 5.296604166665929,
      "v": 88
    },
    {
      "midi": 35,
      "hit": false,
      "t": 93542.26799999629,
      "d": 74.15245833333756,
      "v": 120
    },
    {
      "midi": 38,
      "hit": false,
      "t": 93542.26799999629,
      "d": 116.525291666665,
      "v": 89
    },
    {
      "midi": 26,
      "hit": false,
      "t": 93542.26799999629,
      "d": 121.82189583333093,
      "v": 109
    },
    {
      "midi": 98,
      "hit": false,
      "t": 93542.26799999629,
      "d": 121.82189583333093,
      "v": 101
    },
    {
      "midi": 66,
      "hit": false,
      "t": 93542.26799999629,
      "d": 127.11849999999686,
      "v": 96
    },
    {
      "midi": 74,
      "hit": false,
      "t": 93542.26799999629,
      "d": 127.11849999999686,
      "v": 96
    },
    {
      "midi": 69,
      "hit": false,
      "t": 93542.26799999629,
      "d": 137.71170833332872,
      "v": 107
    },
    {
      "midi": 50,
      "hit": false,
      "t": 93542.26799999629,
      "d": 217.16077083331766,
      "v": 92
    },
    {
      "midi": 57,
      "hit": false,
      "t": 93542.26799999629,
      "d": 248.94039583331323,
      "v": 105
    },
    {
      "midi": 64,
      "hit": false,
      "t": 93542.26799999629,
      "d": 248.94039583331323,
      "v": 100
    },
    {
      "midi": 78,
      "hit": false,
      "t": 93542.26799999629,
      "d": 254.23699999997916,
      "v": 104
    },
    {
      "midi": 81,
      "hit": false,
      "t": 93542.26799999629,
      "d": 254.23699999997916,
      "v": 104
    },
    {
      "midi": 86,
      "hit": false,
      "t": 93547.56460416295,
      "d": 121.82189583333093,
      "v": 98
    },
    {
      "midi": 40,
      "hit": false,
      "t": 93923.62349999626,
      "d": 5.296604166665929,
      "v": 93
    },
    {
      "midi": 40,
      "hit": false,
      "t": 94050.74199999626,
      "d": 5.296604166665929,
      "v": 93
    },
    {
      "midi": 40,
      "hit": false,
      "t": 94432.09749999626,
      "d": 5.296604166665929,
      "v": 93
    },
    {
      "midi": 42,
      "hit": false,
      "t": 94553.9193958296,
      "d": 5.296604166665929,
      "v": 52
    },
    {
      "midi": 57,
      "hit": false,
      "t": 94559.21599999626,
      "d": 5.296604166665929,
      "v": 75
    },
    {
      "midi": 81,
      "hit": false,
      "t": 94559.21599999626,
      "d": 63.55924999999115,
      "v": 115
    },
    {
      "midi": 69,
      "hit": false,
      "t": 94559.21599999626,
      "d": 63.55924999999115,
      "v": 97
    },
    {
      "midi": 35,
      "hit": false,
      "t": 94559.21599999626,
      "d": 74.15245833332301,
      "v": 120
    },
    {
      "midi": 21,
      "hit": false,
      "t": 94559.21599999626,
      "d": 206.56756250000035,
      "v": 100
    },
    {
      "midi": 33,
      "hit": false,
      "t": 94559.21599999626,
      "d": 206.56756250000035,
      "v": 100
    },
    {
      "midi": 64,
      "hit": false,
      "t": 94569.80920832959,
      "d": 5.296604166665929,
      "v": 79
    },
    {
      "midi": 64,
      "hit": false,
      "t": 94686.33449999626,
      "d": 5.296604166665929,
      "v": 80
    },
    {
      "midi": 81,
      "hit": false,
      "t": 94686.33449999626,
      "d": 116.525291666665,
      "v": 115
    },
    {
      "midi": 69,
      "hit": false,
      "t": 94686.33449999626,
      "d": 116.525291666665,
      "v": 97
    },
    {
      "midi": 42,
      "hit": false,
      "t": 94691.63110416292,
      "d": 5.296604166665929,
      "v": 44
    },
    {
      "midi": 57,
      "hit": false,
      "t": 94696.92770832959,
      "d": 5.296604166665929,
      "v": 75
    },
    {
      "midi": 42,
      "hit": false,
      "t": 94813.45299999625,
      "d": 5.296604166665929,
      "v": 101
    },
    {
      "midi": 57,
      "hit": false,
      "t": 94813.45299999625,
      "d": 21.186416666663717,
      "v": 87
    },
    {
      "midi": 93,
      "hit": false,
      "t": 94813.45299999625,
      "d": 111.22868749999907,
      "v": 115
    },
    {
      "midi": 81,
      "hit": false,
      "t": 94813.45299999625,
      "d": 111.22868749999907,
      "v": 97
    },
    {
      "midi": 64,
      "hit": false,
      "t": 94824.04620832959,
      "d": 5.296604166665929,
      "v": 98
    },
    {
      "midi": 64,
      "hit": false,
      "t": 94940.57149999625,
      "d": 5.296604166665929,
      "v": 62
    },
    {
      "midi": 21,
      "hit": false,
      "t": 94940.57149999625,
      "d": 68.85585416665708,
      "v": 100
    },
    {
      "midi": 33,
      "hit": false,
      "t": 94940.57149999625,
      "d": 68.85585416665708,
      "v": 100
    },
    {
      "midi": 81,
      "hit": false,
      "t": 94940.57149999625,
      "d": 116.52529166665045,
      "v": 115
    },
    {
      "midi": 69,
      "hit": false,
      "t": 94940.57149999625,
      "d": 116.52529166665045,
      "v": 97
    },
    {
      "midi": 42,
      "hit": false,
      "t": 94945.86810416292,
      "d": 5.296604166665929,
      "v": 47
    },
    {
      "midi": 57,
      "hit": false,
      "t": 94951.16470832958,
      "d": 37.076229166661506,
      "v": 83
    },
    {
      "midi": 42,
      "hit": false,
      "t": 95062.39339582957,
      "d": 5.296604166665929,
      "v": 52
    },
    {
      "midi": 40,
      "hit": false,
      "t": 95067.68999999623,
      "d": 5.296604166665929,
      "v": 93
    },
    {
      "midi": 57,
      "hit": false,
      "t": 95067.68999999623,
      "d": 5.296604166665929,
      "v": 75
    },
    {
      "midi": 64,
      "hit": false,
      "t": 95067.68999999623,
      "d": 37.076229166661506,
      "v": 86
    },
    {
      "midi": 35,
      "hit": false,
      "t": 95067.68999999623,
      "d": 74.15245833332301,
      "v": 120
    },
    {
      "midi": 92,
      "hit": false,
      "t": 95067.68999999623,
      "d": 111.22868749998452,
      "v": 115
    },
    {
      "midi": 80,
      "hit": false,
      "t": 95067.68999999623,
      "d": 111.22868749998452,
      "v": 97
    },
    {
      "midi": 21,
      "hit": false,
      "t": 95067.68999999623,
      "d": 270.12681249997695,
      "v": 100
    },
    {
      "midi": 33,
      "hit": false,
      "t": 95067.68999999623,
      "d": 270.12681249997695,
      "v": 100
    },
    {
      "midi": 64,
      "hit": false,
      "t": 95194.80849999622,
      "d": 37.076229166661506,
      "v": 82
    },
    {
      "midi": 81,
      "hit": false,
      "t": 95194.80849999622,
      "d": 100.63547916666721,
      "v": 115
    },
    {
      "midi": 69,
      "hit": false,
      "t": 95194.80849999622,
      "d": 100.63547916666721,
      "v": 97
    },
    {
      "midi": 42,
      "hit": false,
      "t": 95200.10510416288,
      "d": 5.296604166665929,
      "v": 44
    },
    {
      "midi": 57,
      "hit": false,
      "t": 95205.40170832955,
      "d": 5.296604166665929,
      "v": 75
    },
    {
      "midi": 42,
      "hit": false,
      "t": 95321.92699999621,
      "d": 5.296604166665929,
      "v": 101
    },
    {
      "midi": 57,
      "hit": false,
      "t": 95321.92699999621,
      "d": 5.296604166665929,
      "v": 75
    },
    {
      "midi": 91,
      "hit": false,
      "t": 95321.92699999621,
      "d": 116.525291666665,
      "v": 115
    },
    {
      "midi": 79,
      "hit": false,
      "t": 95321.92699999621,
      "d": 116.525291666665,
      "v": 97
    },
    {
      "midi": 26,
      "hit": false,
      "t": 95321.92699999621,
      "d": 143.00831249999464,
      "v": 100
    },
    {
      "midi": 38,
      "hit": false,
      "t": 95321.92699999621,
      "d": 143.00831249999464,
      "v": 100
    },
    {
      "midi": 64,
      "hit": false,
      "t": 95332.52020832954,
      "d": 5.296604166665929,
      "v": 79
    },
    {
      "midi": 28,
      "hit": false,
      "t": 95449.04549999621,
      "d": 90.04227083333535,
      "v": 100
    },
    {
      "midi": 40,
      "hit": false,
      "t": 95449.04549999621,
      "d": 90.04227083333535,
      "v": 100
    },
    {
      "midi": 81,
      "hit": false,
      "t": 95449.04549999621,
      "d": 127.11849999999686,
      "v": 115
    },
    {
      "midi": 69,
      "hit": false,
      "t": 95449.04549999621,
      "d": 127.11849999999686,
      "v": 97
    },
    {
      "midi": 42,
      "hit": false,
      "t": 95454.34210416288,
      "d": 5.296604166665929,
      "v": 47
    },
    {
      "midi": 64,
      "hit": false,
      "t": 95470.23191666287,
      "d": 5.296604166665929,
      "v": 80
    },
    {
      "midi": 57,
      "hit": false,
      "t": 95480.8251249962,
      "d": 5.296604166665929,
      "v": 75
    },
    {
      "midi": 28,
      "hit": false,
      "t": 95560.27418749621,
      "d": 148.30491666664602,
      "v": 100
    },
    {
      "midi": 40,
      "hit": false,
      "t": 95560.27418749621,
      "d": 148.30491666664602,
      "v": 100
    },
    {
      "midi": 42,
      "hit": false,
      "t": 95570.86739582954,
      "d": 5.296604166665929,
      "v": 67
    },
    {
      "midi": 64,
      "hit": false,
      "t": 95576.1639999962,
      "d": 42.372833333327435,
      "v": 84
    },
    {
      "midi": 35,
      "hit": false,
      "t": 95576.1639999962,
      "d": 74.15245833332301,
      "v": 120
    },
    {
      "midi": 90,
      "hit": false,
      "t": 95576.1639999962,
      "d": 111.22868749998452,
      "v": 115
    },
    {
      "midi": 78,
      "hit": false,
      "t": 95576.1639999962,
      "d": 111.22868749998452,
      "v": 97
    },
    {
      "midi": 57,
      "hit": false,
      "t": 95586.75720832954,
      "d": 37.076229166661506,
      "v": 92
    },
    {
      "midi": 31,
      "hit": false,
      "t": 95687.39268749619,
      "d": 148.30491666666057,
      "v": 100
    },
    {
      "midi": 43,
      "hit": false,
      "t": 95687.39268749619,
      "d": 148.30491666666057,
      "v": 100
    },
    {
      "midi": 81,
      "hit": false,
      "t": 95703.28249999619,
      "d": 127.11849999999686,
      "v": 115
    },
    {
      "midi": 69,
      "hit": false,
      "t": 95703.28249999619,
      "d": 127.11849999999686,
      "v": 97
    },
    {
      "midi": 42,
      "hit": false,
      "t": 95708.57910416285,
      "d": 5.296604166665929,
      "v": 46
    },
    {
      "midi": 64,
      "hit": false,
      "t": 95713.87570832952,
      "d": 21.186416666663717,
      "v": 99
    },
    {
      "midi": 57,
      "hit": false,
      "t": 95724.46891666285,
      "d": 15.889812499997788,
      "v": 87
    },
    {
      "midi": 28,
      "hit": false,
      "t": 95814.51118749619,
      "d": 121.82189583331638,
      "v": 100
    },
    {
      "midi": 40,
      "hit": false,
      "t": 95814.51118749619,
      "d": 121.82189583331638,
      "v": 100
    },
    {
      "midi": 42,
      "hit": false,
      "t": 95830.40099999619,
      "d": 5.296604166665929,
      "v": 86
    },
    {
      "midi": 64,
      "hit": false,
      "t": 95830.40099999619,
      "d": 42.372833333327435,
      "v": 84
    },
    {
      "midi": 57,
      "hit": false,
      "t": 95830.40099999619,
      "d": 47.669437499993364,
      "v": 90
    },
    {
      "midi": 89,
      "hit": false,
      "t": 95830.40099999619,
      "d": 90.0422708333208,
      "v": 115
    },
    {
      "midi": 77,
      "hit": false,
      "t": 95830.40099999619,
      "d": 90.0422708333208,
      "v": 97
    },
    {
      "midi": 81,
      "hit": false,
      "t": 95957.51949999617,
      "d": 105.93208333333314,
      "v": 115
    },
    {
      "midi": 69,
      "hit": false,
      "t": 95957.51949999617,
      "d": 105.93208333333314,
      "v": 97
    },
    {
      "midi": 42,
      "hit": false,
      "t": 95962.81610416283,
      "d": 5.296604166665929,
      "v": 47
    },
    {
      "midi": 64,
      "hit": false,
      "t": 95968.1127083295,
      "d": 5.296604166665929,
      "v": 94
    },
    {
      "midi": 57,
      "hit": false,
      "t": 95978.70591666283,
      "d": 5.296604166665929,
      "v": 35
    },
    {
      "midi": 42,
      "hit": false,
      "t": 96079.3413958295,
      "d": 5.296604166665929,
      "v": 76
    },
    {
      "midi": 40,
      "hit": false,
      "t": 96084.63799999616,
      "d": 5.296604166665929,
      "v": 93
    },
    {
      "midi": 57,
      "hit": false,
      "t": 96084.63799999616,
      "d": 5.296604166665929,
      "v": 75
    },
    {
      "midi": 35,
      "hit": false,
      "t": 96084.63799999616,
      "d": 74.15245833333756,
      "v": 120
    },
    {
      "midi": 88,
      "hit": false,
      "t": 96084.63799999616,
      "d": 100.63547916666721,
      "v": 115
    },
    {
      "midi": 76,
      "hit": false,
      "t": 96084.63799999616,
      "d": 100.63547916666721,
      "v": 97
    },
    {
      "midi": 31,
      "hit": false,
      "t": 96084.63799999616,
      "d": 248.94039583332778,
      "v": 100
    },
    {
      "midi": 43,
      "hit": false,
      "t": 96084.63799999616,
      "d": 248.94039583332778,
      "v": 100
    },
    {
      "midi": 64,
      "hit": false,
      "t": 96095.2312083295,
      "d": 5.296604166665929,
      "v": 79
    },
    {
      "midi": 76,
      "hit": false,
      "t": 96211.75649999616,
      "d": 10.593208333331859,
      "v": 63
    },
    {
      "midi": 81,
      "hit": false,
      "t": 96211.75649999616,
      "d": 111.22868749999907,
      "v": 115
    },
    {
      "midi": 69,
      "hit": false,
      "t": 96211.75649999616,
      "d": 111.22868749999907,
      "v": 97
    },
    {
      "midi": 42,
      "hit": false,
      "t": 96217.05310416283,
      "d": 5.296604166665929,
      "v": 52
    },
    {
      "midi": 64,
      "hit": false,
      "t": 96222.3497083295,
      "d": 5.296604166665929,
      "v": 75
    },
    {
      "midi": 46,
      "hit": false,
      "t": 96338.87499999616,
      "d": 5.296604166665929,
      "v": 78
    },
    {
      "midi": 57,
      "hit": false,
      "t": 96338.87499999616,
      "d": 21.186416666663717,
      "v": 87
    },
    {
      "midi": 87,
      "hit": false,
      "t": 96338.87499999616,
      "d": 90.04227083333535,
      "v": 115
    },
    {
      "midi": 75,
      "hit": false,
      "t": 96338.87499999616,
      "d": 90.04227083333535,
      "v": 97
    },
    {
      "midi": 31,
      "hit": false,
      "t": 96338.87499999616,
      "d": 169.4913333333243,
      "v": 100
    },
    {
      "midi": 43,
      "hit": false,
      "t": 96338.87499999616,
      "d": 169.4913333333243,
      "v": 100
    },
    {
      "midi": 64,
      "hit": false,
      "t": 96349.46820832949,
      "d": 5.296604166665929,
      "v": 98
    },
    {
      "midi": 64,
      "hit": false,
      "t": 96465.99349999616,
      "d": 5.296604166665929,
      "v": 62
    },
    {
      "midi": 81,
      "hit": false,
      "t": 96465.99349999616,
      "d": 111.22868749999907,
      "v": 115
    },
    {
      "midi": 69,
      "hit": false,
      "t": 96465.99349999616,
      "d": 111.22868749999907,
      "v": 97
    },
    {
      "midi": 33,
      "hit": false,
      "t": 96465.99349999616,
      "d": 121.82189583333093,
      "v": 100
    },
    {
      "midi": 45,
      "hit": false,
      "t": 96465.99349999616,
      "d": 121.82189583333093,
      "v": 100
    },
    {
      "midi": 44,
      "hit": false,
      "t": 96471.29010416282,
      "d": 5.296604166665929,
      "v": 78
    },
    {
      "midi": 57,
      "hit": false,
      "t": 96476.58670832949,
      "d": 37.076229166661506,
      "v": 83
    },
    {
      "midi": 42,
      "hit": false,
      "t": 96587.81539582949,
      "d": 5.296604166665929,
      "v": 52
    },
    {
      "midi": 57,
      "hit": false,
      "t": 96593.11199999615,
      "d": 5.296604166665929,
      "v": 75
    },
    {
      "midi": 35,
      "hit": false,
      "t": 96593.11199999615,
      "d": 74.15245833333756,
      "v": 120
    },
    {
      "midi": 86,
      "hit": false,
      "t": 96593.11199999615,
      "d": 105.93208333333314,
      "v": 115
    },
    {
      "midi": 74,
      "hit": false,
      "t": 96593.11199999615,
      "d": 105.93208333333314,
      "v": 97
    },
    {
      "midi": 21,
      "hit": false,
      "t": 96593.11199999615,
      "d": 185.38114583332208,
      "v": 100
    },
    {
      "midi": 33,
      "hit": false,
      "t": 96593.11199999615,
      "d": 185.38114583332208,
      "v": 100
    },
    {
      "midi": 64,
      "hit": false,
      "t": 96603.70520832948,
      "d": 5.296604166665929,
      "v": 79
    },
    {
      "midi": 64,
      "hit": false,
      "t": 96720.23049999615,
      "d": 5.296604166665929,
      "v": 80
    },
    {
      "midi": 81,
      "hit": false,
      "t": 96720.23049999615,
      "d": 84.74566666665487,
      "v": 115
    },
    {
      "midi": 69,
      "hit": false,
      "t": 96720.23049999615,
      "d": 84.74566666665487,
      "v": 97
    },
    {
      "midi": 42,
      "hit": false,
      "t": 96725.52710416281,
      "d": 5.296604166665929,
      "v": 44
    },
    {
      "midi": 57,
      "hit": false,
      "t": 96730.82370832948,
      "d": 5.296604166665929,
      "v": 75
    },
    {
      "midi": 42,
      "hit": false,
      "t": 96847.34899999613,
      "d": 5.296604166665929,
      "v": 101
    },
    {
      "midi": 57,
      "hit": false,
      "t": 96847.34899999613,
      "d": 21.186416666663717,
      "v": 87
    },
    {
      "midi": 85,
      "hit": false,
      "t": 96847.34899999613,
      "d": 100.63547916666721,
      "v": 115
    },
    {
      "midi": 73,
      "hit": false,
      "t": 96847.34899999613,
      "d": 100.63547916666721,
      "v": 97
    },
    {
      "midi": 64,
      "hit": false,
      "t": 96857.94220832946,
      "d": 5.296604166665929,
      "v": 98
    },
    {
      "midi": 64,
      "hit": false,
      "t": 96974.46749999613,
      "d": 5.296604166665929,
      "v": 62
    },
    {
      "midi": 21,
      "hit": false,
      "t": 96974.46749999613,
      "d": 58.26264583332522,
      "v": 100
    },
    {
      "midi": 33,
      "hit": false,
      "t": 96974.46749999613,
      "d": 58.26264583332522,
      "v": 100
    },
    {
      "midi": 81,
      "hit": false,
      "t": 96974.46749999613,
      "d": 95.33887499998673,
      "v": 115
    },
    {
      "midi": 69,
      "hit": false,
      "t": 96974.46749999613,
      "d": 95.33887499998673,
      "v": 97
    },
    {
      "midi": 42,
      "hit": false,
      "t": 96979.7641041628,
      "d": 5.296604166665929,
      "v": 47
    },
    {
      "midi": 57,
      "hit": false,
      "t": 96985.06070832946,
      "d": 37.076229166661506,
      "v": 83
    },
    {
      "midi": 42,
      "hit": false,
      "t": 97096.28939582944,
      "d": 5.296604166665929,
      "v": 52
    },
    {
      "midi": 40,
      "hit": false,
      "t": 97101.58599999611,
      "d": 5.296604166665929,
      "v": 93
    },
    {
      "midi": 57,
      "hit": false,
      "t": 97101.58599999611,
      "d": 5.296604166665929,
      "v": 75
    },
    {
      "midi": 64,
      "hit": false,
      "t": 97101.58599999611,
      "d": 37.076229166661506,
      "v": 86
    },
    {
      "midi": 35,
      "hit": false,
      "t": 97101.58599999611,
      "d": 74.15245833332301,
      "v": 120
    },
    {
      "midi": 84,
      "hit": false,
      "t": 97101.58599999611,
      "d": 111.22868749998452,
      "v": 115
    },
    {
      "midi": 72,
      "hit": false,
      "t": 97101.58599999611,
      "d": 111.22868749998452,
      "v": 97
    },
    {
      "midi": 21,
      "hit": false,
      "t": 97101.58599999611,
      "d": 270.1268124999624,
      "v": 100
    },
    {
      "midi": 33,
      "hit": false,
      "t": 97101.58599999611,
      "d": 270.1268124999624,
      "v": 100
    },
    {
      "midi": 76,
      "hit": false,
      "t": 97228.70449999609,
      "d": 42.372833333327435,
      "v": 102
    },
    {
      "midi": 81,
      "hit": false,
      "t": 97228.70449999609,
      "d": 90.0422708333208,
      "v": 115
    },
    {
      "midi": 69,
      "hit": false,
      "t": 97228.70449999609,
      "d": 90.0422708333208,
      "v": 97
    },
    {
      "midi": 42,
      "hit": false,
      "t": 97234.00110416276,
      "d": 5.296604166665929,
      "v": 44
    },
    {
      "midi": 64,
      "hit": false,
      "t": 97239.29770832942,
      "d": 5.296604166665929,
      "v": 75
    },
    {
      "midi": 42,
      "hit": false,
      "t": 97355.82299999607,
      "d": 5.296604166665929,
      "v": 101
    },
    {
      "midi": 57,
      "hit": false,
      "t": 97355.82299999607,
      "d": 5.296604166665929,
      "v": 75
    },
    {
      "midi": 83,
      "hit": false,
      "t": 97355.82299999607,
      "d": 121.82189583333093,
      "v": 115
    },
    {
      "midi": 26,
      "hit": false,
      "t": 97355.82299999607,
      "d": 121.82189583333093,
      "v": 100
    },
    {
      "midi": 38,
      "hit": false,
      "t": 97355.82299999607,
      "d": 121.82189583333093,
      "v": 100
    },
    {
      "midi": 71,
      "hit": false,
      "t": 97355.82299999607,
      "d": 121.82189583333093,
      "v": 97
    },
    {
      "midi": 64,
      "hit": false,
      "t": 97366.4162083294,
      "d": 5.296604166665929,
      "v": 79
    },
    {
      "midi": 81,
      "hit": false,
      "t": 97482.94149999607,
      "d": 84.74566666665487,
      "v": 115
    },
    {
      "midi": 69,
      "hit": false,
      "t": 97482.94149999607,
      "d": 84.74566666665487,
      "v": 97
    },
    {
      "midi": 28,
      "hit": false,
      "t": 97482.94149999607,
      "d": 90.0422708333208,
      "v": 100
    },
    {
      "midi": 40,
      "hit": false,
      "t": 97482.94149999607,
      "d": 90.0422708333208,
      "v": 100
    },
    {
      "midi": 42,
      "hit": false,
      "t": 97488.23810416274,
      "d": 5.296604166665929,
      "v": 47
    },
    {
      "midi": 64,
      "hit": false,
      "t": 97504.12791666274,
      "d": 5.296604166665929,
      "v": 80
    },
    {
      "midi": 57,
      "hit": false,
      "t": 97514.72112499607,
      "d": 5.296604166665929,
      "v": 75
    },
    {
      "midi": 31,
      "hit": false,
      "t": 97594.17018749606,
      "d": 121.82189583333093,
      "v": 100
    },
    {
      "midi": 40,
      "hit": false,
      "t": 97594.17018749606,
      "d": 121.82189583333093,
      "v": 100
    },
    {
      "midi": 42,
      "hit": false,
      "t": 97604.76339582939,
      "d": 5.296604166665929,
      "v": 67
    },
    {
      "midi": 57,
      "hit": false,
      "t": 97610.05999999605,
      "d": 5.296604166665929,
      "v": 97
    },
    {
      "midi": 64,
      "hit": false,
      "t": 97610.05999999605,
      "d": 5.296604166665929,
      "v": 86
    },
    {
      "midi": 35,
      "hit": false,
      "t": 97610.05999999605,
      "d": 74.15245833333756,
      "v": 120
    },
    {
      "midi": 54,
      "hit": false,
      "t": 97610.05999999605,
      "d": 630.2958958333038,
      "v": 127
    },
    {
      "midi": 69,
      "hit": false,
      "t": 97620.65320832939,
      "d": 74.15245833333756,
      "v": 127
    },
    {
      "midi": 31,
      "hit": false,
      "t": 97721.28868749605,
      "d": 137.71170833331416,
      "v": 100
    },
    {
      "midi": 43,
      "hit": false,
      "t": 97721.28868749605,
      "d": 137.71170833331416,
      "v": 100
    },
    {
      "midi": 40,
      "hit": false,
      "t": 97737.17849999605,
      "d": 5.296604166665929,
      "v": 93
    },
    {
      "midi": 74,
      "hit": false,
      "t": 97737.17849999605,
      "d": 84.74566666665487,
      "v": 115
    },
    {
      "midi": 62,
      "hit": false,
      "t": 97737.17849999605,
      "d": 84.74566666665487,
      "v": 97
    },
    {
      "midi": 42,
      "hit": false,
      "t": 97742.47510416272,
      "d": 5.296604166665929,
      "v": 46
    },
    {
      "midi": 64,
      "hit": false,
      "t": 97747.77170832938,
      "d": 47.669437499993364,
      "v": 82
    },
    {
      "midi": 57,
      "hit": false,
      "t": 97758.36491666271,
      "d": 42.372833333327435,
      "v": 86
    },
    {
      "midi": 42,
      "hit": false,
      "t": 97864.29699999603,
      "d": 5.296604166665929,
      "v": 86
    },
    {
      "midi": 64,
      "hit": false,
      "t": 97864.29699999603,
      "d": 68.85585416667163,
      "v": 97
    },
    {
      "midi": 57,
      "hit": false,
      "t": 97864.29699999603,
      "d": 74.15245833333756,
      "v": 89
    },
    {
      "midi": 76,
      "hit": false,
      "t": 97864.29699999603,
      "d": 84.74566666666942,
      "v": 115
    },
    {
      "midi": 40,
      "hit": false,
      "t": 97864.29699999603,
      "d": 90.04227083333535,
      "v": 100
    },
    {
      "midi": 81,
      "hit": false,
      "t": 97991.41549999603,
      "d": 84.74566666666942,
      "v": 115
    },
    {
      "midi": 69,
      "hit": false,
      "t": 97991.41549999603,
      "d": 84.74566666666942,
      "v": 97
    },
    {
      "midi": 42,
      "hit": false,
      "t": 97996.7121041627,
      "d": 5.296604166665929,
      "v": 47
    },
    {
      "midi": 42,
      "hit": false,
      "t": 98113.23739582936,
      "d": 5.296604166665929,
      "v": 76
    },
    {
      "midi": 40,
      "hit": false,
      "t": 98118.53399999603,
      "d": 5.296604166665929,
      "v": 93
    },
    {
      "midi": 35,
      "hit": false,
      "t": 98118.53399999603,
      "d": 74.15245833333756,
      "v": 120
    },
    {
      "midi": 86,
      "hit": false,
      "t": 98118.53399999603,
      "d": 84.74566666666942,
      "v": 115
    },
    {
      "midi": 74,
      "hit": false,
      "t": 98118.53399999603,
      "d": 84.74566666666942,
      "v": 97
    },
    {
      "midi": 31,
      "hit": false,
      "t": 98118.53399999603,
      "d": 121.82189583333093,
      "v": 100
    },
    {
      "midi": 40,
      "hit": false,
      "t": 98245.65249999602,
      "d": 5.296604166665929,
      "v": 93
    },
    {
      "midi": 31,
      "hit": false,
      "t": 98245.65249999602,
      "d": 21.186416666663717,
      "v": 100
    },
    {
      "midi": 88,
      "hit": false,
      "t": 98245.65249999602,
      "d": 121.82189583333093,
      "v": 127
    },
    {
      "midi": 43,
      "hit": false,
      "t": 98245.65249999602,
      "d": 121.82189583333093,
      "v": 100
    },
    {
      "midi": 76,
      "hit": false,
      "t": 98245.65249999602,
      "d": 121.82189583333093,
      "v": 109
    },
    {
      "midi": 42,
      "hit": false,
      "t": 98250.94910416269,
      "d": 5.296604166665929,
      "v": 52
    },
    {
      "midi": 42,
      "hit": false,
      "t": 98621.71139582935,
      "d": 5.296604166665929,
      "v": 52
    },
    {
      "midi": 57,
      "hit": false,
      "t": 98627.00799999601,
      "d": 5.296604166665929,
      "v": 127
    },
    {
      "midi": 52,
      "hit": false,
      "t": 98627.00799999601,
      "d": 5.296604166665929,
      "v": 81
    },
    {
      "midi": 35,
      "hit": false,
      "t": 98627.00799999601,
      "d": 74.15245833333756,
      "v": 120
    },
    {
      "midi": 28,
      "hit": false,
      "t": 98627.00799999601,
      "d": 90.04227083333535,
      "v": 77
    },
    {
      "midi": 40,
      "hit": false,
      "t": 98627.00799999601,
      "d": 190.677749999988,
      "v": 100
    },
    {
      "midi": 67,
      "hit": false,
      "t": 98627.00799999601,
      "d": 243.64379166666185,
      "v": 127
    },
    {
      "midi": 59,
      "hit": false,
      "t": 98637.60120832935,
      "d": 5.296604166665929,
      "v": 85
    },
    {
      "midi": 66,
      "hit": false,
      "t": 98754.12649999601,
      "d": 1896.184291666592,
      "v": 88
    },
    {
      "midi": 42,
      "hit": false,
      "t": 98759.42310416268,
      "d": 5.296604166665929,
      "v": 44
    },
    {
      "midi": 59,
      "hit": false,
      "t": 98764.71970832934,
      "d": 5.296604166665929,
      "v": 86
    },
    {
      "midi": 52,
      "hit": false,
      "t": 98775.31291666267,
      "d": 5.296604166665929,
      "v": 81
    },
    {
      "midi": 98,
      "hit": false,
      "t": 98875.94839582934,
      "d": 10.593208333331859,
      "v": 65
    },
    {
      "midi": 103,
      "hit": false,
      "t": 98875.94839582934,
      "d": 10.593208333331859,
      "v": 76
    },
    {
      "midi": 42,
      "hit": false,
      "t": 98881.24499999601,
      "d": 5.296604166665929,
      "v": 101
    },
    {
      "midi": 52,
      "hit": false,
      "t": 98881.24499999601,
      "d": 68.85585416667163,
      "v": 64
    },
    {
      "midi": 55,
      "hit": false,
      "t": 98881.24499999601,
      "d": 68.85585416667163,
      "v": 83
    },
    {
      "midi": 59,
      "hit": false,
      "t": 98881.24499999601,
      "d": 111.22868749999907,
      "v": 93
    },
    {
      "midi": 67,
      "hit": false,
      "t": 98881.24499999601,
      "d": 1769.065791666595,
      "v": 92
    },
    {
      "midi": 64,
      "hit": false,
      "t": 98891.83820832934,
      "d": 90.04227083333535,
      "v": 104
    },
    {
      "midi": 28,
      "hit": false,
      "t": 99008.363499996,
      "d": 47.669437499993364,
      "v": 100
    },
    {
      "midi": 40,
      "hit": false,
      "t": 99008.363499996,
      "d": 47.669437499993364,
      "v": 63
    },
    {
      "midi": 42,
      "hit": false,
      "t": 99013.66010416267,
      "d": 5.296604166665929,
      "v": 47
    },
    {
      "midi": 59,
      "hit": false,
      "t": 99018.95670832934,
      "d": 47.669437499993364,
      "v": 94
    },
    {
      "midi": 52,
      "hit": false,
      "t": 99029.54991666267,
      "d": 37.076229166661506,
      "v": 89
    },
    {
      "midi": 28,
      "hit": false,
      "t": 99119.59218749599,
      "d": 137.71170833332872,
      "v": 100
    },
    {
      "midi": 42,
      "hit": false,
      "t": 99130.18539582932,
      "d": 5.296604166665929,
      "v": 52
    },
    {
      "midi": 40,
      "hit": false,
      "t": 99135.48199999599,
      "d": 5.296604166665929,
      "v": 93
    },
    {
      "midi": 59,
      "hit": false,
      "t": 99135.48199999599,
      "d": 5.296604166665929,
      "v": 82
    },
    {
      "midi": 35,
      "hit": false,
      "t": 99135.48199999599,
      "d": 74.15245833333756,
      "v": 120
    },
    {
      "midi": 43,
      "hit": false,
      "t": 99135.48199999599,
      "d": 201.27095833333442,
      "v": 75
    },
    {
      "midi": 74,
      "hit": false,
      "t": 99135.48199999599,
      "d": 503.17739583330695,
      "v": 106
    },
    {
      "midi": 42,
      "hit": false,
      "t": 99267.89710416265,
      "d": 5.296604166665929,
      "v": 44
    },
    {
      "midi": 59,
      "hit": false,
      "t": 99273.19370832932,
      "d": 5.296604166665929,
      "v": 78
    },
    {
      "midi": 26,
      "hit": false,
      "t": 99368.53258332932,
      "d": 121.82189583333093,
      "v": 100
    },
    {
      "midi": 38,
      "hit": false,
      "t": 99368.53258332932,
      "d": 121.82189583333093,
      "v": 100
    },
    {
      "midi": 93,
      "hit": false,
      "t": 99384.42239582932,
      "d": 10.593208333331859,
      "v": 56
    },
    {
      "midi": 98,
      "hit": false,
      "t": 99384.42239582932,
      "d": 10.593208333331859,
      "v": 67
    },
    {
      "midi": 42,
      "hit": false,
      "t": 99389.71899999598,
      "d": 5.296604166665929,
      "v": 101
    },
    {
      "midi": 50,
      "hit": false,
      "t": 99389.71899999598,
      "d": 5.296604166665929,
      "v": 81
    },
    {
      "midi": 57,
      "hit": false,
      "t": 99400.31220832931,
      "d": 5.296604166665929,
      "v": 85
    },
    {
      "midi": 62,
      "hit": false,
      "t": 99410.90541666264,
      "d": 5.296604166665929,
      "v": 96
    },
    {
      "midi": 40,
      "hit": false,
      "t": 99495.65108332931,
      "d": 153.60152083331195,
      "v": 100
    },
    {
      "midi": 95,
      "hit": false,
      "t": 99511.54089582931,
      "d": 10.593208333331859,
      "v": 52
    },
    {
      "midi": 100,
      "hit": false,
      "t": 99511.54089582931,
      "d": 10.593208333331859,
      "v": 63
    },
    {
      "midi": 64,
      "hit": false,
      "t": 99516.83749999598,
      "d": 5.296604166665929,
      "v": 102
    },
    {
      "midi": 52,
      "hit": false,
      "t": 99516.83749999598,
      "d": 58.26264583332522,
      "v": 60
    },
    {
      "midi": 42,
      "hit": false,
      "t": 99522.13410416264,
      "d": 5.296604166665929,
      "v": 47
    },
    {
      "midi": 57,
      "hit": false,
      "t": 99527.43070832931,
      "d": 5.296604166665929,
      "v": 86
    },
    {
      "midi": 50,
      "hit": false,
      "t": 99538.02391666264,
      "d": 5.296604166665929,
      "v": 81
    },
    {
      "midi": 31,
      "hit": false,
      "t": 99622.7695833293,
      "d": 116.525291666665,
      "v": 100
    },
    {
      "midi": 43,
      "hit": false,
      "t": 99622.7695833293,
      "d": 116.525291666665,
      "v": 100
    },
    {
      "midi": 42,
      "hit": false,
      "t": 99638.6593958293,
      "d": 5.296604166665929,
      "v": 67
    },
    {
      "midi": 93,
      "hit": false,
      "t": 99638.6593958293,
      "d": 10.593208333331859,
      "v": 56
    },
    {
      "midi": 98,
      "hit": false,
      "t": 99638.6593958293,
      "d": 10.593208333331859,
      "v": 67
    },
    {
      "midi": 28,
      "hit": false,
      "t": 99643.95599999596,
      "d": 5.296604166665929,
      "v": 63
    },
    {
      "midi": 35,
      "hit": false,
      "t": 99643.95599999596,
      "d": 74.15245833333756,
      "v": 120
    },
    {
      "midi": 57,
      "hit": false,
      "t": 99643.95599999596,
      "d": 90.04227083333535,
      "v": 93
    },
    {
      "midi": 73,
      "hit": false,
      "t": 99643.95599999596,
      "d": 503.1773958333215,
      "v": 92
    },
    {
      "midi": 62,
      "hit": false,
      "t": 99654.54920832929,
      "d": 58.262645833339775,
      "v": 104
    },
    {
      "midi": 31,
      "hit": false,
      "t": 99749.8880833293,
      "d": 148.30491666666057,
      "v": 100
    },
    {
      "midi": 43,
      "hit": false,
      "t": 99749.8880833293,
      "d": 148.30491666666057,
      "v": 100
    },
    {
      "midi": 93,
      "hit": false,
      "t": 99765.77789582929,
      "d": 10.593208333331859,
      "v": 32
    },
    {
      "midi": 98,
      "hit": false,
      "t": 99765.77789582929,
      "d": 10.593208333331859,
      "v": 43
    },
    {
      "midi": 42,
      "hit": false,
      "t": 99776.37110416262,
      "d": 5.296604166665929,
      "v": 46
    },
    {
      "midi": 57,
      "hit": false,
      "t": 99781.66770832929,
      "d": 5.296604166665929,
      "v": 124
    },
    {
      "midi": 50,
      "hit": false,
      "t": 99792.26091666262,
      "d": 5.296604166665929,
      "v": 89
    },
    {
      "midi": 28,
      "hit": false,
      "t": 99882.30318749596,
      "d": 169.4913333333243,
      "v": 100
    },
    {
      "midi": 40,
      "hit": false,
      "t": 99882.30318749596,
      "d": 169.4913333333243,
      "v": 100
    },
    {
      "midi": 42,
      "hit": false,
      "t": 99898.19299999595,
      "d": 5.296604166665929,
      "v": 86
    },
    {
      "midi": 50,
      "hit": false,
      "t": 99898.19299999595,
      "d": 5.296604166665929,
      "v": 62
    },
    {
      "midi": 57,
      "hit": false,
      "t": 99908.78620832929,
      "d": 5.296604166665929,
      "v": 114
    },
    {
      "midi": 93,
      "hit": false,
      "t": 100020.01489582928,
      "d": 26.483020833329647,
      "v": 52
    },
    {
      "midi": 98,
      "hit": false,
      "t": 100020.01489582928,
      "d": 26.483020833329647,
      "v": 63
    },
    {
      "midi": 52,
      "hit": false,
      "t": 100025.31149999595,
      "d": 90.04227083333535,
      "v": 58
    },
    {
      "midi": 42,
      "hit": false,
      "t": 100030.60810416262,
      "d": 5.296604166665929,
      "v": 47
    },
    {
      "midi": 62,
      "hit": false,
      "t": 100035.90470832928,
      "d": 95.33887500000128,
      "v": 106
    },
    {
      "midi": 57,
      "hit": false,
      "t": 100046.49791666261,
      "d": 90.04227083333535,
      "v": 71
    },
    {
      "midi": 31,
      "hit": false,
      "t": 100141.83679166262,
      "d": 376.0588958333392,
      "v": 100
    },
    {
      "midi": 43,
      "hit": false,
      "t": 100141.83679166262,
      "d": 376.0588958333392,
      "v": 100
    },
    {
      "midi": 42,
      "hit": false,
      "t": 100147.13339582928,
      "d": 5.296604166665929,
      "v": 76
    },
    {
      "midi": 40,
      "hit": false,
      "t": 100152.42999999595,
      "d": 5.296604166665929,
      "v": 93
    },
    {
      "midi": 35,
      "hit": false,
      "t": 100152.42999999595,
      "d": 74.15245833333756,
      "v": 120
    },
    {
      "midi": 69,
      "hit": false,
      "t": 100152.42999999595,
      "d": 503.1773958333215,
      "v": 89
    },
    {
      "midi": 57,
      "hit": false,
      "t": 100163.02320832928,
      "d": 5.296604166665929,
      "v": 124
    },
    {
      "midi": 28,
      "hit": false,
      "t": 100279.54849999596,
      "d": 90.04227083333535,
      "v": 41
    },
    {
      "midi": 42,
      "hit": false,
      "t": 100284.84510416262,
      "d": 5.296604166665929,
      "v": 52
    },
    {
      "midi": 95,
      "hit": false,
      "t": 100401.37039582929,
      "d": 10.593208333331859,
      "v": 65
    },
    {
      "midi": 100,
      "hit": false,
      "t": 100401.37039582929,
      "d": 10.593208333331859,
      "v": 76
    },
    {
      "midi": 46,
      "hit": false,
      "t": 100406.66699999596,
      "d": 5.296604166665929,
      "v": 78
    },
    {
      "midi": 52,
      "hit": false,
      "t": 100406.66699999596,
      "d": 5.296604166665929,
      "v": 81
    },
    {
      "midi": 55,
      "hit": false,
      "t": 100417.26020832929,
      "d": 79.44906250000349,
      "v": 106
    },
    {
      "midi": 33,
      "hit": false,
      "t": 100523.19229166262,
      "d": 100.63547916665266,
      "v": 100
    },
    {
      "midi": 45,
      "hit": false,
      "t": 100523.19229166262,
      "d": 100.63547916665266,
      "v": 100
    },
    {
      "midi": 44,
      "hit": false,
      "t": 100539.08210416262,
      "d": 5.296604166665929,
      "v": 78
    },
    {
      "midi": 57,
      "hit": false,
      "t": 100544.37870832928,
      "d": 47.669437499993364,
      "v": 91
    },
    {
      "midi": 50,
      "hit": false,
      "t": 100554.97191666262,
      "d": 5.296604166665929,
      "v": 81
    },
    {
      "midi": 42,
      "hit": false,
      "t": 100655.60739582927,
      "d": 5.296604166665929,
      "v": 52
    },
    {
      "midi": 55,
      "hit": false,
      "t": 100660.90399999594,
      "d": 5.296604166665929,
      "v": 82
    },
    {
      "midi": 35,
      "hit": false,
      "t": 100660.90399999594,
      "d": 74.15245833333756,
      "v": 120
    },
    {
      "midi": 31,
      "hit": false,
      "t": 100660.90399999594,
      "d": 90.04227083333535,
      "v": 77
    },
    {
      "midi": 26,
      "hit": false,
      "t": 100660.90399999594,
      "d": 190.677749999988,
      "v": 100
    },
    {
      "midi": 38,
      "hit": false,
      "t": 100660.90399999594,
      "d": 190.677749999988,
      "v": 100
    },
    {
      "midi": 74,
      "hit": false,
      "t": 100660.90399999594,
      "d": 370.76229166664416,
      "v": 115
    },
    {
      "midi": 54,
      "hit": false,
      "t": 100660.90399999594,
      "d": 2012.7095833332132,
      "v": 68
    },
    {
      "midi": 59,
      "hit": false,
      "t": 100671.49720832927,
      "d": 5.296604166665929,
      "v": 86
    },
    {
      "midi": 59,
      "hit": false,
      "t": 100788.02249999593,
      "d": 5.296604166665929,
      "v": 87
    },
    {
      "midi": 42,
      "hit": false,
      "t": 100793.3191041626,
      "d": 5.296604166665929,
      "v": 44
    },
    {
      "midi": 55,
      "hit": false,
      "t": 100798.61570832926,
      "d": 5.296604166665929,
      "v": 82
    },
    {
      "midi": 98,
      "hit": false,
      "t": 100909.84439582926,
      "d": 10.593208333331859,
      "v": 65
    },
    {
      "midi": 103,
      "hit": false,
      "t": 100909.84439582926,
      "d": 10.593208333331859,
      "v": 76
    },
    {
      "midi": 42,
      "hit": false,
      "t": 100915.14099999593,
      "d": 5.296604166665929,
      "v": 101
    },
    {
      "midi": 55,
      "hit": false,
      "t": 100915.14099999593,
      "d": 21.186416666663717,
      "v": 94
    },
    {
      "midi": 47,
      "hit": false,
      "t": 100915.14099999593,
      "d": 68.85585416665708,
      "v": 64
    },
    {
      "midi": 50,
      "hit": false,
      "t": 100915.14099999593,
      "d": 68.85585416665708,
      "v": 83
    },
    {
      "midi": 69,
      "hit": false,
      "t": 100915.14099999593,
      "d": 1769.0657916665514,
      "v": 94
    },
    {
      "midi": 59,
      "hit": false,
      "t": 100925.73420832926,
      "d": 5.296604166665929,
      "v": 105
    },
    {
      "midi": 26,
      "hit": false,
      "t": 101042.25949999591,
      "d": 47.669437499993364,
      "v": 100
    },
    {
      "midi": 38,
      "hit": false,
      "t": 101042.25949999591,
      "d": 47.669437499993364,
      "v": 100
    },
    {
      "midi": 59,
      "hit": false,
      "t": 101042.25949999591,
      "d": 47.669437499993364,
      "v": 95
    },
    {
      "midi": 31,
      "hit": false,
      "t": 101042.25949999591,
      "d": 90.0422708333208,
      "v": 63
    },
    {
      "midi": 42,
      "hit": false,
      "t": 101047.55610416258,
      "d": 5.296604166665929,
      "v": 47
    },
    {
      "midi": 55,
      "hit": false,
      "t": 101052.85270832924,
      "d": 37.076229166661506,
      "v": 90
    },
    {
      "midi": 26,
      "hit": false,
      "t": 101153.4881874959,
      "d": 137.71170833332872,
      "v": 100
    },
    {
      "midi": 42,
      "hit": false,
      "t": 101164.08139582923,
      "d": 5.296604166665929,
      "v": 52
    },
    {
      "midi": 40,
      "hit": false,
      "t": 101169.3779999959,
      "d": 5.296604166665929,
      "v": 93
    },
    {
      "midi": 59,
      "hit": false,
      "t": 101169.3779999959,
      "d": 5.296604166665929,
      "v": 83
    },
    {
      "midi": 35,
      "hit": false,
      "t": 101169.3779999959,
      "d": 74.15245833333756,
      "v": 120
    },
    {
      "midi": 38,
      "hit": false,
      "t": 101169.3779999959,
      "d": 121.82189583333093,
      "v": 63
    },
    {
      "midi": 59,
      "hit": false,
      "t": 101296.49649999589,
      "d": 5.296604166665929,
      "v": 79
    },
    {
      "midi": 42,
      "hit": false,
      "t": 101301.79310416256,
      "d": 5.296604166665929,
      "v": 44
    },
    {
      "midi": 26,
      "hit": false,
      "t": 101402.42858332922,
      "d": 121.82189583333093,
      "v": 100
    },
    {
      "midi": 38,
      "hit": false,
      "t": 101402.42858332922,
      "d": 121.82189583333093,
      "v": 100
    },
    {
      "midi": 93,
      "hit": false,
      "t": 101418.31839582922,
      "d": 10.593208333331859,
      "v": 56
    },
    {
      "midi": 98,
      "hit": false,
      "t": 101418.31839582922,
      "d": 10.593208333331859,
      "v": 67
    },
    {
      "midi": 42,
      "hit": false,
      "t": 101423.61499999589,
      "d": 5.296604166665929,
      "v": 101
    },
    {
      "midi": 55,
      "hit": false,
      "t": 101423.61499999589,
      "d": 5.296604166665929,
      "v": 82
    },
    {
      "midi": 50,
      "hit": false,
      "t": 101423.61499999589,
      "d": 90.04227083333535,
      "v": 77
    },
    {
      "midi": 62,
      "hit": false,
      "t": 101434.20820832922,
      "d": 5.296604166665929,
      "v": 86
    },
    {
      "midi": 67,
      "hit": false,
      "t": 101444.80141666255,
      "d": 5.296604166665929,
      "v": 111
    },
    {
      "midi": 28,
      "hit": false,
      "t": 101529.54708332922,
      "d": 158.89812499997788,
      "v": 100
    },
    {
      "midi": 40,
      "hit": false,
      "t": 101529.54708332922,
      "d": 158.89812499997788,
      "v": 100
    },
    {
      "midi": 95,
      "hit": false,
      "t": 101545.43689582922,
      "d": 10.593208333331859,
      "v": 52
    },
    {
      "midi": 100,
      "hit": false,
      "t": 101545.43689582922,
      "d": 10.593208333331859,
      "v": 63
    },
    {
      "midi": 52,
      "hit": false,
      "t": 101550.73349999588,
      "d": 58.26264583332522,
      "v": 60
    },
    {
      "midi": 42,
      "hit": false,
      "t": 101556.03010416255,
      "d": 5.296604166665929,
      "v": 47
    },
    {
      "midi": 67,
      "hit": false,
      "t": 101561.32670832922,
      "d": 5.296604166665929,
      "v": 117
    },
    {
      "midi": 62,
      "hit": false,
      "t": 101571.91991666255,
      "d": 5.296604166665929,
      "v": 87
    },
    {
      "midi": 55,
      "hit": false,
      "t": 101582.51312499588,
      "d": 5.296604166665929,
      "v": 82
    },
    {
      "midi": 43,
      "hit": false,
      "t": 101656.6655833292,
      "d": 116.525291666665,
      "v": 100
    },
    {
      "midi": 42,
      "hit": false,
      "t": 101672.5553958292,
      "d": 5.296604166665929,
      "v": 46
    },
    {
      "midi": 93,
      "hit": false,
      "t": 101672.5553958292,
      "d": 10.593208333331859,
      "v": 56
    },
    {
      "midi": 98,
      "hit": false,
      "t": 101672.5553958292,
      "d": 10.593208333331859,
      "v": 67
    },
    {
      "midi": 35,
      "hit": false,
      "t": 101677.85199999587,
      "d": 74.15245833333756,
      "v": 120
    },
    {
      "midi": 31,
      "hit": false,
      "t": 101677.85199999587,
      "d": 90.04227083333535,
      "v": 63
    },
    {
      "midi": 62,
      "hit": false,
      "t": 101677.85199999587,
      "d": 127.11849999999686,
      "v": 115
    },
    {
      "midi": 73,
      "hit": false,
      "t": 101677.85199999587,
      "d": 376.0588958333101,
      "v": 107
    },
    {
      "midi": 42,
      "hit": false,
      "t": 101762.59766666254,
      "d": 5.296604166665929,
      "v": 62
    },
    {
      "midi": 31,
      "hit": false,
      "t": 101783.7840833292,
      "d": 148.30491666664602,
      "v": 100
    },
    {
      "midi": 43,
      "hit": false,
      "t": 101783.7840833292,
      "d": 148.30491666664602,
      "v": 100
    },
    {
      "midi": 93,
      "hit": false,
      "t": 101799.6738958292,
      "d": 10.593208333331859,
      "v": 32
    },
    {
      "midi": 98,
      "hit": false,
      "t": 101799.6738958292,
      "d": 10.593208333331859,
      "v": 43
    },
    {
      "midi": 55,
      "hit": false,
      "t": 101804.97049999586,
      "d": 90.0422708333208,
      "v": 77
    },
    {
      "midi": 59,
      "hit": false,
      "t": 101804.97049999586,
      "d": 127.1184999999823,
      "v": 94
    },
    {
      "midi": 42,
      "hit": false,
      "t": 101847.34333332919,
      "d": 5.296604166665929,
      "v": 77
    },
    {
      "midi": 28,
      "hit": false,
      "t": 101916.19918749585,
      "d": 169.4913333333243,
      "v": 100
    },
    {
      "midi": 40,
      "hit": false,
      "t": 101916.19918749585,
      "d": 169.4913333333243,
      "v": 100
    },
    {
      "midi": 42,
      "hit": false,
      "t": 101932.08899999585,
      "d": 5.296604166665929,
      "v": 86
    },
    {
      "midi": 62,
      "hit": false,
      "t": 101932.08899999585,
      "d": 127.11849999999686,
      "v": 115
    },
    {
      "midi": 93,
      "hit": false,
      "t": 102053.91089582918,
      "d": 26.483020833329647,
      "v": 52
    },
    {
      "midi": 98,
      "hit": false,
      "t": 102053.91089582918,
      "d": 26.483020833329647,
      "v": 63
    },
    {
      "midi": 52,
      "hit": false,
      "t": 102059.20749999584,
      "d": 90.04227083333535,
      "v": 50
    },
    {
      "midi": 64,
      "hit": false,
      "t": 102059.20749999584,
      "d": 127.11849999999686,
      "v": 94
    },
    {
      "midi": 74,
      "hit": false,
      "t": 102059.20749999584,
      "d": 376.05889583332464,
      "v": 105
    },
    {
      "midi": 42,
      "hit": false,
      "t": 102064.50410416251,
      "d": 5.296604166665929,
      "v": 47
    },
    {
      "midi": 55,
      "hit": false,
      "t": 102090.98712499584,
      "d": 5.296604166665929,
      "v": 82
    },
    {
      "midi": 31,
      "hit": false,
      "t": 102175.7327916625,
      "d": 121.82189583333093,
      "v": 100
    },
    {
      "midi": 43,
      "hit": false,
      "t": 102175.7327916625,
      "d": 121.82189583333093,
      "v": 100
    },
    {
      "midi": 42,
      "hit": false,
      "t": 102181.02939582917,
      "d": 5.296604166665929,
      "v": 76
    },
    {
      "midi": 40,
      "hit": false,
      "t": 102186.32599999584,
      "d": 5.296604166665929,
      "v": 93
    },
    {
      "midi": 35,
      "hit": false,
      "t": 102186.32599999584,
      "d": 74.15245833333756,
      "v": 120
    },
    {
      "midi": 55,
      "hit": false,
      "t": 102186.32599999584,
      "d": 90.04227083333535,
      "v": 69
    },
    {
      "midi": 31,
      "hit": false,
      "t": 102302.8512916625,
      "d": 169.4913333333243,
      "v": 100
    },
    {
      "midi": 43,
      "hit": false,
      "t": 102313.44449999584,
      "d": 90.04227083333535,
      "v": 41
    },
    {
      "midi": 42,
      "hit": false,
      "t": 102318.7411041625,
      "d": 5.296604166665929,
      "v": 52
    },
    {
      "midi": 33,
      "hit": false,
      "t": 102429.9697916625,
      "d": 100.63547916666721,
      "v": 100
    },
    {
      "midi": 45,
      "hit": false,
      "t": 102429.9697916625,
      "d": 100.63547916666721,
      "v": 100
    },
    {
      "midi": 95,
      "hit": false,
      "t": 102435.26639582917,
      "d": 10.593208333331859,
      "v": 65
    },
    {
      "midi": 100,
      "hit": false,
      "t": 102435.26639582917,
      "d": 10.593208333331859,
      "v": 76
    },
    {
      "midi": 42,
      "hit": false,
      "t": 102440.56299999583,
      "d": 5.296604166665929,
      "v": 78
    },
    {
      "midi": 62,
      "hit": false,
      "t": 102440.56299999583,
      "d": 5.296604166665929,
      "v": 63
    },
    {
      "midi": 55,
      "hit": false,
      "t": 102440.56299999583,
      "d": 90.04227083333535,
      "v": 77
    },
    {
      "midi": 64,
      "hit": false,
      "t": 102440.56299999583,
      "d": 127.11849999999686,
      "v": 96
    },
    {
      "midi": 66,
      "hit": false,
      "t": 102567.68149999583,
      "d": 116.52529166665045,
      "v": 75
    },
    {
      "midi": 42,
      "hit": false,
      "t": 102572.9781041625,
      "d": 5.296604166665929,
      "v": 78
    },
    {
      "midi": 57,
      "hit": false,
      "t": 102588.8679166625,
      "d": 5.296604166665929,
      "v": 101
    },
    {
      "midi": 42,
      "hit": false,
      "t": 102689.50339582915,
      "d": 5.296604166665929,
      "v": 52
    },
    {
      "midi": 57,
      "hit": false,
      "t": 102694.79999999581,
      "d": 5.296604166665929,
      "v": 75
    },
    {
      "midi": 35,
      "hit": false,
      "t": 102694.79999999581,
      "d": 74.15245833333756,
      "v": 120
    },
    {
      "midi": 33,
      "hit": false,
      "t": 102694.79999999581,
      "d": 90.04227083333535,
      "v": 77
    },
    {
      "midi": 21,
      "hit": false,
      "t": 102694.79999999581,
      "d": 190.677749999988,
      "v": 100
    },
    {
      "midi": 49,
      "hit": false,
      "t": 102694.79999999581,
      "d": 4046.605583333061,
      "v": 39
    },
    {
      "midi": 81,
      "hit": false,
      "t": 102694.79999999581,
      "d": 4057.198791666393,
      "v": 117
    },
    {
      "midi": 64,
      "hit": false,
      "t": 102705.39320832914,
      "d": 5.296604166665929,
      "v": 79
    },
    {
      "midi": 64,
      "hit": false,
      "t": 102821.91849999581,
      "d": 5.296604166665929,
      "v": 80
    },
    {
      "midi": 76,
      "hit": false,
      "t": 102821.91849999581,
      "d": 42.372833333327435,
      "v": 113
    },
    {
      "midi": 42,
      "hit": false,
      "t": 102827.21510416247,
      "d": 5.296604166665929,
      "v": 44
    },
    {
      "midi": 57,
      "hit": false,
      "t": 102832.51170832914,
      "d": 5.296604166665929,
      "v": 75
    },
    {
      "midi": 98,
      "hit": false,
      "t": 102943.74039582914,
      "d": 10.593208333331859,
      "v": 65
    },
    {
      "midi": 103,
      "hit": false,
      "t": 102943.74039582914,
      "d": 10.593208333331859,
      "v": 76
    },
    {
      "midi": 42,
      "hit": false,
      "t": 102949.0369999958,
      "d": 5.296604166665929,
      "v": 101
    },
    {
      "midi": 57,
      "hit": false,
      "t": 102949.0369999958,
      "d": 21.186416666663717,
      "v": 87
    },
    {
      "midi": 52,
      "hit": false,
      "t": 102949.0369999958,
      "d": 68.85585416665708,
      "v": 64
    },
    {
      "midi": 55,
      "hit": false,
      "t": 102949.0369999958,
      "d": 68.85585416665708,
      "v": 83
    },
    {
      "midi": 73,
      "hit": false,
      "t": 102949.0369999958,
      "d": 3802.961791666399,
      "v": 114
    },
    {
      "midi": 64,
      "hit": false,
      "t": 102959.63020832914,
      "d": 5.296604166665929,
      "v": 98
    },
    {
      "midi": 64,
      "hit": false,
      "t": 103076.1554999958,
      "d": 5.296604166665929,
      "v": 62
    },
    {
      "midi": 21,
      "hit": false,
      "t": 103076.1554999958,
      "d": 47.669437499993364,
      "v": 100
    },
    {
      "midi": 33,
      "hit": false,
      "t": 103076.1554999958,
      "d": 47.669437499993364,
      "v": 100
    },
    {
      "midi": 45,
      "hit": false,
      "t": 103076.1554999958,
      "d": 90.0422708333208,
      "v": 63
    },
    {
      "midi": 42,
      "hit": false,
      "t": 103081.45210416247,
      "d": 5.296604166665929,
      "v": 47
    },
    {
      "midi": 57,
      "hit": false,
      "t": 103086.74870832913,
      "d": 37.076229166661506,
      "v": 83
    },
    {
      "midi": 21,
      "hit": false,
      "t": 103187.38418749579,
      "d": 137.71170833331416,
      "v": 100
    },
    {
      "midi": 33,
      "hit": false,
      "t": 103187.38418749579,
      "d": 137.71170833331416,
      "v": 100
    },
    {
      "midi": 42,
      "hit": false,
      "t": 103197.97739582912,
      "d": 5.296604166665929,
      "v": 52
    },
    {
      "midi": 40,
      "hit": false,
      "t": 103203.27399999578,
      "d": 5.296604166665929,
      "v": 93
    },
    {
      "midi": 57,
      "hit": false,
      "t": 103203.27399999578,
      "d": 5.296604166665929,
      "v": 75
    },
    {
      "midi": 64,
      "hit": false,
      "t": 103203.27399999578,
      "d": 37.076229166661506,
      "v": 86
    },
    {
      "midi": 35,
      "hit": false,
      "t": 103203.27399999578,
      "d": 74.15245833332301,
      "v": 120
    },
    {
      "midi": 45,
      "hit": false,
      "t": 103203.27399999578,
      "d": 201.27095833330532,
      "v": 63
    },
    {
      "midi": 76,
      "hit": false,
      "t": 103224.46041666245,
      "d": 10.593208333331859,
      "v": 76
    },
    {
      "midi": 64,
      "hit": false,
      "t": 103330.39249999577,
      "d": 37.076229166661506,
      "v": 82
    },
    {
      "midi": 42,
      "hit": false,
      "t": 103335.68910416243,
      "d": 5.296604166665929,
      "v": 44
    },
    {
      "midi": 57,
      "hit": false,
      "t": 103340.9857083291,
      "d": 5.296604166665929,
      "v": 75
    },
    {
      "midi": 76,
      "hit": false,
      "t": 103340.9857083291,
      "d": 10.593208333331859,
      "v": 82
    },
    {
      "midi": 26,
      "hit": false,
      "t": 103436.32458332909,
      "d": 121.82189583333093,
      "v": 100
    },
    {
      "midi": 38,
      "hit": false,
      "t": 103436.32458332909,
      "d": 121.82189583333093,
      "v": 100
    },
    {
      "midi": 93,
      "hit": false,
      "t": 103452.21439582908,
      "d": 10.593208333331859,
      "v": 56
    },
    {
      "midi": 98,
      "hit": false,
      "t": 103452.21439582908,
      "d": 10.593208333331859,
      "v": 67
    },
    {
      "midi": 42,
      "hit": false,
      "t": 103457.51099999575,
      "d": 5.296604166665929,
      "v": 101
    },
    {
      "midi": 57,
      "hit": false,
      "t": 103457.51099999575,
      "d": 5.296604166665929,
      "v": 75
    },
    {
      "midi": 50,
      "hit": false,
      "t": 103457.51099999575,
      "d": 90.04227083333535,
      "v": 77
    },
    {
      "midi": 64,
      "hit": false,
      "t": 103468.10420832908,
      "d": 5.296604166665929,
      "v": 79
    },
    {
      "midi": 76,
      "hit": false,
      "t": 103478.69741666241,
      "d": 52.966041666673846,
      "v": 94
    },
    {
      "midi": 28,
      "hit": false,
      "t": 103563.44308332908,
      "d": 121.82189583331638,
      "v": 100
    },
    {
      "midi": 40,
      "hit": false,
      "t": 103563.44308332908,
      "d": 121.82189583331638,
      "v": 100
    },
    {
      "midi": 95,
      "hit": false,
      "t": 103579.33289582908,
      "d": 10.593208333331859,
      "v": 52
    },
    {
      "midi": 100,
      "hit": false,
      "t": 103579.33289582908,
      "d": 10.593208333331859,
      "v": 63
    },
    {
      "midi": 38,
      "hit": false,
      "t": 103584.62949999575,
      "d": 5.296604166665929,
      "v": 30
    },
    {
      "midi": 52,
      "hit": false,
      "t": 103584.62949999575,
      "d": 58.26264583332522,
      "v": 60
    },
    {
      "midi": 42,
      "hit": false,
      "t": 103589.92610416241,
      "d": 5.296604166665929,
      "v": 47
    },
    {
      "midi": 76,
      "hit": false,
      "t": 103595.22270832908,
      "d": 52.966041666659294,
      "v": 100
    },
    {
      "midi": 64,
      "hit": false,
      "t": 103605.81591666241,
      "d": 5.296604166665929,
      "v": 80
    },
    {
      "midi": 57,
      "hit": false,
      "t": 103616.40912499574,
      "d": 5.296604166665929,
      "v": 75
    },
    {
      "midi": 38,
      "hit": false,
      "t": 103627.00233332907,
      "d": 5.296604166665929,
      "v": 30
    },
    {
      "midi": 38,
      "hit": false,
      "t": 103669.3751666624,
      "d": 5.296604166665929,
      "v": 30
    },
    {
      "midi": 28,
      "hit": false,
      "t": 103690.56158332906,
      "d": 148.30491666666057,
      "v": 100
    },
    {
      "midi": 40,
      "hit": false,
      "t": 103690.56158332906,
      "d": 148.30491666666057,
      "v": 100
    },
    {
      "midi": 42,
      "hit": false,
      "t": 103706.45139582906,
      "d": 5.296604166665929,
      "v": 67
    },
    {
      "midi": 93,
      "hit": false,
      "t": 103706.45139582906,
      "d": 10.593208333331859,
      "v": 56
    },
    {
      "midi": 98,
      "hit": false,
      "t": 103706.45139582906,
      "d": 10.593208333331859,
      "v": 67
    },
    {
      "midi": 38,
      "hit": false,
      "t": 103711.74799999573,
      "d": 5.296604166665929,
      "v": 30
    },
    {
      "midi": 35,
      "hit": false,
      "t": 103711.74799999573,
      "d": 74.15245833333756,
      "v": 120
    },
    {
      "midi": 33,
      "hit": false,
      "t": 103711.74799999573,
      "d": 90.04227083333535,
      "v": 63
    },
    {
      "midi": 71,
      "hit": false,
      "t": 103711.74799999573,
      "d": 127.11849999999686,
      "v": 108
    },
    {
      "midi": 64,
      "hit": false,
      "t": 103722.34120832906,
      "d": 116.525291666665,
      "v": 116
    },
    {
      "midi": 31,
      "hit": false,
      "t": 103817.68008332906,
      "d": 148.30491666666057,
      "v": 100
    },
    {
      "midi": 43,
      "hit": false,
      "t": 103817.68008332906,
      "d": 148.30491666666057,
      "v": 100
    },
    {
      "midi": 93,
      "hit": false,
      "t": 103833.56989582906,
      "d": 10.593208333331859,
      "v": 32
    },
    {
      "midi": 98,
      "hit": false,
      "t": 103833.56989582906,
      "d": 10.593208333331859,
      "v": 43
    },
    {
      "midi": 50,
      "hit": false,
      "t": 103838.86649999573,
      "d": 90.04227083333535,
      "v": 77
    },
    {
      "midi": 42,
      "hit": false,
      "t": 103844.16310416239,
      "d": 5.296604166665929,
      "v": 46
    },
    {
      "midi": 71,
      "hit": false,
      "t": 103849.45970832906,
      "d": 105.93208333333314,
      "v": 123
    },
    {
      "midi": 64,
      "hit": false,
      "t": 103860.05291666239,
      "d": 95.33887500000128,
      "v": 111
    },
    {
      "midi": 28,
      "hit": false,
      "t": 103955.39179166239,
      "d": 169.4913333333243,
      "v": 100
    },
    {
      "midi": 40,
      "hit": false,
      "t": 103955.39179166239,
      "d": 169.4913333333243,
      "v": 100
    },
    {
      "midi": 42,
      "hit": false,
      "t": 103965.98499999572,
      "d": 5.296604166665929,
      "v": 86
    },
    {
      "midi": 64,
      "hit": false,
      "t": 103965.98499999572,
      "d": 127.11849999999686,
      "v": 114
    },
    {
      "midi": 71,
      "hit": false,
      "t": 103965.98499999572,
      "d": 127.11849999999686,
      "v": 108
    },
    {
      "midi": 93,
      "hit": false,
      "t": 104087.80689582905,
      "d": 26.483020833329647,
      "v": 52
    },
    {
      "midi": 98,
      "hit": false,
      "t": 104087.80689582905,
      "d": 26.483020833329647,
      "v": 63
    },
    {
      "midi": 52,
      "hit": false,
      "t": 104093.10349999572,
      "d": 90.0422708333208,
      "v": 77
    },
    {
      "midi": 42,
      "hit": false,
      "t": 104098.40010416239,
      "d": 5.296604166665929,
      "v": 47
    },
    {
      "midi": 71,
      "hit": false,
      "t": 104103.69670832905,
      "d": 84.74566666665487,
      "v": 118
    },
    {
      "midi": 64,
      "hit": false,
      "t": 104114.28991666238,
      "d": 79.44906249998894,
      "v": 59
    },
    {
      "midi": 57,
      "hit": false,
      "t": 104124.88312499571,
      "d": 5.296604166665929,
      "v": 75
    },
    {
      "midi": 42,
      "hit": false,
      "t": 104214.92539582904,
      "d": 5.296604166665929,
      "v": 76
    },
    {
      "midi": 31,
      "hit": false,
      "t": 104214.92539582904,
      "d": 121.82189583333093,
      "v": 100
    },
    {
      "midi": 43,
      "hit": false,
      "t": 104214.92539582904,
      "d": 121.82189583333093,
      "v": 100
    },
    {
      "midi": 40,
      "hit": false,
      "t": 104220.2219999957,
      "d": 5.296604166665929,
      "v": 93
    },
    {
      "midi": 57,
      "hit": false,
      "t": 104220.2219999957,
      "d": 5.296604166665929,
      "v": 75
    },
    {
      "midi": 35,
      "hit": false,
      "t": 104220.2219999957,
      "d": 74.15245833333756,
      "v": 120
    },
    {
      "midi": 64,
      "hit": false,
      "t": 104230.81520832903,
      "d": 5.296604166665929,
      "v": 79
    },
    {
      "midi": 76,
      "hit": false,
      "t": 104347.3404999957,
      "d": 10.593208333331859,
      "v": 87
    },
    {
      "midi": 33,
      "hit": false,
      "t": 104347.3404999957,
      "d": 90.04227083333535,
      "v": 41
    },
    {
      "midi": 42,
      "hit": false,
      "t": 104352.63710416236,
      "d": 5.296604166665929,
      "v": 52
    },
    {
      "midi": 64,
      "hit": false,
      "t": 104357.93370832903,
      "d": 5.296604166665929,
      "v": 75
    },
    {
      "midi": 95,
      "hit": false,
      "t": 104469.16239582903,
      "d": 10.593208333331859,
      "v": 65
    },
    {
      "midi": 100,
      "hit": false,
      "t": 104469.16239582903,
      "d": 10.593208333331859,
      "v": 76
    },
    {
      "midi": 31,
      "hit": false,
      "t": 104469.16239582903,
      "d": 143.00831249999464,
      "v": 100
    },
    {
      "midi": 43,
      "hit": false,
      "t": 104469.16239582903,
      "d": 143.00831249999464,
      "v": 100
    },
    {
      "midi": 46,
      "hit": false,
      "t": 104474.4589999957,
      "d": 5.296604166665929,
      "v": 78
    },
    {
      "midi": 57,
      "hit": false,
      "t": 104474.4589999957,
      "d": 21.186416666663717,
      "v": 87
    },
    {
      "midi": 55,
      "hit": false,
      "t": 104474.4589999957,
      "d": 90.04227083333535,
      "v": 77
    },
    {
      "midi": 64,
      "hit": false,
      "t": 104485.05220832903,
      "d": 5.296604166665929,
      "v": 98
    },
    {
      "midi": 33,
      "hit": false,
      "t": 104596.28089582903,
      "d": 100.63547916665266,
      "v": 100
    },
    {
      "midi": 45,
      "hit": false,
      "t": 104596.28089582903,
      "d": 100.63547916665266,
      "v": 100
    },
    {
      "midi": 64,
      "hit": false,
      "t": 104601.57749999569,
      "d": 5.296604166665929,
      "v": 62
    },
    {
      "midi": 44,
      "hit": false,
      "t": 104606.87410416236,
      "d": 5.296604166665929,
      "v": 78
    },
    {
      "midi": 57,
      "hit": false,
      "t": 104612.17070832902,
      "d": 37.076229166661506,
      "v": 83
    },
    {
      "midi": 42,
      "hit": false,
      "t": 104723.39939582901,
      "d": 5.296604166665929,
      "v": 52
    },
    {
      "midi": 57,
      "hit": false,
      "t": 104728.69599999567,
      "d": 5.296604166665929,
      "v": 75
    },
    {
      "midi": 35,
      "hit": false,
      "t": 104728.69599999567,
      "d": 74.15245833333756,
      "v": 120
    },
    {
      "midi": 33,
      "hit": false,
      "t": 104728.69599999567,
      "d": 90.04227083333535,
      "v": 77
    },
    {
      "midi": 21,
      "hit": false,
      "t": 104728.69599999567,
      "d": 190.677749999988,
      "v": 100
    },
    {
      "midi": 64,
      "hit": false,
      "t": 104739.289208329,
      "d": 5.296604166665929,
      "v": 79
    },
    {
      "midi": 64,
      "hit": false,
      "t": 104855.81449999567,
      "d": 5.296604166665929,
      "v": 80
    },
    {
      "midi": 42,
      "hit": false,
      "t": 104861.11110416234,
      "d": 5.296604166665929,
      "v": 44
    },
    {
      "midi": 57,
      "hit": false,
      "t": 104866.407708329,
      "d": 5.296604166665929,
      "v": 75
    },
    {
      "midi": 98,
      "hit": false,
      "t": 104977.636395829,
      "d": 10.593208333331859,
      "v": 65
    },
    {
      "midi": 103,
      "hit": false,
      "t": 104977.636395829,
      "d": 10.593208333331859,
      "v": 76
    },
    {
      "midi": 42,
      "hit": false,
      "t": 104982.93299999567,
      "d": 5.296604166665929,
      "v": 101
    },
    {
      "midi": 57,
      "hit": false,
      "t": 104982.93299999567,
      "d": 21.186416666663717,
      "v": 87
    },
    {
      "midi": 45,
      "hit": false,
      "t": 104982.93299999567,
      "d": 52.966041666659294,
      "v": 61
    },
    {
      "midi": 50,
      "hit": false,
      "t": 104982.93299999567,
      "d": 52.966041666659294,
      "v": 80
    },
    {
      "midi": 64,
      "hit": false,
      "t": 104993.526208329,
      "d": 5.296604166665929,
      "v": 98
    },
    {
      "midi": 64,
      "hit": false,
      "t": 105110.05149999566,
      "d": 5.296604166665929,
      "v": 62
    },
    {
      "midi": 21,
      "hit": false,
      "t": 105110.05149999566,
      "d": 47.669437499993364,
      "v": 100
    },
    {
      "midi": 33,
      "hit": false,
      "t": 105110.05149999566,
      "d": 47.669437499993364,
      "v": 100
    },
    {
      "midi": 45,
      "hit": false,
      "t": 105110.05149999566,
      "d": 90.0422708333208,
      "v": 63
    },
    {
      "midi": 42,
      "hit": false,
      "t": 105115.34810416233,
      "d": 5.296604166665929,
      "v": 47
    },
    {
      "midi": 57,
      "hit": false,
      "t": 105120.644708329,
      "d": 37.076229166661506,
      "v": 83
    },
    {
      "midi": 21,
      "hit": false,
      "t": 105221.28018749565,
      "d": 137.71170833331416,
      "v": 100
    },
    {
      "midi": 33,
      "hit": false,
      "t": 105221.28018749565,
      "d": 137.71170833331416,
      "v": 100
    },
    {
      "midi": 42,
      "hit": false,
      "t": 105231.87339582898,
      "d": 5.296604166665929,
      "v": 52
    },
    {
      "midi": 40,
      "hit": false,
      "t": 105237.16999999565,
      "d": 5.296604166665929,
      "v": 93
    },
    {
      "midi": 57,
      "hit": false,
      "t": 105237.16999999565,
      "d": 5.296604166665929,
      "v": 75
    },
    {
      "midi": 64,
      "hit": false,
      "t": 105237.16999999565,
      "d": 37.076229166661506,
      "v": 86
    },
    {
      "midi": 35,
      "hit": false,
      "t": 105237.16999999565,
      "d": 74.15245833332301,
      "v": 120
    },
    {
      "midi": 76,
      "hit": false,
      "t": 105364.28849999563,
      "d": 42.372833333327435,
      "v": 127
    },
    {
      "midi": 40,
      "hit": false,
      "t": 105364.28849999563,
      "d": 90.0422708333208,
      "v": 63
    },
    {
      "midi": 42,
      "hit": false,
      "t": 105369.5851041623,
      "d": 5.296604166665929,
      "v": 44
    },
    {
      "midi": 64,
      "hit": false,
      "t": 105374.88170832896,
      "d": 5.296604166665929,
      "v": 75
    },
    {
      "midi": 26,
      "hit": false,
      "t": 105470.22058332895,
      "d": 121.82189583333093,
      "v": 100
    },
    {
      "midi": 38,
      "hit": false,
      "t": 105470.22058332895,
      "d": 121.82189583333093,
      "v": 100
    },
    {
      "midi": 93,
      "hit": false,
      "t": 105486.11039582895,
      "d": 10.593208333331859,
      "v": 56
    },
    {
      "midi": 98,
      "hit": false,
      "t": 105486.11039582895,
      "d": 10.593208333331859,
      "v": 67
    },
    {
      "midi": 42,
      "hit": false,
      "t": 105491.40699999561,
      "d": 5.296604166665929,
      "v": 101
    },
    {
      "midi": 57,
      "hit": false,
      "t": 105491.40699999561,
      "d": 5.296604166665929,
      "v": 75
    },
    {
      "midi": 50,
      "hit": false,
      "t": 105491.40699999561,
      "d": 90.04227083333535,
      "v": 77
    },
    {
      "midi": 64,
      "hit": false,
      "t": 105502.00020832894,
      "d": 5.296604166665929,
      "v": 79
    },
    {
      "midi": 28,
      "hit": false,
      "t": 105597.33908332894,
      "d": 121.82189583331638,
      "v": 100
    },
    {
      "midi": 40,
      "hit": false,
      "t": 105597.33908332894,
      "d": 121.82189583331638,
      "v": 100
    },
    {
      "midi": 95,
      "hit": false,
      "t": 105613.22889582894,
      "d": 10.593208333331859,
      "v": 52
    },
    {
      "midi": 100,
      "hit": false,
      "t": 105613.22889582894,
      "d": 10.593208333331859,
      "v": 63
    },
    {
      "midi": 52,
      "hit": false,
      "t": 105618.52549999561,
      "d": 58.26264583332522,
      "v": 60
    },
    {
      "midi": 42,
      "hit": false,
      "t": 105623.82210416227,
      "d": 5.296604166665929,
      "v": 47
    },
    {
      "midi": 64,
      "hit": false,
      "t": 105639.71191666227,
      "d": 5.296604166665929,
      "v": 80
    },
    {
      "midi": 57,
      "hit": false,
      "t": 105650.3051249956,
      "d": 5.296604166665929,
      "v": 75
    },
    {
      "midi": 28,
      "hit": false,
      "t": 105724.45758332893,
      "d": 148.30491666666057,
      "v": 100
    },
    {
      "midi": 40,
      "hit": false,
      "t": 105724.45758332893,
      "d": 148.30491666666057,
      "v": 100
    },
    {
      "midi": 42,
      "hit": false,
      "t": 105740.34739582893,
      "d": 5.296604166665929,
      "v": 67
    },
    {
      "midi": 93,
      "hit": false,
      "t": 105740.34739582893,
      "d": 10.593208333331859,
      "v": 56
    },
    {
      "midi": 98,
      "hit": false,
      "t": 105740.34739582893,
      "d": 10.593208333331859,
      "v": 67
    },
    {
      "midi": 35,
      "hit": false,
      "t": 105745.64399999559,
      "d": 74.15245833333756,
      "v": 120
    },
    {
      "midi": 33,
      "hit": false,
      "t": 105745.64399999559,
      "d": 90.04227083333535,
      "v": 63
    },
    {
      "midi": 76,
      "hit": false,
      "t": 105745.64399999559,
      "d": 105.93208333333314,
      "v": 89
    },
    {
      "midi": 71,
      "hit": false,
      "t": 105756.23720832892,
      "d": 100.63547916666721,
      "v": 116
    },
    {
      "midi": 31,
      "hit": false,
      "t": 105851.57608332892,
      "d": 148.30491666666057,
      "v": 100
    },
    {
      "midi": 43,
      "hit": false,
      "t": 105851.57608332892,
      "d": 148.30491666666057,
      "v": 100
    },
    {
      "midi": 93,
      "hit": false,
      "t": 105867.46589582892,
      "d": 10.593208333331859,
      "v": 32
    },
    {
      "midi": 98,
      "hit": false,
      "t": 105867.46589582892,
      "d": 10.593208333331859,
      "v": 43
    },
    {
      "midi": 55,
      "hit": false,
      "t": 105872.76249999559,
      "d": 90.04227083333535,
      "v": 77
    },
    {
      "midi": 42,
      "hit": false,
      "t": 105878.05910416225,
      "d": 5.296604166665929,
      "v": 46
    },
    {
      "midi": 76,
      "hit": false,
      "t": 105883.35570832892,
      "d": 84.74566666666942,
      "v": 107
    },
    {
      "midi": 71,
      "hit": false,
      "t": 105893.94891666225,
      "d": 79.44906250000349,
      "v": 111
    },
    {
      "midi": 28,
      "hit": false,
      "t": 105989.28779166225,
      "d": 169.4913333333243,
      "v": 100
    },
    {
      "midi": 40,
      "hit": false,
      "t": 105989.28779166225,
      "d": 169.4913333333243,
      "v": 100
    },
    {
      "midi": 42,
      "hit": false,
      "t": 105999.88099999558,
      "d": 5.296604166665929,
      "v": 86
    },
    {
      "midi": 76,
      "hit": false,
      "t": 105999.88099999558,
      "d": 105.93208333333314,
      "v": 102
    },
    {
      "midi": 71,
      "hit": false,
      "t": 105999.88099999558,
      "d": 111.22868749999907,
      "v": 114
    },
    {
      "midi": 93,
      "hit": false,
      "t": 106121.70289582892,
      "d": 26.483020833329647,
      "v": 52
    },
    {
      "midi": 98,
      "hit": false,
      "t": 106121.70289582892,
      "d": 26.483020833329647,
      "v": 63
    },
    {
      "midi": 38,
      "hit": false,
      "t": 106126.99949999558,
      "d": 5.296604166665929,
      "v": 30
    },
    {
      "midi": 52,
      "hit": false,
      "t": 106126.99949999558,
      "d": 90.0422708333208,
      "v": 50
    },
    {
      "midi": 42,
      "hit": false,
      "t": 106132.29610416225,
      "d": 5.296604166665929,
      "v": 47
    },
    {
      "midi": 76,
      "hit": false,
      "t": 106137.59270832891,
      "d": 68.85585416665708,
      "v": 99
    },
    {
      "midi": 71,
      "hit": false,
      "t": 106148.18591666225,
      "d": 63.55924999999115,
      "v": 75
    },
    {
      "midi": 57,
      "hit": false,
      "t": 106158.77912499558,
      "d": 5.296604166665929,
      "v": 75
    },
    {
      "midi": 38,
      "hit": false,
      "t": 106169.37233332891,
      "d": 5.296604166665929,
      "v": 30
    },
    {
      "midi": 38,
      "hit": false,
      "t": 106211.74516666224,
      "d": 5.296604166665929,
      "v": 30
    },
    {
      "midi": 42,
      "hit": false,
      "t": 106248.8213958289,
      "d": 5.296604166665929,
      "v": 76
    },
    {
      "midi": 31,
      "hit": false,
      "t": 106248.8213958289,
      "d": 121.82189583333093,
      "v": 100
    },
    {
      "midi": 43,
      "hit": false,
      "t": 106248.8213958289,
      "d": 121.82189583333093,
      "v": 100
    },
    {
      "midi": 38,
      "hit": false,
      "t": 106254.11799999556,
      "d": 5.296604166665929,
      "v": 30
    },
    {
      "midi": 40,
      "hit": false,
      "t": 106254.11799999556,
      "d": 5.296604166665929,
      "v": 93
    },
    {
      "midi": 57,
      "hit": false,
      "t": 106254.11799999556,
      "d": 5.296604166665929,
      "v": 75
    },
    {
      "midi": 35,
      "hit": false,
      "t": 106254.11799999556,
      "d": 74.15245833333756,
      "v": 120
    },
    {
      "midi": 55,
      "hit": false,
      "t": 106254.11799999556,
      "d": 90.04227083333535,
      "v": 69
    },
    {
      "midi": 64,
      "hit": false,
      "t": 106264.7112083289,
      "d": 5.296604166665929,
      "v": 79
    },
    {
      "midi": 76,
      "hit": false,
      "t": 106381.23649999556,
      "d": 10.593208333331859,
      "v": 87
    },
    {
      "midi": 43,
      "hit": false,
      "t": 106381.23649999556,
      "d": 90.04227083333535,
      "v": 41
    },
    {
      "midi": 42,
      "hit": false,
      "t": 106386.53310416223,
      "d": 5.296604166665929,
      "v": 52
    },
    {
      "midi": 64,
      "hit": false,
      "t": 106391.82970832889,
      "d": 5.296604166665929,
      "v": 75
    },
    {
      "midi": 95,
      "hit": false,
      "t": 106503.05839582889,
      "d": 10.593208333331859,
      "v": 65
    },
    {
      "midi": 100,
      "hit": false,
      "t": 106503.05839582889,
      "d": 10.593208333331859,
      "v": 76
    },
    {
      "midi": 31,
      "hit": false,
      "t": 106503.05839582889,
      "d": 143.00831249999464,
      "v": 100
    },
    {
      "midi": 43,
      "hit": false,
      "t": 106503.05839582889,
      "d": 143.00831249999464,
      "v": 100
    },
    {
      "midi": 42,
      "hit": false,
      "t": 106508.35499999556,
      "d": 5.296604166665929,
      "v": 78
    },
    {
      "midi": 57,
      "hit": false,
      "t": 106508.35499999556,
      "d": 21.186416666663717,
      "v": 87
    },
    {
      "midi": 55,
      "hit": false,
      "t": 106508.35499999556,
      "d": 90.04227083333535,
      "v": 77
    },
    {
      "midi": 64,
      "hit": false,
      "t": 106518.94820832889,
      "d": 5.296604166665929,
      "v": 98
    },
    {
      "midi": 42,
      "hit": false,
      "t": 106593.10066666223,
      "d": 5.296604166665929,
      "v": 57
    },
    {
      "midi": 33,
      "hit": false,
      "t": 106630.17689582889,
      "d": 100.63547916665266,
      "v": 100
    },
    {
      "midi": 45,
      "hit": false,
      "t": 106630.17689582889,
      "d": 100.63547916665266,
      "v": 100
    },
    {
      "midi": 64,
      "hit": false,
      "t": 106635.47349999555,
      "d": 5.296604166665929,
      "v": 62
    },
    {
      "midi": 57,
      "hit": false,
      "t": 106646.06670832889,
      "d": 37.076229166661506,
      "v": 83
    },
    {
      "midi": 42,
      "hit": false,
      "t": 106757.29539582887,
      "d": 5.296604166665929,
      "v": 52
    },
    {
      "midi": 52,
      "hit": false,
      "t": 106762.59199999554,
      "d": 5.296604166665929,
      "v": 81
    },
    {
      "midi": 35,
      "hit": false,
      "t": 106762.59199999554,
      "d": 74.15245833333756,
      "v": 120
    },
    {
      "midi": 28,
      "hit": false,
      "t": 106762.59199999554,
      "d": 90.04227083333535,
      "v": 77
    },
    {
      "midi": 40,
      "hit": false,
      "t": 106762.59199999554,
      "d": 190.677749999988,
      "v": 100
    },
    {
      "midi": 67,
      "hit": false,
      "t": 106762.59199999554,
      "d": 243.64379166666185,
      "v": 127
    },
    {
      "midi": 59,
      "hit": false,
      "t": 106773.18520832887,
      "d": 5.296604166665929,
      "v": 85
    },
    {
      "midi": 66,
      "hit": false,
      "t": 106889.71049999553,
      "d": 1896.1842916665773,
      "v": 88
    },
    {
      "midi": 42,
      "hit": false,
      "t": 106895.0071041622,
      "d": 5.296604166665929,
      "v": 44
    },
    {
      "midi": 59,
      "hit": false,
      "t": 106900.30370832887,
      "d": 5.296604166665929,
      "v": 86
    },
    {
      "midi": 52,
      "hit": false,
      "t": 106910.8969166622,
      "d": 5.296604166665929,
      "v": 81
    },
    {
      "midi": 98,
      "hit": false,
      "t": 107011.53239582886,
      "d": 10.593208333331859,
      "v": 65
    },
    {
      "midi": 103,
      "hit": false,
      "t": 107011.53239582886,
      "d": 10.593208333331859,
      "v": 76
    },
    {
      "midi": 42,
      "hit": false,
      "t": 107016.82899999553,
      "d": 5.296604166665929,
      "v": 101
    },
    {
      "midi": 52,
      "hit": false,
      "t": 107016.82899999553,
      "d": 68.85585416667163,
      "v": 64
    },
    {
      "midi": 55,
      "hit": false,
      "t": 107016.82899999553,
      "d": 68.85585416667163,
      "v": 83
    },
    {
      "midi": 59,
      "hit": false,
      "t": 107016.82899999553,
      "d": 111.22868749999907,
      "v": 93
    },
    {
      "midi": 67,
      "hit": false,
      "t": 107016.82899999553,
      "d": 1769.0657916665805,
      "v": 92
    },
    {
      "midi": 64,
      "hit": false,
      "t": 107027.42220832886,
      "d": 90.04227083333535,
      "v": 104
    },
    {
      "midi": 28,
      "hit": false,
      "t": 107143.94749999553,
      "d": 47.669437499993364,
      "v": 100
    },
    {
      "midi": 40,
      "hit": false,
      "t": 107143.94749999553,
      "d": 47.669437499993364,
      "v": 63
    },
    {
      "midi": 42,
      "hit": false,
      "t": 107149.2441041622,
      "d": 5.296604166665929,
      "v": 47
    },
    {
      "midi": 59,
      "hit": false,
      "t": 107154.54070832886,
      "d": 47.669437499993364,
      "v": 94
    },
    {
      "midi": 52,
      "hit": false,
      "t": 107165.13391666219,
      "d": 37.076229166661506,
      "v": 89
    },
    {
      "midi": 28,
      "hit": false,
      "t": 107255.17618749551,
      "d": 137.71170833332872,
      "v": 100
    },
    {
      "midi": 42,
      "hit": false,
      "t": 107265.76939582884,
      "d": 5.296604166665929,
      "v": 52
    },
    {
      "midi": 40,
      "hit": false,
      "t": 107271.06599999551,
      "d": 5.296604166665929,
      "v": 93
    },
    {
      "midi": 59,
      "hit": false,
      "t": 107271.06599999551,
      "d": 5.296604166665929,
      "v": 82
    },
    {
      "midi": 35,
      "hit": false,
      "t": 107271.06599999551,
      "d": 74.15245833333756,
      "v": 120
    },
    {
      "midi": 43,
      "hit": false,
      "t": 107271.06599999551,
      "d": 201.27095833333442,
      "v": 75
    },
    {
      "midi": 74,
      "hit": false,
      "t": 107271.06599999551,
      "d": 503.17739583330695,
      "v": 106
    },
    {
      "midi": 42,
      "hit": false,
      "t": 107403.48110416217,
      "d": 5.296604166665929,
      "v": 44
    },
    {
      "midi": 59,
      "hit": false,
      "t": 107408.77770832884,
      "d": 5.296604166665929,
      "v": 78
    },
    {
      "midi": 26,
      "hit": false,
      "t": 107504.11658332884,
      "d": 121.82189583333093,
      "v": 100
    },
    {
      "midi": 38,
      "hit": false,
      "t": 107504.11658332884,
      "d": 121.82189583333093,
      "v": 100
    },
    {
      "midi": 93,
      "hit": false,
      "t": 107520.00639582884,
      "d": 10.593208333331859,
      "v": 56
    },
    {
      "midi": 98,
      "hit": false,
      "t": 107520.00639582884,
      "d": 10.593208333331859,
      "v": 67
    },
    {
      "midi": 42,
      "hit": false,
      "t": 107525.3029999955,
      "d": 5.296604166665929,
      "v": 101
    },
    {
      "midi": 50,
      "hit": false,
      "t": 107525.3029999955,
      "d": 5.296604166665929,
      "v": 81
    },
    {
      "midi": 57,
      "hit": false,
      "t": 107535.89620832884,
      "d": 5.296604166665929,
      "v": 85
    },
    {
      "midi": 62,
      "hit": false,
      "t": 107546.48941666217,
      "d": 5.296604166665929,
      "v": 96
    },
    {
      "midi": 40,
      "hit": false,
      "t": 107631.23508332884,
      "d": 153.60152083331195,
      "v": 100
    },
    {
      "midi": 95,
      "hit": false,
      "t": 107647.12489582883,
      "d": 10.593208333331859,
      "v": 52
    },
    {
      "midi": 100,
      "hit": false,
      "t": 107647.12489582883,
      "d": 10.593208333331859,
      "v": 63
    },
    {
      "midi": 64,
      "hit": false,
      "t": 107652.4214999955,
      "d": 5.296604166665929,
      "v": 102
    },
    {
      "midi": 52,
      "hit": false,
      "t": 107652.4214999955,
      "d": 58.26264583332522,
      "v": 60
    },
    {
      "midi": 42,
      "hit": false,
      "t": 107657.71810416217,
      "d": 5.296604166665929,
      "v": 47
    },
    {
      "midi": 57,
      "hit": false,
      "t": 107663.01470832883,
      "d": 5.296604166665929,
      "v": 86
    },
    {
      "midi": 50,
      "hit": false,
      "t": 107673.60791666216,
      "d": 5.296604166665929,
      "v": 81
    },
    {
      "midi": 31,
      "hit": false,
      "t": 107758.35358332882,
      "d": 116.525291666665,
      "v": 100
    },
    {
      "midi": 43,
      "hit": false,
      "t": 107758.35358332882,
      "d": 116.525291666665,
      "v": 100
    },
    {
      "midi": 42,
      "hit": false,
      "t": 107774.24339582882,
      "d": 5.296604166665929,
      "v": 67
    },
    {
      "midi": 93,
      "hit": false,
      "t": 107774.24339582882,
      "d": 10.593208333331859,
      "v": 56
    },
    {
      "midi": 98,
      "hit": false,
      "t": 107774.24339582882,
      "d": 10.593208333331859,
      "v": 67
    },
    {
      "midi": 28,
      "hit": false,
      "t": 107779.53999999548,
      "d": 5.296604166665929,
      "v": 63
    },
    {
      "midi": 35,
      "hit": false,
      "t": 107779.53999999548,
      "d": 74.15245833333756,
      "v": 120
    },
    {
      "midi": 57,
      "hit": false,
      "t": 107779.53999999548,
      "d": 90.04227083333535,
      "v": 93
    },
    {
      "midi": 73,
      "hit": false,
      "t": 107779.53999999548,
      "d": 503.1773958333215,
      "v": 92
    },
    {
      "midi": 62,
      "hit": false,
      "t": 107790.13320832881,
      "d": 58.262645833339775,
      "v": 104
    },
    {
      "midi": 31,
      "hit": false,
      "t": 107885.47208332882,
      "d": 148.30491666666057,
      "v": 100
    },
    {
      "midi": 43,
      "hit": false,
      "t": 107885.47208332882,
      "d": 148.30491666666057,
      "v": 100
    },
    {
      "midi": 93,
      "hit": false,
      "t": 107901.36189582881,
      "d": 10.593208333331859,
      "v": 32
    },
    {
      "midi": 98,
      "hit": false,
      "t": 107901.36189582881,
      "d": 10.593208333331859,
      "v": 43
    },
    {
      "midi": 62,
      "hit": false,
      "t": 107906.65849999548,
      "d": 31.779624999995576,
      "v": 102
    },
    {
      "midi": 42,
      "hit": false,
      "t": 107911.95510416215,
      "d": 5.296604166665929,
      "v": 46
    },
    {
      "midi": 57,
      "hit": false,
      "t": 107917.25170832881,
      "d": 5.296604166665929,
      "v": 124
    },
    {
      "midi": 50,
      "hit": false,
      "t": 107927.84491666214,
      "d": 5.296604166665929,
      "v": 89
    },
    {
      "midi": 28,
      "hit": false,
      "t": 108017.88718749548,
      "d": 169.4913333333243,
      "v": 100
    },
    {
      "midi": 40,
      "hit": false,
      "t": 108017.88718749548,
      "d": 169.4913333333243,
      "v": 100
    },
    {
      "midi": 42,
      "hit": false,
      "t": 108033.77699999548,
      "d": 5.296604166665929,
      "v": 86
    },
    {
      "midi": 50,
      "hit": false,
      "t": 108033.77699999548,
      "d": 5.296604166665929,
      "v": 62
    },
    {
      "midi": 57,
      "hit": false,
      "t": 108044.37020832881,
      "d": 5.296604166665929,
      "v": 114
    },
    {
      "midi": 93,
      "hit": false,
      "t": 108155.5988958288,
      "d": 26.483020833329647,
      "v": 52
    },
    {
      "midi": 98,
      "hit": false,
      "t": 108155.5988958288,
      "d": 26.483020833329647,
      "v": 63
    },
    {
      "midi": 52,
      "hit": false,
      "t": 108160.89549999547,
      "d": 90.04227083333535,
      "v": 58
    },
    {
      "midi": 42,
      "hit": false,
      "t": 108166.19210416214,
      "d": 5.296604166665929,
      "v": 47
    },
    {
      "midi": 62,
      "hit": false,
      "t": 108171.4887083288,
      "d": 95.33887500000128,
      "v": 106
    },
    {
      "midi": 57,
      "hit": false,
      "t": 108182.08191666214,
      "d": 90.04227083333535,
      "v": 71
    },
    {
      "midi": 31,
      "hit": false,
      "t": 108277.42079166214,
      "d": 376.05889583332464,
      "v": 100
    },
    {
      "midi": 43,
      "hit": false,
      "t": 108277.42079166214,
      "d": 376.05889583332464,
      "v": 100
    },
    {
      "midi": 42,
      "hit": false,
      "t": 108282.7173958288,
      "d": 5.296604166665929,
      "v": 76
    },
    {
      "midi": 40,
      "hit": false,
      "t": 108288.01399999547,
      "d": 5.296604166665929,
      "v": 93
    },
    {
      "midi": 35,
      "hit": false,
      "t": 108288.01399999547,
      "d": 74.15245833333756,
      "v": 120
    },
    {
      "midi": 57,
      "hit": false,
      "t": 108288.01399999547,
      "d": 90.04227083333535,
      "v": 93
    },
    {
      "midi": 69,
      "hit": false,
      "t": 108288.01399999547,
      "d": 503.17739583330695,
      "v": 89
    },
    {
      "midi": 28,
      "hit": false,
      "t": 108415.13249999547,
      "d": 90.04227083333535,
      "v": 41
    },
    {
      "midi": 42,
      "hit": false,
      "t": 108420.42910416213,
      "d": 5.296604166665929,
      "v": 52
    },
    {
      "midi": 57,
      "hit": false,
      "t": 108425.7257083288,
      "d": 5.296604166665929,
      "v": 124
    },
    {
      "midi": 95,
      "hit": false,
      "t": 108536.9543958288,
      "d": 10.593208333331859,
      "v": 65
    },
    {
      "midi": 100,
      "hit": false,
      "t": 108536.9543958288,
      "d": 10.593208333331859,
      "v": 76
    },
    {
      "midi": 46,
      "hit": false,
      "t": 108542.25099999546,
      "d": 5.296604166665929,
      "v": 78
    },
    {
      "midi": 52,
      "hit": false,
      "t": 108542.25099999546,
      "d": 5.296604166665929,
      "v": 81
    },
    {
      "midi": 55,
      "hit": false,
      "t": 108542.25099999546,
      "d": 90.04227083333535,
      "v": 77
    },
    {
      "midi": 33,
      "hit": false,
      "t": 108658.77629166213,
      "d": 100.63547916665266,
      "v": 100
    },
    {
      "midi": 45,
      "hit": false,
      "t": 108658.77629166213,
      "d": 100.63547916665266,
      "v": 100
    },
    {
      "midi": 57,
      "hit": false,
      "t": 108669.36949999546,
      "d": 5.296604166665929,
      "v": 60
    },
    {
      "midi": 44,
      "hit": false,
      "t": 108674.66610416213,
      "d": 5.296604166665929,
      "v": 78
    },
    {
      "midi": 59,
      "hit": false,
      "t": 108679.96270832879,
      "d": 95.33887499998673,
      "v": 106
    },
    {
      "midi": 50,
      "hit": false,
      "t": 108690.55591666212,
      "d": 5.296604166665929,
      "v": 81
    },
    {
      "midi": 42,
      "hit": false,
      "t": 108791.19139582878,
      "d": 5.296604166665929,
      "v": 52
    },
    {
      "midi": 55,
      "hit": false,
      "t": 108796.48799999544,
      "d": 5.296604166665929,
      "v": 82
    },
    {
      "midi": 35,
      "hit": false,
      "t": 108796.48799999544,
      "d": 74.15245833333756,
      "v": 120
    },
    {
      "midi": 31,
      "hit": false,
      "t": 108796.48799999544,
      "d": 90.04227083333535,
      "v": 77
    },
    {
      "midi": 26,
      "hit": false,
      "t": 108796.48799999544,
      "d": 190.677749999988,
      "v": 100
    },
    {
      "midi": 38,
      "hit": false,
      "t": 108796.48799999544,
      "d": 190.677749999988,
      "v": 100
    },
    {
      "midi": 74,
      "hit": false,
      "t": 108796.48799999544,
      "d": 370.76229166664416,
      "v": 115
    },
    {
      "midi": 54,
      "hit": false,
      "t": 108796.48799999544,
      "d": 2012.7095833331987,
      "v": 68
    },
    {
      "midi": 59,
      "hit": false,
      "t": 108807.08120832877,
      "d": 5.296604166665929,
      "v": 86
    },
    {
      "midi": 59,
      "hit": false,
      "t": 108923.60649999544,
      "d": 5.296604166665929,
      "v": 87
    },
    {
      "midi": 42,
      "hit": false,
      "t": 108928.9031041621,
      "d": 5.296604166665929,
      "v": 44
    },
    {
      "midi": 55,
      "hit": false,
      "t": 108934.19970832877,
      "d": 5.296604166665929,
      "v": 82
    },
    {
      "midi": 98,
      "hit": false,
      "t": 109045.42839582877,
      "d": 10.593208333331859,
      "v": 65
    },
    {
      "midi": 103,
      "hit": false,
      "t": 109045.42839582877,
      "d": 10.593208333331859,
      "v": 76
    },
    {
      "midi": 42,
      "hit": false,
      "t": 109050.72499999544,
      "d": 5.296604166665929,
      "v": 101
    },
    {
      "midi": 55,
      "hit": false,
      "t": 109050.72499999544,
      "d": 21.186416666663717,
      "v": 94
    },
    {
      "midi": 47,
      "hit": false,
      "t": 109050.72499999544,
      "d": 68.85585416665708,
      "v": 64
    },
    {
      "midi": 50,
      "hit": false,
      "t": 109050.72499999544,
      "d": 68.85585416665708,
      "v": 83
    },
    {
      "midi": 69,
      "hit": false,
      "t": 109050.72499999544,
      "d": 248.94039583329868,
      "v": 94
    },
    {
      "midi": 59,
      "hit": false,
      "t": 109061.31820832877,
      "d": 5.296604166665929,
      "v": 105
    },
    {
      "midi": 62,
      "hit": false,
      "t": 109071.9114166621,
      "d": 52.966041666659294,
      "v": 111
    },
    {
      "midi": 26,
      "hit": false,
      "t": 109177.84349999542,
      "d": 47.669437499993364,
      "v": 100
    },
    {
      "midi": 38,
      "hit": false,
      "t": 109177.84349999542,
      "d": 47.669437499993364,
      "v": 100
    },
    {
      "midi": 59,
      "hit": false,
      "t": 109177.84349999542,
      "d": 47.669437499993364,
      "v": 95
    },
    {
      "midi": 31,
      "hit": false,
      "t": 109177.84349999542,
      "d": 90.0422708333208,
      "v": 63
    },
    {
      "midi": 74,
      "hit": false,
      "t": 109177.84349999542,
      "d": 1641.9472916665545,
      "v": 112
    },
    {
      "midi": 42,
      "hit": false,
      "t": 109183.14010416208,
      "d": 5.296604166665929,
      "v": 47
    },
    {
      "midi": 55,
      "hit": false,
      "t": 109188.43670832875,
      "d": 37.076229166661506,
      "v": 90
    },
    {
      "midi": 26,
      "hit": false,
      "t": 109289.0721874954,
      "d": 137.71170833332872,
      "v": 100
    },
    {
      "midi": 42,
      "hit": false,
      "t": 109299.66539582874,
      "d": 5.296604166665929,
      "v": 52
    },
    {
      "midi": 40,
      "hit": false,
      "t": 109304.9619999954,
      "d": 5.296604166665929,
      "v": 93
    },
    {
      "midi": 59,
      "hit": false,
      "t": 109304.9619999954,
      "d": 5.296604166665929,
      "v": 83
    },
    {
      "midi": 35,
      "hit": false,
      "t": 109304.9619999954,
      "d": 74.15245833333756,
      "v": 120
    },
    {
      "midi": 38,
      "hit": false,
      "t": 109304.9619999954,
      "d": 121.82189583333093,
      "v": 63
    },
    {
      "midi": 59,
      "hit": false,
      "t": 109432.0804999954,
      "d": 5.296604166665929,
      "v": 79
    },
    {
      "midi": 62,
      "hit": false,
      "t": 109432.0804999954,
      "d": 52.966041666659294,
      "v": 111
    },
    {
      "midi": 42,
      "hit": false,
      "t": 109437.37710416206,
      "d": 5.296604166665929,
      "v": 44
    },
    {
      "midi": 26,
      "hit": false,
      "t": 109538.01258332872,
      "d": 121.82189583333093,
      "v": 100
    },
    {
      "midi": 38,
      "hit": false,
      "t": 109538.01258332872,
      "d": 121.82189583333093,
      "v": 100
    },
    {
      "midi": 93,
      "hit": false,
      "t": 109553.90239582871,
      "d": 10.593208333331859,
      "v": 56
    },
    {
      "midi": 98,
      "hit": false,
      "t": 109553.90239582871,
      "d": 10.593208333331859,
      "v": 67
    },
    {
      "midi": 42,
      "hit": false,
      "t": 109559.19899999538,
      "d": 5.296604166665929,
      "v": 101
    },
    {
      "midi": 55,
      "hit": false,
      "t": 109559.19899999538,
      "d": 5.296604166665929,
      "v": 82
    },
    {
      "midi": 50,
      "hit": false,
      "t": 109559.19899999538,
      "d": 90.04227083333535,
      "v": 77
    },
    {
      "midi": 62,
      "hit": false,
      "t": 109569.79220832871,
      "d": 5.296604166665929,
      "v": 86
    },
    {
      "midi": 28,
      "hit": false,
      "t": 109665.13108332871,
      "d": 158.89812499997788,
      "v": 100
    },
    {
      "midi": 40,
      "hit": false,
      "t": 109665.13108332871,
      "d": 158.89812499997788,
      "v": 100
    },
    {
      "midi": 95,
      "hit": false,
      "t": 109681.02089582871,
      "d": 10.593208333331859,
      "v": 52
    },
    {
      "midi": 100,
      "hit": false,
      "t": 109681.02089582871,
      "d": 10.593208333331859,
      "v": 63
    },
    {
      "midi": 52,
      "hit": false,
      "t": 109686.31749999538,
      "d": 58.26264583332522,
      "v": 60
    },
    {
      "midi": 42,
      "hit": false,
      "t": 109691.61410416204,
      "d": 5.296604166665929,
      "v": 47
    },
    {
      "midi": 66,
      "hit": false,
      "t": 109696.91070832871,
      "d": 121.82189583331638,
      "v": 127
    },
    {
      "midi": 55,
      "hit": false,
      "t": 109718.09712499537,
      "d": 5.296604166665929,
      "v": 82
    },
    {
      "midi": 43,
      "hit": false,
      "t": 109792.2495833287,
      "d": 116.525291666665,
      "v": 100
    },
    {
      "midi": 42,
      "hit": false,
      "t": 109808.1393958287,
      "d": 5.296604166665929,
      "v": 46
    },
    {
      "midi": 93,
      "hit": false,
      "t": 109808.1393958287,
      "d": 10.593208333331859,
      "v": 56
    },
    {
      "midi": 98,
      "hit": false,
      "t": 109808.1393958287,
      "d": 10.593208333331859,
      "v": 67
    },
    {
      "midi": 35,
      "hit": false,
      "t": 109813.43599999536,
      "d": 74.15245833333756,
      "v": 120
    },
    {
      "midi": 31,
      "hit": false,
      "t": 109813.43599999536,
      "d": 90.04227083333535,
      "v": 63
    },
    {
      "midi": 79,
      "hit": false,
      "t": 109813.43599999536,
      "d": 376.0588958333101,
      "v": 107
    },
    {
      "midi": 64,
      "hit": false,
      "t": 109824.02920832869,
      "d": 121.82189583333093,
      "v": 95
    },
    {
      "midi": 42,
      "hit": false,
      "t": 109898.18166666203,
      "d": 5.296604166665929,
      "v": 62
    },
    {
      "midi": 31,
      "hit": false,
      "t": 109919.36808332869,
      "d": 148.30491666664602,
      "v": 100
    },
    {
      "midi": 43,
      "hit": false,
      "t": 109919.36808332869,
      "d": 148.30491666664602,
      "v": 100
    },
    {
      "midi": 93,
      "hit": false,
      "t": 109935.25789582869,
      "d": 10.593208333331859,
      "v": 32
    },
    {
      "midi": 98,
      "hit": false,
      "t": 109935.25789582869,
      "d": 10.593208333331859,
      "v": 43
    },
    {
      "midi": 55,
      "hit": false,
      "t": 109940.55449999536,
      "d": 90.0422708333208,
      "v": 77
    },
    {
      "midi": 62,
      "hit": false,
      "t": 109951.14770832869,
      "d": 68.85585416665708,
      "v": 95
    },
    {
      "midi": 42,
      "hit": false,
      "t": 109982.92733332868,
      "d": 5.296604166665929,
      "v": 77
    },
    {
      "midi": 28,
      "hit": false,
      "t": 110051.78318749534,
      "d": 169.4913333333243,
      "v": 100
    },
    {
      "midi": 40,
      "hit": false,
      "t": 110051.78318749534,
      "d": 169.4913333333243,
      "v": 100
    },
    {
      "midi": 42,
      "hit": false,
      "t": 110067.67299999534,
      "d": 5.296604166665929,
      "v": 86
    },
    {
      "midi": 55,
      "hit": false,
      "t": 110067.67299999534,
      "d": 5.296604166665929,
      "v": 63
    },
    {
      "midi": 62,
      "hit": false,
      "t": 110067.67299999534,
      "d": 5.296604166665929,
      "v": 80
    },
    {
      "midi": 93,
      "hit": false,
      "t": 110189.49489582867,
      "d": 26.483020833329647,
      "v": 52
    },
    {
      "midi": 98,
      "hit": false,
      "t": 110189.49489582867,
      "d": 26.483020833329647,
      "v": 63
    },
    {
      "midi": 52,
      "hit": false,
      "t": 110194.79149999534,
      "d": 90.04227083333535,
      "v": 50
    },
    {
      "midi": 78,
      "hit": false,
      "t": 110194.79149999534,
      "d": 376.05889583332464,
      "v": 101
    },
    {
      "midi": 42,
      "hit": false,
      "t": 110200.088104162,
      "d": 5.296604166665929,
      "v": 47
    },
    {
      "midi": 62,
      "hit": false,
      "t": 110215.977916662,
      "d": 84.74566666666942,
      "v": 87
    },
    {
      "midi": 55,
      "hit": false,
      "t": 110226.57112499533,
      "d": 5.296604166665929,
      "v": 82
    },
    {
      "midi": 31,
      "hit": false,
      "t": 110311.316791662,
      "d": 121.82189583333093,
      "v": 100
    },
    {
      "midi": 43,
      "hit": false,
      "t": 110311.316791662,
      "d": 121.82189583333093,
      "v": 100
    },
    {
      "midi": 42,
      "hit": false,
      "t": 110316.61339582867,
      "d": 5.296604166665929,
      "v": 76
    },
    {
      "midi": 40,
      "hit": false,
      "t": 110321.90999999533,
      "d": 5.296604166665929,
      "v": 93
    },
    {
      "midi": 62,
      "hit": false,
      "t": 110321.90999999533,
      "d": 5.296604166665929,
      "v": 80
    },
    {
      "midi": 35,
      "hit": false,
      "t": 110321.90999999533,
      "d": 74.15245833333756,
      "v": 120
    },
    {
      "midi": 55,
      "hit": false,
      "t": 110321.90999999533,
      "d": 90.04227083333535,
      "v": 69
    },
    {
      "midi": 31,
      "hit": false,
      "t": 110438.435291662,
      "d": 169.4913333333243,
      "v": 100
    },
    {
      "midi": 43,
      "hit": false,
      "t": 110449.02849999533,
      "d": 90.04227083333535,
      "v": 41
    },
    {
      "midi": 42,
      "hit": false,
      "t": 110454.325104162,
      "d": 5.296604166665929,
      "v": 52
    },
    {
      "midi": 62,
      "hit": false,
      "t": 110470.214916662,
      "d": 5.296604166665929,
      "v": 87
    },
    {
      "midi": 33,
      "hit": false,
      "t": 110565.553791662,
      "d": 100.63547916666721,
      "v": 100
    },
    {
      "midi": 45,
      "hit": false,
      "t": 110565.553791662,
      "d": 100.63547916666721,
      "v": 100
    },
    {
      "midi": 95,
      "hit": false,
      "t": 110570.85039582866,
      "d": 10.593208333331859,
      "v": 65
    },
    {
      "midi": 100,
      "hit": false,
      "t": 110570.85039582866,
      "d": 10.593208333331859,
      "v": 76
    },
    {
      "midi": 42,
      "hit": false,
      "t": 110576.14699999533,
      "d": 5.296604166665929,
      "v": 78
    },
    {
      "midi": 55,
      "hit": false,
      "t": 110576.14699999533,
      "d": 90.04227083333535,
      "v": 77
    },
    {
      "midi": 62,
      "hit": false,
      "t": 110576.14699999533,
      "d": 127.11849999999686,
      "v": 115
    },
    {
      "midi": 76,
      "hit": false,
      "t": 110576.14699999533,
      "d": 248.94039583331323,
      "v": 106
    },
    {
      "midi": 57,
      "hit": false,
      "t": 110703.26549999532,
      "d": 58.26264583332522,
      "v": 60
    },
    {
      "midi": 47,
      "hit": false,
      "t": 110703.26549999532,
      "d": 74.15245833332301,
      "v": 127
    },
    {
      "midi": 42,
      "hit": false,
      "t": 110708.56210416199,
      "d": 5.296604166665929,
      "v": 78
    },
    {
      "midi": 42,
      "hit": false,
      "t": 110825.08739582864,
      "d": 5.296604166665929,
      "v": 52
    },
    {
      "midi": 57,
      "hit": false,
      "t": 110830.3839999953,
      "d": 5.296604166665929,
      "v": 75
    },
    {
      "midi": 35,
      "hit": false,
      "t": 110830.3839999953,
      "d": 74.15245833333756,
      "v": 120
    },
    {
      "midi": 33,
      "hit": false,
      "t": 110830.3839999953,
      "d": 90.04227083333535,
      "v": 77
    },
    {
      "midi": 21,
      "hit": false,
      "t": 110830.3839999953,
      "d": 190.677749999988,
      "v": 100
    },
    {
      "midi": 69,
      "hit": false,
      "t": 110830.3839999953,
      "d": 423.728333333318,
      "v": 110
    },
    {
      "midi": 49,
      "hit": false,
      "t": 110830.3839999953,
      "d": 4046.6055833330756,
      "v": 39
    },
    {
      "midi": 81,
      "hit": false,
      "t": 110830.3839999953,
      "d": 4057.1987916664075,
      "v": 117
    },
    {
      "midi": 64,
      "hit": false,
      "t": 110840.97720832864,
      "d": 5.296604166665929,
      "v": 79
    },
    {
      "midi": 64,
      "hit": false,
      "t": 110957.5024999953,
      "d": 5.296604166665929,
      "v": 80
    },
    {
      "midi": 42,
      "hit": false,
      "t": 110962.79910416197,
      "d": 5.296604166665929,
      "v": 44
    },
    {
      "midi": 57,
      "hit": false,
      "t": 110968.09570832863,
      "d": 5.296604166665929,
      "v": 75
    },
    {
      "midi": 98,
      "hit": false,
      "t": 111079.32439582863,
      "d": 10.593208333331859,
      "v": 65
    },
    {
      "midi": 103,
      "hit": false,
      "t": 111079.32439582863,
      "d": 10.593208333331859,
      "v": 76
    },
    {
      "midi": 42,
      "hit": false,
      "t": 111084.6209999953,
      "d": 5.296604166665929,
      "v": 101
    },
    {
      "midi": 57,
      "hit": false,
      "t": 111084.6209999953,
      "d": 21.186416666663717,
      "v": 87
    },
    {
      "midi": 52,
      "hit": false,
      "t": 111084.6209999953,
      "d": 68.85585416665708,
      "v": 64
    },
    {
      "midi": 55,
      "hit": false,
      "t": 111084.6209999953,
      "d": 68.85585416665708,
      "v": 83
    },
    {
      "midi": 73,
      "hit": false,
      "t": 111084.6209999953,
      "d": 3802.961791666414,
      "v": 114
    },
    {
      "midi": 64,
      "hit": false,
      "t": 111095.21420832863,
      "d": 5.296604166665929,
      "v": 98
    },
    {
      "midi": 64,
      "hit": false,
      "t": 111211.7394999953,
      "d": 5.296604166665929,
      "v": 62
    },
    {
      "midi": 21,
      "hit": false,
      "t": 111211.7394999953,
      "d": 47.669437499993364,
      "v": 100
    },
    {
      "midi": 33,
      "hit": false,
      "t": 111211.7394999953,
      "d": 47.669437499993364,
      "v": 100
    },
    {
      "midi": 45,
      "hit": false,
      "t": 111211.7394999953,
      "d": 90.0422708333208,
      "v": 63
    },
    {
      "midi": 42,
      "hit": false,
      "t": 111217.03610416196,
      "d": 5.296604166665929,
      "v": 47
    },
    {
      "midi": 57,
      "hit": false,
      "t": 111222.33270832863,
      "d": 37.076229166661506,
      "v": 83
    },
    {
      "midi": 21,
      "hit": false,
      "t": 111322.96818749528,
      "d": 137.71170833331416,
      "v": 100
    },
    {
      "midi": 33,
      "hit": false,
      "t": 111322.96818749528,
      "d": 137.71170833331416,
      "v": 100
    },
    {
      "midi": 42,
      "hit": false,
      "t": 111333.56139582861,
      "d": 5.296604166665929,
      "v": 52
    },
    {
      "midi": 40,
      "hit": false,
      "t": 111338.85799999528,
      "d": 5.296604166665929,
      "v": 93
    },
    {
      "midi": 57,
      "hit": false,
      "t": 111338.85799999528,
      "d": 5.296604166665929,
      "v": 75
    },
    {
      "midi": 64,
      "hit": false,
      "t": 111338.85799999528,
      "d": 37.076229166661506,
      "v": 86
    },
    {
      "midi": 35,
      "hit": false,
      "t": 111338.85799999528,
      "d": 74.15245833332301,
      "v": 120
    },
    {
      "midi": 45,
      "hit": false,
      "t": 111338.85799999528,
      "d": 201.27095833330532,
      "v": 63
    },
    {
      "midi": 76,
      "hit": false,
      "t": 111360.04441666194,
      "d": 21.186416666663717,
      "v": 121
    },
    {
      "midi": 64,
      "hit": false,
      "t": 111465.97649999526,
      "d": 37.076229166661506,
      "v": 82
    },
    {
      "midi": 42,
      "hit": false,
      "t": 111471.27310416193,
      "d": 5.296604166665929,
      "v": 44
    },
    {
      "midi": 57,
      "hit": false,
      "t": 111476.56970832859,
      "d": 5.296604166665929,
      "v": 75
    },
    {
      "midi": 76,
      "hit": false,
      "t": 111476.56970832859,
      "d": 21.186416666663717,
      "v": 104
    },
    {
      "midi": 26,
      "hit": false,
      "t": 111571.90858332858,
      "d": 121.82189583333093,
      "v": 100
    },
    {
      "midi": 38,
      "hit": false,
      "t": 111571.90858332858,
      "d": 121.82189583333093,
      "v": 100
    },
    {
      "midi": 93,
      "hit": false,
      "t": 111587.79839582858,
      "d": 10.593208333331859,
      "v": 56
    },
    {
      "midi": 98,
      "hit": false,
      "t": 111587.79839582858,
      "d": 10.593208333331859,
      "v": 67
    },
    {
      "midi": 42,
      "hit": false,
      "t": 111593.09499999524,
      "d": 5.296604166665929,
      "v": 101
    },
    {
      "midi": 57,
      "hit": false,
      "t": 111593.09499999524,
      "d": 5.296604166665929,
      "v": 75
    },
    {
      "midi": 50,
      "hit": false,
      "t": 111593.09499999524,
      "d": 90.04227083333535,
      "v": 77
    },
    {
      "midi": 64,
      "hit": false,
      "t": 111603.68820832857,
      "d": 5.296604166665929,
      "v": 79
    },
    {
      "midi": 76,
      "hit": false,
      "t": 111614.2814166619,
      "d": 15.889812499997788,
      "v": 116
    },
    {
      "midi": 28,
      "hit": false,
      "t": 111699.02708332858,
      "d": 121.82189583331638,
      "v": 100
    },
    {
      "midi": 40,
      "hit": false,
      "t": 111699.02708332858,
      "d": 121.82189583331638,
      "v": 100
    },
    {
      "midi": 95,
      "hit": false,
      "t": 111714.91689582857,
      "d": 10.593208333331859,
      "v": 52
    },
    {
      "midi": 100,
      "hit": false,
      "t": 111714.91689582857,
      "d": 10.593208333331859,
      "v": 63
    },
    {
      "midi": 38,
      "hit": false,
      "t": 111720.21349999524,
      "d": 5.296604166665929,
      "v": 30
    },
    {
      "midi": 52,
      "hit": false,
      "t": 111720.21349999524,
      "d": 58.26264583332522,
      "v": 60
    },
    {
      "midi": 42,
      "hit": false,
      "t": 111725.5101041619,
      "d": 5.296604166665929,
      "v": 47
    },
    {
      "midi": 76,
      "hit": false,
      "t": 111730.80670832857,
      "d": 15.889812499997788,
      "v": 100
    },
    {
      "midi": 64,
      "hit": false,
      "t": 111741.3999166619,
      "d": 5.296604166665929,
      "v": 80
    },
    {
      "midi": 57,
      "hit": false,
      "t": 111751.99312499524,
      "d": 5.296604166665929,
      "v": 75
    },
    {
      "midi": 38,
      "hit": false,
      "t": 111762.58633332857,
      "d": 5.296604166665929,
      "v": 30
    },
    {
      "midi": 38,
      "hit": false,
      "t": 111804.9591666619,
      "d": 5.296604166665929,
      "v": 30
    },
    {
      "midi": 28,
      "hit": false,
      "t": 111826.14558332856,
      "d": 148.30491666666057,
      "v": 100
    },
    {
      "midi": 40,
      "hit": false,
      "t": 111826.14558332856,
      "d": 148.30491666666057,
      "v": 100
    },
    {
      "midi": 42,
      "hit": false,
      "t": 111842.03539582856,
      "d": 5.296604166665929,
      "v": 67
    },
    {
      "midi": 93,
      "hit": false,
      "t": 111842.03539582856,
      "d": 10.593208333331859,
      "v": 56
    },
    {
      "midi": 98,
      "hit": false,
      "t": 111842.03539582856,
      "d": 10.593208333331859,
      "v": 67
    },
    {
      "midi": 38,
      "hit": false,
      "t": 111847.33199999522,
      "d": 5.296604166665929,
      "v": 30
    },
    {
      "midi": 35,
      "hit": false,
      "t": 111847.33199999522,
      "d": 74.15245833333756,
      "v": 120
    },
    {
      "midi": 33,
      "hit": false,
      "t": 111847.33199999522,
      "d": 90.04227083333535,
      "v": 63
    },
    {
      "midi": 76,
      "hit": false,
      "t": 111847.33199999522,
      "d": 127.11849999999686,
      "v": 108
    },
    {
      "midi": 71,
      "hit": false,
      "t": 111857.92520832855,
      "d": 116.525291666665,
      "v": 116
    },
    {
      "midi": 31,
      "hit": false,
      "t": 111953.26408332855,
      "d": 148.30491666666057,
      "v": 100
    },
    {
      "midi": 43,
      "hit": false,
      "t": 111953.26408332855,
      "d": 148.30491666666057,
      "v": 100
    },
    {
      "midi": 93,
      "hit": false,
      "t": 111969.15389582855,
      "d": 10.593208333331859,
      "v": 32
    },
    {
      "midi": 98,
      "hit": false,
      "t": 111969.15389582855,
      "d": 10.593208333331859,
      "v": 43
    },
    {
      "midi": 50,
      "hit": false,
      "t": 111974.45049999522,
      "d": 90.04227083333535,
      "v": 77
    },
    {
      "midi": 42,
      "hit": false,
      "t": 111979.74710416188,
      "d": 5.296604166665929,
      "v": 46
    },
    {
      "midi": 76,
      "hit": false,
      "t": 111985.04370832855,
      "d": 105.93208333333314,
      "v": 123
    },
    {
      "midi": 71,
      "hit": false,
      "t": 111995.63691666188,
      "d": 95.33887500000128,
      "v": 111
    },
    {
      "midi": 28,
      "hit": false,
      "t": 112090.97579166188,
      "d": 169.4913333333243,
      "v": 100
    },
    {
      "midi": 40,
      "hit": false,
      "t": 112090.97579166188,
      "d": 169.4913333333243,
      "v": 100
    },
    {
      "midi": 42,
      "hit": false,
      "t": 112101.56899999522,
      "d": 5.296604166665929,
      "v": 86
    },
    {
      "midi": 71,
      "hit": false,
      "t": 112101.56899999522,
      "d": 127.11849999999686,
      "v": 114
    },
    {
      "midi": 76,
      "hit": false,
      "t": 112101.56899999522,
      "d": 127.11849999999686,
      "v": 108
    },
    {
      "midi": 93,
      "hit": false,
      "t": 112223.39089582855,
      "d": 26.483020833329647,
      "v": 52
    },
    {
      "midi": 98,
      "hit": false,
      "t": 112223.39089582855,
      "d": 26.483020833329647,
      "v": 63
    },
    {
      "midi": 52,
      "hit": false,
      "t": 112228.68749999521,
      "d": 90.0422708333208,
      "v": 77
    },
    {
      "midi": 42,
      "hit": false,
      "t": 112233.98410416188,
      "d": 5.296604166665929,
      "v": 47
    },
    {
      "midi": 76,
      "hit": false,
      "t": 112239.28070832854,
      "d": 84.74566666665487,
      "v": 118
    },
    {
      "midi": 71,
      "hit": false,
      "t": 112249.87391666188,
      "d": 79.44906249998894,
      "v": 59
    },
    {
      "midi": 57,
      "hit": false,
      "t": 112260.46712499521,
      "d": 5.296604166665929,
      "v": 75
    },
    {
      "midi": 42,
      "hit": false,
      "t": 112350.50939582853,
      "d": 5.296604166665929,
      "v": 76
    },
    {
      "midi": 31,
      "hit": false,
      "t": 112350.50939582853,
      "d": 121.82189583333093,
      "v": 100
    },
    {
      "midi": 43,
      "hit": false,
      "t": 112350.50939582853,
      "d": 121.82189583333093,
      "v": 100
    },
    {
      "midi": 40,
      "hit": false,
      "t": 112355.8059999952,
      "d": 5.296604166665929,
      "v": 93
    },
    {
      "midi": 57,
      "hit": false,
      "t": 112355.8059999952,
      "d": 5.296604166665929,
      "v": 75
    },
    {
      "midi": 35,
      "hit": false,
      "t": 112355.8059999952,
      "d": 74.15245833333756,
      "v": 120
    },
    {
      "midi": 64,
      "hit": false,
      "t": 112366.39920832853,
      "d": 5.296604166665929,
      "v": 79
    },
    {
      "midi": 76,
      "hit": false,
      "t": 112482.92449999519,
      "d": 10.593208333331859,
      "v": 87
    },
    {
      "midi": 33,
      "hit": false,
      "t": 112482.92449999519,
      "d": 90.04227083333535,
      "v": 41
    },
    {
      "midi": 42,
      "hit": false,
      "t": 112488.22110416186,
      "d": 5.296604166665929,
      "v": 52
    },
    {
      "midi": 64,
      "hit": false,
      "t": 112493.51770832852,
      "d": 5.296604166665929,
      "v": 75
    },
    {
      "midi": 95,
      "hit": false,
      "t": 112604.74639582852,
      "d": 10.593208333331859,
      "v": 65
    },
    {
      "midi": 100,
      "hit": false,
      "t": 112604.74639582852,
      "d": 10.593208333331859,
      "v": 76
    },
    {
      "midi": 31,
      "hit": false,
      "t": 112604.74639582852,
      "d": 143.00831249999464,
      "v": 100
    },
    {
      "midi": 43,
      "hit": false,
      "t": 112604.74639582852,
      "d": 143.00831249999464,
      "v": 100
    },
    {
      "midi": 46,
      "hit": false,
      "t": 112610.04299999519,
      "d": 5.296604166665929,
      "v": 78
    },
    {
      "midi": 57,
      "hit": false,
      "t": 112610.04299999519,
      "d": 21.186416666663717,
      "v": 87
    },
    {
      "midi": 55,
      "hit": false,
      "t": 112610.04299999519,
      "d": 90.04227083333535,
      "v": 77
    },
    {
      "midi": 64,
      "hit": false,
      "t": 112620.63620832852,
      "d": 5.296604166665929,
      "v": 98
    },
    {
      "midi": 33,
      "hit": false,
      "t": 112731.86489582852,
      "d": 100.63547916665266,
      "v": 100
    },
    {
      "midi": 45,
      "hit": false,
      "t": 112731.86489582852,
      "d": 100.63547916665266,
      "v": 100
    },
    {
      "midi": 64,
      "hit": false,
      "t": 112737.16149999519,
      "d": 5.296604166665929,
      "v": 62
    },
    {
      "midi": 44,
      "hit": false,
      "t": 112742.45810416185,
      "d": 5.296604166665929,
      "v": 78
    },
    {
      "midi": 57,
      "hit": false,
      "t": 112747.75470832852,
      "d": 37.076229166661506,
      "v": 83
    },
    {
      "midi": 42,
      "hit": false,
      "t": 112858.9833958285,
      "d": 5.296604166665929,
      "v": 52
    },
    {
      "midi": 57,
      "hit": false,
      "t": 112864.27999999517,
      "d": 5.296604166665929,
      "v": 75
    },
    {
      "midi": 35,
      "hit": false,
      "t": 112864.27999999517,
      "d": 74.15245833333756,
      "v": 120
    },
    {
      "midi": 33,
      "hit": false,
      "t": 112864.27999999517,
      "d": 90.04227083333535,
      "v": 77
    },
    {
      "midi": 21,
      "hit": false,
      "t": 112864.27999999517,
      "d": 190.677749999988,
      "v": 100
    },
    {
      "midi": 64,
      "hit": false,
      "t": 112874.8732083285,
      "d": 5.296604166665929,
      "v": 79
    },
    {
      "midi": 64,
      "hit": false,
      "t": 112991.39849999516,
      "d": 5.296604166665929,
      "v": 80
    },
    {
      "midi": 42,
      "hit": false,
      "t": 112996.69510416183,
      "d": 5.296604166665929,
      "v": 44
    },
    {
      "midi": 57,
      "hit": false,
      "t": 113001.9917083285,
      "d": 5.296604166665929,
      "v": 75
    },
    {
      "midi": 98,
      "hit": false,
      "t": 113113.2203958285,
      "d": 10.593208333331859,
      "v": 65
    },
    {
      "midi": 103,
      "hit": false,
      "t": 113113.2203958285,
      "d": 10.593208333331859,
      "v": 76
    },
    {
      "midi": 42,
      "hit": false,
      "t": 113118.51699999516,
      "d": 5.296604166665929,
      "v": 101
    },
    {
      "midi": 57,
      "hit": false,
      "t": 113118.51699999516,
      "d": 21.186416666663717,
      "v": 87
    },
    {
      "midi": 45,
      "hit": false,
      "t": 113118.51699999516,
      "d": 52.966041666659294,
      "v": 61
    },
    {
      "midi": 50,
      "hit": false,
      "t": 113118.51699999516,
      "d": 52.966041666659294,
      "v": 80
    },
    {
      "midi": 64,
      "hit": false,
      "t": 113129.1102083285,
      "d": 5.296604166665929,
      "v": 98
    },
    {
      "midi": 64,
      "hit": false,
      "t": 113245.63549999516,
      "d": 5.296604166665929,
      "v": 62
    },
    {
      "midi": 21,
      "hit": false,
      "t": 113245.63549999516,
      "d": 47.669437499993364,
      "v": 100
    },
    {
      "midi": 33,
      "hit": false,
      "t": 113245.63549999516,
      "d": 47.669437499993364,
      "v": 100
    },
    {
      "midi": 76,
      "hit": false,
      "t": 113245.63549999516,
      "d": 74.15245833332301,
      "v": 107
    },
    {
      "midi": 45,
      "hit": false,
      "t": 113245.63549999516,
      "d": 90.0422708333208,
      "v": 63
    },
    {
      "midi": 42,
      "hit": false,
      "t": 113250.93210416182,
      "d": 5.296604166665929,
      "v": 47
    },
    {
      "midi": 57,
      "hit": false,
      "t": 113256.22870832849,
      "d": 37.076229166661506,
      "v": 83
    },
    {
      "midi": 21,
      "hit": false,
      "t": 113356.86418749514,
      "d": 137.71170833331416,
      "v": 100
    },
    {
      "midi": 33,
      "hit": false,
      "t": 113356.86418749514,
      "d": 137.71170833331416,
      "v": 100
    },
    {
      "midi": 42,
      "hit": false,
      "t": 113367.45739582847,
      "d": 5.296604166665929,
      "v": 52
    },
    {
      "midi": 40,
      "hit": false,
      "t": 113372.75399999514,
      "d": 5.296604166665929,
      "v": 93
    },
    {
      "midi": 57,
      "hit": false,
      "t": 113372.75399999514,
      "d": 5.296604166665929,
      "v": 75
    },
    {
      "midi": 64,
      "hit": false,
      "t": 113372.75399999514,
      "d": 37.076229166661506,
      "v": 86
    },
    {
      "midi": 35,
      "hit": false,
      "t": 113372.75399999514,
      "d": 74.15245833332301,
      "v": 120
    },
    {
      "midi": 78,
      "hit": false,
      "t": 113499.87249999512,
      "d": 74.15245833333756,
      "v": 107
    },
    {
      "midi": 40,
      "hit": false,
      "t": 113499.87249999512,
      "d": 90.04227083333535,
      "v": 63
    },
    {
      "midi": 42,
      "hit": false,
      "t": 113505.16910416179,
      "d": 5.296604166665929,
      "v": 44
    },
    {
      "midi": 64,
      "hit": false,
      "t": 113510.46570832845,
      "d": 5.296604166665929,
      "v": 75
    },
    {
      "midi": 26,
      "hit": false,
      "t": 113605.80458332846,
      "d": 121.82189583333093,
      "v": 100
    },
    {
      "midi": 38,
      "hit": false,
      "t": 113605.80458332846,
      "d": 121.82189583333093,
      "v": 100
    },
    {
      "midi": 93,
      "hit": false,
      "t": 113621.69439582845,
      "d": 10.593208333331859,
      "v": 56
    },
    {
      "midi": 98,
      "hit": false,
      "t": 113621.69439582845,
      "d": 10.593208333331859,
      "v": 67
    },
    {
      "midi": 42,
      "hit": false,
      "t": 113626.99099999512,
      "d": 5.296604166665929,
      "v": 101
    },
    {
      "midi": 57,
      "hit": false,
      "t": 113626.99099999512,
      "d": 5.296604166665929,
      "v": 75
    },
    {
      "midi": 50,
      "hit": false,
      "t": 113626.99099999512,
      "d": 90.04227083333535,
      "v": 77
    },
    {
      "midi": 64,
      "hit": false,
      "t": 113637.58420832845,
      "d": 5.296604166665929,
      "v": 79
    },
    {
      "midi": 28,
      "hit": false,
      "t": 113732.92308332845,
      "d": 121.82189583331638,
      "v": 100
    },
    {
      "midi": 40,
      "hit": false,
      "t": 113732.92308332845,
      "d": 121.82189583331638,
      "v": 100
    },
    {
      "midi": 95,
      "hit": false,
      "t": 113748.81289582845,
      "d": 10.593208333331859,
      "v": 52
    },
    {
      "midi": 100,
      "hit": false,
      "t": 113748.81289582845,
      "d": 10.593208333331859,
      "v": 63
    },
    {
      "midi": 52,
      "hit": false,
      "t": 113754.10949999512,
      "d": 58.26264583332522,
      "v": 60
    },
    {
      "midi": 42,
      "hit": false,
      "t": 113759.40610416178,
      "d": 5.296604166665929,
      "v": 47
    },
    {
      "midi": 64,
      "hit": false,
      "t": 113775.29591666178,
      "d": 5.296604166665929,
      "v": 80
    },
    {
      "midi": 57,
      "hit": false,
      "t": 113785.88912499511,
      "d": 5.296604166665929,
      "v": 75
    },
    {
      "midi": 28,
      "hit": false,
      "t": 113860.04158332844,
      "d": 148.30491666666057,
      "v": 100
    },
    {
      "midi": 40,
      "hit": false,
      "t": 113860.04158332844,
      "d": 148.30491666666057,
      "v": 100
    },
    {
      "midi": 42,
      "hit": false,
      "t": 113875.93139582843,
      "d": 5.296604166665929,
      "v": 67
    },
    {
      "midi": 93,
      "hit": false,
      "t": 113875.93139582843,
      "d": 10.593208333331859,
      "v": 56
    },
    {
      "midi": 98,
      "hit": false,
      "t": 113875.93139582843,
      "d": 10.593208333331859,
      "v": 67
    },
    {
      "midi": 35,
      "hit": false,
      "t": 113881.2279999951,
      "d": 74.15245833333756,
      "v": 120
    },
    {
      "midi": 33,
      "hit": false,
      "t": 113881.2279999951,
      "d": 90.04227083333535,
      "v": 63
    },
    {
      "midi": 76,
      "hit": false,
      "t": 113881.2279999951,
      "d": 105.93208333333314,
      "v": 89
    },
    {
      "midi": 71,
      "hit": false,
      "t": 113891.82120832843,
      "d": 100.63547916666721,
      "v": 116
    },
    {
      "midi": 31,
      "hit": false,
      "t": 113987.16008332843,
      "d": 148.30491666666057,
      "v": 100
    },
    {
      "midi": 43,
      "hit": false,
      "t": 113987.16008332843,
      "d": 148.30491666666057,
      "v": 100
    },
    {
      "midi": 93,
      "hit": false,
      "t": 114003.04989582843,
      "d": 10.593208333331859,
      "v": 32
    },
    {
      "midi": 98,
      "hit": false,
      "t": 114003.04989582843,
      "d": 10.593208333331859,
      "v": 43
    },
    {
      "midi": 40,
      "hit": false,
      "t": 114008.3464999951,
      "d": 5.296604166665929,
      "v": 93
    },
    {
      "midi": 55,
      "hit": false,
      "t": 114008.3464999951,
      "d": 90.04227083333535,
      "v": 77
    },
    {
      "midi": 42,
      "hit": false,
      "t": 114013.64310416176,
      "d": 5.296604166665929,
      "v": 46
    },
    {
      "midi": 76,
      "hit": false,
      "t": 114018.93970832843,
      "d": 84.74566666666942,
      "v": 107
    },
    {
      "midi": 71,
      "hit": false,
      "t": 114029.53291666176,
      "d": 79.44906250000349,
      "v": 111
    },
    {
      "midi": 28,
      "hit": false,
      "t": 114124.87179166176,
      "d": 169.4913333333243,
      "v": 100
    },
    {
      "midi": 40,
      "hit": false,
      "t": 114124.87179166176,
      "d": 169.4913333333243,
      "v": 100
    },
    {
      "midi": 42,
      "hit": false,
      "t": 114135.46499999509,
      "d": 5.296604166665929,
      "v": 86
    },
    {
      "midi": 76,
      "hit": false,
      "t": 114135.46499999509,
      "d": 105.93208333333314,
      "v": 102
    },
    {
      "midi": 71,
      "hit": false,
      "t": 114135.46499999509,
      "d": 111.22868749999907,
      "v": 114
    },
    {
      "midi": 93,
      "hit": false,
      "t": 114257.28689582842,
      "d": 26.483020833329647,
      "v": 52
    },
    {
      "midi": 98,
      "hit": false,
      "t": 114257.28689582842,
      "d": 26.483020833329647,
      "v": 63
    },
    {
      "midi": 38,
      "hit": false,
      "t": 114262.58349999509,
      "d": 5.296604166665929,
      "v": 30
    },
    {
      "midi": 52,
      "hit": false,
      "t": 114262.58349999509,
      "d": 90.0422708333208,
      "v": 50
    },
    {
      "midi": 42,
      "hit": false,
      "t": 114267.88010416176,
      "d": 5.296604166665929,
      "v": 47
    },
    {
      "midi": 76,
      "hit": false,
      "t": 114273.17670832842,
      "d": 68.85585416665708,
      "v": 99
    },
    {
      "midi": 71,
      "hit": false,
      "t": 114283.76991666175,
      "d": 63.55924999999115,
      "v": 75
    },
    {
      "midi": 57,
      "hit": false,
      "t": 114294.36312499508,
      "d": 5.296604166665929,
      "v": 75
    },
    {
      "midi": 38,
      "hit": false,
      "t": 114304.95633332842,
      "d": 5.296604166665929,
      "v": 30
    },
    {
      "midi": 38,
      "hit": false,
      "t": 114347.32916666174,
      "d": 5.296604166665929,
      "v": 30
    },
    {
      "midi": 42,
      "hit": false,
      "t": 114384.4053958284,
      "d": 5.296604166665929,
      "v": 76
    },
    {
      "midi": 31,
      "hit": false,
      "t": 114384.4053958284,
      "d": 121.82189583333093,
      "v": 100
    },
    {
      "midi": 43,
      "hit": false,
      "t": 114384.4053958284,
      "d": 121.82189583333093,
      "v": 100
    },
    {
      "midi": 38,
      "hit": false,
      "t": 114389.70199999507,
      "d": 5.296604166665929,
      "v": 30
    },
    {
      "midi": 40,
      "hit": false,
      "t": 114389.70199999507,
      "d": 5.296604166665929,
      "v": 93
    },
    {
      "midi": 57,
      "hit": false,
      "t": 114389.70199999507,
      "d": 5.296604166665929,
      "v": 75
    },
    {
      "midi": 35,
      "hit": false,
      "t": 114389.70199999507,
      "d": 74.15245833333756,
      "v": 120
    },
    {
      "midi": 55,
      "hit": false,
      "t": 114389.70199999507,
      "d": 90.04227083333535,
      "v": 69
    },
    {
      "midi": 64,
      "hit": false,
      "t": 114400.2952083284,
      "d": 5.296604166665929,
      "v": 79
    },
    {
      "midi": 76,
      "hit": false,
      "t": 114516.82049999507,
      "d": 10.593208333331859,
      "v": 87
    },
    {
      "midi": 43,
      "hit": false,
      "t": 114516.82049999507,
      "d": 90.04227083333535,
      "v": 41
    },
    {
      "midi": 42,
      "hit": false,
      "t": 114522.11710416173,
      "d": 5.296604166665929,
      "v": 52
    },
    {
      "midi": 64,
      "hit": false,
      "t": 114527.4137083284,
      "d": 5.296604166665929,
      "v": 75
    },
    {
      "midi": 95,
      "hit": false,
      "t": 114638.6423958284,
      "d": 10.593208333331859,
      "v": 65
    },
    {
      "midi": 100,
      "hit": false,
      "t": 114638.6423958284,
      "d": 10.593208333331859,
      "v": 76
    },
    {
      "midi": 31,
      "hit": false,
      "t": 114638.6423958284,
      "d": 143.00831249999464,
      "v": 100
    },
    {
      "midi": 43,
      "hit": false,
      "t": 114638.6423958284,
      "d": 143.00831249999464,
      "v": 100
    },
    {
      "midi": 40,
      "hit": false,
      "t": 114643.93899999507,
      "d": 5.296604166665929,
      "v": 93
    },
    {
      "midi": 42,
      "hit": false,
      "t": 114643.93899999507,
      "d": 5.296604166665929,
      "v": 78
    },
    {
      "midi": 57,
      "hit": false,
      "t": 114643.93899999507,
      "d": 21.186416666663717,
      "v": 87
    },
    {
      "midi": 55,
      "hit": false,
      "t": 114643.93899999507,
      "d": 90.04227083333535,
      "v": 77
    },
    {
      "midi": 64,
      "hit": false,
      "t": 114654.5322083284,
      "d": 5.296604166665929,
      "v": 98
    },
    {
      "midi": 42,
      "hit": false,
      "t": 114728.68466666173,
      "d": 5.296604166665929,
      "v": 57
    },
    {
      "midi": 33,
      "hit": false,
      "t": 114765.7608958284,
      "d": 100.63547916665266,
      "v": 100
    },
    {
      "midi": 45,
      "hit": false,
      "t": 114765.7608958284,
      "d": 100.63547916665266,
      "v": 100
    },
    {
      "midi": 40,
      "hit": false,
      "t": 114771.05749999506,
      "d": 5.296604166665929,
      "v": 93
    },
    {
      "midi": 64,
      "hit": false,
      "t": 114771.05749999506,
      "d": 5.296604166665929,
      "v": 62
    },
    {
      "midi": 57,
      "hit": false,
      "t": 114781.6507083284,
      "d": 37.076229166661506,
      "v": 83
    },
    {
      "midi": 42,
      "hit": false,
      "t": 114892.87939582838,
      "d": 5.296604166665929,
      "v": 52
    },
    {
      "midi": 52,
      "hit": false,
      "t": 114898.17599999504,
      "d": 5.296604166665929,
      "v": 81
    },
    {
      "midi": 35,
      "hit": false,
      "t": 114898.17599999504,
      "d": 74.15245833333756,
      "v": 120
    },
    {
      "midi": 28,
      "hit": false,
      "t": 114898.17599999504,
      "d": 90.04227083333535,
      "v": 77
    },
    {
      "midi": 50,
      "hit": false,
      "t": 114898.17599999504,
      "d": 169.4913333333243,
      "v": 57
    },
    {
      "midi": 40,
      "hit": false,
      "t": 114898.17599999504,
      "d": 190.677749999988,
      "v": 100
    },
    {
      "midi": 67,
      "hit": false,
      "t": 114898.17599999504,
      "d": 243.6437916666473,
      "v": 127
    },
    {
      "midi": 59,
      "hit": false,
      "t": 114908.76920832838,
      "d": 5.296604166665929,
      "v": 85
    },
    {
      "midi": 43,
      "hit": false,
      "t": 114908.76920832838,
      "d": 185.38114583332208,
      "v": 60
    },
    {
      "midi": 42,
      "hit": false,
      "t": 115030.59110416171,
      "d": 5.296604166665929,
      "v": 44
    },
    {
      "midi": 59,
      "hit": false,
      "t": 115035.88770832837,
      "d": 5.296604166665929,
      "v": 86
    },
    {
      "midi": 52,
      "hit": false,
      "t": 115046.4809166617,
      "d": 5.296604166665929,
      "v": 81
    },
    {
      "midi": 98,
      "hit": false,
      "t": 115147.11639582836,
      "d": 10.593208333331859,
      "v": 65
    },
    {
      "midi": 103,
      "hit": false,
      "t": 115147.11639582836,
      "d": 10.593208333331859,
      "v": 76
    },
    {
      "midi": 42,
      "hit": false,
      "t": 115152.41299999502,
      "d": 5.296604166665929,
      "v": 101
    },
    {
      "midi": 52,
      "hit": false,
      "t": 115152.41299999502,
      "d": 68.85585416667163,
      "v": 64
    },
    {
      "midi": 55,
      "hit": false,
      "t": 115152.41299999502,
      "d": 68.85585416667163,
      "v": 83
    },
    {
      "midi": 59,
      "hit": false,
      "t": 115152.41299999502,
      "d": 111.22868749999907,
      "v": 93
    },
    {
      "midi": 67,
      "hit": false,
      "t": 115152.41299999502,
      "d": 1769.0657916665223,
      "v": 92
    },
    {
      "midi": 62,
      "hit": false,
      "t": 115163.00620832836,
      "d": 90.04227083333535,
      "v": 104
    },
    {
      "midi": 28,
      "hit": false,
      "t": 115279.53149999502,
      "d": 47.669437499993364,
      "v": 100
    },
    {
      "midi": 40,
      "hit": false,
      "t": 115279.53149999502,
      "d": 47.669437499993364,
      "v": 63
    },
    {
      "midi": 42,
      "hit": false,
      "t": 115284.82810416169,
      "d": 5.296604166665929,
      "v": 47
    },
    {
      "midi": 59,
      "hit": false,
      "t": 115290.12470832835,
      "d": 47.669437499993364,
      "v": 94
    },
    {
      "midi": 52,
      "hit": false,
      "t": 115300.71791666168,
      "d": 37.076229166661506,
      "v": 89
    },
    {
      "midi": 28,
      "hit": false,
      "t": 115390.760187495,
      "d": 137.71170833331416,
      "v": 100
    },
    {
      "midi": 42,
      "hit": false,
      "t": 115401.35339582834,
      "d": 5.296604166665929,
      "v": 52
    },
    {
      "midi": 40,
      "hit": false,
      "t": 115406.649999995,
      "d": 5.296604166665929,
      "v": 93
    },
    {
      "midi": 59,
      "hit": false,
      "t": 115406.649999995,
      "d": 5.296604166665929,
      "v": 82
    },
    {
      "midi": 35,
      "hit": false,
      "t": 115406.649999995,
      "d": 74.15245833332301,
      "v": 120
    },
    {
      "midi": 43,
      "hit": false,
      "t": 115406.649999995,
      "d": 201.27095833330532,
      "v": 75
    },
    {
      "midi": 74,
      "hit": false,
      "t": 115443.72622916166,
      "d": 137.71170833331416,
      "v": 84
    },
    {
      "midi": 62,
      "hit": false,
      "t": 115533.76849999499,
      "d": 68.85585416665708,
      "v": 102
    },
    {
      "midi": 42,
      "hit": false,
      "t": 115539.06510416165,
      "d": 5.296604166665929,
      "v": 44
    },
    {
      "midi": 59,
      "hit": false,
      "t": 115544.36170832832,
      "d": 5.296604166665929,
      "v": 78
    },
    {
      "midi": 26,
      "hit": false,
      "t": 115639.7005833283,
      "d": 121.82189583333093,
      "v": 100
    },
    {
      "midi": 38,
      "hit": false,
      "t": 115639.7005833283,
      "d": 121.82189583333093,
      "v": 100
    },
    {
      "midi": 93,
      "hit": false,
      "t": 115655.5903958283,
      "d": 10.593208333331859,
      "v": 56
    },
    {
      "midi": 98,
      "hit": false,
      "t": 115655.5903958283,
      "d": 10.593208333331859,
      "v": 67
    },
    {
      "midi": 42,
      "hit": false,
      "t": 115660.88699999497,
      "d": 5.296604166665929,
      "v": 101
    },
    {
      "midi": 50,
      "hit": false,
      "t": 115660.88699999497,
      "d": 5.296604166665929,
      "v": 81
    },
    {
      "midi": 57,
      "hit": false,
      "t": 115671.4802083283,
      "d": 5.296604166665929,
      "v": 85
    },
    {
      "midi": 62,
      "hit": false,
      "t": 115682.07341666163,
      "d": 5.296604166665929,
      "v": 96
    },
    {
      "midi": 40,
      "hit": false,
      "t": 115766.8190833283,
      "d": 153.60152083331195,
      "v": 100
    },
    {
      "midi": 95,
      "hit": false,
      "t": 115782.7088958283,
      "d": 10.593208333331859,
      "v": 52
    },
    {
      "midi": 100,
      "hit": false,
      "t": 115782.7088958283,
      "d": 10.593208333331859,
      "v": 63
    },
    {
      "midi": 64,
      "hit": false,
      "t": 115788.00549999496,
      "d": 5.296604166665929,
      "v": 102
    },
    {
      "midi": 52,
      "hit": false,
      "t": 115788.00549999496,
      "d": 58.26264583332522,
      "v": 60
    },
    {
      "midi": 42,
      "hit": false,
      "t": 115793.30210416163,
      "d": 5.296604166665929,
      "v": 47
    },
    {
      "midi": 57,
      "hit": false,
      "t": 115798.5987083283,
      "d": 5.296604166665929,
      "v": 86
    },
    {
      "midi": 50,
      "hit": false,
      "t": 115809.19191666163,
      "d": 5.296604166665929,
      "v": 81
    },
    {
      "midi": 31,
      "hit": false,
      "t": 115893.93758332828,
      "d": 116.52529166665045,
      "v": 100
    },
    {
      "midi": 43,
      "hit": false,
      "t": 115893.93758332828,
      "d": 116.52529166665045,
      "v": 100
    },
    {
      "midi": 42,
      "hit": false,
      "t": 115909.82739582828,
      "d": 5.296604166665929,
      "v": 67
    },
    {
      "midi": 93,
      "hit": false,
      "t": 115909.82739582828,
      "d": 10.593208333331859,
      "v": 56
    },
    {
      "midi": 98,
      "hit": false,
      "t": 115909.82739582828,
      "d": 10.593208333331859,
      "v": 67
    },
    {
      "midi": 28,
      "hit": false,
      "t": 115915.12399999495,
      "d": 5.296604166665929,
      "v": 63
    },
    {
      "midi": 35,
      "hit": false,
      "t": 115915.12399999495,
      "d": 74.15245833332301,
      "v": 120
    },
    {
      "midi": 57,
      "hit": false,
      "t": 115915.12399999495,
      "d": 90.0422708333208,
      "v": 93
    },
    {
      "midi": 62,
      "hit": false,
      "t": 115925.71720832828,
      "d": 58.26264583332522,
      "v": 104
    },
    {
      "midi": 73,
      "hit": false,
      "t": 115946.90362499494,
      "d": 418.4317291666375,
      "v": 67
    },
    {
      "midi": 31,
      "hit": false,
      "t": 116021.05608332827,
      "d": 148.30491666666057,
      "v": 100
    },
    {
      "midi": 43,
      "hit": false,
      "t": 116021.05608332827,
      "d": 148.30491666666057,
      "v": 100
    },
    {
      "midi": 93,
      "hit": false,
      "t": 116036.94589582826,
      "d": 10.593208333331859,
      "v": 32
    },
    {
      "midi": 98,
      "hit": false,
      "t": 116036.94589582826,
      "d": 10.593208333331859,
      "v": 43
    },
    {
      "midi": 42,
      "hit": false,
      "t": 116047.5391041616,
      "d": 5.296604166665929,
      "v": 46
    },
    {
      "midi": 57,
      "hit": false,
      "t": 116052.83570832826,
      "d": 5.296604166665929,
      "v": 124
    },
    {
      "midi": 50,
      "hit": false,
      "t": 116063.42891666159,
      "d": 5.296604166665929,
      "v": 89
    },
    {
      "midi": 28,
      "hit": false,
      "t": 116153.47118749493,
      "d": 169.4913333333243,
      "v": 100
    },
    {
      "midi": 40,
      "hit": false,
      "t": 116153.47118749493,
      "d": 169.4913333333243,
      "v": 100
    },
    {
      "midi": 42,
      "hit": false,
      "t": 116169.36099999493,
      "d": 5.296604166665929,
      "v": 86
    },
    {
      "midi": 50,
      "hit": false,
      "t": 116169.36099999493,
      "d": 5.296604166665929,
      "v": 62
    },
    {
      "midi": 57,
      "hit": false,
      "t": 116179.95420832826,
      "d": 5.296604166665929,
      "v": 114
    },
    {
      "midi": 93,
      "hit": false,
      "t": 116291.18289582826,
      "d": 26.483020833329647,
      "v": 52
    },
    {
      "midi": 98,
      "hit": false,
      "t": 116291.18289582826,
      "d": 26.483020833329647,
      "v": 63
    },
    {
      "midi": 52,
      "hit": false,
      "t": 116296.47949999492,
      "d": 90.0422708333208,
      "v": 58
    },
    {
      "midi": 66,
      "hit": false,
      "t": 116296.47949999492,
      "d": 248.94039583331323,
      "v": 102
    },
    {
      "midi": 42,
      "hit": false,
      "t": 116301.77610416159,
      "d": 5.296604166665929,
      "v": 47
    },
    {
      "midi": 31,
      "hit": false,
      "t": 116413.00479166157,
      "d": 376.05889583332464,
      "v": 100
    },
    {
      "midi": 43,
      "hit": false,
      "t": 116413.00479166157,
      "d": 376.05889583332464,
      "v": 100
    },
    {
      "midi": 42,
      "hit": false,
      "t": 116418.30139582824,
      "d": 5.296604166665929,
      "v": 76
    },
    {
      "midi": 40,
      "hit": false,
      "t": 116423.5979999949,
      "d": 5.296604166665929,
      "v": 93
    },
    {
      "midi": 35,
      "hit": false,
      "t": 116423.5979999949,
      "d": 74.15245833333756,
      "v": 120
    },
    {
      "midi": 69,
      "hit": false,
      "t": 116423.5979999949,
      "d": 460.8045624999795,
      "v": 72
    },
    {
      "midi": 28,
      "hit": false,
      "t": 116550.7164999949,
      "d": 90.04227083333535,
      "v": 41
    },
    {
      "midi": 64,
      "hit": false,
      "t": 116550.7164999949,
      "d": 121.82189583333093,
      "v": 82
    },
    {
      "midi": 42,
      "hit": false,
      "t": 116556.01310416157,
      "d": 5.296604166665929,
      "v": 52
    },
    {
      "midi": 95,
      "hit": false,
      "t": 116672.53839582823,
      "d": 10.593208333331859,
      "v": 65
    },
    {
      "midi": 100,
      "hit": false,
      "t": 116672.53839582823,
      "d": 10.593208333331859,
      "v": 76
    },
    {
      "midi": 46,
      "hit": false,
      "t": 116677.8349999949,
      "d": 5.296604166665929,
      "v": 78
    },
    {
      "midi": 50,
      "hit": false,
      "t": 116677.8349999949,
      "d": 5.296604166665929,
      "v": 81
    },
    {
      "midi": 55,
      "hit": false,
      "t": 116677.8349999949,
      "d": 90.04227083333535,
      "v": 77
    },
    {
      "midi": 57,
      "hit": false,
      "t": 116688.42820832823,
      "d": 105.93208333333314,
      "v": 117
    },
    {
      "midi": 33,
      "hit": false,
      "t": 116794.36029166156,
      "d": 100.63547916665266,
      "v": 100
    },
    {
      "midi": 45,
      "hit": false,
      "t": 116794.36029166156,
      "d": 100.63547916665266,
      "v": 100
    },
    {
      "midi": 57,
      "hit": false,
      "t": 116804.9534999949,
      "d": 58.26264583332522,
      "v": 60
    },
    {
      "midi": 59,
      "hit": false,
      "t": 116804.9534999949,
      "d": 105.93208333331859,
      "v": 79
    },
    {
      "midi": 44,
      "hit": false,
      "t": 116810.25010416156,
      "d": 5.296604166665929,
      "v": 78
    },
    {
      "midi": 50,
      "hit": false,
      "t": 116826.13991666156,
      "d": 5.296604166665929,
      "v": 81
    },
    {
      "midi": 42,
      "hit": false,
      "t": 116926.77539582821,
      "d": 5.296604166665929,
      "v": 52
    },
    {
      "midi": 55,
      "hit": false,
      "t": 116932.07199999488,
      "d": 5.296604166665929,
      "v": 82
    },
    {
      "midi": 35,
      "hit": false,
      "t": 116932.07199999488,
      "d": 74.15245833333756,
      "v": 120
    },
    {
      "midi": 31,
      "hit": false,
      "t": 116932.07199999488,
      "d": 90.04227083333535,
      "v": 77
    },
    {
      "midi": 50,
      "hit": false,
      "t": 116932.07199999488,
      "d": 169.4913333333243,
      "v": 57
    },
    {
      "midi": 26,
      "hit": false,
      "t": 116932.07199999488,
      "d": 190.677749999988,
      "v": 100
    },
    {
      "midi": 38,
      "hit": false,
      "t": 116932.07199999488,
      "d": 190.677749999988,
      "v": 100
    },
    {
      "midi": 74,
      "hit": false,
      "t": 116932.07199999488,
      "d": 370.76229166664416,
      "v": 115
    },
    {
      "midi": 54,
      "hit": false,
      "t": 116932.07199999488,
      "d": 2012.7095833332132,
      "v": 68
    },
    {
      "midi": 59,
      "hit": false,
      "t": 116942.66520832821,
      "d": 5.296604166665929,
      "v": 86
    },
    {
      "midi": 45,
      "hit": false,
      "t": 116942.66520832821,
      "d": 185.38114583332208,
      "v": 60
    },
    {
      "midi": 59,
      "hit": false,
      "t": 117059.19049999487,
      "d": 5.296604166665929,
      "v": 87
    },
    {
      "midi": 66,
      "hit": false,
      "t": 117059.19049999487,
      "d": 1896.1842916665482,
      "v": 72
    },
    {
      "midi": 42,
      "hit": false,
      "t": 117064.48710416154,
      "d": 5.296604166665929,
      "v": 44
    },
    {
      "midi": 55,
      "hit": false,
      "t": 117069.7837083282,
      "d": 5.296604166665929,
      "v": 82
    },
    {
      "midi": 98,
      "hit": false,
      "t": 117181.0123958282,
      "d": 10.593208333331859,
      "v": 65
    },
    {
      "midi": 103,
      "hit": false,
      "t": 117181.0123958282,
      "d": 10.593208333331859,
      "v": 76
    },
    {
      "midi": 42,
      "hit": false,
      "t": 117186.30899999487,
      "d": 5.296604166665929,
      "v": 101
    },
    {
      "midi": 55,
      "hit": false,
      "t": 117186.30899999487,
      "d": 21.186416666663717,
      "v": 94
    },
    {
      "midi": 47,
      "hit": false,
      "t": 117186.30899999487,
      "d": 68.85585416665708,
      "v": 64
    },
    {
      "midi": 50,
      "hit": false,
      "t": 117186.30899999487,
      "d": 68.85585416665708,
      "v": 83
    },
    {
      "midi": 69,
      "hit": false,
      "t": 117186.30899999487,
      "d": 248.94039583329868,
      "v": 94
    },
    {
      "midi": 59,
      "hit": false,
      "t": 117196.9022083282,
      "d": 5.296604166665929,
      "v": 105
    },
    {
      "midi": 26,
      "hit": false,
      "t": 117313.42749999485,
      "d": 47.669437499993364,
      "v": 100
    },
    {
      "midi": 38,
      "hit": false,
      "t": 117313.42749999485,
      "d": 47.669437499993364,
      "v": 100
    },
    {
      "midi": 59,
      "hit": false,
      "t": 117313.42749999485,
      "d": 47.669437499993364,
      "v": 95
    },
    {
      "midi": 31,
      "hit": false,
      "t": 117313.42749999485,
      "d": 90.0422708333208,
      "v": 63
    },
    {
      "midi": 42,
      "hit": false,
      "t": 117318.72410416152,
      "d": 5.296604166665929,
      "v": 47
    },
    {
      "midi": 55,
      "hit": false,
      "t": 117324.02070832819,
      "d": 37.076229166661506,
      "v": 90
    },
    {
      "midi": 26,
      "hit": false,
      "t": 117424.65618749484,
      "d": 137.71170833332872,
      "v": 100
    },
    {
      "midi": 42,
      "hit": false,
      "t": 117435.24939582817,
      "d": 5.296604166665929,
      "v": 52
    },
    {
      "midi": 40,
      "hit": false,
      "t": 117440.54599999484,
      "d": 5.296604166665929,
      "v": 93
    },
    {
      "midi": 59,
      "hit": false,
      "t": 117440.54599999484,
      "d": 5.296604166665929,
      "v": 83
    },
    {
      "midi": 35,
      "hit": false,
      "t": 117440.54599999484,
      "d": 74.15245833333756,
      "v": 120
    },
    {
      "midi": 38,
      "hit": false,
      "t": 117440.54599999484,
      "d": 121.82189583333093,
      "v": 63
    },
    {
      "midi": 59,
      "hit": false,
      "t": 117567.66449999483,
      "d": 5.296604166665929,
      "v": 79
    },
    {
      "midi": 42,
      "hit": false,
      "t": 117572.9611041615,
      "d": 5.296604166665929,
      "v": 44
    },
    {
      "midi": 26,
      "hit": false,
      "t": 117673.59658332817,
      "d": 121.82189583333093,
      "v": 100
    },
    {
      "midi": 38,
      "hit": false,
      "t": 117673.59658332817,
      "d": 121.82189583333093,
      "v": 100
    },
    {
      "midi": 93,
      "hit": false,
      "t": 117689.48639582816,
      "d": 10.593208333331859,
      "v": 56
    },
    {
      "midi": 98,
      "hit": false,
      "t": 117689.48639582816,
      "d": 10.593208333331859,
      "v": 67
    },
    {
      "midi": 42,
      "hit": false,
      "t": 117694.78299999483,
      "d": 5.296604166665929,
      "v": 101
    },
    {
      "midi": 55,
      "hit": false,
      "t": 117694.78299999483,
      "d": 5.296604166665929,
      "v": 82
    },
    {
      "midi": 50,
      "hit": false,
      "t": 117694.78299999483,
      "d": 90.04227083333535,
      "v": 77
    },
    {
      "midi": 62,
      "hit": false,
      "t": 117705.37620832816,
      "d": 5.296604166665929,
      "v": 86
    },
    {
      "midi": 67,
      "hit": false,
      "t": 117715.9694166615,
      "d": 5.296604166665929,
      "v": 111
    },
    {
      "midi": 28,
      "hit": false,
      "t": 117800.71508332816,
      "d": 158.89812499997788,
      "v": 100
    },
    {
      "midi": 40,
      "hit": false,
      "t": 117800.71508332816,
      "d": 158.89812499997788,
      "v": 100
    },
    {
      "midi": 95,
      "hit": false,
      "t": 117816.60489582816,
      "d": 10.593208333331859,
      "v": 52
    },
    {
      "midi": 100,
      "hit": false,
      "t": 117816.60489582816,
      "d": 10.593208333331859,
      "v": 63
    },
    {
      "midi": 52,
      "hit": false,
      "t": 117821.90149999483,
      "d": 58.26264583332522,
      "v": 60
    },
    {
      "midi": 42,
      "hit": false,
      "t": 117827.19810416149,
      "d": 5.296604166665929,
      "v": 47
    },
    {
      "midi": 67,
      "hit": false,
      "t": 117832.49470832816,
      "d": 5.296604166665929,
      "v": 117
    },
    {
      "midi": 62,
      "hit": false,
      "t": 117843.08791666149,
      "d": 5.296604166665929,
      "v": 87
    },
    {
      "midi": 55,
      "hit": false,
      "t": 117853.68112499482,
      "d": 5.296604166665929,
      "v": 82
    },
    {
      "midi": 43,
      "hit": false,
      "t": 117927.83358332815,
      "d": 116.525291666665,
      "v": 100
    },
    {
      "midi": 42,
      "hit": false,
      "t": 117943.72339582814,
      "d": 5.296604166665929,
      "v": 46
    },
    {
      "midi": 93,
      "hit": false,
      "t": 117943.72339582814,
      "d": 10.593208333331859,
      "v": 56
    },
    {
      "midi": 98,
      "hit": false,
      "t": 117943.72339582814,
      "d": 10.593208333331859,
      "v": 67
    },
    {
      "midi": 35,
      "hit": false,
      "t": 117949.01999999481,
      "d": 74.15245833333756,
      "v": 120
    },
    {
      "midi": 31,
      "hit": false,
      "t": 117949.01999999481,
      "d": 90.04227083333535,
      "v": 63
    },
    {
      "midi": 73,
      "hit": false,
      "t": 117949.01999999481,
      "d": 376.0588958333101,
      "v": 107
    },
    {
      "midi": 62,
      "hit": false,
      "t": 117959.61320832814,
      "d": 5.296604166665929,
      "v": 86
    },
    {
      "midi": 42,
      "hit": false,
      "t": 118033.76566666148,
      "d": 5.296604166665929,
      "v": 62
    },
    {
      "midi": 31,
      "hit": false,
      "t": 118054.95208332814,
      "d": 148.30491666664602,
      "v": 100
    },
    {
      "midi": 43,
      "hit": false,
      "t": 118054.95208332814,
      "d": 148.30491666664602,
      "v": 100
    },
    {
      "midi": 93,
      "hit": false,
      "t": 118070.84189582814,
      "d": 10.593208333331859,
      "v": 32
    },
    {
      "midi": 98,
      "hit": false,
      "t": 118070.84189582814,
      "d": 10.593208333331859,
      "v": 43
    },
    {
      "midi": 55,
      "hit": false,
      "t": 118076.1384999948,
      "d": 90.0422708333208,
      "v": 77
    },
    {
      "midi": 67,
      "hit": false,
      "t": 118086.73170832814,
      "d": 5.296604166665929,
      "v": 125
    },
    {
      "midi": 62,
      "hit": false,
      "t": 118097.32491666147,
      "d": 5.296604166665929,
      "v": 90
    },
    {
      "midi": 42,
      "hit": false,
      "t": 118118.51133332813,
      "d": 5.296604166665929,
      "v": 77
    },
    {
      "midi": 28,
      "hit": false,
      "t": 118187.36718749479,
      "d": 169.4913333333243,
      "v": 100
    },
    {
      "midi": 40,
      "hit": false,
      "t": 118187.36718749479,
      "d": 169.4913333333243,
      "v": 100
    },
    {
      "midi": 42,
      "hit": false,
      "t": 118203.25699999479,
      "d": 5.296604166665929,
      "v": 86
    },
    {
      "midi": 62,
      "hit": false,
      "t": 118203.25699999479,
      "d": 5.296604166665929,
      "v": 63
    },
    {
      "midi": 67,
      "hit": false,
      "t": 118203.25699999479,
      "d": 5.296604166665929,
      "v": 115
    },
    {
      "midi": 93,
      "hit": false,
      "t": 118325.07889582812,
      "d": 26.483020833329647,
      "v": 52
    },
    {
      "midi": 98,
      "hit": false,
      "t": 118325.07889582812,
      "d": 26.483020833329647,
      "v": 63
    },
    {
      "midi": 52,
      "hit": false,
      "t": 118330.37549999479,
      "d": 90.04227083333535,
      "v": 50
    },
    {
      "midi": 74,
      "hit": false,
      "t": 118330.37549999479,
      "d": 254.2369999999937,
      "v": 115
    },
    {
      "midi": 42,
      "hit": false,
      "t": 118335.67210416145,
      "d": 5.296604166665929,
      "v": 47
    },
    {
      "midi": 64,
      "hit": false,
      "t": 118340.96870832812,
      "d": 111.22868749999907,
      "v": 103
    },
    {
      "midi": 55,
      "hit": false,
      "t": 118362.15512499478,
      "d": 5.296604166665929,
      "v": 82
    },
    {
      "midi": 31,
      "hit": false,
      "t": 118446.90079166145,
      "d": 121.82189583333093,
      "v": 100
    },
    {
      "midi": 43,
      "hit": false,
      "t": 118446.90079166145,
      "d": 121.82189583333093,
      "v": 100
    },
    {
      "midi": 42,
      "hit": false,
      "t": 118452.19739582812,
      "d": 5.296604166665929,
      "v": 76
    },
    {
      "midi": 40,
      "hit": false,
      "t": 118457.49399999478,
      "d": 5.296604166665929,
      "v": 93
    },
    {
      "midi": 35,
      "hit": false,
      "t": 118457.49399999478,
      "d": 74.15245833333756,
      "v": 120
    },
    {
      "midi": 55,
      "hit": false,
      "t": 118457.49399999478,
      "d": 90.04227083333535,
      "v": 69
    },
    {
      "midi": 31,
      "hit": false,
      "t": 118574.01929166145,
      "d": 169.4913333333243,
      "v": 100
    },
    {
      "midi": 69,
      "hit": false,
      "t": 118584.61249999478,
      "d": 74.15245833333756,
      "v": 101
    },
    {
      "midi": 43,
      "hit": false,
      "t": 118584.61249999478,
      "d": 90.04227083333535,
      "v": 41
    },
    {
      "midi": 42,
      "hit": false,
      "t": 118589.90910416144,
      "d": 5.296604166665929,
      "v": 52
    },
    {
      "midi": 33,
      "hit": false,
      "t": 118701.13779166144,
      "d": 100.63547916666721,
      "v": 100
    },
    {
      "midi": 45,
      "hit": false,
      "t": 118701.13779166144,
      "d": 100.63547916666721,
      "v": 100
    },
    {
      "midi": 95,
      "hit": false,
      "t": 118706.43439582811,
      "d": 10.593208333331859,
      "v": 65
    },
    {
      "midi": 100,
      "hit": false,
      "t": 118706.43439582811,
      "d": 10.593208333331859,
      "v": 76
    },
    {
      "midi": 42,
      "hit": false,
      "t": 118711.73099999478,
      "d": 5.296604166665929,
      "v": 78
    },
    {
      "midi": 62,
      "hit": false,
      "t": 118711.73099999478,
      "d": 5.296604166665929,
      "v": 63
    },
    {
      "midi": 81,
      "hit": false,
      "t": 118711.73099999478,
      "d": 5.296604166665929,
      "v": 115
    },
    {
      "midi": 55,
      "hit": false,
      "t": 118711.73099999478,
      "d": 90.04227083333535,
      "v": 77
    },
    {
      "midi": 78,
      "hit": false,
      "t": 118711.73099999478,
      "d": 248.94039583331323,
      "v": 92
    },
    {
      "midi": 42,
      "hit": false,
      "t": 118844.14610416144,
      "d": 5.296604166665929,
      "v": 78
    },
    {
      "midi": 57,
      "hit": false,
      "t": 118860.03591666144,
      "d": 5.296604166665929,
      "v": 101
    },
    {
      "midi": 42,
      "hit": false,
      "t": 118960.67139582809,
      "d": 5.296604166665929,
      "v": 52
    },
    {
      "midi": 57,
      "hit": false,
      "t": 118965.96799999475,
      "d": 5.296604166665929,
      "v": 75
    },
    {
      "midi": 35,
      "hit": false,
      "t": 118965.96799999475,
      "d": 74.15245833333756,
      "v": 120
    },
    {
      "midi": 33,
      "hit": false,
      "t": 118965.96799999475,
      "d": 90.04227083333535,
      "v": 77
    },
    {
      "midi": 52,
      "hit": false,
      "t": 118965.96799999475,
      "d": 169.4913333333243,
      "v": 57
    },
    {
      "midi": 21,
      "hit": false,
      "t": 118965.96799999475,
      "d": 190.677749999988,
      "v": 100
    },
    {
      "midi": 49,
      "hit": false,
      "t": 118965.96799999475,
      "d": 4046.6055833330756,
      "v": 39
    },
    {
      "midi": 81,
      "hit": false,
      "t": 118965.96799999475,
      "d": 4057.1987916664075,
      "v": 117
    },
    {
      "midi": 64,
      "hit": false,
      "t": 118976.56120832809,
      "d": 5.296604166665929,
      "v": 79
    },
    {
      "midi": 45,
      "hit": false,
      "t": 118976.56120832809,
      "d": 185.38114583332208,
      "v": 60
    },
    {
      "midi": 64,
      "hit": false,
      "t": 119093.08649999475,
      "d": 5.296604166665929,
      "v": 80
    },
    {
      "midi": 42,
      "hit": false,
      "t": 119098.38310416142,
      "d": 5.296604166665929,
      "v": 44
    },
    {
      "midi": 57,
      "hit": false,
      "t": 119103.67970832808,
      "d": 5.296604166665929,
      "v": 75
    },
    {
      "midi": 98,
      "hit": false,
      "t": 119214.90839582808,
      "d": 10.593208333331859,
      "v": 65
    },
    {
      "midi": 103,
      "hit": false,
      "t": 119214.90839582808,
      "d": 10.593208333331859,
      "v": 76
    },
    {
      "midi": 42,
      "hit": false,
      "t": 119220.20499999475,
      "d": 5.296604166665929,
      "v": 101
    },
    {
      "midi": 57,
      "hit": false,
      "t": 119220.20499999475,
      "d": 21.186416666663717,
      "v": 87
    },
    {
      "midi": 52,
      "hit": false,
      "t": 119220.20499999475,
      "d": 68.85585416665708,
      "v": 64
    },
    {
      "midi": 55,
      "hit": false,
      "t": 119220.20499999475,
      "d": 68.85585416665708,
      "v": 83
    },
    {
      "midi": 64,
      "hit": false,
      "t": 119230.79820832808,
      "d": 5.296604166665929,
      "v": 98
    },
    {
      "midi": 64,
      "hit": false,
      "t": 119347.32349999475,
      "d": 5.296604166665929,
      "v": 62
    },
    {
      "midi": 21,
      "hit": false,
      "t": 119347.32349999475,
      "d": 47.669437499993364,
      "v": 100
    },
    {
      "midi": 33,
      "hit": false,
      "t": 119347.32349999475,
      "d": 47.669437499993364,
      "v": 100
    },
    {
      "midi": 45,
      "hit": false,
      "t": 119347.32349999475,
      "d": 90.0422708333208,
      "v": 63
    },
    {
      "midi": 42,
      "hit": false,
      "t": 119352.62010416141,
      "d": 5.296604166665929,
      "v": 47
    },
    {
      "midi": 57,
      "hit": false,
      "t": 119357.91670832808,
      "d": 37.076229166661506,
      "v": 83
    },
    {
      "midi": 21,
      "hit": false,
      "t": 119458.55218749473,
      "d": 137.71170833331416,
      "v": 100
    },
    {
      "midi": 33,
      "hit": false,
      "t": 119458.55218749473,
      "d": 137.71170833331416,
      "v": 100
    },
    {
      "midi": 42,
      "hit": false,
      "t": 119469.14539582806,
      "d": 5.296604166665929,
      "v": 52
    },
    {
      "midi": 40,
      "hit": false,
      "t": 119474.44199999473,
      "d": 5.296604166665929,
      "v": 93
    },
    {
      "midi": 57,
      "hit": false,
      "t": 119474.44199999473,
      "d": 5.296604166665929,
      "v": 75
    },
    {
      "midi": 64,
      "hit": false,
      "t": 119474.44199999473,
      "d": 37.076229166661506,
      "v": 86
    },
    {
      "midi": 35,
      "hit": false,
      "t": 119474.44199999473,
      "d": 74.15245833332301,
      "v": 120
    },
    {
      "midi": 45,
      "hit": false,
      "t": 119474.44199999473,
      "d": 201.27095833330532,
      "v": 63
    },
    {
      "midi": 76,
      "hit": false,
      "t": 119495.62841666139,
      "d": 10.593208333331859,
      "v": 76
    },
    {
      "midi": 64,
      "hit": false,
      "t": 119601.56049999471,
      "d": 37.076229166661506,
      "v": 82
    },
    {
      "midi": 42,
      "hit": false,
      "t": 119606.85710416138,
      "d": 5.296604166665929,
      "v": 44
    },
    {
      "midi": 57,
      "hit": false,
      "t": 119612.15370832804,
      "d": 5.296604166665929,
      "v": 75
    },
    {
      "midi": 76,
      "hit": false,
      "t": 119612.15370832804,
      "d": 10.593208333331859,
      "v": 82
    },
    {
      "midi": 26,
      "hit": false,
      "t": 119707.49258332803,
      "d": 121.82189583333093,
      "v": 100
    },
    {
      "midi": 38,
      "hit": false,
      "t": 119707.49258332803,
      "d": 121.82189583333093,
      "v": 100
    },
    {
      "midi": 93,
      "hit": false,
      "t": 119723.38239582803,
      "d": 10.593208333331859,
      "v": 56
    },
    {
      "midi": 98,
      "hit": false,
      "t": 119723.38239582803,
      "d": 10.593208333331859,
      "v": 67
    },
    {
      "midi": 42,
      "hit": false,
      "t": 119728.67899999469,
      "d": 5.296604166665929,
      "v": 101
    },
    {
      "midi": 57,
      "hit": false,
      "t": 119728.67899999469,
      "d": 5.296604166665929,
      "v": 75
    },
    {
      "midi": 50,
      "hit": false,
      "t": 119728.67899999469,
      "d": 90.04227083333535,
      "v": 77
    },
    {
      "midi": 64,
      "hit": false,
      "t": 119739.27220832802,
      "d": 5.296604166665929,
      "v": 79
    },
    {
      "midi": 76,
      "hit": false,
      "t": 119749.86541666136,
      "d": 52.966041666673846,
      "v": 94
    },
    {
      "midi": 28,
      "hit": false,
      "t": 119834.61108332803,
      "d": 121.82189583331638,
      "v": 100
    },
    {
      "midi": 40,
      "hit": false,
      "t": 119834.61108332803,
      "d": 121.82189583331638,
      "v": 100
    },
    {
      "midi": 95,
      "hit": false,
      "t": 119850.50089582802,
      "d": 10.593208333331859,
      "v": 52
    },
    {
      "midi": 100,
      "hit": false,
      "t": 119850.50089582802,
      "d": 10.593208333331859,
      "v": 63
    },
    {
      "midi": 38,
      "hit": false,
      "t": 119855.79749999469,
      "d": 5.296604166665929,
      "v": 30
    },
    {
      "midi": 52,
      "hit": false,
      "t": 119855.79749999469,
      "d": 58.26264583332522,
      "v": 60
    },
    {
      "midi": 42,
      "hit": false,
      "t": 119861.09410416136,
      "d": 5.296604166665929,
      "v": 47
    },
    {
      "midi": 76,
      "hit": false,
      "t": 119866.39070832802,
      "d": 52.966041666659294,
      "v": 100
    },
    {
      "midi": 64,
      "hit": false,
      "t": 119876.98391666135,
      "d": 5.296604166665929,
      "v": 80
    },
    {
      "midi": 57,
      "hit": false,
      "t": 119887.57712499468,
      "d": 5.296604166665929,
      "v": 75
    },
    {
      "midi": 38,
      "hit": false,
      "t": 119898.17033332802,
      "d": 5.296604166665929,
      "v": 30
    },
    {
      "midi": 38,
      "hit": false,
      "t": 119940.54316666134,
      "d": 5.296604166665929,
      "v": 30
    },
    {
      "midi": 28,
      "hit": false,
      "t": 119961.72958332801,
      "d": 148.30491666666057,
      "v": 100
    },
    {
      "midi": 40,
      "hit": false,
      "t": 119961.72958332801,
      "d": 148.30491666666057,
      "v": 100
    },
    {
      "midi": 42,
      "hit": false,
      "t": 119977.619395828,
      "d": 5.296604166665929,
      "v": 67
    },
    {
      "midi": 93,
      "hit": false,
      "t": 119977.619395828,
      "d": 10.593208333331859,
      "v": 56
    },
    {
      "midi": 98,
      "hit": false,
      "t": 119977.619395828,
      "d": 10.593208333331859,
      "v": 67
    },
    {
      "midi": 38,
      "hit": false,
      "t": 119982.91599999467,
      "d": 5.296604166665929,
      "v": 30
    },
    {
      "midi": 35,
      "hit": false,
      "t": 119982.91599999467,
      "d": 74.15245833333756,
      "v": 120
    },
    {
      "midi": 33,
      "hit": false,
      "t": 119982.91599999467,
      "d": 90.04227083333535,
      "v": 63
    },
    {
      "midi": 71,
      "hit": false,
      "t": 119982.91599999467,
      "d": 127.11849999999686,
      "v": 108
    },
    {
      "midi": 64,
      "hit": false,
      "t": 119993.509208328,
      "d": 116.525291666665,
      "v": 116
    },
    {
      "midi": 31,
      "hit": false,
      "t": 120088.848083328,
      "d": 148.30491666666057,
      "v": 100
    },
    {
      "midi": 43,
      "hit": false,
      "t": 120088.848083328,
      "d": 148.30491666666057,
      "v": 100
    },
    {
      "midi": 93,
      "hit": false,
      "t": 120104.737895828,
      "d": 10.593208333331859,
      "v": 32
    },
    {
      "midi": 98,
      "hit": false,
      "t": 120104.737895828,
      "d": 10.593208333331859,
      "v": 43
    },
    {
      "midi": 50,
      "hit": false,
      "t": 120110.03449999467,
      "d": 90.04227083333535,
      "v": 77
    },
    {
      "midi": 42,
      "hit": false,
      "t": 120115.33110416133,
      "d": 5.296604166665929,
      "v": 46
    },
    {
      "midi": 71,
      "hit": false,
      "t": 120120.627708328,
      "d": 105.93208333333314,
      "v": 123
    },
    {
      "midi": 64,
      "hit": false,
      "t": 120131.22091666133,
      "d": 95.33887500000128,
      "v": 111
    },
    {
      "midi": 28,
      "hit": false,
      "t": 120226.55979166133,
      "d": 169.4913333333243,
      "v": 100
    },
    {
      "midi": 40,
      "hit": false,
      "t": 120226.55979166133,
      "d": 169.4913333333243,
      "v": 100
    },
    {
      "midi": 42,
      "hit": false,
      "t": 120237.15299999467,
      "d": 5.296604166665929,
      "v": 86
    },
    {
      "midi": 64,
      "hit": false,
      "t": 120237.15299999467,
      "d": 127.11849999999686,
      "v": 114
    },
    {
      "midi": 71,
      "hit": false,
      "t": 120237.15299999467,
      "d": 127.11849999999686,
      "v": 108
    },
    {
      "midi": 93,
      "hit": false,
      "t": 120358.974895828,
      "d": 26.483020833329647,
      "v": 52
    },
    {
      "midi": 98,
      "hit": false,
      "t": 120358.974895828,
      "d": 26.483020833329647,
      "v": 63
    },
    {
      "midi": 52,
      "hit": false,
      "t": 120364.27149999466,
      "d": 90.0422708333208,
      "v": 77
    },
    {
      "midi": 42,
      "hit": false,
      "t": 120369.56810416133,
      "d": 5.296604166665929,
      "v": 47
    },
    {
      "midi": 71,
      "hit": false,
      "t": 120374.864708328,
      "d": 84.74566666665487,
      "v": 118
    },
    {
      "midi": 64,
      "hit": false,
      "t": 120385.45791666133,
      "d": 79.44906249998894,
      "v": 59
    },
    {
      "midi": 57,
      "hit": false,
      "t": 120396.05112499466,
      "d": 5.296604166665929,
      "v": 75
    },
    {
      "midi": 42,
      "hit": false,
      "t": 120486.09339582798,
      "d": 5.296604166665929,
      "v": 76
    },
    {
      "midi": 31,
      "hit": false,
      "t": 120486.09339582798,
      "d": 121.82189583333093,
      "v": 100
    },
    {
      "midi": 43,
      "hit": false,
      "t": 120486.09339582798,
      "d": 121.82189583333093,
      "v": 100
    },
    {
      "midi": 40,
      "hit": false,
      "t": 120491.38999999464,
      "d": 5.296604166665929,
      "v": 93
    },
    {
      "midi": 57,
      "hit": false,
      "t": 120491.38999999464,
      "d": 5.296604166665929,
      "v": 75
    },
    {
      "midi": 35,
      "hit": false,
      "t": 120491.38999999464,
      "d": 74.15245833333756,
      "v": 120
    },
    {
      "midi": 64,
      "hit": false,
      "t": 120501.98320832798,
      "d": 5.296604166665929,
      "v": 79
    },
    {
      "midi": 76,
      "hit": false,
      "t": 120618.50849999464,
      "d": 10.593208333331859,
      "v": 87
    },
    {
      "midi": 33,
      "hit": false,
      "t": 120618.50849999464,
      "d": 90.04227083333535,
      "v": 41
    },
    {
      "midi": 42,
      "hit": false,
      "t": 120623.8051041613,
      "d": 5.296604166665929,
      "v": 52
    },
    {
      "midi": 64,
      "hit": false,
      "t": 120629.10170832797,
      "d": 5.296604166665929,
      "v": 75
    },
    {
      "midi": 95,
      "hit": false,
      "t": 120740.33039582797,
      "d": 10.593208333331859,
      "v": 65
    },
    {
      "midi": 100,
      "hit": false,
      "t": 120740.33039582797,
      "d": 10.593208333331859,
      "v": 76
    },
    {
      "midi": 31,
      "hit": false,
      "t": 120740.33039582797,
      "d": 143.00831249999464,
      "v": 100
    },
    {
      "midi": 43,
      "hit": false,
      "t": 120740.33039582797,
      "d": 143.00831249999464,
      "v": 100
    },
    {
      "midi": 46,
      "hit": false,
      "t": 120745.62699999464,
      "d": 5.296604166665929,
      "v": 78
    },
    {
      "midi": 57,
      "hit": false,
      "t": 120745.62699999464,
      "d": 21.186416666663717,
      "v": 87
    },
    {
      "midi": 55,
      "hit": false,
      "t": 120745.62699999464,
      "d": 90.04227083333535,
      "v": 77
    },
    {
      "midi": 64,
      "hit": false,
      "t": 120756.22020832797,
      "d": 5.296604166665929,
      "v": 98
    },
    {
      "midi": 33,
      "hit": false,
      "t": 120867.44889582797,
      "d": 100.63547916665266,
      "v": 100
    },
    {
      "midi": 45,
      "hit": false,
      "t": 120867.44889582797,
      "d": 100.63547916665266,
      "v": 100
    },
    {
      "midi": 64,
      "hit": false,
      "t": 120872.74549999463,
      "d": 5.296604166665929,
      "v": 62
    },
    {
      "midi": 44,
      "hit": false,
      "t": 120878.0421041613,
      "d": 5.296604166665929,
      "v": 78
    },
    {
      "midi": 57,
      "hit": false,
      "t": 120883.33870832797,
      "d": 37.076229166661506,
      "v": 83
    },
    {
      "midi": 42,
      "hit": false,
      "t": 120994.56739582795,
      "d": 5.296604166665929,
      "v": 52
    },
    {
      "midi": 57,
      "hit": false,
      "t": 120999.86399999462,
      "d": 5.296604166665929,
      "v": 75
    },
    {
      "midi": 35,
      "hit": false,
      "t": 120999.86399999462,
      "d": 74.15245833333756,
      "v": 120
    },
    {
      "midi": 33,
      "hit": false,
      "t": 120999.86399999462,
      "d": 90.04227083333535,
      "v": 77
    },
    {
      "midi": 21,
      "hit": false,
      "t": 120999.86399999462,
      "d": 190.677749999988,
      "v": 100
    },
    {
      "midi": 64,
      "hit": false,
      "t": 121010.45720832795,
      "d": 5.296604166665929,
      "v": 79
    },
    {
      "midi": 64,
      "hit": false,
      "t": 121126.98249999461,
      "d": 5.296604166665929,
      "v": 80
    },
    {
      "midi": 42,
      "hit": false,
      "t": 121132.27910416128,
      "d": 5.296604166665929,
      "v": 44
    },
    {
      "midi": 57,
      "hit": false,
      "t": 121137.57570832795,
      "d": 5.296604166665929,
      "v": 75
    },
    {
      "midi": 98,
      "hit": false,
      "t": 121248.80439582794,
      "d": 10.593208333331859,
      "v": 65
    },
    {
      "midi": 103,
      "hit": false,
      "t": 121248.80439582794,
      "d": 10.593208333331859,
      "v": 76
    },
    {
      "midi": 42,
      "hit": false,
      "t": 121254.10099999461,
      "d": 5.296604166665929,
      "v": 101
    },
    {
      "midi": 57,
      "hit": false,
      "t": 121254.10099999461,
      "d": 21.186416666663717,
      "v": 87
    },
    {
      "midi": 45,
      "hit": false,
      "t": 121254.10099999461,
      "d": 52.966041666659294,
      "v": 61
    },
    {
      "midi": 50,
      "hit": false,
      "t": 121254.10099999461,
      "d": 52.966041666659294,
      "v": 80
    },
    {
      "midi": 64,
      "hit": false,
      "t": 121264.69420832794,
      "d": 5.296604166665929,
      "v": 98
    },
    {
      "midi": 64,
      "hit": false,
      "t": 121381.21949999461,
      "d": 5.296604166665929,
      "v": 62
    },
    {
      "midi": 76,
      "hit": false,
      "t": 121381.21949999461,
      "d": 42.372833333327435,
      "v": 127
    },
    {
      "midi": 21,
      "hit": false,
      "t": 121381.21949999461,
      "d": 47.669437499993364,
      "v": 100
    },
    {
      "midi": 33,
      "hit": false,
      "t": 121381.21949999461,
      "d": 47.669437499993364,
      "v": 100
    },
    {
      "midi": 45,
      "hit": false,
      "t": 121381.21949999461,
      "d": 90.0422708333208,
      "v": 63
    },
    {
      "midi": 42,
      "hit": false,
      "t": 121386.51610416127,
      "d": 5.296604166665929,
      "v": 47
    },
    {
      "midi": 57,
      "hit": false,
      "t": 121391.81270832794,
      "d": 37.076229166661506,
      "v": 83
    },
    {
      "midi": 21,
      "hit": false,
      "t": 121492.44818749459,
      "d": 137.71170833331416,
      "v": 100
    },
    {
      "midi": 33,
      "hit": false,
      "t": 121492.44818749459,
      "d": 137.71170833331416,
      "v": 100
    },
    {
      "midi": 42,
      "hit": false,
      "t": 121503.04139582792,
      "d": 5.296604166665929,
      "v": 52
    },
    {
      "midi": 40,
      "hit": false,
      "t": 121508.33799999459,
      "d": 5.296604166665929,
      "v": 93
    },
    {
      "midi": 57,
      "hit": false,
      "t": 121508.33799999459,
      "d": 5.296604166665929,
      "v": 75
    },
    {
      "midi": 64,
      "hit": false,
      "t": 121508.33799999459,
      "d": 37.076229166661506,
      "v": 86
    },
    {
      "midi": 35,
      "hit": false,
      "t": 121508.33799999459,
      "d": 74.15245833332301,
      "v": 120
    },
    {
      "midi": 40,
      "hit": false,
      "t": 121635.45649999457,
      "d": 90.04227083333535,
      "v": 63
    },
    {
      "midi": 78,
      "hit": false,
      "t": 121635.45649999457,
      "d": 105.93208333333314,
      "v": 127
    },
    {
      "midi": 42,
      "hit": false,
      "t": 121640.75310416124,
      "d": 5.296604166665929,
      "v": 44
    },
    {
      "midi": 64,
      "hit": false,
      "t": 121646.0497083279,
      "d": 5.296604166665929,
      "v": 75
    },
    {
      "midi": 26,
      "hit": false,
      "t": 121741.3885833279,
      "d": 121.82189583333093,
      "v": 100
    },
    {
      "midi": 38,
      "hit": false,
      "t": 121741.3885833279,
      "d": 121.82189583333093,
      "v": 100
    },
    {
      "midi": 93,
      "hit": false,
      "t": 121757.2783958279,
      "d": 10.593208333331859,
      "v": 56
    },
    {
      "midi": 98,
      "hit": false,
      "t": 121757.2783958279,
      "d": 10.593208333331859,
      "v": 67
    },
    {
      "midi": 42,
      "hit": false,
      "t": 121762.57499999457,
      "d": 5.296604166665929,
      "v": 101
    },
    {
      "midi": 57,
      "hit": false,
      "t": 121762.57499999457,
      "d": 5.296604166665929,
      "v": 75
    },
    {
      "midi": 50,
      "hit": false,
      "t": 121762.57499999457,
      "d": 90.04227083333535,
      "v": 77
    },
    {
      "midi": 69,
      "hit": false,
      "t": 121762.57499999457,
      "d": 148.30491666666057,
      "v": 79
    },
    {
      "midi": 64,
      "hit": false,
      "t": 121773.1682083279,
      "d": 5.296604166665929,
      "v": 79
    },
    {
      "midi": 70,
      "hit": false,
      "t": 121847.32066666124,
      "d": 148.30491666664602,
      "v": 78
    },
    {
      "midi": 28,
      "hit": false,
      "t": 121868.5070833279,
      "d": 121.82189583331638,
      "v": 100
    },
    {
      "midi": 40,
      "hit": false,
      "t": 121868.5070833279,
      "d": 121.82189583331638,
      "v": 100
    },
    {
      "midi": 95,
      "hit": false,
      "t": 121884.3968958279,
      "d": 10.593208333331859,
      "v": 52
    },
    {
      "midi": 100,
      "hit": false,
      "t": 121884.3968958279,
      "d": 10.593208333331859,
      "v": 63
    },
    {
      "midi": 52,
      "hit": false,
      "t": 121889.69349999457,
      "d": 58.26264583332522,
      "v": 60
    },
    {
      "midi": 42,
      "hit": false,
      "t": 121894.99010416123,
      "d": 5.296604166665929,
      "v": 47
    },
    {
      "midi": 64,
      "hit": false,
      "t": 121910.87991666123,
      "d": 5.296604166665929,
      "v": 80
    },
    {
      "midi": 57,
      "hit": false,
      "t": 121921.47312499456,
      "d": 5.296604166665929,
      "v": 75
    },
    {
      "midi": 69,
      "hit": false,
      "t": 121932.0663333279,
      "d": 1038.1344166666095,
      "v": 79
    },
    {
      "midi": 28,
      "hit": false,
      "t": 121995.62558332788,
      "d": 148.30491666666057,
      "v": 100
    },
    {
      "midi": 40,
      "hit": false,
      "t": 121995.62558332788,
      "d": 148.30491666666057,
      "v": 100
    },
    {
      "midi": 42,
      "hit": false,
      "t": 122011.51539582788,
      "d": 5.296604166665929,
      "v": 67
    },
    {
      "midi": 93,
      "hit": false,
      "t": 122011.51539582788,
      "d": 10.593208333331859,
      "v": 56
    },
    {
      "midi": 98,
      "hit": false,
      "t": 122011.51539582788,
      "d": 10.593208333331859,
      "v": 67
    },
    {
      "midi": 35,
      "hit": false,
      "t": 122016.81199999455,
      "d": 74.15245833333756,
      "v": 120
    },
    {
      "midi": 33,
      "hit": false,
      "t": 122016.81199999455,
      "d": 90.04227083333535,
      "v": 63
    },
    {
      "midi": 76,
      "hit": false,
      "t": 122016.81199999455,
      "d": 105.93208333333314,
      "v": 89
    },
    {
      "midi": 70,
      "hit": false,
      "t": 122016.81199999455,
      "d": 953.3887499999546,
      "v": 72
    },
    {
      "midi": 71,
      "hit": false,
      "t": 122027.40520832788,
      "d": 100.63547916666721,
      "v": 116
    },
    {
      "midi": 31,
      "hit": false,
      "t": 122122.74408332788,
      "d": 148.30491666666057,
      "v": 100
    },
    {
      "midi": 43,
      "hit": false,
      "t": 122122.74408332788,
      "d": 148.30491666666057,
      "v": 100
    },
    {
      "midi": 93,
      "hit": false,
      "t": 122138.63389582788,
      "d": 10.593208333331859,
      "v": 32
    },
    {
      "midi": 98,
      "hit": false,
      "t": 122138.63389582788,
      "d": 10.593208333331859,
      "v": 43
    },
    {
      "midi": 55,
      "hit": false,
      "t": 122143.93049999455,
      "d": 90.04227083333535,
      "v": 77
    },
    {
      "midi": 42,
      "hit": false,
      "t": 122149.22710416121,
      "d": 5.296604166665929,
      "v": 46
    },
    {
      "midi": 76,
      "hit": false,
      "t": 122154.52370832788,
      "d": 84.74566666666942,
      "v": 107
    },
    {
      "midi": 71,
      "hit": false,
      "t": 122165.11691666121,
      "d": 79.44906250000349,
      "v": 111
    },
    {
      "midi": 28,
      "hit": false,
      "t": 122260.45579166121,
      "d": 169.4913333333243,
      "v": 100
    },
    {
      "midi": 40,
      "hit": false,
      "t": 122260.45579166121,
      "d": 169.4913333333243,
      "v": 100
    },
    {
      "midi": 42,
      "hit": false,
      "t": 122271.04899999454,
      "d": 5.296604166665929,
      "v": 86
    },
    {
      "midi": 76,
      "hit": false,
      "t": 122271.04899999454,
      "d": 105.93208333333314,
      "v": 102
    },
    {
      "midi": 71,
      "hit": false,
      "t": 122271.04899999454,
      "d": 111.22868749999907,
      "v": 114
    },
    {
      "midi": 72,
      "hit": false,
      "t": 122271.04899999454,
      "d": 699.1517499999609,
      "v": 81
    },
    {
      "midi": 93,
      "hit": false,
      "t": 122392.87089582787,
      "d": 26.483020833329647,
      "v": 52
    },
    {
      "midi": 98,
      "hit": false,
      "t": 122392.87089582787,
      "d": 26.483020833329647,
      "v": 63
    },
    {
      "midi": 38,
      "hit": false,
      "t": 122398.16749999454,
      "d": 5.296604166665929,
      "v": 30
    },
    {
      "midi": 52,
      "hit": false,
      "t": 122398.16749999454,
      "d": 90.0422708333208,
      "v": 50
    },
    {
      "midi": 73,
      "hit": false,
      "t": 122398.16749999454,
      "d": 572.033249999964,
      "v": 85
    },
    {
      "midi": 42,
      "hit": false,
      "t": 122403.4641041612,
      "d": 5.296604166665929,
      "v": 47
    },
    {
      "midi": 76,
      "hit": false,
      "t": 122408.76070832787,
      "d": 68.85585416665708,
      "v": 99
    },
    {
      "midi": 71,
      "hit": false,
      "t": 122419.3539166612,
      "d": 63.55924999999115,
      "v": 75
    },
    {
      "midi": 57,
      "hit": false,
      "t": 122429.94712499453,
      "d": 5.296604166665929,
      "v": 75
    },
    {
      "midi": 38,
      "hit": false,
      "t": 122440.54033332787,
      "d": 5.296604166665929,
      "v": 30
    },
    {
      "midi": 38,
      "hit": false,
      "t": 122482.9131666612,
      "d": 5.296604166665929,
      "v": 30
    },
    {
      "midi": 42,
      "hit": false,
      "t": 122519.98939582786,
      "d": 5.296604166665929,
      "v": 76
    },
    {
      "midi": 31,
      "hit": false,
      "t": 122519.98939582786,
      "d": 121.82189583333093,
      "v": 100
    },
    {
      "midi": 43,
      "hit": false,
      "t": 122519.98939582786,
      "d": 121.82189583333093,
      "v": 100
    },
    {
      "midi": 38,
      "hit": false,
      "t": 122525.28599999452,
      "d": 5.296604166665929,
      "v": 30
    },
    {
      "midi": 40,
      "hit": false,
      "t": 122525.28599999452,
      "d": 5.296604166665929,
      "v": 93
    },
    {
      "midi": 57,
      "hit": false,
      "t": 122525.28599999452,
      "d": 5.296604166665929,
      "v": 75
    },
    {
      "midi": 35,
      "hit": false,
      "t": 122525.28599999452,
      "d": 74.15245833333756,
      "v": 120
    },
    {
      "midi": 55,
      "hit": false,
      "t": 122525.28599999452,
      "d": 90.04227083333535,
      "v": 69
    },
    {
      "midi": 74,
      "hit": false,
      "t": 122525.28599999452,
      "d": 444.9147499999817,
      "v": 94
    },
    {
      "midi": 64,
      "hit": false,
      "t": 122535.87920832785,
      "d": 5.296604166665929,
      "v": 79
    },
    {
      "midi": 76,
      "hit": false,
      "t": 122652.40449999452,
      "d": 10.593208333331859,
      "v": 87
    },
    {
      "midi": 43,
      "hit": false,
      "t": 122652.40449999452,
      "d": 90.04227083333535,
      "v": 41
    },
    {
      "midi": 42,
      "hit": false,
      "t": 122657.70110416118,
      "d": 5.296604166665929,
      "v": 52
    },
    {
      "midi": 64,
      "hit": false,
      "t": 122662.99770832785,
      "d": 5.296604166665929,
      "v": 75
    },
    {
      "midi": 95,
      "hit": false,
      "t": 122774.22639582785,
      "d": 10.593208333331859,
      "v": 65
    },
    {
      "midi": 100,
      "hit": false,
      "t": 122774.22639582785,
      "d": 10.593208333331859,
      "v": 76
    },
    {
      "midi": 31,
      "hit": false,
      "t": 122774.22639582785,
      "d": 143.00831249999464,
      "v": 100
    },
    {
      "midi": 43,
      "hit": false,
      "t": 122774.22639582785,
      "d": 143.00831249999464,
      "v": 100
    },
    {
      "midi": 42,
      "hit": false,
      "t": 122779.52299999451,
      "d": 5.296604166665929,
      "v": 78
    },
    {
      "midi": 57,
      "hit": false,
      "t": 122779.52299999451,
      "d": 21.186416666663717,
      "v": 87
    },
    {
      "midi": 55,
      "hit": false,
      "t": 122779.52299999451,
      "d": 90.04227083333535,
      "v": 77
    },
    {
      "midi": 77,
      "hit": false,
      "t": 122779.52299999451,
      "d": 190.677749999988,
      "v": 87
    },
    {
      "midi": 64,
      "hit": false,
      "t": 122790.11620832785,
      "d": 5.296604166665929,
      "v": 98
    },
    {
      "midi": 42,
      "hit": false,
      "t": 122864.26866666118,
      "d": 5.296604166665929,
      "v": 57
    },
    {
      "midi": 33,
      "hit": false,
      "t": 122901.34489582785,
      "d": 100.63547916665266,
      "v": 100
    },
    {
      "midi": 45,
      "hit": false,
      "t": 122901.34489582785,
      "d": 100.63547916665266,
      "v": 100
    },
    {
      "midi": 64,
      "hit": false,
      "t": 122906.64149999451,
      "d": 5.296604166665929,
      "v": 62
    },
    {
      "midi": 78,
      "hit": false,
      "t": 122906.64149999451,
      "d": 190.67774999997346,
      "v": 79
    },
    {
      "midi": 57,
      "hit": false,
      "t": 122917.23470832784,
      "d": 37.076229166661506,
      "v": 83
    },
    {
      "midi": 42,
      "hit": false,
      "t": 123028.46339582783,
      "d": 5.296604166665929,
      "v": 52
    },
    {
      "midi": 52,
      "hit": false,
      "t": 123033.7599999945,
      "d": 5.296604166665929,
      "v": 81
    },
    {
      "midi": 35,
      "hit": false,
      "t": 123033.7599999945,
      "d": 74.15245833332301,
      "v": 120
    },
    {
      "midi": 28,
      "hit": false,
      "t": 123033.7599999945,
      "d": 90.0422708333208,
      "v": 77
    },
    {
      "midi": 50,
      "hit": false,
      "t": 123033.7599999945,
      "d": 169.49133333330974,
      "v": 57
    },
    {
      "midi": 40,
      "hit": false,
      "t": 123033.7599999945,
      "d": 190.67774999997346,
      "v": 100
    },
    {
      "midi": 67,
      "hit": false,
      "t": 123033.7599999945,
      "d": 243.64379166663275,
      "v": 127
    },
    {
      "midi": 79,
      "hit": false,
      "t": 123033.7599999945,
      "d": 444.9147499999526,
      "v": 98
    },
    {
      "midi": 59,
      "hit": false,
      "t": 123044.35320832783,
      "d": 5.296604166665929,
      "v": 85
    },
    {
      "midi": 43,
      "hit": false,
      "t": 123044.35320832783,
      "d": 185.38114583330753,
      "v": 60
    },
    {
      "midi": 42,
      "hit": false,
      "t": 123166.17510416114,
      "d": 5.296604166665929,
      "v": 44
    },
    {
      "midi": 59,
      "hit": false,
      "t": 123171.47170832781,
      "d": 5.296604166665929,
      "v": 86
    },
    {
      "midi": 52,
      "hit": false,
      "t": 123182.06491666114,
      "d": 5.296604166665929,
      "v": 81
    },
    {
      "midi": 98,
      "hit": false,
      "t": 123282.7003958278,
      "d": 10.593208333331859,
      "v": 65
    },
    {
      "midi": 103,
      "hit": false,
      "t": 123282.7003958278,
      "d": 10.593208333331859,
      "v": 76
    },
    {
      "midi": 42,
      "hit": false,
      "t": 123287.99699999446,
      "d": 5.296604166665929,
      "v": 101
    },
    {
      "midi": 52,
      "hit": false,
      "t": 123287.99699999446,
      "d": 68.85585416667163,
      "v": 64
    },
    {
      "midi": 55,
      "hit": false,
      "t": 123287.99699999446,
      "d": 68.85585416667163,
      "v": 83
    },
    {
      "midi": 59,
      "hit": false,
      "t": 123287.99699999446,
      "d": 111.22868749999907,
      "v": 93
    },
    {
      "midi": 67,
      "hit": false,
      "t": 123287.99699999446,
      "d": 1769.065791666595,
      "v": 92
    },
    {
      "midi": 64,
      "hit": false,
      "t": 123298.59020832779,
      "d": 90.04227083333535,
      "v": 104
    },
    {
      "midi": 28,
      "hit": false,
      "t": 123415.11549999446,
      "d": 47.669437499993364,
      "v": 100
    },
    {
      "midi": 40,
      "hit": false,
      "t": 123415.11549999446,
      "d": 47.669437499993364,
      "v": 63
    },
    {
      "midi": 42,
      "hit": false,
      "t": 123420.41210416112,
      "d": 5.296604166665929,
      "v": 47
    },
    {
      "midi": 59,
      "hit": false,
      "t": 123425.70870832779,
      "d": 47.669437499993364,
      "v": 94
    },
    {
      "midi": 52,
      "hit": false,
      "t": 123436.30191666112,
      "d": 37.076229166661506,
      "v": 89
    },
    {
      "midi": 28,
      "hit": false,
      "t": 123526.34418749444,
      "d": 137.71170833332872,
      "v": 100
    },
    {
      "midi": 42,
      "hit": false,
      "t": 123536.93739582777,
      "d": 5.296604166665929,
      "v": 52
    },
    {
      "midi": 40,
      "hit": false,
      "t": 123542.23399999444,
      "d": 5.296604166665929,
      "v": 93
    },
    {
      "midi": 57,
      "hit": false,
      "t": 123542.23399999444,
      "d": 5.296604166665929,
      "v": 95
    },
    {
      "midi": 59,
      "hit": false,
      "t": 123542.23399999444,
      "d": 5.296604166665929,
      "v": 82
    },
    {
      "midi": 35,
      "hit": false,
      "t": 123542.23399999444,
      "d": 74.15245833333756,
      "v": 120
    },
    {
      "midi": 43,
      "hit": false,
      "t": 123542.23399999444,
      "d": 201.27095833333442,
      "v": 75
    },
    {
      "midi": 74,
      "hit": false,
      "t": 123542.23399999444,
      "d": 487.28758333330916,
      "v": 77
    },
    {
      "midi": 42,
      "hit": false,
      "t": 123674.6491041611,
      "d": 5.296604166665929,
      "v": 44
    },
    {
      "midi": 59,
      "hit": false,
      "t": 123679.94570832777,
      "d": 5.296604166665929,
      "v": 78
    },
    {
      "midi": 26,
      "hit": false,
      "t": 123775.28458332777,
      "d": 121.82189583333093,
      "v": 100
    },
    {
      "midi": 38,
      "hit": false,
      "t": 123775.28458332777,
      "d": 121.82189583333093,
      "v": 100
    },
    {
      "midi": 93,
      "hit": false,
      "t": 123791.17439582777,
      "d": 10.593208333331859,
      "v": 56
    },
    {
      "midi": 98,
      "hit": false,
      "t": 123791.17439582777,
      "d": 10.593208333331859,
      "v": 67
    },
    {
      "midi": 42,
      "hit": false,
      "t": 123796.47099999443,
      "d": 5.296604166665929,
      "v": 101
    },
    {
      "midi": 50,
      "hit": false,
      "t": 123796.47099999443,
      "d": 5.296604166665929,
      "v": 81
    },
    {
      "midi": 57,
      "hit": false,
      "t": 123807.06420832776,
      "d": 5.296604166665929,
      "v": 85
    },
    {
      "midi": 62,
      "hit": false,
      "t": 123817.6574166611,
      "d": 5.296604166665929,
      "v": 96
    },
    {
      "midi": 40,
      "hit": false,
      "t": 123902.40308332776,
      "d": 153.60152083331195,
      "v": 100
    },
    {
      "midi": 95,
      "hit": false,
      "t": 123918.29289582776,
      "d": 10.593208333331859,
      "v": 52
    },
    {
      "midi": 100,
      "hit": false,
      "t": 123918.29289582776,
      "d": 10.593208333331859,
      "v": 63
    },
    {
      "midi": 64,
      "hit": false,
      "t": 123923.58949999443,
      "d": 5.296604166665929,
      "v": 102
    },
    {
      "midi": 52,
      "hit": false,
      "t": 123923.58949999443,
      "d": 58.26264583332522,
      "v": 60
    },
    {
      "midi": 42,
      "hit": false,
      "t": 123928.8861041611,
      "d": 5.296604166665929,
      "v": 47
    },
    {
      "midi": 57,
      "hit": false,
      "t": 123934.18270832776,
      "d": 5.296604166665929,
      "v": 86
    },
    {
      "midi": 50,
      "hit": false,
      "t": 123944.77591666109,
      "d": 5.296604166665929,
      "v": 81
    },
    {
      "midi": 31,
      "hit": false,
      "t": 124029.52158332775,
      "d": 116.525291666665,
      "v": 100
    },
    {
      "midi": 43,
      "hit": false,
      "t": 124029.52158332775,
      "d": 116.525291666665,
      "v": 100
    },
    {
      "midi": 42,
      "hit": false,
      "t": 124045.41139582774,
      "d": 5.296604166665929,
      "v": 67
    },
    {
      "midi": 93,
      "hit": false,
      "t": 124045.41139582774,
      "d": 10.593208333331859,
      "v": 56
    },
    {
      "midi": 98,
      "hit": false,
      "t": 124045.41139582774,
      "d": 10.593208333331859,
      "v": 67
    },
    {
      "midi": 28,
      "hit": false,
      "t": 124050.70799999441,
      "d": 5.296604166665929,
      "v": 63
    },
    {
      "midi": 35,
      "hit": false,
      "t": 124050.70799999441,
      "d": 74.15245833333756,
      "v": 120
    },
    {
      "midi": 57,
      "hit": false,
      "t": 124050.70799999441,
      "d": 90.04227083333535,
      "v": 93
    },
    {
      "midi": 73,
      "hit": false,
      "t": 124050.70799999441,
      "d": 487.2875833333237,
      "v": 77
    },
    {
      "midi": 62,
      "hit": false,
      "t": 124061.30120832774,
      "d": 58.262645833339775,
      "v": 104
    },
    {
      "midi": 31,
      "hit": false,
      "t": 124156.64008332774,
      "d": 148.30491666666057,
      "v": 100
    },
    {
      "midi": 43,
      "hit": false,
      "t": 124156.64008332774,
      "d": 148.30491666666057,
      "v": 100
    },
    {
      "midi": 93,
      "hit": false,
      "t": 124172.52989582774,
      "d": 10.593208333331859,
      "v": 32
    },
    {
      "midi": 98,
      "hit": false,
      "t": 124172.52989582774,
      "d": 10.593208333331859,
      "v": 43
    },
    {
      "midi": 62,
      "hit": false,
      "t": 124177.82649999441,
      "d": 31.779624999995576,
      "v": 102
    },
    {
      "midi": 42,
      "hit": false,
      "t": 124183.12310416107,
      "d": 5.296604166665929,
      "v": 46
    },
    {
      "midi": 57,
      "hit": false,
      "t": 124188.41970832774,
      "d": 5.296604166665929,
      "v": 124
    },
    {
      "midi": 50,
      "hit": false,
      "t": 124199.01291666107,
      "d": 5.296604166665929,
      "v": 89
    },
    {
      "midi": 28,
      "hit": false,
      "t": 124289.0551874944,
      "d": 169.4913333333243,
      "v": 100
    },
    {
      "midi": 40,
      "hit": false,
      "t": 124289.0551874944,
      "d": 169.4913333333243,
      "v": 100
    },
    {
      "midi": 42,
      "hit": false,
      "t": 124304.9449999944,
      "d": 5.296604166665929,
      "v": 86
    },
    {
      "midi": 50,
      "hit": false,
      "t": 124304.9449999944,
      "d": 5.296604166665929,
      "v": 62
    },
    {
      "midi": 57,
      "hit": false,
      "t": 124315.53820832774,
      "d": 5.296604166665929,
      "v": 114
    },
    {
      "midi": 93,
      "hit": false,
      "t": 124426.76689582774,
      "d": 26.483020833329647,
      "v": 52
    },
    {
      "midi": 98,
      "hit": false,
      "t": 124426.76689582774,
      "d": 26.483020833329647,
      "v": 63
    },
    {
      "midi": 52,
      "hit": false,
      "t": 124432.0634999944,
      "d": 90.04227083333535,
      "v": 58
    },
    {
      "midi": 42,
      "hit": false,
      "t": 124437.36010416107,
      "d": 5.296604166665929,
      "v": 47
    },
    {
      "midi": 62,
      "hit": false,
      "t": 124442.65670832773,
      "d": 95.33887500000128,
      "v": 106
    },
    {
      "midi": 57,
      "hit": false,
      "t": 124453.24991666107,
      "d": 90.04227083333535,
      "v": 71
    },
    {
      "midi": 31,
      "hit": false,
      "t": 124548.58879166107,
      "d": 376.0588958333392,
      "v": 100
    },
    {
      "midi": 43,
      "hit": false,
      "t": 124548.58879166107,
      "d": 376.0588958333392,
      "v": 100
    },
    {
      "midi": 42,
      "hit": false,
      "t": 124553.88539582773,
      "d": 5.296604166665929,
      "v": 76
    },
    {
      "midi": 40,
      "hit": false,
      "t": 124559.1819999944,
      "d": 5.296604166665929,
      "v": 93
    },
    {
      "midi": 35,
      "hit": false,
      "t": 124559.1819999944,
      "d": 74.15245833333756,
      "v": 120
    },
    {
      "midi": 69,
      "hit": false,
      "t": 124559.1819999944,
      "d": 487.2875833333237,
      "v": 77
    },
    {
      "midi": 62,
      "hit": false,
      "t": 124569.77520832773,
      "d": 121.82189583334548,
      "v": 106
    },
    {
      "midi": 28,
      "hit": false,
      "t": 124686.30049999441,
      "d": 90.04227083333535,
      "v": 41
    },
    {
      "midi": 42,
      "hit": false,
      "t": 124691.59710416108,
      "d": 5.296604166665929,
      "v": 52
    },
    {
      "midi": 64,
      "hit": false,
      "t": 124696.89370832774,
      "d": 95.33887500000128,
      "v": 106
    },
    {
      "midi": 95,
      "hit": false,
      "t": 124808.12239582774,
      "d": 10.593208333331859,
      "v": 65
    },
    {
      "midi": 100,
      "hit": false,
      "t": 124808.12239582774,
      "d": 10.593208333331859,
      "v": 76
    },
    {
      "midi": 46,
      "hit": false,
      "t": 124813.4189999944,
      "d": 5.296604166665929,
      "v": 78
    },
    {
      "midi": 52,
      "hit": false,
      "t": 124813.4189999944,
      "d": 5.296604166665929,
      "v": 81
    },
    {
      "midi": 55,
      "hit": false,
      "t": 124813.4189999944,
      "d": 90.04227083333535,
      "v": 77
    },
    {
      "midi": 33,
      "hit": false,
      "t": 124929.94429166107,
      "d": 100.63547916665266,
      "v": 100
    },
    {
      "midi": 45,
      "hit": false,
      "t": 124929.94429166107,
      "d": 100.63547916665266,
      "v": 100
    },
    {
      "midi": 57,
      "hit": false,
      "t": 124940.5374999944,
      "d": 58.26264583332522,
      "v": 60
    },
    {
      "midi": 44,
      "hit": false,
      "t": 124945.83410416107,
      "d": 5.296604166665929,
      "v": 78
    },
    {
      "midi": 66,
      "hit": false,
      "t": 124951.13070832774,
      "d": 105.93208333331859,
      "v": 106
    },
    {
      "midi": 42,
      "hit": false,
      "t": 125062.35939582772,
      "d": 5.296604166665929,
      "v": 52
    },
    {
      "midi": 35,
      "hit": false,
      "t": 125067.65599999439,
      "d": 74.15245833333756,
      "v": 120
    },
    {
      "midi": 31,
      "hit": false,
      "t": 125067.65599999439,
      "d": 90.04227083333535,
      "v": 77
    },
    {
      "midi": 50,
      "hit": false,
      "t": 125067.65599999439,
      "d": 169.4913333333243,
      "v": 57
    },
    {
      "midi": 26,
      "hit": false,
      "t": 125067.65599999439,
      "d": 190.677749999988,
      "v": 100
    },
    {
      "midi": 38,
      "hit": false,
      "t": 125067.65599999439,
      "d": 190.677749999988,
      "v": 100
    },
    {
      "midi": 74,
      "hit": false,
      "t": 125067.65599999439,
      "d": 370.76229166664416,
      "v": 115
    },
    {
      "midi": 54,
      "hit": false,
      "t": 125067.65599999439,
      "d": 2012.7095833332132,
      "v": 68
    },
    {
      "midi": 45,
      "hit": false,
      "t": 125078.24920832772,
      "d": 185.38114583332208,
      "v": 60
    },
    {
      "midi": 66,
      "hit": false,
      "t": 125194.77449999438,
      "d": 1896.1842916665482,
      "v": 72
    },
    {
      "midi": 42,
      "hit": false,
      "t": 125200.07110416105,
      "d": 5.296604166665929,
      "v": 44
    },
    {
      "midi": 64,
      "hit": false,
      "t": 125205.36770832771,
      "d": 111.22868749999907,
      "v": 106
    },
    {
      "midi": 98,
      "hit": false,
      "t": 125316.59639582771,
      "d": 10.593208333331859,
      "v": 65
    },
    {
      "midi": 103,
      "hit": false,
      "t": 125316.59639582771,
      "d": 10.593208333331859,
      "v": 76
    },
    {
      "midi": 42,
      "hit": false,
      "t": 125321.89299999438,
      "d": 5.296604166665929,
      "v": 101
    },
    {
      "midi": 55,
      "hit": false,
      "t": 125321.89299999438,
      "d": 21.186416666663717,
      "v": 94
    },
    {
      "midi": 47,
      "hit": false,
      "t": 125321.89299999438,
      "d": 68.85585416665708,
      "v": 64
    },
    {
      "midi": 50,
      "hit": false,
      "t": 125321.89299999438,
      "d": 68.85585416665708,
      "v": 83
    },
    {
      "midi": 69,
      "hit": false,
      "t": 125321.89299999438,
      "d": 248.94039583329868,
      "v": 94
    },
    {
      "midi": 62,
      "hit": false,
      "t": 125332.48620832771,
      "d": 74.15245833332301,
      "v": 106
    },
    {
      "midi": 26,
      "hit": false,
      "t": 125449.01149999436,
      "d": 47.669437499993364,
      "v": 100
    },
    {
      "midi": 38,
      "hit": false,
      "t": 125449.01149999436,
      "d": 47.669437499993364,
      "v": 100
    },
    {
      "midi": 31,
      "hit": false,
      "t": 125449.01149999436,
      "d": 90.0422708333208,
      "v": 63
    },
    {
      "midi": 74,
      "hit": false,
      "t": 125449.01149999436,
      "d": 1641.947291666569,
      "v": 112
    },
    {
      "midi": 42,
      "hit": false,
      "t": 125454.30810416103,
      "d": 5.296604166665929,
      "v": 47
    },
    {
      "midi": 55,
      "hit": false,
      "t": 125459.6047083277,
      "d": 37.076229166661506,
      "v": 90
    },
    {
      "midi": 26,
      "hit": false,
      "t": 125560.24018749435,
      "d": 137.71170833332872,
      "v": 100
    },
    {
      "midi": 42,
      "hit": false,
      "t": 125570.83339582768,
      "d": 5.296604166665929,
      "v": 52
    },
    {
      "midi": 40,
      "hit": false,
      "t": 125576.12999999434,
      "d": 5.296604166665929,
      "v": 93
    },
    {
      "midi": 59,
      "hit": false,
      "t": 125576.12999999434,
      "d": 5.296604166665929,
      "v": 83
    },
    {
      "midi": 35,
      "hit": false,
      "t": 125576.12999999434,
      "d": 74.15245833333756,
      "v": 120
    },
    {
      "midi": 38,
      "hit": false,
      "t": 125576.12999999434,
      "d": 121.82189583333093,
      "v": 63
    },
    {
      "midi": 55,
      "hit": false,
      "t": 125703.24849999434,
      "d": 5.296604166665929,
      "v": 79
    },
    {
      "midi": 42,
      "hit": false,
      "t": 125708.545104161,
      "d": 5.296604166665929,
      "v": 44
    },
    {
      "midi": 62,
      "hit": false,
      "t": 125713.84170832767,
      "d": 79.44906250000349,
      "v": 117
    },
    {
      "midi": 26,
      "hit": false,
      "t": 125809.18058332767,
      "d": 121.82189583333093,
      "v": 100
    },
    {
      "midi": 38,
      "hit": false,
      "t": 125809.18058332767,
      "d": 121.82189583333093,
      "v": 100
    },
    {
      "midi": 93,
      "hit": false,
      "t": 125825.07039582767,
      "d": 10.593208333331859,
      "v": 56
    },
    {
      "midi": 98,
      "hit": false,
      "t": 125825.07039582767,
      "d": 10.593208333331859,
      "v": 67
    },
    {
      "midi": 42,
      "hit": false,
      "t": 125830.36699999434,
      "d": 5.296604166665929,
      "v": 101
    },
    {
      "midi": 55,
      "hit": false,
      "t": 125830.36699999434,
      "d": 5.296604166665929,
      "v": 82
    },
    {
      "midi": 50,
      "hit": false,
      "t": 125830.36699999434,
      "d": 90.04227083333535,
      "v": 77
    },
    {
      "midi": 62,
      "hit": false,
      "t": 125840.96020832767,
      "d": 5.296604166665929,
      "v": 86
    },
    {
      "midi": 28,
      "hit": false,
      "t": 125936.29908332767,
      "d": 158.89812499997788,
      "v": 100
    },
    {
      "midi": 40,
      "hit": false,
      "t": 125936.29908332767,
      "d": 158.89812499997788,
      "v": 100
    },
    {
      "midi": 95,
      "hit": false,
      "t": 125952.18889582767,
      "d": 10.593208333331859,
      "v": 52
    },
    {
      "midi": 100,
      "hit": false,
      "t": 125952.18889582767,
      "d": 10.593208333331859,
      "v": 63
    },
    {
      "midi": 52,
      "hit": false,
      "t": 125957.48549999433,
      "d": 58.26264583332522,
      "v": 60
    },
    {
      "midi": 42,
      "hit": false,
      "t": 125962.782104161,
      "d": 5.296604166665929,
      "v": 47
    },
    {
      "midi": 62,
      "hit": false,
      "t": 125978.671916661,
      "d": 5.296604166665929,
      "v": 87
    },
    {
      "midi": 55,
      "hit": false,
      "t": 125989.26512499433,
      "d": 5.296604166665929,
      "v": 82
    },
    {
      "midi": 43,
      "hit": false,
      "t": 126063.41758332765,
      "d": 116.525291666665,
      "v": 100
    },
    {
      "midi": 42,
      "hit": false,
      "t": 126079.30739582765,
      "d": 5.296604166665929,
      "v": 46
    },
    {
      "midi": 93,
      "hit": false,
      "t": 126079.30739582765,
      "d": 10.593208333331859,
      "v": 56
    },
    {
      "midi": 98,
      "hit": false,
      "t": 126079.30739582765,
      "d": 10.593208333331859,
      "v": 67
    },
    {
      "midi": 35,
      "hit": false,
      "t": 126084.60399999432,
      "d": 74.15245833333756,
      "v": 120
    },
    {
      "midi": 31,
      "hit": false,
      "t": 126084.60399999432,
      "d": 90.04227083333535,
      "v": 63
    },
    {
      "midi": 79,
      "hit": false,
      "t": 126084.60399999432,
      "d": 376.0588958333101,
      "v": 107
    },
    {
      "midi": 62,
      "hit": false,
      "t": 126095.19720832765,
      "d": 5.296604166665929,
      "v": 127
    },
    {
      "midi": 57,
      "hit": false,
      "t": 126105.79041666098,
      "d": 116.525291666665,
      "v": 127
    },
    {
      "midi": 42,
      "hit": false,
      "t": 126169.34966666099,
      "d": 5.296604166665929,
      "v": 62
    },
    {
      "midi": 31,
      "hit": false,
      "t": 126190.53608332765,
      "d": 148.30491666664602,
      "v": 100
    },
    {
      "midi": 43,
      "hit": false,
      "t": 126190.53608332765,
      "d": 148.30491666664602,
      "v": 100
    },
    {
      "midi": 93,
      "hit": false,
      "t": 126206.42589582765,
      "d": 10.593208333331859,
      "v": 32
    },
    {
      "midi": 98,
      "hit": false,
      "t": 126206.42589582765,
      "d": 10.593208333331859,
      "v": 43
    },
    {
      "midi": 55,
      "hit": false,
      "t": 126211.72249999431,
      "d": 90.0422708333208,
      "v": 77
    },
    {
      "midi": 59,
      "hit": false,
      "t": 126211.72249999431,
      "d": 143.0083124999801,
      "v": 90
    },
    {
      "midi": 42,
      "hit": false,
      "t": 126254.09533332764,
      "d": 5.296604166665929,
      "v": 77
    },
    {
      "midi": 28,
      "hit": false,
      "t": 126322.9511874943,
      "d": 169.4913333333243,
      "v": 100
    },
    {
      "midi": 40,
      "hit": false,
      "t": 126322.9511874943,
      "d": 169.4913333333243,
      "v": 100
    },
    {
      "midi": 42,
      "hit": false,
      "t": 126338.8409999943,
      "d": 5.296604166665929,
      "v": 86
    },
    {
      "midi": 55,
      "hit": false,
      "t": 126338.8409999943,
      "d": 5.296604166665929,
      "v": 63
    },
    {
      "midi": 93,
      "hit": false,
      "t": 126460.66289582763,
      "d": 26.483020833329647,
      "v": 52
    },
    {
      "midi": 98,
      "hit": false,
      "t": 126460.66289582763,
      "d": 26.483020833329647,
      "v": 63
    },
    {
      "midi": 52,
      "hit": false,
      "t": 126465.9594999943,
      "d": 90.04227083333535,
      "v": 50
    },
    {
      "midi": 78,
      "hit": false,
      "t": 126465.9594999943,
      "d": 376.05889583332464,
      "v": 101
    },
    {
      "midi": 42,
      "hit": false,
      "t": 126471.25610416096,
      "d": 5.296604166665929,
      "v": 47
    },
    {
      "midi": 62,
      "hit": false,
      "t": 126487.14591666096,
      "d": 84.74566666666942,
      "v": 97
    },
    {
      "midi": 55,
      "hit": false,
      "t": 126497.73912499429,
      "d": 5.296604166665929,
      "v": 82
    },
    {
      "midi": 31,
      "hit": false,
      "t": 126582.48479166096,
      "d": 121.82189583333093,
      "v": 100
    },
    {
      "midi": 43,
      "hit": false,
      "t": 126582.48479166096,
      "d": 121.82189583333093,
      "v": 100
    },
    {
      "midi": 42,
      "hit": false,
      "t": 126587.78139582762,
      "d": 5.296604166665929,
      "v": 76
    },
    {
      "midi": 40,
      "hit": false,
      "t": 126593.07799999429,
      "d": 5.296604166665929,
      "v": 93
    },
    {
      "midi": 35,
      "hit": false,
      "t": 126593.07799999429,
      "d": 74.15245833333756,
      "v": 120
    },
    {
      "midi": 55,
      "hit": false,
      "t": 126593.07799999429,
      "d": 90.04227083333535,
      "v": 69
    },
    {
      "midi": 62,
      "hit": false,
      "t": 126593.07799999429,
      "d": 143.00831249999464,
      "v": 100
    },
    {
      "midi": 31,
      "hit": false,
      "t": 126709.60329166095,
      "d": 169.4913333333243,
      "v": 100
    },
    {
      "midi": 43,
      "hit": false,
      "t": 126720.19649999429,
      "d": 90.04227083333535,
      "v": 41
    },
    {
      "midi": 64,
      "hit": false,
      "t": 126720.19649999429,
      "d": 386.65210416664195,
      "v": 100
    },
    {
      "midi": 42,
      "hit": false,
      "t": 126725.49310416095,
      "d": 5.296604166665929,
      "v": 52
    },
    {
      "midi": 59,
      "hit": false,
      "t": 126741.38291666095,
      "d": 5.296604166665929,
      "v": 87
    },
    {
      "midi": 33,
      "hit": false,
      "t": 126836.72179166095,
      "d": 100.63547916666721,
      "v": 100
    },
    {
      "midi": 45,
      "hit": false,
      "t": 126836.72179166095,
      "d": 100.63547916666721,
      "v": 100
    },
    {
      "midi": 95,
      "hit": false,
      "t": 126842.01839582762,
      "d": 10.593208333331859,
      "v": 65
    },
    {
      "midi": 100,
      "hit": false,
      "t": 126842.01839582762,
      "d": 10.593208333331859,
      "v": 76
    },
    {
      "midi": 42,
      "hit": false,
      "t": 126847.31499999428,
      "d": 5.296604166665929,
      "v": 78
    },
    {
      "midi": 55,
      "hit": false,
      "t": 126847.31499999428,
      "d": 90.04227083333535,
      "v": 77
    },
    {
      "midi": 76,
      "hit": false,
      "t": 126847.31499999428,
      "d": 248.94039583331323,
      "v": 106
    },
    {
      "midi": 57,
      "hit": false,
      "t": 126974.43349999428,
      "d": 58.26264583332522,
      "v": 60
    },
    {
      "midi": 42,
      "hit": false,
      "t": 126979.73010416095,
      "d": 5.296604166665929,
      "v": 78
    },
    {
      "midi": 42,
      "hit": false,
      "t": 127096.2553958276,
      "d": 5.296604166665929,
      "v": 52
    },
    {
      "midi": 57,
      "hit": false,
      "t": 127101.55199999426,
      "d": 5.296604166665929,
      "v": 75
    },
    {
      "midi": 81,
      "hit": false,
      "t": 127101.55199999426,
      "d": 63.55924999999115,
      "v": 100
    },
    {
      "midi": 35,
      "hit": false,
      "t": 127101.55199999426,
      "d": 74.15245833332301,
      "v": 120
    },
    {
      "midi": 33,
      "hit": false,
      "t": 127101.55199999426,
      "d": 90.0422708333208,
      "v": 77
    },
    {
      "midi": 52,
      "hit": false,
      "t": 127101.55199999426,
      "d": 169.49133333330974,
      "v": 57
    },
    {
      "midi": 21,
      "hit": false,
      "t": 127101.55199999426,
      "d": 190.67774999997346,
      "v": 100
    },
    {
      "midi": 49,
      "hit": false,
      "t": 127101.55199999426,
      "d": 4046.605583333003,
      "v": 39
    },
    {
      "midi": 64,
      "hit": false,
      "t": 127112.1452083276,
      "d": 5.296604166665929,
      "v": 79
    },
    {
      "midi": 45,
      "hit": false,
      "t": 127112.1452083276,
      "d": 185.38114583330753,
      "v": 60
    },
    {
      "midi": 64,
      "hit": false,
      "t": 127228.67049999424,
      "d": 5.296604166665929,
      "v": 80
    },
    {
      "midi": 81,
      "hit": false,
      "t": 127228.67049999424,
      "d": 116.52529166665045,
      "v": 100
    },
    {
      "midi": 42,
      "hit": false,
      "t": 127233.96710416091,
      "d": 5.296604166665929,
      "v": 44
    },
    {
      "midi": 57,
      "hit": false,
      "t": 127239.26370832758,
      "d": 5.296604166665929,
      "v": 75
    },
    {
      "midi": 98,
      "hit": false,
      "t": 127350.49239582756,
      "d": 10.593208333331859,
      "v": 65
    },
    {
      "midi": 103,
      "hit": false,
      "t": 127350.49239582756,
      "d": 10.593208333331859,
      "v": 76
    },
    {
      "midi": 42,
      "hit": false,
      "t": 127355.78899999423,
      "d": 5.296604166665929,
      "v": 101
    },
    {
      "midi": 57,
      "hit": false,
      "t": 127355.78899999423,
      "d": 21.186416666663717,
      "v": 87
    },
    {
      "midi": 52,
      "hit": false,
      "t": 127355.78899999423,
      "d": 68.85585416665708,
      "v": 64
    },
    {
      "midi": 55,
      "hit": false,
      "t": 127355.78899999423,
      "d": 68.85585416665708,
      "v": 83
    },
    {
      "midi": 93,
      "hit": false,
      "t": 127355.78899999423,
      "d": 111.22868749998452,
      "v": 100
    },
    {
      "midi": 64,
      "hit": false,
      "t": 127366.38220832756,
      "d": 5.296604166665929,
      "v": 98
    },
    {
      "midi": 64,
      "hit": false,
      "t": 127482.90749999421,
      "d": 5.296604166665929,
      "v": 62
    },
    {
      "midi": 21,
      "hit": false,
      "t": 127482.90749999421,
      "d": 47.669437499993364,
      "v": 100
    },
    {
      "midi": 33,
      "hit": false,
      "t": 127482.90749999421,
      "d": 47.669437499993364,
      "v": 100
    },
    {
      "midi": 45,
      "hit": false,
      "t": 127482.90749999421,
      "d": 90.0422708333208,
      "v": 63
    },
    {
      "midi": 81,
      "hit": false,
      "t": 127482.90749999421,
      "d": 116.52529166665045,
      "v": 100
    },
    {
      "midi": 42,
      "hit": false,
      "t": 127488.20410416088,
      "d": 5.296604166665929,
      "v": 47
    },
    {
      "midi": 57,
      "hit": false,
      "t": 127493.50070832754,
      "d": 37.076229166661506,
      "v": 83
    },
    {
      "midi": 21,
      "hit": false,
      "t": 127594.1361874942,
      "d": 137.71170833331416,
      "v": 100
    },
    {
      "midi": 33,
      "hit": false,
      "t": 127594.1361874942,
      "d": 137.71170833331416,
      "v": 100
    },
    {
      "midi": 42,
      "hit": false,
      "t": 127604.72939582753,
      "d": 5.296604166665929,
      "v": 52
    },
    {
      "midi": 40,
      "hit": false,
      "t": 127610.02599999419,
      "d": 5.296604166665929,
      "v": 93
    },
    {
      "midi": 57,
      "hit": false,
      "t": 127610.02599999419,
      "d": 5.296604166665929,
      "v": 75
    },
    {
      "midi": 64,
      "hit": false,
      "t": 127610.02599999419,
      "d": 37.076229166661506,
      "v": 86
    },
    {
      "midi": 35,
      "hit": false,
      "t": 127610.02599999419,
      "d": 74.15245833332301,
      "v": 120
    },
    {
      "midi": 92,
      "hit": false,
      "t": 127610.02599999419,
      "d": 111.22868749998452,
      "v": 100
    },
    {
      "midi": 45,
      "hit": false,
      "t": 127610.02599999419,
      "d": 201.27095833330532,
      "v": 63
    },
    {
      "midi": 76,
      "hit": false,
      "t": 127631.21241666086,
      "d": 21.186416666663717,
      "v": 121
    },
    {
      "midi": 64,
      "hit": false,
      "t": 127737.14449999417,
      "d": 37.076229166661506,
      "v": 82
    },
    {
      "midi": 81,
      "hit": false,
      "t": 127737.14449999417,
      "d": 100.63547916665266,
      "v": 100
    },
    {
      "midi": 42,
      "hit": false,
      "t": 127742.44110416084,
      "d": 5.296604166665929,
      "v": 44
    },
    {
      "midi": 57,
      "hit": false,
      "t": 127747.7377083275,
      "d": 5.296604166665929,
      "v": 75
    },
    {
      "midi": 76,
      "hit": false,
      "t": 127747.7377083275,
      "d": 21.186416666663717,
      "v": 104
    },
    {
      "midi": 26,
      "hit": false,
      "t": 127843.07658332749,
      "d": 121.82189583333093,
      "v": 100
    },
    {
      "midi": 38,
      "hit": false,
      "t": 127843.07658332749,
      "d": 121.82189583333093,
      "v": 100
    },
    {
      "midi": 93,
      "hit": false,
      "t": 127858.96639582749,
      "d": 10.593208333331859,
      "v": 56
    },
    {
      "midi": 98,
      "hit": false,
      "t": 127858.96639582749,
      "d": 10.593208333331859,
      "v": 67
    },
    {
      "midi": 42,
      "hit": false,
      "t": 127864.26299999416,
      "d": 5.296604166665929,
      "v": 101
    },
    {
      "midi": 57,
      "hit": false,
      "t": 127864.26299999416,
      "d": 5.296604166665929,
      "v": 75
    },
    {
      "midi": 50,
      "hit": false,
      "t": 127864.26299999416,
      "d": 90.04227083333535,
      "v": 77
    },
    {
      "midi": 91,
      "hit": false,
      "t": 127864.26299999416,
      "d": 116.525291666665,
      "v": 100
    },
    {
      "midi": 64,
      "hit": false,
      "t": 127874.85620832749,
      "d": 5.296604166665929,
      "v": 79
    },
    {
      "midi": 76,
      "hit": false,
      "t": 127885.44941666082,
      "d": 15.889812499997788,
      "v": 116
    },
    {
      "midi": 28,
      "hit": false,
      "t": 127970.19508332749,
      "d": 121.82189583331638,
      "v": 100
    },
    {
      "midi": 40,
      "hit": false,
      "t": 127970.19508332749,
      "d": 121.82189583331638,
      "v": 100
    },
    {
      "midi": 95,
      "hit": false,
      "t": 127986.08489582749,
      "d": 10.593208333331859,
      "v": 52
    },
    {
      "midi": 100,
      "hit": false,
      "t": 127986.08489582749,
      "d": 10.593208333331859,
      "v": 63
    },
    {
      "midi": 38,
      "hit": false,
      "t": 127991.38149999415,
      "d": 5.296604166665929,
      "v": 30
    },
    {
      "midi": 52,
      "hit": false,
      "t": 127991.38149999415,
      "d": 58.26264583332522,
      "v": 60
    },
    {
      "midi": 81,
      "hit": false,
      "t": 127991.38149999415,
      "d": 127.1184999999823,
      "v": 100
    },
    {
      "midi": 42,
      "hit": false,
      "t": 127996.67810416082,
      "d": 5.296604166665929,
      "v": 47
    },
    {
      "midi": 76,
      "hit": false,
      "t": 128001.97470832749,
      "d": 15.889812499997788,
      "v": 100
    },
    {
      "midi": 64,
      "hit": false,
      "t": 128012.56791666082,
      "d": 5.296604166665929,
      "v": 80
    },
    {
      "midi": 57,
      "hit": false,
      "t": 128023.16112499415,
      "d": 5.296604166665929,
      "v": 75
    },
    {
      "midi": 38,
      "hit": false,
      "t": 128033.75433332748,
      "d": 5.296604166665929,
      "v": 30
    },
    {
      "midi": 38,
      "hit": false,
      "t": 128076.12716666081,
      "d": 5.296604166665929,
      "v": 30
    },
    {
      "midi": 28,
      "hit": false,
      "t": 128097.31358332747,
      "d": 148.30491666666057,
      "v": 100
    },
    {
      "midi": 40,
      "hit": false,
      "t": 128097.31358332747,
      "d": 148.30491666666057,
      "v": 100
    },
    {
      "midi": 42,
      "hit": false,
      "t": 128113.20339582747,
      "d": 5.296604166665929,
      "v": 67
    },
    {
      "midi": 93,
      "hit": false,
      "t": 128113.20339582747,
      "d": 10.593208333331859,
      "v": 56
    },
    {
      "midi": 98,
      "hit": false,
      "t": 128113.20339582747,
      "d": 10.593208333331859,
      "v": 67
    },
    {
      "midi": 38,
      "hit": false,
      "t": 128118.49999999414,
      "d": 5.296604166665929,
      "v": 30
    },
    {
      "midi": 35,
      "hit": false,
      "t": 128118.49999999414,
      "d": 74.15245833333756,
      "v": 120
    },
    {
      "midi": 33,
      "hit": false,
      "t": 128118.49999999414,
      "d": 90.04227083333535,
      "v": 63
    },
    {
      "midi": 90,
      "hit": false,
      "t": 128118.49999999414,
      "d": 111.22868749999907,
      "v": 100
    },
    {
      "midi": 76,
      "hit": false,
      "t": 128118.49999999414,
      "d": 127.11849999999686,
      "v": 108
    },
    {
      "midi": 71,
      "hit": false,
      "t": 128129.09320832747,
      "d": 116.525291666665,
      "v": 116
    },
    {
      "midi": 31,
      "hit": false,
      "t": 128224.43208332747,
      "d": 148.30491666666057,
      "v": 100
    },
    {
      "midi": 43,
      "hit": false,
      "t": 128224.43208332747,
      "d": 148.30491666666057,
      "v": 100
    },
    {
      "midi": 93,
      "hit": false,
      "t": 128240.32189582747,
      "d": 10.593208333331859,
      "v": 32
    },
    {
      "midi": 98,
      "hit": false,
      "t": 128240.32189582747,
      "d": 10.593208333331859,
      "v": 43
    },
    {
      "midi": 50,
      "hit": false,
      "t": 128245.61849999413,
      "d": 90.04227083333535,
      "v": 77
    },
    {
      "midi": 81,
      "hit": false,
      "t": 128245.61849999413,
      "d": 127.11849999999686,
      "v": 100
    },
    {
      "midi": 42,
      "hit": false,
      "t": 128250.9151041608,
      "d": 5.296604166665929,
      "v": 46
    },
    {
      "midi": 76,
      "hit": false,
      "t": 128256.21170832746,
      "d": 105.93208333333314,
      "v": 123
    },
    {
      "midi": 71,
      "hit": false,
      "t": 128266.8049166608,
      "d": 95.33887500000128,
      "v": 111
    },
    {
      "midi": 28,
      "hit": false,
      "t": 128362.1437916608,
      "d": 169.4913333333243,
      "v": 100
    },
    {
      "midi": 40,
      "hit": false,
      "t": 128362.1437916608,
      "d": 169.4913333333243,
      "v": 100
    },
    {
      "midi": 42,
      "hit": false,
      "t": 128372.73699999413,
      "d": 5.296604166665929,
      "v": 86
    },
    {
      "midi": 89,
      "hit": false,
      "t": 128372.73699999413,
      "d": 90.04227083333535,
      "v": 100
    },
    {
      "midi": 71,
      "hit": false,
      "t": 128372.73699999413,
      "d": 127.11849999999686,
      "v": 114
    },
    {
      "midi": 76,
      "hit": false,
      "t": 128372.73699999413,
      "d": 127.11849999999686,
      "v": 108
    },
    {
      "midi": 93,
      "hit": false,
      "t": 128494.55889582746,
      "d": 26.483020833329647,
      "v": 52
    },
    {
      "midi": 98,
      "hit": false,
      "t": 128494.55889582746,
      "d": 26.483020833329647,
      "v": 63
    },
    {
      "midi": 52,
      "hit": false,
      "t": 128499.85549999413,
      "d": 90.0422708333208,
      "v": 77
    },
    {
      "midi": 81,
      "hit": false,
      "t": 128499.85549999413,
      "d": 105.93208333331859,
      "v": 100
    },
    {
      "midi": 42,
      "hit": false,
      "t": 128505.15210416079,
      "d": 5.296604166665929,
      "v": 47
    },
    {
      "midi": 76,
      "hit": false,
      "t": 128510.44870832746,
      "d": 84.74566666665487,
      "v": 118
    },
    {
      "midi": 71,
      "hit": false,
      "t": 128521.04191666079,
      "d": 79.44906249998894,
      "v": 59
    },
    {
      "midi": 57,
      "hit": false,
      "t": 128531.63512499412,
      "d": 5.296604166665929,
      "v": 75
    },
    {
      "midi": 42,
      "hit": false,
      "t": 128621.67739582744,
      "d": 5.296604166665929,
      "v": 76
    },
    {
      "midi": 31,
      "hit": false,
      "t": 128621.67739582744,
      "d": 121.82189583333093,
      "v": 100
    },
    {
      "midi": 43,
      "hit": false,
      "t": 128621.67739582744,
      "d": 121.82189583333093,
      "v": 100
    },
    {
      "midi": 40,
      "hit": false,
      "t": 128626.97399999411,
      "d": 5.296604166665929,
      "v": 93
    },
    {
      "midi": 57,
      "hit": false,
      "t": 128626.97399999411,
      "d": 5.296604166665929,
      "v": 75
    },
    {
      "midi": 35,
      "hit": false,
      "t": 128626.97399999411,
      "d": 74.15245833333756,
      "v": 120
    },
    {
      "midi": 88,
      "hit": false,
      "t": 128626.97399999411,
      "d": 100.63547916666721,
      "v": 100
    },
    {
      "midi": 64,
      "hit": false,
      "t": 128637.56720832744,
      "d": 5.296604166665929,
      "v": 79
    },
    {
      "midi": 76,
      "hit": false,
      "t": 128754.0924999941,
      "d": 10.593208333331859,
      "v": 87
    },
    {
      "midi": 33,
      "hit": false,
      "t": 128754.0924999941,
      "d": 90.04227083333535,
      "v": 41
    },
    {
      "midi": 81,
      "hit": false,
      "t": 128754.0924999941,
      "d": 111.22868749999907,
      "v": 100
    },
    {
      "midi": 42,
      "hit": false,
      "t": 128759.38910416077,
      "d": 5.296604166665929,
      "v": 52
    },
    {
      "midi": 64,
      "hit": false,
      "t": 128764.68570832744,
      "d": 5.296604166665929,
      "v": 75
    },
    {
      "midi": 95,
      "hit": false,
      "t": 128875.91439582744,
      "d": 10.593208333331859,
      "v": 65
    },
    {
      "midi": 100,
      "hit": false,
      "t": 128875.91439582744,
      "d": 10.593208333331859,
      "v": 76
    },
    {
      "midi": 31,
      "hit": false,
      "t": 128875.91439582744,
      "d": 143.00831249999464,
      "v": 100
    },
    {
      "midi": 43,
      "hit": false,
      "t": 128875.91439582744,
      "d": 143.00831249999464,
      "v": 100
    },
    {
      "midi": 46,
      "hit": false,
      "t": 128881.2109999941,
      "d": 5.296604166665929,
      "v": 78
    },
    {
      "midi": 57,
      "hit": false,
      "t": 128881.2109999941,
      "d": 21.186416666663717,
      "v": 87
    },
    {
      "midi": 87,
      "hit": false,
      "t": 128881.2109999941,
      "d": 90.04227083333535,
      "v": 100
    },
    {
      "midi": 55,
      "hit": false,
      "t": 128881.2109999941,
      "d": 90.04227083333535,
      "v": 77
    },
    {
      "midi": 64,
      "hit": false,
      "t": 128891.80420832743,
      "d": 5.296604166665929,
      "v": 98
    },
    {
      "midi": 33,
      "hit": false,
      "t": 129003.03289582743,
      "d": 100.63547916665266,
      "v": 100
    },
    {
      "midi": 45,
      "hit": false,
      "t": 129003.03289582743,
      "d": 100.63547916665266,
      "v": 100
    },
    {
      "midi": 64,
      "hit": false,
      "t": 129008.3294999941,
      "d": 5.296604166665929,
      "v": 62
    },
    {
      "midi": 81,
      "hit": false,
      "t": 129008.3294999941,
      "d": 111.22868749998452,
      "v": 100
    },
    {
      "midi": 44,
      "hit": false,
      "t": 129013.62610416076,
      "d": 5.296604166665929,
      "v": 78
    },
    {
      "midi": 57,
      "hit": false,
      "t": 129018.92270832743,
      "d": 37.076229166661506,
      "v": 83
    },
    {
      "midi": 42,
      "hit": false,
      "t": 129130.15139582742,
      "d": 5.296604166665929,
      "v": 52
    },
    {
      "midi": 57,
      "hit": false,
      "t": 129135.44799999408,
      "d": 5.296604166665929,
      "v": 75
    },
    {
      "midi": 35,
      "hit": false,
      "t": 129135.44799999408,
      "d": 74.15245833333756,
      "v": 120
    },
    {
      "midi": 33,
      "hit": false,
      "t": 129135.44799999408,
      "d": 90.04227083333535,
      "v": 77
    },
    {
      "midi": 86,
      "hit": false,
      "t": 129135.44799999408,
      "d": 105.93208333333314,
      "v": 100
    },
    {
      "midi": 21,
      "hit": false,
      "t": 129135.44799999408,
      "d": 190.677749999988,
      "v": 100
    },
    {
      "midi": 64,
      "hit": false,
      "t": 129146.04120832741,
      "d": 5.296604166665929,
      "v": 79
    },
    {
      "midi": 64,
      "hit": false,
      "t": 129262.56649999408,
      "d": 5.296604166665929,
      "v": 80
    },
    {
      "midi": 81,
      "hit": false,
      "t": 129262.56649999408,
      "d": 84.74566666665487,
      "v": 100
    },
    {
      "midi": 42,
      "hit": false,
      "t": 129267.86310416074,
      "d": 5.296604166665929,
      "v": 44
    },
    {
      "midi": 57,
      "hit": false,
      "t": 129273.15970832741,
      "d": 5.296604166665929,
      "v": 75
    },
    {
      "midi": 98,
      "hit": false,
      "t": 129384.3883958274,
      "d": 10.593208333331859,
      "v": 65
    },
    {
      "midi": 103,
      "hit": false,
      "t": 129384.3883958274,
      "d": 10.593208333331859,
      "v": 76
    },
    {
      "midi": 42,
      "hit": false,
      "t": 129389.68499999406,
      "d": 5.296604166665929,
      "v": 101
    },
    {
      "midi": 57,
      "hit": false,
      "t": 129389.68499999406,
      "d": 21.186416666663717,
      "v": 87
    },
    {
      "midi": 45,
      "hit": false,
      "t": 129389.68499999406,
      "d": 52.966041666659294,
      "v": 61
    },
    {
      "midi": 50,
      "hit": false,
      "t": 129389.68499999406,
      "d": 52.966041666659294,
      "v": 80
    },
    {
      "midi": 85,
      "hit": false,
      "t": 129389.68499999406,
      "d": 100.63547916665266,
      "v": 100
    },
    {
      "midi": 64,
      "hit": false,
      "t": 129400.27820832739,
      "d": 5.296604166665929,
      "v": 98
    },
    {
      "midi": 21,
      "hit": false,
      "t": 129516.80349999404,
      "d": 47.669437499993364,
      "v": 100
    },
    {
      "midi": 33,
      "hit": false,
      "t": 129516.80349999404,
      "d": 47.669437499993364,
      "v": 100
    },
    {
      "midi": 76,
      "hit": false,
      "t": 129516.80349999404,
      "d": 58.26264583332522,
      "v": 123
    },
    {
      "midi": 71,
      "hit": false,
      "t": 129516.80349999404,
      "d": 68.85585416665708,
      "v": 83
    },
    {
      "midi": 45,
      "hit": false,
      "t": 129516.80349999404,
      "d": 90.0422708333208,
      "v": 63
    },
    {
      "midi": 81,
      "hit": false,
      "t": 129516.80349999404,
      "d": 95.33887499998673,
      "v": 100
    },
    {
      "midi": 42,
      "hit": false,
      "t": 129522.10010416071,
      "d": 5.296604166665929,
      "v": 47
    },
    {
      "midi": 57,
      "hit": false,
      "t": 129527.39670832737,
      "d": 37.076229166661506,
      "v": 83
    },
    {
      "midi": 21,
      "hit": false,
      "t": 129628.03218749403,
      "d": 137.71170833331416,
      "v": 100
    },
    {
      "midi": 33,
      "hit": false,
      "t": 129628.03218749403,
      "d": 137.71170833331416,
      "v": 100
    },
    {
      "midi": 42,
      "hit": false,
      "t": 129638.62539582736,
      "d": 5.296604166665929,
      "v": 52
    },
    {
      "midi": 40,
      "hit": false,
      "t": 129643.92199999403,
      "d": 5.296604166665929,
      "v": 93
    },
    {
      "midi": 57,
      "hit": false,
      "t": 129643.92199999403,
      "d": 5.296604166665929,
      "v": 75
    },
    {
      "midi": 64,
      "hit": false,
      "t": 129643.92199999403,
      "d": 37.076229166661506,
      "v": 86
    },
    {
      "midi": 35,
      "hit": false,
      "t": 129643.92199999403,
      "d": 74.15245833332301,
      "v": 120
    },
    {
      "midi": 84,
      "hit": false,
      "t": 129643.92199999403,
      "d": 111.22868749998452,
      "v": 100
    },
    {
      "midi": 76,
      "hit": false,
      "t": 129771.04049999401,
      "d": 58.26264583332522,
      "v": 123
    },
    {
      "midi": 81,
      "hit": false,
      "t": 129771.04049999401,
      "d": 90.0422708333208,
      "v": 100
    },
    {
      "midi": 40,
      "hit": false,
      "t": 129771.04049999401,
      "d": 90.0422708333208,
      "v": 63
    },
    {
      "midi": 42,
      "hit": false,
      "t": 129776.33710416067,
      "d": 5.296604166665929,
      "v": 44
    },
    {
      "midi": 71,
      "hit": false,
      "t": 129781.63370832734,
      "d": 68.85585416665708,
      "v": 96
    },
    {
      "midi": 26,
      "hit": false,
      "t": 129876.97258332733,
      "d": 121.82189583333093,
      "v": 100
    },
    {
      "midi": 38,
      "hit": false,
      "t": 129876.97258332733,
      "d": 121.82189583333093,
      "v": 100
    },
    {
      "midi": 93,
      "hit": false,
      "t": 129892.86239582732,
      "d": 10.593208333331859,
      "v": 56
    },
    {
      "midi": 98,
      "hit": false,
      "t": 129892.86239582732,
      "d": 10.593208333331859,
      "v": 67
    },
    {
      "midi": 42,
      "hit": false,
      "t": 129898.15899999399,
      "d": 5.296604166665929,
      "v": 101
    },
    {
      "midi": 57,
      "hit": false,
      "t": 129898.15899999399,
      "d": 5.296604166665929,
      "v": 75
    },
    {
      "midi": 50,
      "hit": false,
      "t": 129898.15899999399,
      "d": 90.04227083333535,
      "v": 77
    },
    {
      "midi": 83,
      "hit": false,
      "t": 129898.15899999399,
      "d": 121.82189583333093,
      "v": 100
    },
    {
      "midi": 64,
      "hit": false,
      "t": 129908.75220832732,
      "d": 5.296604166665929,
      "v": 79
    },
    {
      "midi": 28,
      "hit": false,
      "t": 130004.09108332732,
      "d": 121.82189583331638,
      "v": 100
    },
    {
      "midi": 40,
      "hit": false,
      "t": 130004.09108332732,
      "d": 121.82189583331638,
      "v": 100
    },
    {
      "midi": 95,
      "hit": false,
      "t": 130019.98089582732,
      "d": 10.593208333331859,
      "v": 52
    },
    {
      "midi": 100,
      "hit": false,
      "t": 130019.98089582732,
      "d": 10.593208333331859,
      "v": 63
    },
    {
      "midi": 52,
      "hit": false,
      "t": 130025.27749999399,
      "d": 58.26264583332522,
      "v": 60
    },
    {
      "midi": 81,
      "hit": false,
      "t": 130025.27749999399,
      "d": 84.74566666665487,
      "v": 100
    },
    {
      "midi": 42,
      "hit": false,
      "t": 130030.57410416065,
      "d": 5.296604166665929,
      "v": 47
    },
    {
      "midi": 64,
      "hit": false,
      "t": 130046.46391666065,
      "d": 5.296604166665929,
      "v": 80
    },
    {
      "midi": 57,
      "hit": false,
      "t": 130057.05712499398,
      "d": 5.296604166665929,
      "v": 75
    },
    {
      "midi": 28,
      "hit": false,
      "t": 130131.2095833273,
      "d": 148.30491666666057,
      "v": 100
    },
    {
      "midi": 40,
      "hit": false,
      "t": 130131.2095833273,
      "d": 148.30491666666057,
      "v": 100
    },
    {
      "midi": 42,
      "hit": false,
      "t": 130147.0993958273,
      "d": 5.296604166665929,
      "v": 67
    },
    {
      "midi": 93,
      "hit": false,
      "t": 130147.0993958273,
      "d": 10.593208333331859,
      "v": 56
    },
    {
      "midi": 98,
      "hit": false,
      "t": 130147.0993958273,
      "d": 10.593208333331859,
      "v": 67
    },
    {
      "midi": 35,
      "hit": false,
      "t": 130152.39599999397,
      "d": 74.15245833333756,
      "v": 120
    },
    {
      "midi": 33,
      "hit": false,
      "t": 130152.39599999397,
      "d": 90.04227083333535,
      "v": 63
    },
    {
      "midi": 76,
      "hit": false,
      "t": 130152.39599999397,
      "d": 105.93208333333314,
      "v": 89
    },
    {
      "midi": 71,
      "hit": false,
      "t": 130162.9892083273,
      "d": 100.63547916666721,
      "v": 116
    },
    {
      "midi": 31,
      "hit": false,
      "t": 130258.3280833273,
      "d": 148.30491666666057,
      "v": 100
    },
    {
      "midi": 43,
      "hit": false,
      "t": 130258.3280833273,
      "d": 148.30491666666057,
      "v": 100
    },
    {
      "midi": 98,
      "hit": false,
      "t": 130274.2178958273,
      "d": 10.593208333331859,
      "v": 43
    },
    {
      "midi": 93,
      "hit": false,
      "t": 130279.51449999397,
      "d": 5.296604166665929,
      "v": 85
    },
    {
      "midi": 40,
      "hit": false,
      "t": 130279.51449999397,
      "d": 5.296604166665929,
      "v": 93
    },
    {
      "midi": 55,
      "hit": false,
      "t": 130279.51449999397,
      "d": 90.04227083333535,
      "v": 77
    },
    {
      "midi": 69,
      "hit": false,
      "t": 130279.51449999397,
      "d": 121.82189583333093,
      "v": 105
    },
    {
      "midi": 81,
      "hit": false,
      "t": 130279.51449999397,
      "d": 121.82189583333093,
      "v": 116
    },
    {
      "midi": 42,
      "hit": false,
      "t": 130284.81110416063,
      "d": 5.296604166665929,
      "v": 46
    },
    {
      "midi": 76,
      "hit": false,
      "t": 130290.1077083273,
      "d": 84.74566666666942,
      "v": 107
    },
    {
      "midi": 71,
      "hit": false,
      "t": 130300.70091666063,
      "d": 79.44906250000349,
      "v": 111
    },
    {
      "midi": 28,
      "hit": false,
      "t": 130396.03979166063,
      "d": 169.4913333333243,
      "v": 100
    },
    {
      "midi": 40,
      "hit": false,
      "t": 130396.03979166063,
      "d": 169.4913333333243,
      "v": 100
    },
    {
      "midi": 42,
      "hit": false,
      "t": 130406.63299999396,
      "d": 5.296604166665929,
      "v": 86
    },
    {
      "midi": 76,
      "hit": false,
      "t": 130406.63299999396,
      "d": 105.93208333333314,
      "v": 102
    },
    {
      "midi": 71,
      "hit": false,
      "t": 130406.63299999396,
      "d": 111.22868749999907,
      "v": 114
    },
    {
      "midi": 68,
      "hit": false,
      "t": 130406.63299999396,
      "d": 121.82189583333093,
      "v": 105
    },
    {
      "midi": 92,
      "hit": false,
      "t": 130406.63299999396,
      "d": 121.82189583333093,
      "v": 85
    },
    {
      "midi": 80,
      "hit": false,
      "t": 130406.63299999396,
      "d": 121.82189583333093,
      "v": 116
    },
    {
      "midi": 98,
      "hit": false,
      "t": 130528.4548958273,
      "d": 26.483020833329647,
      "v": 63
    },
    {
      "midi": 93,
      "hit": false,
      "t": 130533.75149999396,
      "d": 21.186416666663717,
      "v": 85
    },
    {
      "midi": 52,
      "hit": false,
      "t": 130533.75149999396,
      "d": 90.0422708333208,
      "v": 50
    },
    {
      "midi": 69,
      "hit": false,
      "t": 130533.75149999396,
      "d": 121.82189583331638,
      "v": 105
    },
    {
      "midi": 81,
      "hit": false,
      "t": 130533.75149999396,
      "d": 121.82189583331638,
      "v": 116
    },
    {
      "midi": 42,
      "hit": false,
      "t": 130539.04810416063,
      "d": 5.296604166665929,
      "v": 47
    },
    {
      "midi": 76,
      "hit": false,
      "t": 130544.34470832729,
      "d": 180.0845416666416,
      "v": 99
    },
    {
      "midi": 57,
      "hit": false,
      "t": 130565.53112499396,
      "d": 105.93208333331859,
      "v": 75
    },
    {
      "midi": 42,
      "hit": false,
      "t": 130655.57339582728,
      "d": 5.296604166665929,
      "v": 76
    },
    {
      "midi": 31,
      "hit": false,
      "t": 130655.57339582728,
      "d": 121.82189583331638,
      "v": 100
    },
    {
      "midi": 43,
      "hit": false,
      "t": 130655.57339582728,
      "d": 121.82189583331638,
      "v": 100
    },
    {
      "midi": 40,
      "hit": false,
      "t": 130660.86999999394,
      "d": 5.296604166665929,
      "v": 93
    },
    {
      "midi": 71,
      "hit": false,
      "t": 130660.86999999394,
      "d": 68.85585416665708,
      "v": 105
    },
    {
      "midi": 35,
      "hit": false,
      "t": 130660.86999999394,
      "d": 74.15245833332301,
      "v": 120
    },
    {
      "midi": 55,
      "hit": false,
      "t": 130660.86999999394,
      "d": 90.0422708333208,
      "v": 69
    },
    {
      "midi": 95,
      "hit": false,
      "t": 130660.86999999394,
      "d": 121.82189583331638,
      "v": 85
    },
    {
      "midi": 83,
      "hit": false,
      "t": 130660.86999999394,
      "d": 121.82189583331638,
      "v": 116
    },
    {
      "midi": 43,
      "hit": false,
      "t": 130787.98849999392,
      "d": 90.04227083333535,
      "v": 41
    },
    {
      "midi": 73,
      "hit": false,
      "t": 130787.98849999392,
      "d": 148.30491666666057,
      "v": 105
    },
    {
      "midi": 97,
      "hit": false,
      "t": 130787.98849999392,
      "d": 148.30491666666057,
      "v": 85
    },
    {
      "midi": 85,
      "hit": false,
      "t": 130787.98849999392,
      "d": 148.30491666666057,
      "v": 116
    },
    {
      "midi": 42,
      "hit": false,
      "t": 130793.28510416059,
      "d": 5.296604166665929,
      "v": 52
    },
    {
      "midi": 95,
      "hit": false,
      "t": 130909.81039582725,
      "d": 10.593208333331859,
      "v": 65
    },
    {
      "midi": 100,
      "hit": false,
      "t": 130909.81039582725,
      "d": 10.593208333331859,
      "v": 76
    },
    {
      "midi": 31,
      "hit": false,
      "t": 130909.81039582725,
      "d": 143.00831249999464,
      "v": 100
    },
    {
      "midi": 43,
      "hit": false,
      "t": 130909.81039582725,
      "d": 143.00831249999464,
      "v": 100
    },
    {
      "midi": 40,
      "hit": false,
      "t": 130915.10699999392,
      "d": 5.296604166665929,
      "v": 93
    },
    {
      "midi": 42,
      "hit": false,
      "t": 130915.10699999392,
      "d": 5.296604166665929,
      "v": 78
    },
    {
      "midi": 55,
      "hit": false,
      "t": 130915.10699999392,
      "d": 90.04227083333535,
      "v": 77
    },
    {
      "midi": 74,
      "hit": false,
      "t": 130915.10699999392,
      "d": 153.6015208333265,
      "v": 105
    },
    {
      "midi": 98,
      "hit": false,
      "t": 130915.10699999392,
      "d": 153.6015208333265,
      "v": 85
    },
    {
      "midi": 86,
      "hit": false,
      "t": 130915.10699999392,
      "d": 153.6015208333265,
      "v": 116
    },
    {
      "midi": 42,
      "hit": false,
      "t": 130999.85266666059,
      "d": 5.296604166665929,
      "v": 57
    },
    {
      "midi": 33,
      "hit": false,
      "t": 131036.92889582725,
      "d": 100.63547916668176,
      "v": 100
    },
    {
      "midi": 45,
      "hit": false,
      "t": 131036.92889582725,
      "d": 100.63547916668176,
      "v": 100
    },
    {
      "midi": 40,
      "hit": false,
      "t": 131042.22549999392,
      "d": 5.296604166665929,
      "v": 93
    },
    {
      "midi": 57,
      "hit": false,
      "t": 131042.22549999392,
      "d": 58.262645833339775,
      "v": 60
    },
    {
      "midi": 75,
      "hit": false,
      "t": 131042.22549999392,
      "d": 143.00831250008196,
      "v": 105
    },
    {
      "midi": 99,
      "hit": false,
      "t": 131042.22549999392,
      "d": 143.00831250008196,
      "v": 85
    },
    {
      "midi": 87,
      "hit": false,
      "t": 131042.22549999392,
      "d": 143.00831250008196,
      "v": 116
    },
    {
      "midi": 42,
      "hit": false,
      "t": 131164.04739582728,
      "d": 5.296604166680481,
      "v": 58
    },
    {
      "midi": 57,
      "hit": false,
      "t": 131169.34399999396,
      "d": 5.296604166680481,
      "v": 95
    },
    {
      "midi": 82,
      "hit": false,
      "t": 131169.34399999396,
      "d": 5.296604166680481,
      "v": 44
    },
    {
      "midi": 35,
      "hit": false,
      "t": 131169.34399999396,
      "d": 74.15245833338122,
      "v": 120
    },
    {
      "midi": 28,
      "hit": false,
      "t": 131169.34399999396,
      "d": 190.67775000006077,
      "v": 100
    },
    {
      "midi": 40,
      "hit": false,
      "t": 131169.34399999396,
      "d": 190.67775000006077,
      "v": 100
    },
    {
      "midi": 64,
      "hit": false,
      "t": 131169.34399999396,
      "d": 1006.3547916669631,
      "v": 108
    },
    {
      "midi": 76,
      "hit": false,
      "t": 131169.34399999396,
      "d": 1011.6513958336436,
      "v": 100
    },
    {
      "midi": 100,
      "hit": false,
      "t": 131169.34399999396,
      "d": 1011.6513958336436,
      "v": 60
    },
    {
      "midi": 88,
      "hit": false,
      "t": 131169.34399999396,
      "d": 1011.6513958336436,
      "v": 110
    },
    {
      "midi": 62,
      "hit": false,
      "t": 131169.34399999396,
      "d": 2028.5993958339386,
      "v": 87
    },
    {
      "midi": 67,
      "hit": false,
      "t": 131179.93720832732,
      "d": 995.7615833336022,
      "v": 92
    },
    {
      "midi": 82,
      "hit": false,
      "t": 131296.462499994,
      "d": 5.296604166680481,
      "v": 31
    },
    {
      "midi": 42,
      "hit": false,
      "t": 131301.75910416068,
      "d": 5.296604166680481,
      "v": 50
    },
    {
      "midi": 42,
      "hit": false,
      "t": 131423.580999994,
      "d": 5.296604166680481,
      "v": 107
    },
    {
      "midi": 82,
      "hit": false,
      "t": 131423.580999994,
      "d": 5.296604166680481,
      "v": 46
    },
    {
      "midi": 71,
      "hit": false,
      "t": 131423.580999994,
      "d": 248.94039583340054,
      "v": 106
    },
    {
      "midi": 82,
      "hit": false,
      "t": 131550.69949999402,
      "d": 5.296604166680481,
      "v": 87
    },
    {
      "midi": 28,
      "hit": false,
      "t": 131550.69949999402,
      "d": 47.66943750003702,
      "v": 100
    },
    {
      "midi": 40,
      "hit": false,
      "t": 131550.69949999402,
      "d": 47.66943750003702,
      "v": 100
    },
    {
      "midi": 42,
      "hit": false,
      "t": 131555.9961041607,
      "d": 5.296604166680481,
      "v": 53
    },
    {
      "midi": 28,
      "hit": false,
      "t": 131667.22479166073,
      "d": 164.19472916674567,
      "v": 100
    },
    {
      "midi": 40,
      "hit": false,
      "t": 131667.22479166073,
      "d": 164.19472916674567,
      "v": 100
    },
    {
      "midi": 46,
      "hit": false,
      "t": 131677.8179999941,
      "d": 5.296604166680481,
      "v": 70
    },
    {
      "midi": 82,
      "hit": false,
      "t": 131677.8179999941,
      "d": 5.296604166680481,
      "v": 44
    },
    {
      "midi": 35,
      "hit": false,
      "t": 131677.8179999941,
      "d": 74.15245833335212,
      "v": 120
    },
    {
      "midi": 73,
      "hit": false,
      "t": 131677.8179999941,
      "d": 248.94039583340054,
      "v": 94
    },
    {
      "midi": 82,
      "hit": false,
      "t": 131804.9364999941,
      "d": 5.296604166680481,
      "v": 31
    },
    {
      "midi": 44,
      "hit": false,
      "t": 131810.23310416078,
      "d": 5.296604166680481,
      "v": 50
    },
    {
      "midi": 26,
      "hit": false,
      "t": 131910.86858332748,
      "d": 121.82189583336003,
      "v": 100
    },
    {
      "midi": 38,
      "hit": false,
      "t": 131910.86858332748,
      "d": 121.82189583336003,
      "v": 100
    },
    {
      "midi": 42,
      "hit": false,
      "t": 131932.05499999417,
      "d": 5.296604166680481,
      "v": 107
    },
    {
      "midi": 82,
      "hit": false,
      "t": 131932.05499999417,
      "d": 5.296604166680481,
      "v": 46
    },
    {
      "midi": 74,
      "hit": false,
      "t": 131932.05499999417,
      "d": 248.94039583342965,
      "v": 98
    },
    {
      "midi": 28,
      "hit": false,
      "t": 132037.98708332752,
      "d": 153.60152083344292,
      "v": 100
    },
    {
      "midi": 40,
      "hit": false,
      "t": 132037.98708332752,
      "d": 153.60152083344292,
      "v": 100
    },
    {
      "midi": 38,
      "hit": false,
      "t": 132059.17349999418,
      "d": 5.296604166680481,
      "v": 30
    },
    {
      "midi": 82,
      "hit": false,
      "t": 132059.17349999418,
      "d": 5.296604166680481,
      "v": 87
    },
    {
      "midi": 42,
      "hit": false,
      "t": 132064.47010416086,
      "d": 5.296604166680481,
      "v": 53
    },
    {
      "midi": 38,
      "hit": false,
      "t": 132101.54633332754,
      "d": 5.296604166680481,
      "v": 30
    },
    {
      "midi": 38,
      "hit": false,
      "t": 132143.9191666609,
      "d": 5.296604166680481,
      "v": 30
    },
    {
      "midi": 31,
      "hit": false,
      "t": 132165.1055833276,
      "d": 116.52529166670865,
      "v": 100
    },
    {
      "midi": 43,
      "hit": false,
      "t": 132165.1055833276,
      "d": 116.52529166670865,
      "v": 100
    },
    {
      "midi": 42,
      "hit": false,
      "t": 132180.9953958276,
      "d": 5.296604166680481,
      "v": 73
    },
    {
      "midi": 38,
      "hit": false,
      "t": 132186.29199999428,
      "d": 5.296604166680481,
      "v": 30
    },
    {
      "midi": 35,
      "hit": false,
      "t": 132186.29199999428,
      "d": 74.15245833335212,
      "v": 120
    },
    {
      "midi": 76,
      "hit": false,
      "t": 132186.29199999428,
      "d": 503.17739583345247,
      "v": 104
    },
    {
      "midi": 67,
      "hit": false,
      "t": 132186.29199999428,
      "d": 1006.354791666934,
      "v": 111
    },
    {
      "midi": 71,
      "hit": false,
      "t": 132186.29199999428,
      "d": 1006.354791666934,
      "v": 110
    },
    {
      "midi": 74,
      "hit": false,
      "t": 132186.29199999428,
      "d": 1006.354791666934,
      "v": 100
    },
    {
      "midi": 98,
      "hit": false,
      "t": 132186.29199999428,
      "d": 1011.6513958336145,
      "v": 60
    },
    {
      "midi": 86,
      "hit": false,
      "t": 132186.29199999428,
      "d": 1011.6513958336145,
      "v": 110
    },
    {
      "midi": 31,
      "hit": false,
      "t": 132292.22408332763,
      "d": 148.30491666670423,
      "v": 100
    },
    {
      "midi": 43,
      "hit": false,
      "t": 132292.22408332763,
      "d": 148.30491666670423,
      "v": 100
    },
    {
      "midi": 42,
      "hit": false,
      "t": 132318.70710416097,
      "d": 5.296604166680481,
      "v": 52
    },
    {
      "midi": 28,
      "hit": false,
      "t": 132424.63918749432,
      "d": 169.49133333339705,
      "v": 100
    },
    {
      "midi": 40,
      "hit": false,
      "t": 132424.63918749432,
      "d": 169.49133333339705,
      "v": 100
    },
    {
      "midi": 46,
      "hit": false,
      "t": 132440.52899999433,
      "d": 5.296604166680481,
      "v": 76
    },
    {
      "midi": 42,
      "hit": false,
      "t": 132572.94410416103,
      "d": 5.296604166680481,
      "v": 53
    },
    {
      "midi": 31,
      "hit": false,
      "t": 132684.17279166105,
      "d": 121.82189583338914,
      "v": 100
    },
    {
      "midi": 43,
      "hit": false,
      "t": 132684.17279166105,
      "d": 121.82189583338914,
      "v": 100
    },
    {
      "midi": 42,
      "hit": false,
      "t": 132689.46939582773,
      "d": 5.296604166680481,
      "v": 82
    },
    {
      "midi": 40,
      "hit": false,
      "t": 132694.76599999442,
      "d": 5.296604166680481,
      "v": 93
    },
    {
      "midi": 35,
      "hit": false,
      "t": 132694.76599999442,
      "d": 74.15245833335212,
      "v": 120
    },
    {
      "midi": 78,
      "hit": false,
      "t": 132694.76599999442,
      "d": 434.32154166678083,
      "v": 107
    },
    {
      "midi": 42,
      "hit": false,
      "t": 132827.1811041611,
      "d": 5.296604166680481,
      "v": 58
    },
    {
      "midi": 31,
      "hit": false,
      "t": 132938.40979166114,
      "d": 121.82189583336003,
      "v": 100
    },
    {
      "midi": 43,
      "hit": false,
      "t": 132938.40979166114,
      "d": 121.82189583336003,
      "v": 100
    },
    {
      "midi": 46,
      "hit": false,
      "t": 132949.00299999447,
      "d": 5.296604166680481,
      "v": 84
    },
    {
      "midi": 33,
      "hit": false,
      "t": 133065.52829166118,
      "d": 100.63547916669631,
      "v": 100
    },
    {
      "midi": 45,
      "hit": false,
      "t": 133065.52829166118,
      "d": 100.63547916669631,
      "v": 100
    },
    {
      "midi": 44,
      "hit": false,
      "t": 133081.4181041612,
      "d": 5.296604166680481,
      "v": 84
    },
    {
      "midi": 42,
      "hit": false,
      "t": 133203.23999999458,
      "d": 0,
      "v": 100
    },
    {
      "midi": 82,
      "hit": false,
      "t": 133203.23999999458,
      "d": 5.296604166680481,
      "v": 44
    },
    {
      "midi": 35,
      "hit": false,
      "t": 133203.23999999458,
      "d": 74.15245833335212,
      "v": 120
    },
    {
      "midi": 30,
      "hit": false,
      "t": 133203.23999999458,
      "d": 100.63547916669631,
      "v": 100
    },
    {
      "midi": 66,
      "hit": false,
      "t": 133203.23999999458,
      "d": 1006.3547916668758,
      "v": 123
    },
    {
      "midi": 69,
      "hit": false,
      "t": 133203.23999999458,
      "d": 1006.3547916668758,
      "v": 100
    },
    {
      "midi": 97,
      "hit": false,
      "t": 133203.23999999458,
      "d": 1520.1253958336893,
      "v": 60
    },
    {
      "midi": 85,
      "hit": false,
      "t": 133203.23999999458,
      "d": 1520.1253958336893,
      "v": 110
    },
    {
      "midi": 73,
      "hit": false,
      "t": 133224.42641666127,
      "d": 736.2279791667825,
      "v": 97
    },
    {
      "midi": 82,
      "hit": false,
      "t": 133330.35849999462,
      "d": 5.296604166680481,
      "v": 31
    },
    {
      "midi": 30,
      "hit": false,
      "t": 133330.35849999462,
      "d": 100.63547916669631,
      "v": 100
    },
    {
      "midi": 42,
      "hit": false,
      "t": 133335.6551041613,
      "d": 5.296604166680481,
      "v": 50
    },
    {
      "midi": 42,
      "hit": false,
      "t": 133457.47699999466,
      "d": 5.296604166680481,
      "v": 107
    },
    {
      "midi": 82,
      "hit": false,
      "t": 133457.47699999466,
      "d": 5.296604166680481,
      "v": 46
    },
    {
      "midi": 82,
      "hit": false,
      "t": 133584.59549999467,
      "d": 5.296604166680481,
      "v": 87
    },
    {
      "midi": 30,
      "hit": false,
      "t": 133584.59549999467,
      "d": 84.74566666668397,
      "v": 100
    },
    {
      "midi": 42,
      "hit": false,
      "t": 133589.89210416135,
      "d": 5.296604166680481,
      "v": 53
    },
    {
      "midi": 30,
      "hit": false,
      "t": 133701.12079166135,
      "d": 79.44906250000349,
      "v": 100
    },
    {
      "midi": 42,
      "hit": false,
      "t": 133701.12079166135,
      "d": 79.44906250000349,
      "v": 100
    },
    {
      "midi": 46,
      "hit": false,
      "t": 133711.71399999468,
      "d": 5.296604166680481,
      "v": 70
    },
    {
      "midi": 82,
      "hit": false,
      "t": 133711.71399999468,
      "d": 5.296604166680481,
      "v": 44
    },
    {
      "midi": 35,
      "hit": false,
      "t": 133711.71399999468,
      "d": 74.15245833335212,
      "v": 120
    },
    {
      "midi": 82,
      "hit": false,
      "t": 133838.8324999947,
      "d": 5.296604166680481,
      "v": 31
    },
    {
      "midi": 44,
      "hit": false,
      "t": 133844.12910416137,
      "d": 5.296604166680481,
      "v": 50
    },
    {
      "midi": 30,
      "hit": false,
      "t": 133944.76458332804,
      "d": 121.82189583336003,
      "v": 100
    },
    {
      "midi": 42,
      "hit": false,
      "t": 133965.95099999473,
      "d": 5.296604166680481,
      "v": 107
    },
    {
      "midi": 82,
      "hit": false,
      "t": 133965.95099999473,
      "d": 5.296604166680481,
      "v": 46
    },
    {
      "midi": 73,
      "hit": false,
      "t": 133965.95099999473,
      "d": 243.64379166672006,
      "v": 79
    },
    {
      "midi": 25,
      "hit": false,
      "t": 134071.88308332808,
      "d": 153.60152083341382,
      "v": 100
    },
    {
      "midi": 37,
      "hit": false,
      "t": 134071.88308332808,
      "d": 153.60152083341382,
      "v": 100
    },
    {
      "midi": 82,
      "hit": false,
      "t": 134093.06949999474,
      "d": 5.296604166680481,
      "v": 87
    },
    {
      "midi": 42,
      "hit": false,
      "t": 134098.36610416143,
      "d": 5.296604166680481,
      "v": 53
    },
    {
      "midi": 42,
      "hit": false,
      "t": 134214.89139582813,
      "d": 5.296604166680481,
      "v": 73
    },
    {
      "midi": 82,
      "hit": false,
      "t": 134220.1879999948,
      "d": 5.296604166680481,
      "v": 44
    },
    {
      "midi": 23,
      "hit": false,
      "t": 134220.1879999948,
      "d": 74.15245833335212,
      "v": 100
    },
    {
      "midi": 35,
      "hit": false,
      "t": 134220.1879999948,
      "d": 74.15245833335212,
      "v": 120
    },
    {
      "midi": 73,
      "hit": false,
      "t": 134220.1879999948,
      "d": 503.17739583345247,
      "v": 121
    },
    {
      "midi": 64,
      "hit": false,
      "t": 134220.1879999948,
      "d": 1006.3547916669049,
      "v": 104
    },
    {
      "midi": 69,
      "hit": false,
      "t": 134220.1879999948,
      "d": 1006.3547916669049,
      "v": 127
    },
    {
      "midi": 81,
      "hit": false,
      "t": 134220.1879999948,
      "d": 1016.9480000002659,
      "v": 108
    },
    {
      "midi": 40,
      "hit": false,
      "t": 134347.30649999483,
      "d": 5.296604166680481,
      "v": 93
    },
    {
      "midi": 82,
      "hit": false,
      "t": 134347.30649999483,
      "d": 5.296604166680481,
      "v": 31
    },
    {
      "midi": 30,
      "hit": false,
      "t": 134347.30649999483,
      "d": 105.93208333334769,
      "v": 100
    },
    {
      "midi": 42,
      "hit": false,
      "t": 134352.6031041615,
      "d": 5.296604166680481,
      "v": 62
    },
    {
      "midi": 23,
      "hit": false,
      "t": 134458.53518749485,
      "d": 169.49133333339705,
      "v": 100
    },
    {
      "midi": 35,
      "hit": false,
      "t": 134458.53518749485,
      "d": 169.49133333339705,
      "v": 100
    },
    {
      "midi": 42,
      "hit": false,
      "t": 134474.42499999487,
      "d": 5.296604166680481,
      "v": 76
    },
    {
      "midi": 82,
      "hit": false,
      "t": 134474.42499999487,
      "d": 5.296604166680481,
      "v": 46
    },
    {
      "midi": 82,
      "hit": false,
      "t": 134601.54349999488,
      "d": 5.296604166680481,
      "v": 87
    },
    {
      "midi": 42,
      "hit": false,
      "t": 134606.84010416156,
      "d": 5.296604166680481,
      "v": 63
    },
    {
      "midi": 33,
      "hit": false,
      "t": 134718.0687916616,
      "d": 121.82189583338914,
      "v": 100
    },
    {
      "midi": 45,
      "hit": false,
      "t": 134718.0687916616,
      "d": 121.82189583338914,
      "v": 100
    },
    {
      "midi": 42,
      "hit": false,
      "t": 134723.36539582827,
      "d": 5.296604166680481,
      "v": 82
    },
    {
      "midi": 40,
      "hit": false,
      "t": 134728.66199999495,
      "d": 5.296604166680481,
      "v": 93
    },
    {
      "midi": 82,
      "hit": false,
      "t": 134728.66199999495,
      "d": 5.296604166680481,
      "v": 46
    },
    {
      "midi": 35,
      "hit": false,
      "t": 134728.66199999495,
      "d": 74.15245833335212,
      "v": 120
    },
    {
      "midi": 72,
      "hit": false,
      "t": 134728.66199999495,
      "d": 503.17739583345247,
      "v": 100
    },
    {
      "midi": 96,
      "hit": false,
      "t": 134728.66199999495,
      "d": 503.17739583345247,
      "v": 60
    },
    {
      "midi": 84,
      "hit": false,
      "t": 134728.66199999495,
      "d": 503.17739583345247,
      "v": 110
    },
    {
      "midi": 42,
      "hit": false,
      "t": 134861.07710416164,
      "d": 5.296604166680481,
      "v": 58
    },
    {
      "midi": 33,
      "hit": false,
      "t": 134972.30579166167,
      "d": 148.30491666670423,
      "v": 100
    },
    {
      "midi": 45,
      "hit": false,
      "t": 134972.30579166167,
      "d": 148.30491666670423,
      "v": 100
    },
    {
      "midi": 46,
      "hit": false,
      "t": 134982.898999995,
      "d": 5.296604166680481,
      "v": 84
    },
    {
      "midi": 35,
      "hit": false,
      "t": 135099.42429166168,
      "d": 100.63547916669631,
      "v": 100
    },
    {
      "midi": 47,
      "hit": false,
      "t": 135099.42429166168,
      "d": 100.63547916669631,
      "v": 100
    },
    {
      "midi": 44,
      "hit": false,
      "t": 135115.3141041617,
      "d": 5.296604166680481,
      "v": 84
    },
    {
      "midi": 42,
      "hit": false,
      "t": 135231.8393958284,
      "d": 5.296604166680481,
      "v": 58
    },
    {
      "midi": 82,
      "hit": false,
      "t": 135237.13599999508,
      "d": 5.296604166680481,
      "v": 44
    },
    {
      "midi": 35,
      "hit": false,
      "t": 135237.13599999508,
      "d": 74.15245833335212,
      "v": 120
    },
    {
      "midi": 28,
      "hit": false,
      "t": 135237.13599999508,
      "d": 190.67775000003166,
      "v": 100
    },
    {
      "midi": 40,
      "hit": false,
      "t": 135237.13599999508,
      "d": 190.67775000003166,
      "v": 100
    },
    {
      "midi": 95,
      "hit": false,
      "t": 135237.13599999508,
      "d": 1011.6513958336145,
      "v": 60
    },
    {
      "midi": 83,
      "hit": false,
      "t": 135237.13599999508,
      "d": 1011.6513958336145,
      "v": 110
    },
    {
      "midi": 52,
      "hit": false,
      "t": 135237.13599999508,
      "d": 1032.8378125003073,
      "v": 83
    },
    {
      "midi": 82,
      "hit": false,
      "t": 135364.2544999951,
      "d": 5.296604166680481,
      "v": 31
    },
    {
      "midi": 42,
      "hit": false,
      "t": 135369.55110416177,
      "d": 5.296604166680481,
      "v": 50
    },
    {
      "midi": 42,
      "hit": false,
      "t": 135491.3729999951,
      "d": 5.296604166680481,
      "v": 107
    },
    {
      "midi": 82,
      "hit": false,
      "t": 135491.3729999951,
      "d": 5.296604166680481,
      "v": 46
    },
    {
      "midi": 71,
      "hit": false,
      "t": 135491.3729999951,
      "d": 248.94039583340054,
      "v": 106
    },
    {
      "midi": 62,
      "hit": false,
      "t": 135491.3729999951,
      "d": 752.1177916669112,
      "v": 85
    },
    {
      "midi": 82,
      "hit": false,
      "t": 135618.4914999951,
      "d": 5.296604166680481,
      "v": 87
    },
    {
      "midi": 28,
      "hit": false,
      "t": 135618.4914999951,
      "d": 47.66943750003702,
      "v": 100
    },
    {
      "midi": 40,
      "hit": false,
      "t": 135618.4914999951,
      "d": 47.66943750003702,
      "v": 100
    },
    {
      "midi": 42,
      "hit": false,
      "t": 135623.7881041618,
      "d": 5.296604166680481,
      "v": 53
    },
    {
      "midi": 28,
      "hit": false,
      "t": 135735.01679166182,
      "d": 164.19472916674567,
      "v": 100
    },
    {
      "midi": 40,
      "hit": false,
      "t": 135735.01679166182,
      "d": 164.19472916674567,
      "v": 100
    },
    {
      "midi": 46,
      "hit": false,
      "t": 135745.60999999518,
      "d": 5.296604166680481,
      "v": 70
    },
    {
      "midi": 82,
      "hit": false,
      "t": 135745.60999999518,
      "d": 5.296604166680481,
      "v": 44
    },
    {
      "midi": 35,
      "hit": false,
      "t": 135745.60999999518,
      "d": 74.15245833335212,
      "v": 120
    },
    {
      "midi": 73,
      "hit": false,
      "t": 135745.60999999518,
      "d": 248.94039583340054,
      "v": 94
    },
    {
      "midi": 71,
      "hit": false,
      "t": 135745.60999999518,
      "d": 497.8807916668302,
      "v": 110
    },
    {
      "midi": 82,
      "hit": false,
      "t": 135872.7284999952,
      "d": 5.296604166680481,
      "v": 31
    },
    {
      "midi": 44,
      "hit": false,
      "t": 135878.02510416188,
      "d": 5.296604166680481,
      "v": 50
    },
    {
      "midi": 26,
      "hit": false,
      "t": 135978.66058332857,
      "d": 121.82189583336003,
      "v": 100
    },
    {
      "midi": 38,
      "hit": false,
      "t": 135978.66058332857,
      "d": 121.82189583336003,
      "v": 100
    },
    {
      "midi": 42,
      "hit": false,
      "t": 135999.84699999526,
      "d": 5.296604166680481,
      "v": 107
    },
    {
      "midi": 82,
      "hit": false,
      "t": 135999.84699999526,
      "d": 5.296604166680481,
      "v": 46
    },
    {
      "midi": 67,
      "hit": false,
      "t": 135999.84699999526,
      "d": 243.64379166674917,
      "v": 96
    },
    {
      "midi": 74,
      "hit": false,
      "t": 135999.84699999526,
      "d": 248.94039583342965,
      "v": 98
    },
    {
      "midi": 28,
      "hit": false,
      "t": 136105.7790833286,
      "d": 153.60152083344292,
      "v": 100
    },
    {
      "midi": 40,
      "hit": false,
      "t": 136105.7790833286,
      "d": 153.60152083344292,
      "v": 100
    },
    {
      "midi": 38,
      "hit": false,
      "t": 136126.96549999528,
      "d": 5.296604166680481,
      "v": 30
    },
    {
      "midi": 82,
      "hit": false,
      "t": 136126.96549999528,
      "d": 5.296604166680481,
      "v": 87
    },
    {
      "midi": 42,
      "hit": false,
      "t": 136132.26210416196,
      "d": 5.296604166680481,
      "v": 53
    },
    {
      "midi": 38,
      "hit": false,
      "t": 136169.33833332863,
      "d": 5.296604166680481,
      "v": 30
    },
    {
      "midi": 38,
      "hit": false,
      "t": 136211.711166662,
      "d": 5.296604166680481,
      "v": 30
    },
    {
      "midi": 31,
      "hit": false,
      "t": 136232.89758332868,
      "d": 116.52529166670865,
      "v": 100
    },
    {
      "midi": 43,
      "hit": false,
      "t": 136232.89758332868,
      "d": 116.52529166670865,
      "v": 100
    },
    {
      "midi": 42,
      "hit": false,
      "t": 136248.7873958287,
      "d": 5.296604166680481,
      "v": 73
    },
    {
      "midi": 38,
      "hit": false,
      "t": 136254.08399999538,
      "d": 5.296604166680481,
      "v": 30
    },
    {
      "midi": 82,
      "hit": false,
      "t": 136254.08399999538,
      "d": 5.296604166680481,
      "v": 44
    },
    {
      "midi": 35,
      "hit": false,
      "t": 136254.08399999538,
      "d": 74.15245833335212,
      "v": 120
    },
    {
      "midi": 76,
      "hit": false,
      "t": 136254.08399999538,
      "d": 503.17739583345247,
      "v": 104
    },
    {
      "midi": 67,
      "hit": false,
      "t": 136254.08399999538,
      "d": 985.1683750002703,
      "v": 111
    },
    {
      "midi": 71,
      "hit": false,
      "t": 136254.08399999538,
      "d": 1001.0581875002827,
      "v": 110
    },
    {
      "midi": 74,
      "hit": false,
      "t": 136254.08399999538,
      "d": 1006.3547916669631,
      "v": 126
    },
    {
      "midi": 69,
      "hit": false,
      "t": 136254.08399999538,
      "d": 1011.6513958336436,
      "v": 100
    },
    {
      "midi": 93,
      "hit": false,
      "t": 136254.08399999538,
      "d": 1011.6513958336436,
      "v": 60
    },
    {
      "midi": 81,
      "hit": false,
      "t": 136254.08399999538,
      "d": 1011.6513958336436,
      "v": 110
    },
    {
      "midi": 31,
      "hit": false,
      "t": 136360.01608332872,
      "d": 148.30491666670423,
      "v": 100
    },
    {
      "midi": 43,
      "hit": false,
      "t": 136360.01608332872,
      "d": 148.30491666670423,
      "v": 100
    },
    {
      "midi": 82,
      "hit": false,
      "t": 136381.2024999954,
      "d": 5.296604166680481,
      "v": 31
    },
    {
      "midi": 42,
      "hit": false,
      "t": 136386.49910416207,
      "d": 5.296604166680481,
      "v": 62
    },
    {
      "midi": 28,
      "hit": false,
      "t": 136492.43118749541,
      "d": 169.49133333339705,
      "v": 100
    },
    {
      "midi": 40,
      "hit": false,
      "t": 136492.43118749541,
      "d": 169.49133333339705,
      "v": 100
    },
    {
      "midi": 42,
      "hit": false,
      "t": 136508.32099999543,
      "d": 5.296604166680481,
      "v": 76
    },
    {
      "midi": 82,
      "hit": false,
      "t": 136508.32099999543,
      "d": 5.296604166680481,
      "v": 46
    },
    {
      "midi": 82,
      "hit": false,
      "t": 136635.43949999544,
      "d": 5.296604166680481,
      "v": 87
    },
    {
      "midi": 42,
      "hit": false,
      "t": 136640.73610416212,
      "d": 5.296604166680481,
      "v": 63
    },
    {
      "midi": 31,
      "hit": false,
      "t": 136751.96479166215,
      "d": 121.82189583338914,
      "v": 100
    },
    {
      "midi": 43,
      "hit": false,
      "t": 136751.96479166215,
      "d": 121.82189583338914,
      "v": 100
    },
    {
      "midi": 42,
      "hit": false,
      "t": 136757.26139582883,
      "d": 5.296604166680481,
      "v": 82
    },
    {
      "midi": 40,
      "hit": false,
      "t": 136762.5579999955,
      "d": 5.296604166680481,
      "v": 93
    },
    {
      "midi": 82,
      "hit": false,
      "t": 136762.5579999955,
      "d": 5.296604166680481,
      "v": 46
    },
    {
      "midi": 35,
      "hit": false,
      "t": 136762.5579999955,
      "d": 74.15245833335212,
      "v": 120
    },
    {
      "midi": 78,
      "hit": false,
      "t": 136762.5579999955,
      "d": 503.1773958335107,
      "v": 107
    },
    {
      "midi": 42,
      "hit": false,
      "t": 136894.9731041622,
      "d": 5.296604166680481,
      "v": 58
    },
    {
      "midi": 31,
      "hit": false,
      "t": 137006.20179166223,
      "d": 121.82189583336003,
      "v": 100
    },
    {
      "midi": 43,
      "hit": false,
      "t": 137006.20179166223,
      "d": 121.82189583336003,
      "v": 100
    },
    {
      "midi": 46,
      "hit": false,
      "t": 137016.79499999556,
      "d": 5.296604166680481,
      "v": 84
    },
    {
      "midi": 33,
      "hit": false,
      "t": 137133.32029166227,
      "d": 100.63547916669631,
      "v": 100
    },
    {
      "midi": 45,
      "hit": false,
      "t": 137133.32029166227,
      "d": 100.63547916669631,
      "v": 100
    },
    {
      "midi": 44,
      "hit": false,
      "t": 137149.21010416228,
      "d": 5.296604166680481,
      "v": 84
    },
    {
      "midi": 42,
      "hit": false,
      "t": 137271.0319999957,
      "d": 0,
      "v": 100
    },
    {
      "midi": 82,
      "hit": false,
      "t": 137271.0319999957,
      "d": 5.296604166680481,
      "v": 44
    },
    {
      "midi": 35,
      "hit": false,
      "t": 137271.0319999957,
      "d": 74.15245833335212,
      "v": 120
    },
    {
      "midi": 30,
      "hit": false,
      "t": 137271.0319999957,
      "d": 100.63547916669631,
      "v": 100
    },
    {
      "midi": 81,
      "hit": false,
      "t": 137271.0319999957,
      "d": 757.4143958335044,
      "v": 98
    },
    {
      "midi": 61,
      "hit": false,
      "t": 137271.0319999957,
      "d": 1006.354791666934,
      "v": 104
    },
    {
      "midi": 66,
      "hit": false,
      "t": 137271.0319999957,
      "d": 1006.354791666934,
      "v": 107
    },
    {
      "midi": 69,
      "hit": false,
      "t": 137271.0319999957,
      "d": 1006.354791666934,
      "v": 94
    },
    {
      "midi": 73,
      "hit": false,
      "t": 137292.2184166624,
      "d": 1011.6513958336145,
      "v": 91
    },
    {
      "midi": 82,
      "hit": false,
      "t": 137398.15049999574,
      "d": 5.296604166680481,
      "v": 31
    },
    {
      "midi": 30,
      "hit": false,
      "t": 137398.15049999574,
      "d": 100.63547916669631,
      "v": 100
    },
    {
      "midi": 42,
      "hit": false,
      "t": 137403.44710416242,
      "d": 5.296604166680481,
      "v": 50
    },
    {
      "midi": 42,
      "hit": false,
      "t": 137525.26899999578,
      "d": 5.296604166680481,
      "v": 107
    },
    {
      "midi": 82,
      "hit": false,
      "t": 137525.26899999578,
      "d": 5.296604166680481,
      "v": 46
    },
    {
      "midi": 78,
      "hit": false,
      "t": 137525.26899999578,
      "d": 248.94039583337144,
      "v": 100
    },
    {
      "midi": 102,
      "hit": false,
      "t": 137525.26899999578,
      "d": 248.94039583337144,
      "v": 60
    },
    {
      "midi": 90,
      "hit": false,
      "t": 137525.26899999578,
      "d": 248.94039583337144,
      "v": 110
    },
    {
      "midi": 82,
      "hit": false,
      "t": 137652.3874999958,
      "d": 5.296604166680481,
      "v": 87
    },
    {
      "midi": 30,
      "hit": false,
      "t": 137652.3874999958,
      "d": 84.74566666668397,
      "v": 100
    },
    {
      "midi": 42,
      "hit": false,
      "t": 137657.68410416247,
      "d": 5.296604166680481,
      "v": 53
    },
    {
      "midi": 30,
      "hit": false,
      "t": 137768.91279166247,
      "d": 79.4490625000326,
      "v": 100
    },
    {
      "midi": 42,
      "hit": false,
      "t": 137768.91279166247,
      "d": 79.4490625000326,
      "v": 100
    },
    {
      "midi": 46,
      "hit": false,
      "t": 137779.50599999583,
      "d": 5.296604166680481,
      "v": 70
    },
    {
      "midi": 82,
      "hit": false,
      "t": 137779.50599999583,
      "d": 5.296604166680481,
      "v": 44
    },
    {
      "midi": 35,
      "hit": false,
      "t": 137779.50599999583,
      "d": 74.15245833335212,
      "v": 120
    },
    {
      "midi": 77,
      "hit": false,
      "t": 137779.50599999583,
      "d": 248.94039583337144,
      "v": 100
    },
    {
      "midi": 101,
      "hit": false,
      "t": 137779.50599999583,
      "d": 248.94039583337144,
      "v": 60
    },
    {
      "midi": 89,
      "hit": false,
      "t": 137779.50599999583,
      "d": 248.94039583337144,
      "v": 110
    },
    {
      "midi": 82,
      "hit": false,
      "t": 137906.62449999584,
      "d": 5.296604166680481,
      "v": 31
    },
    {
      "midi": 44,
      "hit": false,
      "t": 137911.92110416252,
      "d": 5.296604166680481,
      "v": 50
    },
    {
      "midi": 30,
      "hit": false,
      "t": 138012.5565833292,
      "d": 121.82189583336003,
      "v": 100
    },
    {
      "midi": 42,
      "hit": false,
      "t": 138033.74299999588,
      "d": 5.296604166680481,
      "v": 107
    },
    {
      "midi": 82,
      "hit": false,
      "t": 138033.74299999588,
      "d": 5.296604166680481,
      "v": 46
    },
    {
      "midi": 83,
      "hit": false,
      "t": 138033.74299999588,
      "d": 121.82189583336003,
      "v": 105
    },
    {
      "midi": 78,
      "hit": false,
      "t": 138033.74299999588,
      "d": 248.94039583342965,
      "v": 100
    },
    {
      "midi": 102,
      "hit": false,
      "t": 138033.74299999588,
      "d": 248.94039583342965,
      "v": 60
    },
    {
      "midi": 90,
      "hit": false,
      "t": 138033.74299999588,
      "d": 248.94039583342965,
      "v": 110
    },
    {
      "midi": 25,
      "hit": false,
      "t": 138139.67508332923,
      "d": 153.60152083344292,
      "v": 100
    },
    {
      "midi": 37,
      "hit": false,
      "t": 138139.67508332923,
      "d": 153.60152083344292,
      "v": 100
    },
    {
      "midi": 82,
      "hit": false,
      "t": 138160.86149999592,
      "d": 5.296604166680481,
      "v": 87
    },
    {
      "midi": 81,
      "hit": false,
      "t": 138160.86149999592,
      "d": 121.82189583338914,
      "v": 93
    },
    {
      "midi": 42,
      "hit": false,
      "t": 138166.1581041626,
      "d": 5.296604166680481,
      "v": 53
    },
    {
      "midi": 42,
      "hit": false,
      "t": 138282.6833958293,
      "d": 5.296604166680481,
      "v": 73
    },
    {
      "midi": 82,
      "hit": false,
      "t": 138287.979999996,
      "d": 5.296604166680481,
      "v": 44
    },
    {
      "midi": 23,
      "hit": false,
      "t": 138287.979999996,
      "d": 74.15245833335212,
      "v": 100
    },
    {
      "midi": 35,
      "hit": false,
      "t": 138287.979999996,
      "d": 74.15245833335212,
      "v": 120
    },
    {
      "midi": 81,
      "hit": false,
      "t": 138287.979999996,
      "d": 248.94039583337144,
      "v": 100
    },
    {
      "midi": 105,
      "hit": false,
      "t": 138287.979999996,
      "d": 248.94039583337144,
      "v": 60
    },
    {
      "midi": 93,
      "hit": false,
      "t": 138287.979999996,
      "d": 248.94039583337144,
      "v": 121
    },
    {
      "midi": 57,
      "hit": false,
      "t": 138287.979999996,
      "d": 1006.3547916669631,
      "v": 104
    },
    {
      "midi": 63,
      "hit": false,
      "t": 138287.979999996,
      "d": 1006.3547916669631,
      "v": 108
    },
    {
      "midi": 66,
      "hit": false,
      "t": 138287.979999996,
      "d": 1006.3547916669631,
      "v": 94
    },
    {
      "midi": 40,
      "hit": false,
      "t": 138415.098499996,
      "d": 5.296604166680481,
      "v": 93
    },
    {
      "midi": 82,
      "hit": false,
      "t": 138415.098499996,
      "d": 5.296604166680481,
      "v": 31
    },
    {
      "midi": 30,
      "hit": false,
      "t": 138415.098499996,
      "d": 105.93208333334769,
      "v": 100
    },
    {
      "midi": 42,
      "hit": false,
      "t": 138420.3951041627,
      "d": 5.296604166680481,
      "v": 62
    },
    {
      "midi": 23,
      "hit": false,
      "t": 138526.32718749603,
      "d": 169.49133333339705,
      "v": 100
    },
    {
      "midi": 35,
      "hit": false,
      "t": 138526.32718749603,
      "d": 169.49133333339705,
      "v": 100
    },
    {
      "midi": 42,
      "hit": false,
      "t": 138542.21699999605,
      "d": 5.296604166680481,
      "v": 76
    },
    {
      "midi": 82,
      "hit": false,
      "t": 138542.21699999605,
      "d": 5.296604166680481,
      "v": 46
    },
    {
      "midi": 79,
      "hit": false,
      "t": 138542.21699999605,
      "d": 248.94039583340054,
      "v": 100
    },
    {
      "midi": 103,
      "hit": false,
      "t": 138542.21699999605,
      "d": 248.94039583340054,
      "v": 60
    },
    {
      "midi": 91,
      "hit": false,
      "t": 138542.21699999605,
      "d": 248.94039583340054,
      "v": 110
    },
    {
      "midi": 82,
      "hit": false,
      "t": 138669.33549999606,
      "d": 5.296604166680481,
      "v": 87
    },
    {
      "midi": 42,
      "hit": false,
      "t": 138674.63210416274,
      "d": 5.296604166680481,
      "v": 63
    },
    {
      "midi": 33,
      "hit": false,
      "t": 138785.86079166277,
      "d": 121.82189583338914,
      "v": 100
    },
    {
      "midi": 45,
      "hit": false,
      "t": 138785.86079166277,
      "d": 121.82189583338914,
      "v": 100
    },
    {
      "midi": 42,
      "hit": false,
      "t": 138791.15739582945,
      "d": 5.296604166680481,
      "v": 82
    },
    {
      "midi": 40,
      "hit": false,
      "t": 138796.45399999613,
      "d": 5.296604166680481,
      "v": 93
    },
    {
      "midi": 82,
      "hit": false,
      "t": 138796.45399999613,
      "d": 5.296604166680481,
      "v": 44
    },
    {
      "midi": 35,
      "hit": false,
      "t": 138796.45399999613,
      "d": 74.15245833335212,
      "v": 120
    },
    {
      "midi": 78,
      "hit": false,
      "t": 138796.45399999613,
      "d": 248.94039583342965,
      "v": 100
    },
    {
      "midi": 102,
      "hit": false,
      "t": 138796.45399999613,
      "d": 248.94039583342965,
      "v": 60
    },
    {
      "midi": 90,
      "hit": false,
      "t": 138796.45399999613,
      "d": 248.94039583342965,
      "v": 110
    },
    {
      "midi": 82,
      "hit": false,
      "t": 138923.57249999617,
      "d": 5.296604166680481,
      "v": 31
    },
    {
      "midi": 42,
      "hit": false,
      "t": 138928.86910416285,
      "d": 5.296604166680481,
      "v": 58
    },
    {
      "midi": 33,
      "hit": false,
      "t": 139040.09779166288,
      "d": 148.30491666673333,
      "v": 100
    },
    {
      "midi": 45,
      "hit": false,
      "t": 139040.09779166288,
      "d": 148.30491666673333,
      "v": 100
    },
    {
      "midi": 46,
      "hit": false,
      "t": 139050.69099999624,
      "d": 5.296604166680481,
      "v": 84
    },
    {
      "midi": 82,
      "hit": false,
      "t": 139050.69099999624,
      "d": 5.296604166680481,
      "v": 46
    },
    {
      "midi": 74,
      "hit": false,
      "t": 139050.69099999624,
      "d": 248.94039583340054,
      "v": 100
    },
    {
      "midi": 98,
      "hit": false,
      "t": 139050.69099999624,
      "d": 248.94039583340054,
      "v": 60
    },
    {
      "midi": 86,
      "hit": false,
      "t": 139050.69099999624,
      "d": 248.94039583340054,
      "v": 110
    },
    {
      "midi": 35,
      "hit": false,
      "t": 139167.21629166292,
      "d": 100.63547916669631,
      "v": 100
    },
    {
      "midi": 47,
      "hit": false,
      "t": 139167.21629166292,
      "d": 100.63547916669631,
      "v": 100
    },
    {
      "midi": 44,
      "hit": false,
      "t": 139183.10610416293,
      "d": 5.296604166680481,
      "v": 84
    },
    {
      "midi": 57,
      "hit": false,
      "t": 139304.92799999632,
      "d": 5.296604166680481,
      "v": 127
    },
    {
      "midi": 82,
      "hit": false,
      "t": 139304.92799999632,
      "d": 5.296604166680481,
      "v": 44
    },
    {
      "midi": 71,
      "hit": false,
      "t": 139304.92799999632,
      "d": 15.889812500041444,
      "v": 100
    },
    {
      "midi": 35,
      "hit": false,
      "t": 139304.92799999632,
      "d": 74.15245833338122,
      "v": 120
    },
    {
      "midi": 28,
      "hit": false,
      "t": 139304.92799999632,
      "d": 1006.3547916668758,
      "v": 100
    },
    {
      "midi": 62,
      "hit": false,
      "t": 139304.92799999632,
      "d": 1006.3547916668758,
      "v": 75
    },
    {
      "midi": 64,
      "hit": false,
      "t": 139304.92799999632,
      "d": 1011.6513958335563,
      "v": 94
    },
    {
      "midi": 52,
      "hit": false,
      "t": 139304.92799999632,
      "d": 1011.6513958335563,
      "v": 78
    },
    {
      "midi": 76,
      "hit": false,
      "t": 139304.92799999632,
      "d": 1011.6513958335563,
      "v": 100
    },
    {
      "midi": 100,
      "hit": false,
      "t": 139304.92799999632,
      "d": 1011.6513958335563,
      "v": 60
    },
    {
      "midi": 88,
      "hit": false,
      "t": 139304.92799999632,
      "d": 1011.6513958335563,
      "v": 110
    },
    {
      "midi": 40,
      "hit": false,
      "t": 139315.52120832968,
      "d": 995.7615833335149,
      "v": 79
    },
    {
      "midi": 47,
      "hit": false,
      "t": 139315.52120832968,
      "d": 1001.0581875001953,
      "v": 65
    },
    {
      "midi": 67,
      "hit": false,
      "t": 139326.11441666304,
      "d": 985.1683750001539,
      "v": 91
    },
    {
      "midi": 82,
      "hit": false,
      "t": 139432.04649999636,
      "d": 5.296604166680481,
      "v": 31
    },
    {
      "midi": 82,
      "hit": false,
      "t": 139559.16499999637,
      "d": 5.296604166680481,
      "v": 46
    },
    {
      "midi": 82,
      "hit": false,
      "t": 139686.28349999638,
      "d": 5.296604166680481,
      "v": 87
    },
    {
      "midi": 82,
      "hit": false,
      "t": 139813.4019999964,
      "d": 5.296604166680481,
      "v": 44
    },
    {
      "midi": 35,
      "hit": false,
      "t": 139813.4019999964,
      "d": 74.15245833335212,
      "v": 120
    },
    {
      "midi": 79,
      "hit": false,
      "t": 139813.4019999964,
      "d": 248.94039583337144,
      "v": 103
    },
    {
      "midi": 82,
      "hit": false,
      "t": 139940.5204999964,
      "d": 5.296604166680481,
      "v": 31
    },
    {
      "midi": 82,
      "hit": false,
      "t": 140067.63899999644,
      "d": 5.296604166680481,
      "v": 46
    },
    {
      "midi": 79,
      "hit": false,
      "t": 140067.63899999644,
      "d": 248.94039583342965,
      "v": 99
    },
    {
      "midi": 38,
      "hit": false,
      "t": 140194.75749999646,
      "d": 5.296604166680481,
      "v": 30
    },
    {
      "midi": 51,
      "hit": false,
      "t": 140194.75749999646,
      "d": 5.296604166680481,
      "v": 77
    },
    {
      "midi": 82,
      "hit": false,
      "t": 140194.75749999646,
      "d": 5.296604166680481,
      "v": 87
    },
    {
      "midi": 38,
      "hit": false,
      "t": 140237.1303333298,
      "d": 5.296604166680481,
      "v": 30
    },
    {
      "midi": 51,
      "hit": false,
      "t": 140237.1303333298,
      "d": 5.296604166680481,
      "v": 81
    },
    {
      "midi": 38,
      "hit": false,
      "t": 140279.50316666317,
      "d": 5.296604166680481,
      "v": 30
    },
    {
      "midi": 51,
      "hit": false,
      "t": 140279.50316666317,
      "d": 5.296604166680481,
      "v": 85
    },
    {
      "midi": 38,
      "hit": false,
      "t": 140321.87599999656,
      "d": 5.296604166680481,
      "v": 30
    },
    {
      "midi": 51,
      "hit": false,
      "t": 140321.87599999656,
      "d": 5.296604166680481,
      "v": 108
    },
    {
      "midi": 35,
      "hit": false,
      "t": 140321.87599999656,
      "d": 74.15245833338122,
      "v": 120
    },
    {
      "midi": 78,
      "hit": false,
      "t": 140321.87599999656,
      "d": 503.17739583339426,
      "v": 106
    },
    {
      "midi": 74,
      "hit": false,
      "t": 140321.87599999656,
      "d": 503.17739583339426,
      "v": 100
    },
    {
      "midi": 98,
      "hit": false,
      "t": 140321.87599999656,
      "d": 503.17739583339426,
      "v": 60
    },
    {
      "midi": 86,
      "hit": false,
      "t": 140321.87599999656,
      "d": 503.17739583339426,
      "v": 110
    },
    {
      "midi": 30,
      "hit": false,
      "t": 140321.87599999656,
      "d": 1006.3547916667012,
      "v": 100
    },
    {
      "midi": 61,
      "hit": false,
      "t": 140321.87599999656,
      "d": 1006.3547916667012,
      "v": 94
    },
    {
      "midi": 64,
      "hit": false,
      "t": 140321.87599999656,
      "d": 1006.3547916667012,
      "v": 98
    },
    {
      "midi": 70,
      "hit": false,
      "t": 140321.87599999656,
      "d": 1006.3547916667012,
      "v": 98
    },
    {
      "midi": 54,
      "hit": false,
      "t": 140321.87599999656,
      "d": 1011.6513958333817,
      "v": 78
    },
    {
      "midi": 42,
      "hit": false,
      "t": 140332.46920832992,
      "d": 995.7615833333402,
      "v": 83
    },
    {
      "midi": 49,
      "hit": false,
      "t": 140332.46920832992,
      "d": 1001.0581875000207,
      "v": 62
    },
    {
      "midi": 40,
      "hit": false,
      "t": 140830.34999999663,
      "d": 5.296604166680481,
      "v": 93
    },
    {
      "midi": 35,
      "hit": false,
      "t": 140830.34999999663,
      "d": 74.15245833335212,
      "v": 120
    },
    {
      "midi": 76,
      "hit": false,
      "t": 140830.34999999663,
      "d": 503.17739583330695,
      "v": 103
    },
    {
      "midi": 73,
      "hit": false,
      "t": 140830.34999999663,
      "d": 503.17739583330695,
      "v": 100
    },
    {
      "midi": 97,
      "hit": false,
      "t": 140830.34999999663,
      "d": 503.17739583330695,
      "v": 60
    },
    {
      "midi": 85,
      "hit": false,
      "t": 140830.34999999663,
      "d": 503.17739583330695,
      "v": 110
    },
    {
      "midi": 57,
      "hit": false,
      "t": 141338.82399999662,
      "d": 5.296604166680481,
      "v": 127
    },
    {
      "midi": 82,
      "hit": false,
      "t": 141338.82399999662,
      "d": 5.296604166680481,
      "v": 44
    },
    {
      "midi": 66,
      "hit": false,
      "t": 141338.82399999662,
      "d": 15.88981250001234,
      "v": 83
    },
    {
      "midi": 35,
      "hit": false,
      "t": 141338.82399999662,
      "d": 74.15245833335212,
      "v": 120
    },
    {
      "midi": 47,
      "hit": false,
      "t": 141338.82399999662,
      "d": 386.6521041667147,
      "v": 92
    },
    {
      "midi": 59,
      "hit": false,
      "t": 141338.82399999662,
      "d": 487.2875833334401,
      "v": 94
    },
    {
      "midi": 74,
      "hit": false,
      "t": 141338.82399999662,
      "d": 503.17739583345247,
      "v": 117
    },
    {
      "midi": 95,
      "hit": false,
      "t": 141338.82399999662,
      "d": 503.17739583345247,
      "v": 60
    },
    {
      "midi": 83,
      "hit": false,
      "t": 141338.82399999662,
      "d": 503.17739583345247,
      "v": 110
    },
    {
      "midi": 71,
      "hit": false,
      "t": 141360.0104166633,
      "d": 476.69437500007916,
      "v": 91
    },
    {
      "midi": 82,
      "hit": false,
      "t": 141465.94249999663,
      "d": 5.296604166680481,
      "v": 31
    },
    {
      "midi": 82,
      "hit": false,
      "t": 141593.06099999664,
      "d": 5.296604166680481,
      "v": 46
    },
    {
      "midi": 51,
      "hit": false,
      "t": 141720.17949999665,
      "d": 5.296604166680481,
      "v": 77
    },
    {
      "midi": 82,
      "hit": false,
      "t": 141720.17949999665,
      "d": 5.296604166680481,
      "v": 87
    },
    {
      "midi": 51,
      "hit": false,
      "t": 141762.55233333,
      "d": 5.296604166680481,
      "v": 81
    },
    {
      "midi": 51,
      "hit": false,
      "t": 141804.92516666336,
      "d": 5.296604166680481,
      "v": 85
    },
    {
      "midi": 51,
      "hit": false,
      "t": 141847.29799999675,
      "d": 5.296604166680481,
      "v": 108
    },
    {
      "midi": 82,
      "hit": false,
      "t": 141847.29799999675,
      "d": 5.296604166680481,
      "v": 110
    },
    {
      "midi": 35,
      "hit": false,
      "t": 141847.29799999675,
      "d": 74.15245833338122,
      "v": 120
    },
    {
      "midi": 61,
      "hit": false,
      "t": 141847.29799999675,
      "d": 439.6181458334031,
      "v": 94
    },
    {
      "midi": 34,
      "hit": false,
      "t": 141847.29799999675,
      "d": 497.8807916667429,
      "v": 100
    },
    {
      "midi": 70,
      "hit": false,
      "t": 141847.29799999675,
      "d": 497.8807916667429,
      "v": 100
    },
    {
      "midi": 74,
      "hit": false,
      "t": 141847.29799999675,
      "d": 503.17739583342336,
      "v": 68
    },
    {
      "midi": 78,
      "hit": false,
      "t": 141847.29799999675,
      "d": 503.17739583342336,
      "v": 110
    },
    {
      "midi": 94,
      "hit": false,
      "t": 141847.29799999675,
      "d": 503.17739583342336,
      "v": 60
    },
    {
      "midi": 46,
      "hit": false,
      "t": 141857.8912083301,
      "d": 487.2875833333819,
      "v": 95
    },
    {
      "midi": 82,
      "hit": false,
      "t": 141974.4164999968,
      "d": 5.296604166680481,
      "v": 31
    },
    {
      "midi": 82,
      "hit": false,
      "t": 142101.5349999968,
      "d": 5.296604166680481,
      "v": 46
    },
    {
      "midi": 82,
      "hit": false,
      "t": 142228.6534999968,
      "d": 5.296604166680481,
      "v": 87
    },
    {
      "midi": 57,
      "hit": false,
      "t": 142355.77199999685,
      "d": 5.296604166680481,
      "v": 99
    },
    {
      "midi": 82,
      "hit": false,
      "t": 142355.77199999685,
      "d": 5.296604166680481,
      "v": 44
    },
    {
      "midi": 35,
      "hit": false,
      "t": 142355.77199999685,
      "d": 74.15245833335212,
      "v": 120
    },
    {
      "midi": 33,
      "hit": false,
      "t": 142355.77199999685,
      "d": 497.880791666772,
      "v": 100
    },
    {
      "midi": 69,
      "hit": false,
      "t": 142355.77199999685,
      "d": 497.880791666772,
      "v": 100
    },
    {
      "midi": 78,
      "hit": false,
      "t": 142355.77199999685,
      "d": 503.17739583345247,
      "v": 66
    },
    {
      "midi": 83,
      "hit": false,
      "t": 142355.77199999685,
      "d": 503.17739583345247,
      "v": 108
    },
    {
      "midi": 62,
      "hit": false,
      "t": 142355.77199999685,
      "d": 503.17739583345247,
      "v": 94
    },
    {
      "midi": 93,
      "hit": false,
      "t": 142355.77199999685,
      "d": 503.17739583345247,
      "v": 60
    },
    {
      "midi": 81,
      "hit": false,
      "t": 142355.77199999685,
      "d": 503.17739583345247,
      "v": 110
    },
    {
      "midi": 45,
      "hit": false,
      "t": 142366.36520833021,
      "d": 487.287583333411,
      "v": 95
    },
    {
      "midi": 40,
      "hit": false,
      "t": 142482.89049999687,
      "d": 5.296604166680481,
      "v": 93
    },
    {
      "midi": 82,
      "hit": false,
      "t": 142482.89049999687,
      "d": 5.296604166680481,
      "v": 31
    },
    {
      "midi": 82,
      "hit": false,
      "t": 142610.00899999688,
      "d": 5.296604166680481,
      "v": 46
    },
    {
      "midi": 51,
      "hit": false,
      "t": 142737.1274999969,
      "d": 5.296604166680481,
      "v": 77
    },
    {
      "midi": 82,
      "hit": false,
      "t": 142737.1274999969,
      "d": 5.296604166680481,
      "v": 87
    },
    {
      "midi": 51,
      "hit": false,
      "t": 142779.50033333024,
      "d": 5.296604166680481,
      "v": 81
    },
    {
      "midi": 51,
      "hit": false,
      "t": 142821.8731666636,
      "d": 5.296604166680481,
      "v": 85
    },
    {
      "midi": 40,
      "hit": false,
      "t": 142864.245999997,
      "d": 5.296604166680481,
      "v": 93
    },
    {
      "midi": 51,
      "hit": false,
      "t": 142864.245999997,
      "d": 5.296604166680481,
      "v": 108
    },
    {
      "midi": 82,
      "hit": false,
      "t": 142864.245999997,
      "d": 5.296604166680481,
      "v": 46
    },
    {
      "midi": 35,
      "hit": false,
      "t": 142864.245999997,
      "d": 74.15245833335212,
      "v": 120
    },
    {
      "midi": 32,
      "hit": false,
      "t": 142864.245999997,
      "d": 497.8807916666847,
      "v": 100
    },
    {
      "midi": 68,
      "hit": false,
      "t": 142864.245999997,
      "d": 497.8807916666847,
      "v": 100
    },
    {
      "midi": 79,
      "hit": false,
      "t": 142864.245999997,
      "d": 503.17739583336515,
      "v": 60
    },
    {
      "midi": 85,
      "hit": false,
      "t": 142864.245999997,
      "d": 503.17739583336515,
      "v": 102
    },
    {
      "midi": 59,
      "hit": false,
      "t": 142864.245999997,
      "d": 503.17739583336515,
      "v": 107
    },
    {
      "midi": 92,
      "hit": false,
      "t": 142864.245999997,
      "d": 503.17739583336515,
      "v": 60
    },
    {
      "midi": 80,
      "hit": false,
      "t": 142864.245999997,
      "d": 503.17739583336515,
      "v": 110
    },
    {
      "midi": 44,
      "hit": false,
      "t": 142874.83920833035,
      "d": 487.2875833333237,
      "v": 95
    },
    {
      "midi": 42,
      "hit": false,
      "t": 143367.42339583035,
      "d": 5.296604166680481,
      "v": 58
    },
    {
      "midi": 82,
      "hit": false,
      "t": 143372.71999999703,
      "d": 5.296604166680481,
      "v": 44
    },
    {
      "midi": 35,
      "hit": false,
      "t": 143372.71999999703,
      "d": 74.15245833335212,
      "v": 120
    },
    {
      "midi": 71,
      "hit": false,
      "t": 143372.71999999703,
      "d": 185.3811458333803,
      "v": 105
    },
    {
      "midi": 83,
      "hit": false,
      "t": 143372.71999999703,
      "d": 185.3811458333803,
      "v": 115
    },
    {
      "midi": 95,
      "hit": false,
      "t": 143372.71999999703,
      "d": 185.3811458333803,
      "v": 85
    },
    {
      "midi": 33,
      "hit": false,
      "t": 143372.71999999703,
      "d": 238.34718750003958,
      "v": 100
    },
    {
      "midi": 45,
      "hit": false,
      "t": 143372.71999999703,
      "d": 238.34718750003958,
      "v": 92
    },
    {
      "midi": 57,
      "hit": false,
      "t": 143372.71999999703,
      "d": 2028.5993958341132,
      "v": 101
    },
    {
      "midi": 82,
      "hit": false,
      "t": 143499.83849999704,
      "d": 5.296604166680481,
      "v": 31
    },
    {
      "midi": 42,
      "hit": false,
      "t": 143505.13510416372,
      "d": 5.296604166680481,
      "v": 50
    },
    {
      "midi": 42,
      "hit": false,
      "t": 143626.95699999708,
      "d": 5.296604166680481,
      "v": 107
    },
    {
      "midi": 82,
      "hit": false,
      "t": 143626.95699999708,
      "d": 5.296604166680481,
      "v": 46
    },
    {
      "midi": 94,
      "hit": false,
      "t": 143626.95699999708,
      "d": 58.262645833339775,
      "v": 56
    },
    {
      "midi": 70,
      "hit": false,
      "t": 143626.95699999708,
      "d": 84.74566666668397,
      "v": 76
    },
    {
      "midi": 91,
      "hit": false,
      "t": 143711.70266666377,
      "d": 58.26264583336888,
      "v": 56
    },
    {
      "midi": 67,
      "hit": false,
      "t": 143711.70266666377,
      "d": 84.74566666671308,
      "v": 76
    },
    {
      "midi": 79,
      "hit": false,
      "t": 143711.70266666377,
      "d": 84.74566666671308,
      "v": 103
    },
    {
      "midi": 82,
      "hit": false,
      "t": 143754.0754999971,
      "d": 5.296604166680481,
      "v": 87
    },
    {
      "midi": 33,
      "hit": false,
      "t": 143754.0754999971,
      "d": 105.9320833334059,
      "v": 100
    },
    {
      "midi": 45,
      "hit": false,
      "t": 143754.0754999971,
      "d": 105.9320833334059,
      "v": 100
    },
    {
      "midi": 42,
      "hit": false,
      "t": 143759.37210416378,
      "d": 5.296604166680481,
      "v": 53
    },
    {
      "midi": 90,
      "hit": false,
      "t": 143796.44833333048,
      "d": 58.262645833339775,
      "v": 74
    },
    {
      "midi": 66,
      "hit": false,
      "t": 143796.44833333048,
      "d": 84.74566666671308,
      "v": 94
    },
    {
      "midi": 78,
      "hit": false,
      "t": 143796.44833333048,
      "d": 84.74566666671308,
      "v": 94
    },
    {
      "midi": 21,
      "hit": false,
      "t": 143865.30418749718,
      "d": 137.71170833337237,
      "v": 100
    },
    {
      "midi": 33,
      "hit": false,
      "t": 143865.30418749718,
      "d": 137.71170833337237,
      "v": 100
    },
    {
      "midi": 46,
      "hit": false,
      "t": 143881.1939999972,
      "d": 5.296604166680481,
      "v": 70
    },
    {
      "midi": 82,
      "hit": false,
      "t": 143881.1939999972,
      "d": 5.296604166680481,
      "v": 44
    },
    {
      "midi": 35,
      "hit": false,
      "t": 143881.1939999972,
      "d": 74.15245833335212,
      "v": 120
    },
    {
      "midi": 64,
      "hit": false,
      "t": 143881.1939999972,
      "d": 185.3811458334094,
      "v": 107
    },
    {
      "midi": 76,
      "hit": false,
      "t": 143881.1939999972,
      "d": 185.3811458334094,
      "v": 120
    },
    {
      "midi": 88,
      "hit": false,
      "t": 143881.1939999972,
      "d": 185.3811458334094,
      "v": 87
    },
    {
      "midi": 82,
      "hit": false,
      "t": 144008.31249999724,
      "d": 5.296604166680481,
      "v": 31
    },
    {
      "midi": 44,
      "hit": false,
      "t": 144013.60910416392,
      "d": 5.296604166680481,
      "v": 50
    },
    {
      "midi": 26,
      "hit": false,
      "t": 144114.2445833306,
      "d": 121.82189583336003,
      "v": 100
    },
    {
      "midi": 38,
      "hit": false,
      "t": 144114.2445833306,
      "d": 121.82189583336003,
      "v": 100
    },
    {
      "midi": 42,
      "hit": false,
      "t": 144135.43099999728,
      "d": 5.296604166680481,
      "v": 107
    },
    {
      "midi": 82,
      "hit": false,
      "t": 144135.43099999728,
      "d": 5.296604166680481,
      "v": 46
    },
    {
      "midi": 86,
      "hit": false,
      "t": 144135.43099999728,
      "d": 58.262645833339775,
      "v": 59
    },
    {
      "midi": 62,
      "hit": false,
      "t": 144135.43099999728,
      "d": 84.74566666668397,
      "v": 79
    },
    {
      "midi": 74,
      "hit": false,
      "t": 144135.43099999728,
      "d": 84.74566666668397,
      "v": 102
    },
    {
      "midi": 85,
      "hit": false,
      "t": 144220.17666666396,
      "d": 58.26264583339798,
      "v": 65
    },
    {
      "midi": 61,
      "hit": false,
      "t": 144220.17666666396,
      "d": 84.74566666674218,
      "v": 85
    },
    {
      "midi": 73,
      "hit": false,
      "t": 144220.17666666396,
      "d": 84.74566666674218,
      "v": 86
    },
    {
      "midi": 28,
      "hit": false,
      "t": 144241.36308333065,
      "d": 158.8981250001525,
      "v": 100
    },
    {
      "midi": 40,
      "hit": false,
      "t": 144241.36308333065,
      "d": 158.8981250001525,
      "v": 100
    },
    {
      "midi": 38,
      "hit": false,
      "t": 144262.54949999732,
      "d": 5.296604166680481,
      "v": 30
    },
    {
      "midi": 82,
      "hit": false,
      "t": 144262.54949999732,
      "d": 5.296604166680481,
      "v": 87
    },
    {
      "midi": 42,
      "hit": false,
      "t": 144267.846104164,
      "d": 5.296604166680481,
      "v": 53
    },
    {
      "midi": 38,
      "hit": false,
      "t": 144304.9223333307,
      "d": 5.296604166680481,
      "v": 30
    },
    {
      "midi": 84,
      "hit": false,
      "t": 144304.9223333307,
      "d": 58.26264583336888,
      "v": 74
    },
    {
      "midi": 60,
      "hit": false,
      "t": 144304.9223333307,
      "d": 84.74566666674218,
      "v": 94
    },
    {
      "midi": 72,
      "hit": false,
      "t": 144304.9223333307,
      "d": 84.74566666674218,
      "v": 95
    },
    {
      "midi": 38,
      "hit": false,
      "t": 144347.29516666406,
      "d": 5.296604166680481,
      "v": 30
    },
    {
      "midi": 31,
      "hit": false,
      "t": 144368.48158333075,
      "d": 116.52529166673776,
      "v": 100
    },
    {
      "midi": 43,
      "hit": false,
      "t": 144368.48158333075,
      "d": 116.52529166673776,
      "v": 100
    },
    {
      "midi": 42,
      "hit": false,
      "t": 144384.37139583076,
      "d": 5.296604166680481,
      "v": 73
    },
    {
      "midi": 38,
      "hit": false,
      "t": 144389.66799999744,
      "d": 5.296604166680481,
      "v": 30
    },
    {
      "midi": 82,
      "hit": false,
      "t": 144389.66799999744,
      "d": 5.296604166680481,
      "v": 44
    },
    {
      "midi": 35,
      "hit": false,
      "t": 144389.66799999744,
      "d": 74.15245833335212,
      "v": 120
    },
    {
      "midi": 59,
      "hit": false,
      "t": 144389.66799999744,
      "d": 79.4490625000326,
      "v": 91
    },
    {
      "midi": 71,
      "hit": false,
      "t": 144389.66799999744,
      "d": 79.4490625000326,
      "v": 101
    },
    {
      "midi": 83,
      "hit": false,
      "t": 144389.66799999744,
      "d": 79.4490625000326,
      "v": 71
    },
    {
      "midi": 88,
      "hit": false,
      "t": 144389.66799999744,
      "d": 513.7706041668425,
      "v": 58
    },
    {
      "midi": 31,
      "hit": false,
      "t": 144495.60008333082,
      "d": 148.30491666670423,
      "v": 100
    },
    {
      "midi": 43,
      "hit": false,
      "t": 144495.60008333082,
      "d": 148.30491666670423,
      "v": 100
    },
    {
      "midi": 82,
      "hit": false,
      "t": 144516.78649999748,
      "d": 5.296604166680481,
      "v": 31
    },
    {
      "midi": 62,
      "hit": false,
      "t": 144516.78649999748,
      "d": 79.4490625000326,
      "v": 94
    },
    {
      "midi": 74,
      "hit": false,
      "t": 144516.78649999748,
      "d": 79.4490625000326,
      "v": 104
    },
    {
      "midi": 86,
      "hit": false,
      "t": 144516.78649999748,
      "d": 79.4490625000326,
      "v": 74
    },
    {
      "midi": 42,
      "hit": false,
      "t": 144522.08310416416,
      "d": 5.296604166680481,
      "v": 62
    },
    {
      "midi": 28,
      "hit": false,
      "t": 144628.0151874975,
      "d": 169.49133333339705,
      "v": 100
    },
    {
      "midi": 40,
      "hit": false,
      "t": 144628.0151874975,
      "d": 169.49133333339705,
      "v": 100
    },
    {
      "midi": 42,
      "hit": false,
      "t": 144643.90499999753,
      "d": 5.296604166680481,
      "v": 76
    },
    {
      "midi": 82,
      "hit": false,
      "t": 144643.90499999753,
      "d": 5.296604166680481,
      "v": 46
    },
    {
      "midi": 69,
      "hit": false,
      "t": 144643.90499999753,
      "d": 79.44906250000349,
      "v": 94
    },
    {
      "midi": 81,
      "hit": false,
      "t": 144643.90499999753,
      "d": 79.44906250000349,
      "v": 104
    },
    {
      "midi": 93,
      "hit": false,
      "t": 144643.90499999753,
      "d": 79.44906250000349,
      "v": 74
    },
    {
      "midi": 82,
      "hit": false,
      "t": 144771.02349999754,
      "d": 5.296604166680481,
      "v": 87
    },
    {
      "midi": 68,
      "hit": false,
      "t": 144771.02349999754,
      "d": 79.4490625000326,
      "v": 94
    },
    {
      "midi": 80,
      "hit": false,
      "t": 144771.02349999754,
      "d": 79.4490625000326,
      "v": 104
    },
    {
      "midi": 92,
      "hit": false,
      "t": 144771.02349999754,
      "d": 79.4490625000326,
      "v": 74
    },
    {
      "midi": 42,
      "hit": false,
      "t": 144776.32010416422,
      "d": 5.296604166680481,
      "v": 63
    },
    {
      "midi": 31,
      "hit": false,
      "t": 144887.54879166425,
      "d": 121.82189583338914,
      "v": 100
    },
    {
      "midi": 43,
      "hit": false,
      "t": 144887.54879166425,
      "d": 121.82189583338914,
      "v": 100
    },
    {
      "midi": 42,
      "hit": false,
      "t": 144892.84539583093,
      "d": 5.296604166680481,
      "v": 82
    },
    {
      "midi": 40,
      "hit": false,
      "t": 144898.1419999976,
      "d": 5.296604166680481,
      "v": 93
    },
    {
      "midi": 82,
      "hit": false,
      "t": 144898.1419999976,
      "d": 5.296604166680481,
      "v": 46
    },
    {
      "midi": 45,
      "hit": false,
      "t": 144898.1419999976,
      "d": 5.296604166680481,
      "v": 115
    },
    {
      "midi": 35,
      "hit": false,
      "t": 144898.1419999976,
      "d": 74.15245833335212,
      "v": 120
    },
    {
      "midi": 67,
      "hit": false,
      "t": 144898.1419999976,
      "d": 79.4490625000326,
      "v": 93
    },
    {
      "midi": 79,
      "hit": false,
      "t": 144898.1419999976,
      "d": 79.4490625000326,
      "v": 103
    },
    {
      "midi": 91,
      "hit": false,
      "t": 144898.1419999976,
      "d": 79.4490625000326,
      "v": 73
    },
    {
      "midi": 71,
      "hit": false,
      "t": 145025.26049999765,
      "d": 79.4490625000326,
      "v": 94
    },
    {
      "midi": 83,
      "hit": false,
      "t": 145025.26049999765,
      "d": 79.4490625000326,
      "v": 104
    },
    {
      "midi": 95,
      "hit": false,
      "t": 145025.26049999765,
      "d": 79.4490625000326,
      "v": 74
    },
    {
      "midi": 42,
      "hit": false,
      "t": 145030.55710416433,
      "d": 5.296604166680481,
      "v": 58
    },
    {
      "midi": 31,
      "hit": false,
      "t": 145141.78579166436,
      "d": 169.49133333339705,
      "v": 100
    },
    {
      "midi": 43,
      "hit": false,
      "t": 145141.78579166436,
      "d": 169.49133333339705,
      "v": 100
    },
    {
      "midi": 46,
      "hit": false,
      "t": 145152.3789999977,
      "d": 5.296604166680481,
      "v": 84
    },
    {
      "midi": 78,
      "hit": false,
      "t": 145152.3789999977,
      "d": 79.4490625000326,
      "v": 94
    },
    {
      "midi": 90,
      "hit": false,
      "t": 145152.3789999977,
      "d": 79.4490625000326,
      "v": 104
    },
    {
      "midi": 102,
      "hit": false,
      "t": 145152.3789999977,
      "d": 79.4490625000326,
      "v": 74
    },
    {
      "midi": 33,
      "hit": false,
      "t": 145268.9042916644,
      "d": 100.63547916669631,
      "v": 100
    },
    {
      "midi": 45,
      "hit": false,
      "t": 145268.9042916644,
      "d": 100.63547916669631,
      "v": 100
    },
    {
      "midi": 76,
      "hit": false,
      "t": 145279.49749999773,
      "d": 79.4490625000326,
      "v": 94
    },
    {
      "midi": 88,
      "hit": false,
      "t": 145279.49749999773,
      "d": 79.4490625000326,
      "v": 104
    },
    {
      "midi": 100,
      "hit": false,
      "t": 145279.49749999773,
      "d": 79.4490625000326,
      "v": 74
    },
    {
      "midi": 44,
      "hit": false,
      "t": 145284.7941041644,
      "d": 5.296604166680481,
      "v": 84
    },
    {
      "midi": 61,
      "hit": false,
      "t": 145380.13297916445,
      "d": 15.88981250001234,
      "v": 79
    },
    {
      "midi": 42,
      "hit": false,
      "t": 145401.31939583115,
      "d": 5.296604166680481,
      "v": 58
    },
    {
      "midi": 82,
      "hit": false,
      "t": 145406.61599999783,
      "d": 5.296604166680481,
      "v": 44
    },
    {
      "midi": 61,
      "hit": false,
      "t": 145406.61599999783,
      "d": 15.88981250001234,
      "v": 111
    },
    {
      "midi": 35,
      "hit": false,
      "t": 145406.61599999783,
      "d": 74.15245833335212,
      "v": 120
    },
    {
      "midi": 40,
      "hit": false,
      "t": 145533.73449999784,
      "d": 5.296604166680481,
      "v": 115
    },
    {
      "midi": 57,
      "hit": false,
      "t": 145533.73449999784,
      "d": 5.296604166680481,
      "v": 125
    },
    {
      "midi": 82,
      "hit": false,
      "t": 145533.73449999784,
      "d": 5.296604166680481,
      "v": 31
    },
    {
      "midi": 58,
      "hit": false,
      "t": 145533.73449999784,
      "d": 90.04227083336446,
      "v": 107
    },
    {
      "midi": 70,
      "hit": false,
      "t": 145533.73449999784,
      "d": 90.04227083336446,
      "v": 117
    },
    {
      "midi": 28,
      "hit": false,
      "t": 145533.73449999784,
      "d": 312.4996458334208,
      "v": 100
    },
    {
      "midi": 42,
      "hit": false,
      "t": 145539.03110416452,
      "d": 5.296604166680481,
      "v": 50
    },
    {
      "midi": 42,
      "hit": false,
      "t": 145660.85299999788,
      "d": 5.296604166680481,
      "v": 107
    },
    {
      "midi": 82,
      "hit": false,
      "t": 145660.85299999788,
      "d": 5.296604166680481,
      "v": 46
    },
    {
      "midi": 55,
      "hit": false,
      "t": 145660.85299999788,
      "d": 90.04227083333535,
      "v": 107
    },
    {
      "midi": 67,
      "hit": false,
      "t": 145660.85299999788,
      "d": 90.04227083333535,
      "v": 117
    },
    {
      "midi": 79,
      "hit": false,
      "t": 145660.85299999788,
      "d": 90.04227083333535,
      "v": 89
    },
    {
      "midi": 82,
      "hit": false,
      "t": 145787.9714999979,
      "d": 5.296604166680481,
      "v": 87
    },
    {
      "midi": 52,
      "hit": false,
      "t": 145787.9714999979,
      "d": 90.04227083336446,
      "v": 107
    },
    {
      "midi": 64,
      "hit": false,
      "t": 145787.9714999979,
      "d": 90.04227083336446,
      "v": 117
    },
    {
      "midi": 76,
      "hit": false,
      "t": 145787.9714999979,
      "d": 90.04227083336446,
      "v": 89
    },
    {
      "midi": 42,
      "hit": false,
      "t": 145793.26810416457,
      "d": 5.296604166680481,
      "v": 53
    },
    {
      "midi": 64,
      "hit": false,
      "t": 145899.20018749792,
      "d": 5.296604166680481,
      "v": 90
    },
    {
      "midi": 40,
      "hit": false,
      "t": 145915.08999999796,
      "d": 5.296604166680481,
      "v": 93
    },
    {
      "midi": 46,
      "hit": false,
      "t": 145915.08999999796,
      "d": 5.296604166680481,
      "v": 70
    },
    {
      "midi": 49,
      "hit": false,
      "t": 145915.08999999796,
      "d": 5.296604166680481,
      "v": 99
    },
    {
      "midi": 57,
      "hit": false,
      "t": 145915.08999999796,
      "d": 5.296604166680481,
      "v": 99
    },
    {
      "midi": 82,
      "hit": false,
      "t": 145915.08999999796,
      "d": 5.296604166680481,
      "v": 44
    },
    {
      "midi": 35,
      "hit": false,
      "t": 145915.08999999796,
      "d": 74.15245833335212,
      "v": 120
    },
    {
      "midi": 67,
      "hit": false,
      "t": 145915.08999999796,
      "d": 90.04227083336446,
      "v": 93
    },
    {
      "midi": 79,
      "hit": false,
      "t": 145915.08999999796,
      "d": 90.04227083336446,
      "v": 117
    },
    {
      "midi": 91,
      "hit": false,
      "t": 145915.08999999796,
      "d": 90.04227083336446,
      "v": 89
    },
    {
      "midi": 31,
      "hit": false,
      "t": 145915.08999999796,
      "d": 455.50795833344455,
      "v": 100
    },
    {
      "midi": 43,
      "hit": false,
      "t": 145915.08999999796,
      "d": 455.50795833344455,
      "v": 115
    },
    {
      "midi": 73,
      "hit": false,
      "t": 145915.08999999796,
      "d": 497.8807916668011,
      "v": 123
    },
    {
      "midi": 82,
      "hit": false,
      "t": 146042.208499998,
      "d": 5.296604166680481,
      "v": 31
    },
    {
      "midi": 64,
      "hit": false,
      "t": 146042.208499998,
      "d": 90.04227083336446,
      "v": 107
    },
    {
      "midi": 76,
      "hit": false,
      "t": 146042.208499998,
      "d": 90.04227083336446,
      "v": 117
    },
    {
      "midi": 88,
      "hit": false,
      "t": 146042.208499998,
      "d": 90.04227083336446,
      "v": 89
    },
    {
      "midi": 44,
      "hit": false,
      "t": 146047.50510416468,
      "d": 5.296604166680481,
      "v": 50
    },
    {
      "midi": 42,
      "hit": false,
      "t": 146169.32699999804,
      "d": 5.296604166680481,
      "v": 107
    },
    {
      "midi": 82,
      "hit": false,
      "t": 146169.32699999804,
      "d": 5.296604166680481,
      "v": 46
    },
    {
      "midi": 67,
      "hit": false,
      "t": 146169.32699999804,
      "d": 90.04227083333535,
      "v": 107
    },
    {
      "midi": 79,
      "hit": false,
      "t": 146169.32699999804,
      "d": 90.04227083333535,
      "v": 117
    },
    {
      "midi": 91,
      "hit": false,
      "t": 146169.32699999804,
      "d": 90.04227083333535,
      "v": 89
    },
    {
      "midi": 82,
      "hit": false,
      "t": 146296.44549999805,
      "d": 5.296604166680481,
      "v": 87
    },
    {
      "midi": 70,
      "hit": false,
      "t": 146296.44549999805,
      "d": 90.04227083336446,
      "v": 107
    },
    {
      "midi": 94,
      "hit": false,
      "t": 146296.44549999805,
      "d": 90.04227083336446,
      "v": 89
    },
    {
      "midi": 42,
      "hit": false,
      "t": 146301.74210416473,
      "d": 5.296604166680481,
      "v": 53
    },
    {
      "midi": 42,
      "hit": false,
      "t": 146418.26739583144,
      "d": 5.296604166680481,
      "v": 73
    },
    {
      "midi": 82,
      "hit": false,
      "t": 146423.56399999812,
      "d": 5.296604166680481,
      "v": 44
    },
    {
      "midi": 35,
      "hit": false,
      "t": 146423.56399999812,
      "d": 74.15245833335212,
      "v": 120
    },
    {
      "midi": 70,
      "hit": false,
      "t": 146423.56399999812,
      "d": 90.04227083336446,
      "v": 93
    },
    {
      "midi": 94,
      "hit": false,
      "t": 146423.56399999812,
      "d": 90.04227083336446,
      "v": 90
    },
    {
      "midi": 76,
      "hit": false,
      "t": 146423.56399999812,
      "d": 497.8807916668011,
      "v": 123
    },
    {
      "midi": 34,
      "hit": false,
      "t": 146423.56399999812,
      "d": 503.17739583348157,
      "v": 100
    },
    {
      "midi": 46,
      "hit": false,
      "t": 146423.56399999812,
      "d": 503.17739583348157,
      "v": 103
    },
    {
      "midi": 40,
      "hit": false,
      "t": 146550.68249999816,
      "d": 5.296604166680481,
      "v": 93
    },
    {
      "midi": 82,
      "hit": false,
      "t": 146550.68249999816,
      "d": 5.296604166680481,
      "v": 31
    },
    {
      "midi": 67,
      "hit": false,
      "t": 146550.68249999816,
      "d": 90.04227083336446,
      "v": 107
    },
    {
      "midi": 79,
      "hit": false,
      "t": 146550.68249999816,
      "d": 90.04227083336446,
      "v": 117
    },
    {
      "midi": 91,
      "hit": false,
      "t": 146550.68249999816,
      "d": 90.04227083336446,
      "v": 89
    },
    {
      "midi": 42,
      "hit": false,
      "t": 146555.97910416484,
      "d": 5.296604166680481,
      "v": 62
    },
    {
      "midi": 42,
      "hit": false,
      "t": 146677.8009999982,
      "d": 5.296604166680481,
      "v": 76
    },
    {
      "midi": 82,
      "hit": false,
      "t": 146677.8009999982,
      "d": 5.296604166680481,
      "v": 46
    },
    {
      "midi": 70,
      "hit": false,
      "t": 146677.8009999982,
      "d": 90.04227083333535,
      "v": 107
    },
    {
      "midi": 94,
      "hit": false,
      "t": 146677.8009999982,
      "d": 90.04227083333535,
      "v": 89
    },
    {
      "midi": 82,
      "hit": false,
      "t": 146804.9194999982,
      "d": 5.296604166680481,
      "v": 87
    },
    {
      "midi": 73,
      "hit": false,
      "t": 146804.9194999982,
      "d": 90.04227083336446,
      "v": 107
    },
    {
      "midi": 85,
      "hit": false,
      "t": 146804.9194999982,
      "d": 90.04227083336446,
      "v": 117
    },
    {
      "midi": 97,
      "hit": false,
      "t": 146804.9194999982,
      "d": 90.04227083336446,
      "v": 89
    },
    {
      "midi": 42,
      "hit": false,
      "t": 146810.2161041649,
      "d": 5.296604166680481,
      "v": 63
    },
    {
      "midi": 42,
      "hit": false,
      "t": 146926.7413958316,
      "d": 5.296604166680481,
      "v": 82
    },
    {
      "midi": 40,
      "hit": false,
      "t": 146932.03799999828,
      "d": 5.296604166680481,
      "v": 93
    },
    {
      "midi": 82,
      "hit": false,
      "t": 146932.03799999828,
      "d": 5.296604166680481,
      "v": 44
    },
    {
      "midi": 35,
      "hit": false,
      "t": 146932.03799999828,
      "d": 74.15245833335212,
      "v": 120
    },
    {
      "midi": 73,
      "hit": false,
      "t": 146932.03799999828,
      "d": 90.04227083336446,
      "v": 93
    },
    {
      "midi": 85,
      "hit": false,
      "t": 146932.03799999828,
      "d": 90.04227083336446,
      "v": 118
    },
    {
      "midi": 97,
      "hit": false,
      "t": 146932.03799999828,
      "d": 90.04227083336446,
      "v": 90
    },
    {
      "midi": 79,
      "hit": false,
      "t": 146932.03799999828,
      "d": 497.8807916668302,
      "v": 123
    },
    {
      "midi": 37,
      "hit": false,
      "t": 146932.03799999828,
      "d": 503.1773958335107,
      "v": 100
    },
    {
      "midi": 49,
      "hit": false,
      "t": 146932.03799999828,
      "d": 503.1773958335107,
      "v": 103
    },
    {
      "midi": 82,
      "hit": false,
      "t": 147059.15649999832,
      "d": 5.296604166680481,
      "v": 31
    },
    {
      "midi": 70,
      "hit": false,
      "t": 147059.15649999832,
      "d": 90.04227083336446,
      "v": 107
    },
    {
      "midi": 94,
      "hit": false,
      "t": 147059.15649999832,
      "d": 90.04227083336446,
      "v": 89
    },
    {
      "midi": 42,
      "hit": false,
      "t": 147064.453104165,
      "d": 5.296604166680481,
      "v": 58
    },
    {
      "midi": 40,
      "hit": false,
      "t": 147186.27499999836,
      "d": 5.296604166680481,
      "v": 93
    },
    {
      "midi": 46,
      "hit": false,
      "t": 147186.27499999836,
      "d": 5.296604166680481,
      "v": 84
    },
    {
      "midi": 82,
      "hit": false,
      "t": 147186.27499999836,
      "d": 5.296604166680481,
      "v": 46
    },
    {
      "midi": 73,
      "hit": false,
      "t": 147186.27499999836,
      "d": 90.04227083333535,
      "v": 107
    },
    {
      "midi": 85,
      "hit": false,
      "t": 147186.27499999836,
      "d": 90.04227083333535,
      "v": 117
    },
    {
      "midi": 97,
      "hit": false,
      "t": 147186.27499999836,
      "d": 90.04227083333535,
      "v": 89
    },
    {
      "midi": 40,
      "hit": false,
      "t": 147313.39349999838,
      "d": 5.296604166680481,
      "v": 93
    },
    {
      "midi": 76,
      "hit": false,
      "t": 147313.39349999838,
      "d": 90.04227083336446,
      "v": 107
    },
    {
      "midi": 88,
      "hit": false,
      "t": 147313.39349999838,
      "d": 90.04227083336446,
      "v": 117
    },
    {
      "midi": 100,
      "hit": false,
      "t": 147313.39349999838,
      "d": 90.04227083336446,
      "v": 89
    },
    {
      "midi": 44,
      "hit": false,
      "t": 147318.69010416506,
      "d": 5.296604166680481,
      "v": 84
    },
    {
      "midi": 42,
      "hit": false,
      "t": 147435.2153958318,
      "d": 5.296604166680481,
      "v": 53
    },
    {
      "midi": 49,
      "hit": false,
      "t": 147440.51199999847,
      "d": 5.296604166680481,
      "v": 108
    },
    {
      "midi": 57,
      "hit": false,
      "t": 147440.51199999847,
      "d": 5.296604166680481,
      "v": 108
    },
    {
      "midi": 61,
      "hit": false,
      "t": 147440.51199999847,
      "d": 5.296604166680481,
      "v": 67
    },
    {
      "midi": 77,
      "hit": false,
      "t": 147440.51199999847,
      "d": 5.296604166680481,
      "v": 58
    },
    {
      "midi": 82,
      "hit": false,
      "t": 147440.51199999847,
      "d": 5.296604166680481,
      "v": 7
    },
    {
      "midi": 74,
      "hit": false,
      "t": 147440.51199999847,
      "d": 31.77962500002468,
      "v": 110
    },
    {
      "midi": 33,
      "hit": false,
      "t": 147440.51199999847,
      "d": 58.26264583336888,
      "v": 100
    },
    {
      "midi": 45,
      "hit": false,
      "t": 147440.51199999847,
      "d": 58.26264583336888,
      "v": 100
    },
    {
      "midi": 62,
      "hit": false,
      "t": 147451.10520833184,
      "d": 74.15245833335212,
      "v": 113
    },
    {
      "midi": 35,
      "hit": false,
      "t": 147472.2916249985,
      "d": 42.37283333335654,
      "v": 100
    },
    {
      "midi": 47,
      "hit": false,
      "t": 147472.2916249985,
      "d": 58.26264583336888,
      "v": 100
    },
    {
      "midi": 36,
      "hit": false,
      "t": 147504.07124999852,
      "d": 47.66943750003702,
      "v": 100
    },
    {
      "midi": 48,
      "hit": false,
      "t": 147504.07124999852,
      "d": 47.66943750003702,
      "v": 100
    },
    {
      "midi": 50,
      "hit": false,
      "t": 147514.66445833186,
      "d": 21.18641666669282,
      "v": 100
    },
    {
      "midi": 38,
      "hit": false,
      "t": 147514.66445833186,
      "d": 31.77962500002468,
      "v": 100
    },
    {
      "midi": 40,
      "hit": false,
      "t": 147525.2576666652,
      "d": 58.26264583342709,
      "v": 100
    },
    {
      "midi": 52,
      "hit": false,
      "t": 147525.2576666652,
      "d": 58.26264583342709,
      "v": 100
    },
    {
      "midi": 41,
      "hit": false,
      "t": 147535.85087499855,
      "d": 68.85585416678805,
      "v": 100
    },
    {
      "midi": 53,
      "hit": false,
      "t": 147535.85087499855,
      "d": 68.85585416678805,
      "v": 100
    },
    {
      "midi": 82,
      "hit": false,
      "t": 147567.63049999857,
      "d": 5.296604166680481,
      "v": 1
    },
    {
      "midi": 74,
      "hit": false,
      "t": 147567.63049999857,
      "d": 31.779625000082888,
      "v": 93
    },
    {
      "midi": 42,
      "hit": false,
      "t": 147572.92710416525,
      "d": 5.296604166680481,
      "v": 45
    },
    {
      "midi": 69,
      "hit": false,
      "t": 147572.92710416525,
      "d": 58.26264583342709,
      "v": 110
    },
    {
      "midi": 61,
      "hit": false,
      "t": 147578.22370833193,
      "d": 5.296604166680481,
      "v": 65
    },
    {
      "midi": 43,
      "hit": false,
      "t": 147578.22370833193,
      "d": 52.966041666746605,
      "v": 100
    },
    {
      "midi": 55,
      "hit": false,
      "t": 147578.22370833193,
      "d": 52.966041666746605,
      "v": 100
    },
    {
      "midi": 77,
      "hit": false,
      "t": 147588.8169166653,
      "d": 5.296604166680481,
      "v": 52
    },
    {
      "midi": 45,
      "hit": false,
      "t": 147588.8169166653,
      "d": 58.26264583339798,
      "v": 100
    },
    {
      "midi": 57,
      "hit": false,
      "t": 147588.8169166653,
      "d": 58.26264583339798,
      "v": 100
    },
    {
      "midi": 47,
      "hit": false,
      "t": 147610.00333333202,
      "d": 90.04227083339356,
      "v": 100
    },
    {
      "midi": 59,
      "hit": false,
      "t": 147610.00333333202,
      "d": 90.04227083339356,
      "v": 100
    },
    {
      "midi": 45,
      "hit": false,
      "t": 147673.56258333204,
      "d": 68.85585416672984,
      "v": 100
    },
    {
      "midi": 57,
      "hit": false,
      "t": 147673.56258333204,
      "d": 68.85585416672984,
      "v": 100
    },
    {
      "midi": 98,
      "hit": false,
      "t": 147689.45239583205,
      "d": 10.593208333360963,
      "v": 117
    },
    {
      "midi": 102,
      "hit": false,
      "t": 147689.45239583205,
      "d": 10.593208333360963,
      "v": 82
    },
    {
      "midi": 105,
      "hit": false,
      "t": 147689.45239583205,
      "d": 10.593208333360963,
      "v": 92
    },
    {
      "midi": 42,
      "hit": false,
      "t": 147694.74899999873,
      "d": 5.296604166680481,
      "v": 102
    },
    {
      "midi": 61,
      "hit": false,
      "t": 147694.74899999873,
      "d": 5.296604166680481,
      "v": 74
    },
    {
      "midi": 77,
      "hit": false,
      "t": 147694.74899999873,
      "d": 5.296604166680481,
      "v": 14
    },
    {
      "midi": 82,
      "hit": false,
      "t": 147694.74899999873,
      "d": 5.296604166680481,
      "v": 9
    },
    {
      "midi": 74,
      "hit": false,
      "t": 147694.74899999873,
      "d": 31.77962500002468,
      "v": 99
    },
    {
      "midi": 43,
      "hit": false,
      "t": 147694.74899999873,
      "d": 63.55925000004936,
      "v": 100
    },
    {
      "midi": 55,
      "hit": false,
      "t": 147694.74899999873,
      "d": 63.55925000004936,
      "v": 100
    },
    {
      "midi": 69,
      "hit": false,
      "t": 147705.3422083321,
      "d": 52.9660416666884,
      "v": 95
    },
    {
      "midi": 41,
      "hit": false,
      "t": 147705.3422083321,
      "d": 79.4490625000617,
      "v": 100
    },
    {
      "midi": 53,
      "hit": false,
      "t": 147705.3422083321,
      "d": 79.4490625000617,
      "v": 100
    },
    {
      "midi": 40,
      "hit": false,
      "t": 147726.52862499875,
      "d": 63.559250000078464,
      "v": 100
    },
    {
      "midi": 52,
      "hit": false,
      "t": 147726.52862499875,
      "d": 63.559250000078464,
      "v": 100
    },
    {
      "midi": 50,
      "hit": false,
      "t": 147747.71504166545,
      "d": 26.4830208333442,
      "v": 100
    },
    {
      "midi": 38,
      "hit": false,
      "t": 147747.71504166545,
      "d": 52.9660416667175,
      "v": 100
    },
    {
      "midi": 36,
      "hit": false,
      "t": 147758.30824999878,
      "d": 74.15245833341032,
      "v": 100
    },
    {
      "midi": 48,
      "hit": false,
      "t": 147758.30824999878,
      "d": 74.15245833341032,
      "v": 100
    },
    {
      "midi": 35,
      "hit": false,
      "t": 147779.49466666547,
      "d": 52.9660416667175,
      "v": 100
    },
    {
      "midi": 47,
      "hit": false,
      "t": 147779.49466666547,
      "d": 52.9660416667175,
      "v": 100
    },
    {
      "midi": 33,
      "hit": false,
      "t": 147800.68108333217,
      "d": 68.85585416675895,
      "v": 100
    },
    {
      "midi": 45,
      "hit": false,
      "t": 147800.68108333217,
      "d": 68.85585416675895,
      "v": 100
    },
    {
      "midi": 69,
      "hit": false,
      "t": 147811.2742916655,
      "d": 84.74566666680039,
      "v": 93
    },
    {
      "midi": 82,
      "hit": false,
      "t": 147821.86749999883,
      "d": 5.296604166680481,
      "v": 36
    },
    {
      "midi": 74,
      "hit": false,
      "t": 147821.86749999883,
      "d": 31.779625000082888,
      "v": 48
    },
    {
      "midi": 31,
      "hit": false,
      "t": 147821.86749999883,
      "d": 58.26264583345619,
      "v": 100
    },
    {
      "midi": 43,
      "hit": false,
      "t": 147821.86749999883,
      "d": 58.26264583345619,
      "v": 100
    },
    {
      "midi": 50,
      "hit": false,
      "t": 147821.86749999883,
      "d": 95.33887500013225,
      "v": 65
    },
    {
      "midi": 42,
      "hit": false,
      "t": 147827.1641041655,
      "d": 5.296604166680481,
      "v": 48
    },
    {
      "midi": 61,
      "hit": false,
      "t": 147832.4607083322,
      "d": 5.296604166680481,
      "v": 51
    },
    {
      "midi": 29,
      "hit": false,
      "t": 147832.4607083322,
      "d": 52.96604166677571,
      "v": 100
    },
    {
      "midi": 41,
      "hit": false,
      "t": 147832.4607083322,
      "d": 52.96604166677571,
      "v": 100
    },
    {
      "midi": 77,
      "hit": false,
      "t": 147843.05391666555,
      "d": 5.296604166680481,
      "v": 57
    },
    {
      "midi": 28,
      "hit": false,
      "t": 147853.6471249989,
      "d": 52.9660416667175,
      "v": 100
    },
    {
      "midi": 40,
      "hit": false,
      "t": 147853.6471249989,
      "d": 52.9660416667175,
      "v": 100
    },
    {
      "midi": 38,
      "hit": false,
      "t": 147874.8335416656,
      "d": 52.9660416666884,
      "v": 100
    },
    {
      "midi": 26,
      "hit": false,
      "t": 147874.8335416656,
      "d": 63.559250000020256,
      "v": 100
    },
    {
      "midi": 24,
      "hit": false,
      "t": 147896.0199583323,
      "d": 68.85585416670074,
      "v": 100
    },
    {
      "midi": 36,
      "hit": false,
      "t": 147896.0199583323,
      "d": 68.85585416670074,
      "v": 100
    },
    {
      "midi": 23,
      "hit": false,
      "t": 147906.61316666563,
      "d": 68.85585416672984,
      "v": 100
    },
    {
      "midi": 42,
      "hit": false,
      "t": 147943.6893958323,
      "d": 5.296604166680481,
      "v": 53
    },
    {
      "midi": 40,
      "hit": false,
      "t": 147948.985999999,
      "d": 5.296604166680481,
      "v": 93
    },
    {
      "midi": 60,
      "hit": false,
      "t": 147948.985999999,
      "d": 5.296604166680481,
      "v": 68
    },
    {
      "midi": 77,
      "hit": false,
      "t": 147948.985999999,
      "d": 5.296604166680481,
      "v": 56
    },
    {
      "midi": 82,
      "hit": false,
      "t": 147948.985999999,
      "d": 5.296604166680481,
      "v": 7
    },
    {
      "midi": 35,
      "hit": false,
      "t": 147948.985999999,
      "d": 21.18641666669282,
      "v": 120
    },
    {
      "midi": 74,
      "hit": false,
      "t": 147948.985999999,
      "d": 31.779625000053784,
      "v": 126
    },
    {
      "midi": 86,
      "hit": false,
      "t": 147948.985999999,
      "d": 74.15245833338122,
      "v": 109
    },
    {
      "midi": 78,
      "hit": false,
      "t": 147948.985999999,
      "d": 95.33887500004494,
      "v": 104
    },
    {
      "midi": 52,
      "hit": false,
      "t": 147948.985999999,
      "d": 105.9320833333768,
      "v": 65
    },
    {
      "midi": 21,
      "hit": false,
      "t": 147948.985999999,
      "d": 238.3471875001269,
      "v": 100
    },
    {
      "midi": 33,
      "hit": false,
      "t": 147948.985999999,
      "d": 238.3471875001269,
      "v": 100
    },
    {
      "midi": 82,
      "hit": false,
      "t": 148076.10449999903,
      "d": 5.296604166680481,
      "v": 1
    },
    {
      "midi": 52,
      "hit": false,
      "t": 148076.10449999903,
      "d": 5.296604166680481,
      "v": 35
    },
    {
      "midi": 74,
      "hit": false,
      "t": 148076.10449999903,
      "d": 31.779625000082888,
      "v": 121
    },
    {
      "midi": 42,
      "hit": false,
      "t": 148081.4011041657,
      "d": 5.296604166680481,
      "v": 45
    },
    {
      "midi": 61,
      "hit": false,
      "t": 148086.6977083324,
      "d": 5.296604166680481,
      "v": 38
    },
    {
      "midi": 77,
      "hit": false,
      "t": 148097.29091666575,
      "d": 5.296604166680481,
      "v": 63
    },
    {
      "midi": 98,
      "hit": false,
      "t": 148197.92639583244,
      "d": 10.593208333360963,
      "v": 104
    },
    {
      "midi": 102,
      "hit": false,
      "t": 148197.92639583244,
      "d": 10.593208333360963,
      "v": 69
    },
    {
      "midi": 105,
      "hit": false,
      "t": 148197.92639583244,
      "d": 10.593208333360963,
      "v": 79
    },
    {
      "midi": 42,
      "hit": false,
      "t": 148203.22299999913,
      "d": 5.296604166680481,
      "v": 102
    },
    {
      "midi": 61,
      "hit": false,
      "t": 148203.22299999913,
      "d": 5.296604166680481,
      "v": 62
    },
    {
      "midi": 77,
      "hit": false,
      "t": 148203.22299999913,
      "d": 5.296604166680481,
      "v": 15
    },
    {
      "midi": 82,
      "hit": false,
      "t": 148203.22299999913,
      "d": 5.296604166680481,
      "v": 9
    },
    {
      "midi": 74,
      "hit": false,
      "t": 148203.22299999913,
      "d": 31.77962500002468,
      "v": 104
    },
    {
      "midi": 95,
      "hit": false,
      "t": 148203.22299999913,
      "d": 79.4490625000326,
      "v": 107
    },
    {
      "midi": 79,
      "hit": false,
      "t": 148203.22299999913,
      "d": 90.04227083336446,
      "v": 90
    },
    {
      "midi": 83,
      "hit": false,
      "t": 148203.22299999913,
      "d": 90.04227083336446,
      "v": 110
    },
    {
      "midi": 54,
      "hit": false,
      "t": 148203.22299999913,
      "d": 227.75397916682414,
      "v": 79
    },
    {
      "midi": 38,
      "hit": false,
      "t": 148330.34149999917,
      "d": 5.296604166680481,
      "v": 40
    },
    {
      "midi": 82,
      "hit": false,
      "t": 148330.34149999917,
      "d": 5.296604166680481,
      "v": 36
    },
    {
      "midi": 74,
      "hit": false,
      "t": 148330.34149999917,
      "d": 31.779625000082888,
      "v": 69
    },
    {
      "midi": 42,
      "hit": false,
      "t": 148335.63810416585,
      "d": 5.296604166680481,
      "v": 48
    },
    {
      "midi": 61,
      "hit": false,
      "t": 148340.93470833253,
      "d": 5.296604166680481,
      "v": 75
    },
    {
      "midi": 77,
      "hit": false,
      "t": 148351.5279166659,
      "d": 5.296604166680481,
      "v": 60
    },
    {
      "midi": 38,
      "hit": false,
      "t": 148372.71433333258,
      "d": 5.296604166680481,
      "v": 40
    },
    {
      "midi": 38,
      "hit": false,
      "t": 148415.08716666594,
      "d": 5.296604166680481,
      "v": 40
    },
    {
      "midi": 42,
      "hit": false,
      "t": 148452.1633958326,
      "d": 5.296604166680481,
      "v": 68
    },
    {
      "midi": 98,
      "hit": false,
      "t": 148452.1633958326,
      "d": 10.593208333360963,
      "v": 94
    },
    {
      "midi": 100,
      "hit": false,
      "t": 148452.1633958326,
      "d": 10.593208333360963,
      "v": 78
    },
    {
      "midi": 105,
      "hit": false,
      "t": 148452.1633958326,
      "d": 10.593208333360963,
      "v": 88
    },
    {
      "midi": 38,
      "hit": false,
      "t": 148457.4599999993,
      "d": 5.296604166680481,
      "v": 40
    },
    {
      "midi": 61,
      "hit": false,
      "t": 148457.4599999993,
      "d": 5.296604166680481,
      "v": 67
    },
    {
      "midi": 77,
      "hit": false,
      "t": 148457.4599999993,
      "d": 5.296604166680481,
      "v": 65
    },
    {
      "midi": 82,
      "hit": false,
      "t": 148457.4599999993,
      "d": 5.296604166680481,
      "v": 7
    },
    {
      "midi": 74,
      "hit": false,
      "t": 148457.4599999993,
      "d": 31.77962500002468,
      "v": 98
    },
    {
      "midi": 93,
      "hit": false,
      "t": 148457.4599999993,
      "d": 397.2453125002212,
      "v": 96
    },
    {
      "midi": 78,
      "hit": false,
      "t": 148457.4599999993,
      "d": 503.177395833598,
      "v": 90
    },
    {
      "midi": 81,
      "hit": false,
      "t": 148457.4599999993,
      "d": 503.177395833598,
      "v": 110
    },
    {
      "midi": 35,
      "hit": false,
      "t": 148468.05320833265,
      "d": 63.55924999999115,
      "v": 80
    },
    {
      "midi": 47,
      "hit": false,
      "t": 148468.05320833265,
      "d": 127.11850000004051,
      "v": 64
    },
    {
      "midi": 23,
      "hit": false,
      "t": 148468.05320833265,
      "d": 238.3471875000978,
      "v": 100
    },
    {
      "midi": 98,
      "hit": false,
      "t": 148579.28189583265,
      "d": 10.593208333360963,
      "v": 70
    },
    {
      "midi": 100,
      "hit": false,
      "t": 148579.28189583265,
      "d": 10.593208333360963,
      "v": 54
    },
    {
      "midi": 105,
      "hit": false,
      "t": 148579.28189583265,
      "d": 10.593208333360963,
      "v": 64
    },
    {
      "midi": 82,
      "hit": false,
      "t": 148584.57849999933,
      "d": 5.296604166680481,
      "v": 1
    },
    {
      "midi": 74,
      "hit": false,
      "t": 148584.57849999933,
      "d": 31.779625000082888,
      "v": 81
    },
    {
      "midi": 42,
      "hit": false,
      "t": 148589.875104166,
      "d": 5.296604166680481,
      "v": 47
    },
    {
      "midi": 61,
      "hit": false,
      "t": 148595.1717083327,
      "d": 5.296604166680481,
      "v": 65
    },
    {
      "midi": 77,
      "hit": false,
      "t": 148605.76491666606,
      "d": 5.296604166680481,
      "v": 64
    },
    {
      "midi": 42,
      "hit": false,
      "t": 148711.69699999943,
      "d": 5.296604166680481,
      "v": 87
    },
    {
      "midi": 61,
      "hit": false,
      "t": 148711.69699999943,
      "d": 5.296604166680481,
      "v": 74
    },
    {
      "midi": 77,
      "hit": false,
      "t": 148711.69699999943,
      "d": 5.296604166680481,
      "v": 13
    },
    {
      "midi": 82,
      "hit": false,
      "t": 148711.69699999943,
      "d": 5.296604166680481,
      "v": 9
    },
    {
      "midi": 74,
      "hit": false,
      "t": 148711.69699999943,
      "d": 31.77962500002468,
      "v": 104
    },
    {
      "midi": 47,
      "hit": false,
      "t": 148722.2902083328,
      "d": 127.11850000004051,
      "v": 64
    },
    {
      "midi": 35,
      "hit": false,
      "t": 148722.2902083328,
      "d": 233.0505833334173,
      "v": 80
    },
    {
      "midi": 23,
      "hit": false,
      "t": 148722.2902083328,
      "d": 238.3471875000978,
      "v": 100
    },
    {
      "midi": 98,
      "hit": false,
      "t": 148833.5188958328,
      "d": 10.593208333360963,
      "v": 97
    },
    {
      "midi": 100,
      "hit": false,
      "t": 148833.5188958328,
      "d": 10.593208333360963,
      "v": 81
    },
    {
      "midi": 105,
      "hit": false,
      "t": 148833.5188958328,
      "d": 10.593208333360963,
      "v": 91
    },
    {
      "midi": 82,
      "hit": false,
      "t": 148838.81549999947,
      "d": 5.296604166680481,
      "v": 36
    },
    {
      "midi": 74,
      "hit": false,
      "t": 148838.81549999947,
      "d": 31.779625000082888,
      "v": 49
    },
    {
      "midi": 42,
      "hit": false,
      "t": 148844.11210416615,
      "d": 5.296604166680481,
      "v": 48
    },
    {
      "midi": 61,
      "hit": false,
      "t": 148849.40870833283,
      "d": 5.296604166680481,
      "v": 44
    },
    {
      "midi": 77,
      "hit": false,
      "t": 148860.0019166662,
      "d": 5.296604166680481,
      "v": 59
    },
    {
      "midi": 42,
      "hit": false,
      "t": 148960.6373958329,
      "d": 5.296604166680481,
      "v": 77
    },
    {
      "midi": 40,
      "hit": false,
      "t": 148965.93399999957,
      "d": 5.296604166680481,
      "v": 93
    },
    {
      "midi": 60,
      "hit": false,
      "t": 148965.93399999957,
      "d": 5.296604166680481,
      "v": 68
    },
    {
      "midi": 77,
      "hit": false,
      "t": 148965.93399999957,
      "d": 5.296604166680481,
      "v": 57
    },
    {
      "midi": 82,
      "hit": false,
      "t": 148965.93399999957,
      "d": 5.296604166680481,
      "v": 7
    },
    {
      "midi": 74,
      "hit": false,
      "t": 148965.93399999957,
      "d": 31.77962500002468,
      "v": 108
    },
    {
      "midi": 35,
      "hit": false,
      "t": 148965.93399999957,
      "d": 74.15245833335212,
      "v": 120
    },
    {
      "midi": 79,
      "hit": false,
      "t": 148965.93399999957,
      "d": 291.3132291668153,
      "v": 107
    },
    {
      "midi": 83,
      "hit": false,
      "t": 148965.93399999957,
      "d": 291.3132291668153,
      "v": 127
    },
    {
      "midi": 95,
      "hit": false,
      "t": 148965.93399999957,
      "d": 376.05889583349926,
      "v": 104
    },
    {
      "midi": 49,
      "hit": false,
      "t": 148976.52720833293,
      "d": 116.52529166665045,
      "v": 65
    },
    {
      "midi": 37,
      "hit": false,
      "t": 148976.52720833293,
      "d": 360.1690833334578,
      "v": 80
    },
    {
      "midi": 25,
      "hit": false,
      "t": 148976.52720833293,
      "d": 365.4656875001383,
      "v": 100
    },
    {
      "midi": 82,
      "hit": false,
      "t": 149093.05249999958,
      "d": 5.296604166680481,
      "v": 1
    },
    {
      "midi": 74,
      "hit": false,
      "t": 149093.05249999958,
      "d": 31.779625000082888,
      "v": 98
    },
    {
      "midi": 42,
      "hit": false,
      "t": 149098.34910416626,
      "d": 5.296604166680481,
      "v": 53
    },
    {
      "midi": 61,
      "hit": false,
      "t": 149103.64570833294,
      "d": 5.296604166680481,
      "v": 38
    },
    {
      "midi": 77,
      "hit": false,
      "t": 149114.2389166663,
      "d": 5.296604166680481,
      "v": 60
    },
    {
      "midi": 98,
      "hit": false,
      "t": 149214.874395833,
      "d": 10.593208333360963,
      "v": 105
    },
    {
      "midi": 102,
      "hit": false,
      "t": 149214.874395833,
      "d": 10.593208333360963,
      "v": 70
    },
    {
      "midi": 105,
      "hit": false,
      "t": 149214.874395833,
      "d": 10.593208333360963,
      "v": 80
    },
    {
      "midi": 42,
      "hit": false,
      "t": 149220.17099999968,
      "d": 5.296604166680481,
      "v": 79
    },
    {
      "midi": 61,
      "hit": false,
      "t": 149220.17099999968,
      "d": 5.296604166680481,
      "v": 71
    },
    {
      "midi": 77,
      "hit": false,
      "t": 149220.17099999968,
      "d": 5.296604166680481,
      "v": 13
    },
    {
      "midi": 82,
      "hit": false,
      "t": 149220.17099999968,
      "d": 5.296604166680481,
      "v": 9
    },
    {
      "midi": 74,
      "hit": false,
      "t": 149220.17099999968,
      "d": 31.77962500002468,
      "v": 104
    },
    {
      "midi": 49,
      "hit": false,
      "t": 149230.76420833304,
      "d": 116.52529166670865,
      "v": 65
    },
    {
      "midi": 40,
      "hit": false,
      "t": 149347.28949999975,
      "d": 5.296604166680481,
      "v": 93
    },
    {
      "midi": 42,
      "hit": false,
      "t": 149347.28949999975,
      "d": 5.296604166680481,
      "v": 79
    },
    {
      "midi": 82,
      "hit": false,
      "t": 149347.28949999975,
      "d": 5.296604166680481,
      "v": 36
    },
    {
      "midi": 74,
      "hit": false,
      "t": 149347.28949999975,
      "d": 31.779625000082888,
      "v": 84
    },
    {
      "midi": 69,
      "hit": false,
      "t": 149347.28949999975,
      "d": 121.82189583341824,
      "v": 106
    },
    {
      "midi": 61,
      "hit": false,
      "t": 149357.8827083331,
      "d": 5.296604166680481,
      "v": 69
    },
    {
      "midi": 86,
      "hit": false,
      "t": 149357.8827083331,
      "d": 105.9320833333768,
      "v": 98
    },
    {
      "midi": 38,
      "hit": false,
      "t": 149357.8827083331,
      "d": 105.9320833333768,
      "v": 80
    },
    {
      "midi": 26,
      "hit": false,
      "t": 149357.8827083331,
      "d": 111.22868750005728,
      "v": 100
    },
    {
      "midi": 77,
      "hit": false,
      "t": 149368.47591666647,
      "d": 5.296604166680481,
      "v": 50
    },
    {
      "midi": 50,
      "hit": false,
      "t": 149379.06912499983,
      "d": 74.15245833332301,
      "v": 113
    },
    {
      "midi": 62,
      "hit": false,
      "t": 149379.06912499983,
      "d": 100.63547916669631,
      "v": 113
    },
    {
      "midi": 42,
      "hit": false,
      "t": 149469.11139583317,
      "d": 5.296604166680481,
      "v": 53
    },
    {
      "midi": 61,
      "hit": false,
      "t": 149474.40799999985,
      "d": 5.296604166680481,
      "v": 67
    },
    {
      "midi": 77,
      "hit": false,
      "t": 149474.40799999985,
      "d": 5.296604166680481,
      "v": 58
    },
    {
      "midi": 82,
      "hit": false,
      "t": 149474.40799999985,
      "d": 5.296604166680481,
      "v": 7
    },
    {
      "midi": 74,
      "hit": false,
      "t": 149474.40799999985,
      "d": 31.77962500002468,
      "v": 110
    },
    {
      "midi": 35,
      "hit": false,
      "t": 149474.40799999985,
      "d": 74.15245833335212,
      "v": 120
    },
    {
      "midi": 82,
      "hit": false,
      "t": 149601.52649999986,
      "d": 5.296604166680481,
      "v": 1
    },
    {
      "midi": 74,
      "hit": false,
      "t": 149601.52649999986,
      "d": 31.779625000082888,
      "v": 93
    },
    {
      "midi": 38,
      "hit": false,
      "t": 149601.52649999986,
      "d": 243.64379166680737,
      "v": 89
    },
    {
      "midi": 26,
      "hit": false,
      "t": 149601.52649999986,
      "d": 248.94039583348786,
      "v": 109
    },
    {
      "midi": 42,
      "hit": false,
      "t": 149606.82310416654,
      "d": 5.296604166680481,
      "v": 45
    },
    {
      "midi": 61,
      "hit": false,
      "t": 149612.11970833322,
      "d": 5.296604166680481,
      "v": 65
    },
    {
      "midi": 86,
      "hit": false,
      "t": 149612.11970833322,
      "d": 68.85585416672984,
      "v": 107
    },
    {
      "midi": 77,
      "hit": false,
      "t": 149622.71291666658,
      "d": 5.296604166680481,
      "v": 52
    },
    {
      "midi": 50,
      "hit": false,
      "t": 149633.30612499994,
      "d": 68.85585416667163,
      "v": 113
    },
    {
      "midi": 62,
      "hit": false,
      "t": 149633.30612499994,
      "d": 68.85585416667163,
      "v": 113
    },
    {
      "midi": 98,
      "hit": false,
      "t": 149723.34839583328,
      "d": 10.593208333360963,
      "v": 117
    },
    {
      "midi": 102,
      "hit": false,
      "t": 149723.34839583328,
      "d": 10.593208333360963,
      "v": 82
    },
    {
      "midi": 105,
      "hit": false,
      "t": 149723.34839583328,
      "d": 10.593208333360963,
      "v": 92
    },
    {
      "midi": 42,
      "hit": false,
      "t": 149728.64499999996,
      "d": 5.296604166680481,
      "v": 102
    },
    {
      "midi": 61,
      "hit": false,
      "t": 149728.64499999996,
      "d": 5.296604166680481,
      "v": 74
    },
    {
      "midi": 77,
      "hit": false,
      "t": 149728.64499999996,
      "d": 5.296604166680481,
      "v": 14
    },
    {
      "midi": 82,
      "hit": false,
      "t": 149728.64499999996,
      "d": 5.296604166680481,
      "v": 9
    },
    {
      "midi": 74,
      "hit": false,
      "t": 149728.64499999996,
      "d": 31.77962500002468,
      "v": 99
    },
    {
      "midi": 69,
      "hit": false,
      "t": 149728.64499999996,
      "d": 248.94039583354606,
      "v": 85
    },
    {
      "midi": 82,
      "hit": false,
      "t": 149855.76350000003,
      "d": 5.296604166680481,
      "v": 36
    },
    {
      "midi": 74,
      "hit": false,
      "t": 149855.76350000003,
      "d": 31.779625000082888,
      "v": 48
    },
    {
      "midi": 50,
      "hit": false,
      "t": 149855.76350000003,
      "d": 79.4490625000908,
      "v": 65
    },
    {
      "midi": 62,
      "hit": false,
      "t": 149855.76350000003,
      "d": 79.4490625000908,
      "v": 100
    },
    {
      "midi": 38,
      "hit": false,
      "t": 149855.76350000003,
      "d": 100.63547916678363,
      "v": 80
    },
    {
      "midi": 26,
      "hit": false,
      "t": 149855.76350000003,
      "d": 105.9320833334641,
      "v": 100
    },
    {
      "midi": 42,
      "hit": false,
      "t": 149861.0601041667,
      "d": 5.296604166680481,
      "v": 48
    },
    {
      "midi": 61,
      "hit": false,
      "t": 149866.3567083334,
      "d": 5.296604166680481,
      "v": 51
    },
    {
      "midi": 86,
      "hit": false,
      "t": 149866.3567083334,
      "d": 63.55925000004936,
      "v": 111
    },
    {
      "midi": 77,
      "hit": false,
      "t": 149876.94991666675,
      "d": 5.296604166680481,
      "v": 57
    },
    {
      "midi": 94,
      "hit": false,
      "t": 149961.6955833335,
      "d": 26.483020833373303,
      "v": 95
    },
    {
      "midi": 42,
      "hit": false,
      "t": 149977.5853958335,
      "d": 5.296604166680481,
      "v": 53
    },
    {
      "midi": 40,
      "hit": false,
      "t": 149982.8820000002,
      "d": 5.296604166680481,
      "v": 93
    },
    {
      "midi": 60,
      "hit": false,
      "t": 149982.8820000002,
      "d": 5.296604166680481,
      "v": 68
    },
    {
      "midi": 77,
      "hit": false,
      "t": 149982.8820000002,
      "d": 5.296604166680481,
      "v": 56
    },
    {
      "midi": 82,
      "hit": false,
      "t": 149982.8820000002,
      "d": 5.296604166680481,
      "v": 7
    },
    {
      "midi": 74,
      "hit": false,
      "t": 149982.8820000002,
      "d": 31.77962500002468,
      "v": 126
    },
    {
      "midi": 35,
      "hit": false,
      "t": 149982.8820000002,
      "d": 74.15245833338122,
      "v": 120
    },
    {
      "midi": 52,
      "hit": false,
      "t": 149982.8820000002,
      "d": 105.9320833333768,
      "v": 65
    },
    {
      "midi": 28,
      "hit": false,
      "t": 149982.8820000002,
      "d": 248.94039583345875,
      "v": 100
    },
    {
      "midi": 79,
      "hit": false,
      "t": 149982.8820000002,
      "d": 513.770604166988,
      "v": 91
    },
    {
      "midi": 58,
      "hit": false,
      "t": 149993.47520833355,
      "d": 26.4830208333442,
      "v": 113
    },
    {
      "midi": 70,
      "hit": false,
      "t": 149993.47520833355,
      "d": 26.4830208333442,
      "v": 113
    },
    {
      "midi": 59,
      "hit": false,
      "t": 149993.47520833355,
      "d": 376.05889583349926,
      "v": 67
    },
    {
      "midi": 71,
      "hit": false,
      "t": 149993.47520833355,
      "d": 376.05889583349926,
      "v": 67
    },
    {
      "midi": 95,
      "hit": false,
      "t": 149993.47520833355,
      "d": 434.32154166689725,
      "v": 105
    },
    {
      "midi": 83,
      "hit": false,
      "t": 150046.44125000024,
      "d": 195.97435416677035,
      "v": 108
    },
    {
      "midi": 82,
      "hit": false,
      "t": 150110.00050000023,
      "d": 5.296604166680481,
      "v": 1
    },
    {
      "midi": 52,
      "hit": false,
      "t": 150110.00050000023,
      "d": 5.296604166680481,
      "v": 35
    },
    {
      "midi": 74,
      "hit": false,
      "t": 150110.00050000023,
      "d": 31.779625000082888,
      "v": 121
    },
    {
      "midi": 42,
      "hit": false,
      "t": 150115.2971041669,
      "d": 5.296604166680481,
      "v": 45
    },
    {
      "midi": 61,
      "hit": false,
      "t": 150120.5937083336,
      "d": 5.296604166680481,
      "v": 38
    },
    {
      "midi": 77,
      "hit": false,
      "t": 150131.18691666695,
      "d": 5.296604166680481,
      "v": 63
    },
    {
      "midi": 98,
      "hit": false,
      "t": 150231.82239583365,
      "d": 10.593208333360963,
      "v": 104
    },
    {
      "midi": 102,
      "hit": false,
      "t": 150231.82239583365,
      "d": 10.593208333360963,
      "v": 69
    },
    {
      "midi": 105,
      "hit": false,
      "t": 150231.82239583365,
      "d": 10.593208333360963,
      "v": 79
    },
    {
      "midi": 42,
      "hit": false,
      "t": 150237.11900000033,
      "d": 5.296604166680481,
      "v": 102
    },
    {
      "midi": 61,
      "hit": false,
      "t": 150237.11900000033,
      "d": 5.296604166680481,
      "v": 62
    },
    {
      "midi": 77,
      "hit": false,
      "t": 150237.11900000033,
      "d": 5.296604166680481,
      "v": 15
    },
    {
      "midi": 82,
      "hit": false,
      "t": 150237.11900000033,
      "d": 5.296604166680481,
      "v": 9
    },
    {
      "midi": 74,
      "hit": false,
      "t": 150237.11900000033,
      "d": 31.77962500002468,
      "v": 104
    },
    {
      "midi": 30,
      "hit": false,
      "t": 150237.11900000033,
      "d": 90.04227083336446,
      "v": 100
    },
    {
      "midi": 54,
      "hit": false,
      "t": 150237.11900000033,
      "d": 217.16077083346318,
      "v": 86
    },
    {
      "midi": 82,
      "hit": false,
      "t": 150364.23750000037,
      "d": 5.296604166680481,
      "v": 36
    },
    {
      "midi": 74,
      "hit": false,
      "t": 150364.23750000037,
      "d": 31.779625000082888,
      "v": 69
    },
    {
      "midi": 42,
      "hit": false,
      "t": 150369.53410416705,
      "d": 5.296604166680481,
      "v": 48
    },
    {
      "midi": 61,
      "hit": false,
      "t": 150374.83070833373,
      "d": 5.296604166680481,
      "v": 75
    },
    {
      "midi": 77,
      "hit": false,
      "t": 150385.4239166671,
      "d": 5.296604166680481,
      "v": 60
    },
    {
      "midi": 56,
      "hit": false,
      "t": 150480.76279166713,
      "d": 21.186416666721925,
      "v": 113
    },
    {
      "midi": 68,
      "hit": false,
      "t": 150480.76279166713,
      "d": 21.186416666721925,
      "v": 113
    },
    {
      "midi": 42,
      "hit": false,
      "t": 150486.0593958338,
      "d": 5.296604166680481,
      "v": 68
    },
    {
      "midi": 98,
      "hit": false,
      "t": 150486.0593958338,
      "d": 10.593208333360963,
      "v": 94
    },
    {
      "midi": 100,
      "hit": false,
      "t": 150486.0593958338,
      "d": 10.593208333360963,
      "v": 78
    },
    {
      "midi": 105,
      "hit": false,
      "t": 150486.0593958338,
      "d": 10.593208333360963,
      "v": 88
    },
    {
      "midi": 61,
      "hit": false,
      "t": 150491.3560000005,
      "d": 5.296604166680481,
      "v": 67
    },
    {
      "midi": 77,
      "hit": false,
      "t": 150491.3560000005,
      "d": 5.296604166680481,
      "v": 65
    },
    {
      "midi": 82,
      "hit": false,
      "t": 150491.3560000005,
      "d": 5.296604166680481,
      "v": 7
    },
    {
      "midi": 74,
      "hit": false,
      "t": 150491.3560000005,
      "d": 31.77962500002468,
      "v": 110
    },
    {
      "midi": 35,
      "hit": false,
      "t": 150491.3560000005,
      "d": 74.15245833338122,
      "v": 120
    },
    {
      "midi": 47,
      "hit": false,
      "t": 150491.3560000005,
      "d": 180.08454166681622,
      "v": 80
    },
    {
      "midi": 23,
      "hit": false,
      "t": 150491.3560000005,
      "d": 248.94039583348786,
      "v": 100
    },
    {
      "midi": 76,
      "hit": false,
      "t": 150491.3560000005,
      "d": 630.2958958336676,
      "v": 91
    },
    {
      "midi": 93,
      "hit": false,
      "t": 150491.3560000005,
      "d": 715.0415625004389,
      "v": 102
    },
    {
      "midi": 81,
      "hit": false,
      "t": 150501.94920833386,
      "d": 492.5841875002661,
      "v": 127
    },
    {
      "midi": 57,
      "hit": false,
      "t": 150501.94920833386,
      "d": 826.2702500004671,
      "v": 113
    },
    {
      "midi": 69,
      "hit": false,
      "t": 150501.94920833386,
      "d": 826.2702500004671,
      "v": 113
    },
    {
      "midi": 98,
      "hit": false,
      "t": 150613.17789583388,
      "d": 10.593208333360963,
      "v": 70
    },
    {
      "midi": 100,
      "hit": false,
      "t": 150613.17789583388,
      "d": 10.593208333360963,
      "v": 54
    },
    {
      "midi": 105,
      "hit": false,
      "t": 150613.17789583388,
      "d": 10.593208333360963,
      "v": 64
    },
    {
      "midi": 82,
      "hit": false,
      "t": 150618.47450000056,
      "d": 5.296604166680481,
      "v": 1
    },
    {
      "midi": 74,
      "hit": false,
      "t": 150618.47450000056,
      "d": 31.779625000082888,
      "v": 93
    },
    {
      "midi": 42,
      "hit": false,
      "t": 150623.77110416724,
      "d": 5.296604166680481,
      "v": 47
    },
    {
      "midi": 61,
      "hit": false,
      "t": 150629.06770833393,
      "d": 5.296604166680481,
      "v": 65
    },
    {
      "midi": 77,
      "hit": false,
      "t": 150639.6609166673,
      "d": 5.296604166680481,
      "v": 64
    },
    {
      "midi": 42,
      "hit": false,
      "t": 150745.59300000066,
      "d": 5.296604166680481,
      "v": 87
    },
    {
      "midi": 61,
      "hit": false,
      "t": 150745.59300000066,
      "d": 5.296604166680481,
      "v": 74
    },
    {
      "midi": 77,
      "hit": false,
      "t": 150745.59300000066,
      "d": 5.296604166680481,
      "v": 13
    },
    {
      "midi": 82,
      "hit": false,
      "t": 150745.59300000066,
      "d": 5.296604166680481,
      "v": 9
    },
    {
      "midi": 47,
      "hit": false,
      "t": 150745.59300000066,
      "d": 180.08454166678712,
      "v": 65
    },
    {
      "midi": 35,
      "hit": false,
      "t": 150745.59300000066,
      "d": 243.64379166677827,
      "v": 80
    },
    {
      "midi": 23,
      "hit": false,
      "t": 150745.59300000066,
      "d": 248.94039583345875,
      "v": 100
    },
    {
      "midi": 62,
      "hit": false,
      "t": 150745.59300000066,
      "d": 248.94039583345875,
      "v": 110
    },
    {
      "midi": 98,
      "hit": false,
      "t": 150867.41489583402,
      "d": 10.593208333360963,
      "v": 97
    },
    {
      "midi": 100,
      "hit": false,
      "t": 150867.41489583402,
      "d": 10.593208333360963,
      "v": 81
    },
    {
      "midi": 105,
      "hit": false,
      "t": 150867.41489583402,
      "d": 10.593208333360963,
      "v": 91
    },
    {
      "midi": 82,
      "hit": false,
      "t": 150872.7115000007,
      "d": 5.296604166680481,
      "v": 36
    },
    {
      "midi": 42,
      "hit": false,
      "t": 150878.00810416738,
      "d": 5.296604166680481,
      "v": 48
    },
    {
      "midi": 61,
      "hit": false,
      "t": 150883.30470833406,
      "d": 5.296604166680481,
      "v": 44
    },
    {
      "midi": 77,
      "hit": false,
      "t": 150893.89791666743,
      "d": 5.296604166680481,
      "v": 59
    },
    {
      "midi": 42,
      "hit": false,
      "t": 150994.53339583412,
      "d": 5.296604166680481,
      "v": 77
    },
    {
      "midi": 40,
      "hit": false,
      "t": 150999.8300000008,
      "d": 5.296604166680481,
      "v": 93
    },
    {
      "midi": 60,
      "hit": false,
      "t": 150999.8300000008,
      "d": 5.296604166680481,
      "v": 68
    },
    {
      "midi": 77,
      "hit": false,
      "t": 150999.8300000008,
      "d": 5.296604166680481,
      "v": 57
    },
    {
      "midi": 82,
      "hit": false,
      "t": 150999.8300000008,
      "d": 5.296604166680481,
      "v": 7
    },
    {
      "midi": 35,
      "hit": false,
      "t": 150999.8300000008,
      "d": 74.15245833335212,
      "v": 120
    },
    {
      "midi": 62,
      "hit": false,
      "t": 150999.8300000008,
      "d": 248.94039583348786,
      "v": 110
    },
    {
      "midi": 45,
      "hit": false,
      "t": 150999.8300000008,
      "d": 328.38945833352045,
      "v": 80
    },
    {
      "midi": 33,
      "hit": false,
      "t": 150999.8300000008,
      "d": 370.7622916668479,
      "v": 80
    },
    {
      "midi": 21,
      "hit": false,
      "t": 150999.8300000008,
      "d": 376.05889583352837,
      "v": 100
    },
    {
      "midi": 82,
      "hit": false,
      "t": 151126.94850000084,
      "d": 5.296604166680481,
      "v": 1
    },
    {
      "midi": 42,
      "hit": false,
      "t": 151132.24510416752,
      "d": 5.296604166680481,
      "v": 53
    },
    {
      "midi": 61,
      "hit": false,
      "t": 151137.5417083342,
      "d": 5.296604166680481,
      "v": 38
    },
    {
      "midi": 77,
      "hit": false,
      "t": 151148.13491666756,
      "d": 5.296604166680481,
      "v": 60
    },
    {
      "midi": 98,
      "hit": false,
      "t": 151248.7703958343,
      "d": 10.593208333360963,
      "v": 105
    },
    {
      "midi": 102,
      "hit": false,
      "t": 151248.7703958343,
      "d": 10.593208333360963,
      "v": 70
    },
    {
      "midi": 105,
      "hit": false,
      "t": 151248.7703958343,
      "d": 10.593208333360963,
      "v": 80
    },
    {
      "midi": 42,
      "hit": false,
      "t": 151254.06700000097,
      "d": 5.296604166680481,
      "v": 79
    },
    {
      "midi": 61,
      "hit": false,
      "t": 151254.06700000097,
      "d": 5.296604166680481,
      "v": 71
    },
    {
      "midi": 77,
      "hit": false,
      "t": 151254.06700000097,
      "d": 5.296604166680481,
      "v": 13
    },
    {
      "midi": 82,
      "hit": false,
      "t": 151254.06700000097,
      "d": 5.296604166680481,
      "v": 9
    },
    {
      "midi": 66,
      "hit": false,
      "t": 151254.06700000097,
      "d": 248.94039583345875,
      "v": 100
    },
    {
      "midi": 42,
      "hit": false,
      "t": 151381.185500001,
      "d": 5.296604166680481,
      "v": 79
    },
    {
      "midi": 82,
      "hit": false,
      "t": 151381.185500001,
      "d": 5.296604166680481,
      "v": 36
    },
    {
      "midi": 50,
      "hit": false,
      "t": 151381.185500001,
      "d": 95.33887500007404,
      "v": 65
    },
    {
      "midi": 38,
      "hit": false,
      "t": 151381.185500001,
      "d": 105.9320833334059,
      "v": 80
    },
    {
      "midi": 26,
      "hit": false,
      "t": 151381.185500001,
      "d": 111.22868750008638,
      "v": 100
    },
    {
      "midi": 61,
      "hit": false,
      "t": 151391.77870833437,
      "d": 5.296604166680481,
      "v": 69
    },
    {
      "midi": 77,
      "hit": false,
      "t": 151402.37191666773,
      "d": 5.296604166680481,
      "v": 50
    },
    {
      "midi": 42,
      "hit": false,
      "t": 151503.00739583443,
      "d": 5.296604166680481,
      "v": 53
    },
    {
      "midi": 61,
      "hit": false,
      "t": 151508.3040000011,
      "d": 5.296604166680481,
      "v": 67
    },
    {
      "midi": 77,
      "hit": false,
      "t": 151508.3040000011,
      "d": 5.296604166680481,
      "v": 58
    },
    {
      "midi": 82,
      "hit": false,
      "t": 151508.3040000011,
      "d": 5.296604166680481,
      "v": 7
    },
    {
      "midi": 74,
      "hit": false,
      "t": 151508.3040000011,
      "d": 31.77962500002468,
      "v": 110
    },
    {
      "midi": 50,
      "hit": false,
      "t": 151508.3040000011,
      "d": 74.15245833335212,
      "v": 104
    },
    {
      "midi": 62,
      "hit": false,
      "t": 151508.3040000011,
      "d": 74.15245833335212,
      "v": 104
    },
    {
      "midi": 35,
      "hit": false,
      "t": 151508.3040000011,
      "d": 74.15245833335212,
      "v": 120
    },
    {
      "midi": 82,
      "hit": false,
      "t": 151635.42250000112,
      "d": 5.296604166680481,
      "v": 1
    },
    {
      "midi": 74,
      "hit": false,
      "t": 151635.42250000112,
      "d": 31.779625000082888,
      "v": 93
    },
    {
      "midi": 76,
      "hit": false,
      "t": 151635.42250000112,
      "d": 79.4490625000908,
      "v": 114
    },
    {
      "midi": 57,
      "hit": false,
      "t": 151635.42250000112,
      "d": 84.74566666677129,
      "v": 91
    },
    {
      "midi": 69,
      "hit": false,
      "t": 151635.42250000112,
      "d": 84.74566666677129,
      "v": 91
    },
    {
      "midi": 50,
      "hit": false,
      "t": 151635.42250000112,
      "d": 206.56756250016042,
      "v": 65
    },
    {
      "midi": 38,
      "hit": false,
      "t": 151635.42250000112,
      "d": 233.05058333353372,
      "v": 80
    },
    {
      "midi": 26,
      "hit": false,
      "t": 151635.42250000112,
      "d": 238.3471875002142,
      "v": 100
    },
    {
      "midi": 42,
      "hit": false,
      "t": 151640.7191041678,
      "d": 5.296604166680481,
      "v": 45
    },
    {
      "midi": 61,
      "hit": false,
      "t": 151646.01570833448,
      "d": 5.296604166680481,
      "v": 65
    },
    {
      "midi": 77,
      "hit": false,
      "t": 151656.60891666784,
      "d": 5.296604166680481,
      "v": 52
    },
    {
      "midi": 98,
      "hit": false,
      "t": 151757.24439583457,
      "d": 10.593208333360963,
      "v": 117
    },
    {
      "midi": 102,
      "hit": false,
      "t": 151757.24439583457,
      "d": 10.593208333360963,
      "v": 82
    },
    {
      "midi": 105,
      "hit": false,
      "t": 151757.24439583457,
      "d": 10.593208333360963,
      "v": 92
    },
    {
      "midi": 42,
      "hit": false,
      "t": 151762.54100000125,
      "d": 5.296604166680481,
      "v": 102
    },
    {
      "midi": 61,
      "hit": false,
      "t": 151762.54100000125,
      "d": 5.296604166680481,
      "v": 74
    },
    {
      "midi": 77,
      "hit": false,
      "t": 151762.54100000125,
      "d": 5.296604166680481,
      "v": 14
    },
    {
      "midi": 82,
      "hit": false,
      "t": 151762.54100000125,
      "d": 5.296604166680481,
      "v": 9
    },
    {
      "midi": 74,
      "hit": false,
      "t": 151762.54100000125,
      "d": 31.77962500002468,
      "v": 99
    },
    {
      "midi": 75,
      "hit": false,
      "t": 151762.54100000125,
      "d": 79.4490625000326,
      "v": 109
    },
    {
      "midi": 57,
      "hit": false,
      "t": 151762.54100000125,
      "d": 100.63547916672542,
      "v": 94
    },
    {
      "midi": 69,
      "hit": false,
      "t": 151762.54100000125,
      "d": 100.63547916672542,
      "v": 94
    },
    {
      "midi": 82,
      "hit": false,
      "t": 151889.65950000135,
      "d": 5.296604166680481,
      "v": 36
    },
    {
      "midi": 74,
      "hit": false,
      "t": 151889.65950000135,
      "d": 31.779625000082888,
      "v": 48
    },
    {
      "midi": 50,
      "hit": false,
      "t": 151889.65950000135,
      "d": 95.33887500010314,
      "v": 65
    },
    {
      "midi": 57,
      "hit": false,
      "t": 151889.65950000135,
      "d": 100.63547916678363,
      "v": 94
    },
    {
      "midi": 69,
      "hit": false,
      "t": 151889.65950000135,
      "d": 100.63547916678363,
      "v": 94
    },
    {
      "midi": 38,
      "hit": false,
      "t": 151889.65950000135,
      "d": 105.9320833334641,
      "v": 80
    },
    {
      "midi": 26,
      "hit": false,
      "t": 151889.65950000135,
      "d": 111.22868750014459,
      "v": 100
    },
    {
      "midi": 42,
      "hit": false,
      "t": 151894.95610416803,
      "d": 5.296604166680481,
      "v": 48
    },
    {
      "midi": 61,
      "hit": false,
      "t": 151900.2527083347,
      "d": 5.296604166680481,
      "v": 51
    },
    {
      "midi": 77,
      "hit": false,
      "t": 151910.84591666807,
      "d": 5.296604166680481,
      "v": 57
    },
    {
      "midi": 42,
      "hit": false,
      "t": 152011.48139583482,
      "d": 5.296604166680481,
      "v": 53
    },
    {
      "midi": 40,
      "hit": false,
      "t": 152016.7780000015,
      "d": 5.296604166680481,
      "v": 93
    },
    {
      "midi": 49,
      "hit": false,
      "t": 152016.7780000015,
      "d": 5.296604166680481,
      "v": 108
    },
    {
      "midi": 60,
      "hit": false,
      "t": 152016.7780000015,
      "d": 5.296604166680481,
      "v": 68
    },
    {
      "midi": 77,
      "hit": false,
      "t": 152016.7780000015,
      "d": 5.296604166680481,
      "v": 56
    },
    {
      "midi": 82,
      "hit": false,
      "t": 152016.7780000015,
      "d": 5.296604166680481,
      "v": 7
    },
    {
      "midi": 74,
      "hit": false,
      "t": 152016.7780000015,
      "d": 31.77962500002468,
      "v": 126
    },
    {
      "midi": 86,
      "hit": false,
      "t": 152016.7780000015,
      "d": 58.26264583336888,
      "v": 108
    },
    {
      "midi": 35,
      "hit": false,
      "t": 152016.7780000015,
      "d": 74.15245833338122,
      "v": 120
    },
    {
      "midi": 78,
      "hit": false,
      "t": 152016.7780000015,
      "d": 95.33887500007404,
      "v": 92
    },
    {
      "midi": 52,
      "hit": false,
      "t": 152016.7780000015,
      "d": 105.9320833334059,
      "v": 82
    },
    {
      "midi": 28,
      "hit": false,
      "t": 152016.7780000015,
      "d": 238.347187500156,
      "v": 100
    },
    {
      "midi": 50,
      "hit": false,
      "t": 152022.07460416819,
      "d": 100.63547916672542,
      "v": 85
    },
    {
      "midi": 62,
      "hit": false,
      "t": 152022.07460416819,
      "d": 100.63547916672542,
      "v": 90
    },
    {
      "midi": 82,
      "hit": false,
      "t": 152143.89650000157,
      "d": 5.296604166680481,
      "v": 1
    },
    {
      "midi": 52,
      "hit": false,
      "t": 152143.89650000157,
      "d": 5.296604166680481,
      "v": 35
    },
    {
      "midi": 74,
      "hit": false,
      "t": 152143.89650000157,
      "d": 31.779625000082888,
      "v": 121
    },
    {
      "midi": 42,
      "hit": false,
      "t": 152149.19310416825,
      "d": 5.296604166680481,
      "v": 45
    },
    {
      "midi": 61,
      "hit": false,
      "t": 152154.48970833494,
      "d": 5.296604166680481,
      "v": 38
    },
    {
      "midi": 77,
      "hit": false,
      "t": 152165.0829166683,
      "d": 5.296604166680481,
      "v": 63
    },
    {
      "midi": 98,
      "hit": false,
      "t": 152265.718395835,
      "d": 10.593208333360963,
      "v": 104
    },
    {
      "midi": 102,
      "hit": false,
      "t": 152265.718395835,
      "d": 10.593208333360963,
      "v": 69
    },
    {
      "midi": 105,
      "hit": false,
      "t": 152265.718395835,
      "d": 10.593208333360963,
      "v": 79
    },
    {
      "midi": 42,
      "hit": false,
      "t": 152271.01500000167,
      "d": 5.296604166680481,
      "v": 102
    },
    {
      "midi": 61,
      "hit": false,
      "t": 152271.01500000167,
      "d": 5.296604166680481,
      "v": 62
    },
    {
      "midi": 77,
      "hit": false,
      "t": 152271.01500000167,
      "d": 5.296604166680481,
      "v": 15
    },
    {
      "midi": 82,
      "hit": false,
      "t": 152271.01500000167,
      "d": 5.296604166680481,
      "v": 9
    },
    {
      "midi": 74,
      "hit": false,
      "t": 152271.01500000167,
      "d": 31.77962500002468,
      "v": 104
    },
    {
      "midi": 95,
      "hit": false,
      "t": 152271.01500000167,
      "d": 68.85585416670074,
      "v": 100
    },
    {
      "midi": 83,
      "hit": false,
      "t": 152271.01500000167,
      "d": 79.4490625000326,
      "v": 112
    },
    {
      "midi": 30,
      "hit": false,
      "t": 152271.01500000167,
      "d": 238.3471875001851,
      "v": 100
    },
    {
      "midi": 79,
      "hit": false,
      "t": 152271.01500000167,
      "d": 248.94039583351696,
      "v": 92
    },
    {
      "midi": 54,
      "hit": false,
      "t": 152281.60820833503,
      "d": 90.04227083333535,
      "v": 85
    },
    {
      "midi": 66,
      "hit": false,
      "t": 152281.60820833503,
      "d": 90.04227083333535,
      "v": 90
    },
    {
      "midi": 38,
      "hit": false,
      "t": 152398.1335000017,
      "d": 5.296604166680481,
      "v": 40
    },
    {
      "midi": 82,
      "hit": false,
      "t": 152398.1335000017,
      "d": 5.296604166680481,
      "v": 36
    },
    {
      "midi": 74,
      "hit": false,
      "t": 152398.1335000017,
      "d": 31.779625000082888,
      "v": 69
    },
    {
      "midi": 42,
      "hit": false,
      "t": 152403.4301041684,
      "d": 5.296604166680481,
      "v": 48
    },
    {
      "midi": 61,
      "hit": false,
      "t": 152408.72670833507,
      "d": 5.296604166680481,
      "v": 75
    },
    {
      "midi": 77,
      "hit": false,
      "t": 152419.31991666844,
      "d": 5.296604166680481,
      "v": 60
    },
    {
      "midi": 38,
      "hit": false,
      "t": 152440.50633333513,
      "d": 5.296604166680481,
      "v": 40
    },
    {
      "midi": 38,
      "hit": false,
      "t": 152482.87916666848,
      "d": 5.296604166680481,
      "v": 40
    },
    {
      "midi": 42,
      "hit": false,
      "t": 152519.9553958352,
      "d": 5.296604166680481,
      "v": 68
    },
    {
      "midi": 98,
      "hit": false,
      "t": 152519.9553958352,
      "d": 10.593208333360963,
      "v": 94
    },
    {
      "midi": 100,
      "hit": false,
      "t": 152519.9553958352,
      "d": 10.593208333360963,
      "v": 78
    },
    {
      "midi": 105,
      "hit": false,
      "t": 152519.9553958352,
      "d": 10.593208333360963,
      "v": 88
    },
    {
      "midi": 38,
      "hit": false,
      "t": 152525.25200000187,
      "d": 5.296604166680481,
      "v": 40
    },
    {
      "midi": 61,
      "hit": false,
      "t": 152525.25200000187,
      "d": 5.296604166680481,
      "v": 67
    },
    {
      "midi": 77,
      "hit": false,
      "t": 152525.25200000187,
      "d": 5.296604166680481,
      "v": 65
    },
    {
      "midi": 82,
      "hit": false,
      "t": 152525.25200000187,
      "d": 5.296604166680481,
      "v": 7
    },
    {
      "midi": 74,
      "hit": false,
      "t": 152525.25200000187,
      "d": 31.779625000053784,
      "v": 98
    },
    {
      "midi": 35,
      "hit": false,
      "t": 152525.25200000187,
      "d": 74.15245833341032,
      "v": 120
    },
    {
      "midi": 78,
      "hit": false,
      "t": 152525.25200000187,
      "d": 503.1773958336562,
      "v": 93
    },
    {
      "midi": 93,
      "hit": false,
      "t": 152525.25200000187,
      "d": 503.1773958336562,
      "v": 99
    },
    {
      "midi": 81,
      "hit": false,
      "t": 152530.54860416855,
      "d": 365.4656875001965,
      "v": 127
    },
    {
      "midi": 45,
      "hit": false,
      "t": 152535.84520833523,
      "d": 158.8981250001525,
      "v": 46
    },
    {
      "midi": 33,
      "hit": false,
      "t": 152535.84520833523,
      "d": 233.05058333347552,
      "v": 80
    },
    {
      "midi": 21,
      "hit": false,
      "t": 152535.84520833523,
      "d": 238.347187500156,
      "v": 100
    },
    {
      "midi": 57,
      "hit": false,
      "t": 152551.73502083524,
      "d": 365.4656875002256,
      "v": 82
    },
    {
      "midi": 69,
      "hit": false,
      "t": 152551.73502083524,
      "d": 365.4656875002256,
      "v": 87
    },
    {
      "midi": 98,
      "hit": false,
      "t": 152647.0738958353,
      "d": 10.593208333360963,
      "v": 70
    },
    {
      "midi": 100,
      "hit": false,
      "t": 152647.0738958353,
      "d": 10.593208333360963,
      "v": 54
    },
    {
      "midi": 105,
      "hit": false,
      "t": 152647.0738958353,
      "d": 10.593208333360963,
      "v": 64
    },
    {
      "midi": 82,
      "hit": false,
      "t": 152652.37050000197,
      "d": 5.296604166680481,
      "v": 1
    },
    {
      "midi": 74,
      "hit": false,
      "t": 152652.37050000197,
      "d": 31.779625000082888,
      "v": 81
    },
    {
      "midi": 42,
      "hit": false,
      "t": 152657.66710416865,
      "d": 5.296604166680481,
      "v": 47
    },
    {
      "midi": 61,
      "hit": false,
      "t": 152662.96370833533,
      "d": 5.296604166680481,
      "v": 65
    },
    {
      "midi": 77,
      "hit": false,
      "t": 152673.5569166687,
      "d": 5.296604166680481,
      "v": 64
    },
    {
      "midi": 42,
      "hit": false,
      "t": 152779.48900000207,
      "d": 5.296604166680481,
      "v": 87
    },
    {
      "midi": 61,
      "hit": false,
      "t": 152779.48900000207,
      "d": 5.296604166680481,
      "v": 74
    },
    {
      "midi": 77,
      "hit": false,
      "t": 152779.48900000207,
      "d": 5.296604166680481,
      "v": 13
    },
    {
      "midi": 82,
      "hit": false,
      "t": 152779.48900000207,
      "d": 5.296604166680481,
      "v": 9
    },
    {
      "midi": 74,
      "hit": false,
      "t": 152779.48900000207,
      "d": 31.77962500002468,
      "v": 104
    },
    {
      "midi": 45,
      "hit": false,
      "t": 152790.08220833543,
      "d": 158.8981250000943,
      "v": 46
    },
    {
      "midi": 33,
      "hit": false,
      "t": 152790.08220833543,
      "d": 233.0505833334173,
      "v": 80
    },
    {
      "midi": 21,
      "hit": false,
      "t": 152790.08220833543,
      "d": 238.3471875000978,
      "v": 100
    },
    {
      "midi": 98,
      "hit": false,
      "t": 152901.31089583543,
      "d": 10.593208333360963,
      "v": 97
    },
    {
      "midi": 100,
      "hit": false,
      "t": 152901.31089583543,
      "d": 10.593208333360963,
      "v": 81
    },
    {
      "midi": 105,
      "hit": false,
      "t": 152901.31089583543,
      "d": 10.593208333360963,
      "v": 91
    },
    {
      "midi": 82,
      "hit": false,
      "t": 152906.6075000021,
      "d": 5.296604166680481,
      "v": 36
    },
    {
      "midi": 74,
      "hit": false,
      "t": 152906.6075000021,
      "d": 31.779625000082888,
      "v": 49
    },
    {
      "midi": 42,
      "hit": false,
      "t": 152911.9041041688,
      "d": 5.296604166680481,
      "v": 48
    },
    {
      "midi": 61,
      "hit": false,
      "t": 152917.20070833547,
      "d": 5.296604166680481,
      "v": 44
    },
    {
      "midi": 77,
      "hit": false,
      "t": 152927.79391666883,
      "d": 5.296604166680481,
      "v": 59
    },
    {
      "midi": 42,
      "hit": false,
      "t": 153028.42939583553,
      "d": 5.296604166680481,
      "v": 77
    },
    {
      "midi": 40,
      "hit": false,
      "t": 153033.7260000022,
      "d": 5.296604166680481,
      "v": 93
    },
    {
      "midi": 60,
      "hit": false,
      "t": 153033.7260000022,
      "d": 5.296604166680481,
      "v": 68
    },
    {
      "midi": 77,
      "hit": false,
      "t": 153033.7260000022,
      "d": 5.296604166680481,
      "v": 57
    },
    {
      "midi": 82,
      "hit": false,
      "t": 153033.7260000022,
      "d": 5.296604166680481,
      "v": 7
    },
    {
      "midi": 74,
      "hit": false,
      "t": 153033.7260000022,
      "d": 31.77962500002468,
      "v": 108
    },
    {
      "midi": 95,
      "hit": false,
      "t": 153033.7260000022,
      "d": 418.431729166914,
      "v": 96
    },
    {
      "midi": 79,
      "hit": false,
      "t": 153033.7260000022,
      "d": 503.177395833598,
      "v": 101
    },
    {
      "midi": 59,
      "hit": false,
      "t": 153039.0226041689,
      "d": 349.57587500012596,
      "v": 85
    },
    {
      "midi": 71,
      "hit": false,
      "t": 153039.0226041689,
      "d": 349.57587500012596,
      "v": 90
    },
    {
      "midi": 35,
      "hit": false,
      "t": 153044.31920833557,
      "d": 63.55924999999115,
      "v": 80
    },
    {
      "midi": 23,
      "hit": false,
      "t": 153044.31920833557,
      "d": 238.34718750006869,
      "v": 100
    },
    {
      "midi": 47,
      "hit": false,
      "t": 153044.31920833557,
      "d": 317.7962500001013,
      "v": 65
    },
    {
      "midi": 83,
      "hit": false,
      "t": 153044.31920833557,
      "d": 391.9487083335116,
      "v": 119
    },
    {
      "midi": 82,
      "hit": false,
      "t": 153160.84450000222,
      "d": 5.296604166680481,
      "v": 1
    },
    {
      "midi": 74,
      "hit": false,
      "t": 153160.84450000222,
      "d": 31.779625000082888,
      "v": 98
    },
    {
      "midi": 42,
      "hit": false,
      "t": 153166.1411041689,
      "d": 5.296604166680481,
      "v": 53
    },
    {
      "midi": 61,
      "hit": false,
      "t": 153171.43770833558,
      "d": 5.296604166680481,
      "v": 38
    },
    {
      "midi": 77,
      "hit": false,
      "t": 153182.03091666894,
      "d": 5.296604166680481,
      "v": 60
    },
    {
      "midi": 98,
      "hit": false,
      "t": 153282.66639583564,
      "d": 10.593208333360963,
      "v": 105
    },
    {
      "midi": 102,
      "hit": false,
      "t": 153282.66639583564,
      "d": 10.593208333360963,
      "v": 70
    },
    {
      "midi": 105,
      "hit": false,
      "t": 153282.66639583564,
      "d": 10.593208333360963,
      "v": 80
    },
    {
      "midi": 42,
      "hit": false,
      "t": 153287.96300000232,
      "d": 5.296604166680481,
      "v": 79
    },
    {
      "midi": 61,
      "hit": false,
      "t": 153287.96300000232,
      "d": 5.296604166680481,
      "v": 71
    },
    {
      "midi": 77,
      "hit": false,
      "t": 153287.96300000232,
      "d": 5.296604166680481,
      "v": 13
    },
    {
      "midi": 82,
      "hit": false,
      "t": 153287.96300000232,
      "d": 5.296604166680481,
      "v": 9
    },
    {
      "midi": 74,
      "hit": false,
      "t": 153287.96300000232,
      "d": 31.77962500002468,
      "v": 104
    },
    {
      "midi": 40,
      "hit": false,
      "t": 153415.08150000236,
      "d": 5.296604166680481,
      "v": 93
    },
    {
      "midi": 42,
      "hit": false,
      "t": 153415.08150000236,
      "d": 5.296604166680481,
      "v": 79
    },
    {
      "midi": 82,
      "hit": false,
      "t": 153415.08150000236,
      "d": 5.296604166680481,
      "v": 36
    },
    {
      "midi": 74,
      "hit": false,
      "t": 153415.08150000236,
      "d": 31.779625000082888,
      "v": 84
    },
    {
      "midi": 50,
      "hit": false,
      "t": 153415.08150000236,
      "d": 105.932083333435,
      "v": 74
    },
    {
      "midi": 38,
      "hit": false,
      "t": 153415.08150000236,
      "d": 116.52529166676686,
      "v": 89
    },
    {
      "midi": 26,
      "hit": false,
      "t": 153415.08150000236,
      "d": 121.82189583344734,
      "v": 109
    },
    {
      "midi": 61,
      "hit": false,
      "t": 153425.67470833572,
      "d": 5.296604166680481,
      "v": 69
    },
    {
      "midi": 77,
      "hit": false,
      "t": 153436.26791666908,
      "d": 5.296604166680481,
      "v": 50
    },
    {
      "midi": 42,
      "hit": false,
      "t": 153536.9033958358,
      "d": 5.296604166680481,
      "v": 53
    },
    {
      "midi": 61,
      "hit": false,
      "t": 153542.2000000025,
      "d": 5.296604166680481,
      "v": 67
    },
    {
      "midi": 77,
      "hit": false,
      "t": 153542.2000000025,
      "d": 5.296604166680481,
      "v": 58
    },
    {
      "midi": 82,
      "hit": false,
      "t": 153542.2000000025,
      "d": 5.296604166680481,
      "v": 7
    },
    {
      "midi": 74,
      "hit": false,
      "t": 153542.2000000025,
      "d": 31.77962500002468,
      "v": 110
    },
    {
      "midi": 35,
      "hit": false,
      "t": 153542.2000000025,
      "d": 74.15245833335212,
      "v": 120
    },
    {
      "midi": 82,
      "hit": false,
      "t": 153669.3185000025,
      "d": 5.296604166680481,
      "v": 1
    },
    {
      "midi": 74,
      "hit": false,
      "t": 153669.3185000025,
      "d": 31.779625000082888,
      "v": 93
    },
    {
      "midi": 50,
      "hit": false,
      "t": 153669.3185000025,
      "d": 217.16077083346318,
      "v": 74
    },
    {
      "midi": 38,
      "hit": false,
      "t": 153669.3185000025,
      "d": 243.64379166680737,
      "v": 89
    },
    {
      "midi": 26,
      "hit": false,
      "t": 153669.3185000025,
      "d": 248.94039583348786,
      "v": 109
    },
    {
      "midi": 42,
      "hit": false,
      "t": 153674.61510416918,
      "d": 5.296604166680481,
      "v": 45
    },
    {
      "midi": 61,
      "hit": false,
      "t": 153679.91170833586,
      "d": 5.296604166680481,
      "v": 65
    },
    {
      "midi": 77,
      "hit": false,
      "t": 153690.50491666922,
      "d": 5.296604166680481,
      "v": 52
    },
    {
      "midi": 98,
      "hit": false,
      "t": 153791.14039583592,
      "d": 10.593208333360963,
      "v": 117
    },
    {
      "midi": 102,
      "hit": false,
      "t": 153791.14039583592,
      "d": 10.593208333360963,
      "v": 82
    },
    {
      "midi": 105,
      "hit": false,
      "t": 153791.14039583592,
      "d": 10.593208333360963,
      "v": 92
    },
    {
      "midi": 42,
      "hit": false,
      "t": 153796.4370000026,
      "d": 5.296604166680481,
      "v": 102
    },
    {
      "midi": 61,
      "hit": false,
      "t": 153796.4370000026,
      "d": 5.296604166680481,
      "v": 74
    },
    {
      "midi": 77,
      "hit": false,
      "t": 153796.4370000026,
      "d": 5.296604166680481,
      "v": 14
    },
    {
      "midi": 82,
      "hit": false,
      "t": 153796.4370000026,
      "d": 5.296604166680481,
      "v": 9
    },
    {
      "midi": 74,
      "hit": false,
      "t": 153796.4370000026,
      "d": 31.77962500002468,
      "v": 99
    },
    {
      "midi": 81,
      "hit": false,
      "t": 153796.4370000026,
      "d": 68.85585416670074,
      "v": 121
    },
    {
      "midi": 93,
      "hit": false,
      "t": 153796.4370000026,
      "d": 243.64379166686558,
      "v": 106
    },
    {
      "midi": 82,
      "hit": false,
      "t": 153923.55550000267,
      "d": 5.296604166680481,
      "v": 36
    },
    {
      "midi": 74,
      "hit": false,
      "t": 153923.55550000267,
      "d": 31.779625000082888,
      "v": 48
    },
    {
      "midi": 50,
      "hit": false,
      "t": 153923.55550000267,
      "d": 90.04227083342266,
      "v": 65
    },
    {
      "midi": 38,
      "hit": false,
      "t": 153923.55550000267,
      "d": 100.63547916678363,
      "v": 80
    },
    {
      "midi": 26,
      "hit": false,
      "t": 153923.55550000267,
      "d": 105.9320833334641,
      "v": 100
    },
    {
      "midi": 81,
      "hit": false,
      "t": 153923.55550000267,
      "d": 121.82189583347645,
      "v": 101
    },
    {
      "midi": 42,
      "hit": false,
      "t": 153928.85210416935,
      "d": 5.296604166680481,
      "v": 48
    },
    {
      "midi": 61,
      "hit": false,
      "t": 153934.14870833603,
      "d": 5.296604166680481,
      "v": 51
    },
    {
      "midi": 77,
      "hit": false,
      "t": 153944.7419166694,
      "d": 5.296604166680481,
      "v": 57
    },
    {
      "midi": 42,
      "hit": false,
      "t": 154045.37739583614,
      "d": 5.296604166680481,
      "v": 53
    },
    {
      "midi": 40,
      "hit": false,
      "t": 154050.67400000282,
      "d": 5.296604166680481,
      "v": 93
    },
    {
      "midi": 60,
      "hit": false,
      "t": 154050.67400000282,
      "d": 5.296604166680481,
      "v": 68
    },
    {
      "midi": 77,
      "hit": false,
      "t": 154050.67400000282,
      "d": 5.296604166680481,
      "v": 56
    },
    {
      "midi": 82,
      "hit": false,
      "t": 154050.67400000282,
      "d": 5.296604166680481,
      "v": 7
    },
    {
      "midi": 74,
      "hit": false,
      "t": 154050.67400000282,
      "d": 31.77962500002468,
      "v": 126
    },
    {
      "midi": 35,
      "hit": false,
      "t": 154050.67400000282,
      "d": 74.15245833335212,
      "v": 120
    },
    {
      "midi": 95,
      "hit": false,
      "t": 154050.67400000282,
      "d": 105.9320833333768,
      "v": 108
    },
    {
      "midi": 52,
      "hit": false,
      "t": 154050.67400000282,
      "d": 105.9320833333768,
      "v": 65
    },
    {
      "midi": 28,
      "hit": false,
      "t": 154050.67400000282,
      "d": 248.94039583348786,
      "v": 100
    },
    {
      "midi": 81,
      "hit": false,
      "t": 154050.67400000282,
      "d": 254.23700000016834,
      "v": 119
    },
    {
      "midi": 82,
      "hit": false,
      "t": 154177.79250000286,
      "d": 5.296604166680481,
      "v": 1
    },
    {
      "midi": 52,
      "hit": false,
      "t": 154177.79250000286,
      "d": 5.296604166680481,
      "v": 65
    },
    {
      "midi": 74,
      "hit": false,
      "t": 154177.79250000286,
      "d": 31.779625000082888,
      "v": 121
    },
    {
      "midi": 42,
      "hit": false,
      "t": 154183.08910416954,
      "d": 5.296604166680481,
      "v": 45
    },
    {
      "midi": 61,
      "hit": false,
      "t": 154188.38570833622,
      "d": 5.296604166680481,
      "v": 38
    },
    {
      "midi": 77,
      "hit": false,
      "t": 154198.97891666958,
      "d": 5.296604166680481,
      "v": 63
    },
    {
      "midi": 98,
      "hit": false,
      "t": 154299.6143958363,
      "d": 10.593208333360963,
      "v": 104
    },
    {
      "midi": 102,
      "hit": false,
      "t": 154299.6143958363,
      "d": 10.593208333360963,
      "v": 69
    },
    {
      "midi": 105,
      "hit": false,
      "t": 154299.6143958363,
      "d": 10.593208333360963,
      "v": 79
    },
    {
      "midi": 42,
      "hit": false,
      "t": 154304.911000003,
      "d": 5.296604166680481,
      "v": 102
    },
    {
      "midi": 61,
      "hit": false,
      "t": 154304.911000003,
      "d": 5.296604166680481,
      "v": 62
    },
    {
      "midi": 77,
      "hit": false,
      "t": 154304.911000003,
      "d": 5.296604166680481,
      "v": 15
    },
    {
      "midi": 82,
      "hit": false,
      "t": 154304.911000003,
      "d": 5.296604166680481,
      "v": 9
    },
    {
      "midi": 74,
      "hit": false,
      "t": 154304.911000003,
      "d": 31.77962500002468,
      "v": 104
    },
    {
      "midi": 30,
      "hit": false,
      "t": 154304.911000003,
      "d": 90.04227083336446,
      "v": 100
    },
    {
      "midi": 78,
      "hit": false,
      "t": 154304.911000003,
      "d": 121.82189583336003,
      "v": 102
    },
    {
      "midi": 54,
      "hit": false,
      "t": 154304.911000003,
      "d": 190.67775000011898,
      "v": 85
    },
    {
      "midi": 90,
      "hit": false,
      "t": 154304.911000003,
      "d": 259.5336041668197,
      "v": 100
    },
    {
      "midi": 82,
      "hit": false,
      "t": 154432.02950000303,
      "d": 5.296604166680481,
      "v": 36
    },
    {
      "midi": 74,
      "hit": false,
      "t": 154432.02950000303,
      "d": 31.779625000082888,
      "v": 69
    },
    {
      "midi": 42,
      "hit": false,
      "t": 154437.3261041697,
      "d": 5.296604166680481,
      "v": 48
    },
    {
      "midi": 61,
      "hit": false,
      "t": 154442.6227083364,
      "d": 5.296604166680481,
      "v": 75
    },
    {
      "midi": 77,
      "hit": false,
      "t": 154453.21591666975,
      "d": 5.296604166680481,
      "v": 60
    },
    {
      "midi": 42,
      "hit": false,
      "t": 154553.85139583645,
      "d": 5.296604166680481,
      "v": 68
    },
    {
      "midi": 98,
      "hit": false,
      "t": 154553.85139583645,
      "d": 10.593208333360963,
      "v": 94
    },
    {
      "midi": 100,
      "hit": false,
      "t": 154553.85139583645,
      "d": 10.593208333360963,
      "v": 78
    },
    {
      "midi": 105,
      "hit": false,
      "t": 154553.85139583645,
      "d": 10.593208333360963,
      "v": 88
    },
    {
      "midi": 61,
      "hit": false,
      "t": 154559.14800000313,
      "d": 5.296604166680481,
      "v": 67
    },
    {
      "midi": 77,
      "hit": false,
      "t": 154559.14800000313,
      "d": 5.296604166680481,
      "v": 65
    },
    {
      "midi": 82,
      "hit": false,
      "t": 154559.14800000313,
      "d": 5.296604166680481,
      "v": 7
    },
    {
      "midi": 74,
      "hit": false,
      "t": 154559.14800000313,
      "d": 31.77962500002468,
      "v": 98
    },
    {
      "midi": 35,
      "hit": false,
      "t": 154559.14800000313,
      "d": 74.15245833335212,
      "v": 120
    },
    {
      "midi": 47,
      "hit": false,
      "t": 154559.14800000313,
      "d": 105.93208333334769,
      "v": 65
    },
    {
      "midi": 23,
      "hit": false,
      "t": 154559.14800000313,
      "d": 248.94039583348786,
      "v": 100
    },
    {
      "midi": 76,
      "hit": false,
      "t": 154559.14800000313,
      "d": 503.1773958336853,
      "v": 110
    },
    {
      "midi": 88,
      "hit": false,
      "t": 154559.14800000313,
      "d": 503.1773958336853,
      "v": 93
    },
    {
      "midi": 98,
      "hit": false,
      "t": 154680.9698958365,
      "d": 10.593208333360963,
      "v": 70
    },
    {
      "midi": 100,
      "hit": false,
      "t": 154680.9698958365,
      "d": 10.593208333360963,
      "v": 54
    },
    {
      "midi": 105,
      "hit": false,
      "t": 154680.9698958365,
      "d": 10.593208333360963,
      "v": 64
    },
    {
      "midi": 40,
      "hit": false,
      "t": 154686.26650000317,
      "d": 5.296604166680481,
      "v": 93
    },
    {
      "midi": 82,
      "hit": false,
      "t": 154686.26650000317,
      "d": 5.296604166680481,
      "v": 1
    },
    {
      "midi": 74,
      "hit": false,
      "t": 154686.26650000317,
      "d": 31.779625000082888,
      "v": 81
    },
    {
      "midi": 42,
      "hit": false,
      "t": 154691.56310416985,
      "d": 5.296604166680481,
      "v": 47
    },
    {
      "midi": 61,
      "hit": false,
      "t": 154696.85970833653,
      "d": 5.296604166680481,
      "v": 65
    },
    {
      "midi": 77,
      "hit": false,
      "t": 154707.4529166699,
      "d": 5.296604166680481,
      "v": 64
    },
    {
      "midi": 42,
      "hit": false,
      "t": 154813.3850000033,
      "d": 5.296604166680481,
      "v": 87
    },
    {
      "midi": 61,
      "hit": false,
      "t": 154813.3850000033,
      "d": 5.296604166680481,
      "v": 74
    },
    {
      "midi": 77,
      "hit": false,
      "t": 154813.3850000033,
      "d": 5.296604166680481,
      "v": 13
    },
    {
      "midi": 82,
      "hit": false,
      "t": 154813.3850000033,
      "d": 5.296604166680481,
      "v": 9
    },
    {
      "midi": 74,
      "hit": false,
      "t": 154813.3850000033,
      "d": 31.77962500002468,
      "v": 104
    },
    {
      "midi": 47,
      "hit": false,
      "t": 154813.3850000033,
      "d": 217.16077083349228,
      "v": 65
    },
    {
      "midi": 35,
      "hit": false,
      "t": 154813.3850000033,
      "d": 243.64379166683648,
      "v": 80
    },
    {
      "midi": 23,
      "hit": false,
      "t": 154813.3850000033,
      "d": 248.94039583351696,
      "v": 100
    },
    {
      "midi": 98,
      "hit": false,
      "t": 154935.20689583666,
      "d": 10.593208333360963,
      "v": 97
    },
    {
      "midi": 100,
      "hit": false,
      "t": 154935.20689583666,
      "d": 10.593208333360963,
      "v": 81
    },
    {
      "midi": 105,
      "hit": false,
      "t": 154935.20689583666,
      "d": 10.593208333360963,
      "v": 91
    },
    {
      "midi": 82,
      "hit": false,
      "t": 154940.50350000334,
      "d": 5.296604166680481,
      "v": 36
    },
    {
      "midi": 74,
      "hit": false,
      "t": 154940.50350000334,
      "d": 31.779625000082888,
      "v": 49
    },
    {
      "midi": 42,
      "hit": false,
      "t": 154945.80010417002,
      "d": 5.296604166680481,
      "v": 48
    },
    {
      "midi": 61,
      "hit": false,
      "t": 154951.0967083367,
      "d": 5.296604166680481,
      "v": 44
    },
    {
      "midi": 77,
      "hit": false,
      "t": 154961.68991667006,
      "d": 5.296604166680481,
      "v": 59
    },
    {
      "midi": 42,
      "hit": false,
      "t": 155062.32539583682,
      "d": 5.296604166680481,
      "v": 77
    },
    {
      "midi": 40,
      "hit": false,
      "t": 155067.6220000035,
      "d": 5.296604166680481,
      "v": 93
    },
    {
      "midi": 60,
      "hit": false,
      "t": 155067.6220000035,
      "d": 5.296604166680481,
      "v": 68
    },
    {
      "midi": 77,
      "hit": false,
      "t": 155067.6220000035,
      "d": 5.296604166680481,
      "v": 57
    },
    {
      "midi": 82,
      "hit": false,
      "t": 155067.6220000035,
      "d": 5.296604166680481,
      "v": 7
    },
    {
      "midi": 74,
      "hit": false,
      "t": 155067.6220000035,
      "d": 31.77962500002468,
      "v": 108
    },
    {
      "midi": 35,
      "hit": false,
      "t": 155067.6220000035,
      "d": 74.15245833335212,
      "v": 120
    },
    {
      "midi": 71,
      "hit": false,
      "t": 155067.6220000035,
      "d": 248.94039583345875,
      "v": 70
    },
    {
      "midi": 45,
      "hit": false,
      "t": 155067.6220000035,
      "d": 439.61814583360683,
      "v": 73
    },
    {
      "midi": 83,
      "hit": false,
      "t": 155067.6220000035,
      "d": 460.80456250027055,
      "v": 84
    },
    {
      "midi": 33,
      "hit": false,
      "t": 155067.6220000035,
      "d": 497.8807916669466,
      "v": 80
    },
    {
      "midi": 21,
      "hit": false,
      "t": 155067.6220000035,
      "d": 503.1773958336271,
      "v": 100
    },
    {
      "midi": 82,
      "hit": false,
      "t": 155194.7405000035,
      "d": 5.296604166680481,
      "v": 1
    },
    {
      "midi": 74,
      "hit": false,
      "t": 155194.7405000035,
      "d": 31.779625000082888,
      "v": 98
    },
    {
      "midi": 78,
      "hit": false,
      "t": 155194.7405000035,
      "d": 58.26264583342709,
      "v": 127
    },
    {
      "midi": 90,
      "hit": false,
      "t": 155194.7405000035,
      "d": 58.26264583342709,
      "v": 90
    },
    {
      "midi": 42,
      "hit": false,
      "t": 155200.0371041702,
      "d": 5.296604166680481,
      "v": 53
    },
    {
      "midi": 61,
      "hit": false,
      "t": 155205.33370833687,
      "d": 5.296604166680481,
      "v": 38
    },
    {
      "midi": 77,
      "hit": false,
      "t": 155215.92691667023,
      "d": 5.296604166680481,
      "v": 60
    },
    {
      "midi": 98,
      "hit": false,
      "t": 155316.56239583695,
      "d": 10.593208333360963,
      "v": 105
    },
    {
      "midi": 102,
      "hit": false,
      "t": 155316.56239583695,
      "d": 10.593208333360963,
      "v": 70
    },
    {
      "midi": 105,
      "hit": false,
      "t": 155316.56239583695,
      "d": 10.593208333360963,
      "v": 80
    },
    {
      "midi": 42,
      "hit": false,
      "t": 155321.85900000363,
      "d": 5.296604166680481,
      "v": 79
    },
    {
      "midi": 61,
      "hit": false,
      "t": 155321.85900000363,
      "d": 5.296604166680481,
      "v": 71
    },
    {
      "midi": 77,
      "hit": false,
      "t": 155321.85900000363,
      "d": 5.296604166680481,
      "v": 13
    },
    {
      "midi": 82,
      "hit": false,
      "t": 155321.85900000363,
      "d": 5.296604166680481,
      "v": 9
    },
    {
      "midi": 74,
      "hit": false,
      "t": 155321.85900000363,
      "d": 31.77962500002468,
      "v": 104
    },
    {
      "midi": 78,
      "hit": false,
      "t": 155321.85900000363,
      "d": 58.26264583336888,
      "v": 127
    },
    {
      "midi": 90,
      "hit": false,
      "t": 155321.85900000363,
      "d": 58.26264583336888,
      "v": 90
    },
    {
      "midi": 69,
      "hit": false,
      "t": 155321.85900000363,
      "d": 222.45737500014366,
      "v": 94
    },
    {
      "midi": 40,
      "hit": false,
      "t": 155448.97750000368,
      "d": 5.296604166680481,
      "v": 93
    },
    {
      "midi": 42,
      "hit": false,
      "t": 155448.97750000368,
      "d": 5.296604166680481,
      "v": 79
    },
    {
      "midi": 82,
      "hit": false,
      "t": 155448.97750000368,
      "d": 5.296604166680481,
      "v": 36
    },
    {
      "midi": 74,
      "hit": false,
      "t": 155448.97750000368,
      "d": 31.779625000082888,
      "v": 84
    },
    {
      "midi": 78,
      "hit": false,
      "t": 155448.97750000368,
      "d": 95.33887500010314,
      "v": 122
    },
    {
      "midi": 90,
      "hit": false,
      "t": 155448.97750000368,
      "d": 95.33887500010314,
      "v": 85
    },
    {
      "midi": 61,
      "hit": false,
      "t": 155459.57070833704,
      "d": 5.296604166680481,
      "v": 69
    },
    {
      "midi": 77,
      "hit": false,
      "t": 155470.1639166704,
      "d": 5.296604166680481,
      "v": 50
    },
    {
      "midi": 62,
      "hit": false,
      "t": 155528.42656250377,
      "d": 58.26264583339798,
      "v": 73
    },
    {
      "midi": 42,
      "hit": false,
      "t": 155570.79939583712,
      "d": 5.296604166680481,
      "v": 53
    },
    {
      "midi": 49,
      "hit": false,
      "t": 155576.0960000038,
      "d": 5.296604166680481,
      "v": 108
    },
    {
      "midi": 57,
      "hit": false,
      "t": 155576.0960000038,
      "d": 5.296604166680481,
      "v": 108
    },
    {
      "midi": 61,
      "hit": false,
      "t": 155576.0960000038,
      "d": 5.296604166680481,
      "v": 67
    },
    {
      "midi": 77,
      "hit": false,
      "t": 155576.0960000038,
      "d": 5.296604166680481,
      "v": 58
    },
    {
      "midi": 82,
      "hit": false,
      "t": 155576.0960000038,
      "d": 5.296604166680481,
      "v": 7
    },
    {
      "midi": 50,
      "hit": false,
      "t": 155576.0960000038,
      "d": 10.593208333360963,
      "v": 77
    },
    {
      "midi": 74,
      "hit": false,
      "t": 155576.0960000038,
      "d": 31.77962500002468,
      "v": 110
    },
    {
      "midi": 35,
      "hit": false,
      "t": 155576.0960000038,
      "d": 74.15245833335212,
      "v": 120
    },
    {
      "midi": 38,
      "hit": false,
      "t": 155576.0960000038,
      "d": 105.93208333334769,
      "v": 80
    },
    {
      "midi": 26,
      "hit": false,
      "t": 155576.0960000038,
      "d": 111.22868750002817,
      "v": 100
    },
    {
      "midi": 50,
      "hit": false,
      "t": 155671.43487500382,
      "d": 0,
      "v": 57
    },
    {
      "midi": 62,
      "hit": false,
      "t": 155671.43487500382,
      "d": 190.67775000017718,
      "v": 57
    },
    {
      "midi": 82,
      "hit": false,
      "t": 155703.21450000384,
      "d": 5.296604166680481,
      "v": 1
    },
    {
      "midi": 74,
      "hit": false,
      "t": 155703.21450000384,
      "d": 31.779625000082888,
      "v": 93
    },
    {
      "midi": 76,
      "hit": false,
      "t": 155703.21450000384,
      "d": 90.04227083342266,
      "v": 117
    },
    {
      "midi": 50,
      "hit": false,
      "t": 155703.21450000384,
      "d": 158.8981250001525,
      "v": 65
    },
    {
      "midi": 38,
      "hit": false,
      "t": 155703.21450000384,
      "d": 233.05058333350462,
      "v": 80
    },
    {
      "midi": 26,
      "hit": false,
      "t": 155703.21450000384,
      "d": 238.3471875001851,
      "v": 100
    },
    {
      "midi": 42,
      "hit": false,
      "t": 155708.51110417052,
      "d": 5.296604166680481,
      "v": 45
    },
    {
      "midi": 61,
      "hit": false,
      "t": 155713.8077083372,
      "d": 5.296604166680481,
      "v": 65
    },
    {
      "midi": 77,
      "hit": false,
      "t": 155724.40091667057,
      "d": 5.296604166680481,
      "v": 52
    },
    {
      "midi": 98,
      "hit": false,
      "t": 155825.0363958373,
      "d": 10.593208333360963,
      "v": 117
    },
    {
      "midi": 102,
      "hit": false,
      "t": 155825.0363958373,
      "d": 10.593208333360963,
      "v": 82
    },
    {
      "midi": 105,
      "hit": false,
      "t": 155825.0363958373,
      "d": 10.593208333360963,
      "v": 92
    },
    {
      "midi": 42,
      "hit": false,
      "t": 155830.33300000397,
      "d": 5.296604166680481,
      "v": 102
    },
    {
      "midi": 61,
      "hit": false,
      "t": 155830.33300000397,
      "d": 5.296604166680481,
      "v": 74
    },
    {
      "midi": 77,
      "hit": false,
      "t": 155830.33300000397,
      "d": 5.296604166680481,
      "v": 14
    },
    {
      "midi": 82,
      "hit": false,
      "t": 155830.33300000397,
      "d": 5.296604166680481,
      "v": 9
    },
    {
      "midi": 74,
      "hit": false,
      "t": 155830.33300000397,
      "d": 63.559250000020256,
      "v": 118
    },
    {
      "midi": 75,
      "hit": false,
      "t": 155830.33300000397,
      "d": 74.15245833335212,
      "v": 117
    },
    {
      "midi": 62,
      "hit": false,
      "t": 155941.56168750403,
      "d": 105.9320833334641,
      "v": 58
    },
    {
      "midi": 82,
      "hit": false,
      "t": 155957.45150000404,
      "d": 5.296604166680481,
      "v": 36
    },
    {
      "midi": 74,
      "hit": false,
      "t": 155957.45150000404,
      "d": 79.4490625000908,
      "v": 67
    },
    {
      "midi": 50,
      "hit": false,
      "t": 155957.45150000404,
      "d": 90.04227083345177,
      "v": 65
    },
    {
      "midi": 38,
      "hit": false,
      "t": 155957.45150000404,
      "d": 105.9320833334641,
      "v": 80
    },
    {
      "midi": 26,
      "hit": false,
      "t": 155957.45150000404,
      "d": 111.22868750014459,
      "v": 100
    },
    {
      "midi": 42,
      "hit": false,
      "t": 155962.74810417072,
      "d": 5.296604166680481,
      "v": 48
    },
    {
      "midi": 61,
      "hit": false,
      "t": 155968.0447083374,
      "d": 5.296604166680481,
      "v": 51
    },
    {
      "midi": 77,
      "hit": false,
      "t": 155978.63791667076,
      "d": 5.296604166680481,
      "v": 57
    },
    {
      "midi": 64,
      "hit": false,
      "t": 156052.79037500417,
      "d": 105.9320833334059,
      "v": 69
    },
    {
      "midi": 42,
      "hit": false,
      "t": 156079.27339583752,
      "d": 5.296604166680481,
      "v": 53
    },
    {
      "midi": 40,
      "hit": false,
      "t": 156084.5700000042,
      "d": 5.296604166680481,
      "v": 93
    },
    {
      "midi": 60,
      "hit": false,
      "t": 156084.5700000042,
      "d": 5.296604166680481,
      "v": 68
    },
    {
      "midi": 77,
      "hit": false,
      "t": 156084.5700000042,
      "d": 5.296604166680481,
      "v": 56
    },
    {
      "midi": 82,
      "hit": false,
      "t": 156084.5700000042,
      "d": 5.296604166680481,
      "v": 7
    },
    {
      "midi": 74,
      "hit": false,
      "t": 156084.5700000042,
      "d": 31.77962500002468,
      "v": 126
    },
    {
      "midi": 86,
      "hit": false,
      "t": 156084.5700000042,
      "d": 74.15245833338122,
      "v": 109
    },
    {
      "midi": 52,
      "hit": false,
      "t": 156084.5700000042,
      "d": 74.15245833338122,
      "v": 65
    },
    {
      "midi": 35,
      "hit": false,
      "t": 156084.5700000042,
      "d": 74.15245833338122,
      "v": 120
    },
    {
      "midi": 78,
      "hit": false,
      "t": 156084.5700000042,
      "d": 95.33887500004494,
      "v": 103
    },
    {
      "midi": 28,
      "hit": false,
      "t": 156084.5700000042,
      "d": 111.22868750005728,
      "v": 100
    },
    {
      "midi": 82,
      "hit": false,
      "t": 156211.68850000427,
      "d": 5.296604166680481,
      "v": 1
    },
    {
      "midi": 52,
      "hit": false,
      "t": 156211.68850000427,
      "d": 5.296604166680481,
      "v": 65
    },
    {
      "midi": 74,
      "hit": false,
      "t": 156211.68850000427,
      "d": 31.779625000082888,
      "v": 121
    },
    {
      "midi": 42,
      "hit": false,
      "t": 156216.98510417095,
      "d": 5.296604166680481,
      "v": 45
    },
    {
      "midi": 61,
      "hit": false,
      "t": 156222.28170833763,
      "d": 5.296604166680481,
      "v": 38
    },
    {
      "midi": 77,
      "hit": false,
      "t": 156232.874916671,
      "d": 5.296604166680481,
      "v": 63
    },
    {
      "midi": 66,
      "hit": false,
      "t": 156322.91718750435,
      "d": 90.04227083336446,
      "v": 39
    },
    {
      "midi": 98,
      "hit": false,
      "t": 156333.5103958377,
      "d": 10.593208333360963,
      "v": 104
    },
    {
      "midi": 102,
      "hit": false,
      "t": 156333.5103958377,
      "d": 10.593208333360963,
      "v": 69
    },
    {
      "midi": 105,
      "hit": false,
      "t": 156333.5103958377,
      "d": 10.593208333360963,
      "v": 79
    },
    {
      "midi": 42,
      "hit": false,
      "t": 156338.80700000437,
      "d": 5.296604166680481,
      "v": 102
    },
    {
      "midi": 61,
      "hit": false,
      "t": 156338.80700000437,
      "d": 5.296604166680481,
      "v": 62
    },
    {
      "midi": 77,
      "hit": false,
      "t": 156338.80700000437,
      "d": 5.296604166680481,
      "v": 15
    },
    {
      "midi": 82,
      "hit": false,
      "t": 156338.80700000437,
      "d": 5.296604166680481,
      "v": 9
    },
    {
      "midi": 74,
      "hit": false,
      "t": 156338.80700000437,
      "d": 31.77962500002468,
      "v": 127
    },
    {
      "midi": 83,
      "hit": false,
      "t": 156338.80700000437,
      "d": 74.15245833335212,
      "v": 110
    },
    {
      "midi": 54,
      "hit": false,
      "t": 156338.80700000437,
      "d": 74.15245833335212,
      "v": 83
    },
    {
      "midi": 95,
      "hit": false,
      "t": 156338.80700000437,
      "d": 79.4490625000326,
      "v": 107
    },
    {
      "midi": 79,
      "hit": false,
      "t": 156338.80700000437,
      "d": 90.04227083336446,
      "v": 89
    },
    {
      "midi": 30,
      "hit": false,
      "t": 156338.80700000437,
      "d": 111.22868750005728,
      "v": 100
    },
    {
      "midi": 38,
      "hit": false,
      "t": 156465.92550000444,
      "d": 5.296604166680481,
      "v": 40
    },
    {
      "midi": 82,
      "hit": false,
      "t": 156465.92550000444,
      "d": 5.296604166680481,
      "v": 36
    },
    {
      "midi": 74,
      "hit": false,
      "t": 156465.92550000444,
      "d": 31.779625000082888,
      "v": 112
    },
    {
      "midi": 42,
      "hit": false,
      "t": 156471.22210417112,
      "d": 5.296604166680481,
      "v": 48
    },
    {
      "midi": 61,
      "hit": false,
      "t": 156476.5187083378,
      "d": 5.296604166680481,
      "v": 75
    },
    {
      "midi": 77,
      "hit": false,
      "t": 156487.11191667116,
      "d": 5.296604166680481,
      "v": 60
    },
    {
      "midi": 38,
      "hit": false,
      "t": 156508.29833333785,
      "d": 5.296604166680481,
      "v": 40
    },
    {
      "midi": 38,
      "hit": false,
      "t": 156550.67116667124,
      "d": 5.296604166680481,
      "v": 40
    },
    {
      "midi": 42,
      "hit": false,
      "t": 156587.74739583794,
      "d": 5.296604166680481,
      "v": 68
    },
    {
      "midi": 98,
      "hit": false,
      "t": 156587.74739583794,
      "d": 10.593208333360963,
      "v": 94
    },
    {
      "midi": 100,
      "hit": false,
      "t": 156587.74739583794,
      "d": 10.593208333360963,
      "v": 78
    },
    {
      "midi": 105,
      "hit": false,
      "t": 156587.74739583794,
      "d": 10.593208333360963,
      "v": 88
    },
    {
      "midi": 38,
      "hit": false,
      "t": 156593.04400000462,
      "d": 5.296604166680481,
      "v": 40
    },
    {
      "midi": 61,
      "hit": false,
      "t": 156593.04400000462,
      "d": 5.296604166680481,
      "v": 67
    },
    {
      "midi": 77,
      "hit": false,
      "t": 156593.04400000462,
      "d": 5.296604166680481,
      "v": 65
    },
    {
      "midi": 82,
      "hit": false,
      "t": 156593.04400000462,
      "d": 5.296604166680481,
      "v": 7
    },
    {
      "midi": 74,
      "hit": false,
      "t": 156593.04400000462,
      "d": 31.77962500002468,
      "v": 98
    },
    {
      "midi": 35,
      "hit": false,
      "t": 156593.04400000462,
      "d": 74.15245833335212,
      "v": 120
    },
    {
      "midi": 23,
      "hit": false,
      "t": 156593.04400000462,
      "d": 111.22868750002817,
      "v": 100
    },
    {
      "midi": 40,
      "hit": false,
      "t": 156593.04400000462,
      "d": 116.52529166670865,
      "v": 80
    },
    {
      "midi": 47,
      "hit": false,
      "t": 156593.04400000462,
      "d": 116.52529166670865,
      "v": 81
    },
    {
      "midi": 78,
      "hit": false,
      "t": 156593.04400000462,
      "d": 248.94039583348786,
      "v": 89
    },
    {
      "midi": 81,
      "hit": false,
      "t": 156593.04400000462,
      "d": 376.05889583352837,
      "v": 110
    },
    {
      "midi": 93,
      "hit": false,
      "t": 156593.04400000462,
      "d": 397.2453125002503,
      "v": 96
    },
    {
      "midi": 98,
      "hit": false,
      "t": 156714.865895838,
      "d": 10.593208333360963,
      "v": 70
    },
    {
      "midi": 100,
      "hit": false,
      "t": 156714.865895838,
      "d": 10.593208333360963,
      "v": 54
    },
    {
      "midi": 105,
      "hit": false,
      "t": 156714.865895838,
      "d": 10.593208333360963,
      "v": 64
    },
    {
      "midi": 82,
      "hit": false,
      "t": 156720.1625000047,
      "d": 5.296604166680481,
      "v": 1
    },
    {
      "midi": 74,
      "hit": false,
      "t": 156720.1625000047,
      "d": 31.779625000082888,
      "v": 81
    },
    {
      "midi": 42,
      "hit": false,
      "t": 156725.45910417137,
      "d": 5.296604166680481,
      "v": 47
    },
    {
      "midi": 61,
      "hit": false,
      "t": 156730.75570833805,
      "d": 5.296604166680481,
      "v": 65
    },
    {
      "midi": 77,
      "hit": false,
      "t": 156741.3489166714,
      "d": 5.296604166680481,
      "v": 64
    },
    {
      "midi": 42,
      "hit": false,
      "t": 156847.2810000048,
      "d": 5.296604166680481,
      "v": 87
    },
    {
      "midi": 61,
      "hit": false,
      "t": 156847.2810000048,
      "d": 5.296604166680481,
      "v": 74
    },
    {
      "midi": 77,
      "hit": false,
      "t": 156847.2810000048,
      "d": 5.296604166680481,
      "v": 13
    },
    {
      "midi": 82,
      "hit": false,
      "t": 156847.2810000048,
      "d": 5.296604166680481,
      "v": 9
    },
    {
      "midi": 74,
      "hit": false,
      "t": 156847.2810000048,
      "d": 31.77962500002468,
      "v": 127
    },
    {
      "midi": 40,
      "hit": false,
      "t": 156847.2810000048,
      "d": 95.33887500001583,
      "v": 65
    },
    {
      "midi": 47,
      "hit": false,
      "t": 156847.2810000048,
      "d": 206.56756250013132,
      "v": 65
    },
    {
      "midi": 35,
      "hit": false,
      "t": 156847.2810000048,
      "d": 233.05058333347552,
      "v": 80
    },
    {
      "midi": 23,
      "hit": false,
      "t": 156847.2810000048,
      "d": 238.347187500156,
      "v": 100
    },
    {
      "midi": 98,
      "hit": false,
      "t": 156969.10289583815,
      "d": 10.593208333360963,
      "v": 97
    },
    {
      "midi": 100,
      "hit": false,
      "t": 156969.10289583815,
      "d": 10.593208333360963,
      "v": 81
    },
    {
      "midi": 105,
      "hit": false,
      "t": 156969.10289583815,
      "d": 10.593208333360963,
      "v": 91
    },
    {
      "midi": 82,
      "hit": false,
      "t": 156974.39950000483,
      "d": 5.296604166680481,
      "v": 36
    },
    {
      "midi": 74,
      "hit": false,
      "t": 156974.39950000483,
      "d": 31.779625000082888,
      "v": 92
    },
    {
      "midi": 42,
      "hit": false,
      "t": 156979.6961041715,
      "d": 5.296604166680481,
      "v": 48
    },
    {
      "midi": 61,
      "hit": false,
      "t": 156984.9927083382,
      "d": 5.296604166680481,
      "v": 44
    },
    {
      "midi": 77,
      "hit": false,
      "t": 156995.58591667155,
      "d": 5.296604166680481,
      "v": 59
    },
    {
      "midi": 42,
      "hit": false,
      "t": 157096.22139583828,
      "d": 5.296604166680481,
      "v": 77
    },
    {
      "midi": 40,
      "hit": false,
      "t": 157101.51800000496,
      "d": 5.296604166680481,
      "v": 93
    },
    {
      "midi": 60,
      "hit": false,
      "t": 157101.51800000496,
      "d": 5.296604166680481,
      "v": 68
    },
    {
      "midi": 77,
      "hit": false,
      "t": 157101.51800000496,
      "d": 5.296604166680481,
      "v": 57
    },
    {
      "midi": 82,
      "hit": false,
      "t": 157101.51800000496,
      "d": 5.296604166680481,
      "v": 7
    },
    {
      "midi": 74,
      "hit": false,
      "t": 157101.51800000496,
      "d": 31.77962500002468,
      "v": 108
    },
    {
      "midi": 35,
      "hit": false,
      "t": 157101.51800000496,
      "d": 74.15245833335212,
      "v": 120
    },
    {
      "midi": 49,
      "hit": false,
      "t": 157101.51800000496,
      "d": 95.33887500001583,
      "v": 74
    },
    {
      "midi": 37,
      "hit": false,
      "t": 157101.51800000496,
      "d": 360.1690833334578,
      "v": 80
    },
    {
      "midi": 25,
      "hit": false,
      "t": 157101.51800000496,
      "d": 365.4656875001383,
      "v": 100
    },
    {
      "midi": 79,
      "hit": false,
      "t": 157101.51800000496,
      "d": 376.05889583347016,
      "v": 106
    },
    {
      "midi": 83,
      "hit": false,
      "t": 157101.51800000496,
      "d": 376.05889583347016,
      "v": 127
    },
    {
      "midi": 95,
      "hit": false,
      "t": 157101.51800000496,
      "d": 376.05889583347016,
      "v": 104
    },
    {
      "midi": 82,
      "hit": false,
      "t": 157228.63650000497,
      "d": 5.296604166680481,
      "v": 1
    },
    {
      "midi": 74,
      "hit": false,
      "t": 157228.63650000497,
      "d": 31.779625000082888,
      "v": 98
    },
    {
      "midi": 42,
      "hit": false,
      "t": 157233.93310417165,
      "d": 5.296604166680481,
      "v": 53
    },
    {
      "midi": 61,
      "hit": false,
      "t": 157239.22970833833,
      "d": 5.296604166680481,
      "v": 38
    },
    {
      "midi": 77,
      "hit": false,
      "t": 157249.8229166717,
      "d": 5.296604166680481,
      "v": 60
    },
    {
      "midi": 98,
      "hit": false,
      "t": 157350.4583958384,
      "d": 10.593208333360963,
      "v": 105
    },
    {
      "midi": 102,
      "hit": false,
      "t": 157350.4583958384,
      "d": 10.593208333360963,
      "v": 70
    },
    {
      "midi": 105,
      "hit": false,
      "t": 157350.4583958384,
      "d": 10.593208333360963,
      "v": 80
    },
    {
      "midi": 42,
      "hit": false,
      "t": 157355.75500000507,
      "d": 5.296604166680481,
      "v": 79
    },
    {
      "midi": 61,
      "hit": false,
      "t": 157355.75500000507,
      "d": 5.296604166680481,
      "v": 71
    },
    {
      "midi": 77,
      "hit": false,
      "t": 157355.75500000507,
      "d": 5.296604166680481,
      "v": 13
    },
    {
      "midi": 82,
      "hit": false,
      "t": 157355.75500000507,
      "d": 5.296604166680481,
      "v": 9
    },
    {
      "midi": 74,
      "hit": false,
      "t": 157355.75500000507,
      "d": 31.77962500002468,
      "v": 104
    },
    {
      "midi": 49,
      "hit": false,
      "t": 157355.75500000507,
      "d": 95.33887500001583,
      "v": 65
    },
    {
      "midi": 40,
      "hit": false,
      "t": 157482.8735000051,
      "d": 5.296604166680481,
      "v": 93
    },
    {
      "midi": 42,
      "hit": false,
      "t": 157482.8735000051,
      "d": 5.296604166680481,
      "v": 79
    },
    {
      "midi": 82,
      "hit": false,
      "t": 157482.8735000051,
      "d": 5.296604166680481,
      "v": 36
    },
    {
      "midi": 74,
      "hit": false,
      "t": 157482.8735000051,
      "d": 31.779625000082888,
      "v": 84
    },
    {
      "midi": 38,
      "hit": false,
      "t": 157482.8735000051,
      "d": 105.9320833334059,
      "v": 80
    },
    {
      "midi": 26,
      "hit": false,
      "t": 157482.8735000051,
      "d": 111.22868750008638,
      "v": 100
    },
    {
      "midi": 69,
      "hit": false,
      "t": 157482.8735000051,
      "d": 121.82189583344734,
      "v": 83
    },
    {
      "midi": 61,
      "hit": false,
      "t": 157493.46670833847,
      "d": 5.296604166680481,
      "v": 69
    },
    {
      "midi": 50,
      "hit": false,
      "t": 157493.46670833847,
      "d": 84.74566666671308,
      "v": 114
    },
    {
      "midi": 86,
      "hit": false,
      "t": 157493.46670833847,
      "d": 105.9320833334059,
      "v": 98
    },
    {
      "midi": 62,
      "hit": false,
      "t": 157493.46670833847,
      "d": 105.9320833334059,
      "v": 127
    },
    {
      "midi": 77,
      "hit": false,
      "t": 157504.05991667183,
      "d": 5.296604166680481,
      "v": 50
    },
    {
      "midi": 42,
      "hit": false,
      "t": 157604.69539583856,
      "d": 5.296604166680481,
      "v": 53
    },
    {
      "midi": 61,
      "hit": false,
      "t": 157609.99200000524,
      "d": 5.296604166680481,
      "v": 67
    },
    {
      "midi": 77,
      "hit": false,
      "t": 157609.99200000524,
      "d": 5.296604166680481,
      "v": 58
    },
    {
      "midi": 82,
      "hit": false,
      "t": 157609.99200000524,
      "d": 5.296604166680481,
      "v": 7
    },
    {
      "midi": 74,
      "hit": false,
      "t": 157609.99200000524,
      "d": 31.77962500002468,
      "v": 110
    },
    {
      "midi": 35,
      "hit": false,
      "t": 157609.99200000524,
      "d": 74.15245833335212,
      "v": 120
    },
    {
      "midi": 82,
      "hit": false,
      "t": 157737.11050000525,
      "d": 5.296604166680481,
      "v": 1
    },
    {
      "midi": 74,
      "hit": false,
      "t": 157737.11050000525,
      "d": 31.779625000082888,
      "v": 93
    },
    {
      "midi": 38,
      "hit": false,
      "t": 157737.11050000525,
      "d": 243.64379166683648,
      "v": 89
    },
    {
      "midi": 26,
      "hit": false,
      "t": 157737.11050000525,
      "d": 248.94039583351696,
      "v": 109
    },
    {
      "midi": 69,
      "hit": false,
      "t": 157737.11050000525,
      "d": 248.94039583351696,
      "v": 83
    },
    {
      "midi": 42,
      "hit": false,
      "t": 157742.40710417193,
      "d": 5.296604166680481,
      "v": 45
    },
    {
      "midi": 50,
      "hit": false,
      "t": 157742.40710417193,
      "d": 74.15245833341032,
      "v": 108
    },
    {
      "midi": 62,
      "hit": false,
      "t": 157742.40710417193,
      "d": 74.15245833341032,
      "v": 121
    },
    {
      "midi": 61,
      "hit": false,
      "t": 157747.7037083386,
      "d": 5.296604166680481,
      "v": 65
    },
    {
      "midi": 86,
      "hit": false,
      "t": 157747.7037083386,
      "d": 68.85585416672984,
      "v": 107
    },
    {
      "midi": 77,
      "hit": false,
      "t": 157758.29691667197,
      "d": 5.296604166680481,
      "v": 52
    },
    {
      "midi": 98,
      "hit": false,
      "t": 157858.9323958387,
      "d": 10.593208333360963,
      "v": 117
    },
    {
      "midi": 102,
      "hit": false,
      "t": 157858.9323958387,
      "d": 10.593208333360963,
      "v": 82
    },
    {
      "midi": 105,
      "hit": false,
      "t": 157858.9323958387,
      "d": 10.593208333360963,
      "v": 92
    },
    {
      "midi": 42,
      "hit": false,
      "t": 157864.22900000538,
      "d": 5.296604166680481,
      "v": 102
    },
    {
      "midi": 61,
      "hit": false,
      "t": 157864.22900000538,
      "d": 5.296604166680481,
      "v": 74
    },
    {
      "midi": 77,
      "hit": false,
      "t": 157864.22900000538,
      "d": 5.296604166680481,
      "v": 14
    },
    {
      "midi": 82,
      "hit": false,
      "t": 157864.22900000538,
      "d": 5.296604166680481,
      "v": 9
    },
    {
      "midi": 74,
      "hit": false,
      "t": 157864.22900000538,
      "d": 63.559250000020256,
      "v": 118
    },
    {
      "midi": 82,
      "hit": false,
      "t": 157991.34750000545,
      "d": 5.296604166680481,
      "v": 36
    },
    {
      "midi": 74,
      "hit": false,
      "t": 157991.34750000545,
      "d": 79.4490625000908,
      "v": 67
    },
    {
      "midi": 38,
      "hit": false,
      "t": 157991.34750000545,
      "d": 100.63547916678363,
      "v": 80
    },
    {
      "midi": 26,
      "hit": false,
      "t": 157991.34750000545,
      "d": 105.9320833334641,
      "v": 100
    },
    {
      "midi": 42,
      "hit": false,
      "t": 157996.64410417213,
      "d": 5.296604166680481,
      "v": 48
    },
    {
      "midi": 50,
      "hit": false,
      "t": 157996.64410417213,
      "d": 84.74566666674218,
      "v": 90
    },
    {
      "midi": 62,
      "hit": false,
      "t": 157996.64410417213,
      "d": 90.04227083342266,
      "v": 103
    },
    {
      "midi": 61,
      "hit": false,
      "t": 158001.9407083388,
      "d": 5.296604166680481,
      "v": 51
    },
    {
      "midi": 86,
      "hit": false,
      "t": 158001.9407083388,
      "d": 63.55925000004936,
      "v": 111
    },
    {
      "midi": 77,
      "hit": false,
      "t": 158012.53391667217,
      "d": 5.296604166680481,
      "v": 57
    },
    {
      "midi": 94,
      "hit": false,
      "t": 158097.2795833389,
      "d": 26.483020833373303,
      "v": 95
    },
    {
      "midi": 42,
      "hit": false,
      "t": 158113.16939583892,
      "d": 5.296604166680481,
      "v": 53
    },
    {
      "midi": 40,
      "hit": false,
      "t": 158118.4660000056,
      "d": 5.296604166680481,
      "v": 93
    },
    {
      "midi": 60,
      "hit": false,
      "t": 158118.4660000056,
      "d": 5.296604166680481,
      "v": 68
    },
    {
      "midi": 77,
      "hit": false,
      "t": 158118.4660000056,
      "d": 5.296604166680481,
      "v": 56
    },
    {
      "midi": 82,
      "hit": false,
      "t": 158118.4660000056,
      "d": 5.296604166680481,
      "v": 7
    },
    {
      "midi": 74,
      "hit": false,
      "t": 158118.4660000056,
      "d": 31.77962500002468,
      "v": 126
    },
    {
      "midi": 35,
      "hit": false,
      "t": 158118.4660000056,
      "d": 74.15245833338122,
      "v": 120
    },
    {
      "midi": 52,
      "hit": false,
      "t": 158118.4660000056,
      "d": 105.9320833334059,
      "v": 73
    },
    {
      "midi": 28,
      "hit": false,
      "t": 158118.4660000056,
      "d": 248.94039583348786,
      "v": 100
    },
    {
      "midi": 79,
      "hit": false,
      "t": 158118.4660000056,
      "d": 386.65210416688933,
      "v": 96
    },
    {
      "midi": 58,
      "hit": false,
      "t": 158129.05920833896,
      "d": 68.85585416670074,
      "v": 114
    },
    {
      "midi": 70,
      "hit": false,
      "t": 158129.05920833896,
      "d": 68.85585416670074,
      "v": 127
    },
    {
      "midi": 95,
      "hit": false,
      "t": 158129.05920833896,
      "d": 434.32154166692635,
      "v": 105
    },
    {
      "midi": 59,
      "hit": false,
      "t": 158155.5422291723,
      "d": 365.4656875002256,
      "v": 104
    },
    {
      "midi": 71,
      "hit": false,
      "t": 158155.5422291723,
      "d": 365.4656875002256,
      "v": 117
    },
    {
      "midi": 83,
      "hit": false,
      "t": 158182.02525000565,
      "d": 195.97435416679946,
      "v": 108
    },
    {
      "midi": 82,
      "hit": false,
      "t": 158245.58450000567,
      "d": 5.296604166680481,
      "v": 1
    },
    {
      "midi": 74,
      "hit": false,
      "t": 158245.58450000567,
      "d": 31.779625000082888,
      "v": 121
    },
    {
      "midi": 52,
      "hit": false,
      "t": 158245.58450000567,
      "d": 105.9320833334059,
      "v": 16
    },
    {
      "midi": 42,
      "hit": false,
      "t": 158250.88110417235,
      "d": 5.296604166680481,
      "v": 45
    },
    {
      "midi": 61,
      "hit": false,
      "t": 158256.17770833903,
      "d": 5.296604166680481,
      "v": 38
    },
    {
      "midi": 77,
      "hit": false,
      "t": 158266.7709166724,
      "d": 5.296604166680481,
      "v": 63
    },
    {
      "midi": 98,
      "hit": false,
      "t": 158367.4063958391,
      "d": 10.593208333360963,
      "v": 104
    },
    {
      "midi": 102,
      "hit": false,
      "t": 158367.4063958391,
      "d": 10.593208333360963,
      "v": 69
    },
    {
      "midi": 105,
      "hit": false,
      "t": 158367.4063958391,
      "d": 10.593208333360963,
      "v": 79
    },
    {
      "midi": 42,
      "hit": false,
      "t": 158372.70300000577,
      "d": 5.296604166680481,
      "v": 102
    },
    {
      "midi": 61,
      "hit": false,
      "t": 158372.70300000577,
      "d": 5.296604166680481,
      "v": 62
    },
    {
      "midi": 77,
      "hit": false,
      "t": 158372.70300000577,
      "d": 5.296604166680481,
      "v": 15
    },
    {
      "midi": 82,
      "hit": false,
      "t": 158372.70300000577,
      "d": 5.296604166680481,
      "v": 9
    },
    {
      "midi": 74,
      "hit": false,
      "t": 158372.70300000577,
      "d": 31.77962500002468,
      "v": 127
    },
    {
      "midi": 30,
      "hit": false,
      "t": 158372.70300000577,
      "d": 90.04227083336446,
      "v": 100
    },
    {
      "midi": 54,
      "hit": false,
      "t": 158372.70300000577,
      "d": 217.16077083346318,
      "v": 79
    },
    {
      "midi": 82,
      "hit": false,
      "t": 158499.8215000058,
      "d": 5.296604166680481,
      "v": 36
    },
    {
      "midi": 74,
      "hit": false,
      "t": 158499.8215000058,
      "d": 31.779625000082888,
      "v": 112
    },
    {
      "midi": 42,
      "hit": false,
      "t": 158505.1181041725,
      "d": 5.296604166680481,
      "v": 48
    },
    {
      "midi": 61,
      "hit": false,
      "t": 158510.41470833917,
      "d": 5.296604166680481,
      "v": 75
    },
    {
      "midi": 77,
      "hit": false,
      "t": 158521.00791667253,
      "d": 5.296604166680481,
      "v": 60
    },
    {
      "midi": 80,
      "hit": false,
      "t": 158589.86377083923,
      "d": 127.11850000009872,
      "v": 89
    },
    {
      "midi": 42,
      "hit": false,
      "t": 158621.64339583926,
      "d": 5.296604166680481,
      "v": 68
    },
    {
      "midi": 98,
      "hit": false,
      "t": 158621.64339583926,
      "d": 10.593208333360963,
      "v": 94
    },
    {
      "midi": 100,
      "hit": false,
      "t": 158621.64339583926,
      "d": 10.593208333360963,
      "v": 78
    },
    {
      "midi": 105,
      "hit": false,
      "t": 158621.64339583926,
      "d": 10.593208333360963,
      "v": 88
    },
    {
      "midi": 61,
      "hit": false,
      "t": 158626.94000000594,
      "d": 5.296604166680481,
      "v": 67
    },
    {
      "midi": 77,
      "hit": false,
      "t": 158626.94000000594,
      "d": 5.296604166680481,
      "v": 65
    },
    {
      "midi": 82,
      "hit": false,
      "t": 158626.94000000594,
      "d": 5.296604166680481,
      "v": 7
    },
    {
      "midi": 74,
      "hit": false,
      "t": 158626.94000000594,
      "d": 31.77962500002468,
      "v": 98
    },
    {
      "midi": 35,
      "hit": false,
      "t": 158626.94000000594,
      "d": 74.15245833338122,
      "v": 120
    },
    {
      "midi": 40,
      "hit": false,
      "t": 158626.94000000594,
      "d": 217.16077083349228,
      "v": 65
    },
    {
      "midi": 47,
      "hit": false,
      "t": 158626.94000000594,
      "d": 217.16077083349228,
      "v": 65
    },
    {
      "midi": 23,
      "hit": false,
      "t": 158626.94000000594,
      "d": 248.94039583351696,
      "v": 100
    },
    {
      "midi": 76,
      "hit": false,
      "t": 158626.94000000594,
      "d": 503.1773958336853,
      "v": 90
    },
    {
      "midi": 93,
      "hit": false,
      "t": 158626.94000000594,
      "d": 715.041562500468,
      "v": 102
    },
    {
      "midi": 57,
      "hit": false,
      "t": 158648.12641667263,
      "d": 953.3887500005949,
      "v": 114
    },
    {
      "midi": 69,
      "hit": false,
      "t": 158648.12641667263,
      "d": 953.3887500005949,
      "v": 127
    },
    {
      "midi": 81,
      "hit": false,
      "t": 158674.60943750598,
      "d": 455.5079583336483,
      "v": 112
    },
    {
      "midi": 98,
      "hit": false,
      "t": 158748.76189583933,
      "d": 10.593208333360963,
      "v": 70
    },
    {
      "midi": 100,
      "hit": false,
      "t": 158748.76189583933,
      "d": 10.593208333360963,
      "v": 54
    },
    {
      "midi": 105,
      "hit": false,
      "t": 158748.76189583933,
      "d": 10.593208333360963,
      "v": 64
    },
    {
      "midi": 82,
      "hit": false,
      "t": 158754.058500006,
      "d": 5.296604166680481,
      "v": 1
    },
    {
      "midi": 74,
      "hit": false,
      "t": 158754.058500006,
      "d": 31.779625000082888,
      "v": 81
    },
    {
      "midi": 42,
      "hit": false,
      "t": 158759.3551041727,
      "d": 5.296604166680481,
      "v": 47
    },
    {
      "midi": 61,
      "hit": false,
      "t": 158764.65170833937,
      "d": 5.296604166680481,
      "v": 65
    },
    {
      "midi": 77,
      "hit": false,
      "t": 158775.24491667273,
      "d": 5.296604166680481,
      "v": 64
    },
    {
      "midi": 42,
      "hit": false,
      "t": 158881.17700000614,
      "d": 5.296604166680481,
      "v": 87
    },
    {
      "midi": 61,
      "hit": false,
      "t": 158881.17700000614,
      "d": 5.296604166680481,
      "v": 74
    },
    {
      "midi": 77,
      "hit": false,
      "t": 158881.17700000614,
      "d": 5.296604166680481,
      "v": 13
    },
    {
      "midi": 82,
      "hit": false,
      "t": 158881.17700000614,
      "d": 5.296604166680481,
      "v": 9
    },
    {
      "midi": 74,
      "hit": false,
      "t": 158881.17700000614,
      "d": 31.77962500002468,
      "v": 127
    },
    {
      "midi": 40,
      "hit": false,
      "t": 158881.17700000614,
      "d": 217.16077083346318,
      "v": 65
    },
    {
      "midi": 47,
      "hit": false,
      "t": 158881.17700000614,
      "d": 217.16077083346318,
      "v": 65
    },
    {
      "midi": 35,
      "hit": false,
      "t": 158881.17700000614,
      "d": 243.64379166680737,
      "v": 80
    },
    {
      "midi": 23,
      "hit": false,
      "t": 158881.17700000614,
      "d": 248.94039583348786,
      "v": 100
    },
    {
      "midi": 98,
      "hit": false,
      "t": 159002.9988958395,
      "d": 10.593208333360963,
      "v": 97
    },
    {
      "midi": 100,
      "hit": false,
      "t": 159002.9988958395,
      "d": 10.593208333360963,
      "v": 81
    },
    {
      "midi": 105,
      "hit": false,
      "t": 159002.9988958395,
      "d": 10.593208333360963,
      "v": 91
    },
    {
      "midi": 82,
      "hit": false,
      "t": 159008.29550000618,
      "d": 5.296604166680481,
      "v": 36
    },
    {
      "midi": 74,
      "hit": false,
      "t": 159008.29550000618,
      "d": 31.779625000082888,
      "v": 92
    },
    {
      "midi": 42,
      "hit": false,
      "t": 159013.59210417286,
      "d": 5.296604166680481,
      "v": 48
    },
    {
      "midi": 61,
      "hit": false,
      "t": 159018.88870833954,
      "d": 5.296604166680481,
      "v": 44
    },
    {
      "midi": 77,
      "hit": false,
      "t": 159029.4819166729,
      "d": 5.296604166680481,
      "v": 59
    },
    {
      "midi": 42,
      "hit": false,
      "t": 159130.11739583962,
      "d": 5.296604166680481,
      "v": 77
    },
    {
      "midi": 40,
      "hit": false,
      "t": 159135.4140000063,
      "d": 5.296604166680481,
      "v": 93
    },
    {
      "midi": 60,
      "hit": false,
      "t": 159135.4140000063,
      "d": 5.296604166680481,
      "v": 68
    },
    {
      "midi": 77,
      "hit": false,
      "t": 159135.4140000063,
      "d": 5.296604166680481,
      "v": 57
    },
    {
      "midi": 82,
      "hit": false,
      "t": 159135.4140000063,
      "d": 5.296604166680481,
      "v": 7
    },
    {
      "midi": 74,
      "hit": false,
      "t": 159135.4140000063,
      "d": 31.77962500002468,
      "v": 108
    },
    {
      "midi": 35,
      "hit": false,
      "t": 159135.4140000063,
      "d": 74.15245833335212,
      "v": 120
    },
    {
      "midi": 45,
      "hit": false,
      "t": 159135.4140000063,
      "d": 328.38945833349135,
      "v": 65
    },
    {
      "midi": 33,
      "hit": false,
      "t": 159135.4140000063,
      "d": 370.7622916668188,
      "v": 80
    },
    {
      "midi": 21,
      "hit": false,
      "t": 159135.4140000063,
      "d": 376.05889583349926,
      "v": 100
    },
    {
      "midi": 82,
      "hit": false,
      "t": 159262.53250000632,
      "d": 5.296604166680481,
      "v": 1
    },
    {
      "midi": 74,
      "hit": false,
      "t": 159262.53250000632,
      "d": 31.779625000082888,
      "v": 98
    },
    {
      "midi": 42,
      "hit": false,
      "t": 159267.829104173,
      "d": 5.296604166680481,
      "v": 53
    },
    {
      "midi": 61,
      "hit": false,
      "t": 159273.12570833968,
      "d": 5.296604166680481,
      "v": 38
    },
    {
      "midi": 77,
      "hit": false,
      "t": 159283.71891667304,
      "d": 5.296604166680481,
      "v": 60
    },
    {
      "midi": 98,
      "hit": false,
      "t": 159384.35439583973,
      "d": 10.593208333360963,
      "v": 105
    },
    {
      "midi": 102,
      "hit": false,
      "t": 159384.35439583973,
      "d": 10.593208333360963,
      "v": 70
    },
    {
      "midi": 105,
      "hit": false,
      "t": 159384.35439583973,
      "d": 10.593208333360963,
      "v": 80
    },
    {
      "midi": 42,
      "hit": false,
      "t": 159389.65100000642,
      "d": 5.296604166680481,
      "v": 79
    },
    {
      "midi": 61,
      "hit": false,
      "t": 159389.65100000642,
      "d": 5.296604166680481,
      "v": 71
    },
    {
      "midi": 77,
      "hit": false,
      "t": 159389.65100000642,
      "d": 5.296604166680481,
      "v": 13
    },
    {
      "midi": 82,
      "hit": false,
      "t": 159389.65100000642,
      "d": 5.296604166680481,
      "v": 9
    },
    {
      "midi": 74,
      "hit": false,
      "t": 159389.65100000642,
      "d": 31.77962500002468,
      "v": 104
    },
    {
      "midi": 42,
      "hit": false,
      "t": 159516.76950000649,
      "d": 5.296604166680481,
      "v": 79
    },
    {
      "midi": 82,
      "hit": false,
      "t": 159516.76950000649,
      "d": 5.296604166680481,
      "v": 36
    },
    {
      "midi": 74,
      "hit": false,
      "t": 159516.76950000649,
      "d": 31.779625000082888,
      "v": 84
    },
    {
      "midi": 50,
      "hit": false,
      "t": 159516.76950000649,
      "d": 95.33887500007404,
      "v": 77
    },
    {
      "midi": 38,
      "hit": false,
      "t": 159516.76950000649,
      "d": 105.9320833334059,
      "v": 80
    },
    {
      "midi": 26,
      "hit": false,
      "t": 159516.76950000649,
      "d": 111.22868750008638,
      "v": 100
    },
    {
      "midi": 61,
      "hit": false,
      "t": 159527.36270833985,
      "d": 5.296604166680481,
      "v": 69
    },
    {
      "midi": 77,
      "hit": false,
      "t": 159537.9559166732,
      "d": 5.296604166680481,
      "v": 50
    },
    {
      "midi": 42,
      "hit": false,
      "t": 159638.5913958399,
      "d": 5.296604166680481,
      "v": 53
    },
    {
      "midi": 61,
      "hit": false,
      "t": 159643.88800000658,
      "d": 5.296604166680481,
      "v": 67
    },
    {
      "midi": 77,
      "hit": false,
      "t": 159643.88800000658,
      "d": 5.296604166680481,
      "v": 58
    },
    {
      "midi": 82,
      "hit": false,
      "t": 159643.88800000658,
      "d": 5.296604166680481,
      "v": 7
    },
    {
      "midi": 74,
      "hit": false,
      "t": 159643.88800000658,
      "d": 31.77962500002468,
      "v": 110
    },
    {
      "midi": 35,
      "hit": false,
      "t": 159643.88800000658,
      "d": 74.15245833335212,
      "v": 120
    },
    {
      "midi": 82,
      "hit": false,
      "t": 159771.0065000066,
      "d": 5.296604166680481,
      "v": 1
    },
    {
      "midi": 74,
      "hit": false,
      "t": 159771.0065000066,
      "d": 31.779625000082888,
      "v": 93
    },
    {
      "midi": 50,
      "hit": false,
      "t": 159771.0065000066,
      "d": 206.56756250013132,
      "v": 65
    },
    {
      "midi": 38,
      "hit": false,
      "t": 159771.0065000066,
      "d": 233.05058333347552,
      "v": 80
    },
    {
      "midi": 26,
      "hit": false,
      "t": 159771.0065000066,
      "d": 238.347187500156,
      "v": 100
    },
    {
      "midi": 42,
      "hit": false,
      "t": 159776.30310417328,
      "d": 5.296604166680481,
      "v": 45
    },
    {
      "midi": 61,
      "hit": false,
      "t": 159781.59970833996,
      "d": 5.296604166680481,
      "v": 65
    },
    {
      "midi": 77,
      "hit": false,
      "t": 159792.19291667332,
      "d": 5.296604166680481,
      "v": 52
    },
    {
      "midi": 98,
      "hit": false,
      "t": 159892.82839584,
      "d": 10.593208333360963,
      "v": 117
    },
    {
      "midi": 102,
      "hit": false,
      "t": 159892.82839584,
      "d": 10.593208333360963,
      "v": 82
    },
    {
      "midi": 105,
      "hit": false,
      "t": 159892.82839584,
      "d": 10.593208333360963,
      "v": 92
    },
    {
      "midi": 42,
      "hit": false,
      "t": 159898.1250000067,
      "d": 5.296604166680481,
      "v": 102
    },
    {
      "midi": 61,
      "hit": false,
      "t": 159898.1250000067,
      "d": 5.296604166680481,
      "v": 74
    },
    {
      "midi": 77,
      "hit": false,
      "t": 159898.1250000067,
      "d": 5.296604166680481,
      "v": 14
    },
    {
      "midi": 82,
      "hit": false,
      "t": 159898.1250000067,
      "d": 5.296604166680481,
      "v": 9
    },
    {
      "midi": 74,
      "hit": false,
      "t": 159898.1250000067,
      "d": 63.559250000020256,
      "v": 118
    },
    {
      "midi": 82,
      "hit": false,
      "t": 160025.24350000676,
      "d": 5.296604166680481,
      "v": 36
    },
    {
      "midi": 74,
      "hit": false,
      "t": 160025.24350000676,
      "d": 79.4490625000908,
      "v": 67
    },
    {
      "midi": 50,
      "hit": false,
      "t": 160025.24350000676,
      "d": 95.33887500010314,
      "v": 65
    },
    {
      "midi": 38,
      "hit": false,
      "t": 160025.24350000676,
      "d": 105.932083333435,
      "v": 80
    },
    {
      "midi": 26,
      "hit": false,
      "t": 160025.24350000676,
      "d": 111.22868750011548,
      "v": 100
    },
    {
      "midi": 42,
      "hit": false,
      "t": 160030.54010417344,
      "d": 5.296604166680481,
      "v": 48
    },
    {
      "midi": 61,
      "hit": false,
      "t": 160035.83670834012,
      "d": 5.296604166680481,
      "v": 51
    },
    {
      "midi": 77,
      "hit": false,
      "t": 160046.42991667349,
      "d": 5.296604166680481,
      "v": 57
    },
    {
      "midi": 42,
      "hit": false,
      "t": 160147.0653958402,
      "d": 5.296604166680481,
      "v": 53
    },
    {
      "midi": 40,
      "hit": false,
      "t": 160152.3620000069,
      "d": 5.296604166680481,
      "v": 93
    },
    {
      "midi": 49,
      "hit": false,
      "t": 160152.3620000069,
      "d": 5.296604166680481,
      "v": 99
    },
    {
      "midi": 57,
      "hit": false,
      "t": 160152.3620000069,
      "d": 5.296604166680481,
      "v": 99
    },
    {
      "midi": 60,
      "hit": false,
      "t": 160152.3620000069,
      "d": 5.296604166680481,
      "v": 68
    },
    {
      "midi": 77,
      "hit": false,
      "t": 160152.3620000069,
      "d": 5.296604166680481,
      "v": 56
    },
    {
      "midi": 82,
      "hit": false,
      "t": 160152.3620000069,
      "d": 5.296604166680481,
      "v": 7
    },
    {
      "midi": 74,
      "hit": false,
      "t": 160152.3620000069,
      "d": 31.77962500002468,
      "v": 126
    },
    {
      "midi": 86,
      "hit": false,
      "t": 160152.3620000069,
      "d": 58.26264583336888,
      "v": 108
    },
    {
      "midi": 35,
      "hit": false,
      "t": 160152.3620000069,
      "d": 74.15245833338122,
      "v": 120
    },
    {
      "midi": 78,
      "hit": false,
      "t": 160152.3620000069,
      "d": 95.33887500004494,
      "v": 91
    },
    {
      "midi": 62,
      "hit": false,
      "t": 160152.3620000069,
      "d": 100.63547916672542,
      "v": 127
    },
    {
      "midi": 52,
      "hit": false,
      "t": 160152.3620000069,
      "d": 105.9320833334059,
      "v": 65
    },
    {
      "midi": 28,
      "hit": false,
      "t": 160152.3620000069,
      "d": 238.3471875001851,
      "v": 100
    },
    {
      "midi": 50,
      "hit": false,
      "t": 160162.95520834025,
      "d": 100.63547916672542,
      "v": 106
    },
    {
      "midi": 82,
      "hit": false,
      "t": 160279.480500007,
      "d": 5.296604166680481,
      "v": 1
    },
    {
      "midi": 74,
      "hit": false,
      "t": 160279.480500007,
      "d": 31.779625000082888,
      "v": 121
    },
    {
      "midi": 52,
      "hit": false,
      "t": 160279.480500007,
      "d": 95.33887500007404,
      "v": 4
    },
    {
      "midi": 42,
      "hit": false,
      "t": 160284.77710417367,
      "d": 5.296604166680481,
      "v": 45
    },
    {
      "midi": 61,
      "hit": false,
      "t": 160290.07370834035,
      "d": 5.296604166680481,
      "v": 38
    },
    {
      "midi": 77,
      "hit": false,
      "t": 160300.6669166737,
      "d": 5.296604166680481,
      "v": 63
    },
    {
      "midi": 59,
      "hit": false,
      "t": 160390.70918750708,
      "d": 95.33887500004494,
      "v": 106
    },
    {
      "midi": 98,
      "hit": false,
      "t": 160401.3023958404,
      "d": 10.593208333360963,
      "v": 104
    },
    {
      "midi": 102,
      "hit": false,
      "t": 160401.3023958404,
      "d": 10.593208333360963,
      "v": 69
    },
    {
      "midi": 105,
      "hit": false,
      "t": 160401.3023958404,
      "d": 10.593208333360963,
      "v": 79
    },
    {
      "midi": 42,
      "hit": false,
      "t": 160406.5990000071,
      "d": 5.296604166680481,
      "v": 102
    },
    {
      "midi": 61,
      "hit": false,
      "t": 160406.5990000071,
      "d": 5.296604166680481,
      "v": 62
    },
    {
      "midi": 77,
      "hit": false,
      "t": 160406.5990000071,
      "d": 5.296604166680481,
      "v": 15
    },
    {
      "midi": 82,
      "hit": false,
      "t": 160406.5990000071,
      "d": 5.296604166680481,
      "v": 9
    },
    {
      "midi": 74,
      "hit": false,
      "t": 160406.5990000071,
      "d": 31.77962500002468,
      "v": 127
    },
    {
      "midi": 83,
      "hit": false,
      "t": 160406.5990000071,
      "d": 68.85585416670074,
      "v": 112
    },
    {
      "midi": 95,
      "hit": false,
      "t": 160406.5990000071,
      "d": 68.85585416670074,
      "v": 100
    },
    {
      "midi": 71,
      "hit": false,
      "t": 160406.5990000071,
      "d": 95.33887500004494,
      "v": 127
    },
    {
      "midi": 54,
      "hit": false,
      "t": 160406.5990000071,
      "d": 206.56756250016042,
      "v": 82
    },
    {
      "midi": 30,
      "hit": false,
      "t": 160406.5990000071,
      "d": 238.3471875002142,
      "v": 100
    },
    {
      "midi": 79,
      "hit": false,
      "t": 160406.5990000071,
      "d": 248.94039583357517,
      "v": 91
    },
    {
      "midi": 38,
      "hit": false,
      "t": 160533.71750000713,
      "d": 5.296604166680481,
      "v": 40
    },
    {
      "midi": 82,
      "hit": false,
      "t": 160533.71750000713,
      "d": 5.296604166680481,
      "v": 36
    },
    {
      "midi": 74,
      "hit": false,
      "t": 160533.71750000713,
      "d": 31.779625000082888,
      "v": 112
    },
    {
      "midi": 42,
      "hit": false,
      "t": 160539.0141041738,
      "d": 5.296604166680481,
      "v": 48
    },
    {
      "midi": 61,
      "hit": false,
      "t": 160544.3107083405,
      "d": 5.296604166680481,
      "v": 75
    },
    {
      "midi": 77,
      "hit": false,
      "t": 160554.90391667385,
      "d": 5.296604166680481,
      "v": 60
    },
    {
      "midi": 38,
      "hit": false,
      "t": 160576.09033334054,
      "d": 5.296604166680481,
      "v": 40
    },
    {
      "midi": 38,
      "hit": false,
      "t": 160618.46316667393,
      "d": 5.296604166680481,
      "v": 40
    },
    {
      "midi": 80,
      "hit": false,
      "t": 160644.9461875073,
      "d": 47.66943750009523,
      "v": 127
    },
    {
      "midi": 68,
      "hit": false,
      "t": 160650.24279167398,
      "d": 31.779625000053784,
      "v": 127
    },
    {
      "midi": 98,
      "hit": false,
      "t": 160655.53939584066,
      "d": 10.593208333360963,
      "v": 94
    },
    {
      "midi": 100,
      "hit": false,
      "t": 160655.53939584066,
      "d": 10.593208333360963,
      "v": 78
    },
    {
      "midi": 105,
      "hit": false,
      "t": 160655.53939584066,
      "d": 10.593208333360963,
      "v": 88
    },
    {
      "midi": 38,
      "hit": false,
      "t": 160660.83600000734,
      "d": 5.296604166680481,
      "v": 40
    },
    {
      "midi": 46,
      "hit": false,
      "t": 160660.83600000734,
      "d": 5.296604166680481,
      "v": 57
    },
    {
      "midi": 61,
      "hit": false,
      "t": 160660.83600000734,
      "d": 5.296604166680481,
      "v": 67
    },
    {
      "midi": 77,
      "hit": false,
      "t": 160660.83600000734,
      "d": 5.296604166680481,
      "v": 65
    },
    {
      "midi": 82,
      "hit": false,
      "t": 160660.83600000734,
      "d": 5.296604166680481,
      "v": 7
    },
    {
      "midi": 74,
      "hit": false,
      "t": 160660.83600000734,
      "d": 31.779625000053784,
      "v": 98
    },
    {
      "midi": 35,
      "hit": false,
      "t": 160660.83600000734,
      "d": 74.15245833338122,
      "v": 120
    },
    {
      "midi": 78,
      "hit": false,
      "t": 160660.83600000734,
      "d": 381.35550000026706,
      "v": 92
    },
    {
      "midi": 93,
      "hit": false,
      "t": 160660.83600000734,
      "d": 503.1773958337144,
      "v": 99
    },
    {
      "midi": 57,
      "hit": false,
      "t": 160671.4292083407,
      "d": 148.30491666679154,
      "v": 124
    },
    {
      "midi": 69,
      "hit": false,
      "t": 160671.4292083407,
      "d": 148.30491666679154,
      "v": 124
    },
    {
      "midi": 45,
      "hit": false,
      "t": 160671.4292083407,
      "d": 206.56756250013132,
      "v": 65
    },
    {
      "midi": 33,
      "hit": false,
      "t": 160671.4292083407,
      "d": 233.05058333347552,
      "v": 80
    },
    {
      "midi": 21,
      "hit": false,
      "t": 160671.4292083407,
      "d": 238.347187500156,
      "v": 100
    },
    {
      "midi": 81,
      "hit": false,
      "t": 160687.31902084072,
      "d": 354.87247916689375,
      "v": 127
    },
    {
      "midi": 98,
      "hit": false,
      "t": 160782.65789584073,
      "d": 10.593208333360963,
      "v": 70
    },
    {
      "midi": 100,
      "hit": false,
      "t": 160782.65789584073,
      "d": 10.593208333360963,
      "v": 54
    },
    {
      "midi": 105,
      "hit": false,
      "t": 160782.65789584073,
      "d": 10.593208333360963,
      "v": 64
    },
    {
      "midi": 82,
      "hit": false,
      "t": 160787.9545000074,
      "d": 5.296604166680481,
      "v": 1
    },
    {
      "midi": 74,
      "hit": false,
      "t": 160787.9545000074,
      "d": 31.779625000082888,
      "v": 81
    },
    {
      "midi": 42,
      "hit": false,
      "t": 160793.2511041741,
      "d": 5.296604166680481,
      "v": 47
    },
    {
      "midi": 59,
      "hit": false,
      "t": 160793.2511041741,
      "d": 148.30491666682065,
      "v": 124
    },
    {
      "midi": 71,
      "hit": false,
      "t": 160793.2511041741,
      "d": 148.30491666682065,
      "v": 124
    },
    {
      "midi": 61,
      "hit": false,
      "t": 160798.54770834077,
      "d": 5.296604166680481,
      "v": 65
    },
    {
      "midi": 77,
      "hit": false,
      "t": 160809.14091667414,
      "d": 5.296604166680481,
      "v": 64
    },
    {
      "midi": 46,
      "hit": false,
      "t": 160915.07300000754,
      "d": 5.296604166680481,
      "v": 76
    },
    {
      "midi": 61,
      "hit": false,
      "t": 160915.07300000754,
      "d": 5.296604166680481,
      "v": 124
    },
    {
      "midi": 77,
      "hit": false,
      "t": 160915.07300000754,
      "d": 5.296604166680481,
      "v": 13
    },
    {
      "midi": 82,
      "hit": false,
      "t": 160915.07300000754,
      "d": 5.296604166680481,
      "v": 9
    },
    {
      "midi": 74,
      "hit": false,
      "t": 160915.07300000754,
      "d": 31.779625000053784,
      "v": 127
    },
    {
      "midi": 73,
      "hit": false,
      "t": 160915.07300000754,
      "d": 121.82189583338914,
      "v": 124
    },
    {
      "midi": 45,
      "hit": false,
      "t": 160925.6662083409,
      "d": 206.56756250013132,
      "v": 65
    },
    {
      "midi": 33,
      "hit": false,
      "t": 160925.6662083409,
      "d": 233.05058333347552,
      "v": 80
    },
    {
      "midi": 21,
      "hit": false,
      "t": 160925.6662083409,
      "d": 238.347187500156,
      "v": 100
    },
    {
      "midi": 62,
      "hit": false,
      "t": 161010.4118750076,
      "d": 148.30491666679154,
      "v": 124
    },
    {
      "midi": 98,
      "hit": false,
      "t": 161036.89489584093,
      "d": 10.593208333360963,
      "v": 97
    },
    {
      "midi": 100,
      "hit": false,
      "t": 161036.89489584093,
      "d": 10.593208333360963,
      "v": 81
    },
    {
      "midi": 105,
      "hit": false,
      "t": 161036.89489584093,
      "d": 10.593208333360963,
      "v": 91
    },
    {
      "midi": 82,
      "hit": false,
      "t": 161042.1915000076,
      "d": 5.296604166680481,
      "v": 36
    },
    {
      "midi": 74,
      "hit": false,
      "t": 161042.1915000076,
      "d": 31.779625000082888,
      "v": 92
    },
    {
      "midi": 61,
      "hit": false,
      "t": 161052.78470834097,
      "d": 5.296604166680481,
      "v": 44
    },
    {
      "midi": 77,
      "hit": false,
      "t": 161063.37791667433,
      "d": 5.296604166680481,
      "v": 59
    },
    {
      "midi": 64,
      "hit": false,
      "t": 161132.23377084103,
      "d": 105.9320833334059,
      "v": 125
    },
    {
      "midi": 76,
      "hit": false,
      "t": 161132.23377084103,
      "d": 105.9320833334059,
      "v": 125
    },
    {
      "midi": 42,
      "hit": false,
      "t": 161164.01339584106,
      "d": 5.296604166680481,
      "v": 77
    },
    {
      "midi": 40,
      "hit": false,
      "t": 161169.31000000774,
      "d": 5.296604166680481,
      "v": 93
    },
    {
      "midi": 60,
      "hit": false,
      "t": 161169.31000000774,
      "d": 5.296604166680481,
      "v": 68
    },
    {
      "midi": 77,
      "hit": false,
      "t": 161169.31000000774,
      "d": 5.296604166680481,
      "v": 57
    },
    {
      "midi": 82,
      "hit": false,
      "t": 161169.31000000774,
      "d": 5.296604166680481,
      "v": 7
    },
    {
      "midi": 74,
      "hit": false,
      "t": 161169.31000000774,
      "d": 31.77962500002468,
      "v": 108
    },
    {
      "midi": 71,
      "hit": false,
      "t": 161169.31000000774,
      "d": 280.72002083354164,
      "v": 127
    },
    {
      "midi": 95,
      "hit": false,
      "t": 161169.31000000774,
      "d": 291.3132291669026,
      "v": 96
    },
    {
      "midi": 59,
      "hit": false,
      "t": 161174.60660417442,
      "d": 280.72002083354164,
      "v": 106
    },
    {
      "midi": 35,
      "hit": false,
      "t": 161179.9032083411,
      "d": 63.559250000020256,
      "v": 80
    },
    {
      "midi": 47,
      "hit": false,
      "t": 161179.9032083411,
      "d": 206.5675625001022,
      "v": 65
    },
    {
      "midi": 23,
      "hit": false,
      "t": 161179.9032083411,
      "d": 238.3471875001269,
      "v": 100
    },
    {
      "midi": 83,
      "hit": false,
      "t": 161201.08962500776,
      "d": 264.8302083335584,
      "v": 127
    },
    {
      "midi": 66,
      "hit": false,
      "t": 161206.38622917444,
      "d": 143.00831250008196,
      "v": 125
    },
    {
      "midi": 78,
      "hit": false,
      "t": 161206.38622917444,
      "d": 143.00831250008196,
      "v": 125
    },
    {
      "midi": 82,
      "hit": false,
      "t": 161296.42850000778,
      "d": 5.296604166680481,
      "v": 1
    },
    {
      "midi": 74,
      "hit": false,
      "t": 161296.42850000778,
      "d": 31.779625000082888,
      "v": 98
    },
    {
      "midi": 42,
      "hit": false,
      "t": 161301.72510417446,
      "d": 5.296604166680481,
      "v": 53
    },
    {
      "midi": 61,
      "hit": false,
      "t": 161307.02170834114,
      "d": 5.296604166680481,
      "v": 38
    },
    {
      "midi": 77,
      "hit": false,
      "t": 161317.6149166745,
      "d": 5.296604166680481,
      "v": 60
    },
    {
      "midi": 67,
      "hit": false,
      "t": 161322.91152084118,
      "d": 121.82189583341824,
      "v": 125
    },
    {
      "midi": 79,
      "hit": false,
      "t": 161322.91152084118,
      "d": 121.82189583341824,
      "v": 125
    },
    {
      "midi": 69,
      "hit": false,
      "t": 161338.8013333412,
      "d": 153.60152083347202,
      "v": 125
    },
    {
      "midi": 81,
      "hit": false,
      "t": 161338.8013333412,
      "d": 153.60152083347202,
      "v": 125
    },
    {
      "midi": 98,
      "hit": false,
      "t": 161418.25039584123,
      "d": 10.593208333360963,
      "v": 105
    },
    {
      "midi": 102,
      "hit": false,
      "t": 161418.25039584123,
      "d": 10.593208333360963,
      "v": 70
    },
    {
      "midi": 105,
      "hit": false,
      "t": 161418.25039584123,
      "d": 10.593208333360963,
      "v": 80
    },
    {
      "midi": 42,
      "hit": false,
      "t": 161423.5470000079,
      "d": 5.296604166680481,
      "v": 79
    },
    {
      "midi": 61,
      "hit": false,
      "t": 161423.5470000079,
      "d": 5.296604166680481,
      "v": 71
    },
    {
      "midi": 77,
      "hit": false,
      "t": 161423.5470000079,
      "d": 5.296604166680481,
      "v": 13
    },
    {
      "midi": 82,
      "hit": false,
      "t": 161423.5470000079,
      "d": 5.296604166680481,
      "v": 9
    },
    {
      "midi": 74,
      "hit": false,
      "t": 161423.5470000079,
      "d": 31.779625000053784,
      "v": 104
    },
    {
      "midi": 83,
      "hit": false,
      "t": 161465.91983334132,
      "d": 79.44906250000349,
      "v": 126
    },
    {
      "midi": 71,
      "hit": false,
      "t": 161465.91983334132,
      "d": 105.9320833334059,
      "v": 126
    },
    {
      "midi": 73,
      "hit": false,
      "t": 161487.106250008,
      "d": 153.60152083344292,
      "v": 126
    },
    {
      "midi": 85,
      "hit": false,
      "t": 161487.106250008,
      "d": 153.60152083344292,
      "v": 126
    },
    {
      "midi": 40,
      "hit": false,
      "t": 161550.665500008,
      "d": 5.296604166680481,
      "v": 93
    },
    {
      "midi": 42,
      "hit": false,
      "t": 161550.665500008,
      "d": 5.296604166680481,
      "v": 103
    },
    {
      "midi": 82,
      "hit": false,
      "t": 161550.665500008,
      "d": 5.296604166680481,
      "v": 36
    },
    {
      "midi": 74,
      "hit": false,
      "t": 161550.665500008,
      "d": 31.779625000082888,
      "v": 126
    },
    {
      "midi": 69,
      "hit": false,
      "t": 161550.665500008,
      "d": 105.932083333435,
      "v": 99
    },
    {
      "midi": 50,
      "hit": false,
      "t": 161550.665500008,
      "d": 105.932083333435,
      "v": 88
    },
    {
      "midi": 38,
      "hit": false,
      "t": 161550.665500008,
      "d": 116.52529166679597,
      "v": 89
    },
    {
      "midi": 26,
      "hit": false,
      "t": 161550.665500008,
      "d": 121.82189583347645,
      "v": 109
    },
    {
      "midi": 78,
      "hit": false,
      "t": 161550.665500008,
      "d": 127.11850000015693,
      "v": 95
    },
    {
      "midi": 61,
      "hit": false,
      "t": 161561.25870834137,
      "d": 5.296604166680481,
      "v": 69
    },
    {
      "midi": 98,
      "hit": false,
      "t": 161561.25870834137,
      "d": 121.82189583347645,
      "v": 104
    },
    {
      "midi": 77,
      "hit": false,
      "t": 161571.85191667473,
      "d": 5.296604166680481,
      "v": 50
    },
    {
      "midi": 86,
      "hit": false,
      "t": 161582.4451250081,
      "d": 74.15245833335212,
      "v": 127
    },
    {
      "midi": 35,
      "hit": false,
      "t": 161677.78400000816,
      "d": 74.15245833338122,
      "v": 120
    },
    {
      "midi": 40,
      "hit": false,
      "t": 161804.9025000082,
      "d": 5.296604166680481,
      "v": 93
    },
    {
      "midi": 42,
      "hit": false,
      "t": 161804.9025000082,
      "d": 5.296604166680481,
      "v": 88
    },
    {
      "midi": 74,
      "hit": false,
      "t": 161804.9025000082,
      "d": 79.4490625000326,
      "v": 96
    },
    {
      "midi": 66,
      "hit": false,
      "t": 161804.9025000082,
      "d": 84.74566666671308,
      "v": 96
    },
    {
      "midi": 69,
      "hit": false,
      "t": 161804.9025000082,
      "d": 95.33887500004494,
      "v": 99
    },
    {
      "midi": 50,
      "hit": false,
      "t": 161804.9025000082,
      "d": 105.9320833333768,
      "v": 74
    },
    {
      "midi": 38,
      "hit": false,
      "t": 161804.9025000082,
      "d": 116.52529166673776,
      "v": 89
    },
    {
      "midi": 26,
      "hit": false,
      "t": 161804.9025000082,
      "d": 121.82189583341824,
      "v": 109
    },
    {
      "midi": 78,
      "hit": false,
      "t": 161804.9025000082,
      "d": 127.11850000009872,
      "v": 95
    },
    {
      "midi": 57,
      "hit": false,
      "t": 161804.9025000082,
      "d": 248.94039583345875,
      "v": 105
    },
    {
      "midi": 62,
      "hit": false,
      "t": 161804.9025000082,
      "d": 248.94039583345875,
      "v": 105
    },
    {
      "midi": 86,
      "hit": false,
      "t": 161815.49570834156,
      "d": 74.15245833335212,
      "v": 106
    },
    {
      "midi": 98,
      "hit": false,
      "t": 161815.49570834156,
      "d": 121.82189583341824,
      "v": 91
    },
    {
      "midi": 40,
      "hit": false,
      "t": 162059.13950000834,
      "d": 5.296604166680481,
      "v": 93
    },
    {
      "midi": 42,
      "hit": false,
      "t": 162059.13950000834,
      "d": 5.296604166680481,
      "v": 88
    },
    {
      "midi": 69,
      "hit": false,
      "t": 162059.13950000834,
      "d": 42.37283333335654,
      "v": 97
    },
    {
      "midi": 74,
      "hit": false,
      "t": 162059.13950000834,
      "d": 42.37283333335654,
      "v": 96
    },
    {
      "midi": 86,
      "hit": false,
      "t": 162059.13950000834,
      "d": 47.66943750003702,
      "v": 125
    },
    {
      "midi": 66,
      "hit": false,
      "t": 162059.13950000834,
      "d": 68.85585416672984,
      "v": 96
    },
    {
      "midi": 50,
      "hit": false,
      "t": 162059.13950000834,
      "d": 105.9320833334059,
      "v": 74
    },
    {
      "midi": 38,
      "hit": false,
      "t": 162059.13950000834,
      "d": 116.52529166673776,
      "v": 89
    },
    {
      "midi": 26,
      "hit": false,
      "t": 162059.13950000834,
      "d": 121.82189583341824,
      "v": 109
    },
    {
      "midi": 78,
      "hit": false,
      "t": 162059.13950000834,
      "d": 121.82189583341824,
      "v": 95
    },
    {
      "midi": 57,
      "hit": false,
      "t": 162059.13950000834,
      "d": 121.82189583341824,
      "v": 105
    },
    {
      "midi": 62,
      "hit": false,
      "t": 162059.13950000834,
      "d": 121.82189583341824,
      "v": 105
    },
    {
      "midi": 98,
      "hit": false,
      "t": 162069.7327083417,
      "d": 111.22868750005728,
      "v": 91
    },
    {
      "midi": 86,
      "hit": false,
      "t": 162180.96139584176,
      "d": 0,
      "v": 127
    },
    {
      "midi": 42,
      "hit": false,
      "t": 162180.96139584176,
      "d": 5.296604166680481,
      "v": 88
    },
    {
      "midi": 40,
      "hit": false,
      "t": 162186.25800000844,
      "d": 5.296604166680481,
      "v": 93
    },
    {
      "midi": 50,
      "hit": false,
      "t": 162186.25800000844,
      "d": 47.66943750003702,
      "v": 83
    },
    {
      "midi": 38,
      "hit": false,
      "t": 162186.25800000844,
      "d": 52.9660416667175,
      "v": 89
    },
    {
      "midi": 26,
      "hit": false,
      "t": 162186.25800000844,
      "d": 68.85585416672984,
      "v": 109
    },
    {
      "midi": 35,
      "hit": false,
      "t": 162186.25800000844,
      "d": 74.15245833341032,
      "v": 120
    },
    {
      "midi": 69,
      "hit": false,
      "t": 162186.25800000844,
      "d": 84.74566666674218,
      "v": 96
    },
    {
      "midi": 66,
      "hit": false,
      "t": 162186.25800000844,
      "d": 100.63547916675452,
      "v": 96
    },
    {
      "midi": 74,
      "hit": false,
      "t": 162186.25800000844,
      "d": 100.63547916675452,
      "v": 96
    },
    {
      "midi": 98,
      "hit": false,
      "t": 162186.25800000844,
      "d": 121.82189583344734,
      "v": 98
    },
    {
      "midi": 57,
      "hit": false,
      "t": 162186.25800000844,
      "d": 121.82189583344734,
      "v": 105
    },
    {
      "midi": 62,
      "hit": false,
      "t": 162186.25800000844,
      "d": 121.82189583344734,
      "v": 105
    },
    {
      "midi": 78,
      "hit": false,
      "t": 162186.25800000844,
      "d": 127.11850000012782,
      "v": 99
    },
    {
      "midi": 86,
      "hit": false,
      "t": 162191.55460417512,
      "d": 58.26264583336888,
      "v": 106
    },
    {
      "midi": 40,
      "hit": false,
      "t": 162440.49500000855,
      "d": 5.296604166680481,
      "v": 93
    },
    {
      "midi": 42,
      "hit": false,
      "t": 162440.49500000855,
      "d": 5.296604166680481,
      "v": 88
    },
    {
      "midi": 50,
      "hit": false,
      "t": 162440.49500000855,
      "d": 47.669437500007916,
      "v": 74
    },
    {
      "midi": 38,
      "hit": false,
      "t": 162440.49500000855,
      "d": 52.9660416666884,
      "v": 89
    },
    {
      "midi": 26,
      "hit": false,
      "t": 162440.49500000855,
      "d": 68.85585416670074,
      "v": 109
    },
    {
      "midi": 69,
      "hit": false,
      "t": 162440.49500000855,
      "d": 74.15245833338122,
      "v": 97
    },
    {
      "midi": 74,
      "hit": false,
      "t": 162440.49500000855,
      "d": 74.15245833338122,
      "v": 96
    },
    {
      "midi": 66,
      "hit": false,
      "t": 162440.49500000855,
      "d": 90.04227083339356,
      "v": 96
    },
    {
      "midi": 98,
      "hit": false,
      "t": 162440.49500000855,
      "d": 121.82189583341824,
      "v": 91
    },
    {
      "midi": 57,
      "hit": false,
      "t": 162440.49500000855,
      "d": 121.82189583341824,
      "v": 105
    },
    {
      "midi": 62,
      "hit": false,
      "t": 162440.49500000855,
      "d": 121.82189583341824,
      "v": 105
    },
    {
      "midi": 78,
      "hit": false,
      "t": 162440.49500000855,
      "d": 169.49133333342616,
      "v": 95
    },
    {
      "midi": 86,
      "hit": false,
      "t": 162445.79160417523,
      "d": 79.4490625000326,
      "v": 106
    },
    {
      "midi": 42,
      "hit": false,
      "t": 162689.43539584198,
      "d": 5.296604166680481,
      "v": 88
    },
    {
      "midi": 83,
      "hit": false,
      "t": 162689.43539584198,
      "d": 1996.8197708334774,
      "v": 95
    },
    {
      "midi": 35,
      "hit": false,
      "t": 162694.73200000866,
      "d": 74.15245833335212,
      "v": 120
    },
    {
      "midi": 38,
      "hit": false,
      "t": 162694.73200000866,
      "d": 116.52529166667955,
      "v": 89
    },
    {
      "midi": 26,
      "hit": false,
      "t": 162694.73200000866,
      "d": 121.82189583336003,
      "v": 109
    },
    {
      "midi": 98,
      "hit": false,
      "t": 162694.73200000866,
      "d": 121.82189583336003,
      "v": 101
    },
    {
      "midi": 66,
      "hit": false,
      "t": 162694.73200000866,
      "d": 127.11850000004051,
      "v": 96
    },
    {
      "midi": 74,
      "hit": false,
      "t": 162694.73200000866,
      "d": 127.11850000004051,
      "v": 96
    },
    {
      "midi": 69,
      "hit": false,
      "t": 162694.73200000866,
      "d": 137.71170833337237,
      "v": 107
    },
    {
      "midi": 50,
      "hit": false,
      "t": 162694.73200000866,
      "d": 217.16077083337586,
      "v": 92
    },
    {
      "midi": 57,
      "hit": false,
      "t": 162694.73200000866,
      "d": 248.94039583340054,
      "v": 105
    },
    {
      "midi": 64,
      "hit": false,
      "t": 162694.73200000866,
      "d": 248.94039583340054,
      "v": 100
    },
    {
      "midi": 78,
      "hit": false,
      "t": 162694.73200000866,
      "d": 254.23700000008103,
      "v": 104
    },
    {
      "midi": 86,
      "hit": false,
      "t": 162700.02860417534,
      "d": 121.82189583336003,
      "v": 106
    },
    {
      "midi": 42,
      "hit": false,
      "t": 163706.38339584201,
      "d": 5.296604166680481,
      "v": 55
    },
    {
      "midi": 35,
      "hit": false,
      "t": 163711.6800000087,
      "d": 74.15245833332301,
      "v": 120
    },
    {
      "midi": 62,
      "hit": false,
      "t": 163711.6800000087,
      "d": 116.52529166665045,
      "v": 92
    },
    {
      "midi": 79,
      "hit": false,
      "t": 163711.6800000087,
      "d": 116.52529166665045,
      "v": 127
    },
    {
      "midi": 93,
      "hit": false,
      "t": 163711.6800000087,
      "d": 116.52529166665045,
      "v": 109
    },
    {
      "midi": 57,
      "hit": false,
      "t": 163711.6800000087,
      "d": 354.87247916669,
      "v": 81
    },
    {
      "midi": 65,
      "hit": false,
      "t": 163711.6800000087,
      "d": 376.05889583338285,
      "v": 116
    },
    {
      "midi": 72,
      "hit": false,
      "t": 163838.79850000868,
      "d": 116.52529166667955,
      "v": 104
    },
    {
      "midi": 81,
      "hit": false,
      "t": 163838.79850000868,
      "d": 116.52529166667955,
      "v": 127
    },
    {
      "midi": 91,
      "hit": false,
      "t": 163838.79850000868,
      "d": 116.52529166667955,
      "v": 109
    },
    {
      "midi": 42,
      "hit": false,
      "t": 163844.09510417536,
      "d": 5.296604166680481,
      "v": 20
    },
    {
      "midi": 42,
      "hit": false,
      "t": 163965.9170000087,
      "d": 5.296604166680481,
      "v": 70
    },
    {
      "midi": 69,
      "hit": false,
      "t": 163965.9170000087,
      "d": 116.52529166670865,
      "v": 104
    },
    {
      "midi": 74,
      "hit": false,
      "t": 163965.9170000087,
      "d": 243.64379166674917,
      "v": 127
    },
    {
      "midi": 86,
      "hit": false,
      "t": 163965.9170000087,
      "d": 243.64379166674917,
      "v": 109
    },
    {
      "midi": 79,
      "hit": false,
      "t": 164093.03550000876,
      "d": 105.93208333334769,
      "v": 67
    },
    {
      "midi": 62,
      "hit": false,
      "t": 164093.03550000876,
      "d": 116.52529166667955,
      "v": 104
    },
    {
      "midi": 42,
      "hit": false,
      "t": 164098.33210417544,
      "d": 5.296604166680481,
      "v": 10
    },
    {
      "midi": 46,
      "hit": false,
      "t": 164220.15400000877,
      "d": 5.296604166680481,
      "v": 65
    },
    {
      "midi": 35,
      "hit": false,
      "t": 164220.15400000877,
      "d": 74.15245833335212,
      "v": 120
    },
    {
      "midi": 81,
      "hit": false,
      "t": 164220.15400000877,
      "d": 105.93208333334769,
      "v": 67
    },
    {
      "midi": 74,
      "hit": false,
      "t": 164220.15400000877,
      "d": 116.52529166667955,
      "v": 104
    },
    {
      "midi": 79,
      "hit": false,
      "t": 164220.15400000877,
      "d": 116.52529166667955,
      "v": 127
    },
    {
      "midi": 91,
      "hit": false,
      "t": 164220.15400000877,
      "d": 116.52529166667955,
      "v": 109
    },
    {
      "midi": 72,
      "hit": false,
      "t": 164347.27250000878,
      "d": 116.52529166665045,
      "v": 104
    },
    {
      "midi": 74,
      "hit": false,
      "t": 164347.27250000878,
      "d": 233.05058333333,
      "v": 67
    },
    {
      "midi": 42,
      "hit": false,
      "t": 164474.39100000876,
      "d": 5.296604166680481,
      "v": 70
    },
    {
      "midi": 71,
      "hit": false,
      "t": 164474.39100000876,
      "d": 116.52529166667955,
      "v": 104
    },
    {
      "midi": 76,
      "hit": false,
      "t": 164474.39100000876,
      "d": 116.52529166667955,
      "v": 115
    },
    {
      "midi": 88,
      "hit": false,
      "t": 164474.39100000876,
      "d": 116.52529166667955,
      "v": 109
    },
    {
      "midi": 79,
      "hit": false,
      "t": 164601.50950000877,
      "d": 105.93208333334769,
      "v": 73
    },
    {
      "midi": 72,
      "hit": false,
      "t": 164601.50950000877,
      "d": 116.52529166667955,
      "v": 104
    },
    {
      "midi": 42,
      "hit": false,
      "t": 164606.80610417546,
      "d": 5.296604166680481,
      "v": 10
    },
    {
      "midi": 42,
      "hit": false,
      "t": 164723.33139584213,
      "d": 5.296604166680481,
      "v": 46
    },
    {
      "midi": 35,
      "hit": false,
      "t": 164728.62800000882,
      "d": 74.15245833332301,
      "v": 120
    },
    {
      "midi": 69,
      "hit": false,
      "t": 164728.62800000882,
      "d": 100.63547916666721,
      "v": 100
    },
    {
      "midi": 72,
      "hit": false,
      "t": 164728.62800000882,
      "d": 116.52529166667955,
      "v": 104
    },
    {
      "midi": 81,
      "hit": false,
      "t": 164728.62800000882,
      "d": 116.52529166667955,
      "v": 109
    },
    {
      "midi": 76,
      "hit": false,
      "t": 164855.74650000883,
      "d": 105.93208333334769,
      "v": 54
    },
    {
      "midi": 72,
      "hit": false,
      "t": 164855.74650000883,
      "d": 116.52529166667955,
      "v": 104
    },
    {
      "midi": 42,
      "hit": false,
      "t": 164861.0431041755,
      "d": 5.296604166680481,
      "v": 42
    },
    {
      "midi": 42,
      "hit": false,
      "t": 164982.86500000884,
      "d": 5.296604166680481,
      "v": 55
    },
    {
      "midi": 71,
      "hit": false,
      "t": 164982.86500000884,
      "d": 116.52529166667955,
      "v": 104
    },
    {
      "midi": 74,
      "hit": false,
      "t": 164982.86500000884,
      "d": 243.64379166669096,
      "v": 115
    },
    {
      "midi": 86,
      "hit": false,
      "t": 164982.86500000884,
      "d": 243.64379166669096,
      "v": 109
    },
    {
      "midi": 69,
      "hit": false,
      "t": 165109.98350000885,
      "d": 105.93208333334769,
      "v": 54
    },
    {
      "midi": 72,
      "hit": false,
      "t": 165109.98350000885,
      "d": 116.52529166667955,
      "v": 104
    },
    {
      "midi": 42,
      "hit": false,
      "t": 165115.28010417553,
      "d": 5.296604166680481,
      "v": 65
    },
    {
      "midi": 46,
      "hit": false,
      "t": 165237.10200000886,
      "d": 5.296604166680481,
      "v": 60
    },
    {
      "midi": 35,
      "hit": false,
      "t": 165237.10200000886,
      "d": 74.15245833335212,
      "v": 120
    },
    {
      "midi": 76,
      "hit": false,
      "t": 165237.10200000886,
      "d": 116.52529166667955,
      "v": 104
    },
    {
      "midi": 77,
      "hit": false,
      "t": 165237.10200000886,
      "d": 243.64379166669096,
      "v": 115
    },
    {
      "midi": 89,
      "hit": false,
      "t": 165237.10200000886,
      "d": 243.64379166669096,
      "v": 109
    },
    {
      "midi": 72,
      "hit": false,
      "t": 165364.22050000887,
      "d": 116.52529166667955,
      "v": 104
    },
    {
      "midi": 74,
      "hit": false,
      "t": 165364.22050000887,
      "d": 233.0505833333591,
      "v": 54
    },
    {
      "midi": 42,
      "hit": false,
      "t": 165491.33900000888,
      "d": 5.296604166680481,
      "v": 55
    },
    {
      "midi": 71,
      "hit": false,
      "t": 165491.33900000888,
      "d": 116.52529166667955,
      "v": 104
    },
    {
      "midi": 79,
      "hit": false,
      "t": 165491.33900000888,
      "d": 243.64379166669096,
      "v": 115
    },
    {
      "midi": 91,
      "hit": false,
      "t": 165491.33900000888,
      "d": 243.64379166669096,
      "v": 109
    },
    {
      "midi": 42,
      "hit": false,
      "t": 165618.4575000089,
      "d": 5.296604166680481,
      "v": 10
    },
    {
      "midi": 69,
      "hit": false,
      "t": 165618.4575000089,
      "d": 116.52529166667955,
      "v": 104
    },
    {
      "midi": 77,
      "hit": false,
      "t": 165618.4575000089,
      "d": 233.0505833333882,
      "v": 54
    },
    {
      "midi": 42,
      "hit": false,
      "t": 165740.27939584226,
      "d": 5.296604166680481,
      "v": 55
    },
    {
      "midi": 65,
      "hit": false,
      "t": 165745.57600000894,
      "d": 58.262645833339775,
      "v": 100
    },
    {
      "midi": 35,
      "hit": false,
      "t": 165745.57600000894,
      "d": 74.15245833335212,
      "v": 120
    },
    {
      "midi": 71,
      "hit": false,
      "t": 165745.57600000894,
      "d": 116.52529166667955,
      "v": 104
    },
    {
      "midi": 81,
      "hit": false,
      "t": 165745.57600000894,
      "d": 116.52529166667955,
      "v": 127
    },
    {
      "midi": 93,
      "hit": false,
      "t": 165745.57600000894,
      "d": 116.52529166667955,
      "v": 109
    },
    {
      "midi": 72,
      "hit": false,
      "t": 165872.69450000895,
      "d": 116.52529166670865,
      "v": 104
    },
    {
      "midi": 79,
      "hit": false,
      "t": 165872.69450000895,
      "d": 233.0505833333882,
      "v": 54
    },
    {
      "midi": 42,
      "hit": false,
      "t": 165877.99110417563,
      "d": 5.296604166680481,
      "v": 20
    },
    {
      "midi": 42,
      "hit": false,
      "t": 165999.813000009,
      "d": 5.296604166680481,
      "v": 70
    },
    {
      "midi": 74,
      "hit": false,
      "t": 165999.813000009,
      "d": 116.52529166667955,
      "v": 104
    },
    {
      "midi": 93,
      "hit": false,
      "t": 165999.813000009,
      "d": 243.64379166669096,
      "v": 109
    },
    {
      "midi": 81,
      "hit": false,
      "t": 166126.931500009,
      "d": 105.93208333334769,
      "v": 66
    },
    {
      "midi": 72,
      "hit": false,
      "t": 166126.931500009,
      "d": 116.52529166667955,
      "v": 104
    },
    {
      "midi": 42,
      "hit": false,
      "t": 166132.22810417568,
      "d": 5.296604166680481,
      "v": 10
    },
    {
      "midi": 67,
      "hit": false,
      "t": 166248.75339584236,
      "d": 503.17739583342336,
      "v": 52
    },
    {
      "midi": 46,
      "hit": false,
      "t": 166254.05000000904,
      "d": 5.296604166680481,
      "v": 65
    },
    {
      "midi": 35,
      "hit": false,
      "t": 166254.05000000904,
      "d": 74.15245833335212,
      "v": 120
    },
    {
      "midi": 76,
      "hit": false,
      "t": 166254.05000000904,
      "d": 116.52529166667955,
      "v": 104
    },
    {
      "midi": 79,
      "hit": false,
      "t": 166254.05000000904,
      "d": 243.64379166669096,
      "v": 115
    },
    {
      "midi": 91,
      "hit": false,
      "t": 166254.05000000904,
      "d": 243.64379166669096,
      "v": 109
    },
    {
      "midi": 72,
      "hit": false,
      "t": 166381.16850000905,
      "d": 116.52529166667955,
      "v": 104
    },
    {
      "midi": 81,
      "hit": false,
      "t": 166381.16850000905,
      "d": 233.0505833333591,
      "v": 54
    },
    {
      "midi": 42,
      "hit": false,
      "t": 166508.28700000906,
      "d": 5.296604166680481,
      "v": 70
    },
    {
      "midi": 71,
      "hit": false,
      "t": 166508.28700000906,
      "d": 116.52529166667955,
      "v": 104
    },
    {
      "midi": 76,
      "hit": false,
      "t": 166508.28700000906,
      "d": 243.64379166672006,
      "v": 115
    },
    {
      "midi": 88,
      "hit": false,
      "t": 166508.28700000906,
      "d": 243.64379166672006,
      "v": 109
    },
    {
      "midi": 72,
      "hit": false,
      "t": 166635.40550000907,
      "d": 116.52529166670865,
      "v": 104
    },
    {
      "midi": 79,
      "hit": false,
      "t": 166635.40550000907,
      "d": 233.0505833334173,
      "v": 54
    },
    {
      "midi": 42,
      "hit": false,
      "t": 166640.70210417575,
      "d": 5.296604166680481,
      "v": 10
    },
    {
      "midi": 42,
      "hit": false,
      "t": 166757.22739584246,
      "d": 5.296604166680481,
      "v": 46
    },
    {
      "midi": 64,
      "hit": false,
      "t": 166757.22739584246,
      "d": 1016.948000000295,
      "v": 43
    },
    {
      "midi": 35,
      "hit": false,
      "t": 166762.52400000914,
      "d": 74.15245833335212,
      "v": 120
    },
    {
      "midi": 69,
      "hit": false,
      "t": 166762.52400000914,
      "d": 111.22868750002817,
      "v": 99
    },
    {
      "midi": 74,
      "hit": false,
      "t": 166762.52400000914,
      "d": 254.23700000008103,
      "v": 123
    },
    {
      "midi": 86,
      "hit": false,
      "t": 166762.52400000914,
      "d": 794.4906250001804,
      "v": 109
    },
    {
      "midi": 72,
      "hit": false,
      "t": 166889.64250000918,
      "d": 116.52529166670865,
      "v": 104
    },
    {
      "midi": 76,
      "hit": false,
      "t": 166889.64250000918,
      "d": 233.0505833333882,
      "v": 54
    },
    {
      "midi": 42,
      "hit": false,
      "t": 166894.93910417586,
      "d": 5.296604166680481,
      "v": 42
    },
    {
      "midi": 42,
      "hit": false,
      "t": 167016.76100000922,
      "d": 5.296604166680481,
      "v": 55
    },
    {
      "midi": 74,
      "hit": false,
      "t": 167016.76100000922,
      "d": 116.52529166667955,
      "v": 104
    },
    {
      "midi": 72,
      "hit": false,
      "t": 167143.87950000924,
      "d": 116.52529166670865,
      "v": 104
    },
    {
      "midi": 74,
      "hit": false,
      "t": 167143.87950000924,
      "d": 783.8974166669068,
      "v": 62
    },
    {
      "midi": 42,
      "hit": false,
      "t": 167149.17610417592,
      "d": 5.296604166680481,
      "v": 65
    },
    {
      "midi": 46,
      "hit": false,
      "t": 167270.99800000928,
      "d": 5.296604166680481,
      "v": 60
    },
    {
      "midi": 35,
      "hit": false,
      "t": 167270.99800000928,
      "d": 74.15245833335212,
      "v": 120
    },
    {
      "midi": 76,
      "hit": false,
      "t": 167270.99800000928,
      "d": 116.52529166667955,
      "v": 104
    },
    {
      "midi": 60,
      "hit": false,
      "t": 167270.99800000928,
      "d": 354.87247916671913,
      "v": 122
    },
    {
      "midi": 72,
      "hit": false,
      "t": 167398.1165000093,
      "d": 116.52529166667955,
      "v": 104
    },
    {
      "midi": 42,
      "hit": false,
      "t": 167525.2350000093,
      "d": 5.296604166680481,
      "v": 55
    },
    {
      "midi": 71,
      "hit": false,
      "t": 167525.2350000093,
      "d": 116.52529166670865,
      "v": 104
    },
    {
      "midi": 49,
      "hit": false,
      "t": 167625.870479176,
      "d": 4094.2750208343205,
      "v": 104
    },
    {
      "midi": 53,
      "hit": false,
      "t": 167652.35350000937,
      "d": 0,
      "v": 86
    },
    {
      "midi": 42,
      "hit": false,
      "t": 167652.35350000937,
      "d": 5.296604166680481,
      "v": 102
    },
    {
      "midi": 72,
      "hit": false,
      "t": 167652.35350000937,
      "d": 116.52529166670865,
      "v": 104
    },
    {
      "midi": 84,
      "hit": false,
      "t": 167652.35350000937,
      "d": 243.64379166674917,
      "v": 127
    },
    {
      "midi": 96,
      "hit": false,
      "t": 167652.35350000937,
      "d": 243.64379166674917,
      "v": 109
    },
    {
      "midi": 61,
      "hit": false,
      "t": 167652.35350000937,
      "d": 614.4060833334806,
      "v": 104
    },
    {
      "midi": 58,
      "hit": false,
      "t": 167652.35350000937,
      "d": 783.8974166668486,
      "v": 87
    },
    {
      "midi": 42,
      "hit": false,
      "t": 167774.17539584276,
      "d": 5.296604166680481,
      "v": 55
    },
    {
      "midi": 35,
      "hit": false,
      "t": 167779.47200000944,
      "d": 74.15245833335212,
      "v": 120
    },
    {
      "midi": 77,
      "hit": false,
      "t": 167779.47200000944,
      "d": 116.52529166667955,
      "v": 104
    },
    {
      "midi": 82,
      "hit": false,
      "t": 167906.59050000945,
      "d": 68.85585416670074,
      "v": 127
    },
    {
      "midi": 94,
      "hit": false,
      "t": 167906.59050000945,
      "d": 68.85585416670074,
      "v": 109
    },
    {
      "midi": 73,
      "hit": false,
      "t": 167906.59050000945,
      "d": 116.52529166670865,
      "v": 104
    },
    {
      "midi": 42,
      "hit": false,
      "t": 167911.88710417613,
      "d": 5.296604166680481,
      "v": 20
    },
    {
      "midi": 42,
      "hit": false,
      "t": 168033.7090000095,
      "d": 5.296604166680481,
      "v": 70
    },
    {
      "midi": 84,
      "hit": false,
      "t": 168033.7090000095,
      "d": 233.0505833333591,
      "v": 66
    },
    {
      "midi": 75,
      "hit": false,
      "t": 168033.7090000095,
      "d": 243.64379166669096,
      "v": 127
    },
    {
      "midi": 87,
      "hit": false,
      "t": 168033.7090000095,
      "d": 243.64379166669096,
      "v": 109
    },
    {
      "midi": 73,
      "hit": false,
      "t": 168160.8275000095,
      "d": 116.52529166667955,
      "v": 104
    },
    {
      "midi": 42,
      "hit": false,
      "t": 168166.12410417618,
      "d": 5.296604166680481,
      "v": 10
    },
    {
      "midi": 68,
      "hit": false,
      "t": 168282.64939584286,
      "d": 413.1351250000589,
      "v": 65
    },
    {
      "midi": 72,
      "hit": false,
      "t": 168282.64939584286,
      "d": 413.1351250000589,
      "v": 107
    },
    {
      "midi": 46,
      "hit": false,
      "t": 168287.94600000954,
      "d": 5.296604166680481,
      "v": 65
    },
    {
      "midi": 82,
      "hit": false,
      "t": 168287.94600000954,
      "d": 58.262645833339775,
      "v": 66
    },
    {
      "midi": 35,
      "hit": false,
      "t": 168287.94600000954,
      "d": 74.15245833335212,
      "v": 120
    },
    {
      "midi": 80,
      "hit": false,
      "t": 168287.94600000954,
      "d": 243.64379166666185,
      "v": 115
    },
    {
      "midi": 92,
      "hit": false,
      "t": 168287.94600000954,
      "d": 243.64379166666185,
      "v": 109
    },
    {
      "midi": 61,
      "hit": false,
      "t": 168287.94600000954,
      "d": 444.9147500000545,
      "v": 104
    },
    {
      "midi": 73,
      "hit": false,
      "t": 168415.06450000955,
      "d": 116.52529166665045,
      "v": 104
    },
    {
      "midi": 42,
      "hit": false,
      "t": 168542.18300000954,
      "d": 5.296604166680481,
      "v": 70
    },
    {
      "midi": 75,
      "hit": false,
      "t": 168542.18300000954,
      "d": 105.93208333334769,
      "v": 104
    },
    {
      "midi": 77,
      "hit": false,
      "t": 168542.18300000954,
      "d": 243.64379166672006,
      "v": 115
    },
    {
      "midi": 89,
      "hit": false,
      "t": 168542.18300000954,
      "d": 243.64379166672006,
      "v": 109
    },
    {
      "midi": 73,
      "hit": false,
      "t": 168669.30150000955,
      "d": 116.52529166670865,
      "v": 104
    },
    {
      "midi": 80,
      "hit": false,
      "t": 168669.30150000955,
      "d": 233.0505833333882,
      "v": 54
    },
    {
      "midi": 42,
      "hit": false,
      "t": 168674.59810417623,
      "d": 5.296604166680481,
      "v": 10
    },
    {
      "midi": 42,
      "hit": false,
      "t": 168791.12339584294,
      "d": 5.296604166680481,
      "v": 46
    },
    {
      "midi": 65,
      "hit": false,
      "t": 168791.12339584294,
      "d": 1064.6174375001283,
      "v": 56
    },
    {
      "midi": 35,
      "hit": false,
      "t": 168796.42000000962,
      "d": 74.15245833332301,
      "v": 120
    },
    {
      "midi": 72,
      "hit": false,
      "t": 168796.42000000962,
      "d": 116.52529166665045,
      "v": 114
    },
    {
      "midi": 77,
      "hit": false,
      "t": 168796.42000000962,
      "d": 116.52529166665045,
      "v": 104
    },
    {
      "midi": 84,
      "hit": false,
      "t": 168796.42000000962,
      "d": 116.52529166665045,
      "v": 109
    },
    {
      "midi": 73,
      "hit": false,
      "t": 168923.5385000096,
      "d": 116.52529166667955,
      "v": 104
    },
    {
      "midi": 77,
      "hit": false,
      "t": 168923.5385000096,
      "d": 233.0505833333591,
      "v": 54
    },
    {
      "midi": 42,
      "hit": false,
      "t": 168928.83510417628,
      "d": 5.296604166680481,
      "v": 42
    },
    {
      "midi": 42,
      "hit": false,
      "t": 169050.6570000096,
      "d": 5.296604166680481,
      "v": 55
    },
    {
      "midi": 75,
      "hit": false,
      "t": 169050.6570000096,
      "d": 116.52529166667955,
      "v": 104
    },
    {
      "midi": 73,
      "hit": false,
      "t": 169050.6570000096,
      "d": 127.11850000001141,
      "v": 115
    },
    {
      "midi": 85,
      "hit": false,
      "t": 169050.6570000096,
      "d": 243.64379166669096,
      "v": 109
    },
    {
      "midi": 72,
      "hit": false,
      "t": 169177.77550000962,
      "d": 105.93208333334769,
      "v": 54
    },
    {
      "midi": 73,
      "hit": false,
      "t": 169177.77550000962,
      "d": 116.52529166667955,
      "v": 104
    },
    {
      "midi": 42,
      "hit": false,
      "t": 169183.0721041763,
      "d": 5.296604166680481,
      "v": 65
    },
    {
      "midi": 46,
      "hit": false,
      "t": 169304.89400000963,
      "d": 5.296604166680481,
      "v": 60
    },
    {
      "midi": 35,
      "hit": false,
      "t": 169304.89400000963,
      "d": 74.15245833335212,
      "v": 120
    },
    {
      "midi": 82,
      "hit": false,
      "t": 169304.89400000963,
      "d": 116.52529166667955,
      "v": 104
    },
    {
      "midi": 68,
      "hit": false,
      "t": 169304.89400000963,
      "d": 137.71170833334327,
      "v": 117
    },
    {
      "midi": 77,
      "hit": false,
      "t": 169304.89400000963,
      "d": 243.64379166669096,
      "v": 125
    },
    {
      "midi": 89,
      "hit": false,
      "t": 169304.89400000963,
      "d": 243.64379166669096,
      "v": 109
    },
    {
      "midi": 73,
      "hit": false,
      "t": 169432.01250000965,
      "d": 116.52529166667955,
      "v": 54
    },
    {
      "midi": 42,
      "hit": false,
      "t": 169559.13100000966,
      "d": 5.296604166680481,
      "v": 55
    },
    {
      "midi": 75,
      "hit": false,
      "t": 169559.13100000966,
      "d": 116.52529166667955,
      "v": 104
    },
    {
      "midi": 80,
      "hit": false,
      "t": 169559.13100000966,
      "d": 243.64379166669096,
      "v": 127
    },
    {
      "midi": 92,
      "hit": false,
      "t": 169559.13100000966,
      "d": 243.64379166669096,
      "v": 109
    },
    {
      "midi": 42,
      "hit": false,
      "t": 169686.24950000967,
      "d": 5.296604166680481,
      "v": 10
    },
    {
      "midi": 70,
      "hit": false,
      "t": 169686.24950000967,
      "d": 116.52529166667955,
      "v": 104
    },
    {
      "midi": 42,
      "hit": false,
      "t": 169808.07139584303,
      "d": 5.296604166680481,
      "v": 55
    },
    {
      "midi": 61,
      "hit": false,
      "t": 169813.3680000097,
      "d": 63.559250000020256,
      "v": 121
    },
    {
      "midi": 35,
      "hit": false,
      "t": 169813.3680000097,
      "d": 74.15245833335212,
      "v": 120
    },
    {
      "midi": 77,
      "hit": false,
      "t": 169813.3680000097,
      "d": 105.93208333334769,
      "v": 87
    },
    {
      "midi": 84,
      "hit": false,
      "t": 169813.3680000097,
      "d": 164.19472916674567,
      "v": 127
    },
    {
      "midi": 96,
      "hit": false,
      "t": 169813.3680000097,
      "d": 164.19472916674567,
      "v": 109
    },
    {
      "midi": 70,
      "hit": false,
      "t": 169818.6646041764,
      "d": 37.07622916667606,
      "v": 87
    },
    {
      "midi": 73,
      "hit": false,
      "t": 169940.48650000975,
      "d": 116.52529166670865,
      "v": 104
    },
    {
      "midi": 80,
      "hit": false,
      "t": 169940.48650000975,
      "d": 233.0505833333882,
      "v": 70
    },
    {
      "midi": 42,
      "hit": false,
      "t": 169945.78310417643,
      "d": 5.296604166680481,
      "v": 20
    },
    {
      "midi": 42,
      "hit": false,
      "t": 170067.6050000098,
      "d": 5.296604166680481,
      "v": 70
    },
    {
      "midi": 75,
      "hit": false,
      "t": 170067.6050000098,
      "d": 116.52529166667955,
      "v": 104
    },
    {
      "midi": 82,
      "hit": false,
      "t": 170067.6050000098,
      "d": 164.19472916671657,
      "v": 127
    },
    {
      "midi": 94,
      "hit": false,
      "t": 170067.6050000098,
      "d": 164.19472916671657,
      "v": 109
    },
    {
      "midi": 73,
      "hit": false,
      "t": 170194.7235000098,
      "d": 116.52529166670865,
      "v": 104
    },
    {
      "midi": 84,
      "hit": false,
      "t": 170194.7235000098,
      "d": 153.60152083341382,
      "v": 67
    },
    {
      "midi": 42,
      "hit": false,
      "t": 170200.02010417648,
      "d": 5.296604166680481,
      "v": 10
    },
    {
      "midi": 72,
      "hit": false,
      "t": 170316.5453958432,
      "d": 460.8045625000959,
      "v": 93
    },
    {
      "midi": 68,
      "hit": false,
      "t": 170316.5453958432,
      "d": 503.17739583345247,
      "v": 50
    },
    {
      "midi": 46,
      "hit": false,
      "t": 170321.84200000987,
      "d": 5.296604166680481,
      "v": 65
    },
    {
      "midi": 35,
      "hit": false,
      "t": 170321.84200000987,
      "d": 74.15245833335212,
      "v": 120
    },
    {
      "midi": 82,
      "hit": false,
      "t": 170321.84200000987,
      "d": 116.52529166667955,
      "v": 104
    },
    {
      "midi": 80,
      "hit": false,
      "t": 170321.84200000987,
      "d": 164.19472916668747,
      "v": 127
    },
    {
      "midi": 92,
      "hit": false,
      "t": 170321.84200000987,
      "d": 164.19472916668747,
      "v": 109
    },
    {
      "midi": 73,
      "hit": false,
      "t": 170448.96050000988,
      "d": 116.52529166667955,
      "v": 104
    },
    {
      "midi": 42,
      "hit": false,
      "t": 170576.0790000099,
      "d": 5.296604166680481,
      "v": 70
    },
    {
      "midi": 82,
      "hit": false,
      "t": 170576.0790000099,
      "d": 26.4830208333442,
      "v": 127
    },
    {
      "midi": 75,
      "hit": false,
      "t": 170576.0790000099,
      "d": 116.52529166667955,
      "v": 104
    },
    {
      "midi": 94,
      "hit": false,
      "t": 170576.0790000099,
      "d": 164.19472916671657,
      "v": 109
    },
    {
      "midi": 73,
      "hit": false,
      "t": 170703.1975000099,
      "d": 116.52529166673776,
      "v": 104
    },
    {
      "midi": 80,
      "hit": false,
      "t": 170703.1975000099,
      "d": 153.60152083344292,
      "v": 67
    },
    {
      "midi": 42,
      "hit": false,
      "t": 170708.49410417659,
      "d": 5.296604166680481,
      "v": 10
    },
    {
      "midi": 42,
      "hit": false,
      "t": 170825.01939584332,
      "d": 5.296604166680481,
      "v": 46
    },
    {
      "midi": 65,
      "hit": false,
      "t": 170825.01939584332,
      "d": 508.47400000013295,
      "v": 34
    },
    {
      "midi": 68,
      "hit": false,
      "t": 170830.31600001,
      "d": 58.262645833339775,
      "v": 125
    },
    {
      "midi": 35,
      "hit": false,
      "t": 170830.31600001,
      "d": 74.15245833335212,
      "v": 120
    },
    {
      "midi": 70,
      "hit": false,
      "t": 170830.31600001,
      "d": 116.52529166670865,
      "v": 104
    },
    {
      "midi": 89,
      "hit": false,
      "t": 170830.31600001,
      "d": 794.4906250002387,
      "v": 109
    },
    {
      "midi": 87,
      "hit": false,
      "t": 170835.61260417668,
      "d": 879.2362916669517,
      "v": 127
    },
    {
      "midi": 73,
      "hit": false,
      "t": 170957.43450001004,
      "d": 116.52529166667955,
      "v": 104
    },
    {
      "midi": 82,
      "hit": false,
      "t": 170957.43450001004,
      "d": 153.6015208333556,
      "v": 67
    },
    {
      "midi": 42,
      "hit": false,
      "t": 170962.73110417672,
      "d": 5.296604166680481,
      "v": 42
    },
    {
      "midi": 42,
      "hit": false,
      "t": 171084.55300001006,
      "d": 5.296604166680481,
      "v": 55
    },
    {
      "midi": 75,
      "hit": false,
      "t": 171084.55300001006,
      "d": 116.52529166667955,
      "v": 104
    },
    {
      "midi": 73,
      "hit": false,
      "t": 171211.67150001007,
      "d": 116.52529166670865,
      "v": 104
    },
    {
      "midi": 77,
      "hit": false,
      "t": 171211.67150001007,
      "d": 413.1351250001753,
      "v": 67
    },
    {
      "midi": 42,
      "hit": false,
      "t": 171216.96810417675,
      "d": 5.296604166680481,
      "v": 65
    },
    {
      "midi": 46,
      "hit": false,
      "t": 171338.79000001014,
      "d": 5.296604166680481,
      "v": 60
    },
    {
      "midi": 35,
      "hit": false,
      "t": 171338.79000001014,
      "d": 74.15245833335212,
      "v": 120
    },
    {
      "midi": 82,
      "hit": false,
      "t": 171338.79000001014,
      "d": 116.52529166670865,
      "v": 104
    },
    {
      "midi": 63,
      "hit": false,
      "t": 171338.79000001014,
      "d": 185.3811458333803,
      "v": 93
    },
    {
      "midi": 73,
      "hit": false,
      "t": 171465.90850001018,
      "d": 116.52529166670865,
      "v": 104
    },
    {
      "midi": 42,
      "hit": false,
      "t": 171593.02700001022,
      "d": 5.296604166680481,
      "v": 55
    },
    {
      "midi": 75,
      "hit": false,
      "t": 171593.02700001022,
      "d": 116.52529166673776,
      "v": 104
    },
    {
      "midi": 48,
      "hit": false,
      "t": 171672.47606251025,
      "d": 4073.088604167395,
      "v": 89
    },
    {
      "midi": 42,
      "hit": false,
      "t": 171720.14550001032,
      "d": 0,
      "v": 10
    },
    {
      "midi": 82,
      "hit": false,
      "t": 171720.14550001032,
      "d": 84.74566666668397,
      "v": 85
    },
    {
      "midi": 72,
      "hit": false,
      "t": 171720.14550001032,
      "d": 116.52529166670865,
      "v": 104
    },
    {
      "midi": 81,
      "hit": false,
      "t": 171720.14550001032,
      "d": 243.64379166672006,
      "v": 127
    },
    {
      "midi": 93,
      "hit": false,
      "t": 171720.14550001032,
      "d": 243.64379166672006,
      "v": 109
    },
    {
      "midi": 55,
      "hit": false,
      "t": 171720.14550001032,
      "d": 3919.487083333952,
      "v": 84
    },
    {
      "midi": 57,
      "hit": false,
      "t": 171720.14550001032,
      "d": 3945.970104167296,
      "v": 103
    },
    {
      "midi": 41,
      "hit": false,
      "t": 171720.14550001032,
      "d": 3988.3429375006526,
      "v": 82
    },
    {
      "midi": 87,
      "hit": false,
      "t": 171725.442104177,
      "d": 84.74566666668397,
      "v": 85
    },
    {
      "midi": 42,
      "hit": false,
      "t": 171841.9673958437,
      "d": 5.296604166680481,
      "v": 55
    },
    {
      "midi": 35,
      "hit": false,
      "t": 171847.2640000104,
      "d": 74.15245833332301,
      "v": 120
    },
    {
      "midi": 72,
      "hit": false,
      "t": 171847.2640000104,
      "d": 116.52529166665045,
      "v": 104
    },
    {
      "midi": 72,
      "hit": false,
      "t": 171974.38250001037,
      "d": 116.52529166667955,
      "v": 104
    },
    {
      "midi": 78,
      "hit": false,
      "t": 171974.38250001037,
      "d": 116.52529166667955,
      "v": 119
    },
    {
      "midi": 90,
      "hit": false,
      "t": 171974.38250001037,
      "d": 116.52529166667955,
      "v": 109
    },
    {
      "midi": 42,
      "hit": false,
      "t": 171979.67910417705,
      "d": 5.296604166680481,
      "v": 20
    },
    {
      "midi": 42,
      "hit": false,
      "t": 172101.50100001038,
      "d": 5.296604166680481,
      "v": 70
    },
    {
      "midi": 74,
      "hit": false,
      "t": 172101.50100001038,
      "d": 116.52529166667955,
      "v": 104
    },
    {
      "midi": 81,
      "hit": false,
      "t": 172101.50100001038,
      "d": 233.0505833333591,
      "v": 74
    },
    {
      "midi": 76,
      "hit": false,
      "t": 172101.50100001038,
      "d": 243.64379166669096,
      "v": 110
    },
    {
      "midi": 88,
      "hit": false,
      "t": 172101.50100001038,
      "d": 243.64379166669096,
      "v": 109
    },
    {
      "midi": 72,
      "hit": false,
      "t": 172228.6195000104,
      "d": 116.52529166667955,
      "v": 104
    },
    {
      "midi": 42,
      "hit": false,
      "t": 172233.91610417707,
      "d": 5.296604166680481,
      "v": 10
    },
    {
      "midi": 62,
      "hit": false,
      "t": 172350.44139584375,
      "d": 476.69437500010827,
      "v": 42
    },
    {
      "midi": 46,
      "hit": false,
      "t": 172355.73800001043,
      "d": 5.296604166680481,
      "v": 65
    },
    {
      "midi": 35,
      "hit": false,
      "t": 172355.73800001043,
      "d": 74.15245833335212,
      "v": 120
    },
    {
      "midi": 78,
      "hit": false,
      "t": 172355.73800001043,
      "d": 105.93208333334769,
      "v": 58
    },
    {
      "midi": 76,
      "hit": false,
      "t": 172355.73800001043,
      "d": 116.52529166667955,
      "v": 104
    },
    {
      "midi": 69,
      "hit": false,
      "t": 172355.73800001043,
      "d": 243.64379166666185,
      "v": 115
    },
    {
      "midi": 81,
      "hit": false,
      "t": 172355.73800001043,
      "d": 243.64379166666185,
      "v": 109
    },
    {
      "midi": 82,
      "hit": false,
      "t": 172355.73800001043,
      "d": 338.9826666666777,
      "v": 69
    },
    {
      "midi": 87,
      "hit": false,
      "t": 172355.73800001043,
      "d": 344.27927083335817,
      "v": 69
    },
    {
      "midi": 72,
      "hit": false,
      "t": 172482.85650001044,
      "d": 116.52529166665045,
      "v": 104
    },
    {
      "midi": 76,
      "hit": false,
      "t": 172482.85650001044,
      "d": 233.0505833333591,
      "v": 49
    },
    {
      "midi": 42,
      "hit": false,
      "t": 172609.97500001042,
      "d": 5.296604166680481,
      "v": 70
    },
    {
      "midi": 71,
      "hit": false,
      "t": 172609.97500001042,
      "d": 116.52529166670865,
      "v": 104
    },
    {
      "midi": 74,
      "hit": false,
      "t": 172609.97500001042,
      "d": 243.64379166677827,
      "v": 115
    },
    {
      "midi": 86,
      "hit": false,
      "t": 172609.97500001042,
      "d": 243.64379166677827,
      "v": 109
    },
    {
      "midi": 69,
      "hit": false,
      "t": 172737.0935000105,
      "d": 90.04227083336446,
      "v": 54
    },
    {
      "midi": 72,
      "hit": false,
      "t": 172737.0935000105,
      "d": 116.52529166670865,
      "v": 104
    },
    {
      "midi": 82,
      "hit": false,
      "t": 172737.0935000105,
      "d": 635.5925000001153,
      "v": 72
    },
    {
      "midi": 42,
      "hit": false,
      "t": 172742.39010417718,
      "d": 5.296604166680481,
      "v": 10
    },
    {
      "midi": 87,
      "hit": false,
      "t": 172742.39010417718,
      "d": 630.2958958334348,
      "v": 72
    },
    {
      "midi": 42,
      "hit": false,
      "t": 172858.91539584388,
      "d": 5.296604166680481,
      "v": 59
    },
    {
      "midi": 60,
      "hit": false,
      "t": 172858.91539584388,
      "d": 662.0755208334012,
      "v": 33
    },
    {
      "midi": 67,
      "hit": false,
      "t": 172858.91539584388,
      "d": 1133.4732916668,
      "v": 84
    },
    {
      "midi": 35,
      "hit": false,
      "t": 172864.21200001056,
      "d": 74.15245833332301,
      "v": 120
    },
    {
      "midi": 76,
      "hit": false,
      "t": 172864.21200001056,
      "d": 116.52529166667955,
      "v": 115
    },
    {
      "midi": 88,
      "hit": false,
      "t": 172864.21200001056,
      "d": 116.52529166667955,
      "v": 109
    },
    {
      "midi": 64,
      "hit": false,
      "t": 172864.21200001056,
      "d": 730.9313750000438,
      "v": 102
    },
    {
      "midi": 42,
      "hit": false,
      "t": 172954.2542708439,
      "d": 5.296604166680481,
      "v": 37
    },
    {
      "midi": 72,
      "hit": false,
      "t": 172991.33050001058,
      "d": 116.52529166667955,
      "v": 104
    },
    {
      "midi": 74,
      "hit": false,
      "t": 172991.33050001058,
      "d": 233.0505833333591,
      "v": 54
    },
    {
      "midi": 42,
      "hit": false,
      "t": 173038.99993751058,
      "d": 5.296604166680481,
      "v": 55
    },
    {
      "midi": 42,
      "hit": false,
      "t": 173118.4490000106,
      "d": 5.296604166680481,
      "v": 55
    },
    {
      "midi": 71,
      "hit": false,
      "t": 173118.4490000106,
      "d": 116.52529166667955,
      "v": 104
    },
    {
      "midi": 72,
      "hit": false,
      "t": 173118.4490000106,
      "d": 116.52529166667955,
      "v": 123
    },
    {
      "midi": 84,
      "hit": false,
      "t": 173118.4490000106,
      "d": 116.52529166667955,
      "v": 109
    },
    {
      "midi": 76,
      "hit": false,
      "t": 173245.5675000106,
      "d": 105.93208333334769,
      "v": 54
    },
    {
      "midi": 72,
      "hit": false,
      "t": 173245.5675000106,
      "d": 116.52529166667955,
      "v": 104
    },
    {
      "midi": 42,
      "hit": false,
      "t": 173250.86410417728,
      "d": 5.296604166680481,
      "v": 65
    },
    {
      "midi": 46,
      "hit": false,
      "t": 173372.6860000106,
      "d": 5.296604166680481,
      "v": 60
    },
    {
      "midi": 35,
      "hit": false,
      "t": 173372.6860000106,
      "d": 74.15245833335212,
      "v": 120
    },
    {
      "midi": 76,
      "hit": false,
      "t": 173372.6860000106,
      "d": 116.52529166667955,
      "v": 104
    },
    {
      "midi": 74,
      "hit": false,
      "t": 173372.6860000106,
      "d": 243.64379166666185,
      "v": 123
    },
    {
      "midi": 86,
      "hit": false,
      "t": 173372.6860000106,
      "d": 243.64379166666185,
      "v": 109
    },
    {
      "midi": 82,
      "hit": false,
      "t": 173372.6860000106,
      "d": 338.9826666666777,
      "v": 52
    },
    {
      "midi": 87,
      "hit": false,
      "t": 173372.6860000106,
      "d": 344.27927083335817,
      "v": 52
    },
    {
      "midi": 72,
      "hit": false,
      "t": 173499.80450001062,
      "d": 105.93208333331859,
      "v": 62
    },
    {
      "midi": 42,
      "hit": false,
      "t": 173626.9230000106,
      "d": 5.296604166680481,
      "v": 55
    },
    {
      "midi": 71,
      "hit": false,
      "t": 173626.9230000106,
      "d": 116.52529166670865,
      "v": 104
    },
    {
      "midi": 76,
      "hit": false,
      "t": 173626.9230000106,
      "d": 243.64379166672006,
      "v": 123
    },
    {
      "midi": 88,
      "hit": false,
      "t": 173626.9230000106,
      "d": 243.64379166672006,
      "v": 109
    },
    {
      "midi": 42,
      "hit": false,
      "t": 173754.04150001064,
      "d": 5.296604166680481,
      "v": 10
    },
    {
      "midi": 69,
      "hit": false,
      "t": 173754.04150001064,
      "d": 116.52529166667955,
      "v": 104
    },
    {
      "midi": 74,
      "hit": false,
      "t": 173754.04150001064,
      "d": 233.0505833333591,
      "v": 62
    },
    {
      "midi": 42,
      "hit": false,
      "t": 173875.863395844,
      "d": 5.296604166680481,
      "v": 55
    },
    {
      "midi": 35,
      "hit": false,
      "t": 173881.16000001068,
      "d": 74.15245833332301,
      "v": 120
    },
    {
      "midi": 60,
      "hit": false,
      "t": 173881.16000001068,
      "d": 111.22868749999907,
      "v": 107
    },
    {
      "midi": 71,
      "hit": false,
      "t": 173881.16000001068,
      "d": 116.52529166667955,
      "v": 104
    },
    {
      "midi": 81,
      "hit": false,
      "t": 173881.16000001068,
      "d": 180.0845416666998,
      "v": 127
    },
    {
      "midi": 93,
      "hit": false,
      "t": 173881.16000001068,
      "d": 180.0845416666998,
      "v": 109
    },
    {
      "midi": 72,
      "hit": false,
      "t": 174008.2785000107,
      "d": 116.52529166667955,
      "v": 104
    },
    {
      "midi": 76,
      "hit": false,
      "t": 174008.2785000107,
      "d": 233.0505833333591,
      "v": 62
    },
    {
      "midi": 42,
      "hit": false,
      "t": 174013.57510417738,
      "d": 5.296604166680481,
      "v": 20
    },
    {
      "midi": 42,
      "hit": false,
      "t": 174135.3970000107,
      "d": 5.296604166680481,
      "v": 70
    },
    {
      "midi": 74,
      "hit": false,
      "t": 174135.3970000107,
      "d": 116.52529166667955,
      "v": 104
    },
    {
      "midi": 78,
      "hit": false,
      "t": 174135.3970000107,
      "d": 180.0845416666998,
      "v": 127
    },
    {
      "midi": 90,
      "hit": false,
      "t": 174135.3970000107,
      "d": 180.0845416666998,
      "v": 109
    },
    {
      "midi": 72,
      "hit": false,
      "t": 174262.51550001072,
      "d": 116.52529166667955,
      "v": 104
    },
    {
      "midi": 81,
      "hit": false,
      "t": 174262.51550001072,
      "d": 169.49133333339705,
      "v": 67
    },
    {
      "midi": 42,
      "hit": false,
      "t": 174267.8121041774,
      "d": 5.296604166680481,
      "v": 10
    },
    {
      "midi": 62,
      "hit": false,
      "t": 174384.33739584408,
      "d": 497.8807916667138,
      "v": 41
    },
    {
      "midi": 69,
      "hit": false,
      "t": 174384.33739584408,
      "d": 497.8807916667138,
      "v": 92
    },
    {
      "midi": 46,
      "hit": false,
      "t": 174389.63400001076,
      "d": 5.296604166680481,
      "v": 65
    },
    {
      "midi": 35,
      "hit": false,
      "t": 174389.63400001076,
      "d": 74.15245833335212,
      "v": 120
    },
    {
      "midi": 76,
      "hit": false,
      "t": 174389.63400001076,
      "d": 180.0845416666707,
      "v": 127
    },
    {
      "midi": 88,
      "hit": false,
      "t": 174389.63400001076,
      "d": 180.0845416666707,
      "v": 109
    },
    {
      "midi": 72,
      "hit": false,
      "t": 174516.75250001077,
      "d": 116.52529166665045,
      "v": 104
    },
    {
      "midi": 78,
      "hit": false,
      "t": 174516.75250001077,
      "d": 169.49133333333884,
      "v": 67
    },
    {
      "midi": 42,
      "hit": false,
      "t": 174643.87100001075,
      "d": 5.296604166680481,
      "v": 70
    },
    {
      "midi": 71,
      "hit": false,
      "t": 174643.87100001075,
      "d": 116.52529166667955,
      "v": 104
    },
    {
      "midi": 74,
      "hit": false,
      "t": 174643.87100001075,
      "d": 180.0845416666998,
      "v": 127
    },
    {
      "midi": 86,
      "hit": false,
      "t": 174643.87100001075,
      "d": 180.0845416666998,
      "v": 109
    },
    {
      "midi": 72,
      "hit": false,
      "t": 174770.98950001076,
      "d": 116.52529166670865,
      "v": 104
    },
    {
      "midi": 76,
      "hit": false,
      "t": 174770.98950001076,
      "d": 169.49133333339705,
      "v": 67
    },
    {
      "midi": 42,
      "hit": false,
      "t": 174776.28610417744,
      "d": 5.296604166680481,
      "v": 10
    },
    {
      "midi": 42,
      "hit": false,
      "t": 174892.81139584415,
      "d": 5.296604166680481,
      "v": 64
    },
    {
      "midi": 60,
      "hit": false,
      "t": 174892.81139584415,
      "d": 746.8211875001143,
      "v": 41
    },
    {
      "midi": 67,
      "hit": false,
      "t": 174892.81139584415,
      "d": 1069.914041666867,
      "v": 92
    },
    {
      "midi": 35,
      "hit": false,
      "t": 174898.10800001083,
      "d": 74.15245833332301,
      "v": 120
    },
    {
      "midi": 69,
      "hit": false,
      "t": 174898.10800001083,
      "d": 116.52529166665045,
      "v": 104
    },
    {
      "midi": 72,
      "hit": false,
      "t": 174898.10800001083,
      "d": 127.1184999999823,
      "v": 115
    },
    {
      "midi": 64,
      "hit": false,
      "t": 174898.10800001083,
      "d": 762.7110000000976,
      "v": 100
    },
    {
      "midi": 84,
      "hit": false,
      "t": 174898.10800001083,
      "d": 794.4906250001222,
      "v": 109
    },
    {
      "midi": 72,
      "hit": false,
      "t": 175025.22650001082,
      "d": 116.52529166670865,
      "v": 104
    },
    {
      "midi": 42,
      "hit": false,
      "t": 175030.5231041775,
      "d": 5.296604166680481,
      "v": 50
    },
    {
      "midi": 42,
      "hit": false,
      "t": 175152.34500001086,
      "d": 5.296604166680481,
      "v": 62
    },
    {
      "midi": 74,
      "hit": false,
      "t": 175152.34500001086,
      "d": 42.37283333335654,
      "v": 104
    },
    {
      "midi": 72,
      "hit": false,
      "t": 175279.46350001087,
      "d": 116.52529166670865,
      "v": 54
    },
    {
      "midi": 42,
      "hit": false,
      "t": 175284.76010417755,
      "d": 5.296604166680481,
      "v": 44
    },
    {
      "midi": 46,
      "hit": false,
      "t": 175406.5820000109,
      "d": 5.296604166680481,
      "v": 60
    },
    {
      "midi": 35,
      "hit": false,
      "t": 175406.5820000109,
      "d": 74.15245833335212,
      "v": 120
    },
    {
      "midi": 76,
      "hit": false,
      "t": 175406.5820000109,
      "d": 116.52529166667955,
      "v": 104
    },
    {
      "midi": 72,
      "hit": false,
      "t": 175533.70050001092,
      "d": 116.52529166667955,
      "v": 104
    },
    {
      "midi": 42,
      "hit": false,
      "t": 175660.81900001093,
      "d": 5.296604166680481,
      "v": 55
    },
    {
      "midi": 71,
      "hit": false,
      "t": 175660.81900001093,
      "d": 116.52529166670865,
      "v": 104
    },
    {
      "midi": 42,
      "hit": false,
      "t": 175787.93750001097,
      "d": 5.296604166680481,
      "v": 10
    },
    {
      "midi": 69,
      "hit": false,
      "t": 175787.93750001097,
      "d": 116.52529166667955,
      "v": 104
    },
    {
      "midi": 60,
      "hit": false,
      "t": 175787.93750001097,
      "d": 174.78793750004843,
      "v": 86
    },
    {
      "midi": 93,
      "hit": false,
      "t": 175787.93750001097,
      "d": 243.64379166674917,
      "v": 109
    },
    {
      "midi": 65,
      "hit": false,
      "t": 175787.93750001097,
      "d": 1133.4732916669745,
      "v": 127
    },
    {
      "midi": 62,
      "hit": false,
      "t": 175787.93750001097,
      "d": 3834.7414166679373,
      "v": 93
    },
    {
      "midi": 53,
      "hit": false,
      "t": 175787.93750001097,
      "d": 4062.495395834674,
      "v": 89
    },
    {
      "midi": 81,
      "hit": false,
      "t": 175867.38656251098,
      "d": 47.66943750003702,
      "v": 53
    },
    {
      "midi": 42,
      "hit": false,
      "t": 175909.75939584433,
      "d": 5.296604166680481,
      "v": 55
    },
    {
      "midi": 35,
      "hit": false,
      "t": 175915.056000011,
      "d": 74.15245833335212,
      "v": 120
    },
    {
      "midi": 81,
      "hit": false,
      "t": 175915.056000011,
      "d": 79.4490625000326,
      "v": 104
    },
    {
      "midi": 72,
      "hit": false,
      "t": 176042.17450001105,
      "d": 21.18641666669282,
      "v": 104
    },
    {
      "midi": 93,
      "hit": false,
      "t": 176042.17450001105,
      "d": 68.85585416670074,
      "v": 109
    },
    {
      "midi": 42,
      "hit": false,
      "t": 176047.47110417773,
      "d": 5.296604166680481,
      "v": 20
    },
    {
      "midi": 81,
      "hit": false,
      "t": 176047.47110417773,
      "d": 58.262645833339775,
      "v": 70
    },
    {
      "midi": 42,
      "hit": false,
      "t": 176169.2930000111,
      "d": 5.296604166680481,
      "v": 70
    },
    {
      "midi": 81,
      "hit": false,
      "t": 176169.2930000111,
      "d": 42.37283333335654,
      "v": 66
    },
    {
      "midi": 74,
      "hit": false,
      "t": 176169.2930000111,
      "d": 116.52529166670865,
      "v": 104
    },
    {
      "midi": 79,
      "hit": false,
      "t": 176169.2930000111,
      "d": 174.78793750007753,
      "v": 127
    },
    {
      "midi": 91,
      "hit": false,
      "t": 176169.2930000111,
      "d": 174.78793750007753,
      "v": 109
    },
    {
      "midi": 81,
      "hit": false,
      "t": 176248.74206251113,
      "d": 52.9660416666884,
      "v": 81
    },
    {
      "midi": 72,
      "hit": false,
      "t": 176296.41150001113,
      "d": 116.52529166670865,
      "v": 104
    },
    {
      "midi": 42,
      "hit": false,
      "t": 176301.70810417781,
      "d": 5.296604166680481,
      "v": 10
    },
    {
      "midi": 81,
      "hit": false,
      "t": 176365.26735417783,
      "d": 37.07622916667606,
      "v": 81
    },
    {
      "midi": 64,
      "hit": false,
      "t": 176418.23339584452,
      "d": 460.8045625000959,
      "v": 56
    },
    {
      "midi": 81,
      "hit": false,
      "t": 176423.5300000112,
      "d": 0,
      "v": 66
    },
    {
      "midi": 46,
      "hit": false,
      "t": 176423.5300000112,
      "d": 5.296604166680481,
      "v": 65
    },
    {
      "midi": 35,
      "hit": false,
      "t": 176423.5300000112,
      "d": 74.15245833335212,
      "v": 120
    },
    {
      "midi": 76,
      "hit": false,
      "t": 176423.5300000112,
      "d": 116.52529166667955,
      "v": 104
    },
    {
      "midi": 91,
      "hit": false,
      "t": 176423.5300000112,
      "d": 174.78793750001932,
      "v": 109
    },
    {
      "midi": 81,
      "hit": false,
      "t": 176460.60622917788,
      "d": 21.186416666663717,
      "v": 84
    },
    {
      "midi": 79,
      "hit": false,
      "t": 176550.64850001122,
      "d": 47.669437500007916,
      "v": 66
    },
    {
      "midi": 72,
      "hit": false,
      "t": 176550.64850001122,
      "d": 116.52529166667955,
      "v": 104
    },
    {
      "midi": 81,
      "hit": false,
      "t": 176571.83491667788,
      "d": 52.9660416666884,
      "v": 87
    },
    {
      "midi": 42,
      "hit": false,
      "t": 176677.76700001123,
      "d": 5.296604166680481,
      "v": 70
    },
    {
      "midi": 81,
      "hit": false,
      "t": 176677.76700001123,
      "d": 58.262645833339775,
      "v": 95
    },
    {
      "midi": 71,
      "hit": false,
      "t": 176677.76700001123,
      "d": 116.52529166667955,
      "v": 104
    },
    {
      "midi": 76,
      "hit": false,
      "t": 176677.76700001123,
      "d": 164.19472916671657,
      "v": 115
    },
    {
      "midi": 88,
      "hit": false,
      "t": 176677.76700001123,
      "d": 164.19472916671657,
      "v": 109
    },
    {
      "midi": 81,
      "hit": false,
      "t": 176757.21606251123,
      "d": 52.9660416666884,
      "v": 99
    },
    {
      "midi": 72,
      "hit": false,
      "t": 176804.88550001124,
      "d": 116.52529166670865,
      "v": 104
    },
    {
      "midi": 79,
      "hit": false,
      "t": 176804.88550001124,
      "d": 164.19472916674567,
      "v": 66
    },
    {
      "midi": 42,
      "hit": false,
      "t": 176810.18210417792,
      "d": 5.296604166680481,
      "v": 10
    },
    {
      "midi": 42,
      "hit": false,
      "t": 176926.70739584463,
      "d": 5.296604166680481,
      "v": 64
    },
    {
      "midi": 64,
      "hit": false,
      "t": 176926.70739584463,
      "d": 858.0498750002007,
      "v": 37
    },
    {
      "midi": 81,
      "hit": false,
      "t": 176932.0040000113,
      "d": 5.296604166680481,
      "v": 109
    },
    {
      "midi": 35,
      "hit": false,
      "t": 176932.0040000113,
      "d": 74.15245833335212,
      "v": 120
    },
    {
      "midi": 76,
      "hit": false,
      "t": 176932.0040000113,
      "d": 116.52529166667955,
      "v": 104
    },
    {
      "midi": 69,
      "hit": false,
      "t": 176932.0040000113,
      "d": 174.78793750004843,
      "v": 112
    },
    {
      "midi": 81,
      "hit": false,
      "t": 176969.08022917798,
      "d": 37.07622916667606,
      "v": 91
    },
    {
      "midi": 72,
      "hit": false,
      "t": 177059.12250001132,
      "d": 116.52529166670865,
      "v": 104
    },
    {
      "midi": 76,
      "hit": false,
      "t": 177059.12250001132,
      "d": 153.60152083341382,
      "v": 54
    },
    {
      "midi": 42,
      "hit": false,
      "t": 177064.419104178,
      "d": 5.296604166680481,
      "v": 50
    },
    {
      "midi": 81,
      "hit": false,
      "t": 177064.419104178,
      "d": 42.37283333335654,
      "v": 98
    },
    {
      "midi": 81,
      "hit": false,
      "t": 177154.46137501136,
      "d": 52.9660416666884,
      "v": 104
    },
    {
      "midi": 42,
      "hit": false,
      "t": 177186.24100001136,
      "d": 5.296604166680481,
      "v": 62
    },
    {
      "midi": 74,
      "hit": false,
      "t": 177186.24100001136,
      "d": 116.52529166670865,
      "v": 115
    },
    {
      "midi": 86,
      "hit": false,
      "t": 177186.24100001136,
      "d": 116.52529166670865,
      "v": 109
    },
    {
      "midi": 81,
      "hit": false,
      "t": 177265.6900625114,
      "d": 52.9660416666884,
      "v": 103
    },
    {
      "midi": 72,
      "hit": false,
      "t": 177313.3595000114,
      "d": 116.52529166670865,
      "v": 104
    },
    {
      "midi": 69,
      "hit": false,
      "t": 177313.3595000114,
      "d": 164.19472916674567,
      "v": 54
    },
    {
      "midi": 42,
      "hit": false,
      "t": 177318.65610417808,
      "d": 5.296604166680481,
      "v": 44
    },
    {
      "midi": 81,
      "hit": false,
      "t": 177361.02893751144,
      "d": 37.07622916667606,
      "v": 95
    },
    {
      "midi": 46,
      "hit": false,
      "t": 177440.47800001144,
      "d": 5.296604166680481,
      "v": 60
    },
    {
      "midi": 35,
      "hit": false,
      "t": 177440.47800001144,
      "d": 74.15245833338122,
      "v": 120
    },
    {
      "midi": 76,
      "hit": false,
      "t": 177440.47800001144,
      "d": 243.64379166669096,
      "v": 127
    },
    {
      "midi": 88,
      "hit": false,
      "t": 177440.47800001144,
      "d": 243.64379166669096,
      "v": 109
    },
    {
      "midi": 81,
      "hit": false,
      "t": 177466.9610208448,
      "d": 47.669437500007916,
      "v": 107
    },
    {
      "midi": 81,
      "hit": false,
      "t": 177567.59650001148,
      "d": 42.372833333327435,
      "v": 110
    },
    {
      "midi": 74,
      "hit": false,
      "t": 177567.59650001148,
      "d": 105.93208333331859,
      "v": 54
    },
    {
      "midi": 81,
      "hit": false,
      "t": 177652.34216667814,
      "d": 63.559250000020256,
      "v": 111
    },
    {
      "midi": 42,
      "hit": false,
      "t": 177694.71500001146,
      "d": 5.296604166680481,
      "v": 55
    },
    {
      "midi": 72,
      "hit": false,
      "t": 177694.71500001146,
      "d": 116.52529166670865,
      "v": 104
    },
    {
      "midi": 79,
      "hit": false,
      "t": 177694.71500001146,
      "d": 243.64379166674917,
      "v": 127
    },
    {
      "midi": 91,
      "hit": false,
      "t": 177694.71500001146,
      "d": 243.64379166674917,
      "v": 109
    },
    {
      "midi": 81,
      "hit": false,
      "t": 177752.97764584483,
      "d": 42.372833333327435,
      "v": 102
    },
    {
      "midi": 42,
      "hit": false,
      "t": 177821.8335000115,
      "d": 5.296604166680481,
      "v": 10
    },
    {
      "midi": 69,
      "hit": false,
      "t": 177821.8335000115,
      "d": 116.52529166670865,
      "v": 104
    },
    {
      "midi": 76,
      "hit": false,
      "t": 177821.8335000115,
      "d": 233.0505833334464,
      "v": 81
    },
    {
      "midi": 81,
      "hit": false,
      "t": 177843.0199166782,
      "d": 58.262645833339775,
      "v": 106
    },
    {
      "midi": 42,
      "hit": false,
      "t": 177943.6553958449,
      "d": 5.296604166680481,
      "v": 55
    },
    {
      "midi": 71,
      "hit": false,
      "t": 177943.6553958449,
      "d": 270.1268125001807,
      "v": 104
    },
    {
      "midi": 81,
      "hit": false,
      "t": 177948.95200001157,
      "d": 37.07622916667606,
      "v": 99
    },
    {
      "midi": 35,
      "hit": false,
      "t": 177948.95200001157,
      "d": 74.15245833335212,
      "v": 120
    },
    {
      "midi": 69,
      "hit": false,
      "t": 177948.95200001157,
      "d": 116.52529166670865,
      "v": 104
    },
    {
      "midi": 93,
      "hit": false,
      "t": 177948.95200001157,
      "d": 153.60152083341382,
      "v": 109
    },
    {
      "midi": 65,
      "hit": false,
      "t": 177948.95200001157,
      "d": 1461.8627500006405,
      "v": 127
    },
    {
      "midi": 81,
      "hit": false,
      "t": 178028.4010625116,
      "d": 74.15245833338122,
      "v": 98
    },
    {
      "midi": 72,
      "hit": false,
      "t": 178076.0705000116,
      "d": 116.52529166673776,
      "v": 104
    },
    {
      "midi": 42,
      "hit": false,
      "t": 178081.3671041783,
      "d": 5.296604166680481,
      "v": 20
    },
    {
      "midi": 81,
      "hit": false,
      "t": 178139.6297500117,
      "d": 63.559250000020256,
      "v": 76
    },
    {
      "midi": 68,
      "hit": false,
      "t": 178197.89239584503,
      "d": 259.5336041667906,
      "v": 98
    },
    {
      "midi": 42,
      "hit": false,
      "t": 178203.1890000117,
      "d": 5.296604166680481,
      "v": 70
    },
    {
      "midi": 79,
      "hit": false,
      "t": 178203.1890000117,
      "d": 105.9320833333768,
      "v": 127
    },
    {
      "midi": 74,
      "hit": false,
      "t": 178203.1890000117,
      "d": 116.52529166670865,
      "v": 104
    },
    {
      "midi": 91,
      "hit": false,
      "t": 178203.1890000117,
      "d": 195.97435416674125,
      "v": 109
    },
    {
      "midi": 81,
      "hit": false,
      "t": 178245.56183334507,
      "d": 58.262645833339775,
      "v": 102
    },
    {
      "midi": 72,
      "hit": false,
      "t": 178330.30750001175,
      "d": 116.52529166670865,
      "v": 104
    },
    {
      "midi": 42,
      "hit": false,
      "t": 178335.60410417843,
      "d": 5.296604166680481,
      "v": 10
    },
    {
      "midi": 81,
      "hit": false,
      "t": 178335.60410417843,
      "d": 63.559250000020256,
      "v": 92
    },
    {
      "midi": 69,
      "hit": false,
      "t": 178452.12939584514,
      "d": 275.42341666680295,
      "v": 92
    },
    {
      "midi": 46,
      "hit": false,
      "t": 178457.42600001182,
      "d": 5.296604166680481,
      "v": 65
    },
    {
      "midi": 81,
      "hit": false,
      "t": 178457.42600001182,
      "d": 15.889812500041444,
      "v": 127
    },
    {
      "midi": 35,
      "hit": false,
      "t": 178457.42600001182,
      "d": 74.15245833338122,
      "v": 120
    },
    {
      "midi": 76,
      "hit": false,
      "t": 178457.42600001182,
      "d": 116.52529166673776,
      "v": 104
    },
    {
      "midi": 93,
      "hit": false,
      "t": 178457.42600001182,
      "d": 174.78793750007753,
      "v": 109
    },
    {
      "midi": 81,
      "hit": false,
      "t": 178536.87506251188,
      "d": 47.669437500007916,
      "v": 75
    },
    {
      "midi": 72,
      "hit": false,
      "t": 178584.5445000119,
      "d": 116.52529166667955,
      "v": 104
    },
    {
      "midi": 79,
      "hit": false,
      "t": 178584.5445000119,
      "d": 185.3811458334094,
      "v": 73
    },
    {
      "midi": 81,
      "hit": false,
      "t": 178637.51054167858,
      "d": 74.15245833335212,
      "v": 89
    },
    {
      "midi": 42,
      "hit": false,
      "t": 178711.66300001193,
      "d": 5.296604166680481,
      "v": 70
    },
    {
      "midi": 71,
      "hit": false,
      "t": 178711.66300001193,
      "d": 116.52529166673776,
      "v": 104
    },
    {
      "midi": 83,
      "hit": false,
      "t": 178711.66300001193,
      "d": 158.8981250000943,
      "v": 127
    },
    {
      "midi": 95,
      "hit": false,
      "t": 178711.66300001193,
      "d": 158.8981250000943,
      "v": 109
    },
    {
      "midi": 81,
      "hit": false,
      "t": 178732.84941667863,
      "d": 52.9660416666884,
      "v": 88
    },
    {
      "midi": 72,
      "hit": false,
      "t": 178838.781500012,
      "d": 116.52529166670865,
      "v": 104
    },
    {
      "midi": 42,
      "hit": false,
      "t": 178844.07810417868,
      "d": 5.296604166680481,
      "v": 10
    },
    {
      "midi": 81,
      "hit": false,
      "t": 178844.07810417868,
      "d": 58.262645833339775,
      "v": 91
    },
    {
      "midi": 81,
      "hit": false,
      "t": 178923.52716667872,
      "d": 47.66943750003702,
      "v": 66
    },
    {
      "midi": 42,
      "hit": false,
      "t": 178960.6033958454,
      "d": 5.296604166680481,
      "v": 64
    },
    {
      "midi": 35,
      "hit": false,
      "t": 178965.90000001207,
      "d": 74.15245833335212,
      "v": 120
    },
    {
      "midi": 69,
      "hit": false,
      "t": 178965.90000001207,
      "d": 116.52529166667955,
      "v": 106
    },
    {
      "midi": 98,
      "hit": false,
      "t": 178965.90000001207,
      "d": 921.6091250002501,
      "v": 109
    },
    {
      "midi": 81,
      "hit": false,
      "t": 179040.05245834542,
      "d": 79.4490625000326,
      "v": 85
    },
    {
      "midi": 40,
      "hit": false,
      "t": 179093.01850001208,
      "d": 5.296604166680481,
      "v": 93
    },
    {
      "midi": 49,
      "hit": false,
      "t": 179093.01850001208,
      "d": 5.296604166680481,
      "v": 99
    },
    {
      "midi": 57,
      "hit": false,
      "t": 179093.01850001208,
      "d": 5.296604166680481,
      "v": 76
    },
    {
      "midi": 83,
      "hit": false,
      "t": 179093.01850001208,
      "d": 148.30491666673333,
      "v": 73
    },
    {
      "midi": 42,
      "hit": false,
      "t": 179098.31510417876,
      "d": 5.296604166680481,
      "v": 50
    },
    {
      "midi": 81,
      "hit": false,
      "t": 179140.68793751212,
      "d": 52.966041666659294,
      "v": 52
    },
    {
      "midi": 42,
      "hit": false,
      "t": 179220.13700001212,
      "d": 5.296604166680481,
      "v": 62
    },
    {
      "midi": 81,
      "hit": false,
      "t": 179241.32341667882,
      "d": 79.44906250000349,
      "v": 77
    },
    {
      "midi": 42,
      "hit": false,
      "t": 179352.55210417885,
      "d": 5.296604166680481,
      "v": 44
    },
    {
      "midi": 81,
      "hit": false,
      "t": 179352.55210417885,
      "d": 42.37283333335654,
      "v": 67
    },
    {
      "midi": 35,
      "hit": false,
      "t": 179474.3740000122,
      "d": 74.15245833332301,
      "v": 120
    },
    {
      "midi": 69,
      "hit": false,
      "t": 179474.3740000122,
      "d": 84.74566666665487,
      "v": 111
    },
    {
      "midi": 57,
      "hit": false,
      "t": 179474.3740000122,
      "d": 121.82189583336003,
      "v": 78
    },
    {
      "midi": 81,
      "hit": false,
      "t": 179474.3740000122,
      "d": 121.82189583336003,
      "v": 87
    },
    {
      "midi": 71,
      "hit": false,
      "t": 179559.11966667886,
      "d": 116.52529166673776,
      "v": 111
    },
    {
      "midi": 59,
      "hit": false,
      "t": 179559.11966667886,
      "d": 121.82189583341824,
      "v": 78
    },
    {
      "midi": 83,
      "hit": false,
      "t": 179559.11966667886,
      "d": 121.82189583341824,
      "v": 87
    },
    {
      "midi": 74,
      "hit": false,
      "t": 179643.86533334557,
      "d": 116.52529166670865,
      "v": 111
    },
    {
      "midi": 62,
      "hit": false,
      "t": 179643.86533334557,
      "d": 121.82189583338914,
      "v": 78
    },
    {
      "midi": 86,
      "hit": false,
      "t": 179643.86533334557,
      "d": 121.82189583338914,
      "v": 87
    },
    {
      "midi": 76,
      "hit": false,
      "t": 179728.6110000123,
      "d": 116.52529166667955,
      "v": 111
    },
    {
      "midi": 64,
      "hit": false,
      "t": 179728.6110000123,
      "d": 121.82189583336003,
      "v": 78
    },
    {
      "midi": 88,
      "hit": false,
      "t": 179728.6110000123,
      "d": 121.82189583336003,
      "v": 87
    },
    {
      "midi": 79,
      "hit": false,
      "t": 179813.35666667897,
      "d": 116.52529166667955,
      "v": 111
    },
    {
      "midi": 67,
      "hit": false,
      "t": 179813.35666667897,
      "d": 121.82189583336003,
      "v": 78
    },
    {
      "midi": 91,
      "hit": false,
      "t": 179813.35666667897,
      "d": 121.82189583336003,
      "v": 87
    },
    {
      "midi": 81,
      "hit": false,
      "t": 179898.10233334565,
      "d": 116.52529166667955,
      "v": 111
    },
    {
      "midi": 93,
      "hit": false,
      "t": 179898.10233334565,
      "d": 121.82189583336003,
      "v": 87
    },
    {
      "midi": 69,
      "hit": false,
      "t": 179982.84800001234,
      "d": 37.07622916667606,
      "v": 101
    },
    {
      "midi": 35,
      "hit": false,
      "t": 179982.84800001234,
      "d": 74.15245833335212,
      "v": 120
    },
    {
      "midi": 64,
      "hit": false,
      "t": 179982.84800001234,
      "d": 826.2702500001469,
      "v": 113
    },
    {
      "midi": 66,
      "hit": false,
      "t": 179982.84800001234,
      "d": 847.4566666668106,
      "v": 105
    },
    {
      "midi": 50,
      "hit": false,
      "t": 179982.84800001234,
      "d": 879.2362916668062,
      "v": 89
    },
    {
      "midi": 38,
      "hit": false,
      "t": 179982.84800001234,
      "d": 1011.6513958335563,
      "v": 61
    },
    {
      "midi": 69,
      "hit": false,
      "t": 180109.96650001235,
      "d": 116.52529166667955,
      "v": 83
    },
    {
      "midi": 81,
      "hit": false,
      "t": 180109.96650001235,
      "d": 116.52529166667955,
      "v": 116
    },
    {
      "midi": 93,
      "hit": false,
      "t": 180109.96650001235,
      "d": 121.82189583336003,
      "v": 92
    },
    {
      "midi": 86,
      "hit": false,
      "t": 180237.0850000124,
      "d": 21.186416666663717,
      "v": 116
    },
    {
      "midi": 74,
      "hit": false,
      "t": 180237.0850000124,
      "d": 116.52529166665045,
      "v": 83
    },
    {
      "midi": 98,
      "hit": false,
      "t": 180237.0850000124,
      "d": 121.82189583333093,
      "v": 92
    },
    {
      "midi": 76,
      "hit": false,
      "t": 180364.2035000124,
      "d": 116.52529166667955,
      "v": 83
    },
    {
      "midi": 88,
      "hit": false,
      "t": 180364.2035000124,
      "d": 116.52529166667955,
      "v": 116
    },
    {
      "midi": 100,
      "hit": false,
      "t": 180364.2035000124,
      "d": 121.82189583336003,
      "v": 92
    },
    {
      "midi": 69,
      "hit": false,
      "t": 180491.32200001244,
      "d": 105.93208333334769,
      "v": 75
    },
    {
      "midi": 81,
      "hit": false,
      "t": 180491.32200001244,
      "d": 243.64379166669096,
      "v": 83
    },
    {
      "midi": 93,
      "hit": false,
      "t": 180491.32200001244,
      "d": 243.64379166669096,
      "v": 116
    },
    {
      "midi": 105,
      "hit": false,
      "t": 180491.32200001244,
      "d": 248.94039583337144,
      "v": 92
    },
    {
      "midi": 74,
      "hit": false,
      "t": 180618.44050001245,
      "d": 105.93208333334769,
      "v": 75
    },
    {
      "midi": 76,
      "hit": false,
      "t": 180745.5590000125,
      "d": 105.93208333331859,
      "v": 75
    },
    {
      "midi": 78,
      "hit": false,
      "t": 180745.5590000125,
      "d": 243.64379166672006,
      "v": 83
    },
    {
      "midi": 90,
      "hit": false,
      "t": 180745.5590000125,
      "d": 243.64379166672006,
      "v": 116
    },
    {
      "midi": 102,
      "hit": false,
      "t": 180745.5590000125,
      "d": 376.05889583344106,
      "v": 92
    },
    {
      "midi": 51,
      "hit": false,
      "t": 180872.67750001248,
      "d": 5.296604166680481,
      "v": 65
    },
    {
      "midi": 81,
      "hit": false,
      "t": 180872.67750001248,
      "d": 233.0505833334464,
      "v": 75
    },
    {
      "midi": 51,
      "hit": false,
      "t": 180915.05033334583,
      "d": 5.296604166680481,
      "v": 69
    },
    {
      "midi": 51,
      "hit": false,
      "t": 180957.4231666792,
      "d": 5.296604166680481,
      "v": 73
    },
    {
      "midi": 51,
      "hit": false,
      "t": 180999.79600001257,
      "d": 5.296604166680481,
      "v": 75
    },
    {
      "midi": 35,
      "hit": false,
      "t": 180999.79600001257,
      "d": 74.15245833335212,
      "v": 120
    },
    {
      "midi": 63,
      "hit": false,
      "t": 180999.79600001257,
      "d": 858.0498750002298,
      "v": 111
    },
    {
      "midi": 66,
      "hit": false,
      "t": 180999.79600001257,
      "d": 858.0498750002298,
      "v": 108
    },
    {
      "midi": 69,
      "hit": false,
      "t": 180999.79600001257,
      "d": 858.0498750002298,
      "v": 102
    },
    {
      "midi": 39,
      "hit": false,
      "t": 180999.79600001257,
      "d": 1011.6513958335854,
      "v": 61
    },
    {
      "midi": 71,
      "hit": false,
      "t": 181126.91450001262,
      "d": 116.52529166667955,
      "v": 83
    },
    {
      "midi": 83,
      "hit": false,
      "t": 181126.91450001262,
      "d": 116.52529166667955,
      "v": 116
    },
    {
      "midi": 95,
      "hit": false,
      "t": 181126.91450001262,
      "d": 121.82189583336003,
      "v": 92
    },
    {
      "midi": 78,
      "hit": false,
      "t": 181126.91450001262,
      "d": 233.0505833333882,
      "v": 75
    },
    {
      "midi": 73,
      "hit": false,
      "t": 181254.03300001266,
      "d": 116.52529166667955,
      "v": 83
    },
    {
      "midi": 85,
      "hit": false,
      "t": 181254.03300001266,
      "d": 116.52529166667955,
      "v": 116
    },
    {
      "midi": 97,
      "hit": false,
      "t": 181254.03300001266,
      "d": 121.82189583336003,
      "v": 92
    },
    {
      "midi": 51,
      "hit": false,
      "t": 181381.1515000127,
      "d": 5.296604166680481,
      "v": 80
    },
    {
      "midi": 75,
      "hit": false,
      "t": 181381.1515000127,
      "d": 116.52529166667955,
      "v": 83
    },
    {
      "midi": 87,
      "hit": false,
      "t": 181381.1515000127,
      "d": 116.52529166667955,
      "v": 116
    },
    {
      "midi": 99,
      "hit": false,
      "t": 181381.1515000127,
      "d": 121.82189583336003,
      "v": 92
    },
    {
      "midi": 51,
      "hit": false,
      "t": 181508.27000001274,
      "d": 5.296604166680481,
      "v": 96
    },
    {
      "midi": 71,
      "hit": false,
      "t": 181508.27000001274,
      "d": 105.93208333334769,
      "v": 75
    },
    {
      "midi": 83,
      "hit": false,
      "t": 181508.27000001274,
      "d": 243.64379166669096,
      "v": 83
    },
    {
      "midi": 95,
      "hit": false,
      "t": 181508.27000001274,
      "d": 243.64379166669096,
      "v": 116
    },
    {
      "midi": 107,
      "hit": false,
      "t": 181508.27000001274,
      "d": 248.94039583337144,
      "v": 92
    },
    {
      "midi": 73,
      "hit": false,
      "t": 181635.38850001275,
      "d": 105.93208333334769,
      "v": 75
    },
    {
      "midi": 51,
      "hit": false,
      "t": 181762.5070000128,
      "d": 5.296604166680481,
      "v": 80
    },
    {
      "midi": 75,
      "hit": false,
      "t": 181762.5070000128,
      "d": 105.93208333334769,
      "v": 75
    },
    {
      "midi": 78,
      "hit": false,
      "t": 181762.5070000128,
      "d": 243.64379166669096,
      "v": 83
    },
    {
      "midi": 90,
      "hit": false,
      "t": 181762.5070000128,
      "d": 243.64379166669096,
      "v": 116
    },
    {
      "midi": 102,
      "hit": false,
      "t": 181762.5070000128,
      "d": 248.94039583337144,
      "v": 92
    },
    {
      "midi": 83,
      "hit": false,
      "t": 181889.6255000128,
      "d": 233.0505833333882,
      "v": 75
    },
    {
      "midi": 49,
      "hit": false,
      "t": 182016.74400001284,
      "d": 5.296604166680481,
      "v": 99
    },
    {
      "midi": 57,
      "hit": false,
      "t": 182016.74400001284,
      "d": 5.296604166680481,
      "v": 114
    },
    {
      "midi": 35,
      "hit": false,
      "t": 182016.74400001284,
      "d": 74.15245833335212,
      "v": 120
    },
    {
      "midi": 69,
      "hit": false,
      "t": 182016.74400001284,
      "d": 116.52529166667955,
      "v": 83
    },
    {
      "midi": 81,
      "hit": false,
      "t": 182016.74400001284,
      "d": 116.52529166667955,
      "v": 116
    },
    {
      "midi": 93,
      "hit": false,
      "t": 182016.74400001284,
      "d": 121.82189583336003,
      "v": 92
    },
    {
      "midi": 62,
      "hit": false,
      "t": 182016.74400001284,
      "d": 1652.5405000004102,
      "v": 121
    },
    {
      "midi": 46,
      "hit": false,
      "t": 182016.74400001284,
      "d": 1673.726916667103,
      "v": 83
    },
    {
      "midi": 70,
      "hit": false,
      "t": 182016.74400001284,
      "d": 1779.6590000004508,
      "v": 110
    },
    {
      "midi": 34,
      "hit": false,
      "t": 182016.74400001284,
      "d": 2028.5993958338804,
      "v": 50
    },
    {
      "midi": 65,
      "hit": false,
      "t": 182143.86250001288,
      "d": 116.52529166667955,
      "v": 83
    },
    {
      "midi": 77,
      "hit": false,
      "t": 182143.86250001288,
      "d": 116.52529166667955,
      "v": 116
    },
    {
      "midi": 89,
      "hit": false,
      "t": 182143.86250001288,
      "d": 121.82189583336003,
      "v": 92
    },
    {
      "midi": 78,
      "hit": false,
      "t": 182143.86250001288,
      "d": 233.0505833333882,
      "v": 75
    },
    {
      "midi": 67,
      "hit": false,
      "t": 182270.98100001292,
      "d": 116.52529166667955,
      "v": 83
    },
    {
      "midi": 79,
      "hit": false,
      "t": 182270.98100001292,
      "d": 116.52529166667955,
      "v": 116
    },
    {
      "midi": 91,
      "hit": false,
      "t": 182270.98100001292,
      "d": 121.82189583336003,
      "v": 92
    },
    {
      "midi": 51,
      "hit": false,
      "t": 182398.09950001296,
      "d": 5.296604166680481,
      "v": 65
    },
    {
      "midi": 69,
      "hit": false,
      "t": 182398.09950001296,
      "d": 105.9320833334059,
      "v": 83
    },
    {
      "midi": 81,
      "hit": false,
      "t": 182398.09950001296,
      "d": 116.52529166673776,
      "v": 116
    },
    {
      "midi": 93,
      "hit": false,
      "t": 182398.09950001296,
      "d": 121.82189583341824,
      "v": 92
    },
    {
      "midi": 51,
      "hit": false,
      "t": 182440.47233334632,
      "d": 5.296604166680481,
      "v": 69
    },
    {
      "midi": 51,
      "hit": false,
      "t": 182482.84516667968,
      "d": 5.296604166680481,
      "v": 73
    },
    {
      "midi": 51,
      "hit": false,
      "t": 182525.21800001306,
      "d": 5.296604166680481,
      "v": 96
    },
    {
      "midi": 35,
      "hit": false,
      "t": 182525.21800001306,
      "d": 74.15245833335212,
      "v": 120
    },
    {
      "midi": 65,
      "hit": false,
      "t": 182525.21800001306,
      "d": 105.93208333334769,
      "v": 75
    },
    {
      "midi": 74,
      "hit": false,
      "t": 182525.21800001306,
      "d": 243.64379166669096,
      "v": 83
    },
    {
      "midi": 86,
      "hit": false,
      "t": 182525.21800001306,
      "d": 243.64379166669096,
      "v": 116
    },
    {
      "midi": 98,
      "hit": false,
      "t": 182525.21800001306,
      "d": 248.94039583337144,
      "v": 92
    },
    {
      "midi": 67,
      "hit": false,
      "t": 182652.33650001307,
      "d": 105.93208333334769,
      "v": 75
    },
    {
      "midi": 51,
      "hit": false,
      "t": 182779.4550000131,
      "d": 5.296604166680481,
      "v": 96
    },
    {
      "midi": 69,
      "hit": false,
      "t": 182779.4550000131,
      "d": 105.93208333334769,
      "v": 75
    },
    {
      "midi": 89,
      "hit": false,
      "t": 182779.4550000131,
      "d": 1260.5917916669277,
      "v": 116
    },
    {
      "midi": 101,
      "hit": false,
      "t": 182779.4550000131,
      "d": 1265.8883958336082,
      "v": 92
    },
    {
      "midi": 74,
      "hit": false,
      "t": 182906.57350001312,
      "d": 233.0505833333591,
      "v": 75
    },
    {
      "midi": 40,
      "hit": false,
      "t": 183033.69200001314,
      "d": 5.296604166680481,
      "v": 93
    },
    {
      "midi": 35,
      "hit": false,
      "t": 183033.69200001314,
      "d": 74.15245833335212,
      "v": 120
    },
    {
      "midi": 40,
      "hit": false,
      "t": 183160.81050001315,
      "d": 5.296604166680481,
      "v": 93
    },
    {
      "midi": 77,
      "hit": false,
      "t": 183160.81050001315,
      "d": 879.2362916668935,
      "v": 75
    },
    {
      "midi": 40,
      "hit": false,
      "t": 183224.36975001317,
      "d": 5.296604166680481,
      "v": 93
    },
    {
      "midi": 40,
      "hit": false,
      "t": 183287.9290000132,
      "d": 5.296604166680481,
      "v": 93
    },
    {
      "midi": 40,
      "hit": false,
      "t": 183415.0475000132,
      "d": 5.296604166680481,
      "v": 93
    },
    {
      "midi": 40,
      "hit": false,
      "t": 183542.1660000132,
      "d": 5.296604166680481,
      "v": 93
    },
    {
      "midi": 35,
      "hit": false,
      "t": 183542.1660000132,
      "d": 74.15245833335212,
      "v": 120
    },
    {
      "midi": 40,
      "hit": false,
      "t": 183669.28450001325,
      "d": 5.296604166680481,
      "v": 93
    },
    {
      "midi": 71,
      "hit": false,
      "t": 183669.28450001325,
      "d": 58.26264583336888,
      "v": 90
    },
    {
      "midi": 74,
      "hit": false,
      "t": 183669.28450001325,
      "d": 58.26264583336888,
      "v": 127
    },
    {
      "midi": 78,
      "hit": false,
      "t": 183669.28450001325,
      "d": 58.26264583336888,
      "v": 127
    },
    {
      "midi": 90,
      "hit": false,
      "t": 183669.28450001325,
      "d": 58.26264583336888,
      "v": 90
    },
    {
      "midi": 70,
      "hit": false,
      "t": 183796.4030000133,
      "d": 58.262645833339775,
      "v": 90
    },
    {
      "midi": 74,
      "hit": false,
      "t": 183796.4030000133,
      "d": 58.262645833339775,
      "v": 127
    },
    {
      "midi": 78,
      "hit": false,
      "t": 183796.4030000133,
      "d": 58.262645833339775,
      "v": 127
    },
    {
      "midi": 90,
      "hit": false,
      "t": 183796.4030000133,
      "d": 58.262645833339775,
      "v": 90
    },
    {
      "midi": 40,
      "hit": false,
      "t": 183923.5215000133,
      "d": 5.296604166680481,
      "v": 93
    },
    {
      "midi": 69,
      "hit": false,
      "t": 183923.5215000133,
      "d": 95.33887500004494,
      "v": 90
    },
    {
      "midi": 74,
      "hit": false,
      "t": 183923.5215000133,
      "d": 95.33887500004494,
      "v": 122
    },
    {
      "midi": 78,
      "hit": false,
      "t": 183923.5215000133,
      "d": 95.33887500004494,
      "v": 122
    },
    {
      "midi": 90,
      "hit": false,
      "t": 183923.5215000133,
      "d": 95.33887500004494,
      "v": 85
    },
    {
      "midi": 42,
      "hit": false,
      "t": 184045.34339584672,
      "d": 5.296604166680481,
      "v": 43
    },
    {
      "midi": 49,
      "hit": false,
      "t": 184050.6400000134,
      "d": 5.296604166680481,
      "v": 108
    },
    {
      "midi": 57,
      "hit": false,
      "t": 184050.6400000134,
      "d": 5.296604166680481,
      "v": 108
    },
    {
      "midi": 61,
      "hit": false,
      "t": 184050.6400000134,
      "d": 5.296604166680481,
      "v": 67
    },
    {
      "midi": 77,
      "hit": false,
      "t": 184050.6400000134,
      "d": 5.296604166680481,
      "v": 58
    },
    {
      "midi": 62,
      "hit": false,
      "t": 184050.6400000134,
      "d": 31.77962500002468,
      "v": 120
    },
    {
      "midi": 33,
      "hit": false,
      "t": 184061.23320834676,
      "d": 58.262645833339775,
      "v": 105
    },
    {
      "midi": 45,
      "hit": false,
      "t": 184061.23320834676,
      "d": 58.262645833339775,
      "v": 105
    },
    {
      "midi": 35,
      "hit": false,
      "t": 184114.19925001342,
      "d": 10.593208333360963,
      "v": 105
    },
    {
      "midi": 47,
      "hit": false,
      "t": 184114.19925001342,
      "d": 21.18641666669282,
      "v": 105
    },
    {
      "midi": 36,
      "hit": false,
      "t": 184145.97887501345,
      "d": 21.186416666663717,
      "v": 105
    },
    {
      "midi": 48,
      "hit": false,
      "t": 184145.97887501345,
      "d": 21.186416666663717,
      "v": 105
    },
    {
      "midi": 38,
      "hit": false,
      "t": 184167.1652916801,
      "d": 26.483020833373303,
      "v": 105
    },
    {
      "midi": 50,
      "hit": false,
      "t": 184167.1652916801,
      "d": 26.483020833373303,
      "v": 105
    },
    {
      "midi": 62,
      "hit": false,
      "t": 184177.75850001344,
      "d": 31.779625000082888,
      "v": 103
    },
    {
      "midi": 42,
      "hit": false,
      "t": 184183.05510418012,
      "d": 5.296604166680481,
      "v": 35
    },
    {
      "midi": 61,
      "hit": false,
      "t": 184188.3517083468,
      "d": 5.296604166680481,
      "v": 65
    },
    {
      "midi": 40,
      "hit": false,
      "t": 184188.3517083468,
      "d": 15.889812500041444,
      "v": 105
    },
    {
      "midi": 52,
      "hit": false,
      "t": 184188.3517083468,
      "d": 15.889812500041444,
      "v": 105
    },
    {
      "midi": 77,
      "hit": false,
      "t": 184198.94491668016,
      "d": 5.296604166680481,
      "v": 52
    },
    {
      "midi": 41,
      "hit": false,
      "t": 184198.94491668016,
      "d": 21.18641666669282,
      "v": 105
    },
    {
      "midi": 53,
      "hit": false,
      "t": 184198.94491668016,
      "d": 21.18641666669282,
      "v": 105
    },
    {
      "midi": 43,
      "hit": false,
      "t": 184220.13133334686,
      "d": 21.186416666663717,
      "v": 105
    },
    {
      "midi": 55,
      "hit": false,
      "t": 184220.13133334686,
      "d": 21.186416666663717,
      "v": 105
    },
    {
      "midi": 45,
      "hit": false,
      "t": 184241.31775001352,
      "d": 31.779624999995576,
      "v": 105
    },
    {
      "midi": 57,
      "hit": false,
      "t": 184241.31775001352,
      "d": 31.779624999995576,
      "v": 105
    },
    {
      "midi": 47,
      "hit": false,
      "t": 184262.50416668018,
      "d": 116.52529166670865,
      "v": 105
    },
    {
      "midi": 59,
      "hit": false,
      "t": 184262.50416668018,
      "d": 116.52529166670865,
      "v": 105
    },
    {
      "midi": 98,
      "hit": false,
      "t": 184299.58039584686,
      "d": 10.593208333360963,
      "v": 117
    },
    {
      "midi": 102,
      "hit": false,
      "t": 184299.58039584686,
      "d": 10.593208333360963,
      "v": 82
    },
    {
      "midi": 105,
      "hit": false,
      "t": 184299.58039584686,
      "d": 10.593208333360963,
      "v": 92
    },
    {
      "midi": 42,
      "hit": false,
      "t": 184304.87700001354,
      "d": 5.296604166680481,
      "v": 92
    },
    {
      "midi": 61,
      "hit": false,
      "t": 184304.87700001354,
      "d": 5.296604166680481,
      "v": 74
    },
    {
      "midi": 77,
      "hit": false,
      "t": 184304.87700001354,
      "d": 5.296604166680481,
      "v": 14
    },
    {
      "midi": 62,
      "hit": false,
      "t": 184304.87700001354,
      "d": 31.77962500002468,
      "v": 109
    },
    {
      "midi": 45,
      "hit": false,
      "t": 184368.43625001356,
      "d": 37.07622916667606,
      "v": 105
    },
    {
      "midi": 57,
      "hit": false,
      "t": 184368.43625001356,
      "d": 37.07622916667606,
      "v": 105
    },
    {
      "midi": 43,
      "hit": false,
      "t": 184389.62266668022,
      "d": 47.66943750003702,
      "v": 105
    },
    {
      "midi": 55,
      "hit": false,
      "t": 184389.62266668022,
      "d": 47.66943750003702,
      "v": 105
    },
    {
      "midi": 41,
      "hit": false,
      "t": 184410.80908334692,
      "d": 42.37283333338564,
      "v": 105
    },
    {
      "midi": 53,
      "hit": false,
      "t": 184410.80908334692,
      "d": 42.37283333338564,
      "v": 105
    },
    {
      "midi": 62,
      "hit": false,
      "t": 184431.99550001358,
      "d": 31.779625000082888,
      "v": 58
    },
    {
      "midi": 42,
      "hit": false,
      "t": 184437.29210418026,
      "d": 5.296604166680481,
      "v": 38
    },
    {
      "midi": 61,
      "hit": false,
      "t": 184442.58870834694,
      "d": 5.296604166680481,
      "v": 51
    },
    {
      "midi": 40,
      "hit": false,
      "t": 184442.58870834694,
      "d": 31.779625000053784,
      "v": 105
    },
    {
      "midi": 52,
      "hit": false,
      "t": 184442.58870834694,
      "d": 31.779625000053784,
      "v": 105
    },
    {
      "midi": 77,
      "hit": false,
      "t": 184453.1819166803,
      "d": 5.296604166680481,
      "v": 57
    },
    {
      "midi": 38,
      "hit": false,
      "t": 184453.1819166803,
      "d": 21.18641666669282,
      "v": 105
    },
    {
      "midi": 50,
      "hit": false,
      "t": 184453.1819166803,
      "d": 21.18641666669282,
      "v": 105
    },
    {
      "midi": 35,
      "hit": false,
      "t": 184463.77512501366,
      "d": 37.07622916667606,
      "v": 105
    },
    {
      "midi": 47,
      "hit": false,
      "t": 184463.77512501366,
      "d": 37.07622916667606,
      "v": 105
    },
    {
      "midi": 36,
      "hit": false,
      "t": 184474.368333347,
      "d": 21.186416666663717,
      "v": 105
    },
    {
      "midi": 48,
      "hit": false,
      "t": 184474.368333347,
      "d": 21.186416666663717,
      "v": 105
    },
    {
      "midi": 33,
      "hit": false,
      "t": 184495.55475001366,
      "d": 31.77962500002468,
      "v": 105
    },
    {
      "midi": 45,
      "hit": false,
      "t": 184495.55475001366,
      "d": 31.77962500002468,
      "v": 105
    },
    {
      "midi": 31,
      "hit": false,
      "t": 184516.74116668035,
      "d": 26.4830208333442,
      "v": 105
    },
    {
      "midi": 43,
      "hit": false,
      "t": 184516.74116668035,
      "d": 26.4830208333442,
      "v": 105
    },
    {
      "midi": 29,
      "hit": false,
      "t": 184537.92758334702,
      "d": 26.483020833373303,
      "v": 105
    },
    {
      "midi": 41,
      "hit": false,
      "t": 184537.92758334702,
      "d": 26.483020833373303,
      "v": 105
    },
    {
      "midi": 42,
      "hit": false,
      "t": 184553.81739584703,
      "d": 5.296604166680481,
      "v": 43
    },
    {
      "midi": 60,
      "hit": false,
      "t": 184559.1140000137,
      "d": 5.296604166680481,
      "v": 68
    },
    {
      "midi": 77,
      "hit": false,
      "t": 184559.1140000137,
      "d": 5.296604166680481,
      "v": 56
    },
    {
      "midi": 28,
      "hit": false,
      "t": 184559.1140000137,
      "d": 21.18641666669282,
      "v": 105
    },
    {
      "midi": 40,
      "hit": false,
      "t": 184559.1140000137,
      "d": 21.18641666669282,
      "v": 105
    },
    {
      "midi": 62,
      "hit": false,
      "t": 184559.1140000137,
      "d": 31.77962500002468,
      "v": 127
    },
    {
      "midi": 86,
      "hit": false,
      "t": 184559.1140000137,
      "d": 74.15245833335212,
      "v": 109
    },
    {
      "midi": 74,
      "hit": false,
      "t": 184559.1140000137,
      "d": 95.33887500001583,
      "v": 124
    },
    {
      "midi": 78,
      "hit": false,
      "t": 184559.1140000137,
      "d": 95.33887500001583,
      "v": 104
    },
    {
      "midi": 26,
      "hit": false,
      "t": 184569.70720834707,
      "d": 31.779624999995576,
      "v": 105
    },
    {
      "midi": 38,
      "hit": false,
      "t": 184569.70720834707,
      "d": 31.779624999995576,
      "v": 105
    },
    {
      "midi": 24,
      "hit": false,
      "t": 184590.89362501373,
      "d": 31.779624999995576,
      "v": 105
    },
    {
      "midi": 36,
      "hit": false,
      "t": 184590.89362501373,
      "d": 31.779624999995576,
      "v": 105
    },
    {
      "midi": 35,
      "hit": false,
      "t": 184601.48683334707,
      "d": 31.779624999995576,
      "v": 105
    },
    {
      "midi": 23,
      "hit": false,
      "t": 184601.48683334707,
      "d": 79.44906250000349,
      "v": 105
    },
    {
      "midi": 21,
      "hit": false,
      "t": 184643.8596666804,
      "d": 111.22868750011548,
      "v": 105
    },
    {
      "midi": 33,
      "hit": false,
      "t": 184643.8596666804,
      "d": 111.22868750011548,
      "v": 105
    },
    {
      "midi": 62,
      "hit": false,
      "t": 184686.23250001375,
      "d": 31.779625000082888,
      "v": 127
    },
    {
      "midi": 42,
      "hit": false,
      "t": 184691.52910418043,
      "d": 5.296604166680481,
      "v": 35
    },
    {
      "midi": 61,
      "hit": false,
      "t": 184696.8257083471,
      "d": 5.296604166680481,
      "v": 38
    },
    {
      "midi": 77,
      "hit": false,
      "t": 184707.41891668047,
      "d": 5.296604166680481,
      "v": 63
    },
    {
      "midi": 98,
      "hit": false,
      "t": 184808.05439584717,
      "d": 10.593208333360963,
      "v": 104
    },
    {
      "midi": 102,
      "hit": false,
      "t": 184808.05439584717,
      "d": 10.593208333360963,
      "v": 69
    },
    {
      "midi": 105,
      "hit": false,
      "t": 184808.05439584717,
      "d": 10.593208333360963,
      "v": 79
    },
    {
      "midi": 42,
      "hit": false,
      "t": 184813.35100001385,
      "d": 5.296604166680481,
      "v": 92
    },
    {
      "midi": 61,
      "hit": false,
      "t": 184813.35100001385,
      "d": 5.296604166680481,
      "v": 62
    },
    {
      "midi": 77,
      "hit": false,
      "t": 184813.35100001385,
      "d": 5.296604166680481,
      "v": 15
    },
    {
      "midi": 62,
      "hit": false,
      "t": 184813.35100001385,
      "d": 31.77962500002468,
      "v": 114
    },
    {
      "midi": 95,
      "hit": false,
      "t": 184813.35100001385,
      "d": 79.4490625000326,
      "v": 107
    },
    {
      "midi": 79,
      "hit": false,
      "t": 184813.35100001385,
      "d": 90.04227083336446,
      "v": 90
    },
    {
      "midi": 83,
      "hit": false,
      "t": 184813.35100001385,
      "d": 90.04227083336446,
      "v": 110
    },
    {
      "midi": 38,
      "hit": false,
      "t": 184940.4695000139,
      "d": 5.296604166680481,
      "v": 40
    },
    {
      "midi": 62,
      "hit": false,
      "t": 184940.4695000139,
      "d": 31.779625000082888,
      "v": 79
    },
    {
      "midi": 42,
      "hit": false,
      "t": 184945.76610418057,
      "d": 5.296604166680481,
      "v": 38
    },
    {
      "midi": 61,
      "hit": false,
      "t": 184951.06270834725,
      "d": 5.296604166680481,
      "v": 75
    },
    {
      "midi": 77,
      "hit": false,
      "t": 184961.6559166806,
      "d": 5.296604166680481,
      "v": 60
    },
    {
      "midi": 38,
      "hit": false,
      "t": 184982.8423333473,
      "d": 5.296604166680481,
      "v": 40
    },
    {
      "midi": 38,
      "hit": false,
      "t": 185025.21516668066,
      "d": 5.296604166680481,
      "v": 40
    },
    {
      "midi": 42,
      "hit": false,
      "t": 185062.29139584734,
      "d": 5.296604166680481,
      "v": 58
    },
    {
      "midi": 98,
      "hit": false,
      "t": 185062.29139584734,
      "d": 10.593208333360963,
      "v": 94
    },
    {
      "midi": 100,
      "hit": false,
      "t": 185062.29139584734,
      "d": 10.593208333360963,
      "v": 78
    },
    {
      "midi": 105,
      "hit": false,
      "t": 185062.29139584734,
      "d": 10.593208333360963,
      "v": 88
    },
    {
      "midi": 38,
      "hit": false,
      "t": 185067.58800001402,
      "d": 5.296604166680481,
      "v": 40
    },
    {
      "midi": 61,
      "hit": false,
      "t": 185067.58800001402,
      "d": 5.296604166680481,
      "v": 67
    },
    {
      "midi": 77,
      "hit": false,
      "t": 185067.58800001402,
      "d": 5.296604166680481,
      "v": 65
    },
    {
      "midi": 62,
      "hit": false,
      "t": 185067.58800001402,
      "d": 31.77962500002468,
      "v": 108
    },
    {
      "midi": 35,
      "hit": false,
      "t": 185067.58800001402,
      "d": 74.15245833335212,
      "v": 120
    },
    {
      "midi": 93,
      "hit": false,
      "t": 185067.58800001402,
      "d": 397.2453125001921,
      "v": 96
    },
    {
      "midi": 78,
      "hit": false,
      "t": 185067.58800001402,
      "d": 503.1773958335689,
      "v": 90
    },
    {
      "midi": 81,
      "hit": false,
      "t": 185067.58800001402,
      "d": 503.1773958335689,
      "v": 110
    },
    {
      "midi": 98,
      "hit": false,
      "t": 185189.40989584738,
      "d": 10.593208333360963,
      "v": 70
    },
    {
      "midi": 100,
      "hit": false,
      "t": 185189.40989584738,
      "d": 10.593208333360963,
      "v": 54
    },
    {
      "midi": 105,
      "hit": false,
      "t": 185189.40989584738,
      "d": 10.593208333360963,
      "v": 64
    },
    {
      "midi": 62,
      "hit": false,
      "t": 185194.70650001406,
      "d": 31.779625000082888,
      "v": 91
    },
    {
      "midi": 42,
      "hit": false,
      "t": 185200.00310418074,
      "d": 5.296604166680481,
      "v": 37
    },
    {
      "midi": 61,
      "hit": false,
      "t": 185205.29970834742,
      "d": 5.296604166680481,
      "v": 65
    },
    {
      "midi": 77,
      "hit": false,
      "t": 185215.89291668078,
      "d": 5.296604166680481,
      "v": 64
    },
    {
      "midi": 42,
      "hit": false,
      "t": 185321.82500001413,
      "d": 5.296604166680481,
      "v": 77
    },
    {
      "midi": 61,
      "hit": false,
      "t": 185321.82500001413,
      "d": 5.296604166680481,
      "v": 74
    },
    {
      "midi": 77,
      "hit": false,
      "t": 185321.82500001413,
      "d": 5.296604166680481,
      "v": 13
    },
    {
      "midi": 62,
      "hit": false,
      "t": 185321.82500001413,
      "d": 31.77962500002468,
      "v": 114
    },
    {
      "midi": 98,
      "hit": false,
      "t": 185443.6468958475,
      "d": 10.593208333360963,
      "v": 97
    },
    {
      "midi": 100,
      "hit": false,
      "t": 185443.6468958475,
      "d": 10.593208333360963,
      "v": 81
    },
    {
      "midi": 105,
      "hit": false,
      "t": 185443.6468958475,
      "d": 10.593208333360963,
      "v": 91
    },
    {
      "midi": 62,
      "hit": false,
      "t": 185448.94350001417,
      "d": 31.779625000082888,
      "v": 59
    },
    {
      "midi": 42,
      "hit": false,
      "t": 185454.24010418085,
      "d": 5.296604166680481,
      "v": 38
    },
    {
      "midi": 61,
      "hit": false,
      "t": 185459.53670834753,
      "d": 5.296604166680481,
      "v": 44
    },
    {
      "midi": 77,
      "hit": false,
      "t": 185470.1299166809,
      "d": 5.296604166680481,
      "v": 59
    },
    {
      "midi": 42,
      "hit": false,
      "t": 185570.7653958476,
      "d": 5.296604166680481,
      "v": 67
    },
    {
      "midi": 40,
      "hit": false,
      "t": 185576.06200001427,
      "d": 5.296604166680481,
      "v": 93
    },
    {
      "midi": 60,
      "hit": false,
      "t": 185576.06200001427,
      "d": 5.296604166680481,
      "v": 68
    },
    {
      "midi": 77,
      "hit": false,
      "t": 185576.06200001427,
      "d": 5.296604166680481,
      "v": 57
    },
    {
      "midi": 62,
      "hit": false,
      "t": 185576.06200001427,
      "d": 31.77962500002468,
      "v": 118
    },
    {
      "midi": 35,
      "hit": false,
      "t": 185576.06200001427,
      "d": 74.15245833335212,
      "v": 120
    },
    {
      "midi": 79,
      "hit": false,
      "t": 185576.06200001427,
      "d": 291.3132291668153,
      "v": 107
    },
    {
      "midi": 83,
      "hit": false,
      "t": 185576.06200001427,
      "d": 291.3132291668153,
      "v": 127
    },
    {
      "midi": 95,
      "hit": false,
      "t": 185576.06200001427,
      "d": 376.05889583347016,
      "v": 104
    },
    {
      "midi": 62,
      "hit": false,
      "t": 185703.18050001428,
      "d": 31.779625000082888,
      "v": 108
    },
    {
      "midi": 42,
      "hit": false,
      "t": 185708.47710418096,
      "d": 5.296604166680481,
      "v": 43
    },
    {
      "midi": 61,
      "hit": false,
      "t": 185713.77370834764,
      "d": 5.296604166680481,
      "v": 38
    },
    {
      "midi": 77,
      "hit": false,
      "t": 185724.366916681,
      "d": 5.296604166680481,
      "v": 60
    },
    {
      "midi": 98,
      "hit": false,
      "t": 185825.0023958477,
      "d": 10.593208333360963,
      "v": 105
    },
    {
      "midi": 102,
      "hit": false,
      "t": 185825.0023958477,
      "d": 10.593208333360963,
      "v": 70
    },
    {
      "midi": 105,
      "hit": false,
      "t": 185825.0023958477,
      "d": 10.593208333360963,
      "v": 80
    },
    {
      "midi": 42,
      "hit": false,
      "t": 185830.29900001438,
      "d": 5.296604166680481,
      "v": 69
    },
    {
      "midi": 61,
      "hit": false,
      "t": 185830.29900001438,
      "d": 5.296604166680481,
      "v": 71
    },
    {
      "midi": 77,
      "hit": false,
      "t": 185830.29900001438,
      "d": 5.296604166680481,
      "v": 13
    },
    {
      "midi": 62,
      "hit": false,
      "t": 185830.29900001438,
      "d": 31.77962500002468,
      "v": 114
    },
    {
      "midi": 42,
      "hit": false,
      "t": 185957.41750001442,
      "d": 5.296604166680481,
      "v": 69
    },
    {
      "midi": 62,
      "hit": false,
      "t": 185957.41750001442,
      "d": 31.779625000082888,
      "v": 94
    },
    {
      "midi": 69,
      "hit": false,
      "t": 185957.41750001442,
      "d": 121.82189583341824,
      "v": 106
    },
    {
      "midi": 74,
      "hit": false,
      "t": 185957.41750001442,
      "d": 121.82189583341824,
      "v": 126
    },
    {
      "midi": 61,
      "hit": false,
      "t": 185968.01070834778,
      "d": 5.296604166680481,
      "v": 69
    },
    {
      "midi": 86,
      "hit": false,
      "t": 185968.01070834778,
      "d": 105.9320833333768,
      "v": 98
    },
    {
      "midi": 77,
      "hit": false,
      "t": 185978.60391668114,
      "d": 5.296604166680481,
      "v": 50
    },
    {
      "midi": 42,
      "hit": false,
      "t": 186079.23939584784,
      "d": 5.296604166680481,
      "v": 43
    },
    {
      "midi": 61,
      "hit": false,
      "t": 186084.53600001452,
      "d": 5.296604166680481,
      "v": 67
    },
    {
      "midi": 77,
      "hit": false,
      "t": 186084.53600001452,
      "d": 5.296604166680481,
      "v": 58
    },
    {
      "midi": 62,
      "hit": false,
      "t": 186084.53600001452,
      "d": 31.77962500002468,
      "v": 120
    },
    {
      "midi": 35,
      "hit": false,
      "t": 186084.53600001452,
      "d": 74.15245833335212,
      "v": 120
    },
    {
      "midi": 62,
      "hit": false,
      "t": 186211.65450001453,
      "d": 31.779625000082888,
      "v": 103
    },
    {
      "midi": 42,
      "hit": false,
      "t": 186216.9511041812,
      "d": 5.296604166680481,
      "v": 35
    },
    {
      "midi": 61,
      "hit": false,
      "t": 186222.2477083479,
      "d": 5.296604166680481,
      "v": 65
    },
    {
      "midi": 86,
      "hit": false,
      "t": 186222.2477083479,
      "d": 68.85585416672984,
      "v": 107
    },
    {
      "midi": 77,
      "hit": false,
      "t": 186232.84091668125,
      "d": 5.296604166680481,
      "v": 52
    },
    {
      "midi": 98,
      "hit": false,
      "t": 186333.47639584795,
      "d": 10.593208333360963,
      "v": 117
    },
    {
      "midi": 102,
      "hit": false,
      "t": 186333.47639584795,
      "d": 10.593208333360963,
      "v": 82
    },
    {
      "midi": 105,
      "hit": false,
      "t": 186333.47639584795,
      "d": 10.593208333360963,
      "v": 92
    },
    {
      "midi": 42,
      "hit": false,
      "t": 186338.77300001463,
      "d": 5.296604166680481,
      "v": 92
    },
    {
      "midi": 61,
      "hit": false,
      "t": 186338.77300001463,
      "d": 5.296604166680481,
      "v": 74
    },
    {
      "midi": 77,
      "hit": false,
      "t": 186338.77300001463,
      "d": 5.296604166680481,
      "v": 14
    },
    {
      "midi": 62,
      "hit": false,
      "t": 186338.77300001463,
      "d": 31.77962500002468,
      "v": 109
    },
    {
      "midi": 69,
      "hit": false,
      "t": 186338.77300001463,
      "d": 248.94039583342965,
      "v": 85
    },
    {
      "midi": 74,
      "hit": false,
      "t": 186338.77300001463,
      "d": 248.94039583342965,
      "v": 105
    },
    {
      "midi": 62,
      "hit": false,
      "t": 186465.89150001464,
      "d": 31.779625000082888,
      "v": 58
    },
    {
      "midi": 42,
      "hit": false,
      "t": 186471.18810418132,
      "d": 5.296604166680481,
      "v": 38
    },
    {
      "midi": 61,
      "hit": false,
      "t": 186476.484708348,
      "d": 5.296604166680481,
      "v": 51
    },
    {
      "midi": 86,
      "hit": false,
      "t": 186476.484708348,
      "d": 63.55925000004936,
      "v": 111
    },
    {
      "midi": 77,
      "hit": false,
      "t": 186487.07791668136,
      "d": 5.296604166680481,
      "v": 57
    },
    {
      "midi": 94,
      "hit": false,
      "t": 186571.82358334804,
      "d": 26.483020833373303,
      "v": 95
    },
    {
      "midi": 42,
      "hit": false,
      "t": 186587.71339584806,
      "d": 5.296604166680481,
      "v": 43
    },
    {
      "midi": 60,
      "hit": false,
      "t": 186593.01000001474,
      "d": 5.296604166680481,
      "v": 68
    },
    {
      "midi": 77,
      "hit": false,
      "t": 186593.01000001474,
      "d": 5.296604166680481,
      "v": 56
    },
    {
      "midi": 62,
      "hit": false,
      "t": 186593.01000001474,
      "d": 31.77962500002468,
      "v": 127
    },
    {
      "midi": 35,
      "hit": false,
      "t": 186593.01000001474,
      "d": 74.15245833335212,
      "v": 120
    },
    {
      "midi": 83,
      "hit": false,
      "t": 186593.01000001474,
      "d": 259.5336041667906,
      "v": 111
    },
    {
      "midi": 79,
      "hit": false,
      "t": 186593.01000001474,
      "d": 513.7706041669007,
      "v": 91
    },
    {
      "midi": 95,
      "hit": false,
      "t": 186603.6032083481,
      "d": 434.32154166683904,
      "v": 105
    },
    {
      "midi": 62,
      "hit": false,
      "t": 186720.12850001475,
      "d": 31.779625000082888,
      "v": 127
    },
    {
      "midi": 42,
      "hit": false,
      "t": 186725.42510418143,
      "d": 5.296604166680481,
      "v": 35
    },
    {
      "midi": 61,
      "hit": false,
      "t": 186730.7217083481,
      "d": 5.296604166680481,
      "v": 38
    },
    {
      "midi": 77,
      "hit": false,
      "t": 186741.31491668147,
      "d": 5.296604166680481,
      "v": 63
    },
    {
      "midi": 98,
      "hit": false,
      "t": 186841.95039584817,
      "d": 10.593208333360963,
      "v": 104
    },
    {
      "midi": 102,
      "hit": false,
      "t": 186841.95039584817,
      "d": 10.593208333360963,
      "v": 69
    },
    {
      "midi": 105,
      "hit": false,
      "t": 186841.95039584817,
      "d": 10.593208333360963,
      "v": 79
    },
    {
      "midi": 42,
      "hit": false,
      "t": 186847.24700001485,
      "d": 5.296604166680481,
      "v": 92
    },
    {
      "midi": 61,
      "hit": false,
      "t": 186847.24700001485,
      "d": 5.296604166680481,
      "v": 62
    },
    {
      "midi": 77,
      "hit": false,
      "t": 186847.24700001485,
      "d": 5.296604166680481,
      "v": 15
    },
    {
      "midi": 62,
      "hit": false,
      "t": 186847.24700001485,
      "d": 31.77962500002468,
      "v": 114
    },
    {
      "midi": 62,
      "hit": false,
      "t": 186974.36550001486,
      "d": 31.779625000082888,
      "v": 79
    },
    {
      "midi": 42,
      "hit": false,
      "t": 186979.66210418154,
      "d": 5.296604166680481,
      "v": 38
    },
    {
      "midi": 61,
      "hit": false,
      "t": 186984.95870834822,
      "d": 5.296604166680481,
      "v": 75
    },
    {
      "midi": 77,
      "hit": false,
      "t": 186995.55191668158,
      "d": 5.296604166680481,
      "v": 60
    },
    {
      "midi": 42,
      "hit": false,
      "t": 187096.18739584828,
      "d": 5.296604166680481,
      "v": 58
    },
    {
      "midi": 98,
      "hit": false,
      "t": 187096.18739584828,
      "d": 10.593208333360963,
      "v": 94
    },
    {
      "midi": 100,
      "hit": false,
      "t": 187096.18739584828,
      "d": 10.593208333360963,
      "v": 78
    },
    {
      "midi": 105,
      "hit": false,
      "t": 187096.18739584828,
      "d": 10.593208333360963,
      "v": 88
    },
    {
      "midi": 61,
      "hit": false,
      "t": 187101.48400001496,
      "d": 5.296604166680481,
      "v": 67
    },
    {
      "midi": 77,
      "hit": false,
      "t": 187101.48400001496,
      "d": 5.296604166680481,
      "v": 65
    },
    {
      "midi": 62,
      "hit": false,
      "t": 187101.48400001496,
      "d": 31.77962500002468,
      "v": 108
    },
    {
      "midi": 35,
      "hit": false,
      "t": 187101.48400001496,
      "d": 74.15245833335212,
      "v": 120
    },
    {
      "midi": 81,
      "hit": false,
      "t": 187101.48400001496,
      "d": 503.1773958335689,
      "v": 111
    },
    {
      "midi": 76,
      "hit": false,
      "t": 187101.48400001496,
      "d": 630.2958958336385,
      "v": 91
    },
    {
      "midi": 93,
      "hit": false,
      "t": 187101.48400001496,
      "d": 715.0415625004098,
      "v": 102
    },
    {
      "midi": 98,
      "hit": false,
      "t": 187223.30589584832,
      "d": 10.593208333360963,
      "v": 70
    },
    {
      "midi": 100,
      "hit": false,
      "t": 187223.30589584832,
      "d": 10.593208333360963,
      "v": 54
    },
    {
      "midi": 105,
      "hit": false,
      "t": 187223.30589584832,
      "d": 10.593208333360963,
      "v": 64
    },
    {
      "midi": 62,
      "hit": false,
      "t": 187228.602500015,
      "d": 31.779625000082888,
      "v": 91
    },
    {
      "midi": 42,
      "hit": false,
      "t": 187233.89910418168,
      "d": 5.296604166680481,
      "v": 37
    },
    {
      "midi": 61,
      "hit": false,
      "t": 187239.19570834836,
      "d": 5.296604166680481,
      "v": 65
    },
    {
      "midi": 77,
      "hit": false,
      "t": 187249.78891668172,
      "d": 5.296604166680481,
      "v": 64
    },
    {
      "midi": 42,
      "hit": false,
      "t": 187355.72100001507,
      "d": 5.296604166680481,
      "v": 77
    },
    {
      "midi": 61,
      "hit": false,
      "t": 187355.72100001507,
      "d": 5.296604166680481,
      "v": 74
    },
    {
      "midi": 77,
      "hit": false,
      "t": 187355.72100001507,
      "d": 5.296604166680481,
      "v": 13
    },
    {
      "midi": 62,
      "hit": false,
      "t": 187355.72100001507,
      "d": 31.77962500002468,
      "v": 114
    },
    {
      "midi": 98,
      "hit": false,
      "t": 187477.54289584843,
      "d": 10.593208333360963,
      "v": 97
    },
    {
      "midi": 100,
      "hit": false,
      "t": 187477.54289584843,
      "d": 10.593208333360963,
      "v": 81
    },
    {
      "midi": 105,
      "hit": false,
      "t": 187477.54289584843,
      "d": 10.593208333360963,
      "v": 91
    },
    {
      "midi": 62,
      "hit": false,
      "t": 187482.8395000151,
      "d": 31.779625000082888,
      "v": 59
    },
    {
      "midi": 42,
      "hit": false,
      "t": 187488.1361041818,
      "d": 5.296604166680481,
      "v": 38
    },
    {
      "midi": 61,
      "hit": false,
      "t": 187493.43270834847,
      "d": 5.296604166680481,
      "v": 44
    },
    {
      "midi": 77,
      "hit": false,
      "t": 187504.02591668183,
      "d": 5.296604166680481,
      "v": 59
    },
    {
      "midi": 42,
      "hit": false,
      "t": 187604.66139584852,
      "d": 5.296604166680481,
      "v": 67
    },
    {
      "midi": 40,
      "hit": false,
      "t": 187609.9580000152,
      "d": 5.296604166680481,
      "v": 93
    },
    {
      "midi": 60,
      "hit": false,
      "t": 187609.9580000152,
      "d": 5.296604166680481,
      "v": 68
    },
    {
      "midi": 77,
      "hit": false,
      "t": 187609.9580000152,
      "d": 5.296604166680481,
      "v": 57
    },
    {
      "midi": 35,
      "hit": false,
      "t": 187609.9580000152,
      "d": 74.15245833338122,
      "v": 120
    },
    {
      "midi": 62,
      "hit": false,
      "t": 187631.1444166819,
      "d": 10.593208333331859,
      "v": 124
    },
    {
      "midi": 56,
      "hit": false,
      "t": 187631.1444166819,
      "d": 58.26264583336888,
      "v": 124
    },
    {
      "midi": 62,
      "hit": false,
      "t": 187737.07650001528,
      "d": 31.779625000082888,
      "v": 108
    },
    {
      "midi": 42,
      "hit": false,
      "t": 187742.37310418196,
      "d": 5.296604166680481,
      "v": 43
    },
    {
      "midi": 61,
      "hit": false,
      "t": 187747.66970834864,
      "d": 5.296604166680481,
      "v": 38
    },
    {
      "midi": 77,
      "hit": false,
      "t": 187758.262916682,
      "d": 5.296604166680481,
      "v": 60
    },
    {
      "midi": 56,
      "hit": false,
      "t": 187779.4493333487,
      "d": 84.74566666671308,
      "v": 82
    },
    {
      "midi": 62,
      "hit": false,
      "t": 187779.4493333487,
      "d": 84.74566666671308,
      "v": 82
    },
    {
      "midi": 98,
      "hit": false,
      "t": 187858.89839584872,
      "d": 10.593208333360963,
      "v": 105
    },
    {
      "midi": 102,
      "hit": false,
      "t": 187858.89839584872,
      "d": 10.593208333360963,
      "v": 70
    },
    {
      "midi": 105,
      "hit": false,
      "t": 187858.89839584872,
      "d": 10.593208333360963,
      "v": 80
    },
    {
      "midi": 42,
      "hit": false,
      "t": 187864.1950000154,
      "d": 5.296604166680481,
      "v": 69
    },
    {
      "midi": 61,
      "hit": false,
      "t": 187864.1950000154,
      "d": 5.296604166680481,
      "v": 71
    },
    {
      "midi": 77,
      "hit": false,
      "t": 187864.1950000154,
      "d": 5.296604166680481,
      "v": 13
    },
    {
      "midi": 62,
      "hit": false,
      "t": 187864.1950000154,
      "d": 31.77962500002468,
      "v": 114
    },
    {
      "midi": 42,
      "hit": false,
      "t": 187991.3135000154,
      "d": 5.296604166680481,
      "v": 69
    },
    {
      "midi": 62,
      "hit": false,
      "t": 187991.3135000154,
      "d": 31.779625000082888,
      "v": 94
    },
    {
      "midi": 61,
      "hit": false,
      "t": 188001.90670834878,
      "d": 5.296604166680481,
      "v": 69
    },
    {
      "midi": 77,
      "hit": false,
      "t": 188012.49991668214,
      "d": 5.296604166680481,
      "v": 50
    },
    {
      "midi": 42,
      "hit": false,
      "t": 188113.13539584883,
      "d": 5.296604166680481,
      "v": 43
    },
    {
      "midi": 61,
      "hit": false,
      "t": 188118.4320000155,
      "d": 5.296604166680481,
      "v": 67
    },
    {
      "midi": 77,
      "hit": false,
      "t": 188118.4320000155,
      "d": 5.296604166680481,
      "v": 58
    },
    {
      "midi": 62,
      "hit": false,
      "t": 188118.4320000155,
      "d": 31.77962500002468,
      "v": 120
    },
    {
      "midi": 35,
      "hit": false,
      "t": 188118.4320000155,
      "d": 74.15245833335212,
      "v": 120
    },
    {
      "midi": 62,
      "hit": false,
      "t": 188245.55050001552,
      "d": 31.779625000082888,
      "v": 103
    },
    {
      "midi": 42,
      "hit": false,
      "t": 188250.8471041822,
      "d": 5.296604166680481,
      "v": 35
    },
    {
      "midi": 61,
      "hit": false,
      "t": 188256.14370834889,
      "d": 5.296604166680481,
      "v": 65
    },
    {
      "midi": 77,
      "hit": false,
      "t": 188266.73691668225,
      "d": 5.296604166680481,
      "v": 52
    },
    {
      "midi": 98,
      "hit": false,
      "t": 188367.37239584894,
      "d": 10.593208333360963,
      "v": 117
    },
    {
      "midi": 102,
      "hit": false,
      "t": 188367.37239584894,
      "d": 10.593208333360963,
      "v": 82
    },
    {
      "midi": 105,
      "hit": false,
      "t": 188367.37239584894,
      "d": 10.593208333360963,
      "v": 92
    },
    {
      "midi": 42,
      "hit": false,
      "t": 188372.66900001562,
      "d": 5.296604166680481,
      "v": 92
    },
    {
      "midi": 61,
      "hit": false,
      "t": 188372.66900001562,
      "d": 5.296604166680481,
      "v": 74
    },
    {
      "midi": 77,
      "hit": false,
      "t": 188372.66900001562,
      "d": 5.296604166680481,
      "v": 14
    },
    {
      "midi": 62,
      "hit": false,
      "t": 188372.66900001562,
      "d": 31.77962500002468,
      "v": 109
    },
    {
      "midi": 62,
      "hit": false,
      "t": 188499.78750001563,
      "d": 31.779625000082888,
      "v": 58
    },
    {
      "midi": 42,
      "hit": false,
      "t": 188505.08410418232,
      "d": 5.296604166680481,
      "v": 38
    },
    {
      "midi": 61,
      "hit": false,
      "t": 188510.380708349,
      "d": 5.296604166680481,
      "v": 51
    },
    {
      "midi": 77,
      "hit": false,
      "t": 188520.97391668236,
      "d": 5.296604166680481,
      "v": 57
    },
    {
      "midi": 42,
      "hit": false,
      "t": 188621.60939584905,
      "d": 5.296604166680481,
      "v": 43
    },
    {
      "midi": 49,
      "hit": false,
      "t": 188626.90600001573,
      "d": 5.296604166680481,
      "v": 108
    },
    {
      "midi": 60,
      "hit": false,
      "t": 188626.90600001573,
      "d": 5.296604166680481,
      "v": 68
    },
    {
      "midi": 77,
      "hit": false,
      "t": 188626.90600001573,
      "d": 5.296604166680481,
      "v": 56
    },
    {
      "midi": 86,
      "hit": false,
      "t": 188626.90600001573,
      "d": 58.26264583336888,
      "v": 108
    },
    {
      "midi": 35,
      "hit": false,
      "t": 188626.90600001573,
      "d": 74.15245833338122,
      "v": 120
    },
    {
      "midi": 74,
      "hit": false,
      "t": 188626.90600001573,
      "d": 90.04227083339356,
      "v": 112
    },
    {
      "midi": 78,
      "hit": false,
      "t": 188626.90600001573,
      "d": 95.33887500007404,
      "v": 92
    },
    {
      "midi": 62,
      "hit": false,
      "t": 188632.2026041824,
      "d": 26.4830208333442,
      "v": 90
    },
    {
      "midi": 50,
      "hit": false,
      "t": 188632.2026041824,
      "d": 100.63547916672542,
      "v": 85
    },
    {
      "midi": 62,
      "hit": false,
      "t": 188754.0245000158,
      "d": 31.779625000082888,
      "v": 127
    },
    {
      "midi": 42,
      "hit": false,
      "t": 188759.32110418248,
      "d": 5.296604166680481,
      "v": 35
    },
    {
      "midi": 61,
      "hit": false,
      "t": 188764.61770834916,
      "d": 5.296604166680481,
      "v": 38
    },
    {
      "midi": 77,
      "hit": false,
      "t": 188775.21091668252,
      "d": 5.296604166680481,
      "v": 63
    },
    {
      "midi": 98,
      "hit": false,
      "t": 188875.84639584922,
      "d": 10.593208333360963,
      "v": 104
    },
    {
      "midi": 102,
      "hit": false,
      "t": 188875.84639584922,
      "d": 10.593208333360963,
      "v": 69
    },
    {
      "midi": 105,
      "hit": false,
      "t": 188875.84639584922,
      "d": 10.593208333360963,
      "v": 79
    },
    {
      "midi": 42,
      "hit": false,
      "t": 188881.1430000159,
      "d": 5.296604166680481,
      "v": 92
    },
    {
      "midi": 61,
      "hit": false,
      "t": 188881.1430000159,
      "d": 5.296604166680481,
      "v": 62
    },
    {
      "midi": 77,
      "hit": false,
      "t": 188881.1430000159,
      "d": 5.296604166680481,
      "v": 15
    },
    {
      "midi": 62,
      "hit": false,
      "t": 188881.1430000159,
      "d": 31.77962500002468,
      "v": 114
    },
    {
      "midi": 95,
      "hit": false,
      "t": 188881.1430000159,
      "d": 68.85585416670074,
      "v": 100
    },
    {
      "midi": 79,
      "hit": false,
      "t": 188881.1430000159,
      "d": 248.94039583348786,
      "v": 92
    },
    {
      "midi": 83,
      "hit": false,
      "t": 188881.1430000159,
      "d": 248.94039583348786,
      "v": 112
    },
    {
      "midi": 38,
      "hit": false,
      "t": 189008.26150001594,
      "d": 5.296604166680481,
      "v": 40
    },
    {
      "midi": 62,
      "hit": false,
      "t": 189008.26150001594,
      "d": 31.779625000082888,
      "v": 79
    },
    {
      "midi": 42,
      "hit": false,
      "t": 189013.55810418262,
      "d": 5.296604166680481,
      "v": 38
    },
    {
      "midi": 61,
      "hit": false,
      "t": 189018.8547083493,
      "d": 5.296604166680481,
      "v": 75
    },
    {
      "midi": 77,
      "hit": false,
      "t": 189029.44791668266,
      "d": 5.296604166680481,
      "v": 60
    },
    {
      "midi": 38,
      "hit": false,
      "t": 189050.63433334936,
      "d": 5.296604166680481,
      "v": 40
    },
    {
      "midi": 38,
      "hit": false,
      "t": 189093.0071666827,
      "d": 5.296604166680481,
      "v": 40
    },
    {
      "midi": 42,
      "hit": false,
      "t": 189130.0833958494,
      "d": 5.296604166680481,
      "v": 58
    },
    {
      "midi": 98,
      "hit": false,
      "t": 189130.0833958494,
      "d": 10.593208333360963,
      "v": 94
    },
    {
      "midi": 100,
      "hit": false,
      "t": 189130.0833958494,
      "d": 10.593208333360963,
      "v": 78
    },
    {
      "midi": 105,
      "hit": false,
      "t": 189130.0833958494,
      "d": 10.593208333360963,
      "v": 88
    },
    {
      "midi": 38,
      "hit": false,
      "t": 189135.38000001607,
      "d": 5.296604166680481,
      "v": 40
    },
    {
      "midi": 61,
      "hit": false,
      "t": 189135.38000001607,
      "d": 5.296604166680481,
      "v": 67
    },
    {
      "midi": 77,
      "hit": false,
      "t": 189135.38000001607,
      "d": 5.296604166680481,
      "v": 65
    },
    {
      "midi": 62,
      "hit": false,
      "t": 189135.38000001607,
      "d": 31.77962500002468,
      "v": 108
    },
    {
      "midi": 35,
      "hit": false,
      "t": 189135.38000001607,
      "d": 74.15245833335212,
      "v": 120
    },
    {
      "midi": 81,
      "hit": false,
      "t": 189135.38000001607,
      "d": 381.35550000015064,
      "v": 113
    },
    {
      "midi": 78,
      "hit": false,
      "t": 189135.38000001607,
      "d": 503.1773958335689,
      "v": 93
    },
    {
      "midi": 93,
      "hit": false,
      "t": 189135.38000001607,
      "d": 503.1773958335689,
      "v": 99
    },
    {
      "midi": 98,
      "hit": false,
      "t": 189257.20189584943,
      "d": 10.593208333360963,
      "v": 70
    },
    {
      "midi": 100,
      "hit": false,
      "t": 189257.20189584943,
      "d": 10.593208333360963,
      "v": 54
    },
    {
      "midi": 105,
      "hit": false,
      "t": 189257.20189584943,
      "d": 10.593208333360963,
      "v": 64
    },
    {
      "midi": 62,
      "hit": false,
      "t": 189262.4985000161,
      "d": 31.779625000082888,
      "v": 91
    },
    {
      "midi": 42,
      "hit": false,
      "t": 189267.7951041828,
      "d": 5.296604166680481,
      "v": 37
    },
    {
      "midi": 61,
      "hit": false,
      "t": 189273.09170834947,
      "d": 5.296604166680481,
      "v": 65
    },
    {
      "midi": 77,
      "hit": false,
      "t": 189283.68491668283,
      "d": 5.296604166680481,
      "v": 64
    },
    {
      "midi": 42,
      "hit": false,
      "t": 189389.61700001618,
      "d": 5.296604166680481,
      "v": 77
    },
    {
      "midi": 61,
      "hit": false,
      "t": 189389.61700001618,
      "d": 5.296604166680481,
      "v": 74
    },
    {
      "midi": 77,
      "hit": false,
      "t": 189389.61700001618,
      "d": 5.296604166680481,
      "v": 13
    },
    {
      "midi": 62,
      "hit": false,
      "t": 189389.61700001618,
      "d": 31.77962500002468,
      "v": 114
    },
    {
      "midi": 98,
      "hit": false,
      "t": 189511.43889584954,
      "d": 10.593208333360963,
      "v": 97
    },
    {
      "midi": 100,
      "hit": false,
      "t": 189511.43889584954,
      "d": 10.593208333360963,
      "v": 81
    },
    {
      "midi": 105,
      "hit": false,
      "t": 189511.43889584954,
      "d": 10.593208333360963,
      "v": 91
    },
    {
      "midi": 62,
      "hit": false,
      "t": 189516.73550001622,
      "d": 31.779625000082888,
      "v": 59
    },
    {
      "midi": 42,
      "hit": false,
      "t": 189522.0321041829,
      "d": 5.296604166680481,
      "v": 38
    },
    {
      "midi": 61,
      "hit": false,
      "t": 189527.32870834958,
      "d": 5.296604166680481,
      "v": 44
    },
    {
      "midi": 77,
      "hit": false,
      "t": 189537.92191668294,
      "d": 5.296604166680481,
      "v": 59
    },
    {
      "midi": 42,
      "hit": false,
      "t": 189638.55739584964,
      "d": 5.296604166680481,
      "v": 67
    },
    {
      "midi": 40,
      "hit": false,
      "t": 189643.85400001632,
      "d": 5.296604166680481,
      "v": 93
    },
    {
      "midi": 60,
      "hit": false,
      "t": 189643.85400001632,
      "d": 5.296604166680481,
      "v": 68
    },
    {
      "midi": 77,
      "hit": false,
      "t": 189643.85400001632,
      "d": 5.296604166680481,
      "v": 57
    },
    {
      "midi": 62,
      "hit": false,
      "t": 189643.85400001632,
      "d": 31.77962500002468,
      "v": 118
    },
    {
      "midi": 35,
      "hit": false,
      "t": 189643.85400001632,
      "d": 74.15245833335212,
      "v": 120
    },
    {
      "midi": 95,
      "hit": false,
      "t": 189643.85400001632,
      "d": 418.4317291668849,
      "v": 96
    },
    {
      "midi": 79,
      "hit": false,
      "t": 189643.85400001632,
      "d": 503.1773958335398,
      "v": 101
    },
    {
      "midi": 83,
      "hit": false,
      "t": 189643.85400001632,
      "d": 503.1773958335398,
      "v": 121
    },
    {
      "midi": 62,
      "hit": false,
      "t": 189770.97250001633,
      "d": 31.779625000082888,
      "v": 108
    },
    {
      "midi": 42,
      "hit": false,
      "t": 189776.269104183,
      "d": 5.296604166680481,
      "v": 43
    },
    {
      "midi": 61,
      "hit": false,
      "t": 189781.5657083497,
      "d": 5.296604166680481,
      "v": 38
    },
    {
      "midi": 77,
      "hit": false,
      "t": 189792.15891668305,
      "d": 5.296604166680481,
      "v": 60
    },
    {
      "midi": 98,
      "hit": false,
      "t": 189892.79439584975,
      "d": 10.593208333360963,
      "v": 105
    },
    {
      "midi": 102,
      "hit": false,
      "t": 189892.79439584975,
      "d": 10.593208333360963,
      "v": 70
    },
    {
      "midi": 105,
      "hit": false,
      "t": 189892.79439584975,
      "d": 10.593208333360963,
      "v": 80
    },
    {
      "midi": 42,
      "hit": false,
      "t": 189898.09100001643,
      "d": 5.296604166680481,
      "v": 69
    },
    {
      "midi": 61,
      "hit": false,
      "t": 189898.09100001643,
      "d": 5.296604166680481,
      "v": 71
    },
    {
      "midi": 77,
      "hit": false,
      "t": 189898.09100001643,
      "d": 5.296604166680481,
      "v": 13
    },
    {
      "midi": 62,
      "hit": false,
      "t": 189898.09100001643,
      "d": 31.77962500002468,
      "v": 114
    },
    {
      "midi": 42,
      "hit": false,
      "t": 190025.20950001644,
      "d": 5.296604166680481,
      "v": 69
    },
    {
      "midi": 62,
      "hit": false,
      "t": 190025.20950001644,
      "d": 31.779625000082888,
      "v": 94
    },
    {
      "midi": 61,
      "hit": false,
      "t": 190035.8027083498,
      "d": 5.296604166680481,
      "v": 69
    },
    {
      "midi": 77,
      "hit": false,
      "t": 190046.39591668316,
      "d": 5.296604166680481,
      "v": 50
    },
    {
      "midi": 42,
      "hit": false,
      "t": 190147.03139584986,
      "d": 5.296604166680481,
      "v": 43
    },
    {
      "midi": 61,
      "hit": false,
      "t": 190152.32800001654,
      "d": 5.296604166680481,
      "v": 67
    },
    {
      "midi": 77,
      "hit": false,
      "t": 190152.32800001654,
      "d": 5.296604166680481,
      "v": 58
    },
    {
      "midi": 62,
      "hit": false,
      "t": 190152.32800001654,
      "d": 31.77962500002468,
      "v": 120
    },
    {
      "midi": 35,
      "hit": false,
      "t": 190152.32800001654,
      "d": 74.15245833335212,
      "v": 120
    },
    {
      "midi": 62,
      "hit": false,
      "t": 190279.44650001655,
      "d": 31.779625000082888,
      "v": 103
    },
    {
      "midi": 42,
      "hit": false,
      "t": 190284.74310418323,
      "d": 5.296604166680481,
      "v": 35
    },
    {
      "midi": 61,
      "hit": false,
      "t": 190290.0397083499,
      "d": 5.296604166680481,
      "v": 65
    },
    {
      "midi": 77,
      "hit": false,
      "t": 190300.63291668327,
      "d": 5.296604166680481,
      "v": 52
    },
    {
      "midi": 98,
      "hit": false,
      "t": 190401.26839584997,
      "d": 10.593208333360963,
      "v": 117
    },
    {
      "midi": 102,
      "hit": false,
      "t": 190401.26839584997,
      "d": 10.593208333360963,
      "v": 82
    },
    {
      "midi": 105,
      "hit": false,
      "t": 190401.26839584997,
      "d": 10.593208333360963,
      "v": 92
    },
    {
      "midi": 42,
      "hit": false,
      "t": 190406.56500001665,
      "d": 5.296604166680481,
      "v": 92
    },
    {
      "midi": 61,
      "hit": false,
      "t": 190406.56500001665,
      "d": 5.296604166680481,
      "v": 74
    },
    {
      "midi": 77,
      "hit": false,
      "t": 190406.56500001665,
      "d": 5.296604166680481,
      "v": 14
    },
    {
      "midi": 62,
      "hit": false,
      "t": 190406.56500001665,
      "d": 31.77962500002468,
      "v": 109
    },
    {
      "midi": 81,
      "hit": false,
      "t": 190406.56500001665,
      "d": 68.85585416670074,
      "v": 121
    },
    {
      "midi": 93,
      "hit": false,
      "t": 190406.56500001665,
      "d": 243.64379166677827,
      "v": 106
    },
    {
      "midi": 62,
      "hit": false,
      "t": 190533.6835000167,
      "d": 31.779625000082888,
      "v": 58
    },
    {
      "midi": 81,
      "hit": false,
      "t": 190533.6835000167,
      "d": 121.82189583341824,
      "v": 101
    },
    {
      "midi": 42,
      "hit": false,
      "t": 190538.98010418337,
      "d": 5.296604166680481,
      "v": 38
    },
    {
      "midi": 61,
      "hit": false,
      "t": 190544.27670835005,
      "d": 5.296604166680481,
      "v": 51
    },
    {
      "midi": 77,
      "hit": false,
      "t": 190554.8699166834,
      "d": 5.296604166680481,
      "v": 57
    },
    {
      "midi": 42,
      "hit": false,
      "t": 190655.5053958501,
      "d": 5.296604166680481,
      "v": 43
    },
    {
      "midi": 60,
      "hit": false,
      "t": 190660.8020000168,
      "d": 5.296604166680481,
      "v": 68
    },
    {
      "midi": 77,
      "hit": false,
      "t": 190660.8020000168,
      "d": 5.296604166680481,
      "v": 56
    },
    {
      "midi": 62,
      "hit": false,
      "t": 190660.8020000168,
      "d": 31.77962500002468,
      "v": 127
    },
    {
      "midi": 35,
      "hit": false,
      "t": 190660.8020000168,
      "d": 74.15245833335212,
      "v": 120
    },
    {
      "midi": 95,
      "hit": false,
      "t": 190660.8020000168,
      "d": 105.9320833333768,
      "v": 108
    },
    {
      "midi": 81,
      "hit": false,
      "t": 190660.8020000168,
      "d": 254.23700000013923,
      "v": 119
    },
    {
      "midi": 62,
      "hit": false,
      "t": 190787.92050001683,
      "d": 31.779625000082888,
      "v": 127
    },
    {
      "midi": 42,
      "hit": false,
      "t": 190793.2171041835,
      "d": 5.296604166680481,
      "v": 35
    },
    {
      "midi": 61,
      "hit": false,
      "t": 190798.5137083502,
      "d": 5.296604166680481,
      "v": 38
    },
    {
      "midi": 77,
      "hit": false,
      "t": 190809.10691668355,
      "d": 5.296604166680481,
      "v": 63
    },
    {
      "midi": 98,
      "hit": false,
      "t": 190909.74239585025,
      "d": 10.593208333360963,
      "v": 104
    },
    {
      "midi": 102,
      "hit": false,
      "t": 190909.74239585025,
      "d": 10.593208333360963,
      "v": 69
    },
    {
      "midi": 105,
      "hit": false,
      "t": 190909.74239585025,
      "d": 10.593208333360963,
      "v": 79
    },
    {
      "midi": 42,
      "hit": false,
      "t": 190915.03900001693,
      "d": 5.296604166680481,
      "v": 92
    },
    {
      "midi": 61,
      "hit": false,
      "t": 190915.03900001693,
      "d": 5.296604166680481,
      "v": 62
    },
    {
      "midi": 77,
      "hit": false,
      "t": 190915.03900001693,
      "d": 5.296604166680481,
      "v": 15
    },
    {
      "midi": 62,
      "hit": false,
      "t": 190915.03900001693,
      "d": 31.77962500002468,
      "v": 114
    },
    {
      "midi": 78,
      "hit": false,
      "t": 190915.03900001693,
      "d": 121.82189583336003,
      "v": 102
    },
    {
      "midi": 90,
      "hit": false,
      "t": 190915.03900001693,
      "d": 259.5336041668197,
      "v": 100
    },
    {
      "midi": 62,
      "hit": false,
      "t": 191042.15750001697,
      "d": 31.779625000082888,
      "v": 79
    },
    {
      "midi": 42,
      "hit": false,
      "t": 191047.45410418365,
      "d": 5.296604166680481,
      "v": 38
    },
    {
      "midi": 61,
      "hit": false,
      "t": 191052.75070835033,
      "d": 5.296604166680481,
      "v": 75
    },
    {
      "midi": 77,
      "hit": false,
      "t": 191063.3439166837,
      "d": 5.296604166680481,
      "v": 60
    },
    {
      "midi": 42,
      "hit": false,
      "t": 191163.9793958504,
      "d": 5.296604166680481,
      "v": 58
    },
    {
      "midi": 98,
      "hit": false,
      "t": 191163.9793958504,
      "d": 10.593208333360963,
      "v": 94
    },
    {
      "midi": 100,
      "hit": false,
      "t": 191163.9793958504,
      "d": 10.593208333360963,
      "v": 78
    },
    {
      "midi": 105,
      "hit": false,
      "t": 191163.9793958504,
      "d": 10.593208333360963,
      "v": 88
    },
    {
      "midi": 61,
      "hit": false,
      "t": 191169.27600001707,
      "d": 5.296604166680481,
      "v": 67
    },
    {
      "midi": 77,
      "hit": false,
      "t": 191169.27600001707,
      "d": 5.296604166680481,
      "v": 65
    },
    {
      "midi": 62,
      "hit": false,
      "t": 191169.27600001707,
      "d": 31.77962500002468,
      "v": 108
    },
    {
      "midi": 35,
      "hit": false,
      "t": 191169.27600001707,
      "d": 74.15245833335212,
      "v": 120
    },
    {
      "midi": 76,
      "hit": false,
      "t": 191169.27600001707,
      "d": 503.177395833598,
      "v": 110
    },
    {
      "midi": 88,
      "hit": false,
      "t": 191169.27600001707,
      "d": 503.177395833598,
      "v": 93
    },
    {
      "midi": 98,
      "hit": false,
      "t": 191291.09789585043,
      "d": 10.593208333360963,
      "v": 70
    },
    {
      "midi": 100,
      "hit": false,
      "t": 191291.09789585043,
      "d": 10.593208333360963,
      "v": 54
    },
    {
      "midi": 105,
      "hit": false,
      "t": 191291.09789585043,
      "d": 10.593208333360963,
      "v": 64
    },
    {
      "midi": 40,
      "hit": false,
      "t": 191296.3945000171,
      "d": 5.296604166680481,
      "v": 93
    },
    {
      "midi": 62,
      "hit": false,
      "t": 191296.3945000171,
      "d": 31.779625000082888,
      "v": 91
    },
    {
      "midi": 42,
      "hit": false,
      "t": 191301.6911041838,
      "d": 5.296604166680481,
      "v": 37
    },
    {
      "midi": 61,
      "hit": false,
      "t": 191306.98770835047,
      "d": 5.296604166680481,
      "v": 65
    },
    {
      "midi": 77,
      "hit": false,
      "t": 191317.58091668383,
      "d": 5.296604166680481,
      "v": 64
    },
    {
      "midi": 42,
      "hit": false,
      "t": 191423.5130000172,
      "d": 5.296604166680481,
      "v": 77
    },
    {
      "midi": 61,
      "hit": false,
      "t": 191423.5130000172,
      "d": 5.296604166680481,
      "v": 74
    },
    {
      "midi": 77,
      "hit": false,
      "t": 191423.5130000172,
      "d": 5.296604166680481,
      "v": 13
    },
    {
      "midi": 62,
      "hit": false,
      "t": 191423.5130000172,
      "d": 31.77962500002468,
      "v": 114
    },
    {
      "midi": 98,
      "hit": false,
      "t": 191545.33489585057,
      "d": 10.593208333360963,
      "v": 97
    },
    {
      "midi": 100,
      "hit": false,
      "t": 191545.33489585057,
      "d": 10.593208333360963,
      "v": 81
    },
    {
      "midi": 105,
      "hit": false,
      "t": 191545.33489585057,
      "d": 10.593208333360963,
      "v": 91
    },
    {
      "midi": 62,
      "hit": false,
      "t": 191550.63150001725,
      "d": 31.779625000082888,
      "v": 59
    },
    {
      "midi": 42,
      "hit": false,
      "t": 191555.92810418393,
      "d": 5.296604166680481,
      "v": 38
    },
    {
      "midi": 61,
      "hit": false,
      "t": 191561.2247083506,
      "d": 5.296604166680481,
      "v": 44
    },
    {
      "midi": 77,
      "hit": false,
      "t": 191571.81791668397,
      "d": 5.296604166680481,
      "v": 59
    },
    {
      "midi": 42,
      "hit": false,
      "t": 191672.45339585067,
      "d": 5.296604166680481,
      "v": 67
    },
    {
      "midi": 40,
      "hit": false,
      "t": 191677.75000001735,
      "d": 5.296604166680481,
      "v": 93
    },
    {
      "midi": 60,
      "hit": false,
      "t": 191677.75000001735,
      "d": 5.296604166680481,
      "v": 68
    },
    {
      "midi": 77,
      "hit": false,
      "t": 191677.75000001735,
      "d": 5.296604166680481,
      "v": 57
    },
    {
      "midi": 62,
      "hit": false,
      "t": 191677.75000001735,
      "d": 31.77962500002468,
      "v": 118
    },
    {
      "midi": 35,
      "hit": false,
      "t": 191677.75000001735,
      "d": 74.15245833335212,
      "v": 120
    },
    {
      "midi": 71,
      "hit": false,
      "t": 191677.75000001735,
      "d": 248.94039583342965,
      "v": 70
    },
    {
      "midi": 83,
      "hit": false,
      "t": 191677.75000001735,
      "d": 460.80456250024145,
      "v": 84
    },
    {
      "midi": 62,
      "hit": false,
      "t": 191804.86850001736,
      "d": 31.779625000082888,
      "v": 108
    },
    {
      "midi": 74,
      "hit": false,
      "t": 191804.86850001736,
      "d": 47.66943750009523,
      "v": 119
    },
    {
      "midi": 78,
      "hit": false,
      "t": 191804.86850001736,
      "d": 58.26264583342709,
      "v": 127
    },
    {
      "midi": 90,
      "hit": false,
      "t": 191804.86850001736,
      "d": 58.26264583342709,
      "v": 90
    },
    {
      "midi": 42,
      "hit": false,
      "t": 191810.16510418404,
      "d": 5.296604166680481,
      "v": 43
    },
    {
      "midi": 61,
      "hit": false,
      "t": 191815.46170835072,
      "d": 5.296604166680481,
      "v": 38
    },
    {
      "midi": 77,
      "hit": false,
      "t": 191826.05491668408,
      "d": 5.296604166680481,
      "v": 60
    },
    {
      "midi": 98,
      "hit": false,
      "t": 191926.69039585078,
      "d": 10.593208333360963,
      "v": 105
    },
    {
      "midi": 102,
      "hit": false,
      "t": 191926.69039585078,
      "d": 10.593208333360963,
      "v": 70
    },
    {
      "midi": 105,
      "hit": false,
      "t": 191926.69039585078,
      "d": 10.593208333360963,
      "v": 80
    },
    {
      "midi": 42,
      "hit": false,
      "t": 191931.98700001746,
      "d": 5.296604166680481,
      "v": 69
    },
    {
      "midi": 61,
      "hit": false,
      "t": 191931.98700001746,
      "d": 5.296604166680481,
      "v": 71
    },
    {
      "midi": 77,
      "hit": false,
      "t": 191931.98700001746,
      "d": 5.296604166680481,
      "v": 13
    },
    {
      "midi": 62,
      "hit": false,
      "t": 191931.98700001746,
      "d": 31.77962500002468,
      "v": 114
    },
    {
      "midi": 78,
      "hit": false,
      "t": 191931.98700001746,
      "d": 58.26264583336888,
      "v": 127
    },
    {
      "midi": 90,
      "hit": false,
      "t": 191931.98700001746,
      "d": 58.26264583336888,
      "v": 90
    },
    {
      "midi": 74,
      "hit": false,
      "t": 191931.98700001746,
      "d": 68.85585416670074,
      "v": 98
    },
    {
      "midi": 69,
      "hit": false,
      "t": 191931.98700001746,
      "d": 222.45737500014366,
      "v": 94
    },
    {
      "midi": 42,
      "hit": false,
      "t": 192059.1055000175,
      "d": 5.296604166680481,
      "v": 69
    },
    {
      "midi": 62,
      "hit": false,
      "t": 192059.1055000175,
      "d": 31.779625000082888,
      "v": 94
    },
    {
      "midi": 74,
      "hit": false,
      "t": 192059.1055000175,
      "d": 79.4490625000908,
      "v": 98
    },
    {
      "midi": 78,
      "hit": false,
      "t": 192059.1055000175,
      "d": 95.33887500010314,
      "v": 122
    },
    {
      "midi": 90,
      "hit": false,
      "t": 192059.1055000175,
      "d": 95.33887500010314,
      "v": 85
    },
    {
      "midi": 61,
      "hit": false,
      "t": 192069.69870835086,
      "d": 5.296604166680481,
      "v": 69
    },
    {
      "midi": 77,
      "hit": false,
      "t": 192080.29191668422,
      "d": 5.296604166680481,
      "v": 50
    },
    {
      "midi": 40,
      "hit": false,
      "t": 192122.66475001757,
      "d": 5.296604166680481,
      "v": 93
    },
    {
      "midi": 50,
      "hit": false,
      "t": 192138.5545625176,
      "d": 58.26264583339798,
      "v": 73
    },
    {
      "midi": 42,
      "hit": false,
      "t": 192180.92739585094,
      "d": 5.296604166680481,
      "v": 43
    },
    {
      "midi": 49,
      "hit": false,
      "t": 192186.22400001762,
      "d": 5.296604166680481,
      "v": 108
    },
    {
      "midi": 57,
      "hit": false,
      "t": 192186.22400001762,
      "d": 5.296604166680481,
      "v": 108
    },
    {
      "midi": 61,
      "hit": false,
      "t": 192186.22400001762,
      "d": 5.296604166680481,
      "v": 67
    },
    {
      "midi": 77,
      "hit": false,
      "t": 192186.22400001762,
      "d": 5.296604166680481,
      "v": 58
    },
    {
      "midi": 62,
      "hit": false,
      "t": 192186.22400001762,
      "d": 10.593208333360963,
      "v": 120
    },
    {
      "midi": 33,
      "hit": false,
      "t": 192196.81720835099,
      "d": 58.262645833339775,
      "v": 105
    },
    {
      "midi": 45,
      "hit": false,
      "t": 192196.81720835099,
      "d": 58.262645833339775,
      "v": 105
    },
    {
      "midi": 35,
      "hit": false,
      "t": 192249.78325001764,
      "d": 10.593208333360963,
      "v": 105
    },
    {
      "midi": 47,
      "hit": false,
      "t": 192249.78325001764,
      "d": 21.18641666669282,
      "v": 105
    },
    {
      "midi": 36,
      "hit": false,
      "t": 192281.56287501767,
      "d": 21.186416666663717,
      "v": 105
    },
    {
      "midi": 48,
      "hit": false,
      "t": 192281.56287501767,
      "d": 21.186416666663717,
      "v": 105
    },
    {
      "midi": 38,
      "hit": false,
      "t": 192302.74929168433,
      "d": 26.483020833373303,
      "v": 105
    },
    {
      "midi": 50,
      "hit": false,
      "t": 192302.74929168433,
      "d": 26.483020833373303,
      "v": 105
    },
    {
      "midi": 62,
      "hit": false,
      "t": 192313.34250001766,
      "d": 31.779625000082888,
      "v": 103
    },
    {
      "midi": 76,
      "hit": false,
      "t": 192313.34250001766,
      "d": 90.04227083342266,
      "v": 117
    },
    {
      "midi": 42,
      "hit": false,
      "t": 192318.63910418435,
      "d": 5.296604166680481,
      "v": 35
    },
    {
      "midi": 61,
      "hit": false,
      "t": 192323.93570835103,
      "d": 5.296604166680481,
      "v": 65
    },
    {
      "midi": 40,
      "hit": false,
      "t": 192323.93570835103,
      "d": 15.889812500041444,
      "v": 105
    },
    {
      "midi": 52,
      "hit": false,
      "t": 192323.93570835103,
      "d": 15.889812500041444,
      "v": 105
    },
    {
      "midi": 77,
      "hit": false,
      "t": 192334.5289166844,
      "d": 5.296604166680481,
      "v": 52
    },
    {
      "midi": 41,
      "hit": false,
      "t": 192334.5289166844,
      "d": 21.18641666669282,
      "v": 105
    },
    {
      "midi": 53,
      "hit": false,
      "t": 192334.5289166844,
      "d": 21.18641666669282,
      "v": 105
    },
    {
      "midi": 43,
      "hit": false,
      "t": 192355.71533335108,
      "d": 21.186416666663717,
      "v": 105
    },
    {
      "midi": 55,
      "hit": false,
      "t": 192355.71533335108,
      "d": 21.186416666663717,
      "v": 105
    },
    {
      "midi": 45,
      "hit": false,
      "t": 192376.90175001774,
      "d": 31.77962500002468,
      "v": 105
    },
    {
      "midi": 57,
      "hit": false,
      "t": 192376.90175001774,
      "d": 31.77962500002468,
      "v": 105
    },
    {
      "midi": 47,
      "hit": false,
      "t": 192398.0881666844,
      "d": 116.52529166673776,
      "v": 105
    },
    {
      "midi": 59,
      "hit": false,
      "t": 192398.0881666844,
      "d": 116.52529166673776,
      "v": 105
    },
    {
      "midi": 98,
      "hit": false,
      "t": 192435.1643958511,
      "d": 10.593208333360963,
      "v": 117
    },
    {
      "midi": 102,
      "hit": false,
      "t": 192435.1643958511,
      "d": 10.593208333360963,
      "v": 82
    },
    {
      "midi": 105,
      "hit": false,
      "t": 192435.1643958511,
      "d": 10.593208333360963,
      "v": 92
    },
    {
      "midi": 42,
      "hit": false,
      "t": 192440.4610000178,
      "d": 5.296604166680481,
      "v": 92
    },
    {
      "midi": 61,
      "hit": false,
      "t": 192440.4610000178,
      "d": 5.296604166680481,
      "v": 74
    },
    {
      "midi": 77,
      "hit": false,
      "t": 192440.4610000178,
      "d": 5.296604166680481,
      "v": 14
    },
    {
      "midi": 62,
      "hit": false,
      "t": 192440.4610000178,
      "d": 31.77962500002468,
      "v": 109
    },
    {
      "midi": 75,
      "hit": false,
      "t": 192440.4610000178,
      "d": 74.15245833335212,
      "v": 117
    },
    {
      "midi": 45,
      "hit": false,
      "t": 192504.0202500178,
      "d": 37.07622916667606,
      "v": 105
    },
    {
      "midi": 57,
      "hit": false,
      "t": 192504.0202500178,
      "d": 37.07622916667606,
      "v": 105
    },
    {
      "midi": 43,
      "hit": false,
      "t": 192525.20666668448,
      "d": 47.669437500066124,
      "v": 105
    },
    {
      "midi": 55,
      "hit": false,
      "t": 192525.20666668448,
      "d": 47.669437500066124,
      "v": 105
    },
    {
      "midi": 41,
      "hit": false,
      "t": 192546.39308335117,
      "d": 42.37283333341475,
      "v": 105
    },
    {
      "midi": 53,
      "hit": false,
      "t": 192546.39308335117,
      "d": 42.37283333341475,
      "v": 105
    },
    {
      "midi": 62,
      "hit": false,
      "t": 192567.57950001786,
      "d": 31.779625000082888,
      "v": 58
    },
    {
      "midi": 74,
      "hit": false,
      "t": 192567.57950001786,
      "d": 84.74566666677129,
      "v": 114
    },
    {
      "midi": 42,
      "hit": false,
      "t": 192572.87610418454,
      "d": 5.296604166680481,
      "v": 38
    },
    {
      "midi": 61,
      "hit": false,
      "t": 192578.17270835122,
      "d": 5.296604166680481,
      "v": 51
    },
    {
      "midi": 40,
      "hit": false,
      "t": 192578.17270835122,
      "d": 31.779625000053784,
      "v": 105
    },
    {
      "midi": 52,
      "hit": false,
      "t": 192578.17270835122,
      "d": 31.779625000053784,
      "v": 105
    },
    {
      "midi": 77,
      "hit": false,
      "t": 192588.76591668458,
      "d": 5.296604166680481,
      "v": 57
    },
    {
      "midi": 38,
      "hit": false,
      "t": 192588.76591668458,
      "d": 21.18641666669282,
      "v": 105
    },
    {
      "midi": 50,
      "hit": false,
      "t": 192588.76591668458,
      "d": 21.18641666669282,
      "v": 105
    },
    {
      "midi": 35,
      "hit": false,
      "t": 192599.35912501795,
      "d": 37.07622916667606,
      "v": 105
    },
    {
      "midi": 47,
      "hit": false,
      "t": 192599.35912501795,
      "d": 37.07622916667606,
      "v": 105
    },
    {
      "midi": 36,
      "hit": false,
      "t": 192609.95233335128,
      "d": 21.186416666663717,
      "v": 105
    },
    {
      "midi": 48,
      "hit": false,
      "t": 192609.95233335128,
      "d": 21.186416666663717,
      "v": 105
    },
    {
      "midi": 33,
      "hit": false,
      "t": 192631.13875001794,
      "d": 31.779625000053784,
      "v": 105
    },
    {
      "midi": 45,
      "hit": false,
      "t": 192631.13875001794,
      "d": 31.779625000053784,
      "v": 105
    },
    {
      "midi": 31,
      "hit": false,
      "t": 192652.32516668463,
      "d": 26.483020833373303,
      "v": 105
    },
    {
      "midi": 43,
      "hit": false,
      "t": 192652.32516668463,
      "d": 26.483020833373303,
      "v": 105
    },
    {
      "midi": 52,
      "hit": false,
      "t": 192662.918375018,
      "d": 105.9320833334059,
      "v": 69
    },
    {
      "midi": 64,
      "hit": false,
      "t": 192662.918375018,
      "d": 105.9320833334059,
      "v": 69
    },
    {
      "midi": 29,
      "hit": false,
      "t": 192673.51158335133,
      "d": 26.483020833373303,
      "v": 105
    },
    {
      "midi": 41,
      "hit": false,
      "t": 192673.51158335133,
      "d": 26.483020833373303,
      "v": 105
    },
    {
      "midi": 42,
      "hit": false,
      "t": 192689.40139585134,
      "d": 5.296604166680481,
      "v": 43
    },
    {
      "midi": 60,
      "hit": false,
      "t": 192694.69800001802,
      "d": 5.296604166680481,
      "v": 68
    },
    {
      "midi": 77,
      "hit": false,
      "t": 192694.69800001802,
      "d": 5.296604166680481,
      "v": 56
    },
    {
      "midi": 28,
      "hit": false,
      "t": 192694.69800001802,
      "d": 21.18641666669282,
      "v": 105
    },
    {
      "midi": 40,
      "hit": false,
      "t": 192694.69800001802,
      "d": 21.18641666669282,
      "v": 105
    },
    {
      "midi": 62,
      "hit": false,
      "t": 192694.69800001802,
      "d": 31.77962500002468,
      "v": 127
    },
    {
      "midi": 74,
      "hit": false,
      "t": 192694.69800001802,
      "d": 68.85585416670074,
      "v": 124
    },
    {
      "midi": 86,
      "hit": false,
      "t": 192694.69800001802,
      "d": 68.85585416670074,
      "v": 109
    },
    {
      "midi": 78,
      "hit": false,
      "t": 192694.69800001802,
      "d": 95.33887500004494,
      "v": 103
    },
    {
      "midi": 26,
      "hit": false,
      "t": 192705.29120835138,
      "d": 31.779624999995576,
      "v": 105
    },
    {
      "midi": 38,
      "hit": false,
      "t": 192705.29120835138,
      "d": 31.779624999995576,
      "v": 105
    },
    {
      "midi": 24,
      "hit": false,
      "t": 192726.47762501804,
      "d": 31.779624999995576,
      "v": 105
    },
    {
      "midi": 36,
      "hit": false,
      "t": 192726.47762501804,
      "d": 31.779624999995576,
      "v": 105
    },
    {
      "midi": 35,
      "hit": false,
      "t": 192737.07083335138,
      "d": 31.77962500002468,
      "v": 105
    },
    {
      "midi": 23,
      "hit": false,
      "t": 192737.07083335138,
      "d": 79.4490625000326,
      "v": 105
    },
    {
      "midi": 21,
      "hit": false,
      "t": 192779.44366668473,
      "d": 111.22868750011548,
      "v": 105
    },
    {
      "midi": 33,
      "hit": false,
      "t": 192779.44366668473,
      "d": 111.22868750011548,
      "v": 105
    },
    {
      "midi": 62,
      "hit": false,
      "t": 192821.8165000181,
      "d": 31.779625000082888,
      "v": 127
    },
    {
      "midi": 42,
      "hit": false,
      "t": 192827.11310418477,
      "d": 5.296604166680481,
      "v": 35
    },
    {
      "midi": 61,
      "hit": false,
      "t": 192832.40970835145,
      "d": 5.296604166680481,
      "v": 38
    },
    {
      "midi": 77,
      "hit": false,
      "t": 192843.0029166848,
      "d": 5.296604166680481,
      "v": 63
    },
    {
      "midi": 54,
      "hit": false,
      "t": 192933.04518751818,
      "d": 90.04227083336446,
      "v": 39
    },
    {
      "midi": 66,
      "hit": false,
      "t": 192933.04518751818,
      "d": 90.04227083336446,
      "v": 39
    },
    {
      "midi": 98,
      "hit": false,
      "t": 192943.6383958515,
      "d": 10.593208333360963,
      "v": 104
    },
    {
      "midi": 102,
      "hit": false,
      "t": 192943.6383958515,
      "d": 10.593208333360963,
      "v": 69
    },
    {
      "midi": 105,
      "hit": false,
      "t": 192943.6383958515,
      "d": 10.593208333360963,
      "v": 79
    },
    {
      "midi": 42,
      "hit": false,
      "t": 192948.9350000182,
      "d": 5.296604166680481,
      "v": 92
    },
    {
      "midi": 61,
      "hit": false,
      "t": 192948.9350000182,
      "d": 5.296604166680481,
      "v": 62
    },
    {
      "midi": 77,
      "hit": false,
      "t": 192948.9350000182,
      "d": 5.296604166680481,
      "v": 15
    },
    {
      "midi": 62,
      "hit": false,
      "t": 192948.9350000182,
      "d": 31.77962500002468,
      "v": 114
    },
    {
      "midi": 83,
      "hit": false,
      "t": 192948.9350000182,
      "d": 74.15245833335212,
      "v": 110
    },
    {
      "midi": 95,
      "hit": false,
      "t": 192948.9350000182,
      "d": 74.15245833335212,
      "v": 107
    },
    {
      "midi": 79,
      "hit": false,
      "t": 192948.9350000182,
      "d": 90.04227083336446,
      "v": 89
    },
    {
      "midi": 38,
      "hit": false,
      "t": 193076.05350001823,
      "d": 5.296604166680481,
      "v": 40
    },
    {
      "midi": 62,
      "hit": false,
      "t": 193076.05350001823,
      "d": 31.779625000082888,
      "v": 79
    },
    {
      "midi": 42,
      "hit": false,
      "t": 193081.3501041849,
      "d": 5.296604166680481,
      "v": 38
    },
    {
      "midi": 61,
      "hit": false,
      "t": 193086.6467083516,
      "d": 5.296604166680481,
      "v": 75
    },
    {
      "midi": 77,
      "hit": false,
      "t": 193097.23991668495,
      "d": 5.296604166680481,
      "v": 60
    },
    {
      "midi": 38,
      "hit": false,
      "t": 193118.42633335164,
      "d": 5.296604166680481,
      "v": 40
    },
    {
      "midi": 38,
      "hit": false,
      "t": 193160.799166685,
      "d": 5.296604166680481,
      "v": 40
    },
    {
      "midi": 42,
      "hit": false,
      "t": 193197.87539585168,
      "d": 5.296604166680481,
      "v": 58
    },
    {
      "midi": 98,
      "hit": false,
      "t": 193197.87539585168,
      "d": 10.593208333360963,
      "v": 94
    },
    {
      "midi": 100,
      "hit": false,
      "t": 193197.87539585168,
      "d": 10.593208333360963,
      "v": 78
    },
    {
      "midi": 105,
      "hit": false,
      "t": 193197.87539585168,
      "d": 10.593208333360963,
      "v": 88
    },
    {
      "midi": 38,
      "hit": false,
      "t": 193203.17200001836,
      "d": 5.296604166680481,
      "v": 40
    },
    {
      "midi": 61,
      "hit": false,
      "t": 193203.17200001836,
      "d": 5.296604166680481,
      "v": 67
    },
    {
      "midi": 77,
      "hit": false,
      "t": 193203.17200001836,
      "d": 5.296604166680481,
      "v": 65
    },
    {
      "midi": 62,
      "hit": false,
      "t": 193203.17200001836,
      "d": 31.77962500002468,
      "v": 108
    },
    {
      "midi": 35,
      "hit": false,
      "t": 193203.17200001836,
      "d": 74.15245833335212,
      "v": 120
    },
    {
      "midi": 78,
      "hit": false,
      "t": 193203.17200001836,
      "d": 248.94039583345875,
      "v": 89
    },
    {
      "midi": 81,
      "hit": false,
      "t": 193203.17200001836,
      "d": 376.05889583349926,
      "v": 110
    },
    {
      "midi": 93,
      "hit": false,
      "t": 193203.17200001836,
      "d": 397.2453125002212,
      "v": 96
    },
    {
      "midi": 98,
      "hit": false,
      "t": 193324.99389585172,
      "d": 10.593208333360963,
      "v": 70
    },
    {
      "midi": 100,
      "hit": false,
      "t": 193324.99389585172,
      "d": 10.593208333360963,
      "v": 54
    },
    {
      "midi": 105,
      "hit": false,
      "t": 193324.99389585172,
      "d": 10.593208333360963,
      "v": 64
    },
    {
      "midi": 62,
      "hit": false,
      "t": 193330.2905000184,
      "d": 31.779625000082888,
      "v": 91
    },
    {
      "midi": 42,
      "hit": false,
      "t": 193335.58710418508,
      "d": 5.296604166680481,
      "v": 37
    },
    {
      "midi": 61,
      "hit": false,
      "t": 193340.88370835176,
      "d": 5.296604166680481,
      "v": 65
    },
    {
      "midi": 77,
      "hit": false,
      "t": 193351.47691668512,
      "d": 5.296604166680481,
      "v": 64
    },
    {
      "midi": 42,
      "hit": false,
      "t": 193457.4090000185,
      "d": 5.296604166680481,
      "v": 77
    },
    {
      "midi": 61,
      "hit": false,
      "t": 193457.4090000185,
      "d": 5.296604166680481,
      "v": 74
    },
    {
      "midi": 77,
      "hit": false,
      "t": 193457.4090000185,
      "d": 5.296604166680481,
      "v": 13
    },
    {
      "midi": 62,
      "hit": false,
      "t": 193457.4090000185,
      "d": 31.77962500002468,
      "v": 114
    },
    {
      "midi": 98,
      "hit": false,
      "t": 193579.23089585186,
      "d": 10.593208333360963,
      "v": 97
    },
    {
      "midi": 100,
      "hit": false,
      "t": 193579.23089585186,
      "d": 10.593208333360963,
      "v": 81
    },
    {
      "midi": 105,
      "hit": false,
      "t": 193579.23089585186,
      "d": 10.593208333360963,
      "v": 91
    },
    {
      "midi": 62,
      "hit": false,
      "t": 193584.52750001854,
      "d": 31.779625000082888,
      "v": 59
    },
    {
      "midi": 42,
      "hit": false,
      "t": 193589.82410418522,
      "d": 5.296604166680481,
      "v": 38
    },
    {
      "midi": 61,
      "hit": false,
      "t": 193595.1207083519,
      "d": 5.296604166680481,
      "v": 44
    },
    {
      "midi": 77,
      "hit": false,
      "t": 193605.71391668526,
      "d": 5.296604166680481,
      "v": 59
    },
    {
      "midi": 42,
      "hit": false,
      "t": 193706.34939585195,
      "d": 5.296604166680481,
      "v": 67
    },
    {
      "midi": 40,
      "hit": false,
      "t": 193711.64600001863,
      "d": 5.296604166680481,
      "v": 93
    },
    {
      "midi": 60,
      "hit": false,
      "t": 193711.64600001863,
      "d": 5.296604166680481,
      "v": 68
    },
    {
      "midi": 77,
      "hit": false,
      "t": 193711.64600001863,
      "d": 5.296604166680481,
      "v": 57
    },
    {
      "midi": 62,
      "hit": false,
      "t": 193711.64600001863,
      "d": 31.77962500002468,
      "v": 118
    },
    {
      "midi": 35,
      "hit": false,
      "t": 193711.64600001863,
      "d": 74.15245833335212,
      "v": 120
    },
    {
      "midi": 79,
      "hit": false,
      "t": 193711.64600001863,
      "d": 376.05889583347016,
      "v": 106
    },
    {
      "midi": 83,
      "hit": false,
      "t": 193711.64600001863,
      "d": 376.05889583347016,
      "v": 127
    },
    {
      "midi": 95,
      "hit": false,
      "t": 193711.64600001863,
      "d": 376.05889583347016,
      "v": 104
    },
    {
      "midi": 62,
      "hit": false,
      "t": 193838.76450001865,
      "d": 31.779625000082888,
      "v": 108
    },
    {
      "midi": 42,
      "hit": false,
      "t": 193844.06110418533,
      "d": 5.296604166680481,
      "v": 43
    },
    {
      "midi": 61,
      "hit": false,
      "t": 193849.357708352,
      "d": 5.296604166680481,
      "v": 38
    },
    {
      "midi": 77,
      "hit": false,
      "t": 193859.95091668537,
      "d": 5.296604166680481,
      "v": 60
    },
    {
      "midi": 98,
      "hit": false,
      "t": 193960.58639585206,
      "d": 10.593208333360963,
      "v": 105
    },
    {
      "midi": 102,
      "hit": false,
      "t": 193960.58639585206,
      "d": 10.593208333360963,
      "v": 70
    },
    {
      "midi": 105,
      "hit": false,
      "t": 193960.58639585206,
      "d": 10.593208333360963,
      "v": 80
    },
    {
      "midi": 42,
      "hit": false,
      "t": 193965.88300001874,
      "d": 5.296604166680481,
      "v": 69
    },
    {
      "midi": 61,
      "hit": false,
      "t": 193965.88300001874,
      "d": 5.296604166680481,
      "v": 71
    },
    {
      "midi": 77,
      "hit": false,
      "t": 193965.88300001874,
      "d": 5.296604166680481,
      "v": 13
    },
    {
      "midi": 62,
      "hit": false,
      "t": 193965.88300001874,
      "d": 31.77962500002468,
      "v": 114
    },
    {
      "midi": 42,
      "hit": false,
      "t": 194093.00150001879,
      "d": 5.296604166680481,
      "v": 69
    },
    {
      "midi": 74,
      "hit": false,
      "t": 194093.00150001879,
      "d": 84.74566666674218,
      "v": 104
    },
    {
      "midi": 69,
      "hit": false,
      "t": 194093.00150001879,
      "d": 121.82189583341824,
      "v": 83
    },
    {
      "midi": 61,
      "hit": false,
      "t": 194103.59470835215,
      "d": 5.296604166680481,
      "v": 69
    },
    {
      "midi": 62,
      "hit": false,
      "t": 194103.59470835215,
      "d": 21.186416666721925,
      "v": 127
    },
    {
      "midi": 86,
      "hit": false,
      "t": 194103.59470835215,
      "d": 105.9320833333768,
      "v": 98
    },
    {
      "midi": 50,
      "hit": false,
      "t": 194103.59470835215,
      "d": 105.9320833333768,
      "v": 114
    },
    {
      "midi": 77,
      "hit": false,
      "t": 194114.1879166855,
      "d": 5.296604166680481,
      "v": 50
    },
    {
      "midi": 42,
      "hit": false,
      "t": 194214.8233958522,
      "d": 5.296604166680481,
      "v": 43
    },
    {
      "midi": 61,
      "hit": false,
      "t": 194220.12000001888,
      "d": 5.296604166680481,
      "v": 67
    },
    {
      "midi": 77,
      "hit": false,
      "t": 194220.12000001888,
      "d": 5.296604166680481,
      "v": 58
    },
    {
      "midi": 62,
      "hit": false,
      "t": 194220.12000001888,
      "d": 31.77962500002468,
      "v": 120
    },
    {
      "midi": 35,
      "hit": false,
      "t": 194220.12000001888,
      "d": 74.15245833335212,
      "v": 120
    },
    {
      "midi": 74,
      "hit": false,
      "t": 194347.2385000189,
      "d": 63.559250000078464,
      "v": 104
    },
    {
      "midi": 69,
      "hit": false,
      "t": 194347.2385000189,
      "d": 248.94039583345875,
      "v": 83
    },
    {
      "midi": 42,
      "hit": false,
      "t": 194352.53510418558,
      "d": 5.296604166680481,
      "v": 35
    },
    {
      "midi": 62,
      "hit": false,
      "t": 194352.53510418558,
      "d": 26.483020833402406,
      "v": 121
    },
    {
      "midi": 50,
      "hit": false,
      "t": 194352.53510418558,
      "d": 74.15245833341032,
      "v": 108
    },
    {
      "midi": 61,
      "hit": false,
      "t": 194357.83170835226,
      "d": 5.296604166680481,
      "v": 65
    },
    {
      "midi": 86,
      "hit": false,
      "t": 194357.83170835226,
      "d": 68.85585416672984,
      "v": 107
    },
    {
      "midi": 77,
      "hit": false,
      "t": 194368.42491668562,
      "d": 5.296604166680481,
      "v": 52
    },
    {
      "midi": 98,
      "hit": false,
      "t": 194469.0603958523,
      "d": 10.593208333360963,
      "v": 117
    },
    {
      "midi": 102,
      "hit": false,
      "t": 194469.0603958523,
      "d": 10.593208333360963,
      "v": 82
    },
    {
      "midi": 105,
      "hit": false,
      "t": 194469.0603958523,
      "d": 10.593208333360963,
      "v": 92
    },
    {
      "midi": 42,
      "hit": false,
      "t": 194474.357000019,
      "d": 5.296604166680481,
      "v": 92
    },
    {
      "midi": 61,
      "hit": false,
      "t": 194474.357000019,
      "d": 5.296604166680481,
      "v": 74
    },
    {
      "midi": 77,
      "hit": false,
      "t": 194474.357000019,
      "d": 5.296604166680481,
      "v": 14
    },
    {
      "midi": 62,
      "hit": false,
      "t": 194474.357000019,
      "d": 31.77962500002468,
      "v": 109
    },
    {
      "midi": 74,
      "hit": false,
      "t": 194601.47550001903,
      "d": 105.9320833334059,
      "v": 105
    },
    {
      "midi": 42,
      "hit": false,
      "t": 194606.77210418571,
      "d": 5.296604166680481,
      "v": 38
    },
    {
      "midi": 62,
      "hit": false,
      "t": 194606.77210418571,
      "d": 26.483020833402406,
      "v": 103
    },
    {
      "midi": 50,
      "hit": false,
      "t": 194606.77210418571,
      "d": 90.04227083339356,
      "v": 90
    },
    {
      "midi": 61,
      "hit": false,
      "t": 194612.0687083524,
      "d": 5.296604166680481,
      "v": 51
    },
    {
      "midi": 86,
      "hit": false,
      "t": 194612.0687083524,
      "d": 63.55925000004936,
      "v": 111
    },
    {
      "midi": 77,
      "hit": false,
      "t": 194622.66191668576,
      "d": 5.296604166680481,
      "v": 57
    },
    {
      "midi": 94,
      "hit": false,
      "t": 194707.40758335244,
      "d": 26.483020833373303,
      "v": 95
    },
    {
      "midi": 82,
      "hit": false,
      "t": 194707.40758335244,
      "d": 127.11850000009872,
      "v": 125
    },
    {
      "midi": 42,
      "hit": false,
      "t": 194723.29739585245,
      "d": 5.296604166680481,
      "v": 43
    },
    {
      "midi": 60,
      "hit": false,
      "t": 194728.59400001913,
      "d": 5.296604166680481,
      "v": 68
    },
    {
      "midi": 77,
      "hit": false,
      "t": 194728.59400001913,
      "d": 5.296604166680481,
      "v": 56
    },
    {
      "midi": 62,
      "hit": false,
      "t": 194728.59400001913,
      "d": 31.77962500002468,
      "v": 127
    },
    {
      "midi": 35,
      "hit": false,
      "t": 194728.59400001913,
      "d": 74.15245833338122,
      "v": 120
    },
    {
      "midi": 79,
      "hit": false,
      "t": 194728.59400001913,
      "d": 386.6521041668602,
      "v": 96
    },
    {
      "midi": 58,
      "hit": false,
      "t": 194739.1872083525,
      "d": 68.85585416670074,
      "v": 114
    },
    {
      "midi": 70,
      "hit": false,
      "t": 194739.1872083525,
      "d": 68.85585416670074,
      "v": 127
    },
    {
      "midi": 95,
      "hit": false,
      "t": 194739.1872083525,
      "d": 434.32154166689725,
      "v": 105
    },
    {
      "midi": 59,
      "hit": false,
      "t": 194765.67022918584,
      "d": 365.4656875001965,
      "v": 104
    },
    {
      "midi": 71,
      "hit": false,
      "t": 194765.67022918584,
      "d": 365.4656875001965,
      "v": 117
    },
    {
      "midi": 83,
      "hit": false,
      "t": 194792.15325001918,
      "d": 195.97435416679946,
      "v": 108
    },
    {
      "midi": 62,
      "hit": false,
      "t": 194855.7125000192,
      "d": 31.779625000082888,
      "v": 127
    },
    {
      "midi": 42,
      "hit": false,
      "t": 194861.00910418588,
      "d": 5.296604166680481,
      "v": 35
    },
    {
      "midi": 61,
      "hit": false,
      "t": 194866.30570835256,
      "d": 5.296604166680481,
      "v": 38
    },
    {
      "midi": 77,
      "hit": false,
      "t": 194876.89891668592,
      "d": 5.296604166680481,
      "v": 63
    },
    {
      "midi": 98,
      "hit": false,
      "t": 194977.53439585262,
      "d": 10.593208333360963,
      "v": 104
    },
    {
      "midi": 102,
      "hit": false,
      "t": 194977.53439585262,
      "d": 10.593208333360963,
      "v": 69
    },
    {
      "midi": 105,
      "hit": false,
      "t": 194977.53439585262,
      "d": 10.593208333360963,
      "v": 79
    },
    {
      "midi": 42,
      "hit": false,
      "t": 194982.8310000193,
      "d": 5.296604166680481,
      "v": 92
    },
    {
      "midi": 61,
      "hit": false,
      "t": 194982.8310000193,
      "d": 5.296604166680481,
      "v": 62
    },
    {
      "midi": 77,
      "hit": false,
      "t": 194982.8310000193,
      "d": 5.296604166680481,
      "v": 15
    },
    {
      "midi": 62,
      "hit": false,
      "t": 194982.8310000193,
      "d": 31.77962500002468,
      "v": 114
    },
    {
      "midi": 62,
      "hit": false,
      "t": 195109.9495000193,
      "d": 31.779625000082888,
      "v": 79
    },
    {
      "midi": 42,
      "hit": false,
      "t": 195115.246104186,
      "d": 5.296604166680481,
      "v": 38
    },
    {
      "midi": 61,
      "hit": false,
      "t": 195120.54270835267,
      "d": 5.296604166680481,
      "v": 75
    },
    {
      "midi": 77,
      "hit": false,
      "t": 195131.13591668603,
      "d": 5.296604166680481,
      "v": 60
    },
    {
      "midi": 80,
      "hit": false,
      "t": 195199.99177085274,
      "d": 127.11850000006962,
      "v": 89
    },
    {
      "midi": 42,
      "hit": false,
      "t": 195231.77139585273,
      "d": 5.296604166680481,
      "v": 58
    },
    {
      "midi": 98,
      "hit": false,
      "t": 195231.77139585273,
      "d": 10.593208333360963,
      "v": 94
    },
    {
      "midi": 100,
      "hit": false,
      "t": 195231.77139585273,
      "d": 10.593208333360963,
      "v": 78
    },
    {
      "midi": 105,
      "hit": false,
      "t": 195231.77139585273,
      "d": 10.593208333360963,
      "v": 88
    },
    {
      "midi": 61,
      "hit": false,
      "t": 195237.0680000194,
      "d": 5.296604166680481,
      "v": 67
    },
    {
      "midi": 77,
      "hit": false,
      "t": 195237.0680000194,
      "d": 5.296604166680481,
      "v": 65
    },
    {
      "midi": 62,
      "hit": false,
      "t": 195237.0680000194,
      "d": 31.77962500002468,
      "v": 108
    },
    {
      "midi": 35,
      "hit": false,
      "t": 195237.0680000194,
      "d": 74.15245833338122,
      "v": 120
    },
    {
      "midi": 76,
      "hit": false,
      "t": 195237.0680000194,
      "d": 503.177395833598,
      "v": 90
    },
    {
      "midi": 93,
      "hit": false,
      "t": 195237.0680000194,
      "d": 715.0415625004389,
      "v": 102
    },
    {
      "midi": 57,
      "hit": false,
      "t": 195258.2544166861,
      "d": 953.3887500005367,
      "v": 114
    },
    {
      "midi": 69,
      "hit": false,
      "t": 195258.2544166861,
      "d": 953.3887500005367,
      "v": 127
    },
    {
      "midi": 81,
      "hit": false,
      "t": 195284.73743751945,
      "d": 455.50795833356096,
      "v": 112
    },
    {
      "midi": 98,
      "hit": false,
      "t": 195358.8898958528,
      "d": 10.593208333360963,
      "v": 70
    },
    {
      "midi": 100,
      "hit": false,
      "t": 195358.8898958528,
      "d": 10.593208333360963,
      "v": 54
    },
    {
      "midi": 105,
      "hit": false,
      "t": 195358.8898958528,
      "d": 10.593208333360963,
      "v": 64
    },
    {
      "midi": 44,
      "hit": false,
      "t": 195364.18650001948,
      "d": 5.296604166680481,
      "v": 127
    },
    {
      "midi": 49,
      "hit": false,
      "t": 195364.18650001948,
      "d": 5.296604166680481,
      "v": 127
    },
    {
      "midi": 62,
      "hit": false,
      "t": 195364.18650001948,
      "d": 31.779625000082888,
      "v": 91
    },
    {
      "midi": 42,
      "hit": false,
      "t": 195369.48310418616,
      "d": 5.296604166680481,
      "v": 37
    },
    {
      "midi": 61,
      "hit": false,
      "t": 195374.77970835284,
      "d": 5.296604166680481,
      "v": 65
    },
    {
      "midi": 77,
      "hit": false,
      "t": 195385.3729166862,
      "d": 5.296604166680481,
      "v": 64
    },
    {
      "midi": 42,
      "hit": false,
      "t": 195491.30500001955,
      "d": 5.296604166680481,
      "v": 77
    },
    {
      "midi": 61,
      "hit": false,
      "t": 195491.30500001955,
      "d": 5.296604166680481,
      "v": 74
    },
    {
      "midi": 77,
      "hit": false,
      "t": 195491.30500001955,
      "d": 5.296604166680481,
      "v": 13
    },
    {
      "midi": 62,
      "hit": false,
      "t": 195491.30500001955,
      "d": 31.77962500002468,
      "v": 114
    },
    {
      "midi": 98,
      "hit": false,
      "t": 195613.1268958529,
      "d": 10.593208333360963,
      "v": 97
    },
    {
      "midi": 100,
      "hit": false,
      "t": 195613.1268958529,
      "d": 10.593208333360963,
      "v": 81
    },
    {
      "midi": 105,
      "hit": false,
      "t": 195613.1268958529,
      "d": 10.593208333360963,
      "v": 91
    },
    {
      "midi": 62,
      "hit": false,
      "t": 195618.4235000196,
      "d": 31.779625000082888,
      "v": 59
    },
    {
      "midi": 42,
      "hit": false,
      "t": 195623.72010418627,
      "d": 5.296604166680481,
      "v": 38
    },
    {
      "midi": 61,
      "hit": false,
      "t": 195629.01670835295,
      "d": 5.296604166680481,
      "v": 44
    },
    {
      "midi": 44,
      "hit": false,
      "t": 195634.31331251963,
      "d": 21.186416666721925,
      "v": 127
    },
    {
      "midi": 49,
      "hit": false,
      "t": 195634.31331251963,
      "d": 21.186416666721925,
      "v": 127
    },
    {
      "midi": 77,
      "hit": false,
      "t": 195639.6099166863,
      "d": 5.296604166680481,
      "v": 59
    },
    {
      "midi": 42,
      "hit": false,
      "t": 195740.245395853,
      "d": 5.296604166680481,
      "v": 67
    },
    {
      "midi": 40,
      "hit": false,
      "t": 195745.5420000197,
      "d": 5.296604166680481,
      "v": 93
    },
    {
      "midi": 60,
      "hit": false,
      "t": 195745.5420000197,
      "d": 5.296604166680481,
      "v": 68
    },
    {
      "midi": 77,
      "hit": false,
      "t": 195745.5420000197,
      "d": 5.296604166680481,
      "v": 57
    },
    {
      "midi": 62,
      "hit": false,
      "t": 195745.5420000197,
      "d": 31.77962500002468,
      "v": 118
    },
    {
      "midi": 44,
      "hit": false,
      "t": 195745.5420000197,
      "d": 63.55925000004936,
      "v": 127
    },
    {
      "midi": 49,
      "hit": false,
      "t": 195745.5420000197,
      "d": 63.55925000004936,
      "v": 127
    },
    {
      "midi": 35,
      "hit": false,
      "t": 195745.5420000197,
      "d": 74.15245833341032,
      "v": 120
    },
    {
      "midi": 62,
      "hit": false,
      "t": 195872.66050001976,
      "d": 31.779625000082888,
      "v": 108
    },
    {
      "midi": 42,
      "hit": false,
      "t": 195877.95710418644,
      "d": 5.296604166680481,
      "v": 43
    },
    {
      "midi": 61,
      "hit": false,
      "t": 195883.25370835312,
      "d": 5.296604166680481,
      "v": 38
    },
    {
      "midi": 44,
      "hit": false,
      "t": 195888.5503125198,
      "d": 63.55925000004936,
      "v": 127
    },
    {
      "midi": 49,
      "hit": false,
      "t": 195888.5503125198,
      "d": 63.55925000004936,
      "v": 127
    },
    {
      "midi": 77,
      "hit": false,
      "t": 195893.84691668648,
      "d": 5.296604166680481,
      "v": 60
    },
    {
      "midi": 98,
      "hit": false,
      "t": 195994.48239585318,
      "d": 10.593208333360963,
      "v": 105
    },
    {
      "midi": 102,
      "hit": false,
      "t": 195994.48239585318,
      "d": 10.593208333360963,
      "v": 70
    },
    {
      "midi": 105,
      "hit": false,
      "t": 195994.48239585318,
      "d": 10.593208333360963,
      "v": 80
    },
    {
      "midi": 42,
      "hit": false,
      "t": 195999.77900001986,
      "d": 5.296604166680481,
      "v": 69
    },
    {
      "midi": 61,
      "hit": false,
      "t": 195999.77900001986,
      "d": 5.296604166680481,
      "v": 71
    },
    {
      "midi": 77,
      "hit": false,
      "t": 195999.77900001986,
      "d": 5.296604166680481,
      "v": 13
    },
    {
      "midi": 62,
      "hit": false,
      "t": 195999.77900001986,
      "d": 31.77962500002468,
      "v": 114
    },
    {
      "midi": 42,
      "hit": false,
      "t": 196126.8975000199,
      "d": 5.296604166680481,
      "v": 69
    },
    {
      "midi": 62,
      "hit": false,
      "t": 196126.8975000199,
      "d": 31.779625000082888,
      "v": 94
    },
    {
      "midi": 61,
      "hit": false,
      "t": 196137.49070835326,
      "d": 5.296604166680481,
      "v": 69
    },
    {
      "midi": 77,
      "hit": false,
      "t": 196148.08391668662,
      "d": 5.296604166680481,
      "v": 50
    },
    {
      "midi": 42,
      "hit": false,
      "t": 196248.71939585332,
      "d": 5.296604166680481,
      "v": 43
    },
    {
      "midi": 61,
      "hit": false,
      "t": 196254.01600002,
      "d": 5.296604166680481,
      "v": 67
    },
    {
      "midi": 77,
      "hit": false,
      "t": 196254.01600002,
      "d": 5.296604166680481,
      "v": 58
    },
    {
      "midi": 62,
      "hit": false,
      "t": 196254.01600002,
      "d": 31.77962500002468,
      "v": 120
    },
    {
      "midi": 35,
      "hit": false,
      "t": 196254.01600002,
      "d": 74.15245833335212,
      "v": 120
    },
    {
      "midi": 62,
      "hit": false,
      "t": 196381.13450002,
      "d": 31.779625000082888,
      "v": 103
    },
    {
      "midi": 42,
      "hit": false,
      "t": 196386.4311041867,
      "d": 5.296604166680481,
      "v": 35
    },
    {
      "midi": 61,
      "hit": false,
      "t": 196391.72770835337,
      "d": 5.296604166680481,
      "v": 65
    },
    {
      "midi": 77,
      "hit": false,
      "t": 196402.32091668673,
      "d": 5.296604166680481,
      "v": 52
    },
    {
      "midi": 98,
      "hit": false,
      "t": 196502.95639585343,
      "d": 10.593208333360963,
      "v": 117
    },
    {
      "midi": 102,
      "hit": false,
      "t": 196502.95639585343,
      "d": 10.593208333360963,
      "v": 82
    },
    {
      "midi": 105,
      "hit": false,
      "t": 196502.95639585343,
      "d": 10.593208333360963,
      "v": 92
    },
    {
      "midi": 42,
      "hit": false,
      "t": 196508.2530000201,
      "d": 5.296604166680481,
      "v": 92
    },
    {
      "midi": 61,
      "hit": false,
      "t": 196508.2530000201,
      "d": 5.296604166680481,
      "v": 74
    },
    {
      "midi": 77,
      "hit": false,
      "t": 196508.2530000201,
      "d": 5.296604166680481,
      "v": 14
    },
    {
      "midi": 62,
      "hit": false,
      "t": 196508.2530000201,
      "d": 31.77962500002468,
      "v": 109
    },
    {
      "midi": 62,
      "hit": false,
      "t": 196635.37150002012,
      "d": 31.779625000082888,
      "v": 58
    },
    {
      "midi": 42,
      "hit": false,
      "t": 196640.6681041868,
      "d": 5.296604166680481,
      "v": 38
    },
    {
      "midi": 61,
      "hit": false,
      "t": 196645.96470835348,
      "d": 5.296604166680481,
      "v": 51
    },
    {
      "midi": 77,
      "hit": false,
      "t": 196656.55791668684,
      "d": 5.296604166680481,
      "v": 57
    },
    {
      "midi": 42,
      "hit": false,
      "t": 196757.19339585354,
      "d": 5.296604166680481,
      "v": 43
    },
    {
      "midi": 40,
      "hit": false,
      "t": 196762.49000002022,
      "d": 5.296604166680481,
      "v": 92
    },
    {
      "midi": 49,
      "hit": false,
      "t": 196762.49000002022,
      "d": 5.296604166680481,
      "v": 99
    },
    {
      "midi": 57,
      "hit": false,
      "t": 196762.49000002022,
      "d": 5.296604166680481,
      "v": 99
    },
    {
      "midi": 60,
      "hit": false,
      "t": 196762.49000002022,
      "d": 5.296604166680481,
      "v": 68
    },
    {
      "midi": 77,
      "hit": false,
      "t": 196762.49000002022,
      "d": 5.296604166680481,
      "v": 56
    },
    {
      "midi": 62,
      "hit": false,
      "t": 196762.49000002022,
      "d": 31.77962500002468,
      "v": 127
    },
    {
      "midi": 86,
      "hit": false,
      "t": 196762.49000002022,
      "d": 58.26264583336888,
      "v": 108
    },
    {
      "midi": 74,
      "hit": false,
      "t": 196762.49000002022,
      "d": 63.55925000004936,
      "v": 112
    },
    {
      "midi": 35,
      "hit": false,
      "t": 196762.49000002022,
      "d": 74.15245833338122,
      "v": 120
    },
    {
      "midi": 78,
      "hit": false,
      "t": 196762.49000002022,
      "d": 95.33887500004494,
      "v": 91
    },
    {
      "midi": 50,
      "hit": false,
      "t": 196773.08320835358,
      "d": 100.63547916669631,
      "v": 114
    },
    {
      "midi": 62,
      "hit": false,
      "t": 196889.6085000203,
      "d": 31.779625000082888,
      "v": 127
    },
    {
      "midi": 42,
      "hit": false,
      "t": 196894.90510418697,
      "d": 5.296604166680481,
      "v": 35
    },
    {
      "midi": 61,
      "hit": false,
      "t": 196900.20170835365,
      "d": 5.296604166680481,
      "v": 38
    },
    {
      "midi": 77,
      "hit": false,
      "t": 196910.794916687,
      "d": 5.296604166680481,
      "v": 63
    },
    {
      "midi": 59,
      "hit": false,
      "t": 197000.83718752037,
      "d": 95.33887500004494,
      "v": 114
    },
    {
      "midi": 98,
      "hit": false,
      "t": 197011.4303958537,
      "d": 10.593208333360963,
      "v": 104
    },
    {
      "midi": 102,
      "hit": false,
      "t": 197011.4303958537,
      "d": 10.593208333360963,
      "v": 69
    },
    {
      "midi": 105,
      "hit": false,
      "t": 197011.4303958537,
      "d": 10.593208333360963,
      "v": 79
    },
    {
      "midi": 42,
      "hit": false,
      "t": 197016.7270000204,
      "d": 5.296604166680481,
      "v": 92
    },
    {
      "midi": 61,
      "hit": false,
      "t": 197016.7270000204,
      "d": 5.296604166680481,
      "v": 62
    },
    {
      "midi": 77,
      "hit": false,
      "t": 197016.7270000204,
      "d": 5.296604166680481,
      "v": 15
    },
    {
      "midi": 62,
      "hit": false,
      "t": 197016.7270000204,
      "d": 31.77962500002468,
      "v": 114
    },
    {
      "midi": 83,
      "hit": false,
      "t": 197016.7270000204,
      "d": 68.85585416670074,
      "v": 112
    },
    {
      "midi": 95,
      "hit": false,
      "t": 197016.7270000204,
      "d": 68.85585416670074,
      "v": 100
    },
    {
      "midi": 71,
      "hit": false,
      "t": 197016.7270000204,
      "d": 95.33887500004494,
      "v": 127
    },
    {
      "midi": 79,
      "hit": false,
      "t": 197016.7270000204,
      "d": 248.94039583351696,
      "v": 91
    },
    {
      "midi": 38,
      "hit": false,
      "t": 197143.84550002043,
      "d": 5.296604166680481,
      "v": 40
    },
    {
      "midi": 62,
      "hit": false,
      "t": 197143.84550002043,
      "d": 31.779625000082888,
      "v": 79
    },
    {
      "midi": 42,
      "hit": false,
      "t": 197149.1421041871,
      "d": 5.296604166680481,
      "v": 38
    },
    {
      "midi": 61,
      "hit": false,
      "t": 197154.4387083538,
      "d": 5.296604166680481,
      "v": 75
    },
    {
      "midi": 77,
      "hit": false,
      "t": 197165.03191668715,
      "d": 5.296604166680481,
      "v": 60
    },
    {
      "midi": 38,
      "hit": false,
      "t": 197186.21833335384,
      "d": 5.296604166680481,
      "v": 40
    },
    {
      "midi": 38,
      "hit": false,
      "t": 197228.5911666872,
      "d": 5.296604166680481,
      "v": 40
    },
    {
      "midi": 80,
      "hit": false,
      "t": 197255.07418752054,
      "d": 47.66943750009523,
      "v": 127
    },
    {
      "midi": 68,
      "hit": false,
      "t": 197260.37079168722,
      "d": 31.779625000053784,
      "v": 127
    },
    {
      "midi": 42,
      "hit": false,
      "t": 197265.6673958539,
      "d": 5.296604166680481,
      "v": 58
    },
    {
      "midi": 98,
      "hit": false,
      "t": 197265.6673958539,
      "d": 10.593208333360963,
      "v": 94
    },
    {
      "midi": 100,
      "hit": false,
      "t": 197265.6673958539,
      "d": 10.593208333360963,
      "v": 78
    },
    {
      "midi": 105,
      "hit": false,
      "t": 197265.6673958539,
      "d": 10.593208333360963,
      "v": 88
    },
    {
      "midi": 38,
      "hit": false,
      "t": 197270.96400002058,
      "d": 5.296604166680481,
      "v": 40
    },
    {
      "midi": 61,
      "hit": false,
      "t": 197270.96400002058,
      "d": 5.296604166680481,
      "v": 67
    },
    {
      "midi": 77,
      "hit": false,
      "t": 197270.96400002058,
      "d": 5.296604166680481,
      "v": 65
    },
    {
      "midi": 62,
      "hit": false,
      "t": 197270.96400002058,
      "d": 31.779625000053784,
      "v": 108
    },
    {
      "midi": 35,
      "hit": false,
      "t": 197270.96400002058,
      "d": 74.15245833338122,
      "v": 120
    },
    {
      "midi": 78,
      "hit": false,
      "t": 197270.96400002058,
      "d": 381.35550000017975,
      "v": 92
    },
    {
      "midi": 93,
      "hit": false,
      "t": 197270.96400002058,
      "d": 503.1773958336271,
      "v": 99
    },
    {
      "midi": 57,
      "hit": false,
      "t": 197281.55720835394,
      "d": 148.30491666679154,
      "v": 124
    },
    {
      "midi": 69,
      "hit": false,
      "t": 197281.55720835394,
      "d": 148.30491666679154,
      "v": 124
    },
    {
      "midi": 81,
      "hit": false,
      "t": 197297.44702085396,
      "d": 354.87247916680644,
      "v": 127
    },
    {
      "midi": 98,
      "hit": false,
      "t": 197392.78589585397,
      "d": 10.593208333360963,
      "v": 70
    },
    {
      "midi": 100,
      "hit": false,
      "t": 197392.78589585397,
      "d": 10.593208333360963,
      "v": 54
    },
    {
      "midi": 105,
      "hit": false,
      "t": 197392.78589585397,
      "d": 10.593208333360963,
      "v": 64
    },
    {
      "midi": 62,
      "hit": false,
      "t": 197398.08250002065,
      "d": 31.779625000082888,
      "v": 91
    },
    {
      "midi": 42,
      "hit": false,
      "t": 197403.37910418733,
      "d": 5.296604166680481,
      "v": 37
    },
    {
      "midi": 59,
      "hit": false,
      "t": 197403.37910418733,
      "d": 148.30491666673333,
      "v": 124
    },
    {
      "midi": 71,
      "hit": false,
      "t": 197403.37910418733,
      "d": 148.30491666673333,
      "v": 124
    },
    {
      "midi": 61,
      "hit": false,
      "t": 197408.675708354,
      "d": 5.296604166680481,
      "v": 65
    },
    {
      "midi": 77,
      "hit": false,
      "t": 197419.26891668738,
      "d": 5.296604166680481,
      "v": 64
    },
    {
      "midi": 42,
      "hit": false,
      "t": 197525.20100002072,
      "d": 5.296604166680481,
      "v": 77
    },
    {
      "midi": 61,
      "hit": false,
      "t": 197525.20100002072,
      "d": 5.296604166680481,
      "v": 124
    },
    {
      "midi": 77,
      "hit": false,
      "t": 197525.20100002072,
      "d": 5.296604166680481,
      "v": 13
    },
    {
      "midi": 62,
      "hit": false,
      "t": 197525.20100002072,
      "d": 31.77962500002468,
      "v": 114
    },
    {
      "midi": 73,
      "hit": false,
      "t": 197525.20100002072,
      "d": 121.82189583336003,
      "v": 124
    },
    {
      "midi": 74,
      "hit": false,
      "t": 197620.53987502074,
      "d": 148.30491666679154,
      "v": 124
    },
    {
      "midi": 98,
      "hit": false,
      "t": 197647.02289585408,
      "d": 10.593208333360963,
      "v": 97
    },
    {
      "midi": 100,
      "hit": false,
      "t": 197647.02289585408,
      "d": 10.593208333360963,
      "v": 81
    },
    {
      "midi": 105,
      "hit": false,
      "t": 197647.02289585408,
      "d": 10.593208333360963,
      "v": 91
    },
    {
      "midi": 62,
      "hit": false,
      "t": 197652.31950002076,
      "d": 31.779625000082888,
      "v": 59
    },
    {
      "midi": 42,
      "hit": false,
      "t": 197657.61610418744,
      "d": 5.296604166680481,
      "v": 38
    },
    {
      "midi": 61,
      "hit": false,
      "t": 197662.91270835412,
      "d": 5.296604166680481,
      "v": 44
    },
    {
      "midi": 77,
      "hit": false,
      "t": 197673.50591668749,
      "d": 5.296604166680481,
      "v": 59
    },
    {
      "midi": 64,
      "hit": false,
      "t": 197742.3617708542,
      "d": 105.9320833334059,
      "v": 125
    },
    {
      "midi": 76,
      "hit": false,
      "t": 197742.3617708542,
      "d": 105.9320833334059,
      "v": 125
    },
    {
      "midi": 42,
      "hit": false,
      "t": 197774.1413958542,
      "d": 5.296604166680481,
      "v": 67
    },
    {
      "midi": 40,
      "hit": false,
      "t": 197779.4380000209,
      "d": 5.296604166680481,
      "v": 92
    },
    {
      "midi": 60,
      "hit": false,
      "t": 197779.4380000209,
      "d": 5.296604166680481,
      "v": 68
    },
    {
      "midi": 77,
      "hit": false,
      "t": 197779.4380000209,
      "d": 5.296604166680481,
      "v": 57
    },
    {
      "midi": 62,
      "hit": false,
      "t": 197779.4380000209,
      "d": 31.77962500002468,
      "v": 118
    },
    {
      "midi": 35,
      "hit": false,
      "t": 197779.4380000209,
      "d": 74.15245833338122,
      "v": 120
    },
    {
      "midi": 71,
      "hit": false,
      "t": 197779.4380000209,
      "d": 280.72002083351254,
      "v": 127
    },
    {
      "midi": 95,
      "hit": false,
      "t": 197779.4380000209,
      "d": 291.3132291668735,
      "v": 96
    },
    {
      "midi": 59,
      "hit": false,
      "t": 197784.73460418757,
      "d": 280.72002083351254,
      "v": 114
    },
    {
      "midi": 83,
      "hit": false,
      "t": 197811.21762502092,
      "d": 264.8302083335293,
      "v": 127
    },
    {
      "midi": 66,
      "hit": false,
      "t": 197816.5142291876,
      "d": 143.00831250008196,
      "v": 125
    },
    {
      "midi": 78,
      "hit": false,
      "t": 197816.5142291876,
      "d": 143.00831250008196,
      "v": 125
    },
    {
      "midi": 62,
      "hit": false,
      "t": 197906.55650002093,
      "d": 31.779625000082888,
      "v": 108
    },
    {
      "midi": 42,
      "hit": false,
      "t": 197911.8531041876,
      "d": 5.296604166680481,
      "v": 43
    },
    {
      "midi": 61,
      "hit": false,
      "t": 197917.1497083543,
      "d": 5.296604166680481,
      "v": 38
    },
    {
      "midi": 77,
      "hit": false,
      "t": 197927.74291668765,
      "d": 5.296604166680481,
      "v": 60
    },
    {
      "midi": 67,
      "hit": false,
      "t": 197933.03952085433,
      "d": 121.82189583338914,
      "v": 125
    },
    {
      "midi": 79,
      "hit": false,
      "t": 197933.03952085433,
      "d": 121.82189583338914,
      "v": 125
    },
    {
      "midi": 69,
      "hit": false,
      "t": 197948.92933335435,
      "d": 153.60152083344292,
      "v": 125
    },
    {
      "midi": 81,
      "hit": false,
      "t": 197948.92933335435,
      "d": 153.60152083344292,
      "v": 125
    },
    {
      "midi": 98,
      "hit": false,
      "t": 198028.37839585435,
      "d": 10.593208333360963,
      "v": 105
    },
    {
      "midi": 102,
      "hit": false,
      "t": 198028.37839585435,
      "d": 10.593208333360963,
      "v": 70
    },
    {
      "midi": 105,
      "hit": false,
      "t": 198028.37839585435,
      "d": 10.593208333360963,
      "v": 80
    },
    {
      "midi": 42,
      "hit": false,
      "t": 198033.67500002103,
      "d": 5.296604166680481,
      "v": 69
    },
    {
      "midi": 61,
      "hit": false,
      "t": 198033.67500002103,
      "d": 5.296604166680481,
      "v": 71
    },
    {
      "midi": 77,
      "hit": false,
      "t": 198033.67500002103,
      "d": 5.296604166680481,
      "v": 13
    },
    {
      "midi": 62,
      "hit": false,
      "t": 198033.67500002103,
      "d": 31.779625000053784,
      "v": 114
    },
    {
      "midi": 83,
      "hit": false,
      "t": 198076.04783335445,
      "d": 79.4490625000326,
      "v": 126
    },
    {
      "midi": 71,
      "hit": false,
      "t": 198076.04783335445,
      "d": 105.932083333435,
      "v": 126
    },
    {
      "midi": 73,
      "hit": false,
      "t": 198097.2342500211,
      "d": 153.60152083347202,
      "v": 126
    },
    {
      "midi": 85,
      "hit": false,
      "t": 198097.2342500211,
      "d": 153.60152083347202,
      "v": 126
    },
    {
      "midi": 40,
      "hit": false,
      "t": 198160.79350002116,
      "d": 5.296604166680481,
      "v": 87
    },
    {
      "midi": 42,
      "hit": false,
      "t": 198160.79350002116,
      "d": 5.296604166680481,
      "v": 69
    },
    {
      "midi": 62,
      "hit": false,
      "t": 198160.79350002116,
      "d": 90.04227083342266,
      "v": 127
    },
    {
      "midi": 50,
      "hit": false,
      "t": 198160.79350002116,
      "d": 105.932083333435,
      "v": 88
    },
    {
      "midi": 74,
      "hit": false,
      "t": 198160.79350002116,
      "d": 105.932083333435,
      "v": 126
    },
    {
      "midi": 26,
      "hit": false,
      "t": 198160.79350002116,
      "d": 121.82189583347645,
      "v": 109
    },
    {
      "midi": 38,
      "hit": false,
      "t": 198160.79350002116,
      "d": 121.82189583347645,
      "v": 109
    },
    {
      "midi": 78,
      "hit": false,
      "t": 198160.79350002116,
      "d": 127.11850000015693,
      "v": 95
    },
    {
      "midi": 61,
      "hit": false,
      "t": 198171.38670835452,
      "d": 5.296604166680481,
      "v": 69
    },
    {
      "midi": 98,
      "hit": false,
      "t": 198171.38670835452,
      "d": 121.82189583347645,
      "v": 104
    },
    {
      "midi": 77,
      "hit": false,
      "t": 198181.97991668788,
      "d": 5.296604166680481,
      "v": 50
    },
    {
      "midi": 86,
      "hit": false,
      "t": 198192.57312502124,
      "d": 74.15245833335212,
      "v": 127
    },
    {
      "midi": 35,
      "hit": false,
      "t": 198287.91200002132,
      "d": 74.15245833338122,
      "v": 120
    },
    {
      "midi": 40,
      "hit": false,
      "t": 198415.03050002136,
      "d": 5.296604166680481,
      "v": 92
    },
    {
      "midi": 66,
      "hit": false,
      "t": 198415.03050002136,
      "d": 84.74566666668397,
      "v": 96
    },
    {
      "midi": 74,
      "hit": false,
      "t": 198415.03050002136,
      "d": 84.74566666668397,
      "v": 96
    },
    {
      "midi": 50,
      "hit": false,
      "t": 198415.03050002136,
      "d": 105.93208333334769,
      "v": 74
    },
    {
      "midi": 26,
      "hit": false,
      "t": 198415.03050002136,
      "d": 121.82189583336003,
      "v": 109
    },
    {
      "midi": 38,
      "hit": false,
      "t": 198415.03050002136,
      "d": 121.82189583336003,
      "v": 109
    },
    {
      "midi": 78,
      "hit": false,
      "t": 198415.03050002136,
      "d": 127.11850000004051,
      "v": 95
    },
    {
      "midi": 57,
      "hit": false,
      "t": 198415.03050002136,
      "d": 248.94039583340054,
      "v": 105
    },
    {
      "midi": 62,
      "hit": false,
      "t": 198415.03050002136,
      "d": 248.94039583340054,
      "v": 105
    },
    {
      "midi": 86,
      "hit": false,
      "t": 198425.62370835472,
      "d": 74.15245833332301,
      "v": 114
    },
    {
      "midi": 98,
      "hit": false,
      "t": 198425.62370835472,
      "d": 121.82189583336003,
      "v": 91
    },
    {
      "midi": 40,
      "hit": false,
      "t": 198669.26750002144,
      "d": 5.296604166680481,
      "v": 92
    },
    {
      "midi": 86,
      "hit": false,
      "t": 198669.26750002144,
      "d": 47.66943750003702,
      "v": 115
    },
    {
      "midi": 74,
      "hit": false,
      "t": 198669.26750002144,
      "d": 58.26264583336888,
      "v": 96
    },
    {
      "midi": 66,
      "hit": false,
      "t": 198669.26750002144,
      "d": 68.85585416672984,
      "v": 96
    },
    {
      "midi": 50,
      "hit": false,
      "t": 198669.26750002144,
      "d": 105.9320833334059,
      "v": 74
    },
    {
      "midi": 26,
      "hit": false,
      "t": 198669.26750002144,
      "d": 121.82189583341824,
      "v": 109
    },
    {
      "midi": 38,
      "hit": false,
      "t": 198669.26750002144,
      "d": 121.82189583341824,
      "v": 109
    },
    {
      "midi": 78,
      "hit": false,
      "t": 198669.26750002144,
      "d": 121.82189583341824,
      "v": 95
    },
    {
      "midi": 57,
      "hit": false,
      "t": 198669.26750002144,
      "d": 121.82189583341824,
      "v": 105
    },
    {
      "midi": 62,
      "hit": false,
      "t": 198669.26750002144,
      "d": 121.82189583341824,
      "v": 105
    },
    {
      "midi": 98,
      "hit": false,
      "t": 198679.8607083548,
      "d": 111.22868750005728,
      "v": 91
    },
    {
      "midi": 86,
      "hit": false,
      "t": 198791.08939585485,
      "d": 0,
      "v": 127
    },
    {
      "midi": 40,
      "hit": false,
      "t": 198796.38600002154,
      "d": 5.296604166680481,
      "v": 92
    },
    {
      "midi": 50,
      "hit": false,
      "t": 198796.38600002154,
      "d": 47.66943750003702,
      "v": 83
    },
    {
      "midi": 26,
      "hit": false,
      "t": 198796.38600002154,
      "d": 68.85585416672984,
      "v": 109
    },
    {
      "midi": 38,
      "hit": false,
      "t": 198796.38600002154,
      "d": 68.85585416672984,
      "v": 109
    },
    {
      "midi": 35,
      "hit": false,
      "t": 198796.38600002154,
      "d": 74.15245833341032,
      "v": 120
    },
    {
      "midi": 66,
      "hit": false,
      "t": 198796.38600002154,
      "d": 100.63547916675452,
      "v": 96
    },
    {
      "midi": 74,
      "hit": false,
      "t": 198796.38600002154,
      "d": 100.63547916675452,
      "v": 96
    },
    {
      "midi": 98,
      "hit": false,
      "t": 198796.38600002154,
      "d": 121.82189583344734,
      "v": 98
    },
    {
      "midi": 57,
      "hit": false,
      "t": 198796.38600002154,
      "d": 121.82189583344734,
      "v": 105
    },
    {
      "midi": 62,
      "hit": false,
      "t": 198796.38600002154,
      "d": 121.82189583344734,
      "v": 105
    },
    {
      "midi": 78,
      "hit": false,
      "t": 198796.38600002154,
      "d": 127.11850000012782,
      "v": 99
    },
    {
      "midi": 86,
      "hit": false,
      "t": 198801.68260418822,
      "d": 58.26264583336888,
      "v": 114
    },
    {
      "midi": 40,
      "hit": false,
      "t": 199050.62300002165,
      "d": 5.296604166680481,
      "v": 92
    },
    {
      "midi": 50,
      "hit": false,
      "t": 199050.62300002165,
      "d": 47.669437500007916,
      "v": 74
    },
    {
      "midi": 26,
      "hit": false,
      "t": 199050.62300002165,
      "d": 68.85585416670074,
      "v": 109
    },
    {
      "midi": 38,
      "hit": false,
      "t": 199050.62300002165,
      "d": 68.85585416670074,
      "v": 109
    },
    {
      "midi": 66,
      "hit": false,
      "t": 199050.62300002165,
      "d": 90.04227083339356,
      "v": 96
    },
    {
      "midi": 74,
      "hit": false,
      "t": 199050.62300002165,
      "d": 90.04227083339356,
      "v": 96
    },
    {
      "midi": 98,
      "hit": false,
      "t": 199050.62300002165,
      "d": 121.82189583341824,
      "v": 91
    },
    {
      "midi": 57,
      "hit": false,
      "t": 199050.62300002165,
      "d": 121.82189583341824,
      "v": 105
    },
    {
      "midi": 62,
      "hit": false,
      "t": 199050.62300002165,
      "d": 121.82189583341824,
      "v": 105
    },
    {
      "midi": 78,
      "hit": false,
      "t": 199050.62300002165,
      "d": 169.49133333342616,
      "v": 95
    },
    {
      "midi": 86,
      "hit": false,
      "t": 199055.91960418833,
      "d": 79.4490625000326,
      "v": 114
    },
    {
      "midi": 49,
      "hit": false,
      "t": 199304.86000002173,
      "d": 5.296604166680481,
      "v": 113
    },
    {
      "midi": 57,
      "hit": false,
      "t": 199304.86000002173,
      "d": 5.296604166680481,
      "v": 127
    },
    {
      "midi": 35,
      "hit": false,
      "t": 199304.86000002173,
      "d": 74.15245833335212,
      "v": 120
    },
    {
      "midi": 26,
      "hit": false,
      "t": 199304.86000002173,
      "d": 121.82189583336003,
      "v": 109
    },
    {
      "midi": 38,
      "hit": false,
      "t": 199304.86000002173,
      "d": 121.82189583336003,
      "v": 109
    },
    {
      "midi": 98,
      "hit": false,
      "t": 199304.86000002173,
      "d": 121.82189583336003,
      "v": 101
    },
    {
      "midi": 66,
      "hit": false,
      "t": 199304.86000002173,
      "d": 127.11850000004051,
      "v": 96
    },
    {
      "midi": 74,
      "hit": false,
      "t": 199304.86000002173,
      "d": 127.11850000004051,
      "v": 96
    },
    {
      "midi": 50,
      "hit": false,
      "t": 199304.86000002173,
      "d": 217.16077083337586,
      "v": 92
    },
    {
      "midi": 64,
      "hit": false,
      "t": 199304.86000002173,
      "d": 248.94039583340054,
      "v": 91
    },
    {
      "midi": 78,
      "hit": false,
      "t": 199304.86000002173,
      "d": 254.23700000008103,
      "v": 104
    },
    {
      "midi": 86,
      "hit": false,
      "t": 199310.1566041884,
      "d": 121.82189583336003,
      "v": 114
    },
    {
      "midi": 40,
      "hit": false,
      "t": 199686.2155000218,
      "d": 5.296604166680481,
      "v": 92
    },
    {
      "midi": 40,
      "hit": false,
      "t": 199813.3340000218,
      "d": 5.296604166680481,
      "v": 94
    },
    {
      "midi": 40,
      "hit": false,
      "t": 200067.57100002182,
      "d": 5.296604166680481,
      "v": 22
    },
    {
      "midi": 40,
      "hit": false,
      "t": 200194.68950002184,
      "d": 5.296604166680481,
      "v": 82
    },
    {
      "midi": 42,
      "hit": false,
      "t": 200316.5113958552,
      "d": 5.296604166680481,
      "v": 52
    },
    {
      "midi": 49,
      "hit": false,
      "t": 200321.80800002188,
      "d": 5.296604166680481,
      "v": 99
    },
    {
      "midi": 57,
      "hit": false,
      "t": 200321.80800002188,
      "d": 5.296604166680481,
      "v": 101
    },
    {
      "midi": 35,
      "hit": false,
      "t": 200321.80800002188,
      "d": 74.15245833335212,
      "v": 120
    },
    {
      "midi": 71,
      "hit": false,
      "t": 200321.80800002188,
      "d": 185.3811458333803,
      "v": 105
    },
    {
      "midi": 83,
      "hit": false,
      "t": 200321.80800002188,
      "d": 185.3811458333803,
      "v": 126
    },
    {
      "midi": 95,
      "hit": false,
      "t": 200321.80800002188,
      "d": 185.3811458333803,
      "v": 85
    },
    {
      "midi": 33,
      "hit": false,
      "t": 200321.80800002188,
      "d": 238.34718750003958,
      "v": 100
    },
    {
      "midi": 45,
      "hit": false,
      "t": 200321.80800002188,
      "d": 238.34718750003958,
      "v": 92
    },
    {
      "midi": 42,
      "hit": false,
      "t": 200454.22310418857,
      "d": 5.296604166680481,
      "v": 44
    },
    {
      "midi": 42,
      "hit": false,
      "t": 200576.04500002193,
      "d": 5.296604166680481,
      "v": 101
    },
    {
      "midi": 94,
      "hit": false,
      "t": 200576.04500002193,
      "d": 58.262645833339775,
      "v": 56
    },
    {
      "midi": 70,
      "hit": false,
      "t": 200576.04500002193,
      "d": 84.74566666668397,
      "v": 76
    },
    {
      "midi": 82,
      "hit": false,
      "t": 200576.04500002193,
      "d": 84.74566666668397,
      "v": 116
    },
    {
      "midi": 91,
      "hit": false,
      "t": 200660.7906666886,
      "d": 58.26264583336888,
      "v": 56
    },
    {
      "midi": 67,
      "hit": false,
      "t": 200660.7906666886,
      "d": 84.74566666671308,
      "v": 76
    },
    {
      "midi": 79,
      "hit": false,
      "t": 200660.7906666886,
      "d": 84.74566666671308,
      "v": 114
    },
    {
      "midi": 33,
      "hit": false,
      "t": 200703.16350002194,
      "d": 105.9320833334059,
      "v": 100
    },
    {
      "midi": 45,
      "hit": false,
      "t": 200703.16350002194,
      "d": 105.9320833334059,
      "v": 100
    },
    {
      "midi": 42,
      "hit": false,
      "t": 200708.46010418862,
      "d": 5.296604166680481,
      "v": 47
    },
    {
      "midi": 90,
      "hit": false,
      "t": 200745.53633335533,
      "d": 58.262645833339775,
      "v": 74
    },
    {
      "midi": 66,
      "hit": false,
      "t": 200745.53633335533,
      "d": 84.74566666671308,
      "v": 94
    },
    {
      "midi": 78,
      "hit": false,
      "t": 200745.53633335533,
      "d": 84.74566666671308,
      "v": 105
    },
    {
      "midi": 21,
      "hit": false,
      "t": 200814.39218752203,
      "d": 137.71170833337237,
      "v": 100
    },
    {
      "midi": 33,
      "hit": false,
      "t": 200814.39218752203,
      "d": 137.71170833337237,
      "v": 100
    },
    {
      "midi": 42,
      "hit": false,
      "t": 200824.98539585536,
      "d": 5.296604166680481,
      "v": 52
    },
    {
      "midi": 40,
      "hit": false,
      "t": 200830.28200002204,
      "d": 5.296604166680481,
      "v": 93
    },
    {
      "midi": 35,
      "hit": false,
      "t": 200830.28200002204,
      "d": 74.15245833335212,
      "v": 120
    },
    {
      "midi": 64,
      "hit": false,
      "t": 200830.28200002204,
      "d": 185.3811458333803,
      "v": 107
    },
    {
      "midi": 76,
      "hit": false,
      "t": 200830.28200002204,
      "d": 185.3811458333803,
      "v": 127
    },
    {
      "midi": 88,
      "hit": false,
      "t": 200830.28200002204,
      "d": 185.3811458333803,
      "v": 87
    },
    {
      "midi": 42,
      "hit": false,
      "t": 200962.69710418873,
      "d": 5.296604166680481,
      "v": 44
    },
    {
      "midi": 26,
      "hit": false,
      "t": 201063.33258335543,
      "d": 121.82189583336003,
      "v": 100
    },
    {
      "midi": 38,
      "hit": false,
      "t": 201063.33258335543,
      "d": 121.82189583336003,
      "v": 100
    },
    {
      "midi": 42,
      "hit": false,
      "t": 201084.5190000221,
      "d": 5.296604166680481,
      "v": 101
    },
    {
      "midi": 86,
      "hit": false,
      "t": 201084.5190000221,
      "d": 58.262645833339775,
      "v": 59
    },
    {
      "midi": 62,
      "hit": false,
      "t": 201084.5190000221,
      "d": 84.74566666668397,
      "v": 79
    },
    {
      "midi": 74,
      "hit": false,
      "t": 201084.5190000221,
      "d": 84.74566666668397,
      "v": 113
    },
    {
      "midi": 85,
      "hit": false,
      "t": 201169.26466668877,
      "d": 58.26264583339798,
      "v": 65
    },
    {
      "midi": 61,
      "hit": false,
      "t": 201169.26466668877,
      "d": 84.74566666674218,
      "v": 85
    },
    {
      "midi": 73,
      "hit": false,
      "t": 201169.26466668877,
      "d": 84.74566666674218,
      "v": 97
    },
    {
      "midi": 28,
      "hit": false,
      "t": 201190.45108335547,
      "d": 158.8981250000943,
      "v": 100
    },
    {
      "midi": 40,
      "hit": false,
      "t": 201190.45108335547,
      "d": 158.8981250000943,
      "v": 100
    },
    {
      "midi": 42,
      "hit": false,
      "t": 201216.9341041888,
      "d": 5.296604166680481,
      "v": 47
    },
    {
      "midi": 84,
      "hit": false,
      "t": 201254.01033335552,
      "d": 58.262645833339775,
      "v": 74
    },
    {
      "midi": 60,
      "hit": false,
      "t": 201254.01033335552,
      "d": 84.74566666671308,
      "v": 94
    },
    {
      "midi": 72,
      "hit": false,
      "t": 201254.01033335552,
      "d": 84.74566666671308,
      "v": 106
    },
    {
      "midi": 31,
      "hit": false,
      "t": 201317.56958335554,
      "d": 116.52529166670865,
      "v": 100
    },
    {
      "midi": 43,
      "hit": false,
      "t": 201317.56958335554,
      "d": 116.52529166670865,
      "v": 100
    },
    {
      "midi": 42,
      "hit": false,
      "t": 201333.45939585555,
      "d": 5.296604166680481,
      "v": 67
    },
    {
      "midi": 35,
      "hit": false,
      "t": 201338.75600002223,
      "d": 74.15245833332301,
      "v": 120
    },
    {
      "midi": 59,
      "hit": false,
      "t": 201338.75600002223,
      "d": 79.44906250000349,
      "v": 91
    },
    {
      "midi": 71,
      "hit": false,
      "t": 201338.75600002223,
      "d": 79.44906250000349,
      "v": 112
    },
    {
      "midi": 83,
      "hit": false,
      "t": 201338.75600002223,
      "d": 79.44906250000349,
      "v": 71
    },
    {
      "midi": 88,
      "hit": false,
      "t": 201338.75600002223,
      "d": 513.7706041668134,
      "v": 58
    },
    {
      "midi": 31,
      "hit": false,
      "t": 201444.68808335558,
      "d": 148.30491666670423,
      "v": 100
    },
    {
      "midi": 43,
      "hit": false,
      "t": 201444.68808335558,
      "d": 148.30491666670423,
      "v": 100
    },
    {
      "midi": 62,
      "hit": false,
      "t": 201465.87450002224,
      "d": 79.4490625000326,
      "v": 94
    },
    {
      "midi": 74,
      "hit": false,
      "t": 201465.87450002224,
      "d": 79.4490625000326,
      "v": 115
    },
    {
      "midi": 86,
      "hit": false,
      "t": 201465.87450002224,
      "d": 79.4490625000326,
      "v": 74
    },
    {
      "midi": 42,
      "hit": false,
      "t": 201471.17110418892,
      "d": 5.296604166680481,
      "v": 46
    },
    {
      "midi": 28,
      "hit": false,
      "t": 201577.10318752227,
      "d": 169.49133333339705,
      "v": 100
    },
    {
      "midi": 40,
      "hit": false,
      "t": 201577.10318752227,
      "d": 169.49133333339705,
      "v": 100
    },
    {
      "midi": 42,
      "hit": false,
      "t": 201592.99300002228,
      "d": 5.296604166680481,
      "v": 86
    },
    {
      "midi": 69,
      "hit": false,
      "t": 201592.99300002228,
      "d": 79.44906250000349,
      "v": 94
    },
    {
      "midi": 81,
      "hit": false,
      "t": 201592.99300002228,
      "d": 79.44906250000349,
      "v": 115
    },
    {
      "midi": 93,
      "hit": false,
      "t": 201592.99300002228,
      "d": 79.44906250000349,
      "v": 74
    },
    {
      "midi": 68,
      "hit": false,
      "t": 201720.1115000223,
      "d": 79.4490625000326,
      "v": 94
    },
    {
      "midi": 80,
      "hit": false,
      "t": 201720.1115000223,
      "d": 79.4490625000326,
      "v": 115
    },
    {
      "midi": 92,
      "hit": false,
      "t": 201720.1115000223,
      "d": 79.4490625000326,
      "v": 74
    },
    {
      "midi": 42,
      "hit": false,
      "t": 201725.40810418897,
      "d": 5.296604166680481,
      "v": 47
    },
    {
      "midi": 31,
      "hit": false,
      "t": 201836.636791689,
      "d": 121.82189583338914,
      "v": 100
    },
    {
      "midi": 43,
      "hit": false,
      "t": 201836.636791689,
      "d": 121.82189583338914,
      "v": 100
    },
    {
      "midi": 42,
      "hit": false,
      "t": 201841.93339585568,
      "d": 5.296604166680481,
      "v": 76
    },
    {
      "midi": 40,
      "hit": false,
      "t": 201847.23000002236,
      "d": 5.296604166680481,
      "v": 93
    },
    {
      "midi": 45,
      "hit": false,
      "t": 201847.23000002236,
      "d": 5.296604166680481,
      "v": 115
    },
    {
      "midi": 35,
      "hit": false,
      "t": 201847.23000002236,
      "d": 74.15245833335212,
      "v": 120
    },
    {
      "midi": 67,
      "hit": false,
      "t": 201847.23000002236,
      "d": 79.4490625000326,
      "v": 93
    },
    {
      "midi": 79,
      "hit": false,
      "t": 201847.23000002236,
      "d": 79.4490625000326,
      "v": 114
    },
    {
      "midi": 91,
      "hit": false,
      "t": 201847.23000002236,
      "d": 79.4490625000326,
      "v": 73
    },
    {
      "midi": 71,
      "hit": false,
      "t": 201974.3485000224,
      "d": 79.4490625000326,
      "v": 94
    },
    {
      "midi": 83,
      "hit": false,
      "t": 201974.3485000224,
      "d": 79.4490625000326,
      "v": 115
    },
    {
      "midi": 95,
      "hit": false,
      "t": 201974.3485000224,
      "d": 79.4490625000326,
      "v": 74
    },
    {
      "midi": 42,
      "hit": false,
      "t": 201979.64510418908,
      "d": 5.296604166680481,
      "v": 52
    },
    {
      "midi": 31,
      "hit": false,
      "t": 202090.8737916891,
      "d": 169.49133333336795,
      "v": 100
    },
    {
      "midi": 43,
      "hit": false,
      "t": 202090.8737916891,
      "d": 169.49133333336795,
      "v": 100
    },
    {
      "midi": 46,
      "hit": false,
      "t": 202101.46700002244,
      "d": 5.296604166680481,
      "v": 78
    },
    {
      "midi": 78,
      "hit": false,
      "t": 202101.46700002244,
      "d": 79.44906250000349,
      "v": 94
    },
    {
      "midi": 90,
      "hit": false,
      "t": 202101.46700002244,
      "d": 79.44906250000349,
      "v": 115
    },
    {
      "midi": 102,
      "hit": false,
      "t": 202101.46700002244,
      "d": 79.44906250000349,
      "v": 74
    },
    {
      "midi": 33,
      "hit": false,
      "t": 202217.99229168912,
      "d": 100.63547916669631,
      "v": 100
    },
    {
      "midi": 45,
      "hit": false,
      "t": 202217.99229168912,
      "d": 100.63547916669631,
      "v": 100
    },
    {
      "midi": 76,
      "hit": false,
      "t": 202228.58550002245,
      "d": 79.4490625000326,
      "v": 94
    },
    {
      "midi": 88,
      "hit": false,
      "t": 202228.58550002245,
      "d": 79.4490625000326,
      "v": 115
    },
    {
      "midi": 100,
      "hit": false,
      "t": 202228.58550002245,
      "d": 79.4490625000326,
      "v": 74
    },
    {
      "midi": 44,
      "hit": false,
      "t": 202233.88210418914,
      "d": 5.296604166680481,
      "v": 78
    },
    {
      "midi": 61,
      "hit": false,
      "t": 202329.22097918918,
      "d": 15.88981250001234,
      "v": 79
    },
    {
      "midi": 42,
      "hit": false,
      "t": 202350.40739585587,
      "d": 5.296604166680481,
      "v": 52
    },
    {
      "midi": 61,
      "hit": false,
      "t": 202355.70400002255,
      "d": 15.88981250001234,
      "v": 111
    },
    {
      "midi": 35,
      "hit": false,
      "t": 202355.70400002255,
      "d": 74.15245833335212,
      "v": 120
    },
    {
      "midi": 40,
      "hit": false,
      "t": 202482.82250002256,
      "d": 5.296604166680481,
      "v": 115
    },
    {
      "midi": 49,
      "hit": false,
      "t": 202482.82250002256,
      "d": 5.296604166680481,
      "v": 99
    },
    {
      "midi": 57,
      "hit": false,
      "t": 202482.82250002256,
      "d": 5.296604166680481,
      "v": 99
    },
    {
      "midi": 58,
      "hit": false,
      "t": 202482.82250002256,
      "d": 90.04227083336446,
      "v": 107
    },
    {
      "midi": 70,
      "hit": false,
      "t": 202482.82250002256,
      "d": 90.04227083336446,
      "v": 127
    },
    {
      "midi": 82,
      "hit": false,
      "t": 202482.82250002256,
      "d": 90.04227083336446,
      "v": 89
    },
    {
      "midi": 28,
      "hit": false,
      "t": 202482.82250002256,
      "d": 312.4996458334208,
      "v": 100
    },
    {
      "midi": 42,
      "hit": false,
      "t": 202488.11910418925,
      "d": 5.296604166680481,
      "v": 44
    },
    {
      "midi": 42,
      "hit": false,
      "t": 202609.9410000226,
      "d": 5.296604166680481,
      "v": 101
    },
    {
      "midi": 55,
      "hit": false,
      "t": 202609.9410000226,
      "d": 90.04227083333535,
      "v": 107
    },
    {
      "midi": 67,
      "hit": false,
      "t": 202609.9410000226,
      "d": 90.04227083333535,
      "v": 127
    },
    {
      "midi": 79,
      "hit": false,
      "t": 202609.9410000226,
      "d": 90.04227083333535,
      "v": 89
    },
    {
      "midi": 52,
      "hit": false,
      "t": 202737.05950002262,
      "d": 90.04227083336446,
      "v": 107
    },
    {
      "midi": 64,
      "hit": false,
      "t": 202737.05950002262,
      "d": 90.04227083336446,
      "v": 127
    },
    {
      "midi": 76,
      "hit": false,
      "t": 202737.05950002262,
      "d": 90.04227083336446,
      "v": 89
    },
    {
      "midi": 42,
      "hit": false,
      "t": 202742.3561041893,
      "d": 5.296604166680481,
      "v": 47
    },
    {
      "midi": 64,
      "hit": false,
      "t": 202848.28818752264,
      "d": 5.296604166680481,
      "v": 90
    },
    {
      "midi": 42,
      "hit": false,
      "t": 202858.881395856,
      "d": 5.296604166680481,
      "v": 52
    },
    {
      "midi": 40,
      "hit": false,
      "t": 202864.1780000227,
      "d": 5.296604166680481,
      "v": 93
    },
    {
      "midi": 49,
      "hit": false,
      "t": 202864.1780000227,
      "d": 5.296604166680481,
      "v": 99
    },
    {
      "midi": 57,
      "hit": false,
      "t": 202864.1780000227,
      "d": 5.296604166680481,
      "v": 99
    },
    {
      "midi": 35,
      "hit": false,
      "t": 202864.1780000227,
      "d": 74.15245833335212,
      "v": 120
    },
    {
      "midi": 67,
      "hit": false,
      "t": 202864.1780000227,
      "d": 90.04227083336446,
      "v": 93
    },
    {
      "midi": 79,
      "hit": false,
      "t": 202864.1780000227,
      "d": 90.04227083336446,
      "v": 127
    },
    {
      "midi": 91,
      "hit": false,
      "t": 202864.1780000227,
      "d": 90.04227083336446,
      "v": 89
    },
    {
      "midi": 31,
      "hit": false,
      "t": 202864.1780000227,
      "d": 455.50795833344455,
      "v": 100
    },
    {
      "midi": 43,
      "hit": false,
      "t": 202864.1780000227,
      "d": 455.50795833344455,
      "v": 115
    },
    {
      "midi": 73,
      "hit": false,
      "t": 202864.1780000227,
      "d": 497.8807916668011,
      "v": 123
    },
    {
      "midi": 64,
      "hit": false,
      "t": 202991.29650002273,
      "d": 90.04227083336446,
      "v": 107
    },
    {
      "midi": 76,
      "hit": false,
      "t": 202991.29650002273,
      "d": 90.04227083336446,
      "v": 127
    },
    {
      "midi": 88,
      "hit": false,
      "t": 202991.29650002273,
      "d": 90.04227083336446,
      "v": 89
    },
    {
      "midi": 42,
      "hit": false,
      "t": 202996.5931041894,
      "d": 5.296604166680481,
      "v": 44
    },
    {
      "midi": 42,
      "hit": false,
      "t": 203118.41500002277,
      "d": 5.296604166680481,
      "v": 101
    },
    {
      "midi": 67,
      "hit": false,
      "t": 203118.41500002277,
      "d": 90.04227083333535,
      "v": 107
    },
    {
      "midi": 79,
      "hit": false,
      "t": 203118.41500002277,
      "d": 90.04227083333535,
      "v": 127
    },
    {
      "midi": 91,
      "hit": false,
      "t": 203118.41500002277,
      "d": 90.04227083333535,
      "v": 89
    },
    {
      "midi": 70,
      "hit": false,
      "t": 203245.53350002278,
      "d": 90.04227083336446,
      "v": 107
    },
    {
      "midi": 82,
      "hit": false,
      "t": 203245.53350002278,
      "d": 90.04227083336446,
      "v": 127
    },
    {
      "midi": 94,
      "hit": false,
      "t": 203245.53350002278,
      "d": 90.04227083336446,
      "v": 89
    },
    {
      "midi": 42,
      "hit": false,
      "t": 203250.83010418946,
      "d": 5.296604166680481,
      "v": 47
    },
    {
      "midi": 42,
      "hit": false,
      "t": 203367.35539585617,
      "d": 5.296604166680481,
      "v": 67
    },
    {
      "midi": 35,
      "hit": false,
      "t": 203372.65200002285,
      "d": 74.15245833332301,
      "v": 120
    },
    {
      "midi": 70,
      "hit": false,
      "t": 203372.65200002285,
      "d": 90.04227083333535,
      "v": 93
    },
    {
      "midi": 82,
      "hit": false,
      "t": 203372.65200002285,
      "d": 90.04227083333535,
      "v": 127
    },
    {
      "midi": 94,
      "hit": false,
      "t": 203372.65200002285,
      "d": 90.04227083333535,
      "v": 90
    },
    {
      "midi": 76,
      "hit": false,
      "t": 203372.65200002285,
      "d": 497.880791666772,
      "v": 123
    },
    {
      "midi": 34,
      "hit": false,
      "t": 203372.65200002285,
      "d": 503.17739583345247,
      "v": 100
    },
    {
      "midi": 46,
      "hit": false,
      "t": 203372.65200002285,
      "d": 503.17739583345247,
      "v": 103
    },
    {
      "midi": 40,
      "hit": false,
      "t": 203499.77050002286,
      "d": 5.296604166680481,
      "v": 93
    },
    {
      "midi": 67,
      "hit": false,
      "t": 203499.77050002286,
      "d": 90.04227083336446,
      "v": 107
    },
    {
      "midi": 79,
      "hit": false,
      "t": 203499.77050002286,
      "d": 90.04227083336446,
      "v": 127
    },
    {
      "midi": 91,
      "hit": false,
      "t": 203499.77050002286,
      "d": 90.04227083336446,
      "v": 89
    },
    {
      "midi": 42,
      "hit": false,
      "t": 203505.06710418954,
      "d": 5.296604166680481,
      "v": 46
    },
    {
      "midi": 42,
      "hit": false,
      "t": 203626.8890000229,
      "d": 5.296604166680481,
      "v": 86
    },
    {
      "midi": 70,
      "hit": false,
      "t": 203626.8890000229,
      "d": 90.04227083333535,
      "v": 107
    },
    {
      "midi": 82,
      "hit": false,
      "t": 203626.8890000229,
      "d": 90.04227083333535,
      "v": 127
    },
    {
      "midi": 94,
      "hit": false,
      "t": 203626.8890000229,
      "d": 90.04227083333535,
      "v": 89
    },
    {
      "midi": 73,
      "hit": false,
      "t": 203754.0075000229,
      "d": 90.04227083336446,
      "v": 107
    },
    {
      "midi": 85,
      "hit": false,
      "t": 203754.0075000229,
      "d": 90.04227083336446,
      "v": 127
    },
    {
      "midi": 97,
      "hit": false,
      "t": 203754.0075000229,
      "d": 90.04227083336446,
      "v": 89
    },
    {
      "midi": 42,
      "hit": false,
      "t": 203759.3041041896,
      "d": 5.296604166680481,
      "v": 47
    },
    {
      "midi": 42,
      "hit": false,
      "t": 203875.8293958563,
      "d": 5.296604166680481,
      "v": 76
    },
    {
      "midi": 40,
      "hit": false,
      "t": 203881.12600002298,
      "d": 5.296604166680481,
      "v": 93
    },
    {
      "midi": 35,
      "hit": false,
      "t": 203881.12600002298,
      "d": 74.15245833335212,
      "v": 120
    },
    {
      "midi": 73,
      "hit": false,
      "t": 203881.12600002298,
      "d": 90.04227083336446,
      "v": 93
    },
    {
      "midi": 85,
      "hit": false,
      "t": 203881.12600002298,
      "d": 90.04227083336446,
      "v": 127
    },
    {
      "midi": 97,
      "hit": false,
      "t": 203881.12600002298,
      "d": 90.04227083336446,
      "v": 90
    },
    {
      "midi": 79,
      "hit": false,
      "t": 203881.12600002298,
      "d": 497.8807916668011,
      "v": 123
    },
    {
      "midi": 37,
      "hit": false,
      "t": 203881.12600002298,
      "d": 503.17739583348157,
      "v": 100
    },
    {
      "midi": 49,
      "hit": false,
      "t": 203881.12600002298,
      "d": 503.17739583348157,
      "v": 103
    },
    {
      "midi": 70,
      "hit": false,
      "t": 204008.24450002302,
      "d": 90.04227083336446,
      "v": 107
    },
    {
      "midi": 82,
      "hit": false,
      "t": 204008.24450002302,
      "d": 90.04227083336446,
      "v": 127
    },
    {
      "midi": 94,
      "hit": false,
      "t": 204008.24450002302,
      "d": 90.04227083336446,
      "v": 89
    },
    {
      "midi": 42,
      "hit": false,
      "t": 204013.5411041897,
      "d": 5.296604166680481,
      "v": 52
    },
    {
      "midi": 40,
      "hit": false,
      "t": 204135.36300002306,
      "d": 5.296604166680481,
      "v": 93
    },
    {
      "midi": 46,
      "hit": false,
      "t": 204135.36300002306,
      "d": 5.296604166680481,
      "v": 78
    },
    {
      "midi": 73,
      "hit": false,
      "t": 204135.36300002306,
      "d": 90.04227083333535,
      "v": 107
    },
    {
      "midi": 85,
      "hit": false,
      "t": 204135.36300002306,
      "d": 90.04227083333535,
      "v": 127
    },
    {
      "midi": 97,
      "hit": false,
      "t": 204135.36300002306,
      "d": 90.04227083333535,
      "v": 89
    },
    {
      "midi": 40,
      "hit": false,
      "t": 204262.48150002307,
      "d": 5.296604166680481,
      "v": 93
    },
    {
      "midi": 76,
      "hit": false,
      "t": 204262.48150002307,
      "d": 90.04227083336446,
      "v": 107
    },
    {
      "midi": 88,
      "hit": false,
      "t": 204262.48150002307,
      "d": 90.04227083336446,
      "v": 127
    },
    {
      "midi": 100,
      "hit": false,
      "t": 204262.48150002307,
      "d": 90.04227083336446,
      "v": 89
    },
    {
      "midi": 44,
      "hit": false,
      "t": 204267.77810418975,
      "d": 5.296604166680481,
      "v": 78
    },
    {
      "midi": 42,
      "hit": false,
      "t": 204384.30339585646,
      "d": 5.296604166680481,
      "v": 43
    },
    {
      "midi": 49,
      "hit": false,
      "t": 204389.60000002314,
      "d": 5.296604166680481,
      "v": 108
    },
    {
      "midi": 57,
      "hit": false,
      "t": 204389.60000002314,
      "d": 5.296604166680481,
      "v": 108
    },
    {
      "midi": 61,
      "hit": false,
      "t": 204389.60000002314,
      "d": 5.296604166680481,
      "v": 67
    },
    {
      "midi": 77,
      "hit": false,
      "t": 204389.60000002314,
      "d": 5.296604166680481,
      "v": 58
    },
    {
      "midi": 82,
      "hit": false,
      "t": 204389.60000002314,
      "d": 5.296604166680481,
      "v": 7
    },
    {
      "midi": 74,
      "hit": false,
      "t": 204389.60000002314,
      "d": 31.77962500002468,
      "v": 110
    },
    {
      "midi": 33,
      "hit": false,
      "t": 204389.60000002314,
      "d": 58.26264583336888,
      "v": 100
    },
    {
      "midi": 45,
      "hit": false,
      "t": 204389.60000002314,
      "d": 58.26264583336888,
      "v": 100
    },
    {
      "midi": 62,
      "hit": false,
      "t": 204400.1932083565,
      "d": 74.15245833335212,
      "v": 113
    },
    {
      "midi": 35,
      "hit": false,
      "t": 204421.37962502317,
      "d": 42.37283333335654,
      "v": 100
    },
    {
      "midi": 47,
      "hit": false,
      "t": 204421.37962502317,
      "d": 58.26264583336888,
      "v": 100
    },
    {
      "midi": 36,
      "hit": false,
      "t": 204453.1592500232,
      "d": 47.66943750003702,
      "v": 100
    },
    {
      "midi": 48,
      "hit": false,
      "t": 204453.1592500232,
      "d": 47.66943750003702,
      "v": 100
    },
    {
      "midi": 50,
      "hit": false,
      "t": 204463.75245835652,
      "d": 21.18641666669282,
      "v": 100
    },
    {
      "midi": 38,
      "hit": false,
      "t": 204463.75245835652,
      "d": 31.77962500002468,
      "v": 100
    },
    {
      "midi": 40,
      "hit": false,
      "t": 204474.34566668986,
      "d": 58.26264583342709,
      "v": 100
    },
    {
      "midi": 52,
      "hit": false,
      "t": 204474.34566668986,
      "d": 58.26264583342709,
      "v": 100
    },
    {
      "midi": 41,
      "hit": false,
      "t": 204484.93887502322,
      "d": 68.85585416678805,
      "v": 100
    },
    {
      "midi": 53,
      "hit": false,
      "t": 204484.93887502322,
      "d": 68.85585416678805,
      "v": 100
    },
    {
      "midi": 82,
      "hit": false,
      "t": 204516.71850002324,
      "d": 5.296604166680481,
      "v": 1
    },
    {
      "midi": 74,
      "hit": false,
      "t": 204516.71850002324,
      "d": 31.779625000082888,
      "v": 93
    },
    {
      "midi": 42,
      "hit": false,
      "t": 204522.01510418992,
      "d": 5.296604166680481,
      "v": 35
    },
    {
      "midi": 69,
      "hit": false,
      "t": 204522.01510418992,
      "d": 58.26264583342709,
      "v": 110
    },
    {
      "midi": 61,
      "hit": false,
      "t": 204527.3117083566,
      "d": 5.296604166680481,
      "v": 65
    },
    {
      "midi": 43,
      "hit": false,
      "t": 204527.3117083566,
      "d": 52.966041666746605,
      "v": 100
    },
    {
      "midi": 55,
      "hit": false,
      "t": 204527.3117083566,
      "d": 52.966041666746605,
      "v": 100
    },
    {
      "midi": 77,
      "hit": false,
      "t": 204537.90491668996,
      "d": 5.296604166680481,
      "v": 52
    },
    {
      "midi": 45,
      "hit": false,
      "t": 204537.90491668996,
      "d": 58.26264583339798,
      "v": 100
    },
    {
      "midi": 57,
      "hit": false,
      "t": 204537.90491668996,
      "d": 58.26264583339798,
      "v": 100
    },
    {
      "midi": 47,
      "hit": false,
      "t": 204559.0913333567,
      "d": 90.04227083339356,
      "v": 100
    },
    {
      "midi": 59,
      "hit": false,
      "t": 204559.0913333567,
      "d": 90.04227083339356,
      "v": 100
    },
    {
      "midi": 45,
      "hit": false,
      "t": 204622.6505833567,
      "d": 68.85585416672984,
      "v": 100
    },
    {
      "midi": 57,
      "hit": false,
      "t": 204622.6505833567,
      "d": 68.85585416672984,
      "v": 100
    },
    {
      "midi": 98,
      "hit": false,
      "t": 204638.54039585672,
      "d": 10.593208333360963,
      "v": 117
    },
    {
      "midi": 102,
      "hit": false,
      "t": 204638.54039585672,
      "d": 10.593208333360963,
      "v": 82
    },
    {
      "midi": 105,
      "hit": false,
      "t": 204638.54039585672,
      "d": 10.593208333360963,
      "v": 92
    },
    {
      "midi": 42,
      "hit": false,
      "t": 204643.8370000234,
      "d": 5.296604166680481,
      "v": 92
    },
    {
      "midi": 61,
      "hit": false,
      "t": 204643.8370000234,
      "d": 5.296604166680481,
      "v": 74
    },
    {
      "midi": 77,
      "hit": false,
      "t": 204643.8370000234,
      "d": 5.296604166680481,
      "v": 14
    },
    {
      "midi": 82,
      "hit": false,
      "t": 204643.8370000234,
      "d": 5.296604166680481,
      "v": 9
    },
    {
      "midi": 74,
      "hit": false,
      "t": 204643.8370000234,
      "d": 31.77962500002468,
      "v": 99
    },
    {
      "midi": 43,
      "hit": false,
      "t": 204643.8370000234,
      "d": 63.55925000004936,
      "v": 100
    },
    {
      "midi": 55,
      "hit": false,
      "t": 204643.8370000234,
      "d": 63.55925000004936,
      "v": 100
    },
    {
      "midi": 69,
      "hit": false,
      "t": 204654.43020835676,
      "d": 52.9660416666884,
      "v": 95
    },
    {
      "midi": 41,
      "hit": false,
      "t": 204654.43020835676,
      "d": 79.4490625000617,
      "v": 100
    },
    {
      "midi": 53,
      "hit": false,
      "t": 204654.43020835676,
      "d": 79.4490625000617,
      "v": 100
    },
    {
      "midi": 40,
      "hit": false,
      "t": 204675.61662502342,
      "d": 63.559250000078464,
      "v": 100
    },
    {
      "midi": 52,
      "hit": false,
      "t": 204675.61662502342,
      "d": 63.559250000078464,
      "v": 100
    },
    {
      "midi": 50,
      "hit": false,
      "t": 204696.80304169012,
      "d": 26.4830208333442,
      "v": 100
    },
    {
      "midi": 38,
      "hit": false,
      "t": 204696.80304169012,
      "d": 52.9660416667175,
      "v": 100
    },
    {
      "midi": 36,
      "hit": false,
      "t": 204707.39625002345,
      "d": 74.15245833341032,
      "v": 100
    },
    {
      "midi": 48,
      "hit": false,
      "t": 204707.39625002345,
      "d": 74.15245833341032,
      "v": 100
    },
    {
      "midi": 35,
      "hit": false,
      "t": 204728.58266669014,
      "d": 52.9660416667175,
      "v": 100
    },
    {
      "midi": 47,
      "hit": false,
      "t": 204728.58266669014,
      "d": 52.9660416667175,
      "v": 100
    },
    {
      "midi": 33,
      "hit": false,
      "t": 204749.76908335683,
      "d": 68.85585416675895,
      "v": 100
    },
    {
      "midi": 45,
      "hit": false,
      "t": 204749.76908335683,
      "d": 68.85585416675895,
      "v": 100
    },
    {
      "midi": 69,
      "hit": false,
      "t": 204760.36229169017,
      "d": 84.74566666680039,
      "v": 93
    },
    {
      "midi": 82,
      "hit": false,
      "t": 204770.9555000235,
      "d": 5.296604166680481,
      "v": 36
    },
    {
      "midi": 74,
      "hit": false,
      "t": 204770.9555000235,
      "d": 31.779625000082888,
      "v": 48
    },
    {
      "midi": 31,
      "hit": false,
      "t": 204770.9555000235,
      "d": 58.26264583345619,
      "v": 100
    },
    {
      "midi": 43,
      "hit": false,
      "t": 204770.9555000235,
      "d": 58.26264583345619,
      "v": 100
    },
    {
      "midi": 50,
      "hit": false,
      "t": 204770.9555000235,
      "d": 95.33887500013225,
      "v": 65
    },
    {
      "midi": 42,
      "hit": false,
      "t": 204776.25210419018,
      "d": 5.296604166680481,
      "v": 38
    },
    {
      "midi": 61,
      "hit": false,
      "t": 204781.54870835686,
      "d": 5.296604166680481,
      "v": 51
    },
    {
      "midi": 29,
      "hit": false,
      "t": 204781.54870835686,
      "d": 52.96604166677571,
      "v": 100
    },
    {
      "midi": 41,
      "hit": false,
      "t": 204781.54870835686,
      "d": 52.96604166677571,
      "v": 100
    },
    {
      "midi": 77,
      "hit": false,
      "t": 204792.14191669022,
      "d": 5.296604166680481,
      "v": 57
    },
    {
      "midi": 28,
      "hit": false,
      "t": 204802.73512502358,
      "d": 52.9660416667175,
      "v": 100
    },
    {
      "midi": 40,
      "hit": false,
      "t": 204802.73512502358,
      "d": 52.9660416667175,
      "v": 100
    },
    {
      "midi": 38,
      "hit": false,
      "t": 204823.92154169027,
      "d": 52.9660416666884,
      "v": 100
    },
    {
      "midi": 26,
      "hit": false,
      "t": 204823.92154169027,
      "d": 63.559250000020256,
      "v": 100
    },
    {
      "midi": 24,
      "hit": false,
      "t": 204845.10795835697,
      "d": 68.85585416670074,
      "v": 100
    },
    {
      "midi": 36,
      "hit": false,
      "t": 204845.10795835697,
      "d": 68.85585416670074,
      "v": 100
    },
    {
      "midi": 23,
      "hit": false,
      "t": 204855.7011666903,
      "d": 68.85585416672984,
      "v": 100
    },
    {
      "midi": 42,
      "hit": false,
      "t": 204892.77739585697,
      "d": 5.296604166680481,
      "v": 43
    },
    {
      "midi": 40,
      "hit": false,
      "t": 204898.07400002365,
      "d": 5.296604166680481,
      "v": 93
    },
    {
      "midi": 60,
      "hit": false,
      "t": 204898.07400002365,
      "d": 5.296604166680481,
      "v": 68
    },
    {
      "midi": 77,
      "hit": false,
      "t": 204898.07400002365,
      "d": 5.296604166680481,
      "v": 56
    },
    {
      "midi": 82,
      "hit": false,
      "t": 204898.07400002365,
      "d": 5.296604166680481,
      "v": 7
    },
    {
      "midi": 35,
      "hit": false,
      "t": 204898.07400002365,
      "d": 21.18641666669282,
      "v": 120
    },
    {
      "midi": 74,
      "hit": false,
      "t": 204898.07400002365,
      "d": 31.779625000053784,
      "v": 126
    },
    {
      "midi": 86,
      "hit": false,
      "t": 204898.07400002365,
      "d": 74.15245833338122,
      "v": 109
    },
    {
      "midi": 78,
      "hit": false,
      "t": 204898.07400002365,
      "d": 95.33887500004494,
      "v": 104
    },
    {
      "midi": 52,
      "hit": false,
      "t": 204898.07400002365,
      "d": 105.9320833333768,
      "v": 65
    },
    {
      "midi": 21,
      "hit": false,
      "t": 204898.07400002365,
      "d": 238.3471875001269,
      "v": 100
    },
    {
      "midi": 33,
      "hit": false,
      "t": 204898.07400002365,
      "d": 238.3471875001269,
      "v": 100
    },
    {
      "midi": 82,
      "hit": false,
      "t": 205025.1925000237,
      "d": 5.296604166680481,
      "v": 1
    },
    {
      "midi": 52,
      "hit": false,
      "t": 205025.1925000237,
      "d": 5.296604166680481,
      "v": 35
    },
    {
      "midi": 74,
      "hit": false,
      "t": 205025.1925000237,
      "d": 31.779625000082888,
      "v": 121
    },
    {
      "midi": 42,
      "hit": false,
      "t": 205030.48910419038,
      "d": 5.296604166680481,
      "v": 35
    },
    {
      "midi": 61,
      "hit": false,
      "t": 205035.78570835706,
      "d": 5.296604166680481,
      "v": 38
    },
    {
      "midi": 77,
      "hit": false,
      "t": 205046.37891669042,
      "d": 5.296604166680481,
      "v": 63
    },
    {
      "midi": 98,
      "hit": false,
      "t": 205147.0143958571,
      "d": 10.593208333360963,
      "v": 104
    },
    {
      "midi": 102,
      "hit": false,
      "t": 205147.0143958571,
      "d": 10.593208333360963,
      "v": 69
    },
    {
      "midi": 105,
      "hit": false,
      "t": 205147.0143958571,
      "d": 10.593208333360963,
      "v": 79
    },
    {
      "midi": 42,
      "hit": false,
      "t": 205152.3110000238,
      "d": 5.296604166680481,
      "v": 92
    },
    {
      "midi": 61,
      "hit": false,
      "t": 205152.3110000238,
      "d": 5.296604166680481,
      "v": 62
    },
    {
      "midi": 77,
      "hit": false,
      "t": 205152.3110000238,
      "d": 5.296604166680481,
      "v": 15
    },
    {
      "midi": 82,
      "hit": false,
      "t": 205152.3110000238,
      "d": 5.296604166680481,
      "v": 9
    },
    {
      "midi": 74,
      "hit": false,
      "t": 205152.3110000238,
      "d": 31.77962500002468,
      "v": 104
    },
    {
      "midi": 95,
      "hit": false,
      "t": 205152.3110000238,
      "d": 79.4490625000326,
      "v": 107
    },
    {
      "midi": 79,
      "hit": false,
      "t": 205152.3110000238,
      "d": 90.04227083336446,
      "v": 90
    },
    {
      "midi": 83,
      "hit": false,
      "t": 205152.3110000238,
      "d": 90.04227083336446,
      "v": 110
    },
    {
      "midi": 54,
      "hit": false,
      "t": 205152.3110000238,
      "d": 227.75397916682414,
      "v": 79
    },
    {
      "midi": 38,
      "hit": false,
      "t": 205279.42950002383,
      "d": 5.296604166680481,
      "v": 40
    },
    {
      "midi": 82,
      "hit": false,
      "t": 205279.42950002383,
      "d": 5.296604166680481,
      "v": 36
    },
    {
      "midi": 74,
      "hit": false,
      "t": 205279.42950002383,
      "d": 31.779625000082888,
      "v": 69
    },
    {
      "midi": 42,
      "hit": false,
      "t": 205284.72610419051,
      "d": 5.296604166680481,
      "v": 38
    },
    {
      "midi": 61,
      "hit": false,
      "t": 205290.0227083572,
      "d": 5.296604166680481,
      "v": 75
    },
    {
      "midi": 77,
      "hit": false,
      "t": 205300.61591669056,
      "d": 5.296604166680481,
      "v": 60
    },
    {
      "midi": 38,
      "hit": false,
      "t": 205321.80233335725,
      "d": 5.296604166680481,
      "v": 40
    },
    {
      "midi": 38,
      "hit": false,
      "t": 205364.1751666906,
      "d": 5.296604166680481,
      "v": 40
    },
    {
      "midi": 42,
      "hit": false,
      "t": 205401.25139585728,
      "d": 5.296604166680481,
      "v": 58
    },
    {
      "midi": 98,
      "hit": false,
      "t": 205401.25139585728,
      "d": 10.593208333360963,
      "v": 94
    },
    {
      "midi": 100,
      "hit": false,
      "t": 205401.25139585728,
      "d": 10.593208333360963,
      "v": 78
    },
    {
      "midi": 105,
      "hit": false,
      "t": 205401.25139585728,
      "d": 10.593208333360963,
      "v": 88
    },
    {
      "midi": 38,
      "hit": false,
      "t": 205406.54800002396,
      "d": 5.296604166680481,
      "v": 40
    },
    {
      "midi": 61,
      "hit": false,
      "t": 205406.54800002396,
      "d": 5.296604166680481,
      "v": 67
    },
    {
      "midi": 77,
      "hit": false,
      "t": 205406.54800002396,
      "d": 5.296604166680481,
      "v": 65
    },
    {
      "midi": 82,
      "hit": false,
      "t": 205406.54800002396,
      "d": 5.296604166680481,
      "v": 7
    },
    {
      "midi": 74,
      "hit": false,
      "t": 205406.54800002396,
      "d": 31.77962500002468,
      "v": 98
    },
    {
      "midi": 93,
      "hit": false,
      "t": 205406.54800002396,
      "d": 397.2453125002212,
      "v": 96
    },
    {
      "midi": 78,
      "hit": false,
      "t": 205406.54800002396,
      "d": 503.177395833598,
      "v": 90
    },
    {
      "midi": 81,
      "hit": false,
      "t": 205406.54800002396,
      "d": 503.177395833598,
      "v": 110
    },
    {
      "midi": 35,
      "hit": false,
      "t": 205417.14120835732,
      "d": 63.55924999999115,
      "v": 80
    },
    {
      "midi": 47,
      "hit": false,
      "t": 205417.14120835732,
      "d": 127.11850000004051,
      "v": 64
    },
    {
      "midi": 23,
      "hit": false,
      "t": 205417.14120835732,
      "d": 238.3471875000978,
      "v": 100
    },
    {
      "midi": 98,
      "hit": false,
      "t": 205528.36989585732,
      "d": 10.593208333360963,
      "v": 70
    },
    {
      "midi": 100,
      "hit": false,
      "t": 205528.36989585732,
      "d": 10.593208333360963,
      "v": 54
    },
    {
      "midi": 105,
      "hit": false,
      "t": 205528.36989585732,
      "d": 10.593208333360963,
      "v": 64
    },
    {
      "midi": 82,
      "hit": false,
      "t": 205533.666500024,
      "d": 5.296604166680481,
      "v": 1
    },
    {
      "midi": 74,
      "hit": false,
      "t": 205533.666500024,
      "d": 31.779625000082888,
      "v": 81
    },
    {
      "midi": 42,
      "hit": false,
      "t": 205538.96310419068,
      "d": 5.296604166680481,
      "v": 37
    },
    {
      "midi": 61,
      "hit": false,
      "t": 205544.25970835736,
      "d": 5.296604166680481,
      "v": 65
    },
    {
      "midi": 77,
      "hit": false,
      "t": 205554.85291669072,
      "d": 5.296604166680481,
      "v": 64
    },
    {
      "midi": 42,
      "hit": false,
      "t": 205660.7850000241,
      "d": 5.296604166680481,
      "v": 77
    },
    {
      "midi": 61,
      "hit": false,
      "t": 205660.7850000241,
      "d": 5.296604166680481,
      "v": 74
    },
    {
      "midi": 77,
      "hit": false,
      "t": 205660.7850000241,
      "d": 5.296604166680481,
      "v": 13
    },
    {
      "midi": 82,
      "hit": false,
      "t": 205660.7850000241,
      "d": 5.296604166680481,
      "v": 9
    },
    {
      "midi": 74,
      "hit": false,
      "t": 205660.7850000241,
      "d": 31.77962500002468,
      "v": 104
    },
    {
      "midi": 47,
      "hit": false,
      "t": 205671.37820835746,
      "d": 127.11850000004051,
      "v": 64
    },
    {
      "midi": 35,
      "hit": false,
      "t": 205671.37820835746,
      "d": 233.0505833334173,
      "v": 80
    },
    {
      "midi": 23,
      "hit": false,
      "t": 205671.37820835746,
      "d": 238.3471875000978,
      "v": 100
    },
    {
      "midi": 98,
      "hit": false,
      "t": 205782.60689585746,
      "d": 10.593208333360963,
      "v": 97
    },
    {
      "midi": 100,
      "hit": false,
      "t": 205782.60689585746,
      "d": 10.593208333360963,
      "v": 81
    },
    {
      "midi": 105,
      "hit": false,
      "t": 205782.60689585746,
      "d": 10.593208333360963,
      "v": 91
    },
    {
      "midi": 82,
      "hit": false,
      "t": 205787.90350002414,
      "d": 5.296604166680481,
      "v": 36
    },
    {
      "midi": 74,
      "hit": false,
      "t": 205787.90350002414,
      "d": 31.779625000082888,
      "v": 49
    },
    {
      "midi": 42,
      "hit": false,
      "t": 205793.20010419082,
      "d": 5.296604166680481,
      "v": 38
    },
    {
      "midi": 61,
      "hit": false,
      "t": 205798.4967083575,
      "d": 5.296604166680481,
      "v": 44
    },
    {
      "midi": 77,
      "hit": false,
      "t": 205809.08991669086,
      "d": 5.296604166680481,
      "v": 59
    },
    {
      "midi": 42,
      "hit": false,
      "t": 205909.72539585756,
      "d": 5.296604166680481,
      "v": 67
    },
    {
      "midi": 40,
      "hit": false,
      "t": 205915.02200002424,
      "d": 5.296604166680481,
      "v": 93
    },
    {
      "midi": 60,
      "hit": false,
      "t": 205915.02200002424,
      "d": 5.296604166680481,
      "v": 68
    },
    {
      "midi": 77,
      "hit": false,
      "t": 205915.02200002424,
      "d": 5.296604166680481,
      "v": 57
    },
    {
      "midi": 82,
      "hit": false,
      "t": 205915.02200002424,
      "d": 5.296604166680481,
      "v": 7
    },
    {
      "midi": 74,
      "hit": false,
      "t": 205915.02200002424,
      "d": 31.77962500002468,
      "v": 108
    },
    {
      "midi": 35,
      "hit": false,
      "t": 205915.02200002424,
      "d": 74.15245833335212,
      "v": 120
    },
    {
      "midi": 79,
      "hit": false,
      "t": 205915.02200002424,
      "d": 291.3132291668153,
      "v": 107
    },
    {
      "midi": 83,
      "hit": false,
      "t": 205915.02200002424,
      "d": 291.3132291668153,
      "v": 127
    },
    {
      "midi": 95,
      "hit": false,
      "t": 205915.02200002424,
      "d": 376.05889583349926,
      "v": 104
    },
    {
      "midi": 49,
      "hit": false,
      "t": 205925.6152083576,
      "d": 116.52529166665045,
      "v": 65
    },
    {
      "midi": 37,
      "hit": false,
      "t": 205925.6152083576,
      "d": 360.1690833334578,
      "v": 80
    },
    {
      "midi": 25,
      "hit": false,
      "t": 205925.6152083576,
      "d": 365.4656875001383,
      "v": 100
    },
    {
      "midi": 82,
      "hit": false,
      "t": 206042.14050002425,
      "d": 5.296604166680481,
      "v": 1
    },
    {
      "midi": 74,
      "hit": false,
      "t": 206042.14050002425,
      "d": 31.779625000082888,
      "v": 98
    },
    {
      "midi": 42,
      "hit": false,
      "t": 206047.43710419093,
      "d": 5.296604166680481,
      "v": 43
    },
    {
      "midi": 61,
      "hit": false,
      "t": 206052.7337083576,
      "d": 5.296604166680481,
      "v": 38
    },
    {
      "midi": 77,
      "hit": false,
      "t": 206063.32691669097,
      "d": 5.296604166680481,
      "v": 60
    },
    {
      "midi": 98,
      "hit": false,
      "t": 206163.96239585767,
      "d": 10.593208333360963,
      "v": 105
    },
    {
      "midi": 102,
      "hit": false,
      "t": 206163.96239585767,
      "d": 10.593208333360963,
      "v": 70
    },
    {
      "midi": 105,
      "hit": false,
      "t": 206163.96239585767,
      "d": 10.593208333360963,
      "v": 80
    },
    {
      "midi": 42,
      "hit": false,
      "t": 206169.25900002435,
      "d": 5.296604166680481,
      "v": 69
    },
    {
      "midi": 61,
      "hit": false,
      "t": 206169.25900002435,
      "d": 5.296604166680481,
      "v": 71
    },
    {
      "midi": 77,
      "hit": false,
      "t": 206169.25900002435,
      "d": 5.296604166680481,
      "v": 13
    },
    {
      "midi": 82,
      "hit": false,
      "t": 206169.25900002435,
      "d": 5.296604166680481,
      "v": 9
    },
    {
      "midi": 74,
      "hit": false,
      "t": 206169.25900002435,
      "d": 31.77962500002468,
      "v": 104
    },
    {
      "midi": 49,
      "hit": false,
      "t": 206179.8522083577,
      "d": 116.52529166670865,
      "v": 65
    },
    {
      "midi": 40,
      "hit": false,
      "t": 206296.37750002442,
      "d": 5.296604166680481,
      "v": 93
    },
    {
      "midi": 42,
      "hit": false,
      "t": 206296.37750002442,
      "d": 5.296604166680481,
      "v": 69
    },
    {
      "midi": 82,
      "hit": false,
      "t": 206296.37750002442,
      "d": 5.296604166680481,
      "v": 36
    },
    {
      "midi": 74,
      "hit": false,
      "t": 206296.37750002442,
      "d": 31.779625000082888,
      "v": 84
    },
    {
      "midi": 69,
      "hit": false,
      "t": 206296.37750002442,
      "d": 121.82189583341824,
      "v": 106
    },
    {
      "midi": 61,
      "hit": false,
      "t": 206306.97070835778,
      "d": 5.296604166680481,
      "v": 69
    },
    {
      "midi": 86,
      "hit": false,
      "t": 206306.97070835778,
      "d": 105.9320833333768,
      "v": 98
    },
    {
      "midi": 38,
      "hit": false,
      "t": 206306.97070835778,
      "d": 105.9320833333768,
      "v": 80
    },
    {
      "midi": 26,
      "hit": false,
      "t": 206306.97070835778,
      "d": 111.22868750005728,
      "v": 100
    },
    {
      "midi": 77,
      "hit": false,
      "t": 206317.56391669114,
      "d": 5.296604166680481,
      "v": 50
    },
    {
      "midi": 50,
      "hit": false,
      "t": 206328.1571250245,
      "d": 74.15245833332301,
      "v": 113
    },
    {
      "midi": 62,
      "hit": false,
      "t": 206328.1571250245,
      "d": 100.63547916669631,
      "v": 113
    },
    {
      "midi": 42,
      "hit": false,
      "t": 206418.19939585784,
      "d": 5.296604166680481,
      "v": 43
    },
    {
      "midi": 61,
      "hit": false,
      "t": 206423.49600002452,
      "d": 5.296604166680481,
      "v": 67
    },
    {
      "midi": 77,
      "hit": false,
      "t": 206423.49600002452,
      "d": 5.296604166680481,
      "v": 58
    },
    {
      "midi": 82,
      "hit": false,
      "t": 206423.49600002452,
      "d": 5.296604166680481,
      "v": 7
    },
    {
      "midi": 74,
      "hit": false,
      "t": 206423.49600002452,
      "d": 31.77962500002468,
      "v": 110
    },
    {
      "midi": 35,
      "hit": false,
      "t": 206423.49600002452,
      "d": 74.15245833335212,
      "v": 120
    },
    {
      "midi": 82,
      "hit": false,
      "t": 206550.61450002453,
      "d": 5.296604166680481,
      "v": 1
    },
    {
      "midi": 74,
      "hit": false,
      "t": 206550.61450002453,
      "d": 31.779625000082888,
      "v": 93
    },
    {
      "midi": 38,
      "hit": false,
      "t": 206550.61450002453,
      "d": 243.64379166680737,
      "v": 89
    },
    {
      "midi": 26,
      "hit": false,
      "t": 206550.61450002453,
      "d": 248.94039583348786,
      "v": 109
    },
    {
      "midi": 42,
      "hit": false,
      "t": 206555.9111041912,
      "d": 5.296604166680481,
      "v": 35
    },
    {
      "midi": 61,
      "hit": false,
      "t": 206561.2077083579,
      "d": 5.296604166680481,
      "v": 65
    },
    {
      "midi": 86,
      "hit": false,
      "t": 206561.2077083579,
      "d": 68.85585416672984,
      "v": 107
    },
    {
      "midi": 77,
      "hit": false,
      "t": 206571.80091669125,
      "d": 5.296604166680481,
      "v": 52
    },
    {
      "midi": 50,
      "hit": false,
      "t": 206582.3941250246,
      "d": 68.85585416667163,
      "v": 113
    },
    {
      "midi": 62,
      "hit": false,
      "t": 206582.3941250246,
      "d": 68.85585416667163,
      "v": 113
    },
    {
      "midi": 98,
      "hit": false,
      "t": 206672.43639585795,
      "d": 10.593208333360963,
      "v": 117
    },
    {
      "midi": 102,
      "hit": false,
      "t": 206672.43639585795,
      "d": 10.593208333360963,
      "v": 82
    },
    {
      "midi": 105,
      "hit": false,
      "t": 206672.43639585795,
      "d": 10.593208333360963,
      "v": 92
    },
    {
      "midi": 42,
      "hit": false,
      "t": 206677.73300002463,
      "d": 5.296604166680481,
      "v": 92
    },
    {
      "midi": 61,
      "hit": false,
      "t": 206677.73300002463,
      "d": 5.296604166680481,
      "v": 74
    },
    {
      "midi": 77,
      "hit": false,
      "t": 206677.73300002463,
      "d": 5.296604166680481,
      "v": 14
    },
    {
      "midi": 82,
      "hit": false,
      "t": 206677.73300002463,
      "d": 5.296604166680481,
      "v": 9
    },
    {
      "midi": 74,
      "hit": false,
      "t": 206677.73300002463,
      "d": 31.77962500002468,
      "v": 99
    },
    {
      "midi": 69,
      "hit": false,
      "t": 206677.73300002463,
      "d": 248.94039583354606,
      "v": 85
    },
    {
      "midi": 82,
      "hit": false,
      "t": 206804.8515000247,
      "d": 5.296604166680481,
      "v": 36
    },
    {
      "midi": 74,
      "hit": false,
      "t": 206804.8515000247,
      "d": 31.779625000082888,
      "v": 48
    },
    {
      "midi": 50,
      "hit": false,
      "t": 206804.8515000247,
      "d": 79.4490625000908,
      "v": 65
    },
    {
      "midi": 62,
      "hit": false,
      "t": 206804.8515000247,
      "d": 79.4490625000908,
      "v": 100
    },
    {
      "midi": 38,
      "hit": false,
      "t": 206804.8515000247,
      "d": 100.63547916678363,
      "v": 80
    },
    {
      "midi": 26,
      "hit": false,
      "t": 206804.8515000247,
      "d": 105.9320833334641,
      "v": 100
    },
    {
      "midi": 42,
      "hit": false,
      "t": 206810.14810419138,
      "d": 5.296604166680481,
      "v": 38
    },
    {
      "midi": 61,
      "hit": false,
      "t": 206815.44470835806,
      "d": 5.296604166680481,
      "v": 51
    },
    {
      "midi": 86,
      "hit": false,
      "t": 206815.44470835806,
      "d": 63.55925000004936,
      "v": 111
    },
    {
      "midi": 77,
      "hit": false,
      "t": 206826.03791669142,
      "d": 5.296604166680481,
      "v": 57
    },
    {
      "midi": 94,
      "hit": false,
      "t": 206910.78358335816,
      "d": 26.483020833373303,
      "v": 95
    },
    {
      "midi": 42,
      "hit": false,
      "t": 206926.67339585818,
      "d": 5.296604166680481,
      "v": 43
    },
    {
      "midi": 40,
      "hit": false,
      "t": 206931.97000002486,
      "d": 5.296604166680481,
      "v": 93
    },
    {
      "midi": 60,
      "hit": false,
      "t": 206931.97000002486,
      "d": 5.296604166680481,
      "v": 68
    },
    {
      "midi": 77,
      "hit": false,
      "t": 206931.97000002486,
      "d": 5.296604166680481,
      "v": 56
    },
    {
      "midi": 82,
      "hit": false,
      "t": 206931.97000002486,
      "d": 5.296604166680481,
      "v": 7
    },
    {
      "midi": 74,
      "hit": false,
      "t": 206931.97000002486,
      "d": 31.77962500002468,
      "v": 126
    },
    {
      "midi": 35,
      "hit": false,
      "t": 206931.97000002486,
      "d": 74.15245833338122,
      "v": 120
    },
    {
      "midi": 52,
      "hit": false,
      "t": 206931.97000002486,
      "d": 105.9320833333768,
      "v": 65
    },
    {
      "midi": 28,
      "hit": false,
      "t": 206931.97000002486,
      "d": 248.94039583345875,
      "v": 100
    },
    {
      "midi": 79,
      "hit": false,
      "t": 206931.97000002486,
      "d": 513.770604166988,
      "v": 91
    },
    {
      "midi": 58,
      "hit": false,
      "t": 206942.56320835822,
      "d": 26.4830208333442,
      "v": 113
    },
    {
      "midi": 70,
      "hit": false,
      "t": 206942.56320835822,
      "d": 26.4830208333442,
      "v": 113
    },
    {
      "midi": 59,
      "hit": false,
      "t": 206942.56320835822,
      "d": 376.05889583349926,
      "v": 67
    },
    {
      "midi": 71,
      "hit": false,
      "t": 206942.56320835822,
      "d": 376.05889583349926,
      "v": 67
    },
    {
      "midi": 95,
      "hit": false,
      "t": 206942.56320835822,
      "d": 434.32154166689725,
      "v": 105
    },
    {
      "midi": 83,
      "hit": false,
      "t": 206995.5292500249,
      "d": 195.97435416677035,
      "v": 108
    },
    {
      "midi": 82,
      "hit": false,
      "t": 207059.0885000249,
      "d": 5.296604166680481,
      "v": 1
    },
    {
      "midi": 52,
      "hit": false,
      "t": 207059.0885000249,
      "d": 5.296604166680481,
      "v": 35
    },
    {
      "midi": 74,
      "hit": false,
      "t": 207059.0885000249,
      "d": 31.779625000082888,
      "v": 121
    },
    {
      "midi": 42,
      "hit": false,
      "t": 207064.38510419158,
      "d": 5.296604166680481,
      "v": 35
    },
    {
      "midi": 61,
      "hit": false,
      "t": 207069.68170835826,
      "d": 5.296604166680481,
      "v": 38
    },
    {
      "midi": 77,
      "hit": false,
      "t": 207080.27491669162,
      "d": 5.296604166680481,
      "v": 63
    },
    {
      "midi": 98,
      "hit": false,
      "t": 207180.91039585831,
      "d": 10.593208333360963,
      "v": 104
    },
    {
      "midi": 102,
      "hit": false,
      "t": 207180.91039585831,
      "d": 10.593208333360963,
      "v": 69
    },
    {
      "midi": 105,
      "hit": false,
      "t": 207180.91039585831,
      "d": 10.593208333360963,
      "v": 79
    },
    {
      "midi": 42,
      "hit": false,
      "t": 207186.207000025,
      "d": 5.296604166680481,
      "v": 92
    },
    {
      "midi": 61,
      "hit": false,
      "t": 207186.207000025,
      "d": 5.296604166680481,
      "v": 62
    },
    {
      "midi": 77,
      "hit": false,
      "t": 207186.207000025,
      "d": 5.296604166680481,
      "v": 15
    },
    {
      "midi": 82,
      "hit": false,
      "t": 207186.207000025,
      "d": 5.296604166680481,
      "v": 9
    },
    {
      "midi": 74,
      "hit": false,
      "t": 207186.207000025,
      "d": 31.77962500002468,
      "v": 104
    },
    {
      "midi": 30,
      "hit": false,
      "t": 207186.207000025,
      "d": 90.04227083336446,
      "v": 100
    },
    {
      "midi": 54,
      "hit": false,
      "t": 207186.207000025,
      "d": 217.16077083346318,
      "v": 86
    },
    {
      "midi": 82,
      "hit": false,
      "t": 207313.32550002504,
      "d": 5.296604166680481,
      "v": 36
    },
    {
      "midi": 74,
      "hit": false,
      "t": 207313.32550002504,
      "d": 31.779625000082888,
      "v": 69
    },
    {
      "midi": 42,
      "hit": false,
      "t": 207318.62210419172,
      "d": 5.296604166680481,
      "v": 38
    },
    {
      "midi": 61,
      "hit": false,
      "t": 207323.9187083584,
      "d": 5.296604166680481,
      "v": 75
    },
    {
      "midi": 77,
      "hit": false,
      "t": 207334.51191669176,
      "d": 5.296604166680481,
      "v": 60
    },
    {
      "midi": 56,
      "hit": false,
      "t": 207429.8507916918,
      "d": 21.186416666721925,
      "v": 113
    },
    {
      "midi": 68,
      "hit": false,
      "t": 207429.8507916918,
      "d": 21.186416666721925,
      "v": 113
    },
    {
      "midi": 42,
      "hit": false,
      "t": 207435.14739585848,
      "d": 5.296604166680481,
      "v": 58
    },
    {
      "midi": 98,
      "hit": false,
      "t": 207435.14739585848,
      "d": 10.593208333360963,
      "v": 94
    },
    {
      "midi": 100,
      "hit": false,
      "t": 207435.14739585848,
      "d": 10.593208333360963,
      "v": 78
    },
    {
      "midi": 105,
      "hit": false,
      "t": 207435.14739585848,
      "d": 10.593208333360963,
      "v": 88
    },
    {
      "midi": 61,
      "hit": false,
      "t": 207440.44400002516,
      "d": 5.296604166680481,
      "v": 67
    },
    {
      "midi": 77,
      "hit": false,
      "t": 207440.44400002516,
      "d": 5.296604166680481,
      "v": 65
    },
    {
      "midi": 82,
      "hit": false,
      "t": 207440.44400002516,
      "d": 5.296604166680481,
      "v": 7
    },
    {
      "midi": 74,
      "hit": false,
      "t": 207440.44400002516,
      "d": 31.77962500002468,
      "v": 98
    },
    {
      "midi": 35,
      "hit": false,
      "t": 207440.44400002516,
      "d": 74.15245833338122,
      "v": 120
    },
    {
      "midi": 47,
      "hit": false,
      "t": 207440.44400002516,
      "d": 180.08454166681622,
      "v": 80
    },
    {
      "midi": 23,
      "hit": false,
      "t": 207440.44400002516,
      "d": 248.94039583348786,
      "v": 100
    },
    {
      "midi": 76,
      "hit": false,
      "t": 207440.44400002516,
      "d": 630.2958958336676,
      "v": 91
    },
    {
      "midi": 93,
      "hit": false,
      "t": 207440.44400002516,
      "d": 715.0415625004389,
      "v": 102
    },
    {
      "midi": 81,
      "hit": false,
      "t": 207451.03720835852,
      "d": 492.5841875002661,
      "v": 127
    },
    {
      "midi": 57,
      "hit": false,
      "t": 207451.03720835852,
      "d": 826.2702500004671,
      "v": 113
    },
    {
      "midi": 69,
      "hit": false,
      "t": 207451.03720835852,
      "d": 826.2702500004671,
      "v": 113
    },
    {
      "midi": 98,
      "hit": false,
      "t": 207562.26589585855,
      "d": 10.593208333360963,
      "v": 70
    },
    {
      "midi": 100,
      "hit": false,
      "t": 207562.26589585855,
      "d": 10.593208333360963,
      "v": 54
    },
    {
      "midi": 105,
      "hit": false,
      "t": 207562.26589585855,
      "d": 10.593208333360963,
      "v": 64
    },
    {
      "midi": 82,
      "hit": false,
      "t": 207567.56250002523,
      "d": 5.296604166680481,
      "v": 1
    },
    {
      "midi": 74,
      "hit": false,
      "t": 207567.56250002523,
      "d": 31.779625000082888,
      "v": 81
    },
    {
      "midi": 42,
      "hit": false,
      "t": 207572.8591041919,
      "d": 5.296604166680481,
      "v": 37
    },
    {
      "midi": 61,
      "hit": false,
      "t": 207578.1557083586,
      "d": 5.296604166680481,
      "v": 65
    },
    {
      "midi": 77,
      "hit": false,
      "t": 207588.74891669195,
      "d": 5.296604166680481,
      "v": 64
    },
    {
      "midi": 42,
      "hit": false,
      "t": 207694.68100002533,
      "d": 5.296604166680481,
      "v": 77
    },
    {
      "midi": 61,
      "hit": false,
      "t": 207694.68100002533,
      "d": 5.296604166680481,
      "v": 74
    },
    {
      "midi": 77,
      "hit": false,
      "t": 207694.68100002533,
      "d": 5.296604166680481,
      "v": 13
    },
    {
      "midi": 82,
      "hit": false,
      "t": 207694.68100002533,
      "d": 5.296604166680481,
      "v": 9
    },
    {
      "midi": 74,
      "hit": false,
      "t": 207694.68100002533,
      "d": 31.77962500002468,
      "v": 104
    },
    {
      "midi": 47,
      "hit": false,
      "t": 207694.68100002533,
      "d": 180.08454166678712,
      "v": 65
    },
    {
      "midi": 35,
      "hit": false,
      "t": 207694.68100002533,
      "d": 243.64379166677827,
      "v": 80
    },
    {
      "midi": 23,
      "hit": false,
      "t": 207694.68100002533,
      "d": 248.94039583345875,
      "v": 100
    },
    {
      "midi": 98,
      "hit": false,
      "t": 207816.5028958587,
      "d": 10.593208333360963,
      "v": 97
    },
    {
      "midi": 100,
      "hit": false,
      "t": 207816.5028958587,
      "d": 10.593208333360963,
      "v": 81
    },
    {
      "midi": 105,
      "hit": false,
      "t": 207816.5028958587,
      "d": 10.593208333360963,
      "v": 91
    },
    {
      "midi": 82,
      "hit": false,
      "t": 207821.79950002537,
      "d": 5.296604166680481,
      "v": 36
    },
    {
      "midi": 74,
      "hit": false,
      "t": 207821.79950002537,
      "d": 31.779625000082888,
      "v": 49
    },
    {
      "midi": 42,
      "hit": false,
      "t": 207827.09610419205,
      "d": 5.296604166680481,
      "v": 38
    },
    {
      "midi": 61,
      "hit": false,
      "t": 207832.39270835873,
      "d": 5.296604166680481,
      "v": 44
    },
    {
      "midi": 77,
      "hit": false,
      "t": 207842.9859166921,
      "d": 5.296604166680481,
      "v": 59
    },
    {
      "midi": 42,
      "hit": false,
      "t": 207943.6213958588,
      "d": 5.296604166680481,
      "v": 67
    },
    {
      "midi": 40,
      "hit": false,
      "t": 207948.91800002547,
      "d": 5.296604166680481,
      "v": 93
    },
    {
      "midi": 60,
      "hit": false,
      "t": 207948.91800002547,
      "d": 5.296604166680481,
      "v": 68
    },
    {
      "midi": 77,
      "hit": false,
      "t": 207948.91800002547,
      "d": 5.296604166680481,
      "v": 57
    },
    {
      "midi": 82,
      "hit": false,
      "t": 207948.91800002547,
      "d": 5.296604166680481,
      "v": 7
    },
    {
      "midi": 74,
      "hit": false,
      "t": 207948.91800002547,
      "d": 31.77962500002468,
      "v": 108
    },
    {
      "midi": 35,
      "hit": false,
      "t": 207948.91800002547,
      "d": 74.15245833335212,
      "v": 120
    },
    {
      "midi": 45,
      "hit": false,
      "t": 207948.91800002547,
      "d": 328.38945833352045,
      "v": 80
    },
    {
      "midi": 33,
      "hit": false,
      "t": 207948.91800002547,
      "d": 370.7622916668479,
      "v": 80
    },
    {
      "midi": 21,
      "hit": false,
      "t": 207948.91800002547,
      "d": 376.05889583352837,
      "v": 100
    },
    {
      "midi": 82,
      "hit": false,
      "t": 208076.0365000255,
      "d": 5.296604166680481,
      "v": 1
    },
    {
      "midi": 74,
      "hit": false,
      "t": 208076.0365000255,
      "d": 31.779625000082888,
      "v": 98
    },
    {
      "midi": 42,
      "hit": false,
      "t": 208081.3331041922,
      "d": 5.296604166680481,
      "v": 43
    },
    {
      "midi": 61,
      "hit": false,
      "t": 208086.62970835887,
      "d": 5.296604166680481,
      "v": 38
    },
    {
      "midi": 77,
      "hit": false,
      "t": 208097.22291669223,
      "d": 5.296604166680481,
      "v": 60
    },
    {
      "midi": 98,
      "hit": false,
      "t": 208197.85839585896,
      "d": 10.593208333360963,
      "v": 105
    },
    {
      "midi": 102,
      "hit": false,
      "t": 208197.85839585896,
      "d": 10.593208333360963,
      "v": 70
    },
    {
      "midi": 105,
      "hit": false,
      "t": 208197.85839585896,
      "d": 10.593208333360963,
      "v": 80
    },
    {
      "midi": 42,
      "hit": false,
      "t": 208203.15500002564,
      "d": 5.296604166680481,
      "v": 69
    },
    {
      "midi": 61,
      "hit": false,
      "t": 208203.15500002564,
      "d": 5.296604166680481,
      "v": 71
    },
    {
      "midi": 77,
      "hit": false,
      "t": 208203.15500002564,
      "d": 5.296604166680481,
      "v": 13
    },
    {
      "midi": 82,
      "hit": false,
      "t": 208203.15500002564,
      "d": 5.296604166680481,
      "v": 9
    },
    {
      "midi": 74,
      "hit": false,
      "t": 208203.15500002564,
      "d": 31.77962500002468,
      "v": 104
    },
    {
      "midi": 42,
      "hit": false,
      "t": 208330.27350002568,
      "d": 5.296604166680481,
      "v": 69
    },
    {
      "midi": 82,
      "hit": false,
      "t": 208330.27350002568,
      "d": 5.296604166680481,
      "v": 36
    },
    {
      "midi": 74,
      "hit": false,
      "t": 208330.27350002568,
      "d": 31.779625000082888,
      "v": 84
    },
    {
      "midi": 50,
      "hit": false,
      "t": 208330.27350002568,
      "d": 95.33887500007404,
      "v": 65
    },
    {
      "midi": 38,
      "hit": false,
      "t": 208330.27350002568,
      "d": 105.9320833334059,
      "v": 80
    },
    {
      "midi": 26,
      "hit": false,
      "t": 208330.27350002568,
      "d": 111.22868750008638,
      "v": 100
    },
    {
      "midi": 61,
      "hit": false,
      "t": 208340.86670835904,
      "d": 5.296604166680481,
      "v": 69
    },
    {
      "midi": 77,
      "hit": false,
      "t": 208351.4599166924,
      "d": 5.296604166680481,
      "v": 50
    },
    {
      "midi": 42,
      "hit": false,
      "t": 208452.0953958591,
      "d": 5.296604166680481,
      "v": 43
    },
    {
      "midi": 61,
      "hit": false,
      "t": 208457.39200002578,
      "d": 5.296604166680481,
      "v": 67
    },
    {
      "midi": 77,
      "hit": false,
      "t": 208457.39200002578,
      "d": 5.296604166680481,
      "v": 58
    },
    {
      "midi": 82,
      "hit": false,
      "t": 208457.39200002578,
      "d": 5.296604166680481,
      "v": 7
    },
    {
      "midi": 74,
      "hit": false,
      "t": 208457.39200002578,
      "d": 31.77962500002468,
      "v": 110
    },
    {
      "midi": 50,
      "hit": false,
      "t": 208457.39200002578,
      "d": 74.15245833335212,
      "v": 104
    },
    {
      "midi": 62,
      "hit": false,
      "t": 208457.39200002578,
      "d": 74.15245833335212,
      "v": 104
    },
    {
      "midi": 35,
      "hit": false,
      "t": 208457.39200002578,
      "d": 74.15245833335212,
      "v": 120
    },
    {
      "midi": 82,
      "hit": false,
      "t": 208584.5105000258,
      "d": 5.296604166680481,
      "v": 1
    },
    {
      "midi": 74,
      "hit": false,
      "t": 208584.5105000258,
      "d": 31.779625000082888,
      "v": 93
    },
    {
      "midi": 76,
      "hit": false,
      "t": 208584.5105000258,
      "d": 79.4490625000908,
      "v": 114
    },
    {
      "midi": 57,
      "hit": false,
      "t": 208584.5105000258,
      "d": 84.74566666677129,
      "v": 91
    },
    {
      "midi": 69,
      "hit": false,
      "t": 208584.5105000258,
      "d": 84.74566666677129,
      "v": 91
    },
    {
      "midi": 50,
      "hit": false,
      "t": 208584.5105000258,
      "d": 206.56756250016042,
      "v": 65
    },
    {
      "midi": 38,
      "hit": false,
      "t": 208584.5105000258,
      "d": 233.05058333353372,
      "v": 80
    },
    {
      "midi": 26,
      "hit": false,
      "t": 208584.5105000258,
      "d": 238.3471875002142,
      "v": 100
    },
    {
      "midi": 42,
      "hit": false,
      "t": 208589.80710419247,
      "d": 5.296604166680481,
      "v": 35
    },
    {
      "midi": 61,
      "hit": false,
      "t": 208595.10370835915,
      "d": 5.296604166680481,
      "v": 65
    },
    {
      "midi": 77,
      "hit": false,
      "t": 208605.6969166925,
      "d": 5.296604166680481,
      "v": 52
    },
    {
      "midi": 98,
      "hit": false,
      "t": 208706.33239585924,
      "d": 10.593208333360963,
      "v": 117
    },
    {
      "midi": 102,
      "hit": false,
      "t": 208706.33239585924,
      "d": 10.593208333360963,
      "v": 82
    },
    {
      "midi": 105,
      "hit": false,
      "t": 208706.33239585924,
      "d": 10.593208333360963,
      "v": 92
    },
    {
      "midi": 42,
      "hit": false,
      "t": 208711.62900002592,
      "d": 5.296604166680481,
      "v": 92
    },
    {
      "midi": 61,
      "hit": false,
      "t": 208711.62900002592,
      "d": 5.296604166680481,
      "v": 74
    },
    {
      "midi": 77,
      "hit": false,
      "t": 208711.62900002592,
      "d": 5.296604166680481,
      "v": 14
    },
    {
      "midi": 82,
      "hit": false,
      "t": 208711.62900002592,
      "d": 5.296604166680481,
      "v": 9
    },
    {
      "midi": 74,
      "hit": false,
      "t": 208711.62900002592,
      "d": 31.77962500002468,
      "v": 99
    },
    {
      "midi": 75,
      "hit": false,
      "t": 208711.62900002592,
      "d": 79.4490625000326,
      "v": 109
    },
    {
      "midi": 57,
      "hit": false,
      "t": 208711.62900002592,
      "d": 100.63547916672542,
      "v": 94
    },
    {
      "midi": 69,
      "hit": false,
      "t": 208711.62900002592,
      "d": 100.63547916672542,
      "v": 94
    },
    {
      "midi": 82,
      "hit": false,
      "t": 208838.74750002602,
      "d": 5.296604166680481,
      "v": 36
    },
    {
      "midi": 74,
      "hit": false,
      "t": 208838.74750002602,
      "d": 31.779625000082888,
      "v": 48
    },
    {
      "midi": 50,
      "hit": false,
      "t": 208838.74750002602,
      "d": 95.33887500010314,
      "v": 65
    },
    {
      "midi": 57,
      "hit": false,
      "t": 208838.74750002602,
      "d": 100.63547916678363,
      "v": 94
    },
    {
      "midi": 69,
      "hit": false,
      "t": 208838.74750002602,
      "d": 100.63547916678363,
      "v": 94
    },
    {
      "midi": 38,
      "hit": false,
      "t": 208838.74750002602,
      "d": 105.9320833334641,
      "v": 80
    },
    {
      "midi": 26,
      "hit": false,
      "t": 208838.74750002602,
      "d": 111.22868750014459,
      "v": 100
    },
    {
      "midi": 42,
      "hit": false,
      "t": 208844.0441041927,
      "d": 5.296604166680481,
      "v": 38
    },
    {
      "midi": 61,
      "hit": false,
      "t": 208849.34070835938,
      "d": 5.296604166680481,
      "v": 51
    },
    {
      "midi": 77,
      "hit": false,
      "t": 208859.93391669274,
      "d": 5.296604166680481,
      "v": 57
    },
    {
      "midi": 42,
      "hit": false,
      "t": 208960.5693958595,
      "d": 5.296604166680481,
      "v": 43
    },
    {
      "midi": 40,
      "hit": false,
      "t": 208965.86600002617,
      "d": 5.296604166680481,
      "v": 93
    },
    {
      "midi": 49,
      "hit": false,
      "t": 208965.86600002617,
      "d": 5.296604166680481,
      "v": 108
    },
    {
      "midi": 60,
      "hit": false,
      "t": 208965.86600002617,
      "d": 5.296604166680481,
      "v": 68
    },
    {
      "midi": 77,
      "hit": false,
      "t": 208965.86600002617,
      "d": 5.296604166680481,
      "v": 56
    },
    {
      "midi": 82,
      "hit": false,
      "t": 208965.86600002617,
      "d": 5.296604166680481,
      "v": 7
    },
    {
      "midi": 74,
      "hit": false,
      "t": 208965.86600002617,
      "d": 31.77962500002468,
      "v": 126
    },
    {
      "midi": 86,
      "hit": false,
      "t": 208965.86600002617,
      "d": 58.26264583336888,
      "v": 108
    },
    {
      "midi": 35,
      "hit": false,
      "t": 208965.86600002617,
      "d": 74.15245833338122,
      "v": 120
    },
    {
      "midi": 78,
      "hit": false,
      "t": 208965.86600002617,
      "d": 95.33887500007404,
      "v": 92
    },
    {
      "midi": 52,
      "hit": false,
      "t": 208965.86600002617,
      "d": 105.9320833334059,
      "v": 82
    },
    {
      "midi": 28,
      "hit": false,
      "t": 208965.86600002617,
      "d": 238.347187500156,
      "v": 100
    },
    {
      "midi": 50,
      "hit": false,
      "t": 208971.16260419285,
      "d": 100.63547916672542,
      "v": 85
    },
    {
      "midi": 62,
      "hit": false,
      "t": 208971.16260419285,
      "d": 100.63547916672542,
      "v": 90
    },
    {
      "midi": 82,
      "hit": false,
      "t": 209092.98450002624,
      "d": 5.296604166680481,
      "v": 1
    },
    {
      "midi": 52,
      "hit": false,
      "t": 209092.98450002624,
      "d": 5.296604166680481,
      "v": 35
    },
    {
      "midi": 74,
      "hit": false,
      "t": 209092.98450002624,
      "d": 31.779625000082888,
      "v": 121
    },
    {
      "midi": 42,
      "hit": false,
      "t": 209098.28110419292,
      "d": 5.296604166680481,
      "v": 35
    },
    {
      "midi": 61,
      "hit": false,
      "t": 209103.5777083596,
      "d": 5.296604166680481,
      "v": 38
    },
    {
      "midi": 77,
      "hit": false,
      "t": 209114.17091669296,
      "d": 5.296604166680481,
      "v": 63
    },
    {
      "midi": 98,
      "hit": false,
      "t": 209214.80639585966,
      "d": 10.593208333360963,
      "v": 104
    },
    {
      "midi": 102,
      "hit": false,
      "t": 209214.80639585966,
      "d": 10.593208333360963,
      "v": 69
    },
    {
      "midi": 105,
      "hit": false,
      "t": 209214.80639585966,
      "d": 10.593208333360963,
      "v": 79
    },
    {
      "midi": 42,
      "hit": false,
      "t": 209220.10300002634,
      "d": 5.296604166680481,
      "v": 92
    },
    {
      "midi": 61,
      "hit": false,
      "t": 209220.10300002634,
      "d": 5.296604166680481,
      "v": 62
    },
    {
      "midi": 77,
      "hit": false,
      "t": 209220.10300002634,
      "d": 5.296604166680481,
      "v": 15
    },
    {
      "midi": 82,
      "hit": false,
      "t": 209220.10300002634,
      "d": 5.296604166680481,
      "v": 9
    },
    {
      "midi": 74,
      "hit": false,
      "t": 209220.10300002634,
      "d": 31.77962500002468,
      "v": 104
    },
    {
      "midi": 95,
      "hit": false,
      "t": 209220.10300002634,
      "d": 68.85585416670074,
      "v": 100
    },
    {
      "midi": 83,
      "hit": false,
      "t": 209220.10300002634,
      "d": 79.4490625000326,
      "v": 112
    },
    {
      "midi": 30,
      "hit": false,
      "t": 209220.10300002634,
      "d": 238.3471875001851,
      "v": 100
    },
    {
      "midi": 79,
      "hit": false,
      "t": 209220.10300002634,
      "d": 248.94039583351696,
      "v": 92
    },
    {
      "midi": 54,
      "hit": false,
      "t": 209230.6962083597,
      "d": 90.04227083333535,
      "v": 85
    },
    {
      "midi": 66,
      "hit": false,
      "t": 209230.6962083597,
      "d": 90.04227083333535,
      "v": 90
    },
    {
      "midi": 38,
      "hit": false,
      "t": 209347.22150002638,
      "d": 5.296604166680481,
      "v": 40
    },
    {
      "midi": 82,
      "hit": false,
      "t": 209347.22150002638,
      "d": 5.296604166680481,
      "v": 36
    },
    {
      "midi": 74,
      "hit": false,
      "t": 209347.22150002638,
      "d": 31.779625000082888,
      "v": 69
    },
    {
      "midi": 42,
      "hit": false,
      "t": 209352.51810419306,
      "d": 5.296604166680481,
      "v": 38
    },
    {
      "midi": 61,
      "hit": false,
      "t": 209357.81470835974,
      "d": 5.296604166680481,
      "v": 75
    },
    {
      "midi": 77,
      "hit": false,
      "t": 209368.4079166931,
      "d": 5.296604166680481,
      "v": 60
    },
    {
      "midi": 38,
      "hit": false,
      "t": 209389.5943333598,
      "d": 5.296604166680481,
      "v": 40
    },
    {
      "midi": 38,
      "hit": false,
      "t": 209431.96716669315,
      "d": 5.296604166680481,
      "v": 40
    },
    {
      "midi": 42,
      "hit": false,
      "t": 209469.04339585986,
      "d": 5.296604166680481,
      "v": 58
    },
    {
      "midi": 98,
      "hit": false,
      "t": 209469.04339585986,
      "d": 10.593208333360963,
      "v": 94
    },
    {
      "midi": 100,
      "hit": false,
      "t": 209469.04339585986,
      "d": 10.593208333360963,
      "v": 78
    },
    {
      "midi": 105,
      "hit": false,
      "t": 209469.04339585986,
      "d": 10.593208333360963,
      "v": 88
    },
    {
      "midi": 38,
      "hit": false,
      "t": 209474.34000002654,
      "d": 5.296604166680481,
      "v": 40
    },
    {
      "midi": 61,
      "hit": false,
      "t": 209474.34000002654,
      "d": 5.296604166680481,
      "v": 67
    },
    {
      "midi": 77,
      "hit": false,
      "t": 209474.34000002654,
      "d": 5.296604166680481,
      "v": 65
    },
    {
      "midi": 82,
      "hit": false,
      "t": 209474.34000002654,
      "d": 5.296604166680481,
      "v": 7
    },
    {
      "midi": 74,
      "hit": false,
      "t": 209474.34000002654,
      "d": 31.779625000053784,
      "v": 98
    },
    {
      "midi": 35,
      "hit": false,
      "t": 209474.34000002654,
      "d": 74.15245833341032,
      "v": 120
    },
    {
      "midi": 78,
      "hit": false,
      "t": 209474.34000002654,
      "d": 503.1773958336562,
      "v": 93
    },
    {
      "midi": 93,
      "hit": false,
      "t": 209474.34000002654,
      "d": 503.1773958336562,
      "v": 99
    },
    {
      "midi": 81,
      "hit": false,
      "t": 209479.63660419322,
      "d": 365.4656875001965,
      "v": 127
    },
    {
      "midi": 45,
      "hit": false,
      "t": 209484.9332083599,
      "d": 158.8981250001525,
      "v": 46
    },
    {
      "midi": 33,
      "hit": false,
      "t": 209484.9332083599,
      "d": 233.05058333347552,
      "v": 80
    },
    {
      "midi": 21,
      "hit": false,
      "t": 209484.9332083599,
      "d": 238.347187500156,
      "v": 100
    },
    {
      "midi": 57,
      "hit": false,
      "t": 209500.8230208599,
      "d": 365.4656875002256,
      "v": 82
    },
    {
      "midi": 69,
      "hit": false,
      "t": 209500.8230208599,
      "d": 365.4656875002256,
      "v": 87
    },
    {
      "midi": 98,
      "hit": false,
      "t": 209596.16189585996,
      "d": 10.593208333360963,
      "v": 70
    },
    {
      "midi": 100,
      "hit": false,
      "t": 209596.16189585996,
      "d": 10.593208333360963,
      "v": 54
    },
    {
      "midi": 105,
      "hit": false,
      "t": 209596.16189585996,
      "d": 10.593208333360963,
      "v": 64
    },
    {
      "midi": 82,
      "hit": false,
      "t": 209601.45850002664,
      "d": 5.296604166680481,
      "v": 1
    },
    {
      "midi": 74,
      "hit": false,
      "t": 209601.45850002664,
      "d": 31.779625000082888,
      "v": 81
    },
    {
      "midi": 42,
      "hit": false,
      "t": 209606.75510419332,
      "d": 5.296604166680481,
      "v": 37
    },
    {
      "midi": 61,
      "hit": false,
      "t": 209612.05170836,
      "d": 5.296604166680481,
      "v": 65
    },
    {
      "midi": 77,
      "hit": false,
      "t": 209622.64491669336,
      "d": 5.296604166680481,
      "v": 64
    },
    {
      "midi": 42,
      "hit": false,
      "t": 209728.57700002674,
      "d": 5.296604166680481,
      "v": 77
    },
    {
      "midi": 61,
      "hit": false,
      "t": 209728.57700002674,
      "d": 5.296604166680481,
      "v": 74
    },
    {
      "midi": 77,
      "hit": false,
      "t": 209728.57700002674,
      "d": 5.296604166680481,
      "v": 13
    },
    {
      "midi": 82,
      "hit": false,
      "t": 209728.57700002674,
      "d": 5.296604166680481,
      "v": 9
    },
    {
      "midi": 74,
      "hit": false,
      "t": 209728.57700002674,
      "d": 31.77962500002468,
      "v": 104
    },
    {
      "midi": 45,
      "hit": false,
      "t": 209739.1702083601,
      "d": 158.8981250000943,
      "v": 46
    },
    {
      "midi": 33,
      "hit": false,
      "t": 209739.1702083601,
      "d": 233.0505833334173,
      "v": 80
    },
    {
      "midi": 21,
      "hit": false,
      "t": 209739.1702083601,
      "d": 238.3471875000978,
      "v": 100
    },
    {
      "midi": 98,
      "hit": false,
      "t": 209850.3988958601,
      "d": 10.593208333360963,
      "v": 97
    },
    {
      "midi": 100,
      "hit": false,
      "t": 209850.3988958601,
      "d": 10.593208333360963,
      "v": 81
    },
    {
      "midi": 105,
      "hit": false,
      "t": 209850.3988958601,
      "d": 10.593208333360963,
      "v": 91
    },
    {
      "midi": 82,
      "hit": false,
      "t": 209855.69550002678,
      "d": 5.296604166680481,
      "v": 36
    },
    {
      "midi": 74,
      "hit": false,
      "t": 209855.69550002678,
      "d": 31.779625000082888,
      "v": 49
    },
    {
      "midi": 42,
      "hit": false,
      "t": 209860.99210419346,
      "d": 5.296604166680481,
      "v": 38
    },
    {
      "midi": 61,
      "hit": false,
      "t": 209866.28870836014,
      "d": 5.296604166680481,
      "v": 44
    },
    {
      "midi": 77,
      "hit": false,
      "t": 209876.8819166935,
      "d": 5.296604166680481,
      "v": 59
    },
    {
      "midi": 42,
      "hit": false,
      "t": 209977.5173958602,
      "d": 5.296604166680481,
      "v": 67
    },
    {
      "midi": 40,
      "hit": false,
      "t": 209982.81400002688,
      "d": 5.296604166680481,
      "v": 93
    },
    {
      "midi": 60,
      "hit": false,
      "t": 209982.81400002688,
      "d": 5.296604166680481,
      "v": 68
    },
    {
      "midi": 77,
      "hit": false,
      "t": 209982.81400002688,
      "d": 5.296604166680481,
      "v": 57
    },
    {
      "midi": 82,
      "hit": false,
      "t": 209982.81400002688,
      "d": 5.296604166680481,
      "v": 7
    },
    {
      "midi": 74,
      "hit": false,
      "t": 209982.81400002688,
      "d": 31.77962500002468,
      "v": 108
    },
    {
      "midi": 95,
      "hit": false,
      "t": 209982.81400002688,
      "d": 418.431729166914,
      "v": 96
    },
    {
      "midi": 79,
      "hit": false,
      "t": 209982.81400002688,
      "d": 503.177395833598,
      "v": 101
    },
    {
      "midi": 59,
      "hit": false,
      "t": 209988.11060419356,
      "d": 349.57587500012596,
      "v": 85
    },
    {
      "midi": 71,
      "hit": false,
      "t": 209988.11060419356,
      "d": 349.57587500012596,
      "v": 90
    },
    {
      "midi": 35,
      "hit": false,
      "t": 209993.40720836024,
      "d": 63.55924999999115,
      "v": 80
    },
    {
      "midi": 23,
      "hit": false,
      "t": 209993.40720836024,
      "d": 238.34718750006869,
      "v": 100
    },
    {
      "midi": 47,
      "hit": false,
      "t": 209993.40720836024,
      "d": 317.7962500001013,
      "v": 65
    },
    {
      "midi": 83,
      "hit": false,
      "t": 209993.40720836024,
      "d": 391.9487083335116,
      "v": 119
    },
    {
      "midi": 82,
      "hit": false,
      "t": 210109.9325000269,
      "d": 5.296604166680481,
      "v": 1
    },
    {
      "midi": 74,
      "hit": false,
      "t": 210109.9325000269,
      "d": 31.779625000082888,
      "v": 98
    },
    {
      "midi": 42,
      "hit": false,
      "t": 210115.22910419357,
      "d": 5.296604166680481,
      "v": 43
    },
    {
      "midi": 61,
      "hit": false,
      "t": 210120.52570836025,
      "d": 5.296604166680481,
      "v": 38
    },
    {
      "midi": 77,
      "hit": false,
      "t": 210131.1189166936,
      "d": 5.296604166680481,
      "v": 60
    },
    {
      "midi": 98,
      "hit": false,
      "t": 210231.7543958603,
      "d": 10.593208333360963,
      "v": 105
    },
    {
      "midi": 102,
      "hit": false,
      "t": 210231.7543958603,
      "d": 10.593208333360963,
      "v": 70
    },
    {
      "midi": 105,
      "hit": false,
      "t": 210231.7543958603,
      "d": 10.593208333360963,
      "v": 80
    },
    {
      "midi": 42,
      "hit": false,
      "t": 210237.051000027,
      "d": 5.296604166680481,
      "v": 69
    },
    {
      "midi": 61,
      "hit": false,
      "t": 210237.051000027,
      "d": 5.296604166680481,
      "v": 71
    },
    {
      "midi": 77,
      "hit": false,
      "t": 210237.051000027,
      "d": 5.296604166680481,
      "v": 13
    },
    {
      "midi": 82,
      "hit": false,
      "t": 210237.051000027,
      "d": 5.296604166680481,
      "v": 9
    },
    {
      "midi": 74,
      "hit": false,
      "t": 210237.051000027,
      "d": 31.77962500002468,
      "v": 104
    },
    {
      "midi": 40,
      "hit": false,
      "t": 210364.16950002703,
      "d": 5.296604166680481,
      "v": 93
    },
    {
      "midi": 42,
      "hit": false,
      "t": 210364.16950002703,
      "d": 5.296604166680481,
      "v": 69
    },
    {
      "midi": 82,
      "hit": false,
      "t": 210364.16950002703,
      "d": 5.296604166680481,
      "v": 36
    },
    {
      "midi": 74,
      "hit": false,
      "t": 210364.16950002703,
      "d": 31.779625000082888,
      "v": 84
    },
    {
      "midi": 50,
      "hit": false,
      "t": 210364.16950002703,
      "d": 105.932083333435,
      "v": 74
    },
    {
      "midi": 38,
      "hit": false,
      "t": 210364.16950002703,
      "d": 116.52529166676686,
      "v": 89
    },
    {
      "midi": 26,
      "hit": false,
      "t": 210364.16950002703,
      "d": 121.82189583344734,
      "v": 109
    },
    {
      "midi": 61,
      "hit": false,
      "t": 210374.7627083604,
      "d": 5.296604166680481,
      "v": 69
    },
    {
      "midi": 77,
      "hit": false,
      "t": 210385.35591669375,
      "d": 5.296604166680481,
      "v": 50
    },
    {
      "midi": 42,
      "hit": false,
      "t": 210485.99139586047,
      "d": 5.296604166680481,
      "v": 43
    },
    {
      "midi": 61,
      "hit": false,
      "t": 210491.28800002715,
      "d": 5.296604166680481,
      "v": 67
    },
    {
      "midi": 77,
      "hit": false,
      "t": 210491.28800002715,
      "d": 5.296604166680481,
      "v": 58
    },
    {
      "midi": 82,
      "hit": false,
      "t": 210491.28800002715,
      "d": 5.296604166680481,
      "v": 7
    },
    {
      "midi": 74,
      "hit": false,
      "t": 210491.28800002715,
      "d": 31.77962500002468,
      "v": 110
    },
    {
      "midi": 35,
      "hit": false,
      "t": 210491.28800002715,
      "d": 74.15245833335212,
      "v": 120
    },
    {
      "midi": 82,
      "hit": false,
      "t": 210618.40650002717,
      "d": 5.296604166680481,
      "v": 1
    },
    {
      "midi": 74,
      "hit": false,
      "t": 210618.40650002717,
      "d": 31.779625000082888,
      "v": 93
    },
    {
      "midi": 50,
      "hit": false,
      "t": 210618.40650002717,
      "d": 217.16077083346318,
      "v": 74
    },
    {
      "midi": 38,
      "hit": false,
      "t": 210618.40650002717,
      "d": 243.64379166680737,
      "v": 89
    },
    {
      "midi": 26,
      "hit": false,
      "t": 210618.40650002717,
      "d": 248.94039583348786,
      "v": 109
    },
    {
      "midi": 42,
      "hit": false,
      "t": 210623.70310419385,
      "d": 5.296604166680481,
      "v": 35
    },
    {
      "midi": 61,
      "hit": false,
      "t": 210628.99970836053,
      "d": 5.296604166680481,
      "v": 65
    },
    {
      "midi": 77,
      "hit": false,
      "t": 210639.5929166939,
      "d": 5.296604166680481,
      "v": 52
    },
    {
      "midi": 98,
      "hit": false,
      "t": 210740.22839586058,
      "d": 10.593208333360963,
      "v": 117
    },
    {
      "midi": 102,
      "hit": false,
      "t": 210740.22839586058,
      "d": 10.593208333360963,
      "v": 82
    },
    {
      "midi": 105,
      "hit": false,
      "t": 210740.22839586058,
      "d": 10.593208333360963,
      "v": 92
    },
    {
      "midi": 42,
      "hit": false,
      "t": 210745.52500002726,
      "d": 5.296604166680481,
      "v": 92
    },
    {
      "midi": 61,
      "hit": false,
      "t": 210745.52500002726,
      "d": 5.296604166680481,
      "v": 74
    },
    {
      "midi": 77,
      "hit": false,
      "t": 210745.52500002726,
      "d": 5.296604166680481,
      "v": 14
    },
    {
      "midi": 82,
      "hit": false,
      "t": 210745.52500002726,
      "d": 5.296604166680481,
      "v": 9
    },
    {
      "midi": 74,
      "hit": false,
      "t": 210745.52500002726,
      "d": 31.77962500002468,
      "v": 99
    },
    {
      "midi": 81,
      "hit": false,
      "t": 210745.52500002726,
      "d": 68.85585416670074,
      "v": 121
    },
    {
      "midi": 93,
      "hit": false,
      "t": 210745.52500002726,
      "d": 243.64379166686558,
      "v": 106
    },
    {
      "midi": 82,
      "hit": false,
      "t": 210872.64350002733,
      "d": 5.296604166680481,
      "v": 36
    },
    {
      "midi": 74,
      "hit": false,
      "t": 210872.64350002733,
      "d": 31.779625000082888,
      "v": 48
    },
    {
      "midi": 50,
      "hit": false,
      "t": 210872.64350002733,
      "d": 90.04227083342266,
      "v": 65
    },
    {
      "midi": 38,
      "hit": false,
      "t": 210872.64350002733,
      "d": 100.63547916678363,
      "v": 80
    },
    {
      "midi": 26,
      "hit": false,
      "t": 210872.64350002733,
      "d": 105.9320833334641,
      "v": 100
    },
    {
      "midi": 81,
      "hit": false,
      "t": 210872.64350002733,
      "d": 121.82189583347645,
      "v": 101
    },
    {
      "midi": 42,
      "hit": false,
      "t": 210877.94010419401,
      "d": 5.296604166680481,
      "v": 38
    },
    {
      "midi": 61,
      "hit": false,
      "t": 210883.2367083607,
      "d": 5.296604166680481,
      "v": 51
    },
    {
      "midi": 77,
      "hit": false,
      "t": 210893.82991669406,
      "d": 5.296604166680481,
      "v": 57
    },
    {
      "midi": 42,
      "hit": false,
      "t": 210994.4653958608,
      "d": 5.296604166680481,
      "v": 43
    },
    {
      "midi": 40,
      "hit": false,
      "t": 210999.7620000275,
      "d": 5.296604166680481,
      "v": 93
    },
    {
      "midi": 60,
      "hit": false,
      "t": 210999.7620000275,
      "d": 5.296604166680481,
      "v": 68
    },
    {
      "midi": 77,
      "hit": false,
      "t": 210999.7620000275,
      "d": 5.296604166680481,
      "v": 56
    },
    {
      "midi": 82,
      "hit": false,
      "t": 210999.7620000275,
      "d": 5.296604166680481,
      "v": 7
    },
    {
      "midi": 74,
      "hit": false,
      "t": 210999.7620000275,
      "d": 31.77962500002468,
      "v": 126
    },
    {
      "midi": 35,
      "hit": false,
      "t": 210999.7620000275,
      "d": 74.15245833335212,
      "v": 120
    },
    {
      "midi": 95,
      "hit": false,
      "t": 210999.7620000275,
      "d": 105.9320833333768,
      "v": 108
    },
    {
      "midi": 52,
      "hit": false,
      "t": 210999.7620000275,
      "d": 105.9320833333768,
      "v": 65
    },
    {
      "midi": 28,
      "hit": false,
      "t": 210999.7620000275,
      "d": 248.94039583348786,
      "v": 100
    },
    {
      "midi": 81,
      "hit": false,
      "t": 210999.7620000275,
      "d": 254.23700000016834,
      "v": 119
    },
    {
      "midi": 82,
      "hit": false,
      "t": 211126.88050002753,
      "d": 5.296604166680481,
      "v": 1
    },
    {
      "midi": 52,
      "hit": false,
      "t": 211126.88050002753,
      "d": 5.296604166680481,
      "v": 65
    },
    {
      "midi": 74,
      "hit": false,
      "t": 211126.88050002753,
      "d": 31.779625000082888,
      "v": 121
    },
    {
      "midi": 42,
      "hit": false,
      "t": 211132.1771041942,
      "d": 5.296604166680481,
      "v": 35
    },
    {
      "midi": 61,
      "hit": false,
      "t": 211137.4737083609,
      "d": 5.296604166680481,
      "v": 38
    },
    {
      "midi": 77,
      "hit": false,
      "t": 211148.06691669425,
      "d": 5.296604166680481,
      "v": 63
    },
    {
      "midi": 98,
      "hit": false,
      "t": 211248.70239586098,
      "d": 10.593208333360963,
      "v": 104
    },
    {
      "midi": 102,
      "hit": false,
      "t": 211248.70239586098,
      "d": 10.593208333360963,
      "v": 69
    },
    {
      "midi": 105,
      "hit": false,
      "t": 211248.70239586098,
      "d": 10.593208333360963,
      "v": 79
    },
    {
      "midi": 42,
      "hit": false,
      "t": 211253.99900002766,
      "d": 5.296604166680481,
      "v": 92
    },
    {
      "midi": 61,
      "hit": false,
      "t": 211253.99900002766,
      "d": 5.296604166680481,
      "v": 62
    },
    {
      "midi": 77,
      "hit": false,
      "t": 211253.99900002766,
      "d": 5.296604166680481,
      "v": 15
    },
    {
      "midi": 82,
      "hit": false,
      "t": 211253.99900002766,
      "d": 5.296604166680481,
      "v": 9
    },
    {
      "midi": 74,
      "hit": false,
      "t": 211253.99900002766,
      "d": 31.77962500002468,
      "v": 104
    },
    {
      "midi": 30,
      "hit": false,
      "t": 211253.99900002766,
      "d": 90.04227083336446,
      "v": 100
    },
    {
      "midi": 78,
      "hit": false,
      "t": 211253.99900002766,
      "d": 121.82189583336003,
      "v": 102
    },
    {
      "midi": 54,
      "hit": false,
      "t": 211253.99900002766,
      "d": 190.67775000011898,
      "v": 85
    },
    {
      "midi": 90,
      "hit": false,
      "t": 211253.99900002766,
      "d": 259.5336041668197,
      "v": 100
    },
    {
      "midi": 82,
      "hit": false,
      "t": 211381.1175000277,
      "d": 5.296604166680481,
      "v": 36
    },
    {
      "midi": 74,
      "hit": false,
      "t": 211381.1175000277,
      "d": 31.779625000082888,
      "v": 69
    },
    {
      "midi": 42,
      "hit": false,
      "t": 211386.41410419438,
      "d": 5.296604166680481,
      "v": 38
    },
    {
      "midi": 61,
      "hit": false,
      "t": 211391.71070836106,
      "d": 5.296604166680481,
      "v": 75
    },
    {
      "midi": 77,
      "hit": false,
      "t": 211402.30391669442,
      "d": 5.296604166680481,
      "v": 60
    },
    {
      "midi": 42,
      "hit": false,
      "t": 211502.93939586112,
      "d": 5.296604166680481,
      "v": 58
    },
    {
      "midi": 98,
      "hit": false,
      "t": 211502.93939586112,
      "d": 10.593208333360963,
      "v": 94
    },
    {
      "midi": 100,
      "hit": false,
      "t": 211502.93939586112,
      "d": 10.593208333360963,
      "v": 78
    },
    {
      "midi": 105,
      "hit": false,
      "t": 211502.93939586112,
      "d": 10.593208333360963,
      "v": 88
    },
    {
      "midi": 61,
      "hit": false,
      "t": 211508.2360000278,
      "d": 5.296604166680481,
      "v": 67
    },
    {
      "midi": 77,
      "hit": false,
      "t": 211508.2360000278,
      "d": 5.296604166680481,
      "v": 65
    },
    {
      "midi": 82,
      "hit": false,
      "t": 211508.2360000278,
      "d": 5.296604166680481,
      "v": 7
    },
    {
      "midi": 35,
      "hit": false,
      "t": 211508.2360000278,
      "d": 74.15245833335212,
      "v": 120
    },
    {
      "midi": 47,
      "hit": false,
      "t": 211508.2360000278,
      "d": 105.93208333334769,
      "v": 65
    },
    {
      "midi": 23,
      "hit": false,
      "t": 211508.2360000278,
      "d": 248.94039583345875,
      "v": 100
    },
    {
      "midi": 62,
      "hit": false,
      "t": 211508.2360000278,
      "d": 248.94039583345875,
      "v": 118
    },
    {
      "midi": 76,
      "hit": false,
      "t": 211508.2360000278,
      "d": 503.1773958336562,
      "v": 110
    },
    {
      "midi": 88,
      "hit": false,
      "t": 211508.2360000278,
      "d": 503.1773958336562,
      "v": 93
    },
    {
      "midi": 98,
      "hit": false,
      "t": 211630.05789586116,
      "d": 10.593208333360963,
      "v": 70
    },
    {
      "midi": 100,
      "hit": false,
      "t": 211630.05789586116,
      "d": 10.593208333360963,
      "v": 54
    },
    {
      "midi": 105,
      "hit": false,
      "t": 211630.05789586116,
      "d": 10.593208333360963,
      "v": 64
    },
    {
      "midi": 40,
      "hit": false,
      "t": 211635.35450002784,
      "d": 5.296604166680481,
      "v": 93
    },
    {
      "midi": 82,
      "hit": false,
      "t": 211635.35450002784,
      "d": 5.296604166680481,
      "v": 1
    },
    {
      "midi": 42,
      "hit": false,
      "t": 211640.65110419452,
      "d": 5.296604166680481,
      "v": 37
    },
    {
      "midi": 61,
      "hit": false,
      "t": 211645.9477083612,
      "d": 5.296604166680481,
      "v": 65
    },
    {
      "midi": 77,
      "hit": false,
      "t": 211656.54091669456,
      "d": 5.296604166680481,
      "v": 64
    },
    {
      "midi": 42,
      "hit": false,
      "t": 211762.47300002794,
      "d": 5.296604166680481,
      "v": 77
    },
    {
      "midi": 61,
      "hit": false,
      "t": 211762.47300002794,
      "d": 5.296604166680481,
      "v": 74
    },
    {
      "midi": 77,
      "hit": false,
      "t": 211762.47300002794,
      "d": 5.296604166680481,
      "v": 13
    },
    {
      "midi": 82,
      "hit": false,
      "t": 211762.47300002794,
      "d": 5.296604166680481,
      "v": 9
    },
    {
      "midi": 47,
      "hit": false,
      "t": 211762.47300002794,
      "d": 217.16077083349228,
      "v": 65
    },
    {
      "midi": 35,
      "hit": false,
      "t": 211762.47300002794,
      "d": 243.64379166683648,
      "v": 80
    },
    {
      "midi": 23,
      "hit": false,
      "t": 211762.47300002794,
      "d": 248.94039583351696,
      "v": 100
    },
    {
      "midi": 98,
      "hit": false,
      "t": 211884.2948958613,
      "d": 10.593208333360963,
      "v": 97
    },
    {
      "midi": 100,
      "hit": false,
      "t": 211884.2948958613,
      "d": 10.593208333360963,
      "v": 81
    },
    {
      "midi": 105,
      "hit": false,
      "t": 211884.2948958613,
      "d": 10.593208333360963,
      "v": 91
    },
    {
      "midi": 82,
      "hit": false,
      "t": 211889.59150002798,
      "d": 5.296604166680481,
      "v": 36
    },
    {
      "midi": 42,
      "hit": false,
      "t": 211894.88810419466,
      "d": 5.296604166680481,
      "v": 38
    },
    {
      "midi": 61,
      "hit": false,
      "t": 211900.18470836134,
      "d": 5.296604166680481,
      "v": 44
    },
    {
      "midi": 77,
      "hit": false,
      "t": 211910.7779166947,
      "d": 5.296604166680481,
      "v": 59
    },
    {
      "midi": 42,
      "hit": false,
      "t": 212011.41339586145,
      "d": 5.296604166680481,
      "v": 67
    },
    {
      "midi": 40,
      "hit": false,
      "t": 212016.71000002814,
      "d": 5.296604166680481,
      "v": 93
    },
    {
      "midi": 60,
      "hit": false,
      "t": 212016.71000002814,
      "d": 5.296604166680481,
      "v": 68
    },
    {
      "midi": 77,
      "hit": false,
      "t": 212016.71000002814,
      "d": 5.296604166680481,
      "v": 57
    },
    {
      "midi": 82,
      "hit": false,
      "t": 212016.71000002814,
      "d": 5.296604166680481,
      "v": 7
    },
    {
      "midi": 35,
      "hit": false,
      "t": 212016.71000002814,
      "d": 74.15245833335212,
      "v": 120
    },
    {
      "midi": 71,
      "hit": false,
      "t": 212016.71000002814,
      "d": 248.94039583345875,
      "v": 70
    },
    {
      "midi": 45,
      "hit": false,
      "t": 212016.71000002814,
      "d": 439.6181458335486,
      "v": 73
    },
    {
      "midi": 83,
      "hit": false,
      "t": 212016.71000002814,
      "d": 460.80456250021234,
      "v": 84
    },
    {
      "midi": 33,
      "hit": false,
      "t": 212016.71000002814,
      "d": 497.8807916668884,
      "v": 80
    },
    {
      "midi": 21,
      "hit": false,
      "t": 212016.71000002814,
      "d": 503.1773958335689,
      "v": 100
    },
    {
      "midi": 82,
      "hit": false,
      "t": 212143.82850002815,
      "d": 5.296604166680481,
      "v": 1
    },
    {
      "midi": 74,
      "hit": false,
      "t": 212143.82850002815,
      "d": 47.66943750009523,
      "v": 119
    },
    {
      "midi": 78,
      "hit": false,
      "t": 212143.82850002815,
      "d": 58.26264583342709,
      "v": 127
    },
    {
      "midi": 90,
      "hit": false,
      "t": 212143.82850002815,
      "d": 58.26264583342709,
      "v": 90
    },
    {
      "midi": 42,
      "hit": false,
      "t": 212149.12510419483,
      "d": 5.296604166680481,
      "v": 43
    },
    {
      "midi": 61,
      "hit": false,
      "t": 212154.4217083615,
      "d": 5.296604166680481,
      "v": 38
    },
    {
      "midi": 77,
      "hit": false,
      "t": 212165.01491669487,
      "d": 5.296604166680481,
      "v": 60
    },
    {
      "midi": 98,
      "hit": false,
      "t": 212265.6503958616,
      "d": 10.593208333360963,
      "v": 105
    },
    {
      "midi": 102,
      "hit": false,
      "t": 212265.6503958616,
      "d": 10.593208333360963,
      "v": 70
    },
    {
      "midi": 105,
      "hit": false,
      "t": 212265.6503958616,
      "d": 10.593208333360963,
      "v": 80
    },
    {
      "midi": 42,
      "hit": false,
      "t": 212270.94700002827,
      "d": 5.296604166680481,
      "v": 69
    },
    {
      "midi": 61,
      "hit": false,
      "t": 212270.94700002827,
      "d": 5.296604166680481,
      "v": 71
    },
    {
      "midi": 77,
      "hit": false,
      "t": 212270.94700002827,
      "d": 5.296604166680481,
      "v": 13
    },
    {
      "midi": 82,
      "hit": false,
      "t": 212270.94700002827,
      "d": 5.296604166680481,
      "v": 9
    },
    {
      "midi": 78,
      "hit": false,
      "t": 212270.94700002827,
      "d": 58.262645833339775,
      "v": 127
    },
    {
      "midi": 90,
      "hit": false,
      "t": 212270.94700002827,
      "d": 58.262645833339775,
      "v": 90
    },
    {
      "midi": 74,
      "hit": false,
      "t": 212270.94700002827,
      "d": 68.85585416667163,
      "v": 98
    },
    {
      "midi": 69,
      "hit": false,
      "t": 212270.94700002827,
      "d": 222.45737500008545,
      "v": 94
    },
    {
      "midi": 40,
      "hit": false,
      "t": 212398.0655000283,
      "d": 5.296604166680481,
      "v": 93
    },
    {
      "midi": 42,
      "hit": false,
      "t": 212398.0655000283,
      "d": 5.296604166680481,
      "v": 69
    },
    {
      "midi": 82,
      "hit": false,
      "t": 212398.0655000283,
      "d": 5.296604166680481,
      "v": 36
    },
    {
      "midi": 74,
      "hit": false,
      "t": 212398.0655000283,
      "d": 79.4490625000617,
      "v": 98
    },
    {
      "midi": 78,
      "hit": false,
      "t": 212398.0655000283,
      "d": 95.33887500007404,
      "v": 122
    },
    {
      "midi": 90,
      "hit": false,
      "t": 212398.0655000283,
      "d": 95.33887500007404,
      "v": 85
    },
    {
      "midi": 61,
      "hit": false,
      "t": 212408.65870836165,
      "d": 5.296604166680481,
      "v": 69
    },
    {
      "midi": 77,
      "hit": false,
      "t": 212419.251916695,
      "d": 5.296604166680481,
      "v": 50
    },
    {
      "midi": 62,
      "hit": false,
      "t": 212477.51456252835,
      "d": 42.37283333335654,
      "v": 73
    },
    {
      "midi": 42,
      "hit": false,
      "t": 212519.8873958617,
      "d": 5.296604166680481,
      "v": 43
    },
    {
      "midi": 49,
      "hit": false,
      "t": 212525.18400002838,
      "d": 5.296604166680481,
      "v": 108
    },
    {
      "midi": 57,
      "hit": false,
      "t": 212525.18400002838,
      "d": 5.296604166680481,
      "v": 108
    },
    {
      "midi": 61,
      "hit": false,
      "t": 212525.18400002838,
      "d": 5.296604166680481,
      "v": 67
    },
    {
      "midi": 77,
      "hit": false,
      "t": 212525.18400002838,
      "d": 5.296604166680481,
      "v": 58
    },
    {
      "midi": 82,
      "hit": false,
      "t": 212525.18400002838,
      "d": 5.296604166680481,
      "v": 7
    },
    {
      "midi": 50,
      "hit": false,
      "t": 212525.18400002838,
      "d": 10.593208333360963,
      "v": 77
    },
    {
      "midi": 74,
      "hit": false,
      "t": 212525.18400002838,
      "d": 31.77962500002468,
      "v": 110
    },
    {
      "midi": 35,
      "hit": false,
      "t": 212525.18400002838,
      "d": 74.15245833335212,
      "v": 120
    },
    {
      "midi": 38,
      "hit": false,
      "t": 212525.18400002838,
      "d": 105.93208333334769,
      "v": 80
    },
    {
      "midi": 26,
      "hit": false,
      "t": 212525.18400002838,
      "d": 111.22868750002817,
      "v": 100
    },
    {
      "midi": 50,
      "hit": false,
      "t": 212620.5228750284,
      "d": 0,
      "v": 57
    },
    {
      "midi": 62,
      "hit": false,
      "t": 212620.5228750284,
      "d": 190.67775000014808,
      "v": 57
    },
    {
      "midi": 82,
      "hit": false,
      "t": 212652.30250002843,
      "d": 5.296604166680481,
      "v": 1
    },
    {
      "midi": 74,
      "hit": false,
      "t": 212652.30250002843,
      "d": 31.779625000082888,
      "v": 93
    },
    {
      "midi": 76,
      "hit": false,
      "t": 212652.30250002843,
      "d": 90.04227083342266,
      "v": 117
    },
    {
      "midi": 50,
      "hit": false,
      "t": 212652.30250002843,
      "d": 158.8981250001234,
      "v": 65
    },
    {
      "midi": 38,
      "hit": false,
      "t": 212652.30250002843,
      "d": 233.05058333347552,
      "v": 80
    },
    {
      "midi": 26,
      "hit": false,
      "t": 212652.30250002843,
      "d": 238.347187500156,
      "v": 100
    },
    {
      "midi": 42,
      "hit": false,
      "t": 212657.5991041951,
      "d": 5.296604166680481,
      "v": 35
    },
    {
      "midi": 61,
      "hit": false,
      "t": 212662.8957083618,
      "d": 5.296604166680481,
      "v": 65
    },
    {
      "midi": 77,
      "hit": false,
      "t": 212673.48891669515,
      "d": 5.296604166680481,
      "v": 52
    },
    {
      "midi": 98,
      "hit": false,
      "t": 212774.12439586184,
      "d": 10.593208333360963,
      "v": 117
    },
    {
      "midi": 102,
      "hit": false,
      "t": 212774.12439586184,
      "d": 10.593208333360963,
      "v": 82
    },
    {
      "midi": 105,
      "hit": false,
      "t": 212774.12439586184,
      "d": 10.593208333360963,
      "v": 92
    },
    {
      "midi": 42,
      "hit": false,
      "t": 212779.42100002852,
      "d": 5.296604166680481,
      "v": 92
    },
    {
      "midi": 61,
      "hit": false,
      "t": 212779.42100002852,
      "d": 5.296604166680481,
      "v": 74
    },
    {
      "midi": 77,
      "hit": false,
      "t": 212779.42100002852,
      "d": 5.296604166680481,
      "v": 14
    },
    {
      "midi": 82,
      "hit": false,
      "t": 212779.42100002852,
      "d": 5.296604166680481,
      "v": 9
    },
    {
      "midi": 74,
      "hit": false,
      "t": 212779.42100002852,
      "d": 31.77962500002468,
      "v": 99
    },
    {
      "midi": 75,
      "hit": false,
      "t": 212779.42100002852,
      "d": 74.15245833335212,
      "v": 117
    },
    {
      "midi": 62,
      "hit": false,
      "t": 212890.64968752858,
      "d": 105.932083333435,
      "v": 58
    },
    {
      "midi": 82,
      "hit": false,
      "t": 212906.5395000286,
      "d": 5.296604166680481,
      "v": 36
    },
    {
      "midi": 74,
      "hit": false,
      "t": 212906.5395000286,
      "d": 31.779625000082888,
      "v": 48
    },
    {
      "midi": 50,
      "hit": false,
      "t": 212906.5395000286,
      "d": 90.04227083342266,
      "v": 65
    },
    {
      "midi": 38,
      "hit": false,
      "t": 212906.5395000286,
      "d": 105.932083333435,
      "v": 80
    },
    {
      "midi": 26,
      "hit": false,
      "t": 212906.5395000286,
      "d": 111.22868750011548,
      "v": 100
    },
    {
      "midi": 42,
      "hit": false,
      "t": 212911.83610419527,
      "d": 5.296604166680481,
      "v": 38
    },
    {
      "midi": 61,
      "hit": false,
      "t": 212917.13270836195,
      "d": 5.296604166680481,
      "v": 51
    },
    {
      "midi": 77,
      "hit": false,
      "t": 212927.72591669532,
      "d": 5.296604166680481,
      "v": 57
    },
    {
      "midi": 64,
      "hit": false,
      "t": 213001.8783750287,
      "d": 105.9320833334059,
      "v": 69
    },
    {
      "midi": 42,
      "hit": false,
      "t": 213028.36139586204,
      "d": 5.296604166680481,
      "v": 43
    },
    {
      "midi": 40,
      "hit": false,
      "t": 213033.65800002872,
      "d": 5.296604166680481,
      "v": 93
    },
    {
      "midi": 60,
      "hit": false,
      "t": 213033.65800002872,
      "d": 5.296604166680481,
      "v": 68
    },
    {
      "midi": 77,
      "hit": false,
      "t": 213033.65800002872,
      "d": 5.296604166680481,
      "v": 56
    },
    {
      "midi": 82,
      "hit": false,
      "t": 213033.65800002872,
      "d": 5.296604166680481,
      "v": 7
    },
    {
      "midi": 74,
      "hit": false,
      "t": 213033.65800002872,
      "d": 31.77962500002468,
      "v": 126
    },
    {
      "midi": 86,
      "hit": false,
      "t": 213033.65800002872,
      "d": 74.15245833338122,
      "v": 109
    },
    {
      "midi": 52,
      "hit": false,
      "t": 213033.65800002872,
      "d": 74.15245833338122,
      "v": 65
    },
    {
      "midi": 35,
      "hit": false,
      "t": 213033.65800002872,
      "d": 74.15245833338122,
      "v": 120
    },
    {
      "midi": 78,
      "hit": false,
      "t": 213033.65800002872,
      "d": 95.33887500004494,
      "v": 103
    },
    {
      "midi": 28,
      "hit": false,
      "t": 213033.65800002872,
      "d": 111.22868750005728,
      "v": 100
    },
    {
      "midi": 82,
      "hit": false,
      "t": 213160.7765000288,
      "d": 5.296604166680481,
      "v": 1
    },
    {
      "midi": 52,
      "hit": false,
      "t": 213160.7765000288,
      "d": 5.296604166680481,
      "v": 65
    },
    {
      "midi": 74,
      "hit": false,
      "t": 213160.7765000288,
      "d": 31.779625000082888,
      "v": 121
    },
    {
      "midi": 42,
      "hit": false,
      "t": 213166.07310419547,
      "d": 5.296604166680481,
      "v": 35
    },
    {
      "midi": 61,
      "hit": false,
      "t": 213171.36970836215,
      "d": 5.296604166680481,
      "v": 38
    },
    {
      "midi": 77,
      "hit": false,
      "t": 213181.9629166955,
      "d": 5.296604166680481,
      "v": 63
    },
    {
      "midi": 66,
      "hit": false,
      "t": 213272.00518752888,
      "d": 90.04227083336446,
      "v": 39
    },
    {
      "midi": 98,
      "hit": false,
      "t": 213282.5983958622,
      "d": 10.593208333360963,
      "v": 104
    },
    {
      "midi": 102,
      "hit": false,
      "t": 213282.5983958622,
      "d": 10.593208333360963,
      "v": 69
    },
    {
      "midi": 105,
      "hit": false,
      "t": 213282.5983958622,
      "d": 10.593208333360963,
      "v": 79
    },
    {
      "midi": 42,
      "hit": false,
      "t": 213287.8950000289,
      "d": 5.296604166680481,
      "v": 92
    },
    {
      "midi": 61,
      "hit": false,
      "t": 213287.8950000289,
      "d": 5.296604166680481,
      "v": 62
    },
    {
      "midi": 77,
      "hit": false,
      "t": 213287.8950000289,
      "d": 5.296604166680481,
      "v": 15
    },
    {
      "midi": 82,
      "hit": false,
      "t": 213287.8950000289,
      "d": 5.296604166680481,
      "v": 9
    },
    {
      "midi": 74,
      "hit": false,
      "t": 213287.8950000289,
      "d": 31.77962500002468,
      "v": 104
    },
    {
      "midi": 83,
      "hit": false,
      "t": 213287.8950000289,
      "d": 74.15245833335212,
      "v": 110
    },
    {
      "midi": 54,
      "hit": false,
      "t": 213287.8950000289,
      "d": 74.15245833335212,
      "v": 83
    },
    {
      "midi": 95,
      "hit": false,
      "t": 213287.8950000289,
      "d": 79.4490625000326,
      "v": 107
    },
    {
      "midi": 79,
      "hit": false,
      "t": 213287.8950000289,
      "d": 90.04227083336446,
      "v": 89
    },
    {
      "midi": 30,
      "hit": false,
      "t": 213287.8950000289,
      "d": 111.22868750005728,
      "v": 100
    },
    {
      "midi": 38,
      "hit": false,
      "t": 213415.01350002896,
      "d": 5.296604166680481,
      "v": 40
    },
    {
      "midi": 82,
      "hit": false,
      "t": 213415.01350002896,
      "d": 5.296604166680481,
      "v": 36
    },
    {
      "midi": 74,
      "hit": false,
      "t": 213415.01350002896,
      "d": 31.779625000082888,
      "v": 69
    },
    {
      "midi": 42,
      "hit": false,
      "t": 213420.31010419564,
      "d": 5.296604166680481,
      "v": 38
    },
    {
      "midi": 61,
      "hit": false,
      "t": 213425.60670836232,
      "d": 5.296604166680481,
      "v": 75
    },
    {
      "midi": 77,
      "hit": false,
      "t": 213436.19991669568,
      "d": 5.296604166680481,
      "v": 60
    },
    {
      "midi": 38,
      "hit": false,
      "t": 213457.38633336237,
      "d": 5.296604166680481,
      "v": 40
    },
    {
      "midi": 38,
      "hit": false,
      "t": 213499.75916669573,
      "d": 5.296604166680481,
      "v": 40
    },
    {
      "midi": 42,
      "hit": false,
      "t": 213536.8353958624,
      "d": 5.296604166680481,
      "v": 58
    },
    {
      "midi": 98,
      "hit": false,
      "t": 213536.8353958624,
      "d": 10.593208333360963,
      "v": 94
    },
    {
      "midi": 100,
      "hit": false,
      "t": 213536.8353958624,
      "d": 10.593208333360963,
      "v": 78
    },
    {
      "midi": 105,
      "hit": false,
      "t": 213536.8353958624,
      "d": 10.593208333360963,
      "v": 88
    },
    {
      "midi": 38,
      "hit": false,
      "t": 213542.1320000291,
      "d": 5.296604166680481,
      "v": 40
    },
    {
      "midi": 61,
      "hit": false,
      "t": 213542.1320000291,
      "d": 5.296604166680481,
      "v": 67
    },
    {
      "midi": 77,
      "hit": false,
      "t": 213542.1320000291,
      "d": 5.296604166680481,
      "v": 65
    },
    {
      "midi": 82,
      "hit": false,
      "t": 213542.1320000291,
      "d": 5.296604166680481,
      "v": 7
    },
    {
      "midi": 74,
      "hit": false,
      "t": 213542.1320000291,
      "d": 31.77962500002468,
      "v": 98
    },
    {
      "midi": 35,
      "hit": false,
      "t": 213542.1320000291,
      "d": 74.15245833335212,
      "v": 120
    },
    {
      "midi": 23,
      "hit": false,
      "t": 213542.1320000291,
      "d": 111.22868750002817,
      "v": 100
    },
    {
      "midi": 40,
      "hit": false,
      "t": 213542.1320000291,
      "d": 116.52529166670865,
      "v": 80
    },
    {
      "midi": 47,
      "hit": false,
      "t": 213542.1320000291,
      "d": 116.52529166670865,
      "v": 81
    },
    {
      "midi": 78,
      "hit": false,
      "t": 213542.1320000291,
      "d": 248.94039583348786,
      "v": 89
    },
    {
      "midi": 81,
      "hit": false,
      "t": 213542.1320000291,
      "d": 376.05889583352837,
      "v": 110
    },
    {
      "midi": 93,
      "hit": false,
      "t": 213542.1320000291,
      "d": 397.2453125002503,
      "v": 96
    },
    {
      "midi": 98,
      "hit": false,
      "t": 213663.95389586248,
      "d": 10.593208333360963,
      "v": 70
    },
    {
      "midi": 100,
      "hit": false,
      "t": 213663.95389586248,
      "d": 10.593208333360963,
      "v": 54
    },
    {
      "midi": 105,
      "hit": false,
      "t": 213663.95389586248,
      "d": 10.593208333360963,
      "v": 64
    },
    {
      "midi": 82,
      "hit": false,
      "t": 213669.25050002916,
      "d": 5.296604166680481,
      "v": 1
    },
    {
      "midi": 74,
      "hit": false,
      "t": 213669.25050002916,
      "d": 31.779625000082888,
      "v": 81
    },
    {
      "midi": 42,
      "hit": false,
      "t": 213674.54710419584,
      "d": 5.296604166680481,
      "v": 37
    },
    {
      "midi": 61,
      "hit": false,
      "t": 213679.84370836252,
      "d": 5.296604166680481,
      "v": 65
    },
    {
      "midi": 77,
      "hit": false,
      "t": 213690.43691669588,
      "d": 5.296604166680481,
      "v": 64
    },
    {
      "midi": 42,
      "hit": false,
      "t": 213796.36900002926,
      "d": 5.296604166680481,
      "v": 77
    },
    {
      "midi": 61,
      "hit": false,
      "t": 213796.36900002926,
      "d": 5.296604166680481,
      "v": 74
    },
    {
      "midi": 77,
      "hit": false,
      "t": 213796.36900002926,
      "d": 5.296604166680481,
      "v": 13
    },
    {
      "midi": 82,
      "hit": false,
      "t": 213796.36900002926,
      "d": 5.296604166680481,
      "v": 9
    },
    {
      "midi": 74,
      "hit": false,
      "t": 213796.36900002926,
      "d": 31.77962500002468,
      "v": 104
    },
    {
      "midi": 40,
      "hit": false,
      "t": 213796.36900002926,
      "d": 95.33887500001583,
      "v": 65
    },
    {
      "midi": 47,
      "hit": false,
      "t": 213796.36900002926,
      "d": 206.56756250013132,
      "v": 65
    },
    {
      "midi": 35,
      "hit": false,
      "t": 213796.36900002926,
      "d": 233.05058333347552,
      "v": 80
    },
    {
      "midi": 23,
      "hit": false,
      "t": 213796.36900002926,
      "d": 238.347187500156,
      "v": 100
    },
    {
      "midi": 98,
      "hit": false,
      "t": 213918.19089586262,
      "d": 10.593208333360963,
      "v": 97
    },
    {
      "midi": 100,
      "hit": false,
      "t": 213918.19089586262,
      "d": 10.593208333360963,
      "v": 81
    },
    {
      "midi": 105,
      "hit": false,
      "t": 213918.19089586262,
      "d": 10.593208333360963,
      "v": 91
    },
    {
      "midi": 82,
      "hit": false,
      "t": 213923.4875000293,
      "d": 5.296604166680481,
      "v": 36
    },
    {
      "midi": 74,
      "hit": false,
      "t": 213923.4875000293,
      "d": 31.779625000082888,
      "v": 49
    },
    {
      "midi": 42,
      "hit": false,
      "t": 213928.78410419598,
      "d": 5.296604166680481,
      "v": 38
    },
    {
      "midi": 61,
      "hit": false,
      "t": 213934.08070836266,
      "d": 5.296604166680481,
      "v": 44
    },
    {
      "midi": 77,
      "hit": false,
      "t": 213944.67391669602,
      "d": 5.296604166680481,
      "v": 59
    },
    {
      "midi": 42,
      "hit": false,
      "t": 214045.30939586274,
      "d": 5.296604166680481,
      "v": 67
    },
    {
      "midi": 40,
      "hit": false,
      "t": 214050.60600002942,
      "d": 5.296604166680481,
      "v": 93
    },
    {
      "midi": 60,
      "hit": false,
      "t": 214050.60600002942,
      "d": 5.296604166680481,
      "v": 68
    },
    {
      "midi": 77,
      "hit": false,
      "t": 214050.60600002942,
      "d": 5.296604166680481,
      "v": 57
    },
    {
      "midi": 82,
      "hit": false,
      "t": 214050.60600002942,
      "d": 5.296604166680481,
      "v": 7
    },
    {
      "midi": 74,
      "hit": false,
      "t": 214050.60600002942,
      "d": 31.77962500002468,
      "v": 108
    },
    {
      "midi": 35,
      "hit": false,
      "t": 214050.60600002942,
      "d": 74.15245833335212,
      "v": 120
    },
    {
      "midi": 49,
      "hit": false,
      "t": 214050.60600002942,
      "d": 95.33887500001583,
      "v": 74
    },
    {
      "midi": 37,
      "hit": false,
      "t": 214050.60600002942,
      "d": 360.1690833334578,
      "v": 80
    },
    {
      "midi": 25,
      "hit": false,
      "t": 214050.60600002942,
      "d": 365.4656875001383,
      "v": 100
    },
    {
      "midi": 79,
      "hit": false,
      "t": 214050.60600002942,
      "d": 376.05889583347016,
      "v": 106
    },
    {
      "midi": 83,
      "hit": false,
      "t": 214050.60600002942,
      "d": 376.05889583347016,
      "v": 127
    },
    {
      "midi": 95,
      "hit": false,
      "t": 214050.60600002942,
      "d": 376.05889583347016,
      "v": 104
    },
    {
      "midi": 82,
      "hit": false,
      "t": 214177.72450002944,
      "d": 5.296604166680481,
      "v": 1
    },
    {
      "midi": 74,
      "hit": false,
      "t": 214177.72450002944,
      "d": 31.779625000082888,
      "v": 98
    },
    {
      "midi": 42,
      "hit": false,
      "t": 214183.02110419612,
      "d": 5.296604166680481,
      "v": 43
    },
    {
      "midi": 61,
      "hit": false,
      "t": 214188.3177083628,
      "d": 5.296604166680481,
      "v": 38
    },
    {
      "midi": 77,
      "hit": false,
      "t": 214198.91091669616,
      "d": 5.296604166680481,
      "v": 60
    },
    {
      "midi": 98,
      "hit": false,
      "t": 214299.54639586285,
      "d": 10.593208333360963,
      "v": 105
    },
    {
      "midi": 102,
      "hit": false,
      "t": 214299.54639586285,
      "d": 10.593208333360963,
      "v": 70
    },
    {
      "midi": 105,
      "hit": false,
      "t": 214299.54639586285,
      "d": 10.593208333360963,
      "v": 80
    },
    {
      "midi": 42,
      "hit": false,
      "t": 214304.84300002953,
      "d": 5.296604166680481,
      "v": 69
    },
    {
      "midi": 61,
      "hit": false,
      "t": 214304.84300002953,
      "d": 5.296604166680481,
      "v": 71
    },
    {
      "midi": 77,
      "hit": false,
      "t": 214304.84300002953,
      "d": 5.296604166680481,
      "v": 13
    },
    {
      "midi": 82,
      "hit": false,
      "t": 214304.84300002953,
      "d": 5.296604166680481,
      "v": 9
    },
    {
      "midi": 74,
      "hit": false,
      "t": 214304.84300002953,
      "d": 31.77962500002468,
      "v": 104
    },
    {
      "midi": 49,
      "hit": false,
      "t": 214304.84300002953,
      "d": 95.33887500001583,
      "v": 65
    },
    {
      "midi": 40,
      "hit": false,
      "t": 214431.96150002957,
      "d": 5.296604166680481,
      "v": 93
    },
    {
      "midi": 42,
      "hit": false,
      "t": 214431.96150002957,
      "d": 5.296604166680481,
      "v": 69
    },
    {
      "midi": 82,
      "hit": false,
      "t": 214431.96150002957,
      "d": 5.296604166680481,
      "v": 36
    },
    {
      "midi": 74,
      "hit": false,
      "t": 214431.96150002957,
      "d": 31.779625000082888,
      "v": 84
    },
    {
      "midi": 38,
      "hit": false,
      "t": 214431.96150002957,
      "d": 105.9320833334059,
      "v": 80
    },
    {
      "midi": 26,
      "hit": false,
      "t": 214431.96150002957,
      "d": 111.22868750008638,
      "v": 100
    },
    {
      "midi": 69,
      "hit": false,
      "t": 214431.96150002957,
      "d": 121.82189583344734,
      "v": 83
    },
    {
      "midi": 61,
      "hit": false,
      "t": 214442.55470836294,
      "d": 5.296604166680481,
      "v": 69
    },
    {
      "midi": 50,
      "hit": false,
      "t": 214442.55470836294,
      "d": 84.74566666671308,
      "v": 114
    },
    {
      "midi": 86,
      "hit": false,
      "t": 214442.55470836294,
      "d": 105.9320833334059,
      "v": 98
    },
    {
      "midi": 62,
      "hit": false,
      "t": 214442.55470836294,
      "d": 105.9320833334059,
      "v": 127
    },
    {
      "midi": 77,
      "hit": false,
      "t": 214453.1479166963,
      "d": 5.296604166680481,
      "v": 50
    },
    {
      "midi": 42,
      "hit": false,
      "t": 214553.78339586302,
      "d": 5.296604166680481,
      "v": 43
    },
    {
      "midi": 61,
      "hit": false,
      "t": 214559.0800000297,
      "d": 5.296604166680481,
      "v": 67
    },
    {
      "midi": 77,
      "hit": false,
      "t": 214559.0800000297,
      "d": 5.296604166680481,
      "v": 58
    },
    {
      "midi": 82,
      "hit": false,
      "t": 214559.0800000297,
      "d": 5.296604166680481,
      "v": 7
    },
    {
      "midi": 74,
      "hit": false,
      "t": 214559.0800000297,
      "d": 31.77962500002468,
      "v": 110
    },
    {
      "midi": 35,
      "hit": false,
      "t": 214559.0800000297,
      "d": 74.15245833335212,
      "v": 120
    },
    {
      "midi": 82,
      "hit": false,
      "t": 214686.1985000297,
      "d": 5.296604166680481,
      "v": 1
    },
    {
      "midi": 74,
      "hit": false,
      "t": 214686.1985000297,
      "d": 31.779625000082888,
      "v": 93
    },
    {
      "midi": 38,
      "hit": false,
      "t": 214686.1985000297,
      "d": 243.64379166680737,
      "v": 89
    },
    {
      "midi": 26,
      "hit": false,
      "t": 214686.1985000297,
      "d": 248.94039583348786,
      "v": 109
    },
    {
      "midi": 69,
      "hit": false,
      "t": 214686.1985000297,
      "d": 248.94039583348786,
      "v": 83
    },
    {
      "midi": 42,
      "hit": false,
      "t": 214691.4951041964,
      "d": 5.296604166680481,
      "v": 35
    },
    {
      "midi": 50,
      "hit": false,
      "t": 214691.4951041964,
      "d": 74.15245833341032,
      "v": 108
    },
    {
      "midi": 62,
      "hit": false,
      "t": 214691.4951041964,
      "d": 74.15245833341032,
      "v": 121
    },
    {
      "midi": 61,
      "hit": false,
      "t": 214696.79170836307,
      "d": 5.296604166680481,
      "v": 65
    },
    {
      "midi": 86,
      "hit": false,
      "t": 214696.79170836307,
      "d": 68.85585416672984,
      "v": 107
    },
    {
      "midi": 77,
      "hit": false,
      "t": 214707.38491669644,
      "d": 5.296604166680481,
      "v": 52
    },
    {
      "midi": 98,
      "hit": false,
      "t": 214808.02039586313,
      "d": 10.593208333360963,
      "v": 117
    },
    {
      "midi": 102,
      "hit": false,
      "t": 214808.02039586313,
      "d": 10.593208333360963,
      "v": 82
    },
    {
      "midi": 105,
      "hit": false,
      "t": 214808.02039586313,
      "d": 10.593208333360963,
      "v": 92
    },
    {
      "midi": 42,
      "hit": false,
      "t": 214813.3170000298,
      "d": 5.296604166680481,
      "v": 92
    },
    {
      "midi": 61,
      "hit": false,
      "t": 214813.3170000298,
      "d": 5.296604166680481,
      "v": 74
    },
    {
      "midi": 77,
      "hit": false,
      "t": 214813.3170000298,
      "d": 5.296604166680481,
      "v": 14
    },
    {
      "midi": 82,
      "hit": false,
      "t": 214813.3170000298,
      "d": 5.296604166680481,
      "v": 9
    },
    {
      "midi": 74,
      "hit": false,
      "t": 214813.3170000298,
      "d": 31.77962500002468,
      "v": 99
    },
    {
      "midi": 82,
      "hit": false,
      "t": 214940.43550002988,
      "d": 5.296604166680481,
      "v": 36
    },
    {
      "midi": 74,
      "hit": false,
      "t": 214940.43550002988,
      "d": 31.779625000082888,
      "v": 48
    },
    {
      "midi": 38,
      "hit": false,
      "t": 214940.43550002988,
      "d": 100.63547916678363,
      "v": 80
    },
    {
      "midi": 26,
      "hit": false,
      "t": 214940.43550002988,
      "d": 105.9320833334641,
      "v": 100
    },
    {
      "midi": 42,
      "hit": false,
      "t": 214945.73210419656,
      "d": 5.296604166680481,
      "v": 38
    },
    {
      "midi": 50,
      "hit": false,
      "t": 214945.73210419656,
      "d": 84.74566666674218,
      "v": 90
    },
    {
      "midi": 62,
      "hit": false,
      "t": 214945.73210419656,
      "d": 90.04227083342266,
      "v": 103
    },
    {
      "midi": 61,
      "hit": false,
      "t": 214951.02870836324,
      "d": 5.296604166680481,
      "v": 51
    },
    {
      "midi": 86,
      "hit": false,
      "t": 214951.02870836324,
      "d": 63.55925000004936,
      "v": 111
    },
    {
      "midi": 77,
      "hit": false,
      "t": 214961.6219166966,
      "d": 5.296604166680481,
      "v": 57
    },
    {
      "midi": 94,
      "hit": false,
      "t": 215046.36758336335,
      "d": 26.483020833373303,
      "v": 95
    },
    {
      "midi": 42,
      "hit": false,
      "t": 215062.25739586336,
      "d": 5.296604166680481,
      "v": 43
    },
    {
      "midi": 40,
      "hit": false,
      "t": 215067.55400003004,
      "d": 5.296604166680481,
      "v": 93
    },
    {
      "midi": 60,
      "hit": false,
      "t": 215067.55400003004,
      "d": 5.296604166680481,
      "v": 68
    },
    {
      "midi": 77,
      "hit": false,
      "t": 215067.55400003004,
      "d": 5.296604166680481,
      "v": 56
    },
    {
      "midi": 82,
      "hit": false,
      "t": 215067.55400003004,
      "d": 5.296604166680481,
      "v": 7
    },
    {
      "midi": 74,
      "hit": false,
      "t": 215067.55400003004,
      "d": 31.77962500002468,
      "v": 126
    },
    {
      "midi": 35,
      "hit": false,
      "t": 215067.55400003004,
      "d": 74.15245833338122,
      "v": 120
    },
    {
      "midi": 52,
      "hit": false,
      "t": 215067.55400003004,
      "d": 105.9320833334059,
      "v": 73
    },
    {
      "midi": 28,
      "hit": false,
      "t": 215067.55400003004,
      "d": 248.94039583348786,
      "v": 100
    },
    {
      "midi": 79,
      "hit": false,
      "t": 215067.55400003004,
      "d": 386.65210416688933,
      "v": 96
    },
    {
      "midi": 58,
      "hit": false,
      "t": 215078.1472083634,
      "d": 68.85585416670074,
      "v": 114
    },
    {
      "midi": 70,
      "hit": false,
      "t": 215078.1472083634,
      "d": 68.85585416670074,
      "v": 127
    },
    {
      "midi": 95,
      "hit": false,
      "t": 215078.1472083634,
      "d": 434.32154166692635,
      "v": 105
    },
    {
      "midi": 59,
      "hit": false,
      "t": 215104.63022919674,
      "d": 365.4656875002256,
      "v": 104
    },
    {
      "midi": 71,
      "hit": false,
      "t": 215104.63022919674,
      "d": 365.4656875002256,
      "v": 117
    },
    {
      "midi": 83,
      "hit": false,
      "t": 215131.1132500301,
      "d": 195.97435416679946,
      "v": 108
    },
    {
      "midi": 82,
      "hit": false,
      "t": 215194.6725000301,
      "d": 5.296604166680481,
      "v": 1
    },
    {
      "midi": 74,
      "hit": false,
      "t": 215194.6725000301,
      "d": 31.779625000082888,
      "v": 121
    },
    {
      "midi": 52,
      "hit": false,
      "t": 215194.6725000301,
      "d": 105.9320833334059,
      "v": 16
    },
    {
      "midi": 42,
      "hit": false,
      "t": 215199.9691041968,
      "d": 5.296604166680481,
      "v": 35
    },
    {
      "midi": 61,
      "hit": false,
      "t": 215205.26570836347,
      "d": 5.296604166680481,
      "v": 38
    },
    {
      "midi": 77,
      "hit": false,
      "t": 215215.85891669683,
      "d": 5.296604166680481,
      "v": 63
    },
    {
      "midi": 98,
      "hit": false,
      "t": 215316.49439586353,
      "d": 10.593208333360963,
      "v": 104
    },
    {
      "midi": 102,
      "hit": false,
      "t": 215316.49439586353,
      "d": 10.593208333360963,
      "v": 69
    },
    {
      "midi": 105,
      "hit": false,
      "t": 215316.49439586353,
      "d": 10.593208333360963,
      "v": 79
    },
    {
      "midi": 42,
      "hit": false,
      "t": 215321.7910000302,
      "d": 5.296604166680481,
      "v": 92
    },
    {
      "midi": 61,
      "hit": false,
      "t": 215321.7910000302,
      "d": 5.296604166680481,
      "v": 62
    },
    {
      "midi": 77,
      "hit": false,
      "t": 215321.7910000302,
      "d": 5.296604166680481,
      "v": 15
    },
    {
      "midi": 82,
      "hit": false,
      "t": 215321.7910000302,
      "d": 5.296604166680481,
      "v": 9
    },
    {
      "midi": 74,
      "hit": false,
      "t": 215321.7910000302,
      "d": 31.77962500002468,
      "v": 104
    },
    {
      "midi": 30,
      "hit": false,
      "t": 215321.7910000302,
      "d": 90.04227083336446,
      "v": 100
    },
    {
      "midi": 54,
      "hit": false,
      "t": 215321.7910000302,
      "d": 217.16077083346318,
      "v": 79
    },
    {
      "midi": 82,
      "hit": false,
      "t": 215448.90950003025,
      "d": 5.296604166680481,
      "v": 36
    },
    {
      "midi": 74,
      "hit": false,
      "t": 215448.90950003025,
      "d": 31.779625000082888,
      "v": 69
    },
    {
      "midi": 42,
      "hit": false,
      "t": 215454.20610419693,
      "d": 5.296604166680481,
      "v": 38
    },
    {
      "midi": 61,
      "hit": false,
      "t": 215459.5027083636,
      "d": 5.296604166680481,
      "v": 75
    },
    {
      "midi": 77,
      "hit": false,
      "t": 215470.09591669697,
      "d": 5.296604166680481,
      "v": 60
    },
    {
      "midi": 80,
      "hit": false,
      "t": 215538.95177086367,
      "d": 127.11850000006962,
      "v": 89
    },
    {
      "midi": 42,
      "hit": false,
      "t": 215570.73139586367,
      "d": 5.296604166680481,
      "v": 58
    },
    {
      "midi": 98,
      "hit": false,
      "t": 215570.73139586367,
      "d": 10.593208333360963,
      "v": 94
    },
    {
      "midi": 100,
      "hit": false,
      "t": 215570.73139586367,
      "d": 10.593208333360963,
      "v": 78
    },
    {
      "midi": 105,
      "hit": false,
      "t": 215570.73139586367,
      "d": 10.593208333360963,
      "v": 88
    },
    {
      "midi": 61,
      "hit": false,
      "t": 215576.02800003035,
      "d": 5.296604166680481,
      "v": 67
    },
    {
      "midi": 77,
      "hit": false,
      "t": 215576.02800003035,
      "d": 5.296604166680481,
      "v": 65
    },
    {
      "midi": 82,
      "hit": false,
      "t": 215576.02800003035,
      "d": 5.296604166680481,
      "v": 7
    },
    {
      "midi": 74,
      "hit": false,
      "t": 215576.02800003035,
      "d": 31.77962500002468,
      "v": 98
    },
    {
      "midi": 35,
      "hit": false,
      "t": 215576.02800003035,
      "d": 74.15245833338122,
      "v": 120
    },
    {
      "midi": 40,
      "hit": false,
      "t": 215576.02800003035,
      "d": 217.16077083349228,
      "v": 65
    },
    {
      "midi": 47,
      "hit": false,
      "t": 215576.02800003035,
      "d": 217.16077083349228,
      "v": 65
    },
    {
      "midi": 23,
      "hit": false,
      "t": 215576.02800003035,
      "d": 248.94039583351696,
      "v": 100
    },
    {
      "midi": 76,
      "hit": false,
      "t": 215576.02800003035,
      "d": 503.1773958336853,
      "v": 90
    },
    {
      "midi": 93,
      "hit": false,
      "t": 215576.02800003035,
      "d": 715.041562500468,
      "v": 102
    },
    {
      "midi": 57,
      "hit": false,
      "t": 215597.21441669704,
      "d": 953.388750000624,
      "v": 114
    },
    {
      "midi": 69,
      "hit": false,
      "t": 215597.21441669704,
      "d": 953.388750000624,
      "v": 127
    },
    {
      "midi": 81,
      "hit": false,
      "t": 215623.69743753038,
      "d": 455.5079583336483,
      "v": 112
    },
    {
      "midi": 98,
      "hit": false,
      "t": 215697.84989586374,
      "d": 10.593208333360963,
      "v": 70
    },
    {
      "midi": 100,
      "hit": false,
      "t": 215697.84989586374,
      "d": 10.593208333360963,
      "v": 54
    },
    {
      "midi": 105,
      "hit": false,
      "t": 215697.84989586374,
      "d": 10.593208333360963,
      "v": 64
    },
    {
      "midi": 82,
      "hit": false,
      "t": 215703.14650003042,
      "d": 5.296604166680481,
      "v": 1
    },
    {
      "midi": 74,
      "hit": false,
      "t": 215703.14650003042,
      "d": 31.779625000082888,
      "v": 81
    },
    {
      "midi": 42,
      "hit": false,
      "t": 215708.4431041971,
      "d": 5.296604166680481,
      "v": 37
    },
    {
      "midi": 61,
      "hit": false,
      "t": 215713.73970836378,
      "d": 5.296604166680481,
      "v": 65
    },
    {
      "midi": 77,
      "hit": false,
      "t": 215724.33291669714,
      "d": 5.296604166680481,
      "v": 64
    },
    {
      "midi": 42,
      "hit": false,
      "t": 215830.26500003054,
      "d": 5.296604166680481,
      "v": 77
    },
    {
      "midi": 61,
      "hit": false,
      "t": 215830.26500003054,
      "d": 5.296604166680481,
      "v": 74
    },
    {
      "midi": 77,
      "hit": false,
      "t": 215830.26500003054,
      "d": 5.296604166680481,
      "v": 13
    },
    {
      "midi": 82,
      "hit": false,
      "t": 215830.26500003054,
      "d": 5.296604166680481,
      "v": 9
    },
    {
      "midi": 74,
      "hit": false,
      "t": 215830.26500003054,
      "d": 31.77962500002468,
      "v": 104
    },
    {
      "midi": 40,
      "hit": false,
      "t": 215830.26500003054,
      "d": 217.16077083346318,
      "v": 65
    },
    {
      "midi": 47,
      "hit": false,
      "t": 215830.26500003054,
      "d": 217.16077083346318,
      "v": 65
    },
    {
      "midi": 35,
      "hit": false,
      "t": 215830.26500003054,
      "d": 243.64379166680737,
      "v": 80
    },
    {
      "midi": 23,
      "hit": false,
      "t": 215830.26500003054,
      "d": 248.94039583348786,
      "v": 100
    },
    {
      "midi": 98,
      "hit": false,
      "t": 215952.0868958639,
      "d": 10.593208333360963,
      "v": 97
    },
    {
      "midi": 100,
      "hit": false,
      "t": 215952.0868958639,
      "d": 10.593208333360963,
      "v": 81
    },
    {
      "midi": 105,
      "hit": false,
      "t": 215952.0868958639,
      "d": 10.593208333360963,
      "v": 91
    },
    {
      "midi": 82,
      "hit": false,
      "t": 215957.38350003058,
      "d": 5.296604166680481,
      "v": 36
    },
    {
      "midi": 74,
      "hit": false,
      "t": 215957.38350003058,
      "d": 31.779625000082888,
      "v": 49
    },
    {
      "midi": 42,
      "hit": false,
      "t": 215962.68010419726,
      "d": 5.296604166680481,
      "v": 38
    },
    {
      "midi": 61,
      "hit": false,
      "t": 215967.97670836395,
      "d": 5.296604166680481,
      "v": 44
    },
    {
      "midi": 77,
      "hit": false,
      "t": 215978.5699166973,
      "d": 5.296604166680481,
      "v": 59
    },
    {
      "midi": 42,
      "hit": false,
      "t": 216079.20539586403,
      "d": 5.296604166680481,
      "v": 67
    },
    {
      "midi": 40,
      "hit": false,
      "t": 216084.5020000307,
      "d": 5.296604166680481,
      "v": 93
    },
    {
      "midi": 60,
      "hit": false,
      "t": 216084.5020000307,
      "d": 5.296604166680481,
      "v": 68
    },
    {
      "midi": 77,
      "hit": false,
      "t": 216084.5020000307,
      "d": 5.296604166680481,
      "v": 57
    },
    {
      "midi": 82,
      "hit": false,
      "t": 216084.5020000307,
      "d": 5.296604166680481,
      "v": 7
    },
    {
      "midi": 74,
      "hit": false,
      "t": 216084.5020000307,
      "d": 31.77962500002468,
      "v": 108
    },
    {
      "midi": 35,
      "hit": false,
      "t": 216084.5020000307,
      "d": 74.15245833335212,
      "v": 120
    },
    {
      "midi": 45,
      "hit": false,
      "t": 216084.5020000307,
      "d": 328.38945833352045,
      "v": 65
    },
    {
      "midi": 33,
      "hit": false,
      "t": 216084.5020000307,
      "d": 370.7622916668479,
      "v": 80
    },
    {
      "midi": 21,
      "hit": false,
      "t": 216084.5020000307,
      "d": 376.05889583352837,
      "v": 100
    },
    {
      "midi": 82,
      "hit": false,
      "t": 216211.62050003072,
      "d": 5.296604166680481,
      "v": 1
    },
    {
      "midi": 74,
      "hit": false,
      "t": 216211.62050003072,
      "d": 31.779625000082888,
      "v": 98
    },
    {
      "midi": 42,
      "hit": false,
      "t": 216216.9171041974,
      "d": 5.296604166680481,
      "v": 43
    },
    {
      "midi": 61,
      "hit": false,
      "t": 216222.21370836408,
      "d": 5.296604166680481,
      "v": 38
    },
    {
      "midi": 77,
      "hit": false,
      "t": 216232.80691669745,
      "d": 5.296604166680481,
      "v": 60
    },
    {
      "midi": 98,
      "hit": false,
      "t": 216333.44239586417,
      "d": 10.593208333360963,
      "v": 105
    },
    {
      "midi": 102,
      "hit": false,
      "t": 216333.44239586417,
      "d": 10.593208333360963,
      "v": 70
    },
    {
      "midi": 105,
      "hit": false,
      "t": 216333.44239586417,
      "d": 10.593208333360963,
      "v": 80
    },
    {
      "midi": 42,
      "hit": false,
      "t": 216338.73900003085,
      "d": 5.296604166680481,
      "v": 69
    },
    {
      "midi": 61,
      "hit": false,
      "t": 216338.73900003085,
      "d": 5.296604166680481,
      "v": 71
    },
    {
      "midi": 77,
      "hit": false,
      "t": 216338.73900003085,
      "d": 5.296604166680481,
      "v": 13
    },
    {
      "midi": 82,
      "hit": false,
      "t": 216338.73900003085,
      "d": 5.296604166680481,
      "v": 9
    },
    {
      "midi": 74,
      "hit": false,
      "t": 216338.73900003085,
      "d": 31.77962500002468,
      "v": 104
    },
    {
      "midi": 42,
      "hit": false,
      "t": 216465.85750003092,
      "d": 5.296604166680481,
      "v": 69
    },
    {
      "midi": 82,
      "hit": false,
      "t": 216465.85750003092,
      "d": 5.296604166680481,
      "v": 36
    },
    {
      "midi": 74,
      "hit": false,
      "t": 216465.85750003092,
      "d": 31.779625000082888,
      "v": 84
    },
    {
      "midi": 50,
      "hit": false,
      "t": 216465.85750003092,
      "d": 95.33887500007404,
      "v": 77
    },
    {
      "midi": 38,
      "hit": false,
      "t": 216465.85750003092,
      "d": 105.9320833334059,
      "v": 80
    },
    {
      "midi": 26,
      "hit": false,
      "t": 216465.85750003092,
      "d": 111.22868750008638,
      "v": 100
    },
    {
      "midi": 61,
      "hit": false,
      "t": 216476.45070836428,
      "d": 5.296604166680481,
      "v": 69
    },
    {
      "midi": 77,
      "hit": false,
      "t": 216487.04391669764,
      "d": 5.296604166680481,
      "v": 50
    },
    {
      "midi": 42,
      "hit": false,
      "t": 216587.67939586434,
      "d": 5.296604166680481,
      "v": 43
    },
    {
      "midi": 61,
      "hit": false,
      "t": 216592.97600003102,
      "d": 5.296604166680481,
      "v": 67
    },
    {
      "midi": 77,
      "hit": false,
      "t": 216592.97600003102,
      "d": 5.296604166680481,
      "v": 58
    },
    {
      "midi": 82,
      "hit": false,
      "t": 216592.97600003102,
      "d": 5.296604166680481,
      "v": 7
    },
    {
      "midi": 74,
      "hit": false,
      "t": 216592.97600003102,
      "d": 31.77962500002468,
      "v": 110
    },
    {
      "midi": 35,
      "hit": false,
      "t": 216592.97600003102,
      "d": 74.15245833335212,
      "v": 120
    },
    {
      "midi": 82,
      "hit": false,
      "t": 216720.09450003103,
      "d": 5.296604166680481,
      "v": 1
    },
    {
      "midi": 74,
      "hit": false,
      "t": 216720.09450003103,
      "d": 31.779625000082888,
      "v": 93
    },
    {
      "midi": 50,
      "hit": false,
      "t": 216720.09450003103,
      "d": 206.56756250013132,
      "v": 65
    },
    {
      "midi": 38,
      "hit": false,
      "t": 216720.09450003103,
      "d": 233.05058333347552,
      "v": 80
    },
    {
      "midi": 26,
      "hit": false,
      "t": 216720.09450003103,
      "d": 238.347187500156,
      "v": 100
    },
    {
      "midi": 42,
      "hit": false,
      "t": 216725.3911041977,
      "d": 5.296604166680481,
      "v": 35
    },
    {
      "midi": 61,
      "hit": false,
      "t": 216730.6877083644,
      "d": 5.296604166680481,
      "v": 65
    },
    {
      "midi": 77,
      "hit": false,
      "t": 216741.28091669775,
      "d": 5.296604166680481,
      "v": 52
    },
    {
      "midi": 98,
      "hit": false,
      "t": 216841.91639586445,
      "d": 10.593208333360963,
      "v": 117
    },
    {
      "midi": 102,
      "hit": false,
      "t": 216841.91639586445,
      "d": 10.593208333360963,
      "v": 82
    },
    {
      "midi": 105,
      "hit": false,
      "t": 216841.91639586445,
      "d": 10.593208333360963,
      "v": 92
    },
    {
      "midi": 42,
      "hit": false,
      "t": 216847.21300003113,
      "d": 5.296604166680481,
      "v": 92
    },
    {
      "midi": 61,
      "hit": false,
      "t": 216847.21300003113,
      "d": 5.296604166680481,
      "v": 74
    },
    {
      "midi": 77,
      "hit": false,
      "t": 216847.21300003113,
      "d": 5.296604166680481,
      "v": 14
    },
    {
      "midi": 82,
      "hit": false,
      "t": 216847.21300003113,
      "d": 5.296604166680481,
      "v": 9
    },
    {
      "midi": 74,
      "hit": false,
      "t": 216847.21300003113,
      "d": 31.77962500002468,
      "v": 99
    },
    {
      "midi": 82,
      "hit": false,
      "t": 216974.3315000312,
      "d": 5.296604166680481,
      "v": 36
    },
    {
      "midi": 74,
      "hit": false,
      "t": 216974.3315000312,
      "d": 31.779625000082888,
      "v": 48
    },
    {
      "midi": 50,
      "hit": false,
      "t": 216974.3315000312,
      "d": 95.33887500007404,
      "v": 65
    },
    {
      "midi": 38,
      "hit": false,
      "t": 216974.3315000312,
      "d": 105.9320833334059,
      "v": 80
    },
    {
      "midi": 26,
      "hit": false,
      "t": 216974.3315000312,
      "d": 111.22868750008638,
      "v": 100
    },
    {
      "midi": 42,
      "hit": false,
      "t": 216979.62810419788,
      "d": 5.296604166680481,
      "v": 38
    },
    {
      "midi": 61,
      "hit": false,
      "t": 216984.92470836456,
      "d": 5.296604166680481,
      "v": 51
    },
    {
      "midi": 77,
      "hit": false,
      "t": 216995.51791669792,
      "d": 5.296604166680481,
      "v": 57
    },
    {
      "midi": 42,
      "hit": false,
      "t": 217096.15339586462,
      "d": 5.296604166680481,
      "v": 43
    },
    {
      "midi": 40,
      "hit": false,
      "t": 217101.4500000313,
      "d": 5.296604166680481,
      "v": 93
    },
    {
      "midi": 49,
      "hit": false,
      "t": 217101.4500000313,
      "d": 5.296604166680481,
      "v": 99
    },
    {
      "midi": 57,
      "hit": false,
      "t": 217101.4500000313,
      "d": 5.296604166680481,
      "v": 99
    },
    {
      "midi": 60,
      "hit": false,
      "t": 217101.4500000313,
      "d": 5.296604166680481,
      "v": 68
    },
    {
      "midi": 77,
      "hit": false,
      "t": 217101.4500000313,
      "d": 5.296604166680481,
      "v": 56
    },
    {
      "midi": 82,
      "hit": false,
      "t": 217101.4500000313,
      "d": 5.296604166680481,
      "v": 7
    },
    {
      "midi": 74,
      "hit": false,
      "t": 217101.4500000313,
      "d": 31.77962500002468,
      "v": 126
    },
    {
      "midi": 86,
      "hit": false,
      "t": 217101.4500000313,
      "d": 58.26264583336888,
      "v": 108
    },
    {
      "midi": 35,
      "hit": false,
      "t": 217101.4500000313,
      "d": 74.15245833338122,
      "v": 120
    },
    {
      "midi": 78,
      "hit": false,
      "t": 217101.4500000313,
      "d": 95.33887500004494,
      "v": 91
    },
    {
      "midi": 62,
      "hit": false,
      "t": 217101.4500000313,
      "d": 100.63547916672542,
      "v": 127
    },
    {
      "midi": 52,
      "hit": false,
      "t": 217101.4500000313,
      "d": 105.9320833334059,
      "v": 65
    },
    {
      "midi": 28,
      "hit": false,
      "t": 217101.4500000313,
      "d": 238.3471875001851,
      "v": 100
    },
    {
      "midi": 50,
      "hit": false,
      "t": 217112.04320836466,
      "d": 100.63547916672542,
      "v": 89
    },
    {
      "midi": 82,
      "hit": false,
      "t": 217228.5685000314,
      "d": 5.296604166680481,
      "v": 1
    },
    {
      "midi": 74,
      "hit": false,
      "t": 217228.5685000314,
      "d": 31.779625000082888,
      "v": 121
    },
    {
      "midi": 52,
      "hit": false,
      "t": 217228.5685000314,
      "d": 95.33887500007404,
      "v": 4
    },
    {
      "midi": 42,
      "hit": false,
      "t": 217233.86510419808,
      "d": 5.296604166680481,
      "v": 35
    },
    {
      "midi": 61,
      "hit": false,
      "t": 217239.16170836476,
      "d": 5.296604166680481,
      "v": 38
    },
    {
      "midi": 77,
      "hit": false,
      "t": 217249.75491669812,
      "d": 5.296604166680481,
      "v": 63
    },
    {
      "midi": 59,
      "hit": false,
      "t": 217339.79718753148,
      "d": 95.33887500004494,
      "v": 89
    },
    {
      "midi": 98,
      "hit": false,
      "t": 217350.39039586482,
      "d": 10.593208333360963,
      "v": 104
    },
    {
      "midi": 102,
      "hit": false,
      "t": 217350.39039586482,
      "d": 10.593208333360963,
      "v": 69
    },
    {
      "midi": 105,
      "hit": false,
      "t": 217350.39039586482,
      "d": 10.593208333360963,
      "v": 79
    },
    {
      "midi": 42,
      "hit": false,
      "t": 217355.6870000315,
      "d": 5.296604166680481,
      "v": 92
    },
    {
      "midi": 61,
      "hit": false,
      "t": 217355.6870000315,
      "d": 5.296604166680481,
      "v": 62
    },
    {
      "midi": 77,
      "hit": false,
      "t": 217355.6870000315,
      "d": 5.296604166680481,
      "v": 15
    },
    {
      "midi": 82,
      "hit": false,
      "t": 217355.6870000315,
      "d": 5.296604166680481,
      "v": 9
    },
    {
      "midi": 74,
      "hit": false,
      "t": 217355.6870000315,
      "d": 31.77962500002468,
      "v": 104
    },
    {
      "midi": 83,
      "hit": false,
      "t": 217355.6870000315,
      "d": 68.85585416670074,
      "v": 112
    },
    {
      "midi": 95,
      "hit": false,
      "t": 217355.6870000315,
      "d": 68.85585416670074,
      "v": 100
    },
    {
      "midi": 71,
      "hit": false,
      "t": 217355.6870000315,
      "d": 95.33887500004494,
      "v": 127
    },
    {
      "midi": 54,
      "hit": false,
      "t": 217355.6870000315,
      "d": 206.56756250013132,
      "v": 82
    },
    {
      "midi": 30,
      "hit": false,
      "t": 217355.6870000315,
      "d": 238.3471875001851,
      "v": 100
    },
    {
      "midi": 79,
      "hit": false,
      "t": 217355.6870000315,
      "d": 248.94039583354606,
      "v": 91
    },
    {
      "midi": 38,
      "hit": false,
      "t": 217482.80550003154,
      "d": 5.296604166680481,
      "v": 40
    },
    {
      "midi": 82,
      "hit": false,
      "t": 217482.80550003154,
      "d": 5.296604166680481,
      "v": 36
    },
    {
      "midi": 74,
      "hit": false,
      "t": 217482.80550003154,
      "d": 31.779625000082888,
      "v": 69
    },
    {
      "midi": 42,
      "hit": false,
      "t": 217488.10210419822,
      "d": 5.296604166680481,
      "v": 38
    },
    {
      "midi": 61,
      "hit": false,
      "t": 217493.3987083649,
      "d": 5.296604166680481,
      "v": 75
    },
    {
      "midi": 77,
      "hit": false,
      "t": 217503.99191669826,
      "d": 5.296604166680481,
      "v": 60
    },
    {
      "midi": 38,
      "hit": false,
      "t": 217525.17833336495,
      "d": 5.296604166680481,
      "v": 40
    },
    {
      "midi": 38,
      "hit": false,
      "t": 217567.5511666983,
      "d": 5.296604166680481,
      "v": 40
    },
    {
      "midi": 80,
      "hit": false,
      "t": 217594.03418753168,
      "d": 47.66943750009523,
      "v": 127
    },
    {
      "midi": 68,
      "hit": false,
      "t": 217599.33079169836,
      "d": 31.779625000053784,
      "v": 127
    },
    {
      "midi": 98,
      "hit": false,
      "t": 217604.62739586504,
      "d": 10.593208333360963,
      "v": 94
    },
    {
      "midi": 100,
      "hit": false,
      "t": 217604.62739586504,
      "d": 10.593208333360963,
      "v": 78
    },
    {
      "midi": 105,
      "hit": false,
      "t": 217604.62739586504,
      "d": 10.593208333360963,
      "v": 88
    },
    {
      "midi": 38,
      "hit": false,
      "t": 217609.92400003172,
      "d": 5.296604166680481,
      "v": 40
    },
    {
      "midi": 46,
      "hit": false,
      "t": 217609.92400003172,
      "d": 5.296604166680481,
      "v": 47
    },
    {
      "midi": 61,
      "hit": false,
      "t": 217609.92400003172,
      "d": 5.296604166680481,
      "v": 67
    },
    {
      "midi": 77,
      "hit": false,
      "t": 217609.92400003172,
      "d": 5.296604166680481,
      "v": 65
    },
    {
      "midi": 82,
      "hit": false,
      "t": 217609.92400003172,
      "d": 5.296604166680481,
      "v": 7
    },
    {
      "midi": 74,
      "hit": false,
      "t": 217609.92400003172,
      "d": 31.779625000053784,
      "v": 98
    },
    {
      "midi": 35,
      "hit": false,
      "t": 217609.92400003172,
      "d": 74.15245833338122,
      "v": 120
    },
    {
      "midi": 78,
      "hit": false,
      "t": 217609.92400003172,
      "d": 381.35550000026706,
      "v": 92
    },
    {
      "midi": 93,
      "hit": false,
      "t": 217609.92400003172,
      "d": 503.1773958337144,
      "v": 99
    },
    {
      "midi": 57,
      "hit": false,
      "t": 217620.51720836508,
      "d": 148.30491666679154,
      "v": 124
    },
    {
      "midi": 69,
      "hit": false,
      "t": 217620.51720836508,
      "d": 148.30491666679154,
      "v": 124
    },
    {
      "midi": 45,
      "hit": false,
      "t": 217620.51720836508,
      "d": 206.56756250013132,
      "v": 65
    },
    {
      "midi": 33,
      "hit": false,
      "t": 217620.51720836508,
      "d": 233.05058333347552,
      "v": 80
    },
    {
      "midi": 21,
      "hit": false,
      "t": 217620.51720836508,
      "d": 238.347187500156,
      "v": 100
    },
    {
      "midi": 81,
      "hit": false,
      "t": 217636.4070208651,
      "d": 354.87247916689375,
      "v": 127
    },
    {
      "midi": 98,
      "hit": false,
      "t": 217731.7458958651,
      "d": 10.593208333360963,
      "v": 70
    },
    {
      "midi": 100,
      "hit": false,
      "t": 217731.7458958651,
      "d": 10.593208333360963,
      "v": 54
    },
    {
      "midi": 105,
      "hit": false,
      "t": 217731.7458958651,
      "d": 10.593208333360963,
      "v": 64
    },
    {
      "midi": 82,
      "hit": false,
      "t": 217737.0425000318,
      "d": 5.296604166680481,
      "v": 1
    },
    {
      "midi": 74,
      "hit": false,
      "t": 217737.0425000318,
      "d": 31.779625000082888,
      "v": 81
    },
    {
      "midi": 42,
      "hit": false,
      "t": 217742.33910419847,
      "d": 5.296604166680481,
      "v": 37
    },
    {
      "midi": 59,
      "hit": false,
      "t": 217742.33910419847,
      "d": 148.30491666682065,
      "v": 124
    },
    {
      "midi": 71,
      "hit": false,
      "t": 217742.33910419847,
      "d": 148.30491666682065,
      "v": 124
    },
    {
      "midi": 61,
      "hit": false,
      "t": 217747.63570836515,
      "d": 5.296604166680481,
      "v": 65
    },
    {
      "midi": 77,
      "hit": false,
      "t": 217758.2289166985,
      "d": 5.296604166680481,
      "v": 64
    },
    {
      "midi": 46,
      "hit": false,
      "t": 217864.16100003192,
      "d": 5.296604166680481,
      "v": 66
    },
    {
      "midi": 61,
      "hit": false,
      "t": 217864.16100003192,
      "d": 5.296604166680481,
      "v": 124
    },
    {
      "midi": 77,
      "hit": false,
      "t": 217864.16100003192,
      "d": 5.296604166680481,
      "v": 13
    },
    {
      "midi": 82,
      "hit": false,
      "t": 217864.16100003192,
      "d": 5.296604166680481,
      "v": 9
    },
    {
      "midi": 74,
      "hit": false,
      "t": 217864.16100003192,
      "d": 31.779625000053784,
      "v": 104
    },
    {
      "midi": 73,
      "hit": false,
      "t": 217864.16100003192,
      "d": 121.82189583338914,
      "v": 124
    },
    {
      "midi": 45,
      "hit": false,
      "t": 217874.75420836528,
      "d": 206.56756250013132,
      "v": 65
    },
    {
      "midi": 33,
      "hit": false,
      "t": 217874.75420836528,
      "d": 233.05058333347552,
      "v": 80
    },
    {
      "midi": 21,
      "hit": false,
      "t": 217874.75420836528,
      "d": 238.347187500156,
      "v": 100
    },
    {
      "midi": 62,
      "hit": false,
      "t": 217959.49987503196,
      "d": 148.30491666679154,
      "v": 124
    },
    {
      "midi": 98,
      "hit": false,
      "t": 217985.9828958653,
      "d": 10.593208333360963,
      "v": 97
    },
    {
      "midi": 100,
      "hit": false,
      "t": 217985.9828958653,
      "d": 10.593208333360963,
      "v": 81
    },
    {
      "midi": 105,
      "hit": false,
      "t": 217985.9828958653,
      "d": 10.593208333360963,
      "v": 91
    },
    {
      "midi": 82,
      "hit": false,
      "t": 217991.279500032,
      "d": 5.296604166680481,
      "v": 36
    },
    {
      "midi": 74,
      "hit": false,
      "t": 217991.279500032,
      "d": 31.779625000082888,
      "v": 49
    },
    {
      "midi": 61,
      "hit": false,
      "t": 218001.87270836535,
      "d": 5.296604166680481,
      "v": 44
    },
    {
      "midi": 77,
      "hit": false,
      "t": 218012.4659166987,
      "d": 5.296604166680481,
      "v": 59
    },
    {
      "midi": 64,
      "hit": false,
      "t": 218081.3217708654,
      "d": 105.932083333435,
      "v": 125
    },
    {
      "midi": 76,
      "hit": false,
      "t": 218081.3217708654,
      "d": 105.932083333435,
      "v": 125
    },
    {
      "midi": 42,
      "hit": false,
      "t": 218113.10139586544,
      "d": 5.296604166680481,
      "v": 67
    },
    {
      "midi": 40,
      "hit": false,
      "t": 218118.39800003212,
      "d": 5.296604166680481,
      "v": 93
    },
    {
      "midi": 60,
      "hit": false,
      "t": 218118.39800003212,
      "d": 5.296604166680481,
      "v": 68
    },
    {
      "midi": 77,
      "hit": false,
      "t": 218118.39800003212,
      "d": 5.296604166680481,
      "v": 57
    },
    {
      "midi": 82,
      "hit": false,
      "t": 218118.39800003212,
      "d": 5.296604166680481,
      "v": 7
    },
    {
      "midi": 74,
      "hit": false,
      "t": 218118.39800003212,
      "d": 31.77962500002468,
      "v": 108
    },
    {
      "midi": 71,
      "hit": false,
      "t": 218118.39800003212,
      "d": 280.72002083357074,
      "v": 127
    },
    {
      "midi": 95,
      "hit": false,
      "t": 218118.39800003212,
      "d": 291.3132291669317,
      "v": 96
    },
    {
      "midi": 59,
      "hit": false,
      "t": 218123.6946041988,
      "d": 280.72002083357074,
      "v": 89
    },
    {
      "midi": 35,
      "hit": false,
      "t": 218128.99120836548,
      "d": 63.55925000004936,
      "v": 80
    },
    {
      "midi": 47,
      "hit": false,
      "t": 218128.99120836548,
      "d": 206.56756250013132,
      "v": 65
    },
    {
      "midi": 23,
      "hit": false,
      "t": 218128.99120836548,
      "d": 238.347187500156,
      "v": 100
    },
    {
      "midi": 83,
      "hit": false,
      "t": 218150.17762503214,
      "d": 264.8302083335875,
      "v": 127
    },
    {
      "midi": 66,
      "hit": false,
      "t": 218155.47422919882,
      "d": 143.00831250011106,
      "v": 125
    },
    {
      "midi": 78,
      "hit": false,
      "t": 218155.47422919882,
      "d": 143.00831250011106,
      "v": 125
    },
    {
      "midi": 82,
      "hit": false,
      "t": 218245.5165000322,
      "d": 5.296604166680481,
      "v": 1
    },
    {
      "midi": 74,
      "hit": false,
      "t": 218245.5165000322,
      "d": 31.779625000082888,
      "v": 98
    },
    {
      "midi": 42,
      "hit": false,
      "t": 218250.81310419887,
      "d": 5.296604166680481,
      "v": 43
    },
    {
      "midi": 61,
      "hit": false,
      "t": 218256.10970836555,
      "d": 5.296604166680481,
      "v": 38
    },
    {
      "midi": 77,
      "hit": false,
      "t": 218266.7029166989,
      "d": 5.296604166680481,
      "v": 60
    },
    {
      "midi": 67,
      "hit": false,
      "t": 218271.9995208656,
      "d": 121.82189583341824,
      "v": 125
    },
    {
      "midi": 79,
      "hit": false,
      "t": 218271.9995208656,
      "d": 121.82189583341824,
      "v": 125
    },
    {
      "midi": 69,
      "hit": false,
      "t": 218287.8893333656,
      "d": 153.60152083347202,
      "v": 125
    },
    {
      "midi": 81,
      "hit": false,
      "t": 218287.8893333656,
      "d": 153.60152083347202,
      "v": 125
    },
    {
      "midi": 42,
      "hit": false,
      "t": 218372.63500003231,
      "d": 5.296604166680481,
      "v": 69
    },
    {
      "midi": 61,
      "hit": false,
      "t": 218372.63500003231,
      "d": 5.296604166680481,
      "v": 71
    },
    {
      "midi": 77,
      "hit": false,
      "t": 218372.63500003231,
      "d": 5.296604166680481,
      "v": 13
    },
    {
      "midi": 82,
      "hit": false,
      "t": 218372.63500003231,
      "d": 5.296604166680481,
      "v": 9
    },
    {
      "midi": 74,
      "hit": false,
      "t": 218372.63500003231,
      "d": 31.779625000053784,
      "v": 104
    },
    {
      "midi": 83,
      "hit": false,
      "t": 218415.00783336573,
      "d": 79.4490625000326,
      "v": 126
    },
    {
      "midi": 71,
      "hit": false,
      "t": 218415.00783336573,
      "d": 105.932083333435,
      "v": 126
    },
    {
      "midi": 73,
      "hit": false,
      "t": 218436.1942500324,
      "d": 153.60152083347202,
      "v": 126
    },
    {
      "midi": 85,
      "hit": false,
      "t": 218436.1942500324,
      "d": 153.60152083347202,
      "v": 126
    },
    {
      "midi": 40,
      "hit": false,
      "t": 218499.75350003244,
      "d": 5.296604166680481,
      "v": 93
    },
    {
      "midi": 42,
      "hit": false,
      "t": 218499.75350003244,
      "d": 5.296604166680481,
      "v": 93
    },
    {
      "midi": 82,
      "hit": false,
      "t": 218499.75350003244,
      "d": 5.296604166680481,
      "v": 36
    },
    {
      "midi": 74,
      "hit": false,
      "t": 218499.75350003244,
      "d": 31.779625000082888,
      "v": 126
    },
    {
      "midi": 50,
      "hit": false,
      "t": 218499.75350003244,
      "d": 105.932083333435,
      "v": 88
    },
    {
      "midi": 38,
      "hit": false,
      "t": 218499.75350003244,
      "d": 116.52529166679597,
      "v": 89
    },
    {
      "midi": 26,
      "hit": false,
      "t": 218499.75350003244,
      "d": 121.82189583347645,
      "v": 109
    },
    {
      "midi": 78,
      "hit": false,
      "t": 218499.75350003244,
      "d": 127.11850000015693,
      "v": 95
    },
    {
      "midi": 61,
      "hit": false,
      "t": 218510.3467083658,
      "d": 5.296604166680481,
      "v": 69
    },
    {
      "midi": 98,
      "hit": false,
      "t": 218510.3467083658,
      "d": 121.82189583347645,
      "v": 104
    },
    {
      "midi": 77,
      "hit": false,
      "t": 218520.93991669916,
      "d": 5.296604166680481,
      "v": 50
    },
    {
      "midi": 86,
      "hit": false,
      "t": 218531.53312503253,
      "d": 74.15245833335212,
      "v": 127
    },
    {
      "midi": 35,
      "hit": false,
      "t": 218626.8720000326,
      "d": 74.15245833338122,
      "v": 120
    },
    {
      "midi": 40,
      "hit": false,
      "t": 218753.99050003264,
      "d": 5.296604166680481,
      "v": 93
    },
    {
      "midi": 42,
      "hit": false,
      "t": 218753.99050003264,
      "d": 5.296604166680481,
      "v": 78
    },
    {
      "midi": 66,
      "hit": false,
      "t": 218753.99050003264,
      "d": 84.74566666671308,
      "v": 96
    },
    {
      "midi": 74,
      "hit": false,
      "t": 218753.99050003264,
      "d": 84.74566666671308,
      "v": 96
    },
    {
      "midi": 50,
      "hit": false,
      "t": 218753.99050003264,
      "d": 105.9320833333768,
      "v": 74
    },
    {
      "midi": 38,
      "hit": false,
      "t": 218753.99050003264,
      "d": 116.52529166673776,
      "v": 89
    },
    {
      "midi": 26,
      "hit": false,
      "t": 218753.99050003264,
      "d": 121.82189583341824,
      "v": 109
    },
    {
      "midi": 78,
      "hit": false,
      "t": 218753.99050003264,
      "d": 127.11850000009872,
      "v": 95
    },
    {
      "midi": 57,
      "hit": false,
      "t": 218753.99050003264,
      "d": 248.94039583345875,
      "v": 105
    },
    {
      "midi": 62,
      "hit": false,
      "t": 218753.99050003264,
      "d": 248.94039583345875,
      "v": 105
    },
    {
      "midi": 86,
      "hit": false,
      "t": 218764.583708366,
      "d": 47.669437500007916,
      "v": 89
    },
    {
      "midi": 98,
      "hit": false,
      "t": 218764.583708366,
      "d": 121.82189583341824,
      "v": 91
    },
    {
      "midi": 40,
      "hit": false,
      "t": 219008.22750003278,
      "d": 5.296604166680481,
      "v": 93
    },
    {
      "midi": 42,
      "hit": false,
      "t": 219008.22750003278,
      "d": 5.296604166680481,
      "v": 78
    },
    {
      "midi": 86,
      "hit": false,
      "t": 219008.22750003278,
      "d": 42.37283333335654,
      "v": 121
    },
    {
      "midi": 74,
      "hit": false,
      "t": 219008.22750003278,
      "d": 58.26264583336888,
      "v": 96
    },
    {
      "midi": 66,
      "hit": false,
      "t": 219008.22750003278,
      "d": 68.85585416672984,
      "v": 96
    },
    {
      "midi": 50,
      "hit": false,
      "t": 219008.22750003278,
      "d": 105.9320833334059,
      "v": 74
    },
    {
      "midi": 38,
      "hit": false,
      "t": 219008.22750003278,
      "d": 116.52529166673776,
      "v": 89
    },
    {
      "midi": 26,
      "hit": false,
      "t": 219008.22750003278,
      "d": 121.82189583341824,
      "v": 109
    },
    {
      "midi": 78,
      "hit": false,
      "t": 219008.22750003278,
      "d": 121.82189583341824,
      "v": 95
    },
    {
      "midi": 57,
      "hit": false,
      "t": 219008.22750003278,
      "d": 121.82189583341824,
      "v": 105
    },
    {
      "midi": 62,
      "hit": false,
      "t": 219008.22750003278,
      "d": 121.82189583341824,
      "v": 105
    },
    {
      "midi": 98,
      "hit": false,
      "t": 219018.82070836614,
      "d": 111.22868750005728,
      "v": 91
    },
    {
      "midi": 86,
      "hit": false,
      "t": 219130.0493958662,
      "d": 0,
      "v": 127
    },
    {
      "midi": 42,
      "hit": false,
      "t": 219130.0493958662,
      "d": 5.296604166680481,
      "v": 78
    },
    {
      "midi": 40,
      "hit": false,
      "t": 219135.34600003288,
      "d": 5.296604166680481,
      "v": 93
    },
    {
      "midi": 50,
      "hit": false,
      "t": 219135.34600003288,
      "d": 47.66943750003702,
      "v": 83
    },
    {
      "midi": 38,
      "hit": false,
      "t": 219135.34600003288,
      "d": 52.9660416667175,
      "v": 89
    },
    {
      "midi": 26,
      "hit": false,
      "t": 219135.34600003288,
      "d": 68.85585416672984,
      "v": 109
    },
    {
      "midi": 35,
      "hit": false,
      "t": 219135.34600003288,
      "d": 74.15245833341032,
      "v": 120
    },
    {
      "midi": 66,
      "hit": false,
      "t": 219135.34600003288,
      "d": 100.63547916675452,
      "v": 96
    },
    {
      "midi": 74,
      "hit": false,
      "t": 219135.34600003288,
      "d": 100.63547916675452,
      "v": 96
    },
    {
      "midi": 98,
      "hit": false,
      "t": 219135.34600003288,
      "d": 121.82189583344734,
      "v": 98
    },
    {
      "midi": 57,
      "hit": false,
      "t": 219135.34600003288,
      "d": 121.82189583344734,
      "v": 105
    },
    {
      "midi": 62,
      "hit": false,
      "t": 219135.34600003288,
      "d": 121.82189583344734,
      "v": 105
    },
    {
      "midi": 78,
      "hit": false,
      "t": 219135.34600003288,
      "d": 127.11850000012782,
      "v": 99
    },
    {
      "midi": 86,
      "hit": false,
      "t": 219140.64260419956,
      "d": 58.26264583336888,
      "v": 89
    },
    {
      "midi": 40,
      "hit": false,
      "t": 219389.583000033,
      "d": 5.296604166680481,
      "v": 93
    },
    {
      "midi": 42,
      "hit": false,
      "t": 219389.583000033,
      "d": 5.296604166680481,
      "v": 78
    },
    {
      "midi": 50,
      "hit": false,
      "t": 219389.583000033,
      "d": 47.66943750003702,
      "v": 74
    },
    {
      "midi": 38,
      "hit": false,
      "t": 219389.583000033,
      "d": 52.9660416667175,
      "v": 89
    },
    {
      "midi": 26,
      "hit": false,
      "t": 219389.583000033,
      "d": 68.85585416672984,
      "v": 109
    },
    {
      "midi": 66,
      "hit": false,
      "t": 219389.583000033,
      "d": 90.04227083342266,
      "v": 96
    },
    {
      "midi": 74,
      "hit": false,
      "t": 219389.583000033,
      "d": 90.04227083342266,
      "v": 96
    },
    {
      "midi": 98,
      "hit": false,
      "t": 219389.583000033,
      "d": 121.82189583344734,
      "v": 91
    },
    {
      "midi": 57,
      "hit": false,
      "t": 219389.583000033,
      "d": 121.82189583344734,
      "v": 105
    },
    {
      "midi": 62,
      "hit": false,
      "t": 219389.583000033,
      "d": 121.82189583344734,
      "v": 105
    },
    {
      "midi": 78,
      "hit": false,
      "t": 219389.583000033,
      "d": 169.49133333345526,
      "v": 95
    },
    {
      "midi": 86,
      "hit": false,
      "t": 219394.87960419967,
      "d": 63.55925000004936,
      "v": 89
    },
    {
      "midi": 35,
      "hit": false,
      "t": 219643.82000003313,
      "d": 74.15245833335212,
      "v": 120
    },
    {
      "midi": 66,
      "hit": false,
      "t": 219643.82000003313,
      "d": 95.33887500001583,
      "v": 96
    },
    {
      "midi": 74,
      "hit": false,
      "t": 219643.82000003313,
      "d": 95.33887500001583,
      "v": 96
    },
    {
      "midi": 38,
      "hit": false,
      "t": 219643.82000003313,
      "d": 116.52529166670865,
      "v": 89
    },
    {
      "midi": 98,
      "hit": false,
      "t": 219643.82000003313,
      "d": 121.82189583338914,
      "v": 101
    },
    {
      "midi": 57,
      "hit": false,
      "t": 219643.82000003313,
      "d": 121.82189583338914,
      "v": 105
    },
    {
      "midi": 64,
      "hit": false,
      "t": 219643.82000003313,
      "d": 121.82189583338914,
      "v": 100
    },
    {
      "midi": 50,
      "hit": false,
      "t": 219643.82000003313,
      "d": 217.16077083340497,
      "v": 92
    },
    {
      "midi": 78,
      "hit": false,
      "t": 219643.82000003313,
      "d": 254.23700000008103,
      "v": 104
    },
    {
      "midi": 69,
      "hit": false,
      "t": 219643.82000003313,
      "d": 677.9653333334427,
      "v": 127
    },
    {
      "midi": 81,
      "hit": false,
      "t": 219643.82000003313,
      "d": 677.9653333334427,
      "v": 112
    },
    {
      "midi": 86,
      "hit": false,
      "t": 219649.1166041998,
      "d": 79.44906250000349,
      "v": 89
    },
    {
      "midi": 14,
      "hit": false,
      "t": 220072.84493753323,
      "d": 1011.6513958332944,
      "v": 127
    },
    {
      "midi": 26,
      "hit": false,
      "t": 220072.84493753323,
      "d": 1011.6513958332944,
      "v": 112
    }
  ]
}