{
  "jsonPath": "Unknown/Unknown/Golden Quartet/take-a-change-on-me.json",
  "path": "Unknown\\Unknown\\Golden Quartet\\TAKE A CHANGE ON ME.mid",
  "name": "TAKE A CHANGE ON ME",
  "difficulty": "Advanced",
  "bpm": 120,
  "notes": [
    {
      "midi": 63,
      "hit": false,
      "t": 21005.208333333332,
      "d": 695.3125,
      "v": 104
    },
    {
      "midi": 66,
      "hit": false,
      "t": 21005.208333333332,
      "d": 697.9166666666679,
      "v": 99
    },
    {
      "midi": 59,
      "hit": false,
      "t": 21005.208333333332,
      "d": 705.7291666666679,
      "v": 104
    },
    {
      "midi": 59,
      "hit": false,
      "t": 22005.208333333332,
      "d": 98.95833333333212,
      "v": 97
    },
    {
      "midi": 63,
      "hit": false,
      "t": 22005.208333333332,
      "d": 98.95833333333212,
      "v": 95
    },
    {
      "midi": 66,
      "hit": false,
      "t": 22005.208333333332,
      "d": 98.95833333333212,
      "v": 95
    },
    {
      "midi": 63,
      "hit": false,
      "t": 22255.208333333332,
      "d": 346.3541666666679,
      "v": 99
    },
    {
      "midi": 66,
      "hit": false,
      "t": 22255.208333333332,
      "d": 354.1666666666679,
      "v": 97
    },
    {
      "midi": 59,
      "hit": false,
      "t": 22255.208333333332,
      "d": 356.77083333333576,
      "v": 97
    },
    {
      "midi": 63,
      "hit": false,
      "t": 23005.208333333332,
      "d": 531.25,
      "v": 99
    },
    {
      "midi": 59,
      "hit": false,
      "t": 23005.208333333332,
      "d": 536.4583333333321,
      "v": 97
    },
    {
      "midi": 66,
      "hit": false,
      "t": 23005.208333333332,
      "d": 539.0625,
      "v": 99
    },
    {
      "midi": 59,
      "hit": false,
      "t": 24005.208333333332,
      "d": 98.95833333333212,
      "v": 91
    },
    {
      "midi": 63,
      "hit": false,
      "t": 24005.208333333332,
      "d": 98.95833333333212,
      "v": 93
    },
    {
      "midi": 66,
      "hit": false,
      "t": 24005.208333333332,
      "d": 98.95833333333212,
      "v": 89
    },
    {
      "midi": 63,
      "hit": false,
      "t": 24255.208333333332,
      "d": 330.72916666666424,
      "v": 93
    },
    {
      "midi": 66,
      "hit": false,
      "t": 24255.208333333332,
      "d": 343.74999999999636,
      "v": 97
    },
    {
      "midi": 59,
      "hit": false,
      "t": 24255.208333333332,
      "d": 346.35416666666424,
      "v": 95
    },
    {
      "midi": 63,
      "hit": false,
      "t": 25005.20833333333,
      "d": 526.0416666666642,
      "v": 95
    },
    {
      "midi": 66,
      "hit": false,
      "t": 25005.20833333333,
      "d": 528.6458333333321,
      "v": 95
    },
    {
      "midi": 59,
      "hit": false,
      "t": 25005.20833333333,
      "d": 536.4583333333321,
      "v": 95
    },
    {
      "midi": 59,
      "hit": false,
      "t": 26005.208333333325,
      "d": 98.95833333333212,
      "v": 89
    },
    {
      "midi": 63,
      "hit": false,
      "t": 26005.208333333325,
      "d": 98.95833333333212,
      "v": 89
    },
    {
      "midi": 66,
      "hit": false,
      "t": 26005.208333333325,
      "d": 98.95833333333212,
      "v": 87
    },
    {
      "midi": 63,
      "hit": false,
      "t": 26255.208333333325,
      "d": 315.10416666666424,
      "v": 95
    },
    {
      "midi": 59,
      "hit": false,
      "t": 26255.208333333325,
      "d": 322.91666666666424,
      "v": 91
    },
    {
      "midi": 66,
      "hit": false,
      "t": 26255.208333333325,
      "d": 322.91666666666424,
      "v": 93
    },
    {
      "midi": 61,
      "hit": false,
      "t": 27005.20833333332,
      "d": 572.9166666666642,
      "v": 95
    },
    {
      "midi": 58,
      "hit": false,
      "t": 27005.20833333332,
      "d": 591.1458333333321,
      "v": 95
    },
    {
      "midi": 66,
      "hit": false,
      "t": 27005.20833333332,
      "d": 593.75,
      "v": 97
    },
    {
      "midi": 58,
      "hit": false,
      "t": 28005.20833333332,
      "d": 98.95833333333212,
      "v": 90
    },
    {
      "midi": 61,
      "hit": false,
      "t": 28005.20833333332,
      "d": 98.95833333333212,
      "v": 92
    },
    {
      "midi": 66,
      "hit": false,
      "t": 28005.20833333332,
      "d": 98.95833333333212,
      "v": 90
    },
    {
      "midi": 61,
      "hit": false,
      "t": 28255.20833333332,
      "d": 388.0208333333321,
      "v": 93
    },
    {
      "midi": 66,
      "hit": false,
      "t": 28255.20833333332,
      "d": 395.8333333333321,
      "v": 91
    },
    {
      "midi": 58,
      "hit": false,
      "t": 28255.20833333332,
      "d": 401.04166666666424,
      "v": 95
    },
    {
      "midi": 61,
      "hit": false,
      "t": 29005.208333333318,
      "d": 601.5625,
      "v": 93
    },
    {
      "midi": 66,
      "hit": false,
      "t": 29005.208333333318,
      "d": 609.375,
      "v": 99
    },
    {
      "midi": 58,
      "hit": false,
      "t": 29005.208333333318,
      "d": 617.1875,
      "v": 95
    },
    {
      "midi": 58,
      "hit": false,
      "t": 30005.208333333318,
      "d": 98.95833333333212,
      "v": 89
    },
    {
      "midi": 61,
      "hit": false,
      "t": 30005.208333333318,
      "d": 98.95833333333212,
      "v": 84
    },
    {
      "midi": 66,
      "hit": false,
      "t": 30005.208333333318,
      "d": 98.95833333333212,
      "v": 82
    },
    {
      "midi": 61,
      "hit": false,
      "t": 30255.208333333318,
      "d": 364.5833333333321,
      "v": 87
    },
    {
      "midi": 66,
      "hit": false,
      "t": 30255.208333333318,
      "d": 375,
      "v": 87
    },
    {
      "midi": 58,
      "hit": false,
      "t": 30255.208333333318,
      "d": 377.6041666666679,
      "v": 89
    },
    {
      "midi": 61,
      "hit": false,
      "t": 31005.208333333318,
      "d": 580.7291666666679,
      "v": 93
    },
    {
      "midi": 66,
      "hit": false,
      "t": 31005.208333333318,
      "d": 588.5416666666679,
      "v": 89
    },
    {
      "midi": 58,
      "hit": false,
      "t": 31005.208333333318,
      "d": 593.75,
      "v": 95
    },
    {
      "midi": 58,
      "hit": false,
      "t": 32005.208333333318,
      "d": 98.95833333333212,
      "v": 89
    },
    {
      "midi": 61,
      "hit": false,
      "t": 32005.208333333318,
      "d": 98.95833333333212,
      "v": 83
    },
    {
      "midi": 66,
      "hit": false,
      "t": 32005.208333333318,
      "d": 98.95833333333212,
      "v": 80
    },
    {
      "midi": 61,
      "hit": false,
      "t": 32255.208333333318,
      "d": 338.54166666666424,
      "v": 93
    },
    {
      "midi": 58,
      "hit": false,
      "t": 32255.208333333318,
      "d": 348.9583333333321,
      "v": 89
    },
    {
      "midi": 66,
      "hit": false,
      "t": 32255.208333333318,
      "d": 364.5833333333321,
      "v": 89
    },
    {
      "midi": 61,
      "hit": false,
      "t": 33005.20833333332,
      "d": 611.9791666666642,
      "v": 91
    },
    {
      "midi": 58,
      "hit": false,
      "t": 33005.20833333332,
      "d": 630.2083333333285,
      "v": 89
    },
    {
      "midi": 66,
      "hit": false,
      "t": 33005.20833333332,
      "d": 643.2291666666642,
      "v": 84
    },
    {
      "midi": 63,
      "hit": false,
      "t": 34005.208333333314,
      "d": 645.8333333333285,
      "v": 97
    },
    {
      "midi": 66,
      "hit": false,
      "t": 34005.208333333314,
      "d": 645.8333333333285,
      "v": 89
    },
    {
      "midi": 59,
      "hit": false,
      "t": 34005.208333333314,
      "d": 658.8541666666642,
      "v": 91
    },
    {
      "midi": 59,
      "hit": false,
      "t": 35005.208333333314,
      "d": 98.95833333333576,
      "v": 89
    },
    {
      "midi": 63,
      "hit": false,
      "t": 35005.208333333314,
      "d": 98.95833333333576,
      "v": 89
    },
    {
      "midi": 66,
      "hit": false,
      "t": 35005.208333333314,
      "d": 98.95833333333576,
      "v": 85
    },
    {
      "midi": 59,
      "hit": false,
      "t": 35255.208333333314,
      "d": 700.5208333333358,
      "v": 91
    },
    {
      "midi": 63,
      "hit": false,
      "t": 35255.208333333314,
      "d": 703.125,
      "v": 91
    },
    {
      "midi": 66,
      "hit": false,
      "t": 35255.208333333314,
      "d": 716.1458333333358,
      "v": 91
    },
    {
      "midi": 49,
      "hit": false,
      "t": 36005.208333333314,
      "d": 1973.9583333333285,
      "v": 94
    },
    {
      "midi": 64,
      "hit": false,
      "t": 36255.208333333314,
      "d": 828.125,
      "v": 99
    },
    {
      "midi": 68,
      "hit": false,
      "t": 36255.208333333314,
      "d": 846.3541666666642,
      "v": 91
    },
    {
      "midi": 61,
      "hit": false,
      "t": 36255.208333333314,
      "d": 848.9583333333285,
      "v": 97
    },
    {
      "midi": 61,
      "hit": false,
      "t": 37255.20833333331,
      "d": 231.77083333333576,
      "v": 102
    },
    {
      "midi": 68,
      "hit": false,
      "t": 37255.20833333331,
      "d": 244.79166666667152,
      "v": 99
    },
    {
      "midi": 64,
      "hit": false,
      "t": 37255.20833333331,
      "d": 247.39583333333576,
      "v": 103
    },
    {
      "midi": 42,
      "hit": false,
      "t": 38005.20833333331,
      "d": 2028.6458333333358,
      "v": 102
    },
    {
      "midi": 61,
      "hit": false,
      "t": 38255.20833333331,
      "d": 833.3333333333358,
      "v": 97
    },
    {
      "midi": 58,
      "hit": false,
      "t": 38255.20833333331,
      "d": 843.75,
      "v": 99
    },
    {
      "midi": 66,
      "hit": false,
      "t": 38255.20833333331,
      "d": 856.7708333333358,
      "v": 91
    },
    {
      "midi": 58,
      "hit": false,
      "t": 39255.20833333331,
      "d": 203.125,
      "v": 99
    },
    {
      "midi": 61,
      "hit": false,
      "t": 39255.20833333331,
      "d": 218.75,
      "v": 95
    },
    {
      "midi": 66,
      "hit": false,
      "t": 39255.20833333331,
      "d": 226.5625,
      "v": 93
    },
    {
      "midi": 49,
      "hit": false,
      "t": 40005.20833333331,
      "d": 1989.583333333343,
      "v": 97
    },
    {
      "midi": 64,
      "hit": false,
      "t": 40255.20833333331,
      "d": 872.3958333333358,
      "v": 99
    },
    {
      "midi": 61,
      "hit": false,
      "t": 40255.20833333331,
      "d": 877.6041666666715,
      "v": 97
    },
    {
      "midi": 68,
      "hit": false,
      "t": 40255.20833333331,
      "d": 877.6041666666715,
      "v": 91
    },
    {
      "midi": 68,
      "hit": false,
      "t": 41255.208333333314,
      "d": 177.08333333333576,
      "v": 95
    },
    {
      "midi": 64,
      "hit": false,
      "t": 41255.208333333314,
      "d": 184.89583333333576,
      "v": 99
    },
    {
      "midi": 61,
      "hit": false,
      "t": 41255.208333333314,
      "d": 187.5,
      "v": 95
    },
    {
      "midi": 42,
      "hit": false,
      "t": 42005.208333333314,
      "d": 1575.5208333333285,
      "v": 95
    },
    {
      "midi": 61,
      "hit": false,
      "t": 42255.208333333314,
      "d": 846.3541666666642,
      "v": 95
    },
    {
      "midi": 58,
      "hit": false,
      "t": 42255.208333333314,
      "d": 848.9583333333285,
      "v": 95
    },
    {
      "midi": 66,
      "hit": false,
      "t": 42255.208333333314,
      "d": 864.5833333333285,
      "v": 91
    },
    {
      "midi": 66,
      "hit": false,
      "t": 43255.20833333331,
      "d": 203.125,
      "v": 97
    },
    {
      "midi": 58,
      "hit": false,
      "t": 43255.20833333331,
      "d": 208.33333333333576,
      "v": 99
    },
    {
      "midi": 61,
      "hit": false,
      "t": 43255.20833333331,
      "d": 223.95833333333576,
      "v": 99
    },
    {
      "midi": 61,
      "hit": false,
      "t": 44005.20833333331,
      "d": 3453.125,
      "v": 93
    },
    {
      "midi": 68,
      "hit": false,
      "t": 44005.20833333331,
      "d": 3460.9375,
      "v": 94
    },
    {
      "midi": 64,
      "hit": false,
      "t": 44005.20833333331,
      "d": 3471.3541666666642,
      "v": 97
    },
    {
      "midi": 59,
      "hit": false,
      "t": 48005.20833333331,
      "d": 3440.1041666666642,
      "v": 96
    },
    {
      "midi": 63,
      "hit": false,
      "t": 48005.20833333331,
      "d": 3447.9166666666642,
      "v": 96
    },
    {
      "midi": 66,
      "hit": false,
      "t": 48005.20833333331,
      "d": 3447.9166666666642,
      "v": 107
    },
    {
      "midi": 61,
      "hit": false,
      "t": 52005.20833333331,
      "d": 3453.125,
      "v": 93
    },
    {
      "midi": 68,
      "hit": false,
      "t": 52005.20833333331,
      "d": 3460.9375,
      "v": 94
    },
    {
      "midi": 64,
      "hit": false,
      "t": 52005.20833333331,
      "d": 3471.3541666666642,
      "v": 97
    },
    {
      "midi": 59,
      "hit": false,
      "t": 56005.20833333331,
      "d": 3440.1041666666642,
      "v": 96
    },
    {
      "midi": 63,
      "hit": false,
      "t": 56005.20833333331,
      "d": 3447.9166666666642,
      "v": 96
    },
    {
      "midi": 66,
      "hit": false,
      "t": 56005.20833333331,
      "d": 3447.9166666666642,
      "v": 107
    },
    {
      "midi": 68,
      "hit": false,
      "t": 60005.20833333331,
      "d": 1067.7083333333358,
      "v": 93
    },
    {
      "midi": 71,
      "hit": false,
      "t": 60005.20833333331,
      "d": 1083.3333333333358,
      "v": 95
    },
    {
      "midi": 63,
      "hit": false,
      "t": 60005.20833333331,
      "d": 1148.4375,
      "v": 100
    },
    {
      "midi": 56,
      "hit": false,
      "t": 60005.20833333331,
      "d": 1669.2708333333358,
      "v": 88
    },
    {
      "midi": 63,
      "hit": false,
      "t": 61255.20833333331,
      "d": 554.6875,
      "v": 98
    },
    {
      "midi": 68,
      "hit": false,
      "t": 61255.20833333331,
      "d": 562.5,
      "v": 95
    },
    {
      "midi": 71,
      "hit": false,
      "t": 61255.20833333331,
      "d": 562.5,
      "v": 98
    },
    {
      "midi": 56,
      "hit": false,
      "t": 61755.20833333331,
      "d": 210.9375,
      "v": 95
    },
    {
      "midi": 64,
      "hit": false,
      "t": 62005.20833333331,
      "d": 1395.8333333333358,
      "v": 100
    },
    {
      "midi": 68,
      "hit": false,
      "t": 62005.20833333331,
      "d": 1416.6666666666715,
      "v": 100
    },
    {
      "midi": 71,
      "hit": false,
      "t": 62005.20833333331,
      "d": 1421.8750000000073,
      "v": 98
    },
    {
      "midi": 52,
      "hit": false,
      "t": 62005.20833333331,
      "d": 1533.8541666666715,
      "v": 98
    },
    {
      "midi": 64,
      "hit": false,
      "t": 63505.208333333314,
      "d": 244.79166666666424,
      "v": 95
    },
    {
      "midi": 68,
      "hit": false,
      "t": 63505.208333333314,
      "d": 263.02083333333576,
      "v": 102
    },
    {
      "midi": 71,
      "hit": false,
      "t": 63505.208333333314,
      "d": 268.2291666666715,
      "v": 100
    },
    {
      "midi": 52,
      "hit": false,
      "t": 63755.208333333314,
      "d": 255.20833333334303,
      "v": 100
    },
    {
      "midi": 71,
      "hit": false,
      "t": 64005.20833333332,
      "d": 755.2083333333358,
      "v": 95
    },
    {
      "midi": 63,
      "hit": false,
      "t": 64005.20833333332,
      "d": 791.6666666666715,
      "v": 100
    },
    {
      "midi": 68,
      "hit": false,
      "t": 64005.20833333332,
      "d": 802.0833333333358,
      "v": 95
    },
    {
      "midi": 56,
      "hit": false,
      "t": 64005.20833333332,
      "d": 976.5625,
      "v": 98
    },
    {
      "midi": 64,
      "hit": false,
      "t": 65005.20833333332,
      "d": 335.9375,
      "v": 98
    },
    {
      "midi": 71,
      "hit": false,
      "t": 65005.20833333332,
      "d": 361.97916666666424,
      "v": 95
    },
    {
      "midi": 68,
      "hit": false,
      "t": 65005.20833333332,
      "d": 437.5,
      "v": 100
    },
    {
      "midi": 52,
      "hit": false,
      "t": 65005.20833333332,
      "d": 479.16666666666424,
      "v": 100
    },
    {
      "midi": 61,
      "hit": false,
      "t": 65505.20833333332,
      "d": 315.10416666666424,
      "v": 95
    },
    {
      "midi": 66,
      "hit": false,
      "t": 65505.20833333332,
      "d": 333.33333333333576,
      "v": 93
    },
    {
      "midi": 70,
      "hit": false,
      "t": 65505.20833333332,
      "d": 341.14583333333576,
      "v": 95
    },
    {
      "midi": 54,
      "hit": false,
      "t": 65505.20833333332,
      "d": 502.6041666666788,
      "v": 93
    },
    {
      "midi": 71,
      "hit": false,
      "t": 66005.20833333333,
      "d": 1361.9791666666715,
      "v": 100
    },
    {
      "midi": 63,
      "hit": false,
      "t": 66005.20833333333,
      "d": 1375,
      "v": 102
    },
    {
      "midi": 68,
      "hit": false,
      "t": 66005.20833333333,
      "d": 1388.0208333333285,
      "v": 100
    },
    {
      "midi": 56,
      "hit": false,
      "t": 66005.20833333333,
      "d": 1539.0625,
      "v": 100
    },
    {
      "midi": 71,
      "hit": false,
      "t": 67505.20833333333,
      "d": 299.4791666666715,
      "v": 93
    },
    {
      "midi": 63,
      "hit": false,
      "t": 67505.20833333333,
      "d": 335.9375,
      "v": 102
    },
    {
      "midi": 68,
      "hit": false,
      "t": 67505.20833333333,
      "d": 351.5625,
      "v": 98
    },
    {
      "midi": 56,
      "hit": false,
      "t": 67755.20833333333,
      "d": 216.14583333332848,
      "v": 98
    },
    {
      "midi": 71,
      "hit": false,
      "t": 68005.20833333333,
      "d": 1429.6875,
      "v": 102
    },
    {
      "midi": 64,
      "hit": false,
      "t": 68005.20833333333,
      "d": 1442.7083333333285,
      "v": 95
    },
    {
      "midi": 68,
      "hit": false,
      "t": 68005.20833333333,
      "d": 1442.7083333333285,
      "v": 97
    },
    {
      "midi": 52,
      "hit": false,
      "t": 68005.20833333333,
      "d": 1575.5208333333285,
      "v": 102
    },
    {
      "midi": 68,
      "hit": false,
      "t": 69505.20833333333,
      "d": 294.2708333333285,
      "v": 102
    },
    {
      "midi": 71,
      "hit": false,
      "t": 69505.20833333333,
      "d": 299.47916666665697,
      "v": 93
    },
    {
      "midi": 64,
      "hit": false,
      "t": 69505.20833333333,
      "d": 338.54166666665697,
      "v": 100
    },
    {
      "midi": 52,
      "hit": false,
      "t": 69755.20833333333,
      "d": 265.62499999998545,
      "v": 95
    },
    {
      "midi": 64,
      "hit": false,
      "t": 70005.20833333331,
      "d": 1408.8541666666715,
      "v": 93
    },
    {
      "midi": 68,
      "hit": false,
      "t": 70005.20833333331,
      "d": 1414.0625,
      "v": 98
    },
    {
      "midi": 73,
      "hit": false,
      "t": 70005.20833333331,
      "d": 1416.6666666666715,
      "v": 95
    },
    {
      "midi": 49,
      "hit": false,
      "t": 70005.20833333331,
      "d": 1942.7083333333285,
      "v": 102
    },
    {
      "midi": 73,
      "hit": false,
      "t": 71505.20833333331,
      "d": 289.0625,
      "v": 98
    },
    {
      "midi": 64,
      "hit": false,
      "t": 71505.20833333331,
      "d": 302.0833333333285,
      "v": 100
    },
    {
      "midi": 68,
      "hit": false,
      "t": 71505.20833333331,
      "d": 320.3125,
      "v": 94
    },
    {
      "midi": 73,
      "hit": false,
      "t": 72005.20833333331,
      "d": 1354.1666666666715,
      "v": 102
    },
    {
      "midi": 66,
      "hit": false,
      "t": 72005.20833333331,
      "d": 1359.375,
      "v": 95
    },
    {
      "midi": 70,
      "hit": false,
      "t": 72005.20833333331,
      "d": 1375,
      "v": 102
    },
    {
      "midi": 54,
      "hit": false,
      "t": 72005.20833333331,
      "d": 1552.0833333333285,
      "v": 98
    },
    {
      "midi": 66,
      "hit": false,
      "t": 73505.20833333331,
      "d": 286.4583333333285,
      "v": 95
    },
    {
      "midi": 73,
      "hit": false,
      "t": 73505.20833333331,
      "d": 304.6875,
      "v": 100
    },
    {
      "midi": 70,
      "hit": false,
      "t": 73505.20833333331,
      "d": 343.75,
      "v": 98
    },
    {
      "midi": 54,
      "hit": false,
      "t": 73755.20833333331,
      "d": 197.91666666667152,
      "v": 100
    },
    {
      "midi": 64,
      "hit": false,
      "t": 74005.20833333331,
      "d": 1731.7708333333285,
      "v": 98
    },
    {
      "midi": 73,
      "hit": false,
      "t": 74005.20833333331,
      "d": 1783.854166666657,
      "v": 102
    },
    {
      "midi": 68,
      "hit": false,
      "t": 74005.20833333331,
      "d": 1786.4583333333285,
      "v": 102
    },
    {
      "midi": 49,
      "hit": false,
      "t": 74005.20833333331,
      "d": 1979.166666666657,
      "v": 102
    },
    {
      "midi": 66,
      "hit": false,
      "t": 76005.2083333333,
      "d": 700.5208333333285,
      "v": 93
    },
    {
      "midi": 70,
      "hit": false,
      "t": 76005.2083333333,
      "d": 708.3333333333285,
      "v": 95
    },
    {
      "midi": 73,
      "hit": false,
      "t": 76005.2083333333,
      "d": 708.3333333333285,
      "v": 93
    },
    {
      "midi": 54,
      "hit": false,
      "t": 76005.2083333333,
      "d": 770.8333333333285,
      "v": 100
    },
    {
      "midi": 63,
      "hit": false,
      "t": 78005.2083333333,
      "d": 695.3125,
      "v": 104
    },
    {
      "midi": 66,
      "hit": false,
      "t": 78005.2083333333,
      "d": 697.9166666666715,
      "v": 99
    },
    {
      "midi": 59,
      "hit": false,
      "t": 78005.2083333333,
      "d": 705.7291666666715,
      "v": 104
    },
    {
      "midi": 59,
      "hit": false,
      "t": 79005.2083333333,
      "d": 98.95833333332848,
      "v": 97
    },
    {
      "midi": 63,
      "hit": false,
      "t": 79005.2083333333,
      "d": 98.95833333332848,
      "v": 95
    },
    {
      "midi": 66,
      "hit": false,
      "t": 79005.2083333333,
      "d": 98.95833333332848,
      "v": 95
    },
    {
      "midi": 63,
      "hit": false,
      "t": 79255.2083333333,
      "d": 346.3541666666715,
      "v": 99
    },
    {
      "midi": 66,
      "hit": false,
      "t": 79255.2083333333,
      "d": 354.1666666666715,
      "v": 97
    },
    {
      "midi": 59,
      "hit": false,
      "t": 79255.2083333333,
      "d": 356.77083333334303,
      "v": 97
    },
    {
      "midi": 63,
      "hit": false,
      "t": 80005.2083333333,
      "d": 531.25,
      "v": 99
    },
    {
      "midi": 59,
      "hit": false,
      "t": 80005.2083333333,
      "d": 536.4583333333285,
      "v": 97
    },
    {
      "midi": 66,
      "hit": false,
      "t": 80005.2083333333,
      "d": 539.0625,
      "v": 99
    },
    {
      "midi": 59,
      "hit": false,
      "t": 81005.2083333333,
      "d": 98.95833333332848,
      "v": 91
    },
    {
      "midi": 63,
      "hit": false,
      "t": 81005.2083333333,
      "d": 98.95833333332848,
      "v": 93
    },
    {
      "midi": 66,
      "hit": false,
      "t": 81005.2083333333,
      "d": 98.95833333332848,
      "v": 89
    },
    {
      "midi": 63,
      "hit": false,
      "t": 81255.2083333333,
      "d": 330.72916666665697,
      "v": 93
    },
    {
      "midi": 66,
      "hit": false,
      "t": 81255.2083333333,
      "d": 343.74999999998545,
      "v": 97
    },
    {
      "midi": 59,
      "hit": false,
      "t": 81255.2083333333,
      "d": 346.35416666665697,
      "v": 95
    },
    {
      "midi": 63,
      "hit": false,
      "t": 82005.20833333328,
      "d": 526.041666666657,
      "v": 95
    },
    {
      "midi": 66,
      "hit": false,
      "t": 82005.20833333328,
      "d": 528.6458333333285,
      "v": 95
    },
    {
      "midi": 59,
      "hit": false,
      "t": 82005.20833333328,
      "d": 536.4583333333285,
      "v": 95
    },
    {
      "midi": 59,
      "hit": false,
      "t": 83005.20833333327,
      "d": 98.95833333332848,
      "v": 89
    },
    {
      "midi": 63,
      "hit": false,
      "t": 83005.20833333327,
      "d": 98.95833333332848,
      "v": 89
    },
    {
      "midi": 66,
      "hit": false,
      "t": 83005.20833333327,
      "d": 98.95833333332848,
      "v": 87
    },
    {
      "midi": 63,
      "hit": false,
      "t": 83255.20833333327,
      "d": 315.10416666665697,
      "v": 95
    },
    {
      "midi": 59,
      "hit": false,
      "t": 83255.20833333327,
      "d": 322.91666666665697,
      "v": 91
    },
    {
      "midi": 66,
      "hit": false,
      "t": 83255.20833333327,
      "d": 322.91666666665697,
      "v": 93
    },
    {
      "midi": 61,
      "hit": false,
      "t": 84005.20833333326,
      "d": 572.916666666657,
      "v": 95
    },
    {
      "midi": 58,
      "hit": false,
      "t": 84005.20833333326,
      "d": 591.1458333333285,
      "v": 95
    },
    {
      "midi": 66,
      "hit": false,
      "t": 84005.20833333326,
      "d": 593.75,
      "v": 97
    },
    {
      "midi": 58,
      "hit": false,
      "t": 85005.20833333326,
      "d": 98.95833333332848,
      "v": 90
    },
    {
      "midi": 61,
      "hit": false,
      "t": 85005.20833333326,
      "d": 98.95833333332848,
      "v": 92
    },
    {
      "midi": 66,
      "hit": false,
      "t": 85005.20833333326,
      "d": 98.95833333332848,
      "v": 90
    },
    {
      "midi": 61,
      "hit": false,
      "t": 85255.20833333326,
      "d": 388.0208333333285,
      "v": 93
    },
    {
      "midi": 66,
      "hit": false,
      "t": 85255.20833333326,
      "d": 395.8333333333285,
      "v": 91
    },
    {
      "midi": 58,
      "hit": false,
      "t": 85255.20833333326,
      "d": 401.04166666665697,
      "v": 95
    },
    {
      "midi": 61,
      "hit": false,
      "t": 86005.20833333324,
      "d": 601.5625,
      "v": 93
    },
    {
      "midi": 66,
      "hit": false,
      "t": 86005.20833333324,
      "d": 609.375,
      "v": 99
    },
    {
      "midi": 58,
      "hit": false,
      "t": 86005.20833333324,
      "d": 617.1875,
      "v": 95
    },
    {
      "midi": 58,
      "hit": false,
      "t": 87005.20833333324,
      "d": 98.95833333332848,
      "v": 89
    },
    {
      "midi": 61,
      "hit": false,
      "t": 87005.20833333324,
      "d": 98.95833333332848,
      "v": 84
    },
    {
      "midi": 66,
      "hit": false,
      "t": 87005.20833333324,
      "d": 98.95833333332848,
      "v": 82
    },
    {
      "midi": 61,
      "hit": false,
      "t": 87255.20833333324,
      "d": 364.5833333333285,
      "v": 87
    },
    {
      "midi": 66,
      "hit": false,
      "t": 87255.20833333324,
      "d": 375,
      "v": 87
    },
    {
      "midi": 58,
      "hit": false,
      "t": 87255.20833333324,
      "d": 377.6041666666715,
      "v": 89
    },
    {
      "midi": 61,
      "hit": false,
      "t": 88005.20833333324,
      "d": 580.7291666666715,
      "v": 93
    },
    {
      "midi": 66,
      "hit": false,
      "t": 88005.20833333324,
      "d": 588.5416666666715,
      "v": 89
    },
    {
      "midi": 58,
      "hit": false,
      "t": 88005.20833333324,
      "d": 593.75,
      "v": 95
    },
    {
      "midi": 58,
      "hit": false,
      "t": 89005.20833333324,
      "d": 98.95833333332848,
      "v": 89
    },
    {
      "midi": 61,
      "hit": false,
      "t": 89005.20833333324,
      "d": 98.95833333332848,
      "v": 83
    },
    {
      "midi": 66,
      "hit": false,
      "t": 89005.20833333324,
      "d": 98.95833333332848,
      "v": 80
    },
    {
      "midi": 61,
      "hit": false,
      "t": 89255.20833333324,
      "d": 338.54166666665697,
      "v": 93
    },
    {
      "midi": 58,
      "hit": false,
      "t": 89255.20833333324,
      "d": 348.9583333333285,
      "v": 89
    },
    {
      "midi": 66,
      "hit": false,
      "t": 89255.20833333324,
      "d": 364.5833333333285,
      "v": 89
    },
    {
      "midi": 61,
      "hit": false,
      "t": 90005.20833333323,
      "d": 611.9791666666715,
      "v": 91
    },
    {
      "midi": 58,
      "hit": false,
      "t": 90005.20833333323,
      "d": 630.208333333343,
      "v": 89
    },
    {
      "midi": 66,
      "hit": false,
      "t": 90005.20833333323,
      "d": 643.2291666666715,
      "v": 84
    },
    {
      "midi": 63,
      "hit": false,
      "t": 91005.20833333324,
      "d": 695.3125,
      "v": 104
    },
    {
      "midi": 66,
      "hit": false,
      "t": 91005.20833333324,
      "d": 697.9166666666715,
      "v": 99
    },
    {
      "midi": 59,
      "hit": false,
      "t": 91005.20833333324,
      "d": 705.7291666666715,
      "v": 104
    },
    {
      "midi": 59,
      "hit": false,
      "t": 92005.20833333324,
      "d": 98.95833333332848,
      "v": 97
    },
    {
      "midi": 63,
      "hit": false,
      "t": 92005.20833333324,
      "d": 98.95833333332848,
      "v": 95
    },
    {
      "midi": 66,
      "hit": false,
      "t": 92005.20833333324,
      "d": 98.95833333332848,
      "v": 95
    },
    {
      "midi": 63,
      "hit": false,
      "t": 92255.20833333324,
      "d": 346.3541666666715,
      "v": 99
    },
    {
      "midi": 66,
      "hit": false,
      "t": 92255.20833333324,
      "d": 354.1666666666715,
      "v": 97
    },
    {
      "midi": 59,
      "hit": false,
      "t": 92255.20833333324,
      "d": 356.77083333334303,
      "v": 97
    },
    {
      "midi": 63,
      "hit": false,
      "t": 93005.20833333324,
      "d": 695.3125,
      "v": 104
    },
    {
      "midi": 66,
      "hit": false,
      "t": 93005.20833333324,
      "d": 697.9166666666715,
      "v": 99
    },
    {
      "midi": 59,
      "hit": false,
      "t": 93005.20833333324,
      "d": 705.7291666666715,
      "v": 104
    },
    {
      "midi": 59,
      "hit": false,
      "t": 94005.20833333324,
      "d": 98.95833333332848,
      "v": 97
    },
    {
      "midi": 63,
      "hit": false,
      "t": 94005.20833333324,
      "d": 98.95833333332848,
      "v": 95
    },
    {
      "midi": 66,
      "hit": false,
      "t": 94005.20833333324,
      "d": 98.95833333332848,
      "v": 95
    },
    {
      "midi": 63,
      "hit": false,
      "t": 94255.20833333324,
      "d": 346.3541666666715,
      "v": 99
    },
    {
      "midi": 66,
      "hit": false,
      "t": 94255.20833333324,
      "d": 354.1666666666715,
      "v": 97
    },
    {
      "midi": 59,
      "hit": false,
      "t": 94255.20833333324,
      "d": 356.77083333334303,
      "v": 97
    },
    {
      "midi": 63,
      "hit": false,
      "t": 95005.20833333324,
      "d": 695.3125,
      "v": 104
    },
    {
      "midi": 66,
      "hit": false,
      "t": 95005.20833333324,
      "d": 697.9166666666715,
      "v": 99
    },
    {
      "midi": 59,
      "hit": false,
      "t": 95005.20833333324,
      "d": 705.7291666666715,
      "v": 104
    },
    {
      "midi": 59,
      "hit": false,
      "t": 96005.20833333324,
      "d": 98.95833333332848,
      "v": 97
    },
    {
      "midi": 63,
      "hit": false,
      "t": 96005.20833333324,
      "d": 98.95833333332848,
      "v": 95
    },
    {
      "midi": 66,
      "hit": false,
      "t": 96005.20833333324,
      "d": 98.95833333332848,
      "v": 95
    },
    {
      "midi": 63,
      "hit": false,
      "t": 96255.20833333324,
      "d": 346.3541666666715,
      "v": 99
    },
    {
      "midi": 66,
      "hit": false,
      "t": 96255.20833333324,
      "d": 354.1666666666715,
      "v": 97
    },
    {
      "midi": 59,
      "hit": false,
      "t": 96255.20833333324,
      "d": 356.77083333334303,
      "v": 97
    },
    {
      "midi": 63,
      "hit": false,
      "t": 97005.20833333324,
      "d": 531.25,
      "v": 99
    },
    {
      "midi": 59,
      "hit": false,
      "t": 97005.20833333324,
      "d": 536.4583333333285,
      "v": 97
    },
    {
      "midi": 66,
      "hit": false,
      "t": 97005.20833333324,
      "d": 539.0625,
      "v": 99
    },
    {
      "midi": 59,
      "hit": false,
      "t": 98005.20833333324,
      "d": 98.95833333332848,
      "v": 91
    },
    {
      "midi": 63,
      "hit": false,
      "t": 98005.20833333324,
      "d": 98.95833333332848,
      "v": 93
    },
    {
      "midi": 66,
      "hit": false,
      "t": 98005.20833333324,
      "d": 98.95833333332848,
      "v": 89
    },
    {
      "midi": 63,
      "hit": false,
      "t": 98255.20833333324,
      "d": 330.72916666665697,
      "v": 93
    },
    {
      "midi": 66,
      "hit": false,
      "t": 98255.20833333324,
      "d": 343.74999999998545,
      "v": 97
    },
    {
      "midi": 59,
      "hit": false,
      "t": 98255.20833333324,
      "d": 346.35416666665697,
      "v": 95
    },
    {
      "midi": 63,
      "hit": false,
      "t": 99005.20833333323,
      "d": 526.041666666657,
      "v": 95
    },
    {
      "midi": 66,
      "hit": false,
      "t": 99005.20833333323,
      "d": 528.6458333333285,
      "v": 95
    },
    {
      "midi": 59,
      "hit": false,
      "t": 99005.20833333323,
      "d": 536.4583333333285,
      "v": 95
    },
    {
      "midi": 59,
      "hit": false,
      "t": 100005.20833333321,
      "d": 98.95833333332848,
      "v": 89
    },
    {
      "midi": 63,
      "hit": false,
      "t": 100005.20833333321,
      "d": 98.95833333332848,
      "v": 89
    },
    {
      "midi": 66,
      "hit": false,
      "t": 100005.20833333321,
      "d": 98.95833333332848,
      "v": 87
    },
    {
      "midi": 63,
      "hit": false,
      "t": 100255.20833333321,
      "d": 315.10416666665697,
      "v": 95
    },
    {
      "midi": 59,
      "hit": false,
      "t": 100255.20833333321,
      "d": 322.91666666665697,
      "v": 91
    },
    {
      "midi": 66,
      "hit": false,
      "t": 100255.20833333321,
      "d": 322.91666666665697,
      "v": 93
    },
    {
      "midi": 61,
      "hit": false,
      "t": 101005.2083333332,
      "d": 572.916666666657,
      "v": 95
    },
    {
      "midi": 58,
      "hit": false,
      "t": 101005.2083333332,
      "d": 591.1458333333285,
      "v": 95
    },
    {
      "midi": 66,
      "hit": false,
      "t": 101005.2083333332,
      "d": 593.75,
      "v": 97
    },
    {
      "midi": 58,
      "hit": false,
      "t": 102005.2083333332,
      "d": 98.95833333332848,
      "v": 90
    },
    {
      "midi": 61,
      "hit": false,
      "t": 102005.2083333332,
      "d": 98.95833333332848,
      "v": 92
    },
    {
      "midi": 66,
      "hit": false,
      "t": 102005.2083333332,
      "d": 98.95833333332848,
      "v": 90
    },
    {
      "midi": 61,
      "hit": false,
      "t": 102255.2083333332,
      "d": 388.0208333333285,
      "v": 93
    },
    {
      "midi": 66,
      "hit": false,
      "t": 102255.2083333332,
      "d": 395.8333333333285,
      "v": 91
    },
    {
      "midi": 58,
      "hit": false,
      "t": 102255.2083333332,
      "d": 401.04166666665697,
      "v": 95
    },
    {
      "midi": 61,
      "hit": false,
      "t": 103005.20833333318,
      "d": 601.5625,
      "v": 93
    },
    {
      "midi": 66,
      "hit": false,
      "t": 103005.20833333318,
      "d": 609.375,
      "v": 99
    },
    {
      "midi": 58,
      "hit": false,
      "t": 103005.20833333318,
      "d": 617.1875,
      "v": 95
    },
    {
      "midi": 58,
      "hit": false,
      "t": 104005.20833333318,
      "d": 98.95833333332848,
      "v": 89
    },
    {
      "midi": 61,
      "hit": false,
      "t": 104005.20833333318,
      "d": 98.95833333332848,
      "v": 84
    },
    {
      "midi": 66,
      "hit": false,
      "t": 104005.20833333318,
      "d": 98.95833333332848,
      "v": 82
    },
    {
      "midi": 61,
      "hit": false,
      "t": 104255.20833333318,
      "d": 364.5833333333285,
      "v": 87
    },
    {
      "midi": 66,
      "hit": false,
      "t": 104255.20833333318,
      "d": 375,
      "v": 87
    },
    {
      "midi": 58,
      "hit": false,
      "t": 104255.20833333318,
      "d": 377.6041666666715,
      "v": 89
    },
    {
      "midi": 61,
      "hit": false,
      "t": 105005.20833333318,
      "d": 580.7291666666715,
      "v": 93
    },
    {
      "midi": 66,
      "hit": false,
      "t": 105005.20833333318,
      "d": 588.5416666666715,
      "v": 89
    },
    {
      "midi": 58,
      "hit": false,
      "t": 105005.20833333318,
      "d": 593.75,
      "v": 95
    },
    {
      "midi": 58,
      "hit": false,
      "t": 106005.20833333318,
      "d": 98.95833333332848,
      "v": 89
    },
    {
      "midi": 61,
      "hit": false,
      "t": 106005.20833333318,
      "d": 98.95833333332848,
      "v": 83
    },
    {
      "midi": 66,
      "hit": false,
      "t": 106005.20833333318,
      "d": 98.95833333332848,
      "v": 80
    },
    {
      "midi": 61,
      "hit": false,
      "t": 106255.20833333318,
      "d": 338.54166666665697,
      "v": 93
    },
    {
      "midi": 58,
      "hit": false,
      "t": 106255.20833333318,
      "d": 348.9583333333285,
      "v": 89
    },
    {
      "midi": 66,
      "hit": false,
      "t": 106255.20833333318,
      "d": 364.5833333333285,
      "v": 89
    },
    {
      "midi": 61,
      "hit": false,
      "t": 107005.20833333317,
      "d": 611.9791666666715,
      "v": 91
    },
    {
      "midi": 58,
      "hit": false,
      "t": 107005.20833333317,
      "d": 630.208333333343,
      "v": 89
    },
    {
      "midi": 66,
      "hit": false,
      "t": 107005.20833333317,
      "d": 643.2291666666715,
      "v": 84
    },
    {
      "midi": 63,
      "hit": false,
      "t": 108005.20833333318,
      "d": 645.833333333343,
      "v": 97
    },
    {
      "midi": 66,
      "hit": false,
      "t": 108005.20833333318,
      "d": 645.833333333343,
      "v": 89
    },
    {
      "midi": 59,
      "hit": false,
      "t": 108005.20833333318,
      "d": 658.8541666666715,
      "v": 91
    },
    {
      "midi": 59,
      "hit": false,
      "t": 109005.20833333318,
      "d": 98.95833333332848,
      "v": 89
    },
    {
      "midi": 63,
      "hit": false,
      "t": 109005.20833333318,
      "d": 98.95833333332848,
      "v": 89
    },
    {
      "midi": 66,
      "hit": false,
      "t": 109005.20833333318,
      "d": 98.95833333332848,
      "v": 85
    },
    {
      "midi": 59,
      "hit": false,
      "t": 109255.20833333318,
      "d": 700.5208333333285,
      "v": 91
    },
    {
      "midi": 63,
      "hit": false,
      "t": 109255.20833333318,
      "d": 703.125,
      "v": 91
    },
    {
      "midi": 66,
      "hit": false,
      "t": 109255.20833333318,
      "d": 716.1458333333285,
      "v": 91
    },
    {
      "midi": 49,
      "hit": false,
      "t": 110005.20833333318,
      "d": 1973.958333333343,
      "v": 94
    },
    {
      "midi": 64,
      "hit": false,
      "t": 110255.20833333318,
      "d": 828.125,
      "v": 99
    },
    {
      "midi": 68,
      "hit": false,
      "t": 110255.20833333318,
      "d": 846.3541666666715,
      "v": 91
    },
    {
      "midi": 61,
      "hit": false,
      "t": 110255.20833333318,
      "d": 848.958333333343,
      "v": 97
    },
    {
      "midi": 61,
      "hit": false,
      "t": 111255.2083333332,
      "d": 231.77083333332848,
      "v": 102
    },
    {
      "midi": 68,
      "hit": false,
      "t": 111255.2083333332,
      "d": 244.79166666665697,
      "v": 99
    },
    {
      "midi": 64,
      "hit": false,
      "t": 111255.2083333332,
      "d": 247.39583333332848,
      "v": 103
    },
    {
      "midi": 42,
      "hit": false,
      "t": 112005.2083333332,
      "d": 2028.6458333333285,
      "v": 102
    },
    {
      "midi": 61,
      "hit": false,
      "t": 112255.2083333332,
      "d": 833.3333333333285,
      "v": 97
    },
    {
      "midi": 58,
      "hit": false,
      "t": 112255.2083333332,
      "d": 843.75,
      "v": 99
    },
    {
      "midi": 66,
      "hit": false,
      "t": 112255.2083333332,
      "d": 856.7708333333285,
      "v": 91
    },
    {
      "midi": 58,
      "hit": false,
      "t": 113255.2083333332,
      "d": 203.125,
      "v": 99
    },
    {
      "midi": 61,
      "hit": false,
      "t": 113255.2083333332,
      "d": 218.75,
      "v": 95
    },
    {
      "midi": 66,
      "hit": false,
      "t": 113255.2083333332,
      "d": 226.5625,
      "v": 93
    },
    {
      "midi": 49,
      "hit": false,
      "t": 114005.2083333332,
      "d": 1989.5833333333285,
      "v": 97
    },
    {
      "midi": 64,
      "hit": false,
      "t": 114255.2083333332,
      "d": 872.3958333333285,
      "v": 99
    },
    {
      "midi": 61,
      "hit": false,
      "t": 114255.2083333332,
      "d": 877.604166666657,
      "v": 97
    },
    {
      "midi": 68,
      "hit": false,
      "t": 114255.2083333332,
      "d": 877.604166666657,
      "v": 91
    },
    {
      "midi": 61,
      "hit": false,
      "t": 115255.20833333318,
      "d": 158.85416666667152,
      "v": 95
    },
    {
      "midi": 68,
      "hit": false,
      "t": 115255.20833333318,
      "d": 177.08333333334303,
      "v": 95
    },
    {
      "midi": 64,
      "hit": false,
      "t": 115255.20833333318,
      "d": 197.91666666667152,
      "v": 99
    },
    {
      "midi": 42,
      "hit": false,
      "t": 116005.2083333332,
      "d": 1575.520833333343,
      "v": 95
    },
    {
      "midi": 61,
      "hit": false,
      "t": 116255.2083333332,
      "d": 846.3541666666715,
      "v": 95
    },
    {
      "midi": 58,
      "hit": false,
      "t": 116255.2083333332,
      "d": 848.958333333343,
      "v": 95
    },
    {
      "midi": 66,
      "hit": false,
      "t": 116255.2083333332,
      "d": 864.583333333343,
      "v": 91
    },
    {
      "midi": 58,
      "hit": false,
      "t": 117255.20833333321,
      "d": 179.6875,
      "v": 99
    },
    {
      "midi": 66,
      "hit": false,
      "t": 117255.20833333321,
      "d": 203.125,
      "v": 97
    },
    {
      "midi": 61,
      "hit": false,
      "t": 117255.20833333321,
      "d": 223.95833333332848,
      "v": 99
    },
    {
      "midi": 61,
      "hit": false,
      "t": 118005.20833333321,
      "d": 3453.125,
      "v": 93
    },
    {
      "midi": 68,
      "hit": false,
      "t": 118005.20833333321,
      "d": 3460.9375,
      "v": 94
    },
    {
      "midi": 64,
      "hit": false,
      "t": 118005.20833333321,
      "d": 3471.3541666666715,
      "v": 97
    },
    {
      "midi": 59,
      "hit": false,
      "t": 122005.20833333321,
      "d": 3440.1041666666715,
      "v": 96
    },
    {
      "midi": 63,
      "hit": false,
      "t": 122005.20833333321,
      "d": 3447.9166666666715,
      "v": 96
    },
    {
      "midi": 66,
      "hit": false,
      "t": 122005.20833333321,
      "d": 3447.9166666666715,
      "v": 107
    },
    {
      "midi": 61,
      "hit": false,
      "t": 126005.20833333321,
      "d": 3453.125,
      "v": 93
    },
    {
      "midi": 68,
      "hit": false,
      "t": 126005.20833333321,
      "d": 3460.9375,
      "v": 94
    },
    {
      "midi": 64,
      "hit": false,
      "t": 126005.20833333321,
      "d": 3471.3541666666715,
      "v": 97
    },
    {
      "midi": 59,
      "hit": false,
      "t": 130005.20833333321,
      "d": 3440.1041666666715,
      "v": 96
    },
    {
      "midi": 63,
      "hit": false,
      "t": 130005.20833333321,
      "d": 3447.9166666666715,
      "v": 96
    },
    {
      "midi": 66,
      "hit": false,
      "t": 130005.20833333321,
      "d": 3447.9166666666715,
      "v": 107
    },
    {
      "midi": 68,
      "hit": false,
      "t": 134005.20833333323,
      "d": 1067.708333333343,
      "v": 93
    },
    {
      "midi": 71,
      "hit": false,
      "t": 134005.20833333323,
      "d": 1083.333333333343,
      "v": 95
    },
    {
      "midi": 63,
      "hit": false,
      "t": 134005.20833333323,
      "d": 1148.4375,
      "v": 100
    },
    {
      "midi": 56,
      "hit": false,
      "t": 134005.20833333323,
      "d": 1669.270833333343,
      "v": 88
    },
    {
      "midi": 63,
      "hit": false,
      "t": 135255.20833333323,
      "d": 554.6875,
      "v": 98
    },
    {
      "midi": 68,
      "hit": false,
      "t": 135255.20833333323,
      "d": 562.5,
      "v": 95
    },
    {
      "midi": 71,
      "hit": false,
      "t": 135255.20833333323,
      "d": 562.5,
      "v": 98
    },
    {
      "midi": 56,
      "hit": false,
      "t": 135755.20833333323,
      "d": 210.9375,
      "v": 95
    },
    {
      "midi": 64,
      "hit": false,
      "t": 136005.20833333323,
      "d": 1395.833333333343,
      "v": 100
    },
    {
      "midi": 68,
      "hit": false,
      "t": 136005.20833333323,
      "d": 1416.666666666686,
      "v": 100
    },
    {
      "midi": 71,
      "hit": false,
      "t": 136005.20833333323,
      "d": 1421.875000000029,
      "v": 98
    },
    {
      "midi": 52,
      "hit": false,
      "t": 136005.20833333323,
      "d": 1533.854166666686,
      "v": 98
    },
    {
      "midi": 64,
      "hit": false,
      "t": 137505.20833333326,
      "d": 244.79166666665697,
      "v": 95
    },
    {
      "midi": 68,
      "hit": false,
      "t": 137505.20833333326,
      "d": 263.02083333334303,
      "v": 102
    },
    {
      "midi": 71,
      "hit": false,
      "t": 137505.20833333326,
      "d": 268.22916666668607,
      "v": 100
    },
    {
      "midi": 52,
      "hit": false,
      "t": 137755.20833333326,
      "d": 255.20833333337214,
      "v": 100
    },
    {
      "midi": 71,
      "hit": false,
      "t": 138005.20833333328,
      "d": 755.208333333343,
      "v": 95
    },
    {
      "midi": 63,
      "hit": false,
      "t": 138005.20833333328,
      "d": 791.6666666666861,
      "v": 100
    },
    {
      "midi": 68,
      "hit": false,
      "t": 138005.20833333328,
      "d": 802.083333333343,
      "v": 95
    },
    {
      "midi": 56,
      "hit": false,
      "t": 138005.20833333328,
      "d": 976.5625,
      "v": 98
    },
    {
      "midi": 64,
      "hit": false,
      "t": 139005.20833333328,
      "d": 335.9375,
      "v": 98
    },
    {
      "midi": 71,
      "hit": false,
      "t": 139005.20833333328,
      "d": 361.97916666665697,
      "v": 95
    },
    {
      "midi": 68,
      "hit": false,
      "t": 139005.20833333328,
      "d": 437.5,
      "v": 100
    },
    {
      "midi": 52,
      "hit": false,
      "t": 139005.20833333328,
      "d": 479.16666666665697,
      "v": 100
    },
    {
      "midi": 61,
      "hit": false,
      "t": 139505.20833333328,
      "d": 315.10416666665697,
      "v": 95
    },
    {
      "midi": 66,
      "hit": false,
      "t": 139505.20833333328,
      "d": 333.33333333331393,
      "v": 93
    },
    {
      "midi": 70,
      "hit": false,
      "t": 139505.20833333328,
      "d": 341.14583333331393,
      "v": 95
    },
    {
      "midi": 54,
      "hit": false,
      "t": 139505.20833333328,
      "d": 502.60416666662786,
      "v": 93
    },
    {
      "midi": 71,
      "hit": false,
      "t": 140005.20833333326,
      "d": 1361.979166666657,
      "v": 100
    },
    {
      "midi": 63,
      "hit": false,
      "t": 140005.20833333326,
      "d": 1375,
      "v": 102
    },
    {
      "midi": 68,
      "hit": false,
      "t": 140005.20833333326,
      "d": 1388.020833333343,
      "v": 100
    },
    {
      "midi": 56,
      "hit": false,
      "t": 140005.20833333326,
      "d": 1539.0625,
      "v": 100
    },
    {
      "midi": 71,
      "hit": false,
      "t": 141505.20833333326,
      "d": 299.47916666665697,
      "v": 93
    },
    {
      "midi": 63,
      "hit": false,
      "t": 141505.20833333326,
      "d": 335.9375,
      "v": 102
    },
    {
      "midi": 68,
      "hit": false,
      "t": 141505.20833333326,
      "d": 351.5625,
      "v": 98
    },
    {
      "midi": 56,
      "hit": false,
      "t": 141755.20833333326,
      "d": 216.14583333334303,
      "v": 98
    },
    {
      "midi": 71,
      "hit": false,
      "t": 142005.20833333326,
      "d": 1429.6875,
      "v": 102
    },
    {
      "midi": 64,
      "hit": false,
      "t": 142005.20833333326,
      "d": 1442.708333333343,
      "v": 95
    },
    {
      "midi": 68,
      "hit": false,
      "t": 142005.20833333326,
      "d": 1442.708333333343,
      "v": 105
    },
    {
      "midi": 52,
      "hit": false,
      "t": 142005.20833333326,
      "d": 1575.520833333343,
      "v": 102
    },
    {
      "midi": 71,
      "hit": false,
      "t": 143505.20833333326,
      "d": 270.83333333334303,
      "v": 93
    },
    {
      "midi": 68,
      "hit": false,
      "t": 143505.20833333326,
      "d": 294.27083333334303,
      "v": 102
    },
    {
      "midi": 64,
      "hit": false,
      "t": 143505.20833333326,
      "d": 338.54166666668607,
      "v": 100
    },
    {
      "midi": 52,
      "hit": false,
      "t": 143755.20833333326,
      "d": 236.97916666668607,
      "v": 95
    },
    {
      "midi": 64,
      "hit": false,
      "t": 144005.20833333328,
      "d": 1408.854166666657,
      "v": 93
    },
    {
      "midi": 68,
      "hit": false,
      "t": 144005.20833333328,
      "d": 1414.0625,
      "v": 98
    },
    {
      "midi": 73,
      "hit": false,
      "t": 144005.20833333328,
      "d": 1416.666666666657,
      "v": 95
    },
    {
      "midi": 49,
      "hit": false,
      "t": 144005.20833333328,
      "d": 1971.354166666657,
      "v": 102
    },
    {
      "midi": 64,
      "hit": false,
      "t": 145505.20833333328,
      "d": 247.39583333334303,
      "v": 100
    },
    {
      "midi": 73,
      "hit": false,
      "t": 145505.20833333328,
      "d": 289.0625,
      "v": 98
    },
    {
      "midi": 68,
      "hit": false,
      "t": 145505.20833333328,
      "d": 320.3125,
      "v": 94
    },
    {
      "midi": 73,
      "hit": false,
      "t": 146005.20833333328,
      "d": 1354.166666666657,
      "v": 102
    },
    {
      "midi": 66,
      "hit": false,
      "t": 146005.20833333328,
      "d": 1359.375,
      "v": 95
    },
    {
      "midi": 70,
      "hit": false,
      "t": 146005.20833333328,
      "d": 1375,
      "v": 102
    },
    {
      "midi": 54,
      "hit": false,
      "t": 146005.20833333328,
      "d": 1552.083333333343,
      "v": 98
    },
    {
      "midi": 66,
      "hit": false,
      "t": 147505.20833333328,
      "d": 286.45833333334303,
      "v": 95
    },
    {
      "midi": 73,
      "hit": false,
      "t": 147505.20833333328,
      "d": 304.6875,
      "v": 100
    },
    {
      "midi": 70,
      "hit": false,
      "t": 147505.20833333328,
      "d": 343.75,
      "v": 98
    },
    {
      "midi": 54,
      "hit": false,
      "t": 147755.20833333328,
      "d": 197.91666666665697,
      "v": 100
    },
    {
      "midi": 64,
      "hit": false,
      "t": 148005.20833333328,
      "d": 1731.770833333343,
      "v": 98
    },
    {
      "midi": 73,
      "hit": false,
      "t": 148005.20833333328,
      "d": 1783.854166666686,
      "v": 102
    },
    {
      "midi": 68,
      "hit": false,
      "t": 148005.20833333328,
      "d": 1786.458333333343,
      "v": 102
    },
    {
      "midi": 49,
      "hit": false,
      "t": 148005.20833333328,
      "d": 1979.166666666686,
      "v": 102
    },
    {
      "midi": 66,
      "hit": false,
      "t": 150005.2083333333,
      "d": 700.520833333343,
      "v": 93
    },
    {
      "midi": 70,
      "hit": false,
      "t": 150005.2083333333,
      "d": 708.333333333343,
      "v": 95
    },
    {
      "midi": 73,
      "hit": false,
      "t": 150005.2083333333,
      "d": 708.333333333343,
      "v": 93
    },
    {
      "midi": 54,
      "hit": false,
      "t": 150005.2083333333,
      "d": 770.833333333343,
      "v": 100
    },
    {
      "midi": 63,
      "hit": false,
      "t": 152005.2083333333,
      "d": 695.3125,
      "v": 104
    },
    {
      "midi": 66,
      "hit": false,
      "t": 152005.2083333333,
      "d": 697.916666666657,
      "v": 99
    },
    {
      "midi": 59,
      "hit": false,
      "t": 152005.2083333333,
      "d": 705.729166666657,
      "v": 104
    },
    {
      "midi": 59,
      "hit": false,
      "t": 153005.2083333333,
      "d": 98.95833333334303,
      "v": 97
    },
    {
      "midi": 63,
      "hit": false,
      "t": 153005.2083333333,
      "d": 98.95833333334303,
      "v": 95
    },
    {
      "midi": 66,
      "hit": false,
      "t": 153005.2083333333,
      "d": 98.95833333334303,
      "v": 95
    },
    {
      "midi": 63,
      "hit": false,
      "t": 153255.2083333333,
      "d": 346.35416666665697,
      "v": 99
    },
    {
      "midi": 66,
      "hit": false,
      "t": 153255.2083333333,
      "d": 354.16666666665697,
      "v": 97
    },
    {
      "midi": 59,
      "hit": false,
      "t": 153255.2083333333,
      "d": 356.77083333331393,
      "v": 97
    },
    {
      "midi": 63,
      "hit": false,
      "t": 154005.2083333333,
      "d": 531.25,
      "v": 99
    },
    {
      "midi": 59,
      "hit": false,
      "t": 154005.2083333333,
      "d": 536.458333333343,
      "v": 97
    },
    {
      "midi": 66,
      "hit": false,
      "t": 154005.2083333333,
      "d": 539.0625,
      "v": 99
    },
    {
      "midi": 59,
      "hit": false,
      "t": 155005.2083333333,
      "d": 98.95833333334303,
      "v": 91
    },
    {
      "midi": 63,
      "hit": false,
      "t": 155005.2083333333,
      "d": 98.95833333334303,
      "v": 93
    },
    {
      "midi": 66,
      "hit": false,
      "t": 155005.2083333333,
      "d": 98.95833333334303,
      "v": 89
    },
    {
      "midi": 63,
      "hit": false,
      "t": 155255.2083333333,
      "d": 330.72916666668607,
      "v": 93
    },
    {
      "midi": 66,
      "hit": false,
      "t": 155255.2083333333,
      "d": 343.7500000000291,
      "v": 97
    },
    {
      "midi": 59,
      "hit": false,
      "t": 155255.2083333333,
      "d": 346.35416666668607,
      "v": 95
    },
    {
      "midi": 63,
      "hit": false,
      "t": 156005.20833333334,
      "d": 526.0416666666861,
      "v": 95
    },
    {
      "midi": 66,
      "hit": false,
      "t": 156005.20833333334,
      "d": 528.645833333343,
      "v": 95
    },
    {
      "midi": 59,
      "hit": false,
      "t": 156005.20833333334,
      "d": 536.458333333343,
      "v": 95
    },
    {
      "midi": 59,
      "hit": false,
      "t": 157005.20833333337,
      "d": 98.95833333334303,
      "v": 89
    },
    {
      "midi": 63,
      "hit": false,
      "t": 157005.20833333337,
      "d": 98.95833333334303,
      "v": 89
    },
    {
      "midi": 66,
      "hit": false,
      "t": 157005.20833333337,
      "d": 98.95833333334303,
      "v": 87
    },
    {
      "midi": 63,
      "hit": false,
      "t": 157255.20833333337,
      "d": 315.10416666668607,
      "v": 95
    },
    {
      "midi": 59,
      "hit": false,
      "t": 157255.20833333337,
      "d": 322.91666666668607,
      "v": 91
    },
    {
      "midi": 66,
      "hit": false,
      "t": 157255.20833333337,
      "d": 322.91666666668607,
      "v": 93
    },
    {
      "midi": 61,
      "hit": false,
      "t": 158005.2083333334,
      "d": 572.9166666666861,
      "v": 95
    },
    {
      "midi": 58,
      "hit": false,
      "t": 158005.2083333334,
      "d": 591.145833333343,
      "v": 95
    },
    {
      "midi": 66,
      "hit": false,
      "t": 158005.2083333334,
      "d": 593.75,
      "v": 97
    },
    {
      "midi": 58,
      "hit": false,
      "t": 159005.2083333334,
      "d": 98.95833333334303,
      "v": 90
    },
    {
      "midi": 61,
      "hit": false,
      "t": 159005.2083333334,
      "d": 98.95833333334303,
      "v": 92
    },
    {
      "midi": 66,
      "hit": false,
      "t": 159005.2083333334,
      "d": 98.95833333334303,
      "v": 90
    },
    {
      "midi": 61,
      "hit": false,
      "t": 159255.2083333334,
      "d": 388.02083333334303,
      "v": 93
    },
    {
      "midi": 66,
      "hit": false,
      "t": 159255.2083333334,
      "d": 395.83333333334303,
      "v": 91
    },
    {
      "midi": 58,
      "hit": false,
      "t": 159255.2083333334,
      "d": 401.04166666668607,
      "v": 95
    },
    {
      "midi": 61,
      "hit": false,
      "t": 160005.20833333343,
      "d": 601.5625,
      "v": 93
    },
    {
      "midi": 66,
      "hit": false,
      "t": 160005.20833333343,
      "d": 609.375,
      "v": 99
    },
    {
      "midi": 58,
      "hit": false,
      "t": 160005.20833333343,
      "d": 617.1875,
      "v": 95
    },
    {
      "midi": 58,
      "hit": false,
      "t": 161005.20833333343,
      "d": 98.95833333334303,
      "v": 89
    },
    {
      "midi": 61,
      "hit": false,
      "t": 161005.20833333343,
      "d": 98.95833333334303,
      "v": 84
    },
    {
      "midi": 66,
      "hit": false,
      "t": 161005.20833333343,
      "d": 98.95833333334303,
      "v": 82
    },
    {
      "midi": 61,
      "hit": false,
      "t": 161255.20833333343,
      "d": 364.58333333334303,
      "v": 87
    },
    {
      "midi": 66,
      "hit": false,
      "t": 161255.20833333343,
      "d": 375,
      "v": 87
    },
    {
      "midi": 58,
      "hit": false,
      "t": 161255.20833333343,
      "d": 377.60416666665697,
      "v": 89
    },
    {
      "midi": 61,
      "hit": false,
      "t": 162005.20833333343,
      "d": 580.729166666657,
      "v": 93
    },
    {
      "midi": 66,
      "hit": false,
      "t": 162005.20833333343,
      "d": 588.541666666657,
      "v": 89
    },
    {
      "midi": 58,
      "hit": false,
      "t": 162005.20833333343,
      "d": 593.75,
      "v": 95
    },
    {
      "midi": 58,
      "hit": false,
      "t": 163005.20833333343,
      "d": 98.95833333334303,
      "v": 89
    },
    {
      "midi": 61,
      "hit": false,
      "t": 163005.20833333343,
      "d": 98.95833333334303,
      "v": 83
    },
    {
      "midi": 66,
      "hit": false,
      "t": 163005.20833333343,
      "d": 98.95833333334303,
      "v": 80
    },
    {
      "midi": 61,
      "hit": false,
      "t": 163255.20833333343,
      "d": 338.54166666668607,
      "v": 93
    },
    {
      "midi": 58,
      "hit": false,
      "t": 163255.20833333343,
      "d": 348.95833333334303,
      "v": 89
    },
    {
      "midi": 66,
      "hit": false,
      "t": 163255.20833333343,
      "d": 364.58333333334303,
      "v": 89
    },
    {
      "midi": 61,
      "hit": false,
      "t": 164005.20833333346,
      "d": 611.979166666657,
      "v": 91
    },
    {
      "midi": 58,
      "hit": false,
      "t": 164005.20833333346,
      "d": 630.2083333333139,
      "v": 89
    },
    {
      "midi": 66,
      "hit": false,
      "t": 164005.20833333346,
      "d": 643.229166666657,
      "v": 84
    },
    {
      "midi": 63,
      "hit": false,
      "t": 165005.20833333343,
      "d": 695.3125,
      "v": 104
    },
    {
      "midi": 66,
      "hit": false,
      "t": 165005.20833333343,
      "d": 697.916666666657,
      "v": 99
    },
    {
      "midi": 59,
      "hit": false,
      "t": 165005.20833333343,
      "d": 705.729166666657,
      "v": 104
    },
    {
      "midi": 59,
      "hit": false,
      "t": 166005.20833333343,
      "d": 98.95833333334303,
      "v": 97
    },
    {
      "midi": 63,
      "hit": false,
      "t": 166005.20833333343,
      "d": 98.95833333334303,
      "v": 95
    },
    {
      "midi": 66,
      "hit": false,
      "t": 166005.20833333343,
      "d": 98.95833333334303,
      "v": 95
    },
    {
      "midi": 63,
      "hit": false,
      "t": 166255.20833333343,
      "d": 346.35416666665697,
      "v": 99
    },
    {
      "midi": 66,
      "hit": false,
      "t": 166255.20833333343,
      "d": 354.16666666665697,
      "v": 97
    },
    {
      "midi": 59,
      "hit": false,
      "t": 166255.20833333343,
      "d": 356.77083333331393,
      "v": 97
    },
    {
      "midi": 63,
      "hit": false,
      "t": 167005.20833333343,
      "d": 695.3125,
      "v": 104
    },
    {
      "midi": 66,
      "hit": false,
      "t": 167005.20833333343,
      "d": 697.916666666657,
      "v": 99
    },
    {
      "midi": 59,
      "hit": false,
      "t": 167005.20833333343,
      "d": 705.729166666657,
      "v": 104
    },
    {
      "midi": 59,
      "hit": false,
      "t": 168005.20833333343,
      "d": 98.95833333334303,
      "v": 97
    },
    {
      "midi": 63,
      "hit": false,
      "t": 168005.20833333343,
      "d": 98.95833333334303,
      "v": 95
    },
    {
      "midi": 66,
      "hit": false,
      "t": 168005.20833333343,
      "d": 98.95833333334303,
      "v": 95
    },
    {
      "midi": 63,
      "hit": false,
      "t": 168255.20833333343,
      "d": 346.35416666665697,
      "v": 99
    },
    {
      "midi": 66,
      "hit": false,
      "t": 168255.20833333343,
      "d": 354.16666666665697,
      "v": 97
    },
    {
      "midi": 59,
      "hit": false,
      "t": 168255.20833333343,
      "d": 356.77083333331393,
      "v": 97
    },
    {
      "midi": 63,
      "hit": false,
      "t": 169005.20833333343,
      "d": 695.3125,
      "v": 104
    },
    {
      "midi": 66,
      "hit": false,
      "t": 169005.20833333343,
      "d": 697.916666666657,
      "v": 99
    },
    {
      "midi": 59,
      "hit": false,
      "t": 169005.20833333343,
      "d": 705.729166666657,
      "v": 104
    },
    {
      "midi": 59,
      "hit": false,
      "t": 170005.20833333343,
      "d": 98.95833333334303,
      "v": 97
    },
    {
      "midi": 63,
      "hit": false,
      "t": 170005.20833333343,
      "d": 98.95833333334303,
      "v": 95
    },
    {
      "midi": 66,
      "hit": false,
      "t": 170005.20833333343,
      "d": 98.95833333334303,
      "v": 95
    },
    {
      "midi": 63,
      "hit": false,
      "t": 170255.20833333343,
      "d": 346.35416666665697,
      "v": 99
    },
    {
      "midi": 66,
      "hit": false,
      "t": 170255.20833333343,
      "d": 354.16666666665697,
      "v": 97
    },
    {
      "midi": 59,
      "hit": false,
      "t": 170255.20833333343,
      "d": 356.77083333331393,
      "v": 97
    },
    {
      "midi": 63,
      "hit": false,
      "t": 171005.20833333343,
      "d": 531.25,
      "v": 99
    },
    {
      "midi": 59,
      "hit": false,
      "t": 171005.20833333343,
      "d": 536.458333333343,
      "v": 97
    },
    {
      "midi": 66,
      "hit": false,
      "t": 171005.20833333343,
      "d": 539.0625,
      "v": 99
    },
    {
      "midi": 59,
      "hit": false,
      "t": 172005.20833333343,
      "d": 98.95833333334303,
      "v": 91
    },
    {
      "midi": 63,
      "hit": false,
      "t": 172005.20833333343,
      "d": 98.95833333334303,
      "v": 93
    },
    {
      "midi": 66,
      "hit": false,
      "t": 172005.20833333343,
      "d": 98.95833333334303,
      "v": 89
    },
    {
      "midi": 63,
      "hit": false,
      "t": 172255.20833333343,
      "d": 330.72916666668607,
      "v": 93
    },
    {
      "midi": 66,
      "hit": false,
      "t": 172255.20833333343,
      "d": 343.7500000000291,
      "v": 97
    },
    {
      "midi": 59,
      "hit": false,
      "t": 172255.20833333343,
      "d": 346.35416666668607,
      "v": 95
    },
    {
      "midi": 63,
      "hit": false,
      "t": 173005.20833333346,
      "d": 526.0416666666861,
      "v": 95
    },
    {
      "midi": 66,
      "hit": false,
      "t": 173005.20833333346,
      "d": 528.645833333343,
      "v": 95
    },
    {
      "midi": 59,
      "hit": false,
      "t": 173005.20833333346,
      "d": 536.458333333343,
      "v": 95
    },
    {
      "midi": 59,
      "hit": false,
      "t": 174005.2083333335,
      "d": 98.95833333334303,
      "v": 89
    },
    {
      "midi": 63,
      "hit": false,
      "t": 174005.2083333335,
      "d": 98.95833333334303,
      "v": 89
    },
    {
      "midi": 66,
      "hit": false,
      "t": 174005.2083333335,
      "d": 98.95833333334303,
      "v": 87
    },
    {
      "midi": 63,
      "hit": false,
      "t": 174255.2083333335,
      "d": 315.10416666668607,
      "v": 95
    },
    {
      "midi": 59,
      "hit": false,
      "t": 174255.2083333335,
      "d": 322.91666666668607,
      "v": 91
    },
    {
      "midi": 66,
      "hit": false,
      "t": 174255.2083333335,
      "d": 322.91666666668607,
      "v": 93
    },
    {
      "midi": 61,
      "hit": false,
      "t": 175005.20833333352,
      "d": 572.9166666666861,
      "v": 95
    },
    {
      "midi": 58,
      "hit": false,
      "t": 175005.20833333352,
      "d": 591.145833333343,
      "v": 95
    },
    {
      "midi": 66,
      "hit": false,
      "t": 175005.20833333352,
      "d": 593.75,
      "v": 97
    },
    {
      "midi": 58,
      "hit": false,
      "t": 176005.20833333352,
      "d": 98.95833333334303,
      "v": 90
    },
    {
      "midi": 61,
      "hit": false,
      "t": 176005.20833333352,
      "d": 98.95833333334303,
      "v": 92
    },
    {
      "midi": 66,
      "hit": false,
      "t": 176005.20833333352,
      "d": 98.95833333334303,
      "v": 90
    },
    {
      "midi": 61,
      "hit": false,
      "t": 176255.20833333352,
      "d": 388.02083333334303,
      "v": 93
    },
    {
      "midi": 66,
      "hit": false,
      "t": 176255.20833333352,
      "d": 395.83333333334303,
      "v": 91
    },
    {
      "midi": 58,
      "hit": false,
      "t": 176255.20833333352,
      "d": 401.04166666668607,
      "v": 95
    },
    {
      "midi": 61,
      "hit": false,
      "t": 177005.20833333355,
      "d": 601.5625,
      "v": 93
    },
    {
      "midi": 66,
      "hit": false,
      "t": 177005.20833333355,
      "d": 609.375,
      "v": 99
    },
    {
      "midi": 58,
      "hit": false,
      "t": 177005.20833333355,
      "d": 617.1875,
      "v": 95
    },
    {
      "midi": 58,
      "hit": false,
      "t": 178005.20833333355,
      "d": 98.95833333334303,
      "v": 89
    },
    {
      "midi": 61,
      "hit": false,
      "t": 178005.20833333355,
      "d": 98.95833333334303,
      "v": 84
    },
    {
      "midi": 66,
      "hit": false,
      "t": 178005.20833333355,
      "d": 98.95833333334303,
      "v": 82
    },
    {
      "midi": 61,
      "hit": false,
      "t": 178255.20833333355,
      "d": 364.58333333334303,
      "v": 87
    },
    {
      "midi": 66,
      "hit": false,
      "t": 178255.20833333355,
      "d": 375,
      "v": 87
    },
    {
      "midi": 58,
      "hit": false,
      "t": 178255.20833333355,
      "d": 377.60416666665697,
      "v": 89
    },
    {
      "midi": 61,
      "hit": false,
      "t": 179005.20833333355,
      "d": 580.729166666657,
      "v": 93
    },
    {
      "midi": 66,
      "hit": false,
      "t": 179005.20833333355,
      "d": 588.541666666657,
      "v": 89
    },
    {
      "midi": 58,
      "hit": false,
      "t": 179005.20833333355,
      "d": 593.75,
      "v": 95
    },
    {
      "midi": 58,
      "hit": false,
      "t": 180005.20833333355,
      "d": 98.95833333334303,
      "v": 89
    },
    {
      "midi": 61,
      "hit": false,
      "t": 180005.20833333355,
      "d": 98.95833333334303,
      "v": 83
    },
    {
      "midi": 66,
      "hit": false,
      "t": 180005.20833333355,
      "d": 98.95833333334303,
      "v": 80
    },
    {
      "midi": 61,
      "hit": false,
      "t": 180255.20833333355,
      "d": 338.54166666668607,
      "v": 93
    },
    {
      "midi": 58,
      "hit": false,
      "t": 180255.20833333355,
      "d": 348.95833333334303,
      "v": 89
    },
    {
      "midi": 66,
      "hit": false,
      "t": 180255.20833333355,
      "d": 364.58333333334303,
      "v": 89
    },
    {
      "midi": 61,
      "hit": false,
      "t": 181005.20833333358,
      "d": 611.979166666657,
      "v": 91
    },
    {
      "midi": 58,
      "hit": false,
      "t": 181005.20833333358,
      "d": 630.2083333333139,
      "v": 89
    },
    {
      "midi": 66,
      "hit": false,
      "t": 181005.20833333358,
      "d": 643.229166666657,
      "v": 84
    },
    {
      "midi": 63,
      "hit": false,
      "t": 182005.20833333355,
      "d": 695.3125,
      "v": 104
    },
    {
      "midi": 66,
      "hit": false,
      "t": 182005.20833333355,
      "d": 697.916666666657,
      "v": 99
    },
    {
      "midi": 59,
      "hit": false,
      "t": 182005.20833333355,
      "d": 705.729166666657,
      "v": 104
    },
    {
      "midi": 59,
      "hit": false,
      "t": 183005.20833333355,
      "d": 98.95833333334303,
      "v": 97
    },
    {
      "midi": 63,
      "hit": false,
      "t": 183005.20833333355,
      "d": 98.95833333334303,
      "v": 95
    },
    {
      "midi": 66,
      "hit": false,
      "t": 183005.20833333355,
      "d": 98.95833333334303,
      "v": 95
    },
    {
      "midi": 63,
      "hit": false,
      "t": 183255.20833333355,
      "d": 346.35416666665697,
      "v": 99
    },
    {
      "midi": 66,
      "hit": false,
      "t": 183255.20833333355,
      "d": 354.16666666665697,
      "v": 97
    },
    {
      "midi": 59,
      "hit": false,
      "t": 183255.20833333355,
      "d": 356.77083333331393,
      "v": 97
    },
    {
      "midi": 63,
      "hit": false,
      "t": 184005.20833333355,
      "d": 695.3125,
      "v": 104
    },
    {
      "midi": 66,
      "hit": false,
      "t": 184005.20833333355,
      "d": 697.916666666657,
      "v": 99
    },
    {
      "midi": 59,
      "hit": false,
      "t": 184005.20833333355,
      "d": 705.729166666657,
      "v": 104
    },
    {
      "midi": 63,
      "hit": false,
      "t": 185005.20833333355,
      "d": 695.3125,
      "v": 104
    },
    {
      "midi": 66,
      "hit": false,
      "t": 185005.20833333355,
      "d": 697.916666666657,
      "v": 99
    },
    {
      "midi": 59,
      "hit": false,
      "t": 185005.20833333355,
      "d": 705.729166666657,
      "v": 104
    },
    {
      "midi": 63,
      "hit": false,
      "t": 186005.20833333355,
      "d": 695.3125,
      "v": 104
    },
    {
      "midi": 66,
      "hit": false,
      "t": 186005.20833333355,
      "d": 697.916666666657,
      "v": 99
    },
    {
      "midi": 59,
      "hit": false,
      "t": 186005.20833333355,
      "d": 705.729166666657,
      "v": 104
    },
    {
      "midi": 59,
      "hit": false,
      "t": 187005.20833333355,
      "d": 98.95833333334303,
      "v": 97
    },
    {
      "midi": 63,
      "hit": false,
      "t": 187005.20833333355,
      "d": 98.95833333334303,
      "v": 95
    },
    {
      "midi": 66,
      "hit": false,
      "t": 187005.20833333355,
      "d": 98.95833333334303,
      "v": 95
    },
    {
      "midi": 63,
      "hit": false,
      "t": 187255.20833333355,
      "d": 346.35416666665697,
      "v": 99
    },
    {
      "midi": 66,
      "hit": false,
      "t": 187255.20833333355,
      "d": 354.16666666665697,
      "v": 97
    },
    {
      "midi": 59,
      "hit": false,
      "t": 187255.20833333355,
      "d": 356.77083333331393,
      "v": 97
    },
    {
      "midi": 63,
      "hit": false,
      "t": 188005.20833333355,
      "d": 531.25,
      "v": 99
    },
    {
      "midi": 59,
      "hit": false,
      "t": 188005.20833333355,
      "d": 536.458333333343,
      "v": 97
    },
    {
      "midi": 66,
      "hit": false,
      "t": 188005.20833333355,
      "d": 539.0625,
      "v": 99
    },
    {
      "midi": 59,
      "hit": false,
      "t": 189005.20833333355,
      "d": 98.95833333334303,
      "v": 91
    },
    {
      "midi": 63,
      "hit": false,
      "t": 189005.20833333355,
      "d": 98.95833333334303,
      "v": 93
    },
    {
      "midi": 66,
      "hit": false,
      "t": 189005.20833333355,
      "d": 98.95833333334303,
      "v": 89
    },
    {
      "midi": 63,
      "hit": false,
      "t": 189255.20833333355,
      "d": 330.72916666668607,
      "v": 93
    },
    {
      "midi": 66,
      "hit": false,
      "t": 189255.20833333355,
      "d": 343.7500000000291,
      "v": 97
    },
    {
      "midi": 59,
      "hit": false,
      "t": 189255.20833333355,
      "d": 346.35416666668607,
      "v": 95
    },
    {
      "midi": 63,
      "hit": false,
      "t": 190005.20833333358,
      "d": 526.0416666666861,
      "v": 95
    },
    {
      "midi": 66,
      "hit": false,
      "t": 190005.20833333358,
      "d": 528.645833333343,
      "v": 95
    },
    {
      "midi": 59,
      "hit": false,
      "t": 190005.20833333358,
      "d": 536.458333333343,
      "v": 95
    },
    {
      "midi": 59,
      "hit": false,
      "t": 191005.2083333336,
      "d": 98.95833333334303,
      "v": 89
    },
    {
      "midi": 63,
      "hit": false,
      "t": 191005.2083333336,
      "d": 98.95833333334303,
      "v": 89
    },
    {
      "midi": 66,
      "hit": false,
      "t": 191005.2083333336,
      "d": 98.95833333334303,
      "v": 87
    },
    {
      "midi": 63,
      "hit": false,
      "t": 191255.2083333336,
      "d": 315.10416666668607,
      "v": 95
    },
    {
      "midi": 59,
      "hit": false,
      "t": 191255.2083333336,
      "d": 322.91666666668607,
      "v": 91
    },
    {
      "midi": 66,
      "hit": false,
      "t": 191255.2083333336,
      "d": 322.91666666668607,
      "v": 93
    },
    {
      "midi": 61,
      "hit": false,
      "t": 192005.20833333363,
      "d": 572.9166666666861,
      "v": 95
    },
    {
      "midi": 58,
      "hit": false,
      "t": 192005.20833333363,
      "d": 591.145833333343,
      "v": 95
    },
    {
      "midi": 66,
      "hit": false,
      "t": 192005.20833333363,
      "d": 593.75,
      "v": 97
    },
    {
      "midi": 58,
      "hit": false,
      "t": 193005.20833333363,
      "d": 98.95833333334303,
      "v": 90
    },
    {
      "midi": 61,
      "hit": false,
      "t": 193005.20833333363,
      "d": 98.95833333334303,
      "v": 92
    },
    {
      "midi": 66,
      "hit": false,
      "t": 193005.20833333363,
      "d": 98.95833333334303,
      "v": 90
    },
    {
      "midi": 61,
      "hit": false,
      "t": 193255.20833333363,
      "d": 388.02083333334303,
      "v": 93
    },
    {
      "midi": 66,
      "hit": false,
      "t": 193255.20833333363,
      "d": 395.83333333334303,
      "v": 91
    },
    {
      "midi": 58,
      "hit": false,
      "t": 193255.20833333363,
      "d": 401.04166666668607,
      "v": 95
    },
    {
      "midi": 61,
      "hit": false,
      "t": 194005.20833333366,
      "d": 601.5625,
      "v": 93
    },
    {
      "midi": 66,
      "hit": false,
      "t": 194005.20833333366,
      "d": 609.375,
      "v": 99
    },
    {
      "midi": 58,
      "hit": false,
      "t": 194005.20833333366,
      "d": 617.1875,
      "v": 95
    },
    {
      "midi": 58,
      "hit": false,
      "t": 195005.20833333366,
      "d": 98.95833333334303,
      "v": 89
    },
    {
      "midi": 61,
      "hit": false,
      "t": 195005.20833333366,
      "d": 98.95833333334303,
      "v": 84
    },
    {
      "midi": 66,
      "hit": false,
      "t": 195005.20833333366,
      "d": 98.95833333334303,
      "v": 82
    },
    {
      "midi": 61,
      "hit": false,
      "t": 195255.20833333366,
      "d": 364.58333333334303,
      "v": 87
    },
    {
      "midi": 66,
      "hit": false,
      "t": 195255.20833333366,
      "d": 375,
      "v": 87
    },
    {
      "midi": 58,
      "hit": false,
      "t": 195255.20833333366,
      "d": 377.60416666665697,
      "v": 89
    },
    {
      "midi": 61,
      "hit": false,
      "t": 196005.20833333366,
      "d": 580.729166666657,
      "v": 93
    },
    {
      "midi": 66,
      "hit": false,
      "t": 196005.20833333366,
      "d": 588.541666666657,
      "v": 89
    },
    {
      "midi": 58,
      "hit": false,
      "t": 196005.20833333366,
      "d": 593.75,
      "v": 95
    },
    {
      "midi": 58,
      "hit": false,
      "t": 197005.20833333366,
      "d": 98.95833333334303,
      "v": 89
    },
    {
      "midi": 61,
      "hit": false,
      "t": 197005.20833333366,
      "d": 98.95833333334303,
      "v": 83
    },
    {
      "midi": 66,
      "hit": false,
      "t": 197005.20833333366,
      "d": 98.95833333334303,
      "v": 80
    },
    {
      "midi": 61,
      "hit": false,
      "t": 197255.20833333366,
      "d": 338.54166666668607,
      "v": 93
    },
    {
      "midi": 58,
      "hit": false,
      "t": 197255.20833333366,
      "d": 348.95833333334303,
      "v": 89
    },
    {
      "midi": 66,
      "hit": false,
      "t": 197255.20833333366,
      "d": 364.58333333334303,
      "v": 89
    },
    {
      "midi": 61,
      "hit": false,
      "t": 198005.2083333337,
      "d": 611.979166666657,
      "v": 91
    },
    {
      "midi": 58,
      "hit": false,
      "t": 198005.2083333337,
      "d": 630.2083333333139,
      "v": 89
    },
    {
      "midi": 66,
      "hit": false,
      "t": 198005.2083333337,
      "d": 643.229166666657,
      "v": 84
    },
    {
      "midi": 63,
      "hit": false,
      "t": 199005.20833333366,
      "d": 695.3125,
      "v": 104
    },
    {
      "midi": 66,
      "hit": false,
      "t": 199005.20833333366,
      "d": 697.916666666657,
      "v": 99
    },
    {
      "midi": 59,
      "hit": false,
      "t": 199005.20833333366,
      "d": 705.729166666657,
      "v": 104
    },
    {
      "midi": 59,
      "hit": false,
      "t": 200005.20833333366,
      "d": 98.95833333334303,
      "v": 97
    },
    {
      "midi": 63,
      "hit": false,
      "t": 200005.20833333366,
      "d": 98.95833333334303,
      "v": 95
    },
    {
      "midi": 66,
      "hit": false,
      "t": 200005.20833333366,
      "d": 98.95833333334303,
      "v": 95
    },
    {
      "midi": 63,
      "hit": false,
      "t": 200255.20833333366,
      "d": 346.35416666665697,
      "v": 99
    },
    {
      "midi": 66,
      "hit": false,
      "t": 200255.20833333366,
      "d": 354.16666666665697,
      "v": 97
    },
    {
      "midi": 59,
      "hit": false,
      "t": 200255.20833333366,
      "d": 356.77083333331393,
      "v": 97
    },
    {
      "midi": 63,
      "hit": false,
      "t": 201005.20833333366,
      "d": 695.3125,
      "v": 104
    },
    {
      "midi": 66,
      "hit": false,
      "t": 201005.20833333366,
      "d": 697.916666666657,
      "v": 99
    },
    {
      "midi": 59,
      "hit": false,
      "t": 201005.20833333366,
      "d": 705.729166666657,
      "v": 104
    },
    {
      "midi": 59,
      "hit": false,
      "t": 202005.20833333366,
      "d": 98.95833333334303,
      "v": 97
    },
    {
      "midi": 63,
      "hit": false,
      "t": 202005.20833333366,
      "d": 98.95833333334303,
      "v": 95
    },
    {
      "midi": 66,
      "hit": false,
      "t": 202005.20833333366,
      "d": 98.95833333334303,
      "v": 95
    },
    {
      "midi": 63,
      "hit": false,
      "t": 202255.20833333366,
      "d": 346.35416666665697,
      "v": 99
    },
    {
      "midi": 66,
      "hit": false,
      "t": 202255.20833333366,
      "d": 354.16666666665697,
      "v": 97
    },
    {
      "midi": 59,
      "hit": false,
      "t": 202255.20833333366,
      "d": 356.77083333331393,
      "v": 97
    },
    {
      "midi": 63,
      "hit": false,
      "t": 203005.20833333366,
      "d": 695.3125,
      "v": 104
    },
    {
      "midi": 66,
      "hit": false,
      "t": 203005.20833333366,
      "d": 697.916666666657,
      "v": 99
    },
    {
      "midi": 59,
      "hit": false,
      "t": 203005.20833333366,
      "d": 705.729166666657,
      "v": 104
    },
    {
      "midi": 59,
      "hit": false,
      "t": 204005.20833333366,
      "d": 98.95833333334303,
      "v": 97
    },
    {
      "midi": 63,
      "hit": false,
      "t": 204005.20833333366,
      "d": 98.95833333334303,
      "v": 95
    },
    {
      "midi": 66,
      "hit": false,
      "t": 204005.20833333366,
      "d": 98.95833333334303,
      "v": 95
    },
    {
      "midi": 63,
      "hit": false,
      "t": 204255.20833333366,
      "d": 346.35416666665697,
      "v": 99
    },
    {
      "midi": 66,
      "hit": false,
      "t": 204255.20833333366,
      "d": 375,
      "v": 97
    },
    {
      "midi": 59,
      "hit": false,
      "t": 204255.20833333366,
      "d": 377.60416666665697,
      "v": 97
    },
    {
      "midi": 63,
      "hit": false,
      "t": 205026.041666667,
      "d": 531.25,
      "v": 99
    },
    {
      "midi": 59,
      "hit": false,
      "t": 205026.041666667,
      "d": 536.458333333343,
      "v": 97
    },
    {
      "midi": 66,
      "hit": false,
      "t": 205026.041666667,
      "d": 539.0625,
      "v": 99
    },
    {
      "midi": 59,
      "hit": false,
      "t": 206026.041666667,
      "d": 98.95833333334303,
      "v": 91
    },
    {
      "midi": 63,
      "hit": false,
      "t": 206026.041666667,
      "d": 98.95833333334303,
      "v": 93
    },
    {
      "midi": 66,
      "hit": false,
      "t": 206026.041666667,
      "d": 98.95833333334303,
      "v": 89
    },
    {
      "midi": 63,
      "hit": false,
      "t": 206276.041666667,
      "d": 330.72916666668607,
      "v": 93
    },
    {
      "midi": 66,
      "hit": false,
      "t": 206276.041666667,
      "d": 343.7500000000291,
      "v": 97
    },
    {
      "midi": 59,
      "hit": false,
      "t": 206276.041666667,
      "d": 346.35416666668607,
      "v": 95
    },
    {
      "midi": 63,
      "hit": false,
      "t": 207026.04166666704,
      "d": 526.0416666666861,
      "v": 95
    },
    {
      "midi": 66,
      "hit": false,
      "t": 207026.04166666704,
      "d": 528.645833333343,
      "v": 95
    },
    {
      "midi": 59,
      "hit": false,
      "t": 207026.04166666704,
      "d": 536.458333333343,
      "v": 95
    },
    {
      "midi": 59,
      "hit": false,
      "t": 208026.04166666706,
      "d": 98.95833333334303,
      "v": 89
    },
    {
      "midi": 63,
      "hit": false,
      "t": 208026.04166666706,
      "d": 98.95833333334303,
      "v": 89
    },
    {
      "midi": 66,
      "hit": false,
      "t": 208026.04166666706,
      "d": 98.95833333334303,
      "v": 87
    },
    {
      "midi": 63,
      "hit": false,
      "t": 208276.04166666706,
      "d": 315.10416666668607,
      "v": 95
    },
    {
      "midi": 59,
      "hit": false,
      "t": 208276.04166666706,
      "d": 322.91666666668607,
      "v": 91
    },
    {
      "midi": 66,
      "hit": false,
      "t": 208276.04166666706,
      "d": 322.91666666668607,
      "v": 93
    },
    {
      "midi": 61,
      "hit": false,
      "t": 209026.0416666671,
      "d": 572.9166666666861,
      "v": 95
    },
    {
      "midi": 58,
      "hit": false,
      "t": 209026.0416666671,
      "d": 591.145833333343,
      "v": 95
    },
    {
      "midi": 66,
      "hit": false,
      "t": 209026.0416666671,
      "d": 593.75,
      "v": 97
    },
    {
      "midi": 58,
      "hit": false,
      "t": 210026.0416666671,
      "d": 98.95833333334303,
      "v": 90
    },
    {
      "midi": 61,
      "hit": false,
      "t": 210026.0416666671,
      "d": 98.95833333334303,
      "v": 92
    },
    {
      "midi": 66,
      "hit": false,
      "t": 210026.0416666671,
      "d": 98.95833333334303,
      "v": 90
    },
    {
      "midi": 61,
      "hit": false,
      "t": 210276.0416666671,
      "d": 388.02083333334303,
      "v": 93
    },
    {
      "midi": 66,
      "hit": false,
      "t": 210276.0416666671,
      "d": 395.83333333334303,
      "v": 91
    },
    {
      "midi": 58,
      "hit": false,
      "t": 210276.0416666671,
      "d": 401.04166666668607,
      "v": 95
    },
    {
      "midi": 61,
      "hit": false,
      "t": 211026.04166666712,
      "d": 601.5625,
      "v": 93
    },
    {
      "midi": 66,
      "hit": false,
      "t": 211026.04166666712,
      "d": 609.375,
      "v": 99
    },
    {
      "midi": 58,
      "hit": false,
      "t": 211026.04166666712,
      "d": 617.1875,
      "v": 95
    },
    {
      "midi": 58,
      "hit": false,
      "t": 212026.04166666712,
      "d": 98.95833333334303,
      "v": 89
    },
    {
      "midi": 61,
      "hit": false,
      "t": 212026.04166666712,
      "d": 98.95833333334303,
      "v": 84
    },
    {
      "midi": 66,
      "hit": false,
      "t": 212026.04166666712,
      "d": 98.95833333334303,
      "v": 82
    },
    {
      "midi": 61,
      "hit": false,
      "t": 212276.04166666712,
      "d": 364.58333333334303,
      "v": 87
    },
    {
      "midi": 66,
      "hit": false,
      "t": 212276.04166666712,
      "d": 375,
      "v": 87
    },
    {
      "midi": 58,
      "hit": false,
      "t": 212276.04166666712,
      "d": 377.60416666665697,
      "v": 89
    },
    {
      "midi": 61,
      "hit": false,
      "t": 213026.04166666712,
      "d": 580.729166666657,
      "v": 93
    },
    {
      "midi": 66,
      "hit": false,
      "t": 213026.04166666712,
      "d": 588.541666666657,
      "v": 89
    },
    {
      "midi": 58,
      "hit": false,
      "t": 213026.04166666712,
      "d": 593.75,
      "v": 95
    },
    {
      "midi": 58,
      "hit": false,
      "t": 214026.04166666712,
      "d": 98.95833333334303,
      "v": 89
    },
    {
      "midi": 61,
      "hit": false,
      "t": 214026.04166666712,
      "d": 98.95833333334303,
      "v": 83
    },
    {
      "midi": 66,
      "hit": false,
      "t": 214026.04166666712,
      "d": 98.95833333334303,
      "v": 80
    },
    {
      "midi": 61,
      "hit": false,
      "t": 214276.04166666712,
      "d": 338.54166666668607,
      "v": 93
    },
    {
      "midi": 58,
      "hit": false,
      "t": 214276.04166666712,
      "d": 348.95833333334303,
      "v": 89
    },
    {
      "midi": 66,
      "hit": false,
      "t": 214276.04166666712,
      "d": 364.58333333334303,
      "v": 89
    },
    {
      "midi": 61,
      "hit": false,
      "t": 215026.04166666715,
      "d": 611.979166666657,
      "v": 91
    },
    {
      "midi": 58,
      "hit": false,
      "t": 215026.04166666715,
      "d": 630.2083333333139,
      "v": 89
    },
    {
      "midi": 66,
      "hit": false,
      "t": 215026.04166666715,
      "d": 643.229166666657,
      "v": 84
    },
    {
      "midi": 63,
      "hit": false,
      "t": 216026.04166666712,
      "d": 695.3125,
      "v": 104
    },
    {
      "midi": 66,
      "hit": false,
      "t": 216026.04166666712,
      "d": 697.916666666657,
      "v": 99
    },
    {
      "midi": 59,
      "hit": false,
      "t": 216026.04166666712,
      "d": 705.729166666657,
      "v": 104
    },
    {
      "midi": 59,
      "hit": false,
      "t": 217026.04166666712,
      "d": 98.95833333334303,
      "v": 97
    },
    {
      "midi": 63,
      "hit": false,
      "t": 217026.04166666712,
      "d": 98.95833333334303,
      "v": 95
    },
    {
      "midi": 66,
      "hit": false,
      "t": 217026.04166666712,
      "d": 98.95833333334303,
      "v": 95
    },
    {
      "midi": 63,
      "hit": false,
      "t": 217276.04166666712,
      "d": 346.35416666665697,
      "v": 99
    },
    {
      "midi": 66,
      "hit": false,
      "t": 217276.04166666712,
      "d": 354.16666666665697,
      "v": 97
    },
    {
      "midi": 59,
      "hit": false,
      "t": 217276.04166666712,
      "d": 356.77083333331393,
      "v": 97
    }
  ]
}