{
  "jsonPath": "Pop/Croatian Pop/Dani Marsan/jos-se-moje-more-umirilo-nije.json",
  "path": "Pop\\Croatian Pop\\Dani Marsan\\Jos Se Moje More Umirilo Nije.mid",
  "name": "Jos Se Moje More Umirilo Nije",
  "difficulty": "Advanced",
  "bpm": 80,
  "notes": [
    {
      "midi": 50,
      "hit": false,
      "t": 0,
      "d": 500,
      "v": 70
    },
    {
      "midi": 54,
      "hit": false,
      "t": 0,
      "d": 500,
      "v": 70
    },
    {
      "midi": 57,
      "hit": false,
      "t": 0,
      "d": 500,
      "v": 70
    },
    {
      "midi": 62,
      "hit": false,
      "t": 0,
      "d": 500,
      "v": 70
    },
    {
      "midi": 66,
      "hit": false,
      "t": 0,
      "d": 500,
      "v": 70
    },
    {
      "midi": 50,
      "hit": false,
      "t": 600,
      "d": 600,
      "v": 70
    },
    {
      "midi": 54,
      "hit": false,
      "t": 1200,
      "d": 600,
      "v": 60
    },
    {
      "midi": 54,
      "hit": false,
      "t": 1800,
      "d": 500,
      "v": 65
    },
    {
      "midi": 57,
      "hit": false,
      "t": 1800,
      "d": 500,
      "v": 65
    },
    {
      "midi": 62,
      "hit": false,
      "t": 1800,
      "d": 500,
      "v": 65
    },
    {
      "midi": 66,
      "hit": false,
      "t": 1800,
      "d": 500,
      "v": 65
    },
    {
      "midi": 61,
      "hit": false,
      "t": 2400,
      "d": 2100,
      "v": 75
    },
    {
      "midi": 64,
      "hit": false,
      "t": 2400,
      "d": 2100,
      "v": 75
    },
    {
      "midi": 66,
      "hit": false,
      "t": 2400,
      "d": 2100,
      "v": 75
    },
    {
      "midi": 69,
      "hit": false,
      "t": 2400,
      "d": 2100,
      "v": 75
    },
    {
      "midi": 52,
      "hit": false,
      "t": 4800,
      "d": 2100,
      "v": 70
    },
    {
      "midi": 59,
      "hit": false,
      "t": 4800,
      "d": 2100,
      "v": 70
    },
    {
      "midi": 62,
      "hit": false,
      "t": 4800,
      "d": 2100,
      "v": 70
    },
    {
      "midi": 64,
      "hit": false,
      "t": 4800,
      "d": 2100,
      "v": 70
    },
    {
      "midi": 67,
      "hit": false,
      "t": 4800,
      "d": 2100,
      "v": 70
    },
    {
      "midi": 55,
      "hit": false,
      "t": 9600,
      "d": 2100,
      "v": 70
    },
    {
      "midi": 59,
      "hit": false,
      "t": 9600,
      "d": 2100,
      "v": 70
    },
    {
      "midi": 62,
      "hit": false,
      "t": 9600,
      "d": 2100,
      "v": 70
    },
    {
      "midi": 55,
      "hit": false,
      "t": 12600,
      "d": 600,
      "v": 60
    },
    {
      "midi": 59,
      "hit": false,
      "t": 13200,
      "d": 600,
      "v": 65
    },
    {
      "midi": 62,
      "hit": false,
      "t": 13800,
      "d": 600,
      "v": 70
    },
    {
      "midi": 45,
      "hit": false,
      "t": 14400,
      "d": 2100,
      "v": 70
    },
    {
      "midi": 57,
      "hit": false,
      "t": 14400,
      "d": 2100,
      "v": 70
    },
    {
      "midi": 61,
      "hit": false,
      "t": 14400,
      "d": 2100,
      "v": 70
    },
    {
      "midi": 64,
      "hit": false,
      "t": 14400,
      "d": 2100,
      "v": 70
    },
    {
      "midi": 69,
      "hit": false,
      "t": 14400,
      "d": 2100,
      "v": 70
    },
    {
      "midi": 57,
      "hit": false,
      "t": 17400,
      "d": 600,
      "v": 60
    },
    {
      "midi": 61,
      "hit": false,
      "t": 18000,
      "d": 600,
      "v": 65
    },
    {
      "midi": 64,
      "hit": false,
      "t": 18600,
      "d": 600,
      "v": 70
    },
    {
      "midi": 57,
      "hit": false,
      "t": 19200,
      "d": 500,
      "v": 70
    },
    {
      "midi": 62,
      "hit": false,
      "t": 19200,
      "d": 500,
      "v": 70
    },
    {
      "midi": 66,
      "hit": false,
      "t": 19200,
      "d": 500,
      "v": 70
    },
    {
      "midi": 69,
      "hit": false,
      "t": 19200,
      "d": 500,
      "v": 70
    },
    {
      "midi": 50,
      "hit": false,
      "t": 19800,
      "d": 600,
      "v": 70
    },
    {
      "midi": 57,
      "hit": false,
      "t": 20400,
      "d": 600,
      "v": 60
    },
    {
      "midi": 57,
      "hit": false,
      "t": 21000,
      "d": 500,
      "v": 65
    },
    {
      "midi": 62,
      "hit": false,
      "t": 21000,
      "d": 500,
      "v": 65
    },
    {
      "midi": 66,
      "hit": false,
      "t": 21000,
      "d": 500,
      "v": 65
    },
    {
      "midi": 54,
      "hit": false,
      "t": 21600,
      "d": 500,
      "v": 70
    },
    {
      "midi": 61,
      "hit": false,
      "t": 21600,
      "d": 500,
      "v": 70
    },
    {
      "midi": 64,
      "hit": false,
      "t": 21600,
      "d": 500,
      "v": 70
    },
    {
      "midi": 66,
      "hit": false,
      "t": 21600,
      "d": 500,
      "v": 70
    },
    {
      "midi": 69,
      "hit": false,
      "t": 21600,
      "d": 500,
      "v": 70
    },
    {
      "midi": 61,
      "hit": false,
      "t": 22800,
      "d": 500,
      "v": 70
    },
    {
      "midi": 64,
      "hit": false,
      "t": 23400,
      "d": 500,
      "v": 60
    },
    {
      "midi": 52,
      "hit": false,
      "t": 24000,
      "d": 2100,
      "v": 70
    },
    {
      "midi": 59,
      "hit": false,
      "t": 24000,
      "d": 2100,
      "v": 70
    },
    {
      "midi": 62,
      "hit": false,
      "t": 24000,
      "d": 2100,
      "v": 70
    },
    {
      "midi": 64,
      "hit": false,
      "t": 24000,
      "d": 2100,
      "v": 70
    },
    {
      "midi": 67,
      "hit": false,
      "t": 24000,
      "d": 2100,
      "v": 70
    },
    {
      "midi": 52,
      "hit": false,
      "t": 27000,
      "d": 600,
      "v": 70
    },
    {
      "midi": 59,
      "hit": false,
      "t": 27600,
      "d": 1200,
      "v": 75
    },
    {
      "midi": 62,
      "hit": false,
      "t": 27600,
      "d": 1200,
      "v": 75
    },
    {
      "midi": 64,
      "hit": false,
      "t": 27600,
      "d": 1200,
      "v": 75
    },
    {
      "midi": 67,
      "hit": false,
      "t": 27600,
      "d": 1200,
      "v": 75
    },
    {
      "midi": 55,
      "hit": false,
      "t": 28800,
      "d": 500,
      "v": 70
    },
    {
      "midi": 59,
      "hit": false,
      "t": 28800,
      "d": 500,
      "v": 70
    },
    {
      "midi": 62,
      "hit": false,
      "t": 28800,
      "d": 500,
      "v": 70
    },
    {
      "midi": 55,
      "hit": false,
      "t": 30000,
      "d": 500,
      "v": 70
    },
    {
      "midi": 59,
      "hit": false,
      "t": 30600,
      "d": 500,
      "v": 60
    },
    {
      "midi": 57,
      "hit": false,
      "t": 31200,
      "d": 500,
      "v": 70
    },
    {
      "midi": 61,
      "hit": false,
      "t": 31200,
      "d": 500,
      "v": 70
    },
    {
      "midi": 64,
      "hit": false,
      "t": 31200,
      "d": 500,
      "v": 70
    },
    {
      "midi": 57,
      "hit": false,
      "t": 32400,
      "d": 500,
      "v": 70
    },
    {
      "midi": 61,
      "hit": false,
      "t": 33000,
      "d": 500,
      "v": 60
    },
    {
      "midi": 50,
      "hit": false,
      "t": 33600,
      "d": 200,
      "v": 70
    },
    {
      "midi": 57,
      "hit": false,
      "t": 33600,
      "d": 200,
      "v": 70
    },
    {
      "midi": 64,
      "hit": false,
      "t": 33600,
      "d": 200,
      "v": 70
    },
    {
      "midi": 66,
      "hit": false,
      "t": 33600,
      "d": 200,
      "v": 70
    },
    {
      "midi": 66,
      "hit": false,
      "t": 33900,
      "d": 300,
      "v": 80
    },
    {
      "midi": 64,
      "hit": false,
      "t": 34200,
      "d": 300,
      "v": 70
    },
    {
      "midi": 57,
      "hit": false,
      "t": 34500,
      "d": 300,
      "v": 70
    },
    {
      "midi": 50,
      "hit": false,
      "t": 34800,
      "d": 1000,
      "v": 70
    },
    {
      "midi": 57,
      "hit": false,
      "t": 34800,
      "d": 1000,
      "v": 70
    },
    {
      "midi": 62,
      "hit": false,
      "t": 34800,
      "d": 1000,
      "v": 70
    },
    {
      "midi": 66,
      "hit": false,
      "t": 34800,
      "d": 1000,
      "v": 70
    },
    {
      "midi": 50,
      "hit": false,
      "t": 36000,
      "d": 500,
      "v": 70
    },
    {
      "midi": 57,
      "hit": false,
      "t": 36000,
      "d": 500,
      "v": 70
    },
    {
      "midi": 62,
      "hit": false,
      "t": 36000,
      "d": 500,
      "v": 70
    },
    {
      "midi": 66,
      "hit": false,
      "t": 36000,
      "d": 500,
      "v": 70
    },
    {
      "midi": 57,
      "hit": false,
      "t": 37200,
      "d": 500,
      "v": 70
    },
    {
      "midi": 62,
      "hit": false,
      "t": 37800,
      "d": 500,
      "v": 60
    },
    {
      "midi": 54,
      "hit": false,
      "t": 38400,
      "d": 2100,
      "v": 75
    },
    {
      "midi": 59,
      "hit": false,
      "t": 38400,
      "d": 2100,
      "v": 75
    },
    {
      "midi": 62,
      "hit": false,
      "t": 38400,
      "d": 2100,
      "v": 75
    },
    {
      "midi": 66,
      "hit": false,
      "t": 38400,
      "d": 2100,
      "v": 75
    },
    {
      "midi": 61,
      "hit": false,
      "t": 40800,
      "d": 500,
      "v": 70
    },
    {
      "midi": 64,
      "hit": false,
      "t": 40800,
      "d": 500,
      "v": 70
    },
    {
      "midi": 66,
      "hit": false,
      "t": 40800,
      "d": 500,
      "v": 70
    },
    {
      "midi": 69,
      "hit": false,
      "t": 40800,
      "d": 500,
      "v": 70
    },
    {
      "midi": 61,
      "hit": false,
      "t": 42000,
      "d": 500,
      "v": 70
    },
    {
      "midi": 64,
      "hit": false,
      "t": 42600,
      "d": 500,
      "v": 60
    },
    {
      "midi": 52,
      "hit": false,
      "t": 43200,
      "d": 2100,
      "v": 70
    },
    {
      "midi": 59,
      "hit": false,
      "t": 43200,
      "d": 2100,
      "v": 70
    },
    {
      "midi": 62,
      "hit": false,
      "t": 43200,
      "d": 2100,
      "v": 70
    },
    {
      "midi": 64,
      "hit": false,
      "t": 43200,
      "d": 2100,
      "v": 70
    },
    {
      "midi": 67,
      "hit": false,
      "t": 43200,
      "d": 2100,
      "v": 70
    },
    {
      "midi": 52,
      "hit": false,
      "t": 46200,
      "d": 600,
      "v": 70
    },
    {
      "midi": 52,
      "hit": false,
      "t": 46800,
      "d": 1200,
      "v": 75
    },
    {
      "midi": 59,
      "hit": false,
      "t": 46800,
      "d": 1200,
      "v": 75
    },
    {
      "midi": 62,
      "hit": false,
      "t": 46800,
      "d": 1200,
      "v": 75
    },
    {
      "midi": 64,
      "hit": false,
      "t": 46800,
      "d": 1200,
      "v": 75
    },
    {
      "midi": 67,
      "hit": false,
      "t": 46800,
      "d": 1200,
      "v": 75
    },
    {
      "midi": 45,
      "hit": false,
      "t": 48000,
      "d": 500,
      "v": 70
    },
    {
      "midi": 55,
      "hit": false,
      "t": 48000,
      "d": 500,
      "v": 70
    },
    {
      "midi": 59,
      "hit": false,
      "t": 48000,
      "d": 500,
      "v": 70
    },
    {
      "midi": 62,
      "hit": false,
      "t": 48000,
      "d": 500,
      "v": 70
    },
    {
      "midi": 45,
      "hit": false,
      "t": 48600,
      "d": 600,
      "v": 60
    },
    {
      "midi": 55,
      "hit": false,
      "t": 49200,
      "d": 600,
      "v": 65
    },
    {
      "midi": 59,
      "hit": false,
      "t": 49800,
      "d": 600,
      "v": 60
    },
    {
      "midi": 57,
      "hit": false,
      "t": 50400,
      "d": 500,
      "v": 70
    },
    {
      "midi": 61,
      "hit": false,
      "t": 50400,
      "d": 500,
      "v": 70
    },
    {
      "midi": 64,
      "hit": false,
      "t": 50400,
      "d": 500,
      "v": 70
    },
    {
      "midi": 69,
      "hit": false,
      "t": 50400,
      "d": 500,
      "v": 70
    },
    {
      "midi": 57,
      "hit": false,
      "t": 51600,
      "d": 500,
      "v": 70
    },
    {
      "midi": 61,
      "hit": false,
      "t": 52200,
      "d": 500,
      "v": 60
    },
    {
      "midi": 57,
      "hit": false,
      "t": 52800,
      "d": 2100,
      "v": 70
    },
    {
      "midi": 62,
      "hit": false,
      "t": 52800,
      "d": 2100,
      "v": 70
    },
    {
      "midi": 66,
      "hit": false,
      "t": 52800,
      "d": 2100,
      "v": 70
    },
    {
      "midi": 50,
      "hit": false,
      "t": 57600,
      "d": 500,
      "v": 70
    },
    {
      "midi": 57,
      "hit": false,
      "t": 57600,
      "d": 500,
      "v": 70
    },
    {
      "midi": 62,
      "hit": false,
      "t": 57600,
      "d": 500,
      "v": 70
    },
    {
      "midi": 66,
      "hit": false,
      "t": 57600,
      "d": 500,
      "v": 70
    },
    {
      "midi": 50,
      "hit": false,
      "t": 58200,
      "d": 600,
      "v": 70
    },
    {
      "midi": 57,
      "hit": false,
      "t": 58800,
      "d": 600,
      "v": 60
    },
    {
      "midi": 57,
      "hit": false,
      "t": 59400,
      "d": 500,
      "v": 65
    },
    {
      "midi": 62,
      "hit": false,
      "t": 59400,
      "d": 500,
      "v": 65
    },
    {
      "midi": 66,
      "hit": false,
      "t": 59400,
      "d": 500,
      "v": 65
    },
    {
      "midi": 69,
      "hit": false,
      "t": 59400,
      "d": 500,
      "v": 65
    },
    {
      "midi": 54,
      "hit": false,
      "t": 60000,
      "d": 500,
      "v": 70
    },
    {
      "midi": 64,
      "hit": false,
      "t": 60000,
      "d": 500,
      "v": 70
    },
    {
      "midi": 66,
      "hit": false,
      "t": 60000,
      "d": 500,
      "v": 70
    },
    {
      "midi": 69,
      "hit": false,
      "t": 60000,
      "d": 500,
      "v": 70
    },
    {
      "midi": 73,
      "hit": false,
      "t": 60000,
      "d": 500,
      "v": 70
    },
    {
      "midi": 64,
      "hit": false,
      "t": 61200,
      "d": 500,
      "v": 70
    },
    {
      "midi": 66,
      "hit": false,
      "t": 61800,
      "d": 500,
      "v": 60
    },
    {
      "midi": 59,
      "hit": false,
      "t": 62400,
      "d": 2100,
      "v": 70
    },
    {
      "midi": 62,
      "hit": false,
      "t": 62400,
      "d": 2100,
      "v": 70
    },
    {
      "midi": 64,
      "hit": false,
      "t": 62400,
      "d": 2100,
      "v": 70
    },
    {
      "midi": 67,
      "hit": false,
      "t": 62400,
      "d": 2100,
      "v": 70
    },
    {
      "midi": 52,
      "hit": false,
      "t": 65400,
      "d": 600,
      "v": 70
    },
    {
      "midi": 59,
      "hit": false,
      "t": 66000,
      "d": 1200,
      "v": 75
    },
    {
      "midi": 62,
      "hit": false,
      "t": 66000,
      "d": 1200,
      "v": 75
    },
    {
      "midi": 64,
      "hit": false,
      "t": 66000,
      "d": 1200,
      "v": 75
    },
    {
      "midi": 67,
      "hit": false,
      "t": 66000,
      "d": 1200,
      "v": 75
    },
    {
      "midi": 55,
      "hit": false,
      "t": 67200,
      "d": 2100,
      "v": 75
    },
    {
      "midi": 59,
      "hit": false,
      "t": 67200,
      "d": 2100,
      "v": 75
    },
    {
      "midi": 62,
      "hit": false,
      "t": 67200,
      "d": 2100,
      "v": 75
    },
    {
      "midi": 67,
      "hit": false,
      "t": 67200,
      "d": 2100,
      "v": 75
    },
    {
      "midi": 57,
      "hit": false,
      "t": 69600,
      "d": 2100,
      "v": 75
    },
    {
      "midi": 61,
      "hit": false,
      "t": 69600,
      "d": 2100,
      "v": 75
    },
    {
      "midi": 64,
      "hit": false,
      "t": 69600,
      "d": 2100,
      "v": 75
    },
    {
      "midi": 57,
      "hit": false,
      "t": 72000,
      "d": 200,
      "v": 70
    },
    {
      "midi": 64,
      "hit": false,
      "t": 72000,
      "d": 200,
      "v": 70
    },
    {
      "midi": 66,
      "hit": false,
      "t": 72000,
      "d": 200,
      "v": 70
    },
    {
      "midi": 69,
      "hit": false,
      "t": 72000,
      "d": 200,
      "v": 70
    },
    {
      "midi": 66,
      "hit": false,
      "t": 72300,
      "d": 300,
      "v": 80
    },
    {
      "midi": 64,
      "hit": false,
      "t": 72600,
      "d": 300,
      "v": 70
    },
    {
      "midi": 57,
      "hit": false,
      "t": 72900,
      "d": 300,
      "v": 70
    },
    {
      "midi": 54,
      "hit": false,
      "t": 73200,
      "d": 1000,
      "v": 70
    },
    {
      "midi": 57,
      "hit": false,
      "t": 73200,
      "d": 1000,
      "v": 70
    },
    {
      "midi": 62,
      "hit": false,
      "t": 73200,
      "d": 1000,
      "v": 70
    },
    {
      "midi": 66,
      "hit": false,
      "t": 73200,
      "d": 1000,
      "v": 70
    },
    {
      "midi": 54,
      "hit": false,
      "t": 74400,
      "d": 500,
      "v": 70
    },
    {
      "midi": 57,
      "hit": false,
      "t": 74400,
      "d": 500,
      "v": 70
    },
    {
      "midi": 62,
      "hit": false,
      "t": 74400,
      "d": 500,
      "v": 70
    },
    {
      "midi": 66,
      "hit": false,
      "t": 74400,
      "d": 500,
      "v": 70
    },
    {
      "midi": 50,
      "hit": false,
      "t": 75000,
      "d": 600,
      "v": 60
    },
    {
      "midi": 54,
      "hit": false,
      "t": 75600,
      "d": 600,
      "v": 65
    },
    {
      "midi": 57,
      "hit": false,
      "t": 76200,
      "d": 600,
      "v": 60
    },
    {
      "midi": 54,
      "hit": false,
      "t": 76800,
      "d": 500,
      "v": 70
    },
    {
      "midi": 59,
      "hit": false,
      "t": 76800,
      "d": 500,
      "v": 70
    },
    {
      "midi": 62,
      "hit": false,
      "t": 76800,
      "d": 500,
      "v": 70
    },
    {
      "midi": 66,
      "hit": false,
      "t": 76800,
      "d": 500,
      "v": 70
    },
    {
      "midi": 47,
      "hit": false,
      "t": 77400,
      "d": 600,
      "v": 70
    },
    {
      "midi": 54,
      "hit": false,
      "t": 78000,
      "d": 600,
      "v": 60
    },
    {
      "midi": 47,
      "hit": false,
      "t": 78600,
      "d": 500,
      "v": 65
    },
    {
      "midi": 54,
      "hit": false,
      "t": 78600,
      "d": 500,
      "v": 65
    },
    {
      "midi": 59,
      "hit": false,
      "t": 78600,
      "d": 500,
      "v": 65
    },
    {
      "midi": 62,
      "hit": false,
      "t": 78600,
      "d": 500,
      "v": 65
    },
    {
      "midi": 61,
      "hit": false,
      "t": 79200,
      "d": 500,
      "v": 70
    },
    {
      "midi": 64,
      "hit": false,
      "t": 79200,
      "d": 500,
      "v": 70
    },
    {
      "midi": 66,
      "hit": false,
      "t": 79200,
      "d": 500,
      "v": 70
    },
    {
      "midi": 69,
      "hit": false,
      "t": 79200,
      "d": 500,
      "v": 70
    },
    {
      "midi": 54,
      "hit": false,
      "t": 79800,
      "d": 600,
      "v": 70
    },
    {
      "midi": 61,
      "hit": false,
      "t": 80400,
      "d": 600,
      "v": 60
    },
    {
      "midi": 61,
      "hit": false,
      "t": 81000,
      "d": 500,
      "v": 65
    },
    {
      "midi": 64,
      "hit": false,
      "t": 81000,
      "d": 500,
      "v": 65
    },
    {
      "midi": 66,
      "hit": false,
      "t": 81000,
      "d": 500,
      "v": 65
    },
    {
      "midi": 69,
      "hit": false,
      "t": 81000,
      "d": 500,
      "v": 65
    },
    {
      "midi": 52,
      "hit": false,
      "t": 81600,
      "d": 2100,
      "v": 70
    },
    {
      "midi": 59,
      "hit": false,
      "t": 81600,
      "d": 2100,
      "v": 70
    },
    {
      "midi": 62,
      "hit": false,
      "t": 81600,
      "d": 2100,
      "v": 70
    },
    {
      "midi": 64,
      "hit": false,
      "t": 81600,
      "d": 2100,
      "v": 70
    },
    {
      "midi": 67,
      "hit": false,
      "t": 81600,
      "d": 2100,
      "v": 70
    },
    {
      "midi": 59,
      "hit": false,
      "t": 84600,
      "d": 600,
      "v": 60
    },
    {
      "midi": 62,
      "hit": false,
      "t": 85200,
      "d": 600,
      "v": 65
    },
    {
      "midi": 64,
      "hit": false,
      "t": 85800,
      "d": 600,
      "v": 70
    },
    {
      "midi": 55,
      "hit": false,
      "t": 86400,
      "d": 500,
      "v": 70
    },
    {
      "midi": 59,
      "hit": false,
      "t": 86400,
      "d": 500,
      "v": 70
    },
    {
      "midi": 62,
      "hit": false,
      "t": 86400,
      "d": 500,
      "v": 70
    },
    {
      "midi": 45,
      "hit": false,
      "t": 87000,
      "d": 600,
      "v": 60
    },
    {
      "midi": 55,
      "hit": false,
      "t": 87600,
      "d": 600,
      "v": 65
    },
    {
      "midi": 59,
      "hit": false,
      "t": 88200,
      "d": 600,
      "v": 60
    },
    {
      "midi": 57,
      "hit": false,
      "t": 88800,
      "d": 500,
      "v": 70
    },
    {
      "midi": 61,
      "hit": false,
      "t": 88800,
      "d": 500,
      "v": 70
    },
    {
      "midi": 64,
      "hit": false,
      "t": 88800,
      "d": 500,
      "v": 70
    },
    {
      "midi": 45,
      "hit": false,
      "t": 89400,
      "d": 600,
      "v": 70
    },
    {
      "midi": 57,
      "hit": false,
      "t": 90000,
      "d": 600,
      "v": 60
    },
    {
      "midi": 57,
      "hit": false,
      "t": 90600,
      "d": 500,
      "v": 65
    },
    {
      "midi": 61,
      "hit": false,
      "t": 90600,
      "d": 500,
      "v": 65
    },
    {
      "midi": 64,
      "hit": false,
      "t": 90600,
      "d": 500,
      "v": 65
    },
    {
      "midi": 69,
      "hit": false,
      "t": 90600,
      "d": 500,
      "v": 65
    },
    {
      "midi": 57,
      "hit": false,
      "t": 91200,
      "d": 2100,
      "v": 70
    },
    {
      "midi": 62,
      "hit": false,
      "t": 91200,
      "d": 2100,
      "v": 70
    },
    {
      "midi": 66,
      "hit": false,
      "t": 91200,
      "d": 2100,
      "v": 70
    },
    {
      "midi": 69,
      "hit": false,
      "t": 91200,
      "d": 2100,
      "v": 70
    },
    {
      "midi": 57,
      "hit": false,
      "t": 94200,
      "d": 600,
      "v": 60
    },
    {
      "midi": 62,
      "hit": false,
      "t": 94800,
      "d": 600,
      "v": 65
    },
    {
      "midi": 66,
      "hit": false,
      "t": 95400,
      "d": 600,
      "v": 70
    },
    {
      "midi": 54,
      "hit": false,
      "t": 96000,
      "d": 500,
      "v": 70
    },
    {
      "midi": 59,
      "hit": false,
      "t": 96000,
      "d": 500,
      "v": 70
    },
    {
      "midi": 61,
      "hit": false,
      "t": 96000,
      "d": 500,
      "v": 70
    },
    {
      "midi": 54,
      "hit": false,
      "t": 96600,
      "d": 600,
      "v": 70
    },
    {
      "midi": 54,
      "hit": false,
      "t": 97200,
      "d": 600,
      "v": 60
    },
    {
      "midi": 54,
      "hit": false,
      "t": 97800,
      "d": 500,
      "v": 65
    },
    {
      "midi": 59,
      "hit": false,
      "t": 97800,
      "d": 500,
      "v": 65
    },
    {
      "midi": 61,
      "hit": false,
      "t": 97800,
      "d": 500,
      "v": 65
    },
    {
      "midi": 66,
      "hit": false,
      "t": 97800,
      "d": 500,
      "v": 65
    },
    {
      "midi": 54,
      "hit": false,
      "t": 98400,
      "d": 500,
      "v": 70
    },
    {
      "midi": 58,
      "hit": false,
      "t": 98400,
      "d": 500,
      "v": 70
    },
    {
      "midi": 61,
      "hit": false,
      "t": 98400,
      "d": 500,
      "v": 70
    },
    {
      "midi": 54,
      "hit": false,
      "t": 99000,
      "d": 600,
      "v": 70
    },
    {
      "midi": 54,
      "hit": false,
      "t": 99600,
      "d": 600,
      "v": 60
    },
    {
      "midi": 54,
      "hit": false,
      "t": 100200,
      "d": 500,
      "v": 65
    },
    {
      "midi": 58,
      "hit": false,
      "t": 100200,
      "d": 500,
      "v": 65
    },
    {
      "midi": 61,
      "hit": false,
      "t": 100200,
      "d": 500,
      "v": 65
    },
    {
      "midi": 66,
      "hit": false,
      "t": 100200,
      "d": 500,
      "v": 65
    },
    {
      "midi": 54,
      "hit": false,
      "t": 100800,
      "d": 2100,
      "v": 70
    },
    {
      "midi": 59,
      "hit": false,
      "t": 100800,
      "d": 2100,
      "v": 70
    },
    {
      "midi": 62,
      "hit": false,
      "t": 100800,
      "d": 2100,
      "v": 70
    },
    {
      "midi": 66,
      "hit": false,
      "t": 100800,
      "d": 2100,
      "v": 70
    },
    {
      "midi": 54,
      "hit": false,
      "t": 103800,
      "d": 600,
      "v": 60
    },
    {
      "midi": 59,
      "hit": false,
      "t": 104400,
      "d": 600,
      "v": 65
    },
    {
      "midi": 62,
      "hit": false,
      "t": 105000,
      "d": 600,
      "v": 70
    },
    {
      "midi": 59,
      "hit": false,
      "t": 105600,
      "d": 500,
      "v": 70
    },
    {
      "midi": 62,
      "hit": false,
      "t": 105600,
      "d": 500,
      "v": 70
    },
    {
      "midi": 64,
      "hit": false,
      "t": 105600,
      "d": 500,
      "v": 70
    },
    {
      "midi": 67,
      "hit": false,
      "t": 105600,
      "d": 500,
      "v": 70
    },
    {
      "midi": 52,
      "hit": false,
      "t": 106200,
      "d": 600,
      "v": 60
    },
    {
      "midi": 59,
      "hit": false,
      "t": 106800,
      "d": 600,
      "v": 65
    },
    {
      "midi": 62,
      "hit": false,
      "t": 107400,
      "d": 600,
      "v": 60
    },
    {
      "midi": 57,
      "hit": false,
      "t": 108000,
      "d": 500,
      "v": 70
    },
    {
      "midi": 61,
      "hit": false,
      "t": 108000,
      "d": 500,
      "v": 70
    },
    {
      "midi": 64,
      "hit": false,
      "t": 108000,
      "d": 500,
      "v": 70
    },
    {
      "midi": 69,
      "hit": false,
      "t": 108000,
      "d": 500,
      "v": 70
    },
    {
      "midi": 45,
      "hit": false,
      "t": 108600,
      "d": 600,
      "v": 60
    },
    {
      "midi": 57,
      "hit": false,
      "t": 109200,
      "d": 600,
      "v": 65
    },
    {
      "midi": 61,
      "hit": false,
      "t": 109800,
      "d": 600,
      "v": 60
    },
    {
      "midi": 57,
      "hit": false,
      "t": 110400,
      "d": 2100,
      "v": 70
    },
    {
      "midi": 62,
      "hit": false,
      "t": 110400,
      "d": 2100,
      "v": 70
    },
    {
      "midi": 66,
      "hit": false,
      "t": 110400,
      "d": 2100,
      "v": 70
    },
    {
      "midi": 50,
      "hit": false,
      "t": 113400,
      "d": 600,
      "v": 70
    },
    {
      "midi": 57,
      "hit": false,
      "t": 114000,
      "d": 1200,
      "v": 75
    },
    {
      "midi": 62,
      "hit": false,
      "t": 114000,
      "d": 1200,
      "v": 75
    },
    {
      "midi": 66,
      "hit": false,
      "t": 114000,
      "d": 1200,
      "v": 75
    },
    {
      "midi": 54,
      "hit": false,
      "t": 115200,
      "d": 500,
      "v": 70
    },
    {
      "midi": 59,
      "hit": false,
      "t": 115200,
      "d": 500,
      "v": 70
    },
    {
      "midi": 61,
      "hit": false,
      "t": 115200,
      "d": 500,
      "v": 70
    },
    {
      "midi": 66,
      "hit": false,
      "t": 115200,
      "d": 500,
      "v": 70
    },
    {
      "midi": 54,
      "hit": false,
      "t": 116400,
      "d": 500,
      "v": 70
    },
    {
      "midi": 59,
      "hit": false,
      "t": 117000,
      "d": 500,
      "v": 60
    },
    {
      "midi": 54,
      "hit": false,
      "t": 117600,
      "d": 500,
      "v": 70
    },
    {
      "midi": 58,
      "hit": false,
      "t": 117600,
      "d": 500,
      "v": 70
    },
    {
      "midi": 61,
      "hit": false,
      "t": 117600,
      "d": 500,
      "v": 70
    },
    {
      "midi": 54,
      "hit": false,
      "t": 118800,
      "d": 500,
      "v": 70
    },
    {
      "midi": 58,
      "hit": false,
      "t": 119400,
      "d": 500,
      "v": 60
    },
    {
      "midi": 54,
      "hit": false,
      "t": 120000,
      "d": 2100,
      "v": 70
    },
    {
      "midi": 59,
      "hit": false,
      "t": 120000,
      "d": 2100,
      "v": 70
    },
    {
      "midi": 62,
      "hit": false,
      "t": 120000,
      "d": 2100,
      "v": 70
    },
    {
      "midi": 66,
      "hit": false,
      "t": 120000,
      "d": 2100,
      "v": 70
    },
    {
      "midi": 57,
      "hit": false,
      "t": 124800,
      "d": 500,
      "v": 70
    },
    {
      "midi": 62,
      "hit": false,
      "t": 124800,
      "d": 500,
      "v": 70
    },
    {
      "midi": 66,
      "hit": false,
      "t": 124800,
      "d": 500,
      "v": 70
    },
    {
      "midi": 69,
      "hit": false,
      "t": 124800,
      "d": 500,
      "v": 70
    },
    {
      "midi": 52,
      "hit": false,
      "t": 125400,
      "d": 600,
      "v": 60
    },
    {
      "midi": 57,
      "hit": false,
      "t": 126000,
      "d": 600,
      "v": 65
    },
    {
      "midi": 62,
      "hit": false,
      "t": 126600,
      "d": 600,
      "v": 60
    },
    {
      "midi": 52,
      "hit": false,
      "t": 127200,
      "d": 500,
      "v": 70
    },
    {
      "midi": 56,
      "hit": false,
      "t": 127200,
      "d": 500,
      "v": 70
    },
    {
      "midi": 59,
      "hit": false,
      "t": 127200,
      "d": 500,
      "v": 70
    },
    {
      "midi": 64,
      "hit": false,
      "t": 127200,
      "d": 500,
      "v": 70
    },
    {
      "midi": 56,
      "hit": false,
      "t": 128400,
      "d": 500,
      "v": 70
    },
    {
      "midi": 59,
      "hit": false,
      "t": 129000,
      "d": 500,
      "v": 60
    },
    {
      "midi": 57,
      "hit": false,
      "t": 129600,
      "d": 500,
      "v": 70
    },
    {
      "midi": 62,
      "hit": false,
      "t": 129600,
      "d": 500,
      "v": 70
    },
    {
      "midi": 64,
      "hit": false,
      "t": 129600,
      "d": 500,
      "v": 70
    },
    {
      "midi": 69,
      "hit": false,
      "t": 129600,
      "d": 500,
      "v": 70
    },
    {
      "midi": 45,
      "hit": false,
      "t": 130200,
      "d": 600,
      "v": 60
    },
    {
      "midi": 57,
      "hit": false,
      "t": 130800,
      "d": 600,
      "v": 65
    },
    {
      "midi": 62,
      "hit": false,
      "t": 131400,
      "d": 600,
      "v": 60
    },
    {
      "midi": 45,
      "hit": false,
      "t": 132000,
      "d": 500,
      "v": 70
    },
    {
      "midi": 57,
      "hit": false,
      "t": 132000,
      "d": 500,
      "v": 70
    },
    {
      "midi": 61,
      "hit": false,
      "t": 132000,
      "d": 500,
      "v": 70
    },
    {
      "midi": 64,
      "hit": false,
      "t": 132000,
      "d": 500,
      "v": 70
    },
    {
      "midi": 69,
      "hit": false,
      "t": 132000,
      "d": 500,
      "v": 70
    },
    {
      "midi": 45,
      "hit": false,
      "t": 132600,
      "d": 600,
      "v": 60
    },
    {
      "midi": 57,
      "hit": false,
      "t": 133200,
      "d": 600,
      "v": 65
    },
    {
      "midi": 61,
      "hit": false,
      "t": 133800,
      "d": 600,
      "v": 60
    },
    {
      "midi": 57,
      "hit": false,
      "t": 134400,
      "d": 500,
      "v": 70
    },
    {
      "midi": 62,
      "hit": false,
      "t": 134400,
      "d": 500,
      "v": 70
    },
    {
      "midi": 66,
      "hit": false,
      "t": 134400,
      "d": 500,
      "v": 70
    },
    {
      "midi": 50,
      "hit": false,
      "t": 135000,
      "d": 600,
      "v": 70
    },
    {
      "midi": 57,
      "hit": false,
      "t": 135600,
      "d": 600,
      "v": 60
    },
    {
      "midi": 57,
      "hit": false,
      "t": 136200,
      "d": 500,
      "v": 65
    },
    {
      "midi": 62,
      "hit": false,
      "t": 136200,
      "d": 500,
      "v": 65
    },
    {
      "midi": 66,
      "hit": false,
      "t": 136200,
      "d": 500,
      "v": 65
    },
    {
      "midi": 54,
      "hit": false,
      "t": 136800,
      "d": 2100,
      "v": 75
    },
    {
      "midi": 64,
      "hit": false,
      "t": 136800,
      "d": 2100,
      "v": 75
    },
    {
      "midi": 66,
      "hit": false,
      "t": 136800,
      "d": 2100,
      "v": 75
    },
    {
      "midi": 69,
      "hit": false,
      "t": 136800,
      "d": 2100,
      "v": 75
    },
    {
      "midi": 73,
      "hit": false,
      "t": 136800,
      "d": 2100,
      "v": 75
    },
    {
      "midi": 52,
      "hit": false,
      "t": 139200,
      "d": 2100,
      "v": 70
    },
    {
      "midi": 59,
      "hit": false,
      "t": 139200,
      "d": 2100,
      "v": 70
    },
    {
      "midi": 62,
      "hit": false,
      "t": 139200,
      "d": 2100,
      "v": 70
    },
    {
      "midi": 64,
      "hit": false,
      "t": 139200,
      "d": 2100,
      "v": 70
    },
    {
      "midi": 67,
      "hit": false,
      "t": 139200,
      "d": 2100,
      "v": 70
    },
    {
      "midi": 52,
      "hit": false,
      "t": 142200,
      "d": 600,
      "v": 70
    },
    {
      "midi": 59,
      "hit": false,
      "t": 142800,
      "d": 1200,
      "v": 75
    },
    {
      "midi": 62,
      "hit": false,
      "t": 142800,
      "d": 1200,
      "v": 75
    },
    {
      "midi": 64,
      "hit": false,
      "t": 142800,
      "d": 1200,
      "v": 75
    },
    {
      "midi": 67,
      "hit": false,
      "t": 142800,
      "d": 1200,
      "v": 75
    },
    {
      "midi": 55,
      "hit": false,
      "t": 144000,
      "d": 500,
      "v": 70
    },
    {
      "midi": 59,
      "hit": false,
      "t": 144000,
      "d": 500,
      "v": 70
    },
    {
      "midi": 62,
      "hit": false,
      "t": 144000,
      "d": 500,
      "v": 70
    },
    {
      "midi": 45,
      "hit": false,
      "t": 144600,
      "d": 600,
      "v": 70
    },
    {
      "midi": 55,
      "hit": false,
      "t": 145200,
      "d": 600,
      "v": 60
    },
    {
      "midi": 55,
      "hit": false,
      "t": 145800,
      "d": 500,
      "v": 65
    },
    {
      "midi": 59,
      "hit": false,
      "t": 145800,
      "d": 500,
      "v": 65
    },
    {
      "midi": 62,
      "hit": false,
      "t": 145800,
      "d": 500,
      "v": 65
    },
    {
      "midi": 57,
      "hit": false,
      "t": 146400,
      "d": 500,
      "v": 70
    },
    {
      "midi": 61,
      "hit": false,
      "t": 146400,
      "d": 500,
      "v": 70
    },
    {
      "midi": 64,
      "hit": false,
      "t": 146400,
      "d": 500,
      "v": 70
    },
    {
      "midi": 45,
      "hit": false,
      "t": 147000,
      "d": 600,
      "v": 70
    },
    {
      "midi": 57,
      "hit": false,
      "t": 147600,
      "d": 600,
      "v": 60
    },
    {
      "midi": 45,
      "hit": false,
      "t": 148200,
      "d": 500,
      "v": 65
    },
    {
      "midi": 57,
      "hit": false,
      "t": 148200,
      "d": 500,
      "v": 65
    },
    {
      "midi": 61,
      "hit": false,
      "t": 148200,
      "d": 500,
      "v": 65
    },
    {
      "midi": 64,
      "hit": false,
      "t": 148200,
      "d": 500,
      "v": 65
    },
    {
      "midi": 57,
      "hit": false,
      "t": 148800,
      "d": 200,
      "v": 70
    },
    {
      "midi": 64,
      "hit": false,
      "t": 148800,
      "d": 200,
      "v": 70
    },
    {
      "midi": 66,
      "hit": false,
      "t": 148800,
      "d": 200,
      "v": 70
    },
    {
      "midi": 69,
      "hit": false,
      "t": 148800,
      "d": 200,
      "v": 70
    },
    {
      "midi": 66,
      "hit": false,
      "t": 149100,
      "d": 300,
      "v": 80
    },
    {
      "midi": 64,
      "hit": false,
      "t": 149400,
      "d": 300,
      "v": 70
    },
    {
      "midi": 57,
      "hit": false,
      "t": 149700,
      "d": 300,
      "v": 70
    },
    {
      "midi": 57,
      "hit": false,
      "t": 150000,
      "d": 1000,
      "v": 70
    },
    {
      "midi": 62,
      "hit": false,
      "t": 150000,
      "d": 1000,
      "v": 70
    },
    {
      "midi": 66,
      "hit": false,
      "t": 150000,
      "d": 1000,
      "v": 70
    },
    {
      "midi": 50,
      "hit": false,
      "t": 151200,
      "d": 500,
      "v": 70
    },
    {
      "midi": 57,
      "hit": false,
      "t": 151200,
      "d": 500,
      "v": 70
    },
    {
      "midi": 62,
      "hit": false,
      "t": 151200,
      "d": 500,
      "v": 70
    },
    {
      "midi": 66,
      "hit": false,
      "t": 151200,
      "d": 500,
      "v": 70
    },
    {
      "midi": 57,
      "hit": false,
      "t": 152400,
      "d": 500,
      "v": 70
    },
    {
      "midi": 62,
      "hit": false,
      "t": 153000,
      "d": 500,
      "v": 60
    },
    {
      "midi": 59,
      "hit": false,
      "t": 153600,
      "d": 500,
      "v": 70
    },
    {
      "midi": 62,
      "hit": false,
      "t": 153600,
      "d": 500,
      "v": 70
    },
    {
      "midi": 66,
      "hit": false,
      "t": 153600,
      "d": 500,
      "v": 70
    },
    {
      "midi": 71,
      "hit": false,
      "t": 153600,
      "d": 500,
      "v": 70
    },
    {
      "midi": 59,
      "hit": false,
      "t": 154800,
      "d": 500,
      "v": 70
    },
    {
      "midi": 62,
      "hit": false,
      "t": 155400,
      "d": 500,
      "v": 60
    },
    {
      "midi": 54,
      "hit": false,
      "t": 156000,
      "d": 2100,
      "v": 75
    },
    {
      "midi": 61,
      "hit": false,
      "t": 156000,
      "d": 2100,
      "v": 75
    },
    {
      "midi": 64,
      "hit": false,
      "t": 156000,
      "d": 2100,
      "v": 75
    },
    {
      "midi": 66,
      "hit": false,
      "t": 156000,
      "d": 2100,
      "v": 75
    },
    {
      "midi": 69,
      "hit": false,
      "t": 156000,
      "d": 2100,
      "v": 75
    },
    {
      "midi": 59,
      "hit": false,
      "t": 158400,
      "d": 2100,
      "v": 70
    },
    {
      "midi": 62,
      "hit": false,
      "t": 158400,
      "d": 2100,
      "v": 70
    },
    {
      "midi": 64,
      "hit": false,
      "t": 158400,
      "d": 2100,
      "v": 70
    },
    {
      "midi": 67,
      "hit": false,
      "t": 158400,
      "d": 2100,
      "v": 70
    },
    {
      "midi": 52,
      "hit": false,
      "t": 161400,
      "d": 600,
      "v": 70
    },
    {
      "midi": 59,
      "hit": false,
      "t": 162000,
      "d": 1200,
      "v": 75
    },
    {
      "midi": 62,
      "hit": false,
      "t": 162000,
      "d": 1200,
      "v": 75
    },
    {
      "midi": 64,
      "hit": false,
      "t": 162000,
      "d": 1200,
      "v": 75
    },
    {
      "midi": 67,
      "hit": false,
      "t": 162000,
      "d": 1200,
      "v": 75
    },
    {
      "midi": 55,
      "hit": false,
      "t": 163200,
      "d": 500,
      "v": 70
    },
    {
      "midi": 59,
      "hit": false,
      "t": 163200,
      "d": 500,
      "v": 70
    },
    {
      "midi": 62,
      "hit": false,
      "t": 163200,
      "d": 500,
      "v": 70
    },
    {
      "midi": 67,
      "hit": false,
      "t": 163200,
      "d": 500,
      "v": 70
    },
    {
      "midi": 45,
      "hit": false,
      "t": 163800,
      "d": 600,
      "v": 60
    },
    {
      "midi": 55,
      "hit": false,
      "t": 164400,
      "d": 600,
      "v": 65
    },
    {
      "midi": 59,
      "hit": false,
      "t": 165000,
      "d": 600,
      "v": 60
    },
    {
      "midi": 57,
      "hit": false,
      "t": 165600,
      "d": 500,
      "v": 70
    },
    {
      "midi": 61,
      "hit": false,
      "t": 165600,
      "d": 500,
      "v": 70
    },
    {
      "midi": 64,
      "hit": false,
      "t": 165600,
      "d": 500,
      "v": 70
    },
    {
      "midi": 69,
      "hit": false,
      "t": 165600,
      "d": 500,
      "v": 70
    },
    {
      "midi": 57,
      "hit": false,
      "t": 166800,
      "d": 500,
      "v": 70
    },
    {
      "midi": 61,
      "hit": false,
      "t": 167400,
      "d": 500,
      "v": 60
    },
    {
      "midi": 50,
      "hit": false,
      "t": 168000,
      "d": 2100,
      "v": 70
    },
    {
      "midi": 57,
      "hit": false,
      "t": 168000,
      "d": 2100,
      "v": 70
    },
    {
      "midi": 62,
      "hit": false,
      "t": 168000,
      "d": 2100,
      "v": 70
    },
    {
      "midi": 66,
      "hit": false,
      "t": 168000,
      "d": 2100,
      "v": 70
    },
    {
      "midi": 69,
      "hit": false,
      "t": 168000,
      "d": 2100,
      "v": 70
    },
    {
      "midi": 50,
      "hit": false,
      "t": 171000,
      "d": 600,
      "v": 70
    },
    {
      "midi": 57,
      "hit": false,
      "t": 171600,
      "d": 1200,
      "v": 75
    },
    {
      "midi": 62,
      "hit": false,
      "t": 171600,
      "d": 1200,
      "v": 75
    },
    {
      "midi": 66,
      "hit": false,
      "t": 171600,
      "d": 1200,
      "v": 75
    },
    {
      "midi": 54,
      "hit": false,
      "t": 172800,
      "d": 500,
      "v": 70
    },
    {
      "midi": 59,
      "hit": false,
      "t": 172800,
      "d": 500,
      "v": 70
    },
    {
      "midi": 61,
      "hit": false,
      "t": 172800,
      "d": 500,
      "v": 70
    },
    {
      "midi": 66,
      "hit": false,
      "t": 172800,
      "d": 500,
      "v": 70
    },
    {
      "midi": 54,
      "hit": false,
      "t": 173400,
      "d": 600,
      "v": 70
    },
    {
      "midi": 54,
      "hit": false,
      "t": 174000,
      "d": 600,
      "v": 60
    },
    {
      "midi": 54,
      "hit": false,
      "t": 174600,
      "d": 500,
      "v": 65
    },
    {
      "midi": 59,
      "hit": false,
      "t": 174600,
      "d": 500,
      "v": 65
    },
    {
      "midi": 61,
      "hit": false,
      "t": 174600,
      "d": 500,
      "v": 65
    },
    {
      "midi": 66,
      "hit": false,
      "t": 174600,
      "d": 500,
      "v": 65
    },
    {
      "midi": 61,
      "hit": false,
      "t": 175200,
      "d": 500,
      "v": 70
    },
    {
      "midi": 66,
      "hit": false,
      "t": 175200,
      "d": 500,
      "v": 70
    },
    {
      "midi": 70,
      "hit": false,
      "t": 175200,
      "d": 500,
      "v": 70
    },
    {
      "midi": 73,
      "hit": false,
      "t": 175200,
      "d": 500,
      "v": 70
    },
    {
      "midi": 61,
      "hit": false,
      "t": 176400,
      "d": 500,
      "v": 70
    },
    {
      "midi": 66,
      "hit": false,
      "t": 177000,
      "d": 500,
      "v": 60
    },
    {
      "midi": 54,
      "hit": false,
      "t": 177600,
      "d": 2100,
      "v": 70
    },
    {
      "midi": 59,
      "hit": false,
      "t": 177600,
      "d": 2100,
      "v": 70
    },
    {
      "midi": 62,
      "hit": false,
      "t": 177600,
      "d": 2100,
      "v": 70
    },
    {
      "midi": 54,
      "hit": false,
      "t": 180600,
      "d": 600,
      "v": 60
    },
    {
      "midi": 59,
      "hit": false,
      "t": 181200,
      "d": 600,
      "v": 65
    },
    {
      "midi": 62,
      "hit": false,
      "t": 181800,
      "d": 600,
      "v": 70
    },
    {
      "midi": 52,
      "hit": false,
      "t": 182400,
      "d": 500,
      "v": 70
    },
    {
      "midi": 59,
      "hit": false,
      "t": 182400,
      "d": 500,
      "v": 70
    },
    {
      "midi": 62,
      "hit": false,
      "t": 182400,
      "d": 500,
      "v": 70
    },
    {
      "midi": 64,
      "hit": false,
      "t": 182400,
      "d": 500,
      "v": 70
    },
    {
      "midi": 67,
      "hit": false,
      "t": 182400,
      "d": 500,
      "v": 70
    },
    {
      "midi": 52,
      "hit": false,
      "t": 183000,
      "d": 600,
      "v": 70
    },
    {
      "midi": 59,
      "hit": false,
      "t": 183600,
      "d": 600,
      "v": 60
    },
    {
      "midi": 52,
      "hit": false,
      "t": 184200,
      "d": 500,
      "v": 65
    },
    {
      "midi": 59,
      "hit": false,
      "t": 184200,
      "d": 500,
      "v": 65
    },
    {
      "midi": 62,
      "hit": false,
      "t": 184200,
      "d": 500,
      "v": 65
    },
    {
      "midi": 64,
      "hit": false,
      "t": 184200,
      "d": 500,
      "v": 65
    },
    {
      "midi": 67,
      "hit": false,
      "t": 184200,
      "d": 500,
      "v": 65
    },
    {
      "midi": 57,
      "hit": false,
      "t": 184800,
      "d": 500,
      "v": 70
    },
    {
      "midi": 61,
      "hit": false,
      "t": 184800,
      "d": 500,
      "v": 70
    },
    {
      "midi": 64,
      "hit": false,
      "t": 184800,
      "d": 500,
      "v": 70
    },
    {
      "midi": 69,
      "hit": false,
      "t": 184800,
      "d": 500,
      "v": 70
    },
    {
      "midi": 57,
      "hit": false,
      "t": 186000,
      "d": 500,
      "v": 70
    },
    {
      "midi": 61,
      "hit": false,
      "t": 186600,
      "d": 500,
      "v": 60
    },
    {
      "midi": 57,
      "hit": false,
      "t": 187200,
      "d": 2100,
      "v": 70
    },
    {
      "midi": 62,
      "hit": false,
      "t": 187200,
      "d": 2100,
      "v": 70
    },
    {
      "midi": 66,
      "hit": false,
      "t": 187200,
      "d": 2100,
      "v": 70
    },
    {
      "midi": 69,
      "hit": false,
      "t": 187200,
      "d": 2100,
      "v": 70
    },
    {
      "midi": 57,
      "hit": false,
      "t": 190200,
      "d": 600,
      "v": 60
    },
    {
      "midi": 62,
      "hit": false,
      "t": 190800,
      "d": 600,
      "v": 65
    },
    {
      "midi": 66,
      "hit": false,
      "t": 191400,
      "d": 600,
      "v": 70
    },
    {
      "midi": 54,
      "hit": false,
      "t": 192000,
      "d": 500,
      "v": 70
    },
    {
      "midi": 59,
      "hit": false,
      "t": 192000,
      "d": 500,
      "v": 70
    },
    {
      "midi": 61,
      "hit": false,
      "t": 192000,
      "d": 500,
      "v": 70
    },
    {
      "midi": 54,
      "hit": false,
      "t": 192600,
      "d": 600,
      "v": 60
    },
    {
      "midi": 54,
      "hit": false,
      "t": 193200,
      "d": 600,
      "v": 65
    },
    {
      "midi": 59,
      "hit": false,
      "t": 193800,
      "d": 600,
      "v": 60
    },
    {
      "midi": 54,
      "hit": false,
      "t": 194400,
      "d": 500,
      "v": 70
    },
    {
      "midi": 58,
      "hit": false,
      "t": 194400,
      "d": 500,
      "v": 70
    },
    {
      "midi": 61,
      "hit": false,
      "t": 194400,
      "d": 500,
      "v": 70
    },
    {
      "midi": 54,
      "hit": false,
      "t": 195600,
      "d": 500,
      "v": 70
    },
    {
      "midi": 58,
      "hit": false,
      "t": 196200,
      "d": 500,
      "v": 60
    },
    {
      "midi": 47,
      "hit": false,
      "t": 196800,
      "d": 2100,
      "v": 70
    },
    {
      "midi": 59,
      "hit": false,
      "t": 196800,
      "d": 2100,
      "v": 70
    },
    {
      "midi": 62,
      "hit": false,
      "t": 196800,
      "d": 2100,
      "v": 70
    },
    {
      "midi": 66,
      "hit": false,
      "t": 196800,
      "d": 2100,
      "v": 70
    },
    {
      "midi": 59,
      "hit": false,
      "t": 199800,
      "d": 600,
      "v": 60
    },
    {
      "midi": 62,
      "hit": false,
      "t": 200400,
      "d": 600,
      "v": 65
    },
    {
      "midi": 66,
      "hit": false,
      "t": 201000,
      "d": 600,
      "v": 70
    },
    {
      "midi": 57,
      "hit": false,
      "t": 201600,
      "d": 500,
      "v": 70
    },
    {
      "midi": 62,
      "hit": false,
      "t": 201600,
      "d": 500,
      "v": 70
    },
    {
      "midi": 66,
      "hit": false,
      "t": 201600,
      "d": 500,
      "v": 70
    },
    {
      "midi": 69,
      "hit": false,
      "t": 201600,
      "d": 500,
      "v": 70
    },
    {
      "midi": 57,
      "hit": false,
      "t": 202800,
      "d": 500,
      "v": 70
    },
    {
      "midi": 62,
      "hit": false,
      "t": 203400,
      "d": 500,
      "v": 60
    },
    {
      "midi": 56,
      "hit": false,
      "t": 204000,
      "d": 500,
      "v": 70
    },
    {
      "midi": 59,
      "hit": false,
      "t": 204000,
      "d": 500,
      "v": 70
    },
    {
      "midi": 64,
      "hit": false,
      "t": 204000,
      "d": 500,
      "v": 70
    },
    {
      "midi": 68,
      "hit": false,
      "t": 204000,
      "d": 500,
      "v": 70
    },
    {
      "midi": 52,
      "hit": false,
      "t": 204600,
      "d": 600,
      "v": 70
    },
    {
      "midi": 56,
      "hit": false,
      "t": 205200,
      "d": 600,
      "v": 60
    },
    {
      "midi": 56,
      "hit": false,
      "t": 205800,
      "d": 500,
      "v": 65
    },
    {
      "midi": 59,
      "hit": false,
      "t": 205800,
      "d": 500,
      "v": 65
    },
    {
      "midi": 64,
      "hit": false,
      "t": 205800,
      "d": 500,
      "v": 65
    },
    {
      "midi": 57,
      "hit": false,
      "t": 206400,
      "d": 500,
      "v": 70
    },
    {
      "midi": 62,
      "hit": false,
      "t": 206400,
      "d": 500,
      "v": 70
    },
    {
      "midi": 64,
      "hit": false,
      "t": 206400,
      "d": 500,
      "v": 70
    },
    {
      "midi": 45,
      "hit": false,
      "t": 207000,
      "d": 600,
      "v": 60
    },
    {
      "midi": 57,
      "hit": false,
      "t": 207600,
      "d": 600,
      "v": 65
    },
    {
      "midi": 62,
      "hit": false,
      "t": 208200,
      "d": 600,
      "v": 60
    },
    {
      "midi": 57,
      "hit": false,
      "t": 208800,
      "d": 500,
      "v": 70
    },
    {
      "midi": 61,
      "hit": false,
      "t": 208800,
      "d": 500,
      "v": 70
    },
    {
      "midi": 64,
      "hit": false,
      "t": 208800,
      "d": 500,
      "v": 70
    },
    {
      "midi": 69,
      "hit": false,
      "t": 208800,
      "d": 500,
      "v": 70
    },
    {
      "midi": 45,
      "hit": false,
      "t": 209400,
      "d": 600,
      "v": 70
    },
    {
      "midi": 57,
      "hit": false,
      "t": 210000,
      "d": 600,
      "v": 60
    },
    {
      "midi": 57,
      "hit": false,
      "t": 210600,
      "d": 500,
      "v": 65
    },
    {
      "midi": 61,
      "hit": false,
      "t": 210600,
      "d": 500,
      "v": 65
    },
    {
      "midi": 64,
      "hit": false,
      "t": 210600,
      "d": 500,
      "v": 65
    },
    {
      "midi": 50,
      "hit": false,
      "t": 211200,
      "d": 500,
      "v": 70
    },
    {
      "midi": 57,
      "hit": false,
      "t": 211200,
      "d": 500,
      "v": 70
    },
    {
      "midi": 62,
      "hit": false,
      "t": 211200,
      "d": 500,
      "v": 70
    },
    {
      "midi": 66,
      "hit": false,
      "t": 211200,
      "d": 500,
      "v": 70
    },
    {
      "midi": 69,
      "hit": false,
      "t": 211200,
      "d": 500,
      "v": 70
    },
    {
      "midi": 50,
      "hit": false,
      "t": 211800,
      "d": 600,
      "v": 70
    },
    {
      "midi": 57,
      "hit": false,
      "t": 212400,
      "d": 600,
      "v": 60
    },
    {
      "midi": 57,
      "hit": false,
      "t": 213000,
      "d": 500,
      "v": 65
    },
    {
      "midi": 62,
      "hit": false,
      "t": 213000,
      "d": 500,
      "v": 65
    },
    {
      "midi": 66,
      "hit": false,
      "t": 213000,
      "d": 500,
      "v": 65
    },
    {
      "midi": 54,
      "hit": false,
      "t": 213600,
      "d": 500,
      "v": 70
    },
    {
      "midi": 57,
      "hit": false,
      "t": 213600,
      "d": 500,
      "v": 70
    },
    {
      "midi": 61,
      "hit": false,
      "t": 213600,
      "d": 500,
      "v": 70
    },
    {
      "midi": 64,
      "hit": false,
      "t": 213600,
      "d": 500,
      "v": 70
    },
    {
      "midi": 66,
      "hit": false,
      "t": 213600,
      "d": 500,
      "v": 70
    },
    {
      "midi": 54,
      "hit": false,
      "t": 214200,
      "d": 600,
      "v": 70
    },
    {
      "midi": 57,
      "hit": false,
      "t": 214800,
      "d": 600,
      "v": 60
    },
    {
      "midi": 54,
      "hit": false,
      "t": 215400,
      "d": 500,
      "v": 65
    },
    {
      "midi": 57,
      "hit": false,
      "t": 215400,
      "d": 500,
      "v": 65
    },
    {
      "midi": 61,
      "hit": false,
      "t": 215400,
      "d": 500,
      "v": 65
    },
    {
      "midi": 64,
      "hit": false,
      "t": 215400,
      "d": 500,
      "v": 65
    },
    {
      "midi": 66,
      "hit": false,
      "t": 215400,
      "d": 500,
      "v": 65
    },
    {
      "midi": 59,
      "hit": false,
      "t": 216000,
      "d": 2100,
      "v": 70
    },
    {
      "midi": 62,
      "hit": false,
      "t": 216000,
      "d": 2100,
      "v": 70
    },
    {
      "midi": 64,
      "hit": false,
      "t": 216000,
      "d": 2100,
      "v": 70
    },
    {
      "midi": 67,
      "hit": false,
      "t": 216000,
      "d": 2100,
      "v": 70
    },
    {
      "midi": 59,
      "hit": false,
      "t": 219000,
      "d": 600,
      "v": 60
    },
    {
      "midi": 62,
      "hit": false,
      "t": 219600,
      "d": 600,
      "v": 65
    },
    {
      "midi": 64,
      "hit": false,
      "t": 220200,
      "d": 600,
      "v": 70
    },
    {
      "midi": 55,
      "hit": false,
      "t": 220800,
      "d": 500,
      "v": 70
    },
    {
      "midi": 59,
      "hit": false,
      "t": 220800,
      "d": 500,
      "v": 70
    },
    {
      "midi": 62,
      "hit": false,
      "t": 220800,
      "d": 500,
      "v": 70
    },
    {
      "midi": 55,
      "hit": false,
      "t": 222000,
      "d": 500,
      "v": 70
    },
    {
      "midi": 59,
      "hit": false,
      "t": 222600,
      "d": 500,
      "v": 60
    },
    {
      "midi": 45,
      "hit": false,
      "t": 223200,
      "d": 500,
      "v": 70
    },
    {
      "midi": 57,
      "hit": false,
      "t": 223200,
      "d": 500,
      "v": 70
    },
    {
      "midi": 61,
      "hit": false,
      "t": 223200,
      "d": 500,
      "v": 70
    },
    {
      "midi": 64,
      "hit": false,
      "t": 223200,
      "d": 500,
      "v": 70
    },
    {
      "midi": 69,
      "hit": false,
      "t": 223200,
      "d": 500,
      "v": 70
    },
    {
      "midi": 57,
      "hit": false,
      "t": 224400,
      "d": 500,
      "v": 70
    },
    {
      "midi": 61,
      "hit": false,
      "t": 225000,
      "d": 500,
      "v": 60
    },
    {
      "midi": 57,
      "hit": false,
      "t": 225600,
      "d": 1000,
      "v": 70
    },
    {
      "midi": 64,
      "hit": false,
      "t": 225600,
      "d": 1000,
      "v": 70
    },
    {
      "midi": 66,
      "hit": false,
      "t": 225600,
      "d": 1000,
      "v": 70
    },
    {
      "midi": 57,
      "hit": false,
      "t": 226800,
      "d": 1000,
      "v": 70
    },
    {
      "midi": 62,
      "hit": false,
      "t": 226800,
      "d": 1000,
      "v": 70
    },
    {
      "midi": 66,
      "hit": false,
      "t": 226800,
      "d": 1000,
      "v": 70
    },
    {
      "midi": 57,
      "hit": false,
      "t": 228000,
      "d": 2100,
      "v": 75
    },
    {
      "midi": 62,
      "hit": false,
      "t": 228000,
      "d": 2100,
      "v": 75
    },
    {
      "midi": 66,
      "hit": false,
      "t": 228000,
      "d": 2100,
      "v": 75
    },
    {
      "midi": 54,
      "hit": false,
      "t": 230400,
      "d": 2100,
      "v": 75
    },
    {
      "midi": 59,
      "hit": false,
      "t": 230400,
      "d": 2100,
      "v": 75
    },
    {
      "midi": 62,
      "hit": false,
      "t": 230400,
      "d": 2100,
      "v": 75
    },
    {
      "midi": 66,
      "hit": false,
      "t": 230400,
      "d": 2100,
      "v": 75
    },
    {
      "midi": 61,
      "hit": false,
      "t": 232800,
      "d": 2100,
      "v": 75
    },
    {
      "midi": 64,
      "hit": false,
      "t": 232800,
      "d": 2100,
      "v": 75
    },
    {
      "midi": 66,
      "hit": false,
      "t": 232800,
      "d": 2100,
      "v": 75
    },
    {
      "midi": 69,
      "hit": false,
      "t": 232800,
      "d": 2100,
      "v": 75
    },
    {
      "midi": 52,
      "hit": false,
      "t": 235200,
      "d": 2100,
      "v": 70
    },
    {
      "midi": 59,
      "hit": false,
      "t": 235200,
      "d": 2100,
      "v": 70
    },
    {
      "midi": 62,
      "hit": false,
      "t": 235200,
      "d": 2100,
      "v": 70
    },
    {
      "midi": 64,
      "hit": false,
      "t": 235200,
      "d": 2100,
      "v": 70
    },
    {
      "midi": 67,
      "hit": false,
      "t": 235200,
      "d": 2100,
      "v": 70
    },
    {
      "midi": 55,
      "hit": false,
      "t": 240000,
      "d": 500,
      "v": 70
    },
    {
      "midi": 59,
      "hit": false,
      "t": 240000,
      "d": 500,
      "v": 70
    },
    {
      "midi": 62,
      "hit": false,
      "t": 240000,
      "d": 500,
      "v": 70
    },
    {
      "midi": 55,
      "hit": false,
      "t": 241200,
      "d": 500,
      "v": 70
    },
    {
      "midi": 59,
      "hit": false,
      "t": 241800,
      "d": 500,
      "v": 60
    },
    {
      "midi": 57,
      "hit": false,
      "t": 242400,
      "d": 2100,
      "v": 75
    },
    {
      "midi": 61,
      "hit": false,
      "t": 242400,
      "d": 2100,
      "v": 75
    },
    {
      "midi": 64,
      "hit": false,
      "t": 242400,
      "d": 2100,
      "v": 75
    },
    {
      "midi": 57,
      "hit": false,
      "t": 244800,
      "d": 2100,
      "v": 70
    },
    {
      "midi": 62,
      "hit": false,
      "t": 244800,
      "d": 2100,
      "v": 70
    },
    {
      "midi": 66,
      "hit": false,
      "t": 244800,
      "d": 2100,
      "v": 70
    },
    {
      "midi": 55,
      "hit": false,
      "t": 249600,
      "d": 500,
      "v": 70
    },
    {
      "midi": 59,
      "hit": false,
      "t": 249600,
      "d": 500,
      "v": 70
    },
    {
      "midi": 62,
      "hit": false,
      "t": 249600,
      "d": 500,
      "v": 70
    },
    {
      "midi": 55,
      "hit": false,
      "t": 250800,
      "d": 500,
      "v": 70
    },
    {
      "midi": 59,
      "hit": false,
      "t": 251400,
      "d": 500,
      "v": 60
    },
    {
      "midi": 57,
      "hit": false,
      "t": 252000,
      "d": 2100,
      "v": 75
    },
    {
      "midi": 61,
      "hit": false,
      "t": 252000,
      "d": 2100,
      "v": 75
    },
    {
      "midi": 64,
      "hit": false,
      "t": 252000,
      "d": 2100,
      "v": 75
    },
    {
      "midi": 57,
      "hit": false,
      "t": 254400,
      "d": 9600,
      "v": 70
    },
    {
      "midi": 62,
      "hit": false,
      "t": 254400,
      "d": 9600,
      "v": 70
    },
    {
      "midi": 66,
      "hit": false,
      "t": 254400,
      "d": 9600,
      "v": 70
    }
  ]
}