{
  "jsonPath": "Animes/Air MIDI Collection/gen-no-koshiki-wa-kataru.json",
  "path": "Animes\\Air MIDI Collection\\Gen no- Koshiki wa Kataru.mid",
  "name": "Gen no- Koshiki wa Kataru",
  "difficulty": "Advanced",
  "bpm": 65.000065000065,
  "notes": [
    {
      "midi": 74,
      "hit": false,
      "t": 0,
      "d": 600,
      "v": 95
    },
    {
      "midi": 57,
      "hit": false,
      "t": 0,
      "d": 4800,
      "v": 75
    },
    {
      "midi": 67,
      "hit": false,
      "t": 0,
      "d": 4800,
      "v": 75
    },
    {
      "midi": 62,
      "hit": false,
      "t": 0,
      "d": 4800,
      "v": 75
    },
    {
      "midi": 72,
      "hit": false,
      "t": 600,
      "d": 600,
      "v": 95
    },
    {
      "midi": 74,
      "hit": false,
      "t": 1200,
      "d": 600,
      "v": 95
    },
    {
      "midi": 76,
      "hit": false,
      "t": 1800,
      "d": 600,
      "v": 95
    },
    {
      "midi": 71,
      "hit": false,
      "t": 2400,
      "d": 1800,
      "v": 95
    },
    {
      "midi": 69,
      "hit": false,
      "t": 4200,
      "d": 300,
      "v": 95
    },
    {
      "midi": 71,
      "hit": false,
      "t": 4500,
      "d": 300,
      "v": 95
    },
    {
      "midi": 72,
      "hit": false,
      "t": 4800,
      "d": 600,
      "v": 95
    },
    {
      "midi": 55,
      "hit": false,
      "t": 4800,
      "d": 4800,
      "v": 75
    },
    {
      "midi": 65,
      "hit": false,
      "t": 4800,
      "d": 4800,
      "v": 75
    },
    {
      "midi": 60,
      "hit": false,
      "t": 4800,
      "d": 4800,
      "v": 75
    },
    {
      "midi": 71,
      "hit": false,
      "t": 5400,
      "d": 600,
      "v": 95
    },
    {
      "midi": 72,
      "hit": false,
      "t": 6000,
      "d": 600,
      "v": 95
    },
    {
      "midi": 76,
      "hit": false,
      "t": 6600,
      "d": 600,
      "v": 95
    },
    {
      "midi": 69,
      "hit": false,
      "t": 7200,
      "d": 1800,
      "v": 95
    },
    {
      "midi": 67,
      "hit": false,
      "t": 9000,
      "d": 600,
      "v": 95
    },
    {
      "midi": 69,
      "hit": false,
      "t": 9600,
      "d": 600,
      "v": 95
    },
    {
      "midi": 53,
      "hit": false,
      "t": 9600,
      "d": 4800,
      "v": 75
    },
    {
      "midi": 64,
      "hit": false,
      "t": 9600,
      "d": 4800,
      "v": 75
    },
    {
      "midi": 59,
      "hit": false,
      "t": 9600,
      "d": 4800,
      "v": 75
    },
    {
      "midi": 67,
      "hit": false,
      "t": 10200,
      "d": 600,
      "v": 95
    },
    {
      "midi": 69,
      "hit": false,
      "t": 10800,
      "d": 600,
      "v": 95
    },
    {
      "midi": 74,
      "hit": false,
      "t": 11400,
      "d": 600,
      "v": 95
    },
    {
      "midi": 69,
      "hit": false,
      "t": 12000,
      "d": 1200,
      "v": 95
    },
    {
      "midi": 67,
      "hit": false,
      "t": 13200,
      "d": 600,
      "v": 95
    },
    {
      "midi": 69,
      "hit": false,
      "t": 13800,
      "d": 600,
      "v": 95
    },
    {
      "midi": 71,
      "hit": false,
      "t": 14400,
      "d": 9600,
      "v": 95
    },
    {
      "midi": 55,
      "hit": false,
      "t": 14400,
      "d": 2400,
      "v": 75
    },
    {
      "midi": 64,
      "hit": false,
      "t": 14400,
      "d": 2400,
      "v": 75
    },
    {
      "midi": 60,
      "hit": false,
      "t": 14400,
      "d": 2400,
      "v": 75
    },
    {
      "midi": 59,
      "hit": false,
      "t": 14400,
      "d": 2400,
      "v": 75
    },
    {
      "midi": 56,
      "hit": false,
      "t": 16800,
      "d": 2400,
      "v": 75
    },
    {
      "midi": 64,
      "hit": false,
      "t": 16800,
      "d": 2400,
      "v": 75
    },
    {
      "midi": 60,
      "hit": false,
      "t": 16800,
      "d": 2400,
      "v": 75
    },
    {
      "midi": 57,
      "hit": false,
      "t": 19200,
      "d": 2400,
      "v": 75
    },
    {
      "midi": 64,
      "hit": false,
      "t": 19200,
      "d": 2400,
      "v": 75
    },
    {
      "midi": 60,
      "hit": false,
      "t": 19200,
      "d": 2400,
      "v": 75
    },
    {
      "midi": 56,
      "hit": false,
      "t": 21600,
      "d": 2400,
      "v": 75
    },
    {
      "midi": 64,
      "hit": false,
      "t": 21600,
      "d": 2400,
      "v": 75
    },
    {
      "midi": 60,
      "hit": false,
      "t": 21600,
      "d": 2400,
      "v": 75
    },
    {
      "midi": 74,
      "hit": false,
      "t": 24000,
      "d": 600,
      "v": 110
    },
    {
      "midi": 86,
      "hit": false,
      "t": 24000,
      "d": 600,
      "v": 110
    },
    {
      "midi": 57,
      "hit": false,
      "t": 24000,
      "d": 4800,
      "v": 90
    },
    {
      "midi": 67,
      "hit": false,
      "t": 24000,
      "d": 4800,
      "v": 90
    },
    {
      "midi": 62,
      "hit": false,
      "t": 24000,
      "d": 4800,
      "v": 90
    },
    {
      "midi": 72,
      "hit": false,
      "t": 24600,
      "d": 600,
      "v": 110
    },
    {
      "midi": 84,
      "hit": false,
      "t": 24600,
      "d": 600,
      "v": 110
    },
    {
      "midi": 74,
      "hit": false,
      "t": 25200,
      "d": 600,
      "v": 110
    },
    {
      "midi": 86,
      "hit": false,
      "t": 25200,
      "d": 600,
      "v": 110
    },
    {
      "midi": 76,
      "hit": false,
      "t": 25800,
      "d": 600,
      "v": 110
    },
    {
      "midi": 88,
      "hit": false,
      "t": 25800,
      "d": 600,
      "v": 110
    },
    {
      "midi": 71,
      "hit": false,
      "t": 26400,
      "d": 1800,
      "v": 110
    },
    {
      "midi": 83,
      "hit": false,
      "t": 26400,
      "d": 1800,
      "v": 110
    },
    {
      "midi": 69,
      "hit": false,
      "t": 28200,
      "d": 300,
      "v": 110
    },
    {
      "midi": 81,
      "hit": false,
      "t": 28200,
      "d": 300,
      "v": 110
    },
    {
      "midi": 71,
      "hit": false,
      "t": 28500,
      "d": 300,
      "v": 110
    },
    {
      "midi": 83,
      "hit": false,
      "t": 28500,
      "d": 300,
      "v": 110
    },
    {
      "midi": 72,
      "hit": false,
      "t": 28800,
      "d": 600,
      "v": 110
    },
    {
      "midi": 84,
      "hit": false,
      "t": 28800,
      "d": 600,
      "v": 110
    },
    {
      "midi": 55,
      "hit": false,
      "t": 28800,
      "d": 4800,
      "v": 90
    },
    {
      "midi": 65,
      "hit": false,
      "t": 28800,
      "d": 4800,
      "v": 90
    },
    {
      "midi": 60,
      "hit": false,
      "t": 28800,
      "d": 4800,
      "v": 90
    },
    {
      "midi": 71,
      "hit": false,
      "t": 29400,
      "d": 600,
      "v": 110
    },
    {
      "midi": 83,
      "hit": false,
      "t": 29400,
      "d": 600,
      "v": 110
    },
    {
      "midi": 72,
      "hit": false,
      "t": 30000,
      "d": 600,
      "v": 110
    },
    {
      "midi": 84,
      "hit": false,
      "t": 30000,
      "d": 600,
      "v": 110
    },
    {
      "midi": 76,
      "hit": false,
      "t": 30600,
      "d": 600,
      "v": 110
    },
    {
      "midi": 88,
      "hit": false,
      "t": 30600,
      "d": 600,
      "v": 110
    },
    {
      "midi": 69,
      "hit": false,
      "t": 31200,
      "d": 1800,
      "v": 110
    },
    {
      "midi": 81,
      "hit": false,
      "t": 31200,
      "d": 1800,
      "v": 110
    },
    {
      "midi": 67,
      "hit": false,
      "t": 33000,
      "d": 600,
      "v": 110
    },
    {
      "midi": 79,
      "hit": false,
      "t": 33000,
      "d": 600,
      "v": 110
    },
    {
      "midi": 69,
      "hit": false,
      "t": 33600,
      "d": 600,
      "v": 110
    },
    {
      "midi": 81,
      "hit": false,
      "t": 33600,
      "d": 600,
      "v": 110
    },
    {
      "midi": 53,
      "hit": false,
      "t": 33600,
      "d": 4800,
      "v": 90
    },
    {
      "midi": 64,
      "hit": false,
      "t": 33600,
      "d": 4800,
      "v": 90
    },
    {
      "midi": 59,
      "hit": false,
      "t": 33600,
      "d": 4800,
      "v": 90
    },
    {
      "midi": 67,
      "hit": false,
      "t": 34200,
      "d": 600,
      "v": 110
    },
    {
      "midi": 79,
      "hit": false,
      "t": 34200,
      "d": 600,
      "v": 110
    },
    {
      "midi": 69,
      "hit": false,
      "t": 34800,
      "d": 600,
      "v": 110
    },
    {
      "midi": 81,
      "hit": false,
      "t": 34800,
      "d": 600,
      "v": 110
    },
    {
      "midi": 74,
      "hit": false,
      "t": 35400,
      "d": 600,
      "v": 110
    },
    {
      "midi": 86,
      "hit": false,
      "t": 35400,
      "d": 600,
      "v": 110
    },
    {
      "midi": 69,
      "hit": false,
      "t": 36000,
      "d": 1200,
      "v": 110
    },
    {
      "midi": 81,
      "hit": false,
      "t": 36000,
      "d": 1200,
      "v": 110
    },
    {
      "midi": 67,
      "hit": false,
      "t": 37200,
      "d": 600,
      "v": 110
    },
    {
      "midi": 79,
      "hit": false,
      "t": 37200,
      "d": 600,
      "v": 110
    },
    {
      "midi": 69,
      "hit": false,
      "t": 37800,
      "d": 600,
      "v": 110
    },
    {
      "midi": 81,
      "hit": false,
      "t": 37800,
      "d": 600,
      "v": 110
    },
    {
      "midi": 71,
      "hit": false,
      "t": 38400,
      "d": 9600,
      "v": 110
    },
    {
      "midi": 83,
      "hit": false,
      "t": 38400,
      "d": 9600,
      "v": 110
    },
    {
      "midi": 55,
      "hit": false,
      "t": 38400,
      "d": 2400,
      "v": 90
    },
    {
      "midi": 64,
      "hit": false,
      "t": 38400,
      "d": 2400,
      "v": 90
    },
    {
      "midi": 60,
      "hit": false,
      "t": 38400,
      "d": 2400,
      "v": 90
    },
    {
      "midi": 59,
      "hit": false,
      "t": 38400,
      "d": 2400,
      "v": 90
    },
    {
      "midi": 56,
      "hit": false,
      "t": 40800,
      "d": 2400,
      "v": 90
    },
    {
      "midi": 64,
      "hit": false,
      "t": 40800,
      "d": 2400,
      "v": 90
    },
    {
      "midi": 60,
      "hit": false,
      "t": 40800,
      "d": 2400,
      "v": 90
    },
    {
      "midi": 57,
      "hit": false,
      "t": 43200,
      "d": 2400,
      "v": 90
    },
    {
      "midi": 64,
      "hit": false,
      "t": 43200,
      "d": 2400,
      "v": 90
    },
    {
      "midi": 60,
      "hit": false,
      "t": 43200,
      "d": 2400,
      "v": 90
    },
    {
      "midi": 56,
      "hit": false,
      "t": 45600,
      "d": 2400,
      "v": 90
    },
    {
      "midi": 64,
      "hit": false,
      "t": 45600,
      "d": 2400,
      "v": 90
    },
    {
      "midi": 60,
      "hit": false,
      "t": 45600,
      "d": 2400,
      "v": 90
    },
    {
      "midi": 53,
      "hit": false,
      "t": 48000,
      "d": 3600,
      "v": 90
    },
    {
      "midi": 64,
      "hit": false,
      "t": 48000,
      "d": 3600,
      "v": 90
    },
    {
      "midi": 59,
      "hit": false,
      "t": 48000,
      "d": 3600,
      "v": 90
    },
    {
      "midi": 60,
      "hit": false,
      "t": 51600,
      "d": 600,
      "v": 110
    },
    {
      "midi": 65,
      "hit": false,
      "t": 51600,
      "d": 600,
      "v": 110
    },
    {
      "midi": 53,
      "hit": false,
      "t": 51600,
      "d": 600,
      "v": 90
    },
    {
      "midi": 59,
      "hit": false,
      "t": 51600,
      "d": 600,
      "v": 90
    },
    {
      "midi": 60,
      "hit": false,
      "t": 52200,
      "d": 600,
      "v": 110
    },
    {
      "midi": 67,
      "hit": false,
      "t": 52200,
      "d": 600,
      "v": 110
    },
    {
      "midi": 55,
      "hit": false,
      "t": 52200,
      "d": 600,
      "v": 90
    },
    {
      "midi": 59,
      "hit": false,
      "t": 52200,
      "d": 600,
      "v": 90
    },
    {
      "midi": 60,
      "hit": false,
      "t": 52800,
      "d": 1200,
      "v": 110
    },
    {
      "midi": 69,
      "hit": false,
      "t": 52800,
      "d": 1200,
      "v": 110
    },
    {
      "midi": 59,
      "hit": false,
      "t": 52800,
      "d": 1200,
      "v": 90
    },
    {
      "midi": 57,
      "hit": false,
      "t": 52800,
      "d": 1200,
      "v": 90
    },
    {
      "midi": 67,
      "hit": false,
      "t": 54000,
      "d": 1200,
      "v": 103
    },
    {
      "midi": 74,
      "hit": false,
      "t": 54000,
      "d": 1200,
      "v": 103
    },
    {
      "midi": 59,
      "hit": false,
      "t": 54000,
      "d": 1200,
      "v": 83
    },
    {
      "midi": 64,
      "hit": false,
      "t": 54000,
      "d": 1200,
      "v": 83
    },
    {
      "midi": 69,
      "hit": false,
      "t": 55200,
      "d": 2400,
      "v": 95
    },
    {
      "midi": 76,
      "hit": false,
      "t": 55200,
      "d": 2400,
      "v": 95
    },
    {
      "midi": 60,
      "hit": false,
      "t": 55200,
      "d": 2400,
      "v": 75
    },
    {
      "midi": 65,
      "hit": false,
      "t": 55200,
      "d": 2400,
      "v": 75
    },
    {
      "midi": 72,
      "hit": false,
      "t": 57600,
      "d": 2400,
      "v": 80
    },
    {
      "midi": 79,
      "hit": false,
      "t": 57600,
      "d": 2400,
      "v": 80
    },
    {
      "midi": 74,
      "hit": false,
      "t": 57600,
      "d": 2400,
      "v": 80
    },
    {
      "midi": 62,
      "hit": false,
      "t": 57600,
      "d": 4800,
      "v": 60
    },
    {
      "midi": 69,
      "hit": false,
      "t": 57600,
      "d": 4800,
      "v": 60
    },
    {
      "midi": 67,
      "hit": false,
      "t": 57600,
      "d": 4800,
      "v": 60
    },
    {
      "midi": 74,
      "hit": false,
      "t": 60000,
      "d": 1200,
      "v": 80
    },
    {
      "midi": 83,
      "hit": false,
      "t": 60000,
      "d": 1200,
      "v": 80
    },
    {
      "midi": 74,
      "hit": false,
      "t": 61200,
      "d": 1200,
      "v": 80
    },
    {
      "midi": 81,
      "hit": false,
      "t": 61200,
      "d": 1200,
      "v": 80
    },
    {
      "midi": 76,
      "hit": false,
      "t": 61200,
      "d": 1200,
      "v": 80
    },
    {
      "midi": 72,
      "hit": false,
      "t": 62400,
      "d": 2400,
      "v": 80
    },
    {
      "midi": 79,
      "hit": false,
      "t": 62400,
      "d": 2400,
      "v": 80
    },
    {
      "midi": 74,
      "hit": false,
      "t": 62400,
      "d": 2400,
      "v": 80
    },
    {
      "midi": 62,
      "hit": false,
      "t": 62400,
      "d": 4800,
      "v": 60
    },
    {
      "midi": 69,
      "hit": false,
      "t": 62400,
      "d": 4800,
      "v": 60
    },
    {
      "midi": 67,
      "hit": false,
      "t": 62400,
      "d": 4800,
      "v": 60
    },
    {
      "midi": 68,
      "hit": false,
      "t": 64800,
      "d": 2400,
      "v": 65
    },
    {
      "midi": 70,
      "hit": false,
      "t": 64800,
      "d": 2400,
      "v": 65
    },
    {
      "midi": 65,
      "hit": false,
      "t": 67200,
      "d": 2400,
      "v": 80
    },
    {
      "midi": 76,
      "hit": false,
      "t": 67200,
      "d": 2400,
      "v": 80
    },
    {
      "midi": 72,
      "hit": false,
      "t": 67200,
      "d": 2400,
      "v": 80
    },
    {
      "midi": 69,
      "hit": false,
      "t": 67200,
      "d": 2400,
      "v": 80
    },
    {
      "midi": 41,
      "hit": false,
      "t": 67200,
      "d": 600,
      "v": 60
    },
    {
      "midi": 48,
      "hit": false,
      "t": 67800,
      "d": 600,
      "v": 60
    },
    {
      "midi": 53,
      "hit": false,
      "t": 68400,
      "d": 600,
      "v": 60
    },
    {
      "midi": 60,
      "hit": false,
      "t": 69000,
      "d": 3000,
      "v": 60
    },
    {
      "midi": 65,
      "hit": false,
      "t": 69600,
      "d": 1200,
      "v": 80
    },
    {
      "midi": 76,
      "hit": false,
      "t": 69600,
      "d": 1200,
      "v": 80
    },
    {
      "midi": 68,
      "hit": false,
      "t": 69600,
      "d": 1200,
      "v": 80
    },
    {
      "midi": 74,
      "hit": false,
      "t": 70800,
      "d": 1200,
      "v": 80
    },
    {
      "midi": 63,
      "hit": false,
      "t": 72000,
      "d": 2400,
      "v": 80
    },
    {
      "midi": 74,
      "hit": false,
      "t": 72000,
      "d": 2400,
      "v": 80
    },
    {
      "midi": 70,
      "hit": false,
      "t": 72000,
      "d": 2400,
      "v": 80
    },
    {
      "midi": 67,
      "hit": false,
      "t": 72000,
      "d": 2400,
      "v": 80
    },
    {
      "midi": 39,
      "hit": false,
      "t": 72000,
      "d": 600,
      "v": 60
    },
    {
      "midi": 46,
      "hit": false,
      "t": 72600,
      "d": 600,
      "v": 60
    },
    {
      "midi": 51,
      "hit": false,
      "t": 73200,
      "d": 600,
      "v": 60
    },
    {
      "midi": 58,
      "hit": false,
      "t": 73800,
      "d": 3000,
      "v": 60
    },
    {
      "midi": 63,
      "hit": false,
      "t": 74400,
      "d": 1200,
      "v": 80
    },
    {
      "midi": 74,
      "hit": false,
      "t": 74400,
      "d": 1200,
      "v": 80
    },
    {
      "midi": 66,
      "hit": false,
      "t": 74400,
      "d": 1200,
      "v": 80
    },
    {
      "midi": 72,
      "hit": false,
      "t": 75600,
      "d": 1200,
      "v": 80
    },
    {
      "midi": 61,
      "hit": false,
      "t": 76800,
      "d": 2400,
      "v": 80
    },
    {
      "midi": 72,
      "hit": false,
      "t": 76800,
      "d": 2400,
      "v": 80
    },
    {
      "midi": 68,
      "hit": false,
      "t": 76800,
      "d": 2400,
      "v": 80
    },
    {
      "midi": 65,
      "hit": false,
      "t": 76800,
      "d": 2400,
      "v": 80
    },
    {
      "midi": 37,
      "hit": false,
      "t": 76800,
      "d": 600,
      "v": 60
    },
    {
      "midi": 44,
      "hit": false,
      "t": 77400,
      "d": 600,
      "v": 61
    },
    {
      "midi": 49,
      "hit": false,
      "t": 78000,
      "d": 600,
      "v": 63
    },
    {
      "midi": 56,
      "hit": false,
      "t": 78600,
      "d": 3000,
      "v": 65
    },
    {
      "midi": 61,
      "hit": false,
      "t": 79200,
      "d": 1200,
      "v": 87
    },
    {
      "midi": 72,
      "hit": false,
      "t": 79200,
      "d": 1200,
      "v": 87
    },
    {
      "midi": 64,
      "hit": false,
      "t": 79200,
      "d": 1200,
      "v": 87
    },
    {
      "midi": 70,
      "hit": false,
      "t": 80400,
      "d": 1200,
      "v": 91
    },
    {
      "midi": 59,
      "hit": false,
      "t": 81600,
      "d": 70,
      "v": 95
    },
    {
      "midi": 42,
      "hit": false,
      "t": 81600,
      "d": 600,
      "v": 75
    },
    {
      "midi": 63,
      "hit": false,
      "t": 81670,
      "d": 70,
      "v": 95
    },
    {
      "midi": 66,
      "hit": false,
      "t": 81740,
      "d": 70,
      "v": 95
    },
    {
      "midi": 70,
      "hit": false,
      "t": 81810,
      "d": 4580,
      "v": 95
    },
    {
      "midi": 49,
      "hit": false,
      "t": 82200,
      "d": 600,
      "v": 75
    },
    {
      "midi": 54,
      "hit": false,
      "t": 82800,
      "d": 600,
      "v": 75
    },
    {
      "midi": 61,
      "hit": false,
      "t": 83400,
      "d": 3000,
      "v": 75
    }
  ]
}