{
  "jsonPath": "World/Canzone Napoletana/Renato Carosone/torero-2001-digital-remaster.json",
  "path": "World\\Canzone Napoletana\\Renato Carosone\\Torero (2001 Digital Remaster).mid",
  "name": "Torero (2001 Digital Remaster)",
  "difficulty": "Advanced",
  "bpm": 130.00041166797027,
  "notes": [
    {
      "midi": 38,
      "hit": false,
      "t": 5076.907,
      "d": 149.037989583333,
      "v": 107
    },
    {
      "midi": 54,
      "hit": false,
      "t": 5076.907,
      "d": 149.037989583333,
      "v": 111
    },
    {
      "midi": 62,
      "hit": false,
      "t": 5076.907,
      "d": 149.037989583333,
      "v": 103
    },
    {
      "midi": 31,
      "hit": false,
      "t": 5538.4439999999995,
      "d": 168.2686979166665,
      "v": 108
    },
    {
      "midi": 59,
      "hit": false,
      "t": 5538.4439999999995,
      "d": 173.07637499999964,
      "v": 109
    },
    {
      "midi": 67,
      "hit": false,
      "t": 5538.4439999999995,
      "d": 174.99944583333308,
      "v": 107
    },
    {
      "midi": 96,
      "hit": false,
      "t": 8735.549260416667,
      "d": 24.038385416666642,
      "v": 94
    },
    {
      "midi": 95,
      "hit": false,
      "t": 8751.8953625,
      "d": 24.038385416666642,
      "v": 100
    },
    {
      "midi": 93,
      "hit": false,
      "t": 8775.933747916666,
      "d": 24.038385416666642,
      "v": 106
    },
    {
      "midi": 91,
      "hit": false,
      "t": 8795.164456249999,
      "d": 24.038385416666642,
      "v": 103
    },
    {
      "midi": 89,
      "hit": false,
      "t": 8812.472093749999,
      "d": 24.038385416666642,
      "v": 104
    },
    {
      "midi": 88,
      "hit": false,
      "t": 8826.895125,
      "d": 24.038385416666642,
      "v": 103
    },
    {
      "midi": 86,
      "hit": false,
      "t": 8846.125833333332,
      "d": 24.03838541666846,
      "v": 99
    },
    {
      "midi": 84,
      "hit": false,
      "t": 8862.471935416666,
      "d": 24.03838541666846,
      "v": 99
    },
    {
      "midi": 83,
      "hit": false,
      "t": 8881.70264375,
      "d": 24.038385416666642,
      "v": 98
    },
    {
      "midi": 81,
      "hit": false,
      "t": 8903.817958333335,
      "d": 24.038385416666642,
      "v": 94
    },
    {
      "midi": 79,
      "hit": false,
      "t": 8923.048666666667,
      "d": 24.03838541666846,
      "v": 94
    },
    {
      "midi": 77,
      "hit": false,
      "t": 8942.279375000002,
      "d": 24.038385416666642,
      "v": 86
    },
    {
      "midi": 76,
      "hit": false,
      "t": 8966.317760416669,
      "d": 24.038385416666642,
      "v": 90
    },
    {
      "midi": 74,
      "hit": false,
      "t": 8987.471539583335,
      "d": 24.038385416666642,
      "v": 91
    },
    {
      "midi": 72,
      "hit": false,
      "t": 9011.509925000002,
      "d": 24.038385416666642,
      "v": 90
    },
    {
      "midi": 71,
      "hit": false,
      "t": 9038.432916666668,
      "d": 24.038385416666642,
      "v": 82
    },
    {
      "midi": 69,
      "hit": false,
      "t": 9067.27897916667,
      "d": 24.038385416666642,
      "v": 86
    },
    {
      "midi": 67,
      "hit": false,
      "t": 9096.12504166667,
      "d": 24.038385416666642,
      "v": 70
    },
    {
      "midi": 65,
      "hit": false,
      "t": 9126.894175000003,
      "d": 24.038385416666642,
      "v": 78
    },
    {
      "midi": 36,
      "hit": false,
      "t": 9230.740000000003,
      "d": 194.2301541666675,
      "v": 87
    },
    {
      "midi": 55,
      "hit": false,
      "t": 9461.508500000004,
      "d": 83.65358125000057,
      "v": 92
    },
    {
      "midi": 60,
      "hit": false,
      "t": 9461.508500000004,
      "d": 83.65358125000057,
      "v": 92
    },
    {
      "midi": 63,
      "hit": false,
      "t": 9461.508500000004,
      "d": 83.65358125000057,
      "v": 92
    },
    {
      "midi": 31,
      "hit": false,
      "t": 9692.277000000004,
      "d": 211.53779166666754,
      "v": 67
    },
    {
      "midi": 55,
      "hit": false,
      "t": 9923.045500000004,
      "d": 83.65358125000057,
      "v": 92
    },
    {
      "midi": 60,
      "hit": false,
      "t": 9923.045500000004,
      "d": 83.65358125000057,
      "v": 92
    },
    {
      "midi": 63,
      "hit": false,
      "t": 9923.045500000004,
      "d": 83.65358125000057,
      "v": 92
    },
    {
      "midi": 36,
      "hit": false,
      "t": 10153.814000000004,
      "d": 251.92227916666707,
      "v": 75
    },
    {
      "midi": 55,
      "hit": false,
      "t": 10384.582500000004,
      "d": 83.65358125000057,
      "v": 92
    },
    {
      "midi": 60,
      "hit": false,
      "t": 10384.582500000004,
      "d": 83.65358125000057,
      "v": 92
    },
    {
      "midi": 63,
      "hit": false,
      "t": 10384.582500000004,
      "d": 83.65358125000057,
      "v": 92
    },
    {
      "midi": 31,
      "hit": false,
      "t": 10615.351000000004,
      "d": 261.53763333333336,
      "v": 87
    },
    {
      "midi": 53,
      "hit": false,
      "t": 10846.119500000004,
      "d": 83.65358125000057,
      "v": 92
    },
    {
      "midi": 59,
      "hit": false,
      "t": 10846.119500000004,
      "d": 83.65358125000057,
      "v": 92
    },
    {
      "midi": 62,
      "hit": false,
      "t": 10846.119500000004,
      "d": 83.65358125000057,
      "v": 92
    },
    {
      "midi": 36,
      "hit": false,
      "t": 11076.888000000004,
      "d": 269.2299166666671,
      "v": 71
    },
    {
      "midi": 55,
      "hit": false,
      "t": 11307.656500000005,
      "d": 83.65358125000057,
      "v": 92
    },
    {
      "midi": 60,
      "hit": false,
      "t": 11307.656500000005,
      "d": 83.65358125000057,
      "v": 92
    },
    {
      "midi": 63,
      "hit": false,
      "t": 11307.656500000005,
      "d": 83.65358125000057,
      "v": 92
    },
    {
      "midi": 31,
      "hit": false,
      "t": 11538.425000000005,
      "d": 280.76834166666595,
      "v": 75
    },
    {
      "midi": 55,
      "hit": false,
      "t": 11769.193500000005,
      "d": 83.65358124999875,
      "v": 92
    },
    {
      "midi": 60,
      "hit": false,
      "t": 11769.193500000005,
      "d": 83.65358124999875,
      "v": 92
    },
    {
      "midi": 63,
      "hit": false,
      "t": 11769.193500000005,
      "d": 83.65358124999875,
      "v": 92
    },
    {
      "midi": 36,
      "hit": false,
      "t": 11999.962000000003,
      "d": 206.7301145833335,
      "v": 79
    },
    {
      "midi": 55,
      "hit": false,
      "t": 12230.730500000003,
      "d": 83.65358125000057,
      "v": 92
    },
    {
      "midi": 60,
      "hit": false,
      "t": 12230.730500000003,
      "d": 83.65358125000057,
      "v": 92
    },
    {
      "midi": 63,
      "hit": false,
      "t": 12230.730500000003,
      "d": 83.65358125000057,
      "v": 92
    },
    {
      "midi": 38,
      "hit": false,
      "t": 12461.499000000003,
      "d": 242.30692500000077,
      "v": 55
    },
    {
      "midi": 56,
      "hit": false,
      "t": 12692.267500000004,
      "d": 83.65358125000057,
      "v": 92
    },
    {
      "midi": 60,
      "hit": false,
      "t": 12692.267500000004,
      "d": 83.65358125000057,
      "v": 92
    },
    {
      "midi": 62,
      "hit": false,
      "t": 12692.267500000004,
      "d": 83.65358125000057,
      "v": 92
    },
    {
      "midi": 65,
      "hit": false,
      "t": 12692.267500000004,
      "d": 83.65358125000057,
      "v": 92
    },
    {
      "midi": 36,
      "hit": false,
      "t": 12923.036000000004,
      "d": 203.84550833333378,
      "v": 83
    },
    {
      "midi": 51,
      "hit": false,
      "t": 13153.804500000004,
      "d": 83.65358125000057,
      "v": 92
    },
    {
      "midi": 55,
      "hit": false,
      "t": 13153.804500000004,
      "d": 83.65358125000057,
      "v": 92
    },
    {
      "midi": 60,
      "hit": false,
      "t": 13153.804500000004,
      "d": 83.65358125000057,
      "v": 92
    },
    {
      "midi": 31,
      "hit": false,
      "t": 13384.573000000004,
      "d": 203.84550833333378,
      "v": 63
    },
    {
      "midi": 51,
      "hit": false,
      "t": 13615.341500000004,
      "d": 83.65358125000057,
      "v": 92
    },
    {
      "midi": 55,
      "hit": false,
      "t": 13615.341500000004,
      "d": 83.65358125000057,
      "v": 92
    },
    {
      "midi": 60,
      "hit": false,
      "t": 13615.341500000004,
      "d": 83.65358125000057,
      "v": 92
    },
    {
      "midi": 36,
      "hit": false,
      "t": 13846.110000000004,
      "d": 203.84550833333378,
      "v": 83
    },
    {
      "midi": 51,
      "hit": false,
      "t": 14076.878500000004,
      "d": 83.65358125000057,
      "v": 92
    },
    {
      "midi": 55,
      "hit": false,
      "t": 14076.878500000004,
      "d": 83.65358125000057,
      "v": 92
    },
    {
      "midi": 60,
      "hit": false,
      "t": 14076.878500000004,
      "d": 83.65358125000057,
      "v": 92
    },
    {
      "midi": 31,
      "hit": false,
      "t": 14307.647000000004,
      "d": 203.84550833333378,
      "v": 69
    },
    {
      "midi": 51,
      "hit": false,
      "t": 14538.415500000005,
      "d": 83.65358125000057,
      "v": 92
    },
    {
      "midi": 55,
      "hit": false,
      "t": 14538.415500000005,
      "d": 83.65358125000057,
      "v": 92
    },
    {
      "midi": 60,
      "hit": false,
      "t": 14538.415500000005,
      "d": 83.65358125000057,
      "v": 92
    },
    {
      "midi": 36,
      "hit": false,
      "t": 14769.184000000005,
      "d": 203.84550833333378,
      "v": 89
    },
    {
      "midi": 51,
      "hit": false,
      "t": 14999.952500000005,
      "d": 83.65358125000057,
      "v": 92
    },
    {
      "midi": 55,
      "hit": false,
      "t": 14999.952500000005,
      "d": 83.65358125000057,
      "v": 92
    },
    {
      "midi": 60,
      "hit": false,
      "t": 14999.952500000005,
      "d": 83.65358125000057,
      "v": 92
    },
    {
      "midi": 31,
      "hit": false,
      "t": 15230.721000000005,
      "d": 203.84550833333378,
      "v": 83
    },
    {
      "midi": 51,
      "hit": false,
      "t": 15461.489500000005,
      "d": 83.65358125000057,
      "v": 92
    },
    {
      "midi": 55,
      "hit": false,
      "t": 15461.489500000005,
      "d": 83.65358125000057,
      "v": 92
    },
    {
      "midi": 60,
      "hit": false,
      "t": 15461.489500000005,
      "d": 83.65358125000057,
      "v": 92
    },
    {
      "midi": 36,
      "hit": false,
      "t": 15692.258000000005,
      "d": 203.84550833333378,
      "v": 81
    },
    {
      "midi": 51,
      "hit": false,
      "t": 15923.026500000005,
      "d": 83.65358125000057,
      "v": 92
    },
    {
      "midi": 55,
      "hit": false,
      "t": 15923.026500000005,
      "d": 83.65358125000057,
      "v": 92
    },
    {
      "midi": 60,
      "hit": false,
      "t": 15923.026500000005,
      "d": 83.65358125000057,
      "v": 92
    },
    {
      "midi": 31,
      "hit": false,
      "t": 16153.795000000006,
      "d": 203.84550833333378,
      "v": 80
    },
    {
      "midi": 51,
      "hit": false,
      "t": 16384.563500000007,
      "d": 83.65358125000057,
      "v": 92
    },
    {
      "midi": 55,
      "hit": false,
      "t": 16384.563500000007,
      "d": 83.65358125000057,
      "v": 92
    },
    {
      "midi": 60,
      "hit": false,
      "t": 16384.563500000007,
      "d": 83.65358125000057,
      "v": 92
    },
    {
      "midi": 36,
      "hit": false,
      "t": 16615.33200000001,
      "d": 203.84550833333196,
      "v": 83
    },
    {
      "midi": 51,
      "hit": false,
      "t": 16846.100500000008,
      "d": 83.65358125000057,
      "v": 92
    },
    {
      "midi": 55,
      "hit": false,
      "t": 16846.100500000008,
      "d": 83.65358125000057,
      "v": 92
    },
    {
      "midi": 60,
      "hit": false,
      "t": 16846.100500000008,
      "d": 83.65358125000057,
      "v": 92
    },
    {
      "midi": 31,
      "hit": false,
      "t": 17076.86900000001,
      "d": 203.84550833333196,
      "v": 63
    },
    {
      "midi": 51,
      "hit": false,
      "t": 17307.637500000008,
      "d": 83.65358125000057,
      "v": 92
    },
    {
      "midi": 55,
      "hit": false,
      "t": 17307.637500000008,
      "d": 83.65358125000057,
      "v": 92
    },
    {
      "midi": 60,
      "hit": false,
      "t": 17307.637500000008,
      "d": 83.65358125000057,
      "v": 92
    },
    {
      "midi": 36,
      "hit": false,
      "t": 17538.40600000001,
      "d": 203.84550833333196,
      "v": 83
    },
    {
      "midi": 51,
      "hit": false,
      "t": 17769.17450000001,
      "d": 83.65358125000057,
      "v": 92
    },
    {
      "midi": 55,
      "hit": false,
      "t": 17769.17450000001,
      "d": 83.65358125000057,
      "v": 92
    },
    {
      "midi": 60,
      "hit": false,
      "t": 17769.17450000001,
      "d": 83.65358125000057,
      "v": 92
    },
    {
      "midi": 31,
      "hit": false,
      "t": 17999.94300000001,
      "d": 203.84550833333196,
      "v": 69
    },
    {
      "midi": 51,
      "hit": false,
      "t": 18230.71150000001,
      "d": 83.65358125000057,
      "v": 92
    },
    {
      "midi": 55,
      "hit": false,
      "t": 18230.71150000001,
      "d": 83.65358125000057,
      "v": 92
    },
    {
      "midi": 60,
      "hit": false,
      "t": 18230.71150000001,
      "d": 83.65358125000057,
      "v": 92
    },
    {
      "midi": 38,
      "hit": false,
      "t": 18461.48000000001,
      "d": 155.76873749999868,
      "v": 87
    },
    {
      "midi": 59,
      "hit": false,
      "t": 18692.24850000001,
      "d": 83.65358125000057,
      "v": 92
    },
    {
      "midi": 62,
      "hit": false,
      "t": 18692.24850000001,
      "d": 83.65358125000057,
      "v": 92
    },
    {
      "midi": 65,
      "hit": false,
      "t": 18692.24850000001,
      "d": 83.65358125000057,
      "v": 92
    },
    {
      "midi": 31,
      "hit": false,
      "t": 18923.01700000001,
      "d": 203.84550833333196,
      "v": 83
    },
    {
      "midi": 59,
      "hit": false,
      "t": 19153.78550000001,
      "d": 83.65358125000057,
      "v": 92
    },
    {
      "midi": 62,
      "hit": false,
      "t": 19153.78550000001,
      "d": 83.65358125000057,
      "v": 92
    },
    {
      "midi": 65,
      "hit": false,
      "t": 19153.78550000001,
      "d": 83.65358125000057,
      "v": 92
    },
    {
      "midi": 38,
      "hit": false,
      "t": 19384.55400000001,
      "d": 203.84550833333196,
      "v": 91
    },
    {
      "midi": 59,
      "hit": false,
      "t": 19615.32250000001,
      "d": 83.65358125000057,
      "v": 92
    },
    {
      "midi": 62,
      "hit": false,
      "t": 19615.32250000001,
      "d": 83.65358125000057,
      "v": 92
    },
    {
      "midi": 65,
      "hit": false,
      "t": 19615.32250000001,
      "d": 83.65358125000057,
      "v": 92
    },
    {
      "midi": 31,
      "hit": false,
      "t": 19846.09100000001,
      "d": 201.92243750000125,
      "v": 87
    },
    {
      "midi": 59,
      "hit": false,
      "t": 20076.859500000013,
      "d": 83.65358125000057,
      "v": 92
    },
    {
      "midi": 62,
      "hit": false,
      "t": 20076.859500000013,
      "d": 83.65358125000057,
      "v": 92
    },
    {
      "midi": 65,
      "hit": false,
      "t": 20076.859500000013,
      "d": 83.65358125000057,
      "v": 92
    },
    {
      "midi": 38,
      "hit": false,
      "t": 20307.628000000015,
      "d": 177.8840520833328,
      "v": 95
    },
    {
      "midi": 59,
      "hit": false,
      "t": 20530.70421666668,
      "d": 57.6921250000014,
      "v": 83
    },
    {
      "midi": 62,
      "hit": false,
      "t": 20533.58882291668,
      "d": 45.1921645833354,
      "v": 95
    },
    {
      "midi": 65,
      "hit": false,
      "t": 20535.511893750016,
      "d": 48.076770833333285,
      "v": 87
    },
    {
      "midi": 31,
      "hit": false,
      "t": 20749.934291666683,
      "d": 131.73035208333386,
      "v": 91
    },
    {
      "midi": 59,
      "hit": false,
      "t": 20995.125822916685,
      "d": 57.6921250000014,
      "v": 79
    },
    {
      "midi": 62,
      "hit": false,
      "t": 20997.04889375002,
      "d": 41.3460229166667,
      "v": 95
    },
    {
      "midi": 65,
      "hit": false,
      "t": 20999.93350000002,
      "d": 57.69212499999776,
      "v": 87
    },
    {
      "midi": 38,
      "hit": false,
      "t": 21230.70200000002,
      "d": 110.57657291666692,
      "v": 59
    },
    {
      "midi": 59,
      "hit": false,
      "t": 21461.47050000002,
      "d": 62.499802083333634,
      "v": 83
    },
    {
      "midi": 62,
      "hit": false,
      "t": 21463.393570833356,
      "d": 55.76905416666705,
      "v": 95
    },
    {
      "midi": 65,
      "hit": false,
      "t": 21466.278177083357,
      "d": 59.61519583333211,
      "v": 95
    },
    {
      "midi": 31,
      "hit": false,
      "t": 21697.046677083355,
      "d": 122.11499791666574,
      "v": 75
    },
    {
      "midi": 59,
      "hit": false,
      "t": 21927.815177083354,
      "d": 59.61519583333211,
      "v": 83
    },
    {
      "midi": 62,
      "hit": false,
      "t": 21932.622854166686,
      "d": 33.653739583332936,
      "v": 91
    },
    {
      "midi": 65,
      "hit": false,
      "t": 21932.622854166686,
      "d": 40.38448749999952,
      "v": 83
    },
    {
      "midi": 38,
      "hit": false,
      "t": 22153.77600000002,
      "d": 131.73035208333386,
      "v": 95
    },
    {
      "midi": 59,
      "hit": false,
      "t": 22376.852216666688,
      "d": 57.6921250000014,
      "v": 83
    },
    {
      "midi": 62,
      "hit": false,
      "t": 22379.73682291669,
      "d": 45.1921645833354,
      "v": 95
    },
    {
      "midi": 65,
      "hit": false,
      "t": 22381.659893750024,
      "d": 48.076770833333285,
      "v": 87
    },
    {
      "midi": 31,
      "hit": false,
      "t": 22596.08229166669,
      "d": 131.73035208333386,
      "v": 91
    },
    {
      "midi": 59,
      "hit": false,
      "t": 22841.273822916693,
      "d": 57.6921250000014,
      "v": 79
    },
    {
      "midi": 62,
      "hit": false,
      "t": 22843.196893750028,
      "d": 41.3460229166667,
      "v": 95
    },
    {
      "midi": 65,
      "hit": false,
      "t": 22846.08150000003,
      "d": 57.69212499999776,
      "v": 87
    },
    {
      "midi": 38,
      "hit": false,
      "t": 23076.850000000028,
      "d": 110.57657291666692,
      "v": 59
    },
    {
      "midi": 59,
      "hit": false,
      "t": 23307.61850000003,
      "d": 62.499802083333634,
      "v": 83
    },
    {
      "midi": 62,
      "hit": false,
      "t": 23309.541570833364,
      "d": 55.76905416666705,
      "v": 95
    },
    {
      "midi": 65,
      "hit": false,
      "t": 23312.426177083365,
      "d": 59.61519583333211,
      "v": 95
    },
    {
      "midi": 31,
      "hit": false,
      "t": 23543.194677083364,
      "d": 122.11499791666574,
      "v": 75
    },
    {
      "midi": 59,
      "hit": false,
      "t": 23773.963177083362,
      "d": 59.61519583333211,
      "v": 83
    },
    {
      "midi": 62,
      "hit": false,
      "t": 23778.770854166694,
      "d": 33.653739583332936,
      "v": 91
    },
    {
      "midi": 65,
      "hit": false,
      "t": 23778.770854166694,
      "d": 40.38448749999952,
      "v": 83
    },
    {
      "midi": 38,
      "hit": false,
      "t": 23999.924000000028,
      "d": 163.46102083333244,
      "v": 95
    },
    {
      "midi": 59,
      "hit": false,
      "t": 24223.000216666693,
      "d": 57.6921250000014,
      "v": 83
    },
    {
      "midi": 62,
      "hit": false,
      "t": 24225.884822916694,
      "d": 45.1921645833354,
      "v": 95
    },
    {
      "midi": 65,
      "hit": false,
      "t": 24227.80789375003,
      "d": 48.076770833333285,
      "v": 87
    },
    {
      "midi": 31,
      "hit": false,
      "t": 24442.230291666696,
      "d": 131.73035208333386,
      "v": 91
    },
    {
      "midi": 59,
      "hit": false,
      "t": 24687.421822916698,
      "d": 57.6921250000014,
      "v": 79
    },
    {
      "midi": 62,
      "hit": false,
      "t": 24689.344893750032,
      "d": 41.3460229166667,
      "v": 95
    },
    {
      "midi": 65,
      "hit": false,
      "t": 24692.229500000034,
      "d": 57.69212499999776,
      "v": 87
    },
    {
      "midi": 38,
      "hit": false,
      "t": 24922.998000000032,
      "d": 110.57657291666692,
      "v": 59
    },
    {
      "midi": 59,
      "hit": false,
      "t": 25153.766500000034,
      "d": 62.499802083333634,
      "v": 83
    },
    {
      "midi": 62,
      "hit": false,
      "t": 25155.68957083337,
      "d": 55.76905416666705,
      "v": 95
    },
    {
      "midi": 65,
      "hit": false,
      "t": 25158.57417708337,
      "d": 59.61519583333211,
      "v": 95
    },
    {
      "midi": 31,
      "hit": false,
      "t": 25389.34267708337,
      "d": 122.11499791666574,
      "v": 75
    },
    {
      "midi": 59,
      "hit": false,
      "t": 25620.111177083367,
      "d": 59.61519583333211,
      "v": 83
    },
    {
      "midi": 62,
      "hit": false,
      "t": 25624.9188541667,
      "d": 33.653739583332936,
      "v": 91
    },
    {
      "midi": 65,
      "hit": false,
      "t": 25624.9188541667,
      "d": 40.38448749999952,
      "v": 83
    },
    {
      "midi": 38,
      "hit": false,
      "t": 25846.072000000033,
      "d": 96.15354166666657,
      "v": 91
    },
    {
      "midi": 59,
      "hit": false,
      "t": 26069.1482166667,
      "d": 57.6921250000014,
      "v": 83
    },
    {
      "midi": 62,
      "hit": false,
      "t": 26072.032822916703,
      "d": 59.61519583333211,
      "v": 95
    },
    {
      "midi": 65,
      "hit": false,
      "t": 26073.955893750037,
      "d": 48.076770833333285,
      "v": 87
    },
    {
      "midi": 31,
      "hit": false,
      "t": 26288.3782916667,
      "d": 131.73035208333386,
      "v": 91
    },
    {
      "midi": 59,
      "hit": false,
      "t": 26533.569822916703,
      "d": 69.23055000000386,
      "v": 79
    },
    {
      "midi": 62,
      "hit": false,
      "t": 26535.492893750037,
      "d": 60.57673125000292,
      "v": 95
    },
    {
      "midi": 65,
      "hit": false,
      "t": 26538.37750000004,
      "d": 57.6921250000014,
      "v": 87
    },
    {
      "midi": 38,
      "hit": false,
      "t": 26769.14600000004,
      "d": 110.57657291666692,
      "v": 59
    },
    {
      "midi": 59,
      "hit": false,
      "t": 26999.914500000043,
      "d": 69.23055000000386,
      "v": 83
    },
    {
      "midi": 62,
      "hit": false,
      "t": 27001.837570833377,
      "d": 62.499802083333634,
      "v": 95
    },
    {
      "midi": 65,
      "hit": false,
      "t": 27004.72217708338,
      "d": 62.499802083333634,
      "v": 95
    },
    {
      "midi": 31,
      "hit": false,
      "t": 27235.49067708338,
      "d": 122.11499791666574,
      "v": 75
    },
    {
      "midi": 59,
      "hit": false,
      "t": 27466.25917708338,
      "d": 59.61519583333211,
      "v": 83
    },
    {
      "midi": 62,
      "hit": false,
      "t": 27471.06685416671,
      "d": 33.653739583332936,
      "v": 91
    },
    {
      "midi": 65,
      "hit": false,
      "t": 27471.06685416671,
      "d": 40.38448749999952,
      "v": 83
    },
    {
      "midi": 63,
      "hit": false,
      "t": 27692.220000000045,
      "d": 110.57657291666692,
      "v": 100
    },
    {
      "midi": 72,
      "hit": false,
      "t": 27692.220000000045,
      "d": 110.57657291666692,
      "v": 99
    },
    {
      "midi": 67,
      "hit": false,
      "t": 27692.220000000045,
      "d": 112.49964375000127,
      "v": 105
    },
    {
      "midi": 48,
      "hit": false,
      "t": 27692.220000000045,
      "d": 117.3073208333335,
      "v": 100
    },
    {
      "midi": 51,
      "hit": false,
      "t": 28153.757000000045,
      "d": 179.80712291666714,
      "v": 99
    },
    {
      "midi": 55,
      "hit": false,
      "t": 28153.757000000045,
      "d": 179.80712291666714,
      "v": 99
    },
    {
      "midi": 60,
      "hit": false,
      "t": 28153.757000000045,
      "d": 184.61479999999938,
      "v": 95
    },
    {
      "midi": 36,
      "hit": false,
      "t": 28153.757000000045,
      "d": 189.42247708333161,
      "v": 97
    },
    {
      "midi": 60,
      "hit": false,
      "t": 29999.905000000042,
      "d": 208.65318541666784,
      "v": 102
    },
    {
      "midi": 38,
      "hit": false,
      "t": 29999.905000000042,
      "d": 211.53779166666936,
      "v": 94
    },
    {
      "midi": 56,
      "hit": false,
      "t": 29999.905000000042,
      "d": 216.3454687500016,
      "v": 105
    },
    {
      "midi": 65,
      "hit": false,
      "t": 29999.905000000042,
      "d": 218.26853958333595,
      "v": 103
    },
    {
      "midi": 55,
      "hit": false,
      "t": 31846.053000000044,
      "d": 155.76873749999868,
      "v": 103
    },
    {
      "midi": 63,
      "hit": false,
      "t": 31846.053000000044,
      "d": 174.99944583333127,
      "v": 104
    },
    {
      "midi": 60,
      "hit": false,
      "t": 31846.053000000044,
      "d": 189.42247708333161,
      "v": 119
    },
    {
      "midi": 67,
      "hit": false,
      "t": 31846.053000000044,
      "d": 192.30708333333314,
      "v": 94
    },
    {
      "midi": 39,
      "hit": false,
      "t": 31846.053000000044,
      "d": 208.65318541666784,
      "v": 96
    },
    {
      "midi": 58,
      "hit": false,
      "t": 35076.81200000004,
      "d": 862.4972687499976,
      "v": 103
    },
    {
      "midi": 64,
      "hit": false,
      "t": 35076.81200000004,
      "d": 862.4972687499976,
      "v": 91
    },
    {
      "midi": 67,
      "hit": false,
      "t": 35076.81200000004,
      "d": 865.3818749999991,
      "v": 79
    },
    {
      "midi": 61,
      "hit": false,
      "t": 35076.81200000004,
      "d": 867.3049458333335,
      "v": 99
    },
    {
      "midi": 38,
      "hit": false,
      "t": 35999.88600000004,
      "d": 83.65358125000057,
      "v": 87
    },
    {
      "midi": 59,
      "hit": false,
      "t": 36227.769893750046,
      "d": 84.61511666666775,
      "v": 91
    },
    {
      "midi": 62,
      "hit": false,
      "t": 36230.65450000005,
      "d": 83.65358125000057,
      "v": 103
    },
    {
      "midi": 65,
      "hit": false,
      "t": 36230.65450000005,
      "d": 83.65358125000057,
      "v": 87
    },
    {
      "midi": 31,
      "hit": false,
      "t": 36458.53839375005,
      "d": 144.2303125000035,
      "v": 95
    },
    {
      "midi": 62,
      "hit": false,
      "t": 36684.49921666672,
      "d": 84.61511666666775,
      "v": 91
    },
    {
      "midi": 59,
      "hit": false,
      "t": 36687.38382291672,
      "d": 83.65358125000057,
      "v": 83
    },
    {
      "midi": 65,
      "hit": false,
      "t": 36692.19150000006,
      "d": 83.65358125000057,
      "v": 91
    },
    {
      "midi": 38,
      "hit": false,
      "t": 36924.88307083339,
      "d": 123.07653333333292,
      "v": 95
    },
    {
      "midi": 62,
      "hit": false,
      "t": 37148.92082291673,
      "d": 83.65358125000057,
      "v": 99
    },
    {
      "midi": 65,
      "hit": false,
      "t": 37150.84389375006,
      "d": 84.61511666666775,
      "v": 87
    },
    {
      "midi": 59,
      "hit": false,
      "t": 37153.72850000006,
      "d": 83.65358125000057,
      "v": 83
    },
    {
      "midi": 31,
      "hit": false,
      "t": 37389.3046770834,
      "d": 122.11499791666574,
      "v": 91
    },
    {
      "midi": 62,
      "hit": false,
      "t": 37612.380893750065,
      "d": 84.61511666666775,
      "v": 91
    },
    {
      "midi": 59,
      "hit": false,
      "t": 37615.26550000007,
      "d": 83.65358125000057,
      "v": 79
    },
    {
      "midi": 65,
      "hit": false,
      "t": 37615.26550000007,
      "d": 83.65358125000057,
      "v": 83
    },
    {
      "midi": 38,
      "hit": false,
      "t": 37846.034000000065,
      "d": 124.99960416666727,
      "v": 91
    },
    {
      "midi": 59,
      "hit": false,
      "t": 38076.80250000006,
      "d": 83.65358125000057,
      "v": 75
    },
    {
      "midi": 62,
      "hit": false,
      "t": 38076.80250000006,
      "d": 83.65358125000057,
      "v": 83
    },
    {
      "midi": 65,
      "hit": false,
      "t": 38076.80250000006,
      "d": 83.65358125000057,
      "v": 83
    },
    {
      "midi": 31,
      "hit": false,
      "t": 38304.68639375007,
      "d": 142.30724166666914,
      "v": 99
    },
    {
      "midi": 59,
      "hit": false,
      "t": 38538.33950000007,
      "d": 83.65358125000057,
      "v": 63
    },
    {
      "midi": 62,
      "hit": false,
      "t": 38538.33950000007,
      "d": 83.65358125000057,
      "v": 91
    },
    {
      "midi": 65,
      "hit": false,
      "t": 38538.33950000007,
      "d": 83.65358125000057,
      "v": 91
    },
    {
      "midi": 38,
      "hit": false,
      "t": 38766.22339375007,
      "d": 161.5379499999981,
      "v": 87
    },
    {
      "midi": 59,
      "hit": false,
      "t": 38990.2611458334,
      "d": 83.65358125000057,
      "v": 75
    },
    {
      "midi": 62,
      "hit": false,
      "t": 38992.184216666734,
      "d": 84.61511666666775,
      "v": 91
    },
    {
      "midi": 65,
      "hit": false,
      "t": 38999.876500000064,
      "d": 83.65358125000785,
      "v": 79
    },
    {
      "midi": 31,
      "hit": false,
      "t": 39230.64500000007,
      "d": 174.99944583333127,
      "v": 95
    },
    {
      "midi": 62,
      "hit": false,
      "t": 39453.72121666674,
      "d": 84.61511666666775,
      "v": 103
    },
    {
      "midi": 59,
      "hit": false,
      "t": 39456.60582291674,
      "d": 83.65358125000057,
      "v": 83
    },
    {
      "midi": 65,
      "hit": false,
      "t": 39466.221177083404,
      "d": 83.65358125000057,
      "v": 87
    },
    {
      "midi": 36,
      "hit": false,
      "t": 39692.18200000007,
      "d": 134.61495833333174,
      "v": 99
    },
    {
      "midi": 60,
      "hit": false,
      "t": 39915.25821666674,
      "d": 84.61511666666775,
      "v": 103
    },
    {
      "midi": 55,
      "hit": false,
      "t": 39918.14282291674,
      "d": 83.65358125000057,
      "v": 91
    },
    {
      "midi": 64,
      "hit": false,
      "t": 39920.06589375008,
      "d": 84.61511666666775,
      "v": 95
    },
    {
      "midi": 31,
      "hit": false,
      "t": 40141.21903958341,
      "d": 124.99960416666727,
      "v": 91
    },
    {
      "midi": 55,
      "hit": false,
      "t": 40384.487500000076,
      "d": 83.65358125000057,
      "v": 75
    },
    {
      "midi": 60,
      "hit": false,
      "t": 40386.41057083341,
      "d": 84.61511666666775,
      "v": 91
    },
    {
      "midi": 64,
      "hit": false,
      "t": 40391.218247916746,
      "d": 84.61511666666775,
      "v": 83
    },
    {
      "midi": 36,
      "hit": false,
      "t": 40615.25600000008,
      "d": 120.1919270833314,
      "v": 91
    },
    {
      "midi": 55,
      "hit": false,
      "t": 40846.02450000008,
      "d": 83.65358125000057,
      "v": 79
    },
    {
      "midi": 60,
      "hit": false,
      "t": 40847.947570833414,
      "d": 84.61511666666775,
      "v": 91
    },
    {
      "midi": 64,
      "hit": false,
      "t": 40847.947570833414,
      "d": 84.61511666666775,
      "v": 91
    },
    {
      "midi": 31,
      "hit": false,
      "t": 41071.98532291675,
      "d": 131.73035208333022,
      "v": 99
    },
    {
      "midi": 55,
      "hit": false,
      "t": 41302.75382291675,
      "d": 83.65358125000057,
      "v": 87
    },
    {
      "midi": 60,
      "hit": false,
      "t": 41304.67689375008,
      "d": 84.61511666666775,
      "v": 99
    },
    {
      "midi": 64,
      "hit": false,
      "t": 41307.56150000008,
      "d": 83.65358125000057,
      "v": 87
    },
    {
      "midi": 36,
      "hit": false,
      "t": 41540.253070833416,
      "d": 99.0381479166681,
      "v": 95
    },
    {
      "midi": 55,
      "hit": false,
      "t": 41759.483145833416,
      "d": 83.65358125000057,
      "v": 92
    },
    {
      "midi": 64,
      "hit": false,
      "t": 41764.29082291675,
      "d": 83.65358125000057,
      "v": 92
    },
    {
      "midi": 60,
      "hit": false,
      "t": 41766.213893750086,
      "d": 84.61511666666775,
      "v": 92
    },
    {
      "midi": 31,
      "hit": false,
      "t": 41995.05932291676,
      "d": 136.5380291666661,
      "v": 95
    },
    {
      "midi": 55,
      "hit": false,
      "t": 42227.75089375009,
      "d": 84.61511666666775,
      "v": 92
    },
    {
      "midi": 60,
      "hit": false,
      "t": 42230.63550000009,
      "d": 83.65358125000057,
      "v": 92
    },
    {
      "midi": 64,
      "hit": false,
      "t": 42230.63550000009,
      "d": 83.65358125000057,
      "v": 92
    },
    {
      "midi": 36,
      "hit": false,
      "t": 42446.98096875009,
      "d": 199.03783125000336,
      "v": 91
    },
    {
      "midi": 55,
      "hit": false,
      "t": 42687.36482291676,
      "d": 83.65358125000057,
      "v": 92
    },
    {
      "midi": 64,
      "hit": false,
      "t": 42689.287893750094,
      "d": 84.61511666666775,
      "v": 92
    },
    {
      "midi": 60,
      "hit": false,
      "t": 42692.172500000095,
      "d": 83.65358125000057,
      "v": 92
    },
    {
      "midi": 31,
      "hit": false,
      "t": 42918.133322916765,
      "d": 144.2303125000035,
      "v": 91
    },
    {
      "midi": 55,
      "hit": false,
      "t": 43153.7095000001,
      "d": 83.65358125000057,
      "v": 92
    },
    {
      "midi": 60,
      "hit": false,
      "t": 43153.7095000001,
      "d": 83.65358125000057,
      "v": 92
    },
    {
      "midi": 64,
      "hit": false,
      "t": 43153.7095000001,
      "d": 83.65358125000057,
      "v": 92
    },
    {
      "midi": 38,
      "hit": false,
      "t": 43384.4780000001,
      "d": 120.1919270833314,
      "v": 79
    },
    {
      "midi": 57,
      "hit": false,
      "t": 43615.246500000096,
      "d": 83.65358125000057,
      "v": 92
    },
    {
      "midi": 60,
      "hit": false,
      "t": 43615.246500000096,
      "d": 83.65358125000057,
      "v": 92
    },
    {
      "midi": 66,
      "hit": false,
      "t": 43620.05417708343,
      "d": 83.65358125000057,
      "v": 92
    },
    {
      "midi": 33,
      "hit": false,
      "t": 43843.1303937501,
      "d": 139.42263541666762,
      "v": 91
    },
    {
      "midi": 57,
      "hit": false,
      "t": 44076.7835000001,
      "d": 83.65358125000057,
      "v": 92
    },
    {
      "midi": 60,
      "hit": false,
      "t": 44076.7835000001,
      "d": 83.65358125000057,
      "v": 92
    },
    {
      "midi": 66,
      "hit": false,
      "t": 44076.7835000001,
      "d": 83.65358125000057,
      "v": 92
    },
    {
      "midi": 38,
      "hit": false,
      "t": 44307.5520000001,
      "d": 107.6919666666654,
      "v": 87
    },
    {
      "midi": 57,
      "hit": false,
      "t": 44538.320500000096,
      "d": 83.65358125000057,
      "v": 92
    },
    {
      "midi": 60,
      "hit": false,
      "t": 44538.320500000096,
      "d": 83.65358125000057,
      "v": 92
    },
    {
      "midi": 66,
      "hit": false,
      "t": 44538.320500000096,
      "d": 83.65358125000057,
      "v": 92
    },
    {
      "midi": 33,
      "hit": false,
      "t": 44775.819747916765,
      "d": 161.5379499999981,
      "v": 95
    },
    {
      "midi": 57,
      "hit": false,
      "t": 44996.9728937501,
      "d": 84.61511666666775,
      "v": 92
    },
    {
      "midi": 60,
      "hit": false,
      "t": 44999.8575000001,
      "d": 83.65358125000057,
      "v": 92
    },
    {
      "midi": 66,
      "hit": false,
      "t": 44999.8575000001,
      "d": 83.65358125000057,
      "v": 92
    },
    {
      "midi": 38,
      "hit": false,
      "t": 45230.6260000001,
      "d": 117.30732083332987,
      "v": 87
    },
    {
      "midi": 57,
      "hit": false,
      "t": 45461.3945000001,
      "d": 83.65358125000057,
      "v": 92
    },
    {
      "midi": 60,
      "hit": false,
      "t": 45461.3945000001,
      "d": 83.65358125000057,
      "v": 92
    },
    {
      "midi": 66,
      "hit": false,
      "t": 45461.3945000001,
      "d": 83.65358125000057,
      "v": 92
    },
    {
      "midi": 33,
      "hit": false,
      "t": 45692.163000000095,
      "d": 179.80712291666714,
      "v": 91
    },
    {
      "midi": 57,
      "hit": false,
      "t": 45922.93150000009,
      "d": 83.65358125000057,
      "v": 88
    },
    {
      "midi": 60,
      "hit": false,
      "t": 45922.93150000009,
      "d": 83.65358125000057,
      "v": 99
    },
    {
      "midi": 66,
      "hit": false,
      "t": 45922.93150000009,
      "d": 83.65358125000057,
      "v": 99
    },
    {
      "midi": 38,
      "hit": false,
      "t": 46153.70000000009,
      "d": 174.99944583333127,
      "v": 87
    },
    {
      "midi": 57,
      "hit": false,
      "t": 46384.46850000009,
      "d": 83.65358125000057,
      "v": 92
    },
    {
      "midi": 60,
      "hit": false,
      "t": 46384.46850000009,
      "d": 83.65358125000057,
      "v": 92
    },
    {
      "midi": 66,
      "hit": false,
      "t": 46384.46850000009,
      "d": 83.65358125000057,
      "v": 91
    },
    {
      "midi": 33,
      "hit": false,
      "t": 46615.23700000009,
      "d": 136.5380291666661,
      "v": 96
    },
    {
      "midi": 57,
      "hit": false,
      "t": 46846.00550000009,
      "d": 83.65358125000057,
      "v": 76
    },
    {
      "midi": 60,
      "hit": false,
      "t": 46846.00550000009,
      "d": 83.65358125000057,
      "v": 97
    },
    {
      "midi": 66,
      "hit": false,
      "t": 46846.00550000009,
      "d": 83.65358125000057,
      "v": 98
    },
    {
      "midi": 57,
      "hit": false,
      "t": 47076.774000000085,
      "d": 102.8842895833368,
      "v": 98
    },
    {
      "midi": 60,
      "hit": false,
      "t": 47076.774000000085,
      "d": 102.8842895833368,
      "v": 99
    },
    {
      "midi": 66,
      "hit": false,
      "t": 47076.774000000085,
      "d": 117.30732083333714,
      "v": 91
    },
    {
      "midi": 38,
      "hit": false,
      "t": 47076.774000000085,
      "d": 129.80728125000314,
      "v": 96
    },
    {
      "midi": 38,
      "hit": false,
      "t": 50769.07000000009,
      "d": 83.65358125000057,
      "v": 87
    },
    {
      "midi": 59,
      "hit": false,
      "t": 50996.95389375009,
      "d": 84.61511666666775,
      "v": 91
    },
    {
      "midi": 62,
      "hit": false,
      "t": 50999.83850000009,
      "d": 83.65358125000057,
      "v": 103
    },
    {
      "midi": 65,
      "hit": false,
      "t": 50999.83850000009,
      "d": 83.65358125000057,
      "v": 87
    },
    {
      "midi": 31,
      "hit": false,
      "t": 51227.7223937501,
      "d": 144.2303125000035,
      "v": 95
    },
    {
      "midi": 62,
      "hit": false,
      "t": 51453.68321666677,
      "d": 84.61511666666775,
      "v": 91
    },
    {
      "midi": 59,
      "hit": false,
      "t": 51456.56782291677,
      "d": 83.65358125000057,
      "v": 83
    },
    {
      "midi": 65,
      "hit": false,
      "t": 51461.375500000104,
      "d": 83.65358125000057,
      "v": 91
    },
    {
      "midi": 38,
      "hit": false,
      "t": 51694.06707083344,
      "d": 123.07653333333292,
      "v": 95
    },
    {
      "midi": 62,
      "hit": false,
      "t": 51918.10482291677,
      "d": 83.65358125000057,
      "v": 99
    },
    {
      "midi": 65,
      "hit": false,
      "t": 51920.027893750106,
      "d": 84.61511666666775,
      "v": 87
    },
    {
      "midi": 59,
      "hit": false,
      "t": 51922.91250000011,
      "d": 83.65358125000057,
      "v": 83
    },
    {
      "midi": 31,
      "hit": false,
      "t": 52158.48867708344,
      "d": 122.11499791666574,
      "v": 91
    },
    {
      "midi": 62,
      "hit": false,
      "t": 52381.56489375011,
      "d": 84.61511666666775,
      "v": 91
    },
    {
      "midi": 59,
      "hit": false,
      "t": 52384.44950000011,
      "d": 83.65358125000057,
      "v": 79
    },
    {
      "midi": 65,
      "hit": false,
      "t": 52384.44950000011,
      "d": 83.65358125000057,
      "v": 83
    },
    {
      "midi": 38,
      "hit": false,
      "t": 52615.21800000011,
      "d": 124.99960416666727,
      "v": 91
    },
    {
      "midi": 59,
      "hit": false,
      "t": 52845.98650000011,
      "d": 83.65358125000057,
      "v": 75
    },
    {
      "midi": 62,
      "hit": false,
      "t": 52845.98650000011,
      "d": 83.65358125000057,
      "v": 83
    },
    {
      "midi": 65,
      "hit": false,
      "t": 52845.98650000011,
      "d": 83.65358125000057,
      "v": 83
    },
    {
      "midi": 31,
      "hit": false,
      "t": 53073.87039375011,
      "d": 142.30724166666914,
      "v": 99
    },
    {
      "midi": 59,
      "hit": false,
      "t": 53307.52350000011,
      "d": 83.65358125000057,
      "v": 63
    },
    {
      "midi": 62,
      "hit": false,
      "t": 53307.52350000011,
      "d": 83.65358125000057,
      "v": 91
    },
    {
      "midi": 65,
      "hit": false,
      "t": 53307.52350000011,
      "d": 83.65358125000057,
      "v": 91
    },
    {
      "midi": 38,
      "hit": false,
      "t": 53535.407393750116,
      "d": 161.5379499999981,
      "v": 87
    },
    {
      "midi": 59,
      "hit": false,
      "t": 53759.445145833444,
      "d": 83.65358125000057,
      "v": 75
    },
    {
      "midi": 62,
      "hit": false,
      "t": 53761.36821666678,
      "d": 84.61511666666775,
      "v": 91
    },
    {
      "midi": 65,
      "hit": false,
      "t": 53769.06050000011,
      "d": 83.65358125000785,
      "v": 79
    },
    {
      "midi": 31,
      "hit": false,
      "t": 53999.829000000114,
      "d": 174.99944583333127,
      "v": 95
    },
    {
      "midi": 62,
      "hit": false,
      "t": 54222.90521666678,
      "d": 84.61511666666775,
      "v": 103
    },
    {
      "midi": 59,
      "hit": false,
      "t": 54225.789822916784,
      "d": 83.65358125000057,
      "v": 83
    },
    {
      "midi": 65,
      "hit": false,
      "t": 54235.40517708345,
      "d": 83.65358125000057,
      "v": 87
    },
    {
      "midi": 36,
      "hit": false,
      "t": 54461.36600000012,
      "d": 134.61495833333174,
      "v": 99
    },
    {
      "midi": 60,
      "hit": false,
      "t": 54684.44221666679,
      "d": 84.61511666666775,
      "v": 103
    },
    {
      "midi": 55,
      "hit": false,
      "t": 54687.32682291679,
      "d": 83.65358125000057,
      "v": 91
    },
    {
      "midi": 64,
      "hit": false,
      "t": 54689.24989375012,
      "d": 84.61511666666775,
      "v": 95
    },
    {
      "midi": 31,
      "hit": false,
      "t": 54910.403039583456,
      "d": 124.99960416666727,
      "v": 91
    },
    {
      "midi": 55,
      "hit": false,
      "t": 55153.67150000012,
      "d": 83.65358125000057,
      "v": 75
    },
    {
      "midi": 60,
      "hit": false,
      "t": 55155.594570833455,
      "d": 84.61511666666775,
      "v": 91
    },
    {
      "midi": 64,
      "hit": false,
      "t": 55160.40224791679,
      "d": 84.61511666666775,
      "v": 83
    },
    {
      "midi": 36,
      "hit": false,
      "t": 55384.440000000126,
      "d": 120.1919270833314,
      "v": 91
    },
    {
      "midi": 55,
      "hit": false,
      "t": 55615.208500000124,
      "d": 83.65358125000057,
      "v": 79
    },
    {
      "midi": 60,
      "hit": false,
      "t": 55617.13157083346,
      "d": 84.61511666666775,
      "v": 91
    },
    {
      "midi": 64,
      "hit": false,
      "t": 55617.13157083346,
      "d": 84.61511666666775,
      "v": 91
    },
    {
      "midi": 31,
      "hit": false,
      "t": 55841.169322916794,
      "d": 131.73035208333022,
      "v": 99
    },
    {
      "midi": 55,
      "hit": false,
      "t": 56071.93782291679,
      "d": 83.65358125000057,
      "v": 87
    },
    {
      "midi": 60,
      "hit": false,
      "t": 56073.86089375013,
      "d": 84.61511666666775,
      "v": 99
    },
    {
      "midi": 64,
      "hit": false,
      "t": 56076.74550000013,
      "d": 83.65358125000057,
      "v": 87
    },
    {
      "midi": 29,
      "hit": false,
      "t": 56307.51400000013,
      "d": 261.53763333333336,
      "v": 95
    },
    {
      "midi": 60,
      "hit": false,
      "t": 56538.282500000125,
      "d": 62.49980208333727,
      "v": 107
    },
    {
      "midi": 57,
      "hit": false,
      "t": 56538.282500000125,
      "d": 72.11515625000175,
      "v": 107
    },
    {
      "midi": 65,
      "hit": false,
      "t": 56538.282500000125,
      "d": 93.26893541666504,
      "v": 95
    },
    {
      "midi": 60,
      "hit": false,
      "t": 56999.81950000012,
      "d": 64.42287291666435,
      "v": 107
    },
    {
      "midi": 65,
      "hit": false,
      "t": 56999.81950000012,
      "d": 72.11515624999447,
      "v": 91
    },
    {
      "midi": 57,
      "hit": false,
      "t": 56999.81950000012,
      "d": 74.03822708332882,
      "v": 103
    },
    {
      "midi": 38,
      "hit": false,
      "t": 57230.58800000012,
      "d": 280.7683416666623,
      "v": 95
    },
    {
      "midi": 53,
      "hit": false,
      "t": 57461.35650000012,
      "d": 78.8459041666647,
      "v": 99
    },
    {
      "midi": 57,
      "hit": false,
      "t": 57461.35650000012,
      "d": 91.3458645833307,
      "v": 107
    },
    {
      "midi": 62,
      "hit": false,
      "t": 57461.35650000012,
      "d": 105.76889583333104,
      "v": 91
    },
    {
      "midi": 39,
      "hit": false,
      "t": 57692.12500000012,
      "d": 211.53779166666936,
      "v": 95
    },
    {
      "midi": 54,
      "hit": false,
      "t": 57922.89350000012,
      "d": 69.23055000000022,
      "v": 92
    },
    {
      "midi": 57,
      "hit": false,
      "t": 57922.89350000012,
      "d": 76.92283333333035,
      "v": 92
    },
    {
      "midi": 60,
      "hit": false,
      "t": 57922.89350000012,
      "d": 76.92283333333035,
      "v": 79
    },
    {
      "midi": 63,
      "hit": false,
      "t": 57922.89350000012,
      "d": 98.07661249999364,
      "v": 95
    },
    {
      "midi": 40,
      "hit": false,
      "t": 58153.66200000011,
      "d": 266.34531041666196,
      "v": 95
    },
    {
      "midi": 55,
      "hit": false,
      "t": 58384.43050000011,
      "d": 64.42287291666435,
      "v": 99
    },
    {
      "midi": 60,
      "hit": false,
      "t": 58384.43050000011,
      "d": 74.03822708332882,
      "v": 99
    },
    {
      "midi": 64,
      "hit": false,
      "t": 58384.43050000011,
      "d": 83.6535812499933,
      "v": 95
    },
    {
      "midi": 60,
      "hit": false,
      "t": 58845.96750000011,
      "d": 57.6921250000014,
      "v": 92
    },
    {
      "midi": 55,
      "hit": false,
      "t": 58845.96750000011,
      "d": 69.23055000000022,
      "v": 92
    },
    {
      "midi": 64,
      "hit": false,
      "t": 58845.96750000011,
      "d": 69.23055000000022,
      "v": 93
    },
    {
      "midi": 60,
      "hit": false,
      "t": 59076.736000000106,
      "d": 76.92283333333035,
      "v": 91
    },
    {
      "midi": 64,
      "hit": false,
      "t": 59076.736000000106,
      "d": 81.73051041666622,
      "v": 95
    },
    {
      "midi": 69,
      "hit": false,
      "t": 59076.736000000106,
      "d": 122.11499791666574,
      "v": 99
    },
    {
      "midi": 33,
      "hit": false,
      "t": 59076.736000000106,
      "d": 129.80728124999587,
      "v": 98
    },
    {
      "midi": 62,
      "hit": false,
      "t": 59999.8100000001,
      "d": 112.49964375000127,
      "v": 103
    },
    {
      "midi": 65,
      "hit": false,
      "t": 59999.8100000001,
      "d": 117.30732083333714,
      "v": 111
    },
    {
      "midi": 57,
      "hit": false,
      "t": 59999.8100000001,
      "d": 120.19192708333867,
      "v": 107
    },
    {
      "midi": 26,
      "hit": false,
      "t": 59999.8100000001,
      "d": 141.34570625000197,
      "v": 104
    },
    {
      "midi": 31,
      "hit": false,
      "t": 60922.8840000001,
      "d": 131.73035208333022,
      "v": 101
    },
    {
      "midi": 50,
      "hit": false,
      "t": 60922.8840000001,
      "d": 131.73035208333022,
      "v": 106
    },
    {
      "midi": 55,
      "hit": false,
      "t": 60922.8840000001,
      "d": 131.73035208333022,
      "v": 100
    },
    {
      "midi": 59,
      "hit": false,
      "t": 60922.8840000001,
      "d": 131.73035208333022,
      "v": 95
    },
    {
      "midi": 36,
      "hit": false,
      "t": 61845.9580000001,
      "d": 131.73035208333022,
      "v": 111
    },
    {
      "midi": 52,
      "hit": false,
      "t": 61845.9580000001,
      "d": 131.73035208333022,
      "v": 104
    },
    {
      "midi": 55,
      "hit": false,
      "t": 61845.9580000001,
      "d": 131.73035208333022,
      "v": 99
    },
    {
      "midi": 60,
      "hit": false,
      "t": 61845.9580000001,
      "d": 131.73035208333022,
      "v": 105
    },
    {
      "midi": 31,
      "hit": false,
      "t": 62307.4950000001,
      "d": 131.73035208333022,
      "v": 99
    },
    {
      "midi": 50,
      "hit": false,
      "t": 62307.4950000001,
      "d": 131.73035208333022,
      "v": 103
    },
    {
      "midi": 55,
      "hit": false,
      "t": 62307.4950000001,
      "d": 131.73035208333022,
      "v": 107
    },
    {
      "midi": 59,
      "hit": false,
      "t": 62307.4950000001,
      "d": 131.73035208333022,
      "v": 83
    },
    {
      "midi": 24,
      "hit": false,
      "t": 62769.032000000094,
      "d": 131.73035208333022,
      "v": 100
    },
    {
      "midi": 52,
      "hit": false,
      "t": 62769.032000000094,
      "d": 131.73035208333022,
      "v": 95
    },
    {
      "midi": 55,
      "hit": false,
      "t": 62769.032000000094,
      "d": 131.73035208333022,
      "v": 95
    },
    {
      "midi": 60,
      "hit": false,
      "t": 62769.032000000094,
      "d": 131.73035208333022,
      "v": 95
    },
    {
      "midi": 43,
      "hit": false,
      "t": 63692.10600000009,
      "d": 271.15298749999783,
      "v": 104
    },
    {
      "midi": 59,
      "hit": false,
      "t": 63692.10600000009,
      "d": 275.9606645833337,
      "v": 91
    },
    {
      "midi": 53,
      "hit": false,
      "t": 63692.10600000009,
      "d": 278.84527083333523,
      "v": 103
    },
    {
      "midi": 67,
      "hit": false,
      "t": 63692.10600000009,
      "d": 290.38369583333406,
      "v": 101
    },
    {
      "midi": 96,
      "hit": false,
      "t": 66889.21126041675,
      "d": 24.0383854166721,
      "v": 94
    },
    {
      "midi": 95,
      "hit": false,
      "t": 66905.55736250008,
      "d": 24.0383854166721,
      "v": 100
    },
    {
      "midi": 93,
      "hit": false,
      "t": 66929.59574791676,
      "d": 24.038385416657547,
      "v": 106
    },
    {
      "midi": 91,
      "hit": false,
      "t": 66948.82645625008,
      "d": 24.038385416657547,
      "v": 103
    },
    {
      "midi": 89,
      "hit": false,
      "t": 66966.13409375008,
      "d": 24.0383854166721,
      "v": 104
    },
    {
      "midi": 88,
      "hit": false,
      "t": 66980.55712500008,
      "d": 24.0383854166721,
      "v": 103
    },
    {
      "midi": 86,
      "hit": false,
      "t": 66999.78783333342,
      "d": 24.0383854166721,
      "v": 99
    },
    {
      "midi": 84,
      "hit": false,
      "t": 67016.13393541676,
      "d": 24.0383854166721,
      "v": 99
    },
    {
      "midi": 83,
      "hit": false,
      "t": 67035.3646437501,
      "d": 24.038385416657547,
      "v": 98
    },
    {
      "midi": 81,
      "hit": false,
      "t": 67057.47995833342,
      "d": 24.038385416657547,
      "v": 94
    },
    {
      "midi": 79,
      "hit": false,
      "t": 67076.71066666675,
      "d": 24.038385416657547,
      "v": 94
    },
    {
      "midi": 77,
      "hit": false,
      "t": 67095.94137500008,
      "d": 24.038385416657547,
      "v": 86
    },
    {
      "midi": 76,
      "hit": false,
      "t": 67119.97976041674,
      "d": 24.038385416657547,
      "v": 90
    },
    {
      "midi": 74,
      "hit": false,
      "t": 67141.1335395834,
      "d": 24.038385416657547,
      "v": 91
    },
    {
      "midi": 72,
      "hit": false,
      "t": 67165.17192500006,
      "d": 24.0383854166721,
      "v": 90
    },
    {
      "midi": 71,
      "hit": false,
      "t": 67192.09491666673,
      "d": 24.0383854166721,
      "v": 82
    },
    {
      "midi": 69,
      "hit": false,
      "t": 67220.94097916673,
      "d": 24.0383854166721,
      "v": 86
    },
    {
      "midi": 67,
      "hit": false,
      "t": 67249.78704166673,
      "d": 24.0383854166721,
      "v": 70
    },
    {
      "midi": 65,
      "hit": false,
      "t": 67280.55617500006,
      "d": 24.0383854166721,
      "v": 78
    },
    {
      "midi": 36,
      "hit": false,
      "t": 67384.40200000007,
      "d": 283.6529479166784,
      "v": 103
    },
    {
      "midi": 55,
      "hit": false,
      "t": 67615.17050000008,
      "d": 83.65358125000785,
      "v": 92
    },
    {
      "midi": 60,
      "hit": false,
      "t": 67615.17050000008,
      "d": 83.65358125000785,
      "v": 92
    },
    {
      "midi": 63,
      "hit": false,
      "t": 67615.17050000008,
      "d": 83.65358125000785,
      "v": 92
    },
    {
      "midi": 55,
      "hit": false,
      "t": 68076.70750000009,
      "d": 83.6535812499933,
      "v": 92
    },
    {
      "midi": 60,
      "hit": false,
      "t": 68076.70750000009,
      "d": 83.6535812499933,
      "v": 92
    },
    {
      "midi": 63,
      "hit": false,
      "t": 68076.70750000009,
      "d": 83.6535812499933,
      "v": 92
    },
    {
      "midi": 43,
      "hit": false,
      "t": 68076.70750000009,
      "d": 139.42263541666034,
      "v": 83
    },
    {
      "midi": 36,
      "hit": false,
      "t": 68307.47600000008,
      "d": 223.0762166666682,
      "v": 87
    },
    {
      "midi": 55,
      "hit": false,
      "t": 68538.24450000009,
      "d": 83.6535812499933,
      "v": 92
    },
    {
      "midi": 60,
      "hit": false,
      "t": 68538.24450000009,
      "d": 83.6535812499933,
      "v": 92
    },
    {
      "midi": 63,
      "hit": false,
      "t": 68538.24450000009,
      "d": 83.6535812499933,
      "v": 92
    },
    {
      "midi": 53,
      "hit": false,
      "t": 68999.78150000008,
      "d": 83.6535812499933,
      "v": 92
    },
    {
      "midi": 59,
      "hit": false,
      "t": 68999.78150000008,
      "d": 83.6535812499933,
      "v": 92
    },
    {
      "midi": 62,
      "hit": false,
      "t": 68999.78150000008,
      "d": 83.6535812499933,
      "v": 92
    },
    {
      "midi": 43,
      "hit": false,
      "t": 68999.78150000008,
      "d": 141.3457062499947,
      "v": 95
    },
    {
      "midi": 36,
      "hit": false,
      "t": 69230.55000000008,
      "d": 242.3069250000117,
      "v": 83
    },
    {
      "midi": 55,
      "hit": false,
      "t": 69461.31850000008,
      "d": 83.65358125000785,
      "v": 92
    },
    {
      "midi": 60,
      "hit": false,
      "t": 69461.31850000008,
      "d": 83.65358125000785,
      "v": 92
    },
    {
      "midi": 63,
      "hit": false,
      "t": 69461.31850000008,
      "d": 83.65358125000785,
      "v": 92
    },
    {
      "midi": 55,
      "hit": false,
      "t": 69922.85550000009,
      "d": 83.6535812499933,
      "v": 92
    },
    {
      "midi": 60,
      "hit": false,
      "t": 69922.85550000009,
      "d": 83.6535812499933,
      "v": 92
    },
    {
      "midi": 63,
      "hit": false,
      "t": 69922.85550000009,
      "d": 83.6535812499933,
      "v": 92
    },
    {
      "midi": 43,
      "hit": false,
      "t": 69922.85550000009,
      "d": 136.5380291666661,
      "v": 95
    },
    {
      "midi": 36,
      "hit": false,
      "t": 70153.6240000001,
      "d": 317.30668749999313,
      "v": 91
    },
    {
      "midi": 55,
      "hit": false,
      "t": 70384.3925000001,
      "d": 83.6535812499933,
      "v": 92
    },
    {
      "midi": 60,
      "hit": false,
      "t": 70384.3925000001,
      "d": 83.6535812499933,
      "v": 92
    },
    {
      "midi": 63,
      "hit": false,
      "t": 70384.3925000001,
      "d": 83.6535812499933,
      "v": 92
    },
    {
      "midi": 56,
      "hit": false,
      "t": 70845.92950000009,
      "d": 83.6535812499933,
      "v": 92
    },
    {
      "midi": 60,
      "hit": false,
      "t": 70845.92950000009,
      "d": 83.6535812499933,
      "v": 92
    },
    {
      "midi": 62,
      "hit": false,
      "t": 70845.92950000009,
      "d": 83.6535812499933,
      "v": 92
    },
    {
      "midi": 65,
      "hit": false,
      "t": 70845.92950000009,
      "d": 83.6535812499933,
      "v": 92
    },
    {
      "midi": 43,
      "hit": false,
      "t": 70845.92950000009,
      "d": 177.8840520833328,
      "v": 55
    },
    {
      "midi": 36,
      "hit": false,
      "t": 71076.69800000009,
      "d": 249.99920833333454,
      "v": 75
    },
    {
      "midi": 51,
      "hit": false,
      "t": 71307.4665000001,
      "d": 83.6535812499933,
      "v": 92
    },
    {
      "midi": 55,
      "hit": false,
      "t": 71307.4665000001,
      "d": 83.6535812499933,
      "v": 92
    },
    {
      "midi": 60,
      "hit": false,
      "t": 71307.4665000001,
      "d": 83.6535812499933,
      "v": 92
    },
    {
      "midi": 51,
      "hit": false,
      "t": 71769.0035000001,
      "d": 83.6535812499933,
      "v": 92
    },
    {
      "midi": 55,
      "hit": false,
      "t": 71769.0035000001,
      "d": 83.6535812499933,
      "v": 92
    },
    {
      "midi": 60,
      "hit": false,
      "t": 71769.0035000001,
      "d": 83.6535812499933,
      "v": 92
    },
    {
      "midi": 43,
      "hit": false,
      "t": 71769.0035000001,
      "d": 126.92267499999434,
      "v": 19
    },
    {
      "midi": 36,
      "hit": false,
      "t": 71999.77200000008,
      "d": 293.2683020833356,
      "v": 63
    },
    {
      "midi": 51,
      "hit": false,
      "t": 72230.54050000009,
      "d": 83.6535812499933,
      "v": 92
    },
    {
      "midi": 55,
      "hit": false,
      "t": 72230.54050000009,
      "d": 83.6535812499933,
      "v": 92
    },
    {
      "midi": 60,
      "hit": false,
      "t": 72230.54050000009,
      "d": 83.6535812499933,
      "v": 92
    },
    {
      "midi": 51,
      "hit": false,
      "t": 72692.07750000009,
      "d": 83.6535812499933,
      "v": 92
    },
    {
      "midi": 55,
      "hit": false,
      "t": 72692.07750000009,
      "d": 83.6535812499933,
      "v": 92
    },
    {
      "midi": 60,
      "hit": false,
      "t": 72692.07750000009,
      "d": 83.6535812499933,
      "v": 92
    },
    {
      "midi": 43,
      "hit": false,
      "t": 72692.07750000009,
      "d": 144.23031249998894,
      "v": 67
    },
    {
      "midi": 36,
      "hit": false,
      "t": 72922.84600000008,
      "d": 274.03759375000664,
      "v": 51
    },
    {
      "midi": 51,
      "hit": false,
      "t": 73153.61450000008,
      "d": 83.65358125000785,
      "v": 92
    },
    {
      "midi": 55,
      "hit": false,
      "t": 73153.61450000008,
      "d": 83.65358125000785,
      "v": 92
    },
    {
      "midi": 60,
      "hit": false,
      "t": 73153.61450000008,
      "d": 83.65358125000785,
      "v": 92
    },
    {
      "midi": 51,
      "hit": false,
      "t": 73615.1515000001,
      "d": 83.6535812499933,
      "v": 92
    },
    {
      "midi": 55,
      "hit": false,
      "t": 73615.1515000001,
      "d": 83.6535812499933,
      "v": 92
    },
    {
      "midi": 60,
      "hit": false,
      "t": 73615.1515000001,
      "d": 83.6535812499933,
      "v": 92
    },
    {
      "midi": 43,
      "hit": false,
      "t": 73615.1515000001,
      "d": 124.99960416665999,
      "v": 63
    },
    {
      "midi": 36,
      "hit": false,
      "t": 73845.92000000009,
      "d": 245.19153125000594,
      "v": 55
    },
    {
      "midi": 51,
      "hit": false,
      "t": 74076.68850000009,
      "d": 83.6535812499933,
      "v": 92
    },
    {
      "midi": 55,
      "hit": false,
      "t": 74076.68850000009,
      "d": 83.6535812499933,
      "v": 92
    },
    {
      "midi": 60,
      "hit": false,
      "t": 74076.68850000009,
      "d": 83.6535812499933,
      "v": 92
    },
    {
      "midi": 51,
      "hit": false,
      "t": 74538.22550000009,
      "d": 83.6535812499933,
      "v": 92
    },
    {
      "midi": 55,
      "hit": false,
      "t": 74538.22550000009,
      "d": 83.6535812499933,
      "v": 92
    },
    {
      "midi": 60,
      "hit": false,
      "t": 74538.22550000009,
      "d": 83.6535812499933,
      "v": 92
    },
    {
      "midi": 43,
      "hit": false,
      "t": 74538.22550000009,
      "d": 126.92267499999434,
      "v": 83
    },
    {
      "midi": 51,
      "hit": false,
      "t": 74999.76250000008,
      "d": 83.6535812499933,
      "v": 92
    },
    {
      "midi": 55,
      "hit": false,
      "t": 74999.76250000008,
      "d": 83.6535812499933,
      "v": 92
    },
    {
      "midi": 60,
      "hit": false,
      "t": 74999.76250000008,
      "d": 83.6535812499933,
      "v": 92
    },
    {
      "midi": 51,
      "hit": false,
      "t": 75461.29950000008,
      "d": 83.6535812499933,
      "v": 92
    },
    {
      "midi": 55,
      "hit": false,
      "t": 75461.29950000008,
      "d": 83.6535812499933,
      "v": 92
    },
    {
      "midi": 60,
      "hit": false,
      "t": 75461.29950000008,
      "d": 83.6535812499933,
      "v": 92
    },
    {
      "midi": 51,
      "hit": false,
      "t": 75922.83650000008,
      "d": 83.6535812499933,
      "v": 92
    },
    {
      "midi": 55,
      "hit": false,
      "t": 75922.83650000008,
      "d": 83.6535812499933,
      "v": 92
    },
    {
      "midi": 60,
      "hit": false,
      "t": 75922.83650000008,
      "d": 83.6535812499933,
      "v": 92
    },
    {
      "midi": 51,
      "hit": false,
      "t": 76384.37350000007,
      "d": 83.65358125000785,
      "v": 92
    },
    {
      "midi": 55,
      "hit": false,
      "t": 76384.37350000007,
      "d": 83.65358125000785,
      "v": 92
    },
    {
      "midi": 60,
      "hit": false,
      "t": 76384.37350000007,
      "d": 83.65358125000785,
      "v": 92
    },
    {
      "midi": 31,
      "hit": false,
      "t": 76408.41188541675,
      "d": 115.3842500000028,
      "v": 83
    },
    {
      "midi": 38,
      "hit": false,
      "t": 76615.14200000008,
      "d": 160.5764145833382,
      "v": 87
    },
    {
      "midi": 59,
      "hit": false,
      "t": 76845.91050000009,
      "d": 83.6535812499933,
      "v": 92
    },
    {
      "midi": 62,
      "hit": false,
      "t": 76845.91050000009,
      "d": 83.6535812499933,
      "v": 92
    },
    {
      "midi": 65,
      "hit": false,
      "t": 76845.91050000009,
      "d": 83.6535812499933,
      "v": 92
    },
    {
      "midi": 59,
      "hit": false,
      "t": 77307.44750000008,
      "d": 83.6535812499933,
      "v": 92
    },
    {
      "midi": 62,
      "hit": false,
      "t": 77307.44750000008,
      "d": 83.6535812499933,
      "v": 92
    },
    {
      "midi": 65,
      "hit": false,
      "t": 77307.44750000008,
      "d": 83.6535812499933,
      "v": 92
    },
    {
      "midi": 31,
      "hit": false,
      "t": 77307.44750000008,
      "d": 155.76873749999504,
      "v": 63
    },
    {
      "midi": 38,
      "hit": false,
      "t": 77538.21600000007,
      "d": 160.5764145833382,
      "v": 83
    },
    {
      "midi": 59,
      "hit": false,
      "t": 77768.98450000008,
      "d": 83.6535812499933,
      "v": 92
    },
    {
      "midi": 62,
      "hit": false,
      "t": 77768.98450000008,
      "d": 83.6535812499933,
      "v": 92
    },
    {
      "midi": 65,
      "hit": false,
      "t": 77768.98450000008,
      "d": 83.6535812499933,
      "v": 92
    },
    {
      "midi": 59,
      "hit": false,
      "t": 78230.52150000008,
      "d": 83.6535812499933,
      "v": 92
    },
    {
      "midi": 62,
      "hit": false,
      "t": 78230.52150000008,
      "d": 83.6535812499933,
      "v": 92
    },
    {
      "midi": 65,
      "hit": false,
      "t": 78230.52150000008,
      "d": 83.6535812499933,
      "v": 92
    },
    {
      "midi": 31,
      "hit": false,
      "t": 78230.52150000008,
      "d": 134.61495833333174,
      "v": 75
    },
    {
      "midi": 38,
      "hit": false,
      "t": 78461.29000000008,
      "d": 194.2301541666675,
      "v": 87
    },
    {
      "midi": 59,
      "hit": false,
      "t": 78684.36621666675,
      "d": 57.692124999986845,
      "v": 83
    },
    {
      "midi": 62,
      "hit": false,
      "t": 78687.25082291674,
      "d": 45.1921645833354,
      "v": 95
    },
    {
      "midi": 65,
      "hit": false,
      "t": 78689.17389375008,
      "d": 48.07677083332965,
      "v": 87
    },
    {
      "midi": 59,
      "hit": false,
      "t": 79148.78782291674,
      "d": 57.6921250000014,
      "v": 79
    },
    {
      "midi": 62,
      "hit": false,
      "t": 79150.71089375007,
      "d": 41.3460229166667,
      "v": 95
    },
    {
      "midi": 65,
      "hit": false,
      "t": 79153.59550000007,
      "d": 57.6921250000014,
      "v": 87
    },
    {
      "midi": 31,
      "hit": false,
      "t": 79153.59550000007,
      "d": 129.80728125000314,
      "v": 71
    },
    {
      "midi": 38,
      "hit": false,
      "t": 79384.36400000007,
      "d": 206.7301145833335,
      "v": 83
    },
    {
      "midi": 59,
      "hit": false,
      "t": 79615.13250000008,
      "d": 62.499802083329996,
      "v": 83
    },
    {
      "midi": 62,
      "hit": false,
      "t": 79617.05557083341,
      "d": 55.76905416666705,
      "v": 95
    },
    {
      "midi": 65,
      "hit": false,
      "t": 79619.94017708341,
      "d": 59.61519583333575,
      "v": 95
    },
    {
      "midi": 31,
      "hit": false,
      "t": 80076.66950000008,
      "d": 136.53802916665154,
      "v": 47
    },
    {
      "midi": 59,
      "hit": false,
      "t": 80081.4771770834,
      "d": 59.615195833321195,
      "v": 83
    },
    {
      "midi": 62,
      "hit": false,
      "t": 80086.28485416673,
      "d": 33.6537395833293,
      "v": 91
    },
    {
      "midi": 65,
      "hit": false,
      "t": 80086.28485416673,
      "d": 40.38448749999225,
      "v": 83
    },
    {
      "midi": 38,
      "hit": false,
      "t": 80307.43800000007,
      "d": 192.30708333333314,
      "v": 79
    },
    {
      "midi": 59,
      "hit": false,
      "t": 80530.51421666674,
      "d": 57.692124999986845,
      "v": 83
    },
    {
      "midi": 62,
      "hit": false,
      "t": 80533.39882291673,
      "d": 45.1921645833354,
      "v": 95
    },
    {
      "midi": 65,
      "hit": false,
      "t": 80535.32189375006,
      "d": 48.07677083332965,
      "v": 87
    },
    {
      "midi": 59,
      "hit": false,
      "t": 80994.93582291673,
      "d": 57.6921250000014,
      "v": 79
    },
    {
      "midi": 62,
      "hit": false,
      "t": 80996.85889375006,
      "d": 41.3460229166667,
      "v": 95
    },
    {
      "midi": 65,
      "hit": false,
      "t": 80999.74350000006,
      "d": 57.6921250000014,
      "v": 87
    },
    {
      "midi": 31,
      "hit": false,
      "t": 80999.74350000006,
      "d": 126.92267499999434,
      "v": 47
    },
    {
      "midi": 38,
      "hit": false,
      "t": 81230.51200000005,
      "d": 189.4224770833389,
      "v": 75
    },
    {
      "midi": 59,
      "hit": false,
      "t": 81461.28050000005,
      "d": 62.499802083329996,
      "v": 83
    },
    {
      "midi": 62,
      "hit": false,
      "t": 81463.20357083339,
      "d": 55.76905416666705,
      "v": 95
    },
    {
      "midi": 65,
      "hit": false,
      "t": 81466.08817708338,
      "d": 59.61519583333575,
      "v": 95
    },
    {
      "midi": 31,
      "hit": false,
      "t": 81922.81750000005,
      "d": 115.38424999998824,
      "v": 39
    },
    {
      "midi": 59,
      "hit": false,
      "t": 81927.62517708338,
      "d": 59.615195833321195,
      "v": 83
    },
    {
      "midi": 62,
      "hit": false,
      "t": 81932.4328541667,
      "d": 33.6537395833293,
      "v": 91
    },
    {
      "midi": 65,
      "hit": false,
      "t": 81932.4328541667,
      "d": 40.38448749999225,
      "v": 83
    },
    {
      "midi": 38,
      "hit": false,
      "t": 82153.58600000004,
      "d": 211.5377916666621,
      "v": 79
    },
    {
      "midi": 59,
      "hit": false,
      "t": 82376.66221666671,
      "d": 57.692124999986845,
      "v": 83
    },
    {
      "midi": 62,
      "hit": false,
      "t": 82379.5468229167,
      "d": 45.1921645833354,
      "v": 95
    },
    {
      "midi": 65,
      "hit": false,
      "t": 82381.46989375004,
      "d": 48.07677083332965,
      "v": 87
    },
    {
      "midi": 59,
      "hit": false,
      "t": 82841.0838229167,
      "d": 57.6921250000014,
      "v": 79
    },
    {
      "midi": 62,
      "hit": false,
      "t": 82843.00689375003,
      "d": 41.3460229166667,
      "v": 95
    },
    {
      "midi": 65,
      "hit": false,
      "t": 82845.89150000003,
      "d": 57.6921250000014,
      "v": 87
    },
    {
      "midi": 31,
      "hit": false,
      "t": 82845.89150000003,
      "d": 160.5764145833382,
      "v": 91
    },
    {
      "midi": 38,
      "hit": false,
      "t": 83076.66000000003,
      "d": 194.2301541666675,
      "v": 95
    },
    {
      "midi": 59,
      "hit": false,
      "t": 83307.42850000004,
      "d": 62.499802083329996,
      "v": 83
    },
    {
      "midi": 62,
      "hit": false,
      "t": 83309.35157083337,
      "d": 55.76905416666705,
      "v": 95
    },
    {
      "midi": 65,
      "hit": false,
      "t": 83312.23617708337,
      "d": 59.61519583333575,
      "v": 95
    },
    {
      "midi": 31,
      "hit": false,
      "t": 83768.96550000003,
      "d": 105.76889583331649,
      "v": 67
    },
    {
      "midi": 59,
      "hit": false,
      "t": 83773.77317708336,
      "d": 59.615195833321195,
      "v": 83
    },
    {
      "midi": 62,
      "hit": false,
      "t": 83778.58085416669,
      "d": 33.6537395833293,
      "v": 91
    },
    {
      "midi": 65,
      "hit": false,
      "t": 83778.58085416669,
      "d": 40.38448749999225,
      "v": 83
    },
    {
      "midi": 38,
      "hit": false,
      "t": 83999.73400000001,
      "d": 160.5764145833382,
      "v": 91
    },
    {
      "midi": 59,
      "hit": false,
      "t": 84222.81021666668,
      "d": 57.692124999986845,
      "v": 83
    },
    {
      "midi": 62,
      "hit": false,
      "t": 84225.69482291667,
      "d": 59.615195833321195,
      "v": 95
    },
    {
      "midi": 65,
      "hit": false,
      "t": 84227.61789375001,
      "d": 48.07677083332965,
      "v": 87
    },
    {
      "midi": 59,
      "hit": false,
      "t": 84687.23182291666,
      "d": 69.23054999999295,
      "v": 79
    },
    {
      "midi": 62,
      "hit": false,
      "t": 84689.15489374999,
      "d": 60.576731249995646,
      "v": 95
    },
    {
      "midi": 65,
      "hit": false,
      "t": 84692.03949999998,
      "d": 57.6921250000014,
      "v": 87
    },
    {
      "midi": 31,
      "hit": false,
      "t": 84692.03949999998,
      "d": 144.2303125000035,
      "v": 87
    },
    {
      "midi": 38,
      "hit": false,
      "t": 84922.80799999999,
      "d": 168.26869791666104,
      "v": 91
    },
    {
      "midi": 59,
      "hit": false,
      "t": 85153.57649999998,
      "d": 69.23054999999295,
      "v": 83
    },
    {
      "midi": 62,
      "hit": false,
      "t": 85155.49957083332,
      "d": 62.499802083329996,
      "v": 95
    },
    {
      "midi": 65,
      "hit": false,
      "t": 85158.38417708331,
      "d": 62.499802083329996,
      "v": 95
    },
    {
      "midi": 31,
      "hit": false,
      "t": 85615.11349999998,
      "d": 139.4226354166458,
      "v": 95
    },
    {
      "midi": 59,
      "hit": false,
      "t": 85619.9211770833,
      "d": 59.615195833321195,
      "v": 83
    },
    {
      "midi": 62,
      "hit": false,
      "t": 85624.72885416663,
      "d": 33.6537395833293,
      "v": 91
    },
    {
      "midi": 65,
      "hit": false,
      "t": 85624.72885416663,
      "d": 40.38448749999225,
      "v": 83
    },
    {
      "midi": 63,
      "hit": false,
      "t": 85845.88199999995,
      "d": 110.57657291665964,
      "v": 100
    },
    {
      "midi": 72,
      "hit": false,
      "t": 85845.88199999995,
      "d": 110.57657291665964,
      "v": 99
    },
    {
      "midi": 67,
      "hit": false,
      "t": 85845.88199999995,
      "d": 112.499643749994,
      "v": 105
    },
    {
      "midi": 48,
      "hit": false,
      "t": 85845.88199999995,
      "d": 117.30732083332259,
      "v": 100
    },
    {
      "midi": 36,
      "hit": false,
      "t": 85845.88199999995,
      "d": 136.53802916665154,
      "v": 107
    },
    {
      "midi": 51,
      "hit": false,
      "t": 86307.41899999994,
      "d": 179.80712291666714,
      "v": 99
    },
    {
      "midi": 55,
      "hit": false,
      "t": 86307.41899999994,
      "d": 179.80712291666714,
      "v": 99
    },
    {
      "midi": 60,
      "hit": false,
      "t": 86307.41899999994,
      "d": 184.61479999999574,
      "v": 95
    },
    {
      "midi": 36,
      "hit": false,
      "t": 86307.41899999994,
      "d": 189.42247708332434,
      "v": 97
    },
    {
      "midi": 60,
      "hit": false,
      "t": 88153.56699999992,
      "d": 208.65318541666784,
      "v": 102
    },
    {
      "midi": 38,
      "hit": false,
      "t": 88153.56699999992,
      "d": 211.5377916666621,
      "v": 94
    },
    {
      "midi": 56,
      "hit": false,
      "t": 88153.56699999992,
      "d": 216.3454687499907,
      "v": 105
    },
    {
      "midi": 65,
      "hit": false,
      "t": 88153.56699999992,
      "d": 218.26853958332504,
      "v": 103
    },
    {
      "midi": 55,
      "hit": false,
      "t": 89999.71499999991,
      "d": 155.76873749999504,
      "v": 103
    },
    {
      "midi": 63,
      "hit": false,
      "t": 89999.71499999991,
      "d": 174.999445833324,
      "v": 104
    },
    {
      "midi": 60,
      "hit": false,
      "t": 89999.71499999991,
      "d": 189.42247708332434,
      "v": 119
    },
    {
      "midi": 67,
      "hit": false,
      "t": 89999.71499999991,
      "d": 192.3070833333186,
      "v": 94
    },
    {
      "midi": 39,
      "hit": false,
      "t": 89999.71499999991,
      "d": 208.6531854166533,
      "v": 96
    },
    {
      "midi": 58,
      "hit": false,
      "t": 93230.4739999999,
      "d": 862.4972687499976,
      "v": 103
    },
    {
      "midi": 64,
      "hit": false,
      "t": 93230.4739999999,
      "d": 862.4972687499976,
      "v": 91
    },
    {
      "midi": 67,
      "hit": false,
      "t": 93230.4739999999,
      "d": 865.3818749999919,
      "v": 79
    },
    {
      "midi": 61,
      "hit": false,
      "t": 93230.4739999999,
      "d": 867.3049458333262,
      "v": 99
    },
    {
      "midi": 38,
      "hit": false,
      "t": 94153.5479999999,
      "d": 290.3836958333268,
      "v": 87
    },
    {
      "midi": 59,
      "hit": false,
      "t": 94381.43189374989,
      "d": 84.61511666666775,
      "v": 91
    },
    {
      "midi": 62,
      "hit": false,
      "t": 94384.31649999988,
      "d": 83.65358125000785,
      "v": 103
    },
    {
      "midi": 65,
      "hit": false,
      "t": 94384.31649999988,
      "d": 83.65358125000785,
      "v": 87
    },
    {
      "midi": 62,
      "hit": false,
      "t": 94838.16121666656,
      "d": 84.6151166666532,
      "v": 91
    },
    {
      "midi": 59,
      "hit": false,
      "t": 94841.04582291655,
      "d": 83.6535812499933,
      "v": 83
    },
    {
      "midi": 65,
      "hit": false,
      "t": 94845.85349999988,
      "d": 83.6535812499933,
      "v": 91
    },
    {
      "midi": 31,
      "hit": false,
      "t": 94845.85349999988,
      "d": 120.1919270833314,
      "v": 95
    },
    {
      "midi": 38,
      "hit": false,
      "t": 95076.62199999987,
      "d": 213.46086249999644,
      "v": 79
    },
    {
      "midi": 62,
      "hit": false,
      "t": 95302.58282291653,
      "d": 83.6535812499933,
      "v": 99
    },
    {
      "midi": 65,
      "hit": false,
      "t": 95304.50589374987,
      "d": 84.6151166666532,
      "v": 87
    },
    {
      "midi": 59,
      "hit": false,
      "t": 95307.39049999986,
      "d": 83.6535812499933,
      "v": 83
    },
    {
      "midi": 62,
      "hit": false,
      "t": 95766.04289374985,
      "d": 84.61511666666775,
      "v": 91
    },
    {
      "midi": 59,
      "hit": false,
      "t": 95768.92749999985,
      "d": 83.65358125000785,
      "v": 79
    },
    {
      "midi": 65,
      "hit": false,
      "t": 95768.92749999985,
      "d": 83.65358125000785,
      "v": 83
    },
    {
      "midi": 31,
      "hit": false,
      "t": 95768.92749999985,
      "d": 102.8842895833368,
      "v": 93
    },
    {
      "midi": 38,
      "hit": false,
      "t": 95999.69599999985,
      "d": 174.99944583333854,
      "v": 95
    },
    {
      "midi": 59,
      "hit": false,
      "t": 96230.46449999986,
      "d": 83.6535812499933,
      "v": 75
    },
    {
      "midi": 62,
      "hit": false,
      "t": 96230.46449999986,
      "d": 83.6535812499933,
      "v": 83
    },
    {
      "midi": 65,
      "hit": false,
      "t": 96230.46449999986,
      "d": 83.6535812499933,
      "v": 83
    },
    {
      "midi": 59,
      "hit": false,
      "t": 96692.00149999985,
      "d": 83.6535812499933,
      "v": 63
    },
    {
      "midi": 62,
      "hit": false,
      "t": 96692.00149999985,
      "d": 83.6535812499933,
      "v": 91
    },
    {
      "midi": 65,
      "hit": false,
      "t": 96692.00149999985,
      "d": 83.6535812499933,
      "v": 91
    },
    {
      "midi": 31,
      "hit": false,
      "t": 96692.00149999985,
      "d": 160.57641458332364,
      "v": 87
    },
    {
      "midi": 38,
      "hit": false,
      "t": 96922.76999999984,
      "d": 153.8456666666607,
      "v": 90
    },
    {
      "midi": 59,
      "hit": false,
      "t": 97143.92314583318,
      "d": 83.65358125000785,
      "v": 75
    },
    {
      "midi": 62,
      "hit": false,
      "t": 97145.84621666651,
      "d": 84.61511666666775,
      "v": 91
    },
    {
      "midi": 65,
      "hit": false,
      "t": 97153.53849999985,
      "d": 83.6535812499933,
      "v": 79
    },
    {
      "midi": 62,
      "hit": false,
      "t": 97607.38321666651,
      "d": 84.6151166666532,
      "v": 103
    },
    {
      "midi": 59,
      "hit": false,
      "t": 97610.2678229165,
      "d": 83.6535812499933,
      "v": 83
    },
    {
      "midi": 31,
      "hit": false,
      "t": 97615.07549999983,
      "d": 165.3840916666668,
      "v": 89
    },
    {
      "midi": 65,
      "hit": false,
      "t": 97619.88317708316,
      "d": 83.65358125000785,
      "v": 87
    },
    {
      "midi": 36,
      "hit": false,
      "t": 97845.84399999984,
      "d": 206.7301145833335,
      "v": 86
    },
    {
      "midi": 60,
      "hit": false,
      "t": 98068.9202166665,
      "d": 84.61511666666775,
      "v": 103
    },
    {
      "midi": 55,
      "hit": false,
      "t": 98071.8048229165,
      "d": 83.65358125000785,
      "v": 91
    },
    {
      "midi": 64,
      "hit": false,
      "t": 98073.72789374983,
      "d": 84.61511666666775,
      "v": 95
    },
    {
      "midi": 55,
      "hit": false,
      "t": 98538.14949999984,
      "d": 83.6535812499933,
      "v": 82
    },
    {
      "midi": 43,
      "hit": false,
      "t": 98538.14949999984,
      "d": 134.6149583333172,
      "v": 92
    },
    {
      "midi": 60,
      "hit": false,
      "t": 98540.07257083317,
      "d": 84.6151166666532,
      "v": 91
    },
    {
      "midi": 64,
      "hit": false,
      "t": 98544.8802479165,
      "d": 84.6151166666532,
      "v": 83
    },
    {
      "midi": 36,
      "hit": false,
      "t": 98768.91799999983,
      "d": 158.65334375000384,
      "v": 92
    },
    {
      "midi": 55,
      "hit": false,
      "t": 98999.68649999984,
      "d": 83.65358125000785,
      "v": 79
    },
    {
      "midi": 60,
      "hit": false,
      "t": 99001.60957083317,
      "d": 84.61511666666775,
      "v": 91
    },
    {
      "midi": 64,
      "hit": false,
      "t": 99001.60957083317,
      "d": 84.61511666666775,
      "v": 91
    },
    {
      "midi": 55,
      "hit": false,
      "t": 99456.4158229165,
      "d": 83.6535812499933,
      "v": 87
    },
    {
      "midi": 60,
      "hit": false,
      "t": 99458.33889374984,
      "d": 84.6151166666532,
      "v": 99
    },
    {
      "midi": 64,
      "hit": false,
      "t": 99461.22349999983,
      "d": 83.6535812499933,
      "v": 87
    },
    {
      "midi": 43,
      "hit": false,
      "t": 99461.22349999983,
      "d": 122.11499791666574,
      "v": 51
    },
    {
      "midi": 36,
      "hit": false,
      "t": 99691.99199999984,
      "d": 194.2301541666675,
      "v": 91
    },
    {
      "midi": 55,
      "hit": false,
      "t": 99913.14514583317,
      "d": 83.6535812499933,
      "v": 92
    },
    {
      "midi": 64,
      "hit": false,
      "t": 99917.9528229165,
      "d": 83.6535812499933,
      "v": 92
    },
    {
      "midi": 60,
      "hit": false,
      "t": 99919.87589374984,
      "d": 84.6151166666532,
      "v": 92
    },
    {
      "midi": 55,
      "hit": false,
      "t": 100381.41289374982,
      "d": 84.61511666666775,
      "v": 92
    },
    {
      "midi": 60,
      "hit": false,
      "t": 100384.29749999981,
      "d": 83.65358125000785,
      "v": 92
    },
    {
      "midi": 64,
      "hit": false,
      "t": 100384.29749999981,
      "d": 83.65358125000785,
      "v": 92
    },
    {
      "midi": 43,
      "hit": false,
      "t": 100384.29749999981,
      "d": 126.9226750000089,
      "v": 75
    },
    {
      "midi": 36,
      "hit": false,
      "t": 100615.06599999982,
      "d": 192.30708333333314,
      "v": 83
    },
    {
      "midi": 55,
      "hit": false,
      "t": 100841.02682291648,
      "d": 83.6535812499933,
      "v": 92
    },
    {
      "midi": 64,
      "hit": false,
      "t": 100842.94989374981,
      "d": 84.6151166666532,
      "v": 92
    },
    {
      "midi": 60,
      "hit": false,
      "t": 100845.83449999981,
      "d": 83.6535812499933,
      "v": 92
    },
    {
      "midi": 55,
      "hit": false,
      "t": 101307.3714999998,
      "d": 83.6535812499933,
      "v": 92
    },
    {
      "midi": 60,
      "hit": false,
      "t": 101307.3714999998,
      "d": 83.6535812499933,
      "v": 92
    },
    {
      "midi": 64,
      "hit": false,
      "t": 101307.3714999998,
      "d": 83.6535812499933,
      "v": 92
    },
    {
      "midi": 43,
      "hit": false,
      "t": 101307.3714999998,
      "d": 141.3457062499947,
      "v": 55
    },
    {
      "midi": 38,
      "hit": false,
      "t": 101538.1399999998,
      "d": 184.61479999999574,
      "v": 87
    },
    {
      "midi": 57,
      "hit": false,
      "t": 101768.90849999979,
      "d": 83.6535812499933,
      "v": 92
    },
    {
      "midi": 60,
      "hit": false,
      "t": 101768.90849999979,
      "d": 83.6535812499933,
      "v": 92
    },
    {
      "midi": 66,
      "hit": false,
      "t": 101773.71617708312,
      "d": 83.6535812499933,
      "v": 92
    },
    {
      "midi": 57,
      "hit": false,
      "t": 102230.44549999977,
      "d": 83.6535812499933,
      "v": 92
    },
    {
      "midi": 60,
      "hit": false,
      "t": 102230.44549999977,
      "d": 83.6535812499933,
      "v": 92
    },
    {
      "midi": 66,
      "hit": false,
      "t": 102230.44549999977,
      "d": 83.6535812499933,
      "v": 92
    },
    {
      "midi": 45,
      "hit": false,
      "t": 102230.44549999977,
      "d": 149.0379895833321,
      "v": 91
    },
    {
      "midi": 38,
      "hit": false,
      "t": 102461.21399999977,
      "d": 256.72995625001204,
      "v": 90
    },
    {
      "midi": 57,
      "hit": false,
      "t": 102691.98249999978,
      "d": 83.65358125000785,
      "v": 92
    },
    {
      "midi": 60,
      "hit": false,
      "t": 102691.98249999978,
      "d": 83.65358125000785,
      "v": 92
    },
    {
      "midi": 66,
      "hit": false,
      "t": 102691.98249999978,
      "d": 83.65358125000785,
      "v": 92
    },
    {
      "midi": 57,
      "hit": false,
      "t": 103150.63489374978,
      "d": 84.61511666666775,
      "v": 92
    },
    {
      "midi": 60,
      "hit": false,
      "t": 103153.51949999978,
      "d": 83.65358125000785,
      "v": 92
    },
    {
      "midi": 66,
      "hit": false,
      "t": 103153.51949999978,
      "d": 83.65358125000785,
      "v": 92
    },
    {
      "midi": 45,
      "hit": false,
      "t": 103153.51949999978,
      "d": 117.30732083333714,
      "v": 95
    },
    {
      "midi": 38,
      "hit": false,
      "t": 103384.28799999978,
      "d": 165.3840916666668,
      "v": 87
    },
    {
      "midi": 57,
      "hit": false,
      "t": 103615.05649999979,
      "d": 83.6535812499933,
      "v": 92
    },
    {
      "midi": 60,
      "hit": false,
      "t": 103615.05649999979,
      "d": 83.6535812499933,
      "v": 92
    },
    {
      "midi": 66,
      "hit": false,
      "t": 103615.05649999979,
      "d": 83.6535812499933,
      "v": 92
    },
    {
      "midi": 57,
      "hit": false,
      "t": 104076.59349999978,
      "d": 83.6535812499933,
      "v": 88
    },
    {
      "midi": 60,
      "hit": false,
      "t": 104076.59349999978,
      "d": 83.6535812499933,
      "v": 99
    },
    {
      "midi": 66,
      "hit": false,
      "t": 104076.59349999978,
      "d": 83.6535812499933,
      "v": 99
    },
    {
      "midi": 45,
      "hit": false,
      "t": 104076.59349999978,
      "d": 102.88428958332224,
      "v": 91
    },
    {
      "midi": 38,
      "hit": false,
      "t": 104307.36199999978,
      "d": 203.84550833333924,
      "v": 87
    },
    {
      "midi": 57,
      "hit": false,
      "t": 104538.13049999978,
      "d": 83.6535812499933,
      "v": 92
    },
    {
      "midi": 60,
      "hit": false,
      "t": 104538.13049999978,
      "d": 83.6535812499933,
      "v": 92
    },
    {
      "midi": 66,
      "hit": false,
      "t": 104538.13049999978,
      "d": 83.6535812499933,
      "v": 91
    },
    {
      "midi": 57,
      "hit": false,
      "t": 104999.66749999978,
      "d": 83.6535812499933,
      "v": 76
    },
    {
      "midi": 60,
      "hit": false,
      "t": 104999.66749999978,
      "d": 83.6535812499933,
      "v": 97
    },
    {
      "midi": 66,
      "hit": false,
      "t": 104999.66749999978,
      "d": 83.6535812499933,
      "v": 98
    },
    {
      "midi": 45,
      "hit": false,
      "t": 104999.66749999978,
      "d": 141.3457062499947,
      "v": 87
    },
    {
      "midi": 57,
      "hit": false,
      "t": 105230.43599999977,
      "d": 102.8842895833368,
      "v": 98
    },
    {
      "midi": 60,
      "hit": false,
      "t": 105230.43599999977,
      "d": 102.8842895833368,
      "v": 99
    },
    {
      "midi": 66,
      "hit": false,
      "t": 105230.43599999977,
      "d": 117.30732083333714,
      "v": 91
    },
    {
      "midi": 38,
      "hit": false,
      "t": 105230.43599999977,
      "d": 144.2303125000035,
      "v": 95
    },
    {
      "midi": 38,
      "hit": false,
      "t": 109038.11624999977,
      "d": 266.34531041666924,
      "v": 86
    },
    {
      "midi": 59,
      "hit": false,
      "t": 109150.61589374977,
      "d": 84.61511666666775,
      "v": 91
    },
    {
      "midi": 62,
      "hit": false,
      "t": 109153.50049999976,
      "d": 83.65358125000785,
      "v": 103
    },
    {
      "midi": 65,
      "hit": false,
      "t": 109153.50049999976,
      "d": 83.65358125000785,
      "v": 87
    },
    {
      "midi": 62,
      "hit": false,
      "t": 109607.34521666644,
      "d": 84.6151166666532,
      "v": 91
    },
    {
      "midi": 59,
      "hit": false,
      "t": 109610.22982291643,
      "d": 83.6535812499933,
      "v": 83
    },
    {
      "midi": 65,
      "hit": false,
      "t": 109615.03749999976,
      "d": 83.6535812499933,
      "v": 91
    },
    {
      "midi": 31,
      "hit": false,
      "t": 109615.03749999976,
      "d": 129.8072812499886,
      "v": 90
    },
    {
      "midi": 38,
      "hit": false,
      "t": 109845.80599999975,
      "d": 206.7301145833335,
      "v": 83
    },
    {
      "midi": 62,
      "hit": false,
      "t": 110071.76682291641,
      "d": 83.6535812499933,
      "v": 99
    },
    {
      "midi": 65,
      "hit": false,
      "t": 110073.68989374975,
      "d": 84.6151166666532,
      "v": 87
    },
    {
      "midi": 59,
      "hit": false,
      "t": 110076.57449999974,
      "d": 83.6535812499933,
      "v": 83
    },
    {
      "midi": 62,
      "hit": false,
      "t": 110535.22689374973,
      "d": 84.61511666666775,
      "v": 91
    },
    {
      "midi": 59,
      "hit": false,
      "t": 110538.11149999972,
      "d": 83.65358125000785,
      "v": 79
    },
    {
      "midi": 65,
      "hit": false,
      "t": 110538.11149999972,
      "d": 83.65358125000785,
      "v": 83
    },
    {
      "midi": 31,
      "hit": false,
      "t": 110538.11149999972,
      "d": 124.99960416667454,
      "v": 91
    },
    {
      "midi": 38,
      "hit": false,
      "t": 110768.87999999973,
      "d": 182.6917291666614,
      "v": 87
    },
    {
      "midi": 59,
      "hit": false,
      "t": 110999.64849999972,
      "d": 83.6535812499933,
      "v": 75
    },
    {
      "midi": 62,
      "hit": false,
      "t": 110999.64849999972,
      "d": 83.6535812499933,
      "v": 83
    },
    {
      "midi": 65,
      "hit": false,
      "t": 110999.64849999972,
      "d": 83.6535812499933,
      "v": 83
    },
    {
      "midi": 59,
      "hit": false,
      "t": 111461.18549999972,
      "d": 83.6535812499933,
      "v": 63
    },
    {
      "midi": 62,
      "hit": false,
      "t": 111461.18549999972,
      "d": 83.6535812499933,
      "v": 91
    },
    {
      "midi": 65,
      "hit": false,
      "t": 111461.18549999972,
      "d": 83.6535812499933,
      "v": 91
    },
    {
      "midi": 31,
      "hit": false,
      "t": 111461.18549999972,
      "d": 122.11499791666574,
      "v": 95
    },
    {
      "midi": 38,
      "hit": false,
      "t": 111691.95399999972,
      "d": 184.61479999999574,
      "v": 95
    },
    {
      "midi": 59,
      "hit": false,
      "t": 111913.10714583306,
      "d": 83.65358125000785,
      "v": 75
    },
    {
      "midi": 62,
      "hit": false,
      "t": 111915.03021666639,
      "d": 84.61511666666775,
      "v": 91
    },
    {
      "midi": 65,
      "hit": false,
      "t": 111922.72249999973,
      "d": 83.6535812499933,
      "v": 79
    },
    {
      "midi": 62,
      "hit": false,
      "t": 112376.56721666639,
      "d": 84.6151166666532,
      "v": 103
    },
    {
      "midi": 59,
      "hit": false,
      "t": 112379.45182291638,
      "d": 83.6535812499933,
      "v": 83
    },
    {
      "midi": 31,
      "hit": false,
      "t": 112384.25949999971,
      "d": 131.7303520833375,
      "v": 88
    },
    {
      "midi": 65,
      "hit": false,
      "t": 112389.06717708304,
      "d": 83.65358125000785,
      "v": 87
    },
    {
      "midi": 36,
      "hit": false,
      "t": 112615.02799999971,
      "d": 237.49924791666854,
      "v": 86
    },
    {
      "midi": 60,
      "hit": false,
      "t": 112838.10421666638,
      "d": 84.61511666666775,
      "v": 103
    },
    {
      "midi": 55,
      "hit": false,
      "t": 112840.98882291638,
      "d": 83.65358125000785,
      "v": 91
    },
    {
      "midi": 64,
      "hit": false,
      "t": 112842.91189374971,
      "d": 84.61511666666775,
      "v": 95
    },
    {
      "midi": 55,
      "hit": false,
      "t": 113307.33349999972,
      "d": 83.6535812499933,
      "v": 75
    },
    {
      "midi": 43,
      "hit": false,
      "t": 113307.33349999972,
      "d": 163.4610208333179,
      "v": 77
    },
    {
      "midi": 60,
      "hit": false,
      "t": 113309.25657083305,
      "d": 84.6151166666532,
      "v": 91
    },
    {
      "midi": 64,
      "hit": false,
      "t": 113314.06424791638,
      "d": 84.6151166666532,
      "v": 83
    },
    {
      "midi": 36,
      "hit": false,
      "t": 113538.10199999971,
      "d": 254.8068854166777,
      "v": 87
    },
    {
      "midi": 55,
      "hit": false,
      "t": 113768.87049999971,
      "d": 83.65358125000785,
      "v": 79
    },
    {
      "midi": 60,
      "hit": false,
      "t": 113770.79357083305,
      "d": 84.61511666666775,
      "v": 91
    },
    {
      "midi": 64,
      "hit": false,
      "t": 113770.79357083305,
      "d": 84.61511666666775,
      "v": 91
    },
    {
      "midi": 55,
      "hit": false,
      "t": 114225.59982291638,
      "d": 83.6535812499933,
      "v": 87
    },
    {
      "midi": 60,
      "hit": false,
      "t": 114227.52289374972,
      "d": 84.6151166666532,
      "v": 99
    },
    {
      "midi": 64,
      "hit": false,
      "t": 114230.40749999971,
      "d": 83.6535812499933,
      "v": 87
    },
    {
      "midi": 43,
      "hit": false,
      "t": 114230.40749999971,
      "d": 141.3457062499947,
      "v": 79
    },
    {
      "midi": 29,
      "hit": false,
      "t": 114461.1759999997,
      "d": 177.8840520833328,
      "v": 91
    },
    {
      "midi": 60,
      "hit": false,
      "t": 114691.9444999997,
      "d": 62.499802083329996,
      "v": 107
    },
    {
      "midi": 57,
      "hit": false,
      "t": 114691.9444999997,
      "d": 72.11515625000175,
      "v": 107
    },
    {
      "midi": 65,
      "hit": false,
      "t": 114691.9444999997,
      "d": 93.26893541666504,
      "v": 95
    },
    {
      "midi": 60,
      "hit": false,
      "t": 115153.4814999997,
      "d": 64.42287291666435,
      "v": 107
    },
    {
      "midi": 65,
      "hit": false,
      "t": 115153.4814999997,
      "d": 72.11515625000175,
      "v": 91
    },
    {
      "midi": 57,
      "hit": false,
      "t": 115153.4814999997,
      "d": 74.0382270833361,
      "v": 103
    },
    {
      "midi": 38,
      "hit": false,
      "t": 115384.24999999971,
      "d": 280.7683416666696,
      "v": 95
    },
    {
      "midi": 53,
      "hit": false,
      "t": 115615.01849999971,
      "d": 78.8459041666647,
      "v": 99
    },
    {
      "midi": 57,
      "hit": false,
      "t": 115615.01849999971,
      "d": 91.3458645833307,
      "v": 107
    },
    {
      "midi": 62,
      "hit": false,
      "t": 115615.01849999971,
      "d": 105.76889583333104,
      "v": 91
    },
    {
      "midi": 39,
      "hit": false,
      "t": 115845.7869999997,
      "d": 211.5377916666621,
      "v": 95
    },
    {
      "midi": 54,
      "hit": false,
      "t": 116076.5554999997,
      "d": 69.23054999999295,
      "v": 92
    },
    {
      "midi": 57,
      "hit": false,
      "t": 116076.5554999997,
      "d": 76.92283333333035,
      "v": 92
    },
    {
      "midi": 60,
      "hit": false,
      "t": 116076.5554999997,
      "d": 76.92283333333035,
      "v": 79
    },
    {
      "midi": 63,
      "hit": false,
      "t": 116076.5554999997,
      "d": 98.07661249999364,
      "v": 95
    },
    {
      "midi": 40,
      "hit": false,
      "t": 116307.32399999969,
      "d": 266.34531041666924,
      "v": 95
    },
    {
      "midi": 55,
      "hit": false,
      "t": 116538.0924999997,
      "d": 64.42287291666435,
      "v": 99
    },
    {
      "midi": 60,
      "hit": false,
      "t": 116538.0924999997,
      "d": 74.0382270833361,
      "v": 99
    },
    {
      "midi": 64,
      "hit": false,
      "t": 116538.0924999997,
      "d": 83.65358125000785,
      "v": 95
    },
    {
      "midi": 60,
      "hit": false,
      "t": 116999.6294999997,
      "d": 57.6921250000014,
      "v": 92
    },
    {
      "midi": 55,
      "hit": false,
      "t": 116999.6294999997,
      "d": 69.2305500000075,
      "v": 92
    },
    {
      "midi": 64,
      "hit": false,
      "t": 116999.6294999997,
      "d": 69.2305500000075,
      "v": 93
    },
    {
      "midi": 60,
      "hit": false,
      "t": 117230.39799999971,
      "d": 76.92283333333035,
      "v": 91
    },
    {
      "midi": 64,
      "hit": false,
      "t": 117230.39799999971,
      "d": 81.73051041665894,
      "v": 95
    },
    {
      "midi": 69,
      "hit": false,
      "t": 117230.39799999971,
      "d": 122.11499791666574,
      "v": 99
    },
    {
      "midi": 33,
      "hit": false,
      "t": 117230.39799999971,
      "d": 129.80728125000314,
      "v": 98
    },
    {
      "midi": 62,
      "hit": false,
      "t": 118153.47199999972,
      "d": 112.499643749994,
      "v": 103
    },
    {
      "midi": 65,
      "hit": false,
      "t": 118153.47199999972,
      "d": 117.30732083332259,
      "v": 111
    },
    {
      "midi": 57,
      "hit": false,
      "t": 118153.47199999972,
      "d": 120.19192708331684,
      "v": 107
    },
    {
      "midi": 26,
      "hit": false,
      "t": 118153.47199999972,
      "d": 141.34570624998014,
      "v": 104
    },
    {
      "midi": 31,
      "hit": false,
      "t": 119076.5459999997,
      "d": 131.7303520833375,
      "v": 101
    },
    {
      "midi": 50,
      "hit": false,
      "t": 119076.5459999997,
      "d": 131.7303520833375,
      "v": 106
    },
    {
      "midi": 55,
      "hit": false,
      "t": 119076.5459999997,
      "d": 131.7303520833375,
      "v": 100
    },
    {
      "midi": 59,
      "hit": false,
      "t": 119076.5459999997,
      "d": 131.7303520833375,
      "v": 95
    },
    {
      "midi": 36,
      "hit": false,
      "t": 119999.6199999997,
      "d": 131.7303520833375,
      "v": 111
    },
    {
      "midi": 52,
      "hit": false,
      "t": 119999.6199999997,
      "d": 131.7303520833375,
      "v": 104
    },
    {
      "midi": 55,
      "hit": false,
      "t": 119999.6199999997,
      "d": 131.7303520833375,
      "v": 99
    },
    {
      "midi": 60,
      "hit": false,
      "t": 119999.6199999997,
      "d": 131.7303520833375,
      "v": 105
    },
    {
      "midi": 38,
      "hit": false,
      "t": 121845.7679999997,
      "d": 83.6535812499933,
      "v": 87
    },
    {
      "midi": 59,
      "hit": false,
      "t": 122073.6518937497,
      "d": 84.61511666666775,
      "v": 91
    },
    {
      "midi": 62,
      "hit": false,
      "t": 122076.5364999997,
      "d": 83.65358125000785,
      "v": 103
    },
    {
      "midi": 65,
      "hit": false,
      "t": 122076.5364999997,
      "d": 83.65358125000785,
      "v": 87
    },
    {
      "midi": 31,
      "hit": false,
      "t": 122304.42039374971,
      "d": 144.2303125000035,
      "v": 95
    },
    {
      "midi": 62,
      "hit": false,
      "t": 122530.38121666638,
      "d": 84.6151166666532,
      "v": 91
    },
    {
      "midi": 59,
      "hit": false,
      "t": 122533.26582291638,
      "d": 83.6535812499933,
      "v": 83
    },
    {
      "midi": 65,
      "hit": false,
      "t": 122538.07349999971,
      "d": 83.6535812499933,
      "v": 91
    },
    {
      "midi": 38,
      "hit": false,
      "t": 122770.76507083303,
      "d": 123.0765333333402,
      "v": 95
    },
    {
      "midi": 62,
      "hit": false,
      "t": 122994.80282291638,
      "d": 83.6535812499933,
      "v": 99
    },
    {
      "midi": 65,
      "hit": false,
      "t": 122996.72589374971,
      "d": 84.6151166666532,
      "v": 87
    },
    {
      "midi": 59,
      "hit": false,
      "t": 122999.6104999997,
      "d": 83.6535812499933,
      "v": 83
    },
    {
      "midi": 31,
      "hit": false,
      "t": 123235.18667708302,
      "d": 122.11499791666574,
      "v": 91
    },
    {
      "midi": 62,
      "hit": false,
      "t": 123458.26289374969,
      "d": 84.61511666666775,
      "v": 91
    },
    {
      "midi": 59,
      "hit": false,
      "t": 123461.14749999969,
      "d": 83.65358125000785,
      "v": 79
    },
    {
      "midi": 65,
      "hit": false,
      "t": 123461.14749999969,
      "d": 83.65358125000785,
      "v": 83
    },
    {
      "midi": 38,
      "hit": false,
      "t": 123691.91599999969,
      "d": 124.99960416665999,
      "v": 91
    },
    {
      "midi": 59,
      "hit": false,
      "t": 123922.68449999968,
      "d": 83.6535812499933,
      "v": 75
    },
    {
      "midi": 62,
      "hit": false,
      "t": 123922.68449999968,
      "d": 83.6535812499933,
      "v": 83
    },
    {
      "midi": 65,
      "hit": false,
      "t": 123922.68449999968,
      "d": 83.6535812499933,
      "v": 83
    },
    {
      "midi": 31,
      "hit": false,
      "t": 124150.56839374968,
      "d": 142.30724166666914,
      "v": 99
    },
    {
      "midi": 59,
      "hit": false,
      "t": 124384.22149999968,
      "d": 83.6535812499933,
      "v": 63
    },
    {
      "midi": 62,
      "hit": false,
      "t": 124384.22149999968,
      "d": 83.6535812499933,
      "v": 91
    },
    {
      "midi": 65,
      "hit": false,
      "t": 124384.22149999968,
      "d": 83.6535812499933,
      "v": 91
    },
    {
      "midi": 38,
      "hit": false,
      "t": 124612.10539374968,
      "d": 161.5379499999981,
      "v": 87
    },
    {
      "midi": 59,
      "hit": false,
      "t": 124836.143145833,
      "d": 83.65358125000785,
      "v": 75
    },
    {
      "midi": 62,
      "hit": false,
      "t": 124838.06621666634,
      "d": 84.61511666666775,
      "v": 91
    },
    {
      "midi": 65,
      "hit": false,
      "t": 124845.75849999968,
      "d": 83.6535812499933,
      "v": 79
    },
    {
      "midi": 31,
      "hit": false,
      "t": 125076.52699999967,
      "d": 174.99944583333854,
      "v": 95
    },
    {
      "midi": 62,
      "hit": false,
      "t": 125299.60321666634,
      "d": 84.61511666666775,
      "v": 103
    },
    {
      "midi": 59,
      "hit": false,
      "t": 125302.48782291633,
      "d": 83.65358125000785,
      "v": 83
    },
    {
      "midi": 65,
      "hit": false,
      "t": 125312.103177083,
      "d": 83.65358125000785,
      "v": 87
    },
    {
      "midi": 36,
      "hit": false,
      "t": 125538.06399999968,
      "d": 134.61495833333174,
      "v": 99
    },
    {
      "midi": 60,
      "hit": false,
      "t": 125761.14021666635,
      "d": 84.61511666666775,
      "v": 103
    },
    {
      "midi": 55,
      "hit": false,
      "t": 125764.02482291634,
      "d": 83.65358125000785,
      "v": 91
    },
    {
      "midi": 64,
      "hit": false,
      "t": 125765.94789374968,
      "d": 84.61511666666775,
      "v": 95
    },
    {
      "midi": 31,
      "hit": false,
      "t": 125987.10103958301,
      "d": 124.99960416665999,
      "v": 91
    },
    {
      "midi": 55,
      "hit": false,
      "t": 126230.36949999967,
      "d": 83.6535812499933,
      "v": 75
    },
    {
      "midi": 60,
      "hit": false,
      "t": 126232.292570833,
      "d": 84.6151166666532,
      "v": 91
    },
    {
      "midi": 64,
      "hit": false,
      "t": 126237.10024791633,
      "d": 84.6151166666532,
      "v": 83
    },
    {
      "midi": 36,
      "hit": false,
      "t": 126461.13799999964,
      "d": 120.1919270833314,
      "v": 91
    },
    {
      "midi": 55,
      "hit": false,
      "t": 126691.90649999963,
      "d": 83.65358125000785,
      "v": 79
    },
    {
      "midi": 60,
      "hit": false,
      "t": 126693.82957083297,
      "d": 84.61511666666775,
      "v": 91
    },
    {
      "midi": 64,
      "hit": false,
      "t": 126693.82957083297,
      "d": 84.61511666666775,
      "v": 91
    },
    {
      "midi": 31,
      "hit": false,
      "t": 126917.8673229163,
      "d": 131.7303520833375,
      "v": 99
    },
    {
      "midi": 55,
      "hit": false,
      "t": 127148.6358229163,
      "d": 83.6535812499933,
      "v": 87
    },
    {
      "midi": 60,
      "hit": false,
      "t": 127150.55889374964,
      "d": 84.6151166666532,
      "v": 99
    },
    {
      "midi": 64,
      "hit": false,
      "t": 127153.44349999963,
      "d": 83.6535812499933,
      "v": 87
    },
    {
      "midi": 36,
      "hit": false,
      "t": 127386.13507083296,
      "d": 99.0381479166681,
      "v": 95
    },
    {
      "midi": 55,
      "hit": false,
      "t": 127605.36514583296,
      "d": 83.6535812499933,
      "v": 92
    },
    {
      "midi": 64,
      "hit": false,
      "t": 127610.17282291628,
      "d": 83.6535812499933,
      "v": 92
    },
    {
      "midi": 60,
      "hit": false,
      "t": 127612.09589374962,
      "d": 84.6151166666532,
      "v": 92
    },
    {
      "midi": 31,
      "hit": false,
      "t": 127840.94132291627,
      "d": 136.5380291666661,
      "v": 95
    },
    {
      "midi": 55,
      "hit": false,
      "t": 128073.63289374961,
      "d": 84.61511666666775,
      "v": 92
    },
    {
      "midi": 60,
      "hit": false,
      "t": 128076.51749999961,
      "d": 83.65358125000785,
      "v": 92
    },
    {
      "midi": 64,
      "hit": false,
      "t": 128076.51749999961,
      "d": 83.65358125000785,
      "v": 92
    },
    {
      "midi": 36,
      "hit": false,
      "t": 128292.86296874961,
      "d": 199.0378312499961,
      "v": 91
    },
    {
      "midi": 55,
      "hit": false,
      "t": 128533.24682291628,
      "d": 83.6535812499933,
      "v": 92
    },
    {
      "midi": 64,
      "hit": false,
      "t": 128535.16989374961,
      "d": 84.6151166666532,
      "v": 92
    },
    {
      "midi": 60,
      "hit": false,
      "t": 128538.0544999996,
      "d": 83.6535812499933,
      "v": 92
    },
    {
      "midi": 31,
      "hit": false,
      "t": 128764.01532291627,
      "d": 144.2303125000035,
      "v": 91
    },
    {
      "midi": 55,
      "hit": false,
      "t": 128999.5914999996,
      "d": 83.6535812499933,
      "v": 92
    },
    {
      "midi": 60,
      "hit": false,
      "t": 128999.5914999996,
      "d": 83.6535812499933,
      "v": 92
    },
    {
      "midi": 64,
      "hit": false,
      "t": 128999.5914999996,
      "d": 83.6535812499933,
      "v": 92
    },
    {
      "midi": 38,
      "hit": false,
      "t": 129230.3599999996,
      "d": 120.1919270833314,
      "v": 79
    },
    {
      "midi": 57,
      "hit": false,
      "t": 129461.12849999958,
      "d": 83.6535812499933,
      "v": 92
    },
    {
      "midi": 60,
      "hit": false,
      "t": 129461.12849999958,
      "d": 83.6535812499933,
      "v": 92
    },
    {
      "midi": 66,
      "hit": false,
      "t": 129465.93617708291,
      "d": 83.6535812499933,
      "v": 92
    },
    {
      "midi": 33,
      "hit": false,
      "t": 129689.01239374957,
      "d": 139.42263541666034,
      "v": 91
    },
    {
      "midi": 57,
      "hit": false,
      "t": 129922.66549999957,
      "d": 83.6535812499933,
      "v": 92
    },
    {
      "midi": 60,
      "hit": false,
      "t": 129922.66549999957,
      "d": 83.6535812499933,
      "v": 92
    },
    {
      "midi": 66,
      "hit": false,
      "t": 129922.66549999957,
      "d": 83.6535812499933,
      "v": 92
    },
    {
      "midi": 38,
      "hit": false,
      "t": 130153.43399999956,
      "d": 107.6919666666654,
      "v": 87
    },
    {
      "midi": 57,
      "hit": false,
      "t": 130384.20249999956,
      "d": 83.6535812499933,
      "v": 92
    },
    {
      "midi": 60,
      "hit": false,
      "t": 130384.20249999956,
      "d": 83.6535812499933,
      "v": 92
    },
    {
      "midi": 66,
      "hit": false,
      "t": 130384.20249999956,
      "d": 83.6535812499933,
      "v": 92
    },
    {
      "midi": 33,
      "hit": false,
      "t": 130621.70174791622,
      "d": 161.5379499999981,
      "v": 95
    },
    {
      "midi": 57,
      "hit": false,
      "t": 130842.85489374955,
      "d": 84.61511666666775,
      "v": 92
    },
    {
      "midi": 60,
      "hit": false,
      "t": 130845.73949999954,
      "d": 83.65358125000785,
      "v": 92
    },
    {
      "midi": 66,
      "hit": false,
      "t": 130845.73949999954,
      "d": 83.65358125000785,
      "v": 92
    },
    {
      "midi": 38,
      "hit": false,
      "t": 131076.50799999957,
      "d": 117.30732083332259,
      "v": 87
    },
    {
      "midi": 57,
      "hit": false,
      "t": 131307.27649999954,
      "d": 83.6535812499933,
      "v": 92
    },
    {
      "midi": 60,
      "hit": false,
      "t": 131307.27649999954,
      "d": 83.6535812499933,
      "v": 92
    },
    {
      "midi": 66,
      "hit": false,
      "t": 131307.27649999954,
      "d": 83.6535812499933,
      "v": 92
    },
    {
      "midi": 33,
      "hit": false,
      "t": 131538.04499999955,
      "d": 179.8071229166526,
      "v": 91
    },
    {
      "midi": 57,
      "hit": false,
      "t": 131768.81349999952,
      "d": 83.6535812499933,
      "v": 88
    },
    {
      "midi": 60,
      "hit": false,
      "t": 131768.81349999952,
      "d": 83.6535812499933,
      "v": 99
    },
    {
      "midi": 66,
      "hit": false,
      "t": 131768.81349999952,
      "d": 83.6535812499933,
      "v": 99
    },
    {
      "midi": 38,
      "hit": false,
      "t": 131999.58199999953,
      "d": 174.999445833324,
      "v": 87
    },
    {
      "midi": 57,
      "hit": false,
      "t": 132230.3504999995,
      "d": 83.6535812499933,
      "v": 92
    },
    {
      "midi": 60,
      "hit": false,
      "t": 132230.3504999995,
      "d": 83.6535812499933,
      "v": 92
    },
    {
      "midi": 66,
      "hit": false,
      "t": 132230.3504999995,
      "d": 83.6535812499933,
      "v": 91
    },
    {
      "midi": 33,
      "hit": false,
      "t": 132461.1189999995,
      "d": 136.5380291666661,
      "v": 96
    },
    {
      "midi": 57,
      "hit": false,
      "t": 132691.88749999952,
      "d": 83.6535812499933,
      "v": 76
    },
    {
      "midi": 60,
      "hit": false,
      "t": 132691.88749999952,
      "d": 83.6535812499933,
      "v": 97
    },
    {
      "midi": 66,
      "hit": false,
      "t": 132691.88749999952,
      "d": 83.6535812499933,
      "v": 98
    },
    {
      "midi": 57,
      "hit": false,
      "t": 132922.65599999952,
      "d": 102.8842895833368,
      "v": 98
    },
    {
      "midi": 60,
      "hit": false,
      "t": 132922.65599999952,
      "d": 102.8842895833368,
      "v": 99
    },
    {
      "midi": 66,
      "hit": false,
      "t": 132922.65599999952,
      "d": 117.30732083332259,
      "v": 91
    },
    {
      "midi": 38,
      "hit": false,
      "t": 132922.65599999952,
      "d": 129.8072812499886,
      "v": 96
    },
    {
      "midi": 38,
      "hit": false,
      "t": 136614.95199999952,
      "d": 83.6535812499933,
      "v": 87
    },
    {
      "midi": 59,
      "hit": false,
      "t": 136842.83589374952,
      "d": 84.6151166666823,
      "v": 91
    },
    {
      "midi": 62,
      "hit": false,
      "t": 136845.72049999953,
      "d": 83.6535812499933,
      "v": 103
    },
    {
      "midi": 65,
      "hit": false,
      "t": 136845.72049999953,
      "d": 83.6535812499933,
      "v": 87
    },
    {
      "midi": 31,
      "hit": false,
      "t": 137073.60439374953,
      "d": 144.2303125000035,
      "v": 95
    },
    {
      "midi": 62,
      "hit": false,
      "t": 137299.5652166662,
      "d": 84.6151166666823,
      "v": 91
    },
    {
      "midi": 59,
      "hit": false,
      "t": 137302.4498229162,
      "d": 83.6535812499933,
      "v": 83
    },
    {
      "midi": 65,
      "hit": false,
      "t": 137307.25749999954,
      "d": 83.6535812499933,
      "v": 91
    },
    {
      "midi": 38,
      "hit": false,
      "t": 137539.94907083287,
      "d": 123.0765333333402,
      "v": 95
    },
    {
      "midi": 62,
      "hit": false,
      "t": 137763.9868229162,
      "d": 83.6535812499933,
      "v": 99
    },
    {
      "midi": 65,
      "hit": false,
      "t": 137765.90989374951,
      "d": 84.6151166666823,
      "v": 87
    },
    {
      "midi": 59,
      "hit": false,
      "t": 137768.79449999952,
      "d": 83.6535812499933,
      "v": 83
    },
    {
      "midi": 31,
      "hit": false,
      "t": 138004.37067708286,
      "d": 122.1149979166803,
      "v": 91
    },
    {
      "midi": 62,
      "hit": false,
      "t": 138227.44689374953,
      "d": 84.6151166666823,
      "v": 91
    },
    {
      "midi": 59,
      "hit": false,
      "t": 138230.33149999953,
      "d": 83.6535812499933,
      "v": 79
    },
    {
      "midi": 65,
      "hit": false,
      "t": 138230.33149999953,
      "d": 83.6535812499933,
      "v": 83
    },
    {
      "midi": 38,
      "hit": false,
      "t": 138461.09999999954,
      "d": 124.99960416665999,
      "v": 91
    },
    {
      "midi": 59,
      "hit": false,
      "t": 138691.86849999955,
      "d": 83.6535812499933,
      "v": 75
    },
    {
      "midi": 62,
      "hit": false,
      "t": 138691.86849999955,
      "d": 83.6535812499933,
      "v": 83
    },
    {
      "midi": 65,
      "hit": false,
      "t": 138691.86849999955,
      "d": 83.6535812499933,
      "v": 83
    },
    {
      "midi": 31,
      "hit": false,
      "t": 138919.75239374954,
      "d": 142.3072416666546,
      "v": 99
    },
    {
      "midi": 59,
      "hit": false,
      "t": 139153.40549999953,
      "d": 83.6535812499933,
      "v": 63
    },
    {
      "midi": 62,
      "hit": false,
      "t": 139153.40549999953,
      "d": 83.6535812499933,
      "v": 91
    },
    {
      "midi": 65,
      "hit": false,
      "t": 139153.40549999953,
      "d": 83.6535812499933,
      "v": 91
    },
    {
      "midi": 38,
      "hit": false,
      "t": 139381.28939374952,
      "d": 161.5379499999981,
      "v": 87
    },
    {
      "midi": 59,
      "hit": false,
      "t": 139605.32714583285,
      "d": 83.6535812499933,
      "v": 75
    },
    {
      "midi": 62,
      "hit": false,
      "t": 139607.25021666617,
      "d": 84.6151166666823,
      "v": 91
    },
    {
      "midi": 65,
      "hit": false,
      "t": 139614.9424999995,
      "d": 83.6535812500224,
      "v": 79
    },
    {
      "midi": 31,
      "hit": false,
      "t": 139845.71099999954,
      "d": 174.999445833324,
      "v": 95
    },
    {
      "midi": 62,
      "hit": false,
      "t": 140068.7872166662,
      "d": 84.6151166666532,
      "v": 103
    },
    {
      "midi": 59,
      "hit": false,
      "t": 140071.67182291622,
      "d": 83.65358124996419,
      "v": 83
    },
    {
      "midi": 65,
      "hit": false,
      "t": 140081.28717708288,
      "d": 83.65358124996419,
      "v": 87
    },
    {
      "midi": 36,
      "hit": false,
      "t": 140307.2479999995,
      "d": 134.6149583333463,
      "v": 99
    },
    {
      "midi": 60,
      "hit": false,
      "t": 140530.32421666617,
      "d": 84.6151166666532,
      "v": 103
    },
    {
      "midi": 55,
      "hit": false,
      "t": 140533.20882291617,
      "d": 83.65358124996419,
      "v": 91
    },
    {
      "midi": 64,
      "hit": false,
      "t": 140535.1318937495,
      "d": 84.6151166666532,
      "v": 95
    },
    {
      "midi": 31,
      "hit": false,
      "t": 140756.2850395828,
      "d": 124.99960416665999,
      "v": 91
    },
    {
      "midi": 55,
      "hit": false,
      "t": 140999.55349999949,
      "d": 83.6535812499933,
      "v": 75
    },
    {
      "midi": 60,
      "hit": false,
      "t": 141001.4765708328,
      "d": 84.6151166666823,
      "v": 91
    },
    {
      "midi": 64,
      "hit": false,
      "t": 141006.28424791613,
      "d": 84.6151166666823,
      "v": 83
    },
    {
      "midi": 36,
      "hit": false,
      "t": 141230.3219999995,
      "d": 120.1919270833314,
      "v": 91
    },
    {
      "midi": 55,
      "hit": false,
      "t": 141461.0904999995,
      "d": 83.6535812499933,
      "v": 79
    },
    {
      "midi": 60,
      "hit": false,
      "t": 141463.01357083282,
      "d": 84.6151166666823,
      "v": 91
    },
    {
      "midi": 64,
      "hit": false,
      "t": 141463.01357083282,
      "d": 84.6151166666823,
      "v": 91
    },
    {
      "midi": 31,
      "hit": false,
      "t": 141687.05132291617,
      "d": 131.7303520833375,
      "v": 99
    },
    {
      "midi": 55,
      "hit": false,
      "t": 141917.81982291618,
      "d": 83.6535812499933,
      "v": 87
    },
    {
      "midi": 60,
      "hit": false,
      "t": 141919.7428937495,
      "d": 84.6151166666823,
      "v": 99
    },
    {
      "midi": 64,
      "hit": false,
      "t": 141922.6274999995,
      "d": 83.6535812499933,
      "v": 87
    },
    {
      "midi": 29,
      "hit": false,
      "t": 142153.3959999995,
      "d": 261.5376333333261,
      "v": 95
    },
    {
      "midi": 60,
      "hit": false,
      "t": 142384.16449999952,
      "d": 62.499802083329996,
      "v": 107
    },
    {
      "midi": 57,
      "hit": false,
      "t": 142384.16449999952,
      "d": 72.1151562499872,
      "v": 107
    },
    {
      "midi": 65,
      "hit": false,
      "t": 142384.16449999952,
      "d": 93.26893541665049,
      "v": 95
    },
    {
      "midi": 60,
      "hit": false,
      "t": 142845.7014999995,
      "d": 64.4228729166789,
      "v": 107
    },
    {
      "midi": 65,
      "hit": false,
      "t": 142845.7014999995,
      "d": 72.1151562500163,
      "v": 91
    },
    {
      "midi": 57,
      "hit": false,
      "t": 142845.7014999995,
      "d": 74.0382270833361,
      "v": 103
    },
    {
      "midi": 38,
      "hit": false,
      "t": 143076.4699999995,
      "d": 280.7683416666696,
      "v": 95
    },
    {
      "midi": 53,
      "hit": false,
      "t": 143307.2384999995,
      "d": 78.8459041666647,
      "v": 99
    },
    {
      "midi": 57,
      "hit": false,
      "t": 143307.2384999995,
      "d": 91.3458645833307,
      "v": 107
    },
    {
      "midi": 62,
      "hit": false,
      "t": 143307.2384999995,
      "d": 105.76889583331649,
      "v": 91
    },
    {
      "midi": 39,
      "hit": false,
      "t": 143538.0069999995,
      "d": 211.5377916666621,
      "v": 95
    },
    {
      "midi": 54,
      "hit": false,
      "t": 143768.7754999995,
      "d": 69.2305500000075,
      "v": 92
    },
    {
      "midi": 57,
      "hit": false,
      "t": 143768.7754999995,
      "d": 76.9228333333449,
      "v": 92
    },
    {
      "midi": 60,
      "hit": false,
      "t": 143768.7754999995,
      "d": 76.9228333333449,
      "v": 79
    },
    {
      "midi": 63,
      "hit": false,
      "t": 143768.7754999995,
      "d": 98.0766125000082,
      "v": 95
    },
    {
      "midi": 40,
      "hit": false,
      "t": 143999.5439999995,
      "d": 266.3453104166838,
      "v": 95
    },
    {
      "midi": 55,
      "hit": false,
      "t": 144230.3124999995,
      "d": 64.4228729166789,
      "v": 99
    },
    {
      "midi": 60,
      "hit": false,
      "t": 144230.3124999995,
      "d": 74.0382270833361,
      "v": 99
    },
    {
      "midi": 64,
      "hit": false,
      "t": 144230.3124999995,
      "d": 83.6535812499933,
      "v": 95
    },
    {
      "midi": 60,
      "hit": false,
      "t": 144691.8494999995,
      "d": 57.6921250000014,
      "v": 92
    },
    {
      "midi": 55,
      "hit": false,
      "t": 144691.8494999995,
      "d": 69.2305500000075,
      "v": 92
    },
    {
      "midi": 64,
      "hit": false,
      "t": 144691.8494999995,
      "d": 69.2305500000075,
      "v": 93
    },
    {
      "midi": 60,
      "hit": false,
      "t": 144922.6179999995,
      "d": 76.9228333333449,
      "v": 91
    },
    {
      "midi": 64,
      "hit": false,
      "t": 144922.6179999995,
      "d": 81.7305104166735,
      "v": 95
    },
    {
      "midi": 69,
      "hit": false,
      "t": 144922.6179999995,
      "d": 122.1149979166803,
      "v": 99
    },
    {
      "midi": 33,
      "hit": false,
      "t": 144922.6179999995,
      "d": 129.8072812500177,
      "v": 98
    },
    {
      "midi": 62,
      "hit": false,
      "t": 145845.69199999952,
      "d": 112.499643749994,
      "v": 103
    },
    {
      "midi": 65,
      "hit": false,
      "t": 145845.69199999952,
      "d": 117.30732083332259,
      "v": 111
    },
    {
      "midi": 57,
      "hit": false,
      "t": 145845.69199999952,
      "d": 120.1919270833314,
      "v": 107
    },
    {
      "midi": 26,
      "hit": false,
      "t": 145845.69199999952,
      "d": 141.3457062499947,
      "v": 104
    },
    {
      "midi": 31,
      "hit": false,
      "t": 146768.7659999995,
      "d": 131.7303520833375,
      "v": 101
    },
    {
      "midi": 50,
      "hit": false,
      "t": 146768.7659999995,
      "d": 131.7303520833375,
      "v": 106
    },
    {
      "midi": 55,
      "hit": false,
      "t": 146768.7659999995,
      "d": 131.7303520833375,
      "v": 100
    },
    {
      "midi": 59,
      "hit": false,
      "t": 146768.7659999995,
      "d": 131.7303520833375,
      "v": 95
    },
    {
      "midi": 36,
      "hit": false,
      "t": 147691.8399999995,
      "d": 131.7303520833375,
      "v": 111
    },
    {
      "midi": 52,
      "hit": false,
      "t": 147691.8399999995,
      "d": 131.7303520833375,
      "v": 104
    },
    {
      "midi": 55,
      "hit": false,
      "t": 147691.8399999995,
      "d": 131.7303520833375,
      "v": 99
    },
    {
      "midi": 60,
      "hit": false,
      "t": 147691.8399999995,
      "d": 131.7303520833375,
      "v": 105
    },
    {
      "midi": 38,
      "hit": false,
      "t": 149537.98799999952,
      "d": 83.6535812499933,
      "v": 87
    },
    {
      "midi": 59,
      "hit": false,
      "t": 149765.8718937495,
      "d": 84.6151166666823,
      "v": 91
    },
    {
      "midi": 62,
      "hit": false,
      "t": 149768.75649999952,
      "d": 83.6535812499933,
      "v": 103
    },
    {
      "midi": 65,
      "hit": false,
      "t": 149768.75649999952,
      "d": 83.6535812499933,
      "v": 87
    },
    {
      "midi": 31,
      "hit": false,
      "t": 149996.64039374952,
      "d": 144.2303125000035,
      "v": 95
    },
    {
      "midi": 62,
      "hit": false,
      "t": 150222.6012166662,
      "d": 84.6151166666823,
      "v": 91
    },
    {
      "midi": 59,
      "hit": false,
      "t": 150225.4858229162,
      "d": 83.6535812499933,
      "v": 83
    },
    {
      "midi": 65,
      "hit": false,
      "t": 150230.29349999953,
      "d": 83.6535812499933,
      "v": 91
    },
    {
      "midi": 38,
      "hit": false,
      "t": 150462.98507083286,
      "d": 123.0765333333402,
      "v": 95
    },
    {
      "midi": 62,
      "hit": false,
      "t": 150687.0228229162,
      "d": 83.6535812499933,
      "v": 99
    },
    {
      "midi": 65,
      "hit": false,
      "t": 150688.9458937495,
      "d": 84.6151166666823,
      "v": 87
    },
    {
      "midi": 59,
      "hit": false,
      "t": 150691.83049999952,
      "d": 83.6535812499933,
      "v": 83
    },
    {
      "midi": 31,
      "hit": false,
      "t": 150927.40667708285,
      "d": 122.1149979166803,
      "v": 91
    },
    {
      "midi": 62,
      "hit": false,
      "t": 151150.48289374952,
      "d": 84.6151166666823,
      "v": 91
    },
    {
      "midi": 59,
      "hit": false,
      "t": 151153.36749999953,
      "d": 83.6535812499933,
      "v": 79
    },
    {
      "midi": 65,
      "hit": false,
      "t": 151153.36749999953,
      "d": 83.6535812499933,
      "v": 83
    },
    {
      "midi": 38,
      "hit": false,
      "t": 151384.13599999953,
      "d": 124.99960416665999,
      "v": 91
    },
    {
      "midi": 59,
      "hit": false,
      "t": 151614.90449999954,
      "d": 83.6535812499933,
      "v": 75
    },
    {
      "midi": 62,
      "hit": false,
      "t": 151614.90449999954,
      "d": 83.6535812499933,
      "v": 83
    },
    {
      "midi": 65,
      "hit": false,
      "t": 151614.90449999954,
      "d": 83.6535812499933,
      "v": 83
    },
    {
      "midi": 31,
      "hit": false,
      "t": 151842.78839374954,
      "d": 142.3072416666546,
      "v": 99
    },
    {
      "midi": 59,
      "hit": false,
      "t": 152076.44149999952,
      "d": 83.6535812499933,
      "v": 63
    },
    {
      "midi": 62,
      "hit": false,
      "t": 152076.44149999952,
      "d": 83.6535812499933,
      "v": 91
    },
    {
      "midi": 65,
      "hit": false,
      "t": 152076.44149999952,
      "d": 83.6535812499933,
      "v": 91
    },
    {
      "midi": 38,
      "hit": false,
      "t": 152304.32539374952,
      "d": 161.5379499999981,
      "v": 87
    },
    {
      "midi": 59,
      "hit": false,
      "t": 152528.36314583285,
      "d": 83.6535812499933,
      "v": 75
    },
    {
      "midi": 62,
      "hit": false,
      "t": 152530.28621666617,
      "d": 84.6151166666823,
      "v": 91
    },
    {
      "midi": 65,
      "hit": false,
      "t": 152537.9784999995,
      "d": 83.6535812500224,
      "v": 79
    },
    {
      "midi": 31,
      "hit": false,
      "t": 152768.74699999954,
      "d": 174.999445833324,
      "v": 95
    },
    {
      "midi": 62,
      "hit": false,
      "t": 152991.8232166662,
      "d": 84.6151166666532,
      "v": 103
    },
    {
      "midi": 59,
      "hit": false,
      "t": 152994.7078229162,
      "d": 83.65358124996419,
      "v": 83
    },
    {
      "midi": 65,
      "hit": false,
      "t": 153004.32317708287,
      "d": 83.65358124996419,
      "v": 87
    },
    {
      "midi": 36,
      "hit": false,
      "t": 153230.2839999995,
      "d": 134.6149583333463,
      "v": 99
    },
    {
      "midi": 60,
      "hit": false,
      "t": 153453.36021666616,
      "d": 84.6151166666532,
      "v": 103
    },
    {
      "midi": 55,
      "hit": false,
      "t": 153456.24482291617,
      "d": 83.65358124996419,
      "v": 91
    },
    {
      "midi": 64,
      "hit": false,
      "t": 153458.1678937495,
      "d": 84.6151166666532,
      "v": 95
    },
    {
      "midi": 31,
      "hit": false,
      "t": 153679.3210395828,
      "d": 124.99960416665999,
      "v": 91
    },
    {
      "midi": 55,
      "hit": false,
      "t": 153922.58949999948,
      "d": 83.6535812499933,
      "v": 75
    },
    {
      "midi": 60,
      "hit": false,
      "t": 153924.5125708328,
      "d": 84.6151166666823,
      "v": 91
    },
    {
      "midi": 64,
      "hit": false,
      "t": 153929.32024791613,
      "d": 84.6151166666823,
      "v": 83
    },
    {
      "midi": 36,
      "hit": false,
      "t": 154153.35799999948,
      "d": 120.1919270833314,
      "v": 91
    },
    {
      "midi": 55,
      "hit": false,
      "t": 154384.1264999995,
      "d": 83.6535812499933,
      "v": 79
    },
    {
      "midi": 60,
      "hit": false,
      "t": 154386.0495708328,
      "d": 84.6151166666823,
      "v": 91
    },
    {
      "midi": 64,
      "hit": false,
      "t": 154386.0495708328,
      "d": 84.6151166666823,
      "v": 91
    },
    {
      "midi": 31,
      "hit": false,
      "t": 154610.08732291617,
      "d": 131.7303520833375,
      "v": 99
    },
    {
      "midi": 55,
      "hit": false,
      "t": 154840.85582291617,
      "d": 83.6535812499933,
      "v": 87
    },
    {
      "midi": 60,
      "hit": false,
      "t": 154842.7788937495,
      "d": 84.6151166666823,
      "v": 99
    },
    {
      "midi": 64,
      "hit": false,
      "t": 154845.6634999995,
      "d": 83.6535812499933,
      "v": 87
    },
    {
      "midi": 36,
      "hit": false,
      "t": 155076.4319999995,
      "d": 134.6149583333463,
      "v": 99
    },
    {
      "midi": 60,
      "hit": false,
      "t": 155299.50821666617,
      "d": 84.6151166666532,
      "v": 103
    },
    {
      "midi": 55,
      "hit": false,
      "t": 155302.39282291618,
      "d": 83.65358124996419,
      "v": 91
    },
    {
      "midi": 64,
      "hit": false,
      "t": 155304.3158937495,
      "d": 84.6151166666532,
      "v": 95
    },
    {
      "midi": 31,
      "hit": false,
      "t": 155525.46903958282,
      "d": 124.99960416665999,
      "v": 91
    },
    {
      "midi": 55,
      "hit": false,
      "t": 155768.7374999995,
      "d": 83.6535812499933,
      "v": 75
    },
    {
      "midi": 60,
      "hit": false,
      "t": 155770.6605708328,
      "d": 84.6151166666823,
      "v": 91
    },
    {
      "midi": 64,
      "hit": false,
      "t": 155775.46824791614,
      "d": 84.6151166666823,
      "v": 83
    },
    {
      "midi": 36,
      "hit": false,
      "t": 155999.5059999995,
      "d": 120.1919270833314,
      "v": 91
    },
    {
      "midi": 55,
      "hit": false,
      "t": 156230.2744999995,
      "d": 83.6535812499933,
      "v": 79
    },
    {
      "midi": 60,
      "hit": false,
      "t": 156232.19757083282,
      "d": 84.6151166666823,
      "v": 91
    },
    {
      "midi": 64,
      "hit": false,
      "t": 156232.19757083282,
      "d": 84.6151166666823,
      "v": 91
    },
    {
      "midi": 31,
      "hit": false,
      "t": 156456.23532291618,
      "d": 131.7303520833375,
      "v": 99
    },
    {
      "midi": 55,
      "hit": false,
      "t": 156687.0038229162,
      "d": 83.6535812499933,
      "v": 87
    },
    {
      "midi": 60,
      "hit": false,
      "t": 156688.9268937495,
      "d": 84.6151166666823,
      "v": 99
    },
    {
      "midi": 64,
      "hit": false,
      "t": 156691.81149999952,
      "d": 83.6535812499933,
      "v": 87
    },
    {
      "midi": 38,
      "hit": false,
      "t": 156927.38767708285,
      "d": 124.99960416665999,
      "v": 107
    },
    {
      "midi": 66,
      "hit": false,
      "t": 157153.3484999995,
      "d": 52.8844479166728,
      "v": 111
    },
    {
      "midi": 60,
      "hit": false,
      "t": 157155.27157083282,
      "d": 48.0767708333442,
      "v": 103
    },
    {
      "midi": 57,
      "hit": false,
      "t": 157155.27157083282,
      "d": 70.1920854166965,
      "v": 91
    },
    {
      "midi": 33,
      "hit": false,
      "t": 157388.92467708286,
      "d": 120.1919270833314,
      "v": 107
    },
    {
      "midi": 66,
      "hit": false,
      "t": 157614.88549999954,
      "d": 57.6921250000014,
      "v": 107
    },
    {
      "midi": 60,
      "hit": false,
      "t": 157616.80857083286,
      "d": 52.8844479166728,
      "v": 107
    },
    {
      "midi": 57,
      "hit": false,
      "t": 157619.69317708287,
      "d": 59.6151958333503,
      "v": 95
    },
    {
      "midi": 38,
      "hit": false,
      "t": 157857.19242499955,
      "d": 94.2304708333395,
      "v": 103
    },
    {
      "midi": 66,
      "hit": false,
      "t": 158068.7302166662,
      "d": 70.1920854166674,
      "v": 111
    },
    {
      "midi": 60,
      "hit": false,
      "t": 158071.61482291622,
      "d": 62.499802083329996,
      "v": 111
    },
    {
      "midi": 57,
      "hit": false,
      "t": 158071.61482291622,
      "d": 64.4228729166498,
      "v": 99
    },
    {
      "midi": 33,
      "hit": false,
      "t": 158304.30639374955,
      "d": 99.0381479166681,
      "v": 107
    },
    {
      "midi": 66,
      "hit": false,
      "t": 158535.07489374955,
      "d": 74.999762499996,
      "v": 99
    },
    {
      "midi": 60,
      "hit": false,
      "t": 158537.95949999956,
      "d": 62.499802083329996,
      "v": 99
    },
    {
      "midi": 57,
      "hit": false,
      "t": 158539.88257083288,
      "d": 65.3844083333388,
      "v": 87
    },
    {
      "midi": 38,
      "hit": false,
      "t": 158773.5356770829,
      "d": 105.7688958333456,
      "v": 103
    },
    {
      "midi": 66,
      "hit": false,
      "t": 159009.11185416623,
      "d": 72.1151562499872,
      "v": 111
    },
    {
      "midi": 60,
      "hit": false,
      "t": 159011.03492499955,
      "d": 65.3844083333388,
      "v": 111
    },
    {
      "midi": 57,
      "hit": false,
      "t": 159011.03492499955,
      "d": 70.1920854166674,
      "v": 95
    },
    {
      "midi": 33,
      "hit": false,
      "t": 159239.8803541662,
      "d": 105.7688958333456,
      "v": 107
    },
    {
      "midi": 66,
      "hit": false,
      "t": 159458.14889374955,
      "d": 72.1151562499872,
      "v": 103
    },
    {
      "midi": 60,
      "hit": false,
      "t": 159461.03349999955,
      "d": 57.69212499997229,
      "v": 103
    },
    {
      "midi": 57,
      "hit": false,
      "t": 159462.95657083287,
      "d": 67.3074791666586,
      "v": 95
    },
    {
      "midi": 38,
      "hit": false,
      "t": 159696.60967708286,
      "d": 88.4612583333219,
      "v": 99
    },
    {
      "midi": 66,
      "hit": false,
      "t": 159934.1089249995,
      "d": 70.1920854166965,
      "v": 107
    },
    {
      "midi": 60,
      "hit": false,
      "t": 159936.99353124952,
      "d": 57.6921250000014,
      "v": 103
    },
    {
      "midi": 57,
      "hit": false,
      "t": 159936.99353124952,
      "d": 64.4228729166789,
      "v": 95
    },
    {
      "midi": 33,
      "hit": false,
      "t": 160140.83903958288,
      "d": 110.5765729166742,
      "v": 107
    },
    {
      "midi": 66,
      "hit": false,
      "t": 160384.10749999955,
      "d": 62.499802083329996,
      "v": 107
    },
    {
      "midi": 60,
      "hit": false,
      "t": 160386.03057083287,
      "d": 55.7690541666816,
      "v": 99
    },
    {
      "midi": 57,
      "hit": false,
      "t": 160388.91517708288,
      "d": 54.807518749992596,
      "v": 87
    },
    {
      "midi": 57,
      "hit": false,
      "t": 160614.87599999955,
      "d": 78.8459041666647,
      "v": 99
    },
    {
      "midi": 60,
      "hit": false,
      "t": 160614.87599999955,
      "d": 81.7305104166735,
      "v": 107
    },
    {
      "midi": 66,
      "hit": false,
      "t": 160614.87599999955,
      "d": 88.461258333351,
      "v": 115
    },
    {
      "midi": 38,
      "hit": false,
      "t": 160614.87599999955,
      "d": 91.3458645833598,
      "v": 115
    },
    {
      "midi": 61,
      "hit": false,
      "t": 164076.40349999958,
      "d": 199.0378312499961,
      "v": 105
    },
    {
      "midi": 37,
      "hit": false,
      "t": 164076.40349999958,
      "d": 206.7301145833335,
      "v": 95
    },
    {
      "midi": 57,
      "hit": false,
      "t": 164076.40349999958,
      "d": 206.7301145833335,
      "v": 95
    },
    {
      "midi": 64,
      "hit": false,
      "t": 164076.40349999958,
      "d": 206.7301145833335,
      "v": 93
    },
    {
      "midi": 59,
      "hit": false,
      "t": 164307.17199999958,
      "d": 83.6535812499933,
      "v": 95
    },
    {
      "midi": 62,
      "hit": false,
      "t": 164307.17199999958,
      "d": 83.6535812499933,
      "v": 95
    },
    {
      "midi": 65,
      "hit": false,
      "t": 164307.17199999958,
      "d": 83.6535812499933,
      "v": 95
    },
    {
      "midi": 59,
      "hit": false,
      "t": 164535.05589374958,
      "d": 84.6151166666823,
      "v": 91
    },
    {
      "midi": 62,
      "hit": false,
      "t": 164537.9404999996,
      "d": 83.6535812499933,
      "v": 99
    },
    {
      "midi": 65,
      "hit": false,
      "t": 164537.9404999996,
      "d": 83.6535812499933,
      "v": 87
    },
    {
      "midi": 31,
      "hit": false,
      "t": 164765.8243937496,
      "d": 144.2303125000035,
      "v": 95
    },
    {
      "midi": 62,
      "hit": false,
      "t": 164991.78521666626,
      "d": 84.6151166666823,
      "v": 91
    },
    {
      "midi": 59,
      "hit": false,
      "t": 164994.66982291627,
      "d": 83.6535812499933,
      "v": 83
    },
    {
      "midi": 65,
      "hit": false,
      "t": 164999.4774999996,
      "d": 83.6535812499933,
      "v": 91
    },
    {
      "midi": 38,
      "hit": false,
      "t": 165232.16907083293,
      "d": 123.0765333333402,
      "v": 95
    },
    {
      "midi": 62,
      "hit": false,
      "t": 165456.20682291625,
      "d": 83.6535812499933,
      "v": 99
    },
    {
      "midi": 65,
      "hit": false,
      "t": 165458.12989374957,
      "d": 84.6151166666823,
      "v": 87
    },
    {
      "midi": 59,
      "hit": false,
      "t": 165461.01449999958,
      "d": 83.6535812499933,
      "v": 83
    },
    {
      "midi": 31,
      "hit": false,
      "t": 165696.59067708292,
      "d": 122.1149979166803,
      "v": 91
    },
    {
      "midi": 62,
      "hit": false,
      "t": 165919.66689374959,
      "d": 84.6151166666823,
      "v": 91
    },
    {
      "midi": 59,
      "hit": false,
      "t": 165922.5514999996,
      "d": 83.6535812499933,
      "v": 79
    },
    {
      "midi": 65,
      "hit": false,
      "t": 165922.5514999996,
      "d": 83.6535812499933,
      "v": 83
    },
    {
      "midi": 38,
      "hit": false,
      "t": 166153.3199999996,
      "d": 124.99960416665999,
      "v": 91
    },
    {
      "midi": 59,
      "hit": false,
      "t": 166384.0884999996,
      "d": 83.6535812499933,
      "v": 75
    },
    {
      "midi": 62,
      "hit": false,
      "t": 166384.0884999996,
      "d": 83.6535812499933,
      "v": 83
    },
    {
      "midi": 65,
      "hit": false,
      "t": 166384.0884999996,
      "d": 83.6535812499933,
      "v": 83
    },
    {
      "midi": 31,
      "hit": false,
      "t": 166611.9723937496,
      "d": 142.3072416666546,
      "v": 99
    },
    {
      "midi": 59,
      "hit": false,
      "t": 166845.6254999996,
      "d": 83.6535812499933,
      "v": 63
    },
    {
      "midi": 62,
      "hit": false,
      "t": 166845.6254999996,
      "d": 83.6535812499933,
      "v": 91
    },
    {
      "midi": 65,
      "hit": false,
      "t": 166845.6254999996,
      "d": 83.6535812499933,
      "v": 91
    },
    {
      "midi": 38,
      "hit": false,
      "t": 167073.50939374958,
      "d": 161.5379499999981,
      "v": 87
    },
    {
      "midi": 59,
      "hit": false,
      "t": 167297.5471458329,
      "d": 83.6535812499933,
      "v": 75
    },
    {
      "midi": 62,
      "hit": false,
      "t": 167299.47021666623,
      "d": 84.6151166666823,
      "v": 91
    },
    {
      "midi": 65,
      "hit": false,
      "t": 167307.16249999957,
      "d": 83.6535812500224,
      "v": 79
    },
    {
      "midi": 31,
      "hit": false,
      "t": 167537.9309999996,
      "d": 174.999445833324,
      "v": 95
    },
    {
      "midi": 62,
      "hit": false,
      "t": 167761.00721666627,
      "d": 84.6151166666532,
      "v": 103
    },
    {
      "midi": 59,
      "hit": false,
      "t": 167763.89182291628,
      "d": 83.65358124996419,
      "v": 83
    },
    {
      "midi": 65,
      "hit": false,
      "t": 167773.50717708294,
      "d": 83.65358124996419,
      "v": 87
    },
    {
      "midi": 36,
      "hit": false,
      "t": 167999.46799999956,
      "d": 134.6149583333463,
      "v": 99
    },
    {
      "midi": 60,
      "hit": false,
      "t": 168222.54421666623,
      "d": 84.6151166666532,
      "v": 103
    },
    {
      "midi": 55,
      "hit": false,
      "t": 168225.42882291623,
      "d": 83.65358124996419,
      "v": 91
    },
    {
      "midi": 64,
      "hit": false,
      "t": 168227.35189374955,
      "d": 84.6151166666532,
      "v": 95
    },
    {
      "midi": 31,
      "hit": false,
      "t": 168448.50503958287,
      "d": 124.99960416665999,
      "v": 91
    },
    {
      "midi": 55,
      "hit": false,
      "t": 168691.77349999954,
      "d": 83.6535812499933,
      "v": 75
    },
    {
      "midi": 60,
      "hit": false,
      "t": 168693.69657083286,
      "d": 84.6151166666823,
      "v": 91
    },
    {
      "midi": 64,
      "hit": false,
      "t": 168698.5042479162,
      "d": 84.6151166666823,
      "v": 83
    },
    {
      "midi": 36,
      "hit": false,
      "t": 168922.54199999955,
      "d": 120.1919270833314,
      "v": 91
    },
    {
      "midi": 55,
      "hit": false,
      "t": 169153.31049999956,
      "d": 83.6535812499933,
      "v": 79
    },
    {
      "midi": 60,
      "hit": false,
      "t": 169155.23357083288,
      "d": 84.6151166666823,
      "v": 91
    },
    {
      "midi": 64,
      "hit": false,
      "t": 169155.23357083288,
      "d": 84.6151166666823,
      "v": 91
    },
    {
      "midi": 31,
      "hit": false,
      "t": 169379.27132291623,
      "d": 131.7303520833375,
      "v": 99
    },
    {
      "midi": 55,
      "hit": false,
      "t": 169610.03982291624,
      "d": 83.6535812499933,
      "v": 87
    },
    {
      "midi": 60,
      "hit": false,
      "t": 169611.96289374956,
      "d": 84.6151166666823,
      "v": 99
    },
    {
      "midi": 64,
      "hit": false,
      "t": 169614.84749999957,
      "d": 83.6535812499933,
      "v": 87
    },
    {
      "midi": 29,
      "hit": false,
      "t": 169845.61599999957,
      "d": 261.5376333333261,
      "v": 95
    },
    {
      "midi": 60,
      "hit": false,
      "t": 170076.38449999958,
      "d": 62.499802083329996,
      "v": 107
    },
    {
      "midi": 57,
      "hit": false,
      "t": 170076.38449999958,
      "d": 72.1151562499872,
      "v": 107
    },
    {
      "midi": 65,
      "hit": false,
      "t": 170076.38449999958,
      "d": 93.26893541665049,
      "v": 95
    },
    {
      "midi": 60,
      "hit": false,
      "t": 170537.92149999956,
      "d": 64.4228729166789,
      "v": 107
    },
    {
      "midi": 65,
      "hit": false,
      "t": 170537.92149999956,
      "d": 72.1151562500163,
      "v": 91
    },
    {
      "midi": 57,
      "hit": false,
      "t": 170537.92149999956,
      "d": 74.0382270833361,
      "v": 103
    },
    {
      "midi": 38,
      "hit": false,
      "t": 170768.68999999957,
      "d": 280.7683416666696,
      "v": 95
    },
    {
      "midi": 53,
      "hit": false,
      "t": 170999.45849999957,
      "d": 78.8459041666647,
      "v": 99
    },
    {
      "midi": 57,
      "hit": false,
      "t": 170999.45849999957,
      "d": 91.3458645833307,
      "v": 107
    },
    {
      "midi": 62,
      "hit": false,
      "t": 170999.45849999957,
      "d": 105.76889583331649,
      "v": 91
    },
    {
      "midi": 39,
      "hit": false,
      "t": 171230.22699999955,
      "d": 211.5377916666621,
      "v": 95
    },
    {
      "midi": 54,
      "hit": false,
      "t": 171460.99549999955,
      "d": 69.2305500000075,
      "v": 92
    },
    {
      "midi": 57,
      "hit": false,
      "t": 171460.99549999955,
      "d": 76.9228333333449,
      "v": 92
    },
    {
      "midi": 60,
      "hit": false,
      "t": 171460.99549999955,
      "d": 76.9228333333449,
      "v": 79
    },
    {
      "midi": 63,
      "hit": false,
      "t": 171460.99549999955,
      "d": 98.0766125000082,
      "v": 95
    },
    {
      "midi": 40,
      "hit": false,
      "t": 171691.76399999956,
      "d": 266.3453104166838,
      "v": 95
    },
    {
      "midi": 55,
      "hit": false,
      "t": 171922.53249999956,
      "d": 64.4228729166789,
      "v": 99
    },
    {
      "midi": 60,
      "hit": false,
      "t": 171922.53249999956,
      "d": 74.0382270833361,
      "v": 99
    },
    {
      "midi": 64,
      "hit": false,
      "t": 171922.53249999956,
      "d": 83.6535812499933,
      "v": 95
    },
    {
      "midi": 60,
      "hit": false,
      "t": 172384.06949999955,
      "d": 57.6921250000014,
      "v": 92
    },
    {
      "midi": 55,
      "hit": false,
      "t": 172384.06949999955,
      "d": 69.2305500000075,
      "v": 92
    },
    {
      "midi": 64,
      "hit": false,
      "t": 172384.06949999955,
      "d": 69.2305500000075,
      "v": 93
    },
    {
      "midi": 60,
      "hit": false,
      "t": 172614.83799999955,
      "d": 76.9228333333449,
      "v": 91
    },
    {
      "midi": 64,
      "hit": false,
      "t": 172614.83799999955,
      "d": 81.7305104166735,
      "v": 95
    },
    {
      "midi": 69,
      "hit": false,
      "t": 172614.83799999955,
      "d": 122.1149979166803,
      "v": 99
    },
    {
      "midi": 33,
      "hit": false,
      "t": 172614.83799999955,
      "d": 129.8072812500177,
      "v": 98
    },
    {
      "midi": 62,
      "hit": false,
      "t": 173537.91199999957,
      "d": 112.499643749994,
      "v": 103
    },
    {
      "midi": 65,
      "hit": false,
      "t": 173537.91199999957,
      "d": 117.30732083332259,
      "v": 111
    },
    {
      "midi": 57,
      "hit": false,
      "t": 173537.91199999957,
      "d": 120.1919270833314,
      "v": 107
    },
    {
      "midi": 26,
      "hit": false,
      "t": 173537.91199999957,
      "d": 141.3457062499947,
      "v": 104
    },
    {
      "midi": 43,
      "hit": false,
      "t": 174460.98599999957,
      "d": 131.7303520833375,
      "v": 101
    },
    {
      "midi": 50,
      "hit": false,
      "t": 174460.98599999957,
      "d": 131.7303520833375,
      "v": 106
    },
    {
      "midi": 59,
      "hit": false,
      "t": 174460.98599999957,
      "d": 131.7303520833375,
      "v": 95
    },
    {
      "midi": 67,
      "hit": false,
      "t": 174460.98599999957,
      "d": 131.7303520833375,
      "v": 103
    },
    {
      "midi": 55,
      "hit": false,
      "t": 175384.05999999956,
      "d": 146.1533833333233,
      "v": 99
    },
    {
      "midi": 64,
      "hit": false,
      "t": 175384.05999999956,
      "d": 150.9610604166519,
      "v": 104
    },
    {
      "midi": 72,
      "hit": false,
      "t": 175384.05999999956,
      "d": 158.6533437499893,
      "v": 105
    },
    {
      "midi": 48,
      "hit": false,
      "t": 175384.05999999956,
      "d": 174.999445833324,
      "v": 111
    },
    {
      "midi": 55,
      "hit": false,
      "t": 175708.09743541622,
      "d": 91.3458645833307,
      "v": 89
    },
    {
      "midi": 79,
      "hit": false,
      "t": 175708.09743541622,
      "d": 91.3458645833307,
      "v": 104
    },
    {
      "midi": 60,
      "hit": false,
      "t": 175845.59699999954,
      "d": 617.3057374999917,
      "v": 88
    },
    {
      "midi": 84,
      "hit": false,
      "t": 175845.59699999954,
      "d": 617.3057374999917,
      "v": 103
    },
    {
      "midi": 55,
      "hit": false,
      "t": 176523.47946874955,
      "d": 67.3074791666586,
      "v": 86
    },
    {
      "midi": 79,
      "hit": false,
      "t": 176523.47946874955,
      "d": 67.3074791666586,
      "v": 101
    },
    {
      "midi": 55,
      "hit": false,
      "t": 176635.97911249954,
      "d": 62.499802083329996,
      "v": 92
    },
    {
      "midi": 79,
      "hit": false,
      "t": 176635.97911249954,
      "d": 62.499802083329996,
      "v": 107
    },
    {
      "midi": 55,
      "hit": false,
      "t": 176768.67099999954,
      "d": 83.6535812499933,
      "v": 90
    },
    {
      "midi": 79,
      "hit": false,
      "t": 176768.67099999954,
      "d": 83.6535812499933,
      "v": 105
    },
    {
      "midi": 52,
      "hit": false,
      "t": 176941.74737499954,
      "d": 86.5381875000021,
      "v": 88
    },
    {
      "midi": 76,
      "hit": false,
      "t": 176941.74737499954,
      "d": 86.5381875000021,
      "v": 103
    },
    {
      "midi": 55,
      "hit": false,
      "t": 177081.17001041622,
      "d": 91.3458645833307,
      "v": 96
    },
    {
      "midi": 79,
      "hit": false,
      "t": 177081.17001041622,
      "d": 91.3458645833307,
      "v": 111
    },
    {
      "midi": 55,
      "hit": false,
      "t": 177236.93874791623,
      "d": 84.6151166666532,
      "v": 88
    },
    {
      "midi": 79,
      "hit": false,
      "t": 177236.93874791623,
      "d": 84.6151166666532,
      "v": 103
    },
    {
      "midi": 52,
      "hit": false,
      "t": 177405.20744583287,
      "d": 89.4227937500109,
      "v": 88
    },
    {
      "midi": 76,
      "hit": false,
      "t": 177405.20744583287,
      "d": 89.4227937500109,
      "v": 103
    },
    {
      "midi": 55,
      "hit": false,
      "t": 177549.43775833288,
      "d": 84.6151166666532,
      "v": 100
    },
    {
      "midi": 79,
      "hit": false,
      "t": 177549.43775833288,
      "d": 84.6151166666532,
      "v": 115
    },
    {
      "midi": 60,
      "hit": false,
      "t": 177691.74499999953,
      "d": 538.459833333327,
      "v": 96
    },
    {
      "midi": 84,
      "hit": false,
      "t": 177691.74499999953,
      "d": 538.459833333327,
      "v": 111
    },
    {
      "midi": 60,
      "hit": false,
      "t": 178384.05049999952,
      "d": 115.3842500000028,
      "v": 84
    },
    {
      "midi": 84,
      "hit": false,
      "t": 178384.05049999952,
      "d": 115.3842500000028,
      "v": 99
    },
    {
      "midi": 55,
      "hit": false,
      "t": 178547.51152083286,
      "d": 110.5765729166742,
      "v": 96
    },
    {
      "midi": 79,
      "hit": false,
      "t": 178547.51152083286,
      "d": 110.5765729166742,
      "v": 111
    },
    {
      "midi": 55,
      "hit": false,
      "t": 178845.58749999953,
      "d": 117.30732083332259,
      "v": 100
    },
    {
      "midi": 79,
      "hit": false,
      "t": 178845.58749999953,
      "d": 117.30732083332259,
      "v": 115
    },
    {
      "midi": 52,
      "hit": false,
      "t": 179009.04852083285,
      "d": 96.1535416666593,
      "v": 76
    },
    {
      "midi": 76,
      "hit": false,
      "t": 179009.04852083285,
      "d": 96.1535416666593,
      "v": 91
    },
    {
      "midi": 52,
      "hit": false,
      "t": 179307.1244999995,
      "d": 96.1535416666593,
      "v": 68
    },
    {
      "midi": 76,
      "hit": false,
      "t": 179307.1244999995,
      "d": 96.1535416666593,
      "v": 83
    },
    {
      "midi": 49,
      "hit": false,
      "t": 179470.58552083283,
      "d": 1817.3019374999858,
      "v": 100
    },
    {
      "midi": 73,
      "hit": false,
      "t": 179470.58552083283,
      "d": 1817.3019374999858,
      "v": 115
    },
    {
      "midi": 48,
      "hit": false,
      "t": 181384.04099999947,
      "d": 107.6919666666654,
      "v": 90
    },
    {
      "midi": 72,
      "hit": false,
      "t": 181384.04099999947,
      "d": 107.6919666666654,
      "v": 105
    },
    {
      "midi": 84,
      "hit": false,
      "t": 181845.57799999948,
      "d": 201.9224375000049,
      "v": 123
    },
    {
      "midi": 76,
      "hit": false,
      "t": 181845.57799999948,
      "d": 211.5377916666621,
      "v": 107
    },
    {
      "midi": 36,
      "hit": false,
      "t": 181845.57799999948,
      "d": 245.19153124999139,
      "v": 111
    },
    {
      "midi": 43,
      "hit": false,
      "t": 181845.57799999948,
      "d": 254.80688541664858,
      "v": 111
    }
  ]
}