{
  "jsonPath": "Rock/Country Rock/Clay Walker/country-boy-and-city-girl-album-version.json",
  "path": "Rock\\Country Rock\\Clay Walker\\Country Boy And City Girl (Album Version).mid",
  "name": "Country Boy And City Girl (Album Version)",
  "difficulty": "Advanced",
  "bpm": 82.00003553334874,
  "notes": [
    {
      "midi": 62,
      "hit": false,
      "t": 7797.25271875,
      "d": 182.92674999999963,
      "v": 127
    },
    {
      "midi": 64,
      "hit": false,
      "t": 8010.667260416666,
      "d": 129.57311458333334,
      "v": 101
    },
    {
      "midi": 69,
      "hit": false,
      "t": 8041.1550520833325,
      "d": 350.60960416666694,
      "v": 113
    },
    {
      "midi": 65,
      "hit": false,
      "t": 8048.776999999999,
      "d": 190.54869791666624,
      "v": 117
    },
    {
      "midi": 66,
      "hit": false,
      "t": 8140.240374999999,
      "d": 541.1583020833332,
      "v": 91
    },
    {
      "midi": 69,
      "hit": false,
      "t": 8506.093874999999,
      "d": 182.92675000000054,
      "v": 127
    },
    {
      "midi": 74,
      "hit": false,
      "t": 8506.093874999999,
      "d": 190.54869791666715,
      "v": 108
    },
    {
      "midi": 57,
      "hit": false,
      "t": 8757.618156249999,
      "d": 1638.7188020833346,
      "v": 74
    },
    {
      "midi": 54,
      "hit": false,
      "t": 8765.240104166665,
      "d": 1669.206593750001,
      "v": 75
    },
    {
      "midi": 50,
      "hit": false,
      "t": 8765.240104166665,
      "d": 1692.072437500001,
      "v": 88
    },
    {
      "midi": 38,
      "hit": false,
      "t": 8765.240104166665,
      "d": 1920.730875000001,
      "v": 107
    },
    {
      "midi": 74,
      "hit": false,
      "t": 8772.862052083332,
      "d": 365.85349999999926,
      "v": 117
    },
    {
      "midi": 69,
      "hit": false,
      "t": 8780.483999999999,
      "d": 152.43895833333227,
      "v": 127
    },
    {
      "midi": 71,
      "hit": false,
      "t": 8894.813218749998,
      "d": 320.1218124999996,
      "v": 127
    },
    {
      "midi": 74,
      "hit": false,
      "t": 9260.666718749997,
      "d": 1371.9506249999995,
      "v": 113
    },
    {
      "midi": 69,
      "hit": false,
      "t": 9275.91061458333,
      "d": 1463.4139999999989,
      "v": 127
    },
    {
      "midi": 62,
      "hit": false,
      "t": 9275.910614583332,
      "d": 266.7681770833333,
      "v": 69
    },
    {
      "midi": 57,
      "hit": false,
      "t": 9283.532562499999,
      "d": 251.52428125000006,
      "v": 71
    },
    {
      "midi": 54,
      "hit": false,
      "t": 9283.532562499999,
      "d": 457.31687500000044,
      "v": 66
    },
    {
      "midi": 57,
      "hit": false,
      "t": 10015.239562499999,
      "d": 243.90233333333344,
      "v": 72
    },
    {
      "midi": 54,
      "hit": false,
      "t": 10015.239562499999,
      "d": 251.52428125000006,
      "v": 67
    },
    {
      "midi": 62,
      "hit": false,
      "t": 10015.239562499999,
      "d": 259.14622916666667,
      "v": 71
    },
    {
      "midi": 57,
      "hit": false,
      "t": 10731.702666666662,
      "d": 289.6340208333331,
      "v": 122
    },
    {
      "midi": 62,
      "hit": false,
      "t": 10739.324614583333,
      "d": 243.90233333333344,
      "v": 68
    },
    {
      "midi": 54,
      "hit": false,
      "t": 10746.9465625,
      "d": 228.65843750000022,
      "v": 66
    },
    {
      "midi": 57,
      "hit": false,
      "t": 10746.9465625,
      "d": 236.28038541666683,
      "v": 71
    },
    {
      "midi": 52,
      "hit": false,
      "t": 10952.73915625,
      "d": 1791.1577604166669,
      "v": 102
    },
    {
      "midi": 49,
      "hit": false,
      "t": 10960.361104166666,
      "d": 1791.1577604166669,
      "v": 84
    },
    {
      "midi": 57,
      "hit": false,
      "t": 10960.361104166666,
      "d": 1814.0236041666667,
      "v": 77
    },
    {
      "midi": 33,
      "hit": false,
      "t": 10967.983052083333,
      "d": 2149.3893124999995,
      "v": 107
    },
    {
      "midi": 64,
      "hit": false,
      "t": 10983.226947916663,
      "d": 114.3292187499992,
      "v": 127
    },
    {
      "midi": 69,
      "hit": false,
      "t": 10983.226947916663,
      "d": 342.9876562499994,
      "v": 127
    },
    {
      "midi": 66,
      "hit": false,
      "t": 11059.446427083329,
      "d": 335.3657083333328,
      "v": 91
    },
    {
      "midi": 69,
      "hit": false,
      "t": 11471.031614583328,
      "d": 1181.4019270833342,
      "v": 108
    },
    {
      "midi": 61,
      "hit": false,
      "t": 11471.031614583333,
      "d": 266.7681770833333,
      "v": 63
    },
    {
      "midi": 52,
      "hit": false,
      "t": 11471.031614583333,
      "d": 472.56077083333366,
      "v": 66
    },
    {
      "midi": 57,
      "hit": false,
      "t": 11471.031614583333,
      "d": 487.8046666666669,
      "v": 67
    },
    {
      "midi": 64,
      "hit": false,
      "t": 11478.653562499994,
      "d": 1181.4019270833342,
      "v": 127
    },
    {
      "midi": 52,
      "hit": false,
      "t": 12202.738614583333,
      "d": 251.52428125000006,
      "v": 71
    },
    {
      "midi": 57,
      "hit": false,
      "t": 12202.738614583333,
      "d": 251.52428125000006,
      "v": 74
    },
    {
      "midi": 61,
      "hit": false,
      "t": 12202.738614583333,
      "d": 251.52428125000006,
      "v": 69
    },
    {
      "midi": 57,
      "hit": false,
      "t": 12713.409124999995,
      "d": 251.52428125000006,
      "v": 122
    },
    {
      "midi": 66,
      "hit": false,
      "t": 12721.031072916661,
      "d": 213.414541666667,
      "v": 104
    },
    {
      "midi": 55,
      "hit": false,
      "t": 12926.823666666662,
      "d": 282.0120729166665,
      "v": 113
    },
    {
      "midi": 64,
      "hit": false,
      "t": 12934.445614583328,
      "d": 289.6340208333331,
      "v": 127
    },
    {
      "midi": 52,
      "hit": false,
      "t": 12934.445614583334,
      "d": 243.90233333333344,
      "v": 74
    },
    {
      "midi": 57,
      "hit": false,
      "t": 12934.445614583334,
      "d": 243.90233333333344,
      "v": 77
    },
    {
      "midi": 61,
      "hit": false,
      "t": 12934.445614583334,
      "d": 243.90233333333344,
      "v": 71
    },
    {
      "midi": 50,
      "hit": false,
      "t": 13155.482104166666,
      "d": 1958.8406145833324,
      "v": 77
    },
    {
      "midi": 57,
      "hit": false,
      "t": 13163.104052083332,
      "d": 1631.0968541666662,
      "v": 77
    },
    {
      "midi": 54,
      "hit": false,
      "t": 13163.104052083332,
      "d": 1745.4260729166654,
      "v": 80
    },
    {
      "midi": 38,
      "hit": false,
      "t": 13163.104052083332,
      "d": 2256.096583333332,
      "v": 107
    },
    {
      "midi": 54,
      "hit": false,
      "t": 13170.725999999995,
      "d": 594.5119374999977,
      "v": 100
    },
    {
      "midi": 62,
      "hit": false,
      "t": 13193.591843749995,
      "d": 373.47544791666587,
      "v": 127
    },
    {
      "midi": 62,
      "hit": false,
      "t": 13628.042874999994,
      "d": 182.92674999999872,
      "v": 63
    },
    {
      "midi": 55,
      "hit": false,
      "t": 13658.53066666666,
      "d": 182.92674999999872,
      "v": 94
    },
    {
      "midi": 54,
      "hit": false,
      "t": 13666.152614583334,
      "d": 251.52428125000006,
      "v": 65
    },
    {
      "midi": 57,
      "hit": false,
      "t": 13666.152614583334,
      "d": 251.52428125000006,
      "v": 70
    },
    {
      "midi": 62,
      "hit": false,
      "t": 13666.152614583334,
      "d": 251.52428125000006,
      "v": 68
    },
    {
      "midi": 64,
      "hit": false,
      "t": 13727.12819791666,
      "d": 205.79259374999856,
      "v": 97
    },
    {
      "midi": 56,
      "hit": false,
      "t": 13734.750145833326,
      "d": 198.17064583333195,
      "v": 104
    },
    {
      "midi": 65,
      "hit": false,
      "t": 13780.481833333326,
      "d": 129.57311458333243,
      "v": 66
    },
    {
      "midi": 66,
      "hit": false,
      "t": 13871.945208333325,
      "d": 815.5484270833331,
      "v": 100
    },
    {
      "midi": 57,
      "hit": false,
      "t": 13879.567156249992,
      "d": 800.3045312499999,
      "v": 108
    },
    {
      "midi": 54,
      "hit": false,
      "t": 14397.859614583334,
      "d": 251.52428125000006,
      "v": 67
    },
    {
      "midi": 57,
      "hit": false,
      "t": 14397.859614583334,
      "d": 251.52428125000006,
      "v": 75
    },
    {
      "midi": 62,
      "hit": false,
      "t": 14397.859614583334,
      "d": 251.52428125000006,
      "v": 68
    },
    {
      "midi": 60,
      "hit": false,
      "t": 14672.249739583325,
      "d": 503.0485625000001,
      "v": 127
    },
    {
      "midi": 69,
      "hit": false,
      "t": 14672.249739583325,
      "d": 510.67051041666673,
      "v": 127
    },
    {
      "midi": 57,
      "hit": false,
      "t": 15121.944666666659,
      "d": 320.1218124999996,
      "v": 86
    },
    {
      "midi": 66,
      "hit": false,
      "t": 15129.566614583326,
      "d": 312.49986458333296,
      "v": 73
    },
    {
      "midi": 54,
      "hit": false,
      "t": 15129.566614583335,
      "d": 243.90233333333344,
      "v": 68
    },
    {
      "midi": 62,
      "hit": false,
      "t": 15129.566614583335,
      "d": 243.90233333333344,
      "v": 69
    },
    {
      "midi": 57,
      "hit": false,
      "t": 15137.188562500001,
      "d": 236.28038541666683,
      "v": 75
    },
    {
      "midi": 43,
      "hit": false,
      "t": 15365.846999999998,
      "d": 2256.0965833333357,
      "v": 93
    },
    {
      "midi": 50,
      "hit": false,
      "t": 15373.468947916665,
      "d": 1913.1089270833345,
      "v": 88
    },
    {
      "midi": 55,
      "hit": false,
      "t": 15373.468947916665,
      "d": 1913.1089270833345,
      "v": 97
    },
    {
      "midi": 59,
      "hit": false,
      "t": 15381.090895833326,
      "d": 251.52428125000006,
      "v": 113
    },
    {
      "midi": 59,
      "hit": false,
      "t": 15381.090895833331,
      "d": 1852.1333437499998,
      "v": 81
    },
    {
      "midi": 67,
      "hit": false,
      "t": 15388.712843749992,
      "d": 274.3901249999999,
      "v": 122
    },
    {
      "midi": 60,
      "hit": false,
      "t": 15602.12738541666,
      "d": 297.25596874999974,
      "v": 122
    },
    {
      "midi": 69,
      "hit": false,
      "t": 15609.749333333326,
      "d": 320.1218124999996,
      "v": 122
    },
    {
      "midi": 57,
      "hit": false,
      "t": 15846.029718749993,
      "d": 320.1218124999996,
      "v": 101
    },
    {
      "midi": 66,
      "hit": false,
      "t": 15853.65166666666,
      "d": 297.25596874999974,
      "v": 95
    },
    {
      "midi": 55,
      "hit": false,
      "t": 15861.273614583335,
      "d": 251.52428125000006,
      "v": 68
    },
    {
      "midi": 59,
      "hit": false,
      "t": 15861.273614583335,
      "d": 251.52428125000006,
      "v": 72
    },
    {
      "midi": 62,
      "hit": false,
      "t": 15861.273614583335,
      "d": 251.52428125000006,
      "v": 67
    },
    {
      "midi": 67,
      "hit": false,
      "t": 16105.17594791666,
      "d": 1501.5237395833337,
      "v": 127
    },
    {
      "midi": 59,
      "hit": false,
      "t": 16105.17594791666,
      "d": 1509.1456875000022,
      "v": 122
    },
    {
      "midi": 55,
      "hit": false,
      "t": 16592.980614583335,
      "d": 251.52428125000006,
      "v": 70
    },
    {
      "midi": 59,
      "hit": false,
      "t": 16592.980614583335,
      "d": 251.52428125000006,
      "v": 72
    },
    {
      "midi": 62,
      "hit": false,
      "t": 16592.980614583335,
      "d": 251.52428125000006,
      "v": 67
    },
    {
      "midi": 62,
      "hit": false,
      "t": 17324.687614583334,
      "d": 251.5242812500037,
      "v": 69
    },
    {
      "midi": 59,
      "hit": false,
      "t": 17332.309562500002,
      "d": 236.28038541666683,
      "v": 74
    },
    {
      "midi": 55,
      "hit": false,
      "t": 17332.309562500002,
      "d": 243.90233333333526,
      "v": 71
    },
    {
      "midi": 50,
      "hit": false,
      "t": 17568.589947916666,
      "d": 1775.9138645833336,
      "v": 81
    },
    {
      "midi": 57,
      "hit": false,
      "t": 17576.211895833334,
      "d": 1638.718802083331,
      "v": 84
    },
    {
      "midi": 54,
      "hit": false,
      "t": 17576.211895833334,
      "d": 1699.6943854166639,
      "v": 75
    },
    {
      "midi": 38,
      "hit": false,
      "t": 17591.455791666667,
      "d": 2195.121000000003,
      "v": 97
    },
    {
      "midi": 54,
      "hit": false,
      "t": 18056.39461458334,
      "d": 251.52428125000006,
      "v": 63
    },
    {
      "midi": 62,
      "hit": false,
      "t": 18056.39461458334,
      "d": 251.52428125000006,
      "v": 68
    },
    {
      "midi": 57,
      "hit": false,
      "t": 18064.016562500008,
      "d": 243.90233333333163,
      "v": 69
    },
    {
      "midi": 57,
      "hit": false,
      "t": 18795.723562500007,
      "d": 236.28038541666683,
      "v": 71
    },
    {
      "midi": 54,
      "hit": false,
      "t": 18795.723562500007,
      "d": 243.90233333333526,
      "v": 67
    },
    {
      "midi": 62,
      "hit": false,
      "t": 18795.723562500007,
      "d": 243.90233333333526,
      "v": 69
    },
    {
      "midi": 54,
      "hit": false,
      "t": 19527.43056250001,
      "d": 236.28038541666683,
      "v": 67
    },
    {
      "midi": 57,
      "hit": false,
      "t": 19527.43056250001,
      "d": 236.28038541666683,
      "v": 71
    },
    {
      "midi": 62,
      "hit": false,
      "t": 19527.43056250001,
      "d": 236.28038541666683,
      "v": 68
    },
    {
      "midi": 52,
      "hit": false,
      "t": 19740.845104166667,
      "d": 1692.0724375000027,
      "v": 97
    },
    {
      "midi": 57,
      "hit": false,
      "t": 19740.845104166667,
      "d": 1714.9382812500044,
      "v": 77
    },
    {
      "midi": 49,
      "hit": false,
      "t": 19748.467052083335,
      "d": 1692.0724375000027,
      "v": 80
    },
    {
      "midi": 33,
      "hit": false,
      "t": 19763.71094791667,
      "d": 2233.2307395833413,
      "v": 102
    },
    {
      "midi": 57,
      "hit": false,
      "t": 20251.515614583343,
      "d": 251.5242812500037,
      "v": 69
    },
    {
      "midi": 61,
      "hit": false,
      "t": 20251.515614583343,
      "d": 251.5242812500037,
      "v": 67
    },
    {
      "midi": 52,
      "hit": false,
      "t": 20259.13756250001,
      "d": 243.90233333333526,
      "v": 69
    },
    {
      "midi": 52,
      "hit": false,
      "t": 20983.222614583345,
      "d": 251.52428125000006,
      "v": 71
    },
    {
      "midi": 57,
      "hit": false,
      "t": 20983.222614583345,
      "d": 251.52428125000006,
      "v": 72
    },
    {
      "midi": 61,
      "hit": false,
      "t": 20983.222614583345,
      "d": 251.52428125000006,
      "v": 65
    },
    {
      "midi": 52,
      "hit": false,
      "t": 21714.929614583343,
      "d": 243.90233333333163,
      "v": 72
    },
    {
      "midi": 57,
      "hit": false,
      "t": 21714.929614583343,
      "d": 243.90233333333163,
      "v": 74
    },
    {
      "midi": 61,
      "hit": false,
      "t": 21714.929614583343,
      "d": 243.90233333333163,
      "v": 67
    },
    {
      "midi": 54,
      "hit": false,
      "t": 21935.96610416667,
      "d": 1722.5602291666728,
      "v": 80
    },
    {
      "midi": 57,
      "hit": false,
      "t": 21943.588052083338,
      "d": 1722.5602291666728,
      "v": 84
    },
    {
      "midi": 50,
      "hit": false,
      "t": 21943.588052083338,
      "d": 1760.6699687500077,
      "v": 77
    },
    {
      "midi": 38,
      "hit": false,
      "t": 21951.210000000006,
      "d": 2187.499052083338,
      "v": 107
    },
    {
      "midi": 54,
      "hit": false,
      "t": 22446.63661458334,
      "d": 251.52428125000006,
      "v": 62
    },
    {
      "midi": 57,
      "hit": false,
      "t": 22446.63661458334,
      "d": 251.52428125000006,
      "v": 69
    },
    {
      "midi": 62,
      "hit": false,
      "t": 22446.63661458334,
      "d": 251.52428125000006,
      "v": 67
    },
    {
      "midi": 57,
      "hit": false,
      "t": 23178.34361458334,
      "d": 243.90233333333163,
      "v": 69
    },
    {
      "midi": 54,
      "hit": false,
      "t": 23178.34361458334,
      "d": 251.52428125000006,
      "v": 63
    },
    {
      "midi": 62,
      "hit": false,
      "t": 23178.34361458334,
      "d": 251.52428125000006,
      "v": 68
    },
    {
      "midi": 54,
      "hit": false,
      "t": 23917.672562500007,
      "d": 236.28038541666683,
      "v": 62
    },
    {
      "midi": 57,
      "hit": false,
      "t": 23917.672562500007,
      "d": 236.28038541666683,
      "v": 69
    },
    {
      "midi": 62,
      "hit": false,
      "t": 23917.672562500007,
      "d": 236.28038541666683,
      "v": 67
    },
    {
      "midi": 52,
      "hit": false,
      "t": 24123.46515625001,
      "d": 1874.999187500005,
      "v": 102
    },
    {
      "midi": 33,
      "hit": false,
      "t": 24138.709052083344,
      "d": 716.4631041666689,
      "v": 102
    },
    {
      "midi": 57,
      "hit": false,
      "t": 24138.709052083344,
      "d": 1920.7308750000084,
      "v": 74
    },
    {
      "midi": 49,
      "hit": false,
      "t": 24146.331000000013,
      "d": 1890.2430833333383,
      "v": 80
    },
    {
      "midi": 52,
      "hit": false,
      "t": 24641.75761458334,
      "d": 251.52428125000006,
      "v": 68
    },
    {
      "midi": 57,
      "hit": false,
      "t": 24641.75761458334,
      "d": 251.52428125000006,
      "v": 68
    },
    {
      "midi": 61,
      "hit": false,
      "t": 24641.75761458334,
      "d": 251.52428125000006,
      "v": 67
    },
    {
      "midi": 35,
      "hit": false,
      "t": 24893.28189583335,
      "d": 762.1947916666686,
      "v": 107
    },
    {
      "midi": 33,
      "hit": false,
      "t": 24916.14773958335,
      "d": 22.86584375000166,
      "v": 61
    },
    {
      "midi": 52,
      "hit": false,
      "t": 25373.46461458334,
      "d": 251.52428125000006,
      "v": 72
    },
    {
      "midi": 57,
      "hit": false,
      "t": 25373.46461458334,
      "d": 251.52428125000006,
      "v": 74
    },
    {
      "midi": 61,
      "hit": false,
      "t": 25373.46461458334,
      "d": 251.52428125000006,
      "v": 68
    },
    {
      "midi": 37,
      "hit": false,
      "t": 25624.98889583335,
      "d": 769.8167395833407,
      "v": 107
    },
    {
      "midi": 61,
      "hit": false,
      "t": 26105.171614583338,
      "d": 243.90233333333526,
      "v": 67
    },
    {
      "midi": 52,
      "hit": false,
      "t": 26112.793562500006,
      "d": 236.28038541666683,
      "v": 74
    },
    {
      "midi": 57,
      "hit": false,
      "t": 26112.793562500006,
      "d": 236.28038541666683,
      "v": 74
    },
    {
      "midi": 54,
      "hit": false,
      "t": 26356.695895833353,
      "d": 1615.8529583333402,
      "v": 80
    },
    {
      "midi": 50,
      "hit": false,
      "t": 26356.695895833353,
      "d": 1669.2065937500083,
      "v": 77
    },
    {
      "midi": 57,
      "hit": false,
      "t": 26364.31784375002,
      "d": 1631.0968541666734,
      "v": 84
    },
    {
      "midi": 38,
      "hit": false,
      "t": 26364.31784375002,
      "d": 2187.4990520833417,
      "v": 93
    },
    {
      "midi": 54,
      "hit": false,
      "t": 26836.87861458334,
      "d": 251.52428125000006,
      "v": 61
    },
    {
      "midi": 57,
      "hit": false,
      "t": 26836.87861458334,
      "d": 251.52428125000006,
      "v": 68
    },
    {
      "midi": 62,
      "hit": false,
      "t": 26836.87861458334,
      "d": 251.52428125000006,
      "v": 68
    },
    {
      "midi": 54,
      "hit": false,
      "t": 27568.58561458334,
      "d": 251.52428125000006,
      "v": 66
    },
    {
      "midi": 57,
      "hit": false,
      "t": 27568.58561458334,
      "d": 251.52428125000006,
      "v": 70
    },
    {
      "midi": 62,
      "hit": false,
      "t": 27568.58561458334,
      "d": 251.52428125000006,
      "v": 65
    },
    {
      "midi": 54,
      "hit": false,
      "t": 28300.292614583337,
      "d": 243.90233333333163,
      "v": 67
    },
    {
      "midi": 57,
      "hit": false,
      "t": 28300.292614583337,
      "d": 243.90233333333163,
      "v": 72
    },
    {
      "midi": 62,
      "hit": false,
      "t": 28300.292614583337,
      "d": 243.90233333333163,
      "v": 67
    },
    {
      "midi": 52,
      "hit": false,
      "t": 28506.08520833336,
      "d": 1676.8285416666695,
      "v": 93
    },
    {
      "midi": 57,
      "hit": false,
      "t": 28513.707156250028,
      "d": 1692.0724375000027,
      "v": 68
    },
    {
      "midi": 49,
      "hit": false,
      "t": 28513.707156250028,
      "d": 1699.6943854166711,
      "v": 75
    },
    {
      "midi": 33,
      "hit": false,
      "t": 28521.329104166696,
      "d": 2248.474635416671,
      "v": 88
    },
    {
      "midi": 52,
      "hit": false,
      "t": 29031.999614583336,
      "d": 251.52428125000006,
      "v": 70
    },
    {
      "midi": 57,
      "hit": false,
      "t": 29031.999614583336,
      "d": 251.52428125000006,
      "v": 70
    },
    {
      "midi": 61,
      "hit": false,
      "t": 29031.999614583336,
      "d": 251.52428125000006,
      "v": 67
    },
    {
      "midi": 52,
      "hit": false,
      "t": 29763.706614583334,
      "d": 251.52428125000006,
      "v": 71
    },
    {
      "midi": 57,
      "hit": false,
      "t": 29763.706614583334,
      "d": 251.52428125000006,
      "v": 70
    },
    {
      "midi": 61,
      "hit": false,
      "t": 29763.706614583334,
      "d": 251.52428125000006,
      "v": 65
    },
    {
      "midi": 52,
      "hit": false,
      "t": 30495.413614583333,
      "d": 243.90233333333163,
      "v": 72
    },
    {
      "midi": 57,
      "hit": false,
      "t": 30495.413614583333,
      "d": 243.90233333333163,
      "v": 72
    },
    {
      "midi": 61,
      "hit": false,
      "t": 30495.413614583333,
      "d": 243.90233333333163,
      "v": 67
    },
    {
      "midi": 54,
      "hit": false,
      "t": 30724.072052083364,
      "d": 1920.7308750000047,
      "v": 80
    },
    {
      "midi": 57,
      "hit": false,
      "t": 30731.694000000032,
      "d": 1859.7552916666682,
      "v": 77
    },
    {
      "midi": 50,
      "hit": false,
      "t": 30731.694000000032,
      "d": 1890.2430833333347,
      "v": 97
    },
    {
      "midi": 38,
      "hit": false,
      "t": 30739.3159479167,
      "d": 2256.0965833333394,
      "v": 102
    },
    {
      "midi": 54,
      "hit": false,
      "t": 31227.12061458333,
      "d": 251.52428125000006,
      "v": 62
    },
    {
      "midi": 57,
      "hit": false,
      "t": 31227.12061458333,
      "d": 251.52428125000006,
      "v": 64
    },
    {
      "midi": 62,
      "hit": false,
      "t": 31227.12061458333,
      "d": 251.52428125000006,
      "v": 66
    },
    {
      "midi": 54,
      "hit": false,
      "t": 31958.82761458333,
      "d": 251.52428125000006,
      "v": 67
    },
    {
      "midi": 57,
      "hit": false,
      "t": 31958.82761458333,
      "d": 251.52428125000006,
      "v": 74
    },
    {
      "midi": 62,
      "hit": false,
      "t": 31958.82761458333,
      "d": 251.52428125000006,
      "v": 66
    },
    {
      "midi": 62,
      "hit": false,
      "t": 32690.53461458333,
      "d": 243.90233333333526,
      "v": 67
    },
    {
      "midi": 54,
      "hit": false,
      "t": 32698.156562499997,
      "d": 236.28038541666683,
      "v": 67
    },
    {
      "midi": 57,
      "hit": false,
      "t": 32698.156562499997,
      "d": 236.28038541666683,
      "v": 71
    },
    {
      "midi": 50,
      "hit": false,
      "t": 32911.5711041667,
      "d": 1669.2065937500083,
      "v": 77
    },
    {
      "midi": 58,
      "hit": false,
      "t": 32919.19305208337,
      "d": 76.21947916666977,
      "v": 53
    },
    {
      "midi": 59,
      "hit": false,
      "t": 32919.19305208337,
      "d": 1608.2310104166681,
      "v": 74
    },
    {
      "midi": 55,
      "hit": false,
      "t": 32919.19305208337,
      "d": 1684.450489583338,
      "v": 66
    },
    {
      "midi": 31,
      "hit": false,
      "t": 32926.81500000004,
      "d": 2202.742947916675,
      "v": 84
    },
    {
      "midi": 55,
      "hit": false,
      "t": 33429.863562499995,
      "d": 243.90233333333163,
      "v": 68
    },
    {
      "midi": 59,
      "hit": false,
      "t": 33429.863562499995,
      "d": 243.90233333333163,
      "v": 70
    },
    {
      "midi": 62,
      "hit": false,
      "t": 33429.863562499995,
      "d": 243.90233333333163,
      "v": 66
    },
    {
      "midi": 55,
      "hit": false,
      "t": 34161.57056249999,
      "d": 243.90233333333163,
      "v": 69
    },
    {
      "midi": 59,
      "hit": false,
      "t": 34161.57056249999,
      "d": 243.90233333333163,
      "v": 74
    },
    {
      "midi": 62,
      "hit": false,
      "t": 34161.57056249999,
      "d": 243.90233333333163,
      "v": 68
    },
    {
      "midi": 59,
      "hit": false,
      "t": 34885.655614583324,
      "d": 243.90233333333163,
      "v": 74
    },
    {
      "midi": 55,
      "hit": false,
      "t": 34885.655614583324,
      "d": 251.52428125000006,
      "v": 70
    },
    {
      "midi": 62,
      "hit": false,
      "t": 34885.655614583324,
      "d": 251.52428125000006,
      "v": 69
    },
    {
      "midi": 54,
      "hit": false,
      "t": 35114.31405208338,
      "d": 1669.2065937500083,
      "v": 75
    },
    {
      "midi": 57,
      "hit": false,
      "t": 35121.936000000045,
      "d": 1631.0968541666734,
      "v": 77
    },
    {
      "midi": 50,
      "hit": false,
      "t": 35121.936000000045,
      "d": 1890.243083333342,
      "v": 71
    },
    {
      "midi": 38,
      "hit": false,
      "t": 35129.55794791671,
      "d": 2210.3648958333433,
      "v": 93
    },
    {
      "midi": 57,
      "hit": false,
      "t": 35617.362614583326,
      "d": 243.90233333333163,
      "v": 69
    },
    {
      "midi": 54,
      "hit": false,
      "t": 35617.362614583326,
      "d": 251.52428125000006,
      "v": 62
    },
    {
      "midi": 62,
      "hit": false,
      "t": 35617.362614583326,
      "d": 251.52428125000006,
      "v": 68
    },
    {
      "midi": 54,
      "hit": false,
      "t": 36349.06961458333,
      "d": 251.52428125000006,
      "v": 67
    },
    {
      "midi": 57,
      "hit": false,
      "t": 36356.6915625,
      "d": 243.90233333333163,
      "v": 71
    },
    {
      "midi": 62,
      "hit": false,
      "t": 36356.6915625,
      "d": 243.90233333333163,
      "v": 68
    },
    {
      "midi": 57,
      "hit": false,
      "t": 37080.77661458333,
      "d": 243.90233333333163,
      "v": 71
    },
    {
      "midi": 62,
      "hit": false,
      "t": 37080.77661458333,
      "d": 243.90233333333163,
      "v": 68
    },
    {
      "midi": 54,
      "hit": false,
      "t": 37080.77661458333,
      "d": 251.52428125000006,
      "v": 67
    },
    {
      "midi": 59,
      "hit": false,
      "t": 37294.19115625005,
      "d": 1676.8285416666695,
      "v": 81
    },
    {
      "midi": 54,
      "hit": false,
      "t": 37301.81310416672,
      "d": 1783.5358124999984,
      "v": 71
    },
    {
      "midi": 50,
      "hit": false,
      "t": 37301.81310416672,
      "d": 1821.6455520833333,
      "v": 81
    },
    {
      "midi": 35,
      "hit": false,
      "t": 37301.81310416672,
      "d": 2278.9624270833374,
      "v": 81
    },
    {
      "midi": 54,
      "hit": false,
      "t": 37812.48361458333,
      "d": 251.52428125000006,
      "v": 63
    },
    {
      "midi": 62,
      "hit": false,
      "t": 37812.48361458333,
      "d": 251.52428125000006,
      "v": 67
    },
    {
      "midi": 59,
      "hit": false,
      "t": 37820.1055625,
      "d": 243.90233333333163,
      "v": 70
    },
    {
      "midi": 54,
      "hit": false,
      "t": 38544.190614583335,
      "d": 251.52428125000006,
      "v": 65
    },
    {
      "midi": 59,
      "hit": false,
      "t": 38544.190614583335,
      "d": 251.52428125000006,
      "v": 71
    },
    {
      "midi": 62,
      "hit": false,
      "t": 38544.190614583335,
      "d": 251.52428125000006,
      "v": 68
    },
    {
      "midi": 54,
      "hit": false,
      "t": 39275.89761458334,
      "d": 243.90233333333163,
      "v": 66
    },
    {
      "midi": 59,
      "hit": false,
      "t": 39275.89761458334,
      "d": 243.90233333333163,
      "v": 69
    },
    {
      "midi": 62,
      "hit": false,
      "t": 39275.89761458334,
      "d": 243.90233333333163,
      "v": 68
    },
    {
      "midi": 57,
      "hit": false,
      "t": 39504.55605208339,
      "d": 1653.9626979166715,
      "v": 84
    },
    {
      "midi": 52,
      "hit": false,
      "t": 39512.17800000006,
      "d": 1638.7188020833346,
      "v": 93
    },
    {
      "midi": 49,
      "hit": false,
      "t": 39512.17800000006,
      "d": 1783.5358125000057,
      "v": 67
    },
    {
      "midi": 33,
      "hit": false,
      "t": 39519.79994791673,
      "d": 1806.4016562500037,
      "v": 102
    },
    {
      "midi": 52,
      "hit": false,
      "t": 40007.60461458334,
      "d": 251.52428125000006,
      "v": 67
    },
    {
      "midi": 57,
      "hit": false,
      "t": 40007.60461458334,
      "d": 251.52428125000006,
      "v": 67
    },
    {
      "midi": 61,
      "hit": false,
      "t": 40007.60461458334,
      "d": 251.52428125000006,
      "v": 64
    },
    {
      "midi": 52,
      "hit": false,
      "t": 40739.31161458334,
      "d": 251.52428125000006,
      "v": 71
    },
    {
      "midi": 57,
      "hit": false,
      "t": 40739.31161458334,
      "d": 251.52428125000006,
      "v": 72
    },
    {
      "midi": 61,
      "hit": false,
      "t": 40739.31161458334,
      "d": 251.52428125000006,
      "v": 67
    },
    {
      "midi": 52,
      "hit": false,
      "t": 41471.01861458334,
      "d": 251.52428125000006,
      "v": 72
    },
    {
      "midi": 57,
      "hit": false,
      "t": 41471.01861458334,
      "d": 251.52428125000006,
      "v": 74
    },
    {
      "midi": 61,
      "hit": false,
      "t": 41471.01861458334,
      "d": 251.52428125000006,
      "v": 69
    },
    {
      "midi": 49,
      "hit": false,
      "t": 41692.05510416673,
      "d": 1897.8650312500104,
      "v": 75
    },
    {
      "midi": 57,
      "hit": false,
      "t": 41699.677052083396,
      "d": 1874.999187500005,
      "v": 88
    },
    {
      "midi": 52,
      "hit": false,
      "t": 41699.677052083396,
      "d": 1905.4869791666788,
      "v": 93
    },
    {
      "midi": 33,
      "hit": false,
      "t": 41707.299000000065,
      "d": 807.9264791666646,
      "v": 107
    },
    {
      "midi": 52,
      "hit": false,
      "t": 42202.725614583345,
      "d": 251.52428125000006,
      "v": 72
    },
    {
      "midi": 57,
      "hit": false,
      "t": 42202.725614583345,
      "d": 251.52428125000006,
      "v": 72
    },
    {
      "midi": 61,
      "hit": false,
      "t": 42202.725614583345,
      "d": 251.52428125000006,
      "v": 67
    },
    {
      "midi": 35,
      "hit": false,
      "t": 42461.871843750065,
      "d": 754.5728437500002,
      "v": 107
    },
    {
      "midi": 52,
      "hit": false,
      "t": 42934.43261458335,
      "d": 251.52428125000006,
      "v": 72
    },
    {
      "midi": 57,
      "hit": false,
      "t": 42934.43261458335,
      "d": 251.52428125000006,
      "v": 74
    },
    {
      "midi": 61,
      "hit": false,
      "t": 42934.43261458335,
      "d": 251.52428125000006,
      "v": 67
    },
    {
      "midi": 37,
      "hit": false,
      "t": 43155.46910416673,
      "d": 769.8167395833516,
      "v": 90
    },
    {
      "midi": 52,
      "hit": false,
      "t": 43666.13961458335,
      "d": 251.52428125000006,
      "v": 74
    },
    {
      "midi": 57,
      "hit": false,
      "t": 43666.13961458335,
      "d": 251.52428125000006,
      "v": 74
    },
    {
      "midi": 61,
      "hit": false,
      "t": 43666.13961458335,
      "d": 251.52428125000006,
      "v": 69
    },
    {
      "midi": 57,
      "hit": false,
      "t": 43902.42000000008,
      "d": 1714.9382812500044,
      "v": 77
    },
    {
      "midi": 54,
      "hit": false,
      "t": 43910.04194791675,
      "d": 1783.5358125000057,
      "v": 60
    },
    {
      "midi": 50,
      "hit": false,
      "t": 43910.04194791675,
      "d": 1798.7797083333426,
      "v": 77
    },
    {
      "midi": 38,
      "hit": false,
      "t": 43910.04194791675,
      "d": 2210.3648958333433,
      "v": 88
    },
    {
      "midi": 54,
      "hit": false,
      "t": 44397.84661458335,
      "d": 251.52428125000006,
      "v": 62
    },
    {
      "midi": 57,
      "hit": false,
      "t": 44397.84661458335,
      "d": 251.52428125000006,
      "v": 69
    },
    {
      "midi": 62,
      "hit": false,
      "t": 44397.84661458335,
      "d": 251.52428125000006,
      "v": 68
    },
    {
      "midi": 54,
      "hit": false,
      "t": 45129.553614583354,
      "d": 251.52428125000006,
      "v": 66
    },
    {
      "midi": 57,
      "hit": false,
      "t": 45129.553614583354,
      "d": 251.52428125000006,
      "v": 72
    },
    {
      "midi": 62,
      "hit": false,
      "t": 45129.553614583354,
      "d": 251.52428125000006,
      "v": 69
    },
    {
      "midi": 54,
      "hit": false,
      "t": 45861.260614583356,
      "d": 243.90233333333163,
      "v": 65
    },
    {
      "midi": 57,
      "hit": false,
      "t": 45861.260614583356,
      "d": 243.90233333333163,
      "v": 69
    },
    {
      "midi": 62,
      "hit": false,
      "t": 45861.260614583356,
      "d": 243.90233333333163,
      "v": 70
    },
    {
      "midi": 57,
      "hit": false,
      "t": 46051.80931250009,
      "d": 1890.243083333342,
      "v": 97
    },
    {
      "midi": 49,
      "hit": false,
      "t": 46059.43126041676,
      "d": 1928.3528229166768,
      "v": 63
    },
    {
      "midi": 52,
      "hit": false,
      "t": 46067.053208333426,
      "d": 1859.7552916666682,
      "v": 77
    },
    {
      "midi": 33,
      "hit": false,
      "t": 46074.675156250094,
      "d": 2263.718531250015,
      "v": 102
    },
    {
      "midi": 52,
      "hit": false,
      "t": 46592.96761458335,
      "d": 251.52428125000006,
      "v": 68
    },
    {
      "midi": 57,
      "hit": false,
      "t": 46592.96761458335,
      "d": 251.52428125000006,
      "v": 64
    },
    {
      "midi": 61,
      "hit": false,
      "t": 46592.96761458335,
      "d": 251.52428125000006,
      "v": 60
    },
    {
      "midi": 52,
      "hit": false,
      "t": 47324.67461458335,
      "d": 251.52428125000006,
      "v": 67
    },
    {
      "midi": 57,
      "hit": false,
      "t": 47324.67461458335,
      "d": 251.52428125000006,
      "v": 68
    },
    {
      "midi": 61,
      "hit": false,
      "t": 47324.67461458335,
      "d": 251.52428125000006,
      "v": 63
    },
    {
      "midi": 52,
      "hit": false,
      "t": 48056.381614583355,
      "d": 243.90233333333163,
      "v": 69
    },
    {
      "midi": 57,
      "hit": false,
      "t": 48056.381614583355,
      "d": 251.52428125000006,
      "v": 69
    },
    {
      "midi": 61,
      "hit": false,
      "t": 48056.381614583355,
      "d": 251.52428125000006,
      "v": 66
    },
    {
      "midi": 57,
      "hit": false,
      "t": 48277.41810416677,
      "d": 1631.0968541666734,
      "v": 84
    },
    {
      "midi": 54,
      "hit": false,
      "t": 48277.41810416677,
      "d": 1699.6943854166748,
      "v": 60
    },
    {
      "midi": 50,
      "hit": false,
      "t": 48285.04005208344,
      "d": 1798.7797083333426,
      "v": 81
    },
    {
      "midi": 38,
      "hit": false,
      "t": 48300.283947916774,
      "d": 2233.2307395833413,
      "v": 107
    },
    {
      "midi": 57,
      "hit": false,
      "t": 48788.08861458335,
      "d": 243.90233333333163,
      "v": 67
    },
    {
      "midi": 54,
      "hit": false,
      "t": 48788.08861458335,
      "d": 251.52428125000006,
      "v": 62
    },
    {
      "midi": 62,
      "hit": false,
      "t": 48788.08861458335,
      "d": 251.52428125000006,
      "v": 67
    },
    {
      "midi": 54,
      "hit": false,
      "t": 49519.79561458335,
      "d": 251.52428125000006,
      "v": 62
    },
    {
      "midi": 57,
      "hit": false,
      "t": 49519.79561458335,
      "d": 251.52428125000006,
      "v": 70
    },
    {
      "midi": 62,
      "hit": false,
      "t": 49519.79561458335,
      "d": 251.52428125000006,
      "v": 68
    },
    {
      "midi": 54,
      "hit": false,
      "t": 50251.502614583354,
      "d": 243.90233333333163,
      "v": 64
    },
    {
      "midi": 57,
      "hit": false,
      "t": 50259.12456250002,
      "d": 236.2803854166632,
      "v": 70
    },
    {
      "midi": 62,
      "hit": false,
      "t": 50259.12456250002,
      "d": 236.2803854166632,
      "v": 69
    },
    {
      "midi": 55,
      "hit": false,
      "t": 50487.78300000011,
      "d": 1859.7552916666755,
      "v": 81
    },
    {
      "midi": 31,
      "hit": false,
      "t": 50487.78300000011,
      "d": 2210.3648958333433,
      "v": 97
    },
    {
      "midi": 59,
      "hit": false,
      "t": 50495.40494791678,
      "d": 1897.8650312500104,
      "v": 77
    },
    {
      "midi": 50,
      "hit": false,
      "t": 50495.40494791678,
      "d": 2012.1942500000077,
      "v": 84
    },
    {
      "midi": 59,
      "hit": false,
      "t": 50983.20961458336,
      "d": 251.52428125000006,
      "v": 63
    },
    {
      "midi": 62,
      "hit": false,
      "t": 50983.20961458336,
      "d": 251.52428125000006,
      "v": 66
    },
    {
      "midi": 55,
      "hit": false,
      "t": 50990.831562500025,
      "d": 243.90233333333163,
      "v": 62
    },
    {
      "midi": 55,
      "hit": false,
      "t": 51714.91661458336,
      "d": 251.52428125000006,
      "v": 66
    },
    {
      "midi": 59,
      "hit": false,
      "t": 51714.91661458336,
      "d": 251.52428125000006,
      "v": 67
    },
    {
      "midi": 62,
      "hit": false,
      "t": 51714.91661458336,
      "d": 487.80466666666325,
      "v": 64
    },
    {
      "midi": 55,
      "hit": false,
      "t": 52446.62361458335,
      "d": 251.52428125000006,
      "v": 68
    },
    {
      "midi": 59,
      "hit": false,
      "t": 52446.62361458335,
      "d": 251.52428125000006,
      "v": 74
    },
    {
      "midi": 62,
      "hit": false,
      "t": 52446.62361458335,
      "d": 251.52428125000006,
      "v": 67
    },
    {
      "midi": 38,
      "hit": false,
      "t": 52682.90400000012,
      "d": 2233.2307395833413,
      "v": 107
    },
    {
      "midi": 50,
      "hit": false,
      "t": 52690.52594791679,
      "d": 1798.7797083333353,
      "v": 81
    },
    {
      "midi": 54,
      "hit": false,
      "t": 52690.52594791679,
      "d": 1829.2675000000017,
      "v": 84
    },
    {
      "midi": 57,
      "hit": false,
      "t": 52698.147895833456,
      "d": 1714.938281249997,
      "v": 93
    },
    {
      "midi": 57,
      "hit": false,
      "t": 53185.95256250002,
      "d": 236.2803854166632,
      "v": 70
    },
    {
      "midi": 54,
      "hit": false,
      "t": 53185.95256250002,
      "d": 243.90233333333163,
      "v": 62
    },
    {
      "midi": 62,
      "hit": false,
      "t": 53185.95256250002,
      "d": 243.90233333333163,
      "v": 68
    },
    {
      "midi": 57,
      "hit": false,
      "t": 53917.65956250001,
      "d": 236.2803854166632,
      "v": 69
    },
    {
      "midi": 62,
      "hit": false,
      "t": 53917.65956250001,
      "d": 236.2803854166632,
      "v": 69
    },
    {
      "midi": 54,
      "hit": false,
      "t": 53917.65956250001,
      "d": 243.90233333333163,
      "v": 62
    },
    {
      "midi": 54,
      "hit": false,
      "t": 54641.744614583346,
      "d": 243.90233333333163,
      "v": 60
    },
    {
      "midi": 57,
      "hit": false,
      "t": 54641.744614583346,
      "d": 243.90233333333163,
      "v": 69
    },
    {
      "midi": 62,
      "hit": false,
      "t": 54641.744614583346,
      "d": 243.90233333333163,
      "v": 69
    },
    {
      "midi": 57,
      "hit": false,
      "t": 54870.40305208346,
      "d": 1737.8041250000024,
      "v": 93
    },
    {
      "midi": 52,
      "hit": false,
      "t": 54878.025000000125,
      "d": 1745.4260729166708,
      "v": 93
    },
    {
      "midi": 49,
      "hit": false,
      "t": 54878.025000000125,
      "d": 1775.9138645833373,
      "v": 67
    },
    {
      "midi": 33,
      "hit": false,
      "t": 54878.025000000125,
      "d": 2233.2307395833413,
      "v": 107
    },
    {
      "midi": 52,
      "hit": false,
      "t": 55373.45161458334,
      "d": 251.52428125000006,
      "v": 68
    },
    {
      "midi": 57,
      "hit": false,
      "t": 55381.07356250001,
      "d": 243.90233333333163,
      "v": 69
    },
    {
      "midi": 61,
      "hit": false,
      "t": 55381.07356250001,
      "d": 243.90233333333163,
      "v": 63
    },
    {
      "midi": 52,
      "hit": false,
      "t": 56105.15861458334,
      "d": 251.52428125000006,
      "v": 71
    },
    {
      "midi": 57,
      "hit": false,
      "t": 56105.15861458334,
      "d": 251.52428125000006,
      "v": 72
    },
    {
      "midi": 61,
      "hit": false,
      "t": 56105.15861458334,
      "d": 251.52428125000006,
      "v": 69
    },
    {
      "midi": 61,
      "hit": false,
      "t": 56836.865614583345,
      "d": 243.90233333333163,
      "v": 67
    },
    {
      "midi": 52,
      "hit": false,
      "t": 56844.48756250001,
      "d": 236.2803854166632,
      "v": 72
    },
    {
      "midi": 57,
      "hit": false,
      "t": 56844.48756250001,
      "d": 236.2803854166632,
      "v": 72
    },
    {
      "midi": 54,
      "hit": false,
      "t": 57050.280156250126,
      "d": 1814.0236041666722,
      "v": 67
    },
    {
      "midi": 57,
      "hit": false,
      "t": 57057.902104166795,
      "d": 1653.9626979166715,
      "v": 81
    },
    {
      "midi": 50,
      "hit": false,
      "t": 57057.902104166795,
      "d": 1692.0724375000063,
      "v": 77
    },
    {
      "midi": 38,
      "hit": false,
      "t": 57065.52405208346,
      "d": 2126.523468750005,
      "v": 107
    },
    {
      "midi": 62,
      "hit": false,
      "t": 57568.57261458335,
      "d": 251.52428125000733,
      "v": 68
    },
    {
      "midi": 54,
      "hit": false,
      "t": 57576.194562500015,
      "d": 243.9023333333389,
      "v": 64
    },
    {
      "midi": 57,
      "hit": false,
      "t": 57576.194562500015,
      "d": 243.9023333333389,
      "v": 69
    },
    {
      "midi": 57,
      "hit": false,
      "t": 58307.90156250002,
      "d": 236.2803854166632,
      "v": 72
    },
    {
      "midi": 54,
      "hit": false,
      "t": 58307.90156250002,
      "d": 243.90233333333163,
      "v": 67
    },
    {
      "midi": 62,
      "hit": false,
      "t": 58307.90156250002,
      "d": 243.90233333333163,
      "v": 69
    },
    {
      "midi": 54,
      "hit": false,
      "t": 59031.98661458335,
      "d": 236.2803854166632,
      "v": 65
    },
    {
      "midi": 57,
      "hit": false,
      "t": 59031.98661458335,
      "d": 243.90233333333163,
      "v": 70
    },
    {
      "midi": 62,
      "hit": false,
      "t": 59031.98661458335,
      "d": 243.90233333333163,
      "v": 69
    },
    {
      "midi": 57,
      "hit": false,
      "t": 59253.0231041668,
      "d": 1836.8894479166775,
      "v": 102
    },
    {
      "midi": 52,
      "hit": false,
      "t": 59260.64505208347,
      "d": 1829.267500000009,
      "v": 97
    },
    {
      "midi": 49,
      "hit": false,
      "t": 59260.64505208347,
      "d": 1836.8894479166775,
      "v": 80
    },
    {
      "midi": 33,
      "hit": false,
      "t": 59275.88894791681,
      "d": 708.8411562500041,
      "v": 107
    },
    {
      "midi": 34,
      "hit": false,
      "t": 59291.13284375014,
      "d": 15.243895833336865,
      "v": 67
    },
    {
      "midi": 61,
      "hit": false,
      "t": 59763.69361458335,
      "d": 243.90233333333163,
      "v": 66
    },
    {
      "midi": 57,
      "hit": false,
      "t": 59763.69361458335,
      "d": 251.52428125000006,
      "v": 70
    },
    {
      "midi": 52,
      "hit": false,
      "t": 59763.69361458335,
      "d": 259.1462291666685,
      "v": 70
    },
    {
      "midi": 35,
      "hit": false,
      "t": 60015.21789583348,
      "d": 754.5728437500002,
      "v": 107
    },
    {
      "midi": 61,
      "hit": false,
      "t": 60495.400614583355,
      "d": 243.90233333333163,
      "v": 37
    },
    {
      "midi": 57,
      "hit": false,
      "t": 60495.400614583355,
      "d": 251.52428125000006,
      "v": 54
    },
    {
      "midi": 52,
      "hit": false,
      "t": 60503.022562500024,
      "d": 243.90233333333163,
      "v": 44
    },
    {
      "midi": 37,
      "hit": false,
      "t": 60731.68100000014,
      "d": 731.7070000000094,
      "v": 107
    },
    {
      "midi": 52,
      "hit": false,
      "t": 61227.10761458336,
      "d": 236.28038541667047,
      "v": 54
    },
    {
      "midi": 61,
      "hit": false,
      "t": 61227.10761458336,
      "d": 236.28038541667047,
      "v": 41
    },
    {
      "midi": 50,
      "hit": false,
      "t": 61356.68072916669,
      "d": 1753.0480208333393,
      "v": 54
    },
    {
      "midi": 54,
      "hit": false,
      "t": 61402.412416666695,
      "d": 1714.9382812500044,
      "v": 30
    },
    {
      "midi": 50,
      "hit": false,
      "t": 61440.52215625015,
      "d": 1699.6943854166748,
      "v": 93
    },
    {
      "midi": 57,
      "hit": false,
      "t": 61448.144104166815,
      "d": 1615.8529583333366,
      "v": 107
    },
    {
      "midi": 54,
      "hit": false,
      "t": 61448.144104166815,
      "d": 1699.6943854166748,
      "v": 90
    },
    {
      "midi": 38,
      "hit": false,
      "t": 61448.144104166815,
      "d": 1821.6455520833406,
      "v": 107
    },
    {
      "midi": 57,
      "hit": false,
      "t": 61455.76605208336,
      "d": 15.243895833336865,
      "v": 47
    },
    {
      "midi": 62,
      "hit": false,
      "t": 61509.11968750003,
      "d": 1570.1212708333333,
      "v": 72
    },
    {
      "midi": 50,
      "hit": false,
      "t": 63567.045625000035,
      "d": 2202.742947916682,
      "v": 31
    },
    {
      "midi": 54,
      "hit": false,
      "t": 63605.15536458337,
      "d": 2217.986843750019,
      "v": 37
    },
    {
      "midi": 48,
      "hit": false,
      "t": 63650.88705208349,
      "d": 1943.5967187500064,
      "v": 97
    },
    {
      "midi": 54,
      "hit": false,
      "t": 63650.88705208349,
      "d": 2012.1942500000005,
      "v": 90
    },
    {
      "midi": 38,
      "hit": false,
      "t": 63658.50900000016,
      "d": 785.0606354166739,
      "v": 107
    },
    {
      "midi": 57,
      "hit": false,
      "t": 63658.50900000016,
      "d": 1935.974770833338,
      "v": 93
    },
    {
      "midi": 40,
      "hit": false,
      "t": 63673.752895833495,
      "d": 30.487791666666453,
      "v": 93
    },
    {
      "midi": 57,
      "hit": false,
      "t": 63681.37484375004,
      "d": 2103.6576250000144,
      "v": 33
    },
    {
      "midi": 60,
      "hit": false,
      "t": 63734.72847916671,
      "d": 2065.5478854166795,
      "v": 54
    },
    {
      "midi": 40,
      "hit": false,
      "t": 64397.83794791683,
      "d": 754.5728437500002,
      "v": 107
    },
    {
      "midi": 42,
      "hit": false,
      "t": 65129.54494791683,
      "d": 746.9508958333172,
      "v": 107
    },
    {
      "midi": 43,
      "hit": false,
      "t": 65861.25194791683,
      "d": 2233.2307395833195,
      "v": 88
    },
    {
      "midi": 59,
      "hit": false,
      "t": 65868.87389583349,
      "d": 1844.511395833324,
      "v": 81
    },
    {
      "midi": 55,
      "hit": false,
      "t": 65868.87389583349,
      "d": 1874.9991874999978,
      "v": 102
    },
    {
      "midi": 50,
      "hit": false,
      "t": 65868.87389583349,
      "d": 1913.1089270833327,
      "v": 93
    },
    {
      "midi": 57,
      "hit": false,
      "t": 65884.11779166681,
      "d": 30.487791666659177,
      "v": 71
    },
    {
      "midi": 55,
      "hit": false,
      "t": 66349.05661458339,
      "d": 472.5607708333264,
      "v": 31
    },
    {
      "midi": 59,
      "hit": false,
      "t": 66349.05661458339,
      "d": 472.5607708333264,
      "v": 63
    },
    {
      "midi": 62,
      "hit": false,
      "t": 66349.05661458339,
      "d": 472.5607708333264,
      "v": 36
    },
    {
      "midi": 59,
      "hit": false,
      "t": 67080.76361458338,
      "d": 266.76817708332965,
      "v": 63
    },
    {
      "midi": 55,
      "hit": false,
      "t": 67088.38556250004,
      "d": 259.1462291666685,
      "v": 38
    },
    {
      "midi": 62,
      "hit": false,
      "t": 67088.38556250004,
      "d": 259.1462291666685,
      "v": 41
    },
    {
      "midi": 59,
      "hit": false,
      "t": 67812.47061458338,
      "d": 236.28038541665592,
      "v": 67
    },
    {
      "midi": 62,
      "hit": false,
      "t": 67812.47061458338,
      "d": 236.28038541665592,
      "v": 33
    },
    {
      "midi": 55,
      "hit": false,
      "t": 67820.09256250004,
      "d": 221.0364895833336,
      "v": 41
    },
    {
      "midi": 57,
      "hit": false,
      "t": 68048.75100000015,
      "d": 1707.3163333333214,
      "v": 93
    },
    {
      "midi": 50,
      "hit": false,
      "t": 68048.75100000015,
      "d": 1943.5967187499919,
      "v": 81
    },
    {
      "midi": 54,
      "hit": false,
      "t": 68056.37294791681,
      "d": 1935.9747708333307,
      "v": 80
    },
    {
      "midi": 38,
      "hit": false,
      "t": 68063.99489583347,
      "d": 2217.986843749997,
      "v": 102
    },
    {
      "midi": 57,
      "hit": false,
      "t": 68551.79956250003,
      "d": 243.90233333333163,
      "v": 47
    },
    {
      "midi": 54,
      "hit": false,
      "t": 68551.79956250003,
      "d": 251.52428124999278,
      "v": 21
    },
    {
      "midi": 62,
      "hit": false,
      "t": 68551.79956250003,
      "d": 251.52428124999278,
      "v": 38
    },
    {
      "midi": 54,
      "hit": false,
      "t": 69283.50656250003,
      "d": 243.90233333333163,
      "v": 30
    },
    {
      "midi": 57,
      "hit": false,
      "t": 69283.50656250003,
      "d": 243.90233333333163,
      "v": 47
    },
    {
      "midi": 62,
      "hit": false,
      "t": 69283.50656250003,
      "d": 243.90233333333163,
      "v": 47
    },
    {
      "midi": 62,
      "hit": false,
      "t": 70007.59161458336,
      "d": 243.90233333333163,
      "v": 41
    },
    {
      "midi": 54,
      "hit": false,
      "t": 70015.21356250002,
      "d": 236.28038541667047,
      "v": 26
    },
    {
      "midi": 57,
      "hit": false,
      "t": 70015.21356250002,
      "d": 236.28038541667047,
      "v": 51
    },
    {
      "midi": 50,
      "hit": false,
      "t": 70236.25005208347,
      "d": 1905.486979166657,
      "v": 84
    },
    {
      "midi": 59,
      "hit": false,
      "t": 70243.87200000013,
      "d": 1852.1333437499998,
      "v": 81
    },
    {
      "midi": 54,
      "hit": false,
      "t": 70243.87200000013,
      "d": 1905.486979166657,
      "v": 80
    },
    {
      "midi": 35,
      "hit": false,
      "t": 70251.4939479168,
      "d": 2202.742947916646,
      "v": 97
    },
    {
      "midi": 59,
      "hit": false,
      "t": 70746.92056250003,
      "d": 243.90233333333163,
      "v": 51
    },
    {
      "midi": 62,
      "hit": false,
      "t": 70746.92056250003,
      "d": 251.52428124999278,
      "v": 38
    },
    {
      "midi": 54,
      "hit": false,
      "t": 70746.92056250003,
      "d": 259.14622916665394,
      "v": 23
    },
    {
      "midi": 62,
      "hit": false,
      "t": 71471.00561458335,
      "d": 251.52428124999278,
      "v": 38
    },
    {
      "midi": 54,
      "hit": false,
      "t": 71478.62756250001,
      "d": 243.90233333333163,
      "v": 26
    },
    {
      "midi": 59,
      "hit": false,
      "t": 71478.62756250001,
      "d": 243.90233333333163,
      "v": 54
    },
    {
      "midi": 59,
      "hit": false,
      "t": 72202.71261458335,
      "d": 243.90233333333163,
      "v": 58
    },
    {
      "midi": 62,
      "hit": false,
      "t": 72202.71261458335,
      "d": 243.90233333333163,
      "v": 44
    },
    {
      "midi": 54,
      "hit": false,
      "t": 72202.71261458335,
      "d": 251.52428124999278,
      "v": 33
    },
    {
      "midi": 55,
      "hit": false,
      "t": 72400.88326041678,
      "d": 1661.58464583334,
      "v": 93
    },
    {
      "midi": 50,
      "hit": false,
      "t": 72400.88326041678,
      "d": 1669.206593750001,
      "v": 84
    },
    {
      "midi": 59,
      "hit": false,
      "t": 72408.50520833344,
      "d": 1600.609062500007,
      "v": 81
    },
    {
      "midi": 31,
      "hit": false,
      "t": 72416.1271562501,
      "d": 2271.340479166669,
      "v": 84
    },
    {
      "midi": 55,
      "hit": false,
      "t": 72934.41961458334,
      "d": 251.52428125000733,
      "v": 31
    },
    {
      "midi": 59,
      "hit": false,
      "t": 72934.41961458334,
      "d": 251.52428125000733,
      "v": 27
    },
    {
      "midi": 62,
      "hit": false,
      "t": 72934.41961458334,
      "d": 251.52428125000733,
      "v": 23
    },
    {
      "midi": 55,
      "hit": false,
      "t": 73666.12661458335,
      "d": 251.52428124999278,
      "v": 36
    },
    {
      "midi": 59,
      "hit": false,
      "t": 73666.12661458335,
      "d": 251.52428124999278,
      "v": 51
    },
    {
      "midi": 62,
      "hit": false,
      "t": 73666.12661458335,
      "d": 251.52428124999278,
      "v": 29
    },
    {
      "midi": 55,
      "hit": false,
      "t": 74397.83361458335,
      "d": 243.90233333333163,
      "v": 44
    },
    {
      "midi": 59,
      "hit": false,
      "t": 74397.83361458335,
      "d": 243.90233333333163,
      "v": 63
    },
    {
      "midi": 62,
      "hit": false,
      "t": 74397.83361458335,
      "d": 243.90233333333163,
      "v": 36
    },
    {
      "midi": 57,
      "hit": false,
      "t": 74626.49205208346,
      "d": 1829.2674999999726,
      "v": 107
    },
    {
      "midi": 33,
      "hit": false,
      "t": 74634.11400000012,
      "d": 2027.4381458333082,
      "v": 107
    },
    {
      "midi": 52,
      "hit": false,
      "t": 74641.73594791678,
      "d": 1791.1577604166523,
      "v": 97
    },
    {
      "midi": 49,
      "hit": false,
      "t": 74641.73594791678,
      "d": 1958.8406145833142,
      "v": 80
    },
    {
      "midi": 52,
      "hit": false,
      "t": 75129.54061458334,
      "d": 251.52428124999278,
      "v": 41
    },
    {
      "midi": 57,
      "hit": false,
      "t": 75129.54061458334,
      "d": 251.52428124999278,
      "v": 54
    },
    {
      "midi": 61,
      "hit": false,
      "t": 75129.54061458334,
      "d": 251.52428124999278,
      "v": 37
    },
    {
      "midi": 52,
      "hit": false,
      "t": 75868.8695625,
      "d": 243.90233333333163,
      "v": 51
    },
    {
      "midi": 57,
      "hit": false,
      "t": 75868.8695625,
      "d": 243.90233333333163,
      "v": 63
    },
    {
      "midi": 61,
      "hit": false,
      "t": 75868.8695625,
      "d": 243.90233333333163,
      "v": 30
    },
    {
      "midi": 57,
      "hit": false,
      "t": 76600.57656249999,
      "d": 236.28038541667047,
      "v": 63
    },
    {
      "midi": 61,
      "hit": false,
      "t": 76600.57656249999,
      "d": 236.28038541667047,
      "v": 37
    },
    {
      "midi": 52,
      "hit": false,
      "t": 76600.57656249999,
      "d": 243.90233333333163,
      "v": 58
    },
    {
      "midi": 52,
      "hit": false,
      "t": 76836.85694791676,
      "d": 1806.4016562500037,
      "v": 74
    },
    {
      "midi": 57,
      "hit": false,
      "t": 76844.47889583342,
      "d": 1737.8041250000097,
      "v": 97
    },
    {
      "midi": 49,
      "hit": false,
      "t": 76844.47889583342,
      "d": 1760.6699687500077,
      "v": 80
    },
    {
      "midi": 33,
      "hit": false,
      "t": 76852.10084375009,
      "d": 769.8167395833443,
      "v": 107
    },
    {
      "midi": 61,
      "hit": false,
      "t": 77324.66161458332,
      "d": 243.90233333333163,
      "v": 30
    },
    {
      "midi": 57,
      "hit": false,
      "t": 77332.28356249999,
      "d": 236.28038541667047,
      "v": 58
    },
    {
      "midi": 52,
      "hit": false,
      "t": 77332.28356249999,
      "d": 243.90233333333163,
      "v": 51
    },
    {
      "midi": 35,
      "hit": false,
      "t": 77568.56394791676,
      "d": 777.4386875000055,
      "v": 107
    },
    {
      "midi": 52,
      "hit": false,
      "t": 78056.36861458332,
      "d": 251.52428124999278,
      "v": 47
    },
    {
      "midi": 57,
      "hit": false,
      "t": 78056.36861458332,
      "d": 251.52428124999278,
      "v": 54
    },
    {
      "midi": 61,
      "hit": false,
      "t": 78056.36861458332,
      "d": 251.52428124999278,
      "v": 26
    },
    {
      "midi": 37,
      "hit": false,
      "t": 78285.02705208343,
      "d": 769.8167395833298,
      "v": 107
    },
    {
      "midi": 52,
      "hit": false,
      "t": 78788.07561458331,
      "d": 243.90233333333163,
      "v": 54
    },
    {
      "midi": 57,
      "hit": false,
      "t": 78788.07561458331,
      "d": 251.52428124999278,
      "v": 54
    },
    {
      "midi": 61,
      "hit": false,
      "t": 78788.07561458331,
      "d": 251.52428124999278,
      "v": 41
    },
    {
      "midi": 54,
      "hit": false,
      "t": 79009.11210416676,
      "d": 1852.1333437499998,
      "v": 84
    },
    {
      "midi": 38,
      "hit": false,
      "t": 79016.73405208343,
      "d": 2263.7185312499932,
      "v": 107
    },
    {
      "midi": 57,
      "hit": false,
      "t": 79024.35600000009,
      "d": 1829.2675000000163,
      "v": 97
    },
    {
      "midi": 50,
      "hit": false,
      "t": 79024.35600000009,
      "d": 1966.4625625000044,
      "v": 81
    },
    {
      "midi": 62,
      "hit": false,
      "t": 79519.7826145833,
      "d": 243.90233333333163,
      "v": 38
    },
    {
      "midi": 54,
      "hit": false,
      "t": 79519.7826145833,
      "d": 251.52428124999278,
      "v": 13
    },
    {
      "midi": 57,
      "hit": false,
      "t": 79527.40456249996,
      "d": 236.28038541667047,
      "v": 47
    },
    {
      "midi": 54,
      "hit": false,
      "t": 80251.48961458329,
      "d": 251.52428124999278,
      "v": 18
    },
    {
      "midi": 57,
      "hit": false,
      "t": 80251.48961458329,
      "d": 251.52428124999278,
      "v": 47
    },
    {
      "midi": 62,
      "hit": false,
      "t": 80251.48961458329,
      "d": 251.52428124999278,
      "v": 41
    },
    {
      "midi": 57,
      "hit": false,
      "t": 80983.19661458328,
      "d": 243.90233333333163,
      "v": 44
    },
    {
      "midi": 62,
      "hit": false,
      "t": 80983.19661458328,
      "d": 243.90233333333163,
      "v": 51
    },
    {
      "midi": 54,
      "hit": false,
      "t": 80990.81856249995,
      "d": 236.28038541667047,
      "v": 30
    },
    {
      "midi": 57,
      "hit": false,
      "t": 81234.72089583342,
      "d": 1890.2430833333347,
      "v": 102
    },
    {
      "midi": 49,
      "hit": false,
      "t": 81242.34284375008,
      "d": 1928.3528229166695,
      "v": 75
    },
    {
      "midi": 33,
      "hit": false,
      "t": 81242.34284375008,
      "d": 1974.0845104166656,
      "v": 107
    },
    {
      "midi": 52,
      "hit": false,
      "t": 81242.34284375008,
      "d": 1989.3284062500024,
      "v": 93
    },
    {
      "midi": 52,
      "hit": false,
      "t": 81714.90361458328,
      "d": 251.52428124999278,
      "v": 41
    },
    {
      "midi": 57,
      "hit": false,
      "t": 81714.90361458328,
      "d": 251.52428124999278,
      "v": 41
    },
    {
      "midi": 61,
      "hit": false,
      "t": 81714.90361458328,
      "d": 251.52428124999278,
      "v": 26
    },
    {
      "midi": 52,
      "hit": false,
      "t": 82446.61061458327,
      "d": 251.52428124999278,
      "v": 54
    },
    {
      "midi": 57,
      "hit": false,
      "t": 82446.61061458327,
      "d": 251.52428124999278,
      "v": 54
    },
    {
      "midi": 61,
      "hit": false,
      "t": 82446.61061458327,
      "d": 251.52428124999278,
      "v": 33
    },
    {
      "midi": 52,
      "hit": false,
      "t": 83185.93956249993,
      "d": 236.28038541667047,
      "v": 47
    },
    {
      "midi": 57,
      "hit": false,
      "t": 83185.93956249993,
      "d": 236.28038541667047,
      "v": 58
    },
    {
      "midi": 61,
      "hit": false,
      "t": 83185.93956249993,
      "d": 236.28038541667047,
      "v": 41
    },
    {
      "midi": 57,
      "hit": false,
      "t": 83391.73215625009,
      "d": 1821.645552083326,
      "v": 93
    },
    {
      "midi": 50,
      "hit": false,
      "t": 83391.73215625009,
      "d": 1958.8406145833287,
      "v": 84
    },
    {
      "midi": 54,
      "hit": false,
      "t": 83391.73215625009,
      "d": 2012.1942500000005,
      "v": 90
    },
    {
      "midi": 38,
      "hit": false,
      "t": 83414.59800000009,
      "d": 792.6825833333278,
      "v": 107
    },
    {
      "midi": 54,
      "hit": false,
      "t": 83910.02461458326,
      "d": 251.52428125000733,
      "v": 21
    },
    {
      "midi": 57,
      "hit": false,
      "t": 83910.02461458326,
      "d": 251.52428125000733,
      "v": 47
    },
    {
      "midi": 62,
      "hit": false,
      "t": 83910.02461458326,
      "d": 251.52428125000733,
      "v": 41
    },
    {
      "midi": 40,
      "hit": false,
      "t": 84161.54889583342,
      "d": 739.3289479166706,
      "v": 107
    },
    {
      "midi": 62,
      "hit": false,
      "t": 84641.73161458327,
      "d": 243.90233333333163,
      "v": 41
    },
    {
      "midi": 57,
      "hit": false,
      "t": 84641.73161458327,
      "d": 251.52428124999278,
      "v": 44
    },
    {
      "midi": 54,
      "hit": false,
      "t": 84649.35356249993,
      "d": 243.90233333333163,
      "v": 21
    },
    {
      "midi": 42,
      "hit": false,
      "t": 84862.76810416675,
      "d": 762.1947916666686,
      "v": 107
    },
    {
      "midi": 54,
      "hit": false,
      "t": 85373.43861458327,
      "d": 243.90233333333163,
      "v": 23
    },
    {
      "midi": 62,
      "hit": false,
      "t": 85373.43861458327,
      "d": 243.90233333333163,
      "v": 38
    },
    {
      "midi": 57,
      "hit": false,
      "t": 85373.43861458327,
      "d": 251.52428124999278,
      "v": 36
    },
    {
      "midi": 43,
      "hit": false,
      "t": 85586.85315625009,
      "d": 2240.852687499995,
      "v": 88
    },
    {
      "midi": 59,
      "hit": false,
      "t": 85609.71900000008,
      "d": 1692.072437499999,
      "v": 77
    },
    {
      "midi": 50,
      "hit": false,
      "t": 85609.71900000008,
      "d": 1730.182177083334,
      "v": 88
    },
    {
      "midi": 55,
      "hit": false,
      "t": 85609.71900000008,
      "d": 1753.048020833332,
      "v": 88
    },
    {
      "midi": 57,
      "hit": false,
      "t": 85632.58484375008,
      "d": 22.86584374999802,
      "v": 51
    },
    {
      "midi": 59,
      "hit": false,
      "t": 86105.14561458326,
      "d": 251.52428124999278,
      "v": 44
    },
    {
      "midi": 55,
      "hit": false,
      "t": 86112.76756249992,
      "d": 243.90233333333163,
      "v": 36
    },
    {
      "midi": 62,
      "hit": false,
      "t": 86112.76756249992,
      "d": 243.90233333333163,
      "v": 29
    },
    {
      "midi": 55,
      "hit": false,
      "t": 86836.85261458326,
      "d": 251.52428124999278,
      "v": 38
    },
    {
      "midi": 59,
      "hit": false,
      "t": 86836.85261458326,
      "d": 251.52428124999278,
      "v": 54
    },
    {
      "midi": 62,
      "hit": false,
      "t": 86836.85261458326,
      "d": 251.52428124999278,
      "v": 31
    },
    {
      "midi": 59,
      "hit": false,
      "t": 87568.55961458325,
      "d": 243.90233333333163,
      "v": 67
    },
    {
      "midi": 55,
      "hit": false,
      "t": 87568.55961458325,
      "d": 251.52428124999278,
      "v": 44
    },
    {
      "midi": 62,
      "hit": false,
      "t": 87568.55961458325,
      "d": 251.52428124999278,
      "v": 38
    },
    {
      "midi": 54,
      "hit": false,
      "t": 87797.21805208342,
      "d": 1829.2674999999872,
      "v": 80
    },
    {
      "midi": 50,
      "hit": false,
      "t": 87797.21805208342,
      "d": 1913.1089270833181,
      "v": 81
    },
    {
      "midi": 57,
      "hit": false,
      "t": 87804.84000000008,
      "d": 1722.5602291666582,
      "v": 88
    },
    {
      "midi": 38,
      "hit": false,
      "t": 87812.46194791674,
      "d": 2263.7185312499787,
      "v": 107
    },
    {
      "midi": 62,
      "hit": false,
      "t": 88300.26661458325,
      "d": 251.52428124999278,
      "v": 38
    },
    {
      "midi": 54,
      "hit": false,
      "t": 88307.88856249991,
      "d": 243.90233333333163,
      "v": 15
    },
    {
      "midi": 57,
      "hit": false,
      "t": 88307.88856249991,
      "d": 243.90233333333163,
      "v": 44
    },
    {
      "midi": 54,
      "hit": false,
      "t": 89031.97361458324,
      "d": 251.52428124999278,
      "v": 13
    },
    {
      "midi": 57,
      "hit": false,
      "t": 89031.97361458324,
      "d": 251.52428124999278,
      "v": 41
    },
    {
      "midi": 62,
      "hit": false,
      "t": 89031.97361458324,
      "d": 251.52428124999278,
      "v": 41
    },
    {
      "midi": 54,
      "hit": false,
      "t": 89763.68061458324,
      "d": 243.90233333333163,
      "v": 21
    },
    {
      "midi": 57,
      "hit": false,
      "t": 89763.68061458324,
      "d": 243.90233333333163,
      "v": 25
    },
    {
      "midi": 62,
      "hit": false,
      "t": 89763.68061458324,
      "d": 243.90233333333163,
      "v": 38
    },
    {
      "midi": 52,
      "hit": false,
      "t": 89999.96100000007,
      "d": 1707.3163333333068,
      "v": 81
    },
    {
      "midi": 49,
      "hit": false,
      "t": 90007.58294791673,
      "d": 1653.9626979166496,
      "v": 71
    },
    {
      "midi": 57,
      "hit": false,
      "t": 90007.58294791673,
      "d": 1653.9626979166496,
      "v": 88
    },
    {
      "midi": 33,
      "hit": false,
      "t": 90015.20489583339,
      "d": 2225.608791666644,
      "v": 107
    },
    {
      "midi": 52,
      "hit": false,
      "t": 90495.38761458323,
      "d": 251.52428124999278,
      "v": 38
    },
    {
      "midi": 57,
      "hit": false,
      "t": 90495.38761458323,
      "d": 251.52428124999278,
      "v": 38
    },
    {
      "midi": 61,
      "hit": false,
      "t": 90495.38761458323,
      "d": 251.52428124999278,
      "v": 13
    },
    {
      "midi": 61,
      "hit": false,
      "t": 91234.71656249989,
      "d": 236.28038541667047,
      "v": 30
    },
    {
      "midi": 52,
      "hit": false,
      "t": 91234.71656249989,
      "d": 243.90233333333163,
      "v": 51
    },
    {
      "midi": 57,
      "hit": false,
      "t": 91234.71656249989,
      "d": 243.90233333333163,
      "v": 54
    },
    {
      "midi": 52,
      "hit": false,
      "t": 91958.80161458322,
      "d": 243.90233333333163,
      "v": 51
    },
    {
      "midi": 57,
      "hit": false,
      "t": 91958.80161458322,
      "d": 251.52428124999278,
      "v": 58
    },
    {
      "midi": 61,
      "hit": false,
      "t": 91958.80161458322,
      "d": 251.52428124999278,
      "v": 33
    },
    {
      "midi": 57,
      "hit": false,
      "t": 92179.8381041667,
      "d": 1684.450489583338,
      "v": 84
    },
    {
      "midi": 54,
      "hit": false,
      "t": 92179.8381041667,
      "d": 1791.1577604166669,
      "v": 84
    },
    {
      "midi": 50,
      "hit": false,
      "t": 92179.8381041667,
      "d": 1814.0236041666649,
      "v": 88
    },
    {
      "midi": 56,
      "hit": false,
      "t": 92187.46005208336,
      "d": 38.109739583334886,
      "v": 56
    },
    {
      "midi": 38,
      "hit": false,
      "t": 92187.46005208336,
      "d": 2134.1454166666663,
      "v": 107
    },
    {
      "midi": 54,
      "hit": false,
      "t": 92690.50861458322,
      "d": 251.52428125000733,
      "v": 21
    },
    {
      "midi": 57,
      "hit": false,
      "t": 92690.50861458322,
      "d": 251.52428125000733,
      "v": 47
    },
    {
      "midi": 62,
      "hit": false,
      "t": 92690.50861458322,
      "d": 251.52428125000733,
      "v": 47
    },
    {
      "midi": 54,
      "hit": false,
      "t": 93429.83756249989,
      "d": 236.28038541667047,
      "v": 9
    },
    {
      "midi": 57,
      "hit": false,
      "t": 93429.83756249989,
      "d": 236.28038541667047,
      "v": 41
    },
    {
      "midi": 62,
      "hit": false,
      "t": 93429.83756249989,
      "d": 236.28038541667047,
      "v": 38
    },
    {
      "midi": 54,
      "hit": false,
      "t": 94161.5445624999,
      "d": 236.28038541667047,
      "v": 11
    },
    {
      "midi": 57,
      "hit": false,
      "t": 94161.5445624999,
      "d": 236.28038541667047,
      "v": 41
    },
    {
      "midi": 62,
      "hit": false,
      "t": 94161.5445624999,
      "d": 236.28038541667047,
      "v": 33
    },
    {
      "midi": 33,
      "hit": false,
      "t": 94390.20300000002,
      "d": 792.6825833333278,
      "v": 107
    },
    {
      "midi": 57,
      "hit": false,
      "t": 94397.82494791668,
      "d": 1829.2674999999872,
      "v": 107
    },
    {
      "midi": 49,
      "hit": false,
      "t": 94397.82494791668,
      "d": 1882.621135416659,
      "v": 80
    },
    {
      "midi": 52,
      "hit": false,
      "t": 94397.82494791668,
      "d": 1890.24308333332,
      "v": 97
    },
    {
      "midi": 52,
      "hit": false,
      "t": 94885.62961458323,
      "d": 251.52428124999278,
      "v": 44
    },
    {
      "midi": 57,
      "hit": false,
      "t": 94885.62961458323,
      "d": 251.52428124999278,
      "v": 38
    },
    {
      "midi": 61,
      "hit": false,
      "t": 94885.62961458323,
      "d": 251.52428124999278,
      "v": 26
    },
    {
      "midi": 35,
      "hit": false,
      "t": 95121.91000000002,
      "d": 777.4386874999909,
      "v": 107
    },
    {
      "midi": 62,
      "hit": false,
      "t": 95602.09271874999,
      "d": 182.92674999999872,
      "v": 127
    },
    {
      "midi": 61,
      "hit": false,
      "t": 95617.33661458323,
      "d": 243.90233333333163,
      "v": 30
    },
    {
      "midi": 52,
      "hit": false,
      "t": 95624.95856249989,
      "d": 243.90233333333163,
      "v": 47
    },
    {
      "midi": 57,
      "hit": false,
      "t": 95624.95856249989,
      "d": 243.90233333333163,
      "v": 63
    },
    {
      "midi": 64,
      "hit": false,
      "t": 95815.50726041666,
      "d": 190.54869791667443,
      "v": 101
    },
    {
      "midi": 65,
      "hit": false,
      "t": 95853.617,
      "d": 175.30480208333756,
      "v": 117
    },
    {
      "midi": 37,
      "hit": false,
      "t": 95853.61700000001,
      "d": 754.5728437499783,
      "v": 107
    },
    {
      "midi": 66,
      "hit": false,
      "t": 95945.080375,
      "d": 541.158302083335,
      "v": 101
    },
    {
      "midi": 69,
      "hit": false,
      "t": 96310.933875,
      "d": 76.21947916666977,
      "v": 127
    },
    {
      "midi": 74,
      "hit": false,
      "t": 96310.933875,
      "d": 190.54869791667443,
      "v": 108
    },
    {
      "midi": 52,
      "hit": false,
      "t": 96356.66556249988,
      "d": 236.28038541667047,
      "v": 54
    },
    {
      "midi": 57,
      "hit": false,
      "t": 96356.66556249988,
      "d": 236.28038541667047,
      "v": 58
    },
    {
      "midi": 61,
      "hit": false,
      "t": 96356.66556249988,
      "d": 236.28038541667047,
      "v": 37
    },
    {
      "midi": 38,
      "hit": false,
      "t": 96570.08010416667,
      "d": 2278.962427083301,
      "v": 102
    },
    {
      "midi": 54,
      "hit": false,
      "t": 96577.70205208333,
      "d": 1920.7308749999938,
      "v": 75
    },
    {
      "midi": 57,
      "hit": false,
      "t": 96577.70205208333,
      "d": 1928.352822916655,
      "v": 84
    },
    {
      "midi": 74,
      "hit": false,
      "t": 96577.70205208335,
      "d": 365.85349999999744,
      "v": 117
    },
    {
      "midi": 56,
      "hit": false,
      "t": 96585.324,
      "d": 53.35363541667175,
      "v": 53
    },
    {
      "midi": 50,
      "hit": false,
      "t": 96585.324,
      "d": 1913.1089270833327,
      "v": 81
    },
    {
      "midi": 69,
      "hit": false,
      "t": 96585.32400000001,
      "d": 152.43895833333954,
      "v": 127
    },
    {
      "midi": 71,
      "hit": false,
      "t": 96699.65321875001,
      "d": 320.1218125000014,
      "v": 127
    },
    {
      "midi": 74,
      "hit": false,
      "t": 97065.50671875001,
      "d": 1371.9506249999977,
      "v": 113
    },
    {
      "midi": 69,
      "hit": false,
      "t": 97080.75061458335,
      "d": 1463.4139999999898,
      "v": 127
    },
    {
      "midi": 54,
      "hit": false,
      "t": 97088.37256249989,
      "d": 243.90233333334618,
      "v": 23
    },
    {
      "midi": 57,
      "hit": false,
      "t": 97088.37256249989,
      "d": 243.90233333334618,
      "v": 51
    },
    {
      "midi": 62,
      "hit": false,
      "t": 97088.37256249989,
      "d": 243.90233333334618,
      "v": 47
    },
    {
      "midi": 54,
      "hit": false,
      "t": 97820.0795624999,
      "d": 236.28038541667047,
      "v": 21
    },
    {
      "midi": 57,
      "hit": false,
      "t": 97820.0795624999,
      "d": 236.28038541667047,
      "v": 47
    },
    {
      "midi": 62,
      "hit": false,
      "t": 97820.0795624999,
      "d": 236.28038541667047,
      "v": 51
    },
    {
      "midi": 57,
      "hit": false,
      "t": 98536.54266666668,
      "d": 289.63402083332767,
      "v": 122
    },
    {
      "midi": 54,
      "hit": false,
      "t": 98551.78656249991,
      "d": 236.28038541667047,
      "v": 26
    },
    {
      "midi": 57,
      "hit": false,
      "t": 98551.78656249991,
      "d": 236.28038541667047,
      "v": 47
    },
    {
      "midi": 62,
      "hit": false,
      "t": 98551.78656249991,
      "d": 236.28038541667047,
      "v": 44
    },
    {
      "midi": 52,
      "hit": false,
      "t": 98788.06694791665,
      "d": 1699.6943854166457,
      "v": 88
    },
    {
      "midi": 64,
      "hit": false,
      "t": 98788.06694791667,
      "d": 114.32921875000466,
      "v": 127
    },
    {
      "midi": 69,
      "hit": false,
      "t": 98788.06694791667,
      "d": 342.9876562499994,
      "v": 127
    },
    {
      "midi": 57,
      "hit": false,
      "t": 98795.68889583331,
      "d": 1653.9626979166496,
      "v": 93
    },
    {
      "midi": 49,
      "hit": false,
      "t": 98803.31084374998,
      "d": 1661.5846458333253,
      "v": 67
    },
    {
      "midi": 33,
      "hit": false,
      "t": 98803.31084374998,
      "d": 1707.3163333333214,
      "v": 97
    },
    {
      "midi": 66,
      "hit": false,
      "t": 98864.28642708334,
      "d": 335.3657083333237,
      "v": 91
    },
    {
      "midi": 52,
      "hit": false,
      "t": 99275.87161458324,
      "d": 251.52428124999278,
      "v": 47
    },
    {
      "midi": 57,
      "hit": false,
      "t": 99275.87161458324,
      "d": 251.52428124999278,
      "v": 36
    },
    {
      "midi": 61,
      "hit": false,
      "t": 99275.87161458324,
      "d": 251.52428124999278,
      "v": 18
    },
    {
      "midi": 69,
      "hit": false,
      "t": 99275.87161458333,
      "d": 1181.4019270833232,
      "v": 108
    },
    {
      "midi": 64,
      "hit": false,
      "t": 99283.49356249999,
      "d": 1181.4019270833232,
      "v": 127
    },
    {
      "midi": 52,
      "hit": false,
      "t": 100007.57861458324,
      "d": 251.52428124999278,
      "v": 54
    },
    {
      "midi": 57,
      "hit": false,
      "t": 100007.57861458324,
      "d": 251.52428124999278,
      "v": 63
    },
    {
      "midi": 61,
      "hit": false,
      "t": 100007.57861458324,
      "d": 251.52428124999278,
      "v": 33
    },
    {
      "midi": 57,
      "hit": false,
      "t": 100518.24912499999,
      "d": 251.52428124999278,
      "v": 122
    },
    {
      "midi": 66,
      "hit": false,
      "t": 100525.87107291665,
      "d": 213.4145416666579,
      "v": 104
    },
    {
      "midi": 55,
      "hit": false,
      "t": 100731.66366666665,
      "d": 282.0120729166665,
      "v": 113
    },
    {
      "midi": 52,
      "hit": false,
      "t": 100739.28561458323,
      "d": 243.90233333333163,
      "v": 63
    },
    {
      "midi": 57,
      "hit": false,
      "t": 100739.28561458323,
      "d": 243.90233333333163,
      "v": 72
    },
    {
      "midi": 61,
      "hit": false,
      "t": 100739.28561458323,
      "d": 243.90233333333163,
      "v": 41
    },
    {
      "midi": 64,
      "hit": false,
      "t": 100739.2856145833,
      "d": 289.6340208333422,
      "v": 127
    },
    {
      "midi": 54,
      "hit": false,
      "t": 100975.56599999996,
      "d": 1836.8894479166484,
      "v": 84
    },
    {
      "midi": 50,
      "hit": false,
      "t": 100975.56599999996,
      "d": 1905.4869791666424,
      "v": 84
    },
    {
      "midi": 54,
      "hit": false,
      "t": 100975.56599999998,
      "d": 594.5119375000068,
      "v": 100
    },
    {
      "midi": 38,
      "hit": false,
      "t": 100983.18794791662,
      "d": 777.4386874999909,
      "v": 107
    },
    {
      "midi": 57,
      "hit": false,
      "t": 100983.18794791662,
      "d": 1798.7797083333135,
      "v": 88
    },
    {
      "midi": 62,
      "hit": false,
      "t": 100998.43184374998,
      "d": 373.47544791667315,
      "v": 127
    },
    {
      "midi": 62,
      "hit": false,
      "t": 101432.88287499998,
      "d": 182.92675000001327,
      "v": 63
    },
    {
      "midi": 55,
      "hit": false,
      "t": 101463.37066666665,
      "d": 182.92675000001327,
      "v": 94
    },
    {
      "midi": 54,
      "hit": false,
      "t": 101470.99261458323,
      "d": 251.52428124999278,
      "v": 23
    },
    {
      "midi": 57,
      "hit": false,
      "t": 101470.99261458323,
      "d": 251.52428124999278,
      "v": 51
    },
    {
      "midi": 62,
      "hit": false,
      "t": 101470.99261458323,
      "d": 251.52428124999278,
      "v": 47
    },
    {
      "midi": 64,
      "hit": false,
      "t": 101531.96819791665,
      "d": 205.79259375002584,
      "v": 97
    },
    {
      "midi": 56,
      "hit": false,
      "t": 101539.59014583331,
      "d": 198.1706458333647,
      "v": 104
    },
    {
      "midi": 65,
      "hit": false,
      "t": 101585.32183333332,
      "d": 129.57311458335607,
      "v": 66
    },
    {
      "midi": 66,
      "hit": false,
      "t": 101676.78520833334,
      "d": 815.5484270833258,
      "v": 100
    },
    {
      "midi": 57,
      "hit": false,
      "t": 101684.40715625,
      "d": 800.3045312500035,
      "v": 108
    },
    {
      "midi": 40,
      "hit": false,
      "t": 101714.89494791662,
      "d": 762.194791666654,
      "v": 107
    },
    {
      "midi": 57,
      "hit": false,
      "t": 102202.69961458322,
      "d": 243.90233333333163,
      "v": 44
    },
    {
      "midi": 62,
      "hit": false,
      "t": 102202.69961458322,
      "d": 243.90233333333163,
      "v": 38
    },
    {
      "midi": 54,
      "hit": false,
      "t": 102202.69961458322,
      "d": 251.52428124999278,
      "v": 13
    },
    {
      "midi": 42,
      "hit": false,
      "t": 102431.35805208328,
      "d": 746.9508958333172,
      "v": 107
    },
    {
      "midi": 60,
      "hit": false,
      "t": 102477.08973958335,
      "d": 503.04856249998556,
      "v": 127
    },
    {
      "midi": 69,
      "hit": false,
      "t": 102477.08973958335,
      "d": 510.6705104166467,
      "v": 127
    },
    {
      "midi": 57,
      "hit": false,
      "t": 102926.78466666667,
      "d": 320.12181249998685,
      "v": 86
    },
    {
      "midi": 54,
      "hit": false,
      "t": 102934.40661458322,
      "d": 243.90233333333163,
      "v": 33
    },
    {
      "midi": 57,
      "hit": false,
      "t": 102934.40661458322,
      "d": 243.90233333333163,
      "v": 72
    },
    {
      "midi": 62,
      "hit": false,
      "t": 102934.40661458322,
      "d": 243.90233333333163,
      "v": 41
    },
    {
      "midi": 66,
      "hit": false,
      "t": 102934.40661458333,
      "d": 312.4998645833257,
      "v": 73
    },
    {
      "midi": 43,
      "hit": false,
      "t": 103140.19920833327,
      "d": 1844.5113958333095,
      "v": 102
    },
    {
      "midi": 59,
      "hit": false,
      "t": 103147.82115624993,
      "d": 1730.1821770833194,
      "v": 81
    },
    {
      "midi": 55,
      "hit": false,
      "t": 103147.82115624993,
      "d": 1737.8041249999806,
      "v": 97
    },
    {
      "midi": 50,
      "hit": false,
      "t": 103155.4431041666,
      "d": 1722.5602291666582,
      "v": 88
    },
    {
      "midi": 59,
      "hit": false,
      "t": 103185.93089583333,
      "d": 251.52428124999278,
      "v": 113
    },
    {
      "midi": 67,
      "hit": false,
      "t": 103193.55284374999,
      "d": 274.39012500000536,
      "v": 122
    },
    {
      "midi": 60,
      "hit": false,
      "t": 103406.96738541666,
      "d": 297.2559687499888,
      "v": 122
    },
    {
      "midi": 69,
      "hit": false,
      "t": 103414.58933333332,
      "d": 320.1218125000014,
      "v": 122
    },
    {
      "midi": 57,
      "hit": false,
      "t": 103650.86971875,
      "d": 320.1218125000014,
      "v": 101
    },
    {
      "midi": 66,
      "hit": false,
      "t": 103658.49166666665,
      "d": 297.2559687500034,
      "v": 95
    },
    {
      "midi": 55,
      "hit": false,
      "t": 103666.11361458321,
      "d": 251.52428125000733,
      "v": 33
    },
    {
      "midi": 59,
      "hit": false,
      "t": 103666.11361458321,
      "d": 251.52428125000733,
      "v": 51
    },
    {
      "midi": 62,
      "hit": false,
      "t": 103666.11361458321,
      "d": 251.52428125000733,
      "v": 25
    },
    {
      "midi": 67,
      "hit": false,
      "t": 103910.01594791666,
      "d": 1501.5237395833392,
      "v": 127
    },
    {
      "midi": 59,
      "hit": false,
      "t": 103910.01594791666,
      "d": 1509.1456875000003,
      "v": 122
    },
    {
      "midi": 55,
      "hit": false,
      "t": 104397.82061458322,
      "d": 251.52428124999278,
      "v": 41
    },
    {
      "midi": 59,
      "hit": false,
      "t": 104397.82061458322,
      "d": 251.52428124999278,
      "v": 63
    },
    {
      "midi": 62,
      "hit": false,
      "t": 104397.82061458322,
      "d": 251.52428124999278,
      "v": 36
    },
    {
      "midi": 59,
      "hit": false,
      "t": 105137.14956249988,
      "d": 236.28038541667047,
      "v": 77
    },
    {
      "midi": 55,
      "hit": false,
      "t": 105137.14956249988,
      "d": 243.90233333333163,
      "v": 51
    },
    {
      "midi": 62,
      "hit": false,
      "t": 105137.14956249988,
      "d": 243.90233333333163,
      "v": 44
    },
    {
      "midi": 54,
      "hit": false,
      "t": 105342.94215624992,
      "d": 1768.2919166666397,
      "v": 84
    },
    {
      "midi": 57,
      "hit": false,
      "t": 105350.56410416658,
      "d": 1737.8041249999806,
      "v": 84
    },
    {
      "midi": 50,
      "hit": false,
      "t": 105350.56410416658,
      "d": 1821.6455520833115,
      "v": 81
    },
    {
      "midi": 38,
      "hit": false,
      "t": 105358.18605208324,
      "d": 2004.5723020833102,
      "v": 107
    },
    {
      "midi": 54,
      "hit": false,
      "t": 105861.2346145832,
      "d": 251.52428125000733,
      "v": 13
    },
    {
      "midi": 57,
      "hit": false,
      "t": 105861.2346145832,
      "d": 251.52428125000733,
      "v": 47
    },
    {
      "midi": 62,
      "hit": false,
      "t": 105861.2346145832,
      "d": 251.52428125000733,
      "v": 41
    },
    {
      "midi": 54,
      "hit": false,
      "t": 106592.94161458321,
      "d": 251.52428124999278,
      "v": 18
    },
    {
      "midi": 57,
      "hit": false,
      "t": 106592.94161458321,
      "d": 251.52428124999278,
      "v": 47
    },
    {
      "midi": 62,
      "hit": false,
      "t": 106592.94161458321,
      "d": 251.52428124999278,
      "v": 41
    },
    {
      "midi": 54,
      "hit": false,
      "t": 107324.6486145832,
      "d": 243.90233333333163,
      "v": 33
    },
    {
      "midi": 57,
      "hit": false,
      "t": 107324.6486145832,
      "d": 243.90233333333163,
      "v": 51
    },
    {
      "midi": 62,
      "hit": false,
      "t": 107324.6486145832,
      "d": 243.90233333333163,
      "v": 38
    },
    {
      "midi": 57,
      "hit": false,
      "t": 107560.92899999989,
      "d": 1684.450489583338,
      "v": 102
    },
    {
      "midi": 52,
      "hit": false,
      "t": 107560.92899999989,
      "d": 1745.4260729166854,
      "v": 93
    },
    {
      "midi": 49,
      "hit": false,
      "t": 107568.55094791655,
      "d": 1707.3163333333505,
      "v": 71
    },
    {
      "midi": 33,
      "hit": false,
      "t": 107568.55094791655,
      "d": 2157.0112604166934,
      "v": 107
    },
    {
      "midi": 52,
      "hit": false,
      "t": 108056.35561458321,
      "d": 251.52428124999278,
      "v": 33
    },
    {
      "midi": 57,
      "hit": false,
      "t": 108056.35561458321,
      "d": 251.52428124999278,
      "v": 44
    },
    {
      "midi": 61,
      "hit": false,
      "t": 108056.35561458321,
      "d": 251.52428124999278,
      "v": 33
    },
    {
      "midi": 61,
      "hit": false,
      "t": 108795.68456249987,
      "d": 236.28038541667047,
      "v": 30
    },
    {
      "midi": 52,
      "hit": false,
      "t": 108795.68456249987,
      "d": 243.90233333333163,
      "v": 51
    },
    {
      "midi": 57,
      "hit": false,
      "t": 108795.68456249987,
      "d": 243.90233333333163,
      "v": 58
    },
    {
      "midi": 52,
      "hit": false,
      "t": 109519.7696145832,
      "d": 243.90233333333163,
      "v": 58
    },
    {
      "midi": 57,
      "hit": false,
      "t": 109519.7696145832,
      "d": 243.90233333333163,
      "v": 63
    },
    {
      "midi": 61,
      "hit": false,
      "t": 109519.7696145832,
      "d": 243.90233333333163,
      "v": 37
    },
    {
      "midi": 50,
      "hit": false,
      "t": 109756.04999999992,
      "d": 1692.072437499999,
      "v": 84
    },
    {
      "midi": 57,
      "hit": false,
      "t": 109763.67194791658,
      "d": 1692.072437499999,
      "v": 81
    },
    {
      "midi": 54,
      "hit": false,
      "t": 109763.67194791658,
      "d": 1730.182177083334,
      "v": 75
    },
    {
      "midi": 56,
      "hit": false,
      "t": 109771.29389583324,
      "d": 45.731687500010594,
      "v": 53
    },
    {
      "midi": 38,
      "hit": false,
      "t": 109771.29389583324,
      "d": 2217.986843749997,
      "v": 107
    },
    {
      "midi": 54,
      "hit": false,
      "t": 110251.4766145832,
      "d": 251.52428125000733,
      "v": 13
    },
    {
      "midi": 57,
      "hit": false,
      "t": 110251.4766145832,
      "d": 251.52428125000733,
      "v": 44
    },
    {
      "midi": 62,
      "hit": false,
      "t": 110251.4766145832,
      "d": 251.52428125000733,
      "v": 41
    },
    {
      "midi": 54,
      "hit": false,
      "t": 110983.1836145832,
      "d": 251.52428124999278,
      "v": 21
    },
    {
      "midi": 57,
      "hit": false,
      "t": 110983.1836145832,
      "d": 251.52428124999278,
      "v": 51
    },
    {
      "midi": 62,
      "hit": false,
      "t": 110983.1836145832,
      "d": 251.52428124999278,
      "v": 44
    },
    {
      "midi": 54,
      "hit": false,
      "t": 111714.8906145832,
      "d": 251.52428124999278,
      "v": 30
    },
    {
      "midi": 57,
      "hit": false,
      "t": 111714.8906145832,
      "d": 251.52428124999278,
      "v": 54
    },
    {
      "midi": 62,
      "hit": false,
      "t": 111714.8906145832,
      "d": 251.52428124999278,
      "v": 44
    },
    {
      "midi": 59,
      "hit": false,
      "t": 111943.54905208324,
      "d": 2019.8161979166616,
      "v": 97
    },
    {
      "midi": 54,
      "hit": false,
      "t": 111943.54905208324,
      "d": 2118.9015208333294,
      "v": 71
    },
    {
      "midi": 35,
      "hit": false,
      "t": 111951.1709999999,
      "d": 815.5484270833258,
      "v": 107
    },
    {
      "midi": 51,
      "hit": false,
      "t": 111951.1709999999,
      "d": 1981.7064583333267,
      "v": 71
    },
    {
      "midi": 54,
      "hit": false,
      "t": 112446.5976145832,
      "d": 251.52428124999278,
      "v": 11
    },
    {
      "midi": 63,
      "hit": false,
      "t": 112446.5976145832,
      "d": 251.52428124999278,
      "v": 23
    },
    {
      "midi": 59,
      "hit": false,
      "t": 112454.21956249986,
      "d": 243.90233333333163,
      "v": 47
    },
    {
      "midi": 37,
      "hit": false,
      "t": 112720.98773958323,
      "d": 746.9508958333317,
      "v": 107
    },
    {
      "midi": 54,
      "hit": false,
      "t": 113185.92656249985,
      "d": 236.28038541667047,
      "v": 26
    },
    {
      "midi": 59,
      "hit": false,
      "t": 113185.92656249985,
      "d": 236.28038541667047,
      "v": 54
    },
    {
      "midi": 63,
      "hit": false,
      "t": 113185.92656249985,
      "d": 243.90233333333163,
      "v": 5
    },
    {
      "midi": 39,
      "hit": false,
      "t": 113445.07279166656,
      "d": 708.8411562499969,
      "v": 90
    },
    {
      "midi": 54,
      "hit": false,
      "t": 113910.01161458319,
      "d": 243.90233333333163,
      "v": 30
    },
    {
      "midi": 63,
      "hit": false,
      "t": 113910.01161458319,
      "d": 243.90233333333163,
      "v": 33
    },
    {
      "midi": 59,
      "hit": false,
      "t": 113917.63356249985,
      "d": 236.28038541667047,
      "v": 58
    },
    {
      "midi": 56,
      "hit": false,
      "t": 114115.80420833324,
      "d": 1791.1577604166523,
      "v": 75
    },
    {
      "midi": 52,
      "hit": false,
      "t": 114123.4261562499,
      "d": 1768.2919166666543,
      "v": 93
    },
    {
      "midi": 40,
      "hit": false,
      "t": 114123.4261562499,
      "d": 2225.6087916666584,
      "v": 88
    },
    {
      "midi": 59,
      "hit": false,
      "t": 114131.04810416656,
      "d": 1707.3163333333214,
      "v": 93
    },
    {
      "midi": 56,
      "hit": false,
      "t": 114641.7186145832,
      "d": 251.52428125000733,
      "v": 30
    },
    {
      "midi": 59,
      "hit": false,
      "t": 114641.7186145832,
      "d": 251.52428125000733,
      "v": 54
    },
    {
      "midi": 64,
      "hit": false,
      "t": 114641.7186145832,
      "d": 251.52428125000733,
      "v": 67
    },
    {
      "midi": 56,
      "hit": false,
      "t": 115373.4256145832,
      "d": 251.52428124999278,
      "v": 41
    },
    {
      "midi": 59,
      "hit": false,
      "t": 115373.4256145832,
      "d": 251.52428124999278,
      "v": 44
    },
    {
      "midi": 64,
      "hit": false,
      "t": 115373.4256145832,
      "d": 251.52428124999278,
      "v": 72
    },
    {
      "midi": 59,
      "hit": false,
      "t": 116105.1326145832,
      "d": 243.90233333333163,
      "v": 58
    },
    {
      "midi": 64,
      "hit": false,
      "t": 116105.1326145832,
      "d": 243.90233333333163,
      "v": 77
    },
    {
      "midi": 56,
      "hit": false,
      "t": 116105.1326145832,
      "d": 251.52428124999278,
      "v": 41
    },
    {
      "midi": 59,
      "hit": false,
      "t": 116326.16910416656,
      "d": 403.9632395833323,
      "v": 81
    },
    {
      "midi": 54,
      "hit": false,
      "t": 116326.16910416656,
      "d": 426.82908333333035,
      "v": 60
    },
    {
      "midi": 51,
      "hit": false,
      "t": 116333.79105208322,
      "d": 388.71934375001,
      "v": 63
    },
    {
      "midi": 35,
      "hit": false,
      "t": 116333.79105208322,
      "d": 2233.230739583334,
      "v": 107
    },
    {
      "midi": 54,
      "hit": false,
      "t": 116836.8396145832,
      "d": 251.52428124999278,
      "v": 15
    },
    {
      "midi": 59,
      "hit": false,
      "t": 116836.8396145832,
      "d": 251.52428124999278,
      "v": 54
    },
    {
      "midi": 63,
      "hit": false,
      "t": 116836.8396145832,
      "d": 251.52428124999278,
      "v": 11
    },
    {
      "midi": 54,
      "hit": false,
      "t": 117568.54661458319,
      "d": 251.52428124999278,
      "v": 33
    },
    {
      "midi": 59,
      "hit": false,
      "t": 117568.54661458319,
      "d": 259.14622916665394,
      "v": 63
    },
    {
      "midi": 63,
      "hit": false,
      "t": 117568.54661458319,
      "d": 266.7681770833151,
      "v": 15
    },
    {
      "midi": 54,
      "hit": false,
      "t": 118307.87556249983,
      "d": 236.28038541667047,
      "v": 41
    },
    {
      "midi": 63,
      "hit": false,
      "t": 118307.87556249983,
      "d": 236.28038541667047,
      "v": 37
    },
    {
      "midi": 59,
      "hit": false,
      "t": 118307.87556249983,
      "d": 251.52428125000733,
      "v": 63
    },
    {
      "midi": 56,
      "hit": false,
      "t": 118528.91205208322,
      "d": 1608.2310104166681,
      "v": 90
    },
    {
      "midi": 40,
      "hit": false,
      "t": 118528.91205208322,
      "d": 2217.986843749997,
      "v": 102
    },
    {
      "midi": 59,
      "hit": false,
      "t": 118536.53399999988,
      "d": 1592.9871145833458,
      "v": 88
    },
    {
      "midi": 52,
      "hit": false,
      "t": 118536.53399999988,
      "d": 1699.6943854166748,
      "v": 84
    },
    {
      "midi": 64,
      "hit": false,
      "t": 119031.96061458316,
      "d": 259.1462291666685,
      "v": 77
    },
    {
      "midi": 56,
      "hit": false,
      "t": 119031.96061458316,
      "d": 266.76817708332965,
      "v": 21
    },
    {
      "midi": 59,
      "hit": false,
      "t": 119031.96061458316,
      "d": 266.76817708332965,
      "v": 47
    },
    {
      "midi": 56,
      "hit": false,
      "t": 119763.66761458316,
      "d": 259.14622916665394,
      "v": 50
    },
    {
      "midi": 64,
      "hit": false,
      "t": 119763.66761458316,
      "d": 259.14622916665394,
      "v": 77
    },
    {
      "midi": 59,
      "hit": false,
      "t": 119771.28956249982,
      "d": 259.14622916665394,
      "v": 63
    },
    {
      "midi": 64,
      "hit": false,
      "t": 120495.37461458314,
      "d": 236.28038541667047,
      "v": 72
    },
    {
      "midi": 56,
      "hit": false,
      "t": 120495.37461458314,
      "d": 243.90233333333163,
      "v": 54
    },
    {
      "midi": 59,
      "hit": false,
      "t": 120495.37461458314,
      "d": 243.90233333333163,
      "v": 63
    },
    {
      "midi": 49,
      "hit": false,
      "t": 120701.16720833322,
      "d": 1631.0968541666516,
      "v": 63
    },
    {
      "midi": 57,
      "hit": false,
      "t": 120701.16720833322,
      "d": 1638.7188020833128,
      "v": 77
    },
    {
      "midi": 52,
      "hit": false,
      "t": 120708.78915624988,
      "d": 1638.7188020833128,
      "v": 88
    },
    {
      "midi": 33,
      "hit": false,
      "t": 120716.41110416655,
      "d": 2202.742947916646,
      "v": 93
    },
    {
      "midi": 61,
      "hit": false,
      "t": 121227.08161458313,
      "d": 266.76817708332965,
      "v": 26
    },
    {
      "midi": 52,
      "hit": false,
      "t": 121227.08161458313,
      "d": 274.3901249999908,
      "v": 44
    },
    {
      "midi": 57,
      "hit": false,
      "t": 121227.08161458313,
      "d": 274.3901249999908,
      "v": 44
    },
    {
      "midi": 57,
      "hit": false,
      "t": 121958.78861458313,
      "d": 251.52428124999278,
      "v": 41
    },
    {
      "midi": 61,
      "hit": false,
      "t": 121958.78861458313,
      "d": 251.52428124999278,
      "v": 30
    },
    {
      "midi": 64,
      "hit": false,
      "t": 121958.78861458313,
      "d": 251.52428124999278,
      "v": 77
    },
    {
      "midi": 57,
      "hit": false,
      "t": 122690.49561458312,
      "d": 243.90233333333163,
      "v": 58
    },
    {
      "midi": 64,
      "hit": false,
      "t": 122690.49561458312,
      "d": 243.90233333333163,
      "v": 77
    },
    {
      "midi": 61,
      "hit": false,
      "t": 122690.49561458312,
      "d": 251.52428124999278,
      "v": 41
    },
    {
      "midi": 56,
      "hit": false,
      "t": 122911.53210416653,
      "d": 1783.5358124999912,
      "v": 84
    },
    {
      "midi": 52,
      "hit": false,
      "t": 122919.15405208319,
      "d": 1814.0236041666649,
      "v": 84
    },
    {
      "midi": 59,
      "hit": false,
      "t": 122926.77599999985,
      "d": 1669.206593750001,
      "v": 88
    },
    {
      "midi": 40,
      "hit": false,
      "t": 122926.77599999985,
      "d": 2233.230739583334,
      "v": 102
    },
    {
      "midi": 64,
      "hit": false,
      "t": 123422.2026145831,
      "d": 251.52428125000733,
      "v": 77
    },
    {
      "midi": 56,
      "hit": false,
      "t": 123422.2026145831,
      "d": 259.1462291666685,
      "v": 18
    },
    {
      "midi": 59,
      "hit": false,
      "t": 123422.2026145831,
      "d": 259.1462291666685,
      "v": 44
    },
    {
      "midi": 64,
      "hit": false,
      "t": 124153.9096145831,
      "d": 251.52428124999278,
      "v": 72
    },
    {
      "midi": 56,
      "hit": false,
      "t": 124153.9096145831,
      "d": 259.14622916665394,
      "v": 37
    },
    {
      "midi": 59,
      "hit": false,
      "t": 124153.9096145831,
      "d": 259.14622916665394,
      "v": 72
    },
    {
      "midi": 56,
      "hit": false,
      "t": 124885.61661458308,
      "d": 251.52428124999278,
      "v": 37
    },
    {
      "midi": 59,
      "hit": false,
      "t": 124885.61661458308,
      "d": 251.52428124999278,
      "v": 63
    },
    {
      "midi": 64,
      "hit": false,
      "t": 124885.61661458308,
      "d": 251.52428124999278,
      "v": 67
    },
    {
      "midi": 56,
      "hit": false,
      "t": 125091.40920833319,
      "d": 1852.1333437499998,
      "v": 80
    },
    {
      "midi": 61,
      "hit": false,
      "t": 125099.03115624985,
      "d": 1661.58464583334,
      "v": 71
    },
    {
      "midi": 52,
      "hit": false,
      "t": 125099.03115624985,
      "d": 1783.5358125000057,
      "v": 81
    },
    {
      "midi": 37,
      "hit": false,
      "t": 125106.65310416651,
      "d": 2301.8282708333427,
      "v": 80
    },
    {
      "midi": 61,
      "hit": false,
      "t": 125617.32361458307,
      "d": 259.14622916665394,
      "v": 50
    },
    {
      "midi": 64,
      "hit": false,
      "t": 125617.32361458307,
      "d": 259.14622916665394,
      "v": 77
    },
    {
      "midi": 56,
      "hit": false,
      "t": 125617.32361458307,
      "d": 266.7681770833151,
      "v": 33
    },
    {
      "midi": 61,
      "hit": false,
      "t": 126356.65256249972,
      "d": 243.90233333333163,
      "v": 45
    },
    {
      "midi": 64,
      "hit": false,
      "t": 126356.65256249972,
      "d": 243.90233333333163,
      "v": 77
    },
    {
      "midi": 56,
      "hit": false,
      "t": 126356.65256249972,
      "d": 251.52428124999278,
      "v": 33
    },
    {
      "midi": 64,
      "hit": false,
      "t": 127088.35956249971,
      "d": 228.65843749999476,
      "v": 77
    },
    {
      "midi": 56,
      "hit": false,
      "t": 127088.35956249971,
      "d": 236.28038541665592,
      "v": 41
    },
    {
      "midi": 61,
      "hit": false,
      "t": 127088.35956249971,
      "d": 236.28038541665592,
      "v": 54
    },
    {
      "midi": 54,
      "hit": false,
      "t": 127324.63994791653,
      "d": 1768.2919166666543,
      "v": 53
    },
    {
      "midi": 59,
      "hit": false,
      "t": 127332.26189583319,
      "d": 1753.048020833332,
      "v": 88
    },
    {
      "midi": 35,
      "hit": false,
      "t": 127339.88384374985,
      "d": 1798.779708333328,
      "v": 84
    },
    {
      "midi": 51,
      "hit": false,
      "t": 127339.88384374985,
      "d": 1913.1089270833327,
      "v": 71
    },
    {
      "midi": 59,
      "hit": false,
      "t": 127812.44461458303,
      "d": 251.52428125000733,
      "v": 54
    },
    {
      "midi": 54,
      "hit": false,
      "t": 127812.44461458303,
      "d": 259.1462291666685,
      "v": 30
    },
    {
      "midi": 63,
      "hit": false,
      "t": 127812.44461458303,
      "d": 266.76817708332965,
      "v": 15
    },
    {
      "midi": 63,
      "hit": false,
      "t": 128544.15161458302,
      "d": 266.7681770833151,
      "v": 33
    },
    {
      "midi": 59,
      "hit": false,
      "t": 128551.77356249969,
      "d": 243.90233333333163,
      "v": 67
    },
    {
      "midi": 54,
      "hit": false,
      "t": 128551.77356249969,
      "d": 251.52428124999278,
      "v": 33
    },
    {
      "midi": 59,
      "hit": false,
      "t": 129275.858614583,
      "d": 243.90233333333163,
      "v": 63
    },
    {
      "midi": 54,
      "hit": false,
      "t": 129275.858614583,
      "d": 251.52428124999278,
      "v": 33
    },
    {
      "midi": 63,
      "hit": false,
      "t": 129275.858614583,
      "d": 259.14622916665394,
      "v": 33
    },
    {
      "midi": 59,
      "hit": false,
      "t": 129504.51705208317,
      "d": 1859.7552916666755,
      "v": 93
    },
    {
      "midi": 54,
      "hit": false,
      "t": 129512.13899999984,
      "d": 2012.194250000015,
      "v": 60
    },
    {
      "midi": 35,
      "hit": false,
      "t": 129519.7609479165,
      "d": 777.4386875000055,
      "v": 107
    },
    {
      "midi": 51,
      "hit": false,
      "t": 129519.7609479165,
      "d": 1836.889447916692,
      "v": 71
    },
    {
      "midi": 54,
      "hit": false,
      "t": 130007.56561458299,
      "d": 251.52428125000733,
      "v": 33
    },
    {
      "midi": 59,
      "hit": false,
      "t": 130007.56561458299,
      "d": 259.1462291666685,
      "v": 67
    },
    {
      "midi": 63,
      "hit": false,
      "t": 130007.56561458299,
      "d": 266.76817708332965,
      "v": 37
    },
    {
      "midi": 37,
      "hit": false,
      "t": 130236.22405208317,
      "d": 777.4386875000055,
      "v": 107
    },
    {
      "midi": 54,
      "hit": false,
      "t": 130739.27261458298,
      "d": 251.52428124999278,
      "v": 30
    },
    {
      "midi": 63,
      "hit": false,
      "t": 130739.27261458298,
      "d": 259.14622916665394,
      "v": 26
    },
    {
      "midi": 59,
      "hit": false,
      "t": 130746.89456249964,
      "d": 236.28038541667047,
      "v": 63
    },
    {
      "midi": 39,
      "hit": false,
      "t": 130975.55299999984,
      "d": 739.328947916656,
      "v": 90
    },
    {
      "midi": 59,
      "hit": false,
      "t": 131470.97961458296,
      "d": 243.90233333333163,
      "v": 58
    },
    {
      "midi": 63,
      "hit": false,
      "t": 131470.97961458296,
      "d": 251.52428124999278,
      "v": 41
    },
    {
      "midi": 54,
      "hit": false,
      "t": 131470.97961458296,
      "d": 259.14622916665394,
      "v": 33
    },
    {
      "midi": 59,
      "hit": false,
      "t": 131661.52831249984,
      "d": 1737.804124999995,
      "v": 93
    },
    {
      "midi": 56,
      "hit": false,
      "t": 131661.52831249984,
      "d": 1814.0236041666649,
      "v": 80
    },
    {
      "midi": 52,
      "hit": false,
      "t": 131669.1502604165,
      "d": 1753.0480208333465,
      "v": 77
    },
    {
      "midi": 58,
      "hit": false,
      "t": 131676.77220833316,
      "d": 15.243895833322313,
      "v": 71
    },
    {
      "midi": 40,
      "hit": false,
      "t": 131676.77220833316,
      "d": 2278.9624270833156,
      "v": 88
    },
    {
      "midi": 56,
      "hit": false,
      "t": 132202.68661458296,
      "d": 259.14622916665394,
      "v": 21
    },
    {
      "midi": 59,
      "hit": false,
      "t": 132202.68661458296,
      "d": 259.14622916665394,
      "v": 41
    },
    {
      "midi": 64,
      "hit": false,
      "t": 132202.68661458296,
      "d": 259.14622916665394,
      "v": 77
    },
    {
      "midi": 64,
      "hit": false,
      "t": 132934.39361458295,
      "d": 251.52428124999278,
      "v": 77
    },
    {
      "midi": 59,
      "hit": false,
      "t": 132942.0155624996,
      "d": 236.28038541667047,
      "v": 58
    },
    {
      "midi": 56,
      "hit": false,
      "t": 132942.0155624996,
      "d": 251.52428124999278,
      "v": 37
    },
    {
      "midi": 56,
      "hit": false,
      "t": 133666.10061458295,
      "d": 243.90233333333163,
      "v": 37
    },
    {
      "midi": 59,
      "hit": false,
      "t": 133666.10061458295,
      "d": 243.90233333333163,
      "v": 72
    },
    {
      "midi": 64,
      "hit": false,
      "t": 133666.10061458295,
      "d": 243.90233333333163,
      "v": 72
    },
    {
      "midi": 59,
      "hit": false,
      "t": 133894.75905208316,
      "d": 1913.1089270833181,
      "v": 84
    },
    {
      "midi": 54,
      "hit": false,
      "t": 133902.38099999982,
      "d": 2027.4381458333228,
      "v": 56
    },
    {
      "midi": 35,
      "hit": false,
      "t": 133902.38099999982,
      "d": 2202.742947916646,
      "v": 107
    },
    {
      "midi": 51,
      "hit": false,
      "t": 133910.00294791648,
      "d": 1829.2674999999872,
      "v": 67
    },
    {
      "midi": 59,
      "hit": false,
      "t": 134397.80761458294,
      "d": 251.5242812500219,
      "v": 63
    },
    {
      "midi": 54,
      "hit": false,
      "t": 134397.80761458294,
      "d": 259.14622916668304,
      "v": 30
    },
    {
      "midi": 63,
      "hit": false,
      "t": 134397.80761458294,
      "d": 259.14622916668304,
      "v": 23
    },
    {
      "midi": 54,
      "hit": false,
      "t": 135129.51461458296,
      "d": 259.14622916665394,
      "v": 30
    },
    {
      "midi": 63,
      "hit": false,
      "t": 135129.51461458296,
      "d": 259.14622916665394,
      "v": 30
    },
    {
      "midi": 59,
      "hit": false,
      "t": 135137.13656249963,
      "d": 243.90233333333163,
      "v": 44
    },
    {
      "midi": 59,
      "hit": false,
      "t": 135861.22161458296,
      "d": 243.90233333333163,
      "v": 63
    },
    {
      "midi": 54,
      "hit": false,
      "t": 135861.22161458296,
      "d": 251.52428124999278,
      "v": 33
    },
    {
      "midi": 63,
      "hit": false,
      "t": 135861.22161458296,
      "d": 251.52428124999278,
      "v": 33
    },
    {
      "midi": 56,
      "hit": false,
      "t": 136082.25810416648,
      "d": 1806.4016562499455,
      "v": 75
    },
    {
      "midi": 59,
      "hit": false,
      "t": 136089.88005208314,
      "d": 1783.535812499962,
      "v": 88
    },
    {
      "midi": 52,
      "hit": false,
      "t": 136089.88005208314,
      "d": 1966.4625624999462,
      "v": 77
    },
    {
      "midi": 40,
      "hit": false,
      "t": 136097.5019999998,
      "d": 2202.7429479166167,
      "v": 84
    },
    {
      "midi": 59,
      "hit": false,
      "t": 136592.92861458295,
      "d": 251.52428124999278,
      "v": 47
    },
    {
      "midi": 56,
      "hit": false,
      "t": 136592.92861458295,
      "d": 259.14622916665394,
      "v": 18
    },
    {
      "midi": 64,
      "hit": false,
      "t": 136592.92861458295,
      "d": 259.14622916665394,
      "v": 67
    },
    {
      "midi": 41,
      "hit": false,
      "t": 136646.2822499998,
      "d": 114.32921875000466,
      "v": 33
    },
    {
      "midi": 59,
      "hit": false,
      "t": 137324.63561458295,
      "d": 243.90233333333163,
      "v": 58
    },
    {
      "midi": 56,
      "hit": false,
      "t": 137324.63561458295,
      "d": 251.52428124999278,
      "v": 33
    },
    {
      "midi": 64,
      "hit": false,
      "t": 137324.63561458295,
      "d": 251.52428124999278,
      "v": 67
    },
    {
      "midi": 59,
      "hit": false,
      "t": 138056.34261458294,
      "d": 243.90233333333163,
      "v": 44
    },
    {
      "midi": 56,
      "hit": false,
      "t": 138056.34261458294,
      "d": 251.52428124999278,
      "v": 30
    },
    {
      "midi": 64,
      "hit": false,
      "t": 138056.34261458294,
      "d": 251.52428124999278,
      "v": 58
    },
    {
      "midi": 45,
      "hit": false,
      "t": 138292.62299999976,
      "d": 1859.755291666661,
      "v": 84
    },
    {
      "midi": 57,
      "hit": false,
      "t": 138300.24494791642,
      "d": 1692.072437499999,
      "v": 88
    },
    {
      "midi": 61,
      "hit": false,
      "t": 138300.24494791642,
      "d": 1699.6943854166602,
      "v": 84
    },
    {
      "midi": 52,
      "hit": false,
      "t": 138307.86689583308,
      "d": 1737.804124999995,
      "v": 97
    },
    {
      "midi": 57,
      "hit": false,
      "t": 138788.04961458294,
      "d": 259.14622916665394,
      "v": 31
    },
    {
      "midi": 61,
      "hit": false,
      "t": 138788.04961458294,
      "d": 259.14622916665394,
      "v": 30
    },
    {
      "midi": 64,
      "hit": false,
      "t": 138788.04961458294,
      "d": 259.14622916665394,
      "v": 58
    },
    {
      "midi": 57,
      "hit": false,
      "t": 139519.75661458293,
      "d": 251.52428124999278,
      "v": 41
    },
    {
      "midi": 61,
      "hit": false,
      "t": 139519.75661458293,
      "d": 251.52428124999278,
      "v": 37
    },
    {
      "midi": 64,
      "hit": false,
      "t": 139519.75661458293,
      "d": 259.14622916665394,
      "v": 67
    },
    {
      "midi": 57,
      "hit": false,
      "t": 140251.46361458293,
      "d": 251.52428124999278,
      "v": 54
    },
    {
      "midi": 61,
      "hit": false,
      "t": 140251.46361458293,
      "d": 259.14622916665394,
      "v": 54
    },
    {
      "midi": 64,
      "hit": false,
      "t": 140251.46361458293,
      "d": 259.14622916665394,
      "v": 77
    },
    {
      "midi": 56,
      "hit": false,
      "t": 140464.87815624976,
      "d": 2126.523468749976,
      "v": 80
    },
    {
      "midi": 59,
      "hit": false,
      "t": 140472.50010416642,
      "d": 1897.8650312499958,
      "v": 84
    },
    {
      "midi": 52,
      "hit": false,
      "t": 140472.50010416642,
      "d": 1905.486979166657,
      "v": 74
    },
    {
      "midi": 40,
      "hit": false,
      "t": 140480.12205208308,
      "d": 2164.633208333311,
      "v": 97
    },
    {
      "midi": 59,
      "hit": false,
      "t": 140983.1706145829,
      "d": 251.5242812500219,
      "v": 47
    },
    {
      "midi": 64,
      "hit": false,
      "t": 140983.1706145829,
      "d": 251.5242812500219,
      "v": 67
    },
    {
      "midi": 56,
      "hit": false,
      "t": 140983.1706145829,
      "d": 259.14622916668304,
      "v": 15
    },
    {
      "midi": 59,
      "hit": false,
      "t": 141722.49956249958,
      "d": 243.90233333333163,
      "v": 44
    },
    {
      "midi": 56,
      "hit": false,
      "t": 141722.49956249958,
      "d": 251.52428124999278,
      "v": 23
    },
    {
      "midi": 64,
      "hit": false,
      "t": 141722.49956249958,
      "d": 251.52428124999278,
      "v": 67
    },
    {
      "midi": 64,
      "hit": false,
      "t": 142446.5846145829,
      "d": 243.90233333333163,
      "v": 72
    },
    {
      "midi": 56,
      "hit": false,
      "t": 142454.20656249957,
      "d": 236.28038541667047,
      "v": 13
    },
    {
      "midi": 59,
      "hit": false,
      "t": 142454.20656249957,
      "d": 236.28038541667047,
      "v": 44
    },
    {
      "midi": 59,
      "hit": false,
      "t": 142652.37720833306,
      "d": 1783.5358124999912,
      "v": 102
    },
    {
      "midi": 51,
      "hit": false,
      "t": 142652.37720833306,
      "d": 1791.1577604166523,
      "v": 71
    },
    {
      "midi": 54,
      "hit": false,
      "t": 142652.37720833306,
      "d": 1798.7797083333135,
      "v": 56
    },
    {
      "midi": 35,
      "hit": false,
      "t": 142659.99915624972,
      "d": 2286.5843749999767,
      "v": 97
    },
    {
      "midi": 54,
      "hit": false,
      "t": 143178.29161458294,
      "d": 243.90233333333163,
      "v": 11
    },
    {
      "midi": 59,
      "hit": false,
      "t": 143178.29161458294,
      "d": 259.14622916665394,
      "v": 51
    },
    {
      "midi": 63,
      "hit": false,
      "t": 143178.29161458294,
      "d": 266.7681770833151,
      "v": 11
    },
    {
      "midi": 54,
      "hit": false,
      "t": 143909.99861458293,
      "d": 236.28038541667047,
      "v": 21
    },
    {
      "midi": 59,
      "hit": false,
      "t": 143909.99861458293,
      "d": 251.52428124999278,
      "v": 54
    },
    {
      "midi": 63,
      "hit": false,
      "t": 143909.99861458293,
      "d": 251.52428124999278,
      "v": 18
    },
    {
      "midi": 63,
      "hit": false,
      "t": 144641.70561458293,
      "d": 236.28038541667047,
      "v": 30
    },
    {
      "midi": 54,
      "hit": false,
      "t": 144649.3275624996,
      "d": 236.28038541667047,
      "v": 26
    },
    {
      "midi": 59,
      "hit": false,
      "t": 144649.3275624996,
      "d": 236.28038541667047,
      "v": 47
    },
    {
      "midi": 56,
      "hit": false,
      "t": 144885.60794791637,
      "d": 1760.6699687499786,
      "v": 90
    },
    {
      "midi": 59,
      "hit": false,
      "t": 144893.22989583304,
      "d": 1760.6699687499786,
      "v": 93
    },
    {
      "midi": 40,
      "hit": false,
      "t": 144893.22989583304,
      "d": 1966.4625624999753,
      "v": 97
    },
    {
      "midi": 52,
      "hit": false,
      "t": 144900.8518437497,
      "d": 1867.377239583322,
      "v": 84
    },
    {
      "midi": 59,
      "hit": false,
      "t": 145381.0345624996,
      "d": 236.28038541667047,
      "v": 38
    },
    {
      "midi": 64,
      "hit": false,
      "t": 145381.0345624996,
      "d": 236.28038541667047,
      "v": 67
    },
    {
      "midi": 56,
      "hit": false,
      "t": 145381.0345624996,
      "d": 251.52428124999278,
      "v": 18
    },
    {
      "midi": 56,
      "hit": false,
      "t": 146112.7415624996,
      "d": 243.90233333333163,
      "v": 26
    },
    {
      "midi": 59,
      "hit": false,
      "t": 146112.7415624996,
      "d": 243.90233333333163,
      "v": 33
    },
    {
      "midi": 64,
      "hit": false,
      "t": 146112.7415624996,
      "d": 243.90233333333163,
      "v": 72
    },
    {
      "midi": 56,
      "hit": false,
      "t": 146836.82661458294,
      "d": 243.90233333333163,
      "v": 18
    },
    {
      "midi": 59,
      "hit": false,
      "t": 146836.82661458294,
      "d": 243.90233333333163,
      "v": 44
    },
    {
      "midi": 64,
      "hit": false,
      "t": 146836.82661458294,
      "d": 243.90233333333163,
      "v": 67
    },
    {
      "midi": 59,
      "hit": false,
      "t": 147057.86310416635,
      "d": 1928.3528229166404,
      "v": 97
    },
    {
      "midi": 54,
      "hit": false,
      "t": 147057.86310416635,
      "d": 2027.4381458332937,
      "v": 63
    },
    {
      "midi": 51,
      "hit": false,
      "t": 147065.485052083,
      "d": 1913.1089270833181,
      "v": 75
    },
    {
      "midi": 35,
      "hit": false,
      "t": 147073.10699999967,
      "d": 792.6825833333132,
      "v": 107
    },
    {
      "midi": 54,
      "hit": false,
      "t": 147568.53361458294,
      "d": 251.52428124999278,
      "v": 18
    },
    {
      "midi": 59,
      "hit": false,
      "t": 147568.53361458294,
      "d": 251.52428124999278,
      "v": 51
    },
    {
      "midi": 63,
      "hit": false,
      "t": 147568.53361458294,
      "d": 259.14622916665394,
      "v": 11
    },
    {
      "midi": 37,
      "hit": false,
      "t": 147812.43594791632,
      "d": 762.1947916666686,
      "v": 107
    },
    {
      "midi": 54,
      "hit": false,
      "t": 148300.24061458293,
      "d": 251.52428124999278,
      "v": 23
    },
    {
      "midi": 59,
      "hit": false,
      "t": 148300.24061458293,
      "d": 251.52428124999278,
      "v": 47
    },
    {
      "midi": 63,
      "hit": false,
      "t": 148300.24061458293,
      "d": 259.14622916665394,
      "v": 13
    },
    {
      "midi": 39,
      "hit": false,
      "t": 148536.52099999966,
      "d": 701.2192083333211,
      "v": 90
    },
    {
      "midi": 59,
      "hit": false,
      "t": 149031.94761458292,
      "d": 243.90233333333163,
      "v": 51
    },
    {
      "midi": 54,
      "hit": false,
      "t": 149031.94761458292,
      "d": 251.52428124999278,
      "v": 30
    },
    {
      "midi": 63,
      "hit": false,
      "t": 149031.94761458292,
      "d": 251.52428124999278,
      "v": 21
    },
    {
      "midi": 40,
      "hit": false,
      "t": 149230.11826041632,
      "d": 1836.8894479166484,
      "v": 93
    },
    {
      "midi": 56,
      "hit": false,
      "t": 149230.11826041632,
      "d": 1852.1333437499707,
      "v": 84
    },
    {
      "midi": 59,
      "hit": false,
      "t": 149237.74020833298,
      "d": 1981.7064583333267,
      "v": 97
    },
    {
      "midi": 58,
      "hit": false,
      "t": 149245.36215624964,
      "d": 22.865843750012573,
      "v": 71
    },
    {
      "midi": 52,
      "hit": false,
      "t": 149245.36215624964,
      "d": 1951.218666666653,
      "v": 84
    },
    {
      "midi": 56,
      "hit": false,
      "t": 151463.34899999964,
      "d": 1890.2430833333055,
      "v": 90
    },
    {
      "midi": 40,
      "hit": false,
      "t": 151470.9709479163,
      "d": 739.328947916656,
      "v": 107
    },
    {
      "midi": 59,
      "hit": false,
      "t": 151470.9709479163,
      "d": 1836.8894479166484,
      "v": 93
    },
    {
      "midi": 50,
      "hit": false,
      "t": 151470.9709479163,
      "d": 1989.328406249988,
      "v": 93
    },
    {
      "midi": 42,
      "hit": false,
      "t": 152172.19015624962,
      "d": 792.6825833333423,
      "v": 107
    },
    {
      "midi": 44,
      "hit": false,
      "t": 152934.3849479163,
      "d": 724.0850520833337,
      "v": 107
    },
    {
      "midi": 45,
      "hit": false,
      "t": 153627.98220833295,
      "d": 2240.8526874999807,
      "v": 81
    },
    {
      "midi": 57,
      "hit": false,
      "t": 153635.6041562496,
      "d": 1676.8285416666768,
      "v": 88
    },
    {
      "midi": 61,
      "hit": false,
      "t": 153635.6041562496,
      "d": 1684.450489583338,
      "v": 80
    },
    {
      "midi": 52,
      "hit": false,
      "t": 153635.6041562496,
      "d": 1745.4260729166854,
      "v": 74
    },
    {
      "midi": 64,
      "hit": false,
      "t": 154153.89661458292,
      "d": 251.5242812500219,
      "v": 67
    },
    {
      "midi": 57,
      "hit": false,
      "t": 154153.89661458292,
      "d": 259.14622916668304,
      "v": 29
    },
    {
      "midi": 61,
      "hit": false,
      "t": 154153.89661458292,
      "d": 259.14622916668304,
      "v": 41
    },
    {
      "midi": 57,
      "hit": false,
      "t": 154885.60361458294,
      "d": 259.14622916665394,
      "v": 38
    },
    {
      "midi": 61,
      "hit": false,
      "t": 154885.60361458294,
      "d": 259.14622916665394,
      "v": 41
    },
    {
      "midi": 64,
      "hit": false,
      "t": 154885.60361458294,
      "d": 259.14622916665394,
      "v": 72
    },
    {
      "midi": 57,
      "hit": false,
      "t": 155617.31061458294,
      "d": 251.52428124999278,
      "v": 41
    },
    {
      "midi": 64,
      "hit": false,
      "t": 155617.31061458294,
      "d": 251.52428124999278,
      "v": 72
    },
    {
      "midi": 61,
      "hit": false,
      "t": 155617.31061458294,
      "d": 259.14622916665394,
      "v": 45
    },
    {
      "midi": 56,
      "hit": false,
      "t": 155838.34710416629,
      "d": 1791.1577604166523,
      "v": 71
    },
    {
      "midi": 52,
      "hit": false,
      "t": 155845.96905208295,
      "d": 1981.7064583333267,
      "v": 74
    },
    {
      "midi": 59,
      "hit": false,
      "t": 155853.5909999996,
      "d": 1768.2919166666688,
      "v": 88
    },
    {
      "midi": 40,
      "hit": false,
      "t": 155853.5909999996,
      "d": 2233.2307395833195,
      "v": 88
    },
    {
      "midi": 59,
      "hit": false,
      "t": 156349.01761458293,
      "d": 259.14622916665394,
      "v": 44
    },
    {
      "midi": 64,
      "hit": false,
      "t": 156349.01761458293,
      "d": 259.14622916665394,
      "v": 67
    },
    {
      "midi": 56,
      "hit": false,
      "t": 156349.01761458293,
      "d": 266.7681770833151,
      "v": 13
    },
    {
      "midi": 56,
      "hit": false,
      "t": 157080.72461458293,
      "d": 259.14622916665394,
      "v": 21
    },
    {
      "midi": 59,
      "hit": false,
      "t": 157080.72461458293,
      "d": 259.14622916665394,
      "v": 41
    },
    {
      "midi": 64,
      "hit": false,
      "t": 157080.72461458293,
      "d": 259.14622916665394,
      "v": 72
    },
    {
      "midi": 56,
      "hit": false,
      "t": 157812.43161458292,
      "d": 251.52428124999278,
      "v": 30
    },
    {
      "midi": 64,
      "hit": false,
      "t": 157812.43161458292,
      "d": 251.52428124999278,
      "v": 67
    },
    {
      "midi": 59,
      "hit": false,
      "t": 157820.05356249958,
      "d": 243.90233333333163,
      "v": 51
    },
    {
      "midi": 61,
      "hit": false,
      "t": 158033.46810416627,
      "d": 1577.7432187499653,
      "v": 75
    },
    {
      "midi": 52,
      "hit": false,
      "t": 158041.09005208293,
      "d": 1684.4504895833088,
      "v": 81
    },
    {
      "midi": 56,
      "hit": false,
      "t": 158041.09005208293,
      "d": 1684.4504895833088,
      "v": 80
    },
    {
      "midi": 37,
      "hit": false,
      "t": 158041.09005208293,
      "d": 2210.364895833307,
      "v": 90
    },
    {
      "midi": 61,
      "hit": false,
      "t": 158551.76056249958,
      "d": 243.90233333333163,
      "v": 23
    },
    {
      "midi": 56,
      "hit": false,
      "t": 158551.76056249958,
      "d": 251.52428124999278,
      "v": 23
    },
    {
      "midi": 64,
      "hit": false,
      "t": 158551.76056249958,
      "d": 251.52428124999278,
      "v": 72
    },
    {
      "midi": 56,
      "hit": false,
      "t": 159283.46756249957,
      "d": 243.90233333333163,
      "v": 30
    },
    {
      "midi": 64,
      "hit": false,
      "t": 159283.46756249957,
      "d": 243.90233333333163,
      "v": 67
    },
    {
      "midi": 61,
      "hit": false,
      "t": 159283.46756249957,
      "d": 251.52428124999278,
      "v": 41
    },
    {
      "midi": 64,
      "hit": false,
      "t": 160015.17456249957,
      "d": 228.6584375000093,
      "v": 72
    },
    {
      "midi": 56,
      "hit": false,
      "t": 160015.17456249957,
      "d": 236.28038541667047,
      "v": 37
    },
    {
      "midi": 61,
      "hit": false,
      "t": 160015.17456249957,
      "d": 236.28038541667047,
      "v": 45
    },
    {
      "midi": 57,
      "hit": false,
      "t": 160243.83299999958,
      "d": 1707.3163333333505,
      "v": 107
    },
    {
      "midi": 61,
      "hit": false,
      "t": 160243.83299999958,
      "d": 1722.5602291666728,
      "v": 84
    },
    {
      "midi": 52,
      "hit": false,
      "t": 160251.45494791624,
      "d": 1722.5602291666728,
      "v": 93
    },
    {
      "midi": 33,
      "hit": false,
      "t": 160251.45494791624,
      "d": 2248.474635416671,
      "v": 97
    },
    {
      "midi": 52,
      "hit": false,
      "t": 160739.25961458293,
      "d": 251.52428124999278,
      "v": 36
    },
    {
      "midi": 57,
      "hit": false,
      "t": 160739.25961458293,
      "d": 251.52428124999278,
      "v": 33
    },
    {
      "midi": 61,
      "hit": false,
      "t": 160739.25961458293,
      "d": 251.52428124999278,
      "v": 15
    },
    {
      "midi": 52,
      "hit": false,
      "t": 161470.96661458293,
      "d": 251.52428124999278,
      "v": 51
    },
    {
      "midi": 57,
      "hit": false,
      "t": 161470.96661458293,
      "d": 251.52428124999278,
      "v": 54
    },
    {
      "midi": 61,
      "hit": false,
      "t": 161470.96661458293,
      "d": 251.52428124999278,
      "v": 33
    },
    {
      "midi": 57,
      "hit": false,
      "t": 162202.67361458292,
      "d": 251.52428124999278,
      "v": 63
    },
    {
      "midi": 61,
      "hit": false,
      "t": 162202.67361458292,
      "d": 251.52428124999278,
      "v": 37
    },
    {
      "midi": 52,
      "hit": false,
      "t": 162210.29556249958,
      "d": 236.28038541667047,
      "v": 58
    },
    {
      "midi": 59,
      "hit": false,
      "t": 162431.3320520829,
      "d": 1783.5358125000203,
      "v": 93
    },
    {
      "midi": 54,
      "hit": false,
      "t": 162438.95399999956,
      "d": 1745.4260729166854,
      "v": 67
    },
    {
      "midi": 51,
      "hit": false,
      "t": 162446.57594791622,
      "d": 1951.2186666667112,
      "v": 75
    },
    {
      "midi": 35,
      "hit": false,
      "t": 162446.57594791622,
      "d": 2035.0600937500421,
      "v": 107
    },
    {
      "midi": 59,
      "hit": false,
      "t": 162934.38061458291,
      "d": 251.52428124999278,
      "v": 54
    },
    {
      "midi": 54,
      "hit": false,
      "t": 162934.38061458291,
      "d": 266.7681770833151,
      "v": 21
    },
    {
      "midi": 63,
      "hit": false,
      "t": 162934.38061458291,
      "d": 266.7681770833151,
      "v": 30
    },
    {
      "midi": 59,
      "hit": false,
      "t": 163673.70956249957,
      "d": 243.90233333333163,
      "v": 54
    },
    {
      "midi": 54,
      "hit": false,
      "t": 163673.70956249957,
      "d": 251.52428124999278,
      "v": 30
    },
    {
      "midi": 63,
      "hit": false,
      "t": 163673.70956249957,
      "d": 251.52428124999278,
      "v": 23
    },
    {
      "midi": 54,
      "hit": false,
      "t": 164397.7946145829,
      "d": 251.52428124999278,
      "v": 37
    },
    {
      "midi": 63,
      "hit": false,
      "t": 164397.7946145829,
      "d": 251.52428124999278,
      "v": 18
    },
    {
      "midi": 59,
      "hit": false,
      "t": 164397.7946145829,
      "d": 259.14622916665394,
      "v": 54
    },
    {
      "midi": 59,
      "hit": false,
      "t": 164634.0749999996,
      "d": 1859.755291666661,
      "v": 97
    },
    {
      "midi": 54,
      "hit": false,
      "t": 164634.0749999996,
      "d": 2042.6820416666742,
      "v": 67
    },
    {
      "midi": 51,
      "hit": false,
      "t": 164641.69694791627,
      "d": 1852.1333437499998,
      "v": 75
    },
    {
      "midi": 35,
      "hit": false,
      "t": 164656.9408437496,
      "d": 792.6825833333423,
      "v": 107
    },
    {
      "midi": 63,
      "hit": false,
      "t": 165129.5016145829,
      "d": 266.7681770833151,
      "v": 21
    },
    {
      "midi": 54,
      "hit": false,
      "t": 165137.12356249956,
      "d": 243.90233333333163,
      "v": 33
    },
    {
      "midi": 59,
      "hit": false,
      "t": 165137.12356249956,
      "d": 464.9388229166507,
      "v": 54
    },
    {
      "midi": 37,
      "hit": false,
      "t": 165388.64784374958,
      "d": 769.8167395833589,
      "v": 90
    },
    {
      "midi": 54,
      "hit": false,
      "t": 165861.20861458287,
      "d": 243.90233333333163,
      "v": 30
    },
    {
      "midi": 63,
      "hit": false,
      "t": 165861.20861458287,
      "d": 259.14622916665394,
      "v": 21
    },
    {
      "midi": 59,
      "hit": false,
      "t": 165861.20861458287,
      "d": 266.7681770833151,
      "v": 44
    },
    {
      "midi": 39,
      "hit": false,
      "t": 166097.4889999996,
      "d": 746.9508958333463,
      "v": 90
    },
    {
      "midi": 54,
      "hit": false,
      "t": 166592.91561458286,
      "d": 243.90233333333163,
      "v": 41
    },
    {
      "midi": 59,
      "hit": false,
      "t": 166592.91561458286,
      "d": 243.90233333333163,
      "v": 63
    },
    {
      "midi": 63,
      "hit": false,
      "t": 166592.91561458286,
      "d": 251.52428124999278,
      "v": 41
    },
    {
      "midi": 56,
      "hit": false,
      "t": 166798.70820833294,
      "d": 1753.0480208333174,
      "v": 80
    },
    {
      "midi": 52,
      "hit": false,
      "t": 166798.70820833294,
      "d": 1874.9991874999832,
      "v": 77
    },
    {
      "midi": 59,
      "hit": false,
      "t": 166806.3301562496,
      "d": 1775.91386458333,
      "v": 93
    },
    {
      "midi": 40,
      "hit": false,
      "t": 166806.3301562496,
      "d": 2286.5843749999767,
      "v": 77
    },
    {
      "midi": 64,
      "hit": false,
      "t": 167324.62261458286,
      "d": 243.90233333333163,
      "v": 77
    },
    {
      "midi": 56,
      "hit": false,
      "t": 167324.62261458286,
      "d": 251.52428124999278,
      "v": 33
    },
    {
      "midi": 59,
      "hit": false,
      "t": 167324.62261458286,
      "d": 251.52428124999278,
      "v": 51
    },
    {
      "midi": 56,
      "hit": false,
      "t": 168056.32961458285,
      "d": 251.52428124999278,
      "v": 26
    },
    {
      "midi": 64,
      "hit": false,
      "t": 168056.32961458285,
      "d": 251.52428124999278,
      "v": 67
    },
    {
      "midi": 59,
      "hit": false,
      "t": 168063.9515624995,
      "d": 236.28038541667047,
      "v": 51
    },
    {
      "midi": 64,
      "hit": false,
      "t": 168788.03661458284,
      "d": 243.90233333333163,
      "v": 67
    },
    {
      "midi": 56,
      "hit": false,
      "t": 168795.6585624995,
      "d": 236.28038541667047,
      "v": 26
    },
    {
      "midi": 59,
      "hit": false,
      "t": 168795.6585624995,
      "d": 236.28038541667047,
      "v": 47
    },
    {
      "midi": 59,
      "hit": false,
      "t": 169031.93894791626,
      "d": 1814.0236041666649,
      "v": 88
    },
    {
      "midi": 54,
      "hit": false,
      "t": 169039.56089583292,
      "d": 1806.4016562500037,
      "v": 63
    },
    {
      "midi": 51,
      "hit": false,
      "t": 169039.56089583292,
      "d": 1814.0236041666649,
      "v": 63
    },
    {
      "midi": 35,
      "hit": false,
      "t": 169054.80479166625,
      "d": 2195.1210000000137,
      "v": 102
    },
    {
      "midi": 54,
      "hit": false,
      "t": 169519.74361458287,
      "d": 251.52428124999278,
      "v": 30
    },
    {
      "midi": 63,
      "hit": false,
      "t": 169519.74361458287,
      "d": 251.52428124999278,
      "v": 21
    },
    {
      "midi": 59,
      "hit": false,
      "t": 169527.36556249953,
      "d": 243.90233333333163,
      "v": 58
    },
    {
      "midi": 54,
      "hit": false,
      "t": 170251.45061458286,
      "d": 243.90233333333163,
      "v": 26
    },
    {
      "midi": 63,
      "hit": false,
      "t": 170251.45061458286,
      "d": 243.90233333333163,
      "v": 26
    },
    {
      "midi": 59,
      "hit": false,
      "t": 170251.45061458286,
      "d": 259.14622916665394,
      "v": 54
    },
    {
      "midi": 59,
      "hit": false,
      "t": 170983.15761458286,
      "d": 243.90233333333163,
      "v": 58
    },
    {
      "midi": 63,
      "hit": false,
      "t": 170983.15761458286,
      "d": 243.90233333333163,
      "v": 33
    },
    {
      "midi": 54,
      "hit": false,
      "t": 170990.77956249952,
      "d": 236.28038541667047,
      "v": 41
    },
    {
      "midi": 59,
      "hit": false,
      "t": 171211.81605208293,
      "d": 2096.0356770833314,
      "v": 81
    },
    {
      "midi": 52,
      "hit": false,
      "t": 171219.4379999996,
      "d": 2126.523468750005,
      "v": 71
    },
    {
      "midi": 56,
      "hit": false,
      "t": 171219.4379999996,
      "d": 2172.255156250001,
      "v": 80
    },
    {
      "midi": 40,
      "hit": false,
      "t": 171219.4379999996,
      "d": 2278.9624270833156,
      "v": 107
    },
    {
      "midi": 59,
      "hit": false,
      "t": 171722.4865624995,
      "d": 236.28038541667047,
      "v": 58
    },
    {
      "midi": 64,
      "hit": false,
      "t": 171722.4865624995,
      "d": 236.28038541667047,
      "v": 77
    },
    {
      "midi": 56,
      "hit": false,
      "t": 171722.4865624995,
      "d": 243.90233333333163,
      "v": 30
    },
    {
      "midi": 64,
      "hit": false,
      "t": 172454.1935624995,
      "d": 228.6584375000093,
      "v": 77
    },
    {
      "midi": 56,
      "hit": false,
      "t": 172454.1935624995,
      "d": 236.28038541667047,
      "v": 26
    },
    {
      "midi": 59,
      "hit": false,
      "t": 172454.1935624995,
      "d": 236.28038541667047,
      "v": 36
    },
    {
      "midi": 64,
      "hit": false,
      "t": 173178.27861458284,
      "d": 243.90233333333163,
      "v": 72
    },
    {
      "midi": 56,
      "hit": false,
      "t": 173178.27861458284,
      "d": 251.52428124999278,
      "v": 23
    },
    {
      "midi": 59,
      "hit": false,
      "t": 173178.27861458284,
      "d": 266.7681770833151,
      "v": 41
    },
    {
      "midi": 52,
      "hit": false,
      "t": 173399.31510416625,
      "d": 1996.9503541666782,
      "v": 42
    },
    {
      "midi": 57,
      "hit": false,
      "t": 173414.55899999957,
      "d": 1920.7308750000084,
      "v": 66
    },
    {
      "midi": 61,
      "hit": false,
      "t": 173422.18094791623,
      "d": 1859.75529166669,
      "v": 84
    },
    {
      "midi": 33,
      "hit": false,
      "t": 173422.18094791623,
      "d": 2187.4990520833526,
      "v": 97
    },
    {
      "midi": 61,
      "hit": false,
      "t": 173909.9856145828,
      "d": 259.14622916665394,
      "v": 30
    },
    {
      "midi": 64,
      "hit": false,
      "t": 173909.9856145828,
      "d": 259.14622916665394,
      "v": 63
    },
    {
      "midi": 57,
      "hit": false,
      "t": 173917.60756249947,
      "d": 243.90233333333163,
      "v": 29
    },
    {
      "midi": 57,
      "hit": false,
      "t": 174649.31456249946,
      "d": 236.28038541667047,
      "v": 41
    },
    {
      "midi": 64,
      "hit": false,
      "t": 174649.31456249946,
      "d": 236.28038541667047,
      "v": 77
    },
    {
      "midi": 61,
      "hit": false,
      "t": 174649.31456249946,
      "d": 243.90233333333163,
      "v": 41
    },
    {
      "midi": 57,
      "hit": false,
      "t": 175373.3996145828,
      "d": 243.90233333333163,
      "v": 51
    },
    {
      "midi": 61,
      "hit": false,
      "t": 175373.3996145828,
      "d": 243.90233333333163,
      "v": 50
    },
    {
      "midi": 64,
      "hit": false,
      "t": 175373.3996145828,
      "d": 243.90233333333163,
      "v": 77
    },
    {
      "midi": 59,
      "hit": false,
      "t": 175602.05805208292,
      "d": 1753.0480208333465,
      "v": 93
    },
    {
      "midi": 56,
      "hit": false,
      "t": 175602.05805208292,
      "d": 1806.4016562500037,
      "v": 75
    },
    {
      "midi": 52,
      "hit": false,
      "t": 175602.05805208292,
      "d": 1844.5113958333386,
      "v": 81
    },
    {
      "midi": 40,
      "hit": false,
      "t": 175609.6799999996,
      "d": 2210.364895833336,
      "v": 88
    },
    {
      "midi": 64,
      "hit": false,
      "t": 176105.1066145828,
      "d": 259.14622916668304,
      "v": 67
    },
    {
      "midi": 59,
      "hit": false,
      "t": 176112.72856249945,
      "d": 243.90233333336073,
      "v": 47
    },
    {
      "midi": 56,
      "hit": false,
      "t": 176112.72856249945,
      "d": 251.5242812500219,
      "v": 30
    },
    {
      "midi": 59,
      "hit": false,
      "t": 176844.43556249948,
      "d": 236.28038541667047,
      "v": 51
    },
    {
      "midi": 56,
      "hit": false,
      "t": 176844.43556249948,
      "d": 251.52428124999278,
      "v": 26
    },
    {
      "midi": 64,
      "hit": false,
      "t": 176844.43556249948,
      "d": 251.52428124999278,
      "v": 67
    },
    {
      "midi": 64,
      "hit": false,
      "t": 177568.5206145828,
      "d": 236.28038541667047,
      "v": 67
    },
    {
      "midi": 56,
      "hit": false,
      "t": 177568.5206145828,
      "d": 243.90233333333163,
      "v": 30
    },
    {
      "midi": 59,
      "hit": false,
      "t": 177568.5206145828,
      "d": 243.90233333333163,
      "v": 51
    },
    {
      "midi": 51,
      "hit": false,
      "t": 177789.55710416628,
      "d": 1806.4016562500037,
      "v": 67
    },
    {
      "midi": 59,
      "hit": false,
      "t": 177789.55710416628,
      "d": 1814.0236041666649,
      "v": 88
    },
    {
      "midi": 54,
      "hit": false,
      "t": 177797.17905208294,
      "d": 1996.9503541666782,
      "v": 60
    },
    {
      "midi": 35,
      "hit": false,
      "t": 177797.17905208294,
      "d": 2240.85268750001,
      "v": 102
    },
    {
      "midi": 59,
      "hit": false,
      "t": 178300.22761458284,
      "d": 251.52428124999278,
      "v": 54
    },
    {
      "midi": 63,
      "hit": false,
      "t": 178300.22761458284,
      "d": 251.52428124999278,
      "v": 18
    },
    {
      "midi": 54,
      "hit": false,
      "t": 178300.22761458284,
      "d": 259.14622916665394,
      "v": 18
    },
    {
      "midi": 59,
      "hit": false,
      "t": 179039.5565624995,
      "d": 236.28038541667047,
      "v": 63
    },
    {
      "midi": 54,
      "hit": false,
      "t": 179039.5565624995,
      "d": 243.90233333333163,
      "v": 30
    },
    {
      "midi": 63,
      "hit": false,
      "t": 179039.5565624995,
      "d": 243.90233333333163,
      "v": 21
    },
    {
      "midi": 59,
      "hit": false,
      "t": 179771.2635624995,
      "d": 236.28038541667047,
      "v": 58
    },
    {
      "midi": 54,
      "hit": false,
      "t": 179771.2635624995,
      "d": 243.90233333333163,
      "v": 30
    },
    {
      "midi": 63,
      "hit": false,
      "t": 179771.2635624995,
      "d": 243.90233333333163,
      "v": 33
    },
    {
      "midi": 56,
      "hit": false,
      "t": 179984.6781041663,
      "d": 1836.8894479166775,
      "v": 60
    },
    {
      "midi": 59,
      "hit": false,
      "t": 179992.30005208295,
      "d": 1791.1577604166814,
      "v": 81
    },
    {
      "midi": 52,
      "hit": false,
      "t": 179992.30005208295,
      "d": 1852.1333437500289,
      "v": 71
    },
    {
      "midi": 40,
      "hit": false,
      "t": 179999.9219999996,
      "d": 2164.633208333369,
      "v": 102
    },
    {
      "midi": 59,
      "hit": false,
      "t": 180495.34861458282,
      "d": 243.90233333333163,
      "v": 54
    },
    {
      "midi": 56,
      "hit": false,
      "t": 180495.34861458282,
      "d": 251.52428124999278,
      "v": 23
    },
    {
      "midi": 64,
      "hit": false,
      "t": 180495.34861458282,
      "d": 251.52428124999278,
      "v": 77
    },
    {
      "midi": 64,
      "hit": false,
      "t": 181227.05561458282,
      "d": 259.14622916665394,
      "v": 72
    },
    {
      "midi": 56,
      "hit": false,
      "t": 181234.67756249948,
      "d": 243.90233333333163,
      "v": 23
    },
    {
      "midi": 59,
      "hit": false,
      "t": 181234.67756249948,
      "d": 243.90233333333163,
      "v": 47
    },
    {
      "midi": 64,
      "hit": false,
      "t": 181958.7626145828,
      "d": 243.90233333333163,
      "v": 77
    },
    {
      "midi": 56,
      "hit": false,
      "t": 181966.38456249947,
      "d": 236.28038541667047,
      "v": 26
    },
    {
      "midi": 59,
      "hit": false,
      "t": 181966.38456249947,
      "d": 236.28038541667047,
      "v": 51
    },
    {
      "midi": 59,
      "hit": false,
      "t": 182187.421052083,
      "d": 1874.9991874999832,
      "v": 84
    },
    {
      "midi": 54,
      "hit": false,
      "t": 182195.04299999966,
      "d": 2019.8161979166616,
      "v": 63
    },
    {
      "midi": 35,
      "hit": false,
      "t": 182202.66494791632,
      "d": 777.4386874999909,
      "v": 107
    },
    {
      "midi": 51,
      "hit": false,
      "t": 182202.66494791632,
      "d": 1859.755291666661,
      "v": 71
    },
    {
      "midi": 54,
      "hit": false,
      "t": 182690.4696145828,
      "d": 251.52428124999278,
      "v": 33
    },
    {
      "midi": 59,
      "hit": false,
      "t": 182690.4696145828,
      "d": 251.52428124999278,
      "v": 63
    },
    {
      "midi": 63,
      "hit": false,
      "t": 182690.4696145828,
      "d": 251.52428124999278,
      "v": 26
    },
    {
      "midi": 37,
      "hit": false,
      "t": 182926.74999999965,
      "d": 777.4386874999909,
      "v": 107
    },
    {
      "midi": 54,
      "hit": false,
      "t": 183429.79856249946,
      "d": 236.28038541667047,
      "v": 45
    },
    {
      "midi": 59,
      "hit": false,
      "t": 183429.79856249946,
      "d": 236.28038541667047,
      "v": 63
    },
    {
      "midi": 63,
      "hit": false,
      "t": 183429.79856249946,
      "d": 236.28038541667047,
      "v": 33
    },
    {
      "midi": 39,
      "hit": false,
      "t": 183666.0789479163,
      "d": 724.0850520833337,
      "v": 90
    },
    {
      "midi": 54,
      "hit": false,
      "t": 184161.50556249946,
      "d": 236.28038541667047,
      "v": 41
    },
    {
      "midi": 59,
      "hit": false,
      "t": 184161.50556249946,
      "d": 236.28038541667047,
      "v": 67
    },
    {
      "midi": 63,
      "hit": false,
      "t": 184161.50556249946,
      "d": 236.28038541667047,
      "v": 33
    },
    {
      "midi": 59,
      "hit": false,
      "t": 184367.29815624966,
      "d": 1753.0480208333174,
      "v": 93
    },
    {
      "midi": 52,
      "hit": false,
      "t": 184374.92010416632,
      "d": 1768.2919166666688,
      "v": 84
    },
    {
      "midi": 56,
      "hit": false,
      "t": 184374.92010416632,
      "d": 1814.0236041666649,
      "v": 84
    },
    {
      "midi": 40,
      "hit": false,
      "t": 184374.92010416632,
      "d": 2256.096583333303,
      "v": 81
    },
    {
      "midi": 59,
      "hit": false,
      "t": 184885.5906145828,
      "d": 243.90233333333163,
      "v": 51
    },
    {
      "midi": 64,
      "hit": false,
      "t": 184885.5906145828,
      "d": 243.90233333333163,
      "v": 77
    },
    {
      "midi": 56,
      "hit": false,
      "t": 184885.5906145828,
      "d": 251.52428124999278,
      "v": 21
    },
    {
      "midi": 56,
      "hit": false,
      "t": 185617.29761458279,
      "d": 251.52428124999278,
      "v": 26
    },
    {
      "midi": 59,
      "hit": false,
      "t": 185617.29761458279,
      "d": 251.52428124999278,
      "v": 47
    },
    {
      "midi": 64,
      "hit": false,
      "t": 185617.29761458279,
      "d": 251.52428124999278,
      "v": 63
    },
    {
      "midi": 64,
      "hit": false,
      "t": 186349.00461458278,
      "d": 243.90233333333163,
      "v": 72
    },
    {
      "midi": 56,
      "hit": false,
      "t": 186356.62656249944,
      "d": 236.28038541667047,
      "v": 21
    },
    {
      "midi": 59,
      "hit": false,
      "t": 186356.62656249944,
      "d": 236.28038541667047,
      "v": 51
    },
    {
      "midi": 54,
      "hit": false,
      "t": 186570.0411041663,
      "d": 1791.1577604166232,
      "v": 56
    },
    {
      "midi": 59,
      "hit": false,
      "t": 186570.0411041663,
      "d": 1791.1577604166232,
      "v": 93
    },
    {
      "midi": 51,
      "hit": false,
      "t": 186577.66305208296,
      "d": 1806.4016562499746,
      "v": 67
    },
    {
      "midi": 35,
      "hit": false,
      "t": 186585.28499999963,
      "d": 2164.633208333311,
      "v": 107
    },
    {
      "midi": 54,
      "hit": false,
      "t": 187080.71161458277,
      "d": 251.52428124999278,
      "v": 26
    },
    {
      "midi": 59,
      "hit": false,
      "t": 187080.71161458277,
      "d": 251.52428124999278,
      "v": 58
    },
    {
      "midi": 63,
      "hit": false,
      "t": 187080.71161458277,
      "d": 259.14622916665394,
      "v": 23
    },
    {
      "midi": 54,
      "hit": false,
      "t": 187820.04056249943,
      "d": 236.28038541667047,
      "v": 30
    },
    {
      "midi": 63,
      "hit": false,
      "t": 187820.04056249943,
      "d": 243.90233333333163,
      "v": 37
    },
    {
      "midi": 59,
      "hit": false,
      "t": 187820.04056249943,
      "d": 251.52428124999278,
      "v": 58
    },
    {
      "midi": 59,
      "hit": false,
      "t": 188544.12561458276,
      "d": 236.28038541667047,
      "v": 63
    },
    {
      "midi": 63,
      "hit": false,
      "t": 188544.12561458276,
      "d": 243.90233333333163,
      "v": 37
    },
    {
      "midi": 54,
      "hit": false,
      "t": 188544.12561458276,
      "d": 251.52428124999278,
      "v": 41
    },
    {
      "midi": 52,
      "hit": false,
      "t": 188757.5401562496,
      "d": 2088.4137291666702,
      "v": 84
    },
    {
      "midi": 56,
      "hit": false,
      "t": 188757.5401562496,
      "d": 2126.523468750005,
      "v": 84
    },
    {
      "midi": 59,
      "hit": false,
      "t": 188765.16210416626,
      "d": 1958.8406145833433,
      "v": 93
    },
    {
      "midi": 40,
      "hit": false,
      "t": 188780.40599999958,
      "d": 785.0606354166812,
      "v": 93
    },
    {
      "midi": 56,
      "hit": false,
      "t": 189275.83261458276,
      "d": 251.52428124999278,
      "v": 30
    },
    {
      "midi": 59,
      "hit": false,
      "t": 189275.83261458276,
      "d": 251.52428124999278,
      "v": 47
    },
    {
      "midi": 64,
      "hit": false,
      "t": 189275.83261458276,
      "d": 251.52428124999278,
      "v": 77
    },
    {
      "midi": 42,
      "hit": false,
      "t": 189527.35689583293,
      "d": 716.4631041666726,
      "v": 107
    },
    {
      "midi": 56,
      "hit": false,
      "t": 190007.53961458275,
      "d": 243.90233333333163,
      "v": 26
    },
    {
      "midi": 64,
      "hit": false,
      "t": 190007.53961458275,
      "d": 243.90233333333163,
      "v": 77
    },
    {
      "midi": 59,
      "hit": false,
      "t": 190007.53961458275,
      "d": 251.52428124999278,
      "v": 51
    },
    {
      "midi": 44,
      "hit": false,
      "t": 190251.44194791626,
      "d": 769.8167395833298,
      "v": 107
    },
    {
      "midi": 56,
      "hit": false,
      "t": 190746.8685624994,
      "d": 236.28038541667047,
      "v": 26
    },
    {
      "midi": 64,
      "hit": false,
      "t": 190746.8685624994,
      "d": 236.28038541667047,
      "v": 77
    },
    {
      "midi": 59,
      "hit": false,
      "t": 190746.8685624994,
      "d": 251.52428124999278,
      "v": 44
    },
    {
      "midi": 52,
      "hit": false,
      "t": 190983.14894791626,
      "d": 1905.486979166657,
      "v": 84
    },
    {
      "midi": 61,
      "hit": false,
      "t": 190990.77089583292,
      "d": 1684.450489583338,
      "v": 80
    },
    {
      "midi": 57,
      "hit": false,
      "t": 190990.77089583292,
      "d": 1699.6943854166602,
      "v": 81
    },
    {
      "midi": 45,
      "hit": false,
      "t": 190998.39284374958,
      "d": 2202.742947916646,
      "v": 88
    },
    {
      "midi": 57,
      "hit": false,
      "t": 191470.95361458274,
      "d": 266.7681770833442,
      "v": 36
    },
    {
      "midi": 64,
      "hit": false,
      "t": 191470.95361458274,
      "d": 266.7681770833442,
      "v": 67
    },
    {
      "midi": 61,
      "hit": false,
      "t": 191470.95361458274,
      "d": 274.39012500000536,
      "v": 45
    },
    {
      "midi": 61,
      "hit": false,
      "t": 192202.66061458274,
      "d": 251.52428124999278,
      "v": 37
    },
    {
      "midi": 64,
      "hit": false,
      "t": 192202.66061458274,
      "d": 251.52428124999278,
      "v": 77
    },
    {
      "midi": 57,
      "hit": false,
      "t": 192210.2825624994,
      "d": 243.90233333333163,
      "v": 41
    },
    {
      "midi": 57,
      "hit": false,
      "t": 192934.36761458273,
      "d": 243.90233333333163,
      "v": 51
    },
    {
      "midi": 61,
      "hit": false,
      "t": 192934.36761458273,
      "d": 243.90233333333163,
      "v": 50
    },
    {
      "midi": 64,
      "hit": false,
      "t": 192934.36761458273,
      "d": 243.90233333333163,
      "v": 77
    },
    {
      "midi": 56,
      "hit": false,
      "t": 193140.1602083329,
      "d": 1714.9382812499534,
      "v": 71
    },
    {
      "midi": 59,
      "hit": false,
      "t": 193147.78215624957,
      "d": 1699.6943854166311,
      "v": 84
    },
    {
      "midi": 52,
      "hit": false,
      "t": 193155.40410416623,
      "d": 1676.8285416666477,
      "v": 81
    },
    {
      "midi": 40,
      "hit": false,
      "t": 193155.40410416623,
      "d": 2263.718531249935,
      "v": 102
    },
    {
      "midi": 58,
      "hit": false,
      "t": 193163.0260520829,
      "d": 53.3536354166572,
      "v": 63
    },
    {
      "midi": 59,
      "hit": false,
      "t": 193666.07461458273,
      "d": 251.52428124999278,
      "v": 47
    },
    {
      "midi": 56,
      "hit": false,
      "t": 193666.07461458273,
      "d": 259.14622916665394,
      "v": 26
    },
    {
      "midi": 64,
      "hit": false,
      "t": 193666.07461458273,
      "d": 259.14622916665394,
      "v": 77
    },
    {
      "midi": 64,
      "hit": false,
      "t": 194397.78161458272,
      "d": 259.14622916665394,
      "v": 72
    },
    {
      "midi": 56,
      "hit": false,
      "t": 194405.40356249938,
      "d": 243.90233333333163,
      "v": 33
    },
    {
      "midi": 59,
      "hit": false,
      "t": 194405.40356249938,
      "d": 243.90233333333163,
      "v": 51
    },
    {
      "midi": 64,
      "hit": false,
      "t": 195129.48861458272,
      "d": 236.28038541667047,
      "v": 77
    },
    {
      "midi": 56,
      "hit": false,
      "t": 195129.48861458272,
      "d": 243.90233333333163,
      "v": 33
    },
    {
      "midi": 59,
      "hit": false,
      "t": 195129.48861458272,
      "d": 243.90233333333163,
      "v": 51
    },
    {
      "midi": 59,
      "hit": false,
      "t": 195350.52510416618,
      "d": 1669.2065937499865,
      "v": 84
    },
    {
      "midi": 54,
      "hit": false,
      "t": 195358.14705208284,
      "d": 1585.3651666666556,
      "v": 45
    },
    {
      "midi": 51,
      "hit": false,
      "t": 195358.14705208284,
      "d": 1676.8285416666477,
      "v": 60
    },
    {
      "midi": 35,
      "hit": false,
      "t": 195365.7689999995,
      "d": 2217.986843749968,
      "v": 102
    },
    {
      "midi": 54,
      "hit": false,
      "t": 195861.1956145827,
      "d": 251.5242812500219,
      "v": 26
    },
    {
      "midi": 59,
      "hit": false,
      "t": 195861.1956145827,
      "d": 251.5242812500219,
      "v": 58
    },
    {
      "midi": 63,
      "hit": false,
      "t": 195861.1956145827,
      "d": 251.5242812500219,
      "v": 30
    },
    {
      "midi": 59,
      "hit": false,
      "t": 196592.90261458274,
      "d": 243.90233333333163,
      "v": 54
    },
    {
      "midi": 63,
      "hit": false,
      "t": 196592.90261458274,
      "d": 243.90233333333163,
      "v": 18
    },
    {
      "midi": 54,
      "hit": false,
      "t": 196592.90261458274,
      "d": 251.52428124999278,
      "v": 30
    },
    {
      "midi": 59,
      "hit": false,
      "t": 197324.60961458273,
      "d": 236.28038541667047,
      "v": 51
    },
    {
      "midi": 54,
      "hit": false,
      "t": 197324.60961458273,
      "d": 243.90233333333163,
      "v": 33
    },
    {
      "midi": 63,
      "hit": false,
      "t": 197324.60961458273,
      "d": 243.90233333333163,
      "v": 37
    },
    {
      "midi": 61,
      "hit": false,
      "t": 197538.02415624948,
      "d": 1775.91386458333,
      "v": 84
    },
    {
      "midi": 57,
      "hit": false,
      "t": 197538.02415624948,
      "d": 1791.1577604166523,
      "v": 97
    },
    {
      "midi": 52,
      "hit": false,
      "t": 197545.64610416614,
      "d": 1852.1333437499998,
      "v": 93
    },
    {
      "midi": 33,
      "hit": false,
      "t": 197545.64610416614,
      "d": 1890.2430833333347,
      "v": 97
    },
    {
      "midi": 57,
      "hit": false,
      "t": 198056.31661458273,
      "d": 251.5242812500219,
      "v": 27
    },
    {
      "midi": 64,
      "hit": false,
      "t": 198056.31661458273,
      "d": 251.5242812500219,
      "v": 72
    },
    {
      "midi": 61,
      "hit": false,
      "t": 198056.31661458273,
      "d": 259.14622916668304,
      "v": 41
    },
    {
      "midi": 57,
      "hit": false,
      "t": 198788.02361458275,
      "d": 259.14622916665394,
      "v": 44
    },
    {
      "midi": 64,
      "hit": false,
      "t": 198788.02361458275,
      "d": 259.14622916665394,
      "v": 72
    },
    {
      "midi": 61,
      "hit": false,
      "t": 198788.02361458275,
      "d": 266.7681770833151,
      "v": 50
    },
    {
      "midi": 57,
      "hit": false,
      "t": 199519.73061458275,
      "d": 228.6584375000093,
      "v": 27
    },
    {
      "midi": 61,
      "hit": false,
      "t": 199519.73061458275,
      "d": 228.6584375000093,
      "v": 37
    },
    {
      "midi": 64,
      "hit": false,
      "t": 199519.73061458275,
      "d": 228.6584375000093,
      "v": 51
    },
    {
      "midi": 33,
      "hit": false,
      "t": 199756.01099999947,
      "d": 724.0850520833337,
      "v": 107
    },
    {
      "midi": 57,
      "hit": false,
      "t": 199756.01099999947,
      "d": 724.0850520833337,
      "v": 102
    },
    {
      "midi": 61,
      "hit": false,
      "t": 199756.01099999947,
      "d": 724.0850520833337,
      "v": 75
    },
    {
      "midi": 61,
      "hit": false,
      "t": 199763.63294791608,
      "d": 259.14622916668304,
      "v": 60
    },
    {
      "midi": 57,
      "hit": false,
      "t": 199771.25489583274,
      "d": 259.14622916668304,
      "v": 54
    },
    {
      "midi": 32,
      "hit": false,
      "t": 200487.71799999947,
      "d": 724.0850520833337,
      "v": 90
    },
    {
      "midi": 56,
      "hit": false,
      "t": 200487.71799999947,
      "d": 724.0850520833337,
      "v": 80
    },
    {
      "midi": 59,
      "hit": false,
      "t": 200487.71799999947,
      "d": 724.0850520833337,
      "v": 97
    },
    {
      "midi": 56,
      "hit": false,
      "t": 200502.96189583276,
      "d": 251.52428124999278,
      "v": 45
    },
    {
      "midi": 59,
      "hit": false,
      "t": 200502.96189583276,
      "d": 251.52428124999278,
      "v": 58
    },
    {
      "midi": 30,
      "hit": false,
      "t": 201219.42499999946,
      "d": 724.0850520833337,
      "v": 107
    },
    {
      "midi": 54,
      "hit": false,
      "t": 201219.42499999946,
      "d": 724.0850520833337,
      "v": 71
    },
    {
      "midi": 57,
      "hit": false,
      "t": 201219.42499999946,
      "d": 724.0850520833337,
      "v": 88
    },
    {
      "midi": 57,
      "hit": false,
      "t": 201227.0469479161,
      "d": 236.28038541667047,
      "v": 51
    },
    {
      "midi": 54,
      "hit": false,
      "t": 201227.0469479161,
      "d": 243.90233333333163,
      "v": 33
    },
    {
      "midi": 52,
      "hit": false,
      "t": 201813.93693749944,
      "d": 4565.546802083321,
      "v": 38
    },
    {
      "midi": 56,
      "hit": false,
      "t": 201852.04667708278,
      "d": 4557.92485416666,
      "v": 23
    },
    {
      "midi": 59,
      "hit": false,
      "t": 201928.26615624945,
      "d": 4474.083427083329,
      "v": 41
    },
    {
      "midi": 28,
      "hit": false,
      "t": 201951.13199999946,
      "d": 4390.241999999998,
      "v": 97
    },
    {
      "midi": 52,
      "hit": false,
      "t": 201951.13199999946,
      "d": 4390.241999999998,
      "v": 84
    },
    {
      "midi": 56,
      "hit": false,
      "t": 201951.13199999946,
      "d": 4390.241999999998,
      "v": 84
    },
    {
      "midi": 64,
      "hit": false,
      "t": 201981.6197916661,
      "d": 4382.620052083337,
      "v": 77
    }
  ]
}