{
  "jsonPath": "Rock/Country Rock/Clay Walker/then-what-album-version.json",
  "path": "Rock\\Country Rock\\Clay Walker\\Then What (Album Version).mid",
  "name": "Then What (Album Version)",
  "difficulty": "Advanced",
  "bpm": 87.00002175000543,
  "notes": [
    {
      "midi": 56,
      "hit": false,
      "t": 8268.67609375,
      "d": 495.6895312500001,
      "v": 80
    },
    {
      "midi": 52,
      "hit": false,
      "t": 8275.86,
      "d": 495.6895312500001,
      "v": 92
    },
    {
      "midi": 57,
      "hit": false,
      "t": 8778.733437500001,
      "d": 366.3792187500003,
      "v": 71
    },
    {
      "midi": 54,
      "hit": false,
      "t": 8778.733437500001,
      "d": 387.93093750000116,
      "v": 74
    },
    {
      "midi": 59,
      "hit": false,
      "t": 9123.5609375,
      "d": 423.8504687500026,
      "v": 83
    },
    {
      "midi": 56,
      "hit": false,
      "t": 9130.74484375,
      "d": 359.1953125000018,
      "v": 80
    },
    {
      "midi": 61,
      "hit": false,
      "t": 9468.388437500002,
      "d": 1537.3559375000023,
      "v": 74
    },
    {
      "midi": 57,
      "hit": false,
      "t": 9475.572343750002,
      "d": 1573.275468750002,
      "v": 78
    },
    {
      "midi": 59,
      "hit": false,
      "t": 11012.928281250004,
      "d": 538.79296875,
      "v": 97
    },
    {
      "midi": 56,
      "hit": false,
      "t": 11020.112187500004,
      "d": 502.87343749999854,
      "v": 80
    },
    {
      "midi": 61,
      "hit": false,
      "t": 11522.985625000003,
      "d": 416.6665625000023,
      "v": 74
    },
    {
      "midi": 57,
      "hit": false,
      "t": 11530.169531250003,
      "d": 402.29875000000175,
      "v": 78
    },
    {
      "midi": 59,
      "hit": false,
      "t": 11874.997031250005,
      "d": 366.3792187500021,
      "v": 87
    },
    {
      "midi": 56,
      "hit": false,
      "t": 11874.997031250005,
      "d": 373.5631250000024,
      "v": 74
    },
    {
      "midi": 54,
      "hit": false,
      "t": 12227.008437500006,
      "d": 1501.4364062500008,
      "v": 70
    },
    {
      "midi": 57,
      "hit": false,
      "t": 12227.008437500006,
      "d": 1558.9076562500013,
      "v": 83
    },
    {
      "midi": 56,
      "hit": false,
      "t": 13764.364375000001,
      "d": 1199.7123437500013,
      "v": 80
    },
    {
      "midi": 59,
      "hit": false,
      "t": 13771.548281250001,
      "d": 1091.9537500000006,
      "v": 97
    },
    {
      "midi": 52,
      "hit": false,
      "t": 13771.548281250001,
      "d": 2442.5281250000025,
      "v": 97
    },
    {
      "midi": 56,
      "hit": false,
      "t": 13771.548281250007,
      "d": 545.9768750000021,
      "v": 74
    },
    {
      "midi": 28,
      "hit": false,
      "t": 13778.732187500002,
      "d": 1199.7123437500013,
      "v": 97
    },
    {
      "midi": 52,
      "hit": false,
      "t": 13778.732187500007,
      "d": 596.2642187500023,
      "v": 83
    },
    {
      "midi": 57,
      "hit": false,
      "t": 14303.157343750008,
      "d": 431.0343750000011,
      "v": 64
    },
    {
      "midi": 54,
      "hit": false,
      "t": 14310.341250000009,
      "d": 387.93093750000116,
      "v": 80
    },
    {
      "midi": 56,
      "hit": false,
      "t": 14655.16875000001,
      "d": 337.64359375000095,
      "v": 74
    },
    {
      "midi": 59,
      "hit": false,
      "t": 14655.16875000001,
      "d": 344.82750000000124,
      "v": 78
    },
    {
      "midi": 57,
      "hit": false,
      "t": 14978.444531250003,
      "d": 1235.631875000001,
      "v": 78
    },
    {
      "midi": 61,
      "hit": false,
      "t": 14978.44453125001,
      "d": 1609.1950000000033,
      "v": 80
    },
    {
      "midi": 61,
      "hit": false,
      "t": 14985.628437500003,
      "d": 1293.1031250000015,
      "v": 97
    },
    {
      "midi": 33,
      "hit": false,
      "t": 14985.628437500003,
      "d": 1537.3559375000004,
      "v": 97
    },
    {
      "midi": 57,
      "hit": false,
      "t": 14985.62843750001,
      "d": 1558.9076562500013,
      "v": 83
    },
    {
      "midi": 63,
      "hit": false,
      "t": 16530.168281250004,
      "d": 840.5170312500013,
      "v": 65
    },
    {
      "midi": 59,
      "hit": false,
      "t": 16530.168281250004,
      "d": 854.8848437500019,
      "v": 87
    },
    {
      "midi": 54,
      "hit": false,
      "t": 16537.352187500004,
      "d": 826.1492187500007,
      "v": 70
    },
    {
      "midi": 35,
      "hit": false,
      "t": 16537.352187500004,
      "d": 1242.815781250003,
      "v": 97
    },
    {
      "midi": 63,
      "hit": false,
      "t": 16537.35218750001,
      "d": 1170.9767187500001,
      "v": 70
    },
    {
      "midi": 59,
      "hit": false,
      "t": 16544.53609375001,
      "d": 1091.9537500000006,
      "v": 83
    },
    {
      "midi": 56,
      "hit": false,
      "t": 17744.248437500013,
      "d": 2622.1257812500007,
      "v": 80
    },
    {
      "midi": 64,
      "hit": false,
      "t": 17744.248437500013,
      "d": 2701.1487500000003,
      "v": 92
    },
    {
      "midi": 59,
      "hit": false,
      "t": 17744.248437500013,
      "d": 2780.17171875,
      "v": 71
    },
    {
      "midi": 52,
      "hit": false,
      "t": 17751.432343750006,
      "d": 2923.849843750002,
      "v": 87
    },
    {
      "midi": 56,
      "hit": false,
      "t": 17751.432343750006,
      "d": 2923.849843750002,
      "v": 61
    },
    {
      "midi": 28,
      "hit": false,
      "t": 17758.616250000006,
      "d": 2923.849843750002,
      "v": 97
    },
    {
      "midi": 59,
      "hit": false,
      "t": 20682.46609375001,
      "d": 7.183906250000291,
      "v": 71
    },
    {
      "midi": 68,
      "hit": false,
      "t": 20682.46609375001,
      "d": 1070.4020312499997,
      "v": 74
    },
    {
      "midi": 64,
      "hit": false,
      "t": 20682.46609375001,
      "d": 1106.3215625000012,
      "v": 97
    },
    {
      "midi": 40,
      "hit": false,
      "t": 20682.46609375001,
      "d": 1206.8962500000016,
      "v": 83
    },
    {
      "midi": 40,
      "hit": false,
      "t": 20682.466093750012,
      "d": 1364.9421875000007,
      "v": 92
    },
    {
      "midi": 59,
      "hit": false,
      "t": 21364.93718750001,
      "d": 682.4710937500022,
      "v": 78
    },
    {
      "midi": 56,
      "hit": false,
      "t": 21372.12109375001,
      "d": 668.1032812500016,
      "v": 70
    },
    {
      "midi": 64,
      "hit": false,
      "t": 21372.12109375001,
      "d": 675.2871875000019,
      "v": 67
    },
    {
      "midi": 64,
      "hit": false,
      "t": 22061.77609375001,
      "d": 1156.6089062500032,
      "v": 83
    },
    {
      "midi": 69,
      "hit": false,
      "t": 22068.96000000001,
      "d": 1012.930781250001,
      "v": 56
    },
    {
      "midi": 61,
      "hit": false,
      "t": 22068.96000000001,
      "d": 1106.3215625000012,
      "v": 65
    },
    {
      "midi": 45,
      "hit": false,
      "t": 22068.96000000001,
      "d": 1199.7123437500013,
      "v": 64
    },
    {
      "midi": 45,
      "hit": false,
      "t": 22068.960000000014,
      "d": 1314.6548437499987,
      "v": 83
    },
    {
      "midi": 61,
      "hit": false,
      "t": 22758.615000000013,
      "d": 704.022812500003,
      "v": 70
    },
    {
      "midi": 57,
      "hit": false,
      "t": 22765.798906250013,
      "d": 739.9423437500045,
      "v": 97
    },
    {
      "midi": 40,
      "hit": false,
      "t": 23426.718281250014,
      "d": 1386.4939062500052,
      "v": 87
    },
    {
      "midi": 59,
      "hit": false,
      "t": 23441.08609375001,
      "d": 1127.8732812499984,
      "v": 51
    },
    {
      "midi": 68,
      "hit": false,
      "t": 23441.08609375001,
      "d": 1142.241093749999,
      "v": 74
    },
    {
      "midi": 64,
      "hit": false,
      "t": 23441.08609375001,
      "d": 1149.4249999999993,
      "v": 92
    },
    {
      "midi": 40,
      "hit": false,
      "t": 23448.27000000001,
      "d": 1156.6089062499996,
      "v": 78
    },
    {
      "midi": 64,
      "hit": false,
      "t": 24137.925000000017,
      "d": 632.1837500000001,
      "v": 83
    },
    {
      "midi": 59,
      "hit": false,
      "t": 24145.108906250018,
      "d": 682.4710937500022,
      "v": 92
    },
    {
      "midi": 56,
      "hit": false,
      "t": 24145.108906250018,
      "d": 704.022812500003,
      "v": 70
    },
    {
      "midi": 66,
      "hit": false,
      "t": 24820.396093750012,
      "d": 1070.4020312499997,
      "v": 74
    },
    {
      "midi": 63,
      "hit": false,
      "t": 24820.396093750012,
      "d": 1163.7928124999999,
      "v": 65
    },
    {
      "midi": 59,
      "hit": false,
      "t": 24820.396093750012,
      "d": 1178.1606250000004,
      "v": 58
    },
    {
      "midi": 47,
      "hit": false,
      "t": 24827.580000000013,
      "d": 1156.6089062499996,
      "v": 83
    },
    {
      "midi": 47,
      "hit": false,
      "t": 24834.76390625002,
      "d": 1379.310000000005,
      "v": 83
    },
    {
      "midi": 63,
      "hit": false,
      "t": 25510.051093750022,
      "d": 739.9423437500045,
      "v": 53
    },
    {
      "midi": 59,
      "hit": false,
      "t": 25517.235000000022,
      "d": 682.4710937500022,
      "v": 78
    },
    {
      "midi": 54,
      "hit": false,
      "t": 25524.418906250023,
      "d": 682.4710937500022,
      "v": 61
    },
    {
      "midi": 40,
      "hit": false,
      "t": 26192.522187500024,
      "d": 1235.6318750000028,
      "v": 92
    },
    {
      "midi": 68,
      "hit": false,
      "t": 26206.890000000014,
      "d": 2155.1718749999964,
      "v": 70
    },
    {
      "midi": 64,
      "hit": false,
      "t": 26206.890000000014,
      "d": 2169.539687499997,
      "v": 92
    },
    {
      "midi": 59,
      "hit": false,
      "t": 26206.890000000014,
      "d": 2205.4592187499984,
      "v": 53
    },
    {
      "midi": 40,
      "hit": false,
      "t": 26206.890000000014,
      "d": 2464.079843749998,
      "v": 61
    },
    {
      "midi": 64,
      "hit": false,
      "t": 26882.177187500027,
      "d": 711.2067187499997,
      "v": 78
    },
    {
      "midi": 59,
      "hit": false,
      "t": 26882.177187500027,
      "d": 919.5399999999972,
      "v": 87
    },
    {
      "midi": 56,
      "hit": false,
      "t": 26889.361093750027,
      "d": 854.8848437499983,
      "v": 74
    },
    {
      "midi": 40,
      "hit": false,
      "t": 27478.441406250025,
      "d": 1458.3329687500009,
      "v": 74
    },
    {
      "midi": 64,
      "hit": false,
      "t": 28275.855000000025,
      "d": 668.1032812500016,
      "v": 74
    },
    {
      "midi": 59,
      "hit": false,
      "t": 28283.038906250025,
      "d": 682.4710937500022,
      "v": 87
    },
    {
      "midi": 56,
      "hit": false,
      "t": 28283.038906250025,
      "d": 718.3906250000036,
      "v": 74
    },
    {
      "midi": 59,
      "hit": false,
      "t": 28958.326093750013,
      "d": 2392.2407812500023,
      "v": 78
    },
    {
      "midi": 63,
      "hit": false,
      "t": 28958.326093750013,
      "d": 2499.999375000003,
      "v": 46
    },
    {
      "midi": 54,
      "hit": false,
      "t": 28958.326093750013,
      "d": 2514.3671875000036,
      "v": 97
    },
    {
      "midi": 47,
      "hit": false,
      "t": 28965.510000000013,
      "d": 2564.654531250002,
      "v": 92
    },
    {
      "midi": 47,
      "hit": false,
      "t": 28987.06171875003,
      "d": 1573.2754687500055,
      "v": 78
    },
    {
      "midi": 63,
      "hit": false,
      "t": 29640.79718750003,
      "d": 409.48265625000204,
      "v": 43
    },
    {
      "midi": 59,
      "hit": false,
      "t": 29640.79718750003,
      "d": 431.0343750000029,
      "v": 74
    },
    {
      "midi": 54,
      "hit": false,
      "t": 29647.98109375003,
      "d": 423.8504687500026,
      "v": 57
    },
    {
      "midi": 63,
      "hit": false,
      "t": 30165.222343750032,
      "d": 222.70109375000175,
      "v": 61
    },
    {
      "midi": 59,
      "hit": false,
      "t": 30165.222343750032,
      "d": 251.4367187500029,
      "v": 78
    },
    {
      "midi": 63,
      "hit": false,
      "t": 30495.682031250035,
      "d": 208.33328125000116,
      "v": 53
    },
    {
      "midi": 59,
      "hit": false,
      "t": 30502.865937500035,
      "d": 201.14937500000087,
      "v": 74
    },
    {
      "midi": 47,
      "hit": false,
      "t": 30675.279687500035,
      "d": 1005.7468750000007,
      "v": 67
    },
    {
      "midi": 59,
      "hit": false,
      "t": 31027.291093750035,
      "d": 682.4710937500022,
      "v": 87
    },
    {
      "midi": 63,
      "hit": false,
      "t": 31027.291093750035,
      "d": 725.5745312500039,
      "v": 70
    },
    {
      "midi": 54,
      "hit": false,
      "t": 31034.475000000035,
      "d": 689.6550000000025,
      "v": 74
    },
    {
      "midi": 40,
      "hit": false,
      "t": 31688.210468750036,
      "d": 1386.4939062500089,
      "v": 92
    },
    {
      "midi": 63,
      "hit": false,
      "t": 31716.946093750015,
      "d": 21.551718750000873,
      "v": 33
    },
    {
      "midi": 59,
      "hit": false,
      "t": 31716.946093750015,
      "d": 948.275625000002,
      "v": 74
    },
    {
      "midi": 64,
      "hit": false,
      "t": 31716.946093750015,
      "d": 1005.7468750000007,
      "v": 71
    },
    {
      "midi": 56,
      "hit": false,
      "t": 31716.946093750015,
      "d": 1099.1376562499972,
      "v": 50
    },
    {
      "midi": 40,
      "hit": false,
      "t": 31716.946093750015,
      "d": 1257.1835937499964,
      "v": 74
    },
    {
      "midi": 64,
      "hit": false,
      "t": 32406.60109375004,
      "d": 416.6665625000023,
      "v": 71
    },
    {
      "midi": 59,
      "hit": false,
      "t": 32406.60109375004,
      "d": 445.4021875000035,
      "v": 83
    },
    {
      "midi": 56,
      "hit": false,
      "t": 32413.78500000004,
      "d": 431.0343750000029,
      "v": 61
    },
    {
      "midi": 59,
      "hit": false,
      "t": 32923.842343750046,
      "d": 179.59765625,
      "v": 56
    },
    {
      "midi": 56,
      "hit": false,
      "t": 32931.026250000046,
      "d": 179.59765625,
      "v": 41
    },
    {
      "midi": 64,
      "hit": false,
      "t": 32931.026250000046,
      "d": 208.33328125000116,
      "v": 58
    },
    {
      "midi": 64,
      "hit": false,
      "t": 33096.25609375001,
      "d": 1020.1146874999977,
      "v": 64
    },
    {
      "midi": 61,
      "hit": false,
      "t": 33096.25609375001,
      "d": 1027.298593749998,
      "v": 65
    },
    {
      "midi": 45,
      "hit": false,
      "t": 33096.256093750046,
      "d": 1321.8387500000026,
      "v": 74
    },
    {
      "midi": 57,
      "hit": false,
      "t": 33103.44000000001,
      "d": 1041.6664062499985,
      "v": 58
    },
    {
      "midi": 45,
      "hit": false,
      "t": 33103.44000000001,
      "d": 1379.3099999999977,
      "v": 78
    },
    {
      "midi": 61,
      "hit": false,
      "t": 33785.911093750045,
      "d": 402.29875000000175,
      "v": 74
    },
    {
      "midi": 64,
      "hit": false,
      "t": 33793.095000000045,
      "d": 380.7470312500009,
      "v": 83
    },
    {
      "midi": 57,
      "hit": false,
      "t": 33793.095000000045,
      "d": 402.29875000000175,
      "v": 92
    },
    {
      "midi": 63,
      "hit": false,
      "t": 33800.278906250045,
      "d": 21.551718750000873,
      "v": 43
    },
    {
      "midi": 57,
      "hit": false,
      "t": 34281.60062500005,
      "d": 186.7815625000003,
      "v": 56
    },
    {
      "midi": 61,
      "hit": false,
      "t": 34281.60062500005,
      "d": 186.7815625000003,
      "v": 53
    },
    {
      "midi": 64,
      "hit": false,
      "t": 34288.78453125005,
      "d": 193.96546875000058,
      "v": 71
    },
    {
      "midi": 40,
      "hit": false,
      "t": 34461.19828125005,
      "d": 1350.5743750000038,
      "v": 87
    },
    {
      "midi": 59,
      "hit": false,
      "t": 34475.56609375001,
      "d": 790.2296875000029,
      "v": 74
    },
    {
      "midi": 64,
      "hit": false,
      "t": 34475.56609375001,
      "d": 991.3790625000038,
      "v": 83
    },
    {
      "midi": 56,
      "hit": false,
      "t": 34475.56609375001,
      "d": 1063.2181250000067,
      "v": 61
    },
    {
      "midi": 40,
      "hit": false,
      "t": 34475.56609375001,
      "d": 1408.045625000006,
      "v": 71
    },
    {
      "midi": 64,
      "hit": false,
      "t": 35165.22109375005,
      "d": 431.0343750000029,
      "v": 83
    },
    {
      "midi": 56,
      "hit": false,
      "t": 35172.40500000005,
      "d": 431.0343750000029,
      "v": 70
    },
    {
      "midi": 59,
      "hit": false,
      "t": 35172.40500000005,
      "d": 431.0343750000029,
      "v": 92
    },
    {
      "midi": 64,
      "hit": false,
      "t": 35675.278437500056,
      "d": 172.4137499999997,
      "v": 64
    },
    {
      "midi": 59,
      "hit": false,
      "t": 35682.462343750056,
      "d": 179.59765625,
      "v": 61
    },
    {
      "midi": 56,
      "hit": false,
      "t": 35682.462343750056,
      "d": 193.96546875000058,
      "v": 50
    },
    {
      "midi": 47,
      "hit": false,
      "t": 35847.692187500055,
      "d": 1372.1260937500047,
      "v": 97
    },
    {
      "midi": 63,
      "hit": false,
      "t": 35854.87609375001,
      "d": 1041.666406250013,
      "v": 46
    },
    {
      "midi": 54,
      "hit": false,
      "t": 35862.06000000001,
      "d": 977.0112500000105,
      "v": 97
    },
    {
      "midi": 59,
      "hit": false,
      "t": 35862.06000000001,
      "d": 984.1951562500108,
      "v": 67
    },
    {
      "midi": 47,
      "hit": false,
      "t": 35862.06000000001,
      "d": 1415.2295312500137,
      "v": 64
    },
    {
      "midi": 59,
      "hit": false,
      "t": 36530.163281250054,
      "d": 581.8964062500017,
      "v": 78
    },
    {
      "midi": 63,
      "hit": false,
      "t": 36530.163281250054,
      "d": 624.9998437500035,
      "v": 61
    },
    {
      "midi": 54,
      "hit": false,
      "t": 36537.347187500054,
      "d": 603.4481250000026,
      "v": 65
    },
    {
      "midi": 49,
      "hit": false,
      "t": 37227.00218750006,
      "d": 1400.8617187499985,
      "v": 80
    },
    {
      "midi": 61,
      "hit": false,
      "t": 37234.186093750024,
      "d": 696.8389062500064,
      "v": 80
    },
    {
      "midi": 64,
      "hit": false,
      "t": 37234.186093750024,
      "d": 818.9653125000041,
      "v": 92
    },
    {
      "midi": 56,
      "hit": false,
      "t": 37234.186093750024,
      "d": 826.1492187500044,
      "v": 61
    },
    {
      "midi": 49,
      "hit": false,
      "t": 37241.370000000024,
      "d": 912.3560937500006,
      "v": 74
    },
    {
      "midi": 61,
      "hit": false,
      "t": 37909.47328125006,
      "d": 510.05734374999884,
      "v": 61
    },
    {
      "midi": 64,
      "hit": false,
      "t": 37909.47328125006,
      "d": 524.4251562499994,
      "v": 78
    },
    {
      "midi": 56,
      "hit": false,
      "t": 37916.65718750006,
      "d": 538.79296875,
      "v": 65
    },
    {
      "midi": 61,
      "hit": false,
      "t": 38577.57656250006,
      "d": 574.7125000000015,
      "v": 65
    },
    {
      "midi": 57,
      "hit": false,
      "t": 38584.76046875006,
      "d": 545.9768750000003,
      "v": 58
    },
    {
      "midi": 45,
      "hit": false,
      "t": 38591.94437500006,
      "d": 696.8389062499991,
      "v": 74
    },
    {
      "midi": 64,
      "hit": false,
      "t": 38613.49609375002,
      "d": 380.7470312500009,
      "v": 78
    },
    {
      "midi": 57,
      "hit": false,
      "t": 38613.49609375002,
      "d": 495.68953124999825,
      "v": 71
    },
    {
      "midi": 61,
      "hit": false,
      "t": 38613.49609375002,
      "d": 553.1607812500006,
      "v": 70
    },
    {
      "midi": 45,
      "hit": false,
      "t": 38613.49609375002,
      "d": 653.7354687499974,
      "v": 87
    },
    {
      "midi": 63,
      "hit": false,
      "t": 39274.415468750056,
      "d": 589.080312500002,
      "v": 65
    },
    {
      "midi": 59,
      "hit": false,
      "t": 39281.599375000056,
      "d": 603.4481250000026,
      "v": 74
    },
    {
      "midi": 47,
      "hit": false,
      "t": 39281.599375000056,
      "d": 711.2067187499997,
      "v": 87
    },
    {
      "midi": 61,
      "hit": false,
      "t": 39295.96718750006,
      "d": 14.367812500000582,
      "v": 57
    },
    {
      "midi": 66,
      "hit": false,
      "t": 39310.33500000002,
      "d": 208.33328125000116,
      "v": 80
    },
    {
      "midi": 63,
      "hit": false,
      "t": 39310.33500000002,
      "d": 237.06890625000233,
      "v": 70
    },
    {
      "midi": 47,
      "hit": false,
      "t": 39310.33500000002,
      "d": 258.6206250000032,
      "v": 92
    },
    {
      "midi": 59,
      "hit": false,
      "t": 39310.33500000002,
      "d": 258.6206250000032,
      "v": 56
    },
    {
      "midi": 40,
      "hit": false,
      "t": 39985.622187500056,
      "d": 1580.4593749999985,
      "v": 92
    },
    {
      "midi": 59,
      "hit": false,
      "t": 39999.99000000003,
      "d": 1702.5857812499962,
      "v": 74
    },
    {
      "midi": 64,
      "hit": false,
      "t": 39999.99000000003,
      "d": 1738.5053124999977,
      "v": 87
    },
    {
      "midi": 56,
      "hit": false,
      "t": 39999.99000000003,
      "d": 1817.5282812500009,
      "v": 57
    },
    {
      "midi": 40,
      "hit": false,
      "t": 39999.99000000003,
      "d": 2442.5281250000044,
      "v": 78
    },
    {
      "midi": 64,
      "hit": false,
      "t": 40668.093281250054,
      "d": 380.7470312500009,
      "v": 78
    },
    {
      "midi": 59,
      "hit": false,
      "t": 40668.093281250054,
      "d": 416.6665625000023,
      "v": 92
    },
    {
      "midi": 56,
      "hit": false,
      "t": 40675.277187500054,
      "d": 395.11484375000146,
      "v": 70
    },
    {
      "midi": 64,
      "hit": false,
      "t": 41178.15062500005,
      "d": 158.04593749999913,
      "v": 71
    },
    {
      "midi": 59,
      "hit": false,
      "t": 41178.15062500005,
      "d": 172.4137499999997,
      "v": 71
    },
    {
      "midi": 56,
      "hit": false,
      "t": 41185.33453125005,
      "d": 158.04593749999913,
      "v": 61
    },
    {
      "midi": 64,
      "hit": false,
      "t": 41522.97812500005,
      "d": 208.33328125000116,
      "v": 71
    },
    {
      "midi": 56,
      "hit": false,
      "t": 41530.16203125005,
      "d": 215.51718750000146,
      "v": 74
    },
    {
      "midi": 59,
      "hit": false,
      "t": 41530.16203125005,
      "d": 229.88500000000204,
      "v": 83
    },
    {
      "midi": 40,
      "hit": false,
      "t": 41709.75968750005,
      "d": 991.3790625000038,
      "v": 49
    },
    {
      "midi": 64,
      "hit": false,
      "t": 42040.21937500005,
      "d": 689.6550000000061,
      "v": 92
    },
    {
      "midi": 59,
      "hit": false,
      "t": 42047.40328125005,
      "d": 617.8159375000032,
      "v": 97
    },
    {
      "midi": 56,
      "hit": false,
      "t": 42047.40328125005,
      "d": 639.3676562500041,
      "v": 80
    },
    {
      "midi": 45,
      "hit": false,
      "t": 42744.24218750006,
      "d": 1681.0340624999953,
      "v": 92
    },
    {
      "midi": 64,
      "hit": false,
      "t": 42751.42609375003,
      "d": 2140.8040625000067,
      "v": 87
    },
    {
      "midi": 57,
      "hit": false,
      "t": 42751.42609375003,
      "d": 2198.275312500009,
      "v": 74
    },
    {
      "midi": 61,
      "hit": false,
      "t": 42751.42609375003,
      "d": 2205.4592187500093,
      "v": 70
    },
    {
      "midi": 45,
      "hit": false,
      "t": 42758.61000000003,
      "d": 2205.4592187500093,
      "v": 87
    },
    {
      "midi": 64,
      "hit": false,
      "t": 43441.08109375006,
      "d": 359.1953125,
      "v": 97
    },
    {
      "midi": 61,
      "hit": false,
      "t": 43441.08109375006,
      "d": 373.5631250000006,
      "v": 70
    },
    {
      "midi": 57,
      "hit": false,
      "t": 43448.26500000006,
      "d": 359.1953125,
      "v": 74
    },
    {
      "midi": 61,
      "hit": false,
      "t": 43936.770625000056,
      "d": 150.86203124999884,
      "v": 57
    },
    {
      "midi": 57,
      "hit": false,
      "t": 43943.954531250056,
      "d": 136.49421874999825,
      "v": 49
    },
    {
      "midi": 64,
      "hit": false,
      "t": 43943.954531250056,
      "d": 136.49421874999825,
      "v": 61
    },
    {
      "midi": 61,
      "hit": false,
      "t": 44295.965937500056,
      "d": 244.25281250000262,
      "v": 70
    },
    {
      "midi": 57,
      "hit": false,
      "t": 44303.149843750056,
      "d": 244.25281250000262,
      "v": 71
    },
    {
      "midi": 64,
      "hit": false,
      "t": 44303.149843750056,
      "d": 244.25281250000262,
      "v": 87
    },
    {
      "midi": 45,
      "hit": false,
      "t": 44504.29921875006,
      "d": 488.50562500000524,
      "v": 43
    },
    {
      "midi": 57,
      "hit": false,
      "t": 44806.02328125006,
      "d": 416.6665625000023,
      "v": 87
    },
    {
      "midi": 61,
      "hit": false,
      "t": 44806.02328125006,
      "d": 416.6665625000023,
      "v": 80
    },
    {
      "midi": 64,
      "hit": false,
      "t": 44806.02328125006,
      "d": 423.8504687500026,
      "v": 97
    },
    {
      "midi": 64,
      "hit": false,
      "t": 45330.44843750006,
      "d": 136.49421874999825,
      "v": 67
    },
    {
      "midi": 61,
      "hit": false,
      "t": 45337.63234375006,
      "d": 158.04593749999913,
      "v": 57
    },
    {
      "midi": 57,
      "hit": false,
      "t": 45344.81625000006,
      "d": 193.96546875000058,
      "v": 47
    },
    {
      "midi": 40,
      "hit": false,
      "t": 45495.67828125006,
      "d": 2614.941874999997,
      "v": 97
    },
    {
      "midi": 64,
      "hit": false,
      "t": 45510.04609375004,
      "d": 1997.1259375000009,
      "v": 71
    },
    {
      "midi": 56,
      "hit": false,
      "t": 45510.04609375004,
      "d": 2090.5167187500047,
      "v": 50
    },
    {
      "midi": 59,
      "hit": false,
      "t": 45517.23000000004,
      "d": 2054.597187500003,
      "v": 71
    },
    {
      "midi": 40,
      "hit": false,
      "t": 45517.23000000004,
      "d": 2636.493593750005,
      "v": 74
    },
    {
      "midi": 59,
      "hit": false,
      "t": 46192.51718750006,
      "d": 409.48265625000204,
      "v": 83
    },
    {
      "midi": 64,
      "hit": false,
      "t": 46199.70109375006,
      "d": 359.1953125,
      "v": 74
    },
    {
      "midi": 56,
      "hit": false,
      "t": 46199.70109375006,
      "d": 395.11484375000146,
      "v": 74
    },
    {
      "midi": 56,
      "hit": false,
      "t": 46702.57453125006,
      "d": 165.22984374999942,
      "v": 57
    },
    {
      "midi": 64,
      "hit": false,
      "t": 46709.75843750006,
      "d": 150.86203124999884,
      "v": 61
    },
    {
      "midi": 59,
      "hit": false,
      "t": 46709.75843750006,
      "d": 165.22984374999942,
      "v": 56
    },
    {
      "midi": 64,
      "hit": false,
      "t": 47047.40203125006,
      "d": 193.96546875000058,
      "v": 67
    },
    {
      "midi": 56,
      "hit": false,
      "t": 47047.40203125006,
      "d": 201.14937500000087,
      "v": 74
    },
    {
      "midi": 59,
      "hit": false,
      "t": 47054.58593750006,
      "d": 201.14937500000087,
      "v": 83
    },
    {
      "midi": 59,
      "hit": false,
      "t": 47557.45937500006,
      "d": 423.8504687500026,
      "v": 87
    },
    {
      "midi": 64,
      "hit": false,
      "t": 47564.64328125006,
      "d": 380.7470312500009,
      "v": 78
    },
    {
      "midi": 56,
      "hit": false,
      "t": 47564.64328125006,
      "d": 409.48265625000204,
      "v": 74
    },
    {
      "midi": 59,
      "hit": false,
      "t": 48096.25234375006,
      "d": 186.7815625000003,
      "v": 71
    },
    {
      "midi": 64,
      "hit": false,
      "t": 48103.43625000006,
      "d": 129.31031249999796,
      "v": 71
    },
    {
      "midi": 56,
      "hit": false,
      "t": 48103.43625000006,
      "d": 150.86203124999884,
      "v": 65
    },
    {
      "midi": 66,
      "hit": false,
      "t": 48268.66609375004,
      "d": 2255.746562500004,
      "v": 70
    },
    {
      "midi": 59,
      "hit": false,
      "t": 48268.66609375004,
      "d": 2291.6660937500055,
      "v": 61
    },
    {
      "midi": 63,
      "hit": false,
      "t": 48268.66609375004,
      "d": 2298.850000000006,
      "v": 70
    },
    {
      "midi": 47,
      "hit": false,
      "t": 48268.66609375004,
      "d": 2801.7234375000044,
      "v": 87
    },
    {
      "midi": 47,
      "hit": false,
      "t": 48283.03390625006,
      "d": 2363.505156249994,
      "v": 97
    },
    {
      "midi": 63,
      "hit": false,
      "t": 48929.585468750054,
      "d": 380.7470312500009,
      "v": 53
    },
    {
      "midi": 59,
      "hit": false,
      "t": 48936.769375000054,
      "d": 423.8504687500026,
      "v": 78
    },
    {
      "midi": 54,
      "hit": false,
      "t": 48943.953281250055,
      "d": 366.3792187500003,
      "v": 65
    },
    {
      "midi": 59,
      "hit": false,
      "t": 49475.562343750054,
      "d": 186.7815625000003,
      "v": 71
    },
    {
      "midi": 54,
      "hit": false,
      "t": 49482.746250000055,
      "d": 122.12640624999767,
      "v": 57
    },
    {
      "midi": 63,
      "hit": false,
      "t": 49482.746250000055,
      "d": 143.67812499999854,
      "v": 41
    },
    {
      "midi": 54,
      "hit": false,
      "t": 49791.65421875005,
      "d": 179.59765625,
      "v": 65
    },
    {
      "midi": 59,
      "hit": false,
      "t": 49798.83812500005,
      "d": 179.59765625,
      "v": 78
    },
    {
      "midi": 63,
      "hit": false,
      "t": 49798.83812500005,
      "d": 186.7815625000003,
      "v": 43
    },
    {
      "midi": 63,
      "hit": false,
      "t": 50301.71156250005,
      "d": 387.93093750000116,
      "v": 50
    },
    {
      "midi": 54,
      "hit": false,
      "t": 50308.89546875005,
      "d": 395.11484375000146,
      "v": 65
    },
    {
      "midi": 59,
      "hit": false,
      "t": 50308.89546875005,
      "d": 445.4021875000035,
      "v": 74
    },
    {
      "midi": 54,
      "hit": false,
      "t": 50862.05625000005,
      "d": 129.31031249999796,
      "v": 61
    },
    {
      "midi": 63,
      "hit": false,
      "t": 50862.05625000005,
      "d": 186.7815625000003,
      "v": 46
    },
    {
      "midi": 59,
      "hit": false,
      "t": 50869.24015625005,
      "d": 136.49421874999825,
      "v": 74
    },
    {
      "midi": 64,
      "hit": false,
      "t": 51027.286093750045,
      "d": 2212.6431250000023,
      "v": 87
    },
    {
      "midi": 59,
      "hit": false,
      "t": 51027.286093750045,
      "d": 2241.3787500000035,
      "v": 67
    },
    {
      "midi": 56,
      "hit": false,
      "t": 51027.286093750045,
      "d": 2262.9304687500044,
      "v": 50
    },
    {
      "midi": 40,
      "hit": false,
      "t": 51027.286093750045,
      "d": 2543.102812500001,
      "v": 78
    },
    {
      "midi": 40,
      "hit": false,
      "t": 51034.47000000005,
      "d": 2686.7809374999997,
      "v": 71
    },
    {
      "midi": 59,
      "hit": false,
      "t": 51702.57328125005,
      "d": 395.11484375000146,
      "v": 78
    },
    {
      "midi": 64,
      "hit": false,
      "t": 51709.75718750005,
      "d": 352.0114062499997,
      "v": 67
    },
    {
      "midi": 56,
      "hit": false,
      "t": 51709.75718750005,
      "d": 373.5631250000006,
      "v": 65
    },
    {
      "midi": 64,
      "hit": false,
      "t": 52226.99843750005,
      "d": 165.22984374999942,
      "v": 56
    },
    {
      "midi": 59,
      "hit": false,
      "t": 52234.18234375005,
      "d": 179.59765625,
      "v": 61
    },
    {
      "midi": 56,
      "hit": false,
      "t": 52241.36625000005,
      "d": 158.04593749999913,
      "v": 61
    },
    {
      "midi": 64,
      "hit": false,
      "t": 52557.45812500005,
      "d": 193.96546875000058,
      "v": 56
    },
    {
      "midi": 56,
      "hit": false,
      "t": 52564.64203125005,
      "d": 208.33328125000116,
      "v": 65
    },
    {
      "midi": 59,
      "hit": false,
      "t": 52564.64203125005,
      "d": 215.51718750000146,
      "v": 61
    },
    {
      "midi": 59,
      "hit": false,
      "t": 53074.69937500005,
      "d": 632.1837500000038,
      "v": 83
    },
    {
      "midi": 64,
      "hit": false,
      "t": 53081.88328125005,
      "d": 538.79296875,
      "v": 67
    },
    {
      "midi": 56,
      "hit": false,
      "t": 53081.88328125005,
      "d": 632.1837500000038,
      "v": 74
    },
    {
      "midi": 64,
      "hit": false,
      "t": 53785.90609375005,
      "d": 2262.9304687500044,
      "v": 78
    },
    {
      "midi": 45,
      "hit": false,
      "t": 53785.906093750054,
      "d": 2744.2521874999948,
      "v": 92
    },
    {
      "midi": 57,
      "hit": false,
      "t": 53793.09000000005,
      "d": 2227.010937500003,
      "v": 71
    },
    {
      "midi": 61,
      "hit": false,
      "t": 53793.09000000005,
      "d": 2356.321250000001,
      "v": 80
    },
    {
      "midi": 45,
      "hit": false,
      "t": 53793.09000000005,
      "d": 2772.987812500003,
      "v": 92
    },
    {
      "midi": 61,
      "hit": false,
      "t": 54468.37718750005,
      "d": 373.5631250000006,
      "v": 80
    },
    {
      "midi": 57,
      "hit": false,
      "t": 54475.56109375005,
      "d": 352.0114062499997,
      "v": 67
    },
    {
      "midi": 64,
      "hit": false,
      "t": 54475.56109375005,
      "d": 359.1953125,
      "v": 83
    },
    {
      "midi": 64,
      "hit": false,
      "t": 54971.25062500005,
      "d": 165.22984374999942,
      "v": 78
    },
    {
      "midi": 61,
      "hit": false,
      "t": 54971.25062500005,
      "d": 172.4137499999997,
      "v": 70
    },
    {
      "midi": 57,
      "hit": false,
      "t": 54978.43453125005,
      "d": 143.67812499999854,
      "v": 58
    },
    {
      "midi": 61,
      "hit": false,
      "t": 55308.89421875005,
      "d": 208.33328125000116,
      "v": 70
    },
    {
      "midi": 57,
      "hit": false,
      "t": 55316.07812500005,
      "d": 193.96546875000058,
      "v": 64
    },
    {
      "midi": 64,
      "hit": false,
      "t": 55316.07812500005,
      "d": 201.14937500000087,
      "v": 83
    },
    {
      "midi": 61,
      "hit": false,
      "t": 55826.13546875005,
      "d": 675.2871874999983,
      "v": 80
    },
    {
      "midi": 64,
      "hit": false,
      "t": 55833.31937500005,
      "d": 675.2871874999983,
      "v": 83
    },
    {
      "midi": 57,
      "hit": false,
      "t": 55833.31937500005,
      "d": 725.5745312500003,
      "v": 74
    },
    {
      "midi": 40,
      "hit": false,
      "t": 56530.15828125005,
      "d": 2751.4360937500023,
      "v": 83
    },
    {
      "midi": 64,
      "hit": false,
      "t": 56544.52609375005,
      "d": 2241.3787500000035,
      "v": 78
    },
    {
      "midi": 59,
      "hit": false,
      "t": 56544.52609375005,
      "d": 2255.746562500004,
      "v": 71
    },
    {
      "midi": 56,
      "hit": false,
      "t": 56544.52609375005,
      "d": 2298.850000000006,
      "v": 57
    },
    {
      "midi": 40,
      "hit": false,
      "t": 56544.52609375005,
      "d": 2543.1028125000084,
      "v": 74
    },
    {
      "midi": 59,
      "hit": false,
      "t": 57219.81328125005,
      "d": 409.48265625000204,
      "v": 87
    },
    {
      "midi": 64,
      "hit": false,
      "t": 57226.99718750005,
      "d": 366.3792187500003,
      "v": 78
    },
    {
      "midi": 56,
      "hit": false,
      "t": 57226.99718750005,
      "d": 387.93093750000116,
      "v": 70
    },
    {
      "midi": 64,
      "hit": false,
      "t": 57751.42234375005,
      "d": 172.4137499999997,
      "v": 61
    },
    {
      "midi": 56,
      "hit": false,
      "t": 57751.42234375005,
      "d": 186.7815625000003,
      "v": 65
    },
    {
      "midi": 59,
      "hit": false,
      "t": 57751.42234375005,
      "d": 193.96546875000058,
      "v": 71
    },
    {
      "midi": 56,
      "hit": false,
      "t": 58096.24984375005,
      "d": 179.59765625,
      "v": 70
    },
    {
      "midi": 59,
      "hit": false,
      "t": 58096.24984375005,
      "d": 179.59765625,
      "v": 74
    },
    {
      "midi": 64,
      "hit": false,
      "t": 58103.43375000005,
      "d": 158.04593749999913,
      "v": 67
    },
    {
      "midi": 59,
      "hit": false,
      "t": 58606.307187500046,
      "d": 704.0228125000067,
      "v": 92
    },
    {
      "midi": 64,
      "hit": false,
      "t": 58613.491093750046,
      "d": 603.4481250000026,
      "v": 74
    },
    {
      "midi": 56,
      "hit": false,
      "t": 58613.491093750046,
      "d": 689.6550000000061,
      "v": 80
    },
    {
      "midi": 63,
      "hit": false,
      "t": 59303.14609375006,
      "d": 2320.4017187500067,
      "v": 53
    },
    {
      "midi": 47,
      "hit": false,
      "t": 59310.33000000005,
      "d": 2765.8039062499956,
      "v": 97
    },
    {
      "midi": 59,
      "hit": false,
      "t": 59310.33000000006,
      "d": 2255.746562500004,
      "v": 71
    },
    {
      "midi": 54,
      "hit": false,
      "t": 59310.33000000006,
      "d": 2277.298281250005,
      "v": 97
    },
    {
      "midi": 47,
      "hit": false,
      "t": 59310.33000000006,
      "d": 2600.5740625000035,
      "v": 97
    },
    {
      "midi": 63,
      "hit": false,
      "t": 59964.06546875005,
      "d": 387.93093750000116,
      "v": 38
    },
    {
      "midi": 54,
      "hit": false,
      "t": 59971.24937500005,
      "d": 373.5631250000006,
      "v": 61
    },
    {
      "midi": 59,
      "hit": false,
      "t": 59971.24937500005,
      "d": 402.29875000000175,
      "v": 74
    },
    {
      "midi": 54,
      "hit": false,
      "t": 60488.49062500005,
      "d": 172.4137499999997,
      "v": 53
    },
    {
      "midi": 63,
      "hit": false,
      "t": 60488.49062500005,
      "d": 179.59765625,
      "v": 41
    },
    {
      "midi": 59,
      "hit": false,
      "t": 60495.67453125005,
      "d": 172.4137499999997,
      "v": 71
    },
    {
      "midi": 63,
      "hit": false,
      "t": 60826.13421875005,
      "d": 237.06890625000233,
      "v": 41
    },
    {
      "midi": 54,
      "hit": false,
      "t": 60833.31812500005,
      "d": 215.51718750000146,
      "v": 61
    },
    {
      "midi": 59,
      "hit": false,
      "t": 60840.50203125005,
      "d": 172.4137499999997,
      "v": 74
    },
    {
      "midi": 63,
      "hit": false,
      "t": 61357.74328125005,
      "d": 725.5745312500003,
      "v": 57
    },
    {
      "midi": 59,
      "hit": false,
      "t": 61364.92718750005,
      "d": 682.4710937499985,
      "v": 74
    },
    {
      "midi": 54,
      "hit": false,
      "t": 61372.11109375005,
      "d": 660.9193749999977,
      "v": 70
    },
    {
      "midi": 40,
      "hit": false,
      "t": 62040.21437500005,
      "d": 1199.7123437499977,
      "v": 87
    },
    {
      "midi": 64,
      "hit": false,
      "t": 62061.76609375006,
      "d": 1056.0342187499991,
      "v": 74
    },
    {
      "midi": 56,
      "hit": false,
      "t": 62068.95000000006,
      "d": 1056.0342187499991,
      "v": 61
    },
    {
      "midi": 59,
      "hit": false,
      "t": 62068.95000000006,
      "d": 1099.1376562500009,
      "v": 58
    },
    {
      "midi": 40,
      "hit": false,
      "t": 62068.95000000006,
      "d": 1300.2870312500017,
      "v": 74
    },
    {
      "midi": 59,
      "hit": false,
      "t": 62737.053281250046,
      "d": 387.93093750000116,
      "v": 87
    },
    {
      "midi": 64,
      "hit": false,
      "t": 62744.237187500046,
      "d": 330.45968749999884,
      "v": 74
    },
    {
      "midi": 56,
      "hit": false,
      "t": 62744.237187500046,
      "d": 373.5631250000006,
      "v": 70
    },
    {
      "midi": 61,
      "hit": false,
      "t": 63247.110625000045,
      "d": 122.12640624999767,
      "v": 74
    },
    {
      "midi": 57,
      "hit": false,
      "t": 63247.110625000045,
      "d": 136.49421874999825,
      "v": 83
    },
    {
      "midi": 64,
      "hit": false,
      "t": 63254.294531250045,
      "d": 143.67812499999854,
      "v": 74
    },
    {
      "midi": 64,
      "hit": false,
      "t": 63441.07609375007,
      "d": 1142.2410937500026,
      "v": 67
    },
    {
      "midi": 61,
      "hit": false,
      "t": 63441.07609375007,
      "d": 1163.7928125000035,
      "v": 53
    },
    {
      "midi": 57,
      "hit": false,
      "t": 63441.07609375007,
      "d": 1170.9767187500038,
      "v": 56
    },
    {
      "midi": 45,
      "hit": false,
      "t": 63441.07609375007,
      "d": 1408.045625000006,
      "v": 74
    },
    {
      "midi": 61,
      "hit": false,
      "t": 63620.673750000045,
      "d": 186.7815625000003,
      "v": 74
    },
    {
      "midi": 64,
      "hit": false,
      "t": 63620.673750000045,
      "d": 193.96546875000058,
      "v": 71
    },
    {
      "midi": 57,
      "hit": false,
      "t": 63620.673750000045,
      "d": 201.14937500000087,
      "v": 92
    },
    {
      "midi": 45,
      "hit": false,
      "t": 63814.639218750046,
      "d": 991.3790624999965,
      "v": 64
    },
    {
      "midi": 61,
      "hit": false,
      "t": 64109.17937500004,
      "d": 675.2871874999983,
      "v": 80
    },
    {
      "midi": 64,
      "hit": false,
      "t": 64116.363281250044,
      "d": 653.7354687499974,
      "v": 87
    },
    {
      "midi": 57,
      "hit": false,
      "t": 64116.363281250044,
      "d": 689.6549999999988,
      "v": 97
    },
    {
      "midi": 40,
      "hit": false,
      "t": 64813.20218750004,
      "d": 1206.896249999998,
      "v": 87
    },
    {
      "midi": 64,
      "hit": false,
      "t": 64820.38609375007,
      "d": 897.98828125,
      "v": 78
    },
    {
      "midi": 59,
      "hit": false,
      "t": 64820.38609375007,
      "d": 941.0917187500017,
      "v": 64
    },
    {
      "midi": 56,
      "hit": false,
      "t": 64820.38609375007,
      "d": 955.4595312500023,
      "v": 50
    },
    {
      "midi": 40,
      "hit": false,
      "t": 64827.57000000007,
      "d": 1350.5743750000038,
      "v": 67
    },
    {
      "midi": 64,
      "hit": false,
      "t": 65517.22500000004,
      "d": 280.1723437499968,
      "v": 83
    },
    {
      "midi": 56,
      "hit": false,
      "t": 65517.22500000004,
      "d": 294.5401562499974,
      "v": 74
    },
    {
      "midi": 59,
      "hit": false,
      "t": 65517.22500000004,
      "d": 380.7470312500009,
      "v": 92
    },
    {
      "midi": 63,
      "hit": false,
      "t": 66027.28234375003,
      "d": 172.41374999999243,
      "v": 43
    },
    {
      "midi": 59,
      "hit": false,
      "t": 66034.46625000003,
      "d": 165.22984374999942,
      "v": 78
    },
    {
      "midi": 54,
      "hit": false,
      "t": 66034.46625000003,
      "d": 201.1493749999936,
      "v": 65
    },
    {
      "midi": 54,
      "hit": false,
      "t": 66199.69609375007,
      "d": 1199.7123437499977,
      "v": 97
    },
    {
      "midi": 63,
      "hit": false,
      "t": 66199.69609375007,
      "d": 1221.2640624999913,
      "v": 38
    },
    {
      "midi": 47,
      "hit": false,
      "t": 66199.69609375007,
      "d": 1343.390468749989,
      "v": 67
    },
    {
      "midi": 59,
      "hit": false,
      "t": 66206.88000000006,
      "d": 1214.0801562499983,
      "v": 67
    },
    {
      "midi": 63,
      "hit": false,
      "t": 66372.10984375002,
      "d": 172.41374999999243,
      "v": 43
    },
    {
      "midi": 59,
      "hit": false,
      "t": 66379.29375000001,
      "d": 158.0459375000064,
      "v": 83
    },
    {
      "midi": 54,
      "hit": false,
      "t": 66379.29375000001,
      "d": 172.41374999999243,
      "v": 57
    },
    {
      "midi": 47,
      "hit": false,
      "t": 66544.52359375001,
      "d": 1048.8503124999843,
      "v": 78
    },
    {
      "midi": 63,
      "hit": false,
      "t": 66889.35109375001,
      "d": 711.2067187499779,
      "v": 61
    },
    {
      "midi": 59,
      "hit": false,
      "t": 66896.535,
      "d": 660.9193749999977,
      "v": 78
    },
    {
      "midi": 54,
      "hit": false,
      "t": 66896.535,
      "d": 682.4710937499913,
      "v": 74
    },
    {
      "midi": 40,
      "hit": false,
      "t": 67550.27046875001,
      "d": 1300.287031249958,
      "v": 92
    },
    {
      "midi": 64,
      "hit": false,
      "t": 67586.19000000006,
      "d": 1307.4709374999948,
      "v": 74
    },
    {
      "midi": 56,
      "hit": false,
      "t": 67586.19000000006,
      "d": 1329.0226562499884,
      "v": 46
    },
    {
      "midi": 59,
      "hit": false,
      "t": 67586.19000000006,
      "d": 1372.12609374999,
      "v": 67
    },
    {
      "midi": 40,
      "hit": false,
      "t": 67586.19000000006,
      "d": 1386.4939062499761,
      "v": 67
    },
    {
      "midi": 64,
      "hit": false,
      "t": 68275.84499999999,
      "d": 416.6665624999878,
      "v": 64
    },
    {
      "midi": 59,
      "hit": false,
      "t": 68283.02890624998,
      "d": 402.29875000000175,
      "v": 64
    },
    {
      "midi": 56,
      "hit": false,
      "t": 68297.39671874998,
      "d": 395.1148437499942,
      "v": 61
    },
    {
      "midi": 57,
      "hit": false,
      "t": 68793.08624999998,
      "d": 193.96546874998603,
      "v": 61
    },
    {
      "midi": 61,
      "hit": false,
      "t": 68800.27015624997,
      "d": 179.59765625,
      "v": 57
    },
    {
      "midi": 64,
      "hit": false,
      "t": 68807.45406249996,
      "d": 179.59765625,
      "v": 64
    },
    {
      "midi": 57,
      "hit": false,
      "t": 68965.50000000004,
      "d": 1178.1606249999895,
      "v": 64
    },
    {
      "midi": 64,
      "hit": false,
      "t": 68965.50000000004,
      "d": 1206.8962499999907,
      "v": 74
    },
    {
      "midi": 61,
      "hit": false,
      "t": 68965.50000000004,
      "d": 1350.5743749999965,
      "v": 27
    },
    {
      "midi": 45,
      "hit": false,
      "t": 68965.50000000004,
      "d": 1400.8617187499767,
      "v": 74
    },
    {
      "midi": 61,
      "hit": false,
      "t": 69145.09765624997,
      "d": 215.51718749997963,
      "v": 61
    },
    {
      "midi": 64,
      "hit": false,
      "t": 69152.28156249996,
      "d": 201.1493749999936,
      "v": 74
    },
    {
      "midi": 57,
      "hit": false,
      "t": 69152.28156249996,
      "d": 229.8849999999802,
      "v": 74
    },
    {
      "midi": 45,
      "hit": false,
      "t": 69303.14359374996,
      "d": 998.562968749975,
      "v": 58
    },
    {
      "midi": 64,
      "hit": false,
      "t": 69640.78718749994,
      "d": 402.29875000000175,
      "v": 92
    },
    {
      "midi": 57,
      "hit": false,
      "t": 69640.78718749994,
      "d": 423.85046874999534,
      "v": 92
    },
    {
      "midi": 61,
      "hit": false,
      "t": 69640.78718749994,
      "d": 423.85046874999534,
      "v": 74
    },
    {
      "midi": 64,
      "hit": false,
      "t": 70165.21234374994,
      "d": 165.22984374999942,
      "v": 67
    },
    {
      "midi": 61,
      "hit": false,
      "t": 70165.21234374994,
      "d": 172.41374999999243,
      "v": 53
    },
    {
      "midi": 57,
      "hit": false,
      "t": 70172.39624999993,
      "d": 179.59765625,
      "v": 61
    },
    {
      "midi": 40,
      "hit": false,
      "t": 70337.62609374993,
      "d": 1264.3674999999785,
      "v": 87
    },
    {
      "midi": 64,
      "hit": false,
      "t": 70337.62609375003,
      "d": 854.8848437499837,
      "v": 61
    },
    {
      "midi": 59,
      "hit": false,
      "t": 70337.62609375003,
      "d": 869.2526562499843,
      "v": 61
    },
    {
      "midi": 56,
      "hit": false,
      "t": 70337.62609375003,
      "d": 890.8043749999779,
      "v": 33
    },
    {
      "midi": 40,
      "hit": false,
      "t": 70344.81000000003,
      "d": 1142.2410937499808,
      "v": 64
    },
    {
      "midi": 64,
      "hit": false,
      "t": 71012.91328124993,
      "d": 416.6665624999878,
      "v": 71
    },
    {
      "midi": 56,
      "hit": false,
      "t": 71020.09718749992,
      "d": 423.85046874999534,
      "v": 74
    },
    {
      "midi": 59,
      "hit": false,
      "t": 71020.09718749992,
      "d": 423.85046874999534,
      "v": 87
    },
    {
      "midi": 59,
      "hit": false,
      "t": 71566.07406249992,
      "d": 136.49421874999825,
      "v": 64
    },
    {
      "midi": 63,
      "hit": false,
      "t": 71566.07406249992,
      "d": 143.67812499999127,
      "v": 57
    },
    {
      "midi": 59,
      "hit": false,
      "t": 71724.12000000001,
      "d": 941.0917187500017,
      "v": 67
    },
    {
      "midi": 54,
      "hit": false,
      "t": 71724.12000000001,
      "d": 962.6434374999953,
      "v": 97
    },
    {
      "midi": 63,
      "hit": false,
      "t": 71724.12000000001,
      "d": 1034.4824999999983,
      "v": 35
    },
    {
      "midi": 47,
      "hit": false,
      "t": 71724.12000000001,
      "d": 1106.3215625000012,
      "v": 71
    },
    {
      "midi": 59,
      "hit": false,
      "t": 71889.34984374991,
      "d": 201.1493749999936,
      "v": 78
    },
    {
      "midi": 63,
      "hit": false,
      "t": 71889.34984374991,
      "d": 201.1493749999936,
      "v": 61
    },
    {
      "midi": 47,
      "hit": false,
      "t": 72068.94749999991,
      "d": 890.8043749999779,
      "v": 67
    },
    {
      "midi": 63,
      "hit": false,
      "t": 72392.2232812499,
      "d": 682.4710937499913,
      "v": 70
    },
    {
      "midi": 59,
      "hit": false,
      "t": 72399.40718749989,
      "d": 704.0228124999994,
      "v": 97
    },
    {
      "midi": 40,
      "hit": false,
      "t": 73089.06218749989,
      "d": 2751.436093749973,
      "v": 87
    },
    {
      "midi": 64,
      "hit": false,
      "t": 73096.24609375001,
      "d": 1127.8732812499948,
      "v": 71
    },
    {
      "midi": 40,
      "hit": false,
      "t": 73096.24609375001,
      "d": 1163.792812499989,
      "v": 58
    },
    {
      "midi": 59,
      "hit": false,
      "t": 73096.24609375001,
      "d": 1170.976718749982,
      "v": 56
    },
    {
      "midi": 56,
      "hit": false,
      "t": 73096.24609375001,
      "d": 1178.160624999975,
      "v": 53
    },
    {
      "midi": 59,
      "hit": false,
      "t": 73771.5332812499,
      "d": 395.1148437499942,
      "v": 83
    },
    {
      "midi": 64,
      "hit": false,
      "t": 73778.71718749989,
      "d": 344.8274999999994,
      "v": 71
    },
    {
      "midi": 56,
      "hit": false,
      "t": 73778.71718749989,
      "d": 387.93093750000116,
      "v": 70
    },
    {
      "midi": 56,
      "hit": false,
      "t": 74310.3262499999,
      "d": 122.12640624999767,
      "v": 61
    },
    {
      "midi": 64,
      "hit": false,
      "t": 74310.3262499999,
      "d": 129.3103124999907,
      "v": 53
    },
    {
      "midi": 59,
      "hit": false,
      "t": 74317.51015624989,
      "d": 122.12640624999767,
      "v": 61
    },
    {
      "midi": 64,
      "hit": false,
      "t": 74475.55609374998,
      "d": 969.8273437499884,
      "v": 53
    },
    {
      "midi": 56,
      "hit": false,
      "t": 74475.55609374998,
      "d": 1005.7468749999825,
      "v": 31
    },
    {
      "midi": 40,
      "hit": false,
      "t": 74475.55609374998,
      "d": 1170.976718749982,
      "v": 51
    },
    {
      "midi": 59,
      "hit": false,
      "t": 74482.73999999998,
      "d": 969.8273437499884,
      "v": 53
    },
    {
      "midi": 56,
      "hit": false,
      "t": 74626.41812499988,
      "d": 265.80453124998894,
      "v": 61
    },
    {
      "midi": 64,
      "hit": false,
      "t": 74633.60203124987,
      "d": 244.25281249999534,
      "v": 58
    },
    {
      "midi": 59,
      "hit": false,
      "t": 74633.60203124987,
      "d": 265.80453124998894,
      "v": 61
    },
    {
      "midi": 64,
      "hit": false,
      "t": 75158.02718749986,
      "d": 538.79296875,
      "v": 71
    },
    {
      "midi": 56,
      "hit": false,
      "t": 75165.21109374985,
      "d": 689.6549999999988,
      "v": 74
    },
    {
      "midi": 59,
      "hit": false,
      "t": 75165.21109374985,
      "d": 689.6549999999988,
      "v": 87
    },
    {
      "midi": 47,
      "hit": false,
      "t": 75847.68218749986,
      "d": 2765.8039062499156,
      "v": 87
    },
    {
      "midi": 54,
      "hit": false,
      "t": 75854.86609374997,
      "d": 1012.9307812499756,
      "v": 97
    },
    {
      "midi": 63,
      "hit": false,
      "t": 75854.86609374997,
      "d": 1027.2985937499761,
      "v": 38
    },
    {
      "midi": 59,
      "hit": false,
      "t": 75854.86609374997,
      "d": 1041.6664062499767,
      "v": 58
    },
    {
      "midi": 47,
      "hit": false,
      "t": 75862.04999999996,
      "d": 1293.103124999965,
      "v": 92
    },
    {
      "midi": 63,
      "hit": false,
      "t": 76515.78546874985,
      "d": 380.74703124997905,
      "v": 35
    },
    {
      "midi": 54,
      "hit": false,
      "t": 76522.96937499984,
      "d": 380.74703124997905,
      "v": 61
    },
    {
      "midi": 59,
      "hit": false,
      "t": 76530.15328124983,
      "d": 402.2987499999872,
      "v": 71
    },
    {
      "midi": 66,
      "hit": false,
      "t": 76903.71640624994,
      "d": 64.65515624999534,
      "v": 14
    },
    {
      "midi": 54,
      "hit": false,
      "t": 77054.57843749982,
      "d": 93.39078124998196,
      "v": 50
    },
    {
      "midi": 63,
      "hit": false,
      "t": 77061.76234374981,
      "d": 143.67812499999127,
      "v": 23
    },
    {
      "midi": 59,
      "hit": false,
      "t": 77068.9462499998,
      "d": 107.75859374999709,
      "v": 64
    },
    {
      "midi": 66,
      "hit": false,
      "t": 77241.35999999993,
      "d": 977.0112499999959,
      "v": 43
    },
    {
      "midi": 63,
      "hit": false,
      "t": 77241.35999999993,
      "d": 991.3790624999965,
      "v": 35
    },
    {
      "midi": 47,
      "hit": false,
      "t": 77241.35999999993,
      "d": 1135.0571875000023,
      "v": 71
    },
    {
      "midi": 59,
      "hit": false,
      "t": 77241.35999999993,
      "d": 1170.9767187499965,
      "v": 40
    },
    {
      "midi": 54,
      "hit": false,
      "t": 77392.2220312498,
      "d": 186.78156249999302,
      "v": 53
    },
    {
      "midi": 59,
      "hit": false,
      "t": 77399.40593749979,
      "d": 129.31031250000524,
      "v": 67
    },
    {
      "midi": 63,
      "hit": false,
      "t": 77399.40593749979,
      "d": 215.51718749999418,
      "v": 25
    },
    {
      "midi": 63,
      "hit": false,
      "t": 77909.46328124979,
      "d": 653.7354687499901,
      "v": 38
    },
    {
      "midi": 59,
      "hit": false,
      "t": 77916.64718749978,
      "d": 617.8159374999959,
      "v": 71
    },
    {
      "midi": 54,
      "hit": false,
      "t": 77916.64718749978,
      "d": 646.5515624999971,
      "v": 61
    },
    {
      "midi": 40,
      "hit": false,
      "t": 78599.11828124977,
      "d": 1415.2295312499919,
      "v": 87
    },
    {
      "midi": 68,
      "hit": false,
      "t": 78613.48609374992,
      "d": 1106.3215625000012,
      "v": 61
    },
    {
      "midi": 59,
      "hit": false,
      "t": 78613.48609374992,
      "d": 1206.8962500000052,
      "v": 47
    },
    {
      "midi": 64,
      "hit": false,
      "t": 78613.48609374992,
      "d": 1206.8962500000052,
      "v": 78
    },
    {
      "midi": 40,
      "hit": false,
      "t": 78613.48609374992,
      "d": 1278.7353125000081,
      "v": 71
    },
    {
      "midi": 64,
      "hit": false,
      "t": 79288.77328124977,
      "d": 387.9309374999866,
      "v": 71
    },
    {
      "midi": 59,
      "hit": false,
      "t": 79288.77328124977,
      "d": 431.03437499998836,
      "v": 83
    },
    {
      "midi": 56,
      "hit": false,
      "t": 79295.95718749976,
      "d": 423.85046874999534,
      "v": 74
    },
    {
      "midi": 61,
      "hit": false,
      "t": 79834.75015624976,
      "d": 129.31031250000524,
      "v": 65
    },
    {
      "midi": 57,
      "hit": false,
      "t": 79834.75015624976,
      "d": 136.49421874999825,
      "v": 67
    },
    {
      "midi": 64,
      "hit": false,
      "t": 79834.75015624976,
      "d": 136.49421874999825,
      "v": 64
    },
    {
      "midi": 69,
      "hit": false,
      "t": 79992.79609374993,
      "d": 1113.5054687499942,
      "v": 47
    },
    {
      "midi": 61,
      "hit": false,
      "t": 79992.79609374993,
      "d": 1206.8962499999907,
      "v": 50
    },
    {
      "midi": 64,
      "hit": false,
      "t": 79992.79609374993,
      "d": 1235.6318749999919,
      "v": 64
    },
    {
      "midi": 45,
      "hit": false,
      "t": 79992.79609374993,
      "d": 1372.12609374999,
      "v": 58
    },
    {
      "midi": 61,
      "hit": false,
      "t": 80172.39374999977,
      "d": 150.86203124999884,
      "v": 74
    },
    {
      "midi": 57,
      "hit": false,
      "t": 80179.57765624976,
      "d": 150.86203124999884,
      "v": 83
    },
    {
      "midi": 64,
      "hit": false,
      "t": 80179.57765624976,
      "d": 150.86203124999884,
      "v": 71
    },
    {
      "midi": 45,
      "hit": false,
      "t": 80344.80749999976,
      "d": 969.8273437500029,
      "v": 45
    },
    {
      "midi": 61,
      "hit": false,
      "t": 80639.34765624977,
      "d": 754.3101562499942,
      "v": 80
    },
    {
      "midi": 64,
      "hit": false,
      "t": 80646.53156249976,
      "d": 747.1262500000012,
      "v": 83
    },
    {
      "midi": 57,
      "hit": false,
      "t": 80646.53156249976,
      "d": 783.0457812499953,
      "v": 92
    },
    {
      "midi": 40,
      "hit": false,
      "t": 81329.00265624977,
      "d": 1386.4939062499761,
      "v": 83
    },
    {
      "midi": 64,
      "hit": false,
      "t": 81372.10609374991,
      "d": 977.0112500000105,
      "v": 61
    },
    {
      "midi": 68,
      "hit": false,
      "t": 81372.10609374991,
      "d": 1012.9307812500047,
      "v": 46
    },
    {
      "midi": 59,
      "hit": false,
      "t": 81372.10609374991,
      "d": 1170.976718750011,
      "v": 43
    },
    {
      "midi": 40,
      "hit": false,
      "t": 81372.10609374991,
      "d": 1206.8962500000052,
      "v": 58
    },
    {
      "midi": 64,
      "hit": false,
      "t": 82047.39328124975,
      "d": 380.7470312499936,
      "v": 83
    },
    {
      "midi": 56,
      "hit": false,
      "t": 82054.57718749974,
      "d": 395.1148437499942,
      "v": 70
    },
    {
      "midi": 59,
      "hit": false,
      "t": 82054.57718749974,
      "d": 409.48265624999476,
      "v": 87
    },
    {
      "midi": 63,
      "hit": false,
      "t": 82579.00234374974,
      "d": 150.86203124999884,
      "v": 50
    },
    {
      "midi": 59,
      "hit": false,
      "t": 82586.18624999974,
      "d": 143.67812500000582,
      "v": 58
    },
    {
      "midi": 59,
      "hit": false,
      "t": 82751.41609374993,
      "d": 991.3790625000111,
      "v": 45
    },
    {
      "midi": 63,
      "hit": false,
      "t": 82751.41609374993,
      "d": 1027.2985937500052,
      "v": 53
    },
    {
      "midi": 66,
      "hit": false,
      "t": 82751.41609374993,
      "d": 1034.4824999999983,
      "v": 65
    },
    {
      "midi": 47,
      "hit": false,
      "t": 82751.41609374993,
      "d": 1357.758281250004,
      "v": 83
    },
    {
      "midi": 63,
      "hit": false,
      "t": 82902.27812499975,
      "d": 208.33328125000116,
      "v": 57
    },
    {
      "midi": 59,
      "hit": false,
      "t": 82902.27812499975,
      "d": 215.51718749999418,
      "v": 78
    },
    {
      "midi": 47,
      "hit": false,
      "t": 83096.24359374975,
      "d": 991.3790624999965,
      "v": 33
    },
    {
      "midi": 63,
      "hit": false,
      "t": 83412.33546874975,
      "d": 754.3101562499942,
      "v": 65
    },
    {
      "midi": 59,
      "hit": false,
      "t": 83419.51937499974,
      "d": 711.206718750007,
      "v": 92
    },
    {
      "midi": 49,
      "hit": false,
      "t": 84130.72609374975,
      "d": 1408.0456249999843,
      "v": 74
    },
    {
      "midi": 60,
      "hit": false,
      "t": 84130.72609374992,
      "d": 545.976874999993,
      "v": 78
    },
    {
      "midi": 64,
      "hit": false,
      "t": 84130.72609374992,
      "d": 905.172187499993,
      "v": 74
    },
    {
      "midi": 68,
      "hit": false,
      "t": 84130.72609374992,
      "d": 912.356093749986,
      "v": 53
    },
    {
      "midi": 49,
      "hit": false,
      "t": 84130.72609374992,
      "d": 1091.953749999986,
      "v": 70
    },
    {
      "midi": 64,
      "hit": false,
      "t": 84806.01328124975,
      "d": 466.9539062499971,
      "v": 83
    },
    {
      "midi": 61,
      "hit": false,
      "t": 84806.01328124975,
      "d": 538.79296875,
      "v": 61
    },
    {
      "midi": 56,
      "hit": false,
      "t": 84813.19718749974,
      "d": 459.7700000000041,
      "v": 61
    },
    {
      "midi": 45,
      "hit": false,
      "t": 85502.85218749975,
      "d": 732.7584374999569,
      "v": 78
    },
    {
      "midi": 61,
      "hit": false,
      "t": 85510.03609374975,
      "d": 603.4481249999808,
      "v": 74
    },
    {
      "midi": 64,
      "hit": false,
      "t": 85510.0360937499,
      "d": 380.7470312499936,
      "v": 83
    },
    {
      "midi": 57,
      "hit": false,
      "t": 85510.0360937499,
      "d": 495.68953124999825,
      "v": 74
    },
    {
      "midi": 61,
      "hit": false,
      "t": 85510.0360937499,
      "d": 567.5285937500012,
      "v": 65
    },
    {
      "midi": 45,
      "hit": false,
      "t": 85510.0360937499,
      "d": 653.7354687500047,
      "v": 92
    },
    {
      "midi": 64,
      "hit": false,
      "t": 85517.21999999974,
      "d": 531.6090624999924,
      "v": 78
    },
    {
      "midi": 57,
      "hit": false,
      "t": 85517.21999999974,
      "d": 574.7124999999942,
      "v": 64
    },
    {
      "midi": 63,
      "hit": false,
      "t": 86199.69109374973,
      "d": 495.6895312499837,
      "v": 65
    },
    {
      "midi": 63,
      "hit": false,
      "t": 86199.6910937499,
      "d": 229.8849999999802,
      "v": 74
    },
    {
      "midi": 59,
      "hit": false,
      "t": 86206.87499999972,
      "d": 531.6090624999924,
      "v": 78
    },
    {
      "midi": 47,
      "hit": false,
      "t": 86206.87499999972,
      "d": 732.758437499986,
      "v": 74
    },
    {
      "midi": 66,
      "hit": false,
      "t": 86206.8749999999,
      "d": 186.78156249999302,
      "v": 80
    },
    {
      "midi": 47,
      "hit": false,
      "t": 86206.8749999999,
      "d": 244.2528124999808,
      "v": 78
    },
    {
      "midi": 59,
      "hit": false,
      "t": 86206.8749999999,
      "d": 251.4367187499738,
      "v": 58
    },
    {
      "midi": 61,
      "hit": false,
      "t": 86214.05890624972,
      "d": 21.551718749993597,
      "v": 53
    },
    {
      "midi": 40,
      "hit": false,
      "t": 86874.97828124971,
      "d": 1673.8501562499587,
      "v": 78
    },
    {
      "midi": 59,
      "hit": false,
      "t": 86889.34609374987,
      "d": 2025.8615624999948,
      "v": 74
    },
    {
      "midi": 64,
      "hit": false,
      "t": 86889.34609374987,
      "d": 2090.51671874999,
      "v": 74
    },
    {
      "midi": 56,
      "hit": false,
      "t": 86889.34609374987,
      "d": 2126.4362499999843,
      "v": 57
    },
    {
      "midi": 40,
      "hit": false,
      "t": 86889.34609374987,
      "d": 2356.321249999979,
      "v": 78
    },
    {
      "midi": 64,
      "hit": false,
      "t": 87564.63328124971,
      "d": 359.1953125,
      "v": 71
    },
    {
      "midi": 59,
      "hit": false,
      "t": 87564.63328124971,
      "d": 395.1148437499942,
      "v": 87
    },
    {
      "midi": 56,
      "hit": false,
      "t": 87571.8171874997,
      "d": 387.93093750000116,
      "v": 70
    },
    {
      "midi": 56,
      "hit": false,
      "t": 88074.69062499971,
      "d": 150.86203124998428,
      "v": 61
    },
    {
      "midi": 64,
      "hit": false,
      "t": 88081.8745312497,
      "d": 136.49421874999825,
      "v": 64
    },
    {
      "midi": 59,
      "hit": false,
      "t": 88081.8745312497,
      "d": 150.86203124998428,
      "v": 67
    },
    {
      "midi": 64,
      "hit": false,
      "t": 88419.51812499968,
      "d": 186.78156249999302,
      "v": 64
    },
    {
      "midi": 56,
      "hit": false,
      "t": 88419.51812499968,
      "d": 201.1493749999936,
      "v": 65
    },
    {
      "midi": 59,
      "hit": false,
      "t": 88426.70203124968,
      "d": 201.1493749999936,
      "v": 71
    },
    {
      "midi": 40,
      "hit": false,
      "t": 88606.29968749968,
      "d": 804.5974999999889,
      "v": 29
    },
    {
      "midi": 64,
      "hit": false,
      "t": 88936.75937499967,
      "d": 704.0228124999849,
      "v": 78
    },
    {
      "midi": 59,
      "hit": false,
      "t": 88943.94328124967,
      "d": 704.0228124999849,
      "v": 92
    },
    {
      "midi": 56,
      "hit": false,
      "t": 88943.94328124967,
      "d": 718.3906249999854,
      "v": 74
    },
    {
      "midi": 45,
      "hit": false,
      "t": 89640.78218749966,
      "d": 1673.8501562499587,
      "v": 97
    },
    {
      "midi": 63,
      "hit": false,
      "t": 89640.78218749985,
      "d": 179.59765625,
      "v": 23
    },
    {
      "midi": 45,
      "hit": false,
      "t": 89640.78218749985,
      "d": 2262.930468749997,
      "v": 92
    },
    {
      "midi": 64,
      "hit": false,
      "t": 89647.96609374984,
      "d": 2162.3557812500076,
      "v": 74
    },
    {
      "midi": 61,
      "hit": false,
      "t": 89647.96609374984,
      "d": 2191.0914062500087,
      "v": 70
    },
    {
      "midi": 57,
      "hit": false,
      "t": 89647.96609374984,
      "d": 2227.010937500003,
      "v": 74
    },
    {
      "midi": 61,
      "hit": false,
      "t": 90330.43718749966,
      "d": 395.1148437499796,
      "v": 80
    },
    {
      "midi": 57,
      "hit": false,
      "t": 90337.62109374965,
      "d": 387.9309374999866,
      "v": 97
    },
    {
      "midi": 64,
      "hit": false,
      "t": 90344.80499999964,
      "d": 366.379218749993,
      "v": 83
    },
    {
      "midi": 64,
      "hit": false,
      "t": 90840.49453124964,
      "d": 143.67812500000582,
      "v": 74
    },
    {
      "midi": 61,
      "hit": false,
      "t": 90840.49453124964,
      "d": 150.86203124999884,
      "v": 70
    },
    {
      "midi": 57,
      "hit": false,
      "t": 90840.49453124964,
      "d": 158.04593749999185,
      "v": 74
    },
    {
      "midi": 61,
      "hit": false,
      "t": 91185.32203124963,
      "d": 201.1493749999936,
      "v": 70
    },
    {
      "midi": 64,
      "hit": false,
      "t": 91192.50593749962,
      "d": 201.1493749999936,
      "v": 83
    },
    {
      "midi": 57,
      "hit": false,
      "t": 91192.50593749962,
      "d": 208.3332812499866,
      "v": 83
    },
    {
      "midi": 45,
      "hit": false,
      "t": 91357.73578124962,
      "d": 1027.2985937499616,
      "v": 40
    },
    {
      "midi": 57,
      "hit": false,
      "t": 91688.1954687496,
      "d": 452.58609374998196,
      "v": 97
    },
    {
      "midi": 61,
      "hit": false,
      "t": 91688.1954687496,
      "d": 452.58609374998196,
      "v": 80
    },
    {
      "midi": 64,
      "hit": false,
      "t": 91695.3793749996,
      "d": 423.85046874999534,
      "v": 92
    },
    {
      "midi": 61,
      "hit": false,
      "t": 92234.17234374958,
      "d": 193.96546874998603,
      "v": 61
    },
    {
      "midi": 57,
      "hit": false,
      "t": 92241.35624999958,
      "d": 201.1493749999936,
      "v": 67
    },
    {
      "midi": 64,
      "hit": false,
      "t": 92241.35624999958,
      "d": 215.51718749999418,
      "v": 71
    },
    {
      "midi": 64,
      "hit": false,
      "t": 92392.21828124985,
      "d": 2219.8270312499953,
      "v": 71
    },
    {
      "midi": 56,
      "hit": false,
      "t": 92392.21828124985,
      "d": 2291.6660937499837,
      "v": 53
    },
    {
      "midi": 59,
      "hit": false,
      "t": 92399.40218749984,
      "d": 2262.930468749997,
      "v": 67
    },
    {
      "midi": 40,
      "hit": false,
      "t": 92406.58609374957,
      "d": 2765.8039062499593,
      "v": 92
    },
    {
      "midi": 40,
      "hit": false,
      "t": 92413.76999999984,
      "d": 2535.9189062499936,
      "v": 78
    },
    {
      "midi": 64,
      "hit": false,
      "t": 93096.24109374957,
      "d": 344.8274999999994,
      "v": 74
    },
    {
      "midi": 56,
      "hit": false,
      "t": 93096.24109374957,
      "d": 373.5631250000006,
      "v": 74
    },
    {
      "midi": 59,
      "hit": false,
      "t": 93096.24109374957,
      "d": 373.5631250000006,
      "v": 78
    },
    {
      "midi": 56,
      "hit": false,
      "t": 93577.56281249957,
      "d": 208.3332812499866,
      "v": 61
    },
    {
      "midi": 64,
      "hit": false,
      "t": 93584.74671874956,
      "d": 179.59765625,
      "v": 61
    },
    {
      "midi": 59,
      "hit": false,
      "t": 93584.74671874956,
      "d": 201.1493749999936,
      "v": 64
    },
    {
      "midi": 64,
      "hit": false,
      "t": 93951.12593749956,
      "d": 186.78156249999302,
      "v": 71
    },
    {
      "midi": 56,
      "hit": false,
      "t": 93951.12593749956,
      "d": 229.88499999999476,
      "v": 70
    },
    {
      "midi": 59,
      "hit": false,
      "t": 93958.30984374955,
      "d": 229.88499999999476,
      "v": 78
    },
    {
      "midi": 64,
      "hit": false,
      "t": 94482.73499999955,
      "d": 416.6665624999878,
      "v": 74
    },
    {
      "midi": 59,
      "hit": false,
      "t": 94482.73499999955,
      "d": 445.40218749998894,
      "v": 92
    },
    {
      "midi": 56,
      "hit": false,
      "t": 94489.91890624954,
      "d": 438.2182812499959,
      "v": 74
    },
    {
      "midi": 56,
      "hit": false,
      "t": 95028.71187499954,
      "d": 179.5976562499709,
      "v": 61
    },
    {
      "midi": 59,
      "hit": false,
      "t": 95035.89578124954,
      "d": 165.22984374998487,
      "v": 71
    },
    {
      "midi": 64,
      "hit": false,
      "t": 95035.89578124954,
      "d": 172.41374999997788,
      "v": 64
    },
    {
      "midi": 63,
      "hit": false,
      "t": 95158.02218749984,
      "d": 2270.1143750000047,
      "v": 50
    },
    {
      "midi": 59,
      "hit": false,
      "t": 95172.38999999984,
      "d": 2270.11437499999,
      "v": 71
    },
    {
      "midi": 54,
      "hit": false,
      "t": 95179.57390624983,
      "d": 2255.746562500004,
      "v": 97
    },
    {
      "midi": 47,
      "hit": false,
      "t": 95179.57390624983,
      "d": 2622.125781249997,
      "v": 97
    },
    {
      "midi": 47,
      "hit": false,
      "t": 95193.94171874953,
      "d": 2737.068281249958,
      "v": 97
    },
    {
      "midi": 63,
      "hit": false,
      "t": 95833.30937499952,
      "d": 366.379218749993,
      "v": 41
    },
    {
      "midi": 54,
      "hit": false,
      "t": 95833.30937499952,
      "d": 373.56312499998603,
      "v": 57
    },
    {
      "midi": 59,
      "hit": false,
      "t": 95833.30937499952,
      "d": 395.1148437499796,
      "v": 74
    },
    {
      "midi": 54,
      "hit": false,
      "t": 96350.5506249995,
      "d": 172.41374999999243,
      "v": 57
    },
    {
      "midi": 63,
      "hit": false,
      "t": 96357.73453124949,
      "d": 165.22984374999942,
      "v": 50
    },
    {
      "midi": 59,
      "hit": false,
      "t": 96357.73453124949,
      "d": 193.96546875000058,
      "v": 71
    },
    {
      "midi": 54,
      "hit": false,
      "t": 96709.7459374995,
      "d": 186.78156249999302,
      "v": 57
    },
    {
      "midi": 59,
      "hit": false,
      "t": 96716.92984374949,
      "d": 150.86203124999884,
      "v": 74
    },
    {
      "midi": 63,
      "hit": false,
      "t": 96716.92984374949,
      "d": 237.06890625000233,
      "v": 38
    },
    {
      "midi": 63,
      "hit": false,
      "t": 97219.8032812495,
      "d": 682.4710937499913,
      "v": 50
    },
    {
      "midi": 54,
      "hit": false,
      "t": 97226.98718749949,
      "d": 646.5515624999971,
      "v": 70
    },
    {
      "midi": 59,
      "hit": false,
      "t": 97226.98718749949,
      "d": 646.5515624999971,
      "v": 78
    },
    {
      "midi": 40,
      "hit": false,
      "t": 97902.27437499948,
      "d": 2744.2521874999366,
      "v": 92
    },
    {
      "midi": 64,
      "hit": false,
      "t": 97902.27437499983,
      "d": 2068.964999999982,
      "v": 71
    },
    {
      "midi": 56,
      "hit": false,
      "t": 97909.45828124983,
      "d": 2104.8845312499907,
      "v": 53
    },
    {
      "midi": 59,
      "hit": false,
      "t": 97916.64218749982,
      "d": 2119.2523437499913,
      "v": 67
    },
    {
      "midi": 40,
      "hit": false,
      "t": 97916.64218749982,
      "d": 2485.6315624999843,
      "v": 71
    },
    {
      "midi": 64,
      "hit": false,
      "t": 98591.92937499948,
      "d": 366.379218749993,
      "v": 67
    },
    {
      "midi": 59,
      "hit": false,
      "t": 98599.11328124948,
      "d": 402.2987499999872,
      "v": 78
    },
    {
      "midi": 56,
      "hit": false,
      "t": 98606.29718749947,
      "d": 387.93093750000116,
      "v": 61
    },
    {
      "midi": 64,
      "hit": false,
      "t": 99123.53843749946,
      "d": 150.86203124999884,
      "v": 64
    },
    {
      "midi": 56,
      "hit": false,
      "t": 99130.72234374945,
      "d": 158.0459375000064,
      "v": 70
    },
    {
      "midi": 59,
      "hit": false,
      "t": 99130.72234374945,
      "d": 165.22984374999942,
      "v": 67
    },
    {
      "midi": 56,
      "hit": false,
      "t": 99453.99812499946,
      "d": 280.1723437499895,
      "v": 65
    },
    {
      "midi": 64,
      "hit": false,
      "t": 99461.18203124945,
      "d": 179.59765625,
      "v": 64
    },
    {
      "midi": 59,
      "hit": false,
      "t": 99461.18203124945,
      "d": 280.1723437499895,
      "v": 61
    },
    {
      "midi": 59,
      "hit": false,
      "t": 99999.97499999944,
      "d": 704.0228124999703,
      "v": 97
    },
    {
      "midi": 64,
      "hit": false,
      "t": 100007.15890624943,
      "d": 632.1837499999965,
      "v": 78
    },
    {
      "midi": 56,
      "hit": false,
      "t": 100007.15890624943,
      "d": 696.8389062499773,
      "v": 80
    },
    {
      "midi": 61,
      "hit": false,
      "t": 100668.07828124981,
      "d": 2262.930468749997,
      "v": 70
    },
    {
      "midi": 57,
      "hit": false,
      "t": 100675.2621874998,
      "d": 2241.3787500000035,
      "v": 64
    },
    {
      "midi": 64,
      "hit": false,
      "t": 100675.2621874998,
      "d": 2277.2982812499977,
      "v": 74
    },
    {
      "midi": 45,
      "hit": false,
      "t": 100682.44609374942,
      "d": 2737.0682812499144,
      "v": 97
    },
    {
      "midi": 45,
      "hit": false,
      "t": 100689.6299999998,
      "d": 2765.8039062499884,
      "v": 83
    },
    {
      "midi": 61,
      "hit": false,
      "t": 101364.9171874994,
      "d": 387.9309374999866,
      "v": 74
    },
    {
      "midi": 57,
      "hit": false,
      "t": 101364.9171874994,
      "d": 395.1148437499796,
      "v": 97
    },
    {
      "midi": 64,
      "hit": false,
      "t": 101372.1010937494,
      "d": 359.1953125,
      "v": 83
    },
    {
      "midi": 64,
      "hit": false,
      "t": 101896.52624999938,
      "d": 165.22984374999942,
      "v": 83
    },
    {
      "midi": 57,
      "hit": false,
      "t": 101896.52624999938,
      "d": 172.41374999999243,
      "v": 83
    },
    {
      "midi": 61,
      "hit": false,
      "t": 101896.52624999938,
      "d": 172.41374999999243,
      "v": 74
    },
    {
      "midi": 61,
      "hit": false,
      "t": 102226.98593749938,
      "d": 215.51718749997963,
      "v": 74
    },
    {
      "midi": 64,
      "hit": false,
      "t": 102234.16984374938,
      "d": 201.1493749999936,
      "v": 78
    },
    {
      "midi": 57,
      "hit": false,
      "t": 102234.16984374938,
      "d": 208.3332812499866,
      "v": 87
    },
    {
      "midi": 61,
      "hit": false,
      "t": 102758.59499999936,
      "d": 567.5285937499866,
      "v": 80
    },
    {
      "midi": 64,
      "hit": false,
      "t": 102758.59499999936,
      "d": 589.0803124999802,
      "v": 92
    },
    {
      "midi": 57,
      "hit": false,
      "t": 102758.59499999936,
      "d": 653.7354687499756,
      "v": 97
    },
    {
      "midi": 63,
      "hit": false,
      "t": 102765.77890624935,
      "d": 21.551718749993597,
      "v": 46
    },
    {
      "midi": 40,
      "hit": false,
      "t": 103405.14656249934,
      "d": 2772.9878124999523,
      "v": 87
    },
    {
      "midi": 64,
      "hit": false,
      "t": 103412.3304687498,
      "d": 2183.907500000001,
      "v": 74
    },
    {
      "midi": 59,
      "hit": false,
      "t": 103419.5143749998,
      "d": 2104.8845312500052,
      "v": 56
    },
    {
      "midi": 56,
      "hit": false,
      "t": 103419.5143749998,
      "d": 2241.3787500000035,
      "v": 41
    },
    {
      "midi": 40,
      "hit": false,
      "t": 103433.8821874998,
      "d": 2737.0682812500017,
      "v": 67
    },
    {
      "midi": 56,
      "hit": false,
      "t": 104130.72109374934,
      "d": 380.7470312499936,
      "v": 80
    },
    {
      "midi": 59,
      "hit": false,
      "t": 104130.72109374934,
      "d": 380.7470312499936,
      "v": 92
    },
    {
      "midi": 64,
      "hit": false,
      "t": 104137.90499999933,
      "d": 344.8274999999994,
      "v": 78
    },
    {
      "midi": 56,
      "hit": false,
      "t": 104655.14624999934,
      "d": 186.78156249999302,
      "v": 80
    },
    {
      "midi": 59,
      "hit": false,
      "t": 104655.14624999934,
      "d": 186.78156249999302,
      "v": 87
    },
    {
      "midi": 64,
      "hit": false,
      "t": 104662.33015624933,
      "d": 172.41375000000698,
      "v": 74
    },
    {
      "midi": 56,
      "hit": false,
      "t": 104992.78984374933,
      "d": 229.88499999999476,
      "v": 70
    },
    {
      "midi": 59,
      "hit": false,
      "t": 104992.78984374933,
      "d": 237.06890624998778,
      "v": 71
    },
    {
      "midi": 64,
      "hit": false,
      "t": 104999.97374999932,
      "d": 193.96546875000058,
      "v": 67
    },
    {
      "midi": 56,
      "hit": false,
      "t": 105502.84718749931,
      "d": 711.2067187499779,
      "v": 80
    },
    {
      "midi": 59,
      "hit": false,
      "t": 105502.84718749931,
      "d": 725.5745312499785,
      "v": 97
    },
    {
      "midi": 64,
      "hit": false,
      "t": 105510.0310937493,
      "d": 632.1837499999965,
      "v": 83
    },
    {
      "midi": 63,
      "hit": false,
      "t": 106192.50218749979,
      "d": 2334.76953125,
      "v": 46
    },
    {
      "midi": 47,
      "hit": false,
      "t": 106199.68609374929,
      "d": 2737.068281249958,
      "v": 97
    },
    {
      "midi": 59,
      "hit": false,
      "t": 106199.68609374978,
      "d": 2363.505156250001,
      "v": 67
    },
    {
      "midi": 54,
      "hit": false,
      "t": 106206.86999999978,
      "d": 2291.666093750013,
      "v": 97
    },
    {
      "midi": 47,
      "hit": false,
      "t": 106206.86999999978,
      "d": 2543.102812500001,
      "v": 83
    },
    {
      "midi": 63,
      "hit": false,
      "t": 106867.7893749993,
      "d": 366.379218749993,
      "v": 50
    },
    {
      "midi": 59,
      "hit": false,
      "t": 106874.97328124929,
      "d": 395.1148437499942,
      "v": 74
    },
    {
      "midi": 54,
      "hit": false,
      "t": 106882.15718749928,
      "d": 359.1953125,
      "v": 61
    },
    {
      "midi": 54,
      "hit": false,
      "t": 107406.58234374928,
      "d": 136.49421874999825,
      "v": 61
    },
    {
      "midi": 59,
      "hit": false,
      "t": 107413.76624999927,
      "d": 129.31031250000524,
      "v": 74
    },
    {
      "midi": 63,
      "hit": false,
      "t": 107413.76624999927,
      "d": 143.67812500000582,
      "v": 50
    },
    {
      "midi": 63,
      "hit": false,
      "t": 107751.40984374928,
      "d": 179.59765624998545,
      "v": 50
    },
    {
      "midi": 54,
      "hit": false,
      "t": 107751.40984374928,
      "d": 193.96546874998603,
      "v": 65
    },
    {
      "midi": 59,
      "hit": false,
      "t": 107758.59374999927,
      "d": 165.22984374999942,
      "v": 78
    },
    {
      "midi": 63,
      "hit": false,
      "t": 108247.09937499926,
      "d": 632.183749999982,
      "v": 53
    },
    {
      "midi": 59,
      "hit": false,
      "t": 108254.28328124926,
      "d": 624.9998437499889,
      "v": 71
    },
    {
      "midi": 54,
      "hit": false,
      "t": 108261.46718749925,
      "d": 632.1837499999965,
      "v": 65
    },
    {
      "midi": 40,
      "hit": false,
      "t": 108908.01874999925,
      "d": 1264.367499999964,
      "v": 87
    },
    {
      "midi": 64,
      "hit": false,
      "t": 108929.57046874978,
      "d": 1005.7468749999971,
      "v": 61
    },
    {
      "midi": 56,
      "hit": false,
      "t": 108943.93828124978,
      "d": 1027.2985937499907,
      "v": 50
    },
    {
      "midi": 59,
      "hit": false,
      "t": 108943.93828124978,
      "d": 1113.5054687499942,
      "v": 58
    },
    {
      "midi": 40,
      "hit": false,
      "t": 108951.12218749977,
      "d": 1357.758281250004,
      "v": 64
    },
    {
      "midi": 64,
      "hit": false,
      "t": 109626.40937499925,
      "d": 373.56312499998603,
      "v": 71
    },
    {
      "midi": 59,
      "hit": false,
      "t": 109626.40937499925,
      "d": 395.1148437499796,
      "v": 87
    },
    {
      "midi": 56,
      "hit": false,
      "t": 109633.59328124924,
      "d": 395.1148437499796,
      "v": 65
    },
    {
      "midi": 57,
      "hit": false,
      "t": 110150.83453124922,
      "d": 158.04593749999185,
      "v": 71
    },
    {
      "midi": 61,
      "hit": false,
      "t": 110158.01843749921,
      "d": 143.67812500000582,
      "v": 70
    },
    {
      "midi": 64,
      "hit": false,
      "t": 110158.01843749921,
      "d": 150.86203124999884,
      "v": 71
    },
    {
      "midi": 64,
      "hit": false,
      "t": 110330.43218749977,
      "d": 1056.0342187499919,
      "v": 58
    },
    {
      "midi": 61,
      "hit": false,
      "t": 110337.61609374976,
      "d": 1056.0342187499919,
      "v": 46
    },
    {
      "midi": 45,
      "hit": false,
      "t": 110337.61609374976,
      "d": 1386.4939062499761,
      "v": 58
    },
    {
      "midi": 57,
      "hit": false,
      "t": 110344.79999999976,
      "d": 1077.5859375,
      "v": 53
    },
    {
      "midi": 61,
      "hit": false,
      "t": 110502.84593749921,
      "d": 186.78156249999302,
      "v": 70
    },
    {
      "midi": 64,
      "hit": false,
      "t": 110510.0298437492,
      "d": 193.96546874998603,
      "v": 74
    },
    {
      "midi": 57,
      "hit": false,
      "t": 110510.0298437492,
      "d": 201.14937499997905,
      "v": 87
    },
    {
      "midi": 45,
      "hit": false,
      "t": 110696.8114062492,
      "d": 969.8273437499738,
      "v": 58
    },
    {
      "midi": 64,
      "hit": false,
      "t": 111005.71937499919,
      "d": 574.7124999999942,
      "v": 97
    },
    {
      "midi": 61,
      "hit": false,
      "t": 111005.71937499919,
      "d": 732.758437499986,
      "v": 74
    },
    {
      "midi": 57,
      "hit": false,
      "t": 111012.90328124918,
      "d": 646.5515624999971,
      "v": 87
    },
    {
      "midi": 40,
      "hit": false,
      "t": 111709.74218749917,
      "d": 1206.8962500000052,
      "v": 97
    },
    {
      "midi": 64,
      "hit": false,
      "t": 111709.74218749975,
      "d": 1113.5054687499796,
      "v": 64
    },
    {
      "midi": 59,
      "hit": false,
      "t": 111716.92609374975,
      "d": 998.5629687499895,
      "v": 61
    },
    {
      "midi": 56,
      "hit": false,
      "t": 111716.92609374975,
      "d": 1142.2410937499808,
      "v": 50
    },
    {
      "midi": 40,
      "hit": false,
      "t": 111724.10999999974,
      "d": 1249.9996874999924,
      "v": 67
    },
    {
      "midi": 64,
      "hit": false,
      "t": 112399.39718749917,
      "d": 337.6435937500064,
      "v": 74
    },
    {
      "midi": 56,
      "hit": false,
      "t": 112413.76499999917,
      "d": 373.5631250000006,
      "v": 61
    },
    {
      "midi": 59,
      "hit": false,
      "t": 112413.76499999917,
      "d": 402.29875000000175,
      "v": 74
    },
    {
      "midi": 63,
      "hit": false,
      "t": 112916.63843749918,
      "d": 150.86203124998428,
      "v": 50
    },
    {
      "midi": 54,
      "hit": false,
      "t": 112923.82234374917,
      "d": 158.04593749999185,
      "v": 57
    },
    {
      "midi": 59,
      "hit": false,
      "t": 112931.00624999916,
      "d": 129.31031250000524,
      "v": 67
    },
    {
      "midi": 63,
      "hit": false,
      "t": 113081.86828124973,
      "d": 1027.2985937499907,
      "v": 46
    },
    {
      "midi": 59,
      "hit": false,
      "t": 113089.05218749972,
      "d": 941.0917187500017,
      "v": 67
    },
    {
      "midi": 47,
      "hit": false,
      "t": 113089.05218749972,
      "d": 1228.4479687499988,
      "v": 78
    },
    {
      "midi": 54,
      "hit": false,
      "t": 113096.23609374971,
      "d": 991.3790625000111,
      "v": 97
    },
    {
      "midi": 63,
      "hit": false,
      "t": 113275.83374999916,
      "d": 251.43671874998836,
      "v": 57
    },
    {
      "midi": 59,
      "hit": false,
      "t": 113283.01765624915,
      "d": 150.86203124999884,
      "v": 78
    },
    {
      "midi": 54,
      "hit": false,
      "t": 113283.01765624915,
      "d": 244.25281249999534,
      "v": 61
    },
    {
      "midi": 47,
      "hit": false,
      "t": 113520.08656249916,
      "d": 43.103437499987194,
      "v": 17
    },
    {
      "midi": 63,
      "hit": false,
      "t": 113785.89109374915,
      "d": 510.05734374999884,
      "v": 57
    },
    {
      "midi": 54,
      "hit": false,
      "t": 113793.07499999914,
      "d": 510.05734374999884,
      "v": 65
    },
    {
      "midi": 59,
      "hit": false,
      "t": 113793.07499999914,
      "d": 510.05734374999884,
      "v": 78
    },
    {
      "midi": 45,
      "hit": false,
      "t": 114482.72999999914,
      "d": 2751.4360937499587,
      "v": 97
    },
    {
      "midi": 64,
      "hit": false,
      "t": 114497.09781249972,
      "d": 2176.723593749979,
      "v": 58
    },
    {
      "midi": 45,
      "hit": false,
      "t": 114504.28171874971,
      "d": 933.9078124999942,
      "v": 87
    },
    {
      "midi": 61,
      "hit": false,
      "t": 114504.28171874971,
      "d": 2061.781093749989,
      "v": 46
    },
    {
      "midi": 57,
      "hit": false,
      "t": 114504.28171874971,
      "d": 2162.355781249993,
      "v": 49
    },
    {
      "midi": 64,
      "hit": false,
      "t": 115172.38499999914,
      "d": 387.9309374999866,
      "v": 97
    },
    {
      "midi": 61,
      "hit": false,
      "t": 115172.38499999914,
      "d": 395.1148437499796,
      "v": 74
    },
    {
      "midi": 57,
      "hit": false,
      "t": 115179.56890624913,
      "d": 373.5631250000006,
      "v": 87
    },
    {
      "midi": 57,
      "hit": false,
      "t": 115689.62624999911,
      "d": 172.41374999999243,
      "v": 64
    },
    {
      "midi": 61,
      "hit": false,
      "t": 115696.8101562491,
      "d": 150.86203124999884,
      "v": 70
    },
    {
      "midi": 64,
      "hit": false,
      "t": 115696.8101562491,
      "d": 150.86203124999884,
      "v": 78
    },
    {
      "midi": 61,
      "hit": false,
      "t": 116034.45374999911,
      "d": 172.41374999999243,
      "v": 74
    },
    {
      "midi": 57,
      "hit": false,
      "t": 116034.45374999911,
      "d": 201.1493749999936,
      "v": 67
    },
    {
      "midi": 64,
      "hit": false,
      "t": 116041.6376562491,
      "d": 165.22984374999942,
      "v": 87
    },
    {
      "midi": 57,
      "hit": false,
      "t": 116551.6949999991,
      "d": 653.7354687499901,
      "v": 83
    },
    {
      "midi": 64,
      "hit": false,
      "t": 116558.8789062491,
      "d": 589.0803124999948,
      "v": 92
    },
    {
      "midi": 61,
      "hit": false,
      "t": 116558.8789062491,
      "d": 617.8159374999959,
      "v": 80
    },
    {
      "midi": 64,
      "hit": false,
      "t": 117234.16609374969,
      "d": 2126.436249999999,
      "v": 74
    },
    {
      "midi": 56,
      "hit": false,
      "t": 117241.34999999969,
      "d": 2162.3557812500076,
      "v": 57
    },
    {
      "midi": 40,
      "hit": false,
      "t": 117248.53390624968,
      "d": 905.1721875000076,
      "v": 78
    },
    {
      "midi": 59,
      "hit": false,
      "t": 117248.53390624968,
      "d": 2191.0914062500087,
      "v": 67
    },
    {
      "midi": 40,
      "hit": false,
      "t": 117255.71781249909,
      "d": 2701.148749999935,
      "v": 92
    },
    {
      "midi": 59,
      "hit": false,
      "t": 117923.8210937491,
      "d": 366.37921874997846,
      "v": 83
    },
    {
      "midi": 56,
      "hit": false,
      "t": 117931.00499999909,
      "d": 366.37921874997846,
      "v": 70
    },
    {
      "midi": 64,
      "hit": false,
      "t": 117938.18890624908,
      "d": 330.45968749999884,
      "v": 78
    },
    {
      "midi": 64,
      "hit": false,
      "t": 118455.43015624907,
      "d": 150.86203124999884,
      "v": 78
    },
    {
      "midi": 56,
      "hit": false,
      "t": 118462.61406249907,
      "d": 143.67812500000582,
      "v": 70
    },
    {
      "midi": 59,
      "hit": false,
      "t": 118462.61406249907,
      "d": 150.86203124999884,
      "v": 83
    },
    {
      "midi": 64,
      "hit": false,
      "t": 118793.07374999906,
      "d": 186.78156249999302,
      "v": 83
    },
    {
      "midi": 56,
      "hit": false,
      "t": 118793.07374999906,
      "d": 201.14937499997905,
      "v": 74
    },
    {
      "midi": 59,
      "hit": false,
      "t": 118800.25765624906,
      "d": 186.78156249999302,
      "v": 87
    },
    {
      "midi": 64,
      "hit": false,
      "t": 119288.76328124905,
      "d": 660.9193749999831,
      "v": 83
    },
    {
      "midi": 59,
      "hit": false,
      "t": 119295.94718749904,
      "d": 639.3676562500041,
      "v": 87
    },
    {
      "midi": 56,
      "hit": false,
      "t": 119295.94718749904,
      "d": 646.5515624999971,
      "v": 74
    },
    {
      "midi": 45,
      "hit": false,
      "t": 119964.05046874902,
      "d": 2758.6199999999662,
      "v": 92
    },
    {
      "midi": 61,
      "hit": false,
      "t": 119971.2343749997,
      "d": 2205.45921874998,
      "v": 74
    },
    {
      "midi": 64,
      "hit": false,
      "t": 119978.41828124969,
      "d": 2234.1948437499814,
      "v": 78
    },
    {
      "midi": 57,
      "hit": false,
      "t": 119985.60218749968,
      "d": 2183.907500000001,
      "v": 67
    },
    {
      "midi": 45,
      "hit": false,
      "t": 119985.60218749968,
      "d": 2729.884374999994,
      "v": 92
    },
    {
      "midi": 57,
      "hit": false,
      "t": 120668.07328124902,
      "d": 323.27578124999127,
      "v": 74
    },
    {
      "midi": 61,
      "hit": false,
      "t": 120668.07328124902,
      "d": 337.6435937499773,
      "v": 80
    },
    {
      "midi": 64,
      "hit": false,
      "t": 120675.25718749901,
      "d": 323.27578124999127,
      "v": 87
    },
    {
      "midi": 61,
      "hit": false,
      "t": 121192.49843749899,
      "d": 165.22984374998487,
      "v": 74
    },
    {
      "midi": 64,
      "hit": false,
      "t": 121192.49843749899,
      "d": 165.22984374998487,
      "v": 87
    },
    {
      "midi": 57,
      "hit": false,
      "t": 121199.68234374898,
      "d": 150.86203124999884,
      "v": 64
    },
    {
      "midi": 61,
      "hit": false,
      "t": 121530.14203124898,
      "d": 172.41375000000698,
      "v": 74
    },
    {
      "midi": 57,
      "hit": false,
      "t": 121530.14203124898,
      "d": 179.59765625,
      "v": 71
    },
    {
      "midi": 64,
      "hit": false,
      "t": 121530.14203124898,
      "d": 179.59765625,
      "v": 87
    },
    {
      "midi": 61,
      "hit": false,
      "t": 122033.01546874898,
      "d": 696.8389062499919,
      "v": 97
    },
    {
      "midi": 64,
      "hit": false,
      "t": 122033.01546874898,
      "d": 704.0228124999849,
      "v": 97
    },
    {
      "midi": 57,
      "hit": false,
      "t": 122040.19937499898,
      "d": 718.3906249999854,
      "v": 78
    },
    {
      "midi": 47,
      "hit": false,
      "t": 122722.67046874898,
      "d": 2054.5971874999523,
      "v": 97
    },
    {
      "midi": 63,
      "hit": false,
      "t": 122744.22218749968,
      "d": 1429.5973437499924,
      "v": 74
    },
    {
      "midi": 66,
      "hit": false,
      "t": 122751.40609374967,
      "d": 1422.4134374999994,
      "v": 74
    },
    {
      "midi": 47,
      "hit": false,
      "t": 122751.40609374967,
      "d": 1472.7007812499942,
      "v": 92
    },
    {
      "midi": 59,
      "hit": false,
      "t": 122751.40609374967,
      "d": 1479.8846874999872,
      "v": 61
    },
    {
      "midi": 63,
      "hit": false,
      "t": 123412.32546874897,
      "d": 416.6665624999878,
      "v": 57
    },
    {
      "midi": 59,
      "hit": false,
      "t": 123412.32546874897,
      "d": 423.8504687499808,
      "v": 78
    },
    {
      "midi": 54,
      "hit": false,
      "t": 123419.50937499896,
      "d": 402.29875000000175,
      "v": 61
    },
    {
      "midi": 63,
      "hit": false,
      "t": 123943.93453124895,
      "d": 215.51718749999418,
      "v": 61
    },
    {
      "midi": 59,
      "hit": false,
      "t": 123951.11843749894,
      "d": 136.49421874999825,
      "v": 71
    },
    {
      "midi": 54,
      "hit": false,
      "t": 123951.11843749894,
      "d": 208.33328125000116,
      "v": 57
    },
    {
      "midi": 59,
      "hit": false,
      "t": 124288.76203124895,
      "d": 136.49421874999825,
      "v": 78
    },
    {
      "midi": 54,
      "hit": false,
      "t": 124288.76203124895,
      "d": 186.78156249999302,
      "v": 65
    },
    {
      "midi": 63,
      "hit": false,
      "t": 124288.76203124895,
      "d": 186.78156249999302,
      "v": 70
    },
    {
      "midi": 64,
      "hit": false,
      "t": 124791.63546874966,
      "d": 208.33328124997206,
      "v": 83
    },
    {
      "midi": 59,
      "hit": false,
      "t": 124798.81937499966,
      "d": 208.33328124997206,
      "v": 78
    },
    {
      "midi": 56,
      "hit": false,
      "t": 124798.81937499966,
      "d": 222.70109374997264,
      "v": 61
    },
    {
      "midi": 52,
      "hit": false,
      "t": 124806.00328124965,
      "d": 265.8045312499744,
      "v": 74
    },
    {
      "midi": 64,
      "hit": false,
      "t": 124813.18718749893,
      "d": 459.7699999999895,
      "v": 92
    },
    {
      "midi": 59,
      "hit": false,
      "t": 124813.18718749893,
      "d": 545.9768749999785,
      "v": 87
    },
    {
      "midi": 56,
      "hit": false,
      "t": 124820.37109374892,
      "d": 459.7699999999895,
      "v": 74
    },
    {
      "midi": 52,
      "hit": false,
      "t": 124820.37109374892,
      "d": 610.6320312499884,
      "v": 97
    },
    {
      "midi": 66,
      "hit": false,
      "t": 125481.2904687489,
      "d": 603.4481249999808,
      "v": 74
    },
    {
      "midi": 57,
      "hit": false,
      "t": 125488.4743749989,
      "d": 639.3676562499895,
      "v": 53
    },
    {
      "midi": 66,
      "hit": false,
      "t": 125488.47437499963,
      "d": 423.85046874999534,
      "v": 80
    },
    {
      "midi": 62,
      "hit": false,
      "t": 125488.47437499963,
      "d": 474.1378124999901,
      "v": 97
    },
    {
      "midi": 59,
      "hit": false,
      "t": 125495.65828124889,
      "d": 251.43671874998836,
      "v": 61
    },
    {
      "midi": 57,
      "hit": false,
      "t": 125495.65828124962,
      "d": 474.1378124999901,
      "v": 87
    },
    {
      "midi": 50,
      "hit": false,
      "t": 125502.84218749889,
      "d": 775.8618749999878,
      "v": 97
    },
    {
      "midi": 50,
      "hit": false,
      "t": 125510.02609374962,
      "d": 675.2871874999837,
      "v": 74
    },
    {
      "midi": 61,
      "hit": false,
      "t": 126199.68109374889,
      "d": 409.4826562499802,
      "v": 53
    },
    {
      "midi": 57,
      "hit": false,
      "t": 126206.86499999888,
      "d": 524.4251562499849,
      "v": 74
    },
    {
      "midi": 64,
      "hit": false,
      "t": 126206.8649999996,
      "d": 201.1493749999936,
      "v": 97
    },
    {
      "midi": 64,
      "hit": false,
      "t": 126214.04890624888,
      "d": 409.48265624999476,
      "v": 97
    },
    {
      "midi": 61,
      "hit": false,
      "t": 126214.04890624959,
      "d": 244.25281249999534,
      "v": 74
    },
    {
      "midi": 45,
      "hit": false,
      "t": 126214.04890624959,
      "d": 287.3562499999971,
      "v": 92
    },
    {
      "midi": 57,
      "hit": false,
      "t": 126214.04890624959,
      "d": 301.7240624999977,
      "v": 78
    },
    {
      "midi": 45,
      "hit": false,
      "t": 126228.41671874888,
      "d": 718.3906249999854,
      "v": 92
    },
    {
      "midi": 64,
      "hit": false,
      "t": 126882.15218749958,
      "d": 833.3331249999901,
      "v": 78
    },
    {
      "midi": 56,
      "hit": false,
      "t": 126882.15218749958,
      "d": 912.356093749986,
      "v": 65
    },
    {
      "midi": 64,
      "hit": false,
      "t": 126889.33609374888,
      "d": 1020.1146874999831,
      "v": 87
    },
    {
      "midi": 59,
      "hit": false,
      "t": 126889.33609374957,
      "d": 876.4365624999919,
      "v": 74
    },
    {
      "midi": 56,
      "hit": false,
      "t": 126896.51999999887,
      "d": 1020.1146874999831,
      "v": 74
    },
    {
      "midi": 59,
      "hit": false,
      "t": 126896.51999999887,
      "d": 1127.8732812499802,
      "v": 78
    },
    {
      "midi": 40,
      "hit": false,
      "t": 126896.51999999887,
      "d": 1329.0226562499738,
      "v": 67
    },
    {
      "midi": 40,
      "hit": false,
      "t": 126896.51999999957,
      "d": 1056.0342187500064,
      "v": 78
    },
    {
      "midi": 63,
      "hit": false,
      "t": 128261.46218749958,
      "d": 1034.4824999999691,
      "v": 53
    },
    {
      "midi": 59,
      "hit": false,
      "t": 128268.64609374957,
      "d": 1012.9307812499901,
      "v": 74
    },
    {
      "midi": 54,
      "hit": false,
      "t": 128268.64609374957,
      "d": 1020.1146874999831,
      "v": 97
    },
    {
      "midi": 47,
      "hit": false,
      "t": 128275.82999999957,
      "d": 1393.6778124999691,
      "v": 97
    },
    {
      "midi": 47,
      "hit": false,
      "t": 128283.01390624885,
      "d": 1379.3099999999831,
      "v": 97
    },
    {
      "midi": 63,
      "hit": false,
      "t": 128965.48499999885,
      "d": 617.8159374999814,
      "v": 61
    },
    {
      "midi": 54,
      "hit": false,
      "t": 128972.66890624884,
      "d": 603.4481249999953,
      "v": 70
    },
    {
      "midi": 59,
      "hit": false,
      "t": 128972.66890624884,
      "d": 639.3676562499895,
      "v": 83
    },
    {
      "midi": 64,
      "hit": false,
      "t": 129647.95609374956,
      "d": 761.4940624999726,
      "v": 67
    },
    {
      "midi": 40,
      "hit": false,
      "t": 129655.13999999884,
      "d": 1278.7353124999936,
      "v": 74
    },
    {
      "midi": 56,
      "hit": false,
      "t": 129655.13999999955,
      "d": 768.6779687499802,
      "v": 53
    },
    {
      "midi": 59,
      "hit": false,
      "t": 129655.13999999955,
      "d": 775.8618749999732,
      "v": 71
    },
    {
      "midi": 40,
      "hit": false,
      "t": 129662.32390624954,
      "d": 768.6779687499802,
      "v": 71
    },
    {
      "midi": 59,
      "hit": false,
      "t": 130344.79499999883,
      "d": 380.7470312499936,
      "v": 87
    },
    {
      "midi": 56,
      "hit": false,
      "t": 130351.97890624883,
      "d": 387.93093750000116,
      "v": 70
    },
    {
      "midi": 64,
      "hit": false,
      "t": 130351.97890624883,
      "d": 423.85046874999534,
      "v": 78
    },
    {
      "midi": 66,
      "hit": false,
      "t": 131012.89828124882,
      "d": 524.4251562499994,
      "v": 74
    },
    {
      "midi": 66,
      "hit": false,
      "t": 131012.89828124952,
      "d": 459.76999999997497,
      "v": 80
    },
    {
      "midi": 57,
      "hit": false,
      "t": 131020.08218749882,
      "d": 531.6090624999924,
      "v": 78
    },
    {
      "midi": 57,
      "hit": false,
      "t": 131020.08218749952,
      "d": 466.953906249968,
      "v": 83
    },
    {
      "midi": 62,
      "hit": false,
      "t": 131020.08218749952,
      "d": 481.321718749954,
      "v": 97
    },
    {
      "midi": 50,
      "hit": false,
      "t": 131027.26609374881,
      "d": 696.8389062499773,
      "v": 97
    },
    {
      "midi": 50,
      "hit": false,
      "t": 131027.26609374951,
      "d": 466.953906249968,
      "v": 87
    },
    {
      "midi": 61,
      "hit": false,
      "t": 131702.5532812488,
      "d": 423.85046874999534,
      "v": 74
    },
    {
      "midi": 64,
      "hit": false,
      "t": 131709.7371874988,
      "d": 366.379218749993,
      "v": 97
    },
    {
      "midi": 57,
      "hit": false,
      "t": 131709.7371874988,
      "d": 524.425156250014,
      "v": 67
    },
    {
      "midi": 45,
      "hit": false,
      "t": 131716.9210937488,
      "d": 704.022812500014,
      "v": 83
    },
    {
      "midi": 64,
      "hit": false,
      "t": 131724.10499999946,
      "d": 287.35624999998254,
      "v": 92
    },
    {
      "midi": 61,
      "hit": false,
      "t": 131724.10499999946,
      "d": 337.64359374999185,
      "v": 74
    },
    {
      "midi": 57,
      "hit": false,
      "t": 131731.28890624945,
      "d": 431.03437499998836,
      "v": 78
    },
    {
      "midi": 45,
      "hit": false,
      "t": 131731.28890624945,
      "d": 689.6549999999697,
      "v": 87
    },
    {
      "midi": 64,
      "hit": false,
      "t": 132399.39218749883,
      "d": 1020.1146874999686,
      "v": 83
    },
    {
      "midi": 59,
      "hit": false,
      "t": 132399.39218749883,
      "d": 1084.769843749964,
      "v": 74
    },
    {
      "midi": 56,
      "hit": false,
      "t": 132406.57609374882,
      "d": 1163.7928124999744,
      "v": 65
    },
    {
      "midi": 40,
      "hit": false,
      "t": 132406.57609374882,
      "d": 1364.9421874999825,
      "v": 87
    },
    {
      "midi": 59,
      "hit": false,
      "t": 132406.57609374943,
      "d": 977.0112499999814,
      "v": 78
    },
    {
      "midi": 64,
      "hit": false,
      "t": 132406.57609374943,
      "d": 1020.1146874999686,
      "v": 83
    },
    {
      "midi": 56,
      "hit": false,
      "t": 132406.57609374943,
      "d": 1077.585937499971,
      "v": 61
    },
    {
      "midi": 40,
      "hit": false,
      "t": 132413.75999999943,
      "d": 1293.103124999965,
      "v": 87
    },
    {
      "midi": 63,
      "hit": false,
      "t": 133778.70218749938,
      "d": 1910.9190624999756,
      "v": 57
    },
    {
      "midi": 59,
      "hit": false,
      "t": 133785.88609374937,
      "d": 1839.0799999999872,
      "v": 71
    },
    {
      "midi": 54,
      "hit": false,
      "t": 133793.06999999937,
      "d": 1896.5512499999895,
      "v": 97
    },
    {
      "midi": 47,
      "hit": false,
      "t": 133800.2539062488,
      "d": 4051.7231249999313,
      "v": 97
    },
    {
      "midi": 47,
      "hit": false,
      "t": 133800.25390624936,
      "d": 617.8159375000105,
      "v": 97
    },
    {
      "midi": 63,
      "hit": false,
      "t": 134461.1732812488,
      "d": 380.74703124997905,
      "v": 61
    },
    {
      "midi": 54,
      "hit": false,
      "t": 134468.3571874988,
      "d": 373.56312499998603,
      "v": 70
    },
    {
      "midi": 59,
      "hit": false,
      "t": 134468.3571874988,
      "d": 445.4021874999744,
      "v": 83
    },
    {
      "midi": 59,
      "hit": false,
      "t": 134985.59843749876,
      "d": 136.4942187499837,
      "v": 43
    },
    {
      "midi": 54,
      "hit": false,
      "t": 134992.78234374875,
      "d": 100.57468749998952,
      "v": 57
    },
    {
      "midi": 63,
      "hit": false,
      "t": 134999.96624999875,
      "d": 129.3103124999907,
      "v": 41
    },
    {
      "midi": 63,
      "hit": false,
      "t": 135294.50640624875,
      "d": 186.78156249999302,
      "v": 50
    },
    {
      "midi": 59,
      "hit": false,
      "t": 135301.69031249874,
      "d": 165.22984375001397,
      "v": 71
    },
    {
      "midi": 54,
      "hit": false,
      "t": 135301.69031249874,
      "d": 208.33328125000116,
      "v": 61
    },
    {
      "midi": 63,
      "hit": false,
      "t": 135818.93156249874,
      "d": 474.13781250000466,
      "v": 65
    },
    {
      "midi": 54,
      "hit": false,
      "t": 135826.11546874873,
      "d": 510.05734374999884,
      "v": 74
    },
    {
      "midi": 59,
      "hit": false,
      "t": 135826.11546874873,
      "d": 545.976874999993,
      "v": 83
    },
    {
      "midi": 63,
      "hit": false,
      "t": 136501.40265624935,
      "d": 1594.827187500021,
      "v": 57
    },
    {
      "midi": 59,
      "hit": false,
      "t": 136508.58656249873,
      "d": 545.976874999993,
      "v": 78
    },
    {
      "midi": 59,
      "hit": false,
      "t": 136508.58656249935,
      "d": 1558.9076562500268,
      "v": 71
    },
    {
      "midi": 54,
      "hit": false,
      "t": 136515.77046874873,
      "d": 380.74703125000815,
      "v": 70
    },
    {
      "midi": 63,
      "hit": false,
      "t": 136515.77046874873,
      "d": 395.1148437499942,
      "v": 65
    },
    {
      "midi": 47,
      "hit": false,
      "t": 136515.77046874934,
      "d": 969.8273437500175,
      "v": 97
    },
    {
      "midi": 54,
      "hit": false,
      "t": 136515.77046874934,
      "d": 1551.7237500000338,
      "v": 97
    },
    {
      "midi": 63,
      "hit": false,
      "t": 137226.97718749873,
      "d": 445.4021875000035,
      "v": 46
    },
    {
      "midi": 59,
      "hit": false,
      "t": 137226.97718749873,
      "d": 617.8159375000105,
      "v": 58
    },
    {
      "midi": 54,
      "hit": false,
      "t": 137234.16109374873,
      "d": 502.8734375000058,
      "v": 53
    },
    {
      "midi": 47,
      "hit": false,
      "t": 137902.26437499875,
      "d": 265.8045312499744,
      "v": 87
    },
    {
      "midi": 59,
      "hit": false,
      "t": 137902.26437499875,
      "d": 265.8045312499744,
      "v": 87
    },
    {
      "midi": 54,
      "hit": false,
      "t": 137909.44828124874,
      "d": 251.43671874998836,
      "v": 74
    },
    {
      "midi": 63,
      "hit": false,
      "t": 137909.44828124874,
      "d": 294.54015624997555,
      "v": 74
    },
    {
      "midi": 64,
      "hit": false,
      "t": 139303.12609374936,
      "d": 2205.45921874998,
      "v": 87
    },
    {
      "midi": 57,
      "hit": false,
      "t": 139303.12609374936,
      "d": 2241.3787499999744,
      "v": 78
    },
    {
      "midi": 45,
      "hit": false,
      "t": 139310.30999999872,
      "d": 2715.516562499979,
      "v": 92
    },
    {
      "midi": 61,
      "hit": false,
      "t": 139310.30999999936,
      "d": 2241.3787499999744,
      "v": 74
    },
    {
      "midi": 45,
      "hit": false,
      "t": 139317.49390624935,
      "d": 2298.8499999999767,
      "v": 97
    },
    {
      "midi": 61,
      "hit": false,
      "t": 139999.96499999872,
      "d": 366.379218749993,
      "v": 80
    },
    {
      "midi": 57,
      "hit": false,
      "t": 139999.96499999872,
      "d": 380.74703124997905,
      "v": 97
    },
    {
      "midi": 61,
      "hit": false,
      "t": 140488.4706249987,
      "d": 201.14937500000815,
      "v": 70
    },
    {
      "midi": 57,
      "hit": false,
      "t": 140488.4706249987,
      "d": 215.51718749999418,
      "v": 87
    },
    {
      "midi": 57,
      "hit": false,
      "t": 140847.6659374987,
      "d": 222.7010937499872,
      "v": 87
    },
    {
      "midi": 61,
      "hit": false,
      "t": 140854.8498437487,
      "d": 193.96546874998603,
      "v": 70
    },
    {
      "midi": 57,
      "hit": false,
      "t": 141372.0910937487,
      "d": 682.4710937499767,
      "v": 97
    },
    {
      "midi": 61,
      "hit": false,
      "t": 141379.27499999868,
      "d": 646.5515625000116,
      "v": 74
    },
    {
      "midi": 40,
      "hit": false,
      "t": 142040.19437499868,
      "d": 2765.8039062499884,
      "v": 87
    },
    {
      "midi": 64,
      "hit": false,
      "t": 142054.56218749934,
      "d": 2104.8845312499616,
      "v": 78
    },
    {
      "midi": 56,
      "hit": false,
      "t": 142054.56218749934,
      "d": 2234.1948437499523,
      "v": 57
    },
    {
      "midi": 59,
      "hit": false,
      "t": 142061.74609374933,
      "d": 2083.3328124999825,
      "v": 74
    },
    {
      "midi": 40,
      "hit": false,
      "t": 142068.92999999932,
      "d": 2679.5970312499558,
      "v": 78
    },
    {
      "midi": 56,
      "hit": false,
      "t": 142729.84937499868,
      "d": 409.4826562500093,
      "v": 80
    },
    {
      "midi": 59,
      "hit": false,
      "t": 142729.84937499868,
      "d": 416.6665625000023,
      "v": 92
    },
    {
      "midi": 56,
      "hit": false,
      "t": 143268.64234374868,
      "d": 215.51718749999418,
      "v": 80
    },
    {
      "midi": 59,
      "hit": false,
      "t": 143268.64234374868,
      "d": 222.7010937499872,
      "v": 87
    },
    {
      "midi": 56,
      "hit": false,
      "t": 143613.46984374867,
      "d": 265.8045312500035,
      "v": 74
    },
    {
      "midi": 59,
      "hit": false,
      "t": 143620.65374999866,
      "d": 287.35625000001164,
      "v": 83
    },
    {
      "midi": 56,
      "hit": false,
      "t": 144123.52718749866,
      "d": 689.6549999999988,
      "v": 80
    },
    {
      "midi": 59,
      "hit": false,
      "t": 144123.52718749866,
      "d": 689.6549999999988,
      "v": 92
    },
    {
      "midi": 63,
      "hit": false,
      "t": 144798.8143749993,
      "d": 2370.689062499994,
      "v": 57
    },
    {
      "midi": 59,
      "hit": false,
      "t": 144805.99828124928,
      "d": 2392.2407812500023,
      "v": 74
    },
    {
      "midi": 47,
      "hit": false,
      "t": 144813.18218749866,
      "d": 2794.5395312499313,
      "v": 97
    },
    {
      "midi": 54,
      "hit": false,
      "t": 144813.18218749927,
      "d": 2377.8729687500163,
      "v": 97
    },
    {
      "midi": 47,
      "hit": false,
      "t": 144820.36609374927,
      "d": 2787.3556249999965,
      "v": 97
    },
    {
      "midi": 63,
      "hit": false,
      "t": 145510.02109374866,
      "d": 373.56312499998603,
      "v": 61
    },
    {
      "midi": 59,
      "hit": false,
      "t": 145510.02109374866,
      "d": 438.2182812499814,
      "v": 83
    },
    {
      "midi": 54,
      "hit": false,
      "t": 145517.20499999865,
      "d": 380.74703124997905,
      "v": 70
    },
    {
      "midi": 59,
      "hit": false,
      "t": 146012.89453124863,
      "d": 165.22984374998487,
      "v": 47
    },
    {
      "midi": 63,
      "hit": false,
      "t": 146020.07843749863,
      "d": 165.22984374998487,
      "v": 38
    },
    {
      "midi": 54,
      "hit": false,
      "t": 146020.07843749863,
      "d": 172.41374999997788,
      "v": 61
    },
    {
      "midi": 59,
      "hit": false,
      "t": 146364.9059374986,
      "d": 143.67812500000582,
      "v": 78
    },
    {
      "midi": 54,
      "hit": false,
      "t": 146364.9059374986,
      "d": 258.6206250000105,
      "v": 65
    },
    {
      "midi": 63,
      "hit": false,
      "t": 146364.9059374986,
      "d": 272.9884374999965,
      "v": 50
    },
    {
      "midi": 59,
      "hit": false,
      "t": 146896.51499999862,
      "d": 610.6320312499884,
      "v": 78
    },
    {
      "midi": 63,
      "hit": false,
      "t": 146896.51499999862,
      "d": 639.3676562499895,
      "v": 43
    },
    {
      "midi": 54,
      "hit": false,
      "t": 146903.6989062486,
      "d": 632.1837499999965,
      "v": 70
    },
    {
      "midi": 63,
      "hit": false,
      "t": 147557.43437499928,
      "d": 28.73562499997206,
      "v": 27
    },
    {
      "midi": 40,
      "hit": false,
      "t": 147564.6182812486,
      "d": 2729.884374999965,
      "v": 78
    },
    {
      "midi": 64,
      "hit": false,
      "t": 147571.80218749927,
      "d": 2413.7925000000105,
      "v": 64
    },
    {
      "midi": 59,
      "hit": false,
      "t": 147571.80218749927,
      "d": 2449.7120312500047,
      "v": 64
    },
    {
      "midi": 56,
      "hit": false,
      "t": 147578.98609374926,
      "d": 2435.3442187500186,
      "v": 61
    },
    {
      "midi": 40,
      "hit": false,
      "t": 147578.98609374926,
      "d": 2449.7120312500047,
      "v": 87
    },
    {
      "midi": 64,
      "hit": false,
      "t": 148268.6410937486,
      "d": 359.1953125,
      "v": 61
    },
    {
      "midi": 56,
      "hit": false,
      "t": 148268.6410937486,
      "d": 402.2987499999872,
      "v": 70
    },
    {
      "midi": 59,
      "hit": false,
      "t": 148268.6410937486,
      "d": 409.4826562499802,
      "v": 83
    },
    {
      "midi": 59,
      "hit": false,
      "t": 148785.88234374858,
      "d": 229.8850000000093,
      "v": 61
    },
    {
      "midi": 56,
      "hit": false,
      "t": 148793.06624999858,
      "d": 114.94250000000466,
      "v": 70
    },
    {
      "midi": 64,
      "hit": false,
      "t": 148793.06624999858,
      "d": 143.67812500000582,
      "v": 61
    },
    {
      "midi": 56,
      "hit": false,
      "t": 149109.1581249986,
      "d": 258.6206250000105,
      "v": 65
    },
    {
      "midi": 59,
      "hit": false,
      "t": 149116.34203124858,
      "d": 280.1723437500186,
      "v": 53
    },
    {
      "midi": 64,
      "hit": false,
      "t": 149123.52593749858,
      "d": 136.4942187500128,
      "v": 51
    },
    {
      "midi": 56,
      "hit": false,
      "t": 149619.2154687486,
      "d": 610.6320312499884,
      "v": 80
    },
    {
      "midi": 59,
      "hit": false,
      "t": 149619.2154687486,
      "d": 617.8159374999814,
      "v": 83
    },
    {
      "midi": 64,
      "hit": false,
      "t": 149626.39937499858,
      "d": 660.9193749999977,
      "v": 67
    },
    {
      "midi": 64,
      "hit": false,
      "t": 150316.05437499928,
      "d": 2306.033906249999,
      "v": 78
    },
    {
      "midi": 45,
      "hit": false,
      "t": 150323.23828124857,
      "d": 2794.5395312499895,
      "v": 87
    },
    {
      "midi": 57,
      "hit": false,
      "t": 150323.23828124927,
      "d": 2284.48218750002,
      "v": 67
    },
    {
      "midi": 61,
      "hit": false,
      "t": 150323.23828124927,
      "d": 2298.850000000006,
      "v": 70
    },
    {
      "midi": 45,
      "hit": false,
      "t": 150337.60609374926,
      "d": 905.1721875000221,
      "v": 97
    },
    {
      "midi": 64,
      "hit": false,
      "t": 150998.5254687486,
      "d": 387.93093750000116,
      "v": 87
    },
    {
      "midi": 57,
      "hit": false,
      "t": 151005.70937499858,
      "d": 387.93093750000116,
      "v": 67
    },
    {
      "midi": 61,
      "hit": false,
      "t": 151005.70937499858,
      "d": 395.1148437499942,
      "v": 70
    },
    {
      "midi": 61,
      "hit": false,
      "t": 151537.3184374986,
      "d": 158.04593749999185,
      "v": 74
    },
    {
      "midi": 57,
      "hit": false,
      "t": 151537.3184374986,
      "d": 165.22984374998487,
      "v": 71
    },
    {
      "midi": 64,
      "hit": false,
      "t": 151544.50234374858,
      "d": 158.04593749999185,
      "v": 78
    },
    {
      "midi": 57,
      "hit": false,
      "t": 151889.32984374856,
      "d": 193.96546874998603,
      "v": 71
    },
    {
      "midi": 61,
      "hit": false,
      "t": 151896.51374999856,
      "d": 179.59765625,
      "v": 74
    },
    {
      "midi": 64,
      "hit": false,
      "t": 151896.51374999856,
      "d": 186.78156249999302,
      "v": 78
    },
    {
      "midi": 64,
      "hit": false,
      "t": 152385.01937499855,
      "d": 545.976874999993,
      "v": 87
    },
    {
      "midi": 61,
      "hit": false,
      "t": 152392.20328124854,
      "d": 624.9998437500035,
      "v": 74
    },
    {
      "midi": 57,
      "hit": false,
      "t": 152392.20328124854,
      "d": 653.7354687500047,
      "v": 78
    },
    {
      "midi": 64,
      "hit": false,
      "t": 153089.0421874993,
      "d": 1824.712187499972,
      "v": 71
    },
    {
      "midi": 40,
      "hit": false,
      "t": 153096.22609374856,
      "d": 2722.700468749914,
      "v": 87
    },
    {
      "midi": 59,
      "hit": false,
      "t": 153096.22609374928,
      "d": 1745.6892187499907,
      "v": 53
    },
    {
      "midi": 56,
      "hit": false,
      "t": 153103.40999999928,
      "d": 1860.6317187499953,
      "v": 57
    },
    {
      "midi": 40,
      "hit": false,
      "t": 153103.40999999928,
      "d": 2636.4935937499977,
      "v": 83
    },
    {
      "midi": 56,
      "hit": false,
      "t": 153778.69718749856,
      "d": 395.1148437499942,
      "v": 74
    },
    {
      "midi": 64,
      "hit": false,
      "t": 153785.88109374855,
      "d": 352.011406250007,
      "v": 74
    },
    {
      "midi": 59,
      "hit": false,
      "t": 153785.88109374855,
      "d": 387.93093750000116,
      "v": 92
    },
    {
      "midi": 56,
      "hit": false,
      "t": 154324.67406249855,
      "d": 114.94250000000466,
      "v": 74
    },
    {
      "midi": 59,
      "hit": false,
      "t": 154324.67406249855,
      "d": 136.4942187499837,
      "v": 83
    },
    {
      "midi": 64,
      "hit": false,
      "t": 154331.85796874855,
      "d": 122.12640624999767,
      "v": 67
    },
    {
      "midi": 56,
      "hit": false,
      "t": 154655.13374999852,
      "d": 193.96546874998603,
      "v": 74
    },
    {
      "midi": 59,
      "hit": false,
      "t": 154655.13374999852,
      "d": 201.14937499997905,
      "v": 78
    },
    {
      "midi": 64,
      "hit": false,
      "t": 154662.31765624852,
      "d": 172.41375000000698,
      "v": 64
    },
    {
      "midi": 64,
      "hit": false,
      "t": 155136.4554687485,
      "d": 689.6549999999697,
      "v": 83
    },
    {
      "midi": 59,
      "hit": false,
      "t": 155143.63937499849,
      "d": 668.1032812499907,
      "v": 87
    },
    {
      "midi": 56,
      "hit": false,
      "t": 155143.63937499849,
      "d": 675.2871874999837,
      "v": 80
    },
    {
      "midi": 47,
      "hit": false,
      "t": 155833.29437499846,
      "d": 2787.3556249999674,
      "v": 97
    },
    {
      "midi": 63,
      "hit": false,
      "t": 155847.66218749929,
      "d": 1415.2295312499627,
      "v": 57
    },
    {
      "midi": 47,
      "hit": false,
      "t": 155862.02999999927,
      "d": 897.9882812499709,
      "v": 97
    },
    {
      "midi": 54,
      "hit": false,
      "t": 155862.02999999927,
      "d": 1415.2295312499627,
      "v": 97
    },
    {
      "midi": 59,
      "hit": false,
      "t": 155869.21390624926,
      "d": 1314.6548437499732,
      "v": 74
    },
    {
      "midi": 63,
      "hit": false,
      "t": 156530.13328124845,
      "d": 366.379218749993,
      "v": 80
    },
    {
      "midi": 59,
      "hit": false,
      "t": 156537.31718749844,
      "d": 359.1953125,
      "v": 78
    },
    {
      "midi": 66,
      "hit": false,
      "t": 156745.65046874844,
      "d": 122.12640624999767,
      "v": 1
    },
    {
      "midi": 63,
      "hit": false,
      "t": 157061.74234374845,
      "d": 150.86203124996973,
      "v": 70
    },
    {
      "midi": 66,
      "hit": false,
      "t": 157068.92624999845,
      "d": 129.3103124999907,
      "v": 65
    },
    {
      "midi": 59,
      "hit": false,
      "t": 157068.92624999845,
      "d": 143.67812499997672,
      "v": 53
    },
    {
      "midi": 66,
      "hit": false,
      "t": 157399.38593749842,
      "d": 150.86203124999884,
      "v": 70
    },
    {
      "midi": 63,
      "hit": false,
      "t": 157399.38593749842,
      "d": 165.22984374998487,
      "v": 61
    },
    {
      "midi": 59,
      "hit": false,
      "t": 157406.5698437484,
      "d": 158.04593749999185,
      "v": 51
    },
    {
      "midi": 66,
      "hit": false,
      "t": 157902.2593749984,
      "d": 560.3446875000081,
      "v": 74
    },
    {
      "midi": 63,
      "hit": false,
      "t": 157902.2593749984,
      "d": 581.8964062500163,
      "v": 74
    },
    {
      "midi": 59,
      "hit": false,
      "t": 157902.2593749984,
      "d": 603.4481250000244,
      "v": 74
    },
    {
      "midi": 40,
      "hit": false,
      "t": 158584.73046874843,
      "d": 1271.551406249957,
      "v": 87
    },
    {
      "midi": 64,
      "hit": false,
      "t": 158584.73046874924,
      "d": 862.0687499999767,
      "v": 67
    },
    {
      "midi": 56,
      "hit": false,
      "t": 158591.91437499924,
      "d": 912.356093749986,
      "v": 50
    },
    {
      "midi": 59,
      "hit": false,
      "t": 158591.91437499924,
      "d": 933.9078124999942,
      "v": 58
    },
    {
      "midi": 40,
      "hit": false,
      "t": 158599.09828124923,
      "d": 1264.367499999993,
      "v": 74
    },
    {
      "midi": 64,
      "hit": false,
      "t": 159288.7532812484,
      "d": 359.1953125,
      "v": 71
    },
    {
      "midi": 56,
      "hit": false,
      "t": 159295.9371874984,
      "d": 352.011406250007,
      "v": 61
    },
    {
      "midi": 59,
      "hit": false,
      "t": 159295.9371874984,
      "d": 380.74703125000815,
      "v": 74
    },
    {
      "midi": 61,
      "hit": false,
      "t": 159805.9945312484,
      "d": 165.22984374995576,
      "v": 43
    },
    {
      "midi": 57,
      "hit": false,
      "t": 159813.1784374984,
      "d": 143.67812499997672,
      "v": 58
    },
    {
      "midi": 64,
      "hit": false,
      "t": 159813.1784374984,
      "d": 165.22984374995576,
      "v": 67
    },
    {
      "midi": 64,
      "hit": false,
      "t": 159999.95999999924,
      "d": 933.9078124999942,
      "v": 83
    },
    {
      "midi": 61,
      "hit": false,
      "t": 159999.95999999924,
      "d": 977.0112499999814,
      "v": 80
    },
    {
      "midi": 57,
      "hit": false,
      "t": 160007.14390624923,
      "d": 933.9078124999942,
      "v": 74
    },
    {
      "midi": 45,
      "hit": false,
      "t": 160007.14390624923,
      "d": 1228.4479687499988,
      "v": 87
    },
    {
      "midi": 61,
      "hit": false,
      "t": 160172.37374999834,
      "d": 193.96546874998603,
      "v": 74
    },
    {
      "midi": 57,
      "hit": false,
      "t": 160179.55765624833,
      "d": 193.96546874998603,
      "v": 67
    },
    {
      "midi": 64,
      "hit": false,
      "t": 160179.55765624833,
      "d": 201.14937499997905,
      "v": 78
    },
    {
      "midi": 45,
      "hit": false,
      "t": 160380.7070312483,
      "d": 962.6434374999953,
      "v": 47
    },
    {
      "midi": 64,
      "hit": false,
      "t": 160675.24718749832,
      "d": 718.390625,
      "v": 92
    },
    {
      "midi": 61,
      "hit": false,
      "t": 160675.24718749832,
      "d": 747.1262500000012,
      "v": 80
    },
    {
      "midi": 57,
      "hit": false,
      "t": 160682.4310937483,
      "d": 739.9423437500081,
      "v": 83
    },
    {
      "midi": 64,
      "hit": false,
      "t": 161364.90218749922,
      "d": 804.5975000000035,
      "v": 83
    },
    {
      "midi": 40,
      "hit": false,
      "t": 161372.0860937483,
      "d": 1314.6548437499732,
      "v": 83
    },
    {
      "midi": 59,
      "hit": false,
      "t": 161372.0860937492,
      "d": 883.620468750014,
      "v": 61
    },
    {
      "midi": 56,
      "hit": false,
      "t": 161372.0860937492,
      "d": 890.804375000007,
      "v": 57
    },
    {
      "midi": 40,
      "hit": false,
      "t": 161379.2699999992,
      "d": 1278.7353125000081,
      "v": 78
    },
    {
      "midi": 64,
      "hit": false,
      "t": 162054.5571874983,
      "d": 337.64359374999185,
      "v": 78
    },
    {
      "midi": 56,
      "hit": false,
      "t": 162061.7410937483,
      "d": 387.93093750000116,
      "v": 65
    },
    {
      "midi": 59,
      "hit": false,
      "t": 162061.7410937483,
      "d": 395.1148437499942,
      "v": 78
    },
    {
      "midi": 63,
      "hit": false,
      "t": 162571.7984374983,
      "d": 136.4942187499837,
      "v": 50
    },
    {
      "midi": 59,
      "hit": false,
      "t": 162586.1662499983,
      "d": 129.3103124999907,
      "v": 71
    },
    {
      "midi": 47,
      "hit": false,
      "t": 162672.3731249983,
      "d": 1329.0226562499302,
      "v": 53
    },
    {
      "midi": 63,
      "hit": false,
      "t": 162722.6604687492,
      "d": 1034.4824999999837,
      "v": 43
    },
    {
      "midi": 59,
      "hit": false,
      "t": 162737.0282812492,
      "d": 941.0917187499872,
      "v": 67
    },
    {
      "midi": 54,
      "hit": false,
      "t": 162744.2121874992,
      "d": 991.3790624999965,
      "v": 97
    },
    {
      "midi": 47,
      "hit": false,
      "t": 162744.2121874992,
      "d": 1113.5054687499942,
      "v": 92
    },
    {
      "midi": 63,
      "hit": false,
      "t": 162923.80984374828,
      "d": 193.96546874998603,
      "v": 61
    },
    {
      "midi": 59,
      "hit": false,
      "t": 162930.99374999828,
      "d": 201.14937499997905,
      "v": 64
    },
    {
      "midi": 63,
      "hit": false,
      "t": 163433.86718749825,
      "d": 581.8964062499581,
      "v": 74
    },
    {
      "midi": 59,
      "hit": false,
      "t": 163433.86718749825,
      "d": 596.2642187499441,
      "v": 97
    },
    {
      "midi": 61,
      "hit": false,
      "t": 163448.23499999824,
      "d": 14.36781249998603,
      "v": 74
    },
    {
      "midi": 64,
      "hit": false,
      "t": 164116.3382812492,
      "d": 1027.2985937499616,
      "v": 87
    },
    {
      "midi": 40,
      "hit": false,
      "t": 164123.5221874982,
      "d": 1185.3445312500116,
      "v": 78
    },
    {
      "midi": 59,
      "hit": false,
      "t": 164123.52218749918,
      "d": 1012.9307812499756,
      "v": 67
    },
    {
      "midi": 56,
      "hit": false,
      "t": 164130.70609374918,
      "d": 1106.321562499972,
      "v": 70
    },
    {
      "midi": 40,
      "hit": false,
      "t": 164137.88999999917,
      "d": 1185.3445312499825,
      "v": 92
    },
    {
      "midi": 64,
      "hit": false,
      "t": 164813.1771874982,
      "d": 359.1953125,
      "v": 78
    },
    {
      "midi": 56,
      "hit": false,
      "t": 164820.3610937482,
      "d": 359.1953125,
      "v": 65
    },
    {
      "midi": 59,
      "hit": false,
      "t": 164820.3610937482,
      "d": 409.4826562500093,
      "v": 78
    },
    {
      "midi": 61,
      "hit": false,
      "t": 165351.9701562482,
      "d": 150.86203124999884,
      "v": 53
    },
    {
      "midi": 64,
      "hit": false,
      "t": 165351.9701562482,
      "d": 172.41374999997788,
      "v": 67
    },
    {
      "midi": 57,
      "hit": false,
      "t": 165359.1540624982,
      "d": 150.86203124999884,
      "v": 58
    },
    {
      "midi": 64,
      "hit": false,
      "t": 165510.01609374915,
      "d": 1012.9307812499756,
      "v": 71
    },
    {
      "midi": 57,
      "hit": false,
      "t": 165517.19999999914,
      "d": 991.3790624999965,
      "v": 58
    },
    {
      "midi": 61,
      "hit": false,
      "t": 165517.19999999914,
      "d": 1020.1146874999686,
      "v": 65
    },
    {
      "midi": 45,
      "hit": false,
      "t": 165524.38390624913,
      "d": 1415.2295312499627,
      "v": 87
    },
    {
      "midi": 61,
      "hit": false,
      "t": 165689.61374999819,
      "d": 172.41374999997788,
      "v": 61
    },
    {
      "midi": 64,
      "hit": false,
      "t": 165696.79765624818,
      "d": 193.96546874998603,
      "v": 74
    },
    {
      "midi": 57,
      "hit": false,
      "t": 165703.98156249817,
      "d": 179.59765625,
      "v": 56
    },
    {
      "midi": 45,
      "hit": false,
      "t": 166012.88953124816,
      "d": 71.83906249998836,
      "v": 40
    },
    {
      "midi": 64,
      "hit": false,
      "t": 166192.48718749816,
      "d": 718.390625,
      "v": 87
    },
    {
      "midi": 61,
      "hit": false,
      "t": 166192.48718749816,
      "d": 739.9423437500081,
      "v": 97
    },
    {
      "midi": 57,
      "hit": false,
      "t": 166199.67109374815,
      "d": 754.3101562500233,
      "v": 83
    },
    {
      "midi": 40,
      "hit": false,
      "t": 166882.14218749816,
      "d": 1278.7353125000081,
      "v": 83
    },
    {
      "midi": 64,
      "hit": false,
      "t": 166896.5099999991,
      "d": 783.0457812499662,
      "v": 71
    },
    {
      "midi": 56,
      "hit": false,
      "t": 166903.6939062491,
      "d": 840.5170312499686,
      "v": 50
    },
    {
      "midi": 59,
      "hit": false,
      "t": 166910.8778124991,
      "d": 818.9653124999895,
      "v": 71
    },
    {
      "midi": 40,
      "hit": false,
      "t": 166910.8778124991,
      "d": 1343.3904687499744,
      "v": 71
    },
    {
      "midi": 64,
      "hit": false,
      "t": 167571.7971874982,
      "d": 330.45968749999884,
      "v": 78
    },
    {
      "midi": 56,
      "hit": false,
      "t": 167578.98109374818,
      "d": 344.82750000001397,
      "v": 61
    },
    {
      "midi": 59,
      "hit": false,
      "t": 167578.98109374818,
      "d": 387.93093750000116,
      "v": 78
    },
    {
      "midi": 63,
      "hit": false,
      "t": 168117.77406249818,
      "d": 129.3103124999907,
      "v": 41
    },
    {
      "midi": 59,
      "hit": false,
      "t": 168124.95796874817,
      "d": 114.94250000000466,
      "v": 64
    },
    {
      "midi": 47,
      "hit": false,
      "t": 168153.69359374818,
      "d": 1515.8042187499232,
      "v": 49
    },
    {
      "midi": 63,
      "hit": false,
      "t": 168268.63609374905,
      "d": 984.1951562499744,
      "v": 50
    },
    {
      "midi": 59,
      "hit": false,
      "t": 168275.81999999905,
      "d": 955.4595312499732,
      "v": 71
    },
    {
      "midi": 54,
      "hit": false,
      "t": 168283.00390624904,
      "d": 984.1951562499744,
      "v": 97
    },
    {
      "midi": 47,
      "hit": false,
      "t": 168297.37171874903,
      "d": 1343.3904687499744,
      "v": 83
    },
    {
      "midi": 63,
      "hit": false,
      "t": 168462.60156249817,
      "d": 158.04593749996275,
      "v": 70
    },
    {
      "midi": 59,
      "hit": false,
      "t": 168469.78546874816,
      "d": 165.22984374995576,
      "v": 87
    },
    {
      "midi": 61,
      "hit": false,
      "t": 168484.15328124815,
      "d": 7.183906249993015,
      "v": 57
    },
    {
      "midi": 59,
      "hit": false,
      "t": 168965.4749999981,
      "d": 646.5515624999825,
      "v": 97
    },
    {
      "midi": 63,
      "hit": false,
      "t": 168972.6589062481,
      "d": 624.9998437500035,
      "v": 74
    },
    {
      "midi": 61,
      "hit": false,
      "t": 168994.21062499812,
      "d": 7.183906249993015,
      "v": 53
    },
    {
      "midi": 63,
      "hit": false,
      "t": 169633.578281249,
      "d": 35.919531249965075,
      "v": 33
    },
    {
      "midi": 40,
      "hit": false,
      "t": 169640.7621874981,
      "d": 1343.3904687499744,
      "v": 74
    },
    {
      "midi": 59,
      "hit": false,
      "t": 169647.946093749,
      "d": 948.2756249999511,
      "v": 61
    },
    {
      "midi": 56,
      "hit": false,
      "t": 169647.946093749,
      "d": 962.6434374999371,
      "v": 57
    },
    {
      "midi": 64,
      "hit": false,
      "t": 169655.129999999,
      "d": 869.2526562499697,
      "v": 67
    },
    {
      "midi": 40,
      "hit": false,
      "t": 169662.31390624898,
      "d": 1106.321562499972,
      "v": 71
    },
    {
      "midi": 64,
      "hit": false,
      "t": 170316.0493749981,
      "d": 395.1148437499651,
      "v": 71
    },
    {
      "midi": 56,
      "hit": false,
      "t": 170330.4171874981,
      "d": 373.56312499998603,
      "v": 61
    },
    {
      "midi": 59,
      "hit": false,
      "t": 170330.4171874981,
      "d": 567.5285937499721,
      "v": 67
    },
    {
      "midi": 45,
      "hit": false,
      "t": 170991.33656249807,
      "d": 100.57468749998952,
      "v": 47
    },
    {
      "midi": 64,
      "hit": false,
      "t": 171005.70437499895,
      "d": 86.20687499997439,
      "v": 87
    },
    {
      "midi": 61,
      "hit": false,
      "t": 171012.88828124895,
      "d": 71.83906249998836,
      "v": 80
    },
    {
      "midi": 57,
      "hit": false,
      "t": 171012.88828124895,
      "d": 79.02296874998137,
      "v": 87
    },
    {
      "midi": 45,
      "hit": false,
      "t": 171012.88828124895,
      "d": 107.75859374998254,
      "v": 97
    },
    {
      "midi": 64,
      "hit": false,
      "t": 171178.11812499806,
      "d": 114.94249999997555,
      "v": 67
    },
    {
      "midi": 57,
      "hit": false,
      "t": 171185.30203124805,
      "d": 86.20687500000349,
      "v": 64
    },
    {
      "midi": 61,
      "hit": false,
      "t": 171185.30203124805,
      "d": 93.39078124999651,
      "v": 61
    },
    {
      "midi": 64,
      "hit": false,
      "t": 171357.71578124893,
      "d": 833.3331250000047,
      "v": 87
    },
    {
      "midi": 61,
      "hit": false,
      "t": 171357.71578124893,
      "d": 926.7239062500012,
      "v": 74
    },
    {
      "midi": 57,
      "hit": false,
      "t": 171364.89968749892,
      "d": 833.3331250000047,
      "v": 78
    },
    {
      "midi": 45,
      "hit": false,
      "t": 171364.89968749892,
      "d": 1084.769843749993,
      "v": 97
    },
    {
      "midi": 64,
      "hit": false,
      "t": 171695.35937499802,
      "d": 739.942343749979,
      "v": 83
    },
    {
      "midi": 61,
      "hit": false,
      "t": 171695.35937499802,
      "d": 768.6779687499802,
      "v": 74
    },
    {
      "midi": 57,
      "hit": false,
      "t": 171702.543281248,
      "d": 739.942343749979,
      "v": 74
    },
    {
      "midi": 64,
      "hit": false,
      "t": 172363.46265624894,
      "d": 912.356093749986,
      "v": 71
    },
    {
      "midi": 56,
      "hit": false,
      "t": 172370.64656249894,
      "d": 969.8273437499884,
      "v": 53
    },
    {
      "midi": 59,
      "hit": false,
      "t": 172377.83046874893,
      "d": 969.8273437499884,
      "v": 67
    },
    {
      "midi": 40,
      "hit": false,
      "t": 172392.19828124892,
      "d": 1343.3904687500035,
      "v": 83
    },
    {
      "midi": 40,
      "hit": false,
      "t": 172399.382187498,
      "d": 1221.2640624999476,
      "v": 74
    },
    {
      "midi": 56,
      "hit": false,
      "t": 173096.221093748,
      "d": 438.2182812499814,
      "v": 61
    },
    {
      "midi": 64,
      "hit": false,
      "t": 173103.404999998,
      "d": 402.2987499999872,
      "v": 87
    },
    {
      "midi": 59,
      "hit": false,
      "t": 173103.404999998,
      "d": 474.13781249997555,
      "v": 71
    },
    {
      "midi": 63,
      "hit": false,
      "t": 173635.01406249794,
      "d": 136.4942187499837,
      "v": 50
    },
    {
      "midi": 59,
      "hit": false,
      "t": 173642.19796874793,
      "d": 129.3103124999907,
      "v": 61
    },
    {
      "midi": 54,
      "hit": false,
      "t": 173649.38187499793,
      "d": 129.3103124999907,
      "v": 50
    },
    {
      "midi": 63,
      "hit": false,
      "t": 173764.32437499892,
      "d": 1099.1376562500081,
      "v": 46
    },
    {
      "midi": 54,
      "hit": false,
      "t": 173771.5082812489,
      "d": 1056.034218750021,
      "v": 97
    },
    {
      "midi": 59,
      "hit": false,
      "t": 173778.6921874989,
      "d": 962.6434375000244,
      "v": 71
    },
    {
      "midi": 47,
      "hit": false,
      "t": 173778.6921874989,
      "d": 1199.7123437500268,
      "v": 92
    },
    {
      "midi": 63,
      "hit": false,
      "t": 173987.02546874792,
      "d": 179.5976562499709,
      "v": 53
    },
    {
      "midi": 59,
      "hit": false,
      "t": 173994.2093749979,
      "d": 129.3103124999907,
      "v": 74
    },
    {
      "midi": 54,
      "hit": false,
      "t": 173994.2093749979,
      "d": 158.04593749999185,
      "v": 57
    },
    {
      "midi": 63,
      "hit": false,
      "t": 174461.1632812479,
      "d": 639.3676562499895,
      "v": 65
    },
    {
      "midi": 59,
      "hit": false,
      "t": 174475.53109374788,
      "d": 646.5515625000116,
      "v": 74
    },
    {
      "midi": 54,
      "hit": false,
      "t": 174475.53109374788,
      "d": 689.6549999999988,
      "v": 65
    },
    {
      "midi": 64,
      "hit": false,
      "t": 175172.36999999892,
      "d": 977.0112499999814,
      "v": 71
    },
    {
      "midi": 40,
      "hit": false,
      "t": 175179.55390624786,
      "d": 1199.7123437499686,
      "v": 78
    },
    {
      "midi": 56,
      "hit": false,
      "t": 175179.5539062489,
      "d": 1012.9307812499756,
      "v": 61
    },
    {
      "midi": 59,
      "hit": false,
      "t": 175179.5539062489,
      "d": 1041.6664062499767,
      "v": 61
    },
    {
      "midi": 40,
      "hit": false,
      "t": 175186.7378124989,
      "d": 1199.7123437499977,
      "v": 67
    },
    {
      "midi": 64,
      "hit": false,
      "t": 175854.84109374788,
      "d": 337.64359374996275,
      "v": 78
    },
    {
      "midi": 59,
      "hit": false,
      "t": 175862.02499999787,
      "d": 387.93093749997206,
      "v": 71
    },
    {
      "midi": 56,
      "hit": false,
      "t": 175869.20890624786,
      "d": 280.1723437499895,
      "v": 65
    },
    {
      "midi": 64,
      "hit": false,
      "t": 176372.08234374784,
      "d": 158.04593749996275,
      "v": 67
    },
    {
      "midi": 61,
      "hit": false,
      "t": 176386.45015624783,
      "d": 122.12640624999767,
      "v": 41
    },
    {
      "midi": 57,
      "hit": false,
      "t": 176386.45015624783,
      "d": 129.3103124999907,
      "v": 53
    },
    {
      "midi": 64,
      "hit": false,
      "t": 176515.7604687489,
      "d": 1027.2985937499616,
      "v": 67
    },
    {
      "midi": 61,
      "hit": false,
      "t": 176515.7604687489,
      "d": 1041.6664062499476,
      "v": 65
    },
    {
      "midi": 57,
      "hit": false,
      "t": 176522.9443749989,
      "d": 1005.7468749999825,
      "v": 61
    },
    {
      "midi": 45,
      "hit": false,
      "t": 176530.12828124888,
      "d": 1206.8962499999616,
      "v": 97
    },
    {
      "midi": 61,
      "hit": false,
      "t": 176716.9098437478,
      "d": 172.41375000000698,
      "v": 74
    },
    {
      "midi": 64,
      "hit": false,
      "t": 176716.9098437478,
      "d": 215.51718750002328,
      "v": 78
    },
    {
      "midi": 57,
      "hit": false,
      "t": 176724.0937499978,
      "d": 186.78156250002212,
      "v": 61
    },
    {
      "midi": 64,
      "hit": false,
      "t": 177212.5993749978,
      "d": 725.574531249993,
      "v": 92
    },
    {
      "midi": 61,
      "hit": false,
      "t": 177212.5993749978,
      "d": 754.3101562499942,
      "v": 80
    },
    {
      "midi": 57,
      "hit": false,
      "t": 177219.7832812478,
      "d": 754.3101562499942,
      "v": 78
    },
    {
      "midi": 40,
      "hit": false,
      "t": 177909.4382812478,
      "d": 1249.9996874999488,
      "v": 61
    },
    {
      "midi": 64,
      "hit": false,
      "t": 177930.98999999883,
      "d": 1063.2181249999849,
      "v": 83
    },
    {
      "midi": 40,
      "hit": false,
      "t": 177930.98999999883,
      "d": 1185.3445312499825,
      "v": 87
    },
    {
      "midi": 59,
      "hit": false,
      "t": 177938.17390624882,
      "d": 984.1951562500035,
      "v": 61
    },
    {
      "midi": 56,
      "hit": false,
      "t": 177938.17390624882,
      "d": 1127.8732812499802,
      "v": 65
    },
    {
      "midi": 64,
      "hit": false,
      "t": 178613.46109374778,
      "d": 323.2757812499767,
      "v": 74
    },
    {
      "midi": 59,
      "hit": false,
      "t": 178620.64499999778,
      "d": 251.43671874998836,
      "v": 71
    },
    {
      "midi": 56,
      "hit": false,
      "t": 178620.64499999778,
      "d": 416.6665624999732,
      "v": 57
    },
    {
      "midi": 59,
      "hit": false,
      "t": 178929.55296874777,
      "d": 107.75859374998254,
      "v": 38
    },
    {
      "midi": 63,
      "hit": false,
      "t": 179159.43796874775,
      "d": 129.3103124999907,
      "v": 41
    },
    {
      "midi": 59,
      "hit": false,
      "t": 179166.62187499774,
      "d": 143.67812500000582,
      "v": 61
    },
    {
      "midi": 54,
      "hit": false,
      "t": 179173.80578124773,
      "d": 114.94250000000466,
      "v": 53
    },
    {
      "midi": 63,
      "hit": false,
      "t": 179288.74828124882,
      "d": 1113.5054687499942,
      "v": 41
    },
    {
      "midi": 59,
      "hit": false,
      "t": 179295.9321874988,
      "d": 969.8273437499884,
      "v": 64
    },
    {
      "midi": 47,
      "hit": false,
      "t": 179295.9321874988,
      "d": 1185.3445312500116,
      "v": 83
    },
    {
      "midi": 54,
      "hit": false,
      "t": 179303.1160937488,
      "d": 1041.6664062500058,
      "v": 97
    },
    {
      "midi": 59,
      "hit": false,
      "t": 179482.71374999775,
      "d": 122.12640624999767,
      "v": 67
    },
    {
      "midi": 63,
      "hit": false,
      "t": 179482.71374999775,
      "d": 208.33328125000116,
      "v": 53
    },
    {
      "midi": 54,
      "hit": false,
      "t": 179489.89765624775,
      "d": 244.25281249999534,
      "v": 57
    },
    {
      "midi": 47,
      "hit": false,
      "t": 179770.06999999774,
      "d": 43.103437499987194,
      "v": 58
    },
    {
      "midi": 63,
      "hit": false,
      "t": 179978.40328124774,
      "d": 632.1837499999965,
      "v": 61
    },
    {
      "midi": 59,
      "hit": false,
      "t": 179985.58718749773,
      "d": 653.7354687500047,
      "v": 74
    },
    {
      "midi": 54,
      "hit": false,
      "t": 179992.77109374772,
      "d": 646.5515625000116,
      "v": 65
    },
    {
      "midi": 64,
      "hit": false,
      "t": 180668.0582812488,
      "d": 840.5170312499686,
      "v": 74
    },
    {
      "midi": 63,
      "hit": false,
      "t": 180675.2421874988,
      "d": 14.36781249998603,
      "v": 6
    },
    {
      "midi": 59,
      "hit": false,
      "t": 180675.2421874988,
      "d": 897.9882812499709,
      "v": 53
    },
    {
      "midi": 56,
      "hit": false,
      "t": 180682.4260937488,
      "d": 862.0687499999767,
      "v": 61
    },
    {
      "midi": 40,
      "hit": false,
      "t": 180682.4260937488,
      "d": 1070.4020312499779,
      "v": 87
    },
    {
      "midi": 40,
      "hit": false,
      "t": 180696.79390624774,
      "d": 1242.8157812499849,
      "v": 64
    },
    {
      "midi": 64,
      "hit": false,
      "t": 181350.52937499774,
      "d": 395.1148437499942,
      "v": 83
    },
    {
      "midi": 59,
      "hit": false,
      "t": 181357.71328124774,
      "d": 481.3217187499977,
      "v": 74
    },
    {
      "midi": 56,
      "hit": false,
      "t": 181364.89718749773,
      "d": 359.1953125,
      "v": 61
    },
    {
      "midi": 61,
      "hit": false,
      "t": 182018.63265624773,
      "d": 71.83906249998836,
      "v": 50
    },
    {
      "midi": 64,
      "hit": false,
      "t": 182018.63265624773,
      "d": 79.02296874998137,
      "v": 74
    },
    {
      "midi": 57,
      "hit": false,
      "t": 182025.81656249773,
      "d": 64.65515624999534,
      "v": 58
    },
    {
      "midi": 61,
      "hit": false,
      "t": 182025.81656249877,
      "d": 79.02296874998137,
      "v": 80
    },
    {
      "midi": 45,
      "hit": false,
      "t": 182033.00046874772,
      "d": 71.83906249998836,
      "v": 74
    },
    {
      "midi": 64,
      "hit": false,
      "t": 182033.00046874877,
      "d": 64.65515624999534,
      "v": 78
    },
    {
      "midi": 57,
      "hit": false,
      "t": 182033.00046874877,
      "d": 71.83906249998836,
      "v": 83
    },
    {
      "midi": 45,
      "hit": false,
      "t": 182040.18437499876,
      "d": 93.39078124999651,
      "v": 97
    },
    {
      "midi": 64,
      "hit": false,
      "t": 182377.8279687477,
      "d": 1020.1146874999977,
      "v": 97
    },
    {
      "midi": 61,
      "hit": false,
      "t": 182377.8279687477,
      "d": 1056.0342187499919,
      "v": 97
    },
    {
      "midi": 57,
      "hit": false,
      "t": 182385.0118749977,
      "d": 1063.2181249999849,
      "v": 92
    },
    {
      "midi": 61,
      "hit": false,
      "t": 182385.01187499875,
      "d": 768.6779687499802,
      "v": 74
    },
    {
      "midi": 45,
      "hit": false,
      "t": 182392.1957812477,
      "d": 1034.4825000000128,
      "v": 97
    },
    {
      "midi": 64,
      "hit": false,
      "t": 182392.19578124874,
      "d": 754.3101562499942,
      "v": 92
    },
    {
      "midi": 57,
      "hit": false,
      "t": 182392.19578124874,
      "d": 783.0457812499953,
      "v": 83
    },
    {
      "midi": 45,
      "hit": false,
      "t": 182399.37968749873,
      "d": 739.9423437500081,
      "v": 97
    },
    {
      "midi": 64,
      "hit": false,
      "t": 183412.31046874874,
      "d": 969.8273437499593,
      "v": 71
    },
    {
      "midi": 59,
      "hit": false,
      "t": 183419.49437499873,
      "d": 1020.1146874999686,
      "v": 61
    },
    {
      "midi": 56,
      "hit": false,
      "t": 183419.49437499873,
      "d": 1041.6664062499767,
      "v": 46
    },
    {
      "midi": 40,
      "hit": false,
      "t": 183426.6782812477,
      "d": 1142.2410937499662,
      "v": 87
    },
    {
      "midi": 42,
      "hit": false,
      "t": 183433.8621874977,
      "d": 35.91953124999418,
      "v": 57
    },
    {
      "midi": 40,
      "hit": false,
      "t": 183433.86218749871,
      "d": 1142.2410937499953,
      "v": 67
    },
    {
      "midi": 64,
      "hit": false,
      "t": 184116.3332812477,
      "d": 352.0114062499779,
      "v": 83
    },
    {
      "midi": 56,
      "hit": false,
      "t": 184116.3332812477,
      "d": 387.93093749997206,
      "v": 61
    },
    {
      "midi": 59,
      "hit": false,
      "t": 184123.5171874977,
      "d": 222.7010937499872,
      "v": 78
    },
    {
      "midi": 63,
      "hit": false,
      "t": 184669.49406249766,
      "d": 114.94249999997555,
      "v": 29
    },
    {
      "midi": 59,
      "hit": false,
      "t": 184683.86187499764,
      "d": 100.57468749998952,
      "v": 45
    },
    {
      "midi": 63,
      "hit": false,
      "t": 184813.1721874987,
      "d": 977.0112499999814,
      "v": 41
    },
    {
      "midi": 54,
      "hit": false,
      "t": 184820.3560937487,
      "d": 955.4595312500023,
      "v": 97
    },
    {
      "midi": 59,
      "hit": false,
      "t": 184827.5399999987,
      "d": 912.3560937500151,
      "v": 71
    },
    {
      "midi": 47,
      "hit": false,
      "t": 184827.5399999987,
      "d": 1214.0801562499837,
      "v": 92
    },
    {
      "midi": 63,
      "hit": false,
      "t": 185007.13765624762,
      "d": 150.86203124996973,
      "v": 65
    },
    {
      "midi": 59,
      "hit": false,
      "t": 185014.32156249761,
      "d": 172.41374999997788,
      "v": 74
    },
    {
      "midi": 61,
      "hit": false,
      "t": 185028.6893749976,
      "d": 14.36781249998603,
      "v": 61
    },
    {
      "midi": 63,
      "hit": false,
      "t": 185502.8271874976,
      "d": 589.0803125000093,
      "v": 65
    },
    {
      "midi": 59,
      "hit": false,
      "t": 185502.8271874976,
      "d": 617.8159375000105,
      "v": 83
    },
    {
      "midi": 40,
      "hit": false,
      "t": 186178.11437499762,
      "d": 1192.5284375000047,
      "v": 83
    },
    {
      "midi": 64,
      "hit": false,
      "t": 186192.48218749868,
      "d": 1020.1146874999977,
      "v": 71
    },
    {
      "midi": 56,
      "hit": false,
      "t": 186199.66609374867,
      "d": 1070.402031250007,
      "v": 65
    },
    {
      "midi": 59,
      "hit": false,
      "t": 186206.84999999867,
      "d": 1070.402031250007,
      "v": 56
    },
    {
      "midi": 40,
      "hit": false,
      "t": 186206.84999999867,
      "d": 1113.5054687499942,
      "v": 78
    },
    {
      "midi": 64,
      "hit": false,
      "t": 186882.13718749763,
      "d": 359.1953125,
      "v": 83
    },
    {
      "midi": 59,
      "hit": false,
      "t": 186882.13718749763,
      "d": 402.2987499999872,
      "v": 71
    },
    {
      "midi": 56,
      "hit": false,
      "t": 186889.32109374763,
      "d": 366.379218749993,
      "v": 65
    },
    {
      "midi": 61,
      "hit": false,
      "t": 187413.7462499976,
      "d": 107.75859375001164,
      "v": 50
    },
    {
      "midi": 64,
      "hit": false,
      "t": 187413.7462499976,
      "d": 114.94250000000466,
      "v": 58
    },
    {
      "midi": 61,
      "hit": false,
      "t": 187557.42437499866,
      "d": 1020.1146874999686,
      "v": 70
    },
    {
      "midi": 64,
      "hit": false,
      "t": 187564.60828124866,
      "d": 1048.8503124999697,
      "v": 74
    },
    {
      "midi": 45,
      "hit": false,
      "t": 187564.60828124866,
      "d": 1386.4939062499616,
      "v": 78
    },
    {
      "midi": 57,
      "hit": false,
      "t": 187571.79218749865,
      "d": 1070.4020312499779,
      "v": 64
    },
    {
      "midi": 61,
      "hit": false,
      "t": 187758.57374999762,
      "d": 93.39078124999651,
      "v": 80
    },
    {
      "midi": 64,
      "hit": false,
      "t": 187758.57374999762,
      "d": 222.7010937499872,
      "v": 87
    },
    {
      "midi": 45,
      "hit": false,
      "t": 188067.48171874761,
      "d": 50.28734375000931,
      "v": 58
    },
    {
      "midi": 64,
      "hit": false,
      "t": 188232.71156249763,
      "d": 768.6779687499802,
      "v": 92
    },
    {
      "midi": 61,
      "hit": false,
      "t": 188239.89546874762,
      "d": 797.4135937499814,
      "v": 80
    },
    {
      "midi": 40,
      "hit": false,
      "t": 188936.7343749976,
      "d": 1120.689374999958,
      "v": 78
    },
    {
      "midi": 64,
      "hit": false,
      "t": 188943.91828124863,
      "d": 933.9078124999651,
      "v": 67
    },
    {
      "midi": 56,
      "hit": false,
      "t": 188951.10218749862,
      "d": 1041.6664062499767,
      "v": 46
    },
    {
      "midi": 59,
      "hit": false,
      "t": 188958.2860937486,
      "d": 977.0112499999814,
      "v": 67
    },
    {
      "midi": 40,
      "hit": false,
      "t": 188958.2860937486,
      "d": 1228.4479687499697,
      "v": 56
    },
    {
      "midi": 64,
      "hit": false,
      "t": 189626.3893749976,
      "d": 316.0918749999837,
      "v": 71
    },
    {
      "midi": 56,
      "hit": false,
      "t": 189633.5732812476,
      "d": 352.0114062499779,
      "v": 53
    },
    {
      "midi": 59,
      "hit": false,
      "t": 189640.7571874976,
      "d": 359.1953124999709,
      "v": 67
    },
    {
      "midi": 47,
      "hit": false,
      "t": 189999.95249999757,
      "d": 28.735625000001164,
      "v": 45
    },
    {
      "midi": 63,
      "hit": false,
      "t": 190193.91796874758,
      "d": 143.67812499997672,
      "v": 31
    },
    {
      "midi": 59,
      "hit": false,
      "t": 190208.28578124757,
      "d": 129.3103124999907,
      "v": 49
    },
    {
      "midi": 63,
      "hit": false,
      "t": 190359.1478124986,
      "d": 1084.769843749964,
      "v": 41
    },
    {
      "midi": 59,
      "hit": false,
      "t": 190366.33171874858,
      "d": 948.2756249999802,
      "v": 71
    },
    {
      "midi": 54,
      "hit": false,
      "t": 190373.51562499857,
      "d": 1034.4824999999837,
      "v": 97
    },
    {
      "midi": 47,
      "hit": false,
      "t": 190373.51562499857,
      "d": 1120.6893749999872,
      "v": 92
    },
    {
      "midi": 63,
      "hit": false,
      "t": 190545.92937499756,
      "d": 193.96546874998603,
      "v": 61
    },
    {
      "midi": 59,
      "hit": false,
      "t": 190545.92937499756,
      "d": 201.14937499997905,
      "v": 78
    },
    {
      "midi": 47,
      "hit": false,
      "t": 190905.12468749753,
      "d": 50.28734375000931,
      "v": 67
    },
    {
      "midi": 63,
      "hit": false,
      "t": 191027.25109374753,
      "d": 603.4481249999662,
      "v": 70
    },
    {
      "midi": 59,
      "hit": false,
      "t": 191034.43499999752,
      "d": 646.5515624999825,
      "v": 92
    },
    {
      "midi": 61,
      "hit": false,
      "t": 191048.8028124975,
      "d": 7.183906249993015,
      "v": 57
    },
    {
      "midi": 40,
      "hit": false,
      "t": 191695.3543749975,
      "d": 1156.6089062499814,
      "v": 78
    },
    {
      "midi": 63,
      "hit": false,
      "t": 191709.72218749856,
      "d": 21.551718749979045,
      "v": 23
    },
    {
      "midi": 64,
      "hit": false,
      "t": 191716.90609374855,
      "d": 768.6779687499802,
      "v": 74
    },
    {
      "midi": 56,
      "hit": false,
      "t": 191724.08999999854,
      "d": 797.4135937499814,
      "v": 65
    },
    {
      "midi": 59,
      "hit": false,
      "t": 191731.27390624853,
      "d": 811.7814062499965,
      "v": 56
    },
    {
      "midi": 40,
      "hit": false,
      "t": 191731.27390624853,
      "d": 1041.6664062500058,
      "v": 74
    },
    {
      "midi": 64,
      "hit": false,
      "t": 192377.8254687475,
      "d": 409.4826562499802,
      "v": 71
    },
    {
      "midi": 59,
      "hit": false,
      "t": 192392.19328124748,
      "d": 251.43671874998836,
      "v": 71
    },
    {
      "midi": 56,
      "hit": false,
      "t": 192399.37718749748,
      "d": 57.47125000000233,
      "v": 38
    },
    {
      "midi": 56,
      "hit": false,
      "t": 192729.83687499748,
      "d": 71.83906249998836,
      "v": 27
    },
    {
      "midi": 61,
      "hit": false,
      "t": 193074.66437499746,
      "d": 57.47125000000233,
      "v": 97
    },
    {
      "midi": 64,
      "hit": false,
      "t": 193074.66437499746,
      "d": 71.83906249998836,
      "v": 83
    },
    {
      "midi": 61,
      "hit": false,
      "t": 193074.66437499854,
      "d": 71.83906249995925,
      "v": 80
    },
    {
      "midi": 57,
      "hit": false,
      "t": 193081.84828124745,
      "d": 57.47125000000233,
      "v": 67
    },
    {
      "midi": 45,
      "hit": false,
      "t": 193081.84828124745,
      "d": 79.02296874998137,
      "v": 92
    },
    {
      "midi": 57,
      "hit": false,
      "t": 193081.84828124853,
      "d": 71.83906249995925,
      "v": 83
    },
    {
      "midi": 64,
      "hit": false,
      "t": 193081.84828124853,
      "d": 71.83906249995925,
      "v": 74
    },
    {
      "midi": 45,
      "hit": false,
      "t": 193089.03218749852,
      "d": 86.20687499997439,
      "v": 97
    },
    {
      "midi": 61,
      "hit": false,
      "t": 193426.67578124744,
      "d": 1106.321562499972,
      "v": 97
    },
    {
      "midi": 61,
      "hit": false,
      "t": 193426.6757812485,
      "d": 747.1262499999721,
      "v": 97
    },
    {
      "midi": 64,
      "hit": false,
      "t": 193433.85968749743,
      "d": 1056.0342187499919,
      "v": 97
    },
    {
      "midi": 57,
      "hit": false,
      "t": 193433.85968749743,
      "d": 1084.769843749993,
      "v": 92
    },
    {
      "midi": 64,
      "hit": false,
      "t": 193433.85968749848,
      "d": 725.574531249993,
      "v": 87
    },
    {
      "midi": 57,
      "hit": false,
      "t": 193433.85968749848,
      "d": 732.758437499986,
      "v": 83
    },
    {
      "midi": 45,
      "hit": false,
      "t": 193433.85968749848,
      "d": 862.0687499999767,
      "v": 97
    },
    {
      "midi": 63,
      "hit": false,
      "t": 193441.04359374742,
      "d": 21.55171875000815,
      "v": 70
    },
    {
      "midi": 45,
      "hit": false,
      "t": 193441.04359374742,
      "d": 1020.1146874999977,
      "v": 97
    },
    {
      "midi": 64,
      "hit": false,
      "t": 194439.60656249846,
      "d": 897.9882812499709,
      "v": 74
    },
    {
      "midi": 56,
      "hit": false,
      "t": 194446.79046874846,
      "d": 969.8273437499884,
      "v": 53
    },
    {
      "midi": 59,
      "hit": false,
      "t": 194453.97437499845,
      "d": 962.6434374999953,
      "v": 67
    },
    {
      "midi": 40,
      "hit": false,
      "t": 194461.15828124742,
      "d": 1321.8387499999953,
      "v": 92
    },
    {
      "midi": 42,
      "hit": false,
      "t": 194468.34218749742,
      "d": 28.735625000001164,
      "v": 65
    },
    {
      "midi": 40,
      "hit": false,
      "t": 194468.34218749843,
      "d": 1163.7928125000035,
      "v": 74
    },
    {
      "midi": 64,
      "hit": false,
      "t": 195150.81328124742,
      "d": 366.379218749993,
      "v": 83
    },
    {
      "midi": 59,
      "hit": false,
      "t": 195157.9971874974,
      "d": 244.25281249999534,
      "v": 71
    },
    {
      "midi": 56,
      "hit": false,
      "t": 195165.1810937474,
      "d": 402.2987500000163,
      "v": 61
    },
    {
      "midi": 47,
      "hit": false,
      "t": 195739.89359374743,
      "d": 50.28734374998021,
      "v": 61
    },
    {
      "midi": 63,
      "hit": false,
      "t": 195847.65218749843,
      "d": 847.7009374999907,
      "v": 53
    },
    {
      "midi": 59,
      "hit": false,
      "t": 195854.83609374842,
      "d": 905.172187499993,
      "v": 74
    },
    {
      "midi": 47,
      "hit": false,
      "t": 195854.83609374842,
      "d": 1106.3215625000012,
      "v": 97
    },
    {
      "midi": 54,
      "hit": false,
      "t": 195862.01999999842,
      "d": 847.7009374999907,
      "v": 97
    },
    {
      "midi": 59,
      "hit": false,
      "t": 196063.1693749974,
      "d": 122.12640624999767,
      "v": 83
    },
    {
      "midi": 63,
      "hit": false,
      "t": 196070.3532812474,
      "d": 114.94250000000466,
      "v": 70
    },
    {
      "midi": 47,
      "hit": false,
      "t": 196393.6290624974,
      "d": 35.91953124999418,
      "v": 49
    },
    {
      "midi": 63,
      "hit": false,
      "t": 196537.3071874974,
      "d": 660.9193749999977,
      "v": 74
    },
    {
      "midi": 64,
      "hit": false,
      "t": 197191.04265624742,
      "d": 158.04593749996275,
      "v": 87
    },
    {
      "midi": 59,
      "hit": false,
      "t": 197198.2265624974,
      "d": 14.36781249998603,
      "v": 92
    },
    {
      "midi": 40,
      "hit": false,
      "t": 197198.2265624974,
      "d": 143.67812499997672,
      "v": 78
    },
    {
      "midi": 56,
      "hit": false,
      "t": 197198.2265624974,
      "d": 143.67812499997672,
      "v": 70
    },
    {
      "midi": 64,
      "hit": false,
      "t": 197219.77828124844,
      "d": 158.04593749999185,
      "v": 78
    },
    {
      "midi": 59,
      "hit": false,
      "t": 197226.96218749843,
      "d": 143.67812500000582,
      "v": 83
    },
    {
      "midi": 61,
      "hit": false,
      "t": 197234.14609374842,
      "d": 21.55171875000815,
      "v": 35
    },
    {
      "midi": 56,
      "hit": false,
      "t": 197234.14609374842,
      "d": 122.12640625002678,
      "v": 74
    },
    {
      "midi": 40,
      "hit": false,
      "t": 197234.14609374842,
      "d": 150.86203124999884,
      "v": 87
    },
    {
      "midi": 56,
      "hit": false,
      "t": 197557.42187499738,
      "d": 186.7815624999639,
      "v": 74
    },
    {
      "midi": 59,
      "hit": false,
      "t": 197557.42187499738,
      "d": 193.96546874995693,
      "v": 92
    },
    {
      "midi": 64,
      "hit": false,
      "t": 197557.42187499738,
      "d": 208.33328124994296,
      "v": 87
    },
    {
      "midi": 40,
      "hit": false,
      "t": 197571.78968749737,
      "d": 158.04593749999185,
      "v": 87
    },
    {
      "midi": 64,
      "hit": false,
      "t": 197571.7896874984,
      "d": 215.51718749996508,
      "v": 87
    },
    {
      "midi": 56,
      "hit": false,
      "t": 197578.9735937484,
      "d": 193.96546874998603,
      "v": 74
    },
    {
      "midi": 59,
      "hit": false,
      "t": 197578.9735937484,
      "d": 222.7010937499581,
      "v": 87
    },
    {
      "midi": 40,
      "hit": false,
      "t": 197586.1574999984,
      "d": 179.59765625,
      "v": 92
    }
  ]
}