{
  "jsonPath": "Rock/Country Rock/Clay Walker/this-time-love-album-version.json",
  "path": "Rock\\Country Rock\\Clay Walker\\This Time Love (Album Version).mid",
  "name": "This Time Love (Album Version)",
  "difficulty": "Advanced",
  "bpm": 80,
  "notes": [
    {
      "midi": 40,
      "hit": false,
      "t": 120020.83333333334,
      "d": 604.1666666666715,
      "v": 52
    },
    {
      "midi": 55,
      "hit": false,
      "t": 120020.83333333334,
      "d": 760.4166666666715,
      "v": 52
    },
    {
      "midi": 59,
      "hit": false,
      "t": 121000.00000000001,
      "d": 593.75,
      "v": 50
    },
    {
      "midi": 55,
      "hit": false,
      "t": 122000.00000000001,
      "d": 968.75,
      "v": 47
    },
    {
      "midi": 59,
      "hit": false,
      "t": 122000.00000000001,
      "d": 968.75,
      "v": 49
    },
    {
      "midi": 64,
      "hit": false,
      "t": 122500.00000000001,
      "d": 281.25,
      "v": 53
    },
    {
      "midi": 71,
      "hit": false,
      "t": 122500.00000000001,
      "d": 281.25,
      "v": 53
    },
    {
      "midi": 60,
      "hit": false,
      "t": 123000.00000000001,
      "d": 281.25,
      "v": 30
    },
    {
      "midi": 62,
      "hit": false,
      "t": 123000.00000000001,
      "d": 281.25,
      "v": 59
    },
    {
      "midi": 69,
      "hit": false,
      "t": 123000.00000000001,
      "d": 989.583333333343,
      "v": 53
    },
    {
      "midi": 60,
      "hit": false,
      "t": 123333.33333333334,
      "d": 177.08333333334303,
      "v": 49
    },
    {
      "midi": 62,
      "hit": false,
      "t": 123500.00000000001,
      "d": 322.9166666666715,
      "v": 60
    },
    {
      "midi": 71,
      "hit": false,
      "t": 123989.58333333336,
      "d": 906.25,
      "v": 59
    },
    {
      "midi": 64,
      "hit": false,
      "t": 123989.58333333336,
      "d": 937.5,
      "v": 61
    },
    {
      "midi": 45,
      "hit": false,
      "t": 128000.00000000003,
      "d": 3385.416666666657,
      "v": 38
    },
    {
      "midi": 52,
      "hit": false,
      "t": 128520.83333333336,
      "d": 2885.4166666666715,
      "v": 48
    },
    {
      "midi": 74,
      "hit": false,
      "t": 129000.00000000003,
      "d": 625,
      "v": 42
    },
    {
      "midi": 86,
      "hit": false,
      "t": 129020.83333333336,
      "d": 510.4166666666715,
      "v": 62
    },
    {
      "midi": 72,
      "hit": false,
      "t": 130000.00000000003,
      "d": 677.0833333333285,
      "v": 36
    },
    {
      "midi": 84,
      "hit": false,
      "t": 130020.83333333336,
      "d": 531.25,
      "v": 59
    },
    {
      "midi": 71,
      "hit": false,
      "t": 131000.00000000003,
      "d": 614.583333333343,
      "v": 42
    },
    {
      "midi": 83,
      "hit": false,
      "t": 131020.83333333336,
      "d": 802.0833333333576,
      "v": 52
    },
    {
      "midi": 38,
      "hit": false,
      "t": 132000.00000000006,
      "d": 447.91666666668607,
      "v": 54
    },
    {
      "midi": 69,
      "hit": false,
      "t": 132052.0833333334,
      "d": 437.5,
      "v": 54
    },
    {
      "midi": 81,
      "hit": false,
      "t": 132052.0833333334,
      "d": 500,
      "v": 59
    },
    {
      "midi": 57,
      "hit": false,
      "t": 132500.00000000006,
      "d": 437.5,
      "v": 54
    },
    {
      "midi": 66,
      "hit": false,
      "t": 133000.00000000006,
      "d": 2270.833333333343,
      "v": 46
    },
    {
      "midi": 50,
      "hit": false,
      "t": 136500.00000000006,
      "d": 1312.5,
      "v": 72
    },
    {
      "midi": 55,
      "hit": false,
      "t": 137000.00000000006,
      "d": 875,
      "v": 72
    },
    {
      "midi": 59,
      "hit": false,
      "t": 137500.00000000006,
      "d": 427.08333333334303,
      "v": 72
    },
    {
      "midi": 54,
      "hit": false,
      "t": 138000.00000000006,
      "d": 906.25,
      "v": 62
    },
    {
      "midi": 62,
      "hit": false,
      "t": 138052.0833333334,
      "d": 875,
      "v": 76
    },
    {
      "midi": 52,
      "hit": false,
      "t": 139000.00000000006,
      "d": 916.6666666666861,
      "v": 68
    },
    {
      "midi": 60,
      "hit": false,
      "t": 139052.0833333334,
      "d": 864.583333333343,
      "v": 68
    },
    {
      "midi": 50,
      "hit": false,
      "t": 140000.0000000001,
      "d": 3729.166666666686,
      "v": 62
    },
    {
      "midi": 59,
      "hit": false,
      "t": 140052.08333333343,
      "d": 3781.25,
      "v": 66
    },
    {
      "midi": 86,
      "hit": false,
      "t": 177968.7500000001,
      "d": 531.25,
      "v": 73
    },
    {
      "midi": 84,
      "hit": false,
      "t": 178479.16666666674,
      "d": 541.666666666657,
      "v": 73
    },
    {
      "midi": 83,
      "hit": false,
      "t": 178979.16666666674,
      "d": 635.416666666657,
      "v": 75
    },
    {
      "midi": 81,
      "hit": false,
      "t": 179468.75000000006,
      "d": 645.833333333343,
      "v": 75
    },
    {
      "midi": 78,
      "hit": false,
      "t": 179968.75000000006,
      "d": 3260.416666666686,
      "v": 60
    },
    {
      "midi": 64,
      "hit": false,
      "t": 183979.16666666674,
      "d": 1968.75,
      "v": 73
    },
    {
      "midi": 60,
      "hit": false,
      "t": 183989.5833333334,
      "d": 1958.333333333343,
      "v": 66
    },
    {
      "midi": 62,
      "hit": false,
      "t": 185979.16666666674,
      "d": 1812.5,
      "v": 60
    },
    {
      "midi": 59,
      "hit": false,
      "t": 185979.16666666674,
      "d": 1854.166666666657,
      "v": 66
    },
    {
      "midi": 74,
      "hit": false,
      "t": 187489.5833333334,
      "d": 1375,
      "v": 69
    },
    {
      "midi": 55,
      "hit": false,
      "t": 188010.41666666674,
      "d": 843.75,
      "v": 59
    },
    {
      "midi": 60,
      "hit": false,
      "t": 188010.41666666674,
      "d": 843.75,
      "v": 62
    },
    {
      "midi": 69,
      "hit": false,
      "t": 188010.41666666674,
      "d": 895.833333333343,
      "v": 59
    },
    {
      "midi": 62,
      "hit": false,
      "t": 188041.66666666674,
      "d": 843.75,
      "v": 54
    },
    {
      "midi": 55,
      "hit": false,
      "t": 189010.41666666674,
      "d": 843.75,
      "v": 45
    },
    {
      "midi": 60,
      "hit": false,
      "t": 189010.41666666674,
      "d": 843.75,
      "v": 42
    },
    {
      "midi": 69,
      "hit": false,
      "t": 189010.41666666674,
      "d": 895.833333333343,
      "v": 45
    },
    {
      "midi": 62,
      "hit": false,
      "t": 189041.66666666674,
      "d": 843.75,
      "v": 44
    },
    {
      "midi": 55,
      "hit": false,
      "t": 190010.41666666674,
      "d": 843.75,
      "v": 45
    },
    {
      "midi": 59,
      "hit": false,
      "t": 190010.41666666674,
      "d": 843.75,
      "v": 42
    },
    {
      "midi": 67,
      "hit": false,
      "t": 190010.41666666674,
      "d": 895.833333333343,
      "v": 45
    },
    {
      "midi": 62,
      "hit": false,
      "t": 190041.66666666674,
      "d": 843.75,
      "v": 44
    },
    {
      "midi": 72,
      "hit": false,
      "t": 190968.7500000001,
      "d": 437.5,
      "v": 72
    },
    {
      "midi": 71,
      "hit": false,
      "t": 191458.33333333343,
      "d": 437.5,
      "v": 69
    },
    {
      "midi": 69,
      "hit": false,
      "t": 191958.33333333343,
      "d": 1572.916666666657,
      "v": 69
    },
    {
      "midi": 66,
      "hit": false,
      "t": 193489.58333333343,
      "d": 479.16666666665697,
      "v": 69
    },
    {
      "midi": 64,
      "hit": false,
      "t": 194010.41666666674,
      "d": 1958.333333333343,
      "v": 66
    },
    {
      "midi": 66,
      "hit": false,
      "t": 196000.0000000001,
      "d": 1500,
      "v": 66
    },
    {
      "midi": 67,
      "hit": false,
      "t": 197531.2500000001,
      "d": 239.58333333331393,
      "v": 66
    },
    {
      "midi": 66,
      "hit": false,
      "t": 197729.16666666674,
      "d": 281.2499999999709,
      "v": 63
    },
    {
      "midi": 64,
      "hit": false,
      "t": 197968.75000000006,
      "d": 1916.666666666657,
      "v": 69
    },
    {
      "midi": 57,
      "hit": false,
      "t": 200854.16666666672,
      "d": 166.66666666668607,
      "v": 58
    },
    {
      "midi": 58,
      "hit": false,
      "t": 200937.50000000006,
      "d": 114.58333333334303,
      "v": 54
    },
    {
      "midi": 50,
      "hit": false,
      "t": 200989.5833333334,
      "d": 968.75,
      "v": 70
    },
    {
      "midi": 59,
      "hit": false,
      "t": 201020.8333333334,
      "d": 593.75,
      "v": 82
    },
    {
      "midi": 67,
      "hit": false,
      "t": 201510.41666666674,
      "d": 322.91666666665697,
      "v": 79
    },
    {
      "midi": 62,
      "hit": false,
      "t": 201520.8333333334,
      "d": 489.58333333331393,
      "v": 75
    },
    {
      "midi": 55,
      "hit": false,
      "t": 201947.91666666674,
      "d": 93.7499999999709,
      "v": 83
    },
    {
      "midi": 57,
      "hit": false,
      "t": 202000.00000000006,
      "d": 406.25,
      "v": 83
    },
    {
      "midi": 52,
      "hit": false,
      "t": 202000.00000000006,
      "d": 1479.166666666657,
      "v": 70
    },
    {
      "midi": 55,
      "hit": false,
      "t": 202354.16666666672,
      "d": 177.08333333334303,
      "v": 75
    },
    {
      "midi": 57,
      "hit": false,
      "t": 202520.8333333334,
      "d": 520.8333333333139,
      "v": 68
    },
    {
      "midi": 55,
      "hit": false,
      "t": 202968.75000000006,
      "d": 718.75,
      "v": 78
    },
    {
      "midi": 52,
      "hit": false,
      "t": 203500.00000000006,
      "d": 354.16666666665697,
      "v": 67
    },
    {
      "midi": 59,
      "hit": false,
      "t": 203989.58333333337,
      "d": 3812.5,
      "v": 49
    },
    {
      "midi": 50,
      "hit": false,
      "t": 203989.58333333337,
      "d": 3875,
      "v": 69
    },
    {
      "midi": 59,
      "hit": false,
      "t": 233020.83333333337,
      "d": 1125,
      "v": 47
    },
    {
      "midi": 67,
      "hit": false,
      "t": 233052.08333333337,
      "d": 1041.666666666657,
      "v": 57
    },
    {
      "midi": 59,
      "hit": false,
      "t": 234500.00000000003,
      "d": 552.083333333343,
      "v": 48
    },
    {
      "midi": 55,
      "hit": false,
      "t": 235000.00000000003,
      "d": 562.5,
      "v": 64
    },
    {
      "midi": 57,
      "hit": false,
      "t": 235500.00000000003,
      "d": 500,
      "v": 48
    },
    {
      "midi": 59,
      "hit": false,
      "t": 236000.00000000003,
      "d": 2468.75,
      "v": 50
    },
    {
      "midi": 62,
      "hit": false,
      "t": 236020.83333333337,
      "d": 2447.916666666657,
      "v": 48
    },
    {
      "midi": 59,
      "hit": false,
      "t": 248020.83333333337,
      "d": 604.166666666657,
      "v": 52
    },
    {
      "midi": 55,
      "hit": false,
      "t": 248020.83333333337,
      "d": 760.416666666657,
      "v": 52
    },
    {
      "midi": 59,
      "hit": false,
      "t": 249000.00000000003,
      "d": 593.75,
      "v": 50
    },
    {
      "midi": 55,
      "hit": false,
      "t": 250000.00000000003,
      "d": 968.75,
      "v": 47
    },
    {
      "midi": 59,
      "hit": false,
      "t": 250000.00000000003,
      "d": 968.75,
      "v": 49
    },
    {
      "midi": 64,
      "hit": false,
      "t": 250500.00000000003,
      "d": 281.25,
      "v": 53
    },
    {
      "midi": 71,
      "hit": false,
      "t": 250500.00000000003,
      "d": 281.25,
      "v": 53
    },
    {
      "midi": 60,
      "hit": false,
      "t": 251000.00000000003,
      "d": 281.25,
      "v": 20
    },
    {
      "midi": 62,
      "hit": false,
      "t": 251000.00000000003,
      "d": 281.25,
      "v": 59
    },
    {
      "midi": 69,
      "hit": false,
      "t": 251000.00000000003,
      "d": 989.5833333333139,
      "v": 33
    },
    {
      "midi": 60,
      "hit": false,
      "t": 251333.33333333337,
      "d": 177.08333333331393,
      "v": 49
    },
    {
      "midi": 62,
      "hit": false,
      "t": 251500.00000000003,
      "d": 322.91666666665697,
      "v": 60
    },
    {
      "midi": 71,
      "hit": false,
      "t": 251989.58333333334,
      "d": 906.25,
      "v": 59
    },
    {
      "midi": 64,
      "hit": false,
      "t": 251989.58333333334,
      "d": 937.5,
      "v": 59
    },
    {
      "midi": 45,
      "hit": false,
      "t": 256000,
      "d": 3385.416666666686,
      "v": 38
    },
    {
      "midi": 52,
      "hit": false,
      "t": 256520.83333333334,
      "d": 2885.416666666686,
      "v": 48
    },
    {
      "midi": 74,
      "hit": false,
      "t": 257000,
      "d": 625,
      "v": 42
    },
    {
      "midi": 86,
      "hit": false,
      "t": 257020.83333333334,
      "d": 510.41666666665697,
      "v": 62
    },
    {
      "midi": 72,
      "hit": false,
      "t": 258000,
      "d": 677.083333333343,
      "v": 36
    },
    {
      "midi": 84,
      "hit": false,
      "t": 258020.83333333334,
      "d": 531.25,
      "v": 59
    },
    {
      "midi": 71,
      "hit": false,
      "t": 259000,
      "d": 614.5833333333721,
      "v": 42
    },
    {
      "midi": 83,
      "hit": false,
      "t": 259020.83333333334,
      "d": 802.0833333333721,
      "v": 52
    },
    {
      "midi": 38,
      "hit": false,
      "t": 260000.00000000006,
      "d": 447.91666666668607,
      "v": 54
    },
    {
      "midi": 81,
      "hit": false,
      "t": 260000.00000000006,
      "d": 3281.250000000058,
      "v": 59
    },
    {
      "midi": 69,
      "hit": false,
      "t": 260000.00000000006,
      "d": 3364.583333333372,
      "v": 54
    },
    {
      "midi": 57,
      "hit": false,
      "t": 260500.0000000001,
      "d": 437.5,
      "v": 54
    },
    {
      "midi": 66,
      "hit": false,
      "t": 261000.0000000001,
      "d": 2270.833333333343,
      "v": 46
    },
    {
      "midi": 50,
      "hit": false,
      "t": 264500.0000000001,
      "d": 1416.666666666686,
      "v": 72
    },
    {
      "midi": 55,
      "hit": false,
      "t": 265000.0000000001,
      "d": 822.9166666666861,
      "v": 72
    },
    {
      "midi": 59,
      "hit": false,
      "t": 265500.0000000001,
      "d": 427.08333333337214,
      "v": 72
    },
    {
      "midi": 64,
      "hit": false,
      "t": 266000.0000000002,
      "d": 250,
      "v": 48
    },
    {
      "midi": 65,
      "hit": false,
      "t": 266166.66666666686,
      "d": 249.9999999999418,
      "v": 56
    },
    {
      "midi": 66,
      "hit": false,
      "t": 266333.3333333335,
      "d": 250,
      "v": 62
    },
    {
      "midi": 74,
      "hit": false,
      "t": 266489.5833333335,
      "d": 906.2500000000582,
      "v": 76
    },
    {
      "midi": 62,
      "hit": false,
      "t": 267000.0000000002,
      "d": 291.66666666668607,
      "v": 48
    },
    {
      "midi": 63,
      "hit": false,
      "t": 267166.66666666686,
      "d": 270.83333333337214,
      "v": 62
    },
    {
      "midi": 64,
      "hit": false,
      "t": 267333.33333333355,
      "d": 270.83333333331393,
      "v": 68
    },
    {
      "midi": 72,
      "hit": false,
      "t": 267520.83333333355,
      "d": 864.5833333332557,
      "v": 68
    },
    {
      "midi": 62,
      "hit": false,
      "t": 268000.0000000002,
      "d": 3406.249999999942,
      "v": 65
    },
    {
      "midi": 71,
      "hit": false,
      "t": 268020.8333333335,
      "d": 3406.249999999942,
      "v": 66
    },
    {
      "midi": 50,
      "hit": false,
      "t": 271500.0000000001,
      "d": 562.5,
      "v": 65
    },
    {
      "midi": 59,
      "hit": false,
      "t": 271520.83333333343,
      "d": 614.5833333333721,
      "v": 66
    },
    {
      "midi": 52,
      "hit": false,
      "t": 272000.0000000001,
      "d": 364.58333333337214,
      "v": 62
    },
    {
      "midi": 55,
      "hit": false,
      "t": 272000.0000000001,
      "d": 520.8333333333721,
      "v": 80
    },
    {
      "midi": 60,
      "hit": false,
      "t": 272020.83333333343,
      "d": 791.6666666667443,
      "v": 72
    },
    {
      "midi": 52,
      "hit": false,
      "t": 272489.5833333335,
      "d": 843.75,
      "v": 56
    },
    {
      "midi": 55,
      "hit": false,
      "t": 273000.0000000002,
      "d": 364.58333333331393,
      "v": 55
    },
    {
      "midi": 57,
      "hit": false,
      "t": 273479.1666666668,
      "d": 114.58333333331393,
      "v": 52
    },
    {
      "midi": 60,
      "hit": false,
      "t": 273510.4166666668,
      "d": 145.83333333331393,
      "v": 60
    },
    {
      "midi": 67,
      "hit": false,
      "t": 273989.58333333343,
      "d": 708.3333333333139,
      "v": 59
    },
    {
      "midi": 38,
      "hit": false,
      "t": 276010.41666666674,
      "d": 4385.416666666744,
      "v": 59
    },
    {
      "midi": 57,
      "hit": false,
      "t": 276020.83333333343,
      "d": 4135.416666666686,
      "v": 62
    },
    {
      "midi": 62,
      "hit": false,
      "t": 276020.83333333343,
      "d": 4145.833333333372,
      "v": 70
    },
    {
      "midi": 54,
      "hit": false,
      "t": 276052.08333333343,
      "d": 4177.083333333372,
      "v": 62
    },
    {
      "midi": 64,
      "hit": false,
      "t": 281020.8333333335,
      "d": 708.3333333333721,
      "v": 68
    },
    {
      "midi": 60,
      "hit": false,
      "t": 281020.8333333335,
      "d": 718.7500000000582,
      "v": 80
    },
    {
      "midi": 55,
      "hit": false,
      "t": 281031.2500000002,
      "d": 750.0000000000582,
      "v": 59
    },
    {
      "midi": 36,
      "hit": false,
      "t": 281041.66666666686,
      "d": 822.9166666666861,
      "v": 76
    },
    {
      "midi": 62,
      "hit": false,
      "t": 282010.41666666686,
      "d": 489.58333333331393,
      "v": 76
    },
    {
      "midi": 59,
      "hit": false,
      "t": 282010.41666666686,
      "d": 541.6666666666279,
      "v": 80
    },
    {
      "midi": 35,
      "hit": false,
      "t": 282020.83333333355,
      "d": 822.9166666666279,
      "v": 80
    },
    {
      "midi": 57,
      "hit": false,
      "t": 283000.0000000002,
      "d": 458.33333333337214,
      "v": 80
    },
    {
      "midi": 60,
      "hit": false,
      "t": 283010.41666666686,
      "d": 677.0833333333721,
      "v": 76
    },
    {
      "midi": 33,
      "hit": false,
      "t": 283020.83333333355,
      "d": 802.0833333333721,
      "v": 68
    },
    {
      "midi": 57,
      "hit": false,
      "t": 283500.00000000023,
      "d": 354.16666666668607,
      "v": 65
    },
    {
      "midi": 59,
      "hit": false,
      "t": 284000.0000000003,
      "d": 7781.25,
      "v": 76
    },
    {
      "midi": 31,
      "hit": false,
      "t": 284010.416666667,
      "d": 7687.5,
      "v": 62
    },
    {
      "midi": 55,
      "hit": false,
      "t": 284010.416666667,
      "d": 7687.5,
      "v": 68
    },
    {
      "midi": 50,
      "hit": false,
      "t": 284010.416666667,
      "d": 7812.5,
      "v": 62
    }
  ]
}