{
  "jsonPath": "Rock/Country Rock/Clay Walker/woman-thing-album-version.json",
  "path": "Rock\\Country Rock\\Clay Walker\\Woman Thing (Album Version).mid",
  "name": "Woman Thing (Album Version)",
  "difficulty": "Advanced",
  "bpm": 144.00023040036865,
  "notes": [
    {
      "midi": 74,
      "hit": false,
      "t": 2916.662,
      "d": 199.65245833333347,
      "v": 81
    },
    {
      "midi": 76,
      "hit": false,
      "t": 3124.995,
      "d": 199.65245833333347,
      "v": 92
    },
    {
      "midi": 66,
      "hit": false,
      "t": 3333.328,
      "d": 638.0198125000002,
      "v": 88
    },
    {
      "midi": 62,
      "hit": false,
      "t": 3333.328,
      "d": 646.7003541666668,
      "v": 92
    },
    {
      "midi": 69,
      "hit": false,
      "t": 3333.328,
      "d": 716.1446875000001,
      "v": 81
    },
    {
      "midi": 50,
      "hit": false,
      "t": 3333.328,
      "d": 763.887666666667,
      "v": 98
    },
    {
      "midi": 78,
      "hit": false,
      "t": 3333.328,
      "d": 807.290375,
      "v": 111
    },
    {
      "midi": 64,
      "hit": false,
      "t": 4166.66,
      "d": 190.9719166666664,
      "v": 92
    },
    {
      "midi": 69,
      "hit": false,
      "t": 4166.66,
      "d": 212.67327083333294,
      "v": 84
    },
    {
      "midi": 61,
      "hit": false,
      "t": 4166.66,
      "d": 217.01354166666624,
      "v": 94
    },
    {
      "midi": 49,
      "hit": false,
      "t": 4166.66,
      "d": 230.03435416666616,
      "v": 98
    },
    {
      "midi": 76,
      "hit": false,
      "t": 4166.66,
      "d": 407.98545833333264,
      "v": 86
    },
    {
      "midi": 69,
      "hit": false,
      "t": 4583.325999999999,
      "d": 776.9084791666664,
      "v": 46
    },
    {
      "midi": 74,
      "hit": false,
      "t": 4583.325999999999,
      "d": 776.9084791666664,
      "v": 105
    },
    {
      "midi": 67,
      "hit": false,
      "t": 4583.325999999999,
      "d": 789.9292916666664,
      "v": 73
    },
    {
      "midi": 47,
      "hit": false,
      "t": 4583.325999999999,
      "d": 2039.9272916666669,
      "v": 96
    },
    {
      "midi": 59,
      "hit": false,
      "t": 4583.325999999999,
      "d": 2039.9272916666669,
      "v": 47
    },
    {
      "midi": 62,
      "hit": false,
      "t": 4583.325999999999,
      "d": 2039.9272916666669,
      "v": 74
    },
    {
      "midi": 71,
      "hit": false,
      "t": 5416.6579999999985,
      "d": 720.4849583333335,
      "v": 96
    },
    {
      "midi": 69,
      "hit": false,
      "t": 6249.989999999999,
      "d": 1588.5391249999993,
      "v": 94
    },
    {
      "midi": 57,
      "hit": false,
      "t": 6666.655999999999,
      "d": 295.13841666666667,
      "v": 90
    },
    {
      "midi": 61,
      "hit": false,
      "t": 6666.655999999999,
      "d": 746.5265833333333,
      "v": 94
    },
    {
      "midi": 42,
      "hit": false,
      "t": 6666.655999999999,
      "d": 1328.122875,
      "v": 103
    },
    {
      "midi": 57,
      "hit": false,
      "t": 7083.321999999999,
      "d": 360.24247916666627,
      "v": 71
    },
    {
      "midi": 64,
      "hit": false,
      "t": 7499.9879999999985,
      "d": 273.43706250000014,
      "v": 107
    },
    {
      "midi": 61,
      "hit": false,
      "t": 7499.9879999999985,
      "d": 321.1800416666665,
      "v": 96
    },
    {
      "midi": 57,
      "hit": false,
      "t": 7499.9879999999985,
      "d": 325.5203124999998,
      "v": 84
    },
    {
      "midi": 55,
      "hit": false,
      "t": 7916.653999999999,
      "d": 1471.351812500001,
      "v": 94
    },
    {
      "midi": 62,
      "hit": false,
      "t": 7916.653999999999,
      "d": 1562.4975000000013,
      "v": 98
    },
    {
      "midi": 40,
      "hit": false,
      "t": 8333.32,
      "d": 1193.5744791666675,
      "v": 107
    },
    {
      "midi": 62,
      "hit": false,
      "t": 9583.318000000001,
      "d": 156.24975000000086,
      "v": 80
    },
    {
      "midi": 64,
      "hit": false,
      "t": 9791.651000000002,
      "d": 143.22893750000003,
      "v": 105
    },
    {
      "midi": 57,
      "hit": false,
      "t": 9999.984000000002,
      "d": 742.1863125,
      "v": 96
    },
    {
      "midi": 59,
      "hit": false,
      "t": 9999.984000000002,
      "d": 746.5265833333342,
      "v": 90
    },
    {
      "midi": 66,
      "hit": false,
      "t": 9999.984000000002,
      "d": 750.8668541666684,
      "v": 96
    },
    {
      "midi": 62,
      "hit": false,
      "t": 9999.984000000002,
      "d": 789.9292916666691,
      "v": 101
    },
    {
      "midi": 43,
      "hit": false,
      "t": 9999.984000000002,
      "d": 815.9709166666689,
      "v": 105
    },
    {
      "midi": 62,
      "hit": false,
      "t": 10833.316000000004,
      "d": 299.4786875000009,
      "v": 77
    },
    {
      "midi": 59,
      "hit": false,
      "t": 10833.316000000004,
      "d": 308.1592291666675,
      "v": 70
    },
    {
      "midi": 57,
      "hit": false,
      "t": 10833.316000000004,
      "d": 312.4995000000017,
      "v": 72
    },
    {
      "midi": 40,
      "hit": false,
      "t": 10833.316000000004,
      "d": 386.28410416666884,
      "v": 90
    },
    {
      "midi": 59,
      "hit": false,
      "t": 11249.982000000007,
      "d": 1922.7399791666667,
      "v": 98
    },
    {
      "midi": 64,
      "hit": false,
      "t": 11249.982000000007,
      "d": 1922.7399791666667,
      "v": 81
    },
    {
      "midi": 55,
      "hit": false,
      "t": 11249.982000000007,
      "d": 1927.080250000001,
      "v": 101
    },
    {
      "midi": 62,
      "hit": false,
      "t": 11249.982000000007,
      "d": 1935.7607916666675,
      "v": 101
    },
    {
      "midi": 45,
      "hit": false,
      "t": 11249.982000000007,
      "d": 1953.1218750000007,
      "v": 107
    },
    {
      "midi": 26,
      "hit": false,
      "t": 14999.976000000008,
      "d": 3255.203125000002,
      "v": 122
    },
    {
      "midi": 26,
      "hit": false,
      "t": 28333.288000000008,
      "d": 3255.203125,
      "v": 122
    },
    {
      "midi": 38,
      "hit": false,
      "t": 41666.600000000006,
      "d": 3025.168770833334,
      "v": 73
    },
    {
      "midi": 57,
      "hit": false,
      "t": 41666.600000000006,
      "d": 3038.189583333333,
      "v": 90
    },
    {
      "midi": 54,
      "hit": false,
      "t": 41666.600000000006,
      "d": 3055.5506666666697,
      "v": 79
    },
    {
      "midi": 42,
      "hit": false,
      "t": 44999.92800000001,
      "d": 2916.6619999999966,
      "v": 70
    },
    {
      "midi": 64,
      "hit": false,
      "t": 44999.92800000001,
      "d": 2942.7036249999946,
      "v": 96
    },
    {
      "midi": 57,
      "hit": false,
      "t": 44999.92800000001,
      "d": 2968.7452499999927,
      "v": 79
    },
    {
      "midi": 60,
      "hit": false,
      "t": 48333.256,
      "d": 1575.5183124999967,
      "v": 88
    },
    {
      "midi": 64,
      "hit": false,
      "t": 48333.256,
      "d": 1575.5183124999967,
      "v": 103
    },
    {
      "midi": 55,
      "hit": false,
      "t": 48333.256,
      "d": 1879.3372708333336,
      "v": 86
    },
    {
      "midi": 64,
      "hit": false,
      "t": 49999.92,
      "d": 724.8252291666722,
      "v": 96
    },
    {
      "midi": 60,
      "hit": false,
      "t": 49999.92,
      "d": 750.8668541666702,
      "v": 88
    },
    {
      "midi": 55,
      "hit": false,
      "t": 50416.586,
      "d": 429.68681249999645,
      "v": 84
    },
    {
      "midi": 62,
      "hit": false,
      "t": 50833.252,
      "d": 286.45787500000006,
      "v": 96
    },
    {
      "midi": 66,
      "hit": false,
      "t": 50833.252,
      "d": 724.8252291666649,
      "v": 86
    },
    {
      "midi": 57,
      "hit": false,
      "t": 50833.252,
      "d": 768.2279374999998,
      "v": 84
    },
    {
      "midi": 62,
      "hit": false,
      "t": 51249.918,
      "d": 303.8189583333369,
      "v": 90
    },
    {
      "midi": 59,
      "hit": false,
      "t": 54999.912,
      "d": 1438.365754166669,
      "v": 59
    },
    {
      "midi": 64,
      "hit": false,
      "t": 54999.912,
      "d": 1590.2752333333337,
      "v": 79
    },
    {
      "midi": 62,
      "hit": false,
      "t": 54999.912,
      "d": 1592.8793958333335,
      "v": 72
    },
    {
      "midi": 40,
      "hit": false,
      "t": 54999.912,
      "d": 1610.2404791666704,
      "v": 79
    },
    {
      "midi": 62,
      "hit": false,
      "t": 56666.576,
      "d": 737.846041666664,
      "v": 90
    },
    {
      "midi": 45,
      "hit": false,
      "t": 56666.576,
      "d": 755.2071250000008,
      "v": 98
    },
    {
      "midi": 55,
      "hit": false,
      "t": 56666.576,
      "d": 755.2071250000008,
      "v": 94
    },
    {
      "midi": 64,
      "hit": false,
      "t": 56666.576,
      "d": 1597.2196666666714,
      "v": 94
    },
    {
      "midi": 61,
      "hit": false,
      "t": 57499.908,
      "d": 716.1446874999965,
      "v": 105
    },
    {
      "midi": 57,
      "hit": false,
      "t": 57499.908,
      "d": 733.5057708333334,
      "v": 101
    },
    {
      "midi": 43,
      "hit": false,
      "t": 57499.908,
      "d": 776.9084791666683,
      "v": 103
    },
    {
      "midi": 61,
      "hit": false,
      "t": 58333.240000000005,
      "d": 776.9084791666683,
      "v": 88
    },
    {
      "midi": 64,
      "hit": false,
      "t": 58333.240000000005,
      "d": 781.2487499999988,
      "v": 103
    },
    {
      "midi": 58,
      "hit": false,
      "t": 58333.240000000005,
      "d": 794.2695624999978,
      "v": 88
    },
    {
      "midi": 42,
      "hit": false,
      "t": 58333.240000000005,
      "d": 1011.283104166665,
      "v": 96
    },
    {
      "midi": 58,
      "hit": false,
      "t": 59166.572,
      "d": 620.6587291666729,
      "v": 72
    },
    {
      "midi": 64,
      "hit": false,
      "t": 59166.572,
      "d": 694.4433333333363,
      "v": 84
    },
    {
      "midi": 61,
      "hit": false,
      "t": 59166.572,
      "d": 711.8044166666732,
      "v": 84
    },
    {
      "midi": 42,
      "hit": false,
      "t": 59583.238000000005,
      "d": 407.9854583333363,
      "v": 98
    },
    {
      "midi": 66,
      "hit": false,
      "t": 59999.90400000001,
      "d": 685.7627916666679,
      "v": 88
    },
    {
      "midi": 59,
      "hit": false,
      "t": 59999.90400000001,
      "d": 720.4849583333344,
      "v": 79
    },
    {
      "midi": 62,
      "hit": false,
      "t": 59999.90400000001,
      "d": 724.8252291666649,
      "v": 75
    },
    {
      "midi": 47,
      "hit": false,
      "t": 59999.90400000001,
      "d": 776.9084791666683,
      "v": 101
    },
    {
      "midi": 66,
      "hit": false,
      "t": 60833.23600000001,
      "d": 672.7419791666689,
      "v": 90
    },
    {
      "midi": 57,
      "hit": false,
      "t": 60833.23600000001,
      "d": 681.4225208333373,
      "v": 78
    },
    {
      "midi": 62,
      "hit": false,
      "t": 60833.23600000001,
      "d": 681.4225208333373,
      "v": 88
    },
    {
      "midi": 45,
      "hit": false,
      "t": 60833.23600000001,
      "d": 703.1238750000048,
      "v": 107
    },
    {
      "midi": 57,
      "hit": false,
      "t": 61666.568000000014,
      "d": 711.8044166666659,
      "v": 45
    },
    {
      "midi": 62,
      "hit": false,
      "t": 61666.568000000014,
      "d": 733.5057708333334,
      "v": 88
    },
    {
      "midi": 59,
      "hit": false,
      "t": 61666.568000000014,
      "d": 737.846041666664,
      "v": 75
    },
    {
      "midi": 43,
      "hit": false,
      "t": 61666.568000000014,
      "d": 1037.324729166663,
      "v": 71
    },
    {
      "midi": 62,
      "hit": false,
      "t": 62499.90000000001,
      "d": 542.5338541666715,
      "v": 86
    },
    {
      "midi": 59,
      "hit": false,
      "t": 62499.90000000001,
      "d": 546.8741250000021,
      "v": 62
    },
    {
      "midi": 57,
      "hit": false,
      "t": 62499.90000000001,
      "d": 564.235208333339,
      "v": 81
    },
    {
      "midi": 67,
      "hit": false,
      "t": 62499.90000000001,
      "d": 642.3600833333403,
      "v": 81
    },
    {
      "midi": 43,
      "hit": false,
      "t": 62916.56600000001,
      "d": 247.39543750000303,
      "v": 70
    },
    {
      "midi": 64,
      "hit": false,
      "t": 63333.23200000002,
      "d": 1354.164499999999,
      "v": 73
    },
    {
      "midi": 67,
      "hit": false,
      "t": 63333.23200000002,
      "d": 1367.185312499998,
      "v": 90
    },
    {
      "midi": 62,
      "hit": false,
      "t": 63333.23200000002,
      "d": 1371.5255833333285,
      "v": 84
    },
    {
      "midi": 45,
      "hit": false,
      "t": 63333.23200000002,
      "d": 1375.8658541666591,
      "v": 88
    },
    {
      "midi": 59,
      "hit": false,
      "t": 63333.23200000002,
      "d": 1375.8658541666591,
      "v": 61
    },
    {
      "midi": 62,
      "hit": false,
      "t": 64999.89600000001,
      "d": 499.13114583333663,
      "v": 96
    },
    {
      "midi": 66,
      "hit": false,
      "t": 64999.89600000001,
      "d": 546.8741250000021,
      "v": 105
    },
    {
      "midi": 69,
      "hit": false,
      "t": 64999.89600000001,
      "d": 646.7003541666636,
      "v": 88
    },
    {
      "midi": 69,
      "hit": false,
      "t": 65833.228,
      "d": 95.48595833333093,
      "v": 88
    },
    {
      "midi": 64,
      "hit": false,
      "t": 65833.228,
      "d": 108.50677083333721,
      "v": 86
    },
    {
      "midi": 61,
      "hit": false,
      "t": 65833.228,
      "d": 125.86785416667408,
      "v": 84
    },
    {
      "midi": 67,
      "hit": false,
      "t": 66249.89400000001,
      "d": 651.0406249999942,
      "v": 88
    },
    {
      "midi": 69,
      "hit": false,
      "t": 66249.89400000001,
      "d": 668.401708333331,
      "v": 90
    },
    {
      "midi": 62,
      "hit": false,
      "t": 66249.89400000001,
      "d": 711.8044166666659,
      "v": 86
    },
    {
      "midi": 55,
      "hit": false,
      "t": 67083.22600000001,
      "d": 729.1655000000028,
      "v": 72
    },
    {
      "midi": 62,
      "hit": false,
      "t": 67083.22600000001,
      "d": 1011.2831041666795,
      "v": 72
    },
    {
      "midi": 64,
      "hit": false,
      "t": 67083.22600000001,
      "d": 1024.3039166666858,
      "v": 84
    },
    {
      "midi": 59,
      "hit": false,
      "t": 67083.22600000001,
      "d": 1028.6441875000164,
      "v": 71
    },
    {
      "midi": 43,
      "hit": false,
      "t": 67083.22600000001,
      "d": 1080.7274375000125,
      "v": 96
    },
    {
      "midi": 55,
      "hit": false,
      "t": 67916.55800000002,
      "d": 390.6243749999994,
      "v": 88
    },
    {
      "midi": 57,
      "hit": false,
      "t": 68333.22400000002,
      "d": 772.5682083333377,
      "v": 113
    },
    {
      "midi": 38,
      "hit": false,
      "t": 68333.22400000002,
      "d": 1957.4621458333422,
      "v": 111
    },
    {
      "midi": 62,
      "hit": false,
      "t": 68333.22400000002,
      "d": 2395.829500000007,
      "v": 107
    },
    {
      "midi": 26,
      "hit": false,
      "t": 68333.22400000002,
      "d": 2686.627645833345,
      "v": 109
    },
    {
      "midi": 66,
      "hit": false,
      "t": 69166.55600000003,
      "d": 1514.7545208333322,
      "v": 72
    },
    {
      "midi": 57,
      "hit": false,
      "t": 69166.55600000003,
      "d": 1519.0947916666628,
      "v": 78
    },
    {
      "midi": 38,
      "hit": false,
      "t": 70416.55400000002,
      "d": 551.2143958333472,
      "v": 86
    },
    {
      "midi": 62,
      "hit": false,
      "t": 70833.22000000003,
      "d": 672.7419791666616,
      "v": 81
    },
    {
      "midi": 66,
      "hit": false,
      "t": 70833.22000000003,
      "d": 724.8252291666577,
      "v": 94
    },
    {
      "midi": 57,
      "hit": false,
      "t": 70833.22000000003,
      "d": 750.8668541666557,
      "v": 96
    },
    {
      "midi": 26,
      "hit": false,
      "t": 71249.88600000003,
      "d": 355.9022083333257,
      "v": 95
    },
    {
      "midi": 38,
      "hit": false,
      "t": 71249.88600000003,
      "d": 412.3257291666523,
      "v": 96
    },
    {
      "midi": 57,
      "hit": false,
      "t": 71666.55200000001,
      "d": 1566.8377708333282,
      "v": 103
    },
    {
      "midi": 61,
      "hit": false,
      "t": 71666.55200000001,
      "d": 1566.8377708333282,
      "v": 109
    },
    {
      "midi": 30,
      "hit": false,
      "t": 71666.55200000001,
      "d": 2690.9679166666465,
      "v": 111
    },
    {
      "midi": 57,
      "hit": false,
      "t": 73333.216,
      "d": 370.65912916667,
      "v": 68
    },
    {
      "midi": 64,
      "hit": false,
      "t": 73333.216,
      "d": 742.1863124999945,
      "v": 75
    },
    {
      "midi": 57,
      "hit": false,
      "t": 73749.882,
      "d": 340.2772333333269,
      "v": 77
    },
    {
      "midi": 61,
      "hit": false,
      "t": 74166.548,
      "d": 737.846041666664,
      "v": 101
    },
    {
      "midi": 57,
      "hit": false,
      "t": 74166.548,
      "d": 807.2903749999969,
      "v": 103
    },
    {
      "midi": 30,
      "hit": false,
      "t": 74583.21399999999,
      "d": 364.5827500000014,
      "v": 96
    },
    {
      "midi": 55,
      "hit": false,
      "t": 74999.87999999999,
      "d": 2261.281104166672,
      "v": 107
    },
    {
      "midi": 28,
      "hit": false,
      "t": 74999.87999999999,
      "d": 2682.287375,
      "v": 113
    },
    {
      "midi": 62,
      "hit": false,
      "t": 74999.87999999999,
      "d": 3268.2239374999917,
      "v": 107
    },
    {
      "midi": 59,
      "hit": false,
      "t": 77083.20999999999,
      "d": 1210.935562499988,
      "v": 81
    },
    {
      "midi": 55,
      "hit": false,
      "t": 77499.87599999999,
      "d": 759.5473958333314,
      "v": 94
    },
    {
      "midi": 28,
      "hit": false,
      "t": 77916.54199999999,
      "d": 360.24247916665627,
      "v": 105
    },
    {
      "midi": 54,
      "hit": false,
      "t": 78333.20799999998,
      "d": 633.6795416666573,
      "v": 96
    },
    {
      "midi": 59,
      "hit": false,
      "t": 78333.20799999998,
      "d": 846.3528125000012,
      "v": 98
    },
    {
      "midi": 30,
      "hit": false,
      "t": 78333.20799999998,
      "d": 1532.115604166669,
      "v": 101
    },
    {
      "midi": 42,
      "hit": false,
      "t": 78749.87399999998,
      "d": 1141.4912291666697,
      "v": 101
    },
    {
      "midi": 54,
      "hit": false,
      "t": 79166.53999999998,
      "d": 733.5057708333334,
      "v": 105
    },
    {
      "midi": 59,
      "hit": false,
      "t": 79583.20599999999,
      "d": 321.18004166665196,
      "v": 90
    },
    {
      "midi": 30,
      "hit": false,
      "t": 79999.87199999997,
      "d": 698.7836041666596,
      "v": 107
    },
    {
      "midi": 42,
      "hit": false,
      "t": 79999.87199999997,
      "d": 824.6514583333192,
      "v": 103
    },
    {
      "midi": 54,
      "hit": false,
      "t": 79999.87199999997,
      "d": 1106.7690624999814,
      "v": 105
    },
    {
      "midi": 58,
      "hit": false,
      "t": 79999.87199999997,
      "d": 1597.2196666666423,
      "v": 107
    },
    {
      "midi": 30,
      "hit": false,
      "t": 80833.20399999995,
      "d": 737.846041666664,
      "v": 98
    },
    {
      "midi": 42,
      "hit": false,
      "t": 81041.53699999995,
      "d": 572.9157500000001,
      "v": 105
    },
    {
      "midi": 54,
      "hit": false,
      "t": 81249.86999999995,
      "d": 338.5411250000034,
      "v": 88
    },
    {
      "midi": 57,
      "hit": false,
      "t": 81666.53599999995,
      "d": 772.5682083333377,
      "v": 113
    },
    {
      "midi": 38,
      "hit": false,
      "t": 81666.53599999995,
      "d": 1957.4621458333422,
      "v": 111
    },
    {
      "midi": 62,
      "hit": false,
      "t": 81666.53599999995,
      "d": 2395.829500000007,
      "v": 107
    },
    {
      "midi": 26,
      "hit": false,
      "t": 81666.53599999995,
      "d": 2686.627645833345,
      "v": 109
    },
    {
      "midi": 62,
      "hit": false,
      "t": 81666.536,
      "d": 1243.0535666666692,
      "v": 1
    },
    {
      "midi": 66,
      "hit": false,
      "t": 82499.86799999996,
      "d": 1514.7545208333322,
      "v": 85
    },
    {
      "midi": 57,
      "hit": false,
      "t": 82499.86799999996,
      "d": 1519.0947916666628,
      "v": 78
    },
    {
      "midi": 57,
      "hit": false,
      "t": 82916.534,
      "d": 201.38856666666106,
      "v": 1
    },
    {
      "midi": 62,
      "hit": false,
      "t": 83124.867,
      "d": 409.7215666666598,
      "v": 1
    },
    {
      "midi": 57,
      "hit": false,
      "t": 83541.533,
      "d": 201.38856666666106,
      "v": 1
    },
    {
      "midi": 38,
      "hit": false,
      "t": 83749.86599999995,
      "d": 551.2143958333472,
      "v": 85
    },
    {
      "midi": 62,
      "hit": false,
      "t": 83749.866,
      "d": 409.7215666666598,
      "v": 1
    },
    {
      "midi": 62,
      "hit": false,
      "t": 84166.53199999996,
      "d": 672.7419791666616,
      "v": 81
    },
    {
      "midi": 66,
      "hit": false,
      "t": 84166.53199999996,
      "d": 707.4641458333354,
      "v": 94
    },
    {
      "midi": 57,
      "hit": false,
      "t": 84166.53199999996,
      "d": 716.1446874999965,
      "v": 96
    },
    {
      "midi": 26,
      "hit": false,
      "t": 84583.19799999996,
      "d": 355.9022083333257,
      "v": 88
    },
    {
      "midi": 38,
      "hit": false,
      "t": 84583.19799999996,
      "d": 412.3257291666523,
      "v": 96
    },
    {
      "midi": 57,
      "hit": false,
      "t": 84999.86399999994,
      "d": 1566.8377708333282,
      "v": 103
    },
    {
      "midi": 61,
      "hit": false,
      "t": 84999.86399999994,
      "d": 1566.8377708333282,
      "v": 109
    },
    {
      "midi": 30,
      "hit": false,
      "t": 84999.86399999994,
      "d": 2690.967916666661,
      "v": 111
    },
    {
      "midi": 61,
      "hit": false,
      "t": 84999.86399999999,
      "d": 1243.0535666666692,
      "v": 1
    },
    {
      "midi": 64,
      "hit": false,
      "t": 86249.862,
      "d": 296.87452500000654,
      "v": 1
    },
    {
      "midi": 61,
      "hit": false,
      "t": 86562.3615,
      "d": 902.7763333333278,
      "v": 1
    },
    {
      "midi": 57,
      "hit": false,
      "t": 86666.52799999993,
      "d": 381.94383333333826,
      "v": 68
    },
    {
      "midi": 64,
      "hit": false,
      "t": 86666.52799999993,
      "d": 742.1863125000091,
      "v": 75
    },
    {
      "midi": 57,
      "hit": false,
      "t": 87083.19399999994,
      "d": 309.8953374999983,
      "v": 85
    },
    {
      "midi": 61,
      "hit": false,
      "t": 87499.85999999994,
      "d": 737.846041666664,
      "v": 101
    },
    {
      "midi": 57,
      "hit": false,
      "t": 87499.85999999994,
      "d": 755.2071250000008,
      "v": 103
    },
    {
      "midi": 30,
      "hit": false,
      "t": 87916.52599999994,
      "d": 364.5827500000014,
      "v": 96
    },
    {
      "midi": 55,
      "hit": false,
      "t": 88333.19199999994,
      "d": 2261.281104166672,
      "v": 107
    },
    {
      "midi": 28,
      "hit": false,
      "t": 88333.19199999994,
      "d": 2682.287375,
      "v": 113
    },
    {
      "midi": 62,
      "hit": false,
      "t": 88333.19199999994,
      "d": 3268.2239374999917,
      "v": 107
    },
    {
      "midi": 59,
      "hit": false,
      "t": 90416.52199999994,
      "d": 1210.935562499988,
      "v": 81
    },
    {
      "midi": 55,
      "hit": false,
      "t": 90833.18799999994,
      "d": 759.5473958333314,
      "v": 94
    },
    {
      "midi": 28,
      "hit": false,
      "t": 91249.85399999993,
      "d": 360.24247916665627,
      "v": 105
    },
    {
      "midi": 54,
      "hit": false,
      "t": 91666.51999999993,
      "d": 633.6795416666573,
      "v": 96
    },
    {
      "midi": 59,
      "hit": false,
      "t": 91666.51999999993,
      "d": 846.3528125000012,
      "v": 98
    },
    {
      "midi": 30,
      "hit": false,
      "t": 91666.51999999993,
      "d": 1532.115604166669,
      "v": 101
    },
    {
      "midi": 42,
      "hit": false,
      "t": 92083.18599999993,
      "d": 1141.4912291666697,
      "v": 101
    },
    {
      "midi": 54,
      "hit": false,
      "t": 92499.85199999993,
      "d": 733.5057708333334,
      "v": 105
    },
    {
      "midi": 59,
      "hit": false,
      "t": 92916.51799999994,
      "d": 321.18004166665196,
      "v": 90
    },
    {
      "midi": 30,
      "hit": false,
      "t": 93333.18399999992,
      "d": 698.7836041666596,
      "v": 107
    },
    {
      "midi": 42,
      "hit": false,
      "t": 93333.18399999992,
      "d": 824.6514583333192,
      "v": 103
    },
    {
      "midi": 54,
      "hit": false,
      "t": 93333.18399999992,
      "d": 1106.7690624999814,
      "v": 105
    },
    {
      "midi": 58,
      "hit": false,
      "t": 93333.18399999992,
      "d": 1597.2196666666423,
      "v": 107
    },
    {
      "midi": 30,
      "hit": false,
      "t": 94166.5159999999,
      "d": 737.846041666664,
      "v": 98
    },
    {
      "midi": 42,
      "hit": false,
      "t": 94374.8489999999,
      "d": 572.9157500000001,
      "v": 105
    },
    {
      "midi": 54,
      "hit": false,
      "t": 94583.1819999999,
      "d": 338.5411250000034,
      "v": 88
    },
    {
      "midi": 54,
      "hit": false,
      "t": 94999.8479999999,
      "d": 2638.884666666665,
      "v": 79
    },
    {
      "midi": 38,
      "hit": false,
      "t": 94999.8479999999,
      "d": 2712.6692708333285,
      "v": 73
    },
    {
      "midi": 57,
      "hit": false,
      "t": 94999.8479999999,
      "d": 2725.6900833333348,
      "v": 90
    },
    {
      "midi": 57,
      "hit": false,
      "t": 94999.848,
      "d": 2070.3091874999955,
      "v": 1
    },
    {
      "midi": 62,
      "hit": false,
      "t": 94999.848,
      "d": 2070.3091874999955,
      "v": 1
    },
    {
      "midi": 66,
      "hit": false,
      "t": 94999.848,
      "d": 2070.3091874999955,
      "v": 1
    },
    {
      "midi": 66,
      "hit": false,
      "t": 97083.178,
      "d": 807.2903749999969,
      "v": 1
    },
    {
      "midi": 62,
      "hit": false,
      "t": 97083.178,
      "d": 815.970916666658,
      "v": 1
    },
    {
      "midi": 57,
      "hit": false,
      "t": 97083.178,
      "d": 3723.9523749999935,
      "v": 1
    },
    {
      "midi": 61,
      "hit": false,
      "t": 97916.51,
      "d": 2886.280104166668,
      "v": 1
    },
    {
      "midi": 64,
      "hit": false,
      "t": 97916.51,
      "d": 2894.960645833329,
      "v": 1
    },
    {
      "midi": 42,
      "hit": false,
      "t": 98333.1759999999,
      "d": 2916.6619999999966,
      "v": 70
    },
    {
      "midi": 64,
      "hit": false,
      "t": 98333.1759999999,
      "d": 2942.7036249999946,
      "v": 96
    },
    {
      "midi": 57,
      "hit": false,
      "t": 98333.1759999999,
      "d": 2968.7452499999927,
      "v": 79
    },
    {
      "midi": 60,
      "hit": false,
      "t": 101666.5039999999,
      "d": 1575.518312500004,
      "v": 88
    },
    {
      "midi": 64,
      "hit": false,
      "t": 101666.5039999999,
      "d": 1575.518312500004,
      "v": 103
    },
    {
      "midi": 55,
      "hit": false,
      "t": 101666.5039999999,
      "d": 1879.3372708333336,
      "v": 86
    },
    {
      "midi": 64,
      "hit": false,
      "t": 103333.1679999999,
      "d": 724.8252291666577,
      "v": 96
    },
    {
      "midi": 60,
      "hit": false,
      "t": 103333.1679999999,
      "d": 750.8668541666557,
      "v": 88
    },
    {
      "midi": 55,
      "hit": false,
      "t": 103749.8339999999,
      "d": 373.26329166666255,
      "v": 84
    },
    {
      "midi": 62,
      "hit": false,
      "t": 104166.4999999999,
      "d": 286.4578749999928,
      "v": 96
    },
    {
      "midi": 66,
      "hit": false,
      "t": 104166.4999999999,
      "d": 724.8252291666577,
      "v": 86
    },
    {
      "midi": 57,
      "hit": false,
      "t": 104166.4999999999,
      "d": 768.2279374999925,
      "v": 84
    },
    {
      "midi": 62,
      "hit": false,
      "t": 104583.1659999999,
      "d": 303.81895833332965,
      "v": 90
    },
    {
      "midi": 43,
      "hit": false,
      "t": 104999.8319999999,
      "d": 794.2695625000051,
      "v": 101
    },
    {
      "midi": 50,
      "hit": false,
      "t": 104999.8319999999,
      "d": 794.2695625000051,
      "v": 109
    },
    {
      "midi": 57,
      "hit": false,
      "t": 104999.8319999999,
      "d": 798.6098333333357,
      "v": 111
    },
    {
      "midi": 31,
      "hit": false,
      "t": 104999.8319999999,
      "d": 3207.460145833349,
      "v": 101
    },
    {
      "midi": 43,
      "hit": false,
      "t": 105833.1639999999,
      "d": 755.2071250000008,
      "v": 94
    },
    {
      "midi": 55,
      "hit": false,
      "t": 105833.1639999999,
      "d": 776.9084791666683,
      "v": 101
    },
    {
      "midi": 50,
      "hit": false,
      "t": 105833.1639999999,
      "d": 830.7278375000024,
      "v": 94
    },
    {
      "midi": 55,
      "hit": false,
      "t": 106666.49599999991,
      "d": 759.5473958333314,
      "v": 103
    },
    {
      "midi": 43,
      "hit": false,
      "t": 106666.49599999991,
      "d": 781.2487499999988,
      "v": 98
    },
    {
      "midi": 50,
      "hit": false,
      "t": 106666.49599999991,
      "d": 781.2487499999988,
      "v": 96
    },
    {
      "midi": 59,
      "hit": false,
      "t": 106666.49599999991,
      "d": 789.92929166666,
      "v": 101
    },
    {
      "midi": 42,
      "hit": false,
      "t": 107499.8279999999,
      "d": 703.1238750000048,
      "v": 98
    },
    {
      "midi": 50,
      "hit": false,
      "t": 107499.8279999999,
      "d": 703.1238750000048,
      "v": 90
    },
    {
      "midi": 54,
      "hit": false,
      "t": 107499.8279999999,
      "d": 711.8044166666659,
      "v": 107
    },
    {
      "midi": 57,
      "hit": false,
      "t": 107499.8279999999,
      "d": 711.8044166666659,
      "v": 103
    },
    {
      "midi": 40,
      "hit": false,
      "t": 108333.1599999999,
      "d": 1124.1301458333328,
      "v": 111
    },
    {
      "midi": 59,
      "hit": false,
      "t": 108333.1599999999,
      "d": 1623.2612916666549,
      "v": 98
    },
    {
      "midi": 62,
      "hit": false,
      "t": 108333.1599999999,
      "d": 1623.2612916666549,
      "v": 105
    },
    {
      "midi": 55,
      "hit": false,
      "t": 108333.1599999999,
      "d": 1636.2821041666612,
      "v": 92
    },
    {
      "midi": 40,
      "hit": false,
      "t": 109583.1579999999,
      "d": 373.26329166666255,
      "v": 96
    },
    {
      "midi": 62,
      "hit": false,
      "t": 109999.82399999989,
      "d": 729.1655000000028,
      "v": 103
    },
    {
      "midi": 59,
      "hit": false,
      "t": 109999.82399999989,
      "d": 737.846041666664,
      "v": 92
    },
    {
      "midi": 45,
      "hit": false,
      "t": 109999.82399999989,
      "d": 789.92929166666,
      "v": 118
    },
    {
      "midi": 55,
      "hit": false,
      "t": 109999.82399999989,
      "d": 1605.900208333318,
      "v": 109
    },
    {
      "midi": 61,
      "hit": false,
      "t": 110833.15599999989,
      "d": 759.5473958333314,
      "v": 105
    },
    {
      "midi": 64,
      "hit": false,
      "t": 110833.15599999989,
      "d": 768.2279374999925,
      "v": 105
    },
    {
      "midi": 43,
      "hit": false,
      "t": 110833.15599999989,
      "d": 776.9084791666537,
      "v": 109
    },
    {
      "midi": 58,
      "hit": false,
      "t": 111666.48799999987,
      "d": 755.2071250000008,
      "v": 96
    },
    {
      "midi": 61,
      "hit": false,
      "t": 111666.48799999987,
      "d": 755.2071250000008,
      "v": 101
    },
    {
      "midi": 64,
      "hit": false,
      "t": 111666.48799999987,
      "d": 755.2071250000008,
      "v": 107
    },
    {
      "midi": 42,
      "hit": false,
      "t": 111666.48799999987,
      "d": 1002.6025624999893,
      "v": 107
    },
    {
      "midi": 58,
      "hit": false,
      "t": 112499.81999999986,
      "d": 572.9157500000001,
      "v": 88
    },
    {
      "midi": 64,
      "hit": false,
      "t": 112499.81999999986,
      "d": 620.6587291666656,
      "v": 98
    },
    {
      "midi": 61,
      "hit": false,
      "t": 112499.81999999986,
      "d": 642.360083333333,
      "v": 86
    },
    {
      "midi": 42,
      "hit": false,
      "t": 112916.48599999986,
      "d": 407.9854583333363,
      "v": 96
    },
    {
      "midi": 66,
      "hit": false,
      "t": 113333.15199999986,
      "d": 703.1238750000048,
      "v": 105
    },
    {
      "midi": 59,
      "hit": false,
      "t": 113333.15199999986,
      "d": 733.5057708333334,
      "v": 98
    },
    {
      "midi": 62,
      "hit": false,
      "t": 113333.15199999986,
      "d": 755.2071250000008,
      "v": 94
    },
    {
      "midi": 47,
      "hit": false,
      "t": 113333.15199999986,
      "d": 811.6306458333274,
      "v": 105
    },
    {
      "midi": 66,
      "hit": false,
      "t": 114166.48399999985,
      "d": 707.4641458333354,
      "v": 94
    },
    {
      "midi": 57,
      "hit": false,
      "t": 114166.48399999985,
      "d": 729.1655000000028,
      "v": 98
    },
    {
      "midi": 62,
      "hit": false,
      "t": 114166.48399999985,
      "d": 737.846041666664,
      "v": 90
    },
    {
      "midi": 45,
      "hit": false,
      "t": 114166.48399999985,
      "d": 750.8668541666702,
      "v": 115
    },
    {
      "midi": 64,
      "hit": false,
      "t": 116666.47999999985,
      "d": 1354.164499999999,
      "v": 73
    },
    {
      "midi": 67,
      "hit": false,
      "t": 116666.47999999985,
      "d": 1367.1853125000052,
      "v": 90
    },
    {
      "midi": 62,
      "hit": false,
      "t": 116666.47999999985,
      "d": 1371.5255833333358,
      "v": 84
    },
    {
      "midi": 45,
      "hit": false,
      "t": 116666.47999999985,
      "d": 1375.8658541666664,
      "v": 88
    },
    {
      "midi": 59,
      "hit": false,
      "t": 116666.47999999985,
      "d": 1375.8658541666664,
      "v": 82
    },
    {
      "midi": 55,
      "hit": false,
      "t": 118333.14399999985,
      "d": 516.4922291666735,
      "v": 111
    },
    {
      "midi": 57,
      "hit": false,
      "t": 118333.14399999985,
      "d": 533.8533125000104,
      "v": 109
    },
    {
      "midi": 62,
      "hit": false,
      "t": 118333.14399999985,
      "d": 551.2143958333472,
      "v": 105
    },
    {
      "midi": 26,
      "hit": false,
      "t": 118333.14399999985,
      "d": 1145.8315000000148,
      "v": 101
    },
    {
      "midi": 55,
      "hit": false,
      "t": 118958.14299999987,
      "d": 390.6243749999994,
      "v": 105
    },
    {
      "midi": 57,
      "hit": false,
      "t": 118958.14299999987,
      "d": 538.1935833333409,
      "v": 109
    },
    {
      "midi": 62,
      "hit": false,
      "t": 118958.14299999987,
      "d": 542.5338541666715,
      "v": 107
    },
    {
      "midi": 38,
      "hit": false,
      "t": 119166.47599999986,
      "d": 347.2216666666791,
      "v": 109
    },
    {
      "midi": 38,
      "hit": false,
      "t": 119583.14199999988,
      "d": 685.7627916666679,
      "v": 115
    },
    {
      "midi": 54,
      "hit": false,
      "t": 119583.14199999988,
      "d": 967.8803958333301,
      "v": 109
    },
    {
      "midi": 57,
      "hit": false,
      "t": 119583.14199999988,
      "d": 1167.5328541666531,
      "v": 101
    },
    {
      "midi": 62,
      "hit": false,
      "t": 119583.14199999988,
      "d": 1228.2966458333249,
      "v": 105
    },
    {
      "midi": 26,
      "hit": false,
      "t": 119583.14199999988,
      "d": 1419.2685624999867,
      "v": 107
    },
    {
      "midi": 38,
      "hit": false,
      "t": 120416.47399999987,
      "d": 564.2352083333244,
      "v": 105
    },
    {
      "midi": 54,
      "hit": false,
      "t": 120624.80699999987,
      "d": 147.56920833332697,
      "v": 86
    },
    {
      "midi": 57,
      "hit": false,
      "t": 120833.13999999987,
      "d": 425.3465416666586,
      "v": 109
    },
    {
      "midi": 54,
      "hit": false,
      "t": 120833.13999999987,
      "d": 429.6868124999892,
      "v": 96
    },
    {
      "midi": 62,
      "hit": false,
      "t": 120833.13999999987,
      "d": 438.36735416665033,
      "v": 88
    },
    {
      "midi": 26,
      "hit": false,
      "t": 121249.80599999987,
      "d": 247.39543749998847,
      "v": 96
    },
    {
      "midi": 38,
      "hit": false,
      "t": 121249.80599999987,
      "d": 260.41624999999476,
      "v": 90
    },
    {
      "midi": 67,
      "hit": false,
      "t": 121666.47199999986,
      "d": 729.1655000000028,
      "v": 107
    },
    {
      "midi": 62,
      "hit": false,
      "t": 121666.47199999986,
      "d": 772.5682083333377,
      "v": 109
    },
    {
      "midi": 59,
      "hit": false,
      "t": 121666.47199999986,
      "d": 776.9084791666683,
      "v": 109
    },
    {
      "midi": 31,
      "hit": false,
      "t": 121666.47199999986,
      "d": 1401.9074791666644,
      "v": 111
    },
    {
      "midi": 43,
      "hit": false,
      "t": 121666.47199999986,
      "d": 1527.775333333324,
      "v": 109
    },
    {
      "midi": 59,
      "hit": false,
      "t": 122499.80399999986,
      "d": 312.49950000000536,
      "v": 92
    },
    {
      "midi": 67,
      "hit": false,
      "t": 122499.80399999986,
      "d": 1575.5183124999894,
      "v": 103
    },
    {
      "midi": 62,
      "hit": false,
      "t": 122499.80399999986,
      "d": 1588.5391249999957,
      "v": 90
    },
    {
      "midi": 59,
      "hit": false,
      "t": 123124.80299999985,
      "d": 455.72843750000175,
      "v": 67
    },
    {
      "midi": 31,
      "hit": false,
      "t": 123333.13599999985,
      "d": 911.4568749999889,
      "v": 105
    },
    {
      "midi": 43,
      "hit": false,
      "t": 123541.46899999985,
      "d": 733.5057708333188,
      "v": 86
    },
    {
      "midi": 59,
      "hit": false,
      "t": 123749.80199999985,
      "d": 342.88139583333395,
      "v": 73
    },
    {
      "midi": 62,
      "hit": false,
      "t": 124166.46799999985,
      "d": 468.74924999997893,
      "v": 107
    },
    {
      "midi": 67,
      "hit": false,
      "t": 124166.46799999985,
      "d": 468.74924999997893,
      "v": 107
    },
    {
      "midi": 59,
      "hit": false,
      "t": 124166.46799999985,
      "d": 486.1103333333158,
      "v": 107
    },
    {
      "midi": 43,
      "hit": false,
      "t": 124583.13399999983,
      "d": 256.0759791666642,
      "v": 88
    },
    {
      "midi": 64,
      "hit": false,
      "t": 124999.79999999983,
      "d": 733.5057708333334,
      "v": 109
    },
    {
      "midi": 59,
      "hit": false,
      "t": 124999.79999999983,
      "d": 737.846041666664,
      "v": 109
    },
    {
      "midi": 35,
      "hit": false,
      "t": 124999.79999999983,
      "d": 3081.592291666646,
      "v": 109
    },
    {
      "midi": 47,
      "hit": false,
      "t": 125624.79899999982,
      "d": 915.7971458333341,
      "v": 98
    },
    {
      "midi": 59,
      "hit": false,
      "t": 125833.13199999982,
      "d": 729.1655000000028,
      "v": 107
    },
    {
      "midi": 63,
      "hit": false,
      "t": 125833.13199999982,
      "d": 737.846041666664,
      "v": 120
    },
    {
      "midi": 59,
      "hit": false,
      "t": 126666.46399999982,
      "d": 755.2071250000008,
      "v": 111
    },
    {
      "midi": 47,
      "hit": false,
      "t": 126666.46399999982,
      "d": 776.9084791666683,
      "v": 109
    },
    {
      "midi": 47,
      "hit": false,
      "t": 127499.79599999981,
      "d": 716.1446874999965,
      "v": 101
    },
    {
      "midi": 63,
      "hit": false,
      "t": 127499.79599999981,
      "d": 859.3736249999929,
      "v": 107
    },
    {
      "midi": 57,
      "hit": false,
      "t": 127499.79599999981,
      "d": 868.054166666654,
      "v": 96
    },
    {
      "midi": 48,
      "hit": false,
      "t": 128333.12799999981,
      "d": 789.92929166666,
      "v": 118
    },
    {
      "midi": 55,
      "hit": false,
      "t": 129166.4599999998,
      "d": 1501.733708333326,
      "v": 84
    },
    {
      "midi": 60,
      "hit": false,
      "t": 129166.4599999998,
      "d": 1566.8377708333282,
      "v": 96
    },
    {
      "midi": 36,
      "hit": false,
      "t": 129583.1259999998,
      "d": 1493.0531666666648,
      "v": 96
    },
    {
      "midi": 43,
      "hit": false,
      "t": 129999.7919999998,
      "d": 1176.2133958333434,
      "v": 107
    },
    {
      "midi": 48,
      "hit": false,
      "t": 130416.4579999998,
      "d": 733.5057708333334,
      "v": 96
    },
    {
      "midi": 55,
      "hit": false,
      "t": 130833.12399999979,
      "d": 724.8252291666722,
      "v": 103
    },
    {
      "midi": 60,
      "hit": false,
      "t": 130833.12399999979,
      "d": 729.1655000000173,
      "v": 103
    },
    {
      "midi": 55,
      "hit": false,
      "t": 131666.4559999998,
      "d": 698.7836041666742,
      "v": 109
    },
    {
      "midi": 59,
      "hit": false,
      "t": 131666.4559999998,
      "d": 724.8252291666868,
      "v": 113
    },
    {
      "midi": 31,
      "hit": false,
      "t": 131666.4559999998,
      "d": 911.4568750000326,
      "v": 103
    },
    {
      "midi": 43,
      "hit": false,
      "t": 131666.4559999998,
      "d": 920.1374166666938,
      "v": 109
    },
    {
      "midi": 55,
      "hit": false,
      "t": 132499.78799999983,
      "d": 368.9230208333465,
      "v": 86
    },
    {
      "midi": 59,
      "hit": false,
      "t": 132499.78799999983,
      "d": 373.26329166669166,
      "v": 96
    },
    {
      "midi": 62,
      "hit": false,
      "t": 132499.78799999983,
      "d": 412.3257291666814,
      "v": 96
    },
    {
      "midi": 43,
      "hit": false,
      "t": 132916.45399999985,
      "d": 390.62437500001397,
      "v": 94
    },
    {
      "midi": 31,
      "hit": false,
      "t": 132916.45399999985,
      "d": 394.9646458333591,
      "v": 98
    },
    {
      "midi": 67,
      "hit": false,
      "t": 133124.78699999987,
      "d": 312.49950000000536,
      "v": 107
    },
    {
      "midi": 59,
      "hit": false,
      "t": 133124.78699999987,
      "d": 325.52031250001164,
      "v": 111
    },
    {
      "midi": 62,
      "hit": false,
      "t": 133124.78699999987,
      "d": 338.5411250000179,
      "v": 115
    },
    {
      "midi": 43,
      "hit": false,
      "t": 133333.11999999988,
      "d": 282.11760416667676,
      "v": 94
    },
    {
      "midi": 31,
      "hit": false,
      "t": 133333.11999999988,
      "d": 295.13841666668304,
      "v": 98
    },
    {
      "midi": 59,
      "hit": false,
      "t": 133541.4529999999,
      "d": 551.2143958333472,
      "v": 111
    },
    {
      "midi": 62,
      "hit": false,
      "t": 133541.4529999999,
      "d": 564.2352083333535,
      "v": 107
    },
    {
      "midi": 67,
      "hit": false,
      "t": 133541.4529999999,
      "d": 577.2560208333598,
      "v": 105
    },
    {
      "midi": 31,
      "hit": false,
      "t": 133749.7859999999,
      "d": 533.8533125000249,
      "v": 105
    },
    {
      "midi": 43,
      "hit": false,
      "t": 133749.7859999999,
      "d": 611.9781875000335,
      "v": 90
    },
    {
      "midi": 59,
      "hit": false,
      "t": 134166.45199999993,
      "d": 499.1311458333221,
      "v": 105
    },
    {
      "midi": 62,
      "hit": false,
      "t": 134166.45199999993,
      "d": 503.4714166666672,
      "v": 103
    },
    {
      "midi": 67,
      "hit": false,
      "t": 134166.45199999993,
      "d": 516.4922291666735,
      "v": 105
    },
    {
      "midi": 31,
      "hit": false,
      "t": 134583.11799999993,
      "d": 277.7773333333316,
      "v": 105
    },
    {
      "midi": 43,
      "hit": false,
      "t": 134583.11799999993,
      "d": 303.8189583333442,
      "v": 92
    },
    {
      "midi": 67,
      "hit": false,
      "t": 134999.78399999993,
      "d": 729.1655000000028,
      "v": 107
    },
    {
      "midi": 62,
      "hit": false,
      "t": 134999.78399999993,
      "d": 772.5682083333377,
      "v": 109
    },
    {
      "midi": 59,
      "hit": false,
      "t": 134999.78399999993,
      "d": 776.9084791666828,
      "v": 109
    },
    {
      "midi": 31,
      "hit": false,
      "t": 134999.78399999993,
      "d": 1506.0739791667147,
      "v": 111
    },
    {
      "midi": 43,
      "hit": false,
      "t": 134999.78399999993,
      "d": 1527.7753333333822,
      "v": 109
    },
    {
      "midi": 59,
      "hit": false,
      "t": 135833.11599999995,
      "d": 312.49950000000536,
      "v": 92
    },
    {
      "midi": 67,
      "hit": false,
      "t": 135833.11599999995,
      "d": 1575.518312500033,
      "v": 103
    },
    {
      "midi": 62,
      "hit": false,
      "t": 135833.11599999995,
      "d": 1588.5391250000393,
      "v": 90
    },
    {
      "midi": 59,
      "hit": false,
      "t": 136458.11499999996,
      "d": 455.7284375000163,
      "v": 67
    },
    {
      "midi": 31,
      "hit": false,
      "t": 136666.44799999997,
      "d": 911.4568750000326,
      "v": 105
    },
    {
      "midi": 43,
      "hit": false,
      "t": 136874.781,
      "d": 733.5057708333479,
      "v": 86
    },
    {
      "midi": 59,
      "hit": false,
      "t": 137083.11399999997,
      "d": 342.88139583336306,
      "v": 73
    },
    {
      "midi": 62,
      "hit": false,
      "t": 137499.78,
      "d": 572.9157499999856,
      "v": 107
    },
    {
      "midi": 67,
      "hit": false,
      "t": 137499.78,
      "d": 572.9157499999856,
      "v": 107
    },
    {
      "midi": 59,
      "hit": false,
      "t": 137499.78,
      "d": 590.2768333333079,
      "v": 107
    },
    {
      "midi": 43,
      "hit": false,
      "t": 137916.446,
      "d": 360.24247916665627,
      "v": 88
    },
    {
      "midi": 64,
      "hit": false,
      "t": 138333.112,
      "d": 733.5057708333479,
      "v": 109
    },
    {
      "midi": 59,
      "hit": false,
      "t": 138333.112,
      "d": 737.846041666693,
      "v": 109
    },
    {
      "midi": 35,
      "hit": false,
      "t": 138333.112,
      "d": 3081.5922916666896,
      "v": 109
    },
    {
      "midi": 47,
      "hit": false,
      "t": 138958.111,
      "d": 915.7971458333486,
      "v": 98
    },
    {
      "midi": 59,
      "hit": false,
      "t": 139166.44400000002,
      "d": 729.1655000000028,
      "v": 107
    },
    {
      "midi": 63,
      "hit": false,
      "t": 139166.44400000002,
      "d": 737.846041666664,
      "v": 120
    },
    {
      "midi": 59,
      "hit": false,
      "t": 139999.776,
      "d": 755.2071249999863,
      "v": 111
    },
    {
      "midi": 47,
      "hit": false,
      "t": 139999.776,
      "d": 776.9084791666537,
      "v": 109
    },
    {
      "midi": 47,
      "hit": false,
      "t": 140833.108,
      "d": 716.1446874999965,
      "v": 101
    },
    {
      "midi": 63,
      "hit": false,
      "t": 140833.108,
      "d": 859.3736250000075,
      "v": 107
    },
    {
      "midi": 57,
      "hit": false,
      "t": 140833.108,
      "d": 868.0541666666686,
      "v": 96
    },
    {
      "midi": 48,
      "hit": false,
      "t": 141666.44,
      "d": 789.92929166666,
      "v": 118
    },
    {
      "midi": 55,
      "hit": false,
      "t": 142499.772,
      "d": 1501.7337083333114,
      "v": 84
    },
    {
      "midi": 60,
      "hit": false,
      "t": 142499.772,
      "d": 1566.8377708333137,
      "v": 96
    },
    {
      "midi": 36,
      "hit": false,
      "t": 142916.438,
      "d": 1493.0531666666502,
      "v": 96
    },
    {
      "midi": 43,
      "hit": false,
      "t": 143333.104,
      "d": 1176.2133958333288,
      "v": 107
    },
    {
      "midi": 48,
      "hit": false,
      "t": 143749.77,
      "d": 733.5057708333188,
      "v": 96
    },
    {
      "midi": 55,
      "hit": false,
      "t": 144166.436,
      "d": 776.9084791666537,
      "v": 103
    },
    {
      "midi": 60,
      "hit": false,
      "t": 144166.436,
      "d": 781.2487499999988,
      "v": 103
    },
    {
      "midi": 31,
      "hit": false,
      "t": 144999.76799999998,
      "d": 2821.1760416666802,
      "v": 109
    },
    {
      "midi": 59,
      "hit": false,
      "t": 144999.76799999998,
      "d": 2825.5163125000254,
      "v": 109
    },
    {
      "midi": 55,
      "hit": false,
      "t": 144999.76799999998,
      "d": 2834.1968541666865,
      "v": 109
    },
    {
      "midi": 62,
      "hit": false,
      "t": 144999.76799999998,
      "d": 2842.8773958333477,
      "v": 109
    },
    {
      "midi": 43,
      "hit": false,
      "t": 144999.76799999998,
      "d": 2847.217666666693,
      "v": 107
    },
    {
      "midi": 57,
      "hit": false,
      "t": 148333.09600000002,
      "d": 772.5682083333377,
      "v": 113
    },
    {
      "midi": 38,
      "hit": false,
      "t": 148333.09600000002,
      "d": 1957.4621458333277,
      "v": 111
    },
    {
      "midi": 62,
      "hit": false,
      "t": 148333.09600000002,
      "d": 2395.8294999999925,
      "v": 107
    },
    {
      "midi": 26,
      "hit": false,
      "t": 148333.09600000002,
      "d": 2686.6276458333014,
      "v": 109
    },
    {
      "midi": 66,
      "hit": false,
      "t": 149166.428,
      "d": 1514.7545208333177,
      "v": 85
    },
    {
      "midi": 57,
      "hit": false,
      "t": 149166.428,
      "d": 1519.0947916666628,
      "v": 78
    },
    {
      "midi": 38,
      "hit": false,
      "t": 150416.426,
      "d": 551.2143958333181,
      "v": 85
    },
    {
      "midi": 62,
      "hit": false,
      "t": 150833.092,
      "d": 672.7419791666616,
      "v": 81
    },
    {
      "midi": 66,
      "hit": false,
      "t": 150833.092,
      "d": 707.4641458333354,
      "v": 94
    },
    {
      "midi": 57,
      "hit": false,
      "t": 150833.092,
      "d": 716.1446874999965,
      "v": 96
    },
    {
      "midi": 26,
      "hit": false,
      "t": 151249.758,
      "d": 355.90220833334024,
      "v": 88
    },
    {
      "midi": 38,
      "hit": false,
      "t": 151249.758,
      "d": 377.6035625000077,
      "v": 96
    },
    {
      "midi": 57,
      "hit": false,
      "t": 151666.424,
      "d": 1566.8377708333428,
      "v": 103
    },
    {
      "midi": 61,
      "hit": false,
      "t": 151666.424,
      "d": 1566.8377708333428,
      "v": 109
    },
    {
      "midi": 30,
      "hit": false,
      "t": 151666.424,
      "d": 2690.9679166666756,
      "v": 111
    },
    {
      "midi": 57,
      "hit": false,
      "t": 153333.08800000002,
      "d": 381.9438333333237,
      "v": 68
    },
    {
      "midi": 64,
      "hit": false,
      "t": 153333.08800000002,
      "d": 742.1863125000091,
      "v": 75
    },
    {
      "midi": 57,
      "hit": false,
      "t": 153749.75400000002,
      "d": 309.8953374999983,
      "v": 85
    },
    {
      "midi": 61,
      "hit": false,
      "t": 154166.42,
      "d": 737.846041666664,
      "v": 101
    },
    {
      "midi": 57,
      "hit": false,
      "t": 154166.42,
      "d": 772.5682083333377,
      "v": 103
    },
    {
      "midi": 30,
      "hit": false,
      "t": 154583.086,
      "d": 364.5827500000014,
      "v": 96
    },
    {
      "midi": 55,
      "hit": false,
      "t": 154999.752,
      "d": 2261.2811041666428,
      "v": 107
    },
    {
      "midi": 28,
      "hit": false,
      "t": 154999.752,
      "d": 2682.2873749999853,
      "v": 113
    },
    {
      "midi": 62,
      "hit": false,
      "t": 154999.752,
      "d": 3268.223937499977,
      "v": 107
    },
    {
      "midi": 59,
      "hit": false,
      "t": 157083.082,
      "d": 1210.9355624999735,
      "v": 81
    },
    {
      "midi": 55,
      "hit": false,
      "t": 157499.748,
      "d": 759.5473958333314,
      "v": 94
    },
    {
      "midi": 28,
      "hit": false,
      "t": 157916.414,
      "d": 360.24247916665627,
      "v": 105
    },
    {
      "midi": 54,
      "hit": false,
      "t": 158333.07999999996,
      "d": 633.6795416666719,
      "v": 96
    },
    {
      "midi": 59,
      "hit": false,
      "t": 158333.07999999996,
      "d": 846.3528125000012,
      "v": 98
    },
    {
      "midi": 30,
      "hit": false,
      "t": 158333.07999999996,
      "d": 1532.115604166669,
      "v": 101
    },
    {
      "midi": 42,
      "hit": false,
      "t": 158749.74599999996,
      "d": 1141.4912291666842,
      "v": 101
    },
    {
      "midi": 54,
      "hit": false,
      "t": 159166.41199999995,
      "d": 733.5057708333479,
      "v": 105
    },
    {
      "midi": 59,
      "hit": false,
      "t": 159583.07799999995,
      "d": 321.1800416666956,
      "v": 90
    },
    {
      "midi": 30,
      "hit": false,
      "t": 159999.74399999998,
      "d": 698.7836041666742,
      "v": 107
    },
    {
      "midi": 42,
      "hit": false,
      "t": 159999.74399999998,
      "d": 824.6514583333337,
      "v": 103
    },
    {
      "midi": 54,
      "hit": false,
      "t": 159999.74399999998,
      "d": 1106.7690625000105,
      "v": 105
    },
    {
      "midi": 58,
      "hit": false,
      "t": 159999.74399999998,
      "d": 1597.2196666666714,
      "v": 107
    },
    {
      "midi": 30,
      "hit": false,
      "t": 160833.07599999997,
      "d": 737.846041666693,
      "v": 98
    },
    {
      "midi": 42,
      "hit": false,
      "t": 161041.40899999999,
      "d": 572.9157499999856,
      "v": 105
    },
    {
      "midi": 54,
      "hit": false,
      "t": 161249.742,
      "d": 338.5411249999888,
      "v": 88
    },
    {
      "midi": 57,
      "hit": false,
      "t": 161666.40799999997,
      "d": 772.5682083333377,
      "v": 113
    },
    {
      "midi": 38,
      "hit": false,
      "t": 161666.40799999997,
      "d": 1957.4621458333277,
      "v": 111
    },
    {
      "midi": 62,
      "hit": false,
      "t": 161666.40799999997,
      "d": 2395.8294999999925,
      "v": 107
    },
    {
      "midi": 26,
      "hit": false,
      "t": 161666.40799999997,
      "d": 2686.6276458333014,
      "v": 109
    },
    {
      "midi": 62,
      "hit": false,
      "t": 161666.408,
      "d": 1225.692483333347,
      "v": 1
    },
    {
      "midi": 66,
      "hit": false,
      "t": 162499.73999999996,
      "d": 1514.7545208333177,
      "v": 85
    },
    {
      "midi": 57,
      "hit": false,
      "t": 162499.73999999996,
      "d": 1519.0947916666628,
      "v": 78
    },
    {
      "midi": 57,
      "hit": false,
      "t": 162916.40600000002,
      "d": 201.38856666666106,
      "v": 1
    },
    {
      "midi": 62,
      "hit": false,
      "t": 163124.739,
      "d": 409.72156666667433,
      "v": 1
    },
    {
      "midi": 57,
      "hit": false,
      "t": 163541.405,
      "d": 201.38856666666106,
      "v": 1
    },
    {
      "midi": 38,
      "hit": false,
      "t": 163749.73799999995,
      "d": 551.2143958333181,
      "v": 85
    },
    {
      "midi": 62,
      "hit": false,
      "t": 163749.73799999998,
      "d": 460.0687083333323,
      "v": 1
    },
    {
      "midi": 62,
      "hit": false,
      "t": 164166.40399999995,
      "d": 672.7419791666616,
      "v": 81
    },
    {
      "midi": 66,
      "hit": false,
      "t": 164166.40399999995,
      "d": 707.4641458333354,
      "v": 94
    },
    {
      "midi": 57,
      "hit": false,
      "t": 164166.40399999995,
      "d": 716.1446874999965,
      "v": 96
    },
    {
      "midi": 26,
      "hit": false,
      "t": 164583.06999999995,
      "d": 355.90220833334024,
      "v": 88
    },
    {
      "midi": 38,
      "hit": false,
      "t": 164583.06999999995,
      "d": 412.3257291666814,
      "v": 96
    },
    {
      "midi": 57,
      "hit": false,
      "t": 164999.73599999998,
      "d": 1566.8377708333428,
      "v": 103
    },
    {
      "midi": 61,
      "hit": false,
      "t": 164999.73599999998,
      "d": 1566.8377708333428,
      "v": 109
    },
    {
      "midi": 30,
      "hit": false,
      "t": 164999.73599999998,
      "d": 2690.9679166666756,
      "v": 111
    },
    {
      "midi": 61,
      "hit": false,
      "t": 164999.73599999998,
      "d": 1245.6577291666763,
      "v": 1
    },
    {
      "midi": 64,
      "hit": false,
      "t": 166249.734,
      "d": 305.55506666665315,
      "v": 1
    },
    {
      "midi": 61,
      "hit": false,
      "t": 166562.23349999997,
      "d": 694.4433333333291,
      "v": 1
    },
    {
      "midi": 57,
      "hit": false,
      "t": 166666.4,
      "d": 381.9438333333237,
      "v": 68
    },
    {
      "midi": 64,
      "hit": false,
      "t": 166666.4,
      "d": 742.1863125000091,
      "v": 75
    },
    {
      "midi": 57,
      "hit": false,
      "t": 167083.066,
      "d": 309.8953374999983,
      "v": 85
    },
    {
      "midi": 61,
      "hit": false,
      "t": 167499.732,
      "d": 737.846041666664,
      "v": 101
    },
    {
      "midi": 57,
      "hit": false,
      "t": 167499.732,
      "d": 772.5682083333377,
      "v": 103
    },
    {
      "midi": 30,
      "hit": false,
      "t": 167916.398,
      "d": 364.5827500000014,
      "v": 96
    },
    {
      "midi": 55,
      "hit": false,
      "t": 168333.06399999998,
      "d": 2261.2811041666428,
      "v": 107
    },
    {
      "midi": 28,
      "hit": false,
      "t": 168333.06399999998,
      "d": 2682.2873749999853,
      "v": 113
    },
    {
      "midi": 62,
      "hit": false,
      "t": 168333.06399999998,
      "d": 3268.223937499977,
      "v": 107
    },
    {
      "midi": 59,
      "hit": false,
      "t": 170416.39399999997,
      "d": 1210.9355624999735,
      "v": 81
    },
    {
      "midi": 55,
      "hit": false,
      "t": 170833.05999999997,
      "d": 759.5473958333314,
      "v": 94
    },
    {
      "midi": 28,
      "hit": false,
      "t": 171249.72599999997,
      "d": 360.24247916665627,
      "v": 105
    },
    {
      "midi": 54,
      "hit": false,
      "t": 171666.39199999993,
      "d": 633.6795416666719,
      "v": 96
    },
    {
      "midi": 59,
      "hit": false,
      "t": 171666.39199999993,
      "d": 846.3528125000012,
      "v": 98
    },
    {
      "midi": 30,
      "hit": false,
      "t": 171666.39199999993,
      "d": 1532.115604166669,
      "v": 101
    },
    {
      "midi": 42,
      "hit": false,
      "t": 172083.05799999993,
      "d": 1141.4912291666842,
      "v": 101
    },
    {
      "midi": 54,
      "hit": false,
      "t": 172499.72399999993,
      "d": 733.5057708333479,
      "v": 105
    },
    {
      "midi": 59,
      "hit": false,
      "t": 172916.38999999993,
      "d": 321.1800416666956,
      "v": 90
    },
    {
      "midi": 30,
      "hit": false,
      "t": 173333.05599999995,
      "d": 698.7836041666742,
      "v": 107
    },
    {
      "midi": 42,
      "hit": false,
      "t": 173333.05599999995,
      "d": 824.6514583333337,
      "v": 103
    },
    {
      "midi": 54,
      "hit": false,
      "t": 173333.05599999995,
      "d": 1106.7690625000105,
      "v": 105
    },
    {
      "midi": 58,
      "hit": false,
      "t": 173333.05599999995,
      "d": 1597.2196666666714,
      "v": 107
    },
    {
      "midi": 30,
      "hit": false,
      "t": 174166.38799999995,
      "d": 737.846041666693,
      "v": 98
    },
    {
      "midi": 42,
      "hit": false,
      "t": 174374.72099999996,
      "d": 572.9157499999856,
      "v": 105
    },
    {
      "midi": 54,
      "hit": false,
      "t": 174583.05399999997,
      "d": 338.5411249999888,
      "v": 88
    },
    {
      "midi": 54,
      "hit": false,
      "t": 174999.71999999994,
      "d": 2638.8846666666795,
      "v": 79
    },
    {
      "midi": 38,
      "hit": false,
      "t": 174999.71999999994,
      "d": 2712.669270833343,
      "v": 73
    },
    {
      "midi": 57,
      "hit": false,
      "t": 174999.71999999994,
      "d": 2725.6900833333493,
      "v": 90
    },
    {
      "midi": 57,
      "hit": false,
      "t": 174999.71999999997,
      "d": 2070.30918750001,
      "v": 1
    },
    {
      "midi": 62,
      "hit": false,
      "t": 174999.71999999997,
      "d": 2070.30918750001,
      "v": 1
    },
    {
      "midi": 66,
      "hit": false,
      "t": 174999.71999999997,
      "d": 2070.30918750001,
      "v": 1
    },
    {
      "midi": 66,
      "hit": false,
      "t": 177083.05,
      "d": 807.2903750000114,
      "v": 1
    },
    {
      "midi": 62,
      "hit": false,
      "t": 177083.05,
      "d": 815.9709166666726,
      "v": 1
    },
    {
      "midi": 57,
      "hit": false,
      "t": 177083.05,
      "d": 3723.9523749999935,
      "v": 1
    },
    {
      "midi": 61,
      "hit": false,
      "t": 177916.38199999998,
      "d": 2886.2801041666535,
      "v": 1
    },
    {
      "midi": 64,
      "hit": false,
      "t": 177916.38199999998,
      "d": 2894.9606458333437,
      "v": 1
    },
    {
      "midi": 42,
      "hit": false,
      "t": 178333.04799999995,
      "d": 2916.662000000011,
      "v": 70
    },
    {
      "midi": 64,
      "hit": false,
      "t": 178333.04799999995,
      "d": 2942.7036250000237,
      "v": 96
    },
    {
      "midi": 57,
      "hit": false,
      "t": 178333.04799999995,
      "d": 2968.7452500000363,
      "v": 79
    },
    {
      "midi": 60,
      "hit": false,
      "t": 181666.376,
      "d": 1575.518312500004,
      "v": 88
    },
    {
      "midi": 64,
      "hit": false,
      "t": 181666.376,
      "d": 1575.518312500004,
      "v": 103
    },
    {
      "midi": 55,
      "hit": false,
      "t": 181666.376,
      "d": 1879.337270833319,
      "v": 86
    },
    {
      "midi": 64,
      "hit": false,
      "t": 183333.03999999998,
      "d": 724.8252291666577,
      "v": 96
    },
    {
      "midi": 60,
      "hit": false,
      "t": 183333.03999999998,
      "d": 750.8668541666702,
      "v": 88
    },
    {
      "midi": 55,
      "hit": false,
      "t": 183749.70599999998,
      "d": 360.24247916668537,
      "v": 84
    },
    {
      "midi": 62,
      "hit": false,
      "t": 184166.372,
      "d": 286.4578749999928,
      "v": 96
    },
    {
      "midi": 66,
      "hit": false,
      "t": 184166.372,
      "d": 724.8252291666868,
      "v": 86
    },
    {
      "midi": 57,
      "hit": false,
      "t": 184166.372,
      "d": 768.2279375000217,
      "v": 84
    },
    {
      "midi": 62,
      "hit": false,
      "t": 184583.038,
      "d": 303.8189583333442,
      "v": 90
    },
    {
      "midi": 50,
      "hit": false,
      "t": 184999.70400000003,
      "d": 759.5473958333314,
      "v": 105
    },
    {
      "midi": 57,
      "hit": false,
      "t": 184999.70400000003,
      "d": 763.8876666666765,
      "v": 107
    },
    {
      "midi": 43,
      "hit": false,
      "t": 184999.70400000003,
      "d": 1059.0260833333596,
      "v": 105
    },
    {
      "midi": 50,
      "hit": false,
      "t": 185833.03600000005,
      "d": 789.92929166666,
      "v": 109
    },
    {
      "midi": 57,
      "hit": false,
      "t": 185833.03600000005,
      "d": 802.9501041666663,
      "v": 113
    },
    {
      "midi": 43,
      "hit": false,
      "t": 186249.70200000005,
      "d": 334.2008541666728,
      "v": 107
    },
    {
      "midi": 67,
      "hit": false,
      "t": 186666.36800000005,
      "d": 729.1655000000028,
      "v": 96
    },
    {
      "midi": 62,
      "hit": false,
      "t": 186666.36800000005,
      "d": 737.846041666664,
      "v": 94
    },
    {
      "midi": 59,
      "hit": false,
      "t": 186666.36800000005,
      "d": 746.5265833333251,
      "v": 98
    },
    {
      "midi": 43,
      "hit": false,
      "t": 186666.36800000005,
      "d": 768.2279374999925,
      "v": 107
    },
    {
      "midi": 57,
      "hit": false,
      "t": 187499.70000000004,
      "d": 690.103062500013,
      "v": 109
    },
    {
      "midi": 42,
      "hit": false,
      "t": 187499.70000000004,
      "d": 694.4433333333582,
      "v": 120
    },
    {
      "midi": 66,
      "hit": false,
      "t": 187499.70000000004,
      "d": 703.1238750000193,
      "v": 109
    },
    {
      "midi": 62,
      "hit": false,
      "t": 187499.70000000004,
      "d": 729.1655000000319,
      "v": 101
    },
    {
      "midi": 40,
      "hit": false,
      "t": 188333.03200000006,
      "d": 1124.1301458333328,
      "v": 111
    },
    {
      "midi": 59,
      "hit": false,
      "t": 188333.03200000006,
      "d": 1623.2612916666549,
      "v": 98
    },
    {
      "midi": 62,
      "hit": false,
      "t": 188333.03200000006,
      "d": 1623.2612916666549,
      "v": 105
    },
    {
      "midi": 55,
      "hit": false,
      "t": 188333.03200000006,
      "d": 1636.2821041666612,
      "v": 92
    },
    {
      "midi": 40,
      "hit": false,
      "t": 189583.03000000006,
      "d": 373.26329166666255,
      "v": 96
    },
    {
      "midi": 62,
      "hit": false,
      "t": 189999.69600000005,
      "d": 729.1655000000028,
      "v": 103
    },
    {
      "midi": 59,
      "hit": false,
      "t": 189999.69600000005,
      "d": 737.846041666664,
      "v": 92
    },
    {
      "midi": 45,
      "hit": false,
      "t": 189999.69600000005,
      "d": 789.92929166666,
      "v": 118
    },
    {
      "midi": 55,
      "hit": false,
      "t": 189999.69600000005,
      "d": 1605.9002083333326,
      "v": 109
    },
    {
      "midi": 61,
      "hit": false,
      "t": 190833.02800000005,
      "d": 759.5473958333314,
      "v": 105
    },
    {
      "midi": 64,
      "hit": false,
      "t": 190833.02800000005,
      "d": 768.2279374999925,
      "v": 105
    },
    {
      "midi": 43,
      "hit": false,
      "t": 190833.02800000005,
      "d": 776.9084791666828,
      "v": 109
    },
    {
      "midi": 58,
      "hit": false,
      "t": 191666.36000000007,
      "d": 755.2071249999863,
      "v": 96
    },
    {
      "midi": 61,
      "hit": false,
      "t": 191666.36000000007,
      "d": 755.2071249999863,
      "v": 101
    },
    {
      "midi": 64,
      "hit": false,
      "t": 191666.36000000007,
      "d": 755.2071249999863,
      "v": 107
    },
    {
      "midi": 42,
      "hit": false,
      "t": 191666.36000000007,
      "d": 1002.6025624999893,
      "v": 107
    },
    {
      "midi": 58,
      "hit": false,
      "t": 192499.69200000007,
      "d": 572.9157499999856,
      "v": 88
    },
    {
      "midi": 64,
      "hit": false,
      "t": 192499.69200000007,
      "d": 620.6587291666656,
      "v": 98
    },
    {
      "midi": 61,
      "hit": false,
      "t": 192499.69200000007,
      "d": 642.360083333333,
      "v": 86
    },
    {
      "midi": 42,
      "hit": false,
      "t": 192916.35800000007,
      "d": 425.3465416666586,
      "v": 96
    },
    {
      "midi": 66,
      "hit": false,
      "t": 193333.02400000006,
      "d": 703.1238749999902,
      "v": 105
    },
    {
      "midi": 59,
      "hit": false,
      "t": 193333.02400000006,
      "d": 733.5057708333188,
      "v": 98
    },
    {
      "midi": 62,
      "hit": false,
      "t": 193333.02400000006,
      "d": 755.2071249999863,
      "v": 94
    },
    {
      "midi": 47,
      "hit": false,
      "t": 193333.02400000006,
      "d": 811.6306458333274,
      "v": 105
    },
    {
      "midi": 66,
      "hit": false,
      "t": 194166.35600000006,
      "d": 707.4641458333354,
      "v": 94
    },
    {
      "midi": 57,
      "hit": false,
      "t": 194166.35600000006,
      "d": 729.1655000000028,
      "v": 98
    },
    {
      "midi": 62,
      "hit": false,
      "t": 194166.35600000006,
      "d": 737.846041666664,
      "v": 90
    },
    {
      "midi": 45,
      "hit": false,
      "t": 194166.35600000006,
      "d": 750.8668541666702,
      "v": 115
    },
    {
      "midi": 64,
      "hit": false,
      "t": 196666.35200000007,
      "d": 1354.1645000000135,
      "v": 73
    },
    {
      "midi": 67,
      "hit": false,
      "t": 196666.35200000007,
      "d": 1367.1853125000198,
      "v": 90
    },
    {
      "midi": 62,
      "hit": false,
      "t": 196666.35200000007,
      "d": 1371.525583333365,
      "v": 84
    },
    {
      "midi": 45,
      "hit": false,
      "t": 196666.35200000007,
      "d": 1375.86585416671,
      "v": 88
    },
    {
      "midi": 59,
      "hit": false,
      "t": 196666.35200000007,
      "d": 1375.86585416671,
      "v": 86
    },
    {
      "midi": 55,
      "hit": false,
      "t": 198333.01600000012,
      "d": 516.4922291666735,
      "v": 111
    },
    {
      "midi": 57,
      "hit": false,
      "t": 198333.01600000012,
      "d": 533.8533124999958,
      "v": 109
    },
    {
      "midi": 62,
      "hit": false,
      "t": 198333.01600000012,
      "d": 551.2143958333181,
      "v": 105
    },
    {
      "midi": 26,
      "hit": false,
      "t": 198333.01600000012,
      "d": 1145.8315000000002,
      "v": 101
    },
    {
      "midi": 55,
      "hit": false,
      "t": 198958.0150000001,
      "d": 390.62437500001397,
      "v": 105
    },
    {
      "midi": 57,
      "hit": false,
      "t": 198958.0150000001,
      "d": 538.1935833333409,
      "v": 109
    },
    {
      "midi": 62,
      "hit": false,
      "t": 198958.0150000001,
      "d": 542.5338541666861,
      "v": 107
    },
    {
      "midi": 38,
      "hit": false,
      "t": 199166.34800000011,
      "d": 347.2216666666791,
      "v": 109
    },
    {
      "midi": 38,
      "hit": false,
      "t": 199583.01400000014,
      "d": 581.5962916666758,
      "v": 89
    },
    {
      "midi": 54,
      "hit": false,
      "t": 199583.01400000014,
      "d": 967.8803958333156,
      "v": 109
    },
    {
      "midi": 57,
      "hit": false,
      "t": 199583.01400000014,
      "d": 1167.5328541666386,
      "v": 101
    },
    {
      "midi": 62,
      "hit": false,
      "t": 199583.01400000014,
      "d": 1193.5744791666511,
      "v": 105
    },
    {
      "midi": 26,
      "hit": false,
      "t": 199583.01400000014,
      "d": 1419.2685624999867,
      "v": 107
    },
    {
      "midi": 38,
      "hit": false,
      "t": 200416.34600000014,
      "d": 564.2352083333244,
      "v": 105
    },
    {
      "midi": 54,
      "hit": false,
      "t": 200624.67900000012,
      "d": 147.56920833332697,
      "v": 86
    },
    {
      "midi": 57,
      "hit": false,
      "t": 200833.01200000013,
      "d": 425.3465416666586,
      "v": 109
    },
    {
      "midi": 54,
      "hit": false,
      "t": 200833.01200000013,
      "d": 429.6868125000037,
      "v": 96
    },
    {
      "midi": 62,
      "hit": false,
      "t": 200833.01200000013,
      "d": 438.3673541666649,
      "v": 88
    },
    {
      "midi": 26,
      "hit": false,
      "t": 201249.67800000013,
      "d": 247.39543750000303,
      "v": 96
    },
    {
      "midi": 38,
      "hit": false,
      "t": 201249.67800000013,
      "d": 260.4162500000093,
      "v": 90
    },
    {
      "midi": 67,
      "hit": false,
      "t": 201666.34400000013,
      "d": 729.1655000000028,
      "v": 107
    },
    {
      "midi": 62,
      "hit": false,
      "t": 201666.34400000013,
      "d": 772.5682083333377,
      "v": 109
    },
    {
      "midi": 59,
      "hit": false,
      "t": 201666.34400000013,
      "d": 776.9084791666828,
      "v": 109
    },
    {
      "midi": 31,
      "hit": false,
      "t": 201666.34400000013,
      "d": 1401.9074791666935,
      "v": 111
    },
    {
      "midi": 43,
      "hit": false,
      "t": 201666.34400000013,
      "d": 1527.7753333333822,
      "v": 109
    },
    {
      "midi": 59,
      "hit": false,
      "t": 202499.67600000015,
      "d": 312.49950000000536,
      "v": 92
    },
    {
      "midi": 67,
      "hit": false,
      "t": 202499.67600000015,
      "d": 1575.518312500033,
      "v": 103
    },
    {
      "midi": 62,
      "hit": false,
      "t": 202499.67600000015,
      "d": 1588.5391250000393,
      "v": 90
    },
    {
      "midi": 59,
      "hit": false,
      "t": 203124.67500000016,
      "d": 455.7284375000163,
      "v": 67
    },
    {
      "midi": 31,
      "hit": false,
      "t": 203333.00800000018,
      "d": 911.4568750000326,
      "v": 105
    },
    {
      "midi": 43,
      "hit": false,
      "t": 203541.3410000002,
      "d": 733.5057708333479,
      "v": 86
    },
    {
      "midi": 59,
      "hit": false,
      "t": 203749.67400000017,
      "d": 342.88139583336306,
      "v": 73
    },
    {
      "midi": 62,
      "hit": false,
      "t": 204166.3400000002,
      "d": 572.9157499999856,
      "v": 107
    },
    {
      "midi": 67,
      "hit": false,
      "t": 204166.3400000002,
      "d": 572.9157499999856,
      "v": 107
    },
    {
      "midi": 59,
      "hit": false,
      "t": 204166.3400000002,
      "d": 590.2768333333079,
      "v": 107
    },
    {
      "midi": 43,
      "hit": false,
      "t": 204583.0060000002,
      "d": 360.24247916665627,
      "v": 88
    },
    {
      "midi": 64,
      "hit": false,
      "t": 204999.6720000002,
      "d": 733.5057708333479,
      "v": 109
    },
    {
      "midi": 59,
      "hit": false,
      "t": 204999.6720000002,
      "d": 737.846041666693,
      "v": 109
    },
    {
      "midi": 35,
      "hit": false,
      "t": 204999.6720000002,
      "d": 3185.7587916666816,
      "v": 109
    },
    {
      "midi": 47,
      "hit": false,
      "t": 205624.6710000002,
      "d": 915.7971458333486,
      "v": 98
    },
    {
      "midi": 59,
      "hit": false,
      "t": 205833.00400000022,
      "d": 729.1655000000028,
      "v": 107
    },
    {
      "midi": 63,
      "hit": false,
      "t": 205833.00400000022,
      "d": 737.846041666664,
      "v": 120
    },
    {
      "midi": 59,
      "hit": false,
      "t": 206666.3360000002,
      "d": 755.2071249999863,
      "v": 111
    },
    {
      "midi": 47,
      "hit": false,
      "t": 206666.3360000002,
      "d": 776.9084791666537,
      "v": 109
    },
    {
      "midi": 47,
      "hit": false,
      "t": 207499.6680000002,
      "d": 716.1446874999965,
      "v": 101
    },
    {
      "midi": 63,
      "hit": false,
      "t": 207499.6680000002,
      "d": 859.3736250000075,
      "v": 107
    },
    {
      "midi": 57,
      "hit": false,
      "t": 207499.6680000002,
      "d": 868.0541666666686,
      "v": 96
    },
    {
      "midi": 48,
      "hit": false,
      "t": 208333.0000000002,
      "d": 789.92929166666,
      "v": 118
    },
    {
      "midi": 55,
      "hit": false,
      "t": 209166.3320000002,
      "d": 1501.7337083333114,
      "v": 84
    },
    {
      "midi": 60,
      "hit": false,
      "t": 209166.3320000002,
      "d": 1566.8377708333137,
      "v": 96
    },
    {
      "midi": 36,
      "hit": false,
      "t": 209582.9980000002,
      "d": 1493.0531666666502,
      "v": 96
    },
    {
      "midi": 43,
      "hit": false,
      "t": 209999.6640000002,
      "d": 1176.2133958333288,
      "v": 107
    },
    {
      "midi": 48,
      "hit": false,
      "t": 210416.3300000002,
      "d": 733.5057708333188,
      "v": 96
    },
    {
      "midi": 55,
      "hit": false,
      "t": 210832.9960000002,
      "d": 759.5473958333314,
      "v": 103
    },
    {
      "midi": 60,
      "hit": false,
      "t": 210832.9960000002,
      "d": 763.8876666666765,
      "v": 103
    },
    {
      "midi": 55,
      "hit": false,
      "t": 211666.3280000002,
      "d": 698.7836041666742,
      "v": 109
    },
    {
      "midi": 59,
      "hit": false,
      "t": 211666.3280000002,
      "d": 724.8252291666868,
      "v": 113
    },
    {
      "midi": 31,
      "hit": false,
      "t": 211666.3280000002,
      "d": 911.4568750000326,
      "v": 103
    },
    {
      "midi": 43,
      "hit": false,
      "t": 211666.3280000002,
      "d": 920.1374166666938,
      "v": 109
    },
    {
      "midi": 55,
      "hit": false,
      "t": 212499.66000000024,
      "d": 368.9230208333465,
      "v": 86
    },
    {
      "midi": 59,
      "hit": false,
      "t": 212499.66000000024,
      "d": 373.26329166669166,
      "v": 96
    },
    {
      "midi": 62,
      "hit": false,
      "t": 212499.66000000024,
      "d": 412.3257291666814,
      "v": 96
    },
    {
      "midi": 43,
      "hit": false,
      "t": 212916.32600000026,
      "d": 390.62437500001397,
      "v": 94
    },
    {
      "midi": 31,
      "hit": false,
      "t": 212916.32600000026,
      "d": 394.9646458333591,
      "v": 98
    },
    {
      "midi": 67,
      "hit": false,
      "t": 213124.65900000028,
      "d": 312.49950000000536,
      "v": 107
    },
    {
      "midi": 59,
      "hit": false,
      "t": 213124.65900000028,
      "d": 325.52031250001164,
      "v": 111
    },
    {
      "midi": 62,
      "hit": false,
      "t": 213124.65900000028,
      "d": 338.5411250000179,
      "v": 115
    },
    {
      "midi": 43,
      "hit": false,
      "t": 213332.9920000003,
      "d": 282.11760416667676,
      "v": 94
    },
    {
      "midi": 31,
      "hit": false,
      "t": 213332.9920000003,
      "d": 295.13841666668304,
      "v": 98
    },
    {
      "midi": 62,
      "hit": false,
      "t": 213541.3250000003,
      "d": 564.2352083333535,
      "v": 107
    },
    {
      "midi": 67,
      "hit": false,
      "t": 213541.3250000003,
      "d": 577.2560208333598,
      "v": 105
    },
    {
      "midi": 59,
      "hit": false,
      "t": 213541.3250000003,
      "d": 585.936562500021,
      "v": 111
    },
    {
      "midi": 31,
      "hit": false,
      "t": 213749.65800000032,
      "d": 533.8533124999958,
      "v": 105
    },
    {
      "midi": 43,
      "hit": false,
      "t": 213749.65800000032,
      "d": 611.9781875000044,
      "v": 90
    },
    {
      "midi": 59,
      "hit": false,
      "t": 214166.3240000003,
      "d": 499.1311458333221,
      "v": 105
    },
    {
      "midi": 62,
      "hit": false,
      "t": 214166.3240000003,
      "d": 503.4714166666672,
      "v": 103
    },
    {
      "midi": 67,
      "hit": false,
      "t": 214166.3240000003,
      "d": 516.4922291666735,
      "v": 105
    },
    {
      "midi": 31,
      "hit": false,
      "t": 214582.9900000003,
      "d": 277.7773333333316,
      "v": 105
    },
    {
      "midi": 43,
      "hit": false,
      "t": 214582.9900000003,
      "d": 303.8189583333442,
      "v": 92
    },
    {
      "midi": 67,
      "hit": false,
      "t": 214999.6560000003,
      "d": 729.1655000000028,
      "v": 107
    },
    {
      "midi": 62,
      "hit": false,
      "t": 214999.6560000003,
      "d": 772.5682083333377,
      "v": 109
    },
    {
      "midi": 59,
      "hit": false,
      "t": 214999.6560000003,
      "d": 776.9084791666828,
      "v": 109
    },
    {
      "midi": 31,
      "hit": false,
      "t": 214999.6560000003,
      "d": 1401.9074791666935,
      "v": 111
    },
    {
      "midi": 43,
      "hit": false,
      "t": 214999.6560000003,
      "d": 1527.7753333333822,
      "v": 109
    },
    {
      "midi": 59,
      "hit": false,
      "t": 215832.98800000033,
      "d": 312.49950000000536,
      "v": 92
    },
    {
      "midi": 67,
      "hit": false,
      "t": 215832.98800000033,
      "d": 1575.518312500033,
      "v": 103
    },
    {
      "midi": 62,
      "hit": false,
      "t": 215832.98800000033,
      "d": 1588.5391250000393,
      "v": 90
    },
    {
      "midi": 59,
      "hit": false,
      "t": 216457.98700000034,
      "d": 455.7284375000163,
      "v": 67
    },
    {
      "midi": 31,
      "hit": false,
      "t": 216666.32000000036,
      "d": 911.4568750000326,
      "v": 105
    },
    {
      "midi": 43,
      "hit": false,
      "t": 216874.65300000037,
      "d": 733.5057708333479,
      "v": 86
    },
    {
      "midi": 59,
      "hit": false,
      "t": 217082.98600000035,
      "d": 342.88139583336306,
      "v": 73
    },
    {
      "midi": 62,
      "hit": false,
      "t": 217499.65200000038,
      "d": 572.9157499999856,
      "v": 107
    },
    {
      "midi": 67,
      "hit": false,
      "t": 217499.65200000038,
      "d": 572.9157499999856,
      "v": 107
    },
    {
      "midi": 59,
      "hit": false,
      "t": 217499.65200000038,
      "d": 590.2768333333079,
      "v": 107
    },
    {
      "midi": 43,
      "hit": false,
      "t": 217916.31800000038,
      "d": 360.24247916665627,
      "v": 88
    },
    {
      "midi": 64,
      "hit": false,
      "t": 218332.98400000038,
      "d": 733.5057708333479,
      "v": 109
    },
    {
      "midi": 59,
      "hit": false,
      "t": 218332.98400000038,
      "d": 737.846041666693,
      "v": 109
    },
    {
      "midi": 35,
      "hit": false,
      "t": 218332.98400000038,
      "d": 3185.7587916666816,
      "v": 109
    },
    {
      "midi": 47,
      "hit": false,
      "t": 218957.9830000004,
      "d": 915.7971458333486,
      "v": 98
    },
    {
      "midi": 59,
      "hit": false,
      "t": 219166.3160000004,
      "d": 729.1655000000028,
      "v": 107
    },
    {
      "midi": 63,
      "hit": false,
      "t": 219166.3160000004,
      "d": 737.846041666664,
      "v": 120
    },
    {
      "midi": 59,
      "hit": false,
      "t": 219999.6480000004,
      "d": 755.2071249999863,
      "v": 111
    },
    {
      "midi": 47,
      "hit": false,
      "t": 219999.6480000004,
      "d": 776.9084791666537,
      "v": 109
    },
    {
      "midi": 47,
      "hit": false,
      "t": 220832.9800000004,
      "d": 716.1446874999965,
      "v": 101
    },
    {
      "midi": 63,
      "hit": false,
      "t": 220832.9800000004,
      "d": 859.3736250000075,
      "v": 107
    },
    {
      "midi": 57,
      "hit": false,
      "t": 220832.9800000004,
      "d": 868.0541666666686,
      "v": 96
    },
    {
      "midi": 48,
      "hit": false,
      "t": 221666.31200000038,
      "d": 789.92929166666,
      "v": 118
    },
    {
      "midi": 55,
      "hit": false,
      "t": 222499.64400000038,
      "d": 1501.7337083333114,
      "v": 84
    },
    {
      "midi": 60,
      "hit": false,
      "t": 222499.64400000038,
      "d": 1566.8377708333137,
      "v": 96
    },
    {
      "midi": 36,
      "hit": false,
      "t": 222916.31000000038,
      "d": 1493.0531666666502,
      "v": 96
    },
    {
      "midi": 43,
      "hit": false,
      "t": 223332.97600000037,
      "d": 1176.2133958333288,
      "v": 107
    },
    {
      "midi": 48,
      "hit": false,
      "t": 223749.64200000037,
      "d": 733.5057708333188,
      "v": 96
    },
    {
      "midi": 55,
      "hit": false,
      "t": 224166.30800000037,
      "d": 759.5473958333314,
      "v": 103
    },
    {
      "midi": 60,
      "hit": false,
      "t": 224166.30800000037,
      "d": 759.5473958333314,
      "v": 103
    },
    {
      "midi": 55,
      "hit": false,
      "t": 224999.64000000036,
      "d": 698.7836041666742,
      "v": 109
    },
    {
      "midi": 59,
      "hit": false,
      "t": 224999.64000000036,
      "d": 724.8252291666868,
      "v": 113
    },
    {
      "midi": 31,
      "hit": false,
      "t": 224999.64000000036,
      "d": 911.4568750000326,
      "v": 103
    },
    {
      "midi": 43,
      "hit": false,
      "t": 224999.64000000036,
      "d": 920.1374166666938,
      "v": 109
    },
    {
      "midi": 55,
      "hit": false,
      "t": 225832.9720000004,
      "d": 368.9230208333465,
      "v": 86
    },
    {
      "midi": 59,
      "hit": false,
      "t": 225832.9720000004,
      "d": 373.26329166669166,
      "v": 96
    },
    {
      "midi": 62,
      "hit": false,
      "t": 225832.9720000004,
      "d": 412.3257291666814,
      "v": 96
    },
    {
      "midi": 43,
      "hit": false,
      "t": 226249.6380000004,
      "d": 390.62437500001397,
      "v": 94
    },
    {
      "midi": 31,
      "hit": false,
      "t": 226249.6380000004,
      "d": 394.9646458333591,
      "v": 98
    },
    {
      "midi": 67,
      "hit": false,
      "t": 226457.97100000043,
      "d": 312.49950000000536,
      "v": 107
    },
    {
      "midi": 59,
      "hit": false,
      "t": 226457.97100000043,
      "d": 325.52031250001164,
      "v": 111
    },
    {
      "midi": 62,
      "hit": false,
      "t": 226457.97100000043,
      "d": 338.5411250000179,
      "v": 115
    },
    {
      "midi": 43,
      "hit": false,
      "t": 226666.30400000044,
      "d": 282.11760416667676,
      "v": 94
    },
    {
      "midi": 31,
      "hit": false,
      "t": 226666.30400000044,
      "d": 295.13841666668304,
      "v": 98
    },
    {
      "midi": 62,
      "hit": false,
      "t": 226874.63700000045,
      "d": 564.2352083333535,
      "v": 107
    },
    {
      "midi": 67,
      "hit": false,
      "t": 226874.63700000045,
      "d": 577.2560208333598,
      "v": 105
    },
    {
      "midi": 59,
      "hit": false,
      "t": 226874.63700000045,
      "d": 585.936562500021,
      "v": 111
    },
    {
      "midi": 31,
      "hit": false,
      "t": 227082.97000000047,
      "d": 533.8533124999958,
      "v": 105
    },
    {
      "midi": 43,
      "hit": false,
      "t": 227082.97000000047,
      "d": 611.9781875000044,
      "v": 90
    },
    {
      "midi": 59,
      "hit": false,
      "t": 227499.63600000046,
      "d": 499.1311458333221,
      "v": 105
    },
    {
      "midi": 62,
      "hit": false,
      "t": 227499.63600000046,
      "d": 503.4714166666672,
      "v": 103
    },
    {
      "midi": 67,
      "hit": false,
      "t": 227499.63600000046,
      "d": 516.4922291666735,
      "v": 105
    },
    {
      "midi": 31,
      "hit": false,
      "t": 227916.30200000046,
      "d": 277.7773333333316,
      "v": 105
    },
    {
      "midi": 43,
      "hit": false,
      "t": 227916.30200000046,
      "d": 303.8189583333442,
      "v": 92
    },
    {
      "midi": 67,
      "hit": false,
      "t": 228332.96800000046,
      "d": 729.1655000000028,
      "v": 107
    },
    {
      "midi": 62,
      "hit": false,
      "t": 228332.96800000046,
      "d": 772.5682083333377,
      "v": 109
    },
    {
      "midi": 59,
      "hit": false,
      "t": 228332.96800000046,
      "d": 776.9084791666828,
      "v": 109
    },
    {
      "midi": 31,
      "hit": false,
      "t": 228332.96800000046,
      "d": 1506.0739791667147,
      "v": 111
    },
    {
      "midi": 43,
      "hit": false,
      "t": 228332.96800000046,
      "d": 1527.7753333333822,
      "v": 109
    },
    {
      "midi": 59,
      "hit": false,
      "t": 229166.30000000048,
      "d": 312.49950000000536,
      "v": 92
    },
    {
      "midi": 67,
      "hit": false,
      "t": 229166.30000000048,
      "d": 1575.518312500033,
      "v": 103
    },
    {
      "midi": 62,
      "hit": false,
      "t": 229166.30000000048,
      "d": 1588.5391250000393,
      "v": 90
    },
    {
      "midi": 59,
      "hit": false,
      "t": 229791.2990000005,
      "d": 455.7284375000163,
      "v": 67
    },
    {
      "midi": 31,
      "hit": false,
      "t": 229999.6320000005,
      "d": 911.4568750000326,
      "v": 105
    },
    {
      "midi": 43,
      "hit": false,
      "t": 230207.96500000052,
      "d": 733.5057708333479,
      "v": 86
    },
    {
      "midi": 59,
      "hit": false,
      "t": 230416.2980000005,
      "d": 342.88139583336306,
      "v": 73
    },
    {
      "midi": 62,
      "hit": false,
      "t": 230832.96400000053,
      "d": 572.9157499999856,
      "v": 107
    },
    {
      "midi": 67,
      "hit": false,
      "t": 230832.96400000053,
      "d": 572.9157499999856,
      "v": 107
    },
    {
      "midi": 59,
      "hit": false,
      "t": 230832.96400000053,
      "d": 590.2768333333079,
      "v": 107
    },
    {
      "midi": 43,
      "hit": false,
      "t": 231249.63000000053,
      "d": 360.24247916665627,
      "v": 88
    },
    {
      "midi": 64,
      "hit": false,
      "t": 231666.29600000053,
      "d": 733.5057708333479,
      "v": 109
    },
    {
      "midi": 59,
      "hit": false,
      "t": 231666.29600000053,
      "d": 737.846041666693,
      "v": 109
    },
    {
      "midi": 35,
      "hit": false,
      "t": 231666.29600000053,
      "d": 3081.5922916666896,
      "v": 109
    },
    {
      "midi": 47,
      "hit": false,
      "t": 232291.29500000054,
      "d": 915.7971458333486,
      "v": 98
    },
    {
      "midi": 59,
      "hit": false,
      "t": 232499.62800000055,
      "d": 729.1655000000028,
      "v": 107
    },
    {
      "midi": 63,
      "hit": false,
      "t": 232499.62800000055,
      "d": 737.846041666664,
      "v": 120
    },
    {
      "midi": 59,
      "hit": false,
      "t": 233332.96000000054,
      "d": 755.2071249999863,
      "v": 111
    },
    {
      "midi": 47,
      "hit": false,
      "t": 233332.96000000054,
      "d": 776.9084791666537,
      "v": 109
    },
    {
      "midi": 47,
      "hit": false,
      "t": 234166.29200000054,
      "d": 716.1446874999965,
      "v": 101
    },
    {
      "midi": 63,
      "hit": false,
      "t": 234166.29200000054,
      "d": 859.3736250000075,
      "v": 107
    },
    {
      "midi": 57,
      "hit": false,
      "t": 234166.29200000054,
      "d": 868.0541666666686,
      "v": 96
    },
    {
      "midi": 48,
      "hit": false,
      "t": 234999.62400000053,
      "d": 789.92929166666,
      "v": 118
    },
    {
      "midi": 55,
      "hit": false,
      "t": 235832.95600000053,
      "d": 1501.7337083333114,
      "v": 84
    },
    {
      "midi": 60,
      "hit": false,
      "t": 235832.95600000053,
      "d": 1566.8377708333137,
      "v": 96
    },
    {
      "midi": 36,
      "hit": false,
      "t": 236249.62200000053,
      "d": 1493.0531666666502,
      "v": 96
    },
    {
      "midi": 43,
      "hit": false,
      "t": 236666.28800000052,
      "d": 1176.2133958333288,
      "v": 107
    },
    {
      "midi": 48,
      "hit": false,
      "t": 237082.95400000052,
      "d": 733.5057708333188,
      "v": 96
    },
    {
      "midi": 55,
      "hit": false,
      "t": 237499.62000000052,
      "d": 794.2695625000051,
      "v": 103
    },
    {
      "midi": 60,
      "hit": false,
      "t": 237499.62000000052,
      "d": 828.9917291666789,
      "v": 103
    },
    {
      "midi": 55,
      "hit": false,
      "t": 238332.95200000054,
      "d": 698.7836041666742,
      "v": 109
    },
    {
      "midi": 59,
      "hit": false,
      "t": 238332.95200000054,
      "d": 724.8252291666868,
      "v": 113
    },
    {
      "midi": 31,
      "hit": false,
      "t": 238332.95200000054,
      "d": 911.4568750000326,
      "v": 103
    },
    {
      "midi": 43,
      "hit": false,
      "t": 238332.95200000054,
      "d": 920.1374166666938,
      "v": 109
    },
    {
      "midi": 55,
      "hit": false,
      "t": 239166.28400000057,
      "d": 368.9230208333465,
      "v": 86
    },
    {
      "midi": 59,
      "hit": false,
      "t": 239166.28400000057,
      "d": 373.26329166669166,
      "v": 96
    },
    {
      "midi": 62,
      "hit": false,
      "t": 239166.28400000057,
      "d": 412.3257291666814,
      "v": 96
    },
    {
      "midi": 43,
      "hit": false,
      "t": 239582.9500000006,
      "d": 390.62437500001397,
      "v": 94
    },
    {
      "midi": 31,
      "hit": false,
      "t": 239582.9500000006,
      "d": 394.9646458333591,
      "v": 98
    },
    {
      "midi": 67,
      "hit": false,
      "t": 239791.2830000006,
      "d": 312.49950000000536,
      "v": 107
    },
    {
      "midi": 59,
      "hit": false,
      "t": 239791.2830000006,
      "d": 325.52031250001164,
      "v": 111
    },
    {
      "midi": 62,
      "hit": false,
      "t": 239791.2830000006,
      "d": 338.5411250000179,
      "v": 115
    },
    {
      "midi": 43,
      "hit": false,
      "t": 239999.61600000062,
      "d": 282.11760416667676,
      "v": 94
    },
    {
      "midi": 31,
      "hit": false,
      "t": 239999.61600000062,
      "d": 295.13841666668304,
      "v": 98
    },
    {
      "midi": 62,
      "hit": false,
      "t": 240207.94900000063,
      "d": 546.8741250000021,
      "v": 107
    },
    {
      "midi": 67,
      "hit": false,
      "t": 240207.94900000063,
      "d": 559.8949375000084,
      "v": 105
    },
    {
      "midi": 59,
      "hit": false,
      "t": 240207.94900000063,
      "d": 585.936562500021,
      "v": 111
    },
    {
      "midi": 31,
      "hit": false,
      "t": 240416.28200000065,
      "d": 533.8533124999958,
      "v": 105
    },
    {
      "midi": 43,
      "hit": false,
      "t": 240416.28200000065,
      "d": 611.9781875000044,
      "v": 90
    },
    {
      "midi": 59,
      "hit": false,
      "t": 240832.94800000064,
      "d": 499.1311458333221,
      "v": 105
    },
    {
      "midi": 62,
      "hit": false,
      "t": 240832.94800000064,
      "d": 503.4714166666672,
      "v": 103
    },
    {
      "midi": 67,
      "hit": false,
      "t": 240832.94800000064,
      "d": 516.4922291666735,
      "v": 105
    },
    {
      "midi": 31,
      "hit": false,
      "t": 241249.61400000064,
      "d": 277.7773333333316,
      "v": 105
    },
    {
      "midi": 43,
      "hit": false,
      "t": 241249.61400000064,
      "d": 303.8189583333442,
      "v": 92
    },
    {
      "midi": 67,
      "hit": false,
      "t": 241666.28000000064,
      "d": 729.1655000000028,
      "v": 107
    },
    {
      "midi": 62,
      "hit": false,
      "t": 241666.28000000064,
      "d": 772.5682083333377,
      "v": 109
    },
    {
      "midi": 59,
      "hit": false,
      "t": 241666.28000000064,
      "d": 776.9084791666828,
      "v": 109
    },
    {
      "midi": 31,
      "hit": false,
      "t": 241666.28000000064,
      "d": 1401.9074791666935,
      "v": 111
    },
    {
      "midi": 43,
      "hit": false,
      "t": 241666.28000000064,
      "d": 1527.7753333333822,
      "v": 109
    },
    {
      "midi": 59,
      "hit": false,
      "t": 242499.61200000066,
      "d": 312.49950000000536,
      "v": 92
    },
    {
      "midi": 67,
      "hit": false,
      "t": 242499.61200000066,
      "d": 1575.518312500033,
      "v": 103
    },
    {
      "midi": 62,
      "hit": false,
      "t": 242499.61200000066,
      "d": 1588.5391250000393,
      "v": 90
    },
    {
      "midi": 59,
      "hit": false,
      "t": 243124.61100000067,
      "d": 455.7284375000163,
      "v": 67
    },
    {
      "midi": 31,
      "hit": false,
      "t": 243332.9440000007,
      "d": 911.4568750000326,
      "v": 105
    },
    {
      "midi": 43,
      "hit": false,
      "t": 243541.2770000007,
      "d": 733.5057708333479,
      "v": 86
    },
    {
      "midi": 59,
      "hit": false,
      "t": 243749.61000000068,
      "d": 342.88139583336306,
      "v": 73
    },
    {
      "midi": 62,
      "hit": false,
      "t": 244166.2760000007,
      "d": 572.9157499999856,
      "v": 107
    },
    {
      "midi": 67,
      "hit": false,
      "t": 244166.2760000007,
      "d": 572.9157499999856,
      "v": 107
    },
    {
      "midi": 59,
      "hit": false,
      "t": 244166.2760000007,
      "d": 590.2768333333079,
      "v": 107
    },
    {
      "midi": 43,
      "hit": false,
      "t": 244582.9420000007,
      "d": 360.24247916665627,
      "v": 88
    },
    {
      "midi": 64,
      "hit": false,
      "t": 244999.6080000007,
      "d": 733.5057708333479,
      "v": 109
    },
    {
      "midi": 59,
      "hit": false,
      "t": 244999.6080000007,
      "d": 737.846041666693,
      "v": 109
    },
    {
      "midi": 35,
      "hit": false,
      "t": 244999.6080000007,
      "d": 3185.7587916666816,
      "v": 109
    },
    {
      "midi": 47,
      "hit": false,
      "t": 245624.60700000072,
      "d": 915.7971458333486,
      "v": 98
    },
    {
      "midi": 59,
      "hit": false,
      "t": 245832.94000000073,
      "d": 729.1655000000028,
      "v": 107
    },
    {
      "midi": 63,
      "hit": false,
      "t": 245832.94000000073,
      "d": 737.846041666664,
      "v": 120
    },
    {
      "midi": 59,
      "hit": false,
      "t": 246666.27200000072,
      "d": 755.2071249999863,
      "v": 111
    },
    {
      "midi": 47,
      "hit": false,
      "t": 246666.27200000072,
      "d": 776.9084791666537,
      "v": 109
    },
    {
      "midi": 47,
      "hit": false,
      "t": 247499.60400000072,
      "d": 716.1446874999965,
      "v": 101
    },
    {
      "midi": 63,
      "hit": false,
      "t": 247499.60400000072,
      "d": 859.3736250000075,
      "v": 107
    },
    {
      "midi": 57,
      "hit": false,
      "t": 247499.60400000072,
      "d": 868.0541666666686,
      "v": 96
    },
    {
      "midi": 48,
      "hit": false,
      "t": 248332.93600000071,
      "d": 789.92929166666,
      "v": 118
    },
    {
      "midi": 55,
      "hit": false,
      "t": 249166.2680000007,
      "d": 1501.7337083333114,
      "v": 84
    },
    {
      "midi": 60,
      "hit": false,
      "t": 249166.2680000007,
      "d": 1566.8377708333137,
      "v": 96
    },
    {
      "midi": 36,
      "hit": false,
      "t": 249582.9340000007,
      "d": 1493.0531666666502,
      "v": 96
    },
    {
      "midi": 43,
      "hit": false,
      "t": 249999.6000000007,
      "d": 1176.2133958333288,
      "v": 107
    },
    {
      "midi": 48,
      "hit": false,
      "t": 250416.2660000007,
      "d": 733.5057708333188,
      "v": 96
    },
    {
      "midi": 55,
      "hit": false,
      "t": 250832.9320000007,
      "d": 742.1863125000091,
      "v": 103
    },
    {
      "midi": 60,
      "hit": false,
      "t": 250832.9320000007,
      "d": 833.3319999999949,
      "v": 103
    },
    {
      "midi": 55,
      "hit": false,
      "t": 251666.2640000007,
      "d": 698.7836041666742,
      "v": 109
    },
    {
      "midi": 59,
      "hit": false,
      "t": 251666.2640000007,
      "d": 724.8252291666868,
      "v": 113
    },
    {
      "midi": 31,
      "hit": false,
      "t": 251666.2640000007,
      "d": 911.4568750000326,
      "v": 103
    },
    {
      "midi": 43,
      "hit": false,
      "t": 251666.2640000007,
      "d": 920.1374166666938,
      "v": 109
    },
    {
      "midi": 55,
      "hit": false,
      "t": 252499.59600000072,
      "d": 368.9230208333465,
      "v": 86
    },
    {
      "midi": 59,
      "hit": false,
      "t": 252499.59600000072,
      "d": 373.26329166669166,
      "v": 96
    },
    {
      "midi": 62,
      "hit": false,
      "t": 252499.59600000072,
      "d": 412.3257291666814,
      "v": 96
    },
    {
      "midi": 31,
      "hit": false,
      "t": 252916.26200000074,
      "d": 360.24247916668537,
      "v": 98
    },
    {
      "midi": 43,
      "hit": false,
      "t": 252916.26200000074,
      "d": 390.62437500001397,
      "v": 94
    },
    {
      "midi": 67,
      "hit": false,
      "t": 253124.59500000076,
      "d": 312.49950000000536,
      "v": 107
    },
    {
      "midi": 59,
      "hit": false,
      "t": 253124.59500000076,
      "d": 325.52031250001164,
      "v": 111
    },
    {
      "midi": 62,
      "hit": false,
      "t": 253124.59500000076,
      "d": 338.5411250000179,
      "v": 115
    },
    {
      "midi": 43,
      "hit": false,
      "t": 253332.92800000077,
      "d": 282.11760416667676,
      "v": 94
    },
    {
      "midi": 31,
      "hit": false,
      "t": 253332.92800000077,
      "d": 295.13841666668304,
      "v": 98
    },
    {
      "midi": 62,
      "hit": false,
      "t": 253541.26100000078,
      "d": 546.8741250000021,
      "v": 107
    },
    {
      "midi": 67,
      "hit": false,
      "t": 253541.26100000078,
      "d": 559.8949375000084,
      "v": 105
    },
    {
      "midi": 59,
      "hit": false,
      "t": 253541.26100000078,
      "d": 585.936562500021,
      "v": 111
    },
    {
      "midi": 31,
      "hit": false,
      "t": 253749.5940000008,
      "d": 533.8533124999958,
      "v": 105
    },
    {
      "midi": 43,
      "hit": false,
      "t": 253749.5940000008,
      "d": 611.9781875000044,
      "v": 90
    },
    {
      "midi": 59,
      "hit": false,
      "t": 254166.2600000008,
      "d": 499.1311458333221,
      "v": 105
    },
    {
      "midi": 62,
      "hit": false,
      "t": 254166.2600000008,
      "d": 503.4714166666672,
      "v": 103
    },
    {
      "midi": 67,
      "hit": false,
      "t": 254166.2600000008,
      "d": 516.4922291666735,
      "v": 105
    },
    {
      "midi": 31,
      "hit": false,
      "t": 254582.9260000008,
      "d": 277.7773333333316,
      "v": 105
    },
    {
      "midi": 43,
      "hit": false,
      "t": 254582.9260000008,
      "d": 303.8189583333442,
      "v": 92
    },
    {
      "midi": 67,
      "hit": false,
      "t": 254999.5920000008,
      "d": 729.1655000000028,
      "v": 107
    },
    {
      "midi": 62,
      "hit": false,
      "t": 254999.5920000008,
      "d": 772.5682083333377,
      "v": 109
    },
    {
      "midi": 59,
      "hit": false,
      "t": 254999.5920000008,
      "d": 776.9084791666828,
      "v": 109
    },
    {
      "midi": 31,
      "hit": false,
      "t": 254999.5920000008,
      "d": 1401.9074791666935,
      "v": 111
    },
    {
      "midi": 43,
      "hit": false,
      "t": 254999.5920000008,
      "d": 1527.7753333333822,
      "v": 109
    },
    {
      "midi": 59,
      "hit": false,
      "t": 255832.9240000008,
      "d": 312.49950000000536,
      "v": 92
    },
    {
      "midi": 67,
      "hit": false,
      "t": 255832.9240000008,
      "d": 1575.518312500033,
      "v": 103
    },
    {
      "midi": 62,
      "hit": false,
      "t": 255832.9240000008,
      "d": 1588.5391250000393,
      "v": 90
    },
    {
      "midi": 59,
      "hit": false,
      "t": 256457.92300000082,
      "d": 455.7284375000163,
      "v": 67
    },
    {
      "midi": 31,
      "hit": false,
      "t": 256666.25600000084,
      "d": 911.4568750000326,
      "v": 105
    },
    {
      "midi": 43,
      "hit": false,
      "t": 256874.58900000085,
      "d": 733.5057708333479,
      "v": 86
    },
    {
      "midi": 59,
      "hit": false,
      "t": 257082.92200000084,
      "d": 342.88139583336306,
      "v": 73
    },
    {
      "midi": 62,
      "hit": false,
      "t": 257499.58800000086,
      "d": 572.9157499999856,
      "v": 107
    },
    {
      "midi": 67,
      "hit": false,
      "t": 257499.58800000086,
      "d": 572.9157499999856,
      "v": 107
    },
    {
      "midi": 59,
      "hit": false,
      "t": 257499.58800000086,
      "d": 590.2768333333079,
      "v": 107
    },
    {
      "midi": 43,
      "hit": false,
      "t": 257916.25400000086,
      "d": 360.24247916665627,
      "v": 88
    },
    {
      "midi": 64,
      "hit": false,
      "t": 258332.92000000086,
      "d": 733.5057708333479,
      "v": 109
    },
    {
      "midi": 59,
      "hit": false,
      "t": 258332.92000000086,
      "d": 737.846041666693,
      "v": 109
    },
    {
      "midi": 35,
      "hit": false,
      "t": 258332.92000000086,
      "d": 3185.7587916666816,
      "v": 109
    },
    {
      "midi": 47,
      "hit": false,
      "t": 258957.91900000087,
      "d": 915.7971458333486,
      "v": 98
    },
    {
      "midi": 59,
      "hit": false,
      "t": 259166.25200000088,
      "d": 729.1655000000028,
      "v": 107
    },
    {
      "midi": 63,
      "hit": false,
      "t": 259166.25200000088,
      "d": 737.846041666664,
      "v": 120
    },
    {
      "midi": 59,
      "hit": false,
      "t": 259999.58400000088,
      "d": 755.2071249999863,
      "v": 111
    },
    {
      "midi": 47,
      "hit": false,
      "t": 259999.58400000088,
      "d": 776.9084791666537,
      "v": 109
    },
    {
      "midi": 47,
      "hit": false,
      "t": 260832.91600000087,
      "d": 716.1446874999965,
      "v": 101
    },
    {
      "midi": 63,
      "hit": false,
      "t": 260832.91600000087,
      "d": 859.3736250000075,
      "v": 107
    },
    {
      "midi": 57,
      "hit": false,
      "t": 260832.91600000087,
      "d": 868.0541666666686,
      "v": 96
    },
    {
      "midi": 48,
      "hit": false,
      "t": 261666.24800000087,
      "d": 789.9292916666891,
      "v": 118
    },
    {
      "midi": 55,
      "hit": false,
      "t": 262499.5800000009,
      "d": 1501.7337083333987,
      "v": 84
    },
    {
      "midi": 60,
      "hit": false,
      "t": 262499.5800000009,
      "d": 1566.837770833401,
      "v": 96
    },
    {
      "midi": 36,
      "hit": false,
      "t": 262916.2460000009,
      "d": 1493.0531666667084,
      "v": 96
    },
    {
      "midi": 43,
      "hit": false,
      "t": 263332.91200000094,
      "d": 1176.213395833387,
      "v": 107
    },
    {
      "midi": 48,
      "hit": false,
      "t": 263749.57800000097,
      "d": 733.5057708333479,
      "v": 96
    },
    {
      "midi": 55,
      "hit": false,
      "t": 264166.24400000094,
      "d": 828.991729166708,
      "v": 103
    },
    {
      "midi": 60,
      "hit": false,
      "t": 264166.24400000094,
      "d": 828.991729166708,
      "v": 103
    },
    {
      "midi": 67,
      "hit": false,
      "t": 264999.576000001,
      "d": 690.103062500013,
      "v": 107
    },
    {
      "midi": 59,
      "hit": false,
      "t": 264999.576000001,
      "d": 720.4849583333707,
      "v": 107
    },
    {
      "midi": 31,
      "hit": false,
      "t": 264999.576000001,
      "d": 1940.1010625000927,
      "v": 107
    },
    {
      "midi": 43,
      "hit": false,
      "t": 265416.242000001,
      "d": 1705.7264375000377,
      "v": 94
    },
    {
      "midi": 59,
      "hit": false,
      "t": 265832.90800000104,
      "d": 429.6868125000037,
      "v": 105
    },
    {
      "midi": 67,
      "hit": false,
      "t": 265832.90800000104,
      "d": 733.5057708333479,
      "v": 107
    },
    {
      "midi": 62,
      "hit": false,
      "t": 265832.90800000104,
      "d": 763.8876666667056,
      "v": 109
    },
    {
      "midi": 59,
      "hit": false,
      "t": 266457.90700000105,
      "d": 169.27056250005262,
      "v": 75
    },
    {
      "midi": 59,
      "hit": false,
      "t": 266666.2400000011,
      "d": 698.7836041666451,
      "v": 92
    },
    {
      "midi": 62,
      "hit": false,
      "t": 266666.2400000011,
      "d": 772.5682083333377,
      "v": 96
    },
    {
      "midi": 67,
      "hit": false,
      "t": 266666.2400000011,
      "d": 972.2206666666898,
      "v": 105
    },
    {
      "midi": 31,
      "hit": false,
      "t": 267291.23900000105,
      "d": 768.2279375000508,
      "v": 109
    },
    {
      "midi": 59,
      "hit": false,
      "t": 267499.5720000011,
      "d": 177.95110416668467,
      "v": 84
    },
    {
      "midi": 62,
      "hit": false,
      "t": 267499.5720000011,
      "d": 182.2913750000298,
      "v": 88
    },
    {
      "midi": 43,
      "hit": false,
      "t": 267499.5720000011,
      "d": 559.8949375000084,
      "v": 109
    },
    {
      "midi": 67,
      "hit": false,
      "t": 267916.2380000011,
      "d": 164.93029166664928,
      "v": 118
    },
    {
      "midi": 69,
      "hit": false,
      "t": 268124.5710000011,
      "d": 134.5483958333498,
      "v": 120
    },
    {
      "midi": 55,
      "hit": false,
      "t": 268332.90400000114,
      "d": 516.4922291666735,
      "v": 105
    },
    {
      "midi": 59,
      "hit": false,
      "t": 268332.90400000114,
      "d": 516.4922291666735,
      "v": 101
    },
    {
      "midi": 62,
      "hit": false,
      "t": 268332.90400000114,
      "d": 581.5962916666758,
      "v": 105
    },
    {
      "midi": 43,
      "hit": false,
      "t": 268332.90400000114,
      "d": 651.0406250000233,
      "v": 111
    },
    {
      "midi": 57,
      "hit": false,
      "t": 269166.23600000114,
      "d": 95.48595833336003,
      "v": 109
    },
    {
      "midi": 62,
      "hit": false,
      "t": 269166.23600000114,
      "d": 95.48595833336003,
      "v": 109
    },
    {
      "midi": 54,
      "hit": false,
      "t": 269166.23600000114,
      "d": 108.50677083333721,
      "v": 107
    },
    {
      "midi": 42,
      "hit": false,
      "t": 269166.23600000114,
      "d": 156.24975000001723,
      "v": 115
    },
    {
      "midi": 52,
      "hit": false,
      "t": 269582.90200000117,
      "d": 351.5619375000242,
      "v": 98
    },
    {
      "midi": 60,
      "hit": false,
      "t": 269582.90200000117,
      "d": 607.6379166666884,
      "v": 98
    },
    {
      "midi": 55,
      "hit": false,
      "t": 269582.90200000117,
      "d": 1818.5734791666619,
      "v": 105
    },
    {
      "midi": 40,
      "hit": false,
      "t": 269582.90200000117,
      "d": 1957.4621458333568,
      "v": 101
    },
    {
      "midi": 52,
      "hit": false,
      "t": 270207.9010000012,
      "d": 1137.150958333339,
      "v": 89
    },
    {
      "midi": 64,
      "hit": false,
      "t": 270416.23400000116,
      "d": 720.4849583333125,
      "v": 105
    },
    {
      "midi": 62,
      "hit": false,
      "t": 271249.56600000116,
      "d": 282.11760416667676,
      "v": 103
    },
    {
      "midi": 57,
      "hit": false,
      "t": 271666.2320000012,
      "d": 368.9230208333465,
      "v": 109
    },
    {
      "midi": 62,
      "hit": false,
      "t": 271666.2320000012,
      "d": 724.8252291666577,
      "v": 109
    },
    {
      "midi": 66,
      "hit": false,
      "t": 271666.2320000012,
      "d": 729.1655000000028,
      "v": 96
    },
    {
      "midi": 35,
      "hit": false,
      "t": 271666.2320000012,
      "d": 781.2487500000279,
      "v": 105
    },
    {
      "midi": 57,
      "hit": false,
      "t": 272291.2310000012,
      "d": 164.9302916667075,
      "v": 85
    },
    {
      "midi": 62,
      "hit": false,
      "t": 272499.56400000124,
      "d": 277.7773333333316,
      "v": 98
    },
    {
      "midi": 57,
      "hit": false,
      "t": 272499.56400000124,
      "d": 282.11760416667676,
      "v": 109
    },
    {
      "midi": 66,
      "hit": false,
      "t": 272499.56400000124,
      "d": 290.798145833367,
      "v": 94
    },
    {
      "midi": 35,
      "hit": false,
      "t": 272499.56400000124,
      "d": 299.4786875000573,
      "v": 88
    },
    {
      "midi": 64,
      "hit": false,
      "t": 272916.2300000013,
      "d": 1115.4496041666716,
      "v": 103
    },
    {
      "midi": 55,
      "hit": false,
      "t": 272916.2300000013,
      "d": 1119.7898750000168,
      "v": 98
    },
    {
      "midi": 60,
      "hit": false,
      "t": 272916.2300000013,
      "d": 1141.4912291666842,
      "v": 101
    },
    {
      "midi": 33,
      "hit": false,
      "t": 272916.2300000013,
      "d": 1453.9907291666605,
      "v": 111
    },
    {
      "midi": 64,
      "hit": false,
      "t": 274166.22800000134,
      "d": 681.4225208333228,
      "v": 98
    },
    {
      "midi": 55,
      "hit": false,
      "t": 274166.22800000134,
      "d": 690.103062500013,
      "v": 86
    },
    {
      "midi": 60,
      "hit": false,
      "t": 274166.22800000134,
      "d": 698.7836041667033,
      "v": 90
    },
    {
      "midi": 33,
      "hit": false,
      "t": 274582.8940000013,
      "d": 282.11760416673496,
      "v": 103
    },
    {
      "midi": 36,
      "hit": false,
      "t": 274999.5600000014,
      "d": 594.617104166653,
      "v": 107
    },
    {
      "midi": 67,
      "hit": false,
      "t": 274999.5600000014,
      "d": 1072.0468958333367,
      "v": 103
    },
    {
      "midi": 62,
      "hit": false,
      "t": 274999.5600000014,
      "d": 1080.727437500027,
      "v": 109
    },
    {
      "midi": 59,
      "hit": false,
      "t": 274999.5600000014,
      "d": 1085.0677083333721,
      "v": 109
    },
    {
      "midi": 64,
      "hit": false,
      "t": 274999.5600000014,
      "d": 1093.7482500000624,
      "v": 120
    },
    {
      "midi": 36,
      "hit": false,
      "t": 275832.8920000014,
      "d": 377.603562500095,
      "v": 103
    },
    {
      "midi": 67,
      "hit": false,
      "t": 276249.5580000015,
      "d": 3693.570479166694,
      "v": 98
    },
    {
      "midi": 55,
      "hit": false,
      "t": 276249.5580000015,
      "d": 3695.306587500032,
      "v": 98
    },
    {
      "midi": 57,
      "hit": false,
      "t": 276249.5580000015,
      "d": 3697.910750000039,
      "v": 94
    },
    {
      "midi": 64,
      "hit": false,
      "t": 276249.5580000015,
      "d": 3697.910750000039,
      "v": 101
    },
    {
      "midi": 60,
      "hit": false,
      "t": 276249.5580000015,
      "d": 3699.646858333377,
      "v": 94
    },
    {
      "midi": 62,
      "hit": false,
      "t": 276249.5580000015,
      "d": 3712.6676708333544,
      "v": 96
    },
    {
      "midi": 38,
      "hit": false,
      "t": 276249.5580000015,
      "d": 3725.6884833333315,
      "v": 111
    }
  ]
}