{
  "jsonPath": "Classical/Post-Romantic Era/Alexander Glazunov/reverie.json",
  "path": "Classical\\Post-Romantic Era\\Alexander Glazunov\\Rêverie.mid",
  "name": "Rêverie",
  "difficulty": "Advanced",
  "bpm": 66.000066000066,
  "notes": [
    {
      "midi": 53,
      "hit": false,
      "t": 0,
      "d": 1818.18,
      "v": 127
    },
    {
      "midi": 56,
      "hit": false,
      "t": 0,
      "d": 1818.18,
      "v": 127
    },
    {
      "midi": 61,
      "hit": false,
      "t": 0,
      "d": 1818.18,
      "v": 127
    },
    {
      "midi": 65,
      "hit": false,
      "t": 0,
      "d": 1818.18,
      "v": 127
    },
    {
      "midi": 37,
      "hit": false,
      "t": 0,
      "d": 1818.18,
      "v": 127
    },
    {
      "midi": 44,
      "hit": false,
      "t": 0,
      "d": 1818.18,
      "v": 127
    },
    {
      "midi": 49,
      "hit": false,
      "t": 0,
      "d": 1818.18,
      "v": 127
    },
    {
      "midi": 53,
      "hit": false,
      "t": 1818.18,
      "d": 909.0899999999999,
      "v": 127
    },
    {
      "midi": 56,
      "hit": false,
      "t": 1818.18,
      "d": 909.0899999999999,
      "v": 127
    },
    {
      "midi": 61,
      "hit": false,
      "t": 1818.18,
      "d": 909.0899999999999,
      "v": 127
    },
    {
      "midi": 65,
      "hit": false,
      "t": 1818.18,
      "d": 909.0899999999999,
      "v": 127
    },
    {
      "midi": 37,
      "hit": false,
      "t": 1818.18,
      "d": 909.0899999999999,
      "v": 127
    },
    {
      "midi": 44,
      "hit": false,
      "t": 1818.18,
      "d": 909.0899999999999,
      "v": 127
    },
    {
      "midi": 49,
      "hit": false,
      "t": 1818.18,
      "d": 909.0899999999999,
      "v": 127
    },
    {
      "midi": 53,
      "hit": false,
      "t": 2727.27,
      "d": 1818.1799999999998,
      "v": 127
    },
    {
      "midi": 56,
      "hit": false,
      "t": 2727.27,
      "d": 1818.1799999999998,
      "v": 127
    },
    {
      "midi": 61,
      "hit": false,
      "t": 2727.27,
      "d": 1818.1799999999998,
      "v": 127
    },
    {
      "midi": 65,
      "hit": false,
      "t": 2727.27,
      "d": 1818.1799999999998,
      "v": 127
    },
    {
      "midi": 37,
      "hit": false,
      "t": 2727.27,
      "d": 1818.1799999999998,
      "v": 127
    },
    {
      "midi": 44,
      "hit": false,
      "t": 2727.27,
      "d": 1818.1799999999998,
      "v": 127
    },
    {
      "midi": 49,
      "hit": false,
      "t": 2727.27,
      "d": 1818.1799999999998,
      "v": 127
    },
    {
      "midi": 56,
      "hit": false,
      "t": 4545.45,
      "d": 909.0900000000001,
      "v": 127
    },
    {
      "midi": 61,
      "hit": false,
      "t": 4545.45,
      "d": 909.0900000000001,
      "v": 127
    },
    {
      "midi": 65,
      "hit": false,
      "t": 4545.45,
      "d": 909.0900000000001,
      "v": 127
    },
    {
      "midi": 49,
      "hit": false,
      "t": 4545.45,
      "d": 909.0900000000001,
      "v": 127
    },
    {
      "midi": 53,
      "hit": false,
      "t": 4545.45,
      "d": 909.0900000000001,
      "v": 127
    },
    {
      "midi": 58,
      "hit": false,
      "t": 5454.54,
      "d": 1818.1800000000003,
      "v": 127
    },
    {
      "midi": 61,
      "hit": false,
      "t": 5454.54,
      "d": 1818.1800000000003,
      "v": 127
    },
    {
      "midi": 65,
      "hit": false,
      "t": 5454.54,
      "d": 1818.1800000000003,
      "v": 127
    },
    {
      "midi": 42,
      "hit": false,
      "t": 5454.54,
      "d": 1818.1800000000003,
      "v": 127
    },
    {
      "midi": 49,
      "hit": false,
      "t": 5454.54,
      "d": 1818.1800000000003,
      "v": 127
    },
    {
      "midi": 53,
      "hit": false,
      "t": 5454.54,
      "d": 1818.1800000000003,
      "v": 127
    },
    {
      "midi": 56,
      "hit": false,
      "t": 7272.72,
      "d": 909.0900000000001,
      "v": 127
    },
    {
      "midi": 61,
      "hit": false,
      "t": 7272.72,
      "d": 909.0900000000001,
      "v": 127
    },
    {
      "midi": 65,
      "hit": false,
      "t": 7272.72,
      "d": 909.0900000000001,
      "v": 127
    },
    {
      "midi": 49,
      "hit": false,
      "t": 7272.72,
      "d": 909.0900000000001,
      "v": 127
    },
    {
      "midi": 53,
      "hit": false,
      "t": 7272.72,
      "d": 909.0900000000001,
      "v": 127
    },
    {
      "midi": 58,
      "hit": false,
      "t": 8181.81,
      "d": 2727.2699999999995,
      "v": 127
    },
    {
      "midi": 61,
      "hit": false,
      "t": 8181.81,
      "d": 2727.2699999999995,
      "v": 127
    },
    {
      "midi": 65,
      "hit": false,
      "t": 8181.81,
      "d": 2727.2699999999995,
      "v": 127
    },
    {
      "midi": 43,
      "hit": false,
      "t": 8181.81,
      "d": 2727.2699999999995,
      "v": 127
    },
    {
      "midi": 49,
      "hit": false,
      "t": 8181.81,
      "d": 2727.2699999999995,
      "v": 127
    },
    {
      "midi": 53,
      "hit": false,
      "t": 8181.81,
      "d": 2727.2699999999995,
      "v": 127
    },
    {
      "midi": 58,
      "hit": false,
      "t": 10909.08,
      "d": 1818.1800000000003,
      "v": 127
    },
    {
      "midi": 51,
      "hit": false,
      "t": 10909.08,
      "d": 909.0900000000001,
      "v": 127
    },
    {
      "midi": 49,
      "hit": false,
      "t": 11818.17,
      "d": 909.0900000000001,
      "v": 127
    },
    {
      "midi": 57,
      "hit": false,
      "t": 12727.26,
      "d": 909.0900000000001,
      "v": 127
    },
    {
      "midi": 48,
      "hit": false,
      "t": 12727.26,
      "d": 909.0900000000001,
      "v": 127
    },
    {
      "midi": 56,
      "hit": false,
      "t": 13636.35,
      "d": 1818.1800000000003,
      "v": 127
    },
    {
      "midi": 48,
      "hit": false,
      "t": 13636.35,
      "d": 681.8174999999992,
      "v": 127
    },
    {
      "midi": 49,
      "hit": false,
      "t": 14318.1675,
      "d": 227.27249999999913,
      "v": 127
    },
    {
      "midi": 49,
      "hit": false,
      "t": 14545.439999999999,
      "d": 909.0900000000001,
      "v": 127
    },
    {
      "midi": 37,
      "hit": false,
      "t": 15454.529999999999,
      "d": 909.0900000000001,
      "v": 127
    },
    {
      "midi": 49,
      "hit": false,
      "t": 15454.529999999999,
      "d": 909.0900000000001,
      "v": 127
    },
    {
      "midi": 61,
      "hit": false,
      "t": 15454.53,
      "d": 227.27249999999913,
      "v": 127
    },
    {
      "midi": 60,
      "hit": false,
      "t": 15681.8025,
      "d": 227.27249999999913,
      "v": 127
    },
    {
      "midi": 63,
      "hit": false,
      "t": 15681.8025,
      "d": 227.27249999999913,
      "v": 127
    },
    {
      "midi": 59,
      "hit": false,
      "t": 16136.347499999998,
      "d": 227.27249999999913,
      "v": 127
    },
    {
      "midi": 65,
      "hit": false,
      "t": 16136.347499999998,
      "d": 227.27249999999913,
      "v": 127
    },
    {
      "midi": 58,
      "hit": false,
      "t": 16363.619999999997,
      "d": 1818.1799999999985,
      "v": 127
    },
    {
      "midi": 61,
      "hit": false,
      "t": 16363.619999999997,
      "d": 1818.1799999999985,
      "v": 127
    },
    {
      "midi": 65,
      "hit": false,
      "t": 16363.619999999997,
      "d": 1818.1799999999985,
      "v": 127
    },
    {
      "midi": 42,
      "hit": false,
      "t": 16363.619999999999,
      "d": 1818.1800000000003,
      "v": 127
    },
    {
      "midi": 49,
      "hit": false,
      "t": 16363.619999999999,
      "d": 1818.1800000000003,
      "v": 127
    },
    {
      "midi": 61,
      "hit": false,
      "t": 18181.799999999996,
      "d": 227.27249999999913,
      "v": 127
    },
    {
      "midi": 37,
      "hit": false,
      "t": 18181.8,
      "d": 909.0900000000001,
      "v": 127
    },
    {
      "midi": 49,
      "hit": false,
      "t": 18181.8,
      "d": 909.0900000000001,
      "v": 127
    },
    {
      "midi": 60,
      "hit": false,
      "t": 18409.072499999995,
      "d": 227.27249999999913,
      "v": 127
    },
    {
      "midi": 63,
      "hit": false,
      "t": 18409.072499999995,
      "d": 227.27249999999913,
      "v": 127
    },
    {
      "midi": 59,
      "hit": false,
      "t": 18863.617499999993,
      "d": 227.27249999999913,
      "v": 127
    },
    {
      "midi": 65,
      "hit": false,
      "t": 18863.617499999993,
      "d": 227.27249999999913,
      "v": 127
    },
    {
      "midi": 58,
      "hit": false,
      "t": 19090.889999999992,
      "d": 909.0900000000001,
      "v": 127
    },
    {
      "midi": 61,
      "hit": false,
      "t": 19090.889999999992,
      "d": 909.0900000000001,
      "v": 127
    },
    {
      "midi": 65,
      "hit": false,
      "t": 19090.889999999992,
      "d": 909.0900000000001,
      "v": 127
    },
    {
      "midi": 49,
      "hit": false,
      "t": 19090.89,
      "d": 1818.1800000000003,
      "v": 127
    },
    {
      "midi": 58,
      "hit": false,
      "t": 19999.979999999992,
      "d": 1818.1800000000003,
      "v": 127
    },
    {
      "midi": 66,
      "hit": false,
      "t": 19999.979999999992,
      "d": 1818.1800000000003,
      "v": 127
    },
    {
      "midi": 50,
      "hit": false,
      "t": 20909.07,
      "d": 909.0900000000001,
      "v": 127
    },
    {
      "midi": 58,
      "hit": false,
      "t": 21818.159999999993,
      "d": 1818.1800000000003,
      "v": 127
    },
    {
      "midi": 63,
      "hit": false,
      "t": 21818.159999999993,
      "d": 1818.1800000000003,
      "v": 127
    },
    {
      "midi": 70,
      "hit": false,
      "t": 21818.159999999993,
      "d": 1818.1800000000003,
      "v": 127
    },
    {
      "midi": 42,
      "hit": false,
      "t": 21818.16,
      "d": 1818.1800000000003,
      "v": 127
    },
    {
      "midi": 51,
      "hit": false,
      "t": 21818.16,
      "d": 1818.1800000000003,
      "v": 127
    },
    {
      "midi": 61,
      "hit": false,
      "t": 23636.339999999993,
      "d": 909.0900000000001,
      "v": 127
    },
    {
      "midi": 66,
      "hit": false,
      "t": 23636.339999999993,
      "d": 909.0900000000001,
      "v": 127
    },
    {
      "midi": 70,
      "hit": false,
      "t": 23636.339999999993,
      "d": 909.0900000000001,
      "v": 127
    },
    {
      "midi": 39,
      "hit": false,
      "t": 23636.34,
      "d": 909.0900000000001,
      "v": 127
    },
    {
      "midi": 51,
      "hit": false,
      "t": 23636.34,
      "d": 909.0900000000001,
      "v": 127
    },
    {
      "midi": 70,
      "hit": false,
      "t": 24545.429999999993,
      "d": 1818.1800000000003,
      "v": 127
    },
    {
      "midi": 44,
      "hit": false,
      "t": 24545.43,
      "d": 2727.2700000000004,
      "v": 127
    },
    {
      "midi": 54,
      "hit": false,
      "t": 24545.43,
      "d": 2727.2700000000004,
      "v": 127
    },
    {
      "midi": 68,
      "hit": false,
      "t": 26363.609999999993,
      "d": 909.0900000000001,
      "v": 127
    },
    {
      "midi": 56,
      "hit": false,
      "t": 27272.699999999993,
      "d": 909.0900000000001,
      "v": 127
    },
    {
      "midi": 61,
      "hit": false,
      "t": 27272.699999999993,
      "d": 909.0900000000001,
      "v": 127
    },
    {
      "midi": 68,
      "hit": false,
      "t": 27272.699999999993,
      "d": 909.0900000000001,
      "v": 127
    },
    {
      "midi": 44,
      "hit": false,
      "t": 27272.7,
      "d": 909.0900000000001,
      "v": 127
    },
    {
      "midi": 53,
      "hit": false,
      "t": 27272.7,
      "d": 909.0900000000001,
      "v": 127
    },
    {
      "midi": 54,
      "hit": false,
      "t": 28181.789999999994,
      "d": 909.0900000000001,
      "v": 127
    },
    {
      "midi": 58,
      "hit": false,
      "t": 28181.789999999994,
      "d": 909.0900000000001,
      "v": 127
    },
    {
      "midi": 44,
      "hit": false,
      "t": 28181.79,
      "d": 909.0900000000001,
      "v": 127
    },
    {
      "midi": 49,
      "hit": false,
      "t": 28181.79,
      "d": 909.0900000000001,
      "v": 127
    },
    {
      "midi": 56,
      "hit": false,
      "t": 29090.879999999994,
      "d": 909.0900000000001,
      "v": 127
    },
    {
      "midi": 60,
      "hit": false,
      "t": 29090.879999999994,
      "d": 909.0900000000001,
      "v": 127
    },
    {
      "midi": 63,
      "hit": false,
      "t": 29090.879999999994,
      "d": 909.0900000000001,
      "v": 127
    },
    {
      "midi": 51,
      "hit": false,
      "t": 29090.88,
      "d": 454.54499999999825,
      "v": 127
    },
    {
      "midi": 42,
      "hit": false,
      "t": 29545.425,
      "d": 454.54499999999825,
      "v": 127
    },
    {
      "midi": 56,
      "hit": false,
      "t": 29999.969999999994,
      "d": 909.0900000000001,
      "v": 127
    },
    {
      "midi": 61,
      "hit": false,
      "t": 29999.969999999994,
      "d": 909.0900000000001,
      "v": 127
    },
    {
      "midi": 68,
      "hit": false,
      "t": 29999.969999999994,
      "d": 909.0900000000001,
      "v": 127
    },
    {
      "midi": 41,
      "hit": false,
      "t": 29999.969999999998,
      "d": 909.0900000000001,
      "v": 127
    },
    {
      "midi": 49,
      "hit": false,
      "t": 29999.969999999998,
      "d": 909.0900000000001,
      "v": 127
    },
    {
      "midi": 53,
      "hit": false,
      "t": 29999.969999999998,
      "d": 909.0900000000001,
      "v": 127
    },
    {
      "midi": 55,
      "hit": false,
      "t": 30909.059999999994,
      "d": 909.0900000000001,
      "v": 127
    },
    {
      "midi": 58,
      "hit": false,
      "t": 30909.059999999994,
      "d": 909.0900000000001,
      "v": 127
    },
    {
      "midi": 39,
      "hit": false,
      "t": 30909.059999999998,
      "d": 909.0900000000001,
      "v": 127
    },
    {
      "midi": 49,
      "hit": false,
      "t": 30909.059999999998,
      "d": 909.0900000000001,
      "v": 127
    },
    {
      "midi": 58,
      "hit": false,
      "t": 31818.149999999994,
      "d": 454.54499999999825,
      "v": 127
    },
    {
      "midi": 44,
      "hit": false,
      "t": 31818.149999999998,
      "d": 909.0900000000001,
      "v": 127
    },
    {
      "midi": 48,
      "hit": false,
      "t": 31818.149999999998,
      "d": 909.0900000000001,
      "v": 127
    },
    {
      "midi": 60,
      "hit": false,
      "t": 32272.694999999992,
      "d": 454.54499999999825,
      "v": 127
    },
    {
      "midi": 61,
      "hit": false,
      "t": 32727.23999999999,
      "d": 909.0899999999965,
      "v": 127
    },
    {
      "midi": 37,
      "hit": false,
      "t": 33181.784999999996,
      "d": 454.54499999999825,
      "v": 127
    },
    {
      "midi": 56,
      "hit": false,
      "t": 33636.32999999999,
      "d": 909.0899999999965,
      "v": 127
    },
    {
      "midi": 44,
      "hit": false,
      "t": 33636.329999999994,
      "d": 454.54499999999825,
      "v": 127
    },
    {
      "midi": 49,
      "hit": false,
      "t": 34090.87499999999,
      "d": 454.54499999999825,
      "v": 127
    },
    {
      "midi": 53,
      "hit": false,
      "t": 34545.41999999999,
      "d": 454.54499999999825,
      "v": 127
    },
    {
      "midi": 56,
      "hit": false,
      "t": 34999.96499999999,
      "d": 454.54499999999825,
      "v": 127
    },
    {
      "midi": 61,
      "hit": false,
      "t": 35454.50999999998,
      "d": 909.0899999999965,
      "v": 127
    },
    {
      "midi": 61,
      "hit": false,
      "t": 36363.59999999998,
      "d": 909.0899999999965,
      "v": 127
    },
    {
      "midi": 59,
      "hit": false,
      "t": 37272.68999999997,
      "d": 909.0899999999965,
      "v": 127
    },
    {
      "midi": 57,
      "hit": false,
      "t": 38181.77999999997,
      "d": 454.54499999999825,
      "v": 127
    },
    {
      "midi": 45,
      "hit": false,
      "t": 38409.05249999999,
      "d": 227.27249999999913,
      "v": 127
    },
    {
      "midi": 56,
      "hit": false,
      "t": 38636.32499999997,
      "d": 454.54499999999825,
      "v": 127
    },
    {
      "midi": 59,
      "hit": false,
      "t": 38636.32499999997,
      "d": 454.54499999999825,
      "v": 127
    },
    {
      "midi": 40,
      "hit": false,
      "t": 38863.59749999999,
      "d": 227.27249999999913,
      "v": 127
    },
    {
      "midi": 55,
      "hit": false,
      "t": 39090.869999999966,
      "d": 1818.1800000000003,
      "v": 127
    },
    {
      "midi": 57,
      "hit": false,
      "t": 39090.869999999966,
      "d": 1818.1800000000003,
      "v": 127
    },
    {
      "midi": 61,
      "hit": false,
      "t": 39090.869999999966,
      "d": 1818.1800000000003,
      "v": 127
    },
    {
      "midi": 33,
      "hit": false,
      "t": 39090.86999999999,
      "d": 227.27249999999913,
      "v": 127
    },
    {
      "midi": 40,
      "hit": false,
      "t": 39318.14249999999,
      "d": 227.27249999999913,
      "v": 127
    },
    {
      "midi": 45,
      "hit": false,
      "t": 39772.687499999985,
      "d": 227.27249999999913,
      "v": 127
    },
    {
      "midi": 45,
      "hit": false,
      "t": 39999.959999999985,
      "d": 227.27249999999913,
      "v": 127
    },
    {
      "midi": 52,
      "hit": false,
      "t": 40227.232499999984,
      "d": 227.27249999999913,
      "v": 127
    },
    {
      "midi": 45,
      "hit": false,
      "t": 40681.77749999998,
      "d": 227.27249999999913,
      "v": 127
    },
    {
      "midi": 55,
      "hit": false,
      "t": 40909.04999999997,
      "d": 909.0899999999965,
      "v": 127
    },
    {
      "midi": 59,
      "hit": false,
      "t": 40909.04999999997,
      "d": 909.0899999999965,
      "v": 127
    },
    {
      "midi": 64,
      "hit": false,
      "t": 40909.04999999997,
      "d": 909.0899999999965,
      "v": 127
    },
    {
      "midi": 40,
      "hit": false,
      "t": 40909.04999999998,
      "d": 227.27249999999913,
      "v": 127
    },
    {
      "midi": 47,
      "hit": false,
      "t": 41136.32249999998,
      "d": 227.27249999999913,
      "v": 127
    },
    {
      "midi": 52,
      "hit": false,
      "t": 41590.86749999998,
      "d": 227.27249999999913,
      "v": 127
    },
    {
      "midi": 76,
      "hit": false,
      "t": 41818.13999999996,
      "d": 909.0899999999965,
      "v": 127
    },
    {
      "midi": 88,
      "hit": false,
      "t": 41818.13999999996,
      "d": 909.0899999999965,
      "v": 127
    },
    {
      "midi": 71,
      "hit": false,
      "t": 41818.13999999998,
      "d": 909.0899999999965,
      "v": 127
    },
    {
      "midi": 79,
      "hit": false,
      "t": 42727.22999999996,
      "d": 909.0899999999965,
      "v": 127
    },
    {
      "midi": 83,
      "hit": false,
      "t": 42727.22999999996,
      "d": 909.0899999999965,
      "v": 127
    },
    {
      "midi": 64,
      "hit": false,
      "t": 42727.229999999974,
      "d": 909.0899999999965,
      "v": 127
    },
    {
      "midi": 57,
      "hit": false,
      "t": 43636.319999999956,
      "d": 454.54499999999825,
      "v": 127
    },
    {
      "midi": 45,
      "hit": false,
      "t": 43863.59249999997,
      "d": 227.27249999999913,
      "v": 127
    },
    {
      "midi": 56,
      "hit": false,
      "t": 44090.864999999954,
      "d": 454.54499999999825,
      "v": 127
    },
    {
      "midi": 59,
      "hit": false,
      "t": 44090.864999999954,
      "d": 454.54499999999825,
      "v": 127
    },
    {
      "midi": 40,
      "hit": false,
      "t": 44318.13749999997,
      "d": 227.27249999999913,
      "v": 127
    },
    {
      "midi": 55,
      "hit": false,
      "t": 44545.40999999995,
      "d": 1818.1800000000003,
      "v": 127
    },
    {
      "midi": 57,
      "hit": false,
      "t": 44545.40999999995,
      "d": 1818.1800000000003,
      "v": 127
    },
    {
      "midi": 61,
      "hit": false,
      "t": 44545.40999999995,
      "d": 1818.1800000000003,
      "v": 127
    },
    {
      "midi": 33,
      "hit": false,
      "t": 44545.40999999997,
      "d": 227.27249999999913,
      "v": 127
    },
    {
      "midi": 40,
      "hit": false,
      "t": 44772.682499999966,
      "d": 227.27249999999913,
      "v": 127
    },
    {
      "midi": 45,
      "hit": false,
      "t": 45227.227499999964,
      "d": 227.27249999999913,
      "v": 127
    },
    {
      "midi": 45,
      "hit": false,
      "t": 45454.49999999996,
      "d": 227.27249999999913,
      "v": 127
    },
    {
      "midi": 52,
      "hit": false,
      "t": 45681.77249999996,
      "d": 227.27249999999913,
      "v": 127
    },
    {
      "midi": 45,
      "hit": false,
      "t": 46136.31749999996,
      "d": 227.27249999999913,
      "v": 127
    },
    {
      "midi": 55,
      "hit": false,
      "t": 46363.58999999995,
      "d": 909.0899999999965,
      "v": 127
    },
    {
      "midi": 58,
      "hit": false,
      "t": 46363.58999999995,
      "d": 909.0899999999965,
      "v": 127
    },
    {
      "midi": 64,
      "hit": false,
      "t": 46363.58999999995,
      "d": 909.0899999999965,
      "v": 127
    },
    {
      "midi": 36,
      "hit": false,
      "t": 46363.58999999996,
      "d": 227.27249999999913,
      "v": 127
    },
    {
      "midi": 43,
      "hit": false,
      "t": 46590.86249999996,
      "d": 227.27249999999913,
      "v": 127
    },
    {
      "midi": 48,
      "hit": false,
      "t": 47045.40749999996,
      "d": 227.27249999999913,
      "v": 127
    },
    {
      "midi": 76,
      "hit": false,
      "t": 47272.67999999995,
      "d": 909.0899999999965,
      "v": 127
    },
    {
      "midi": 84,
      "hit": false,
      "t": 47272.67999999995,
      "d": 909.0899999999965,
      "v": 127
    },
    {
      "midi": 70,
      "hit": false,
      "t": 47272.67999999996,
      "d": 909.0899999999965,
      "v": 127
    },
    {
      "midi": 72,
      "hit": false,
      "t": 48181.769999999946,
      "d": 909.0899999999965,
      "v": 127
    },
    {
      "midi": 79,
      "hit": false,
      "t": 48181.769999999946,
      "d": 909.0899999999965,
      "v": 127
    },
    {
      "midi": 64,
      "hit": false,
      "t": 48181.76999999995,
      "d": 909.0899999999965,
      "v": 127
    },
    {
      "midi": 78,
      "hit": false,
      "t": 49090.85999999994,
      "d": 909.0899999999965,
      "v": 127
    },
    {
      "midi": 82,
      "hit": false,
      "t": 49090.85999999994,
      "d": 909.0899999999965,
      "v": 127
    },
    {
      "midi": 44,
      "hit": false,
      "t": 49090.85999999995,
      "d": 227.27249999999913,
      "v": 127
    },
    {
      "midi": 51,
      "hit": false,
      "t": 49318.13249999995,
      "d": 227.27249999999913,
      "v": 127
    },
    {
      "midi": 60,
      "hit": false,
      "t": 49772.67749999995,
      "d": 227.27249999999913,
      "v": 127
    },
    {
      "midi": 70,
      "hit": false,
      "t": 49999.94999999994,
      "d": 227.27249999999913,
      "v": 127
    },
    {
      "midi": 66,
      "hit": false,
      "t": 49999.949999999946,
      "d": 227.27249999999913,
      "v": 127
    },
    {
      "midi": 78,
      "hit": false,
      "t": 50227.22249999994,
      "d": 227.27249999999913,
      "v": 127
    },
    {
      "midi": 82,
      "hit": false,
      "t": 50227.22249999994,
      "d": 227.27249999999913,
      "v": 127
    },
    {
      "midi": 60,
      "hit": false,
      "t": 50227.222499999945,
      "d": 227.27249999999913,
      "v": 127
    },
    {
      "midi": 70,
      "hit": false,
      "t": 50681.767499999936,
      "d": 227.27249999999913,
      "v": 127
    },
    {
      "midi": 51,
      "hit": false,
      "t": 50681.76749999994,
      "d": 227.27249999999913,
      "v": 127
    },
    {
      "midi": 77,
      "hit": false,
      "t": 50909.039999999935,
      "d": 227.27249999999913,
      "v": 127
    },
    {
      "midi": 82,
      "hit": false,
      "t": 50909.039999999935,
      "d": 227.27249999999913,
      "v": 127
    },
    {
      "midi": 63,
      "hit": false,
      "t": 50909.03999999994,
      "d": 227.27249999999913,
      "v": 127
    },
    {
      "midi": 70,
      "hit": false,
      "t": 51136.312499999935,
      "d": 227.27249999999913,
      "v": 127
    },
    {
      "midi": 59,
      "hit": false,
      "t": 51136.31249999994,
      "d": 227.27249999999913,
      "v": 127
    },
    {
      "midi": 77,
      "hit": false,
      "t": 51590.85749999993,
      "d": 227.27249999999913,
      "v": 127
    },
    {
      "midi": 82,
      "hit": false,
      "t": 51590.85749999993,
      "d": 227.27249999999913,
      "v": 127
    },
    {
      "midi": 50,
      "hit": false,
      "t": 51590.85749999994,
      "d": 227.27249999999913,
      "v": 127
    },
    {
      "midi": 68,
      "hit": false,
      "t": 51818.12999999993,
      "d": 227.27249999999913,
      "v": 127
    },
    {
      "midi": 63,
      "hit": false,
      "t": 51818.12999999994,
      "d": 227.27249999999913,
      "v": 127
    },
    {
      "midi": 75,
      "hit": false,
      "t": 52045.40249999993,
      "d": 227.27249999999913,
      "v": 127
    },
    {
      "midi": 80,
      "hit": false,
      "t": 52045.40249999993,
      "d": 227.27249999999913,
      "v": 127
    },
    {
      "midi": 58,
      "hit": false,
      "t": 52045.40249999994,
      "d": 227.27249999999913,
      "v": 127
    },
    {
      "midi": 68,
      "hit": false,
      "t": 52499.94749999993,
      "d": 227.27249999999913,
      "v": 127
    },
    {
      "midi": 51,
      "hit": false,
      "t": 52499.94749999994,
      "d": 227.27249999999913,
      "v": 127
    },
    {
      "midi": 75,
      "hit": false,
      "t": 52727.21999999993,
      "d": 227.27249999999913,
      "v": 127
    },
    {
      "midi": 78,
      "hit": false,
      "t": 52727.21999999993,
      "d": 227.27249999999913,
      "v": 127
    },
    {
      "midi": 58,
      "hit": false,
      "t": 52727.219999999936,
      "d": 227.27249999999913,
      "v": 127
    },
    {
      "midi": 66,
      "hit": false,
      "t": 52954.49249999993,
      "d": 227.27249999999913,
      "v": 127
    },
    {
      "midi": 51,
      "hit": false,
      "t": 52954.492499999935,
      "d": 227.27249999999913,
      "v": 127
    },
    {
      "midi": 75,
      "hit": false,
      "t": 53409.037499999926,
      "d": 227.27249999999913,
      "v": 127
    },
    {
      "midi": 78,
      "hit": false,
      "t": 53409.037499999926,
      "d": 227.27249999999913,
      "v": 127
    },
    {
      "midi": 44,
      "hit": false,
      "t": 53409.03749999993,
      "d": 227.27249999999913,
      "v": 127
    },
    {
      "midi": 66,
      "hit": false,
      "t": 53636.309999999925,
      "d": 227.27249999999913,
      "v": 127
    },
    {
      "midi": 44,
      "hit": false,
      "t": 53636.30999999993,
      "d": 909.0899999999965,
      "v": 127
    },
    {
      "midi": 75,
      "hit": false,
      "t": 53863.582499999924,
      "d": 227.27249999999913,
      "v": 127
    },
    {
      "midi": 78,
      "hit": false,
      "t": 53863.582499999924,
      "d": 227.27249999999913,
      "v": 127
    },
    {
      "midi": 66,
      "hit": false,
      "t": 54318.12749999992,
      "d": 227.27249999999913,
      "v": 127
    },
    {
      "midi": 70,
      "hit": false,
      "t": 54545.39999999992,
      "d": 909.0899999999965,
      "v": 127
    },
    {
      "midi": 77,
      "hit": false,
      "t": 54545.39999999992,
      "d": 909.0899999999965,
      "v": 127
    },
    {
      "midi": 44,
      "hit": false,
      "t": 54545.39999999993,
      "d": 227.27249999999913,
      "v": 127
    },
    {
      "midi": 55,
      "hit": false,
      "t": 54772.67249999993,
      "d": 227.27249999999913,
      "v": 127
    },
    {
      "midi": 58,
      "hit": false,
      "t": 55227.217499999926,
      "d": 227.27249999999913,
      "v": 127
    },
    {
      "midi": 65,
      "hit": false,
      "t": 55454.48999999992,
      "d": 227.27249999999913,
      "v": 127
    },
    {
      "midi": 61,
      "hit": false,
      "t": 55454.489999999925,
      "d": 227.27249999999913,
      "v": 127
    },
    {
      "midi": 70,
      "hit": false,
      "t": 55681.76249999992,
      "d": 227.27249999999913,
      "v": 127
    },
    {
      "midi": 77,
      "hit": false,
      "t": 55681.76249999992,
      "d": 227.27249999999913,
      "v": 127
    },
    {
      "midi": 58,
      "hit": false,
      "t": 55681.762499999924,
      "d": 227.27249999999913,
      "v": 127
    },
    {
      "midi": 65,
      "hit": false,
      "t": 56136.307499999915,
      "d": 227.27249999999913,
      "v": 127
    },
    {
      "midi": 55,
      "hit": false,
      "t": 56136.30749999992,
      "d": 227.27249999999913,
      "v": 127
    },
    {
      "midi": 69,
      "hit": false,
      "t": 56363.579999999914,
      "d": 227.27249999999913,
      "v": 127
    },
    {
      "midi": 77,
      "hit": false,
      "t": 56363.579999999914,
      "d": 227.27249999999913,
      "v": 127
    },
    {
      "midi": 60,
      "hit": false,
      "t": 56363.57999999992,
      "d": 227.27249999999913,
      "v": 127
    },
    {
      "midi": 65,
      "hit": false,
      "t": 56590.85249999991,
      "d": 227.27249999999913,
      "v": 127
    },
    {
      "midi": 57,
      "hit": false,
      "t": 56590.85249999992,
      "d": 227.27249999999913,
      "v": 127
    },
    {
      "midi": 69,
      "hit": false,
      "t": 57045.39749999991,
      "d": 227.27249999999913,
      "v": 127
    },
    {
      "midi": 77,
      "hit": false,
      "t": 57045.39749999991,
      "d": 227.27249999999913,
      "v": 127
    },
    {
      "midi": 54,
      "hit": false,
      "t": 57045.39749999992,
      "d": 227.27249999999913,
      "v": 127
    },
    {
      "midi": 63,
      "hit": false,
      "t": 57272.66999999991,
      "d": 227.27249999999913,
      "v": 127
    },
    {
      "midi": 53,
      "hit": false,
      "t": 57272.66999999992,
      "d": 227.27249999999913,
      "v": 127
    },
    {
      "midi": 70,
      "hit": false,
      "t": 57499.94249999991,
      "d": 227.27249999999913,
      "v": 127
    },
    {
      "midi": 75,
      "hit": false,
      "t": 57499.94249999991,
      "d": 227.27249999999913,
      "v": 127
    },
    {
      "midi": 58,
      "hit": false,
      "t": 57499.94249999992,
      "d": 227.27249999999913,
      "v": 127
    },
    {
      "midi": 63,
      "hit": false,
      "t": 57954.48749999991,
      "d": 227.27249999999913,
      "v": 127
    },
    {
      "midi": 53,
      "hit": false,
      "t": 57954.487499999916,
      "d": 227.27249999999913,
      "v": 127
    },
    {
      "midi": 70,
      "hit": false,
      "t": 58181.75999999991,
      "d": 227.27249999999913,
      "v": 127
    },
    {
      "midi": 73,
      "hit": false,
      "t": 58181.75999999991,
      "d": 227.27249999999913,
      "v": 127
    },
    {
      "midi": 58,
      "hit": false,
      "t": 58181.759999999915,
      "d": 227.27249999999913,
      "v": 127
    },
    {
      "midi": 61,
      "hit": false,
      "t": 58409.03249999991,
      "d": 227.27249999999913,
      "v": 127
    },
    {
      "midi": 53,
      "hit": false,
      "t": 58409.032499999914,
      "d": 227.27249999999913,
      "v": 127
    },
    {
      "midi": 70,
      "hit": false,
      "t": 58863.577499999905,
      "d": 227.27249999999913,
      "v": 127
    },
    {
      "midi": 73,
      "hit": false,
      "t": 58863.577499999905,
      "d": 227.27249999999913,
      "v": 127
    },
    {
      "midi": 49,
      "hit": false,
      "t": 58863.57749999991,
      "d": 227.27249999999913,
      "v": 127
    },
    {
      "midi": 61,
      "hit": false,
      "t": 59090.849999999904,
      "d": 227.27249999999913,
      "v": 127
    },
    {
      "midi": 53,
      "hit": false,
      "t": 59090.84999999991,
      "d": 227.27249999999913,
      "v": 127
    },
    {
      "midi": 70,
      "hit": false,
      "t": 59318.1224999999,
      "d": 227.27249999999913,
      "v": 127
    },
    {
      "midi": 73,
      "hit": false,
      "t": 59318.1224999999,
      "d": 227.27249999999913,
      "v": 127
    },
    {
      "midi": 49,
      "hit": false,
      "t": 59318.12249999991,
      "d": 227.27249999999913,
      "v": 127
    },
    {
      "midi": 61,
      "hit": false,
      "t": 59772.6674999999,
      "d": 227.27249999999913,
      "v": 127
    },
    {
      "midi": 44,
      "hit": false,
      "t": 59772.66749999991,
      "d": 227.27249999999913,
      "v": 127
    },
    {
      "midi": 46,
      "hit": false,
      "t": 59999.93999999991,
      "d": 227.27249999999913,
      "v": 127
    },
    {
      "midi": 52,
      "hit": false,
      "t": 60227.21249999991,
      "d": 227.27249999999913,
      "v": 127
    },
    {
      "midi": 55,
      "hit": false,
      "t": 60227.21249999991,
      "d": 227.27249999999913,
      "v": 127
    },
    {
      "midi": 60,
      "hit": false,
      "t": 60681.757499999905,
      "d": 227.27249999999913,
      "v": 127
    },
    {
      "midi": 64,
      "hit": false,
      "t": 60909.0299999999,
      "d": 227.27249999999913,
      "v": 127
    },
    {
      "midi": 67,
      "hit": false,
      "t": 60909.0299999999,
      "d": 227.27249999999913,
      "v": 127
    },
    {
      "midi": 52,
      "hit": false,
      "t": 60909.029999999904,
      "d": 1818.1800000000003,
      "v": 127
    },
    {
      "midi": 55,
      "hit": false,
      "t": 60909.029999999904,
      "d": 1818.1800000000003,
      "v": 127
    },
    {
      "midi": 72,
      "hit": false,
      "t": 61136.302499999896,
      "d": 227.27249999999913,
      "v": 127
    },
    {
      "midi": 76,
      "hit": false,
      "t": 61590.847499999894,
      "d": 227.27249999999913,
      "v": 127
    },
    {
      "midi": 79,
      "hit": false,
      "t": 61590.847499999894,
      "d": 227.27249999999913,
      "v": 127
    },
    {
      "midi": 84,
      "hit": false,
      "t": 61818.11999999989,
      "d": 227.27249999999913,
      "v": 127
    },
    {
      "midi": 76,
      "hit": false,
      "t": 62045.39249999989,
      "d": 227.27249999999913,
      "v": 127
    },
    {
      "midi": 79,
      "hit": false,
      "t": 62045.39249999989,
      "d": 227.27249999999913,
      "v": 127
    },
    {
      "midi": 45,
      "hit": false,
      "t": 62727.209999999905,
      "d": 227.27249999999913,
      "v": 127
    },
    {
      "midi": 51,
      "hit": false,
      "t": 62954.482499999904,
      "d": 227.27249999999913,
      "v": 127
    },
    {
      "midi": 55,
      "hit": false,
      "t": 62954.482499999904,
      "d": 227.27249999999913,
      "v": 127
    },
    {
      "midi": 60,
      "hit": false,
      "t": 63409.0274999999,
      "d": 227.27249999999913,
      "v": 127
    },
    {
      "midi": 63,
      "hit": false,
      "t": 63636.299999999894,
      "d": 227.27249999999913,
      "v": 127
    },
    {
      "midi": 67,
      "hit": false,
      "t": 63636.299999999894,
      "d": 227.27249999999913,
      "v": 127
    },
    {
      "midi": 51,
      "hit": false,
      "t": 63636.2999999999,
      "d": 1818.1800000000003,
      "v": 127
    },
    {
      "midi": 55,
      "hit": false,
      "t": 63636.2999999999,
      "d": 1818.1800000000003,
      "v": 127
    },
    {
      "midi": 72,
      "hit": false,
      "t": 63863.57249999989,
      "d": 227.27249999999913,
      "v": 127
    },
    {
      "midi": 75,
      "hit": false,
      "t": 64318.11749999989,
      "d": 227.27249999999913,
      "v": 127
    },
    {
      "midi": 79,
      "hit": false,
      "t": 64318.11749999989,
      "d": 227.27249999999913,
      "v": 127
    },
    {
      "midi": 84,
      "hit": false,
      "t": 64545.38999999989,
      "d": 227.27249999999913,
      "v": 127
    },
    {
      "midi": 75,
      "hit": false,
      "t": 64772.66249999989,
      "d": 227.27249999999913,
      "v": 127
    },
    {
      "midi": 79,
      "hit": false,
      "t": 64772.66249999989,
      "d": 227.27249999999913,
      "v": 127
    },
    {
      "midi": 56,
      "hit": false,
      "t": 65454.47999999989,
      "d": 454.54500000000553,
      "v": 127
    },
    {
      "midi": 44,
      "hit": false,
      "t": 65681.7524999999,
      "d": 227.2725000000064,
      "v": 127
    },
    {
      "midi": 55,
      "hit": false,
      "t": 65909.02499999989,
      "d": 454.54499999999825,
      "v": 127
    },
    {
      "midi": 58,
      "hit": false,
      "t": 65909.02499999989,
      "d": 454.54499999999825,
      "v": 127
    },
    {
      "midi": 39,
      "hit": false,
      "t": 66136.29749999991,
      "d": 227.2725000000064,
      "v": 127
    },
    {
      "midi": 54,
      "hit": false,
      "t": 66363.56999999989,
      "d": 1818.179999999993,
      "v": 127
    },
    {
      "midi": 56,
      "hit": false,
      "t": 66363.56999999989,
      "d": 1818.179999999993,
      "v": 127
    },
    {
      "midi": 60,
      "hit": false,
      "t": 66363.56999999989,
      "d": 1818.179999999993,
      "v": 127
    },
    {
      "midi": 32,
      "hit": false,
      "t": 66363.56999999992,
      "d": 227.2725000000064,
      "v": 127
    },
    {
      "midi": 39,
      "hit": false,
      "t": 66590.84249999993,
      "d": 227.2725000000064,
      "v": 127
    },
    {
      "midi": 44,
      "hit": false,
      "t": 67045.38749999994,
      "d": 227.2725000000064,
      "v": 127
    },
    {
      "midi": 44,
      "hit": false,
      "t": 67272.65999999995,
      "d": 227.2725000000064,
      "v": 127
    },
    {
      "midi": 51,
      "hit": false,
      "t": 67499.93249999995,
      "d": 227.2725000000064,
      "v": 127
    },
    {
      "midi": 56,
      "hit": false,
      "t": 67954.47749999996,
      "d": 227.2725000000064,
      "v": 127
    },
    {
      "midi": 70,
      "hit": false,
      "t": 68181.74999999988,
      "d": 454.54499999999825,
      "v": 127
    },
    {
      "midi": 78,
      "hit": false,
      "t": 68181.74999999988,
      "d": 454.54499999999825,
      "v": 127
    },
    {
      "midi": 63,
      "hit": false,
      "t": 68181.74999999997,
      "d": 454.54499999999825,
      "v": 127
    },
    {
      "midi": 77,
      "hit": false,
      "t": 68636.29499999988,
      "d": 454.54499999999825,
      "v": 127
    },
    {
      "midi": 80,
      "hit": false,
      "t": 68636.29499999988,
      "d": 454.54499999999825,
      "v": 127
    },
    {
      "midi": 51,
      "hit": false,
      "t": 68636.29499999997,
      "d": 454.54499999999825,
      "v": 127
    },
    {
      "midi": 75,
      "hit": false,
      "t": 69090.83999999988,
      "d": 454.54499999999825,
      "v": 127
    },
    {
      "midi": 82,
      "hit": false,
      "t": 69090.83999999988,
      "d": 454.54499999999825,
      "v": 127
    },
    {
      "midi": 44,
      "hit": false,
      "t": 69090.83999999997,
      "d": 227.2725000000064,
      "v": 127
    },
    {
      "midi": 51,
      "hit": false,
      "t": 69318.11249999997,
      "d": 227.2725000000064,
      "v": 127
    },
    {
      "midi": 73,
      "hit": false,
      "t": 69545.38499999988,
      "d": 454.54499999999825,
      "v": 127
    },
    {
      "midi": 82,
      "hit": false,
      "t": 69545.38499999988,
      "d": 454.54499999999825,
      "v": 127
    },
    {
      "midi": 72,
      "hit": false,
      "t": 69999.92999999988,
      "d": 454.54499999999825,
      "v": 127
    },
    {
      "midi": 87,
      "hit": false,
      "t": 69999.92999999988,
      "d": 454.54499999999825,
      "v": 127
    },
    {
      "midi": 73,
      "hit": false,
      "t": 70454.47499999987,
      "d": 227.2725000000064,
      "v": 127
    },
    {
      "midi": 82,
      "hit": false,
      "t": 70681.74749999988,
      "d": 227.2725000000064,
      "v": 127
    },
    {
      "midi": 51,
      "hit": false,
      "t": 70681.74749999998,
      "d": 227.2725000000064,
      "v": 127
    },
    {
      "midi": 85,
      "hit": false,
      "t": 70909.01999999989,
      "d": 909.0899999999965,
      "v": 127
    },
    {
      "midi": 44,
      "hit": false,
      "t": 70909.01999999999,
      "d": 227.2725000000064,
      "v": 127
    },
    {
      "midi": 51,
      "hit": false,
      "t": 71136.2925,
      "d": 227.2725000000064,
      "v": 127
    },
    {
      "midi": 60,
      "hit": false,
      "t": 71590.83750000001,
      "d": 227.2725000000064,
      "v": 127
    },
    {
      "midi": 84,
      "hit": false,
      "t": 71818.10999999988,
      "d": 909.0899999999965,
      "v": 127
    },
    {
      "midi": 51,
      "hit": false,
      "t": 71818.11000000002,
      "d": 227.2725000000064,
      "v": 127
    },
    {
      "midi": 60,
      "hit": false,
      "t": 72045.38250000002,
      "d": 227.2725000000064,
      "v": 127
    },
    {
      "midi": 51,
      "hit": false,
      "t": 72499.92750000003,
      "d": 227.2725000000064,
      "v": 127
    },
    {
      "midi": 73,
      "hit": false,
      "t": 72727.19999999988,
      "d": 454.54499999999825,
      "v": 127
    },
    {
      "midi": 44,
      "hit": false,
      "t": 72727.20000000004,
      "d": 227.2725000000064,
      "v": 127
    },
    {
      "midi": 53,
      "hit": false,
      "t": 72954.47250000005,
      "d": 227.2725000000064,
      "v": 127
    },
    {
      "midi": 78,
      "hit": false,
      "t": 73181.74499999988,
      "d": 454.54499999999825,
      "v": 127
    },
    {
      "midi": 61,
      "hit": false,
      "t": 73409.01750000006,
      "d": 227.2725000000064,
      "v": 127
    },
    {
      "midi": 82,
      "hit": false,
      "t": 73636.28999999988,
      "d": 909.0899999999965,
      "v": 127
    },
    {
      "midi": 44,
      "hit": false,
      "t": 73636.29000000007,
      "d": 227.2725000000064,
      "v": 127
    },
    {
      "midi": 54,
      "hit": false,
      "t": 73863.56250000007,
      "d": 227.2725000000064,
      "v": 127
    },
    {
      "midi": 63,
      "hit": false,
      "t": 74318.10750000009,
      "d": 227.2725000000064,
      "v": 127
    },
    {
      "midi": 80,
      "hit": false,
      "t": 74545.37999999987,
      "d": 909.0899999999965,
      "v": 127
    },
    {
      "midi": 54,
      "hit": false,
      "t": 74545.38000000009,
      "d": 227.2725000000064,
      "v": 127
    },
    {
      "midi": 63,
      "hit": false,
      "t": 74772.6525000001,
      "d": 227.2725000000064,
      "v": 127
    },
    {
      "midi": 54,
      "hit": false,
      "t": 75227.19750000011,
      "d": 227.2725000000064,
      "v": 127
    },
    {
      "midi": 70,
      "hit": false,
      "t": 75454.46999999987,
      "d": 454.54499999999825,
      "v": 127
    },
    {
      "midi": 44,
      "hit": false,
      "t": 75454.47000000012,
      "d": 227.2725000000064,
      "v": 127
    },
    {
      "midi": 55,
      "hit": false,
      "t": 75681.74250000012,
      "d": 227.2725000000064,
      "v": 127
    },
    {
      "midi": 73,
      "hit": false,
      "t": 75909.01499999987,
      "d": 454.54499999999825,
      "v": 127
    },
    {
      "midi": 61,
      "hit": false,
      "t": 76136.28750000014,
      "d": 227.2725000000064,
      "v": 127
    },
    {
      "midi": 68,
      "hit": false,
      "t": 76363.55999999987,
      "d": 1818.179999999993,
      "v": 127
    },
    {
      "midi": 77,
      "hit": false,
      "t": 76363.55999999987,
      "d": 1818.179999999993,
      "v": 127
    },
    {
      "midi": 44,
      "hit": false,
      "t": 76363.56000000014,
      "d": 454.54499999999825,
      "v": 127
    },
    {
      "midi": 56,
      "hit": false,
      "t": 76818.10500000014,
      "d": 454.54499999999825,
      "v": 127
    },
    {
      "midi": 60,
      "hit": false,
      "t": 77272.65000000014,
      "d": 227.2725000000064,
      "v": 127
    },
    {
      "midi": 56,
      "hit": false,
      "t": 77499.92250000015,
      "d": 227.2725000000064,
      "v": 127
    },
    {
      "midi": 60,
      "hit": false,
      "t": 77954.46750000016,
      "d": 227.2725000000064,
      "v": 127
    },
    {
      "midi": 66,
      "hit": false,
      "t": 78181.73999999986,
      "d": 909.0899999999965,
      "v": 127
    },
    {
      "midi": 75,
      "hit": false,
      "t": 78181.73999999986,
      "d": 909.0899999999965,
      "v": 127
    },
    {
      "midi": 57,
      "hit": false,
      "t": 78181.74000000017,
      "d": 227.2725000000064,
      "v": 127
    },
    {
      "midi": 60,
      "hit": false,
      "t": 78409.01250000017,
      "d": 227.2725000000064,
      "v": 127
    },
    {
      "midi": 60,
      "hit": false,
      "t": 79090.83000000018,
      "d": 227.2725000000064,
      "v": 127
    },
    {
      "midi": 57,
      "hit": false,
      "t": 79318.10250000018,
      "d": 227.2725000000064,
      "v": 127
    },
    {
      "midi": 60,
      "hit": false,
      "t": 79772.6475000002,
      "d": 227.2725000000064,
      "v": 127
    },
    {
      "midi": 66,
      "hit": false,
      "t": 79999.91999999985,
      "d": 1818.179999999993,
      "v": 127
    },
    {
      "midi": 73,
      "hit": false,
      "t": 79999.91999999985,
      "d": 1818.179999999993,
      "v": 127
    },
    {
      "midi": 58,
      "hit": false,
      "t": 79999.9200000002,
      "d": 227.2725000000064,
      "v": 127
    },
    {
      "midi": 61,
      "hit": false,
      "t": 80227.19250000021,
      "d": 227.2725000000064,
      "v": 127
    },
    {
      "midi": 58,
      "hit": false,
      "t": 80681.73750000022,
      "d": 227.2725000000064,
      "v": 127
    },
    {
      "midi": 61,
      "hit": false,
      "t": 80909.01000000023,
      "d": 227.2725000000064,
      "v": 127
    },
    {
      "midi": 58,
      "hit": false,
      "t": 81136.28250000023,
      "d": 227.2725000000064,
      "v": 127
    },
    {
      "midi": 61,
      "hit": false,
      "t": 81590.82750000025,
      "d": 227.2725000000064,
      "v": 127
    },
    {
      "midi": 70,
      "hit": false,
      "t": 81818.09999999985,
      "d": 1818.179999999993,
      "v": 127
    },
    {
      "midi": 60,
      "hit": false,
      "t": 81818.10000000025,
      "d": 227.2725000000064,
      "v": 127
    },
    {
      "midi": 63,
      "hit": false,
      "t": 82045.37250000026,
      "d": 227.2725000000064,
      "v": 127
    },
    {
      "midi": 60,
      "hit": false,
      "t": 82499.91750000027,
      "d": 227.2725000000064,
      "v": 127
    },
    {
      "midi": 63,
      "hit": false,
      "t": 82727.19000000028,
      "d": 227.2725000000064,
      "v": 127
    },
    {
      "midi": 60,
      "hit": false,
      "t": 82954.46250000029,
      "d": 227.2725000000064,
      "v": 127
    },
    {
      "midi": 63,
      "hit": false,
      "t": 83409.0075000003,
      "d": 227.2725000000064,
      "v": 127
    },
    {
      "midi": 66,
      "hit": false,
      "t": 83636.27999999984,
      "d": 909.0899999999965,
      "v": 127
    },
    {
      "midi": 58,
      "hit": false,
      "t": 83636.2800000003,
      "d": 227.2725000000064,
      "v": 127
    },
    {
      "midi": 61,
      "hit": false,
      "t": 83863.55250000031,
      "d": 227.2725000000064,
      "v": 127
    },
    {
      "midi": 58,
      "hit": false,
      "t": 84318.09750000032,
      "d": 227.2725000000064,
      "v": 127
    },
    {
      "midi": 61,
      "hit": false,
      "t": 84545.37000000033,
      "d": 227.2725000000064,
      "v": 127
    },
    {
      "midi": 58,
      "hit": false,
      "t": 84772.64250000034,
      "d": 227.2725000000064,
      "v": 127
    },
    {
      "midi": 61,
      "hit": false,
      "t": 85227.18750000035,
      "d": 227.2725000000064,
      "v": 127
    },
    {
      "midi": 63,
      "hit": false,
      "t": 85454.45999999983,
      "d": 1363.6349999999948,
      "v": 127
    },
    {
      "midi": 54,
      "hit": false,
      "t": 85454.46000000036,
      "d": 227.2725000000064,
      "v": 127
    },
    {
      "midi": 58,
      "hit": false,
      "t": 85681.73250000036,
      "d": 227.2725000000064,
      "v": 127
    },
    {
      "midi": 54,
      "hit": false,
      "t": 86136.27750000037,
      "d": 227.2725000000064,
      "v": 127
    },
    {
      "midi": 58,
      "hit": false,
      "t": 86363.55000000038,
      "d": 227.2725000000064,
      "v": 127
    },
    {
      "midi": 54,
      "hit": false,
      "t": 86590.82250000039,
      "d": 227.2725000000064,
      "v": 127
    },
    {
      "midi": 58,
      "hit": false,
      "t": 86818.09499999983,
      "d": 454.54499999999825,
      "v": 127
    },
    {
      "midi": 51,
      "hit": false,
      "t": 87045.3675000004,
      "d": 227.2725000000064,
      "v": 127
    },
    {
      "midi": 61,
      "hit": false,
      "t": 87272.63999999982,
      "d": 1818.179999999993,
      "v": 127
    },
    {
      "midi": 51,
      "hit": false,
      "t": 87272.6400000004,
      "d": 227.2725000000064,
      "v": 127
    },
    {
      "midi": 54,
      "hit": false,
      "t": 87499.91250000041,
      "d": 227.2725000000064,
      "v": 127
    },
    {
      "midi": 51,
      "hit": false,
      "t": 87954.45750000043,
      "d": 227.2725000000064,
      "v": 127
    },
    {
      "midi": 54,
      "hit": false,
      "t": 88181.73000000043,
      "d": 227.2725000000064,
      "v": 127
    },
    {
      "midi": 51,
      "hit": false,
      "t": 88409.00250000044,
      "d": 227.2725000000064,
      "v": 127
    },
    {
      "midi": 54,
      "hit": false,
      "t": 88863.54750000045,
      "d": 227.2725000000064,
      "v": 127
    },
    {
      "midi": 58,
      "hit": false,
      "t": 89090.81999999982,
      "d": 909.0899999999965,
      "v": 127
    },
    {
      "midi": 48,
      "hit": false,
      "t": 89090.82000000046,
      "d": 227.2725000000064,
      "v": 127
    },
    {
      "midi": 51,
      "hit": false,
      "t": 89318.09250000046,
      "d": 227.2725000000064,
      "v": 127
    },
    {
      "midi": 48,
      "hit": false,
      "t": 89772.63750000048,
      "d": 227.2725000000064,
      "v": 127
    },
    {
      "midi": 51,
      "hit": false,
      "t": 89999.91000000048,
      "d": 227.2725000000064,
      "v": 127
    },
    {
      "midi": 48,
      "hit": false,
      "t": 90227.18250000049,
      "d": 227.2725000000064,
      "v": 127
    },
    {
      "midi": 51,
      "hit": false,
      "t": 90681.7275000005,
      "d": 227.2725000000064,
      "v": 127
    },
    {
      "midi": 54,
      "hit": false,
      "t": 90908.99999999981,
      "d": 1363.6349999999948,
      "v": 127
    },
    {
      "midi": 46,
      "hit": false,
      "t": 90909.00000000051,
      "d": 227.2725000000064,
      "v": 127
    },
    {
      "midi": 49,
      "hit": false,
      "t": 91136.27250000052,
      "d": 227.2725000000064,
      "v": 127
    },
    {
      "midi": 46,
      "hit": false,
      "t": 91590.81750000053,
      "d": 227.2725000000064,
      "v": 127
    },
    {
      "midi": 49,
      "hit": false,
      "t": 91818.09000000053,
      "d": 227.2725000000064,
      "v": 127
    },
    {
      "midi": 46,
      "hit": false,
      "t": 92045.36250000054,
      "d": 227.2725000000064,
      "v": 127
    },
    {
      "midi": 49,
      "hit": false,
      "t": 92272.6349999998,
      "d": 454.54499999999825,
      "v": 127
    },
    {
      "midi": 42,
      "hit": false,
      "t": 92499.90750000055,
      "d": 227.2725000000064,
      "v": 127
    },
    {
      "midi": 53,
      "hit": false,
      "t": 92727.1799999998,
      "d": 1818.179999999993,
      "v": 127
    },
    {
      "midi": 42,
      "hit": false,
      "t": 92727.18000000056,
      "d": 227.2725000000064,
      "v": 127
    },
    {
      "midi": 46,
      "hit": false,
      "t": 92954.45250000057,
      "d": 227.2725000000064,
      "v": 127
    },
    {
      "midi": 42,
      "hit": false,
      "t": 93181.72500000057,
      "d": 227.2725000000064,
      "v": 127
    },
    {
      "midi": 46,
      "hit": false,
      "t": 93408.99750000058,
      "d": 227.2725000000064,
      "v": 127
    },
    {
      "midi": 42,
      "hit": false,
      "t": 93636.27000000059,
      "d": 227.2725000000064,
      "v": 127
    },
    {
      "midi": 46,
      "hit": false,
      "t": 93863.54250000059,
      "d": 227.2725000000064,
      "v": 127
    },
    {
      "midi": 42,
      "hit": false,
      "t": 94090.8150000006,
      "d": 227.2725000000064,
      "v": 127
    },
    {
      "midi": 46,
      "hit": false,
      "t": 94318.0875000006,
      "d": 227.2725000000064,
      "v": 127
    },
    {
      "midi": 51,
      "hit": false,
      "t": 94545.3599999998,
      "d": 227.2725000000064,
      "v": 127
    },
    {
      "midi": 42,
      "hit": false,
      "t": 94545.36000000061,
      "d": 227.2725000000064,
      "v": 127
    },
    {
      "midi": 50,
      "hit": false,
      "t": 94772.6324999998,
      "d": 227.2725000000064,
      "v": 127
    },
    {
      "midi": 46,
      "hit": false,
      "t": 94772.63250000062,
      "d": 227.2725000000064,
      "v": 127
    },
    {
      "midi": 42,
      "hit": false,
      "t": 94999.90500000062,
      "d": 227.2725000000064,
      "v": 127
    },
    {
      "midi": 49,
      "hit": false,
      "t": 95227.17749999982,
      "d": 227.2725000000064,
      "v": 127
    },
    {
      "midi": 46,
      "hit": false,
      "t": 95227.17750000063,
      "d": 227.2725000000064,
      "v": 127
    },
    {
      "midi": 48,
      "hit": false,
      "t": 95454.44999999982,
      "d": 227.2725000000064,
      "v": 127
    },
    {
      "midi": 42,
      "hit": false,
      "t": 95454.45000000064,
      "d": 227.2725000000064,
      "v": 127
    },
    {
      "midi": 49,
      "hit": false,
      "t": 95681.72249999983,
      "d": 227.2725000000064,
      "v": 127
    },
    {
      "midi": 45,
      "hit": false,
      "t": 95681.72250000064,
      "d": 227.2725000000064,
      "v": 127
    },
    {
      "midi": 42,
      "hit": false,
      "t": 95908.99500000065,
      "d": 227.2725000000064,
      "v": 127
    },
    {
      "midi": 47,
      "hit": false,
      "t": 96136.26749999984,
      "d": 227.2725000000064,
      "v": 127
    },
    {
      "midi": 45,
      "hit": false,
      "t": 96136.26750000066,
      "d": 227.2725000000064,
      "v": 127
    },
    {
      "midi": 48,
      "hit": false,
      "t": 96363.53999999985,
      "d": 227.2725000000064,
      "v": 127
    },
    {
      "midi": 42,
      "hit": false,
      "t": 96363.54000000066,
      "d": 227.2725000000064,
      "v": 127
    },
    {
      "midi": 49,
      "hit": false,
      "t": 96590.81249999985,
      "d": 227.2725000000064,
      "v": 127
    },
    {
      "midi": 45,
      "hit": false,
      "t": 96590.81250000067,
      "d": 227.2725000000064,
      "v": 127
    },
    {
      "midi": 42,
      "hit": false,
      "t": 96818.08500000068,
      "d": 227.2725000000064,
      "v": 127
    },
    {
      "midi": 50,
      "hit": false,
      "t": 97045.35749999987,
      "d": 227.2725000000064,
      "v": 127
    },
    {
      "midi": 45,
      "hit": false,
      "t": 97045.35750000068,
      "d": 227.2725000000064,
      "v": 127
    },
    {
      "midi": 51,
      "hit": false,
      "t": 97272.62999999987,
      "d": 227.2725000000064,
      "v": 127
    },
    {
      "midi": 42,
      "hit": false,
      "t": 97272.63000000069,
      "d": 227.2725000000064,
      "v": 127
    },
    {
      "midi": 52,
      "hit": false,
      "t": 97499.90249999988,
      "d": 227.2725000000064,
      "v": 127
    },
    {
      "midi": 45,
      "hit": false,
      "t": 97499.9025000007,
      "d": 227.2725000000064,
      "v": 127
    },
    {
      "midi": 42,
      "hit": false,
      "t": 97727.1750000007,
      "d": 227.2725000000064,
      "v": 127
    },
    {
      "midi": 53,
      "hit": false,
      "t": 97954.4474999999,
      "d": 227.2725000000064,
      "v": 127
    },
    {
      "midi": 45,
      "hit": false,
      "t": 97954.44750000071,
      "d": 227.2725000000064,
      "v": 127
    },
    {
      "midi": 56,
      "hit": false,
      "t": 98181.7199999999,
      "d": 909.0899999999965,
      "v": 127
    },
    {
      "midi": 45,
      "hit": false,
      "t": 98181.72000000071,
      "d": 227.2725000000064,
      "v": 127
    },
    {
      "midi": 49,
      "hit": false,
      "t": 98408.99250000072,
      "d": 227.2725000000064,
      "v": 127
    },
    {
      "midi": 45,
      "hit": false,
      "t": 98636.26500000073,
      "d": 227.2725000000064,
      "v": 127
    },
    {
      "midi": 49,
      "hit": false,
      "t": 98863.53750000073,
      "d": 227.2725000000064,
      "v": 127
    },
    {
      "midi": 55,
      "hit": false,
      "t": 99090.8099999999,
      "d": 227.2725000000064,
      "v": 127
    },
    {
      "midi": 45,
      "hit": false,
      "t": 99090.81000000074,
      "d": 227.2725000000064,
      "v": 127
    },
    {
      "midi": 54,
      "hit": false,
      "t": 99318.0824999999,
      "d": 227.2725000000064,
      "v": 127
    },
    {
      "midi": 49,
      "hit": false,
      "t": 99318.08250000075,
      "d": 227.2725000000064,
      "v": 127
    },
    {
      "midi": 45,
      "hit": false,
      "t": 99545.35500000075,
      "d": 227.2725000000064,
      "v": 127
    },
    {
      "midi": 53,
      "hit": false,
      "t": 99772.62749999992,
      "d": 227.2725000000064,
      "v": 127
    },
    {
      "midi": 49,
      "hit": false,
      "t": 99772.62750000076,
      "d": 227.2725000000064,
      "v": 127
    },
    {
      "midi": 54,
      "hit": false,
      "t": 99999.89999999992,
      "d": 227.2725000000064,
      "v": 127
    },
    {
      "midi": 45,
      "hit": false,
      "t": 99999.90000000077,
      "d": 227.2725000000064,
      "v": 127
    },
    {
      "midi": 55,
      "hit": false,
      "t": 100227.17249999993,
      "d": 227.2725000000064,
      "v": 127
    },
    {
      "midi": 49,
      "hit": false,
      "t": 100227.17250000077,
      "d": 227.2725000000064,
      "v": 127
    },
    {
      "midi": 45,
      "hit": false,
      "t": 100454.44500000078,
      "d": 227.2725000000064,
      "v": 127
    },
    {
      "midi": 56,
      "hit": false,
      "t": 100681.71749999994,
      "d": 227.2725000000064,
      "v": 127
    },
    {
      "midi": 49,
      "hit": false,
      "t": 100681.71750000078,
      "d": 227.2725000000064,
      "v": 127
    },
    {
      "midi": 59,
      "hit": false,
      "t": 100908.98999999995,
      "d": 227.2725000000064,
      "v": 127
    },
    {
      "midi": 43,
      "hit": false,
      "t": 100908.99000000079,
      "d": 227.2725000000064,
      "v": 127
    },
    {
      "midi": 57,
      "hit": false,
      "t": 101136.26249999995,
      "d": 227.2725000000064,
      "v": 127
    },
    {
      "midi": 49,
      "hit": false,
      "t": 101136.2625000008,
      "d": 227.2725000000064,
      "v": 127
    },
    {
      "midi": 43,
      "hit": false,
      "t": 101363.5350000008,
      "d": 227.2725000000064,
      "v": 127
    },
    {
      "midi": 56,
      "hit": false,
      "t": 101590.80749999997,
      "d": 227.2725000000064,
      "v": 127
    },
    {
      "midi": 49,
      "hit": false,
      "t": 101590.80750000081,
      "d": 227.2725000000064,
      "v": 127
    },
    {
      "midi": 58,
      "hit": false,
      "t": 101818.07999999997,
      "d": 227.2725000000064,
      "v": 127
    },
    {
      "midi": 43,
      "hit": false,
      "t": 101818.08000000082,
      "d": 227.2725000000064,
      "v": 127
    },
    {
      "midi": 59,
      "hit": false,
      "t": 102045.35249999998,
      "d": 227.2725000000064,
      "v": 127
    },
    {
      "midi": 49,
      "hit": false,
      "t": 102045.35250000082,
      "d": 227.2725000000064,
      "v": 127
    },
    {
      "midi": 43,
      "hit": false,
      "t": 102272.62500000083,
      "d": 227.2725000000064,
      "v": 127
    },
    {
      "midi": 60,
      "hit": false,
      "t": 102499.89749999999,
      "d": 227.2725000000064,
      "v": 127
    },
    {
      "midi": 49,
      "hit": false,
      "t": 102499.89750000084,
      "d": 227.2725000000064,
      "v": 127
    },
    {
      "midi": 61,
      "hit": false,
      "t": 102727.17,
      "d": 227.2725000000064,
      "v": 127
    },
    {
      "midi": 37,
      "hit": false,
      "t": 102727.17000000084,
      "d": 909.0899999999965,
      "v": 127
    },
    {
      "midi": 44,
      "hit": false,
      "t": 102727.17000000084,
      "d": 909.0899999999965,
      "v": 127
    },
    {
      "midi": 49,
      "hit": false,
      "t": 102727.17000000084,
      "d": 909.0899999999965,
      "v": 127
    },
    {
      "midi": 60,
      "hit": false,
      "t": 102954.4425,
      "d": 227.2725000000064,
      "v": 127
    },
    {
      "midi": 59,
      "hit": false,
      "t": 103408.98750000002,
      "d": 227.2725000000064,
      "v": 127
    },
    {
      "midi": 58,
      "hit": false,
      "t": 103636.26000000002,
      "d": 227.2725000000064,
      "v": 127
    },
    {
      "midi": 42,
      "hit": false,
      "t": 103636.26000000084,
      "d": 1818.179999999993,
      "v": 127
    },
    {
      "midi": 46,
      "hit": false,
      "t": 103636.26000000084,
      "d": 1818.179999999993,
      "v": 127
    },
    {
      "midi": 49,
      "hit": false,
      "t": 103636.26000000084,
      "d": 1818.179999999993,
      "v": 127
    },
    {
      "midi": 60,
      "hit": false,
      "t": 103863.53250000003,
      "d": 227.2725000000064,
      "v": 127
    },
    {
      "midi": 57,
      "hit": false,
      "t": 104318.07750000004,
      "d": 227.2725000000064,
      "v": 127
    },
    {
      "midi": 58,
      "hit": false,
      "t": 104545.35000000005,
      "d": 227.2725000000064,
      "v": 127
    },
    {
      "midi": 59,
      "hit": false,
      "t": 104772.62250000006,
      "d": 227.2725000000064,
      "v": 127
    },
    {
      "midi": 60,
      "hit": false,
      "t": 105227.16750000007,
      "d": 227.2725000000064,
      "v": 127
    },
    {
      "midi": 61,
      "hit": false,
      "t": 105454.44000000008,
      "d": 227.2725000000064,
      "v": 127
    },
    {
      "midi": 37,
      "hit": false,
      "t": 105454.44000000083,
      "d": 909.0899999999965,
      "v": 127
    },
    {
      "midi": 44,
      "hit": false,
      "t": 105454.44000000083,
      "d": 909.0899999999965,
      "v": 127
    },
    {
      "midi": 49,
      "hit": false,
      "t": 105454.44000000083,
      "d": 909.0899999999965,
      "v": 127
    },
    {
      "midi": 60,
      "hit": false,
      "t": 105681.71250000008,
      "d": 227.2725000000064,
      "v": 127
    },
    {
      "midi": 59,
      "hit": false,
      "t": 106136.2575000001,
      "d": 227.2725000000064,
      "v": 127
    },
    {
      "midi": 58,
      "hit": false,
      "t": 106363.5300000001,
      "d": 227.2725000000064,
      "v": 127
    },
    {
      "midi": 43,
      "hit": false,
      "t": 106363.53000000083,
      "d": 2727.270000000004,
      "v": 127
    },
    {
      "midi": 46,
      "hit": false,
      "t": 106363.53000000083,
      "d": 2727.270000000004,
      "v": 127
    },
    {
      "midi": 49,
      "hit": false,
      "t": 106363.53000000083,
      "d": 2727.270000000004,
      "v": 127
    },
    {
      "midi": 60,
      "hit": false,
      "t": 106590.8025000001,
      "d": 227.2725000000064,
      "v": 127
    },
    {
      "midi": 57,
      "hit": false,
      "t": 107045.34750000012,
      "d": 227.2725000000064,
      "v": 127
    },
    {
      "midi": 58,
      "hit": false,
      "t": 107272.62000000013,
      "d": 227.2725000000064,
      "v": 127
    },
    {
      "midi": 60,
      "hit": false,
      "t": 107499.89250000013,
      "d": 227.2725000000064,
      "v": 127
    },
    {
      "midi": 61,
      "hit": false,
      "t": 107954.43750000015,
      "d": 227.2725000000064,
      "v": 127
    },
    {
      "midi": 63,
      "hit": false,
      "t": 108181.71000000015,
      "d": 227.2725000000064,
      "v": 127
    },
    {
      "midi": 64,
      "hit": false,
      "t": 108408.98250000016,
      "d": 227.2725000000064,
      "v": 127
    },
    {
      "midi": 65,
      "hit": false,
      "t": 108863.52750000017,
      "d": 227.2725000000064,
      "v": 127
    },
    {
      "midi": 58,
      "hit": false,
      "t": 109090.80000000018,
      "d": 227.2725000000064,
      "v": 127
    },
    {
      "midi": 51,
      "hit": false,
      "t": 109090.80000000083,
      "d": 909.0899999999965,
      "v": 127
    },
    {
      "midi": 60,
      "hit": false,
      "t": 109318.07250000018,
      "d": 227.2725000000064,
      "v": 127
    },
    {
      "midi": 58,
      "hit": false,
      "t": 109772.6175000002,
      "d": 227.2725000000064,
      "v": 127
    },
    {
      "midi": 60,
      "hit": false,
      "t": 109999.8900000002,
      "d": 227.2725000000064,
      "v": 127
    },
    {
      "midi": 49,
      "hit": false,
      "t": 109999.89000000083,
      "d": 909.0899999999965,
      "v": 127
    },
    {
      "midi": 58,
      "hit": false,
      "t": 110227.16250000021,
      "d": 227.2725000000064,
      "v": 127
    },
    {
      "midi": 60,
      "hit": false,
      "t": 110681.70750000022,
      "d": 227.2725000000064,
      "v": 127
    },
    {
      "midi": 58,
      "hit": false,
      "t": 110908.98000000023,
      "d": 227.2725000000064,
      "v": 127
    },
    {
      "midi": 48,
      "hit": false,
      "t": 110908.98000000083,
      "d": 909.0899999999965,
      "v": 127
    },
    {
      "midi": 57,
      "hit": false,
      "t": 111136.25250000024,
      "d": 227.2725000000064,
      "v": 127
    },
    {
      "midi": 58,
      "hit": false,
      "t": 111590.79750000025,
      "d": 227.2725000000064,
      "v": 127
    },
    {
      "midi": 57,
      "hit": false,
      "t": 111818.07000000025,
      "d": 227.2725000000064,
      "v": 127
    },
    {
      "midi": 48,
      "hit": false,
      "t": 111818.07000000082,
      "d": 454.54499999999825,
      "v": 127
    },
    {
      "midi": 56,
      "hit": false,
      "t": 112045.34250000026,
      "d": 227.2725000000064,
      "v": 127
    },
    {
      "midi": 49,
      "hit": false,
      "t": 112272.61500000082,
      "d": 454.54499999999825,
      "v": 127
    },
    {
      "midi": 57,
      "hit": false,
      "t": 112499.88750000027,
      "d": 227.2725000000064,
      "v": 127
    },
    {
      "midi": 56,
      "hit": false,
      "t": 112727.16000000028,
      "d": 227.2725000000064,
      "v": 127
    },
    {
      "midi": 49,
      "hit": false,
      "t": 112727.16000000082,
      "d": 909.0899999999965,
      "v": 127
    },
    {
      "midi": 58,
      "hit": false,
      "t": 112954.43250000029,
      "d": 227.2725000000064,
      "v": 127
    },
    {
      "midi": 56,
      "hit": false,
      "t": 113408.9775000003,
      "d": 227.2725000000064,
      "v": 127
    },
    {
      "midi": 61,
      "hit": false,
      "t": 113636.2500000003,
      "d": 227.2725000000064,
      "v": 127
    },
    {
      "midi": 37,
      "hit": false,
      "t": 113636.25000000081,
      "d": 909.0899999999965,
      "v": 127
    },
    {
      "midi": 49,
      "hit": false,
      "t": 113636.25000000081,
      "d": 909.0899999999965,
      "v": 127
    },
    {
      "midi": 60,
      "hit": false,
      "t": 113863.52250000031,
      "d": 227.2725000000064,
      "v": 127
    },
    {
      "midi": 63,
      "hit": false,
      "t": 113863.52250000031,
      "d": 227.2725000000064,
      "v": 127
    },
    {
      "midi": 59,
      "hit": false,
      "t": 114318.06750000032,
      "d": 227.2725000000064,
      "v": 127
    },
    {
      "midi": 65,
      "hit": false,
      "t": 114318.06750000032,
      "d": 227.2725000000064,
      "v": 127
    },
    {
      "midi": 65,
      "hit": false,
      "t": 114545.34000000033,
      "d": 227.2725000000064,
      "v": 127
    },
    {
      "midi": 42,
      "hit": false,
      "t": 114545.34000000081,
      "d": 1818.179999999993,
      "v": 127
    },
    {
      "midi": 49,
      "hit": false,
      "t": 114545.34000000081,
      "d": 1818.179999999993,
      "v": 127
    },
    {
      "midi": 59,
      "hit": false,
      "t": 114772.61250000034,
      "d": 227.2725000000064,
      "v": 127
    },
    {
      "midi": 58,
      "hit": false,
      "t": 115227.15750000035,
      "d": 227.2725000000064,
      "v": 127
    },
    {
      "midi": 60,
      "hit": false,
      "t": 115454.43000000036,
      "d": 227.2725000000064,
      "v": 127
    },
    {
      "midi": 58,
      "hit": false,
      "t": 115681.70250000036,
      "d": 227.2725000000064,
      "v": 127
    },
    {
      "midi": 61,
      "hit": false,
      "t": 116136.24750000038,
      "d": 227.2725000000064,
      "v": 127
    },
    {
      "midi": 61,
      "hit": false,
      "t": 116363.52000000038,
      "d": 227.2725000000064,
      "v": 127
    },
    {
      "midi": 37,
      "hit": false,
      "t": 116363.5200000008,
      "d": 909.0899999999965,
      "v": 127
    },
    {
      "midi": 49,
      "hit": false,
      "t": 116363.5200000008,
      "d": 909.0899999999965,
      "v": 127
    },
    {
      "midi": 60,
      "hit": false,
      "t": 116590.79250000039,
      "d": 227.2725000000064,
      "v": 127
    },
    {
      "midi": 63,
      "hit": false,
      "t": 116590.79250000039,
      "d": 227.2725000000064,
      "v": 127
    },
    {
      "midi": 59,
      "hit": false,
      "t": 117045.3375000004,
      "d": 227.2725000000064,
      "v": 127
    },
    {
      "midi": 65,
      "hit": false,
      "t": 117045.3375000004,
      "d": 227.2725000000064,
      "v": 127
    },
    {
      "midi": 65,
      "hit": false,
      "t": 117272.61000000041,
      "d": 227.2725000000064,
      "v": 127
    },
    {
      "midi": 49,
      "hit": false,
      "t": 117272.6100000008,
      "d": 1818.179999999993,
      "v": 127
    },
    {
      "midi": 59,
      "hit": false,
      "t": 117499.88250000041,
      "d": 227.2725000000064,
      "v": 127
    },
    {
      "midi": 58,
      "hit": false,
      "t": 117954.42750000043,
      "d": 227.2725000000064,
      "v": 127
    },
    {
      "midi": 66,
      "hit": false,
      "t": 118181.70000000043,
      "d": 227.2725000000064,
      "v": 127
    },
    {
      "midi": 68,
      "hit": false,
      "t": 118408.97250000044,
      "d": 227.2725000000064,
      "v": 127
    },
    {
      "midi": 66,
      "hit": false,
      "t": 118863.51750000045,
      "d": 227.2725000000064,
      "v": 127
    },
    {
      "midi": 65,
      "hit": false,
      "t": 119090.79000000046,
      "d": 227.2725000000064,
      "v": 127
    },
    {
      "midi": 50,
      "hit": false,
      "t": 119090.7900000008,
      "d": 909.0899999999965,
      "v": 127
    },
    {
      "midi": 66,
      "hit": false,
      "t": 119318.06250000047,
      "d": 227.2725000000064,
      "v": 127
    },
    {
      "midi": 65,
      "hit": false,
      "t": 119772.60750000048,
      "d": 227.2725000000064,
      "v": 127
    },
    {
      "midi": 63,
      "hit": false,
      "t": 119999.88000000048,
      "d": 227.2725000000064,
      "v": 127
    },
    {
      "midi": 42,
      "hit": false,
      "t": 119999.88000000079,
      "d": 1818.179999999993,
      "v": 127
    },
    {
      "midi": 51,
      "hit": false,
      "t": 119999.88000000079,
      "d": 1818.179999999993,
      "v": 127
    },
    {
      "midi": 65,
      "hit": false,
      "t": 120227.15250000049,
      "d": 227.2725000000064,
      "v": 127
    },
    {
      "midi": 63,
      "hit": false,
      "t": 120681.6975000005,
      "d": 227.2725000000064,
      "v": 127
    },
    {
      "midi": 62,
      "hit": false,
      "t": 120908.97000000051,
      "d": 227.2725000000064,
      "v": 127
    },
    {
      "midi": 63,
      "hit": false,
      "t": 121136.24250000052,
      "d": 227.2725000000064,
      "v": 127
    },
    {
      "midi": 62,
      "hit": false,
      "t": 121590.78750000053,
      "d": 227.2725000000064,
      "v": 127
    },
    {
      "midi": 61,
      "hit": false,
      "t": 121818.06000000054,
      "d": 227.2725000000064,
      "v": 127
    },
    {
      "midi": 42,
      "hit": false,
      "t": 121818.06000000078,
      "d": 909.0899999999965,
      "v": 127
    },
    {
      "midi": 46,
      "hit": false,
      "t": 121818.06000000078,
      "d": 909.0899999999965,
      "v": 127
    },
    {
      "midi": 52,
      "hit": false,
      "t": 121818.06000000078,
      "d": 909.0899999999965,
      "v": 127
    },
    {
      "midi": 63,
      "hit": false,
      "t": 122045.33250000054,
      "d": 227.2725000000064,
      "v": 127
    },
    {
      "midi": 61,
      "hit": false,
      "t": 122499.87750000056,
      "d": 227.2725000000064,
      "v": 127
    },
    {
      "midi": 68,
      "hit": false,
      "t": 122727.15000000056,
      "d": 227.2725000000064,
      "v": 127
    },
    {
      "midi": 44,
      "hit": false,
      "t": 122727.15000000078,
      "d": 1818.179999999993,
      "v": 127
    },
    {
      "midi": 49,
      "hit": false,
      "t": 122727.15000000078,
      "d": 1818.179999999993,
      "v": 127
    },
    {
      "midi": 53,
      "hit": false,
      "t": 122727.15000000078,
      "d": 1818.179999999993,
      "v": 127
    },
    {
      "midi": 61,
      "hit": false,
      "t": 122954.42250000057,
      "d": 227.2725000000064,
      "v": 127
    },
    {
      "midi": 63,
      "hit": false,
      "t": 123408.96750000058,
      "d": 227.2725000000064,
      "v": 127
    },
    {
      "midi": 61,
      "hit": false,
      "t": 123636.24000000059,
      "d": 227.2725000000064,
      "v": 127
    },
    {
      "midi": 60,
      "hit": false,
      "t": 123863.5125000006,
      "d": 227.2725000000064,
      "v": 127
    },
    {
      "midi": 61,
      "hit": false,
      "t": 124318.0575000006,
      "d": 227.2725000000064,
      "v": 127
    },
    {
      "midi": 69,
      "hit": false,
      "t": 124545.33000000061,
      "d": 227.2725000000064,
      "v": 127
    },
    {
      "midi": 41,
      "hit": false,
      "t": 124545.33000000077,
      "d": 909.0899999999965,
      "v": 127
    },
    {
      "midi": 49,
      "hit": false,
      "t": 124545.33000000077,
      "d": 909.0899999999965,
      "v": 127
    },
    {
      "midi": 53,
      "hit": false,
      "t": 124545.33000000077,
      "d": 909.0899999999965,
      "v": 127
    },
    {
      "midi": 60,
      "hit": false,
      "t": 124772.60250000062,
      "d": 227.2725000000064,
      "v": 127
    },
    {
      "midi": 61,
      "hit": false,
      "t": 125227.14750000063,
      "d": 227.2725000000064,
      "v": 127
    },
    {
      "midi": 58,
      "hit": false,
      "t": 125454.42000000064,
      "d": 227.2725000000064,
      "v": 127
    },
    {
      "midi": 42,
      "hit": false,
      "t": 125454.42000000077,
      "d": 227.2725000000064,
      "v": 127
    },
    {
      "midi": 63,
      "hit": false,
      "t": 125681.69250000064,
      "d": 227.2725000000064,
      "v": 127
    },
    {
      "midi": 70,
      "hit": false,
      "t": 125681.69250000064,
      "d": 227.2725000000064,
      "v": 127
    },
    {
      "midi": 49,
      "hit": false,
      "t": 125681.69250000078,
      "d": 227.2725000000064,
      "v": 127
    },
    {
      "midi": 58,
      "hit": false,
      "t": 126136.23750000066,
      "d": 227.2725000000064,
      "v": 127
    },
    {
      "midi": 42,
      "hit": false,
      "t": 126136.23750000079,
      "d": 227.2725000000064,
      "v": 127
    },
    {
      "midi": 63,
      "hit": false,
      "t": 126363.51000000066,
      "d": 227.2725000000064,
      "v": 127
    },
    {
      "midi": 70,
      "hit": false,
      "t": 126363.51000000066,
      "d": 227.2725000000064,
      "v": 127
    },
    {
      "midi": 47,
      "hit": false,
      "t": 126363.5100000008,
      "d": 227.2725000000064,
      "v": 127
    },
    {
      "midi": 58,
      "hit": false,
      "t": 126590.78250000067,
      "d": 227.2725000000064,
      "v": 127
    },
    {
      "midi": 42,
      "hit": false,
      "t": 126590.7825000008,
      "d": 227.2725000000064,
      "v": 127
    },
    {
      "midi": 63,
      "hit": false,
      "t": 127045.32750000068,
      "d": 227.2725000000064,
      "v": 127
    },
    {
      "midi": 70,
      "hit": false,
      "t": 127045.32750000068,
      "d": 227.2725000000064,
      "v": 127
    },
    {
      "midi": 47,
      "hit": false,
      "t": 127045.32750000081,
      "d": 227.2725000000064,
      "v": 127
    },
    {
      "midi": 56,
      "hit": false,
      "t": 127272.60000000069,
      "d": 227.2725000000064,
      "v": 127
    },
    {
      "midi": 41,
      "hit": false,
      "t": 127272.60000000082,
      "d": 227.2725000000064,
      "v": 127
    },
    {
      "midi": 65,
      "hit": false,
      "t": 127499.8725000007,
      "d": 227.2725000000064,
      "v": 127
    },
    {
      "midi": 68,
      "hit": false,
      "t": 127499.8725000007,
      "d": 227.2725000000064,
      "v": 127
    },
    {
      "midi": 49,
      "hit": false,
      "t": 127499.87250000083,
      "d": 227.2725000000064,
      "v": 127
    },
    {
      "midi": 56,
      "hit": false,
      "t": 127954.41750000071,
      "d": 227.2725000000064,
      "v": 127
    },
    {
      "midi": 41,
      "hit": false,
      "t": 127954.41750000084,
      "d": 227.2725000000064,
      "v": 127
    },
    {
      "midi": 58,
      "hit": false,
      "t": 128181.69000000072,
      "d": 227.2725000000064,
      "v": 127
    },
    {
      "midi": 65,
      "hit": false,
      "t": 128181.69000000072,
      "d": 227.2725000000064,
      "v": 127
    },
    {
      "midi": 49,
      "hit": false,
      "t": 128181.69000000085,
      "d": 227.2725000000064,
      "v": 127
    },
    {
      "midi": 53,
      "hit": false,
      "t": 128408.96250000072,
      "d": 227.2725000000064,
      "v": 127
    },
    {
      "midi": 42,
      "hit": false,
      "t": 128408.96250000085,
      "d": 227.2725000000064,
      "v": 127
    },
    {
      "midi": 58,
      "hit": false,
      "t": 128863.50750000073,
      "d": 227.2725000000064,
      "v": 127
    },
    {
      "midi": 65,
      "hit": false,
      "t": 128863.50750000073,
      "d": 227.2725000000064,
      "v": 127
    },
    {
      "midi": 49,
      "hit": false,
      "t": 128863.50750000087,
      "d": 227.2725000000064,
      "v": 127
    },
    {
      "midi": 53,
      "hit": false,
      "t": 129090.78000000074,
      "d": 227.2725000000064,
      "v": 127
    },
    {
      "midi": 42,
      "hit": false,
      "t": 129090.78000000087,
      "d": 227.2725000000064,
      "v": 127
    },
    {
      "midi": 58,
      "hit": false,
      "t": 129318.05250000075,
      "d": 227.2725000000064,
      "v": 127
    },
    {
      "midi": 65,
      "hit": false,
      "t": 129318.05250000075,
      "d": 227.2725000000064,
      "v": 127
    },
    {
      "midi": 49,
      "hit": false,
      "t": 129318.05250000088,
      "d": 227.2725000000064,
      "v": 127
    },
    {
      "midi": 53,
      "hit": false,
      "t": 129772.59750000076,
      "d": 227.2725000000064,
      "v": 127
    },
    {
      "midi": 42,
      "hit": false,
      "t": 129772.59750000089,
      "d": 227.2725000000064,
      "v": 127
    },
    {
      "midi": 58,
      "hit": false,
      "t": 129999.87000000077,
      "d": 227.2725000000064,
      "v": 127
    },
    {
      "midi": 63,
      "hit": false,
      "t": 129999.87000000077,
      "d": 227.2725000000064,
      "v": 127
    },
    {
      "midi": 48,
      "hit": false,
      "t": 129999.8700000009,
      "d": 227.2725000000064,
      "v": 127
    },
    {
      "midi": 51,
      "hit": false,
      "t": 130227.14250000077,
      "d": 227.2725000000064,
      "v": 127
    },
    {
      "midi": 42,
      "hit": false,
      "t": 130227.1425000009,
      "d": 227.2725000000064,
      "v": 127
    },
    {
      "midi": 57,
      "hit": false,
      "t": 130681.68750000079,
      "d": 227.2725000000064,
      "v": 127
    },
    {
      "midi": 63,
      "hit": false,
      "t": 130681.68750000079,
      "d": 227.2725000000064,
      "v": 127
    },
    {
      "midi": 48,
      "hit": false,
      "t": 130681.68750000092,
      "d": 227.2725000000064,
      "v": 127
    },
    {
      "midi": 53,
      "hit": false,
      "t": 130908.96000000079,
      "d": 227.2725000000064,
      "v": 127
    },
    {
      "midi": 41,
      "hit": false,
      "t": 130908.96000000092,
      "d": 227.27249999999185,
      "v": 127
    },
    {
      "midi": 56,
      "hit": false,
      "t": 131136.2325000008,
      "d": 227.27249999999185,
      "v": 127
    },
    {
      "midi": 60,
      "hit": false,
      "t": 131136.2325000008,
      "d": 227.27249999999185,
      "v": 127
    },
    {
      "midi": 48,
      "hit": false,
      "t": 131136.23250000092,
      "d": 227.27249999999185,
      "v": 127
    },
    {
      "midi": 53,
      "hit": false,
      "t": 131590.77750000078,
      "d": 227.27249999999185,
      "v": 127
    },
    {
      "midi": 41,
      "hit": false,
      "t": 131590.7775000009,
      "d": 227.27249999999185,
      "v": 127
    },
    {
      "midi": 56,
      "hit": false,
      "t": 131818.05000000077,
      "d": 227.27249999999185,
      "v": 127
    },
    {
      "midi": 60,
      "hit": false,
      "t": 131818.05000000077,
      "d": 227.27249999999185,
      "v": 127
    },
    {
      "midi": 49,
      "hit": false,
      "t": 131818.0500000009,
      "d": 227.27249999999185,
      "v": 127
    },
    {
      "midi": 53,
      "hit": false,
      "t": 132045.32250000077,
      "d": 227.27249999999185,
      "v": 127
    },
    {
      "midi": 41,
      "hit": false,
      "t": 132045.32250000088,
      "d": 227.27249999999185,
      "v": 127
    },
    {
      "midi": 56,
      "hit": false,
      "t": 132499.86750000075,
      "d": 227.27249999999185,
      "v": 127
    },
    {
      "midi": 60,
      "hit": false,
      "t": 132499.86750000075,
      "d": 227.27249999999185,
      "v": 127
    },
    {
      "midi": 49,
      "hit": false,
      "t": 132499.86750000087,
      "d": 227.27249999999185,
      "v": 127
    },
    {
      "midi": 53,
      "hit": false,
      "t": 132727.14000000074,
      "d": 227.27249999999185,
      "v": 127
    },
    {
      "midi": 41,
      "hit": false,
      "t": 132727.14000000086,
      "d": 227.27249999999185,
      "v": 127
    },
    {
      "midi": 56,
      "hit": false,
      "t": 132954.41250000073,
      "d": 227.27249999999185,
      "v": 127
    },
    {
      "midi": 58,
      "hit": false,
      "t": 132954.41250000073,
      "d": 227.27249999999185,
      "v": 127
    },
    {
      "midi": 50,
      "hit": false,
      "t": 132954.41250000085,
      "d": 227.27249999999185,
      "v": 127
    },
    {
      "midi": 53,
      "hit": false,
      "t": 133408.95750000072,
      "d": 227.27249999999185,
      "v": 127
    },
    {
      "midi": 41,
      "hit": false,
      "t": 133408.95750000083,
      "d": 227.27249999999185,
      "v": 127
    },
    {
      "midi": 54,
      "hit": false,
      "t": 133636.2300000007,
      "d": 227.27249999999185,
      "v": 127
    },
    {
      "midi": 58,
      "hit": false,
      "t": 133636.2300000007,
      "d": 227.27249999999185,
      "v": 127
    },
    {
      "midi": 39,
      "hit": false,
      "t": 133636.23000000083,
      "d": 227.27249999999185,
      "v": 127
    },
    {
      "midi": 51,
      "hit": false,
      "t": 133636.23000000083,
      "d": 227.27249999999185,
      "v": 127
    },
    {
      "midi": 54,
      "hit": false,
      "t": 133863.5025000007,
      "d": 227.27249999999185,
      "v": 127
    },
    {
      "midi": 58,
      "hit": false,
      "t": 133863.5025000007,
      "d": 227.27249999999185,
      "v": 127
    },
    {
      "midi": 39,
      "hit": false,
      "t": 133863.50250000082,
      "d": 227.27249999999185,
      "v": 127
    },
    {
      "midi": 51,
      "hit": false,
      "t": 133863.50250000082,
      "d": 227.27249999999185,
      "v": 127
    },
    {
      "midi": 54,
      "hit": false,
      "t": 134090.7750000007,
      "d": 227.27249999999185,
      "v": 127
    },
    {
      "midi": 58,
      "hit": false,
      "t": 134090.7750000007,
      "d": 227.27249999999185,
      "v": 127
    },
    {
      "midi": 39,
      "hit": false,
      "t": 134090.7750000008,
      "d": 227.27249999999185,
      "v": 127
    },
    {
      "midi": 51,
      "hit": false,
      "t": 134090.7750000008,
      "d": 227.27249999999185,
      "v": 127
    },
    {
      "midi": 54,
      "hit": false,
      "t": 134318.04750000068,
      "d": 227.27249999999185,
      "v": 127
    },
    {
      "midi": 58,
      "hit": false,
      "t": 134318.04750000068,
      "d": 227.27249999999185,
      "v": 127
    },
    {
      "midi": 39,
      "hit": false,
      "t": 134318.0475000008,
      "d": 227.27249999999185,
      "v": 127
    },
    {
      "midi": 51,
      "hit": false,
      "t": 134318.0475000008,
      "d": 227.27249999999185,
      "v": 127
    },
    {
      "midi": 54,
      "hit": false,
      "t": 134545.32000000068,
      "d": 227.27249999999185,
      "v": 127
    },
    {
      "midi": 58,
      "hit": false,
      "t": 134545.32000000068,
      "d": 227.27249999999185,
      "v": 127
    },
    {
      "midi": 39,
      "hit": false,
      "t": 134545.3200000008,
      "d": 227.27249999999185,
      "v": 127
    },
    {
      "midi": 51,
      "hit": false,
      "t": 134545.3200000008,
      "d": 227.27249999999185,
      "v": 127
    },
    {
      "midi": 54,
      "hit": false,
      "t": 134772.59250000067,
      "d": 227.27249999999185,
      "v": 127
    },
    {
      "midi": 58,
      "hit": false,
      "t": 134772.59250000067,
      "d": 227.27249999999185,
      "v": 127
    },
    {
      "midi": 39,
      "hit": false,
      "t": 134772.59250000078,
      "d": 227.27249999999185,
      "v": 127
    },
    {
      "midi": 51,
      "hit": false,
      "t": 134772.59250000078,
      "d": 227.27249999999185,
      "v": 127
    },
    {
      "midi": 54,
      "hit": false,
      "t": 134999.86500000066,
      "d": 227.27249999999185,
      "v": 127
    },
    {
      "midi": 58,
      "hit": false,
      "t": 134999.86500000066,
      "d": 227.27249999999185,
      "v": 127
    },
    {
      "midi": 39,
      "hit": false,
      "t": 134999.86500000078,
      "d": 227.27249999999185,
      "v": 127
    },
    {
      "midi": 51,
      "hit": false,
      "t": 134999.86500000078,
      "d": 227.27249999999185,
      "v": 127
    },
    {
      "midi": 54,
      "hit": false,
      "t": 135227.13750000065,
      "d": 227.27249999999185,
      "v": 127
    },
    {
      "midi": 58,
      "hit": false,
      "t": 135227.13750000065,
      "d": 227.27249999999185,
      "v": 127
    },
    {
      "midi": 39,
      "hit": false,
      "t": 135227.13750000077,
      "d": 227.27249999999185,
      "v": 127
    },
    {
      "midi": 51,
      "hit": false,
      "t": 135227.13750000077,
      "d": 227.27249999999185,
      "v": 127
    },
    {
      "midi": 54,
      "hit": false,
      "t": 135454.41000000064,
      "d": 227.27249999999185,
      "v": 127
    },
    {
      "midi": 58,
      "hit": false,
      "t": 135454.41000000064,
      "d": 227.27249999999185,
      "v": 127
    },
    {
      "midi": 39,
      "hit": false,
      "t": 135454.41000000076,
      "d": 227.27249999999185,
      "v": 127
    },
    {
      "midi": 51,
      "hit": false,
      "t": 135454.41000000076,
      "d": 227.27249999999185,
      "v": 127
    },
    {
      "midi": 54,
      "hit": false,
      "t": 135681.68250000064,
      "d": 227.27249999999185,
      "v": 127
    },
    {
      "midi": 58,
      "hit": false,
      "t": 135681.68250000064,
      "d": 227.27249999999185,
      "v": 127
    },
    {
      "midi": 39,
      "hit": false,
      "t": 135681.68250000075,
      "d": 227.27249999999185,
      "v": 127
    },
    {
      "midi": 51,
      "hit": false,
      "t": 135681.68250000075,
      "d": 227.27249999999185,
      "v": 127
    },
    {
      "midi": 54,
      "hit": false,
      "t": 135908.95500000063,
      "d": 227.27249999999185,
      "v": 127
    },
    {
      "midi": 58,
      "hit": false,
      "t": 135908.95500000063,
      "d": 227.27249999999185,
      "v": 127
    },
    {
      "midi": 39,
      "hit": false,
      "t": 135908.95500000074,
      "d": 227.27249999999185,
      "v": 127
    },
    {
      "midi": 51,
      "hit": false,
      "t": 135908.95500000074,
      "d": 227.27249999999185,
      "v": 127
    },
    {
      "midi": 54,
      "hit": false,
      "t": 136136.22750000062,
      "d": 227.27249999999185,
      "v": 127
    },
    {
      "midi": 58,
      "hit": false,
      "t": 136136.22750000062,
      "d": 227.27249999999185,
      "v": 127
    },
    {
      "midi": 39,
      "hit": false,
      "t": 136136.22750000074,
      "d": 227.27249999999185,
      "v": 127
    },
    {
      "midi": 51,
      "hit": false,
      "t": 136136.22750000074,
      "d": 227.27249999999185,
      "v": 127
    },
    {
      "midi": 54,
      "hit": false,
      "t": 136363.5000000006,
      "d": 227.27249999999185,
      "v": 127
    },
    {
      "midi": 58,
      "hit": false,
      "t": 136363.5000000006,
      "d": 227.27249999999185,
      "v": 127
    },
    {
      "midi": 61,
      "hit": false,
      "t": 136363.5000000006,
      "d": 227.27249999999185,
      "v": 127
    },
    {
      "midi": 39,
      "hit": false,
      "t": 136363.50000000073,
      "d": 227.27249999999185,
      "v": 127
    },
    {
      "midi": 51,
      "hit": false,
      "t": 136363.50000000073,
      "d": 227.27249999999185,
      "v": 127
    },
    {
      "midi": 54,
      "hit": false,
      "t": 136590.7725000006,
      "d": 227.27249999999185,
      "v": 127
    },
    {
      "midi": 58,
      "hit": false,
      "t": 136590.7725000006,
      "d": 227.27249999999185,
      "v": 127
    },
    {
      "midi": 61,
      "hit": false,
      "t": 136590.7725000006,
      "d": 227.27249999999185,
      "v": 127
    },
    {
      "midi": 39,
      "hit": false,
      "t": 136590.77250000072,
      "d": 227.27249999999185,
      "v": 127
    },
    {
      "midi": 51,
      "hit": false,
      "t": 136590.77250000072,
      "d": 227.27249999999185,
      "v": 127
    },
    {
      "midi": 54,
      "hit": false,
      "t": 136818.0450000006,
      "d": 227.27249999999185,
      "v": 127
    },
    {
      "midi": 58,
      "hit": false,
      "t": 136818.0450000006,
      "d": 227.27249999999185,
      "v": 127
    },
    {
      "midi": 61,
      "hit": false,
      "t": 136818.0450000006,
      "d": 227.27249999999185,
      "v": 127
    },
    {
      "midi": 39,
      "hit": false,
      "t": 136818.0450000007,
      "d": 227.27249999999185,
      "v": 127
    },
    {
      "midi": 51,
      "hit": false,
      "t": 136818.0450000007,
      "d": 227.27249999999185,
      "v": 127
    },
    {
      "midi": 54,
      "hit": false,
      "t": 137045.3175000006,
      "d": 227.27249999999185,
      "v": 127
    },
    {
      "midi": 58,
      "hit": false,
      "t": 137045.3175000006,
      "d": 227.27249999999185,
      "v": 127
    },
    {
      "midi": 61,
      "hit": false,
      "t": 137045.3175000006,
      "d": 227.27249999999185,
      "v": 127
    },
    {
      "midi": 39,
      "hit": false,
      "t": 137045.3175000007,
      "d": 227.27249999999185,
      "v": 127
    },
    {
      "midi": 51,
      "hit": false,
      "t": 137045.3175000007,
      "d": 227.27249999999185,
      "v": 127
    },
    {
      "midi": 54,
      "hit": false,
      "t": 137272.59000000058,
      "d": 227.27249999999185,
      "v": 127
    },
    {
      "midi": 58,
      "hit": false,
      "t": 137272.59000000058,
      "d": 227.27249999999185,
      "v": 127
    },
    {
      "midi": 61,
      "hit": false,
      "t": 137272.59000000058,
      "d": 227.27249999999185,
      "v": 127
    },
    {
      "midi": 66,
      "hit": false,
      "t": 137272.59000000058,
      "d": 227.27249999999185,
      "v": 127
    },
    {
      "midi": 39,
      "hit": false,
      "t": 137272.5900000007,
      "d": 227.27249999999185,
      "v": 127
    },
    {
      "midi": 51,
      "hit": false,
      "t": 137272.5900000007,
      "d": 227.27249999999185,
      "v": 127
    },
    {
      "midi": 54,
      "hit": false,
      "t": 137499.86250000057,
      "d": 227.27249999999185,
      "v": 127
    },
    {
      "midi": 58,
      "hit": false,
      "t": 137499.86250000057,
      "d": 227.27249999999185,
      "v": 127
    },
    {
      "midi": 61,
      "hit": false,
      "t": 137499.86250000057,
      "d": 227.27249999999185,
      "v": 127
    },
    {
      "midi": 66,
      "hit": false,
      "t": 137499.86250000057,
      "d": 227.27249999999185,
      "v": 127
    },
    {
      "midi": 39,
      "hit": false,
      "t": 137499.8625000007,
      "d": 227.27249999999185,
      "v": 127
    },
    {
      "midi": 51,
      "hit": false,
      "t": 137499.8625000007,
      "d": 227.27249999999185,
      "v": 127
    },
    {
      "midi": 54,
      "hit": false,
      "t": 137727.13500000056,
      "d": 227.27249999999185,
      "v": 127
    },
    {
      "midi": 58,
      "hit": false,
      "t": 137727.13500000056,
      "d": 227.27249999999185,
      "v": 127
    },
    {
      "midi": 61,
      "hit": false,
      "t": 137727.13500000056,
      "d": 227.27249999999185,
      "v": 127
    },
    {
      "midi": 66,
      "hit": false,
      "t": 137727.13500000056,
      "d": 227.27249999999185,
      "v": 127
    },
    {
      "midi": 39,
      "hit": false,
      "t": 137727.13500000068,
      "d": 227.27249999999185,
      "v": 127
    },
    {
      "midi": 51,
      "hit": false,
      "t": 137727.13500000068,
      "d": 227.27249999999185,
      "v": 127
    },
    {
      "midi": 54,
      "hit": false,
      "t": 137954.40750000055,
      "d": 227.27249999999185,
      "v": 127
    },
    {
      "midi": 58,
      "hit": false,
      "t": 137954.40750000055,
      "d": 227.27249999999185,
      "v": 127
    },
    {
      "midi": 61,
      "hit": false,
      "t": 137954.40750000055,
      "d": 227.27249999999185,
      "v": 127
    },
    {
      "midi": 66,
      "hit": false,
      "t": 137954.40750000055,
      "d": 227.27249999999185,
      "v": 127
    },
    {
      "midi": 39,
      "hit": false,
      "t": 137954.40750000067,
      "d": 227.27249999999185,
      "v": 127
    },
    {
      "midi": 51,
      "hit": false,
      "t": 137954.40750000067,
      "d": 227.27249999999185,
      "v": 127
    },
    {
      "midi": 54,
      "hit": false,
      "t": 138181.68000000055,
      "d": 227.27249999999185,
      "v": 127
    },
    {
      "midi": 58,
      "hit": false,
      "t": 138181.68000000055,
      "d": 227.27249999999185,
      "v": 127
    },
    {
      "midi": 61,
      "hit": false,
      "t": 138181.68000000055,
      "d": 227.27249999999185,
      "v": 127
    },
    {
      "midi": 66,
      "hit": false,
      "t": 138181.68000000055,
      "d": 227.27249999999185,
      "v": 127
    },
    {
      "midi": 39,
      "hit": false,
      "t": 138181.68000000066,
      "d": 227.27249999999185,
      "v": 127
    },
    {
      "midi": 51,
      "hit": false,
      "t": 138181.68000000066,
      "d": 227.27249999999185,
      "v": 127
    },
    {
      "midi": 54,
      "hit": false,
      "t": 138408.95250000054,
      "d": 227.27249999999185,
      "v": 127
    },
    {
      "midi": 58,
      "hit": false,
      "t": 138408.95250000054,
      "d": 227.27249999999185,
      "v": 127
    },
    {
      "midi": 61,
      "hit": false,
      "t": 138408.95250000054,
      "d": 227.27249999999185,
      "v": 127
    },
    {
      "midi": 66,
      "hit": false,
      "t": 138408.95250000054,
      "d": 227.27249999999185,
      "v": 127
    },
    {
      "midi": 39,
      "hit": false,
      "t": 138408.95250000065,
      "d": 227.27249999999185,
      "v": 127
    },
    {
      "midi": 51,
      "hit": false,
      "t": 138408.95250000065,
      "d": 227.27249999999185,
      "v": 127
    },
    {
      "midi": 54,
      "hit": false,
      "t": 138636.22500000053,
      "d": 227.27249999999185,
      "v": 127
    },
    {
      "midi": 58,
      "hit": false,
      "t": 138636.22500000053,
      "d": 227.27249999999185,
      "v": 127
    },
    {
      "midi": 61,
      "hit": false,
      "t": 138636.22500000053,
      "d": 227.27249999999185,
      "v": 127
    },
    {
      "midi": 66,
      "hit": false,
      "t": 138636.22500000053,
      "d": 227.27249999999185,
      "v": 127
    },
    {
      "midi": 39,
      "hit": false,
      "t": 138636.22500000065,
      "d": 227.27249999999185,
      "v": 127
    },
    {
      "midi": 51,
      "hit": false,
      "t": 138636.22500000065,
      "d": 227.27249999999185,
      "v": 127
    },
    {
      "midi": 54,
      "hit": false,
      "t": 138863.49750000052,
      "d": 227.27249999999185,
      "v": 127
    },
    {
      "midi": 58,
      "hit": false,
      "t": 138863.49750000052,
      "d": 227.27249999999185,
      "v": 127
    },
    {
      "midi": 61,
      "hit": false,
      "t": 138863.49750000052,
      "d": 227.27249999999185,
      "v": 127
    },
    {
      "midi": 66,
      "hit": false,
      "t": 138863.49750000052,
      "d": 227.27249999999185,
      "v": 127
    },
    {
      "midi": 39,
      "hit": false,
      "t": 138863.49750000064,
      "d": 227.27249999999185,
      "v": 127
    },
    {
      "midi": 51,
      "hit": false,
      "t": 138863.49750000064,
      "d": 227.27249999999185,
      "v": 127
    },
    {
      "midi": 54,
      "hit": false,
      "t": 139090.7700000005,
      "d": 227.27249999999185,
      "v": 127
    },
    {
      "midi": 58,
      "hit": false,
      "t": 139090.7700000005,
      "d": 227.27249999999185,
      "v": 127
    },
    {
      "midi": 61,
      "hit": false,
      "t": 139090.7700000005,
      "d": 227.27249999999185,
      "v": 127
    },
    {
      "midi": 65,
      "hit": false,
      "t": 139090.7700000005,
      "d": 227.27249999999185,
      "v": 127
    },
    {
      "midi": 32,
      "hit": false,
      "t": 139090.77000000063,
      "d": 227.27249999999185,
      "v": 127
    },
    {
      "midi": 44,
      "hit": false,
      "t": 139090.77000000063,
      "d": 227.27249999999185,
      "v": 127
    },
    {
      "midi": 54,
      "hit": false,
      "t": 139318.0425000005,
      "d": 227.27249999999185,
      "v": 127
    },
    {
      "midi": 58,
      "hit": false,
      "t": 139318.0425000005,
      "d": 227.27249999999185,
      "v": 127
    },
    {
      "midi": 61,
      "hit": false,
      "t": 139318.0425000005,
      "d": 227.27249999999185,
      "v": 127
    },
    {
      "midi": 65,
      "hit": false,
      "t": 139318.0425000005,
      "d": 227.27249999999185,
      "v": 127
    },
    {
      "midi": 32,
      "hit": false,
      "t": 139318.04250000062,
      "d": 227.27249999999185,
      "v": 127
    },
    {
      "midi": 44,
      "hit": false,
      "t": 139318.04250000062,
      "d": 227.27249999999185,
      "v": 127
    },
    {
      "midi": 54,
      "hit": false,
      "t": 139545.3150000005,
      "d": 227.27249999999185,
      "v": 127
    },
    {
      "midi": 58,
      "hit": false,
      "t": 139545.3150000005,
      "d": 227.27249999999185,
      "v": 127
    },
    {
      "midi": 61,
      "hit": false,
      "t": 139545.3150000005,
      "d": 227.27249999999185,
      "v": 127
    },
    {
      "midi": 65,
      "hit": false,
      "t": 139545.3150000005,
      "d": 227.27249999999185,
      "v": 127
    },
    {
      "midi": 32,
      "hit": false,
      "t": 139545.3150000006,
      "d": 227.27249999999185,
      "v": 127
    },
    {
      "midi": 44,
      "hit": false,
      "t": 139545.3150000006,
      "d": 227.27249999999185,
      "v": 127
    },
    {
      "midi": 54,
      "hit": false,
      "t": 139772.5875000005,
      "d": 227.27249999999185,
      "v": 127
    },
    {
      "midi": 58,
      "hit": false,
      "t": 139772.5875000005,
      "d": 227.27249999999185,
      "v": 127
    },
    {
      "midi": 61,
      "hit": false,
      "t": 139772.5875000005,
      "d": 227.27249999999185,
      "v": 127
    },
    {
      "midi": 65,
      "hit": false,
      "t": 139772.5875000005,
      "d": 227.27249999999185,
      "v": 127
    },
    {
      "midi": 32,
      "hit": false,
      "t": 139772.5875000006,
      "d": 227.27249999999185,
      "v": 127
    },
    {
      "midi": 44,
      "hit": false,
      "t": 139772.5875000006,
      "d": 227.27249999999185,
      "v": 127
    },
    {
      "midi": 54,
      "hit": false,
      "t": 139999.86000000048,
      "d": 227.27249999999185,
      "v": 127
    },
    {
      "midi": 58,
      "hit": false,
      "t": 139999.86000000048,
      "d": 227.27249999999185,
      "v": 127
    },
    {
      "midi": 61,
      "hit": false,
      "t": 139999.86000000048,
      "d": 227.27249999999185,
      "v": 127
    },
    {
      "midi": 65,
      "hit": false,
      "t": 139999.86000000048,
      "d": 227.27249999999185,
      "v": 127
    },
    {
      "midi": 32,
      "hit": false,
      "t": 139999.8600000006,
      "d": 227.27249999999185,
      "v": 127
    },
    {
      "midi": 44,
      "hit": false,
      "t": 139999.8600000006,
      "d": 227.27249999999185,
      "v": 127
    },
    {
      "midi": 54,
      "hit": false,
      "t": 140227.13250000047,
      "d": 227.27249999999185,
      "v": 127
    },
    {
      "midi": 58,
      "hit": false,
      "t": 140227.13250000047,
      "d": 227.27249999999185,
      "v": 127
    },
    {
      "midi": 61,
      "hit": false,
      "t": 140227.13250000047,
      "d": 227.27249999999185,
      "v": 127
    },
    {
      "midi": 65,
      "hit": false,
      "t": 140227.13250000047,
      "d": 227.27249999999185,
      "v": 127
    },
    {
      "midi": 32,
      "hit": false,
      "t": 140227.1325000006,
      "d": 227.27249999999185,
      "v": 127
    },
    {
      "midi": 44,
      "hit": false,
      "t": 140227.1325000006,
      "d": 227.27249999999185,
      "v": 127
    },
    {
      "midi": 54,
      "hit": false,
      "t": 140454.40500000046,
      "d": 227.27249999999185,
      "v": 127
    },
    {
      "midi": 58,
      "hit": false,
      "t": 140454.40500000046,
      "d": 227.27249999999185,
      "v": 127
    },
    {
      "midi": 61,
      "hit": false,
      "t": 140454.40500000046,
      "d": 227.27249999999185,
      "v": 127
    },
    {
      "midi": 65,
      "hit": false,
      "t": 140454.40500000046,
      "d": 227.27249999999185,
      "v": 127
    },
    {
      "midi": 32,
      "hit": false,
      "t": 140454.40500000058,
      "d": 227.27249999999185,
      "v": 127
    },
    {
      "midi": 44,
      "hit": false,
      "t": 140454.40500000058,
      "d": 227.27249999999185,
      "v": 127
    },
    {
      "midi": 54,
      "hit": false,
      "t": 140681.67750000046,
      "d": 227.27249999999185,
      "v": 127
    },
    {
      "midi": 58,
      "hit": false,
      "t": 140681.67750000046,
      "d": 227.27249999999185,
      "v": 127
    },
    {
      "midi": 61,
      "hit": false,
      "t": 140681.67750000046,
      "d": 227.27249999999185,
      "v": 127
    },
    {
      "midi": 65,
      "hit": false,
      "t": 140681.67750000046,
      "d": 227.27249999999185,
      "v": 127
    },
    {
      "midi": 32,
      "hit": false,
      "t": 140681.67750000057,
      "d": 227.27249999999185,
      "v": 127
    },
    {
      "midi": 44,
      "hit": false,
      "t": 140681.67750000057,
      "d": 227.27249999999185,
      "v": 127
    },
    {
      "midi": 54,
      "hit": false,
      "t": 140908.95000000045,
      "d": 227.27249999999185,
      "v": 127
    },
    {
      "midi": 58,
      "hit": false,
      "t": 140908.95000000045,
      "d": 227.27249999999185,
      "v": 127
    },
    {
      "midi": 61,
      "hit": false,
      "t": 140908.95000000045,
      "d": 227.27249999999185,
      "v": 127
    },
    {
      "midi": 65,
      "hit": false,
      "t": 140908.95000000045,
      "d": 227.27249999999185,
      "v": 127
    },
    {
      "midi": 32,
      "hit": false,
      "t": 140908.95000000056,
      "d": 227.27249999999185,
      "v": 127
    },
    {
      "midi": 44,
      "hit": false,
      "t": 140908.95000000056,
      "d": 227.27249999999185,
      "v": 127
    },
    {
      "midi": 54,
      "hit": false,
      "t": 141136.22250000044,
      "d": 227.27249999999185,
      "v": 127
    },
    {
      "midi": 58,
      "hit": false,
      "t": 141136.22250000044,
      "d": 227.27249999999185,
      "v": 127
    },
    {
      "midi": 61,
      "hit": false,
      "t": 141136.22250000044,
      "d": 227.27249999999185,
      "v": 127
    },
    {
      "midi": 65,
      "hit": false,
      "t": 141136.22250000044,
      "d": 227.27249999999185,
      "v": 127
    },
    {
      "midi": 32,
      "hit": false,
      "t": 141136.22250000056,
      "d": 227.27249999999185,
      "v": 127
    },
    {
      "midi": 44,
      "hit": false,
      "t": 141136.22250000056,
      "d": 227.27249999999185,
      "v": 127
    },
    {
      "midi": 54,
      "hit": false,
      "t": 141363.49500000043,
      "d": 227.27249999999185,
      "v": 127
    },
    {
      "midi": 58,
      "hit": false,
      "t": 141363.49500000043,
      "d": 227.27249999999185,
      "v": 127
    },
    {
      "midi": 61,
      "hit": false,
      "t": 141363.49500000043,
      "d": 227.27249999999185,
      "v": 127
    },
    {
      "midi": 65,
      "hit": false,
      "t": 141363.49500000043,
      "d": 227.27249999999185,
      "v": 127
    },
    {
      "midi": 32,
      "hit": false,
      "t": 141363.49500000055,
      "d": 227.27249999999185,
      "v": 127
    },
    {
      "midi": 44,
      "hit": false,
      "t": 141363.49500000055,
      "d": 227.27249999999185,
      "v": 127
    },
    {
      "midi": 54,
      "hit": false,
      "t": 141590.76750000042,
      "d": 227.27249999999185,
      "v": 127
    },
    {
      "midi": 58,
      "hit": false,
      "t": 141590.76750000042,
      "d": 227.27249999999185,
      "v": 127
    },
    {
      "midi": 61,
      "hit": false,
      "t": 141590.76750000042,
      "d": 227.27249999999185,
      "v": 127
    },
    {
      "midi": 65,
      "hit": false,
      "t": 141590.76750000042,
      "d": 227.27249999999185,
      "v": 127
    },
    {
      "midi": 32,
      "hit": false,
      "t": 141590.76750000054,
      "d": 227.27249999999185,
      "v": 127
    },
    {
      "midi": 44,
      "hit": false,
      "t": 141590.76750000054,
      "d": 227.27249999999185,
      "v": 127
    },
    {
      "midi": 54,
      "hit": false,
      "t": 141818.04000000042,
      "d": 909.0899999999965,
      "v": 127
    },
    {
      "midi": 56,
      "hit": false,
      "t": 141818.04000000042,
      "d": 909.0899999999965,
      "v": 127
    },
    {
      "midi": 60,
      "hit": false,
      "t": 141818.04000000042,
      "d": 909.0899999999965,
      "v": 127
    },
    {
      "midi": 65,
      "hit": false,
      "t": 141818.04000000042,
      "d": 909.0899999999965,
      "v": 127
    },
    {
      "midi": 32,
      "hit": false,
      "t": 141818.04000000053,
      "d": 227.27249999999185,
      "v": 127
    },
    {
      "midi": 44,
      "hit": false,
      "t": 141818.04000000053,
      "d": 227.27249999999185,
      "v": 127
    },
    {
      "midi": 32,
      "hit": false,
      "t": 142045.31250000052,
      "d": 227.27249999999185,
      "v": 127
    },
    {
      "midi": 44,
      "hit": false,
      "t": 142499.8575000005,
      "d": 227.27249999999185,
      "v": 127
    },
    {
      "midi": 44,
      "hit": false,
      "t": 142727.1300000005,
      "d": 227.27249999999185,
      "v": 127
    },
    {
      "midi": 54,
      "hit": false,
      "t": 142954.4025000005,
      "d": 227.27249999999185,
      "v": 127
    },
    {
      "midi": 60,
      "hit": false,
      "t": 143408.94750000047,
      "d": 227.27249999999185,
      "v": 127
    },
    {
      "midi": 63,
      "hit": false,
      "t": 143636.2200000004,
      "d": 227.27249999999185,
      "v": 127
    },
    {
      "midi": 72,
      "hit": false,
      "t": 143863.4925000004,
      "d": 227.27249999999185,
      "v": 127
    },
    {
      "midi": 80,
      "hit": false,
      "t": 144318.03750000038,
      "d": 227.27249999999185,
      "v": 127
    },
    {
      "midi": 65,
      "hit": false,
      "t": 144545.31000000038,
      "d": 454.5450000000128,
      "v": 127
    },
    {
      "midi": 73,
      "hit": false,
      "t": 144545.31000000038,
      "d": 454.5450000000128,
      "v": 127
    },
    {
      "midi": 53,
      "hit": false,
      "t": 144545.31000000046,
      "d": 227.27249999999185,
      "v": 127
    },
    {
      "midi": 44,
      "hit": false,
      "t": 144772.58250000046,
      "d": 227.27249999999185,
      "v": 127
    },
    {
      "midi": 68,
      "hit": false,
      "t": 144999.8550000004,
      "d": 454.5450000000128,
      "v": 127
    },
    {
      "midi": 75,
      "hit": false,
      "t": 144999.8550000004,
      "d": 454.5450000000128,
      "v": 127
    },
    {
      "midi": 37,
      "hit": false,
      "t": 145227.12750000044,
      "d": 227.27249999999185,
      "v": 127
    },
    {
      "midi": 77,
      "hit": false,
      "t": 145454.4000000004,
      "d": 454.5450000000128,
      "v": 127
    },
    {
      "midi": 44,
      "hit": false,
      "t": 145454.40000000043,
      "d": 227.27249999999185,
      "v": 127
    },
    {
      "midi": 37,
      "hit": false,
      "t": 145681.67250000042,
      "d": 227.27249999999185,
      "v": 127
    },
    {
      "midi": 77,
      "hit": false,
      "t": 145908.9450000004,
      "d": 454.5450000000128,
      "v": 127
    },
    {
      "midi": 44,
      "hit": false,
      "t": 146136.2175000004,
      "d": 227.27249999999185,
      "v": 127
    },
    {
      "midi": 37,
      "hit": false,
      "t": 146363.4900000004,
      "d": 227.27249999999185,
      "v": 127
    },
    {
      "midi": 73,
      "hit": false,
      "t": 146363.49000000043,
      "d": 909.0899999999965,
      "v": 127
    },
    {
      "midi": 77,
      "hit": false,
      "t": 146363.49000000043,
      "d": 909.0899999999965,
      "v": 127
    },
    {
      "midi": 82,
      "hit": false,
      "t": 146363.49000000043,
      "d": 909.0899999999965,
      "v": 127
    },
    {
      "midi": 44,
      "hit": false,
      "t": 146590.7625000004,
      "d": 227.27249999999185,
      "v": 127
    },
    {
      "midi": 37,
      "hit": false,
      "t": 147045.30750000037,
      "d": 227.27249999999185,
      "v": 127
    },
    {
      "midi": 44,
      "hit": false,
      "t": 147272.58000000037,
      "d": 227.27249999999185,
      "v": 127
    },
    {
      "midi": 72,
      "hit": false,
      "t": 147272.58000000042,
      "d": 909.0899999999965,
      "v": 127
    },
    {
      "midi": 75,
      "hit": false,
      "t": 147272.58000000042,
      "d": 909.0899999999965,
      "v": 127
    },
    {
      "midi": 80,
      "hit": false,
      "t": 147272.58000000042,
      "d": 909.0899999999965,
      "v": 127
    },
    {
      "midi": 37,
      "hit": false,
      "t": 147499.85250000036,
      "d": 227.27249999999185,
      "v": 127
    },
    {
      "midi": 44,
      "hit": false,
      "t": 147954.39750000034,
      "d": 227.27249999999185,
      "v": 127
    },
    {
      "midi": 37,
      "hit": false,
      "t": 148181.67000000033,
      "d": 227.27249999999185,
      "v": 127
    },
    {
      "midi": 70,
      "hit": false,
      "t": 148181.67000000042,
      "d": 1818.179999999993,
      "v": 127
    },
    {
      "midi": 73,
      "hit": false,
      "t": 148181.67000000042,
      "d": 1818.179999999993,
      "v": 127
    },
    {
      "midi": 78,
      "hit": false,
      "t": 148181.67000000042,
      "d": 1818.179999999993,
      "v": 127
    },
    {
      "midi": 44,
      "hit": false,
      "t": 148408.94250000032,
      "d": 227.27249999999185,
      "v": 127
    },
    {
      "midi": 37,
      "hit": false,
      "t": 148863.4875000003,
      "d": 227.27249999999185,
      "v": 127
    },
    {
      "midi": 44,
      "hit": false,
      "t": 149090.7600000003,
      "d": 227.27249999999185,
      "v": 127
    },
    {
      "midi": 37,
      "hit": false,
      "t": 149318.0325000003,
      "d": 227.27249999999185,
      "v": 127
    },
    {
      "midi": 44,
      "hit": false,
      "t": 149772.57750000028,
      "d": 227.27249999999185,
      "v": 127
    },
    {
      "midi": 37,
      "hit": false,
      "t": 149999.85000000027,
      "d": 227.27249999999185,
      "v": 127
    },
    {
      "midi": 68,
      "hit": false,
      "t": 149999.8500000004,
      "d": 1818.179999999993,
      "v": 127
    },
    {
      "midi": 73,
      "hit": false,
      "t": 149999.8500000004,
      "d": 1818.179999999993,
      "v": 127
    },
    {
      "midi": 77,
      "hit": false,
      "t": 149999.8500000004,
      "d": 1818.179999999993,
      "v": 127
    },
    {
      "midi": 44,
      "hit": false,
      "t": 150227.12250000026,
      "d": 227.27249999999185,
      "v": 127
    },
    {
      "midi": 53,
      "hit": false,
      "t": 150681.66750000024,
      "d": 227.27249999999185,
      "v": 127
    },
    {
      "midi": 56,
      "hit": false,
      "t": 150908.94000000024,
      "d": 227.27249999999185,
      "v": 127
    },
    {
      "midi": 61,
      "hit": false,
      "t": 151136.21250000023,
      "d": 227.27249999999185,
      "v": 127
    },
    {
      "midi": 65,
      "hit": false,
      "t": 151590.7575000002,
      "d": 227.27249999999185,
      "v": 127
    },
    {
      "midi": 49,
      "hit": false,
      "t": 151818.0300000002,
      "d": 909.0899999999965,
      "v": 127
    },
    {
      "midi": 53,
      "hit": false,
      "t": 151818.0300000002,
      "d": 909.0899999999965,
      "v": 127
    },
    {
      "midi": 58,
      "hit": false,
      "t": 151818.0300000002,
      "d": 909.0899999999965,
      "v": 127
    },
    {
      "midi": 73,
      "hit": false,
      "t": 151818.0300000004,
      "d": 227.27249999999185,
      "v": 127
    },
    {
      "midi": 65,
      "hit": false,
      "t": 152045.3025000004,
      "d": 227.27249999999185,
      "v": 127
    },
    {
      "midi": 61,
      "hit": false,
      "t": 152499.84750000038,
      "d": 227.27249999999185,
      "v": 127
    },
    {
      "midi": 49,
      "hit": false,
      "t": 152727.1200000002,
      "d": 909.0899999999965,
      "v": 127
    },
    {
      "midi": 56,
      "hit": false,
      "t": 152727.1200000002,
      "d": 909.0899999999965,
      "v": 127
    },
    {
      "midi": 60,
      "hit": false,
      "t": 152727.1200000002,
      "d": 909.0899999999965,
      "v": 127
    },
    {
      "midi": 75,
      "hit": false,
      "t": 152727.12000000037,
      "d": 227.27249999999185,
      "v": 127
    },
    {
      "midi": 68,
      "hit": false,
      "t": 152954.39250000037,
      "d": 227.27249999999185,
      "v": 127
    },
    {
      "midi": 63,
      "hit": false,
      "t": 153408.93750000035,
      "d": 227.27249999999185,
      "v": 127
    },
    {
      "midi": 49,
      "hit": false,
      "t": 153636.2100000002,
      "d": 909.0899999999965,
      "v": 127
    },
    {
      "midi": 58,
      "hit": false,
      "t": 153636.2100000002,
      "d": 909.0899999999965,
      "v": 127
    },
    {
      "midi": 61,
      "hit": false,
      "t": 153636.2100000002,
      "d": 909.0899999999965,
      "v": 127
    },
    {
      "midi": 78,
      "hit": false,
      "t": 153636.21000000034,
      "d": 227.27249999999185,
      "v": 127
    },
    {
      "midi": 70,
      "hit": false,
      "t": 153863.48250000033,
      "d": 227.27249999999185,
      "v": 127
    },
    {
      "midi": 66,
      "hit": false,
      "t": 154318.02750000032,
      "d": 227.27249999999185,
      "v": 127
    },
    {
      "midi": 49,
      "hit": false,
      "t": 154545.3000000002,
      "d": 909.0899999999965,
      "v": 127
    },
    {
      "midi": 58,
      "hit": false,
      "t": 154545.3000000002,
      "d": 909.0899999999965,
      "v": 127
    },
    {
      "midi": 63,
      "hit": false,
      "t": 154545.3000000002,
      "d": 909.0899999999965,
      "v": 127
    },
    {
      "midi": 82,
      "hit": false,
      "t": 154545.3000000003,
      "d": 227.27249999999185,
      "v": 127
    },
    {
      "midi": 75,
      "hit": false,
      "t": 154772.5725000003,
      "d": 227.27249999999185,
      "v": 127
    },
    {
      "midi": 70,
      "hit": false,
      "t": 155227.11750000028,
      "d": 227.27249999999185,
      "v": 127
    },
    {
      "midi": 49,
      "hit": false,
      "t": 155454.3900000002,
      "d": 909.0899999999965,
      "v": 127
    },
    {
      "midi": 58,
      "hit": false,
      "t": 155454.3900000002,
      "d": 909.0899999999965,
      "v": 127
    },
    {
      "midi": 61,
      "hit": false,
      "t": 155454.3900000002,
      "d": 909.0899999999965,
      "v": 127
    },
    {
      "midi": 65,
      "hit": false,
      "t": 155454.3900000002,
      "d": 909.0899999999965,
      "v": 127
    },
    {
      "midi": 85,
      "hit": false,
      "t": 155454.39000000028,
      "d": 227.27249999999185,
      "v": 127
    },
    {
      "midi": 77,
      "hit": false,
      "t": 155681.66250000027,
      "d": 227.27249999999185,
      "v": 127
    },
    {
      "midi": 73,
      "hit": false,
      "t": 156136.20750000025,
      "d": 227.27249999999185,
      "v": 127
    },
    {
      "midi": 70,
      "hit": false,
      "t": 156363.48000000019,
      "d": 227.27249999999185,
      "v": 127
    },
    {
      "midi": 65,
      "hit": false,
      "t": 156590.75250000018,
      "d": 227.27249999999185,
      "v": 127
    },
    {
      "midi": 61,
      "hit": false,
      "t": 157045.29750000016,
      "d": 227.27249999999185,
      "v": 127
    },
    {
      "midi": 65,
      "hit": false,
      "t": 157272.57000000015,
      "d": 227.27249999999185,
      "v": 127
    },
    {
      "midi": 70,
      "hit": false,
      "t": 157499.84250000014,
      "d": 227.27249999999185,
      "v": 127
    },
    {
      "midi": 73,
      "hit": false,
      "t": 157954.38750000013,
      "d": 227.27249999999185,
      "v": 127
    },
    {
      "midi": 77,
      "hit": false,
      "t": 158181.66000000012,
      "d": 909.0899999999965,
      "v": 127
    },
    {
      "midi": 29,
      "hit": false,
      "t": 169090.7400000001,
      "d": 909.0899999999965,
      "v": 127
    },
    {
      "midi": 41,
      "hit": false,
      "t": 169090.7400000001,
      "d": 909.0899999999965,
      "v": 127
    },
    {
      "midi": 56,
      "hit": false,
      "t": 169090.74000000025,
      "d": 909.0899999999965,
      "v": 127
    },
    {
      "midi": 60,
      "hit": false,
      "t": 169090.74000000025,
      "d": 909.0899999999965,
      "v": 127
    },
    {
      "midi": 65,
      "hit": false,
      "t": 169090.74000000025,
      "d": 909.0899999999965,
      "v": 127
    },
    {
      "midi": 32,
      "hit": false,
      "t": 169999.8300000001,
      "d": 1363.6350000000093,
      "v": 127
    },
    {
      "midi": 44,
      "hit": false,
      "t": 169999.8300000001,
      "d": 1363.6350000000093,
      "v": 127
    },
    {
      "midi": 54,
      "hit": false,
      "t": 169999.83000000025,
      "d": 1363.6350000000093,
      "v": 127
    },
    {
      "midi": 60,
      "hit": false,
      "t": 169999.83000000025,
      "d": 1363.6350000000093,
      "v": 127
    },
    {
      "midi": 63,
      "hit": false,
      "t": 169999.83000000025,
      "d": 1363.6350000000093,
      "v": 127
    },
    {
      "midi": 37,
      "hit": false,
      "t": 171363.4650000001,
      "d": 454.5450000000128,
      "v": 127
    },
    {
      "midi": 49,
      "hit": false,
      "t": 171363.4650000001,
      "d": 454.5450000000128,
      "v": 127
    },
    {
      "midi": 53,
      "hit": false,
      "t": 171363.46500000026,
      "d": 454.5450000000128,
      "v": 127
    },
    {
      "midi": 56,
      "hit": false,
      "t": 171363.46500000026,
      "d": 454.5450000000128,
      "v": 127
    },
    {
      "midi": 61,
      "hit": false,
      "t": 171363.46500000026,
      "d": 454.5450000000128,
      "v": 127
    },
    {
      "midi": 37,
      "hit": false,
      "t": 171818.01000000013,
      "d": 909.0899999999965,
      "v": 127
    },
    {
      "midi": 49,
      "hit": false,
      "t": 171818.01000000013,
      "d": 909.0899999999965,
      "v": 127
    },
    {
      "midi": 53,
      "hit": false,
      "t": 171818.01000000027,
      "d": 1818.179999999993,
      "v": 127
    },
    {
      "midi": 56,
      "hit": false,
      "t": 171818.01000000027,
      "d": 1818.179999999993,
      "v": 127
    },
    {
      "midi": 61,
      "hit": false,
      "t": 171818.01000000027,
      "d": 1818.179999999993,
      "v": 127
    },
    {
      "midi": 37,
      "hit": false,
      "t": 172727.10000000012,
      "d": 227.27249999999185,
      "v": 127
    },
    {
      "midi": 44,
      "hit": false,
      "t": 172954.3725000001,
      "d": 227.27249999999185,
      "v": 127
    },
    {
      "midi": 53,
      "hit": false,
      "t": 173408.9175000001,
      "d": 227.27249999999185,
      "v": 127
    },
    {
      "midi": 61,
      "hit": false,
      "t": 173636.1900000001,
      "d": 909.0899999999965,
      "v": 127
    },
    {
      "midi": 68,
      "hit": false,
      "t": 173863.46250000026,
      "d": 227.27249999999185,
      "v": 127
    },
    {
      "midi": 77,
      "hit": false,
      "t": 174318.00750000024,
      "d": 227.27249999999185,
      "v": 127
    },
    {
      "midi": 68,
      "hit": false,
      "t": 174545.28000000023,
      "d": 2727.2699999999895,
      "v": 127
    },
    {
      "midi": 85,
      "hit": false,
      "t": 174545.28000000023,
      "d": 2727.2699999999895,
      "v": 127
    }
  ]
}