{
  "jsonPath": "Unknown/Unknown/Irving Gordon/unforgettable.json",
  "path": "Unknown\\Unknown\\Irving Gordon\\Unforgettable.mid",
  "name": "Unforgettable",
  "difficulty": "Advanced",
  "bpm": 75,
  "notes": [
    {
      "midi": 62,
      "hit": false,
      "t": 0,
      "d": 600,
      "v": 100
    },
    {
      "midi": 55,
      "hit": false,
      "t": 0,
      "d": 800,
      "v": 100
    },
    {
      "midi": 59,
      "hit": false,
      "t": 0,
      "d": 800,
      "v": 100
    },
    {
      "midi": 43,
      "hit": false,
      "t": 0,
      "d": 1600,
      "v": 100
    },
    {
      "midi": 64,
      "hit": false,
      "t": 600,
      "d": 200,
      "v": 100
    },
    {
      "midi": 64,
      "hit": false,
      "t": 800,
      "d": 266.66666666666674,
      "v": 100
    },
    {
      "midi": 55,
      "hit": false,
      "t": 800,
      "d": 266.66666666666674,
      "v": 100
    },
    {
      "midi": 59,
      "hit": false,
      "t": 800,
      "d": 266.66666666666674,
      "v": 100
    },
    {
      "midi": 66,
      "hit": false,
      "t": 1066.6666666666667,
      "d": 266.66666666666674,
      "v": 100
    },
    {
      "midi": 59,
      "hit": false,
      "t": 1066.6666666666667,
      "d": 266.66666666666674,
      "v": 100
    },
    {
      "midi": 62,
      "hit": false,
      "t": 1066.6666666666667,
      "d": 266.66666666666674,
      "v": 100
    },
    {
      "midi": 66,
      "hit": false,
      "t": 1333.3333333333335,
      "d": 266.66666666666674,
      "v": 100
    },
    {
      "midi": 59,
      "hit": false,
      "t": 1333.3333333333335,
      "d": 266.66666666666674,
      "v": 100
    },
    {
      "midi": 62,
      "hit": false,
      "t": 1333.3333333333335,
      "d": 266.66666666666674,
      "v": 100
    },
    {
      "midi": 38,
      "hit": false,
      "t": 1600,
      "d": 1600,
      "v": 100
    },
    {
      "midi": 66,
      "hit": false,
      "t": 1600.0000000000002,
      "d": 2400,
      "v": 100
    },
    {
      "midi": 55,
      "hit": false,
      "t": 2400,
      "d": 800,
      "v": 100
    },
    {
      "midi": 59,
      "hit": false,
      "t": 2400,
      "d": 800,
      "v": 100
    },
    {
      "midi": 62,
      "hit": false,
      "t": 2400,
      "d": 800,
      "v": 100
    },
    {
      "midi": 43,
      "hit": false,
      "t": 3200,
      "d": 800,
      "v": 100
    },
    {
      "midi": 67,
      "hit": false,
      "t": 4000,
      "d": 800,
      "v": 100
    },
    {
      "midi": 59,
      "hit": false,
      "t": 4000,
      "d": 800,
      "v": 100
    },
    {
      "midi": 62,
      "hit": false,
      "t": 4000,
      "d": 800,
      "v": 100
    },
    {
      "midi": 55,
      "hit": false,
      "t": 4000,
      "d": 800,
      "v": 100
    },
    {
      "midi": 69,
      "hit": false,
      "t": 4800,
      "d": 400,
      "v": 100
    },
    {
      "midi": 57,
      "hit": false,
      "t": 4800,
      "d": 400,
      "v": 100
    },
    {
      "midi": 71,
      "hit": false,
      "t": 5200,
      "d": 400,
      "v": 100
    },
    {
      "midi": 59,
      "hit": false,
      "t": 5200,
      "d": 400,
      "v": 100
    },
    {
      "midi": 74,
      "hit": false,
      "t": 5600,
      "d": 400,
      "v": 100
    },
    {
      "midi": 67,
      "hit": false,
      "t": 5600,
      "d": 800,
      "v": 100
    },
    {
      "midi": 71,
      "hit": false,
      "t": 5600,
      "d": 800,
      "v": 100
    },
    {
      "midi": 62,
      "hit": false,
      "t": 5600,
      "d": 400,
      "v": 100
    },
    {
      "midi": 76,
      "hit": false,
      "t": 6000,
      "d": 400,
      "v": 100
    },
    {
      "midi": 64,
      "hit": false,
      "t": 6000,
      "d": 400,
      "v": 100
    },
    {
      "midi": 78,
      "hit": false,
      "t": 6400,
      "d": 400,
      "v": 100
    },
    {
      "midi": 73,
      "hit": false,
      "t": 6400,
      "d": 2400,
      "v": 100
    },
    {
      "midi": 57,
      "hit": false,
      "t": 6400,
      "d": 2400,
      "v": 100
    },
    {
      "midi": 67,
      "hit": false,
      "t": 6400,
      "d": 2400,
      "v": 100
    },
    {
      "midi": 81,
      "hit": false,
      "t": 6800,
      "d": 400,
      "v": 100
    },
    {
      "midi": 78,
      "hit": false,
      "t": 7200,
      "d": 1600,
      "v": 100
    },
    {
      "midi": 64,
      "hit": false,
      "t": 8800,
      "d": 266.66666666666606,
      "v": 100
    },
    {
      "midi": 66,
      "hit": false,
      "t": 9066.666666666666,
      "d": 266.66666666666606,
      "v": 100
    },
    {
      "midi": 67,
      "hit": false,
      "t": 9333.333333333332,
      "d": 266.66666666666606,
      "v": 100
    },
    {
      "midi": 71,
      "hit": false,
      "t": 9599.999999999998,
      "d": 400,
      "v": 100
    },
    {
      "midi": 66,
      "hit": false,
      "t": 9600,
      "d": 1600,
      "v": 100
    },
    {
      "midi": 50,
      "hit": false,
      "t": 9600,
      "d": 1600,
      "v": 100
    },
    {
      "midi": 60,
      "hit": false,
      "t": 9600,
      "d": 1600,
      "v": 100
    },
    {
      "midi": 74,
      "hit": false,
      "t": 9999.999999999998,
      "d": 400,
      "v": 100
    },
    {
      "midi": 71,
      "hit": false,
      "t": 10399.999999999998,
      "d": 800,
      "v": 100
    },
    {
      "midi": 64,
      "hit": false,
      "t": 11199.999999999998,
      "d": 800,
      "v": 100
    },
    {
      "midi": 55,
      "hit": false,
      "t": 11200,
      "d": 800,
      "v": 100
    },
    {
      "midi": 60,
      "hit": false,
      "t": 11200,
      "d": 800,
      "v": 100
    },
    {
      "midi": 45,
      "hit": false,
      "t": 11200,
      "d": 800,
      "v": 100
    },
    {
      "midi": 63,
      "hit": false,
      "t": 11999.999999999998,
      "d": 800,
      "v": 100
    },
    {
      "midi": 54,
      "hit": false,
      "t": 12000,
      "d": 800,
      "v": 100
    },
    {
      "midi": 60,
      "hit": false,
      "t": 12000,
      "d": 800,
      "v": 100
    },
    {
      "midi": 38,
      "hit": false,
      "t": 12000,
      "d": 800,
      "v": 100
    },
    {
      "midi": 62,
      "hit": false,
      "t": 12799.999999999998,
      "d": 600,
      "v": 100
    },
    {
      "midi": 55,
      "hit": false,
      "t": 12800,
      "d": 800,
      "v": 100
    },
    {
      "midi": 59,
      "hit": false,
      "t": 12800,
      "d": 800,
      "v": 100
    },
    {
      "midi": 43,
      "hit": false,
      "t": 12800,
      "d": 1600,
      "v": 100
    },
    {
      "midi": 64,
      "hit": false,
      "t": 13399.999999999998,
      "d": 200,
      "v": 100
    },
    {
      "midi": 64,
      "hit": false,
      "t": 13599.999999999998,
      "d": 266.66666666666606,
      "v": 100
    },
    {
      "midi": 55,
      "hit": false,
      "t": 13600,
      "d": 266.66666666666606,
      "v": 100
    },
    {
      "midi": 59,
      "hit": false,
      "t": 13600,
      "d": 266.66666666666606,
      "v": 100
    },
    {
      "midi": 66,
      "hit": false,
      "t": 13866.666666666664,
      "d": 266.66666666666606,
      "v": 100
    },
    {
      "midi": 59,
      "hit": false,
      "t": 13866.666666666666,
      "d": 266.66666666666606,
      "v": 100
    },
    {
      "midi": 62,
      "hit": false,
      "t": 13866.666666666666,
      "d": 266.66666666666606,
      "v": 100
    },
    {
      "midi": 66,
      "hit": false,
      "t": 14133.33333333333,
      "d": 266.66666666666606,
      "v": 100
    },
    {
      "midi": 59,
      "hit": false,
      "t": 14133.333333333332,
      "d": 266.66666666666606,
      "v": 100
    },
    {
      "midi": 62,
      "hit": false,
      "t": 14133.333333333332,
      "d": 266.66666666666606,
      "v": 100
    },
    {
      "midi": 66,
      "hit": false,
      "t": 14399.999999999996,
      "d": 3200,
      "v": 100
    },
    {
      "midi": 38,
      "hit": false,
      "t": 14400,
      "d": 1600,
      "v": 100
    },
    {
      "midi": 55,
      "hit": false,
      "t": 15199.999999999998,
      "d": 800,
      "v": 100
    },
    {
      "midi": 59,
      "hit": false,
      "t": 15199.999999999998,
      "d": 800,
      "v": 100
    },
    {
      "midi": 62,
      "hit": false,
      "t": 15199.999999999998,
      "d": 800,
      "v": 100
    },
    {
      "midi": 43,
      "hit": false,
      "t": 16000,
      "d": 1600,
      "v": 100
    },
    {
      "midi": 55,
      "hit": false,
      "t": 16800,
      "d": 800,
      "v": 100
    },
    {
      "midi": 59,
      "hit": false,
      "t": 16800,
      "d": 800,
      "v": 100
    },
    {
      "midi": 62,
      "hit": false,
      "t": 16800,
      "d": 800,
      "v": 100
    },
    {
      "midi": 62,
      "hit": false,
      "t": 17599.999999999996,
      "d": 533.3333333333321,
      "v": 100
    },
    {
      "midi": 55,
      "hit": false,
      "t": 17600,
      "d": 533.3333333333321,
      "v": 100
    },
    {
      "midi": 59,
      "hit": false,
      "t": 17600,
      "d": 533.3333333333321,
      "v": 100
    },
    {
      "midi": 38,
      "hit": false,
      "t": 17600,
      "d": 1600,
      "v": 100
    },
    {
      "midi": 64,
      "hit": false,
      "t": 18133.33333333333,
      "d": 533.3333333333321,
      "v": 100
    },
    {
      "midi": 55,
      "hit": false,
      "t": 18133.333333333332,
      "d": 533.3333333333321,
      "v": 100
    },
    {
      "midi": 59,
      "hit": false,
      "t": 18133.333333333332,
      "d": 533.3333333333321,
      "v": 100
    },
    {
      "midi": 67,
      "hit": false,
      "t": 18666.66666666666,
      "d": 533.3333333333321,
      "v": 100
    },
    {
      "midi": 59,
      "hit": false,
      "t": 18666.666666666664,
      "d": 533.3333333333321,
      "v": 100
    },
    {
      "midi": 62,
      "hit": false,
      "t": 18666.666666666664,
      "d": 533.3333333333321,
      "v": 100
    },
    {
      "midi": 66,
      "hit": false,
      "t": 19199.999999999993,
      "d": 6400,
      "v": 100
    },
    {
      "midi": 37,
      "hit": false,
      "t": 19200,
      "d": 1600,
      "v": 100
    },
    {
      "midi": 55,
      "hit": false,
      "t": 19999.999999999996,
      "d": 800,
      "v": 100
    },
    {
      "midi": 58,
      "hit": false,
      "t": 19999.999999999996,
      "d": 800,
      "v": 100
    },
    {
      "midi": 61,
      "hit": false,
      "t": 19999.999999999996,
      "d": 800,
      "v": 100
    },
    {
      "midi": 42,
      "hit": false,
      "t": 20800,
      "d": 1200,
      "v": 100
    },
    {
      "midi": 55,
      "hit": false,
      "t": 21599.999999999996,
      "d": 800,
      "v": 100
    },
    {
      "midi": 58,
      "hit": false,
      "t": 21599.999999999996,
      "d": 800,
      "v": 100
    },
    {
      "midi": 61,
      "hit": false,
      "t": 21599.999999999996,
      "d": 800,
      "v": 100
    },
    {
      "midi": 49,
      "hit": false,
      "t": 22000,
      "d": 400,
      "v": 100
    },
    {
      "midi": 52,
      "hit": false,
      "t": 22400,
      "d": 800,
      "v": 100
    },
    {
      "midi": 55,
      "hit": false,
      "t": 23199.999999999996,
      "d": 800,
      "v": 100
    },
    {
      "midi": 58,
      "hit": false,
      "t": 23199.999999999996,
      "d": 800,
      "v": 100
    },
    {
      "midi": 61,
      "hit": false,
      "t": 23199.999999999996,
      "d": 800,
      "v": 100
    },
    {
      "midi": 52,
      "hit": false,
      "t": 23200,
      "d": 266.6666666666679,
      "v": 100
    },
    {
      "midi": 51,
      "hit": false,
      "t": 23466.666666666668,
      "d": 266.6666666666679,
      "v": 100
    },
    {
      "midi": 50,
      "hit": false,
      "t": 23733.333333333336,
      "d": 266.6666666666679,
      "v": 100
    },
    {
      "midi": 49,
      "hit": false,
      "t": 24000.000000000004,
      "d": 1600,
      "v": 100
    },
    {
      "midi": 55,
      "hit": false,
      "t": 24799.999999999996,
      "d": 800,
      "v": 100
    },
    {
      "midi": 58,
      "hit": false,
      "t": 24799.999999999996,
      "d": 800,
      "v": 100
    },
    {
      "midi": 61,
      "hit": false,
      "t": 24799.999999999996,
      "d": 800,
      "v": 100
    },
    {
      "midi": 67,
      "hit": false,
      "t": 25599.999999999993,
      "d": 600,
      "v": 100
    },
    {
      "midi": 60,
      "hit": false,
      "t": 25599.999999999996,
      "d": 800,
      "v": 100
    },
    {
      "midi": 64,
      "hit": false,
      "t": 25599.999999999996,
      "d": 800,
      "v": 100
    },
    {
      "midi": 48,
      "hit": false,
      "t": 25600.000000000004,
      "d": 1600,
      "v": 100
    },
    {
      "midi": 69,
      "hit": false,
      "t": 26199.999999999993,
      "d": 200,
      "v": 100
    },
    {
      "midi": 69,
      "hit": false,
      "t": 26399.999999999993,
      "d": 266.6666666666679,
      "v": 100
    },
    {
      "midi": 60,
      "hit": false,
      "t": 26399.999999999996,
      "d": 266.6666666666679,
      "v": 100
    },
    {
      "midi": 64,
      "hit": false,
      "t": 26399.999999999996,
      "d": 266.6666666666679,
      "v": 100
    },
    {
      "midi": 71,
      "hit": false,
      "t": 26666.66666666666,
      "d": 266.6666666666679,
      "v": 100
    },
    {
      "midi": 64,
      "hit": false,
      "t": 26666.666666666664,
      "d": 266.6666666666679,
      "v": 100
    },
    {
      "midi": 67,
      "hit": false,
      "t": 26666.666666666664,
      "d": 266.6666666666679,
      "v": 100
    },
    {
      "midi": 71,
      "hit": false,
      "t": 26933.33333333333,
      "d": 266.6666666666679,
      "v": 100
    },
    {
      "midi": 64,
      "hit": false,
      "t": 26933.333333333332,
      "d": 266.6666666666679,
      "v": 100
    },
    {
      "midi": 67,
      "hit": false,
      "t": 26933.333333333332,
      "d": 266.6666666666679,
      "v": 100
    },
    {
      "midi": 71,
      "hit": false,
      "t": 27199.999999999996,
      "d": 3200,
      "v": 100
    },
    {
      "midi": 43,
      "hit": false,
      "t": 27200.000000000004,
      "d": 1600,
      "v": 100
    },
    {
      "midi": 60,
      "hit": false,
      "t": 28000,
      "d": 800,
      "v": 100
    },
    {
      "midi": 64,
      "hit": false,
      "t": 28000,
      "d": 800,
      "v": 100
    },
    {
      "midi": 67,
      "hit": false,
      "t": 28000,
      "d": 800,
      "v": 100
    },
    {
      "midi": 48,
      "hit": false,
      "t": 28800.000000000004,
      "d": 1600,
      "v": 100
    },
    {
      "midi": 60,
      "hit": false,
      "t": 29600,
      "d": 800,
      "v": 100
    },
    {
      "midi": 64,
      "hit": false,
      "t": 29600,
      "d": 800,
      "v": 100
    },
    {
      "midi": 67,
      "hit": false,
      "t": 29600,
      "d": 800,
      "v": 100
    },
    {
      "midi": 67,
      "hit": false,
      "t": 30399.999999999996,
      "d": 533.3333333333321,
      "v": 100
    },
    {
      "midi": 60,
      "hit": false,
      "t": 30400,
      "d": 533.3333333333321,
      "v": 100
    },
    {
      "midi": 64,
      "hit": false,
      "t": 30400,
      "d": 533.3333333333321,
      "v": 100
    },
    {
      "midi": 43,
      "hit": false,
      "t": 30400.000000000004,
      "d": 1600,
      "v": 100
    },
    {
      "midi": 69,
      "hit": false,
      "t": 30933.33333333333,
      "d": 533.3333333333321,
      "v": 100
    },
    {
      "midi": 60,
      "hit": false,
      "t": 30933.333333333332,
      "d": 533.3333333333321,
      "v": 100
    },
    {
      "midi": 64,
      "hit": false,
      "t": 30933.333333333332,
      "d": 533.3333333333321,
      "v": 100
    },
    {
      "midi": 72,
      "hit": false,
      "t": 31466.66666666666,
      "d": 533.3333333333321,
      "v": 100
    },
    {
      "midi": 64,
      "hit": false,
      "t": 31466.666666666664,
      "d": 533.3333333333321,
      "v": 100
    },
    {
      "midi": 67,
      "hit": false,
      "t": 31466.666666666664,
      "d": 533.3333333333321,
      "v": 100
    },
    {
      "midi": 67,
      "hit": false,
      "t": 31999.999999999993,
      "d": 6400,
      "v": 100
    },
    {
      "midi": 71,
      "hit": false,
      "t": 31999.999999999993,
      "d": 6400,
      "v": 100
    },
    {
      "midi": 61,
      "hit": false,
      "t": 31999.999999999996,
      "d": 1600.0000000000036,
      "v": 100
    },
    {
      "midi": 45,
      "hit": false,
      "t": 32000.000000000004,
      "d": 799.9999999999964,
      "v": 100
    },
    {
      "midi": 57,
      "hit": false,
      "t": 32800,
      "d": 800,
      "v": 100
    },
    {
      "midi": 62,
      "hit": false,
      "t": 33600,
      "d": 1600,
      "v": 100
    },
    {
      "midi": 47,
      "hit": false,
      "t": 33600,
      "d": 800,
      "v": 100
    },
    {
      "midi": 57,
      "hit": false,
      "t": 34400,
      "d": 800,
      "v": 100
    },
    {
      "midi": 63,
      "hit": false,
      "t": 35200,
      "d": 1600,
      "v": 100
    },
    {
      "midi": 48,
      "hit": false,
      "t": 35200,
      "d": 800,
      "v": 100
    },
    {
      "midi": 57,
      "hit": false,
      "t": 36000,
      "d": 800,
      "v": 100
    },
    {
      "midi": 64,
      "hit": false,
      "t": 36800,
      "d": 1600,
      "v": 100
    },
    {
      "midi": 49,
      "hit": false,
      "t": 36800,
      "d": 800,
      "v": 100
    },
    {
      "midi": 57,
      "hit": false,
      "t": 37600,
      "d": 800,
      "v": 100
    },
    {
      "midi": 72,
      "hit": false,
      "t": 38399.99999999999,
      "d": 800,
      "v": 100
    },
    {
      "midi": 65,
      "hit": false,
      "t": 38400,
      "d": 1600,
      "v": 100
    },
    {
      "midi": 69,
      "hit": false,
      "t": 38400,
      "d": 1600,
      "v": 100
    },
    {
      "midi": 41,
      "hit": false,
      "t": 38400,
      "d": 1600,
      "v": 100
    },
    {
      "midi": 53,
      "hit": false,
      "t": 38400,
      "d": 1600,
      "v": 100
    },
    {
      "midi": 74,
      "hit": false,
      "t": 39199.99999999999,
      "d": 800,
      "v": 100
    },
    {
      "midi": 74,
      "hit": false,
      "t": 39999.99999999999,
      "d": 800,
      "v": 100
    },
    {
      "midi": 65,
      "hit": false,
      "t": 40000,
      "d": 1600,
      "v": 100
    },
    {
      "midi": 69,
      "hit": false,
      "t": 40000,
      "d": 1600,
      "v": 100
    },
    {
      "midi": 48,
      "hit": false,
      "t": 40000,
      "d": 1600,
      "v": 100
    },
    {
      "midi": 72,
      "hit": false,
      "t": 40799.99999999999,
      "d": 800,
      "v": 100
    },
    {
      "midi": 72,
      "hit": false,
      "t": 41599.99999999999,
      "d": 800,
      "v": 100
    },
    {
      "midi": 65,
      "hit": false,
      "t": 41600,
      "d": 1200,
      "v": 100
    },
    {
      "midi": 68,
      "hit": false,
      "t": 41600,
      "d": 1200,
      "v": 100
    },
    {
      "midi": 41,
      "hit": false,
      "t": 41600,
      "d": 1600,
      "v": 100
    },
    {
      "midi": 74,
      "hit": false,
      "t": 42399.99999999999,
      "d": 400,
      "v": 100
    },
    {
      "midi": 75,
      "hit": false,
      "t": 42799.99999999999,
      "d": 800,
      "v": 100
    },
    {
      "midi": 68,
      "hit": false,
      "t": 42800,
      "d": 1200,
      "v": 100
    },
    {
      "midi": 72,
      "hit": false,
      "t": 42800,
      "d": 1200,
      "v": 100
    },
    {
      "midi": 48,
      "hit": false,
      "t": 43200,
      "d": 800,
      "v": 100
    },
    {
      "midi": 74,
      "hit": false,
      "t": 43599.99999999999,
      "d": 400,
      "v": 100
    },
    {
      "midi": 72,
      "hit": false,
      "t": 43999.99999999999,
      "d": 800,
      "v": 100
    },
    {
      "midi": 65,
      "hit": false,
      "t": 44000,
      "d": 800,
      "v": 100
    },
    {
      "midi": 68,
      "hit": false,
      "t": 44000,
      "d": 800,
      "v": 100
    },
    {
      "midi": 53,
      "hit": false,
      "t": 44000,
      "d": 800,
      "v": 100
    },
    {
      "midi": 67,
      "hit": false,
      "t": 44799.99999999999,
      "d": 800,
      "v": 100
    },
    {
      "midi": 60,
      "hit": false,
      "t": 44800,
      "d": 1600,
      "v": 100
    },
    {
      "midi": 64,
      "hit": false,
      "t": 44800,
      "d": 1600,
      "v": 100
    },
    {
      "midi": 52,
      "hit": false,
      "t": 44800,
      "d": 1600,
      "v": 100
    },
    {
      "midi": 69,
      "hit": false,
      "t": 45599.99999999999,
      "d": 800,
      "v": 100
    },
    {
      "midi": 69,
      "hit": false,
      "t": 46399.99999999999,
      "d": 800,
      "v": 100
    },
    {
      "midi": 58,
      "hit": false,
      "t": 46400,
      "d": 1600,
      "v": 100
    },
    {
      "midi": 62,
      "hit": false,
      "t": 46400,
      "d": 1600,
      "v": 100
    },
    {
      "midi": 40,
      "hit": false,
      "t": 46400,
      "d": 1600,
      "v": 100
    },
    {
      "midi": 67,
      "hit": false,
      "t": 47199.99999999999,
      "d": 800,
      "v": 100
    },
    {
      "midi": 67,
      "hit": false,
      "t": 47999.99999999999,
      "d": 800,
      "v": 100
    },
    {
      "midi": 57,
      "hit": false,
      "t": 48000,
      "d": 1200,
      "v": 100
    },
    {
      "midi": 61,
      "hit": false,
      "t": 48000,
      "d": 1200,
      "v": 100
    },
    {
      "midi": 45,
      "hit": false,
      "t": 48000,
      "d": 1600,
      "v": 100
    },
    {
      "midi": 69,
      "hit": false,
      "t": 48799.99999999999,
      "d": 400,
      "v": 100
    },
    {
      "midi": 71,
      "hit": false,
      "t": 49199.99999999999,
      "d": 800,
      "v": 100
    },
    {
      "midi": 61,
      "hit": false,
      "t": 49200,
      "d": 1200,
      "v": 100
    },
    {
      "midi": 67,
      "hit": false,
      "t": 49200,
      "d": 1200,
      "v": 100
    },
    {
      "midi": 40,
      "hit": false,
      "t": 49600,
      "d": 800,
      "v": 100
    },
    {
      "midi": 69,
      "hit": false,
      "t": 49999.99999999999,
      "d": 400,
      "v": 100
    },
    {
      "midi": 67,
      "hit": false,
      "t": 50399.99999999999,
      "d": 800,
      "v": 100
    },
    {
      "midi": 61,
      "hit": false,
      "t": 50400,
      "d": 800,
      "v": 100
    },
    {
      "midi": 64,
      "hit": false,
      "t": 50400,
      "d": 800,
      "v": 100
    },
    {
      "midi": 33,
      "hit": false,
      "t": 50400,
      "d": 800,
      "v": 100
    },
    {
      "midi": 45,
      "hit": false,
      "t": 50400,
      "d": 800,
      "v": 100
    },
    {
      "midi": 54,
      "hit": false,
      "t": 51199.99999999999,
      "d": 800,
      "v": 100
    },
    {
      "midi": 60,
      "hit": false,
      "t": 51199.99999999999,
      "d": 800,
      "v": 100
    },
    {
      "midi": 64,
      "hit": false,
      "t": 51199.99999999999,
      "d": 800,
      "v": 100
    },
    {
      "midi": 38,
      "hit": false,
      "t": 51200,
      "d": 1600,
      "v": 100
    },
    {
      "midi": 54,
      "hit": false,
      "t": 51999.99999999999,
      "d": 800,
      "v": 100
    },
    {
      "midi": 60,
      "hit": false,
      "t": 51999.99999999999,
      "d": 800,
      "v": 100
    },
    {
      "midi": 64,
      "hit": false,
      "t": 51999.99999999999,
      "d": 800,
      "v": 100
    },
    {
      "midi": 60,
      "hit": false,
      "t": 52799.99999999999,
      "d": 800,
      "v": 100
    },
    {
      "midi": 64,
      "hit": false,
      "t": 52799.99999999999,
      "d": 800,
      "v": 100
    },
    {
      "midi": 69,
      "hit": false,
      "t": 52799.99999999999,
      "d": 800,
      "v": 100
    },
    {
      "midi": 50,
      "hit": false,
      "t": 52800,
      "d": 1600,
      "v": 100
    },
    {
      "midi": 64,
      "hit": false,
      "t": 53599.99999999999,
      "d": 3200,
      "v": 100
    },
    {
      "midi": 54,
      "hit": false,
      "t": 53600,
      "d": 1600,
      "v": 100
    },
    {
      "midi": 60,
      "hit": false,
      "t": 53600,
      "d": 1600,
      "v": 100
    },
    {
      "midi": 38,
      "hit": false,
      "t": 54400,
      "d": 1600,
      "v": 100
    },
    {
      "midi": 54,
      "hit": false,
      "t": 55200,
      "d": 800,
      "v": 100
    },
    {
      "midi": 60,
      "hit": false,
      "t": 55200,
      "d": 800,
      "v": 100
    },
    {
      "midi": 38,
      "hit": false,
      "t": 56000,
      "d": 800,
      "v": 100
    },
    {
      "midi": 65,
      "hit": false,
      "t": 56799.99999999999,
      "d": 800,
      "v": 100
    },
    {
      "midi": 55,
      "hit": false,
      "t": 56800,
      "d": 800,
      "v": 100
    },
    {
      "midi": 61,
      "hit": false,
      "t": 56800,
      "d": 800,
      "v": 100
    },
    {
      "midi": 46,
      "hit": false,
      "t": 56800,
      "d": 800,
      "v": 100
    },
    {
      "midi": 54,
      "hit": false,
      "t": 57599.99999999999,
      "d": 800,
      "v": 100
    },
    {
      "midi": 60,
      "hit": false,
      "t": 57599.99999999999,
      "d": 800,
      "v": 100
    },
    {
      "midi": 66,
      "hit": false,
      "t": 57599.99999999999,
      "d": 800,
      "v": 100
    },
    {
      "midi": 45,
      "hit": false,
      "t": 57600,
      "d": 1600,
      "v": 100
    },
    {
      "midi": 54,
      "hit": false,
      "t": 58399.99999999999,
      "d": 800,
      "v": 100
    },
    {
      "midi": 60,
      "hit": false,
      "t": 58399.99999999999,
      "d": 800,
      "v": 100
    },
    {
      "midi": 66,
      "hit": false,
      "t": 58399.99999999999,
      "d": 800,
      "v": 100
    },
    {
      "midi": 64,
      "hit": false,
      "t": 59199.99999999999,
      "d": 800,
      "v": 100
    },
    {
      "midi": 66,
      "hit": false,
      "t": 59199.99999999999,
      "d": 800,
      "v": 100
    },
    {
      "midi": 72,
      "hit": false,
      "t": 59199.99999999999,
      "d": 800,
      "v": 100
    },
    {
      "midi": 50,
      "hit": false,
      "t": 59200,
      "d": 1600,
      "v": 100
    },
    {
      "midi": 66,
      "hit": false,
      "t": 59999.99999999999,
      "d": 4000,
      "v": 100
    },
    {
      "midi": 60,
      "hit": false,
      "t": 60000,
      "d": 1600,
      "v": 100
    },
    {
      "midi": 64,
      "hit": false,
      "t": 60000,
      "d": 1600,
      "v": 100
    },
    {
      "midi": 38,
      "hit": false,
      "t": 60800,
      "d": 1600,
      "v": 100
    },
    {
      "midi": 59,
      "hit": false,
      "t": 61600,
      "d": 800,
      "v": 100
    },
    {
      "midi": 62,
      "hit": false,
      "t": 61600,
      "d": 800,
      "v": 100
    },
    {
      "midi": 58,
      "hit": false,
      "t": 62400,
      "d": 800,
      "v": 100
    },
    {
      "midi": 61,
      "hit": false,
      "t": 62400,
      "d": 800,
      "v": 100
    },
    {
      "midi": 50,
      "hit": false,
      "t": 62400,
      "d": 800,
      "v": 100
    },
    {
      "midi": 57,
      "hit": false,
      "t": 63200,
      "d": 800,
      "v": 100
    },
    {
      "midi": 60,
      "hit": false,
      "t": 63200,
      "d": 800,
      "v": 100
    },
    {
      "midi": 38,
      "hit": false,
      "t": 63200,
      "d": 800,
      "v": 100
    },
    {
      "midi": 62,
      "hit": false,
      "t": 63999.99999999999,
      "d": 600,
      "v": 100
    },
    {
      "midi": 55,
      "hit": false,
      "t": 64000,
      "d": 800,
      "v": 100
    },
    {
      "midi": 59,
      "hit": false,
      "t": 64000,
      "d": 800,
      "v": 100
    },
    {
      "midi": 43,
      "hit": false,
      "t": 64000,
      "d": 1600,
      "v": 100
    },
    {
      "midi": 64,
      "hit": false,
      "t": 64599.99999999999,
      "d": 200,
      "v": 100
    },
    {
      "midi": 64,
      "hit": false,
      "t": 64799.99999999999,
      "d": 266.66666666666424,
      "v": 100
    },
    {
      "midi": 55,
      "hit": false,
      "t": 64800,
      "d": 266.66666666666424,
      "v": 100
    },
    {
      "midi": 59,
      "hit": false,
      "t": 64800,
      "d": 266.66666666666424,
      "v": 100
    },
    {
      "midi": 66,
      "hit": false,
      "t": 65066.66666666666,
      "d": 266.66666666666424,
      "v": 100
    },
    {
      "midi": 59,
      "hit": false,
      "t": 65066.666666666664,
      "d": 266.66666666666424,
      "v": 100
    },
    {
      "midi": 62,
      "hit": false,
      "t": 65066.666666666664,
      "d": 266.66666666666424,
      "v": 100
    },
    {
      "midi": 66,
      "hit": false,
      "t": 65333.33333333332,
      "d": 266.66666666666424,
      "v": 100
    },
    {
      "midi": 59,
      "hit": false,
      "t": 65333.33333333333,
      "d": 266.6666666666715,
      "v": 100
    },
    {
      "midi": 62,
      "hit": false,
      "t": 65333.33333333333,
      "d": 266.6666666666715,
      "v": 100
    },
    {
      "midi": 66,
      "hit": false,
      "t": 65599.99999999999,
      "d": 3200,
      "v": 100
    },
    {
      "midi": 38,
      "hit": false,
      "t": 65600,
      "d": 1600,
      "v": 100
    },
    {
      "midi": 55,
      "hit": false,
      "t": 66400,
      "d": 800,
      "v": 100
    },
    {
      "midi": 59,
      "hit": false,
      "t": 66400,
      "d": 800,
      "v": 100
    },
    {
      "midi": 62,
      "hit": false,
      "t": 66400,
      "d": 800,
      "v": 100
    },
    {
      "midi": 43,
      "hit": false,
      "t": 67200,
      "d": 1600,
      "v": 100
    },
    {
      "midi": 55,
      "hit": false,
      "t": 68000,
      "d": 800,
      "v": 100
    },
    {
      "midi": 59,
      "hit": false,
      "t": 68000,
      "d": 800,
      "v": 100
    },
    {
      "midi": 62,
      "hit": false,
      "t": 68000,
      "d": 800,
      "v": 100
    },
    {
      "midi": 62,
      "hit": false,
      "t": 68799.99999999999,
      "d": 533.3333333333285,
      "v": 100
    },
    {
      "midi": 55,
      "hit": false,
      "t": 68800,
      "d": 533.3333333333285,
      "v": 100
    },
    {
      "midi": 59,
      "hit": false,
      "t": 68800,
      "d": 533.3333333333285,
      "v": 100
    },
    {
      "midi": 38,
      "hit": false,
      "t": 68800,
      "d": 1600,
      "v": 100
    },
    {
      "midi": 64,
      "hit": false,
      "t": 69333.33333333331,
      "d": 533.3333333333285,
      "v": 100
    },
    {
      "midi": 55,
      "hit": false,
      "t": 69333.33333333333,
      "d": 533.3333333333285,
      "v": 100
    },
    {
      "midi": 59,
      "hit": false,
      "t": 69333.33333333333,
      "d": 533.3333333333285,
      "v": 100
    },
    {
      "midi": 67,
      "hit": false,
      "t": 69866.66666666664,
      "d": 533.3333333333285,
      "v": 100
    },
    {
      "midi": 59,
      "hit": false,
      "t": 69866.66666666666,
      "d": 533.3333333333285,
      "v": 100
    },
    {
      "midi": 62,
      "hit": false,
      "t": 69866.66666666666,
      "d": 533.3333333333285,
      "v": 100
    },
    {
      "midi": 66,
      "hit": false,
      "t": 70399.99999999997,
      "d": 6400,
      "v": 100
    },
    {
      "midi": 37,
      "hit": false,
      "t": 70400,
      "d": 1600,
      "v": 100
    },
    {
      "midi": 55,
      "hit": false,
      "t": 71199.99999999999,
      "d": 800,
      "v": 100
    },
    {
      "midi": 58,
      "hit": false,
      "t": 71199.99999999999,
      "d": 800,
      "v": 100
    },
    {
      "midi": 61,
      "hit": false,
      "t": 71199.99999999999,
      "d": 800,
      "v": 100
    },
    {
      "midi": 42,
      "hit": false,
      "t": 72000,
      "d": 1200,
      "v": 100
    },
    {
      "midi": 55,
      "hit": false,
      "t": 72799.99999999999,
      "d": 800,
      "v": 100
    },
    {
      "midi": 58,
      "hit": false,
      "t": 72799.99999999999,
      "d": 800,
      "v": 100
    },
    {
      "midi": 61,
      "hit": false,
      "t": 72799.99999999999,
      "d": 800,
      "v": 100
    },
    {
      "midi": 49,
      "hit": false,
      "t": 73200,
      "d": 400,
      "v": 100
    },
    {
      "midi": 52,
      "hit": false,
      "t": 73600,
      "d": 800,
      "v": 100
    },
    {
      "midi": 55,
      "hit": false,
      "t": 74399.99999999999,
      "d": 800,
      "v": 100
    },
    {
      "midi": 58,
      "hit": false,
      "t": 74399.99999999999,
      "d": 800,
      "v": 100
    },
    {
      "midi": 61,
      "hit": false,
      "t": 74399.99999999999,
      "d": 800,
      "v": 100
    },
    {
      "midi": 52,
      "hit": false,
      "t": 74400,
      "d": 266.6666666666715,
      "v": 100
    },
    {
      "midi": 51,
      "hit": false,
      "t": 74666.66666666667,
      "d": 266.6666666666715,
      "v": 100
    },
    {
      "midi": 50,
      "hit": false,
      "t": 74933.33333333334,
      "d": 266.6666666666715,
      "v": 100
    },
    {
      "midi": 49,
      "hit": false,
      "t": 75200.00000000001,
      "d": 1600,
      "v": 100
    },
    {
      "midi": 55,
      "hit": false,
      "t": 75999.99999999999,
      "d": 800,
      "v": 100
    },
    {
      "midi": 58,
      "hit": false,
      "t": 75999.99999999999,
      "d": 800,
      "v": 100
    },
    {
      "midi": 61,
      "hit": false,
      "t": 75999.99999999999,
      "d": 800,
      "v": 100
    },
    {
      "midi": 67,
      "hit": false,
      "t": 76799.99999999997,
      "d": 600,
      "v": 100
    },
    {
      "midi": 60,
      "hit": false,
      "t": 76799.99999999999,
      "d": 800,
      "v": 100
    },
    {
      "midi": 64,
      "hit": false,
      "t": 76799.99999999999,
      "d": 800,
      "v": 100
    },
    {
      "midi": 48,
      "hit": false,
      "t": 76800.00000000001,
      "d": 1600,
      "v": 100
    },
    {
      "midi": 69,
      "hit": false,
      "t": 77399.99999999997,
      "d": 200,
      "v": 100
    },
    {
      "midi": 69,
      "hit": false,
      "t": 77599.99999999997,
      "d": 266.6666666666715,
      "v": 100
    },
    {
      "midi": 60,
      "hit": false,
      "t": 77599.99999999999,
      "d": 266.6666666666715,
      "v": 100
    },
    {
      "midi": 64,
      "hit": false,
      "t": 77599.99999999999,
      "d": 266.6666666666715,
      "v": 100
    },
    {
      "midi": 71,
      "hit": false,
      "t": 77866.66666666664,
      "d": 266.6666666666715,
      "v": 100
    },
    {
      "midi": 64,
      "hit": false,
      "t": 77866.66666666666,
      "d": 266.6666666666715,
      "v": 100
    },
    {
      "midi": 67,
      "hit": false,
      "t": 77866.66666666666,
      "d": 266.6666666666715,
      "v": 100
    },
    {
      "midi": 71,
      "hit": false,
      "t": 78133.33333333331,
      "d": 266.6666666666715,
      "v": 100
    },
    {
      "midi": 64,
      "hit": false,
      "t": 78133.33333333333,
      "d": 266.6666666666715,
      "v": 100
    },
    {
      "midi": 67,
      "hit": false,
      "t": 78133.33333333333,
      "d": 266.6666666666715,
      "v": 100
    },
    {
      "midi": 71,
      "hit": false,
      "t": 78399.99999999999,
      "d": 3200,
      "v": 100
    },
    {
      "midi": 43,
      "hit": false,
      "t": 78400.00000000001,
      "d": 1600,
      "v": 100
    },
    {
      "midi": 60,
      "hit": false,
      "t": 79200,
      "d": 800,
      "v": 100
    },
    {
      "midi": 64,
      "hit": false,
      "t": 79200,
      "d": 800,
      "v": 100
    },
    {
      "midi": 67,
      "hit": false,
      "t": 79200,
      "d": 800,
      "v": 100
    },
    {
      "midi": 48,
      "hit": false,
      "t": 80000.00000000001,
      "d": 1600,
      "v": 100
    },
    {
      "midi": 60,
      "hit": false,
      "t": 80800,
      "d": 800,
      "v": 100
    },
    {
      "midi": 64,
      "hit": false,
      "t": 80800,
      "d": 800,
      "v": 100
    },
    {
      "midi": 67,
      "hit": false,
      "t": 80800,
      "d": 800,
      "v": 100
    },
    {
      "midi": 67,
      "hit": false,
      "t": 81599.99999999999,
      "d": 533.3333333333285,
      "v": 100
    },
    {
      "midi": 60,
      "hit": false,
      "t": 81600,
      "d": 533.3333333333285,
      "v": 100
    },
    {
      "midi": 64,
      "hit": false,
      "t": 81600,
      "d": 533.3333333333285,
      "v": 100
    },
    {
      "midi": 43,
      "hit": false,
      "t": 81600.00000000001,
      "d": 1600,
      "v": 100
    },
    {
      "midi": 69,
      "hit": false,
      "t": 82133.33333333331,
      "d": 533.3333333333285,
      "v": 100
    },
    {
      "midi": 60,
      "hit": false,
      "t": 82133.33333333333,
      "d": 533.3333333333285,
      "v": 100
    },
    {
      "midi": 64,
      "hit": false,
      "t": 82133.33333333333,
      "d": 533.3333333333285,
      "v": 100
    },
    {
      "midi": 72,
      "hit": false,
      "t": 82666.66666666664,
      "d": 533.3333333333285,
      "v": 100
    },
    {
      "midi": 64,
      "hit": false,
      "t": 82666.66666666666,
      "d": 533.3333333333285,
      "v": 100
    },
    {
      "midi": 67,
      "hit": false,
      "t": 82666.66666666666,
      "d": 533.3333333333285,
      "v": 100
    },
    {
      "midi": 67,
      "hit": false,
      "t": 83199.99999999997,
      "d": 6400,
      "v": 100
    },
    {
      "midi": 71,
      "hit": false,
      "t": 83199.99999999997,
      "d": 6400,
      "v": 100
    },
    {
      "midi": 61,
      "hit": false,
      "t": 83199.99999999999,
      "d": 1600,
      "v": 100
    },
    {
      "midi": 45,
      "hit": false,
      "t": 83200.00000000001,
      "d": 800,
      "v": 100
    },
    {
      "midi": 57,
      "hit": false,
      "t": 84000.00000000001,
      "d": 800,
      "v": 100
    },
    {
      "midi": 62,
      "hit": false,
      "t": 84799.99999999999,
      "d": 1600,
      "v": 100
    },
    {
      "midi": 47,
      "hit": false,
      "t": 84800.00000000001,
      "d": 800,
      "v": 100
    },
    {
      "midi": 57,
      "hit": false,
      "t": 85600.00000000001,
      "d": 800,
      "v": 100
    },
    {
      "midi": 63,
      "hit": false,
      "t": 86399.99999999999,
      "d": 1600,
      "v": 100
    },
    {
      "midi": 48,
      "hit": false,
      "t": 86400.00000000001,
      "d": 800,
      "v": 100
    },
    {
      "midi": 57,
      "hit": false,
      "t": 87200.00000000001,
      "d": 800,
      "v": 100
    },
    {
      "midi": 64,
      "hit": false,
      "t": 87999.99999999999,
      "d": 1600,
      "v": 100
    },
    {
      "midi": 49,
      "hit": false,
      "t": 88000.00000000001,
      "d": 800,
      "v": 100
    },
    {
      "midi": 57,
      "hit": false,
      "t": 88800.00000000001,
      "d": 800,
      "v": 100
    },
    {
      "midi": 72,
      "hit": false,
      "t": 89599.99999999997,
      "d": 800,
      "v": 100
    },
    {
      "midi": 65,
      "hit": false,
      "t": 89599.99999999999,
      "d": 1600,
      "v": 100
    },
    {
      "midi": 69,
      "hit": false,
      "t": 89599.99999999999,
      "d": 1600,
      "v": 100
    },
    {
      "midi": 41,
      "hit": false,
      "t": 89600.00000000001,
      "d": 1600,
      "v": 100
    },
    {
      "midi": 53,
      "hit": false,
      "t": 89600.00000000001,
      "d": 1600,
      "v": 100
    },
    {
      "midi": 74,
      "hit": false,
      "t": 90399.99999999997,
      "d": 800,
      "v": 100
    },
    {
      "midi": 74,
      "hit": false,
      "t": 91199.99999999997,
      "d": 800,
      "v": 100
    },
    {
      "midi": 65,
      "hit": false,
      "t": 91199.99999999999,
      "d": 1600,
      "v": 100
    },
    {
      "midi": 69,
      "hit": false,
      "t": 91199.99999999999,
      "d": 1600,
      "v": 100
    },
    {
      "midi": 48,
      "hit": false,
      "t": 91200.00000000001,
      "d": 1600,
      "v": 100
    },
    {
      "midi": 72,
      "hit": false,
      "t": 91999.99999999997,
      "d": 800,
      "v": 100
    },
    {
      "midi": 72,
      "hit": false,
      "t": 92799.99999999997,
      "d": 800,
      "v": 100
    },
    {
      "midi": 65,
      "hit": false,
      "t": 92799.99999999999,
      "d": 1200,
      "v": 100
    },
    {
      "midi": 68,
      "hit": false,
      "t": 92799.99999999999,
      "d": 1200,
      "v": 100
    },
    {
      "midi": 41,
      "hit": false,
      "t": 92800.00000000001,
      "d": 1600,
      "v": 100
    },
    {
      "midi": 74,
      "hit": false,
      "t": 93599.99999999997,
      "d": 400,
      "v": 100
    },
    {
      "midi": 76,
      "hit": false,
      "t": 93999.99999999997,
      "d": 800,
      "v": 100
    },
    {
      "midi": 68,
      "hit": false,
      "t": 93999.99999999999,
      "d": 1200,
      "v": 100
    },
    {
      "midi": 72,
      "hit": false,
      "t": 93999.99999999999,
      "d": 1200,
      "v": 100
    },
    {
      "midi": 48,
      "hit": false,
      "t": 94400.00000000001,
      "d": 800,
      "v": 100
    },
    {
      "midi": 74,
      "hit": false,
      "t": 94799.99999999997,
      "d": 400,
      "v": 100
    },
    {
      "midi": 72,
      "hit": false,
      "t": 95199.99999999997,
      "d": 800,
      "v": 100
    },
    {
      "midi": 65,
      "hit": false,
      "t": 95199.99999999999,
      "d": 800,
      "v": 100
    },
    {
      "midi": 68,
      "hit": false,
      "t": 95199.99999999999,
      "d": 800,
      "v": 100
    },
    {
      "midi": 53,
      "hit": false,
      "t": 95200.00000000001,
      "d": 800,
      "v": 100
    },
    {
      "midi": 67,
      "hit": false,
      "t": 95999.99999999997,
      "d": 800,
      "v": 100
    },
    {
      "midi": 60,
      "hit": false,
      "t": 95999.99999999999,
      "d": 1600,
      "v": 100
    },
    {
      "midi": 64,
      "hit": false,
      "t": 95999.99999999999,
      "d": 1600,
      "v": 100
    },
    {
      "midi": 52,
      "hit": false,
      "t": 96000.00000000001,
      "d": 1600,
      "v": 100
    },
    {
      "midi": 69,
      "hit": false,
      "t": 96799.99999999997,
      "d": 800,
      "v": 100
    },
    {
      "midi": 69,
      "hit": false,
      "t": 97599.99999999997,
      "d": 800,
      "v": 100
    },
    {
      "midi": 58,
      "hit": false,
      "t": 97599.99999999999,
      "d": 1600,
      "v": 100
    },
    {
      "midi": 62,
      "hit": false,
      "t": 97599.99999999999,
      "d": 1600,
      "v": 100
    },
    {
      "midi": 40,
      "hit": false,
      "t": 97600.00000000001,
      "d": 1600,
      "v": 100
    },
    {
      "midi": 67,
      "hit": false,
      "t": 98399.99999999997,
      "d": 800,
      "v": 100
    },
    {
      "midi": 67,
      "hit": false,
      "t": 99199.99999999997,
      "d": 800,
      "v": 100
    },
    {
      "midi": 57,
      "hit": false,
      "t": 99199.99999999999,
      "d": 1200,
      "v": 100
    },
    {
      "midi": 61,
      "hit": false,
      "t": 99199.99999999999,
      "d": 1200,
      "v": 100
    },
    {
      "midi": 45,
      "hit": false,
      "t": 99200.00000000001,
      "d": 1600,
      "v": 100
    },
    {
      "midi": 69,
      "hit": false,
      "t": 99999.99999999997,
      "d": 400,
      "v": 100
    },
    {
      "midi": 71,
      "hit": false,
      "t": 100399.99999999997,
      "d": 800,
      "v": 100
    },
    {
      "midi": 61,
      "hit": false,
      "t": 100399.99999999999,
      "d": 1200,
      "v": 100
    },
    {
      "midi": 67,
      "hit": false,
      "t": 100399.99999999999,
      "d": 1200,
      "v": 100
    },
    {
      "midi": 40,
      "hit": false,
      "t": 100800.00000000001,
      "d": 800,
      "v": 100
    },
    {
      "midi": 69,
      "hit": false,
      "t": 101199.99999999997,
      "d": 400,
      "v": 100
    },
    {
      "midi": 67,
      "hit": false,
      "t": 101599.99999999997,
      "d": 800,
      "v": 100
    },
    {
      "midi": 61,
      "hit": false,
      "t": 101599.99999999999,
      "d": 800,
      "v": 100
    },
    {
      "midi": 64,
      "hit": false,
      "t": 101599.99999999999,
      "d": 800,
      "v": 100
    },
    {
      "midi": 33,
      "hit": false,
      "t": 101600.00000000001,
      "d": 800,
      "v": 100
    },
    {
      "midi": 45,
      "hit": false,
      "t": 101600.00000000001,
      "d": 800,
      "v": 100
    },
    {
      "midi": 54,
      "hit": false,
      "t": 102399.99999999997,
      "d": 800,
      "v": 100
    },
    {
      "midi": 60,
      "hit": false,
      "t": 102399.99999999997,
      "d": 800,
      "v": 100
    },
    {
      "midi": 62,
      "hit": false,
      "t": 102399.99999999997,
      "d": 800,
      "v": 100
    },
    {
      "midi": 38,
      "hit": false,
      "t": 102400.00000000001,
      "d": 800,
      "v": 100
    },
    {
      "midi": 54,
      "hit": false,
      "t": 103199.99999999997,
      "d": 800,
      "v": 100
    },
    {
      "midi": 60,
      "hit": false,
      "t": 103199.99999999997,
      "d": 800,
      "v": 100
    },
    {
      "midi": 64,
      "hit": false,
      "t": 103199.99999999997,
      "d": 800,
      "v": 100
    },
    {
      "midi": 45,
      "hit": false,
      "t": 103200.00000000001,
      "d": 800,
      "v": 100
    },
    {
      "midi": 54,
      "hit": false,
      "t": 103999.99999999997,
      "d": 800,
      "v": 100
    },
    {
      "midi": 60,
      "hit": false,
      "t": 103999.99999999997,
      "d": 800,
      "v": 100
    },
    {
      "midi": 64,
      "hit": false,
      "t": 103999.99999999997,
      "d": 800,
      "v": 100
    },
    {
      "midi": 44,
      "hit": false,
      "t": 104000.00000000001,
      "d": 800,
      "v": 100
    },
    {
      "midi": 54,
      "hit": false,
      "t": 104799.99999999997,
      "d": 800,
      "v": 100
    },
    {
      "midi": 60,
      "hit": false,
      "t": 104799.99999999997,
      "d": 800,
      "v": 100
    },
    {
      "midi": 62,
      "hit": false,
      "t": 104799.99999999997,
      "d": 800,
      "v": 100
    },
    {
      "midi": 45,
      "hit": false,
      "t": 104800.00000000001,
      "d": 800,
      "v": 100
    },
    {
      "midi": 57,
      "hit": false,
      "t": 105599.99999999997,
      "d": 800,
      "v": 100
    },
    {
      "midi": 62,
      "hit": false,
      "t": 105599.99999999997,
      "d": 800,
      "v": 100
    },
    {
      "midi": 66,
      "hit": false,
      "t": 105599.99999999997,
      "d": 800,
      "v": 100
    },
    {
      "midi": 43,
      "hit": false,
      "t": 105600.00000000001,
      "d": 1600,
      "v": 100
    },
    {
      "midi": 55,
      "hit": false,
      "t": 106399.99999999997,
      "d": 400,
      "v": 100
    },
    {
      "midi": 59,
      "hit": false,
      "t": 106399.99999999997,
      "d": 400,
      "v": 100
    },
    {
      "midi": 64,
      "hit": false,
      "t": 106399.99999999997,
      "d": 400,
      "v": 100
    },
    {
      "midi": 59,
      "hit": false,
      "t": 106799.99999999997,
      "d": 800,
      "v": 100
    },
    {
      "midi": 64,
      "hit": false,
      "t": 106799.99999999997,
      "d": 800,
      "v": 100
    },
    {
      "midi": 67,
      "hit": false,
      "t": 106799.99999999997,
      "d": 800,
      "v": 100
    },
    {
      "midi": 31,
      "hit": false,
      "t": 107200.00000000001,
      "d": 800,
      "v": 100
    },
    {
      "midi": 55,
      "hit": false,
      "t": 107599.99999999997,
      "d": 400,
      "v": 100
    },
    {
      "midi": 59,
      "hit": false,
      "t": 107599.99999999997,
      "d": 400,
      "v": 100
    },
    {
      "midi": 64,
      "hit": false,
      "t": 107599.99999999997,
      "d": 400,
      "v": 100
    },
    {
      "midi": 54,
      "hit": false,
      "t": 107999.99999999997,
      "d": 800,
      "v": 100
    },
    {
      "midi": 59,
      "hit": false,
      "t": 107999.99999999997,
      "d": 800,
      "v": 100
    },
    {
      "midi": 62,
      "hit": false,
      "t": 107999.99999999997,
      "d": 800,
      "v": 100
    },
    {
      "midi": 43,
      "hit": false,
      "t": 108000.00000000001,
      "d": 800,
      "v": 100
    },
    {
      "midi": 60,
      "hit": false,
      "t": 108799.99999999997,
      "d": 800,
      "v": 100
    },
    {
      "midi": 52,
      "hit": false,
      "t": 108799.99999999999,
      "d": 800,
      "v": 100
    },
    {
      "midi": 55,
      "hit": false,
      "t": 108799.99999999999,
      "d": 800,
      "v": 100
    },
    {
      "midi": 36,
      "hit": false,
      "t": 108800.00000000001,
      "d": 800,
      "v": 100
    },
    {
      "midi": 48,
      "hit": false,
      "t": 108800.00000000001,
      "d": 800,
      "v": 100
    },
    {
      "midi": 64,
      "hit": false,
      "t": 109599.99999999997,
      "d": 266.6666666666715,
      "v": 100
    },
    {
      "midi": 67,
      "hit": false,
      "t": 109866.66666666664,
      "d": 266.6666666666715,
      "v": 100
    },
    {
      "midi": 72,
      "hit": false,
      "t": 110133.33333333331,
      "d": 266.6666666666715,
      "v": 100
    },
    {
      "midi": 65,
      "hit": false,
      "t": 110399.99999999999,
      "d": 400,
      "v": 100
    },
    {
      "midi": 70,
      "hit": false,
      "t": 110399.99999999999,
      "d": 400,
      "v": 100
    },
    {
      "midi": 73,
      "hit": false,
      "t": 110399.99999999999,
      "d": 400,
      "v": 100
    },
    {
      "midi": 49,
      "hit": false,
      "t": 110400.00000000001,
      "d": 1600,
      "v": 100
    },
    {
      "midi": 59,
      "hit": false,
      "t": 110400.00000000001,
      "d": 1600,
      "v": 100
    },
    {
      "midi": 68,
      "hit": false,
      "t": 110799.99999999999,
      "d": 400,
      "v": 100
    },
    {
      "midi": 65,
      "hit": false,
      "t": 111199.99999999999,
      "d": 400,
      "v": 100
    },
    {
      "midi": 70,
      "hit": false,
      "t": 111199.99999999999,
      "d": 400,
      "v": 100
    },
    {
      "midi": 73,
      "hit": false,
      "t": 111199.99999999999,
      "d": 400,
      "v": 100
    },
    {
      "midi": 66,
      "hit": false,
      "t": 111599.99999999999,
      "d": 1200,
      "v": 100
    },
    {
      "midi": 71,
      "hit": false,
      "t": 111599.99999999999,
      "d": 1200,
      "v": 100
    },
    {
      "midi": 74,
      "hit": false,
      "t": 111599.99999999999,
      "d": 1200,
      "v": 100
    },
    {
      "midi": 50,
      "hit": false,
      "t": 112000.00000000001,
      "d": 800,
      "v": 100
    },
    {
      "midi": 60,
      "hit": false,
      "t": 112000.00000000001,
      "d": 800,
      "v": 100
    },
    {
      "midi": 71,
      "hit": false,
      "t": 112799.99999999999,
      "d": 400,
      "v": 100
    },
    {
      "midi": 61,
      "hit": false,
      "t": 112799.99999999999,
      "d": 400,
      "v": 100
    },
    {
      "midi": 65,
      "hit": false,
      "t": 112799.99999999999,
      "d": 400,
      "v": 100
    },
    {
      "midi": 71,
      "hit": false,
      "t": 113199.99999999999,
      "d": 800,
      "v": 100
    },
    {
      "midi": 60,
      "hit": false,
      "t": 113199.99999999999,
      "d": 800,
      "v": 100
    },
    {
      "midi": 64,
      "hit": false,
      "t": 113199.99999999999,
      "d": 800,
      "v": 100
    },
    {
      "midi": 50,
      "hit": false,
      "t": 113600.00000000001,
      "d": 800,
      "v": 100
    },
    {
      "midi": 69,
      "hit": false,
      "t": 113999.99999999999,
      "d": 1200,
      "v": 100
    },
    {
      "midi": 60,
      "hit": false,
      "t": 113999.99999999999,
      "d": 1200,
      "v": 100
    },
    {
      "midi": 66,
      "hit": false,
      "t": 113999.99999999999,
      "d": 1200,
      "v": 100
    },
    {
      "midi": 38,
      "hit": false,
      "t": 114400.00000000001,
      "d": 800,
      "v": 100
    },
    {
      "midi": 60,
      "hit": false,
      "t": 115199.99999999999,
      "d": 800,
      "v": 100
    },
    {
      "midi": 52,
      "hit": false,
      "t": 115199.99999999999,
      "d": 800,
      "v": 100
    },
    {
      "midi": 55,
      "hit": false,
      "t": 115199.99999999999,
      "d": 800,
      "v": 100
    },
    {
      "midi": 36,
      "hit": false,
      "t": 115200.00000000001,
      "d": 800,
      "v": 100
    },
    {
      "midi": 48,
      "hit": false,
      "t": 115200.00000000001,
      "d": 800,
      "v": 100
    },
    {
      "midi": 64,
      "hit": false,
      "t": 115999.99999999999,
      "d": 266.6666666666715,
      "v": 100
    },
    {
      "midi": 67,
      "hit": false,
      "t": 116266.66666666666,
      "d": 266.6666666666715,
      "v": 100
    },
    {
      "midi": 72,
      "hit": false,
      "t": 116533.33333333333,
      "d": 266.6666666666715,
      "v": 100
    },
    {
      "midi": 65,
      "hit": false,
      "t": 116799.99999999999,
      "d": 800,
      "v": 100
    },
    {
      "midi": 69,
      "hit": false,
      "t": 116799.99999999999,
      "d": 800,
      "v": 100
    },
    {
      "midi": 76,
      "hit": false,
      "t": 116800,
      "d": 400,
      "v": 100
    },
    {
      "midi": 50,
      "hit": false,
      "t": 116800.00000000001,
      "d": 800,
      "v": 100
    },
    {
      "midi": 60,
      "hit": false,
      "t": 116800.00000000001,
      "d": 800,
      "v": 100
    },
    {
      "midi": 72,
      "hit": false,
      "t": 117200,
      "d": 400,
      "v": 100
    },
    {
      "midi": 65,
      "hit": false,
      "t": 117599.99999999999,
      "d": 400,
      "v": 100
    },
    {
      "midi": 68,
      "hit": false,
      "t": 117599.99999999999,
      "d": 400,
      "v": 100
    },
    {
      "midi": 76,
      "hit": false,
      "t": 117600,
      "d": 400,
      "v": 100
    },
    {
      "midi": 49,
      "hit": false,
      "t": 117600.00000000001,
      "d": 400,
      "v": 100
    },
    {
      "midi": 59,
      "hit": false,
      "t": 117600.00000000001,
      "d": 400,
      "v": 100
    },
    {
      "midi": 67,
      "hit": false,
      "t": 117999.99999999999,
      "d": 2800,
      "v": 100
    },
    {
      "midi": 72,
      "hit": false,
      "t": 117999.99999999999,
      "d": 2800,
      "v": 100
    },
    {
      "midi": 76,
      "hit": false,
      "t": 117999.99999999999,
      "d": 2800,
      "v": 100
    },
    {
      "midi": 79,
      "hit": false,
      "t": 118000,
      "d": 2800,
      "v": 100
    },
    {
      "midi": 48,
      "hit": false,
      "t": 118000.00000000001,
      "d": 1200,
      "v": 100
    },
    {
      "midi": 57,
      "hit": false,
      "t": 118000.00000000001,
      "d": 1200,
      "v": 100
    },
    {
      "midi": 43,
      "hit": false,
      "t": 119200.00000000001,
      "d": 800,
      "v": 100
    },
    {
      "midi": 36,
      "hit": false,
      "t": 120000.00000000001,
      "d": 800,
      "v": 100
    }
  ]
}