{
  "jsonPath": "Soundtracks/Video Game Music/Indiana Jones and The Last Crusade/indiana-jones-and-the-last-crusade-venice-by-w3sp.json",
  "path": "Soundtracks\\Video Game Music\\Indiana Jones and The Last Crusade\\Indiana_Jones_and_the_Last_Crusade_-_Venice_by_w3sp.mid",
  "name": "Indiana_Jones_and_the_Last_Crusade_-_Venice_by_w3sp",
  "difficulty": "Advanced",
  "bpm": 115.00002875000719,
  "notes": [
    {
      "midi": 72,
      "hit": false,
      "t": 1828.6340537109375,
      "d": 242.5271132812502,
      "v": 92
    },
    {
      "midi": 76,
      "hit": false,
      "t": 1828.6340537109375,
      "d": 242.5271132812502,
      "v": 106
    },
    {
      "midi": 45,
      "hit": false,
      "t": 2088.9940429687504,
      "d": 259.8504785156251,
      "v": 104
    },
    {
      "midi": 71,
      "hit": false,
      "t": 2088.9940429687504,
      "d": 402.51348632812505,
      "v": 97
    },
    {
      "midi": 75,
      "hit": false,
      "t": 2088.9940429687504,
      "d": 402.51348632812505,
      "v": 111
    },
    {
      "midi": 57,
      "hit": false,
      "t": 2365.1488652343755,
      "d": 243.03662402343753,
      "v": 92
    },
    {
      "midi": 60,
      "hit": false,
      "t": 2365.1488652343755,
      "d": 243.03662402343753,
      "v": 92
    },
    {
      "midi": 64,
      "hit": false,
      "t": 2365.1488652343755,
      "d": 243.03662402343753,
      "v": 102
    },
    {
      "midi": 72,
      "hit": false,
      "t": 2492.017040039063,
      "d": 123.30159960937499,
      "v": 92
    },
    {
      "midi": 76,
      "hit": false,
      "t": 2492.017040039063,
      "d": 123.30159960937499,
      "v": 106
    },
    {
      "midi": 71,
      "hit": false,
      "t": 2623.9803222656255,
      "d": 241.50809179687485,
      "v": 93
    },
    {
      "midi": 75,
      "hit": false,
      "t": 2623.9803222656255,
      "d": 241.50809179687485,
      "v": 107
    },
    {
      "midi": 72,
      "hit": false,
      "t": 2881.283247070313,
      "d": 244.05564550781264,
      "v": 92
    },
    {
      "midi": 76,
      "hit": false,
      "t": 2881.283247070313,
      "d": 244.05564550781264,
      "v": 106
    },
    {
      "midi": 57,
      "hit": false,
      "t": 2881.283247070313,
      "d": 244.05564550781264,
      "v": 92
    },
    {
      "midi": 60,
      "hit": false,
      "t": 2881.283247070313,
      "d": 244.05564550781264,
      "v": 92
    },
    {
      "midi": 64,
      "hit": false,
      "t": 2881.283247070313,
      "d": 244.05564550781264,
      "v": 102
    },
    {
      "midi": 45,
      "hit": false,
      "t": 3141.133725585938,
      "d": 244.05564550781264,
      "v": 102
    },
    {
      "midi": 74,
      "hit": false,
      "t": 3141.133725585938,
      "d": 385.69963183593745,
      "v": 95
    },
    {
      "midi": 77,
      "hit": false,
      "t": 3141.133725585938,
      "d": 385.69963183593745,
      "v": 109
    },
    {
      "midi": 57,
      "hit": false,
      "t": 3400.984204101563,
      "d": 241.50809179687485,
      "v": 92
    },
    {
      "midi": 60,
      "hit": false,
      "t": 3400.984204101563,
      "d": 241.50809179687485,
      "v": 92
    },
    {
      "midi": 64,
      "hit": false,
      "t": 3400.984204101563,
      "d": 241.50809179687485,
      "v": 102
    },
    {
      "midi": 72,
      "hit": false,
      "t": 3527.342868164063,
      "d": 122.79208886718743,
      "v": 92
    },
    {
      "midi": 76,
      "hit": false,
      "t": 3527.342868164063,
      "d": 122.79208886718743,
      "v": 106
    },
    {
      "midi": 71,
      "hit": false,
      "t": 3658.2871289062505,
      "d": 241.50809179687485,
      "v": 93
    },
    {
      "midi": 74,
      "hit": false,
      "t": 3658.2871289062505,
      "d": 241.50809179687485,
      "v": 107
    },
    {
      "midi": 72,
      "hit": false,
      "t": 3915.590053710938,
      "d": 242.52711328124997,
      "v": 92
    },
    {
      "midi": 76,
      "hit": false,
      "t": 3915.590053710938,
      "d": 242.52711328124997,
      "v": 106
    },
    {
      "midi": 57,
      "hit": false,
      "t": 3915.590053710938,
      "d": 242.52711328124997,
      "v": 92
    },
    {
      "midi": 60,
      "hit": false,
      "t": 3915.590053710938,
      "d": 242.52711328124997,
      "v": 92
    },
    {
      "midi": 64,
      "hit": false,
      "t": 3915.590053710938,
      "d": 242.52711328124997,
      "v": 102
    },
    {
      "midi": 45,
      "hit": false,
      "t": 4175.9500429687505,
      "d": 259.8504785156247,
      "v": 104
    },
    {
      "midi": 71,
      "hit": false,
      "t": 4175.9500429687505,
      "d": 402.5134863281246,
      "v": 97
    },
    {
      "midi": 74,
      "hit": false,
      "t": 4175.9500429687505,
      "d": 402.5134863281246,
      "v": 111
    },
    {
      "midi": 57,
      "hit": false,
      "t": 4452.104865234375,
      "d": 243.03662402343707,
      "v": 92
    },
    {
      "midi": 60,
      "hit": false,
      "t": 4452.104865234375,
      "d": 243.03662402343707,
      "v": 92
    },
    {
      "midi": 64,
      "hit": false,
      "t": 4452.104865234375,
      "d": 243.03662402343707,
      "v": 102
    },
    {
      "midi": 69,
      "hit": false,
      "t": 4578.973040039063,
      "d": 123.30159960937453,
      "v": 92
    },
    {
      "midi": 72,
      "hit": false,
      "t": 4578.973040039063,
      "d": 123.30159960937453,
      "v": 106
    },
    {
      "midi": 69,
      "hit": false,
      "t": 4710.936322265625,
      "d": 241.5080917968753,
      "v": 93
    },
    {
      "midi": 72,
      "hit": false,
      "t": 4710.936322265625,
      "d": 241.5080917968753,
      "v": 107
    },
    {
      "midi": 71,
      "hit": false,
      "t": 4968.239247070313,
      "d": 244.0556455078122,
      "v": 92
    },
    {
      "midi": 74,
      "hit": false,
      "t": 4968.239247070313,
      "d": 244.0556455078122,
      "v": 106
    },
    {
      "midi": 57,
      "hit": false,
      "t": 4968.239247070313,
      "d": 244.0556455078122,
      "v": 92
    },
    {
      "midi": 60,
      "hit": false,
      "t": 4968.239247070313,
      "d": 244.0556455078122,
      "v": 92
    },
    {
      "midi": 64,
      "hit": false,
      "t": 4968.239247070313,
      "d": 244.0556455078122,
      "v": 102
    },
    {
      "midi": 69,
      "hit": false,
      "t": 5228.089725585937,
      "d": 244.0556455078122,
      "v": 95
    },
    {
      "midi": 72,
      "hit": false,
      "t": 5228.089725585937,
      "d": 244.0556455078122,
      "v": 109
    },
    {
      "midi": 45,
      "hit": false,
      "t": 5228.089725585937,
      "d": 244.0556455078122,
      "v": 102
    },
    {
      "midi": 59,
      "hit": false,
      "t": 5487.940204101562,
      "d": 241.5080917968753,
      "v": 92
    },
    {
      "midi": 62,
      "hit": false,
      "t": 5487.940204101562,
      "d": 241.5080917968753,
      "v": 102
    },
    {
      "midi": 68,
      "hit": false,
      "t": 5487.940204101562,
      "d": 514.096338867188,
      "v": 92
    },
    {
      "midi": 71,
      "hit": false,
      "t": 5487.940204101562,
      "d": 514.096338867188,
      "v": 106
    },
    {
      "midi": 72,
      "hit": false,
      "t": 6002.5460537109375,
      "d": 242.52711328125042,
      "v": 92
    },
    {
      "midi": 76,
      "hit": false,
      "t": 6002.5460537109375,
      "d": 242.52711328125042,
      "v": 106
    },
    {
      "midi": 52,
      "hit": false,
      "t": 6002.5460537109375,
      "d": 242.52711328125042,
      "v": 103
    },
    {
      "midi": 59,
      "hit": false,
      "t": 6002.5460537109375,
      "d": 242.52711328125042,
      "v": 92
    },
    {
      "midi": 62,
      "hit": false,
      "t": 6002.5460537109375,
      "d": 242.52711328125042,
      "v": 98
    },
    {
      "midi": 45,
      "hit": false,
      "t": 6262.906042968751,
      "d": 259.8504785156247,
      "v": 104
    },
    {
      "midi": 71,
      "hit": false,
      "t": 6262.906042968751,
      "d": 402.5134863281246,
      "v": 97
    },
    {
      "midi": 75,
      "hit": false,
      "t": 6262.906042968751,
      "d": 402.5134863281246,
      "v": 111
    },
    {
      "midi": 57,
      "hit": false,
      "t": 6539.060865234375,
      "d": 243.03662402343707,
      "v": 92
    },
    {
      "midi": 60,
      "hit": false,
      "t": 6539.060865234375,
      "d": 243.03662402343707,
      "v": 92
    },
    {
      "midi": 64,
      "hit": false,
      "t": 6539.060865234375,
      "d": 243.03662402343707,
      "v": 102
    },
    {
      "midi": 72,
      "hit": false,
      "t": 6665.929040039063,
      "d": 123.30159960937453,
      "v": 92
    },
    {
      "midi": 76,
      "hit": false,
      "t": 6665.929040039063,
      "d": 123.30159960937453,
      "v": 106
    },
    {
      "midi": 71,
      "hit": false,
      "t": 6797.892322265625,
      "d": 241.5080917968753,
      "v": 93
    },
    {
      "midi": 75,
      "hit": false,
      "t": 6797.892322265625,
      "d": 241.5080917968753,
      "v": 107
    },
    {
      "midi": 72,
      "hit": false,
      "t": 7055.195247070313,
      "d": 244.0556455078122,
      "v": 92
    },
    {
      "midi": 76,
      "hit": false,
      "t": 7055.195247070313,
      "d": 244.0556455078122,
      "v": 106
    },
    {
      "midi": 57,
      "hit": false,
      "t": 7055.195247070313,
      "d": 244.0556455078122,
      "v": 92
    },
    {
      "midi": 60,
      "hit": false,
      "t": 7055.195247070313,
      "d": 244.0556455078122,
      "v": 92
    },
    {
      "midi": 64,
      "hit": false,
      "t": 7055.195247070313,
      "d": 244.0556455078122,
      "v": 102
    },
    {
      "midi": 45,
      "hit": false,
      "t": 7315.045725585937,
      "d": 244.0556455078122,
      "v": 102
    },
    {
      "midi": 76,
      "hit": false,
      "t": 7315.045725585937,
      "d": 385.699631835937,
      "v": 95
    },
    {
      "midi": 81,
      "hit": false,
      "t": 7315.045725585937,
      "d": 385.699631835937,
      "v": 109
    },
    {
      "midi": 57,
      "hit": false,
      "t": 7574.896204101562,
      "d": 241.5080917968753,
      "v": 92
    },
    {
      "midi": 60,
      "hit": false,
      "t": 7574.896204101562,
      "d": 241.5080917968753,
      "v": 92
    },
    {
      "midi": 64,
      "hit": false,
      "t": 7574.896204101562,
      "d": 241.5080917968753,
      "v": 102
    },
    {
      "midi": 76,
      "hit": false,
      "t": 7701.254868164062,
      "d": 122.79208886718789,
      "v": 100
    },
    {
      "midi": 80,
      "hit": false,
      "t": 7832.19912890625,
      "d": 241.5080917968753,
      "v": 101
    },
    {
      "midi": 76,
      "hit": false,
      "t": 8089.502053710938,
      "d": 242.52711328125042,
      "v": 92
    },
    {
      "midi": 81,
      "hit": false,
      "t": 8089.502053710938,
      "d": 242.52711328125042,
      "v": 106
    },
    {
      "midi": 57,
      "hit": false,
      "t": 8089.502053710938,
      "d": 242.52711328125042,
      "v": 92
    },
    {
      "midi": 60,
      "hit": false,
      "t": 8089.502053710938,
      "d": 242.52711328125042,
      "v": 92
    },
    {
      "midi": 64,
      "hit": false,
      "t": 8089.502053710938,
      "d": 242.52711328125042,
      "v": 102
    },
    {
      "midi": 45,
      "hit": false,
      "t": 8349.86204296875,
      "d": 259.8504785156256,
      "v": 104
    },
    {
      "midi": 80,
      "hit": false,
      "t": 8349.86204296875,
      "d": 534.4767685546885,
      "v": 97
    },
    {
      "midi": 83,
      "hit": false,
      "t": 8349.86204296875,
      "d": 534.4767685546885,
      "v": 111
    },
    {
      "midi": 57,
      "hit": false,
      "t": 8626.016865234376,
      "d": 243.03662402343798,
      "v": 92
    },
    {
      "midi": 60,
      "hit": false,
      "t": 8626.016865234376,
      "d": 243.03662402343798,
      "v": 92
    },
    {
      "midi": 64,
      "hit": false,
      "t": 8626.016865234376,
      "d": 243.03662402343798,
      "v": 102
    },
    {
      "midi": 81,
      "hit": false,
      "t": 8884.848322265627,
      "d": 516.6438925781258,
      "v": 93
    },
    {
      "midi": 84,
      "hit": false,
      "t": 8884.848322265627,
      "d": 516.6438925781258,
      "v": 107
    },
    {
      "midi": 57,
      "hit": false,
      "t": 9142.151247070315,
      "d": 244.0556455078131,
      "v": 103
    },
    {
      "midi": 60,
      "hit": false,
      "t": 9142.151247070315,
      "d": 244.0556455078131,
      "v": 103
    },
    {
      "midi": 64,
      "hit": false,
      "t": 9142.151247070315,
      "d": 244.0556455078131,
      "v": 98
    },
    {
      "midi": 86,
      "hit": false,
      "t": 9402.00172558594,
      "d": 65.21737500000017,
      "v": 103
    },
    {
      "midi": 52,
      "hit": false,
      "t": 9402.00172558594,
      "d": 1032.2687636718765,
      "v": 106
    },
    {
      "midi": 59,
      "hit": false,
      "t": 9402.00172558594,
      "d": 1032.2687636718765,
      "v": 106
    },
    {
      "midi": 62,
      "hit": false,
      "t": 9402.00172558594,
      "d": 1032.2687636718765,
      "v": 106
    },
    {
      "midi": 64,
      "hit": false,
      "t": 9402.00172558594,
      "d": 1032.2687636718765,
      "v": 101
    },
    {
      "midi": 83,
      "hit": false,
      "t": 9471.804697265628,
      "d": 59.612756835937034,
      "v": 100
    },
    {
      "midi": 86,
      "hit": false,
      "t": 9536.003050781253,
      "d": 58.59373535156192,
      "v": 100
    },
    {
      "midi": 83,
      "hit": false,
      "t": 9599.182382812503,
      "d": 58.08422460937436,
      "v": 100
    },
    {
      "midi": 86,
      "hit": false,
      "t": 9661.852204101566,
      "d": 58.59373535156192,
      "v": 100
    },
    {
      "midi": 83,
      "hit": false,
      "t": 9725.031536132816,
      "d": 58.59373535156192,
      "v": 100
    },
    {
      "midi": 86,
      "hit": false,
      "t": 9788.210868164066,
      "d": 59.612756835937034,
      "v": 100
    },
    {
      "midi": 83,
      "hit": false,
      "t": 9851.899710937503,
      "d": 62.669821289062384,
      "v": 100
    },
    {
      "midi": 86,
      "hit": false,
      "t": 9919.155128906254,
      "d": 62.669821289062384,
      "v": 101
    },
    {
      "midi": 83,
      "hit": false,
      "t": 9986.410546875004,
      "d": 59.103246093749476,
      "v": 100
    },
    {
      "midi": 72,
      "hit": false,
      "t": 10176.458053710941,
      "d": 242.52711328125042,
      "v": 92
    },
    {
      "midi": 76,
      "hit": false,
      "t": 10176.458053710941,
      "d": 242.52711328125042,
      "v": 106
    },
    {
      "midi": 45,
      "hit": false,
      "t": 10436.818042968755,
      "d": 259.8504785156256,
      "v": 104
    },
    {
      "midi": 71,
      "hit": false,
      "t": 10436.818042968755,
      "d": 402.5134863281255,
      "v": 97
    },
    {
      "midi": 75,
      "hit": false,
      "t": 10436.818042968755,
      "d": 402.5134863281255,
      "v": 111
    },
    {
      "midi": 57,
      "hit": false,
      "t": 10712.97286523438,
      "d": 243.03662402343798,
      "v": 92
    },
    {
      "midi": 60,
      "hit": false,
      "t": 10712.97286523438,
      "d": 243.03662402343798,
      "v": 92
    },
    {
      "midi": 64,
      "hit": false,
      "t": 10712.97286523438,
      "d": 243.03662402343798,
      "v": 102
    },
    {
      "midi": 72,
      "hit": false,
      "t": 10839.841040039068,
      "d": 123.30159960937635,
      "v": 92
    },
    {
      "midi": 76,
      "hit": false,
      "t": 10839.841040039068,
      "d": 123.30159960937635,
      "v": 106
    },
    {
      "midi": 71,
      "hit": false,
      "t": 10971.80432226563,
      "d": 241.5080917968753,
      "v": 93
    },
    {
      "midi": 75,
      "hit": false,
      "t": 10971.80432226563,
      "d": 241.5080917968753,
      "v": 107
    },
    {
      "midi": 72,
      "hit": false,
      "t": 11229.107247070318,
      "d": 244.0556455078131,
      "v": 92
    },
    {
      "midi": 76,
      "hit": false,
      "t": 11229.107247070318,
      "d": 244.0556455078131,
      "v": 106
    },
    {
      "midi": 57,
      "hit": false,
      "t": 11229.107247070318,
      "d": 244.0556455078131,
      "v": 92
    },
    {
      "midi": 60,
      "hit": false,
      "t": 11229.107247070318,
      "d": 244.0556455078131,
      "v": 92
    },
    {
      "midi": 64,
      "hit": false,
      "t": 11229.107247070318,
      "d": 244.0556455078131,
      "v": 102
    },
    {
      "midi": 45,
      "hit": false,
      "t": 11488.957725585944,
      "d": 244.0556455078131,
      "v": 102
    },
    {
      "midi": 74,
      "hit": false,
      "t": 11488.957725585944,
      "d": 385.6996318359379,
      "v": 95
    },
    {
      "midi": 77,
      "hit": false,
      "t": 11488.957725585944,
      "d": 385.6996318359379,
      "v": 109
    },
    {
      "midi": 57,
      "hit": false,
      "t": 11748.80820410157,
      "d": 241.5080917968753,
      "v": 92
    },
    {
      "midi": 60,
      "hit": false,
      "t": 11748.80820410157,
      "d": 241.5080917968753,
      "v": 92
    },
    {
      "midi": 64,
      "hit": false,
      "t": 11748.80820410157,
      "d": 241.5080917968753,
      "v": 102
    },
    {
      "midi": 72,
      "hit": false,
      "t": 11875.16686816407,
      "d": 122.7920888671888,
      "v": 92
    },
    {
      "midi": 76,
      "hit": false,
      "t": 11875.16686816407,
      "d": 122.7920888671888,
      "v": 106
    },
    {
      "midi": 71,
      "hit": false,
      "t": 12006.111128906257,
      "d": 241.5080917968753,
      "v": 93
    },
    {
      "midi": 74,
      "hit": false,
      "t": 12006.111128906257,
      "d": 241.5080917968753,
      "v": 107
    },
    {
      "midi": 72,
      "hit": false,
      "t": 12263.414053710945,
      "d": 242.52711328125042,
      "v": 92
    },
    {
      "midi": 76,
      "hit": false,
      "t": 12263.414053710945,
      "d": 242.52711328125042,
      "v": 106
    },
    {
      "midi": 57,
      "hit": false,
      "t": 12263.414053710945,
      "d": 242.52711328125042,
      "v": 92
    },
    {
      "midi": 60,
      "hit": false,
      "t": 12263.414053710945,
      "d": 242.52711328125042,
      "v": 92
    },
    {
      "midi": 64,
      "hit": false,
      "t": 12263.414053710945,
      "d": 242.52711328125042,
      "v": 102
    },
    {
      "midi": 45,
      "hit": false,
      "t": 12523.774042968758,
      "d": 259.8504785156256,
      "v": 104
    },
    {
      "midi": 71,
      "hit": false,
      "t": 12523.774042968758,
      "d": 402.5134863281255,
      "v": 97
    },
    {
      "midi": 74,
      "hit": false,
      "t": 12523.774042968758,
      "d": 402.5134863281255,
      "v": 111
    },
    {
      "midi": 57,
      "hit": false,
      "t": 12799.928865234384,
      "d": 243.03662402343798,
      "v": 92
    },
    {
      "midi": 60,
      "hit": false,
      "t": 12799.928865234384,
      "d": 243.03662402343798,
      "v": 92
    },
    {
      "midi": 64,
      "hit": false,
      "t": 12799.928865234384,
      "d": 243.03662402343798,
      "v": 102
    },
    {
      "midi": 69,
      "hit": false,
      "t": 12926.797040039071,
      "d": 123.30159960937635,
      "v": 92
    },
    {
      "midi": 72,
      "hit": false,
      "t": 12926.797040039071,
      "d": 123.30159960937635,
      "v": 106
    },
    {
      "midi": 69,
      "hit": false,
      "t": 13058.760322265634,
      "d": 241.5080917968753,
      "v": 93
    },
    {
      "midi": 72,
      "hit": false,
      "t": 13058.760322265634,
      "d": 241.5080917968753,
      "v": 107
    },
    {
      "midi": 71,
      "hit": false,
      "t": 13316.063247070322,
      "d": 244.0556455078131,
      "v": 92
    },
    {
      "midi": 74,
      "hit": false,
      "t": 13316.063247070322,
      "d": 244.0556455078131,
      "v": 106
    },
    {
      "midi": 57,
      "hit": false,
      "t": 13316.063247070322,
      "d": 244.0556455078131,
      "v": 92
    },
    {
      "midi": 60,
      "hit": false,
      "t": 13316.063247070322,
      "d": 244.0556455078131,
      "v": 92
    },
    {
      "midi": 64,
      "hit": false,
      "t": 13316.063247070322,
      "d": 244.0556455078131,
      "v": 102
    },
    {
      "midi": 69,
      "hit": false,
      "t": 13575.913725585948,
      "d": 244.0556455078131,
      "v": 95
    },
    {
      "midi": 72,
      "hit": false,
      "t": 13575.913725585948,
      "d": 244.0556455078131,
      "v": 109
    },
    {
      "midi": 45,
      "hit": false,
      "t": 13575.913725585948,
      "d": 244.0556455078131,
      "v": 102
    },
    {
      "midi": 59,
      "hit": false,
      "t": 13835.764204101573,
      "d": 241.5080917968753,
      "v": 92
    },
    {
      "midi": 62,
      "hit": false,
      "t": 13835.764204101573,
      "d": 241.5080917968753,
      "v": 102
    },
    {
      "midi": 68,
      "hit": false,
      "t": 13835.764204101573,
      "d": 514.096338867188,
      "v": 92
    },
    {
      "midi": 71,
      "hit": false,
      "t": 13835.764204101573,
      "d": 514.096338867188,
      "v": 106
    },
    {
      "midi": 72,
      "hit": false,
      "t": 14350.370053710949,
      "d": 242.52711328125042,
      "v": 92
    },
    {
      "midi": 76,
      "hit": false,
      "t": 14350.370053710949,
      "d": 242.52711328125042,
      "v": 106
    },
    {
      "midi": 52,
      "hit": false,
      "t": 14350.370053710949,
      "d": 242.52711328125042,
      "v": 103
    },
    {
      "midi": 59,
      "hit": false,
      "t": 14350.370053710949,
      "d": 242.52711328125042,
      "v": 92
    },
    {
      "midi": 62,
      "hit": false,
      "t": 14350.370053710949,
      "d": 242.52711328125042,
      "v": 98
    },
    {
      "midi": 45,
      "hit": false,
      "t": 14610.730042968762,
      "d": 259.8504785156256,
      "v": 104
    },
    {
      "midi": 71,
      "hit": false,
      "t": 14610.730042968762,
      "d": 402.5134863281255,
      "v": 97
    },
    {
      "midi": 75,
      "hit": false,
      "t": 14610.730042968762,
      "d": 402.5134863281255,
      "v": 111
    },
    {
      "midi": 57,
      "hit": false,
      "t": 14886.884865234388,
      "d": 243.03662402343798,
      "v": 92
    },
    {
      "midi": 60,
      "hit": false,
      "t": 14886.884865234388,
      "d": 243.03662402343798,
      "v": 92
    },
    {
      "midi": 64,
      "hit": false,
      "t": 14886.884865234388,
      "d": 243.03662402343798,
      "v": 102
    },
    {
      "midi": 72,
      "hit": false,
      "t": 15013.753040039075,
      "d": 123.30159960937635,
      "v": 92
    },
    {
      "midi": 76,
      "hit": false,
      "t": 15013.753040039075,
      "d": 123.30159960937635,
      "v": 106
    },
    {
      "midi": 71,
      "hit": false,
      "t": 15145.716322265638,
      "d": 241.5080917968753,
      "v": 93
    },
    {
      "midi": 75,
      "hit": false,
      "t": 15145.716322265638,
      "d": 241.5080917968753,
      "v": 107
    },
    {
      "midi": 72,
      "hit": false,
      "t": 15403.019247070326,
      "d": 244.0556455078131,
      "v": 92
    },
    {
      "midi": 76,
      "hit": false,
      "t": 15403.019247070326,
      "d": 244.0556455078131,
      "v": 106
    },
    {
      "midi": 57,
      "hit": false,
      "t": 15403.019247070326,
      "d": 244.0556455078131,
      "v": 92
    },
    {
      "midi": 60,
      "hit": false,
      "t": 15403.019247070326,
      "d": 244.0556455078131,
      "v": 92
    },
    {
      "midi": 64,
      "hit": false,
      "t": 15403.019247070326,
      "d": 244.0556455078131,
      "v": 102
    },
    {
      "midi": 45,
      "hit": false,
      "t": 15662.869725585952,
      "d": 244.0556455078131,
      "v": 102
    },
    {
      "midi": 76,
      "hit": false,
      "t": 15662.869725585952,
      "d": 385.6996318359379,
      "v": 95
    },
    {
      "midi": 81,
      "hit": false,
      "t": 15662.869725585952,
      "d": 385.6996318359379,
      "v": 109
    },
    {
      "midi": 57,
      "hit": false,
      "t": 15922.720204101577,
      "d": 241.5080917968753,
      "v": 92
    },
    {
      "midi": 60,
      "hit": false,
      "t": 15922.720204101577,
      "d": 241.5080917968753,
      "v": 92
    },
    {
      "midi": 64,
      "hit": false,
      "t": 15922.720204101577,
      "d": 241.5080917968753,
      "v": 102
    },
    {
      "midi": 76,
      "hit": false,
      "t": 16049.078868164077,
      "d": 122.7920888671888,
      "v": 100
    },
    {
      "midi": 80,
      "hit": false,
      "t": 16180.023128906265,
      "d": 241.5080917968735,
      "v": 101
    },
    {
      "midi": 76,
      "hit": false,
      "t": 16437.326053710953,
      "d": 242.5271132812486,
      "v": 92
    },
    {
      "midi": 81,
      "hit": false,
      "t": 16437.326053710953,
      "d": 242.5271132812486,
      "v": 106
    },
    {
      "midi": 57,
      "hit": false,
      "t": 16437.326053710953,
      "d": 242.5271132812486,
      "v": 103
    },
    {
      "midi": 60,
      "hit": false,
      "t": 16437.326053710953,
      "d": 242.5271132812486,
      "v": 103
    },
    {
      "midi": 64,
      "hit": false,
      "t": 16437.326053710953,
      "d": 242.5271132812486,
      "v": 98
    },
    {
      "midi": 80,
      "hit": false,
      "t": 16697.686042968762,
      "d": 534.4767685546867,
      "v": 97
    },
    {
      "midi": 83,
      "hit": false,
      "t": 16697.686042968762,
      "d": 534.4767685546867,
      "v": 111
    },
    {
      "midi": 52,
      "hit": false,
      "t": 16697.686042968762,
      "d": 534.4767685546867,
      "v": 108
    },
    {
      "midi": 59,
      "hit": false,
      "t": 16697.686042968762,
      "d": 534.4767685546867,
      "v": 108
    },
    {
      "midi": 62,
      "hit": false,
      "t": 16697.686042968762,
      "d": 534.4767685546867,
      "v": 108
    },
    {
      "midi": 64,
      "hit": false,
      "t": 16697.686042968762,
      "d": 534.4767685546867,
      "v": 103
    },
    {
      "midi": 81,
      "hit": false,
      "t": 17232.672322265636,
      "d": 516.6438925781258,
      "v": 93
    },
    {
      "midi": 84,
      "hit": false,
      "t": 17232.672322265636,
      "d": 516.6438925781258,
      "v": 107
    },
    {
      "midi": 52,
      "hit": false,
      "t": 17489.975247070324,
      "d": 244.05564550781128,
      "v": 103
    },
    {
      "midi": 59,
      "hit": false,
      "t": 17489.975247070324,
      "d": 244.05564550781128,
      "v": 103
    },
    {
      "midi": 62,
      "hit": false,
      "t": 17489.975247070324,
      "d": 244.05564550781128,
      "v": 103
    },
    {
      "midi": 64,
      "hit": false,
      "t": 17489.975247070324,
      "d": 244.05564550781128,
      "v": 98
    },
    {
      "midi": 76,
      "hit": false,
      "t": 17749.82572558595,
      "d": 516.6438925781258,
      "v": 95
    },
    {
      "midi": 81,
      "hit": false,
      "t": 17749.82572558595,
      "d": 516.6438925781258,
      "v": 109
    },
    {
      "midi": 57,
      "hit": false,
      "t": 17749.82572558595,
      "d": 516.6438925781258,
      "v": 106
    },
    {
      "midi": 60,
      "hit": false,
      "t": 17749.82572558595,
      "d": 516.6438925781258,
      "v": 106
    },
    {
      "midi": 64,
      "hit": false,
      "t": 17749.82572558595,
      "d": 516.6438925781258,
      "v": 101
    },
    {
      "midi": 72,
      "hit": false,
      "t": 18524.28205371095,
      "d": 242.5271132812486,
      "v": 92
    },
    {
      "midi": 76,
      "hit": false,
      "t": 18524.28205371095,
      "d": 242.5271132812486,
      "v": 106
    },
    {
      "midi": 45,
      "hit": false,
      "t": 18784.64204296876,
      "d": 259.8504785156256,
      "v": 104
    },
    {
      "midi": 71,
      "hit": false,
      "t": 18784.64204296876,
      "d": 402.5134863281237,
      "v": 97
    },
    {
      "midi": 75,
      "hit": false,
      "t": 18784.64204296876,
      "d": 402.5134863281237,
      "v": 111
    },
    {
      "midi": 57,
      "hit": false,
      "t": 19060.796865234384,
      "d": 243.03662402343616,
      "v": 92
    },
    {
      "midi": 60,
      "hit": false,
      "t": 19060.796865234384,
      "d": 243.03662402343616,
      "v": 92
    },
    {
      "midi": 64,
      "hit": false,
      "t": 19060.796865234384,
      "d": 243.03662402343616,
      "v": 102
    },
    {
      "midi": 72,
      "hit": false,
      "t": 19187.66504003907,
      "d": 123.30159960937453,
      "v": 92
    },
    {
      "midi": 76,
      "hit": false,
      "t": 19187.66504003907,
      "d": 123.30159960937453,
      "v": 106
    },
    {
      "midi": 71,
      "hit": false,
      "t": 19319.628322265635,
      "d": 241.5080917968735,
      "v": 93
    },
    {
      "midi": 75,
      "hit": false,
      "t": 19319.628322265635,
      "d": 241.5080917968735,
      "v": 107
    },
    {
      "midi": 72,
      "hit": false,
      "t": 19576.931247070323,
      "d": 244.05564550781128,
      "v": 92
    },
    {
      "midi": 76,
      "hit": false,
      "t": 19576.931247070323,
      "d": 244.05564550781128,
      "v": 106
    },
    {
      "midi": 57,
      "hit": false,
      "t": 19576.931247070323,
      "d": 244.05564550781128,
      "v": 92
    },
    {
      "midi": 60,
      "hit": false,
      "t": 19576.931247070323,
      "d": 244.05564550781128,
      "v": 92
    },
    {
      "midi": 64,
      "hit": false,
      "t": 19576.931247070323,
      "d": 244.05564550781128,
      "v": 102
    },
    {
      "midi": 45,
      "hit": false,
      "t": 19836.781725585948,
      "d": 244.05564550781128,
      "v": 102
    },
    {
      "midi": 74,
      "hit": false,
      "t": 19836.781725585948,
      "d": 385.6996318359379,
      "v": 95
    },
    {
      "midi": 77,
      "hit": false,
      "t": 19836.781725585948,
      "d": 385.6996318359379,
      "v": 109
    },
    {
      "midi": 57,
      "hit": false,
      "t": 20096.632204101574,
      "d": 241.5080917968735,
      "v": 92
    },
    {
      "midi": 60,
      "hit": false,
      "t": 20096.632204101574,
      "d": 241.5080917968735,
      "v": 92
    },
    {
      "midi": 64,
      "hit": false,
      "t": 20096.632204101574,
      "d": 241.5080917968735,
      "v": 102
    },
    {
      "midi": 72,
      "hit": false,
      "t": 20222.990868164074,
      "d": 122.79208886718698,
      "v": 92
    },
    {
      "midi": 76,
      "hit": false,
      "t": 20222.990868164074,
      "d": 122.79208886718698,
      "v": 106
    },
    {
      "midi": 71,
      "hit": false,
      "t": 20353.93512890626,
      "d": 241.5080917968735,
      "v": 93
    },
    {
      "midi": 74,
      "hit": false,
      "t": 20353.93512890626,
      "d": 241.5080917968735,
      "v": 107
    },
    {
      "midi": 72,
      "hit": false,
      "t": 20611.23805371095,
      "d": 242.5271132812486,
      "v": 92
    },
    {
      "midi": 76,
      "hit": false,
      "t": 20611.23805371095,
      "d": 242.5271132812486,
      "v": 106
    },
    {
      "midi": 57,
      "hit": false,
      "t": 20611.23805371095,
      "d": 242.5271132812486,
      "v": 92
    },
    {
      "midi": 60,
      "hit": false,
      "t": 20611.23805371095,
      "d": 242.5271132812486,
      "v": 92
    },
    {
      "midi": 64,
      "hit": false,
      "t": 20611.23805371095,
      "d": 242.5271132812486,
      "v": 102
    },
    {
      "midi": 45,
      "hit": false,
      "t": 20871.59804296876,
      "d": 259.8504785156256,
      "v": 104
    },
    {
      "midi": 71,
      "hit": false,
      "t": 20871.59804296876,
      "d": 402.5134863281237,
      "v": 97
    },
    {
      "midi": 74,
      "hit": false,
      "t": 20871.59804296876,
      "d": 402.5134863281237,
      "v": 111
    },
    {
      "midi": 57,
      "hit": false,
      "t": 21147.752865234383,
      "d": 243.03662402343616,
      "v": 92
    },
    {
      "midi": 60,
      "hit": false,
      "t": 21147.752865234383,
      "d": 243.03662402343616,
      "v": 92
    },
    {
      "midi": 64,
      "hit": false,
      "t": 21147.752865234383,
      "d": 243.03662402343616,
      "v": 102
    },
    {
      "midi": 69,
      "hit": false,
      "t": 21274.62104003907,
      "d": 123.30159960937453,
      "v": 92
    },
    {
      "midi": 72,
      "hit": false,
      "t": 21274.62104003907,
      "d": 123.30159960937453,
      "v": 106
    },
    {
      "midi": 69,
      "hit": false,
      "t": 21406.584322265633,
      "d": 241.5080917968735,
      "v": 93
    },
    {
      "midi": 72,
      "hit": false,
      "t": 21406.584322265633,
      "d": 241.5080917968735,
      "v": 107
    },
    {
      "midi": 71,
      "hit": false,
      "t": 21663.88724707032,
      "d": 244.05564550781128,
      "v": 92
    },
    {
      "midi": 74,
      "hit": false,
      "t": 21663.88724707032,
      "d": 244.05564550781128,
      "v": 106
    },
    {
      "midi": 57,
      "hit": false,
      "t": 21663.88724707032,
      "d": 244.05564550781128,
      "v": 92
    },
    {
      "midi": 60,
      "hit": false,
      "t": 21663.88724707032,
      "d": 244.05564550781128,
      "v": 92
    },
    {
      "midi": 64,
      "hit": false,
      "t": 21663.88724707032,
      "d": 244.05564550781128,
      "v": 102
    },
    {
      "midi": 69,
      "hit": false,
      "t": 21923.737725585946,
      "d": 244.05564550781128,
      "v": 95
    },
    {
      "midi": 72,
      "hit": false,
      "t": 21923.737725585946,
      "d": 244.05564550781128,
      "v": 109
    },
    {
      "midi": 45,
      "hit": false,
      "t": 21923.737725585946,
      "d": 244.05564550781128,
      "v": 102
    },
    {
      "midi": 59,
      "hit": false,
      "t": 22183.588204101572,
      "d": 241.5080917968735,
      "v": 92
    },
    {
      "midi": 62,
      "hit": false,
      "t": 22183.588204101572,
      "d": 241.5080917968735,
      "v": 102
    },
    {
      "midi": 68,
      "hit": false,
      "t": 22183.588204101572,
      "d": 514.0963388671844,
      "v": 92
    },
    {
      "midi": 71,
      "hit": false,
      "t": 22183.588204101572,
      "d": 514.0963388671844,
      "v": 106
    },
    {
      "midi": 72,
      "hit": false,
      "t": 22698.194053710944,
      "d": 242.5271132812486,
      "v": 92
    },
    {
      "midi": 76,
      "hit": false,
      "t": 22698.194053710944,
      "d": 242.5271132812486,
      "v": 106
    },
    {
      "midi": 52,
      "hit": false,
      "t": 22698.194053710944,
      "d": 242.5271132812486,
      "v": 103
    },
    {
      "midi": 59,
      "hit": false,
      "t": 22698.194053710944,
      "d": 242.5271132812486,
      "v": 92
    },
    {
      "midi": 62,
      "hit": false,
      "t": 22698.194053710944,
      "d": 242.5271132812486,
      "v": 98
    },
    {
      "midi": 45,
      "hit": false,
      "t": 22958.554042968753,
      "d": 259.8504785156256,
      "v": 104
    },
    {
      "midi": 71,
      "hit": false,
      "t": 22958.554042968753,
      "d": 402.5134863281237,
      "v": 97
    },
    {
      "midi": 75,
      "hit": false,
      "t": 22958.554042968753,
      "d": 402.5134863281237,
      "v": 111
    },
    {
      "midi": 57,
      "hit": false,
      "t": 23234.708865234377,
      "d": 243.03662402343616,
      "v": 92
    },
    {
      "midi": 60,
      "hit": false,
      "t": 23234.708865234377,
      "d": 243.03662402343616,
      "v": 92
    },
    {
      "midi": 64,
      "hit": false,
      "t": 23234.708865234377,
      "d": 243.03662402343616,
      "v": 102
    },
    {
      "midi": 72,
      "hit": false,
      "t": 23361.577040039065,
      "d": 123.30159960937453,
      "v": 92
    },
    {
      "midi": 76,
      "hit": false,
      "t": 23361.577040039065,
      "d": 123.30159960937453,
      "v": 106
    },
    {
      "midi": 71,
      "hit": false,
      "t": 23493.540322265628,
      "d": 241.5080917968735,
      "v": 93
    },
    {
      "midi": 75,
      "hit": false,
      "t": 23493.540322265628,
      "d": 241.5080917968735,
      "v": 107
    },
    {
      "midi": 72,
      "hit": false,
      "t": 23750.843247070316,
      "d": 244.05564550781128,
      "v": 92
    },
    {
      "midi": 76,
      "hit": false,
      "t": 23750.843247070316,
      "d": 244.05564550781128,
      "v": 106
    },
    {
      "midi": 57,
      "hit": false,
      "t": 23750.843247070316,
      "d": 244.05564550781128,
      "v": 92
    },
    {
      "midi": 60,
      "hit": false,
      "t": 23750.843247070316,
      "d": 244.05564550781128,
      "v": 92
    },
    {
      "midi": 64,
      "hit": false,
      "t": 23750.843247070316,
      "d": 244.05564550781128,
      "v": 102
    },
    {
      "midi": 45,
      "hit": false,
      "t": 24010.69372558594,
      "d": 244.05564550781128,
      "v": 102
    },
    {
      "midi": 76,
      "hit": false,
      "t": 24010.69372558594,
      "d": 385.6996318359379,
      "v": 95
    },
    {
      "midi": 81,
      "hit": false,
      "t": 24010.69372558594,
      "d": 385.6996318359379,
      "v": 109
    },
    {
      "midi": 57,
      "hit": false,
      "t": 24270.544204101567,
      "d": 241.5080917968735,
      "v": 92
    },
    {
      "midi": 60,
      "hit": false,
      "t": 24270.544204101567,
      "d": 241.5080917968735,
      "v": 92
    },
    {
      "midi": 64,
      "hit": false,
      "t": 24270.544204101567,
      "d": 241.5080917968735,
      "v": 102
    },
    {
      "midi": 76,
      "hit": false,
      "t": 24396.902868164067,
      "d": 122.79208886718698,
      "v": 100
    },
    {
      "midi": 80,
      "hit": false,
      "t": 24527.847128906255,
      "d": 241.5080917968735,
      "v": 101
    },
    {
      "midi": 76,
      "hit": false,
      "t": 24785.150053710942,
      "d": 242.5271132812486,
      "v": 92
    },
    {
      "midi": 81,
      "hit": false,
      "t": 24785.150053710942,
      "d": 242.5271132812486,
      "v": 106
    },
    {
      "midi": 57,
      "hit": false,
      "t": 24785.150053710942,
      "d": 242.5271132812486,
      "v": 92
    },
    {
      "midi": 60,
      "hit": false,
      "t": 24785.150053710942,
      "d": 242.5271132812486,
      "v": 92
    },
    {
      "midi": 64,
      "hit": false,
      "t": 24785.150053710942,
      "d": 242.5271132812486,
      "v": 102
    },
    {
      "midi": 45,
      "hit": false,
      "t": 25045.51004296875,
      "d": 259.8504785156256,
      "v": 104
    },
    {
      "midi": 80,
      "hit": false,
      "t": 25045.51004296875,
      "d": 534.4767685546867,
      "v": 97
    },
    {
      "midi": 83,
      "hit": false,
      "t": 25045.51004296875,
      "d": 534.4767685546867,
      "v": 111
    },
    {
      "midi": 57,
      "hit": false,
      "t": 25321.664865234376,
      "d": 243.03662402343616,
      "v": 92
    },
    {
      "midi": 60,
      "hit": false,
      "t": 25321.664865234376,
      "d": 243.03662402343616,
      "v": 92
    },
    {
      "midi": 64,
      "hit": false,
      "t": 25321.664865234376,
      "d": 243.03662402343616,
      "v": 102
    },
    {
      "midi": 81,
      "hit": false,
      "t": 25580.496322265626,
      "d": 516.6438925781258,
      "v": 93
    },
    {
      "midi": 84,
      "hit": false,
      "t": 25580.496322265626,
      "d": 516.6438925781258,
      "v": 107
    },
    {
      "midi": 57,
      "hit": false,
      "t": 25837.799247070314,
      "d": 244.05564550781128,
      "v": 103
    },
    {
      "midi": 60,
      "hit": false,
      "t": 25837.799247070314,
      "d": 244.05564550781128,
      "v": 103
    },
    {
      "midi": 64,
      "hit": false,
      "t": 25837.799247070314,
      "d": 244.05564550781128,
      "v": 98
    },
    {
      "midi": 86,
      "hit": false,
      "t": 26097.64972558594,
      "d": 65.21737500000017,
      "v": 103
    },
    {
      "midi": 52,
      "hit": false,
      "t": 26097.64972558594,
      "d": 1032.2687636718765,
      "v": 106
    },
    {
      "midi": 59,
      "hit": false,
      "t": 26097.64972558594,
      "d": 1032.2687636718765,
      "v": 106
    },
    {
      "midi": 62,
      "hit": false,
      "t": 26097.64972558594,
      "d": 1032.2687636718765,
      "v": 106
    },
    {
      "midi": 64,
      "hit": false,
      "t": 26097.64972558594,
      "d": 1032.2687636718765,
      "v": 101
    },
    {
      "midi": 83,
      "hit": false,
      "t": 26167.452697265628,
      "d": 59.612756835937034,
      "v": 100
    },
    {
      "midi": 86,
      "hit": false,
      "t": 26231.651050781253,
      "d": 58.59373535156192,
      "v": 100
    },
    {
      "midi": 83,
      "hit": false,
      "t": 26294.830382812503,
      "d": 58.08422460937436,
      "v": 100
    },
    {
      "midi": 86,
      "hit": false,
      "t": 26357.500204101565,
      "d": 58.59373535156192,
      "v": 100
    },
    {
      "midi": 83,
      "hit": false,
      "t": 26420.679536132815,
      "d": 58.59373535156192,
      "v": 100
    },
    {
      "midi": 86,
      "hit": false,
      "t": 26483.858868164065,
      "d": 59.612756835937034,
      "v": 100
    },
    {
      "midi": 83,
      "hit": false,
      "t": 26547.547710937502,
      "d": 62.669821289062384,
      "v": 100
    },
    {
      "midi": 86,
      "hit": false,
      "t": 26614.803128906253,
      "d": 62.669821289062384,
      "v": 101
    },
    {
      "midi": 83,
      "hit": false,
      "t": 26682.058546875003,
      "d": 59.103246093749476,
      "v": 100
    },
    {
      "midi": 72,
      "hit": false,
      "t": 26872.10605371094,
      "d": 242.5271132812486,
      "v": 92
    },
    {
      "midi": 76,
      "hit": false,
      "t": 26872.10605371094,
      "d": 242.5271132812486,
      "v": 106
    },
    {
      "midi": 45,
      "hit": false,
      "t": 27132.466042968754,
      "d": 259.8504785156256,
      "v": 104
    },
    {
      "midi": 71,
      "hit": false,
      "t": 27132.466042968754,
      "d": 402.5134863281237,
      "v": 97
    },
    {
      "midi": 75,
      "hit": false,
      "t": 27132.466042968754,
      "d": 402.5134863281237,
      "v": 111
    },
    {
      "midi": 57,
      "hit": false,
      "t": 27408.620865234378,
      "d": 243.03662402343616,
      "v": 92
    },
    {
      "midi": 60,
      "hit": false,
      "t": 27408.620865234378,
      "d": 243.03662402343616,
      "v": 92
    },
    {
      "midi": 64,
      "hit": false,
      "t": 27408.620865234378,
      "d": 243.03662402343616,
      "v": 102
    },
    {
      "midi": 72,
      "hit": false,
      "t": 27535.489040039065,
      "d": 123.30159960937453,
      "v": 92
    },
    {
      "midi": 76,
      "hit": false,
      "t": 27535.489040039065,
      "d": 123.30159960937453,
      "v": 106
    },
    {
      "midi": 71,
      "hit": false,
      "t": 27667.452322265628,
      "d": 241.5080917968735,
      "v": 93
    },
    {
      "midi": 75,
      "hit": false,
      "t": 27667.452322265628,
      "d": 241.5080917968735,
      "v": 107
    },
    {
      "midi": 72,
      "hit": false,
      "t": 27924.755247070316,
      "d": 244.05564550781128,
      "v": 92
    },
    {
      "midi": 76,
      "hit": false,
      "t": 27924.755247070316,
      "d": 244.05564550781128,
      "v": 106
    },
    {
      "midi": 57,
      "hit": false,
      "t": 27924.755247070316,
      "d": 244.05564550781128,
      "v": 92
    },
    {
      "midi": 60,
      "hit": false,
      "t": 27924.755247070316,
      "d": 244.05564550781128,
      "v": 92
    },
    {
      "midi": 64,
      "hit": false,
      "t": 27924.755247070316,
      "d": 244.05564550781128,
      "v": 102
    },
    {
      "midi": 45,
      "hit": false,
      "t": 28184.60572558594,
      "d": 244.05564550781128,
      "v": 102
    },
    {
      "midi": 74,
      "hit": false,
      "t": 28184.60572558594,
      "d": 385.6996318359379,
      "v": 95
    },
    {
      "midi": 77,
      "hit": false,
      "t": 28184.60572558594,
      "d": 385.6996318359379,
      "v": 109
    },
    {
      "midi": 57,
      "hit": false,
      "t": 28444.456204101567,
      "d": 241.5080917968735,
      "v": 92
    },
    {
      "midi": 60,
      "hit": false,
      "t": 28444.456204101567,
      "d": 241.5080917968735,
      "v": 92
    },
    {
      "midi": 64,
      "hit": false,
      "t": 28444.456204101567,
      "d": 241.5080917968735,
      "v": 102
    },
    {
      "midi": 72,
      "hit": false,
      "t": 28570.814868164067,
      "d": 122.79208886718698,
      "v": 92
    },
    {
      "midi": 76,
      "hit": false,
      "t": 28570.814868164067,
      "d": 122.79208886718698,
      "v": 106
    },
    {
      "midi": 71,
      "hit": false,
      "t": 28701.759128906255,
      "d": 241.5080917968735,
      "v": 93
    },
    {
      "midi": 74,
      "hit": false,
      "t": 28701.759128906255,
      "d": 241.5080917968735,
      "v": 107
    },
    {
      "midi": 72,
      "hit": false,
      "t": 28959.062053710943,
      "d": 242.5271132812486,
      "v": 92
    },
    {
      "midi": 76,
      "hit": false,
      "t": 28959.062053710943,
      "d": 242.5271132812486,
      "v": 106
    },
    {
      "midi": 57,
      "hit": false,
      "t": 28959.062053710943,
      "d": 242.5271132812486,
      "v": 92
    },
    {
      "midi": 60,
      "hit": false,
      "t": 28959.062053710943,
      "d": 242.5271132812486,
      "v": 92
    },
    {
      "midi": 64,
      "hit": false,
      "t": 28959.062053710943,
      "d": 242.5271132812486,
      "v": 102
    },
    {
      "midi": 45,
      "hit": false,
      "t": 29219.422042968752,
      "d": 259.8504785156256,
      "v": 104
    },
    {
      "midi": 71,
      "hit": false,
      "t": 29219.422042968752,
      "d": 402.5134863281237,
      "v": 97
    },
    {
      "midi": 74,
      "hit": false,
      "t": 29219.422042968752,
      "d": 402.5134863281237,
      "v": 111
    },
    {
      "midi": 57,
      "hit": false,
      "t": 29495.576865234376,
      "d": 243.03662402343616,
      "v": 92
    },
    {
      "midi": 60,
      "hit": false,
      "t": 29495.576865234376,
      "d": 243.03662402343616,
      "v": 92
    },
    {
      "midi": 64,
      "hit": false,
      "t": 29495.576865234376,
      "d": 243.03662402343616,
      "v": 102
    },
    {
      "midi": 69,
      "hit": false,
      "t": 29622.445040039063,
      "d": 123.30159960937453,
      "v": 92
    },
    {
      "midi": 72,
      "hit": false,
      "t": 29622.445040039063,
      "d": 123.30159960937453,
      "v": 106
    },
    {
      "midi": 69,
      "hit": false,
      "t": 29754.408322265626,
      "d": 241.5080917968735,
      "v": 93
    },
    {
      "midi": 72,
      "hit": false,
      "t": 29754.408322265626,
      "d": 241.5080917968735,
      "v": 107
    },
    {
      "midi": 71,
      "hit": false,
      "t": 30011.711247070314,
      "d": 244.05564550781128,
      "v": 92
    },
    {
      "midi": 74,
      "hit": false,
      "t": 30011.711247070314,
      "d": 244.05564550781128,
      "v": 106
    },
    {
      "midi": 57,
      "hit": false,
      "t": 30011.711247070314,
      "d": 244.05564550781128,
      "v": 92
    },
    {
      "midi": 60,
      "hit": false,
      "t": 30011.711247070314,
      "d": 244.05564550781128,
      "v": 92
    },
    {
      "midi": 64,
      "hit": false,
      "t": 30011.711247070314,
      "d": 244.05564550781128,
      "v": 102
    },
    {
      "midi": 69,
      "hit": false,
      "t": 30271.56172558594,
      "d": 244.05564550781128,
      "v": 95
    },
    {
      "midi": 72,
      "hit": false,
      "t": 30271.56172558594,
      "d": 244.05564550781128,
      "v": 109
    },
    {
      "midi": 45,
      "hit": false,
      "t": 30271.56172558594,
      "d": 244.05564550781128,
      "v": 102
    },
    {
      "midi": 59,
      "hit": false,
      "t": 30531.412204101565,
      "d": 241.5080917968735,
      "v": 92
    },
    {
      "midi": 62,
      "hit": false,
      "t": 30531.412204101565,
      "d": 241.5080917968735,
      "v": 102
    },
    {
      "midi": 68,
      "hit": false,
      "t": 30531.412204101565,
      "d": 514.0963388671844,
      "v": 92
    },
    {
      "midi": 71,
      "hit": false,
      "t": 30531.412204101565,
      "d": 514.0963388671844,
      "v": 106
    },
    {
      "midi": 72,
      "hit": false,
      "t": 31046.018053710937,
      "d": 242.5271132812486,
      "v": 92
    },
    {
      "midi": 76,
      "hit": false,
      "t": 31046.018053710937,
      "d": 242.5271132812486,
      "v": 106
    },
    {
      "midi": 52,
      "hit": false,
      "t": 31046.018053710937,
      "d": 242.5271132812486,
      "v": 103
    },
    {
      "midi": 59,
      "hit": false,
      "t": 31046.018053710937,
      "d": 242.5271132812486,
      "v": 92
    },
    {
      "midi": 62,
      "hit": false,
      "t": 31046.018053710937,
      "d": 242.5271132812486,
      "v": 98
    },
    {
      "midi": 45,
      "hit": false,
      "t": 31306.378042968747,
      "d": 259.8504785156256,
      "v": 104
    },
    {
      "midi": 71,
      "hit": false,
      "t": 31306.378042968747,
      "d": 402.5134863281237,
      "v": 97
    },
    {
      "midi": 75,
      "hit": false,
      "t": 31306.378042968747,
      "d": 402.5134863281237,
      "v": 111
    },
    {
      "midi": 57,
      "hit": false,
      "t": 31582.53286523437,
      "d": 243.03662402343616,
      "v": 92
    },
    {
      "midi": 60,
      "hit": false,
      "t": 31582.53286523437,
      "d": 243.03662402343616,
      "v": 92
    },
    {
      "midi": 64,
      "hit": false,
      "t": 31582.53286523437,
      "d": 243.03662402343616,
      "v": 102
    },
    {
      "midi": 72,
      "hit": false,
      "t": 31709.401040039058,
      "d": 123.30159960937453,
      "v": 92
    },
    {
      "midi": 76,
      "hit": false,
      "t": 31709.401040039058,
      "d": 123.30159960937453,
      "v": 106
    },
    {
      "midi": 71,
      "hit": false,
      "t": 31841.36432226562,
      "d": 241.5080917968735,
      "v": 93
    },
    {
      "midi": 75,
      "hit": false,
      "t": 31841.36432226562,
      "d": 241.5080917968735,
      "v": 107
    },
    {
      "midi": 72,
      "hit": false,
      "t": 32098.66724707031,
      "d": 244.05564550781128,
      "v": 92
    },
    {
      "midi": 76,
      "hit": false,
      "t": 32098.66724707031,
      "d": 244.05564550781128,
      "v": 106
    },
    {
      "midi": 57,
      "hit": false,
      "t": 32098.66724707031,
      "d": 244.05564550781128,
      "v": 92
    },
    {
      "midi": 60,
      "hit": false,
      "t": 32098.66724707031,
      "d": 244.05564550781128,
      "v": 92
    },
    {
      "midi": 64,
      "hit": false,
      "t": 32098.66724707031,
      "d": 244.05564550781128,
      "v": 102
    },
    {
      "midi": 45,
      "hit": false,
      "t": 32358.517725585934,
      "d": 244.05564550781128,
      "v": 102
    },
    {
      "midi": 76,
      "hit": false,
      "t": 32358.517725585934,
      "d": 385.6996318359379,
      "v": 95
    },
    {
      "midi": 81,
      "hit": false,
      "t": 32358.517725585934,
      "d": 385.6996318359379,
      "v": 109
    },
    {
      "midi": 57,
      "hit": false,
      "t": 32618.36820410156,
      "d": 241.50809179687712,
      "v": 92
    },
    {
      "midi": 60,
      "hit": false,
      "t": 32618.36820410156,
      "d": 241.50809179687712,
      "v": 92
    },
    {
      "midi": 64,
      "hit": false,
      "t": 32618.36820410156,
      "d": 241.50809179687712,
      "v": 102
    },
    {
      "midi": 76,
      "hit": false,
      "t": 32744.72686816406,
      "d": 122.79208886719061,
      "v": 100
    },
    {
      "midi": 80,
      "hit": false,
      "t": 32875.67112890625,
      "d": 241.5080917968735,
      "v": 101
    },
    {
      "midi": 76,
      "hit": false,
      "t": 33132.97405371094,
      "d": 242.5271132812486,
      "v": 92
    },
    {
      "midi": 81,
      "hit": false,
      "t": 33132.97405371094,
      "d": 242.5271132812486,
      "v": 106
    },
    {
      "midi": 57,
      "hit": false,
      "t": 33132.97405371094,
      "d": 242.5271132812486,
      "v": 103
    },
    {
      "midi": 60,
      "hit": false,
      "t": 33132.97405371094,
      "d": 242.5271132812486,
      "v": 103
    },
    {
      "midi": 64,
      "hit": false,
      "t": 33132.97405371094,
      "d": 242.5271132812486,
      "v": 98
    },
    {
      "midi": 80,
      "hit": false,
      "t": 33393.33404296875,
      "d": 534.4767685546904,
      "v": 97
    },
    {
      "midi": 83,
      "hit": false,
      "t": 33393.33404296875,
      "d": 534.4767685546904,
      "v": 111
    },
    {
      "midi": 52,
      "hit": false,
      "t": 33393.33404296875,
      "d": 534.4767685546904,
      "v": 108
    },
    {
      "midi": 59,
      "hit": false,
      "t": 33393.33404296875,
      "d": 534.4767685546904,
      "v": 108
    },
    {
      "midi": 62,
      "hit": false,
      "t": 33393.33404296875,
      "d": 534.4767685546904,
      "v": 108
    },
    {
      "midi": 64,
      "hit": false,
      "t": 33393.33404296875,
      "d": 534.4767685546904,
      "v": 103
    },
    {
      "midi": 81,
      "hit": false,
      "t": 33928.32032226563,
      "d": 516.6438925781258,
      "v": 93
    },
    {
      "midi": 84,
      "hit": false,
      "t": 33928.32032226563,
      "d": 516.6438925781258,
      "v": 107
    },
    {
      "midi": 52,
      "hit": false,
      "t": 34185.62324707032,
      "d": 244.05564550781128,
      "v": 103
    },
    {
      "midi": 59,
      "hit": false,
      "t": 34185.62324707032,
      "d": 244.05564550781128,
      "v": 103
    },
    {
      "midi": 62,
      "hit": false,
      "t": 34185.62324707032,
      "d": 244.05564550781128,
      "v": 103
    },
    {
      "midi": 64,
      "hit": false,
      "t": 34185.62324707032,
      "d": 244.05564550781128,
      "v": 98
    },
    {
      "midi": 81,
      "hit": false,
      "t": 34445.47372558594,
      "d": 65.21737500000017,
      "v": 103
    },
    {
      "midi": 57,
      "hit": false,
      "t": 34445.47372558594,
      "d": 516.6438925781258,
      "v": 106
    },
    {
      "midi": 60,
      "hit": false,
      "t": 34445.47372558594,
      "d": 516.6438925781258,
      "v": 106
    },
    {
      "midi": 64,
      "hit": false,
      "t": 34445.47372558594,
      "d": 516.6438925781258,
      "v": 101
    },
    {
      "midi": 76,
      "hit": false,
      "t": 34515.27669726563,
      "d": 59.612756835937034,
      "v": 100
    },
    {
      "midi": 81,
      "hit": false,
      "t": 34579.47505078126,
      "d": 58.59373535156192,
      "v": 100
    },
    {
      "midi": 76,
      "hit": false,
      "t": 34642.65438281251,
      "d": 58.08422460937436,
      "v": 100
    },
    {
      "midi": 81,
      "hit": false,
      "t": 34705.32420410157,
      "d": 58.59373535156192,
      "v": 100
    },
    {
      "midi": 76,
      "hit": false,
      "t": 34768.50353613282,
      "d": 58.59373535156192,
      "v": 100
    },
    {
      "midi": 81,
      "hit": false,
      "t": 34831.68286816407,
      "d": 59.612756835937034,
      "v": 100
    },
    {
      "midi": 76,
      "hit": false,
      "t": 34895.37171093751,
      "d": 62.669821289062384,
      "v": 100
    },
    {
      "midi": 81,
      "hit": false,
      "t": 34962.62712890626,
      "d": 62.669821289062384,
      "v": 101
    },
    {
      "midi": 76,
      "hit": false,
      "t": 35029.88254687501,
      "d": 59.103246093749476,
      "v": 100
    },
    {
      "midi": 72,
      "hit": false,
      "t": 35219.930053710945,
      "d": 242.5271132812486,
      "v": 92
    },
    {
      "midi": 76,
      "hit": false,
      "t": 35219.930053710945,
      "d": 242.5271132812486,
      "v": 106
    }
  ]
}