{
  "jsonPath": "Unknown/Unknown/Carl Doy/gymnopedie-1.json",
  "path": "Unknown\\Unknown\\Carl Doy\\Gymnopedie 1.mid",
  "name": "Gymnopedie 1",
  "difficulty": "Advanced",
  "bpm": 89.00004005001803,
  "notes": [
    {
      "midi": 43,
      "hit": false,
      "t": 0,
      "d": 2000.0010000000002,
      "v": 61
    },
    {
      "midi": 59,
      "hit": false,
      "t": 666.667,
      "d": 1280.5561958333337,
      "v": 56
    },
    {
      "midi": 62,
      "hit": false,
      "t": 666.667,
      "d": 1280.5561958333337,
      "v": 56
    },
    {
      "midi": 66,
      "hit": false,
      "t": 666.667,
      "d": 1280.5561958333337,
      "v": 56
    },
    {
      "midi": 38,
      "hit": false,
      "t": 2000.0010000000002,
      "d": 2000.0010000000002,
      "v": 61
    },
    {
      "midi": 57,
      "hit": false,
      "t": 2666.6680000000006,
      "d": 1280.5561958333337,
      "v": 56
    },
    {
      "midi": 61,
      "hit": false,
      "t": 2666.6680000000006,
      "d": 1280.5561958333337,
      "v": 56
    },
    {
      "midi": 66,
      "hit": false,
      "t": 2666.6680000000006,
      "d": 1280.5561958333337,
      "v": 56
    },
    {
      "midi": 43,
      "hit": false,
      "t": 4000.0020000000004,
      "d": 2000.0010000000002,
      "v": 61
    },
    {
      "midi": 59,
      "hit": false,
      "t": 4666.669000000001,
      "d": 1280.5561958333337,
      "v": 56
    },
    {
      "midi": 62,
      "hit": false,
      "t": 4666.669000000001,
      "d": 1280.5561958333337,
      "v": 56
    },
    {
      "midi": 66,
      "hit": false,
      "t": 4666.669000000001,
      "d": 1280.5561958333337,
      "v": 56
    },
    {
      "midi": 38,
      "hit": false,
      "t": 6000.003000000001,
      "d": 2000.0010000000002,
      "v": 61
    },
    {
      "midi": 57,
      "hit": false,
      "t": 6666.670000000001,
      "d": 1280.5561958333337,
      "v": 56
    },
    {
      "midi": 61,
      "hit": false,
      "t": 6666.670000000001,
      "d": 1280.5561958333337,
      "v": 56
    },
    {
      "midi": 66,
      "hit": false,
      "t": 6666.670000000001,
      "d": 1280.5561958333337,
      "v": 56
    },
    {
      "midi": 43,
      "hit": false,
      "t": 8000.004000000001,
      "d": 2000.0010000000002,
      "v": 61
    },
    {
      "midi": 78,
      "hit": false,
      "t": 8666.671,
      "d": 666.6669999999995,
      "v": 64
    },
    {
      "midi": 59,
      "hit": false,
      "t": 8666.671000000002,
      "d": 1333.3340000000007,
      "v": 57
    },
    {
      "midi": 62,
      "hit": false,
      "t": 8666.671000000002,
      "d": 1333.3340000000007,
      "v": 57
    },
    {
      "midi": 66,
      "hit": false,
      "t": 8666.671000000002,
      "d": 1333.3340000000007,
      "v": 57
    },
    {
      "midi": 81,
      "hit": false,
      "t": 9333.338,
      "d": 666.6669999999995,
      "v": 66
    },
    {
      "midi": 79,
      "hit": false,
      "t": 10000.005,
      "d": 666.6669999999995,
      "v": 72
    },
    {
      "midi": 38,
      "hit": false,
      "t": 10000.005000000001,
      "d": 2000.0010000000002,
      "v": 61
    },
    {
      "midi": 78,
      "hit": false,
      "t": 10666.671999999999,
      "d": 666.6669999999995,
      "v": 74
    },
    {
      "midi": 57,
      "hit": false,
      "t": 10666.672000000002,
      "d": 1333.3340000000007,
      "v": 60
    },
    {
      "midi": 61,
      "hit": false,
      "t": 10666.672000000002,
      "d": 1333.3340000000007,
      "v": 60
    },
    {
      "midi": 66,
      "hit": false,
      "t": 10666.672000000002,
      "d": 1333.3340000000007,
      "v": 60
    },
    {
      "midi": 73,
      "hit": false,
      "t": 11333.338999999998,
      "d": 666.6669999999995,
      "v": 71
    },
    {
      "midi": 71,
      "hit": false,
      "t": 12000.005999999998,
      "d": 666.6669999999995,
      "v": 77
    },
    {
      "midi": 43,
      "hit": false,
      "t": 12000.006000000001,
      "d": 2000.0010000000002,
      "v": 61
    },
    {
      "midi": 73,
      "hit": false,
      "t": 12666.672999999997,
      "d": 666.6669999999995,
      "v": 74
    },
    {
      "midi": 59,
      "hit": false,
      "t": 12666.673000000003,
      "d": 1333.3340000000007,
      "v": 60
    },
    {
      "midi": 62,
      "hit": false,
      "t": 12666.673000000003,
      "d": 1333.3340000000007,
      "v": 60
    },
    {
      "midi": 66,
      "hit": false,
      "t": 12666.673000000003,
      "d": 1333.3340000000007,
      "v": 60
    },
    {
      "midi": 74,
      "hit": false,
      "t": 13333.339999999997,
      "d": 666.6669999999995,
      "v": 75
    },
    {
      "midi": 69,
      "hit": false,
      "t": 14000.006999999996,
      "d": 2000.0010000000002,
      "v": 70
    },
    {
      "midi": 38,
      "hit": false,
      "t": 14000.007000000001,
      "d": 2000.0010000000002,
      "v": 61
    },
    {
      "midi": 57,
      "hit": false,
      "t": 14666.674000000003,
      "d": 1333.3340000000007,
      "v": 60
    },
    {
      "midi": 61,
      "hit": false,
      "t": 14666.674000000003,
      "d": 1333.3340000000007,
      "v": 60
    },
    {
      "midi": 66,
      "hit": false,
      "t": 14666.674000000003,
      "d": 1333.3340000000007,
      "v": 60
    },
    {
      "midi": 66,
      "hit": false,
      "t": 16000.007999999996,
      "d": 8000.003999999999,
      "v": 75
    },
    {
      "midi": 43,
      "hit": false,
      "t": 16000.008000000002,
      "d": 2000.0010000000002,
      "v": 61
    },
    {
      "midi": 59,
      "hit": false,
      "t": 16666.675000000003,
      "d": 1333.333999999999,
      "v": 60
    },
    {
      "midi": 62,
      "hit": false,
      "t": 16666.675000000003,
      "d": 1333.333999999999,
      "v": 60
    },
    {
      "midi": 66,
      "hit": false,
      "t": 16666.675000000003,
      "d": 1333.333999999999,
      "v": 60
    },
    {
      "midi": 38,
      "hit": false,
      "t": 18000.009000000002,
      "d": 2000.0010000000002,
      "v": 61
    },
    {
      "midi": 57,
      "hit": false,
      "t": 18666.676000000003,
      "d": 1333.333999999999,
      "v": 57
    },
    {
      "midi": 61,
      "hit": false,
      "t": 18666.676000000003,
      "d": 1333.333999999999,
      "v": 57
    },
    {
      "midi": 66,
      "hit": false,
      "t": 18666.676000000003,
      "d": 1333.333999999999,
      "v": 57
    },
    {
      "midi": 43,
      "hit": false,
      "t": 20000.010000000002,
      "d": 2000.0010000000002,
      "v": 55
    },
    {
      "midi": 59,
      "hit": false,
      "t": 20666.677000000003,
      "d": 1333.333999999999,
      "v": 51
    },
    {
      "midi": 62,
      "hit": false,
      "t": 20666.677000000003,
      "d": 1333.333999999999,
      "v": 51
    },
    {
      "midi": 66,
      "hit": false,
      "t": 20666.677000000003,
      "d": 1333.333999999999,
      "v": 51
    },
    {
      "midi": 38,
      "hit": false,
      "t": 22000.011000000002,
      "d": 2000.0010000000002,
      "v": 55
    },
    {
      "midi": 57,
      "hit": false,
      "t": 22666.678000000004,
      "d": 1280.5561958333346,
      "v": 51
    },
    {
      "midi": 61,
      "hit": false,
      "t": 22666.678000000004,
      "d": 1280.5561958333346,
      "v": 51
    },
    {
      "midi": 66,
      "hit": false,
      "t": 22666.678000000004,
      "d": 1280.5561958333346,
      "v": 51
    },
    {
      "midi": 43,
      "hit": false,
      "t": 24000.012000000002,
      "d": 2000.0010000000002,
      "v": 61
    },
    {
      "midi": 78,
      "hit": false,
      "t": 24666.678999999996,
      "d": 666.6670000000013,
      "v": 64
    },
    {
      "midi": 59,
      "hit": false,
      "t": 24666.679000000004,
      "d": 1333.333999999999,
      "v": 57
    },
    {
      "midi": 62,
      "hit": false,
      "t": 24666.679000000004,
      "d": 1333.333999999999,
      "v": 57
    },
    {
      "midi": 66,
      "hit": false,
      "t": 24666.679000000004,
      "d": 1333.333999999999,
      "v": 57
    },
    {
      "midi": 81,
      "hit": false,
      "t": 25333.345999999998,
      "d": 666.6670000000013,
      "v": 66
    },
    {
      "midi": 79,
      "hit": false,
      "t": 26000.013,
      "d": 666.6670000000013,
      "v": 72
    },
    {
      "midi": 38,
      "hit": false,
      "t": 26000.013000000003,
      "d": 2000.0010000000002,
      "v": 61
    },
    {
      "midi": 78,
      "hit": false,
      "t": 26666.68,
      "d": 666.6670000000013,
      "v": 69
    },
    {
      "midi": 57,
      "hit": false,
      "t": 26666.680000000004,
      "d": 1333.333999999999,
      "v": 59
    },
    {
      "midi": 61,
      "hit": false,
      "t": 26666.680000000004,
      "d": 1333.333999999999,
      "v": 59
    },
    {
      "midi": 66,
      "hit": false,
      "t": 26666.680000000004,
      "d": 1333.333999999999,
      "v": 59
    },
    {
      "midi": 73,
      "hit": false,
      "t": 27333.347,
      "d": 666.6670000000013,
      "v": 70
    },
    {
      "midi": 71,
      "hit": false,
      "t": 28000.014000000003,
      "d": 666.6670000000013,
      "v": 77
    },
    {
      "midi": 43,
      "hit": false,
      "t": 28000.014000000003,
      "d": 2000.0010000000002,
      "v": 61
    },
    {
      "midi": 73,
      "hit": false,
      "t": 28666.681000000004,
      "d": 666.6670000000013,
      "v": 73
    },
    {
      "midi": 59,
      "hit": false,
      "t": 28666.681000000004,
      "d": 1333.333999999999,
      "v": 60
    },
    {
      "midi": 62,
      "hit": false,
      "t": 28666.681000000004,
      "d": 1333.333999999999,
      "v": 60
    },
    {
      "midi": 66,
      "hit": false,
      "t": 28666.681000000004,
      "d": 1333.333999999999,
      "v": 60
    },
    {
      "midi": 74,
      "hit": false,
      "t": 29333.348000000005,
      "d": 666.6670000000013,
      "v": 75
    },
    {
      "midi": 38,
      "hit": false,
      "t": 30000.015000000003,
      "d": 2000.0010000000002,
      "v": 61
    },
    {
      "midi": 69,
      "hit": false,
      "t": 30000.015000000007,
      "d": 2000.0010000000002,
      "v": 76
    },
    {
      "midi": 57,
      "hit": false,
      "t": 30666.682000000004,
      "d": 1333.333999999999,
      "v": 60
    },
    {
      "midi": 61,
      "hit": false,
      "t": 30666.682000000004,
      "d": 1333.333999999999,
      "v": 60
    },
    {
      "midi": 66,
      "hit": false,
      "t": 30666.682000000004,
      "d": 1333.333999999999,
      "v": 60
    },
    {
      "midi": 42,
      "hit": false,
      "t": 32000.016000000003,
      "d": 2000.0010000000038,
      "v": 61
    },
    {
      "midi": 73,
      "hit": false,
      "t": 32000.016000000007,
      "d": 2000.0010000000002,
      "v": 74
    },
    {
      "midi": 57,
      "hit": false,
      "t": 32666.683000000005,
      "d": 1333.3340000000026,
      "v": 60
    },
    {
      "midi": 61,
      "hit": false,
      "t": 32666.683000000005,
      "d": 1333.3340000000026,
      "v": 60
    },
    {
      "midi": 66,
      "hit": false,
      "t": 32666.683000000005,
      "d": 1333.3340000000026,
      "v": 60
    },
    {
      "midi": 78,
      "hit": false,
      "t": 34000.01700000001,
      "d": 2000.0010000000038,
      "v": 72
    },
    {
      "midi": 35,
      "hit": false,
      "t": 34000.01700000001,
      "d": 2000.0010000000038,
      "v": 61
    },
    {
      "midi": 59,
      "hit": false,
      "t": 34666.68400000001,
      "d": 1333.3340000000026,
      "v": 60
    },
    {
      "midi": 62,
      "hit": false,
      "t": 34666.68400000001,
      "d": 1333.3340000000026,
      "v": 60
    },
    {
      "midi": 66,
      "hit": false,
      "t": 34666.68400000001,
      "d": 1333.3340000000026,
      "v": 60
    },
    {
      "midi": 64,
      "hit": false,
      "t": 36000.01800000001,
      "d": 6000.002999999997,
      "v": 70
    },
    {
      "midi": 40,
      "hit": false,
      "t": 36000.01800000001,
      "d": 2000.0010000000038,
      "v": 61
    },
    {
      "midi": 55,
      "hit": false,
      "t": 36666.68500000001,
      "d": 1333.3340000000026,
      "v": 56
    },
    {
      "midi": 59,
      "hit": false,
      "t": 36666.68500000001,
      "d": 1333.3340000000026,
      "v": 56
    },
    {
      "midi": 40,
      "hit": false,
      "t": 38000.019000000015,
      "d": 2000.0010000000038,
      "v": 59
    },
    {
      "midi": 59,
      "hit": false,
      "t": 38666.686000000016,
      "d": 1333.3340000000026,
      "v": 56
    },
    {
      "midi": 62,
      "hit": false,
      "t": 38666.686000000016,
      "d": 1333.3340000000026,
      "v": 56
    },
    {
      "midi": 67,
      "hit": false,
      "t": 38666.686000000016,
      "d": 1333.3340000000026,
      "v": 56
    },
    {
      "midi": 38,
      "hit": false,
      "t": 40000.02000000002,
      "d": 2000.0010000000038,
      "v": 59
    },
    {
      "midi": 54,
      "hit": false,
      "t": 40666.68700000002,
      "d": 1305.5562083333352,
      "v": 55
    },
    {
      "midi": 57,
      "hit": false,
      "t": 40666.68700000002,
      "d": 1305.5562083333352,
      "v": 55
    },
    {
      "midi": 62,
      "hit": false,
      "t": 40666.68700000002,
      "d": 1305.5562083333352,
      "v": 55
    },
    {
      "midi": 69,
      "hit": false,
      "t": 42000.02100000001,
      "d": 666.6670000000013,
      "v": 70
    },
    {
      "midi": 33,
      "hit": false,
      "t": 42000.02100000002,
      "d": 2000.0010000000038,
      "v": 61
    },
    {
      "midi": 71,
      "hit": false,
      "t": 42666.68800000001,
      "d": 666.6670000000013,
      "v": 66
    },
    {
      "midi": 57,
      "hit": false,
      "t": 42666.688000000024,
      "d": 1333.3340000000026,
      "v": 57
    },
    {
      "midi": 60,
      "hit": false,
      "t": 42666.688000000024,
      "d": 1333.3340000000026,
      "v": 57
    },
    {
      "midi": 64,
      "hit": false,
      "t": 42666.688000000024,
      "d": 1333.3340000000026,
      "v": 57
    },
    {
      "midi": 72,
      "hit": false,
      "t": 43333.35500000001,
      "d": 666.6670000000013,
      "v": 67
    },
    {
      "midi": 76,
      "hit": false,
      "t": 44000.02200000001,
      "d": 666.6670000000013,
      "v": 73
    },
    {
      "midi": 38,
      "hit": false,
      "t": 44000.022000000026,
      "d": 2000.0010000000038,
      "v": 61
    },
    {
      "midi": 74,
      "hit": false,
      "t": 44666.68900000001,
      "d": 666.6670000000013,
      "v": 69
    },
    {
      "midi": 55,
      "hit": false,
      "t": 44666.68900000003,
      "d": 1333.3340000000026,
      "v": 60
    },
    {
      "midi": 59,
      "hit": false,
      "t": 44666.68900000003,
      "d": 1333.3340000000026,
      "v": 60
    },
    {
      "midi": 64,
      "hit": false,
      "t": 44666.68900000003,
      "d": 1333.3340000000026,
      "v": 60
    },
    {
      "midi": 71,
      "hit": false,
      "t": 45333.356000000014,
      "d": 666.6670000000013,
      "v": 71
    },
    {
      "midi": 74,
      "hit": false,
      "t": 46000.023000000016,
      "d": 666.6670000000013,
      "v": 77
    },
    {
      "midi": 38,
      "hit": false,
      "t": 46000.02300000003,
      "d": 2000.0010000000038,
      "v": 61
    },
    {
      "midi": 72,
      "hit": false,
      "t": 46666.69000000002,
      "d": 666.6670000000013,
      "v": 73
    },
    {
      "midi": 50,
      "hit": false,
      "t": 46666.69000000003,
      "d": 1333.3340000000026,
      "v": 60
    },
    {
      "midi": 55,
      "hit": false,
      "t": 46666.69000000003,
      "d": 1333.3340000000026,
      "v": 60
    },
    {
      "midi": 59,
      "hit": false,
      "t": 46666.69000000003,
      "d": 1333.3340000000026,
      "v": 60
    },
    {
      "midi": 64,
      "hit": false,
      "t": 46666.69000000003,
      "d": 1333.3340000000026,
      "v": 60
    },
    {
      "midi": 71,
      "hit": false,
      "t": 47333.35700000002,
      "d": 666.6670000000013,
      "v": 74
    },
    {
      "midi": 74,
      "hit": false,
      "t": 48000.02400000002,
      "d": 3186.1127041666696,
      "v": 75
    },
    {
      "midi": 38,
      "hit": false,
      "t": 48000.024000000034,
      "d": 2000.0010000000038,
      "v": 61
    },
    {
      "midi": 48,
      "hit": false,
      "t": 48666.691000000035,
      "d": 1333.3340000000026,
      "v": 60
    },
    {
      "midi": 52,
      "hit": false,
      "t": 48666.691000000035,
      "d": 1333.3340000000026,
      "v": 60
    },
    {
      "midi": 57,
      "hit": false,
      "t": 48666.691000000035,
      "d": 1333.3340000000026,
      "v": 60
    },
    {
      "midi": 62,
      "hit": false,
      "t": 48666.691000000035,
      "d": 1333.3340000000026,
      "v": 60
    },
    {
      "midi": 38,
      "hit": false,
      "t": 50000.02500000004,
      "d": 2000.0010000000038,
      "v": 61
    },
    {
      "midi": 48,
      "hit": false,
      "t": 50666.69200000004,
      "d": 1333.3340000000026,
      "v": 57
    },
    {
      "midi": 54,
      "hit": false,
      "t": 50666.69200000004,
      "d": 1333.3340000000026,
      "v": 57
    },
    {
      "midi": 57,
      "hit": false,
      "t": 50666.69200000004,
      "d": 1333.3340000000026,
      "v": 57
    },
    {
      "midi": 62,
      "hit": false,
      "t": 50666.69200000004,
      "d": 1333.3340000000026,
      "v": 57
    },
    {
      "midi": 74,
      "hit": false,
      "t": 51333.359000000026,
      "d": 666.6670000000013,
      "v": 65
    },
    {
      "midi": 76,
      "hit": false,
      "t": 52000.02600000003,
      "d": 666.6670000000013,
      "v": 72
    },
    {
      "midi": 38,
      "hit": false,
      "t": 52000.02600000004,
      "d": 2000.0010000000038,
      "v": 61
    },
    {
      "midi": 77,
      "hit": false,
      "t": 52666.69300000003,
      "d": 666.6670000000013,
      "v": 69
    },
    {
      "midi": 57,
      "hit": false,
      "t": 52666.69300000004,
      "d": 1333.3340000000026,
      "v": 60
    },
    {
      "midi": 60,
      "hit": false,
      "t": 52666.69300000004,
      "d": 1333.3340000000026,
      "v": 60
    },
    {
      "midi": 65,
      "hit": false,
      "t": 52666.69300000004,
      "d": 1333.3340000000026,
      "v": 60
    },
    {
      "midi": 79,
      "hit": false,
      "t": 53333.36000000003,
      "d": 666.6670000000013,
      "v": 70
    },
    {
      "midi": 81,
      "hit": false,
      "t": 54000.02700000003,
      "d": 666.6670000000013,
      "v": 77
    },
    {
      "midi": 38,
      "hit": false,
      "t": 54000.027000000046,
      "d": 2000.0010000000038,
      "v": 61
    },
    {
      "midi": 72,
      "hit": false,
      "t": 54666.69400000003,
      "d": 666.6670000000013,
      "v": 73
    },
    {
      "midi": 57,
      "hit": false,
      "t": 54666.69400000005,
      "d": 1333.3340000000026,
      "v": 60
    },
    {
      "midi": 60,
      "hit": false,
      "t": 54666.69400000005,
      "d": 1333.3340000000026,
      "v": 60
    },
    {
      "midi": 64,
      "hit": false,
      "t": 54666.69400000005,
      "d": 1333.3340000000026,
      "v": 60
    },
    {
      "midi": 74,
      "hit": false,
      "t": 55333.36100000003,
      "d": 666.6670000000013,
      "v": 75
    },
    {
      "midi": 76,
      "hit": false,
      "t": 56000.028000000035,
      "d": 666.6670000000013,
      "v": 80
    },
    {
      "midi": 38,
      "hit": false,
      "t": 56000.02800000005,
      "d": 2000.0010000000038,
      "v": 61
    },
    {
      "midi": 74,
      "hit": false,
      "t": 56666.695000000036,
      "d": 666.6670000000013,
      "v": 74
    },
    {
      "midi": 50,
      "hit": false,
      "t": 56666.69500000005,
      "d": 1333.3340000000026,
      "v": 59
    },
    {
      "midi": 55,
      "hit": false,
      "t": 56666.69500000005,
      "d": 1333.3340000000026,
      "v": 59
    },
    {
      "midi": 59,
      "hit": false,
      "t": 56666.69500000005,
      "d": 1333.3340000000026,
      "v": 59
    },
    {
      "midi": 64,
      "hit": false,
      "t": 56666.69500000005,
      "d": 1333.3340000000026,
      "v": 59
    },
    {
      "midi": 71,
      "hit": false,
      "t": 57333.36200000004,
      "d": 666.6670000000013,
      "v": 72
    },
    {
      "midi": 74,
      "hit": false,
      "t": 58000.02900000004,
      "d": 3200.0016000000032,
      "v": 71
    },
    {
      "midi": 38,
      "hit": false,
      "t": 58000.02900000005,
      "d": 2000.0010000000038,
      "v": 61
    },
    {
      "midi": 48,
      "hit": false,
      "t": 58666.696000000054,
      "d": 1333.3340000000026,
      "v": 59
    },
    {
      "midi": 52,
      "hit": false,
      "t": 58666.696000000054,
      "d": 1333.3340000000026,
      "v": 59
    },
    {
      "midi": 57,
      "hit": false,
      "t": 58666.696000000054,
      "d": 1333.3340000000026,
      "v": 59
    },
    {
      "midi": 62,
      "hit": false,
      "t": 58666.696000000054,
      "d": 1333.3340000000026,
      "v": 59
    },
    {
      "midi": 38,
      "hit": false,
      "t": 60000.03000000006,
      "d": 2000.0010000000038,
      "v": 61
    },
    {
      "midi": 48,
      "hit": false,
      "t": 60666.69700000006,
      "d": 1333.3340000000026,
      "v": 56
    },
    {
      "midi": 54,
      "hit": false,
      "t": 60666.69700000006,
      "d": 1333.3340000000026,
      "v": 56
    },
    {
      "midi": 57,
      "hit": false,
      "t": 60666.69700000006,
      "d": 1333.3340000000026,
      "v": 56
    },
    {
      "midi": 62,
      "hit": false,
      "t": 60666.69700000006,
      "d": 1333.3340000000026,
      "v": 56
    },
    {
      "midi": 74,
      "hit": false,
      "t": 61333.364000000045,
      "d": 666.6670000000013,
      "v": 65
    },
    {
      "midi": 79,
      "hit": false,
      "t": 62000.031000000046,
      "d": 2000.0010000000038,
      "v": 67
    },
    {
      "midi": 40,
      "hit": false,
      "t": 62000.03100000006,
      "d": 2000.0010000000038,
      "v": 61
    },
    {
      "midi": 59,
      "hit": false,
      "t": 62666.69800000006,
      "d": 1333.3340000000026,
      "v": 57
    },
    {
      "midi": 64,
      "hit": false,
      "t": 62666.69800000006,
      "d": 1333.3340000000026,
      "v": 57
    },
    {
      "midi": 67,
      "hit": false,
      "t": 62666.69800000006,
      "d": 1333.3340000000026,
      "v": 57
    },
    {
      "midi": 78,
      "hit": false,
      "t": 64000.03200000005,
      "d": 2000.0010000000038,
      "v": 72
    },
    {
      "midi": 42,
      "hit": false,
      "t": 64000.032000000065,
      "d": 2000.0010000000038,
      "v": 61
    },
    {
      "midi": 57,
      "hit": false,
      "t": 64666.699000000066,
      "d": 1333.3340000000026,
      "v": 59
    },
    {
      "midi": 61,
      "hit": false,
      "t": 64666.699000000066,
      "d": 1333.3340000000026,
      "v": 59
    },
    {
      "midi": 66,
      "hit": false,
      "t": 64666.699000000066,
      "d": 1333.3340000000026,
      "v": 59
    },
    {
      "midi": 71,
      "hit": false,
      "t": 66000.03300000005,
      "d": 666.6670000000013,
      "v": 80
    },
    {
      "midi": 35,
      "hit": false,
      "t": 66000.03300000007,
      "d": 2000.0010000000038,
      "v": 61
    },
    {
      "midi": 69,
      "hit": false,
      "t": 66666.70000000006,
      "d": 666.6670000000013,
      "v": 76
    },
    {
      "midi": 59,
      "hit": false,
      "t": 66666.70000000007,
      "d": 1333.3340000000026,
      "v": 59
    },
    {
      "midi": 62,
      "hit": false,
      "t": 66666.70000000007,
      "d": 1333.3340000000026,
      "v": 59
    },
    {
      "midi": 66,
      "hit": false,
      "t": 66666.70000000007,
      "d": 1333.3340000000026,
      "v": 59
    },
    {
      "midi": 71,
      "hit": false,
      "t": 67333.36700000006,
      "d": 666.6670000000013,
      "v": 76
    },
    {
      "midi": 73,
      "hit": false,
      "t": 68000.03400000006,
      "d": 666.6670000000013,
      "v": 80
    },
    {
      "midi": 40,
      "hit": false,
      "t": 68000.03400000007,
      "d": 2000.0010000000038,
      "v": 61
    },
    {
      "midi": 74,
      "hit": false,
      "t": 68666.70100000006,
      "d": 666.6670000000013,
      "v": 76
    },
    {
      "midi": 61,
      "hit": false,
      "t": 68666.70100000007,
      "d": 1333.3340000000026,
      "v": 61
    },
    {
      "midi": 64,
      "hit": false,
      "t": 68666.70100000007,
      "d": 1333.3340000000026,
      "v": 61
    },
    {
      "midi": 69,
      "hit": false,
      "t": 68666.70100000007,
      "d": 1333.3340000000026,
      "v": 61
    },
    {
      "midi": 76,
      "hit": false,
      "t": 69333.36800000006,
      "d": 633.3336500000005,
      "v": 76
    },
    {
      "midi": 73,
      "hit": false,
      "t": 70000.03500000006,
      "d": 666.6670000000013,
      "v": 80
    },
    {
      "midi": 40,
      "hit": false,
      "t": 70000.03500000008,
      "d": 2000.0010000000038,
      "v": 61
    },
    {
      "midi": 74,
      "hit": false,
      "t": 70666.70200000006,
      "d": 666.6670000000013,
      "v": 76
    },
    {
      "midi": 57,
      "hit": false,
      "t": 70666.70200000008,
      "d": 1333.3340000000026,
      "v": 59
    },
    {
      "midi": 61,
      "hit": false,
      "t": 70666.70200000008,
      "d": 1333.3340000000026,
      "v": 59
    },
    {
      "midi": 66,
      "hit": false,
      "t": 70666.70200000008,
      "d": 1333.3340000000026,
      "v": 59
    },
    {
      "midi": 69,
      "hit": false,
      "t": 70666.70200000008,
      "d": 1333.3340000000026,
      "v": 59
    },
    {
      "midi": 76,
      "hit": false,
      "t": 71333.36900000006,
      "d": 666.6670000000013,
      "v": 76
    },
    {
      "midi": 66,
      "hit": false,
      "t": 72000.03600000007,
      "d": 2000.0010000000038,
      "v": 75
    },
    {
      "midi": 40,
      "hit": false,
      "t": 72000.03600000008,
      "d": 2000.0010000000038,
      "v": 61
    },
    {
      "midi": 47,
      "hit": false,
      "t": 72666.70300000008,
      "d": 661.1114416666678,
      "v": 59
    },
    {
      "midi": 57,
      "hit": false,
      "t": 72666.70300000008,
      "d": 661.1114416666678,
      "v": 59
    },
    {
      "midi": 62,
      "hit": false,
      "t": 72666.70300000008,
      "d": 661.1114416666678,
      "v": 59
    },
    {
      "midi": 52,
      "hit": false,
      "t": 73333.37000000008,
      "d": 661.1114416666678,
      "v": 59
    },
    {
      "midi": 59,
      "hit": false,
      "t": 73333.37000000008,
      "d": 661.1114416666678,
      "v": 59
    },
    {
      "midi": 62,
      "hit": false,
      "t": 73333.37000000008,
      "d": 661.1114416666678,
      "v": 59
    },
    {
      "midi": 67,
      "hit": false,
      "t": 73333.37000000008,
      "d": 661.1114416666678,
      "v": 59
    },
    {
      "midi": 72,
      "hit": false,
      "t": 74000.03700000007,
      "d": 2000.0010000000038,
      "v": 66
    },
    {
      "midi": 60,
      "hit": false,
      "t": 74000.03700000008,
      "d": 1961.1120916666696,
      "v": 57
    },
    {
      "midi": 64,
      "hit": false,
      "t": 74000.03700000008,
      "d": 1961.1120916666696,
      "v": 57
    },
    {
      "midi": 69,
      "hit": false,
      "t": 74000.03700000008,
      "d": 1961.1120916666696,
      "v": 57
    },
    {
      "midi": 55,
      "hit": false,
      "t": 74000.03700000008,
      "d": 1961.1120916666696,
      "v": 61
    },
    {
      "midi": 45,
      "hit": false,
      "t": 74000.03700000008,
      "d": 2000.0010000000038,
      "v": 61
    },
    {
      "midi": 74,
      "hit": false,
      "t": 76000.03800000007,
      "d": 2000.0010000000038,
      "v": 60
    },
    {
      "midi": 62,
      "hit": false,
      "t": 76000.03800000009,
      "d": 1919.4454041666613,
      "v": 54
    },
    {
      "midi": 66,
      "hit": false,
      "t": 76000.03800000009,
      "d": 1919.4454041666613,
      "v": 54
    },
    {
      "midi": 69,
      "hit": false,
      "t": 76000.03800000009,
      "d": 1919.4454041666613,
      "v": 54
    },
    {
      "midi": 50,
      "hit": false,
      "t": 76000.03800000009,
      "d": 1919.4454041666613,
      "v": 58
    },
    {
      "midi": 45,
      "hit": false,
      "t": 76000.03800000009,
      "d": 2000.0009999999893,
      "v": 58
    },
    {
      "midi": 43,
      "hit": false,
      "t": 78000.03900000008,
      "d": 2000.0010000000038,
      "v": 58
    },
    {
      "midi": 59,
      "hit": false,
      "t": 78666.70600000008,
      "d": 1266.667300000001,
      "v": 54
    },
    {
      "midi": 62,
      "hit": false,
      "t": 78666.70600000008,
      "d": 1266.667300000001,
      "v": 54
    },
    {
      "midi": 66,
      "hit": false,
      "t": 78666.70600000008,
      "d": 1266.667300000001,
      "v": 54
    },
    {
      "midi": 38,
      "hit": false,
      "t": 80000.04000000008,
      "d": 2000.0010000000038,
      "v": 58
    },
    {
      "midi": 57,
      "hit": false,
      "t": 80666.70700000008,
      "d": 1280.5561958333274,
      "v": 54
    },
    {
      "midi": 61,
      "hit": false,
      "t": 80666.70700000008,
      "d": 1280.5561958333274,
      "v": 54
    },
    {
      "midi": 66,
      "hit": false,
      "t": 80666.70700000008,
      "d": 1280.5561958333274,
      "v": 54
    },
    {
      "midi": 43,
      "hit": false,
      "t": 82000.04100000008,
      "d": 2000.0010000000038,
      "v": 58
    },
    {
      "midi": 59,
      "hit": false,
      "t": 82666.70800000007,
      "d": 1305.5562083333352,
      "v": 54
    },
    {
      "midi": 62,
      "hit": false,
      "t": 82666.70800000007,
      "d": 1305.5562083333352,
      "v": 54
    },
    {
      "midi": 66,
      "hit": false,
      "t": 82666.70800000007,
      "d": 1305.5562083333352,
      "v": 54
    },
    {
      "midi": 38,
      "hit": false,
      "t": 84000.04200000009,
      "d": 2000.0010000000038,
      "v": 60
    },
    {
      "midi": 57,
      "hit": false,
      "t": 84666.70900000008,
      "d": 1333.3340000000026,
      "v": 56
    },
    {
      "midi": 61,
      "hit": false,
      "t": 84666.70900000008,
      "d": 1333.3340000000026,
      "v": 56
    },
    {
      "midi": 66,
      "hit": false,
      "t": 84666.70900000008,
      "d": 1333.3340000000026,
      "v": 56
    },
    {
      "midi": 43,
      "hit": false,
      "t": 86000.04300000009,
      "d": 2000.0010000000038,
      "v": 61
    },
    {
      "midi": 78,
      "hit": false,
      "t": 86666.71000000008,
      "d": 666.6670000000013,
      "v": 63
    },
    {
      "midi": 59,
      "hit": false,
      "t": 86666.71000000008,
      "d": 1333.3340000000026,
      "v": 57
    },
    {
      "midi": 62,
      "hit": false,
      "t": 86666.71000000008,
      "d": 1333.3340000000026,
      "v": 57
    },
    {
      "midi": 66,
      "hit": false,
      "t": 86666.71000000008,
      "d": 1333.3340000000026,
      "v": 57
    },
    {
      "midi": 81,
      "hit": false,
      "t": 87333.37700000008,
      "d": 666.6670000000013,
      "v": 68
    },
    {
      "midi": 79,
      "hit": false,
      "t": 88000.04400000008,
      "d": 666.6670000000013,
      "v": 70
    },
    {
      "midi": 38,
      "hit": false,
      "t": 88000.0440000001,
      "d": 2000.0010000000038,
      "v": 61
    },
    {
      "midi": 78,
      "hit": false,
      "t": 88666.71100000008,
      "d": 666.6670000000013,
      "v": 72
    },
    {
      "midi": 57,
      "hit": false,
      "t": 88666.71100000008,
      "d": 1333.3340000000026,
      "v": 60
    },
    {
      "midi": 61,
      "hit": false,
      "t": 88666.71100000008,
      "d": 1333.3340000000026,
      "v": 60
    },
    {
      "midi": 66,
      "hit": false,
      "t": 88666.71100000008,
      "d": 1333.3340000000026,
      "v": 60
    },
    {
      "midi": 73,
      "hit": false,
      "t": 89333.37800000008,
      "d": 666.6670000000013,
      "v": 71
    },
    {
      "midi": 71,
      "hit": false,
      "t": 90000.04500000009,
      "d": 666.6670000000013,
      "v": 77
    },
    {
      "midi": 43,
      "hit": false,
      "t": 90000.0450000001,
      "d": 2000.0010000000038,
      "v": 61
    },
    {
      "midi": 73,
      "hit": false,
      "t": 90666.71200000009,
      "d": 666.6670000000013,
      "v": 75
    },
    {
      "midi": 59,
      "hit": false,
      "t": 90666.71200000009,
      "d": 1333.3340000000026,
      "v": 60
    },
    {
      "midi": 62,
      "hit": false,
      "t": 90666.71200000009,
      "d": 1333.3340000000026,
      "v": 60
    },
    {
      "midi": 66,
      "hit": false,
      "t": 90666.71200000009,
      "d": 1333.3340000000026,
      "v": 60
    },
    {
      "midi": 74,
      "hit": false,
      "t": 91333.37900000009,
      "d": 666.6670000000013,
      "v": 75
    },
    {
      "midi": 69,
      "hit": false,
      "t": 92000.04600000009,
      "d": 2000.0010000000038,
      "v": 73
    },
    {
      "midi": 38,
      "hit": false,
      "t": 92000.0460000001,
      "d": 2000.0010000000038,
      "v": 61
    },
    {
      "midi": 57,
      "hit": false,
      "t": 92666.71300000009,
      "d": 1333.3340000000026,
      "v": 57
    },
    {
      "midi": 61,
      "hit": false,
      "t": 92666.71300000009,
      "d": 1333.3340000000026,
      "v": 57
    },
    {
      "midi": 66,
      "hit": false,
      "t": 92666.71300000009,
      "d": 1333.3340000000026,
      "v": 57
    },
    {
      "midi": 66,
      "hit": false,
      "t": 94000.0470000001,
      "d": 7800.003899999996,
      "v": 69
    },
    {
      "midi": 43,
      "hit": false,
      "t": 94000.04700000011,
      "d": 2000.0010000000038,
      "v": 61
    },
    {
      "midi": 59,
      "hit": false,
      "t": 94666.7140000001,
      "d": 1333.3340000000026,
      "v": 55
    },
    {
      "midi": 62,
      "hit": false,
      "t": 94666.7140000001,
      "d": 1333.3340000000026,
      "v": 55
    },
    {
      "midi": 66,
      "hit": false,
      "t": 94666.7140000001,
      "d": 1333.3340000000026,
      "v": 55
    },
    {
      "midi": 38,
      "hit": false,
      "t": 96000.04800000011,
      "d": 2000.0010000000038,
      "v": 61
    },
    {
      "midi": 57,
      "hit": false,
      "t": 96666.7150000001,
      "d": 1333.3340000000026,
      "v": 54
    },
    {
      "midi": 61,
      "hit": false,
      "t": 96666.7150000001,
      "d": 1333.3340000000026,
      "v": 54
    },
    {
      "midi": 66,
      "hit": false,
      "t": 96666.7150000001,
      "d": 1333.3340000000026,
      "v": 54
    },
    {
      "midi": 43,
      "hit": false,
      "t": 98000.04900000012,
      "d": 2000.0010000000038,
      "v": 55
    },
    {
      "midi": 59,
      "hit": false,
      "t": 98666.7160000001,
      "d": 1333.3340000000026,
      "v": 51
    },
    {
      "midi": 62,
      "hit": false,
      "t": 98666.7160000001,
      "d": 1333.3340000000026,
      "v": 51
    },
    {
      "midi": 66,
      "hit": false,
      "t": 98666.7160000001,
      "d": 1333.3340000000026,
      "v": 51
    },
    {
      "midi": 38,
      "hit": false,
      "t": 100000.05000000012,
      "d": 2000.0010000000038,
      "v": 55
    },
    {
      "midi": 57,
      "hit": false,
      "t": 100666.7170000001,
      "d": 1305.5562083333352,
      "v": 52
    },
    {
      "midi": 61,
      "hit": false,
      "t": 100666.7170000001,
      "d": 1305.5562083333352,
      "v": 52
    },
    {
      "midi": 66,
      "hit": false,
      "t": 100666.7170000001,
      "d": 1305.5562083333352,
      "v": 52
    },
    {
      "midi": 43,
      "hit": false,
      "t": 102000.05100000012,
      "d": 2000.0010000000038,
      "v": 61
    },
    {
      "midi": 78,
      "hit": false,
      "t": 102666.7180000001,
      "d": 666.6670000000013,
      "v": 63
    },
    {
      "midi": 59,
      "hit": false,
      "t": 102666.71800000011,
      "d": 1333.3340000000026,
      "v": 57
    },
    {
      "midi": 62,
      "hit": false,
      "t": 102666.71800000011,
      "d": 1333.3340000000026,
      "v": 57
    },
    {
      "midi": 66,
      "hit": false,
      "t": 102666.71800000011,
      "d": 1333.3340000000026,
      "v": 57
    },
    {
      "midi": 81,
      "hit": false,
      "t": 103333.3850000001,
      "d": 666.6670000000013,
      "v": 68
    },
    {
      "midi": 79,
      "hit": false,
      "t": 104000.0520000001,
      "d": 666.6670000000013,
      "v": 66
    },
    {
      "midi": 38,
      "hit": false,
      "t": 104000.05200000013,
      "d": 2000.0010000000038,
      "v": 61
    },
    {
      "midi": 78,
      "hit": false,
      "t": 104666.7190000001,
      "d": 666.6670000000013,
      "v": 71
    },
    {
      "midi": 57,
      "hit": false,
      "t": 104666.71900000011,
      "d": 1333.3340000000026,
      "v": 60
    },
    {
      "midi": 61,
      "hit": false,
      "t": 104666.71900000011,
      "d": 1333.3340000000026,
      "v": 60
    },
    {
      "midi": 66,
      "hit": false,
      "t": 104666.71900000011,
      "d": 1333.3340000000026,
      "v": 60
    },
    {
      "midi": 73,
      "hit": false,
      "t": 105333.3860000001,
      "d": 666.6670000000013,
      "v": 69
    },
    {
      "midi": 71,
      "hit": false,
      "t": 106000.0530000001,
      "d": 666.6670000000013,
      "v": 74
    },
    {
      "midi": 43,
      "hit": false,
      "t": 106000.05300000013,
      "d": 2000.0010000000038,
      "v": 63
    },
    {
      "midi": 73,
      "hit": false,
      "t": 106666.7200000001,
      "d": 666.6670000000013,
      "v": 72
    },
    {
      "midi": 59,
      "hit": false,
      "t": 106666.72000000012,
      "d": 1333.3340000000026,
      "v": 60
    },
    {
      "midi": 62,
      "hit": false,
      "t": 106666.72000000012,
      "d": 1333.3340000000026,
      "v": 60
    },
    {
      "midi": 66,
      "hit": false,
      "t": 106666.72000000012,
      "d": 1333.3340000000026,
      "v": 60
    },
    {
      "midi": 74,
      "hit": false,
      "t": 107333.3870000001,
      "d": 666.6670000000013,
      "v": 73
    },
    {
      "midi": 69,
      "hit": false,
      "t": 108000.0540000001,
      "d": 2000.0010000000038,
      "v": 75
    },
    {
      "midi": 38,
      "hit": false,
      "t": 108000.05400000013,
      "d": 2000.0010000000038,
      "v": 63
    },
    {
      "midi": 57,
      "hit": false,
      "t": 108666.72100000012,
      "d": 1333.3340000000026,
      "v": 60
    },
    {
      "midi": 61,
      "hit": false,
      "t": 108666.72100000012,
      "d": 1333.3340000000026,
      "v": 60
    },
    {
      "midi": 66,
      "hit": false,
      "t": 108666.72100000012,
      "d": 1333.3340000000026,
      "v": 60
    },
    {
      "midi": 73,
      "hit": false,
      "t": 110000.05500000011,
      "d": 2000.0010000000038,
      "v": 75
    },
    {
      "midi": 42,
      "hit": false,
      "t": 110000.05500000014,
      "d": 2000.0010000000038,
      "v": 61
    },
    {
      "midi": 57,
      "hit": false,
      "t": 110666.72200000013,
      "d": 1333.3340000000026,
      "v": 57
    },
    {
      "midi": 61,
      "hit": false,
      "t": 110666.72200000013,
      "d": 1333.3340000000026,
      "v": 57
    },
    {
      "midi": 66,
      "hit": false,
      "t": 110666.72200000013,
      "d": 1333.3340000000026,
      "v": 57
    },
    {
      "midi": 78,
      "hit": false,
      "t": 112000.05600000011,
      "d": 2000.0010000000038,
      "v": 69
    },
    {
      "midi": 35,
      "hit": false,
      "t": 112000.05600000014,
      "d": 2000.0010000000038,
      "v": 61
    },
    {
      "midi": 59,
      "hit": false,
      "t": 112666.72300000013,
      "d": 1333.3340000000026,
      "v": 56
    },
    {
      "midi": 62,
      "hit": false,
      "t": 112666.72300000013,
      "d": 1333.3340000000026,
      "v": 56
    },
    {
      "midi": 66,
      "hit": false,
      "t": 112666.72300000013,
      "d": 1333.3340000000026,
      "v": 56
    },
    {
      "midi": 64,
      "hit": false,
      "t": 114000.05700000012,
      "d": 5838.891808333341,
      "v": 70
    },
    {
      "midi": 40,
      "hit": false,
      "t": 114000.05700000015,
      "d": 2000.0010000000038,
      "v": 60
    },
    {
      "midi": 55,
      "hit": false,
      "t": 114666.72400000013,
      "d": 1333.3340000000026,
      "v": 54
    },
    {
      "midi": 59,
      "hit": false,
      "t": 114666.72400000013,
      "d": 1333.3340000000026,
      "v": 54
    },
    {
      "midi": 40,
      "hit": false,
      "t": 116000.05800000015,
      "d": 2000.0010000000038,
      "v": 60
    },
    {
      "midi": 59,
      "hit": false,
      "t": 116666.72500000014,
      "d": 1333.3340000000026,
      "v": 54
    },
    {
      "midi": 62,
      "hit": false,
      "t": 116666.72500000014,
      "d": 1333.3340000000026,
      "v": 54
    },
    {
      "midi": 67,
      "hit": false,
      "t": 116666.72500000014,
      "d": 1333.3340000000026,
      "v": 54
    },
    {
      "midi": 38,
      "hit": false,
      "t": 118000.05900000015,
      "d": 2000.0010000000038,
      "v": 58
    },
    {
      "midi": 53,
      "hit": false,
      "t": 118666.72600000014,
      "d": 1305.5562083333352,
      "v": 54
    },
    {
      "midi": 57,
      "hit": false,
      "t": 118666.72600000014,
      "d": 1305.5562083333352,
      "v": 54
    },
    {
      "midi": 62,
      "hit": false,
      "t": 118666.72600000014,
      "d": 1305.5562083333352,
      "v": 54
    },
    {
      "midi": 69,
      "hit": false,
      "t": 120000.06000000013,
      "d": 666.6670000000013,
      "v": 64
    },
    {
      "midi": 33,
      "hit": false,
      "t": 120000.06000000016,
      "d": 2000.0010000000038,
      "v": 61
    },
    {
      "midi": 71,
      "hit": false,
      "t": 120666.72700000013,
      "d": 666.6670000000013,
      "v": 62
    },
    {
      "midi": 57,
      "hit": false,
      "t": 120666.72700000014,
      "d": 1333.3340000000026,
      "v": 57
    },
    {
      "midi": 60,
      "hit": false,
      "t": 120666.72700000014,
      "d": 1333.3340000000026,
      "v": 57
    },
    {
      "midi": 64,
      "hit": false,
      "t": 120666.72700000014,
      "d": 1333.3340000000026,
      "v": 57
    },
    {
      "midi": 72,
      "hit": false,
      "t": 121333.39400000013,
      "d": 666.6670000000013,
      "v": 64
    },
    {
      "midi": 76,
      "hit": false,
      "t": 122000.06100000013,
      "d": 666.6670000000013,
      "v": 70
    },
    {
      "midi": 38,
      "hit": false,
      "t": 122000.06100000016,
      "d": 2000.0010000000038,
      "v": 63
    },
    {
      "midi": 74,
      "hit": false,
      "t": 122666.72800000013,
      "d": 666.6670000000013,
      "v": 68
    },
    {
      "midi": 55,
      "hit": false,
      "t": 122666.72800000015,
      "d": 1333.3340000000026,
      "v": 60
    },
    {
      "midi": 59,
      "hit": false,
      "t": 122666.72800000015,
      "d": 1333.3340000000026,
      "v": 60
    },
    {
      "midi": 64,
      "hit": false,
      "t": 122666.72800000015,
      "d": 1333.3340000000026,
      "v": 60
    },
    {
      "midi": 71,
      "hit": false,
      "t": 123333.39500000014,
      "d": 666.6670000000013,
      "v": 69
    },
    {
      "midi": 74,
      "hit": false,
      "t": 124000.06200000014,
      "d": 666.6670000000013,
      "v": 75
    },
    {
      "midi": 38,
      "hit": false,
      "t": 124000.06200000017,
      "d": 2000.0010000000038,
      "v": 63
    },
    {
      "midi": 72,
      "hit": false,
      "t": 124666.72900000014,
      "d": 666.6670000000013,
      "v": 73
    },
    {
      "midi": 50,
      "hit": false,
      "t": 124666.72900000015,
      "d": 1333.3340000000026,
      "v": 60
    },
    {
      "midi": 55,
      "hit": false,
      "t": 124666.72900000015,
      "d": 1333.3340000000026,
      "v": 60
    },
    {
      "midi": 59,
      "hit": false,
      "t": 124666.72900000015,
      "d": 1333.3340000000026,
      "v": 60
    },
    {
      "midi": 64,
      "hit": false,
      "t": 124666.72900000015,
      "d": 1333.3340000000026,
      "v": 60
    },
    {
      "midi": 71,
      "hit": false,
      "t": 125333.39600000014,
      "d": 666.6670000000013,
      "v": 75
    },
    {
      "midi": 74,
      "hit": false,
      "t": 126000.06300000014,
      "d": 3200.0016000000032,
      "v": 75
    },
    {
      "midi": 38,
      "hit": false,
      "t": 126000.06300000017,
      "d": 2000.0010000000038,
      "v": 61
    },
    {
      "midi": 48,
      "hit": false,
      "t": 126666.73000000016,
      "d": 1333.3340000000026,
      "v": 57
    },
    {
      "midi": 52,
      "hit": false,
      "t": 126666.73000000016,
      "d": 1333.3340000000026,
      "v": 57
    },
    {
      "midi": 57,
      "hit": false,
      "t": 126666.73000000016,
      "d": 1333.3340000000026,
      "v": 57
    },
    {
      "midi": 62,
      "hit": false,
      "t": 126666.73000000016,
      "d": 1333.3340000000026,
      "v": 57
    },
    {
      "midi": 38,
      "hit": false,
      "t": 128000.06400000017,
      "d": 2000.0010000000038,
      "v": 61
    },
    {
      "midi": 48,
      "hit": false,
      "t": 128666.73100000016,
      "d": 1333.3340000000026,
      "v": 55
    },
    {
      "midi": 53,
      "hit": false,
      "t": 128666.73100000016,
      "d": 1333.3340000000026,
      "v": 55
    },
    {
      "midi": 57,
      "hit": false,
      "t": 128666.73100000016,
      "d": 1333.3340000000026,
      "v": 55
    },
    {
      "midi": 62,
      "hit": false,
      "t": 128666.73100000016,
      "d": 1333.3340000000026,
      "v": 55
    },
    {
      "midi": 74,
      "hit": false,
      "t": 129333.39800000015,
      "d": 666.6670000000013,
      "v": 72
    },
    {
      "midi": 76,
      "hit": false,
      "t": 130000.06500000015,
      "d": 666.6670000000013,
      "v": 77
    },
    {
      "midi": 38,
      "hit": false,
      "t": 130000.06500000018,
      "d": 2000.0009999999893,
      "v": 61
    },
    {
      "midi": 77,
      "hit": false,
      "t": 130666.73200000015,
      "d": 666.6670000000013,
      "v": 73
    },
    {
      "midi": 57,
      "hit": false,
      "t": 130666.73200000016,
      "d": 1333.3340000000026,
      "v": 57
    },
    {
      "midi": 60,
      "hit": false,
      "t": 130666.73200000016,
      "d": 1333.3340000000026,
      "v": 57
    },
    {
      "midi": 65,
      "hit": false,
      "t": 130666.73200000016,
      "d": 1333.3340000000026,
      "v": 57
    },
    {
      "midi": 79,
      "hit": false,
      "t": 131333.39900000015,
      "d": 666.6669999999867,
      "v": 74
    },
    {
      "midi": 81,
      "hit": false,
      "t": 132000.06600000014,
      "d": 666.6669999999867,
      "v": 78
    },
    {
      "midi": 38,
      "hit": false,
      "t": 132000.06600000017,
      "d": 2000.0009999999893,
      "v": 61
    },
    {
      "midi": 72,
      "hit": false,
      "t": 132666.73300000012,
      "d": 666.6669999999867,
      "v": 75
    },
    {
      "midi": 57,
      "hit": false,
      "t": 132666.73300000015,
      "d": 1333.3340000000026,
      "v": 61
    },
    {
      "midi": 60,
      "hit": false,
      "t": 132666.73300000015,
      "d": 1333.3340000000026,
      "v": 61
    },
    {
      "midi": 64,
      "hit": false,
      "t": 132666.73300000015,
      "d": 1333.3340000000026,
      "v": 61
    },
    {
      "midi": 74,
      "hit": false,
      "t": 133333.4000000001,
      "d": 666.6669999999867,
      "v": 75
    },
    {
      "midi": 76,
      "hit": false,
      "t": 134000.0670000001,
      "d": 666.6669999999867,
      "v": 78
    },
    {
      "midi": 38,
      "hit": false,
      "t": 134000.06700000016,
      "d": 2000.0009999999893,
      "v": 61
    },
    {
      "midi": 74,
      "hit": false,
      "t": 134666.73400000008,
      "d": 666.6669999999867,
      "v": 73
    },
    {
      "midi": 50,
      "hit": false,
      "t": 134666.73400000014,
      "d": 1333.3340000000026,
      "v": 59
    },
    {
      "midi": 55,
      "hit": false,
      "t": 134666.73400000014,
      "d": 1333.3340000000026,
      "v": 59
    },
    {
      "midi": 59,
      "hit": false,
      "t": 134666.73400000014,
      "d": 1333.3340000000026,
      "v": 59
    },
    {
      "midi": 64,
      "hit": false,
      "t": 134666.73400000014,
      "d": 1333.3340000000026,
      "v": 59
    },
    {
      "midi": 71,
      "hit": false,
      "t": 135333.40100000007,
      "d": 666.6669999999867,
      "v": 72
    },
    {
      "midi": 74,
      "hit": false,
      "t": 136000.06800000006,
      "d": 3200.0015999999887,
      "v": 70
    },
    {
      "midi": 38,
      "hit": false,
      "t": 136000.06800000014,
      "d": 2000.0009999999893,
      "v": 61
    },
    {
      "midi": 48,
      "hit": false,
      "t": 136666.73500000013,
      "d": 1333.3340000000026,
      "v": 55
    },
    {
      "midi": 52,
      "hit": false,
      "t": 136666.73500000013,
      "d": 1333.3340000000026,
      "v": 55
    },
    {
      "midi": 57,
      "hit": false,
      "t": 136666.73500000013,
      "d": 1333.3340000000026,
      "v": 55
    },
    {
      "midi": 62,
      "hit": false,
      "t": 136666.73500000013,
      "d": 1333.3340000000026,
      "v": 55
    },
    {
      "midi": 38,
      "hit": false,
      "t": 138000.06900000013,
      "d": 2000.0009999999893,
      "v": 61
    },
    {
      "midi": 48,
      "hit": false,
      "t": 138666.73600000012,
      "d": 1333.3340000000026,
      "v": 55
    },
    {
      "midi": 53,
      "hit": false,
      "t": 138666.73600000012,
      "d": 1333.3340000000026,
      "v": 55
    },
    {
      "midi": 57,
      "hit": false,
      "t": 138666.73600000012,
      "d": 1333.3340000000026,
      "v": 55
    },
    {
      "midi": 62,
      "hit": false,
      "t": 138666.73600000012,
      "d": 1333.3340000000026,
      "v": 55
    },
    {
      "midi": 74,
      "hit": false,
      "t": 139333.40300000005,
      "d": 666.6669999999867,
      "v": 66
    },
    {
      "midi": 79,
      "hit": false,
      "t": 140000.07000000004,
      "d": 2000.0009999999893,
      "v": 72
    },
    {
      "midi": 40,
      "hit": false,
      "t": 140000.07000000012,
      "d": 2000.0009999999893,
      "v": 61
    },
    {
      "midi": 59,
      "hit": false,
      "t": 140666.7370000001,
      "d": 1333.3340000000026,
      "v": 59
    },
    {
      "midi": 64,
      "hit": false,
      "t": 140666.7370000001,
      "d": 1333.3340000000026,
      "v": 59
    },
    {
      "midi": 67,
      "hit": false,
      "t": 140666.7370000001,
      "d": 1333.3340000000026,
      "v": 59
    },
    {
      "midi": 77,
      "hit": false,
      "t": 142000.07100000003,
      "d": 2000.0009999999893,
      "v": 78
    },
    {
      "midi": 40,
      "hit": false,
      "t": 142000.0710000001,
      "d": 2000.0009999999893,
      "v": 64
    },
    {
      "midi": 57,
      "hit": false,
      "t": 142666.7380000001,
      "d": 1333.3340000000026,
      "v": 61
    },
    {
      "midi": 62,
      "hit": false,
      "t": 142666.7380000001,
      "d": 1333.3340000000026,
      "v": 61
    },
    {
      "midi": 65,
      "hit": false,
      "t": 142666.7380000001,
      "d": 1333.3340000000026,
      "v": 61
    },
    {
      "midi": 69,
      "hit": false,
      "t": 142666.7380000001,
      "d": 1333.3340000000026,
      "v": 61
    },
    {
      "midi": 71,
      "hit": false,
      "t": 144000.07200000001,
      "d": 666.6669999999867,
      "v": 81
    },
    {
      "midi": 40,
      "hit": false,
      "t": 144000.0720000001,
      "d": 2000.0009999999893,
      "v": 65
    },
    {
      "midi": 72,
      "hit": false,
      "t": 144666.739,
      "d": 666.6669999999867,
      "v": 76
    },
    {
      "midi": 57,
      "hit": false,
      "t": 144666.7390000001,
      "d": 1333.3340000000026,
      "v": 60
    },
    {
      "midi": 60,
      "hit": false,
      "t": 144666.7390000001,
      "d": 1333.3340000000026,
      "v": 60
    },
    {
      "midi": 65,
      "hit": false,
      "t": 144666.7390000001,
      "d": 1333.3340000000026,
      "v": 60
    },
    {
      "midi": 77,
      "hit": false,
      "t": 145333.406,
      "d": 666.6669999999867,
      "v": 76
    },
    {
      "midi": 76,
      "hit": false,
      "t": 146000.07299999997,
      "d": 666.6669999999867,
      "v": 81
    },
    {
      "midi": 40,
      "hit": false,
      "t": 146000.0730000001,
      "d": 2000.0009999999893,
      "v": 65
    },
    {
      "midi": 74,
      "hit": false,
      "t": 146666.73999999996,
      "d": 666.6669999999867,
      "v": 76
    },
    {
      "midi": 60,
      "hit": false,
      "t": 146666.74000000008,
      "d": 1333.3340000000026,
      "v": 60
    },
    {
      "midi": 65,
      "hit": false,
      "t": 146666.74000000008,
      "d": 1333.3340000000026,
      "v": 60
    },
    {
      "midi": 69,
      "hit": false,
      "t": 146666.74000000008,
      "d": 1333.3340000000026,
      "v": 60
    },
    {
      "midi": 72,
      "hit": false,
      "t": 147333.40699999995,
      "d": 666.6669999999867,
      "v": 76
    },
    {
      "midi": 76,
      "hit": false,
      "t": 148000.07399999994,
      "d": 666.6669999999867,
      "v": 81
    },
    {
      "midi": 40,
      "hit": false,
      "t": 148000.07400000008,
      "d": 2000.0009999999893,
      "v": 65
    },
    {
      "midi": 74,
      "hit": false,
      "t": 148666.74099999992,
      "d": 666.6669999999867,
      "v": 76
    },
    {
      "midi": 57,
      "hit": false,
      "t": 148666.74100000007,
      "d": 1333.3340000000026,
      "v": 60
    },
    {
      "midi": 60,
      "hit": false,
      "t": 148666.74100000007,
      "d": 1333.3340000000026,
      "v": 60
    },
    {
      "midi": 65,
      "hit": false,
      "t": 148666.74100000007,
      "d": 1333.3340000000026,
      "v": 60
    },
    {
      "midi": 69,
      "hit": false,
      "t": 148666.74100000007,
      "d": 1333.3340000000026,
      "v": 60
    },
    {
      "midi": 72,
      "hit": false,
      "t": 149333.4079999999,
      "d": 666.6669999999867,
      "v": 76
    },
    {
      "midi": 65,
      "hit": false,
      "t": 150000.0749999999,
      "d": 2000.0009999999893,
      "v": 76
    },
    {
      "midi": 40,
      "hit": false,
      "t": 150000.07500000007,
      "d": 2000.0009999999893,
      "v": 65
    },
    {
      "midi": 47,
      "hit": false,
      "t": 150666.74200000006,
      "d": 652.7781041666749,
      "v": 60
    },
    {
      "midi": 57,
      "hit": false,
      "t": 150666.74200000006,
      "d": 652.7781041666749,
      "v": 60
    },
    {
      "midi": 62,
      "hit": false,
      "t": 150666.74200000006,
      "d": 652.7781041666749,
      "v": 60
    },
    {
      "midi": 52,
      "hit": false,
      "t": 151333.40900000007,
      "d": 652.7781041666749,
      "v": 57
    },
    {
      "midi": 59,
      "hit": false,
      "t": 151333.40900000007,
      "d": 652.7781041666749,
      "v": 57
    },
    {
      "midi": 62,
      "hit": false,
      "t": 151333.40900000007,
      "d": 652.7781041666749,
      "v": 57
    },
    {
      "midi": 67,
      "hit": false,
      "t": 151333.40900000007,
      "d": 652.7781041666749,
      "v": 57
    },
    {
      "midi": 72,
      "hit": false,
      "t": 152000.07599999988,
      "d": 2000.0009999999893,
      "v": 70
    },
    {
      "midi": 55,
      "hit": false,
      "t": 152000.07600000006,
      "d": 1938.8898583333357,
      "v": 61
    },
    {
      "midi": 45,
      "hit": false,
      "t": 152000.07600000006,
      "d": 2000.0009999999893,
      "v": 61
    },
    {
      "midi": 60,
      "hit": false,
      "t": 152000.0760000001,
      "d": 1938.8898583333357,
      "v": 57
    },
    {
      "midi": 64,
      "hit": false,
      "t": 152000.0760000001,
      "d": 1938.8898583333357,
      "v": 57
    },
    {
      "midi": 69,
      "hit": false,
      "t": 152000.0760000001,
      "d": 1938.8898583333357,
      "v": 57
    },
    {
      "midi": 74,
      "hit": false,
      "t": 154000.07699999987,
      "d": 3800.001900000003,
      "v": 64
    },
    {
      "midi": 38,
      "hit": false,
      "t": 154000.07700000005,
      "d": 4000.0020000000077,
      "v": 61
    },
    {
      "midi": 45,
      "hit": false,
      "t": 154000.07700000005,
      "d": 4000.0020000000077,
      "v": 61
    },
    {
      "midi": 50,
      "hit": false,
      "t": 154000.07700000005,
      "d": 4000.0020000000077,
      "v": 61
    },
    {
      "midi": 62,
      "hit": false,
      "t": 154000.07700000008,
      "d": 4000.0020000000077,
      "v": 57
    },
    {
      "midi": 65,
      "hit": false,
      "t": 154000.07700000008,
      "d": 4000.0020000000077,
      "v": 57
    },
    {
      "midi": 69,
      "hit": false,
      "t": 154000.07700000008,
      "d": 4000.0020000000077,
      "v": 57
    }
  ]
}