{
  "jsonPath": "Animes/Cowboy Bebop MIDI Collection/julia.json",
  "path": "Animes\\Cowboy Bebop MIDI Collection\\Julia.mid",
  "name": "Julia",
  "difficulty": "Advanced",
  "bpm": 120.02016338744909,
  "notes": [
    {
      "midi": 64,
      "hit": false,
      "t": 5998.991999999993,
      "d": 499.91599999999835,
      "v": 95
    },
    {
      "midi": 64,
      "hit": false,
      "t": 6498.907999999991,
      "d": 499.91599999999835,
      "v": 69
    },
    {
      "midi": 64,
      "hit": false,
      "t": 6998.82399999999,
      "d": 499.91599999999744,
      "v": 32
    },
    {
      "midi": 64,
      "hit": false,
      "t": 7498.739999999987,
      "d": 499.91599999999835,
      "v": 12
    },
    {
      "midi": 64,
      "hit": false,
      "t": 7998.655999999985,
      "d": 499.91599999999835,
      "v": 54
    },
    {
      "midi": 64,
      "hit": false,
      "t": 8498.571999999984,
      "d": 249.95799999999872,
      "v": 68
    },
    {
      "midi": 64,
      "hit": false,
      "t": 8748.529999999982,
      "d": 999.8319999999967,
      "v": 38
    },
    {
      "midi": 64,
      "hit": false,
      "t": 9748.36199999998,
      "d": 749.873999999998,
      "v": 71
    },
    {
      "midi": 64,
      "hit": false,
      "t": 10498.235999999977,
      "d": 499.91599999999744,
      "v": 84
    },
    {
      "midi": 64,
      "hit": false,
      "t": 11331.429333333308,
      "d": 395.06133333332946,
      "v": 66
    },
    {
      "midi": 64,
      "hit": false,
      "t": 11726.490666666637,
      "d": 484.84799999999814,
      "v": 78
    },
    {
      "midi": 64,
      "hit": false,
      "t": 12211.338666666636,
      "d": 666.6660000000047,
      "v": 79
    },
    {
      "midi": 65,
      "hit": false,
      "t": 12878.00466666664,
      "d": 615.3209999999854,
      "v": 98
    },
    {
      "midi": 65,
      "hit": false,
      "t": 13493.325666666626,
      "d": 1230.641999999978,
      "v": 99
    },
    {
      "midi": 58,
      "hit": false,
      "t": 14723.967666666604,
      "d": 799.9999999999927,
      "v": 53
    },
    {
      "midi": 62,
      "hit": false,
      "t": 14723.967666666604,
      "d": 4546.605666666643,
      "v": 78
    },
    {
      "midi": 60,
      "hit": false,
      "t": 15523.967666666596,
      "d": 242.38500000000204,
      "v": 70
    },
    {
      "midi": 65,
      "hit": false,
      "t": 15766.352666666598,
      "d": 242.38500000000022,
      "v": 50
    },
    {
      "midi": 70,
      "hit": false,
      "t": 16008.737666666599,
      "d": 222.22199999999975,
      "v": 80
    },
    {
      "midi": 77,
      "hit": false,
      "t": 16230.959666666598,
      "d": 222.22199999999975,
      "v": 70
    },
    {
      "midi": 72,
      "hit": false,
      "t": 16453.181666666598,
      "d": 222.22200000000157,
      "v": 104
    },
    {
      "midi": 82,
      "hit": false,
      "t": 16675.4036666666,
      "d": 219.15399999999863,
      "v": 89
    },
    {
      "midi": 74,
      "hit": false,
      "t": 16894.5576666666,
      "d": 219.15399999999863,
      "v": 100
    },
    {
      "midi": 77,
      "hit": false,
      "t": 17113.711666666597,
      "d": 1176.4699999999975,
      "v": 88
    },
    {
      "midi": 58,
      "hit": false,
      "t": 19466.651666666563,
      "d": 470.5879999999852,
      "v": 109
    },
    {
      "midi": 60,
      "hit": false,
      "t": 19937.239666666548,
      "d": 470.5879999999888,
      "v": 104
    },
    {
      "midi": 62,
      "hit": false,
      "t": 20407.827666666537,
      "d": 463.7499999999818,
      "v": 74
    },
    {
      "midi": 48,
      "hit": false,
      "t": 20407.827666666537,
      "d": 1933.5883333333586,
      "v": 32
    },
    {
      "midi": 60,
      "hit": false,
      "t": 20407.827666666537,
      "d": 1945.9340000000266,
      "v": 29
    },
    {
      "midi": 50,
      "hit": false,
      "t": 20407.827666666537,
      "d": 1945.9340000000266,
      "v": 20
    },
    {
      "midi": 43,
      "hit": false,
      "t": 20417.48912499987,
      "d": 1985.6552083333627,
      "v": 25
    },
    {
      "midi": 57,
      "hit": false,
      "t": 20427.1505833332,
      "d": 1963.6480833333626,
      "v": 21
    },
    {
      "midi": 69,
      "hit": false,
      "t": 20436.812041666533,
      "d": 1916.9496250000302,
      "v": 21
    },
    {
      "midi": 51,
      "hit": false,
      "t": 20436.812041666533,
      "d": 1929.2952916666982,
      "v": 56
    },
    {
      "midi": 62,
      "hit": false,
      "t": 20871.57766666652,
      "d": 463.74999999998545,
      "v": 83
    },
    {
      "midi": 62,
      "hit": false,
      "t": 21335.327666666504,
      "d": 499.9160000000338,
      "v": 90
    },
    {
      "midi": 63,
      "hit": false,
      "t": 21835.243666666538,
      "d": 530.8636666666935,
      "v": 78
    },
    {
      "midi": 62,
      "hit": false,
      "t": 22427.835666666564,
      "d": 440.8217499999846,
      "v": 45
    },
    {
      "midi": 42,
      "hit": false,
      "t": 22427.835666666564,
      "d": 946.1539999999659,
      "v": 27
    },
    {
      "midi": 50,
      "hit": false,
      "t": 22427.835666666564,
      "d": 946.1539999999659,
      "v": 39
    },
    {
      "midi": 54,
      "hit": false,
      "t": 22427.835666666564,
      "d": 946.1539999999659,
      "v": 43
    },
    {
      "midi": 57,
      "hit": false,
      "t": 22427.835666666564,
      "d": 946.1539999999659,
      "v": 51
    },
    {
      "midi": 69,
      "hit": false,
      "t": 22427.835666666564,
      "d": 946.1539999999659,
      "v": 57
    },
    {
      "midi": 66,
      "hit": false,
      "t": 22427.835666666564,
      "d": 946.1539999999659,
      "v": 53
    },
    {
      "midi": 60,
      "hit": false,
      "t": 22943.919666666545,
      "d": 430.06999999998516,
      "v": 70
    },
    {
      "midi": 69,
      "hit": false,
      "t": 23373.98966666653,
      "d": 516.0839999999844,
      "v": 83
    },
    {
      "midi": 66,
      "hit": false,
      "t": 23373.98966666653,
      "d": 516.0839999999844,
      "v": 78
    },
    {
      "midi": 72,
      "hit": false,
      "t": 23373.98966666653,
      "d": 516.0839999999844,
      "v": 66
    },
    {
      "midi": 58,
      "hit": false,
      "t": 23460.003666666526,
      "d": 516.0839999999844,
      "v": 86
    },
    {
      "midi": 66,
      "hit": false,
      "t": 23890.073666666514,
      "d": 516.0839999999844,
      "v": 69
    },
    {
      "midi": 62,
      "hit": false,
      "t": 23890.073666666514,
      "d": 516.0839999999844,
      "v": 58
    },
    {
      "midi": 69,
      "hit": false,
      "t": 23890.073666666514,
      "d": 516.0839999999844,
      "v": 60
    },
    {
      "midi": 57,
      "hit": false,
      "t": 23976.08766666651,
      "d": 516.0839999999844,
      "v": 80
    },
    {
      "midi": 57,
      "hit": false,
      "t": 24492.171666666494,
      "d": 1032.1679999999833,
      "v": 38
    },
    {
      "midi": 43,
      "hit": false,
      "t": 24492.171666666494,
      "d": 1032.1679999999833,
      "v": 55
    },
    {
      "midi": 50,
      "hit": false,
      "t": 24492.171666666494,
      "d": 1032.1679999999833,
      "v": 52
    },
    {
      "midi": 62,
      "hit": false,
      "t": 24492.171666666494,
      "d": 1032.1679999999833,
      "v": 55
    },
    {
      "midi": 70,
      "hit": false,
      "t": 24492.171666666494,
      "d": 1032.1679999999833,
      "v": 64
    },
    {
      "midi": 69,
      "hit": false,
      "t": 24492.171666666494,
      "d": 1032.1679999999833,
      "v": 63
    },
    {
      "midi": 58,
      "hit": false,
      "t": 24492.171666666494,
      "d": 1032.1679999999833,
      "v": 50
    },
    {
      "midi": 67,
      "hit": false,
      "t": 24492.171666666494,
      "d": 1032.1679999999833,
      "v": 63
    },
    {
      "midi": 41,
      "hit": false,
      "t": 25524.339666666478,
      "d": 1210.333833333305,
      "v": 58
    },
    {
      "midi": 50,
      "hit": false,
      "t": 25556.594916666476,
      "d": 1159.5600833333083,
      "v": 69
    },
    {
      "midi": 58,
      "hit": false,
      "t": 25588.850166666474,
      "d": 612.849749999983,
      "v": 80
    },
    {
      "midi": 65,
      "hit": false,
      "t": 25631.857166666472,
      "d": 1121.3348333333088,
      "v": 86
    },
    {
      "midi": 70,
      "hit": false,
      "t": 25674.864166666473,
      "d": 1004.2538333333141,
      "v": 92
    },
    {
      "midi": 74,
      "hit": false,
      "t": 25717.871166666475,
      "d": 998.2838333333093,
      "v": 95
    },
    {
      "midi": 62,
      "hit": false,
      "t": 26212.451666666457,
      "d": 559.2588333333224,
      "v": 79
    },
    {
      "midi": 57,
      "hit": false,
      "t": 26345.7849999998,
      "d": 388.88849999998274,
      "v": 109
    },
    {
      "midi": 40,
      "hit": false,
      "t": 26790.228999999777,
      "d": 2550.098812499993,
      "v": 66
    },
    {
      "midi": 52,
      "hit": false,
      "t": 26820.531999999777,
      "d": 2532.9946874999914,
      "v": 65
    },
    {
      "midi": 55,
      "hit": false,
      "t": 26850.834999999777,
      "d": 2515.8905624999934,
      "v": 70
    },
    {
      "midi": 62,
      "hit": false,
      "t": 26881.137999999777,
      "d": 2498.7864374999917,
      "v": 70
    },
    {
      "midi": 64,
      "hit": false,
      "t": 26911.440999999777,
      "d": 2534.477812500001,
      "v": 73
    },
    {
      "midi": 67,
      "hit": false,
      "t": 26941.743999999777,
      "d": 1939.3919999999962,
      "v": 76
    },
    {
      "midi": 70,
      "hit": false,
      "t": 26972.046999999777,
      "d": 2480.4712500000023,
      "v": 73
    },
    {
      "midi": 74,
      "hit": false,
      "t": 27002.349999999777,
      "d": 2423.7704999999987,
      "v": 71
    },
    {
      "midi": 68,
      "hit": false,
      "t": 28896.287499999773,
      "d": 543.0318750000042,
      "v": 89
    },
    {
      "midi": 67,
      "hit": false,
      "t": 28956.893499999773,
      "d": 508.8236250000082,
      "v": 84
    },
    {
      "midi": 41,
      "hit": false,
      "t": 29320.52949999977,
      "d": 145.18762500000958,
      "v": 80
    },
    {
      "midi": 41,
      "hit": false,
      "t": 29485.515437499784,
      "d": 2049.249,
      "v": 82
    },
    {
      "midi": 50,
      "hit": false,
      "t": 29485.515437499784,
      "d": 2049.249,
      "v": 78
    },
    {
      "midi": 60,
      "hit": false,
      "t": 29485.515437499784,
      "d": 2049.249,
      "v": 78
    },
    {
      "midi": 77,
      "hit": false,
      "t": 29485.515437499784,
      "d": 2049.249,
      "v": 74
    },
    {
      "midi": 74,
      "hit": false,
      "t": 29485.515437499784,
      "d": 2049.249,
      "v": 68
    },
    {
      "midi": 72,
      "hit": false,
      "t": 29485.515437499784,
      "d": 2049.249,
      "v": 81
    },
    {
      "midi": 65,
      "hit": false,
      "t": 29485.515437499784,
      "d": 2049.249,
      "v": 82
    },
    {
      "midi": 53,
      "hit": false,
      "t": 29985.431437499785,
      "d": 437.4265000000123,
      "v": 101
    },
    {
      "midi": 58,
      "hit": false,
      "t": 30485.347437499808,
      "d": 516.0839999999844,
      "v": 90
    },
    {
      "midi": 62,
      "hit": false,
      "t": 31001.431437499792,
      "d": 533.3329999999914,
      "v": 97
    },
    {
      "midi": 63,
      "hit": false,
      "t": 31534.764437499784,
      "d": 571.3739999999852,
      "v": 108
    },
    {
      "midi": 53,
      "hit": false,
      "t": 31534.764437499784,
      "d": 2460.0989999999365,
      "v": 49
    },
    {
      "midi": 41,
      "hit": false,
      "t": 31534.764437499784,
      "d": 2460.0989999999365,
      "v": 43
    },
    {
      "midi": 48,
      "hit": false,
      "t": 31534.764437499784,
      "d": 2460.0989999999365,
      "v": 49
    },
    {
      "midi": 56,
      "hit": false,
      "t": 31534.764437499784,
      "d": 2460.0989999999365,
      "v": 40
    },
    {
      "midi": 44,
      "hit": false,
      "t": 31534.764437499784,
      "d": 2460.0989999999365,
      "v": 31
    },
    {
      "midi": 65,
      "hit": false,
      "t": 31534.764437499784,
      "d": 2460.0989999999365,
      "v": 52
    },
    {
      "midi": 62,
      "hit": false,
      "t": 32106.13843749977,
      "d": 592.5920000000333,
      "v": 93
    },
    {
      "midi": 60,
      "hit": false,
      "t": 32698.730437499802,
      "d": 615.3209999999708,
      "v": 88
    },
    {
      "midi": 58,
      "hit": false,
      "t": 33314.05143749977,
      "d": 609.894083333289,
      "v": 97
    },
    {
      "midi": 53,
      "hit": false,
      "t": 33994.86343749972,
      "d": 2723.2479999999705,
      "v": 46
    },
    {
      "midi": 65,
      "hit": false,
      "t": 33994.86343749972,
      "d": 2723.2479999999705,
      "v": 46
    },
    {
      "midi": 62,
      "hit": false,
      "t": 33994.86343749972,
      "d": 2723.2479999999705,
      "v": 53
    },
    {
      "midi": 50,
      "hit": false,
      "t": 33994.86343749972,
      "d": 2723.2479999999705,
      "v": 55
    },
    {
      "midi": 60,
      "hit": false,
      "t": 33994.86343749972,
      "d": 2723.2479999999705,
      "v": 48
    },
    {
      "midi": 58,
      "hit": false,
      "t": 33994.86343749972,
      "d": 2723.2479999999705,
      "v": 62
    },
    {
      "midi": 46,
      "hit": false,
      "t": 33994.86343749972,
      "d": 2723.2479999999705,
      "v": 54
    },
    {
      "midi": 55,
      "hit": false,
      "t": 38760.54743749964,
      "d": 640.0000000000509,
      "v": 115
    },
    {
      "midi": 64,
      "hit": false,
      "t": 39400.54743749969,
      "d": 516.0840000000462,
      "v": 87
    },
    {
      "midi": 74,
      "hit": false,
      "t": 39400.54743749969,
      "d": 1298.8345000000918,
      "v": 83
    },
    {
      "midi": 67,
      "hit": false,
      "t": 39400.54743749969,
      "d": 1298.8345000000918,
      "v": 88
    },
    {
      "midi": 60,
      "hit": false,
      "t": 39400.54743749969,
      "d": 1298.8345000000918,
      "v": 89
    },
    {
      "midi": 48,
      "hit": false,
      "t": 39400.54743749969,
      "d": 1298.8345000000918,
      "v": 83
    },
    {
      "midi": 72,
      "hit": false,
      "t": 39400.54743749969,
      "d": 1298.8345000000918,
      "v": 87
    },
    {
      "midi": 64,
      "hit": false,
      "t": 39916.63143749974,
      "d": 516.0840000000535,
      "v": 80
    },
    {
      "midi": 64,
      "hit": false,
      "t": 40432.71543749979,
      "d": 266.6664999999921,
      "v": 52
    },
    {
      "midi": 60,
      "hit": false,
      "t": 40699.381937499784,
      "d": 266.66649999999936,
      "v": 98
    },
    {
      "midi": 67,
      "hit": false,
      "t": 40966.04843749978,
      "d": 266.6664999999921,
      "v": 110
    },
    {
      "midi": 64,
      "hit": false,
      "t": 40966.04843749978,
      "d": 533.3329999999842,
      "v": 69
    },
    {
      "midi": 59,
      "hit": false,
      "t": 41232.714937499775,
      "d": 255.55539583332575,
      "v": 95
    },
    {
      "midi": 41,
      "hit": false,
      "t": 41499.38143749977,
      "d": 1989.0737500002433,
      "v": 70
    },
    {
      "midi": 53,
      "hit": false,
      "t": 41510.13318749977,
      "d": 1999.8255000002464,
      "v": 71
    },
    {
      "midi": 57,
      "hit": false,
      "t": 41510.13318749977,
      "d": 1999.8255000002464,
      "v": 72
    },
    {
      "midi": 64,
      "hit": false,
      "t": 41520.88493749977,
      "d": 494.58050000004005,
      "v": 63
    },
    {
      "midi": 67,
      "hit": false,
      "t": 41520.88493749977,
      "d": 2010.5772500002495,
      "v": 68
    },
    {
      "midi": 69,
      "hit": false,
      "t": 41531.63668749978,
      "d": 2021.3290000002526,
      "v": 68
    },
    {
      "midi": 72,
      "hit": false,
      "t": 41531.63668749978,
      "d": 2021.3290000002526,
      "v": 56
    },
    {
      "midi": 64,
      "hit": false,
      "t": 42015.46543749981,
      "d": 1032.1680000001797,
      "v": 65
    },
    {
      "midi": 64,
      "hit": false,
      "t": 43047.63343749999,
      "d": 483.8287500000297,
      "v": 78
    },
    {
      "midi": 64,
      "hit": false,
      "t": 43563.71743750003,
      "d": 516.084000000068,
      "v": 79
    },
    {
      "midi": 76,
      "hit": false,
      "t": 43563.71743750003,
      "d": 2081.585000000159,
      "v": 50
    },
    {
      "midi": 71,
      "hit": false,
      "t": 43563.71743750003,
      "d": 2081.585000000159,
      "v": 48
    },
    {
      "midi": 67,
      "hit": false,
      "t": 43563.71743750003,
      "d": 2081.585000000159,
      "v": 31
    },
    {
      "midi": 60,
      "hit": false,
      "t": 43563.71743750003,
      "d": 2081.585000000159,
      "v": 40
    },
    {
      "midi": 48,
      "hit": false,
      "t": 43563.71743750003,
      "d": 2081.585000000159,
      "v": 43
    },
    {
      "midi": 64,
      "hit": false,
      "t": 44079.8014375001,
      "d": 516.0840000000608,
      "v": 46
    },
    {
      "midi": 64,
      "hit": false,
      "t": 44595.88543750016,
      "d": 516.0840000000462,
      "v": 58
    },
    {
      "midi": 64,
      "hit": false,
      "t": 45111.96943750021,
      "d": 533.3329999999842,
      "v": 80
    },
    {
      "midi": 64,
      "hit": false,
      "t": 45645.30243750019,
      "d": 533.3588333333028,
      "v": 37
    },
    {
      "midi": 69,
      "hit": false,
      "t": 45645.30243750019,
      "d": 2416.169999999882,
      "v": 42
    },
    {
      "midi": 53,
      "hit": false,
      "t": 45645.30243750019,
      "d": 2416.169999999882,
      "v": 37
    },
    {
      "midi": 41,
      "hit": false,
      "t": 45645.30243750019,
      "d": 2416.169999999882,
      "v": 33
    },
    {
      "midi": 65,
      "hit": false,
      "t": 46227.14843750015,
      "d": 553.3751666666794,
      "v": 97
    },
    {
      "midi": 65,
      "hit": false,
      "t": 46830.83043750017,
      "d": 564.0442499999626,
      "v": 90
    },
    {
      "midi": 60,
      "hit": false,
      "t": 47446.15143750012,
      "d": 615.3209999999526,
      "v": 66
    },
    {
      "midi": 46,
      "hit": false,
      "t": 48061.47243750007,
      "d": 727.2719999999972,
      "v": 50
    },
    {
      "midi": 62,
      "hit": false,
      "t": 48061.47243750007,
      "d": 3700.6725624999744,
      "v": 78
    },
    {
      "midi": 53,
      "hit": false,
      "t": 48788.74443750007,
      "d": 249.95799999999872,
      "v": 58
    },
    {
      "midi": 60,
      "hit": false,
      "t": 49038.70243750007,
      "d": 238.77700000000186,
      "v": 74
    },
    {
      "midi": 65,
      "hit": false,
      "t": 49277.47943750007,
      "d": 231.875,
      "v": 91
    },
    {
      "midi": 70,
      "hit": false,
      "t": 49509.35443750007,
      "d": 225.34350000000268,
      "v": 107
    },
    {
      "midi": 72,
      "hit": false,
      "t": 49734.697937500074,
      "d": 225.34350000000268,
      "v": 116
    },
    {
      "midi": 76,
      "hit": false,
      "t": 49960.04143750008,
      "d": 225.34350000000268,
      "v": 93
    },
    {
      "midi": 72,
      "hit": false,
      "t": 50185.38493750008,
      "d": 1487.0257499999861,
      "v": 84
    },
    {
      "midi": 58,
      "hit": false,
      "t": 52031.347937500046,
      "d": 210.5115000000078,
      "v": 92
    },
    {
      "midi": 60,
      "hit": false,
      "t": 52241.859437500054,
      "d": 210.51150000000052,
      "v": 103
    },
    {
      "midi": 62,
      "hit": false,
      "t": 52452.370937500054,
      "d": 499.9160000000702,
      "v": 106
    },
    {
      "midi": 67,
      "hit": false,
      "t": 52452.370937500054,
      "d": 1694.5410000001139,
      "v": 52
    },
    {
      "midi": 60,
      "hit": false,
      "t": 52452.370937500054,
      "d": 1694.5410000001139,
      "v": 56
    },
    {
      "midi": 57,
      "hit": false,
      "t": 52452.370937500054,
      "d": 1694.5410000001139,
      "v": 54
    },
    {
      "midi": 45,
      "hit": false,
      "t": 52452.370937500054,
      "d": 1694.5410000001139,
      "v": 56
    },
    {
      "midi": 62,
      "hit": false,
      "t": 52952.286937500125,
      "d": 432.33799999994517,
      "v": 66
    },
    {
      "midi": 62,
      "hit": false,
      "t": 53384.62493750007,
      "d": 390.2180000000444,
      "v": 82
    },
    {
      "midi": 63,
      "hit": false,
      "t": 53774.842937500114,
      "d": 372.0690000000541,
      "v": 100
    },
    {
      "midi": 62,
      "hit": false,
      "t": 54146.91193750017,
      "d": 359.4960000000938,
      "v": 72
    },
    {
      "midi": 66,
      "hit": false,
      "t": 54146.91193750017,
      "d": 359.4960000000938,
      "v": 67
    },
    {
      "midi": 72,
      "hit": false,
      "t": 54146.91193750017,
      "d": 359.4960000000938,
      "v": 65
    },
    {
      "midi": 69,
      "hit": false,
      "t": 54146.91193750017,
      "d": 359.4960000000938,
      "v": 71
    },
    {
      "midi": 50,
      "hit": false,
      "t": 54146.91193750017,
      "d": 359.4960000000938,
      "v": 69
    },
    {
      "midi": 50,
      "hit": false,
      "t": 54506.40793750026,
      "d": 16.666666666671517,
      "v": 80
    },
    {
      "midi": 60,
      "hit": false,
      "t": 54506.40793750026,
      "d": 400.00000000008004,
      "v": 92
    },
    {
      "midi": 54,
      "hit": false,
      "t": 54523.07460416693,
      "d": 16.666666666671517,
      "v": 76
    },
    {
      "midi": 57,
      "hit": false,
      "t": 54539.741270833605,
      "d": 366.666666666737,
      "v": 79
    },
    {
      "midi": 58,
      "hit": false,
      "t": 54906.40793750034,
      "d": 415.54100000004837,
      "v": 83
    },
    {
      "midi": 38,
      "hit": false,
      "t": 54906.40793750034,
      "d": 415.54100000004837,
      "v": 91
    },
    {
      "midi": 54,
      "hit": false,
      "t": 54915.06504166701,
      "d": 406.88389583337994,
      "v": 85
    },
    {
      "midi": 57,
      "hit": false,
      "t": 54915.06504166701,
      "d": 406.88389583337994,
      "v": 88
    },
    {
      "midi": 72,
      "hit": false,
      "t": 54923.72214583368,
      "d": 398.2267916667115,
      "v": 81
    },
    {
      "midi": 62,
      "hit": false,
      "t": 54923.72214583368,
      "d": 398.2267916667115,
      "v": 85
    },
    {
      "midi": 69,
      "hit": false,
      "t": 55321.94893750039,
      "d": 412.2516875000292,
      "v": 80
    },
    {
      "midi": 66,
      "hit": false,
      "t": 55321.94893750039,
      "d": 412.2516875000292,
      "v": 82
    },
    {
      "midi": 62,
      "hit": false,
      "t": 55321.94893750039,
      "d": 412.2516875000292,
      "v": 76
    },
    {
      "midi": 57,
      "hit": false,
      "t": 55321.94893750039,
      "d": 412.2516875000292,
      "v": 77
    },
    {
      "midi": 43,
      "hit": false,
      "t": 55742.97193750042,
      "d": 419.0156666666735,
      "v": 76
    },
    {
      "midi": 58,
      "hit": false,
      "t": 55742.97193750042,
      "d": 1403.8039999999892,
      "v": 86
    },
    {
      "midi": 55,
      "hit": false,
      "t": 55752.495020833754,
      "d": 409.49258333334,
      "v": 72
    },
    {
      "midi": 67,
      "hit": false,
      "t": 55762.01810416709,
      "d": 419.0156666666735,
      "v": 74
    },
    {
      "midi": 69,
      "hit": false,
      "t": 55771.54118750042,
      "d": 390.44641666667303,
      "v": 70
    },
    {
      "midi": 70,
      "hit": false,
      "t": 55781.064270833755,
      "d": 352.3540833333391,
      "v": 65
    },
    {
      "midi": 74,
      "hit": false,
      "t": 55790.58735416709,
      "d": 409.49258333334,
      "v": 68
    },
    {
      "midi": 55,
      "hit": false,
      "t": 56200.07993750043,
      "d": 460.74785416667146,
      "v": 65
    },
    {
      "midi": 74,
      "hit": false,
      "t": 56670.630937500435,
      "d": 1142.7479999999414,
      "v": 59
    },
    {
      "midi": 70,
      "hit": false,
      "t": 56670.630937500435,
      "d": 1142.7479999999414,
      "v": 61
    },
    {
      "midi": 69,
      "hit": false,
      "t": 56670.630937500435,
      "d": 1142.7479999999414,
      "v": 62
    },
    {
      "midi": 53,
      "hit": false,
      "t": 56670.630937500435,
      "d": 1142.7479999999414,
      "v": 57
    },
    {
      "midi": 41,
      "hit": false,
      "t": 56670.630937500435,
      "d": 1142.7479999999414,
      "v": 60
    },
    {
      "midi": 65,
      "hit": false,
      "t": 56670.630937500435,
      "d": 1142.7479999999414,
      "v": 58
    },
    {
      "midi": 57,
      "hit": false,
      "t": 57242.00493750041,
      "d": 571.373999999967,
      "v": 93
    },
    {
      "midi": 62,
      "hit": false,
      "t": 57813.378937500376,
      "d": 1803.028499999993,
      "v": 56
    },
    {
      "midi": 72,
      "hit": false,
      "t": 57813.378937500376,
      "d": 1803.028499999993,
      "v": 55
    },
    {
      "midi": 67,
      "hit": false,
      "t": 57813.378937500376,
      "d": 1818.179999999993,
      "v": 51
    },
    {
      "midi": 48,
      "hit": false,
      "t": 57813.378937500376,
      "d": 1818.179999999993,
      "v": 55
    },
    {
      "midi": 36,
      "hit": false,
      "t": 57813.378937500376,
      "d": 1818.179999999993,
      "v": 48
    },
    {
      "midi": 55,
      "hit": false,
      "t": 59631.55893750037,
      "d": 313.7089999999953,
      "v": 41
    },
    {
      "midi": 67,
      "hit": false,
      "t": 59945.267937500364,
      "d": 225.3434999999954,
      "v": 80
    },
    {
      "midi": 60,
      "hit": false,
      "t": 60170.61143750036,
      "d": 255.55539583332575,
      "v": 50
    },
    {
      "midi": 41,
      "hit": false,
      "t": 60437.27793750035,
      "d": 2246.911333333417,
      "v": 67
    },
    {
      "midi": 72,
      "hit": false,
      "t": 60499.006270833685,
      "d": 2246.9113333334244,
      "v": 67
    },
    {
      "midi": 74,
      "hit": false,
      "t": 60511.35193750035,
      "d": 2246.9113333334244,
      "v": 64
    },
    {
      "midi": 77,
      "hit": false,
      "t": 60523.69760416702,
      "d": 2246.9113333334244,
      "v": 72
    },
    {
      "midi": 53,
      "hit": false,
      "t": 61029.869937500356,
      "d": 592.5920000000333,
      "v": 91
    },
    {
      "midi": 58,
      "hit": false,
      "t": 61622.46193750039,
      "d": 592.5920000000333,
      "v": 101
    },
    {
      "midi": 62,
      "hit": false,
      "t": 62215.05393750042,
      "d": 592.592000000026,
      "v": 105
    },
    {
      "midi": 63,
      "hit": false,
      "t": 62807.64593750045,
      "d": 640.0000000000655,
      "v": 105
    },
    {
      "midi": 77,
      "hit": false,
      "t": 62807.64593750045,
      "d": 2560.0000000001746,
      "v": 55
    },
    {
      "midi": 72,
      "hit": false,
      "t": 62807.64593750045,
      "d": 2560.0000000001746,
      "v": 52
    },
    {
      "midi": 68,
      "hit": false,
      "t": 62807.64593750045,
      "d": 2560.0000000001746,
      "v": 49
    },
    {
      "midi": 53,
      "hit": false,
      "t": 62807.64593750045,
      "d": 2560.0000000001746,
      "v": 53
    },
    {
      "midi": 41,
      "hit": false,
      "t": 62807.64593750045,
      "d": 2560.0000000001746,
      "v": 44
    },
    {
      "midi": 62,
      "hit": false,
      "t": 63447.645937500514,
      "d": 640.0000000000437,
      "v": 89
    },
    {
      "midi": 60,
      "hit": false,
      "t": 64087.64593750056,
      "d": 640.0000000000218,
      "v": 84
    },
    {
      "midi": 58,
      "hit": false,
      "t": 64727.64593750058,
      "d": 640.0000000000437,
      "v": 78
    },
    {
      "midi": 46,
      "hit": false,
      "t": 65367.64593750062,
      "d": 2844.6119999999355,
      "v": 34
    },
    {
      "midi": 58,
      "hit": false,
      "t": 65441.72437500062,
      "d": 2770.5335624999425,
      "v": 41
    },
    {
      "midi": 72,
      "hit": false,
      "t": 65515.80281250061,
      "d": 2696.4551249999495,
      "v": 44
    },
    {
      "midi": 74,
      "hit": false,
      "t": 65589.8812500006,
      "d": 2622.3766874999565,
      "v": 37
    },
    {
      "midi": 77,
      "hit": false,
      "t": 65663.9596875006,
      "d": 2548.2982499999634,
      "v": 35
    },
    {
      "midi": 58,
      "hit": false,
      "t": 69164.51793750068,
      "d": 216.16900000003807,
      "v": 75
    },
    {
      "midi": 62,
      "hit": false,
      "t": 69380.68693750072,
      "d": 216.16900000002352,
      "v": 89
    },
    {
      "midi": 65,
      "hit": false,
      "t": 69596.85593750075,
      "d": 216.16900000003807,
      "v": 103
    },
    {
      "midi": 44,
      "hit": false,
      "t": 69813.02493750078,
      "d": 1999.6639999999024,
      "v": 70
    },
    {
      "midi": 56,
      "hit": false,
      "t": 69865.09952083409,
      "d": 1999.6639999999315,
      "v": 81
    },
    {
      "midi": 68,
      "hit": false,
      "t": 69917.1741041674,
      "d": 1999.6639999999607,
      "v": 77
    },
    {
      "midi": 70,
      "hit": false,
      "t": 69969.2486875007,
      "d": 1999.6639999999898,
      "v": 89
    },
    {
      "midi": 72,
      "hit": false,
      "t": 70021.32327083402,
      "d": 1999.6640000000043,
      "v": 77
    },
    {
      "midi": 75,
      "hit": false,
      "t": 70073.39785416736,
      "d": 1999.6640000000043,
      "v": 87
    },
    {
      "midi": 67,
      "hit": false,
      "t": 72312.60493750064,
      "d": 533.3330000001733,
      "v": 82
    },
    {
      "midi": 65,
      "hit": false,
      "t": 72845.93793750081,
      "d": 571.3740000001126,
      "v": 72
    },
    {
      "midi": 63,
      "hit": false,
      "t": 73417.31193750093,
      "d": 626.6666666665842,
      "v": 50
    },
    {
      "midi": 46,
      "hit": false,
      "t": 74057.31193750084,
      "d": 1999.6640000000334,
      "v": 54
    },
    {
      "midi": 65,
      "hit": false,
      "t": 74057.31193750084,
      "d": 2999.4960000000137,
      "v": 70
    },
    {
      "midi": 58,
      "hit": false,
      "t": 74109.38652083416,
      "d": 1999.664000000048,
      "v": 51
    },
    {
      "midi": 70,
      "hit": false,
      "t": 74161.46110416748,
      "d": 1999.6640000000625,
      "v": 48
    },
    {
      "midi": 72,
      "hit": false,
      "t": 74213.53568750081,
      "d": 1999.6640000000625,
      "v": 59
    },
    {
      "midi": 74,
      "hit": false,
      "t": 74265.61027083415,
      "d": 1999.6640000000625,
      "v": 56
    },
    {
      "midi": 77,
      "hit": false,
      "t": 74317.68485416748,
      "d": 1999.6640000000625,
      "v": 52
    },
    {
      "midi": 58,
      "hit": false,
      "t": 77306.76593750085,
      "d": 249.95799999996962,
      "v": 115
    },
    {
      "midi": 62,
      "hit": false,
      "t": 77556.72393750082,
      "d": 249.95799999998417,
      "v": 81
    },
    {
      "midi": 65,
      "hit": false,
      "t": 77806.6819375008,
      "d": 249.95799999995506,
      "v": 102
    },
    {
      "midi": 44,
      "hit": false,
      "t": 78056.63993750076,
      "d": 2184.047000000064,
      "v": 104
    },
    {
      "midi": 56,
      "hit": false,
      "t": 78098.2996041674,
      "d": 2189.1687500000844,
      "v": 92
    },
    {
      "midi": 68,
      "hit": false,
      "t": 78139.95927083406,
      "d": 83.31933333334746,
      "v": 89
    },
    {
      "midi": 70,
      "hit": false,
      "t": 78223.27860416741,
      "d": 166.6386666666367,
      "v": 99
    },
    {
      "midi": 75,
      "hit": false,
      "t": 78264.93827083406,
      "d": 2209.6557500000927,
      "v": 114
    },
    {
      "midi": 80,
      "hit": false,
      "t": 78306.59793750072,
      "d": 2214.777500000113,
      "v": 99
    },
    {
      "midi": 72,
      "hit": false,
      "t": 78389.91727083405,
      "d": 166.63866666665126,
      "v": 111
    },
    {
      "midi": 70,
      "hit": false,
      "t": 78556.5559375007,
      "d": 1824.4752500001196,
      "v": 123
    },
    {
      "midi": 67,
      "hit": false,
      "t": 80802.06393750092,
      "d": 842.0655000000406,
      "v": 88
    },
    {
      "midi": 80,
      "hit": false,
      "t": 81644.12943750096,
      "d": 124.97900000000664,
      "v": 86
    },
    {
      "midi": 67,
      "hit": false,
      "t": 81644.12943750096,
      "d": 249.95800000001327,
      "v": 99
    },
    {
      "midi": 79,
      "hit": false,
      "t": 81769.10843750097,
      "d": 124.97900000000664,
      "v": 70
    },
    {
      "midi": 46,
      "hit": false,
      "t": 81894.08743750097,
      "d": 1999.663999999917,
      "v": 55
    },
    {
      "midi": 65,
      "hit": false,
      "t": 81894.08743750097,
      "d": 2999.495999999868,
      "v": 61
    },
    {
      "midi": 58,
      "hit": false,
      "t": 81946.16202083428,
      "d": 1999.663999999946,
      "v": 44
    },
    {
      "midi": 70,
      "hit": false,
      "t": 81998.23660416759,
      "d": 1999.6639999999752,
      "v": 48
    },
    {
      "midi": 72,
      "hit": false,
      "t": 82050.31118750089,
      "d": 1999.6640000000043,
      "v": 48
    },
    {
      "midi": 74,
      "hit": false,
      "t": 82102.38577083423,
      "d": 1999.6640000000043,
      "v": 47
    },
    {
      "midi": 77,
      "hit": false,
      "t": 82154.46035416756,
      "d": 1999.6640000000043,
      "v": 44
    },
    {
      "midi": 58,
      "hit": false,
      "t": 85643.45743750084,
      "d": 249.95799999995506,
      "v": 87
    },
    {
      "midi": 65,
      "hit": false,
      "t": 85893.4154375008,
      "d": 639.9999999999563,
      "v": 99
    },
    {
      "midi": 63,
      "hit": false,
      "t": 86533.41543750075,
      "d": 124.97899999996298,
      "v": 76
    },
    {
      "midi": 44,
      "hit": false,
      "t": 86533.41543750075,
      "d": 1999.663999999888,
      "v": 44
    },
    {
      "midi": 56,
      "hit": false,
      "t": 86543.83035416741,
      "d": 1999.663999999888,
      "v": 46
    },
    {
      "midi": 68,
      "hit": false,
      "t": 86554.24527083407,
      "d": 1999.663999999888,
      "v": 43
    },
    {
      "midi": 70,
      "hit": false,
      "t": 86575.0751041674,
      "d": 1999.6639999999024,
      "v": 43
    },
    {
      "midi": 72,
      "hit": false,
      "t": 86585.49002083406,
      "d": 1999.6639999999024,
      "v": 42
    },
    {
      "midi": 75,
      "hit": false,
      "t": 86595.90493750072,
      "d": 1999.6639999999024,
      "v": 48
    },
    {
      "midi": 62,
      "hit": false,
      "t": 86658.39443750071,
      "d": 124.97899999999208,
      "v": 83
    },
    {
      "midi": 60,
      "hit": false,
      "t": 86783.3734375007,
      "d": 2697.463416666491,
      "v": 75
    },
    {
      "midi": 58,
      "hit": false,
      "t": 89532.91143750053,
      "d": 653.0250000000669,
      "v": 75
    },
    {
      "midi": 60,
      "hit": false,
      "t": 90185.9364375006,
      "d": 551.6730000000389,
      "v": 87
    },
    {
      "midi": 69,
      "hit": false,
      "t": 90737.60943750064,
      "d": 2560.0000000000146,
      "v": 29
    },
    {
      "midi": 53,
      "hit": false,
      "t": 90750.94277083396,
      "d": 2560.0000000000146,
      "v": 33
    },
    {
      "midi": 41,
      "hit": false,
      "t": 90764.2761041673,
      "d": 2560.0000000000146,
      "v": 35
    },
    {
      "midi": 65,
      "hit": false,
      "t": 90777.60943750062,
      "d": 2560.0000000000146,
      "v": 35
    },
    {
      "midi": 60,
      "hit": false,
      "t": 90790.94277083395,
      "d": 2560.0000000000146,
      "v": 37
    },
    {
      "midi": 76,
      "hit": false,
      "t": 98257.60902083384,
      "d": 516.0840000000026,
      "v": 97
    },
    {
      "midi": 64,
      "hit": false,
      "t": 98257.60902083384,
      "d": 1298.8345000000118,
      "v": 87
    },
    {
      "midi": 74,
      "hit": false,
      "t": 98257.60902083384,
      "d": 1298.8345000000118,
      "v": 83
    },
    {
      "midi": 67,
      "hit": false,
      "t": 98257.60902083384,
      "d": 1298.8345000000118,
      "v": 88
    },
    {
      "midi": 60,
      "hit": false,
      "t": 98257.60902083384,
      "d": 1298.8345000000118,
      "v": 89
    },
    {
      "midi": 48,
      "hit": false,
      "t": 98257.60902083384,
      "d": 1298.8345000000118,
      "v": 83
    },
    {
      "midi": 72,
      "hit": false,
      "t": 98257.60902083384,
      "d": 1298.8345000000118,
      "v": 87
    },
    {
      "midi": 76,
      "hit": false,
      "t": 98773.69302083385,
      "d": 516.0840000000026,
      "v": 80
    },
    {
      "midi": 76,
      "hit": false,
      "t": 99289.77702083385,
      "d": 533.3330000000133,
      "v": 52
    },
    {
      "midi": 60,
      "hit": false,
      "t": 99556.44352083385,
      "d": 266.66650000000664,
      "v": 98
    },
    {
      "midi": 67,
      "hit": false,
      "t": 99823.11002083386,
      "d": 266.66650000000664,
      "v": 110
    },
    {
      "midi": 76,
      "hit": false,
      "t": 99823.11002083386,
      "d": 533.3330000000133,
      "v": 69
    },
    {
      "midi": 59,
      "hit": false,
      "t": 100089.77652083387,
      "d": 255.55539583333302,
      "v": 95
    },
    {
      "midi": 76,
      "hit": false,
      "t": 100356.44302083387,
      "d": 516.083999999988,
      "v": 92
    },
    {
      "midi": 41,
      "hit": false,
      "t": 100356.44302083387,
      "d": 1989.073749999996,
      "v": 70
    },
    {
      "midi": 53,
      "hit": false,
      "t": 100367.19477083387,
      "d": 1999.8255000000063,
      "v": 71
    },
    {
      "midi": 57,
      "hit": false,
      "t": 100367.19477083387,
      "d": 1999.8255000000063,
      "v": 72
    },
    {
      "midi": 64,
      "hit": false,
      "t": 100377.94652083387,
      "d": 2010.5772500000166,
      "v": 63
    },
    {
      "midi": 67,
      "hit": false,
      "t": 100377.94652083387,
      "d": 2010.5772500000166,
      "v": 68
    },
    {
      "midi": 69,
      "hit": false,
      "t": 100388.69827083386,
      "d": 2021.329000000027,
      "v": 68
    },
    {
      "midi": 72,
      "hit": false,
      "t": 100388.69827083386,
      "d": 2021.329000000027,
      "v": 56
    },
    {
      "midi": 76,
      "hit": false,
      "t": 100872.52702083386,
      "d": 1032.1680000000051,
      "v": 65
    },
    {
      "midi": 76,
      "hit": false,
      "t": 101904.69502083387,
      "d": 516.0840000000171,
      "v": 78
    },
    {
      "midi": 76,
      "hit": false,
      "t": 102420.77902083388,
      "d": 516.0840000000026,
      "v": 79
    },
    {
      "midi": 71,
      "hit": false,
      "t": 102420.77902083388,
      "d": 2081.5850000000064,
      "v": 48
    },
    {
      "midi": 67,
      "hit": false,
      "t": 102420.77902083388,
      "d": 2081.5850000000064,
      "v": 31
    },
    {
      "midi": 60,
      "hit": false,
      "t": 102420.77902083388,
      "d": 2081.5850000000064,
      "v": 40
    },
    {
      "midi": 48,
      "hit": false,
      "t": 102420.77902083388,
      "d": 2081.5850000000064,
      "v": 43
    },
    {
      "midi": 76,
      "hit": false,
      "t": 102936.86302083389,
      "d": 516.0840000000026,
      "v": 46
    },
    {
      "midi": 76,
      "hit": false,
      "t": 103452.94702083389,
      "d": 516.0840000000026,
      "v": 58
    },
    {
      "midi": 76,
      "hit": false,
      "t": 103969.03102083389,
      "d": 533.3329999999987,
      "v": 80
    },
    {
      "midi": 76,
      "hit": false,
      "t": 104502.36402083389,
      "d": 533.3588333333319,
      "v": 88
    },
    {
      "midi": 64,
      "hit": false,
      "t": 104502.36402083389,
      "d": 2416.170000000013,
      "v": 37
    },
    {
      "midi": 69,
      "hit": false,
      "t": 104502.36402083389,
      "d": 2416.170000000013,
      "v": 42
    },
    {
      "midi": 53,
      "hit": false,
      "t": 104502.36402083389,
      "d": 2416.170000000013,
      "v": 37
    },
    {
      "midi": 41,
      "hit": false,
      "t": 104502.36402083389,
      "d": 2416.170000000013,
      "v": 33
    },
    {
      "midi": 77,
      "hit": false,
      "t": 105084.2100208339,
      "d": 553.3751666666649,
      "v": 97
    },
    {
      "midi": 77,
      "hit": false,
      "t": 105687.8920208339,
      "d": 564.0442500000063,
      "v": 90
    },
    {
      "midi": 72,
      "hit": false,
      "t": 106303.21302083391,
      "d": 615.3209999999963,
      "v": 66
    },
    {
      "midi": 46,
      "hit": false,
      "t": 106918.5340208339,
      "d": 727.2719999999972,
      "v": 50
    },
    {
      "midi": 74,
      "hit": false,
      "t": 106918.5340208339,
      "d": 3700.672562500011,
      "v": 78
    },
    {
      "midi": 53,
      "hit": false,
      "t": 107645.8060208339,
      "d": 249.95799999999872,
      "v": 58
    },
    {
      "midi": 60,
      "hit": false,
      "t": 107895.7640208339,
      "d": 238.77700000000186,
      "v": 74
    },
    {
      "midi": 65,
      "hit": false,
      "t": 108134.5410208339,
      "d": 231.875,
      "v": 91
    },
    {
      "midi": 70,
      "hit": false,
      "t": 108366.4160208339,
      "d": 225.34350000000268,
      "v": 107
    },
    {
      "midi": 72,
      "hit": false,
      "t": 108591.7595208339,
      "d": 225.34350000000268,
      "v": 116
    },
    {
      "midi": 76,
      "hit": false,
      "t": 108817.1030208339,
      "d": 225.34350000000268,
      "v": 93
    },
    {
      "midi": 72,
      "hit": false,
      "t": 109042.44652083391,
      "d": 1487.0257500000007,
      "v": 84
    },
    {
      "midi": 70,
      "hit": false,
      "t": 110888.40952083391,
      "d": 210.51149999999325,
      "v": 92
    },
    {
      "midi": 72,
      "hit": false,
      "t": 111098.9210208339,
      "d": 210.5115000000078,
      "v": 103
    },
    {
      "midi": 74,
      "hit": false,
      "t": 111309.43252083391,
      "d": 499.91599999999744,
      "v": 106
    },
    {
      "midi": 67,
      "hit": false,
      "t": 111309.43252083391,
      "d": 1694.5409999999974,
      "v": 52
    },
    {
      "midi": 60,
      "hit": false,
      "t": 111309.43252083391,
      "d": 1694.5409999999974,
      "v": 56
    },
    {
      "midi": 63,
      "hit": false,
      "t": 111309.43252083391,
      "d": 1694.5409999999974,
      "v": 56
    },
    {
      "midi": 57,
      "hit": false,
      "t": 111309.43252083391,
      "d": 1694.5409999999974,
      "v": 54
    },
    {
      "midi": 45,
      "hit": false,
      "t": 111309.43252083391,
      "d": 1694.5409999999974,
      "v": 56
    },
    {
      "midi": 74,
      "hit": false,
      "t": 111809.34852083391,
      "d": 432.3380000000034,
      "v": 66
    },
    {
      "midi": 74,
      "hit": false,
      "t": 112241.68652083391,
      "d": 390.2179999999935,
      "v": 82
    },
    {
      "midi": 75,
      "hit": false,
      "t": 112631.90452083391,
      "d": 372.06900000000314,
      "v": 100
    },
    {
      "midi": 66,
      "hit": false,
      "t": 113003.97352083391,
      "d": 359.4959999999992,
      "v": 67
    },
    {
      "midi": 72,
      "hit": false,
      "t": 113003.97352083391,
      "d": 359.4959999999992,
      "v": 65
    },
    {
      "midi": 69,
      "hit": false,
      "t": 113003.97352083391,
      "d": 359.4959999999992,
      "v": 71
    },
    {
      "midi": 62,
      "hit": false,
      "t": 113003.97352083391,
      "d": 359.4959999999992,
      "v": 72
    },
    {
      "midi": 50,
      "hit": false,
      "t": 113003.97352083391,
      "d": 359.4959999999992,
      "v": 69
    },
    {
      "midi": 74,
      "hit": false,
      "t": 113003.97352083391,
      "d": 359.4959999999992,
      "v": 104
    },
    {
      "midi": 50,
      "hit": false,
      "t": 113363.46952083391,
      "d": 16.666666666671517,
      "v": 80
    },
    {
      "midi": 72,
      "hit": false,
      "t": 113363.46952083391,
      "d": 400.00000000001455,
      "v": 92
    },
    {
      "midi": 54,
      "hit": false,
      "t": 113380.13618750058,
      "d": 16.666666666671517,
      "v": 76
    },
    {
      "midi": 57,
      "hit": false,
      "t": 113396.80285416725,
      "d": 366.6666666666715,
      "v": 79
    },
    {
      "midi": 38,
      "hit": false,
      "t": 113763.46952083393,
      "d": 415.5409999999829,
      "v": 91
    },
    {
      "midi": 70,
      "hit": false,
      "t": 113763.46952083393,
      "d": 415.5409999999829,
      "v": 83
    },
    {
      "midi": 54,
      "hit": false,
      "t": 113772.12662500059,
      "d": 406.88389583332173,
      "v": 85
    },
    {
      "midi": 57,
      "hit": false,
      "t": 113772.12662500059,
      "d": 406.88389583332173,
      "v": 88
    },
    {
      "midi": 72,
      "hit": false,
      "t": 113780.78372916725,
      "d": 398.2267916666606,
      "v": 81
    },
    {
      "midi": 62,
      "hit": false,
      "t": 113780.78372916725,
      "d": 398.2267916666606,
      "v": 85
    },
    {
      "midi": 69,
      "hit": false,
      "t": 114179.01052083391,
      "d": 412.2516875000001,
      "v": 73
    },
    {
      "midi": 66,
      "hit": false,
      "t": 114179.01052083391,
      "d": 412.2516875000001,
      "v": 82
    },
    {
      "midi": 62,
      "hit": false,
      "t": 114179.01052083391,
      "d": 412.2516875000001,
      "v": 76
    },
    {
      "midi": 57,
      "hit": false,
      "t": 114179.01052083391,
      "d": 412.2516875000001,
      "v": 77
    },
    {
      "midi": 43,
      "hit": false,
      "t": 114600.03352083391,
      "d": 419.0156666666735,
      "v": 76
    },
    {
      "midi": 55,
      "hit": false,
      "t": 114609.55660416724,
      "d": 409.49258333334,
      "v": 72
    },
    {
      "midi": 67,
      "hit": false,
      "t": 114619.07968750058,
      "d": 419.0156666666735,
      "v": 74
    },
    {
      "midi": 69,
      "hit": false,
      "t": 114628.60277083391,
      "d": 390.44641666667303,
      "v": 70
    },
    {
      "midi": 70,
      "hit": false,
      "t": 114638.12585416724,
      "d": 352.3540833333391,
      "v": 65
    },
    {
      "midi": 74,
      "hit": false,
      "t": 114647.64893750058,
      "d": 409.49258333334,
      "v": 68
    },
    {
      "midi": 55,
      "hit": false,
      "t": 115057.14152083392,
      "d": 460.7478541666642,
      "v": 65
    },
    {
      "midi": 70,
      "hit": false,
      "t": 115527.69252083391,
      "d": 476.1450000000041,
      "v": 61
    },
    {
      "midi": 74,
      "hit": false,
      "t": 115527.69252083391,
      "d": 1142.7480000000069,
      "v": 59
    },
    {
      "midi": 53,
      "hit": false,
      "t": 115527.69252083391,
      "d": 1142.7480000000069,
      "v": 57
    },
    {
      "midi": 41,
      "hit": false,
      "t": 115527.69252083391,
      "d": 1142.7480000000069,
      "v": 60
    },
    {
      "midi": 65,
      "hit": false,
      "t": 115527.69252083391,
      "d": 1142.7480000000069,
      "v": 58
    },
    {
      "midi": 69,
      "hit": false,
      "t": 116099.06652083392,
      "d": 571.3739999999962,
      "v": 93
    },
    {
      "midi": 62,
      "hit": false,
      "t": 116670.44052083392,
      "d": 1803.0285000000003,
      "v": 56
    },
    {
      "midi": 72,
      "hit": false,
      "t": 116670.44052083392,
      "d": 1803.0285000000003,
      "v": 55
    },
    {
      "midi": 67,
      "hit": false,
      "t": 116670.44052083392,
      "d": 1818.1800000000076,
      "v": 78
    },
    {
      "midi": 48,
      "hit": false,
      "t": 116670.44052083392,
      "d": 1818.1800000000076,
      "v": 55
    },
    {
      "midi": 36,
      "hit": false,
      "t": 116670.44052083392,
      "d": 1818.1800000000076,
      "v": 48
    },
    {
      "midi": 55,
      "hit": false,
      "t": 118488.62052083392,
      "d": 313.70900000000256,
      "v": 41
    },
    {
      "midi": 67,
      "hit": false,
      "t": 118802.32952083393,
      "d": 225.34350000000268,
      "v": 80
    },
    {
      "midi": 60,
      "hit": false,
      "t": 119027.67302083393,
      "d": 255.55539583333302,
      "v": 50
    },
    {
      "midi": 41,
      "hit": false,
      "t": 119294.33952083394,
      "d": 2246.911333333337,
      "v": 67
    },
    {
      "midi": 53,
      "hit": false,
      "t": 119331.37652083393,
      "d": 2246.911333333337,
      "v": 72
    },
    {
      "midi": 72,
      "hit": false,
      "t": 119356.06785416727,
      "d": 2246.911333333337,
      "v": 67
    },
    {
      "midi": 77,
      "hit": false,
      "t": 119380.75918750059,
      "d": 2246.911333333337,
      "v": 72
    },
    {
      "midi": 65,
      "hit": false,
      "t": 119886.93152083392,
      "d": 592.5920000000042,
      "v": 91
    },
    {
      "midi": 70,
      "hit": false,
      "t": 120479.52352083393,
      "d": 592.5920000000042,
      "v": 101
    },
    {
      "midi": 74,
      "hit": false,
      "t": 121072.11552083393,
      "d": 543.2093333333323,
      "v": 105
    },
    {
      "midi": 75,
      "hit": false,
      "t": 121664.70752083392,
      "d": 640,
      "v": 105
    },
    {
      "midi": 77,
      "hit": false,
      "t": 121664.70752083392,
      "d": 2560,
      "v": 55
    },
    {
      "midi": 68,
      "hit": false,
      "t": 121664.70752083392,
      "d": 2560,
      "v": 49
    },
    {
      "midi": 53,
      "hit": false,
      "t": 121664.70752083392,
      "d": 2560,
      "v": 53
    },
    {
      "midi": 41,
      "hit": false,
      "t": 121664.70752083392,
      "d": 2560,
      "v": 44
    },
    {
      "midi": 74,
      "hit": false,
      "t": 122304.70752083392,
      "d": 640,
      "v": 89
    },
    {
      "midi": 72,
      "hit": false,
      "t": 122944.70752083392,
      "d": 640,
      "v": 84
    },
    {
      "midi": 70,
      "hit": false,
      "t": 123584.70752083392,
      "d": 640,
      "v": 78
    },
    {
      "midi": 46,
      "hit": false,
      "t": 124224.70752083392,
      "d": 2844.611999999979,
      "v": 34
    },
    {
      "midi": 70,
      "hit": false,
      "t": 124224.70752083392,
      "d": 4833.861083333308,
      "v": 84
    },
    {
      "midi": 58,
      "hit": false,
      "t": 124298.78595833392,
      "d": 2770.533562499986,
      "v": 41
    },
    {
      "midi": 72,
      "hit": false,
      "t": 124372.86439583391,
      "d": 2696.455124999993,
      "v": 44
    },
    {
      "midi": 74,
      "hit": false,
      "t": 124446.9428333339,
      "d": 2622.3766875,
      "v": 37
    },
    {
      "midi": 77,
      "hit": false,
      "t": 124521.0212708339,
      "d": 2548.298250000007,
      "v": 35
    }
  ]
}