{
  "jsonPath": "Ambient/Lounge/Engelbert Humperdinck/cant-take-my-eyes-of-you.json",
  "path": "Ambient\\Lounge\\Engelbert Humperdinck\\Cant Take My Eyes of You.mid",
  "name": "Cant Take My Eyes of You",
  "difficulty": "Advanced",
  "bpm": 118.00245445105259,
  "notes": [
    {
      "midi": 27,
      "hit": false,
      "t": 4067.712,
      "d": 639.5523749999998,
      "v": 99
    },
    {
      "midi": 39,
      "hit": false,
      "t": 4067.712,
      "d": 643.52475,
      "v": 121
    },
    {
      "midi": 65,
      "hit": false,
      "t": 4067.712,
      "d": 1839.209625,
      "v": 49
    },
    {
      "midi": 69,
      "hit": false,
      "t": 4067.712,
      "d": 1860.3956249999997,
      "v": 49
    },
    {
      "midi": 72,
      "hit": false,
      "t": 4067.712,
      "d": 1900.1193749999998,
      "v": 49
    },
    {
      "midi": 77,
      "hit": false,
      "t": 4067.712,
      "d": 1900.1193749999998,
      "v": 49
    },
    {
      "midi": 81,
      "hit": false,
      "t": 4067.712,
      "d": 1954.4085,
      "v": 49
    },
    {
      "midi": 27,
      "hit": false,
      "t": 4830.408,
      "d": 94.01287500000035,
      "v": 99
    },
    {
      "midi": 39,
      "hit": false,
      "t": 4830.408,
      "d": 112.55062500000076,
      "v": 121
    },
    {
      "midi": 27,
      "hit": false,
      "t": 5084.640000000001,
      "d": 888.4878749999998,
      "v": 99
    },
    {
      "midi": 39,
      "hit": false,
      "t": 5084.640000000001,
      "d": 891.136125,
      "v": 121
    },
    {
      "midi": 68,
      "hit": false,
      "t": 6018.148125,
      "d": 1953.0843750000004,
      "v": 65
    },
    {
      "midi": 75,
      "hit": false,
      "t": 6020.796375,
      "d": 2006.0493750000005,
      "v": 65
    },
    {
      "midi": 71,
      "hit": false,
      "t": 6034.037625,
      "d": 1974.270375,
      "v": 65
    },
    {
      "midi": 63,
      "hit": false,
      "t": 6035.36175,
      "d": 1976.9186250000002,
      "v": 65
    },
    {
      "midi": 80,
      "hit": false,
      "t": 6036.685875,
      "d": 1974.270375,
      "v": 65
    },
    {
      "midi": 39,
      "hit": false,
      "t": 6101.568000000001,
      "d": 658.0901249999997,
      "v": 121
    },
    {
      "midi": 27,
      "hit": false,
      "t": 6101.568000000001,
      "d": 663.3866250000001,
      "v": 99
    },
    {
      "midi": 27,
      "hit": false,
      "t": 6864.264000000001,
      "d": 129.76425000000017,
      "v": 99
    },
    {
      "midi": 39,
      "hit": false,
      "t": 6864.264000000001,
      "d": 141.68137500000012,
      "v": 121
    },
    {
      "midi": 27,
      "hit": false,
      "t": 7118.496000000001,
      "d": 864.6536249999999,
      "v": 99
    },
    {
      "midi": 39,
      "hit": false,
      "t": 7118.496000000001,
      "d": 877.894875,
      "v": 121
    },
    {
      "midi": 75,
      "hit": false,
      "t": 8042.735250000001,
      "d": 2097.4139999999998,
      "v": 53
    },
    {
      "midi": 79,
      "hit": false,
      "t": 8049.355875,
      "d": 2060.338499999999,
      "v": 53
    },
    {
      "midi": 63,
      "hit": false,
      "t": 8050.68,
      "d": 2086.821,
      "v": 53
    },
    {
      "midi": 67,
      "hit": false,
      "t": 8050.68,
      "d": 2089.46925,
      "v": 53
    },
    {
      "midi": 70,
      "hit": false,
      "t": 8057.300625,
      "d": 2072.255625,
      "v": 53
    },
    {
      "midi": 65,
      "hit": false,
      "t": 8090.40375,
      "d": 283.3627499999993,
      "v": 81
    },
    {
      "midi": 53,
      "hit": false,
      "t": 8116.8862500000005,
      "d": 205.2393750000001,
      "v": 81
    },
    {
      "midi": 65,
      "hit": false,
      "t": 8135.424,
      "d": 206.5634999999993,
      "v": 118
    },
    {
      "midi": 27,
      "hit": false,
      "t": 8135.424000000001,
      "d": 639.5523749999993,
      "v": 99
    },
    {
      "midi": 39,
      "hit": false,
      "t": 8135.424000000001,
      "d": 643.5247499999987,
      "v": 121
    },
    {
      "midi": 77,
      "hit": false,
      "t": 8146.017,
      "d": 230.3977500000001,
      "v": 46
    },
    {
      "midi": 63,
      "hit": false,
      "t": 8389.655999999999,
      "d": 483.3056250000009,
      "v": 118
    },
    {
      "midi": 63,
      "hit": false,
      "t": 8393.628375,
      "d": 197.29462500000045,
      "v": 81
    },
    {
      "midi": 75,
      "hit": false,
      "t": 8406.869625,
      "d": 472.7126250000001,
      "v": 46
    },
    {
      "midi": 51,
      "hit": false,
      "t": 8425.407375,
      "d": 235.69425000000047,
      "v": 80
    },
    {
      "midi": 62,
      "hit": false,
      "t": 8854.423875,
      "d": 284.6868749999994,
      "v": 81
    },
    {
      "midi": 50,
      "hit": false,
      "t": 8892.8235,
      "d": 219.80474999999933,
      "v": 61
    },
    {
      "midi": 27,
      "hit": false,
      "t": 8898.119999999999,
      "d": 94.01287500000035,
      "v": 99
    },
    {
      "midi": 39,
      "hit": false,
      "t": 8898.119999999999,
      "d": 112.55062499999985,
      "v": 121
    },
    {
      "midi": 62,
      "hit": false,
      "t": 8898.12,
      "d": 492.5745000000006,
      "v": 118
    },
    {
      "midi": 74,
      "hit": false,
      "t": 8920.630125,
      "d": 479.3332499999997,
      "v": 46
    },
    {
      "midi": 27,
      "hit": false,
      "t": 9152.351999999999,
      "d": 888.4878750000007,
      "v": 99
    },
    {
      "midi": 39,
      "hit": false,
      "t": 9152.351999999999,
      "d": 891.1361250000009,
      "v": 121
    },
    {
      "midi": 63,
      "hit": false,
      "t": 9361.56375,
      "d": 186.7016250000015,
      "v": 81
    },
    {
      "midi": 51,
      "hit": false,
      "t": 9386.722125,
      "d": 185.3775000000005,
      "v": 75
    },
    {
      "midi": 75,
      "hit": false,
      "t": 9403.935749999999,
      "d": 214.50825000000077,
      "v": 46
    },
    {
      "midi": 63,
      "hit": false,
      "t": 9406.584,
      "d": 222.45299999999952,
      "v": 118
    },
    {
      "midi": 65,
      "hit": false,
      "t": 9625.064625,
      "d": 195.97050000000127,
      "v": 81
    },
    {
      "midi": 53,
      "hit": false,
      "t": 9659.491875000002,
      "d": 185.3775000000005,
      "v": 76
    },
    {
      "midi": 65,
      "hit": false,
      "t": 9660.816,
      "d": 252.9078750000008,
      "v": 118
    },
    {
      "midi": 77,
      "hit": false,
      "t": 9668.76075,
      "d": 227.7494999999999,
      "v": 46
    },
    {
      "midi": 67,
      "hit": false,
      "t": 9880.620750000002,
      "d": 230.3977500000001,
      "v": 81
    },
    {
      "midi": 67,
      "hit": false,
      "t": 9915.048,
      "d": 312.4935000000005,
      "v": 118
    },
    {
      "midi": 55,
      "hit": false,
      "t": 9915.048000000003,
      "d": 189.34987499999988,
      "v": 76
    },
    {
      "midi": 79,
      "hit": false,
      "t": 9922.99275,
      "d": 227.7494999999999,
      "v": 46
    },
    {
      "midi": 63,
      "hit": false,
      "t": 10152.066375,
      "d": 1712.0936249999995,
      "v": 30
    },
    {
      "midi": 67,
      "hit": false,
      "t": 10160.011125,
      "d": 1704.148874999999,
      "v": 30
    },
    {
      "midi": 75,
      "hit": false,
      "t": 10160.011125,
      "d": 1704.148874999999,
      "v": 30
    },
    {
      "midi": 65,
      "hit": false,
      "t": 10163.983500000002,
      "d": 219.80475000000115,
      "v": 81
    },
    {
      "midi": 79,
      "hit": false,
      "t": 10166.63175,
      "d": 1697.5282499999994,
      "v": 30
    },
    {
      "midi": 39,
      "hit": false,
      "t": 10169.28,
      "d": 658.0901250000006,
      "v": 121
    },
    {
      "midi": 27,
      "hit": false,
      "t": 10169.28,
      "d": 663.386625000001,
      "v": 99
    },
    {
      "midi": 65,
      "hit": false,
      "t": 10169.28,
      "d": 295.2798750000002,
      "v": 118
    },
    {
      "midi": 70,
      "hit": false,
      "t": 10170.604125,
      "d": 1693.555875,
      "v": 30
    },
    {
      "midi": 53,
      "hit": false,
      "t": 10186.493625000003,
      "d": 215.83237499999996,
      "v": 81
    },
    {
      "midi": 77,
      "hit": false,
      "t": 10187.81775,
      "d": 251.58374999999978,
      "v": 46
    },
    {
      "midi": 63,
      "hit": false,
      "t": 10423.512,
      "d": 480.6573750000007,
      "v": 118
    },
    {
      "midi": 63,
      "hit": false,
      "t": 10428.808500000003,
      "d": 331.03125,
      "v": 81
    },
    {
      "midi": 75,
      "hit": false,
      "t": 10436.75325,
      "d": 487.27800000000025,
      "v": 46
    },
    {
      "midi": 51,
      "hit": false,
      "t": 10448.670375000003,
      "d": 266.1491249999999,
      "v": 67
    },
    {
      "midi": 62,
      "hit": false,
      "t": 10909.465875000004,
      "d": 370.755000000001,
      "v": 81
    },
    {
      "midi": 74,
      "hit": false,
      "t": 10924.03125,
      "d": 523.0293750000001,
      "v": 46
    },
    {
      "midi": 62,
      "hit": false,
      "t": 10931.976,
      "d": 480.6573750000007,
      "v": 118
    },
    {
      "midi": 27,
      "hit": false,
      "t": 10931.976000000002,
      "d": 129.76425000000017,
      "v": 99
    },
    {
      "midi": 39,
      "hit": false,
      "t": 10931.976000000002,
      "d": 141.68137500000012,
      "v": 121
    },
    {
      "midi": 50,
      "hit": false,
      "t": 10941.244875000004,
      "d": 276.74212500000067,
      "v": 64
    },
    {
      "midi": 27,
      "hit": false,
      "t": 11186.208000000002,
      "d": 864.653624999999,
      "v": 99
    },
    {
      "midi": 39,
      "hit": false,
      "t": 11186.208000000002,
      "d": 877.8948749999981,
      "v": 121
    },
    {
      "midi": 63,
      "hit": false,
      "t": 11411.309250000004,
      "d": 199.94287500000064,
      "v": 81
    },
    {
      "midi": 75,
      "hit": false,
      "t": 11431.171125,
      "d": 226.4253749999989,
      "v": 46
    },
    {
      "midi": 63,
      "hit": false,
      "t": 11440.44,
      "d": 213.18412499999977,
      "v": 118
    },
    {
      "midi": 51,
      "hit": false,
      "t": 11452.357125000004,
      "d": 210.53587499999958,
      "v": 56
    },
    {
      "midi": 77,
      "hit": false,
      "t": 11684.079,
      "d": 230.3977500000001,
      "v": 46
    },
    {
      "midi": 65,
      "hit": false,
      "t": 11686.727250000004,
      "d": 209.2117500000004,
      "v": 81
    },
    {
      "midi": 65,
      "hit": false,
      "t": 11694.672,
      "d": 226.4253750000007,
      "v": 118
    },
    {
      "midi": 53,
      "hit": false,
      "t": 11719.830375000003,
      "d": 197.29462500000045,
      "v": 72
    },
    {
      "midi": 79,
      "hit": false,
      "t": 11934.338625,
      "d": 250.2596250000006,
      "v": 46
    },
    {
      "midi": 67,
      "hit": false,
      "t": 11943.607500000004,
      "d": 230.3977500000001,
      "v": 81
    },
    {
      "midi": 67,
      "hit": false,
      "t": 11948.904,
      "d": 293.95574999999917,
      "v": 118
    },
    {
      "midi": 55,
      "hit": false,
      "t": 11956.848750000003,
      "d": 202.59112500000083,
      "v": 72
    },
    {
      "midi": 27,
      "hit": false,
      "t": 12203.136,
      "d": 639.5523749999993,
      "v": 99
    },
    {
      "midi": 39,
      "hit": false,
      "t": 12203.136,
      "d": 643.5247499999987,
      "v": 121
    },
    {
      "midi": 77,
      "hit": false,
      "t": 12203.136,
      "d": 1900.1193749999966,
      "v": 49
    },
    {
      "midi": 81,
      "hit": false,
      "t": 12203.136,
      "d": 1954.408499999996,
      "v": 49
    },
    {
      "midi": 65,
      "hit": false,
      "t": 12203.136,
      "d": 1900.1193749999948,
      "v": 118
    },
    {
      "midi": 77,
      "hit": false,
      "t": 12208.4325,
      "d": 2251.012499999999,
      "v": 46
    },
    {
      "midi": 53,
      "hit": false,
      "t": 12215.053125000004,
      "d": 1363.8487499999992,
      "v": 72
    },
    {
      "midi": 65,
      "hit": false,
      "t": 12221.673750000004,
      "d": 1761.0862500000003,
      "v": 81
    },
    {
      "midi": 72,
      "hit": false,
      "t": 12445.450875,
      "d": 1641.9149999999972,
      "v": 26
    },
    {
      "midi": 65,
      "hit": false,
      "t": 12449.42325,
      "d": 1592.9223749999983,
      "v": 61
    },
    {
      "midi": 69,
      "hit": false,
      "t": 12450.747374999999,
      "d": 1612.7842499999988,
      "v": 81
    },
    {
      "midi": 27,
      "hit": false,
      "t": 12965.831999999999,
      "d": 94.01287500000035,
      "v": 99
    },
    {
      "midi": 39,
      "hit": false,
      "t": 12965.831999999999,
      "d": 112.55062499999985,
      "v": 121
    },
    {
      "midi": 27,
      "hit": false,
      "t": 13220.063999999998,
      "d": 888.4878750000007,
      "v": 99
    },
    {
      "midi": 39,
      "hit": false,
      "t": 13220.063999999998,
      "d": 891.1361250000009,
      "v": 121
    },
    {
      "midi": 75,
      "hit": false,
      "t": 14156.220374999997,
      "d": 2006.0493749999969,
      "v": 65
    },
    {
      "midi": 80,
      "hit": false,
      "t": 14172.109874999995,
      "d": 1974.270375,
      "v": 65
    },
    {
      "midi": 68,
      "hit": false,
      "t": 14181.378749999994,
      "d": 1901.4434999999994,
      "v": 60
    },
    {
      "midi": 63,
      "hit": false,
      "t": 14195.944124999995,
      "d": 1894.8228749999998,
      "v": 64
    },
    {
      "midi": 71,
      "hit": false,
      "t": 14202.564749999994,
      "d": 1898.795250000001,
      "v": 50
    },
    {
      "midi": 39,
      "hit": false,
      "t": 14236.992,
      "d": 658.0901250000006,
      "v": 121
    },
    {
      "midi": 27,
      "hit": false,
      "t": 14236.992,
      "d": 663.386625000001,
      "v": 99
    },
    {
      "midi": 27,
      "hit": false,
      "t": 14999.688000000002,
      "d": 129.76425000000017,
      "v": 99
    },
    {
      "midi": 39,
      "hit": false,
      "t": 14999.688000000002,
      "d": 141.68137500000012,
      "v": 121
    },
    {
      "midi": 27,
      "hit": false,
      "t": 15253.920000000002,
      "d": 864.653624999999,
      "v": 99
    },
    {
      "midi": 39,
      "hit": false,
      "t": 15253.920000000002,
      "d": 877.8948749999981,
      "v": 121
    },
    {
      "midi": 75,
      "hit": false,
      "t": 16178.159249999993,
      "d": 2097.4139999999898,
      "v": 53
    },
    {
      "midi": 79,
      "hit": false,
      "t": 16184.779874999993,
      "d": 2060.3384999999944,
      "v": 53
    },
    {
      "midi": 70,
      "hit": false,
      "t": 16198.021124999992,
      "d": 1783.5963749999974,
      "v": 44
    },
    {
      "midi": 67,
      "hit": false,
      "t": 16201.993499999991,
      "d": 1775.6516249999968,
      "v": 66
    },
    {
      "midi": 63,
      "hit": false,
      "t": 16204.641749999992,
      "d": 1770.3551249999982,
      "v": 46
    },
    {
      "midi": 65,
      "hit": false,
      "t": 16252.310249999999,
      "d": 240.99075000000084,
      "v": 93
    },
    {
      "midi": 65,
      "hit": false,
      "t": 16270.847999999994,
      "d": 226.4253749999989,
      "v": 115
    },
    {
      "midi": 27,
      "hit": false,
      "t": 16270.848,
      "d": 639.5523750000011,
      "v": 99
    },
    {
      "midi": 39,
      "hit": false,
      "t": 16270.848,
      "d": 643.5247500000023,
      "v": 121
    },
    {
      "midi": 53,
      "hit": false,
      "t": 16278.792749999999,
      "d": 124.46775000000162,
      "v": 58
    },
    {
      "midi": 65,
      "hit": false,
      "t": 16294.68225,
      "d": 205.2393749999992,
      "v": 64
    },
    {
      "midi": 63,
      "hit": false,
      "t": 16525.079999999994,
      "d": 488.60212500000125,
      "v": 115
    },
    {
      "midi": 51,
      "hit": false,
      "t": 16536.997124999998,
      "d": 219.80474999999933,
      "v": 67
    },
    {
      "midi": 63,
      "hit": false,
      "t": 16543.617749999998,
      "d": 484.62975000000006,
      "v": 64
    },
    {
      "midi": 63,
      "hit": false,
      "t": 16548.914249999998,
      "d": 299.25224999999773,
      "v": 93
    },
    {
      "midi": 62,
      "hit": false,
      "t": 17020.302749999995,
      "d": 307.1970000000001,
      "v": 93
    },
    {
      "midi": 62,
      "hit": false,
      "t": 17033.543999999994,
      "d": 475.3608749999985,
      "v": 115
    },
    {
      "midi": 27,
      "hit": false,
      "t": 17033.544,
      "d": 94.01287500000035,
      "v": 99
    },
    {
      "midi": 39,
      "hit": false,
      "t": 17033.544,
      "d": 112.55062499999985,
      "v": 121
    },
    {
      "midi": 50,
      "hit": false,
      "t": 17041.488749999997,
      "d": 230.3977500000001,
      "v": 55
    },
    {
      "midi": 62,
      "hit": false,
      "t": 17052.081749999998,
      "d": 483.3056250000009,
      "v": 64
    },
    {
      "midi": 27,
      "hit": false,
      "t": 17287.776,
      "d": 888.4878749999989,
      "v": 99
    },
    {
      "midi": 39,
      "hit": false,
      "t": 17287.776,
      "d": 891.1361249999973,
      "v": 121
    },
    {
      "midi": 63,
      "hit": false,
      "t": 17516.849624999995,
      "d": 181.40512500000114,
      "v": 93
    },
    {
      "midi": 51,
      "hit": false,
      "t": 17528.766749999995,
      "d": 211.86000000000058,
      "v": 72
    },
    {
      "midi": 63,
      "hit": false,
      "t": 17542.007999999994,
      "d": 209.21174999999857,
      "v": 115
    },
    {
      "midi": 63,
      "hit": false,
      "t": 17551.276875,
      "d": 485.95387499999924,
      "v": 64
    },
    {
      "midi": 65,
      "hit": false,
      "t": 18000.155249999993,
      "d": 210.53587499999776,
      "v": 93
    },
    {
      "midi": 53,
      "hit": false,
      "t": 18000.155249999993,
      "d": 246.28724999999758,
      "v": 76
    },
    {
      "midi": 65,
      "hit": false,
      "t": 18029.285999999993,
      "d": 293.955750000001,
      "v": 115
    },
    {
      "midi": 65,
      "hit": false,
      "t": 18074.306249999998,
      "d": 471.38850000000093,
      "v": 64
    },
    {
      "midi": 63,
      "hit": false,
      "t": 18112.70587499999,
      "d": 160.21912499999598,
      "v": 35
    },
    {
      "midi": 70,
      "hit": false,
      "t": 18114.029999999988,
      "d": 150.95024999999805,
      "v": 37
    },
    {
      "midi": 67,
      "hit": false,
      "t": 18120.650624999987,
      "d": 154.9226249999956,
      "v": 52
    },
    {
      "midi": 63,
      "hit": false,
      "t": 18287.490374999983,
      "d": 946.7493749999994,
      "v": 36
    },
    {
      "midi": 67,
      "hit": false,
      "t": 18295.43512499998,
      "d": 938.8046250000007,
      "v": 36
    },
    {
      "midi": 75,
      "hit": false,
      "t": 18295.43512499998,
      "d": 938.8046250000007,
      "v": 36
    },
    {
      "midi": 79,
      "hit": false,
      "t": 18302.05574999998,
      "d": 932.1840000000011,
      "v": 36
    },
    {
      "midi": 39,
      "hit": false,
      "t": 18304.703999999998,
      "d": 658.0901249999988,
      "v": 121
    },
    {
      "midi": 27,
      "hit": false,
      "t": 18304.703999999998,
      "d": 663.3866249999992,
      "v": 99
    },
    {
      "midi": 70,
      "hit": false,
      "t": 18306.028124999983,
      "d": 928.2116249999999,
      "v": 36
    },
    {
      "midi": 55,
      "hit": false,
      "t": 18509.94337499999,
      "d": 835.5228749999987,
      "v": 66
    },
    {
      "midi": 67,
      "hit": false,
      "t": 18515.239874999992,
      "d": 1284.401249999999,
      "v": 93
    },
    {
      "midi": 67,
      "hit": false,
      "t": 18540.398249999995,
      "d": 1453.8892499999893,
      "v": 115
    },
    {
      "midi": 67,
      "hit": false,
      "t": 18565.556624999997,
      "d": 1281.7530000000006,
      "v": 64
    },
    {
      "midi": 27,
      "hit": false,
      "t": 19067.399999999998,
      "d": 129.76425000000017,
      "v": 99
    },
    {
      "midi": 39,
      "hit": false,
      "t": 19067.399999999998,
      "d": 141.68137500000012,
      "v": 121
    },
    {
      "midi": 27,
      "hit": false,
      "t": 19321.631999999998,
      "d": 864.653624999999,
      "v": 99
    },
    {
      "midi": 39,
      "hit": false,
      "t": 19321.631999999998,
      "d": 877.8948749999981,
      "v": 121
    },
    {
      "midi": 58,
      "hit": false,
      "t": 19321.631999999998,
      "d": 239.66662500000166,
      "v": 127
    },
    {
      "midi": 58,
      "hit": false,
      "t": 19702.98,
      "d": 233.04599999999846,
      "v": 127
    },
    {
      "midi": 58,
      "hit": false,
      "t": 20084.327999999998,
      "d": 254.23199999999997,
      "v": 127
    },
    {
      "midi": 39,
      "hit": false,
      "t": 20338.559999999998,
      "d": 630.2835000000014,
      "v": 121
    },
    {
      "midi": 60,
      "hit": false,
      "t": 20338.559999999998,
      "d": 721.6481249999997,
      "v": 127
    },
    {
      "midi": 67,
      "hit": false,
      "t": 20365.0425,
      "d": 3763.1632500000014,
      "v": 83
    },
    {
      "midi": 70,
      "hit": false,
      "t": 20367.690749999998,
      "d": 3786.9975000000013,
      "v": 83
    },
    {
      "midi": 75,
      "hit": false,
      "t": 20376.959625,
      "d": 3814.8041249999987,
      "v": 83
    },
    {
      "midi": 67,
      "hit": false,
      "t": 20839.07925,
      "d": 76.79925000000003,
      "v": 74
    },
    {
      "midi": 70,
      "hit": false,
      "t": 20847.023999999998,
      "d": 64.88212500000009,
      "v": 100
    },
    {
      "midi": 75,
      "hit": false,
      "t": 20857.617,
      "d": 58.261500000000524,
      "v": 96
    },
    {
      "midi": 39,
      "hit": false,
      "t": 21101.255999999998,
      "d": 136.38487499999974,
      "v": 121
    },
    {
      "midi": 58,
      "hit": false,
      "t": 21101.255999999998,
      "d": 109.90237500000148,
      "v": 127
    },
    {
      "midi": 55,
      "hit": false,
      "t": 21228.372,
      "d": 144.32962500000212,
      "v": 97
    },
    {
      "midi": 39,
      "hit": false,
      "t": 21355.487999999998,
      "d": 631.6076250000006,
      "v": 121
    },
    {
      "midi": 58,
      "hit": false,
      "t": 21355.488,
      "d": 1790.2170000000006,
      "v": 112
    },
    {
      "midi": 67,
      "hit": false,
      "t": 21601.77525,
      "d": 76.79925000000003,
      "v": 74
    },
    {
      "midi": 70,
      "hit": false,
      "t": 21609.719999999998,
      "d": 64.88212500000009,
      "v": 100
    },
    {
      "midi": 75,
      "hit": false,
      "t": 21620.313,
      "d": 58.261500000000524,
      "v": 96
    },
    {
      "midi": 67,
      "hit": false,
      "t": 22110.23925,
      "d": 76.79925000000003,
      "v": 74
    },
    {
      "midi": 39,
      "hit": false,
      "t": 22118.183999999997,
      "d": 123.14362500000061,
      "v": 121
    },
    {
      "midi": 70,
      "hit": false,
      "t": 22118.183999999997,
      "d": 64.88212500000009,
      "v": 100
    },
    {
      "midi": 75,
      "hit": false,
      "t": 22128.777,
      "d": 58.261500000000524,
      "v": 96
    },
    {
      "midi": 39,
      "hit": false,
      "t": 22372.415999999997,
      "d": 590.5597500000003,
      "v": 121
    },
    {
      "midi": 67,
      "hit": false,
      "t": 22872.93525,
      "d": 76.79925000000003,
      "v": 74
    },
    {
      "midi": 70,
      "hit": false,
      "t": 22880.879999999997,
      "d": 64.88212500000009,
      "v": 100
    },
    {
      "midi": 75,
      "hit": false,
      "t": 22891.472999999998,
      "d": 58.261500000000524,
      "v": 96
    },
    {
      "midi": 39,
      "hit": false,
      "t": 23135.111999999997,
      "d": 116.52300000000105,
      "v": 121
    },
    {
      "midi": 39,
      "hit": false,
      "t": 23389.343999999997,
      "d": 689.8691250000011,
      "v": 121
    },
    {
      "midi": 58,
      "hit": false,
      "t": 23389.344,
      "d": 308.5211249999993,
      "v": 127
    },
    {
      "midi": 67,
      "hit": false,
      "t": 23635.63125,
      "d": 76.79925000000003,
      "v": 74
    },
    {
      "midi": 70,
      "hit": false,
      "t": 23643.575999999997,
      "d": 64.88212500000009,
      "v": 100
    },
    {
      "midi": 75,
      "hit": false,
      "t": 23654.168999999998,
      "d": 58.261500000000524,
      "v": 96
    },
    {
      "midi": 58,
      "hit": false,
      "t": 23770.692,
      "d": 279.39037499999904,
      "v": 127
    },
    {
      "midi": 67,
      "hit": false,
      "t": 24144.09525,
      "d": 76.79925000000003,
      "v": 74
    },
    {
      "midi": 46,
      "hit": false,
      "t": 24152.039999999997,
      "d": 268.7973749999983,
      "v": 121
    },
    {
      "midi": 70,
      "hit": false,
      "t": 24152.039999999997,
      "d": 64.88212500000009,
      "v": 100
    },
    {
      "midi": 58,
      "hit": false,
      "t": 24152.039999999997,
      "d": 180.0809999999983,
      "v": 127
    },
    {
      "midi": 75,
      "hit": false,
      "t": 24162.632999999998,
      "d": 58.261500000000524,
      "v": 96
    },
    {
      "midi": 67,
      "hit": false,
      "t": 24393.030749999998,
      "d": 3894.251624999997,
      "v": 83
    },
    {
      "midi": 39,
      "hit": false,
      "t": 24406.271999999997,
      "d": 610.421624999999,
      "v": 121
    },
    {
      "midi": 60,
      "hit": false,
      "t": 24406.271999999997,
      "d": 749.4547500000008,
      "v": 127
    },
    {
      "midi": 70,
      "hit": false,
      "t": 24407.596124999996,
      "d": 3906.168749999997,
      "v": 83
    },
    {
      "midi": 74,
      "hit": false,
      "t": 24424.809749999997,
      "d": 3912.7893749999967,
      "v": 83
    },
    {
      "midi": 67,
      "hit": false,
      "t": 24906.79125,
      "d": 76.79925000000003,
      "v": 74
    },
    {
      "midi": 70,
      "hit": false,
      "t": 24914.735999999997,
      "d": 64.88212500000009,
      "v": 100
    },
    {
      "midi": 74,
      "hit": false,
      "t": 24925.328999999998,
      "d": 58.261500000000524,
      "v": 96
    },
    {
      "midi": 39,
      "hit": false,
      "t": 25168.967999999997,
      "d": 91.36462499999834,
      "v": 121
    },
    {
      "midi": 58,
      "hit": false,
      "t": 25168.967999999997,
      "d": 113.87474999999904,
      "v": 112
    },
    {
      "midi": 55,
      "hit": false,
      "t": 25296.083999999995,
      "d": 177.43274999999994,
      "v": 100
    },
    {
      "midi": 39,
      "hit": false,
      "t": 25423.199999999997,
      "d": 624.987000000001,
      "v": 121
    },
    {
      "midi": 58,
      "hit": false,
      "t": 25550.315999999995,
      "d": 1771.679250000001,
      "v": 106
    },
    {
      "midi": 67,
      "hit": false,
      "t": 25669.48725,
      "d": 76.79925000000003,
      "v": 74
    },
    {
      "midi": 70,
      "hit": false,
      "t": 25677.431999999997,
      "d": 64.88212500000009,
      "v": 100
    },
    {
      "midi": 74,
      "hit": false,
      "t": 25688.024999999998,
      "d": 58.261500000000524,
      "v": 96
    },
    {
      "midi": 67,
      "hit": false,
      "t": 26177.95125,
      "d": 76.79925000000003,
      "v": 74
    },
    {
      "midi": 39,
      "hit": false,
      "t": 26185.895999999997,
      "d": 96.66112499999872,
      "v": 121
    },
    {
      "midi": 70,
      "hit": false,
      "t": 26185.895999999997,
      "d": 64.88212500000009,
      "v": 100
    },
    {
      "midi": 74,
      "hit": false,
      "t": 26196.488999999998,
      "d": 58.261500000000524,
      "v": 96
    },
    {
      "midi": 39,
      "hit": false,
      "t": 26440.127999999997,
      "d": 624.987000000001,
      "v": 121
    },
    {
      "midi": 67,
      "hit": false,
      "t": 26940.647249999998,
      "d": 76.79925000000003,
      "v": 74
    },
    {
      "midi": 70,
      "hit": false,
      "t": 26948.591999999997,
      "d": 64.88212500000009,
      "v": 100
    },
    {
      "midi": 74,
      "hit": false,
      "t": 26959.184999999998,
      "d": 58.261500000000524,
      "v": 96
    },
    {
      "midi": 39,
      "hit": false,
      "t": 27202.823999999997,
      "d": 84.74399999999878,
      "v": 121
    },
    {
      "midi": 39,
      "hit": false,
      "t": 27457.055999999997,
      "d": 697.8138749999998,
      "v": 121
    },
    {
      "midi": 58,
      "hit": false,
      "t": 27457.055999999997,
      "d": 229.0736250000009,
      "v": 127
    },
    {
      "midi": 67,
      "hit": false,
      "t": 27703.343249999998,
      "d": 76.79925000000003,
      "v": 74
    },
    {
      "midi": 70,
      "hit": false,
      "t": 27711.287999999997,
      "d": 64.88212500000009,
      "v": 100
    },
    {
      "midi": 74,
      "hit": false,
      "t": 27721.880999999998,
      "d": 58.261500000000524,
      "v": 96
    },
    {
      "midi": 58,
      "hit": false,
      "t": 27838.404,
      "d": 206.5635000000002,
      "v": 112
    },
    {
      "midi": 67,
      "hit": false,
      "t": 28211.807249999998,
      "d": 76.79925000000003,
      "v": 74
    },
    {
      "midi": 46,
      "hit": false,
      "t": 28219.751999999997,
      "d": 275.4180000000015,
      "v": 121
    },
    {
      "midi": 70,
      "hit": false,
      "t": 28219.751999999997,
      "d": 64.88212500000009,
      "v": 100
    },
    {
      "midi": 58,
      "hit": false,
      "t": 28219.752,
      "d": 158.89500000000044,
      "v": 112
    },
    {
      "midi": 74,
      "hit": false,
      "t": 28230.344999999998,
      "d": 58.261500000000524,
      "v": 96
    },
    {
      "midi": 67,
      "hit": false,
      "t": 28473.983999999993,
      "d": 3732.7083749999983,
      "v": 83
    },
    {
      "midi": 39,
      "hit": false,
      "t": 28473.983999999997,
      "d": 622.3387500000026,
      "v": 121
    },
    {
      "midi": 60,
      "hit": false,
      "t": 28473.984,
      "d": 779.9096250000002,
      "v": 127
    },
    {
      "midi": 70,
      "hit": false,
      "t": 28485.901124999993,
      "d": 3743.301374999999,
      "v": 83
    },
    {
      "midi": 73,
      "hit": false,
      "t": 28517.68012499999,
      "d": 3712.8464999999997,
      "v": 83
    },
    {
      "midi": 67,
      "hit": false,
      "t": 28974.503249999998,
      "d": 76.79925000000003,
      "v": 74
    },
    {
      "midi": 70,
      "hit": false,
      "t": 28982.447999999997,
      "d": 64.88212500000009,
      "v": 100
    },
    {
      "midi": 73,
      "hit": false,
      "t": 28993.040999999997,
      "d": 58.261500000000524,
      "v": 96
    },
    {
      "midi": 39,
      "hit": false,
      "t": 29236.68,
      "d": 86.0681250000016,
      "v": 121
    },
    {
      "midi": 58,
      "hit": false,
      "t": 29236.68,
      "d": 131.088375000003,
      "v": 96
    },
    {
      "midi": 60,
      "hit": false,
      "t": 29363.796000000002,
      "d": 104.6058750000011,
      "v": 97
    },
    {
      "midi": 39,
      "hit": false,
      "t": 29490.912,
      "d": 613.069875000001,
      "v": 121
    },
    {
      "midi": 58,
      "hit": false,
      "t": 29490.912000000004,
      "d": 1904.0917499999996,
      "v": 96
    },
    {
      "midi": 67,
      "hit": false,
      "t": 29737.199249999998,
      "d": 76.79925000000003,
      "v": 74
    },
    {
      "midi": 70,
      "hit": false,
      "t": 29745.143999999997,
      "d": 64.88212500000009,
      "v": 100
    },
    {
      "midi": 73,
      "hit": false,
      "t": 29755.736999999997,
      "d": 58.261500000000524,
      "v": 96
    },
    {
      "midi": 67,
      "hit": false,
      "t": 30245.663249999998,
      "d": 76.79925000000003,
      "v": 74
    },
    {
      "midi": 70,
      "hit": false,
      "t": 30253.607999999997,
      "d": 64.88212500000009,
      "v": 100
    },
    {
      "midi": 39,
      "hit": false,
      "t": 30253.608,
      "d": 113.87474999999904,
      "v": 121
    },
    {
      "midi": 73,
      "hit": false,
      "t": 30264.200999999997,
      "d": 58.261500000000524,
      "v": 96
    },
    {
      "midi": 39,
      "hit": false,
      "t": 30507.84,
      "d": 589.2356250000012,
      "v": 121
    },
    {
      "midi": 67,
      "hit": false,
      "t": 31008.359249999998,
      "d": 76.79925000000003,
      "v": 74
    },
    {
      "midi": 70,
      "hit": false,
      "t": 31016.303999999996,
      "d": 64.88212500000009,
      "v": 100
    },
    {
      "midi": 73,
      "hit": false,
      "t": 31026.896999999997,
      "d": 58.261500000000524,
      "v": 96
    },
    {
      "midi": 39,
      "hit": false,
      "t": 31270.536,
      "d": 101.9576249999991,
      "v": 121
    },
    {
      "midi": 39,
      "hit": false,
      "t": 31524.768,
      "d": 538.9188749999994,
      "v": 121
    },
    {
      "midi": 58,
      "hit": false,
      "t": 31524.768000000004,
      "d": 231.72187499999927,
      "v": 127
    },
    {
      "midi": 67,
      "hit": false,
      "t": 31771.055249999998,
      "d": 76.79925000000003,
      "v": 74
    },
    {
      "midi": 70,
      "hit": false,
      "t": 31778.999999999996,
      "d": 64.88212500000009,
      "v": 100
    },
    {
      "midi": 56,
      "hit": false,
      "t": 31779.000000000004,
      "d": 87.39225000000079,
      "v": 94
    },
    {
      "midi": 73,
      "hit": false,
      "t": 31789.592999999997,
      "d": 58.261500000000524,
      "v": 96
    },
    {
      "midi": 58,
      "hit": false,
      "t": 32033.232000000004,
      "d": 254.23199999999997,
      "v": 83
    },
    {
      "midi": 67,
      "hit": false,
      "t": 32279.519249999998,
      "d": 76.79925000000003,
      "v": 74
    },
    {
      "midi": 70,
      "hit": false,
      "t": 32287.463999999996,
      "d": 64.88212500000009,
      "v": 100
    },
    {
      "midi": 46,
      "hit": false,
      "t": 32287.464,
      "d": 254.23199999999997,
      "v": 127
    },
    {
      "midi": 56,
      "hit": false,
      "t": 32287.464000000004,
      "d": 210.5358750000014,
      "v": 112
    },
    {
      "midi": 73,
      "hit": false,
      "t": 32298.056999999997,
      "d": 58.261500000000524,
      "v": 96
    },
    {
      "midi": 63,
      "hit": false,
      "t": 32528.45474999999,
      "d": 3953.837249999997,
      "v": 83
    },
    {
      "midi": 44,
      "hit": false,
      "t": 32541.696,
      "d": 594.5321250000015,
      "v": 127
    },
    {
      "midi": 58,
      "hit": false,
      "t": 32541.696000000004,
      "d": 701.7862499999974,
      "v": 106
    },
    {
      "midi": 68,
      "hit": false,
      "t": 32544.34424999999,
      "d": 3945.892499999991,
      "v": 83
    },
    {
      "midi": 72,
      "hit": false,
      "t": 32557.58549999999,
      "d": 3930.0029999999933,
      "v": 83
    },
    {
      "midi": 63,
      "hit": false,
      "t": 33042.21525,
      "d": 76.79925000000367,
      "v": 74
    },
    {
      "midi": 68,
      "hit": false,
      "t": 33050.16,
      "d": 64.88212500000373,
      "v": 100
    },
    {
      "midi": 72,
      "hit": false,
      "t": 33060.753000000004,
      "d": 58.261500000000524,
      "v": 96
    },
    {
      "midi": 44,
      "hit": false,
      "t": 33304.392,
      "d": 105.93000000000029,
      "v": 127
    },
    {
      "midi": 56,
      "hit": false,
      "t": 33304.392,
      "d": 123.14362499999697,
      "v": 83
    },
    {
      "midi": 58,
      "hit": false,
      "t": 33431.507999999994,
      "d": 143.0054999999993,
      "v": 112
    },
    {
      "midi": 56,
      "hit": false,
      "t": 33558.623999999996,
      "d": 1886.8781249999956,
      "v": 112
    },
    {
      "midi": 44,
      "hit": false,
      "t": 33558.624,
      "d": 602.4768750000003,
      "v": 127
    },
    {
      "midi": 63,
      "hit": false,
      "t": 33804.911250000005,
      "d": 76.79925000000367,
      "v": 74
    },
    {
      "midi": 68,
      "hit": false,
      "t": 33812.85600000001,
      "d": 64.88212500000373,
      "v": 100
    },
    {
      "midi": 72,
      "hit": false,
      "t": 33823.44900000001,
      "d": 58.261500000000524,
      "v": 96
    },
    {
      "midi": 63,
      "hit": false,
      "t": 34313.37525000001,
      "d": 76.79925000000367,
      "v": 74
    },
    {
      "midi": 44,
      "hit": false,
      "t": 34321.32000000001,
      "d": 121.81949999999779,
      "v": 127
    },
    {
      "midi": 68,
      "hit": false,
      "t": 34321.320000000014,
      "d": 64.88212500000373,
      "v": 100
    },
    {
      "midi": 72,
      "hit": false,
      "t": 34331.913000000015,
      "d": 58.261500000000524,
      "v": 96
    },
    {
      "midi": 44,
      "hit": false,
      "t": 34575.552,
      "d": 626.3111250000002,
      "v": 127
    },
    {
      "midi": 63,
      "hit": false,
      "t": 35076.071250000015,
      "d": 76.79925000000367,
      "v": 74
    },
    {
      "midi": 68,
      "hit": false,
      "t": 35084.01600000002,
      "d": 64.88212500000373,
      "v": 100
    },
    {
      "midi": 72,
      "hit": false,
      "t": 35094.60900000002,
      "d": 58.261500000000524,
      "v": 96
    },
    {
      "midi": 44,
      "hit": false,
      "t": 35338.24800000001,
      "d": 123.14362499999697,
      "v": 127
    },
    {
      "midi": 56,
      "hit": false,
      "t": 35592.47999999999,
      "d": 282.03862500000105,
      "v": 127
    },
    {
      "midi": 44,
      "hit": false,
      "t": 35592.48,
      "d": 603.8009999999995,
      "v": 127
    },
    {
      "midi": 63,
      "hit": false,
      "t": 35838.76725000002,
      "d": 76.79925000000367,
      "v": 74
    },
    {
      "midi": 68,
      "hit": false,
      "t": 35846.71200000002,
      "d": 64.88212500000373,
      "v": 100
    },
    {
      "midi": 72,
      "hit": false,
      "t": 35857.30500000002,
      "d": 58.261500000000524,
      "v": 96
    },
    {
      "midi": 56,
      "hit": false,
      "t": 35973.82799999999,
      "d": 233.0460000000021,
      "v": 127
    },
    {
      "midi": 63,
      "hit": false,
      "t": 36347.231250000026,
      "d": 76.79925000000367,
      "v": 74
    },
    {
      "midi": 56,
      "hit": false,
      "t": 36355.17599999999,
      "d": 166.83974999999919,
      "v": 127
    },
    {
      "midi": 39,
      "hit": false,
      "t": 36355.176,
      "d": 275.4180000000051,
      "v": 121
    },
    {
      "midi": 68,
      "hit": false,
      "t": 36355.17600000003,
      "d": 64.88212500000373,
      "v": 100
    },
    {
      "midi": 72,
      "hit": false,
      "t": 36365.76900000003,
      "d": 58.261500000000524,
      "v": 96
    },
    {
      "midi": 63,
      "hit": false,
      "t": 36580.277249999985,
      "d": 3898.224000000002,
      "v": 83
    },
    {
      "midi": 68,
      "hit": false,
      "t": 36592.194374999985,
      "d": 3894.2516250000044,
      "v": 83
    },
    {
      "midi": 71,
      "hit": false,
      "t": 36605.435624999984,
      "d": 3912.7893750000076,
      "v": 83
    },
    {
      "midi": 58,
      "hit": false,
      "t": 36609.40799999999,
      "d": 732.2411250000005,
      "v": 127
    },
    {
      "midi": 44,
      "hit": false,
      "t": 36609.408,
      "d": 594.5321250000052,
      "v": 127
    },
    {
      "midi": 63,
      "hit": false,
      "t": 37109.92725000003,
      "d": 76.79925000000367,
      "v": 74
    },
    {
      "midi": 68,
      "hit": false,
      "t": 37117.87200000003,
      "d": 64.88212500000373,
      "v": 100
    },
    {
      "midi": 71,
      "hit": false,
      "t": 37128.46500000003,
      "d": 58.261500000000524,
      "v": 96
    },
    {
      "midi": 56,
      "hit": false,
      "t": 37372.10399999999,
      "d": 99.30937499999709,
      "v": 112
    },
    {
      "midi": 44,
      "hit": false,
      "t": 37372.10400000001,
      "d": 105.93000000000029,
      "v": 127
    },
    {
      "midi": 58,
      "hit": false,
      "t": 37499.21999999999,
      "d": 123.14362499999697,
      "v": 112
    },
    {
      "midi": 56,
      "hit": false,
      "t": 37626.33599999998,
      "d": 1889.5263750000013,
      "v": 127
    },
    {
      "midi": 44,
      "hit": false,
      "t": 37626.33600000001,
      "d": 602.4768750000003,
      "v": 127
    },
    {
      "midi": 63,
      "hit": false,
      "t": 37872.62325000003,
      "d": 76.79925000000367,
      "v": 74
    },
    {
      "midi": 68,
      "hit": false,
      "t": 37880.568000000036,
      "d": 64.88212500000373,
      "v": 100
    },
    {
      "midi": 71,
      "hit": false,
      "t": 37891.16100000004,
      "d": 58.261500000000524,
      "v": 96
    },
    {
      "midi": 63,
      "hit": false,
      "t": 38381.08725000004,
      "d": 76.79925000000367,
      "v": 74
    },
    {
      "midi": 44,
      "hit": false,
      "t": 38389.032000000014,
      "d": 121.81949999999779,
      "v": 127
    },
    {
      "midi": 68,
      "hit": false,
      "t": 38389.03200000004,
      "d": 64.88212500000373,
      "v": 100
    },
    {
      "midi": 71,
      "hit": false,
      "t": 38399.625000000044,
      "d": 58.261500000000524,
      "v": 96
    },
    {
      "midi": 44,
      "hit": false,
      "t": 38643.26400000001,
      "d": 626.3111250000002,
      "v": 127
    },
    {
      "midi": 63,
      "hit": false,
      "t": 39143.783250000044,
      "d": 76.79925000000367,
      "v": 74
    },
    {
      "midi": 68,
      "hit": false,
      "t": 39151.72800000005,
      "d": 64.88212500000373,
      "v": 100
    },
    {
      "midi": 71,
      "hit": false,
      "t": 39162.32100000005,
      "d": 58.261500000000524,
      "v": 96
    },
    {
      "midi": 44,
      "hit": false,
      "t": 39405.960000000014,
      "d": 123.14362499999697,
      "v": 127
    },
    {
      "midi": 56,
      "hit": false,
      "t": 39660.19199999998,
      "d": 272.7697499999995,
      "v": 127
    },
    {
      "midi": 44,
      "hit": false,
      "t": 39660.19200000001,
      "d": 603.8009999999995,
      "v": 127
    },
    {
      "midi": 63,
      "hit": false,
      "t": 39906.47925000005,
      "d": 76.79925000000367,
      "v": 74
    },
    {
      "midi": 68,
      "hit": false,
      "t": 39914.42400000005,
      "d": 64.88212500000373,
      "v": 100
    },
    {
      "midi": 71,
      "hit": false,
      "t": 39925.01700000005,
      "d": 58.261500000000524,
      "v": 96
    },
    {
      "midi": 56,
      "hit": false,
      "t": 40041.53999999998,
      "d": 195.97050000000309,
      "v": 127
    },
    {
      "midi": 63,
      "hit": false,
      "t": 40414.943250000055,
      "d": 76.79925000000367,
      "v": 74
    },
    {
      "midi": 56,
      "hit": false,
      "t": 40422.887999999984,
      "d": 146.97787499999686,
      "v": 112
    },
    {
      "midi": 44,
      "hit": false,
      "t": 40422.888000000006,
      "d": 275.4180000000051,
      "v": 121
    },
    {
      "midi": 68,
      "hit": false,
      "t": 40422.88800000006,
      "d": 64.88212500000373,
      "v": 100
    },
    {
      "midi": 71,
      "hit": false,
      "t": 40433.48100000006,
      "d": 58.261500000000524,
      "v": 96
    },
    {
      "midi": 56,
      "hit": false,
      "t": 40677.11999999998,
      "d": 782.5578750000059,
      "v": 112
    },
    {
      "midi": 39,
      "hit": false,
      "t": 40677.12000000001,
      "d": 622.3387500000026,
      "v": 121
    },
    {
      "midi": 63,
      "hit": false,
      "t": 40685.06474999999,
      "d": 3828.0453750000015,
      "v": 83
    },
    {
      "midi": 67,
      "hit": false,
      "t": 40707.57487499999,
      "d": 3810.8317499999976,
      "v": 83
    },
    {
      "midi": 70,
      "hit": false,
      "t": 40715.51962499999,
      "d": 3847.9072499999966,
      "v": 83
    },
    {
      "midi": 63,
      "hit": false,
      "t": 41177.63925000006,
      "d": 76.79925000000367,
      "v": 74
    },
    {
      "midi": 67,
      "hit": false,
      "t": 41185.58400000006,
      "d": 64.88212500000373,
      "v": 100
    },
    {
      "midi": 70,
      "hit": false,
      "t": 41196.17700000006,
      "d": 58.261500000000524,
      "v": 96
    },
    {
      "midi": 55,
      "hit": false,
      "t": 41439.815999999984,
      "d": 104.6058750000011,
      "v": 127
    },
    {
      "midi": 39,
      "hit": false,
      "t": 41439.81600000001,
      "d": 86.06812499999796,
      "v": 121
    },
    {
      "midi": 53,
      "hit": false,
      "t": 41566.931999999986,
      "d": 154.92262499999924,
      "v": 112
    },
    {
      "midi": 56,
      "hit": false,
      "t": 41694.04799999999,
      "d": 278.0662499999962,
      "v": 127
    },
    {
      "midi": 39,
      "hit": false,
      "t": 41694.04800000001,
      "d": 613.069875000001,
      "v": 121
    },
    {
      "midi": 63,
      "hit": false,
      "t": 41940.33525000006,
      "d": 76.79925000000367,
      "v": 74
    },
    {
      "midi": 55,
      "hit": false,
      "t": 41948.279999999984,
      "d": 1655.15625,
      "v": 127
    },
    {
      "midi": 67,
      "hit": false,
      "t": 41948.280000000064,
      "d": 64.88212500000373,
      "v": 100
    },
    {
      "midi": 70,
      "hit": false,
      "t": 41958.873000000065,
      "d": 58.261500000000524,
      "v": 96
    },
    {
      "midi": 63,
      "hit": false,
      "t": 42448.79925000007,
      "d": 76.79925000000367,
      "v": 74
    },
    {
      "midi": 39,
      "hit": false,
      "t": 42456.74400000001,
      "d": 113.87475000000268,
      "v": 121
    },
    {
      "midi": 67,
      "hit": false,
      "t": 42456.74400000007,
      "d": 64.88212500000373,
      "v": 100
    },
    {
      "midi": 70,
      "hit": false,
      "t": 42467.33700000007,
      "d": 58.261500000000524,
      "v": 96
    },
    {
      "midi": 39,
      "hit": false,
      "t": 42710.97600000002,
      "d": 589.2356250000012,
      "v": 121
    },
    {
      "midi": 63,
      "hit": false,
      "t": 43211.49525000007,
      "d": 76.79925000000367,
      "v": 74
    },
    {
      "midi": 67,
      "hit": false,
      "t": 43219.440000000075,
      "d": 64.88212500000373,
      "v": 100
    },
    {
      "midi": 70,
      "hit": false,
      "t": 43230.033000000076,
      "d": 58.261500000000524,
      "v": 96
    },
    {
      "midi": 39,
      "hit": false,
      "t": 43473.67200000002,
      "d": 101.95762500000274,
      "v": 121
    },
    {
      "midi": 55,
      "hit": false,
      "t": 43727.90399999999,
      "d": 289.98337500000343,
      "v": 127
    },
    {
      "midi": 39,
      "hit": false,
      "t": 43727.904000000024,
      "d": 538.918875000003,
      "v": 121
    },
    {
      "midi": 63,
      "hit": false,
      "t": 43974.191250000076,
      "d": 76.79925000000367,
      "v": 74
    },
    {
      "midi": 67,
      "hit": false,
      "t": 43982.13600000008,
      "d": 64.88212500000373,
      "v": 100
    },
    {
      "midi": 70,
      "hit": false,
      "t": 43992.72900000008,
      "d": 58.261500000000524,
      "v": 96
    },
    {
      "midi": 55,
      "hit": false,
      "t": 44109.25199999999,
      "d": 264.8249999999971,
      "v": 127
    },
    {
      "midi": 63,
      "hit": false,
      "t": 44482.65525000008,
      "d": 76.79925000000367,
      "v": 74
    },
    {
      "midi": 55,
      "hit": false,
      "t": 44490.59999999999,
      "d": 140.35725000000093,
      "v": 127
    },
    {
      "midi": 46,
      "hit": false,
      "t": 44490.60000000003,
      "d": 254.2320000000036,
      "v": 127
    },
    {
      "midi": 67,
      "hit": false,
      "t": 44490.600000000086,
      "d": 64.88212500000373,
      "v": 100
    },
    {
      "midi": 70,
      "hit": false,
      "t": 44501.19300000009,
      "d": 58.261500000000524,
      "v": 96
    },
    {
      "midi": 65,
      "hit": false,
      "t": 44738.21137499999,
      "d": 1937.1948750000083,
      "v": 83
    },
    {
      "midi": 55,
      "hit": false,
      "t": 44744.831999999995,
      "d": 701.7862499999974,
      "v": 127
    },
    {
      "midi": 39,
      "hit": false,
      "t": 44744.83200000003,
      "d": 622.3387500000026,
      "v": 121
    },
    {
      "midi": 69,
      "hit": false,
      "t": 44746.156124999994,
      "d": 1897.4711250000037,
      "v": 83
    },
    {
      "midi": 72,
      "hit": false,
      "t": 44754.100875,
      "d": 1933.2225000000035,
      "v": 83
    },
    {
      "midi": 51,
      "hit": false,
      "t": 44771.31449999999,
      "d": 1919.981249999997,
      "v": 127
    },
    {
      "midi": 60,
      "hit": false,
      "t": 44771.31449999999,
      "d": 1919.981249999997,
      "v": 127
    },
    {
      "midi": 65,
      "hit": false,
      "t": 44771.31449999999,
      "d": 1919.981249999997,
      "v": 127
    },
    {
      "midi": 69,
      "hit": false,
      "t": 44771.31449999999,
      "d": 1919.981249999997,
      "v": 127
    },
    {
      "midi": 65,
      "hit": false,
      "t": 45245.35125000009,
      "d": 76.79925000000367,
      "v": 74
    },
    {
      "midi": 69,
      "hit": false,
      "t": 45253.29600000009,
      "d": 64.88212500000373,
      "v": 100
    },
    {
      "midi": 72,
      "hit": false,
      "t": 45263.88900000009,
      "d": 58.261500000000524,
      "v": 96
    },
    {
      "midi": 53,
      "hit": false,
      "t": 45507.52799999999,
      "d": 109.90237499999785,
      "v": 92
    },
    {
      "midi": 39,
      "hit": false,
      "t": 45507.528000000035,
      "d": 86.06812499999796,
      "v": 121
    },
    {
      "midi": 55,
      "hit": false,
      "t": 45634.643999999986,
      "d": 132.41249999999854,
      "v": 127
    },
    {
      "midi": 53,
      "hit": false,
      "t": 45761.75999999999,
      "d": 1863.0438749999958,
      "v": 112
    },
    {
      "midi": 39,
      "hit": false,
      "t": 45761.76000000003,
      "d": 613.069875000001,
      "v": 121
    },
    {
      "midi": 65,
      "hit": false,
      "t": 46008.04725000009,
      "d": 76.79925000000367,
      "v": 74
    },
    {
      "midi": 69,
      "hit": false,
      "t": 46015.99200000009,
      "d": 64.88212500000373,
      "v": 100
    },
    {
      "midi": 72,
      "hit": false,
      "t": 46026.585000000094,
      "d": 58.261500000000524,
      "v": 96
    },
    {
      "midi": 65,
      "hit": false,
      "t": 46516.5112500001,
      "d": 76.79925000000367,
      "v": 74
    },
    {
      "midi": 39,
      "hit": false,
      "t": 46524.456000000035,
      "d": 113.87475000000268,
      "v": 121
    },
    {
      "midi": 69,
      "hit": false,
      "t": 46524.4560000001,
      "d": 64.88212500000373,
      "v": 100
    },
    {
      "midi": 72,
      "hit": false,
      "t": 46535.0490000001,
      "d": 58.261500000000524,
      "v": 96
    },
    {
      "midi": 63,
      "hit": false,
      "t": 46758.826125,
      "d": 1922.6295000000027,
      "v": 83
    },
    {
      "midi": 68,
      "hit": false,
      "t": 46766.770875,
      "d": 1917.3329999999987,
      "v": 83
    },
    {
      "midi": 51,
      "hit": false,
      "t": 46773.39149999999,
      "d": 1832.589,
      "v": 127
    },
    {
      "midi": 59,
      "hit": false,
      "t": 46773.39149999999,
      "d": 1832.589,
      "v": 127
    },
    {
      "midi": 63,
      "hit": false,
      "t": 46774.71562499999,
      "d": 1831.2648750000008,
      "v": 127
    },
    {
      "midi": 68,
      "hit": false,
      "t": 46776.03974999999,
      "d": 1829.9407500000016,
      "v": 127
    },
    {
      "midi": 39,
      "hit": false,
      "t": 46778.68800000004,
      "d": 589.2356250000012,
      "v": 121
    },
    {
      "midi": 71,
      "hit": false,
      "t": 46814.439375,
      "d": 1873.6368749999965,
      "v": 83
    },
    {
      "midi": 63,
      "hit": false,
      "t": 47279.2072500001,
      "d": 76.79925000000367,
      "v": 74
    },
    {
      "midi": 68,
      "hit": false,
      "t": 47287.152000000104,
      "d": 64.88212500000373,
      "v": 100
    },
    {
      "midi": 71,
      "hit": false,
      "t": 47297.745000000104,
      "d": 58.261500000000524,
      "v": 96
    },
    {
      "midi": 39,
      "hit": false,
      "t": 47541.38400000004,
      "d": 101.95762500000274,
      "v": 121
    },
    {
      "midi": 53,
      "hit": false,
      "t": 47795.61599999998,
      "d": 774.6131250000035,
      "v": 120
    },
    {
      "midi": 39,
      "hit": false,
      "t": 47795.616000000045,
      "d": 538.918875000003,
      "v": 121
    },
    {
      "midi": 63,
      "hit": false,
      "t": 48041.903250000105,
      "d": 76.79925000000367,
      "v": 74
    },
    {
      "midi": 68,
      "hit": false,
      "t": 48049.84800000011,
      "d": 64.88212500000373,
      "v": 100
    },
    {
      "midi": 71,
      "hit": false,
      "t": 48060.44100000011,
      "d": 58.261500000000524,
      "v": 96
    },
    {
      "midi": 63,
      "hit": false,
      "t": 48550.36725000011,
      "d": 76.79925000000367,
      "v": 74
    },
    {
      "midi": 51,
      "hit": false,
      "t": 48558.31199999998,
      "d": 105.93000000000029,
      "v": 127
    },
    {
      "midi": 46,
      "hit": false,
      "t": 48558.31200000005,
      "d": 254.2320000000036,
      "v": 127
    },
    {
      "midi": 68,
      "hit": false,
      "t": 48558.312000000114,
      "d": 64.88212500000373,
      "v": 100
    },
    {
      "midi": 71,
      "hit": false,
      "t": 48568.905000000115,
      "d": 58.261500000000524,
      "v": 96
    },
    {
      "midi": 50,
      "hit": false,
      "t": 48685.427999999985,
      "d": 143.0054999999993,
      "v": 112
    },
    {
      "midi": 65,
      "hit": false,
      "t": 48760.90312499999,
      "d": 309.84525000001304,
      "v": 127
    },
    {
      "midi": 53,
      "hit": false,
      "t": 48801.950999999994,
      "d": 225.1012499999997,
      "v": 100
    },
    {
      "midi": 65,
      "hit": false,
      "t": 48805.92337499999,
      "d": 225.1012499999997,
      "v": 127
    },
    {
      "midi": 63,
      "hit": false,
      "t": 48811.219874999995,
      "d": 3914.113499999992,
      "v": 83
    },
    {
      "midi": 53,
      "hit": false,
      "t": 48812.54399999999,
      "d": 760.0477499999979,
      "v": 120
    },
    {
      "midi": 39,
      "hit": false,
      "t": 48812.54400000005,
      "d": 622.3387500000026,
      "v": 121
    },
    {
      "midi": 67,
      "hit": false,
      "t": 48815.19224999999,
      "d": 3896.8998749999955,
      "v": 83
    },
    {
      "midi": 70,
      "hit": false,
      "t": 48820.48874999999,
      "d": 3887.631000000001,
      "v": 83
    },
    {
      "midi": 63,
      "hit": false,
      "t": 49069.42424999999,
      "d": 221.12887499999488,
      "v": 127
    },
    {
      "midi": 51,
      "hit": false,
      "t": 49072.07249999999,
      "d": 226.4253749999989,
      "v": 127
    },
    {
      "midi": 63,
      "hit": false,
      "t": 49115.768625000004,
      "d": 129.76425000000017,
      "v": 112
    },
    {
      "midi": 63,
      "hit": false,
      "t": 49313.063250000116,
      "d": 76.79925000000367,
      "v": 74
    },
    {
      "midi": 67,
      "hit": false,
      "t": 49321.00800000012,
      "d": 64.88212500000373,
      "v": 100
    },
    {
      "midi": 70,
      "hit": false,
      "t": 49331.60100000012,
      "d": 58.261500000000524,
      "v": 96
    },
    {
      "midi": 62,
      "hit": false,
      "t": 49546.10924999999,
      "d": 250.25962499999878,
      "v": 127
    },
    {
      "midi": 50,
      "hit": false,
      "t": 49546.10924999999,
      "d": 258.20437500000116,
      "v": 112
    },
    {
      "midi": 51,
      "hit": false,
      "t": 49575.23999999998,
      "d": 90.0405000000028,
      "v": 127
    },
    {
      "midi": 39,
      "hit": false,
      "t": 49575.240000000056,
      "d": 86.06812499999796,
      "v": 121
    },
    {
      "midi": 62,
      "hit": false,
      "t": 49577.88825,
      "d": 162.86737500000163,
      "v": 100
    },
    {
      "midi": 53,
      "hit": false,
      "t": 49702.355999999985,
      "d": 132.41249999999854,
      "v": 100
    },
    {
      "midi": 51,
      "hit": false,
      "t": 49829.47199999999,
      "d": 1881.581624999999,
      "v": 127
    },
    {
      "midi": 39,
      "hit": false,
      "t": 49829.47200000005,
      "d": 613.069875000001,
      "v": 121
    },
    {
      "midi": 63,
      "hit": false,
      "t": 50069.138624999985,
      "d": 244.96312499999476,
      "v": 127
    },
    {
      "midi": 51,
      "hit": false,
      "t": 50073.11099999998,
      "d": 248.9354999999996,
      "v": 127
    },
    {
      "midi": 63,
      "hit": false,
      "t": 50075.75925000012,
      "d": 76.79925000000367,
      "v": 74
    },
    {
      "midi": 67,
      "hit": false,
      "t": 50083.70400000012,
      "d": 64.88212500000373,
      "v": 100
    },
    {
      "midi": 63,
      "hit": false,
      "t": 50089.0005,
      "d": 191.99812499999825,
      "v": 127
    },
    {
      "midi": 70,
      "hit": false,
      "t": 50094.29700000012,
      "d": 58.261500000000524,
      "v": 96
    },
    {
      "midi": 65,
      "hit": false,
      "t": 50564.361375,
      "d": 226.4253749999989,
      "v": 127
    },
    {
      "midi": 53,
      "hit": false,
      "t": 50565.685499999985,
      "d": 283.36275000000023,
      "v": 120
    },
    {
      "midi": 65,
      "hit": false,
      "t": 50574.95437499999,
      "d": 270.1215000000011,
      "v": 127
    },
    {
      "midi": 63,
      "hit": false,
      "t": 50584.22325000013,
      "d": 76.79925000000367,
      "v": 74
    },
    {
      "midi": 39,
      "hit": false,
      "t": 50592.168000000056,
      "d": 113.87475000000268,
      "v": 121
    },
    {
      "midi": 67,
      "hit": false,
      "t": 50592.16800000013,
      "d": 64.88212500000373,
      "v": 100
    },
    {
      "midi": 70,
      "hit": false,
      "t": 50602.76100000013,
      "d": 58.261500000000524,
      "v": 96
    },
    {
      "midi": 39,
      "hit": false,
      "t": 50846.40000000006,
      "d": 589.2356250000012,
      "v": 121
    },
    {
      "midi": 67,
      "hit": false,
      "t": 51060.90825,
      "d": 697.8138750000217,
      "v": 120
    },
    {
      "midi": 67,
      "hit": false,
      "t": 51082.09424999999,
      "d": 1149.3405000000057,
      "v": 127
    },
    {
      "midi": 55,
      "hit": false,
      "t": 51090.03899999999,
      "d": 1216.8708750000005,
      "v": 127
    },
    {
      "midi": 63,
      "hit": false,
      "t": 51346.91925000013,
      "d": 76.79925000000367,
      "v": 74
    },
    {
      "midi": 67,
      "hit": false,
      "t": 51354.86400000013,
      "d": 64.88212500000373,
      "v": 100
    },
    {
      "midi": 70,
      "hit": false,
      "t": 51365.45700000013,
      "d": 58.261500000000524,
      "v": 96
    },
    {
      "midi": 39,
      "hit": false,
      "t": 51609.09600000006,
      "d": 254.2320000000036,
      "v": 121
    },
    {
      "midi": 58,
      "hit": false,
      "t": 51863.32799999999,
      "d": 239.66662499999802,
      "v": 127
    },
    {
      "midi": 34,
      "hit": false,
      "t": 51863.32800000007,
      "d": 254.2320000000036,
      "v": 122
    },
    {
      "midi": 63,
      "hit": false,
      "t": 52109.61525000013,
      "d": 76.79925000000367,
      "v": 74
    },
    {
      "midi": 34,
      "hit": false,
      "t": 52117.56000000007,
      "d": 254.2320000000036,
      "v": 101
    },
    {
      "midi": 67,
      "hit": false,
      "t": 52117.560000000136,
      "d": 64.88212500000373,
      "v": 100
    },
    {
      "midi": 70,
      "hit": false,
      "t": 52128.15300000014,
      "d": 58.261500000000524,
      "v": 96
    },
    {
      "midi": 58,
      "hit": false,
      "t": 52244.675999999985,
      "d": 233.0460000000021,
      "v": 127
    },
    {
      "midi": 34,
      "hit": false,
      "t": 52371.792000000074,
      "d": 254.2320000000036,
      "v": 122
    },
    {
      "midi": 63,
      "hit": false,
      "t": 52618.07925000014,
      "d": 76.79925000000367,
      "v": 74
    },
    {
      "midi": 58,
      "hit": false,
      "t": 52626.02399999999,
      "d": 254.2320000000036,
      "v": 127
    },
    {
      "midi": 34,
      "hit": false,
      "t": 52626.02400000008,
      "d": 254.2320000000036,
      "v": 101
    },
    {
      "midi": 67,
      "hit": false,
      "t": 52626.02400000014,
      "d": 64.88212500000373,
      "v": 100
    },
    {
      "midi": 70,
      "hit": false,
      "t": 52636.617000000144,
      "d": 58.261500000000524,
      "v": 96
    },
    {
      "midi": 60,
      "hit": false,
      "t": 52880.255999999994,
      "d": 721.6481249999997,
      "v": 127
    },
    {
      "midi": 63,
      "hit": false,
      "t": 52880.256,
      "d": 4067.7119999999995,
      "v": 86
    },
    {
      "midi": 67,
      "hit": false,
      "t": 52880.256,
      "d": 4067.7119999999995,
      "v": 86
    },
    {
      "midi": 70,
      "hit": false,
      "t": 52880.256,
      "d": 4067.7119999999995,
      "v": 86
    },
    {
      "midi": 39,
      "hit": false,
      "t": 52880.25600000008,
      "d": 630.2834999999977,
      "v": 121
    },
    {
      "midi": 67,
      "hit": false,
      "t": 52906.738499999985,
      "d": 3763.163249999998,
      "v": 83
    },
    {
      "midi": 70,
      "hit": false,
      "t": 52909.38674999998,
      "d": 3786.9974999999977,
      "v": 83
    },
    {
      "midi": 75,
      "hit": false,
      "t": 52918.655624999985,
      "d": 3814.804124999995,
      "v": 83
    },
    {
      "midi": 67,
      "hit": false,
      "t": 53380.775250000144,
      "d": 76.79925000000367,
      "v": 74
    },
    {
      "midi": 70,
      "hit": false,
      "t": 53388.72000000015,
      "d": 64.88212500000373,
      "v": 100
    },
    {
      "midi": 75,
      "hit": false,
      "t": 53399.31300000015,
      "d": 58.261500000000524,
      "v": 96
    },
    {
      "midi": 58,
      "hit": false,
      "t": 53642.95199999999,
      "d": 109.90237499999785,
      "v": 127
    },
    {
      "midi": 39,
      "hit": false,
      "t": 53642.95200000008,
      "d": 136.38487500000338,
      "v": 121
    },
    {
      "midi": 55,
      "hit": false,
      "t": 53770.067999999985,
      "d": 144.3296249999985,
      "v": 97
    },
    {
      "midi": 70,
      "hit": false,
      "t": 53883.942749999995,
      "d": 495.2227500000008,
      "v": 127
    },
    {
      "midi": 58,
      "hit": false,
      "t": 53897.18399999999,
      "d": 1790.216999999997,
      "v": 112
    },
    {
      "midi": 39,
      "hit": false,
      "t": 53897.18400000008,
      "d": 631.6076249999969,
      "v": 121
    },
    {
      "midi": 67,
      "hit": false,
      "t": 54143.47125000015,
      "d": 76.79925000000367,
      "v": 74
    },
    {
      "midi": 70,
      "hit": false,
      "t": 54151.41600000015,
      "d": 64.88212500000373,
      "v": 100
    },
    {
      "midi": 75,
      "hit": false,
      "t": 54162.00900000015,
      "d": 58.261500000000524,
      "v": 96
    },
    {
      "midi": 65,
      "hit": false,
      "t": 54396.37912499999,
      "d": 496.546875,
      "v": 127
    },
    {
      "midi": 67,
      "hit": false,
      "t": 54651.935250000155,
      "d": 76.79925000000367,
      "v": 74
    },
    {
      "midi": 39,
      "hit": false,
      "t": 54659.88000000008,
      "d": 123.14362499999697,
      "v": 121
    },
    {
      "midi": 70,
      "hit": false,
      "t": 54659.88000000016,
      "d": 64.88212500000373,
      "v": 100
    },
    {
      "midi": 75,
      "hit": false,
      "t": 54670.47300000016,
      "d": 58.261500000000524,
      "v": 96
    },
    {
      "midi": 67,
      "hit": false,
      "t": 54886.30537499999,
      "d": 1876.285125000024,
      "v": 127
    },
    {
      "midi": 39,
      "hit": false,
      "t": 54914.112000000074,
      "d": 590.5597500000003,
      "v": 121
    },
    {
      "midi": 67,
      "hit": false,
      "t": 55414.63125000016,
      "d": 76.79925000000367,
      "v": 74
    },
    {
      "midi": 70,
      "hit": false,
      "t": 55422.57600000016,
      "d": 64.88212500000373,
      "v": 100
    },
    {
      "midi": 75,
      "hit": false,
      "t": 55433.16900000016,
      "d": 58.261500000000524,
      "v": 96
    },
    {
      "midi": 39,
      "hit": false,
      "t": 55676.80800000008,
      "d": 116.52300000000105,
      "v": 121
    },
    {
      "midi": 58,
      "hit": false,
      "t": 55931.039999999986,
      "d": 308.5211249999993,
      "v": 127
    },
    {
      "midi": 39,
      "hit": false,
      "t": 55931.04000000008,
      "d": 689.8691249999974,
      "v": 121
    },
    {
      "midi": 67,
      "hit": false,
      "t": 56177.32725000016,
      "d": 76.79925000000367,
      "v": 74
    },
    {
      "midi": 70,
      "hit": false,
      "t": 56185.272000000165,
      "d": 64.88212500000373,
      "v": 100
    },
    {
      "midi": 75,
      "hit": false,
      "t": 56195.865000000165,
      "d": 58.261500000000524,
      "v": 96
    },
    {
      "midi": 58,
      "hit": false,
      "t": 56312.387999999984,
      "d": 279.3903750000027,
      "v": 127
    },
    {
      "midi": 67,
      "hit": false,
      "t": 56685.79125000017,
      "d": 76.79925000000367,
      "v": 74
    },
    {
      "midi": 58,
      "hit": false,
      "t": 56693.73599999999,
      "d": 180.0809999999983,
      "v": 127
    },
    {
      "midi": 46,
      "hit": false,
      "t": 56693.73600000008,
      "d": 268.7973750000019,
      "v": 121
    },
    {
      "midi": 70,
      "hit": false,
      "t": 56693.73600000017,
      "d": 64.88212500000373,
      "v": 100
    },
    {
      "midi": 75,
      "hit": false,
      "t": 56704.32900000017,
      "d": 58.261500000000524,
      "v": 96
    },
    {
      "midi": 67,
      "hit": false,
      "t": 56934.72674999998,
      "d": 3894.251624999997,
      "v": 83
    },
    {
      "midi": 60,
      "hit": false,
      "t": 56947.967999999986,
      "d": 749.4547499999971,
      "v": 127
    },
    {
      "midi": 62,
      "hit": false,
      "t": 56947.968,
      "d": 4067.7119999999995,
      "v": 86
    },
    {
      "midi": 67,
      "hit": false,
      "t": 56947.968,
      "d": 4067.7119999999995,
      "v": 86
    },
    {
      "midi": 70,
      "hit": false,
      "t": 56947.968,
      "d": 4067.7119999999995,
      "v": 86
    },
    {
      "midi": 39,
      "hit": false,
      "t": 56947.96800000008,
      "d": 610.4216249999954,
      "v": 121
    },
    {
      "midi": 70,
      "hit": false,
      "t": 56949.29212499998,
      "d": 3906.168749999997,
      "v": 83
    },
    {
      "midi": 74,
      "hit": false,
      "t": 56966.505749999975,
      "d": 3912.7893750000003,
      "v": 83
    },
    {
      "midi": 67,
      "hit": false,
      "t": 57448.48725000017,
      "d": 76.79925000000367,
      "v": 74
    },
    {
      "midi": 70,
      "hit": false,
      "t": 57456.432000000175,
      "d": 64.88212500000373,
      "v": 100
    },
    {
      "midi": 74,
      "hit": false,
      "t": 57467.025000000176,
      "d": 58.261500000000524,
      "v": 96
    },
    {
      "midi": 58,
      "hit": false,
      "t": 57710.66399999998,
      "d": 113.87475000000268,
      "v": 112
    },
    {
      "midi": 39,
      "hit": false,
      "t": 57710.66400000008,
      "d": 91.36462500000198,
      "v": 121
    },
    {
      "midi": 55,
      "hit": false,
      "t": 57837.779999999984,
      "d": 177.43274999999994,
      "v": 100
    },
    {
      "midi": 39,
      "hit": false,
      "t": 57964.89600000008,
      "d": 624.987000000001,
      "v": 121
    },
    {
      "midi": 70,
      "hit": false,
      "t": 57972.84075000002,
      "d": 345.5966249999983,
      "v": 127
    },
    {
      "midi": 58,
      "hit": false,
      "t": 58092.01199999998,
      "d": 1771.679250000001,
      "v": 106
    },
    {
      "midi": 67,
      "hit": false,
      "t": 58211.18325000018,
      "d": 76.79925000000367,
      "v": 74
    },
    {
      "midi": 70,
      "hit": false,
      "t": 58219.12800000018,
      "d": 64.88212500000373,
      "v": 100
    },
    {
      "midi": 74,
      "hit": false,
      "t": 58229.72100000018,
      "d": 58.261500000000524,
      "v": 96
    },
    {
      "midi": 67,
      "hit": false,
      "t": 58342.271625000016,
      "d": 346.9207499999975,
      "v": 127
    },
    {
      "midi": 65,
      "hit": false,
      "t": 58701.10950000001,
      "d": 315.1417500000025,
      "v": 127
    },
    {
      "midi": 67,
      "hit": false,
      "t": 58719.647250000184,
      "d": 76.79925000000367,
      "v": 74
    },
    {
      "midi": 39,
      "hit": false,
      "t": 58727.592000000084,
      "d": 96.66112499999872,
      "v": 121
    },
    {
      "midi": 70,
      "hit": false,
      "t": 58727.592000000186,
      "d": 64.88212500000373,
      "v": 100
    },
    {
      "midi": 74,
      "hit": false,
      "t": 58738.18500000019,
      "d": 58.261500000000524,
      "v": 96
    },
    {
      "midi": 39,
      "hit": false,
      "t": 58981.82400000008,
      "d": 624.987000000001,
      "v": 121
    },
    {
      "midi": 67,
      "hit": false,
      "t": 59045.38200000001,
      "d": 1897.471125000011,
      "v": 127
    },
    {
      "midi": 67,
      "hit": false,
      "t": 59482.34325000019,
      "d": 76.79925000000367,
      "v": 74
    },
    {
      "midi": 70,
      "hit": false,
      "t": 59490.28800000019,
      "d": 64.88212500000373,
      "v": 100
    },
    {
      "midi": 74,
      "hit": false,
      "t": 59500.88100000019,
      "d": 58.261500000000524,
      "v": 96
    },
    {
      "midi": 39,
      "hit": false,
      "t": 59744.520000000084,
      "d": 84.74399999999878,
      "v": 121
    },
    {
      "midi": 58,
      "hit": false,
      "t": 59998.75199999998,
      "d": 229.07362499999726,
      "v": 127
    },
    {
      "midi": 39,
      "hit": false,
      "t": 59998.75200000008,
      "d": 697.8138749999998,
      "v": 121
    },
    {
      "midi": 67,
      "hit": false,
      "t": 60245.03925000019,
      "d": 76.79925000000367,
      "v": 74
    },
    {
      "midi": 70,
      "hit": false,
      "t": 60252.98400000019,
      "d": 64.88212500000373,
      "v": 100
    },
    {
      "midi": 74,
      "hit": false,
      "t": 60263.577000000194,
      "d": 58.261500000000524,
      "v": 96
    },
    {
      "midi": 58,
      "hit": false,
      "t": 60380.09999999998,
      "d": 206.56349999999657,
      "v": 112
    },
    {
      "midi": 67,
      "hit": false,
      "t": 60753.5032500002,
      "d": 76.79925000000367,
      "v": 74
    },
    {
      "midi": 58,
      "hit": false,
      "t": 60761.447999999975,
      "d": 158.8949999999968,
      "v": 112
    },
    {
      "midi": 46,
      "hit": false,
      "t": 60761.44800000008,
      "d": 275.4180000000051,
      "v": 121
    },
    {
      "midi": 70,
      "hit": false,
      "t": 60761.4480000002,
      "d": 64.88212500000373,
      "v": 100
    },
    {
      "midi": 74,
      "hit": false,
      "t": 60772.0410000002,
      "d": 58.261500000000524,
      "v": 96
    },
    {
      "midi": 60,
      "hit": false,
      "t": 61015.67999999997,
      "d": 779.9096250000002,
      "v": 127
    },
    {
      "midi": 67,
      "hit": false,
      "t": 61015.67999999998,
      "d": 3732.708375000002,
      "v": 83
    },
    {
      "midi": 67,
      "hit": false,
      "t": 61015.68,
      "d": 3978.995625000003,
      "v": 86
    },
    {
      "midi": 70,
      "hit": false,
      "t": 61015.68,
      "d": 3989.588625000004,
      "v": 86
    },
    {
      "midi": 61,
      "hit": false,
      "t": 61015.68,
      "d": 4082.277375000005,
      "v": 86
    },
    {
      "midi": 39,
      "hit": false,
      "t": 61015.68000000008,
      "d": 622.3387500000026,
      "v": 121
    },
    {
      "midi": 70,
      "hit": false,
      "t": 61027.59712499998,
      "d": 3743.3013750000027,
      "v": 83
    },
    {
      "midi": 73,
      "hit": false,
      "t": 61059.37612499998,
      "d": 3712.8464999999997,
      "v": 83
    },
    {
      "midi": 67,
      "hit": false,
      "t": 61516.1992500002,
      "d": 76.79925000000367,
      "v": 74
    },
    {
      "midi": 70,
      "hit": false,
      "t": 61524.144000000204,
      "d": 64.88212500000373,
      "v": 100
    },
    {
      "midi": 73,
      "hit": false,
      "t": 61534.737000000205,
      "d": 58.261500000000524,
      "v": 96
    },
    {
      "midi": 58,
      "hit": false,
      "t": 61778.375999999975,
      "d": 131.08837499999208,
      "v": 96
    },
    {
      "midi": 39,
      "hit": false,
      "t": 61778.376000000084,
      "d": 86.06812499999796,
      "v": 121
    },
    {
      "midi": 60,
      "hit": false,
      "t": 61905.49199999997,
      "d": 104.6058750000011,
      "v": 97
    },
    {
      "midi": 72,
      "hit": false,
      "t": 62000.82900000003,
      "d": 190.67399999999907,
      "v": 127
    },
    {
      "midi": 58,
      "hit": false,
      "t": 62032.60799999997,
      "d": 1904.0917499999996,
      "v": 96
    },
    {
      "midi": 39,
      "hit": false,
      "t": 62032.60800000008,
      "d": 613.069875000001,
      "v": 121
    },
    {
      "midi": 70,
      "hit": false,
      "t": 62221.95787500003,
      "d": 55.613250000002154,
      "v": 127
    },
    {
      "midi": 67,
      "hit": false,
      "t": 62278.895250000205,
      "d": 76.79925000000367,
      "v": 74
    },
    {
      "midi": 72,
      "hit": false,
      "t": 62281.54350000003,
      "d": 71.50274999999965,
      "v": 127
    },
    {
      "midi": 70,
      "hit": false,
      "t": 62286.84000000021,
      "d": 64.88212500000373,
      "v": 100
    },
    {
      "midi": 73,
      "hit": false,
      "t": 62297.43300000021,
      "d": 58.261500000000524,
      "v": 96
    },
    {
      "midi": 70,
      "hit": false,
      "t": 62347.74975000003,
      "d": 353.5413749999934,
      "v": 127
    },
    {
      "midi": 68,
      "hit": false,
      "t": 62711.884125000026,
      "d": 315.1417500000025,
      "v": 127
    },
    {
      "midi": 67,
      "hit": false,
      "t": 62787.35925000021,
      "d": 76.79925000000367,
      "v": 74
    },
    {
      "midi": 39,
      "hit": false,
      "t": 62795.304000000084,
      "d": 113.87475000000268,
      "v": 121
    },
    {
      "midi": 70,
      "hit": false,
      "t": 62795.304000000215,
      "d": 64.88212500000373,
      "v": 100
    },
    {
      "midi": 73,
      "hit": false,
      "t": 62805.897000000215,
      "d": 58.261500000000524,
      "v": 96
    },
    {
      "midi": 67,
      "hit": false,
      "t": 63040.26712500003,
      "d": 2081.5244999999995,
      "v": 127
    },
    {
      "midi": 39,
      "hit": false,
      "t": 63049.53600000009,
      "d": 589.2356250000012,
      "v": 121
    },
    {
      "midi": 67,
      "hit": false,
      "t": 63550.055250000216,
      "d": 76.79925000000367,
      "v": 74
    },
    {
      "midi": 70,
      "hit": false,
      "t": 63558.00000000022,
      "d": 64.88212500000373,
      "v": 100
    },
    {
      "midi": 73,
      "hit": false,
      "t": 63568.59300000022,
      "d": 58.261500000000524,
      "v": 96
    },
    {
      "midi": 39,
      "hit": false,
      "t": 63812.23200000009,
      "d": 101.95762500000274,
      "v": 121
    },
    {
      "midi": 58,
      "hit": false,
      "t": 64066.46399999997,
      "d": 231.7218750000029,
      "v": 127
    },
    {
      "midi": 39,
      "hit": false,
      "t": 64066.464000000095,
      "d": 538.918875000003,
      "v": 121
    },
    {
      "midi": 67,
      "hit": false,
      "t": 64312.75125000022,
      "d": 76.79925000000367,
      "v": 74
    },
    {
      "midi": 56,
      "hit": false,
      "t": 64320.695999999974,
      "d": 87.39224999999715,
      "v": 94
    },
    {
      "midi": 70,
      "hit": false,
      "t": 64320.69600000022,
      "d": 64.88212500000373,
      "v": 100
    },
    {
      "midi": 73,
      "hit": false,
      "t": 64331.28900000022,
      "d": 58.261500000000524,
      "v": 96
    },
    {
      "midi": 58,
      "hit": false,
      "t": 64574.92799999997,
      "d": 254.2320000000036,
      "v": 83
    },
    {
      "midi": 67,
      "hit": false,
      "t": 64821.21525000023,
      "d": 76.79925000000367,
      "v": 74
    },
    {
      "midi": 56,
      "hit": false,
      "t": 64829.159999999974,
      "d": 210.5358750000014,
      "v": 112
    },
    {
      "midi": 46,
      "hit": false,
      "t": 64829.1600000001,
      "d": 254.2320000000036,
      "v": 127
    },
    {
      "midi": 70,
      "hit": false,
      "t": 64829.16000000023,
      "d": 64.88212500000373,
      "v": 100
    },
    {
      "midi": 73,
      "hit": false,
      "t": 64839.75300000023,
      "d": 58.261500000000524,
      "v": 96
    },
    {
      "midi": 63,
      "hit": false,
      "t": 65070.15074999998,
      "d": 3953.8372499999896,
      "v": 83
    },
    {
      "midi": 58,
      "hit": false,
      "t": 65083.39199999998,
      "d": 701.7862500000047,
      "v": 106
    },
    {
      "midi": 60,
      "hit": false,
      "t": 65083.39200000001,
      "d": 4067.7119999999995,
      "v": 86
    },
    {
      "midi": 63,
      "hit": false,
      "t": 65083.39200000001,
      "d": 4067.7119999999995,
      "v": 86
    },
    {
      "midi": 68,
      "hit": false,
      "t": 65083.39200000001,
      "d": 4067.7119999999995,
      "v": 86
    },
    {
      "midi": 44,
      "hit": false,
      "t": 65083.3920000001,
      "d": 594.5321250000052,
      "v": 127
    },
    {
      "midi": 68,
      "hit": false,
      "t": 65086.04024999998,
      "d": 3945.892499999987,
      "v": 83
    },
    {
      "midi": 72,
      "hit": false,
      "t": 65099.281499999975,
      "d": 3930.0029999999897,
      "v": 83
    },
    {
      "midi": 63,
      "hit": false,
      "t": 65583.91125000024,
      "d": 76.79924999998184,
      "v": 74
    },
    {
      "midi": 68,
      "hit": false,
      "t": 65591.85600000023,
      "d": 64.88212499998917,
      "v": 100
    },
    {
      "midi": 72,
      "hit": false,
      "t": 65602.44900000023,
      "d": 58.26149999999325,
      "v": 96
    },
    {
      "midi": 56,
      "hit": false,
      "t": 65846.08799999999,
      "d": 123.14362499999697,
      "v": 83
    },
    {
      "midi": 44,
      "hit": false,
      "t": 65846.0880000001,
      "d": 105.92999999999302,
      "v": 127
    },
    {
      "midi": 58,
      "hit": false,
      "t": 65973.20399999998,
      "d": 143.0054999999993,
      "v": 112
    },
    {
      "midi": 70,
      "hit": false,
      "t": 66093.69937500003,
      "d": 354.8654999999999,
      "v": 127
    },
    {
      "midi": 56,
      "hit": false,
      "t": 66100.31999999998,
      "d": 1886.878125000003,
      "v": 112
    },
    {
      "midi": 44,
      "hit": false,
      "t": 66100.3200000001,
      "d": 602.476874999993,
      "v": 127
    },
    {
      "midi": 63,
      "hit": false,
      "t": 66346.60725000022,
      "d": 76.79924999998184,
      "v": 74
    },
    {
      "midi": 68,
      "hit": false,
      "t": 66354.55200000021,
      "d": 64.88212499998917,
      "v": 100
    },
    {
      "midi": 72,
      "hit": false,
      "t": 66365.14500000021,
      "d": 58.26149999999325,
      "v": 96
    },
    {
      "midi": 68,
      "hit": false,
      "t": 66477.69562500002,
      "d": 350.8931250000023,
      "v": 127
    },
    {
      "midi": 67,
      "hit": false,
      "t": 66848.45062500003,
      "d": 333.67949999999837,
      "v": 127
    },
    {
      "midi": 63,
      "hit": false,
      "t": 66855.0712500002,
      "d": 76.79924999998184,
      "v": 74
    },
    {
      "midi": 44,
      "hit": false,
      "t": 66863.01600000009,
      "d": 121.81949999999779,
      "v": 127
    },
    {
      "midi": 68,
      "hit": false,
      "t": 66863.01600000019,
      "d": 64.88212499998917,
      "v": 100
    },
    {
      "midi": 72,
      "hit": false,
      "t": 66873.60900000019,
      "d": 58.26149999999325,
      "v": 96
    },
    {
      "midi": 44,
      "hit": false,
      "t": 67117.2480000001,
      "d": 626.3111249999929,
      "v": 127
    },
    {
      "midi": 65,
      "hit": false,
      "t": 67188.75075000002,
      "d": 1808.7547499999928,
      "v": 127
    },
    {
      "midi": 63,
      "hit": false,
      "t": 67617.76725000018,
      "d": 76.79924999998184,
      "v": 74
    },
    {
      "midi": 68,
      "hit": false,
      "t": 67625.71200000017,
      "d": 64.88212499998917,
      "v": 100
    },
    {
      "midi": 72,
      "hit": false,
      "t": 67636.30500000017,
      "d": 58.26149999999325,
      "v": 96
    },
    {
      "midi": 44,
      "hit": false,
      "t": 67879.94400000009,
      "d": 123.14362499999697,
      "v": 127
    },
    {
      "midi": 56,
      "hit": false,
      "t": 68134.17599999998,
      "d": 282.03862500000105,
      "v": 127
    },
    {
      "midi": 44,
      "hit": false,
      "t": 68134.1760000001,
      "d": 603.8010000000068,
      "v": 127
    },
    {
      "midi": 63,
      "hit": false,
      "t": 68380.46325000016,
      "d": 76.79924999998184,
      "v": 74
    },
    {
      "midi": 68,
      "hit": false,
      "t": 68388.40800000016,
      "d": 64.88212499998917,
      "v": 100
    },
    {
      "midi": 72,
      "hit": false,
      "t": 68399.00100000015,
      "d": 58.26149999999325,
      "v": 96
    },
    {
      "midi": 56,
      "hit": false,
      "t": 68515.52399999998,
      "d": 233.0460000000021,
      "v": 127
    },
    {
      "midi": 63,
      "hit": false,
      "t": 68888.92725000014,
      "d": 76.79924999998184,
      "v": 74
    },
    {
      "midi": 56,
      "hit": false,
      "t": 68896.87199999997,
      "d": 166.83974999999919,
      "v": 127
    },
    {
      "midi": 39,
      "hit": false,
      "t": 68896.8720000001,
      "d": 275.4180000000051,
      "v": 121
    },
    {
      "midi": 68,
      "hit": false,
      "t": 68896.87200000013,
      "d": 64.88212499998917,
      "v": 100
    },
    {
      "midi": 72,
      "hit": false,
      "t": 68907.46500000013,
      "d": 58.26149999999325,
      "v": 96
    },
    {
      "midi": 63,
      "hit": false,
      "t": 69121.97324999997,
      "d": 3898.2240000000165,
      "v": 83
    },
    {
      "midi": 68,
      "hit": false,
      "t": 69133.89037499997,
      "d": 3894.2516250000044,
      "v": 83
    },
    {
      "midi": 71,
      "hit": false,
      "t": 69147.13162499998,
      "d": 3912.789374999993,
      "v": 83
    },
    {
      "midi": 58,
      "hit": false,
      "t": 69151.10399999998,
      "d": 732.2411250000005,
      "v": 127
    },
    {
      "midi": 59,
      "hit": false,
      "t": 69151.104,
      "d": 4067.7119999999995,
      "v": 86
    },
    {
      "midi": 63,
      "hit": false,
      "t": 69151.104,
      "d": 4067.7119999999995,
      "v": 86
    },
    {
      "midi": 68,
      "hit": false,
      "t": 69151.104,
      "d": 4067.7119999999995,
      "v": 86
    },
    {
      "midi": 44,
      "hit": false,
      "t": 69151.10400000011,
      "d": 594.5321249999979,
      "v": 127
    },
    {
      "midi": 63,
      "hit": false,
      "t": 69607.92712500002,
      "d": 480.6573749999952,
      "v": 127
    },
    {
      "midi": 63,
      "hit": false,
      "t": 69651.62325000012,
      "d": 76.79924999998184,
      "v": 74
    },
    {
      "midi": 68,
      "hit": false,
      "t": 69659.56800000012,
      "d": 64.88212499998917,
      "v": 100
    },
    {
      "midi": 71,
      "hit": false,
      "t": 69670.16100000011,
      "d": 58.26149999999325,
      "v": 96
    },
    {
      "midi": 56,
      "hit": false,
      "t": 69913.79999999997,
      "d": 99.30937499999709,
      "v": 112
    },
    {
      "midi": 44,
      "hit": false,
      "t": 69913.8000000001,
      "d": 105.92999999999302,
      "v": 127
    },
    {
      "midi": 58,
      "hit": false,
      "t": 70040.91599999997,
      "d": 123.14362499999697,
      "v": 112
    },
    {
      "midi": 71,
      "hit": false,
      "t": 70124.33587500002,
      "d": 824.9298749999871,
      "v": 127
    },
    {
      "midi": 56,
      "hit": false,
      "t": 70168.03199999996,
      "d": 1889.5263750000013,
      "v": 127
    },
    {
      "midi": 44,
      "hit": false,
      "t": 70168.0320000001,
      "d": 602.476874999993,
      "v": 127
    },
    {
      "midi": 63,
      "hit": false,
      "t": 70414.3192500001,
      "d": 76.79924999998184,
      "v": 74
    },
    {
      "midi": 68,
      "hit": false,
      "t": 70422.2640000001,
      "d": 64.88212499998917,
      "v": 100
    },
    {
      "midi": 71,
      "hit": false,
      "t": 70432.85700000009,
      "d": 58.26149999999325,
      "v": 96
    },
    {
      "midi": 70,
      "hit": false,
      "t": 70892.32837500001,
      "d": 303.22462500000256,
      "v": 127
    },
    {
      "midi": 63,
      "hit": false,
      "t": 70922.78325000008,
      "d": 76.79924999998184,
      "v": 74
    },
    {
      "midi": 68,
      "hit": false,
      "t": 70930.72800000008,
      "d": 64.88212499998917,
      "v": 100
    },
    {
      "midi": 44,
      "hit": false,
      "t": 70930.72800000009,
      "d": 121.81949999999779,
      "v": 127
    },
    {
      "midi": 71,
      "hit": false,
      "t": 70941.32100000007,
      "d": 58.26149999999325,
      "v": 96
    },
    {
      "midi": 68,
      "hit": false,
      "t": 71180.98762500001,
      "d": 1648.5356250000186,
      "v": 127
    },
    {
      "midi": 44,
      "hit": false,
      "t": 71184.9600000001,
      "d": 626.3111249999929,
      "v": 127
    },
    {
      "midi": 63,
      "hit": false,
      "t": 71685.47925000006,
      "d": 76.79924999998184,
      "v": 74
    },
    {
      "midi": 68,
      "hit": false,
      "t": 71693.42400000006,
      "d": 64.88212499998917,
      "v": 100
    },
    {
      "midi": 71,
      "hit": false,
      "t": 71704.01700000005,
      "d": 58.26149999999325,
      "v": 96
    },
    {
      "midi": 44,
      "hit": false,
      "t": 71947.65600000009,
      "d": 123.14362499999697,
      "v": 127
    },
    {
      "midi": 56,
      "hit": false,
      "t": 72201.88799999996,
      "d": 272.76975000000675,
      "v": 127
    },
    {
      "midi": 44,
      "hit": false,
      "t": 72201.8880000001,
      "d": 603.8010000000068,
      "v": 127
    },
    {
      "midi": 63,
      "hit": false,
      "t": 72448.17525000004,
      "d": 76.79924999998184,
      "v": 74
    },
    {
      "midi": 68,
      "hit": false,
      "t": 72456.12000000004,
      "d": 64.88212499998917,
      "v": 100
    },
    {
      "midi": 71,
      "hit": false,
      "t": 72466.71300000003,
      "d": 58.26149999999325,
      "v": 96
    },
    {
      "midi": 56,
      "hit": false,
      "t": 72583.23599999998,
      "d": 195.9704999999958,
      "v": 127
    },
    {
      "midi": 63,
      "hit": false,
      "t": 72956.63925000002,
      "d": 76.79924999998184,
      "v": 74
    },
    {
      "midi": 56,
      "hit": false,
      "t": 72964.58399999997,
      "d": 146.97787499999686,
      "v": 112
    },
    {
      "midi": 68,
      "hit": false,
      "t": 72964.58400000002,
      "d": 64.88212499998917,
      "v": 100
    },
    {
      "midi": 44,
      "hit": false,
      "t": 72964.5840000001,
      "d": 275.4180000000051,
      "v": 121
    },
    {
      "midi": 71,
      "hit": false,
      "t": 72975.17700000001,
      "d": 58.26149999999325,
      "v": 96
    },
    {
      "midi": 56,
      "hit": false,
      "t": 73218.81599999998,
      "d": 782.5578749999986,
      "v": 112
    },
    {
      "midi": 58,
      "hit": false,
      "t": 73218.816,
      "d": 4067.7119999999995,
      "v": 86
    },
    {
      "midi": 63,
      "hit": false,
      "t": 73218.816,
      "d": 4067.7119999999995,
      "v": 86
    },
    {
      "midi": 67,
      "hit": false,
      "t": 73218.816,
      "d": 4067.7119999999995,
      "v": 86
    },
    {
      "midi": 39,
      "hit": false,
      "t": 73218.81600000011,
      "d": 622.3387499999953,
      "v": 121
    },
    {
      "midi": 63,
      "hit": false,
      "t": 73226.76074999997,
      "d": 3828.0453750000015,
      "v": 83
    },
    {
      "midi": 67,
      "hit": false,
      "t": 73249.27087499997,
      "d": 3810.8317499999976,
      "v": 83
    },
    {
      "midi": 70,
      "hit": false,
      "t": 73257.21562499997,
      "d": 3847.907250000004,
      "v": 83
    },
    {
      "midi": 63,
      "hit": false,
      "t": 73696.82512500005,
      "d": 519.0570000000007,
      "v": 127
    },
    {
      "midi": 63,
      "hit": false,
      "t": 73719.33525,
      "d": 76.79924999998184,
      "v": 74
    },
    {
      "midi": 67,
      "hit": false,
      "t": 73727.28,
      "d": 64.88212499998917,
      "v": 100
    },
    {
      "midi": 70,
      "hit": false,
      "t": 73737.87299999999,
      "d": 58.26149999999325,
      "v": 96
    },
    {
      "midi": 55,
      "hit": false,
      "t": 73981.51199999997,
      "d": 104.60587500000838,
      "v": 127
    },
    {
      "midi": 39,
      "hit": false,
      "t": 73981.5120000001,
      "d": 86.06812500000524,
      "v": 121
    },
    {
      "midi": 53,
      "hit": false,
      "t": 74108.62799999998,
      "d": 154.92262499999197,
      "v": 112
    },
    {
      "midi": 70,
      "hit": false,
      "t": 74206.61325000005,
      "d": 742.834124999994,
      "v": 127
    },
    {
      "midi": 56,
      "hit": false,
      "t": 74235.74399999998,
      "d": 278.0662500000035,
      "v": 127
    },
    {
      "midi": 39,
      "hit": false,
      "t": 74235.74400000011,
      "d": 613.069875000001,
      "v": 121
    },
    {
      "midi": 63,
      "hit": false,
      "t": 74482.03124999999,
      "d": 76.79924999998184,
      "v": 74
    },
    {
      "midi": 67,
      "hit": false,
      "t": 74489.97599999998,
      "d": 64.88212499998917,
      "v": 100
    },
    {
      "midi": 55,
      "hit": false,
      "t": 74489.97599999998,
      "d": 1655.15625,
      "v": 127
    },
    {
      "midi": 70,
      "hit": false,
      "t": 74500.56899999997,
      "d": 58.26149999999325,
      "v": 96
    },
    {
      "midi": 68,
      "hit": false,
      "t": 74971.95750000005,
      "d": 287.3351249999978,
      "v": 127
    },
    {
      "midi": 63,
      "hit": false,
      "t": 74990.49524999996,
      "d": 76.79924999998184,
      "v": 74
    },
    {
      "midi": 67,
      "hit": false,
      "t": 74998.43999999996,
      "d": 64.88212499998917,
      "v": 100
    },
    {
      "midi": 39,
      "hit": false,
      "t": 74998.4400000001,
      "d": 113.87475000000268,
      "v": 121
    },
    {
      "midi": 70,
      "hit": false,
      "t": 75009.03299999995,
      "d": 58.26149999999325,
      "v": 96
    },
    {
      "midi": 39,
      "hit": false,
      "t": 75252.67200000011,
      "d": 589.2356250000012,
      "v": 121
    },
    {
      "midi": 67,
      "hit": false,
      "t": 75275.18212500005,
      "d": 1667.0733750000072,
      "v": 127
    },
    {
      "midi": 63,
      "hit": false,
      "t": 75753.19124999995,
      "d": 76.79924999998184,
      "v": 74
    },
    {
      "midi": 67,
      "hit": false,
      "t": 75761.13599999994,
      "d": 64.88212499998917,
      "v": 100
    },
    {
      "midi": 70,
      "hit": false,
      "t": 75771.72899999993,
      "d": 58.26149999999325,
      "v": 96
    },
    {
      "midi": 39,
      "hit": false,
      "t": 76015.3680000001,
      "d": 101.95762499999546,
      "v": 121
    },
    {
      "midi": 55,
      "hit": false,
      "t": 76269.59999999998,
      "d": 289.98337499999616,
      "v": 127
    },
    {
      "midi": 39,
      "hit": false,
      "t": 76269.6000000001,
      "d": 538.918875000003,
      "v": 121
    },
    {
      "midi": 63,
      "hit": false,
      "t": 76515.88724999993,
      "d": 76.79924999998184,
      "v": 74
    },
    {
      "midi": 67,
      "hit": false,
      "t": 76523.83199999992,
      "d": 64.88212499998917,
      "v": 100
    },
    {
      "midi": 70,
      "hit": false,
      "t": 76534.42499999992,
      "d": 58.26149999999325,
      "v": 96
    },
    {
      "midi": 55,
      "hit": false,
      "t": 76650.94799999997,
      "d": 264.8249999999971,
      "v": 127
    },
    {
      "midi": 63,
      "hit": false,
      "t": 77024.3512499999,
      "d": 76.79924999998184,
      "v": 74
    },
    {
      "midi": 67,
      "hit": false,
      "t": 77032.2959999999,
      "d": 64.88212499998917,
      "v": 100
    },
    {
      "midi": 55,
      "hit": false,
      "t": 77032.29599999997,
      "d": 140.35725000000093,
      "v": 127
    },
    {
      "midi": 46,
      "hit": false,
      "t": 77032.29600000009,
      "d": 254.2320000000036,
      "v": 127
    },
    {
      "midi": 70,
      "hit": false,
      "t": 77042.8889999999,
      "d": 58.26149999999325,
      "v": 96
    },
    {
      "midi": 65,
      "hit": false,
      "t": 77279.90737499997,
      "d": 1937.1948749999865,
      "v": 83
    },
    {
      "midi": 55,
      "hit": false,
      "t": 77286.52799999998,
      "d": 701.7862500000047,
      "v": 127
    },
    {
      "midi": 60,
      "hit": false,
      "t": 77286.528,
      "d": 2033.8559999999998,
      "v": 86
    },
    {
      "midi": 65,
      "hit": false,
      "t": 77286.528,
      "d": 2033.8559999999998,
      "v": 86
    },
    {
      "midi": 69,
      "hit": false,
      "t": 77286.528,
      "d": 2033.8559999999998,
      "v": 86
    },
    {
      "midi": 39,
      "hit": false,
      "t": 77286.5280000001,
      "d": 622.3387499999953,
      "v": 121
    },
    {
      "midi": 69,
      "hit": false,
      "t": 77287.85212499996,
      "d": 1897.4711249999964,
      "v": 83
    },
    {
      "midi": 72,
      "hit": false,
      "t": 77295.79687499996,
      "d": 1933.2225000000035,
      "v": 83
    },
    {
      "midi": 51,
      "hit": false,
      "t": 77313.01049999999,
      "d": 1919.981249999997,
      "v": 127
    },
    {
      "midi": 60,
      "hit": false,
      "t": 77313.01049999999,
      "d": 1919.981249999997,
      "v": 127
    },
    {
      "midi": 65,
      "hit": false,
      "t": 77313.01049999999,
      "d": 1919.981249999997,
      "v": 127
    },
    {
      "midi": 69,
      "hit": false,
      "t": 77313.01049999999,
      "d": 1919.981249999997,
      "v": 127
    },
    {
      "midi": 65,
      "hit": false,
      "t": 77787.04724999989,
      "d": 76.79924999998184,
      "v": 74
    },
    {
      "midi": 69,
      "hit": false,
      "t": 77794.99199999988,
      "d": 64.88212499998917,
      "v": 100
    },
    {
      "midi": 72,
      "hit": false,
      "t": 77805.58499999988,
      "d": 58.26149999999325,
      "v": 96
    },
    {
      "midi": 53,
      "hit": false,
      "t": 78049.22399999999,
      "d": 109.90237500000512,
      "v": 92
    },
    {
      "midi": 39,
      "hit": false,
      "t": 78049.22400000009,
      "d": 86.06812500000524,
      "v": 121
    },
    {
      "midi": 55,
      "hit": false,
      "t": 78176.34,
      "d": 132.41249999999127,
      "v": 127
    },
    {
      "midi": 53,
      "hit": false,
      "t": 78303.45599999999,
      "d": 1863.043875000003,
      "v": 112
    },
    {
      "midi": 39,
      "hit": false,
      "t": 78303.4560000001,
      "d": 613.069875000001,
      "v": 121
    },
    {
      "midi": 65,
      "hit": false,
      "t": 78549.74324999987,
      "d": 76.79924999998184,
      "v": 74
    },
    {
      "midi": 69,
      "hit": false,
      "t": 78557.68799999986,
      "d": 64.88212499998917,
      "v": 100
    },
    {
      "midi": 72,
      "hit": false,
      "t": 78568.28099999986,
      "d": 58.26149999999325,
      "v": 96
    },
    {
      "midi": 65,
      "hit": false,
      "t": 79058.20724999985,
      "d": 76.79924999998184,
      "v": 74
    },
    {
      "midi": 69,
      "hit": false,
      "t": 79066.15199999984,
      "d": 64.88212499998917,
      "v": 100
    },
    {
      "midi": 39,
      "hit": false,
      "t": 79066.15200000009,
      "d": 113.87475000000268,
      "v": 121
    },
    {
      "midi": 72,
      "hit": false,
      "t": 79076.74499999984,
      "d": 58.26149999999325,
      "v": 96
    },
    {
      "midi": 63,
      "hit": false,
      "t": 79300.52212499996,
      "d": 1922.6294999999955,
      "v": 83
    },
    {
      "midi": 68,
      "hit": false,
      "t": 79308.46687499995,
      "d": 1917.3329999999987,
      "v": 83
    },
    {
      "midi": 51,
      "hit": false,
      "t": 79315.08749999998,
      "d": 1832.5889999999927,
      "v": 127
    },
    {
      "midi": 59,
      "hit": false,
      "t": 79315.08749999998,
      "d": 1832.5889999999927,
      "v": 127
    },
    {
      "midi": 63,
      "hit": false,
      "t": 79316.41162499998,
      "d": 1831.2648749999935,
      "v": 127
    },
    {
      "midi": 68,
      "hit": false,
      "t": 79317.73574999998,
      "d": 1829.9407499999943,
      "v": 127
    },
    {
      "midi": 59,
      "hit": false,
      "t": 79320.384,
      "d": 2033.8559999999998,
      "v": 89
    },
    {
      "midi": 63,
      "hit": false,
      "t": 79320.384,
      "d": 2033.8559999999998,
      "v": 89
    },
    {
      "midi": 68,
      "hit": false,
      "t": 79320.384,
      "d": 2033.8559999999998,
      "v": 89
    },
    {
      "midi": 39,
      "hit": false,
      "t": 79320.3840000001,
      "d": 589.2356250000012,
      "v": 121
    },
    {
      "midi": 71,
      "hit": false,
      "t": 79356.13537499995,
      "d": 1873.6368749999965,
      "v": 83
    },
    {
      "midi": 63,
      "hit": false,
      "t": 79820.90324999983,
      "d": 76.79924999998184,
      "v": 74
    },
    {
      "midi": 68,
      "hit": false,
      "t": 79828.84799999982,
      "d": 64.88212499998917,
      "v": 100
    },
    {
      "midi": 71,
      "hit": false,
      "t": 79839.44099999982,
      "d": 58.26149999999325,
      "v": 96
    },
    {
      "midi": 39,
      "hit": false,
      "t": 80083.08000000009,
      "d": 101.95762499999546,
      "v": 121
    },
    {
      "midi": 53,
      "hit": false,
      "t": 80337.31199999999,
      "d": 774.6131250000035,
      "v": 120
    },
    {
      "midi": 39,
      "hit": false,
      "t": 80337.31200000008,
      "d": 538.918875000003,
      "v": 121
    },
    {
      "midi": 63,
      "hit": false,
      "t": 80583.59924999981,
      "d": 76.79924999998184,
      "v": 74
    },
    {
      "midi": 68,
      "hit": false,
      "t": 80591.5439999998,
      "d": 64.88212499998917,
      "v": 100
    },
    {
      "midi": 71,
      "hit": false,
      "t": 80602.1369999998,
      "d": 58.26149999999325,
      "v": 96
    },
    {
      "midi": 63,
      "hit": false,
      "t": 81092.06324999979,
      "d": 76.79924999998184,
      "v": 74
    },
    {
      "midi": 68,
      "hit": false,
      "t": 81100.00799999978,
      "d": 64.88212499998917,
      "v": 100
    },
    {
      "midi": 51,
      "hit": false,
      "t": 81100.00799999999,
      "d": 105.93000000000757,
      "v": 127
    },
    {
      "midi": 46,
      "hit": false,
      "t": 81100.00800000007,
      "d": 254.2320000000036,
      "v": 127
    },
    {
      "midi": 71,
      "hit": false,
      "t": 81110.60099999978,
      "d": 58.26149999999325,
      "v": 96
    },
    {
      "midi": 50,
      "hit": false,
      "t": 81227.124,
      "d": 143.0054999999993,
      "v": 112
    },
    {
      "midi": 58,
      "hit": false,
      "t": 81322.46099999997,
      "d": 3964.4302499999903,
      "v": 127
    },
    {
      "midi": 63,
      "hit": false,
      "t": 81323.78512499997,
      "d": 3960.457874999993,
      "v": 127
    },
    {
      "midi": 67,
      "hit": false,
      "t": 81327.75749999996,
      "d": 3948.54075,
      "v": 127
    },
    {
      "midi": 51,
      "hit": false,
      "t": 81329.08162499996,
      "d": 3969.7267500000016,
      "v": 127
    },
    {
      "midi": 63,
      "hit": false,
      "t": 81352.91587499995,
      "d": 3914.113499999992,
      "v": 83
    },
    {
      "midi": 53,
      "hit": false,
      "t": 81354.23999999999,
      "d": 760.0477499999979,
      "v": 120
    },
    {
      "midi": 63,
      "hit": false,
      "t": 81354.24,
      "d": 4025.3399999999965,
      "v": 99
    },
    {
      "midi": 67,
      "hit": false,
      "t": 81354.24,
      "d": 4025.3399999999965,
      "v": 99
    },
    {
      "midi": 58,
      "hit": false,
      "t": 81354.24,
      "d": 4035.93299999999,
      "v": 99
    },
    {
      "midi": 39,
      "hit": false,
      "t": 81354.24000000008,
      "d": 622.3387499999953,
      "v": 121
    },
    {
      "midi": 67,
      "hit": false,
      "t": 81356.88824999995,
      "d": 3896.8998749999882,
      "v": 83
    },
    {
      "midi": 70,
      "hit": false,
      "t": 81362.18474999994,
      "d": 3887.630999999994,
      "v": 83
    },
    {
      "midi": 63,
      "hit": false,
      "t": 81854.75924999977,
      "d": 76.79924999998184,
      "v": 74
    },
    {
      "midi": 67,
      "hit": false,
      "t": 81862.70399999977,
      "d": 64.88212499998917,
      "v": 100
    },
    {
      "midi": 70,
      "hit": false,
      "t": 81873.29699999976,
      "d": 58.26149999999325,
      "v": 96
    },
    {
      "midi": 51,
      "hit": false,
      "t": 82116.93599999999,
      "d": 90.0405000000028,
      "v": 127
    },
    {
      "midi": 39,
      "hit": false,
      "t": 82116.93600000007,
      "d": 86.06812500000524,
      "v": 121
    },
    {
      "midi": 53,
      "hit": false,
      "t": 82244.052,
      "d": 132.41249999999127,
      "v": 100
    },
    {
      "midi": 51,
      "hit": false,
      "t": 82371.16799999999,
      "d": 1881.5816249999916,
      "v": 127
    },
    {
      "midi": 39,
      "hit": false,
      "t": 82371.16800000008,
      "d": 613.069875000001,
      "v": 121
    },
    {
      "midi": 63,
      "hit": false,
      "t": 82617.45524999975,
      "d": 76.79924999998184,
      "v": 74
    },
    {
      "midi": 67,
      "hit": false,
      "t": 82625.39999999975,
      "d": 64.88212499998917,
      "v": 100
    },
    {
      "midi": 70,
      "hit": false,
      "t": 82635.99299999974,
      "d": 58.26149999999325,
      "v": 96
    },
    {
      "midi": 63,
      "hit": false,
      "t": 83125.91924999973,
      "d": 76.79924999998184,
      "v": 74
    },
    {
      "midi": 67,
      "hit": false,
      "t": 83133.86399999972,
      "d": 64.88212499998917,
      "v": 100
    },
    {
      "midi": 39,
      "hit": false,
      "t": 83133.86400000007,
      "d": 113.87475000000268,
      "v": 121
    },
    {
      "midi": 70,
      "hit": false,
      "t": 83144.45699999972,
      "d": 58.26149999999325,
      "v": 96
    },
    {
      "midi": 39,
      "hit": false,
      "t": 83316.59324999996,
      "d": 1970.2979999999952,
      "v": 127
    },
    {
      "midi": 39,
      "hit": false,
      "t": 83388.09600000008,
      "d": 589.2356250000012,
      "v": 121
    },
    {
      "midi": 63,
      "hit": false,
      "t": 83888.61524999971,
      "d": 76.79924999998184,
      "v": 74
    },
    {
      "midi": 67,
      "hit": false,
      "t": 83896.5599999997,
      "d": 64.88212499998917,
      "v": 100
    },
    {
      "midi": 70,
      "hit": false,
      "t": 83907.1529999997,
      "d": 58.26149999999325,
      "v": 96
    },
    {
      "midi": 39,
      "hit": false,
      "t": 84150.79200000007,
      "d": 254.2320000000036,
      "v": 121
    },
    {
      "midi": 39,
      "hit": false,
      "t": 84405.02400000008,
      "d": 254.2320000000036,
      "v": 122
    },
    {
      "midi": 63,
      "hit": false,
      "t": 84651.3112499997,
      "d": 76.79924999998184,
      "v": 74
    },
    {
      "midi": 67,
      "hit": false,
      "t": 84659.25599999969,
      "d": 64.88212499998917,
      "v": 100
    },
    {
      "midi": 39,
      "hit": false,
      "t": 84659.25600000008,
      "d": 254.2320000000036,
      "v": 101
    },
    {
      "midi": 70,
      "hit": false,
      "t": 84669.84899999968,
      "d": 58.26149999999325,
      "v": 96
    },
    {
      "midi": 39,
      "hit": false,
      "t": 84913.48800000008,
      "d": 254.2320000000036,
      "v": 122
    },
    {
      "midi": 63,
      "hit": false,
      "t": 85159.77524999967,
      "d": 76.79924999998184,
      "v": 74
    },
    {
      "midi": 67,
      "hit": false,
      "t": 85167.71999999967,
      "d": 64.88212499998917,
      "v": 100
    },
    {
      "midi": 39,
      "hit": false,
      "t": 85167.72000000009,
      "d": 254.2320000000036,
      "v": 127
    },
    {
      "midi": 70,
      "hit": false,
      "t": 85178.31299999966,
      "d": 58.26149999999325,
      "v": 96
    },
    {
      "midi": 53,
      "hit": false,
      "t": 85412.683125,
      "d": 397.23749999998836,
      "v": 97
    },
    {
      "midi": 55,
      "hit": false,
      "t": 85421.95199999996,
      "d": 511.11224999999104,
      "v": 127
    },
    {
      "midi": 41,
      "hit": false,
      "t": 85421.95199999999,
      "d": 425.04412500000035,
      "v": 127
    },
    {
      "midi": 41,
      "hit": false,
      "t": 85421.95200000009,
      "d": 561.4290000000037,
      "v": 127
    },
    {
      "midi": 71,
      "hit": false,
      "t": 85424.60024999996,
      "d": 447.55425000000105,
      "v": 127
    },
    {
      "midi": 59,
      "hit": false,
      "t": 85429.89674999996,
      "d": 438.28537500000675,
      "v": 127
    },
    {
      "midi": 71,
      "hit": false,
      "t": 85443.13799999999,
      "d": 426.36824999999953,
      "v": 94
    },
    {
      "midi": 72,
      "hit": false,
      "t": 85902.60937499999,
      "d": 78.12337499999558,
      "v": 127
    },
    {
      "midi": 41,
      "hit": false,
      "t": 85902.60937499999,
      "d": 70.17862500000047,
      "v": 127
    },
    {
      "midi": 56,
      "hit": false,
      "t": 85903.93349999996,
      "d": 82.09574999999313,
      "v": 127
    },
    {
      "midi": 72,
      "hit": false,
      "t": 85913.20237499995,
      "d": 101.95762499999546,
      "v": 127
    },
    {
      "midi": 60,
      "hit": false,
      "t": 85929.09187499995,
      "d": 148.30199999999604,
      "v": 127
    },
    {
      "midi": 53,
      "hit": false,
      "t": 85930.41599999998,
      "d": 100.63349999999627,
      "v": 112
    },
    {
      "midi": 41,
      "hit": false,
      "t": 86184.6480000001,
      "d": 116.52300000000105,
      "v": 127
    },
    {
      "midi": 53,
      "hit": false,
      "t": 86396.50799999997,
      "d": 389.2927500000078,
      "v": 112
    },
    {
      "midi": 59,
      "hit": false,
      "t": 86401.80449999995,
      "d": 487.27799999999115,
      "v": 127
    },
    {
      "midi": 71,
      "hit": false,
      "t": 86405.77687499995,
      "d": 492.5744999999879,
      "v": 127
    },
    {
      "midi": 55,
      "hit": false,
      "t": 86409.74924999995,
      "d": 536.2706249999756,
      "v": 127
    },
    {
      "midi": 71,
      "hit": false,
      "t": 86421.66637499999,
      "d": 475.3608749999985,
      "v": 100
    },
    {
      "midi": 41,
      "hit": false,
      "t": 86433.58349999998,
      "d": 417.09937500000524,
      "v": 127
    },
    {
      "midi": 41,
      "hit": false,
      "t": 86438.8800000001,
      "d": 602.476874999993,
      "v": 127
    },
    {
      "midi": 53,
      "hit": false,
      "t": 86914.24087499999,
      "d": 94.0128749999858,
      "v": 112
    },
    {
      "midi": 72,
      "hit": false,
      "t": 86918.21324999999,
      "d": 80.77162499999395,
      "v": 127
    },
    {
      "midi": 41,
      "hit": false,
      "t": 86924.83387499998,
      "d": 79.44749999999476,
      "v": 127
    },
    {
      "midi": 56,
      "hit": false,
      "t": 86930.13037499994,
      "d": 68.85449999998673,
      "v": 127
    },
    {
      "midi": 72,
      "hit": false,
      "t": 86938.07512499993,
      "d": 153.59849999999278,
      "v": 127
    },
    {
      "midi": 60,
      "hit": false,
      "t": 86946.01987499993,
      "d": 169.48799999999756,
      "v": 127
    },
    {
      "midi": 41,
      "hit": false,
      "t": 87201.5760000001,
      "d": 242.3148749999964,
      "v": 127
    },
    {
      "midi": 59,
      "hit": false,
      "t": 87414.76012499993,
      "d": 438.28537500000675,
      "v": 127
    },
    {
      "midi": 71,
      "hit": false,
      "t": 87416.08424999993,
      "d": 460.79550000000745,
      "v": 127
    },
    {
      "midi": 53,
      "hit": false,
      "t": 87424.02899999998,
      "d": 402.53399999999965,
      "v": 112
    },
    {
      "midi": 55,
      "hit": false,
      "t": 87429.32549999993,
      "d": 536.2706249999901,
      "v": 127
    },
    {
      "midi": 34,
      "hit": false,
      "t": 87442.56674999998,
      "d": 407.8304999999964,
      "v": 127
    },
    {
      "midi": 34,
      "hit": false,
      "t": 87455.8080000001,
      "d": 544.2153749999998,
      "v": 127
    },
    {
      "midi": 71,
      "hit": false,
      "t": 87474.34574999998,
      "d": 390.616875000007,
      "v": 92
    },
    {
      "midi": 72,
      "hit": false,
      "t": 87909.98287499993,
      "d": 97.9852499999979,
      "v": 112
    },
    {
      "midi": 60,
      "hit": false,
      "t": 87925.87237499993,
      "d": 108.57824999999139,
      "v": 127
    },
    {
      "midi": 34,
      "hit": false,
      "t": 87925.87237499998,
      "d": 94.01287500000035,
      "v": 127
    },
    {
      "midi": 53,
      "hit": false,
      "t": 87927.19649999998,
      "d": 103.28174999999464,
      "v": 94
    },
    {
      "midi": 72,
      "hit": false,
      "t": 87933.81712499999,
      "d": 47.66849999999977,
      "v": 70
    },
    {
      "midi": 56,
      "hit": false,
      "t": 87935.14124999993,
      "d": 108.57824999999139,
      "v": 127
    },
    {
      "midi": 34,
      "hit": false,
      "t": 88174.80787499997,
      "d": 160.2191249999887,
      "v": 127
    },
    {
      "midi": 74,
      "hit": false,
      "t": 88184.07674999992,
      "d": 74.15099999999802,
      "v": 83
    },
    {
      "midi": 60,
      "hit": false,
      "t": 88189.37324999992,
      "d": 120.4953749999986,
      "v": 127
    },
    {
      "midi": 74,
      "hit": false,
      "t": 88194.66974999999,
      "d": 38.39962499999092,
      "v": 94
    },
    {
      "midi": 75,
      "hit": false,
      "t": 88199.96624999998,
      "d": 90.04049999998824,
      "v": 127
    },
    {
      "midi": 58,
      "hit": false,
      "t": 88202.61449999997,
      "d": 128.4401249999937,
      "v": 106
    },
    {
      "midi": 63,
      "hit": false,
      "t": 88209.23512499992,
      "d": 146.97787499999686,
      "v": 127
    },
    {
      "midi": 62,
      "hit": false,
      "t": 88210.55924999992,
      "d": 31.778999999994994,
      "v": 100
    },
    {
      "midi": 75,
      "hit": false,
      "t": 88215.85574999992,
      "d": 160.21912500000326,
      "v": 127
    },
    {
      "midi": 34,
      "hit": false,
      "t": 88218.5040000001,
      "d": 165.515625,
      "v": 127
    },
    {
      "midi": 34,
      "hit": false,
      "t": 88472.7360000001,
      "d": 595.8562499999971,
      "v": 127
    },
    {
      "midi": 56,
      "hit": false,
      "t": 88674.00299999992,
      "d": 145.65374999999767,
      "v": 127
    },
    {
      "midi": 34,
      "hit": false,
      "t": 88674.00299999995,
      "d": 165.51562500001455,
      "v": 127
    },
    {
      "midi": 74,
      "hit": false,
      "t": 88677.97537499997,
      "d": 150.9502499999944,
      "v": 120
    },
    {
      "midi": 53,
      "hit": false,
      "t": 88687.24424999996,
      "d": 133.736625000005,
      "v": 112
    },
    {
      "midi": 74,
      "hit": false,
      "t": 88700.48549999992,
      "d": 198.61874999999418,
      "v": 127
    },
    {
      "midi": 62,
      "hit": false,
      "t": 88704.45787499992,
      "d": 190.67399999999907,
      "v": 127
    },
    {
      "midi": 72,
      "hit": false,
      "t": 89189.08762499996,
      "d": 248.93550000000687,
      "v": 120
    },
    {
      "midi": 34,
      "hit": false,
      "t": 89189.08762499997,
      "d": 239.66662499999802,
      "v": 127
    },
    {
      "midi": 56,
      "hit": false,
      "t": 89214.24599999991,
      "d": 100.63349999999627,
      "v": 127
    },
    {
      "midi": 53,
      "hit": false,
      "t": 89218.21837499997,
      "d": 133.736625000005,
      "v": 100
    },
    {
      "midi": 60,
      "hit": false,
      "t": 89234.10787499991,
      "d": 244.96312499999476,
      "v": 127
    },
    {
      "midi": 34,
      "hit": false,
      "t": 89235.4320000001,
      "d": 243.63899999999558,
      "v": 127
    },
    {
      "midi": 72,
      "hit": false,
      "t": 89238.08024999991,
      "d": 252.90787500000442,
      "v": 127
    },
    {
      "midi": 39,
      "hit": false,
      "t": 89445.96787499997,
      "d": 425.04412500000035,
      "v": 127
    },
    {
      "midi": 54,
      "hit": false,
      "t": 89460.5332499999,
      "d": 483.30562500000815,
      "v": 127
    },
    {
      "midi": 51,
      "hit": false,
      "t": 89467.15387499997,
      "d": 394.58925000000454,
      "v": 106
    },
    {
      "midi": 71,
      "hit": false,
      "t": 89479.07099999997,
      "d": 460.7954999999929,
      "v": 90
    },
    {
      "midi": 39,
      "hit": false,
      "t": 89489.66400000009,
      "d": 594.5321249999979,
      "v": 127
    },
    {
      "midi": 59,
      "hit": false,
      "t": 89490.98812499992,
      "d": 454.174874999997,
      "v": 127
    },
    {
      "midi": 71,
      "hit": false,
      "t": 89490.98812499992,
      "d": 478.00912499999686,
      "v": 127
    },
    {
      "midi": 39,
      "hit": false,
      "t": 89939.86649999997,
      "d": 66.20625000000291,
      "v": 127
    },
    {
      "midi": 72,
      "hit": false,
      "t": 89961.05249999996,
      "d": 78.12337499999558,
      "v": 127
    },
    {
      "midi": 55,
      "hit": false,
      "t": 89970.32137499991,
      "d": 111.22649999998976,
      "v": 127
    },
    {
      "midi": 51,
      "hit": false,
      "t": 89970.32137499997,
      "d": 79.44750000000931,
      "v": 127
    },
    {
      "midi": 72,
      "hit": false,
      "t": 89994.15562499991,
      "d": 137.708999999988,
      "v": 127
    },
    {
      "midi": 60,
      "hit": false,
      "t": 89999.45212499991,
      "d": 161.5432499999879,
      "v": 127
    },
    {
      "midi": 39,
      "hit": false,
      "t": 90223.22924999997,
      "d": 27.80662499999744,
      "v": 19
    },
    {
      "midi": 39,
      "hit": false,
      "t": 90252.36000000009,
      "d": 141.68137500000012,
      "v": 127
    },
    {
      "midi": 39,
      "hit": false,
      "t": 90454.95112499998,
      "d": 440.9336250000051,
      "v": 127
    },
    {
      "midi": 54,
      "hit": false,
      "t": 90470.8406249999,
      "d": 548.1877500000119,
      "v": 127
    },
    {
      "midi": 51,
      "hit": false,
      "t": 90480.10949999998,
      "d": 397.2375000000029,
      "v": 127
    },
    {
      "midi": 71,
      "hit": false,
      "t": 90492.02662499995,
      "d": 511.11224999999104,
      "v": 97
    },
    {
      "midi": 59,
      "hit": false,
      "t": 90498.64724999989,
      "d": 467.4161250000034,
      "v": 127
    },
    {
      "midi": 71,
      "hit": false,
      "t": 90499.97137499989,
      "d": 463.4437500000058,
      "v": 127
    },
    {
      "midi": 39,
      "hit": false,
      "t": 90506.59200000009,
      "d": 639.5523749999993,
      "v": 127
    },
    {
      "midi": 51,
      "hit": false,
      "t": 90975.33224999998,
      "d": 90.0405000000028,
      "v": 127
    },
    {
      "midi": 39,
      "hit": false,
      "t": 90980.62874999997,
      "d": 70.17862500000047,
      "v": 127
    },
    {
      "midi": 72,
      "hit": false,
      "t": 90995.19412499995,
      "d": 72.82687499999884,
      "v": 127
    },
    {
      "midi": 55,
      "hit": false,
      "t": 91007.1112499999,
      "d": 100.63350000001083,
      "v": 127
    },
    {
      "midi": 72,
      "hit": false,
      "t": 91030.94549999991,
      "d": 190.67399999998452,
      "v": 127
    },
    {
      "midi": 60,
      "hit": false,
      "t": 91034.91787499991,
      "d": 178.75687499999185,
      "v": 127
    },
    {
      "midi": 39,
      "hit": false,
      "t": 91250.75024999998,
      "d": 30.45487499999581,
      "v": 20
    },
    {
      "midi": 39,
      "hit": false,
      "t": 91269.28800000009,
      "d": 146.97787499999686,
      "v": 127
    },
    {
      "midi": 39,
      "hit": false,
      "t": 91482.47212499999,
      "d": 434.31299999999464,
      "v": 127
    },
    {
      "midi": 54,
      "hit": false,
      "t": 91489.0927499999,
      "d": 484.6297500000219,
      "v": 127
    },
    {
      "midi": 51,
      "hit": false,
      "t": 91507.63049999998,
      "d": 385.3203749999957,
      "v": 127
    },
    {
      "midi": 71,
      "hit": false,
      "t": 91512.9269999999,
      "d": 422.39587500001653,
      "v": 127
    },
    {
      "midi": 71,
      "hit": false,
      "t": 91515.57524999995,
      "d": 468.74025000000256,
      "v": 100
    },
    {
      "midi": 39,
      "hit": false,
      "t": 91523.52000000009,
      "d": 527.0017499999958,
      "v": 127
    },
    {
      "midi": 59,
      "hit": false,
      "t": 91528.8164999999,
      "d": 391.94100000000617,
      "v": 127
    },
    {
      "midi": 60,
      "hit": false,
      "t": 91984.31549999991,
      "d": 177.43275000000722,
      "v": 127
    },
    {
      "midi": 72,
      "hit": false,
      "t": 91988.2878749999,
      "d": 133.736625000005,
      "v": 127
    },
    {
      "midi": 39,
      "hit": false,
      "t": 91994.90849999998,
      "d": 68.85450000000128,
      "v": 127
    },
    {
      "midi": 55,
      "hit": false,
      "t": 92005.50149999991,
      "d": 133.736625000005,
      "v": 127
    },
    {
      "midi": 51,
      "hit": false,
      "t": 92009.47387499998,
      "d": 91.36462500000198,
      "v": 96
    },
    {
      "midi": 72,
      "hit": false,
      "t": 92013.44624999995,
      "d": 68.85450000000128,
      "v": 92
    },
    {
      "midi": 74,
      "hit": false,
      "t": 92254.43699999995,
      "d": 66.20625000000291,
      "v": 97
    },
    {
      "midi": 74,
      "hit": false,
      "t": 92257.08524999992,
      "d": 96.66112499999872,
      "v": 120
    },
    {
      "midi": 39,
      "hit": false,
      "t": 92258.40937499999,
      "d": 161.5432499999879,
      "v": 127
    },
    {
      "midi": 62,
      "hit": false,
      "t": 92261.05762499991,
      "d": 86.06812500000524,
      "v": 85
    },
    {
      "midi": 55,
      "hit": false,
      "t": 92269.00237499998,
      "d": 145.65374999999767,
      "v": 120
    },
    {
      "midi": 58,
      "hit": false,
      "t": 92276.94712499992,
      "d": 136.38487500000338,
      "v": 127
    },
    {
      "midi": 75,
      "hit": false,
      "t": 92280.91949999995,
      "d": 127.11600000000908,
      "v": 127
    },
    {
      "midi": 39,
      "hit": false,
      "t": 92286.21600000009,
      "d": 325.73475000000326,
      "v": 127
    },
    {
      "midi": 63,
      "hit": false,
      "t": 92304.75374999992,
      "d": 146.9778750000114,
      "v": 127
    },
    {
      "midi": 75,
      "hit": false,
      "t": 92316.67087499992,
      "d": 156.2467500000057,
      "v": 106
    },
    {
      "midi": 39,
      "hit": false,
      "t": 92754.95624999997,
      "d": 156.2467500000057,
      "v": 127
    },
    {
      "midi": 74,
      "hit": false,
      "t": 92764.22512499995,
      "d": 123.14362499999697,
      "v": 120
    },
    {
      "midi": 51,
      "hit": false,
      "t": 92773.49399999998,
      "d": 112.55062500000349,
      "v": 106
    },
    {
      "midi": 55,
      "hit": false,
      "t": 92777.46637499993,
      "d": 144.3296249999985,
      "v": 127
    },
    {
      "midi": 74,
      "hit": false,
      "t": 92777.46637499993,
      "d": 176.10862499999348,
      "v": 127
    },
    {
      "midi": 62,
      "hit": false,
      "t": 92778.79049999993,
      "d": 168.16387499999837,
      "v": 127
    },
    {
      "midi": 39,
      "hit": false,
      "t": 92794.6800000001,
      "d": 393.26512500000536,
      "v": 127
    },
    {
      "midi": 72,
      "hit": false,
      "t": 93280.63387499996,
      "d": 258.20437500000116,
      "v": 120
    },
    {
      "midi": 55,
      "hit": false,
      "t": 93281.95799999993,
      "d": 112.55062500000349,
      "v": 127
    },
    {
      "midi": 39,
      "hit": false,
      "t": 93281.95799999998,
      "d": 235.69425000000047,
      "v": 127
    },
    {
      "midi": 60,
      "hit": false,
      "t": 93295.19924999993,
      "d": 275.4180000000197,
      "v": 127
    },
    {
      "midi": 72,
      "hit": false,
      "t": 93297.84749999993,
      "d": 252.90787500001898,
      "v": 127
    },
    {
      "midi": 51,
      "hit": false,
      "t": 93301.81987499999,
      "d": 99.30937499999709,
      "v": 112
    },
    {
      "midi": 40,
      "hit": false,
      "t": 93303.1440000001,
      "d": 252.90787500000442,
      "v": 127
    },
    {
      "midi": 55,
      "hit": false,
      "t": 93526.92112499995,
      "d": 509.7881250000064,
      "v": 127
    },
    {
      "midi": 53,
      "hit": false,
      "t": 93530.89349999999,
      "d": 362.81025000000955,
      "v": 100
    },
    {
      "midi": 41,
      "hit": false,
      "t": 93548.107125,
      "d": 411.8028750000085,
      "v": 127
    },
    {
      "midi": 59,
      "hit": false,
      "t": 93550.75537499995,
      "d": 467.4161250000034,
      "v": 127
    },
    {
      "midi": 71,
      "hit": false,
      "t": 93550.75537499996,
      "d": 458.14724999999453,
      "v": 100
    },
    {
      "midi": 41,
      "hit": false,
      "t": 93557.3760000001,
      "d": 601.1527499999938,
      "v": 127
    },
    {
      "midi": 71,
      "hit": false,
      "t": 93558.70012499994,
      "d": 466.0920000000042,
      "v": 127
    },
    {
      "midi": 56,
      "hit": false,
      "t": 94016.84737499995,
      "d": 72.82687499999884,
      "v": 127
    },
    {
      "midi": 53,
      "hit": false,
      "t": 94034.061,
      "d": 88.71637499998906,
      "v": 97
    },
    {
      "midi": 41,
      "hit": false,
      "t": 94040.681625,
      "d": 94.01287500000035,
      "v": 127
    },
    {
      "midi": 72,
      "hit": false,
      "t": 94042.00574999995,
      "d": 74.15099999999802,
      "v": 127
    },
    {
      "midi": 72,
      "hit": false,
      "t": 94063.19174999995,
      "d": 143.0054999999993,
      "v": 127
    },
    {
      "midi": 60,
      "hit": false,
      "t": 94079.08124999996,
      "d": 156.24674999999115,
      "v": 127
    },
    {
      "midi": 41,
      "hit": false,
      "t": 94320.0720000001,
      "d": 143.0054999999993,
      "v": 127
    },
    {
      "midi": 55,
      "hit": false,
      "t": 94494.85649999995,
      "d": 549.5118749999965,
      "v": 127
    },
    {
      "midi": 53,
      "hit": false,
      "t": 94531.932,
      "d": 319.1141249999928,
      "v": 97
    },
    {
      "midi": 41,
      "hit": false,
      "t": 94531.932,
      "d": 411.80287499999395,
      "v": 127
    },
    {
      "midi": 71,
      "hit": false,
      "t": 94543.84912499995,
      "d": 470.06437500000175,
      "v": 127
    },
    {
      "midi": 59,
      "hit": false,
      "t": 94547.82149999995,
      "d": 466.0920000000042,
      "v": 127
    },
    {
      "midi": 71,
      "hit": false,
      "t": 94559.73862499995,
      "d": 508.4640000000072,
      "v": 100
    },
    {
      "midi": 41,
      "hit": false,
      "t": 94574.3040000001,
      "d": 593.2079999999987,
      "v": 127
    },
    {
      "midi": 56,
      "hit": false,
      "t": 95021.85824999995,
      "d": 72.82687499999884,
      "v": 127
    },
    {
      "midi": 53,
      "hit": false,
      "t": 95025.83062499999,
      "d": 97.9852499999979,
      "v": 92
    },
    {
      "midi": 41,
      "hit": false,
      "t": 95049.66487499999,
      "d": 95.33699999999953,
      "v": 127
    },
    {
      "midi": 72,
      "hit": false,
      "t": 95054.96137499996,
      "d": 80.7716250000085,
      "v": 127
    },
    {
      "midi": 72,
      "hit": false,
      "t": 95066.87849999995,
      "d": 153.59849999999278,
      "v": 127
    },
    {
      "midi": 60,
      "hit": false,
      "t": 95072.17499999994,
      "d": 168.16387499999837,
      "v": 127
    },
    {
      "midi": 41,
      "hit": false,
      "t": 95337.0000000001,
      "d": 223.77712499999325,
      "v": 127
    },
    {
      "midi": 55,
      "hit": false,
      "t": 95536.94287499995,
      "d": 548.1877500000119,
      "v": 127
    },
    {
      "midi": 53,
      "hit": false,
      "t": 95544.88762499999,
      "d": 376.0515000000014,
      "v": 100
    },
    {
      "midi": 34,
      "hit": false,
      "t": 95544.88762499999,
      "d": 394.58925000000454,
      "v": 127
    },
    {
      "midi": 71,
      "hit": false,
      "t": 95568.72187499994,
      "d": 446.23012500000186,
      "v": 127
    },
    {
      "midi": 59,
      "hit": false,
      "t": 95574.01837499994,
      "d": 422.395875000002,
      "v": 127
    },
    {
      "midi": 71,
      "hit": false,
      "t": 95575.34249999997,
      "d": 501.84337499999674,
      "v": 100
    },
    {
      "midi": 34,
      "hit": false,
      "t": 95591.23200000009,
      "d": 538.918875000003,
      "v": 127
    },
    {
      "midi": 53,
      "hit": false,
      "t": 96052.0275,
      "d": 95.33699999999953,
      "v": 81
    },
    {
      "midi": 72,
      "hit": false,
      "t": 96053.35162499995,
      "d": 90.0405000000028,
      "v": 120
    },
    {
      "midi": 56,
      "hit": false,
      "t": 96053.35162499995,
      "d": 112.55062500000349,
      "v": 112
    },
    {
      "midi": 60,
      "hit": false,
      "t": 96067.91699999996,
      "d": 104.60587499999383,
      "v": 127
    },
    {
      "midi": 34,
      "hit": false,
      "t": 96075.86175,
      "d": 56.93737499999406,
      "v": 112
    },
    {
      "midi": 72,
      "hit": false,
      "t": 96087.77887499996,
      "d": 68.85450000000128,
      "v": 90
    },
    {
      "midi": 74,
      "hit": false,
      "t": 96319.50074999996,
      "d": 64.88212500000373,
      "v": 92
    },
    {
      "midi": 60,
      "hit": false,
      "t": 96326.12137499994,
      "d": 146.97787499999686,
      "v": 127
    },
    {
      "midi": 34,
      "hit": false,
      "t": 96331.417875,
      "d": 150.95025000000896,
      "v": 127
    },
    {
      "midi": 74,
      "hit": false,
      "t": 96335.39024999994,
      "d": 63.55800000000454,
      "v": 112
    },
    {
      "midi": 75,
      "hit": false,
      "t": 96343.33499999996,
      "d": 103.2817500000092,
      "v": 127
    },
    {
      "midi": 63,
      "hit": false,
      "t": 96349.95562499994,
      "d": 162.86737500000163,
      "v": 127
    },
    {
      "midi": 58,
      "hit": false,
      "t": 96353.928,
      "d": 92.68875000000116,
      "v": 100
    },
    {
      "midi": 34,
      "hit": false,
      "t": 96353.92800000009,
      "d": 124.46774999999616,
      "v": 127
    },
    {
      "midi": 75,
      "hit": false,
      "t": 96357.90037499994,
      "d": 172.13625000001048,
      "v": 127
    },
    {
      "midi": 62,
      "hit": false,
      "t": 96359.22449999994,
      "d": 18.537750000003143,
      "v": 100
    },
    {
      "midi": 34,
      "hit": false,
      "t": 96608.16000000008,
      "d": 572.0219999999972,
      "v": 127
    },
    {
      "midi": 53,
      "hit": false,
      "t": 96810.75112500001,
      "d": 127.11600000000908,
      "v": 97
    },
    {
      "midi": 34,
      "hit": false,
      "t": 96822.66825000002,
      "d": 139.03312500000175,
      "v": 127
    },
    {
      "midi": 56,
      "hit": false,
      "t": 96826.64062499996,
      "d": 125.79187499999534,
      "v": 127
    },
    {
      "midi": 74,
      "hit": false,
      "t": 96845.17837499997,
      "d": 108.57825000000594,
      "v": 127
    },
    {
      "midi": 62,
      "hit": false,
      "t": 96847.82662499996,
      "d": 141.68137500000012,
      "v": 127
    },
    {
      "midi": 74,
      "hit": false,
      "t": 96847.82662499996,
      "d": 172.13624999999593,
      "v": 127
    },
    {
      "midi": 72,
      "hit": false,
      "t": 97302.00149999998,
      "d": 356.1896250000282,
      "v": 100
    },
    {
      "midi": 34,
      "hit": false,
      "t": 97341.72525000002,
      "d": 205.2393749999901,
      "v": 127
    },
    {
      "midi": 60,
      "hit": false,
      "t": 97343.04937499996,
      "d": 271.445624999993,
      "v": 127
    },
    {
      "midi": 72,
      "hit": false,
      "t": 97345.69762499996,
      "d": 268.79737499999464,
      "v": 127
    },
    {
      "midi": 56,
      "hit": false,
      "t": 97349.66999999995,
      "d": 111.22650000000431,
      "v": 127
    },
    {
      "midi": 53,
      "hit": false,
      "t": 97349.67000000001,
      "d": 116.52300000000105,
      "v": 94
    },
    {
      "midi": 34,
      "hit": false,
      "t": 97370.85600000007,
      "d": 210.5358750000014,
      "v": 127
    },
    {
      "midi": 71,
      "hit": false,
      "t": 97585.36424999996,
      "d": 471.38850000000093,
      "v": 127
    },
    {
      "midi": 39,
      "hit": false,
      "t": 97588.01250000001,
      "d": 382.6721249999973,
      "v": 127
    },
    {
      "midi": 54,
      "hit": false,
      "t": 97589.33662499995,
      "d": 451.5266249999986,
      "v": 127
    },
    {
      "midi": 59,
      "hit": false,
      "t": 97594.63312499995,
      "d": 470.06437500000175,
      "v": 127
    },
    {
      "midi": 71,
      "hit": false,
      "t": 97611.84675000001,
      "d": 435.63712499999383,
      "v": 127
    },
    {
      "midi": 51,
      "hit": false,
      "t": 97613.17087500001,
      "d": 354.8654999999999,
      "v": 106
    },
    {
      "midi": 39,
      "hit": false,
      "t": 97625.08800000008,
      "d": 606.4492500000051,
      "v": 127
    },
    {
      "midi": 55,
      "hit": false,
      "t": 98064.69749999995,
      "d": 109.90237500000512,
      "v": 127
    },
    {
      "midi": 39,
      "hit": false,
      "t": 98089.85587500001,
      "d": 64.88212499998917,
      "v": 127
    },
    {
      "midi": 51,
      "hit": false,
      "t": 98097.800625,
      "d": 66.20624999998836,
      "v": 127
    },
    {
      "midi": 72,
      "hit": false,
      "t": 98104.42125,
      "d": 82.09574999999313,
      "v": 127
    },
    {
      "midi": 72,
      "hit": false,
      "t": 98105.74537499995,
      "d": 148.30199999999604,
      "v": 127
    },
    {
      "midi": 60,
      "hit": false,
      "t": 98121.63487499996,
      "d": 157.57087499999034,
      "v": 127
    },
    {
      "midi": 39,
      "hit": false,
      "t": 98387.78400000009,
      "d": 145.65374999999767,
      "v": 127
    },
    {
      "midi": 39,
      "hit": false,
      "t": 98565.21674999999,
      "d": 443.5818750000035,
      "v": 127
    },
    {
      "midi": 54,
      "hit": false,
      "t": 98567.86499999995,
      "d": 538.9188749999885,
      "v": 127
    },
    {
      "midi": 59,
      "hit": false,
      "t": 98620.82999999994,
      "d": 436.961249999993,
      "v": 127
    },
    {
      "midi": 71,
      "hit": false,
      "t": 98623.47824999994,
      "d": 423.72000000000116,
      "v": 127
    },
    {
      "midi": 71,
      "hit": false,
      "t": 98624.802375,
      "d": 483.3056249999936,
      "v": 120
    },
    {
      "midi": 39,
      "hit": false,
      "t": 98642.01600000009,
      "d": 583.9391250000044,
      "v": 127
    },
    {
      "midi": 51,
      "hit": false,
      "t": 98649.96075,
      "d": 364.1343749999942,
      "v": 96
    },
    {
      "midi": 55,
      "hit": false,
      "t": 99104.13562499994,
      "d": 108.57825000000594,
      "v": 127
    },
    {
      "midi": 72,
      "hit": false,
      "t": 99118.70099999994,
      "d": 116.52300000000105,
      "v": 127
    },
    {
      "midi": 60,
      "hit": false,
      "t": 99120.02512499994,
      "d": 144.3296249999985,
      "v": 127
    },
    {
      "midi": 39,
      "hit": false,
      "t": 99130.618125,
      "d": 101.95762499999546,
      "v": 127
    },
    {
      "midi": 72,
      "hit": false,
      "t": 99139.88699999999,
      "d": 97.9852499999979,
      "v": 127
    },
    {
      "midi": 51,
      "hit": false,
      "t": 99145.1835,
      "d": 80.77162499999395,
      "v": 112
    },
    {
      "midi": 61,
      "hit": false,
      "t": 99391.47074999998,
      "d": 47.66849999999977,
      "v": 112
    },
    {
      "midi": 39,
      "hit": false,
      "t": 99404.7120000001,
      "d": 82.09574999999313,
      "v": 127
    },
    {
      "midi": 38,
      "hit": false,
      "t": 99447.08399999999,
      "d": 75.4751249999972,
      "v": 92
    },
    {
      "midi": 62,
      "hit": false,
      "t": 99465.62174999998,
      "d": 100.63349999999627,
      "v": 100
    },
    {
      "midi": 38,
      "hit": false,
      "t": 99531.8280000001,
      "d": 117.84712500000023,
      "v": 127
    },
    {
      "midi": 37,
      "hit": false,
      "t": 99535.80037499999,
      "d": 109.90237500000512,
      "v": 127
    },
    {
      "midi": 63,
      "hit": false,
      "t": 99538.44862499998,
      "d": 56.93737499999406,
      "v": 127
    },
    {
      "midi": 58,
      "hit": false,
      "t": 99621.86849999994,
      "d": 3911.465249999994,
      "v": 127
    },
    {
      "midi": 52,
      "hit": false,
      "t": 99621.8685,
      "d": 4095.5186250000115,
      "v": 100
    },
    {
      "midi": 63,
      "hit": false,
      "t": 99624.51674999994,
      "d": 3900.8722500000003,
      "v": 112
    },
    {
      "midi": 52,
      "hit": false,
      "t": 99624.51674999994,
      "d": 3918.0858749999898,
      "v": 127
    },
    {
      "midi": 36,
      "hit": false,
      "t": 99628.489125,
      "d": 3816.128250000009,
      "v": 120
    },
    {
      "midi": 64,
      "hit": false,
      "t": 99632.46149999998,
      "d": 3984.2921249999927,
      "v": 120
    },
    {
      "midi": 70,
      "hit": false,
      "t": 99635.10974999997,
      "d": 3988.26449999999,
      "v": 127
    },
    {
      "midi": 75,
      "hit": false,
      "t": 99640.40624999997,
      "d": 3975.0232499999984,
      "v": 127
    },
    {
      "midi": 36,
      "hit": false,
      "t": 99658.94400000009,
      "d": 4002.829874999996,
      "v": 127
    },
    {
      "midi": 67,
      "hit": false,
      "t": 102201.26399999998,
      "d": 344.2725000000064,
      "v": 127
    },
    {
      "midi": 23,
      "hit": false,
      "t": 102685.89375,
      "d": 82.09575000000768,
      "v": 28
    },
    {
      "midi": 21,
      "hit": false,
      "t": 102691.19025,
      "d": 13.241250000006403,
      "v": 29
    },
    {
      "midi": 67,
      "hit": false,
      "t": 102709.72799999999,
      "d": 336.32774999999674,
      "v": 127
    },
    {
      "midi": 26,
      "hit": false,
      "t": 102748.12762500001,
      "d": 99.30937499999709,
      "v": 41
    },
    {
      "midi": 28,
      "hit": false,
      "t": 102822.278625,
      "d": 72.82687499999884,
      "v": 57
    },
    {
      "midi": 30,
      "hit": false,
      "t": 102871.27125,
      "d": 66.20625000000291,
      "v": 67
    },
    {
      "midi": 33,
      "hit": false,
      "t": 102924.23625,
      "d": 72.82687500001339,
      "v": 78
    },
    {
      "midi": 35,
      "hit": false,
      "t": 102978.52537500001,
      "d": 55.61325000000943,
      "v": 90
    },
    {
      "midi": 38,
      "hit": false,
      "t": 103019.57325000002,
      "d": 68.85450000000128,
      "v": 99
    },
    {
      "midi": 40,
      "hit": false,
      "t": 103067.24175000002,
      "d": 58.2615000000078,
      "v": 109
    },
    {
      "midi": 42,
      "hit": false,
      "t": 103101.66900000002,
      "d": 63.55800000000454,
      "v": 116
    },
    {
      "midi": 45,
      "hit": false,
      "t": 103142.71687500003,
      "d": 88.71637500000361,
      "v": 125
    },
    {
      "midi": 47,
      "hit": false,
      "t": 103202.30250000003,
      "d": 70.17862500000047,
      "v": 109
    },
    {
      "midi": 67,
      "hit": false,
      "t": 103218.19199999998,
      "d": 333.67949999999837,
      "v": 127
    },
    {
      "midi": 50,
      "hit": false,
      "t": 103251.29512500003,
      "d": 82.09575000000768,
      "v": 110
    },
    {
      "midi": 52,
      "hit": false,
      "t": 103292.34300000004,
      "d": 75.4751249999972,
      "v": 105
    },
    {
      "midi": 54,
      "hit": false,
      "t": 103333.39087500004,
      "d": 71.5027499999851,
      "v": 99
    },
    {
      "midi": 57,
      "hit": false,
      "t": 103378.41112500003,
      "d": 72.82687499999884,
      "v": 93
    },
    {
      "midi": 59,
      "hit": false,
      "t": 103408.86600000002,
      "d": 75.4751249999972,
      "v": 89
    },
    {
      "midi": 62,
      "hit": false,
      "t": 103453.88625000003,
      "d": 75.4751249999972,
      "v": 73
    },
    {
      "midi": 64,
      "hit": false,
      "t": 103486.98937500002,
      "d": 70.17862500000047,
      "v": 68
    },
    {
      "midi": 66,
      "hit": false,
      "t": 103517.44425000002,
      "d": 63.55800000000454,
      "v": 64
    },
    {
      "midi": 69,
      "hit": false,
      "t": 103555.84387500002,
      "d": 63.55799999998999,
      "v": 58
    },
    {
      "midi": 71,
      "hit": false,
      "t": 103588.94700000001,
      "d": 59.58562499999243,
      "v": 54
    },
    {
      "midi": 74,
      "hit": false,
      "t": 103629.994875,
      "d": 54.289125000010245,
      "v": 48
    },
    {
      "midi": 76,
      "hit": false,
      "t": 103660.44975000001,
      "d": 48.99262499999895,
      "v": 43
    },
    {
      "midi": 78,
      "hit": false,
      "t": 103692.22875000001,
      "d": 35.7513750000071,
      "v": 33
    },
    {
      "midi": 67,
      "hit": false,
      "t": 103726.65599999997,
      "d": 718.9998749999941,
      "v": 127
    },
    {
      "midi": 53,
      "hit": false,
      "t": 103726.65599999999,
      "d": 2033.8559999999998,
      "v": 83
    },
    {
      "midi": 56,
      "hit": false,
      "t": 103726.65599999999,
      "d": 2033.8559999999998,
      "v": 83
    },
    {
      "midi": 60,
      "hit": false,
      "t": 103726.65599999999,
      "d": 2033.8559999999998,
      "v": 83
    },
    {
      "midi": 63,
      "hit": false,
      "t": 103726.65599999999,
      "d": 2033.8559999999998,
      "v": 83
    },
    {
      "midi": 96,
      "hit": false,
      "t": 103726.65599999999,
      "d": 4083.601500000077,
      "v": 99
    },
    {
      "midi": 72,
      "hit": false,
      "t": 103726.656,
      "d": 4034.608875000049,
      "v": 78
    },
    {
      "midi": 75,
      "hit": false,
      "t": 103726.656,
      "d": 4055.794875000036,
      "v": 78
    },
    {
      "midi": 68,
      "hit": false,
      "t": 103726.656,
      "d": 4066.3878750000295,
      "v": 78
    },
    {
      "midi": 41,
      "hit": false,
      "t": 103726.65600000009,
      "d": 129.7642499999929,
      "v": 127
    },
    {
      "midi": 41,
      "hit": false,
      "t": 103980.88800000008,
      "d": 202.5911250000063,
      "v": 127
    },
    {
      "midi": 63,
      "hit": false,
      "t": 104217.90637499993,
      "d": 84.7439999999915,
      "v": 69
    },
    {
      "midi": 60,
      "hit": false,
      "t": 104227.17524999993,
      "d": 90.0405000000028,
      "v": 66
    },
    {
      "midi": 67,
      "hit": false,
      "t": 104231.14762499993,
      "d": 94.01287500000035,
      "v": 85
    },
    {
      "midi": 56,
      "hit": false,
      "t": 104232.47174999992,
      "d": 92.68875000000116,
      "v": 80
    },
    {
      "midi": 75,
      "hit": false,
      "t": 104233.79587499997,
      "d": 113.87475000000268,
      "v": 105
    },
    {
      "midi": 72,
      "hit": false,
      "t": 104233.79587499997,
      "d": 120.4953749999986,
      "v": 105
    },
    {
      "midi": 68,
      "hit": false,
      "t": 104233.79587499997,
      "d": 127.11599999999453,
      "v": 105
    },
    {
      "midi": 79,
      "hit": false,
      "t": 104235.11999999997,
      "d": 125.79187499999534,
      "v": 105
    },
    {
      "midi": 63,
      "hit": false,
      "t": 104236.44412500001,
      "d": 82.09574999999313,
      "v": 86
    },
    {
      "midi": 67,
      "hit": false,
      "t": 104244.388875,
      "d": 46.34437500000058,
      "v": 81
    },
    {
      "midi": 60,
      "hit": false,
      "t": 104489.35199999997,
      "d": 491.25037500000326,
      "v": 127
    },
    {
      "midi": 36,
      "hit": false,
      "t": 104489.35200000009,
      "d": 214.50824999999895,
      "v": 127
    },
    {
      "midi": 41,
      "hit": false,
      "t": 104743.58400000009,
      "d": 135.0607500000042,
      "v": 127
    },
    {
      "midi": 63,
      "hit": false,
      "t": 104985.89887499993,
      "d": 402.53399999999965,
      "v": 80
    },
    {
      "midi": 60,
      "hit": false,
      "t": 104993.84362499992,
      "d": 385.32037500001024,
      "v": 74
    },
    {
      "midi": 63,
      "hit": false,
      "t": 104995.16775000001,
      "d": 403.8581249999843,
      "v": 86
    },
    {
      "midi": 56,
      "hit": false,
      "t": 104996.49187499992,
      "d": 394.58925000000454,
      "v": 80
    },
    {
      "midi": 67,
      "hit": false,
      "t": 104997.81599999992,
      "d": 369.43087500000547,
      "v": 94
    },
    {
      "midi": 62,
      "hit": false,
      "t": 104997.81599999998,
      "d": 266.1491250000108,
      "v": 120
    },
    {
      "midi": 41,
      "hit": false,
      "t": 104997.8160000001,
      "d": 195.9704999999958,
      "v": 127
    },
    {
      "midi": 79,
      "hit": false,
      "t": 104999.14012499996,
      "d": 362.810249999995,
      "v": 105
    },
    {
      "midi": 72,
      "hit": false,
      "t": 104999.14012499996,
      "d": 383.9962499999965,
      "v": 105
    },
    {
      "midi": 75,
      "hit": false,
      "t": 104999.14012499996,
      "d": 386.6444999999949,
      "v": 105
    },
    {
      "midi": 68,
      "hit": false,
      "t": 104999.14012499996,
      "d": 389.29274999999325,
      "v": 105
    },
    {
      "midi": 67,
      "hit": false,
      "t": 105004.436625,
      "d": 387.96862499999406,
      "v": 87
    },
    {
      "midi": 63,
      "hit": false,
      "t": 105252.04799999998,
      "d": 201.2670000000071,
      "v": 127
    },
    {
      "midi": 63,
      "hit": false,
      "t": 105477.14924999993,
      "d": 70.17862499998591,
      "v": 86
    },
    {
      "midi": 60,
      "hit": false,
      "t": 105486.41812499992,
      "d": 62.2338749999908,
      "v": 74
    },
    {
      "midi": 67,
      "hit": false,
      "t": 105490.39049999992,
      "d": 54.28912499999569,
      "v": 90
    },
    {
      "midi": 56,
      "hit": false,
      "t": 105491.71462499992,
      "d": 88.71637499998906,
      "v": 83
    },
    {
      "midi": 63,
      "hit": false,
      "t": 105499.65937499999,
      "d": 59.585625000006985,
      "v": 93
    },
    {
      "midi": 68,
      "hit": false,
      "t": 105504.95587499996,
      "d": 45.0202500000014,
      "v": 105
    },
    {
      "midi": 75,
      "hit": false,
      "t": 105504.95587499996,
      "d": 46.34437500000058,
      "v": 105
    },
    {
      "midi": 72,
      "hit": false,
      "t": 105504.95587499996,
      "d": 55.61324999999488,
      "v": 105
    },
    {
      "midi": 65,
      "hit": false,
      "t": 105506.27999999998,
      "d": 267.47325000001,
      "v": 112
    },
    {
      "midi": 67,
      "hit": false,
      "t": 105506.27999999998,
      "d": 41.04787500000384,
      "v": 87
    },
    {
      "midi": 36,
      "hit": false,
      "t": 105506.28000000009,
      "d": 185.37750000000233,
      "v": 127
    },
    {
      "midi": 79,
      "hit": false,
      "t": 105507.60412499995,
      "d": 52.96499999999651,
      "v": 105
    },
    {
      "midi": 67,
      "hit": false,
      "t": 105760.51199999999,
      "d": 146.9778750000114,
      "v": 127
    },
    {
      "midi": 56,
      "hit": false,
      "t": 105760.51199999999,
      "d": 1016.9279999999999,
      "v": 83
    },
    {
      "midi": 60,
      "hit": false,
      "t": 105760.51199999999,
      "d": 1016.9279999999999,
      "v": 83
    },
    {
      "midi": 63,
      "hit": false,
      "t": 105760.51199999999,
      "d": 1016.9279999999999,
      "v": 83
    },
    {
      "midi": 34,
      "hit": false,
      "t": 105760.51200000009,
      "d": 120.4953749999986,
      "v": 127
    },
    {
      "midi": 67,
      "hit": false,
      "t": 106014.744,
      "d": 460.7954999999929,
      "v": 127
    },
    {
      "midi": 34,
      "hit": false,
      "t": 106014.7440000001,
      "d": 185.37750000000233,
      "v": 127
    },
    {
      "midi": 63,
      "hit": false,
      "t": 106258.38299999991,
      "d": 71.50274999999965,
      "v": 96
    },
    {
      "midi": 60,
      "hit": false,
      "t": 106266.32774999991,
      "d": 70.17862500000047,
      "v": 81
    },
    {
      "midi": 56,
      "hit": false,
      "t": 106267.65187499991,
      "d": 80.77162499999395,
      "v": 86
    },
    {
      "midi": 79,
      "hit": false,
      "t": 106267.65187499995,
      "d": 70.17862500000047,
      "v": 105
    },
    {
      "midi": 68,
      "hit": false,
      "t": 106267.65187499995,
      "d": 129.7642499999929,
      "v": 105
    },
    {
      "midi": 67,
      "hit": false,
      "t": 106270.3001249999,
      "d": 67.5303750000021,
      "v": 94
    },
    {
      "midi": 72,
      "hit": false,
      "t": 106270.30012499995,
      "d": 94.01287500000035,
      "v": 105
    },
    {
      "midi": 75,
      "hit": false,
      "t": 106270.30012499995,
      "d": 94.01287500000035,
      "v": 105
    },
    {
      "midi": 63,
      "hit": false,
      "t": 106272.94837499999,
      "d": 74.15099999999802,
      "v": 93
    },
    {
      "midi": 67,
      "hit": false,
      "t": 106282.21724999999,
      "d": 50.31674999999814,
      "v": 81
    },
    {
      "midi": 65,
      "hit": false,
      "t": 106523.208,
      "d": 438.28537500000675,
      "v": 127
    },
    {
      "midi": 41,
      "hit": false,
      "t": 106523.2080000001,
      "d": 161.54325000000244,
      "v": 127
    },
    {
      "midi": 56,
      "hit": false,
      "t": 106777.43999999999,
      "d": 1016.9280000000726,
      "v": 83
    },
    {
      "midi": 62,
      "hit": false,
      "t": 106777.43999999999,
      "d": 1016.9280000000726,
      "v": 83
    },
    {
      "midi": 65,
      "hit": false,
      "t": 106777.43999999999,
      "d": 1016.9280000000726,
      "v": 83
    },
    {
      "midi": 46,
      "hit": false,
      "t": 106777.4400000001,
      "d": 168.16387499999837,
      "v": 127
    },
    {
      "midi": 62,
      "hit": false,
      "t": 107025.051375,
      "d": 362.810249999995,
      "v": 83
    },
    {
      "midi": 62,
      "hit": false,
      "t": 107027.6996249999,
      "d": 397.23749999998836,
      "v": 81
    },
    {
      "midi": 60,
      "hit": false,
      "t": 107029.0237499999,
      "d": 387.96862499999406,
      "v": 74
    },
    {
      "midi": 56,
      "hit": false,
      "t": 107029.0237499999,
      "d": 402.5339999999851,
      "v": 80
    },
    {
      "midi": 65,
      "hit": false,
      "t": 107029.02375,
      "d": 360.1619999999966,
      "v": 83
    },
    {
      "midi": 77,
      "hit": false,
      "t": 107030.34787499995,
      "d": 389.29274999999325,
      "v": 105
    },
    {
      "midi": 68,
      "hit": false,
      "t": 107030.34787499995,
      "d": 418.4234999999899,
      "v": 105
    },
    {
      "midi": 72,
      "hit": false,
      "t": 107030.34787499995,
      "d": 425.0441249999858,
      "v": 105
    },
    {
      "midi": 74,
      "hit": false,
      "t": 107031.67199999995,
      "d": 414.4511249999923,
      "v": 105
    },
    {
      "midi": 63,
      "hit": false,
      "t": 107031.672,
      "d": 237.01837499999965,
      "v": 127
    },
    {
      "midi": 41,
      "hit": false,
      "t": 107031.67200000011,
      "d": 173.4603749999951,
      "v": 127
    },
    {
      "midi": 65,
      "hit": false,
      "t": 107034.3202499999,
      "d": 385.3203749999957,
      "v": 76
    },
    {
      "midi": 62,
      "hit": false,
      "t": 107285.90400000001,
      "d": 219.8047499999957,
      "v": 127
    },
    {
      "midi": 46,
      "hit": false,
      "t": 107285.9040000001,
      "d": 219.8047499999957,
      "v": 127
    },
    {
      "midi": 62,
      "hit": false,
      "t": 107522.922375,
      "d": 75.47512500001176,
      "v": 76
    },
    {
      "midi": 65,
      "hit": false,
      "t": 107526.89474999999,
      "d": 59.585625000006985,
      "v": 81
    },
    {
      "midi": 62,
      "hit": false,
      "t": 107534.83949999989,
      "d": 76.79924999999639,
      "v": 83
    },
    {
      "midi": 60,
      "hit": false,
      "t": 107534.83949999989,
      "d": 87.39224999998987,
      "v": 81
    },
    {
      "midi": 68,
      "hit": false,
      "t": 107538.81187499994,
      "d": 71.5027499999851,
      "v": 105
    },
    {
      "midi": 63,
      "hit": false,
      "t": 107540.136,
      "d": 189.34987499999988,
      "v": 127
    },
    {
      "midi": 44,
      "hit": false,
      "t": 107540.13600000009,
      "d": 222.45299999999406,
      "v": 127
    },
    {
      "midi": 77,
      "hit": false,
      "t": 107541.46012499994,
      "d": 56.93737499999406,
      "v": 105
    },
    {
      "midi": 74,
      "hit": false,
      "t": 107541.46012499994,
      "d": 67.53037499998754,
      "v": 105
    },
    {
      "midi": 72,
      "hit": false,
      "t": 107541.46012499994,
      "d": 72.82687499998428,
      "v": 105
    },
    {
      "midi": 65,
      "hit": false,
      "t": 107544.10837499988,
      "d": 67.5303750000021,
      "v": 83
    },
    {
      "midi": 56,
      "hit": false,
      "t": 107546.75662499988,
      "d": 80.77162499999395,
      "v": 77
    },
    {
      "midi": 70,
      "hit": false,
      "t": 107758.61662500005,
      "d": 2069.607375000007,
      "v": 78
    },
    {
      "midi": 65,
      "hit": false,
      "t": 107762.58900000005,
      "d": 2065.6350000000093,
      "v": 78
    },
    {
      "midi": 74,
      "hit": false,
      "t": 107762.58900000005,
      "d": 2065.6350000000093,
      "v": 78
    },
    {
      "midi": 65,
      "hit": false,
      "t": 107794.368,
      "d": 764.0201249999955,
      "v": 127
    },
    {
      "midi": 43,
      "hit": false,
      "t": 107794.36800000006,
      "d": 2033.8560000000289,
      "v": 83
    },
    {
      "midi": 53,
      "hit": false,
      "t": 107794.36800000006,
      "d": 2033.8560000000289,
      "v": 83
    },
    {
      "midi": 58,
      "hit": false,
      "t": 107794.36800000006,
      "d": 2033.8560000000289,
      "v": 83
    },
    {
      "midi": 62,
      "hit": false,
      "t": 107794.36800000006,
      "d": 2033.8560000000289,
      "v": 83
    },
    {
      "midi": 94,
      "hit": false,
      "t": 107794.36800000006,
      "d": 4095.5186250000697,
      "v": 99
    },
    {
      "midi": 43,
      "hit": false,
      "t": 107794.36800000007,
      "d": 158.89500000000407,
      "v": 127
    },
    {
      "midi": 43,
      "hit": false,
      "t": 108048.60000000008,
      "d": 193.32224999999744,
      "v": 127
    },
    {
      "midi": 58,
      "hit": false,
      "t": 108273.70124999987,
      "d": 66.2062499999738,
      "v": 93
    },
    {
      "midi": 62,
      "hit": false,
      "t": 108282.97012499986,
      "d": 67.53037499997299,
      "v": 76
    },
    {
      "midi": 55,
      "hit": false,
      "t": 108289.59074999986,
      "d": 111.2264999999752,
      "v": 81
    },
    {
      "midi": 62,
      "hit": false,
      "t": 108290.914875,
      "d": 74.15099999999802,
      "v": 83
    },
    {
      "midi": 65,
      "hit": false,
      "t": 108292.239,
      "d": 64.88212500000373,
      "v": 83
    },
    {
      "midi": 77,
      "hit": false,
      "t": 108297.53549999993,
      "d": 135.06074999998964,
      "v": 105
    },
    {
      "midi": 70,
      "hit": false,
      "t": 108297.53549999993,
      "d": 137.708999999988,
      "v": 105
    },
    {
      "midi": 65,
      "hit": false,
      "t": 108298.85962499985,
      "d": 31.778999999994994,
      "v": 72
    },
    {
      "midi": 74,
      "hit": false,
      "t": 108298.85962499992,
      "d": 129.7642499999929,
      "v": 105
    },
    {
      "midi": 67,
      "hit": false,
      "t": 108298.85962499992,
      "d": 156.24674999999115,
      "v": 105
    },
    {
      "midi": 58,
      "hit": false,
      "t": 108557.064,
      "d": 448.87837500000023,
      "v": 127
    },
    {
      "midi": 38,
      "hit": false,
      "t": 108557.06400000007,
      "d": 195.9704999999958,
      "v": 127
    },
    {
      "midi": 43,
      "hit": false,
      "t": 108811.29600000006,
      "d": 136.38487500000338,
      "v": 127
    },
    {
      "midi": 62,
      "hit": false,
      "t": 109040.369625,
      "d": 402.53399999999965,
      "v": 81
    },
    {
      "midi": 65,
      "hit": false,
      "t": 109041.69375,
      "d": 395.9133750000037,
      "v": 85
    },
    {
      "midi": 77,
      "hit": false,
      "t": 109061.55562499992,
      "d": 376.0515000000014,
      "v": 105
    },
    {
      "midi": 70,
      "hit": false,
      "t": 109061.55562499992,
      "d": 395.9133750000037,
      "v": 105
    },
    {
      "midi": 67,
      "hit": false,
      "t": 109062.87974999992,
      "d": 380.02387499999895,
      "v": 105
    },
    {
      "midi": 74,
      "hit": false,
      "t": 109062.87974999992,
      "d": 397.2375000000029,
      "v": 105
    },
    {
      "midi": 60,
      "hit": false,
      "t": 109065.528,
      "d": 239.66662499999802,
      "v": 127
    },
    {
      "midi": 43,
      "hit": false,
      "t": 109065.52800000006,
      "d": 402.53399999999965,
      "v": 127
    },
    {
      "midi": 58,
      "hit": false,
      "t": 109066.85212499983,
      "d": 352.21724999998696,
      "v": 93
    },
    {
      "midi": 55,
      "hit": false,
      "t": 109070.82449999983,
      "d": 391.9409999999916,
      "v": 81
    },
    {
      "midi": 62,
      "hit": false,
      "t": 109074.79687499983,
      "d": 365.45849999999336,
      "v": 87
    },
    {
      "midi": 65,
      "hit": false,
      "t": 109085.38987499982,
      "d": 346.9207500000048,
      "v": 87
    },
    {
      "midi": 62,
      "hit": false,
      "t": 109319.76000000001,
      "d": 230.39775000000373,
      "v": 127
    },
    {
      "midi": 58,
      "hit": false,
      "t": 109538.24062499982,
      "d": 60.909749999977066,
      "v": 86
    },
    {
      "midi": 62,
      "hit": false,
      "t": 109548.83362499981,
      "d": 64.88212499998917,
      "v": 83
    },
    {
      "midi": 55,
      "hit": false,
      "t": 109558.1024999998,
      "d": 99.30937499999709,
      "v": 70
    },
    {
      "midi": 65,
      "hit": false,
      "t": 109559.4266249998,
      "d": 33.10312499999418,
      "v": 68
    },
    {
      "midi": 62,
      "hit": false,
      "t": 109559.42662500001,
      "d": 67.53037499998754,
      "v": 83
    },
    {
      "midi": 65,
      "hit": false,
      "t": 109563.399,
      "d": 56.93737499999406,
      "v": 85
    },
    {
      "midi": 70,
      "hit": false,
      "t": 109570.01962499993,
      "d": 67.5303750000021,
      "v": 105
    },
    {
      "midi": 77,
      "hit": false,
      "t": 109571.34374999993,
      "d": 38.39962500000547,
      "v": 105
    },
    {
      "midi": 67,
      "hit": false,
      "t": 109571.34374999993,
      "d": 58.2615000000078,
      "v": 105
    },
    {
      "midi": 74,
      "hit": false,
      "t": 109571.34374999993,
      "d": 70.17862500000047,
      "v": 105
    },
    {
      "midi": 63,
      "hit": false,
      "t": 109573.99200000001,
      "d": 144.3296249999985,
      "v": 106
    },
    {
      "midi": 38,
      "hit": false,
      "t": 109573.99200000006,
      "d": 178.7568750000064,
      "v": 127
    },
    {
      "midi": 65,
      "hit": false,
      "t": 109828.22400000002,
      "d": 97.9852499999979,
      "v": 94
    },
    {
      "midi": 36,
      "hit": false,
      "t": 109828.22400000006,
      "d": 121.81949999999779,
      "v": 127
    },
    {
      "midi": 70,
      "hit": false,
      "t": 109828.22400000006,
      "d": 1787.5687499999913,
      "v": 78
    },
    {
      "midi": 48,
      "hit": false,
      "t": 109828.22400000009,
      "d": 2033.8560000000434,
      "v": 83
    },
    {
      "midi": 55,
      "hit": false,
      "t": 109828.22400000009,
      "d": 2033.8560000000434,
      "v": 83
    },
    {
      "midi": 58,
      "hit": false,
      "t": 109828.22400000009,
      "d": 2033.8560000000434,
      "v": 83
    },
    {
      "midi": 63,
      "hit": false,
      "t": 109828.22400000009,
      "d": 2033.8560000000434,
      "v": 83
    },
    {
      "midi": 75,
      "hit": false,
      "t": 109838.81700000005,
      "d": 1763.7344999999914,
      "v": 78
    },
    {
      "midi": 67,
      "hit": false,
      "t": 109840.14112500005,
      "d": 1757.1138749999955,
      "v": 78
    },
    {
      "midi": 65,
      "hit": false,
      "t": 110082.45600000002,
      "d": 421.0717500000028,
      "v": 127
    },
    {
      "midi": 36,
      "hit": false,
      "t": 110082.45600000006,
      "d": 316.4658749999944,
      "v": 127
    },
    {
      "midi": 58,
      "hit": false,
      "t": 110311.5296249998,
      "d": 71.50274999999965,
      "v": 112
    },
    {
      "midi": 62,
      "hit": false,
      "t": 110318.1502499998,
      "d": 68.85450000000128,
      "v": 83
    },
    {
      "midi": 65,
      "hit": false,
      "t": 110319.47437499999,
      "d": 82.09575000000768,
      "v": 87
    },
    {
      "midi": 62,
      "hit": false,
      "t": 110320.79849999999,
      "d": 63.55800000000454,
      "v": 76
    },
    {
      "midi": 67,
      "hit": false,
      "t": 110334.03974999992,
      "d": 87.39225000000442,
      "v": 105
    },
    {
      "midi": 70,
      "hit": false,
      "t": 110334.03974999992,
      "d": 90.0405000000028,
      "v": 105
    },
    {
      "midi": 55,
      "hit": false,
      "t": 110335.3638749998,
      "d": 91.36462500000198,
      "v": 85
    },
    {
      "midi": 74,
      "hit": false,
      "t": 110335.36387499992,
      "d": 90.0405000000028,
      "v": 105
    },
    {
      "midi": 77,
      "hit": false,
      "t": 110335.36387499992,
      "d": 92.68875000000116,
      "v": 105
    },
    {
      "midi": 65,
      "hit": false,
      "t": 110336.6879999998,
      "d": 30.45487499999581,
      "v": 70
    },
    {
      "midi": 63,
      "hit": false,
      "t": 110590.92000000003,
      "d": 386.6444999999949,
      "v": 127
    },
    {
      "midi": 43,
      "hit": false,
      "t": 110590.92000000006,
      "d": 185.37750000000233,
      "v": 127
    },
    {
      "midi": 48,
      "hit": false,
      "t": 110845.15200000006,
      "d": 182.72925000000396,
      "v": 127
    },
    {
      "midi": 63,
      "hit": false,
      "t": 111082.170375,
      "d": 413.12699999999313,
      "v": 93
    },
    {
      "midi": 60,
      "hit": false,
      "t": 111084.818625,
      "d": 410.47874999999476,
      "v": 83
    },
    {
      "midi": 75,
      "hit": false,
      "t": 111098.05987499992,
      "d": 406.5063749999972,
      "v": 105
    },
    {
      "midi": 67,
      "hit": false,
      "t": 111098.05987499992,
      "d": 415.7752499999915,
      "v": 105
    },
    {
      "midi": 72,
      "hit": false,
      "t": 111098.05987499992,
      "d": 417.0993749999907,
      "v": 105
    },
    {
      "midi": 70,
      "hit": false,
      "t": 111098.05987499992,
      "d": 419.74762499998906,
      "v": 105
    },
    {
      "midi": 62,
      "hit": false,
      "t": 111099.38400000002,
      "d": 243.63899999999558,
      "v": 112
    },
    {
      "midi": 46,
      "hit": false,
      "t": 111099.38400000006,
      "d": 197.294624999995,
      "v": 127
    },
    {
      "midi": 58,
      "hit": false,
      "t": 111115.2734999998,
      "d": 377.37562499998603,
      "v": 96
    },
    {
      "midi": 63,
      "hit": false,
      "t": 111120.5699999998,
      "d": 376.05149999998685,
      "v": 77
    },
    {
      "midi": 60,
      "hit": false,
      "t": 111120.5699999998,
      "d": 383.99624999998196,
      "v": 94
    },
    {
      "midi": 55,
      "hit": false,
      "t": 111128.5147499998,
      "d": 381.3479999999836,
      "v": 76
    },
    {
      "midi": 60,
      "hit": false,
      "t": 111353.61600000001,
      "d": 191.99812499999825,
      "v": 127
    },
    {
      "midi": 44,
      "hit": false,
      "t": 111353.61600000005,
      "d": 170.81212499999674,
      "v": 127
    },
    {
      "midi": 60,
      "hit": false,
      "t": 111598.57912499999,
      "d": 58.26149999999325,
      "v": 72
    },
    {
      "midi": 63,
      "hit": false,
      "t": 111599.90324999999,
      "d": 48.99262499999895,
      "v": 96
    },
    {
      "midi": 70,
      "hit": false,
      "t": 111606.52387499991,
      "d": 78.12337499999558,
      "v": 105
    },
    {
      "midi": 75,
      "hit": false,
      "t": 111606.52387499991,
      "d": 83.41987499999232,
      "v": 105
    },
    {
      "midi": 62,
      "hit": false,
      "t": 111607.84800000001,
      "d": 201.2670000000071,
      "v": 120
    },
    {
      "midi": 43,
      "hit": false,
      "t": 111607.84800000006,
      "d": 195.9704999999958,
      "v": 127
    },
    {
      "midi": 67,
      "hit": false,
      "t": 111609.17212499991,
      "d": 70.17862500000047,
      "v": 105
    },
    {
      "midi": 72,
      "hit": false,
      "t": 111609.17212499991,
      "d": 71.50274999999965,
      "v": 105
    },
    {
      "midi": 58,
      "hit": false,
      "t": 111615.79274999977,
      "d": 60.90975000000617,
      "v": 100
    },
    {
      "midi": 60,
      "hit": false,
      "t": 111617.11687499977,
      "d": 62.233875000005355,
      "v": 97
    },
    {
      "midi": 63,
      "hit": false,
      "t": 111618.44099999977,
      "d": 59.585625000006985,
      "v": 106
    },
    {
      "midi": 55,
      "hit": false,
      "t": 111633.00637499978,
      "d": 88.71637500000361,
      "v": 85
    },
    {
      "midi": 75,
      "hit": false,
      "t": 111818.38387500006,
      "d": 3073.2941250000003,
      "v": 78
    },
    {
      "midi": 68,
      "hit": false,
      "t": 111819.70800000006,
      "d": 3071.970000000001,
      "v": 78
    },
    {
      "midi": 72,
      "hit": false,
      "t": 111823.68037500005,
      "d": 3067.9976250000036,
      "v": 78
    },
    {
      "midi": 63,
      "hit": false,
      "t": 111862.08000000002,
      "d": 762.6959999999963,
      "v": 127
    },
    {
      "midi": 41,
      "hit": false,
      "t": 111862.08000000005,
      "d": 132.41250000000582,
      "v": 127
    },
    {
      "midi": 41,
      "hit": false,
      "t": 111862.08000000013,
      "d": 2033.8559999999998,
      "v": 83
    },
    {
      "midi": 56,
      "hit": false,
      "t": 111862.08000000013,
      "d": 2033.8559999999998,
      "v": 83
    },
    {
      "midi": 60,
      "hit": false,
      "t": 111862.08000000013,
      "d": 2033.8559999999998,
      "v": 83
    },
    {
      "midi": 63,
      "hit": false,
      "t": 111862.08000000013,
      "d": 2033.8559999999998,
      "v": 83
    },
    {
      "midi": 92,
      "hit": false,
      "t": 111862.08000000013,
      "d": 4070.3602500000125,
      "v": 99
    },
    {
      "midi": 41,
      "hit": false,
      "t": 112116.31200000005,
      "d": 327.05887500000244,
      "v": 127
    },
    {
      "midi": 56,
      "hit": false,
      "t": 112346.70974999978,
      "d": 66.20624999998836,
      "v": 100
    },
    {
      "midi": 63,
      "hit": false,
      "t": 112349.35799999977,
      "d": 58.26149999999325,
      "v": 83
    },
    {
      "midi": 63,
      "hit": false,
      "t": 112352.00624999998,
      "d": 62.233875000005355,
      "v": 96
    },
    {
      "midi": 60,
      "hit": false,
      "t": 112352.00624999998,
      "d": 68.85450000000128,
      "v": 74
    },
    {
      "midi": 60,
      "hit": false,
      "t": 112354.65449999977,
      "d": 38.39962499999092,
      "v": 87
    },
    {
      "midi": 53,
      "hit": false,
      "t": 112362.59924999977,
      "d": 94.01287500000035,
      "v": 87
    },
    {
      "midi": 65,
      "hit": false,
      "t": 112367.89574999991,
      "d": 60.90975000000617,
      "v": 105
    },
    {
      "midi": 68,
      "hit": false,
      "t": 112367.89574999991,
      "d": 70.17862500000047,
      "v": 105
    },
    {
      "midi": 75,
      "hit": false,
      "t": 112367.89574999991,
      "d": 78.12337499999558,
      "v": 105
    },
    {
      "midi": 72,
      "hit": false,
      "t": 112367.89574999991,
      "d": 82.09574999999313,
      "v": 105
    },
    {
      "midi": 56,
      "hit": false,
      "t": 112624.77600000001,
      "d": 1042.086374999999,
      "v": 127
    },
    {
      "midi": 36,
      "hit": false,
      "t": 112624.77600000006,
      "d": 222.45299999999406,
      "v": 127
    },
    {
      "midi": 41,
      "hit": false,
      "t": 112879.00800000005,
      "d": 154.92262500000652,
      "v": 127
    },
    {
      "midi": 56,
      "hit": false,
      "t": 113114.70224999977,
      "d": 344.27249999999185,
      "v": 96
    },
    {
      "midi": 63,
      "hit": false,
      "t": 113117.35049999997,
      "d": 397.2375000000029,
      "v": 75
    },
    {
      "midi": 63,
      "hit": false,
      "t": 113118.67462499977,
      "d": 344.27249999999185,
      "v": 77
    },
    {
      "midi": 60,
      "hit": false,
      "t": 113121.32287499997,
      "d": 393.26512500000536,
      "v": 63
    },
    {
      "midi": 60,
      "hit": false,
      "t": 113126.61937499976,
      "d": 332.3553749999992,
      "v": 85
    },
    {
      "midi": 53,
      "hit": false,
      "t": 113131.91587499976,
      "d": 338.9759999999951,
      "v": 87
    },
    {
      "midi": 41,
      "hit": false,
      "t": 113133.24000000005,
      "d": 270.12149999999383,
      "v": 127
    },
    {
      "midi": 75,
      "hit": false,
      "t": 113135.8882499999,
      "d": 341.6242499999935,
      "v": 105
    },
    {
      "midi": 72,
      "hit": false,
      "t": 113135.8882499999,
      "d": 348.2448749999894,
      "v": 105
    },
    {
      "midi": 65,
      "hit": false,
      "t": 113135.8882499999,
      "d": 354.86549999998533,
      "v": 105
    },
    {
      "midi": 68,
      "hit": false,
      "t": 113135.8882499999,
      "d": 357.5137499999837,
      "v": 105
    },
    {
      "midi": 56,
      "hit": false,
      "t": 113579.47012499976,
      "d": 63.55800000000454,
      "v": 86
    },
    {
      "midi": 63,
      "hit": false,
      "t": 113588.73899999975,
      "d": 56.937375000008615,
      "v": 93
    },
    {
      "midi": 60,
      "hit": false,
      "t": 113590.06312499975,
      "d": 59.585625000006985,
      "v": 90
    },
    {
      "midi": 53,
      "hit": false,
      "t": 113601.98024999976,
      "d": 95.33699999999953,
      "v": 92
    },
    {
      "midi": 60,
      "hit": false,
      "t": 113623.16624999998,
      "d": 67.53037499998754,
      "v": 74
    },
    {
      "midi": 63,
      "hit": false,
      "t": 113624.49037499998,
      "d": 56.93737499999406,
      "v": 96
    },
    {
      "midi": 68,
      "hit": false,
      "t": 113640.37987499988,
      "d": 58.261499999978696,
      "v": 105
    },
    {
      "midi": 36,
      "hit": false,
      "t": 113641.70400000004,
      "d": 227.74950000000536,
      "v": 127
    },
    {
      "midi": 75,
      "hit": false,
      "t": 113643.02812499988,
      "d": 41.04787499998929,
      "v": 105
    },
    {
      "midi": 65,
      "hit": false,
      "t": 113643.02812499988,
      "d": 47.668499999985215,
      "v": 105
    },
    {
      "midi": 72,
      "hit": false,
      "t": 113644.35224999988,
      "d": 33.10312499999418,
      "v": 105
    },
    {
      "midi": 63,
      "hit": false,
      "t": 113895.93600000002,
      "d": 63.55800000000454,
      "v": 127
    },
    {
      "midi": 34,
      "hit": false,
      "t": 113895.93600000005,
      "d": 146.97787499999686,
      "v": 127
    },
    {
      "midi": 56,
      "hit": false,
      "t": 113895.93600000013,
      "d": 949.3976250000123,
      "v": 83
    },
    {
      "midi": 60,
      "hit": false,
      "t": 113895.93600000013,
      "d": 953.3700000000099,
      "v": 83
    },
    {
      "midi": 63,
      "hit": false,
      "t": 113895.93600000013,
      "d": 959.9906250000058,
      "v": 83
    },
    {
      "midi": 46,
      "hit": false,
      "t": 113895.93600000013,
      "d": 2033.8560000000143,
      "v": 83
    },
    {
      "midi": 63,
      "hit": false,
      "t": 114150.16800000002,
      "d": 472.7126250000001,
      "v": 127
    },
    {
      "midi": 34,
      "hit": false,
      "t": 114150.16800000005,
      "d": 264.8249999999971,
      "v": 127
    },
    {
      "midi": 63,
      "hit": false,
      "t": 114388.51049999997,
      "d": 72.82687499999884,
      "v": 96
    },
    {
      "midi": 60,
      "hit": false,
      "t": 114391.15874999997,
      "d": 78.12337499999558,
      "v": 76
    },
    {
      "midi": 63,
      "hit": false,
      "t": 114392.48287499975,
      "d": 76.79924999999639,
      "v": 100
    },
    {
      "midi": 56,
      "hit": false,
      "t": 114395.13112499975,
      "d": 83.41987499999232,
      "v": 112
    },
    {
      "midi": 60,
      "hit": false,
      "t": 114400.42762499975,
      "d": 80.77162499999395,
      "v": 85
    },
    {
      "midi": 68,
      "hit": false,
      "t": 114400.42762499987,
      "d": 67.53037499998754,
      "v": 105
    },
    {
      "midi": 72,
      "hit": false,
      "t": 114401.75174999986,
      "d": 31.778999999994994,
      "v": 105
    },
    {
      "midi": 75,
      "hit": false,
      "t": 114401.75174999986,
      "d": 33.10312499999418,
      "v": 105
    },
    {
      "midi": 65,
      "hit": false,
      "t": 114401.75174999986,
      "d": 59.58562499999243,
      "v": 105
    },
    {
      "midi": 53,
      "hit": false,
      "t": 114409.69649999974,
      "d": 103.28174999999464,
      "v": 85
    },
    {
      "midi": 62,
      "hit": false,
      "t": 114658.63200000003,
      "d": 492.57450000000244,
      "v": 127
    },
    {
      "midi": 41,
      "hit": false,
      "t": 114658.63200000004,
      "d": 207.88762500000303,
      "v": 127
    },
    {
      "midi": 68,
      "hit": false,
      "t": 114911.53987500006,
      "d": 979.8525000000227,
      "v": 78
    },
    {
      "midi": 46,
      "hit": false,
      "t": 114912.86400000005,
      "d": 201.2670000000071,
      "v": 127
    },
    {
      "midi": 62,
      "hit": false,
      "t": 114912.86400000013,
      "d": 912.322125000006,
      "v": 90
    },
    {
      "midi": 59,
      "hit": false,
      "t": 114912.86400000013,
      "d": 921.5910000000003,
      "v": 90
    },
    {
      "midi": 56,
      "hit": false,
      "t": 114912.86400000013,
      "d": 924.2392499999987,
      "v": 90
    },
    {
      "midi": 71,
      "hit": false,
      "t": 114914.18812500006,
      "d": 975.8801250000251,
      "v": 78
    },
    {
      "midi": 74,
      "hit": false,
      "t": 114920.80875000005,
      "d": 973.2318750000268,
      "v": 78
    },
    {
      "midi": 56,
      "hit": false,
      "t": 115133.99287499973,
      "d": 415.7752499999915,
      "v": 96
    },
    {
      "midi": 59,
      "hit": false,
      "t": 115136.64112499973,
      "d": 422.3958749999874,
      "v": 87
    },
    {
      "midi": 53,
      "hit": false,
      "t": 115141.93762499973,
      "d": 423.7199999999866,
      "v": 74
    },
    {
      "midi": 62,
      "hit": false,
      "t": 115148.55824999973,
      "d": 407.8304999999964,
      "v": 81
    },
    {
      "midi": 62,
      "hit": false,
      "t": 115159.15124999997,
      "d": 338.9759999999951,
      "v": 83
    },
    {
      "midi": 65,
      "hit": false,
      "t": 115163.12362499985,
      "d": 397.2375000000029,
      "v": 105
    },
    {
      "midi": 68,
      "hit": false,
      "t": 115163.12362499985,
      "d": 403.85812499999884,
      "v": 105
    },
    {
      "midi": 71,
      "hit": false,
      "t": 115163.12362499985,
      "d": 405.182249999998,
      "v": 105
    },
    {
      "midi": 74,
      "hit": false,
      "t": 115163.12362499985,
      "d": 405.182249999998,
      "v": 105
    },
    {
      "midi": 59,
      "hit": false,
      "t": 115163.12362499996,
      "d": 335.00362499999756,
      "v": 74
    },
    {
      "midi": 63,
      "hit": false,
      "t": 115167.09600000003,
      "d": 218.4806249999965,
      "v": 127
    },
    {
      "midi": 44,
      "hit": false,
      "t": 115167.09600000005,
      "d": 214.50824999999895,
      "v": 127
    },
    {
      "midi": 62,
      "hit": false,
      "t": 115421.32800000004,
      "d": 485.9538750000065,
      "v": 120
    },
    {
      "midi": 43,
      "hit": false,
      "t": 115421.32800000005,
      "d": 234.37012500000128,
      "v": 127
    },
    {
      "midi": 56,
      "hit": false,
      "t": 115639.80862499971,
      "d": 86.06812499999069,
      "v": 86
    },
    {
      "midi": 59,
      "hit": false,
      "t": 115642.45687499971,
      "d": 83.41987499999232,
      "v": 76
    },
    {
      "midi": 53,
      "hit": false,
      "t": 115650.40162499971,
      "d": 95.33699999999953,
      "v": 74
    },
    {
      "midi": 62,
      "hit": false,
      "t": 115654.3739999997,
      "d": 71.50274999999965,
      "v": 56
    },
    {
      "midi": 59,
      "hit": false,
      "t": 115663.64287499996,
      "d": 78.12337499999558,
      "v": 87
    },
    {
      "midi": 62,
      "hit": false,
      "t": 115667.61524999996,
      "d": 68.85450000000128,
      "v": 87
    },
    {
      "midi": 71,
      "hit": false,
      "t": 115671.58762499984,
      "d": 72.82687499999884,
      "v": 105
    },
    {
      "midi": 74,
      "hit": false,
      "t": 115671.58762499984,
      "d": 86.06812499999069,
      "v": 105
    },
    {
      "midi": 68,
      "hit": false,
      "t": 115672.91174999984,
      "d": 56.93737499999406,
      "v": 105
    },
    {
      "midi": 65,
      "hit": false,
      "t": 115672.91174999984,
      "d": 82.09574999999313,
      "v": 105
    },
    {
      "midi": 41,
      "hit": false,
      "t": 115675.56000000006,
      "d": 230.39775000000373,
      "v": 127
    },
    {
      "midi": 63,
      "hit": false,
      "t": 115908.60600000007,
      "d": 1705.4729999999981,
      "v": 78
    },
    {
      "midi": 72,
      "hit": false,
      "t": 115913.90250000007,
      "d": 1713.4177499999932,
      "v": 78
    },
    {
      "midi": 67,
      "hit": false,
      "t": 115920.52312500007,
      "d": 1704.148874999999,
      "v": 78
    },
    {
      "midi": 60,
      "hit": false,
      "t": 115929.79200000004,
      "d": 2495.9756250000064,
      "v": 127
    },
    {
      "midi": 51,
      "hit": false,
      "t": 115929.79200000015,
      "d": 2033.8560000000143,
      "v": 83
    },
    {
      "midi": 55,
      "hit": false,
      "t": 115929.79200000015,
      "d": 2033.8560000000143,
      "v": 83
    },
    {
      "midi": 58,
      "hit": false,
      "t": 115929.79200000015,
      "d": 2033.8560000000143,
      "v": 83
    },
    {
      "midi": 60,
      "hit": false,
      "t": 115929.79200000015,
      "d": 2033.8560000000143,
      "v": 83
    },
    {
      "midi": 91,
      "hit": false,
      "t": 115929.79200000015,
      "d": 3858.500250000012,
      "v": 99
    },
    {
      "midi": 39,
      "hit": false,
      "t": 116184.02400000006,
      "d": 14.565375000005588,
      "v": 127
    },
    {
      "midi": 67,
      "hit": false,
      "t": 116684.54324999983,
      "d": 87.39225000000442,
      "v": 105
    },
    {
      "midi": 43,
      "hit": false,
      "t": 116684.54324999996,
      "d": 88.71637500000361,
      "v": 106
    },
    {
      "midi": 55,
      "hit": false,
      "t": 116685.86737499983,
      "d": 94.01287500000035,
      "v": 105
    },
    {
      "midi": 34,
      "hit": false,
      "t": 116692.48800000007,
      "d": 165.515625,
      "v": 127
    },
    {
      "midi": 48,
      "hit": false,
      "t": 116908.3203749997,
      "d": 227.74950000000536,
      "v": 85
    },
    {
      "midi": 72,
      "hit": false,
      "t": 116938.77524999983,
      "d": 221.12887499999488,
      "v": 105
    },
    {
      "midi": 60,
      "hit": false,
      "t": 116940.09937499983,
      "d": 197.294624999995,
      "v": 105
    },
    {
      "midi": 39,
      "hit": false,
      "t": 116946.72000000007,
      "d": 111.22650000000431,
      "v": 112
    },
    {
      "midi": 48,
      "hit": false,
      "t": 116959.96124999996,
      "d": 91.36462500000198,
      "v": 120
    },
    {
      "midi": 46,
      "hit": false,
      "t": 117194.3313749997,
      "d": 83.41987500000687,
      "v": 86
    },
    {
      "midi": 70,
      "hit": false,
      "t": 117196.97962499983,
      "d": 70.17862500000047,
      "v": 105
    },
    {
      "midi": 58,
      "hit": false,
      "t": 117198.30374999983,
      "d": 71.50274999999965,
      "v": 105
    },
    {
      "midi": 46,
      "hit": false,
      "t": 117199.62787499996,
      "d": 88.71637500000361,
      "v": 127
    },
    {
      "midi": 39,
      "hit": false,
      "t": 117200.95200000008,
      "d": 328.38300000000163,
      "v": 127
    },
    {
      "midi": 51,
      "hit": false,
      "t": 117433.99799999972,
      "d": 62.233875000005355,
      "v": 100
    },
    {
      "midi": 63,
      "hit": false,
      "t": 117453.85987499983,
      "d": 66.20625000000291,
      "v": 105
    },
    {
      "midi": 75,
      "hit": false,
      "t": 117456.50812499983,
      "d": 63.55800000000454,
      "v": 105
    },
    {
      "midi": 51,
      "hit": false,
      "t": 117456.50812499996,
      "d": 72.82687499999884,
      "v": 96
    },
    {
      "midi": 46,
      "hit": false,
      "t": 117685.58174999972,
      "d": 94.01287500000035,
      "v": 127
    },
    {
      "midi": 46,
      "hit": false,
      "t": 117704.11949999996,
      "d": 177.43275000000722,
      "v": 112
    },
    {
      "midi": 34,
      "hit": false,
      "t": 117709.41600000008,
      "d": 127.11599999999453,
      "v": 127
    },
    {
      "midi": 58,
      "hit": false,
      "t": 117710.74012499984,
      "d": 90.0405000000028,
      "v": 105
    },
    {
      "midi": 70,
      "hit": false,
      "t": 117713.38837499983,
      "d": 88.71637500000361,
      "v": 105
    },
    {
      "midi": 36,
      "hit": false,
      "t": 117963.64800000007,
      "d": 136.38487500000338,
      "v": 127
    },
    {
      "midi": 52,
      "hit": false,
      "t": 117963.64800000016,
      "d": 2033.8559999999998,
      "v": 83
    },
    {
      "midi": 58,
      "hit": false,
      "t": 117963.64800000016,
      "d": 2033.8559999999998,
      "v": 83
    },
    {
      "midi": 63,
      "hit": false,
      "t": 117963.64800000016,
      "d": 2033.8559999999998,
      "v": 83
    },
    {
      "midi": 48,
      "hit": false,
      "t": 118178.15624999972,
      "d": 507.1398749999935,
      "v": 94
    },
    {
      "midi": 48,
      "hit": false,
      "t": 118211.25937499997,
      "d": 1599.5430000000051,
      "v": 94
    },
    {
      "midi": 72,
      "hit": false,
      "t": 118216.55587499985,
      "d": 1664.4251249999943,
      "v": 105
    },
    {
      "midi": 36,
      "hit": false,
      "t": 118217.88000000008,
      "d": 190.67399999999907,
      "v": 127
    },
    {
      "midi": 60,
      "hit": false,
      "t": 118219.20412499984,
      "d": 1663.100999999995,
      "v": 105
    },
    {
      "midi": 67,
      "hit": false,
      "t": 118472.11200000005,
      "d": 395.9133750000037,
      "v": 94
    },
    {
      "midi": 36,
      "hit": false,
      "t": 118472.11200000008,
      "d": 148.30199999999604,
      "v": 127
    },
    {
      "midi": 36,
      "hit": false,
      "t": 118726.34400000007,
      "d": 135.0607500000042,
      "v": 127
    },
    {
      "midi": 67,
      "hit": false,
      "t": 118980.57600000006,
      "d": 345.5966250000056,
      "v": 127
    },
    {
      "midi": 36,
      "hit": false,
      "t": 118980.57600000007,
      "d": 129.7642499999929,
      "v": 120
    },
    {
      "midi": 35,
      "hit": false,
      "t": 119005.73437500001,
      "d": 37.075500000006286,
      "v": 47
    },
    {
      "midi": 38,
      "hit": false,
      "t": 119066.64412500002,
      "d": 84.74400000000605,
      "v": 57
    },
    {
      "midi": 40,
      "hit": false,
      "t": 119109.01612500002,
      "d": 52.96499999999651,
      "v": 64
    },
    {
      "midi": 42,
      "hit": false,
      "t": 119150.06400000003,
      "d": 52.96499999999651,
      "v": 112
    },
    {
      "midi": 45,
      "hit": false,
      "t": 119197.73250000003,
      "d": 64.88212500000373,
      "v": 112
    },
    {
      "midi": 36,
      "hit": false,
      "t": 119234.80800000006,
      "d": 227.74950000000536,
      "v": 127
    },
    {
      "midi": 47,
      "hit": false,
      "t": 119250.69750000002,
      "d": 50.31674999999814,
      "v": 88
    },
    {
      "midi": 50,
      "hit": false,
      "t": 119297.04187500002,
      "d": 56.937375000008615,
      "v": 95
    },
    {
      "midi": 52,
      "hit": false,
      "t": 119342.06212500003,
      "d": 42.37200000000303,
      "v": 103
    },
    {
      "midi": 54,
      "hit": false,
      "t": 119379.13762500003,
      "d": 34.427249999993364,
      "v": 109
    },
    {
      "midi": 57,
      "hit": false,
      "t": 119413.56487500003,
      "d": 51.640875000011874,
      "v": 115
    },
    {
      "midi": 59,
      "hit": false,
      "t": 119451.96450000003,
      "d": 42.37200000000303,
      "v": 121
    },
    {
      "midi": 38,
      "hit": false,
      "t": 119489.04000000007,
      "d": 229.07362500000454,
      "v": 127
    },
    {
      "midi": 67,
      "hit": false,
      "t": 119489.04000000007,
      "d": 227.74950000000536,
      "v": 120
    },
    {
      "midi": 62,
      "hit": false,
      "t": 119495.66062500003,
      "d": 47.66849999999977,
      "v": 123
    },
    {
      "midi": 64,
      "hit": false,
      "t": 119536.70850000004,
      "d": 41.04787499998929,
      "v": 116
    },
    {
      "midi": 66,
      "hit": false,
      "t": 119571.13575000003,
      "d": 41.04787499998929,
      "v": 111
    },
    {
      "midi": 69,
      "hit": false,
      "t": 119612.18362500002,
      "d": 54.28912499999569,
      "v": 106
    },
    {
      "midi": 71,
      "hit": false,
      "t": 119662.50037500002,
      "d": 43.69612500000221,
      "v": 99
    },
    {
      "midi": 74,
      "hit": false,
      "t": 119708.84475000002,
      "d": 52.96499999999651,
      "v": 93
    },
    {
      "midi": 39,
      "hit": false,
      "t": 119743.27200000007,
      "d": 243.63899999999558,
      "v": 127
    },
    {
      "midi": 76,
      "hit": false,
      "t": 119756.51325000002,
      "d": 41.04787499998929,
      "v": 87
    },
    {
      "midi": 78,
      "hit": false,
      "t": 119792.26462500001,
      "d": 33.10312499999418,
      "v": 82
    },
    {
      "midi": 81,
      "hit": false,
      "t": 119825.36775,
      "d": 50.31674999999814,
      "v": 78
    },
    {
      "midi": 83,
      "hit": false,
      "t": 119870.388,
      "d": 34.427249999993364,
      "v": 72
    },
    {
      "midi": 86,
      "hit": false,
      "t": 119908.787625,
      "d": 43.69612500000221,
      "v": 67
    },
    {
      "midi": 88,
      "hit": false,
      "t": 119949.8355,
      "d": 27.80662499999744,
      "v": 61
    },
    {
      "midi": 90,
      "hit": false,
      "t": 119978.96625,
      "d": 22.5101250000007,
      "v": 57
    },
    {
      "midi": 41,
      "hit": false,
      "t": 119997.50400000006,
      "d": 129.7642499999929,
      "v": 127
    },
    {
      "midi": 72,
      "hit": false,
      "t": 119997.50400000006,
      "d": 4034.608875000049,
      "v": 78
    },
    {
      "midi": 75,
      "hit": false,
      "t": 119997.50400000006,
      "d": 4055.794875000036,
      "v": 78
    },
    {
      "midi": 68,
      "hit": false,
      "t": 119997.50400000006,
      "d": 4066.3878750000295,
      "v": 78
    },
    {
      "midi": 53,
      "hit": false,
      "t": 119997.50400000016,
      "d": 2033.8559999999998,
      "v": 83
    },
    {
      "midi": 56,
      "hit": false,
      "t": 119997.50400000016,
      "d": 2033.8559999999998,
      "v": 83
    },
    {
      "midi": 60,
      "hit": false,
      "t": 119997.50400000016,
      "d": 2033.8559999999998,
      "v": 83
    },
    {
      "midi": 63,
      "hit": false,
      "t": 119997.50400000016,
      "d": 2033.8559999999998,
      "v": 83
    },
    {
      "midi": 96,
      "hit": false,
      "t": 119997.50400000016,
      "d": 4083.601500000077,
      "v": 99
    },
    {
      "midi": 67,
      "hit": false,
      "t": 120021.33825000007,
      "d": 611.7457500000019,
      "v": 107
    },
    {
      "midi": 41,
      "hit": false,
      "t": 120251.73600000005,
      "d": 202.5911250000063,
      "v": 127
    },
    {
      "midi": 63,
      "hit": false,
      "t": 120488.75437499971,
      "d": 84.7439999999915,
      "v": 69
    },
    {
      "midi": 60,
      "hit": false,
      "t": 120498.02324999971,
      "d": 90.0405000000028,
      "v": 66
    },
    {
      "midi": 67,
      "hit": false,
      "t": 120501.9956249997,
      "d": 94.01287500000035,
      "v": 85
    },
    {
      "midi": 56,
      "hit": false,
      "t": 120503.3197499997,
      "d": 92.68875000000116,
      "v": 80
    },
    {
      "midi": 75,
      "hit": false,
      "t": 120504.64387499983,
      "d": 113.87475000000268,
      "v": 105
    },
    {
      "midi": 72,
      "hit": false,
      "t": 120504.64387499983,
      "d": 120.4953749999986,
      "v": 105
    },
    {
      "midi": 68,
      "hit": false,
      "t": 120504.64387499983,
      "d": 127.11599999999453,
      "v": 105
    },
    {
      "midi": 79,
      "hit": false,
      "t": 120505.96799999983,
      "d": 125.79187499999534,
      "v": 105
    },
    {
      "midi": 63,
      "hit": false,
      "t": 120507.29212499996,
      "d": 82.09574999999313,
      "v": 86
    },
    {
      "midi": 67,
      "hit": false,
      "t": 120515.23687499996,
      "d": 46.34437500000058,
      "v": 81
    },
    {
      "midi": 36,
      "hit": false,
      "t": 120760.20000000006,
      "d": 214.50824999999895,
      "v": 127
    },
    {
      "midi": 60,
      "hit": false,
      "t": 120760.20000000007,
      "d": 491.25037500000326,
      "v": 127
    },
    {
      "midi": 41,
      "hit": false,
      "t": 121014.43200000006,
      "d": 135.0607500000042,
      "v": 127
    },
    {
      "midi": 63,
      "hit": false,
      "t": 121256.7468749997,
      "d": 402.53399999999965,
      "v": 80
    },
    {
      "midi": 60,
      "hit": false,
      "t": 121264.6916249997,
      "d": 385.32037500001024,
      "v": 74
    },
    {
      "midi": 63,
      "hit": false,
      "t": 121266.01574999996,
      "d": 403.8581249999843,
      "v": 86
    },
    {
      "midi": 56,
      "hit": false,
      "t": 121267.3398749997,
      "d": 394.58925000000454,
      "v": 80
    },
    {
      "midi": 67,
      "hit": false,
      "t": 121268.6639999997,
      "d": 369.43087500000547,
      "v": 94
    },
    {
      "midi": 41,
      "hit": false,
      "t": 121268.66400000006,
      "d": 195.9704999999958,
      "v": 127
    },
    {
      "midi": 62,
      "hit": false,
      "t": 121268.66400000008,
      "d": 266.1491250000108,
      "v": 120
    },
    {
      "midi": 79,
      "hit": false,
      "t": 121269.98812499983,
      "d": 362.810249999995,
      "v": 105
    },
    {
      "midi": 72,
      "hit": false,
      "t": 121269.98812499983,
      "d": 383.9962499999965,
      "v": 105
    },
    {
      "midi": 75,
      "hit": false,
      "t": 121269.98812499983,
      "d": 386.6444999999949,
      "v": 105
    },
    {
      "midi": 68,
      "hit": false,
      "t": 121269.98812499983,
      "d": 389.29274999999325,
      "v": 105
    },
    {
      "midi": 67,
      "hit": false,
      "t": 121275.28462499996,
      "d": 387.96862499999406,
      "v": 87
    },
    {
      "midi": 63,
      "hit": false,
      "t": 121522.89600000008,
      "d": 201.2670000000071,
      "v": 127
    },
    {
      "midi": 63,
      "hit": false,
      "t": 121747.99724999971,
      "d": 70.17862499998591,
      "v": 86
    },
    {
      "midi": 60,
      "hit": false,
      "t": 121757.2661249997,
      "d": 62.2338749999908,
      "v": 74
    },
    {
      "midi": 67,
      "hit": false,
      "t": 121761.2384999997,
      "d": 54.28912499999569,
      "v": 90
    },
    {
      "midi": 56,
      "hit": false,
      "t": 121762.5626249997,
      "d": 88.71637499998906,
      "v": 83
    },
    {
      "midi": 63,
      "hit": false,
      "t": 121770.50737499994,
      "d": 59.585625000006985,
      "v": 93
    },
    {
      "midi": 68,
      "hit": false,
      "t": 121775.80387499982,
      "d": 45.0202500000014,
      "v": 105
    },
    {
      "midi": 75,
      "hit": false,
      "t": 121775.80387499982,
      "d": 46.34437500000058,
      "v": 105
    },
    {
      "midi": 72,
      "hit": false,
      "t": 121775.80387499982,
      "d": 55.61324999999488,
      "v": 105
    },
    {
      "midi": 67,
      "hit": false,
      "t": 121777.12799999994,
      "d": 41.04787500000384,
      "v": 87
    },
    {
      "midi": 36,
      "hit": false,
      "t": 121777.12800000006,
      "d": 185.37750000000233,
      "v": 127
    },
    {
      "midi": 65,
      "hit": false,
      "t": 121777.12800000008,
      "d": 267.47325000001,
      "v": 112
    },
    {
      "midi": 79,
      "hit": false,
      "t": 121778.45212499982,
      "d": 52.96499999999651,
      "v": 105
    },
    {
      "midi": 34,
      "hit": false,
      "t": 122031.36000000006,
      "d": 120.4953749999986,
      "v": 127
    },
    {
      "midi": 67,
      "hit": false,
      "t": 122031.36000000009,
      "d": 146.9778750000114,
      "v": 127
    },
    {
      "midi": 56,
      "hit": false,
      "t": 122031.36000000016,
      "d": 1016.9279999999999,
      "v": 83
    },
    {
      "midi": 60,
      "hit": false,
      "t": 122031.36000000016,
      "d": 1016.9279999999999,
      "v": 83
    },
    {
      "midi": 63,
      "hit": false,
      "t": 122031.36000000016,
      "d": 1016.9279999999999,
      "v": 83
    },
    {
      "midi": 34,
      "hit": false,
      "t": 122285.59200000006,
      "d": 185.37750000000233,
      "v": 127
    },
    {
      "midi": 67,
      "hit": false,
      "t": 122285.5920000001,
      "d": 460.7954999999929,
      "v": 127
    },
    {
      "midi": 63,
      "hit": false,
      "t": 122529.2309999997,
      "d": 71.50274999999965,
      "v": 96
    },
    {
      "midi": 60,
      "hit": false,
      "t": 122537.17574999969,
      "d": 70.17862500000047,
      "v": 81
    },
    {
      "midi": 56,
      "hit": false,
      "t": 122538.49987499969,
      "d": 80.77162499999395,
      "v": 86
    },
    {
      "midi": 79,
      "hit": false,
      "t": 122538.49987499982,
      "d": 70.17862500000047,
      "v": 105
    },
    {
      "midi": 68,
      "hit": false,
      "t": 122538.49987499982,
      "d": 129.7642499999929,
      "v": 105
    },
    {
      "midi": 67,
      "hit": false,
      "t": 122541.14812499969,
      "d": 67.5303750000021,
      "v": 94
    },
    {
      "midi": 72,
      "hit": false,
      "t": 122541.14812499982,
      "d": 94.01287500000035,
      "v": 105
    },
    {
      "midi": 75,
      "hit": false,
      "t": 122541.14812499982,
      "d": 94.01287500000035,
      "v": 105
    },
    {
      "midi": 63,
      "hit": false,
      "t": 122543.79637499995,
      "d": 74.15099999999802,
      "v": 93
    },
    {
      "midi": 67,
      "hit": false,
      "t": 122553.06524999994,
      "d": 50.31674999999814,
      "v": 81
    },
    {
      "midi": 41,
      "hit": false,
      "t": 122794.05600000007,
      "d": 161.54325000000244,
      "v": 127
    },
    {
      "midi": 65,
      "hit": false,
      "t": 122794.0560000001,
      "d": 438.28537500000675,
      "v": 127
    },
    {
      "midi": 46,
      "hit": false,
      "t": 123048.28800000007,
      "d": 168.16387499999837,
      "v": 127
    },
    {
      "midi": 56,
      "hit": false,
      "t": 123048.28800000016,
      "d": 1016.9280000000726,
      "v": 83
    },
    {
      "midi": 62,
      "hit": false,
      "t": 123048.28800000016,
      "d": 1016.9280000000726,
      "v": 83
    },
    {
      "midi": 65,
      "hit": false,
      "t": 123048.28800000016,
      "d": 1016.9280000000726,
      "v": 83
    },
    {
      "midi": 62,
      "hit": false,
      "t": 123295.89937499995,
      "d": 362.810249999995,
      "v": 83
    },
    {
      "midi": 62,
      "hit": false,
      "t": 123298.54762499969,
      "d": 397.23749999998836,
      "v": 81
    },
    {
      "midi": 60,
      "hit": false,
      "t": 123299.87174999969,
      "d": 387.96862499999406,
      "v": 74
    },
    {
      "midi": 56,
      "hit": false,
      "t": 123299.87174999969,
      "d": 402.5339999999851,
      "v": 80
    },
    {
      "midi": 65,
      "hit": false,
      "t": 123299.87174999995,
      "d": 360.1619999999966,
      "v": 83
    },
    {
      "midi": 77,
      "hit": false,
      "t": 123301.19587499982,
      "d": 389.29274999999325,
      "v": 105
    },
    {
      "midi": 68,
      "hit": false,
      "t": 123301.19587499982,
      "d": 418.4234999999899,
      "v": 105
    },
    {
      "midi": 72,
      "hit": false,
      "t": 123301.19587499982,
      "d": 425.0441249999858,
      "v": 105
    },
    {
      "midi": 74,
      "hit": false,
      "t": 123302.51999999981,
      "d": 414.4511249999923,
      "v": 105
    },
    {
      "midi": 41,
      "hit": false,
      "t": 123302.52000000008,
      "d": 173.4603749999951,
      "v": 127
    },
    {
      "midi": 63,
      "hit": false,
      "t": 123302.5200000001,
      "d": 237.01837499999965,
      "v": 127
    },
    {
      "midi": 65,
      "hit": false,
      "t": 123305.16824999968,
      "d": 385.3203749999957,
      "v": 76
    },
    {
      "midi": 46,
      "hit": false,
      "t": 123556.75200000007,
      "d": 219.8047499999957,
      "v": 127
    },
    {
      "midi": 62,
      "hit": false,
      "t": 123556.75200000011,
      "d": 219.8047499999957,
      "v": 127
    },
    {
      "midi": 62,
      "hit": false,
      "t": 123793.77037499995,
      "d": 75.47512500001176,
      "v": 76
    },
    {
      "midi": 65,
      "hit": false,
      "t": 123797.74274999995,
      "d": 59.585625000006985,
      "v": 81
    },
    {
      "midi": 62,
      "hit": false,
      "t": 123805.68749999967,
      "d": 76.79924999999639,
      "v": 83
    },
    {
      "midi": 60,
      "hit": false,
      "t": 123805.68749999967,
      "d": 87.39224999998987,
      "v": 81
    },
    {
      "midi": 68,
      "hit": false,
      "t": 123809.65987499981,
      "d": 71.5027499999851,
      "v": 105
    },
    {
      "midi": 44,
      "hit": false,
      "t": 123810.98400000005,
      "d": 222.45299999999406,
      "v": 127
    },
    {
      "midi": 63,
      "hit": false,
      "t": 123810.9840000001,
      "d": 189.34987499999988,
      "v": 127
    },
    {
      "midi": 77,
      "hit": false,
      "t": 123812.3081249998,
      "d": 56.93737499999406,
      "v": 105
    },
    {
      "midi": 74,
      "hit": false,
      "t": 123812.3081249998,
      "d": 67.53037499998754,
      "v": 105
    },
    {
      "midi": 72,
      "hit": false,
      "t": 123812.3081249998,
      "d": 72.82687499998428,
      "v": 105
    },
    {
      "midi": 65,
      "hit": false,
      "t": 123814.95637499966,
      "d": 67.5303750000021,
      "v": 83
    },
    {
      "midi": 56,
      "hit": false,
      "t": 123817.60462499966,
      "d": 80.77162499999395,
      "v": 77
    },
    {
      "midi": 70,
      "hit": false,
      "t": 124029.46462500011,
      "d": 2069.6073749999923,
      "v": 78
    },
    {
      "midi": 65,
      "hit": false,
      "t": 124033.4370000001,
      "d": 2065.6349999999948,
      "v": 78
    },
    {
      "midi": 74,
      "hit": false,
      "t": 124033.4370000001,
      "d": 2065.6349999999948,
      "v": 78
    },
    {
      "midi": 43,
      "hit": false,
      "t": 124065.21600000004,
      "d": 158.89500000000407,
      "v": 127
    },
    {
      "midi": 65,
      "hit": false,
      "t": 124065.2160000001,
      "d": 764.0201249999955,
      "v": 127
    },
    {
      "midi": 43,
      "hit": false,
      "t": 124065.21600000023,
      "d": 2033.8560000000289,
      "v": 83
    },
    {
      "midi": 53,
      "hit": false,
      "t": 124065.21600000023,
      "d": 2033.8560000000289,
      "v": 83
    },
    {
      "midi": 58,
      "hit": false,
      "t": 124065.21600000023,
      "d": 2033.8560000000289,
      "v": 83
    },
    {
      "midi": 62,
      "hit": false,
      "t": 124065.21600000023,
      "d": 2033.8560000000289,
      "v": 83
    },
    {
      "midi": 94,
      "hit": false,
      "t": 124065.21600000023,
      "d": 4095.5186250000697,
      "v": 99
    },
    {
      "midi": 43,
      "hit": false,
      "t": 124319.44800000005,
      "d": 193.32224999999744,
      "v": 127
    },
    {
      "midi": 58,
      "hit": false,
      "t": 124544.54924999965,
      "d": 66.2062499999738,
      "v": 93
    },
    {
      "midi": 62,
      "hit": false,
      "t": 124553.81812499964,
      "d": 67.53037499997299,
      "v": 76
    },
    {
      "midi": 55,
      "hit": false,
      "t": 124560.43874999964,
      "d": 111.2264999999752,
      "v": 81
    },
    {
      "midi": 62,
      "hit": false,
      "t": 124561.76287499996,
      "d": 74.15099999999802,
      "v": 83
    },
    {
      "midi": 65,
      "hit": false,
      "t": 124563.08699999996,
      "d": 64.88212500000373,
      "v": 83
    },
    {
      "midi": 77,
      "hit": false,
      "t": 124568.38349999979,
      "d": 135.06074999998964,
      "v": 105
    },
    {
      "midi": 70,
      "hit": false,
      "t": 124568.38349999979,
      "d": 137.708999999988,
      "v": 105
    },
    {
      "midi": 65,
      "hit": false,
      "t": 124569.70762499963,
      "d": 31.778999999994994,
      "v": 72
    },
    {
      "midi": 74,
      "hit": false,
      "t": 124569.70762499979,
      "d": 129.7642499999929,
      "v": 105
    },
    {
      "midi": 67,
      "hit": false,
      "t": 124569.70762499979,
      "d": 156.24674999999115,
      "v": 105
    },
    {
      "midi": 38,
      "hit": false,
      "t": 124827.91200000004,
      "d": 195.9704999999958,
      "v": 127
    },
    {
      "midi": 58,
      "hit": false,
      "t": 124827.9120000001,
      "d": 448.87837500000023,
      "v": 127
    },
    {
      "midi": 43,
      "hit": false,
      "t": 125082.14400000003,
      "d": 136.38487500000338,
      "v": 127
    },
    {
      "midi": 62,
      "hit": false,
      "t": 125311.21762499996,
      "d": 402.53399999999965,
      "v": 81
    },
    {
      "midi": 65,
      "hit": false,
      "t": 125312.54174999996,
      "d": 395.9133750000037,
      "v": 85
    },
    {
      "midi": 77,
      "hit": false,
      "t": 125332.40362499979,
      "d": 376.0515000000014,
      "v": 105
    },
    {
      "midi": 70,
      "hit": false,
      "t": 125332.40362499979,
      "d": 395.9133750000037,
      "v": 105
    },
    {
      "midi": 67,
      "hit": false,
      "t": 125333.72774999979,
      "d": 380.02387499999895,
      "v": 105
    },
    {
      "midi": 74,
      "hit": false,
      "t": 125333.72774999979,
      "d": 397.2375000000029,
      "v": 105
    },
    {
      "midi": 43,
      "hit": false,
      "t": 125336.37600000003,
      "d": 402.53399999999965,
      "v": 127
    },
    {
      "midi": 60,
      "hit": false,
      "t": 125336.3760000001,
      "d": 239.66662499999802,
      "v": 127
    },
    {
      "midi": 58,
      "hit": false,
      "t": 125337.70012499961,
      "d": 352.21724999998696,
      "v": 93
    },
    {
      "midi": 55,
      "hit": false,
      "t": 125341.67249999961,
      "d": 391.9409999999916,
      "v": 81
    },
    {
      "midi": 62,
      "hit": false,
      "t": 125345.6448749996,
      "d": 365.45849999999336,
      "v": 87
    },
    {
      "midi": 65,
      "hit": false,
      "t": 125356.2378749996,
      "d": 346.9207500000048,
      "v": 87
    },
    {
      "midi": 62,
      "hit": false,
      "t": 125590.60800000011,
      "d": 230.39775000000373,
      "v": 127
    },
    {
      "midi": 58,
      "hit": false,
      "t": 125809.0886249996,
      "d": 60.909749999977066,
      "v": 86
    },
    {
      "midi": 62,
      "hit": false,
      "t": 125819.68162499959,
      "d": 64.88212499998917,
      "v": 83
    },
    {
      "midi": 55,
      "hit": false,
      "t": 125828.95049999958,
      "d": 99.30937499999709,
      "v": 70
    },
    {
      "midi": 65,
      "hit": false,
      "t": 125830.27462499958,
      "d": 33.10312499999418,
      "v": 68
    },
    {
      "midi": 62,
      "hit": false,
      "t": 125830.27462499996,
      "d": 67.53037499998754,
      "v": 83
    },
    {
      "midi": 65,
      "hit": false,
      "t": 125834.24699999996,
      "d": 56.93737499999406,
      "v": 85
    },
    {
      "midi": 70,
      "hit": false,
      "t": 125840.8676249998,
      "d": 67.5303750000021,
      "v": 105
    },
    {
      "midi": 77,
      "hit": false,
      "t": 125842.1917499998,
      "d": 38.39962500000547,
      "v": 105
    },
    {
      "midi": 67,
      "hit": false,
      "t": 125842.1917499998,
      "d": 58.2615000000078,
      "v": 105
    },
    {
      "midi": 74,
      "hit": false,
      "t": 125842.1917499998,
      "d": 70.17862500000047,
      "v": 105
    },
    {
      "midi": 38,
      "hit": false,
      "t": 125844.84000000003,
      "d": 178.7568750000064,
      "v": 127
    },
    {
      "midi": 63,
      "hit": false,
      "t": 125844.84000000011,
      "d": 144.3296249999985,
      "v": 106
    },
    {
      "midi": 36,
      "hit": false,
      "t": 126099.07200000003,
      "d": 121.81949999999779,
      "v": 127
    },
    {
      "midi": 70,
      "hit": false,
      "t": 126099.0720000001,
      "d": 1787.5687499999913,
      "v": 78
    },
    {
      "midi": 65,
      "hit": false,
      "t": 126099.07200000012,
      "d": 97.9852499999979,
      "v": 94
    },
    {
      "midi": 48,
      "hit": false,
      "t": 126099.07200000026,
      "d": 2033.8560000000434,
      "v": 83
    },
    {
      "midi": 55,
      "hit": false,
      "t": 126099.07200000026,
      "d": 2033.8560000000434,
      "v": 83
    },
    {
      "midi": 58,
      "hit": false,
      "t": 126099.07200000026,
      "d": 2033.8560000000434,
      "v": 83
    },
    {
      "midi": 63,
      "hit": false,
      "t": 126099.07200000026,
      "d": 2033.8560000000434,
      "v": 83
    },
    {
      "midi": 75,
      "hit": false,
      "t": 126109.6650000001,
      "d": 1763.7344999999914,
      "v": 78
    },
    {
      "midi": 67,
      "hit": false,
      "t": 126110.9891250001,
      "d": 1757.1138749999955,
      "v": 78
    },
    {
      "midi": 36,
      "hit": false,
      "t": 126353.30400000003,
      "d": 316.4658749999944,
      "v": 127
    },
    {
      "midi": 65,
      "hit": false,
      "t": 126353.30400000012,
      "d": 421.0717500000028,
      "v": 127
    },
    {
      "midi": 58,
      "hit": false,
      "t": 126582.37762499959,
      "d": 71.50274999999965,
      "v": 112
    },
    {
      "midi": 62,
      "hit": false,
      "t": 126588.99824999958,
      "d": 68.85450000000128,
      "v": 83
    },
    {
      "midi": 65,
      "hit": false,
      "t": 126590.32237499995,
      "d": 82.09575000000768,
      "v": 87
    },
    {
      "midi": 62,
      "hit": false,
      "t": 126591.64649999994,
      "d": 63.55800000000454,
      "v": 76
    },
    {
      "midi": 67,
      "hit": false,
      "t": 126604.88774999979,
      "d": 87.39225000000442,
      "v": 105
    },
    {
      "midi": 70,
      "hit": false,
      "t": 126604.88774999979,
      "d": 90.0405000000028,
      "v": 105
    },
    {
      "midi": 55,
      "hit": false,
      "t": 126606.21187499959,
      "d": 91.36462500000198,
      "v": 85
    },
    {
      "midi": 74,
      "hit": false,
      "t": 126606.21187499979,
      "d": 90.0405000000028,
      "v": 105
    },
    {
      "midi": 77,
      "hit": false,
      "t": 126606.21187499979,
      "d": 92.68875000000116,
      "v": 105
    },
    {
      "midi": 65,
      "hit": false,
      "t": 126607.53599999959,
      "d": 30.45487499999581,
      "v": 70
    },
    {
      "midi": 43,
      "hit": false,
      "t": 126861.76800000003,
      "d": 185.37750000000233,
      "v": 127
    },
    {
      "midi": 63,
      "hit": false,
      "t": 126861.76800000013,
      "d": 386.6444999999949,
      "v": 127
    },
    {
      "midi": 48,
      "hit": false,
      "t": 127116.00000000003,
      "d": 182.72925000000396,
      "v": 127
    },
    {
      "midi": 63,
      "hit": false,
      "t": 127353.01837499996,
      "d": 413.12699999999313,
      "v": 93
    },
    {
      "midi": 60,
      "hit": false,
      "t": 127355.66662499995,
      "d": 410.47874999999476,
      "v": 83
    },
    {
      "midi": 75,
      "hit": false,
      "t": 127368.90787499979,
      "d": 406.5063749999972,
      "v": 105
    },
    {
      "midi": 67,
      "hit": false,
      "t": 127368.90787499979,
      "d": 415.7752499999915,
      "v": 105
    },
    {
      "midi": 72,
      "hit": false,
      "t": 127368.90787499979,
      "d": 417.0993749999907,
      "v": 105
    },
    {
      "midi": 70,
      "hit": false,
      "t": 127368.90787499979,
      "d": 419.74762499998906,
      "v": 105
    },
    {
      "midi": 46,
      "hit": false,
      "t": 127370.23200000003,
      "d": 197.294624999995,
      "v": 127
    },
    {
      "midi": 62,
      "hit": false,
      "t": 127370.23200000012,
      "d": 243.63899999999558,
      "v": 112
    },
    {
      "midi": 58,
      "hit": false,
      "t": 127386.12149999959,
      "d": 377.37562499998603,
      "v": 96
    },
    {
      "midi": 63,
      "hit": false,
      "t": 127391.41799999958,
      "d": 376.05149999998685,
      "v": 77
    },
    {
      "midi": 60,
      "hit": false,
      "t": 127391.41799999958,
      "d": 383.99624999998196,
      "v": 94
    },
    {
      "midi": 55,
      "hit": false,
      "t": 127399.36274999958,
      "d": 381.3479999999836,
      "v": 76
    },
    {
      "midi": 44,
      "hit": false,
      "t": 127624.46400000002,
      "d": 170.81212499999674,
      "v": 127
    },
    {
      "midi": 60,
      "hit": false,
      "t": 127624.46400000011,
      "d": 191.99812499999825,
      "v": 127
    },
    {
      "midi": 60,
      "hit": false,
      "t": 127869.42712499994,
      "d": 58.26149999999325,
      "v": 72
    },
    {
      "midi": 63,
      "hit": false,
      "t": 127870.75124999994,
      "d": 48.99262499999895,
      "v": 96
    },
    {
      "midi": 70,
      "hit": false,
      "t": 127877.37187499978,
      "d": 78.12337499999558,
      "v": 105
    },
    {
      "midi": 75,
      "hit": false,
      "t": 127877.37187499978,
      "d": 83.41987499999232,
      "v": 105
    },
    {
      "midi": 43,
      "hit": false,
      "t": 127878.69600000003,
      "d": 195.9704999999958,
      "v": 127
    },
    {
      "midi": 62,
      "hit": false,
      "t": 127878.69600000011,
      "d": 201.2670000000071,
      "v": 120
    },
    {
      "midi": 67,
      "hit": false,
      "t": 127880.02012499978,
      "d": 70.17862500000047,
      "v": 105
    },
    {
      "midi": 72,
      "hit": false,
      "t": 127880.02012499978,
      "d": 71.50274999999965,
      "v": 105
    },
    {
      "midi": 58,
      "hit": false,
      "t": 127886.64074999955,
      "d": 60.90975000000617,
      "v": 100
    },
    {
      "midi": 60,
      "hit": false,
      "t": 127887.96487499955,
      "d": 62.233875000005355,
      "v": 97
    },
    {
      "midi": 63,
      "hit": false,
      "t": 127889.28899999955,
      "d": 59.585625000006985,
      "v": 106
    },
    {
      "midi": 55,
      "hit": false,
      "t": 127903.85437499956,
      "d": 88.71637500000361,
      "v": 85
    },
    {
      "midi": 75,
      "hit": false,
      "t": 128089.2318750001,
      "d": 3825.397125000003,
      "v": 67
    },
    {
      "midi": 68,
      "hit": false,
      "t": 128090.5560000001,
      "d": 3824.073000000004,
      "v": 67
    },
    {
      "midi": 72,
      "hit": false,
      "t": 128094.5283750001,
      "d": 3820.1006250000064,
      "v": 67
    },
    {
      "midi": 41,
      "hit": false,
      "t": 128132.92800000001,
      "d": 659.4142500000016,
      "v": 127
    },
    {
      "midi": 63,
      "hit": false,
      "t": 128132.92800000012,
      "d": 762.6959999999963,
      "v": 127
    },
    {
      "midi": 92,
      "hit": false,
      "t": 128132.9280000003,
      "d": 2017.966499999995,
      "v": 99
    },
    {
      "midi": 41,
      "hit": false,
      "t": 128132.9280000003,
      "d": 4051.822499999922,
      "v": 83
    },
    {
      "midi": 56,
      "hit": false,
      "t": 128132.9280000003,
      "d": 4051.822499999922,
      "v": 83
    },
    {
      "midi": 60,
      "hit": false,
      "t": 128132.9280000003,
      "d": 4051.822499999922,
      "v": 83
    },
    {
      "midi": 63,
      "hit": false,
      "t": 128132.9280000003,
      "d": 4051.822499999922,
      "v": 83
    },
    {
      "midi": 56,
      "hit": false,
      "t": 128146.16924999956,
      "d": 709.7309999999852,
      "v": 96
    },
    {
      "midi": 63,
      "hit": false,
      "t": 128148.81749999993,
      "d": 762.6959999999963,
      "v": 64
    },
    {
      "midi": 63,
      "hit": false,
      "t": 128150.14162499955,
      "d": 709.7309999999852,
      "v": 77
    },
    {
      "midi": 60,
      "hit": false,
      "t": 128152.78987499993,
      "d": 758.7236249999987,
      "v": 64
    },
    {
      "midi": 60,
      "hit": false,
      "t": 128158.08637499955,
      "d": 697.8138749999925,
      "v": 85
    },
    {
      "midi": 53,
      "hit": false,
      "t": 128163.38287499954,
      "d": 704.4344999999885,
      "v": 87
    },
    {
      "midi": 75,
      "hit": false,
      "t": 128167.35524999977,
      "d": 707.0827500000014,
      "v": 105
    },
    {
      "midi": 72,
      "hit": false,
      "t": 128167.35524999977,
      "d": 713.7033749999973,
      "v": 105
    },
    {
      "midi": 65,
      "hit": false,
      "t": 128167.35524999977,
      "d": 720.3239999999932,
      "v": 105
    },
    {
      "midi": 68,
      "hit": false,
      "t": 128167.35524999977,
      "d": 722.9722499999916,
      "v": 105
    },
    {
      "midi": 41,
      "hit": false,
      "t": 128895.62400000001,
      "d": 675.3037500000064,
      "v": 127
    },
    {
      "midi": 65,
      "hit": false,
      "t": 128895.62400000011,
      "d": 742.834124999994,
      "v": 127
    },
    {
      "midi": 41,
      "hit": false,
      "t": 129658.32000000002,
      "d": 656.7660000000033,
      "v": 127
    },
    {
      "midi": 60,
      "hit": false,
      "t": 129658.32000000011,
      "d": 696.4897499999934,
      "v": 127
    },
    {
      "midi": 92,
      "hit": false,
      "t": 130166.7840000003,
      "d": 2081.524499999883,
      "v": 57
    },
    {
      "midi": 41,
      "hit": false,
      "t": 130421.01600000002,
      "d": 684.5726249999861,
      "v": 127
    },
    {
      "midi": 62,
      "hit": false,
      "t": 130421.0160000001,
      "d": 635.5800000000017,
      "v": 127
    },
    {
      "midi": 41,
      "hit": false,
      "t": 131183.712,
      "d": 344.27249999999185,
      "v": 127
    },
    {
      "midi": 63,
      "hit": false,
      "t": 131183.71200000012,
      "d": 344.27249999999185,
      "v": 127
    },
    {
      "midi": 41,
      "hit": false,
      "t": 131692.17599999998,
      "d": 483.30562500000815,
      "v": 127
    },
    {
      "midi": 60,
      "hit": false,
      "t": 131692.1760000001,
      "d": 385.32037500001024,
      "v": 127
    },
    {
      "midi": 49,
      "hit": false,
      "t": 132164.88862500023,
      "d": 2077.5521249999583,
      "v": 67
    },
    {
      "midi": 59,
      "hit": false,
      "t": 132167.53687500022,
      "d": 2073.579749999946,
      "v": 81
    },
    {
      "midi": 49,
      "hit": false,
      "t": 132176.80575,
      "d": 288.659249999997,
      "v": 83
    },
    {
      "midi": 37,
      "hit": false,
      "t": 132200.63999999998,
      "d": 2017.9665000000095,
      "v": 127
    },
    {
      "midi": 63,
      "hit": false,
      "t": 132200.6400000001,
      "d": 670.0072499999951,
      "v": 127
    },
    {
      "midi": 53,
      "hit": false,
      "t": 132284.059875,
      "d": 186.70162499998696,
      "v": 92
    },
    {
      "midi": 56,
      "hit": false,
      "t": 132399.25875,
      "d": 188.0257499999716,
      "v": 112
    },
    {
      "midi": 59,
      "hit": false,
      "t": 132495.919875,
      "d": 127.11599999997998,
      "v": 83
    },
    {
      "midi": 61,
      "hit": false,
      "t": 132600.52574999997,
      "d": 288.659249999997,
      "v": 68
    },
    {
      "midi": 65,
      "hit": false,
      "t": 132707.77987499998,
      "d": 186.70162499998696,
      "v": 60
    },
    {
      "midi": 68,
      "hit": false,
      "t": 132822.97874999998,
      "d": 188.0257499999716,
      "v": 51
    },
    {
      "midi": 71,
      "hit": false,
      "t": 132919.63987499996,
      "d": 127.11599999997998,
      "v": 44
    },
    {
      "midi": 65,
      "hit": false,
      "t": 132963.3360000001,
      "d": 1273.8082500000019,
      "v": 127
    },
    {
      "midi": 58,
      "hit": false,
      "t": 134169.61387500018,
      "d": 2127.8688750000147,
      "v": 46
    },
    {
      "midi": 53,
      "hit": false,
      "t": 134194.77225000018,
      "d": 59.585625000006985,
      "v": 68
    },
    {
      "midi": 34,
      "hit": false,
      "t": 134234.49599999998,
      "d": 153.59849999999278,
      "v": 72
    },
    {
      "midi": 58,
      "hit": false,
      "t": 134234.4960000001,
      "d": 593.2079999999842,
      "v": 127
    },
    {
      "midi": 34,
      "hit": false,
      "t": 134488.72799999997,
      "d": 162.86737500000163,
      "v": 80
    },
    {
      "midi": 34,
      "hit": false,
      "t": 134742.95999999996,
      "d": 162.86737500000163,
      "v": 75
    },
    {
      "midi": 34,
      "hit": false,
      "t": 134997.19199999995,
      "d": 177.43275000000722,
      "v": 93
    },
    {
      "midi": 82,
      "hit": false,
      "t": 135239.5068750002,
      "d": 2464.1966250000114,
      "v": 96
    },
    {
      "midi": 34,
      "hit": false,
      "t": 135251.42399999997,
      "d": 181.40512499999022,
      "v": 93
    },
    {
      "midi": 58,
      "hit": false,
      "t": 135251.4240000001,
      "d": 239.66662500001257,
      "v": 127
    },
    {
      "midi": 34,
      "hit": false,
      "t": 135505.65599999996,
      "d": 156.24674999999115,
      "v": 112
    },
    {
      "midi": 58,
      "hit": false,
      "t": 135632.77200000008,
      "d": 233.0460000000021,
      "v": 127
    },
    {
      "midi": 34,
      "hit": false,
      "t": 135759.88799999995,
      "d": 144.32962500001304,
      "v": 127
    },
    {
      "midi": 34,
      "hit": false,
      "t": 136014.11999999997,
      "d": 217.15650000001187,
      "v": 127
    },
    {
      "midi": 58,
      "hit": false,
      "t": 136014.12000000008,
      "d": 254.23199999998906,
      "v": 127
    },
    {
      "midi": 63,
      "hit": false,
      "t": 136253.786625,
      "d": 4045.201874999999,
      "v": 91
    },
    {
      "midi": 39,
      "hit": false,
      "t": 136268.35199999998,
      "d": 630.2834999999905,
      "v": 121
    },
    {
      "midi": 60,
      "hit": false,
      "t": 136268.35200000007,
      "d": 721.648125000007,
      "v": 127
    },
    {
      "midi": 63,
      "hit": false,
      "t": 136268.3520000002,
      "d": 4067.7120000000286,
      "v": 86
    },
    {
      "midi": 67,
      "hit": false,
      "t": 136268.3520000002,
      "d": 4067.7120000000286,
      "v": 86
    },
    {
      "midi": 70,
      "hit": false,
      "t": 136268.3520000002,
      "d": 4067.7120000000286,
      "v": 86
    },
    {
      "midi": 67,
      "hit": false,
      "t": 136294.83449999994,
      "d": 3763.1632500000123,
      "v": 83
    },
    {
      "midi": 70,
      "hit": false,
      "t": 136297.48274999994,
      "d": 3786.997500000027,
      "v": 83
    },
    {
      "midi": 75,
      "hit": false,
      "t": 136306.75162499995,
      "d": 3814.804125000024,
      "v": 83
    },
    {
      "midi": 67,
      "hit": false,
      "t": 136768.87124999965,
      "d": 76.79925000001094,
      "v": 74
    },
    {
      "midi": 70,
      "hit": false,
      "t": 136776.81599999964,
      "d": 64.88212500000373,
      "v": 100
    },
    {
      "midi": 75,
      "hit": false,
      "t": 136787.40899999964,
      "d": 58.26150000002235,
      "v": 96
    },
    {
      "midi": 39,
      "hit": false,
      "t": 137031.04799999998,
      "d": 136.38487499998882,
      "v": 121
    },
    {
      "midi": 58,
      "hit": false,
      "t": 137031.04800000007,
      "d": 109.90237500000512,
      "v": 127
    },
    {
      "midi": 55,
      "hit": false,
      "t": 137158.16400000008,
      "d": 144.32962500001304,
      "v": 97
    },
    {
      "midi": 39,
      "hit": false,
      "t": 137285.27999999997,
      "d": 631.6076250000042,
      "v": 121
    },
    {
      "midi": 58,
      "hit": false,
      "t": 137285.2800000001,
      "d": 1790.2170000000042,
      "v": 112
    },
    {
      "midi": 67,
      "hit": false,
      "t": 137531.56724999967,
      "d": 76.79925000001094,
      "v": 74
    },
    {
      "midi": 70,
      "hit": false,
      "t": 137539.51199999967,
      "d": 64.88212500000373,
      "v": 100
    },
    {
      "midi": 75,
      "hit": false,
      "t": 137550.10499999966,
      "d": 58.26150000002235,
      "v": 96
    },
    {
      "midi": 79,
      "hit": false,
      "t": 137723.5653750002,
      "d": 248.93549999999232,
      "v": 96
    },
    {
      "midi": 82,
      "hit": false,
      "t": 138001.6316250002,
      "d": 248.93549999999232,
      "v": 96
    },
    {
      "midi": 67,
      "hit": false,
      "t": 138040.03124999968,
      "d": 76.79925000001094,
      "v": 74
    },
    {
      "midi": 70,
      "hit": false,
      "t": 138047.97599999967,
      "d": 64.88212500000373,
      "v": 100
    },
    {
      "midi": 39,
      "hit": false,
      "t": 138047.97599999997,
      "d": 123.14362499999697,
      "v": 121
    },
    {
      "midi": 75,
      "hit": false,
      "t": 138058.56899999967,
      "d": 58.26150000002235,
      "v": 96
    },
    {
      "midi": 84,
      "hit": false,
      "t": 138262.4842500002,
      "d": 744.1582500000077,
      "v": 96
    },
    {
      "midi": 39,
      "hit": false,
      "t": 138302.20799999996,
      "d": 590.5597499999858,
      "v": 121
    },
    {
      "midi": 67,
      "hit": false,
      "t": 138802.7272499997,
      "d": 76.79925000001094,
      "v": 74
    },
    {
      "midi": 70,
      "hit": false,
      "t": 138810.6719999997,
      "d": 64.88212500000373,
      "v": 100
    },
    {
      "midi": 75,
      "hit": false,
      "t": 138821.2649999997,
      "d": 58.26150000002235,
      "v": 96
    },
    {
      "midi": 79,
      "hit": false,
      "t": 139009.29075000022,
      "d": 254.23199999998906,
      "v": 96
    },
    {
      "midi": 39,
      "hit": false,
      "t": 139064.90399999995,
      "d": 116.5229999999865,
      "v": 121
    },
    {
      "midi": 82,
      "hit": false,
      "t": 139275.43987500021,
      "d": 1953.0843750000058,
      "v": 96
    },
    {
      "midi": 39,
      "hit": false,
      "t": 139319.13599999994,
      "d": 689.8691249999974,
      "v": 121
    },
    {
      "midi": 58,
      "hit": false,
      "t": 139319.1360000001,
      "d": 308.5211249999993,
      "v": 127
    },
    {
      "midi": 67,
      "hit": false,
      "t": 139565.42324999973,
      "d": 76.79925000001094,
      "v": 74
    },
    {
      "midi": 70,
      "hit": false,
      "t": 139573.36799999973,
      "d": 64.88212500000373,
      "v": 100
    },
    {
      "midi": 75,
      "hit": false,
      "t": 139583.96099999972,
      "d": 58.26150000002235,
      "v": 96
    },
    {
      "midi": 58,
      "hit": false,
      "t": 139700.48400000008,
      "d": 279.3903749999881,
      "v": 127
    },
    {
      "midi": 67,
      "hit": false,
      "t": 140073.88724999974,
      "d": 76.79925000001094,
      "v": 74
    },
    {
      "midi": 70,
      "hit": false,
      "t": 140081.83199999973,
      "d": 64.88212500000373,
      "v": 100
    },
    {
      "midi": 46,
      "hit": false,
      "t": 140081.83199999994,
      "d": 268.79737499999464,
      "v": 121
    },
    {
      "midi": 58,
      "hit": false,
      "t": 140081.83200000008,
      "d": 180.0810000000056,
      "v": 127
    },
    {
      "midi": 75,
      "hit": false,
      "t": 140092.42499999973,
      "d": 58.26150000002235,
      "v": 96
    },
    {
      "midi": 62,
      "hit": false,
      "t": 140302.96087500002,
      "d": 4103.463374999992,
      "v": 91
    },
    {
      "midi": 67,
      "hit": false,
      "t": 140322.82274999996,
      "d": 3894.2516250000044,
      "v": 83
    },
    {
      "midi": 39,
      "hit": false,
      "t": 140336.06399999993,
      "d": 610.4216250000172,
      "v": 121
    },
    {
      "midi": 60,
      "hit": false,
      "t": 140336.0640000001,
      "d": 749.4547500000044,
      "v": 127
    },
    {
      "midi": 62,
      "hit": false,
      "t": 140336.06400000022,
      "d": 4067.7119999999995,
      "v": 86
    },
    {
      "midi": 67,
      "hit": false,
      "t": 140336.06400000022,
      "d": 4067.7119999999995,
      "v": 86
    },
    {
      "midi": 70,
      "hit": false,
      "t": 140336.06400000022,
      "d": 4067.7119999999995,
      "v": 86
    },
    {
      "midi": 70,
      "hit": false,
      "t": 140337.38812499997,
      "d": 3906.1687500000116,
      "v": 83
    },
    {
      "midi": 74,
      "hit": false,
      "t": 140354.60174999997,
      "d": 3912.789375000022,
      "v": 83
    },
    {
      "midi": 67,
      "hit": false,
      "t": 140836.58324999976,
      "d": 76.79925000001094,
      "v": 74
    },
    {
      "midi": 70,
      "hit": false,
      "t": 140844.52799999976,
      "d": 64.88212500000373,
      "v": 100
    },
    {
      "midi": 74,
      "hit": false,
      "t": 140855.12099999975,
      "d": 58.26150000002235,
      "v": 96
    },
    {
      "midi": 39,
      "hit": false,
      "t": 141098.75999999995,
      "d": 91.36462499998743,
      "v": 121
    },
    {
      "midi": 58,
      "hit": false,
      "t": 141098.7600000001,
      "d": 113.87474999998813,
      "v": 112
    },
    {
      "midi": 55,
      "hit": false,
      "t": 141225.87600000008,
      "d": 177.43275000000722,
      "v": 100
    },
    {
      "midi": 82,
      "hit": false,
      "t": 141346.37137500022,
      "d": 429.0164999999979,
      "v": 96
    },
    {
      "midi": 39,
      "hit": false,
      "t": 141352.99199999994,
      "d": 624.9869999999937,
      "v": 121
    },
    {
      "midi": 58,
      "hit": false,
      "t": 141480.1080000001,
      "d": 1771.6792499999865,
      "v": 106
    },
    {
      "midi": 67,
      "hit": false,
      "t": 141599.2792499998,
      "d": 76.79925000001094,
      "v": 74
    },
    {
      "midi": 70,
      "hit": false,
      "t": 141607.22399999978,
      "d": 64.88212500000373,
      "v": 100
    },
    {
      "midi": 74,
      "hit": false,
      "t": 141617.81699999978,
      "d": 58.26150000002235,
      "v": 96
    },
    {
      "midi": 79,
      "hit": false,
      "t": 141803.19450000022,
      "d": 250.25962500000605,
      "v": 96
    },
    {
      "midi": 82,
      "hit": false,
      "t": 142070.66775000023,
      "d": 254.23199999998906,
      "v": 96
    },
    {
      "midi": 67,
      "hit": false,
      "t": 142107.7432499998,
      "d": 76.79925000001094,
      "v": 74
    },
    {
      "midi": 70,
      "hit": false,
      "t": 142115.6879999998,
      "d": 64.88212500000373,
      "v": 100
    },
    {
      "midi": 39,
      "hit": false,
      "t": 142115.68799999994,
      "d": 96.66112500001327,
      "v": 121
    },
    {
      "midi": 74,
      "hit": false,
      "t": 142126.28099999978,
      "d": 58.26150000002235,
      "v": 96
    },
    {
      "midi": 84,
      "hit": false,
      "t": 142335.4927500002,
      "d": 715.0274999999965,
      "v": 96
    },
    {
      "midi": 39,
      "hit": false,
      "t": 142369.91999999995,
      "d": 624.9869999999937,
      "v": 121
    },
    {
      "midi": 67,
      "hit": false,
      "t": 142870.43924999982,
      "d": 76.79925000001094,
      "v": 74
    },
    {
      "midi": 70,
      "hit": false,
      "t": 142878.38399999982,
      "d": 64.88212500000373,
      "v": 100
    },
    {
      "midi": 74,
      "hit": false,
      "t": 142888.9769999998,
      "d": 58.26150000002235,
      "v": 96
    },
    {
      "midi": 79,
      "hit": false,
      "t": 143051.84437500022,
      "d": 271.445624999993,
      "v": 96
    },
    {
      "midi": 39,
      "hit": false,
      "t": 143132.61599999995,
      "d": 84.74400000000605,
      "v": 121
    },
    {
      "midi": 82,
      "hit": false,
      "t": 143339.1795000002,
      "d": 1922.62950000001,
      "v": 96
    },
    {
      "midi": 39,
      "hit": false,
      "t": 143386.84799999997,
      "d": 697.8138749999925,
      "v": 121
    },
    {
      "midi": 58,
      "hit": false,
      "t": 143386.8480000001,
      "d": 229.07362499999,
      "v": 127
    },
    {
      "midi": 67,
      "hit": false,
      "t": 143633.13524999985,
      "d": 76.79925000001094,
      "v": 74
    },
    {
      "midi": 70,
      "hit": false,
      "t": 143641.07999999984,
      "d": 64.88212500000373,
      "v": 100
    },
    {
      "midi": 74,
      "hit": false,
      "t": 143651.67299999984,
      "d": 58.26150000002235,
      "v": 96
    },
    {
      "midi": 58,
      "hit": false,
      "t": 143768.19600000008,
      "d": 206.5634999999893,
      "v": 112
    },
    {
      "midi": 67,
      "hit": false,
      "t": 144141.59924999985,
      "d": 76.79925000001094,
      "v": 74
    },
    {
      "midi": 70,
      "hit": false,
      "t": 144149.54399999985,
      "d": 64.88212500000373,
      "v": 100
    },
    {
      "midi": 46,
      "hit": false,
      "t": 144149.54399999997,
      "d": 275.417999999976,
      "v": 121
    },
    {
      "midi": 58,
      "hit": false,
      "t": 144149.54400000008,
      "d": 158.89499999998952,
      "v": 112
    },
    {
      "midi": 74,
      "hit": false,
      "t": 144160.13699999984,
      "d": 58.26150000002235,
      "v": 96
    },
    {
      "midi": 61,
      "hit": false,
      "t": 144383.914125,
      "d": 4062.415500000003,
      "v": 91
    },
    {
      "midi": 39,
      "hit": false,
      "t": 144403.77599999995,
      "d": 622.3387499999953,
      "v": 121
    },
    {
      "midi": 67,
      "hit": false,
      "t": 144403.77599999998,
      "d": 3732.7083750000165,
      "v": 83
    },
    {
      "midi": 60,
      "hit": false,
      "t": 144403.77600000007,
      "d": 779.9096250000002,
      "v": 127
    },
    {
      "midi": 67,
      "hit": false,
      "t": 144403.77600000022,
      "d": 3978.9956249999523,
      "v": 86
    },
    {
      "midi": 70,
      "hit": false,
      "t": 144403.77600000022,
      "d": 3989.5886249999458,
      "v": 86
    },
    {
      "midi": 61,
      "hit": false,
      "t": 144403.77600000022,
      "d": 4082.277374999947,
      "v": 86
    },
    {
      "midi": 70,
      "hit": false,
      "t": 144415.693125,
      "d": 3743.30137500001,
      "v": 83
    },
    {
      "midi": 73,
      "hit": false,
      "t": 144447.472125,
      "d": 3712.846500000014,
      "v": 83
    },
    {
      "midi": 67,
      "hit": false,
      "t": 144904.29524999988,
      "d": 76.79925000001094,
      "v": 74
    },
    {
      "midi": 70,
      "hit": false,
      "t": 144912.23999999987,
      "d": 64.88212500000373,
      "v": 100
    },
    {
      "midi": 73,
      "hit": false,
      "t": 144922.83299999987,
      "d": 58.26150000002235,
      "v": 96
    },
    {
      "midi": 39,
      "hit": false,
      "t": 145166.47199999995,
      "d": 86.06812499999069,
      "v": 121
    },
    {
      "midi": 58,
      "hit": false,
      "t": 145166.47200000007,
      "d": 131.0883750000212,
      "v": 96
    },
    {
      "midi": 60,
      "hit": false,
      "t": 145293.58800000008,
      "d": 104.60587500000838,
      "v": 97
    },
    {
      "midi": 82,
      "hit": false,
      "t": 145400.8421250002,
      "d": 447.5542499999865,
      "v": 96
    },
    {
      "midi": 39,
      "hit": false,
      "t": 145420.70399999994,
      "d": 613.0698749999865,
      "v": 121
    },
    {
      "midi": 58,
      "hit": false,
      "t": 145420.70400000009,
      "d": 1904.0917499999923,
      "v": 96
    },
    {
      "midi": 67,
      "hit": false,
      "t": 145666.9912499999,
      "d": 76.79925000001094,
      "v": 74
    },
    {
      "midi": 70,
      "hit": false,
      "t": 145674.9359999999,
      "d": 64.88212500000373,
      "v": 100
    },
    {
      "midi": 73,
      "hit": false,
      "t": 145685.5289999999,
      "d": 58.26150000002235,
      "v": 96
    },
    {
      "midi": 79,
      "hit": false,
      "t": 145892.09250000017,
      "d": 211.85999999998603,
      "v": 96
    },
    {
      "midi": 82,
      "hit": false,
      "t": 146131.75912500016,
      "d": 235.69425000000047,
      "v": 96
    },
    {
      "midi": 67,
      "hit": false,
      "t": 146175.4552499999,
      "d": 76.79925000001094,
      "v": 74
    },
    {
      "midi": 70,
      "hit": false,
      "t": 146183.3999999999,
      "d": 64.88212500000373,
      "v": 100
    },
    {
      "midi": 39,
      "hit": false,
      "t": 146183.39999999994,
      "d": 113.87474999998813,
      "v": 121
    },
    {
      "midi": 73,
      "hit": false,
      "t": 146193.9929999999,
      "d": 58.26150000002235,
      "v": 96
    },
    {
      "midi": 84,
      "hit": false,
      "t": 146397.90825000015,
      "d": 1022.2245000000112,
      "v": 96
    },
    {
      "midi": 39,
      "hit": false,
      "t": 146437.63199999993,
      "d": 589.2356250000012,
      "v": 121
    },
    {
      "midi": 67,
      "hit": false,
      "t": 146938.15124999994,
      "d": 76.79925000001094,
      "v": 74
    },
    {
      "midi": 70,
      "hit": false,
      "t": 146946.09599999993,
      "d": 64.88212500000373,
      "v": 100
    },
    {
      "midi": 73,
      "hit": false,
      "t": 146956.68899999993,
      "d": 58.26150000002235,
      "v": 96
    },
    {
      "midi": 39,
      "hit": false,
      "t": 147200.32799999992,
      "d": 101.95762500001001,
      "v": 121
    },
    {
      "midi": 82,
      "hit": false,
      "t": 147429.40162500017,
      "d": 2035.1801249999844,
      "v": 96
    },
    {
      "midi": 39,
      "hit": false,
      "t": 147454.55999999994,
      "d": 538.918875000003,
      "v": 121
    },
    {
      "midi": 58,
      "hit": false,
      "t": 147454.56000000008,
      "d": 231.72187499998836,
      "v": 127
    },
    {
      "midi": 67,
      "hit": false,
      "t": 147700.84724999996,
      "d": 76.79925000001094,
      "v": 74
    },
    {
      "midi": 70,
      "hit": false,
      "t": 147708.79199999996,
      "d": 64.88212500000373,
      "v": 100
    },
    {
      "midi": 56,
      "hit": false,
      "t": 147708.79200000007,
      "d": 87.39225000000442,
      "v": 94
    },
    {
      "midi": 73,
      "hit": false,
      "t": 147719.38499999995,
      "d": 58.26150000002235,
      "v": 96
    },
    {
      "midi": 58,
      "hit": false,
      "t": 147963.0240000001,
      "d": 254.23199999998906,
      "v": 83
    },
    {
      "midi": 67,
      "hit": false,
      "t": 148209.31124999997,
      "d": 76.79925000001094,
      "v": 74
    },
    {
      "midi": 46,
      "hit": false,
      "t": 148217.25599999994,
      "d": 254.23199999998906,
      "v": 127
    },
    {
      "midi": 70,
      "hit": false,
      "t": 148217.25599999996,
      "d": 64.88212500000373,
      "v": 100
    },
    {
      "midi": 56,
      "hit": false,
      "t": 148217.25600000008,
      "d": 210.5358750000014,
      "v": 112
    },
    {
      "midi": 73,
      "hit": false,
      "t": 148227.84899999996,
      "d": 58.26150000002235,
      "v": 96
    },
    {
      "midi": 60,
      "hit": false,
      "t": 148439.709,
      "d": 4115.380499999999,
      "v": 91
    },
    {
      "midi": 63,
      "hit": false,
      "t": 148458.24675000002,
      "d": 3953.8372499999823,
      "v": 83
    },
    {
      "midi": 44,
      "hit": false,
      "t": 148471.48799999992,
      "d": 594.5321249999979,
      "v": 127
    },
    {
      "midi": 58,
      "hit": false,
      "t": 148471.48800000007,
      "d": 701.7862500000047,
      "v": 106
    },
    {
      "midi": 60,
      "hit": false,
      "t": 148471.48800000016,
      "d": 4067.7119999999995,
      "v": 86
    },
    {
      "midi": 63,
      "hit": false,
      "t": 148471.48800000016,
      "d": 4067.7119999999995,
      "v": 86
    },
    {
      "midi": 68,
      "hit": false,
      "t": 148471.48800000016,
      "d": 4067.7119999999995,
      "v": 86
    },
    {
      "midi": 68,
      "hit": false,
      "t": 148474.13625,
      "d": 3945.892499999987,
      "v": 83
    },
    {
      "midi": 72,
      "hit": false,
      "t": 148487.3775,
      "d": 3930.002999999997,
      "v": 83
    },
    {
      "midi": 63,
      "hit": false,
      "t": 148972.00725,
      "d": 76.79925000001094,
      "v": 74
    },
    {
      "midi": 68,
      "hit": false,
      "t": 148979.952,
      "d": 64.88212500000373,
      "v": 100
    },
    {
      "midi": 72,
      "hit": false,
      "t": 148990.54499999998,
      "d": 58.26150000002235,
      "v": 96
    },
    {
      "midi": 44,
      "hit": false,
      "t": 149234.18399999992,
      "d": 105.92999999999302,
      "v": 127
    },
    {
      "midi": 56,
      "hit": false,
      "t": 149234.18400000007,
      "d": 123.14362499999697,
      "v": 83
    },
    {
      "midi": 58,
      "hit": false,
      "t": 149361.30000000008,
      "d": 143.0054999999993,
      "v": 112
    },
    {
      "midi": 80,
      "hit": false,
      "t": 149481.79537500016,
      "d": 966.6112499999872,
      "v": 96
    },
    {
      "midi": 44,
      "hit": false,
      "t": 149488.4159999999,
      "d": 602.476874999993,
      "v": 127
    },
    {
      "midi": 56,
      "hit": false,
      "t": 149488.41600000008,
      "d": 1886.8781249999884,
      "v": 112
    },
    {
      "midi": 63,
      "hit": false,
      "t": 149734.70325000002,
      "d": 76.79925000001094,
      "v": 74
    },
    {
      "midi": 68,
      "hit": false,
      "t": 149742.64800000002,
      "d": 64.88212500000373,
      "v": 100
    },
    {
      "midi": 72,
      "hit": false,
      "t": 149753.241,
      "d": 58.26150000002235,
      "v": 96
    },
    {
      "midi": 63,
      "hit": false,
      "t": 150243.16725000003,
      "d": 76.79925000001094,
      "v": 74
    },
    {
      "midi": 44,
      "hit": false,
      "t": 150251.1119999999,
      "d": 121.81950000001234,
      "v": 127
    },
    {
      "midi": 68,
      "hit": false,
      "t": 150251.11200000002,
      "d": 64.88212500000373,
      "v": 100
    },
    {
      "midi": 72,
      "hit": false,
      "t": 150261.70500000002,
      "d": 58.26150000002235,
      "v": 96
    },
    {
      "midi": 79,
      "hit": false,
      "t": 150474.88912500016,
      "d": 1002.3626250000088,
      "v": 96
    },
    {
      "midi": 44,
      "hit": false,
      "t": 150505.34399999992,
      "d": 626.3111250000075,
      "v": 127
    },
    {
      "midi": 63,
      "hit": false,
      "t": 151005.86325000005,
      "d": 76.79925000001094,
      "v": 74
    },
    {
      "midi": 68,
      "hit": false,
      "t": 151013.80800000005,
      "d": 64.88212500000373,
      "v": 100
    },
    {
      "midi": 72,
      "hit": false,
      "t": 151024.40100000004,
      "d": 58.26150000002235,
      "v": 96
    },
    {
      "midi": 44,
      "hit": false,
      "t": 151268.03999999992,
      "d": 123.14362499999697,
      "v": 127
    },
    {
      "midi": 77,
      "hit": false,
      "t": 151493.14125000016,
      "d": 948.0734999999986,
      "v": 96
    },
    {
      "midi": 44,
      "hit": false,
      "t": 151522.2719999999,
      "d": 603.8010000000068,
      "v": 127
    },
    {
      "midi": 56,
      "hit": false,
      "t": 151522.27200000008,
      "d": 282.0386249999865,
      "v": 127
    },
    {
      "midi": 63,
      "hit": false,
      "t": 151768.55925000008,
      "d": 76.79925000001094,
      "v": 74
    },
    {
      "midi": 68,
      "hit": false,
      "t": 151776.50400000007,
      "d": 64.88212500000373,
      "v": 100
    },
    {
      "midi": 72,
      "hit": false,
      "t": 151787.09700000007,
      "d": 58.26150000002235,
      "v": 96
    },
    {
      "midi": 56,
      "hit": false,
      "t": 151903.62000000008,
      "d": 233.0460000000021,
      "v": 127
    },
    {
      "midi": 63,
      "hit": false,
      "t": 152277.0232500001,
      "d": 76.79925000001094,
      "v": 74
    },
    {
      "midi": 39,
      "hit": false,
      "t": 152284.9679999999,
      "d": 275.417999999976,
      "v": 121
    },
    {
      "midi": 68,
      "hit": false,
      "t": 152284.96800000008,
      "d": 64.88212500000373,
      "v": 100
    },
    {
      "midi": 56,
      "hit": false,
      "t": 152284.96800000008,
      "d": 166.83975000001374,
      "v": 127
    },
    {
      "midi": 72,
      "hit": false,
      "t": 152295.56100000007,
      "d": 58.26150000002235,
      "v": 96
    },
    {
      "midi": 63,
      "hit": false,
      "t": 152510.06925,
      "d": 3898.2239999999874,
      "v": 83
    },
    {
      "midi": 68,
      "hit": false,
      "t": 152521.986375,
      "d": 3894.2516249999753,
      "v": 83
    },
    {
      "midi": 59,
      "hit": false,
      "t": 152532.579375,
      "d": 4076.9808749999793,
      "v": 91
    },
    {
      "midi": 71,
      "hit": false,
      "t": 152535.227625,
      "d": 3912.789374999993,
      "v": 83
    },
    {
      "midi": 44,
      "hit": false,
      "t": 152539.1999999999,
      "d": 594.5321249999979,
      "v": 127
    },
    {
      "midi": 58,
      "hit": false,
      "t": 152539.2000000001,
      "d": 732.2411250000005,
      "v": 127
    },
    {
      "midi": 59,
      "hit": false,
      "t": 152539.20000000016,
      "d": 4067.711999999854,
      "v": 86
    },
    {
      "midi": 63,
      "hit": false,
      "t": 152539.20000000016,
      "d": 4067.711999999854,
      "v": 86
    },
    {
      "midi": 68,
      "hit": false,
      "t": 152539.20000000016,
      "d": 4067.711999999854,
      "v": 86
    },
    {
      "midi": 82,
      "hit": false,
      "t": 152544.49650000015,
      "d": 918.9427499999874,
      "v": 96
    },
    {
      "midi": 63,
      "hit": false,
      "t": 153039.7192500001,
      "d": 76.79925000001094,
      "v": 74
    },
    {
      "midi": 68,
      "hit": false,
      "t": 153047.6640000001,
      "d": 64.88212500000373,
      "v": 100
    },
    {
      "midi": 71,
      "hit": false,
      "t": 153058.2570000001,
      "d": 58.26150000002235,
      "v": 96
    },
    {
      "midi": 44,
      "hit": false,
      "t": 153301.8959999999,
      "d": 105.92999999999302,
      "v": 127
    },
    {
      "midi": 56,
      "hit": false,
      "t": 153301.8960000001,
      "d": 99.30937500001164,
      "v": 112
    },
    {
      "midi": 58,
      "hit": false,
      "t": 153429.0120000001,
      "d": 123.14362499999697,
      "v": 112
    },
    {
      "midi": 83,
      "hit": false,
      "t": 153507.13537500013,
      "d": 1050.0311249999795,
      "v": 96
    },
    {
      "midi": 44,
      "hit": false,
      "t": 153556.12799999988,
      "d": 602.476874999993,
      "v": 127
    },
    {
      "midi": 56,
      "hit": false,
      "t": 153556.1280000001,
      "d": 1889.5263749999867,
      "v": 127
    },
    {
      "midi": 63,
      "hit": false,
      "t": 153802.41525000014,
      "d": 76.79925000001094,
      "v": 74
    },
    {
      "midi": 68,
      "hit": false,
      "t": 153810.36000000013,
      "d": 64.88212500000373,
      "v": 100
    },
    {
      "midi": 71,
      "hit": false,
      "t": 153820.95300000013,
      "d": 58.26150000002235,
      "v": 96
    },
    {
      "midi": 63,
      "hit": false,
      "t": 154310.87925000014,
      "d": 76.79925000001094,
      "v": 74
    },
    {
      "midi": 44,
      "hit": false,
      "t": 154318.82399999988,
      "d": 121.81950000001234,
      "v": 127
    },
    {
      "midi": 68,
      "hit": false,
      "t": 154318.82400000014,
      "d": 64.88212500000373,
      "v": 100
    },
    {
      "midi": 71,
      "hit": false,
      "t": 154329.41700000013,
      "d": 58.26150000002235,
      "v": 96
    },
    {
      "midi": 91,
      "hit": false,
      "t": 154554.5182500001,
      "d": 1577.032874999888,
      "v": 96
    },
    {
      "midi": 44,
      "hit": false,
      "t": 154573.0559999999,
      "d": 626.3111250000075,
      "v": 127
    },
    {
      "midi": 63,
      "hit": false,
      "t": 155073.57525000017,
      "d": 76.79925000001094,
      "v": 74
    },
    {
      "midi": 68,
      "hit": false,
      "t": 155081.52000000016,
      "d": 64.88212500000373,
      "v": 100
    },
    {
      "midi": 71,
      "hit": false,
      "t": 155092.11300000016,
      "d": 58.26150000002235,
      "v": 96
    },
    {
      "midi": 44,
      "hit": false,
      "t": 155335.7519999999,
      "d": 123.14362499999697,
      "v": 127
    },
    {
      "midi": 44,
      "hit": false,
      "t": 155589.98399999988,
      "d": 603.8010000000068,
      "v": 127
    },
    {
      "midi": 56,
      "hit": false,
      "t": 155589.9840000001,
      "d": 272.76975000000675,
      "v": 127
    },
    {
      "midi": 63,
      "hit": false,
      "t": 155836.2712500002,
      "d": 76.79925000001094,
      "v": 74
    },
    {
      "midi": 68,
      "hit": false,
      "t": 155844.2160000002,
      "d": 64.88212500000373,
      "v": 100
    },
    {
      "midi": 71,
      "hit": false,
      "t": 155854.80900000018,
      "d": 58.26150000002235,
      "v": 96
    },
    {
      "midi": 56,
      "hit": false,
      "t": 155971.3320000001,
      "d": 195.9704999999958,
      "v": 127
    },
    {
      "midi": 89,
      "hit": false,
      "t": 156093.1515,
      "d": 243.63899999999558,
      "v": 96
    },
    {
      "midi": 87,
      "hit": false,
      "t": 156340.76287500001,
      "d": 227.74950000000536,
      "v": 96
    },
    {
      "midi": 63,
      "hit": false,
      "t": 156344.7352500002,
      "d": 76.79925000001094,
      "v": 74
    },
    {
      "midi": 44,
      "hit": false,
      "t": 156352.67999999988,
      "d": 275.417999999976,
      "v": 121
    },
    {
      "midi": 56,
      "hit": false,
      "t": 156352.6800000001,
      "d": 146.9778750000114,
      "v": 112
    },
    {
      "midi": 68,
      "hit": false,
      "t": 156352.6800000002,
      "d": 64.88212500000373,
      "v": 100
    },
    {
      "midi": 71,
      "hit": false,
      "t": 156363.2730000002,
      "d": 58.26150000002235,
      "v": 96
    },
    {
      "midi": 58,
      "hit": false,
      "t": 156588.37425,
      "d": 4035.93299999999,
      "v": 91
    },
    {
      "midi": 82,
      "hit": false,
      "t": 156598.96725000002,
      "d": 4131.2699999999895,
      "v": 96
    },
    {
      "midi": 39,
      "hit": false,
      "t": 156606.91199999987,
      "d": 622.3387499999953,
      "v": 121
    },
    {
      "midi": 58,
      "hit": false,
      "t": 156606.912,
      "d": 4067.7119999999995,
      "v": 86
    },
    {
      "midi": 63,
      "hit": false,
      "t": 156606.912,
      "d": 4067.7119999999995,
      "v": 86
    },
    {
      "midi": 67,
      "hit": false,
      "t": 156606.912,
      "d": 4067.7119999999995,
      "v": 86
    },
    {
      "midi": 56,
      "hit": false,
      "t": 156606.91200000013,
      "d": 782.5578749999986,
      "v": 112
    },
    {
      "midi": 63,
      "hit": false,
      "t": 156614.85675,
      "d": 3828.045374999987,
      "v": 83
    },
    {
      "midi": 67,
      "hit": false,
      "t": 156637.366875,
      "d": 3810.831749999983,
      "v": 83
    },
    {
      "midi": 70,
      "hit": false,
      "t": 156645.311625,
      "d": 3847.9072499999893,
      "v": 83
    },
    {
      "midi": 63,
      "hit": false,
      "t": 157107.43125000023,
      "d": 76.79925000001094,
      "v": 74
    },
    {
      "midi": 67,
      "hit": false,
      "t": 157115.37600000022,
      "d": 64.88212500000373,
      "v": 100
    },
    {
      "midi": 70,
      "hit": false,
      "t": 157125.96900000022,
      "d": 58.26150000002235,
      "v": 96
    },
    {
      "midi": 39,
      "hit": false,
      "t": 157369.60799999986,
      "d": 86.06812499999069,
      "v": 121
    },
    {
      "midi": 55,
      "hit": false,
      "t": 157369.60800000012,
      "d": 104.60587500000838,
      "v": 127
    },
    {
      "midi": 53,
      "hit": false,
      "t": 157496.72400000013,
      "d": 154.92262500000652,
      "v": 112
    },
    {
      "midi": 39,
      "hit": false,
      "t": 157623.83999999985,
      "d": 613.0698749999865,
      "v": 121
    },
    {
      "midi": 56,
      "hit": false,
      "t": 157623.84000000014,
      "d": 278.0662500000035,
      "v": 127
    },
    {
      "midi": 63,
      "hit": false,
      "t": 157870.12725000025,
      "d": 76.79925000001094,
      "v": 74
    },
    {
      "midi": 55,
      "hit": false,
      "t": 157878.07200000013,
      "d": 1655.15625,
      "v": 127
    },
    {
      "midi": 67,
      "hit": false,
      "t": 157878.07200000025,
      "d": 64.88212500000373,
      "v": 100
    },
    {
      "midi": 70,
      "hit": false,
      "t": 157888.66500000024,
      "d": 58.26150000002235,
      "v": 96
    },
    {
      "midi": 63,
      "hit": false,
      "t": 158378.59125000026,
      "d": 76.79925000001094,
      "v": 74
    },
    {
      "midi": 39,
      "hit": false,
      "t": 158386.53599999985,
      "d": 113.87474999998813,
      "v": 121
    },
    {
      "midi": 67,
      "hit": false,
      "t": 158386.53600000025,
      "d": 64.88212500000373,
      "v": 100
    },
    {
      "midi": 70,
      "hit": false,
      "t": 158397.12900000025,
      "d": 58.26150000002235,
      "v": 96
    },
    {
      "midi": 39,
      "hit": false,
      "t": 158640.76799999984,
      "d": 589.2356250000012,
      "v": 121
    },
    {
      "midi": 63,
      "hit": false,
      "t": 159141.28725000028,
      "d": 76.79925000001094,
      "v": 74
    },
    {
      "midi": 67,
      "hit": false,
      "t": 159149.23200000028,
      "d": 64.88212500000373,
      "v": 100
    },
    {
      "midi": 70,
      "hit": false,
      "t": 159159.82500000027,
      "d": 58.26150000002235,
      "v": 96
    },
    {
      "midi": 39,
      "hit": false,
      "t": 159403.46399999983,
      "d": 101.95762500001001,
      "v": 121
    },
    {
      "midi": 39,
      "hit": false,
      "t": 159657.69599999985,
      "d": 538.918875000003,
      "v": 121
    },
    {
      "midi": 55,
      "hit": false,
      "t": 159657.69600000014,
      "d": 289.9833750000107,
      "v": 127
    },
    {
      "midi": 63,
      "hit": false,
      "t": 159903.9832500003,
      "d": 76.79925000001094,
      "v": 74
    },
    {
      "midi": 67,
      "hit": false,
      "t": 159911.9280000003,
      "d": 64.88212500000373,
      "v": 100
    },
    {
      "midi": 70,
      "hit": false,
      "t": 159922.5210000003,
      "d": 58.26150000002235,
      "v": 96
    },
    {
      "midi": 55,
      "hit": false,
      "t": 160039.04400000014,
      "d": 264.82500000001164,
      "v": 127
    },
    {
      "midi": 63,
      "hit": false,
      "t": 160412.44725000032,
      "d": 76.79925000001094,
      "v": 74
    },
    {
      "midi": 46,
      "hit": false,
      "t": 160420.39199999985,
      "d": 254.23199999998906,
      "v": 127
    },
    {
      "midi": 55,
      "hit": false,
      "t": 160420.39200000014,
      "d": 140.35725000000093,
      "v": 127
    },
    {
      "midi": 67,
      "hit": false,
      "t": 160420.3920000003,
      "d": 64.88212500000373,
      "v": 100
    },
    {
      "midi": 70,
      "hit": false,
      "t": 160430.9850000003,
      "d": 58.26150000002235,
      "v": 96
    },
    {
      "midi": 57,
      "hit": false,
      "t": 160636.224375,
      "d": 2074.903875000018,
      "v": 91
    },
    {
      "midi": 81,
      "hit": false,
      "t": 160637.5485,
      "d": 2045.773125000007,
      "v": 72
    },
    {
      "midi": 65,
      "hit": false,
      "t": 160668.003375,
      "d": 1937.1948749999865,
      "v": 83
    },
    {
      "midi": 39,
      "hit": false,
      "t": 160674.62399999984,
      "d": 622.3387499999953,
      "v": 121
    },
    {
      "midi": 60,
      "hit": false,
      "t": 160674.624,
      "d": 2033.8559999999998,
      "v": 86
    },
    {
      "midi": 65,
      "hit": false,
      "t": 160674.624,
      "d": 2033.8559999999998,
      "v": 86
    },
    {
      "midi": 69,
      "hit": false,
      "t": 160674.624,
      "d": 2033.8559999999998,
      "v": 86
    },
    {
      "midi": 55,
      "hit": false,
      "t": 160674.62400000013,
      "d": 701.7862500000047,
      "v": 127
    },
    {
      "midi": 69,
      "hit": false,
      "t": 160675.948125,
      "d": 1897.4711249999818,
      "v": 83
    },
    {
      "midi": 72,
      "hit": false,
      "t": 160683.892875,
      "d": 1933.2225000000035,
      "v": 83
    },
    {
      "midi": 51,
      "hit": false,
      "t": 160701.10649999953,
      "d": 1919.9812500000116,
      "v": 127
    },
    {
      "midi": 60,
      "hit": false,
      "t": 160701.10649999953,
      "d": 1919.9812500000116,
      "v": 127
    },
    {
      "midi": 65,
      "hit": false,
      "t": 160701.10649999953,
      "d": 1919.9812500000116,
      "v": 127
    },
    {
      "midi": 69,
      "hit": false,
      "t": 160701.10649999953,
      "d": 1919.9812500000116,
      "v": 127
    },
    {
      "midi": 65,
      "hit": false,
      "t": 161175.14325000034,
      "d": 76.79925000001094,
      "v": 74
    },
    {
      "midi": 69,
      "hit": false,
      "t": 161183.08800000034,
      "d": 64.88212500000373,
      "v": 100
    },
    {
      "midi": 72,
      "hit": false,
      "t": 161193.68100000033,
      "d": 58.26150000002235,
      "v": 96
    },
    {
      "midi": 39,
      "hit": false,
      "t": 161437.31999999983,
      "d": 86.06812499999069,
      "v": 121
    },
    {
      "midi": 53,
      "hit": false,
      "t": 161437.32000000012,
      "d": 109.90237500000512,
      "v": 92
    },
    {
      "midi": 55,
      "hit": false,
      "t": 161564.43600000013,
      "d": 132.41250000000582,
      "v": 127
    },
    {
      "midi": 39,
      "hit": false,
      "t": 161691.55199999982,
      "d": 613.0698749999865,
      "v": 121
    },
    {
      "midi": 53,
      "hit": false,
      "t": 161691.55200000014,
      "d": 1863.043875000003,
      "v": 112
    },
    {
      "midi": 65,
      "hit": false,
      "t": 161937.83925000037,
      "d": 76.79925000001094,
      "v": 74
    },
    {
      "midi": 69,
      "hit": false,
      "t": 161945.78400000036,
      "d": 64.88212500000373,
      "v": 100
    },
    {
      "midi": 72,
      "hit": false,
      "t": 161956.37700000036,
      "d": 58.26150000002235,
      "v": 96
    },
    {
      "midi": 65,
      "hit": false,
      "t": 162446.30325000038,
      "d": 76.79925000001094,
      "v": 74
    },
    {
      "midi": 39,
      "hit": false,
      "t": 162454.24799999982,
      "d": 113.87474999998813,
      "v": 121
    },
    {
      "midi": 69,
      "hit": false,
      "t": 162454.24800000037,
      "d": 64.88212500000373,
      "v": 100
    },
    {
      "midi": 72,
      "hit": false,
      "t": 162464.84100000036,
      "d": 58.26150000002235,
      "v": 96
    },
    {
      "midi": 80,
      "hit": false,
      "t": 162671.4045,
      "d": 2012.6700000000128,
      "v": 75
    },
    {
      "midi": 56,
      "hit": false,
      "t": 162674.05275,
      "d": 2051.0696250000037,
      "v": 91
    },
    {
      "midi": 63,
      "hit": false,
      "t": 162688.618125,
      "d": 1922.629499999981,
      "v": 83
    },
    {
      "midi": 68,
      "hit": false,
      "t": 162696.562875,
      "d": 1917.3329999999842,
      "v": 83
    },
    {
      "midi": 51,
      "hit": false,
      "t": 162703.18349999955,
      "d": 1832.5890000000363,
      "v": 127
    },
    {
      "midi": 59,
      "hit": false,
      "t": 162703.18349999955,
      "d": 1832.5890000000363,
      "v": 127
    },
    {
      "midi": 63,
      "hit": false,
      "t": 162704.50762499956,
      "d": 1831.2648750000226,
      "v": 127
    },
    {
      "midi": 68,
      "hit": false,
      "t": 162705.83174999958,
      "d": 1829.9407500000088,
      "v": 127
    },
    {
      "midi": 39,
      "hit": false,
      "t": 162708.4799999998,
      "d": 589.2356250000012,
      "v": 121
    },
    {
      "midi": 59,
      "hit": false,
      "t": 162708.48,
      "d": 2033.8559999999998,
      "v": 89
    },
    {
      "midi": 63,
      "hit": false,
      "t": 162708.48,
      "d": 2033.8559999999998,
      "v": 89
    },
    {
      "midi": 68,
      "hit": false,
      "t": 162708.48,
      "d": 2033.8559999999998,
      "v": 89
    },
    {
      "midi": 71,
      "hit": false,
      "t": 162744.231375,
      "d": 1873.6368749999965,
      "v": 83
    },
    {
      "midi": 63,
      "hit": false,
      "t": 163208.9992500004,
      "d": 76.79925000001094,
      "v": 74
    },
    {
      "midi": 68,
      "hit": false,
      "t": 163216.9440000004,
      "d": 64.88212500000373,
      "v": 100
    },
    {
      "midi": 71,
      "hit": false,
      "t": 163227.5370000004,
      "d": 58.26150000002235,
      "v": 96
    },
    {
      "midi": 39,
      "hit": false,
      "t": 163471.1759999998,
      "d": 101.95762500001001,
      "v": 121
    },
    {
      "midi": 39,
      "hit": false,
      "t": 163725.40799999982,
      "d": 538.918875000003,
      "v": 121
    },
    {
      "midi": 53,
      "hit": false,
      "t": 163725.40800000014,
      "d": 774.6131250000035,
      "v": 120
    },
    {
      "midi": 63,
      "hit": false,
      "t": 163971.69525000043,
      "d": 76.79925000001094,
      "v": 74
    },
    {
      "midi": 68,
      "hit": false,
      "t": 163979.64000000042,
      "d": 64.88212500000373,
      "v": 100
    },
    {
      "midi": 71,
      "hit": false,
      "t": 163990.23300000041,
      "d": 58.26150000002235,
      "v": 96
    },
    {
      "midi": 63,
      "hit": false,
      "t": 164480.15925000043,
      "d": 76.79925000001094,
      "v": 74
    },
    {
      "midi": 46,
      "hit": false,
      "t": 164488.10399999982,
      "d": 254.23199999998906,
      "v": 127
    },
    {
      "midi": 51,
      "hit": false,
      "t": 164488.10400000014,
      "d": 105.92999999999302,
      "v": 127
    },
    {
      "midi": 68,
      "hit": false,
      "t": 164488.10400000043,
      "d": 64.88212500000373,
      "v": 100
    },
    {
      "midi": 71,
      "hit": false,
      "t": 164498.69700000042,
      "d": 58.26150000002235,
      "v": 96
    },
    {
      "midi": 50,
      "hit": false,
      "t": 164615.22000000012,
      "d": 143.0054999999993,
      "v": 112
    },
    {
      "midi": 55,
      "hit": false,
      "t": 164697.31575,
      "d": 3679.743374999991,
      "v": 91
    },
    {
      "midi": 79,
      "hit": false,
      "t": 164698.63987500002,
      "d": 3968.402624999988,
      "v": 76
    },
    {
      "midi": 58,
      "hit": false,
      "t": 164710.5569999996,
      "d": 3964.430250000034,
      "v": 127
    },
    {
      "midi": 63,
      "hit": false,
      "t": 164711.8811249996,
      "d": 3960.457875000022,
      "v": 127
    },
    {
      "midi": 67,
      "hit": false,
      "t": 164715.85349999962,
      "d": 3948.5407500000147,
      "v": 127
    },
    {
      "midi": 51,
      "hit": false,
      "t": 164717.17762499963,
      "d": 3969.7267500000016,
      "v": 127
    },
    {
      "midi": 63,
      "hit": false,
      "t": 164741.011875,
      "d": 3914.1135000000068,
      "v": 83
    },
    {
      "midi": 39,
      "hit": false,
      "t": 164742.3359999998,
      "d": 622.3387499999953,
      "v": 121
    },
    {
      "midi": 63,
      "hit": false,
      "t": 164742.336,
      "d": 4025.3399999999965,
      "v": 99
    },
    {
      "midi": 67,
      "hit": false,
      "t": 164742.336,
      "d": 4025.3399999999965,
      "v": 99
    },
    {
      "midi": 58,
      "hit": false,
      "t": 164742.336,
      "d": 4035.93299999999,
      "v": 99
    },
    {
      "midi": 53,
      "hit": false,
      "t": 164742.33600000013,
      "d": 760.0477499999979,
      "v": 120
    },
    {
      "midi": 67,
      "hit": false,
      "t": 164744.98425,
      "d": 3896.899875000003,
      "v": 83
    },
    {
      "midi": 70,
      "hit": false,
      "t": 164750.28075,
      "d": 3887.630999999994,
      "v": 83
    },
    {
      "midi": 63,
      "hit": false,
      "t": 165242.85525000046,
      "d": 76.79925000001094,
      "v": 74
    },
    {
      "midi": 67,
      "hit": false,
      "t": 165250.80000000045,
      "d": 64.88212500000373,
      "v": 100
    },
    {
      "midi": 70,
      "hit": false,
      "t": 165261.39300000045,
      "d": 58.26150000002235,
      "v": 96
    },
    {
      "midi": 39,
      "hit": false,
      "t": 165505.0319999998,
      "d": 86.06812499999069,
      "v": 121
    },
    {
      "midi": 51,
      "hit": false,
      "t": 165505.03200000012,
      "d": 90.0405000000028,
      "v": 127
    },
    {
      "midi": 53,
      "hit": false,
      "t": 165632.14800000013,
      "d": 132.41250000000582,
      "v": 100
    },
    {
      "midi": 39,
      "hit": false,
      "t": 165759.2639999998,
      "d": 613.0698749999865,
      "v": 121
    },
    {
      "midi": 51,
      "hit": false,
      "t": 165759.26400000014,
      "d": 1881.5816249999916,
      "v": 127
    },
    {
      "midi": 63,
      "hit": false,
      "t": 166005.55125000048,
      "d": 76.79925000001094,
      "v": 74
    },
    {
      "midi": 67,
      "hit": false,
      "t": 166013.49600000048,
      "d": 64.88212500000373,
      "v": 100
    },
    {
      "midi": 70,
      "hit": false,
      "t": 166024.08900000047,
      "d": 58.26150000002235,
      "v": 96
    },
    {
      "midi": 63,
      "hit": false,
      "t": 166514.0152500005,
      "d": 76.79925000001094,
      "v": 74
    },
    {
      "midi": 39,
      "hit": false,
      "t": 166521.9599999998,
      "d": 113.87474999998813,
      "v": 121
    },
    {
      "midi": 67,
      "hit": false,
      "t": 166521.9600000005,
      "d": 64.88212500000373,
      "v": 100
    },
    {
      "midi": 70,
      "hit": false,
      "t": 166532.55300000048,
      "d": 58.26150000002235,
      "v": 96
    },
    {
      "midi": 39,
      "hit": false,
      "t": 166704.68924999965,
      "d": 1970.2979999999807,
      "v": 127
    },
    {
      "midi": 39,
      "hit": false,
      "t": 166776.19199999978,
      "d": 589.2356250000012,
      "v": 121
    },
    {
      "midi": 63,
      "hit": false,
      "t": 167276.71125000052,
      "d": 76.79925000001094,
      "v": 74
    },
    {
      "midi": 67,
      "hit": false,
      "t": 167284.6560000005,
      "d": 64.88212500000373,
      "v": 100
    },
    {
      "midi": 70,
      "hit": false,
      "t": 167295.2490000005,
      "d": 58.26150000002235,
      "v": 96
    },
    {
      "midi": 39,
      "hit": false,
      "t": 167538.88799999977,
      "d": 254.23199999998906,
      "v": 121
    },
    {
      "midi": 39,
      "hit": false,
      "t": 167793.11999999976,
      "d": 254.23199999998906,
      "v": 122
    },
    {
      "midi": 63,
      "hit": false,
      "t": 168039.40725000054,
      "d": 76.79925000001094,
      "v": 74
    },
    {
      "midi": 39,
      "hit": false,
      "t": 168047.35199999975,
      "d": 254.23199999998906,
      "v": 101
    },
    {
      "midi": 67,
      "hit": false,
      "t": 168047.35200000054,
      "d": 64.88212500000373,
      "v": 100
    },
    {
      "midi": 70,
      "hit": false,
      "t": 168057.94500000053,
      "d": 58.26150000002235,
      "v": 96
    },
    {
      "midi": 39,
      "hit": false,
      "t": 168301.58399999974,
      "d": 254.23199999998906,
      "v": 122
    },
    {
      "midi": 63,
      "hit": false,
      "t": 168547.87125000055,
      "d": 76.79925000001094,
      "v": 74
    },
    {
      "midi": 39,
      "hit": false,
      "t": 168555.81599999973,
      "d": 254.23199999998906,
      "v": 127
    },
    {
      "midi": 67,
      "hit": false,
      "t": 168555.81600000054,
      "d": 64.88212500000373,
      "v": 100
    },
    {
      "midi": 70,
      "hit": false,
      "t": 168566.40900000054,
      "d": 58.26150000002235,
      "v": 96
    },
    {
      "midi": 59,
      "hit": false,
      "t": 168810.04799999963,
      "d": 508.4640000000363,
      "v": 127
    },
    {
      "midi": 41,
      "hit": false,
      "t": 168810.04799999972,
      "d": 601.1527500000084,
      "v": 127
    },
    {
      "midi": 53,
      "hit": false,
      "t": 168810.04799999995,
      "d": 319.1141249999928,
      "v": 97
    },
    {
      "midi": 41,
      "hit": false,
      "t": 168810.04799999995,
      "d": 411.80287499999395,
      "v": 127
    },
    {
      "midi": 95,
      "hit": false,
      "t": 168810.048,
      "d": 349.5689999999886,
      "v": 32
    },
    {
      "midi": 71,
      "hit": false,
      "t": 168811.37212499965,
      "d": 466.0920000000042,
      "v": 127
    },
    {
      "midi": 55,
      "hit": false,
      "t": 168820.64099999965,
      "d": 466.0920000000042,
      "v": 123
    },
    {
      "midi": 71,
      "hit": false,
      "t": 168820.64099999977,
      "d": 413.1270000000077,
      "v": 127
    },
    {
      "midi": 83,
      "hit": false,
      "t": 168831.234,
      "d": 338.9759999999951,
      "v": 101
    },
    {
      "midi": 53,
      "hit": false,
      "t": 169286.73299999995,
      "d": 88.71637500001816,
      "v": 97
    },
    {
      "midi": 96,
      "hit": false,
      "t": 169286.73299999998,
      "d": 80.77162500002305,
      "v": 90
    },
    {
      "midi": 84,
      "hit": false,
      "t": 169290.705375,
      "d": 88.71637500001816,
      "v": 94
    },
    {
      "midi": 41,
      "hit": false,
      "t": 169293.35362499996,
      "d": 94.0128750000149,
      "v": 127
    },
    {
      "midi": 72,
      "hit": false,
      "t": 169294.67774999977,
      "d": 74.15100000001257,
      "v": 127
    },
    {
      "midi": 72,
      "hit": false,
      "t": 169315.86374999967,
      "d": 143.0054999999702,
      "v": 127
    },
    {
      "midi": 60,
      "hit": false,
      "t": 169318.51199999967,
      "d": 156.24674999996205,
      "v": 127
    },
    {
      "midi": 56,
      "hit": false,
      "t": 169339.69799999965,
      "d": 105.92999999999302,
      "v": 105
    },
    {
      "midi": 41,
      "hit": false,
      "t": 169572.74399999972,
      "d": 143.0054999999993,
      "v": 127
    },
    {
      "midi": 55,
      "hit": false,
      "t": 169747.52849999964,
      "d": 549.5118750000256,
      "v": 127
    },
    {
      "midi": 53,
      "hit": false,
      "t": 169784.60399999996,
      "d": 319.1141249999928,
      "v": 97
    },
    {
      "midi": 41,
      "hit": false,
      "t": 169784.60399999996,
      "d": 411.80287499999395,
      "v": 127
    },
    {
      "midi": 71,
      "hit": false,
      "t": 169796.52112499965,
      "d": 470.0643750000163,
      "v": 127
    },
    {
      "midi": 59,
      "hit": false,
      "t": 169800.49349999966,
      "d": 466.0920000000042,
      "v": 127
    },
    {
      "midi": 71,
      "hit": false,
      "t": 169812.4106249998,
      "d": 508.4639999999781,
      "v": 100
    },
    {
      "midi": 41,
      "hit": false,
      "t": 169826.9759999997,
      "d": 593.2080000000133,
      "v": 127
    },
    {
      "midi": 83,
      "hit": false,
      "t": 169828.300125,
      "d": 377.37562500001513,
      "v": 87
    },
    {
      "midi": 95,
      "hit": false,
      "t": 169832.27250000002,
      "d": 361.4861249999958,
      "v": 87
    },
    {
      "midi": 56,
      "hit": false,
      "t": 170274.53024999966,
      "d": 72.82687499999884,
      "v": 127
    },
    {
      "midi": 96,
      "hit": false,
      "t": 170275.85437500002,
      "d": 84.74400000000605,
      "v": 83
    },
    {
      "midi": 53,
      "hit": false,
      "t": 170278.50262499996,
      "d": 97.98525000002701,
      "v": 92
    },
    {
      "midi": 84,
      "hit": false,
      "t": 170290.41975000003,
      "d": 92.68875000000116,
      "v": 94
    },
    {
      "midi": 41,
      "hit": false,
      "t": 170302.33687499998,
      "d": 95.33699999999953,
      "v": 127
    },
    {
      "midi": 72,
      "hit": false,
      "t": 170307.63337499977,
      "d": 80.77162499999395,
      "v": 127
    },
    {
      "midi": 72,
      "hit": false,
      "t": 170319.55049999966,
      "d": 153.59849999999278,
      "v": 127
    },
    {
      "midi": 60,
      "hit": false,
      "t": 170324.84699999966,
      "d": 168.16387499999837,
      "v": 127
    },
    {
      "midi": 41,
      "hit": false,
      "t": 170589.67199999973,
      "d": 223.77712499999325,
      "v": 127
    },
    {
      "midi": 95,
      "hit": false,
      "t": 170780.34600000002,
      "d": 442.25775000001886,
      "v": 81
    },
    {
      "midi": 55,
      "hit": false,
      "t": 170789.61487499965,
      "d": 548.1877499999828,
      "v": 127
    },
    {
      "midi": 53,
      "hit": false,
      "t": 170797.55962499997,
      "d": 376.0515000000014,
      "v": 100
    },
    {
      "midi": 34,
      "hit": false,
      "t": 170797.55962499997,
      "d": 394.58924999999,
      "v": 127
    },
    {
      "midi": 83,
      "hit": false,
      "t": 170806.82850000003,
      "d": 407.83050000001094,
      "v": 92
    },
    {
      "midi": 71,
      "hit": false,
      "t": 170821.39387499966,
      "d": 446.23012499997276,
      "v": 127
    },
    {
      "midi": 59,
      "hit": false,
      "t": 170826.69037499966,
      "d": 422.3958749999874,
      "v": 127
    },
    {
      "midi": 71,
      "hit": false,
      "t": 170828.01449999976,
      "d": 501.84337499999674,
      "v": 100
    },
    {
      "midi": 34,
      "hit": false,
      "t": 170843.90399999972,
      "d": 538.918875000003,
      "v": 127
    },
    {
      "midi": 96,
      "hit": false,
      "t": 171298.07887500004,
      "d": 88.71637499998906,
      "v": 90
    },
    {
      "midi": 84,
      "hit": false,
      "t": 171298.07887500004,
      "d": 94.0128749999858,
      "v": 87
    },
    {
      "midi": 53,
      "hit": false,
      "t": 171304.69949999996,
      "d": 95.33700000002864,
      "v": 81
    },
    {
      "midi": 72,
      "hit": false,
      "t": 171306.02362499962,
      "d": 90.0405000000028,
      "v": 120
    },
    {
      "midi": 56,
      "hit": false,
      "t": 171306.02362499962,
      "d": 112.55062500000349,
      "v": 112
    },
    {
      "midi": 60,
      "hit": false,
      "t": 171320.58899999963,
      "d": 104.60587500000838,
      "v": 127
    },
    {
      "midi": 34,
      "hit": false,
      "t": 171328.53374999997,
      "d": 56.937375000008615,
      "v": 112
    },
    {
      "midi": 72,
      "hit": false,
      "t": 171340.45087499975,
      "d": 68.85449999998673,
      "v": 90
    },
    {
      "midi": 87,
      "hit": false,
      "t": 171569.52450000003,
      "d": 74.15100000001257,
      "v": 93
    },
    {
      "midi": 74,
      "hit": false,
      "t": 171572.17274999974,
      "d": 64.88212500000373,
      "v": 92
    },
    {
      "midi": 60,
      "hit": false,
      "t": 171578.79337499963,
      "d": 146.9778750000114,
      "v": 127
    },
    {
      "midi": 99,
      "hit": false,
      "t": 171578.79337500004,
      "d": 83.41987499999232,
      "v": 86
    },
    {
      "midi": 34,
      "hit": false,
      "t": 171584.08987499998,
      "d": 150.9502499999944,
      "v": 127
    },
    {
      "midi": 74,
      "hit": false,
      "t": 171588.06224999964,
      "d": 63.55799999998999,
      "v": 112
    },
    {
      "midi": 75,
      "hit": false,
      "t": 171596.00699999975,
      "d": 103.28174999999464,
      "v": 127
    },
    {
      "midi": 63,
      "hit": false,
      "t": 171602.62762499964,
      "d": 162.86737500000163,
      "v": 127
    },
    {
      "midi": 34,
      "hit": false,
      "t": 171606.59999999971,
      "d": 124.46775000001071,
      "v": 127
    },
    {
      "midi": 58,
      "hit": false,
      "t": 171606.59999999998,
      "d": 92.68875000000116,
      "v": 100
    },
    {
      "midi": 75,
      "hit": false,
      "t": 171610.57237499964,
      "d": 172.13625000001048,
      "v": 127
    },
    {
      "midi": 62,
      "hit": false,
      "t": 171611.89649999965,
      "d": 18.53774999998859,
      "v": 100
    },
    {
      "midi": 34,
      "hit": false,
      "t": 171860.83199999973,
      "d": 572.0219999999972,
      "v": 127
    },
    {
      "midi": 53,
      "hit": false,
      "t": 172063.42312499997,
      "d": 127.11600000000908,
      "v": 97
    },
    {
      "midi": 34,
      "hit": false,
      "t": 172075.34024999998,
      "d": 139.0331250000163,
      "v": 127
    },
    {
      "midi": 56,
      "hit": false,
      "t": 172079.31262499964,
      "d": 125.79187499999534,
      "v": 127
    },
    {
      "midi": 98,
      "hit": false,
      "t": 172085.93325000003,
      "d": 100.63349999999627,
      "v": 87
    },
    {
      "midi": 86,
      "hit": false,
      "t": 172088.58150000003,
      "d": 97.9852499999979,
      "v": 97
    },
    {
      "midi": 74,
      "hit": false,
      "t": 172097.85037499975,
      "d": 108.57824999999139,
      "v": 127
    },
    {
      "midi": 62,
      "hit": false,
      "t": 172100.49862499963,
      "d": 141.68137500001467,
      "v": 127
    },
    {
      "midi": 74,
      "hit": false,
      "t": 172100.49862499963,
      "d": 172.13625000001048,
      "v": 127
    },
    {
      "midi": 72,
      "hit": false,
      "t": 172554.67349999974,
      "d": 356.18962499996996,
      "v": 100
    },
    {
      "midi": 96,
      "hit": false,
      "t": 172586.4525,
      "d": 239.66662500001257,
      "v": 81
    },
    {
      "midi": 84,
      "hit": false,
      "t": 172594.39725,
      "d": 225.10125000000698,
      "v": 92
    },
    {
      "midi": 34,
      "hit": false,
      "t": 172594.39725,
      "d": 205.23937499997555,
      "v": 127
    },
    {
      "midi": 60,
      "hit": false,
      "t": 172595.72137499964,
      "d": 271.4456250000221,
      "v": 127
    },
    {
      "midi": 72,
      "hit": false,
      "t": 172598.36962499964,
      "d": 268.79737500002375,
      "v": 127
    },
    {
      "midi": 56,
      "hit": false,
      "t": 172602.34199999965,
      "d": 111.22649999998976,
      "v": 127
    },
    {
      "midi": 53,
      "hit": false,
      "t": 172602.342,
      "d": 116.5229999999865,
      "v": 94
    },
    {
      "midi": 34,
      "hit": false,
      "t": 172623.52799999973,
      "d": 210.5358750000014,
      "v": 127
    },
    {
      "midi": 71,
      "hit": false,
      "t": 172838.03624999966,
      "d": 471.38850000000093,
      "v": 127
    },
    {
      "midi": 39,
      "hit": false,
      "t": 172840.68449999997,
      "d": 382.6721250000119,
      "v": 127
    },
    {
      "midi": 54,
      "hit": false,
      "t": 172842.00862499967,
      "d": 451.5266249999986,
      "v": 127
    },
    {
      "midi": 95,
      "hit": false,
      "t": 172845.98100000003,
      "d": 434.31299999999464,
      "v": 70
    },
    {
      "midi": 59,
      "hit": false,
      "t": 172847.30512499966,
      "d": 470.0643749999872,
      "v": 127
    },
    {
      "midi": 83,
      "hit": false,
      "t": 172853.92575000002,
      "d": 427.69237500001327,
      "v": 87
    },
    {
      "midi": 71,
      "hit": false,
      "t": 172864.5187499997,
      "d": 435.6371250000084,
      "v": 127
    },
    {
      "midi": 51,
      "hit": false,
      "t": 172865.84287499997,
      "d": 354.86550000001444,
      "v": 106
    },
    {
      "midi": 39,
      "hit": false,
      "t": 172877.75999999972,
      "d": 606.4492500000051,
      "v": 127
    },
    {
      "midi": 55,
      "hit": false,
      "t": 173317.36949999965,
      "d": 109.90237499997602,
      "v": 127
    },
    {
      "midi": 96,
      "hit": false,
      "t": 173322.66600000003,
      "d": 92.68875000000116,
      "v": 83
    },
    {
      "midi": 84,
      "hit": false,
      "t": 173333.25900000002,
      "d": 86.06812500001979,
      "v": 90
    },
    {
      "midi": 39,
      "hit": false,
      "t": 173342.527875,
      "d": 64.88212500000373,
      "v": 127
    },
    {
      "midi": 51,
      "hit": false,
      "t": 173350.472625,
      "d": 66.20625000001746,
      "v": 127
    },
    {
      "midi": 72,
      "hit": false,
      "t": 173357.0932499997,
      "d": 82.09575000000768,
      "v": 127
    },
    {
      "midi": 72,
      "hit": false,
      "t": 173358.41737499964,
      "d": 148.30199999999604,
      "v": 127
    },
    {
      "midi": 60,
      "hit": false,
      "t": 173374.30687499963,
      "d": 157.5708750000049,
      "v": 127
    },
    {
      "midi": 39,
      "hit": false,
      "t": 173640.4559999997,
      "d": 145.65374999999767,
      "v": 127
    },
    {
      "midi": 39,
      "hit": false,
      "t": 173817.88875,
      "d": 443.5818750000035,
      "v": 127
    },
    {
      "midi": 54,
      "hit": false,
      "t": 173820.53699999963,
      "d": 538.9188749999739,
      "v": 127
    },
    {
      "midi": 95,
      "hit": false,
      "t": 173860.26075000004,
      "d": 435.6371250000084,
      "v": 74
    },
    {
      "midi": 59,
      "hit": false,
      "t": 173873.50199999963,
      "d": 436.961249999993,
      "v": 127
    },
    {
      "midi": 71,
      "hit": false,
      "t": 173876.15024999963,
      "d": 423.72000000000116,
      "v": 127
    },
    {
      "midi": 71,
      "hit": false,
      "t": 173877.47437499973,
      "d": 483.30562500000815,
      "v": 120
    },
    {
      "midi": 83,
      "hit": false,
      "t": 173882.77087500005,
      "d": 403.85812499999884,
      "v": 94
    },
    {
      "midi": 39,
      "hit": false,
      "t": 173894.6879999997,
      "d": 583.9391250000044,
      "v": 127
    },
    {
      "midi": 51,
      "hit": false,
      "t": 173902.63275000002,
      "d": 364.1343749999942,
      "v": 96
    },
    {
      "midi": 96,
      "hit": false,
      "t": 174334.29750000004,
      "d": 87.39225000000442,
      "v": 90
    },
    {
      "midi": 84,
      "hit": false,
      "t": 174348.86287500005,
      "d": 86.06812499999069,
      "v": 94
    },
    {
      "midi": 55,
      "hit": false,
      "t": 174356.8076249996,
      "d": 108.57825000002049,
      "v": 127
    },
    {
      "midi": 72,
      "hit": false,
      "t": 174371.3729999996,
      "d": 116.5230000000156,
      "v": 127
    },
    {
      "midi": 60,
      "hit": false,
      "t": 174372.69712499963,
      "d": 144.32962500001304,
      "v": 127
    },
    {
      "midi": 39,
      "hit": false,
      "t": 174383.290125,
      "d": 101.95762500001001,
      "v": 127
    },
    {
      "midi": 72,
      "hit": false,
      "t": 174392.55899999975,
      "d": 97.9852499999979,
      "v": 127
    },
    {
      "midi": 51,
      "hit": false,
      "t": 174397.8555,
      "d": 80.77162499999395,
      "v": 112
    },
    {
      "midi": 61,
      "hit": false,
      "t": 174644.14274999974,
      "d": 47.66849999999977,
      "v": 112
    },
    {
      "midi": 39,
      "hit": false,
      "t": 174657.3839999997,
      "d": 82.09575000000768,
      "v": 127
    },
    {
      "midi": 38,
      "hit": false,
      "t": 174699.75600000002,
      "d": 75.4751249999972,
      "v": 92
    },
    {
      "midi": 62,
      "hit": false,
      "t": 174718.29374999975,
      "d": 100.63349999999627,
      "v": 100
    },
    {
      "midi": 38,
      "hit": false,
      "t": 174784.4999999997,
      "d": 117.84712500000023,
      "v": 127
    },
    {
      "midi": 37,
      "hit": false,
      "t": 174788.472375,
      "d": 109.90237500000512,
      "v": 127
    },
    {
      "midi": 63,
      "hit": false,
      "t": 174791.12062499975,
      "d": 56.937375000008615,
      "v": 127
    },
    {
      "midi": 99,
      "hit": false,
      "t": 174842.76150000005,
      "d": 3964.430250000005,
      "v": 80
    },
    {
      "midi": 87,
      "hit": false,
      "t": 174857.32687500006,
      "d": 3963.106124999991,
      "v": 106
    },
    {
      "midi": 58,
      "hit": false,
      "t": 174874.54049999965,
      "d": 3911.4652499999793,
      "v": 127
    },
    {
      "midi": 52,
      "hit": false,
      "t": 174874.5405,
      "d": 4095.518625000026,
      "v": 100
    },
    {
      "midi": 63,
      "hit": false,
      "t": 174877.18874999965,
      "d": 3900.872249999986,
      "v": 112
    },
    {
      "midi": 52,
      "hit": false,
      "t": 174877.18874999965,
      "d": 3918.0858749999898,
      "v": 127
    },
    {
      "midi": 36,
      "hit": false,
      "t": 174881.161125,
      "d": 3816.128250000009,
      "v": 120
    },
    {
      "midi": 64,
      "hit": false,
      "t": 174885.13349999976,
      "d": 3984.292125000007,
      "v": 120
    },
    {
      "midi": 70,
      "hit": false,
      "t": 174887.78174999976,
      "d": 3988.2645000000193,
      "v": 127
    },
    {
      "midi": 75,
      "hit": false,
      "t": 174893.07824999976,
      "d": 3975.0232499999984,
      "v": 127
    },
    {
      "midi": 36,
      "hit": false,
      "t": 174911.61599999972,
      "d": 4002.829874999996,
      "v": 127
    },
    {
      "midi": 67,
      "hit": false,
      "t": 177453.93600000013,
      "d": 344.27249999999185,
      "v": 127
    },
    {
      "midi": 23,
      "hit": false,
      "t": 177938.56574999995,
      "d": 82.09574999997858,
      "v": 28
    },
    {
      "midi": 21,
      "hit": false,
      "t": 177943.86224999995,
      "d": 13.241249999991851,
      "v": 29
    },
    {
      "midi": 67,
      "hit": false,
      "t": 177962.4000000001,
      "d": 336.32774999999674,
      "v": 127
    },
    {
      "midi": 26,
      "hit": false,
      "t": 178000.79962499993,
      "d": 99.30937500001164,
      "v": 41
    },
    {
      "midi": 28,
      "hit": false,
      "t": 178074.95062499994,
      "d": 72.82687500002794,
      "v": 57
    },
    {
      "midi": 30,
      "hit": false,
      "t": 178123.94324999995,
      "d": 66.20625000001746,
      "v": 67
    },
    {
      "midi": 33,
      "hit": false,
      "t": 178176.90824999998,
      "d": 72.82687499996973,
      "v": 78
    },
    {
      "midi": 35,
      "hit": false,
      "t": 178231.19737499996,
      "d": 55.61324999999488,
      "v": 90
    },
    {
      "midi": 38,
      "hit": false,
      "t": 178272.24524999995,
      "d": 68.85449999998673,
      "v": 99
    },
    {
      "midi": 40,
      "hit": false,
      "t": 178319.91374999995,
      "d": 58.26149999999325,
      "v": 109
    },
    {
      "midi": 42,
      "hit": false,
      "t": 178354.34099999993,
      "d": 63.55800000001909,
      "v": 116
    },
    {
      "midi": 45,
      "hit": false,
      "t": 178395.38887499995,
      "d": 88.71637500001816,
      "v": 125
    },
    {
      "midi": 47,
      "hit": false,
      "t": 178454.97449999995,
      "d": 70.17862500000047,
      "v": 109
    },
    {
      "midi": 67,
      "hit": false,
      "t": 178470.86400000012,
      "d": 333.67949999999837,
      "v": 127
    },
    {
      "midi": 50,
      "hit": false,
      "t": 178503.96712499997,
      "d": 82.09574999997858,
      "v": 110
    },
    {
      "midi": 52,
      "hit": false,
      "t": 178545.01499999996,
      "d": 75.4751249999972,
      "v": 105
    },
    {
      "midi": 54,
      "hit": false,
      "t": 178586.06287499995,
      "d": 71.5027500000142,
      "v": 99
    },
    {
      "midi": 57,
      "hit": false,
      "t": 178631.08312499995,
      "d": 72.82687500002794,
      "v": 93
    },
    {
      "midi": 59,
      "hit": false,
      "t": 178661.53799999997,
      "d": 75.4751249999972,
      "v": 89
    },
    {
      "midi": 62,
      "hit": false,
      "t": 178706.55824999997,
      "d": 75.4751249999972,
      "v": 73
    },
    {
      "midi": 64,
      "hit": false,
      "t": 178739.66137499997,
      "d": 70.17862500002957,
      "v": 68
    },
    {
      "midi": 66,
      "hit": false,
      "t": 178770.11624999996,
      "d": 63.558000000048196,
      "v": 64
    },
    {
      "midi": 69,
      "hit": false,
      "t": 178808.51587499998,
      "d": 63.55800000001909,
      "v": 58
    },
    {
      "midi": 71,
      "hit": false,
      "t": 178841.619,
      "d": 59.58562499997788,
      "v": 54
    },
    {
      "midi": 74,
      "hit": false,
      "t": 178882.666875,
      "d": 54.289125000010245,
      "v": 48
    },
    {
      "midi": 76,
      "hit": false,
      "t": 178913.12175,
      "d": 48.992625000013504,
      "v": 43
    },
    {
      "midi": 78,
      "hit": false,
      "t": 178944.90075,
      "d": 35.75137499999255,
      "v": 33
    },
    {
      "midi": 41,
      "hit": false,
      "t": 178979.32799999972,
      "d": 129.76425000000745,
      "v": 127
    },
    {
      "midi": 53,
      "hit": false,
      "t": 178979.32800000004,
      "d": 2033.8559999999998,
      "v": 83
    },
    {
      "midi": 56,
      "hit": false,
      "t": 178979.32800000004,
      "d": 2033.8559999999998,
      "v": 83
    },
    {
      "midi": 60,
      "hit": false,
      "t": 178979.32800000004,
      "d": 2033.8559999999998,
      "v": 83
    },
    {
      "midi": 63,
      "hit": false,
      "t": 178979.32800000004,
      "d": 2033.8559999999998,
      "v": 83
    },
    {
      "midi": 96,
      "hit": false,
      "t": 178979.32800000004,
      "d": 4083.6014999999315,
      "v": 99
    },
    {
      "midi": 72,
      "hit": false,
      "t": 178979.3280000001,
      "d": 4034.60887499986,
      "v": 78
    },
    {
      "midi": 75,
      "hit": false,
      "t": 178979.3280000001,
      "d": 4055.794874999876,
      "v": 78
    },
    {
      "midi": 68,
      "hit": false,
      "t": 178979.3280000001,
      "d": 4066.3878749998985,
      "v": 78
    },
    {
      "midi": 67,
      "hit": false,
      "t": 178979.32800000013,
      "d": 718.9998750000086,
      "v": 127
    },
    {
      "midi": 41,
      "hit": false,
      "t": 179233.55999999974,
      "d": 202.5911250000063,
      "v": 127
    },
    {
      "midi": 63,
      "hit": false,
      "t": 179470.57837499963,
      "d": 84.74400000003516,
      "v": 69
    },
    {
      "midi": 60,
      "hit": false,
      "t": 179479.84724999964,
      "d": 90.0405000000319,
      "v": 66
    },
    {
      "midi": 67,
      "hit": false,
      "t": 179483.81962499965,
      "d": 94.0128750000149,
      "v": 85
    },
    {
      "midi": 56,
      "hit": false,
      "t": 179485.14374999967,
      "d": 92.68875000000116,
      "v": 80
    },
    {
      "midi": 75,
      "hit": false,
      "t": 179486.46787499977,
      "d": 113.87475000001723,
      "v": 105
    },
    {
      "midi": 72,
      "hit": false,
      "t": 179486.46787499977,
      "d": 120.4953750000277,
      "v": 105
    },
    {
      "midi": 68,
      "hit": false,
      "t": 179486.46787499977,
      "d": 127.11600000003818,
      "v": 105
    },
    {
      "midi": 79,
      "hit": false,
      "t": 179487.79199999978,
      "d": 125.79187500002445,
      "v": 105
    },
    {
      "midi": 63,
      "hit": false,
      "t": 179489.11612500003,
      "d": 82.09574999997858,
      "v": 86
    },
    {
      "midi": 67,
      "hit": false,
      "t": 179497.06087500002,
      "d": 46.34437499998603,
      "v": 81
    },
    {
      "midi": 36,
      "hit": false,
      "t": 179742.02399999974,
      "d": 214.5082500000135,
      "v": 127
    },
    {
      "midi": 60,
      "hit": false,
      "t": 179742.02400000012,
      "d": 491.25037500000326,
      "v": 127
    },
    {
      "midi": 41,
      "hit": false,
      "t": 179996.25599999976,
      "d": 135.0607500000042,
      "v": 127
    },
    {
      "midi": 63,
      "hit": false,
      "t": 180238.57087499966,
      "d": 402.5340000000142,
      "v": 80
    },
    {
      "midi": 60,
      "hit": false,
      "t": 180246.51562499965,
      "d": 385.32037500001024,
      "v": 74
    },
    {
      "midi": 63,
      "hit": false,
      "t": 180247.83975,
      "d": 403.85812500002794,
      "v": 86
    },
    {
      "midi": 56,
      "hit": false,
      "t": 180249.16387499965,
      "d": 394.5892500000191,
      "v": 80
    },
    {
      "midi": 67,
      "hit": false,
      "t": 180250.48799999966,
      "d": 369.4308749999909,
      "v": 94
    },
    {
      "midi": 41,
      "hit": false,
      "t": 180250.48799999978,
      "d": 195.9704999999958,
      "v": 127
    },
    {
      "midi": 62,
      "hit": false,
      "t": 180250.48800000013,
      "d": 266.1491249999963,
      "v": 120
    },
    {
      "midi": 79,
      "hit": false,
      "t": 180251.8121249998,
      "d": 362.81025000000955,
      "v": 105
    },
    {
      "midi": 72,
      "hit": false,
      "t": 180251.8121249998,
      "d": 383.9962499999965,
      "v": 105
    },
    {
      "midi": 75,
      "hit": false,
      "t": 180251.8121249998,
      "d": 386.6444999999949,
      "v": 105
    },
    {
      "midi": 68,
      "hit": false,
      "t": 180251.8121249998,
      "d": 389.29274999999325,
      "v": 105
    },
    {
      "midi": 67,
      "hit": false,
      "t": 180257.10862500002,
      "d": 387.9686250000086,
      "v": 87
    },
    {
      "midi": 63,
      "hit": false,
      "t": 180504.72000000012,
      "d": 201.26700000002165,
      "v": 127
    },
    {
      "midi": 63,
      "hit": false,
      "t": 180729.82124999966,
      "d": 70.17862500002957,
      "v": 86
    },
    {
      "midi": 60,
      "hit": false,
      "t": 180739.09012499967,
      "d": 62.23387500003446,
      "v": 74
    },
    {
      "midi": 67,
      "hit": false,
      "t": 180743.06249999968,
      "d": 54.289125000010245,
      "v": 90
    },
    {
      "midi": 56,
      "hit": false,
      "t": 180744.3866249997,
      "d": 88.71637500001816,
      "v": 83
    },
    {
      "midi": 63,
      "hit": false,
      "t": 180752.33137500004,
      "d": 59.585625000006985,
      "v": 93
    },
    {
      "midi": 68,
      "hit": false,
      "t": 180757.62787499977,
      "d": 45.0202500000014,
      "v": 105
    },
    {
      "midi": 75,
      "hit": false,
      "t": 180757.62787499977,
      "d": 46.344375000015134,
      "v": 105
    },
    {
      "midi": 72,
      "hit": false,
      "t": 180757.62787499977,
      "d": 55.61325000002398,
      "v": 105
    },
    {
      "midi": 36,
      "hit": false,
      "t": 180758.9519999998,
      "d": 185.37750000000233,
      "v": 127
    },
    {
      "midi": 67,
      "hit": false,
      "t": 180758.95200000005,
      "d": 41.04787499998929,
      "v": 87
    },
    {
      "midi": 65,
      "hit": false,
      "t": 180758.95200000014,
      "d": 267.4732499999809,
      "v": 112
    },
    {
      "midi": 79,
      "hit": false,
      "t": 180760.27612499977,
      "d": 52.96500000002561,
      "v": 105
    },
    {
      "midi": 34,
      "hit": false,
      "t": 181013.18399999978,
      "d": 120.4953749999986,
      "v": 127
    },
    {
      "midi": 56,
      "hit": false,
      "t": 181013.18400000004,
      "d": 1016.9280000000144,
      "v": 83
    },
    {
      "midi": 60,
      "hit": false,
      "t": 181013.18400000004,
      "d": 1016.9280000000144,
      "v": 83
    },
    {
      "midi": 63,
      "hit": false,
      "t": 181013.18400000004,
      "d": 1016.9280000000144,
      "v": 83
    },
    {
      "midi": 67,
      "hit": false,
      "t": 181013.18400000012,
      "d": 146.9778749999823,
      "v": 127
    },
    {
      "midi": 34,
      "hit": false,
      "t": 181267.41599999976,
      "d": 185.37750000000233,
      "v": 127
    },
    {
      "midi": 67,
      "hit": false,
      "t": 181267.4160000001,
      "d": 460.79550000000745,
      "v": 127
    },
    {
      "midi": 63,
      "hit": false,
      "t": 181511.0549999997,
      "d": 71.5027500000142,
      "v": 96
    },
    {
      "midi": 60,
      "hit": false,
      "t": 181518.9997499997,
      "d": 70.17862500002957,
      "v": 81
    },
    {
      "midi": 56,
      "hit": false,
      "t": 181520.3238749997,
      "d": 80.77162500002305,
      "v": 86
    },
    {
      "midi": 79,
      "hit": false,
      "t": 181520.3238749998,
      "d": 70.17862500000047,
      "v": 105
    },
    {
      "midi": 68,
      "hit": false,
      "t": 181520.3238749998,
      "d": 129.76425000000745,
      "v": 105
    },
    {
      "midi": 67,
      "hit": false,
      "t": 181522.9721249997,
      "d": 67.5303750000312,
      "v": 94
    },
    {
      "midi": 72,
      "hit": false,
      "t": 181522.9721249998,
      "d": 94.0128750000149,
      "v": 105
    },
    {
      "midi": 75,
      "hit": false,
      "t": 181522.9721249998,
      "d": 94.0128750000149,
      "v": 105
    },
    {
      "midi": 63,
      "hit": false,
      "t": 181525.62037500006,
      "d": 74.15100000001257,
      "v": 93
    },
    {
      "midi": 67,
      "hit": false,
      "t": 181534.88925000007,
      "d": 50.31674999999814,
      "v": 81
    },
    {
      "midi": 41,
      "hit": false,
      "t": 181775.87999999977,
      "d": 161.5432499999879,
      "v": 127
    },
    {
      "midi": 65,
      "hit": false,
      "t": 181775.88000000012,
      "d": 438.28537500000675,
      "v": 127
    },
    {
      "midi": 46,
      "hit": false,
      "t": 182030.11199999976,
      "d": 168.16387499999837,
      "v": 127
    },
    {
      "midi": 56,
      "hit": false,
      "t": 182030.11200000005,
      "d": 1016.9279999999271,
      "v": 83
    },
    {
      "midi": 62,
      "hit": false,
      "t": 182030.11200000005,
      "d": 1016.9279999999271,
      "v": 83
    },
    {
      "midi": 65,
      "hit": false,
      "t": 182030.11200000005,
      "d": 1016.9279999999271,
      "v": 83
    },
    {
      "midi": 62,
      "hit": false,
      "t": 182277.72337500006,
      "d": 362.81025000000955,
      "v": 83
    },
    {
      "midi": 62,
      "hit": false,
      "t": 182280.37162499974,
      "d": 397.23750000001746,
      "v": 81
    },
    {
      "midi": 60,
      "hit": false,
      "t": 182281.69574999975,
      "d": 387.9686250000086,
      "v": 74
    },
    {
      "midi": 56,
      "hit": false,
      "t": 182281.69574999975,
      "d": 402.5340000000142,
      "v": 80
    },
    {
      "midi": 65,
      "hit": false,
      "t": 182281.69575000007,
      "d": 360.1620000000112,
      "v": 83
    },
    {
      "midi": 77,
      "hit": false,
      "t": 182283.0198749998,
      "d": 389.29275000002235,
      "v": 105
    },
    {
      "midi": 68,
      "hit": false,
      "t": 182283.0198749998,
      "d": 418.4235000000335,
      "v": 105
    },
    {
      "midi": 72,
      "hit": false,
      "t": 182283.0198749998,
      "d": 425.044125000044,
      "v": 105
    },
    {
      "midi": 41,
      "hit": false,
      "t": 182284.34399999975,
      "d": 173.4603749999951,
      "v": 127
    },
    {
      "midi": 74,
      "hit": false,
      "t": 182284.3439999998,
      "d": 414.4511250000214,
      "v": 105
    },
    {
      "midi": 63,
      "hit": false,
      "t": 182284.34400000013,
      "d": 237.0183750000142,
      "v": 127
    },
    {
      "midi": 65,
      "hit": false,
      "t": 182286.99224999975,
      "d": 385.32037500001024,
      "v": 76
    },
    {
      "midi": 46,
      "hit": false,
      "t": 182538.57599999974,
      "d": 219.80475000001024,
      "v": 127
    },
    {
      "midi": 62,
      "hit": false,
      "t": 182538.57600000015,
      "d": 219.80475000001024,
      "v": 127
    },
    {
      "midi": 62,
      "hit": false,
      "t": 182775.59437500007,
      "d": 75.47512500002631,
      "v": 76
    },
    {
      "midi": 65,
      "hit": false,
      "t": 182779.5667500001,
      "d": 59.585625000006985,
      "v": 81
    },
    {
      "midi": 62,
      "hit": false,
      "t": 182787.51149999976,
      "d": 76.79925000001094,
      "v": 83
    },
    {
      "midi": 60,
      "hit": false,
      "t": 182787.51149999976,
      "d": 87.39225000000442,
      "v": 81
    },
    {
      "midi": 68,
      "hit": false,
      "t": 182791.48387499983,
      "d": 71.5027500000142,
      "v": 105
    },
    {
      "midi": 44,
      "hit": false,
      "t": 182792.80799999976,
      "d": 222.45300000000861,
      "v": 127
    },
    {
      "midi": 63,
      "hit": false,
      "t": 182792.80800000016,
      "d": 189.34987500001444,
      "v": 127
    },
    {
      "midi": 77,
      "hit": false,
      "t": 182794.13212499983,
      "d": 56.937375000008615,
      "v": 105
    },
    {
      "midi": 74,
      "hit": false,
      "t": 182794.13212499983,
      "d": 67.5303750000021,
      "v": 105
    },
    {
      "midi": 72,
      "hit": false,
      "t": 182794.13212499983,
      "d": 72.82687500002794,
      "v": 105
    },
    {
      "midi": 65,
      "hit": false,
      "t": 182796.78037499977,
      "d": 67.5303750000021,
      "v": 83
    },
    {
      "midi": 56,
      "hit": false,
      "t": 182799.42862499977,
      "d": 80.77162499999395,
      "v": 77
    },
    {
      "midi": 70,
      "hit": false,
      "t": 183011.28862499996,
      "d": 2069.6073750000214,
      "v": 78
    },
    {
      "midi": 65,
      "hit": false,
      "t": 183015.26099999997,
      "d": 2065.6350000000093,
      "v": 78
    },
    {
      "midi": 74,
      "hit": false,
      "t": 183015.26099999997,
      "d": 2065.6350000000093,
      "v": 78
    },
    {
      "midi": 43,
      "hit": false,
      "t": 183047.03999999978,
      "d": 158.89499999998952,
      "v": 127
    },
    {
      "midi": 43,
      "hit": false,
      "t": 183047.03999999998,
      "d": 2033.8559999999707,
      "v": 83
    },
    {
      "midi": 53,
      "hit": false,
      "t": 183047.03999999998,
      "d": 2033.8559999999707,
      "v": 83
    },
    {
      "midi": 58,
      "hit": false,
      "t": 183047.03999999998,
      "d": 2033.8559999999707,
      "v": 83
    },
    {
      "midi": 62,
      "hit": false,
      "t": 183047.03999999998,
      "d": 2033.8559999999707,
      "v": 83
    },
    {
      "midi": 94,
      "hit": false,
      "t": 183047.03999999998,
      "d": 4095.518624999968,
      "v": 99
    },
    {
      "midi": 65,
      "hit": false,
      "t": 183047.04000000018,
      "d": 764.02012500001,
      "v": 127
    },
    {
      "midi": 43,
      "hit": false,
      "t": 183301.27199999976,
      "d": 193.32224999999744,
      "v": 127
    },
    {
      "midi": 58,
      "hit": false,
      "t": 183526.37324999977,
      "d": 66.20625000004657,
      "v": 93
    },
    {
      "midi": 62,
      "hit": false,
      "t": 183535.64212499978,
      "d": 67.5303750000312,
      "v": 76
    },
    {
      "midi": 55,
      "hit": false,
      "t": 183542.2627499998,
      "d": 111.22650000001886,
      "v": 81
    },
    {
      "midi": 62,
      "hit": false,
      "t": 183543.5868750001,
      "d": 74.15100000001257,
      "v": 83
    },
    {
      "midi": 65,
      "hit": false,
      "t": 183544.9110000001,
      "d": 64.88212500000373,
      "v": 83
    },
    {
      "midi": 77,
      "hit": false,
      "t": 183550.20749999984,
      "d": 135.0607500000333,
      "v": 105
    },
    {
      "midi": 70,
      "hit": false,
      "t": 183550.20749999984,
      "d": 137.70900000003166,
      "v": 105
    },
    {
      "midi": 65,
      "hit": false,
      "t": 183551.5316249998,
      "d": 31.779000000009546,
      "v": 72
    },
    {
      "midi": 74,
      "hit": false,
      "t": 183551.53162499986,
      "d": 129.76425000000745,
      "v": 105
    },
    {
      "midi": 67,
      "hit": false,
      "t": 183551.53162499986,
      "d": 156.24675000002026,
      "v": 105
    },
    {
      "midi": 38,
      "hit": false,
      "t": 183809.73599999977,
      "d": 195.9704999999958,
      "v": 127
    },
    {
      "midi": 58,
      "hit": false,
      "t": 183809.73600000018,
      "d": 448.87837500000023,
      "v": 127
    },
    {
      "midi": 43,
      "hit": false,
      "t": 184063.96799999976,
      "d": 136.38487499998882,
      "v": 127
    },
    {
      "midi": 62,
      "hit": false,
      "t": 184293.0416250001,
      "d": 402.5340000000142,
      "v": 81
    },
    {
      "midi": 65,
      "hit": false,
      "t": 184294.3657500001,
      "d": 395.9133750000037,
      "v": 85
    },
    {
      "midi": 77,
      "hit": false,
      "t": 184314.22762499988,
      "d": 376.0515000000014,
      "v": 105
    },
    {
      "midi": 70,
      "hit": false,
      "t": 184314.22762499988,
      "d": 395.9133750000037,
      "v": 105
    },
    {
      "midi": 67,
      "hit": false,
      "t": 184315.5517499999,
      "d": 380.0238749999844,
      "v": 105
    },
    {
      "midi": 74,
      "hit": false,
      "t": 184315.5517499999,
      "d": 397.23749999998836,
      "v": 105
    },
    {
      "midi": 43,
      "hit": false,
      "t": 184318.19999999975,
      "d": 402.5340000000142,
      "v": 127
    },
    {
      "midi": 60,
      "hit": false,
      "t": 184318.2000000002,
      "d": 239.66662500001257,
      "v": 127
    },
    {
      "midi": 58,
      "hit": false,
      "t": 184319.52412499982,
      "d": 352.21725000001607,
      "v": 93
    },
    {
      "midi": 55,
      "hit": false,
      "t": 184323.49649999983,
      "d": 391.9409999999916,
      "v": 81
    },
    {
      "midi": 62,
      "hit": false,
      "t": 184327.46887499985,
      "d": 365.4584999999788,
      "v": 87
    },
    {
      "midi": 65,
      "hit": false,
      "t": 184338.06187499984,
      "d": 346.9207499999902,
      "v": 87
    },
    {
      "midi": 62,
      "hit": false,
      "t": 184572.4320000002,
      "d": 230.39775000000373,
      "v": 127
    },
    {
      "midi": 58,
      "hit": false,
      "t": 184790.91262499982,
      "d": 60.90975000002072,
      "v": 86
    },
    {
      "midi": 62,
      "hit": false,
      "t": 184801.50562499982,
      "d": 64.88212500003283,
      "v": 83
    },
    {
      "midi": 55,
      "hit": false,
      "t": 184810.77449999982,
      "d": 99.30937500001164,
      "v": 70
    },
    {
      "midi": 65,
      "hit": false,
      "t": 184812.09862499984,
      "d": 33.10312499999418,
      "v": 68
    },
    {
      "midi": 62,
      "hit": false,
      "t": 184812.0986250001,
      "d": 67.5303750000312,
      "v": 83
    },
    {
      "midi": 65,
      "hit": false,
      "t": 184816.0710000001,
      "d": 56.937375000008615,
      "v": 85
    },
    {
      "midi": 70,
      "hit": false,
      "t": 184822.6916249999,
      "d": 67.5303750000021,
      "v": 105
    },
    {
      "midi": 77,
      "hit": false,
      "t": 184824.0157499999,
      "d": 38.39962499999092,
      "v": 105
    },
    {
      "midi": 67,
      "hit": false,
      "t": 184824.0157499999,
      "d": 58.26149999999325,
      "v": 105
    },
    {
      "midi": 74,
      "hit": false,
      "t": 184824.0157499999,
      "d": 70.17862500000047,
      "v": 105
    },
    {
      "midi": 38,
      "hit": false,
      "t": 184826.66399999976,
      "d": 178.75687499999185,
      "v": 127
    },
    {
      "midi": 63,
      "hit": false,
      "t": 184826.66400000022,
      "d": 144.32962500001304,
      "v": 106
    },
    {
      "midi": 36,
      "hit": false,
      "t": 185080.89599999975,
      "d": 121.81950000001234,
      "v": 127
    },
    {
      "midi": 48,
      "hit": false,
      "t": 185080.89599999995,
      "d": 2033.8559999999998,
      "v": 83
    },
    {
      "midi": 55,
      "hit": false,
      "t": 185080.89599999995,
      "d": 2033.8559999999998,
      "v": 83
    },
    {
      "midi": 58,
      "hit": false,
      "t": 185080.89599999995,
      "d": 2033.8559999999998,
      "v": 83
    },
    {
      "midi": 63,
      "hit": false,
      "t": 185080.89599999995,
      "d": 2033.8559999999998,
      "v": 83
    },
    {
      "midi": 70,
      "hit": false,
      "t": 185080.89599999998,
      "d": 1787.5687500000058,
      "v": 78
    },
    {
      "midi": 65,
      "hit": false,
      "t": 185080.89600000024,
      "d": 97.9852499999979,
      "v": 94
    },
    {
      "midi": 75,
      "hit": false,
      "t": 185091.48899999997,
      "d": 1763.7345000000205,
      "v": 78
    },
    {
      "midi": 67,
      "hit": false,
      "t": 185092.813125,
      "d": 1757.11387500001,
      "v": 78
    },
    {
      "midi": 36,
      "hit": false,
      "t": 185335.12799999976,
      "d": 316.4658749999944,
      "v": 127
    },
    {
      "midi": 65,
      "hit": false,
      "t": 185335.12800000023,
      "d": 421.0717500000028,
      "v": 127
    },
    {
      "midi": 58,
      "hit": false,
      "t": 185564.20162499984,
      "d": 71.5027500000142,
      "v": 112
    },
    {
      "midi": 62,
      "hit": false,
      "t": 185570.82224999985,
      "d": 68.85450000001583,
      "v": 83
    },
    {
      "midi": 65,
      "hit": false,
      "t": 185572.14637500013,
      "d": 82.09575000000768,
      "v": 87
    },
    {
      "midi": 62,
      "hit": false,
      "t": 185573.47050000014,
      "d": 63.55799999998999,
      "v": 76
    },
    {
      "midi": 67,
      "hit": false,
      "t": 185586.7117499999,
      "d": 87.39225000000442,
      "v": 105
    },
    {
      "midi": 70,
      "hit": false,
      "t": 185586.7117499999,
      "d": 90.0405000000028,
      "v": 105
    },
    {
      "midi": 55,
      "hit": false,
      "t": 185588.03587499986,
      "d": 91.36462500001653,
      "v": 85
    },
    {
      "midi": 74,
      "hit": false,
      "t": 185588.0358749999,
      "d": 90.0405000000028,
      "v": 105
    },
    {
      "midi": 77,
      "hit": false,
      "t": 185588.0358749999,
      "d": 92.68875000000116,
      "v": 105
    },
    {
      "midi": 65,
      "hit": false,
      "t": 185589.35999999987,
      "d": 30.45487499999581,
      "v": 70
    },
    {
      "midi": 43,
      "hit": false,
      "t": 185843.59199999977,
      "d": 185.37750000000233,
      "v": 127
    },
    {
      "midi": 63,
      "hit": false,
      "t": 185843.59200000024,
      "d": 386.6444999999949,
      "v": 127
    },
    {
      "midi": 48,
      "hit": false,
      "t": 186097.82399999976,
      "d": 182.72925000000396,
      "v": 127
    },
    {
      "midi": 63,
      "hit": false,
      "t": 186334.84237500012,
      "d": 413.1270000000077,
      "v": 93
    },
    {
      "midi": 60,
      "hit": false,
      "t": 186337.49062500012,
      "d": 410.4787500000093,
      "v": 83
    },
    {
      "midi": 75,
      "hit": false,
      "t": 186350.7318749999,
      "d": 406.5063749999972,
      "v": 105
    },
    {
      "midi": 67,
      "hit": false,
      "t": 186350.7318749999,
      "d": 415.77525000000605,
      "v": 105
    },
    {
      "midi": 72,
      "hit": false,
      "t": 186350.7318749999,
      "d": 417.0993750000198,
      "v": 105
    },
    {
      "midi": 70,
      "hit": false,
      "t": 186350.7318749999,
      "d": 419.74762500001816,
      "v": 105
    },
    {
      "midi": 46,
      "hit": false,
      "t": 186352.05599999978,
      "d": 197.29462500000955,
      "v": 127
    },
    {
      "midi": 62,
      "hit": false,
      "t": 186352.05600000024,
      "d": 243.63899999999558,
      "v": 112
    },
    {
      "midi": 58,
      "hit": false,
      "t": 186367.94549999989,
      "d": 377.37562499998603,
      "v": 96
    },
    {
      "midi": 63,
      "hit": false,
      "t": 186373.24199999988,
      "d": 376.0515000000014,
      "v": 77
    },
    {
      "midi": 60,
      "hit": false,
      "t": 186373.24199999988,
      "d": 383.9962499999965,
      "v": 94
    },
    {
      "midi": 55,
      "hit": false,
      "t": 186381.18674999988,
      "d": 381.34799999999814,
      "v": 76
    },
    {
      "midi": 44,
      "hit": false,
      "t": 186606.2879999998,
      "d": 170.81212499999674,
      "v": 127
    },
    {
      "midi": 60,
      "hit": false,
      "t": 186606.28800000023,
      "d": 191.9981250000128,
      "v": 127
    },
    {
      "midi": 60,
      "hit": false,
      "t": 186851.25112500013,
      "d": 58.26150000002235,
      "v": 72
    },
    {
      "midi": 63,
      "hit": false,
      "t": 186852.57525000014,
      "d": 48.992625000013504,
      "v": 96
    },
    {
      "midi": 70,
      "hit": false,
      "t": 186859.19587499992,
      "d": 78.12337500002468,
      "v": 105
    },
    {
      "midi": 75,
      "hit": false,
      "t": 186859.19587499992,
      "d": 83.41987500002142,
      "v": 105
    },
    {
      "midi": 43,
      "hit": false,
      "t": 186860.5199999998,
      "d": 195.9704999999958,
      "v": 127
    },
    {
      "midi": 62,
      "hit": false,
      "t": 186860.52000000025,
      "d": 201.26699999999255,
      "v": 120
    },
    {
      "midi": 67,
      "hit": false,
      "t": 186861.84412499992,
      "d": 70.17862500000047,
      "v": 105
    },
    {
      "midi": 72,
      "hit": false,
      "t": 186861.84412499992,
      "d": 71.5027500000142,
      "v": 105
    },
    {
      "midi": 58,
      "hit": false,
      "t": 186868.46474999987,
      "d": 60.90975000002072,
      "v": 100
    },
    {
      "midi": 60,
      "hit": false,
      "t": 186869.78887499988,
      "d": 62.23387500003446,
      "v": 97
    },
    {
      "midi": 63,
      "hit": false,
      "t": 186871.1129999999,
      "d": 59.585625000006985,
      "v": 106
    },
    {
      "midi": 55,
      "hit": false,
      "t": 186885.6783749999,
      "d": 88.71637500001816,
      "v": 85
    },
    {
      "midi": 75,
      "hit": false,
      "t": 187071.055875,
      "d": 3073.294125000015,
      "v": 78
    },
    {
      "midi": 68,
      "hit": false,
      "t": 187072.38,
      "d": 3071.970000000001,
      "v": 78
    },
    {
      "midi": 72,
      "hit": false,
      "t": 187076.35237500002,
      "d": 3067.997624999989,
      "v": 78
    },
    {
      "midi": 41,
      "hit": false,
      "t": 187114.75199999977,
      "d": 132.41250000000582,
      "v": 127
    },
    {
      "midi": 41,
      "hit": false,
      "t": 187114.75199999995,
      "d": 2033.8559999999998,
      "v": 83
    },
    {
      "midi": 56,
      "hit": false,
      "t": 187114.75199999995,
      "d": 2033.8559999999998,
      "v": 83
    },
    {
      "midi": 60,
      "hit": false,
      "t": 187114.75199999995,
      "d": 2033.8559999999998,
      "v": 83
    },
    {
      "midi": 63,
      "hit": false,
      "t": 187114.75199999995,
      "d": 2033.8559999999998,
      "v": 83
    },
    {
      "midi": 92,
      "hit": false,
      "t": 187114.75199999995,
      "d": 4070.3602499999106,
      "v": 99
    },
    {
      "midi": 63,
      "hit": false,
      "t": 187114.75200000024,
      "d": 762.6959999999963,
      "v": 127
    },
    {
      "midi": 41,
      "hit": false,
      "t": 187368.9839999998,
      "d": 327.0588749999879,
      "v": 127
    },
    {
      "midi": 56,
      "hit": false,
      "t": 187599.3817499999,
      "d": 66.20624999998836,
      "v": 100
    },
    {
      "midi": 63,
      "hit": false,
      "t": 187602.0299999999,
      "d": 58.26149999999325,
      "v": 83
    },
    {
      "midi": 63,
      "hit": false,
      "t": 187604.67825000014,
      "d": 62.233875000005355,
      "v": 96
    },
    {
      "midi": 60,
      "hit": false,
      "t": 187604.67825000014,
      "d": 68.85450000001583,
      "v": 74
    },
    {
      "midi": 60,
      "hit": false,
      "t": 187607.3264999999,
      "d": 38.39962499999092,
      "v": 87
    },
    {
      "midi": 53,
      "hit": false,
      "t": 187615.2712499999,
      "d": 94.0128749999858,
      "v": 87
    },
    {
      "midi": 65,
      "hit": false,
      "t": 187620.56774999993,
      "d": 60.90974999999162,
      "v": 105
    },
    {
      "midi": 68,
      "hit": false,
      "t": 187620.56774999993,
      "d": 70.17862500000047,
      "v": 105
    },
    {
      "midi": 75,
      "hit": false,
      "t": 187620.56774999993,
      "d": 78.12337499999558,
      "v": 105
    },
    {
      "midi": 72,
      "hit": false,
      "t": 187620.56774999993,
      "d": 82.09575000000768,
      "v": 105
    },
    {
      "midi": 36,
      "hit": false,
      "t": 187877.44799999977,
      "d": 222.45300000000861,
      "v": 127
    },
    {
      "midi": 56,
      "hit": false,
      "t": 187877.44800000024,
      "d": 1042.0863750000135,
      "v": 127
    },
    {
      "midi": 41,
      "hit": false,
      "t": 188131.6799999998,
      "d": 154.92262500000652,
      "v": 127
    },
    {
      "midi": 56,
      "hit": false,
      "t": 188367.37424999988,
      "d": 344.27249999999185,
      "v": 96
    },
    {
      "midi": 63,
      "hit": false,
      "t": 188370.02250000017,
      "d": 397.23750000001746,
      "v": 75
    },
    {
      "midi": 63,
      "hit": false,
      "t": 188371.3466249999,
      "d": 344.27249999999185,
      "v": 77
    },
    {
      "midi": 60,
      "hit": false,
      "t": 188373.99487500018,
      "d": 393.26512500000536,
      "v": 63
    },
    {
      "midi": 60,
      "hit": false,
      "t": 188379.29137499988,
      "d": 332.35537499998463,
      "v": 85
    },
    {
      "midi": 53,
      "hit": false,
      "t": 188384.58787499988,
      "d": 338.9759999999951,
      "v": 87
    },
    {
      "midi": 41,
      "hit": false,
      "t": 188385.9119999998,
      "d": 270.1215000000084,
      "v": 127
    },
    {
      "midi": 75,
      "hit": false,
      "t": 188388.56024999995,
      "d": 341.6242499999935,
      "v": 105
    },
    {
      "midi": 72,
      "hit": false,
      "t": 188388.56024999995,
      "d": 348.24487500000396,
      "v": 105
    },
    {
      "midi": 65,
      "hit": false,
      "t": 188388.56024999995,
      "d": 354.86550000001444,
      "v": 105
    },
    {
      "midi": 68,
      "hit": false,
      "t": 188388.56024999995,
      "d": 357.5137500000128,
      "v": 105
    },
    {
      "midi": 56,
      "hit": false,
      "t": 188832.14212499987,
      "d": 63.55800000001909,
      "v": 86
    },
    {
      "midi": 63,
      "hit": false,
      "t": 188841.41099999988,
      "d": 56.937375000008615,
      "v": 93
    },
    {
      "midi": 60,
      "hit": false,
      "t": 188842.7351249999,
      "d": 59.585625000006985,
      "v": 90
    },
    {
      "midi": 53,
      "hit": false,
      "t": 188854.6522499999,
      "d": 95.33699999999953,
      "v": 92
    },
    {
      "midi": 60,
      "hit": false,
      "t": 188875.83825000018,
      "d": 67.5303750000312,
      "v": 74
    },
    {
      "midi": 63,
      "hit": false,
      "t": 188877.1623750002,
      "d": 56.937375000008615,
      "v": 96
    },
    {
      "midi": 68,
      "hit": false,
      "t": 188893.05187499998,
      "d": 58.26150000002235,
      "v": 105
    },
    {
      "midi": 36,
      "hit": false,
      "t": 188894.37599999981,
      "d": 227.74950000000536,
      "v": 127
    },
    {
      "midi": 75,
      "hit": false,
      "t": 188895.70012499997,
      "d": 41.047875000018394,
      "v": 105
    },
    {
      "midi": 65,
      "hit": false,
      "t": 188895.70012499997,
      "d": 47.66850000002887,
      "v": 105
    },
    {
      "midi": 72,
      "hit": false,
      "t": 188897.02425,
      "d": 33.10312499999418,
      "v": 105
    },
    {
      "midi": 34,
      "hit": false,
      "t": 189148.60799999983,
      "d": 146.9778750000114,
      "v": 127
    },
    {
      "midi": 56,
      "hit": false,
      "t": 189148.60799999995,
      "d": 949.3976250000123,
      "v": 83
    },
    {
      "midi": 60,
      "hit": false,
      "t": 189148.60799999995,
      "d": 953.3700000000244,
      "v": 83
    },
    {
      "midi": 63,
      "hit": false,
      "t": 189148.60799999995,
      "d": 959.9906250000349,
      "v": 83
    },
    {
      "midi": 46,
      "hit": false,
      "t": 189148.60799999995,
      "d": 2033.8559999999125,
      "v": 83
    },
    {
      "midi": 63,
      "hit": false,
      "t": 189148.60800000024,
      "d": 63.55799999998999,
      "v": 127
    },
    {
      "midi": 34,
      "hit": false,
      "t": 189402.83999999985,
      "d": 264.82500000001164,
      "v": 127
    },
    {
      "midi": 63,
      "hit": false,
      "t": 189402.84000000023,
      "d": 472.71262499998556,
      "v": 127
    },
    {
      "midi": 63,
      "hit": false,
      "t": 189641.1825000002,
      "d": 72.82687499999884,
      "v": 96
    },
    {
      "midi": 60,
      "hit": false,
      "t": 189643.8307500002,
      "d": 78.12337499999558,
      "v": 76
    },
    {
      "midi": 63,
      "hit": false,
      "t": 189645.1548749999,
      "d": 76.79925000001094,
      "v": 100
    },
    {
      "midi": 56,
      "hit": false,
      "t": 189647.8031249999,
      "d": 83.41987500002142,
      "v": 112
    },
    {
      "midi": 60,
      "hit": false,
      "t": 189653.0996249999,
      "d": 80.77162500002305,
      "v": 85
    },
    {
      "midi": 68,
      "hit": false,
      "t": 189653.099625,
      "d": 67.5303750000603,
      "v": 105
    },
    {
      "midi": 72,
      "hit": false,
      "t": 189654.42375000002,
      "d": 31.779000000009546,
      "v": 105
    },
    {
      "midi": 75,
      "hit": false,
      "t": 189654.42375000002,
      "d": 33.10312500002328,
      "v": 105
    },
    {
      "midi": 65,
      "hit": false,
      "t": 189654.42375000002,
      "d": 59.58562500003609,
      "v": 105
    },
    {
      "midi": 53,
      "hit": false,
      "t": 189662.3684999999,
      "d": 103.28175000002375,
      "v": 85
    },
    {
      "midi": 41,
      "hit": false,
      "t": 189911.30399999986,
      "d": 207.88762500000303,
      "v": 127
    },
    {
      "midi": 62,
      "hit": false,
      "t": 189911.3040000002,
      "d": 492.5744999999879,
      "v": 127
    },
    {
      "midi": 68,
      "hit": false,
      "t": 190164.211875,
      "d": 979.8524999999499,
      "v": 78
    },
    {
      "midi": 46,
      "hit": false,
      "t": 190165.53599999985,
      "d": 201.26699999999255,
      "v": 127
    },
    {
      "midi": 62,
      "hit": false,
      "t": 190165.536,
      "d": 912.3221249999187,
      "v": 90
    },
    {
      "midi": 59,
      "hit": false,
      "t": 190165.536,
      "d": 921.5909999999276,
      "v": 90
    },
    {
      "midi": 56,
      "hit": false,
      "t": 190165.536,
      "d": 924.239249999926,
      "v": 90
    },
    {
      "midi": 71,
      "hit": false,
      "t": 190166.860125,
      "d": 975.8801249999378,
      "v": 78
    },
    {
      "midi": 74,
      "hit": false,
      "t": 190173.48075000002,
      "d": 973.2318749999395,
      "v": 78
    },
    {
      "midi": 56,
      "hit": false,
      "t": 190386.66487499993,
      "d": 415.77525000000605,
      "v": 96
    },
    {
      "midi": 59,
      "hit": false,
      "t": 190389.31312499993,
      "d": 422.39587500001653,
      "v": 87
    },
    {
      "midi": 53,
      "hit": false,
      "t": 190394.60962499992,
      "d": 423.72000000003027,
      "v": 74
    },
    {
      "midi": 62,
      "hit": false,
      "t": 190401.23024999994,
      "d": 407.83050000001094,
      "v": 81
    },
    {
      "midi": 62,
      "hit": false,
      "t": 190411.8232500002,
      "d": 338.9760000000242,
      "v": 83
    },
    {
      "midi": 65,
      "hit": false,
      "t": 190415.79562500006,
      "d": 397.23749999998836,
      "v": 105
    },
    {
      "midi": 68,
      "hit": false,
      "t": 190415.79562500006,
      "d": 403.85812499999884,
      "v": 105
    },
    {
      "midi": 71,
      "hit": false,
      "t": 190415.79562500006,
      "d": 405.1822500000126,
      "v": 105
    },
    {
      "midi": 74,
      "hit": false,
      "t": 190415.79562500006,
      "d": 405.1822500000126,
      "v": 105
    },
    {
      "midi": 59,
      "hit": false,
      "t": 190415.7956250002,
      "d": 335.0036250000121,
      "v": 74
    },
    {
      "midi": 44,
      "hit": false,
      "t": 190419.76799999984,
      "d": 214.5082500000135,
      "v": 127
    },
    {
      "midi": 63,
      "hit": false,
      "t": 190419.7680000002,
      "d": 218.4806249999965,
      "v": 127
    },
    {
      "midi": 43,
      "hit": false,
      "t": 190673.99999999985,
      "d": 234.37012499998673,
      "v": 127
    },
    {
      "midi": 62,
      "hit": false,
      "t": 190674.00000000017,
      "d": 485.9538750000065,
      "v": 120
    },
    {
      "midi": 56,
      "hit": false,
      "t": 190892.48062499997,
      "d": 86.06812500001979,
      "v": 86
    },
    {
      "midi": 59,
      "hit": false,
      "t": 190895.12887499997,
      "d": 83.41987500002142,
      "v": 76
    },
    {
      "midi": 53,
      "hit": false,
      "t": 190903.07362499996,
      "d": 95.33700000002864,
      "v": 74
    },
    {
      "midi": 62,
      "hit": false,
      "t": 190907.04599999997,
      "d": 71.5027500000142,
      "v": 56
    },
    {
      "midi": 59,
      "hit": false,
      "t": 190916.31487500021,
      "d": 78.12337499999558,
      "v": 87
    },
    {
      "midi": 62,
      "hit": false,
      "t": 190920.28725000023,
      "d": 68.85449999998673,
      "v": 87
    },
    {
      "midi": 71,
      "hit": false,
      "t": 190924.25962500006,
      "d": 72.82687500002794,
      "v": 105
    },
    {
      "midi": 74,
      "hit": false,
      "t": 190924.25962500006,
      "d": 86.06812500001979,
      "v": 105
    },
    {
      "midi": 68,
      "hit": false,
      "t": 190925.58375000008,
      "d": 56.937375000008615,
      "v": 105
    },
    {
      "midi": 65,
      "hit": false,
      "t": 190925.58375000008,
      "d": 82.09575000000768,
      "v": 105
    },
    {
      "midi": 41,
      "hit": false,
      "t": 190928.23199999984,
      "d": 230.39775000000373,
      "v": 127
    },
    {
      "midi": 63,
      "hit": false,
      "t": 191161.27799999996,
      "d": 1705.4730000000272,
      "v": 78
    },
    {
      "midi": 72,
      "hit": false,
      "t": 191166.57449999996,
      "d": 1713.4177500000224,
      "v": 78
    },
    {
      "midi": 67,
      "hit": false,
      "t": 191173.19512499997,
      "d": 1704.1488750000135,
      "v": 78
    },
    {
      "midi": 51,
      "hit": false,
      "t": 191182.46399999986,
      "d": 2033.8559999999707,
      "v": 83
    },
    {
      "midi": 55,
      "hit": false,
      "t": 191182.46399999986,
      "d": 2033.8559999999707,
      "v": 83
    },
    {
      "midi": 58,
      "hit": false,
      "t": 191182.46399999986,
      "d": 2033.8559999999707,
      "v": 83
    },
    {
      "midi": 60,
      "hit": false,
      "t": 191182.46399999986,
      "d": 2033.8559999999707,
      "v": 83
    },
    {
      "midi": 91,
      "hit": false,
      "t": 191182.46399999986,
      "d": 3858.5002499999828,
      "v": 99
    },
    {
      "midi": 60,
      "hit": false,
      "t": 191182.46400000018,
      "d": 2495.975624999992,
      "v": 127
    },
    {
      "midi": 39,
      "hit": false,
      "t": 191436.69599999985,
      "d": 14.565375000005588,
      "v": 127
    },
    {
      "midi": 67,
      "hit": false,
      "t": 191937.2152500001,
      "d": 87.39225000000442,
      "v": 105
    },
    {
      "midi": 43,
      "hit": false,
      "t": 191937.2152500002,
      "d": 88.71637499998906,
      "v": 106
    },
    {
      "midi": 55,
      "hit": false,
      "t": 191938.5393750001,
      "d": 94.0128749999858,
      "v": 105
    },
    {
      "midi": 34,
      "hit": false,
      "t": 191945.15999999986,
      "d": 165.515625,
      "v": 127
    },
    {
      "midi": 48,
      "hit": false,
      "t": 192160.992375,
      "d": 227.74950000000536,
      "v": 85
    },
    {
      "midi": 72,
      "hit": false,
      "t": 192191.44725000008,
      "d": 221.12887500002398,
      "v": 105
    },
    {
      "midi": 60,
      "hit": false,
      "t": 192192.7713750001,
      "d": 197.29462500000955,
      "v": 105
    },
    {
      "midi": 39,
      "hit": false,
      "t": 192199.39199999985,
      "d": 111.22649999998976,
      "v": 112
    },
    {
      "midi": 48,
      "hit": false,
      "t": 192212.6332500002,
      "d": 91.36462499998743,
      "v": 120
    },
    {
      "midi": 46,
      "hit": false,
      "t": 192447.003375,
      "d": 83.41987499999232,
      "v": 86
    },
    {
      "midi": 70,
      "hit": false,
      "t": 192449.65162500012,
      "d": 70.17862500000047,
      "v": 105
    },
    {
      "midi": 58,
      "hit": false,
      "t": 192450.97575000013,
      "d": 71.5027499999851,
      "v": 105
    },
    {
      "midi": 46,
      "hit": false,
      "t": 192452.29987500017,
      "d": 88.71637499998906,
      "v": 127
    },
    {
      "midi": 39,
      "hit": false,
      "t": 192453.62399999984,
      "d": 328.38300000000163,
      "v": 127
    },
    {
      "midi": 51,
      "hit": false,
      "t": 192686.66999999998,
      "d": 62.233875000005355,
      "v": 100
    },
    {
      "midi": 63,
      "hit": false,
      "t": 192706.5318750001,
      "d": 66.20624999998836,
      "v": 105
    },
    {
      "midi": 75,
      "hit": false,
      "t": 192709.1801250001,
      "d": 63.55799999998999,
      "v": 105
    },
    {
      "midi": 51,
      "hit": false,
      "t": 192709.18012500016,
      "d": 72.82687499999884,
      "v": 96
    },
    {
      "midi": 46,
      "hit": false,
      "t": 192938.25375,
      "d": 94.0128749999858,
      "v": 127
    },
    {
      "midi": 46,
      "hit": false,
      "t": 192956.79150000017,
      "d": 177.43275000000722,
      "v": 112
    },
    {
      "midi": 34,
      "hit": false,
      "t": 192962.08799999984,
      "d": 127.11600000000908,
      "v": 127
    },
    {
      "midi": 58,
      "hit": false,
      "t": 192963.4121250001,
      "d": 90.0405000000028,
      "v": 105
    },
    {
      "midi": 70,
      "hit": false,
      "t": 192966.0603750001,
      "d": 88.71637500001816,
      "v": 105
    },
    {
      "midi": 52,
      "hit": false,
      "t": 193216.31999999983,
      "d": 2033.8559999999998,
      "v": 83
    },
    {
      "midi": 58,
      "hit": false,
      "t": 193216.31999999983,
      "d": 2033.8559999999998,
      "v": 83
    },
    {
      "midi": 63,
      "hit": false,
      "t": 193216.31999999983,
      "d": 2033.8559999999998,
      "v": 83
    },
    {
      "midi": 36,
      "hit": false,
      "t": 193216.31999999986,
      "d": 136.38487499998882,
      "v": 127
    },
    {
      "midi": 48,
      "hit": false,
      "t": 193430.82825,
      "d": 507.1398749999935,
      "v": 94
    },
    {
      "midi": 48,
      "hit": false,
      "t": 193463.93137500016,
      "d": 1599.5430000000051,
      "v": 94
    },
    {
      "midi": 72,
      "hit": false,
      "t": 193469.2278750001,
      "d": 1664.4251250000088,
      "v": 105
    },
    {
      "midi": 36,
      "hit": false,
      "t": 193470.55199999985,
      "d": 190.67399999999907,
      "v": 127
    },
    {
      "midi": 60,
      "hit": false,
      "t": 193471.8761250001,
      "d": 1663.1010000000242,
      "v": 105
    },
    {
      "midi": 36,
      "hit": false,
      "t": 193724.78399999984,
      "d": 148.30199999999604,
      "v": 127
    },
    {
      "midi": 67,
      "hit": false,
      "t": 193724.78400000016,
      "d": 395.9133750000037,
      "v": 94
    },
    {
      "midi": 36,
      "hit": false,
      "t": 193979.01599999983,
      "d": 135.0607500000042,
      "v": 127
    },
    {
      "midi": 36,
      "hit": false,
      "t": 194233.24799999985,
      "d": 129.76425000000745,
      "v": 120
    },
    {
      "midi": 67,
      "hit": false,
      "t": 194233.24800000017,
      "d": 345.5966250000056,
      "v": 127
    },
    {
      "midi": 35,
      "hit": false,
      "t": 194258.406375,
      "d": 37.075500000006286,
      "v": 47
    },
    {
      "midi": 38,
      "hit": false,
      "t": 194319.316125,
      "d": 84.74400000000605,
      "v": 57
    },
    {
      "midi": 40,
      "hit": false,
      "t": 194361.68812500002,
      "d": 52.96499999999651,
      "v": 64
    },
    {
      "midi": 42,
      "hit": false,
      "t": 194402.736,
      "d": 52.96499999999651,
      "v": 112
    },
    {
      "midi": 45,
      "hit": false,
      "t": 194450.4045,
      "d": 64.88212500000373,
      "v": 112
    },
    {
      "midi": 36,
      "hit": false,
      "t": 194487.47999999986,
      "d": 227.74950000000536,
      "v": 127
    },
    {
      "midi": 47,
      "hit": false,
      "t": 194503.3695,
      "d": 50.31675000002724,
      "v": 88
    },
    {
      "midi": 50,
      "hit": false,
      "t": 194549.71387500002,
      "d": 56.937375000008615,
      "v": 95
    },
    {
      "midi": 52,
      "hit": false,
      "t": 194594.73412500002,
      "d": 42.37200000000303,
      "v": 103
    },
    {
      "midi": 54,
      "hit": false,
      "t": 194631.80962500002,
      "d": 34.427250000007916,
      "v": 109
    },
    {
      "midi": 57,
      "hit": false,
      "t": 194666.23687500003,
      "d": 51.64087499998277,
      "v": 115
    },
    {
      "midi": 59,
      "hit": false,
      "t": 194704.63650000002,
      "d": 42.37200000000303,
      "v": 121
    },
    {
      "midi": 38,
      "hit": false,
      "t": 194741.71199999988,
      "d": 229.07362499999,
      "v": 127
    },
    {
      "midi": 67,
      "hit": false,
      "t": 194741.71200000017,
      "d": 227.74950000000536,
      "v": 120
    },
    {
      "midi": 62,
      "hit": false,
      "t": 194748.33262500004,
      "d": 47.66849999999977,
      "v": 123
    },
    {
      "midi": 64,
      "hit": false,
      "t": 194789.38050000003,
      "d": 41.047875000018394,
      "v": 116
    },
    {
      "midi": 66,
      "hit": false,
      "t": 194823.80775000004,
      "d": 41.047875000018394,
      "v": 111
    },
    {
      "midi": 69,
      "hit": false,
      "t": 194864.85562500005,
      "d": 54.289125000010245,
      "v": 106
    },
    {
      "midi": 71,
      "hit": false,
      "t": 194915.17237500005,
      "d": 43.696125000016764,
      "v": 99
    },
    {
      "midi": 74,
      "hit": false,
      "t": 194961.51675000007,
      "d": 52.96499999999651,
      "v": 93
    },
    {
      "midi": 39,
      "hit": false,
      "t": 194995.94399999987,
      "d": 243.63899999999558,
      "v": 127
    },
    {
      "midi": 76,
      "hit": false,
      "t": 195009.18525000007,
      "d": 41.04787499998929,
      "v": 87
    },
    {
      "midi": 78,
      "hit": false,
      "t": 195044.93662500006,
      "d": 33.10312499999418,
      "v": 82
    },
    {
      "midi": 81,
      "hit": false,
      "t": 195078.03975000005,
      "d": 50.31674999999814,
      "v": 78
    },
    {
      "midi": 83,
      "hit": false,
      "t": 195123.06000000006,
      "d": 34.427250000007916,
      "v": 72
    },
    {
      "midi": 86,
      "hit": false,
      "t": 195161.45962500008,
      "d": 43.69612499998766,
      "v": 67
    },
    {
      "midi": 88,
      "hit": false,
      "t": 195202.50750000007,
      "d": 27.80662499999744,
      "v": 61
    },
    {
      "midi": 90,
      "hit": false,
      "t": 195231.63825000008,
      "d": 22.5101250000007,
      "v": 57
    },
    {
      "midi": 53,
      "hit": false,
      "t": 195250.17599999983,
      "d": 2033.8559999999998,
      "v": 83
    },
    {
      "midi": 56,
      "hit": false,
      "t": 195250.17599999983,
      "d": 2033.8559999999998,
      "v": 83
    },
    {
      "midi": 60,
      "hit": false,
      "t": 195250.17599999983,
      "d": 2033.8559999999998,
      "v": 83
    },
    {
      "midi": 63,
      "hit": false,
      "t": 195250.17599999983,
      "d": 2033.8559999999998,
      "v": 83
    },
    {
      "midi": 96,
      "hit": false,
      "t": 195250.17599999983,
      "d": 4083.6014999999315,
      "v": 99
    },
    {
      "midi": 41,
      "hit": false,
      "t": 195250.17599999986,
      "d": 129.76425000000745,
      "v": 127
    },
    {
      "midi": 72,
      "hit": false,
      "t": 195250.17599999998,
      "d": 4034.60887499986,
      "v": 78
    },
    {
      "midi": 75,
      "hit": false,
      "t": 195250.17599999998,
      "d": 4055.794874999876,
      "v": 78
    },
    {
      "midi": 68,
      "hit": false,
      "t": 195250.17599999998,
      "d": 4066.3878749998985,
      "v": 78
    },
    {
      "midi": 67,
      "hit": false,
      "t": 195250.17600000018,
      "d": 718.9998750000086,
      "v": 127
    },
    {
      "midi": 41,
      "hit": false,
      "t": 195504.40799999988,
      "d": 202.5911250000063,
      "v": 127
    },
    {
      "midi": 63,
      "hit": false,
      "t": 195741.42637499998,
      "d": 84.74400000003516,
      "v": 69
    },
    {
      "midi": 60,
      "hit": false,
      "t": 195750.69525,
      "d": 90.0405000000319,
      "v": 66
    },
    {
      "midi": 67,
      "hit": false,
      "t": 195754.667625,
      "d": 94.0128750000149,
      "v": 85
    },
    {
      "midi": 56,
      "hit": false,
      "t": 195755.99175000002,
      "d": 92.68875000000116,
      "v": 80
    },
    {
      "midi": 75,
      "hit": false,
      "t": 195757.31587500012,
      "d": 113.87475000001723,
      "v": 105
    },
    {
      "midi": 72,
      "hit": false,
      "t": 195757.31587500012,
      "d": 120.4953750000277,
      "v": 105
    },
    {
      "midi": 68,
      "hit": false,
      "t": 195757.31587500012,
      "d": 127.11600000003818,
      "v": 105
    },
    {
      "midi": 79,
      "hit": false,
      "t": 195758.64000000013,
      "d": 125.79187500002445,
      "v": 105
    },
    {
      "midi": 63,
      "hit": false,
      "t": 195759.96412500017,
      "d": 82.09574999997858,
      "v": 86
    },
    {
      "midi": 67,
      "hit": false,
      "t": 195767.90887500017,
      "d": 46.34437499998603,
      "v": 81
    },
    {
      "midi": 36,
      "hit": false,
      "t": 196012.8719999999,
      "d": 214.5082500000135,
      "v": 127
    },
    {
      "midi": 60,
      "hit": false,
      "t": 196012.87200000018,
      "d": 491.25037500000326,
      "v": 127
    },
    {
      "midi": 41,
      "hit": false,
      "t": 196267.1039999999,
      "d": 135.0607500000042,
      "v": 127
    },
    {
      "midi": 63,
      "hit": false,
      "t": 196509.418875,
      "d": 402.5340000000142,
      "v": 80
    },
    {
      "midi": 60,
      "hit": false,
      "t": 196517.363625,
      "d": 385.32037500001024,
      "v": 74
    },
    {
      "midi": 63,
      "hit": false,
      "t": 196518.68775000016,
      "d": 403.85812500002794,
      "v": 86
    },
    {
      "midi": 56,
      "hit": false,
      "t": 196520.011875,
      "d": 394.5892500000191,
      "v": 80
    },
    {
      "midi": 41,
      "hit": false,
      "t": 196521.33599999992,
      "d": 195.9704999999958,
      "v": 127
    },
    {
      "midi": 67,
      "hit": false,
      "t": 196521.336,
      "d": 369.4308749999909,
      "v": 94
    },
    {
      "midi": 62,
      "hit": false,
      "t": 196521.33600000018,
      "d": 266.1491249999963,
      "v": 120
    },
    {
      "midi": 79,
      "hit": false,
      "t": 196522.66012500014,
      "d": 362.81025000000955,
      "v": 105
    },
    {
      "midi": 72,
      "hit": false,
      "t": 196522.66012500014,
      "d": 383.9962499999965,
      "v": 105
    },
    {
      "midi": 75,
      "hit": false,
      "t": 196522.66012500014,
      "d": 386.6444999999949,
      "v": 105
    },
    {
      "midi": 68,
      "hit": false,
      "t": 196522.66012500014,
      "d": 389.29274999999325,
      "v": 105
    },
    {
      "midi": 67,
      "hit": false,
      "t": 196527.95662500017,
      "d": 387.9686250000086,
      "v": 87
    },
    {
      "midi": 63,
      "hit": false,
      "t": 196775.56800000017,
      "d": 201.26700000002165,
      "v": 127
    },
    {
      "midi": 63,
      "hit": false,
      "t": 197000.66925,
      "d": 70.17862500002957,
      "v": 86
    },
    {
      "midi": 60,
      "hit": false,
      "t": 197009.93812500002,
      "d": 62.23387500003446,
      "v": 74
    },
    {
      "midi": 67,
      "hit": false,
      "t": 197013.91050000003,
      "d": 54.289125000010245,
      "v": 90
    },
    {
      "midi": 56,
      "hit": false,
      "t": 197015.23462500004,
      "d": 88.71637500001816,
      "v": 83
    },
    {
      "midi": 63,
      "hit": false,
      "t": 197023.17937500018,
      "d": 59.585625000006985,
      "v": 93
    },
    {
      "midi": 68,
      "hit": false,
      "t": 197028.47587500012,
      "d": 45.0202500000014,
      "v": 105
    },
    {
      "midi": 75,
      "hit": false,
      "t": 197028.47587500012,
      "d": 46.344375000015134,
      "v": 105
    },
    {
      "midi": 72,
      "hit": false,
      "t": 197028.47587500012,
      "d": 55.61325000002398,
      "v": 105
    },
    {
      "midi": 36,
      "hit": false,
      "t": 197029.79999999993,
      "d": 185.37750000000233,
      "v": 127
    },
    {
      "midi": 65,
      "hit": false,
      "t": 197029.8000000002,
      "d": 267.4732499999809,
      "v": 112
    },
    {
      "midi": 67,
      "hit": false,
      "t": 197029.8000000002,
      "d": 41.04787499998929,
      "v": 87
    },
    {
      "midi": 79,
      "hit": false,
      "t": 197031.12412500012,
      "d": 52.96500000002561,
      "v": 105
    },
    {
      "midi": 56,
      "hit": false,
      "t": 197284.03199999983,
      "d": 1016.9280000000144,
      "v": 83
    },
    {
      "midi": 60,
      "hit": false,
      "t": 197284.03199999983,
      "d": 1016.9280000000144,
      "v": 83
    },
    {
      "midi": 63,
      "hit": false,
      "t": 197284.03199999983,
      "d": 1016.9280000000144,
      "v": 83
    },
    {
      "midi": 34,
      "hit": false,
      "t": 197284.03199999992,
      "d": 120.4953749999986,
      "v": 127
    },
    {
      "midi": 67,
      "hit": false,
      "t": 197284.03200000018,
      "d": 146.9778749999823,
      "v": 127
    },
    {
      "midi": 34,
      "hit": false,
      "t": 197538.2639999999,
      "d": 185.37750000000233,
      "v": 127
    },
    {
      "midi": 67,
      "hit": false,
      "t": 197538.26400000017,
      "d": 460.79550000000745,
      "v": 127
    },
    {
      "midi": 63,
      "hit": false,
      "t": 197781.90300000005,
      "d": 71.5027500000142,
      "v": 96
    },
    {
      "midi": 60,
      "hit": false,
      "t": 197789.84775000004,
      "d": 70.17862500002957,
      "v": 81
    },
    {
      "midi": 56,
      "hit": false,
      "t": 197791.17187500006,
      "d": 80.77162500002305,
      "v": 86
    },
    {
      "midi": 79,
      "hit": false,
      "t": 197791.17187500015,
      "d": 70.17862500000047,
      "v": 105
    },
    {
      "midi": 68,
      "hit": false,
      "t": 197791.17187500015,
      "d": 129.76425000000745,
      "v": 105
    },
    {
      "midi": 67,
      "hit": false,
      "t": 197793.82012500006,
      "d": 67.5303750000312,
      "v": 94
    },
    {
      "midi": 72,
      "hit": false,
      "t": 197793.82012500014,
      "d": 94.0128750000149,
      "v": 105
    },
    {
      "midi": 75,
      "hit": false,
      "t": 197793.82012500014,
      "d": 94.0128750000149,
      "v": 105
    },
    {
      "midi": 63,
      "hit": false,
      "t": 197796.4683750002,
      "d": 74.15100000001257,
      "v": 93
    },
    {
      "midi": 67,
      "hit": false,
      "t": 197805.7372500002,
      "d": 50.31674999999814,
      "v": 81
    },
    {
      "midi": 41,
      "hit": false,
      "t": 198046.72799999992,
      "d": 161.5432499999879,
      "v": 127
    },
    {
      "midi": 65,
      "hit": false,
      "t": 198046.72800000018,
      "d": 438.28537500000675,
      "v": 127
    },
    {
      "midi": 56,
      "hit": false,
      "t": 198300.95999999985,
      "d": 1016.9279999999271,
      "v": 83
    },
    {
      "midi": 62,
      "hit": false,
      "t": 198300.95999999985,
      "d": 1016.9279999999271,
      "v": 83
    },
    {
      "midi": 65,
      "hit": false,
      "t": 198300.95999999985,
      "d": 1016.9279999999271,
      "v": 83
    },
    {
      "midi": 46,
      "hit": false,
      "t": 198300.9599999999,
      "d": 168.16387499999837,
      "v": 127
    },
    {
      "midi": 62,
      "hit": false,
      "t": 198548.5713750002,
      "d": 362.81025000000955,
      "v": 83
    },
    {
      "midi": 62,
      "hit": false,
      "t": 198551.21962500009,
      "d": 397.23750000001746,
      "v": 81
    },
    {
      "midi": 60,
      "hit": false,
      "t": 198552.5437500001,
      "d": 387.9686250000086,
      "v": 74
    },
    {
      "midi": 56,
      "hit": false,
      "t": 198552.5437500001,
      "d": 402.5340000000142,
      "v": 80
    },
    {
      "midi": 65,
      "hit": false,
      "t": 198552.54375000022,
      "d": 360.1620000000112,
      "v": 83
    },
    {
      "midi": 77,
      "hit": false,
      "t": 198553.86787500014,
      "d": 389.29275000002235,
      "v": 105
    },
    {
      "midi": 68,
      "hit": false,
      "t": 198553.86787500014,
      "d": 418.4235000000335,
      "v": 105
    },
    {
      "midi": 72,
      "hit": false,
      "t": 198553.86787500014,
      "d": 425.044125000044,
      "v": 105
    },
    {
      "midi": 41,
      "hit": false,
      "t": 198555.1919999999,
      "d": 173.4603749999951,
      "v": 127
    },
    {
      "midi": 74,
      "hit": false,
      "t": 198555.19200000016,
      "d": 414.4511250000214,
      "v": 105
    },
    {
      "midi": 63,
      "hit": false,
      "t": 198555.19200000018,
      "d": 237.0183750000142,
      "v": 127
    },
    {
      "midi": 65,
      "hit": false,
      "t": 198557.8402500001,
      "d": 385.32037500001024,
      "v": 76
    },
    {
      "midi": 46,
      "hit": false,
      "t": 198809.42399999988,
      "d": 219.80475000001024,
      "v": 127
    },
    {
      "midi": 62,
      "hit": false,
      "t": 198809.4240000002,
      "d": 219.80475000001024,
      "v": 127
    },
    {
      "midi": 62,
      "hit": false,
      "t": 199046.44237500022,
      "d": 75.47512500002631,
      "v": 76
    },
    {
      "midi": 65,
      "hit": false,
      "t": 199050.41475000023,
      "d": 59.585625000006985,
      "v": 81
    },
    {
      "midi": 62,
      "hit": false,
      "t": 199058.3595000001,
      "d": 76.79925000001094,
      "v": 83
    },
    {
      "midi": 60,
      "hit": false,
      "t": 199058.3595000001,
      "d": 87.39225000000442,
      "v": 81
    },
    {
      "midi": 68,
      "hit": false,
      "t": 199062.33187500018,
      "d": 71.5027500000142,
      "v": 105
    },
    {
      "midi": 44,
      "hit": false,
      "t": 199063.6559999999,
      "d": 222.45300000000861,
      "v": 127
    },
    {
      "midi": 63,
      "hit": false,
      "t": 199063.65600000022,
      "d": 189.34987500001444,
      "v": 127
    },
    {
      "midi": 77,
      "hit": false,
      "t": 199064.98012500018,
      "d": 56.937375000008615,
      "v": 105
    },
    {
      "midi": 74,
      "hit": false,
      "t": 199064.98012500018,
      "d": 67.5303750000021,
      "v": 105
    },
    {
      "midi": 72,
      "hit": false,
      "t": 199064.98012500018,
      "d": 72.82687500002794,
      "v": 105
    },
    {
      "midi": 65,
      "hit": false,
      "t": 199067.62837500012,
      "d": 67.5303750000021,
      "v": 83
    },
    {
      "midi": 56,
      "hit": false,
      "t": 199070.27662500012,
      "d": 80.77162499999395,
      "v": 77
    },
    {
      "midi": 70,
      "hit": false,
      "t": 199282.13662499984,
      "d": 2069.6073750000214,
      "v": 78
    },
    {
      "midi": 65,
      "hit": false,
      "t": 199286.10899999985,
      "d": 2065.6350000000093,
      "v": 78
    },
    {
      "midi": 74,
      "hit": false,
      "t": 199286.10899999985,
      "d": 2065.6350000000093,
      "v": 78
    },
    {
      "midi": 43,
      "hit": false,
      "t": 199317.88799999977,
      "d": 2033.8559999999707,
      "v": 83
    },
    {
      "midi": 53,
      "hit": false,
      "t": 199317.88799999977,
      "d": 2033.8559999999707,
      "v": 83
    },
    {
      "midi": 58,
      "hit": false,
      "t": 199317.88799999977,
      "d": 2033.8559999999707,
      "v": 83
    },
    {
      "midi": 62,
      "hit": false,
      "t": 199317.88799999977,
      "d": 2033.8559999999707,
      "v": 83
    },
    {
      "midi": 94,
      "hit": false,
      "t": 199317.88799999977,
      "d": 4095.518624999968,
      "v": 99
    },
    {
      "midi": 43,
      "hit": false,
      "t": 199317.88799999992,
      "d": 158.89499999998952,
      "v": 127
    },
    {
      "midi": 65,
      "hit": false,
      "t": 199317.88800000024,
      "d": 764.02012500001,
      "v": 127
    },
    {
      "midi": 43,
      "hit": false,
      "t": 199572.1199999999,
      "d": 193.32224999999744,
      "v": 127
    },
    {
      "midi": 58,
      "hit": false,
      "t": 199797.22125000012,
      "d": 66.20625000004657,
      "v": 93
    },
    {
      "midi": 62,
      "hit": false,
      "t": 199806.49012500013,
      "d": 67.5303750000312,
      "v": 76
    },
    {
      "midi": 55,
      "hit": false,
      "t": 199813.11075000014,
      "d": 111.22650000001886,
      "v": 81
    },
    {
      "midi": 62,
      "hit": false,
      "t": 199814.43487500024,
      "d": 74.15100000001257,
      "v": 83
    },
    {
      "midi": 65,
      "hit": false,
      "t": 199815.75900000025,
      "d": 64.88212500000373,
      "v": 83
    },
    {
      "midi": 77,
      "hit": false,
      "t": 199821.0555000002,
      "d": 135.0607500000333,
      "v": 105
    },
    {
      "midi": 70,
      "hit": false,
      "t": 199821.0555000002,
      "d": 137.70900000003166,
      "v": 105
    },
    {
      "midi": 65,
      "hit": false,
      "t": 199822.37962500015,
      "d": 31.779000000009546,
      "v": 72
    },
    {
      "midi": 74,
      "hit": false,
      "t": 199822.3796250002,
      "d": 129.76425000000745,
      "v": 105
    },
    {
      "midi": 67,
      "hit": false,
      "t": 199822.3796250002,
      "d": 156.24675000002026,
      "v": 105
    },
    {
      "midi": 38,
      "hit": false,
      "t": 200080.58399999992,
      "d": 195.9704999999958,
      "v": 127
    },
    {
      "midi": 58,
      "hit": false,
      "t": 200080.58400000024,
      "d": 448.87837500000023,
      "v": 127
    },
    {
      "midi": 43,
      "hit": false,
      "t": 200334.8159999999,
      "d": 136.38487499998882,
      "v": 127
    },
    {
      "midi": 62,
      "hit": false,
      "t": 200563.88962500024,
      "d": 402.5340000000142,
      "v": 81
    },
    {
      "midi": 65,
      "hit": false,
      "t": 200565.21375000026,
      "d": 395.9133750000037,
      "v": 85
    },
    {
      "midi": 77,
      "hit": false,
      "t": 200585.07562500023,
      "d": 376.0515000000014,
      "v": 105
    },
    {
      "midi": 70,
      "hit": false,
      "t": 200585.07562500023,
      "d": 395.9133750000037,
      "v": 105
    },
    {
      "midi": 67,
      "hit": false,
      "t": 200586.39975000024,
      "d": 380.0238749999844,
      "v": 105
    },
    {
      "midi": 74,
      "hit": false,
      "t": 200586.39975000024,
      "d": 397.23749999998836,
      "v": 105
    },
    {
      "midi": 43,
      "hit": false,
      "t": 200589.0479999999,
      "d": 402.5340000000142,
      "v": 127
    },
    {
      "midi": 60,
      "hit": false,
      "t": 200589.04800000024,
      "d": 239.66662500001257,
      "v": 127
    },
    {
      "midi": 58,
      "hit": false,
      "t": 200590.37212500017,
      "d": 352.21725000001607,
      "v": 93
    },
    {
      "midi": 55,
      "hit": false,
      "t": 200594.34450000018,
      "d": 391.9409999999916,
      "v": 81
    },
    {
      "midi": 62,
      "hit": false,
      "t": 200598.3168750002,
      "d": 365.4584999999788,
      "v": 87
    },
    {
      "midi": 65,
      "hit": false,
      "t": 200608.9098750002,
      "d": 346.9207499999902,
      "v": 87
    },
    {
      "midi": 62,
      "hit": false,
      "t": 200843.28000000026,
      "d": 230.39775000000373,
      "v": 127
    },
    {
      "midi": 58,
      "hit": false,
      "t": 201061.76062500017,
      "d": 60.90975000002072,
      "v": 86
    },
    {
      "midi": 62,
      "hit": false,
      "t": 201072.35362500016,
      "d": 64.88212500003283,
      "v": 83
    },
    {
      "midi": 55,
      "hit": false,
      "t": 201081.62250000017,
      "d": 99.30937500001164,
      "v": 70
    },
    {
      "midi": 65,
      "hit": false,
      "t": 201082.9466250002,
      "d": 33.10312499999418,
      "v": 68
    },
    {
      "midi": 62,
      "hit": false,
      "t": 201082.94662500024,
      "d": 67.5303750000312,
      "v": 83
    },
    {
      "midi": 65,
      "hit": false,
      "t": 201086.91900000026,
      "d": 56.937375000008615,
      "v": 85
    },
    {
      "midi": 70,
      "hit": false,
      "t": 201093.53962500024,
      "d": 67.5303750000021,
      "v": 105
    },
    {
      "midi": 77,
      "hit": false,
      "t": 201094.86375000025,
      "d": 38.39962499999092,
      "v": 105
    },
    {
      "midi": 67,
      "hit": false,
      "t": 201094.86375000025,
      "d": 58.26149999999325,
      "v": 105
    },
    {
      "midi": 74,
      "hit": false,
      "t": 201094.86375000025,
      "d": 70.17862500000047,
      "v": 105
    },
    {
      "midi": 38,
      "hit": false,
      "t": 201097.5119999999,
      "d": 178.75687499999185,
      "v": 127
    },
    {
      "midi": 63,
      "hit": false,
      "t": 201097.51200000028,
      "d": 144.32962500001304,
      "v": 106
    },
    {
      "midi": 48,
      "hit": false,
      "t": 201351.74399999974,
      "d": 2033.8559999999998,
      "v": 83
    },
    {
      "midi": 55,
      "hit": false,
      "t": 201351.74399999974,
      "d": 2033.8559999999998,
      "v": 83
    },
    {
      "midi": 58,
      "hit": false,
      "t": 201351.74399999974,
      "d": 2033.8559999999998,
      "v": 83
    },
    {
      "midi": 63,
      "hit": false,
      "t": 201351.74399999974,
      "d": 2033.8559999999998,
      "v": 83
    },
    {
      "midi": 70,
      "hit": false,
      "t": 201351.74399999986,
      "d": 1787.5687500000058,
      "v": 78
    },
    {
      "midi": 36,
      "hit": false,
      "t": 201351.7439999999,
      "d": 121.81950000001234,
      "v": 127
    },
    {
      "midi": 65,
      "hit": false,
      "t": 201351.7440000003,
      "d": 97.9852499999979,
      "v": 94
    },
    {
      "midi": 75,
      "hit": false,
      "t": 201362.33699999985,
      "d": 1763.7345000000205,
      "v": 78
    },
    {
      "midi": 67,
      "hit": false,
      "t": 201363.66112499987,
      "d": 1757.11387500001,
      "v": 78
    },
    {
      "midi": 36,
      "hit": false,
      "t": 201605.9759999999,
      "d": 316.4658749999944,
      "v": 127
    },
    {
      "midi": 65,
      "hit": false,
      "t": 201605.9760000003,
      "d": 421.0717500000028,
      "v": 127
    },
    {
      "midi": 58,
      "hit": false,
      "t": 201835.0496250002,
      "d": 71.5027500000142,
      "v": 112
    },
    {
      "midi": 62,
      "hit": false,
      "t": 201841.6702500002,
      "d": 68.85450000001583,
      "v": 83
    },
    {
      "midi": 65,
      "hit": false,
      "t": 201842.99437500027,
      "d": 82.09575000000768,
      "v": 87
    },
    {
      "midi": 62,
      "hit": false,
      "t": 201844.31850000028,
      "d": 63.55799999998999,
      "v": 76
    },
    {
      "midi": 67,
      "hit": false,
      "t": 201857.55975000025,
      "d": 87.39225000000442,
      "v": 105
    },
    {
      "midi": 70,
      "hit": false,
      "t": 201857.55975000025,
      "d": 90.0405000000028,
      "v": 105
    },
    {
      "midi": 55,
      "hit": false,
      "t": 201858.8838750002,
      "d": 91.36462500001653,
      "v": 85
    },
    {
      "midi": 74,
      "hit": false,
      "t": 201858.88387500026,
      "d": 90.0405000000028,
      "v": 105
    },
    {
      "midi": 77,
      "hit": false,
      "t": 201858.88387500026,
      "d": 92.68875000000116,
      "v": 105
    },
    {
      "midi": 65,
      "hit": false,
      "t": 201860.20800000022,
      "d": 30.45487499999581,
      "v": 70
    },
    {
      "midi": 43,
      "hit": false,
      "t": 202114.43999999992,
      "d": 185.37750000000233,
      "v": 127
    },
    {
      "midi": 63,
      "hit": false,
      "t": 202114.4400000003,
      "d": 386.6444999999949,
      "v": 127
    },
    {
      "midi": 48,
      "hit": false,
      "t": 202368.6719999999,
      "d": 182.72925000000396,
      "v": 127
    },
    {
      "midi": 63,
      "hit": false,
      "t": 202605.69037500027,
      "d": 413.1270000000077,
      "v": 93
    },
    {
      "midi": 60,
      "hit": false,
      "t": 202608.33862500027,
      "d": 410.4787500000093,
      "v": 83
    },
    {
      "midi": 75,
      "hit": false,
      "t": 202621.57987500026,
      "d": 406.5063749999972,
      "v": 105
    },
    {
      "midi": 67,
      "hit": false,
      "t": 202621.57987500026,
      "d": 415.77525000000605,
      "v": 105
    },
    {
      "midi": 72,
      "hit": false,
      "t": 202621.57987500026,
      "d": 417.0993750000198,
      "v": 105
    },
    {
      "midi": 70,
      "hit": false,
      "t": 202621.57987500026,
      "d": 419.74762500001816,
      "v": 105
    },
    {
      "midi": 46,
      "hit": false,
      "t": 202622.90399999992,
      "d": 197.29462500000955,
      "v": 127
    },
    {
      "midi": 62,
      "hit": false,
      "t": 202622.9040000003,
      "d": 243.63899999999558,
      "v": 112
    },
    {
      "midi": 58,
      "hit": false,
      "t": 202638.79350000023,
      "d": 377.37562499998603,
      "v": 96
    },
    {
      "midi": 63,
      "hit": false,
      "t": 202644.09000000023,
      "d": 376.0515000000014,
      "v": 77
    },
    {
      "midi": 60,
      "hit": false,
      "t": 202644.09000000023,
      "d": 383.9962499999965,
      "v": 94
    },
    {
      "midi": 55,
      "hit": false,
      "t": 202652.03475000022,
      "d": 381.34799999999814,
      "v": 76
    },
    {
      "midi": 44,
      "hit": false,
      "t": 202877.13599999994,
      "d": 170.81212499999674,
      "v": 127
    },
    {
      "midi": 60,
      "hit": false,
      "t": 202877.1360000003,
      "d": 191.9981250000128,
      "v": 127
    },
    {
      "midi": 60,
      "hit": false,
      "t": 203122.09912500027,
      "d": 58.26150000002235,
      "v": 72
    },
    {
      "midi": 63,
      "hit": false,
      "t": 203123.42325000028,
      "d": 48.992625000013504,
      "v": 96
    },
    {
      "midi": 70,
      "hit": false,
      "t": 203130.04387500026,
      "d": 78.12337500002468,
      "v": 105
    },
    {
      "midi": 75,
      "hit": false,
      "t": 203130.04387500026,
      "d": 83.41987500002142,
      "v": 105
    },
    {
      "midi": 43,
      "hit": false,
      "t": 203131.36799999993,
      "d": 195.9704999999958,
      "v": 127
    },
    {
      "midi": 62,
      "hit": false,
      "t": 203131.3680000003,
      "d": 201.26699999999255,
      "v": 120
    },
    {
      "midi": 67,
      "hit": false,
      "t": 203132.69212500026,
      "d": 70.17862500000047,
      "v": 105
    },
    {
      "midi": 72,
      "hit": false,
      "t": 203132.69212500026,
      "d": 71.5027500000142,
      "v": 105
    },
    {
      "midi": 58,
      "hit": false,
      "t": 203139.31275000022,
      "d": 60.90975000002072,
      "v": 100
    },
    {
      "midi": 60,
      "hit": false,
      "t": 203140.63687500023,
      "d": 62.23387500003446,
      "v": 97
    },
    {
      "midi": 63,
      "hit": false,
      "t": 203141.96100000024,
      "d": 59.585625000006985,
      "v": 106
    },
    {
      "midi": 55,
      "hit": false,
      "t": 203156.52637500025,
      "d": 88.71637500001816,
      "v": 85
    },
    {
      "midi": 75,
      "hit": false,
      "t": 203341.90387499987,
      "d": 3073.294125000015,
      "v": 78
    },
    {
      "midi": 68,
      "hit": false,
      "t": 203343.2279999999,
      "d": 3071.970000000001,
      "v": 78
    },
    {
      "midi": 72,
      "hit": false,
      "t": 203347.2003749999,
      "d": 3067.997624999989,
      "v": 78
    },
    {
      "midi": 41,
      "hit": false,
      "t": 203385.59999999974,
      "d": 2033.8559999999998,
      "v": 83
    },
    {
      "midi": 56,
      "hit": false,
      "t": 203385.59999999974,
      "d": 2033.8559999999998,
      "v": 83
    },
    {
      "midi": 60,
      "hit": false,
      "t": 203385.59999999974,
      "d": 2033.8559999999998,
      "v": 83
    },
    {
      "midi": 63,
      "hit": false,
      "t": 203385.59999999974,
      "d": 2033.8559999999998,
      "v": 83
    },
    {
      "midi": 92,
      "hit": false,
      "t": 203385.59999999974,
      "d": 4070.3602499999106,
      "v": 99
    },
    {
      "midi": 41,
      "hit": false,
      "t": 203385.59999999992,
      "d": 132.41250000000582,
      "v": 127
    },
    {
      "midi": 63,
      "hit": false,
      "t": 203385.6000000003,
      "d": 762.6959999999963,
      "v": 127
    },
    {
      "midi": 41,
      "hit": false,
      "t": 203639.83199999994,
      "d": 327.0588749999879,
      "v": 127
    },
    {
      "midi": 56,
      "hit": false,
      "t": 203870.22975000026,
      "d": 66.20624999998836,
      "v": 100
    },
    {
      "midi": 63,
      "hit": false,
      "t": 203872.87800000026,
      "d": 58.26149999999325,
      "v": 83
    },
    {
      "midi": 63,
      "hit": false,
      "t": 203875.5262500003,
      "d": 62.233875000005355,
      "v": 96
    },
    {
      "midi": 60,
      "hit": false,
      "t": 203875.5262500003,
      "d": 68.85450000001583,
      "v": 74
    },
    {
      "midi": 60,
      "hit": false,
      "t": 203878.17450000026,
      "d": 38.39962499999092,
      "v": 87
    },
    {
      "midi": 53,
      "hit": false,
      "t": 203886.11925000025,
      "d": 94.0128749999858,
      "v": 87
    },
    {
      "midi": 65,
      "hit": false,
      "t": 203891.41575000028,
      "d": 60.90974999999162,
      "v": 105
    },
    {
      "midi": 68,
      "hit": false,
      "t": 203891.41575000028,
      "d": 70.17862500000047,
      "v": 105
    },
    {
      "midi": 75,
      "hit": false,
      "t": 203891.41575000028,
      "d": 78.12337499999558,
      "v": 105
    },
    {
      "midi": 72,
      "hit": false,
      "t": 203891.41575000028,
      "d": 82.09575000000768,
      "v": 105
    },
    {
      "midi": 36,
      "hit": false,
      "t": 204148.29599999991,
      "d": 222.45300000000861,
      "v": 127
    },
    {
      "midi": 56,
      "hit": false,
      "t": 204148.2960000003,
      "d": 1042.0863750000135,
      "v": 127
    },
    {
      "midi": 41,
      "hit": false,
      "t": 204402.52799999993,
      "d": 154.92262500000652,
      "v": 127
    },
    {
      "midi": 56,
      "hit": false,
      "t": 204638.22225000022,
      "d": 344.27249999999185,
      "v": 96
    },
    {
      "midi": 63,
      "hit": false,
      "t": 204640.8705000003,
      "d": 397.23750000001746,
      "v": 75
    },
    {
      "midi": 63,
      "hit": false,
      "t": 204642.19462500024,
      "d": 344.27249999999185,
      "v": 77
    },
    {
      "midi": 60,
      "hit": false,
      "t": 204644.84287500032,
      "d": 393.26512500000536,
      "v": 63
    },
    {
      "midi": 60,
      "hit": false,
      "t": 204650.13937500023,
      "d": 332.35537499998463,
      "v": 85
    },
    {
      "midi": 53,
      "hit": false,
      "t": 204655.43587500023,
      "d": 338.9759999999951,
      "v": 87
    },
    {
      "midi": 41,
      "hit": false,
      "t": 204656.75999999995,
      "d": 270.1215000000084,
      "v": 127
    },
    {
      "midi": 75,
      "hit": false,
      "t": 204659.4082500003,
      "d": 341.6242499999935,
      "v": 105
    },
    {
      "midi": 72,
      "hit": false,
      "t": 204659.4082500003,
      "d": 348.24487500000396,
      "v": 105
    },
    {
      "midi": 65,
      "hit": false,
      "t": 204659.4082500003,
      "d": 354.86550000001444,
      "v": 105
    },
    {
      "midi": 68,
      "hit": false,
      "t": 204659.4082500003,
      "d": 357.5137500000128,
      "v": 105
    },
    {
      "midi": 56,
      "hit": false,
      "t": 205102.99012500021,
      "d": 63.55800000001909,
      "v": 86
    },
    {
      "midi": 63,
      "hit": false,
      "t": 205112.25900000022,
      "d": 56.937375000008615,
      "v": 93
    },
    {
      "midi": 60,
      "hit": false,
      "t": 205113.58312500024,
      "d": 59.585625000006985,
      "v": 90
    },
    {
      "midi": 53,
      "hit": false,
      "t": 205125.50025000024,
      "d": 95.33699999999953,
      "v": 92
    },
    {
      "midi": 60,
      "hit": false,
      "t": 205146.68625000032,
      "d": 67.5303750000312,
      "v": 74
    },
    {
      "midi": 63,
      "hit": false,
      "t": 205148.01037500033,
      "d": 56.937375000008615,
      "v": 96
    },
    {
      "midi": 68,
      "hit": false,
      "t": 205163.89987500032,
      "d": 58.26150000002235,
      "v": 105
    },
    {
      "midi": 36,
      "hit": false,
      "t": 205165.22399999996,
      "d": 227.74950000000536,
      "v": 127
    },
    {
      "midi": 75,
      "hit": false,
      "t": 205166.54812500032,
      "d": 41.047875000018394,
      "v": 105
    },
    {
      "midi": 65,
      "hit": false,
      "t": 205166.54812500032,
      "d": 47.66850000002887,
      "v": 105
    },
    {
      "midi": 72,
      "hit": false,
      "t": 205167.87225000034,
      "d": 33.10312499999418,
      "v": 105
    },
    {
      "midi": 56,
      "hit": false,
      "t": 205419.45599999974,
      "d": 949.3976250000123,
      "v": 83
    },
    {
      "midi": 60,
      "hit": false,
      "t": 205419.45599999974,
      "d": 953.3700000000244,
      "v": 83
    },
    {
      "midi": 63,
      "hit": false,
      "t": 205419.45599999974,
      "d": 959.9906250000349,
      "v": 83
    },
    {
      "midi": 46,
      "hit": false,
      "t": 205419.45599999974,
      "d": 2033.8559999999125,
      "v": 83
    },
    {
      "midi": 34,
      "hit": false,
      "t": 205419.45599999998,
      "d": 146.9778750000114,
      "v": 127
    },
    {
      "midi": 63,
      "hit": false,
      "t": 205419.4560000003,
      "d": 63.55799999998999,
      "v": 127
    },
    {
      "midi": 34,
      "hit": false,
      "t": 205673.688,
      "d": 264.82500000001164,
      "v": 127
    },
    {
      "midi": 63,
      "hit": false,
      "t": 205673.6880000003,
      "d": 472.71262499998556,
      "v": 127
    },
    {
      "midi": 63,
      "hit": false,
      "t": 205912.03050000034,
      "d": 72.82687499999884,
      "v": 96
    },
    {
      "midi": 60,
      "hit": false,
      "t": 205914.67875000034,
      "d": 78.12337499999558,
      "v": 76
    },
    {
      "midi": 63,
      "hit": false,
      "t": 205916.00287500024,
      "d": 76.79925000001094,
      "v": 100
    },
    {
      "midi": 56,
      "hit": false,
      "t": 205918.65112500024,
      "d": 83.41987500002142,
      "v": 112
    },
    {
      "midi": 60,
      "hit": false,
      "t": 205923.94762500023,
      "d": 80.77162500002305,
      "v": 85
    },
    {
      "midi": 68,
      "hit": false,
      "t": 205923.94762500035,
      "d": 67.5303750000603,
      "v": 105
    },
    {
      "midi": 72,
      "hit": false,
      "t": 205925.27175000036,
      "d": 31.779000000009546,
      "v": 105
    },
    {
      "midi": 75,
      "hit": false,
      "t": 205925.27175000036,
      "d": 33.10312500002328,
      "v": 105
    },
    {
      "midi": 65,
      "hit": false,
      "t": 205925.27175000036,
      "d": 59.58562500003609,
      "v": 105
    },
    {
      "midi": 53,
      "hit": false,
      "t": 205933.21650000024,
      "d": 103.28175000002375,
      "v": 85
    },
    {
      "midi": 41,
      "hit": false,
      "t": 206182.152,
      "d": 207.88762500000303,
      "v": 127
    },
    {
      "midi": 62,
      "hit": false,
      "t": 206182.15200000026,
      "d": 492.5744999999879,
      "v": 127
    },
    {
      "midi": 68,
      "hit": false,
      "t": 206435.0598749999,
      "d": 979.8524999999499,
      "v": 78
    },
    {
      "midi": 62,
      "hit": false,
      "t": 206436.3839999998,
      "d": 912.3221249999187,
      "v": 90
    },
    {
      "midi": 59,
      "hit": false,
      "t": 206436.3839999998,
      "d": 921.5909999999276,
      "v": 90
    },
    {
      "midi": 56,
      "hit": false,
      "t": 206436.3839999998,
      "d": 924.239249999926,
      "v": 90
    },
    {
      "midi": 46,
      "hit": false,
      "t": 206436.384,
      "d": 201.26699999999255,
      "v": 127
    },
    {
      "midi": 71,
      "hit": false,
      "t": 206437.7081249999,
      "d": 975.8801249999378,
      "v": 78
    },
    {
      "midi": 74,
      "hit": false,
      "t": 206444.3287499999,
      "d": 973.2318749999395,
      "v": 78
    },
    {
      "midi": 56,
      "hit": false,
      "t": 206657.51287500028,
      "d": 415.77525000000605,
      "v": 96
    },
    {
      "midi": 59,
      "hit": false,
      "t": 206660.16112500028,
      "d": 422.39587500001653,
      "v": 87
    },
    {
      "midi": 53,
      "hit": false,
      "t": 206665.45762500027,
      "d": 423.72000000003027,
      "v": 74
    },
    {
      "midi": 62,
      "hit": false,
      "t": 206672.07825000028,
      "d": 407.83050000001094,
      "v": 81
    },
    {
      "midi": 62,
      "hit": false,
      "t": 206682.67125000033,
      "d": 338.9760000000242,
      "v": 83
    },
    {
      "midi": 59,
      "hit": false,
      "t": 206686.64362500035,
      "d": 335.0036250000121,
      "v": 74
    },
    {
      "midi": 65,
      "hit": false,
      "t": 206686.6436250004,
      "d": 397.23749999998836,
      "v": 105
    },
    {
      "midi": 68,
      "hit": false,
      "t": 206686.6436250004,
      "d": 403.85812499999884,
      "v": 105
    },
    {
      "midi": 71,
      "hit": false,
      "t": 206686.6436250004,
      "d": 405.1822500000126,
      "v": 105
    },
    {
      "midi": 74,
      "hit": false,
      "t": 206686.6436250004,
      "d": 405.1822500000126,
      "v": 105
    },
    {
      "midi": 44,
      "hit": false,
      "t": 206690.61599999998,
      "d": 214.5082500000135,
      "v": 127
    },
    {
      "midi": 63,
      "hit": false,
      "t": 206690.61600000024,
      "d": 218.4806249999965,
      "v": 127
    },
    {
      "midi": 43,
      "hit": false,
      "t": 206944.848,
      "d": 234.37012499998673,
      "v": 127
    },
    {
      "midi": 62,
      "hit": false,
      "t": 206944.84800000023,
      "d": 485.9538750000065,
      "v": 120
    },
    {
      "midi": 56,
      "hit": false,
      "t": 207163.32862500031,
      "d": 86.06812500001979,
      "v": 86
    },
    {
      "midi": 59,
      "hit": false,
      "t": 207165.9768750003,
      "d": 83.41987500002142,
      "v": 76
    },
    {
      "midi": 53,
      "hit": false,
      "t": 207173.9216250003,
      "d": 95.33700000002864,
      "v": 74
    },
    {
      "midi": 62,
      "hit": false,
      "t": 207177.89400000032,
      "d": 71.5027500000142,
      "v": 56
    },
    {
      "midi": 59,
      "hit": false,
      "t": 207187.16287500036,
      "d": 78.12337499999558,
      "v": 87
    },
    {
      "midi": 62,
      "hit": false,
      "t": 207191.13525000037,
      "d": 68.85449999998673,
      "v": 87
    },
    {
      "midi": 71,
      "hit": false,
      "t": 207195.1076250004,
      "d": 72.82687500002794,
      "v": 105
    },
    {
      "midi": 74,
      "hit": false,
      "t": 207195.1076250004,
      "d": 86.06812500001979,
      "v": 105
    },
    {
      "midi": 68,
      "hit": false,
      "t": 207196.43175000043,
      "d": 56.937375000008615,
      "v": 105
    },
    {
      "midi": 65,
      "hit": false,
      "t": 207196.43175000043,
      "d": 82.09575000000768,
      "v": 105
    },
    {
      "midi": 41,
      "hit": false,
      "t": 207199.08,
      "d": 230.39775000000373,
      "v": 127
    },
    {
      "midi": 63,
      "hit": false,
      "t": 207432.12599999984,
      "d": 1705.4730000000272,
      "v": 78
    },
    {
      "midi": 72,
      "hit": false,
      "t": 207437.42249999984,
      "d": 1713.4177500000224,
      "v": 78
    },
    {
      "midi": 67,
      "hit": false,
      "t": 207444.04312499985,
      "d": 1704.1488750000135,
      "v": 78
    },
    {
      "midi": 51,
      "hit": false,
      "t": 207453.31199999966,
      "d": 2033.8559999999707,
      "v": 83
    },
    {
      "midi": 55,
      "hit": false,
      "t": 207453.31199999966,
      "d": 2033.8559999999707,
      "v": 83
    },
    {
      "midi": 58,
      "hit": false,
      "t": 207453.31199999966,
      "d": 2033.8559999999707,
      "v": 83
    },
    {
      "midi": 60,
      "hit": false,
      "t": 207453.31199999966,
      "d": 2033.8559999999707,
      "v": 83
    },
    {
      "midi": 91,
      "hit": false,
      "t": 207453.31199999966,
      "d": 3858.5002499999828,
      "v": 99
    },
    {
      "midi": 60,
      "hit": false,
      "t": 207453.31200000024,
      "d": 2495.975624999992,
      "v": 127
    },
    {
      "midi": 39,
      "hit": false,
      "t": 207707.544,
      "d": 14.565375000005588,
      "v": 127
    },
    {
      "midi": 43,
      "hit": false,
      "t": 208208.06325000036,
      "d": 88.71637499998906,
      "v": 106
    },
    {
      "midi": 67,
      "hit": false,
      "t": 208208.06325000044,
      "d": 87.39225000000442,
      "v": 105
    },
    {
      "midi": 55,
      "hit": false,
      "t": 208209.38737500046,
      "d": 94.0128749999858,
      "v": 105
    },
    {
      "midi": 34,
      "hit": false,
      "t": 208216.008,
      "d": 165.515625,
      "v": 127
    },
    {
      "midi": 48,
      "hit": false,
      "t": 208431.84037500035,
      "d": 227.74950000000536,
      "v": 85
    },
    {
      "midi": 72,
      "hit": false,
      "t": 208462.29525000043,
      "d": 221.12887500002398,
      "v": 105
    },
    {
      "midi": 60,
      "hit": false,
      "t": 208463.61937500045,
      "d": 197.29462500000955,
      "v": 105
    },
    {
      "midi": 39,
      "hit": false,
      "t": 208470.24,
      "d": 111.22649999998976,
      "v": 112
    },
    {
      "midi": 48,
      "hit": false,
      "t": 208483.48125000033,
      "d": 91.36462499998743,
      "v": 120
    },
    {
      "midi": 46,
      "hit": false,
      "t": 208717.85137500035,
      "d": 83.41987499999232,
      "v": 86
    },
    {
      "midi": 70,
      "hit": false,
      "t": 208720.49962500046,
      "d": 70.17862500000047,
      "v": 105
    },
    {
      "midi": 58,
      "hit": false,
      "t": 208721.82375000048,
      "d": 71.5027499999851,
      "v": 105
    },
    {
      "midi": 46,
      "hit": false,
      "t": 208723.14787500032,
      "d": 88.71637499998906,
      "v": 127
    },
    {
      "midi": 39,
      "hit": false,
      "t": 208724.47199999998,
      "d": 328.38300000000163,
      "v": 127
    },
    {
      "midi": 51,
      "hit": false,
      "t": 208957.51800000033,
      "d": 62.233875000005355,
      "v": 100
    },
    {
      "midi": 63,
      "hit": false,
      "t": 208977.37987500045,
      "d": 66.20624999998836,
      "v": 105
    },
    {
      "midi": 51,
      "hit": false,
      "t": 208980.0281250003,
      "d": 72.82687499999884,
      "v": 96
    },
    {
      "midi": 75,
      "hit": false,
      "t": 208980.02812500045,
      "d": 63.55799999998999,
      "v": 105
    },
    {
      "midi": 46,
      "hit": false,
      "t": 209209.10175000035,
      "d": 94.0128749999858,
      "v": 127
    },
    {
      "midi": 46,
      "hit": false,
      "t": 209227.6395000003,
      "d": 177.43275000000722,
      "v": 112
    },
    {
      "midi": 34,
      "hit": false,
      "t": 209232.936,
      "d": 127.11600000000908,
      "v": 127
    },
    {
      "midi": 58,
      "hit": false,
      "t": 209234.26012500044,
      "d": 90.0405000000028,
      "v": 105
    },
    {
      "midi": 70,
      "hit": false,
      "t": 209236.90837500044,
      "d": 88.71637500001816,
      "v": 105
    },
    {
      "midi": 52,
      "hit": false,
      "t": 209487.16799999963,
      "d": 2033.8559999999998,
      "v": 83
    },
    {
      "midi": 58,
      "hit": false,
      "t": 209487.16799999963,
      "d": 2033.8559999999998,
      "v": 83
    },
    {
      "midi": 63,
      "hit": false,
      "t": 209487.16799999963,
      "d": 2033.8559999999998,
      "v": 83
    },
    {
      "midi": 36,
      "hit": false,
      "t": 209487.168,
      "d": 136.38487499998882,
      "v": 127
    },
    {
      "midi": 48,
      "hit": false,
      "t": 209701.67625000034,
      "d": 507.1398749999935,
      "v": 94
    },
    {
      "midi": 48,
      "hit": false,
      "t": 209734.7793750003,
      "d": 1599.5430000000051,
      "v": 94
    },
    {
      "midi": 72,
      "hit": false,
      "t": 209740.07587500045,
      "d": 1664.4251250000088,
      "v": 105
    },
    {
      "midi": 36,
      "hit": false,
      "t": 209741.4,
      "d": 190.67399999999907,
      "v": 127
    },
    {
      "midi": 60,
      "hit": false,
      "t": 209742.72412500044,
      "d": 1663.1010000000242,
      "v": 105
    },
    {
      "midi": 36,
      "hit": false,
      "t": 209995.63199999998,
      "d": 148.30199999999604,
      "v": 127
    },
    {
      "midi": 67,
      "hit": false,
      "t": 209995.63200000022,
      "d": 395.9133750000037,
      "v": 94
    },
    {
      "midi": 36,
      "hit": false,
      "t": 210249.86399999997,
      "d": 135.0607500000042,
      "v": 127
    },
    {
      "midi": 36,
      "hit": false,
      "t": 210504.096,
      "d": 129.76425000000745,
      "v": 120
    },
    {
      "midi": 67,
      "hit": false,
      "t": 210504.09600000022,
      "d": 345.5966250000056,
      "v": 127
    },
    {
      "midi": 35,
      "hit": false,
      "t": 210529.25437500008,
      "d": 37.075500000006286,
      "v": 47
    },
    {
      "midi": 38,
      "hit": false,
      "t": 210590.1641250001,
      "d": 84.74400000000605,
      "v": 57
    },
    {
      "midi": 40,
      "hit": false,
      "t": 210632.5361250001,
      "d": 52.96499999999651,
      "v": 64
    },
    {
      "midi": 42,
      "hit": false,
      "t": 210673.5840000001,
      "d": 52.96499999999651,
      "v": 112
    },
    {
      "midi": 45,
      "hit": false,
      "t": 210721.2525000001,
      "d": 64.88212500000373,
      "v": 112
    },
    {
      "midi": 36,
      "hit": false,
      "t": 210758.328,
      "d": 227.74950000000536,
      "v": 127
    },
    {
      "midi": 47,
      "hit": false,
      "t": 210774.2175000001,
      "d": 50.31675000002724,
      "v": 88
    },
    {
      "midi": 50,
      "hit": false,
      "t": 210820.5618750001,
      "d": 56.937375000008615,
      "v": 95
    },
    {
      "midi": 52,
      "hit": false,
      "t": 210865.5821250001,
      "d": 42.37200000000303,
      "v": 103
    },
    {
      "midi": 54,
      "hit": false,
      "t": 210902.6576250001,
      "d": 34.427250000007916,
      "v": 109
    },
    {
      "midi": 57,
      "hit": false,
      "t": 210937.08487500012,
      "d": 51.64087499998277,
      "v": 115
    },
    {
      "midi": 59,
      "hit": false,
      "t": 210975.4845000001,
      "d": 42.37200000000303,
      "v": 121
    },
    {
      "midi": 38,
      "hit": false,
      "t": 211012.56000000003,
      "d": 229.07362499999,
      "v": 127
    },
    {
      "midi": 67,
      "hit": false,
      "t": 211012.56000000023,
      "d": 227.74950000000536,
      "v": 120
    },
    {
      "midi": 62,
      "hit": false,
      "t": 211019.18062500012,
      "d": 47.66849999999977,
      "v": 123
    },
    {
      "midi": 64,
      "hit": false,
      "t": 211060.2285000001,
      "d": 41.047875000018394,
      "v": 116
    },
    {
      "midi": 66,
      "hit": false,
      "t": 211094.65575000012,
      "d": 41.047875000018394,
      "v": 111
    },
    {
      "midi": 69,
      "hit": false,
      "t": 211135.70362500014,
      "d": 54.289125000010245,
      "v": 106
    },
    {
      "midi": 71,
      "hit": false,
      "t": 211186.02037500014,
      "d": 43.696125000016764,
      "v": 99
    },
    {
      "midi": 74,
      "hit": false,
      "t": 211232.36475000015,
      "d": 52.96499999999651,
      "v": 93
    },
    {
      "midi": 39,
      "hit": false,
      "t": 211266.79200000002,
      "d": 243.63899999999558,
      "v": 127
    },
    {
      "midi": 76,
      "hit": false,
      "t": 211280.03325000015,
      "d": 41.04787499998929,
      "v": 87
    },
    {
      "midi": 78,
      "hit": false,
      "t": 211315.78462500015,
      "d": 33.10312499999418,
      "v": 82
    },
    {
      "midi": 81,
      "hit": false,
      "t": 211348.88775000014,
      "d": 50.31674999999814,
      "v": 78
    },
    {
      "midi": 83,
      "hit": false,
      "t": 211393.90800000014,
      "d": 34.427250000007916,
      "v": 72
    },
    {
      "midi": 86,
      "hit": false,
      "t": 211432.30762500016,
      "d": 43.69612499998766,
      "v": 67
    },
    {
      "midi": 88,
      "hit": false,
      "t": 211473.35550000015,
      "d": 27.80662499999744,
      "v": 61
    },
    {
      "midi": 90,
      "hit": false,
      "t": 211502.48625000016,
      "d": 22.5101250000007,
      "v": 57
    },
    {
      "midi": 53,
      "hit": false,
      "t": 211521.02399999963,
      "d": 2033.8559999999998,
      "v": 83
    },
    {
      "midi": 56,
      "hit": false,
      "t": 211521.02399999963,
      "d": 2033.8559999999998,
      "v": 83
    },
    {
      "midi": 60,
      "hit": false,
      "t": 211521.02399999963,
      "d": 2033.8559999999998,
      "v": 83
    },
    {
      "midi": 63,
      "hit": false,
      "t": 211521.02399999963,
      "d": 2033.8559999999998,
      "v": 83
    },
    {
      "midi": 96,
      "hit": false,
      "t": 211521.02399999963,
      "d": 4083.6014999999315,
      "v": 99
    },
    {
      "midi": 72,
      "hit": false,
      "t": 211521.02399999986,
      "d": 4034.60887499986,
      "v": 78
    },
    {
      "midi": 75,
      "hit": false,
      "t": 211521.02399999986,
      "d": 4055.794874999876,
      "v": 78
    },
    {
      "midi": 68,
      "hit": false,
      "t": 211521.02399999986,
      "d": 4066.3878749998985,
      "v": 78
    },
    {
      "midi": 41,
      "hit": false,
      "t": 211521.024,
      "d": 129.76425000000745,
      "v": 127
    },
    {
      "midi": 67,
      "hit": false,
      "t": 211521.02400000024,
      "d": 718.9998750000086,
      "v": 127
    },
    {
      "midi": 41,
      "hit": false,
      "t": 211775.25600000002,
      "d": 202.5911250000063,
      "v": 127
    },
    {
      "midi": 63,
      "hit": false,
      "t": 212012.27437500033,
      "d": 84.74400000003516,
      "v": 69
    },
    {
      "midi": 60,
      "hit": false,
      "t": 212021.54325000034,
      "d": 90.0405000000319,
      "v": 66
    },
    {
      "midi": 67,
      "hit": false,
      "t": 212025.51562500035,
      "d": 94.0128750000149,
      "v": 85
    },
    {
      "midi": 56,
      "hit": false,
      "t": 212026.83975000036,
      "d": 92.68875000000116,
      "v": 80
    },
    {
      "midi": 75,
      "hit": false,
      "t": 212028.16387500046,
      "d": 113.87475000001723,
      "v": 105
    },
    {
      "midi": 72,
      "hit": false,
      "t": 212028.16387500046,
      "d": 120.4953750000277,
      "v": 105
    },
    {
      "midi": 68,
      "hit": false,
      "t": 212028.16387500046,
      "d": 127.11600000003818,
      "v": 105
    },
    {
      "midi": 79,
      "hit": false,
      "t": 212029.48800000048,
      "d": 125.79187500002445,
      "v": 105
    },
    {
      "midi": 63,
      "hit": false,
      "t": 212030.81212500032,
      "d": 82.09574999997858,
      "v": 86
    },
    {
      "midi": 67,
      "hit": false,
      "t": 212038.7568750003,
      "d": 46.34437499998603,
      "v": 81
    },
    {
      "midi": 36,
      "hit": false,
      "t": 212283.72000000003,
      "d": 214.5082500000135,
      "v": 127
    },
    {
      "midi": 60,
      "hit": false,
      "t": 212283.72000000023,
      "d": 491.25037500000326,
      "v": 127
    },
    {
      "midi": 41,
      "hit": false,
      "t": 212537.95200000005,
      "d": 135.0607500000042,
      "v": 127
    },
    {
      "midi": 63,
      "hit": false,
      "t": 212780.26687500035,
      "d": 402.5340000000142,
      "v": 80
    },
    {
      "midi": 60,
      "hit": false,
      "t": 212788.21162500035,
      "d": 385.32037500001024,
      "v": 74
    },
    {
      "midi": 63,
      "hit": false,
      "t": 212789.5357500003,
      "d": 403.85812500002794,
      "v": 86
    },
    {
      "midi": 56,
      "hit": false,
      "t": 212790.85987500034,
      "d": 394.5892500000191,
      "v": 80
    },
    {
      "midi": 41,
      "hit": false,
      "t": 212792.18400000007,
      "d": 195.9704999999958,
      "v": 127
    },
    {
      "midi": 62,
      "hit": false,
      "t": 212792.18400000024,
      "d": 266.1491249999963,
      "v": 120
    },
    {
      "midi": 67,
      "hit": false,
      "t": 212792.18400000036,
      "d": 369.4308749999909,
      "v": 94
    },
    {
      "midi": 79,
      "hit": false,
      "t": 212793.5081250005,
      "d": 362.81025000000955,
      "v": 105
    },
    {
      "midi": 72,
      "hit": false,
      "t": 212793.5081250005,
      "d": 383.9962499999965,
      "v": 105
    },
    {
      "midi": 75,
      "hit": false,
      "t": 212793.5081250005,
      "d": 386.6444999999949,
      "v": 105
    },
    {
      "midi": 68,
      "hit": false,
      "t": 212793.5081250005,
      "d": 389.29274999999325,
      "v": 105
    },
    {
      "midi": 67,
      "hit": false,
      "t": 212798.8046250003,
      "d": 387.9686250000086,
      "v": 87
    },
    {
      "midi": 63,
      "hit": false,
      "t": 213046.41600000023,
      "d": 201.26700000002165,
      "v": 127
    },
    {
      "midi": 63,
      "hit": false,
      "t": 213271.51725000035,
      "d": 70.17862500002957,
      "v": 86
    },
    {
      "midi": 60,
      "hit": false,
      "t": 213280.78612500036,
      "d": 62.23387500003446,
      "v": 74
    },
    {
      "midi": 67,
      "hit": false,
      "t": 213284.75850000037,
      "d": 54.289125000010245,
      "v": 90
    },
    {
      "midi": 56,
      "hit": false,
      "t": 213286.0826250004,
      "d": 88.71637500001816,
      "v": 83
    },
    {
      "midi": 63,
      "hit": false,
      "t": 213294.02737500033,
      "d": 59.585625000006985,
      "v": 93
    },
    {
      "midi": 68,
      "hit": false,
      "t": 213299.32387500047,
      "d": 45.0202500000014,
      "v": 105
    },
    {
      "midi": 75,
      "hit": false,
      "t": 213299.32387500047,
      "d": 46.344375000015134,
      "v": 105
    },
    {
      "midi": 72,
      "hit": false,
      "t": 213299.32387500047,
      "d": 55.61325000002398,
      "v": 105
    },
    {
      "midi": 36,
      "hit": false,
      "t": 213300.64800000007,
      "d": 185.37750000000233,
      "v": 127
    },
    {
      "midi": 65,
      "hit": false,
      "t": 213300.64800000025,
      "d": 267.4732499999809,
      "v": 112
    },
    {
      "midi": 67,
      "hit": false,
      "t": 213300.64800000034,
      "d": 41.04787499998929,
      "v": 87
    },
    {
      "midi": 79,
      "hit": false,
      "t": 213301.97212500047,
      "d": 52.96500000002561,
      "v": 105
    },
    {
      "midi": 56,
      "hit": false,
      "t": 213554.87999999963,
      "d": 1016.9280000000144,
      "v": 83
    },
    {
      "midi": 60,
      "hit": false,
      "t": 213554.87999999963,
      "d": 1016.9280000000144,
      "v": 83
    },
    {
      "midi": 63,
      "hit": false,
      "t": 213554.87999999963,
      "d": 1016.9280000000144,
      "v": 83
    },
    {
      "midi": 34,
      "hit": false,
      "t": 213554.88000000006,
      "d": 120.4953749999986,
      "v": 127
    },
    {
      "midi": 67,
      "hit": false,
      "t": 213554.88000000024,
      "d": 146.9778749999823,
      "v": 127
    },
    {
      "midi": 34,
      "hit": false,
      "t": 213809.11200000005,
      "d": 185.37750000000233,
      "v": 127
    },
    {
      "midi": 67,
      "hit": false,
      "t": 213809.11200000023,
      "d": 460.79550000000745,
      "v": 127
    },
    {
      "midi": 63,
      "hit": false,
      "t": 214052.7510000004,
      "d": 71.5027500000142,
      "v": 96
    },
    {
      "midi": 60,
      "hit": false,
      "t": 214060.6957500004,
      "d": 70.17862500002957,
      "v": 81
    },
    {
      "midi": 56,
      "hit": false,
      "t": 214062.0198750004,
      "d": 80.77162500002305,
      "v": 86
    },
    {
      "midi": 79,
      "hit": false,
      "t": 214062.0198750005,
      "d": 70.17862500000047,
      "v": 105
    },
    {
      "midi": 68,
      "hit": false,
      "t": 214062.0198750005,
      "d": 129.76425000000745,
      "v": 105
    },
    {
      "midi": 67,
      "hit": false,
      "t": 214064.6681250004,
      "d": 67.5303750000312,
      "v": 94
    },
    {
      "midi": 72,
      "hit": false,
      "t": 214064.6681250005,
      "d": 94.0128750000149,
      "v": 105
    },
    {
      "midi": 75,
      "hit": false,
      "t": 214064.6681250005,
      "d": 94.0128750000149,
      "v": 105
    },
    {
      "midi": 63,
      "hit": false,
      "t": 214067.31637500034,
      "d": 74.15100000001257,
      "v": 93
    },
    {
      "midi": 67,
      "hit": false,
      "t": 214076.58525000035,
      "d": 50.31674999999814,
      "v": 81
    },
    {
      "midi": 41,
      "hit": false,
      "t": 214317.57600000006,
      "d": 161.5432499999879,
      "v": 127
    },
    {
      "midi": 65,
      "hit": false,
      "t": 214317.57600000023,
      "d": 438.28537500000675,
      "v": 127
    },
    {
      "midi": 56,
      "hit": false,
      "t": 214571.80799999964,
      "d": 1016.9279999999271,
      "v": 83
    },
    {
      "midi": 62,
      "hit": false,
      "t": 214571.80799999964,
      "d": 1016.9279999999271,
      "v": 83
    },
    {
      "midi": 65,
      "hit": false,
      "t": 214571.80799999964,
      "d": 1016.9279999999271,
      "v": 83
    },
    {
      "midi": 46,
      "hit": false,
      "t": 214571.80800000005,
      "d": 168.16387499999837,
      "v": 127
    },
    {
      "midi": 62,
      "hit": false,
      "t": 214819.41937500035,
      "d": 362.81025000000955,
      "v": 83
    },
    {
      "midi": 62,
      "hit": false,
      "t": 214822.06762500043,
      "d": 397.23750000001746,
      "v": 81
    },
    {
      "midi": 65,
      "hit": false,
      "t": 214823.39175000036,
      "d": 360.1620000000112,
      "v": 83
    },
    {
      "midi": 60,
      "hit": false,
      "t": 214823.39175000045,
      "d": 387.9686250000086,
      "v": 74
    },
    {
      "midi": 56,
      "hit": false,
      "t": 214823.39175000045,
      "d": 402.5340000000142,
      "v": 80
    },
    {
      "midi": 77,
      "hit": false,
      "t": 214824.7158750005,
      "d": 389.29275000002235,
      "v": 105
    },
    {
      "midi": 68,
      "hit": false,
      "t": 214824.7158750005,
      "d": 418.4235000000335,
      "v": 105
    },
    {
      "midi": 72,
      "hit": false,
      "t": 214824.7158750005,
      "d": 425.044125000044,
      "v": 105
    },
    {
      "midi": 41,
      "hit": false,
      "t": 214826.04000000004,
      "d": 173.4603749999951,
      "v": 127
    },
    {
      "midi": 63,
      "hit": false,
      "t": 214826.04000000024,
      "d": 237.0183750000142,
      "v": 127
    },
    {
      "midi": 74,
      "hit": false,
      "t": 214826.0400000005,
      "d": 414.4511250000214,
      "v": 105
    },
    {
      "midi": 65,
      "hit": false,
      "t": 214828.68825000044,
      "d": 385.32037500001024,
      "v": 76
    },
    {
      "midi": 46,
      "hit": false,
      "t": 215080.27200000003,
      "d": 219.80475000001024,
      "v": 127
    },
    {
      "midi": 62,
      "hit": false,
      "t": 215080.27200000026,
      "d": 219.80475000001024,
      "v": 127
    },
    {
      "midi": 62,
      "hit": false,
      "t": 215317.29037500036,
      "d": 75.47512500002631,
      "v": 76
    },
    {
      "midi": 65,
      "hit": false,
      "t": 215321.26275000037,
      "d": 59.585625000006985,
      "v": 81
    },
    {
      "midi": 62,
      "hit": false,
      "t": 215329.20750000046,
      "d": 76.79925000001094,
      "v": 83
    },
    {
      "midi": 60,
      "hit": false,
      "t": 215329.20750000046,
      "d": 87.39225000000442,
      "v": 81
    },
    {
      "midi": 68,
      "hit": false,
      "t": 215333.17987500053,
      "d": 71.5027500000142,
      "v": 105
    },
    {
      "midi": 44,
      "hit": false,
      "t": 215334.50400000004,
      "d": 222.45300000000861,
      "v": 127
    },
    {
      "midi": 63,
      "hit": false,
      "t": 215334.50400000028,
      "d": 189.34987500001444,
      "v": 127
    },
    {
      "midi": 77,
      "hit": false,
      "t": 215335.82812500052,
      "d": 56.937375000008615,
      "v": 105
    },
    {
      "midi": 74,
      "hit": false,
      "t": 215335.82812500052,
      "d": 67.5303750000021,
      "v": 105
    },
    {
      "midi": 72,
      "hit": false,
      "t": 215335.82812500052,
      "d": 72.82687500002794,
      "v": 105
    },
    {
      "midi": 65,
      "hit": false,
      "t": 215338.47637500046,
      "d": 67.5303750000021,
      "v": 83
    },
    {
      "midi": 56,
      "hit": false,
      "t": 215341.12462500046,
      "d": 80.77162499999395,
      "v": 77
    },
    {
      "midi": 70,
      "hit": false,
      "t": 215552.98462499972,
      "d": 2069.6073750000214,
      "v": 78
    },
    {
      "midi": 65,
      "hit": false,
      "t": 215556.95699999973,
      "d": 2065.6350000000093,
      "v": 78
    },
    {
      "midi": 74,
      "hit": false,
      "t": 215556.95699999973,
      "d": 2065.6350000000093,
      "v": 78
    },
    {
      "midi": 43,
      "hit": false,
      "t": 215588.73599999957,
      "d": 2033.8559999999707,
      "v": 83
    },
    {
      "midi": 53,
      "hit": false,
      "t": 215588.73599999957,
      "d": 2033.8559999999707,
      "v": 83
    },
    {
      "midi": 58,
      "hit": false,
      "t": 215588.73599999957,
      "d": 2033.8559999999707,
      "v": 83
    },
    {
      "midi": 62,
      "hit": false,
      "t": 215588.73599999957,
      "d": 2033.8559999999707,
      "v": 83
    },
    {
      "midi": 94,
      "hit": false,
      "t": 215588.73599999957,
      "d": 4095.518624999968,
      "v": 99
    },
    {
      "midi": 43,
      "hit": false,
      "t": 215588.73600000006,
      "d": 158.89499999998952,
      "v": 127
    },
    {
      "midi": 65,
      "hit": false,
      "t": 215588.7360000003,
      "d": 764.02012500001,
      "v": 127
    },
    {
      "midi": 43,
      "hit": false,
      "t": 215842.96800000005,
      "d": 193.32224999999744,
      "v": 127
    },
    {
      "midi": 58,
      "hit": false,
      "t": 216068.06925000047,
      "d": 66.20625000004657,
      "v": 93
    },
    {
      "midi": 62,
      "hit": false,
      "t": 216077.33812500047,
      "d": 67.5303750000312,
      "v": 76
    },
    {
      "midi": 55,
      "hit": false,
      "t": 216083.9587500005,
      "d": 111.22650000001886,
      "v": 81
    },
    {
      "midi": 62,
      "hit": false,
      "t": 216085.28287500038,
      "d": 74.15100000001257,
      "v": 83
    },
    {
      "midi": 65,
      "hit": false,
      "t": 216086.6070000004,
      "d": 64.88212500000373,
      "v": 83
    },
    {
      "midi": 77,
      "hit": false,
      "t": 216091.90350000054,
      "d": 135.0607500000333,
      "v": 105
    },
    {
      "midi": 70,
      "hit": false,
      "t": 216091.90350000054,
      "d": 137.70900000003166,
      "v": 105
    },
    {
      "midi": 65,
      "hit": false,
      "t": 216093.2276250005,
      "d": 31.779000000009546,
      "v": 72
    },
    {
      "midi": 74,
      "hit": false,
      "t": 216093.22762500055,
      "d": 129.76425000000745,
      "v": 105
    },
    {
      "midi": 67,
      "hit": false,
      "t": 216093.22762500055,
      "d": 156.24675000002026,
      "v": 105
    },
    {
      "midi": 38,
      "hit": false,
      "t": 216351.43200000006,
      "d": 195.9704999999958,
      "v": 127
    },
    {
      "midi": 58,
      "hit": false,
      "t": 216351.4320000003,
      "d": 448.87837500000023,
      "v": 127
    },
    {
      "midi": 43,
      "hit": false,
      "t": 216605.66400000005,
      "d": 136.38487499998882,
      "v": 127
    },
    {
      "midi": 62,
      "hit": false,
      "t": 216834.7376250004,
      "d": 402.5340000000142,
      "v": 81
    },
    {
      "midi": 65,
      "hit": false,
      "t": 216836.0617500004,
      "d": 395.9133750000037,
      "v": 85
    },
    {
      "midi": 77,
      "hit": false,
      "t": 216855.92362500058,
      "d": 376.0515000000014,
      "v": 105
    },
    {
      "midi": 70,
      "hit": false,
      "t": 216855.92362500058,
      "d": 395.9133750000037,
      "v": 105
    },
    {
      "midi": 67,
      "hit": false,
      "t": 216857.2477500006,
      "d": 380.0238749999844,
      "v": 105
    },
    {
      "midi": 74,
      "hit": false,
      "t": 216857.2477500006,
      "d": 397.23749999998836,
      "v": 105
    },
    {
      "midi": 43,
      "hit": false,
      "t": 216859.89600000004,
      "d": 402.5340000000142,
      "v": 127
    },
    {
      "midi": 60,
      "hit": false,
      "t": 216859.8960000003,
      "d": 239.66662500001257,
      "v": 127
    },
    {
      "midi": 58,
      "hit": false,
      "t": 216861.22012500052,
      "d": 352.21725000001607,
      "v": 93
    },
    {
      "midi": 55,
      "hit": false,
      "t": 216865.19250000053,
      "d": 391.9409999999916,
      "v": 81
    },
    {
      "midi": 62,
      "hit": false,
      "t": 216869.16487500054,
      "d": 365.4584999999788,
      "v": 87
    },
    {
      "midi": 65,
      "hit": false,
      "t": 216879.75787500053,
      "d": 346.9207499999902,
      "v": 87
    },
    {
      "midi": 62,
      "hit": false,
      "t": 217114.12800000032,
      "d": 230.39775000000373,
      "v": 127
    },
    {
      "midi": 58,
      "hit": false,
      "t": 217332.60862500052,
      "d": 60.90975000002072,
      "v": 86
    },
    {
      "midi": 62,
      "hit": false,
      "t": 217343.2016250005,
      "d": 64.88212500003283,
      "v": 83
    },
    {
      "midi": 55,
      "hit": false,
      "t": 217352.47050000052,
      "d": 99.30937500001164,
      "v": 70
    },
    {
      "midi": 62,
      "hit": false,
      "t": 217353.7946250004,
      "d": 67.5303750000312,
      "v": 83
    },
    {
      "midi": 65,
      "hit": false,
      "t": 217353.79462500053,
      "d": 33.10312499999418,
      "v": 68
    },
    {
      "midi": 65,
      "hit": false,
      "t": 217357.7670000004,
      "d": 56.937375000008615,
      "v": 85
    },
    {
      "midi": 70,
      "hit": false,
      "t": 217364.38762500059,
      "d": 67.5303750000021,
      "v": 105
    },
    {
      "midi": 77,
      "hit": false,
      "t": 217365.7117500006,
      "d": 38.39962499999092,
      "v": 105
    },
    {
      "midi": 67,
      "hit": false,
      "t": 217365.7117500006,
      "d": 58.26149999999325,
      "v": 105
    },
    {
      "midi": 74,
      "hit": false,
      "t": 217365.7117500006,
      "d": 70.17862500000047,
      "v": 105
    },
    {
      "midi": 38,
      "hit": false,
      "t": 217368.36000000004,
      "d": 178.75687499999185,
      "v": 127
    },
    {
      "midi": 63,
      "hit": false,
      "t": 217368.36000000034,
      "d": 144.32962500001304,
      "v": 106
    },
    {
      "midi": 48,
      "hit": false,
      "t": 217622.59199999954,
      "d": 2033.8559999999998,
      "v": 83
    },
    {
      "midi": 55,
      "hit": false,
      "t": 217622.59199999954,
      "d": 2033.8559999999998,
      "v": 83
    },
    {
      "midi": 58,
      "hit": false,
      "t": 217622.59199999954,
      "d": 2033.8559999999998,
      "v": 83
    },
    {
      "midi": 63,
      "hit": false,
      "t": 217622.59199999954,
      "d": 2033.8559999999998,
      "v": 83
    },
    {
      "midi": 70,
      "hit": false,
      "t": 217622.59199999974,
      "d": 1787.5687500000058,
      "v": 78
    },
    {
      "midi": 36,
      "hit": false,
      "t": 217622.59200000003,
      "d": 121.81950000001234,
      "v": 127
    },
    {
      "midi": 65,
      "hit": false,
      "t": 217622.59200000035,
      "d": 97.9852499999979,
      "v": 94
    },
    {
      "midi": 75,
      "hit": false,
      "t": 217633.18499999974,
      "d": 1763.7345000000205,
      "v": 78
    },
    {
      "midi": 67,
      "hit": false,
      "t": 217634.50912499975,
      "d": 1757.11387500001,
      "v": 78
    },
    {
      "midi": 36,
      "hit": false,
      "t": 217876.82400000005,
      "d": 316.4658749999944,
      "v": 127
    },
    {
      "midi": 65,
      "hit": false,
      "t": 217876.82400000034,
      "d": 421.0717500000028,
      "v": 127
    },
    {
      "midi": 58,
      "hit": false,
      "t": 218105.89762500054,
      "d": 71.5027500000142,
      "v": 112
    },
    {
      "midi": 62,
      "hit": false,
      "t": 218112.51825000055,
      "d": 68.85450000001583,
      "v": 83
    },
    {
      "midi": 65,
      "hit": false,
      "t": 218113.84237500041,
      "d": 82.09575000000768,
      "v": 87
    },
    {
      "midi": 62,
      "hit": false,
      "t": 218115.16650000043,
      "d": 63.55799999998999,
      "v": 76
    },
    {
      "midi": 67,
      "hit": false,
      "t": 218128.4077500006,
      "d": 87.39225000000442,
      "v": 105
    },
    {
      "midi": 70,
      "hit": false,
      "t": 218128.4077500006,
      "d": 90.0405000000028,
      "v": 105
    },
    {
      "midi": 55,
      "hit": false,
      "t": 218129.73187500055,
      "d": 91.36462500001653,
      "v": 85
    },
    {
      "midi": 74,
      "hit": false,
      "t": 218129.7318750006,
      "d": 90.0405000000028,
      "v": 105
    },
    {
      "midi": 77,
      "hit": false,
      "t": 218129.7318750006,
      "d": 92.68875000000116,
      "v": 105
    },
    {
      "midi": 65,
      "hit": false,
      "t": 218131.05600000056,
      "d": 30.45487499999581,
      "v": 70
    },
    {
      "midi": 43,
      "hit": false,
      "t": 218385.28800000006,
      "d": 185.37750000000233,
      "v": 127
    },
    {
      "midi": 63,
      "hit": false,
      "t": 218385.28800000035,
      "d": 386.6444999999949,
      "v": 127
    },
    {
      "midi": 48,
      "hit": false,
      "t": 218639.52000000005,
      "d": 182.72925000000396,
      "v": 127
    },
    {
      "midi": 63,
      "hit": false,
      "t": 218876.5383750004,
      "d": 413.1270000000077,
      "v": 93
    },
    {
      "midi": 60,
      "hit": false,
      "t": 218879.1866250004,
      "d": 410.4787500000093,
      "v": 83
    },
    {
      "midi": 75,
      "hit": false,
      "t": 218892.4278750006,
      "d": 406.5063749999972,
      "v": 105
    },
    {
      "midi": 67,
      "hit": false,
      "t": 218892.4278750006,
      "d": 415.77525000000605,
      "v": 105
    },
    {
      "midi": 72,
      "hit": false,
      "t": 218892.4278750006,
      "d": 417.0993750000198,
      "v": 105
    },
    {
      "midi": 70,
      "hit": false,
      "t": 218892.4278750006,
      "d": 419.74762500001816,
      "v": 105
    },
    {
      "midi": 46,
      "hit": false,
      "t": 218893.75200000007,
      "d": 197.29462500000955,
      "v": 127
    },
    {
      "midi": 62,
      "hit": false,
      "t": 218893.75200000036,
      "d": 243.63899999999558,
      "v": 112
    },
    {
      "midi": 58,
      "hit": false,
      "t": 218909.64150000058,
      "d": 377.37562499998603,
      "v": 96
    },
    {
      "midi": 63,
      "hit": false,
      "t": 218914.93800000058,
      "d": 376.0515000000014,
      "v": 77
    },
    {
      "midi": 60,
      "hit": false,
      "t": 218914.93800000058,
      "d": 383.9962499999965,
      "v": 94
    },
    {
      "midi": 55,
      "hit": false,
      "t": 218922.88275000057,
      "d": 381.34799999999814,
      "v": 76
    },
    {
      "midi": 44,
      "hit": false,
      "t": 219147.98400000008,
      "d": 170.81212499999674,
      "v": 127
    },
    {
      "midi": 60,
      "hit": false,
      "t": 219147.98400000035,
      "d": 191.9981250000128,
      "v": 127
    },
    {
      "midi": 60,
      "hit": false,
      "t": 219392.9471250004,
      "d": 58.26150000002235,
      "v": 72
    },
    {
      "midi": 63,
      "hit": false,
      "t": 219394.27125000043,
      "d": 48.992625000013504,
      "v": 96
    },
    {
      "midi": 70,
      "hit": false,
      "t": 219400.8918750006,
      "d": 78.12337500002468,
      "v": 105
    },
    {
      "midi": 75,
      "hit": false,
      "t": 219400.8918750006,
      "d": 83.41987500002142,
      "v": 105
    },
    {
      "midi": 43,
      "hit": false,
      "t": 219402.21600000007,
      "d": 195.9704999999958,
      "v": 127
    },
    {
      "midi": 62,
      "hit": false,
      "t": 219402.21600000036,
      "d": 201.26699999999255,
      "v": 120
    },
    {
      "midi": 67,
      "hit": false,
      "t": 219403.5401250006,
      "d": 70.17862500000047,
      "v": 105
    },
    {
      "midi": 72,
      "hit": false,
      "t": 219403.5401250006,
      "d": 71.5027500000142,
      "v": 105
    },
    {
      "midi": 58,
      "hit": false,
      "t": 219410.16075000056,
      "d": 60.90975000002072,
      "v": 100
    },
    {
      "midi": 60,
      "hit": false,
      "t": 219411.48487500058,
      "d": 62.23387500003446,
      "v": 97
    },
    {
      "midi": 63,
      "hit": false,
      "t": 219412.8090000006,
      "d": 59.585625000006985,
      "v": 106
    },
    {
      "midi": 55,
      "hit": false,
      "t": 219427.3743750006,
      "d": 88.71637500001816,
      "v": 85
    },
    {
      "midi": 75,
      "hit": false,
      "t": 219612.75187499975,
      "d": 3073.294125000015,
      "v": 78
    },
    {
      "midi": 68,
      "hit": false,
      "t": 219614.07599999977,
      "d": 3071.970000000001,
      "v": 78
    },
    {
      "midi": 72,
      "hit": false,
      "t": 219618.04837499978,
      "d": 3067.997624999989,
      "v": 78
    },
    {
      "midi": 41,
      "hit": false,
      "t": 219656.44799999954,
      "d": 2033.8559999999998,
      "v": 83
    },
    {
      "midi": 56,
      "hit": false,
      "t": 219656.44799999954,
      "d": 2033.8559999999998,
      "v": 83
    },
    {
      "midi": 60,
      "hit": false,
      "t": 219656.44799999954,
      "d": 2033.8559999999998,
      "v": 83
    },
    {
      "midi": 63,
      "hit": false,
      "t": 219656.44799999954,
      "d": 2033.8559999999998,
      "v": 83
    },
    {
      "midi": 92,
      "hit": false,
      "t": 219656.44799999954,
      "d": 4070.3602499999106,
      "v": 99
    },
    {
      "midi": 41,
      "hit": false,
      "t": 219656.44800000006,
      "d": 132.41250000000582,
      "v": 127
    },
    {
      "midi": 63,
      "hit": false,
      "t": 219656.44800000035,
      "d": 762.6959999999963,
      "v": 127
    },
    {
      "midi": 41,
      "hit": false,
      "t": 219910.68000000008,
      "d": 327.0588749999879,
      "v": 127
    },
    {
      "midi": 56,
      "hit": false,
      "t": 220141.0777500006,
      "d": 66.20624999998836,
      "v": 100
    },
    {
      "midi": 63,
      "hit": false,
      "t": 220143.7260000006,
      "d": 58.26149999999325,
      "v": 83
    },
    {
      "midi": 63,
      "hit": false,
      "t": 220146.37425000043,
      "d": 62.233875000005355,
      "v": 96
    },
    {
      "midi": 60,
      "hit": false,
      "t": 220146.37425000043,
      "d": 68.85450000001583,
      "v": 74
    },
    {
      "midi": 60,
      "hit": false,
      "t": 220149.0225000006,
      "d": 38.39962499999092,
      "v": 87
    },
    {
      "midi": 53,
      "hit": false,
      "t": 220156.9672500006,
      "d": 94.0128749999858,
      "v": 87
    },
    {
      "midi": 65,
      "hit": false,
      "t": 220162.26375000062,
      "d": 60.90974999999162,
      "v": 105
    },
    {
      "midi": 68,
      "hit": false,
      "t": 220162.26375000062,
      "d": 70.17862500000047,
      "v": 105
    },
    {
      "midi": 75,
      "hit": false,
      "t": 220162.26375000062,
      "d": 78.12337499999558,
      "v": 105
    },
    {
      "midi": 72,
      "hit": false,
      "t": 220162.26375000062,
      "d": 82.09575000000768,
      "v": 105
    },
    {
      "midi": 36,
      "hit": false,
      "t": 220419.14400000006,
      "d": 222.45300000000861,
      "v": 127
    },
    {
      "midi": 56,
      "hit": false,
      "t": 220419.14400000035,
      "d": 1042.0863750000135,
      "v": 127
    },
    {
      "midi": 41,
      "hit": false,
      "t": 220673.37600000008,
      "d": 154.92262500000652,
      "v": 127
    },
    {
      "midi": 56,
      "hit": false,
      "t": 220909.07025000057,
      "d": 344.27249999999185,
      "v": 96
    },
    {
      "midi": 63,
      "hit": false,
      "t": 220911.71850000045,
      "d": 397.23750000001746,
      "v": 75
    },
    {
      "midi": 63,
      "hit": false,
      "t": 220913.04262500058,
      "d": 344.27249999999185,
      "v": 77
    },
    {
      "midi": 60,
      "hit": false,
      "t": 220915.69087500047,
      "d": 393.26512500000536,
      "v": 63
    },
    {
      "midi": 60,
      "hit": false,
      "t": 220920.98737500058,
      "d": 332.35537499998463,
      "v": 85
    },
    {
      "midi": 53,
      "hit": false,
      "t": 220926.28387500058,
      "d": 338.9759999999951,
      "v": 87
    },
    {
      "midi": 41,
      "hit": false,
      "t": 220927.6080000001,
      "d": 270.1215000000084,
      "v": 127
    },
    {
      "midi": 75,
      "hit": false,
      "t": 220930.25625000065,
      "d": 341.6242499999935,
      "v": 105
    },
    {
      "midi": 72,
      "hit": false,
      "t": 220930.25625000065,
      "d": 348.24487500000396,
      "v": 105
    },
    {
      "midi": 65,
      "hit": false,
      "t": 220930.25625000065,
      "d": 354.86550000001444,
      "v": 105
    },
    {
      "midi": 68,
      "hit": false,
      "t": 220930.25625000065,
      "d": 357.5137500000128,
      "v": 105
    },
    {
      "midi": 56,
      "hit": false,
      "t": 221373.83812500056,
      "d": 63.55800000001909,
      "v": 86
    },
    {
      "midi": 63,
      "hit": false,
      "t": 221383.10700000057,
      "d": 56.937375000008615,
      "v": 93
    },
    {
      "midi": 60,
      "hit": false,
      "t": 221384.43112500058,
      "d": 59.585625000006985,
      "v": 90
    },
    {
      "midi": 53,
      "hit": false,
      "t": 221396.3482500006,
      "d": 95.33699999999953,
      "v": 92
    },
    {
      "midi": 60,
      "hit": false,
      "t": 221417.53425000046,
      "d": 67.5303750000312,
      "v": 74
    },
    {
      "midi": 63,
      "hit": false,
      "t": 221418.85837500048,
      "d": 56.937375000008615,
      "v": 96
    },
    {
      "midi": 68,
      "hit": false,
      "t": 221434.74787500067,
      "d": 58.26150000002235,
      "v": 105
    },
    {
      "midi": 36,
      "hit": false,
      "t": 221436.0720000001,
      "d": 227.74950000000536,
      "v": 127
    },
    {
      "midi": 75,
      "hit": false,
      "t": 221437.39612500067,
      "d": 41.047875000018394,
      "v": 105
    },
    {
      "midi": 65,
      "hit": false,
      "t": 221437.39612500067,
      "d": 47.66850000002887,
      "v": 105
    },
    {
      "midi": 72,
      "hit": false,
      "t": 221438.72025000068,
      "d": 33.10312499999418,
      "v": 105
    },
    {
      "midi": 56,
      "hit": false,
      "t": 221690.30399999954,
      "d": 949.3976250000123,
      "v": 83
    },
    {
      "midi": 60,
      "hit": false,
      "t": 221690.30399999954,
      "d": 953.3700000000244,
      "v": 83
    },
    {
      "midi": 63,
      "hit": false,
      "t": 221690.30399999954,
      "d": 959.9906250000349,
      "v": 83
    },
    {
      "midi": 46,
      "hit": false,
      "t": 221690.30399999954,
      "d": 2033.8559999999125,
      "v": 83
    },
    {
      "midi": 34,
      "hit": false,
      "t": 221690.30400000012,
      "d": 146.9778750000114,
      "v": 127
    },
    {
      "midi": 63,
      "hit": false,
      "t": 221690.30400000035,
      "d": 63.55799999998999,
      "v": 127
    },
    {
      "midi": 34,
      "hit": false,
      "t": 221944.53600000014,
      "d": 264.82500000001164,
      "v": 127
    },
    {
      "midi": 63,
      "hit": false,
      "t": 221944.53600000034,
      "d": 472.71262499998556,
      "v": 127
    },
    {
      "midi": 63,
      "hit": false,
      "t": 222182.8785000005,
      "d": 72.82687499999884,
      "v": 96
    },
    {
      "midi": 60,
      "hit": false,
      "t": 222185.52675000048,
      "d": 78.12337499999558,
      "v": 76
    },
    {
      "midi": 63,
      "hit": false,
      "t": 222186.8508750006,
      "d": 76.79925000001094,
      "v": 100
    },
    {
      "midi": 56,
      "hit": false,
      "t": 222189.49912500058,
      "d": 83.41987500002142,
      "v": 112
    },
    {
      "midi": 60,
      "hit": false,
      "t": 222194.79562500058,
      "d": 80.77162500002305,
      "v": 85
    },
    {
      "midi": 68,
      "hit": false,
      "t": 222194.7956250007,
      "d": 67.5303750000603,
      "v": 105
    },
    {
      "midi": 72,
      "hit": false,
      "t": 222196.1197500007,
      "d": 31.779000000009546,
      "v": 105
    },
    {
      "midi": 75,
      "hit": false,
      "t": 222196.1197500007,
      "d": 33.10312500002328,
      "v": 105
    },
    {
      "midi": 65,
      "hit": false,
      "t": 222196.1197500007,
      "d": 59.58562500003609,
      "v": 105
    },
    {
      "midi": 53,
      "hit": false,
      "t": 222204.0645000006,
      "d": 103.28175000002375,
      "v": 85
    },
    {
      "midi": 41,
      "hit": false,
      "t": 222453.00000000015,
      "d": 207.88762500000303,
      "v": 127
    },
    {
      "midi": 62,
      "hit": false,
      "t": 222453.00000000032,
      "d": 492.5744999999879,
      "v": 127
    },
    {
      "midi": 68,
      "hit": false,
      "t": 222705.90787499977,
      "d": 979.8524999999499,
      "v": 78
    },
    {
      "midi": 62,
      "hit": false,
      "t": 222707.23199999958,
      "d": 912.3221249999187,
      "v": 90
    },
    {
      "midi": 59,
      "hit": false,
      "t": 222707.23199999958,
      "d": 921.5909999999276,
      "v": 90
    },
    {
      "midi": 56,
      "hit": false,
      "t": 222707.23199999958,
      "d": 924.239249999926,
      "v": 90
    },
    {
      "midi": 46,
      "hit": false,
      "t": 222707.23200000013,
      "d": 201.26699999999255,
      "v": 127
    },
    {
      "midi": 71,
      "hit": false,
      "t": 222708.55612499977,
      "d": 975.8801249999378,
      "v": 78
    },
    {
      "midi": 74,
      "hit": false,
      "t": 222715.17674999978,
      "d": 973.2318749999395,
      "v": 78
    },
    {
      "midi": 56,
      "hit": false,
      "t": 222928.36087500062,
      "d": 415.77525000000605,
      "v": 96
    },
    {
      "midi": 59,
      "hit": false,
      "t": 222931.00912500062,
      "d": 422.39587500001653,
      "v": 87
    },
    {
      "midi": 53,
      "hit": false,
      "t": 222936.30562500062,
      "d": 423.72000000003027,
      "v": 74
    },
    {
      "midi": 62,
      "hit": false,
      "t": 222942.92625000063,
      "d": 407.83050000001094,
      "v": 81
    },
    {
      "midi": 62,
      "hit": false,
      "t": 222953.51925000048,
      "d": 338.9760000000242,
      "v": 83
    },
    {
      "midi": 59,
      "hit": false,
      "t": 222957.4916250005,
      "d": 335.0036250000121,
      "v": 74
    },
    {
      "midi": 65,
      "hit": false,
      "t": 222957.49162500075,
      "d": 397.23749999998836,
      "v": 105
    },
    {
      "midi": 68,
      "hit": false,
      "t": 222957.49162500075,
      "d": 403.85812499999884,
      "v": 105
    },
    {
      "midi": 71,
      "hit": false,
      "t": 222957.49162500075,
      "d": 405.1822500000126,
      "v": 105
    },
    {
      "midi": 74,
      "hit": false,
      "t": 222957.49162500075,
      "d": 405.1822500000126,
      "v": 105
    },
    {
      "midi": 44,
      "hit": false,
      "t": 222961.46400000012,
      "d": 214.5082500000135,
      "v": 127
    },
    {
      "midi": 63,
      "hit": false,
      "t": 222961.4640000003,
      "d": 218.4806249999965,
      "v": 127
    },
    {
      "midi": 43,
      "hit": false,
      "t": 223215.69600000014,
      "d": 234.37012499998673,
      "v": 127
    },
    {
      "midi": 62,
      "hit": false,
      "t": 223215.6960000003,
      "d": 485.9538750000065,
      "v": 120
    },
    {
      "midi": 56,
      "hit": false,
      "t": 223434.17662500066,
      "d": 86.06812500001979,
      "v": 86
    },
    {
      "midi": 59,
      "hit": false,
      "t": 223436.82487500066,
      "d": 83.41987500002142,
      "v": 76
    },
    {
      "midi": 53,
      "hit": false,
      "t": 223444.76962500066,
      "d": 95.33700000002864,
      "v": 74
    },
    {
      "midi": 62,
      "hit": false,
      "t": 223448.74200000067,
      "d": 71.5027500000142,
      "v": 56
    },
    {
      "midi": 59,
      "hit": false,
      "t": 223458.0108750005,
      "d": 78.12337499999558,
      "v": 87
    },
    {
      "midi": 62,
      "hit": false,
      "t": 223461.9832500005,
      "d": 68.85449999998673,
      "v": 87
    },
    {
      "midi": 71,
      "hit": false,
      "t": 223465.95562500076,
      "d": 72.82687500002794,
      "v": 105
    },
    {
      "midi": 74,
      "hit": false,
      "t": 223465.95562500076,
      "d": 86.06812500001979,
      "v": 105
    },
    {
      "midi": 68,
      "hit": false,
      "t": 223467.27975000077,
      "d": 56.937375000008615,
      "v": 105
    },
    {
      "midi": 65,
      "hit": false,
      "t": 223467.27975000077,
      "d": 82.09575000000768,
      "v": 105
    },
    {
      "midi": 41,
      "hit": false,
      "t": 223469.92800000013,
      "d": 230.39775000000373,
      "v": 127
    },
    {
      "midi": 63,
      "hit": false,
      "t": 223702.97399999973,
      "d": 1705.4730000000272,
      "v": 78
    },
    {
      "midi": 72,
      "hit": false,
      "t": 223708.27049999972,
      "d": 1713.4177500000224,
      "v": 78
    },
    {
      "midi": 67,
      "hit": false,
      "t": 223714.89112499973,
      "d": 1704.1488750000135,
      "v": 78
    },
    {
      "midi": 51,
      "hit": false,
      "t": 223724.15999999945,
      "d": 2033.8559999999707,
      "v": 83
    },
    {
      "midi": 55,
      "hit": false,
      "t": 223724.15999999945,
      "d": 2033.8559999999707,
      "v": 83
    },
    {
      "midi": 58,
      "hit": false,
      "t": 223724.15999999945,
      "d": 2033.8559999999707,
      "v": 83
    },
    {
      "midi": 60,
      "hit": false,
      "t": 223724.15999999945,
      "d": 2033.8559999999707,
      "v": 83
    },
    {
      "midi": 91,
      "hit": false,
      "t": 223724.15999999945,
      "d": 3858.5002499999828,
      "v": 99
    },
    {
      "midi": 60,
      "hit": false,
      "t": 223724.1600000003,
      "d": 2495.975624999992,
      "v": 127
    },
    {
      "midi": 39,
      "hit": false,
      "t": 223978.39200000014,
      "d": 14.565375000005588,
      "v": 127
    },
    {
      "midi": 43,
      "hit": false,
      "t": 224478.9112500005,
      "d": 88.71637499998906,
      "v": 106
    },
    {
      "midi": 67,
      "hit": false,
      "t": 224478.9112500008,
      "d": 87.39225000000442,
      "v": 105
    },
    {
      "midi": 55,
      "hit": false,
      "t": 224480.2353750008,
      "d": 94.0128749999858,
      "v": 105
    },
    {
      "midi": 34,
      "hit": false,
      "t": 224486.85600000015,
      "d": 165.515625,
      "v": 127
    },
    {
      "midi": 48,
      "hit": false,
      "t": 224702.6883750007,
      "d": 227.74950000000536,
      "v": 85
    },
    {
      "midi": 72,
      "hit": false,
      "t": 224733.14325000078,
      "d": 221.12887500002398,
      "v": 105
    },
    {
      "midi": 60,
      "hit": false,
      "t": 224734.4673750008,
      "d": 197.29462500000955,
      "v": 105
    },
    {
      "midi": 39,
      "hit": false,
      "t": 224741.08800000013,
      "d": 111.22649999998976,
      "v": 112
    },
    {
      "midi": 48,
      "hit": false,
      "t": 224754.32925000048,
      "d": 91.36462499998743,
      "v": 120
    },
    {
      "midi": 46,
      "hit": false,
      "t": 224988.6993750007,
      "d": 83.41987499999232,
      "v": 86
    },
    {
      "midi": 70,
      "hit": false,
      "t": 224991.3476250008,
      "d": 70.17862500000047,
      "v": 105
    },
    {
      "midi": 58,
      "hit": false,
      "t": 224992.67175000082,
      "d": 71.5027499999851,
      "v": 105
    },
    {
      "midi": 46,
      "hit": false,
      "t": 224993.99587500046,
      "d": 88.71637499998906,
      "v": 127
    },
    {
      "midi": 39,
      "hit": false,
      "t": 224995.32000000012,
      "d": 328.38300000000163,
      "v": 127
    },
    {
      "midi": 51,
      "hit": false,
      "t": 225228.36600000068,
      "d": 62.233875000005355,
      "v": 100
    },
    {
      "midi": 63,
      "hit": false,
      "t": 225248.2278750008,
      "d": 66.20624999998836,
      "v": 105
    },
    {
      "midi": 51,
      "hit": false,
      "t": 225250.87612500045,
      "d": 72.82687499999884,
      "v": 96
    },
    {
      "midi": 75,
      "hit": false,
      "t": 225250.8761250008,
      "d": 63.55799999998999,
      "v": 105
    },
    {
      "midi": 46,
      "hit": false,
      "t": 225479.9497500007,
      "d": 94.0128749999858,
      "v": 127
    },
    {
      "midi": 46,
      "hit": false,
      "t": 225498.48750000045,
      "d": 177.43275000000722,
      "v": 112
    },
    {
      "midi": 34,
      "hit": false,
      "t": 225503.78400000013,
      "d": 127.11600000000908,
      "v": 127
    },
    {
      "midi": 58,
      "hit": false,
      "t": 225505.10812500078,
      "d": 90.0405000000028,
      "v": 105
    },
    {
      "midi": 70,
      "hit": false,
      "t": 225507.75637500078,
      "d": 88.71637500001816,
      "v": 105
    },
    {
      "midi": 52,
      "hit": false,
      "t": 225758.01599999942,
      "d": 2033.8559999999998,
      "v": 83
    },
    {
      "midi": 58,
      "hit": false,
      "t": 225758.01599999942,
      "d": 2033.8559999999998,
      "v": 83
    },
    {
      "midi": 63,
      "hit": false,
      "t": 225758.01599999942,
      "d": 2033.8559999999998,
      "v": 83
    },
    {
      "midi": 36,
      "hit": false,
      "t": 225758.01600000015,
      "d": 136.38487499998882,
      "v": 127
    },
    {
      "midi": 48,
      "hit": false,
      "t": 225972.5242500007,
      "d": 507.1398749999935,
      "v": 94
    },
    {
      "midi": 48,
      "hit": false,
      "t": 226005.62737500045,
      "d": 1599.5430000000051,
      "v": 94
    },
    {
      "midi": 72,
      "hit": false,
      "t": 226010.9238750008,
      "d": 1664.4251250000088,
      "v": 105
    },
    {
      "midi": 36,
      "hit": false,
      "t": 226012.24800000014,
      "d": 190.67399999999907,
      "v": 127
    },
    {
      "midi": 60,
      "hit": false,
      "t": 226013.5721250008,
      "d": 1663.1010000000242,
      "v": 105
    },
    {
      "midi": 36,
      "hit": false,
      "t": 226266.48000000013,
      "d": 148.30199999999604,
      "v": 127
    },
    {
      "midi": 67,
      "hit": false,
      "t": 226266.48000000027,
      "d": 395.9133750000037,
      "v": 94
    },
    {
      "midi": 36,
      "hit": false,
      "t": 226520.71200000012,
      "d": 135.0607500000042,
      "v": 127
    },
    {
      "midi": 36,
      "hit": false,
      "t": 226774.94400000013,
      "d": 129.76425000000745,
      "v": 120
    },
    {
      "midi": 67,
      "hit": false,
      "t": 226774.94400000028,
      "d": 345.5966250000056,
      "v": 127
    },
    {
      "midi": 35,
      "hit": false,
      "t": 226800.10237500016,
      "d": 37.075500000006286,
      "v": 47
    },
    {
      "midi": 38,
      "hit": false,
      "t": 226861.01212500018,
      "d": 84.74400000000605,
      "v": 57
    },
    {
      "midi": 40,
      "hit": false,
      "t": 226903.3841250002,
      "d": 52.96499999999651,
      "v": 64
    },
    {
      "midi": 42,
      "hit": false,
      "t": 226944.43200000018,
      "d": 52.96499999999651,
      "v": 112
    },
    {
      "midi": 45,
      "hit": false,
      "t": 226992.10050000018,
      "d": 64.88212500000373,
      "v": 112
    },
    {
      "midi": 36,
      "hit": false,
      "t": 227029.17600000015,
      "d": 227.74950000000536,
      "v": 127
    },
    {
      "midi": 47,
      "hit": false,
      "t": 227045.06550000017,
      "d": 50.31675000002724,
      "v": 88
    },
    {
      "midi": 50,
      "hit": false,
      "t": 227091.4098750002,
      "d": 56.937375000008615,
      "v": 95
    },
    {
      "midi": 52,
      "hit": false,
      "t": 227136.4301250002,
      "d": 42.37200000000303,
      "v": 103
    },
    {
      "midi": 54,
      "hit": false,
      "t": 227173.5056250002,
      "d": 34.427250000007916,
      "v": 109
    },
    {
      "midi": 57,
      "hit": false,
      "t": 227207.9328750002,
      "d": 51.64087499998277,
      "v": 115
    },
    {
      "midi": 59,
      "hit": false,
      "t": 227246.3325000002,
      "d": 42.37200000000303,
      "v": 121
    },
    {
      "midi": 38,
      "hit": false,
      "t": 227283.40800000017,
      "d": 229.07362499999,
      "v": 127
    },
    {
      "midi": 67,
      "hit": false,
      "t": 227283.4080000003,
      "d": 227.74950000000536,
      "v": 120
    },
    {
      "midi": 62,
      "hit": false,
      "t": 227290.0286250002,
      "d": 47.66849999999977,
      "v": 123
    },
    {
      "midi": 64,
      "hit": false,
      "t": 227331.0765000002,
      "d": 41.047875000018394,
      "v": 116
    },
    {
      "midi": 66,
      "hit": false,
      "t": 227365.5037500002,
      "d": 41.047875000018394,
      "v": 111
    },
    {
      "midi": 69,
      "hit": false,
      "t": 227406.55162500023,
      "d": 54.289125000010245,
      "v": 106
    },
    {
      "midi": 71,
      "hit": false,
      "t": 227456.86837500022,
      "d": 43.696125000016764,
      "v": 99
    },
    {
      "midi": 74,
      "hit": false,
      "t": 227503.21275000024,
      "d": 52.96499999999651,
      "v": 93
    },
    {
      "midi": 39,
      "hit": false,
      "t": 227537.64000000016,
      "d": 243.63899999999558,
      "v": 127
    },
    {
      "midi": 76,
      "hit": false,
      "t": 227550.88125000024,
      "d": 41.04787499998929,
      "v": 87
    },
    {
      "midi": 78,
      "hit": false,
      "t": 227586.63262500023,
      "d": 33.10312499999418,
      "v": 82
    },
    {
      "midi": 81,
      "hit": false,
      "t": 227619.73575000023,
      "d": 50.31674999999814,
      "v": 78
    },
    {
      "midi": 83,
      "hit": false,
      "t": 227664.75600000023,
      "d": 34.427250000007916,
      "v": 72
    },
    {
      "midi": 86,
      "hit": false,
      "t": 227703.15562500025,
      "d": 43.69612499998766,
      "v": 67
    },
    {
      "midi": 88,
      "hit": false,
      "t": 227744.20350000024,
      "d": 27.80662499999744,
      "v": 61
    },
    {
      "midi": 90,
      "hit": false,
      "t": 227773.33425000025,
      "d": 22.5101250000007,
      "v": 57
    }
  ]
}