{
  "jsonPath": "Rock/Glam Rock/Elton John/goodbye-yellow-brick-road.json",
  "path": "Rock\\Glam Rock\\Elton John\\Goodbye Yellow Brick Road.mid",
  "name": "Goodbye Yellow Brick Road",
  "difficulty": "Advanced",
  "bpm": 120.00768049155145,
  "notes": [
    {
      "midi": 43,
      "hit": false,
      "t": 5992.048,
      "d": 701.2799999999997,
      "v": 89
    },
    {
      "midi": 58,
      "hit": false,
      "t": 5992.048,
      "d": 794.7839999999997,
      "v": 121
    },
    {
      "midi": 31,
      "hit": false,
      "t": 5999.84,
      "d": 701.2799999999997,
      "v": 95
    },
    {
      "midi": 62,
      "hit": false,
      "t": 5999.84,
      "d": 771.4079999999994,
      "v": 104
    },
    {
      "midi": 55,
      "hit": false,
      "t": 5999.84,
      "d": 794.7839999999997,
      "v": 97
    },
    {
      "midi": 55,
      "hit": false,
      "t": 7488.112,
      "d": 631.152000000001,
      "v": 101
    },
    {
      "midi": 58,
      "hit": false,
      "t": 7488.112,
      "d": 638.9440000000013,
      "v": 125
    },
    {
      "midi": 34,
      "hit": false,
      "t": 7488.112,
      "d": 662.3200000000015,
      "v": 90
    },
    {
      "midi": 46,
      "hit": false,
      "t": 7488.112,
      "d": 693.4880000000012,
      "v": 99
    },
    {
      "midi": 62,
      "hit": false,
      "t": 7495.904,
      "d": 599.9840000000004,
      "v": 107
    },
    {
      "midi": 60,
      "hit": false,
      "t": 8984.176000000001,
      "d": 1215.5519999999997,
      "v": 121
    },
    {
      "midi": 48,
      "hit": false,
      "t": 8991.968,
      "d": 755.8240000000005,
      "v": 101
    },
    {
      "midi": 55,
      "hit": false,
      "t": 8991.968,
      "d": 1075.2960000000003,
      "v": 107
    },
    {
      "midi": 64,
      "hit": false,
      "t": 8991.968,
      "d": 1215.5519999999997,
      "v": 107
    },
    {
      "midi": 36,
      "hit": false,
      "t": 8991.968,
      "d": 2571.3600000000006,
      "v": 100
    },
    {
      "midi": 48,
      "hit": false,
      "t": 10223.104000000001,
      "d": 997.3760000000002,
      "v": 91
    },
    {
      "midi": 55,
      "hit": false,
      "t": 10480.240000000002,
      "d": 498.6880000000001,
      "v": 92
    },
    {
      "midi": 60,
      "hit": false,
      "t": 10971.136000000002,
      "d": 405.1839999999993,
      "v": 93
    },
    {
      "midi": 64,
      "hit": false,
      "t": 11220.480000000001,
      "d": 397.3919999999998,
      "v": 109
    },
    {
      "midi": 48,
      "hit": false,
      "t": 11719.168000000001,
      "d": 70.12800000000061,
      "v": 59
    },
    {
      "midi": 60,
      "hit": false,
      "t": 11968.512000000002,
      "d": 966.2079999999987,
      "v": 115
    },
    {
      "midi": 57,
      "hit": false,
      "t": 11976.304000000002,
      "d": 779.1999999999989,
      "v": 98
    },
    {
      "midi": 65,
      "hit": false,
      "t": 11976.304000000002,
      "d": 1012.9599999999991,
      "v": 113
    },
    {
      "midi": 53,
      "hit": false,
      "t": 11984.096000000001,
      "d": 553.232,
      "v": 106
    },
    {
      "midi": 41,
      "hit": false,
      "t": 11984.096000000001,
      "d": 701.2800000000007,
      "v": 102
    },
    {
      "midi": 53,
      "hit": false,
      "t": 12724.336000000001,
      "d": 116.8799999999992,
      "v": 82
    },
    {
      "midi": 57,
      "hit": false,
      "t": 13215.232000000002,
      "d": 140.2559999999994,
      "v": 80
    },
    {
      "midi": 45,
      "hit": false,
      "t": 13464.576000000001,
      "d": 358.4319999999989,
      "v": 90
    },
    {
      "midi": 57,
      "hit": false,
      "t": 13464.576000000001,
      "d": 506.47999999999774,
      "v": 101
    },
    {
      "midi": 60,
      "hit": false,
      "t": 13472.368,
      "d": 638.9439999999977,
      "v": 115
    },
    {
      "midi": 65,
      "hit": false,
      "t": 13472.368,
      "d": 724.6559999999972,
      "v": 107
    },
    {
      "midi": 33,
      "hit": false,
      "t": 13472.368,
      "d": 1199.9679999999971,
      "v": 96
    },
    {
      "midi": 45,
      "hit": false,
      "t": 13963.264,
      "d": 272.7199999999975,
      "v": 81
    },
    {
      "midi": 45,
      "hit": false,
      "t": 14711.295999999997,
      "d": 93.50400000000081,
      "v": 84
    },
    {
      "midi": 60,
      "hit": false,
      "t": 14960.639999999998,
      "d": 451.9359999999997,
      "v": 109
    },
    {
      "midi": 58,
      "hit": false,
      "t": 14960.639999999998,
      "d": 1192.1759999999995,
      "v": 112
    },
    {
      "midi": 53,
      "hit": false,
      "t": 14968.431999999997,
      "d": 942.8320000000003,
      "v": 109
    },
    {
      "midi": 34,
      "hit": false,
      "t": 14968.431999999997,
      "d": 2244.095999999994,
      "v": 104
    },
    {
      "midi": 62,
      "hit": false,
      "t": 15459.327999999998,
      "d": 786.9919999999984,
      "v": 92
    },
    {
      "midi": 46,
      "hit": false,
      "t": 15708.671999999997,
      "d": 1231.1359999999968,
      "v": 96
    },
    {
      "midi": 53,
      "hit": false,
      "t": 16207.359999999997,
      "d": 155.83999999999833,
      "v": 62
    },
    {
      "midi": 53,
      "hit": false,
      "t": 16456.703999999994,
      "d": 709.0719999999965,
      "v": 101
    },
    {
      "midi": 62,
      "hit": false,
      "t": 16456.703999999994,
      "d": 771.4079999999958,
      "v": 109
    },
    {
      "midi": 58,
      "hit": false,
      "t": 16456.703999999994,
      "d": 786.9919999999947,
      "v": 112
    },
    {
      "midi": 46,
      "hit": false,
      "t": 17204.73599999999,
      "d": 194.79999999999927,
      "v": 110
    },
    {
      "midi": 53,
      "hit": false,
      "t": 17703.423999999988,
      "d": 77.91999999999825,
      "v": 33
    },
    {
      "midi": 53,
      "hit": false,
      "t": 17952.767999999985,
      "d": 319.4720000000016,
      "v": 98
    },
    {
      "midi": 58,
      "hit": false,
      "t": 17960.559999999987,
      "d": 1199.9680000000008,
      "v": 117
    },
    {
      "midi": 63,
      "hit": false,
      "t": 17960.559999999987,
      "d": 1199.9680000000008,
      "v": 106
    },
    {
      "midi": 39,
      "hit": false,
      "t": 17960.559999999987,
      "d": 2267.4720000000016,
      "v": 104
    },
    {
      "midi": 55,
      "hit": false,
      "t": 18451.455999999987,
      "d": 475.3120000000017,
      "v": 100
    },
    {
      "midi": 51,
      "hit": false,
      "t": 18700.79999999999,
      "d": 903.8719999999994,
      "v": 108
    },
    {
      "midi": 55,
      "hit": false,
      "t": 19199.487999999987,
      "d": 116.88000000000102,
      "v": 42
    },
    {
      "midi": 63,
      "hit": false,
      "t": 19456.62399999999,
      "d": 374.0159999999996,
      "v": 117
    },
    {
      "midi": 58,
      "hit": false,
      "t": 19456.62399999999,
      "d": 381.8080000000009,
      "v": 125
    },
    {
      "midi": 55,
      "hit": false,
      "t": 19456.62399999999,
      "d": 467.52000000000044,
      "v": 106
    },
    {
      "midi": 51,
      "hit": false,
      "t": 20204.655999999988,
      "d": 428.5600000000013,
      "v": 88
    },
    {
      "midi": 39,
      "hit": false,
      "t": 20695.55199999999,
      "d": 93.50400000000081,
      "v": 70
    },
    {
      "midi": 55,
      "hit": false,
      "t": 20952.687999999987,
      "d": 709.0720000000038,
      "v": 102
    },
    {
      "midi": 58,
      "hit": false,
      "t": 20952.687999999987,
      "d": 864.9120000000039,
      "v": 121
    },
    {
      "midi": 48,
      "hit": false,
      "t": 20960.47999999999,
      "d": 451.9360000000015,
      "v": 92
    },
    {
      "midi": 64,
      "hit": false,
      "t": 20960.47999999999,
      "d": 1020.752000000004,
      "v": 107
    },
    {
      "midi": 36,
      "hit": false,
      "t": 20960.47999999999,
      "d": 2703.824000000004,
      "v": 117
    },
    {
      "midi": 48,
      "hit": false,
      "t": 21692.927999999993,
      "d": 849.3279999999977,
      "v": 90
    },
    {
      "midi": 55,
      "hit": false,
      "t": 22191.61599999999,
      "d": 140.25600000000122,
      "v": 78
    },
    {
      "midi": 55,
      "hit": false,
      "t": 22440.959999999992,
      "d": 444.14400000000023,
      "v": 102
    },
    {
      "midi": 64,
      "hit": false,
      "t": 22440.959999999992,
      "d": 825.9520000000048,
      "v": 109
    },
    {
      "midi": 58,
      "hit": false,
      "t": 22440.959999999992,
      "d": 864.9120000000039,
      "v": 123
    },
    {
      "midi": 48,
      "hit": false,
      "t": 22939.647999999994,
      "d": 319.4720000000016,
      "v": 98
    },
    {
      "midi": 55,
      "hit": false,
      "t": 23188.991999999995,
      "d": 241.55199999999968,
      "v": 89
    },
    {
      "midi": 48,
      "hit": false,
      "t": 23687.679999999993,
      "d": 116.88000000000102,
      "v": 84
    },
    {
      "midi": 41,
      "hit": false,
      "t": 23937.023999999994,
      "d": 1994.7519999999968,
      "v": 109
    },
    {
      "midi": 57,
      "hit": false,
      "t": 23944.815999999995,
      "d": 779.1999999999971,
      "v": 90
    },
    {
      "midi": 60,
      "hit": false,
      "t": 23944.815999999995,
      "d": 1020.7519999999968,
      "v": 102
    },
    {
      "midi": 65,
      "hit": false,
      "t": 23944.815999999995,
      "d": 1106.4639999999963,
      "v": 98
    },
    {
      "midi": 53,
      "hit": false,
      "t": 24685.055999999993,
      "d": 1153.2159999999967,
      "v": 88
    },
    {
      "midi": 57,
      "hit": false,
      "t": 25183.74399999999,
      "d": 615.5679999999993,
      "v": 85
    },
    {
      "midi": 60,
      "hit": false,
      "t": 25433.087999999992,
      "d": 436.35199999999895,
      "v": 115
    },
    {
      "midi": 48,
      "hit": false,
      "t": 25939.567999999992,
      "d": 257.13600000000224,
      "v": 77
    },
    {
      "midi": 60,
      "hit": false,
      "t": 26181.11999999999,
      "d": 1503.8560000000034,
      "v": 117
    },
    {
      "midi": 65,
      "hit": false,
      "t": 26181.11999999999,
      "d": 1542.8160000000025,
      "v": 115
    },
    {
      "midi": 53,
      "hit": false,
      "t": 26188.911999999993,
      "d": 1254.5119999999988,
      "v": 109
    },
    {
      "midi": 57,
      "hit": false,
      "t": 26188.911999999993,
      "d": 1480.4799999999996,
      "v": 102
    },
    {
      "midi": 53,
      "hit": false,
      "t": 27677.183999999994,
      "d": 1215.5519999999997,
      "v": 91
    },
    {
      "midi": 67,
      "hit": false,
      "t": 28433.007999999994,
      "d": 498.6880000000019,
      "v": 107
    },
    {
      "midi": 72,
      "hit": false,
      "t": 28433.007999999994,
      "d": 786.992000000002,
      "v": 107
    },
    {
      "midi": 69,
      "hit": false,
      "t": 28923.903999999995,
      "d": 296.09600000000137,
      "v": 93
    },
    {
      "midi": 65,
      "hit": false,
      "t": 29173.247999999996,
      "d": 132.46399999999994,
      "v": 106
    },
    {
      "midi": 58,
      "hit": false,
      "t": 29921.28,
      "d": 1005.1680000000015,
      "v": 112
    },
    {
      "midi": 31,
      "hit": false,
      "t": 29929.072,
      "d": 818.1599999999999,
      "v": 93
    },
    {
      "midi": 53,
      "hit": false,
      "t": 29936.864,
      "d": 23.376000000000204,
      "v": 98
    },
    {
      "midi": 43,
      "hit": false,
      "t": 29936.864,
      "d": 475.3120000000017,
      "v": 82
    },
    {
      "midi": 55,
      "hit": false,
      "t": 29936.864,
      "d": 670.112000000001,
      "v": 96
    },
    {
      "midi": 62,
      "hit": false,
      "t": 29936.864,
      "d": 1075.296000000002,
      "v": 97
    },
    {
      "midi": 43,
      "hit": false,
      "t": 30669.312,
      "d": 288.3040000000001,
      "v": 86
    },
    {
      "midi": 55,
      "hit": false,
      "t": 31168.000000000004,
      "d": 132.46399999999994,
      "v": 61
    },
    {
      "midi": 55,
      "hit": false,
      "t": 31417.344000000005,
      "d": 740.2400000000016,
      "v": 100
    },
    {
      "midi": 46,
      "hit": false,
      "t": 31425.136000000006,
      "d": 451.9360000000015,
      "v": 106
    },
    {
      "midi": 62,
      "hit": false,
      "t": 31425.136000000006,
      "d": 763.6160000000018,
      "v": 98
    },
    {
      "midi": 34,
      "hit": false,
      "t": 31425.136000000006,
      "d": 771.4080000000031,
      "v": 104
    },
    {
      "midi": 58,
      "hit": false,
      "t": 31425.136000000006,
      "d": 786.992000000002,
      "v": 121
    },
    {
      "midi": 46,
      "hit": false,
      "t": 32165.376000000007,
      "d": 218.17599999999948,
      "v": 80
    },
    {
      "midi": 55,
      "hit": false,
      "t": 32921.200000000004,
      "d": 981.7920000000013,
      "v": 104
    },
    {
      "midi": 58,
      "hit": false,
      "t": 32921.200000000004,
      "d": 1254.5120000000024,
      "v": 119
    },
    {
      "midi": 64,
      "hit": false,
      "t": 32921.200000000004,
      "d": 1386.9760000000024,
      "v": 107
    },
    {
      "midi": 48,
      "hit": false,
      "t": 32928.992000000006,
      "d": 490.89600000000064,
      "v": 97
    },
    {
      "midi": 36,
      "hit": false,
      "t": 32928.992000000006,
      "d": 2641.488000000012,
      "v": 106
    },
    {
      "midi": 48,
      "hit": false,
      "t": 34160.128000000004,
      "d": 981.7920000000086,
      "v": 100
    },
    {
      "midi": 55,
      "hit": false,
      "t": 34409.47200000001,
      "d": 553.2320000000036,
      "v": 89
    },
    {
      "midi": 58,
      "hit": false,
      "t": 34908.16000000001,
      "d": 335.05600000000413,
      "v": 102
    },
    {
      "midi": 64,
      "hit": false,
      "t": 35157.504000000015,
      "d": 327.26400000000285,
      "v": 111
    },
    {
      "midi": 48,
      "hit": false,
      "t": 35656.19200000002,
      "d": 109.08800000000338,
      "v": 65
    },
    {
      "midi": 65,
      "hit": false,
      "t": 35905.53600000002,
      "d": 794.7840000000069,
      "v": 101
    },
    {
      "midi": 53,
      "hit": false,
      "t": 35913.32800000002,
      "d": 272.72000000000116,
      "v": 109
    },
    {
      "midi": 57,
      "hit": false,
      "t": 35913.32800000002,
      "d": 498.6880000000019,
      "v": 95
    },
    {
      "midi": 60,
      "hit": false,
      "t": 35913.32800000002,
      "d": 771.4080000000031,
      "v": 107
    },
    {
      "midi": 41,
      "hit": false,
      "t": 35913.32800000002,
      "d": 802.5760000000082,
      "v": 95
    },
    {
      "midi": 53,
      "hit": false,
      "t": 36404.224000000024,
      "d": 249.3440000000046,
      "v": 92
    },
    {
      "midi": 57,
      "hit": false,
      "t": 36661.36000000003,
      "d": 319.4720000000016,
      "v": 84
    },
    {
      "midi": 45,
      "hit": false,
      "t": 37152.25600000003,
      "d": 483.10399999999936,
      "v": 63
    },
    {
      "midi": 57,
      "hit": false,
      "t": 37401.60000000003,
      "d": 483.10399999999936,
      "v": 97
    },
    {
      "midi": 60,
      "hit": false,
      "t": 37401.60000000003,
      "d": 561.0240000000049,
      "v": 111
    },
    {
      "midi": 65,
      "hit": false,
      "t": 37409.39200000003,
      "d": 561.0240000000049,
      "v": 111
    },
    {
      "midi": 33,
      "hit": false,
      "t": 37409.39200000003,
      "d": 654.5280000000057,
      "v": 113
    },
    {
      "midi": 45,
      "hit": false,
      "t": 37900.28800000003,
      "d": 327.26400000000285,
      "v": 51
    },
    {
      "midi": 53,
      "hit": false,
      "t": 38157.424000000035,
      "d": 303.887999999999,
      "v": 78
    },
    {
      "midi": 46,
      "hit": false,
      "t": 38648.320000000036,
      "d": 724.6559999999954,
      "v": 102
    },
    {
      "midi": 58,
      "hit": false,
      "t": 38897.66400000003,
      "d": 942.8319999999876,
      "v": 117
    },
    {
      "midi": 60,
      "hit": false,
      "t": 38905.456000000035,
      "d": 420.7679999999964,
      "v": 111
    },
    {
      "midi": 53,
      "hit": false,
      "t": 38905.456000000035,
      "d": 896.0799999999872,
      "v": 106
    },
    {
      "midi": 34,
      "hit": false,
      "t": 38905.456000000035,
      "d": 2197.34399999999,
      "v": 106
    },
    {
      "midi": 62,
      "hit": false,
      "t": 39396.35200000003,
      "d": 685.6959999999963,
      "v": 93
    },
    {
      "midi": 46,
      "hit": false,
      "t": 39645.696000000025,
      "d": 911.663999999997,
      "v": 102
    },
    {
      "midi": 53,
      "hit": false,
      "t": 40144.38400000003,
      "d": 132.46399999999994,
      "v": 54
    },
    {
      "midi": 62,
      "hit": false,
      "t": 40393.728000000025,
      "d": 405.1840000000011,
      "v": 111
    },
    {
      "midi": 53,
      "hit": false,
      "t": 40393.728000000025,
      "d": 459.7280000000028,
      "v": 115
    },
    {
      "midi": 58,
      "hit": false,
      "t": 40401.520000000026,
      "d": 490.89600000000064,
      "v": 121
    },
    {
      "midi": 46,
      "hit": false,
      "t": 41141.760000000024,
      "d": 179.21600000000035,
      "v": 104
    },
    {
      "midi": 53,
      "hit": false,
      "t": 41640.448000000026,
      "d": 93.50400000000081,
      "v": 61
    },
    {
      "midi": 63,
      "hit": false,
      "t": 41889.79200000002,
      "d": 1254.5119999999952,
      "v": 119
    },
    {
      "midi": 53,
      "hit": false,
      "t": 41897.584000000024,
      "d": 311.6800000000003,
      "v": 104
    },
    {
      "midi": 58,
      "hit": false,
      "t": 41897.584000000024,
      "d": 1262.3039999999964,
      "v": 123
    },
    {
      "midi": 39,
      "hit": false,
      "t": 41905.376000000026,
      "d": 2064.8799999999974,
      "v": 108
    },
    {
      "midi": 55,
      "hit": false,
      "t": 42388.480000000025,
      "d": 498.68799999999464,
      "v": 93
    },
    {
      "midi": 51,
      "hit": false,
      "t": 42637.82400000002,
      "d": 810.3680000000022,
      "v": 96
    },
    {
      "midi": 55,
      "hit": false,
      "t": 43136.51200000002,
      "d": 210.38400000000547,
      "v": 64
    },
    {
      "midi": 55,
      "hit": false,
      "t": 43393.64800000002,
      "d": 420.76800000000367,
      "v": 49
    },
    {
      "midi": 63,
      "hit": false,
      "t": 43393.64800000002,
      "d": 451.9360000000015,
      "v": 119
    },
    {
      "midi": 58,
      "hit": false,
      "t": 43393.64800000002,
      "d": 475.3119999999981,
      "v": 123
    },
    {
      "midi": 51,
      "hit": false,
      "t": 43884.54400000002,
      "d": 124.67199999999866,
      "v": 97
    },
    {
      "midi": 38,
      "hit": false,
      "t": 44133.88800000002,
      "d": 584.4000000000087,
      "v": 104
    },
    {
      "midi": 62,
      "hit": false,
      "t": 44141.68000000002,
      "d": 444.14400000000023,
      "v": 104
    },
    {
      "midi": 58,
      "hit": false,
      "t": 44141.68000000002,
      "d": 459.7280000000028,
      "v": 123
    },
    {
      "midi": 53,
      "hit": false,
      "t": 44141.68000000002,
      "d": 498.6880000000019,
      "v": 106
    },
    {
      "midi": 50,
      "hit": false,
      "t": 44141.68000000002,
      "d": 514.2720000000045,
      "v": 92
    },
    {
      "midi": 55,
      "hit": false,
      "t": 44889.71200000003,
      "d": 857.1200000000026,
      "v": 97
    },
    {
      "midi": 60,
      "hit": false,
      "t": 44889.71200000003,
      "d": 1137.632000000005,
      "v": 113
    },
    {
      "midi": 64,
      "hit": false,
      "t": 44889.71200000003,
      "d": 1168.800000000003,
      "v": 101
    },
    {
      "midi": 48,
      "hit": false,
      "t": 44897.50400000003,
      "d": 444.14400000000023,
      "v": 104
    },
    {
      "midi": 36,
      "hit": false,
      "t": 44897.50400000003,
      "d": 2220.719999999994,
      "v": 113
    },
    {
      "midi": 48,
      "hit": false,
      "t": 45629.95200000003,
      "d": 880.4959999999992,
      "v": 93
    },
    {
      "midi": 55,
      "hit": false,
      "t": 46128.64000000003,
      "d": 124.67199999999866,
      "v": 56
    },
    {
      "midi": 55,
      "hit": false,
      "t": 46377.984000000026,
      "d": 428.5599999999977,
      "v": 98
    },
    {
      "midi": 64,
      "hit": false,
      "t": 46377.984000000026,
      "d": 771.4079999999958,
      "v": 107
    },
    {
      "midi": 60,
      "hit": false,
      "t": 46377.984000000026,
      "d": 1020.7519999999931,
      "v": 115
    },
    {
      "midi": 48,
      "hit": false,
      "t": 46876.67200000002,
      "d": 303.887999999999,
      "v": 100
    },
    {
      "midi": 55,
      "hit": false,
      "t": 47126.016000000025,
      "d": 272.7199999999939,
      "v": 102
    },
    {
      "midi": 53,
      "hit": false,
      "t": 47624.70400000002,
      "d": 155.8399999999965,
      "v": 96
    },
    {
      "midi": 53,
      "hit": false,
      "t": 47881.84000000002,
      "d": 592.1920000000027,
      "v": 85
    },
    {
      "midi": 57,
      "hit": false,
      "t": 47881.84000000002,
      "d": 888.2880000000005,
      "v": 102
    },
    {
      "midi": 65,
      "hit": false,
      "t": 47881.84000000002,
      "d": 1161.0079999999944,
      "v": 102
    },
    {
      "midi": 41,
      "hit": false,
      "t": 47881.84000000002,
      "d": 2353.1839999999866,
      "v": 113
    },
    {
      "midi": 60,
      "hit": false,
      "t": 47889.63200000002,
      "d": 1083.087999999996,
      "v": 115
    },
    {
      "midi": 53,
      "hit": false,
      "t": 48629.87200000002,
      "d": 1472.6879999999874,
      "v": 104
    },
    {
      "midi": 57,
      "hit": false,
      "t": 49120.76800000001,
      "d": 381.80799999999726,
      "v": 92
    },
    {
      "midi": 60,
      "hit": false,
      "t": 49370.11200000001,
      "d": 163.6319999999978,
      "v": 93
    },
    {
      "midi": 57,
      "hit": false,
      "t": 49868.8,
      "d": 732.448000000004,
      "v": 102
    },
    {
      "midi": 65,
      "hit": false,
      "t": 49868.8,
      "d": 779.2000000000044,
      "v": 123
    },
    {
      "midi": 60,
      "hit": false,
      "t": 49868.8,
      "d": 857.1200000000026,
      "v": 124
    },
    {
      "midi": 48,
      "hit": false,
      "t": 50118.14400000001,
      "d": 529.8559999999998,
      "v": 90
    },
    {
      "midi": 53,
      "hit": false,
      "t": 50616.83200000001,
      "d": 872.7039999999979,
      "v": 96
    },
    {
      "midi": 57,
      "hit": false,
      "t": 50866.17600000001,
      "d": 872.7039999999979,
      "v": 104
    },
    {
      "midi": 60,
      "hit": false,
      "t": 50866.17600000001,
      "d": 896.0800000000017,
      "v": 121
    },
    {
      "midi": 65,
      "hit": false,
      "t": 50873.96800000001,
      "d": 872.7039999999979,
      "v": 119
    },
    {
      "midi": 41,
      "hit": false,
      "t": 50873.96800000001,
      "d": 2867.4560000000056,
      "v": 111
    },
    {
      "midi": 53,
      "hit": false,
      "t": 51622.00000000001,
      "d": 755.8240000000005,
      "v": 69
    },
    {
      "midi": 57,
      "hit": false,
      "t": 52112.89600000001,
      "d": 662.3199999999997,
      "v": 106
    },
    {
      "midi": 65,
      "hit": false,
      "t": 52112.89600000001,
      "d": 755.8240000000005,
      "v": 119
    },
    {
      "midi": 60,
      "hit": false,
      "t": 52112.89600000001,
      "d": 763.6160000000018,
      "v": 123
    },
    {
      "midi": 53,
      "hit": false,
      "t": 52860.92800000001,
      "d": 864.9120000000039,
      "v": 115
    },
    {
      "midi": 60,
      "hit": false,
      "t": 53110.27200000001,
      "d": 638.9440000000031,
      "v": 124
    },
    {
      "midi": 57,
      "hit": false,
      "t": 53110.27200000001,
      "d": 646.7360000000044,
      "v": 109
    },
    {
      "midi": 65,
      "hit": false,
      "t": 53110.27200000001,
      "d": 646.7360000000044,
      "v": 121
    },
    {
      "midi": 53,
      "hit": false,
      "t": 53866.09600000001,
      "d": 1090.8800000000047,
      "v": 109
    },
    {
      "midi": 56,
      "hit": false,
      "t": 53866.09600000001,
      "d": 1293.4720000000088,
      "v": 123
    },
    {
      "midi": 61,
      "hit": false,
      "t": 53866.09600000001,
      "d": 1355.8080000000118,
      "v": 123
    },
    {
      "midi": 49,
      "hit": false,
      "t": 53873.88800000001,
      "d": 755.8240000000005,
      "v": 108
    },
    {
      "midi": 37,
      "hit": false,
      "t": 53873.88800000001,
      "d": 2251.8880000000136,
      "v": 102
    },
    {
      "midi": 49,
      "hit": false,
      "t": 55105.02400000002,
      "d": 654.5280000000057,
      "v": 101
    },
    {
      "midi": 53,
      "hit": false,
      "t": 55362.160000000025,
      "d": 93.50400000000081,
      "v": 81
    },
    {
      "midi": 56,
      "hit": false,
      "t": 55853.056000000026,
      "d": 358.4320000000007,
      "v": 127
    },
    {
      "midi": 53,
      "hit": false,
      "t": 55853.056000000026,
      "d": 397.3919999999998,
      "v": 115
    },
    {
      "midi": 61,
      "hit": false,
      "t": 55860.84800000003,
      "d": 381.80799999999726,
      "v": 127
    },
    {
      "midi": 49,
      "hit": false,
      "t": 56102.40000000003,
      "d": 428.5599999999977,
      "v": 97
    },
    {
      "midi": 37,
      "hit": false,
      "t": 56601.088000000025,
      "d": 109.08800000000338,
      "v": 97
    },
    {
      "midi": 53,
      "hit": false,
      "t": 56858.22400000003,
      "d": 280.51200000000244,
      "v": 106
    },
    {
      "midi": 63,
      "hit": false,
      "t": 56858.22400000003,
      "d": 1215.551999999996,
      "v": 112
    },
    {
      "midi": 39,
      "hit": false,
      "t": 56858.22400000003,
      "d": 3031.087999999989,
      "v": 110
    },
    {
      "midi": 58,
      "hit": false,
      "t": 56866.01600000003,
      "d": 1176.591999999997,
      "v": 121
    },
    {
      "midi": 55,
      "hit": false,
      "t": 57349.12000000003,
      "d": 459.7279999999955,
      "v": 101
    },
    {
      "midi": 51,
      "hit": false,
      "t": 57606.25600000003,
      "d": 1098.6719999999914,
      "v": 101
    },
    {
      "midi": 55,
      "hit": false,
      "t": 58097.152000000024,
      "d": 116.87999999999738,
      "v": 36
    },
    {
      "midi": 63,
      "hit": false,
      "t": 58346.49600000002,
      "d": 1348.0160000000033,
      "v": 121
    },
    {
      "midi": 55,
      "hit": false,
      "t": 58346.49600000002,
      "d": 1371.3919999999998,
      "v": 101
    },
    {
      "midi": 58,
      "hit": false,
      "t": 58354.28800000002,
      "d": 1114.2560000000012,
      "v": 123
    },
    {
      "midi": 51,
      "hit": false,
      "t": 59094.52800000002,
      "d": 748.0319999999992,
      "v": 101
    },
    {
      "midi": 56,
      "hit": false,
      "t": 59850.35200000002,
      "d": 1192.1759999999995,
      "v": 121
    },
    {
      "midi": 63,
      "hit": false,
      "t": 59850.35200000002,
      "d": 1503.8559999999998,
      "v": 115
    },
    {
      "midi": 60,
      "hit": false,
      "t": 59850.35200000002,
      "d": 1542.815999999999,
      "v": 115
    },
    {
      "midi": 44,
      "hit": false,
      "t": 59858.14400000002,
      "d": 1036.3359999999957,
      "v": 102
    },
    {
      "midi": 44,
      "hit": false,
      "t": 61089.28000000002,
      "d": 935.0400000000009,
      "v": 104
    },
    {
      "midi": 56,
      "hit": false,
      "t": 61338.62400000002,
      "d": 272.72000000000116,
      "v": 79
    },
    {
      "midi": 56,
      "hit": false,
      "t": 61837.31200000002,
      "d": 786.9919999999984,
      "v": 117
    },
    {
      "midi": 63,
      "hit": false,
      "t": 61837.31200000002,
      "d": 802.5760000000009,
      "v": 110
    },
    {
      "midi": 60,
      "hit": false,
      "t": 61837.31200000002,
      "d": 841.5360000000001,
      "v": 106
    },
    {
      "midi": 44,
      "hit": false,
      "t": 62094.44800000002,
      "d": 677.9040000000023,
      "v": 99
    },
    {
      "midi": 61,
      "hit": false,
      "t": 62842.48000000002,
      "d": 1207.7600000000093,
      "v": 121
    },
    {
      "midi": 37,
      "hit": false,
      "t": 62842.48000000002,
      "d": 2392.1440000000075,
      "v": 94
    },
    {
      "midi": 49,
      "hit": false,
      "t": 62850.27200000002,
      "d": 498.6880000000019,
      "v": 97
    },
    {
      "midi": 53,
      "hit": false,
      "t": 62850.27200000002,
      "d": 833.744000000006,
      "v": 107
    },
    {
      "midi": 56,
      "hit": false,
      "t": 62850.27200000002,
      "d": 1192.1760000000068,
      "v": 123
    },
    {
      "midi": 49,
      "hit": false,
      "t": 63582.72000000002,
      "d": 1355.8079999999973,
      "v": 79
    },
    {
      "midi": 53,
      "hit": false,
      "t": 64081.408000000025,
      "d": 132.46399999999994,
      "v": 81
    },
    {
      "midi": 53,
      "hit": false,
      "t": 64330.75200000002,
      "d": 966.208000000006,
      "v": 97
    },
    {
      "midi": 56,
      "hit": false,
      "t": 64338.54400000002,
      "d": 1246.7200000000012,
      "v": 123
    },
    {
      "midi": 61,
      "hit": false,
      "t": 64338.54400000002,
      "d": 1277.8880000000063,
      "v": 119
    },
    {
      "midi": 49,
      "hit": false,
      "t": 65086.57600000002,
      "d": 537.6480000000083,
      "v": 93
    },
    {
      "midi": 37,
      "hit": false,
      "t": 65577.47200000002,
      "d": 303.8880000000063,
      "v": 94
    },
    {
      "midi": 46,
      "hit": false,
      "t": 65834.60800000004,
      "d": 1106.4639999999927,
      "v": 108
    },
    {
      "midi": 53,
      "hit": false,
      "t": 65834.60800000004,
      "d": 1285.679999999993,
      "v": 106
    },
    {
      "midi": 61,
      "hit": false,
      "t": 65834.60800000004,
      "d": 1527.2320000000036,
      "v": 112
    },
    {
      "midi": 56,
      "hit": false,
      "t": 65834.60800000004,
      "d": 1550.6080000000075,
      "v": 125
    },
    {
      "midi": 46,
      "hit": false,
      "t": 67073.53600000004,
      "d": 880.4960000000137,
      "v": 85
    },
    {
      "midi": 53,
      "hit": false,
      "t": 67322.88000000003,
      "d": 350.64000000001397,
      "v": 82
    },
    {
      "midi": 53,
      "hit": false,
      "t": 67821.56800000004,
      "d": 389.6000000000058,
      "v": 98
    },
    {
      "midi": 56,
      "hit": false,
      "t": 67821.56800000004,
      "d": 607.7760000000126,
      "v": 119
    },
    {
      "midi": 61,
      "hit": false,
      "t": 67821.56800000004,
      "d": 701.2800000000134,
      "v": 117
    },
    {
      "midi": 46,
      "hit": false,
      "t": 68070.91200000005,
      "d": 654.5279999999912,
      "v": 110
    },
    {
      "midi": 48,
      "hit": false,
      "t": 68577.39200000005,
      "d": 896.0800000000017,
      "v": 81
    },
    {
      "midi": 55,
      "hit": false,
      "t": 68818.94400000005,
      "d": 888.288000000015,
      "v": 96
    },
    {
      "midi": 36,
      "hit": false,
      "t": 68818.94400000005,
      "d": 2968.7520000000077,
      "v": 111
    },
    {
      "midi": 64,
      "hit": false,
      "t": 68826.73600000005,
      "d": 1254.512000000017,
      "v": 109
    },
    {
      "midi": 58,
      "hit": false,
      "t": 68826.73600000005,
      "d": 1262.3040000000183,
      "v": 119
    },
    {
      "midi": 48,
      "hit": false,
      "t": 69574.76800000005,
      "d": 1324.6399999999994,
      "v": 78
    },
    {
      "midi": 55,
      "hit": false,
      "t": 70065.66400000006,
      "d": 1698.6559999999881,
      "v": 66
    },
    {
      "midi": 58,
      "hit": false,
      "t": 70322.80000000006,
      "d": 1394.7679999999964,
      "v": 121
    },
    {
      "midi": 64,
      "hit": false,
      "t": 70813.69600000005,
      "d": 958.4159999999974,
      "v": 109
    },
    {
      "midi": 48,
      "hit": false,
      "t": 71063.04000000005,
      "d": 732.448000000004,
      "v": 100
    },
    {
      "midi": 53,
      "hit": false,
      "t": 71818.86400000006,
      "d": 997.3760000000038,
      "v": 106
    },
    {
      "midi": 57,
      "hit": false,
      "t": 71826.65600000006,
      "d": 1270.096000000005,
      "v": 101
    },
    {
      "midi": 60,
      "hit": false,
      "t": 71826.65600000006,
      "d": 1519.4400000000169,
      "v": 121
    },
    {
      "midi": 65,
      "hit": false,
      "t": 71826.65600000006,
      "d": 1550.608000000022,
      "v": 111
    },
    {
      "midi": 41,
      "hit": false,
      "t": 71826.65600000006,
      "d": 2945.3760000000184,
      "v": 106
    },
    {
      "midi": 53,
      "hit": false,
      "t": 73057.79200000006,
      "d": 857.1200000000244,
      "v": 104
    },
    {
      "midi": 57,
      "hit": false,
      "t": 73307.13600000007,
      "d": 1184.3840000000055,
      "v": 92
    },
    {
      "midi": 60,
      "hit": false,
      "t": 73805.82400000008,
      "d": 685.6959999999963,
      "v": 101
    },
    {
      "midi": 65,
      "hit": false,
      "t": 73805.82400000008,
      "d": 833.7439999999915,
      "v": 111
    },
    {
      "midi": 53,
      "hit": false,
      "t": 74062.96000000008,
      "d": 716.8640000000014,
      "v": 97
    },
    {
      "midi": 55,
      "hit": false,
      "t": 74803.20000000008,
      "d": 1277.8880000000063,
      "v": 98
    },
    {
      "midi": 61,
      "hit": false,
      "t": 74803.20000000008,
      "d": 1488.2720000000118,
      "v": 125
    },
    {
      "midi": 45,
      "hit": false,
      "t": 74810.99200000009,
      "d": 1075.296000000002,
      "v": 89
    },
    {
      "midi": 64,
      "hit": false,
      "t": 74810.99200000009,
      "d": 1480.4800000000105,
      "v": 104
    },
    {
      "midi": 45,
      "hit": false,
      "t": 76049.92000000009,
      "d": 841.5360000000073,
      "v": 93
    },
    {
      "midi": 55,
      "hit": false,
      "t": 76299.2640000001,
      "d": 950.6239999999962,
      "v": 100
    },
    {
      "midi": 61,
      "hit": false,
      "t": 76797.95200000009,
      "d": 677.903999999995,
      "v": 102
    },
    {
      "midi": 64,
      "hit": false,
      "t": 76797.95200000009,
      "d": 802.5759999999864,
      "v": 106
    },
    {
      "midi": 45,
      "hit": false,
      "t": 77047.29600000009,
      "d": 833.7439999999915,
      "v": 90
    },
    {
      "midi": 53,
      "hit": false,
      "t": 77545.98400000008,
      "d": 1246.7199999999866,
      "v": 101
    },
    {
      "midi": 60,
      "hit": false,
      "t": 77810.91200000008,
      "d": 475.3119999999908,
      "v": 115
    },
    {
      "midi": 46,
      "hit": false,
      "t": 77810.91200000008,
      "d": 561.0239999999903,
      "v": 97
    },
    {
      "midi": 58,
      "hit": false,
      "t": 77810.91200000008,
      "d": 1199.9679999999935,
      "v": 119
    },
    {
      "midi": 62,
      "hit": false,
      "t": 78294.01600000008,
      "d": 771.4080000000104,
      "v": 100
    },
    {
      "midi": 46,
      "hit": false,
      "t": 78543.36000000007,
      "d": 1332.4320000000007,
      "v": 94
    },
    {
      "midi": 53,
      "hit": false,
      "t": 79042.04800000008,
      "d": 1729.8239999999932,
      "v": 88
    },
    {
      "midi": 58,
      "hit": false,
      "t": 79291.39200000008,
      "d": 1371.3919999999925,
      "v": 123
    },
    {
      "midi": 62,
      "hit": false,
      "t": 79291.39200000008,
      "d": 1386.975999999995,
      "v": 101
    },
    {
      "midi": 46,
      "hit": false,
      "t": 80047.21600000007,
      "d": 709.0720000000001,
      "v": 102
    },
    {
      "midi": 41,
      "hit": false,
      "t": 80803.04000000008,
      "d": 981.7920000000013,
      "v": 91
    },
    {
      "midi": 53,
      "hit": false,
      "t": 80803.04000000008,
      "d": 1254.5120000000024,
      "v": 97
    },
    {
      "midi": 57,
      "hit": false,
      "t": 80803.04000000008,
      "d": 1433.7280000000028,
      "v": 109
    },
    {
      "midi": 60,
      "hit": false,
      "t": 80803.04000000008,
      "d": 1488.2719999999972,
      "v": 98
    },
    {
      "midi": 41,
      "hit": false,
      "t": 82034.17600000008,
      "d": 779.1999999999971,
      "v": 98
    },
    {
      "midi": 53,
      "hit": false,
      "t": 82283.52000000008,
      "d": 1129.840000000011,
      "v": 97
    },
    {
      "midi": 57,
      "hit": false,
      "t": 82782.20800000007,
      "d": 607.7760000000126,
      "v": 104
    },
    {
      "midi": 60,
      "hit": false,
      "t": 82782.20800000007,
      "d": 693.4880000000121,
      "v": 107
    },
    {
      "midi": 41,
      "hit": false,
      "t": 83031.55200000008,
      "d": 786.9919999999984,
      "v": 97
    },
    {
      "midi": 54,
      "hit": false,
      "t": 83787.37600000008,
      "d": 1277.8880000000063,
      "v": 93
    },
    {
      "midi": 62,
      "hit": false,
      "t": 83787.37600000008,
      "d": 1309.0560000000114,
      "v": 92
    },
    {
      "midi": 50,
      "hit": false,
      "t": 83795.16800000008,
      "d": 896.0800000000017,
      "v": 81
    },
    {
      "midi": 57,
      "hit": false,
      "t": 83795.16800000008,
      "d": 1363.6000000000058,
      "v": 101
    },
    {
      "midi": 60,
      "hit": false,
      "t": 83795.16800000008,
      "d": 1363.6000000000058,
      "v": 107
    },
    {
      "midi": 38,
      "hit": false,
      "t": 83795.16800000008,
      "d": 3007.7119999999995,
      "v": 96
    },
    {
      "midi": 50,
      "hit": false,
      "t": 85026.30400000008,
      "d": 771.4080000000104,
      "v": 100
    },
    {
      "midi": 54,
      "hit": false,
      "t": 85275.64800000009,
      "d": 444.14400000000023,
      "v": 94
    },
    {
      "midi": 57,
      "hit": false,
      "t": 85774.33600000008,
      "d": 576.6079999999929,
      "v": 100
    },
    {
      "midi": 62,
      "hit": false,
      "t": 85774.33600000008,
      "d": 771.4079999999958,
      "v": 102
    },
    {
      "midi": 54,
      "hit": false,
      "t": 85782.12800000008,
      "d": 420.7679999999964,
      "v": 50
    },
    {
      "midi": 60,
      "hit": false,
      "t": 85782.12800000008,
      "d": 732.4479999999894,
      "v": 104
    },
    {
      "midi": 50,
      "hit": false,
      "t": 86023.68000000008,
      "d": 685.6959999999963,
      "v": 95
    },
    {
      "midi": 54,
      "hit": false,
      "t": 86522.36800000007,
      "d": 140.2560000000085,
      "v": 66
    },
    {
      "midi": 58,
      "hit": false,
      "t": 86771.71200000007,
      "d": 1472.6880000000092,
      "v": 110
    },
    {
      "midi": 43,
      "hit": false,
      "t": 86779.50400000007,
      "d": 950.6240000000107,
      "v": 88
    },
    {
      "midi": 55,
      "hit": false,
      "t": 86779.50400000007,
      "d": 1215.5520000000106,
      "v": 111
    },
    {
      "midi": 62,
      "hit": false,
      "t": 86779.50400000007,
      "d": 1527.2320000000182,
      "v": 96
    },
    {
      "midi": 43,
      "hit": false,
      "t": 88018.43200000009,
      "d": 1153.2160000000003,
      "v": 93
    },
    {
      "midi": 55,
      "hit": false,
      "t": 88267.77600000009,
      "d": 1324.6399999999994,
      "v": 97
    },
    {
      "midi": 58,
      "hit": false,
      "t": 88766.4640000001,
      "d": 880.4959999999992,
      "v": 96
    },
    {
      "midi": 62,
      "hit": false,
      "t": 89015.80800000009,
      "d": 592.1919999999955,
      "v": 104
    },
    {
      "midi": 43,
      "hit": false,
      "t": 89514.49600000009,
      "d": 296.09600000001956,
      "v": 80
    },
    {
      "midi": 48,
      "hit": false,
      "t": 89763.8400000001,
      "d": 592.19200000001,
      "v": 77
    },
    {
      "midi": 58,
      "hit": false,
      "t": 89763.8400000001,
      "d": 1129.840000000011,
      "v": 115
    },
    {
      "midi": 55,
      "hit": false,
      "t": 89771.6320000001,
      "d": 950.6240000000107,
      "v": 96
    },
    {
      "midi": 64,
      "hit": false,
      "t": 89771.6320000001,
      "d": 1129.840000000011,
      "v": 109
    },
    {
      "midi": 36,
      "hit": false,
      "t": 89771.6320000001,
      "d": 2766.1600000000035,
      "v": 91
    },
    {
      "midi": 48,
      "hit": false,
      "t": 90519.6640000001,
      "d": 989.5840000000026,
      "v": 107
    },
    {
      "midi": 64,
      "hit": false,
      "t": 91010.56000000011,
      "d": 1527.231999999989,
      "v": 111
    },
    {
      "midi": 55,
      "hit": false,
      "t": 91018.35200000012,
      "d": 732.4479999999894,
      "v": 101
    },
    {
      "midi": 58,
      "hit": false,
      "t": 91018.35200000012,
      "d": 1519.4399999999878,
      "v": 117
    },
    {
      "midi": 48,
      "hit": false,
      "t": 91758.5920000001,
      "d": 327.2639999999956,
      "v": 96
    },
    {
      "midi": 55,
      "hit": false,
      "t": 92015.7280000001,
      "d": 490.89599999999336,
      "v": 96
    },
    {
      "midi": 48,
      "hit": false,
      "t": 92514.4160000001,
      "d": 46.75200000000768,
      "v": 70
    },
    {
      "midi": 65,
      "hit": false,
      "t": 92763.76000000011,
      "d": 1332.4320000000153,
      "v": 117
    },
    {
      "midi": 57,
      "hit": false,
      "t": 92763.76000000011,
      "d": 1340.2240000000165,
      "v": 101
    },
    {
      "midi": 53,
      "hit": false,
      "t": 92771.55200000011,
      "d": 529.8559999999998,
      "v": 115
    },
    {
      "midi": 41,
      "hit": false,
      "t": 92771.55200000011,
      "d": 942.8320000000094,
      "v": 102
    },
    {
      "midi": 60,
      "hit": false,
      "t": 92771.55200000011,
      "d": 1340.2240000000165,
      "v": 121
    },
    {
      "midi": 53,
      "hit": false,
      "t": 93511.79200000012,
      "d": 584.4000000000087,
      "v": 102
    },
    {
      "midi": 41,
      "hit": false,
      "t": 94010.48000000013,
      "d": 124.67200000000594,
      "v": 74
    },
    {
      "midi": 65,
      "hit": false,
      "t": 94252.03200000014,
      "d": 1270.0959999999905,
      "v": 106
    },
    {
      "midi": 57,
      "hit": false,
      "t": 94252.03200000014,
      "d": 1293.4719999999943,
      "v": 98
    },
    {
      "midi": 40,
      "hit": false,
      "t": 94259.82400000014,
      "d": 786.9919999999838,
      "v": 121
    },
    {
      "midi": 60,
      "hit": false,
      "t": 94259.82400000014,
      "d": 1285.679999999993,
      "v": 121
    },
    {
      "midi": 52,
      "hit": false,
      "t": 94267.61600000014,
      "d": 506.4799999999959,
      "v": 115
    },
    {
      "midi": 52,
      "hit": false,
      "t": 95000.06400000013,
      "d": 545.4400000000023,
      "v": 90
    },
    {
      "midi": 40,
      "hit": false,
      "t": 95498.75200000012,
      "d": 124.67200000000594,
      "v": 90
    },
    {
      "midi": 38,
      "hit": false,
      "t": 95748.09600000014,
      "d": 3070.0479999999807,
      "v": 117
    },
    {
      "midi": 50,
      "hit": false,
      "t": 95755.88800000014,
      "d": 903.872000000003,
      "v": 100
    },
    {
      "midi": 57,
      "hit": false,
      "t": 95755.88800000014,
      "d": 1238.9279999999999,
      "v": 106
    },
    {
      "midi": 65,
      "hit": false,
      "t": 95755.88800000014,
      "d": 1550.607999999993,
      "v": 106
    },
    {
      "midi": 62,
      "hit": false,
      "t": 95755.88800000014,
      "d": 1597.359999999986,
      "v": 107
    },
    {
      "midi": 50,
      "hit": false,
      "t": 96994.81600000014,
      "d": 825.9519999999902,
      "v": 97
    },
    {
      "midi": 57,
      "hit": false,
      "t": 97251.95200000014,
      "d": 366.2239999999874,
      "v": 92
    },
    {
      "midi": 57,
      "hit": false,
      "t": 97742.84800000013,
      "d": 436.35199999999895,
      "v": 77
    },
    {
      "midi": 62,
      "hit": false,
      "t": 97742.84800000013,
      "d": 763.6159999999945,
      "v": 101
    },
    {
      "midi": 65,
      "hit": false,
      "t": 97742.84800000013,
      "d": 763.6159999999945,
      "v": 102
    },
    {
      "midi": 50,
      "hit": false,
      "t": 97999.98400000013,
      "d": 677.903999999995,
      "v": 98
    },
    {
      "midi": 57,
      "hit": false,
      "t": 98490.88000000012,
      "d": 1628.5279999999912,
      "v": 70
    },
    {
      "midi": 45,
      "hit": false,
      "t": 98740.22400000012,
      "d": 958.4159999999974,
      "v": 95
    },
    {
      "midi": 61,
      "hit": false,
      "t": 98748.01600000012,
      "d": 1285.679999999993,
      "v": 112
    },
    {
      "midi": 64,
      "hit": false,
      "t": 98748.01600000012,
      "d": 1309.0559999999969,
      "v": 104
    },
    {
      "midi": 45,
      "hit": false,
      "t": 99986.94400000012,
      "d": 561.0240000000049,
      "v": 82
    },
    {
      "midi": 61,
      "hit": false,
      "t": 100236.28800000012,
      "d": 1114.2560000000085,
      "v": 121
    },
    {
      "midi": 57,
      "hit": false,
      "t": 100244.08000000012,
      "d": 490.8960000000079,
      "v": 97
    },
    {
      "midi": 64,
      "hit": false,
      "t": 100244.08000000012,
      "d": 1192.1760000000068,
      "v": 111
    },
    {
      "midi": 45,
      "hit": false,
      "t": 100734.97600000013,
      "d": 405.18399999999383,
      "v": 85
    },
    {
      "midi": 57,
      "hit": false,
      "t": 100984.32000000012,
      "d": 451.9360000000015,
      "v": 96
    },
    {
      "midi": 46,
      "hit": false,
      "t": 101483.00800000012,
      "d": 802.5760000000009,
      "v": 93
    },
    {
      "midi": 58,
      "hit": false,
      "t": 101732.35200000012,
      "d": 1028.544000000009,
      "v": 115
    },
    {
      "midi": 60,
      "hit": false,
      "t": 101740.14400000012,
      "d": 522.0639999999985,
      "v": 111
    },
    {
      "midi": 53,
      "hit": false,
      "t": 101740.14400000012,
      "d": 1020.7520000000077,
      "v": 109
    },
    {
      "midi": 34,
      "hit": false,
      "t": 101740.14400000012,
      "d": 2688.2399999999907,
      "v": 94
    },
    {
      "midi": 62,
      "hit": false,
      "t": 102231.04000000011,
      "d": 599.9840000000113,
      "v": 102
    },
    {
      "midi": 46,
      "hit": false,
      "t": 102480.38400000012,
      "d": 935.0399999999936,
      "v": 112
    },
    {
      "midi": 53,
      "hit": false,
      "t": 102979.07200000012,
      "d": 755.8239999999932,
      "v": 111
    },
    {
      "midi": 58,
      "hit": false,
      "t": 102979.07200000012,
      "d": 1480.479999999996,
      "v": 123
    },
    {
      "midi": 62,
      "hit": false,
      "t": 102986.86400000012,
      "d": 1542.8159999999916,
      "v": 115
    },
    {
      "midi": 46,
      "hit": false,
      "t": 103727.10400000011,
      "d": 358.4320000000007,
      "v": 112
    },
    {
      "midi": 53,
      "hit": false,
      "t": 103984.2400000001,
      "d": 553.2320000000036,
      "v": 117
    },
    {
      "midi": 53,
      "hit": false,
      "t": 104732.27200000011,
      "d": 4503.775999999998,
      "v": 107
    },
    {
      "midi": 61,
      "hit": false,
      "t": 104732.27200000011,
      "d": 4503.775999999998,
      "v": 125
    },
    {
      "midi": 49,
      "hit": false,
      "t": 104732.27200000011,
      "d": 4519.360000000001,
      "v": 112
    },
    {
      "midi": 37,
      "hit": false,
      "t": 104732.27200000011,
      "d": 4542.736000000004,
      "v": 102
    },
    {
      "midi": 56,
      "hit": false,
      "t": 104740.06400000011,
      "d": 4488.1919999999955,
      "v": 123
    },
    {
      "midi": 41,
      "hit": false,
      "t": 110708.73600000012,
      "d": 1363.6000000000058,
      "v": 102
    },
    {
      "midi": 53,
      "hit": false,
      "t": 110716.52800000012,
      "d": 1340.224000000002,
      "v": 109
    },
    {
      "midi": 65,
      "hit": false,
      "t": 110716.52800000012,
      "d": 1386.9760000000097,
      "v": 106
    },
    {
      "midi": 57,
      "hit": false,
      "t": 110716.52800000012,
      "d": 1410.3520000000135,
      "v": 97
    },
    {
      "midi": 60,
      "hit": false,
      "t": 110724.32000000012,
      "d": 1379.1840000000084,
      "v": 111
    },
    {
      "midi": 40,
      "hit": false,
      "t": 112204.80000000013,
      "d": 1371.392000000007,
      "v": 117
    },
    {
      "midi": 52,
      "hit": false,
      "t": 112212.59200000014,
      "d": 1324.6399999999994,
      "v": 102
    },
    {
      "midi": 57,
      "hit": false,
      "t": 112212.59200000014,
      "d": 1371.392000000007,
      "v": 96
    },
    {
      "midi": 65,
      "hit": false,
      "t": 112220.38400000014,
      "d": 1316.8479999999981,
      "v": 109
    },
    {
      "midi": 60,
      "hit": false,
      "t": 112220.38400000014,
      "d": 1348.0160000000033,
      "v": 117
    },
    {
      "midi": 65,
      "hit": false,
      "t": 113716.44800000015,
      "d": 1270.096000000005,
      "v": 107
    },
    {
      "midi": 57,
      "hit": false,
      "t": 113716.44800000015,
      "d": 1293.4720000000088,
      "v": 104
    },
    {
      "midi": 50,
      "hit": false,
      "t": 113716.44800000015,
      "d": 1301.2640000000101,
      "v": 97
    },
    {
      "midi": 62,
      "hit": false,
      "t": 113716.44800000015,
      "d": 1301.2640000000101,
      "v": 107
    },
    {
      "midi": 38,
      "hit": false,
      "t": 113716.44800000015,
      "d": 1316.8480000000127,
      "v": 109
    },
    {
      "midi": 57,
      "hit": false,
      "t": 115204.72000000016,
      "d": 1231.1359999999986,
      "v": 107
    },
    {
      "midi": 65,
      "hit": false,
      "t": 115204.72000000016,
      "d": 1324.6399999999994,
      "v": 115
    },
    {
      "midi": 48,
      "hit": false,
      "t": 115212.51200000016,
      "d": 1215.551999999996,
      "v": 106
    },
    {
      "midi": 36,
      "hit": false,
      "t": 115212.51200000016,
      "d": 1231.1359999999986,
      "v": 109
    },
    {
      "midi": 62,
      "hit": false,
      "t": 115212.51200000016,
      "d": 1293.4719999999943,
      "v": 123
    },
    {
      "midi": 62,
      "hit": false,
      "t": 116692.99200000016,
      "d": 1402.5599999999977,
      "v": 107
    },
    {
      "midi": 53,
      "hit": false,
      "t": 116700.78400000016,
      "d": 1223.3439999999973,
      "v": 113
    },
    {
      "midi": 58,
      "hit": false,
      "t": 116700.78400000016,
      "d": 1301.2639999999956,
      "v": 119
    },
    {
      "midi": 34,
      "hit": false,
      "t": 116708.57600000016,
      "d": 1238.9279999999999,
      "v": 112
    },
    {
      "midi": 46,
      "hit": false,
      "t": 116708.57600000016,
      "d": 1285.679999999993,
      "v": 108
    },
    {
      "midi": 48,
      "hit": false,
      "t": 118196.84800000016,
      "d": 1168.800000000003,
      "v": 121
    },
    {
      "midi": 60,
      "hit": false,
      "t": 118204.64000000016,
      "d": 1145.423999999999,
      "v": 111
    },
    {
      "midi": 36,
      "hit": false,
      "t": 118204.64000000016,
      "d": 1168.800000000003,
      "v": 109
    },
    {
      "midi": 55,
      "hit": false,
      "t": 118204.64000000016,
      "d": 1168.800000000003,
      "v": 100
    },
    {
      "midi": 64,
      "hit": false,
      "t": 118204.64000000016,
      "d": 1223.3439999999973,
      "v": 107
    },
    {
      "midi": 49,
      "hit": false,
      "t": 119692.91200000016,
      "d": 919.4560000000056,
      "v": 110
    },
    {
      "midi": 56,
      "hit": false,
      "t": 119692.91200000016,
      "d": 1496.0639999999985,
      "v": 125
    },
    {
      "midi": 37,
      "hit": false,
      "t": 119692.91200000016,
      "d": 2766.159999999989,
      "v": 99
    },
    {
      "midi": 53,
      "hit": false,
      "t": 119700.70400000016,
      "d": 1246.7200000000012,
      "v": 109
    },
    {
      "midi": 61,
      "hit": false,
      "t": 119700.70400000016,
      "d": 1535.0239999999903,
      "v": 119
    },
    {
      "midi": 49,
      "hit": false,
      "t": 120931.84000000016,
      "d": 1184.383999999991,
      "v": 104
    },
    {
      "midi": 53,
      "hit": false,
      "t": 121181.18400000015,
      "d": 1184.383999999991,
      "v": 97
    },
    {
      "midi": 56,
      "hit": false,
      "t": 121679.87200000015,
      "d": 670.1119999999937,
      "v": 102
    },
    {
      "midi": 61,
      "hit": false,
      "t": 121929.21600000015,
      "d": 576.6079999999929,
      "v": 117
    },
    {
      "midi": 49,
      "hit": false,
      "t": 122427.90400000014,
      "d": 179.21600000000035,
      "v": 81
    },
    {
      "midi": 53,
      "hit": false,
      "t": 122685.04000000014,
      "d": 311.68000000000757,
      "v": 102
    },
    {
      "midi": 58,
      "hit": false,
      "t": 122685.04000000014,
      "d": 1402.5599999999977,
      "v": 123
    },
    {
      "midi": 63,
      "hit": false,
      "t": 122685.04000000014,
      "d": 1402.5599999999977,
      "v": 119
    },
    {
      "midi": 39,
      "hit": false,
      "t": 122692.83200000014,
      "d": 2960.9600000000064,
      "v": 110
    },
    {
      "midi": 55,
      "hit": false,
      "t": 123175.93600000015,
      "d": 568.8159999999916,
      "v": 106
    },
    {
      "midi": 51,
      "hit": false,
      "t": 123425.28000000014,
      "d": 1309.0559999999969,
      "v": 99
    },
    {
      "midi": 63,
      "hit": false,
      "t": 124181.10400000014,
      "d": 1168.800000000003,
      "v": 112
    },
    {
      "midi": 58,
      "hit": false,
      "t": 124181.10400000014,
      "d": 1223.3439999999973,
      "v": 123
    },
    {
      "midi": 55,
      "hit": false,
      "t": 124181.10400000014,
      "d": 1332.4320000000007,
      "v": 98
    },
    {
      "midi": 51,
      "hit": false,
      "t": 124929.13600000014,
      "d": 701.2799999999988,
      "v": 121
    },
    {
      "midi": 44,
      "hit": false,
      "t": 125677.16800000015,
      "d": 958.4159999999974,
      "v": 106
    },
    {
      "midi": 60,
      "hit": false,
      "t": 125677.16800000015,
      "d": 1449.3119999999908,
      "v": 109
    },
    {
      "midi": 63,
      "hit": false,
      "t": 125677.16800000015,
      "d": 1488.2719999999972,
      "v": 110
    },
    {
      "midi": 56,
      "hit": false,
      "t": 125684.96000000015,
      "d": 1176.5919999999896,
      "v": 117
    },
    {
      "midi": 44,
      "hit": false,
      "t": 126916.09600000014,
      "d": 1153.2160000000003,
      "v": 112
    },
    {
      "midi": 56,
      "hit": false,
      "t": 127165.44000000015,
      "d": 919.455999999991,
      "v": 110
    },
    {
      "midi": 60,
      "hit": false,
      "t": 127664.12800000014,
      "d": 989.5840000000026,
      "v": 92
    },
    {
      "midi": 63,
      "hit": false,
      "t": 127921.26400000014,
      "d": 498.68799999999464,
      "v": 97
    },
    {
      "midi": 44,
      "hit": false,
      "t": 128412.16000000013,
      "d": 202.5920000000042,
      "v": 81
    },
    {
      "midi": 53,
      "hit": false,
      "t": 128661.50400000015,
      "d": 1316.8479999999981,
      "v": 90
    },
    {
      "midi": 61,
      "hit": false,
      "t": 128661.50400000015,
      "d": 1620.7360000000044,
      "v": 102
    },
    {
      "midi": 49,
      "hit": false,
      "t": 128669.29600000015,
      "d": 888.2880000000005,
      "v": 92
    },
    {
      "midi": 56,
      "hit": false,
      "t": 128669.29600000015,
      "d": 1464.8959999999934,
      "v": 94
    },
    {
      "midi": 37,
      "hit": false,
      "t": 128669.29600000015,
      "d": 2828.4959999999846,
      "v": 104
    },
    {
      "midi": 49,
      "hit": false,
      "t": 129908.22400000015,
      "d": 1176.5919999999896,
      "v": 115
    },
    {
      "midi": 53,
      "hit": false,
      "t": 130165.36000000015,
      "d": 1441.519999999975,
      "v": 101
    },
    {
      "midi": 56,
      "hit": false,
      "t": 130656.25600000015,
      "d": 966.2079999999696,
      "v": 108
    },
    {
      "midi": 61,
      "hit": false,
      "t": 130905.60000000015,
      "d": 740.2399999999616,
      "v": 112
    },
    {
      "midi": 49,
      "hit": false,
      "t": 131404.28800000015,
      "d": 109.08799999998882,
      "v": 64
    },
    {
      "midi": 61,
      "hit": false,
      "t": 131661.42400000012,
      "d": 1371.3919999999634,
      "v": 94
    },
    {
      "midi": 34,
      "hit": false,
      "t": 131661.42400000012,
      "d": 2212.9279999999853,
      "v": 85
    },
    {
      "midi": 46,
      "hit": false,
      "t": 131669.2160000001,
      "d": 896.0799999999872,
      "v": 69
    },
    {
      "midi": 53,
      "hit": false,
      "t": 131669.2160000001,
      "d": 1223.3439999999828,
      "v": 91
    },
    {
      "midi": 58,
      "hit": false,
      "t": 131669.2160000001,
      "d": 1425.935999999987,
      "v": 99
    },
    {
      "midi": 46,
      "hit": false,
      "t": 132908.1440000001,
      "d": 677.9039999999804,
      "v": 64
    },
    {
      "midi": 53,
      "hit": false,
      "t": 133149.69600000008,
      "d": 225.96799999999348,
      "v": 78
    },
    {
      "midi": 53,
      "hit": false,
      "t": 133648.38400000008,
      "d": 148.04800000000978,
      "v": 88
    },
    {
      "midi": 58,
      "hit": false,
      "t": 133648.38400000008,
      "d": 194.80000000001746,
      "v": 112
    },
    {
      "midi": 61,
      "hit": false,
      "t": 133648.38400000008,
      "d": 194.80000000001746,
      "v": 101
    },
    {
      "midi": 46,
      "hit": false,
      "t": 133897.7280000001,
      "d": 335.0560000000114,
      "v": 64
    },
    {
      "midi": 48,
      "hit": false,
      "t": 134653.55200000008,
      "d": 810.3679999999877,
      "v": 69
    },
    {
      "midi": 58,
      "hit": false,
      "t": 134653.55200000008,
      "d": 1316.8480000000272,
      "v": 93
    },
    {
      "midi": 36,
      "hit": false,
      "t": 134653.55200000008,
      "d": 2610.320000000036,
      "v": 81
    },
    {
      "midi": 55,
      "hit": false,
      "t": 134661.34400000007,
      "d": 1067.5040000000154,
      "v": 85
    },
    {
      "midi": 64,
      "hit": false,
      "t": 134661.34400000007,
      "d": 1418.1440000000293,
      "v": 91
    },
    {
      "midi": 48,
      "hit": false,
      "t": 135892.4800000001,
      "d": 1044.127999999997,
      "v": 75
    },
    {
      "midi": 55,
      "hit": false,
      "t": 136149.6160000001,
      "d": 584.3999999999942,
      "v": 85
    },
    {
      "midi": 58,
      "hit": false,
      "t": 136640.5120000001,
      "d": 374.01600000000326,
      "v": 85
    },
    {
      "midi": 64,
      "hit": false,
      "t": 136897.6480000001,
      "d": 280.512000000017,
      "v": 98
    },
    {
      "midi": 57,
      "hit": false,
      "t": 137645.6800000001,
      "d": 1137.6319999999832,
      "v": 75
    },
    {
      "midi": 60,
      "hit": false,
      "t": 137645.6800000001,
      "d": 1355.80799999999,
      "v": 95
    },
    {
      "midi": 65,
      "hit": false,
      "t": 137645.6800000001,
      "d": 1410.3519999999844,
      "v": 97
    },
    {
      "midi": 41,
      "hit": false,
      "t": 137653.4720000001,
      "d": 5984.256000000023,
      "v": 91
    },
    {
      "midi": 53,
      "hit": false,
      "t": 138884.6080000001,
      "d": 1457.103999999992,
      "v": 75
    },
    {
      "midi": 57,
      "hit": false,
      "t": 139141.7440000001,
      "d": 935.0400000000081,
      "v": 56
    },
    {
      "midi": 60,
      "hit": false,
      "t": 139632.6400000001,
      "d": 514.2719999999972,
      "v": 88
    },
    {
      "midi": 65,
      "hit": false,
      "t": 139881.9840000001,
      "d": 319.47199999997974,
      "v": 102
    },
    {
      "midi": 53,
      "hit": false,
      "t": 141128.70400000009,
      "d": 2524.6080000000075,
      "v": 39
    },
    {
      "midi": 67,
      "hit": false,
      "t": 141378.0480000001,
      "d": 155.8399999999965,
      "v": 89
    },
    {
      "midi": 69,
      "hit": false,
      "t": 141385.84000000008,
      "d": 506.4800000000105,
      "v": 91
    },
    {
      "midi": 72,
      "hit": false,
      "t": 141385.84000000008,
      "d": 974,
      "v": 88
    },
    {
      "midi": 67,
      "hit": false,
      "t": 141876.7360000001,
      "d": 459.7280000000028,
      "v": 91
    },
    {
      "midi": 65,
      "hit": false,
      "t": 142624.7680000001,
      "d": 412.9760000000242,
      "v": 71
    },
    {
      "midi": 72,
      "hit": false,
      "t": 142624.7680000001,
      "d": 420.76800000001094,
      "v": 68
    },
    {
      "midi": 60,
      "hit": false,
      "t": 142874.1120000001,
      "d": 148.04800000000978,
      "v": 89
    },
    {
      "midi": 58,
      "hit": false,
      "t": 143637.72800000012,
      "d": 771.4079999999667,
      "v": 121
    },
    {
      "midi": 31,
      "hit": false,
      "t": 143645.5200000001,
      "d": 709.0719999999856,
      "v": 95
    },
    {
      "midi": 43,
      "hit": false,
      "t": 143645.5200000001,
      "d": 716.8639999999723,
      "v": 89
    },
    {
      "midi": 62,
      "hit": false,
      "t": 143645.5200000001,
      "d": 748.0319999999774,
      "v": 104
    },
    {
      "midi": 55,
      "hit": false,
      "t": 143645.5200000001,
      "d": 771.4079999999667,
      "v": 97
    },
    {
      "midi": 34,
      "hit": false,
      "t": 145126.00000000006,
      "d": 646.7359999999462,
      "v": 90
    },
    {
      "midi": 62,
      "hit": false,
      "t": 145133.79200000004,
      "d": 592.1919999999809,
      "v": 107
    },
    {
      "midi": 55,
      "hit": false,
      "t": 145133.79200000004,
      "d": 623.359999999986,
      "v": 101
    },
    {
      "midi": 58,
      "hit": false,
      "t": 145133.79200000004,
      "d": 631.1519999999728,
      "v": 125
    },
    {
      "midi": 46,
      "hit": false,
      "t": 145133.79200000004,
      "d": 677.9039999999513,
      "v": 99
    },
    {
      "midi": 48,
      "hit": false,
      "t": 146629.856,
      "d": 755.8239999999932,
      "v": 101
    },
    {
      "midi": 55,
      "hit": false,
      "t": 146629.856,
      "d": 1075.296000000002,
      "v": 107
    },
    {
      "midi": 60,
      "hit": false,
      "t": 146629.856,
      "d": 1207.7600000000093,
      "v": 121
    },
    {
      "midi": 64,
      "hit": false,
      "t": 146629.856,
      "d": 1207.7600000000093,
      "v": 107
    },
    {
      "midi": 36,
      "hit": false,
      "t": 146629.856,
      "d": 2610.320000000007,
      "v": 100
    },
    {
      "midi": 48,
      "hit": false,
      "t": 147860.992,
      "d": 1005.1680000000051,
      "v": 91
    },
    {
      "midi": 55,
      "hit": false,
      "t": 148118.128,
      "d": 506.4800000000105,
      "v": 92
    },
    {
      "midi": 60,
      "hit": false,
      "t": 148609.024,
      "d": 405.1840000000084,
      "v": 93
    },
    {
      "midi": 64,
      "hit": false,
      "t": 148858.36800000002,
      "d": 389.5999999999767,
      "v": 109
    },
    {
      "midi": 48,
      "hit": false,
      "t": 149357.05599999998,
      "d": 62.336000000010245,
      "v": 59
    },
    {
      "midi": 60,
      "hit": false,
      "t": 149606.4,
      "d": 966.2079999999842,
      "v": 115
    },
    {
      "midi": 57,
      "hit": false,
      "t": 149614.19199999998,
      "d": 779.2000000000116,
      "v": 98
    },
    {
      "midi": 65,
      "hit": false,
      "t": 149614.19199999998,
      "d": 1005.1680000000051,
      "v": 113
    },
    {
      "midi": 53,
      "hit": false,
      "t": 149621.98399999997,
      "d": 553.2320000000182,
      "v": 106
    },
    {
      "midi": 41,
      "hit": false,
      "t": 149621.98399999997,
      "d": 864.9120000000112,
      "v": 102
    },
    {
      "midi": 53,
      "hit": false,
      "t": 150362.224,
      "d": 116.88000000000466,
      "v": 82
    },
    {
      "midi": 57,
      "hit": false,
      "t": 150853.12,
      "d": 148.04800000000978,
      "v": 80
    },
    {
      "midi": 45,
      "hit": false,
      "t": 151102.464,
      "d": 358.4319999999716,
      "v": 90
    },
    {
      "midi": 57,
      "hit": false,
      "t": 151102.464,
      "d": 506.47999999995227,
      "v": 101
    },
    {
      "midi": 60,
      "hit": false,
      "t": 151110.256,
      "d": 638.9439999999595,
      "v": 115
    },
    {
      "midi": 65,
      "hit": false,
      "t": 151110.256,
      "d": 716.8639999999723,
      "v": 107
    },
    {
      "midi": 33,
      "hit": false,
      "t": 151110.256,
      "d": 1199.9679999999644,
      "v": 96
    },
    {
      "midi": 45,
      "hit": false,
      "t": 151601.15199999997,
      "d": 280.5119999999879,
      "v": 81
    },
    {
      "midi": 45,
      "hit": false,
      "t": 152349.18399999995,
      "d": 101.2960000000021,
      "v": 84
    },
    {
      "midi": 60,
      "hit": false,
      "t": 152606.31999999995,
      "d": 444.14400000000023,
      "v": 109
    },
    {
      "midi": 53,
      "hit": false,
      "t": 152606.31999999995,
      "d": 935.0400000000081,
      "v": 109
    },
    {
      "midi": 58,
      "hit": false,
      "t": 152606.31999999995,
      "d": 1176.5920000000042,
      "v": 112
    },
    {
      "midi": 34,
      "hit": false,
      "t": 152606.31999999995,
      "d": 2306.4319999999425,
      "v": 104
    },
    {
      "midi": 62,
      "hit": false,
      "t": 153097.21599999996,
      "d": 786.9919999999984,
      "v": 92
    },
    {
      "midi": 46,
      "hit": false,
      "t": 153346.55999999997,
      "d": 1231.1359999999695,
      "v": 96
    },
    {
      "midi": 53,
      "hit": false,
      "t": 153845.24799999996,
      "d": 148.04799999998068,
      "v": 62
    },
    {
      "midi": 53,
      "hit": false,
      "t": 154094.59199999995,
      "d": 709.0719999999856,
      "v": 101
    },
    {
      "midi": 58,
      "hit": false,
      "t": 154094.59199999995,
      "d": 779.1999999999534,
      "v": 112
    },
    {
      "midi": 62,
      "hit": false,
      "t": 154102.38399999993,
      "d": 763.61599999998,
      "v": 109
    },
    {
      "midi": 46,
      "hit": false,
      "t": 154842.62399999992,
      "d": 194.79999999995925,
      "v": 110
    },
    {
      "midi": 53,
      "hit": false,
      "t": 155341.3119999999,
      "d": 77.9200000000128,
      "v": 33
    },
    {
      "midi": 53,
      "hit": false,
      "t": 155590.6559999999,
      "d": 319.47199999997974,
      "v": 98
    },
    {
      "midi": 58,
      "hit": false,
      "t": 155598.4479999999,
      "d": 1192.1759999999776,
      "v": 117
    },
    {
      "midi": 63,
      "hit": false,
      "t": 155598.4479999999,
      "d": 1199.9679999999644,
      "v": 106
    },
    {
      "midi": 39,
      "hit": false,
      "t": 155598.4479999999,
      "d": 2275.2639999999374,
      "v": 104
    },
    {
      "midi": 55,
      "hit": false,
      "t": 156089.34399999987,
      "d": 483.1039999999921,
      "v": 100
    },
    {
      "midi": 51,
      "hit": false,
      "t": 156346.47999999986,
      "d": 888.2879999999714,
      "v": 108
    },
    {
      "midi": 55,
      "hit": false,
      "t": 156837.37599999984,
      "d": 116.88000000000466,
      "v": 42
    },
    {
      "midi": 63,
      "hit": false,
      "t": 157094.51199999984,
      "d": 374.01600000000326,
      "v": 117
    },
    {
      "midi": 58,
      "hit": false,
      "t": 157094.51199999984,
      "d": 381.80799999999,
      "v": 125
    },
    {
      "midi": 55,
      "hit": false,
      "t": 157094.51199999984,
      "d": 467.5199999999895,
      "v": 106
    },
    {
      "midi": 51,
      "hit": false,
      "t": 157842.54399999982,
      "d": 436.3520000000135,
      "v": 88
    },
    {
      "midi": 39,
      "hit": false,
      "t": 158333.43999999983,
      "d": 93.50399999998626,
      "v": 70
    },
    {
      "midi": 55,
      "hit": false,
      "t": 158590.5759999998,
      "d": 709.0719999999856,
      "v": 102
    },
    {
      "midi": 48,
      "hit": false,
      "t": 158598.36799999978,
      "d": 444.14400000000023,
      "v": 92
    },
    {
      "midi": 58,
      "hit": false,
      "t": 158598.36799999978,
      "d": 857.1199999999953,
      "v": 121
    },
    {
      "midi": 64,
      "hit": false,
      "t": 158598.36799999978,
      "d": 1020.7520000000077,
      "v": 107
    },
    {
      "midi": 36,
      "hit": false,
      "t": 158598.36799999978,
      "d": 2711.61599999998,
      "v": 117
    },
    {
      "midi": 48,
      "hit": false,
      "t": 159330.8159999998,
      "d": 849.3279999999504,
      "v": 90
    },
    {
      "midi": 55,
      "hit": false,
      "t": 159829.50399999978,
      "d": 140.25599999999395,
      "v": 78
    },
    {
      "midi": 55,
      "hit": false,
      "t": 160078.84799999977,
      "d": 444.14399999997113,
      "v": 102
    },
    {
      "midi": 58,
      "hit": false,
      "t": 160078.84799999977,
      "d": 864.9119999999821,
      "v": 123
    },
    {
      "midi": 64,
      "hit": false,
      "t": 160086.63999999975,
      "d": 818.1600000000035,
      "v": 109
    },
    {
      "midi": 48,
      "hit": false,
      "t": 160577.53599999973,
      "d": 327.2640000000247,
      "v": 98
    },
    {
      "midi": 55,
      "hit": false,
      "t": 160826.87999999974,
      "d": 233.7600000000093,
      "v": 89
    },
    {
      "midi": 48,
      "hit": false,
      "t": 161333.35999999975,
      "d": 101.2960000000021,
      "v": 84
    },
    {
      "midi": 60,
      "hit": false,
      "t": 161574.91199999975,
      "d": 1036.3359999999811,
      "v": 102
    },
    {
      "midi": 41,
      "hit": false,
      "t": 161574.91199999975,
      "d": 1994.7519999999786,
      "v": 109
    },
    {
      "midi": 57,
      "hit": false,
      "t": 161582.70399999974,
      "d": 779.1999999999825,
      "v": 90
    },
    {
      "midi": 65,
      "hit": false,
      "t": 161582.70399999974,
      "d": 1114.255999999994,
      "v": 98
    },
    {
      "midi": 53,
      "hit": false,
      "t": 162322.94399999973,
      "d": 1153.216000000015,
      "v": 88
    },
    {
      "midi": 57,
      "hit": false,
      "t": 162821.63199999972,
      "d": 607.7760000000126,
      "v": 85
    },
    {
      "midi": 60,
      "hit": false,
      "t": 163078.76799999972,
      "d": 436.3520000000135,
      "v": 115
    },
    {
      "midi": 48,
      "hit": false,
      "t": 163569.66399999973,
      "d": 264.92799999998533,
      "v": 77
    },
    {
      "midi": 65,
      "hit": false,
      "t": 163819.00799999974,
      "d": 1535.0239999999758,
      "v": 115
    },
    {
      "midi": 53,
      "hit": false,
      "t": 163826.79999999973,
      "d": 1254.511999999988,
      "v": 109
    },
    {
      "midi": 57,
      "hit": false,
      "t": 163826.79999999973,
      "d": 1472.6879999999946,
      "v": 102
    },
    {
      "midi": 60,
      "hit": false,
      "t": 163826.79999999973,
      "d": 1496.063999999984,
      "v": 117
    },
    {
      "midi": 53,
      "hit": false,
      "t": 165322.8639999997,
      "d": 1207.7600000000093,
      "v": 91
    },
    {
      "midi": 67,
      "hit": false,
      "t": 166070.89599999972,
      "d": 498.68799999999464,
      "v": 107
    },
    {
      "midi": 72,
      "hit": false,
      "t": 166070.89599999972,
      "d": 779.1999999999825,
      "v": 107
    },
    {
      "midi": 69,
      "hit": false,
      "t": 166561.79199999972,
      "d": 296.09599999996135,
      "v": 93
    },
    {
      "midi": 65,
      "hit": false,
      "t": 166811.1359999997,
      "d": 132.4639999999781,
      "v": 106
    },
    {
      "midi": 58,
      "hit": false,
      "t": 167566.95999999967,
      "d": 997.3759999999602,
      "v": 112
    },
    {
      "midi": 53,
      "hit": false,
      "t": 167574.75199999966,
      "d": 23.37599999998929,
      "v": 98
    },
    {
      "midi": 43,
      "hit": false,
      "t": 167574.75199999966,
      "d": 467.5199999999895,
      "v": 82
    },
    {
      "midi": 55,
      "hit": false,
      "t": 167574.75199999966,
      "d": 662.3199999999779,
      "v": 96
    },
    {
      "midi": 31,
      "hit": false,
      "t": 167574.75199999966,
      "d": 810.3679999999877,
      "v": 93
    },
    {
      "midi": 62,
      "hit": false,
      "t": 167574.75199999966,
      "d": 1075.295999999973,
      "v": 97
    },
    {
      "midi": 43,
      "hit": false,
      "t": 168307.19999999963,
      "d": 280.5119999999879,
      "v": 86
    },
    {
      "midi": 55,
      "hit": false,
      "t": 168805.88799999963,
      "d": 140.25599999999395,
      "v": 61
    },
    {
      "midi": 46,
      "hit": false,
      "t": 169063.02399999963,
      "d": 444.14400000000023,
      "v": 106
    },
    {
      "midi": 55,
      "hit": false,
      "t": 169063.02399999963,
      "d": 732.448000000004,
      "v": 100
    },
    {
      "midi": 62,
      "hit": false,
      "t": 169063.02399999963,
      "d": 763.6160000000091,
      "v": 98
    },
    {
      "midi": 34,
      "hit": false,
      "t": 169063.02399999963,
      "d": 771.4079999999958,
      "v": 104
    },
    {
      "midi": 58,
      "hit": false,
      "t": 169063.02399999963,
      "d": 786.9919999999984,
      "v": 121
    },
    {
      "midi": 46,
      "hit": false,
      "t": 169811.05599999963,
      "d": 210.38399999999092,
      "v": 80
    },
    {
      "midi": 58,
      "hit": false,
      "t": 170559.0879999996,
      "d": 1262.3040000000037,
      "v": 119
    },
    {
      "midi": 64,
      "hit": false,
      "t": 170559.0879999996,
      "d": 1379.1840000000084,
      "v": 107
    },
    {
      "midi": 48,
      "hit": false,
      "t": 170566.8799999996,
      "d": 490.8960000000079,
      "v": 97
    },
    {
      "midi": 55,
      "hit": false,
      "t": 170566.8799999996,
      "d": 981.7920000000158,
      "v": 104
    },
    {
      "midi": 36,
      "hit": false,
      "t": 170566.8799999996,
      "d": 2633.6960000000545,
      "v": 106
    },
    {
      "midi": 48,
      "hit": false,
      "t": 171798.01599999962,
      "d": 974.0000000000291,
      "v": 100
    },
    {
      "midi": 55,
      "hit": false,
      "t": 172055.15199999962,
      "d": 553.2320000000182,
      "v": 89
    },
    {
      "midi": 58,
      "hit": false,
      "t": 172546.04799999963,
      "d": 335.0560000000114,
      "v": 102
    },
    {
      "midi": 64,
      "hit": false,
      "t": 172795.39199999964,
      "d": 335.0560000000114,
      "v": 111
    },
    {
      "midi": 48,
      "hit": false,
      "t": 173294.07999999964,
      "d": 116.88000000000466,
      "v": 65
    },
    {
      "midi": 53,
      "hit": false,
      "t": 173551.21599999964,
      "d": 272.72000000000116,
      "v": 109
    },
    {
      "midi": 57,
      "hit": false,
      "t": 173551.21599999964,
      "d": 498.68799999996554,
      "v": 95
    },
    {
      "midi": 60,
      "hit": false,
      "t": 173551.21599999964,
      "d": 771.4079999999376,
      "v": 107
    },
    {
      "midi": 65,
      "hit": false,
      "t": 173551.21599999964,
      "d": 794.7839999999269,
      "v": 101
    },
    {
      "midi": 41,
      "hit": false,
      "t": 173559.00799999962,
      "d": 794.7839999999269,
      "v": 95
    },
    {
      "midi": 53,
      "hit": false,
      "t": 174042.11199999962,
      "d": 249.34399999998277,
      "v": 92
    },
    {
      "midi": 57,
      "hit": false,
      "t": 174299.24799999958,
      "d": 319.47199999997974,
      "v": 84
    },
    {
      "midi": 45,
      "hit": false,
      "t": 174790.14399999956,
      "d": 483.1039999999921,
      "v": 63
    },
    {
      "midi": 57,
      "hit": false,
      "t": 175039.48799999958,
      "d": 475.31199999997625,
      "v": 97
    },
    {
      "midi": 60,
      "hit": false,
      "t": 175039.48799999958,
      "d": 561.0239999999758,
      "v": 111
    },
    {
      "midi": 65,
      "hit": false,
      "t": 175047.27999999956,
      "d": 561.0239999999758,
      "v": 111
    },
    {
      "midi": 33,
      "hit": false,
      "t": 175047.27999999956,
      "d": 654.527999999962,
      "v": 113
    },
    {
      "midi": 45,
      "hit": false,
      "t": 175538.17599999954,
      "d": 327.2639999999956,
      "v": 51
    },
    {
      "midi": 53,
      "hit": false,
      "t": 175787.51999999952,
      "d": 311.6800000000221,
      "v": 78
    },
    {
      "midi": 46,
      "hit": false,
      "t": 176286.20799999955,
      "d": 732.448000000004,
      "v": 102
    },
    {
      "midi": 58,
      "hit": false,
      "t": 176535.55199999956,
      "d": 950.6240000000107,
      "v": 117
    },
    {
      "midi": 60,
      "hit": false,
      "t": 176543.34399999955,
      "d": 420.76800000001094,
      "v": 111
    },
    {
      "midi": 53,
      "hit": false,
      "t": 176543.34399999955,
      "d": 896.0800000000163,
      "v": 106
    },
    {
      "midi": 34,
      "hit": false,
      "t": 176543.34399999955,
      "d": 2205.136000000086,
      "v": 106
    },
    {
      "midi": 62,
      "hit": false,
      "t": 177034.23999999955,
      "d": 685.6960000000254,
      "v": 93
    },
    {
      "midi": 46,
      "hit": false,
      "t": 177283.58399999957,
      "d": 919.4560000000347,
      "v": 102
    },
    {
      "midi": 53,
      "hit": false,
      "t": 177782.2719999996,
      "d": 132.46400000000722,
      "v": 54
    },
    {
      "midi": 62,
      "hit": false,
      "t": 178031.6159999996,
      "d": 405.1840000000084,
      "v": 111
    },
    {
      "midi": 53,
      "hit": false,
      "t": 178031.6159999996,
      "d": 467.5200000000186,
      "v": 115
    },
    {
      "midi": 58,
      "hit": false,
      "t": 178031.6159999996,
      "d": 498.68800000002375,
      "v": 121
    },
    {
      "midi": 46,
      "hit": false,
      "t": 178779.64799999964,
      "d": 171.42399999999907,
      "v": 104
    },
    {
      "midi": 53,
      "hit": false,
      "t": 179278.33599999963,
      "d": 85.71199999999953,
      "v": 61
    },
    {
      "midi": 63,
      "hit": false,
      "t": 179527.67999999964,
      "d": 1262.3039999999746,
      "v": 119
    },
    {
      "midi": 53,
      "hit": false,
      "t": 179535.47199999963,
      "d": 311.679999999993,
      "v": 104
    },
    {
      "midi": 58,
      "hit": false,
      "t": 179535.47199999963,
      "d": 1262.3039999999746,
      "v": 123
    },
    {
      "midi": 39,
      "hit": false,
      "t": 179543.26399999962,
      "d": 2049.296000000002,
      "v": 108
    },
    {
      "midi": 55,
      "hit": false,
      "t": 180026.3679999996,
      "d": 498.68800000002375,
      "v": 93
    },
    {
      "midi": 51,
      "hit": false,
      "t": 180275.71199999962,
      "d": 818.1600000000035,
      "v": 96
    },
    {
      "midi": 55,
      "hit": false,
      "t": 180782.19199999963,
      "d": 202.5919999999751,
      "v": 64
    },
    {
      "midi": 55,
      "hit": false,
      "t": 181031.5359999996,
      "d": 420.76800000001094,
      "v": 49
    },
    {
      "midi": 63,
      "hit": false,
      "t": 181031.5359999996,
      "d": 451.93600000001607,
      "v": 119
    },
    {
      "midi": 58,
      "hit": false,
      "t": 181031.5359999996,
      "d": 467.5200000000186,
      "v": 123
    },
    {
      "midi": 51,
      "hit": false,
      "t": 181522.43199999962,
      "d": 116.88000000000466,
      "v": 97
    },
    {
      "midi": 62,
      "hit": false,
      "t": 181779.56799999962,
      "d": 436.3520000000135,
      "v": 104
    },
    {
      "midi": 58,
      "hit": false,
      "t": 181779.56799999962,
      "d": 459.7280000000028,
      "v": 123
    },
    {
      "midi": 53,
      "hit": false,
      "t": 181779.56799999962,
      "d": 498.68799999999464,
      "v": 106
    },
    {
      "midi": 50,
      "hit": false,
      "t": 181779.56799999962,
      "d": 514.2719999999972,
      "v": 92
    },
    {
      "midi": 38,
      "hit": false,
      "t": 181779.56799999962,
      "d": 568.8159999999916,
      "v": 104
    },
    {
      "midi": 60,
      "hit": false,
      "t": 182527.5999999996,
      "d": 1129.8399999999965,
      "v": 113
    },
    {
      "midi": 48,
      "hit": false,
      "t": 182535.39199999959,
      "d": 436.3520000000135,
      "v": 104
    },
    {
      "midi": 55,
      "hit": false,
      "t": 182535.39199999959,
      "d": 849.3280000000086,
      "v": 97
    },
    {
      "midi": 64,
      "hit": false,
      "t": 182535.39199999959,
      "d": 1161.0080000000016,
      "v": 101
    },
    {
      "midi": 36,
      "hit": false,
      "t": 182535.39199999959,
      "d": 2220.719999999972,
      "v": 113
    },
    {
      "midi": 48,
      "hit": false,
      "t": 183267.8399999996,
      "d": 880.4959999999555,
      "v": 93
    },
    {
      "midi": 55,
      "hit": false,
      "t": 183766.52799999958,
      "d": 124.67199999999139,
      "v": 56
    },
    {
      "midi": 55,
      "hit": false,
      "t": 184015.87199999957,
      "d": 436.3519999999844,
      "v": 98
    },
    {
      "midi": 64,
      "hit": false,
      "t": 184015.87199999957,
      "d": 763.61599999998,
      "v": 107
    },
    {
      "midi": 60,
      "hit": false,
      "t": 184023.66399999955,
      "d": 1012.9599999999919,
      "v": 115
    },
    {
      "midi": 48,
      "hit": false,
      "t": 184514.55999999956,
      "d": 296.09599999999045,
      "v": 100
    },
    {
      "midi": 55,
      "hit": false,
      "t": 184763.90399999954,
      "d": 272.72000000000116,
      "v": 102
    },
    {
      "midi": 53,
      "hit": false,
      "t": 185262.59199999954,
      "d": 155.8399999999965,
      "v": 96
    },
    {
      "midi": 53,
      "hit": false,
      "t": 185519.72799999954,
      "d": 584.3999999999942,
      "v": 85
    },
    {
      "midi": 65,
      "hit": false,
      "t": 185519.72799999954,
      "d": 1153.216000000015,
      "v": 102
    },
    {
      "midi": 41,
      "hit": false,
      "t": 185519.72799999954,
      "d": 2345.3920000000217,
      "v": 113
    },
    {
      "midi": 57,
      "hit": false,
      "t": 185527.51999999952,
      "d": 880.4960000000137,
      "v": 102
    },
    {
      "midi": 60,
      "hit": false,
      "t": 185527.51999999952,
      "d": 1083.088000000018,
      "v": 115
    },
    {
      "midi": 53,
      "hit": false,
      "t": 186267.75999999954,
      "d": 1472.6880000000237,
      "v": 104
    },
    {
      "midi": 57,
      "hit": false,
      "t": 186758.65599999955,
      "d": 374.01600000000326,
      "v": 92
    },
    {
      "midi": 60,
      "hit": false,
      "t": 187015.79199999955,
      "d": 148.04800000000978,
      "v": 93
    },
    {
      "midi": 57,
      "hit": false,
      "t": 187506.68799999956,
      "d": 740.2399999999907,
      "v": 102
    },
    {
      "midi": 65,
      "hit": false,
      "t": 187506.68799999956,
      "d": 779.1999999999825,
      "v": 123
    },
    {
      "midi": 60,
      "hit": false,
      "t": 187506.68799999956,
      "d": 857.1199999999953,
      "v": 124
    },
    {
      "midi": 48,
      "hit": false,
      "t": 187763.82399999956,
      "d": 522.0639999999839,
      "v": 90
    },
    {
      "midi": 53,
      "hit": false,
      "t": 188254.71999999954,
      "d": 872.7039999999979,
      "v": 96
    },
    {
      "midi": 57,
      "hit": false,
      "t": 188504.06399999955,
      "d": 872.7039999999979,
      "v": 104
    },
    {
      "midi": 60,
      "hit": false,
      "t": 188504.06399999955,
      "d": 896.0799999999872,
      "v": 121
    },
    {
      "midi": 65,
      "hit": false,
      "t": 188511.85599999953,
      "d": 872.7039999999979,
      "v": 119
    },
    {
      "midi": 41,
      "hit": false,
      "t": 188511.85599999953,
      "d": 2867.4560000000347,
      "v": 111
    },
    {
      "midi": 53,
      "hit": false,
      "t": 189259.88799999954,
      "d": 755.8240000000224,
      "v": 69
    },
    {
      "midi": 57,
      "hit": false,
      "t": 189750.78399999955,
      "d": 662.320000000007,
      "v": 106
    },
    {
      "midi": 65,
      "hit": false,
      "t": 189750.78399999955,
      "d": 748.0320000000065,
      "v": 119
    },
    {
      "midi": 60,
      "hit": false,
      "t": 189750.78399999955,
      "d": 763.6160000000091,
      "v": 123
    },
    {
      "midi": 53,
      "hit": false,
      "t": 190498.81599999956,
      "d": 864.9120000000112,
      "v": 115
    },
    {
      "midi": 65,
      "hit": false,
      "t": 190748.15999999957,
      "d": 638.9439999999886,
      "v": 121
    },
    {
      "midi": 57,
      "hit": false,
      "t": 190748.15999999957,
      "d": 646.7359999999753,
      "v": 109
    },
    {
      "midi": 60,
      "hit": false,
      "t": 190755.95199999955,
      "d": 638.9439999999886,
      "v": 124
    },
    {
      "midi": 53,
      "hit": false,
      "t": 191511.77599999955,
      "d": 1083.0879999999888,
      "v": 109
    },
    {
      "midi": 56,
      "hit": false,
      "t": 191511.77599999955,
      "d": 1277.8880000000063,
      "v": 123
    },
    {
      "midi": 61,
      "hit": false,
      "t": 191511.77599999955,
      "d": 1355.808000000019,
      "v": 123
    },
    {
      "midi": 37,
      "hit": false,
      "t": 191511.77599999955,
      "d": 2244.0959999999905,
      "v": 102
    },
    {
      "midi": 49,
      "hit": false,
      "t": 191519.56799999953,
      "d": 748.0320000000065,
      "v": 108
    },
    {
      "midi": 49,
      "hit": false,
      "t": 192742.91199999955,
      "d": 654.5280000000203,
      "v": 101
    },
    {
      "midi": 53,
      "hit": false,
      "t": 193000.04799999957,
      "d": 93.50399999998626,
      "v": 81
    },
    {
      "midi": 56,
      "hit": false,
      "t": 193490.94399999955,
      "d": 358.4319999999716,
      "v": 127
    },
    {
      "midi": 53,
      "hit": false,
      "t": 193490.94399999955,
      "d": 397.39199999996345,
      "v": 115
    },
    {
      "midi": 61,
      "hit": false,
      "t": 193498.73599999954,
      "d": 381.80799999999,
      "v": 127
    },
    {
      "midi": 49,
      "hit": false,
      "t": 193740.28799999953,
      "d": 428.55999999996857,
      "v": 97
    },
    {
      "midi": 37,
      "hit": false,
      "t": 194238.9759999995,
      "d": 109.08799999998882,
      "v": 97
    },
    {
      "midi": 53,
      "hit": false,
      "t": 194496.11199999947,
      "d": 288.3040000000037,
      "v": 106
    },
    {
      "midi": 58,
      "hit": false,
      "t": 194496.11199999947,
      "d": 1192.1760000000359,
      "v": 121
    },
    {
      "midi": 63,
      "hit": false,
      "t": 194496.11199999947,
      "d": 1215.5520000000251,
      "v": 112
    },
    {
      "midi": 39,
      "hit": false,
      "t": 194496.11199999947,
      "d": 3046.6720000000205,
      "v": 110
    },
    {
      "midi": 55,
      "hit": false,
      "t": 194987.00799999948,
      "d": 451.93600000001607,
      "v": 101
    },
    {
      "midi": 51,
      "hit": false,
      "t": 195236.3519999995,
      "d": 1106.4640000000072,
      "v": 101
    },
    {
      "midi": 55,
      "hit": false,
      "t": 195735.03999999948,
      "d": 116.88000000000466,
      "v": 36
    },
    {
      "midi": 63,
      "hit": false,
      "t": 195984.3839999995,
      "d": 1348.0160000000033,
      "v": 121
    },
    {
      "midi": 55,
      "hit": false,
      "t": 195984.3839999995,
      "d": 1379.1840000000084,
      "v": 101
    },
    {
      "midi": 58,
      "hit": false,
      "t": 195992.17599999948,
      "d": 1114.256000000023,
      "v": 123
    },
    {
      "midi": 51,
      "hit": false,
      "t": 196732.4159999995,
      "d": 755.8239999999932,
      "v": 101
    },
    {
      "midi": 56,
      "hit": false,
      "t": 197488.2399999995,
      "d": 1192.1759999999776,
      "v": 121
    },
    {
      "midi": 63,
      "hit": false,
      "t": 197488.2399999995,
      "d": 1488.2719999999972,
      "v": 115
    },
    {
      "midi": 60,
      "hit": false,
      "t": 197488.2399999995,
      "d": 1542.8159999999916,
      "v": 115
    },
    {
      "midi": 44,
      "hit": false,
      "t": 197496.03199999948,
      "d": 1028.5439999999944,
      "v": 102
    },
    {
      "midi": 44,
      "hit": false,
      "t": 198727.16799999948,
      "d": 942.8319999999949,
      "v": 104
    },
    {
      "midi": 56,
      "hit": false,
      "t": 198976.5119999995,
      "d": 272.72000000000116,
      "v": 79
    },
    {
      "midi": 56,
      "hit": false,
      "t": 199475.1999999995,
      "d": 779.1999999999825,
      "v": 117
    },
    {
      "midi": 60,
      "hit": false,
      "t": 199475.1999999995,
      "d": 841.5359999999637,
      "v": 106
    },
    {
      "midi": 63,
      "hit": false,
      "t": 199482.99199999947,
      "d": 794.7839999999851,
      "v": 110
    },
    {
      "midi": 44,
      "hit": false,
      "t": 199724.54399999947,
      "d": 693.487999999983,
      "v": 99
    },
    {
      "midi": 61,
      "hit": false,
      "t": 200480.36799999946,
      "d": 1199.9679999999935,
      "v": 121
    },
    {
      "midi": 37,
      "hit": false,
      "t": 200480.36799999946,
      "d": 2399.935999999987,
      "v": 94
    },
    {
      "midi": 49,
      "hit": false,
      "t": 200488.15999999945,
      "d": 506.4800000000105,
      "v": 97
    },
    {
      "midi": 53,
      "hit": false,
      "t": 200488.15999999945,
      "d": 833.744000000006,
      "v": 107
    },
    {
      "midi": 56,
      "hit": false,
      "t": 200488.15999999945,
      "d": 1192.1760000000068,
      "v": 123
    },
    {
      "midi": 49,
      "hit": false,
      "t": 201220.60799999945,
      "d": 1348.0160000000033,
      "v": 79
    },
    {
      "midi": 53,
      "hit": false,
      "t": 201727.08799999946,
      "d": 124.67199999999139,
      "v": 81
    },
    {
      "midi": 53,
      "hit": false,
      "t": 201968.63999999946,
      "d": 966.2079999999842,
      "v": 97
    },
    {
      "midi": 56,
      "hit": false,
      "t": 201976.43199999945,
      "d": 1246.719999999972,
      "v": 123
    },
    {
      "midi": 61,
      "hit": false,
      "t": 201976.43199999945,
      "d": 1285.679999999964,
      "v": 119
    },
    {
      "midi": 49,
      "hit": false,
      "t": 202724.46399999945,
      "d": 545.4399999999441,
      "v": 93
    },
    {
      "midi": 37,
      "hit": false,
      "t": 203215.35999999943,
      "d": 311.6799999999639,
      "v": 94
    },
    {
      "midi": 46,
      "hit": false,
      "t": 203472.4959999994,
      "d": 1106.4640000000072,
      "v": 108
    },
    {
      "midi": 53,
      "hit": false,
      "t": 203472.4959999994,
      "d": 1277.8880000000063,
      "v": 106
    },
    {
      "midi": 61,
      "hit": false,
      "t": 203472.4959999994,
      "d": 1519.4400000000023,
      "v": 112
    },
    {
      "midi": 56,
      "hit": false,
      "t": 203472.4959999994,
      "d": 1550.6080000000075,
      "v": 125
    },
    {
      "midi": 46,
      "hit": false,
      "t": 204711.42399999942,
      "d": 880.4959999999846,
      "v": 85
    },
    {
      "midi": 53,
      "hit": false,
      "t": 204960.7679999994,
      "d": 366.22400000001653,
      "v": 82
    },
    {
      "midi": 56,
      "hit": false,
      "t": 205459.45599999942,
      "d": 599.9839999999676,
      "v": 119
    },
    {
      "midi": 61,
      "hit": false,
      "t": 205459.45599999942,
      "d": 701.2799999999697,
      "v": 117
    },
    {
      "midi": 53,
      "hit": false,
      "t": 205467.2479999994,
      "d": 381.80799999999,
      "v": 98
    },
    {
      "midi": 46,
      "hit": false,
      "t": 205708.7999999994,
      "d": 654.5279999999912,
      "v": 110
    },
    {
      "midi": 48,
      "hit": false,
      "t": 206215.2799999994,
      "d": 896.0799999999872,
      "v": 81
    },
    {
      "midi": 36,
      "hit": false,
      "t": 206456.83199999938,
      "d": 2960.960000000021,
      "v": 111
    },
    {
      "midi": 55,
      "hit": false,
      "t": 206464.62399999937,
      "d": 888.2880000000005,
      "v": 96
    },
    {
      "midi": 64,
      "hit": false,
      "t": 206464.62399999937,
      "d": 1246.7200000000012,
      "v": 109
    },
    {
      "midi": 58,
      "hit": false,
      "t": 206464.62399999937,
      "d": 1262.3040000000037,
      "v": 119
    },
    {
      "midi": 48,
      "hit": false,
      "t": 207212.65599999938,
      "d": 1324.640000000014,
      "v": 78
    },
    {
      "midi": 55,
      "hit": false,
      "t": 207703.55199999938,
      "d": 1690.8640000000305,
      "v": 66
    },
    {
      "midi": 58,
      "hit": false,
      "t": 207960.68799999938,
      "d": 1386.9760000000242,
      "v": 121
    },
    {
      "midi": 64,
      "hit": false,
      "t": 208451.5839999994,
      "d": 958.4160000000265,
      "v": 109
    },
    {
      "midi": 48,
      "hit": false,
      "t": 208700.9279999994,
      "d": 732.448000000004,
      "v": 100
    },
    {
      "midi": 53,
      "hit": false,
      "t": 209464.5439999994,
      "d": 974,
      "v": 106
    },
    {
      "midi": 57,
      "hit": false,
      "t": 209464.5439999994,
      "d": 1270.0959999999905,
      "v": 101
    },
    {
      "midi": 60,
      "hit": false,
      "t": 209464.5439999994,
      "d": 1511.6479999999865,
      "v": 121
    },
    {
      "midi": 65,
      "hit": false,
      "t": 209464.5439999994,
      "d": 1550.6079999999783,
      "v": 111
    },
    {
      "midi": 41,
      "hit": false,
      "t": 209464.5439999994,
      "d": 2953.167999999976,
      "v": 106
    },
    {
      "midi": 53,
      "hit": false,
      "t": 210695.6799999994,
      "d": 857.1199999999662,
      "v": 104
    },
    {
      "midi": 57,
      "hit": false,
      "t": 210945.0239999994,
      "d": 1184.383999999991,
      "v": 92
    },
    {
      "midi": 60,
      "hit": false,
      "t": 211443.7119999994,
      "d": 693.487999999983,
      "v": 101
    },
    {
      "midi": 65,
      "hit": false,
      "t": 211443.7119999994,
      "d": 825.9519999999902,
      "v": 111
    },
    {
      "midi": 53,
      "hit": false,
      "t": 211700.8479999994,
      "d": 716.8640000000014,
      "v": 97
    },
    {
      "midi": 45,
      "hit": false,
      "t": 212448.8799999994,
      "d": 1083.0879999999888,
      "v": 89
    },
    {
      "midi": 55,
      "hit": false,
      "t": 212448.8799999994,
      "d": 1262.3040000000037,
      "v": 98
    },
    {
      "midi": 61,
      "hit": false,
      "t": 212448.8799999994,
      "d": 1464.896000000008,
      "v": 125
    },
    {
      "midi": 64,
      "hit": false,
      "t": 212448.8799999994,
      "d": 1480.4800000000105,
      "v": 104
    },
    {
      "midi": 45,
      "hit": false,
      "t": 213695.5999999994,
      "d": 833.743999999977,
      "v": 93
    },
    {
      "midi": 55,
      "hit": false,
      "t": 213937.1519999994,
      "d": 950.6239999999816,
      "v": 100
    },
    {
      "midi": 61,
      "hit": false,
      "t": 214435.83999999939,
      "d": 677.9039999999804,
      "v": 102
    },
    {
      "midi": 64,
      "hit": false,
      "t": 214435.83999999939,
      "d": 802.5760000000009,
      "v": 106
    },
    {
      "midi": 45,
      "hit": false,
      "t": 214685.18399999937,
      "d": 825.9520000000193,
      "v": 90
    },
    {
      "midi": 53,
      "hit": false,
      "t": 215191.66399999938,
      "d": 1246.719999999972,
      "v": 101
    },
    {
      "midi": 60,
      "hit": false,
      "t": 215448.79999999938,
      "d": 475.31200000000536,
      "v": 115
    },
    {
      "midi": 46,
      "hit": false,
      "t": 215448.79999999938,
      "d": 553.2319999999891,
      "v": 97
    },
    {
      "midi": 58,
      "hit": false,
      "t": 215448.79999999938,
      "d": 1192.1759999999776,
      "v": 119
    },
    {
      "midi": 62,
      "hit": false,
      "t": 215931.90399999937,
      "d": 779.1999999999825,
      "v": 100
    },
    {
      "midi": 46,
      "hit": false,
      "t": 216181.24799999935,
      "d": 1332.4320000000007,
      "v": 94
    },
    {
      "midi": 53,
      "hit": false,
      "t": 216679.93599999935,
      "d": 1729.8239999999932,
      "v": 88
    },
    {
      "midi": 58,
      "hit": false,
      "t": 216929.27999999936,
      "d": 1371.3919999999925,
      "v": 123
    },
    {
      "midi": 62,
      "hit": false,
      "t": 216929.27999999936,
      "d": 1386.975999999995,
      "v": 101
    },
    {
      "midi": 46,
      "hit": false,
      "t": 217685.10399999935,
      "d": 701.2799999999988,
      "v": 102
    },
    {
      "midi": 41,
      "hit": false,
      "t": 218440.92799999935,
      "d": 966.2080000000133,
      "v": 91
    },
    {
      "midi": 53,
      "hit": false,
      "t": 218440.92799999935,
      "d": 1254.512000000017,
      "v": 97
    },
    {
      "midi": 57,
      "hit": false,
      "t": 218440.92799999935,
      "d": 1418.1440000000293,
      "v": 109
    },
    {
      "midi": 60,
      "hit": false,
      "t": 218440.92799999935,
      "d": 1480.4800000000396,
      "v": 98
    },
    {
      "midi": 41,
      "hit": false,
      "t": 219672.06399999937,
      "d": 779.2000000000116,
      "v": 98
    },
    {
      "midi": 53,
      "hit": false,
      "t": 219921.40799999938,
      "d": 1129.8399999999965,
      "v": 97
    },
    {
      "midi": 57,
      "hit": false,
      "t": 220420.09599999938,
      "d": 615.5679999999993,
      "v": 104
    },
    {
      "midi": 60,
      "hit": false,
      "t": 220420.09599999938,
      "d": 693.4880000000121,
      "v": 107
    },
    {
      "midi": 41,
      "hit": false,
      "t": 220677.23199999938,
      "d": 779.1999999999825,
      "v": 97
    },
    {
      "midi": 54,
      "hit": false,
      "t": 221425.26399999938,
      "d": 1270.0959999999905,
      "v": 93
    },
    {
      "midi": 62,
      "hit": false,
      "t": 221425.26399999938,
      "d": 1309.0559999999823,
      "v": 92
    },
    {
      "midi": 50,
      "hit": false,
      "t": 221433.05599999937,
      "d": 903.872000000003,
      "v": 81
    },
    {
      "midi": 57,
      "hit": false,
      "t": 221433.05599999937,
      "d": 1355.80799999999,
      "v": 101
    },
    {
      "midi": 60,
      "hit": false,
      "t": 221433.05599999937,
      "d": 1355.80799999999,
      "v": 107
    },
    {
      "midi": 38,
      "hit": false,
      "t": 221433.05599999937,
      "d": 3015.5039999999863,
      "v": 96
    },
    {
      "midi": 50,
      "hit": false,
      "t": 222664.19199999937,
      "d": 771.4079999999958,
      "v": 100
    },
    {
      "midi": 54,
      "hit": false,
      "t": 222921.32799999937,
      "d": 428.5599999999977,
      "v": 94
    },
    {
      "midi": 54,
      "hit": false,
      "t": 223412.22399999938,
      "d": 428.5599999999977,
      "v": 50
    },
    {
      "midi": 60,
      "hit": false,
      "t": 223412.22399999938,
      "d": 748.0320000000065,
      "v": 104
    },
    {
      "midi": 57,
      "hit": false,
      "t": 223420.01599999936,
      "d": 576.6080000000075,
      "v": 100
    },
    {
      "midi": 62,
      "hit": false,
      "t": 223420.01599999936,
      "d": 763.6160000000091,
      "v": 102
    },
    {
      "midi": 50,
      "hit": false,
      "t": 223669.35999999937,
      "d": 677.9040000000095,
      "v": 95
    },
    {
      "midi": 54,
      "hit": false,
      "t": 224160.25599999938,
      "d": 140.25599999999395,
      "v": 66
    },
    {
      "midi": 43,
      "hit": false,
      "t": 224417.39199999938,
      "d": 958.4159999999683,
      "v": 88
    },
    {
      "midi": 55,
      "hit": false,
      "t": 224417.39199999938,
      "d": 1207.7599999999802,
      "v": 111
    },
    {
      "midi": 62,
      "hit": false,
      "t": 224417.39199999938,
      "d": 1527.231999999989,
      "v": 96
    },
    {
      "midi": 58,
      "hit": false,
      "t": 224425.18399999937,
      "d": 1449.3120000000054,
      "v": 110
    },
    {
      "midi": 43,
      "hit": false,
      "t": 225656.31999999937,
      "d": 1145.423999999999,
      "v": 93
    },
    {
      "midi": 55,
      "hit": false,
      "t": 225913.45599999937,
      "d": 1309.0560000000114,
      "v": 97
    },
    {
      "midi": 58,
      "hit": false,
      "t": 226404.35199999937,
      "d": 880.4959999999846,
      "v": 96
    },
    {
      "midi": 62,
      "hit": false,
      "t": 226661.48799999937,
      "d": 584.3999999999942,
      "v": 104
    },
    {
      "midi": 43,
      "hit": false,
      "t": 227152.38399999938,
      "d": 319.47199999997974,
      "v": 80
    },
    {
      "midi": 55,
      "hit": false,
      "t": 227401.72799999936,
      "d": 966.2079999999842,
      "v": 96
    },
    {
      "midi": 36,
      "hit": false,
      "t": 227401.72799999936,
      "d": 2789.5359999999637,
      "v": 91
    },
    {
      "midi": 48,
      "hit": false,
      "t": 227409.51999999935,
      "d": 576.6080000000075,
      "v": 77
    },
    {
      "midi": 58,
      "hit": false,
      "t": 227409.51999999935,
      "d": 1106.4640000000072,
      "v": 115
    },
    {
      "midi": 64,
      "hit": false,
      "t": 227409.51999999935,
      "d": 1129.8399999999965,
      "v": 109
    },
    {
      "midi": 48,
      "hit": false,
      "t": 228157.55199999936,
      "d": 989.5839999999735,
      "v": 107
    },
    {
      "midi": 64,
      "hit": false,
      "t": 228648.44799999933,
      "d": 1527.231999999989,
      "v": 111
    },
    {
      "midi": 55,
      "hit": false,
      "t": 228656.23999999932,
      "d": 740.2400000000198,
      "v": 101
    },
    {
      "midi": 58,
      "hit": false,
      "t": 228656.23999999932,
      "d": 1519.4400000000023,
      "v": 117
    },
    {
      "midi": 48,
      "hit": false,
      "t": 229404.27199999933,
      "d": 311.6800000000221,
      "v": 96
    },
    {
      "midi": 55,
      "hit": false,
      "t": 229653.61599999934,
      "d": 490.8960000000079,
      "v": 96
    },
    {
      "midi": 48,
      "hit": false,
      "t": 230152.30399999933,
      "d": 54.54399999999441,
      "v": 70
    },
    {
      "midi": 53,
      "hit": false,
      "t": 230409.43999999933,
      "d": 545.4400000000023,
      "v": 115
    },
    {
      "midi": 41,
      "hit": false,
      "t": 230409.43999999933,
      "d": 942.8319999999949,
      "v": 102
    },
    {
      "midi": 65,
      "hit": false,
      "t": 230409.43999999933,
      "d": 1316.847999999969,
      "v": 117
    },
    {
      "midi": 57,
      "hit": false,
      "t": 230409.43999999933,
      "d": 1332.4319999999716,
      "v": 101
    },
    {
      "midi": 60,
      "hit": false,
      "t": 230409.43999999933,
      "d": 1332.4319999999716,
      "v": 121
    },
    {
      "midi": 53,
      "hit": false,
      "t": 231149.67999999932,
      "d": 568.8159999999916,
      "v": 102
    },
    {
      "midi": 41,
      "hit": false,
      "t": 231648.36799999932,
      "d": 124.67199999999139,
      "v": 74
    },
    {
      "midi": 65,
      "hit": false,
      "t": 231889.9199999993,
      "d": 1270.0959999999614,
      "v": 106
    },
    {
      "midi": 57,
      "hit": false,
      "t": 231889.9199999993,
      "d": 1293.4719999999506,
      "v": 98
    },
    {
      "midi": 52,
      "hit": false,
      "t": 231897.7119999993,
      "d": 514.2719999999972,
      "v": 115
    },
    {
      "midi": 40,
      "hit": false,
      "t": 231905.5039999993,
      "d": 771.4079999999958,
      "v": 121
    },
    {
      "midi": 60,
      "hit": false,
      "t": 231905.5039999993,
      "d": 1285.679999999964,
      "v": 121
    },
    {
      "midi": 52,
      "hit": false,
      "t": 232637.9519999993,
      "d": 537.6479999999865,
      "v": 90
    },
    {
      "midi": 40,
      "hit": false,
      "t": 233136.6399999993,
      "d": 124.67199999996228,
      "v": 90
    },
    {
      "midi": 57,
      "hit": false,
      "t": 233385.98399999924,
      "d": 1246.7200000000012,
      "v": 106
    },
    {
      "midi": 62,
      "hit": false,
      "t": 233385.98399999924,
      "d": 1612.9440000000177,
      "v": 107
    },
    {
      "midi": 50,
      "hit": false,
      "t": 233393.77599999923,
      "d": 903.872000000003,
      "v": 100
    },
    {
      "midi": 65,
      "hit": false,
      "t": 233393.77599999923,
      "d": 1542.8160000000207,
      "v": 106
    },
    {
      "midi": 38,
      "hit": false,
      "t": 233393.77599999923,
      "d": 3054.464000000007,
      "v": 117
    },
    {
      "midi": 50,
      "hit": false,
      "t": 234632.70399999924,
      "d": 841.5359999999928,
      "v": 97
    },
    {
      "midi": 57,
      "hit": false,
      "t": 234889.83999999924,
      "d": 366.22400000001653,
      "v": 92
    },
    {
      "midi": 57,
      "hit": false,
      "t": 235380.73599999925,
      "d": 444.14400000000023,
      "v": 77
    },
    {
      "midi": 62,
      "hit": false,
      "t": 235380.73599999925,
      "d": 763.61599999998,
      "v": 101
    },
    {
      "midi": 65,
      "hit": false,
      "t": 235380.73599999925,
      "d": 771.4079999999667,
      "v": 102
    },
    {
      "midi": 50,
      "hit": false,
      "t": 235637.87199999925,
      "d": 677.9039999999804,
      "v": 98
    },
    {
      "midi": 57,
      "hit": false,
      "t": 236136.55999999924,
      "d": 1612.9440000000177,
      "v": 70
    },
    {
      "midi": 45,
      "hit": false,
      "t": 236385.90399999922,
      "d": 950.6240000000107,
      "v": 95
    },
    {
      "midi": 61,
      "hit": false,
      "t": 236385.90399999922,
      "d": 1301.2640000000247,
      "v": 112
    },
    {
      "midi": 64,
      "hit": false,
      "t": 236385.90399999922,
      "d": 1316.8480000000272,
      "v": 104
    },
    {
      "midi": 45,
      "hit": false,
      "t": 237624.83199999924,
      "d": 553.2320000000182,
      "v": 82
    },
    {
      "midi": 57,
      "hit": false,
      "t": 237881.96799999927,
      "d": 490.8959999999788,
      "v": 97
    },
    {
      "midi": 61,
      "hit": false,
      "t": 237881.96799999927,
      "d": 1098.6719999999914,
      "v": 121
    },
    {
      "midi": 64,
      "hit": false,
      "t": 237881.96799999927,
      "d": 1176.5920000000042,
      "v": 111
    },
    {
      "midi": 45,
      "hit": false,
      "t": 238372.86399999924,
      "d": 405.1840000000084,
      "v": 85
    },
    {
      "midi": 57,
      "hit": false,
      "t": 238622.20799999926,
      "d": 444.14400000000023,
      "v": 96
    },
    {
      "midi": 46,
      "hit": false,
      "t": 239120.89599999925,
      "d": 810.3680000000168,
      "v": 93
    },
    {
      "midi": 53,
      "hit": false,
      "t": 239370.23999999926,
      "d": 1036.3359999999811,
      "v": 109
    },
    {
      "midi": 60,
      "hit": false,
      "t": 239378.03199999925,
      "d": 537.6480000000156,
      "v": 111
    },
    {
      "midi": 58,
      "hit": false,
      "t": 239378.03199999925,
      "d": 1020.7520000000077,
      "v": 115
    },
    {
      "midi": 34,
      "hit": false,
      "t": 239378.03199999925,
      "d": 2696.0319999999483,
      "v": 94
    },
    {
      "midi": 62,
      "hit": false,
      "t": 239868.92799999926,
      "d": 607.7759999999835,
      "v": 102
    },
    {
      "midi": 46,
      "hit": false,
      "t": 240118.27199999927,
      "d": 935.0399999999499,
      "v": 112
    },
    {
      "midi": 62,
      "hit": false,
      "t": 240616.95999999924,
      "d": 1550.6079999999492,
      "v": 115
    },
    {
      "midi": 53,
      "hit": false,
      "t": 240624.75199999922,
      "d": 748.0319999999774,
      "v": 111
    },
    {
      "midi": 58,
      "hit": false,
      "t": 240624.75199999922,
      "d": 1472.6879999999655,
      "v": 123
    },
    {
      "midi": 46,
      "hit": false,
      "t": 241364.9919999992,
      "d": 350.63999999998487,
      "v": 112
    },
    {
      "midi": 53,
      "hit": false,
      "t": 241614.3359999992,
      "d": 568.8159999999916,
      "v": 117
    },
    {
      "midi": 53,
      "hit": false,
      "t": 242370.1599999992,
      "d": 4503.7759999999835,
      "v": 107
    },
    {
      "midi": 56,
      "hit": false,
      "t": 242370.1599999992,
      "d": 4503.7759999999835,
      "v": 123
    },
    {
      "midi": 61,
      "hit": false,
      "t": 242370.1599999992,
      "d": 4503.7759999999835,
      "v": 125
    },
    {
      "midi": 49,
      "hit": false,
      "t": 242370.1599999992,
      "d": 4511.56799999997,
      "v": 112
    },
    {
      "midi": 37,
      "hit": false,
      "t": 242377.95199999918,
      "d": 4534.943999999989,
      "v": 102
    },
    {
      "midi": 65,
      "hit": false,
      "t": 248354.41599999915,
      "d": 1386.975999999966,
      "v": 106
    },
    {
      "midi": 60,
      "hit": false,
      "t": 248354.41599999915,
      "d": 1394.7679999999527,
      "v": 111
    },
    {
      "midi": 57,
      "hit": false,
      "t": 248354.41599999915,
      "d": 1410.3519999999553,
      "v": 97
    },
    {
      "midi": 53,
      "hit": false,
      "t": 248362.20799999914,
      "d": 1316.8479999999981,
      "v": 109
    },
    {
      "midi": 41,
      "hit": false,
      "t": 248362.20799999914,
      "d": 1340.2239999999874,
      "v": 102
    },
    {
      "midi": 40,
      "hit": false,
      "t": 249850.4799999991,
      "d": 1363.5999999999767,
      "v": 117
    },
    {
      "midi": 57,
      "hit": false,
      "t": 249850.4799999991,
      "d": 1371.3919999999634,
      "v": 96
    },
    {
      "midi": 65,
      "hit": false,
      "t": 249858.2719999991,
      "d": 1309.0560000000114,
      "v": 109
    },
    {
      "midi": 52,
      "hit": false,
      "t": 249858.2719999991,
      "d": 1316.8479999999981,
      "v": 102
    },
    {
      "midi": 60,
      "hit": false,
      "t": 249858.2719999991,
      "d": 1340.2239999999874,
      "v": 117
    },
    {
      "midi": 65,
      "hit": false,
      "t": 251354.33599999908,
      "d": 1262.3040000000037,
      "v": 107
    },
    {
      "midi": 50,
      "hit": false,
      "t": 251354.33599999908,
      "d": 1277.8880000000063,
      "v": 97
    },
    {
      "midi": 62,
      "hit": false,
      "t": 251354.33599999908,
      "d": 1293.4720000000088,
      "v": 107
    },
    {
      "midi": 38,
      "hit": false,
      "t": 251354.33599999908,
      "d": 1301.2639999999956,
      "v": 109
    },
    {
      "midi": 57,
      "hit": false,
      "t": 251354.33599999908,
      "d": 1301.2639999999956,
      "v": 104
    },
    {
      "midi": 36,
      "hit": false,
      "t": 252842.60799999908,
      "d": 1238.9279999999853,
      "v": 109
    },
    {
      "midi": 48,
      "hit": false,
      "t": 252850.39999999906,
      "d": 1215.551999999996,
      "v": 106
    },
    {
      "midi": 57,
      "hit": false,
      "t": 252850.39999999906,
      "d": 1215.551999999996,
      "v": 107
    },
    {
      "midi": 62,
      "hit": false,
      "t": 252850.39999999906,
      "d": 1293.4720000000088,
      "v": 123
    },
    {
      "midi": 65,
      "hit": false,
      "t": 252850.39999999906,
      "d": 1309.0560000000114,
      "v": 115
    },
    {
      "midi": 53,
      "hit": false,
      "t": 254330.87999999907,
      "d": 1238.9279999999853,
      "v": 113
    },
    {
      "midi": 58,
      "hit": false,
      "t": 254330.87999999907,
      "d": 1309.0559999999823,
      "v": 119
    },
    {
      "midi": 62,
      "hit": false,
      "t": 254338.67199999906,
      "d": 1394.7679999999818,
      "v": 107
    },
    {
      "midi": 34,
      "hit": false,
      "t": 254346.46399999905,
      "d": 1246.7200000000012,
      "v": 112
    },
    {
      "midi": 46,
      "hit": false,
      "t": 254346.46399999905,
      "d": 1277.8880000000063,
      "v": 108
    },
    {
      "midi": 48,
      "hit": false,
      "t": 255842.52799999903,
      "d": 1145.423999999999,
      "v": 121
    },
    {
      "midi": 60,
      "hit": false,
      "t": 255842.52799999903,
      "d": 1145.423999999999,
      "v": 111
    },
    {
      "midi": 36,
      "hit": false,
      "t": 255842.52799999903,
      "d": 1161.0080000000016,
      "v": 109
    },
    {
      "midi": 55,
      "hit": false,
      "t": 255842.52799999903,
      "d": 1176.5920000000042,
      "v": 100
    },
    {
      "midi": 64,
      "hit": false,
      "t": 255842.52799999903,
      "d": 1207.7600000000093,
      "v": 107
    },
    {
      "midi": 53,
      "hit": false,
      "t": 257330.79999999903,
      "d": 1246.719999999972,
      "v": 109
    },
    {
      "midi": 49,
      "hit": false,
      "t": 257338.59199999901,
      "d": 903.872000000003,
      "v": 110
    },
    {
      "midi": 56,
      "hit": false,
      "t": 257338.59199999901,
      "d": 1488.2719999999972,
      "v": 125
    },
    {
      "midi": 61,
      "hit": false,
      "t": 257338.59199999901,
      "d": 1535.024000000005,
      "v": 119
    },
    {
      "midi": 37,
      "hit": false,
      "t": 257338.59199999901,
      "d": 2742.784000000014,
      "v": 99
    },
    {
      "midi": 49,
      "hit": false,
      "t": 258569.727999999,
      "d": 1184.38400000002,
      "v": 104
    },
    {
      "midi": 53,
      "hit": false,
      "t": 258826.863999999,
      "d": 1168.8000000000175,
      "v": 97
    },
    {
      "midi": 56,
      "hit": false,
      "t": 259317.75999999902,
      "d": 677.9040000000095,
      "v": 102
    },
    {
      "midi": 61,
      "hit": false,
      "t": 259567.10399999903,
      "d": 568.8159999999916,
      "v": 117
    },
    {
      "midi": 49,
      "hit": false,
      "t": 260065.79199999903,
      "d": 187.00800000000163,
      "v": 81
    },
    {
      "midi": 53,
      "hit": false,
      "t": 260322.92799999902,
      "d": 311.679999999993,
      "v": 102
    },
    {
      "midi": 58,
      "hit": false,
      "t": 260322.92799999902,
      "d": 1402.5599999999977,
      "v": 123
    },
    {
      "midi": 63,
      "hit": false,
      "t": 260330.719999999,
      "d": 1386.9760000000242,
      "v": 119
    },
    {
      "midi": 39,
      "hit": false,
      "t": 260330.719999999,
      "d": 2953.167999999976,
      "v": 110
    },
    {
      "midi": 55,
      "hit": false,
      "t": 260813.823999999,
      "d": 568.8160000000207,
      "v": 106
    },
    {
      "midi": 51,
      "hit": false,
      "t": 261063.16799999902,
      "d": 1309.0559999999823,
      "v": 99
    },
    {
      "midi": 63,
      "hit": false,
      "t": 261818.991999999,
      "d": 1176.591999999975,
      "v": 112
    },
    {
      "midi": 58,
      "hit": false,
      "t": 261818.991999999,
      "d": 1231.1359999999695,
      "v": 123
    },
    {
      "midi": 55,
      "hit": false,
      "t": 261818.991999999,
      "d": 1324.6399999999849,
      "v": 98
    },
    {
      "midi": 51,
      "hit": false,
      "t": 262574.815999999,
      "d": 693.4880000000121,
      "v": 121
    },
    {
      "midi": 44,
      "hit": false,
      "t": 263322.847999999,
      "d": 942.8319999999949,
      "v": 106
    },
    {
      "midi": 56,
      "hit": false,
      "t": 263322.847999999,
      "d": 1176.5920000000042,
      "v": 117
    },
    {
      "midi": 60,
      "hit": false,
      "t": 263322.847999999,
      "d": 1441.5200000000186,
      "v": 109
    },
    {
      "midi": 63,
      "hit": false,
      "t": 263322.847999999,
      "d": 1480.4800000000396,
      "v": 110
    },
    {
      "midi": 44,
      "hit": false,
      "t": 264553.983999999,
      "d": 1153.216000000073,
      "v": 112
    },
    {
      "midi": 56,
      "hit": false,
      "t": 264803.32799999905,
      "d": 919.4560000000056,
      "v": 110
    },
    {
      "midi": 60,
      "hit": false,
      "t": 265302.0159999991,
      "d": 989.5839999999735,
      "v": 92
    },
    {
      "midi": 63,
      "hit": false,
      "t": 265551.35999999905,
      "d": 514.2719999999972,
      "v": 97
    },
    {
      "midi": 44,
      "hit": false,
      "t": 266050.0479999991,
      "d": 202.59199999994598,
      "v": 81
    },
    {
      "midi": 49,
      "hit": false,
      "t": 266299.39199999906,
      "d": 903.8720000000321,
      "v": 92
    },
    {
      "midi": 56,
      "hit": false,
      "t": 266299.39199999906,
      "d": 1472.6880000000237,
      "v": 94
    },
    {
      "midi": 53,
      "hit": false,
      "t": 266307.1839999991,
      "d": 1285.679999999993,
      "v": 90
    },
    {
      "midi": 61,
      "hit": false,
      "t": 266307.1839999991,
      "d": 1597.359999999986,
      "v": 102
    },
    {
      "midi": 37,
      "hit": false,
      "t": 266307.1839999991,
      "d": 2820.703999999969,
      "v": 104
    },
    {
      "midi": 49,
      "hit": false,
      "t": 267546.1119999991,
      "d": 1176.591999999946,
      "v": 115
    },
    {
      "midi": 53,
      "hit": false,
      "t": 267803.2479999991,
      "d": 1441.5199999999604,
      "v": 101
    },
    {
      "midi": 56,
      "hit": false,
      "t": 268294.14399999904,
      "d": 966.2079999999842,
      "v": 108
    },
    {
      "midi": 61,
      "hit": false,
      "t": 268543.487999999,
      "d": 732.4479999999749,
      "v": 112
    },
    {
      "midi": 49,
      "hit": false,
      "t": 269049.96799999906,
      "d": 101.29599999997299,
      "v": 64
    },
    {
      "midi": 46,
      "hit": false,
      "t": 269307.103999999,
      "d": 880.4960000000428,
      "v": 69
    },
    {
      "midi": 53,
      "hit": false,
      "t": 269307.103999999,
      "d": 1215.5520000000251,
      "v": 91
    },
    {
      "midi": 61,
      "hit": false,
      "t": 269307.103999999,
      "d": 1348.0160000000033,
      "v": 94
    },
    {
      "midi": 58,
      "hit": false,
      "t": 269307.103999999,
      "d": 1425.935999999987,
      "v": 99
    },
    {
      "midi": 34,
      "hit": false,
      "t": 269314.895999999,
      "d": 2181.7600000000093,
      "v": 85
    },
    {
      "midi": 46,
      "hit": false,
      "t": 270546.031999999,
      "d": 670.1120000000228,
      "v": 64
    },
    {
      "midi": 53,
      "hit": false,
      "t": 270795.375999999,
      "d": 210.38400000002002,
      "v": 78
    },
    {
      "midi": 53,
      "hit": false,
      "t": 271286.27199999907,
      "d": 140.25599999999395,
      "v": 88
    },
    {
      "midi": 58,
      "hit": false,
      "t": 271286.27199999907,
      "d": 194.79999999998836,
      "v": 112
    },
    {
      "midi": 61,
      "hit": false,
      "t": 271286.27199999907,
      "d": 194.79999999998836,
      "v": 101
    },
    {
      "midi": 46,
      "hit": false,
      "t": 271543.407999999,
      "d": 319.47200000000885,
      "v": 64
    },
    {
      "midi": 64,
      "hit": false,
      "t": 272291.439999999,
      "d": 1425.935999999987,
      "v": 91
    },
    {
      "midi": 48,
      "hit": false,
      "t": 272299.231999999,
      "d": 794.7840000000433,
      "v": 69
    },
    {
      "midi": 55,
      "hit": false,
      "t": 272299.231999999,
      "d": 1067.5040000000154,
      "v": 85
    },
    {
      "midi": 58,
      "hit": false,
      "t": 272299.231999999,
      "d": 1309.0559999999823,
      "v": 93
    },
    {
      "midi": 36,
      "hit": false,
      "t": 272299.231999999,
      "d": 2610.320000000007,
      "v": 81
    },
    {
      "midi": 48,
      "hit": false,
      "t": 273530.367999999,
      "d": 1036.3360000000102,
      "v": 75
    },
    {
      "midi": 55,
      "hit": false,
      "t": 273787.503999999,
      "d": 584.4000000000233,
      "v": 85
    },
    {
      "midi": 58,
      "hit": false,
      "t": 274278.39999999903,
      "d": 374.01600000000326,
      "v": 85
    },
    {
      "midi": 64,
      "hit": false,
      "t": 274535.53599999903,
      "d": 272.72000000003027,
      "v": 98
    },
    {
      "midi": 57,
      "hit": false,
      "t": 275291.35999999905,
      "d": 2968.752000000037,
      "v": 101
    },
    {
      "midi": 60,
      "hit": false,
      "t": 275291.35999999905,
      "d": 2968.752000000037,
      "v": 117
    },
    {
      "midi": 41,
      "hit": false,
      "t": 275291.35999999905,
      "d": 2976.5440000000526,
      "v": 113
    },
    {
      "midi": 65,
      "hit": false,
      "t": 275291.35999999905,
      "d": 2976.5440000000526,
      "v": 111
    },
    {
      "midi": 53,
      "hit": false,
      "t": 275299.15199999907,
      "d": 2953.168000000005,
      "v": 115
    }
  ]
}