{
  "jsonPath": "Rock/Glam Rock/Elton John/song-for-guy.json",
  "path": "Rock\\Glam Rock\\Elton John\\Song For Guy.mid",
  "name": "Song For Guy",
  "difficulty": "Advanced",
  "bpm": 100,
  "notes": [
    {
      "midi": 60,
      "hit": false,
      "t": 0,
      "d": 2400,
      "v": 73
    },
    {
      "midi": 64,
      "hit": false,
      "t": 0,
      "d": 2400,
      "v": 73
    },
    {
      "midi": 48,
      "hit": false,
      "t": 0,
      "d": 2400,
      "v": 62
    },
    {
      "midi": 55,
      "hit": false,
      "t": 0,
      "d": 2400,
      "v": 62
    },
    {
      "midi": 48,
      "hit": false,
      "t": 2400,
      "d": 2400,
      "v": 70
    },
    {
      "midi": 64,
      "hit": false,
      "t": 2700,
      "d": 300,
      "v": 77
    },
    {
      "midi": 65,
      "hit": false,
      "t": 3000,
      "d": 300,
      "v": 84
    },
    {
      "midi": 67,
      "hit": false,
      "t": 3300,
      "d": 600,
      "v": 82
    },
    {
      "midi": 64,
      "hit": false,
      "t": 3900,
      "d": 300,
      "v": 74
    },
    {
      "midi": 60,
      "hit": false,
      "t": 4200,
      "d": 600,
      "v": 67
    },
    {
      "midi": 64,
      "hit": false,
      "t": 4800,
      "d": 900,
      "v": 87
    },
    {
      "midi": 47,
      "hit": false,
      "t": 4800,
      "d": 900,
      "v": 82
    },
    {
      "midi": 55,
      "hit": false,
      "t": 4800,
      "d": 900,
      "v": 82
    },
    {
      "midi": 62,
      "hit": false,
      "t": 5700,
      "d": 1800,
      "v": 74
    },
    {
      "midi": 47,
      "hit": false,
      "t": 5700,
      "d": 1200,
      "v": 82
    },
    {
      "midi": 55,
      "hit": false,
      "t": 5700,
      "d": 1200,
      "v": 82
    },
    {
      "midi": 47,
      "hit": false,
      "t": 7200,
      "d": 900,
      "v": 77
    },
    {
      "midi": 55,
      "hit": false,
      "t": 7200,
      "d": 900,
      "v": 77
    },
    {
      "midi": 62,
      "hit": false,
      "t": 7500,
      "d": 300,
      "v": 74
    },
    {
      "midi": 64,
      "hit": false,
      "t": 7800,
      "d": 300,
      "v": 81
    },
    {
      "midi": 65,
      "hit": false,
      "t": 8100,
      "d": 600,
      "v": 81
    },
    {
      "midi": 47,
      "hit": false,
      "t": 8100,
      "d": 1200,
      "v": 76
    },
    {
      "midi": 55,
      "hit": false,
      "t": 8100,
      "d": 1200,
      "v": 76
    },
    {
      "midi": 64,
      "hit": false,
      "t": 8700,
      "d": 300,
      "v": 73
    },
    {
      "midi": 62,
      "hit": false,
      "t": 9000,
      "d": 600,
      "v": 70
    },
    {
      "midi": 62,
      "hit": false,
      "t": 9600,
      "d": 2400,
      "v": 74
    },
    {
      "midi": 46,
      "hit": false,
      "t": 9600,
      "d": 2400,
      "v": 79
    },
    {
      "midi": 53,
      "hit": false,
      "t": 9600,
      "d": 2400,
      "v": 79
    },
    {
      "midi": 46,
      "hit": false,
      "t": 12000,
      "d": 900,
      "v": 71
    },
    {
      "midi": 62,
      "hit": false,
      "t": 12300,
      "d": 300,
      "v": 77
    },
    {
      "midi": 64,
      "hit": false,
      "t": 12600,
      "d": 300,
      "v": 74
    },
    {
      "midi": 65,
      "hit": false,
      "t": 12900,
      "d": 600,
      "v": 81
    },
    {
      "midi": 46,
      "hit": false,
      "t": 12900,
      "d": 900,
      "v": 75
    },
    {
      "midi": 64,
      "hit": false,
      "t": 13500,
      "d": 300,
      "v": 73
    },
    {
      "midi": 62,
      "hit": false,
      "t": 13800,
      "d": 600,
      "v": 73
    },
    {
      "midi": 46,
      "hit": false,
      "t": 13800,
      "d": 600,
      "v": 77
    },
    {
      "midi": 58,
      "hit": false,
      "t": 14400,
      "d": 900,
      "v": 77
    },
    {
      "midi": 62,
      "hit": false,
      "t": 14400,
      "d": 900,
      "v": 77
    },
    {
      "midi": 41,
      "hit": false,
      "t": 14400,
      "d": 900,
      "v": 66
    },
    {
      "midi": 57,
      "hit": false,
      "t": 15300,
      "d": 2400,
      "v": 72
    },
    {
      "midi": 60,
      "hit": false,
      "t": 15300,
      "d": 2400,
      "v": 72
    },
    {
      "midi": 41,
      "hit": false,
      "t": 15300,
      "d": 2400,
      "v": 78
    },
    {
      "midi": 65,
      "hit": false,
      "t": 17700,
      "d": 300,
      "v": 93
    },
    {
      "midi": 69,
      "hit": false,
      "t": 17700,
      "d": 300,
      "v": 93
    },
    {
      "midi": 48,
      "hit": false,
      "t": 17700,
      "d": 300,
      "v": 84
    },
    {
      "midi": 65,
      "hit": false,
      "t": 18000,
      "d": 600,
      "v": 82
    },
    {
      "midi": 69,
      "hit": false,
      "t": 18000,
      "d": 600,
      "v": 82
    },
    {
      "midi": 48,
      "hit": false,
      "t": 18000,
      "d": 600,
      "v": 77
    },
    {
      "midi": 65,
      "hit": false,
      "t": 18600,
      "d": 600,
      "v": 77
    },
    {
      "midi": 69,
      "hit": false,
      "t": 18600,
      "d": 600,
      "v": 77
    },
    {
      "midi": 48,
      "hit": false,
      "t": 18600,
      "d": 600,
      "v": 79
    },
    {
      "midi": 57,
      "hit": false,
      "t": 19200,
      "d": 2400,
      "v": 58
    },
    {
      "midi": 60,
      "hit": false,
      "t": 19200,
      "d": 2400,
      "v": 58
    },
    {
      "midi": 41,
      "hit": false,
      "t": 19200,
      "d": 2400,
      "v": 67
    },
    {
      "midi": 67,
      "hit": false,
      "t": 21600,
      "d": 300,
      "v": 91
    },
    {
      "midi": 72,
      "hit": false,
      "t": 21600,
      "d": 300,
      "v": 91
    },
    {
      "midi": 76,
      "hit": false,
      "t": 21600,
      "d": 300,
      "v": 91
    },
    {
      "midi": 48,
      "hit": false,
      "t": 21600,
      "d": 900,
      "v": 81
    },
    {
      "midi": 67,
      "hit": false,
      "t": 21900,
      "d": 300,
      "v": 80
    },
    {
      "midi": 72,
      "hit": false,
      "t": 21900,
      "d": 300,
      "v": 80
    },
    {
      "midi": 76,
      "hit": false,
      "t": 21900,
      "d": 300,
      "v": 80
    },
    {
      "midi": 67,
      "hit": false,
      "t": 22200,
      "d": 300,
      "v": 80
    },
    {
      "midi": 72,
      "hit": false,
      "t": 22200,
      "d": 300,
      "v": 80
    },
    {
      "midi": 76,
      "hit": false,
      "t": 22200,
      "d": 300,
      "v": 80
    },
    {
      "midi": 65,
      "hit": false,
      "t": 22500,
      "d": 300,
      "v": 68
    },
    {
      "midi": 69,
      "hit": false,
      "t": 22500,
      "d": 300,
      "v": 68
    },
    {
      "midi": 74,
      "hit": false,
      "t": 22500,
      "d": 300,
      "v": 68
    },
    {
      "midi": 48,
      "hit": false,
      "t": 22500,
      "d": 300,
      "v": 78
    },
    {
      "midi": 48,
      "hit": false,
      "t": 22800,
      "d": 1200,
      "v": 75
    },
    {
      "midi": 65,
      "hit": false,
      "t": 23100,
      "d": 900,
      "v": 67
    },
    {
      "midi": 69,
      "hit": false,
      "t": 23100,
      "d": 900,
      "v": 67
    },
    {
      "midi": 74,
      "hit": false,
      "t": 23100,
      "d": 900,
      "v": 67
    },
    {
      "midi": 64,
      "hit": false,
      "t": 24000,
      "d": 2400,
      "v": 70
    },
    {
      "midi": 67,
      "hit": false,
      "t": 24000,
      "d": 2400,
      "v": 70
    },
    {
      "midi": 72,
      "hit": false,
      "t": 24000,
      "d": 2400,
      "v": 70
    },
    {
      "midi": 48,
      "hit": false,
      "t": 24000,
      "d": 900,
      "v": 74
    },
    {
      "midi": 48,
      "hit": false,
      "t": 24900,
      "d": 300,
      "v": 74
    },
    {
      "midi": 48,
      "hit": false,
      "t": 25200,
      "d": 1200,
      "v": 76
    },
    {
      "midi": 67,
      "hit": false,
      "t": 26400,
      "d": 300,
      "v": 83
    },
    {
      "midi": 72,
      "hit": false,
      "t": 26400,
      "d": 300,
      "v": 83
    },
    {
      "midi": 76,
      "hit": false,
      "t": 26400,
      "d": 300,
      "v": 83
    },
    {
      "midi": 48,
      "hit": false,
      "t": 26400,
      "d": 900,
      "v": 77
    },
    {
      "midi": 67,
      "hit": false,
      "t": 26700,
      "d": 300,
      "v": 78
    },
    {
      "midi": 72,
      "hit": false,
      "t": 26700,
      "d": 300,
      "v": 78
    },
    {
      "midi": 76,
      "hit": false,
      "t": 26700,
      "d": 300,
      "v": 78
    },
    {
      "midi": 67,
      "hit": false,
      "t": 27000,
      "d": 300,
      "v": 75
    },
    {
      "midi": 72,
      "hit": false,
      "t": 27000,
      "d": 300,
      "v": 75
    },
    {
      "midi": 76,
      "hit": false,
      "t": 27000,
      "d": 300,
      "v": 75
    },
    {
      "midi": 65,
      "hit": false,
      "t": 27300,
      "d": 300,
      "v": 75
    },
    {
      "midi": 69,
      "hit": false,
      "t": 27300,
      "d": 300,
      "v": 75
    },
    {
      "midi": 74,
      "hit": false,
      "t": 27300,
      "d": 300,
      "v": 75
    },
    {
      "midi": 48,
      "hit": false,
      "t": 27300,
      "d": 300,
      "v": 79
    },
    {
      "midi": 48,
      "hit": false,
      "t": 27600,
      "d": 1200,
      "v": 73
    },
    {
      "midi": 65,
      "hit": false,
      "t": 27900,
      "d": 900,
      "v": 61
    },
    {
      "midi": 69,
      "hit": false,
      "t": 27900,
      "d": 900,
      "v": 61
    },
    {
      "midi": 74,
      "hit": false,
      "t": 27900,
      "d": 900,
      "v": 61
    },
    {
      "midi": 64,
      "hit": false,
      "t": 28800,
      "d": 2400,
      "v": 69
    },
    {
      "midi": 67,
      "hit": false,
      "t": 28800,
      "d": 2400,
      "v": 69
    },
    {
      "midi": 72,
      "hit": false,
      "t": 28800,
      "d": 2400,
      "v": 69
    },
    {
      "midi": 48,
      "hit": false,
      "t": 28800,
      "d": 900,
      "v": 72
    },
    {
      "midi": 48,
      "hit": false,
      "t": 29700,
      "d": 300,
      "v": 77
    },
    {
      "midi": 48,
      "hit": false,
      "t": 30000,
      "d": 1200,
      "v": 76
    },
    {
      "midi": 65,
      "hit": false,
      "t": 31200,
      "d": 300,
      "v": 78
    },
    {
      "midi": 69,
      "hit": false,
      "t": 31200,
      "d": 300,
      "v": 78
    },
    {
      "midi": 72,
      "hit": false,
      "t": 31200,
      "d": 300,
      "v": 78
    },
    {
      "midi": 41,
      "hit": false,
      "t": 31200,
      "d": 900,
      "v": 66
    },
    {
      "midi": 65,
      "hit": false,
      "t": 31500,
      "d": 300,
      "v": 79
    },
    {
      "midi": 69,
      "hit": false,
      "t": 31500,
      "d": 300,
      "v": 79
    },
    {
      "midi": 72,
      "hit": false,
      "t": 31500,
      "d": 300,
      "v": 79
    },
    {
      "midi": 65,
      "hit": false,
      "t": 31800,
      "d": 300,
      "v": 75
    },
    {
      "midi": 69,
      "hit": false,
      "t": 31800,
      "d": 300,
      "v": 75
    },
    {
      "midi": 72,
      "hit": false,
      "t": 31800,
      "d": 300,
      "v": 75
    },
    {
      "midi": 62,
      "hit": false,
      "t": 32100,
      "d": 300,
      "v": 73
    },
    {
      "midi": 67,
      "hit": false,
      "t": 32100,
      "d": 300,
      "v": 73
    },
    {
      "midi": 71,
      "hit": false,
      "t": 32100,
      "d": 300,
      "v": 73
    },
    {
      "midi": 41,
      "hit": false,
      "t": 32100,
      "d": 300,
      "v": 80
    },
    {
      "midi": 41,
      "hit": false,
      "t": 32400,
      "d": 1200,
      "v": 77
    },
    {
      "midi": 62,
      "hit": false,
      "t": 32700,
      "d": 900,
      "v": 70
    },
    {
      "midi": 67,
      "hit": false,
      "t": 32700,
      "d": 900,
      "v": 70
    },
    {
      "midi": 71,
      "hit": false,
      "t": 32700,
      "d": 900,
      "v": 70
    },
    {
      "midi": 60,
      "hit": false,
      "t": 33600,
      "d": 1200,
      "v": 71
    },
    {
      "midi": 65,
      "hit": false,
      "t": 33600,
      "d": 1200,
      "v": 71
    },
    {
      "midi": 69,
      "hit": false,
      "t": 33600,
      "d": 1200,
      "v": 71
    },
    {
      "midi": 41,
      "hit": false,
      "t": 33600,
      "d": 900,
      "v": 73
    },
    {
      "midi": 41,
      "hit": false,
      "t": 34500,
      "d": 300,
      "v": 80
    },
    {
      "midi": 41,
      "hit": false,
      "t": 34800,
      "d": 1200,
      "v": 76
    },
    {
      "midi": 55,
      "hit": false,
      "t": 35100,
      "d": 300,
      "v": 64
    },
    {
      "midi": 53,
      "hit": false,
      "t": 35400,
      "d": 300,
      "v": 71
    },
    {
      "midi": 57,
      "hit": false,
      "t": 35700,
      "d": 300,
      "v": 80
    },
    {
      "midi": 60,
      "hit": false,
      "t": 36000,
      "d": 4800,
      "v": 88
    },
    {
      "midi": 64,
      "hit": false,
      "t": 36000,
      "d": 4800,
      "v": 88
    },
    {
      "midi": 48,
      "hit": false,
      "t": 36000,
      "d": 900,
      "v": 68
    },
    {
      "midi": 55,
      "hit": false,
      "t": 36000,
      "d": 900,
      "v": 85
    },
    {
      "midi": 48,
      "hit": false,
      "t": 36900,
      "d": 300,
      "v": 80
    },
    {
      "midi": 48,
      "hit": false,
      "t": 37200,
      "d": 1200,
      "v": 81
    },
    {
      "midi": 48,
      "hit": false,
      "t": 38400,
      "d": 900,
      "v": 75
    },
    {
      "midi": 48,
      "hit": false,
      "t": 39300,
      "d": 300,
      "v": 78
    },
    {
      "midi": 48,
      "hit": false,
      "t": 39600,
      "d": 1200,
      "v": 74
    },
    {
      "midi": 67,
      "hit": false,
      "t": 40800,
      "d": 300,
      "v": 92
    },
    {
      "midi": 72,
      "hit": false,
      "t": 40800,
      "d": 300,
      "v": 92
    },
    {
      "midi": 76,
      "hit": false,
      "t": 40800,
      "d": 300,
      "v": 92
    },
    {
      "midi": 48,
      "hit": false,
      "t": 40800,
      "d": 900,
      "v": 67
    },
    {
      "midi": 67,
      "hit": false,
      "t": 41100,
      "d": 300,
      "v": 77
    },
    {
      "midi": 72,
      "hit": false,
      "t": 41100,
      "d": 300,
      "v": 77
    },
    {
      "midi": 76,
      "hit": false,
      "t": 41100,
      "d": 300,
      "v": 77
    },
    {
      "midi": 67,
      "hit": false,
      "t": 41400,
      "d": 300,
      "v": 76
    },
    {
      "midi": 72,
      "hit": false,
      "t": 41400,
      "d": 300,
      "v": 76
    },
    {
      "midi": 76,
      "hit": false,
      "t": 41400,
      "d": 300,
      "v": 76
    },
    {
      "midi": 65,
      "hit": false,
      "t": 41700,
      "d": 300,
      "v": 70
    },
    {
      "midi": 69,
      "hit": false,
      "t": 41700,
      "d": 300,
      "v": 70
    },
    {
      "midi": 74,
      "hit": false,
      "t": 41700,
      "d": 300,
      "v": 70
    },
    {
      "midi": 48,
      "hit": false,
      "t": 41700,
      "d": 300,
      "v": 74
    },
    {
      "midi": 48,
      "hit": false,
      "t": 42000,
      "d": 1200,
      "v": 80
    },
    {
      "midi": 65,
      "hit": false,
      "t": 42300,
      "d": 900,
      "v": 73
    },
    {
      "midi": 69,
      "hit": false,
      "t": 42300,
      "d": 900,
      "v": 73
    },
    {
      "midi": 74,
      "hit": false,
      "t": 42300,
      "d": 900,
      "v": 73
    },
    {
      "midi": 64,
      "hit": false,
      "t": 43200,
      "d": 2400,
      "v": 71
    },
    {
      "midi": 67,
      "hit": false,
      "t": 43200,
      "d": 2400,
      "v": 71
    },
    {
      "midi": 72,
      "hit": false,
      "t": 43200,
      "d": 2400,
      "v": 71
    },
    {
      "midi": 48,
      "hit": false,
      "t": 43200,
      "d": 900,
      "v": 74
    },
    {
      "midi": 48,
      "hit": false,
      "t": 44100,
      "d": 300,
      "v": 75
    },
    {
      "midi": 48,
      "hit": false,
      "t": 44400,
      "d": 1200,
      "v": 75
    },
    {
      "midi": 67,
      "hit": false,
      "t": 45600,
      "d": 300,
      "v": 84
    },
    {
      "midi": 72,
      "hit": false,
      "t": 45600,
      "d": 300,
      "v": 84
    },
    {
      "midi": 76,
      "hit": false,
      "t": 45600,
      "d": 300,
      "v": 84
    },
    {
      "midi": 48,
      "hit": false,
      "t": 45600,
      "d": 900,
      "v": 72
    },
    {
      "midi": 67,
      "hit": false,
      "t": 45900,
      "d": 300,
      "v": 78
    },
    {
      "midi": 72,
      "hit": false,
      "t": 45900,
      "d": 300,
      "v": 78
    },
    {
      "midi": 76,
      "hit": false,
      "t": 45900,
      "d": 300,
      "v": 78
    },
    {
      "midi": 67,
      "hit": false,
      "t": 46200,
      "d": 300,
      "v": 78
    },
    {
      "midi": 72,
      "hit": false,
      "t": 46200,
      "d": 300,
      "v": 78
    },
    {
      "midi": 76,
      "hit": false,
      "t": 46200,
      "d": 300,
      "v": 78
    },
    {
      "midi": 65,
      "hit": false,
      "t": 46500,
      "d": 300,
      "v": 72
    },
    {
      "midi": 69,
      "hit": false,
      "t": 46500,
      "d": 300,
      "v": 72
    },
    {
      "midi": 74,
      "hit": false,
      "t": 46500,
      "d": 300,
      "v": 72
    },
    {
      "midi": 48,
      "hit": false,
      "t": 46500,
      "d": 300,
      "v": 78
    },
    {
      "midi": 48,
      "hit": false,
      "t": 46800,
      "d": 1200,
      "v": 76
    },
    {
      "midi": 65,
      "hit": false,
      "t": 47100,
      "d": 900,
      "v": 69
    },
    {
      "midi": 69,
      "hit": false,
      "t": 47100,
      "d": 900,
      "v": 69
    },
    {
      "midi": 74,
      "hit": false,
      "t": 47100,
      "d": 900,
      "v": 69
    },
    {
      "midi": 64,
      "hit": false,
      "t": 48000,
      "d": 2400,
      "v": 76
    },
    {
      "midi": 67,
      "hit": false,
      "t": 48000,
      "d": 2400,
      "v": 76
    },
    {
      "midi": 72,
      "hit": false,
      "t": 48000,
      "d": 2400,
      "v": 76
    },
    {
      "midi": 48,
      "hit": false,
      "t": 48000,
      "d": 900,
      "v": 77
    },
    {
      "midi": 48,
      "hit": false,
      "t": 48900,
      "d": 300,
      "v": 77
    },
    {
      "midi": 48,
      "hit": false,
      "t": 49200,
      "d": 1200,
      "v": 78
    },
    {
      "midi": 65,
      "hit": false,
      "t": 50400,
      "d": 300,
      "v": 77
    },
    {
      "midi": 69,
      "hit": false,
      "t": 50400,
      "d": 300,
      "v": 77
    },
    {
      "midi": 72,
      "hit": false,
      "t": 50400,
      "d": 300,
      "v": 77
    },
    {
      "midi": 41,
      "hit": false,
      "t": 50400,
      "d": 900,
      "v": 67
    },
    {
      "midi": 65,
      "hit": false,
      "t": 50700,
      "d": 300,
      "v": 79
    },
    {
      "midi": 69,
      "hit": false,
      "t": 50700,
      "d": 300,
      "v": 79
    },
    {
      "midi": 72,
      "hit": false,
      "t": 50700,
      "d": 300,
      "v": 79
    },
    {
      "midi": 65,
      "hit": false,
      "t": 51000,
      "d": 300,
      "v": 77
    },
    {
      "midi": 69,
      "hit": false,
      "t": 51000,
      "d": 300,
      "v": 77
    },
    {
      "midi": 72,
      "hit": false,
      "t": 51000,
      "d": 300,
      "v": 77
    },
    {
      "midi": 62,
      "hit": false,
      "t": 51300,
      "d": 300,
      "v": 70
    },
    {
      "midi": 67,
      "hit": false,
      "t": 51300,
      "d": 300,
      "v": 70
    },
    {
      "midi": 71,
      "hit": false,
      "t": 51300,
      "d": 300,
      "v": 70
    },
    {
      "midi": 41,
      "hit": false,
      "t": 51300,
      "d": 300,
      "v": 82
    },
    {
      "midi": 41,
      "hit": false,
      "t": 51600,
      "d": 1200,
      "v": 73
    },
    {
      "midi": 62,
      "hit": false,
      "t": 51900,
      "d": 900,
      "v": 67
    },
    {
      "midi": 67,
      "hit": false,
      "t": 51900,
      "d": 900,
      "v": 67
    },
    {
      "midi": 71,
      "hit": false,
      "t": 51900,
      "d": 900,
      "v": 67
    },
    {
      "midi": 60,
      "hit": false,
      "t": 52800,
      "d": 1200,
      "v": 68
    },
    {
      "midi": 65,
      "hit": false,
      "t": 52800,
      "d": 1200,
      "v": 68
    },
    {
      "midi": 69,
      "hit": false,
      "t": 52800,
      "d": 1200,
      "v": 68
    },
    {
      "midi": 41,
      "hit": false,
      "t": 52800,
      "d": 900,
      "v": 79
    },
    {
      "midi": 41,
      "hit": false,
      "t": 53700,
      "d": 300,
      "v": 76
    },
    {
      "midi": 41,
      "hit": false,
      "t": 54000,
      "d": 1200,
      "v": 78
    },
    {
      "midi": 55,
      "hit": false,
      "t": 54300,
      "d": 300,
      "v": 64
    },
    {
      "midi": 53,
      "hit": false,
      "t": 54600,
      "d": 300,
      "v": 68
    },
    {
      "midi": 57,
      "hit": false,
      "t": 54900,
      "d": 300,
      "v": 80
    },
    {
      "midi": 64,
      "hit": false,
      "t": 55200,
      "d": 3300,
      "v": 91
    },
    {
      "midi": 48,
      "hit": false,
      "t": 55200,
      "d": 900,
      "v": 81
    },
    {
      "midi": 55,
      "hit": false,
      "t": 55200,
      "d": 900,
      "v": 87
    },
    {
      "midi": 48,
      "hit": false,
      "t": 56100,
      "d": 300,
      "v": 75
    },
    {
      "midi": 48,
      "hit": false,
      "t": 56400,
      "d": 1200,
      "v": 74
    },
    {
      "midi": 48,
      "hit": false,
      "t": 57600,
      "d": 900,
      "v": 74
    },
    {
      "midi": 64,
      "hit": false,
      "t": 58500,
      "d": 300,
      "v": 77
    },
    {
      "midi": 48,
      "hit": false,
      "t": 58500,
      "d": 300,
      "v": 73
    },
    {
      "midi": 65,
      "hit": false,
      "t": 58800,
      "d": 300,
      "v": 77
    },
    {
      "midi": 48,
      "hit": false,
      "t": 58800,
      "d": 1200,
      "v": 77
    },
    {
      "midi": 67,
      "hit": false,
      "t": 59100,
      "d": 900,
      "v": 82
    },
    {
      "midi": 74,
      "hit": false,
      "t": 60000,
      "d": 300,
      "v": 102
    },
    {
      "midi": 79,
      "hit": false,
      "t": 60000,
      "d": 300,
      "v": 102
    },
    {
      "midi": 46,
      "hit": false,
      "t": 60000,
      "d": 900,
      "v": 67
    },
    {
      "midi": 74,
      "hit": false,
      "t": 60300,
      "d": 300,
      "v": 79
    },
    {
      "midi": 79,
      "hit": false,
      "t": 60300,
      "d": 300,
      "v": 79
    },
    {
      "midi": 74,
      "hit": false,
      "t": 60600,
      "d": 300,
      "v": 77
    },
    {
      "midi": 79,
      "hit": false,
      "t": 60600,
      "d": 300,
      "v": 77
    },
    {
      "midi": 74,
      "hit": false,
      "t": 60900,
      "d": 600,
      "v": 80
    },
    {
      "midi": 79,
      "hit": false,
      "t": 60900,
      "d": 600,
      "v": 80
    },
    {
      "midi": 46,
      "hit": false,
      "t": 60900,
      "d": 300,
      "v": 78
    },
    {
      "midi": 46,
      "hit": false,
      "t": 61200,
      "d": 1200,
      "v": 75
    },
    {
      "midi": 74,
      "hit": false,
      "t": 61500,
      "d": 600,
      "v": 72
    },
    {
      "midi": 77,
      "hit": false,
      "t": 61500,
      "d": 600,
      "v": 72
    },
    {
      "midi": 74,
      "hit": false,
      "t": 62100,
      "d": 1800,
      "v": 75
    },
    {
      "midi": 77,
      "hit": false,
      "t": 62100,
      "d": 1800,
      "v": 75
    },
    {
      "midi": 46,
      "hit": false,
      "t": 62400,
      "d": 900,
      "v": 77
    },
    {
      "midi": 46,
      "hit": false,
      "t": 63300,
      "d": 300,
      "v": 79
    },
    {
      "midi": 46,
      "hit": false,
      "t": 63600,
      "d": 1200,
      "v": 76
    },
    {
      "midi": 65,
      "hit": false,
      "t": 63900,
      "d": 900,
      "v": 54
    },
    {
      "midi": 74,
      "hit": false,
      "t": 64800,
      "d": 300,
      "v": 95
    },
    {
      "midi": 79,
      "hit": false,
      "t": 64800,
      "d": 300,
      "v": 95
    },
    {
      "midi": 45,
      "hit": false,
      "t": 64800,
      "d": 900,
      "v": 71
    },
    {
      "midi": 74,
      "hit": false,
      "t": 65100,
      "d": 300,
      "v": 79
    },
    {
      "midi": 79,
      "hit": false,
      "t": 65100,
      "d": 300,
      "v": 79
    },
    {
      "midi": 74,
      "hit": false,
      "t": 65400,
      "d": 300,
      "v": 77
    },
    {
      "midi": 79,
      "hit": false,
      "t": 65400,
      "d": 300,
      "v": 77
    },
    {
      "midi": 74,
      "hit": false,
      "t": 65700,
      "d": 600,
      "v": 73
    },
    {
      "midi": 79,
      "hit": false,
      "t": 65700,
      "d": 600,
      "v": 73
    },
    {
      "midi": 45,
      "hit": false,
      "t": 65700,
      "d": 300,
      "v": 77
    },
    {
      "midi": 45,
      "hit": false,
      "t": 66000,
      "d": 1200,
      "v": 79
    },
    {
      "midi": 74,
      "hit": false,
      "t": 66300,
      "d": 600,
      "v": 70
    },
    {
      "midi": 77,
      "hit": false,
      "t": 66300,
      "d": 600,
      "v": 70
    },
    {
      "midi": 74,
      "hit": false,
      "t": 66900,
      "d": 1200,
      "v": 74
    },
    {
      "midi": 77,
      "hit": false,
      "t": 66900,
      "d": 1200,
      "v": 74
    },
    {
      "midi": 45,
      "hit": false,
      "t": 67200,
      "d": 900,
      "v": 76
    },
    {
      "midi": 62,
      "hit": false,
      "t": 68100,
      "d": 600,
      "v": 57
    },
    {
      "midi": 64,
      "hit": false,
      "t": 68100,
      "d": 600,
      "v": 57
    },
    {
      "midi": 45,
      "hit": false,
      "t": 68100,
      "d": 300,
      "v": 77
    },
    {
      "midi": 45,
      "hit": false,
      "t": 68400,
      "d": 1200,
      "v": 75
    },
    {
      "midi": 62,
      "hit": false,
      "t": 68700,
      "d": 900,
      "v": 84
    },
    {
      "midi": 65,
      "hit": false,
      "t": 68700,
      "d": 900,
      "v": 84
    },
    {
      "midi": 73,
      "hit": false,
      "t": 69600,
      "d": 300,
      "v": 98
    },
    {
      "midi": 79,
      "hit": false,
      "t": 69600,
      "d": 300,
      "v": 98
    },
    {
      "midi": 45,
      "hit": false,
      "t": 69600,
      "d": 900,
      "v": 77
    },
    {
      "midi": 73,
      "hit": false,
      "t": 69900,
      "d": 300,
      "v": 83
    },
    {
      "midi": 79,
      "hit": false,
      "t": 69900,
      "d": 300,
      "v": 83
    },
    {
      "midi": 73,
      "hit": false,
      "t": 70200,
      "d": 300,
      "v": 76
    },
    {
      "midi": 79,
      "hit": false,
      "t": 70200,
      "d": 300,
      "v": 76
    },
    {
      "midi": 73,
      "hit": false,
      "t": 70500,
      "d": 600,
      "v": 72
    },
    {
      "midi": 79,
      "hit": false,
      "t": 70500,
      "d": 600,
      "v": 72
    },
    {
      "midi": 45,
      "hit": false,
      "t": 70500,
      "d": 300,
      "v": 77
    },
    {
      "midi": 45,
      "hit": false,
      "t": 70800,
      "d": 1200,
      "v": 76
    },
    {
      "midi": 73,
      "hit": false,
      "t": 71100,
      "d": 600,
      "v": 69
    },
    {
      "midi": 77,
      "hit": false,
      "t": 71100,
      "d": 600,
      "v": 69
    },
    {
      "midi": 73,
      "hit": false,
      "t": 71700,
      "d": 600,
      "v": 67
    },
    {
      "midi": 76,
      "hit": false,
      "t": 71700,
      "d": 600,
      "v": 67
    },
    {
      "midi": 45,
      "hit": false,
      "t": 72000,
      "d": 900,
      "v": 77
    },
    {
      "midi": 73,
      "hit": false,
      "t": 72300,
      "d": 300,
      "v": 78
    },
    {
      "midi": 76,
      "hit": false,
      "t": 72300,
      "d": 300,
      "v": 78
    },
    {
      "midi": 77,
      "hit": false,
      "t": 72600,
      "d": 300,
      "v": 78
    },
    {
      "midi": 73,
      "hit": false,
      "t": 72900,
      "d": 600,
      "v": 81
    },
    {
      "midi": 79,
      "hit": false,
      "t": 72900,
      "d": 600,
      "v": 81
    },
    {
      "midi": 45,
      "hit": false,
      "t": 72900,
      "d": 300,
      "v": 81
    },
    {
      "midi": 45,
      "hit": false,
      "t": 73200,
      "d": 1200,
      "v": 78
    },
    {
      "midi": 73,
      "hit": false,
      "t": 73500,
      "d": 300,
      "v": 74
    },
    {
      "midi": 77,
      "hit": false,
      "t": 73500,
      "d": 300,
      "v": 74
    },
    {
      "midi": 76,
      "hit": false,
      "t": 73800,
      "d": 600,
      "v": 72
    },
    {
      "midi": 74,
      "hit": false,
      "t": 74400,
      "d": 300,
      "v": 86
    },
    {
      "midi": 79,
      "hit": false,
      "t": 74400,
      "d": 300,
      "v": 86
    },
    {
      "midi": 50,
      "hit": false,
      "t": 74400,
      "d": 900,
      "v": 78
    },
    {
      "midi": 77,
      "hit": false,
      "t": 74700,
      "d": 300,
      "v": 71
    },
    {
      "midi": 76,
      "hit": false,
      "t": 75000,
      "d": 300,
      "v": 70
    },
    {
      "midi": 69,
      "hit": false,
      "t": 75300,
      "d": 1200,
      "v": 77
    },
    {
      "midi": 74,
      "hit": false,
      "t": 75300,
      "d": 1200,
      "v": 77
    },
    {
      "midi": 77,
      "hit": false,
      "t": 75300,
      "d": 1200,
      "v": 77
    },
    {
      "midi": 50,
      "hit": false,
      "t": 75300,
      "d": 300,
      "v": 80
    },
    {
      "midi": 50,
      "hit": false,
      "t": 75600,
      "d": 1200,
      "v": 73
    },
    {
      "midi": 50,
      "hit": false,
      "t": 76800,
      "d": 900,
      "v": 78
    },
    {
      "midi": 62,
      "hit": false,
      "t": 77100,
      "d": 300,
      "v": 60
    },
    {
      "midi": 64,
      "hit": false,
      "t": 77400,
      "d": 300,
      "v": 79
    },
    {
      "midi": 62,
      "hit": false,
      "t": 77700,
      "d": 600,
      "v": 79
    },
    {
      "midi": 65,
      "hit": false,
      "t": 77700,
      "d": 600,
      "v": 79
    },
    {
      "midi": 50,
      "hit": false,
      "t": 77700,
      "d": 300,
      "v": 70
    },
    {
      "midi": 50,
      "hit": false,
      "t": 78000,
      "d": 1200,
      "v": 77
    },
    {
      "midi": 62,
      "hit": false,
      "t": 78300,
      "d": 900,
      "v": 72
    },
    {
      "midi": 74,
      "hit": false,
      "t": 79200,
      "d": 300,
      "v": 98
    },
    {
      "midi": 79,
      "hit": false,
      "t": 79200,
      "d": 300,
      "v": 98
    },
    {
      "midi": 46,
      "hit": false,
      "t": 79200,
      "d": 900,
      "v": 73
    },
    {
      "midi": 74,
      "hit": false,
      "t": 79500,
      "d": 300,
      "v": 83
    },
    {
      "midi": 79,
      "hit": false,
      "t": 79500,
      "d": 300,
      "v": 83
    },
    {
      "midi": 74,
      "hit": false,
      "t": 79800,
      "d": 300,
      "v": 74
    },
    {
      "midi": 79,
      "hit": false,
      "t": 79800,
      "d": 300,
      "v": 74
    },
    {
      "midi": 74,
      "hit": false,
      "t": 80100,
      "d": 600,
      "v": 78
    },
    {
      "midi": 79,
      "hit": false,
      "t": 80100,
      "d": 600,
      "v": 78
    },
    {
      "midi": 46,
      "hit": false,
      "t": 80100,
      "d": 300,
      "v": 75
    },
    {
      "midi": 46,
      "hit": false,
      "t": 80400,
      "d": 1200,
      "v": 73
    },
    {
      "midi": 74,
      "hit": false,
      "t": 80700,
      "d": 600,
      "v": 71
    },
    {
      "midi": 77,
      "hit": false,
      "t": 80700,
      "d": 600,
      "v": 71
    },
    {
      "midi": 74,
      "hit": false,
      "t": 81300,
      "d": 1800,
      "v": 78
    },
    {
      "midi": 77,
      "hit": false,
      "t": 81300,
      "d": 1800,
      "v": 78
    },
    {
      "midi": 46,
      "hit": false,
      "t": 81600,
      "d": 900,
      "v": 77
    },
    {
      "midi": 46,
      "hit": false,
      "t": 82500,
      "d": 300,
      "v": 78
    },
    {
      "midi": 46,
      "hit": false,
      "t": 82800,
      "d": 1200,
      "v": 76
    },
    {
      "midi": 65,
      "hit": false,
      "t": 83100,
      "d": 900,
      "v": 54
    },
    {
      "midi": 74,
      "hit": false,
      "t": 84000,
      "d": 300,
      "v": 94
    },
    {
      "midi": 79,
      "hit": false,
      "t": 84000,
      "d": 300,
      "v": 94
    },
    {
      "midi": 45,
      "hit": false,
      "t": 84000,
      "d": 900,
      "v": 71
    },
    {
      "midi": 74,
      "hit": false,
      "t": 84300,
      "d": 300,
      "v": 74
    },
    {
      "midi": 79,
      "hit": false,
      "t": 84300,
      "d": 300,
      "v": 74
    },
    {
      "midi": 74,
      "hit": false,
      "t": 84600,
      "d": 300,
      "v": 78
    },
    {
      "midi": 79,
      "hit": false,
      "t": 84600,
      "d": 300,
      "v": 78
    },
    {
      "midi": 74,
      "hit": false,
      "t": 84900,
      "d": 600,
      "v": 73
    },
    {
      "midi": 79,
      "hit": false,
      "t": 84900,
      "d": 600,
      "v": 73
    },
    {
      "midi": 45,
      "hit": false,
      "t": 84900,
      "d": 300,
      "v": 74
    },
    {
      "midi": 45,
      "hit": false,
      "t": 85200,
      "d": 1200,
      "v": 78
    },
    {
      "midi": 74,
      "hit": false,
      "t": 85500,
      "d": 600,
      "v": 67
    },
    {
      "midi": 77,
      "hit": false,
      "t": 85500,
      "d": 600,
      "v": 67
    },
    {
      "midi": 74,
      "hit": false,
      "t": 86100,
      "d": 1200,
      "v": 76
    },
    {
      "midi": 77,
      "hit": false,
      "t": 86100,
      "d": 1200,
      "v": 76
    },
    {
      "midi": 45,
      "hit": false,
      "t": 86400,
      "d": 900,
      "v": 78
    },
    {
      "midi": 62,
      "hit": false,
      "t": 87300,
      "d": 600,
      "v": 52
    },
    {
      "midi": 64,
      "hit": false,
      "t": 87300,
      "d": 600,
      "v": 52
    },
    {
      "midi": 45,
      "hit": false,
      "t": 87300,
      "d": 300,
      "v": 74
    },
    {
      "midi": 45,
      "hit": false,
      "t": 87600,
      "d": 1200,
      "v": 76
    },
    {
      "midi": 62,
      "hit": false,
      "t": 87900,
      "d": 900,
      "v": 81
    },
    {
      "midi": 65,
      "hit": false,
      "t": 87900,
      "d": 900,
      "v": 81
    },
    {
      "midi": 74,
      "hit": false,
      "t": 88800,
      "d": 300,
      "v": 100
    },
    {
      "midi": 79,
      "hit": false,
      "t": 88800,
      "d": 300,
      "v": 100
    },
    {
      "midi": 47,
      "hit": false,
      "t": 88800,
      "d": 900,
      "v": 82
    },
    {
      "midi": 74,
      "hit": false,
      "t": 89100,
      "d": 300,
      "v": 77
    },
    {
      "midi": 79,
      "hit": false,
      "t": 89100,
      "d": 300,
      "v": 77
    },
    {
      "midi": 74,
      "hit": false,
      "t": 89400,
      "d": 300,
      "v": 75
    },
    {
      "midi": 79,
      "hit": false,
      "t": 89400,
      "d": 300,
      "v": 75
    },
    {
      "midi": 74,
      "hit": false,
      "t": 89700,
      "d": 600,
      "v": 74
    },
    {
      "midi": 79,
      "hit": false,
      "t": 89700,
      "d": 600,
      "v": 74
    },
    {
      "midi": 47,
      "hit": false,
      "t": 89700,
      "d": 300,
      "v": 77
    },
    {
      "midi": 47,
      "hit": false,
      "t": 90000,
      "d": 1200,
      "v": 73
    },
    {
      "midi": 74,
      "hit": false,
      "t": 90300,
      "d": 900,
      "v": 71
    },
    {
      "midi": 77,
      "hit": false,
      "t": 90300,
      "d": 900,
      "v": 71
    },
    {
      "midi": 68,
      "hit": false,
      "t": 91200,
      "d": 300,
      "v": 68
    },
    {
      "midi": 76,
      "hit": false,
      "t": 91200,
      "d": 300,
      "v": 68
    },
    {
      "midi": 52,
      "hit": false,
      "t": 91200,
      "d": 900,
      "v": 81
    },
    {
      "midi": 68,
      "hit": false,
      "t": 91500,
      "d": 300,
      "v": 77
    },
    {
      "midi": 76,
      "hit": false,
      "t": 91500,
      "d": 300,
      "v": 77
    },
    {
      "midi": 68,
      "hit": false,
      "t": 91800,
      "d": 300,
      "v": 80
    },
    {
      "midi": 76,
      "hit": false,
      "t": 91800,
      "d": 300,
      "v": 80
    },
    {
      "midi": 68,
      "hit": false,
      "t": 92100,
      "d": 600,
      "v": 77
    },
    {
      "midi": 76,
      "hit": false,
      "t": 92100,
      "d": 600,
      "v": 77
    },
    {
      "midi": 52,
      "hit": false,
      "t": 92100,
      "d": 300,
      "v": 78
    },
    {
      "midi": 52,
      "hit": false,
      "t": 92400,
      "d": 1200,
      "v": 75
    },
    {
      "midi": 68,
      "hit": false,
      "t": 92700,
      "d": 900,
      "v": 72
    },
    {
      "midi": 74,
      "hit": false,
      "t": 92700,
      "d": 900,
      "v": 72
    },
    {
      "midi": 69,
      "hit": false,
      "t": 93600,
      "d": 300,
      "v": 78
    },
    {
      "midi": 74,
      "hit": false,
      "t": 93600,
      "d": 300,
      "v": 78
    },
    {
      "midi": 53,
      "hit": false,
      "t": 93600,
      "d": 900,
      "v": 75
    },
    {
      "midi": 69,
      "hit": false,
      "t": 93900,
      "d": 300,
      "v": 78
    },
    {
      "midi": 74,
      "hit": false,
      "t": 93900,
      "d": 300,
      "v": 78
    },
    {
      "midi": 69,
      "hit": false,
      "t": 94200,
      "d": 300,
      "v": 78
    },
    {
      "midi": 74,
      "hit": false,
      "t": 94200,
      "d": 300,
      "v": 78
    },
    {
      "midi": 69,
      "hit": false,
      "t": 94500,
      "d": 600,
      "v": 74
    },
    {
      "midi": 74,
      "hit": false,
      "t": 94500,
      "d": 600,
      "v": 74
    },
    {
      "midi": 53,
      "hit": false,
      "t": 94500,
      "d": 300,
      "v": 74
    },
    {
      "midi": 53,
      "hit": false,
      "t": 94800,
      "d": 1200,
      "v": 78
    },
    {
      "midi": 69,
      "hit": false,
      "t": 95100,
      "d": 900,
      "v": 72
    },
    {
      "midi": 72,
      "hit": false,
      "t": 95100,
      "d": 900,
      "v": 72
    },
    {
      "midi": 70,
      "hit": false,
      "t": 96000,
      "d": 300,
      "v": 87
    },
    {
      "midi": 79,
      "hit": false,
      "t": 96000,
      "d": 300,
      "v": 87
    },
    {
      "midi": 51,
      "hit": false,
      "t": 96000,
      "d": 900,
      "v": 74
    },
    {
      "midi": 70,
      "hit": false,
      "t": 96300,
      "d": 300,
      "v": 77
    },
    {
      "midi": 79,
      "hit": false,
      "t": 96300,
      "d": 300,
      "v": 77
    },
    {
      "midi": 70,
      "hit": false,
      "t": 96600,
      "d": 300,
      "v": 79
    },
    {
      "midi": 79,
      "hit": false,
      "t": 96600,
      "d": 300,
      "v": 79
    },
    {
      "midi": 71,
      "hit": false,
      "t": 96900,
      "d": 600,
      "v": 69
    },
    {
      "midi": 79,
      "hit": false,
      "t": 96900,
      "d": 600,
      "v": 69
    },
    {
      "midi": 50,
      "hit": false,
      "t": 96900,
      "d": 1200,
      "v": 76
    },
    {
      "midi": 71,
      "hit": false,
      "t": 97500,
      "d": 900,
      "v": 72
    },
    {
      "midi": 77,
      "hit": false,
      "t": 97500,
      "d": 900,
      "v": 72
    },
    {
      "midi": 60,
      "hit": false,
      "t": 98400,
      "d": 2400,
      "v": 57
    },
    {
      "midi": 64,
      "hit": false,
      "t": 98400,
      "d": 2400,
      "v": 57
    },
    {
      "midi": 48,
      "hit": false,
      "t": 98400,
      "d": 900,
      "v": 71
    },
    {
      "midi": 55,
      "hit": false,
      "t": 98400,
      "d": 900,
      "v": 81
    },
    {
      "midi": 48,
      "hit": false,
      "t": 99300,
      "d": 300,
      "v": 75
    },
    {
      "midi": 48,
      "hit": false,
      "t": 99600,
      "d": 1200,
      "v": 75
    },
    {
      "midi": 48,
      "hit": false,
      "t": 100800,
      "d": 900,
      "v": 74
    },
    {
      "midi": 64,
      "hit": false,
      "t": 101100,
      "d": 300,
      "v": 75
    },
    {
      "midi": 65,
      "hit": false,
      "t": 101400,
      "d": 300,
      "v": 77
    },
    {
      "midi": 67,
      "hit": false,
      "t": 101700,
      "d": 600,
      "v": 83
    },
    {
      "midi": 48,
      "hit": false,
      "t": 101700,
      "d": 300,
      "v": 73
    },
    {
      "midi": 48,
      "hit": false,
      "t": 102000,
      "d": 1200,
      "v": 73
    },
    {
      "midi": 64,
      "hit": false,
      "t": 102300,
      "d": 300,
      "v": 70
    },
    {
      "midi": 60,
      "hit": false,
      "t": 102600,
      "d": 600,
      "v": 68
    },
    {
      "midi": 64,
      "hit": false,
      "t": 103200,
      "d": 900,
      "v": 80
    },
    {
      "midi": 47,
      "hit": false,
      "t": 103200,
      "d": 900,
      "v": 74
    },
    {
      "midi": 55,
      "hit": false,
      "t": 103200,
      "d": 900,
      "v": 79
    },
    {
      "midi": 62,
      "hit": false,
      "t": 104100,
      "d": 1200,
      "v": 73
    },
    {
      "midi": 47,
      "hit": false,
      "t": 104100,
      "d": 300,
      "v": 76
    },
    {
      "midi": 47,
      "hit": false,
      "t": 104400,
      "d": 1200,
      "v": 77
    },
    {
      "midi": 47,
      "hit": false,
      "t": 105600,
      "d": 900,
      "v": 80
    },
    {
      "midi": 55,
      "hit": false,
      "t": 105600,
      "d": 900,
      "v": 80
    },
    {
      "midi": 62,
      "hit": false,
      "t": 105900,
      "d": 300,
      "v": 67
    },
    {
      "midi": 64,
      "hit": false,
      "t": 106200,
      "d": 300,
      "v": 78
    },
    {
      "midi": 65,
      "hit": false,
      "t": 106500,
      "d": 600,
      "v": 77
    },
    {
      "midi": 47,
      "hit": false,
      "t": 106500,
      "d": 300,
      "v": 70
    },
    {
      "midi": 47,
      "hit": false,
      "t": 106800,
      "d": 1200,
      "v": 78
    },
    {
      "midi": 64,
      "hit": false,
      "t": 107100,
      "d": 300,
      "v": 76
    },
    {
      "midi": 62,
      "hit": false,
      "t": 107400,
      "d": 600,
      "v": 75
    },
    {
      "midi": 62,
      "hit": false,
      "t": 108000,
      "d": 2400,
      "v": 71
    },
    {
      "midi": 46,
      "hit": false,
      "t": 108000,
      "d": 900,
      "v": 83
    },
    {
      "midi": 53,
      "hit": false,
      "t": 108000,
      "d": 900,
      "v": 83
    },
    {
      "midi": 46,
      "hit": false,
      "t": 108900,
      "d": 300,
      "v": 69
    },
    {
      "midi": 46,
      "hit": false,
      "t": 109200,
      "d": 1200,
      "v": 78
    },
    {
      "midi": 46,
      "hit": false,
      "t": 110400,
      "d": 900,
      "v": 84
    },
    {
      "midi": 53,
      "hit": false,
      "t": 110400,
      "d": 900,
      "v": 84
    },
    {
      "midi": 62,
      "hit": false,
      "t": 110700,
      "d": 300,
      "v": 68
    },
    {
      "midi": 64,
      "hit": false,
      "t": 111000,
      "d": 300,
      "v": 82
    },
    {
      "midi": 65,
      "hit": false,
      "t": 111300,
      "d": 600,
      "v": 80
    },
    {
      "midi": 46,
      "hit": false,
      "t": 111300,
      "d": 300,
      "v": 74
    },
    {
      "midi": 46,
      "hit": false,
      "t": 111600,
      "d": 1200,
      "v": 80
    },
    {
      "midi": 64,
      "hit": false,
      "t": 111900,
      "d": 300,
      "v": 74
    },
    {
      "midi": 62,
      "hit": false,
      "t": 112200,
      "d": 600,
      "v": 72
    },
    {
      "midi": 58,
      "hit": false,
      "t": 112800,
      "d": 900,
      "v": 74
    },
    {
      "midi": 62,
      "hit": false,
      "t": 112800,
      "d": 900,
      "v": 74
    },
    {
      "midi": 41,
      "hit": false,
      "t": 112800,
      "d": 900,
      "v": 70
    },
    {
      "midi": 57,
      "hit": false,
      "t": 113700,
      "d": 2400,
      "v": 72
    },
    {
      "midi": 60,
      "hit": false,
      "t": 113700,
      "d": 2400,
      "v": 72
    },
    {
      "midi": 41,
      "hit": false,
      "t": 113700,
      "d": 300,
      "v": 74
    },
    {
      "midi": 41,
      "hit": false,
      "t": 114000,
      "d": 1200,
      "v": 74
    },
    {
      "midi": 41,
      "hit": false,
      "t": 115200,
      "d": 900,
      "v": 82
    },
    {
      "midi": 41,
      "hit": false,
      "t": 116100,
      "d": 300,
      "v": 81
    },
    {
      "midi": 65,
      "hit": false,
      "t": 116400,
      "d": 600,
      "v": 93
    },
    {
      "midi": 69,
      "hit": false,
      "t": 116400,
      "d": 600,
      "v": 93
    },
    {
      "midi": 41,
      "hit": false,
      "t": 116400,
      "d": 1200,
      "v": 79
    },
    {
      "midi": 65,
      "hit": false,
      "t": 117000,
      "d": 600,
      "v": 79
    },
    {
      "midi": 69,
      "hit": false,
      "t": 117000,
      "d": 600,
      "v": 79
    },
    {
      "midi": 60,
      "hit": false,
      "t": 117600,
      "d": 3600,
      "v": 62
    },
    {
      "midi": 64,
      "hit": false,
      "t": 117600,
      "d": 3600,
      "v": 62
    },
    {
      "midi": 48,
      "hit": false,
      "t": 117600,
      "d": 900,
      "v": 82
    },
    {
      "midi": 55,
      "hit": false,
      "t": 117600,
      "d": 900,
      "v": 85
    },
    {
      "midi": 48,
      "hit": false,
      "t": 118500,
      "d": 300,
      "v": 75
    },
    {
      "midi": 48,
      "hit": false,
      "t": 118800,
      "d": 1200,
      "v": 75
    },
    {
      "midi": 48,
      "hit": false,
      "t": 120000,
      "d": 900,
      "v": 63
    },
    {
      "midi": 48,
      "hit": false,
      "t": 120900,
      "d": 300,
      "v": 79
    },
    {
      "midi": 48,
      "hit": false,
      "t": 121200,
      "d": 1200,
      "v": 78
    },
    {
      "midi": 60,
      "hit": false,
      "t": 121800,
      "d": 600,
      "v": 75
    },
    {
      "midi": 64,
      "hit": false,
      "t": 121800,
      "d": 600,
      "v": 75
    },
    {
      "midi": 62,
      "hit": false,
      "t": 122400,
      "d": 3600,
      "v": 71
    },
    {
      "midi": 47,
      "hit": false,
      "t": 122400,
      "d": 900,
      "v": 74
    },
    {
      "midi": 55,
      "hit": false,
      "t": 122400,
      "d": 900,
      "v": 82
    },
    {
      "midi": 47,
      "hit": false,
      "t": 123300,
      "d": 300,
      "v": 74
    },
    {
      "midi": 47,
      "hit": false,
      "t": 123600,
      "d": 1200,
      "v": 76
    },
    {
      "midi": 47,
      "hit": false,
      "t": 124800,
      "d": 900,
      "v": 77
    },
    {
      "midi": 55,
      "hit": false,
      "t": 124800,
      "d": 900,
      "v": 77
    },
    {
      "midi": 47,
      "hit": false,
      "t": 125700,
      "d": 300,
      "v": 68
    },
    {
      "midi": 47,
      "hit": false,
      "t": 126000,
      "d": 1200,
      "v": 71
    },
    {
      "midi": 62,
      "hit": false,
      "t": 126600,
      "d": 600,
      "v": 81
    },
    {
      "midi": 62,
      "hit": false,
      "t": 127200,
      "d": 3600,
      "v": 79
    },
    {
      "midi": 46,
      "hit": false,
      "t": 127200,
      "d": 900,
      "v": 81
    },
    {
      "midi": 53,
      "hit": false,
      "t": 127200,
      "d": 900,
      "v": 81
    },
    {
      "midi": 46,
      "hit": false,
      "t": 128100,
      "d": 300,
      "v": 70
    },
    {
      "midi": 46,
      "hit": false,
      "t": 128400,
      "d": 1200,
      "v": 76
    },
    {
      "midi": 46,
      "hit": false,
      "t": 129600,
      "d": 900,
      "v": 86
    },
    {
      "midi": 53,
      "hit": false,
      "t": 129600,
      "d": 900,
      "v": 86
    },
    {
      "midi": 46,
      "hit": false,
      "t": 130500,
      "d": 300,
      "v": 66
    },
    {
      "midi": 46,
      "hit": false,
      "t": 130800,
      "d": 1200,
      "v": 79
    },
    {
      "midi": 58,
      "hit": false,
      "t": 131400,
      "d": 600,
      "v": 76
    },
    {
      "midi": 62,
      "hit": false,
      "t": 131400,
      "d": 600,
      "v": 76
    },
    {
      "midi": 57,
      "hit": false,
      "t": 132000,
      "d": 4800,
      "v": 73
    },
    {
      "midi": 60,
      "hit": false,
      "t": 132000,
      "d": 4800,
      "v": 73
    },
    {
      "midi": 41,
      "hit": false,
      "t": 132000,
      "d": 900,
      "v": 72
    },
    {
      "midi": 41,
      "hit": false,
      "t": 132900,
      "d": 300,
      "v": 75
    },
    {
      "midi": 41,
      "hit": false,
      "t": 133200,
      "d": 1200,
      "v": 81
    },
    {
      "midi": 41,
      "hit": false,
      "t": 134400,
      "d": 900,
      "v": 75
    },
    {
      "midi": 41,
      "hit": false,
      "t": 135300,
      "d": 300,
      "v": 79
    },
    {
      "midi": 41,
      "hit": false,
      "t": 135600,
      "d": 1200,
      "v": 78
    },
    {
      "midi": 57,
      "hit": false,
      "t": 136800,
      "d": 4800,
      "v": 72
    },
    {
      "midi": 60,
      "hit": false,
      "t": 136800,
      "d": 4800,
      "v": 72
    },
    {
      "midi": 41,
      "hit": false,
      "t": 136800,
      "d": 900,
      "v": 76
    },
    {
      "midi": 41,
      "hit": false,
      "t": 137700,
      "d": 300,
      "v": 72
    },
    {
      "midi": 41,
      "hit": false,
      "t": 138000,
      "d": 1200,
      "v": 72
    },
    {
      "midi": 41,
      "hit": false,
      "t": 139200,
      "d": 900,
      "v": 77
    },
    {
      "midi": 41,
      "hit": false,
      "t": 140100,
      "d": 300,
      "v": 77
    },
    {
      "midi": 41,
      "hit": false,
      "t": 140400,
      "d": 1200,
      "v": 76
    },
    {
      "midi": 57,
      "hit": false,
      "t": 141600,
      "d": 4800,
      "v": 80
    },
    {
      "midi": 60,
      "hit": false,
      "t": 141600,
      "d": 4800,
      "v": 80
    },
    {
      "midi": 41,
      "hit": false,
      "t": 141600,
      "d": 4800,
      "v": 76
    }
  ]
}