{
  "jsonPath": "Pop/Dance Pop/Basshunter/the-beat.json",
  "path": "Pop\\Dance Pop\\Basshunter\\The Beat.mid",
  "name": "The Beat",
  "difficulty": "Advanced",
  "bpm": 230.0084336425669,
  "notes": [
    {
      "midi": 84,
      "hit": false,
      "t": 9548.562916666666,
      "d": 48.91124999999738,
      "v": 65
    },
    {
      "midi": 96,
      "hit": false,
      "t": 9556.714791666665,
      "d": 46.19395833332965,
      "v": 53
    },
    {
      "midi": 64,
      "hit": false,
      "t": 9562.149374999999,
      "d": 35.32479166666417,
      "v": 81
    },
    {
      "midi": 69,
      "hit": false,
      "t": 9570.301249999999,
      "d": 29.89020833333052,
      "v": 64
    },
    {
      "midi": 58,
      "hit": false,
      "t": 9578.453124999998,
      "d": 16.303749999999127,
      "v": 62
    },
    {
      "midi": 64,
      "hit": false,
      "t": 10600.154791666662,
      "d": 35.32479166666599,
      "v": 62
    },
    {
      "midi": 58,
      "hit": false,
      "t": 10608.306666666662,
      "d": 29.89020833333234,
      "v": 80
    },
    {
      "midi": 62,
      "hit": false,
      "t": 10613.741249999995,
      "d": 24.45562499999869,
      "v": 57
    },
    {
      "midi": 56,
      "hit": false,
      "t": 12719.64229166666,
      "d": 823.3393749999996,
      "v": 43
    },
    {
      "midi": 67,
      "hit": false,
      "t": 12725.076874999993,
      "d": 798.883749999999,
      "v": 38
    },
    {
      "midi": 62,
      "hit": false,
      "t": 12760.40166666666,
      "d": 774.4281250000004,
      "v": 65
    },
    {
      "midi": 66,
      "hit": false,
      "t": 14510.337499999992,
      "d": 51.628541666663295,
      "v": 72
    },
    {
      "midi": 84,
      "hit": false,
      "t": 14518.489374999992,
      "d": 57.063124999996944,
      "v": 64
    },
    {
      "midi": 61,
      "hit": false,
      "t": 14526.641249999991,
      "d": 32.607499999998254,
      "v": 76
    },
    {
      "midi": 55,
      "hit": false,
      "t": 14532.075833333325,
      "d": 24.45562499999869,
      "v": 64
    },
    {
      "midi": 72,
      "hit": false,
      "t": 14540.227708333325,
      "d": 29.89020833333052,
      "v": 39
    },
    {
      "midi": 86,
      "hit": false,
      "t": 15287.482916666655,
      "d": 51.628541666665114,
      "v": 72
    },
    {
      "midi": 74,
      "hit": false,
      "t": 15295.634791666655,
      "d": 43.47666666666555,
      "v": 70
    },
    {
      "midi": 65,
      "hit": false,
      "t": 15301.069374999988,
      "d": 21.738333333332776,
      "v": 58
    },
    {
      "midi": 60,
      "hit": false,
      "t": 15309.221249999988,
      "d": 19.02104166666686,
      "v": 58
    },
    {
      "midi": 54,
      "hit": false,
      "t": 15317.373124999987,
      "d": 13.586458333333212,
      "v": 51
    },
    {
      "midi": 66,
      "hit": false,
      "t": 15820.07208333332,
      "d": 826.0566666666655,
      "v": 56
    },
    {
      "midi": 57,
      "hit": false,
      "t": 15828.22395833332,
      "d": 836.9258333333328,
      "v": 49
    },
    {
      "midi": 62,
      "hit": false,
      "t": 15833.658541666653,
      "d": 820.6220833333318,
      "v": 67
    },
    {
      "midi": 62,
      "hit": false,
      "t": 17613.48458333332,
      "d": 48.91125000000102,
      "v": 71
    },
    {
      "midi": 79,
      "hit": false,
      "t": 17621.63645833332,
      "d": 46.193958333333285,
      "v": 76
    },
    {
      "midi": 67,
      "hit": false,
      "t": 17629.78833333332,
      "d": 27.172916666666424,
      "v": 58
    },
    {
      "midi": 84,
      "hit": false,
      "t": 17637.94020833332,
      "d": 32.60750000000189,
      "v": 68
    },
    {
      "midi": 72,
      "hit": false,
      "t": 17643.37479166665,
      "d": 27.172916666670062,
      "v": 60
    },
    {
      "midi": 56,
      "hit": false,
      "t": 17654.243958333318,
      "d": 5.434583333335468,
      "v": 51
    },
    {
      "midi": 83,
      "hit": false,
      "t": 18491.169791666653,
      "d": 399.4418750000041,
      "v": 51
    },
    {
      "midi": 73,
      "hit": false,
      "t": 18496.604374999984,
      "d": 312.48854166666933,
      "v": 49
    },
    {
      "midi": 66,
      "hit": false,
      "t": 18504.756249999984,
      "d": 317.9231250000048,
      "v": 61
    },
    {
      "midi": 78,
      "hit": false,
      "t": 18512.908124999984,
      "d": 86.95333333333474,
      "v": 71
    },
    {
      "midi": 61,
      "hit": false,
      "t": 18521.059999999983,
      "d": 312.488541666673,
      "v": 72
    },
    {
      "midi": 55,
      "hit": false,
      "t": 18523.77729166665,
      "d": 320.64041666667254,
      "v": 52
    },
    {
      "midi": 77,
      "hit": false,
      "t": 18771.05083333332,
      "d": 84.23604166667064,
      "v": 44
    },
    {
      "midi": 65,
      "hit": false,
      "t": 18944.95749999999,
      "d": 671.1710416666683,
      "v": 60
    },
    {
      "midi": 60,
      "hit": false,
      "t": 18944.95749999999,
      "d": 698.3439583333347,
      "v": 52
    },
    {
      "midi": 54,
      "hit": false,
      "t": 18944.95749999999,
      "d": 717.3650000000016,
      "v": 55
    },
    {
      "midi": 76,
      "hit": false,
      "t": 18944.95749999999,
      "d": 913.010000000002,
      "v": 60
    },
    {
      "midi": 83,
      "hit": false,
      "t": 18944.95749999999,
      "d": 913.010000000002,
      "v": 65
    },
    {
      "midi": 59,
      "hit": false,
      "t": 19958.507291666658,
      "d": 877.685208333336,
      "v": 62
    },
    {
      "midi": 53,
      "hit": false,
      "t": 19972.093749999993,
      "d": 869.5333333333328,
      "v": 50
    },
    {
      "midi": 64,
      "hit": false,
      "t": 19980.245624999992,
      "d": 872.2506250000006,
      "v": 41
    },
    {
      "midi": 56,
      "hit": false,
      "t": 21817.13479166666,
      "d": 54.34583333332921,
      "v": 85
    },
    {
      "midi": 67,
      "hit": false,
      "t": 21822.569374999992,
      "d": 43.47666666666555,
      "v": 60
    },
    {
      "midi": 62,
      "hit": false,
      "t": 21830.72124999999,
      "d": 27.172916666666424,
      "v": 73
    },
    {
      "midi": 66,
      "hit": false,
      "t": 22077.994791666657,
      "d": 747.2552083333321,
      "v": 75
    },
    {
      "midi": 55,
      "hit": false,
      "t": 22086.146666666657,
      "d": 782.5799999999981,
      "v": 62
    },
    {
      "midi": 61,
      "hit": false,
      "t": 22094.298541666656,
      "d": 749.9724999999999,
      "v": 87
    },
    {
      "midi": 92,
      "hit": false,
      "t": 23884.993749999987,
      "d": 48.91124999999738,
      "v": 73
    },
    {
      "midi": 80,
      "hit": false,
      "t": 23893.145624999986,
      "d": 35.32479166666599,
      "v": 71
    },
    {
      "midi": 54,
      "hit": false,
      "t": 23901.297499999986,
      "d": 35.32479166666599,
      "v": 77
    },
    {
      "midi": 65,
      "hit": false,
      "t": 23906.732083333318,
      "d": 21.738333333334594,
      "v": 54
    },
    {
      "midi": 60,
      "hit": false,
      "t": 23914.883958333317,
      "d": 10.869166666667297,
      "v": 59
    },
    {
      "midi": 64,
      "hit": false,
      "t": 24423.017499999984,
      "d": 24.45562499999869,
      "v": 50
    },
    {
      "midi": 59,
      "hit": false,
      "t": 24423.017499999984,
      "d": 43.47666666666555,
      "v": 60
    },
    {
      "midi": 53,
      "hit": false,
      "t": 24423.017499999984,
      "d": 46.193958333333285,
      "v": 54
    },
    {
      "midi": 86,
      "hit": false,
      "t": 25727.317499999983,
      "d": 40.75937499999782,
      "v": 68
    },
    {
      "midi": 63,
      "hit": false,
      "t": 25732.752083333315,
      "d": 38.04208333333372,
      "v": 68
    },
    {
      "midi": 67,
      "hit": false,
      "t": 25740.903958333314,
      "d": 24.45562499999869,
      "v": 57
    },
    {
      "midi": 83,
      "hit": false,
      "t": 25749.055833333314,
      "d": 5.43458333333183,
      "v": 46
    },
    {
      "midi": 82,
      "hit": false,
      "t": 26768.040208333314,
      "d": 40.75937499999782,
      "v": 74
    },
    {
      "midi": 91,
      "hit": false,
      "t": 26776.192083333313,
      "d": 35.32479166666599,
      "v": 57
    },
    {
      "midi": 74,
      "hit": false,
      "t": 26784.343958333313,
      "d": 29.890208333334158,
      "v": 58
    },
    {
      "midi": 82,
      "hit": false,
      "t": 27303.346666666646,
      "d": 35.32479166666599,
      "v": 75
    },
    {
      "midi": 74,
      "hit": false,
      "t": 27308.781249999978,
      "d": 27.172916666666424,
      "v": 58
    },
    {
      "midi": 91,
      "hit": false,
      "t": 27316.933124999978,
      "d": 24.45562500000233,
      "v": 48
    },
    {
      "midi": 74,
      "hit": false,
      "t": 27814.19749999998,
      "d": 21.738333333330957,
      "v": 57
    },
    {
      "midi": 82,
      "hit": false,
      "t": 27819.632083333312,
      "d": 29.890208333334158,
      "v": 69
    },
    {
      "midi": 91,
      "hit": false,
      "t": 27827.78395833331,
      "d": 24.45562500000233,
      "v": 62
    },
    {
      "midi": 68,
      "hit": false,
      "t": 28857.63749999998,
      "d": 32.607499999998254,
      "v": 71
    },
    {
      "midi": 47,
      "hit": false,
      "t": 28865.78937499998,
      "d": 19.021041666663223,
      "v": 62
    },
    {
      "midi": 63,
      "hit": false,
      "t": 28871.22395833331,
      "d": 16.303749999999127,
      "v": 71
    },
    {
      "midi": 57,
      "hit": false,
      "t": 28879.37583333331,
      "d": 13.586458333335031,
      "v": 70
    },
    {
      "midi": 62,
      "hit": false,
      "t": 30161.937499999978,
      "d": 21.738333333334594,
      "v": 83
    },
    {
      "midi": 67,
      "hit": false,
      "t": 30161.937499999978,
      "d": 21.738333333334594,
      "v": 83
    },
    {
      "midi": 68,
      "hit": false,
      "t": 30161.937499999978,
      "d": 32.60750000000189,
      "v": 81
    },
    {
      "midi": 56,
      "hit": false,
      "t": 30161.937499999978,
      "d": 38.04208333333372,
      "v": 93
    },
    {
      "midi": 87,
      "hit": false,
      "t": 30422.79749999998,
      "d": 46.193958333333285,
      "v": 53
    },
    {
      "midi": 55,
      "hit": false,
      "t": 30422.79749999998,
      "d": 48.91125000000102,
      "v": 76
    },
    {
      "midi": 61,
      "hit": false,
      "t": 30422.79749999998,
      "d": 54.34583333333285,
      "v": 75
    },
    {
      "midi": 66,
      "hit": false,
      "t": 30422.79749999998,
      "d": 73.36687499999971,
      "v": 77
    },
    {
      "midi": 60,
      "hit": false,
      "t": 30528.771874999977,
      "d": 35.32479166666599,
      "v": 50
    },
    {
      "midi": 98,
      "hit": false,
      "t": 32246.100208333308,
      "d": 290.7502083333311,
      "v": 72
    },
    {
      "midi": 86,
      "hit": false,
      "t": 32254.252083333307,
      "d": 279.8810416666638,
      "v": 65
    },
    {
      "midi": 54,
      "hit": false,
      "t": 32262.403958333307,
      "d": 260.85999999999694,
      "v": 68
    },
    {
      "midi": 60,
      "hit": false,
      "t": 32267.83854166664,
      "d": 260.8600000000006,
      "v": 62
    },
    {
      "midi": 65,
      "hit": false,
      "t": 32275.99041666664,
      "d": 249.99083333333328,
      "v": 55
    },
    {
      "midi": 57,
      "hit": false,
      "t": 32607.49999999997,
      "d": 516.2854166666657,
      "v": 37
    },
    {
      "midi": 61,
      "hit": false,
      "t": 32607.49999999997,
      "d": 516.2854166666657,
      "v": 58
    },
    {
      "midi": 62,
      "hit": false,
      "t": 32607.49999999997,
      "d": 516.2854166666657,
      "v": 42
    },
    {
      "midi": 66,
      "hit": false,
      "t": 32607.49999999997,
      "d": 516.2854166666657,
      "v": 57
    },
    {
      "midi": 56,
      "hit": false,
      "t": 33857.454166666634,
      "d": 627.6943750000064,
      "v": 80
    },
    {
      "midi": 62,
      "hit": false,
      "t": 33862.88874999997,
      "d": 584.2177083333372,
      "v": 68
    },
    {
      "midi": 67,
      "hit": false,
      "t": 33871.04062499997,
      "d": 557.0447916666672,
      "v": 61
    },
    {
      "midi": 69,
      "hit": false,
      "t": 35205.230833333306,
      "d": 86.95333333334565,
      "v": 64
    },
    {
      "midi": 61,
      "hit": false,
      "t": 35213.38270833331,
      "d": 76.08416666667472,
      "v": 70
    },
    {
      "midi": 55,
      "hit": false,
      "t": 35218.817291666644,
      "d": 84.23604166667064,
      "v": 45
    },
    {
      "midi": 65,
      "hit": false,
      "t": 35226.96916666665,
      "d": 62.49770833333605,
      "v": 52
    },
    {
      "midi": 65,
      "hit": false,
      "t": 36235.084374999984,
      "d": 152.16833333333489,
      "v": 64
    },
    {
      "midi": 77,
      "hit": false,
      "t": 36243.23624999999,
      "d": 130.4300000000003,
      "v": 69
    },
    {
      "midi": 72,
      "hit": false,
      "t": 36251.38812499999,
      "d": 184.77583333332586,
      "v": 77
    },
    {
      "midi": 75,
      "hit": false,
      "t": 36422.577499999985,
      "d": 43.47666666666191,
      "v": 95
    },
    {
      "midi": 53,
      "hit": false,
      "t": 36683.43749999998,
      "d": 899.4235416666634,
      "v": 47
    },
    {
      "midi": 59,
      "hit": false,
      "t": 36683.43749999998,
      "d": 899.4235416666634,
      "v": 64
    },
    {
      "midi": 64,
      "hit": false,
      "t": 36683.43749999998,
      "d": 899.4235416666634,
      "v": 47
    },
    {
      "midi": 74,
      "hit": false,
      "t": 36683.43749999998,
      "d": 899.4235416666634,
      "v": 69
    },
    {
      "midi": 50,
      "hit": false,
      "t": 39028.46020833331,
      "d": 198.3622916666718,
      "v": 89
    },
    {
      "midi": 38,
      "hit": false,
      "t": 39031.177499999976,
      "d": 192.92770833333634,
      "v": 105
    },
    {
      "midi": 48,
      "hit": false,
      "t": 39036.61208333331,
      "d": 5.434583333335468,
      "v": 78
    },
    {
      "midi": 50,
      "hit": false,
      "t": 39384.42541666664,
      "d": 374.98624999999447,
      "v": 105
    },
    {
      "midi": 38,
      "hit": false,
      "t": 39387.14270833331,
      "d": 372.26895833332674,
      "v": 109
    },
    {
      "midi": 82,
      "hit": false,
      "t": 39547.46291666664,
      "d": 43.47666666666919,
      "v": 62
    },
    {
      "midi": 91,
      "hit": false,
      "t": 39552.89749999998,
      "d": 48.91124999999738,
      "v": 58
    },
    {
      "midi": 50,
      "hit": false,
      "t": 39827.3439583333,
      "d": 222.81791666666686,
      "v": 111
    },
    {
      "midi": 38,
      "hit": false,
      "t": 39830.06124999997,
      "d": 222.81791666666686,
      "v": 105
    },
    {
      "midi": 82,
      "hit": false,
      "t": 40077.33479166664,
      "d": 32.60750000000553,
      "v": 78
    },
    {
      "midi": 91,
      "hit": false,
      "t": 40085.48666666664,
      "d": 29.890208333337796,
      "v": 71
    },
    {
      "midi": 50,
      "hit": false,
      "t": 40169.72270833331,
      "d": 279.8810416666747,
      "v": 107
    },
    {
      "midi": 38,
      "hit": false,
      "t": 40172.43999999998,
      "d": 279.8810416666747,
      "v": 113
    },
    {
      "midi": 91,
      "hit": false,
      "t": 40438.73458333332,
      "d": 73.36687500000698,
      "v": 81
    },
    {
      "midi": 82,
      "hit": false,
      "t": 40446.88645833332,
      "d": 48.91125000000466,
      "v": 85
    },
    {
      "midi": 38,
      "hit": false,
      "t": 40596.33749999999,
      "d": 353.24791666666715,
      "v": 115
    },
    {
      "midi": 50,
      "hit": false,
      "t": 40596.33749999999,
      "d": 355.9652083333349,
      "v": 115
    },
    {
      "midi": 31,
      "hit": false,
      "t": 40955.01999999999,
      "d": 1758.0877083333326,
      "v": 126
    },
    {
      "midi": 67,
      "hit": false,
      "t": 45544.52562499999,
      "d": 768.9935416666704,
      "v": 80
    },
    {
      "midi": 79,
      "hit": false,
      "t": 45552.67749999999,
      "d": 758.1243749999994,
      "v": 77
    },
    {
      "midi": 91,
      "hit": false,
      "t": 45563.546666666654,
      "d": 758.1243750000067,
      "v": 83
    },
    {
      "midi": 81,
      "hit": false,
      "t": 49984.580208333326,
      "d": 65.21500000001106,
      "v": 71
    },
    {
      "midi": 66,
      "hit": false,
      "t": 49990.01479166666,
      "d": 48.91125000001193,
      "v": 80
    },
    {
      "midi": 86,
      "hit": false,
      "t": 49995.449375,
      "d": 65.21500000001106,
      "v": 74
    },
    {
      "midi": 74,
      "hit": false,
      "t": 50003.60125,
      "d": 48.91125000000466,
      "v": 64
    },
    {
      "midi": 62,
      "hit": false,
      "t": 50009.035833333335,
      "d": 27.172916666670062,
      "v": 72
    },
    {
      "midi": 57,
      "hit": false,
      "t": 50014.47041666667,
      "d": 24.45562500000233,
      "v": 64
    },
    {
      "midi": 62,
      "hit": false,
      "t": 50253.592083333344,
      "d": 709.2131250000093,
      "v": 83
    },
    {
      "midi": 56,
      "hit": false,
      "t": 50259.02666666668,
      "d": 698.3439583333384,
      "v": 90
    },
    {
      "midi": 67,
      "hit": false,
      "t": 50264.461250000015,
      "d": 695.6266666666706,
      "v": 75
    },
    {
      "midi": 84,
      "hit": false,
      "t": 56506.080208333355,
      "d": 51.62854166667239,
      "v": 69
    },
    {
      "midi": 91,
      "hit": false,
      "t": 56511.51479166669,
      "d": 62.497708333343326,
      "v": 71
    },
    {
      "midi": 76,
      "hit": false,
      "t": 56516.949375000026,
      "d": 48.91125000000466,
      "v": 70
    },
    {
      "midi": 76,
      "hit": false,
      "t": 57120.18812500004,
      "d": 133.14729166666802,
      "v": 86
    },
    {
      "midi": 91,
      "hit": false,
      "t": 57125.62270833337,
      "d": 114.12625000000116,
      "v": 89
    },
    {
      "midi": 84,
      "hit": false,
      "t": 57131.05729166671,
      "d": 105.97437499999796,
      "v": 83
    },
    {
      "midi": 84,
      "hit": false,
      "t": 57310.398541666706,
      "d": 40.75937500000873,
      "v": 69
    },
    {
      "midi": 91,
      "hit": false,
      "t": 57318.55041666671,
      "d": 27.172916666670062,
      "v": 54
    },
    {
      "midi": 82,
      "hit": false,
      "t": 58084.82666666671,
      "d": 38.042083333341,
      "v": 99
    },
    {
      "midi": 91,
      "hit": false,
      "t": 58090.26125000005,
      "d": 43.47666666666919,
      "v": 82
    },
    {
      "midi": 76,
      "hit": false,
      "t": 58098.41312500005,
      "d": 43.47666666666919,
      "v": 83
    },
    {
      "midi": 82,
      "hit": false,
      "t": 58353.83854166672,
      "d": 40.759375000001455,
      "v": 111
    },
    {
      "midi": 76,
      "hit": false,
      "t": 58359.27312500006,
      "d": 51.62854166667239,
      "v": 89
    },
    {
      "midi": 91,
      "hit": false,
      "t": 58364.70770833339,
      "d": 38.04208333333372,
      "v": 90
    },
    {
      "midi": 76,
      "hit": false,
      "t": 58620.133125000066,
      "d": 358.6825000000099,
      "v": 92
    },
    {
      "midi": 82,
      "hit": false,
      "t": 58628.28500000007,
      "d": 353.2479166666744,
      "v": 105
    },
    {
      "midi": 91,
      "hit": false,
      "t": 58636.43687500007,
      "d": 350.5306250000067,
      "v": 87
    },
    {
      "midi": 91,
      "hit": false,
      "t": 59150.00500000008,
      "d": 48.91125000001193,
      "v": 86
    },
    {
      "midi": 82,
      "hit": false,
      "t": 59158.15687500008,
      "d": 32.60750000000553,
      "v": 105
    },
    {
      "midi": 76,
      "hit": false,
      "t": 59166.308750000084,
      "d": 43.47666666666919,
      "v": 97
    },
    {
      "midi": 91,
      "hit": false,
      "t": 59489.66645833342,
      "d": 119.56083333334391,
      "v": 78
    },
    {
      "midi": 82,
      "hit": false,
      "t": 59497.818333333424,
      "d": 105.97437500000524,
      "v": 93
    },
    {
      "midi": 76,
      "hit": false,
      "t": 59503.25291666676,
      "d": 124.9954166666721,
      "v": 87
    },
    {
      "midi": 91,
      "hit": false,
      "t": 59685.31145833343,
      "d": 19.021041666674137,
      "v": 95
    },
    {
      "midi": 86,
      "hit": false,
      "t": 59693.463333333435,
      "d": 5.434583333335468,
      "v": 68
    }
  ]
}