{
  "jsonPath": "Country/Country/Pirates Of The Mississippi/i-wouldnt-change-a-thing.json",
  "path": "Country\\Country\\Pirates Of The Mississippi\\I Wouldnt Change A Thing.mid",
  "name": "I Wouldnt Change A Thing",
  "difficulty": "Intermediate",
  "bpm": 130.1518438177874,
  "notes": [
    {
      "midi": 67,
      "hit": false,
      "t": 1383,
      "d": 739.5208333333335,
      "v": 95
    },
    {
      "midi": 55,
      "hit": false,
      "t": 1383,
      "d": 1344.5833333333335,
      "v": 100
    },
    {
      "midi": 62,
      "hit": false,
      "t": 2535.5,
      "d": 158.46875,
      "v": 72
    },
    {
      "midi": 67,
      "hit": false,
      "t": 2766,
      "d": 187.28125,
      "v": 95
    },
    {
      "midi": 71,
      "hit": false,
      "t": 2996.5,
      "d": 230.5,
      "v": 95
    },
    {
      "midi": 69,
      "hit": false,
      "t": 3227,
      "d": 907.59375,
      "v": 80
    },
    {
      "midi": 54,
      "hit": false,
      "t": 3227,
      "d": 1272.552083333333,
      "v": 96
    },
    {
      "midi": 66,
      "hit": false,
      "t": 4149,
      "d": 830.7604166666661,
      "v": 101
    },
    {
      "midi": 64,
      "hit": false,
      "t": 5070.999999999999,
      "d": 830.760416666667,
      "v": 90
    },
    {
      "midi": 52,
      "hit": false,
      "t": 5070.999999999999,
      "d": 1152.5,
      "v": 76
    },
    {
      "midi": 55,
      "hit": false,
      "t": 5531.999999999999,
      "d": 302.53125,
      "v": 5
    },
    {
      "midi": 64,
      "hit": false,
      "t": 5992.999999999999,
      "d": 172.875,
      "v": 43
    },
    {
      "midi": 64,
      "hit": false,
      "t": 6223.499999999999,
      "d": 182.47916666666697,
      "v": 60
    },
    {
      "midi": 67,
      "hit": false,
      "t": 6453.999999999999,
      "d": 153.66666666666697,
      "v": 85
    },
    {
      "midi": 69,
      "hit": false,
      "t": 6684.499999999999,
      "d": 144.0625,
      "v": 72
    },
    {
      "midi": 71,
      "hit": false,
      "t": 6914.999999999999,
      "d": 398.57291666666697,
      "v": 104
    },
    {
      "midi": 69,
      "hit": false,
      "t": 7375.999999999999,
      "d": 393.77083333333303,
      "v": 76
    },
    {
      "midi": 67,
      "hit": false,
      "t": 7836.999999999999,
      "d": 432.1875000000009,
      "v": 95
    },
    {
      "midi": 66,
      "hit": false,
      "t": 8298,
      "d": 441.79166666666606,
      "v": 96
    },
    {
      "midi": 64,
      "hit": false,
      "t": 8759,
      "d": 1162.104166666666,
      "v": 100
    },
    {
      "midi": 48,
      "hit": false,
      "t": 9681,
      "d": 705.90625,
      "v": 60
    },
    {
      "midi": 60,
      "hit": false,
      "t": 9911.5,
      "d": 187.28125,
      "v": 80
    },
    {
      "midi": 62,
      "hit": false,
      "t": 10142,
      "d": 196.88541666666606,
      "v": 80
    },
    {
      "midi": 64,
      "hit": false,
      "t": 10372.5,
      "d": 192.08333333333394,
      "v": 90
    },
    {
      "midi": 66,
      "hit": false,
      "t": 10603,
      "d": 1397.40625,
      "v": 96
    },
    {
      "midi": 50,
      "hit": false,
      "t": 10603,
      "d": 1507.854166666666,
      "v": 72
    },
    {
      "midi": 60,
      "hit": false,
      "t": 12447,
      "d": 533.03125,
      "v": 90
    },
    {
      "midi": 64,
      "hit": false,
      "t": 12447,
      "d": 576.25,
      "v": 100
    },
    {
      "midi": 59,
      "hit": false,
      "t": 13138.5,
      "d": 518.625,
      "v": 85
    },
    {
      "midi": 62,
      "hit": false,
      "t": 13138.5,
      "d": 528.2291666666661,
      "v": 90
    },
    {
      "midi": 57,
      "hit": false,
      "t": 13830,
      "d": 331.34375,
      "v": 100
    },
    {
      "midi": 60,
      "hit": false,
      "t": 13830,
      "d": 379.36458333333394,
      "v": 90
    },
    {
      "midi": 59,
      "hit": false,
      "t": 14291,
      "d": 768.3333333333339,
      "v": 85
    },
    {
      "midi": 55,
      "hit": false,
      "t": 14291,
      "d": 3419.083333333332,
      "v": 100
    },
    {
      "midi": 67,
      "hit": false,
      "t": 15443.5,
      "d": 168.07291666666606,
      "v": 69
    },
    {
      "midi": 69,
      "hit": false,
      "t": 15674,
      "d": 153.66666666666606,
      "v": 90
    },
    {
      "midi": 71,
      "hit": false,
      "t": 15904.5,
      "d": 153.66666666666606,
      "v": 85
    },
    {
      "midi": 74,
      "hit": false,
      "t": 16135,
      "d": 1685.53125,
      "v": 95
    },
    {
      "midi": 66,
      "hit": false,
      "t": 29043,
      "d": 705.90625,
      "v": 96
    },
    {
      "midi": 50,
      "hit": false,
      "t": 29043,
      "d": 739.5208333333321,
      "v": 66
    },
    {
      "midi": 67,
      "hit": false,
      "t": 29734.5,
      "d": 614.6666666666642,
      "v": 95
    },
    {
      "midi": 52,
      "hit": false,
      "t": 29734.5,
      "d": 662.6874999999964,
      "v": 76
    },
    {
      "midi": 69,
      "hit": false,
      "t": 30425.999999999996,
      "d": 436.9895833333321,
      "v": 85
    },
    {
      "midi": 54,
      "hit": false,
      "t": 30425.999999999996,
      "d": 494.6145833333321,
      "v": 73
    },
    {
      "midi": 71,
      "hit": false,
      "t": 30886.999999999996,
      "d": 840.3645833333321,
      "v": 80
    },
    {
      "midi": 55,
      "hit": false,
      "t": 30886.999999999996,
      "d": 1594.2916666666679,
      "v": 76
    },
    {
      "midi": 62,
      "hit": false,
      "t": 31808.999999999996,
      "d": 902.7916666666679,
      "v": 85
    },
    {
      "midi": 71,
      "hit": false,
      "t": 32269.999999999996,
      "d": 403.375,
      "v": 95
    },
    {
      "midi": 69,
      "hit": false,
      "t": 32730.999999999996,
      "d": 840.3645833333321,
      "v": 80
    },
    {
      "midi": 54,
      "hit": false,
      "t": 32730.999999999996,
      "d": 1296.5624999999964,
      "v": 58
    },
    {
      "midi": 62,
      "hit": false,
      "t": 33652.99999999999,
      "d": 821.15625,
      "v": 76
    },
    {
      "midi": 52,
      "hit": false,
      "t": 34574.99999999999,
      "d": 1166.90625,
      "v": 72
    },
    {
      "midi": 64,
      "hit": false,
      "t": 35266.49999999999,
      "d": 821.15625,
      "v": 50
    },
    {
      "midi": 71,
      "hit": false,
      "t": 35496.99999999999,
      "d": 686.6979166666642,
      "v": 100
    },
    {
      "midi": 69,
      "hit": false,
      "t": 36188.49999999999,
      "d": 158.46875,
      "v": 100
    },
    {
      "midi": 71,
      "hit": false,
      "t": 36418.99999999999,
      "d": 1863.2083333333358,
      "v": 95
    },
    {
      "midi": 66,
      "hit": false,
      "t": 37340.99999999999,
      "d": 787.5416666666642,
      "v": 96
    },
    {
      "midi": 64,
      "hit": false,
      "t": 38262.99999999999,
      "d": 1853.6041666666642,
      "v": 90
    },
    {
      "midi": 72,
      "hit": false,
      "t": 39645.99999999999,
      "d": 398.57291666666424,
      "v": 90
    },
    {
      "midi": 55,
      "hit": false,
      "t": 40106.99999999999,
      "d": 883.5833333333285,
      "v": 76
    },
    {
      "midi": 71,
      "hit": false,
      "t": 40106.99999999999,
      "d": 1421.416666666657,
      "v": 95
    },
    {
      "midi": 62,
      "hit": false,
      "t": 41489.999999999985,
      "d": 211.29166666666424,
      "v": 38
    },
    {
      "midi": 71,
      "hit": false,
      "t": 41720.499999999985,
      "d": 196.88541666666424,
      "v": 80
    },
    {
      "midi": 69,
      "hit": false,
      "t": 41950.999999999985,
      "d": 1325.375,
      "v": 95
    },
    {
      "midi": 54,
      "hit": false,
      "t": 43794.999999999985,
      "d": 614.6666666666642,
      "v": 101
    },
    {
      "midi": 55,
      "hit": false,
      "t": 44486.499999999985,
      "d": 561.84375,
      "v": 95
    },
    {
      "midi": 57,
      "hit": false,
      "t": 45177.999999999985,
      "d": 374.5625,
      "v": 90
    },
    {
      "midi": 59,
      "hit": false,
      "t": 45638.999999999985,
      "d": 806.75,
      "v": 85
    },
    {
      "midi": 62,
      "hit": false,
      "t": 46560.999999999985,
      "d": 408.17708333333576,
      "v": 72
    },
    {
      "midi": 55,
      "hit": false,
      "t": 46560.999999999985,
      "d": 489.8125,
      "v": 95
    },
    {
      "midi": 59,
      "hit": false,
      "t": 47021.999999999985,
      "d": 436.98958333333576,
      "v": 80
    },
    {
      "midi": 54,
      "hit": false,
      "t": 47482.999999999985,
      "d": 1795.9791666666715,
      "v": 65
    },
    {
      "midi": 66,
      "hit": false,
      "t": 48404.999999999985,
      "d": 797.1458333333358,
      "v": 96
    },
    {
      "midi": 52,
      "hit": false,
      "t": 49326.99999999999,
      "d": 1138.09375,
      "v": 76
    },
    {
      "midi": 64,
      "hit": false,
      "t": 49326.99999999999,
      "d": 1719.1458333333358,
      "v": 90
    },
    {
      "midi": 71,
      "hit": false,
      "t": 50248.99999999999,
      "d": 1267.75,
      "v": 100
    },
    {
      "midi": 64,
      "hit": false,
      "t": 51055.74999999999,
      "d": 926.8020833333358,
      "v": 41
    },
    {
      "midi": 69,
      "hit": false,
      "t": 51631.99999999999,
      "d": 456.1979166666715,
      "v": 80
    },
    {
      "midi": 67,
      "hit": false,
      "t": 52093,
      "d": 1551.0729166666642,
      "v": 95
    },
    {
      "midi": 69,
      "hit": false,
      "t": 53937,
      "d": 845.1666666666715,
      "v": 80
    },
    {
      "midi": 64,
      "hit": false,
      "t": 54167.5,
      "d": 609.8645833333358,
      "v": 69
    },
    {
      "midi": 60,
      "hit": false,
      "t": 54398,
      "d": 1291.7604166666715,
      "v": 76
    },
    {
      "midi": 66,
      "hit": false,
      "t": 54859.00000000001,
      "d": 1003.6354166666642,
      "v": 96
    },
    {
      "midi": 60,
      "hit": false,
      "t": 55781.00000000001,
      "d": 715.5104166666642,
      "v": 69
    },
    {
      "midi": 60,
      "hit": false,
      "t": 56703.00000000001,
      "d": 1234.1354166666642,
      "v": 90
    },
    {
      "midi": 67,
      "hit": false,
      "t": 57625.00000000001,
      "d": 763.53125,
      "v": 95
    },
    {
      "midi": 62,
      "hit": false,
      "t": 57855.50000000001,
      "d": 216.09375,
      "v": 52
    },
    {
      "midi": 60,
      "hit": false,
      "t": 58086.00000000001,
      "d": 288.125,
      "v": 63
    },
    {
      "midi": 62,
      "hit": false,
      "t": 58316.50000000001,
      "d": 163.27083333333576,
      "v": 50
    },
    {
      "midi": 59,
      "hit": false,
      "t": 58547.00000000001,
      "d": 374.5625,
      "v": 76
    },
    {
      "midi": 67,
      "hit": false,
      "t": 58547.00000000001,
      "d": 753.9270833333358,
      "v": 85
    },
    {
      "midi": 71,
      "hit": false,
      "t": 59469.00000000001,
      "d": 494.61458333333576,
      "v": 85
    },
    {
      "midi": 69,
      "hit": false,
      "t": 59930.00000000001,
      "d": 211.29166666667152,
      "v": 95
    },
    {
      "midi": 67,
      "hit": false,
      "t": 60160.500000000015,
      "d": 187.28125,
      "v": 80
    },
    {
      "midi": 66,
      "hit": false,
      "t": 60391.000000000015,
      "d": 931.6041666666642,
      "v": 81
    },
    {
      "midi": 62,
      "hit": false,
      "t": 61543.500000000015,
      "d": 172.875,
      "v": 41
    },
    {
      "midi": 64,
      "hit": false,
      "t": 61774.000000000015,
      "d": 201.6875,
      "v": 90
    },
    {
      "midi": 66,
      "hit": false,
      "t": 62004.500000000015,
      "d": 244.90625,
      "v": 65
    },
    {
      "midi": 54,
      "hit": false,
      "t": 62235.000000000015,
      "d": 917.1979166666642,
      "v": 89
    },
    {
      "midi": 57,
      "hit": false,
      "t": 63157.000000000015,
      "d": 43.21875,
      "v": 56
    },
    {
      "midi": 62,
      "hit": false,
      "t": 63157.000000000015,
      "d": 1363.7916666666642,
      "v": 90
    },
    {
      "midi": 55,
      "hit": false,
      "t": 64079.000000000015,
      "d": 994.03125,
      "v": 85
    },
    {
      "midi": 67,
      "hit": false,
      "t": 65001.000000000015,
      "d": 835.5625,
      "v": 69
    },
    {
      "midi": 55,
      "hit": false,
      "t": 65462.000000000015,
      "d": 168.07291666667152,
      "v": 54
    },
    {
      "midi": 74,
      "hit": false,
      "t": 65923.00000000001,
      "d": 278.5208333333285,
      "v": 90
    },
    {
      "midi": 71,
      "hit": false,
      "t": 66153.50000000001,
      "d": 182.47916666665697,
      "v": 72
    },
    {
      "midi": 69,
      "hit": false,
      "t": 66384,
      "d": 206.48958333332848,
      "v": 60
    },
    {
      "midi": 67,
      "hit": false,
      "t": 66614.5,
      "d": 182.47916666667152,
      "v": 90
    },
    {
      "midi": 71,
      "hit": false,
      "t": 66845,
      "d": 878.78125,
      "v": 90
    },
    {
      "midi": 50,
      "hit": false,
      "t": 67767,
      "d": 489.8125,
      "v": 66
    },
    {
      "midi": 62,
      "hit": false,
      "t": 67767,
      "d": 2189.75,
      "v": 76
    },
    {
      "midi": 54,
      "hit": false,
      "t": 69150,
      "d": 120.05208333332848,
      "v": 40
    },
    {
      "midi": 54,
      "hit": false,
      "t": 69611,
      "d": 1219.7291666666715,
      "v": 73
    },
    {
      "midi": 66,
      "hit": false,
      "t": 70072,
      "d": 441.7916666666715,
      "v": 101
    },
    {
      "midi": 64,
      "hit": false,
      "t": 70533,
      "d": 451.39583333334303,
      "v": 85
    },
    {
      "midi": 62,
      "hit": false,
      "t": 70994.00000000001,
      "d": 264.1145833333285,
      "v": 60
    },
    {
      "midi": 64,
      "hit": false,
      "t": 71455.00000000001,
      "d": 653.0833333333285,
      "v": 95
    },
    {
      "midi": 62,
      "hit": false,
      "t": 72146.50000000001,
      "d": 585.8541666666715,
      "v": 85
    },
    {
      "midi": 60,
      "hit": false,
      "t": 72838.00000000001,
      "d": 864.375,
      "v": 85
    },
    {
      "midi": 59,
      "hit": false,
      "t": 73760.00000000001,
      "d": 878.78125,
      "v": 80
    },
    {
      "midi": 67,
      "hit": false,
      "t": 74682.00000000001,
      "d": 148.86458333332848,
      "v": 100
    },
    {
      "midi": 69,
      "hit": false,
      "t": 74912.50000000001,
      "d": 196.88541666667152,
      "v": 72
    },
    {
      "midi": 67,
      "hit": false,
      "t": 75143.00000000001,
      "d": 782.7395833333285,
      "v": 95
    },
    {
      "midi": 71,
      "hit": false,
      "t": 76065.00000000001,
      "d": 412.9791666666715,
      "v": 90
    },
    {
      "midi": 67,
      "hit": false,
      "t": 76526.00000000001,
      "d": 393.7708333333285,
      "v": 85
    },
    {
      "midi": 62,
      "hit": false,
      "t": 76987.00000000001,
      "d": 787.5416666666715,
      "v": 60
    },
    {
      "midi": 69,
      "hit": false,
      "t": 76987.00000000001,
      "d": 787.5416666666715,
      "v": 76
    },
    {
      "midi": 54,
      "hit": false,
      "t": 76987.00000000001,
      "d": 1152.5,
      "v": 54
    },
    {
      "midi": 62,
      "hit": false,
      "t": 77909.00000000001,
      "d": 787.5416666666715,
      "v": 60
    },
    {
      "midi": 64,
      "hit": false,
      "t": 78831.00000000001,
      "d": 734.71875,
      "v": 69
    },
    {
      "midi": 52,
      "hit": false,
      "t": 78831.00000000001,
      "d": 1378.197916666657,
      "v": 69
    },
    {
      "midi": 64,
      "hit": false,
      "t": 79753.00000000001,
      "d": 436.9895833333285,
      "v": 58
    },
    {
      "midi": 67,
      "hit": false,
      "t": 80214,
      "d": 148.86458333332848,
      "v": 76
    },
    {
      "midi": 69,
      "hit": false,
      "t": 80444.5,
      "d": 139.26041666667152,
      "v": 69
    },
    {
      "midi": 71,
      "hit": false,
      "t": 80675,
      "d": 408.1770833333285,
      "v": 85
    },
    {
      "midi": 69,
      "hit": false,
      "t": 81136,
      "d": 393.7708333333285,
      "v": 63
    },
    {
      "midi": 67,
      "hit": false,
      "t": 81597,
      "d": 432.1875,
      "v": 85
    },
    {
      "midi": 66,
      "hit": false,
      "t": 82058,
      "d": 403.375,
      "v": 73
    },
    {
      "midi": 64,
      "hit": false,
      "t": 82519,
      "d": 1416.6145833333285,
      "v": 80
    },
    {
      "midi": 72,
      "hit": false,
      "t": 83441,
      "d": 869.177083333343,
      "v": 90
    },
    {
      "midi": 67,
      "hit": false,
      "t": 83902,
      "d": 240.10416666667152,
      "v": 60
    },
    {
      "midi": 64,
      "hit": false,
      "t": 84132.5,
      "d": 211.29166666667152,
      "v": 58
    },
    {
      "midi": 69,
      "hit": false,
      "t": 84363,
      "d": 849.96875,
      "v": 80
    },
    {
      "midi": 62,
      "hit": false,
      "t": 85285,
      "d": 518.625,
      "v": 69
    },
    {
      "midi": 67,
      "hit": false,
      "t": 86207,
      "d": 518.625,
      "v": 76
    },
    {
      "midi": 76,
      "hit": false,
      "t": 86207,
      "d": 576.25,
      "v": 90
    },
    {
      "midi": 74,
      "hit": false,
      "t": 86898.5,
      "d": 533.03125,
      "v": 80
    },
    {
      "midi": 67,
      "hit": false,
      "t": 86898.5,
      "d": 537.8333333333285,
      "v": 85
    },
    {
      "midi": 67,
      "hit": false,
      "t": 87590,
      "d": 340.9479166666715,
      "v": 60
    },
    {
      "midi": 76,
      "hit": false,
      "t": 87590,
      "d": 393.77083333334303,
      "v": 85
    },
    {
      "midi": 67,
      "hit": false,
      "t": 88051.00000000001,
      "d": 1608.6979166666715,
      "v": 85
    },
    {
      "midi": 74,
      "hit": false,
      "t": 88051.00000000001,
      "d": 1680.7291666666715,
      "v": 95
    },
    {
      "midi": 67,
      "hit": false,
      "t": 89895.00000000001,
      "d": 897.9895833333285,
      "v": 85
    },
    {
      "midi": 62,
      "hit": false,
      "t": 90817.00000000001,
      "d": 854.7708333333285,
      "v": 63
    },
    {
      "midi": 67,
      "hit": false,
      "t": 91047.50000000001,
      "d": 177.67708333332848,
      "v": 72
    },
    {
      "midi": 71,
      "hit": false,
      "t": 91278.00000000001,
      "d": 422.5833333333285,
      "v": 95
    },
    {
      "midi": 69,
      "hit": false,
      "t": 91739.00000000001,
      "d": 830.7604166666715,
      "v": 90
    },
    {
      "midi": 54,
      "hit": false,
      "t": 91739.00000000001,
      "d": 1368.59375,
      "v": 46
    },
    {
      "midi": 66,
      "hit": false,
      "t": 92661.00000000001,
      "d": 465.8020833333285,
      "v": 96
    },
    {
      "midi": 62,
      "hit": false,
      "t": 93122.00000000001,
      "d": 379.3645833333285,
      "v": 72
    },
    {
      "midi": 52,
      "hit": false,
      "t": 93583.00000000001,
      "d": 830.7604166666715,
      "v": 66
    },
    {
      "midi": 64,
      "hit": false,
      "t": 93583.00000000001,
      "d": 1709.5416666666715,
      "v": 76
    },
    {
      "midi": 67,
      "hit": false,
      "t": 94505.00000000001,
      "d": 384.1666666666715,
      "v": 72
    },
    {
      "midi": 69,
      "hit": false,
      "t": 94966.00000000001,
      "d": 480.2083333333285,
      "v": 56
    },
    {
      "midi": 62,
      "hit": false,
      "t": 95427.00000000001,
      "d": 869.1770833333285,
      "v": 69
    },
    {
      "midi": 71,
      "hit": false,
      "t": 96349.00000000001,
      "d": 192.08333333332848,
      "v": 100
    },
    {
      "midi": 69,
      "hit": false,
      "t": 96579.50000000001,
      "d": 177.67708333332848,
      "v": 80
    },
    {
      "midi": 67,
      "hit": false,
      "t": 96810.00000000001,
      "d": 225.69791666667152,
      "v": 100
    },
    {
      "midi": 66,
      "hit": false,
      "t": 97040.50000000001,
      "d": 192.08333333332848,
      "v": 101
    },
    {
      "midi": 64,
      "hit": false,
      "t": 97271.00000000001,
      "d": 1527.0625,
      "v": 85
    },
    {
      "midi": 72,
      "hit": false,
      "t": 98193.00000000001,
      "d": 1397.40625,
      "v": 76
    },
    {
      "midi": 67,
      "hit": false,
      "t": 98654.00000000001,
      "d": 1315.7708333333285,
      "v": 90
    },
    {
      "midi": 62,
      "hit": false,
      "t": 99115.00000000001,
      "d": 1541.46875,
      "v": 85
    },
    {
      "midi": 71,
      "hit": false,
      "t": 100037.00000000001,
      "d": 893.1875,
      "v": 90
    },
    {
      "midi": 60,
      "hit": false,
      "t": 100959.00000000001,
      "d": 1152.5,
      "v": 85
    },
    {
      "midi": 69,
      "hit": false,
      "t": 101881.00000000001,
      "d": 849.96875,
      "v": 76
    },
    {
      "midi": 64,
      "hit": false,
      "t": 102111.50000000001,
      "d": 220.89583333332848,
      "v": 66
    },
    {
      "midi": 60,
      "hit": false,
      "t": 102342.00000000001,
      "d": 235.30208333332848,
      "v": 56
    },
    {
      "midi": 66,
      "hit": false,
      "t": 102803.00000000001,
      "d": 605.0625,
      "v": 96
    },
    {
      "midi": 67,
      "hit": false,
      "t": 103494.50000000001,
      "d": 557.0416666666715,
      "v": 90
    },
    {
      "midi": 64,
      "hit": false,
      "t": 103494.50000000001,
      "d": 576.25,
      "v": 72
    },
    {
      "midi": 66,
      "hit": false,
      "t": 104186.00000000001,
      "d": 379.3645833333285,
      "v": 96
    },
    {
      "midi": 69,
      "hit": false,
      "t": 104186.00000000001,
      "d": 475.40625,
      "v": 80
    },
    {
      "midi": 67,
      "hit": false,
      "t": 104647.00000000001,
      "d": 768.3333333333285,
      "v": 69
    },
    {
      "midi": 62,
      "hit": false,
      "t": 104647.00000000001,
      "d": 1911.2291666666715,
      "v": 76
    },
    {
      "midi": 71,
      "hit": false,
      "t": 105569.00000000001,
      "d": 922,
      "v": 85
    },
    {
      "midi": 69,
      "hit": false,
      "t": 106491.00000000001,
      "d": 1824.791666666657,
      "v": 58
    },
    {
      "midi": 62,
      "hit": false,
      "t": 106606.25000000001,
      "d": 1407.010416666657,
      "v": 13
    },
    {
      "midi": 66,
      "hit": false,
      "t": 107413.00000000001,
      "d": 595.4583333333285,
      "v": 20
    },
    {
      "midi": 64,
      "hit": false,
      "t": 108335,
      "d": 2703.5729166666715,
      "v": 50
    },
    {
      "midi": 71,
      "hit": false,
      "t": 109257,
      "d": 720.3125,
      "v": 90
    },
    {
      "midi": 69,
      "hit": false,
      "t": 109948.5,
      "d": 144.0625,
      "v": 45
    },
    {
      "midi": 71,
      "hit": false,
      "t": 110179,
      "d": 970.0208333333285,
      "v": 76
    },
    {
      "midi": 66,
      "hit": false,
      "t": 111101,
      "d": 869.1770833333285,
      "v": 96
    },
    {
      "midi": 64,
      "hit": false,
      "t": 112023,
      "d": 734.71875,
      "v": 76
    },
    {
      "midi": 72,
      "hit": false,
      "t": 113406,
      "d": 192.08333333332848,
      "v": 80
    },
    {
      "midi": 76,
      "hit": false,
      "t": 113636.5,
      "d": 187.28125,
      "v": 90
    },
    {
      "midi": 74,
      "hit": false,
      "t": 113867,
      "d": 1824.7916666666715,
      "v": 90
    },
    {
      "midi": 72,
      "hit": false,
      "t": 115711,
      "d": 533.03125,
      "v": 80
    },
    {
      "midi": 71,
      "hit": false,
      "t": 116172,
      "d": 456.1979166666715,
      "v": 72
    },
    {
      "midi": 69,
      "hit": false,
      "t": 116633,
      "d": 403.375,
      "v": 60
    },
    {
      "midi": 67,
      "hit": false,
      "t": 117094,
      "d": 393.7708333333285,
      "v": 85
    },
    {
      "midi": 66,
      "hit": false,
      "t": 117555,
      "d": 657.8854166666715,
      "v": 96
    },
    {
      "midi": 67,
      "hit": false,
      "t": 118246.5,
      "d": 624.2708333333285,
      "v": 80
    },
    {
      "midi": 69,
      "hit": false,
      "t": 118938,
      "d": 422.5833333333285,
      "v": 56
    },
    {
      "midi": 67,
      "hit": false,
      "t": 119399,
      "d": 888.3854166666715,
      "v": 58
    },
    {
      "midi": 71,
      "hit": false,
      "t": 120321,
      "d": 427.3854166666715,
      "v": 90
    },
    {
      "midi": 67,
      "hit": false,
      "t": 120782,
      "d": 427.3854166666715,
      "v": 72
    },
    {
      "midi": 69,
      "hit": false,
      "t": 121243,
      "d": 1810.3854166666715,
      "v": 69
    },
    {
      "midi": 64,
      "hit": false,
      "t": 123087,
      "d": 1200.5208333333285,
      "v": 76
    },
    {
      "midi": 83,
      "hit": false,
      "t": 125392,
      "d": 196.88541666667152,
      "v": 76
    },
    {
      "midi": 81,
      "hit": false,
      "t": 125622.5,
      "d": 235.30208333332848,
      "v": 95
    },
    {
      "midi": 79,
      "hit": false,
      "t": 125853,
      "d": 2713.177083333343,
      "v": 90
    },
    {
      "midi": 76,
      "hit": false,
      "t": 126775,
      "d": 1219.7291666666715,
      "v": 90
    },
    {
      "midi": 69,
      "hit": false,
      "t": 128619.00000000001,
      "d": 758.7291666666715,
      "v": 72
    },
    {
      "midi": 78,
      "hit": false,
      "t": 128619.00000000001,
      "d": 1042.0520833333285,
      "v": 65
    },
    {
      "midi": 69,
      "hit": false,
      "t": 129541.00000000001,
      "d": 749.125,
      "v": 66
    },
    {
      "midi": 72,
      "hit": false,
      "t": 130463.00000000001,
      "d": 1642.3124999999854,
      "v": 90
    },
    {
      "midi": 74,
      "hit": false,
      "t": 132307,
      "d": 220.89583333334303,
      "v": 85
    },
    {
      "midi": 71,
      "hit": false,
      "t": 132537.5,
      "d": 220.89583333334303,
      "v": 80
    },
    {
      "midi": 69,
      "hit": false,
      "t": 132768,
      "d": 196.88541666665697,
      "v": 90
    },
    {
      "midi": 67,
      "hit": false,
      "t": 132998.5,
      "d": 192.08333333334303,
      "v": 85
    },
    {
      "midi": 71,
      "hit": false,
      "t": 133229,
      "d": 446.59375,
      "v": 90
    },
    {
      "midi": 69,
      "hit": false,
      "t": 133690,
      "d": 187.28125,
      "v": 60
    },
    {
      "midi": 67,
      "hit": false,
      "t": 133920.5,
      "d": 211.29166666665697,
      "v": 72
    },
    {
      "midi": 66,
      "hit": false,
      "t": 134151,
      "d": 2098.510416666657,
      "v": 89
    },
    {
      "midi": 69,
      "hit": false,
      "t": 136456,
      "d": 1330.177083333343,
      "v": 72
    },
    {
      "midi": 66,
      "hit": false,
      "t": 136917,
      "d": 888.3854166666861,
      "v": 96
    },
    {
      "midi": 67,
      "hit": false,
      "t": 137839.00000000003,
      "d": 5748.09375,
      "v": 72
    },
    {
      "midi": 79,
      "hit": false,
      "t": 140144.00000000003,
      "d": 1181.3125,
      "v": 95
    },
    {
      "midi": 74,
      "hit": false,
      "t": 140605.00000000003,
      "d": 888.385416666657,
      "v": 90
    },
    {
      "midi": 69,
      "hit": false,
      "t": 143832.00000000003,
      "d": 432.1875,
      "v": 85
    },
    {
      "midi": 66,
      "hit": false,
      "t": 144293.00000000003,
      "d": 456.19791666665697,
      "v": 89
    },
    {
      "midi": 62,
      "hit": false,
      "t": 144754.00000000003,
      "d": 321.73958333334303,
      "v": 69
    },
    {
      "midi": 72,
      "hit": false,
      "t": 145215.00000000003,
      "d": 648.28125,
      "v": 95
    },
    {
      "midi": 71,
      "hit": false,
      "t": 145906.50000000003,
      "d": 614.666666666657,
      "v": 100
    },
    {
      "midi": 69,
      "hit": false,
      "t": 146598.00000000003,
      "d": 960.416666666657,
      "v": 85
    },
    {
      "midi": 67,
      "hit": false,
      "t": 147520.00000000003,
      "d": 845.166666666657,
      "v": 95
    },
    {
      "midi": 69,
      "hit": false,
      "t": 148442.00000000003,
      "d": 240.10416666665697,
      "v": 69
    },
    {
      "midi": 71,
      "hit": false,
      "t": 148672.50000000003,
      "d": 225.69791666665697,
      "v": 72
    },
    {
      "midi": 67,
      "hit": false,
      "t": 148903.00000000003,
      "d": 1310.96875,
      "v": 90
    },
    {
      "midi": 62,
      "hit": false,
      "t": 150286.00000000003,
      "d": 211.29166666665697,
      "v": 56
    },
    {
      "midi": 71,
      "hit": false,
      "t": 150516.50000000003,
      "d": 211.29166666665697,
      "v": 80
    },
    {
      "midi": 69,
      "hit": false,
      "t": 150747.00000000003,
      "d": 1791.177083333343,
      "v": 95
    },
    {
      "midi": 62,
      "hit": false,
      "t": 151669.00000000003,
      "d": 547.4375,
      "v": 35
    },
    {
      "midi": 64,
      "hit": false,
      "t": 152591.00000000003,
      "d": 1354.1875,
      "v": 85
    },
    {
      "midi": 83,
      "hit": false,
      "t": 154435.00000000003,
      "d": 316.9375,
      "v": 85
    },
    {
      "midi": 81,
      "hit": false,
      "t": 154896.00000000003,
      "d": 436.98958333334303,
      "v": 90
    },
    {
      "midi": 79,
      "hit": false,
      "t": 155357.00000000003,
      "d": 475.40625,
      "v": 95
    },
    {
      "midi": 78,
      "hit": false,
      "t": 155818.00000000003,
      "d": 408.17708333334303,
      "v": 101
    },
    {
      "midi": 76,
      "hit": false,
      "t": 156279.00000000003,
      "d": 1517.458333333343,
      "v": 85
    },
    {
      "midi": 76,
      "hit": false,
      "t": 157892.50000000003,
      "d": 177.67708333334303,
      "v": 76
    },
    {
      "midi": 78,
      "hit": false,
      "t": 158123.00000000003,
      "d": 989.229166666657,
      "v": 89
    },
    {
      "midi": 72,
      "hit": false,
      "t": 159967.00000000003,
      "d": 571.447916666657,
      "v": 90
    },
    {
      "midi": 71,
      "hit": false,
      "t": 160658.50000000003,
      "d": 547.4375,
      "v": 80
    },
    {
      "midi": 72,
      "hit": false,
      "t": 161350.00000000003,
      "d": 422.58333333334303,
      "v": 85
    },
    {
      "midi": 71,
      "hit": false,
      "t": 161811.00000000003,
      "d": 1368.59375,
      "v": 80
    },
    {
      "midi": 55,
      "hit": false,
      "t": 163655.00000000003,
      "d": 1056.458333333343,
      "v": 90
    },
    {
      "midi": 59,
      "hit": false,
      "t": 164116.00000000003,
      "d": 100.84375,
      "v": 52
    },
    {
      "midi": 62,
      "hit": false,
      "t": 164346.50000000003,
      "d": 124.85416666665697,
      "v": 66
    },
    {
      "midi": 67,
      "hit": false,
      "t": 164577.00000000003,
      "d": 513.822916666657,
      "v": 95
    },
    {
      "midi": 62,
      "hit": false,
      "t": 165038.00000000003,
      "d": 475.40625,
      "v": 80
    },
    {
      "midi": 54,
      "hit": false,
      "t": 165499.00000000003,
      "d": 600.260416666657,
      "v": 65
    },
    {
      "midi": 57,
      "hit": false,
      "t": 165499.00000000003,
      "d": 1603.895833333343,
      "v": 80
    },
    {
      "midi": 66,
      "hit": false,
      "t": 166421.00000000003,
      "d": 878.78125,
      "v": 96
    },
    {
      "midi": 59,
      "hit": false,
      "t": 167343.00000000003,
      "d": 547.4375,
      "v": 76
    },
    {
      "midi": 64,
      "hit": false,
      "t": 167804.00000000003,
      "d": 398.57291666665697,
      "v": 95
    },
    {
      "midi": 66,
      "hit": false,
      "t": 168265.00000000003,
      "d": 417.78125,
      "v": 89
    },
    {
      "midi": 67,
      "hit": false,
      "t": 168726.00000000003,
      "d": 403.375,
      "v": 76
    },
    {
      "midi": 71,
      "hit": false,
      "t": 169187.00000000003,
      "d": 427.38541666665697,
      "v": 90
    },
    {
      "midi": 69,
      "hit": false,
      "t": 169648.00000000003,
      "d": 461,
      "v": 66
    },
    {
      "midi": 67,
      "hit": false,
      "t": 170109.00000000003,
      "d": 422.58333333334303,
      "v": 90
    },
    {
      "midi": 66,
      "hit": false,
      "t": 170570.00000000003,
      "d": 432.1875,
      "v": 96
    },
    {
      "midi": 64,
      "hit": false,
      "t": 171031.00000000003,
      "d": 1810.385416666657,
      "v": 95
    },
    {
      "midi": 62,
      "hit": false,
      "t": 172875.00000000003,
      "d": 1795.979166666657,
      "v": 80
    },
    {
      "midi": 60,
      "hit": false,
      "t": 174719.00000000003,
      "d": 1680.729166666657,
      "v": 90
    },
    {
      "midi": 62,
      "hit": false,
      "t": 177024.00000000003,
      "d": 4725.25,
      "v": 95
    },
    {
      "midi": 67,
      "hit": false,
      "t": 178407.00000000003,
      "d": 1301.364583333343,
      "v": 90
    },
    {
      "midi": 71,
      "hit": false,
      "t": 179790.00000000003,
      "d": 422.58333333334303,
      "v": 90
    },
    {
      "midi": 69,
      "hit": false,
      "t": 180251.00000000003,
      "d": 1810.385416666657,
      "v": 90
    },
    {
      "midi": 79,
      "hit": false,
      "t": 183478.00000000003,
      "d": 220.89583333334303,
      "v": 100
    },
    {
      "midi": 78,
      "hit": false,
      "t": 183708.50000000003,
      "d": 172.875,
      "v": 96
    },
    {
      "midi": 79,
      "hit": false,
      "t": 183939.00000000003,
      "d": 499.41666666665697,
      "v": 95
    },
    {
      "midi": 74,
      "hit": false,
      "t": 184400.00000000003,
      "d": 446.59375,
      "v": 80
    },
    {
      "midi": 71,
      "hit": false,
      "t": 184861.00000000003,
      "d": 398.57291666665697,
      "v": 90
    },
    {
      "midi": 67,
      "hit": false,
      "t": 185322.00000000003,
      "d": 3615.96875,
      "v": 85
    },
    {
      "midi": 72,
      "hit": false,
      "t": 185783.00000000003,
      "d": 1892.020833333343,
      "v": 90
    },
    {
      "midi": 71,
      "hit": false,
      "t": 187627.00000000003,
      "d": 1157.302083333343,
      "v": 80
    },
    {
      "midi": 57,
      "hit": false,
      "t": 189932.00000000003,
      "d": 398.57291666665697,
      "v": 90
    },
    {
      "midi": 59,
      "hit": false,
      "t": 190393.00000000003,
      "d": 388.96875,
      "v": 85
    },
    {
      "midi": 60,
      "hit": false,
      "t": 190854.00000000003,
      "d": 388.96875,
      "v": 85
    },
    {
      "midi": 62,
      "hit": false,
      "t": 191315.00000000003,
      "d": 667.489583333343,
      "v": 85
    },
    {
      "midi": 64,
      "hit": false,
      "t": 192006.50000000003,
      "d": 633.875,
      "v": 95
    },
    {
      "midi": 66,
      "hit": false,
      "t": 192698.00000000003,
      "d": 374.5625,
      "v": 89
    },
    {
      "midi": 67,
      "hit": false,
      "t": 193159.00000000003,
      "d": 1354.1875,
      "v": 76
    },
    {
      "midi": 62,
      "hit": false,
      "t": 194542.00000000003,
      "d": 201.6875,
      "v": 58
    },
    {
      "midi": 71,
      "hit": false,
      "t": 194772.50000000003,
      "d": 216.09375,
      "v": 85
    },
    {
      "midi": 69,
      "hit": false,
      "t": 195003.00000000003,
      "d": 1805.583333333343,
      "v": 95
    },
    {
      "midi": 62,
      "hit": false,
      "t": 195925.00000000003,
      "d": 619.46875,
      "v": 54
    },
    {
      "midi": 64,
      "hit": false,
      "t": 196847.00000000003,
      "d": 1022.84375,
      "v": 85
    },
    {
      "midi": 71,
      "hit": false,
      "t": 198691.00000000003,
      "d": 369.76041666665697,
      "v": 85
    },
    {
      "midi": 79,
      "hit": false,
      "t": 198691.00000000003,
      "d": 393.77083333331393,
      "v": 100
    },
    {
      "midi": 71,
      "hit": false,
      "t": 199152,
      "d": 144.0625,
      "v": 42
    },
    {
      "midi": 78,
      "hit": false,
      "t": 199152,
      "d": 163.27083333334303,
      "v": 96
    },
    {
      "midi": 71,
      "hit": false,
      "t": 199382.5,
      "d": 129.65625,
      "v": 69
    },
    {
      "midi": 74,
      "hit": false,
      "t": 199382.5,
      "d": 681.895833333343,
      "v": 80
    },
    {
      "midi": 71,
      "hit": false,
      "t": 200074,
      "d": 436.98958333334303,
      "v": 80
    },
    {
      "midi": 72,
      "hit": false,
      "t": 200535,
      "d": 1234.135416666657,
      "v": 72
    },
    {
      "midi": 62,
      "hit": false,
      "t": 202379,
      "d": 432.1875,
      "v": 37
    },
    {
      "midi": 64,
      "hit": false,
      "t": 202840,
      "d": 398.57291666665697,
      "v": 85
    },
    {
      "midi": 66,
      "hit": false,
      "t": 203301,
      "d": 821.15625,
      "v": 101
    },
    {
      "midi": 67,
      "hit": false,
      "t": 204223,
      "d": 2290.59375,
      "v": 80
    },
    {
      "midi": 74,
      "hit": false,
      "t": 206528,
      "d": 206.48958333334303,
      "v": 100
    },
    {
      "midi": 67,
      "hit": false,
      "t": 206758.5,
      "d": 220.89583333334303,
      "v": 60
    },
    {
      "midi": 79,
      "hit": false,
      "t": 206989,
      "d": 806.75,
      "v": 95
    },
    {
      "midi": 69,
      "hit": false,
      "t": 208833,
      "d": 360.15625,
      "v": 80
    },
    {
      "midi": 67,
      "hit": false,
      "t": 209294,
      "d": 196.88541666665697,
      "v": 95
    },
    {
      "midi": 66,
      "hit": false,
      "t": 209524.5,
      "d": 240.10416666665697,
      "v": 89
    },
    {
      "midi": 62,
      "hit": false,
      "t": 209755,
      "d": 2866.84375,
      "v": 80
    },
    {
      "midi": 67,
      "hit": false,
      "t": 213904,
      "d": 211.29166666665697,
      "v": 95
    },
    {
      "midi": 69,
      "hit": false,
      "t": 214134.5,
      "d": 158.46875,
      "v": 72
    },
    {
      "midi": 71,
      "hit": false,
      "t": 214365,
      "d": 922,
      "v": 95
    },
    {
      "midi": 69,
      "hit": false,
      "t": 215287,
      "d": 2617.135416666657,
      "v": 69
    },
    {
      "midi": 66,
      "hit": false,
      "t": 218053,
      "d": 873.979166666657,
      "v": 96
    },
    {
      "midi": 67,
      "hit": false,
      "t": 218975,
      "d": 609.864583333343,
      "v": 72
    },
    {
      "midi": 67,
      "hit": false,
      "t": 219666.5,
      "d": 566.645833333343,
      "v": 60
    },
    {
      "midi": 67,
      "hit": false,
      "t": 220358,
      "d": 1301.364583333343,
      "v": 85
    },
    {
      "midi": 74,
      "hit": false,
      "t": 221741,
      "d": 235.30208333334303,
      "v": 85
    },
    {
      "midi": 71,
      "hit": false,
      "t": 221971.5,
      "d": 196.88541666668607,
      "v": 80
    },
    {
      "midi": 69,
      "hit": false,
      "t": 222202.00000000003,
      "d": 206.48958333334303,
      "v": 72
    },
    {
      "midi": 67,
      "hit": false,
      "t": 222432.50000000003,
      "d": 182.47916666665697,
      "v": 85
    },
    {
      "midi": 66,
      "hit": false,
      "t": 222663.00000000003,
      "d": 1531.864583333343,
      "v": 96
    },
    {
      "midi": 69,
      "hit": false,
      "t": 224737.50000000003,
      "d": 67.22916666665697,
      "v": 72
    },
    {
      "midi": 62,
      "hit": false,
      "t": 224737.50000000003,
      "d": 72.03125,
      "v": 76
    },
    {
      "midi": 60,
      "hit": false,
      "t": 225429.00000000003,
      "d": 811.552083333343,
      "v": 90
    },
    {
      "midi": 69,
      "hit": false,
      "t": 225429.00000000003,
      "d": 816.3541666666861,
      "v": 85
    },
    {
      "midi": 62,
      "hit": false,
      "t": 225429.00000000003,
      "d": 830.7604166666861,
      "v": 90
    },
    {
      "midi": 62,
      "hit": false,
      "t": 227042.50000000006,
      "d": 52.822916666656965,
      "v": 63
    },
    {
      "midi": 69,
      "hit": false,
      "t": 227273.00000000006,
      "d": 216.09375,
      "v": 104
    },
    {
      "midi": 67,
      "hit": false,
      "t": 227503.50000000006,
      "d": 163.27083333334303,
      "v": 69
    },
    {
      "midi": 62,
      "hit": false,
      "t": 227734.00000000006,
      "d": 134.45833333334303,
      "v": 58
    },
    {
      "midi": 71,
      "hit": false,
      "t": 227964.50000000006,
      "d": 893.1875,
      "v": 95
    },
    {
      "midi": 62,
      "hit": false,
      "t": 228886.50000000006,
      "d": 144.0625,
      "v": 50
    },
    {
      "midi": 67,
      "hit": false,
      "t": 229117.00000000006,
      "d": 436.98958333334303,
      "v": 95
    },
    {
      "midi": 62,
      "hit": false,
      "t": 230039.00000000006,
      "d": 806.75,
      "v": 56
    },
    {
      "midi": 64,
      "hit": false,
      "t": 230961.00000000006,
      "d": 206.48958333334303,
      "v": 76
    },
    {
      "midi": 62,
      "hit": false,
      "t": 231191.50000000006,
      "d": 120.05208333334303,
      "v": 20
    },
    {
      "midi": 66,
      "hit": false,
      "t": 231422.00000000006,
      "d": 158.46875,
      "v": 101
    },
    {
      "midi": 69,
      "hit": false,
      "t": 231652.50000000006,
      "d": 1973.65625,
      "v": 66
    },
    {
      "midi": 62,
      "hit": false,
      "t": 232805.00000000006,
      "d": 398.57291666665697,
      "v": 69
    },
    {
      "midi": 74,
      "hit": false,
      "t": 234188.00000000006,
      "d": 153.66666666665697,
      "v": 63
    },
    {
      "midi": 76,
      "hit": false,
      "t": 234418.50000000006,
      "d": 350.55208333334303,
      "v": 90
    },
    {
      "midi": 74,
      "hit": false,
      "t": 234879.50000000006,
      "d": 105.64583333334303,
      "v": 58
    },
    {
      "midi": 76,
      "hit": false,
      "t": 235110.00000000006,
      "d": 96.04166666665697,
      "v": 72
    },
    {
      "midi": 79,
      "hit": false,
      "t": 235340.50000000006,
      "d": 509.02083333334303,
      "v": 90
    },
    {
      "midi": 74,
      "hit": false,
      "t": 235801.50000000006,
      "d": 124.85416666668607,
      "v": 52
    },
    {
      "midi": 76,
      "hit": false,
      "t": 236032.0000000001,
      "d": 196.88541666665697,
      "v": 63
    },
    {
      "midi": 74,
      "hit": false,
      "t": 236262.5000000001,
      "d": 120.05208333334303,
      "v": 56
    },
    {
      "midi": 79,
      "hit": false,
      "t": 236493.0000000001,
      "d": 485.01041666665697,
      "v": 80
    },
    {
      "midi": 62,
      "hit": false,
      "t": 237991.2500000001,
      "d": 168.07291666665697,
      "v": 14
    },
    {
      "midi": 69,
      "hit": false,
      "t": 238337.0000000001,
      "d": 379.36458333334303,
      "v": 76
    },
    {
      "midi": 67,
      "hit": false,
      "t": 238798.0000000001,
      "d": 182.47916666665697,
      "v": 58
    },
    {
      "midi": 66,
      "hit": false,
      "t": 239028.5000000001,
      "d": 201.6875,
      "v": 96
    },
    {
      "midi": 62,
      "hit": false,
      "t": 239259.0000000001,
      "d": 1214.927083333343,
      "v": 90
    },
    {
      "midi": 67,
      "hit": false,
      "t": 241103.0000000001,
      "d": 379.36458333334303,
      "v": 95
    },
    {
      "midi": 69,
      "hit": false,
      "t": 241564.0000000001,
      "d": 182.47916666665697,
      "v": 72
    },
    {
      "midi": 71,
      "hit": false,
      "t": 241794.5000000001,
      "d": 124.85416666665697,
      "v": 72
    },
    {
      "midi": 64,
      "hit": false,
      "t": 242025.0000000001,
      "d": 753.927083333343,
      "v": 90
    },
    {
      "midi": 72,
      "hit": false,
      "t": 242025.0000000001,
      "d": 830.7604166666861,
      "v": 90
    },
    {
      "midi": 62,
      "hit": false,
      "t": 242947.00000000012,
      "d": 3615.96875,
      "v": 90
    },
    {
      "midi": 71,
      "hit": false,
      "t": 242947.00000000012,
      "d": 3635.177083333343,
      "v": 95
    }
  ]
}