{
  "jsonPath": "Soul/Funk/Cameo/word-up.json",
  "path": "Soul\\Funk\\Cameo\\Word Up.mid",
  "name": "Word Up",
  "difficulty": "Intermediate",
  "bpm": 105.00580157053678,
  "notes": [
    {
      "midi": 50,
      "hit": false,
      "t": 130278.516,
      "d": 392.8354374999908,
      "v": 127
    },
    {
      "midi": 69,
      "hit": false,
      "t": 130564.2145,
      "d": 71.42462499999965,
      "v": 121
    },
    {
      "midi": 74,
      "hit": false,
      "t": 130564.2145,
      "d": 74.4006510416657,
      "v": 115
    },
    {
      "midi": 66,
      "hit": false,
      "t": 130564.2145,
      "d": 80.35270312499779,
      "v": 121
    },
    {
      "midi": 66,
      "hit": false,
      "t": 130730.87195833333,
      "d": 151.77732812499744,
      "v": 112
    },
    {
      "midi": 74,
      "hit": false,
      "t": 130730.87195833333,
      "d": 157.72938020832953,
      "v": 104
    },
    {
      "midi": 69,
      "hit": false,
      "t": 130730.87195833333,
      "d": 172.60951041665976,
      "v": 114
    },
    {
      "midi": 54,
      "hit": false,
      "t": 130849.913,
      "d": 473.1881406249886,
      "v": 127
    },
    {
      "midi": 74,
      "hit": false,
      "t": 131135.6115,
      "d": 53.568468749988824,
      "v": 115
    },
    {
      "midi": 69,
      "hit": false,
      "t": 131135.6115,
      "d": 65.47257291665301,
      "v": 124
    },
    {
      "midi": 67,
      "hit": false,
      "t": 131135.6115,
      "d": 80.35270312498324,
      "v": 124
    },
    {
      "midi": 74,
      "hit": false,
      "t": 131302.26895833333,
      "d": 178.56156249999185,
      "v": 111
    },
    {
      "midi": 69,
      "hit": false,
      "t": 131302.26895833333,
      "d": 196.41771874998813,
      "v": 115
    },
    {
      "midi": 67,
      "hit": false,
      "t": 131302.26895833333,
      "d": 202.36977083332022,
      "v": 100
    },
    {
      "midi": 55,
      "hit": false,
      "t": 131421.31,
      "d": 461.2840364582953,
      "v": 127
    },
    {
      "midi": 74,
      "hit": false,
      "t": 131707.00849999997,
      "d": 56.54449479165487,
      "v": 116
    },
    {
      "midi": 67,
      "hit": false,
      "t": 131707.00849999997,
      "d": 65.47257291665301,
      "v": 124
    },
    {
      "midi": 71,
      "hit": false,
      "t": 131707.00849999997,
      "d": 68.44859895831905,
      "v": 121
    },
    {
      "midi": 74,
      "hit": false,
      "t": 131873.6659583333,
      "d": 187.48964062499,
      "v": 104
    },
    {
      "midi": 71,
      "hit": false,
      "t": 131873.6659583333,
      "d": 202.36977083332022,
      "v": 110
    },
    {
      "midi": 67,
      "hit": false,
      "t": 131873.6659583333,
      "d": 217.24990104165045,
      "v": 109
    },
    {
      "midi": 59,
      "hit": false,
      "t": 131992.70699999997,
      "d": 398.78748958327924,
      "v": 127
    },
    {
      "midi": 74,
      "hit": false,
      "t": 132278.40549999994,
      "d": 59.520520833320916,
      "v": 114
    },
    {
      "midi": 67,
      "hit": false,
      "t": 132278.40549999994,
      "d": 71.4246249999851,
      "v": 125
    },
    {
      "midi": 71,
      "hit": false,
      "t": 132278.40549999994,
      "d": 77.37667708331719,
      "v": 121
    },
    {
      "midi": 67,
      "hit": false,
      "t": 132445.06295833323,
      "d": 119.04104166667094,
      "v": 112
    },
    {
      "midi": 71,
      "hit": false,
      "t": 132445.06295833323,
      "d": 124.99309375000303,
      "v": 111
    },
    {
      "midi": 74,
      "hit": false,
      "t": 132445.06295833323,
      "d": 130.94514583333512,
      "v": 111
    },
    {
      "midi": 50,
      "hit": false,
      "t": 132564.1039999999,
      "d": 467.2360885416856,
      "v": 124
    },
    {
      "midi": 69,
      "hit": false,
      "t": 132849.8024999999,
      "d": 71.4246250000142,
      "v": 121
    },
    {
      "midi": 74,
      "hit": false,
      "t": 132849.8024999999,
      "d": 74.40065104168025,
      "v": 115
    },
    {
      "midi": 66,
      "hit": false,
      "t": 132849.8024999999,
      "d": 83.32872916667839,
      "v": 121
    },
    {
      "midi": 66,
      "hit": false,
      "t": 133016.45995833326,
      "d": 151.77732812499744,
      "v": 112
    },
    {
      "midi": 74,
      "hit": false,
      "t": 133016.45995833326,
      "d": 157.72938020832953,
      "v": 104
    },
    {
      "midi": 69,
      "hit": false,
      "t": 133016.45995833326,
      "d": 172.60951041665976,
      "v": 114
    },
    {
      "midi": 54,
      "hit": false,
      "t": 133135.50099999993,
      "d": 470.21211458332255,
      "v": 127
    },
    {
      "midi": 74,
      "hit": false,
      "t": 133421.19949999993,
      "d": 53.568468749988824,
      "v": 115
    },
    {
      "midi": 69,
      "hit": false,
      "t": 133421.19949999993,
      "d": 65.47257291665301,
      "v": 124
    },
    {
      "midi": 67,
      "hit": false,
      "t": 133421.19949999993,
      "d": 80.35270312498324,
      "v": 124
    },
    {
      "midi": 74,
      "hit": false,
      "t": 133587.85695833326,
      "d": 178.56156249999185,
      "v": 111
    },
    {
      "midi": 69,
      "hit": false,
      "t": 133587.85695833326,
      "d": 196.41771874998813,
      "v": 115
    },
    {
      "midi": 67,
      "hit": false,
      "t": 133587.85695833326,
      "d": 202.36977083332022,
      "v": 100
    },
    {
      "midi": 55,
      "hit": false,
      "t": 133706.89799999993,
      "d": 505.924427083286,
      "v": 127
    },
    {
      "midi": 74,
      "hit": false,
      "t": 133992.5964999999,
      "d": 56.54449479165487,
      "v": 116
    },
    {
      "midi": 67,
      "hit": false,
      "t": 133992.5964999999,
      "d": 65.47257291665301,
      "v": 124
    },
    {
      "midi": 71,
      "hit": false,
      "t": 133992.5964999999,
      "d": 68.44859895831905,
      "v": 121
    },
    {
      "midi": 74,
      "hit": false,
      "t": 134159.25395833323,
      "d": 187.48964062496088,
      "v": 104
    },
    {
      "midi": 71,
      "hit": false,
      "t": 134159.25395833323,
      "d": 202.3697708332911,
      "v": 110
    },
    {
      "midi": 67,
      "hit": false,
      "t": 134159.25395833323,
      "d": 217.24990104162134,
      "v": 109
    },
    {
      "midi": 59,
      "hit": false,
      "t": 134278.29499999987,
      "d": 437.47582812496694,
      "v": 127
    },
    {
      "midi": 74,
      "hit": false,
      "t": 134563.99349999984,
      "d": 59.520520833320916,
      "v": 114
    },
    {
      "midi": 67,
      "hit": false,
      "t": 134563.99349999984,
      "d": 71.4246249999851,
      "v": 125
    },
    {
      "midi": 71,
      "hit": false,
      "t": 134563.99349999984,
      "d": 77.37667708331719,
      "v": 121
    },
    {
      "midi": 67,
      "hit": false,
      "t": 134730.65095833316,
      "d": 119.04104166667094,
      "v": 112
    },
    {
      "midi": 71,
      "hit": false,
      "t": 134730.65095833316,
      "d": 122.01706770833698,
      "v": 111
    },
    {
      "midi": 74,
      "hit": false,
      "t": 134730.65095833316,
      "d": 127.96911979166907,
      "v": 111
    },
    {
      "midi": 50,
      "hit": false,
      "t": 134849.69199999984,
      "d": 479.1401927083498,
      "v": 127
    },
    {
      "midi": 69,
      "hit": false,
      "t": 135135.39049999983,
      "d": 71.4246250000142,
      "v": 121
    },
    {
      "midi": 74,
      "hit": false,
      "t": 135135.39049999983,
      "d": 74.40065104168025,
      "v": 115
    },
    {
      "midi": 66,
      "hit": false,
      "t": 135135.39049999983,
      "d": 83.32872916667839,
      "v": 121
    },
    {
      "midi": 66,
      "hit": false,
      "t": 135302.0479583332,
      "d": 151.77732812499744,
      "v": 112
    },
    {
      "midi": 74,
      "hit": false,
      "t": 135302.0479583332,
      "d": 157.72938020832953,
      "v": 104
    },
    {
      "midi": 69,
      "hit": false,
      "t": 135302.0479583332,
      "d": 172.60951041665976,
      "v": 114
    },
    {
      "midi": 54,
      "hit": false,
      "t": 135421.08899999986,
      "d": 476.16416666665464,
      "v": 127
    },
    {
      "midi": 74,
      "hit": false,
      "t": 135706.78749999986,
      "d": 53.568468749988824,
      "v": 115
    },
    {
      "midi": 69,
      "hit": false,
      "t": 135706.78749999986,
      "d": 65.47257291665301,
      "v": 124
    },
    {
      "midi": 67,
      "hit": false,
      "t": 135706.78749999986,
      "d": 80.35270312498324,
      "v": 124
    },
    {
      "midi": 74,
      "hit": false,
      "t": 135873.4449583332,
      "d": 178.56156249999185,
      "v": 111
    },
    {
      "midi": 69,
      "hit": false,
      "t": 135873.4449583332,
      "d": 196.41771874998813,
      "v": 115
    },
    {
      "midi": 67,
      "hit": false,
      "t": 135873.4449583332,
      "d": 202.36977083332022,
      "v": 100
    },
    {
      "midi": 55,
      "hit": false,
      "t": 135992.48599999986,
      "d": 491.04429687495576,
      "v": 127
    },
    {
      "midi": 74,
      "hit": false,
      "t": 136278.18449999983,
      "d": 56.54449479165487,
      "v": 116
    },
    {
      "midi": 67,
      "hit": false,
      "t": 136278.18449999983,
      "d": 65.47257291665301,
      "v": 124
    },
    {
      "midi": 71,
      "hit": false,
      "t": 136278.18449999983,
      "d": 68.44859895831905,
      "v": 121
    },
    {
      "midi": 74,
      "hit": false,
      "t": 136444.84195833316,
      "d": 187.48964062499,
      "v": 104
    },
    {
      "midi": 71,
      "hit": false,
      "t": 136444.84195833316,
      "d": 202.36977083332022,
      "v": 110
    },
    {
      "midi": 67,
      "hit": false,
      "t": 136444.84195833316,
      "d": 217.24990104165045,
      "v": 109
    },
    {
      "midi": 59,
      "hit": false,
      "t": 136563.88299999983,
      "d": 491.04429687495576,
      "v": 127
    },
    {
      "midi": 74,
      "hit": false,
      "t": 136849.5814999998,
      "d": 59.520520833320916,
      "v": 114
    },
    {
      "midi": 67,
      "hit": false,
      "t": 136849.5814999998,
      "d": 71.4246249999851,
      "v": 125
    },
    {
      "midi": 71,
      "hit": false,
      "t": 136849.5814999998,
      "d": 77.37667708331719,
      "v": 121
    },
    {
      "midi": 67,
      "hit": false,
      "t": 137016.23895833312,
      "d": 119.04104166667094,
      "v": 112
    },
    {
      "midi": 71,
      "hit": false,
      "t": 137016.23895833312,
      "d": 124.99309375000303,
      "v": 111
    },
    {
      "midi": 74,
      "hit": false,
      "t": 137016.23895833312,
      "d": 133.92117187500116,
      "v": 111
    },
    {
      "midi": 57,
      "hit": false,
      "t": 137159.08820833312,
      "d": 264.8663177083363,
      "v": 127
    },
    {
      "midi": 69,
      "hit": false,
      "t": 137420.9784999998,
      "d": 160.70540624999558,
      "v": 110
    },
    {
      "midi": 73,
      "hit": false,
      "t": 137420.9784999998,
      "d": 163.68143229166162,
      "v": 119
    },
    {
      "midi": 76,
      "hit": false,
      "t": 137420.9784999998,
      "d": 166.65745833332767,
      "v": 110
    },
    {
      "midi": 57,
      "hit": false,
      "t": 137587.63595833312,
      "d": 113.08898958333884,
      "v": 107
    },
    {
      "midi": 73,
      "hit": false,
      "t": 137706.6769999998,
      "d": 145.82527604166535,
      "v": 111
    },
    {
      "midi": 57,
      "hit": false,
      "t": 137706.6769999998,
      "d": 160.70540624999558,
      "v": 127
    },
    {
      "midi": 69,
      "hit": false,
      "t": 137706.6769999998,
      "d": 163.68143229166162,
      "v": 97
    },
    {
      "midi": 76,
      "hit": false,
      "t": 137706.6769999998,
      "d": 163.68143229166162,
      "v": 92
    },
    {
      "midi": 57,
      "hit": false,
      "t": 137873.33445833312,
      "d": 113.08898958333884,
      "v": 92
    },
    {
      "midi": 73,
      "hit": false,
      "t": 137992.3754999998,
      "d": 154.75335416666348,
      "v": 110
    },
    {
      "midi": 69,
      "hit": false,
      "t": 137992.3754999998,
      "d": 160.70540624999558,
      "v": 89
    },
    {
      "midi": 76,
      "hit": false,
      "t": 137992.3754999998,
      "d": 166.65745833332767,
      "v": 94
    },
    {
      "midi": 57,
      "hit": false,
      "t": 138159.03295833312,
      "d": 116.06501562500489,
      "v": 111
    },
    {
      "midi": 57,
      "hit": false,
      "t": 138278.0739999998,
      "d": 133.92117187500116,
      "v": 127
    },
    {
      "midi": 73,
      "hit": false,
      "t": 138278.0739999998,
      "d": 148.8013020833314,
      "v": 124
    },
    {
      "midi": 69,
      "hit": false,
      "t": 138278.0739999998,
      "d": 157.72938020832953,
      "v": 115
    },
    {
      "midi": 76,
      "hit": false,
      "t": 138278.0739999998,
      "d": 169.6334843749937,
      "v": 116
    }
  ]
}