{
  "jsonPath": "Country/Contemporary Country/Dixie Chicks/easy-silence.json",
  "path": "Country\\Contemporary Country\\Dixie Chicks\\Easy Silence.mid",
  "name": "Easy Silence",
  "difficulty": "Advanced",
  "bpm": 120,
  "notes": [
    {
      "midi": 62,
      "hit": false,
      "t": 2921.875,
      "d": 338.5416666666665,
      "v": 48
    },
    {
      "midi": 57,
      "hit": false,
      "t": 3270.833333333333,
      "d": 354.1666666666665,
      "v": 58
    },
    {
      "midi": 62,
      "hit": false,
      "t": 3635.416666666666,
      "d": 348.9583333333335,
      "v": 58
    },
    {
      "midi": 57,
      "hit": false,
      "t": 4005.208333333333,
      "d": 343.75,
      "v": 58
    },
    {
      "midi": 62,
      "hit": false,
      "t": 4354.166666666666,
      "d": 354.16666666666697,
      "v": 58
    },
    {
      "midi": 57,
      "hit": false,
      "t": 4713.541666666666,
      "d": 359.375,
      "v": 58
    },
    {
      "midi": 62,
      "hit": false,
      "t": 5083.333333333333,
      "d": 348.95833333333303,
      "v": 58
    },
    {
      "midi": 57,
      "hit": false,
      "t": 5442.708333333333,
      "d": 354.16666666666697,
      "v": 58
    },
    {
      "midi": 61,
      "hit": false,
      "t": 5807.291666666667,
      "d": 348.95833333333303,
      "v": 58
    },
    {
      "midi": 57,
      "hit": false,
      "t": 6161.458333333333,
      "d": 354.16666666666697,
      "v": 58
    },
    {
      "midi": 61,
      "hit": false,
      "t": 6526.041666666667,
      "d": 354.16666666666697,
      "v": 57
    },
    {
      "midi": 57,
      "hit": false,
      "t": 6890.625000000001,
      "d": 348.95833333333303,
      "v": 56
    },
    {
      "midi": 61,
      "hit": false,
      "t": 7244.791666666667,
      "d": 354.16666666666697,
      "v": 57
    },
    {
      "midi": 57,
      "hit": false,
      "t": 7609.375000000001,
      "d": 354.16666666666697,
      "v": 59
    },
    {
      "midi": 61,
      "hit": false,
      "t": 7973.958333333335,
      "d": 348.95833333333303,
      "v": 56
    },
    {
      "midi": 57,
      "hit": false,
      "t": 8333.333333333334,
      "d": 354.16666666666606,
      "v": 58
    },
    {
      "midi": 62,
      "hit": false,
      "t": 8703.125,
      "d": 343.75,
      "v": 59
    },
    {
      "midi": 59,
      "hit": false,
      "t": 9052.083333333334,
      "d": 354.16666666666606,
      "v": 60
    },
    {
      "midi": 62,
      "hit": false,
      "t": 9416.666666666666,
      "d": 354.16666666666606,
      "v": 60
    },
    {
      "midi": 74,
      "hit": false,
      "t": 9416.666666666666,
      "d": 1437.4999999999982,
      "v": 85
    },
    {
      "midi": 59,
      "hit": false,
      "t": 9781.249999999998,
      "d": 348.95833333333394,
      "v": 60
    },
    {
      "midi": 62,
      "hit": false,
      "t": 10135.416666666666,
      "d": 354.16666666666606,
      "v": 60
    },
    {
      "midi": 59,
      "hit": false,
      "t": 10499.999999999998,
      "d": 354.16666666666606,
      "v": 58
    },
    {
      "midi": 62,
      "hit": false,
      "t": 10864.58333333333,
      "d": 348.95833333333394,
      "v": 57
    },
    {
      "midi": 59,
      "hit": false,
      "t": 11223.95833333333,
      "d": 348.95833333333394,
      "v": 56
    },
    {
      "midi": 69,
      "hit": false,
      "t": 11588.541666666664,
      "d": 1432.2916666666679,
      "v": 82
    },
    {
      "midi": 62,
      "hit": false,
      "t": 11593.749999999998,
      "d": 343.75,
      "v": 56
    },
    {
      "midi": 59,
      "hit": false,
      "t": 11942.708333333332,
      "d": 359.375,
      "v": 56
    },
    {
      "midi": 62,
      "hit": false,
      "t": 12312.499999999998,
      "d": 348.95833333333394,
      "v": 56
    },
    {
      "midi": 59,
      "hit": false,
      "t": 12677.083333333332,
      "d": 343.75,
      "v": 57
    },
    {
      "midi": 62,
      "hit": false,
      "t": 13026.041666666666,
      "d": 354.16666666666606,
      "v": 59
    },
    {
      "midi": 59,
      "hit": false,
      "t": 13395.833333333332,
      "d": 348.95833333333394,
      "v": 62
    },
    {
      "midi": 62,
      "hit": false,
      "t": 13755.208333333332,
      "d": 354.16666666666606,
      "v": 63
    },
    {
      "midi": 59,
      "hit": false,
      "t": 14114.583333333332,
      "d": 359.375,
      "v": 66
    },
    {
      "midi": 62,
      "hit": false,
      "t": 14505.208333333332,
      "d": 322.91666666666606,
      "v": 66
    },
    {
      "midi": 57,
      "hit": false,
      "t": 14838.541666666664,
      "d": 354.16666666666606,
      "v": 65
    },
    {
      "midi": 62,
      "hit": false,
      "t": 15203.124999999996,
      "d": 348.95833333333394,
      "v": 65
    },
    {
      "midi": 57,
      "hit": false,
      "t": 15562.499999999996,
      "d": 348.95833333333394,
      "v": 63
    },
    {
      "midi": 62,
      "hit": false,
      "t": 15921.874999999996,
      "d": 354.16666666666606,
      "v": 60
    },
    {
      "midi": 57,
      "hit": false,
      "t": 16286.458333333328,
      "d": 348.9583333333321,
      "v": 60
    },
    {
      "midi": 62,
      "hit": false,
      "t": 16656.249999999993,
      "d": 343.75,
      "v": 60
    },
    {
      "midi": 57,
      "hit": false,
      "t": 17010.41666666666,
      "d": 348.9583333333321,
      "v": 61
    },
    {
      "midi": 61,
      "hit": false,
      "t": 17374.999999999993,
      "d": 343.75,
      "v": 61
    },
    {
      "midi": 57,
      "hit": false,
      "t": 17729.16666666666,
      "d": 354.1666666666679,
      "v": 61
    },
    {
      "midi": 61,
      "hit": false,
      "t": 18088.54166666666,
      "d": 359.375,
      "v": 61
    },
    {
      "midi": 57,
      "hit": false,
      "t": 18458.33333333333,
      "d": 343.75,
      "v": 62
    },
    {
      "midi": 61,
      "hit": false,
      "t": 18812.499999999996,
      "d": 354.1666666666679,
      "v": 63
    },
    {
      "midi": 57,
      "hit": false,
      "t": 19177.083333333332,
      "d": 348.9583333333321,
      "v": 63
    },
    {
      "midi": 61,
      "hit": false,
      "t": 19541.666666666664,
      "d": 343.75,
      "v": 64
    },
    {
      "midi": 57,
      "hit": false,
      "t": 19895.833333333332,
      "d": 359.375,
      "v": 64
    },
    {
      "midi": 59,
      "hit": false,
      "t": 20291.666666666664,
      "d": 317.7083333333321,
      "v": 64
    },
    {
      "midi": 55,
      "hit": false,
      "t": 20619.791666666664,
      "d": 354.1666666666679,
      "v": 64
    },
    {
      "midi": 59,
      "hit": false,
      "t": 20984.375,
      "d": 348.9583333333321,
      "v": 64
    },
    {
      "midi": 55,
      "hit": false,
      "t": 21348.958333333332,
      "d": 348.9583333333321,
      "v": 64
    },
    {
      "midi": 59,
      "hit": false,
      "t": 21703.124999999996,
      "d": 354.1666666666679,
      "v": 63
    },
    {
      "midi": 55,
      "hit": false,
      "t": 22067.708333333332,
      "d": 354.1666666666679,
      "v": 63
    },
    {
      "midi": 59,
      "hit": false,
      "t": 22432.291666666668,
      "d": 348.9583333333321,
      "v": 63
    },
    {
      "midi": 55,
      "hit": false,
      "t": 22786.458333333332,
      "d": 354.1666666666679,
      "v": 63
    },
    {
      "midi": 55,
      "hit": false,
      "t": 49187.5,
      "d": 2869.7916666666642,
      "v": 71
    },
    {
      "midi": 62,
      "hit": false,
      "t": 49187.5,
      "d": 2869.7916666666642,
      "v": 71
    },
    {
      "midi": 59,
      "hit": false,
      "t": 49187.5,
      "d": 2875,
      "v": 71
    },
    {
      "midi": 66,
      "hit": false,
      "t": 50796.875,
      "d": 354.16666666666424,
      "v": 80
    },
    {
      "midi": 67,
      "hit": false,
      "t": 50979.166666666664,
      "d": 1078.125,
      "v": 76
    },
    {
      "midi": 55,
      "hit": false,
      "t": 52067.708333333336,
      "d": 348.95833333333576,
      "v": 61
    },
    {
      "midi": 54,
      "hit": false,
      "t": 52432.29166666667,
      "d": 343.75,
      "v": 61
    },
    {
      "midi": 55,
      "hit": false,
      "t": 52791.66666666667,
      "d": 348.95833333333576,
      "v": 61
    },
    {
      "midi": 64,
      "hit": false,
      "t": 53161.45833333334,
      "d": 880.2083333333285,
      "v": 61
    },
    {
      "midi": 57,
      "hit": false,
      "t": 53875.00000000001,
      "d": 348.9583333333285,
      "v": 62
    },
    {
      "midi": 59,
      "hit": false,
      "t": 54234.375,
      "d": 354.16666666666424,
      "v": 64
    },
    {
      "midi": 57,
      "hit": false,
      "t": 54593.75,
      "d": 359.375,
      "v": 64
    },
    {
      "midi": 54,
      "hit": false,
      "t": 54963.541666666664,
      "d": 1432.2916666666715,
      "v": 82
    },
    {
      "midi": 57,
      "hit": false,
      "t": 54963.541666666664,
      "d": 1437.5000000000073,
      "v": 82
    },
    {
      "midi": 62,
      "hit": false,
      "t": 54968.75,
      "d": 1437.5000000000073,
      "v": 82
    },
    {
      "midi": 52,
      "hit": false,
      "t": 56416.66666666667,
      "d": 1427.0833333333358,
      "v": 77
    },
    {
      "midi": 69,
      "hit": false,
      "t": 56416.66666666667,
      "d": 1432.2916666666715,
      "v": 77
    },
    {
      "midi": 61,
      "hit": false,
      "t": 56416.66666666667,
      "d": 1437.5000000000073,
      "v": 77
    },
    {
      "midi": 54,
      "hit": false,
      "t": 57864.58333333334,
      "d": 343.75,
      "v": 77
    },
    {
      "midi": 59,
      "hit": false,
      "t": 57869.79166666668,
      "d": 328.125,
      "v": 79
    },
    {
      "midi": 62,
      "hit": false,
      "t": 57869.79166666668,
      "d": 1958.3333333333285,
      "v": 79
    },
    {
      "midi": 54,
      "hit": false,
      "t": 58208.33333333334,
      "d": 354.16666666666424,
      "v": 41
    },
    {
      "midi": 59,
      "hit": false,
      "t": 58578.12500000001,
      "d": 343.75,
      "v": 42
    },
    {
      "midi": 54,
      "hit": false,
      "t": 58932.29166666667,
      "d": 354.16666666666424,
      "v": 42
    },
    {
      "midi": 59,
      "hit": false,
      "t": 59473.958333333336,
      "d": 354.1666666666715,
      "v": 43
    },
    {
      "midi": 54,
      "hit": false,
      "t": 59651.04166666667,
      "d": 354.1666666666715,
      "v": 43
    },
    {
      "midi": 59,
      "hit": false,
      "t": 60020.83333333334,
      "d": 348.95833333333576,
      "v": 39
    },
    {
      "midi": 54,
      "hit": false,
      "t": 60375.000000000015,
      "d": 171.875,
      "v": 39
    },
    {
      "midi": 55,
      "hit": false,
      "t": 60744.79166666668,
      "d": 343.75,
      "v": 39
    },
    {
      "midi": 54,
      "hit": false,
      "t": 61104.16666666668,
      "d": 348.95833333333576,
      "v": 39
    },
    {
      "midi": 62,
      "hit": false,
      "t": 61463.54166666668,
      "d": 348.95833333333576,
      "v": 39
    },
    {
      "midi": 62,
      "hit": false,
      "t": 61828.125000000015,
      "d": 1072.9166666666715,
      "v": 39
    },
    {
      "midi": 59,
      "hit": false,
      "t": 62552.08333333335,
      "d": 354.1666666666715,
      "v": 38
    },
    {
      "midi": 52,
      "hit": false,
      "t": 62911.45833333336,
      "d": 718.75,
      "v": 38
    },
    {
      "midi": 55,
      "hit": false,
      "t": 63640.62500000002,
      "d": 343.75,
      "v": 38
    },
    {
      "midi": 54,
      "hit": false,
      "t": 63994.791666666686,
      "d": 348.95833333333576,
      "v": 38
    },
    {
      "midi": 55,
      "hit": false,
      "t": 64354.166666666686,
      "d": 354.16666666666424,
      "v": 38
    },
    {
      "midi": 64,
      "hit": false,
      "t": 64718.750000000015,
      "d": 1250.0000000000146,
      "v": 38
    },
    {
      "midi": 59,
      "hit": false,
      "t": 65437.500000000015,
      "d": 354.1666666666715,
      "v": 38
    },
    {
      "midi": 55,
      "hit": false,
      "t": 65802.08333333336,
      "d": 713.5416666666715,
      "v": 38
    },
    {
      "midi": 69,
      "hit": false,
      "t": 66531.25000000003,
      "d": 2692.7083333333285,
      "v": 50
    },
    {
      "midi": 61,
      "hit": false,
      "t": 66536.45833333336,
      "d": 2145.8333333333285,
      "v": 50
    },
    {
      "midi": 64,
      "hit": false,
      "t": 66536.45833333336,
      "d": 2145.8333333333285,
      "v": 50
    },
    {
      "midi": 57,
      "hit": false,
      "t": 66536.45833333336,
      "d": 2505.2083333333285,
      "v": 50
    },
    {
      "midi": 74,
      "hit": false,
      "t": 69052.08333333336,
      "d": 354.1666666666715,
      "v": 110
    },
    {
      "midi": 73,
      "hit": false,
      "t": 69416.6666666667,
      "d": 1432.2916666666715,
      "v": 80
    },
    {
      "midi": 62,
      "hit": false,
      "t": 72322.9166666667,
      "d": 333.3333333333285,
      "v": 38
    },
    {
      "midi": 81,
      "hit": false,
      "t": 72322.9166666667,
      "d": 2145.8333333333285,
      "v": 38
    },
    {
      "midi": 86,
      "hit": false,
      "t": 72322.9166666667,
      "d": 2151.041666666657,
      "v": 70
    },
    {
      "midi": 57,
      "hit": false,
      "t": 72677.08333333336,
      "d": 343.75,
      "v": 38
    },
    {
      "midi": 62,
      "hit": false,
      "t": 73031.25000000003,
      "d": 348.9583333333285,
      "v": 38
    },
    {
      "midi": 57,
      "hit": false,
      "t": 73395.83333333336,
      "d": 343.75,
      "v": 38
    },
    {
      "midi": 62,
      "hit": false,
      "t": 73750.00000000003,
      "d": 354.1666666666715,
      "v": 38
    },
    {
      "midi": 57,
      "hit": false,
      "t": 74119.7916666667,
      "d": 354.16666666665697,
      "v": 38
    },
    {
      "midi": 62,
      "hit": false,
      "t": 74479.16666666669,
      "d": 348.9583333333285,
      "v": 38
    },
    {
      "midi": 57,
      "hit": false,
      "t": 74843.75000000001,
      "d": 343.75,
      "v": 67
    },
    {
      "midi": 61,
      "hit": false,
      "t": 75213.54166666669,
      "d": 333.3333333333285,
      "v": 38
    },
    {
      "midi": 78,
      "hit": false,
      "t": 75213.54166666669,
      "d": 2145.8333333333285,
      "v": 38
    },
    {
      "midi": 81,
      "hit": false,
      "t": 75213.54166666669,
      "d": 2145.8333333333285,
      "v": 38
    },
    {
      "midi": 57,
      "hit": false,
      "t": 75562.50000000001,
      "d": 348.9583333333285,
      "v": 38
    },
    {
      "midi": 61,
      "hit": false,
      "t": 75927.08333333334,
      "d": 348.9583333333285,
      "v": 38
    },
    {
      "midi": 57,
      "hit": false,
      "t": 76281.25,
      "d": 348.9583333333285,
      "v": 38
    },
    {
      "midi": 61,
      "hit": false,
      "t": 76640.625,
      "d": 354.1666666666715,
      "v": 38
    },
    {
      "midi": 57,
      "hit": false,
      "t": 77005.20833333334,
      "d": 354.1666666666715,
      "v": 38
    },
    {
      "midi": 61,
      "hit": false,
      "t": 77364.58333333334,
      "d": 354.1666666666715,
      "v": 38
    },
    {
      "midi": 57,
      "hit": false,
      "t": 77739.58333333334,
      "d": 338.5416666666715,
      "v": 38
    },
    {
      "midi": 78,
      "hit": false,
      "t": 78125.00000000001,
      "d": 2135.416666666657,
      "v": 38
    },
    {
      "midi": 83,
      "hit": false,
      "t": 78125.00000000001,
      "d": 2135.416666666657,
      "v": 68
    },
    {
      "midi": 62,
      "hit": false,
      "t": 78130.20833333334,
      "d": 307.2916666666715,
      "v": 38
    },
    {
      "midi": 59,
      "hit": false,
      "t": 78453.12500000001,
      "d": 354.1666666666715,
      "v": 37
    },
    {
      "midi": 62,
      "hit": false,
      "t": 78812.50000000001,
      "d": 348.9583333333285,
      "v": 37
    },
    {
      "midi": 74,
      "hit": false,
      "t": 78812.50000000001,
      "d": 1437.4999999999854,
      "v": 37
    },
    {
      "midi": 59,
      "hit": false,
      "t": 79177.08333333334,
      "d": 348.9583333333285,
      "v": 37
    },
    {
      "midi": 62,
      "hit": false,
      "t": 79531.25,
      "d": 354.1666666666715,
      "v": 37
    },
    {
      "midi": 59,
      "hit": false,
      "t": 79901.04166666667,
      "d": 348.9583333333285,
      "v": 37
    },
    {
      "midi": 62,
      "hit": false,
      "t": 80265.625,
      "d": 343.75,
      "v": 37
    },
    {
      "midi": 59,
      "hit": false,
      "t": 80619.79166666667,
      "d": 348.9583333333285,
      "v": 39
    },
    {
      "midi": 59,
      "hit": false,
      "t": 80989.58333333333,
      "d": 343.75,
      "v": 37
    },
    {
      "midi": 74,
      "hit": false,
      "t": 80989.58333333333,
      "d": 2151.041666666686,
      "v": 71
    },
    {
      "midi": 79,
      "hit": false,
      "t": 80989.58333333333,
      "d": 2151.041666666686,
      "v": 68
    },
    {
      "midi": 55,
      "hit": false,
      "t": 81343.75,
      "d": 348.9583333333285,
      "v": 41
    },
    {
      "midi": 59,
      "hit": false,
      "t": 81703.125,
      "d": 354.1666666666715,
      "v": 41
    },
    {
      "midi": 55,
      "hit": false,
      "t": 82078.125,
      "d": 338.5416666666715,
      "v": 39
    },
    {
      "midi": 59,
      "hit": false,
      "t": 82427.08333333334,
      "d": 354.1666666666715,
      "v": 39
    },
    {
      "midi": 55,
      "hit": false,
      "t": 82796.87500000001,
      "d": 343.75,
      "v": 38
    },
    {
      "midi": 59,
      "hit": false,
      "t": 83151.04166666669,
      "d": 354.1666666666715,
      "v": 38
    },
    {
      "midi": 55,
      "hit": false,
      "t": 83510.41666666669,
      "d": 359.375,
      "v": 43
    },
    {
      "midi": 62,
      "hit": false,
      "t": 83880.20833333336,
      "d": 343.75,
      "v": 38
    },
    {
      "midi": 86,
      "hit": false,
      "t": 83880.20833333336,
      "d": 2151.041666666686,
      "v": 70
    },
    {
      "midi": 81,
      "hit": false,
      "t": 83880.20833333336,
      "d": 2156.2500000000146,
      "v": 38
    },
    {
      "midi": 57,
      "hit": false,
      "t": 84234.37500000003,
      "d": 348.9583333333285,
      "v": 38
    },
    {
      "midi": 62,
      "hit": false,
      "t": 84593.75000000003,
      "d": 354.1666666666715,
      "v": 38
    },
    {
      "midi": 57,
      "hit": false,
      "t": 84958.33333333337,
      "d": 348.9583333333285,
      "v": 38
    },
    {
      "midi": 62,
      "hit": false,
      "t": 85317.70833333337,
      "d": 354.1666666666715,
      "v": 38
    },
    {
      "midi": 57,
      "hit": false,
      "t": 85687.50000000004,
      "d": 343.75,
      "v": 38
    },
    {
      "midi": 62,
      "hit": false,
      "t": 86041.6666666667,
      "d": 354.1666666666715,
      "v": 38
    },
    {
      "midi": 57,
      "hit": false,
      "t": 86411.45833333337,
      "d": 343.75,
      "v": 67
    },
    {
      "midi": 81,
      "hit": false,
      "t": 86770.83333333337,
      "d": 2151.0416666666715,
      "v": 38
    },
    {
      "midi": 78,
      "hit": false,
      "t": 86770.83333333337,
      "d": 2156.25,
      "v": 38
    },
    {
      "midi": 61,
      "hit": false,
      "t": 86776.0416666667,
      "d": 338.5416666666715,
      "v": 38
    },
    {
      "midi": 57,
      "hit": false,
      "t": 87130.20833333337,
      "d": 343.75,
      "v": 38
    },
    {
      "midi": 61,
      "hit": false,
      "t": 87489.58333333337,
      "d": 348.9583333333285,
      "v": 38
    },
    {
      "midi": 57,
      "hit": false,
      "t": 87848.95833333337,
      "d": 348.9583333333285,
      "v": 38
    },
    {
      "midi": 61,
      "hit": false,
      "t": 88208.33333333337,
      "d": 354.1666666666715,
      "v": 38
    },
    {
      "midi": 57,
      "hit": false,
      "t": 88578.12500000004,
      "d": 343.75,
      "v": 38
    },
    {
      "midi": 61,
      "hit": false,
      "t": 88932.2916666667,
      "d": 354.1666666666715,
      "v": 38
    },
    {
      "midi": 57,
      "hit": false,
      "t": 89291.6666666667,
      "d": 354.1666666666715,
      "v": 38
    },
    {
      "midi": 74,
      "hit": false,
      "t": 89666.6666666667,
      "d": 2145.8333333333285,
      "v": 38
    },
    {
      "midi": 78,
      "hit": false,
      "t": 89666.6666666667,
      "d": 2151.041666666657,
      "v": 38
    },
    {
      "midi": 59,
      "hit": false,
      "t": 89671.87500000003,
      "d": 333.3333333333285,
      "v": 41
    },
    {
      "midi": 71,
      "hit": false,
      "t": 89671.87500000003,
      "d": 2145.8333333333285,
      "v": 38
    },
    {
      "midi": 55,
      "hit": false,
      "t": 90020.83333333336,
      "d": 1447.9166666666715,
      "v": 100
    },
    {
      "midi": 57,
      "hit": false,
      "t": 90385.41666666669,
      "d": 2156.25,
      "v": 100
    },
    {
      "midi": 62,
      "hit": false,
      "t": 90744.79166666669,
      "d": 2515.625,
      "v": 100
    },
    {
      "midi": 59,
      "hit": false,
      "t": 91098.95833333336,
      "d": 354.1666666666715,
      "v": 41
    },
    {
      "midi": 55,
      "hit": false,
      "t": 91468.75000000003,
      "d": 348.9583333333285,
      "v": 41
    },
    {
      "midi": 59,
      "hit": false,
      "t": 91828.12500000003,
      "d": 343.75,
      "v": 41
    },
    {
      "midi": 55,
      "hit": false,
      "t": 92192.70833333336,
      "d": 343.75,
      "v": 41
    },
    {
      "midi": 59,
      "hit": false,
      "t": 92552.08333333336,
      "d": 343.75,
      "v": 41
    },
    {
      "midi": 71,
      "hit": false,
      "t": 92552.08333333336,
      "d": 2156.25,
      "v": 38
    },
    {
      "midi": 74,
      "hit": false,
      "t": 92552.08333333336,
      "d": 2156.25,
      "v": 38
    },
    {
      "midi": 78,
      "hit": false,
      "t": 92552.08333333336,
      "d": 2156.25,
      "v": 38
    },
    {
      "midi": 55,
      "hit": false,
      "t": 92911.45833333336,
      "d": 890.625,
      "v": 57
    },
    {
      "midi": 57,
      "hit": false,
      "t": 93276.04166666669,
      "d": 885.4166666666715,
      "v": 58
    },
    {
      "midi": 57,
      "hit": false,
      "t": 95447.91666666669,
      "d": 1968.75,
      "v": 50
    },
    {
      "midi": 62,
      "hit": false,
      "t": 95453.12500000001,
      "d": 1963.5416666666715,
      "v": 50
    },
    {
      "midi": 66,
      "hit": false,
      "t": 95453.12500000001,
      "d": 1963.5416666666715,
      "v": 50
    },
    {
      "midi": 74,
      "hit": false,
      "t": 95453.12500000001,
      "d": 1963.5416666666715,
      "v": 50
    },
    {
      "midi": 57,
      "hit": false,
      "t": 98338.54166666669,
      "d": 2328.125,
      "v": 52
    },
    {
      "midi": 64,
      "hit": false,
      "t": 98338.54166666669,
      "d": 2692.7083333333285,
      "v": 52
    },
    {
      "midi": 69,
      "hit": false,
      "t": 98338.54166666669,
      "d": 2692.7083333333285,
      "v": 52
    },
    {
      "midi": 62,
      "hit": false,
      "t": 101234.37500000001,
      "d": 2505.2083333333285,
      "v": 52
    },
    {
      "midi": 71,
      "hit": false,
      "t": 101234.37500000001,
      "d": 2505.2083333333285,
      "v": 52
    },
    {
      "midi": 59,
      "hit": false,
      "t": 101234.37500000001,
      "d": 2510.416666666657,
      "v": 52
    },
    {
      "midi": 59,
      "hit": false,
      "t": 104119.79166666667,
      "d": 2515.625,
      "v": 71
    },
    {
      "midi": 67,
      "hit": false,
      "t": 104119.79166666667,
      "d": 2515.625,
      "v": 71
    },
    {
      "midi": 71,
      "hit": false,
      "t": 104119.79166666667,
      "d": 2515.625,
      "v": 71
    },
    {
      "midi": 76,
      "hit": false,
      "t": 106645.83333333334,
      "d": 348.9583333333285,
      "v": 58
    },
    {
      "midi": 81,
      "hit": false,
      "t": 107026.04166666667,
      "d": 328.125,
      "v": 70
    },
    {
      "midi": 86,
      "hit": false,
      "t": 107026.04166666667,
      "d": 708.3333333333285,
      "v": 70
    },
    {
      "midi": 76,
      "hit": false,
      "t": 107734.375,
      "d": 343.75,
      "v": 70
    },
    {
      "midi": 81,
      "hit": false,
      "t": 107734.375,
      "d": 348.9583333333285,
      "v": 70
    },
    {
      "midi": 86,
      "hit": false,
      "t": 107734.375,
      "d": 348.9583333333285,
      "v": 70
    },
    {
      "midi": 85,
      "hit": false,
      "t": 108093.75,
      "d": 343.75,
      "v": 69
    },
    {
      "midi": 81,
      "hit": false,
      "t": 108817.70833333333,
      "d": 343.75,
      "v": 71
    },
    {
      "midi": 86,
      "hit": false,
      "t": 108817.70833333333,
      "d": 343.75,
      "v": 71
    },
    {
      "midi": 76,
      "hit": false,
      "t": 108817.70833333333,
      "d": 348.9583333333285,
      "v": 71
    },
    {
      "midi": 85,
      "hit": false,
      "t": 109177.08333333333,
      "d": 348.9583333333285,
      "v": 71
    },
    {
      "midi": 76,
      "hit": false,
      "t": 109541.66666666666,
      "d": 343.75,
      "v": 57
    },
    {
      "midi": 81,
      "hit": false,
      "t": 109901.04166666666,
      "d": 526.0416666666715,
      "v": 75
    },
    {
      "midi": 76,
      "hit": false,
      "t": 110260.41666666666,
      "d": 348.95833333334303,
      "v": 68
    },
    {
      "midi": 81,
      "hit": false,
      "t": 110619.79166666667,
      "d": 1432.2916666666715,
      "v": 68
    },
    {
      "midi": 85,
      "hit": false,
      "t": 110989.58333333334,
      "d": 343.75,
      "v": 68
    },
    {
      "midi": 76,
      "hit": false,
      "t": 112062.50000000001,
      "d": 718.75,
      "v": 66
    },
    {
      "midi": 81,
      "hit": false,
      "t": 112062.50000000001,
      "d": 723.9583333333285,
      "v": 66
    },
    {
      "midi": 62,
      "hit": false,
      "t": 112812.50000000001,
      "d": 2494.7916666666715,
      "v": 52
    },
    {
      "midi": 71,
      "hit": false,
      "t": 112812.50000000001,
      "d": 2494.7916666666715,
      "v": 52
    },
    {
      "midi": 59,
      "hit": false,
      "t": 112812.50000000001,
      "d": 2500,
      "v": 52
    },
    {
      "midi": 71,
      "hit": false,
      "t": 115687.50000000001,
      "d": 2510.4166666666715,
      "v": 71
    },
    {
      "midi": 59,
      "hit": false,
      "t": 115687.50000000001,
      "d": 2515.625,
      "v": 71
    },
    {
      "midi": 67,
      "hit": false,
      "t": 115687.50000000001,
      "d": 2515.625,
      "v": 71
    },
    {
      "midi": 76,
      "hit": false,
      "t": 118583.33333333334,
      "d": 2328.1249999999854,
      "v": 70
    },
    {
      "midi": 64,
      "hit": false,
      "t": 118583.33333333334,
      "d": 2687.4999999999854,
      "v": 70
    },
    {
      "midi": 73,
      "hit": false,
      "t": 118588.54166666667,
      "d": 2317.7083333333285,
      "v": 70
    },
    {
      "midi": 69,
      "hit": false,
      "t": 118588.54166666667,
      "d": 2499.9999999999854,
      "v": 70
    },
    {
      "midi": 62,
      "hit": false,
      "t": 121468.75,
      "d": 2875,
      "v": 71
    },
    {
      "midi": 55,
      "hit": false,
      "t": 121473.95833333333,
      "d": 2869.7916666666715,
      "v": 71
    },
    {
      "midi": 59,
      "hit": false,
      "t": 121473.95833333333,
      "d": 2875,
      "v": 71
    },
    {
      "midi": 55,
      "hit": false,
      "t": 124354.16666666666,
      "d": 348.9583333333285,
      "v": 61
    },
    {
      "midi": 54,
      "hit": false,
      "t": 124713.54166666666,
      "d": 348.9583333333285,
      "v": 61
    },
    {
      "midi": 55,
      "hit": false,
      "t": 125072.91666666666,
      "d": 354.1666666666715,
      "v": 61
    },
    {
      "midi": 64,
      "hit": false,
      "t": 125447.91666666666,
      "d": 880.208333333343,
      "v": 61
    },
    {
      "midi": 57,
      "hit": false,
      "t": 126161.45833333333,
      "d": 348.95833333334303,
      "v": 62
    },
    {
      "midi": 59,
      "hit": false,
      "t": 126526.04166666667,
      "d": 348.9583333333285,
      "v": 64
    },
    {
      "midi": 57,
      "hit": false,
      "t": 126890.625,
      "d": 354.1666666666715,
      "v": 64
    },
    {
      "midi": 57,
      "hit": false,
      "t": 127255.20833333334,
      "d": 1432.2916666666715,
      "v": 82
    },
    {
      "midi": 54,
      "hit": false,
      "t": 127255.20833333334,
      "d": 1437.5,
      "v": 82
    },
    {
      "midi": 62,
      "hit": false,
      "t": 127255.20833333334,
      "d": 1437.5,
      "v": 82
    },
    {
      "midi": 52,
      "hit": false,
      "t": 128703.12500000001,
      "d": 1427.0833333333285,
      "v": 77
    },
    {
      "midi": 61,
      "hit": false,
      "t": 128703.12500000001,
      "d": 1432.291666666657,
      "v": 77
    },
    {
      "midi": 69,
      "hit": false,
      "t": 128703.12500000001,
      "d": 1437.4999999999854,
      "v": 77
    },
    {
      "midi": 59,
      "hit": false,
      "t": 130151.04166666667,
      "d": 5.208333333328483,
      "v": 77
    },
    {
      "midi": 54,
      "hit": false,
      "t": 130151.04166666667,
      "d": 343.75,
      "v": 77
    },
    {
      "midi": 59,
      "hit": false,
      "t": 130156.25,
      "d": 328.125,
      "v": 79
    },
    {
      "midi": 62,
      "hit": false,
      "t": 130156.25,
      "d": 1958.333333333343,
      "v": 79
    },
    {
      "midi": 54,
      "hit": false,
      "t": 130505.20833333334,
      "d": 343.75,
      "v": 41
    },
    {
      "midi": 59,
      "hit": false,
      "t": 130859.37500000001,
      "d": 348.9583333333285,
      "v": 42
    },
    {
      "midi": 54,
      "hit": false,
      "t": 131223.95833333334,
      "d": 348.95833333334303,
      "v": 42
    },
    {
      "midi": 59,
      "hit": false,
      "t": 131755.20833333334,
      "d": 359.375,
      "v": 43
    },
    {
      "midi": 54,
      "hit": false,
      "t": 131942.70833333334,
      "d": 354.16666666665697,
      "v": 43
    },
    {
      "midi": 59,
      "hit": false,
      "t": 132302.08333333334,
      "d": 354.16666666665697,
      "v": 39
    },
    {
      "midi": 54,
      "hit": false,
      "t": 132666.66666666666,
      "d": 166.66666666665697,
      "v": 39
    },
    {
      "midi": 55,
      "hit": false,
      "t": 133031.24999999997,
      "d": 343.75,
      "v": 39
    },
    {
      "midi": 54,
      "hit": false,
      "t": 133390.62499999997,
      "d": 348.95833333334303,
      "v": 39
    },
    {
      "midi": 62,
      "hit": false,
      "t": 133755.2083333333,
      "d": 343.75,
      "v": 39
    },
    {
      "midi": 62,
      "hit": false,
      "t": 134119.79166666666,
      "d": 1062.5,
      "v": 39
    },
    {
      "midi": 59,
      "hit": false,
      "t": 134833.3333333333,
      "d": 359.375,
      "v": 38
    },
    {
      "midi": 62,
      "hit": false,
      "t": 135927.0833333333,
      "d": 2510.416666666657,
      "v": 81
    },
    {
      "midi": 59,
      "hit": false,
      "t": 135932.29166666666,
      "d": 1963.541666666657,
      "v": 81
    },
    {
      "midi": 55,
      "hit": false,
      "t": 135932.29166666666,
      "d": 2322.916666666657,
      "v": 81
    },
    {
      "midi": 71,
      "hit": false,
      "t": 139895.8333333333,
      "d": 348.95833333334303,
      "v": 73
    },
    {
      "midi": 74,
      "hit": false,
      "t": 139895.8333333333,
      "d": 348.95833333334303,
      "v": 98
    },
    {
      "midi": 69,
      "hit": false,
      "t": 140260.41666666666,
      "d": 343.75,
      "v": 73
    },
    {
      "midi": 73,
      "hit": false,
      "t": 140260.41666666666,
      "d": 1067.708333333343,
      "v": 73
    },
    {
      "midi": 81,
      "hit": false,
      "t": 141713.54166666666,
      "d": 2156.250000000029,
      "v": 47
    },
    {
      "midi": 62,
      "hit": false,
      "t": 141718.75,
      "d": 333.33333333334303,
      "v": 79
    },
    {
      "midi": 86,
      "hit": false,
      "t": 141718.75,
      "d": 2140.625,
      "v": 79
    },
    {
      "midi": 57,
      "hit": false,
      "t": 142062.5,
      "d": 348.95833333334303,
      "v": 47
    },
    {
      "midi": 62,
      "hit": false,
      "t": 142427.08333333334,
      "d": 354.16666666665697,
      "v": 52
    },
    {
      "midi": 57,
      "hit": false,
      "t": 142791.66666666666,
      "d": 343.75,
      "v": 52
    },
    {
      "midi": 62,
      "hit": false,
      "t": 143140.625,
      "d": 354.16666666665697,
      "v": 52
    },
    {
      "midi": 57,
      "hit": false,
      "t": 143510.41666666666,
      "d": 354.16666666668607,
      "v": 52
    },
    {
      "midi": 62,
      "hit": false,
      "t": 143869.7916666667,
      "d": 354.16666666665697,
      "v": 51
    },
    {
      "midi": 57,
      "hit": false,
      "t": 144244.7916666667,
      "d": 348.95833333334303,
      "v": 50
    },
    {
      "midi": 81,
      "hit": false,
      "t": 144604.1666666667,
      "d": 2151.041666666686,
      "v": 70
    },
    {
      "midi": 61,
      "hit": false,
      "t": 144609.37500000003,
      "d": 333.33333333334303,
      "v": 38
    },
    {
      "midi": 78,
      "hit": false,
      "t": 144609.37500000003,
      "d": 2145.833333333343,
      "v": 38
    },
    {
      "midi": 57,
      "hit": false,
      "t": 144953.12500000003,
      "d": 354.16666666665697,
      "v": 50
    },
    {
      "midi": 61,
      "hit": false,
      "t": 145312.50000000003,
      "d": 359.375,
      "v": 50
    },
    {
      "midi": 57,
      "hit": false,
      "t": 145677.08333333337,
      "d": 348.95833333334303,
      "v": 50
    },
    {
      "midi": 61,
      "hit": false,
      "t": 146036.45833333337,
      "d": 354.16666666665697,
      "v": 51
    },
    {
      "midi": 57,
      "hit": false,
      "t": 146401.0416666667,
      "d": 348.95833333334303,
      "v": 51
    },
    {
      "midi": 61,
      "hit": false,
      "t": 146760.41666666672,
      "d": 354.16666666665697,
      "v": 51
    },
    {
      "midi": 57,
      "hit": false,
      "t": 147130.20833333337,
      "d": 359.375,
      "v": 57
    },
    {
      "midi": 62,
      "hit": false,
      "t": 147505.20833333337,
      "d": 328.125,
      "v": 38
    },
    {
      "midi": 83,
      "hit": false,
      "t": 147505.20833333337,
      "d": 2140.624999999971,
      "v": 68
    },
    {
      "midi": 78,
      "hit": false,
      "t": 147505.20833333337,
      "d": 2151.041666666657,
      "v": 38
    },
    {
      "midi": 59,
      "hit": false,
      "t": 147843.75000000003,
      "d": 359.375,
      "v": 37
    },
    {
      "midi": 62,
      "hit": false,
      "t": 148213.5416666667,
      "d": 343.75,
      "v": 56
    },
    {
      "midi": 74,
      "hit": false,
      "t": 148213.5416666667,
      "d": 1432.291666666657,
      "v": 56
    },
    {
      "midi": 59,
      "hit": false,
      "t": 148572.9166666667,
      "d": 343.75,
      "v": 58
    },
    {
      "midi": 62,
      "hit": false,
      "t": 148927.08333333334,
      "d": 359.375,
      "v": 58
    },
    {
      "midi": 59,
      "hit": false,
      "t": 149296.875,
      "d": 354.16666666668607,
      "v": 58
    },
    {
      "midi": 62,
      "hit": false,
      "t": 149661.45833333337,
      "d": 343.75,
      "v": 58
    },
    {
      "midi": 59,
      "hit": false,
      "t": 150015.62500000003,
      "d": 348.95833333334303,
      "v": 58
    },
    {
      "midi": 59,
      "hit": false,
      "t": 150385.41666666672,
      "d": 343.75,
      "v": 80
    },
    {
      "midi": 74,
      "hit": false,
      "t": 150385.41666666672,
      "d": 2151.041666666686,
      "v": 50
    },
    {
      "midi": 79,
      "hit": false,
      "t": 150385.41666666672,
      "d": 2156.250000000029,
      "v": 80
    },
    {
      "midi": 55,
      "hit": false,
      "t": 150739.58333333337,
      "d": 348.95833333334303,
      "v": 60
    },
    {
      "midi": 59,
      "hit": false,
      "t": 151104.16666666672,
      "d": 343.75,
      "v": 61
    },
    {
      "midi": 55,
      "hit": false,
      "t": 151468.75000000006,
      "d": 343.75,
      "v": 62
    },
    {
      "midi": 59,
      "hit": false,
      "t": 151817.7083333334,
      "d": 359.375,
      "v": 62
    },
    {
      "midi": 55,
      "hit": false,
      "t": 152192.7083333334,
      "d": 343.75,
      "v": 63
    },
    {
      "midi": 59,
      "hit": false,
      "t": 152546.8750000001,
      "d": 348.95833333334303,
      "v": 65
    },
    {
      "midi": 55,
      "hit": false,
      "t": 152911.45833333343,
      "d": 348.95833333334303,
      "v": 66
    },
    {
      "midi": 62,
      "hit": false,
      "t": 153291.66666666677,
      "d": 328.125,
      "v": 38
    },
    {
      "midi": 81,
      "hit": false,
      "t": 153291.66666666677,
      "d": 2135.416666666657,
      "v": 38
    },
    {
      "midi": 86,
      "hit": false,
      "t": 153291.66666666677,
      "d": 2135.416666666657,
      "v": 70
    },
    {
      "midi": 57,
      "hit": false,
      "t": 153630.20833333343,
      "d": 718.75,
      "v": 100
    },
    {
      "midi": 62,
      "hit": false,
      "t": 153989.58333333343,
      "d": 354.16666666665697,
      "v": 99
    },
    {
      "midi": 62,
      "hit": false,
      "t": 154354.16666666677,
      "d": 713.541666666657,
      "v": 98
    },
    {
      "midi": 66,
      "hit": false,
      "t": 154354.16666666677,
      "d": 713.541666666657,
      "v": 98
    },
    {
      "midi": 57,
      "hit": false,
      "t": 155072.91666666677,
      "d": 713.541666666657,
      "v": 81
    },
    {
      "midi": 62,
      "hit": false,
      "t": 155437.5000000001,
      "d": 718.75,
      "v": 81
    },
    {
      "midi": 61,
      "hit": false,
      "t": 156166.66666666674,
      "d": 343.75,
      "v": 78
    },
    {
      "midi": 64,
      "hit": false,
      "t": 156166.66666666674,
      "d": 703.125,
      "v": 78
    },
    {
      "midi": 57,
      "hit": false,
      "t": 156520.8333333334,
      "d": 354.16666666668607,
      "v": 38
    },
    {
      "midi": 61,
      "hit": false,
      "t": 156885.41666666674,
      "d": 166.66666666665697,
      "v": 126
    },
    {
      "midi": 62,
      "hit": false,
      "t": 156994.79166666674,
      "d": 177.08333333334303,
      "v": 126
    },
    {
      "midi": 61,
      "hit": false,
      "t": 157057.29166666674,
      "d": 1260.416666666686,
      "v": 126
    },
    {
      "midi": 74,
      "hit": false,
      "t": 159062.5000000001,
      "d": 1802.083333333343,
      "v": 38
    },
    {
      "midi": 71,
      "hit": false,
      "t": 159062.5000000001,
      "d": 2145.833333333343,
      "v": 38
    },
    {
      "midi": 78,
      "hit": false,
      "t": 159062.5000000001,
      "d": 2145.833333333343,
      "v": 38
    },
    {
      "midi": 69,
      "hit": false,
      "t": 160140.6250000001,
      "d": 1427.083333333343,
      "v": 114
    },
    {
      "midi": 74,
      "hit": false,
      "t": 160864.58333333343,
      "d": 348.95833333334303,
      "v": 100
    },
    {
      "midi": 78,
      "hit": false,
      "t": 161578.1250000001,
      "d": 2338.541666666657,
      "v": 98
    },
    {
      "midi": 74,
      "hit": false,
      "t": 164843.7500000001,
      "d": 703.125,
      "v": 78
    },
    {
      "midi": 57,
      "hit": false,
      "t": 164843.7500000001,
      "d": 1963.541666666657,
      "v": 78
    },
    {
      "midi": 69,
      "hit": false,
      "t": 165557.29166666674,
      "d": 708.333333333343,
      "v": 97
    },
    {
      "midi": 74,
      "hit": false,
      "t": 166276.04166666674,
      "d": 713.541666666657,
      "v": 98
    },
    {
      "midi": 69,
      "hit": false,
      "t": 167000.00000000006,
      "d": 713.541666666657,
      "v": 100
    },
    {
      "midi": 74,
      "hit": false,
      "t": 167723.95833333337,
      "d": 713.541666666657,
      "v": 101
    },
    {
      "midi": 69,
      "hit": false,
      "t": 168447.9166666667,
      "d": 713.541666666657,
      "v": 101
    },
    {
      "midi": 74,
      "hit": false,
      "t": 169166.6666666667,
      "d": 718.75,
      "v": 102
    },
    {
      "midi": 69,
      "hit": false,
      "t": 169895.83333333334,
      "d": 718.75,
      "v": 103
    },
    {
      "midi": 74,
      "hit": false,
      "t": 170630.20833333334,
      "d": 1963.541666666657,
      "v": 59
    },
    {
      "midi": 59,
      "hit": false,
      "t": 170630.20833333334,
      "d": 2322.916666666657,
      "v": 59
    },
    {
      "midi": 71,
      "hit": false,
      "t": 170635.4166666667,
      "d": 1776.041666666657,
      "v": 59
    },
    {
      "midi": 67,
      "hit": false,
      "t": 170635.4166666667,
      "d": 1958.333333333314,
      "v": 59
    },
    {
      "midi": 61,
      "hit": false,
      "t": 173520.83333333334,
      "d": 1963.541666666657,
      "v": 65
    },
    {
      "midi": 64,
      "hit": false,
      "t": 173520.83333333334,
      "d": 1963.541666666657,
      "v": 65
    },
    {
      "midi": 69,
      "hit": false,
      "t": 173520.83333333334,
      "d": 1963.541666666657,
      "v": 65
    },
    {
      "midi": 59,
      "hit": false,
      "t": 176411.45833333334,
      "d": 1968.750000000029,
      "v": 61
    },
    {
      "midi": 71,
      "hit": false,
      "t": 176447.9166666667,
      "d": 1927.083333333343,
      "v": 61
    },
    {
      "midi": 74,
      "hit": false,
      "t": 176447.9166666667,
      "d": 1927.083333333343,
      "v": 61
    },
    {
      "midi": 67,
      "hit": false,
      "t": 176447.9166666667,
      "d": 1932.291666666686,
      "v": 61
    },
    {
      "midi": 64,
      "hit": false,
      "t": 179302.08333333337,
      "d": 1963.541666666657,
      "v": 61
    },
    {
      "midi": 69,
      "hit": false,
      "t": 179302.08333333337,
      "d": 1963.541666666657,
      "v": 61
    },
    {
      "midi": 61,
      "hit": false,
      "t": 179302.08333333337,
      "d": 1968.75,
      "v": 61
    },
    {
      "midi": 57,
      "hit": false,
      "t": 182187.50000000003,
      "d": 1072.916666666686,
      "v": 69
    },
    {
      "midi": 62,
      "hit": false,
      "t": 182187.50000000003,
      "d": 1072.916666666686,
      "v": 69
    },
    {
      "midi": 66,
      "hit": false,
      "t": 182192.70833333337,
      "d": 1062.5,
      "v": 69
    },
    {
      "midi": 69,
      "hit": false,
      "t": 182192.70833333337,
      "d": 1067.708333333343,
      "v": 69
    },
    {
      "midi": 57,
      "hit": false,
      "t": 183270.83333333337,
      "d": 1432.291666666686,
      "v": 70
    },
    {
      "midi": 61,
      "hit": false,
      "t": 183270.83333333337,
      "d": 1437.500000000029,
      "v": 70
    },
    {
      "midi": 64,
      "hit": false,
      "t": 183270.83333333337,
      "d": 1437.500000000029,
      "v": 70
    },
    {
      "midi": 69,
      "hit": false,
      "t": 183276.04166666672,
      "d": 1427.083333333343,
      "v": 70
    },
    {
      "midi": 62,
      "hit": false,
      "t": 184718.75000000006,
      "d": 2333.333333333343,
      "v": 74
    },
    {
      "midi": 67,
      "hit": false,
      "t": 184718.75000000006,
      "d": 2333.333333333343,
      "v": 74
    },
    {
      "midi": 59,
      "hit": false,
      "t": 184718.75000000006,
      "d": 2692.708333333343,
      "v": 74
    },
    {
      "midi": 55,
      "hit": false,
      "t": 184718.75000000006,
      "d": 3244.791666666686,
      "v": 74
    },
    {
      "midi": 52,
      "hit": false,
      "t": 188328.1250000001,
      "d": 1250,
      "v": 78
    },
    {
      "midi": 55,
      "hit": false,
      "t": 188687.5000000001,
      "d": 1255.208333333343,
      "v": 80
    },
    {
      "midi": 62,
      "hit": false,
      "t": 189046.8750000001,
      "d": 1255.208333333343,
      "v": 90
    },
    {
      "midi": 61,
      "hit": false,
      "t": 192307.29166666677,
      "d": 343.75,
      "v": 106
    },
    {
      "midi": 62,
      "hit": false,
      "t": 192666.66666666677,
      "d": 348.95833333334303,
      "v": 106
    },
    {
      "midi": 64,
      "hit": false,
      "t": 193031.25000000012,
      "d": 703.125,
      "v": 107
    },
    {
      "midi": 64,
      "hit": false,
      "t": 211114.58333333346,
      "d": 333.33333333334303,
      "v": 38
    },
    {
      "midi": 83,
      "hit": false,
      "t": 211114.58333333346,
      "d": 2140.625000000029,
      "v": 38
    },
    {
      "midi": 88,
      "hit": false,
      "t": 211114.58333333346,
      "d": 2140.625000000029,
      "v": 70
    },
    {
      "midi": 59,
      "hit": false,
      "t": 211458.33333333346,
      "d": 348.95833333334303,
      "v": 38
    },
    {
      "midi": 64,
      "hit": false,
      "t": 211822.9166666668,
      "d": 348.95833333334303,
      "v": 38
    },
    {
      "midi": 59,
      "hit": false,
      "t": 212187.50000000015,
      "d": 343.75,
      "v": 38
    },
    {
      "midi": 64,
      "hit": false,
      "t": 212536.4583333335,
      "d": 354.16666666665697,
      "v": 38
    },
    {
      "midi": 59,
      "hit": false,
      "t": 212911.4583333335,
      "d": 348.95833333334303,
      "v": 38
    },
    {
      "midi": 64,
      "hit": false,
      "t": 213270.8333333335,
      "d": 348.95833333334303,
      "v": 38
    },
    {
      "midi": 59,
      "hit": false,
      "t": 213630.2083333335,
      "d": 354.16666666665697,
      "v": 67
    },
    {
      "midi": 80,
      "hit": false,
      "t": 214000.00000000015,
      "d": 2151.041666666657,
      "v": 38
    },
    {
      "midi": 63,
      "hit": false,
      "t": 214005.2083333335,
      "d": 333.33333333334303,
      "v": 38
    },
    {
      "midi": 83,
      "hit": false,
      "t": 214005.2083333335,
      "d": 2140.624999999971,
      "v": 38
    },
    {
      "midi": 59,
      "hit": false,
      "t": 214354.16666666683,
      "d": 343.75,
      "v": 38
    },
    {
      "midi": 63,
      "hit": false,
      "t": 214708.3333333335,
      "d": 354.16666666665697,
      "v": 38
    },
    {
      "midi": 59,
      "hit": false,
      "t": 215072.9166666668,
      "d": 348.95833333334303,
      "v": 38
    },
    {
      "midi": 63,
      "hit": false,
      "t": 215427.0833333335,
      "d": 354.16666666665697,
      "v": 38
    },
    {
      "midi": 59,
      "hit": false,
      "t": 215791.6666666668,
      "d": 354.16666666665697,
      "v": 38
    },
    {
      "midi": 63,
      "hit": false,
      "t": 216156.25000000015,
      "d": 354.16666666665697,
      "v": 38
    },
    {
      "midi": 59,
      "hit": false,
      "t": 216531.25000000015,
      "d": 343.75,
      "v": 38
    },
    {
      "midi": 85,
      "hit": false,
      "t": 216895.8333333335,
      "d": 2145.833333333314,
      "v": 68
    },
    {
      "midi": 80,
      "hit": false,
      "t": 216932.29166666683,
      "d": 2104.166666666628,
      "v": 38
    },
    {
      "midi": 64,
      "hit": false,
      "t": 216937.50000000017,
      "d": 291.66666666665697,
      "v": 38
    },
    {
      "midi": 61,
      "hit": false,
      "t": 217244.79166666683,
      "d": 348.95833333334303,
      "v": 37
    },
    {
      "midi": 64,
      "hit": false,
      "t": 217604.16666666683,
      "d": 354.16666666665697,
      "v": 37
    },
    {
      "midi": 76,
      "hit": false,
      "t": 217604.16666666683,
      "d": 1437.499999999971,
      "v": 37
    },
    {
      "midi": 61,
      "hit": false,
      "t": 217973.9583333335,
      "d": 338.54166666665697,
      "v": 37
    },
    {
      "midi": 64,
      "hit": false,
      "t": 218322.9166666668,
      "d": 354.16666666665697,
      "v": 37
    },
    {
      "midi": 61,
      "hit": false,
      "t": 218687.50000000012,
      "d": 359.3750000000291,
      "v": 37
    },
    {
      "midi": 64,
      "hit": false,
      "t": 219052.0833333335,
      "d": 343.75,
      "v": 37
    },
    {
      "midi": 61,
      "hit": false,
      "t": 219411.4583333335,
      "d": 348.95833333334303,
      "v": 39
    },
    {
      "midi": 61,
      "hit": false,
      "t": 219776.04166666683,
      "d": 343.75,
      "v": 37
    },
    {
      "midi": 76,
      "hit": false,
      "t": 219776.04166666683,
      "d": 2156.249999999971,
      "v": 71
    },
    {
      "midi": 81,
      "hit": false,
      "t": 219781.25000000017,
      "d": 2145.833333333285,
      "v": 68
    },
    {
      "midi": 57,
      "hit": false,
      "t": 220135.41666666683,
      "d": 348.95833333334303,
      "v": 41
    },
    {
      "midi": 61,
      "hit": false,
      "t": 220494.79166666683,
      "d": 354.16666666665697,
      "v": 41
    },
    {
      "midi": 57,
      "hit": false,
      "t": 220859.37500000015,
      "d": 343.75,
      "v": 39
    },
    {
      "midi": 61,
      "hit": false,
      "t": 221213.5416666668,
      "d": 354.16666666665697,
      "v": 39
    },
    {
      "midi": 57,
      "hit": false,
      "t": 221578.12500000012,
      "d": 354.16666666668607,
      "v": 38
    },
    {
      "midi": 61,
      "hit": false,
      "t": 221937.50000000015,
      "d": 354.16666666665697,
      "v": 38
    },
    {
      "midi": 57,
      "hit": false,
      "t": 222302.08333333346,
      "d": 354.16666666665697,
      "v": 43
    },
    {
      "midi": 88,
      "hit": false,
      "t": 222666.66666666677,
      "d": 2156.249999999971,
      "v": 70
    },
    {
      "midi": 64,
      "hit": false,
      "t": 222671.87500000012,
      "d": 338.54166666665697,
      "v": 38
    },
    {
      "midi": 83,
      "hit": false,
      "t": 222671.87500000012,
      "d": 2151.041666666628,
      "v": 38
    },
    {
      "midi": 59,
      "hit": false,
      "t": 223020.83333333343,
      "d": 354.16666666665697,
      "v": 38
    },
    {
      "midi": 64,
      "hit": false,
      "t": 223385.41666666674,
      "d": 354.16666666665697,
      "v": 38
    },
    {
      "midi": 59,
      "hit": false,
      "t": 223750.00000000006,
      "d": 348.95833333334303,
      "v": 38
    },
    {
      "midi": 64,
      "hit": false,
      "t": 224104.16666666674,
      "d": 359.375,
      "v": 38
    },
    {
      "midi": 59,
      "hit": false,
      "t": 224468.7500000001,
      "d": 354.16666666665697,
      "v": 38
    },
    {
      "midi": 64,
      "hit": false,
      "t": 224838.54166666674,
      "d": 343.75,
      "v": 38
    },
    {
      "midi": 59,
      "hit": false,
      "t": 225197.91666666674,
      "d": 343.75,
      "v": 67
    },
    {
      "midi": 63,
      "hit": false,
      "t": 225562.5000000001,
      "d": 338.54166666665697,
      "v": 38
    },
    {
      "midi": 80,
      "hit": false,
      "t": 225562.5000000001,
      "d": 2151.041666666686,
      "v": 38
    },
    {
      "midi": 83,
      "hit": false,
      "t": 225562.5000000001,
      "d": 2151.041666666686,
      "v": 38
    },
    {
      "midi": 59,
      "hit": false,
      "t": 225916.66666666674,
      "d": 348.95833333334303,
      "v": 38
    },
    {
      "midi": 63,
      "hit": false,
      "t": 226276.04166666674,
      "d": 348.95833333334303,
      "v": 38
    },
    {
      "midi": 59,
      "hit": false,
      "t": 226645.83333333343,
      "d": 343.75,
      "v": 38
    },
    {
      "midi": 63,
      "hit": false,
      "t": 226994.79166666677,
      "d": 359.375,
      "v": 38
    },
    {
      "midi": 59,
      "hit": false,
      "t": 227364.58333333343,
      "d": 348.95833333334303,
      "v": 38
    },
    {
      "midi": 63,
      "hit": false,
      "t": 227723.95833333343,
      "d": 348.95833333334303,
      "v": 38
    },
    {
      "midi": 59,
      "hit": false,
      "t": 228088.54166666677,
      "d": 343.75,
      "v": 38
    },
    {
      "midi": 76,
      "hit": false,
      "t": 228453.12500000012,
      "d": 2151.041666666657,
      "v": 38
    },
    {
      "midi": 80,
      "hit": false,
      "t": 228453.12500000012,
      "d": 2156.25,
      "v": 38
    },
    {
      "midi": 61,
      "hit": false,
      "t": 228458.33333333346,
      "d": 338.54166666665697,
      "v": 41
    },
    {
      "midi": 73,
      "hit": false,
      "t": 228458.33333333346,
      "d": 2151.041666666657,
      "v": 38
    },
    {
      "midi": 57,
      "hit": false,
      "t": 228812.50000000012,
      "d": 1442.708333333314,
      "v": 100
    },
    {
      "midi": 59,
      "hit": false,
      "t": 229166.66666666677,
      "d": 2171.875,
      "v": 100
    },
    {
      "midi": 64,
      "hit": false,
      "t": 229536.45833333343,
      "d": 1838.541666666686,
      "v": 100
    },
    {
      "midi": 61,
      "hit": false,
      "t": 229895.83333333343,
      "d": 343.75,
      "v": 41
    },
    {
      "midi": 57,
      "hit": false,
      "t": 230260.41666666677,
      "d": 343.75,
      "v": 41
    },
    {
      "midi": 61,
      "hit": false,
      "t": 230625.00000000012,
      "d": 338.54166666665697,
      "v": 41
    },
    {
      "midi": 57,
      "hit": false,
      "t": 230979.16666666677,
      "d": 359.375,
      "v": 41
    },
    {
      "midi": 64,
      "hit": false,
      "t": 231375.00000000012,
      "d": 312.5,
      "v": 38
    },
    {
      "midi": 88,
      "hit": false,
      "t": 231375.00000000012,
      "d": 2119.791666666686,
      "v": 70
    },
    {
      "midi": 83,
      "hit": false,
      "t": 231375.00000000012,
      "d": 2130.208333333372,
      "v": 38
    },
    {
      "midi": 59,
      "hit": false,
      "t": 231703.12500000012,
      "d": 348.95833333334303,
      "v": 38
    },
    {
      "midi": 64,
      "hit": false,
      "t": 232057.2916666668,
      "d": 354.16666666665697,
      "v": 38
    },
    {
      "midi": 59,
      "hit": false,
      "t": 232421.87500000012,
      "d": 348.95833333334303,
      "v": 38
    },
    {
      "midi": 64,
      "hit": false,
      "t": 232776.0416666668,
      "d": 359.375,
      "v": 38
    },
    {
      "midi": 59,
      "hit": false,
      "t": 233145.83333333346,
      "d": 354.16666666668607,
      "v": 38
    },
    {
      "midi": 64,
      "hit": false,
      "t": 233510.41666666683,
      "d": 343.75,
      "v": 38
    },
    {
      "midi": 59,
      "hit": false,
      "t": 233869.79166666683,
      "d": 354.16666666665697,
      "v": 67
    },
    {
      "midi": 63,
      "hit": false,
      "t": 234270.8333333335,
      "d": 307.29166666665697,
      "v": 38
    },
    {
      "midi": 80,
      "hit": false,
      "t": 234270.8333333335,
      "d": 2114.583333333314,
      "v": 38
    },
    {
      "midi": 83,
      "hit": false,
      "t": 234270.8333333335,
      "d": 2119.791666666657,
      "v": 38
    },
    {
      "midi": 59,
      "hit": false,
      "t": 234593.75000000015,
      "d": 348.95833333334303,
      "v": 38
    },
    {
      "midi": 63,
      "hit": false,
      "t": 234953.12500000015,
      "d": 348.95833333334303,
      "v": 38
    },
    {
      "midi": 59,
      "hit": false,
      "t": 235322.91666666683,
      "d": 338.54166666665697,
      "v": 38
    },
    {
      "midi": 63,
      "hit": false,
      "t": 235671.87500000015,
      "d": 354.16666666665697,
      "v": 38
    },
    {
      "midi": 59,
      "hit": false,
      "t": 236036.45833333346,
      "d": 348.95833333334303,
      "v": 38
    },
    {
      "midi": 63,
      "hit": false,
      "t": 236395.8333333335,
      "d": 348.95833333334303,
      "v": 38
    },
    {
      "midi": 59,
      "hit": false,
      "t": 236765.62500000017,
      "d": 348.95833333334303,
      "v": 38
    },
    {
      "midi": 64,
      "hit": false,
      "t": 237156.25000000017,
      "d": 312.5,
      "v": 38
    },
    {
      "midi": 80,
      "hit": false,
      "t": 237156.25000000017,
      "d": 2124.999999999942,
      "v": 38
    },
    {
      "midi": 85,
      "hit": false,
      "t": 237156.25000000017,
      "d": 2130.208333333285,
      "v": 68
    },
    {
      "midi": 61,
      "hit": false,
      "t": 237484.37500000017,
      "d": 348.95833333334303,
      "v": 37
    },
    {
      "midi": 64,
      "hit": false,
      "t": 237843.75000000017,
      "d": 354.16666666665697,
      "v": 37
    },
    {
      "midi": 76,
      "hit": false,
      "t": 237843.75000000017,
      "d": 1437.4999999999418,
      "v": 37
    },
    {
      "midi": 61,
      "hit": false,
      "t": 238213.54166666683,
      "d": 338.54166666665697,
      "v": 37
    },
    {
      "midi": 64,
      "hit": false,
      "t": 238562.50000000015,
      "d": 354.16666666665697,
      "v": 37
    },
    {
      "midi": 61,
      "hit": false,
      "t": 238927.08333333346,
      "d": 359.375,
      "v": 37
    },
    {
      "midi": 64,
      "hit": false,
      "t": 239296.87500000012,
      "d": 338.54166666665697,
      "v": 37
    },
    {
      "midi": 61,
      "hit": false,
      "t": 239651.04166666677,
      "d": 348.95833333334303,
      "v": 39
    },
    {
      "midi": 61,
      "hit": false,
      "t": 240020.83333333346,
      "d": 338.54166666665697,
      "v": 37
    },
    {
      "midi": 81,
      "hit": false,
      "t": 240020.83333333346,
      "d": 2145.833333333314,
      "v": 68
    },
    {
      "midi": 76,
      "hit": false,
      "t": 240020.83333333346,
      "d": 2151.041666666657,
      "v": 71
    },
    {
      "midi": 57,
      "hit": false,
      "t": 240375.00000000012,
      "d": 348.95833333334303,
      "v": 41
    },
    {
      "midi": 61,
      "hit": false,
      "t": 240739.58333333346,
      "d": 348.95833333334303,
      "v": 41
    },
    {
      "midi": 57,
      "hit": false,
      "t": 241098.95833333346,
      "d": 343.75,
      "v": 39
    },
    {
      "midi": 61,
      "hit": false,
      "t": 241458.33333333346,
      "d": 354.16666666665697,
      "v": 39
    },
    {
      "midi": 57,
      "hit": false,
      "t": 241828.12500000012,
      "d": 343.75,
      "v": 38
    },
    {
      "midi": 61,
      "hit": false,
      "t": 242177.08333333346,
      "d": 354.16666666665697,
      "v": 38
    },
    {
      "midi": 57,
      "hit": false,
      "t": 242541.66666666677,
      "d": 354.16666666665697,
      "v": 43
    },
    {
      "midi": 88,
      "hit": false,
      "t": 242906.2500000001,
      "d": 2156.25,
      "v": 70
    },
    {
      "midi": 64,
      "hit": false,
      "t": 242927.08333333343,
      "d": 322.91666666665697,
      "v": 38
    },
    {
      "midi": 83,
      "hit": false,
      "t": 242927.08333333343,
      "d": 2135.416666666657,
      "v": 38
    },
    {
      "midi": 59,
      "hit": false,
      "t": 243260.41666666674,
      "d": 354.16666666665697,
      "v": 38
    },
    {
      "midi": 64,
      "hit": false,
      "t": 243625.00000000006,
      "d": 348.95833333334303,
      "v": 38
    },
    {
      "midi": 59,
      "hit": false,
      "t": 243984.37500000006,
      "d": 354.16666666665697,
      "v": 38
    },
    {
      "midi": 64,
      "hit": false,
      "t": 244343.75000000006,
      "d": 359.375,
      "v": 38
    },
    {
      "midi": 59,
      "hit": false,
      "t": 244708.3333333334,
      "d": 348.95833333334303,
      "v": 38
    },
    {
      "midi": 64,
      "hit": false,
      "t": 245067.70833333343,
      "d": 354.16666666665697,
      "v": 38
    },
    {
      "midi": 59,
      "hit": false,
      "t": 245437.5000000001,
      "d": 343.75,
      "v": 67
    },
    {
      "midi": 63,
      "hit": false,
      "t": 245802.08333333343,
      "d": 343.75,
      "v": 38
    },
    {
      "midi": 80,
      "hit": false,
      "t": 245802.08333333343,
      "d": 2151.041666666657,
      "v": 38
    },
    {
      "midi": 83,
      "hit": false,
      "t": 245802.08333333343,
      "d": 2151.041666666657,
      "v": 38
    },
    {
      "midi": 59,
      "hit": false,
      "t": 246156.2500000001,
      "d": 348.95833333334303,
      "v": 38
    },
    {
      "midi": 63,
      "hit": false,
      "t": 246515.6250000001,
      "d": 348.95833333334303,
      "v": 38
    },
    {
      "midi": 59,
      "hit": false,
      "t": 246885.41666666677,
      "d": 343.75,
      "v": 38
    },
    {
      "midi": 63,
      "hit": false,
      "t": 247239.58333333343,
      "d": 354.16666666665697,
      "v": 38
    },
    {
      "midi": 59,
      "hit": false,
      "t": 247604.16666666674,
      "d": 343.75,
      "v": 38
    },
    {
      "midi": 63,
      "hit": false,
      "t": 247963.54166666674,
      "d": 348.95833333334303,
      "v": 38
    },
    {
      "midi": 59,
      "hit": false,
      "t": 248328.1250000001,
      "d": 354.16666666665697,
      "v": 38
    },
    {
      "midi": 61,
      "hit": false,
      "t": 248713.54166666674,
      "d": 322.91666666665697,
      "v": 41
    },
    {
      "midi": 76,
      "hit": false,
      "t": 248713.54166666674,
      "d": 2130.208333333285,
      "v": 38
    },
    {
      "midi": 73,
      "hit": false,
      "t": 248713.54166666674,
      "d": 2135.416666666628,
      "v": 38
    },
    {
      "midi": 80,
      "hit": false,
      "t": 248713.54166666674,
      "d": 2135.416666666628,
      "v": 38
    },
    {
      "midi": 57,
      "hit": false,
      "t": 249052.0833333334,
      "d": 1442.7083333332848,
      "v": 100
    },
    {
      "midi": 59,
      "hit": false,
      "t": 249406.25000000006,
      "d": 2161.458333333343,
      "v": 100
    },
    {
      "midi": 64,
      "hit": false,
      "t": 249776.04166666672,
      "d": 2510.416666666715,
      "v": 100
    },
    {
      "midi": 61,
      "hit": false,
      "t": 250130.20833333337,
      "d": 354.16666666665697,
      "v": 41
    },
    {
      "midi": 57,
      "hit": false,
      "t": 250500.00000000003,
      "d": 343.75,
      "v": 41
    },
    {
      "midi": 61,
      "hit": false,
      "t": 250854.16666666672,
      "d": 348.95833333334303,
      "v": 41
    },
    {
      "midi": 57,
      "hit": false,
      "t": 251218.75000000006,
      "d": 343.75,
      "v": 41
    },
    {
      "midi": 73,
      "hit": false,
      "t": 251572.91666666674,
      "d": 2161.458333333343,
      "v": 38
    },
    {
      "midi": 61,
      "hit": false,
      "t": 251578.1250000001,
      "d": 348.95833333334303,
      "v": 41
    },
    {
      "midi": 76,
      "hit": false,
      "t": 251578.1250000001,
      "d": 2156.25,
      "v": 38
    },
    {
      "midi": 80,
      "hit": false,
      "t": 251578.1250000001,
      "d": 2156.25,
      "v": 38
    },
    {
      "midi": 57,
      "hit": false,
      "t": 251942.70833333343,
      "d": 885.416666666657,
      "v": 57
    },
    {
      "midi": 59,
      "hit": false,
      "t": 252296.8750000001,
      "d": 895.833333333343,
      "v": 58
    },
    {
      "midi": 64,
      "hit": false,
      "t": 254505.20833333343,
      "d": 312.5,
      "v": 38
    },
    {
      "midi": 59,
      "hit": false,
      "t": 254505.20833333343,
      "d": 322.91666666665697,
      "v": 50
    },
    {
      "midi": 76,
      "hit": false,
      "t": 254505.20833333343,
      "d": 1937.499999999971,
      "v": 50
    },
    {
      "midi": 68,
      "hit": false,
      "t": 254505.20833333343,
      "d": 1942.708333333314,
      "v": 50
    },
    {
      "midi": 83,
      "hit": false,
      "t": 254505.20833333343,
      "d": 2119.791666666657,
      "v": 38
    },
    {
      "midi": 88,
      "hit": false,
      "t": 254505.20833333343,
      "d": 2125,
      "v": 70
    },
    {
      "midi": 59,
      "hit": false,
      "t": 254833.33333333343,
      "d": 343.75,
      "v": 38
    },
    {
      "midi": 64,
      "hit": false,
      "t": 255187.5000000001,
      "d": 359.375,
      "v": 38
    },
    {
      "midi": 59,
      "hit": false,
      "t": 255557.29166666674,
      "d": 348.95833333334303,
      "v": 38
    },
    {
      "midi": 64,
      "hit": false,
      "t": 255916.66666666674,
      "d": 348.95833333334303,
      "v": 38
    },
    {
      "midi": 59,
      "hit": false,
      "t": 256276.04166666674,
      "d": 166.66666666665697,
      "v": 38
    },
    {
      "midi": 64,
      "hit": false,
      "t": 256640.6250000001,
      "d": 348.95833333334303,
      "v": 38
    },
    {
      "midi": 59,
      "hit": false,
      "t": 256994.79166666677,
      "d": 364.58333333334303,
      "v": 67
    },
    {
      "midi": 63,
      "hit": false,
      "t": 257369.79166666677,
      "d": 338.54166666665697,
      "v": 38
    },
    {
      "midi": 80,
      "hit": false,
      "t": 257369.79166666677,
      "d": 2145.833333333314,
      "v": 38
    },
    {
      "midi": 83,
      "hit": false,
      "t": 257369.79166666677,
      "d": 2145.833333333314,
      "v": 38
    },
    {
      "midi": 59,
      "hit": false,
      "t": 257718.7500000001,
      "d": 348.95833333334303,
      "v": 38
    },
    {
      "midi": 63,
      "hit": false,
      "t": 258083.33333333343,
      "d": 348.95833333334303,
      "v": 38
    },
    {
      "midi": 59,
      "hit": false,
      "t": 258442.70833333343,
      "d": 354.16666666665697,
      "v": 38
    },
    {
      "midi": 63,
      "hit": false,
      "t": 258807.29166666674,
      "d": 348.95833333334303,
      "v": 38
    },
    {
      "midi": 59,
      "hit": false,
      "t": 259166.66666666674,
      "d": 348.95833333334303,
      "v": 38
    },
    {
      "midi": 63,
      "hit": false,
      "t": 259526.04166666674,
      "d": 354.16666666665697,
      "v": 38
    },
    {
      "midi": 59,
      "hit": false,
      "t": 259890.62500000006,
      "d": 354.16666666665697,
      "v": 38
    },
    {
      "midi": 80,
      "hit": false,
      "t": 260255.20833333337,
      "d": 2151.041666666686,
      "v": 72
    },
    {
      "midi": 61,
      "hit": false,
      "t": 260281.25000000003,
      "d": 317.70833333334303,
      "v": 72
    },
    {
      "midi": 76,
      "hit": false,
      "t": 260281.25000000003,
      "d": 2125.000000000029,
      "v": 72
    },
    {
      "midi": 73,
      "hit": false,
      "t": 260281.25000000003,
      "d": 2130.208333333343,
      "v": 72
    },
    {
      "midi": 57,
      "hit": false,
      "t": 260614.58333333337,
      "d": 1442.708333333343,
      "v": 72
    },
    {
      "midi": 59,
      "hit": false,
      "t": 260973.95833333337,
      "d": 2156.25,
      "v": 72
    },
    {
      "midi": 64,
      "hit": false,
      "t": 261338.54166666672,
      "d": 2515.624999999971,
      "v": 72
    },
    {
      "midi": 61,
      "hit": false,
      "t": 261697.91666666672,
      "d": 348.95833333334303,
      "v": 41
    },
    {
      "midi": 57,
      "hit": false,
      "t": 262057.29166666672,
      "d": 354.16666666665697,
      "v": 41
    },
    {
      "midi": 61,
      "hit": false,
      "t": 262421.87500000006,
      "d": 348.95833333331393,
      "v": 41
    },
    {
      "midi": 57,
      "hit": false,
      "t": 262781.25000000006,
      "d": 354.16666666662786,
      "v": 41
    },
    {
      "midi": 76,
      "hit": false,
      "t": 263140.625,
      "d": 2156.250000000058,
      "v": 38
    },
    {
      "midi": 73,
      "hit": false,
      "t": 263140.625,
      "d": 2161.458333333372,
      "v": 38
    },
    {
      "midi": 80,
      "hit": false,
      "t": 263140.625,
      "d": 2161.458333333372,
      "v": 38
    },
    {
      "midi": 61,
      "hit": false,
      "t": 263145.8333333333,
      "d": 343.75,
      "v": 41
    },
    {
      "midi": 57,
      "hit": false,
      "t": 263500,
      "d": 895.8333333333721,
      "v": 57
    },
    {
      "midi": 59,
      "hit": false,
      "t": 263864.5833333334,
      "d": 890.625,
      "v": 58
    },
    {
      "midi": 64,
      "hit": false,
      "t": 266046.87500000006,
      "d": 1963.541666666686,
      "v": 50
    },
    {
      "midi": 68,
      "hit": false,
      "t": 266046.87500000006,
      "d": 1963.541666666686,
      "v": 50
    },
    {
      "midi": 59,
      "hit": false,
      "t": 266046.87500000006,
      "d": 1968.75,
      "v": 50
    },
    {
      "midi": 76,
      "hit": false,
      "t": 266046.87500000006,
      "d": 1968.75,
      "v": 50
    },
    {
      "midi": 73,
      "hit": false,
      "t": 268937.50000000006,
      "d": 2145.8333333332557,
      "v": 59
    },
    {
      "midi": 80,
      "hit": false,
      "t": 268937.50000000006,
      "d": 2145.8333333332557,
      "v": 59
    },
    {
      "midi": 76,
      "hit": false,
      "t": 268937.50000000006,
      "d": 2151.0416666665697,
      "v": 59
    },
    {
      "midi": 61,
      "hit": false,
      "t": 268973.9583333334,
      "d": 302.08333333331393,
      "v": 59
    },
    {
      "midi": 57,
      "hit": false,
      "t": 269281.25,
      "d": 1458.333333333314,
      "v": 59
    },
    {
      "midi": 59,
      "hit": false,
      "t": 269651.0416666667,
      "d": 2166.6666666665114,
      "v": 59
    },
    {
      "midi": 64,
      "hit": false,
      "t": 270010.4166666667,
      "d": 1802.0833333331975,
      "v": 60
    },
    {
      "midi": 61,
      "hit": false,
      "t": 270369.7916666667,
      "d": 348.95833333331393,
      "v": 41
    },
    {
      "midi": 57,
      "hit": false,
      "t": 270739.5833333333,
      "d": 343.75,
      "v": 41
    },
    {
      "midi": 61,
      "hit": false,
      "t": 271093.74999999994,
      "d": 348.95833333331393,
      "v": 41
    },
    {
      "midi": 57,
      "hit": false,
      "t": 271458.33333333326,
      "d": 348.95833333331393,
      "v": 41
    },
    {
      "midi": 68,
      "hit": false,
      "t": 271833.3333333332,
      "d": 1776.041666666686,
      "v": 61
    },
    {
      "midi": 59,
      "hit": false,
      "t": 271833.3333333332,
      "d": 1781.25,
      "v": 61
    },
    {
      "midi": 64,
      "hit": false,
      "t": 271833.3333333332,
      "d": 1781.25,
      "v": 61
    },
    {
      "midi": 76,
      "hit": false,
      "t": 274718.7499999999,
      "d": 2151.041666666628,
      "v": 38
    },
    {
      "midi": 80,
      "hit": false,
      "t": 274718.7499999999,
      "d": 2151.041666666628,
      "v": 38
    },
    {
      "midi": 61,
      "hit": false,
      "t": 274723.9583333332,
      "d": 333.33333333331393,
      "v": 41
    },
    {
      "midi": 73,
      "hit": false,
      "t": 274723.9583333332,
      "d": 2140.625,
      "v": 38
    },
    {
      "midi": 57,
      "hit": false,
      "t": 275067.7083333332,
      "d": 1447.916666666686,
      "v": 56
    },
    {
      "midi": 59,
      "hit": false,
      "t": 275432.2916666665,
      "d": 2328.125,
      "v": 56
    },
    {
      "midi": 64,
      "hit": false,
      "t": 275796.8749999998,
      "d": 1973.958333333314,
      "v": 56
    },
    {
      "midi": 61,
      "hit": false,
      "t": 276151.0416666665,
      "d": 354.16666666668607,
      "v": 55
    },
    {
      "midi": 57,
      "hit": false,
      "t": 276515.6249999999,
      "d": 348.95833333331393,
      "v": 41
    },
    {
      "midi": 61,
      "hit": false,
      "t": 276874.9999999998,
      "d": 437.5,
      "v": 41
    },
    {
      "midi": 57,
      "hit": false,
      "t": 277328.1249999998,
      "d": 437.5,
      "v": 41
    },
    {
      "midi": 56,
      "hit": false,
      "t": 277791.66666666645,
      "d": 2432.291666666628,
      "v": 61
    },
    {
      "midi": 59,
      "hit": false,
      "t": 277791.66666666645,
      "d": 3322.916666666628,
      "v": 61
    },
    {
      "midi": 52,
      "hit": false,
      "t": 277796.87499999977,
      "d": 2427.083333333314,
      "v": 61
    }
  ]
}