{
  "jsonPath": "World/Celtic/Enya/cursum-perficio-remastered-2009.json",
  "path": "World\\Celtic\\Enya\\Cursum Perficio (Remastered 2009).mid",
  "name": "Cursum Perficio (Remastered 2009)",
  "difficulty": "Advanced",
  "bpm": 115.00024916720653,
  "notes": [
    {
      "midi": 53,
      "hit": false,
      "t": 2086.952,
      "d": 124.99972916666684,
      "v": 100
    },
    {
      "midi": 65,
      "hit": false,
      "t": 2086.952,
      "d": 124.99972916666684,
      "v": 100
    },
    {
      "midi": 24,
      "hit": false,
      "t": 2086.952,
      "d": 1559.7792291666665,
      "v": 100
    },
    {
      "midi": 31,
      "hit": false,
      "t": 2086.952,
      "d": 255.43422916666668,
      "v": 100
    },
    {
      "midi": 36,
      "hit": false,
      "t": 2086.952,
      "d": 1559.7792291666665,
      "v": 100
    },
    {
      "midi": 55,
      "hit": false,
      "t": 2869.559,
      "d": 385.8687291666665,
      "v": 96
    },
    {
      "midi": 51,
      "hit": false,
      "t": 3130.4280000000003,
      "d": 646.7377291666667,
      "v": 106
    },
    {
      "midi": 63,
      "hit": false,
      "t": 3130.4280000000003,
      "d": 646.7377291666667,
      "v": 100
    },
    {
      "midi": 55,
      "hit": false,
      "t": 3391.297,
      "d": 516.3032291666668,
      "v": 96
    },
    {
      "midi": 62,
      "hit": false,
      "t": 3652.166,
      "d": 777.1722291666674,
      "v": 100
    },
    {
      "midi": 31,
      "hit": false,
      "t": 3652.166,
      "d": 516.3032291666668,
      "v": 100
    },
    {
      "midi": 24,
      "hit": false,
      "t": 4173.904,
      "d": 2081.5172291666677,
      "v": 100
    },
    {
      "midi": 36,
      "hit": false,
      "t": 4173.904,
      "d": 2081.5172291666677,
      "v": 100
    },
    {
      "midi": 55,
      "hit": false,
      "t": 4956.5109999999995,
      "d": 385.8687291666665,
      "v": 96
    },
    {
      "midi": 51,
      "hit": false,
      "t": 5217.38,
      "d": 646.7377291666662,
      "v": 106
    },
    {
      "midi": 63,
      "hit": false,
      "t": 5217.38,
      "d": 646.7377291666662,
      "v": 100
    },
    {
      "midi": 55,
      "hit": false,
      "t": 5478.249,
      "d": 516.3032291666668,
      "v": 96
    },
    {
      "midi": 53,
      "hit": false,
      "t": 5739.118,
      "d": 646.7377291666671,
      "v": 100
    },
    {
      "midi": 65,
      "hit": false,
      "t": 5739.118,
      "d": 646.7377291666671,
      "v": 100
    },
    {
      "midi": 31,
      "hit": false,
      "t": 5999.987000000001,
      "d": 516.3032291666677,
      "v": 100
    },
    {
      "midi": 24,
      "hit": false,
      "t": 6260.856000000002,
      "d": 1559.7792291666665,
      "v": 100
    },
    {
      "midi": 36,
      "hit": false,
      "t": 6260.856000000002,
      "d": 1559.7792291666674,
      "v": 100
    },
    {
      "midi": 55,
      "hit": false,
      "t": 7043.463,
      "d": 385.8687291666665,
      "v": 96
    },
    {
      "midi": 51,
      "hit": false,
      "t": 7304.331999999999,
      "d": 646.7377291666662,
      "v": 106
    },
    {
      "midi": 63,
      "hit": false,
      "t": 7304.331999999999,
      "d": 646.7377291666662,
      "v": 100
    },
    {
      "midi": 55,
      "hit": false,
      "t": 7565.201,
      "d": 516.3032291666668,
      "v": 96
    },
    {
      "midi": 62,
      "hit": false,
      "t": 7826.0700000000015,
      "d": 777.1722291666665,
      "v": 100
    },
    {
      "midi": 31,
      "hit": false,
      "t": 7826.070000000002,
      "d": 516.3032291666668,
      "v": 100
    },
    {
      "midi": 41,
      "hit": false,
      "t": 8347.808,
      "d": 2081.5172291666677,
      "v": 100
    },
    {
      "midi": 29,
      "hit": false,
      "t": 8347.808000000003,
      "d": 2081.517229166666,
      "v": 100
    },
    {
      "midi": 53,
      "hit": false,
      "t": 8608.677000000001,
      "d": 516.3032291666677,
      "v": 100
    },
    {
      "midi": 65,
      "hit": false,
      "t": 8608.677000000001,
      "d": 516.3032291666659,
      "v": 100
    },
    {
      "midi": 56,
      "hit": false,
      "t": 8869.546000000002,
      "d": 646.7377291666671,
      "v": 100
    },
    {
      "midi": 68,
      "hit": false,
      "t": 8869.546000000002,
      "d": 646.7377291666671,
      "v": 100
    },
    {
      "midi": 65,
      "hit": false,
      "t": 9130.415,
      "d": 516.3032291666659,
      "v": 100
    },
    {
      "midi": 53,
      "hit": false,
      "t": 9130.415000000003,
      "d": 516.3032291666659,
      "v": 100
    },
    {
      "midi": 55,
      "hit": false,
      "t": 9391.284,
      "d": 646.7377291666671,
      "v": 96
    },
    {
      "midi": 65,
      "hit": false,
      "t": 9652.153,
      "d": 516.3032291666659,
      "v": 100
    },
    {
      "midi": 53,
      "hit": false,
      "t": 9652.153000000002,
      "d": 516.3032291666677,
      "v": 100
    },
    {
      "midi": 56,
      "hit": false,
      "t": 9913.022000000003,
      "d": 646.7377291666671,
      "v": 100
    },
    {
      "midi": 68,
      "hit": false,
      "t": 9913.022000000003,
      "d": 646.7377291666671,
      "v": 100
    },
    {
      "midi": 29,
      "hit": false,
      "t": 10434.760000000002,
      "d": 2081.5172291666677,
      "v": 100
    },
    {
      "midi": 41,
      "hit": false,
      "t": 10434.760000000002,
      "d": 2081.5172291666677,
      "v": 100
    },
    {
      "midi": 65,
      "hit": false,
      "t": 10695.628999999999,
      "d": 516.3032291666659,
      "v": 100
    },
    {
      "midi": 53,
      "hit": false,
      "t": 10695.629000000003,
      "d": 516.3032291666677,
      "v": 100
    },
    {
      "midi": 56,
      "hit": false,
      "t": 10956.498000000003,
      "d": 646.7377291666671,
      "v": 100
    },
    {
      "midi": 68,
      "hit": false,
      "t": 10956.498000000003,
      "d": 646.7377291666671,
      "v": 100
    },
    {
      "midi": 65,
      "hit": false,
      "t": 11217.366999999998,
      "d": 516.3032291666659,
      "v": 100
    },
    {
      "midi": 53,
      "hit": false,
      "t": 11217.367000000004,
      "d": 516.3032291666659,
      "v": 100
    },
    {
      "midi": 55,
      "hit": false,
      "t": 11478.236,
      "d": 646.7377291666671,
      "v": 96
    },
    {
      "midi": 65,
      "hit": false,
      "t": 11739.104999999998,
      "d": 516.3032291666659,
      "v": 100
    },
    {
      "midi": 53,
      "hit": false,
      "t": 11739.105000000003,
      "d": 516.3032291666659,
      "v": 100
    },
    {
      "midi": 51,
      "hit": false,
      "t": 11999.973999999998,
      "d": 646.7377291666671,
      "v": 106
    },
    {
      "midi": 63,
      "hit": false,
      "t": 11999.973999999998,
      "d": 646.7377291666671,
      "v": 100
    },
    {
      "midi": 65,
      "hit": false,
      "t": 12260.842999999997,
      "d": 646.7377291666671,
      "v": 100
    },
    {
      "midi": 53,
      "hit": false,
      "t": 12260.843000000003,
      "d": 646.7377291666671,
      "v": 100
    },
    {
      "midi": 24,
      "hit": false,
      "t": 12521.712000000001,
      "d": 2081.517229166666,
      "v": 100
    },
    {
      "midi": 36,
      "hit": false,
      "t": 12521.712000000003,
      "d": 2081.5172291666677,
      "v": 100
    },
    {
      "midi": 55,
      "hit": false,
      "t": 13304.319000000001,
      "d": 385.8687291666665,
      "v": 96
    },
    {
      "midi": 51,
      "hit": false,
      "t": 13565.187999999998,
      "d": 646.7377291666671,
      "v": 106
    },
    {
      "midi": 63,
      "hit": false,
      "t": 13565.187999999998,
      "d": 646.7377291666671,
      "v": 100
    },
    {
      "midi": 55,
      "hit": false,
      "t": 13826.057,
      "d": 516.3032291666659,
      "v": 96
    },
    {
      "midi": 65,
      "hit": false,
      "t": 14086.925999999998,
      "d": 646.7377291666671,
      "v": 100
    },
    {
      "midi": 53,
      "hit": false,
      "t": 14086.926000000003,
      "d": 646.7377291666671,
      "v": 100
    },
    {
      "midi": 31,
      "hit": false,
      "t": 14347.795000000004,
      "d": 516.3032291666677,
      "v": 100
    },
    {
      "midi": 24,
      "hit": false,
      "t": 14608.664,
      "d": 1559.7792291666665,
      "v": 100
    },
    {
      "midi": 36,
      "hit": false,
      "t": 14608.664000000004,
      "d": 1559.7792291666665,
      "v": 100
    },
    {
      "midi": 55,
      "hit": false,
      "t": 15391.271,
      "d": 385.8687291666665,
      "v": 96
    },
    {
      "midi": 51,
      "hit": false,
      "t": 15652.14,
      "d": 646.7377291666671,
      "v": 106
    },
    {
      "midi": 63,
      "hit": false,
      "t": 15652.14,
      "d": 646.7377291666671,
      "v": 100
    },
    {
      "midi": 55,
      "hit": false,
      "t": 15913.009,
      "d": 516.3032291666659,
      "v": 96
    },
    {
      "midi": 24,
      "hit": false,
      "t": 16173.878,
      "d": 516.3032291666677,
      "v": 100
    },
    {
      "midi": 62,
      "hit": false,
      "t": 16173.878,
      "d": 777.1722291666665,
      "v": 100
    },
    {
      "midi": 36,
      "hit": false,
      "t": 16173.878000000004,
      "d": 516.3032291666677,
      "v": 100
    },
    {
      "midi": 31,
      "hit": false,
      "t": 16695.616000000005,
      "d": 2081.5172291666677,
      "v": 100
    },
    {
      "midi": 55,
      "hit": false,
      "t": 16956.485,
      "d": 385.86872916666834,
      "v": 96
    },
    {
      "midi": 58,
      "hit": false,
      "t": 17217.354000000003,
      "d": 646.7377291666671,
      "v": 100
    },
    {
      "midi": 70,
      "hit": false,
      "t": 17217.354000000003,
      "d": 646.7377291666671,
      "v": 100
    },
    {
      "midi": 55,
      "hit": false,
      "t": 17478.223,
      "d": 516.3032291666677,
      "v": 96
    },
    {
      "midi": 72,
      "hit": false,
      "t": 17739.092000000004,
      "d": 646.7377291666635,
      "v": 100
    },
    {
      "midi": 55,
      "hit": false,
      "t": 17999.961000000003,
      "d": 516.3032291666677,
      "v": 96
    },
    {
      "midi": 58,
      "hit": false,
      "t": 18260.83,
      "d": 516.3032291666677,
      "v": 100
    },
    {
      "midi": 70,
      "hit": false,
      "t": 18260.83,
      "d": 516.3032291666677,
      "v": 100
    },
    {
      "midi": 55,
      "hit": false,
      "t": 18521.699000000004,
      "d": 385.86872916666834,
      "v": 96
    },
    {
      "midi": 27,
      "hit": false,
      "t": 18782.568000000003,
      "d": 2081.5172291666677,
      "v": 100
    },
    {
      "midi": 39,
      "hit": false,
      "t": 18782.568000000003,
      "d": 2081.5172291666677,
      "v": 100
    },
    {
      "midi": 51,
      "hit": false,
      "t": 19043.436999999998,
      "d": 516.3032291666677,
      "v": 106
    },
    {
      "midi": 63,
      "hit": false,
      "t": 19043.436999999998,
      "d": 516.3032291666677,
      "v": 100
    },
    {
      "midi": 55,
      "hit": false,
      "t": 19304.306000000004,
      "d": 516.3032291666677,
      "v": 96
    },
    {
      "midi": 51,
      "hit": false,
      "t": 19565.175,
      "d": 516.3032291666677,
      "v": 106
    },
    {
      "midi": 63,
      "hit": false,
      "t": 19565.175,
      "d": 516.3032291666677,
      "v": 100
    },
    {
      "midi": 56,
      "hit": false,
      "t": 19826.044,
      "d": 516.3032291666677,
      "v": 100
    },
    {
      "midi": 68,
      "hit": false,
      "t": 19826.044,
      "d": 516.3032291666677,
      "v": 100
    },
    {
      "midi": 51,
      "hit": false,
      "t": 20086.913,
      "d": 516.3032291666677,
      "v": 106
    },
    {
      "midi": 63,
      "hit": false,
      "t": 20086.913,
      "d": 516.3032291666677,
      "v": 100
    },
    {
      "midi": 58,
      "hit": false,
      "t": 20347.782000000003,
      "d": 516.3032291666677,
      "v": 100
    },
    {
      "midi": 70,
      "hit": false,
      "t": 20347.782000000003,
      "d": 516.3032291666677,
      "v": 100
    },
    {
      "midi": 51,
      "hit": false,
      "t": 20608.651,
      "d": 516.3032291666677,
      "v": 106
    },
    {
      "midi": 63,
      "hit": false,
      "t": 20608.651,
      "d": 516.3032291666677,
      "v": 100
    },
    {
      "midi": 41,
      "hit": false,
      "t": 20869.520000000004,
      "d": 2081.5172291666677,
      "v": 100
    },
    {
      "midi": 29,
      "hit": false,
      "t": 20869.520000000008,
      "d": 2081.5172291666677,
      "v": 100
    },
    {
      "midi": 65,
      "hit": false,
      "t": 21130.389,
      "d": 516.3032291666677,
      "v": 100
    },
    {
      "midi": 53,
      "hit": false,
      "t": 21130.389000000003,
      "d": 516.3032291666641,
      "v": 100
    },
    {
      "midi": 56,
      "hit": false,
      "t": 21391.258,
      "d": 516.3032291666641,
      "v": 100
    },
    {
      "midi": 68,
      "hit": false,
      "t": 21391.258,
      "d": 516.3032291666641,
      "v": 100
    },
    {
      "midi": 53,
      "hit": false,
      "t": 21652.127,
      "d": 516.3032291666641,
      "v": 100
    },
    {
      "midi": 65,
      "hit": false,
      "t": 21652.127,
      "d": 516.3032291666677,
      "v": 100
    },
    {
      "midi": 55,
      "hit": false,
      "t": 21912.996000000006,
      "d": 516.3032291666677,
      "v": 96
    },
    {
      "midi": 51,
      "hit": false,
      "t": 22434.734000000004,
      "d": 516.3032291666677,
      "v": 106
    },
    {
      "midi": 63,
      "hit": false,
      "t": 22434.734000000004,
      "d": 516.3032291666677,
      "v": 100
    },
    {
      "midi": 53,
      "hit": false,
      "t": 22695.603,
      "d": 516.3032291666677,
      "v": 100
    },
    {
      "midi": 65,
      "hit": false,
      "t": 22695.603000000003,
      "d": 516.3032291666677,
      "v": 100
    },
    {
      "midi": 24,
      "hit": false,
      "t": 22956.472,
      "d": 2081.5172291666677,
      "v": 100
    },
    {
      "midi": 36,
      "hit": false,
      "t": 22956.47200000001,
      "d": 2081.517229166664,
      "v": 100
    },
    {
      "midi": 55,
      "hit": false,
      "t": 23739.079000000005,
      "d": 385.86872916666834,
      "v": 96
    },
    {
      "midi": 51,
      "hit": false,
      "t": 23999.948000000004,
      "d": 646.7377291666671,
      "v": 106
    },
    {
      "midi": 63,
      "hit": false,
      "t": 23999.948000000004,
      "d": 646.7377291666671,
      "v": 100
    },
    {
      "midi": 55,
      "hit": false,
      "t": 24260.817000000006,
      "d": 516.3032291666677,
      "v": 96
    },
    {
      "midi": 53,
      "hit": false,
      "t": 24521.686,
      "d": 646.7377291666671,
      "v": 100
    },
    {
      "midi": 65,
      "hit": false,
      "t": 24521.686000000005,
      "d": 646.7377291666671,
      "v": 100
    },
    {
      "midi": 31,
      "hit": false,
      "t": 24782.555000000008,
      "d": 516.3032291666641,
      "v": 100
    },
    {
      "midi": 24,
      "hit": false,
      "t": 25043.424000000003,
      "d": 1559.7792291666665,
      "v": 100
    },
    {
      "midi": 36,
      "hit": false,
      "t": 25043.424000000006,
      "d": 1559.7792291666665,
      "v": 100
    },
    {
      "midi": 55,
      "hit": false,
      "t": 25826.031000000006,
      "d": 385.86872916666834,
      "v": 96
    },
    {
      "midi": 51,
      "hit": false,
      "t": 26086.900000000005,
      "d": 646.7377291666671,
      "v": 106
    },
    {
      "midi": 63,
      "hit": false,
      "t": 26086.900000000005,
      "d": 646.7377291666671,
      "v": 100
    },
    {
      "midi": 55,
      "hit": false,
      "t": 26347.769000000008,
      "d": 516.3032291666677,
      "v": 96
    },
    {
      "midi": 62,
      "hit": false,
      "t": 26608.638000000003,
      "d": 777.1722291666665,
      "v": 100
    },
    {
      "midi": 31,
      "hit": false,
      "t": 26608.638000000006,
      "d": 516.3032291666677,
      "v": 100
    },
    {
      "midi": 24,
      "hit": false,
      "t": 27130.376000000004,
      "d": 2081.517229166664,
      "v": 100
    },
    {
      "midi": 36,
      "hit": false,
      "t": 27130.376000000007,
      "d": 2081.517229166664,
      "v": 100
    },
    {
      "midi": 55,
      "hit": false,
      "t": 27912.983000000007,
      "d": 385.86872916666834,
      "v": 96
    },
    {
      "midi": 51,
      "hit": false,
      "t": 28173.852000000006,
      "d": 646.7377291666671,
      "v": 106
    },
    {
      "midi": 63,
      "hit": false,
      "t": 28173.852000000006,
      "d": 646.7377291666671,
      "v": 100
    },
    {
      "midi": 55,
      "hit": false,
      "t": 28434.72100000001,
      "d": 516.3032291666677,
      "v": 96
    },
    {
      "midi": 53,
      "hit": false,
      "t": 28695.590000000004,
      "d": 646.7377291666671,
      "v": 100
    },
    {
      "midi": 65,
      "hit": false,
      "t": 28695.590000000004,
      "d": 646.7377291666671,
      "v": 100
    },
    {
      "midi": 31,
      "hit": false,
      "t": 28956.459000000006,
      "d": 516.3032291666641,
      "v": 100
    },
    {
      "midi": 24,
      "hit": false,
      "t": 29217.328,
      "d": 1559.7792291666665,
      "v": 100
    },
    {
      "midi": 36,
      "hit": false,
      "t": 29217.328000000005,
      "d": 1559.7792291666665,
      "v": 100
    },
    {
      "midi": 55,
      "hit": false,
      "t": 29999.93500000001,
      "d": 385.86872916666834,
      "v": 96
    },
    {
      "midi": 51,
      "hit": false,
      "t": 30260.804000000007,
      "d": 646.7377291666671,
      "v": 106
    },
    {
      "midi": 63,
      "hit": false,
      "t": 30260.804000000007,
      "d": 646.7377291666671,
      "v": 100
    },
    {
      "midi": 55,
      "hit": false,
      "t": 30521.67300000001,
      "d": 516.3032291666677,
      "v": 96
    },
    {
      "midi": 62,
      "hit": false,
      "t": 30782.542,
      "d": 777.1722291666665,
      "v": 100
    },
    {
      "midi": 31,
      "hit": false,
      "t": 30782.542000000005,
      "d": 516.3032291666677,
      "v": 100
    },
    {
      "midi": 24,
      "hit": false,
      "t": 31304.280000000002,
      "d": 2081.517229166664,
      "v": 100
    },
    {
      "midi": 36,
      "hit": false,
      "t": 31304.280000000006,
      "d": 2081.5172291666677,
      "v": 100
    },
    {
      "midi": 55,
      "hit": false,
      "t": 32086.88700000001,
      "d": 385.86872916666834,
      "v": 96
    },
    {
      "midi": 51,
      "hit": false,
      "t": 32347.75600000001,
      "d": 646.7377291666635,
      "v": 106
    },
    {
      "midi": 63,
      "hit": false,
      "t": 32347.75600000001,
      "d": 646.7377291666635,
      "v": 100
    },
    {
      "midi": 55,
      "hit": false,
      "t": 32608.62500000001,
      "d": 516.3032291666641,
      "v": 96
    },
    {
      "midi": 53,
      "hit": false,
      "t": 32869.494000000006,
      "d": 646.7377291666635,
      "v": 100
    },
    {
      "midi": 65,
      "hit": false,
      "t": 32869.494000000006,
      "d": 646.7377291666635,
      "v": 100
    },
    {
      "midi": 31,
      "hit": false,
      "t": 33130.363000000005,
      "d": 516.3032291666677,
      "v": 100
    },
    {
      "midi": 24,
      "hit": false,
      "t": 33391.231999999996,
      "d": 1559.7792291666701,
      "v": 100
    },
    {
      "midi": 36,
      "hit": false,
      "t": 33391.232,
      "d": 1559.7792291666701,
      "v": 100
    },
    {
      "midi": 55,
      "hit": false,
      "t": 34173.83900000001,
      "d": 385.8687291666647,
      "v": 96
    },
    {
      "midi": 51,
      "hit": false,
      "t": 34434.708000000006,
      "d": 646.7377291666635,
      "v": 106
    },
    {
      "midi": 63,
      "hit": false,
      "t": 34434.708000000006,
      "d": 646.7377291666635,
      "v": 100
    },
    {
      "midi": 55,
      "hit": false,
      "t": 34695.577000000005,
      "d": 516.3032291666677,
      "v": 96
    },
    {
      "midi": 62,
      "hit": false,
      "t": 34956.445999999996,
      "d": 777.1722291666665,
      "v": 100
    },
    {
      "midi": 31,
      "hit": false,
      "t": 34956.446,
      "d": 516.3032291666677,
      "v": 100
    },
    {
      "midi": 29,
      "hit": false,
      "t": 35478.184,
      "d": 2081.5172291666677,
      "v": 100
    },
    {
      "midi": 41,
      "hit": false,
      "t": 35478.18400000001,
      "d": 2081.5172291666677,
      "v": 100
    },
    {
      "midi": 53,
      "hit": false,
      "t": 35739.053,
      "d": 516.3032291666677,
      "v": 100
    },
    {
      "midi": 65,
      "hit": false,
      "t": 35739.053,
      "d": 516.3032291666677,
      "v": 100
    },
    {
      "midi": 56,
      "hit": false,
      "t": 35999.922,
      "d": 646.7377291666635,
      "v": 100
    },
    {
      "midi": 68,
      "hit": false,
      "t": 35999.922,
      "d": 646.7377291666635,
      "v": 100
    },
    {
      "midi": 53,
      "hit": false,
      "t": 36260.791,
      "d": 516.3032291666677,
      "v": 100
    },
    {
      "midi": 65,
      "hit": false,
      "t": 36260.791,
      "d": 516.3032291666677,
      "v": 100
    },
    {
      "midi": 55,
      "hit": false,
      "t": 36521.66,
      "d": 646.7377291666635,
      "v": 96
    },
    {
      "midi": 53,
      "hit": false,
      "t": 36782.528999999995,
      "d": 516.3032291666677,
      "v": 100
    },
    {
      "midi": 65,
      "hit": false,
      "t": 36782.528999999995,
      "d": 516.3032291666677,
      "v": 100
    },
    {
      "midi": 56,
      "hit": false,
      "t": 37043.397999999994,
      "d": 646.7377291666708,
      "v": 100
    },
    {
      "midi": 68,
      "hit": false,
      "t": 37043.397999999994,
      "d": 646.7377291666708,
      "v": 100
    },
    {
      "midi": 29,
      "hit": false,
      "t": 37565.136,
      "d": 2081.5172291666677,
      "v": 100
    },
    {
      "midi": 41,
      "hit": false,
      "t": 37565.136000000006,
      "d": 2081.5172291666677,
      "v": 100
    },
    {
      "midi": 53,
      "hit": false,
      "t": 37826.005,
      "d": 516.3032291666677,
      "v": 100
    },
    {
      "midi": 65,
      "hit": false,
      "t": 37826.005,
      "d": 516.3032291666677,
      "v": 100
    },
    {
      "midi": 56,
      "hit": false,
      "t": 38086.873999999996,
      "d": 646.7377291666635,
      "v": 100
    },
    {
      "midi": 68,
      "hit": false,
      "t": 38086.873999999996,
      "d": 646.7377291666635,
      "v": 100
    },
    {
      "midi": 53,
      "hit": false,
      "t": 38347.742999999995,
      "d": 516.3032291666677,
      "v": 100
    },
    {
      "midi": 65,
      "hit": false,
      "t": 38347.742999999995,
      "d": 516.3032291666677,
      "v": 100
    },
    {
      "midi": 55,
      "hit": false,
      "t": 38608.612,
      "d": 646.7377291666635,
      "v": 96
    },
    {
      "midi": 53,
      "hit": false,
      "t": 38869.48099999999,
      "d": 516.3032291666677,
      "v": 100
    },
    {
      "midi": 65,
      "hit": false,
      "t": 38869.48099999999,
      "d": 516.3032291666677,
      "v": 100
    },
    {
      "midi": 51,
      "hit": false,
      "t": 39130.350000000006,
      "d": 646.7377291666635,
      "v": 106
    },
    {
      "midi": 63,
      "hit": false,
      "t": 39130.350000000006,
      "d": 646.7377291666635,
      "v": 100
    },
    {
      "midi": 53,
      "hit": false,
      "t": 39391.21899999999,
      "d": 646.7377291666635,
      "v": 100
    },
    {
      "midi": 65,
      "hit": false,
      "t": 39391.21899999999,
      "d": 646.7377291666635,
      "v": 100
    },
    {
      "midi": 24,
      "hit": false,
      "t": 39652.087999999996,
      "d": 2081.5172291666677,
      "v": 100
    },
    {
      "midi": 36,
      "hit": false,
      "t": 39652.087999999996,
      "d": 2081.5172291666677,
      "v": 100
    },
    {
      "midi": 55,
      "hit": false,
      "t": 40434.695,
      "d": 385.8687291666647,
      "v": 96
    },
    {
      "midi": 51,
      "hit": false,
      "t": 40695.564000000006,
      "d": 646.7377291666635,
      "v": 106
    },
    {
      "midi": 63,
      "hit": false,
      "t": 40695.564000000006,
      "d": 646.7377291666635,
      "v": 100
    },
    {
      "midi": 55,
      "hit": false,
      "t": 40956.433,
      "d": 516.3032291666677,
      "v": 96
    },
    {
      "midi": 53,
      "hit": false,
      "t": 41217.30199999999,
      "d": 646.7377291666635,
      "v": 100
    },
    {
      "midi": 65,
      "hit": false,
      "t": 41217.30199999999,
      "d": 646.7377291666635,
      "v": 100
    },
    {
      "midi": 31,
      "hit": false,
      "t": 41478.170999999995,
      "d": 516.3032291666677,
      "v": 100
    },
    {
      "midi": 24,
      "hit": false,
      "t": 41739.03999999999,
      "d": 1559.7792291666701,
      "v": 100
    },
    {
      "midi": 36,
      "hit": false,
      "t": 41739.03999999999,
      "d": 1559.7792291666701,
      "v": 100
    },
    {
      "midi": 55,
      "hit": false,
      "t": 42521.647,
      "d": 385.8687291666647,
      "v": 96
    },
    {
      "midi": 51,
      "hit": false,
      "t": 42782.516,
      "d": 646.7377291666635,
      "v": 106
    },
    {
      "midi": 63,
      "hit": false,
      "t": 42782.516,
      "d": 646.7377291666635,
      "v": 100
    },
    {
      "midi": 55,
      "hit": false,
      "t": 43043.384999999995,
      "d": 516.3032291666677,
      "v": 96
    },
    {
      "midi": 24,
      "hit": false,
      "t": 43304.25399999999,
      "d": 516.3032291666677,
      "v": 100
    },
    {
      "midi": 62,
      "hit": false,
      "t": 43304.25399999999,
      "d": 777.1722291666665,
      "v": 100
    },
    {
      "midi": 36,
      "hit": false,
      "t": 43304.25399999999,
      "d": 516.3032291666677,
      "v": 100
    },
    {
      "midi": 31,
      "hit": false,
      "t": 43825.99199999999,
      "d": 2081.5172291666677,
      "v": 100
    },
    {
      "midi": 55,
      "hit": false,
      "t": 44086.861,
      "d": 385.8687291666647,
      "v": 96
    },
    {
      "midi": 58,
      "hit": false,
      "t": 44347.72999999999,
      "d": 646.7377291666635,
      "v": 100
    },
    {
      "midi": 70,
      "hit": false,
      "t": 44347.72999999999,
      "d": 646.7377291666635,
      "v": 100
    },
    {
      "midi": 55,
      "hit": false,
      "t": 44608.598999999995,
      "d": 516.3032291666677,
      "v": 96
    },
    {
      "midi": 72,
      "hit": false,
      "t": 44869.467999999986,
      "d": 646.7377291666635,
      "v": 100
    },
    {
      "midi": 55,
      "hit": false,
      "t": 45130.33699999999,
      "d": 516.3032291666677,
      "v": 96
    },
    {
      "midi": 58,
      "hit": false,
      "t": 45391.205999999984,
      "d": 516.3032291666677,
      "v": 100
    },
    {
      "midi": 70,
      "hit": false,
      "t": 45391.205999999984,
      "d": 516.3032291666677,
      "v": 100
    },
    {
      "midi": 55,
      "hit": false,
      "t": 45652.07499999999,
      "d": 385.8687291666647,
      "v": 96
    },
    {
      "midi": 27,
      "hit": false,
      "t": 45912.94399999998,
      "d": 2081.5172291666677,
      "v": 100
    },
    {
      "midi": 39,
      "hit": false,
      "t": 45912.94399999998,
      "d": 2081.5172291666677,
      "v": 100
    },
    {
      "midi": 51,
      "hit": false,
      "t": 46173.813,
      "d": 516.3032291666677,
      "v": 106
    },
    {
      "midi": 63,
      "hit": false,
      "t": 46173.813,
      "d": 516.3032291666677,
      "v": 100
    },
    {
      "midi": 55,
      "hit": false,
      "t": 46434.681999999986,
      "d": 516.3032291666677,
      "v": 96
    },
    {
      "midi": 51,
      "hit": false,
      "t": 46695.551,
      "d": 516.3032291666677,
      "v": 106
    },
    {
      "midi": 63,
      "hit": false,
      "t": 46695.551,
      "d": 516.3032291666677,
      "v": 100
    },
    {
      "midi": 56,
      "hit": false,
      "t": 46956.419999999984,
      "d": 516.3032291666677,
      "v": 100
    },
    {
      "midi": 68,
      "hit": false,
      "t": 46956.419999999984,
      "d": 516.3032291666677,
      "v": 100
    },
    {
      "midi": 51,
      "hit": false,
      "t": 47217.289,
      "d": 516.3032291666677,
      "v": 106
    },
    {
      "midi": 63,
      "hit": false,
      "t": 47217.289,
      "d": 516.3032291666677,
      "v": 100
    },
    {
      "midi": 58,
      "hit": false,
      "t": 47478.15799999998,
      "d": 516.3032291666677,
      "v": 100
    },
    {
      "midi": 70,
      "hit": false,
      "t": 47478.15799999998,
      "d": 516.3032291666677,
      "v": 100
    },
    {
      "midi": 51,
      "hit": false,
      "t": 47739.026999999995,
      "d": 516.3032291666677,
      "v": 106
    },
    {
      "midi": 63,
      "hit": false,
      "t": 47739.026999999995,
      "d": 516.3032291666677,
      "v": 100
    },
    {
      "midi": 29,
      "hit": false,
      "t": 47999.89599999999,
      "d": 2081.5172291666677,
      "v": 100
    },
    {
      "midi": 41,
      "hit": false,
      "t": 47999.89600000001,
      "d": 2081.5172291666677,
      "v": 100
    },
    {
      "midi": 53,
      "hit": false,
      "t": 48260.764999999985,
      "d": 516.3032291666677,
      "v": 100
    },
    {
      "midi": 65,
      "hit": false,
      "t": 48260.764999999985,
      "d": 516.3032291666677,
      "v": 100
    },
    {
      "midi": 56,
      "hit": false,
      "t": 48521.633999999984,
      "d": 516.3032291666677,
      "v": 100
    },
    {
      "midi": 68,
      "hit": false,
      "t": 48521.633999999984,
      "d": 516.3032291666677,
      "v": 100
    },
    {
      "midi": 53,
      "hit": false,
      "t": 48782.50299999998,
      "d": 516.3032291666677,
      "v": 100
    },
    {
      "midi": 65,
      "hit": false,
      "t": 48782.50299999998,
      "d": 516.3032291666677,
      "v": 100
    },
    {
      "midi": 55,
      "hit": false,
      "t": 49043.37199999999,
      "d": 516.3032291666677,
      "v": 96
    },
    {
      "midi": 51,
      "hit": false,
      "t": 49565.10999999999,
      "d": 516.3032291666677,
      "v": 106
    },
    {
      "midi": 63,
      "hit": false,
      "t": 49565.10999999999,
      "d": 516.3032291666677,
      "v": 100
    },
    {
      "midi": 53,
      "hit": false,
      "t": 49825.978999999985,
      "d": 516.3032291666677,
      "v": 100
    },
    {
      "midi": 65,
      "hit": false,
      "t": 49825.978999999985,
      "d": 516.3032291666677,
      "v": 100
    },
    {
      "midi": 24,
      "hit": false,
      "t": 50086.84799999999,
      "d": 2081.5172291666677,
      "v": 100
    },
    {
      "midi": 36,
      "hit": false,
      "t": 50086.84799999999,
      "d": 2081.5172291666677,
      "v": 100
    },
    {
      "midi": 55,
      "hit": false,
      "t": 50869.45499999999,
      "d": 385.8687291666647,
      "v": 96
    },
    {
      "midi": 51,
      "hit": false,
      "t": 51130.32399999999,
      "d": 646.7377291666635,
      "v": 106
    },
    {
      "midi": 63,
      "hit": false,
      "t": 51130.32399999999,
      "d": 646.7377291666635,
      "v": 100
    },
    {
      "midi": 55,
      "hit": false,
      "t": 51391.192999999985,
      "d": 516.3032291666677,
      "v": 96
    },
    {
      "midi": 53,
      "hit": false,
      "t": 51652.06199999998,
      "d": 646.7377291666635,
      "v": 100
    },
    {
      "midi": 65,
      "hit": false,
      "t": 51652.06199999998,
      "d": 646.7377291666635,
      "v": 100
    },
    {
      "midi": 31,
      "hit": false,
      "t": 51912.93099999999,
      "d": 516.3032291666677,
      "v": 100
    },
    {
      "midi": 24,
      "hit": false,
      "t": 52173.79999999999,
      "d": 1559.7792291666701,
      "v": 100
    },
    {
      "midi": 36,
      "hit": false,
      "t": 52173.79999999999,
      "d": 1559.7792291666701,
      "v": 100
    },
    {
      "midi": 55,
      "hit": false,
      "t": 52956.406999999985,
      "d": 385.8687291666647,
      "v": 96
    },
    {
      "midi": 51,
      "hit": false,
      "t": 53217.27599999999,
      "d": 646.7377291666635,
      "v": 106
    },
    {
      "midi": 63,
      "hit": false,
      "t": 53217.27599999999,
      "d": 646.7377291666635,
      "v": 100
    },
    {
      "midi": 55,
      "hit": false,
      "t": 53478.14499999998,
      "d": 516.3032291666677,
      "v": 96
    },
    {
      "midi": 62,
      "hit": false,
      "t": 53739.01399999999,
      "d": 777.1722291666665,
      "v": 100
    },
    {
      "midi": 31,
      "hit": false,
      "t": 53739.01399999999,
      "d": 516.3032291666677,
      "v": 100
    },
    {
      "midi": 24,
      "hit": false,
      "t": 54260.751999999986,
      "d": 2081.5172291666677,
      "v": 100
    },
    {
      "midi": 36,
      "hit": false,
      "t": 54260.751999999986,
      "d": 2081.5172291666677,
      "v": 100
    },
    {
      "midi": 55,
      "hit": false,
      "t": 55043.35899999998,
      "d": 255.43422916666896,
      "v": 96
    },
    {
      "midi": 46,
      "hit": false,
      "t": 55304.22799999998,
      "d": 646.7377291666635,
      "v": 100
    },
    {
      "midi": 55,
      "hit": false,
      "t": 55565.09699999999,
      "d": 255.43422916666896,
      "v": 96
    },
    {
      "midi": 55,
      "hit": false,
      "t": 56086.83499999999,
      "d": 255.43422916666896,
      "v": 96
    },
    {
      "midi": 24,
      "hit": false,
      "t": 56347.70399999998,
      "d": 1559.7792291666701,
      "v": 100
    },
    {
      "midi": 36,
      "hit": false,
      "t": 56347.70399999998,
      "d": 1559.7792291666701,
      "v": 100
    },
    {
      "midi": 55,
      "hit": false,
      "t": 56608.573,
      "d": 255.43422916666896,
      "v": 96
    },
    {
      "midi": 55,
      "hit": false,
      "t": 57130.311,
      "d": 255.43422916666896,
      "v": 96
    },
    {
      "midi": 55,
      "hit": false,
      "t": 57652.049000000006,
      "d": 255.43422916666896,
      "v": 96
    },
    {
      "midi": 46,
      "hit": false,
      "t": 57912.917999999976,
      "d": 124.99972916666593,
      "v": 100
    },
    {
      "midi": 26,
      "hit": false,
      "t": 57912.917999999976,
      "d": 516.3032291666677,
      "v": 100
    },
    {
      "midi": 38,
      "hit": false,
      "t": 57912.917999999976,
      "d": 516.3032291666677,
      "v": 100
    },
    {
      "midi": 62,
      "hit": false,
      "t": 57912.91799999998,
      "d": 777.1722291666665,
      "v": 100
    },
    {
      "midi": 27,
      "hit": false,
      "t": 58434.65599999997,
      "d": 2081.5172291666677,
      "v": 100
    },
    {
      "midi": 39,
      "hit": false,
      "t": 58434.65599999997,
      "d": 2081.5172291666677,
      "v": 100
    },
    {
      "midi": 51,
      "hit": false,
      "t": 58434.65599999999,
      "d": 646.7377291666635,
      "v": 106
    },
    {
      "midi": 58,
      "hit": false,
      "t": 58695.52499999997,
      "d": 255.43422916666896,
      "v": 100
    },
    {
      "midi": 63,
      "hit": false,
      "t": 58956.393999999986,
      "d": 385.8687291666647,
      "v": 100
    },
    {
      "midi": 58,
      "hit": false,
      "t": 59217.26299999998,
      "d": 124.99972916666593,
      "v": 100
    },
    {
      "midi": 51,
      "hit": false,
      "t": 59478.13199999998,
      "d": 646.7377291666635,
      "v": 106
    },
    {
      "midi": 63,
      "hit": false,
      "t": 59478.13199999998,
      "d": 124.99972916666593,
      "v": 90
    },
    {
      "midi": 58,
      "hit": false,
      "t": 59739.000999999975,
      "d": 124.99972916666593,
      "v": 100
    },
    {
      "midi": 63,
      "hit": false,
      "t": 59999.86999999998,
      "d": 385.8687291666647,
      "v": 100
    },
    {
      "midi": 58,
      "hit": false,
      "t": 60260.73899999997,
      "d": 124.99972916666593,
      "v": 100
    },
    {
      "midi": 49,
      "hit": false,
      "t": 60521.60799999997,
      "d": 646.7377291666635,
      "v": 100
    },
    {
      "midi": 25,
      "hit": false,
      "t": 60521.60799999997,
      "d": 2081.5172291666604,
      "v": 100
    },
    {
      "midi": 37,
      "hit": false,
      "t": 60521.60799999997,
      "d": 2081.5172291666604,
      "v": 100
    },
    {
      "midi": 61,
      "hit": false,
      "t": 61043.34599999997,
      "d": 385.8687291666647,
      "v": 100
    },
    {
      "midi": 65,
      "hit": false,
      "t": 61043.34599999998,
      "d": 385.8687291666647,
      "v": 90
    },
    {
      "midi": 56,
      "hit": false,
      "t": 61304.21499999997,
      "d": 124.99972916666593,
      "v": 100
    },
    {
      "midi": 61,
      "hit": false,
      "t": 61565.083999999966,
      "d": 124.99972916666593,
      "v": 90
    },
    {
      "midi": 49,
      "hit": false,
      "t": 61565.083999999966,
      "d": 646.7377291666635,
      "v": 100
    },
    {
      "midi": 65,
      "hit": false,
      "t": 61565.08399999998,
      "d": 385.8687291666647,
      "v": 90
    },
    {
      "midi": 56,
      "hit": false,
      "t": 61825.952999999965,
      "d": 124.99972916666593,
      "v": 100
    },
    {
      "midi": 61,
      "hit": false,
      "t": 62086.821999999964,
      "d": 385.8687291666647,
      "v": 100
    },
    {
      "midi": 65,
      "hit": false,
      "t": 62086.82199999998,
      "d": 385.8687291666647,
      "v": 90
    },
    {
      "midi": 56,
      "hit": false,
      "t": 62347.69099999996,
      "d": 124.99972916666593,
      "v": 100
    },
    {
      "midi": 44,
      "hit": false,
      "t": 62608.55999999996,
      "d": 646.7377291666635,
      "v": 100
    },
    {
      "midi": 32,
      "hit": false,
      "t": 62608.55999999996,
      "d": 2081.5172291666604,
      "v": 100
    },
    {
      "midi": 63,
      "hit": false,
      "t": 63130.29799999998,
      "d": 385.8687291666647,
      "v": 90
    },
    {
      "midi": 56,
      "hit": false,
      "t": 63391.16699999996,
      "d": 385.8687291666647,
      "v": 90
    },
    {
      "midi": 51,
      "hit": false,
      "t": 63391.16699999998,
      "d": 124.99972916666593,
      "v": 106
    },
    {
      "midi": 44,
      "hit": false,
      "t": 63652.03599999996,
      "d": 646.7377291666635,
      "v": 100
    },
    {
      "midi": 63,
      "hit": false,
      "t": 63652.03599999998,
      "d": 385.8687291666647,
      "v": 90
    },
    {
      "midi": 56,
      "hit": false,
      "t": 63912.904999999955,
      "d": 385.8687291666647,
      "v": 90
    },
    {
      "midi": 51,
      "hit": false,
      "t": 63912.90499999998,
      "d": 124.99972916666593,
      "v": 106
    },
    {
      "midi": 63,
      "hit": false,
      "t": 64173.773999999976,
      "d": 385.8687291666647,
      "v": 90
    },
    {
      "midi": 56,
      "hit": false,
      "t": 64434.64299999995,
      "d": 385.8687291666647,
      "v": 90
    },
    {
      "midi": 46,
      "hit": false,
      "t": 64695.51199999995,
      "d": 646.7377291666635,
      "v": 100
    },
    {
      "midi": 34,
      "hit": false,
      "t": 64695.51199999995,
      "d": 2081.5172291666895,
      "v": 100
    },
    {
      "midi": 65,
      "hit": false,
      "t": 65217.24999999998,
      "d": 385.8687291666647,
      "v": 90
    },
    {
      "midi": 62,
      "hit": false,
      "t": 65217.249999999985,
      "d": 385.868729166672,
      "v": 90
    },
    {
      "midi": 53,
      "hit": false,
      "t": 65478.11899999995,
      "d": 124.99972916666593,
      "v": 100
    },
    {
      "midi": 58,
      "hit": false,
      "t": 65478.11899999995,
      "d": 385.868729166672,
      "v": 90
    },
    {
      "midi": 46,
      "hit": false,
      "t": 65738.98799999995,
      "d": 646.737729166678,
      "v": 100
    },
    {
      "midi": 65,
      "hit": false,
      "t": 65738.98799999998,
      "d": 385.868729166672,
      "v": 90
    },
    {
      "midi": 62,
      "hit": false,
      "t": 65738.988,
      "d": 385.868729166672,
      "v": 90
    },
    {
      "midi": 53,
      "hit": false,
      "t": 65999.85699999996,
      "d": 124.99972916666593,
      "v": 100
    },
    {
      "midi": 58,
      "hit": false,
      "t": 66260.72599999997,
      "d": 124.99972916666593,
      "v": 100
    },
    {
      "midi": 65,
      "hit": false,
      "t": 66260.726,
      "d": 385.868729166672,
      "v": 90
    },
    {
      "midi": 62,
      "hit": false,
      "t": 66260.72600000001,
      "d": 385.868729166672,
      "v": 90
    },
    {
      "midi": 53,
      "hit": false,
      "t": 66521.59499999997,
      "d": 124.99972916666593,
      "v": 100
    },
    {
      "midi": 58,
      "hit": false,
      "t": 66521.59499999997,
      "d": 385.868729166672,
      "v": 90
    },
    {
      "midi": 27,
      "hit": false,
      "t": 66782.46399999998,
      "d": 2081.5172291666677,
      "v": 100
    },
    {
      "midi": 51,
      "hit": false,
      "t": 66782.46399999998,
      "d": 646.7377291666635,
      "v": 106
    },
    {
      "midi": 63,
      "hit": false,
      "t": 67304.20199999998,
      "d": 385.868729166672,
      "v": 100
    },
    {
      "midi": 58,
      "hit": false,
      "t": 67565.07099999998,
      "d": 124.99972916666593,
      "v": 100
    },
    {
      "midi": 51,
      "hit": false,
      "t": 67825.93999999997,
      "d": 646.7377291666635,
      "v": 106
    },
    {
      "midi": 63,
      "hit": false,
      "t": 67825.93999999999,
      "d": 124.99972916666593,
      "v": 90
    },
    {
      "midi": 58,
      "hit": false,
      "t": 68086.80899999998,
      "d": 124.99972916666593,
      "v": 100
    },
    {
      "midi": 63,
      "hit": false,
      "t": 68347.67799999999,
      "d": 385.868729166672,
      "v": 100
    },
    {
      "midi": 58,
      "hit": false,
      "t": 68608.54699999998,
      "d": 124.99972916666593,
      "v": 100
    },
    {
      "midi": 49,
      "hit": false,
      "t": 68869.41599999998,
      "d": 646.737729166678,
      "v": 100
    },
    {
      "midi": 25,
      "hit": false,
      "t": 68869.41599999998,
      "d": 2081.5172291667113,
      "v": 100
    },
    {
      "midi": 61,
      "hit": false,
      "t": 69391.154,
      "d": 385.868729166672,
      "v": 100
    },
    {
      "midi": 65,
      "hit": false,
      "t": 69391.154,
      "d": 385.868729166672,
      "v": 90
    },
    {
      "midi": 56,
      "hit": false,
      "t": 69652.023,
      "d": 124.99972916666593,
      "v": 100
    },
    {
      "midi": 61,
      "hit": false,
      "t": 69912.892,
      "d": 124.99972916666593,
      "v": 90
    },
    {
      "midi": 49,
      "hit": false,
      "t": 69912.892,
      "d": 646.737729166678,
      "v": 100
    },
    {
      "midi": 65,
      "hit": false,
      "t": 69912.892,
      "d": 385.868729166672,
      "v": 90
    },
    {
      "midi": 56,
      "hit": false,
      "t": 70173.76100000001,
      "d": 124.99972916666593,
      "v": 100
    },
    {
      "midi": 61,
      "hit": false,
      "t": 70434.63000000002,
      "d": 385.868729166672,
      "v": 100
    },
    {
      "midi": 65,
      "hit": false,
      "t": 70434.63000000002,
      "d": 385.868729166672,
      "v": 90
    },
    {
      "midi": 56,
      "hit": false,
      "t": 70695.49900000003,
      "d": 124.99972916666593,
      "v": 100
    },
    {
      "midi": 44,
      "hit": false,
      "t": 70956.36800000003,
      "d": 646.7377291666635,
      "v": 100
    },
    {
      "midi": 32,
      "hit": false,
      "t": 70956.36800000003,
      "d": 2081.517229166697,
      "v": 100
    },
    {
      "midi": 63,
      "hit": false,
      "t": 71478.10599999999,
      "d": 385.868729166672,
      "v": 90
    },
    {
      "midi": 51,
      "hit": false,
      "t": 71738.97499999996,
      "d": 124.99972916666593,
      "v": 106
    },
    {
      "midi": 56,
      "hit": false,
      "t": 71738.97500000003,
      "d": 385.868729166672,
      "v": 90
    },
    {
      "midi": 63,
      "hit": false,
      "t": 71999.844,
      "d": 385.868729166672,
      "v": 90
    },
    {
      "midi": 44,
      "hit": false,
      "t": 71999.84400000004,
      "d": 646.737729166678,
      "v": 100
    },
    {
      "midi": 51,
      "hit": false,
      "t": 72260.71299999996,
      "d": 124.99972916666593,
      "v": 106
    },
    {
      "midi": 56,
      "hit": false,
      "t": 72260.71300000005,
      "d": 385.868729166672,
      "v": 90
    },
    {
      "midi": 63,
      "hit": false,
      "t": 72521.58200000001,
      "d": 385.868729166672,
      "v": 90
    },
    {
      "midi": 56,
      "hit": false,
      "t": 72782.45100000006,
      "d": 385.868729166672,
      "v": 90
    },
    {
      "midi": 46,
      "hit": false,
      "t": 73043.32000000007,
      "d": 646.737729166678,
      "v": 100
    },
    {
      "midi": 34,
      "hit": false,
      "t": 73043.32000000007,
      "d": 2081.5172291667113,
      "v": 100
    },
    {
      "midi": 65,
      "hit": false,
      "t": 73565.05800000002,
      "d": 385.868729166672,
      "v": 90
    },
    {
      "midi": 62,
      "hit": false,
      "t": 73565.05800000002,
      "d": 385.868729166672,
      "v": 90
    },
    {
      "midi": 53,
      "hit": false,
      "t": 73825.92700000008,
      "d": 124.99972916666593,
      "v": 100
    },
    {
      "midi": 58,
      "hit": false,
      "t": 73825.92700000008,
      "d": 385.868729166672,
      "v": 90
    },
    {
      "midi": 65,
      "hit": false,
      "t": 74086.79600000003,
      "d": 385.868729166672,
      "v": 90
    },
    {
      "midi": 62,
      "hit": false,
      "t": 74086.79600000003,
      "d": 385.868729166672,
      "v": 90
    },
    {
      "midi": 46,
      "hit": false,
      "t": 74086.79600000009,
      "d": 646.737729166678,
      "v": 100
    },
    {
      "midi": 53,
      "hit": false,
      "t": 74347.6650000001,
      "d": 124.99972916666593,
      "v": 100
    },
    {
      "midi": 65,
      "hit": false,
      "t": 74608.53400000004,
      "d": 385.868729166672,
      "v": 90
    },
    {
      "midi": 62,
      "hit": false,
      "t": 74608.53400000004,
      "d": 385.868729166672,
      "v": 90
    },
    {
      "midi": 58,
      "hit": false,
      "t": 74608.5340000001,
      "d": 124.99972916666593,
      "v": 100
    },
    {
      "midi": 53,
      "hit": false,
      "t": 74869.40300000011,
      "d": 124.99972916666593,
      "v": 100
    },
    {
      "midi": 58,
      "hit": false,
      "t": 74869.40300000011,
      "d": 385.868729166672,
      "v": 90
    },
    {
      "midi": 51,
      "hit": false,
      "t": 75130.27199999995,
      "d": 646.7377291666635,
      "v": 106
    },
    {
      "midi": 27,
      "hit": false,
      "t": 75130.27200000011,
      "d": 2081.5172291666677,
      "v": 100
    },
    {
      "midi": 63,
      "hit": false,
      "t": 75652.01000000001,
      "d": 385.868729166672,
      "v": 100
    },
    {
      "midi": 58,
      "hit": false,
      "t": 75912.87900000012,
      "d": 124.99972916666593,
      "v": 100
    },
    {
      "midi": 51,
      "hit": false,
      "t": 76173.74799999995,
      "d": 646.7377291666635,
      "v": 106
    },
    {
      "midi": 63,
      "hit": false,
      "t": 76173.74800000002,
      "d": 124.99972916666593,
      "v": 90
    },
    {
      "midi": 58,
      "hit": false,
      "t": 76434.61700000011,
      "d": 124.99972916666593,
      "v": 100
    },
    {
      "midi": 63,
      "hit": false,
      "t": 76695.48600000002,
      "d": 385.868729166672,
      "v": 100
    },
    {
      "midi": 58,
      "hit": false,
      "t": 76956.35500000011,
      "d": 124.99972916666593,
      "v": 100
    },
    {
      "midi": 49,
      "hit": false,
      "t": 77217.22400000012,
      "d": 646.737729166678,
      "v": 100
    },
    {
      "midi": 25,
      "hit": false,
      "t": 77217.22400000012,
      "d": 2081.5172291667113,
      "v": 100
    },
    {
      "midi": 65,
      "hit": false,
      "t": 77738.96200000004,
      "d": 385.868729166672,
      "v": 90
    },
    {
      "midi": 61,
      "hit": false,
      "t": 77738.96200000013,
      "d": 385.868729166672,
      "v": 100
    },
    {
      "midi": 56,
      "hit": false,
      "t": 77999.83100000014,
      "d": 124.99972916666593,
      "v": 100
    },
    {
      "midi": 65,
      "hit": false,
      "t": 78260.70000000006,
      "d": 385.868729166672,
      "v": 90
    },
    {
      "midi": 61,
      "hit": false,
      "t": 78260.70000000014,
      "d": 124.99972916666593,
      "v": 90
    },
    {
      "midi": 49,
      "hit": false,
      "t": 78260.70000000014,
      "d": 646.737729166678,
      "v": 100
    },
    {
      "midi": 56,
      "hit": false,
      "t": 78521.56900000015,
      "d": 124.99972916666593,
      "v": 100
    },
    {
      "midi": 65,
      "hit": false,
      "t": 78782.43800000007,
      "d": 385.868729166672,
      "v": 90
    },
    {
      "midi": 61,
      "hit": false,
      "t": 78782.43800000015,
      "d": 385.868729166672,
      "v": 100
    },
    {
      "midi": 56,
      "hit": false,
      "t": 79043.30700000016,
      "d": 124.99972916666593,
      "v": 100
    },
    {
      "midi": 44,
      "hit": false,
      "t": 79304.17600000017,
      "d": 646.7377291666635,
      "v": 100
    },
    {
      "midi": 32,
      "hit": false,
      "t": 79304.17600000017,
      "d": 2081.517229166697,
      "v": 100
    },
    {
      "midi": 63,
      "hit": false,
      "t": 79825.91400000002,
      "d": 385.868729166672,
      "v": 90
    },
    {
      "midi": 51,
      "hit": false,
      "t": 80086.78299999994,
      "d": 124.99972916666593,
      "v": 106
    },
    {
      "midi": 56,
      "hit": false,
      "t": 80086.78300000017,
      "d": 385.868729166672,
      "v": 90
    },
    {
      "midi": 63,
      "hit": false,
      "t": 80347.65200000003,
      "d": 385.868729166672,
      "v": 90
    },
    {
      "midi": 44,
      "hit": false,
      "t": 80347.65200000018,
      "d": 646.737729166678,
      "v": 100
    },
    {
      "midi": 51,
      "hit": false,
      "t": 80608.52099999994,
      "d": 124.99972916666593,
      "v": 106
    },
    {
      "midi": 56,
      "hit": false,
      "t": 80608.52100000018,
      "d": 385.868729166672,
      "v": 90
    },
    {
      "midi": 63,
      "hit": false,
      "t": 80869.39000000004,
      "d": 385.868729166672,
      "v": 90
    },
    {
      "midi": 56,
      "hit": false,
      "t": 81130.2590000002,
      "d": 385.868729166672,
      "v": 90
    },
    {
      "midi": 46,
      "hit": false,
      "t": 81391.1280000002,
      "d": 646.737729166678,
      "v": 100
    },
    {
      "midi": 34,
      "hit": false,
      "t": 81391.1280000002,
      "d": 2081.5172291667113,
      "v": 100
    },
    {
      "midi": 62,
      "hit": false,
      "t": 81912.86600000005,
      "d": 385.868729166672,
      "v": 90
    },
    {
      "midi": 65,
      "hit": false,
      "t": 81912.86600000007,
      "d": 385.868729166672,
      "v": 90
    },
    {
      "midi": 53,
      "hit": false,
      "t": 82173.73500000022,
      "d": 124.99972916666593,
      "v": 100
    },
    {
      "midi": 58,
      "hit": false,
      "t": 82173.73500000022,
      "d": 385.868729166672,
      "v": 90
    },
    {
      "midi": 62,
      "hit": false,
      "t": 82434.60400000006,
      "d": 385.868729166672,
      "v": 90
    },
    {
      "midi": 65,
      "hit": false,
      "t": 82434.60400000008,
      "d": 385.868729166672,
      "v": 90
    },
    {
      "midi": 46,
      "hit": false,
      "t": 82434.60400000022,
      "d": 646.737729166678,
      "v": 100
    },
    {
      "midi": 53,
      "hit": false,
      "t": 82695.47300000023,
      "d": 124.99972916666593,
      "v": 100
    },
    {
      "midi": 62,
      "hit": false,
      "t": 82956.34200000008,
      "d": 385.868729166672,
      "v": 90
    },
    {
      "midi": 65,
      "hit": false,
      "t": 82956.34200000009,
      "d": 385.868729166672,
      "v": 90
    },
    {
      "midi": 58,
      "hit": false,
      "t": 82956.34200000024,
      "d": 124.99972916666593,
      "v": 100
    },
    {
      "midi": 53,
      "hit": false,
      "t": 83217.21100000024,
      "d": 124.99972916666593,
      "v": 100
    },
    {
      "midi": 58,
      "hit": false,
      "t": 83217.21100000024,
      "d": 385.868729166672,
      "v": 90
    },
    {
      "midi": 51,
      "hit": false,
      "t": 83478.07999999993,
      "d": 646.7377291666635,
      "v": 106
    },
    {
      "midi": 27,
      "hit": false,
      "t": 83478.08000000025,
      "d": 2081.5172291666677,
      "v": 100
    },
    {
      "midi": 63,
      "hit": false,
      "t": 83999.81800000004,
      "d": 385.868729166672,
      "v": 100
    },
    {
      "midi": 58,
      "hit": false,
      "t": 84260.68700000025,
      "d": 124.99972916666593,
      "v": 100
    },
    {
      "midi": 51,
      "hit": false,
      "t": 84521.55599999992,
      "d": 646.7377291666635,
      "v": 106
    },
    {
      "midi": 63,
      "hit": false,
      "t": 84521.55600000006,
      "d": 124.99972916666593,
      "v": 90
    },
    {
      "midi": 58,
      "hit": false,
      "t": 84782.42500000025,
      "d": 124.99972916666593,
      "v": 100
    },
    {
      "midi": 63,
      "hit": false,
      "t": 85043.29400000005,
      "d": 385.868729166672,
      "v": 100
    },
    {
      "midi": 58,
      "hit": false,
      "t": 85304.16300000025,
      "d": 124.99972916666593,
      "v": 100
    },
    {
      "midi": 51,
      "hit": false,
      "t": 85565.03199999992,
      "d": 646.7377291666635,
      "v": 106
    },
    {
      "midi": 27,
      "hit": false,
      "t": 85565.03200000025,
      "d": 1559.7792291666701,
      "v": 100
    },
    {
      "midi": 63,
      "hit": false,
      "t": 86086.77000000006,
      "d": 385.868729166672,
      "v": 100
    },
    {
      "midi": 58,
      "hit": false,
      "t": 86347.63900000026,
      "d": 124.99972916666593,
      "v": 100
    },
    {
      "midi": 51,
      "hit": false,
      "t": 86608.50799999991,
      "d": 646.7377291666635,
      "v": 106
    },
    {
      "midi": 63,
      "hit": false,
      "t": 86608.50800000007,
      "d": 124.99972916666593,
      "v": 90
    },
    {
      "midi": 58,
      "hit": false,
      "t": 86869.37700000026,
      "d": 124.99972916666593,
      "v": 100
    },
    {
      "midi": 62,
      "hit": false,
      "t": 87130.24600000009,
      "d": 385.868729166672,
      "v": 90
    },
    {
      "midi": 26,
      "hit": false,
      "t": 87130.24600000026,
      "d": 516.303229166675,
      "v": 100
    },
    {
      "midi": 58,
      "hit": false,
      "t": 87391.11500000027,
      "d": 124.99972916666593,
      "v": 100
    },
    {
      "midi": 59,
      "hit": false,
      "t": 87391.11500000027,
      "d": 385.868729166672,
      "v": 90
    },
    {
      "midi": 36,
      "hit": false,
      "t": 87651.984,
      "d": 2081.5172291666677,
      "v": 100
    },
    {
      "midi": 24,
      "hit": false,
      "t": 87651.9840000001,
      "d": 2081.5172291666677,
      "v": 100
    },
    {
      "midi": 55,
      "hit": false,
      "t": 88434.59100000001,
      "d": 385.868729166672,
      "v": 96
    },
    {
      "midi": 51,
      "hit": false,
      "t": 88695.4599999999,
      "d": 646.7377291666635,
      "v": 106
    },
    {
      "midi": 63,
      "hit": false,
      "t": 88695.46000000008,
      "d": 646.7377291666635,
      "v": 100
    },
    {
      "midi": 55,
      "hit": false,
      "t": 88956.32900000003,
      "d": 516.3032291666605,
      "v": 96
    },
    {
      "midi": 65,
      "hit": false,
      "t": 89217.19800000009,
      "d": 646.7377291666635,
      "v": 100
    },
    {
      "midi": 53,
      "hit": false,
      "t": 89217.19800000027,
      "d": 646.7377291666635,
      "v": 100
    },
    {
      "midi": 31,
      "hit": false,
      "t": 89478.067,
      "d": 516.303229166675,
      "v": 100
    },
    {
      "midi": 36,
      "hit": false,
      "t": 89738.936,
      "d": 1559.7792291666701,
      "v": 100
    },
    {
      "midi": 24,
      "hit": false,
      "t": 89738.9360000001,
      "d": 1559.7792291666701,
      "v": 100
    },
    {
      "midi": 55,
      "hit": false,
      "t": 90521.54300000002,
      "d": 385.868729166672,
      "v": 96
    },
    {
      "midi": 51,
      "hit": false,
      "t": 90782.4119999999,
      "d": 646.7377291666635,
      "v": 106
    },
    {
      "midi": 63,
      "hit": false,
      "t": 90782.41200000007,
      "d": 646.7377291666635,
      "v": 100
    },
    {
      "midi": 55,
      "hit": false,
      "t": 91043.28100000003,
      "d": 516.3032291666605,
      "v": 96
    },
    {
      "midi": 31,
      "hit": false,
      "t": 91304.15000000001,
      "d": 516.3032291666605,
      "v": 100
    },
    {
      "midi": 62,
      "hit": false,
      "t": 91304.15000000011,
      "d": 777.1722291666665,
      "v": 100
    },
    {
      "midi": 36,
      "hit": false,
      "t": 91825.888,
      "d": 2081.5172291666677,
      "v": 100
    },
    {
      "midi": 24,
      "hit": false,
      "t": 91825.88800000011,
      "d": 2081.5172291666677,
      "v": 100
    },
    {
      "midi": 55,
      "hit": false,
      "t": 92608.49500000002,
      "d": 385.868729166672,
      "v": 96
    },
    {
      "midi": 51,
      "hit": false,
      "t": 92869.36399999988,
      "d": 646.7377291666635,
      "v": 106
    },
    {
      "midi": 63,
      "hit": false,
      "t": 92869.36400000006,
      "d": 646.7377291666635,
      "v": 100
    },
    {
      "midi": 55,
      "hit": false,
      "t": 93130.23300000004,
      "d": 516.3032291666605,
      "v": 96
    },
    {
      "midi": 65,
      "hit": false,
      "t": 93391.10200000009,
      "d": 646.7377291666635,
      "v": 100
    },
    {
      "midi": 53,
      "hit": false,
      "t": 93391.10200000026,
      "d": 646.7377291666635,
      "v": 100
    },
    {
      "midi": 31,
      "hit": false,
      "t": 93651.971,
      "d": 516.303229166675,
      "v": 100
    },
    {
      "midi": 36,
      "hit": false,
      "t": 93912.84000000001,
      "d": 1559.7792291666701,
      "v": 100
    },
    {
      "midi": 24,
      "hit": false,
      "t": 93912.84000000011,
      "d": 1559.7792291666701,
      "v": 100
    },
    {
      "midi": 55,
      "hit": false,
      "t": 94695.44700000003,
      "d": 385.868729166672,
      "v": 96
    },
    {
      "midi": 51,
      "hit": false,
      "t": 94956.31599999988,
      "d": 646.7377291666635,
      "v": 106
    },
    {
      "midi": 63,
      "hit": false,
      "t": 94956.31600000005,
      "d": 646.7377291666635,
      "v": 100
    },
    {
      "midi": 55,
      "hit": false,
      "t": 95217.18500000004,
      "d": 516.3032291666605,
      "v": 96
    },
    {
      "midi": 31,
      "hit": false,
      "t": 95478.05400000002,
      "d": 516.3032291666605,
      "v": 100
    },
    {
      "midi": 62,
      "hit": false,
      "t": 95478.05400000012,
      "d": 777.1722291666665,
      "v": 100
    },
    {
      "midi": 29,
      "hit": false,
      "t": 95999.79200000002,
      "d": 2081.5172291666677,
      "v": 100
    },
    {
      "midi": 41,
      "hit": false,
      "t": 95999.79200000002,
      "d": 2081.5172291666677,
      "v": 100
    },
    {
      "midi": 65,
      "hit": false,
      "t": 96260.66100000008,
      "d": 516.3032291666605,
      "v": 100
    },
    {
      "midi": 53,
      "hit": false,
      "t": 96260.66100000025,
      "d": 516.303229166675,
      "v": 100
    },
    {
      "midi": 56,
      "hit": false,
      "t": 96521.53000000026,
      "d": 646.737729166678,
      "v": 100
    },
    {
      "midi": 68,
      "hit": false,
      "t": 96521.53000000026,
      "d": 646.737729166678,
      "v": 100
    },
    {
      "midi": 65,
      "hit": false,
      "t": 96782.39900000008,
      "d": 516.3032291666605,
      "v": 100
    },
    {
      "midi": 53,
      "hit": false,
      "t": 96782.39900000027,
      "d": 516.303229166675,
      "v": 100
    },
    {
      "midi": 55,
      "hit": false,
      "t": 97043.26800000004,
      "d": 646.7377291666635,
      "v": 96
    },
    {
      "midi": 65,
      "hit": false,
      "t": 97304.13700000008,
      "d": 516.3032291666605,
      "v": 100
    },
    {
      "midi": 53,
      "hit": false,
      "t": 97304.13700000028,
      "d": 516.303229166675,
      "v": 100
    },
    {
      "midi": 56,
      "hit": false,
      "t": 97565.00600000028,
      "d": 646.7377291666635,
      "v": 100
    },
    {
      "midi": 68,
      "hit": false,
      "t": 97565.00600000028,
      "d": 646.7377291666635,
      "v": 100
    },
    {
      "midi": 29,
      "hit": false,
      "t": 98086.74400000002,
      "d": 2081.5172291666677,
      "v": 100
    },
    {
      "midi": 41,
      "hit": false,
      "t": 98086.74400000002,
      "d": 2081.5172291666677,
      "v": 100
    },
    {
      "midi": 65,
      "hit": false,
      "t": 98347.61300000007,
      "d": 516.3032291666605,
      "v": 100
    },
    {
      "midi": 53,
      "hit": false,
      "t": 98347.61300000029,
      "d": 516.303229166675,
      "v": 100
    },
    {
      "midi": 56,
      "hit": false,
      "t": 98608.4820000003,
      "d": 646.737729166678,
      "v": 100
    },
    {
      "midi": 68,
      "hit": false,
      "t": 98608.4820000003,
      "d": 646.737729166678,
      "v": 100
    },
    {
      "midi": 65,
      "hit": false,
      "t": 98869.35100000007,
      "d": 516.3032291666605,
      "v": 100
    },
    {
      "midi": 53,
      "hit": false,
      "t": 98869.3510000003,
      "d": 516.303229166675,
      "v": 100
    },
    {
      "midi": 55,
      "hit": false,
      "t": 99130.22000000003,
      "d": 646.7377291666635,
      "v": 96
    },
    {
      "midi": 65,
      "hit": false,
      "t": 99391.08900000007,
      "d": 516.3032291666605,
      "v": 100
    },
    {
      "midi": 53,
      "hit": false,
      "t": 99391.08900000031,
      "d": 516.3032291666605,
      "v": 100
    },
    {
      "midi": 51,
      "hit": false,
      "t": 99651.95799999987,
      "d": 646.7377291666635,
      "v": 106
    },
    {
      "midi": 63,
      "hit": false,
      "t": 99651.95800000004,
      "d": 646.7377291666635,
      "v": 100
    },
    {
      "midi": 65,
      "hit": false,
      "t": 99912.82700000006,
      "d": 646.7377291666635,
      "v": 100
    },
    {
      "midi": 53,
      "hit": false,
      "t": 99912.82700000031,
      "d": 646.7377291666635,
      "v": 100
    },
    {
      "midi": 36,
      "hit": false,
      "t": 100173.69600000003,
      "d": 2081.5172291666677,
      "v": 100
    },
    {
      "midi": 24,
      "hit": false,
      "t": 100173.69600000011,
      "d": 2081.5172291666677,
      "v": 100
    },
    {
      "midi": 55,
      "hit": false,
      "t": 100956.30300000003,
      "d": 385.868729166672,
      "v": 96
    },
    {
      "midi": 51,
      "hit": false,
      "t": 101217.17199999986,
      "d": 646.7377291666635,
      "v": 106
    },
    {
      "midi": 63,
      "hit": false,
      "t": 101217.17200000004,
      "d": 646.7377291666635,
      "v": 100
    },
    {
      "midi": 55,
      "hit": false,
      "t": 101478.04100000004,
      "d": 516.3032291666605,
      "v": 96
    },
    {
      "midi": 65,
      "hit": false,
      "t": 101738.91000000006,
      "d": 646.7377291666635,
      "v": 100
    },
    {
      "midi": 53,
      "hit": false,
      "t": 101738.91000000031,
      "d": 646.7377291666635,
      "v": 100
    },
    {
      "midi": 31,
      "hit": false,
      "t": 101999.77900000002,
      "d": 516.303229166675,
      "v": 100
    },
    {
      "midi": 36,
      "hit": false,
      "t": 102260.64800000003,
      "d": 1559.7792291666701,
      "v": 100
    },
    {
      "midi": 24,
      "hit": false,
      "t": 102260.64800000012,
      "d": 1559.7792291666701,
      "v": 100
    },
    {
      "midi": 55,
      "hit": false,
      "t": 103043.25500000003,
      "d": 385.868729166672,
      "v": 96
    },
    {
      "midi": 51,
      "hit": false,
      "t": 103304.12399999985,
      "d": 646.7377291666635,
      "v": 106
    },
    {
      "midi": 63,
      "hit": false,
      "t": 103304.12400000003,
      "d": 646.7377291666635,
      "v": 100
    },
    {
      "midi": 55,
      "hit": false,
      "t": 103564.99300000005,
      "d": 516.3032291666605,
      "v": 96
    },
    {
      "midi": 36,
      "hit": false,
      "t": 103825.86200000004,
      "d": 516.3032291666605,
      "v": 100
    },
    {
      "midi": 24,
      "hit": false,
      "t": 103825.86200000012,
      "d": 516.3032291666605,
      "v": 100
    },
    {
      "midi": 62,
      "hit": false,
      "t": 103825.86200000012,
      "d": 777.1722291666665,
      "v": 100
    },
    {
      "midi": 31,
      "hit": false,
      "t": 104347.60000000003,
      "d": 2081.5172291666677,
      "v": 100
    },
    {
      "midi": 55,
      "hit": false,
      "t": 104608.46900000004,
      "d": 385.868729166672,
      "v": 96
    },
    {
      "midi": 58,
      "hit": false,
      "t": 104869.33800000031,
      "d": 646.7377291666635,
      "v": 100
    },
    {
      "midi": 70,
      "hit": false,
      "t": 104869.33800000031,
      "d": 646.7377291666635,
      "v": 100
    },
    {
      "midi": 55,
      "hit": false,
      "t": 105130.20700000005,
      "d": 516.3032291666605,
      "v": 96
    },
    {
      "midi": 72,
      "hit": false,
      "t": 105391.0760000003,
      "d": 646.7377291666635,
      "v": 100
    },
    {
      "midi": 55,
      "hit": false,
      "t": 105651.94500000005,
      "d": 516.3032291666605,
      "v": 96
    },
    {
      "midi": 58,
      "hit": false,
      "t": 105912.8140000003,
      "d": 516.3032291666605,
      "v": 100
    },
    {
      "midi": 70,
      "hit": false,
      "t": 105912.8140000003,
      "d": 516.3032291666605,
      "v": 100
    },
    {
      "midi": 55,
      "hit": false,
      "t": 106173.68300000005,
      "d": 385.868729166672,
      "v": 96
    },
    {
      "midi": 27,
      "hit": false,
      "t": 106434.5520000003,
      "d": 2081.517229166653,
      "v": 100
    },
    {
      "midi": 39,
      "hit": false,
      "t": 106434.5520000003,
      "d": 2081.517229166653,
      "v": 100
    },
    {
      "midi": 51,
      "hit": false,
      "t": 106695.42099999984,
      "d": 516.3032291666605,
      "v": 106
    },
    {
      "midi": 63,
      "hit": false,
      "t": 106695.42100000002,
      "d": 516.3032291666605,
      "v": 100
    },
    {
      "midi": 55,
      "hit": false,
      "t": 106956.29000000005,
      "d": 516.3032291666605,
      "v": 96
    },
    {
      "midi": 51,
      "hit": false,
      "t": 107217.15899999984,
      "d": 516.3032291666605,
      "v": 106
    },
    {
      "midi": 63,
      "hit": false,
      "t": 107217.15900000001,
      "d": 516.3032291666605,
      "v": 100
    },
    {
      "midi": 56,
      "hit": false,
      "t": 107478.0280000003,
      "d": 516.3032291666605,
      "v": 100
    },
    {
      "midi": 68,
      "hit": false,
      "t": 107478.0280000003,
      "d": 516.3032291666605,
      "v": 100
    },
    {
      "midi": 51,
      "hit": false,
      "t": 107738.89699999984,
      "d": 516.3032291666605,
      "v": 106
    },
    {
      "midi": 63,
      "hit": false,
      "t": 107738.89700000001,
      "d": 516.3032291666605,
      "v": 100
    },
    {
      "midi": 58,
      "hit": false,
      "t": 107999.7660000003,
      "d": 516.3032291666605,
      "v": 100
    },
    {
      "midi": 70,
      "hit": false,
      "t": 107999.7660000003,
      "d": 516.3032291666605,
      "v": 100
    },
    {
      "midi": 51,
      "hit": false,
      "t": 108260.63499999983,
      "d": 516.3032291666605,
      "v": 106
    },
    {
      "midi": 63,
      "hit": false,
      "t": 108260.63500000001,
      "d": 516.3032291666605,
      "v": 100
    },
    {
      "midi": 41,
      "hit": false,
      "t": 108521.50400000002,
      "d": 2081.5172291666677,
      "v": 100
    },
    {
      "midi": 29,
      "hit": false,
      "t": 108521.50400000003,
      "d": 2081.5172291666677,
      "v": 100
    },
    {
      "midi": 65,
      "hit": false,
      "t": 108782.37300000007,
      "d": 516.3032291666605,
      "v": 100
    },
    {
      "midi": 53,
      "hit": false,
      "t": 108782.37300000028,
      "d": 516.303229166675,
      "v": 100
    },
    {
      "midi": 56,
      "hit": false,
      "t": 109043.24200000029,
      "d": 516.303229166675,
      "v": 100
    },
    {
      "midi": 68,
      "hit": false,
      "t": 109043.24200000029,
      "d": 516.303229166675,
      "v": 100
    },
    {
      "midi": 65,
      "hit": false,
      "t": 109304.11100000006,
      "d": 516.3032291666605,
      "v": 100
    },
    {
      "midi": 53,
      "hit": false,
      "t": 109304.1110000003,
      "d": 516.303229166675,
      "v": 100
    },
    {
      "midi": 55,
      "hit": false,
      "t": 109564.98000000004,
      "d": 516.3032291666605,
      "v": 96
    },
    {
      "midi": 51,
      "hit": false,
      "t": 110086.71799999983,
      "d": 516.3032291666605,
      "v": 106
    },
    {
      "midi": 63,
      "hit": false,
      "t": 110086.71800000001,
      "d": 516.3032291666605,
      "v": 100
    },
    {
      "midi": 65,
      "hit": false,
      "t": 110347.58700000006,
      "d": 516.3032291666605,
      "v": 100
    },
    {
      "midi": 53,
      "hit": false,
      "t": 110347.5870000003,
      "d": 516.3032291666605,
      "v": 100
    },
    {
      "midi": 36,
      "hit": false,
      "t": 110608.45600000003,
      "d": 2081.5172291666677,
      "v": 100
    },
    {
      "midi": 24,
      "hit": false,
      "t": 110608.45600000012,
      "d": 2081.5172291666677,
      "v": 100
    },
    {
      "midi": 55,
      "hit": false,
      "t": 111391.06300000004,
      "d": 385.868729166672,
      "v": 96
    },
    {
      "midi": 51,
      "hit": false,
      "t": 111651.93199999983,
      "d": 646.7377291666635,
      "v": 106
    },
    {
      "midi": 63,
      "hit": false,
      "t": 111651.932,
      "d": 646.7377291666635,
      "v": 100
    },
    {
      "midi": 55,
      "hit": false,
      "t": 111912.80100000005,
      "d": 516.3032291666605,
      "v": 96
    },
    {
      "midi": 65,
      "hit": false,
      "t": 112173.67000000006,
      "d": 646.7377291666635,
      "v": 100
    },
    {
      "midi": 53,
      "hit": false,
      "t": 112173.6700000003,
      "d": 646.7377291666635,
      "v": 100
    },
    {
      "midi": 31,
      "hit": false,
      "t": 112434.53900000003,
      "d": 516.303229166675,
      "v": 100
    },
    {
      "midi": 36,
      "hit": false,
      "t": 112695.40800000004,
      "d": 1559.7792291666701,
      "v": 100
    },
    {
      "midi": 24,
      "hit": false,
      "t": 112695.40800000013,
      "d": 1559.7792291666701,
      "v": 100
    },
    {
      "midi": 55,
      "hit": false,
      "t": 113478.01500000004,
      "d": 385.868729166672,
      "v": 96
    },
    {
      "midi": 51,
      "hit": false,
      "t": 113738.88399999982,
      "d": 646.7377291666635,
      "v": 106
    },
    {
      "midi": 63,
      "hit": false,
      "t": 113738.88399999999,
      "d": 646.7377291666635,
      "v": 100
    },
    {
      "midi": 55,
      "hit": false,
      "t": 113999.75300000006,
      "d": 516.3032291666605,
      "v": 96
    },
    {
      "midi": 31,
      "hit": false,
      "t": 114260.62200000005,
      "d": 516.3032291666605,
      "v": 100
    },
    {
      "midi": 62,
      "hit": false,
      "t": 114260.62200000013,
      "d": 777.1722291666665,
      "v": 100
    },
    {
      "midi": 36,
      "hit": false,
      "t": 114782.36000000004,
      "d": 2081.5172291666677,
      "v": 100
    },
    {
      "midi": 24,
      "hit": false,
      "t": 114782.36000000013,
      "d": 2081.5172291666677,
      "v": 100
    }
  ]
}