{
  "jsonPath": "World/Celtic/Enya/marble-halls-remastered-2009.json",
  "path": "World\\Celtic\\Enya\\Marble Halls (Remastered 2009).mid",
  "name": "Marble Halls (Remastered 2009)",
  "difficulty": "Advanced",
  "bpm": 100,
  "notes": [
    {
      "midi": 77,
      "hit": false,
      "t": 1731.25,
      "d": 493.75,
      "v": 76
    },
    {
      "midi": 77,
      "hit": false,
      "t": 2293.75,
      "d": 443.75,
      "v": 89
    },
    {
      "midi": 58,
      "hit": false,
      "t": 2325,
      "d": 287.5,
      "v": 67
    },
    {
      "midi": 65,
      "hit": false,
      "t": 2575,
      "d": 281.25,
      "v": 78
    },
    {
      "midi": 70,
      "hit": false,
      "t": 2800,
      "d": 256.25,
      "v": 84
    },
    {
      "midi": 82,
      "hit": false,
      "t": 2812.5,
      "d": 162.5,
      "v": 96
    },
    {
      "midi": 65,
      "hit": false,
      "t": 3043.75,
      "d": 256.25,
      "v": 72
    },
    {
      "midi": 70,
      "hit": false,
      "t": 3275,
      "d": 268.75,
      "v": 75
    },
    {
      "midi": 81,
      "hit": false,
      "t": 3281.25,
      "d": 518.75,
      "v": 94
    },
    {
      "midi": 65,
      "hit": false,
      "t": 3556.25,
      "d": 262.5,
      "v": 70
    },
    {
      "midi": 77,
      "hit": false,
      "t": 3781.25,
      "d": 543.75,
      "v": 78
    },
    {
      "midi": 58,
      "hit": false,
      "t": 3793.75,
      "d": 300,
      "v": 73
    },
    {
      "midi": 65,
      "hit": false,
      "t": 4050,
      "d": 256.25,
      "v": 78
    },
    {
      "midi": 70,
      "hit": false,
      "t": 4275,
      "d": 237.5,
      "v": 85
    },
    {
      "midi": 81,
      "hit": false,
      "t": 4275,
      "d": 475,
      "v": 90
    },
    {
      "midi": 65,
      "hit": false,
      "t": 4500,
      "d": 250,
      "v": 65
    },
    {
      "midi": 70,
      "hit": false,
      "t": 4743.75,
      "d": 262.5,
      "v": 81
    },
    {
      "midi": 79,
      "hit": false,
      "t": 4750,
      "d": 512.5,
      "v": 88
    },
    {
      "midi": 65,
      "hit": false,
      "t": 5025,
      "d": 225,
      "v": 66
    },
    {
      "midi": 77,
      "hit": false,
      "t": 5237.5,
      "d": 531.25,
      "v": 85
    },
    {
      "midi": 58,
      "hit": false,
      "t": 5243.75,
      "d": 293.75,
      "v": 73
    },
    {
      "midi": 65,
      "hit": false,
      "t": 5500,
      "d": 268.75,
      "v": 77
    },
    {
      "midi": 70,
      "hit": false,
      "t": 5737.5,
      "d": 237.5,
      "v": 75
    },
    {
      "midi": 79,
      "hit": false,
      "t": 5750,
      "d": 456.25,
      "v": 86
    },
    {
      "midi": 65,
      "hit": false,
      "t": 5968.75,
      "d": 250,
      "v": 59
    },
    {
      "midi": 70,
      "hit": false,
      "t": 6206.25,
      "d": 268.75,
      "v": 73
    },
    {
      "midi": 77,
      "hit": false,
      "t": 6212.5,
      "d": 518.75,
      "v": 82
    },
    {
      "midi": 65,
      "hit": false,
      "t": 6475,
      "d": 243.75,
      "v": 65
    },
    {
      "midi": 74,
      "hit": false,
      "t": 6718.75,
      "d": 725,
      "v": 73
    },
    {
      "midi": 58,
      "hit": false,
      "t": 6725,
      "d": 256.25,
      "v": 74
    },
    {
      "midi": 65,
      "hit": false,
      "t": 6968.75,
      "d": 300,
      "v": 71
    },
    {
      "midi": 70,
      "hit": false,
      "t": 7243.75,
      "d": 243.75,
      "v": 73
    },
    {
      "midi": 65,
      "hit": false,
      "t": 7506.25,
      "d": 256.25,
      "v": 62
    },
    {
      "midi": 70,
      "hit": false,
      "t": 7762.5,
      "d": 212.5,
      "v": 71
    },
    {
      "midi": 74,
      "hit": false,
      "t": 7775,
      "d": 637.5,
      "v": 90
    },
    {
      "midi": 65,
      "hit": false,
      "t": 8062.5,
      "d": 112.5,
      "v": 77
    },
    {
      "midi": 77,
      "hit": false,
      "t": 8356.25,
      "d": 475,
      "v": 84
    },
    {
      "midi": 53,
      "hit": false,
      "t": 8368.75,
      "d": 318.75,
      "v": 66
    },
    {
      "midi": 60,
      "hit": false,
      "t": 8625,
      "d": 325,
      "v": 75
    },
    {
      "midi": 65,
      "hit": false,
      "t": 8875,
      "d": 200,
      "v": 76
    },
    {
      "midi": 75,
      "hit": false,
      "t": 8887.5,
      "d": 443.75,
      "v": 84
    },
    {
      "midi": 60,
      "hit": false,
      "t": 9112.5,
      "d": 250,
      "v": 77
    },
    {
      "midi": 71,
      "hit": false,
      "t": 9362.5,
      "d": 562.5,
      "v": 85
    },
    {
      "midi": 65,
      "hit": false,
      "t": 9368.75,
      "d": 206.25,
      "v": 72
    },
    {
      "midi": 60,
      "hit": false,
      "t": 9618.75,
      "d": 231.25,
      "v": 77
    },
    {
      "midi": 72,
      "hit": false,
      "t": 9868.75,
      "d": 318.75,
      "v": 86
    },
    {
      "midi": 53,
      "hit": false,
      "t": 9875,
      "d": 337.5,
      "v": 73
    },
    {
      "midi": 60,
      "hit": false,
      "t": 10125,
      "d": 306.25,
      "v": 77
    },
    {
      "midi": 65,
      "hit": false,
      "t": 10400,
      "d": 237.5,
      "v": 71
    },
    {
      "midi": 60,
      "hit": false,
      "t": 10700,
      "d": 275,
      "v": 71
    },
    {
      "midi": 65,
      "hit": false,
      "t": 10968.75,
      "d": 275,
      "v": 77
    },
    {
      "midi": 75,
      "hit": false,
      "t": 10975,
      "d": 593.75,
      "v": 80
    },
    {
      "midi": 60,
      "hit": false,
      "t": 11250,
      "d": 143.75,
      "v": 67
    },
    {
      "midi": 74,
      "hit": false,
      "t": 11537.5,
      "d": 2612.5,
      "v": 75
    },
    {
      "midi": 58,
      "hit": false,
      "t": 11550,
      "d": 281.25,
      "v": 66
    },
    {
      "midi": 65,
      "hit": false,
      "t": 11806.25,
      "d": 312.5,
      "v": 80
    },
    {
      "midi": 70,
      "hit": false,
      "t": 12087.5,
      "d": 237.5,
      "v": 86
    },
    {
      "midi": 65,
      "hit": false,
      "t": 12375,
      "d": 281.25,
      "v": 65
    },
    {
      "midi": 70,
      "hit": false,
      "t": 12662.5,
      "d": 287.5,
      "v": 74
    },
    {
      "midi": 65,
      "hit": false,
      "t": 12937.5,
      "d": 287.5,
      "v": 61
    },
    {
      "midi": 58,
      "hit": false,
      "t": 13193.75,
      "d": 331.25,
      "v": 74
    },
    {
      "midi": 65,
      "hit": false,
      "t": 13500,
      "d": 281.25,
      "v": 65
    },
    {
      "midi": 70,
      "hit": false,
      "t": 13762.5,
      "d": 250,
      "v": 73
    },
    {
      "midi": 65,
      "hit": false,
      "t": 14025,
      "d": 243.75,
      "v": 61
    },
    {
      "midi": 70,
      "hit": false,
      "t": 14281.25,
      "d": 268.75,
      "v": 71
    },
    {
      "midi": 77,
      "hit": false,
      "t": 14300,
      "d": 381.25,
      "v": 83
    },
    {
      "midi": 65,
      "hit": false,
      "t": 14581.25,
      "d": 218.75,
      "v": 65
    },
    {
      "midi": 77,
      "hit": false,
      "t": 14837.5,
      "d": 512.5,
      "v": 77
    },
    {
      "midi": 58,
      "hit": false,
      "t": 14843.75,
      "d": 281.25,
      "v": 77
    },
    {
      "midi": 65,
      "hit": false,
      "t": 15100,
      "d": 306.25,
      "v": 71
    },
    {
      "midi": 82,
      "hit": false,
      "t": 15350,
      "d": 231.25,
      "v": 86
    },
    {
      "midi": 70,
      "hit": false,
      "t": 15350,
      "d": 237.5,
      "v": 76
    },
    {
      "midi": 65,
      "hit": false,
      "t": 15600,
      "d": 250,
      "v": 67
    },
    {
      "midi": 81,
      "hit": false,
      "t": 15825,
      "d": 500,
      "v": 86
    },
    {
      "midi": 70,
      "hit": false,
      "t": 15831.25,
      "d": 225,
      "v": 84
    },
    {
      "midi": 65,
      "hit": false,
      "t": 16087.5,
      "d": 218.75,
      "v": 60
    },
    {
      "midi": 58,
      "hit": false,
      "t": 16306.25,
      "d": 287.5,
      "v": 72
    },
    {
      "midi": 77,
      "hit": false,
      "t": 16318.75,
      "d": 537.5,
      "v": 80
    },
    {
      "midi": 65,
      "hit": false,
      "t": 16562.5,
      "d": 243.75,
      "v": 76
    },
    {
      "midi": 70,
      "hit": false,
      "t": 16793.75,
      "d": 231.25,
      "v": 78
    },
    {
      "midi": 81,
      "hit": false,
      "t": 16800,
      "d": 562.5,
      "v": 86
    },
    {
      "midi": 65,
      "hit": false,
      "t": 17037.5,
      "d": 243.75,
      "v": 60
    },
    {
      "midi": 70,
      "hit": false,
      "t": 17268.75,
      "d": 256.25,
      "v": 74
    },
    {
      "midi": 79,
      "hit": false,
      "t": 17287.5,
      "d": 487.5,
      "v": 105
    },
    {
      "midi": 65,
      "hit": false,
      "t": 17543.75,
      "d": 206.25,
      "v": 61
    },
    {
      "midi": 77,
      "hit": false,
      "t": 17750,
      "d": 543.75,
      "v": 84
    },
    {
      "midi": 58,
      "hit": false,
      "t": 17762.5,
      "d": 262.5,
      "v": 77
    },
    {
      "midi": 65,
      "hit": false,
      "t": 18000,
      "d": 250,
      "v": 76
    },
    {
      "midi": 70,
      "hit": false,
      "t": 18225,
      "d": 231.25,
      "v": 76
    },
    {
      "midi": 79,
      "hit": false,
      "t": 18243.75,
      "d": 443.75,
      "v": 85
    },
    {
      "midi": 65,
      "hit": false,
      "t": 18468.75,
      "d": 237.5,
      "v": 59
    },
    {
      "midi": 77,
      "hit": false,
      "t": 18687.5,
      "d": 512.5,
      "v": 86
    },
    {
      "midi": 70,
      "hit": false,
      "t": 18700,
      "d": 268.75,
      "v": 73
    },
    {
      "midi": 65,
      "hit": false,
      "t": 18956.25,
      "d": 193.75,
      "v": 65
    },
    {
      "midi": 58,
      "hit": false,
      "t": 19175,
      "d": 275,
      "v": 78
    },
    {
      "midi": 74,
      "hit": false,
      "t": 19175,
      "d": 725,
      "v": 81
    },
    {
      "midi": 65,
      "hit": false,
      "t": 19425,
      "d": 318.75,
      "v": 72
    },
    {
      "midi": 70,
      "hit": false,
      "t": 19700,
      "d": 268.75,
      "v": 81
    },
    {
      "midi": 65,
      "hit": false,
      "t": 19956.25,
      "d": 300,
      "v": 61
    },
    {
      "midi": 74,
      "hit": false,
      "t": 20212.5,
      "d": 568.75,
      "v": 89
    },
    {
      "midi": 70,
      "hit": false,
      "t": 20225,
      "d": 168.75,
      "v": 75
    },
    {
      "midi": 65,
      "hit": false,
      "t": 20487.5,
      "d": 100,
      "v": 70
    },
    {
      "midi": 77,
      "hit": false,
      "t": 20750,
      "d": 481.25,
      "v": 84
    },
    {
      "midi": 53,
      "hit": false,
      "t": 20775,
      "d": 275,
      "v": 77
    },
    {
      "midi": 60,
      "hit": false,
      "t": 21000,
      "d": 275,
      "v": 83
    },
    {
      "midi": 75,
      "hit": false,
      "t": 21237.5,
      "d": 125,
      "v": 90
    },
    {
      "midi": 65,
      "hit": false,
      "t": 21250,
      "d": 181.25,
      "v": 81
    },
    {
      "midi": 60,
      "hit": false,
      "t": 21456.25,
      "d": 268.75,
      "v": 71
    },
    {
      "midi": 65,
      "hit": false,
      "t": 21706.25,
      "d": 225,
      "v": 70
    },
    {
      "midi": 71,
      "hit": false,
      "t": 21706.25,
      "d": 568.75,
      "v": 80
    },
    {
      "midi": 60,
      "hit": false,
      "t": 21950,
      "d": 231.25,
      "v": 72
    },
    {
      "midi": 53,
      "hit": false,
      "t": 22200,
      "d": 300,
      "v": 75
    },
    {
      "midi": 72,
      "hit": false,
      "t": 22200,
      "d": 425,
      "v": 76
    },
    {
      "midi": 60,
      "hit": false,
      "t": 22450,
      "d": 331.25,
      "v": 76
    },
    {
      "midi": 65,
      "hit": false,
      "t": 22725,
      "d": 225,
      "v": 82
    },
    {
      "midi": 60,
      "hit": false,
      "t": 23000,
      "d": 281.25,
      "v": 71
    },
    {
      "midi": 75,
      "hit": false,
      "t": 23256.25,
      "d": 593.75,
      "v": 80
    },
    {
      "midi": 65,
      "hit": false,
      "t": 23262.5,
      "d": 300,
      "v": 74
    },
    {
      "midi": 60,
      "hit": false,
      "t": 23531.25,
      "d": 131.25,
      "v": 74
    },
    {
      "midi": 74,
      "hit": false,
      "t": 23818.75,
      "d": 2631.25,
      "v": 74
    },
    {
      "midi": 58,
      "hit": false,
      "t": 23825,
      "d": 293.75,
      "v": 78
    },
    {
      "midi": 65,
      "hit": false,
      "t": 24087.5,
      "d": 312.5,
      "v": 65
    },
    {
      "midi": 70,
      "hit": false,
      "t": 24375,
      "d": 300,
      "v": 77
    },
    {
      "midi": 65,
      "hit": false,
      "t": 24662.5,
      "d": 256.25,
      "v": 67
    },
    {
      "midi": 70,
      "hit": false,
      "t": 24925,
      "d": 275,
      "v": 83
    },
    {
      "midi": 65,
      "hit": false,
      "t": 25200,
      "d": 268.75,
      "v": 69
    },
    {
      "midi": 58,
      "hit": false,
      "t": 25450,
      "d": 325,
      "v": 81
    },
    {
      "midi": 65,
      "hit": false,
      "t": 25731.25,
      "d": 300,
      "v": 73
    },
    {
      "midi": 70,
      "hit": false,
      "t": 26012.5,
      "d": 293.75,
      "v": 74
    },
    {
      "midi": 65,
      "hit": false,
      "t": 26293.75,
      "d": 300,
      "v": 63
    },
    {
      "midi": 75,
      "hit": false,
      "t": 26575,
      "d": 343.75,
      "v": 88
    },
    {
      "midi": 70,
      "hit": false,
      "t": 26587.5,
      "d": 243.75,
      "v": 78
    },
    {
      "midi": 65,
      "hit": false,
      "t": 26837.5,
      "d": 287.5,
      "v": 65
    },
    {
      "midi": 77,
      "hit": false,
      "t": 26868.75,
      "d": 337.5,
      "v": 76
    },
    {
      "midi": 79,
      "hit": false,
      "t": 27181.25,
      "d": 268.75,
      "v": 84
    },
    {
      "midi": 63,
      "hit": false,
      "t": 27200,
      "d": 350,
      "v": 74
    },
    {
      "midi": 67,
      "hit": false,
      "t": 27443.75,
      "d": 262.5,
      "v": 77
    },
    {
      "midi": 70,
      "hit": false,
      "t": 27675,
      "d": 262.5,
      "v": 85
    },
    {
      "midi": 84,
      "hit": false,
      "t": 27687.5,
      "d": 437.5,
      "v": 98
    },
    {
      "midi": 67,
      "hit": false,
      "t": 27918.75,
      "d": 262.5,
      "v": 78
    },
    {
      "midi": 70,
      "hit": false,
      "t": 28156.25,
      "d": 293.75,
      "v": 84
    },
    {
      "midi": 82,
      "hit": false,
      "t": 28162.5,
      "d": 518.75,
      "v": 96
    },
    {
      "midi": 67,
      "hit": false,
      "t": 28412.5,
      "d": 237.5,
      "v": 80
    },
    {
      "midi": 63,
      "hit": false,
      "t": 28656.25,
      "d": 343.75,
      "v": 85
    },
    {
      "midi": 78,
      "hit": false,
      "t": 28662.5,
      "d": 525,
      "v": 84
    },
    {
      "midi": 66,
      "hit": false,
      "t": 28925,
      "d": 275,
      "v": 76
    },
    {
      "midi": 70,
      "hit": false,
      "t": 29168.75,
      "d": 268.75,
      "v": 80
    },
    {
      "midi": 84,
      "hit": false,
      "t": 29175,
      "d": 475,
      "v": 101
    },
    {
      "midi": 66,
      "hit": false,
      "t": 29418.75,
      "d": 268.75,
      "v": 70
    },
    {
      "midi": 70,
      "hit": false,
      "t": 29668.75,
      "d": 262.5,
      "v": 80
    },
    {
      "midi": 82,
      "hit": false,
      "t": 29675,
      "d": 600,
      "v": 92
    },
    {
      "midi": 66,
      "hit": false,
      "t": 29950,
      "d": 125,
      "v": 64
    },
    {
      "midi": 77,
      "hit": false,
      "t": 30231.25,
      "d": 550,
      "v": 82
    },
    {
      "midi": 58,
      "hit": false,
      "t": 30250,
      "d": 293.75,
      "v": 64
    },
    {
      "midi": 62,
      "hit": false,
      "t": 30506.25,
      "d": 250,
      "v": 77
    },
    {
      "midi": 65,
      "hit": false,
      "t": 30750,
      "d": 243.75,
      "v": 88
    },
    {
      "midi": 84,
      "hit": false,
      "t": 30750,
      "d": 518.75,
      "v": 96
    },
    {
      "midi": 62,
      "hit": false,
      "t": 31012.5,
      "d": 243.75,
      "v": 77
    },
    {
      "midi": 65,
      "hit": false,
      "t": 31250,
      "d": 275,
      "v": 80
    },
    {
      "midi": 82,
      "hit": false,
      "t": 31275,
      "d": 531.25,
      "v": 88
    },
    {
      "midi": 62,
      "hit": false,
      "t": 31537.5,
      "d": 237.5,
      "v": 65
    },
    {
      "midi": 58,
      "hit": false,
      "t": 31787.5,
      "d": 400,
      "v": 86
    },
    {
      "midi": 77,
      "hit": false,
      "t": 31800,
      "d": 956.25,
      "v": 86
    },
    {
      "midi": 62,
      "hit": false,
      "t": 32075,
      "d": 306.25,
      "v": 67
    },
    {
      "midi": 65,
      "hit": false,
      "t": 32356.25,
      "d": 281.25,
      "v": 80
    },
    {
      "midi": 62,
      "hit": false,
      "t": 32637.5,
      "d": 287.5,
      "v": 59
    },
    {
      "midi": 65,
      "hit": false,
      "t": 32925,
      "d": 318.75,
      "v": 78
    },
    {
      "midi": 77,
      "hit": false,
      "t": 32931.25,
      "d": 562.5,
      "v": 89
    },
    {
      "midi": 62,
      "hit": false,
      "t": 33200,
      "d": 193.75,
      "v": 74
    },
    {
      "midi": 60,
      "hit": false,
      "t": 33462.5,
      "d": 412.5,
      "v": 84
    },
    {
      "midi": 76,
      "hit": false,
      "t": 33475,
      "d": 518.75,
      "v": 82
    },
    {
      "midi": 64,
      "hit": false,
      "t": 33725,
      "d": 293.75,
      "v": 80
    },
    {
      "midi": 67,
      "hit": false,
      "t": 33987.5,
      "d": 275,
      "v": 86
    },
    {
      "midi": 77,
      "hit": false,
      "t": 34000,
      "d": 281.25,
      "v": 105
    },
    {
      "midi": 64,
      "hit": false,
      "t": 34237.5,
      "d": 287.5,
      "v": 83
    },
    {
      "midi": 67,
      "hit": false,
      "t": 34493.75,
      "d": 293.75,
      "v": 84
    },
    {
      "midi": 79,
      "hit": false,
      "t": 34500,
      "d": 275,
      "v": 100
    },
    {
      "midi": 64,
      "hit": false,
      "t": 34793.75,
      "d": 150,
      "v": 69
    },
    {
      "midi": 81,
      "hit": false,
      "t": 35043.75,
      "d": 687.5,
      "v": 92
    },
    {
      "midi": 57,
      "hit": false,
      "t": 35043.75,
      "d": 1500,
      "v": 67
    },
    {
      "midi": 64,
      "hit": false,
      "t": 35343.75,
      "d": 993.75,
      "v": 82
    },
    {
      "midi": 69,
      "hit": false,
      "t": 35637.5,
      "d": 306.25,
      "v": 85
    },
    {
      "midi": 73,
      "hit": false,
      "t": 35925,
      "d": 250,
      "v": 81
    },
    {
      "midi": 81,
      "hit": false,
      "t": 36225,
      "d": 450,
      "v": 96
    },
    {
      "midi": 69,
      "hit": false,
      "t": 36231.25,
      "d": 418.75,
      "v": 78
    },
    {
      "midi": 64,
      "hit": false,
      "t": 36525,
      "d": 162.5,
      "v": 75
    },
    {
      "midi": 62,
      "hit": false,
      "t": 36812.5,
      "d": 1475,
      "v": 81
    },
    {
      "midi": 81,
      "hit": false,
      "t": 36825,
      "d": 662.5,
      "v": 89
    },
    {
      "midi": 66,
      "hit": false,
      "t": 37087.5,
      "d": 987.5,
      "v": 80
    },
    {
      "midi": 69,
      "hit": false,
      "t": 37375,
      "d": 300,
      "v": 85
    },
    {
      "midi": 74,
      "hit": false,
      "t": 37675,
      "d": 1306.25,
      "v": 83
    },
    {
      "midi": 69,
      "hit": false,
      "t": 37981.25,
      "d": 393.75,
      "v": 65
    },
    {
      "midi": 66,
      "hit": false,
      "t": 38318.75,
      "d": 131.25,
      "v": 62
    },
    {
      "midi": 53,
      "hit": false,
      "t": 38693.75,
      "d": 1862.5,
      "v": 101
    },
    {
      "midi": 60,
      "hit": false,
      "t": 39031.25,
      "d": 1568.75,
      "v": 77
    },
    {
      "midi": 65,
      "hit": false,
      "t": 39356.25,
      "d": 343.75,
      "v": 78
    },
    {
      "midi": 69,
      "hit": false,
      "t": 39681.25,
      "d": 356.25,
      "v": 75
    },
    {
      "midi": 72,
      "hit": false,
      "t": 40012.5,
      "d": 175,
      "v": 82
    },
    {
      "midi": 65,
      "hit": false,
      "t": 40381.25,
      "d": 237.5,
      "v": 57
    },
    {
      "midi": 77,
      "hit": false,
      "t": 40806.25,
      "d": 318.75,
      "v": 76
    },
    {
      "midi": 58,
      "hit": false,
      "t": 41393.75,
      "d": 362.5,
      "v": 67
    },
    {
      "midi": 77,
      "hit": false,
      "t": 41393.75,
      "d": 437.5,
      "v": 77
    },
    {
      "midi": 65,
      "hit": false,
      "t": 41656.25,
      "d": 368.75,
      "v": 82
    },
    {
      "midi": 82,
      "hit": false,
      "t": 41912.5,
      "d": 150,
      "v": 100
    },
    {
      "midi": 70,
      "hit": false,
      "t": 41925,
      "d": 281.25,
      "v": 78
    },
    {
      "midi": 65,
      "hit": false,
      "t": 42181.25,
      "d": 281.25,
      "v": 69
    },
    {
      "midi": 81,
      "hit": false,
      "t": 42393.75,
      "d": 462.5,
      "v": 109
    },
    {
      "midi": 70,
      "hit": false,
      "t": 42406.25,
      "d": 287.5,
      "v": 77
    },
    {
      "midi": 65,
      "hit": false,
      "t": 42668.75,
      "d": 237.5,
      "v": 69
    },
    {
      "midi": 58,
      "hit": false,
      "t": 42875,
      "d": 331.25,
      "v": 83
    },
    {
      "midi": 77,
      "hit": false,
      "t": 42875,
      "d": 500,
      "v": 83
    },
    {
      "midi": 65,
      "hit": false,
      "t": 43131.25,
      "d": 300,
      "v": 82
    },
    {
      "midi": 81,
      "hit": false,
      "t": 43350,
      "d": 387.5,
      "v": 90
    },
    {
      "midi": 70,
      "hit": false,
      "t": 43375,
      "d": 250,
      "v": 77
    },
    {
      "midi": 65,
      "hit": false,
      "t": 43606.25,
      "d": 287.5,
      "v": 66
    },
    {
      "midi": 70,
      "hit": false,
      "t": 43850,
      "d": 300,
      "v": 75
    },
    {
      "midi": 79,
      "hit": false,
      "t": 43850,
      "d": 506.25,
      "v": 84
    },
    {
      "midi": 65,
      "hit": false,
      "t": 44112.5,
      "d": 262.5,
      "v": 65
    },
    {
      "midi": 77,
      "hit": false,
      "t": 44343.75,
      "d": 506.25,
      "v": 82
    },
    {
      "midi": 58,
      "hit": false,
      "t": 44350,
      "d": 300,
      "v": 78
    },
    {
      "midi": 65,
      "hit": false,
      "t": 44600,
      "d": 300,
      "v": 76
    },
    {
      "midi": 79,
      "hit": false,
      "t": 44843.75,
      "d": 518.75,
      "v": 89
    },
    {
      "midi": 70,
      "hit": false,
      "t": 44850,
      "d": 256.25,
      "v": 81
    },
    {
      "midi": 65,
      "hit": false,
      "t": 45100,
      "d": 256.25,
      "v": 72
    },
    {
      "midi": 70,
      "hit": false,
      "t": 45318.75,
      "d": 281.25,
      "v": 78
    },
    {
      "midi": 77,
      "hit": false,
      "t": 45337.5,
      "d": 206.25,
      "v": 81
    },
    {
      "midi": 65,
      "hit": false,
      "t": 45575,
      "d": 225,
      "v": 69
    },
    {
      "midi": 58,
      "hit": false,
      "t": 45800,
      "d": 325,
      "v": 84
    },
    {
      "midi": 74,
      "hit": false,
      "t": 45806.25,
      "d": 656.25,
      "v": 83
    },
    {
      "midi": 65,
      "hit": false,
      "t": 46075,
      "d": 350,
      "v": 73
    },
    {
      "midi": 70,
      "hit": false,
      "t": 46356.25,
      "d": 275,
      "v": 77
    },
    {
      "midi": 65,
      "hit": false,
      "t": 46618.75,
      "d": 306.25,
      "v": 60
    },
    {
      "midi": 70,
      "hit": false,
      "t": 46900,
      "d": 200,
      "v": 75
    },
    {
      "midi": 74,
      "hit": false,
      "t": 46900,
      "d": 600,
      "v": 89
    },
    {
      "midi": 65,
      "hit": false,
      "t": 47175,
      "d": 106.25,
      "v": 73
    },
    {
      "midi": 77,
      "hit": false,
      "t": 47450,
      "d": 481.25,
      "v": 82
    },
    {
      "midi": 53,
      "hit": false,
      "t": 47475,
      "d": 343.75,
      "v": 86
    },
    {
      "midi": 60,
      "hit": false,
      "t": 47706.25,
      "d": 331.25,
      "v": 78
    },
    {
      "midi": 75,
      "hit": false,
      "t": 47950,
      "d": 150,
      "v": 100
    },
    {
      "midi": 65,
      "hit": false,
      "t": 47956.25,
      "d": 200,
      "v": 80
    },
    {
      "midi": 60,
      "hit": false,
      "t": 48175,
      "d": 275,
      "v": 66
    },
    {
      "midi": 65,
      "hit": false,
      "t": 48418.75,
      "d": 231.25,
      "v": 72
    },
    {
      "midi": 71,
      "hit": false,
      "t": 48418.75,
      "d": 231.25,
      "v": 86
    },
    {
      "midi": 60,
      "hit": false,
      "t": 48675,
      "d": 200,
      "v": 67
    },
    {
      "midi": 72,
      "hit": false,
      "t": 48912.5,
      "d": 412.5,
      "v": 88
    },
    {
      "midi": 53,
      "hit": false,
      "t": 48912.5,
      "d": 743.75,
      "v": 77
    },
    {
      "midi": 60,
      "hit": false,
      "t": 49162.5,
      "d": 337.5,
      "v": 69
    },
    {
      "midi": 65,
      "hit": false,
      "t": 49450,
      "d": 225,
      "v": 80
    },
    {
      "midi": 60,
      "hit": false,
      "t": 49731.25,
      "d": 318.75,
      "v": 75
    },
    {
      "midi": 65,
      "hit": false,
      "t": 50000,
      "d": 218.75,
      "v": 77
    },
    {
      "midi": 75,
      "hit": false,
      "t": 50000,
      "d": 550,
      "v": 84
    },
    {
      "midi": 60,
      "hit": false,
      "t": 50231.25,
      "d": 125,
      "v": 75
    },
    {
      "midi": 58,
      "hit": false,
      "t": 50525,
      "d": 337.5,
      "v": 77
    },
    {
      "midi": 74,
      "hit": false,
      "t": 50525,
      "d": 518.75,
      "v": 75
    },
    {
      "midi": 65,
      "hit": false,
      "t": 50818.75,
      "d": 356.25,
      "v": 48
    },
    {
      "midi": 70,
      "hit": false,
      "t": 51100,
      "d": 256.25,
      "v": 82
    },
    {
      "midi": 65,
      "hit": false,
      "t": 51400,
      "d": 287.5,
      "v": 62
    },
    {
      "midi": 75,
      "hit": false,
      "t": 51675,
      "d": 300,
      "v": 82
    },
    {
      "midi": 70,
      "hit": false,
      "t": 51681.25,
      "d": 193.75,
      "v": 76
    },
    {
      "midi": 77,
      "hit": false,
      "t": 51950,
      "d": 106.25,
      "v": 77
    },
    {
      "midi": 65,
      "hit": false,
      "t": 51956.25,
      "d": 68.75,
      "v": 74
    },
    {
      "midi": 79,
      "hit": false,
      "t": 52275,
      "d": 300,
      "v": 86
    },
    {
      "midi": 51,
      "hit": false,
      "t": 52287.5,
      "d": 300,
      "v": 71
    },
    {
      "midi": 58,
      "hit": false,
      "t": 52525,
      "d": 287.5,
      "v": 76
    },
    {
      "midi": 63,
      "hit": false,
      "t": 52768.75,
      "d": 212.5,
      "v": 84
    },
    {
      "midi": 81,
      "hit": false,
      "t": 52775,
      "d": 125,
      "v": 100
    },
    {
      "midi": 58,
      "hit": false,
      "t": 52975,
      "d": 318.75,
      "v": 74
    },
    {
      "midi": 82,
      "hit": false,
      "t": 53250,
      "d": 112.5,
      "v": 92
    },
    {
      "midi": 63,
      "hit": false,
      "t": 53250,
      "d": 181.25,
      "v": 89
    },
    {
      "midi": 58,
      "hit": false,
      "t": 53512.5,
      "d": 118.75,
      "v": 80
    },
    {
      "midi": 74,
      "hit": false,
      "t": 53600,
      "d": 156.25,
      "v": 65
    },
    {
      "midi": 77,
      "hit": false,
      "t": 53650,
      "d": 150,
      "v": 67
    },
    {
      "midi": 82,
      "hit": false,
      "t": 53750,
      "d": 206.25,
      "v": 86
    },
    {
      "midi": 58,
      "hit": false,
      "t": 53756.25,
      "d": 268.75,
      "v": 81
    },
    {
      "midi": 65,
      "hit": false,
      "t": 53993.75,
      "d": 275,
      "v": 70
    },
    {
      "midi": 84,
      "hit": false,
      "t": 54006.25,
      "d": 100,
      "v": 78
    },
    {
      "midi": 82,
      "hit": false,
      "t": 54087.5,
      "d": 93.75,
      "v": 74
    },
    {
      "midi": 81,
      "hit": false,
      "t": 54175,
      "d": 175,
      "v": 86
    },
    {
      "midi": 70,
      "hit": false,
      "t": 54225,
      "d": 243.75,
      "v": 85
    },
    {
      "midi": 65,
      "hit": false,
      "t": 54450,
      "d": 275,
      "v": 78
    },
    {
      "midi": 82,
      "hit": false,
      "t": 54662.5,
      "d": 112.5,
      "v": 100
    },
    {
      "midi": 70,
      "hit": false,
      "t": 54700,
      "d": 281.25,
      "v": 74
    },
    {
      "midi": 65,
      "hit": false,
      "t": 54943.75,
      "d": 118.75,
      "v": 64
    },
    {
      "midi": 77,
      "hit": false,
      "t": 55006.25,
      "d": 137.5,
      "v": 70
    },
    {
      "midi": 81,
      "hit": false,
      "t": 55050,
      "d": 431.25,
      "v": 82
    },
    {
      "midi": 84,
      "hit": false,
      "t": 55150,
      "d": 368.75,
      "v": 89
    },
    {
      "midi": 65,
      "hit": false,
      "t": 55237.5,
      "d": 1193.75,
      "v": 65
    },
    {
      "midi": 69,
      "hit": false,
      "t": 55450,
      "d": 275,
      "v": 59
    },
    {
      "midi": 72,
      "hit": false,
      "t": 55631.25,
      "d": 268.75,
      "v": 66
    },
    {
      "midi": 79,
      "hit": false,
      "t": 55687.5,
      "d": 281.25,
      "v": 92
    },
    {
      "midi": 69,
      "hit": false,
      "t": 55918.75,
      "d": 281.25,
      "v": 69
    },
    {
      "midi": 81,
      "hit": false,
      "t": 56168.75,
      "d": 100,
      "v": 96
    },
    {
      "midi": 72,
      "hit": false,
      "t": 56168.75,
      "d": 218.75,
      "v": 75
    },
    {
      "midi": 69,
      "hit": false,
      "t": 56443.75,
      "d": 87.5,
      "v": 69
    },
    {
      "midi": 70,
      "hit": false,
      "t": 56575,
      "d": 225,
      "v": 61
    },
    {
      "midi": 65,
      "hit": false,
      "t": 56637.5,
      "d": 331.25,
      "v": 60
    },
    {
      "midi": 82,
      "hit": false,
      "t": 56712.5,
      "d": 275,
      "v": 73
    },
    {
      "midi": 58,
      "hit": false,
      "t": 56737.5,
      "d": 312.5,
      "v": 71
    },
    {
      "midi": 65,
      "hit": false,
      "t": 56993.75,
      "d": 306.25,
      "v": 70
    },
    {
      "midi": 75,
      "hit": false,
      "t": 57225,
      "d": 406.25,
      "v": 88
    },
    {
      "midi": 70,
      "hit": false,
      "t": 57237.5,
      "d": 262.5,
      "v": 73
    },
    {
      "midi": 65,
      "hit": false,
      "t": 57493.75,
      "d": 268.75,
      "v": 62
    },
    {
      "midi": 77,
      "hit": false,
      "t": 57712.5,
      "d": 87.5,
      "v": 61
    },
    {
      "midi": 70,
      "hit": false,
      "t": 57775,
      "d": 181.25,
      "v": 64
    },
    {
      "midi": 65,
      "hit": false,
      "t": 58037.5,
      "d": 75,
      "v": 62
    },
    {
      "midi": 70,
      "hit": false,
      "t": 58250,
      "d": 275,
      "v": 74
    },
    {
      "midi": 79,
      "hit": false,
      "t": 58262.5,
      "d": 293.75,
      "v": 67
    },
    {
      "midi": 51,
      "hit": false,
      "t": 58306.25,
      "d": 337.5,
      "v": 74
    },
    {
      "midi": 58,
      "hit": false,
      "t": 58537.5,
      "d": 562.5,
      "v": 78
    },
    {
      "midi": 81,
      "hit": false,
      "t": 58775,
      "d": 131.25,
      "v": 88
    },
    {
      "midi": 63,
      "hit": false,
      "t": 58787.5,
      "d": 106.25,
      "v": 72
    },
    {
      "midi": 63,
      "hit": false,
      "t": 59031.25,
      "d": 200,
      "v": 66
    },
    {
      "midi": 58,
      "hit": false,
      "t": 59250,
      "d": 312.5,
      "v": 73
    },
    {
      "midi": 82,
      "hit": false,
      "t": 59287.5,
      "d": 162.5,
      "v": 94
    },
    {
      "midi": 63,
      "hit": false,
      "t": 59537.5,
      "d": 156.25,
      "v": 75
    },
    {
      "midi": 74,
      "hit": false,
      "t": 59637.5,
      "d": 156.25,
      "v": 66
    },
    {
      "midi": 77,
      "hit": false,
      "t": 59681.25,
      "d": 137.5,
      "v": 64
    },
    {
      "midi": 82,
      "hit": false,
      "t": 59762.5,
      "d": 225,
      "v": 86
    },
    {
      "midi": 58,
      "hit": false,
      "t": 59775,
      "d": 300,
      "v": 75
    },
    {
      "midi": 65,
      "hit": false,
      "t": 60025,
      "d": 268.75,
      "v": 72
    },
    {
      "midi": 84,
      "hit": false,
      "t": 60050,
      "d": 93.75,
      "v": 76
    },
    {
      "midi": 82,
      "hit": false,
      "t": 60106.25,
      "d": 125,
      "v": 81
    },
    {
      "midi": 81,
      "hit": false,
      "t": 60237.5,
      "d": 175,
      "v": 66
    },
    {
      "midi": 70,
      "hit": false,
      "t": 60237.5,
      "d": 293.75,
      "v": 73
    },
    {
      "midi": 65,
      "hit": false,
      "t": 60487.5,
      "d": 350,
      "v": 69
    },
    {
      "midi": 82,
      "hit": false,
      "t": 60743.75,
      "d": 131.25,
      "v": 86
    },
    {
      "midi": 70,
      "hit": false,
      "t": 60787.5,
      "d": 225,
      "v": 74
    },
    {
      "midi": 65,
      "hit": false,
      "t": 61025,
      "d": 100,
      "v": 61
    },
    {
      "midi": 77,
      "hit": false,
      "t": 61125,
      "d": 587.5,
      "v": 58
    },
    {
      "midi": 81,
      "hit": false,
      "t": 61175,
      "d": 725,
      "v": 71
    },
    {
      "midi": 86,
      "hit": false,
      "t": 61275,
      "d": 531.25,
      "v": 62
    },
    {
      "midi": 65,
      "hit": false,
      "t": 61318.75,
      "d": 2381.25,
      "v": 69
    },
    {
      "midi": 69,
      "hit": false,
      "t": 61537.5,
      "d": 1987.5,
      "v": 65
    },
    {
      "midi": 72,
      "hit": false,
      "t": 61850,
      "d": 506.25,
      "v": 67
    },
    {
      "midi": 77,
      "hit": false,
      "t": 62125,
      "d": 400,
      "v": 57
    },
    {
      "midi": 84,
      "hit": false,
      "t": 62450,
      "d": 275,
      "v": 75
    },
    {
      "midi": 79,
      "hit": false,
      "t": 63118.75,
      "d": 762.5,
      "v": 50
    },
    {
      "midi": 81,
      "hit": false,
      "t": 63831.25,
      "d": 143.75,
      "v": 50
    },
    {
      "midi": 74,
      "hit": false,
      "t": 64312.5,
      "d": 618.75,
      "v": 53
    },
    {
      "midi": 77,
      "hit": false,
      "t": 64375,
      "d": 662.5,
      "v": 61
    },
    {
      "midi": 82,
      "hit": false,
      "t": 64475,
      "d": 556.25,
      "v": 67
    },
    {
      "midi": 65,
      "hit": false,
      "t": 64725,
      "d": 912.5,
      "v": 66
    },
    {
      "midi": 70,
      "hit": false,
      "t": 65000,
      "d": 162.5,
      "v": 70
    },
    {
      "midi": 74,
      "hit": false,
      "t": 65275,
      "d": 1712.5,
      "v": 64
    },
    {
      "midi": 70,
      "hit": false,
      "t": 65525,
      "d": 300,
      "v": 60
    },
    {
      "midi": 65,
      "hit": false,
      "t": 65825,
      "d": 400,
      "v": 60
    },
    {
      "midi": 58,
      "hit": false,
      "t": 66125,
      "d": 443.75,
      "v": 62
    },
    {
      "midi": 65,
      "hit": false,
      "t": 66487.5,
      "d": 1487.5,
      "v": 54
    },
    {
      "midi": 70,
      "hit": false,
      "t": 66831.25,
      "d": 293.75,
      "v": 51
    },
    {
      "midi": 77,
      "hit": false,
      "t": 67556.25,
      "d": 118.75,
      "v": 85
    },
    {
      "midi": 77,
      "hit": false,
      "t": 68106.25,
      "d": 381.25,
      "v": 86
    },
    {
      "midi": 58,
      "hit": false,
      "t": 68112.5,
      "d": 318.75,
      "v": 77
    },
    {
      "midi": 65,
      "hit": false,
      "t": 68375,
      "d": 318.75,
      "v": 70
    },
    {
      "midi": 82,
      "hit": false,
      "t": 68606.25,
      "d": 168.75,
      "v": 98
    },
    {
      "midi": 70,
      "hit": false,
      "t": 68612.5,
      "d": 237.5,
      "v": 77
    },
    {
      "midi": 65,
      "hit": false,
      "t": 68862.5,
      "d": 275,
      "v": 61
    },
    {
      "midi": 81,
      "hit": false,
      "t": 69087.5,
      "d": 475,
      "v": 88
    },
    {
      "midi": 70,
      "hit": false,
      "t": 69100,
      "d": 231.25,
      "v": 66
    },
    {
      "midi": 65,
      "hit": false,
      "t": 69350,
      "d": 212.5,
      "v": 64
    },
    {
      "midi": 58,
      "hit": false,
      "t": 69568.75,
      "d": 306.25,
      "v": 75
    },
    {
      "midi": 77,
      "hit": false,
      "t": 69568.75,
      "d": 487.5,
      "v": 75
    },
    {
      "midi": 65,
      "hit": false,
      "t": 69812.5,
      "d": 262.5,
      "v": 76
    },
    {
      "midi": 70,
      "hit": false,
      "t": 70037.5,
      "d": 243.75,
      "v": 76
    },
    {
      "midi": 81,
      "hit": false,
      "t": 70037.5,
      "d": 412.5,
      "v": 92
    },
    {
      "midi": 65,
      "hit": false,
      "t": 70275,
      "d": 243.75,
      "v": 62
    },
    {
      "midi": 70,
      "hit": false,
      "t": 70500,
      "d": 275,
      "v": 78
    },
    {
      "midi": 79,
      "hit": false,
      "t": 70525,
      "d": 300,
      "v": 85
    },
    {
      "midi": 65,
      "hit": false,
      "t": 70775,
      "d": 231.25,
      "v": 67
    },
    {
      "midi": 77,
      "hit": false,
      "t": 71000,
      "d": 468.75,
      "v": 85
    },
    {
      "midi": 58,
      "hit": false,
      "t": 71006.25,
      "d": 306.25,
      "v": 75
    },
    {
      "midi": 65,
      "hit": false,
      "t": 71250,
      "d": 293.75,
      "v": 72
    },
    {
      "midi": 70,
      "hit": false,
      "t": 71475,
      "d": 243.75,
      "v": 71
    },
    {
      "midi": 79,
      "hit": false,
      "t": 71487.5,
      "d": 187.5,
      "v": 86
    },
    {
      "midi": 65,
      "hit": false,
      "t": 71725,
      "d": 275,
      "v": 64
    },
    {
      "midi": 70,
      "hit": false,
      "t": 71968.75,
      "d": 300,
      "v": 65
    },
    {
      "midi": 77,
      "hit": false,
      "t": 71975,
      "d": 156.25,
      "v": 88
    },
    {
      "midi": 65,
      "hit": false,
      "t": 72256.25,
      "d": 250,
      "v": 63
    },
    {
      "midi": 74,
      "hit": false,
      "t": 72500,
      "d": 587.5,
      "v": 82
    },
    {
      "midi": 58,
      "hit": false,
      "t": 72512.5,
      "d": 318.75,
      "v": 70
    },
    {
      "midi": 65,
      "hit": false,
      "t": 72781.25,
      "d": 375,
      "v": 69
    },
    {
      "midi": 70,
      "hit": false,
      "t": 73056.25,
      "d": 268.75,
      "v": 71
    },
    {
      "midi": 65,
      "hit": false,
      "t": 73350,
      "d": 325,
      "v": 64
    },
    {
      "midi": 74,
      "hit": false,
      "t": 73631.25,
      "d": 143.75,
      "v": 88
    },
    {
      "midi": 70,
      "hit": false,
      "t": 73643.75,
      "d": 118.75,
      "v": 66
    },
    {
      "midi": 65,
      "hit": false,
      "t": 73900,
      "d": 87.5,
      "v": 70
    },
    {
      "midi": 77,
      "hit": false,
      "t": 74150,
      "d": 418.75,
      "v": 85
    },
    {
      "midi": 53,
      "hit": false,
      "t": 74181.25,
      "d": 293.75,
      "v": 59
    },
    {
      "midi": 60,
      "hit": false,
      "t": 74381.25,
      "d": 300,
      "v": 77
    },
    {
      "midi": 75,
      "hit": false,
      "t": 74612.5,
      "d": 87.5,
      "v": 96
    },
    {
      "midi": 65,
      "hit": false,
      "t": 74618.75,
      "d": 168.75,
      "v": 84
    },
    {
      "midi": 60,
      "hit": false,
      "t": 74837.5,
      "d": 237.5,
      "v": 65
    },
    {
      "midi": 65,
      "hit": false,
      "t": 75075,
      "d": 187.5,
      "v": 76
    },
    {
      "midi": 71,
      "hit": false,
      "t": 75075,
      "d": 187.5,
      "v": 88
    },
    {
      "midi": 60,
      "hit": false,
      "t": 75318.75,
      "d": 200,
      "v": 78
    },
    {
      "midi": 72,
      "hit": false,
      "t": 75556.25,
      "d": 300,
      "v": 90
    },
    {
      "midi": 53,
      "hit": false,
      "t": 75562.5,
      "d": 606.25,
      "v": 73
    },
    {
      "midi": 60,
      "hit": false,
      "t": 75806.25,
      "d": 287.5,
      "v": 76
    },
    {
      "midi": 65,
      "hit": false,
      "t": 76056.25,
      "d": 200,
      "v": 72
    },
    {
      "midi": 60,
      "hit": false,
      "t": 76343.75,
      "d": 275,
      "v": 75
    },
    {
      "midi": 65,
      "hit": false,
      "t": 76612.5,
      "d": 268.75,
      "v": 71
    },
    {
      "midi": 75,
      "hit": false,
      "t": 76625,
      "d": 543.75,
      "v": 85
    },
    {
      "midi": 60,
      "hit": false,
      "t": 76875,
      "d": 143.75,
      "v": 67
    },
    {
      "midi": 74,
      "hit": false,
      "t": 77156.25,
      "d": 2412.5,
      "v": 77
    },
    {
      "midi": 58,
      "hit": false,
      "t": 77181.25,
      "d": 300,
      "v": 76
    },
    {
      "midi": 65,
      "hit": false,
      "t": 77450,
      "d": 281.25,
      "v": 64
    },
    {
      "midi": 70,
      "hit": false,
      "t": 77700,
      "d": 262.5,
      "v": 86
    },
    {
      "midi": 65,
      "hit": false,
      "t": 77975,
      "d": 275,
      "v": 67
    },
    {
      "midi": 70,
      "hit": false,
      "t": 78250,
      "d": 243.75,
      "v": 74
    },
    {
      "midi": 65,
      "hit": false,
      "t": 78525,
      "d": 268.75,
      "v": 60
    },
    {
      "midi": 58,
      "hit": false,
      "t": 78775,
      "d": 350,
      "v": 70
    },
    {
      "midi": 65,
      "hit": false,
      "t": 79068.75,
      "d": 287.5,
      "v": 66
    },
    {
      "midi": 70,
      "hit": false,
      "t": 79331.25,
      "d": 268.75,
      "v": 66
    },
    {
      "midi": 65,
      "hit": false,
      "t": 79606.25,
      "d": 225,
      "v": 64
    },
    {
      "midi": 70,
      "hit": false,
      "t": 79875,
      "d": 250,
      "v": 70
    },
    {
      "midi": 77,
      "hit": false,
      "t": 79875,
      "d": 350,
      "v": 81
    },
    {
      "midi": 65,
      "hit": false,
      "t": 80175,
      "d": 243.75,
      "v": 72
    },
    {
      "midi": 77,
      "hit": false,
      "t": 80425,
      "d": 468.75,
      "v": 78
    },
    {
      "midi": 65,
      "hit": false,
      "t": 80693.75,
      "d": 256.25,
      "v": 76
    },
    {
      "midi": 70,
      "hit": false,
      "t": 80906.25,
      "d": 243.75,
      "v": 82
    },
    {
      "midi": 82,
      "hit": false,
      "t": 80918.75,
      "d": 193.75,
      "v": 85
    },
    {
      "midi": 65,
      "hit": false,
      "t": 81162.5,
      "d": 231.25,
      "v": 61
    },
    {
      "midi": 70,
      "hit": false,
      "t": 81375,
      "d": 256.25,
      "v": 76
    },
    {
      "midi": 81,
      "hit": false,
      "t": 81375,
      "d": 481.25,
      "v": 96
    },
    {
      "midi": 65,
      "hit": false,
      "t": 81650,
      "d": 225,
      "v": 62
    },
    {
      "midi": 58,
      "hit": false,
      "t": 81850,
      "d": 312.5,
      "v": 86
    },
    {
      "midi": 77,
      "hit": false,
      "t": 81850,
      "d": 518.75,
      "v": 78
    },
    {
      "midi": 65,
      "hit": false,
      "t": 82100,
      "d": 256.25,
      "v": 75
    },
    {
      "midi": 70,
      "hit": false,
      "t": 82325,
      "d": 256.25,
      "v": 82
    },
    {
      "midi": 81,
      "hit": false,
      "t": 82331.25,
      "d": 406.25,
      "v": 78
    },
    {
      "midi": 65,
      "hit": false,
      "t": 82575,
      "d": 225,
      "v": 57
    },
    {
      "midi": 70,
      "hit": false,
      "t": 82800,
      "d": 237.5,
      "v": 74
    },
    {
      "midi": 79,
      "hit": false,
      "t": 82800,
      "d": 481.25,
      "v": 84
    },
    {
      "midi": 65,
      "hit": false,
      "t": 83050,
      "d": 200,
      "v": 63
    },
    {
      "midi": 58,
      "hit": false,
      "t": 83268.75,
      "d": 293.75,
      "v": 78
    },
    {
      "midi": 77,
      "hit": false,
      "t": 83268.75,
      "d": 506.25,
      "v": 82
    },
    {
      "midi": 65,
      "hit": false,
      "t": 83525,
      "d": 256.25,
      "v": 65
    },
    {
      "midi": 79,
      "hit": false,
      "t": 83750,
      "d": 475,
      "v": 82
    },
    {
      "midi": 70,
      "hit": false,
      "t": 83756.25,
      "d": 250,
      "v": 78
    },
    {
      "midi": 65,
      "hit": false,
      "t": 84012.5,
      "d": 187.5,
      "v": 57
    },
    {
      "midi": 70,
      "hit": false,
      "t": 84218.75,
      "d": 250,
      "v": 77
    },
    {
      "midi": 77,
      "hit": false,
      "t": 84225,
      "d": 562.5,
      "v": 77
    },
    {
      "midi": 65,
      "hit": false,
      "t": 84481.25,
      "d": 225,
      "v": 61
    },
    {
      "midi": 58,
      "hit": false,
      "t": 84706.25,
      "d": 325,
      "v": 75
    },
    {
      "midi": 74,
      "hit": false,
      "t": 84712.5,
      "d": 693.75,
      "v": 64
    },
    {
      "midi": 65,
      "hit": false,
      "t": 84987.5,
      "d": 350,
      "v": 66
    },
    {
      "midi": 70,
      "hit": false,
      "t": 85268.75,
      "d": 256.25,
      "v": 73
    },
    {
      "midi": 65,
      "hit": false,
      "t": 85550,
      "d": 287.5,
      "v": 63
    },
    {
      "midi": 70,
      "hit": false,
      "t": 85825,
      "d": 143.75,
      "v": 77
    },
    {
      "midi": 74,
      "hit": false,
      "t": 85825,
      "d": 262.5,
      "v": 84
    },
    {
      "midi": 65,
      "hit": false,
      "t": 86087.5,
      "d": 100,
      "v": 69
    },
    {
      "midi": 77,
      "hit": false,
      "t": 86337.5,
      "d": 462.5,
      "v": 85
    },
    {
      "midi": 53,
      "hit": false,
      "t": 86375,
      "d": 306.25,
      "v": 84
    },
    {
      "midi": 60,
      "hit": false,
      "t": 86606.25,
      "d": 293.75,
      "v": 72
    },
    {
      "midi": 75,
      "hit": false,
      "t": 86843.75,
      "d": 106.25,
      "v": 92
    },
    {
      "midi": 65,
      "hit": false,
      "t": 86850,
      "d": 200,
      "v": 76
    },
    {
      "midi": 60,
      "hit": false,
      "t": 87068.75,
      "d": 256.25,
      "v": 75
    },
    {
      "midi": 65,
      "hit": false,
      "t": 87300,
      "d": 225,
      "v": 73
    },
    {
      "midi": 71,
      "hit": false,
      "t": 87300,
      "d": 525,
      "v": 88
    },
    {
      "midi": 60,
      "hit": false,
      "t": 87537.5,
      "d": 200,
      "v": 71
    },
    {
      "midi": 72,
      "hit": false,
      "t": 87775,
      "d": 287.5,
      "v": 88
    },
    {
      "midi": 53,
      "hit": false,
      "t": 87775,
      "d": 462.5,
      "v": 76
    },
    {
      "midi": 60,
      "hit": false,
      "t": 88031.25,
      "d": 318.75,
      "v": 76
    },
    {
      "midi": 65,
      "hit": false,
      "t": 88293.75,
      "d": 275,
      "v": 77
    },
    {
      "midi": 60,
      "hit": false,
      "t": 88556.25,
      "d": 281.25,
      "v": 77
    },
    {
      "midi": 65,
      "hit": false,
      "t": 88825,
      "d": 243.75,
      "v": 77
    },
    {
      "midi": 75,
      "hit": false,
      "t": 88831.25,
      "d": 575,
      "v": 82
    },
    {
      "midi": 60,
      "hit": false,
      "t": 89087.5,
      "d": 143.75,
      "v": 62
    },
    {
      "midi": 74,
      "hit": false,
      "t": 89381.25,
      "d": 2550,
      "v": 75
    },
    {
      "midi": 58,
      "hit": false,
      "t": 89400,
      "d": 325,
      "v": 82
    },
    {
      "midi": 65,
      "hit": false,
      "t": 89675,
      "d": 343.75,
      "v": 49
    },
    {
      "midi": 70,
      "hit": false,
      "t": 89956.25,
      "d": 293.75,
      "v": 77
    },
    {
      "midi": 65,
      "hit": false,
      "t": 90250,
      "d": 256.25,
      "v": 67
    },
    {
      "midi": 62,
      "hit": false,
      "t": 90525,
      "d": 175,
      "v": 83
    },
    {
      "midi": 65,
      "hit": false,
      "t": 90825,
      "d": 112.5,
      "v": 63
    },
    {
      "midi": 58,
      "hit": false,
      "t": 91081.25,
      "d": 337.5,
      "v": 84
    },
    {
      "midi": 65,
      "hit": false,
      "t": 91350,
      "d": 300,
      "v": 69
    },
    {
      "midi": 70,
      "hit": false,
      "t": 91600,
      "d": 300,
      "v": 83
    },
    {
      "midi": 65,
      "hit": false,
      "t": 91893.75,
      "d": 237.5,
      "v": 65
    },
    {
      "midi": 58,
      "hit": false,
      "t": 92150,
      "d": 331.25,
      "v": 82
    },
    {
      "midi": 75,
      "hit": false,
      "t": 92175,
      "d": 331.25,
      "v": 89
    },
    {
      "midi": 65,
      "hit": false,
      "t": 92450,
      "d": 243.75,
      "v": 75
    },
    {
      "midi": 77,
      "hit": false,
      "t": 92462.5,
      "d": 350,
      "v": 88
    },
    {
      "midi": 79,
      "hit": false,
      "t": 92768.75,
      "d": 206.25,
      "v": 88
    },
    {
      "midi": 63,
      "hit": false,
      "t": 92775,
      "d": 337.5,
      "v": 69
    },
    {
      "midi": 67,
      "hit": false,
      "t": 93018.75,
      "d": 281.25,
      "v": 83
    },
    {
      "midi": 70,
      "hit": false,
      "t": 93262.5,
      "d": 281.25,
      "v": 85
    },
    {
      "midi": 84,
      "hit": false,
      "t": 93275,
      "d": 418.75,
      "v": 105
    },
    {
      "midi": 67,
      "hit": false,
      "t": 93525,
      "d": 268.75,
      "v": 72
    },
    {
      "midi": 82,
      "hit": false,
      "t": 93743.75,
      "d": 118.75,
      "v": 96
    },
    {
      "midi": 70,
      "hit": false,
      "t": 93743.75,
      "d": 318.75,
      "v": 85
    },
    {
      "midi": 67,
      "hit": false,
      "t": 94000,
      "d": 225,
      "v": 72
    },
    {
      "midi": 63,
      "hit": false,
      "t": 94250,
      "d": 350,
      "v": 86
    },
    {
      "midi": 78,
      "hit": false,
      "t": 94268.75,
      "d": 475,
      "v": 89
    },
    {
      "midi": 66,
      "hit": false,
      "t": 94512.5,
      "d": 268.75,
      "v": 78
    },
    {
      "midi": 70,
      "hit": false,
      "t": 94743.75,
      "d": 275,
      "v": 82
    },
    {
      "midi": 84,
      "hit": false,
      "t": 94750,
      "d": 350,
      "v": 98
    },
    {
      "midi": 66,
      "hit": false,
      "t": 95000,
      "d": 275,
      "v": 74
    },
    {
      "midi": 70,
      "hit": false,
      "t": 95250,
      "d": 268.75,
      "v": 77
    },
    {
      "midi": 82,
      "hit": false,
      "t": 95256.25,
      "d": 587.5,
      "v": 105
    },
    {
      "midi": 66,
      "hit": false,
      "t": 95531.25,
      "d": 143.75,
      "v": 69
    },
    {
      "midi": 77,
      "hit": false,
      "t": 95806.25,
      "d": 406.25,
      "v": 89
    },
    {
      "midi": 58,
      "hit": false,
      "t": 95818.75,
      "d": 306.25,
      "v": 82
    },
    {
      "midi": 62,
      "hit": false,
      "t": 96068.75,
      "d": 275,
      "v": 81
    },
    {
      "midi": 65,
      "hit": false,
      "t": 96306.25,
      "d": 225,
      "v": 85
    },
    {
      "midi": 84,
      "hit": false,
      "t": 96306.25,
      "d": 256.25,
      "v": 107
    },
    {
      "midi": 62,
      "hit": false,
      "t": 96562.5,
      "d": 256.25,
      "v": 77
    },
    {
      "midi": 65,
      "hit": false,
      "t": 96800,
      "d": 293.75,
      "v": 80
    },
    {
      "midi": 82,
      "hit": false,
      "t": 96825,
      "d": 475,
      "v": 96
    },
    {
      "midi": 62,
      "hit": false,
      "t": 97081.25,
      "d": 237.5,
      "v": 62
    },
    {
      "midi": 77,
      "hit": false,
      "t": 97312.5,
      "d": 868.75,
      "v": 82
    },
    {
      "midi": 58,
      "hit": false,
      "t": 97318.75,
      "d": 381.25,
      "v": 70
    },
    {
      "midi": 62,
      "hit": false,
      "t": 97575,
      "d": 356.25,
      "v": 71
    },
    {
      "midi": 65,
      "hit": false,
      "t": 97862.5,
      "d": 343.75,
      "v": 72
    },
    {
      "midi": 62,
      "hit": false,
      "t": 98150,
      "d": 275,
      "v": 65
    },
    {
      "midi": 65,
      "hit": false,
      "t": 98412.5,
      "d": 462.5,
      "v": 73
    },
    {
      "midi": 77,
      "hit": false,
      "t": 98475,
      "d": 525,
      "v": 94
    },
    {
      "midi": 60,
      "hit": false,
      "t": 98956.25,
      "d": 362.5,
      "v": 77
    },
    {
      "midi": 76,
      "hit": false,
      "t": 98975,
      "d": 425,
      "v": 89
    },
    {
      "midi": 64,
      "hit": false,
      "t": 99206.25,
      "d": 281.25,
      "v": 74
    },
    {
      "midi": 67,
      "hit": false,
      "t": 99450,
      "d": 256.25,
      "v": 84
    },
    {
      "midi": 77,
      "hit": false,
      "t": 99462.5,
      "d": 237.5,
      "v": 105
    },
    {
      "midi": 64,
      "hit": false,
      "t": 99706.25,
      "d": 256.25,
      "v": 71
    },
    {
      "midi": 67,
      "hit": false,
      "t": 99950,
      "d": 275,
      "v": 84
    },
    {
      "midi": 79,
      "hit": false,
      "t": 99956.25,
      "d": 218.75,
      "v": 107
    },
    {
      "midi": 64,
      "hit": false,
      "t": 100225,
      "d": 156.25,
      "v": 66
    },
    {
      "midi": 81,
      "hit": false,
      "t": 100481.25,
      "d": 437.5,
      "v": 86
    },
    {
      "midi": 57,
      "hit": false,
      "t": 100481.25,
      "d": 1437.5,
      "v": 84
    },
    {
      "midi": 64,
      "hit": false,
      "t": 100775,
      "d": 1350,
      "v": 76
    },
    {
      "midi": 69,
      "hit": false,
      "t": 101043.75,
      "d": 268.75,
      "v": 84
    },
    {
      "midi": 73,
      "hit": false,
      "t": 101325,
      "d": 243.75,
      "v": 86
    },
    {
      "midi": 81,
      "hit": false,
      "t": 101606.25,
      "d": 362.5,
      "v": 98
    },
    {
      "midi": 69,
      "hit": false,
      "t": 101625,
      "d": 150,
      "v": 76
    },
    {
      "midi": 69,
      "hit": false,
      "t": 101912.5,
      "d": 193.75,
      "v": 78
    },
    {
      "midi": 62,
      "hit": false,
      "t": 102206.25,
      "d": 1325,
      "v": 86
    },
    {
      "midi": 81,
      "hit": false,
      "t": 102218.75,
      "d": 475,
      "v": 89
    },
    {
      "midi": 66,
      "hit": false,
      "t": 102481.25,
      "d": 893.75,
      "v": 64
    },
    {
      "midi": 69,
      "hit": false,
      "t": 102775,
      "d": 275,
      "v": 89
    },
    {
      "midi": 74,
      "hit": false,
      "t": 103037.5,
      "d": 1006.25,
      "v": 85
    },
    {
      "midi": 69,
      "hit": false,
      "t": 103281.25,
      "d": 356.25,
      "v": 71
    },
    {
      "midi": 66,
      "hit": false,
      "t": 103587.5,
      "d": 118.75,
      "v": 78
    },
    {
      "midi": 53,
      "hit": false,
      "t": 103918.75,
      "d": 2087.5,
      "v": 86
    },
    {
      "midi": 60,
      "hit": false,
      "t": 104193.75,
      "d": 1818.75,
      "v": 80
    },
    {
      "midi": 65,
      "hit": false,
      "t": 104500,
      "d": 343.75,
      "v": 72
    },
    {
      "midi": 69,
      "hit": false,
      "t": 104825,
      "d": 393.75,
      "v": 70
    },
    {
      "midi": 72,
      "hit": false,
      "t": 105175,
      "d": 100,
      "v": 77
    },
    {
      "midi": 65,
      "hit": false,
      "t": 105537.5,
      "d": 381.25,
      "v": 59
    },
    {
      "midi": 77,
      "hit": false,
      "t": 106050,
      "d": 318.75,
      "v": 64
    },
    {
      "midi": 58,
      "hit": false,
      "t": 106675,
      "d": 325,
      "v": 77
    },
    {
      "midi": 77,
      "hit": false,
      "t": 106675,
      "d": 400,
      "v": 82
    },
    {
      "midi": 65,
      "hit": false,
      "t": 106925,
      "d": 331.25,
      "v": 77
    },
    {
      "midi": 70,
      "hit": false,
      "t": 107168.75,
      "d": 256.25,
      "v": 83
    },
    {
      "midi": 82,
      "hit": false,
      "t": 107175,
      "d": 143.75,
      "v": 124
    },
    {
      "midi": 65,
      "hit": false,
      "t": 107412.5,
      "d": 331.25,
      "v": 66
    },
    {
      "midi": 81,
      "hit": false,
      "t": 107631.25,
      "d": 475,
      "v": 96
    },
    {
      "midi": 70,
      "hit": false,
      "t": 107662.5,
      "d": 312.5,
      "v": 71
    },
    {
      "midi": 65,
      "hit": false,
      "t": 107912.5,
      "d": 243.75,
      "v": 71
    },
    {
      "midi": 58,
      "hit": false,
      "t": 108118.75,
      "d": 331.25,
      "v": 84
    },
    {
      "midi": 77,
      "hit": false,
      "t": 108118.75,
      "d": 493.75,
      "v": 82
    },
    {
      "midi": 65,
      "hit": false,
      "t": 108375,
      "d": 343.75,
      "v": 81
    },
    {
      "midi": 81,
      "hit": false,
      "t": 108600,
      "d": 343.75,
      "v": 98
    },
    {
      "midi": 70,
      "hit": false,
      "t": 108625,
      "d": 275,
      "v": 75
    },
    {
      "midi": 65,
      "hit": false,
      "t": 108856.25,
      "d": 300,
      "v": 73
    },
    {
      "midi": 70,
      "hit": false,
      "t": 109081.25,
      "d": 325,
      "v": 69
    },
    {
      "midi": 79,
      "hit": false,
      "t": 109087.5,
      "d": 475,
      "v": 92
    },
    {
      "midi": 65,
      "hit": false,
      "t": 109337.5,
      "d": 262.5,
      "v": 62
    },
    {
      "midi": 77,
      "hit": false,
      "t": 109568.75,
      "d": 468.75,
      "v": 82
    },
    {
      "midi": 58,
      "hit": false,
      "t": 109575,
      "d": 325,
      "v": 80
    },
    {
      "midi": 65,
      "hit": false,
      "t": 109818.75,
      "d": 281.25,
      "v": 74
    },
    {
      "midi": 70,
      "hit": false,
      "t": 110050,
      "d": 300,
      "v": 74
    },
    {
      "midi": 79,
      "hit": false,
      "t": 110056.25,
      "d": 518.75,
      "v": 92
    },
    {
      "midi": 65,
      "hit": false,
      "t": 110325,
      "d": 275,
      "v": 66
    },
    {
      "midi": 70,
      "hit": false,
      "t": 110568.75,
      "d": 300,
      "v": 74
    },
    {
      "midi": 77,
      "hit": false,
      "t": 110581.25,
      "d": 518.75,
      "v": 76
    },
    {
      "midi": 65,
      "hit": false,
      "t": 110837.5,
      "d": 262.5,
      "v": 65
    },
    {
      "midi": 74,
      "hit": false,
      "t": 111081.25,
      "d": 643.75,
      "v": 84
    },
    {
      "midi": 58,
      "hit": false,
      "t": 111087.5,
      "d": 331.25,
      "v": 74
    },
    {
      "midi": 65,
      "hit": false,
      "t": 111356.25,
      "d": 381.25,
      "v": 73
    },
    {
      "midi": 70,
      "hit": false,
      "t": 111650,
      "d": 300,
      "v": 75
    },
    {
      "midi": 65,
      "hit": false,
      "t": 111931.25,
      "d": 343.75,
      "v": 66
    },
    {
      "midi": 70,
      "hit": false,
      "t": 112231.25,
      "d": 143.75,
      "v": 76
    },
    {
      "midi": 74,
      "hit": false,
      "t": 112237.5,
      "d": 206.25,
      "v": 85
    },
    {
      "midi": 65,
      "hit": false,
      "t": 112500,
      "d": 106.25,
      "v": 76
    },
    {
      "midi": 77,
      "hit": false,
      "t": 112781.25,
      "d": 450,
      "v": 85
    },
    {
      "midi": 60,
      "hit": false,
      "t": 113025,
      "d": 306.25,
      "v": 76
    },
    {
      "midi": 75,
      "hit": false,
      "t": 113256.25,
      "d": 87.5,
      "v": 94
    },
    {
      "midi": 65,
      "hit": false,
      "t": 113262.5,
      "d": 200,
      "v": 86
    },
    {
      "midi": 60,
      "hit": false,
      "t": 113487.5,
      "d": 287.5,
      "v": 71
    },
    {
      "midi": 65,
      "hit": false,
      "t": 113737.5,
      "d": 262.5,
      "v": 81
    },
    {
      "midi": 71,
      "hit": false,
      "t": 113743.75,
      "d": 331.25,
      "v": 89
    },
    {
      "midi": 60,
      "hit": false,
      "t": 113981.25,
      "d": 237.5,
      "v": 76
    },
    {
      "midi": 72,
      "hit": false,
      "t": 114225,
      "d": 562.5,
      "v": 84
    },
    {
      "midi": 53,
      "hit": false,
      "t": 114231.25,
      "d": 375,
      "v": 80
    },
    {
      "midi": 60,
      "hit": false,
      "t": 114468.75,
      "d": 343.75,
      "v": 76
    },
    {
      "midi": 65,
      "hit": false,
      "t": 114750,
      "d": 243.75,
      "v": 73
    },
    {
      "midi": 60,
      "hit": false,
      "t": 115006.25,
      "d": 287.5,
      "v": 73
    },
    {
      "midi": 65,
      "hit": false,
      "t": 115275,
      "d": 300,
      "v": 75
    },
    {
      "midi": 75,
      "hit": false,
      "t": 115281.25,
      "d": 593.75,
      "v": 78
    },
    {
      "midi": 60,
      "hit": false,
      "t": 115537.5,
      "d": 137.5,
      "v": 62
    },
    {
      "midi": 74,
      "hit": false,
      "t": 115825,
      "d": 381.25,
      "v": 80
    },
    {
      "midi": 58,
      "hit": false,
      "t": 115850,
      "d": 306.25,
      "v": 78
    },
    {
      "midi": 65,
      "hit": false,
      "t": 116100,
      "d": 350,
      "v": 72
    },
    {
      "midi": 70,
      "hit": false,
      "t": 116393.75,
      "d": 300,
      "v": 77
    },
    {
      "midi": 65,
      "hit": false,
      "t": 116681.25,
      "d": 331.25,
      "v": 61
    },
    {
      "midi": 70,
      "hit": false,
      "t": 116975,
      "d": 250,
      "v": 80
    },
    {
      "midi": 75,
      "hit": false,
      "t": 116987.5,
      "d": 337.5,
      "v": 83
    },
    {
      "midi": 77,
      "hit": false,
      "t": 117275,
      "d": 100,
      "v": 89
    },
    {
      "midi": 65,
      "hit": false,
      "t": 117281.25,
      "d": 93.75,
      "v": 76
    },
    {
      "midi": 79,
      "hit": false,
      "t": 117662.5,
      "d": 337.5,
      "v": 94
    },
    {
      "midi": 51,
      "hit": false,
      "t": 117675,
      "d": 1218.75,
      "v": 85
    },
    {
      "midi": 63,
      "hit": false,
      "t": 117950,
      "d": 275,
      "v": 61
    },
    {
      "midi": 81,
      "hit": false,
      "t": 118175,
      "d": 87.5,
      "v": 109
    },
    {
      "midi": 63,
      "hit": false,
      "t": 118412.5,
      "d": 256.25,
      "v": 66
    },
    {
      "midi": 82,
      "hit": false,
      "t": 118643.75,
      "d": 81.25,
      "v": 101
    },
    {
      "midi": 63,
      "hit": false,
      "t": 118900,
      "d": 118.75,
      "v": 60
    },
    {
      "midi": 74,
      "hit": false,
      "t": 118937.5,
      "d": 200,
      "v": 74
    },
    {
      "midi": 77,
      "hit": false,
      "t": 119006.25,
      "d": 150,
      "v": 74
    },
    {
      "midi": 82,
      "hit": false,
      "t": 119087.5,
      "d": 250,
      "v": 89
    },
    {
      "midi": 58,
      "hit": false,
      "t": 119112.5,
      "d": 1106.25,
      "v": 71
    },
    {
      "midi": 65,
      "hit": false,
      "t": 119400,
      "d": 1018.75,
      "v": 70
    },
    {
      "midi": 84,
      "hit": false,
      "t": 119425,
      "d": 125,
      "v": 63
    },
    {
      "midi": 82,
      "hit": false,
      "t": 119531.25,
      "d": 118.75,
      "v": 64
    },
    {
      "midi": 81,
      "hit": false,
      "t": 119656.25,
      "d": 168.75,
      "v": 69
    },
    {
      "midi": 70,
      "hit": false,
      "t": 119668.75,
      "d": 281.25,
      "v": 63
    },
    {
      "midi": 82,
      "hit": false,
      "t": 120106.25,
      "d": 81.25,
      "v": 101
    },
    {
      "midi": 70,
      "hit": false,
      "t": 120362.5,
      "d": 143.75,
      "v": 55
    },
    {
      "midi": 77,
      "hit": false,
      "t": 120462.5,
      "d": 518.75,
      "v": 59
    },
    {
      "midi": 81,
      "hit": false,
      "t": 120512.5,
      "d": 150,
      "v": 80
    },
    {
      "midi": 84,
      "hit": false,
      "t": 120612.5,
      "d": 462.5,
      "v": 84
    },
    {
      "midi": 65,
      "hit": false,
      "t": 120643.75,
      "d": 1193.75,
      "v": 73
    },
    {
      "midi": 69,
      "hit": false,
      "t": 120900,
      "d": 1018.75,
      "v": 69
    },
    {
      "midi": 79,
      "hit": false,
      "t": 121087.5,
      "d": 56.25,
      "v": 101
    },
    {
      "midi": 72,
      "hit": false,
      "t": 121318.75,
      "d": 250,
      "v": 66
    },
    {
      "midi": 81,
      "hit": false,
      "t": 121562.5,
      "d": 75,
      "v": 109
    },
    {
      "midi": 72,
      "hit": false,
      "t": 121825,
      "d": 100,
      "v": 76
    },
    {
      "midi": 74,
      "hit": false,
      "t": 121918.75,
      "d": 206.25,
      "v": 69
    },
    {
      "midi": 77,
      "hit": false,
      "t": 121975,
      "d": 337.5,
      "v": 65
    },
    {
      "midi": 82,
      "hit": false,
      "t": 122068.75,
      "d": 268.75,
      "v": 85
    },
    {
      "midi": 58,
      "hit": false,
      "t": 122112.5,
      "d": 587.5,
      "v": 71
    },
    {
      "midi": 65,
      "hit": false,
      "t": 122387.5,
      "d": 700,
      "v": 80
    },
    {
      "midi": 75,
      "hit": false,
      "t": 122643.75,
      "d": 487.5,
      "v": 90
    },
    {
      "midi": 70,
      "hit": false,
      "t": 122650,
      "d": 212.5,
      "v": 85
    },
    {
      "midi": 70,
      "hit": false,
      "t": 122943.75,
      "d": 281.25,
      "v": 75
    },
    {
      "midi": 77,
      "hit": false,
      "t": 123200,
      "d": 106.25,
      "v": 90
    },
    {
      "midi": 65,
      "hit": false,
      "t": 123475,
      "d": 81.25,
      "v": 69
    },
    {
      "midi": 70,
      "hit": false,
      "t": 123737.5,
      "d": 287.5,
      "v": 61
    },
    {
      "midi": 75,
      "hit": false,
      "t": 123737.5,
      "d": 318.75,
      "v": 83
    },
    {
      "midi": 79,
      "hit": false,
      "t": 123762.5,
      "d": 287.5,
      "v": 89
    },
    {
      "midi": 58,
      "hit": false,
      "t": 124031.25,
      "d": 912.5,
      "v": 77
    },
    {
      "midi": 81,
      "hit": false,
      "t": 124250,
      "d": 93.75,
      "v": 105
    },
    {
      "midi": 63,
      "hit": false,
      "t": 124500,
      "d": 175,
      "v": 66
    },
    {
      "midi": 82,
      "hit": false,
      "t": 124718.75,
      "d": 106.25,
      "v": 100
    },
    {
      "midi": 63,
      "hit": false,
      "t": 124950,
      "d": 156.25,
      "v": 67
    },
    {
      "midi": 74,
      "hit": false,
      "t": 125081.25,
      "d": 212.5,
      "v": 59
    },
    {
      "midi": 77,
      "hit": false,
      "t": 125131.25,
      "d": 193.75,
      "v": 75
    },
    {
      "midi": 82,
      "hit": false,
      "t": 125212.5,
      "d": 193.75,
      "v": 83
    },
    {
      "midi": 58,
      "hit": false,
      "t": 125212.5,
      "d": 956.25,
      "v": 73
    },
    {
      "midi": 84,
      "hit": false,
      "t": 125462.5,
      "d": 87.5,
      "v": 61
    },
    {
      "midi": 82,
      "hit": false,
      "t": 125525,
      "d": 175,
      "v": 68
    },
    {
      "midi": 65,
      "hit": false,
      "t": 125531.25,
      "d": 950,
      "v": 69
    },
    {
      "midi": 81,
      "hit": false,
      "t": 125700,
      "d": 243.75,
      "v": 73
    },
    {
      "midi": 70,
      "hit": false,
      "t": 125918.75,
      "d": 231.25,
      "v": 57
    },
    {
      "midi": 82,
      "hit": false,
      "t": 126175,
      "d": 68.75,
      "v": 94
    },
    {
      "midi": 70,
      "hit": false,
      "t": 126437.5,
      "d": 150,
      "v": 60
    },
    {
      "midi": 77,
      "hit": false,
      "t": 126506.25,
      "d": 2218.75,
      "v": 67
    },
    {
      "midi": 81,
      "hit": false,
      "t": 126568.75,
      "d": 1537.5,
      "v": 75
    },
    {
      "midi": 86,
      "hit": false,
      "t": 126668.75,
      "d": 1093.75,
      "v": 84
    },
    {
      "midi": 65,
      "hit": false,
      "t": 126700,
      "d": 1806.25,
      "v": 70
    },
    {
      "midi": 69,
      "hit": false,
      "t": 126987.5,
      "d": 1850,
      "v": 57
    },
    {
      "midi": 72,
      "hit": false,
      "t": 127306.25,
      "d": 1200,
      "v": 60
    },
    {
      "midi": 84,
      "hit": false,
      "t": 127687.5,
      "d": 1337.5,
      "v": 69
    },
    {
      "midi": 79,
      "hit": false,
      "t": 128425,
      "d": 812.5,
      "v": 60
    },
    {
      "midi": 81,
      "hit": false,
      "t": 129043.75,
      "d": 231.25,
      "v": 56
    },
    {
      "midi": 82,
      "hit": false,
      "t": 129700,
      "d": 3525,
      "v": 57
    },
    {
      "midi": 74,
      "hit": false,
      "t": 129737.5,
      "d": 3500,
      "v": 55
    },
    {
      "midi": 65,
      "hit": false,
      "t": 130025,
      "d": 325,
      "v": 64
    },
    {
      "midi": 70,
      "hit": false,
      "t": 130275,
      "d": 262.5,
      "v": 85
    },
    {
      "midi": 65,
      "hit": false,
      "t": 130568.75,
      "d": 293.75,
      "v": 67
    },
    {
      "midi": 70,
      "hit": false,
      "t": 130875,
      "d": 281.25,
      "v": 62
    },
    {
      "midi": 65,
      "hit": false,
      "t": 131168.75,
      "d": 337.5,
      "v": 55
    },
    {
      "midi": 58,
      "hit": false,
      "t": 131500,
      "d": 375,
      "v": 57
    },
    {
      "midi": 65,
      "hit": false,
      "t": 131875,
      "d": 450,
      "v": 49
    },
    {
      "midi": 70,
      "hit": false,
      "t": 132237.5,
      "d": 431.25,
      "v": 56
    },
    {
      "midi": 65,
      "hit": false,
      "t": 132600,
      "d": 450,
      "v": 51
    },
    {
      "midi": 70,
      "hit": false,
      "t": 132987.5,
      "d": 237.5,
      "v": 57
    },
    {
      "midi": 65,
      "hit": false,
      "t": 133393.75,
      "d": 106.25,
      "v": 50
    },
    {
      "midi": 62,
      "hit": false,
      "t": 134100,
      "d": 262.5,
      "v": 43
    },
    {
      "midi": 70,
      "hit": false,
      "t": 134100,
      "d": 262.5,
      "v": 49
    },
    {
      "midi": 65,
      "hit": false,
      "t": 134112.5,
      "d": 237.5,
      "v": 36
    },
    {
      "midi": 46,
      "hit": false,
      "t": 134125,
      "d": 206.25,
      "v": 47
    },
    {
      "midi": 58,
      "hit": false,
      "t": 134125,
      "d": 225,
      "v": 40
    }
  ]
}