{
  "jsonPath": "World/Celtic/Enya/to-go-beyond-ii.json",
  "path": "World\\Celtic\\Enya\\To Go Beyond (II).mid",
  "name": "To Go Beyond (II)",
  "difficulty": "Advanced",
  "bpm": 94.99999208333399,
  "notes": [
    {
      "midi": 38,
      "hit": false,
      "t": 0,
      "d": 660.5263708333334,
      "v": 57
    },
    {
      "midi": 50,
      "hit": false,
      "t": 0,
      "d": 786.8421708333334,
      "v": 57
    },
    {
      "midi": 57,
      "hit": false,
      "t": 0,
      "d": 855.2632291666667,
      "v": 42
    },
    {
      "midi": 66,
      "hit": false,
      "t": 0,
      "d": 1210.5264166666666,
      "v": 51
    },
    {
      "midi": 62,
      "hit": false,
      "t": 0,
      "d": 1997.3685874999999,
      "v": 55
    },
    {
      "midi": 67,
      "hit": false,
      "t": 1189.4737833333334,
      "d": 857.8948083333332,
      "v": 65
    },
    {
      "midi": 59,
      "hit": false,
      "t": 1207.8948375,
      "d": 834.2105958333332,
      "v": 40
    },
    {
      "midi": 50,
      "hit": false,
      "t": 1213.1579958333332,
      "d": 710.5263750000001,
      "v": 49
    },
    {
      "midi": 55,
      "hit": false,
      "t": 1223.6843124999998,
      "d": 636.8421583333336,
      "v": 42
    },
    {
      "midi": 43,
      "hit": false,
      "t": 1228.9474708333332,
      "d": 723.6842708333334,
      "v": 53
    },
    {
      "midi": 45,
      "hit": false,
      "t": 2486.8423125,
      "d": 1305.2632666666668,
      "v": 52
    },
    {
      "midi": 64,
      "hit": false,
      "t": 2489.4738916666665,
      "d": 1315.7895833333337,
      "v": 38
    },
    {
      "midi": 61,
      "hit": false,
      "t": 2507.894945833333,
      "d": 1310.5264250000005,
      "v": 58
    },
    {
      "midi": 33,
      "hit": false,
      "t": 2510.5265249999998,
      "d": 1281.579054166667,
      "v": 27
    },
    {
      "midi": 50,
      "hit": false,
      "t": 5052.6320000000005,
      "d": 507.8947791666669,
      "v": 84
    },
    {
      "midi": 81,
      "hit": false,
      "t": 5052.6320000000005,
      "d": 1234.2106291666669,
      "v": 85
    },
    {
      "midi": 54,
      "hit": false,
      "t": 5368.4215,
      "d": 318.42107916666737,
      "v": 64
    },
    {
      "midi": 57,
      "hit": false,
      "t": 5684.211000000001,
      "d": 97.36842916666683,
      "v": 86
    },
    {
      "midi": 62,
      "hit": false,
      "t": 6000.000500000001,
      "d": 307.89476250000007,
      "v": 61
    },
    {
      "midi": 66,
      "hit": false,
      "t": 6315.790000000001,
      "d": 450.00003749999996,
      "v": 76
    },
    {
      "midi": 79,
      "hit": false,
      "t": 6315.790000000001,
      "d": 673.6842666666662,
      "v": 86
    },
    {
      "midi": 69,
      "hit": false,
      "t": 6631.579500000001,
      "d": 405.263191666666,
      "v": 81
    },
    {
      "midi": 66,
      "hit": false,
      "t": 6947.369000000001,
      "d": 302.63160416666597,
      "v": 70
    },
    {
      "midi": 78,
      "hit": false,
      "t": 6947.369000000001,
      "d": 744.7369041666652,
      "v": 96
    },
    {
      "midi": 62,
      "hit": false,
      "t": 7263.1585,
      "d": 118.4210624999996,
      "v": 67
    },
    {
      "midi": 45,
      "hit": false,
      "t": 7578.947999999999,
      "d": 557.8947833333332,
      "v": 89
    },
    {
      "midi": 76,
      "hit": false,
      "t": 7578.947999999999,
      "d": 1339.4737958333362,
      "v": 82
    },
    {
      "midi": 49,
      "hit": false,
      "t": 7894.737499999999,
      "d": 302.6316041666669,
      "v": 62
    },
    {
      "midi": 52,
      "hit": false,
      "t": 8210.527,
      "d": 86.84211250000044,
      "v": 72
    },
    {
      "midi": 57,
      "hit": false,
      "t": 8526.3165,
      "d": 318.4210791666683,
      "v": 65
    },
    {
      "midi": 61,
      "hit": false,
      "t": 8842.106000000002,
      "d": 394.7368750000005,
      "v": 78
    },
    {
      "midi": 78,
      "hit": false,
      "t": 8842.106000000002,
      "d": 615.7895250000001,
      "v": 88
    },
    {
      "midi": 64,
      "hit": false,
      "t": 9157.895500000002,
      "d": 355.2631874999988,
      "v": 74
    },
    {
      "midi": 61,
      "hit": false,
      "t": 9473.685000000001,
      "d": 334.21055416666604,
      "v": 72
    },
    {
      "midi": 79,
      "hit": false,
      "t": 9473.685000000001,
      "d": 705.2632166666663,
      "v": 82
    },
    {
      "midi": 57,
      "hit": false,
      "t": 9789.4745,
      "d": 121.05264166666711,
      "v": 62
    },
    {
      "midi": 54,
      "hit": false,
      "t": 10105.264000000001,
      "d": 607.8947874999994,
      "v": 64
    },
    {
      "midi": 81,
      "hit": false,
      "t": 10105.264000000001,
      "d": 1336.842216666666,
      "v": 82
    },
    {
      "midi": 57,
      "hit": false,
      "t": 10421.0535,
      "d": 302.6316041666669,
      "v": 50
    },
    {
      "midi": 61,
      "hit": false,
      "t": 10736.843,
      "d": 94.73684999999932,
      "v": 67
    },
    {
      "midi": 66,
      "hit": false,
      "t": 11052.6325,
      "d": 407.8947708333344,
      "v": 60
    },
    {
      "midi": 69,
      "hit": false,
      "t": 11368.422,
      "d": 384.2105583333341,
      "v": 66
    },
    {
      "midi": 78,
      "hit": false,
      "t": 11368.422,
      "d": 721.0526916666677,
      "v": 74
    },
    {
      "midi": 74,
      "hit": false,
      "t": 12000.001000000002,
      "d": 681.579004166666,
      "v": 80
    },
    {
      "midi": 66,
      "hit": false,
      "t": 12315.790500000001,
      "d": 102.63158750000002,
      "v": 65
    },
    {
      "midi": 43,
      "hit": false,
      "t": 12631.580000000002,
      "d": 426.3158249999997,
      "v": 83
    },
    {
      "midi": 71,
      "hit": false,
      "t": 12631.580000000002,
      "d": 2047.368591666671,
      "v": 82
    },
    {
      "midi": 47,
      "hit": false,
      "t": 12947.3695,
      "d": 318.4210791666683,
      "v": 54
    },
    {
      "midi": 50,
      "hit": false,
      "t": 13263.159000000001,
      "d": 78.94737500000156,
      "v": 75
    },
    {
      "midi": 59,
      "hit": false,
      "t": 13578.948500000002,
      "d": 1023.6842958333364,
      "v": 71
    },
    {
      "midi": 62,
      "hit": false,
      "t": 13894.738000000003,
      "d": 278.9473916666666,
      "v": 84
    },
    {
      "midi": 67,
      "hit": false,
      "t": 14210.527500000004,
      "d": 434.2105625000022,
      "v": 72
    },
    {
      "midi": 62,
      "hit": false,
      "t": 14526.317000000005,
      "d": 236.84212500000103,
      "v": 75
    },
    {
      "midi": 59,
      "hit": false,
      "t": 14842.106500000005,
      "d": 94.73684999999932,
      "v": 69
    },
    {
      "midi": 50,
      "hit": false,
      "t": 15157.896000000004,
      "d": 407.8947708333326,
      "v": 72
    },
    {
      "midi": 78,
      "hit": false,
      "t": 15157.896000000004,
      "d": 1286.8422124999997,
      "v": 77
    },
    {
      "midi": 57,
      "hit": false,
      "t": 15473.685500000003,
      "d": 286.8421291666673,
      "v": 60
    },
    {
      "midi": 62,
      "hit": false,
      "t": 15789.475000000004,
      "d": 115.78948333333392,
      "v": 75
    },
    {
      "midi": 66,
      "hit": false,
      "t": 16105.264500000005,
      "d": 334.2105541666642,
      "v": 37
    },
    {
      "midi": 69,
      "hit": false,
      "t": 16421.054000000004,
      "d": 405.2631916666651,
      "v": 77
    },
    {
      "midi": 79,
      "hit": false,
      "t": 16421.054000000004,
      "d": 700.0000583333313,
      "v": 85
    },
    {
      "midi": 66,
      "hit": false,
      "t": 16736.843500000003,
      "d": 355.26318750000064,
      "v": 73
    },
    {
      "midi": 62,
      "hit": false,
      "t": 17052.633,
      "d": 178.94738333333225,
      "v": 69
    },
    {
      "midi": 78,
      "hit": false,
      "t": 17052.633,
      "d": 744.736904166668,
      "v": 75
    },
    {
      "midi": 66,
      "hit": false,
      "t": 17368.4225,
      "d": 71.05263750000086,
      "v": 61
    },
    {
      "midi": 47,
      "hit": false,
      "t": 17684.212000000003,
      "d": 378.9474000000009,
      "v": 56
    },
    {
      "midi": 76,
      "hit": false,
      "t": 17684.212000000003,
      "d": 1260.5264208333356,
      "v": 77
    },
    {
      "midi": 50,
      "hit": false,
      "t": 18000.001500000006,
      "d": 294.7368666666662,
      "v": 55
    },
    {
      "midi": 54,
      "hit": false,
      "t": 18315.791000000005,
      "d": 110.5263249999989,
      "v": 76
    },
    {
      "midi": 59,
      "hit": false,
      "t": 18631.580500000004,
      "d": 323.6842375000015,
      "v": 70
    },
    {
      "midi": 62,
      "hit": false,
      "t": 18947.370000000006,
      "d": 386.8421374999998,
      "v": 69
    },
    {
      "midi": 74,
      "hit": false,
      "t": 18947.370000000006,
      "d": 1363.158008333332,
      "v": 82
    },
    {
      "midi": 66,
      "hit": false,
      "t": 19263.159500000005,
      "d": 342.1052916666704,
      "v": 76
    },
    {
      "midi": 62,
      "hit": false,
      "t": 19578.949000000008,
      "d": 263.157916666667,
      "v": 62
    },
    {
      "midi": 59,
      "hit": false,
      "t": 19894.738500000007,
      "d": 89.47369166666613,
      "v": 57
    },
    {
      "midi": 43,
      "hit": false,
      "t": 20210.528000000006,
      "d": 389.4737166666637,
      "v": 89
    },
    {
      "midi": 79,
      "hit": false,
      "t": 20210.528000000006,
      "d": 1257.8948416666644,
      "v": 101
    },
    {
      "midi": 47,
      "hit": false,
      "t": 20526.317500000005,
      "d": 263.15791666666337,
      "v": 88
    },
    {
      "midi": 50,
      "hit": false,
      "t": 20842.107,
      "d": 107.89474583333504,
      "v": 81
    },
    {
      "midi": 55,
      "hit": false,
      "t": 21157.896500000003,
      "d": 315.7895000000026,
      "v": 66
    },
    {
      "midi": 59,
      "hit": false,
      "t": 21473.686000000005,
      "d": 318.42107916666646,
      "v": 74
    },
    {
      "midi": 78,
      "hit": false,
      "t": 21473.686000000005,
      "d": 692.105320833336,
      "v": 84
    },
    {
      "midi": 62,
      "hit": false,
      "t": 21789.475500000004,
      "d": 310.5263416666676,
      "v": 70
    },
    {
      "midi": 59,
      "hit": false,
      "t": 22105.265000000007,
      "d": 178.9473833333359,
      "v": 74
    },
    {
      "midi": 74,
      "hit": false,
      "t": 22105.265000000007,
      "d": 697.3684791666674,
      "v": 77
    },
    {
      "midi": 55,
      "hit": false,
      "t": 22421.05450000001,
      "d": 76.31579583333223,
      "v": 66
    },
    {
      "midi": 45,
      "hit": false,
      "t": 22736.84400000001,
      "d": 521.052674999999,
      "v": 64
    },
    {
      "midi": 76,
      "hit": false,
      "t": 22736.84400000001,
      "d": 2136.8422833333316,
      "v": 80
    },
    {
      "midi": 49,
      "hit": false,
      "t": 23052.633500000007,
      "d": 313.1579208333351,
      "v": 65
    },
    {
      "midi": 52,
      "hit": false,
      "t": 23368.42300000001,
      "d": 78.94737499999974,
      "v": 86
    },
    {
      "midi": 57,
      "hit": false,
      "t": 23684.21250000001,
      "d": 384.2105583333323,
      "v": 82
    },
    {
      "midi": 64,
      "hit": false,
      "t": 24315.791500000007,
      "d": 552.6316249999982,
      "v": 83
    },
    {
      "midi": 61,
      "hit": false,
      "t": 24631.581000000006,
      "d": 171.05264583333337,
      "v": 83
    },
    {
      "midi": 57,
      "hit": false,
      "t": 24947.370500000008,
      "d": 107.89474583333504,
      "v": 66
    },
    {
      "midi": 50,
      "hit": false,
      "t": 25263.16000000001,
      "d": 513.1579375000038,
      "v": 77
    },
    {
      "midi": 81,
      "hit": false,
      "t": 25263.16000000001,
      "d": 1252.6316833333403,
      "v": 92
    },
    {
      "midi": 57,
      "hit": false,
      "t": 25578.949500000013,
      "d": 410.52635000000373,
      "v": 64
    },
    {
      "midi": 62,
      "hit": false,
      "t": 25894.739000000016,
      "d": 534.2105708333365,
      "v": 85
    },
    {
      "midi": 69,
      "hit": false,
      "t": 26210.52850000002,
      "d": 321.05265833333397,
      "v": 77
    },
    {
      "midi": 79,
      "hit": false,
      "t": 26526.318000000017,
      "d": 671.0526875000032,
      "v": 84
    },
    {
      "midi": 54,
      "hit": false,
      "t": 26526.318000000017,
      "d": 928.9474458333352,
      "v": 83
    },
    {
      "midi": 57,
      "hit": false,
      "t": 26842.10750000002,
      "d": 455.26319583333316,
      "v": 73
    },
    {
      "midi": 62,
      "hit": false,
      "t": 27157.89700000002,
      "d": 305.26318333333256,
      "v": 82
    },
    {
      "midi": 78,
      "hit": false,
      "t": 27157.89700000002,
      "d": 721.0526916666677,
      "v": 83
    },
    {
      "midi": 69,
      "hit": false,
      "t": 27473.686500000018,
      "d": 142.1052750000017,
      "v": 76
    },
    {
      "midi": 45,
      "hit": false,
      "t": 27789.47600000002,
      "d": 568.4210999999996,
      "v": 78
    },
    {
      "midi": 76,
      "hit": false,
      "t": 27789.47600000002,
      "d": 1297.3685291666661,
      "v": 83
    },
    {
      "midi": 49,
      "hit": false,
      "t": 28105.26550000002,
      "d": 302.6316041666687,
      "v": 60
    },
    {
      "midi": 52,
      "hit": false,
      "t": 28421.055000000022,
      "d": 89.47369166666613,
      "v": 86
    },
    {
      "midi": 57,
      "hit": false,
      "t": 28736.84450000002,
      "d": 452.63161666666565,
      "v": 66
    },
    {
      "midi": 61,
      "hit": false,
      "t": 29052.63400000002,
      "d": 407.8947708333326,
      "v": 73
    },
    {
      "midi": 78,
      "hit": false,
      "t": 29052.63400000002,
      "d": 600.0000499999987,
      "v": 81
    },
    {
      "midi": 64,
      "hit": false,
      "t": 29368.42350000002,
      "d": 394.7368749999987,
      "v": 77
    },
    {
      "midi": 61,
      "hit": false,
      "t": 29684.213000000018,
      "d": 347.3684499999981,
      "v": 71
    },
    {
      "midi": 79,
      "hit": false,
      "t": 29684.213000000018,
      "d": 721.052691666664,
      "v": 74
    },
    {
      "midi": 57,
      "hit": false,
      "t": 30000.002500000017,
      "d": 136.8421166666667,
      "v": 69
    },
    {
      "midi": 54,
      "hit": false,
      "t": 30315.792000000016,
      "d": 610.5263666666651,
      "v": 59
    },
    {
      "midi": 81,
      "hit": false,
      "t": 30315.792000000016,
      "d": 1321.0527416666664,
      "v": 80
    },
    {
      "midi": 57,
      "hit": false,
      "t": 30631.581500000015,
      "d": 300.0000250000012,
      "v": 61
    },
    {
      "midi": 61,
      "hit": false,
      "t": 30947.371000000017,
      "d": 100.00000833333252,
      "v": 67
    },
    {
      "midi": 66,
      "hit": false,
      "t": 31263.160500000016,
      "d": 413.1579291666676,
      "v": 59
    },
    {
      "midi": 69,
      "hit": false,
      "t": 31578.950000000015,
      "d": 444.7368791666704,
      "v": 67
    },
    {
      "midi": 78,
      "hit": false,
      "t": 31578.950000000015,
      "d": 647.3684750000066,
      "v": 76
    },
    {
      "midi": 74,
      "hit": false,
      "t": 32210.52900000002,
      "d": 607.8947875000049,
      "v": 72
    },
    {
      "midi": 66,
      "hit": false,
      "t": 32526.318500000023,
      "d": 105.26316666666753,
      "v": 60
    },
    {
      "midi": 43,
      "hit": false,
      "t": 32842.10800000002,
      "d": 350.0000291666656,
      "v": 90
    },
    {
      "midi": 71,
      "hit": false,
      "t": 32842.10800000002,
      "d": 613.1579458333363,
      "v": 67
    },
    {
      "midi": 50,
      "hit": false,
      "t": 33157.89750000002,
      "d": 142.1052750000017,
      "v": 59
    },
    {
      "midi": 40,
      "hit": false,
      "t": 33473.68700000003,
      "d": 352.6316083333295,
      "v": 85
    },
    {
      "midi": 74,
      "hit": false,
      "t": 33473.68700000003,
      "d": 681.5790041666623,
      "v": 73
    },
    {
      "midi": 47,
      "hit": false,
      "t": 33789.476500000026,
      "d": 147.36843333332945,
      "v": 64
    },
    {
      "midi": 45,
      "hit": false,
      "t": 34105.266000000025,
      "d": 513.1579375000001,
      "v": 89
    },
    {
      "midi": 73,
      "hit": false,
      "t": 34105.266000000025,
      "d": 2139.4738624999954,
      "v": 76
    },
    {
      "midi": 52,
      "hit": false,
      "t": 34421.055500000024,
      "d": 302.63160416666506,
      "v": 66
    },
    {
      "midi": 57,
      "hit": false,
      "t": 34736.84500000002,
      "d": 115.78948333333392,
      "v": 78
    },
    {
      "midi": 61,
      "hit": false,
      "t": 35052.63450000002,
      "d": 1092.1053541666697,
      "v": 72
    },
    {
      "midi": 64,
      "hit": false,
      "t": 35368.42400000002,
      "d": 271.0526541666695,
      "v": 78
    },
    {
      "midi": 69,
      "hit": false,
      "t": 35684.21350000003,
      "d": 536.8421499999968,
      "v": 77
    },
    {
      "midi": 64,
      "hit": false,
      "t": 36000.003000000026,
      "d": 294.7368666666589,
      "v": 81
    },
    {
      "midi": 61,
      "hit": false,
      "t": 36315.79250000002,
      "d": 105.26316666666389,
      "v": 69
    },
    {
      "midi": 50,
      "hit": false,
      "t": 36631.58200000002,
      "d": 552.6316250000018,
      "v": 92
    },
    {
      "midi": 81,
      "hit": false,
      "t": 36631.58200000002,
      "d": 1250.0001041666765,
      "v": 98
    },
    {
      "midi": 54,
      "hit": false,
      "t": 36947.371500000016,
      "d": 289.47370833333844,
      "v": 62
    },
    {
      "midi": 57,
      "hit": false,
      "t": 37263.16100000002,
      "d": 78.94737500000338,
      "v": 80
    },
    {
      "midi": 62,
      "hit": false,
      "t": 37578.95050000003,
      "d": 344.7368708333306,
      "v": 61
    },
    {
      "midi": 66,
      "hit": false,
      "t": 37894.74000000003,
      "d": 447.36845833333064,
      "v": 84
    },
    {
      "midi": 79,
      "hit": false,
      "t": 37894.74000000003,
      "d": 707.8947958333301,
      "v": 94
    },
    {
      "midi": 69,
      "hit": false,
      "t": 38210.529500000026,
      "d": 426.31582499999786,
      "v": 73
    },
    {
      "midi": 66,
      "hit": false,
      "t": 38526.319000000025,
      "d": 284.21054999999615,
      "v": 57
    },
    {
      "midi": 78,
      "hit": false,
      "t": 38526.319000000025,
      "d": 681.5790041666623,
      "v": 83
    },
    {
      "midi": 62,
      "hit": false,
      "t": 38842.108500000024,
      "d": 118.42106249999779,
      "v": 71
    },
    {
      "midi": 45,
      "hit": false,
      "t": 39157.89800000002,
      "d": 489.4737249999962,
      "v": 86
    },
    {
      "midi": 76,
      "hit": false,
      "t": 39157.89800000002,
      "d": 1355.2632708333258,
      "v": 84
    },
    {
      "midi": 49,
      "hit": false,
      "t": 39473.68750000002,
      "d": 273.6842333333334,
      "v": 60
    },
    {
      "midi": 52,
      "hit": false,
      "t": 39789.47700000002,
      "d": 71.05263749999722,
      "v": 72
    },
    {
      "midi": 57,
      "hit": false,
      "t": 40105.26650000002,
      "d": 302.63160416666506,
      "v": 73
    },
    {
      "midi": 61,
      "hit": false,
      "t": 40421.05600000002,
      "d": 365.7895041666634,
      "v": 80
    },
    {
      "midi": 78,
      "hit": false,
      "t": 40421.05600000002,
      "d": 589.4737333333323,
      "v": 86
    },
    {
      "midi": 64,
      "hit": false,
      "t": 40736.84550000002,
      "d": 350.0000291666656,
      "v": 85
    },
    {
      "midi": 61,
      "hit": false,
      "t": 41052.63500000002,
      "d": 326.315816666669,
      "v": 65
    },
    {
      "midi": 79,
      "hit": false,
      "t": 41052.63500000002,
      "d": 694.7368999999962,
      "v": 81
    },
    {
      "midi": 57,
      "hit": false,
      "t": 41368.424500000016,
      "d": 107.89474583333504,
      "v": 62
    },
    {
      "midi": 54,
      "hit": false,
      "t": 41684.214000000014,
      "d": 589.4737333333323,
      "v": 57
    },
    {
      "midi": 81,
      "hit": false,
      "t": 41684.214000000014,
      "d": 1363.1580083333392,
      "v": 76
    },
    {
      "midi": 57,
      "hit": false,
      "t": 42000.00350000001,
      "d": 305.2631833333362,
      "v": 58
    },
    {
      "midi": 61,
      "hit": false,
      "t": 42315.79300000002,
      "d": 113.15790416667005,
      "v": 80
    },
    {
      "midi": 66,
      "hit": false,
      "t": 42631.582500000026,
      "d": 378.9473999999973,
      "v": 56
    },
    {
      "midi": 69,
      "hit": false,
      "t": 42947.372000000025,
      "d": 394.73687499999505,
      "v": 81
    },
    {
      "midi": 78,
      "hit": false,
      "t": 42947.372000000025,
      "d": 663.1579500000007,
      "v": 78
    },
    {
      "midi": 74,
      "hit": false,
      "t": 43578.95100000002,
      "d": 660.5263708333368,
      "v": 86
    },
    {
      "midi": 66,
      "hit": false,
      "t": 43894.74050000003,
      "d": 89.47369166666613,
      "v": 62
    },
    {
      "midi": 43,
      "hit": false,
      "t": 44210.53000000003,
      "d": 407.89477083332895,
      "v": 83
    },
    {
      "midi": 71,
      "hit": false,
      "t": 44210.53000000003,
      "d": 2094.7370166666515,
      "v": 88
    },
    {
      "midi": 47,
      "hit": false,
      "t": 44526.31950000003,
      "d": 292.10528749999503,
      "v": 59
    },
    {
      "midi": 50,
      "hit": false,
      "t": 44842.10900000002,
      "d": 63.157899999998335,
      "v": 77
    },
    {
      "midi": 59,
      "hit": false,
      "t": 45157.89850000002,
      "d": 1071.0527208333297,
      "v": 70
    },
    {
      "midi": 62,
      "hit": false,
      "t": 45473.68800000002,
      "d": 331.5789749999967,
      "v": 84
    },
    {
      "midi": 67,
      "hit": false,
      "t": 45789.477500000015,
      "d": 563.1579416666646,
      "v": 86
    },
    {
      "midi": 62,
      "hit": false,
      "t": 46105.267000000014,
      "d": 292.1052875000023,
      "v": 86
    },
    {
      "midi": 59,
      "hit": false,
      "t": 46421.05650000001,
      "d": 86.84211250000226,
      "v": 69
    },
    {
      "midi": 50,
      "hit": false,
      "t": 46736.84600000001,
      "d": 436.8421416666679,
      "v": 89
    },
    {
      "midi": 78,
      "hit": false,
      "t": 46736.84600000001,
      "d": 1315.7895833333387,
      "v": 78
    },
    {
      "midi": 57,
      "hit": false,
      "t": 47052.63550000001,
      "d": 284.2105500000034,
      "v": 60
    },
    {
      "midi": 62,
      "hit": false,
      "t": 47368.42500000002,
      "d": 86.84211250000226,
      "v": 75
    },
    {
      "midi": 66,
      "hit": false,
      "t": 47684.21450000002,
      "d": 326.315816666669,
      "v": 41
    },
    {
      "midi": 69,
      "hit": false,
      "t": 48000.004000000015,
      "d": 373.6842416666623,
      "v": 90
    },
    {
      "midi": 79,
      "hit": false,
      "t": 48000.004000000015,
      "d": 678.9474249999985,
      "v": 86
    },
    {
      "midi": 66,
      "hit": false,
      "t": 48315.793500000014,
      "d": 326.315816666669,
      "v": 66
    },
    {
      "midi": 62,
      "hit": false,
      "t": 48631.58300000001,
      "d": 200.00001666666503,
      "v": 63
    },
    {
      "midi": 78,
      "hit": false,
      "t": 48631.58300000001,
      "d": 718.4211125000002,
      "v": 82
    },
    {
      "midi": 66,
      "hit": false,
      "t": 48947.37250000001,
      "d": 63.157899999998335,
      "v": 70
    },
    {
      "midi": 47,
      "hit": false,
      "t": 49263.16200000001,
      "d": 468.4210916666634,
      "v": 66
    },
    {
      "midi": 76,
      "hit": false,
      "t": 49263.16200000001,
      "d": 1257.8948416666608,
      "v": 78
    },
    {
      "midi": 50,
      "hit": false,
      "t": 49578.95150000001,
      "d": 273.6842333333334,
      "v": 64
    },
    {
      "midi": 54,
      "hit": false,
      "t": 49894.74100000001,
      "d": 102.63158750000002,
      "v": 76
    },
    {
      "midi": 59,
      "hit": false,
      "t": 50210.53050000001,
      "d": 205.26317500000005,
      "v": 45
    },
    {
      "midi": 62,
      "hit": false,
      "t": 50526.32000000001,
      "d": 378.9473999999973,
      "v": 67
    },
    {
      "midi": 74,
      "hit": false,
      "t": 50526.32000000001,
      "d": 1323.6843208333376,
      "v": 85
    },
    {
      "midi": 66,
      "hit": false,
      "t": 50842.109500000006,
      "d": 344.7368708333306,
      "v": 77
    },
    {
      "midi": 62,
      "hit": false,
      "t": 51157.899000000005,
      "d": 242.1052833333306,
      "v": 65
    },
    {
      "midi": 59,
      "hit": false,
      "t": 51473.688500000004,
      "d": 78.94737500000338,
      "v": 50
    },
    {
      "midi": 43,
      "hit": false,
      "t": 51789.47800000001,
      "d": 550.0000458333379,
      "v": 88
    },
    {
      "midi": 79,
      "hit": false,
      "t": 51789.47800000001,
      "d": 1263.1580000000104,
      "v": 85
    },
    {
      "midi": 50,
      "hit": false,
      "t": 52105.267500000016,
      "d": 400.00003333333007,
      "v": 65
    },
    {
      "midi": 55,
      "hit": false,
      "t": 52421.057000000015,
      "d": 355.26318750000064,
      "v": 96
    },
    {
      "midi": 50,
      "hit": false,
      "t": 52736.846500000014,
      "d": 126.31580000000395,
      "v": 70
    },
    {
      "midi": 43,
      "hit": false,
      "t": 53052.63600000002,
      "d": 718.4211124999929,
      "v": 78
    },
    {
      "midi": 78,
      "hit": false,
      "t": 53052.63600000002,
      "d": 789.4737499999901,
      "v": 81
    },
    {
      "midi": 55,
      "hit": false,
      "t": 53368.42550000002,
      "d": 373.6842416666623,
      "v": 62
    },
    {
      "midi": 40,
      "hit": false,
      "t": 53684.21500000002,
      "d": 255.2631791666572,
      "v": 83
    },
    {
      "midi": 74,
      "hit": false,
      "t": 53684.21500000002,
      "d": 673.6842666666562,
      "v": 85
    },
    {
      "midi": 47,
      "hit": false,
      "t": 54000.00450000001,
      "d": 60.526320833334466,
      "v": 60
    },
    {
      "midi": 45,
      "hit": false,
      "t": 54315.79400000001,
      "d": 481.5789874999973,
      "v": 71
    },
    {
      "midi": 76,
      "hit": false,
      "t": 54315.79400000001,
      "d": 631.5789999999979,
      "v": 75
    },
    {
      "midi": 52,
      "hit": false,
      "t": 54631.58350000001,
      "d": 289.47370833333116,
      "v": 64
    },
    {
      "midi": 57,
      "hit": false,
      "t": 54947.37300000001,
      "d": 100.00000833333615,
      "v": 82
    },
    {
      "midi": 61,
      "hit": false,
      "t": 55263.16250000001,
      "d": 1047.368508333333,
      "v": 64
    },
    {
      "midi": 64,
      "hit": false,
      "t": 55578.95200000001,
      "d": 323.68423749999783,
      "v": 90
    },
    {
      "midi": 69,
      "hit": false,
      "t": 55894.74150000001,
      "d": 1039.4737708333341,
      "v": 86
    },
    {
      "midi": 64,
      "hit": false,
      "t": 56210.53100000001,
      "d": 342.105291666674,
      "v": 78
    },
    {
      "midi": 61,
      "hit": false,
      "t": 56526.320500000016,
      "d": 107.89474583333504,
      "v": 67
    },
    {
      "midi": 49,
      "hit": false,
      "t": 56842.110000000015,
      "d": 1944.7370041666582,
      "v": 86
    },
    {
      "midi": 52,
      "hit": false,
      "t": 57157.899500000014,
      "d": 1634.2106624999942,
      "v": 67
    },
    {
      "midi": 57,
      "hit": false,
      "t": 57473.68900000001,
      "d": 634.2105791666618,
      "v": 76
    },
    {
      "midi": 61,
      "hit": false,
      "t": 57789.47850000001,
      "d": 381.57897916666116,
      "v": 81
    },
    {
      "midi": 64,
      "hit": false,
      "t": 58105.26800000001,
      "d": 323.68423749999783,
      "v": 78
    },
    {
      "midi": 69,
      "hit": false,
      "t": 58421.05750000001,
      "d": 255.2631791666645,
      "v": 89
    },
    {
      "midi": 64,
      "hit": false,
      "t": 58736.84700000001,
      "d": 265.7894958333345,
      "v": 64
    },
    {
      "midi": 61,
      "hit": false,
      "t": 59052.63650000001,
      "d": 71.05263749999722,
      "v": 56
    },
    {
      "midi": 50,
      "hit": false,
      "t": 59368.42600000001,
      "d": 594.7368916666601,
      "v": 89
    },
    {
      "midi": 81,
      "hit": false,
      "t": 59368.42600000001,
      "d": 1239.4737874999919,
      "v": 90
    },
    {
      "midi": 54,
      "hit": false,
      "t": 59684.215500000006,
      "d": 344.73687083332334,
      "v": 66
    },
    {
      "midi": 57,
      "hit": false,
      "t": 60000.005,
      "d": 97.36842916666501,
      "v": 74
    },
    {
      "midi": 62,
      "hit": false,
      "t": 60315.794499999996,
      "d": 378.9473999999973,
      "v": 60
    },
    {
      "midi": 66,
      "hit": false,
      "t": 60631.583999999995,
      "d": 413.15792916666396,
      "v": 73
    },
    {
      "midi": 79,
      "hit": false,
      "t": 60631.583999999995,
      "d": 721.052691666664,
      "v": 85
    },
    {
      "midi": 69,
      "hit": false,
      "t": 60947.373499999994,
      "d": 547.3684666666668,
      "v": 74
    },
    {
      "midi": 66,
      "hit": false,
      "t": 61263.16299999999,
      "d": 326.315816666669,
      "v": 58
    },
    {
      "midi": 78,
      "hit": false,
      "t": 61263.16299999999,
      "d": 681.5790041666696,
      "v": 78
    },
    {
      "midi": 62,
      "hit": false,
      "t": 61578.95249999999,
      "d": 65.78947916666948,
      "v": 42
    },
    {
      "midi": 45,
      "hit": false,
      "t": 61894.742,
      "d": 465.78951249999227,
      "v": 86
    },
    {
      "midi": 76,
      "hit": false,
      "t": 61894.742,
      "d": 1300.0001083333336,
      "v": 78
    },
    {
      "midi": 49,
      "hit": false,
      "t": 62210.53149999999,
      "d": 294.7368666666662,
      "v": 52
    },
    {
      "midi": 52,
      "hit": false,
      "t": 62526.32099999999,
      "d": 78.94737500000338,
      "v": 72
    },
    {
      "midi": 57,
      "hit": false,
      "t": 62842.110499999995,
      "d": 326.315816666669,
      "v": 71
    },
    {
      "midi": 61,
      "hit": false,
      "t": 63157.899999999994,
      "d": 378.94740000000456,
      "v": 76
    },
    {
      "midi": 78,
      "hit": false,
      "t": 63157.899999999994,
      "d": 607.8947875000013,
      "v": 83
    },
    {
      "midi": 64,
      "hit": false,
      "t": 63473.6895,
      "d": 392.1052958333239,
      "v": 74
    },
    {
      "midi": 61,
      "hit": false,
      "t": 63789.47899999999,
      "d": 339.4737124999956,
      "v": 64
    },
    {
      "midi": 79,
      "hit": false,
      "t": 63789.47899999999,
      "d": 689.473741666654,
      "v": 72
    },
    {
      "midi": 57,
      "hit": false,
      "t": 64105.26849999999,
      "d": 115.78948333332664,
      "v": 62
    },
    {
      "midi": 54,
      "hit": false,
      "t": 64421.05799999998,
      "d": 607.8947875000013,
      "v": 76
    },
    {
      "midi": 81,
      "hit": false,
      "t": 64421.05799999998,
      "d": 1307.8948458333543,
      "v": 85
    },
    {
      "midi": 57,
      "hit": false,
      "t": 64736.84749999998,
      "d": 302.63160416667233,
      "v": 58
    },
    {
      "midi": 61,
      "hit": false,
      "t": 65052.63699999999,
      "d": 78.94737500000338,
      "v": 71
    },
    {
      "midi": 66,
      "hit": false,
      "t": 65368.426499999994,
      "d": 402.6316125000085,
      "v": 59
    },
    {
      "midi": 69,
      "hit": false,
      "t": 65684.216,
      "d": 405.26319166667236,
      "v": 72
    },
    {
      "midi": 78,
      "hit": false,
      "t": 65684.216,
      "d": 689.4737416666758,
      "v": 74
    },
    {
      "midi": 74,
      "hit": false,
      "t": 66315.79500000001,
      "d": 686.8421625000046,
      "v": 84
    },
    {
      "midi": 66,
      "hit": false,
      "t": 66631.58450000001,
      "d": 81.57895416665997,
      "v": 61
    },
    {
      "midi": 43,
      "hit": false,
      "t": 66947.37400000001,
      "d": 410.52635000001465,
      "v": 60
    },
    {
      "midi": 71,
      "hit": false,
      "t": 66947.37400000001,
      "d": 1894.7370000000083,
      "v": 81
    },
    {
      "midi": 47,
      "hit": false,
      "t": 67263.16350000002,
      "d": 310.5263416666712,
      "v": 47
    },
    {
      "midi": 50,
      "hit": false,
      "t": 67578.95300000002,
      "d": 65.7894791666622,
      "v": 67
    },
    {
      "midi": 55,
      "hit": false,
      "t": 67894.74250000002,
      "d": 392.1052958333312,
      "v": 65
    },
    {
      "midi": 62,
      "hit": false,
      "t": 68526.32150000002,
      "d": 323.68423749999783,
      "v": 77
    },
    {
      "midi": 59,
      "hit": false,
      "t": 68842.11100000002,
      "d": 300.0000250000012,
      "v": 86
    },
    {
      "midi": 55,
      "hit": false,
      "t": 69157.90050000002,
      "d": 65.7894791666622,
      "v": 61
    },
    {
      "midi": 44,
      "hit": false,
      "t": 69473.69000000002,
      "d": 505.26320000000123,
      "v": 74
    },
    {
      "midi": 74,
      "hit": false,
      "t": 69473.69000000002,
      "d": 1668.4211916666536,
      "v": 78
    },
    {
      "midi": 47,
      "hit": false,
      "t": 69789.47950000002,
      "d": 321.0526583333267,
      "v": 66
    },
    {
      "midi": 52,
      "hit": false,
      "t": 70105.26900000001,
      "d": 94.73685000000114,
      "v": 84
    },
    {
      "midi": 56,
      "hit": false,
      "t": 70421.05850000001,
      "d": 481.5789875000046,
      "v": 66
    },
    {
      "midi": 59,
      "hit": false,
      "t": 70736.84800000001,
      "d": 392.1052958333312,
      "v": 85
    },
    {
      "midi": 64,
      "hit": false,
      "t": 71052.63750000001,
      "d": 334.21055416666786,
      "v": 86
    },
    {
      "midi": 74,
      "hit": false,
      "t": 71368.42700000001,
      "d": 126.31579999999667,
      "v": 89
    },
    {
      "midi": 59,
      "hit": false,
      "t": 71368.42700000001,
      "d": 184.21054166666,
      "v": 61
    },
    {
      "midi": 56,
      "hit": false,
      "t": 71684.21650000001,
      "d": 110.5263249999989,
      "v": 71
    },
    {
      "midi": 45,
      "hit": false,
      "t": 72000.00600000001,
      "d": 468.4210916666634,
      "v": 85
    },
    {
      "midi": 78,
      "hit": false,
      "t": 72000.00600000001,
      "d": 1307.8948458333325,
      "v": 88
    },
    {
      "midi": 49,
      "hit": false,
      "t": 72315.79550000001,
      "d": 294.7368666666589,
      "v": 62
    },
    {
      "midi": 52,
      "hit": false,
      "t": 72631.585,
      "d": 128.94737916666782,
      "v": 77
    },
    {
      "midi": 57,
      "hit": false,
      "t": 72947.3745,
      "d": 313.1579208333278,
      "v": 63
    },
    {
      "midi": 61,
      "hit": false,
      "t": 73263.164,
      "d": 363.15792499999225,
      "v": 86
    },
    {
      "midi": 76,
      "hit": false,
      "t": 73263.164,
      "d": 865.7895458333223,
      "v": 86
    },
    {
      "midi": 64,
      "hit": false,
      "t": 73578.9535,
      "d": 331.5789749999967,
      "v": 65
    },
    {
      "midi": 61,
      "hit": false,
      "t": 73894.743,
      "d": 273.68423333331884,
      "v": 75
    },
    {
      "midi": 57,
      "hit": false,
      "t": 74210.53249999999,
      "d": 102.63158750000002,
      "v": 76
    },
    {
      "midi": 50,
      "hit": false,
      "t": 74526.32199999999,
      "d": 386.84213750000345,
      "v": 77
    },
    {
      "midi": 74,
      "hit": false,
      "t": 74526.32199999999,
      "d": 465.7895125000068,
      "v": 80
    },
    {
      "midi": 57,
      "hit": false,
      "t": 74842.11149999998,
      "d": 1992.1054291666806,
      "v": 74
    },
    {
      "midi": 62,
      "hit": false,
      "t": 75157.901,
      "d": 484.2105666666612,
      "v": 92
    },
    {
      "midi": 66,
      "hit": false,
      "t": 75473.6905,
      "d": 373.6842416666623,
      "v": 86
    },
    {
      "midi": 69,
      "hit": false,
      "t": 75789.48,
      "d": 402.6316125000012,
      "v": 84
    },
    {
      "midi": 74,
      "hit": false,
      "t": 76105.2695,
      "d": 315.78949999999895,
      "v": 89
    },
    {
      "midi": 69,
      "hit": false,
      "t": 76421.059,
      "d": 384.2105583333323,
      "v": 75
    },
    {
      "midi": 66,
      "hit": false,
      "t": 76736.8485,
      "d": 192.10527916667343,
      "v": 66
    },
    {
      "midi": 50,
      "hit": false,
      "t": 77052.638,
      "d": 276.31581250000454,
      "v": 57
    },
    {
      "midi": 78,
      "hit": false,
      "t": 79565.79610416667,
      "d": 163.1579083333345,
      "v": 112
    },
    {
      "midi": 50,
      "hit": false,
      "t": 79568.42768333334,
      "d": 1947.3685833333147,
      "v": 92
    },
    {
      "midi": 54,
      "hit": false,
      "t": 79900.00665833334,
      "d": 1534.210654166658,
      "v": 72
    },
    {
      "midi": 57,
      "hit": false,
      "t": 80213.16457916667,
      "d": 1194.7369416666625,
      "v": 92
    },
    {
      "midi": 62,
      "hit": false,
      "t": 80518.4277625,
      "d": 1034.2106124999991,
      "v": 85
    },
    {
      "midi": 79,
      "hit": false,
      "t": 80781.58567916667,
      "d": 657.8947916666657,
      "v": 107
    },
    {
      "midi": 66,
      "hit": false,
      "t": 80828.95410416667,
      "d": 402.6316125000012,
      "v": 77
    },
    {
      "midi": 69,
      "hit": false,
      "t": 81155.26992083334,
      "d": 381.57897916666116,
      "v": 74
    },
    {
      "midi": 66,
      "hit": false,
      "t": 81468.42784166666,
      "d": 336.84213333332445,
      "v": 76
    },
    {
      "midi": 62,
      "hit": false,
      "t": 81781.58576249999,
      "d": 252.63159999999334,
      "v": 84
    },
    {
      "midi": 81,
      "hit": false,
      "t": 82042.11210000001,
      "d": 857.894808333338,
      "v": 112
    },
    {
      "midi": 45,
      "hit": false,
      "t": 82097.37526249999,
      "d": 1992.105429166666,
      "v": 94
    },
    {
      "midi": 49,
      "hit": false,
      "t": 82426.32265833332,
      "d": 1752.6317250000138,
      "v": 65
    },
    {
      "midi": 52,
      "hit": false,
      "t": 82734.21742083332,
      "d": 1463.1580166666827,
      "v": 62
    },
    {
      "midi": 57,
      "hit": false,
      "t": 83057.90165833331,
      "d": 623.684262499999,
      "v": 67
    },
    {
      "midi": 76,
      "hit": false,
      "t": 83302.63852083335,
      "d": 557.8947833333368,
      "v": 120
    },
    {
      "midi": 61,
      "hit": false,
      "t": 83389.48063333331,
      "d": 352.63160833333677,
      "v": 71
    },
    {
      "midi": 64,
      "hit": false,
      "t": 83702.63855416665,
      "d": 334.21055416666786,
      "v": 75
    },
    {
      "midi": 61,
      "hit": false,
      "t": 84007.90173749998,
      "d": 376.31582083334797,
      "v": 73
    },
    {
      "midi": 57,
      "hit": false,
      "t": 84318.42807916667,
      "d": 307.89476250000007,
      "v": 67
    },
    {
      "midi": 78,
      "hit": false,
      "t": 84555.27020416669,
      "d": 644.7368958333391,
      "v": 99
    },
    {
      "midi": 47,
      "hit": false,
      "t": 84636.84915833334,
      "d": 2147.368599999987,
      "v": 80
    },
    {
      "midi": 50,
      "hit": false,
      "t": 84947.37550000001,
      "d": 1855.2633124999847,
      "v": 71
    },
    {
      "midi": 83,
      "hit": false,
      "t": 85189.48078333336,
      "d": 628.9474208333413,
      "v": 108
    },
    {
      "midi": 54,
      "hit": false,
      "t": 85278.954475,
      "d": 1505.2632833333191,
      "v": 80
    },
    {
      "midi": 59,
      "hit": false,
      "t": 85600.00713333333,
      "d": 386.8421374999889,
      "v": 75
    },
    {
      "midi": 86,
      "hit": false,
      "t": 85842.1124166667,
      "d": 913.1579708333302,
      "v": 119
    },
    {
      "midi": 62,
      "hit": false,
      "t": 85913.16505416666,
      "d": 347.3684499999945,
      "v": 85
    },
    {
      "midi": 66,
      "hit": false,
      "t": 86223.69139583332,
      "d": 365.78950416667794,
      "v": 80
    },
    {
      "midi": 62,
      "hit": false,
      "t": 86544.74405416666,
      "d": 342.10529166666674,
      "v": 80
    },
    {
      "midi": 59,
      "hit": false,
      "t": 86860.53355416666,
      "d": 255.2631791666645,
      "v": 77
    },
    {
      "midi": 86,
      "hit": false,
      "t": 87113.1651541667,
      "d": 755.2632208333525,
      "v": 127
    },
    {
      "midi": 48,
      "hit": false,
      "t": 87160.53357916666,
      "d": 2052.631750000015,
      "v": 85
    },
    {
      "midi": 52,
      "hit": false,
      "t": 87473.69149999999,
      "d": 1736.842250000016,
      "v": 73
    },
    {
      "midi": 55,
      "hit": false,
      "t": 87792.11257916666,
      "d": 1328.9474791666726,
      "v": 86
    },
    {
      "midi": 60,
      "hit": false,
      "t": 88110.53365833333,
      "d": 371.0526625000057,
      "v": 72
    },
    {
      "midi": 84,
      "hit": false,
      "t": 88355.27052083338,
      "d": 610.5263666666579,
      "v": 127
    },
    {
      "midi": 64,
      "hit": false,
      "t": 88413.1652625,
      "d": 307.89476250000007,
      "v": 81
    },
    {
      "midi": 67,
      "hit": false,
      "t": 88718.42844583333,
      "d": 315.78949999999895,
      "v": 77
    },
    {
      "midi": 83,
      "hit": false,
      "t": 88942.11267500004,
      "d": 655.2632124999946,
      "v": 116
    },
    {
      "midi": 64,
      "hit": false,
      "t": 89042.11268333333,
      "d": 347.36845000000903,
      "v": 74
    },
    {
      "midi": 60,
      "hit": false,
      "t": 89376.32323750001,
      "d": 334.21055416666786,
      "v": 78
    },
    {
      "midi": 81,
      "hit": false,
      "t": 89600.0074666667,
      "d": 1413.1580125000037,
      "v": 126
    },
    {
      "midi": 45,
      "hit": false,
      "t": 89684.21800000001,
      "d": 1952.6317416666716,
      "v": 88
    },
    {
      "midi": 49,
      "hit": false,
      "t": 90007.9022375,
      "d": 1689.4738250000082,
      "v": 65
    },
    {
      "midi": 52,
      "hit": false,
      "t": 90326.32331666668,
      "d": 1405.2632750000048,
      "v": 83
    },
    {
      "midi": 57,
      "hit": false,
      "t": 90650.00755416667,
      "d": 421.0526666666701,
      "v": 71
    },
    {
      "midi": 76,
      "hit": false,
      "t": 90842.11283333338,
      "d": 565.7895208333357,
      "v": 127
    },
    {
      "midi": 61,
      "hit": false,
      "t": 90968.42863333334,
      "d": 226.3158083333401,
      "v": 81
    },
    {
      "midi": 64,
      "hit": false,
      "t": 91271.06023750002,
      "d": 331.5789749999967,
      "v": 60
    },
    {
      "midi": 79,
      "hit": false,
      "t": 91542.11289166671,
      "d": 639.4737374999968,
      "v": 127
    },
    {
      "midi": 61,
      "hit": false,
      "t": 91592.11289583334,
      "d": 336.842133333339,
      "v": 72
    },
    {
      "midi": 57,
      "hit": false,
      "t": 91910.53397500001,
      "d": 268.42107500000566,
      "v": 71
    },
    {
      "midi": 78,
      "hit": false,
      "t": 92181.5866291667,
      "d": 878.9474416666635,
      "v": 120
    },
    {
      "midi": 50,
      "hit": false,
      "t": 92221.06031666668,
      "d": 1971.0527958333405,
      "v": 86
    },
    {
      "midi": 54,
      "hit": false,
      "t": 92544.74455416668,
      "d": 1678.9475083333382,
      "v": 67
    },
    {
      "midi": 57,
      "hit": false,
      "t": 92855.27089583335,
      "d": 1300.0001083333336,
      "v": 49
    },
    {
      "midi": 62,
      "hit": false,
      "t": 93173.69197500002,
      "d": 460.52635416666453,
      "v": 66
    },
    {
      "midi": 78,
      "hit": false,
      "t": 93423.69199583337,
      "d": 681.5790041666769,
      "v": 127
    },
    {
      "midi": 66,
      "hit": false,
      "t": 93492.1130541667,
      "d": 384.2105583333323,
      "v": 62
    },
    {
      "midi": 69,
      "hit": false,
      "t": 93821.06045000002,
      "d": 378.94740000000456,
      "v": 81
    },
    {
      "midi": 76,
      "hit": false,
      "t": 94086.84994583338,
      "d": 657.8947916666657,
      "v": 120
    },
    {
      "midi": 66,
      "hit": false,
      "t": 94121.06047500002,
      "d": 339.4737124999956,
      "v": 67
    },
    {
      "midi": 62,
      "hit": false,
      "t": 94444.74471250002,
      "d": 302.63160416667233,
      "v": 72
    },
    {
      "midi": 74,
      "hit": false,
      "t": 94721.06052500005,
      "d": 721.0526916666713,
      "v": 127
    },
    {
      "midi": 47,
      "hit": false,
      "t": 94736.85000000002,
      "d": 1939.4738458333159,
      "v": 66
    },
    {
      "midi": 50,
      "hit": false,
      "t": 95052.63950000003,
      "d": 1557.8948666666402,
      "v": 64
    },
    {
      "midi": 54,
      "hit": false,
      "t": 95365.79742083336,
      "d": 1197.368520833319,
      "v": 69
    },
    {
      "midi": 78,
      "hit": false,
      "t": 95439.48163750005,
      "d": 542.105308333339,
      "v": 127
    },
    {
      "midi": 59,
      "hit": false,
      "t": 95686.85007916669,
      "d": 360.5263458333211,
      "v": 72
    },
    {
      "midi": 83,
      "hit": false,
      "t": 95989.48168333339,
      "d": 555.2632041666657,
      "v": 126
    },
    {
      "midi": 62,
      "hit": false,
      "t": 96000.00800000002,
      "d": 323.68423749999783,
      "v": 72
    },
    {
      "midi": 66,
      "hit": false,
      "t": 96297.37644583335,
      "d": 386.8421374999889,
      "v": 75
    },
    {
      "midi": 78,
      "hit": false,
      "t": 96550.00804583338,
      "d": 692.1053208333324,
      "v": 127
    },
    {
      "midi": 62,
      "hit": false,
      "t": 96615.797525,
      "d": 326.315816666669,
      "v": 73
    },
    {
      "midi": 59,
      "hit": false,
      "t": 96939.4817625,
      "d": 215.78949166667007,
      "v": 84
    },
    {
      "midi": 79,
      "hit": false,
      "t": 97205.27125833338,
      "d": 1215.7895750000025,
      "v": 119
    },
    {
      "midi": 40,
      "hit": false,
      "t": 97244.74494583334,
      "d": 2178.9475499999826,
      "v": 81
    },
    {
      "midi": 43,
      "hit": false,
      "t": 97571.0607625,
      "d": 1926.3159500000038,
      "v": 58
    },
    {
      "midi": 47,
      "hit": false,
      "t": 97894.745,
      "d": 1631.5790833333303,
      "v": 80
    },
    {
      "midi": 52,
      "hit": false,
      "t": 98218.4292375,
      "d": 371.0526625000057,
      "v": 77
    },
    {
      "midi": 79,
      "hit": false,
      "t": 98494.74505000004,
      "d": 663.157950000008,
      "v": 126
    },
    {
      "midi": 55,
      "hit": false,
      "t": 98534.21873749999,
      "d": 297.3684458333446,
      "v": 86
    },
    {
      "midi": 59,
      "hit": false,
      "t": 98836.85034166666,
      "d": 313.1579208333278,
      "v": 76
    },
    {
      "midi": 78,
      "hit": false,
      "t": 99121.06089166671,
      "d": 628.9474208333413,
      "v": 122
    },
    {
      "midi": 55,
      "hit": false,
      "t": 99171.06089583333,
      "d": 331.5789749999967,
      "v": 70
    },
    {
      "midi": 52,
      "hit": false,
      "t": 99478.95565833333,
      "d": 321.0526583333267,
      "v": 71
    },
    {
      "midi": 76,
      "hit": false,
      "t": 99723.69252083339,
      "d": 1292.1053708333347,
      "v": 127
    },
    {
      "midi": 45,
      "hit": false,
      "t": 99786.85042083333,
      "d": 2068.4212249999837,
      "v": 90
    },
    {
      "midi": 49,
      "hit": false,
      "t": 100113.16623749999,
      "d": 1818.4212041666615,
      "v": 75
    },
    {
      "midi": 52,
      "hit": false,
      "t": 100426.32415833331,
      "d": 1544.736970833328,
      "v": 84
    },
    {
      "midi": 57,
      "hit": false,
      "t": 100747.37681666664,
      "d": 421.0526666666701,
      "v": 75
    },
    {
      "midi": 81,
      "hit": false,
      "t": 100976.32420416673,
      "d": 631.5789999999979,
      "v": 127
    },
    {
      "midi": 61,
      "hit": false,
      "t": 101057.90315833331,
      "d": 268.42107500000566,
      "v": 85
    },
    {
      "midi": 64,
      "hit": false,
      "t": 101371.06107916665,
      "d": 323.68423749999783,
      "v": 78
    },
    {
      "midi": 76,
      "hit": false,
      "t": 101615.79794166672,
      "d": 671.0526874999923,
      "v": 127
    },
    {
      "midi": 61,
      "hit": false,
      "t": 101689.48215833333,
      "d": 326.3158166666544,
      "v": 74
    },
    {
      "midi": 57,
      "hit": false,
      "t": 101989.48218333331,
      "d": 276.31581250000454,
      "v": 77
    },
    {
      "midi": 78,
      "hit": false,
      "t": 102273.69273333339,
      "d": 1226.315891666658,
      "v": 127
    },
    {
      "midi": 50,
      "hit": false,
      "t": 102321.06115833332,
      "d": 1947.3685833333584,
      "v": 88
    },
    {
      "midi": 54,
      "hit": false,
      "t": 102634.21907916667,
      "d": 1694.736983333336,
      "v": 71
    },
    {
      "midi": 57,
      "hit": false,
      "t": 102942.11384166667,
      "d": 1310.5264250000182,
      "v": 83
    },
    {
      "midi": 62,
      "hit": false,
      "t": 103257.90334166666,
      "d": 518.4210958333424,
      "v": 77
    },
    {
      "midi": 78,
      "hit": false,
      "t": 103544.74547083338,
      "d": 610.5263666666579,
      "v": 127
    },
    {
      "midi": 66,
      "hit": false,
      "t": 103576.32442083333,
      "d": 357.89476666667906,
      "v": 83
    },
    {
      "midi": 69,
      "hit": false,
      "t": 103900.00865833335,
      "d": 415.78950833332783,
      "v": 92
    },
    {
      "midi": 76,
      "hit": false,
      "t": 104123.69288750004,
      "d": 715.789533333329,
      "v": 127
    },
    {
      "midi": 66,
      "hit": false,
      "t": 104223.69289583334,
      "d": 347.3684499999945,
      "v": 80
    },
    {
      "midi": 62,
      "hit": false,
      "t": 104550.0087125,
      "d": 289.4737083333457,
      "v": 81
    },
    {
      "midi": 74,
      "hit": false,
      "t": 104807.90347083338,
      "d": 1273.6843166666658,
      "v": 120
    },
    {
      "midi": 47,
      "hit": false,
      "t": 104842.11400000002,
      "d": 2150.0001791666873,
      "v": 89
    },
    {
      "midi": 50,
      "hit": false,
      "t": 105157.90350000003,
      "d": 1931.579108333346,
      "v": 75
    },
    {
      "midi": 54,
      "hit": false,
      "t": 105468.4298416667,
      "d": 1586.8422375000082,
      "v": 81
    },
    {
      "midi": 59,
      "hit": false,
      "t": 105784.2193416667,
      "d": 365.7895041666634,
      "v": 85
    },
    {
      "midi": 78,
      "hit": false,
      "t": 106063.16673333338,
      "d": 665.7895291666646,
      "v": 127
    },
    {
      "midi": 62,
      "hit": false,
      "t": 106105.27200000003,
      "d": 363.1579250000068,
      "v": 80
    },
    {
      "midi": 66,
      "hit": false,
      "t": 106434.21939583337,
      "d": 418.421087499999,
      "v": 73
    },
    {
      "midi": 74,
      "hit": false,
      "t": 106715.79836666671,
      "d": 628.9474208333268,
      "v": 127
    },
    {
      "midi": 62,
      "hit": false,
      "t": 106755.2720541667,
      "d": 344.73687083335244,
      "v": 77
    },
    {
      "midi": 59,
      "hit": false,
      "t": 107071.0615541667,
      "d": 321.0526583333267,
      "v": 75
    },
    {
      "midi": 76,
      "hit": false,
      "t": 107323.6931541667,
      "d": 1934.2106875000172,
      "v": 127
    },
    {
      "midi": 48,
      "hit": false,
      "t": 107378.9563166667,
      "d": 1905.2633166666637,
      "v": 89
    },
    {
      "midi": 52,
      "hit": false,
      "t": 107681.58792083336,
      "d": 1592.105395833336,
      "v": 67
    },
    {
      "midi": 55,
      "hit": false,
      "t": 107989.48268333336,
      "d": 721.0526916666568,
      "v": 85
    },
    {
      "midi": 60,
      "hit": false,
      "t": 108313.16692083336,
      "d": 400.00003333333007,
      "v": 80
    },
    {
      "midi": 64,
      "hit": false,
      "t": 108636.85115833336,
      "d": 334.21055416666786,
      "v": 88
    },
    {
      "midi": 67,
      "hit": false,
      "t": 108950.00907916669,
      "d": 342.1052916666813,
      "v": 89
    },
    {
      "midi": 74,
      "hit": false,
      "t": 109228.95647083338,
      "d": 678.9474250000058,
      "v": 127
    },
    {
      "midi": 64,
      "hit": false,
      "t": 109273.6933166667,
      "d": 334.21055416666786,
      "v": 82
    },
    {
      "midi": 60,
      "hit": false,
      "t": 109594.74597500004,
      "d": 371.0526625000057,
      "v": 78
    },
    {
      "midi": 73,
      "hit": false,
      "t": 109844.74599583338,
      "d": 2568.4212666666717,
      "v": 119
    },
    {
      "midi": 45,
      "hit": false,
      "t": 109902.64073750004,
      "d": 2015.7896416666772,
      "v": 94
    },
    {
      "midi": 49,
      "hit": false,
      "t": 110223.69339583338,
      "d": 1794.7369916666648,
      "v": 59
    },
    {
      "midi": 52,
      "hit": false,
      "t": 110542.11447500005,
      "d": 1526.3159166666592,
      "v": 86
    },
    {
      "midi": 57,
      "hit": false,
      "t": 110855.27239583338,
      "d": 423.68424583334127,
      "v": 80
    },
    {
      "midi": 61,
      "hit": false,
      "t": 111173.69347500005,
      "d": 368.42108333333454,
      "v": 85
    },
    {
      "midi": 64,
      "hit": false,
      "t": 111492.11455416672,
      "d": 344.7368708333379,
      "v": 80
    },
    {
      "midi": 61,
      "hit": false,
      "t": 111810.53563333339,
      "d": 357.8947666666645,
      "v": 85
    },
    {
      "midi": 57,
      "hit": false,
      "t": 112113.16723750005,
      "d": 202.63159583334345,
      "v": 77
    },
    {
      "midi": 78,
      "hit": false,
      "t": 112357.90410000004,
      "d": 1313.1580041666748,
      "v": 126
    },
    {
      "midi": 50,
      "hit": false,
      "t": 112452.64095000006,
      "d": 2134.2107041666895,
      "v": 94
    },
    {
      "midi": 54,
      "hit": false,
      "t": 112757.90413333339,
      "d": 1807.8948875000206,
      "v": 75
    },
    {
      "midi": 57,
      "hit": false,
      "t": 113078.95679166671,
      "d": 1434.2106458333583,
      "v": 89
    },
    {
      "midi": 62,
      "hit": false,
      "t": 113373.69365833339,
      "d": 692.1053208333469,
      "v": 83
    },
    {
      "midi": 79,
      "hit": false,
      "t": 113636.85157500005,
      "d": 1294.7369499999913,
      "v": 127
    },
    {
      "midi": 66,
      "hit": false,
      "t": 113692.11473750006,
      "d": 352.63160833333677,
      "v": 88
    },
    {
      "midi": 69,
      "hit": false,
      "t": 113994.74634166673,
      "d": 428.947404166669,
      "v": 84
    },
    {
      "midi": 66,
      "hit": false,
      "t": 114307.90426250007,
      "d": 339.47371250001015,
      "v": 85
    },
    {
      "midi": 62,
      "hit": false,
      "t": 114626.32534166674,
      "d": 310.5263416666712,
      "v": 88
    },
    {
      "midi": 81,
      "hit": false,
      "t": 114881.58852083338,
      "d": 1278.9474749999936,
      "v": 127
    },
    {
      "midi": 45,
      "hit": false,
      "t": 114926.32536666674,
      "d": 2068.4212249999982,
      "v": 98
    },
    {
      "midi": 49,
      "hit": false,
      "t": 115257.90434166674,
      "d": 1818.4212041666615,
      "v": 77
    },
    {
      "midi": 52,
      "hit": false,
      "t": 115576.32542083341,
      "d": 1510.5264416666614,
      "v": 85
    },
    {
      "midi": 57,
      "hit": false,
      "t": 115884.22018333341,
      "d": 442.1052999999956,
      "v": 92
    },
    {
      "midi": 76,
      "hit": false,
      "t": 116152.64125833337,
      "d": 1297.3685291666625,
      "v": 127
    },
    {
      "midi": 61,
      "hit": false,
      "t": 116207.90442083341,
      "d": 276.31581250000454,
      "v": 85
    },
    {
      "midi": 64,
      "hit": false,
      "t": 116521.06234166675,
      "d": 307.89476250000007,
      "v": 83
    },
    {
      "midi": 61,
      "hit": false,
      "t": 116842.11500000008,
      "d": 323.6842374999833,
      "v": 78
    },
    {
      "midi": 57,
      "hit": false,
      "t": 117152.64134166673,
      "d": 305.2631833333289,
      "v": 80
    },
    {
      "midi": 74,
      "hit": false,
      "t": 117418.43083750004,
      "d": 678.9474249999912,
      "v": 127
    },
    {
      "midi": 47,
      "hit": false,
      "t": 117463.16768333339,
      "d": 2168.421233333327,
      "v": 88
    },
    {
      "midi": 50,
      "hit": false,
      "t": 117781.58876250005,
      "d": 1778.947516666667,
      "v": 77
    },
    {
      "midi": 73,
      "hit": false,
      "t": 118057.90457500004,
      "d": 647.3684749999957,
      "v": 122
    },
    {
      "midi": 54,
      "hit": false,
      "t": 118102.64142083337,
      "d": 1376.3159041666804,
      "v": 78
    },
    {
      "midi": 59,
      "hit": false,
      "t": 118423.6940791667,
      "d": 363.1579250000068,
      "v": 85
    },
    {
      "midi": 74,
      "hit": false,
      "t": 118663.16778333337,
      "d": 681.5790041666623,
      "v": 120
    },
    {
      "midi": 62,
      "hit": false,
      "t": 118742.11515833337,
      "d": 321.05265833334124,
      "v": 85
    },
    {
      "midi": 66,
      "hit": false,
      "t": 119044.74676250004,
      "d": 415.7895083333424,
      "v": 80
    },
    {
      "midi": 78,
      "hit": false,
      "t": 119321.06257500003,
      "d": 694.7369000000035,
      "v": 118
    },
    {
      "midi": 62,
      "hit": false,
      "t": 119365.79942083338,
      "d": 334.21055416666786,
      "v": 75
    },
    {
      "midi": 59,
      "hit": false,
      "t": 119700.00997500005,
      "d": 268.42107500000566,
      "v": 88
    },
    {
      "midi": 83,
      "hit": false,
      "t": 119994.7468416667,
      "d": 1286.842212500007,
      "v": 127
    },
    {
      "midi": 43,
      "hit": false,
      "t": 120007.90473750005,
      "d": 1005.2632416666602,
      "v": 94
    },
    {
      "midi": 47,
      "hit": false,
      "t": 120326.32581666671,
      "d": 778.9474333333492,
      "v": 72
    },
    {
      "midi": 50,
      "hit": false,
      "t": 120652.64163333338,
      "d": 450.00003750000906,
      "v": 94
    },
    {
      "midi": 55,
      "hit": false,
      "t": 120976.32587083337,
      "d": 378.94740000000456,
      "v": 86
    },
    {
      "midi": 73,
      "hit": false,
      "t": 121226.3258916667,
      "d": 2550.000212500003,
      "v": 127
    },
    {
      "midi": 45,
      "hit": false,
      "t": 121273.69431666672,
      "d": 1592.105395833336,
      "v": 98
    },
    {
      "midi": 49,
      "hit": false,
      "t": 121602.64171250004,
      "d": 1289.4737916666927,
      "v": 83
    },
    {
      "midi": 52,
      "hit": false,
      "t": 121907.90489583337,
      "d": 963.1579750000237,
      "v": 85
    },
    {
      "midi": 57,
      "hit": false,
      "t": 122234.22071250004,
      "d": 692.1053208333615,
      "v": 85
    },
    {
      "midi": 61,
      "hit": false,
      "t": 122578.95758333338,
      "d": 260.5263375000068,
      "v": 89
    },
    {
      "midi": 64,
      "hit": false,
      "t": 122868.43129166673,
      "d": 302.63160416667233,
      "v": 77
    },
    {
      "midi": 61,
      "hit": false,
      "t": 123207.90500416674,
      "d": 273.6842333333334,
      "v": 64
    },
    {
      "midi": 57,
      "hit": false,
      "t": 123500.01029166674,
      "d": 65.7894791666622,
      "v": 71
    },
    {
      "midi": 50,
      "hit": false,
      "t": 123836.85242500006,
      "d": 552.63162499998,
      "v": 92
    },
    {
      "midi": 81,
      "hit": false,
      "t": 123836.85242500006,
      "d": 1250.0001041666546,
      "v": 98
    },
    {
      "midi": 54,
      "hit": false,
      "t": 124152.64192500005,
      "d": 289.47370833333116,
      "v": 62
    },
    {
      "midi": 57,
      "hit": false,
      "t": 124468.43142500005,
      "d": 78.94737500000338,
      "v": 80
    },
    {
      "midi": 62,
      "hit": false,
      "t": 124784.22092500005,
      "d": 344.7368708333379,
      "v": 61
    },
    {
      "midi": 66,
      "hit": false,
      "t": 125100.01042500004,
      "d": 447.3684583333379,
      "v": 84
    },
    {
      "midi": 79,
      "hit": false,
      "t": 125100.01042500004,
      "d": 707.8947958333301,
      "v": 94
    },
    {
      "midi": 69,
      "hit": false,
      "t": 125415.79992500004,
      "d": 426.31582499999786,
      "v": 73
    },
    {
      "midi": 66,
      "hit": false,
      "t": 125731.58942500004,
      "d": 284.2105500000034,
      "v": 57
    },
    {
      "midi": 78,
      "hit": false,
      "t": 125731.58942500004,
      "d": 681.5790041666623,
      "v": 83
    },
    {
      "midi": 62,
      "hit": false,
      "t": 126047.37892500004,
      "d": 118.42106249999779,
      "v": 71
    },
    {
      "midi": 45,
      "hit": false,
      "t": 126363.16842500004,
      "d": 489.47372500000347,
      "v": 86
    },
    {
      "midi": 76,
      "hit": false,
      "t": 126363.16842500004,
      "d": 1355.2632708333258,
      "v": 84
    },
    {
      "midi": 49,
      "hit": false,
      "t": 126678.95792500004,
      "d": 273.6842333333334,
      "v": 60
    },
    {
      "midi": 52,
      "hit": false,
      "t": 126994.74742500004,
      "d": 71.0526375000045,
      "v": 72
    },
    {
      "midi": 57,
      "hit": false,
      "t": 127310.53692500004,
      "d": 302.63160416667233,
      "v": 73
    },
    {
      "midi": 61,
      "hit": false,
      "t": 127626.32642500004,
      "d": 365.7895041666634,
      "v": 80
    },
    {
      "midi": 78,
      "hit": false,
      "t": 127626.32642500004,
      "d": 589.4737333333323,
      "v": 86
    },
    {
      "midi": 64,
      "hit": false,
      "t": 127942.11592500003,
      "d": 350.0000291666656,
      "v": 85
    },
    {
      "midi": 61,
      "hit": false,
      "t": 128257.90542500003,
      "d": 326.315816666669,
      "v": 65
    },
    {
      "midi": 79,
      "hit": false,
      "t": 128257.90542500003,
      "d": 694.7369000000181,
      "v": 81
    },
    {
      "midi": 57,
      "hit": false,
      "t": 128573.69492500003,
      "d": 107.89474583334231,
      "v": 62
    },
    {
      "midi": 54,
      "hit": false,
      "t": 128889.48442500005,
      "d": 589.4737333333469,
      "v": 57
    },
    {
      "midi": 81,
      "hit": false,
      "t": 128889.48442500005,
      "d": 1363.1580083333538,
      "v": 76
    },
    {
      "midi": 57,
      "hit": false,
      "t": 129205.27392500006,
      "d": 305.2631833333289,
      "v": 58
    },
    {
      "midi": 61,
      "hit": false,
      "t": 129521.06342500006,
      "d": 113.15790416667005,
      "v": 80
    },
    {
      "midi": 66,
      "hit": false,
      "t": 129836.85292500006,
      "d": 378.94740000000456,
      "v": 56
    },
    {
      "midi": 69,
      "hit": false,
      "t": 130152.64242500006,
      "d": 394.7368750000169,
      "v": 81
    },
    {
      "midi": 78,
      "hit": false,
      "t": 130152.64242500006,
      "d": 663.157950000008,
      "v": 78
    },
    {
      "midi": 74,
      "hit": false,
      "t": 130784.22142500007,
      "d": 660.5263708333514,
      "v": 86
    },
    {
      "midi": 66,
      "hit": false,
      "t": 131100.01092500007,
      "d": 89.4736916666734,
      "v": 62
    },
    {
      "midi": 43,
      "hit": false,
      "t": 131415.80042500008,
      "d": 407.8947708333435,
      "v": 83
    },
    {
      "midi": 71,
      "hit": false,
      "t": 131415.80042500008,
      "d": 2094.7370166666515,
      "v": 88
    },
    {
      "midi": 47,
      "hit": false,
      "t": 131731.5899250001,
      "d": 292.10528749998775,
      "v": 59
    },
    {
      "midi": 50,
      "hit": false,
      "t": 132047.37942500008,
      "d": 63.15789999999106,
      "v": 77
    },
    {
      "midi": 59,
      "hit": false,
      "t": 132363.16892500006,
      "d": 1071.052720833337,
      "v": 70
    },
    {
      "midi": 62,
      "hit": false,
      "t": 132678.95842500008,
      "d": 331.57897500001127,
      "v": 84
    },
    {
      "midi": 67,
      "hit": false,
      "t": 132994.7479250001,
      "d": 563.1579416666355,
      "v": 86
    },
    {
      "midi": 62,
      "hit": false,
      "t": 133310.53742500008,
      "d": 292.10528749998775,
      "v": 86
    },
    {
      "midi": 59,
      "hit": false,
      "t": 133626.32692500006,
      "d": 86.8421124999877,
      "v": 69
    },
    {
      "midi": 50,
      "hit": false,
      "t": 133942.11642500004,
      "d": 436.84214166668244,
      "v": 89
    },
    {
      "midi": 78,
      "hit": false,
      "t": 133942.11642500004,
      "d": 1315.7895833333314,
      "v": 78
    },
    {
      "midi": 57,
      "hit": false,
      "t": 134257.90592500006,
      "d": 284.21054999998887,
      "v": 60
    },
    {
      "midi": 62,
      "hit": false,
      "t": 134573.69542500004,
      "d": 86.8421124999877,
      "v": 75
    },
    {
      "midi": 66,
      "hit": false,
      "t": 134889.48492500003,
      "d": 326.315816666669,
      "v": 71
    },
    {
      "midi": 69,
      "hit": false,
      "t": 135205.27442500004,
      "d": 373.6842416666914,
      "v": 90
    },
    {
      "midi": 79,
      "hit": false,
      "t": 135205.27442500004,
      "d": 678.9474250000203,
      "v": 86
    },
    {
      "midi": 66,
      "hit": false,
      "t": 135521.06392500005,
      "d": 326.315816666669,
      "v": 66
    },
    {
      "midi": 62,
      "hit": false,
      "t": 135836.85342500007,
      "d": 200.00001666665776,
      "v": 63
    },
    {
      "midi": 78,
      "hit": false,
      "t": 135836.85342500007,
      "d": 718.4211124999565,
      "v": 82
    },
    {
      "midi": 66,
      "hit": false,
      "t": 136152.64292500005,
      "d": 63.15789999999106,
      "v": 70
    },
    {
      "midi": 47,
      "hit": false,
      "t": 136468.43242500004,
      "d": 468.42109166664886,
      "v": 66
    },
    {
      "midi": 76,
      "hit": false,
      "t": 136468.43242500004,
      "d": 1257.8948416666535,
      "v": 78
    },
    {
      "midi": 50,
      "hit": false,
      "t": 136784.22192500002,
      "d": 273.6842333333334,
      "v": 64
    },
    {
      "midi": 54,
      "hit": false,
      "t": 137100.01142500003,
      "d": 102.63158749998547,
      "v": 76
    },
    {
      "midi": 59,
      "hit": false,
      "t": 137415.80092500002,
      "d": 205.26317500000005,
      "v": 45
    },
    {
      "midi": 62,
      "hit": false,
      "t": 137731.59042500003,
      "d": 378.94740000000456,
      "v": 67
    },
    {
      "midi": 74,
      "hit": false,
      "t": 137731.59042500003,
      "d": 1323.6843208333303,
      "v": 85
    },
    {
      "midi": 66,
      "hit": false,
      "t": 138047.37992500004,
      "d": 344.73687083332334,
      "v": 77
    },
    {
      "midi": 62,
      "hit": false,
      "t": 138363.16942500003,
      "d": 242.10528333333787,
      "v": 65
    },
    {
      "midi": 59,
      "hit": false,
      "t": 138678.95892500004,
      "d": 78.94737499998882,
      "v": 50
    },
    {
      "midi": 43,
      "hit": false,
      "t": 138994.74842500003,
      "d": 550.0000458333525,
      "v": 88
    },
    {
      "midi": 79,
      "hit": false,
      "t": 138994.74842500003,
      "d": 1263.1579999999958,
      "v": 85
    },
    {
      "midi": 50,
      "hit": false,
      "t": 139310.53792500004,
      "d": 400.0000333333446,
      "v": 65
    },
    {
      "midi": 55,
      "hit": false,
      "t": 139626.32742500005,
      "d": 355.2631874999788,
      "v": 96
    },
    {
      "midi": 50,
      "hit": false,
      "t": 139942.11692500004,
      "d": 126.31579999998212,
      "v": 70
    },
    {
      "midi": 78,
      "hit": false,
      "t": 140257.90642500002,
      "d": 718.4211124999565,
      "v": 78
    },
    {
      "midi": 43,
      "hit": false,
      "t": 140257.90642500002,
      "d": 789.4737499999464,
      "v": 81
    },
    {
      "midi": 50,
      "hit": false,
      "t": 140573.695925,
      "d": 347.36844999997993,
      "v": 62
    },
    {
      "midi": 40,
      "hit": false,
      "t": 140889.485425,
      "d": 281.5789708333032,
      "v": 83
    },
    {
      "midi": 74,
      "hit": false,
      "t": 140889.485425,
      "d": 673.6842666666489,
      "v": 85
    },
    {
      "midi": 47,
      "hit": false,
      "t": 141205.27492499995,
      "d": 60.526320833334466,
      "v": 60
    },
    {
      "midi": 45,
      "hit": false,
      "t": 141521.06442499996,
      "d": 481.57898750001914,
      "v": 71
    },
    {
      "midi": 76,
      "hit": false,
      "t": 141521.06442499996,
      "d": 631.5789999999979,
      "v": 75
    },
    {
      "midi": 52,
      "hit": false,
      "t": 141836.85392499997,
      "d": 289.47370833333116,
      "v": 64
    },
    {
      "midi": 57,
      "hit": false,
      "t": 142152.64342499996,
      "d": 100.00000833332888,
      "v": 82
    },
    {
      "midi": 61,
      "hit": false,
      "t": 142468.43292499994,
      "d": 1047.3685083333403,
      "v": 64
    },
    {
      "midi": 64,
      "hit": false,
      "t": 142784.22242499996,
      "d": 323.6842375000124,
      "v": 90
    },
    {
      "midi": 69,
      "hit": false,
      "t": 143100.01192499997,
      "d": 1039.4737708332832,
      "v": 86
    },
    {
      "midi": 64,
      "hit": false,
      "t": 143415.80142499995,
      "d": 342.10529166663764,
      "v": 78
    },
    {
      "midi": 61,
      "hit": false,
      "t": 143731.59092499994,
      "d": 107.89474583332776,
      "v": 67
    },
    {
      "midi": 49,
      "hit": false,
      "t": 144047.38042499992,
      "d": 1944.7370041667018,
      "v": 86
    },
    {
      "midi": 52,
      "hit": false,
      "t": 144363.1699249999,
      "d": 1634.2106625000597,
      "v": 67
    },
    {
      "midi": 57,
      "hit": false,
      "t": 144678.95942499992,
      "d": 634.2105791666836,
      "v": 76
    },
    {
      "midi": 61,
      "hit": false,
      "t": 144994.74892499993,
      "d": 381.57897916666116,
      "v": 81
    },
    {
      "midi": 64,
      "hit": false,
      "t": 145310.53842499995,
      "d": 323.6842374999833,
      "v": 78
    },
    {
      "midi": 69,
      "hit": false,
      "t": 145626.32792499993,
      "d": 255.26317916667904,
      "v": 89
    },
    {
      "midi": 64,
      "hit": false,
      "t": 145942.11742499995,
      "d": 265.7894958333636,
      "v": 64
    },
    {
      "midi": 61,
      "hit": false,
      "t": 146257.906925,
      "d": 71.05263749998994,
      "v": 56
    },
    {
      "midi": 50,
      "hit": false,
      "t": 146573.69642499997,
      "d": 594.7368916666601,
      "v": 89
    },
    {
      "midi": 81,
      "hit": false,
      "t": 146573.69642499997,
      "d": 1239.4737874999992,
      "v": 90
    },
    {
      "midi": 54,
      "hit": false,
      "t": 146889.48592499996,
      "d": 344.73687083335244,
      "v": 66
    },
    {
      "midi": 57,
      "hit": false,
      "t": 147205.27542499997,
      "d": 97.36842916667229,
      "v": 74
    },
    {
      "midi": 62,
      "hit": false,
      "t": 147521.06492499998,
      "d": 378.94739999997546,
      "v": 60
    },
    {
      "midi": 66,
      "hit": false,
      "t": 147836.85442499997,
      "d": 413.1579291666567,
      "v": 73
    },
    {
      "midi": 79,
      "hit": false,
      "t": 147836.85442499997,
      "d": 721.0526916666713,
      "v": 85
    },
    {
      "midi": 69,
      "hit": false,
      "t": 148152.64392499995,
      "d": 547.3684666666959,
      "v": 74
    },
    {
      "midi": 66,
      "hit": false,
      "t": 148468.43342499997,
      "d": 326.315816666669,
      "v": 58
    },
    {
      "midi": 78,
      "hit": false,
      "t": 148468.43342499997,
      "d": 681.5790041666769,
      "v": 78
    },
    {
      "midi": 62,
      "hit": false,
      "t": 148784.22292499998,
      "d": 65.78947916664765,
      "v": 42
    },
    {
      "midi": 45,
      "hit": false,
      "t": 149100.01242499996,
      "d": 465.7895125000214,
      "v": 86
    },
    {
      "midi": 76,
      "hit": false,
      "t": 149100.01242499996,
      "d": 1300.0001083333336,
      "v": 78
    },
    {
      "midi": 49,
      "hit": false,
      "t": 149415.80192499998,
      "d": 294.73686666667345,
      "v": 52
    },
    {
      "midi": 52,
      "hit": false,
      "t": 149731.591425,
      "d": 78.94737499998882,
      "v": 72
    },
    {
      "midi": 57,
      "hit": false,
      "t": 150047.38092499998,
      "d": 326.315816666669,
      "v": 71
    },
    {
      "midi": 61,
      "hit": false,
      "t": 150363.170425,
      "d": 378.94739999997546,
      "v": 76
    },
    {
      "midi": 78,
      "hit": false,
      "t": 150363.170425,
      "d": 607.8947874999722,
      "v": 83
    },
    {
      "midi": 64,
      "hit": false,
      "t": 150678.95992499997,
      "d": 392.10529583331663,
      "v": 74
    },
    {
      "midi": 61,
      "hit": false,
      "t": 150994.74942499996,
      "d": 339.47371249998105,
      "v": 64
    },
    {
      "midi": 79,
      "hit": false,
      "t": 150994.74942499996,
      "d": 689.4737416666467,
      "v": 72
    },
    {
      "midi": 57,
      "hit": false,
      "t": 151310.53892499994,
      "d": 115.78948333332664,
      "v": 62
    },
    {
      "midi": 54,
      "hit": false,
      "t": 151626.32842499993,
      "d": 607.8947875000013,
      "v": 76
    },
    {
      "midi": 81,
      "hit": false,
      "t": 151626.32842499993,
      "d": 1307.8948458333325,
      "v": 85
    },
    {
      "midi": 57,
      "hit": false,
      "t": 151942.11792499994,
      "d": 302.6316041666432,
      "v": 58
    },
    {
      "midi": 61,
      "hit": false,
      "t": 152257.90742499992,
      "d": 78.94737499998882,
      "v": 71
    },
    {
      "midi": 66,
      "hit": false,
      "t": 152573.6969249999,
      "d": 402.6316125000303,
      "v": 59
    },
    {
      "midi": 69,
      "hit": false,
      "t": 152889.48642499992,
      "d": 405.2631916666869,
      "v": 72
    },
    {
      "midi": 78,
      "hit": false,
      "t": 152889.48642499992,
      "d": 689.4737416667049,
      "v": 74
    },
    {
      "midi": 74,
      "hit": false,
      "t": 153521.06542499995,
      "d": 686.8421625000192,
      "v": 84
    },
    {
      "midi": 66,
      "hit": false,
      "t": 153836.85492499996,
      "d": 81.57895416667452,
      "v": 61
    },
    {
      "midi": 43,
      "hit": false,
      "t": 154152.64442499998,
      "d": 410.5263500000001,
      "v": 60
    },
    {
      "midi": 71,
      "hit": false,
      "t": 154152.64442499998,
      "d": 1894.7370000000228,
      "v": 81
    },
    {
      "midi": 47,
      "hit": false,
      "t": 154468.43392499996,
      "d": 310.5263416666712,
      "v": 47
    },
    {
      "midi": 50,
      "hit": false,
      "t": 154784.22342499997,
      "d": 65.78947916667676,
      "v": 67
    },
    {
      "midi": 55,
      "hit": false,
      "t": 155100.012925,
      "d": 392.10529583334574,
      "v": 65
    },
    {
      "midi": 62,
      "hit": false,
      "t": 155731.591925,
      "d": 323.6842375000124,
      "v": 77
    },
    {
      "midi": 59,
      "hit": false,
      "t": 156047.381425,
      "d": 300.00002499998664,
      "v": 86
    },
    {
      "midi": 55,
      "hit": false,
      "t": 156363.17092499998,
      "d": 65.78947916667676,
      "v": 61
    },
    {
      "midi": 44,
      "hit": false,
      "t": 156678.960425,
      "d": 505.2632000000158,
      "v": 74
    },
    {
      "midi": 74,
      "hit": false,
      "t": 156678.960425,
      "d": 1668.421191666741,
      "v": 78
    },
    {
      "midi": 47,
      "hit": false,
      "t": 156994.749925,
      "d": 321.0526583333558,
      "v": 66
    },
    {
      "midi": 52,
      "hit": false,
      "t": 157310.53942500002,
      "d": 94.73685000001569,
      "v": 84
    },
    {
      "midi": 56,
      "hit": false,
      "t": 157626.32892500004,
      "d": 481.57898750001914,
      "v": 66
    },
    {
      "midi": 59,
      "hit": false,
      "t": 157942.11842500005,
      "d": 392.10529583334574,
      "v": 85
    },
    {
      "midi": 64,
      "hit": false,
      "t": 158257.90792500007,
      "d": 334.21055416666786,
      "v": 86
    },
    {
      "midi": 74,
      "hit": false,
      "t": 158573.69742500008,
      "d": 126.31579999998212,
      "v": 89
    },
    {
      "midi": 59,
      "hit": false,
      "t": 158573.69742500008,
      "d": 184.21054166666,
      "v": 61
    },
    {
      "midi": 56,
      "hit": false,
      "t": 158889.48692500006,
      "d": 110.52632500001346,
      "v": 71
    },
    {
      "midi": 45,
      "hit": false,
      "t": 159205.27642500008,
      "d": 468.42109166664886,
      "v": 85
    },
    {
      "midi": 78,
      "hit": false,
      "t": 159205.27642500008,
      "d": 1307.8948458333325,
      "v": 88
    },
    {
      "midi": 49,
      "hit": false,
      "t": 159521.06592500006,
      "d": 294.73686666667345,
      "v": 62
    },
    {
      "midi": 52,
      "hit": false,
      "t": 159836.85542500007,
      "d": 128.94737916666782,
      "v": 77
    },
    {
      "midi": 57,
      "hit": false,
      "t": 160152.6449250001,
      "d": 313.1579208333278,
      "v": 63
    },
    {
      "midi": 61,
      "hit": false,
      "t": 160468.43442500007,
      "d": 363.1579250000068,
      "v": 86
    },
    {
      "midi": 76,
      "hit": false,
      "t": 160468.43442500007,
      "d": 865.7895458333369,
      "v": 86
    },
    {
      "midi": 64,
      "hit": false,
      "t": 160784.2239250001,
      "d": 331.57897499998217,
      "v": 65
    },
    {
      "midi": 61,
      "hit": false,
      "t": 161100.01342500007,
      "d": 273.6842333333334,
      "v": 75
    },
    {
      "midi": 57,
      "hit": false,
      "t": 161415.80292500008,
      "d": 102.63158749998547,
      "v": 76
    },
    {
      "midi": 50,
      "hit": false,
      "t": 161731.59242500007,
      "d": 386.84213750003255,
      "v": 77
    },
    {
      "midi": 74,
      "hit": false,
      "t": 161731.59242500007,
      "d": 465.7895125000214,
      "v": 80
    },
    {
      "midi": 57,
      "hit": false,
      "t": 162047.38192500008,
      "d": 1992.105429166695,
      "v": 74
    },
    {
      "midi": 62,
      "hit": false,
      "t": 162363.1714250001,
      "d": 484.21056666667573,
      "v": 92
    },
    {
      "midi": 66,
      "hit": false,
      "t": 162678.9609250001,
      "d": 373.6842416666623,
      "v": 86
    },
    {
      "midi": 69,
      "hit": false,
      "t": 162994.7504250001,
      "d": 402.6316125000012,
      "v": 84
    },
    {
      "midi": 74,
      "hit": false,
      "t": 163310.5399250001,
      "d": 315.7894999999844,
      "v": 89
    },
    {
      "midi": 69,
      "hit": false,
      "t": 163626.3294250001,
      "d": 384.21055833334685,
      "v": 75
    },
    {
      "midi": 66,
      "hit": false,
      "t": 163942.1189250001,
      "d": 192.10527916665887,
      "v": 66
    },
    {
      "midi": 62,
      "hit": false,
      "t": 164257.9084250001,
      "d": 526.3158333333267,
      "v": 57
    }
  ]
}