{
  "jsonPath": "Unknown/Unknown/The Jazz Masters/bridge-over-troubled-water.json",
  "path": "Unknown\\Unknown\\The Jazz Masters\\Bridge Over Troubled Water.mid",
  "name": "Bridge Over Troubled Water",
  "difficulty": "Advanced",
  "bpm": 40,
  "notes": [
    {
      "midi": 39,
      "hit": false,
      "t": 0,
      "d": 275,
      "v": 104
    },
    {
      "midi": 79,
      "hit": false,
      "t": 0,
      "d": 875,
      "v": 104
    },
    {
      "midi": 75,
      "hit": false,
      "t": 25,
      "d": 850,
      "v": 104
    },
    {
      "midi": 70,
      "hit": false,
      "t": 50,
      "d": 825,
      "v": 104
    },
    {
      "midi": 67,
      "hit": false,
      "t": 75,
      "d": 800,
      "v": 104
    },
    {
      "midi": 46,
      "hit": false,
      "t": 300,
      "d": 275,
      "v": 104
    },
    {
      "midi": 51,
      "hit": false,
      "t": 600,
      "d": 275,
      "v": 104
    },
    {
      "midi": 39,
      "hit": false,
      "t": 900,
      "d": 275,
      "v": 104
    },
    {
      "midi": 67,
      "hit": false,
      "t": 900,
      "d": 275,
      "v": 104
    },
    {
      "midi": 70,
      "hit": false,
      "t": 900,
      "d": 275,
      "v": 104
    },
    {
      "midi": 75,
      "hit": false,
      "t": 900,
      "d": 275,
      "v": 104
    },
    {
      "midi": 79,
      "hit": false,
      "t": 900,
      "d": 275,
      "v": 104
    },
    {
      "midi": 46,
      "hit": false,
      "t": 1200,
      "d": 275,
      "v": 104
    },
    {
      "midi": 79,
      "hit": false,
      "t": 1200,
      "d": 575,
      "v": 104
    },
    {
      "midi": 74,
      "hit": false,
      "t": 1225,
      "d": 550,
      "v": 104
    },
    {
      "midi": 70,
      "hit": false,
      "t": 1250,
      "d": 525,
      "v": 104
    },
    {
      "midi": 67,
      "hit": false,
      "t": 1275,
      "d": 500,
      "v": 104
    },
    {
      "midi": 50,
      "hit": false,
      "t": 1500,
      "d": 275,
      "v": 104
    },
    {
      "midi": 53,
      "hit": false,
      "t": 1800,
      "d": 275,
      "v": 104
    },
    {
      "midi": 46,
      "hit": false,
      "t": 1800,
      "d": 575,
      "v": 104
    },
    {
      "midi": 65,
      "hit": false,
      "t": 1800,
      "d": 575,
      "v": 104
    },
    {
      "midi": 70,
      "hit": false,
      "t": 1800,
      "d": 575,
      "v": 104
    },
    {
      "midi": 74,
      "hit": false,
      "t": 1800,
      "d": 575,
      "v": 104
    },
    {
      "midi": 77,
      "hit": false,
      "t": 1800,
      "d": 575,
      "v": 104
    },
    {
      "midi": 58,
      "hit": false,
      "t": 2100,
      "d": 275,
      "v": 104
    },
    {
      "midi": 44,
      "hit": false,
      "t": 2400,
      "d": 275,
      "v": 104
    },
    {
      "midi": 63,
      "hit": false,
      "t": 2400,
      "d": 1175,
      "v": 104
    },
    {
      "midi": 68,
      "hit": false,
      "t": 2400,
      "d": 1175,
      "v": 104
    },
    {
      "midi": 72,
      "hit": false,
      "t": 2400,
      "d": 1175,
      "v": 104
    },
    {
      "midi": 75,
      "hit": false,
      "t": 2400,
      "d": 1175,
      "v": 104
    },
    {
      "midi": 48,
      "hit": false,
      "t": 2700,
      "d": 275,
      "v": 104
    },
    {
      "midi": 51,
      "hit": false,
      "t": 3000,
      "d": 275,
      "v": 104
    },
    {
      "midi": 48,
      "hit": false,
      "t": 3300,
      "d": 275,
      "v": 104
    },
    {
      "midi": 44,
      "hit": false,
      "t": 3600,
      "d": 275,
      "v": 104
    },
    {
      "midi": 62,
      "hit": false,
      "t": 3600,
      "d": 575,
      "v": 104
    },
    {
      "midi": 65,
      "hit": false,
      "t": 3600,
      "d": 575,
      "v": 104
    },
    {
      "midi": 68,
      "hit": false,
      "t": 3600,
      "d": 575,
      "v": 104
    },
    {
      "midi": 74,
      "hit": false,
      "t": 3600,
      "d": 575,
      "v": 104
    },
    {
      "midi": 53,
      "hit": false,
      "t": 3900,
      "d": 275,
      "v": 104
    },
    {
      "midi": 45,
      "hit": false,
      "t": 4200,
      "d": 275,
      "v": 104
    },
    {
      "midi": 60,
      "hit": false,
      "t": 4200,
      "d": 575,
      "v": 104
    },
    {
      "midi": 63,
      "hit": false,
      "t": 4200,
      "d": 575,
      "v": 104
    },
    {
      "midi": 66,
      "hit": false,
      "t": 4200,
      "d": 575,
      "v": 104
    },
    {
      "midi": 72,
      "hit": false,
      "t": 4200,
      "d": 575,
      "v": 104
    },
    {
      "midi": 54,
      "hit": false,
      "t": 4500,
      "d": 275,
      "v": 104
    },
    {
      "midi": 46,
      "hit": false,
      "t": 4800,
      "d": 275,
      "v": 104
    },
    {
      "midi": 60,
      "hit": false,
      "t": 4800,
      "d": 575,
      "v": 104
    },
    {
      "midi": 63,
      "hit": false,
      "t": 4800,
      "d": 575,
      "v": 104
    },
    {
      "midi": 67,
      "hit": false,
      "t": 4800,
      "d": 575,
      "v": 104
    },
    {
      "midi": 72,
      "hit": false,
      "t": 4800,
      "d": 575,
      "v": 104
    },
    {
      "midi": 51,
      "hit": false,
      "t": 5100,
      "d": 275,
      "v": 104
    },
    {
      "midi": 55,
      "hit": false,
      "t": 5400,
      "d": 275,
      "v": 104
    },
    {
      "midi": 58,
      "hit": false,
      "t": 5400,
      "d": 575,
      "v": 104
    },
    {
      "midi": 63,
      "hit": false,
      "t": 5400,
      "d": 575,
      "v": 104
    },
    {
      "midi": 67,
      "hit": false,
      "t": 5400,
      "d": 575,
      "v": 104
    },
    {
      "midi": 70,
      "hit": false,
      "t": 5400,
      "d": 575,
      "v": 104
    },
    {
      "midi": 51,
      "hit": false,
      "t": 5700,
      "d": 275,
      "v": 104
    },
    {
      "midi": 67,
      "hit": false,
      "t": 6000,
      "d": 275,
      "v": 104
    },
    {
      "midi": 48,
      "hit": false,
      "t": 6000,
      "d": 575,
      "v": 104
    },
    {
      "midi": 58,
      "hit": false,
      "t": 6000,
      "d": 575,
      "v": 104
    },
    {
      "midi": 65,
      "hit": false,
      "t": 6000,
      "d": 575,
      "v": 104
    },
    {
      "midi": 70,
      "hit": false,
      "t": 6300,
      "d": 875,
      "v": 104
    },
    {
      "midi": 48,
      "hit": false,
      "t": 6600,
      "d": 575,
      "v": 104
    },
    {
      "midi": 64,
      "hit": false,
      "t": 6600,
      "d": 575,
      "v": 104
    },
    {
      "midi": 60,
      "hit": false,
      "t": 7200,
      "d": 575,
      "v": 104
    },
    {
      "midi": 44,
      "hit": false,
      "t": 7200,
      "d": 1175,
      "v": 104
    },
    {
      "midi": 51,
      "hit": false,
      "t": 7200,
      "d": 1175,
      "v": 104
    },
    {
      "midi": 60,
      "hit": false,
      "t": 7800,
      "d": 275,
      "v": 104
    },
    {
      "midi": 63,
      "hit": false,
      "t": 8100,
      "d": 275,
      "v": 104
    },
    {
      "midi": 59,
      "hit": false,
      "t": 8400,
      "d": 575,
      "v": 104
    },
    {
      "midi": 65,
      "hit": false,
      "t": 8400,
      "d": 875,
      "v": 104
    },
    {
      "midi": 44,
      "hit": false,
      "t": 8400,
      "d": 1175,
      "v": 104
    },
    {
      "midi": 51,
      "hit": false,
      "t": 8400,
      "d": 1175,
      "v": 104
    },
    {
      "midi": 56,
      "hit": false,
      "t": 9000,
      "d": 575,
      "v": 104
    },
    {
      "midi": 60,
      "hit": false,
      "t": 9000,
      "d": 575,
      "v": 104
    },
    {
      "midi": 65,
      "hit": false,
      "t": 9300,
      "d": 125,
      "v": 104
    },
    {
      "midi": 67,
      "hit": false,
      "t": 9450,
      "d": 125,
      "v": 104
    },
    {
      "midi": 39,
      "hit": false,
      "t": 9600,
      "d": 875,
      "v": 104
    },
    {
      "midi": 55,
      "hit": false,
      "t": 9600,
      "d": 875,
      "v": 104
    },
    {
      "midi": 58,
      "hit": false,
      "t": 9600,
      "d": 875,
      "v": 104
    },
    {
      "midi": 63,
      "hit": false,
      "t": 9600,
      "d": 875,
      "v": 104
    },
    {
      "midi": 39,
      "hit": false,
      "t": 10500,
      "d": 575,
      "v": 104
    },
    {
      "midi": 55,
      "hit": false,
      "t": 10500,
      "d": 575,
      "v": 104
    },
    {
      "midi": 58,
      "hit": false,
      "t": 10500,
      "d": 575,
      "v": 104
    },
    {
      "midi": 63,
      "hit": false,
      "t": 10500,
      "d": 575,
      "v": 104
    },
    {
      "midi": 55,
      "hit": false,
      "t": 11100,
      "d": 275,
      "v": 104
    },
    {
      "midi": 39,
      "hit": false,
      "t": 11100,
      "d": 875,
      "v": 104
    },
    {
      "midi": 61,
      "hit": false,
      "t": 11100,
      "d": 875,
      "v": 104
    },
    {
      "midi": 63,
      "hit": false,
      "t": 11100,
      "d": 875,
      "v": 104
    },
    {
      "midi": 53,
      "hit": false,
      "t": 11400,
      "d": 275,
      "v": 104
    },
    {
      "midi": 51,
      "hit": false,
      "t": 11700,
      "d": 275,
      "v": 104
    },
    {
      "midi": 56,
      "hit": false,
      "t": 12000,
      "d": 425,
      "v": 104
    },
    {
      "midi": 39,
      "hit": false,
      "t": 12000,
      "d": 2375,
      "v": 104
    },
    {
      "midi": 60,
      "hit": false,
      "t": 12000,
      "d": 2375,
      "v": 104
    },
    {
      "midi": 63,
      "hit": false,
      "t": 12000,
      "d": 2375,
      "v": 104
    },
    {
      "midi": 56,
      "hit": false,
      "t": 12450,
      "d": 125,
      "v": 104
    },
    {
      "midi": 56,
      "hit": false,
      "t": 12600,
      "d": 1775,
      "v": 104
    },
    {
      "midi": 68,
      "hit": false,
      "t": 13200,
      "d": 575,
      "v": 104
    },
    {
      "midi": 72,
      "hit": false,
      "t": 13200,
      "d": 575,
      "v": 104
    },
    {
      "midi": 75,
      "hit": false,
      "t": 13200,
      "d": 575,
      "v": 104
    },
    {
      "midi": 68,
      "hit": false,
      "t": 13800,
      "d": 275,
      "v": 104
    },
    {
      "midi": 68,
      "hit": false,
      "t": 14100,
      "d": 275,
      "v": 104
    },
    {
      "midi": 63,
      "hit": false,
      "t": 14400,
      "d": 575,
      "v": 104
    },
    {
      "midi": 67,
      "hit": false,
      "t": 14400,
      "d": 575,
      "v": 104
    },
    {
      "midi": 39,
      "hit": false,
      "t": 14400,
      "d": 875,
      "v": 104
    },
    {
      "midi": 58,
      "hit": false,
      "t": 14400,
      "d": 875,
      "v": 104
    },
    {
      "midi": 65,
      "hit": false,
      "t": 15000,
      "d": 275,
      "v": 104
    },
    {
      "midi": 63,
      "hit": false,
      "t": 15300,
      "d": 75,
      "v": 104
    },
    {
      "midi": 58,
      "hit": false,
      "t": 15300,
      "d": 275,
      "v": 104
    },
    {
      "midi": 39,
      "hit": false,
      "t": 15300,
      "d": 575,
      "v": 104
    },
    {
      "midi": 58,
      "hit": false,
      "t": 15600,
      "d": 575,
      "v": 104
    },
    {
      "midi": 39,
      "hit": false,
      "t": 15900,
      "d": 875,
      "v": 104
    },
    {
      "midi": 55,
      "hit": false,
      "t": 16200,
      "d": 275,
      "v": 104
    },
    {
      "midi": 58,
      "hit": false,
      "t": 16200,
      "d": 275,
      "v": 104
    },
    {
      "midi": 44,
      "hit": false,
      "t": 16500,
      "d": 2075,
      "v": 104
    },
    {
      "midi": 60,
      "hit": false,
      "t": 16500,
      "d": 2075,
      "v": 104
    },
    {
      "midi": 39,
      "hit": false,
      "t": 16800,
      "d": 875,
      "v": 104
    },
    {
      "midi": 39,
      "hit": false,
      "t": 17700,
      "d": 575,
      "v": 104
    },
    {
      "midi": 39,
      "hit": false,
      "t": 18300,
      "d": 875,
      "v": 104
    },
    {
      "midi": 68,
      "hit": false,
      "t": 18600,
      "d": 275,
      "v": 104
    },
    {
      "midi": 60,
      "hit": false,
      "t": 18600,
      "d": 575,
      "v": 104
    },
    {
      "midi": 63,
      "hit": false,
      "t": 18600,
      "d": 575,
      "v": 104
    },
    {
      "midi": 70,
      "hit": false,
      "t": 18900,
      "d": 875,
      "v": 104
    },
    {
      "midi": 39,
      "hit": false,
      "t": 19200,
      "d": 875,
      "v": 104
    },
    {
      "midi": 58,
      "hit": false,
      "t": 19200,
      "d": 875,
      "v": 104
    },
    {
      "midi": 63,
      "hit": false,
      "t": 19200,
      "d": 875,
      "v": 104
    },
    {
      "midi": 67,
      "hit": false,
      "t": 19800,
      "d": 1775,
      "v": 104
    },
    {
      "midi": 39,
      "hit": false,
      "t": 20100,
      "d": 575,
      "v": 104
    },
    {
      "midi": 58,
      "hit": false,
      "t": 20100,
      "d": 875,
      "v": 104
    },
    {
      "midi": 63,
      "hit": false,
      "t": 20100,
      "d": 875,
      "v": 104
    },
    {
      "midi": 39,
      "hit": false,
      "t": 20700,
      "d": 875,
      "v": 104
    },
    {
      "midi": 58,
      "hit": false,
      "t": 21000,
      "d": 275,
      "v": 104
    },
    {
      "midi": 65,
      "hit": false,
      "t": 21000,
      "d": 275,
      "v": 104
    },
    {
      "midi": 63,
      "hit": false,
      "t": 21300,
      "d": 275,
      "v": 104
    },
    {
      "midi": 60,
      "hit": false,
      "t": 21600,
      "d": 575,
      "v": 104
    },
    {
      "midi": 63,
      "hit": false,
      "t": 21600,
      "d": 575,
      "v": 104
    },
    {
      "midi": 44,
      "hit": false,
      "t": 21600,
      "d": 875,
      "v": 104
    },
    {
      "midi": 63,
      "hit": false,
      "t": 22200,
      "d": 575,
      "v": 104
    },
    {
      "midi": 67,
      "hit": false,
      "t": 22200,
      "d": 575,
      "v": 104
    },
    {
      "midi": 72,
      "hit": false,
      "t": 22200,
      "d": 575,
      "v": 104
    },
    {
      "midi": 44,
      "hit": false,
      "t": 22500,
      "d": 275,
      "v": 104
    },
    {
      "midi": 65,
      "hit": false,
      "t": 22800,
      "d": 575,
      "v": 104
    },
    {
      "midi": 68,
      "hit": false,
      "t": 22800,
      "d": 575,
      "v": 104
    },
    {
      "midi": 73,
      "hit": false,
      "t": 22800,
      "d": 575,
      "v": 104
    },
    {
      "midi": 44,
      "hit": false,
      "t": 22800,
      "d": 1175,
      "v": 104
    },
    {
      "midi": 63,
      "hit": false,
      "t": 23400,
      "d": 575,
      "v": 104
    },
    {
      "midi": 68,
      "hit": false,
      "t": 23400,
      "d": 575,
      "v": 104
    },
    {
      "midi": 72,
      "hit": false,
      "t": 23400,
      "d": 575,
      "v": 104
    },
    {
      "midi": 39,
      "hit": false,
      "t": 24000,
      "d": 875,
      "v": 104
    },
    {
      "midi": 63,
      "hit": false,
      "t": 24000,
      "d": 875,
      "v": 104
    },
    {
      "midi": 67,
      "hit": false,
      "t": 24000,
      "d": 875,
      "v": 104
    },
    {
      "midi": 70,
      "hit": false,
      "t": 24000,
      "d": 1775,
      "v": 104
    },
    {
      "midi": 39,
      "hit": false,
      "t": 24900,
      "d": 575,
      "v": 104
    },
    {
      "midi": 63,
      "hit": false,
      "t": 24900,
      "d": 875,
      "v": 104
    },
    {
      "midi": 67,
      "hit": false,
      "t": 24900,
      "d": 875,
      "v": 104
    },
    {
      "midi": 39,
      "hit": false,
      "t": 25500,
      "d": 875,
      "v": 104
    },
    {
      "midi": 63,
      "hit": false,
      "t": 25800,
      "d": 275,
      "v": 104
    },
    {
      "midi": 67,
      "hit": false,
      "t": 25800,
      "d": 275,
      "v": 104
    },
    {
      "midi": 75,
      "hit": false,
      "t": 25800,
      "d": 275,
      "v": 104
    },
    {
      "midi": 63,
      "hit": false,
      "t": 26100,
      "d": 875,
      "v": 104
    },
    {
      "midi": 68,
      "hit": false,
      "t": 26100,
      "d": 875,
      "v": 104
    },
    {
      "midi": 72,
      "hit": false,
      "t": 26100,
      "d": 2075,
      "v": 104
    },
    {
      "midi": 44,
      "hit": false,
      "t": 26400,
      "d": 1175,
      "v": 104
    },
    {
      "midi": 63,
      "hit": false,
      "t": 27000,
      "d": 575,
      "v": 104
    },
    {
      "midi": 68,
      "hit": false,
      "t": 27000,
      "d": 575,
      "v": 104
    },
    {
      "midi": 63,
      "hit": false,
      "t": 27600,
      "d": 575,
      "v": 104
    },
    {
      "midi": 68,
      "hit": false,
      "t": 27600,
      "d": 575,
      "v": 104
    },
    {
      "midi": 44,
      "hit": false,
      "t": 27600,
      "d": 1175,
      "v": 104
    },
    {
      "midi": 63,
      "hit": false,
      "t": 28200,
      "d": 575,
      "v": 104
    },
    {
      "midi": 68,
      "hit": false,
      "t": 28200,
      "d": 575,
      "v": 104
    },
    {
      "midi": 72,
      "hit": false,
      "t": 28200,
      "d": 575,
      "v": 104
    },
    {
      "midi": 63,
      "hit": false,
      "t": 28800,
      "d": 275,
      "v": 104
    },
    {
      "midi": 67,
      "hit": false,
      "t": 28800,
      "d": 275,
      "v": 104
    },
    {
      "midi": 70,
      "hit": false,
      "t": 28800,
      "d": 275,
      "v": 104
    },
    {
      "midi": 39,
      "hit": false,
      "t": 28800,
      "d": 1175,
      "v": 104
    },
    {
      "midi": 67,
      "hit": false,
      "t": 29100,
      "d": 125,
      "v": 104
    },
    {
      "midi": 65,
      "hit": false,
      "t": 29250,
      "d": 125,
      "v": 104
    },
    {
      "midi": 58,
      "hit": false,
      "t": 29400,
      "d": 575,
      "v": 104
    },
    {
      "midi": 63,
      "hit": false,
      "t": 29400,
      "d": 1475,
      "v": 104
    },
    {
      "midi": 56,
      "hit": false,
      "t": 30000,
      "d": 875,
      "v": 104
    },
    {
      "midi": 60,
      "hit": false,
      "t": 30000,
      "d": 875,
      "v": 104
    },
    {
      "midi": 44,
      "hit": false,
      "t": 30000,
      "d": 1175,
      "v": 104
    },
    {
      "midi": 72,
      "hit": false,
      "t": 30900,
      "d": 275,
      "v": 104
    },
    {
      "midi": 63,
      "hit": false,
      "t": 31200,
      "d": 275,
      "v": 104
    },
    {
      "midi": 70,
      "hit": false,
      "t": 31200,
      "d": 275,
      "v": 104
    },
    {
      "midi": 39,
      "hit": false,
      "t": 31200,
      "d": 875,
      "v": 104
    },
    {
      "midi": 67,
      "hit": false,
      "t": 31500,
      "d": 275,
      "v": 104
    },
    {
      "midi": 65,
      "hit": false,
      "t": 31800,
      "d": 275,
      "v": 104
    },
    {
      "midi": 44,
      "hit": false,
      "t": 32100,
      "d": 575,
      "v": 104
    },
    {
      "midi": 56,
      "hit": false,
      "t": 32100,
      "d": 575,
      "v": 104
    },
    {
      "midi": 60,
      "hit": false,
      "t": 32100,
      "d": 575,
      "v": 104
    },
    {
      "midi": 63,
      "hit": false,
      "t": 32100,
      "d": 2075,
      "v": 104
    },
    {
      "midi": 44,
      "hit": false,
      "t": 32700,
      "d": 275,
      "v": 104
    },
    {
      "midi": 60,
      "hit": false,
      "t": 32700,
      "d": 275,
      "v": 104
    },
    {
      "midi": 43,
      "hit": false,
      "t": 33000,
      "d": 275,
      "v": 104
    },
    {
      "midi": 58,
      "hit": false,
      "t": 33000,
      "d": 275,
      "v": 104
    },
    {
      "midi": 41,
      "hit": false,
      "t": 33300,
      "d": 275,
      "v": 104
    },
    {
      "midi": 56,
      "hit": false,
      "t": 33300,
      "d": 275,
      "v": 104
    },
    {
      "midi": 39,
      "hit": false,
      "t": 33600,
      "d": 575,
      "v": 104
    },
    {
      "midi": 55,
      "hit": false,
      "t": 33600,
      "d": 575,
      "v": 104
    },
    {
      "midi": 39,
      "hit": false,
      "t": 34200,
      "d": 575,
      "v": 104
    },
    {
      "midi": 58,
      "hit": false,
      "t": 34200,
      "d": 575,
      "v": 104
    },
    {
      "midi": 63,
      "hit": false,
      "t": 34200,
      "d": 575,
      "v": 104
    },
    {
      "midi": 67,
      "hit": false,
      "t": 34200,
      "d": 575,
      "v": 104
    },
    {
      "midi": 38,
      "hit": false,
      "t": 34800,
      "d": 575,
      "v": 104
    },
    {
      "midi": 58,
      "hit": false,
      "t": 34800,
      "d": 575,
      "v": 104
    },
    {
      "midi": 65,
      "hit": false,
      "t": 34800,
      "d": 575,
      "v": 104
    },
    {
      "midi": 60,
      "hit": false,
      "t": 35400,
      "d": 275,
      "v": 104
    },
    {
      "midi": 63,
      "hit": false,
      "t": 35400,
      "d": 275,
      "v": 104
    },
    {
      "midi": 36,
      "hit": false,
      "t": 35400,
      "d": 575,
      "v": 104
    },
    {
      "midi": 62,
      "hit": false,
      "t": 35700,
      "d": 575,
      "v": 104
    },
    {
      "midi": 65,
      "hit": false,
      "t": 35700,
      "d": 2375,
      "v": 104
    },
    {
      "midi": 46,
      "hit": false,
      "t": 36000,
      "d": 875,
      "v": 104
    },
    {
      "midi": 62,
      "hit": false,
      "t": 36300,
      "d": 125,
      "v": 104
    },
    {
      "midi": 58,
      "hit": false,
      "t": 36450,
      "d": 125,
      "v": 104
    },
    {
      "midi": 53,
      "hit": false,
      "t": 36600,
      "d": 275,
      "v": 104
    },
    {
      "midi": 58,
      "hit": false,
      "t": 36900,
      "d": 575,
      "v": 104
    },
    {
      "midi": 62,
      "hit": false,
      "t": 36900,
      "d": 575,
      "v": 104
    },
    {
      "midi": 46,
      "hit": false,
      "t": 36900,
      "d": 1175,
      "v": 104
    },
    {
      "midi": 62,
      "hit": false,
      "t": 37500,
      "d": 125,
      "v": 104
    },
    {
      "midi": 58,
      "hit": false,
      "t": 37650,
      "d": 125,
      "v": 104
    },
    {
      "midi": 53,
      "hit": false,
      "t": 37800,
      "d": 275,
      "v": 104
    },
    {
      "midi": 46,
      "hit": false,
      "t": 38100,
      "d": 275,
      "v": 104
    },
    {
      "midi": 62,
      "hit": false,
      "t": 38100,
      "d": 575,
      "v": 104
    },
    {
      "midi": 65,
      "hit": false,
      "t": 38100,
      "d": 575,
      "v": 104
    },
    {
      "midi": 70,
      "hit": false,
      "t": 38100,
      "d": 1175,
      "v": 104
    },
    {
      "midi": 46,
      "hit": false,
      "t": 38400,
      "d": 875,
      "v": 104
    },
    {
      "midi": 65,
      "hit": false,
      "t": 38700,
      "d": 125,
      "v": 104
    },
    {
      "midi": 62,
      "hit": false,
      "t": 38850,
      "d": 125,
      "v": 104
    },
    {
      "midi": 58,
      "hit": false,
      "t": 39000,
      "d": 275,
      "v": 104
    },
    {
      "midi": 46,
      "hit": false,
      "t": 39300,
      "d": 275,
      "v": 104
    },
    {
      "midi": 53,
      "hit": false,
      "t": 39300,
      "d": 275,
      "v": 104
    },
    {
      "midi": 62,
      "hit": false,
      "t": 39300,
      "d": 275,
      "v": 104
    },
    {
      "midi": 70,
      "hit": false,
      "t": 39300,
      "d": 275,
      "v": 104
    },
    {
      "midi": 46,
      "hit": false,
      "t": 39600,
      "d": 375,
      "v": 104
    },
    {
      "midi": 58,
      "hit": false,
      "t": 39600,
      "d": 375,
      "v": 104
    },
    {
      "midi": 62,
      "hit": false,
      "t": 39600,
      "d": 375,
      "v": 104
    },
    {
      "midi": 67,
      "hit": false,
      "t": 39600,
      "d": 375,
      "v": 104
    },
    {
      "midi": 36,
      "hit": false,
      "t": 40000,
      "d": 375,
      "v": 104
    },
    {
      "midi": 56,
      "hit": false,
      "t": 40000,
      "d": 375,
      "v": 104
    },
    {
      "midi": 60,
      "hit": false,
      "t": 40000,
      "d": 375,
      "v": 104
    },
    {
      "midi": 65,
      "hit": false,
      "t": 40000,
      "d": 375,
      "v": 104
    },
    {
      "midi": 38,
      "hit": false,
      "t": 40400,
      "d": 375,
      "v": 104
    },
    {
      "midi": 56,
      "hit": false,
      "t": 40400,
      "d": 375,
      "v": 104
    },
    {
      "midi": 60,
      "hit": false,
      "t": 40400,
      "d": 375,
      "v": 104
    },
    {
      "midi": 63,
      "hit": false,
      "t": 40400,
      "d": 375,
      "v": 104
    },
    {
      "midi": 63,
      "hit": false,
      "t": 40800,
      "d": 425,
      "v": 104
    },
    {
      "midi": 55,
      "hit": false,
      "t": 40800,
      "d": 575,
      "v": 104
    },
    {
      "midi": 58,
      "hit": false,
      "t": 40800,
      "d": 575,
      "v": 104
    },
    {
      "midi": 39,
      "hit": false,
      "t": 40800,
      "d": 875,
      "v": 104
    },
    {
      "midi": 65,
      "hit": false,
      "t": 41250,
      "d": 125,
      "v": 104
    },
    {
      "midi": 58,
      "hit": false,
      "t": 41400,
      "d": 575,
      "v": 104
    },
    {
      "midi": 63,
      "hit": false,
      "t": 41400,
      "d": 575,
      "v": 104
    },
    {
      "midi": 67,
      "hit": false,
      "t": 41400,
      "d": 2375,
      "v": 104
    },
    {
      "midi": 39,
      "hit": false,
      "t": 41700,
      "d": 275,
      "v": 104
    },
    {
      "midi": 58,
      "hit": false,
      "t": 42000,
      "d": 575,
      "v": 104
    },
    {
      "midi": 63,
      "hit": false,
      "t": 42000,
      "d": 575,
      "v": 104
    },
    {
      "midi": 38,
      "hit": false,
      "t": 42000,
      "d": 875,
      "v": 104
    },
    {
      "midi": 58,
      "hit": false,
      "t": 42600,
      "d": 575,
      "v": 104
    },
    {
      "midi": 63,
      "hit": false,
      "t": 42600,
      "d": 575,
      "v": 104
    },
    {
      "midi": 38,
      "hit": false,
      "t": 42900,
      "d": 275,
      "v": 104
    },
    {
      "midi": 37,
      "hit": false,
      "t": 43200,
      "d": 575,
      "v": 104
    },
    {
      "midi": 58,
      "hit": false,
      "t": 43200,
      "d": 575,
      "v": 104
    },
    {
      "midi": 63,
      "hit": false,
      "t": 43200,
      "d": 575,
      "v": 104
    },
    {
      "midi": 39,
      "hit": false,
      "t": 43800,
      "d": 575,
      "v": 104
    },
    {
      "midi": 61,
      "hit": false,
      "t": 43800,
      "d": 575,
      "v": 104
    },
    {
      "midi": 67,
      "hit": false,
      "t": 43800,
      "d": 575,
      "v": 104
    },
    {
      "midi": 70,
      "hit": false,
      "t": 43800,
      "d": 575,
      "v": 104
    },
    {
      "midi": 41,
      "hit": false,
      "t": 44400,
      "d": 575,
      "v": 104
    },
    {
      "midi": 70,
      "hit": false,
      "t": 44400,
      "d": 575,
      "v": 104
    },
    {
      "midi": 73,
      "hit": false,
      "t": 44400,
      "d": 575,
      "v": 104
    },
    {
      "midi": 79,
      "hit": false,
      "t": 44400,
      "d": 575,
      "v": 104
    },
    {
      "midi": 43,
      "hit": false,
      "t": 45000,
      "d": 575,
      "v": 104
    },
    {
      "midi": 70,
      "hit": false,
      "t": 45000,
      "d": 575,
      "v": 104
    },
    {
      "midi": 74,
      "hit": false,
      "t": 45000,
      "d": 575,
      "v": 104
    },
    {
      "midi": 77,
      "hit": false,
      "t": 45000,
      "d": 575,
      "v": 104
    },
    {
      "midi": 68,
      "hit": false,
      "t": 45600,
      "d": 575,
      "v": 104
    },
    {
      "midi": 72,
      "hit": false,
      "t": 45600,
      "d": 575,
      "v": 104
    },
    {
      "midi": 44,
      "hit": false,
      "t": 45600,
      "d": 875,
      "v": 104
    },
    {
      "midi": 75,
      "hit": false,
      "t": 45600,
      "d": 1175,
      "v": 104
    },
    {
      "midi": 63,
      "hit": false,
      "t": 46200,
      "d": 575,
      "v": 104
    },
    {
      "midi": 68,
      "hit": false,
      "t": 46200,
      "d": 575,
      "v": 104
    },
    {
      "midi": 72,
      "hit": false,
      "t": 46200,
      "d": 575,
      "v": 104
    },
    {
      "midi": 44,
      "hit": false,
      "t": 46500,
      "d": 275,
      "v": 104
    },
    {
      "midi": 69,
      "hit": false,
      "t": 46800,
      "d": 575,
      "v": 104
    },
    {
      "midi": 72,
      "hit": false,
      "t": 46800,
      "d": 575,
      "v": 104
    },
    {
      "midi": 77,
      "hit": false,
      "t": 46800,
      "d": 875,
      "v": 104
    },
    {
      "midi": 41,
      "hit": false,
      "t": 46800,
      "d": 1175,
      "v": 104
    },
    {
      "midi": 69,
      "hit": false,
      "t": 47400,
      "d": 275,
      "v": 104
    },
    {
      "midi": 72,
      "hit": false,
      "t": 47400,
      "d": 275,
      "v": 104
    },
    {
      "midi": 70,
      "hit": false,
      "t": 47700,
      "d": 875,
      "v": 104
    },
    {
      "midi": 74,
      "hit": false,
      "t": 47700,
      "d": 875,
      "v": 104
    },
    {
      "midi": 77,
      "hit": false,
      "t": 47700,
      "d": 1475,
      "v": 104
    },
    {
      "midi": 46,
      "hit": false,
      "t": 48000,
      "d": 575,
      "v": 104
    },
    {
      "midi": 46,
      "hit": false,
      "t": 48600,
      "d": 275,
      "v": 104
    },
    {
      "midi": 65,
      "hit": false,
      "t": 48600,
      "d": 575,
      "v": 104
    },
    {
      "midi": 70,
      "hit": false,
      "t": 48600,
      "d": 575,
      "v": 104
    },
    {
      "midi": 74,
      "hit": false,
      "t": 48600,
      "d": 575,
      "v": 104
    },
    {
      "midi": 38,
      "hit": false,
      "t": 48900,
      "d": 275,
      "v": 104
    },
    {
      "midi": 39,
      "hit": false,
      "t": 49200,
      "d": 575,
      "v": 104
    },
    {
      "midi": 67,
      "hit": false,
      "t": 49200,
      "d": 575,
      "v": 104
    },
    {
      "midi": 70,
      "hit": false,
      "t": 49200,
      "d": 575,
      "v": 104
    },
    {
      "midi": 73,
      "hit": false,
      "t": 49200,
      "d": 575,
      "v": 104
    },
    {
      "midi": 79,
      "hit": false,
      "t": 49200,
      "d": 575,
      "v": 104
    },
    {
      "midi": 43,
      "hit": false,
      "t": 49800,
      "d": 575,
      "v": 104
    },
    {
      "midi": 65,
      "hit": false,
      "t": 49800,
      "d": 575,
      "v": 104
    },
    {
      "midi": 70,
      "hit": false,
      "t": 49800,
      "d": 575,
      "v": 104
    },
    {
      "midi": 73,
      "hit": false,
      "t": 49800,
      "d": 575,
      "v": 104
    },
    {
      "midi": 77,
      "hit": false,
      "t": 49800,
      "d": 575,
      "v": 104
    },
    {
      "midi": 63,
      "hit": false,
      "t": 50400,
      "d": 575,
      "v": 104
    },
    {
      "midi": 68,
      "hit": false,
      "t": 50400,
      "d": 575,
      "v": 104
    },
    {
      "midi": 72,
      "hit": false,
      "t": 50400,
      "d": 575,
      "v": 104
    },
    {
      "midi": 44,
      "hit": false,
      "t": 50400,
      "d": 875,
      "v": 104
    },
    {
      "midi": 75,
      "hit": false,
      "t": 50400,
      "d": 1175,
      "v": 104
    },
    {
      "midi": 63,
      "hit": false,
      "t": 51000,
      "d": 575,
      "v": 104
    },
    {
      "midi": 68,
      "hit": false,
      "t": 51000,
      "d": 575,
      "v": 104
    },
    {
      "midi": 72,
      "hit": false,
      "t": 51000,
      "d": 575,
      "v": 104
    },
    {
      "midi": 44,
      "hit": false,
      "t": 51300,
      "d": 275,
      "v": 104
    },
    {
      "midi": 44,
      "hit": false,
      "t": 51600,
      "d": 575,
      "v": 104
    },
    {
      "midi": 63,
      "hit": false,
      "t": 51600,
      "d": 575,
      "v": 104
    },
    {
      "midi": 68,
      "hit": false,
      "t": 51600,
      "d": 575,
      "v": 104
    },
    {
      "midi": 74,
      "hit": false,
      "t": 51600,
      "d": 575,
      "v": 104
    },
    {
      "midi": 45,
      "hit": false,
      "t": 52200,
      "d": 575,
      "v": 104
    },
    {
      "midi": 63,
      "hit": false,
      "t": 52200,
      "d": 575,
      "v": 104
    },
    {
      "midi": 66,
      "hit": false,
      "t": 52200,
      "d": 575,
      "v": 104
    },
    {
      "midi": 72,
      "hit": false,
      "t": 52200,
      "d": 575,
      "v": 104
    },
    {
      "midi": 72,
      "hit": false,
      "t": 52800,
      "d": 275,
      "v": 104
    },
    {
      "midi": 46,
      "hit": false,
      "t": 52800,
      "d": 875,
      "v": 104
    },
    {
      "midi": 63,
      "hit": false,
      "t": 52800,
      "d": 1175,
      "v": 104
    },
    {
      "midi": 67,
      "hit": false,
      "t": 52800,
      "d": 1175,
      "v": 104
    },
    {
      "midi": 70,
      "hit": false,
      "t": 53100,
      "d": 875,
      "v": 104
    },
    {
      "midi": 46,
      "hit": false,
      "t": 53700,
      "d": 275,
      "v": 104
    },
    {
      "midi": 67,
      "hit": false,
      "t": 54000,
      "d": 275,
      "v": 104
    },
    {
      "midi": 48,
      "hit": false,
      "t": 54000,
      "d": 575,
      "v": 104
    },
    {
      "midi": 58,
      "hit": false,
      "t": 54000,
      "d": 575,
      "v": 104
    },
    {
      "midi": 65,
      "hit": false,
      "t": 54000,
      "d": 1175,
      "v": 104
    },
    {
      "midi": 48,
      "hit": false,
      "t": 54600,
      "d": 575,
      "v": 104
    },
    {
      "midi": 64,
      "hit": false,
      "t": 54600,
      "d": 575,
      "v": 104
    },
    {
      "midi": 44,
      "hit": false,
      "t": 55200,
      "d": 1175,
      "v": 104
    },
    {
      "midi": 51,
      "hit": false,
      "t": 55200,
      "d": 1175,
      "v": 104
    },
    {
      "midi": 60,
      "hit": false,
      "t": 55200,
      "d": 1175,
      "v": 104
    },
    {
      "midi": 72,
      "hit": false,
      "t": 55800,
      "d": 275,
      "v": 104
    },
    {
      "midi": 75,
      "hit": false,
      "t": 56100,
      "d": 275,
      "v": 104
    },
    {
      "midi": 47,
      "hit": false,
      "t": 56400,
      "d": 575,
      "v": 104
    },
    {
      "midi": 67,
      "hit": false,
      "t": 56400,
      "d": 575,
      "v": 104
    },
    {
      "midi": 74,
      "hit": false,
      "t": 56400,
      "d": 575,
      "v": 104
    },
    {
      "midi": 77,
      "hit": false,
      "t": 56400,
      "d": 575,
      "v": 104
    },
    {
      "midi": 38,
      "hit": false,
      "t": 57000,
      "d": 575,
      "v": 104
    },
    {
      "midi": 50,
      "hit": false,
      "t": 57000,
      "d": 575,
      "v": 104
    },
    {
      "midi": 74,
      "hit": false,
      "t": 57000,
      "d": 575,
      "v": 104
    },
    {
      "midi": 77,
      "hit": false,
      "t": 57000,
      "d": 575,
      "v": 104
    },
    {
      "midi": 79,
      "hit": false,
      "t": 57000,
      "d": 575,
      "v": 104
    },
    {
      "midi": 83,
      "hit": false,
      "t": 57000,
      "d": 575,
      "v": 104
    },
    {
      "midi": 48,
      "hit": false,
      "t": 57600,
      "d": 575,
      "v": 104
    },
    {
      "midi": 63,
      "hit": false,
      "t": 57600,
      "d": 575,
      "v": 104
    },
    {
      "midi": 67,
      "hit": false,
      "t": 57600,
      "d": 575,
      "v": 104
    },
    {
      "midi": 72,
      "hit": false,
      "t": 57600,
      "d": 575,
      "v": 104
    },
    {
      "midi": 75,
      "hit": false,
      "t": 57600,
      "d": 1175,
      "v": 104
    },
    {
      "midi": 39,
      "hit": false,
      "t": 58200,
      "d": 575,
      "v": 104
    },
    {
      "midi": 63,
      "hit": false,
      "t": 58200,
      "d": 575,
      "v": 104
    },
    {
      "midi": 67,
      "hit": false,
      "t": 58200,
      "d": 575,
      "v": 104
    },
    {
      "midi": 72,
      "hit": false,
      "t": 58200,
      "d": 575,
      "v": 104
    },
    {
      "midi": 41,
      "hit": false,
      "t": 58800,
      "d": 575,
      "v": 104
    },
    {
      "midi": 70,
      "hit": false,
      "t": 58800,
      "d": 575,
      "v": 104
    },
    {
      "midi": 73,
      "hit": false,
      "t": 58800,
      "d": 575,
      "v": 104
    },
    {
      "midi": 79,
      "hit": false,
      "t": 58800,
      "d": 575,
      "v": 104
    },
    {
      "midi": 43,
      "hit": false,
      "t": 59400,
      "d": 575,
      "v": 104
    },
    {
      "midi": 65,
      "hit": false,
      "t": 59400,
      "d": 575,
      "v": 104
    },
    {
      "midi": 70,
      "hit": false,
      "t": 59400,
      "d": 575,
      "v": 104
    },
    {
      "midi": 73,
      "hit": false,
      "t": 59400,
      "d": 575,
      "v": 104
    },
    {
      "midi": 77,
      "hit": false,
      "t": 59400,
      "d": 575,
      "v": 104
    },
    {
      "midi": 63,
      "hit": false,
      "t": 60000,
      "d": 575,
      "v": 104
    },
    {
      "midi": 68,
      "hit": false,
      "t": 60000,
      "d": 575,
      "v": 104
    },
    {
      "midi": 72,
      "hit": false,
      "t": 60000,
      "d": 575,
      "v": 104
    },
    {
      "midi": 44,
      "hit": false,
      "t": 60000,
      "d": 875,
      "v": 104
    },
    {
      "midi": 75,
      "hit": false,
      "t": 60000,
      "d": 1175,
      "v": 104
    },
    {
      "midi": 63,
      "hit": false,
      "t": 60600,
      "d": 575,
      "v": 104
    },
    {
      "midi": 68,
      "hit": false,
      "t": 60600,
      "d": 575,
      "v": 104
    },
    {
      "midi": 72,
      "hit": false,
      "t": 60600,
      "d": 575,
      "v": 104
    },
    {
      "midi": 44,
      "hit": false,
      "t": 60900,
      "d": 275,
      "v": 104
    },
    {
      "midi": 44,
      "hit": false,
      "t": 61200,
      "d": 575,
      "v": 104
    },
    {
      "midi": 63,
      "hit": false,
      "t": 61200,
      "d": 575,
      "v": 104
    },
    {
      "midi": 68,
      "hit": false,
      "t": 61200,
      "d": 575,
      "v": 104
    },
    {
      "midi": 74,
      "hit": false,
      "t": 61200,
      "d": 575,
      "v": 104
    },
    {
      "midi": 45,
      "hit": false,
      "t": 61800,
      "d": 575,
      "v": 104
    },
    {
      "midi": 63,
      "hit": false,
      "t": 61800,
      "d": 575,
      "v": 104
    },
    {
      "midi": 66,
      "hit": false,
      "t": 61800,
      "d": 575,
      "v": 104
    },
    {
      "midi": 72,
      "hit": false,
      "t": 61800,
      "d": 575,
      "v": 104
    },
    {
      "midi": 72,
      "hit": false,
      "t": 62400,
      "d": 275,
      "v": 104
    },
    {
      "midi": 46,
      "hit": false,
      "t": 62400,
      "d": 875,
      "v": 104
    },
    {
      "midi": 63,
      "hit": false,
      "t": 62400,
      "d": 1175,
      "v": 104
    },
    {
      "midi": 70,
      "hit": false,
      "t": 62700,
      "d": 575,
      "v": 104
    },
    {
      "midi": 46,
      "hit": false,
      "t": 63300,
      "d": 275,
      "v": 104
    },
    {
      "midi": 67,
      "hit": false,
      "t": 63300,
      "d": 275,
      "v": 104
    },
    {
      "midi": 48,
      "hit": false,
      "t": 63600,
      "d": 575,
      "v": 104
    },
    {
      "midi": 58,
      "hit": false,
      "t": 63600,
      "d": 575,
      "v": 104
    },
    {
      "midi": 65,
      "hit": false,
      "t": 63600,
      "d": 575,
      "v": 104
    },
    {
      "midi": 70,
      "hit": false,
      "t": 63900,
      "d": 875,
      "v": 104
    },
    {
      "midi": 48,
      "hit": false,
      "t": 64200,
      "d": 575,
      "v": 104
    },
    {
      "midi": 64,
      "hit": false,
      "t": 64200,
      "d": 575,
      "v": 104
    },
    {
      "midi": 44,
      "hit": false,
      "t": 64800,
      "d": 1175,
      "v": 104
    },
    {
      "midi": 51,
      "hit": false,
      "t": 64800,
      "d": 1175,
      "v": 104
    },
    {
      "midi": 60,
      "hit": false,
      "t": 64800,
      "d": 1175,
      "v": 104
    },
    {
      "midi": 72,
      "hit": false,
      "t": 65400,
      "d": 275,
      "v": 104
    },
    {
      "midi": 75,
      "hit": false,
      "t": 65700,
      "d": 275,
      "v": 104
    },
    {
      "midi": 46,
      "hit": false,
      "t": 66000,
      "d": 575,
      "v": 104
    },
    {
      "midi": 68,
      "hit": false,
      "t": 66000,
      "d": 575,
      "v": 104
    },
    {
      "midi": 72,
      "hit": false,
      "t": 66000,
      "d": 575,
      "v": 104
    },
    {
      "midi": 77,
      "hit": false,
      "t": 66000,
      "d": 575,
      "v": 104
    },
    {
      "midi": 46,
      "hit": false,
      "t": 66600,
      "d": 575,
      "v": 104
    },
    {
      "midi": 70,
      "hit": false,
      "t": 66600,
      "d": 575,
      "v": 104
    },
    {
      "midi": 74,
      "hit": false,
      "t": 66600,
      "d": 575,
      "v": 104
    },
    {
      "midi": 79,
      "hit": false,
      "t": 66600,
      "d": 575,
      "v": 104
    },
    {
      "midi": 63,
      "hit": false,
      "t": 67200,
      "d": 575,
      "v": 104
    },
    {
      "midi": 67,
      "hit": false,
      "t": 67200,
      "d": 575,
      "v": 104
    },
    {
      "midi": 70,
      "hit": false,
      "t": 67200,
      "d": 575,
      "v": 104
    },
    {
      "midi": 39,
      "hit": false,
      "t": 67200,
      "d": 875,
      "v": 104
    },
    {
      "midi": 75,
      "hit": false,
      "t": 67200,
      "d": 2375,
      "v": 104
    },
    {
      "midi": 63,
      "hit": false,
      "t": 67800,
      "d": 275,
      "v": 104
    },
    {
      "midi": 39,
      "hit": false,
      "t": 68100,
      "d": 575,
      "v": 104
    },
    {
      "midi": 63,
      "hit": false,
      "t": 68100,
      "d": 575,
      "v": 104
    },
    {
      "midi": 63,
      "hit": false,
      "t": 68700,
      "d": 275,
      "v": 104
    },
    {
      "midi": 67,
      "hit": false,
      "t": 68700,
      "d": 275,
      "v": 104
    },
    {
      "midi": 70,
      "hit": false,
      "t": 68700,
      "d": 275,
      "v": 104
    },
    {
      "midi": 39,
      "hit": false,
      "t": 68700,
      "d": 875,
      "v": 104
    },
    {
      "midi": 63,
      "hit": false,
      "t": 69000,
      "d": 275,
      "v": 104
    },
    {
      "midi": 67,
      "hit": false,
      "t": 69000,
      "d": 275,
      "v": 104
    },
    {
      "midi": 70,
      "hit": false,
      "t": 69000,
      "d": 275,
      "v": 104
    },
    {
      "midi": 63,
      "hit": false,
      "t": 69300,
      "d": 275,
      "v": 104
    },
    {
      "midi": 67,
      "hit": false,
      "t": 69300,
      "d": 275,
      "v": 104
    },
    {
      "midi": 70,
      "hit": false,
      "t": 69300,
      "d": 275,
      "v": 104
    },
    {
      "midi": 60,
      "hit": false,
      "t": 69600,
      "d": 575,
      "v": 104
    },
    {
      "midi": 63,
      "hit": false,
      "t": 69600,
      "d": 575,
      "v": 104
    },
    {
      "midi": 68,
      "hit": false,
      "t": 69600,
      "d": 575,
      "v": 104
    },
    {
      "midi": 39,
      "hit": false,
      "t": 69600,
      "d": 875,
      "v": 104
    },
    {
      "midi": 60,
      "hit": false,
      "t": 70200,
      "d": 1175,
      "v": 104
    },
    {
      "midi": 63,
      "hit": false,
      "t": 70200,
      "d": 1175,
      "v": 104
    },
    {
      "midi": 39,
      "hit": false,
      "t": 70500,
      "d": 1475,
      "v": 104
    },
    {
      "midi": 68,
      "hit": false,
      "t": 71100,
      "d": 275,
      "v": 104
    },
    {
      "midi": 68,
      "hit": false,
      "t": 71700,
      "d": 275,
      "v": 104
    },
    {
      "midi": 63,
      "hit": false,
      "t": 72000,
      "d": 575,
      "v": 104
    },
    {
      "midi": 67,
      "hit": false,
      "t": 72000,
      "d": 575,
      "v": 104
    },
    {
      "midi": 39,
      "hit": false,
      "t": 72000,
      "d": 875,
      "v": 104
    },
    {
      "midi": 58,
      "hit": false,
      "t": 72000,
      "d": 875,
      "v": 104
    },
    {
      "midi": 65,
      "hit": false,
      "t": 72600,
      "d": 275,
      "v": 104
    },
    {
      "midi": 63,
      "hit": false,
      "t": 72900,
      "d": 75,
      "v": 104
    },
    {
      "midi": 58,
      "hit": false,
      "t": 72900,
      "d": 275,
      "v": 104
    },
    {
      "midi": 39,
      "hit": false,
      "t": 72900,
      "d": 575,
      "v": 104
    },
    {
      "midi": 58,
      "hit": false,
      "t": 73200,
      "d": 575,
      "v": 104
    },
    {
      "midi": 39,
      "hit": false,
      "t": 73500,
      "d": 875,
      "v": 104
    },
    {
      "midi": 55,
      "hit": false,
      "t": 73800,
      "d": 275,
      "v": 104
    },
    {
      "midi": 58,
      "hit": false,
      "t": 73800,
      "d": 275,
      "v": 104
    },
    {
      "midi": 44,
      "hit": false,
      "t": 74100,
      "d": 2075,
      "v": 104
    },
    {
      "midi": 60,
      "hit": false,
      "t": 74100,
      "d": 2075,
      "v": 104
    },
    {
      "midi": 39,
      "hit": false,
      "t": 74400,
      "d": 875,
      "v": 104
    },
    {
      "midi": 39,
      "hit": false,
      "t": 75300,
      "d": 575,
      "v": 104
    },
    {
      "midi": 39,
      "hit": false,
      "t": 75900,
      "d": 875,
      "v": 104
    },
    {
      "midi": 68,
      "hit": false,
      "t": 76200,
      "d": 275,
      "v": 104
    },
    {
      "midi": 60,
      "hit": false,
      "t": 76200,
      "d": 575,
      "v": 104
    },
    {
      "midi": 63,
      "hit": false,
      "t": 76200,
      "d": 575,
      "v": 104
    },
    {
      "midi": 70,
      "hit": false,
      "t": 76500,
      "d": 875,
      "v": 104
    },
    {
      "midi": 39,
      "hit": false,
      "t": 76800,
      "d": 875,
      "v": 104
    },
    {
      "midi": 58,
      "hit": false,
      "t": 76800,
      "d": 875,
      "v": 104
    },
    {
      "midi": 63,
      "hit": false,
      "t": 76800,
      "d": 875,
      "v": 104
    },
    {
      "midi": 67,
      "hit": false,
      "t": 77400,
      "d": 1775,
      "v": 104
    },
    {
      "midi": 39,
      "hit": false,
      "t": 77700,
      "d": 575,
      "v": 104
    },
    {
      "midi": 58,
      "hit": false,
      "t": 77700,
      "d": 875,
      "v": 104
    },
    {
      "midi": 63,
      "hit": false,
      "t": 77700,
      "d": 875,
      "v": 104
    },
    {
      "midi": 39,
      "hit": false,
      "t": 78300,
      "d": 875,
      "v": 104
    },
    {
      "midi": 58,
      "hit": false,
      "t": 78600,
      "d": 275,
      "v": 104
    },
    {
      "midi": 65,
      "hit": false,
      "t": 78600,
      "d": 275,
      "v": 104
    },
    {
      "midi": 63,
      "hit": false,
      "t": 78900,
      "d": 275,
      "v": 104
    },
    {
      "midi": 60,
      "hit": false,
      "t": 79200,
      "d": 575,
      "v": 104
    },
    {
      "midi": 63,
      "hit": false,
      "t": 79200,
      "d": 575,
      "v": 104
    },
    {
      "midi": 44,
      "hit": false,
      "t": 79200,
      "d": 875,
      "v": 104
    },
    {
      "midi": 63,
      "hit": false,
      "t": 79800,
      "d": 575,
      "v": 104
    },
    {
      "midi": 67,
      "hit": false,
      "t": 79800,
      "d": 575,
      "v": 104
    },
    {
      "midi": 72,
      "hit": false,
      "t": 79800,
      "d": 575,
      "v": 104
    },
    {
      "midi": 44,
      "hit": false,
      "t": 80100,
      "d": 275,
      "v": 104
    },
    {
      "midi": 65,
      "hit": false,
      "t": 80400,
      "d": 575,
      "v": 104
    },
    {
      "midi": 68,
      "hit": false,
      "t": 80400,
      "d": 575,
      "v": 104
    },
    {
      "midi": 73,
      "hit": false,
      "t": 80400,
      "d": 575,
      "v": 104
    },
    {
      "midi": 44,
      "hit": false,
      "t": 80400,
      "d": 1175,
      "v": 104
    },
    {
      "midi": 63,
      "hit": false,
      "t": 81000,
      "d": 575,
      "v": 104
    },
    {
      "midi": 68,
      "hit": false,
      "t": 81000,
      "d": 575,
      "v": 104
    },
    {
      "midi": 72,
      "hit": false,
      "t": 81000,
      "d": 575,
      "v": 104
    },
    {
      "midi": 39,
      "hit": false,
      "t": 81600,
      "d": 875,
      "v": 104
    },
    {
      "midi": 63,
      "hit": false,
      "t": 81600,
      "d": 875,
      "v": 104
    },
    {
      "midi": 67,
      "hit": false,
      "t": 81600,
      "d": 875,
      "v": 104
    },
    {
      "midi": 70,
      "hit": false,
      "t": 81600,
      "d": 1775,
      "v": 104
    },
    {
      "midi": 39,
      "hit": false,
      "t": 82500,
      "d": 575,
      "v": 104
    },
    {
      "midi": 63,
      "hit": false,
      "t": 82500,
      "d": 875,
      "v": 104
    },
    {
      "midi": 67,
      "hit": false,
      "t": 82500,
      "d": 875,
      "v": 104
    },
    {
      "midi": 39,
      "hit": false,
      "t": 83100,
      "d": 875,
      "v": 104
    },
    {
      "midi": 63,
      "hit": false,
      "t": 83400,
      "d": 275,
      "v": 104
    },
    {
      "midi": 67,
      "hit": false,
      "t": 83400,
      "d": 275,
      "v": 104
    },
    {
      "midi": 75,
      "hit": false,
      "t": 83400,
      "d": 275,
      "v": 104
    },
    {
      "midi": 63,
      "hit": false,
      "t": 83700,
      "d": 875,
      "v": 104
    },
    {
      "midi": 68,
      "hit": false,
      "t": 83700,
      "d": 875,
      "v": 104
    },
    {
      "midi": 72,
      "hit": false,
      "t": 83700,
      "d": 2075,
      "v": 104
    },
    {
      "midi": 44,
      "hit": false,
      "t": 84000,
      "d": 1175,
      "v": 104
    },
    {
      "midi": 63,
      "hit": false,
      "t": 84600,
      "d": 575,
      "v": 104
    },
    {
      "midi": 68,
      "hit": false,
      "t": 84600,
      "d": 575,
      "v": 104
    },
    {
      "midi": 63,
      "hit": false,
      "t": 85200,
      "d": 575,
      "v": 104
    },
    {
      "midi": 68,
      "hit": false,
      "t": 85200,
      "d": 575,
      "v": 104
    },
    {
      "midi": 44,
      "hit": false,
      "t": 85200,
      "d": 1175,
      "v": 104
    },
    {
      "midi": 63,
      "hit": false,
      "t": 85800,
      "d": 575,
      "v": 104
    },
    {
      "midi": 68,
      "hit": false,
      "t": 85800,
      "d": 575,
      "v": 104
    },
    {
      "midi": 72,
      "hit": false,
      "t": 85800,
      "d": 575,
      "v": 104
    },
    {
      "midi": 63,
      "hit": false,
      "t": 86400,
      "d": 275,
      "v": 104
    },
    {
      "midi": 67,
      "hit": false,
      "t": 86400,
      "d": 275,
      "v": 104
    },
    {
      "midi": 70,
      "hit": false,
      "t": 86400,
      "d": 275,
      "v": 104
    },
    {
      "midi": 39,
      "hit": false,
      "t": 86400,
      "d": 1175,
      "v": 104
    },
    {
      "midi": 67,
      "hit": false,
      "t": 86700,
      "d": 125,
      "v": 104
    },
    {
      "midi": 65,
      "hit": false,
      "t": 86850,
      "d": 125,
      "v": 104
    },
    {
      "midi": 58,
      "hit": false,
      "t": 87000,
      "d": 575,
      "v": 104
    },
    {
      "midi": 63,
      "hit": false,
      "t": 87000,
      "d": 1475,
      "v": 104
    },
    {
      "midi": 56,
      "hit": false,
      "t": 87600,
      "d": 875,
      "v": 104
    },
    {
      "midi": 60,
      "hit": false,
      "t": 87600,
      "d": 875,
      "v": 104
    },
    {
      "midi": 44,
      "hit": false,
      "t": 87600,
      "d": 1175,
      "v": 104
    },
    {
      "midi": 72,
      "hit": false,
      "t": 88500,
      "d": 275,
      "v": 104
    },
    {
      "midi": 63,
      "hit": false,
      "t": 88800,
      "d": 275,
      "v": 104
    },
    {
      "midi": 70,
      "hit": false,
      "t": 88800,
      "d": 275,
      "v": 104
    },
    {
      "midi": 39,
      "hit": false,
      "t": 88800,
      "d": 875,
      "v": 104
    },
    {
      "midi": 67,
      "hit": false,
      "t": 89100,
      "d": 275,
      "v": 104
    },
    {
      "midi": 65,
      "hit": false,
      "t": 89400,
      "d": 275,
      "v": 104
    },
    {
      "midi": 44,
      "hit": false,
      "t": 89700,
      "d": 575,
      "v": 104
    },
    {
      "midi": 56,
      "hit": false,
      "t": 89700,
      "d": 575,
      "v": 104
    },
    {
      "midi": 60,
      "hit": false,
      "t": 89700,
      "d": 575,
      "v": 104
    },
    {
      "midi": 63,
      "hit": false,
      "t": 89700,
      "d": 2075,
      "v": 104
    },
    {
      "midi": 44,
      "hit": false,
      "t": 90300,
      "d": 275,
      "v": 104
    },
    {
      "midi": 60,
      "hit": false,
      "t": 90300,
      "d": 275,
      "v": 104
    },
    {
      "midi": 43,
      "hit": false,
      "t": 90600,
      "d": 275,
      "v": 104
    },
    {
      "midi": 58,
      "hit": false,
      "t": 90600,
      "d": 275,
      "v": 104
    },
    {
      "midi": 41,
      "hit": false,
      "t": 90900,
      "d": 275,
      "v": 104
    },
    {
      "midi": 56,
      "hit": false,
      "t": 90900,
      "d": 275,
      "v": 104
    },
    {
      "midi": 39,
      "hit": false,
      "t": 91200,
      "d": 575,
      "v": 104
    },
    {
      "midi": 55,
      "hit": false,
      "t": 91200,
      "d": 575,
      "v": 104
    },
    {
      "midi": 39,
      "hit": false,
      "t": 91800,
      "d": 575,
      "v": 104
    },
    {
      "midi": 58,
      "hit": false,
      "t": 91800,
      "d": 575,
      "v": 104
    },
    {
      "midi": 63,
      "hit": false,
      "t": 91800,
      "d": 575,
      "v": 104
    },
    {
      "midi": 67,
      "hit": false,
      "t": 91800,
      "d": 575,
      "v": 104
    },
    {
      "midi": 38,
      "hit": false,
      "t": 92400,
      "d": 575,
      "v": 104
    },
    {
      "midi": 58,
      "hit": false,
      "t": 92400,
      "d": 575,
      "v": 104
    },
    {
      "midi": 65,
      "hit": false,
      "t": 92400,
      "d": 575,
      "v": 104
    },
    {
      "midi": 60,
      "hit": false,
      "t": 93000,
      "d": 275,
      "v": 104
    },
    {
      "midi": 63,
      "hit": false,
      "t": 93000,
      "d": 275,
      "v": 104
    },
    {
      "midi": 36,
      "hit": false,
      "t": 93000,
      "d": 575,
      "v": 104
    },
    {
      "midi": 62,
      "hit": false,
      "t": 93300,
      "d": 575,
      "v": 104
    },
    {
      "midi": 65,
      "hit": false,
      "t": 93300,
      "d": 2375,
      "v": 104
    },
    {
      "midi": 46,
      "hit": false,
      "t": 93600,
      "d": 875,
      "v": 104
    },
    {
      "midi": 62,
      "hit": false,
      "t": 93900,
      "d": 125,
      "v": 104
    },
    {
      "midi": 58,
      "hit": false,
      "t": 94050,
      "d": 125,
      "v": 104
    },
    {
      "midi": 53,
      "hit": false,
      "t": 94200,
      "d": 275,
      "v": 104
    },
    {
      "midi": 58,
      "hit": false,
      "t": 94500,
      "d": 575,
      "v": 104
    },
    {
      "midi": 62,
      "hit": false,
      "t": 94500,
      "d": 575,
      "v": 104
    },
    {
      "midi": 46,
      "hit": false,
      "t": 94500,
      "d": 1175,
      "v": 104
    },
    {
      "midi": 62,
      "hit": false,
      "t": 95100,
      "d": 125,
      "v": 104
    },
    {
      "midi": 58,
      "hit": false,
      "t": 95250,
      "d": 125,
      "v": 104
    },
    {
      "midi": 53,
      "hit": false,
      "t": 95400,
      "d": 275,
      "v": 104
    },
    {
      "midi": 46,
      "hit": false,
      "t": 95700,
      "d": 275,
      "v": 104
    },
    {
      "midi": 62,
      "hit": false,
      "t": 95700,
      "d": 575,
      "v": 104
    },
    {
      "midi": 65,
      "hit": false,
      "t": 95700,
      "d": 575,
      "v": 104
    },
    {
      "midi": 70,
      "hit": false,
      "t": 95700,
      "d": 1175,
      "v": 104
    },
    {
      "midi": 46,
      "hit": false,
      "t": 96000,
      "d": 875,
      "v": 104
    },
    {
      "midi": 65,
      "hit": false,
      "t": 96300,
      "d": 125,
      "v": 104
    },
    {
      "midi": 62,
      "hit": false,
      "t": 96450,
      "d": 125,
      "v": 104
    },
    {
      "midi": 58,
      "hit": false,
      "t": 96600,
      "d": 275,
      "v": 104
    },
    {
      "midi": 46,
      "hit": false,
      "t": 96900,
      "d": 275,
      "v": 104
    },
    {
      "midi": 53,
      "hit": false,
      "t": 96900,
      "d": 275,
      "v": 104
    },
    {
      "midi": 62,
      "hit": false,
      "t": 96900,
      "d": 275,
      "v": 104
    },
    {
      "midi": 70,
      "hit": false,
      "t": 96900,
      "d": 275,
      "v": 104
    },
    {
      "midi": 46,
      "hit": false,
      "t": 97200,
      "d": 375,
      "v": 104
    },
    {
      "midi": 58,
      "hit": false,
      "t": 97200,
      "d": 375,
      "v": 104
    },
    {
      "midi": 62,
      "hit": false,
      "t": 97200,
      "d": 375,
      "v": 104
    },
    {
      "midi": 67,
      "hit": false,
      "t": 97200,
      "d": 375,
      "v": 104
    },
    {
      "midi": 36,
      "hit": false,
      "t": 97600,
      "d": 375,
      "v": 104
    },
    {
      "midi": 56,
      "hit": false,
      "t": 97600,
      "d": 375,
      "v": 104
    },
    {
      "midi": 60,
      "hit": false,
      "t": 97600,
      "d": 375,
      "v": 104
    },
    {
      "midi": 65,
      "hit": false,
      "t": 97600,
      "d": 375,
      "v": 104
    },
    {
      "midi": 38,
      "hit": false,
      "t": 98000,
      "d": 375,
      "v": 104
    },
    {
      "midi": 56,
      "hit": false,
      "t": 98000,
      "d": 375,
      "v": 104
    },
    {
      "midi": 60,
      "hit": false,
      "t": 98000,
      "d": 375,
      "v": 104
    },
    {
      "midi": 63,
      "hit": false,
      "t": 98000,
      "d": 375,
      "v": 104
    },
    {
      "midi": 63,
      "hit": false,
      "t": 98400,
      "d": 425,
      "v": 104
    },
    {
      "midi": 55,
      "hit": false,
      "t": 98400,
      "d": 575,
      "v": 104
    },
    {
      "midi": 58,
      "hit": false,
      "t": 98400,
      "d": 575,
      "v": 104
    },
    {
      "midi": 39,
      "hit": false,
      "t": 98400,
      "d": 875,
      "v": 104
    },
    {
      "midi": 65,
      "hit": false,
      "t": 98850,
      "d": 125,
      "v": 104
    },
    {
      "midi": 58,
      "hit": false,
      "t": 99000,
      "d": 575,
      "v": 104
    },
    {
      "midi": 63,
      "hit": false,
      "t": 99000,
      "d": 575,
      "v": 104
    },
    {
      "midi": 67,
      "hit": false,
      "t": 99000,
      "d": 2375,
      "v": 104
    },
    {
      "midi": 39,
      "hit": false,
      "t": 99300,
      "d": 275,
      "v": 104
    },
    {
      "midi": 58,
      "hit": false,
      "t": 99600,
      "d": 575,
      "v": 104
    },
    {
      "midi": 63,
      "hit": false,
      "t": 99600,
      "d": 575,
      "v": 104
    },
    {
      "midi": 38,
      "hit": false,
      "t": 99600,
      "d": 875,
      "v": 104
    },
    {
      "midi": 58,
      "hit": false,
      "t": 100200,
      "d": 575,
      "v": 104
    },
    {
      "midi": 63,
      "hit": false,
      "t": 100200,
      "d": 575,
      "v": 104
    },
    {
      "midi": 38,
      "hit": false,
      "t": 100500,
      "d": 275,
      "v": 104
    },
    {
      "midi": 37,
      "hit": false,
      "t": 100800,
      "d": 575,
      "v": 104
    },
    {
      "midi": 58,
      "hit": false,
      "t": 100800,
      "d": 575,
      "v": 104
    },
    {
      "midi": 63,
      "hit": false,
      "t": 100800,
      "d": 575,
      "v": 104
    },
    {
      "midi": 39,
      "hit": false,
      "t": 101400,
      "d": 575,
      "v": 104
    },
    {
      "midi": 61,
      "hit": false,
      "t": 101400,
      "d": 575,
      "v": 104
    },
    {
      "midi": 67,
      "hit": false,
      "t": 101400,
      "d": 575,
      "v": 104
    },
    {
      "midi": 70,
      "hit": false,
      "t": 101400,
      "d": 575,
      "v": 104
    },
    {
      "midi": 41,
      "hit": false,
      "t": 102000,
      "d": 575,
      "v": 104
    },
    {
      "midi": 70,
      "hit": false,
      "t": 102000,
      "d": 575,
      "v": 104
    },
    {
      "midi": 73,
      "hit": false,
      "t": 102000,
      "d": 575,
      "v": 104
    },
    {
      "midi": 79,
      "hit": false,
      "t": 102000,
      "d": 575,
      "v": 104
    },
    {
      "midi": 43,
      "hit": false,
      "t": 102600,
      "d": 575,
      "v": 104
    },
    {
      "midi": 70,
      "hit": false,
      "t": 102600,
      "d": 575,
      "v": 104
    },
    {
      "midi": 74,
      "hit": false,
      "t": 102600,
      "d": 575,
      "v": 104
    },
    {
      "midi": 77,
      "hit": false,
      "t": 102600,
      "d": 575,
      "v": 104
    },
    {
      "midi": 68,
      "hit": false,
      "t": 103200,
      "d": 575,
      "v": 104
    },
    {
      "midi": 72,
      "hit": false,
      "t": 103200,
      "d": 575,
      "v": 104
    },
    {
      "midi": 44,
      "hit": false,
      "t": 103200,
      "d": 875,
      "v": 104
    },
    {
      "midi": 75,
      "hit": false,
      "t": 103200,
      "d": 1175,
      "v": 104
    },
    {
      "midi": 63,
      "hit": false,
      "t": 103800,
      "d": 575,
      "v": 104
    },
    {
      "midi": 68,
      "hit": false,
      "t": 103800,
      "d": 575,
      "v": 104
    },
    {
      "midi": 72,
      "hit": false,
      "t": 103800,
      "d": 575,
      "v": 104
    },
    {
      "midi": 44,
      "hit": false,
      "t": 104100,
      "d": 275,
      "v": 104
    },
    {
      "midi": 69,
      "hit": false,
      "t": 104400,
      "d": 575,
      "v": 104
    },
    {
      "midi": 72,
      "hit": false,
      "t": 104400,
      "d": 575,
      "v": 104
    },
    {
      "midi": 77,
      "hit": false,
      "t": 104400,
      "d": 875,
      "v": 104
    },
    {
      "midi": 41,
      "hit": false,
      "t": 104400,
      "d": 1175,
      "v": 104
    },
    {
      "midi": 69,
      "hit": false,
      "t": 105000,
      "d": 275,
      "v": 104
    },
    {
      "midi": 72,
      "hit": false,
      "t": 105000,
      "d": 275,
      "v": 104
    },
    {
      "midi": 70,
      "hit": false,
      "t": 105300,
      "d": 875,
      "v": 104
    },
    {
      "midi": 74,
      "hit": false,
      "t": 105300,
      "d": 875,
      "v": 104
    },
    {
      "midi": 77,
      "hit": false,
      "t": 105300,
      "d": 1475,
      "v": 104
    },
    {
      "midi": 46,
      "hit": false,
      "t": 105600,
      "d": 575,
      "v": 104
    },
    {
      "midi": 46,
      "hit": false,
      "t": 106200,
      "d": 275,
      "v": 104
    },
    {
      "midi": 65,
      "hit": false,
      "t": 106200,
      "d": 575,
      "v": 104
    },
    {
      "midi": 70,
      "hit": false,
      "t": 106200,
      "d": 575,
      "v": 104
    },
    {
      "midi": 74,
      "hit": false,
      "t": 106200,
      "d": 575,
      "v": 104
    },
    {
      "midi": 38,
      "hit": false,
      "t": 106500,
      "d": 275,
      "v": 104
    },
    {
      "midi": 39,
      "hit": false,
      "t": 106800,
      "d": 575,
      "v": 104
    },
    {
      "midi": 67,
      "hit": false,
      "t": 106800,
      "d": 575,
      "v": 104
    },
    {
      "midi": 70,
      "hit": false,
      "t": 106800,
      "d": 575,
      "v": 104
    },
    {
      "midi": 73,
      "hit": false,
      "t": 106800,
      "d": 575,
      "v": 104
    },
    {
      "midi": 79,
      "hit": false,
      "t": 106800,
      "d": 575,
      "v": 104
    },
    {
      "midi": 43,
      "hit": false,
      "t": 107400,
      "d": 575,
      "v": 104
    },
    {
      "midi": 65,
      "hit": false,
      "t": 107400,
      "d": 575,
      "v": 104
    },
    {
      "midi": 70,
      "hit": false,
      "t": 107400,
      "d": 575,
      "v": 104
    },
    {
      "midi": 73,
      "hit": false,
      "t": 107400,
      "d": 575,
      "v": 104
    },
    {
      "midi": 77,
      "hit": false,
      "t": 107400,
      "d": 575,
      "v": 104
    },
    {
      "midi": 63,
      "hit": false,
      "t": 108000,
      "d": 575,
      "v": 104
    },
    {
      "midi": 68,
      "hit": false,
      "t": 108000,
      "d": 575,
      "v": 104
    },
    {
      "midi": 72,
      "hit": false,
      "t": 108000,
      "d": 575,
      "v": 104
    },
    {
      "midi": 44,
      "hit": false,
      "t": 108000,
      "d": 875,
      "v": 104
    },
    {
      "midi": 75,
      "hit": false,
      "t": 108000,
      "d": 1175,
      "v": 104
    },
    {
      "midi": 63,
      "hit": false,
      "t": 108600,
      "d": 575,
      "v": 104
    },
    {
      "midi": 68,
      "hit": false,
      "t": 108600,
      "d": 575,
      "v": 104
    },
    {
      "midi": 72,
      "hit": false,
      "t": 108600,
      "d": 575,
      "v": 104
    },
    {
      "midi": 44,
      "hit": false,
      "t": 108900,
      "d": 275,
      "v": 104
    },
    {
      "midi": 44,
      "hit": false,
      "t": 109200,
      "d": 575,
      "v": 104
    },
    {
      "midi": 63,
      "hit": false,
      "t": 109200,
      "d": 575,
      "v": 104
    },
    {
      "midi": 68,
      "hit": false,
      "t": 109200,
      "d": 575,
      "v": 104
    },
    {
      "midi": 74,
      "hit": false,
      "t": 109200,
      "d": 575,
      "v": 104
    },
    {
      "midi": 45,
      "hit": false,
      "t": 109800,
      "d": 575,
      "v": 104
    },
    {
      "midi": 63,
      "hit": false,
      "t": 109800,
      "d": 575,
      "v": 104
    },
    {
      "midi": 66,
      "hit": false,
      "t": 109800,
      "d": 575,
      "v": 104
    },
    {
      "midi": 72,
      "hit": false,
      "t": 109800,
      "d": 575,
      "v": 104
    },
    {
      "midi": 72,
      "hit": false,
      "t": 110400,
      "d": 275,
      "v": 104
    },
    {
      "midi": 46,
      "hit": false,
      "t": 110400,
      "d": 875,
      "v": 104
    },
    {
      "midi": 63,
      "hit": false,
      "t": 110400,
      "d": 1175,
      "v": 104
    },
    {
      "midi": 67,
      "hit": false,
      "t": 110400,
      "d": 1175,
      "v": 104
    },
    {
      "midi": 70,
      "hit": false,
      "t": 110700,
      "d": 875,
      "v": 104
    },
    {
      "midi": 46,
      "hit": false,
      "t": 111300,
      "d": 275,
      "v": 104
    },
    {
      "midi": 67,
      "hit": false,
      "t": 111600,
      "d": 275,
      "v": 104
    },
    {
      "midi": 48,
      "hit": false,
      "t": 111600,
      "d": 575,
      "v": 104
    },
    {
      "midi": 58,
      "hit": false,
      "t": 111600,
      "d": 575,
      "v": 104
    },
    {
      "midi": 65,
      "hit": false,
      "t": 111600,
      "d": 1175,
      "v": 104
    },
    {
      "midi": 48,
      "hit": false,
      "t": 112200,
      "d": 575,
      "v": 104
    },
    {
      "midi": 64,
      "hit": false,
      "t": 112200,
      "d": 575,
      "v": 104
    },
    {
      "midi": 44,
      "hit": false,
      "t": 112800,
      "d": 1175,
      "v": 104
    },
    {
      "midi": 51,
      "hit": false,
      "t": 112800,
      "d": 1175,
      "v": 104
    },
    {
      "midi": 60,
      "hit": false,
      "t": 112800,
      "d": 1175,
      "v": 104
    },
    {
      "midi": 72,
      "hit": false,
      "t": 113400,
      "d": 275,
      "v": 104
    },
    {
      "midi": 75,
      "hit": false,
      "t": 113700,
      "d": 275,
      "v": 104
    },
    {
      "midi": 47,
      "hit": false,
      "t": 114000,
      "d": 575,
      "v": 104
    },
    {
      "midi": 67,
      "hit": false,
      "t": 114000,
      "d": 575,
      "v": 104
    },
    {
      "midi": 74,
      "hit": false,
      "t": 114000,
      "d": 575,
      "v": 104
    },
    {
      "midi": 77,
      "hit": false,
      "t": 114000,
      "d": 575,
      "v": 104
    },
    {
      "midi": 38,
      "hit": false,
      "t": 114600,
      "d": 575,
      "v": 104
    },
    {
      "midi": 50,
      "hit": false,
      "t": 114600,
      "d": 575,
      "v": 104
    },
    {
      "midi": 74,
      "hit": false,
      "t": 114600,
      "d": 575,
      "v": 104
    },
    {
      "midi": 77,
      "hit": false,
      "t": 114600,
      "d": 575,
      "v": 104
    },
    {
      "midi": 79,
      "hit": false,
      "t": 114600,
      "d": 575,
      "v": 104
    },
    {
      "midi": 83,
      "hit": false,
      "t": 114600,
      "d": 575,
      "v": 104
    },
    {
      "midi": 48,
      "hit": false,
      "t": 115200,
      "d": 575,
      "v": 104
    },
    {
      "midi": 63,
      "hit": false,
      "t": 115200,
      "d": 575,
      "v": 104
    },
    {
      "midi": 67,
      "hit": false,
      "t": 115200,
      "d": 575,
      "v": 104
    },
    {
      "midi": 72,
      "hit": false,
      "t": 115200,
      "d": 575,
      "v": 104
    },
    {
      "midi": 75,
      "hit": false,
      "t": 115200,
      "d": 1175,
      "v": 104
    },
    {
      "midi": 39,
      "hit": false,
      "t": 115800,
      "d": 575,
      "v": 104
    },
    {
      "midi": 63,
      "hit": false,
      "t": 115800,
      "d": 575,
      "v": 104
    },
    {
      "midi": 67,
      "hit": false,
      "t": 115800,
      "d": 575,
      "v": 104
    },
    {
      "midi": 72,
      "hit": false,
      "t": 115800,
      "d": 575,
      "v": 104
    },
    {
      "midi": 41,
      "hit": false,
      "t": 116400,
      "d": 575,
      "v": 104
    },
    {
      "midi": 70,
      "hit": false,
      "t": 116400,
      "d": 575,
      "v": 104
    },
    {
      "midi": 73,
      "hit": false,
      "t": 116400,
      "d": 575,
      "v": 104
    },
    {
      "midi": 79,
      "hit": false,
      "t": 116400,
      "d": 575,
      "v": 104
    },
    {
      "midi": 43,
      "hit": false,
      "t": 117000,
      "d": 575,
      "v": 104
    },
    {
      "midi": 65,
      "hit": false,
      "t": 117000,
      "d": 575,
      "v": 104
    },
    {
      "midi": 70,
      "hit": false,
      "t": 117000,
      "d": 575,
      "v": 104
    },
    {
      "midi": 73,
      "hit": false,
      "t": 117000,
      "d": 575,
      "v": 104
    },
    {
      "midi": 77,
      "hit": false,
      "t": 117000,
      "d": 575,
      "v": 104
    },
    {
      "midi": 63,
      "hit": false,
      "t": 117600,
      "d": 575,
      "v": 104
    },
    {
      "midi": 68,
      "hit": false,
      "t": 117600,
      "d": 575,
      "v": 104
    },
    {
      "midi": 72,
      "hit": false,
      "t": 117600,
      "d": 575,
      "v": 104
    },
    {
      "midi": 44,
      "hit": false,
      "t": 117600,
      "d": 875,
      "v": 104
    },
    {
      "midi": 75,
      "hit": false,
      "t": 117600,
      "d": 1175,
      "v": 104
    },
    {
      "midi": 63,
      "hit": false,
      "t": 118200,
      "d": 575,
      "v": 104
    },
    {
      "midi": 68,
      "hit": false,
      "t": 118200,
      "d": 575,
      "v": 104
    },
    {
      "midi": 72,
      "hit": false,
      "t": 118200,
      "d": 575,
      "v": 104
    },
    {
      "midi": 44,
      "hit": false,
      "t": 118500,
      "d": 275,
      "v": 104
    },
    {
      "midi": 44,
      "hit": false,
      "t": 118800,
      "d": 575,
      "v": 104
    },
    {
      "midi": 63,
      "hit": false,
      "t": 118800,
      "d": 575,
      "v": 104
    },
    {
      "midi": 68,
      "hit": false,
      "t": 118800,
      "d": 575,
      "v": 104
    },
    {
      "midi": 74,
      "hit": false,
      "t": 118800,
      "d": 575,
      "v": 104
    },
    {
      "midi": 45,
      "hit": false,
      "t": 119400,
      "d": 575,
      "v": 104
    },
    {
      "midi": 63,
      "hit": false,
      "t": 119400,
      "d": 575,
      "v": 104
    },
    {
      "midi": 66,
      "hit": false,
      "t": 119400,
      "d": 575,
      "v": 104
    },
    {
      "midi": 72,
      "hit": false,
      "t": 119400,
      "d": 575,
      "v": 104
    },
    {
      "midi": 72,
      "hit": false,
      "t": 120000,
      "d": 275,
      "v": 104
    },
    {
      "midi": 46,
      "hit": false,
      "t": 120000,
      "d": 875,
      "v": 104
    },
    {
      "midi": 63,
      "hit": false,
      "t": 120000,
      "d": 1175,
      "v": 104
    },
    {
      "midi": 67,
      "hit": false,
      "t": 120000,
      "d": 1175,
      "v": 104
    },
    {
      "midi": 70,
      "hit": false,
      "t": 120300,
      "d": 875,
      "v": 104
    },
    {
      "midi": 46,
      "hit": false,
      "t": 120900,
      "d": 275,
      "v": 104
    },
    {
      "midi": 72,
      "hit": false,
      "t": 121200,
      "d": 275,
      "v": 104
    },
    {
      "midi": 63,
      "hit": false,
      "t": 121200,
      "d": 575,
      "v": 104
    },
    {
      "midi": 67,
      "hit": false,
      "t": 121200,
      "d": 575,
      "v": 104
    },
    {
      "midi": 48,
      "hit": false,
      "t": 121200,
      "d": 875,
      "v": 104
    },
    {
      "midi": 75,
      "hit": false,
      "t": 121500,
      "d": 875,
      "v": 104
    },
    {
      "midi": 63,
      "hit": false,
      "t": 121800,
      "d": 575,
      "v": 104
    },
    {
      "midi": 67,
      "hit": false,
      "t": 121800,
      "d": 575,
      "v": 104
    },
    {
      "midi": 48,
      "hit": false,
      "t": 122100,
      "d": 275,
      "v": 104
    },
    {
      "midi": 44,
      "hit": false,
      "t": 122400,
      "d": 1175,
      "v": 104
    },
    {
      "midi": 68,
      "hit": false,
      "t": 123000,
      "d": 275,
      "v": 104
    },
    {
      "midi": 72,
      "hit": false,
      "t": 123000,
      "d": 275,
      "v": 104
    },
    {
      "midi": 75,
      "hit": false,
      "t": 123000,
      "d": 275,
      "v": 104
    },
    {
      "midi": 77,
      "hit": false,
      "t": 123300,
      "d": 275,
      "v": 104
    },
    {
      "midi": 67,
      "hit": false,
      "t": 123600,
      "d": 575,
      "v": 104
    },
    {
      "midi": 72,
      "hit": false,
      "t": 123600,
      "d": 575,
      "v": 104
    },
    {
      "midi": 75,
      "hit": false,
      "t": 123600,
      "d": 575,
      "v": 104
    },
    {
      "midi": 43,
      "hit": false,
      "t": 123600,
      "d": 875,
      "v": 104
    },
    {
      "midi": 67,
      "hit": false,
      "t": 124200,
      "d": 575,
      "v": 104
    },
    {
      "midi": 71,
      "hit": false,
      "t": 124200,
      "d": 575,
      "v": 104
    },
    {
      "midi": 74,
      "hit": false,
      "t": 124200,
      "d": 575,
      "v": 104
    },
    {
      "midi": 43,
      "hit": false,
      "t": 124500,
      "d": 275,
      "v": 104
    },
    {
      "midi": 63,
      "hit": false,
      "t": 124800,
      "d": 275,
      "v": 104
    },
    {
      "midi": 72,
      "hit": false,
      "t": 124800,
      "d": 275,
      "v": 104
    },
    {
      "midi": 48,
      "hit": false,
      "t": 124800,
      "d": 875,
      "v": 104
    },
    {
      "midi": 75,
      "hit": false,
      "t": 124800,
      "d": 1775,
      "v": 104
    },
    {
      "midi": 67,
      "hit": false,
      "t": 125100,
      "d": 275,
      "v": 104
    },
    {
      "midi": 63,
      "hit": false,
      "t": 125400,
      "d": 275,
      "v": 104
    },
    {
      "midi": 63,
      "hit": false,
      "t": 125700,
      "d": 575,
      "v": 104
    },
    {
      "midi": 67,
      "hit": false,
      "t": 125700,
      "d": 575,
      "v": 104
    },
    {
      "midi": 47,
      "hit": false,
      "t": 125700,
      "d": 875,
      "v": 104
    },
    {
      "midi": 63,
      "hit": false,
      "t": 126300,
      "d": 275,
      "v": 104
    },
    {
      "midi": 67,
      "hit": false,
      "t": 126300,
      "d": 275,
      "v": 104
    },
    {
      "midi": 75,
      "hit": false,
      "t": 126600,
      "d": 125,
      "v": 104
    },
    {
      "midi": 46,
      "hit": false,
      "t": 126600,
      "d": 575,
      "v": 104
    },
    {
      "midi": 77,
      "hit": false,
      "t": 126750,
      "d": 125,
      "v": 104
    },
    {
      "midi": 79,
      "hit": false,
      "t": 126900,
      "d": 275,
      "v": 104
    },
    {
      "midi": 69,
      "hit": false,
      "t": 127200,
      "d": 575,
      "v": 104
    },
    {
      "midi": 72,
      "hit": false,
      "t": 127200,
      "d": 575,
      "v": 104
    },
    {
      "midi": 41,
      "hit": false,
      "t": 127200,
      "d": 875,
      "v": 104
    },
    {
      "midi": 75,
      "hit": false,
      "t": 127200,
      "d": 1925,
      "v": 104
    },
    {
      "midi": 72,
      "hit": false,
      "t": 127800,
      "d": 275,
      "v": 104
    },
    {
      "midi": 63,
      "hit": false,
      "t": 128100,
      "d": 575,
      "v": 104
    },
    {
      "midi": 69,
      "hit": false,
      "t": 128100,
      "d": 575,
      "v": 104
    },
    {
      "midi": 72,
      "hit": false,
      "t": 128100,
      "d": 575,
      "v": 104
    },
    {
      "midi": 40,
      "hit": false,
      "t": 128100,
      "d": 875,
      "v": 104
    },
    {
      "midi": 63,
      "hit": false,
      "t": 128700,
      "d": 275,
      "v": 104
    },
    {
      "midi": 69,
      "hit": false,
      "t": 128700,
      "d": 275,
      "v": 104
    },
    {
      "midi": 72,
      "hit": false,
      "t": 128700,
      "d": 275,
      "v": 104
    },
    {
      "midi": 39,
      "hit": false,
      "t": 129000,
      "d": 575,
      "v": 104
    },
    {
      "midi": 69,
      "hit": false,
      "t": 129000,
      "d": 575,
      "v": 104
    },
    {
      "midi": 72,
      "hit": false,
      "t": 129000,
      "d": 575,
      "v": 104
    },
    {
      "midi": 79,
      "hit": false,
      "t": 129150,
      "d": 125,
      "v": 104
    },
    {
      "midi": 80,
      "hit": false,
      "t": 129300,
      "d": 275,
      "v": 104
    },
    {
      "midi": 67,
      "hit": false,
      "t": 129600,
      "d": 275,
      "v": 104
    },
    {
      "midi": 70,
      "hit": false,
      "t": 129600,
      "d": 275,
      "v": 104
    },
    {
      "midi": 75,
      "hit": false,
      "t": 129600,
      "d": 275,
      "v": 104
    },
    {
      "midi": 46,
      "hit": false,
      "t": 129600,
      "d": 875,
      "v": 104
    },
    {
      "midi": 79,
      "hit": false,
      "t": 129600,
      "d": 875,
      "v": 104
    },
    {
      "midi": 67,
      "hit": false,
      "t": 129900,
      "d": 275,
      "v": 104
    },
    {
      "midi": 70,
      "hit": false,
      "t": 129900,
      "d": 275,
      "v": 104
    },
    {
      "midi": 75,
      "hit": false,
      "t": 129900,
      "d": 275,
      "v": 104
    },
    {
      "midi": 67,
      "hit": false,
      "t": 130200,
      "d": 275,
      "v": 104
    },
    {
      "midi": 70,
      "hit": false,
      "t": 130200,
      "d": 275,
      "v": 104
    },
    {
      "midi": 75,
      "hit": false,
      "t": 130200,
      "d": 275,
      "v": 104
    },
    {
      "midi": 46,
      "hit": false,
      "t": 130500,
      "d": 275,
      "v": 104
    },
    {
      "midi": 70,
      "hit": false,
      "t": 130500,
      "d": 275,
      "v": 104
    },
    {
      "midi": 75,
      "hit": false,
      "t": 130500,
      "d": 275,
      "v": 104
    },
    {
      "midi": 79,
      "hit": false,
      "t": 130500,
      "d": 275,
      "v": 104
    },
    {
      "midi": 79,
      "hit": false,
      "t": 130800,
      "d": 275,
      "v": 104
    },
    {
      "midi": 46,
      "hit": false,
      "t": 130800,
      "d": 575,
      "v": 104
    },
    {
      "midi": 72,
      "hit": false,
      "t": 130800,
      "d": 575,
      "v": 104
    },
    {
      "midi": 75,
      "hit": false,
      "t": 130800,
      "d": 575,
      "v": 104
    },
    {
      "midi": 77,
      "hit": false,
      "t": 131100,
      "d": 275,
      "v": 104
    },
    {
      "midi": 75,
      "hit": false,
      "t": 131400,
      "d": 275,
      "v": 104
    },
    {
      "midi": 46,
      "hit": false,
      "t": 131400,
      "d": 575,
      "v": 104
    },
    {
      "midi": 67,
      "hit": false,
      "t": 131400,
      "d": 575,
      "v": 104
    },
    {
      "midi": 70,
      "hit": false,
      "t": 131400,
      "d": 575,
      "v": 104
    },
    {
      "midi": 74,
      "hit": false,
      "t": 131700,
      "d": 275,
      "v": 104
    },
    {
      "midi": 44,
      "hit": false,
      "t": 132000,
      "d": 275,
      "v": 104
    },
    {
      "midi": 48,
      "hit": false,
      "t": 132000,
      "d": 275,
      "v": 104
    },
    {
      "midi": 63,
      "hit": false,
      "t": 132000,
      "d": 575,
      "v": 104
    },
    {
      "midi": 68,
      "hit": false,
      "t": 132000,
      "d": 575,
      "v": 104
    },
    {
      "midi": 75,
      "hit": false,
      "t": 132000,
      "d": 1175,
      "v": 104
    },
    {
      "midi": 50,
      "hit": false,
      "t": 132300,
      "d": 275,
      "v": 104
    },
    {
      "midi": 51,
      "hit": false,
      "t": 132600,
      "d": 275,
      "v": 104
    },
    {
      "midi": 63,
      "hit": false,
      "t": 132600,
      "d": 875,
      "v": 104
    },
    {
      "midi": 68,
      "hit": false,
      "t": 132600,
      "d": 875,
      "v": 104
    },
    {
      "midi": 72,
      "hit": false,
      "t": 132600,
      "d": 875,
      "v": 104
    },
    {
      "midi": 53,
      "hit": false,
      "t": 132900,
      "d": 275,
      "v": 104
    },
    {
      "midi": 75,
      "hit": false,
      "t": 133200,
      "d": 575,
      "v": 104
    },
    {
      "midi": 48,
      "hit": false,
      "t": 133200,
      "d": 1175,
      "v": 104
    },
    {
      "midi": 55,
      "hit": false,
      "t": 133200,
      "d": 1175,
      "v": 104
    },
    {
      "midi": 63,
      "hit": false,
      "t": 133500,
      "d": 575,
      "v": 104
    },
    {
      "midi": 67,
      "hit": false,
      "t": 133500,
      "d": 575,
      "v": 104
    },
    {
      "midi": 72,
      "hit": false,
      "t": 133800,
      "d": 575,
      "v": 104
    },
    {
      "midi": 63,
      "hit": false,
      "t": 134100,
      "d": 275,
      "v": 104
    },
    {
      "midi": 67,
      "hit": false,
      "t": 134100,
      "d": 275,
      "v": 104
    },
    {
      "midi": 68,
      "hit": false,
      "t": 134400,
      "d": 275,
      "v": 104
    },
    {
      "midi": 72,
      "hit": false,
      "t": 134400,
      "d": 275,
      "v": 104
    },
    {
      "midi": 44,
      "hit": false,
      "t": 134400,
      "d": 1175,
      "v": 104
    },
    {
      "midi": 75,
      "hit": false,
      "t": 134400,
      "d": 1175,
      "v": 104
    },
    {
      "midi": 68,
      "hit": false,
      "t": 134700,
      "d": 275,
      "v": 104
    },
    {
      "midi": 72,
      "hit": false,
      "t": 134700,
      "d": 275,
      "v": 104
    },
    {
      "midi": 68,
      "hit": false,
      "t": 135000,
      "d": 275,
      "v": 104
    },
    {
      "midi": 72,
      "hit": false,
      "t": 135000,
      "d": 275,
      "v": 104
    },
    {
      "midi": 68,
      "hit": false,
      "t": 135300,
      "d": 275,
      "v": 104
    },
    {
      "midi": 72,
      "hit": false,
      "t": 135300,
      "d": 275,
      "v": 104
    },
    {
      "midi": 68,
      "hit": false,
      "t": 135600,
      "d": 275,
      "v": 104
    },
    {
      "midi": 71,
      "hit": false,
      "t": 135600,
      "d": 275,
      "v": 104
    },
    {
      "midi": 75,
      "hit": false,
      "t": 135600,
      "d": 875,
      "v": 104
    },
    {
      "midi": 44,
      "hit": false,
      "t": 135600,
      "d": 1175,
      "v": 104
    },
    {
      "midi": 68,
      "hit": false,
      "t": 135900,
      "d": 275,
      "v": 104
    },
    {
      "midi": 71,
      "hit": false,
      "t": 135900,
      "d": 275,
      "v": 104
    },
    {
      "midi": 68,
      "hit": false,
      "t": 136200,
      "d": 275,
      "v": 104
    },
    {
      "midi": 71,
      "hit": false,
      "t": 136200,
      "d": 275,
      "v": 104
    },
    {
      "midi": 68,
      "hit": false,
      "t": 136500,
      "d": 275,
      "v": 104
    },
    {
      "midi": 71,
      "hit": false,
      "t": 136500,
      "d": 275,
      "v": 104
    },
    {
      "midi": 75,
      "hit": false,
      "t": 136500,
      "d": 275,
      "v": 104
    },
    {
      "midi": 67,
      "hit": false,
      "t": 136800,
      "d": 275,
      "v": 104
    },
    {
      "midi": 70,
      "hit": false,
      "t": 136800,
      "d": 275,
      "v": 104
    },
    {
      "midi": 39,
      "hit": false,
      "t": 136800,
      "d": 875,
      "v": 104
    },
    {
      "midi": 75,
      "hit": false,
      "t": 136800,
      "d": 1175,
      "v": 104
    },
    {
      "midi": 67,
      "hit": false,
      "t": 137100,
      "d": 275,
      "v": 104
    },
    {
      "midi": 70,
      "hit": false,
      "t": 137100,
      "d": 275,
      "v": 104
    },
    {
      "midi": 67,
      "hit": false,
      "t": 137400,
      "d": 575,
      "v": 104
    },
    {
      "midi": 70,
      "hit": false,
      "t": 137400,
      "d": 725,
      "v": 104
    },
    {
      "midi": 39,
      "hit": false,
      "t": 137700,
      "d": 275,
      "v": 104
    },
    {
      "midi": 39,
      "hit": false,
      "t": 138000,
      "d": 1175,
      "v": 104
    },
    {
      "midi": 63,
      "hit": false,
      "t": 138150,
      "d": 125,
      "v": 104
    },
    {
      "midi": 67,
      "hit": false,
      "t": 138150,
      "d": 125,
      "v": 104
    },
    {
      "midi": 62,
      "hit": false,
      "t": 138300,
      "d": 575,
      "v": 104
    },
    {
      "midi": 65,
      "hit": false,
      "t": 138300,
      "d": 575,
      "v": 104
    },
    {
      "midi": 61,
      "hit": false,
      "t": 138900,
      "d": 275,
      "v": 104
    },
    {
      "midi": 63,
      "hit": false,
      "t": 138900,
      "d": 275,
      "v": 104
    },
    {
      "midi": 60,
      "hit": false,
      "t": 139200,
      "d": 425,
      "v": 104
    },
    {
      "midi": 63,
      "hit": false,
      "t": 139200,
      "d": 875,
      "v": 104
    },
    {
      "midi": 58,
      "hit": false,
      "t": 139650,
      "d": 125,
      "v": 104
    },
    {
      "midi": 44,
      "hit": false,
      "t": 139800,
      "d": 275,
      "v": 104
    },
    {
      "midi": 44,
      "hit": false,
      "t": 140100,
      "d": 275,
      "v": 104
    },
    {
      "midi": 60,
      "hit": false,
      "t": 140100,
      "d": 875,
      "v": 104
    },
    {
      "midi": 63,
      "hit": false,
      "t": 140100,
      "d": 875,
      "v": 104
    },
    {
      "midi": 44,
      "hit": false,
      "t": 140400,
      "d": 1175,
      "v": 104
    },
    {
      "midi": 72,
      "hit": false,
      "t": 141000,
      "d": 275,
      "v": 104
    },
    {
      "midi": 72,
      "hit": false,
      "t": 141300,
      "d": 275,
      "v": 104
    },
    {
      "midi": 63,
      "hit": false,
      "t": 141600,
      "d": 575,
      "v": 104
    },
    {
      "midi": 67,
      "hit": false,
      "t": 141600,
      "d": 575,
      "v": 104
    },
    {
      "midi": 39,
      "hit": false,
      "t": 141600,
      "d": 875,
      "v": 104
    },
    {
      "midi": 58,
      "hit": false,
      "t": 141600,
      "d": 875,
      "v": 104
    },
    {
      "midi": 65,
      "hit": false,
      "t": 142200,
      "d": 275,
      "v": 104
    },
    {
      "midi": 63,
      "hit": false,
      "t": 142500,
      "d": 75,
      "v": 104
    },
    {
      "midi": 58,
      "hit": false,
      "t": 142500,
      "d": 275,
      "v": 104
    },
    {
      "midi": 39,
      "hit": false,
      "t": 142500,
      "d": 575,
      "v": 104
    },
    {
      "midi": 58,
      "hit": false,
      "t": 142800,
      "d": 575,
      "v": 104
    },
    {
      "midi": 39,
      "hit": false,
      "t": 143100,
      "d": 875,
      "v": 104
    },
    {
      "midi": 55,
      "hit": false,
      "t": 143400,
      "d": 275,
      "v": 104
    },
    {
      "midi": 58,
      "hit": false,
      "t": 143400,
      "d": 275,
      "v": 104
    },
    {
      "midi": 44,
      "hit": false,
      "t": 143700,
      "d": 2075,
      "v": 104
    },
    {
      "midi": 60,
      "hit": false,
      "t": 143700,
      "d": 2075,
      "v": 104
    },
    {
      "midi": 39,
      "hit": false,
      "t": 144000,
      "d": 875,
      "v": 104
    },
    {
      "midi": 39,
      "hit": false,
      "t": 144900,
      "d": 575,
      "v": 104
    },
    {
      "midi": 39,
      "hit": false,
      "t": 145500,
      "d": 875,
      "v": 104
    },
    {
      "midi": 68,
      "hit": false,
      "t": 145800,
      "d": 275,
      "v": 104
    },
    {
      "midi": 60,
      "hit": false,
      "t": 145800,
      "d": 575,
      "v": 104
    },
    {
      "midi": 63,
      "hit": false,
      "t": 145800,
      "d": 575,
      "v": 104
    },
    {
      "midi": 70,
      "hit": false,
      "t": 146100,
      "d": 875,
      "v": 104
    },
    {
      "midi": 39,
      "hit": false,
      "t": 146400,
      "d": 875,
      "v": 104
    },
    {
      "midi": 58,
      "hit": false,
      "t": 146400,
      "d": 875,
      "v": 104
    },
    {
      "midi": 63,
      "hit": false,
      "t": 146400,
      "d": 875,
      "v": 104
    },
    {
      "midi": 67,
      "hit": false,
      "t": 147000,
      "d": 1775,
      "v": 104
    },
    {
      "midi": 39,
      "hit": false,
      "t": 147300,
      "d": 575,
      "v": 104
    },
    {
      "midi": 58,
      "hit": false,
      "t": 147300,
      "d": 875,
      "v": 104
    },
    {
      "midi": 63,
      "hit": false,
      "t": 147300,
      "d": 875,
      "v": 104
    },
    {
      "midi": 39,
      "hit": false,
      "t": 147900,
      "d": 875,
      "v": 104
    },
    {
      "midi": 58,
      "hit": false,
      "t": 148200,
      "d": 275,
      "v": 104
    },
    {
      "midi": 65,
      "hit": false,
      "t": 148200,
      "d": 275,
      "v": 104
    },
    {
      "midi": 63,
      "hit": false,
      "t": 148500,
      "d": 275,
      "v": 104
    },
    {
      "midi": 60,
      "hit": false,
      "t": 148800,
      "d": 575,
      "v": 104
    },
    {
      "midi": 63,
      "hit": false,
      "t": 148800,
      "d": 575,
      "v": 104
    },
    {
      "midi": 44,
      "hit": false,
      "t": 148800,
      "d": 875,
      "v": 104
    },
    {
      "midi": 63,
      "hit": false,
      "t": 149400,
      "d": 575,
      "v": 104
    },
    {
      "midi": 67,
      "hit": false,
      "t": 149400,
      "d": 575,
      "v": 104
    },
    {
      "midi": 72,
      "hit": false,
      "t": 149400,
      "d": 575,
      "v": 104
    },
    {
      "midi": 44,
      "hit": false,
      "t": 149700,
      "d": 275,
      "v": 104
    },
    {
      "midi": 65,
      "hit": false,
      "t": 150000,
      "d": 575,
      "v": 104
    },
    {
      "midi": 68,
      "hit": false,
      "t": 150000,
      "d": 575,
      "v": 104
    },
    {
      "midi": 73,
      "hit": false,
      "t": 150000,
      "d": 575,
      "v": 104
    },
    {
      "midi": 44,
      "hit": false,
      "t": 150000,
      "d": 1175,
      "v": 104
    },
    {
      "midi": 63,
      "hit": false,
      "t": 150600,
      "d": 575,
      "v": 104
    },
    {
      "midi": 68,
      "hit": false,
      "t": 150600,
      "d": 575,
      "v": 104
    },
    {
      "midi": 72,
      "hit": false,
      "t": 150600,
      "d": 575,
      "v": 104
    },
    {
      "midi": 39,
      "hit": false,
      "t": 151200,
      "d": 875,
      "v": 104
    },
    {
      "midi": 63,
      "hit": false,
      "t": 151200,
      "d": 875,
      "v": 104
    },
    {
      "midi": 67,
      "hit": false,
      "t": 151200,
      "d": 875,
      "v": 104
    },
    {
      "midi": 70,
      "hit": false,
      "t": 151200,
      "d": 1775,
      "v": 104
    },
    {
      "midi": 39,
      "hit": false,
      "t": 152100,
      "d": 575,
      "v": 104
    },
    {
      "midi": 63,
      "hit": false,
      "t": 152100,
      "d": 875,
      "v": 104
    },
    {
      "midi": 67,
      "hit": false,
      "t": 152100,
      "d": 875,
      "v": 104
    },
    {
      "midi": 39,
      "hit": false,
      "t": 152700,
      "d": 875,
      "v": 104
    },
    {
      "midi": 63,
      "hit": false,
      "t": 153000,
      "d": 275,
      "v": 104
    },
    {
      "midi": 67,
      "hit": false,
      "t": 153000,
      "d": 275,
      "v": 104
    },
    {
      "midi": 75,
      "hit": false,
      "t": 153000,
      "d": 275,
      "v": 104
    },
    {
      "midi": 63,
      "hit": false,
      "t": 153300,
      "d": 875,
      "v": 104
    },
    {
      "midi": 68,
      "hit": false,
      "t": 153300,
      "d": 875,
      "v": 104
    },
    {
      "midi": 72,
      "hit": false,
      "t": 153300,
      "d": 2075,
      "v": 104
    },
    {
      "midi": 44,
      "hit": false,
      "t": 153600,
      "d": 1175,
      "v": 104
    },
    {
      "midi": 63,
      "hit": false,
      "t": 154200,
      "d": 575,
      "v": 104
    },
    {
      "midi": 68,
      "hit": false,
      "t": 154200,
      "d": 575,
      "v": 104
    },
    {
      "midi": 63,
      "hit": false,
      "t": 154800,
      "d": 575,
      "v": 104
    },
    {
      "midi": 68,
      "hit": false,
      "t": 154800,
      "d": 575,
      "v": 104
    },
    {
      "midi": 44,
      "hit": false,
      "t": 154800,
      "d": 1175,
      "v": 104
    },
    {
      "midi": 63,
      "hit": false,
      "t": 155400,
      "d": 575,
      "v": 104
    },
    {
      "midi": 68,
      "hit": false,
      "t": 155400,
      "d": 575,
      "v": 104
    },
    {
      "midi": 72,
      "hit": false,
      "t": 155400,
      "d": 575,
      "v": 104
    },
    {
      "midi": 63,
      "hit": false,
      "t": 156000,
      "d": 275,
      "v": 104
    },
    {
      "midi": 67,
      "hit": false,
      "t": 156000,
      "d": 275,
      "v": 104
    },
    {
      "midi": 70,
      "hit": false,
      "t": 156000,
      "d": 275,
      "v": 104
    },
    {
      "midi": 39,
      "hit": false,
      "t": 156000,
      "d": 1175,
      "v": 104
    },
    {
      "midi": 67,
      "hit": false,
      "t": 156300,
      "d": 125,
      "v": 104
    },
    {
      "midi": 65,
      "hit": false,
      "t": 156450,
      "d": 125,
      "v": 104
    },
    {
      "midi": 58,
      "hit": false,
      "t": 156600,
      "d": 575,
      "v": 104
    },
    {
      "midi": 63,
      "hit": false,
      "t": 156600,
      "d": 1475,
      "v": 104
    },
    {
      "midi": 56,
      "hit": false,
      "t": 157200,
      "d": 875,
      "v": 104
    },
    {
      "midi": 60,
      "hit": false,
      "t": 157200,
      "d": 875,
      "v": 104
    },
    {
      "midi": 44,
      "hit": false,
      "t": 157200,
      "d": 1175,
      "v": 104
    },
    {
      "midi": 72,
      "hit": false,
      "t": 158100,
      "d": 275,
      "v": 104
    },
    {
      "midi": 63,
      "hit": false,
      "t": 158400,
      "d": 275,
      "v": 104
    },
    {
      "midi": 70,
      "hit": false,
      "t": 158400,
      "d": 275,
      "v": 104
    },
    {
      "midi": 39,
      "hit": false,
      "t": 158400,
      "d": 875,
      "v": 104
    },
    {
      "midi": 67,
      "hit": false,
      "t": 158700,
      "d": 275,
      "v": 104
    },
    {
      "midi": 65,
      "hit": false,
      "t": 159000,
      "d": 275,
      "v": 104
    },
    {
      "midi": 44,
      "hit": false,
      "t": 159300,
      "d": 575,
      "v": 104
    },
    {
      "midi": 56,
      "hit": false,
      "t": 159300,
      "d": 575,
      "v": 104
    },
    {
      "midi": 60,
      "hit": false,
      "t": 159300,
      "d": 575,
      "v": 104
    },
    {
      "midi": 63,
      "hit": false,
      "t": 159300,
      "d": 2075,
      "v": 104
    },
    {
      "midi": 44,
      "hit": false,
      "t": 159900,
      "d": 275,
      "v": 104
    },
    {
      "midi": 60,
      "hit": false,
      "t": 159900,
      "d": 275,
      "v": 104
    },
    {
      "midi": 43,
      "hit": false,
      "t": 160200,
      "d": 275,
      "v": 104
    },
    {
      "midi": 58,
      "hit": false,
      "t": 160200,
      "d": 275,
      "v": 104
    },
    {
      "midi": 41,
      "hit": false,
      "t": 160500,
      "d": 275,
      "v": 104
    },
    {
      "midi": 56,
      "hit": false,
      "t": 160500,
      "d": 275,
      "v": 104
    },
    {
      "midi": 39,
      "hit": false,
      "t": 160800,
      "d": 575,
      "v": 104
    },
    {
      "midi": 55,
      "hit": false,
      "t": 160800,
      "d": 575,
      "v": 104
    },
    {
      "midi": 39,
      "hit": false,
      "t": 161400,
      "d": 575,
      "v": 104
    },
    {
      "midi": 58,
      "hit": false,
      "t": 161400,
      "d": 575,
      "v": 104
    },
    {
      "midi": 63,
      "hit": false,
      "t": 161400,
      "d": 575,
      "v": 104
    },
    {
      "midi": 67,
      "hit": false,
      "t": 161400,
      "d": 575,
      "v": 104
    },
    {
      "midi": 38,
      "hit": false,
      "t": 162000,
      "d": 575,
      "v": 104
    },
    {
      "midi": 58,
      "hit": false,
      "t": 162000,
      "d": 575,
      "v": 104
    },
    {
      "midi": 65,
      "hit": false,
      "t": 162000,
      "d": 575,
      "v": 104
    },
    {
      "midi": 60,
      "hit": false,
      "t": 162600,
      "d": 275,
      "v": 104
    },
    {
      "midi": 63,
      "hit": false,
      "t": 162600,
      "d": 275,
      "v": 104
    },
    {
      "midi": 36,
      "hit": false,
      "t": 162600,
      "d": 575,
      "v": 104
    },
    {
      "midi": 62,
      "hit": false,
      "t": 162900,
      "d": 575,
      "v": 104
    },
    {
      "midi": 65,
      "hit": false,
      "t": 162900,
      "d": 2375,
      "v": 104
    },
    {
      "midi": 46,
      "hit": false,
      "t": 163200,
      "d": 875,
      "v": 104
    },
    {
      "midi": 62,
      "hit": false,
      "t": 163500,
      "d": 125,
      "v": 104
    },
    {
      "midi": 58,
      "hit": false,
      "t": 163650,
      "d": 125,
      "v": 104
    },
    {
      "midi": 53,
      "hit": false,
      "t": 163800,
      "d": 275,
      "v": 104
    },
    {
      "midi": 58,
      "hit": false,
      "t": 164100,
      "d": 575,
      "v": 104
    },
    {
      "midi": 62,
      "hit": false,
      "t": 164100,
      "d": 575,
      "v": 104
    },
    {
      "midi": 46,
      "hit": false,
      "t": 164100,
      "d": 1175,
      "v": 104
    },
    {
      "midi": 62,
      "hit": false,
      "t": 164700,
      "d": 125,
      "v": 104
    },
    {
      "midi": 58,
      "hit": false,
      "t": 164850,
      "d": 125,
      "v": 104
    },
    {
      "midi": 53,
      "hit": false,
      "t": 165000,
      "d": 275,
      "v": 104
    },
    {
      "midi": 46,
      "hit": false,
      "t": 165300,
      "d": 275,
      "v": 104
    },
    {
      "midi": 62,
      "hit": false,
      "t": 165300,
      "d": 575,
      "v": 104
    },
    {
      "midi": 65,
      "hit": false,
      "t": 165300,
      "d": 575,
      "v": 104
    },
    {
      "midi": 70,
      "hit": false,
      "t": 165300,
      "d": 1175,
      "v": 104
    },
    {
      "midi": 46,
      "hit": false,
      "t": 165600,
      "d": 875,
      "v": 104
    },
    {
      "midi": 65,
      "hit": false,
      "t": 165900,
      "d": 125,
      "v": 104
    },
    {
      "midi": 62,
      "hit": false,
      "t": 166050,
      "d": 125,
      "v": 104
    },
    {
      "midi": 58,
      "hit": false,
      "t": 166200,
      "d": 275,
      "v": 104
    },
    {
      "midi": 46,
      "hit": false,
      "t": 166500,
      "d": 275,
      "v": 104
    },
    {
      "midi": 53,
      "hit": false,
      "t": 166500,
      "d": 275,
      "v": 104
    },
    {
      "midi": 62,
      "hit": false,
      "t": 166500,
      "d": 275,
      "v": 104
    },
    {
      "midi": 70,
      "hit": false,
      "t": 166500,
      "d": 275,
      "v": 104
    },
    {
      "midi": 46,
      "hit": false,
      "t": 166800,
      "d": 375,
      "v": 104
    },
    {
      "midi": 58,
      "hit": false,
      "t": 166800,
      "d": 375,
      "v": 104
    },
    {
      "midi": 62,
      "hit": false,
      "t": 166800,
      "d": 375,
      "v": 104
    },
    {
      "midi": 67,
      "hit": false,
      "t": 166800,
      "d": 375,
      "v": 104
    },
    {
      "midi": 36,
      "hit": false,
      "t": 167200,
      "d": 375,
      "v": 104
    },
    {
      "midi": 56,
      "hit": false,
      "t": 167200,
      "d": 375,
      "v": 104
    },
    {
      "midi": 60,
      "hit": false,
      "t": 167200,
      "d": 375,
      "v": 104
    },
    {
      "midi": 65,
      "hit": false,
      "t": 167200,
      "d": 375,
      "v": 104
    },
    {
      "midi": 38,
      "hit": false,
      "t": 167600,
      "d": 375,
      "v": 104
    },
    {
      "midi": 56,
      "hit": false,
      "t": 167600,
      "d": 375,
      "v": 104
    },
    {
      "midi": 60,
      "hit": false,
      "t": 167600,
      "d": 375,
      "v": 104
    },
    {
      "midi": 63,
      "hit": false,
      "t": 167600,
      "d": 375,
      "v": 104
    },
    {
      "midi": 63,
      "hit": false,
      "t": 168000,
      "d": 425,
      "v": 104
    },
    {
      "midi": 55,
      "hit": false,
      "t": 168000,
      "d": 575,
      "v": 104
    },
    {
      "midi": 58,
      "hit": false,
      "t": 168000,
      "d": 575,
      "v": 104
    },
    {
      "midi": 39,
      "hit": false,
      "t": 168000,
      "d": 875,
      "v": 104
    },
    {
      "midi": 65,
      "hit": false,
      "t": 168450,
      "d": 125,
      "v": 104
    },
    {
      "midi": 58,
      "hit": false,
      "t": 168600,
      "d": 575,
      "v": 104
    },
    {
      "midi": 63,
      "hit": false,
      "t": 168600,
      "d": 575,
      "v": 104
    },
    {
      "midi": 67,
      "hit": false,
      "t": 168600,
      "d": 2375,
      "v": 104
    },
    {
      "midi": 39,
      "hit": false,
      "t": 168900,
      "d": 275,
      "v": 104
    },
    {
      "midi": 58,
      "hit": false,
      "t": 169200,
      "d": 575,
      "v": 104
    },
    {
      "midi": 63,
      "hit": false,
      "t": 169200,
      "d": 575,
      "v": 104
    },
    {
      "midi": 38,
      "hit": false,
      "t": 169200,
      "d": 875,
      "v": 104
    },
    {
      "midi": 58,
      "hit": false,
      "t": 169800,
      "d": 575,
      "v": 104
    },
    {
      "midi": 63,
      "hit": false,
      "t": 169800,
      "d": 575,
      "v": 104
    },
    {
      "midi": 38,
      "hit": false,
      "t": 170100,
      "d": 275,
      "v": 104
    },
    {
      "midi": 37,
      "hit": false,
      "t": 170400,
      "d": 575,
      "v": 104
    },
    {
      "midi": 58,
      "hit": false,
      "t": 170400,
      "d": 575,
      "v": 104
    },
    {
      "midi": 63,
      "hit": false,
      "t": 170400,
      "d": 575,
      "v": 104
    },
    {
      "midi": 39,
      "hit": false,
      "t": 171000,
      "d": 575,
      "v": 104
    },
    {
      "midi": 61,
      "hit": false,
      "t": 171000,
      "d": 575,
      "v": 104
    },
    {
      "midi": 67,
      "hit": false,
      "t": 171000,
      "d": 575,
      "v": 104
    },
    {
      "midi": 70,
      "hit": false,
      "t": 171000,
      "d": 575,
      "v": 104
    },
    {
      "midi": 41,
      "hit": false,
      "t": 171600,
      "d": 575,
      "v": 104
    },
    {
      "midi": 70,
      "hit": false,
      "t": 171600,
      "d": 575,
      "v": 104
    },
    {
      "midi": 73,
      "hit": false,
      "t": 171600,
      "d": 575,
      "v": 104
    },
    {
      "midi": 79,
      "hit": false,
      "t": 171600,
      "d": 575,
      "v": 104
    },
    {
      "midi": 43,
      "hit": false,
      "t": 172200,
      "d": 575,
      "v": 104
    },
    {
      "midi": 70,
      "hit": false,
      "t": 172200,
      "d": 575,
      "v": 104
    },
    {
      "midi": 74,
      "hit": false,
      "t": 172200,
      "d": 575,
      "v": 104
    },
    {
      "midi": 77,
      "hit": false,
      "t": 172200,
      "d": 575,
      "v": 104
    },
    {
      "midi": 68,
      "hit": false,
      "t": 172800,
      "d": 575,
      "v": 104
    },
    {
      "midi": 72,
      "hit": false,
      "t": 172800,
      "d": 575,
      "v": 104
    },
    {
      "midi": 44,
      "hit": false,
      "t": 172800,
      "d": 875,
      "v": 104
    },
    {
      "midi": 75,
      "hit": false,
      "t": 172800,
      "d": 1175,
      "v": 104
    },
    {
      "midi": 63,
      "hit": false,
      "t": 173400,
      "d": 575,
      "v": 104
    },
    {
      "midi": 68,
      "hit": false,
      "t": 173400,
      "d": 575,
      "v": 104
    },
    {
      "midi": 72,
      "hit": false,
      "t": 173400,
      "d": 575,
      "v": 104
    },
    {
      "midi": 44,
      "hit": false,
      "t": 173700,
      "d": 275,
      "v": 104
    },
    {
      "midi": 69,
      "hit": false,
      "t": 174000,
      "d": 575,
      "v": 104
    },
    {
      "midi": 72,
      "hit": false,
      "t": 174000,
      "d": 575,
      "v": 104
    },
    {
      "midi": 77,
      "hit": false,
      "t": 174000,
      "d": 875,
      "v": 104
    },
    {
      "midi": 41,
      "hit": false,
      "t": 174000,
      "d": 1175,
      "v": 104
    },
    {
      "midi": 69,
      "hit": false,
      "t": 174600,
      "d": 275,
      "v": 104
    },
    {
      "midi": 72,
      "hit": false,
      "t": 174600,
      "d": 275,
      "v": 104
    },
    {
      "midi": 70,
      "hit": false,
      "t": 174900,
      "d": 875,
      "v": 104
    },
    {
      "midi": 74,
      "hit": false,
      "t": 174900,
      "d": 875,
      "v": 104
    },
    {
      "midi": 77,
      "hit": false,
      "t": 174900,
      "d": 1475,
      "v": 104
    },
    {
      "midi": 46,
      "hit": false,
      "t": 175200,
      "d": 575,
      "v": 104
    },
    {
      "midi": 46,
      "hit": false,
      "t": 175800,
      "d": 275,
      "v": 104
    },
    {
      "midi": 65,
      "hit": false,
      "t": 175800,
      "d": 575,
      "v": 104
    },
    {
      "midi": 70,
      "hit": false,
      "t": 175800,
      "d": 575,
      "v": 104
    },
    {
      "midi": 74,
      "hit": false,
      "t": 175800,
      "d": 575,
      "v": 104
    },
    {
      "midi": 38,
      "hit": false,
      "t": 176100,
      "d": 275,
      "v": 104
    },
    {
      "midi": 39,
      "hit": false,
      "t": 176400,
      "d": 575,
      "v": 104
    },
    {
      "midi": 67,
      "hit": false,
      "t": 176400,
      "d": 575,
      "v": 104
    },
    {
      "midi": 70,
      "hit": false,
      "t": 176400,
      "d": 575,
      "v": 104
    },
    {
      "midi": 73,
      "hit": false,
      "t": 176400,
      "d": 575,
      "v": 104
    },
    {
      "midi": 79,
      "hit": false,
      "t": 176400,
      "d": 575,
      "v": 104
    },
    {
      "midi": 43,
      "hit": false,
      "t": 177000,
      "d": 575,
      "v": 104
    },
    {
      "midi": 65,
      "hit": false,
      "t": 177000,
      "d": 575,
      "v": 104
    },
    {
      "midi": 70,
      "hit": false,
      "t": 177000,
      "d": 575,
      "v": 104
    },
    {
      "midi": 73,
      "hit": false,
      "t": 177000,
      "d": 575,
      "v": 104
    },
    {
      "midi": 77,
      "hit": false,
      "t": 177000,
      "d": 575,
      "v": 104
    },
    {
      "midi": 63,
      "hit": false,
      "t": 177600,
      "d": 575,
      "v": 104
    },
    {
      "midi": 68,
      "hit": false,
      "t": 177600,
      "d": 575,
      "v": 104
    },
    {
      "midi": 72,
      "hit": false,
      "t": 177600,
      "d": 575,
      "v": 104
    },
    {
      "midi": 44,
      "hit": false,
      "t": 177600,
      "d": 875,
      "v": 104
    },
    {
      "midi": 75,
      "hit": false,
      "t": 177600,
      "d": 1175,
      "v": 104
    },
    {
      "midi": 63,
      "hit": false,
      "t": 178200,
      "d": 575,
      "v": 104
    },
    {
      "midi": 68,
      "hit": false,
      "t": 178200,
      "d": 575,
      "v": 104
    },
    {
      "midi": 72,
      "hit": false,
      "t": 178200,
      "d": 575,
      "v": 104
    },
    {
      "midi": 44,
      "hit": false,
      "t": 178500,
      "d": 275,
      "v": 104
    },
    {
      "midi": 44,
      "hit": false,
      "t": 178800,
      "d": 575,
      "v": 104
    },
    {
      "midi": 63,
      "hit": false,
      "t": 178800,
      "d": 575,
      "v": 104
    },
    {
      "midi": 68,
      "hit": false,
      "t": 178800,
      "d": 575,
      "v": 104
    },
    {
      "midi": 74,
      "hit": false,
      "t": 178800,
      "d": 575,
      "v": 104
    },
    {
      "midi": 45,
      "hit": false,
      "t": 179400,
      "d": 575,
      "v": 104
    },
    {
      "midi": 63,
      "hit": false,
      "t": 179400,
      "d": 575,
      "v": 104
    },
    {
      "midi": 66,
      "hit": false,
      "t": 179400,
      "d": 575,
      "v": 104
    },
    {
      "midi": 72,
      "hit": false,
      "t": 179400,
      "d": 575,
      "v": 104
    },
    {
      "midi": 72,
      "hit": false,
      "t": 180000,
      "d": 275,
      "v": 104
    },
    {
      "midi": 46,
      "hit": false,
      "t": 180000,
      "d": 875,
      "v": 104
    },
    {
      "midi": 63,
      "hit": false,
      "t": 180000,
      "d": 1175,
      "v": 104
    },
    {
      "midi": 67,
      "hit": false,
      "t": 180000,
      "d": 1175,
      "v": 104
    },
    {
      "midi": 70,
      "hit": false,
      "t": 180300,
      "d": 875,
      "v": 104
    },
    {
      "midi": 46,
      "hit": false,
      "t": 180900,
      "d": 275,
      "v": 104
    },
    {
      "midi": 67,
      "hit": false,
      "t": 181200,
      "d": 275,
      "v": 104
    },
    {
      "midi": 48,
      "hit": false,
      "t": 181200,
      "d": 575,
      "v": 104
    },
    {
      "midi": 58,
      "hit": false,
      "t": 181200,
      "d": 575,
      "v": 104
    },
    {
      "midi": 65,
      "hit": false,
      "t": 181200,
      "d": 1175,
      "v": 104
    },
    {
      "midi": 48,
      "hit": false,
      "t": 181800,
      "d": 575,
      "v": 104
    },
    {
      "midi": 64,
      "hit": false,
      "t": 181800,
      "d": 575,
      "v": 104
    },
    {
      "midi": 44,
      "hit": false,
      "t": 182400,
      "d": 1175,
      "v": 104
    },
    {
      "midi": 51,
      "hit": false,
      "t": 182400,
      "d": 1175,
      "v": 104
    },
    {
      "midi": 60,
      "hit": false,
      "t": 182400,
      "d": 1175,
      "v": 104
    },
    {
      "midi": 72,
      "hit": false,
      "t": 183000,
      "d": 275,
      "v": 104
    },
    {
      "midi": 75,
      "hit": false,
      "t": 183300,
      "d": 275,
      "v": 104
    },
    {
      "midi": 47,
      "hit": false,
      "t": 183600,
      "d": 575,
      "v": 104
    },
    {
      "midi": 67,
      "hit": false,
      "t": 183600,
      "d": 575,
      "v": 104
    },
    {
      "midi": 74,
      "hit": false,
      "t": 183600,
      "d": 575,
      "v": 104
    },
    {
      "midi": 77,
      "hit": false,
      "t": 183600,
      "d": 575,
      "v": 104
    },
    {
      "midi": 38,
      "hit": false,
      "t": 184200,
      "d": 575,
      "v": 104
    },
    {
      "midi": 50,
      "hit": false,
      "t": 184200,
      "d": 575,
      "v": 104
    },
    {
      "midi": 74,
      "hit": false,
      "t": 184200,
      "d": 575,
      "v": 104
    },
    {
      "midi": 77,
      "hit": false,
      "t": 184200,
      "d": 575,
      "v": 104
    },
    {
      "midi": 79,
      "hit": false,
      "t": 184200,
      "d": 575,
      "v": 104
    },
    {
      "midi": 83,
      "hit": false,
      "t": 184200,
      "d": 575,
      "v": 104
    },
    {
      "midi": 48,
      "hit": false,
      "t": 184800,
      "d": 575,
      "v": 104
    },
    {
      "midi": 63,
      "hit": false,
      "t": 184800,
      "d": 575,
      "v": 104
    },
    {
      "midi": 67,
      "hit": false,
      "t": 184800,
      "d": 575,
      "v": 104
    },
    {
      "midi": 72,
      "hit": false,
      "t": 184800,
      "d": 575,
      "v": 104
    },
    {
      "midi": 75,
      "hit": false,
      "t": 184800,
      "d": 1175,
      "v": 104
    },
    {
      "midi": 39,
      "hit": false,
      "t": 185400,
      "d": 575,
      "v": 104
    },
    {
      "midi": 63,
      "hit": false,
      "t": 185400,
      "d": 575,
      "v": 104
    },
    {
      "midi": 67,
      "hit": false,
      "t": 185400,
      "d": 575,
      "v": 104
    },
    {
      "midi": 72,
      "hit": false,
      "t": 185400,
      "d": 575,
      "v": 104
    },
    {
      "midi": 41,
      "hit": false,
      "t": 186000,
      "d": 575,
      "v": 104
    },
    {
      "midi": 70,
      "hit": false,
      "t": 186000,
      "d": 575,
      "v": 104
    },
    {
      "midi": 73,
      "hit": false,
      "t": 186000,
      "d": 575,
      "v": 104
    },
    {
      "midi": 79,
      "hit": false,
      "t": 186000,
      "d": 575,
      "v": 104
    },
    {
      "midi": 43,
      "hit": false,
      "t": 186600,
      "d": 575,
      "v": 104
    },
    {
      "midi": 65,
      "hit": false,
      "t": 186600,
      "d": 575,
      "v": 104
    },
    {
      "midi": 70,
      "hit": false,
      "t": 186600,
      "d": 575,
      "v": 104
    },
    {
      "midi": 73,
      "hit": false,
      "t": 186600,
      "d": 575,
      "v": 104
    },
    {
      "midi": 77,
      "hit": false,
      "t": 186600,
      "d": 575,
      "v": 104
    },
    {
      "midi": 63,
      "hit": false,
      "t": 187200,
      "d": 575,
      "v": 104
    },
    {
      "midi": 68,
      "hit": false,
      "t": 187200,
      "d": 575,
      "v": 104
    },
    {
      "midi": 72,
      "hit": false,
      "t": 187200,
      "d": 575,
      "v": 104
    },
    {
      "midi": 44,
      "hit": false,
      "t": 187200,
      "d": 875,
      "v": 104
    },
    {
      "midi": 75,
      "hit": false,
      "t": 187200,
      "d": 1175,
      "v": 104
    },
    {
      "midi": 63,
      "hit": false,
      "t": 187800,
      "d": 575,
      "v": 104
    },
    {
      "midi": 68,
      "hit": false,
      "t": 187800,
      "d": 575,
      "v": 104
    },
    {
      "midi": 72,
      "hit": false,
      "t": 187800,
      "d": 575,
      "v": 104
    },
    {
      "midi": 44,
      "hit": false,
      "t": 188100,
      "d": 275,
      "v": 104
    },
    {
      "midi": 44,
      "hit": false,
      "t": 188400,
      "d": 575,
      "v": 104
    },
    {
      "midi": 63,
      "hit": false,
      "t": 188400,
      "d": 575,
      "v": 104
    },
    {
      "midi": 68,
      "hit": false,
      "t": 188400,
      "d": 575,
      "v": 104
    },
    {
      "midi": 74,
      "hit": false,
      "t": 188400,
      "d": 575,
      "v": 104
    },
    {
      "midi": 45,
      "hit": false,
      "t": 189000,
      "d": 575,
      "v": 104
    },
    {
      "midi": 63,
      "hit": false,
      "t": 189000,
      "d": 575,
      "v": 104
    },
    {
      "midi": 66,
      "hit": false,
      "t": 189000,
      "d": 575,
      "v": 104
    },
    {
      "midi": 72,
      "hit": false,
      "t": 189000,
      "d": 575,
      "v": 104
    },
    {
      "midi": 72,
      "hit": false,
      "t": 189600,
      "d": 275,
      "v": 104
    },
    {
      "midi": 46,
      "hit": false,
      "t": 189600,
      "d": 875,
      "v": 104
    },
    {
      "midi": 63,
      "hit": false,
      "t": 189600,
      "d": 1175,
      "v": 104
    },
    {
      "midi": 67,
      "hit": false,
      "t": 189600,
      "d": 1175,
      "v": 104
    },
    {
      "midi": 70,
      "hit": false,
      "t": 189900,
      "d": 875,
      "v": 104
    },
    {
      "midi": 46,
      "hit": false,
      "t": 190500,
      "d": 275,
      "v": 104
    },
    {
      "midi": 72,
      "hit": false,
      "t": 190800,
      "d": 275,
      "v": 104
    },
    {
      "midi": 63,
      "hit": false,
      "t": 190800,
      "d": 575,
      "v": 104
    },
    {
      "midi": 67,
      "hit": false,
      "t": 190800,
      "d": 575,
      "v": 104
    },
    {
      "midi": 48,
      "hit": false,
      "t": 190800,
      "d": 875,
      "v": 104
    },
    {
      "midi": 75,
      "hit": false,
      "t": 191100,
      "d": 875,
      "v": 104
    },
    {
      "midi": 63,
      "hit": false,
      "t": 191400,
      "d": 575,
      "v": 104
    },
    {
      "midi": 67,
      "hit": false,
      "t": 191400,
      "d": 575,
      "v": 104
    },
    {
      "midi": 48,
      "hit": false,
      "t": 191700,
      "d": 275,
      "v": 104
    },
    {
      "midi": 44,
      "hit": false,
      "t": 192000,
      "d": 1175,
      "v": 104
    },
    {
      "midi": 68,
      "hit": false,
      "t": 192600,
      "d": 275,
      "v": 104
    },
    {
      "midi": 72,
      "hit": false,
      "t": 192600,
      "d": 275,
      "v": 104
    },
    {
      "midi": 75,
      "hit": false,
      "t": 192600,
      "d": 275,
      "v": 104
    },
    {
      "midi": 77,
      "hit": false,
      "t": 192900,
      "d": 275,
      "v": 104
    },
    {
      "midi": 67,
      "hit": false,
      "t": 193200,
      "d": 575,
      "v": 104
    },
    {
      "midi": 72,
      "hit": false,
      "t": 193200,
      "d": 575,
      "v": 104
    },
    {
      "midi": 75,
      "hit": false,
      "t": 193200,
      "d": 575,
      "v": 104
    },
    {
      "midi": 43,
      "hit": false,
      "t": 193200,
      "d": 875,
      "v": 104
    },
    {
      "midi": 67,
      "hit": false,
      "t": 193800,
      "d": 575,
      "v": 104
    },
    {
      "midi": 71,
      "hit": false,
      "t": 193800,
      "d": 575,
      "v": 104
    },
    {
      "midi": 74,
      "hit": false,
      "t": 193800,
      "d": 575,
      "v": 104
    },
    {
      "midi": 43,
      "hit": false,
      "t": 194100,
      "d": 275,
      "v": 104
    },
    {
      "midi": 67,
      "hit": false,
      "t": 194400,
      "d": 575,
      "v": 104
    },
    {
      "midi": 72,
      "hit": false,
      "t": 194400,
      "d": 575,
      "v": 104
    },
    {
      "midi": 48,
      "hit": false,
      "t": 194400,
      "d": 875,
      "v": 104
    },
    {
      "midi": 75,
      "hit": false,
      "t": 194400,
      "d": 1175,
      "v": 104
    },
    {
      "midi": 67,
      "hit": false,
      "t": 195000,
      "d": 575,
      "v": 104
    },
    {
      "midi": 72,
      "hit": false,
      "t": 195000,
      "d": 575,
      "v": 104
    },
    {
      "midi": 39,
      "hit": false,
      "t": 195300,
      "d": 275,
      "v": 104
    },
    {
      "midi": 41,
      "hit": false,
      "t": 195600,
      "d": 575,
      "v": 104
    },
    {
      "midi": 70,
      "hit": false,
      "t": 195600,
      "d": 575,
      "v": 104
    },
    {
      "midi": 73,
      "hit": false,
      "t": 195600,
      "d": 575,
      "v": 104
    },
    {
      "midi": 79,
      "hit": false,
      "t": 195600,
      "d": 575,
      "v": 104
    },
    {
      "midi": 43,
      "hit": false,
      "t": 196200,
      "d": 575,
      "v": 104
    },
    {
      "midi": 70,
      "hit": false,
      "t": 196200,
      "d": 575,
      "v": 104
    },
    {
      "midi": 74,
      "hit": false,
      "t": 196200,
      "d": 575,
      "v": 104
    },
    {
      "midi": 77,
      "hit": false,
      "t": 196200,
      "d": 575,
      "v": 104
    },
    {
      "midi": 72,
      "hit": false,
      "t": 196800,
      "d": 575,
      "v": 104
    },
    {
      "midi": 75,
      "hit": false,
      "t": 196800,
      "d": 575,
      "v": 104
    },
    {
      "midi": 44,
      "hit": false,
      "t": 196800,
      "d": 875,
      "v": 104
    },
    {
      "midi": 80,
      "hit": false,
      "t": 196800,
      "d": 1175,
      "v": 104
    },
    {
      "midi": 72,
      "hit": false,
      "t": 197400,
      "d": 575,
      "v": 104
    },
    {
      "midi": 75,
      "hit": false,
      "t": 197400,
      "d": 575,
      "v": 104
    },
    {
      "midi": 44,
      "hit": false,
      "t": 197700,
      "d": 275,
      "v": 104
    },
    {
      "midi": 44,
      "hit": false,
      "t": 198000,
      "d": 575,
      "v": 104
    },
    {
      "midi": 72,
      "hit": false,
      "t": 198000,
      "d": 575,
      "v": 104
    },
    {
      "midi": 75,
      "hit": false,
      "t": 198000,
      "d": 575,
      "v": 104
    },
    {
      "midi": 79,
      "hit": false,
      "t": 198000,
      "d": 575,
      "v": 104
    },
    {
      "midi": 45,
      "hit": false,
      "t": 198600,
      "d": 575,
      "v": 104
    },
    {
      "midi": 72,
      "hit": false,
      "t": 198600,
      "d": 575,
      "v": 104
    },
    {
      "midi": 75,
      "hit": false,
      "t": 198600,
      "d": 575,
      "v": 104
    },
    {
      "midi": 77,
      "hit": false,
      "t": 198600,
      "d": 575,
      "v": 104
    },
    {
      "midi": 46,
      "hit": false,
      "t": 199200,
      "d": 575,
      "v": 104
    },
    {
      "midi": 70,
      "hit": false,
      "t": 199200,
      "d": 575,
      "v": 104
    },
    {
      "midi": 75,
      "hit": false,
      "t": 199200,
      "d": 575,
      "v": 104
    },
    {
      "midi": 79,
      "hit": false,
      "t": 199200,
      "d": 575,
      "v": 104
    },
    {
      "midi": 80,
      "hit": false,
      "t": 199800,
      "d": 275,
      "v": 104
    },
    {
      "midi": 46,
      "hit": false,
      "t": 199800,
      "d": 575,
      "v": 104
    },
    {
      "midi": 79,
      "hit": false,
      "t": 200100,
      "d": 275,
      "v": 104
    },
    {
      "midi": 77,
      "hit": false,
      "t": 200400,
      "d": 275,
      "v": 104
    },
    {
      "midi": 48,
      "hit": false,
      "t": 200400,
      "d": 575,
      "v": 104
    },
    {
      "midi": 67,
      "hit": false,
      "t": 200400,
      "d": 1175,
      "v": 104
    },
    {
      "midi": 72,
      "hit": false,
      "t": 200400,
      "d": 1175,
      "v": 104
    },
    {
      "midi": 75,
      "hit": false,
      "t": 200700,
      "d": 1475,
      "v": 104
    },
    {
      "midi": 48,
      "hit": false,
      "t": 201300,
      "d": 575,
      "v": 104
    },
    {
      "midi": 44,
      "hit": false,
      "t": 201600,
      "d": 1175,
      "v": 104
    },
    {
      "midi": 72,
      "hit": false,
      "t": 202200,
      "d": 275,
      "v": 104
    },
    {
      "midi": 75,
      "hit": false,
      "t": 202200,
      "d": 275,
      "v": 104
    },
    {
      "midi": 80,
      "hit": false,
      "t": 202200,
      "d": 275,
      "v": 104
    },
    {
      "midi": 72,
      "hit": false,
      "t": 202500,
      "d": 275,
      "v": 104
    },
    {
      "midi": 75,
      "hit": false,
      "t": 202500,
      "d": 275,
      "v": 104
    },
    {
      "midi": 80,
      "hit": false,
      "t": 202500,
      "d": 275,
      "v": 104
    },
    {
      "midi": 43,
      "hit": false,
      "t": 202800,
      "d": 575,
      "v": 104
    },
    {
      "midi": 71,
      "hit": false,
      "t": 202800,
      "d": 575,
      "v": 104
    },
    {
      "midi": 75,
      "hit": false,
      "t": 202800,
      "d": 575,
      "v": 104
    },
    {
      "midi": 79,
      "hit": false,
      "t": 202800,
      "d": 575,
      "v": 104
    },
    {
      "midi": 77,
      "hit": false,
      "t": 203400,
      "d": 275,
      "v": 104
    },
    {
      "midi": 43,
      "hit": false,
      "t": 203400,
      "d": 575,
      "v": 104
    },
    {
      "midi": 72,
      "hit": false,
      "t": 203700,
      "d": 575,
      "v": 104
    },
    {
      "midi": 75,
      "hit": false,
      "t": 203700,
      "d": 575,
      "v": 104
    },
    {
      "midi": 79,
      "hit": false,
      "t": 203700,
      "d": 2675,
      "v": 104
    },
    {
      "midi": 48,
      "hit": false,
      "t": 204000,
      "d": 875,
      "v": 104
    },
    {
      "midi": 72,
      "hit": false,
      "t": 204300,
      "d": 275,
      "v": 104
    },
    {
      "midi": 67,
      "hit": false,
      "t": 204600,
      "d": 275,
      "v": 104
    },
    {
      "midi": 67,
      "hit": false,
      "t": 204900,
      "d": 575,
      "v": 104
    },
    {
      "midi": 75,
      "hit": false,
      "t": 204900,
      "d": 575,
      "v": 104
    },
    {
      "midi": 47,
      "hit": false,
      "t": 204900,
      "d": 875,
      "v": 104
    },
    {
      "midi": 67,
      "hit": false,
      "t": 205500,
      "d": 275,
      "v": 104
    },
    {
      "midi": 75,
      "hit": false,
      "t": 205500,
      "d": 275,
      "v": 104
    },
    {
      "midi": 67,
      "hit": false,
      "t": 205800,
      "d": 125,
      "v": 104
    },
    {
      "midi": 46,
      "hit": false,
      "t": 205800,
      "d": 575,
      "v": 104
    },
    {
      "midi": 72,
      "hit": false,
      "t": 205950,
      "d": 125,
      "v": 104
    },
    {
      "midi": 75,
      "hit": false,
      "t": 206100,
      "d": 275,
      "v": 104
    },
    {
      "midi": 69,
      "hit": false,
      "t": 206400,
      "d": 575,
      "v": 104
    },
    {
      "midi": 72,
      "hit": false,
      "t": 206400,
      "d": 575,
      "v": 104
    },
    {
      "midi": 75,
      "hit": false,
      "t": 206400,
      "d": 575,
      "v": 104
    },
    {
      "midi": 41,
      "hit": false,
      "t": 206400,
      "d": 875,
      "v": 104
    },
    {
      "midi": 69,
      "hit": false,
      "t": 207000,
      "d": 275,
      "v": 104
    },
    {
      "midi": 72,
      "hit": false,
      "t": 207000,
      "d": 275,
      "v": 104
    },
    {
      "midi": 69,
      "hit": false,
      "t": 207300,
      "d": 575,
      "v": 104
    },
    {
      "midi": 72,
      "hit": false,
      "t": 207300,
      "d": 575,
      "v": 104
    },
    {
      "midi": 40,
      "hit": false,
      "t": 207300,
      "d": 875,
      "v": 104
    },
    {
      "midi": 69,
      "hit": false,
      "t": 207900,
      "d": 875,
      "v": 104
    },
    {
      "midi": 72,
      "hit": false,
      "t": 207900,
      "d": 875,
      "v": 104
    },
    {
      "midi": 39,
      "hit": false,
      "t": 208200,
      "d": 575,
      "v": 104
    },
    {
      "midi": 79,
      "hit": false,
      "t": 208500,
      "d": 275,
      "v": 104
    },
    {
      "midi": 77,
      "hit": false,
      "t": 208800,
      "d": 125,
      "v": 104
    },
    {
      "midi": 46,
      "hit": false,
      "t": 208800,
      "d": 275,
      "v": 104
    },
    {
      "midi": 67,
      "hit": false,
      "t": 208800,
      "d": 2375,
      "v": 104
    },
    {
      "midi": 70,
      "hit": false,
      "t": 208800,
      "d": 2375,
      "v": 104
    },
    {
      "midi": 75,
      "hit": false,
      "t": 208950,
      "d": 2225,
      "v": 104
    },
    {
      "midi": 51,
      "hit": false,
      "t": 209100,
      "d": 275,
      "v": 104
    },
    {
      "midi": 50,
      "hit": false,
      "t": 209400,
      "d": 275,
      "v": 104
    },
    {
      "midi": 48,
      "hit": false,
      "t": 209700,
      "d": 275,
      "v": 104
    },
    {
      "midi": 46,
      "hit": false,
      "t": 210000,
      "d": 275,
      "v": 104
    },
    {
      "midi": 50,
      "hit": false,
      "t": 210300,
      "d": 275,
      "v": 104
    },
    {
      "midi": 53,
      "hit": false,
      "t": 210600,
      "d": 275,
      "v": 104
    },
    {
      "midi": 58,
      "hit": false,
      "t": 210900,
      "d": 275,
      "v": 104
    },
    {
      "midi": 56,
      "hit": false,
      "t": 211200,
      "d": 275,
      "v": 104
    },
    {
      "midi": 68,
      "hit": false,
      "t": 211200,
      "d": 1175,
      "v": 104
    },
    {
      "midi": 72,
      "hit": false,
      "t": 211200,
      "d": 1175,
      "v": 104
    },
    {
      "midi": 75,
      "hit": false,
      "t": 211200,
      "d": 1175,
      "v": 104
    },
    {
      "midi": 51,
      "hit": false,
      "t": 211500,
      "d": 275,
      "v": 104
    },
    {
      "midi": 48,
      "hit": false,
      "t": 211800,
      "d": 275,
      "v": 104
    },
    {
      "midi": 51,
      "hit": false,
      "t": 212100,
      "d": 275,
      "v": 104
    },
    {
      "midi": 48,
      "hit": false,
      "t": 212400,
      "d": 275,
      "v": 104
    },
    {
      "midi": 56,
      "hit": false,
      "t": 212400,
      "d": 1175,
      "v": 104
    },
    {
      "midi": 60,
      "hit": false,
      "t": 212400,
      "d": 1175,
      "v": 104
    },
    {
      "midi": 63,
      "hit": false,
      "t": 212400,
      "d": 1175,
      "v": 104
    },
    {
      "midi": 50,
      "hit": false,
      "t": 212700,
      "d": 275,
      "v": 104
    },
    {
      "midi": 51,
      "hit": false,
      "t": 213000,
      "d": 275,
      "v": 104
    },
    {
      "midi": 53,
      "hit": false,
      "t": 213300,
      "d": 275,
      "v": 104
    },
    {
      "midi": 44,
      "hit": false,
      "t": 213600,
      "d": 275,
      "v": 104
    },
    {
      "midi": 68,
      "hit": false,
      "t": 213600,
      "d": 1175,
      "v": 104
    },
    {
      "midi": 72,
      "hit": false,
      "t": 213600,
      "d": 1175,
      "v": 104
    },
    {
      "midi": 75,
      "hit": false,
      "t": 213600,
      "d": 1175,
      "v": 104
    },
    {
      "midi": 46,
      "hit": false,
      "t": 213900,
      "d": 275,
      "v": 104
    },
    {
      "midi": 48,
      "hit": false,
      "t": 214200,
      "d": 275,
      "v": 104
    },
    {
      "midi": 51,
      "hit": false,
      "t": 214500,
      "d": 275,
      "v": 104
    },
    {
      "midi": 44,
      "hit": false,
      "t": 214800,
      "d": 275,
      "v": 104
    },
    {
      "midi": 71,
      "hit": false,
      "t": 214800,
      "d": 1175,
      "v": 104
    },
    {
      "midi": 75,
      "hit": false,
      "t": 214800,
      "d": 1175,
      "v": 104
    },
    {
      "midi": 80,
      "hit": false,
      "t": 214800,
      "d": 1175,
      "v": 104
    },
    {
      "midi": 46,
      "hit": false,
      "t": 215100,
      "d": 275,
      "v": 104
    },
    {
      "midi": 47,
      "hit": false,
      "t": 215400,
      "d": 275,
      "v": 104
    },
    {
      "midi": 51,
      "hit": false,
      "t": 215700,
      "d": 275,
      "v": 104
    },
    {
      "midi": 51,
      "hit": false,
      "t": 216000,
      "d": 2375,
      "v": 127
    },
    {
      "midi": 75,
      "hit": false,
      "t": 216000,
      "d": 2375,
      "v": 127
    },
    {
      "midi": 79,
      "hit": false,
      "t": 216000,
      "d": 2375,
      "v": 127
    },
    {
      "midi": 82,
      "hit": false,
      "t": 216000,
      "d": 2375,
      "v": 127
    }
  ]
}