{
  "jsonPath": "Rock/Soft Rock/Spinners/games-people-play-lp-version.json",
  "path": "Rock\\Soft Rock\\Spinners\\Games People Play (LP Version).mid",
  "name": "Games People Play (LP Version)",
  "difficulty": "Advanced",
  "bpm": 150,
  "notes": [
    {
      "midi": 57,
      "hit": false,
      "t": 1600,
      "d": 1060,
      "v": 76
    },
    {
      "midi": 61,
      "hit": false,
      "t": 1600,
      "d": 1060,
      "v": 76
    },
    {
      "midi": 64,
      "hit": false,
      "t": 1600,
      "d": 1060,
      "v": 76
    },
    {
      "midi": 45,
      "hit": false,
      "t": 2666.6666666666665,
      "d": 153.33333333333348,
      "v": 57
    },
    {
      "midi": 57,
      "hit": false,
      "t": 2820,
      "d": 120,
      "v": 85
    },
    {
      "midi": 61,
      "hit": false,
      "t": 2820,
      "d": 120,
      "v": 85
    },
    {
      "midi": 64,
      "hit": false,
      "t": 2820,
      "d": 120,
      "v": 85
    },
    {
      "midi": 57,
      "hit": false,
      "t": 3200,
      "d": 213.33333333333348,
      "v": 62
    },
    {
      "midi": 61,
      "hit": false,
      "t": 3200,
      "d": 213.33333333333348,
      "v": 62
    },
    {
      "midi": 64,
      "hit": false,
      "t": 3200,
      "d": 213.33333333333348,
      "v": 62
    },
    {
      "midi": 59,
      "hit": false,
      "t": 3600,
      "d": 213.33333333333348,
      "v": 62
    },
    {
      "midi": 62,
      "hit": false,
      "t": 3600,
      "d": 213.33333333333348,
      "v": 62
    },
    {
      "midi": 66,
      "hit": false,
      "t": 3600,
      "d": 213.33333333333348,
      "v": 62
    },
    {
      "midi": 69,
      "hit": false,
      "t": 3600,
      "d": 213.33333333333348,
      "v": 62
    },
    {
      "midi": 57,
      "hit": false,
      "t": 4000,
      "d": 213.33333333333303,
      "v": 62
    },
    {
      "midi": 61,
      "hit": false,
      "t": 4000,
      "d": 213.33333333333303,
      "v": 62
    },
    {
      "midi": 64,
      "hit": false,
      "t": 4000,
      "d": 213.33333333333303,
      "v": 62
    },
    {
      "midi": 57,
      "hit": false,
      "t": 4400,
      "d": 133.33333333333303,
      "v": 87
    },
    {
      "midi": 61,
      "hit": false,
      "t": 4400,
      "d": 133.33333333333303,
      "v": 87
    },
    {
      "midi": 64,
      "hit": false,
      "t": 4400,
      "d": 133.33333333333303,
      "v": 87
    },
    {
      "midi": 57,
      "hit": false,
      "t": 4800,
      "d": 400,
      "v": 85
    },
    {
      "midi": 59,
      "hit": false,
      "t": 4800,
      "d": 400,
      "v": 85
    },
    {
      "midi": 62,
      "hit": false,
      "t": 4800,
      "d": 400,
      "v": 85
    },
    {
      "midi": 66,
      "hit": false,
      "t": 4800,
      "d": 400,
      "v": 85
    },
    {
      "midi": 59,
      "hit": false,
      "t": 5200,
      "d": 130,
      "v": 63
    },
    {
      "midi": 66,
      "hit": false,
      "t": 5333.333333333333,
      "d": 113.33333333333303,
      "v": 74
    },
    {
      "midi": 69,
      "hit": false,
      "t": 5466.666666666666,
      "d": 76.66666666666697,
      "v": 95
    },
    {
      "midi": 59,
      "hit": false,
      "t": 5600,
      "d": 213.33333333333303,
      "v": 62
    },
    {
      "midi": 62,
      "hit": false,
      "t": 5600,
      "d": 213.33333333333303,
      "v": 62
    },
    {
      "midi": 66,
      "hit": false,
      "t": 5600,
      "d": 213.33333333333303,
      "v": 62
    },
    {
      "midi": 69,
      "hit": false,
      "t": 5600,
      "d": 213.33333333333303,
      "v": 62
    },
    {
      "midi": 57,
      "hit": false,
      "t": 6000,
      "d": 213.33333333333303,
      "v": 62
    },
    {
      "midi": 61,
      "hit": false,
      "t": 6000,
      "d": 213.33333333333303,
      "v": 62
    },
    {
      "midi": 64,
      "hit": false,
      "t": 6000,
      "d": 213.33333333333303,
      "v": 62
    },
    {
      "midi": 57,
      "hit": false,
      "t": 6400,
      "d": 213.33333333333303,
      "v": 62
    },
    {
      "midi": 61,
      "hit": false,
      "t": 6400,
      "d": 213.33333333333303,
      "v": 62
    },
    {
      "midi": 64,
      "hit": false,
      "t": 6400,
      "d": 213.33333333333303,
      "v": 62
    },
    {
      "midi": 59,
      "hit": false,
      "t": 6800,
      "d": 213.33333333333303,
      "v": 62
    },
    {
      "midi": 62,
      "hit": false,
      "t": 6800,
      "d": 213.33333333333303,
      "v": 62
    },
    {
      "midi": 66,
      "hit": false,
      "t": 6800,
      "d": 213.33333333333303,
      "v": 62
    },
    {
      "midi": 69,
      "hit": false,
      "t": 6800,
      "d": 213.33333333333303,
      "v": 62
    },
    {
      "midi": 57,
      "hit": false,
      "t": 7200,
      "d": 213.33333333333303,
      "v": 62
    },
    {
      "midi": 61,
      "hit": false,
      "t": 7200,
      "d": 213.33333333333303,
      "v": 62
    },
    {
      "midi": 64,
      "hit": false,
      "t": 7200,
      "d": 213.33333333333303,
      "v": 62
    },
    {
      "midi": 59,
      "hit": false,
      "t": 7600,
      "d": 213.33333333333303,
      "v": 62
    },
    {
      "midi": 62,
      "hit": false,
      "t": 7600,
      "d": 213.33333333333303,
      "v": 62
    },
    {
      "midi": 66,
      "hit": false,
      "t": 7600,
      "d": 213.33333333333303,
      "v": 62
    },
    {
      "midi": 69,
      "hit": false,
      "t": 7600,
      "d": 213.33333333333303,
      "v": 62
    },
    {
      "midi": 57,
      "hit": false,
      "t": 8000,
      "d": 1060,
      "v": 76
    },
    {
      "midi": 61,
      "hit": false,
      "t": 8000,
      "d": 1060,
      "v": 76
    },
    {
      "midi": 64,
      "hit": false,
      "t": 8000,
      "d": 1060,
      "v": 76
    },
    {
      "midi": 45,
      "hit": false,
      "t": 9066.666666666666,
      "d": 153.33333333333394,
      "v": 57
    },
    {
      "midi": 57,
      "hit": false,
      "t": 9220,
      "d": 120,
      "v": 85
    },
    {
      "midi": 61,
      "hit": false,
      "t": 9220,
      "d": 120,
      "v": 85
    },
    {
      "midi": 64,
      "hit": false,
      "t": 9220,
      "d": 120,
      "v": 85
    },
    {
      "midi": 57,
      "hit": false,
      "t": 9600,
      "d": 213.33333333333394,
      "v": 62
    },
    {
      "midi": 61,
      "hit": false,
      "t": 9600,
      "d": 213.33333333333394,
      "v": 62
    },
    {
      "midi": 64,
      "hit": false,
      "t": 9600,
      "d": 213.33333333333394,
      "v": 62
    },
    {
      "midi": 59,
      "hit": false,
      "t": 10000,
      "d": 213.33333333333394,
      "v": 62
    },
    {
      "midi": 62,
      "hit": false,
      "t": 10000,
      "d": 213.33333333333394,
      "v": 62
    },
    {
      "midi": 66,
      "hit": false,
      "t": 10000,
      "d": 213.33333333333394,
      "v": 62
    },
    {
      "midi": 69,
      "hit": false,
      "t": 10000,
      "d": 213.33333333333394,
      "v": 62
    },
    {
      "midi": 57,
      "hit": false,
      "t": 10400,
      "d": 213.33333333333394,
      "v": 87
    },
    {
      "midi": 61,
      "hit": false,
      "t": 10400,
      "d": 213.33333333333394,
      "v": 87
    },
    {
      "midi": 64,
      "hit": false,
      "t": 10400,
      "d": 213.33333333333394,
      "v": 87
    },
    {
      "midi": 45,
      "hit": false,
      "t": 10666.666666666668,
      "d": 150,
      "v": 64
    },
    {
      "midi": 57,
      "hit": false,
      "t": 10800.000000000002,
      "d": 110,
      "v": 100
    },
    {
      "midi": 61,
      "hit": false,
      "t": 10800.000000000002,
      "d": 110,
      "v": 100
    },
    {
      "midi": 64,
      "hit": false,
      "t": 10800.000000000002,
      "d": 110,
      "v": 100
    },
    {
      "midi": 59,
      "hit": false,
      "t": 11200.000000000002,
      "d": 213.33333333333394,
      "v": 62
    },
    {
      "midi": 62,
      "hit": false,
      "t": 11200.000000000002,
      "d": 213.33333333333394,
      "v": 62
    },
    {
      "midi": 66,
      "hit": false,
      "t": 11200.000000000002,
      "d": 213.33333333333394,
      "v": 62
    },
    {
      "midi": 69,
      "hit": false,
      "t": 11200.000000000002,
      "d": 213.33333333333394,
      "v": 62
    },
    {
      "midi": 59,
      "hit": false,
      "t": 11600.000000000002,
      "d": 133.33333333333394,
      "v": 87
    },
    {
      "midi": 62,
      "hit": false,
      "t": 11600.000000000002,
      "d": 133.33333333333394,
      "v": 87
    },
    {
      "midi": 66,
      "hit": false,
      "t": 11600.000000000002,
      "d": 133.33333333333394,
      "v": 87
    },
    {
      "midi": 69,
      "hit": false,
      "t": 11600.000000000002,
      "d": 133.33333333333394,
      "v": 87
    },
    {
      "midi": 59,
      "hit": false,
      "t": 12000.000000000002,
      "d": 213.33333333333394,
      "v": 62
    },
    {
      "midi": 62,
      "hit": false,
      "t": 12000.000000000002,
      "d": 213.33333333333394,
      "v": 62
    },
    {
      "midi": 66,
      "hit": false,
      "t": 12000.000000000002,
      "d": 213.33333333333394,
      "v": 62
    },
    {
      "midi": 69,
      "hit": false,
      "t": 12000.000000000002,
      "d": 213.33333333333394,
      "v": 62
    },
    {
      "midi": 57,
      "hit": false,
      "t": 12400.000000000002,
      "d": 213.33333333333394,
      "v": 62
    },
    {
      "midi": 61,
      "hit": false,
      "t": 12400.000000000002,
      "d": 213.33333333333394,
      "v": 62
    },
    {
      "midi": 64,
      "hit": false,
      "t": 12400.000000000002,
      "d": 213.33333333333394,
      "v": 62
    },
    {
      "midi": 45,
      "hit": false,
      "t": 12800.000000000002,
      "d": 160,
      "v": 72
    },
    {
      "midi": 57,
      "hit": false,
      "t": 12800.000000000002,
      "d": 200,
      "v": 87
    },
    {
      "midi": 61,
      "hit": false,
      "t": 12800.000000000002,
      "d": 200,
      "v": 87
    },
    {
      "midi": 64,
      "hit": false,
      "t": 12800.000000000002,
      "d": 200,
      "v": 87
    },
    {
      "midi": 45,
      "hit": false,
      "t": 13200.000000000002,
      "d": 626.6666666666661,
      "v": 66
    },
    {
      "midi": 57,
      "hit": false,
      "t": 13200.000000000002,
      "d": 690,
      "v": 74
    },
    {
      "midi": 61,
      "hit": false,
      "t": 13200.000000000002,
      "d": 690,
      "v": 74
    },
    {
      "midi": 64,
      "hit": false,
      "t": 13200.000000000002,
      "d": 690,
      "v": 74
    },
    {
      "midi": 40,
      "hit": false,
      "t": 13866.666666666668,
      "d": 110,
      "v": 68
    },
    {
      "midi": 45,
      "hit": false,
      "t": 14000.000000000002,
      "d": 140,
      "v": 66
    },
    {
      "midi": 57,
      "hit": false,
      "t": 14000.000000000002,
      "d": 170,
      "v": 87
    },
    {
      "midi": 61,
      "hit": false,
      "t": 14000.000000000002,
      "d": 170,
      "v": 87
    },
    {
      "midi": 64,
      "hit": false,
      "t": 14000.000000000002,
      "d": 170,
      "v": 87
    },
    {
      "midi": 54,
      "hit": false,
      "t": 14400.000000000002,
      "d": 213.33333333333394,
      "v": 62
    },
    {
      "midi": 57,
      "hit": false,
      "t": 14400.000000000002,
      "d": 213.33333333333394,
      "v": 62
    },
    {
      "midi": 62,
      "hit": false,
      "t": 14400.000000000002,
      "d": 213.33333333333394,
      "v": 62
    },
    {
      "midi": 54,
      "hit": false,
      "t": 14800.000000000002,
      "d": 133.33333333333394,
      "v": 87
    },
    {
      "midi": 57,
      "hit": false,
      "t": 14800.000000000002,
      "d": 133.33333333333394,
      "v": 87
    },
    {
      "midi": 62,
      "hit": false,
      "t": 14800.000000000002,
      "d": 133.33333333333394,
      "v": 87
    },
    {
      "midi": 57,
      "hit": false,
      "t": 15200.000000000002,
      "d": 213.33333333333394,
      "v": 62
    },
    {
      "midi": 62,
      "hit": false,
      "t": 15200.000000000002,
      "d": 213.33333333333394,
      "v": 62
    },
    {
      "midi": 66,
      "hit": false,
      "t": 15200.000000000002,
      "d": 213.33333333333394,
      "v": 62
    },
    {
      "midi": 57,
      "hit": false,
      "t": 15600.000000000002,
      "d": 213.33333333333394,
      "v": 62
    },
    {
      "midi": 61,
      "hit": false,
      "t": 15600.000000000002,
      "d": 213.33333333333394,
      "v": 62
    },
    {
      "midi": 64,
      "hit": false,
      "t": 15600.000000000002,
      "d": 213.33333333333394,
      "v": 62
    },
    {
      "midi": 57,
      "hit": false,
      "t": 16000.000000000002,
      "d": 753.3333333333339,
      "v": 89
    },
    {
      "midi": 61,
      "hit": false,
      "t": 16000.000000000002,
      "d": 753.3333333333339,
      "v": 89
    },
    {
      "midi": 64,
      "hit": false,
      "t": 16000.000000000002,
      "d": 753.3333333333339,
      "v": 89
    },
    {
      "midi": 57,
      "hit": false,
      "t": 16800.000000000004,
      "d": 216.66666666666788,
      "v": 78
    },
    {
      "midi": 57,
      "hit": false,
      "t": 17066.66666666667,
      "d": 153.33333333333212,
      "v": 53
    },
    {
      "midi": 61,
      "hit": false,
      "t": 17200.000000000004,
      "d": 236.66666666666788,
      "v": 52
    },
    {
      "midi": 64,
      "hit": false,
      "t": 17466.66666666667,
      "d": 70,
      "v": 89
    },
    {
      "midi": 64,
      "hit": false,
      "t": 17600.000000000004,
      "d": 1253.3333333333321,
      "v": 85
    },
    {
      "midi": 57,
      "hit": false,
      "t": 18666.66666666667,
      "d": 130,
      "v": 68
    },
    {
      "midi": 61,
      "hit": false,
      "t": 18800.000000000004,
      "d": 53.33333333333212,
      "v": 61
    },
    {
      "midi": 64,
      "hit": false,
      "t": 18933.333333333336,
      "d": 106.66666666666788,
      "v": 80
    },
    {
      "midi": 69,
      "hit": false,
      "t": 19066.66666666667,
      "d": 90,
      "v": 95
    },
    {
      "midi": 57,
      "hit": false,
      "t": 19600.000000000004,
      "d": 136.66666666666788,
      "v": 82
    },
    {
      "midi": 61,
      "hit": false,
      "t": 19600.000000000004,
      "d": 136.66666666666788,
      "v": 82
    },
    {
      "midi": 64,
      "hit": false,
      "t": 19600.000000000004,
      "d": 136.66666666666788,
      "v": 82
    },
    {
      "midi": 57,
      "hit": false,
      "t": 20000.000000000004,
      "d": 163.33333333333212,
      "v": 70
    },
    {
      "midi": 61,
      "hit": false,
      "t": 20000.000000000004,
      "d": 163.33333333333212,
      "v": 70
    },
    {
      "midi": 64,
      "hit": false,
      "t": 20000.000000000004,
      "d": 163.33333333333212,
      "v": 70
    },
    {
      "midi": 47,
      "hit": false,
      "t": 20266.666666666668,
      "d": 16.66666666666788,
      "v": 52
    },
    {
      "midi": 45,
      "hit": false,
      "t": 20266.666666666668,
      "d": 63.33333333333576,
      "v": 66
    },
    {
      "midi": 57,
      "hit": false,
      "t": 20400.000000000004,
      "d": 140,
      "v": 89
    },
    {
      "midi": 61,
      "hit": false,
      "t": 20400.000000000004,
      "d": 140,
      "v": 89
    },
    {
      "midi": 64,
      "hit": false,
      "t": 20400.000000000004,
      "d": 140,
      "v": 89
    },
    {
      "midi": 57,
      "hit": false,
      "t": 20800.000000000004,
      "d": 193.33333333333212,
      "v": 85
    },
    {
      "midi": 62,
      "hit": false,
      "t": 20800.000000000004,
      "d": 193.33333333333212,
      "v": 85
    },
    {
      "midi": 66,
      "hit": false,
      "t": 20800.000000000004,
      "d": 193.33333333333212,
      "v": 85
    },
    {
      "midi": 57,
      "hit": false,
      "t": 21200.000000000004,
      "d": 333.3333333333321,
      "v": 80
    },
    {
      "midi": 62,
      "hit": false,
      "t": 21200.000000000004,
      "d": 333.3333333333321,
      "v": 80
    },
    {
      "midi": 66,
      "hit": false,
      "t": 21200.000000000004,
      "d": 333.3333333333321,
      "v": 80
    },
    {
      "midi": 62,
      "hit": false,
      "t": 21866.666666666668,
      "d": 150,
      "v": 68
    },
    {
      "midi": 66,
      "hit": false,
      "t": 22016.666666666668,
      "d": 160,
      "v": 64
    },
    {
      "midi": 69,
      "hit": false,
      "t": 22133.333333333336,
      "d": 170,
      "v": 80
    },
    {
      "midi": 74,
      "hit": false,
      "t": 22266.666666666668,
      "d": 93.33333333333576,
      "v": 70
    },
    {
      "midi": 57,
      "hit": false,
      "t": 22400.000000000004,
      "d": 216.66666666666788,
      "v": 68
    },
    {
      "midi": 62,
      "hit": false,
      "t": 22400.000000000004,
      "d": 216.66666666666788,
      "v": 68
    },
    {
      "midi": 66,
      "hit": false,
      "t": 22400.000000000004,
      "d": 216.66666666666788,
      "v": 68
    },
    {
      "midi": 57,
      "hit": false,
      "t": 22800.000000000004,
      "d": 160,
      "v": 68
    },
    {
      "midi": 62,
      "hit": false,
      "t": 22800.000000000004,
      "d": 160,
      "v": 68
    },
    {
      "midi": 66,
      "hit": false,
      "t": 22800.000000000004,
      "d": 160,
      "v": 68
    },
    {
      "midi": 45,
      "hit": false,
      "t": 23466.66666666667,
      "d": 90,
      "v": 60
    },
    {
      "midi": 57,
      "hit": false,
      "t": 23600.000000000004,
      "d": 130,
      "v": 80
    },
    {
      "midi": 62,
      "hit": false,
      "t": 23600.000000000004,
      "d": 130,
      "v": 80
    },
    {
      "midi": 66,
      "hit": false,
      "t": 23600.000000000004,
      "d": 130,
      "v": 80
    },
    {
      "midi": 61,
      "hit": false,
      "t": 24400.000000000004,
      "d": 156.66666666666788,
      "v": 78
    },
    {
      "midi": 64,
      "hit": false,
      "t": 24400.000000000004,
      "d": 156.66666666666788,
      "v": 78
    },
    {
      "midi": 68,
      "hit": false,
      "t": 24400.000000000004,
      "d": 156.66666666666788,
      "v": 78
    },
    {
      "midi": 71,
      "hit": false,
      "t": 24400.000000000004,
      "d": 156.66666666666788,
      "v": 78
    },
    {
      "midi": 61,
      "hit": false,
      "t": 25200.000000000004,
      "d": 196.66666666666788,
      "v": 85
    },
    {
      "midi": 64,
      "hit": false,
      "t": 25200.000000000004,
      "d": 196.66666666666788,
      "v": 85
    },
    {
      "midi": 68,
      "hit": false,
      "t": 25200.000000000004,
      "d": 196.66666666666788,
      "v": 85
    },
    {
      "midi": 71,
      "hit": false,
      "t": 25200.000000000004,
      "d": 196.66666666666788,
      "v": 85
    },
    {
      "midi": 61,
      "hit": false,
      "t": 25600.000000000004,
      "d": 163.33333333333212,
      "v": 89
    },
    {
      "midi": 64,
      "hit": false,
      "t": 25600.000000000004,
      "d": 163.33333333333212,
      "v": 89
    },
    {
      "midi": 68,
      "hit": false,
      "t": 25600.000000000004,
      "d": 163.33333333333212,
      "v": 89
    },
    {
      "midi": 71,
      "hit": false,
      "t": 25600.000000000004,
      "d": 163.33333333333212,
      "v": 89
    },
    {
      "midi": 61,
      "hit": false,
      "t": 26000.000000000004,
      "d": 153.33333333333212,
      "v": 78
    },
    {
      "midi": 64,
      "hit": false,
      "t": 26000.000000000004,
      "d": 153.33333333333212,
      "v": 78
    },
    {
      "midi": 68,
      "hit": false,
      "t": 26000.000000000004,
      "d": 153.33333333333212,
      "v": 78
    },
    {
      "midi": 71,
      "hit": false,
      "t": 26000.000000000004,
      "d": 153.33333333333212,
      "v": 78
    },
    {
      "midi": 45,
      "hit": false,
      "t": 26666.666666666668,
      "d": 83.33333333333212,
      "v": 55
    },
    {
      "midi": 61,
      "hit": false,
      "t": 26800,
      "d": 110,
      "v": 82
    },
    {
      "midi": 64,
      "hit": false,
      "t": 26800,
      "d": 110,
      "v": 82
    },
    {
      "midi": 68,
      "hit": false,
      "t": 26800,
      "d": 110,
      "v": 82
    },
    {
      "midi": 71,
      "hit": false,
      "t": 26800,
      "d": 110,
      "v": 82
    },
    {
      "midi": 57,
      "hit": false,
      "t": 27600,
      "d": 126.66666666666788,
      "v": 82
    },
    {
      "midi": 62,
      "hit": false,
      "t": 27600,
      "d": 126.66666666666788,
      "v": 82
    },
    {
      "midi": 66,
      "hit": false,
      "t": 27600,
      "d": 126.66666666666788,
      "v": 82
    },
    {
      "midi": 62,
      "hit": false,
      "t": 28400,
      "d": 120,
      "v": 70
    },
    {
      "midi": 66,
      "hit": false,
      "t": 28533.333333333332,
      "d": 86.66666666666788,
      "v": 58
    },
    {
      "midi": 69,
      "hit": false,
      "t": 28666.666666666668,
      "d": 100,
      "v": 82
    },
    {
      "midi": 57,
      "hit": false,
      "t": 29200,
      "d": 146.66666666666788,
      "v": 76
    },
    {
      "midi": 62,
      "hit": false,
      "t": 29200,
      "d": 146.66666666666788,
      "v": 76
    },
    {
      "midi": 66,
      "hit": false,
      "t": 29200,
      "d": 146.66666666666788,
      "v": 76
    },
    {
      "midi": 57,
      "hit": false,
      "t": 29600,
      "d": 153.33333333333212,
      "v": 78
    },
    {
      "midi": 62,
      "hit": false,
      "t": 29600,
      "d": 153.33333333333212,
      "v": 78
    },
    {
      "midi": 66,
      "hit": false,
      "t": 29600,
      "d": 153.33333333333212,
      "v": 78
    },
    {
      "midi": 57,
      "hit": false,
      "t": 30000,
      "d": 136.66666666666788,
      "v": 82
    },
    {
      "midi": 62,
      "hit": false,
      "t": 30000,
      "d": 136.66666666666788,
      "v": 82
    },
    {
      "midi": 66,
      "hit": false,
      "t": 30000,
      "d": 136.66666666666788,
      "v": 82
    },
    {
      "midi": 61,
      "hit": false,
      "t": 30800,
      "d": 266.6666666666679,
      "v": 82
    },
    {
      "midi": 64,
      "hit": false,
      "t": 30800,
      "d": 266.6666666666679,
      "v": 82
    },
    {
      "midi": 66,
      "hit": false,
      "t": 30800,
      "d": 266.6666666666679,
      "v": 82
    },
    {
      "midi": 69,
      "hit": false,
      "t": 30800,
      "d": 266.6666666666679,
      "v": 82
    },
    {
      "midi": 61,
      "hit": false,
      "t": 31466.666666666668,
      "d": 140,
      "v": 68
    },
    {
      "midi": 65,
      "hit": false,
      "t": 31606.666666666668,
      "d": 43.33333333333212,
      "v": 52
    },
    {
      "midi": 66,
      "hit": false,
      "t": 31606.666666666668,
      "d": 96.66666666666424,
      "v": 82
    },
    {
      "midi": 69,
      "hit": false,
      "t": 31733.333333333332,
      "d": 80,
      "v": 78
    },
    {
      "midi": 76,
      "hit": false,
      "t": 31866.666666666664,
      "d": 40,
      "v": 98
    },
    {
      "midi": 59,
      "hit": false,
      "t": 32399.999999999996,
      "d": 216.66666666666788,
      "v": 78
    },
    {
      "midi": 61,
      "hit": false,
      "t": 32399.999999999996,
      "d": 216.66666666666788,
      "v": 78
    },
    {
      "midi": 64,
      "hit": false,
      "t": 32399.999999999996,
      "d": 216.66666666666788,
      "v": 78
    },
    {
      "midi": 68,
      "hit": false,
      "t": 32399.999999999996,
      "d": 216.66666666666788,
      "v": 78
    },
    {
      "midi": 49,
      "hit": false,
      "t": 33066.666666666664,
      "d": 70,
      "v": 57
    },
    {
      "midi": 59,
      "hit": false,
      "t": 33200,
      "d": 73.33333333333576,
      "v": 89
    },
    {
      "midi": 61,
      "hit": false,
      "t": 33200,
      "d": 73.33333333333576,
      "v": 89
    },
    {
      "midi": 64,
      "hit": false,
      "t": 33200,
      "d": 73.33333333333576,
      "v": 89
    },
    {
      "midi": 68,
      "hit": false,
      "t": 33200,
      "d": 73.33333333333576,
      "v": 89
    },
    {
      "midi": 56,
      "hit": false,
      "t": 33600,
      "d": 240,
      "v": 85
    },
    {
      "midi": 59,
      "hit": false,
      "t": 33600,
      "d": 240,
      "v": 85
    },
    {
      "midi": 64,
      "hit": false,
      "t": 33600,
      "d": 240,
      "v": 85
    },
    {
      "midi": 56,
      "hit": false,
      "t": 33866.666666666664,
      "d": 80,
      "v": 68
    },
    {
      "midi": 59,
      "hit": false,
      "t": 33866.666666666664,
      "d": 80,
      "v": 68
    },
    {
      "midi": 64,
      "hit": false,
      "t": 33866.666666666664,
      "d": 80,
      "v": 68
    },
    {
      "midi": 56,
      "hit": false,
      "t": 34266.666666666664,
      "d": 110,
      "v": 66
    },
    {
      "midi": 59,
      "hit": false,
      "t": 34266.666666666664,
      "d": 110,
      "v": 66
    },
    {
      "midi": 64,
      "hit": false,
      "t": 34266.666666666664,
      "d": 110,
      "v": 66
    },
    {
      "midi": 54,
      "hit": false,
      "t": 34666.666666666664,
      "d": 73.33333333333576,
      "v": 55
    },
    {
      "midi": 56,
      "hit": false,
      "t": 34800,
      "d": 90,
      "v": 82
    },
    {
      "midi": 59,
      "hit": false,
      "t": 34800,
      "d": 90,
      "v": 82
    },
    {
      "midi": 64,
      "hit": false,
      "t": 34800,
      "d": 90,
      "v": 82
    },
    {
      "midi": 56,
      "hit": false,
      "t": 35200,
      "d": 180,
      "v": 80
    },
    {
      "midi": 59,
      "hit": false,
      "t": 35200,
      "d": 180,
      "v": 80
    },
    {
      "midi": 64,
      "hit": false,
      "t": 35200,
      "d": 180,
      "v": 80
    },
    {
      "midi": 64,
      "hit": false,
      "t": 35600,
      "d": 123.33333333333576,
      "v": 58
    },
    {
      "midi": 68,
      "hit": false,
      "t": 35733.333333333336,
      "d": 103.33333333333576,
      "v": 80
    },
    {
      "midi": 71,
      "hit": false,
      "t": 35866.66666666667,
      "d": 50,
      "v": 85
    },
    {
      "midi": 56,
      "hit": false,
      "t": 36000.00000000001,
      "d": 333.33333333333576,
      "v": 80
    },
    {
      "midi": 59,
      "hit": false,
      "t": 36000.00000000001,
      "d": 333.33333333333576,
      "v": 80
    },
    {
      "midi": 64,
      "hit": false,
      "t": 36000.00000000001,
      "d": 333.33333333333576,
      "v": 80
    },
    {
      "midi": 61,
      "hit": false,
      "t": 36400.00000000001,
      "d": 333.33333333333576,
      "v": 80
    },
    {
      "midi": 66,
      "hit": false,
      "t": 36400.00000000001,
      "d": 333.33333333333576,
      "v": 80
    },
    {
      "midi": 69,
      "hit": false,
      "t": 36400.00000000001,
      "d": 333.33333333333576,
      "v": 80
    },
    {
      "midi": 61,
      "hit": false,
      "t": 37200.00000000001,
      "d": 216.66666666666424,
      "v": 78
    },
    {
      "midi": 64,
      "hit": false,
      "t": 37200.00000000001,
      "d": 216.66666666666424,
      "v": 78
    },
    {
      "midi": 66,
      "hit": false,
      "t": 37200.00000000001,
      "d": 216.66666666666424,
      "v": 78
    },
    {
      "midi": 69,
      "hit": false,
      "t": 37200.00000000001,
      "d": 216.66666666666424,
      "v": 78
    },
    {
      "midi": 50,
      "hit": false,
      "t": 37866.66666666667,
      "d": 70,
      "v": 57
    },
    {
      "midi": 61,
      "hit": false,
      "t": 38000.00000000001,
      "d": 73.33333333333576,
      "v": 89
    },
    {
      "midi": 64,
      "hit": false,
      "t": 38000.00000000001,
      "d": 73.33333333333576,
      "v": 89
    },
    {
      "midi": 66,
      "hit": false,
      "t": 38000.00000000001,
      "d": 73.33333333333576,
      "v": 89
    },
    {
      "midi": 69,
      "hit": false,
      "t": 38000.00000000001,
      "d": 73.33333333333576,
      "v": 89
    },
    {
      "midi": 59,
      "hit": false,
      "t": 38400.00000000001,
      "d": 153.33333333333576,
      "v": 80
    },
    {
      "midi": 61,
      "hit": false,
      "t": 38400.00000000001,
      "d": 153.33333333333576,
      "v": 80
    },
    {
      "midi": 64,
      "hit": false,
      "t": 38400.00000000001,
      "d": 153.33333333333576,
      "v": 80
    },
    {
      "midi": 68,
      "hit": false,
      "t": 38400.00000000001,
      "d": 153.33333333333576,
      "v": 80
    },
    {
      "midi": 59,
      "hit": false,
      "t": 38800.00000000001,
      "d": 146.66666666666424,
      "v": 72
    },
    {
      "midi": 61,
      "hit": false,
      "t": 38800.00000000001,
      "d": 146.66666666666424,
      "v": 72
    },
    {
      "midi": 64,
      "hit": false,
      "t": 38800.00000000001,
      "d": 146.66666666666424,
      "v": 72
    },
    {
      "midi": 68,
      "hit": false,
      "t": 38800.00000000001,
      "d": 146.66666666666424,
      "v": 72
    },
    {
      "midi": 49,
      "hit": false,
      "t": 39466.66666666667,
      "d": 60,
      "v": 60
    },
    {
      "midi": 59,
      "hit": false,
      "t": 39600.00000000001,
      "d": 90,
      "v": 85
    },
    {
      "midi": 61,
      "hit": false,
      "t": 39600.00000000001,
      "d": 90,
      "v": 85
    },
    {
      "midi": 64,
      "hit": false,
      "t": 39600.00000000001,
      "d": 90,
      "v": 85
    },
    {
      "midi": 68,
      "hit": false,
      "t": 39600.00000000001,
      "d": 90,
      "v": 85
    },
    {
      "midi": 56,
      "hit": false,
      "t": 40000.00000000001,
      "d": 153.33333333333576,
      "v": 80
    },
    {
      "midi": 59,
      "hit": false,
      "t": 40000.00000000001,
      "d": 153.33333333333576,
      "v": 80
    },
    {
      "midi": 64,
      "hit": false,
      "t": 40000.00000000001,
      "d": 153.33333333333576,
      "v": 80
    },
    {
      "midi": 56,
      "hit": false,
      "t": 40400.00000000001,
      "d": 146.66666666666424,
      "v": 72
    },
    {
      "midi": 59,
      "hit": false,
      "t": 40400.00000000001,
      "d": 146.66666666666424,
      "v": 72
    },
    {
      "midi": 64,
      "hit": false,
      "t": 40400.00000000001,
      "d": 146.66666666666424,
      "v": 72
    },
    {
      "midi": 54,
      "hit": false,
      "t": 41066.66666666667,
      "d": 60,
      "v": 60
    },
    {
      "midi": 56,
      "hit": false,
      "t": 41200.00000000001,
      "d": 90,
      "v": 85
    },
    {
      "midi": 59,
      "hit": false,
      "t": 41200.00000000001,
      "d": 90,
      "v": 85
    },
    {
      "midi": 64,
      "hit": false,
      "t": 41200.00000000001,
      "d": 90,
      "v": 85
    },
    {
      "midi": 56,
      "hit": false,
      "t": 42000.00000000001,
      "d": 170,
      "v": 82
    },
    {
      "midi": 59,
      "hit": false,
      "t": 42000.00000000001,
      "d": 170,
      "v": 82
    },
    {
      "midi": 64,
      "hit": false,
      "t": 42000.00000000001,
      "d": 170,
      "v": 82
    },
    {
      "midi": 56,
      "hit": false,
      "t": 42400.00000000001,
      "d": 333.33333333333576,
      "v": 80
    },
    {
      "midi": 59,
      "hit": false,
      "t": 42400.00000000001,
      "d": 333.33333333333576,
      "v": 80
    },
    {
      "midi": 64,
      "hit": false,
      "t": 42400.00000000001,
      "d": 333.33333333333576,
      "v": 80
    },
    {
      "midi": 57,
      "hit": false,
      "t": 42800.00000000001,
      "d": 333.33333333333576,
      "v": 80
    },
    {
      "midi": 61,
      "hit": false,
      "t": 42800.00000000001,
      "d": 333.33333333333576,
      "v": 80
    },
    {
      "midi": 66,
      "hit": false,
      "t": 42800.00000000001,
      "d": 333.33333333333576,
      "v": 80
    },
    {
      "midi": 63,
      "hit": false,
      "t": 43200.00000000001,
      "d": 190,
      "v": 59
    },
    {
      "midi": 68,
      "hit": false,
      "t": 43466.66666666667,
      "d": 136.66666666667152,
      "v": 53
    },
    {
      "midi": 71,
      "hit": false,
      "t": 43600.00000000001,
      "d": 246.66666666667152,
      "v": 87
    },
    {
      "midi": 78,
      "hit": false,
      "t": 43866.66666666668,
      "d": 150,
      "v": 82
    },
    {
      "midi": 52,
      "hit": false,
      "t": 44266.66666666668,
      "d": 90,
      "v": 66
    },
    {
      "midi": 59,
      "hit": false,
      "t": 44400.000000000015,
      "d": 130,
      "v": 87
    },
    {
      "midi": 63,
      "hit": false,
      "t": 44400.000000000015,
      "d": 130,
      "v": 87
    },
    {
      "midi": 66,
      "hit": false,
      "t": 44400.000000000015,
      "d": 130,
      "v": 87
    },
    {
      "midi": 68,
      "hit": false,
      "t": 44400.000000000015,
      "d": 130,
      "v": 87
    },
    {
      "midi": 58,
      "hit": false,
      "t": 45200.000000000015,
      "d": 216.66666666666424,
      "v": 78
    },
    {
      "midi": 61,
      "hit": false,
      "t": 45200.000000000015,
      "d": 216.66666666666424,
      "v": 78
    },
    {
      "midi": 63,
      "hit": false,
      "t": 45200.000000000015,
      "d": 216.66666666666424,
      "v": 78
    },
    {
      "midi": 66,
      "hit": false,
      "t": 45200.000000000015,
      "d": 216.66666666666424,
      "v": 78
    },
    {
      "midi": 51,
      "hit": false,
      "t": 45866.66666666668,
      "d": 70,
      "v": 57
    },
    {
      "midi": 58,
      "hit": false,
      "t": 46000.000000000015,
      "d": 73.33333333333576,
      "v": 89
    },
    {
      "midi": 61,
      "hit": false,
      "t": 46000.000000000015,
      "d": 73.33333333333576,
      "v": 89
    },
    {
      "midi": 63,
      "hit": false,
      "t": 46000.000000000015,
      "d": 73.33333333333576,
      "v": 89
    },
    {
      "midi": 66,
      "hit": false,
      "t": 46000.000000000015,
      "d": 73.33333333333576,
      "v": 89
    },
    {
      "midi": 61,
      "hit": false,
      "t": 46800.000000000015,
      "d": 266.66666666666424,
      "v": 82
    },
    {
      "midi": 64,
      "hit": false,
      "t": 46800.000000000015,
      "d": 266.66666666666424,
      "v": 82
    },
    {
      "midi": 66,
      "hit": false,
      "t": 46800.000000000015,
      "d": 266.66666666666424,
      "v": 82
    },
    {
      "midi": 69,
      "hit": false,
      "t": 46800.000000000015,
      "d": 266.66666666666424,
      "v": 82
    },
    {
      "midi": 61,
      "hit": false,
      "t": 47466.66666666668,
      "d": 140,
      "v": 68
    },
    {
      "midi": 65,
      "hit": false,
      "t": 47606.66666666668,
      "d": 43.33333333333576,
      "v": 52
    },
    {
      "midi": 66,
      "hit": false,
      "t": 47606.66666666668,
      "d": 96.66666666667152,
      "v": 82
    },
    {
      "midi": 69,
      "hit": false,
      "t": 47733.33333333335,
      "d": 80,
      "v": 78
    },
    {
      "midi": 76,
      "hit": false,
      "t": 47866.666666666686,
      "d": 40,
      "v": 98
    },
    {
      "midi": 59,
      "hit": false,
      "t": 48400.00000000002,
      "d": 266.66666666666424,
      "v": 82
    },
    {
      "midi": 61,
      "hit": false,
      "t": 48400.00000000002,
      "d": 266.66666666666424,
      "v": 82
    },
    {
      "midi": 64,
      "hit": false,
      "t": 48400.00000000002,
      "d": 266.66666666666424,
      "v": 82
    },
    {
      "midi": 68,
      "hit": false,
      "t": 48400.00000000002,
      "d": 266.66666666666424,
      "v": 82
    },
    {
      "midi": 59,
      "hit": false,
      "t": 49066.666666666686,
      "d": 140,
      "v": 68
    },
    {
      "midi": 64,
      "hit": false,
      "t": 49206.666666666686,
      "d": 43.33333333333576,
      "v": 82
    },
    {
      "midi": 68,
      "hit": false,
      "t": 49333.33333333336,
      "d": 80,
      "v": 78
    },
    {
      "midi": 73,
      "hit": false,
      "t": 49466.66666666669,
      "d": 40,
      "v": 98
    },
    {
      "midi": 59,
      "hit": false,
      "t": 50000.00000000003,
      "d": 266.66666666666424,
      "v": 82
    },
    {
      "midi": 62,
      "hit": false,
      "t": 50000.00000000003,
      "d": 266.66666666666424,
      "v": 82
    },
    {
      "midi": 64,
      "hit": false,
      "t": 50000.00000000003,
      "d": 266.66666666666424,
      "v": 82
    },
    {
      "midi": 67,
      "hit": false,
      "t": 50000.00000000003,
      "d": 266.66666666666424,
      "v": 82
    },
    {
      "midi": 59,
      "hit": false,
      "t": 50666.66666666669,
      "d": 140,
      "v": 68
    },
    {
      "midi": 63,
      "hit": false,
      "t": 50806.66666666669,
      "d": 43.33333333333576,
      "v": 52
    },
    {
      "midi": 64,
      "hit": false,
      "t": 50806.66666666669,
      "d": 96.66666666667152,
      "v": 82
    },
    {
      "midi": 67,
      "hit": false,
      "t": 50933.333333333365,
      "d": 80,
      "v": 78
    },
    {
      "midi": 74,
      "hit": false,
      "t": 51066.6666666667,
      "d": 40,
      "v": 98
    },
    {
      "midi": 57,
      "hit": false,
      "t": 51200.00000000004,
      "d": 190,
      "v": 59
    },
    {
      "midi": 62,
      "hit": false,
      "t": 51466.6666666667,
      "d": 136.66666666667152,
      "v": 53
    },
    {
      "midi": 66,
      "hit": false,
      "t": 51600.00000000004,
      "d": 246.66666666667152,
      "v": 87
    },
    {
      "midi": 71,
      "hit": false,
      "t": 51866.66666666671,
      "d": 150,
      "v": 82
    },
    {
      "midi": 47,
      "hit": false,
      "t": 52266.66666666671,
      "d": 90,
      "v": 66
    },
    {
      "midi": 57,
      "hit": false,
      "t": 52400.000000000044,
      "d": 130,
      "v": 87
    },
    {
      "midi": 59,
      "hit": false,
      "t": 52400.000000000044,
      "d": 130,
      "v": 87
    },
    {
      "midi": 62,
      "hit": false,
      "t": 52400.000000000044,
      "d": 130,
      "v": 87
    },
    {
      "midi": 66,
      "hit": false,
      "t": 52400.000000000044,
      "d": 130,
      "v": 87
    },
    {
      "midi": 57,
      "hit": false,
      "t": 53200.000000000044,
      "d": 170,
      "v": 82
    },
    {
      "midi": 62,
      "hit": false,
      "t": 53200.000000000044,
      "d": 170,
      "v": 82
    },
    {
      "midi": 66,
      "hit": false,
      "t": 53200.000000000044,
      "d": 170,
      "v": 82
    },
    {
      "midi": 56,
      "hit": false,
      "t": 53600.000000000044,
      "d": 156.66666666666424,
      "v": 82
    },
    {
      "midi": 59,
      "hit": false,
      "t": 53600.000000000044,
      "d": 156.66666666666424,
      "v": 82
    },
    {
      "midi": 64,
      "hit": false,
      "t": 53600.000000000044,
      "d": 156.66666666666424,
      "v": 82
    },
    {
      "midi": 52,
      "hit": false,
      "t": 53866.66666666671,
      "d": 130,
      "v": 60
    },
    {
      "midi": 56,
      "hit": false,
      "t": 54000.000000000044,
      "d": 106.66666666666424,
      "v": 82
    },
    {
      "midi": 59,
      "hit": false,
      "t": 54000.000000000044,
      "d": 106.66666666666424,
      "v": 82
    },
    {
      "midi": 64,
      "hit": false,
      "t": 54000.000000000044,
      "d": 106.66666666666424,
      "v": 82
    },
    {
      "midi": 57,
      "hit": false,
      "t": 54800.000000000044,
      "d": 126.66666666666424,
      "v": 82
    },
    {
      "midi": 61,
      "hit": false,
      "t": 54800.000000000044,
      "d": 126.66666666666424,
      "v": 82
    },
    {
      "midi": 64,
      "hit": false,
      "t": 54800.000000000044,
      "d": 126.66666666666424,
      "v": 82
    },
    {
      "midi": 57,
      "hit": false,
      "t": 55600.000000000044,
      "d": 120,
      "v": 70
    },
    {
      "midi": 61,
      "hit": false,
      "t": 55733.33333333338,
      "d": 86.66666666666424,
      "v": 58
    },
    {
      "midi": 64,
      "hit": false,
      "t": 55866.66666666671,
      "d": 100,
      "v": 82
    },
    {
      "midi": 57,
      "hit": false,
      "t": 56400.000000000044,
      "d": 146.66666666666424,
      "v": 76
    },
    {
      "midi": 61,
      "hit": false,
      "t": 56400.000000000044,
      "d": 146.66666666666424,
      "v": 76
    },
    {
      "midi": 64,
      "hit": false,
      "t": 56400.000000000044,
      "d": 146.66666666666424,
      "v": 76
    },
    {
      "midi": 57,
      "hit": false,
      "t": 56800.000000000044,
      "d": 153.33333333333576,
      "v": 78
    },
    {
      "midi": 61,
      "hit": false,
      "t": 56800.000000000044,
      "d": 153.33333333333576,
      "v": 78
    },
    {
      "midi": 64,
      "hit": false,
      "t": 56800.000000000044,
      "d": 153.33333333333576,
      "v": 78
    },
    {
      "midi": 57,
      "hit": false,
      "t": 57200.000000000044,
      "d": 136.66666666666424,
      "v": 82
    },
    {
      "midi": 61,
      "hit": false,
      "t": 57200.000000000044,
      "d": 136.66666666666424,
      "v": 82
    },
    {
      "midi": 64,
      "hit": false,
      "t": 57200.000000000044,
      "d": 136.66666666666424,
      "v": 82
    },
    {
      "midi": 57,
      "hit": false,
      "t": 57600.000000000044,
      "d": 193.33333333333576,
      "v": 85
    },
    {
      "midi": 62,
      "hit": false,
      "t": 57600.000000000044,
      "d": 193.33333333333576,
      "v": 85
    },
    {
      "midi": 66,
      "hit": false,
      "t": 57600.000000000044,
      "d": 193.33333333333576,
      "v": 85
    },
    {
      "midi": 57,
      "hit": false,
      "t": 58000.000000000044,
      "d": 333.33333333333576,
      "v": 80
    },
    {
      "midi": 62,
      "hit": false,
      "t": 58000.000000000044,
      "d": 333.33333333333576,
      "v": 80
    },
    {
      "midi": 66,
      "hit": false,
      "t": 58000.000000000044,
      "d": 333.33333333333576,
      "v": 80
    },
    {
      "midi": 62,
      "hit": false,
      "t": 58666.666666666715,
      "d": 150,
      "v": 68
    },
    {
      "midi": 66,
      "hit": false,
      "t": 58816.666666666715,
      "d": 160,
      "v": 64
    },
    {
      "midi": 69,
      "hit": false,
      "t": 58933.33333333338,
      "d": 170,
      "v": 80
    },
    {
      "midi": 74,
      "hit": false,
      "t": 59066.666666666715,
      "d": 93.33333333332848,
      "v": 70
    },
    {
      "midi": 57,
      "hit": false,
      "t": 59200.000000000044,
      "d": 216.66666666666424,
      "v": 68
    },
    {
      "midi": 62,
      "hit": false,
      "t": 59200.000000000044,
      "d": 216.66666666666424,
      "v": 68
    },
    {
      "midi": 66,
      "hit": false,
      "t": 59200.000000000044,
      "d": 216.66666666666424,
      "v": 68
    },
    {
      "midi": 57,
      "hit": false,
      "t": 59600.000000000044,
      "d": 160,
      "v": 68
    },
    {
      "midi": 62,
      "hit": false,
      "t": 59600.000000000044,
      "d": 160,
      "v": 68
    },
    {
      "midi": 66,
      "hit": false,
      "t": 59600.000000000044,
      "d": 160,
      "v": 68
    },
    {
      "midi": 45,
      "hit": false,
      "t": 60266.66666666671,
      "d": 90,
      "v": 60
    },
    {
      "midi": 57,
      "hit": false,
      "t": 60400.000000000044,
      "d": 130,
      "v": 80
    },
    {
      "midi": 62,
      "hit": false,
      "t": 60400.000000000044,
      "d": 130,
      "v": 80
    },
    {
      "midi": 66,
      "hit": false,
      "t": 60400.000000000044,
      "d": 130,
      "v": 80
    },
    {
      "midi": 64,
      "hit": false,
      "t": 60800.000000000044,
      "d": 1253.3333333333358,
      "v": 85
    },
    {
      "midi": 68,
      "hit": false,
      "t": 60800.000000000044,
      "d": 1253.3333333333358,
      "v": 85
    },
    {
      "midi": 71,
      "hit": false,
      "t": 60800.000000000044,
      "d": 1253.3333333333358,
      "v": 85
    },
    {
      "midi": 56,
      "hit": false,
      "t": 61866.66666666671,
      "d": 130,
      "v": 68
    },
    {
      "midi": 61,
      "hit": false,
      "t": 62000.000000000044,
      "d": 53.33333333333576,
      "v": 61
    },
    {
      "midi": 64,
      "hit": false,
      "t": 62133.33333333338,
      "d": 106.66666666666424,
      "v": 80
    },
    {
      "midi": 71,
      "hit": false,
      "t": 62266.66666666671,
      "d": 90,
      "v": 95
    },
    {
      "midi": 61,
      "hit": false,
      "t": 62800.000000000044,
      "d": 136.66666666666424,
      "v": 82
    },
    {
      "midi": 64,
      "hit": false,
      "t": 62800.000000000044,
      "d": 136.66666666666424,
      "v": 82
    },
    {
      "midi": 68,
      "hit": false,
      "t": 62800.000000000044,
      "d": 136.66666666666424,
      "v": 82
    },
    {
      "midi": 71,
      "hit": false,
      "t": 62800.000000000044,
      "d": 136.66666666666424,
      "v": 82
    },
    {
      "midi": 61,
      "hit": false,
      "t": 63200.000000000044,
      "d": 163.33333333333576,
      "v": 70
    },
    {
      "midi": 64,
      "hit": false,
      "t": 63200.000000000044,
      "d": 163.33333333333576,
      "v": 70
    },
    {
      "midi": 68,
      "hit": false,
      "t": 63200.000000000044,
      "d": 163.33333333333576,
      "v": 70
    },
    {
      "midi": 71,
      "hit": false,
      "t": 63200.000000000044,
      "d": 163.33333333333576,
      "v": 70
    },
    {
      "midi": 47,
      "hit": false,
      "t": 63466.666666666715,
      "d": 16.66666666666424,
      "v": 52
    },
    {
      "midi": 45,
      "hit": false,
      "t": 63466.666666666715,
      "d": 63.33333333332848,
      "v": 66
    },
    {
      "midi": 61,
      "hit": false,
      "t": 63600.000000000044,
      "d": 140,
      "v": 89
    },
    {
      "midi": 64,
      "hit": false,
      "t": 63600.000000000044,
      "d": 140,
      "v": 89
    },
    {
      "midi": 68,
      "hit": false,
      "t": 63600.000000000044,
      "d": 140,
      "v": 89
    },
    {
      "midi": 71,
      "hit": false,
      "t": 63600.000000000044,
      "d": 140,
      "v": 89
    },
    {
      "midi": 57,
      "hit": false,
      "t": 64400.000000000044,
      "d": 126.66666666666424,
      "v": 82
    },
    {
      "midi": 62,
      "hit": false,
      "t": 64400.000000000044,
      "d": 126.66666666666424,
      "v": 82
    },
    {
      "midi": 66,
      "hit": false,
      "t": 64400.000000000044,
      "d": 126.66666666666424,
      "v": 82
    },
    {
      "midi": 62,
      "hit": false,
      "t": 65200.000000000044,
      "d": 120,
      "v": 70
    },
    {
      "midi": 66,
      "hit": false,
      "t": 65333.33333333338,
      "d": 86.66666666666424,
      "v": 58
    },
    {
      "midi": 69,
      "hit": false,
      "t": 65466.66666666671,
      "d": 100.00000000000728,
      "v": 82
    },
    {
      "midi": 57,
      "hit": false,
      "t": 66000.00000000004,
      "d": 146.66666666667152,
      "v": 76
    },
    {
      "midi": 62,
      "hit": false,
      "t": 66000.00000000004,
      "d": 146.66666666667152,
      "v": 76
    },
    {
      "midi": 66,
      "hit": false,
      "t": 66000.00000000004,
      "d": 146.66666666667152,
      "v": 76
    },
    {
      "midi": 57,
      "hit": false,
      "t": 66400.00000000004,
      "d": 153.33333333332848,
      "v": 78
    },
    {
      "midi": 62,
      "hit": false,
      "t": 66400.00000000004,
      "d": 153.33333333332848,
      "v": 78
    },
    {
      "midi": 66,
      "hit": false,
      "t": 66400.00000000004,
      "d": 153.33333333332848,
      "v": 78
    },
    {
      "midi": 57,
      "hit": false,
      "t": 66800.00000000004,
      "d": 136.66666666667152,
      "v": 82
    },
    {
      "midi": 62,
      "hit": false,
      "t": 66800.00000000004,
      "d": 136.66666666667152,
      "v": 82
    },
    {
      "midi": 66,
      "hit": false,
      "t": 66800.00000000004,
      "d": 136.66666666667152,
      "v": 82
    },
    {
      "midi": 61,
      "hit": false,
      "t": 67200.00000000004,
      "d": 240,
      "v": 85
    },
    {
      "midi": 64,
      "hit": false,
      "t": 67200.00000000004,
      "d": 240,
      "v": 85
    },
    {
      "midi": 66,
      "hit": false,
      "t": 67200.00000000004,
      "d": 240,
      "v": 85
    },
    {
      "midi": 69,
      "hit": false,
      "t": 67200.00000000004,
      "d": 240,
      "v": 85
    },
    {
      "midi": 61,
      "hit": false,
      "t": 67466.66666666672,
      "d": 80,
      "v": 68
    },
    {
      "midi": 64,
      "hit": false,
      "t": 67466.66666666672,
      "d": 80,
      "v": 68
    },
    {
      "midi": 66,
      "hit": false,
      "t": 67466.66666666672,
      "d": 80,
      "v": 68
    },
    {
      "midi": 69,
      "hit": false,
      "t": 67466.66666666672,
      "d": 80,
      "v": 68
    },
    {
      "midi": 61,
      "hit": false,
      "t": 67866.66666666672,
      "d": 110,
      "v": 66
    },
    {
      "midi": 64,
      "hit": false,
      "t": 67866.66666666672,
      "d": 110,
      "v": 66
    },
    {
      "midi": 66,
      "hit": false,
      "t": 67866.66666666672,
      "d": 110,
      "v": 66
    },
    {
      "midi": 69,
      "hit": false,
      "t": 67866.66666666672,
      "d": 110,
      "v": 66
    },
    {
      "midi": 50,
      "hit": false,
      "t": 68266.66666666672,
      "d": 73.33333333332848,
      "v": 55
    },
    {
      "midi": 61,
      "hit": false,
      "t": 68400.00000000004,
      "d": 90,
      "v": 82
    },
    {
      "midi": 64,
      "hit": false,
      "t": 68400.00000000004,
      "d": 90,
      "v": 82
    },
    {
      "midi": 66,
      "hit": false,
      "t": 68400.00000000004,
      "d": 90,
      "v": 82
    },
    {
      "midi": 69,
      "hit": false,
      "t": 68400.00000000004,
      "d": 90,
      "v": 82
    },
    {
      "midi": 59,
      "hit": false,
      "t": 68800.00000000004,
      "d": 190,
      "v": 59
    },
    {
      "midi": 64,
      "hit": false,
      "t": 69066.66666666672,
      "d": 136.66666666665697,
      "v": 53
    },
    {
      "midi": 68,
      "hit": false,
      "t": 69200.00000000004,
      "d": 246.66666666665697,
      "v": 87
    },
    {
      "midi": 73,
      "hit": false,
      "t": 69466.6666666667,
      "d": 150,
      "v": 82
    },
    {
      "midi": 49,
      "hit": false,
      "t": 69866.6666666667,
      "d": 90,
      "v": 66
    },
    {
      "midi": 59,
      "hit": false,
      "t": 70000.00000000003,
      "d": 130,
      "v": 87
    },
    {
      "midi": 61,
      "hit": false,
      "t": 70000.00000000003,
      "d": 130,
      "v": 87
    },
    {
      "midi": 64,
      "hit": false,
      "t": 70000.00000000003,
      "d": 130,
      "v": 87
    },
    {
      "midi": 68,
      "hit": false,
      "t": 70000.00000000003,
      "d": 130,
      "v": 87
    },
    {
      "midi": 56,
      "hit": false,
      "t": 70400.00000000003,
      "d": 240,
      "v": 85
    },
    {
      "midi": 59,
      "hit": false,
      "t": 70400.00000000003,
      "d": 240,
      "v": 85
    },
    {
      "midi": 64,
      "hit": false,
      "t": 70400.00000000003,
      "d": 240,
      "v": 85
    },
    {
      "midi": 56,
      "hit": false,
      "t": 70666.6666666667,
      "d": 80,
      "v": 68
    },
    {
      "midi": 59,
      "hit": false,
      "t": 70666.6666666667,
      "d": 80,
      "v": 68
    },
    {
      "midi": 64,
      "hit": false,
      "t": 70666.6666666667,
      "d": 80,
      "v": 68
    },
    {
      "midi": 56,
      "hit": false,
      "t": 71066.6666666667,
      "d": 110,
      "v": 66
    },
    {
      "midi": 59,
      "hit": false,
      "t": 71066.6666666667,
      "d": 110,
      "v": 66
    },
    {
      "midi": 64,
      "hit": false,
      "t": 71066.6666666667,
      "d": 110,
      "v": 66
    },
    {
      "midi": 54,
      "hit": false,
      "t": 71466.6666666667,
      "d": 73.33333333332848,
      "v": 55
    },
    {
      "midi": 56,
      "hit": false,
      "t": 71600.00000000003,
      "d": 90,
      "v": 82
    },
    {
      "midi": 59,
      "hit": false,
      "t": 71600.00000000003,
      "d": 90,
      "v": 82
    },
    {
      "midi": 64,
      "hit": false,
      "t": 71600.00000000003,
      "d": 90,
      "v": 82
    },
    {
      "midi": 54,
      "hit": false,
      "t": 72266.6666666667,
      "d": 136.66666666667152,
      "v": 63
    },
    {
      "midi": 56,
      "hit": false,
      "t": 72403.33333333337,
      "d": 156.66666666667152,
      "v": 85
    },
    {
      "midi": 59,
      "hit": false,
      "t": 72403.33333333337,
      "d": 156.66666666667152,
      "v": 85
    },
    {
      "midi": 64,
      "hit": false,
      "t": 72403.33333333337,
      "d": 156.66666666667152,
      "v": 85
    },
    {
      "midi": 56,
      "hit": false,
      "t": 72800.00000000004,
      "d": 333.3333333333285,
      "v": 80
    },
    {
      "midi": 59,
      "hit": false,
      "t": 72800.00000000004,
      "d": 333.3333333333285,
      "v": 80
    },
    {
      "midi": 64,
      "hit": false,
      "t": 72800.00000000004,
      "d": 333.3333333333285,
      "v": 80
    },
    {
      "midi": 57,
      "hit": false,
      "t": 73200.00000000004,
      "d": 333.3333333333285,
      "v": 80
    },
    {
      "midi": 61,
      "hit": false,
      "t": 73200.00000000004,
      "d": 333.3333333333285,
      "v": 80
    },
    {
      "midi": 66,
      "hit": false,
      "t": 73200.00000000004,
      "d": 333.3333333333285,
      "v": 80
    },
    {
      "midi": 61,
      "hit": false,
      "t": 73600.00000000004,
      "d": 240,
      "v": 85
    },
    {
      "midi": 64,
      "hit": false,
      "t": 73600.00000000004,
      "d": 240,
      "v": 85
    },
    {
      "midi": 66,
      "hit": false,
      "t": 73600.00000000004,
      "d": 240,
      "v": 85
    },
    {
      "midi": 69,
      "hit": false,
      "t": 73600.00000000004,
      "d": 240,
      "v": 85
    },
    {
      "midi": 61,
      "hit": false,
      "t": 73866.66666666672,
      "d": 80,
      "v": 68
    },
    {
      "midi": 64,
      "hit": false,
      "t": 73866.66666666672,
      "d": 80,
      "v": 68
    },
    {
      "midi": 66,
      "hit": false,
      "t": 73866.66666666672,
      "d": 80,
      "v": 68
    },
    {
      "midi": 69,
      "hit": false,
      "t": 73866.66666666672,
      "d": 80,
      "v": 68
    },
    {
      "midi": 61,
      "hit": false,
      "t": 74266.66666666672,
      "d": 110,
      "v": 66
    },
    {
      "midi": 64,
      "hit": false,
      "t": 74266.66666666672,
      "d": 110,
      "v": 66
    },
    {
      "midi": 66,
      "hit": false,
      "t": 74266.66666666672,
      "d": 110,
      "v": 66
    },
    {
      "midi": 69,
      "hit": false,
      "t": 74266.66666666672,
      "d": 110,
      "v": 66
    },
    {
      "midi": 50,
      "hit": false,
      "t": 74666.66666666672,
      "d": 73.33333333332848,
      "v": 55
    },
    {
      "midi": 61,
      "hit": false,
      "t": 74800.00000000004,
      "d": 90,
      "v": 82
    },
    {
      "midi": 64,
      "hit": false,
      "t": 74800.00000000004,
      "d": 90,
      "v": 82
    },
    {
      "midi": 66,
      "hit": false,
      "t": 74800.00000000004,
      "d": 90,
      "v": 82
    },
    {
      "midi": 69,
      "hit": false,
      "t": 74800.00000000004,
      "d": 90,
      "v": 82
    },
    {
      "midi": 59,
      "hit": false,
      "t": 75200.00000000004,
      "d": 153.33333333332848,
      "v": 80
    },
    {
      "midi": 61,
      "hit": false,
      "t": 75200.00000000004,
      "d": 153.33333333332848,
      "v": 80
    },
    {
      "midi": 64,
      "hit": false,
      "t": 75200.00000000004,
      "d": 153.33333333332848,
      "v": 80
    },
    {
      "midi": 68,
      "hit": false,
      "t": 75200.00000000004,
      "d": 153.33333333332848,
      "v": 80
    },
    {
      "midi": 59,
      "hit": false,
      "t": 75600.00000000004,
      "d": 146.66666666667152,
      "v": 72
    },
    {
      "midi": 61,
      "hit": false,
      "t": 75600.00000000004,
      "d": 146.66666666667152,
      "v": 72
    },
    {
      "midi": 64,
      "hit": false,
      "t": 75600.00000000004,
      "d": 146.66666666667152,
      "v": 72
    },
    {
      "midi": 68,
      "hit": false,
      "t": 75600.00000000004,
      "d": 146.66666666667152,
      "v": 72
    },
    {
      "midi": 49,
      "hit": false,
      "t": 76266.66666666672,
      "d": 60,
      "v": 60
    },
    {
      "midi": 59,
      "hit": false,
      "t": 76400.00000000004,
      "d": 90,
      "v": 85
    },
    {
      "midi": 61,
      "hit": false,
      "t": 76400.00000000004,
      "d": 90,
      "v": 85
    },
    {
      "midi": 64,
      "hit": false,
      "t": 76400.00000000004,
      "d": 90,
      "v": 85
    },
    {
      "midi": 68,
      "hit": false,
      "t": 76400.00000000004,
      "d": 90,
      "v": 85
    },
    {
      "midi": 56,
      "hit": false,
      "t": 77200.00000000004,
      "d": 266.6666666666715,
      "v": 82
    },
    {
      "midi": 59,
      "hit": false,
      "t": 77200.00000000004,
      "d": 266.6666666666715,
      "v": 82
    },
    {
      "midi": 64,
      "hit": false,
      "t": 77200.00000000004,
      "d": 266.6666666666715,
      "v": 82
    },
    {
      "midi": 64,
      "hit": false,
      "t": 77866.66666666672,
      "d": 140,
      "v": 68
    },
    {
      "midi": 67,
      "hit": false,
      "t": 78006.66666666672,
      "d": 43.33333333332848,
      "v": 52
    },
    {
      "midi": 68,
      "hit": false,
      "t": 78006.66666666672,
      "d": 96.66666666665697,
      "v": 82
    },
    {
      "midi": 71,
      "hit": false,
      "t": 78133.33333333337,
      "d": 80,
      "v": 78
    },
    {
      "midi": 76,
      "hit": false,
      "t": 78266.6666666667,
      "d": 40,
      "v": 98
    },
    {
      "midi": 54,
      "hit": false,
      "t": 78666.6666666667,
      "d": 136.66666666667152,
      "v": 63
    },
    {
      "midi": 56,
      "hit": false,
      "t": 78803.33333333337,
      "d": 156.66666666667152,
      "v": 85
    },
    {
      "midi": 59,
      "hit": false,
      "t": 78803.33333333337,
      "d": 156.66666666667152,
      "v": 85
    },
    {
      "midi": 64,
      "hit": false,
      "t": 78803.33333333337,
      "d": 156.66666666667152,
      "v": 85
    },
    {
      "midi": 56,
      "hit": false,
      "t": 79200.00000000004,
      "d": 333.3333333333285,
      "v": 80
    },
    {
      "midi": 59,
      "hit": false,
      "t": 79200.00000000004,
      "d": 333.3333333333285,
      "v": 80
    },
    {
      "midi": 64,
      "hit": false,
      "t": 79200.00000000004,
      "d": 333.3333333333285,
      "v": 80
    },
    {
      "midi": 61,
      "hit": false,
      "t": 79600.00000000004,
      "d": 333.3333333333285,
      "v": 80
    },
    {
      "midi": 66,
      "hit": false,
      "t": 79600.00000000004,
      "d": 333.3333333333285,
      "v": 80
    },
    {
      "midi": 69,
      "hit": false,
      "t": 79600.00000000004,
      "d": 333.3333333333285,
      "v": 80
    },
    {
      "midi": 63,
      "hit": false,
      "t": 80000.00000000004,
      "d": 190,
      "v": 59
    },
    {
      "midi": 68,
      "hit": false,
      "t": 80266.66666666672,
      "d": 136.66666666665697,
      "v": 53
    },
    {
      "midi": 71,
      "hit": false,
      "t": 80400.00000000004,
      "d": 246.66666666665697,
      "v": 87
    },
    {
      "midi": 78,
      "hit": false,
      "t": 80666.6666666667,
      "d": 150,
      "v": 82
    },
    {
      "midi": 52,
      "hit": false,
      "t": 81066.6666666667,
      "d": 90,
      "v": 66
    },
    {
      "midi": 59,
      "hit": false,
      "t": 81200.00000000003,
      "d": 130,
      "v": 87
    },
    {
      "midi": 63,
      "hit": false,
      "t": 81200.00000000003,
      "d": 130,
      "v": 87
    },
    {
      "midi": 66,
      "hit": false,
      "t": 81200.00000000003,
      "d": 130,
      "v": 87
    },
    {
      "midi": 68,
      "hit": false,
      "t": 81200.00000000003,
      "d": 130,
      "v": 87
    },
    {
      "midi": 61,
      "hit": false,
      "t": 81600.00000000003,
      "d": 190,
      "v": 59
    },
    {
      "midi": 66,
      "hit": false,
      "t": 81866.6666666667,
      "d": 136.66666666665697,
      "v": 53
    },
    {
      "midi": 70,
      "hit": false,
      "t": 82000.00000000003,
      "d": 246.66666666665697,
      "v": 87
    },
    {
      "midi": 75,
      "hit": false,
      "t": 82266.66666666669,
      "d": 150,
      "v": 82
    },
    {
      "midi": 51,
      "hit": false,
      "t": 82666.66666666669,
      "d": 90,
      "v": 66
    },
    {
      "midi": 58,
      "hit": false,
      "t": 82800.00000000001,
      "d": 130,
      "v": 87
    },
    {
      "midi": 61,
      "hit": false,
      "t": 82800.00000000001,
      "d": 130,
      "v": 87
    },
    {
      "midi": 63,
      "hit": false,
      "t": 82800.00000000001,
      "d": 130,
      "v": 87
    },
    {
      "midi": 66,
      "hit": false,
      "t": 82800.00000000001,
      "d": 130,
      "v": 87
    },
    {
      "midi": 61,
      "hit": false,
      "t": 83200.00000000001,
      "d": 240,
      "v": 85
    },
    {
      "midi": 64,
      "hit": false,
      "t": 83200.00000000001,
      "d": 240,
      "v": 85
    },
    {
      "midi": 66,
      "hit": false,
      "t": 83200.00000000001,
      "d": 240,
      "v": 85
    },
    {
      "midi": 69,
      "hit": false,
      "t": 83200.00000000001,
      "d": 240,
      "v": 85
    },
    {
      "midi": 61,
      "hit": false,
      "t": 83466.66666666669,
      "d": 80,
      "v": 68
    },
    {
      "midi": 64,
      "hit": false,
      "t": 83466.66666666669,
      "d": 80,
      "v": 68
    },
    {
      "midi": 66,
      "hit": false,
      "t": 83466.66666666669,
      "d": 80,
      "v": 68
    },
    {
      "midi": 69,
      "hit": false,
      "t": 83466.66666666669,
      "d": 80,
      "v": 68
    },
    {
      "midi": 61,
      "hit": false,
      "t": 83866.66666666669,
      "d": 110,
      "v": 66
    },
    {
      "midi": 64,
      "hit": false,
      "t": 83866.66666666669,
      "d": 110,
      "v": 66
    },
    {
      "midi": 66,
      "hit": false,
      "t": 83866.66666666669,
      "d": 110,
      "v": 66
    },
    {
      "midi": 69,
      "hit": false,
      "t": 83866.66666666669,
      "d": 110,
      "v": 66
    },
    {
      "midi": 50,
      "hit": false,
      "t": 84266.66666666669,
      "d": 73.33333333332848,
      "v": 55
    },
    {
      "midi": 61,
      "hit": false,
      "t": 84400.00000000001,
      "d": 90,
      "v": 82
    },
    {
      "midi": 64,
      "hit": false,
      "t": 84400.00000000001,
      "d": 90,
      "v": 82
    },
    {
      "midi": 66,
      "hit": false,
      "t": 84400.00000000001,
      "d": 90,
      "v": 82
    },
    {
      "midi": 69,
      "hit": false,
      "t": 84400.00000000001,
      "d": 90,
      "v": 82
    },
    {
      "midi": 59,
      "hit": false,
      "t": 84800.00000000001,
      "d": 240,
      "v": 85
    },
    {
      "midi": 61,
      "hit": false,
      "t": 84800.00000000001,
      "d": 240,
      "v": 85
    },
    {
      "midi": 64,
      "hit": false,
      "t": 84800.00000000001,
      "d": 240,
      "v": 85
    },
    {
      "midi": 68,
      "hit": false,
      "t": 84800.00000000001,
      "d": 240,
      "v": 85
    },
    {
      "midi": 59,
      "hit": false,
      "t": 85066.66666666669,
      "d": 80,
      "v": 68
    },
    {
      "midi": 61,
      "hit": false,
      "t": 85066.66666666669,
      "d": 80,
      "v": 68
    },
    {
      "midi": 64,
      "hit": false,
      "t": 85066.66666666669,
      "d": 80,
      "v": 68
    },
    {
      "midi": 68,
      "hit": false,
      "t": 85066.66666666669,
      "d": 80,
      "v": 68
    },
    {
      "midi": 59,
      "hit": false,
      "t": 85466.66666666669,
      "d": 110,
      "v": 66
    },
    {
      "midi": 61,
      "hit": false,
      "t": 85466.66666666669,
      "d": 110,
      "v": 66
    },
    {
      "midi": 64,
      "hit": false,
      "t": 85466.66666666669,
      "d": 110,
      "v": 66
    },
    {
      "midi": 68,
      "hit": false,
      "t": 85466.66666666669,
      "d": 110,
      "v": 66
    },
    {
      "midi": 49,
      "hit": false,
      "t": 85866.66666666669,
      "d": 73.33333333332848,
      "v": 55
    },
    {
      "midi": 59,
      "hit": false,
      "t": 86000.00000000001,
      "d": 90,
      "v": 82
    },
    {
      "midi": 61,
      "hit": false,
      "t": 86000.00000000001,
      "d": 90,
      "v": 82
    },
    {
      "midi": 64,
      "hit": false,
      "t": 86000.00000000001,
      "d": 90,
      "v": 82
    },
    {
      "midi": 68,
      "hit": false,
      "t": 86000.00000000001,
      "d": 90,
      "v": 82
    },
    {
      "midi": 59,
      "hit": false,
      "t": 86400.00000000001,
      "d": 190,
      "v": 59
    },
    {
      "midi": 64,
      "hit": false,
      "t": 86666.66666666669,
      "d": 136.66666666665697,
      "v": 53
    },
    {
      "midi": 67,
      "hit": false,
      "t": 86800.00000000001,
      "d": 246.66666666665697,
      "v": 87
    },
    {
      "midi": 74,
      "hit": false,
      "t": 87066.66666666667,
      "d": 150,
      "v": 82
    },
    {
      "midi": 48,
      "hit": false,
      "t": 87466.66666666667,
      "d": 90,
      "v": 66
    },
    {
      "midi": 59,
      "hit": false,
      "t": 87600,
      "d": 130,
      "v": 87
    },
    {
      "midi": 62,
      "hit": false,
      "t": 87600,
      "d": 130,
      "v": 87
    },
    {
      "midi": 64,
      "hit": false,
      "t": 87600,
      "d": 130,
      "v": 87
    },
    {
      "midi": 67,
      "hit": false,
      "t": 87600,
      "d": 130,
      "v": 87
    },
    {
      "midi": 55,
      "hit": false,
      "t": 88400,
      "d": 216.66666666667152,
      "v": 78
    },
    {
      "midi": 57,
      "hit": false,
      "t": 88400,
      "d": 216.66666666667152,
      "v": 78
    },
    {
      "midi": 62,
      "hit": false,
      "t": 88400,
      "d": 216.66666666667152,
      "v": 78
    },
    {
      "midi": 50,
      "hit": false,
      "t": 89066.66666666667,
      "d": 70,
      "v": 57
    },
    {
      "midi": 55,
      "hit": false,
      "t": 89200,
      "d": 73.33333333332848,
      "v": 89
    },
    {
      "midi": 57,
      "hit": false,
      "t": 89200,
      "d": 73.33333333332848,
      "v": 89
    },
    {
      "midi": 62,
      "hit": false,
      "t": 89200,
      "d": 73.33333333332848,
      "v": 89
    },
    {
      "midi": 55,
      "hit": false,
      "t": 89600,
      "d": 333.3333333333285,
      "v": 80
    },
    {
      "midi": 57,
      "hit": false,
      "t": 89600,
      "d": 333.3333333333285,
      "v": 80
    },
    {
      "midi": 62,
      "hit": false,
      "t": 89600,
      "d": 333.3333333333285,
      "v": 80
    },
    {
      "midi": 57,
      "hit": false,
      "t": 90000,
      "d": 333.3333333333285,
      "v": 80
    },
    {
      "midi": 62,
      "hit": false,
      "t": 90000,
      "d": 333.3333333333285,
      "v": 80
    },
    {
      "midi": 66,
      "hit": false,
      "t": 90000,
      "d": 333.3333333333285,
      "v": 80
    },
    {
      "midi": 57,
      "hit": false,
      "t": 90800,
      "d": 170,
      "v": 82
    },
    {
      "midi": 62,
      "hit": false,
      "t": 90800,
      "d": 170,
      "v": 82
    },
    {
      "midi": 66,
      "hit": false,
      "t": 90800,
      "d": 170,
      "v": 82
    },
    {
      "midi": 59,
      "hit": false,
      "t": 91200,
      "d": 753.3333333333285,
      "v": 89
    },
    {
      "midi": 62,
      "hit": false,
      "t": 91200,
      "d": 753.3333333333285,
      "v": 89
    },
    {
      "midi": 66,
      "hit": false,
      "t": 91200,
      "d": 753.3333333333285,
      "v": 89
    },
    {
      "midi": 69,
      "hit": false,
      "t": 91200,
      "d": 753.3333333333285,
      "v": 89
    },
    {
      "midi": 54,
      "hit": false,
      "t": 92000,
      "d": 216.66666666667152,
      "v": 78
    },
    {
      "midi": 55,
      "hit": false,
      "t": 92266.66666666667,
      "d": 153.33333333332848,
      "v": 53
    },
    {
      "midi": 59,
      "hit": false,
      "t": 92400,
      "d": 236.66666666667152,
      "v": 52
    },
    {
      "midi": 62,
      "hit": false,
      "t": 92666.66666666667,
      "d": 70,
      "v": 89
    },
    {
      "midi": 57,
      "hit": false,
      "t": 92800,
      "d": 753.3333333333285,
      "v": 89
    },
    {
      "midi": 59,
      "hit": false,
      "t": 92800,
      "d": 753.3333333333285,
      "v": 89
    },
    {
      "midi": 62,
      "hit": false,
      "t": 92800,
      "d": 753.3333333333285,
      "v": 89
    },
    {
      "midi": 66,
      "hit": false,
      "t": 92800,
      "d": 753.3333333333285,
      "v": 89
    },
    {
      "midi": 57,
      "hit": false,
      "t": 93600,
      "d": 216.66666666667152,
      "v": 78
    },
    {
      "midi": 59,
      "hit": false,
      "t": 93866.66666666667,
      "d": 153.33333333332848,
      "v": 53
    },
    {
      "midi": 62,
      "hit": false,
      "t": 94000,
      "d": 236.66666666667152,
      "v": 52
    },
    {
      "midi": 66,
      "hit": false,
      "t": 94266.66666666667,
      "d": 70,
      "v": 89
    },
    {
      "midi": 45,
      "hit": false,
      "t": 94400,
      "d": 160,
      "v": 72
    },
    {
      "midi": 60,
      "hit": false,
      "t": 94400,
      "d": 200,
      "v": 87
    },
    {
      "midi": 64,
      "hit": false,
      "t": 94400,
      "d": 200,
      "v": 87
    },
    {
      "midi": 67,
      "hit": false,
      "t": 94400,
      "d": 200,
      "v": 87
    },
    {
      "midi": 69,
      "hit": false,
      "t": 94400,
      "d": 200,
      "v": 87
    },
    {
      "midi": 45,
      "hit": false,
      "t": 94800,
      "d": 626.6666666666715,
      "v": 66
    },
    {
      "midi": 60,
      "hit": false,
      "t": 94800,
      "d": 690,
      "v": 74
    },
    {
      "midi": 64,
      "hit": false,
      "t": 94800,
      "d": 690,
      "v": 74
    },
    {
      "midi": 67,
      "hit": false,
      "t": 94800,
      "d": 690,
      "v": 74
    },
    {
      "midi": 69,
      "hit": false,
      "t": 94800,
      "d": 690,
      "v": 74
    },
    {
      "midi": 40,
      "hit": false,
      "t": 95466.66666666667,
      "d": 110,
      "v": 68
    },
    {
      "midi": 45,
      "hit": false,
      "t": 95600,
      "d": 140,
      "v": 66
    },
    {
      "midi": 60,
      "hit": false,
      "t": 95600,
      "d": 170,
      "v": 87
    },
    {
      "midi": 64,
      "hit": false,
      "t": 95600,
      "d": 170,
      "v": 87
    },
    {
      "midi": 67,
      "hit": false,
      "t": 95600,
      "d": 170,
      "v": 87
    },
    {
      "midi": 69,
      "hit": false,
      "t": 95600,
      "d": 170,
      "v": 87
    },
    {
      "midi": 60,
      "hit": false,
      "t": 96000,
      "d": 213.33333333332848,
      "v": 87
    },
    {
      "midi": 64,
      "hit": false,
      "t": 96000,
      "d": 213.33333333332848,
      "v": 87
    },
    {
      "midi": 67,
      "hit": false,
      "t": 96000,
      "d": 213.33333333332848,
      "v": 87
    },
    {
      "midi": 69,
      "hit": false,
      "t": 96000,
      "d": 213.33333333332848,
      "v": 87
    },
    {
      "midi": 45,
      "hit": false,
      "t": 96266.66666666666,
      "d": 150,
      "v": 64
    },
    {
      "midi": 60,
      "hit": false,
      "t": 96399.99999999999,
      "d": 110,
      "v": 100
    },
    {
      "midi": 64,
      "hit": false,
      "t": 96399.99999999999,
      "d": 110,
      "v": 100
    },
    {
      "midi": 67,
      "hit": false,
      "t": 96399.99999999999,
      "d": 110,
      "v": 100
    },
    {
      "midi": 69,
      "hit": false,
      "t": 96399.99999999999,
      "d": 110,
      "v": 100
    },
    {
      "midi": 55,
      "hit": false,
      "t": 96799.99999999999,
      "d": 213.33333333332848,
      "v": 62
    },
    {
      "midi": 60,
      "hit": false,
      "t": 96799.99999999999,
      "d": 213.33333333332848,
      "v": 62
    },
    {
      "midi": 64,
      "hit": false,
      "t": 96799.99999999999,
      "d": 213.33333333332848,
      "v": 62
    },
    {
      "midi": 55,
      "hit": false,
      "t": 97199.99999999999,
      "d": 133.33333333332848,
      "v": 87
    },
    {
      "midi": 60,
      "hit": false,
      "t": 97199.99999999999,
      "d": 133.33333333332848,
      "v": 87
    },
    {
      "midi": 64,
      "hit": false,
      "t": 97199.99999999999,
      "d": 133.33333333332848,
      "v": 87
    },
    {
      "midi": 59,
      "hit": false,
      "t": 97599.99999999999,
      "d": 223.33333333332848,
      "v": 82
    },
    {
      "midi": 62,
      "hit": false,
      "t": 97599.99999999999,
      "d": 223.33333333332848,
      "v": 82
    },
    {
      "midi": 66,
      "hit": false,
      "t": 97599.99999999999,
      "d": 223.33333333332848,
      "v": 82
    },
    {
      "midi": 69,
      "hit": false,
      "t": 97599.99999999999,
      "d": 223.33333333332848,
      "v": 82
    },
    {
      "midi": 59,
      "hit": false,
      "t": 97999.99999999999,
      "d": 753.3333333333285,
      "v": 89
    },
    {
      "midi": 62,
      "hit": false,
      "t": 97999.99999999999,
      "d": 753.3333333333285,
      "v": 89
    },
    {
      "midi": 66,
      "hit": false,
      "t": 97999.99999999999,
      "d": 753.3333333333285,
      "v": 89
    },
    {
      "midi": 69,
      "hit": false,
      "t": 97999.99999999999,
      "d": 753.3333333333285,
      "v": 89
    },
    {
      "midi": 54,
      "hit": false,
      "t": 98799.99999999999,
      "d": 113.33333333332848,
      "v": 70
    },
    {
      "midi": 59,
      "hit": false,
      "t": 98933.33333333331,
      "d": 100,
      "v": 45
    },
    {
      "midi": 62,
      "hit": false,
      "t": 99066.66666666664,
      "d": 63.33333333332848,
      "v": 87
    },
    {
      "midi": 57,
      "hit": false,
      "t": 99199.99999999997,
      "d": 223.33333333332848,
      "v": 82
    },
    {
      "midi": 59,
      "hit": false,
      "t": 99199.99999999997,
      "d": 223.33333333332848,
      "v": 82
    },
    {
      "midi": 62,
      "hit": false,
      "t": 99199.99999999997,
      "d": 223.33333333332848,
      "v": 82
    },
    {
      "midi": 66,
      "hit": false,
      "t": 99199.99999999997,
      "d": 223.33333333332848,
      "v": 82
    },
    {
      "midi": 57,
      "hit": false,
      "t": 99599.99999999997,
      "d": 753.3333333333285,
      "v": 89
    },
    {
      "midi": 59,
      "hit": false,
      "t": 99599.99999999997,
      "d": 753.3333333333285,
      "v": 89
    },
    {
      "midi": 62,
      "hit": false,
      "t": 99599.99999999997,
      "d": 753.3333333333285,
      "v": 89
    },
    {
      "midi": 66,
      "hit": false,
      "t": 99599.99999999997,
      "d": 753.3333333333285,
      "v": 89
    },
    {
      "midi": 57,
      "hit": false,
      "t": 100399.99999999997,
      "d": 113.33333333332848,
      "v": 70
    },
    {
      "midi": 62,
      "hit": false,
      "t": 100533.3333333333,
      "d": 100,
      "v": 45
    },
    {
      "midi": 66,
      "hit": false,
      "t": 100666.66666666663,
      "d": 63.33333333332848,
      "v": 87
    },
    {
      "midi": 47,
      "hit": false,
      "t": 100799.99999999996,
      "d": 160,
      "v": 72
    },
    {
      "midi": 57,
      "hit": false,
      "t": 100799.99999999996,
      "d": 200,
      "v": 87
    },
    {
      "midi": 59,
      "hit": false,
      "t": 100799.99999999996,
      "d": 200,
      "v": 87
    },
    {
      "midi": 62,
      "hit": false,
      "t": 100799.99999999996,
      "d": 200,
      "v": 87
    },
    {
      "midi": 66,
      "hit": false,
      "t": 100799.99999999996,
      "d": 200,
      "v": 87
    },
    {
      "midi": 47,
      "hit": false,
      "t": 101199.99999999996,
      "d": 626.6666666666715,
      "v": 66
    },
    {
      "midi": 57,
      "hit": false,
      "t": 101199.99999999996,
      "d": 690,
      "v": 74
    },
    {
      "midi": 59,
      "hit": false,
      "t": 101199.99999999996,
      "d": 690,
      "v": 74
    },
    {
      "midi": 62,
      "hit": false,
      "t": 101199.99999999996,
      "d": 690,
      "v": 74
    },
    {
      "midi": 66,
      "hit": false,
      "t": 101199.99999999996,
      "d": 690,
      "v": 74
    },
    {
      "midi": 42,
      "hit": false,
      "t": 101866.66666666663,
      "d": 110,
      "v": 68
    },
    {
      "midi": 47,
      "hit": false,
      "t": 101999.99999999996,
      "d": 140,
      "v": 66
    },
    {
      "midi": 57,
      "hit": false,
      "t": 101999.99999999996,
      "d": 170,
      "v": 87
    },
    {
      "midi": 59,
      "hit": false,
      "t": 101999.99999999996,
      "d": 170,
      "v": 87
    },
    {
      "midi": 62,
      "hit": false,
      "t": 101999.99999999996,
      "d": 170,
      "v": 87
    },
    {
      "midi": 66,
      "hit": false,
      "t": 101999.99999999996,
      "d": 170,
      "v": 87
    },
    {
      "midi": 55,
      "hit": false,
      "t": 102399.99999999996,
      "d": 223.33333333332848,
      "v": 82
    },
    {
      "midi": 60,
      "hit": false,
      "t": 102399.99999999996,
      "d": 223.33333333332848,
      "v": 82
    },
    {
      "midi": 64,
      "hit": false,
      "t": 102399.99999999996,
      "d": 223.33333333332848,
      "v": 82
    },
    {
      "midi": 55,
      "hit": false,
      "t": 102799.99999999996,
      "d": 753.3333333333285,
      "v": 89
    },
    {
      "midi": 60,
      "hit": false,
      "t": 102799.99999999996,
      "d": 753.3333333333285,
      "v": 89
    },
    {
      "midi": 64,
      "hit": false,
      "t": 102799.99999999996,
      "d": 753.3333333333285,
      "v": 89
    },
    {
      "midi": 60,
      "hit": false,
      "t": 103599.99999999996,
      "d": 113.33333333332848,
      "v": 70
    },
    {
      "midi": 64,
      "hit": false,
      "t": 103733.33333333328,
      "d": 100,
      "v": 45
    },
    {
      "midi": 67,
      "hit": false,
      "t": 103866.66666666661,
      "d": 63.33333333332848,
      "v": 87
    },
    {
      "midi": 55,
      "hit": false,
      "t": 103999.99999999994,
      "d": 223.33333333332848,
      "v": 82
    },
    {
      "midi": 60,
      "hit": false,
      "t": 103999.99999999994,
      "d": 223.33333333332848,
      "v": 82
    },
    {
      "midi": 64,
      "hit": false,
      "t": 103999.99999999994,
      "d": 223.33333333332848,
      "v": 82
    },
    {
      "midi": 55,
      "hit": false,
      "t": 104399.99999999994,
      "d": 753.3333333333285,
      "v": 89
    },
    {
      "midi": 60,
      "hit": false,
      "t": 104399.99999999994,
      "d": 753.3333333333285,
      "v": 89
    },
    {
      "midi": 64,
      "hit": false,
      "t": 104399.99999999994,
      "d": 753.3333333333285,
      "v": 89
    },
    {
      "midi": 60,
      "hit": false,
      "t": 105199.99999999994,
      "d": 113.33333333332848,
      "v": 70
    },
    {
      "midi": 64,
      "hit": false,
      "t": 105333.33333333327,
      "d": 100,
      "v": 45
    },
    {
      "midi": 67,
      "hit": false,
      "t": 105466.6666666666,
      "d": 63.33333333332848,
      "v": 87
    },
    {
      "midi": 43,
      "hit": false,
      "t": 105599.99999999993,
      "d": 160,
      "v": 72
    },
    {
      "midi": 59,
      "hit": false,
      "t": 105599.99999999993,
      "d": 200,
      "v": 87
    },
    {
      "midi": 62,
      "hit": false,
      "t": 105599.99999999993,
      "d": 200,
      "v": 87
    },
    {
      "midi": 66,
      "hit": false,
      "t": 105599.99999999993,
      "d": 200,
      "v": 87
    },
    {
      "midi": 69,
      "hit": false,
      "t": 105599.99999999993,
      "d": 200,
      "v": 87
    },
    {
      "midi": 43,
      "hit": false,
      "t": 105999.99999999993,
      "d": 626.6666666666715,
      "v": 66
    },
    {
      "midi": 59,
      "hit": false,
      "t": 105999.99999999993,
      "d": 690,
      "v": 74
    },
    {
      "midi": 62,
      "hit": false,
      "t": 105999.99999999993,
      "d": 690,
      "v": 74
    },
    {
      "midi": 66,
      "hit": false,
      "t": 105999.99999999993,
      "d": 690,
      "v": 74
    },
    {
      "midi": 69,
      "hit": false,
      "t": 105999.99999999993,
      "d": 690,
      "v": 74
    },
    {
      "midi": 38,
      "hit": false,
      "t": 106666.6666666666,
      "d": 110,
      "v": 68
    },
    {
      "midi": 43,
      "hit": false,
      "t": 106799.99999999993,
      "d": 140,
      "v": 66
    },
    {
      "midi": 59,
      "hit": false,
      "t": 106799.99999999993,
      "d": 170,
      "v": 87
    },
    {
      "midi": 62,
      "hit": false,
      "t": 106799.99999999993,
      "d": 170,
      "v": 87
    },
    {
      "midi": 66,
      "hit": false,
      "t": 106799.99999999993,
      "d": 170,
      "v": 87
    },
    {
      "midi": 69,
      "hit": false,
      "t": 106799.99999999993,
      "d": 170,
      "v": 87
    },
    {
      "midi": 57,
      "hit": false,
      "t": 107199.99999999993,
      "d": 1060,
      "v": 76
    },
    {
      "midi": 59,
      "hit": false,
      "t": 107199.99999999993,
      "d": 1060,
      "v": 76
    },
    {
      "midi": 62,
      "hit": false,
      "t": 107199.99999999993,
      "d": 1060,
      "v": 76
    },
    {
      "midi": 66,
      "hit": false,
      "t": 107199.99999999993,
      "d": 1060,
      "v": 76
    },
    {
      "midi": 47,
      "hit": false,
      "t": 108266.6666666666,
      "d": 153.33333333332848,
      "v": 57
    },
    {
      "midi": 57,
      "hit": false,
      "t": 108419.99999999993,
      "d": 120,
      "v": 85
    },
    {
      "midi": 59,
      "hit": false,
      "t": 108419.99999999993,
      "d": 120,
      "v": 85
    },
    {
      "midi": 62,
      "hit": false,
      "t": 108419.99999999993,
      "d": 120,
      "v": 85
    },
    {
      "midi": 66,
      "hit": false,
      "t": 108419.99999999993,
      "d": 120,
      "v": 85
    },
    {
      "midi": 45,
      "hit": false,
      "t": 108799.99999999993,
      "d": 160,
      "v": 72
    },
    {
      "midi": 60,
      "hit": false,
      "t": 108799.99999999993,
      "d": 200,
      "v": 87
    },
    {
      "midi": 64,
      "hit": false,
      "t": 108799.99999999993,
      "d": 200,
      "v": 87
    },
    {
      "midi": 67,
      "hit": false,
      "t": 108799.99999999993,
      "d": 200,
      "v": 87
    },
    {
      "midi": 69,
      "hit": false,
      "t": 108799.99999999993,
      "d": 200,
      "v": 87
    },
    {
      "midi": 45,
      "hit": false,
      "t": 109199.99999999993,
      "d": 626.6666666666715,
      "v": 66
    },
    {
      "midi": 60,
      "hit": false,
      "t": 109199.99999999993,
      "d": 690,
      "v": 74
    },
    {
      "midi": 64,
      "hit": false,
      "t": 109199.99999999993,
      "d": 690,
      "v": 74
    },
    {
      "midi": 67,
      "hit": false,
      "t": 109199.99999999993,
      "d": 690,
      "v": 74
    },
    {
      "midi": 69,
      "hit": false,
      "t": 109199.99999999993,
      "d": 690,
      "v": 74
    },
    {
      "midi": 40,
      "hit": false,
      "t": 109866.6666666666,
      "d": 110,
      "v": 68
    },
    {
      "midi": 45,
      "hit": false,
      "t": 109999.99999999993,
      "d": 140,
      "v": 66
    },
    {
      "midi": 60,
      "hit": false,
      "t": 109999.99999999993,
      "d": 170,
      "v": 87
    },
    {
      "midi": 64,
      "hit": false,
      "t": 109999.99999999993,
      "d": 170,
      "v": 87
    },
    {
      "midi": 67,
      "hit": false,
      "t": 109999.99999999993,
      "d": 170,
      "v": 87
    },
    {
      "midi": 69,
      "hit": false,
      "t": 109999.99999999993,
      "d": 170,
      "v": 87
    },
    {
      "midi": 60,
      "hit": false,
      "t": 110399.99999999993,
      "d": 213.33333333332848,
      "v": 62
    },
    {
      "midi": 64,
      "hit": false,
      "t": 110399.99999999993,
      "d": 213.33333333332848,
      "v": 62
    },
    {
      "midi": 67,
      "hit": false,
      "t": 110399.99999999993,
      "d": 213.33333333332848,
      "v": 62
    },
    {
      "midi": 69,
      "hit": false,
      "t": 110399.99999999993,
      "d": 213.33333333332848,
      "v": 62
    },
    {
      "midi": 60,
      "hit": false,
      "t": 110799.99999999993,
      "d": 133.33333333332848,
      "v": 87
    },
    {
      "midi": 64,
      "hit": false,
      "t": 110799.99999999993,
      "d": 133.33333333332848,
      "v": 87
    },
    {
      "midi": 67,
      "hit": false,
      "t": 110799.99999999993,
      "d": 133.33333333332848,
      "v": 87
    },
    {
      "midi": 69,
      "hit": false,
      "t": 110799.99999999993,
      "d": 133.33333333332848,
      "v": 87
    },
    {
      "midi": 55,
      "hit": false,
      "t": 111199.99999999993,
      "d": 213.33333333332848,
      "v": 87
    },
    {
      "midi": 60,
      "hit": false,
      "t": 111199.99999999993,
      "d": 213.33333333332848,
      "v": 87
    },
    {
      "midi": 64,
      "hit": false,
      "t": 111199.99999999993,
      "d": 213.33333333332848,
      "v": 87
    },
    {
      "midi": 50,
      "hit": false,
      "t": 111466.66666666658,
      "d": 150,
      "v": 64
    },
    {
      "midi": 55,
      "hit": false,
      "t": 111599.99999999991,
      "d": 110,
      "v": 100
    },
    {
      "midi": 60,
      "hit": false,
      "t": 111599.99999999991,
      "d": 110,
      "v": 100
    },
    {
      "midi": 64,
      "hit": false,
      "t": 111599.99999999991,
      "d": 110,
      "v": 100
    },
    {
      "midi": 59,
      "hit": false,
      "t": 111999.99999999991,
      "d": 223.33333333332848,
      "v": 82
    },
    {
      "midi": 62,
      "hit": false,
      "t": 111999.99999999991,
      "d": 223.33333333332848,
      "v": 82
    },
    {
      "midi": 66,
      "hit": false,
      "t": 111999.99999999991,
      "d": 223.33333333332848,
      "v": 82
    },
    {
      "midi": 69,
      "hit": false,
      "t": 111999.99999999991,
      "d": 223.33333333332848,
      "v": 82
    },
    {
      "midi": 59,
      "hit": false,
      "t": 112399.99999999991,
      "d": 753.3333333333285,
      "v": 89
    },
    {
      "midi": 62,
      "hit": false,
      "t": 112399.99999999991,
      "d": 753.3333333333285,
      "v": 89
    },
    {
      "midi": 66,
      "hit": false,
      "t": 112399.99999999991,
      "d": 753.3333333333285,
      "v": 89
    },
    {
      "midi": 69,
      "hit": false,
      "t": 112399.99999999991,
      "d": 753.3333333333285,
      "v": 89
    },
    {
      "midi": 54,
      "hit": false,
      "t": 113199.99999999991,
      "d": 113.33333333332848,
      "v": 70
    },
    {
      "midi": 59,
      "hit": false,
      "t": 113333.33333333324,
      "d": 100,
      "v": 45
    },
    {
      "midi": 62,
      "hit": false,
      "t": 113466.66666666657,
      "d": 63.33333333332848,
      "v": 87
    },
    {
      "midi": 47,
      "hit": false,
      "t": 113599.9999999999,
      "d": 160,
      "v": 72
    },
    {
      "midi": 62,
      "hit": false,
      "t": 113599.9999999999,
      "d": 200,
      "v": 87
    },
    {
      "midi": 66,
      "hit": false,
      "t": 113599.9999999999,
      "d": 200,
      "v": 87
    },
    {
      "midi": 69,
      "hit": false,
      "t": 113599.9999999999,
      "d": 200,
      "v": 87
    },
    {
      "midi": 71,
      "hit": false,
      "t": 113599.9999999999,
      "d": 200,
      "v": 87
    },
    {
      "midi": 47,
      "hit": false,
      "t": 113999.9999999999,
      "d": 626.6666666666715,
      "v": 66
    },
    {
      "midi": 62,
      "hit": false,
      "t": 113999.9999999999,
      "d": 690,
      "v": 74
    },
    {
      "midi": 66,
      "hit": false,
      "t": 113999.9999999999,
      "d": 690,
      "v": 74
    },
    {
      "midi": 69,
      "hit": false,
      "t": 113999.9999999999,
      "d": 690,
      "v": 74
    },
    {
      "midi": 71,
      "hit": false,
      "t": 113999.9999999999,
      "d": 690,
      "v": 74
    },
    {
      "midi": 42,
      "hit": false,
      "t": 114666.66666666657,
      "d": 110,
      "v": 68
    },
    {
      "midi": 47,
      "hit": false,
      "t": 114799.9999999999,
      "d": 140,
      "v": 66
    },
    {
      "midi": 62,
      "hit": false,
      "t": 114799.9999999999,
      "d": 170,
      "v": 87
    },
    {
      "midi": 66,
      "hit": false,
      "t": 114799.9999999999,
      "d": 170,
      "v": 87
    },
    {
      "midi": 69,
      "hit": false,
      "t": 114799.9999999999,
      "d": 170,
      "v": 87
    },
    {
      "midi": 71,
      "hit": false,
      "t": 114799.9999999999,
      "d": 170,
      "v": 87
    },
    {
      "midi": 62,
      "hit": false,
      "t": 115199.9999999999,
      "d": 223.33333333332848,
      "v": 82
    },
    {
      "midi": 66,
      "hit": false,
      "t": 115199.9999999999,
      "d": 223.33333333332848,
      "v": 82
    },
    {
      "midi": 69,
      "hit": false,
      "t": 115199.9999999999,
      "d": 223.33333333332848,
      "v": 82
    },
    {
      "midi": 71,
      "hit": false,
      "t": 115199.9999999999,
      "d": 223.33333333332848,
      "v": 82
    },
    {
      "midi": 62,
      "hit": false,
      "t": 115599.9999999999,
      "d": 753.3333333333285,
      "v": 89
    },
    {
      "midi": 66,
      "hit": false,
      "t": 115599.9999999999,
      "d": 753.3333333333285,
      "v": 89
    },
    {
      "midi": 69,
      "hit": false,
      "t": 115599.9999999999,
      "d": 753.3333333333285,
      "v": 89
    },
    {
      "midi": 71,
      "hit": false,
      "t": 115599.9999999999,
      "d": 753.3333333333285,
      "v": 89
    },
    {
      "midi": 57,
      "hit": false,
      "t": 116399.9999999999,
      "d": 113.33333333332848,
      "v": 70
    },
    {
      "midi": 62,
      "hit": false,
      "t": 116533.33333333323,
      "d": 100,
      "v": 45
    },
    {
      "midi": 66,
      "hit": false,
      "t": 116666.66666666656,
      "d": 63.33333333332848,
      "v": 87
    },
    {
      "midi": 52,
      "hit": false,
      "t": 116799.99999999988,
      "d": 160,
      "v": 72
    },
    {
      "midi": 57,
      "hit": false,
      "t": 116799.99999999988,
      "d": 200,
      "v": 87
    },
    {
      "midi": 59,
      "hit": false,
      "t": 116799.99999999988,
      "d": 200,
      "v": 87
    },
    {
      "midi": 64,
      "hit": false,
      "t": 116799.99999999988,
      "d": 200,
      "v": 87
    },
    {
      "midi": 52,
      "hit": false,
      "t": 117199.99999999988,
      "d": 626.6666666666715,
      "v": 66
    },
    {
      "midi": 57,
      "hit": false,
      "t": 117199.99999999988,
      "d": 690,
      "v": 74
    },
    {
      "midi": 59,
      "hit": false,
      "t": 117199.99999999988,
      "d": 690,
      "v": 74
    },
    {
      "midi": 64,
      "hit": false,
      "t": 117199.99999999988,
      "d": 690,
      "v": 74
    },
    {
      "midi": 47,
      "hit": false,
      "t": 117866.66666666656,
      "d": 110,
      "v": 68
    },
    {
      "midi": 52,
      "hit": false,
      "t": 117999.99999999988,
      "d": 140,
      "v": 66
    },
    {
      "midi": 57,
      "hit": false,
      "t": 117999.99999999988,
      "d": 170,
      "v": 87
    },
    {
      "midi": 59,
      "hit": false,
      "t": 117999.99999999988,
      "d": 170,
      "v": 87
    },
    {
      "midi": 64,
      "hit": false,
      "t": 117999.99999999988,
      "d": 170,
      "v": 87
    },
    {
      "midi": 57,
      "hit": false,
      "t": 118399.99999999988,
      "d": 213.33333333332848,
      "v": 62
    },
    {
      "midi": 59,
      "hit": false,
      "t": 118399.99999999988,
      "d": 213.33333333332848,
      "v": 62
    },
    {
      "midi": 64,
      "hit": false,
      "t": 118399.99999999988,
      "d": 213.33333333332848,
      "v": 62
    },
    {
      "midi": 56,
      "hit": false,
      "t": 118799.99999999988,
      "d": 213.33333333332848,
      "v": 62
    },
    {
      "midi": 59,
      "hit": false,
      "t": 118799.99999999988,
      "d": 213.33333333332848,
      "v": 62
    },
    {
      "midi": 64,
      "hit": false,
      "t": 118799.99999999988,
      "d": 213.33333333332848,
      "v": 62
    },
    {
      "midi": 56,
      "hit": false,
      "t": 119199.99999999988,
      "d": 400,
      "v": 85
    },
    {
      "midi": 59,
      "hit": false,
      "t": 119199.99999999988,
      "d": 400,
      "v": 85
    },
    {
      "midi": 64,
      "hit": false,
      "t": 119199.99999999988,
      "d": 400,
      "v": 85
    },
    {
      "midi": 64,
      "hit": false,
      "t": 119599.99999999988,
      "d": 130,
      "v": 63
    },
    {
      "midi": 68,
      "hit": false,
      "t": 119733.33333333321,
      "d": 113.33333333332848,
      "v": 74
    },
    {
      "midi": 71,
      "hit": false,
      "t": 119866.66666666654,
      "d": 76.66666666667152,
      "v": 95
    },
    {
      "midi": 57,
      "hit": false,
      "t": 119999.99999999988,
      "d": 1060,
      "v": 76
    },
    {
      "midi": 59,
      "hit": false,
      "t": 119999.99999999988,
      "d": 1060,
      "v": 76
    },
    {
      "midi": 64,
      "hit": false,
      "t": 119999.99999999988,
      "d": 1060,
      "v": 76
    },
    {
      "midi": 52,
      "hit": false,
      "t": 121066.66666666656,
      "d": 153.33333333332848,
      "v": 57
    },
    {
      "midi": 57,
      "hit": false,
      "t": 121219.99999999988,
      "d": 120,
      "v": 85
    },
    {
      "midi": 59,
      "hit": false,
      "t": 121219.99999999988,
      "d": 120,
      "v": 85
    },
    {
      "midi": 64,
      "hit": false,
      "t": 121219.99999999988,
      "d": 120,
      "v": 85
    },
    {
      "midi": 57,
      "hit": false,
      "t": 121599.99999999988,
      "d": 213.33333333332848,
      "v": 62
    },
    {
      "midi": 59,
      "hit": false,
      "t": 121599.99999999988,
      "d": 213.33333333332848,
      "v": 62
    },
    {
      "midi": 64,
      "hit": false,
      "t": 121599.99999999988,
      "d": 213.33333333332848,
      "v": 62
    },
    {
      "midi": 56,
      "hit": false,
      "t": 121999.99999999988,
      "d": 213.33333333332848,
      "v": 62
    },
    {
      "midi": 59,
      "hit": false,
      "t": 121999.99999999988,
      "d": 213.33333333332848,
      "v": 62
    },
    {
      "midi": 64,
      "hit": false,
      "t": 121999.99999999988,
      "d": 213.33333333332848,
      "v": 62
    },
    {
      "midi": 56,
      "hit": false,
      "t": 122399.99999999988,
      "d": 213.33333333332848,
      "v": 62
    },
    {
      "midi": 59,
      "hit": false,
      "t": 122399.99999999988,
      "d": 213.33333333332848,
      "v": 62
    },
    {
      "midi": 64,
      "hit": false,
      "t": 122399.99999999988,
      "d": 213.33333333332848,
      "v": 62
    },
    {
      "midi": 56,
      "hit": false,
      "t": 122799.99999999988,
      "d": 133.33333333332848,
      "v": 87
    },
    {
      "midi": 59,
      "hit": false,
      "t": 122799.99999999988,
      "d": 133.33333333332848,
      "v": 87
    },
    {
      "midi": 64,
      "hit": false,
      "t": 122799.99999999988,
      "d": 133.33333333332848,
      "v": 87
    },
    {
      "midi": 57,
      "hit": false,
      "t": 123599.99999999988,
      "d": 126.66666666667152,
      "v": 78
    },
    {
      "midi": 61,
      "hit": false,
      "t": 123599.99999999988,
      "d": 126.66666666667152,
      "v": 78
    },
    {
      "midi": 64,
      "hit": false,
      "t": 123599.99999999988,
      "d": 126.66666666667152,
      "v": 78
    },
    {
      "midi": 45,
      "hit": false,
      "t": 124266.66666666656,
      "d": 136.66666666667152,
      "v": 60
    },
    {
      "midi": 57,
      "hit": false,
      "t": 124403.33333333323,
      "d": 130,
      "v": 80
    },
    {
      "midi": 61,
      "hit": false,
      "t": 124403.33333333323,
      "d": 130,
      "v": 80
    },
    {
      "midi": 64,
      "hit": false,
      "t": 124403.33333333323,
      "d": 130,
      "v": 80
    },
    {
      "midi": 57,
      "hit": false,
      "t": 125199.9999999999,
      "d": 120,
      "v": 74
    },
    {
      "midi": 61,
      "hit": false,
      "t": 125199.9999999999,
      "d": 120,
      "v": 74
    },
    {
      "midi": 64,
      "hit": false,
      "t": 125199.9999999999,
      "d": 120,
      "v": 74
    },
    {
      "midi": 45,
      "hit": false,
      "t": 125866.66666666657,
      "d": 73.33333333332848,
      "v": 56
    },
    {
      "midi": 57,
      "hit": false,
      "t": 125999.9999999999,
      "d": 100,
      "v": 85
    },
    {
      "midi": 61,
      "hit": false,
      "t": 125999.9999999999,
      "d": 100,
      "v": 85
    },
    {
      "midi": 64,
      "hit": false,
      "t": 125999.9999999999,
      "d": 100,
      "v": 85
    },
    {
      "midi": 57,
      "hit": false,
      "t": 126799.9999999999,
      "d": 126.66666666667152,
      "v": 82
    },
    {
      "midi": 62,
      "hit": false,
      "t": 126799.9999999999,
      "d": 126.66666666667152,
      "v": 82
    },
    {
      "midi": 66,
      "hit": false,
      "t": 126799.9999999999,
      "d": 126.66666666667152,
      "v": 82
    },
    {
      "midi": 62,
      "hit": false,
      "t": 127599.9999999999,
      "d": 120,
      "v": 70
    },
    {
      "midi": 66,
      "hit": false,
      "t": 127733.33333333323,
      "d": 86.66666666667152,
      "v": 58
    },
    {
      "midi": 69,
      "hit": false,
      "t": 127866.66666666657,
      "d": 100,
      "v": 82
    },
    {
      "midi": 57,
      "hit": false,
      "t": 128399.9999999999,
      "d": 146.66666666667152,
      "v": 76
    },
    {
      "midi": 62,
      "hit": false,
      "t": 128399.9999999999,
      "d": 146.66666666667152,
      "v": 76
    },
    {
      "midi": 66,
      "hit": false,
      "t": 128399.9999999999,
      "d": 146.66666666667152,
      "v": 76
    },
    {
      "midi": 57,
      "hit": false,
      "t": 128799.9999999999,
      "d": 153.33333333332848,
      "v": 78
    },
    {
      "midi": 62,
      "hit": false,
      "t": 128799.9999999999,
      "d": 153.33333333332848,
      "v": 78
    },
    {
      "midi": 66,
      "hit": false,
      "t": 128799.9999999999,
      "d": 153.33333333332848,
      "v": 78
    },
    {
      "midi": 57,
      "hit": false,
      "t": 129199.9999999999,
      "d": 136.66666666667152,
      "v": 82
    },
    {
      "midi": 62,
      "hit": false,
      "t": 129199.9999999999,
      "d": 136.66666666667152,
      "v": 82
    },
    {
      "midi": 66,
      "hit": false,
      "t": 129199.9999999999,
      "d": 136.66666666667152,
      "v": 82
    },
    {
      "midi": 61,
      "hit": false,
      "t": 129999.9999999999,
      "d": 126.66666666667152,
      "v": 82
    },
    {
      "midi": 64,
      "hit": false,
      "t": 129999.9999999999,
      "d": 126.66666666667152,
      "v": 82
    },
    {
      "midi": 68,
      "hit": false,
      "t": 129999.9999999999,
      "d": 126.66666666667152,
      "v": 82
    },
    {
      "midi": 71,
      "hit": false,
      "t": 129999.9999999999,
      "d": 126.66666666667152,
      "v": 82
    },
    {
      "midi": 56,
      "hit": false,
      "t": 130799.9999999999,
      "d": 120,
      "v": 70
    },
    {
      "midi": 61,
      "hit": false,
      "t": 130933.33333333323,
      "d": 86.66666666667152,
      "v": 58
    },
    {
      "midi": 64,
      "hit": false,
      "t": 131066.66666666657,
      "d": 100,
      "v": 82
    },
    {
      "midi": 61,
      "hit": false,
      "t": 131599.9999999999,
      "d": 146.66666666665697,
      "v": 76
    },
    {
      "midi": 64,
      "hit": false,
      "t": 131599.9999999999,
      "d": 146.66666666665697,
      "v": 76
    },
    {
      "midi": 68,
      "hit": false,
      "t": 131599.9999999999,
      "d": 146.66666666665697,
      "v": 76
    },
    {
      "midi": 71,
      "hit": false,
      "t": 131599.9999999999,
      "d": 146.66666666665697,
      "v": 76
    },
    {
      "midi": 61,
      "hit": false,
      "t": 131999.9999999999,
      "d": 153.33333333334303,
      "v": 78
    },
    {
      "midi": 64,
      "hit": false,
      "t": 131999.9999999999,
      "d": 153.33333333334303,
      "v": 78
    },
    {
      "midi": 68,
      "hit": false,
      "t": 131999.9999999999,
      "d": 153.33333333334303,
      "v": 78
    },
    {
      "midi": 71,
      "hit": false,
      "t": 131999.9999999999,
      "d": 153.33333333334303,
      "v": 78
    },
    {
      "midi": 61,
      "hit": false,
      "t": 132399.9999999999,
      "d": 136.66666666665697,
      "v": 82
    },
    {
      "midi": 64,
      "hit": false,
      "t": 132399.9999999999,
      "d": 136.66666666665697,
      "v": 82
    },
    {
      "midi": 68,
      "hit": false,
      "t": 132399.9999999999,
      "d": 136.66666666665697,
      "v": 82
    },
    {
      "midi": 71,
      "hit": false,
      "t": 132399.9999999999,
      "d": 136.66666666665697,
      "v": 82
    },
    {
      "midi": 57,
      "hit": false,
      "t": 133199.9999999999,
      "d": 126.66666666665697,
      "v": 78
    },
    {
      "midi": 62,
      "hit": false,
      "t": 133199.9999999999,
      "d": 126.66666666665697,
      "v": 78
    },
    {
      "midi": 66,
      "hit": false,
      "t": 133199.9999999999,
      "d": 126.66666666665697,
      "v": 78
    },
    {
      "midi": 45,
      "hit": false,
      "t": 133866.66666666657,
      "d": 136.66666666665697,
      "v": 60
    },
    {
      "midi": 57,
      "hit": false,
      "t": 134003.33333333323,
      "d": 130,
      "v": 80
    },
    {
      "midi": 62,
      "hit": false,
      "t": 134003.33333333323,
      "d": 130,
      "v": 80
    },
    {
      "midi": 66,
      "hit": false,
      "t": 134003.33333333323,
      "d": 130,
      "v": 80
    },
    {
      "midi": 57,
      "hit": false,
      "t": 134799.99999999988,
      "d": 120,
      "v": 74
    },
    {
      "midi": 62,
      "hit": false,
      "t": 134799.99999999988,
      "d": 120,
      "v": 74
    },
    {
      "midi": 66,
      "hit": false,
      "t": 134799.99999999988,
      "d": 120,
      "v": 74
    },
    {
      "midi": 45,
      "hit": false,
      "t": 135466.66666666654,
      "d": 73.33333333334303,
      "v": 56
    },
    {
      "midi": 57,
      "hit": false,
      "t": 135599.99999999988,
      "d": 100,
      "v": 85
    },
    {
      "midi": 62,
      "hit": false,
      "t": 135599.99999999988,
      "d": 100,
      "v": 85
    },
    {
      "midi": 66,
      "hit": false,
      "t": 135599.99999999988,
      "d": 100,
      "v": 85
    },
    {
      "midi": 61,
      "hit": false,
      "t": 135999.99999999988,
      "d": 153.33333333334303,
      "v": 80
    },
    {
      "midi": 64,
      "hit": false,
      "t": 135999.99999999988,
      "d": 153.33333333334303,
      "v": 80
    },
    {
      "midi": 66,
      "hit": false,
      "t": 135999.99999999988,
      "d": 153.33333333334303,
      "v": 80
    },
    {
      "midi": 69,
      "hit": false,
      "t": 135999.99999999988,
      "d": 153.33333333334303,
      "v": 80
    },
    {
      "midi": 61,
      "hit": false,
      "t": 136399.99999999988,
      "d": 146.66666666665697,
      "v": 72
    },
    {
      "midi": 64,
      "hit": false,
      "t": 136399.99999999988,
      "d": 146.66666666665697,
      "v": 72
    },
    {
      "midi": 66,
      "hit": false,
      "t": 136399.99999999988,
      "d": 146.66666666665697,
      "v": 72
    },
    {
      "midi": 69,
      "hit": false,
      "t": 136399.99999999988,
      "d": 146.66666666665697,
      "v": 72
    },
    {
      "midi": 50,
      "hit": false,
      "t": 137066.66666666654,
      "d": 60,
      "v": 60
    },
    {
      "midi": 61,
      "hit": false,
      "t": 137199.99999999988,
      "d": 90,
      "v": 85
    },
    {
      "midi": 64,
      "hit": false,
      "t": 137199.99999999988,
      "d": 90,
      "v": 85
    },
    {
      "midi": 66,
      "hit": false,
      "t": 137199.99999999988,
      "d": 90,
      "v": 85
    },
    {
      "midi": 69,
      "hit": false,
      "t": 137199.99999999988,
      "d": 90,
      "v": 85
    },
    {
      "midi": 59,
      "hit": false,
      "t": 137999.99999999988,
      "d": 266.66666666665697,
      "v": 82
    },
    {
      "midi": 61,
      "hit": false,
      "t": 137999.99999999988,
      "d": 266.66666666665697,
      "v": 82
    },
    {
      "midi": 64,
      "hit": false,
      "t": 137999.99999999988,
      "d": 266.66666666665697,
      "v": 82
    },
    {
      "midi": 68,
      "hit": false,
      "t": 137999.99999999988,
      "d": 266.66666666665697,
      "v": 82
    },
    {
      "midi": 59,
      "hit": false,
      "t": 138666.66666666654,
      "d": 140,
      "v": 68
    },
    {
      "midi": 64,
      "hit": false,
      "t": 138806.66666666654,
      "d": 43.333333333343035,
      "v": 82
    },
    {
      "midi": 68,
      "hit": false,
      "t": 138933.33333333323,
      "d": 80,
      "v": 78
    },
    {
      "midi": 73,
      "hit": false,
      "t": 139066.66666666657,
      "d": 40,
      "v": 98
    },
    {
      "midi": 56,
      "hit": false,
      "t": 139599.9999999999,
      "d": 266.66666666665697,
      "v": 82
    },
    {
      "midi": 59,
      "hit": false,
      "t": 139599.9999999999,
      "d": 266.66666666665697,
      "v": 82
    },
    {
      "midi": 64,
      "hit": false,
      "t": 139599.9999999999,
      "d": 266.66666666665697,
      "v": 82
    },
    {
      "midi": 64,
      "hit": false,
      "t": 140266.66666666657,
      "d": 140,
      "v": 68
    },
    {
      "midi": 67,
      "hit": false,
      "t": 140406.66666666657,
      "d": 43.333333333343035,
      "v": 52
    },
    {
      "midi": 68,
      "hit": false,
      "t": 140406.66666666657,
      "d": 96.66666666668607,
      "v": 82
    },
    {
      "midi": 71,
      "hit": false,
      "t": 140533.33333333326,
      "d": 80,
      "v": 78
    },
    {
      "midi": 76,
      "hit": false,
      "t": 140666.6666666666,
      "d": 40,
      "v": 98
    },
    {
      "midi": 56,
      "hit": false,
      "t": 140799.99999999994,
      "d": 156.66666666665697,
      "v": 82
    },
    {
      "midi": 59,
      "hit": false,
      "t": 140799.99999999994,
      "d": 156.66666666665697,
      "v": 82
    },
    {
      "midi": 64,
      "hit": false,
      "t": 140799.99999999994,
      "d": 156.66666666665697,
      "v": 82
    },
    {
      "midi": 54,
      "hit": false,
      "t": 141066.6666666666,
      "d": 130,
      "v": 60
    },
    {
      "midi": 56,
      "hit": false,
      "t": 141199.99999999994,
      "d": 106.66666666665697,
      "v": 82
    },
    {
      "midi": 59,
      "hit": false,
      "t": 141199.99999999994,
      "d": 106.66666666665697,
      "v": 82
    },
    {
      "midi": 64,
      "hit": false,
      "t": 141199.99999999994,
      "d": 106.66666666665697,
      "v": 82
    },
    {
      "midi": 56,
      "hit": false,
      "t": 141599.99999999994,
      "d": 333.33333333334303,
      "v": 80
    },
    {
      "midi": 59,
      "hit": false,
      "t": 141599.99999999994,
      "d": 333.33333333334303,
      "v": 80
    },
    {
      "midi": 64,
      "hit": false,
      "t": 141599.99999999994,
      "d": 333.33333333334303,
      "v": 80
    },
    {
      "midi": 57,
      "hit": false,
      "t": 141999.99999999994,
      "d": 333.33333333334303,
      "v": 80
    },
    {
      "midi": 61,
      "hit": false,
      "t": 141999.99999999994,
      "d": 333.33333333334303,
      "v": 80
    },
    {
      "midi": 66,
      "hit": false,
      "t": 141999.99999999994,
      "d": 333.33333333334303,
      "v": 80
    },
    {
      "midi": 61,
      "hit": false,
      "t": 142399.99999999994,
      "d": 190,
      "v": 59
    },
    {
      "midi": 66,
      "hit": false,
      "t": 142666.6666666666,
      "d": 136.66666666668607,
      "v": 53
    },
    {
      "midi": 69,
      "hit": false,
      "t": 142799.99999999994,
      "d": 246.66666666668607,
      "v": 87
    },
    {
      "midi": 76,
      "hit": false,
      "t": 143066.66666666663,
      "d": 150,
      "v": 82
    },
    {
      "midi": 50,
      "hit": false,
      "t": 143466.66666666663,
      "d": 90,
      "v": 66
    },
    {
      "midi": 61,
      "hit": false,
      "t": 143599.99999999997,
      "d": 130,
      "v": 87
    },
    {
      "midi": 64,
      "hit": false,
      "t": 143599.99999999997,
      "d": 130,
      "v": 87
    },
    {
      "midi": 66,
      "hit": false,
      "t": 143599.99999999997,
      "d": 130,
      "v": 87
    },
    {
      "midi": 69,
      "hit": false,
      "t": 143599.99999999997,
      "d": 130,
      "v": 87
    },
    {
      "midi": 59,
      "hit": false,
      "t": 144399.99999999997,
      "d": 266.66666666665697,
      "v": 82
    },
    {
      "midi": 61,
      "hit": false,
      "t": 144399.99999999997,
      "d": 266.66666666665697,
      "v": 82
    },
    {
      "midi": 64,
      "hit": false,
      "t": 144399.99999999997,
      "d": 266.66666666665697,
      "v": 82
    },
    {
      "midi": 68,
      "hit": false,
      "t": 144399.99999999997,
      "d": 266.66666666665697,
      "v": 82
    },
    {
      "midi": 59,
      "hit": false,
      "t": 145066.66666666663,
      "d": 140,
      "v": 68
    },
    {
      "midi": 64,
      "hit": false,
      "t": 145206.66666666663,
      "d": 43.333333333343035,
      "v": 82
    },
    {
      "midi": 68,
      "hit": false,
      "t": 145333.3333333333,
      "d": 80,
      "v": 78
    },
    {
      "midi": 73,
      "hit": false,
      "t": 145466.66666666666,
      "d": 40,
      "v": 98
    },
    {
      "midi": 56,
      "hit": false,
      "t": 145600,
      "d": 240,
      "v": 85
    },
    {
      "midi": 59,
      "hit": false,
      "t": 145600,
      "d": 240,
      "v": 85
    },
    {
      "midi": 64,
      "hit": false,
      "t": 145600,
      "d": 240,
      "v": 85
    },
    {
      "midi": 56,
      "hit": false,
      "t": 145866.66666666666,
      "d": 80,
      "v": 68
    },
    {
      "midi": 59,
      "hit": false,
      "t": 145866.66666666666,
      "d": 80,
      "v": 68
    },
    {
      "midi": 64,
      "hit": false,
      "t": 145866.66666666666,
      "d": 80,
      "v": 68
    },
    {
      "midi": 56,
      "hit": false,
      "t": 146266.66666666666,
      "d": 110,
      "v": 66
    },
    {
      "midi": 59,
      "hit": false,
      "t": 146266.66666666666,
      "d": 110,
      "v": 66
    },
    {
      "midi": 64,
      "hit": false,
      "t": 146266.66666666666,
      "d": 110,
      "v": 66
    },
    {
      "midi": 54,
      "hit": false,
      "t": 146666.66666666666,
      "d": 73.33333333334303,
      "v": 55
    },
    {
      "midi": 56,
      "hit": false,
      "t": 146800,
      "d": 90,
      "v": 82
    },
    {
      "midi": 59,
      "hit": false,
      "t": 146800,
      "d": 90,
      "v": 82
    },
    {
      "midi": 64,
      "hit": false,
      "t": 146800,
      "d": 90,
      "v": 82
    },
    {
      "midi": 56,
      "hit": false,
      "t": 147200,
      "d": 156.66666666665697,
      "v": 82
    },
    {
      "midi": 59,
      "hit": false,
      "t": 147200,
      "d": 156.66666666665697,
      "v": 82
    },
    {
      "midi": 64,
      "hit": false,
      "t": 147200,
      "d": 156.66666666665697,
      "v": 82
    },
    {
      "midi": 54,
      "hit": false,
      "t": 147466.66666666666,
      "d": 130,
      "v": 60
    },
    {
      "midi": 56,
      "hit": false,
      "t": 147600,
      "d": 106.66666666665697,
      "v": 82
    },
    {
      "midi": 59,
      "hit": false,
      "t": 147600,
      "d": 106.66666666665697,
      "v": 82
    },
    {
      "midi": 64,
      "hit": false,
      "t": 147600,
      "d": 106.66666666665697,
      "v": 82
    },
    {
      "midi": 56,
      "hit": false,
      "t": 148000,
      "d": 333.33333333334303,
      "v": 80
    },
    {
      "midi": 59,
      "hit": false,
      "t": 148000,
      "d": 333.33333333334303,
      "v": 80
    },
    {
      "midi": 64,
      "hit": false,
      "t": 148000,
      "d": 333.33333333334303,
      "v": 80
    },
    {
      "midi": 57,
      "hit": false,
      "t": 148400,
      "d": 333.33333333334303,
      "v": 80
    },
    {
      "midi": 61,
      "hit": false,
      "t": 148400,
      "d": 333.33333333334303,
      "v": 80
    },
    {
      "midi": 66,
      "hit": false,
      "t": 148400,
      "d": 333.33333333334303,
      "v": 80
    },
    {
      "midi": 59,
      "hit": false,
      "t": 148800,
      "d": 240,
      "v": 85
    },
    {
      "midi": 63,
      "hit": false,
      "t": 148800,
      "d": 240,
      "v": 85
    },
    {
      "midi": 66,
      "hit": false,
      "t": 148800,
      "d": 240,
      "v": 85
    },
    {
      "midi": 68,
      "hit": false,
      "t": 148800,
      "d": 240,
      "v": 85
    },
    {
      "midi": 59,
      "hit": false,
      "t": 149066.66666666666,
      "d": 80,
      "v": 68
    },
    {
      "midi": 63,
      "hit": false,
      "t": 149066.66666666666,
      "d": 80,
      "v": 68
    },
    {
      "midi": 66,
      "hit": false,
      "t": 149066.66666666666,
      "d": 80,
      "v": 68
    },
    {
      "midi": 68,
      "hit": false,
      "t": 149066.66666666666,
      "d": 80,
      "v": 68
    },
    {
      "midi": 59,
      "hit": false,
      "t": 149466.66666666666,
      "d": 110,
      "v": 66
    },
    {
      "midi": 63,
      "hit": false,
      "t": 149466.66666666666,
      "d": 110,
      "v": 66
    },
    {
      "midi": 66,
      "hit": false,
      "t": 149466.66666666666,
      "d": 110,
      "v": 66
    },
    {
      "midi": 68,
      "hit": false,
      "t": 149466.66666666666,
      "d": 110,
      "v": 66
    },
    {
      "midi": 52,
      "hit": false,
      "t": 149866.66666666666,
      "d": 73.33333333334303,
      "v": 55
    },
    {
      "midi": 59,
      "hit": false,
      "t": 150000,
      "d": 90,
      "v": 82
    },
    {
      "midi": 63,
      "hit": false,
      "t": 150000,
      "d": 90,
      "v": 82
    },
    {
      "midi": 66,
      "hit": false,
      "t": 150000,
      "d": 90,
      "v": 82
    },
    {
      "midi": 68,
      "hit": false,
      "t": 150000,
      "d": 90,
      "v": 82
    },
    {
      "midi": 58,
      "hit": false,
      "t": 150800,
      "d": 216.66666666665697,
      "v": 78
    },
    {
      "midi": 61,
      "hit": false,
      "t": 150800,
      "d": 216.66666666665697,
      "v": 78
    },
    {
      "midi": 63,
      "hit": false,
      "t": 150800,
      "d": 216.66666666665697,
      "v": 78
    },
    {
      "midi": 66,
      "hit": false,
      "t": 150800,
      "d": 216.66666666665697,
      "v": 78
    },
    {
      "midi": 51,
      "hit": false,
      "t": 151466.66666666666,
      "d": 70,
      "v": 57
    },
    {
      "midi": 58,
      "hit": false,
      "t": 151600,
      "d": 73.33333333334303,
      "v": 89
    },
    {
      "midi": 61,
      "hit": false,
      "t": 151600,
      "d": 73.33333333334303,
      "v": 89
    },
    {
      "midi": 63,
      "hit": false,
      "t": 151600,
      "d": 73.33333333334303,
      "v": 89
    },
    {
      "midi": 66,
      "hit": false,
      "t": 151600,
      "d": 73.33333333334303,
      "v": 89
    },
    {
      "midi": 61,
      "hit": false,
      "t": 152400,
      "d": 266.66666666665697,
      "v": 82
    },
    {
      "midi": 64,
      "hit": false,
      "t": 152400,
      "d": 266.66666666665697,
      "v": 82
    },
    {
      "midi": 66,
      "hit": false,
      "t": 152400,
      "d": 266.66666666665697,
      "v": 82
    },
    {
      "midi": 69,
      "hit": false,
      "t": 152400,
      "d": 266.66666666665697,
      "v": 82
    },
    {
      "midi": 61,
      "hit": false,
      "t": 153066.66666666666,
      "d": 140,
      "v": 68
    },
    {
      "midi": 65,
      "hit": false,
      "t": 153206.66666666666,
      "d": 43.333333333343035,
      "v": 52
    },
    {
      "midi": 66,
      "hit": false,
      "t": 153206.66666666666,
      "d": 96.66666666668607,
      "v": 82
    },
    {
      "midi": 69,
      "hit": false,
      "t": 153333.33333333334,
      "d": 80,
      "v": 78
    },
    {
      "midi": 76,
      "hit": false,
      "t": 153466.6666666667,
      "d": 40,
      "v": 98
    },
    {
      "midi": 59,
      "hit": false,
      "t": 153600.00000000003,
      "d": 240,
      "v": 85
    },
    {
      "midi": 61,
      "hit": false,
      "t": 153600.00000000003,
      "d": 240,
      "v": 85
    },
    {
      "midi": 64,
      "hit": false,
      "t": 153600.00000000003,
      "d": 240,
      "v": 85
    },
    {
      "midi": 68,
      "hit": false,
      "t": 153600.00000000003,
      "d": 240,
      "v": 85
    },
    {
      "midi": 59,
      "hit": false,
      "t": 153866.6666666667,
      "d": 80,
      "v": 68
    },
    {
      "midi": 61,
      "hit": false,
      "t": 153866.6666666667,
      "d": 80,
      "v": 68
    },
    {
      "midi": 64,
      "hit": false,
      "t": 153866.6666666667,
      "d": 80,
      "v": 68
    },
    {
      "midi": 68,
      "hit": false,
      "t": 153866.6666666667,
      "d": 80,
      "v": 68
    },
    {
      "midi": 59,
      "hit": false,
      "t": 154266.6666666667,
      "d": 110,
      "v": 66
    },
    {
      "midi": 61,
      "hit": false,
      "t": 154266.6666666667,
      "d": 110,
      "v": 66
    },
    {
      "midi": 64,
      "hit": false,
      "t": 154266.6666666667,
      "d": 110,
      "v": 66
    },
    {
      "midi": 68,
      "hit": false,
      "t": 154266.6666666667,
      "d": 110,
      "v": 66
    },
    {
      "midi": 49,
      "hit": false,
      "t": 154666.6666666667,
      "d": 73.33333333334303,
      "v": 55
    },
    {
      "midi": 59,
      "hit": false,
      "t": 154800.00000000003,
      "d": 90,
      "v": 82
    },
    {
      "midi": 61,
      "hit": false,
      "t": 154800.00000000003,
      "d": 90,
      "v": 82
    },
    {
      "midi": 64,
      "hit": false,
      "t": 154800.00000000003,
      "d": 90,
      "v": 82
    },
    {
      "midi": 68,
      "hit": false,
      "t": 154800.00000000003,
      "d": 90,
      "v": 82
    },
    {
      "midi": 59,
      "hit": false,
      "t": 155600.00000000003,
      "d": 216.66666666665697,
      "v": 78
    },
    {
      "midi": 62,
      "hit": false,
      "t": 155600.00000000003,
      "d": 216.66666666665697,
      "v": 78
    },
    {
      "midi": 64,
      "hit": false,
      "t": 155600.00000000003,
      "d": 216.66666666665697,
      "v": 78
    },
    {
      "midi": 67,
      "hit": false,
      "t": 155600.00000000003,
      "d": 216.66666666665697,
      "v": 78
    },
    {
      "midi": 48,
      "hit": false,
      "t": 156266.6666666667,
      "d": 70,
      "v": 57
    },
    {
      "midi": 59,
      "hit": false,
      "t": 156400.00000000003,
      "d": 73.33333333334303,
      "v": 89
    },
    {
      "midi": 62,
      "hit": false,
      "t": 156400.00000000003,
      "d": 73.33333333334303,
      "v": 89
    },
    {
      "midi": 64,
      "hit": false,
      "t": 156400.00000000003,
      "d": 73.33333333334303,
      "v": 89
    },
    {
      "midi": 67,
      "hit": false,
      "t": 156400.00000000003,
      "d": 73.33333333334303,
      "v": 89
    },
    {
      "midi": 57,
      "hit": false,
      "t": 156800.00000000003,
      "d": 240,
      "v": 85
    },
    {
      "midi": 62,
      "hit": false,
      "t": 156800.00000000003,
      "d": 240,
      "v": 85
    },
    {
      "midi": 67,
      "hit": false,
      "t": 156800.00000000003,
      "d": 240,
      "v": 85
    },
    {
      "midi": 57,
      "hit": false,
      "t": 157066.6666666667,
      "d": 80,
      "v": 68
    },
    {
      "midi": 62,
      "hit": false,
      "t": 157066.6666666667,
      "d": 80,
      "v": 68
    },
    {
      "midi": 67,
      "hit": false,
      "t": 157066.6666666667,
      "d": 80,
      "v": 68
    },
    {
      "midi": 57,
      "hit": false,
      "t": 157466.6666666667,
      "d": 110,
      "v": 66
    },
    {
      "midi": 62,
      "hit": false,
      "t": 157466.6666666667,
      "d": 110,
      "v": 66
    },
    {
      "midi": 67,
      "hit": false,
      "t": 157466.6666666667,
      "d": 110,
      "v": 66
    },
    {
      "midi": 50,
      "hit": false,
      "t": 157866.6666666667,
      "d": 73.33333333334303,
      "v": 55
    },
    {
      "midi": 57,
      "hit": false,
      "t": 158000.00000000003,
      "d": 90,
      "v": 82
    },
    {
      "midi": 62,
      "hit": false,
      "t": 158000.00000000003,
      "d": 90,
      "v": 82
    },
    {
      "midi": 67,
      "hit": false,
      "t": 158000.00000000003,
      "d": 90,
      "v": 82
    },
    {
      "midi": 57,
      "hit": false,
      "t": 158400.00000000003,
      "d": 333.33333333334303,
      "v": 80
    },
    {
      "midi": 62,
      "hit": false,
      "t": 158400.00000000003,
      "d": 333.33333333334303,
      "v": 80
    },
    {
      "midi": 67,
      "hit": false,
      "t": 158400.00000000003,
      "d": 333.33333333334303,
      "v": 80
    },
    {
      "midi": 57,
      "hit": false,
      "t": 158800.00000000003,
      "d": 333.33333333334303,
      "v": 80
    },
    {
      "midi": 62,
      "hit": false,
      "t": 158800.00000000003,
      "d": 333.33333333334303,
      "v": 80
    },
    {
      "midi": 66,
      "hit": false,
      "t": 158800.00000000003,
      "d": 333.33333333334303,
      "v": 80
    },
    {
      "midi": 57,
      "hit": false,
      "t": 159200.00000000003,
      "d": 180,
      "v": 80
    },
    {
      "midi": 62,
      "hit": false,
      "t": 159200.00000000003,
      "d": 180,
      "v": 80
    },
    {
      "midi": 66,
      "hit": false,
      "t": 159200.00000000003,
      "d": 180,
      "v": 80
    },
    {
      "midi": 62,
      "hit": false,
      "t": 159600.00000000003,
      "d": 123.33333333334303,
      "v": 58
    },
    {
      "midi": 66,
      "hit": false,
      "t": 159733.33333333337,
      "d": 103.33333333334303,
      "v": 80
    },
    {
      "midi": 69,
      "hit": false,
      "t": 159866.66666666672,
      "d": 50,
      "v": 85
    },
    {
      "midi": 59,
      "hit": false,
      "t": 160000.00000000006,
      "d": 753.333333333343,
      "v": 89
    },
    {
      "midi": 62,
      "hit": false,
      "t": 160000.00000000006,
      "d": 753.333333333343,
      "v": 89
    },
    {
      "midi": 66,
      "hit": false,
      "t": 160000.00000000006,
      "d": 753.333333333343,
      "v": 89
    },
    {
      "midi": 69,
      "hit": false,
      "t": 160000.00000000006,
      "d": 753.333333333343,
      "v": 89
    },
    {
      "midi": 54,
      "hit": false,
      "t": 160800.00000000006,
      "d": 216.66666666665697,
      "v": 78
    },
    {
      "midi": 55,
      "hit": false,
      "t": 161066.66666666672,
      "d": 153.33333333334303,
      "v": 53
    },
    {
      "midi": 59,
      "hit": false,
      "t": 161200.00000000006,
      "d": 236.66666666665697,
      "v": 52
    },
    {
      "midi": 62,
      "hit": false,
      "t": 161466.66666666672,
      "d": 70,
      "v": 89
    },
    {
      "midi": 57,
      "hit": false,
      "t": 161600.00000000006,
      "d": 753.333333333343,
      "v": 89
    },
    {
      "midi": 59,
      "hit": false,
      "t": 161600.00000000006,
      "d": 753.333333333343,
      "v": 89
    },
    {
      "midi": 62,
      "hit": false,
      "t": 161600.00000000006,
      "d": 753.333333333343,
      "v": 89
    },
    {
      "midi": 66,
      "hit": false,
      "t": 161600.00000000006,
      "d": 753.333333333343,
      "v": 89
    },
    {
      "midi": 57,
      "hit": false,
      "t": 162400.00000000006,
      "d": 216.66666666665697,
      "v": 78
    },
    {
      "midi": 59,
      "hit": false,
      "t": 162666.66666666672,
      "d": 153.33333333334303,
      "v": 53
    },
    {
      "midi": 62,
      "hit": false,
      "t": 162800.00000000006,
      "d": 236.66666666665697,
      "v": 52
    },
    {
      "midi": 66,
      "hit": false,
      "t": 163066.66666666672,
      "d": 70,
      "v": 89
    },
    {
      "midi": 60,
      "hit": false,
      "t": 163200.00000000006,
      "d": 223.33333333334303,
      "v": 82
    },
    {
      "midi": 64,
      "hit": false,
      "t": 163200.00000000006,
      "d": 223.33333333334303,
      "v": 82
    },
    {
      "midi": 67,
      "hit": false,
      "t": 163200.00000000006,
      "d": 223.33333333334303,
      "v": 82
    },
    {
      "midi": 69,
      "hit": false,
      "t": 163200.00000000006,
      "d": 223.33333333334303,
      "v": 82
    },
    {
      "midi": 60,
      "hit": false,
      "t": 163600.00000000006,
      "d": 753.333333333343,
      "v": 89
    },
    {
      "midi": 64,
      "hit": false,
      "t": 163600.00000000006,
      "d": 753.333333333343,
      "v": 89
    },
    {
      "midi": 67,
      "hit": false,
      "t": 163600.00000000006,
      "d": 753.333333333343,
      "v": 89
    },
    {
      "midi": 69,
      "hit": false,
      "t": 163600.00000000006,
      "d": 753.333333333343,
      "v": 89
    },
    {
      "midi": 55,
      "hit": false,
      "t": 164400.00000000006,
      "d": 113.33333333334303,
      "v": 70
    },
    {
      "midi": 60,
      "hit": false,
      "t": 164533.3333333334,
      "d": 100,
      "v": 45
    },
    {
      "midi": 64,
      "hit": false,
      "t": 164666.66666666674,
      "d": 63.333333333343035,
      "v": 87
    },
    {
      "midi": 60,
      "hit": false,
      "t": 164800.0000000001,
      "d": 213.33333333334303,
      "v": 62
    },
    {
      "midi": 64,
      "hit": false,
      "t": 164800.0000000001,
      "d": 213.33333333334303,
      "v": 62
    },
    {
      "midi": 67,
      "hit": false,
      "t": 164800.0000000001,
      "d": 213.33333333334303,
      "v": 62
    },
    {
      "midi": 69,
      "hit": false,
      "t": 164800.0000000001,
      "d": 213.33333333334303,
      "v": 62
    },
    {
      "midi": 60,
      "hit": false,
      "t": 165200.0000000001,
      "d": 133.33333333334303,
      "v": 87
    },
    {
      "midi": 64,
      "hit": false,
      "t": 165200.0000000001,
      "d": 133.33333333334303,
      "v": 87
    },
    {
      "midi": 67,
      "hit": false,
      "t": 165200.0000000001,
      "d": 133.33333333334303,
      "v": 87
    },
    {
      "midi": 69,
      "hit": false,
      "t": 165200.0000000001,
      "d": 133.33333333334303,
      "v": 87
    },
    {
      "midi": 55,
      "hit": false,
      "t": 165600.0000000001,
      "d": 213.33333333334303,
      "v": 62
    },
    {
      "midi": 60,
      "hit": false,
      "t": 165600.0000000001,
      "d": 213.33333333334303,
      "v": 62
    },
    {
      "midi": 64,
      "hit": false,
      "t": 165600.0000000001,
      "d": 213.33333333334303,
      "v": 62
    },
    {
      "midi": 55,
      "hit": false,
      "t": 166000.0000000001,
      "d": 133.33333333334303,
      "v": 87
    },
    {
      "midi": 60,
      "hit": false,
      "t": 166000.0000000001,
      "d": 133.33333333334303,
      "v": 87
    },
    {
      "midi": 64,
      "hit": false,
      "t": 166000.0000000001,
      "d": 133.33333333334303,
      "v": 87
    },
    {
      "midi": 59,
      "hit": false,
      "t": 166400.0000000001,
      "d": 753.333333333343,
      "v": 89
    },
    {
      "midi": 62,
      "hit": false,
      "t": 166400.0000000001,
      "d": 753.333333333343,
      "v": 89
    },
    {
      "midi": 66,
      "hit": false,
      "t": 166400.0000000001,
      "d": 753.333333333343,
      "v": 89
    },
    {
      "midi": 69,
      "hit": false,
      "t": 166400.0000000001,
      "d": 753.333333333343,
      "v": 89
    },
    {
      "midi": 54,
      "hit": false,
      "t": 167200.0000000001,
      "d": 216.66666666665697,
      "v": 78
    },
    {
      "midi": 55,
      "hit": false,
      "t": 167466.66666666674,
      "d": 153.33333333334303,
      "v": 53
    },
    {
      "midi": 59,
      "hit": false,
      "t": 167600.0000000001,
      "d": 236.66666666665697,
      "v": 52
    },
    {
      "midi": 62,
      "hit": false,
      "t": 167866.66666666674,
      "d": 70,
      "v": 89
    },
    {
      "midi": 57,
      "hit": false,
      "t": 168000.0000000001,
      "d": 223.33333333334303,
      "v": 82
    },
    {
      "midi": 59,
      "hit": false,
      "t": 168000.0000000001,
      "d": 223.33333333334303,
      "v": 82
    },
    {
      "midi": 62,
      "hit": false,
      "t": 168000.0000000001,
      "d": 223.33333333334303,
      "v": 82
    },
    {
      "midi": 66,
      "hit": false,
      "t": 168000.0000000001,
      "d": 223.33333333334303,
      "v": 82
    },
    {
      "midi": 57,
      "hit": false,
      "t": 168400.0000000001,
      "d": 753.333333333343,
      "v": 89
    },
    {
      "midi": 59,
      "hit": false,
      "t": 168400.0000000001,
      "d": 753.333333333343,
      "v": 89
    },
    {
      "midi": 62,
      "hit": false,
      "t": 168400.0000000001,
      "d": 753.333333333343,
      "v": 89
    },
    {
      "midi": 66,
      "hit": false,
      "t": 168400.0000000001,
      "d": 753.333333333343,
      "v": 89
    },
    {
      "midi": 57,
      "hit": false,
      "t": 169200.0000000001,
      "d": 113.33333333334303,
      "v": 70
    },
    {
      "midi": 62,
      "hit": false,
      "t": 169333.33333333343,
      "d": 100,
      "v": 45
    },
    {
      "midi": 66,
      "hit": false,
      "t": 169466.66666666677,
      "d": 63.333333333343035,
      "v": 87
    },
    {
      "midi": 57,
      "hit": false,
      "t": 169600.00000000012,
      "d": 223.33333333334303,
      "v": 82
    },
    {
      "midi": 59,
      "hit": false,
      "t": 169600.00000000012,
      "d": 223.33333333334303,
      "v": 82
    },
    {
      "midi": 62,
      "hit": false,
      "t": 169600.00000000012,
      "d": 223.33333333334303,
      "v": 82
    },
    {
      "midi": 66,
      "hit": false,
      "t": 169600.00000000012,
      "d": 223.33333333334303,
      "v": 82
    },
    {
      "midi": 57,
      "hit": false,
      "t": 170000.00000000012,
      "d": 753.333333333343,
      "v": 89
    },
    {
      "midi": 59,
      "hit": false,
      "t": 170000.00000000012,
      "d": 753.333333333343,
      "v": 89
    },
    {
      "midi": 62,
      "hit": false,
      "t": 170000.00000000012,
      "d": 753.333333333343,
      "v": 89
    },
    {
      "midi": 66,
      "hit": false,
      "t": 170000.00000000012,
      "d": 753.333333333343,
      "v": 89
    },
    {
      "midi": 57,
      "hit": false,
      "t": 170800.00000000012,
      "d": 113.33333333334303,
      "v": 70
    },
    {
      "midi": 62,
      "hit": false,
      "t": 170933.33333333346,
      "d": 100,
      "v": 45
    },
    {
      "midi": 66,
      "hit": false,
      "t": 171066.6666666668,
      "d": 63.333333333343035,
      "v": 87
    },
    {
      "midi": 55,
      "hit": false,
      "t": 171200.00000000015,
      "d": 1060,
      "v": 76
    },
    {
      "midi": 60,
      "hit": false,
      "t": 171200.00000000015,
      "d": 1060,
      "v": 76
    },
    {
      "midi": 64,
      "hit": false,
      "t": 171200.00000000015,
      "d": 1060,
      "v": 76
    },
    {
      "midi": 50,
      "hit": false,
      "t": 172266.6666666668,
      "d": 153.33333333334303,
      "v": 57
    },
    {
      "midi": 55,
      "hit": false,
      "t": 172420.00000000015,
      "d": 120,
      "v": 85
    },
    {
      "midi": 60,
      "hit": false,
      "t": 172420.00000000015,
      "d": 120,
      "v": 85
    },
    {
      "midi": 64,
      "hit": false,
      "t": 172420.00000000015,
      "d": 120,
      "v": 85
    },
    {
      "midi": 55,
      "hit": false,
      "t": 172800.00000000015,
      "d": 753.333333333343,
      "v": 89
    },
    {
      "midi": 60,
      "hit": false,
      "t": 172800.00000000015,
      "d": 753.333333333343,
      "v": 89
    },
    {
      "midi": 64,
      "hit": false,
      "t": 172800.00000000015,
      "d": 753.333333333343,
      "v": 89
    },
    {
      "midi": 60,
      "hit": false,
      "t": 173600.00000000015,
      "d": 216.66666666665697,
      "v": 78
    },
    {
      "midi": 60,
      "hit": false,
      "t": 173866.6666666668,
      "d": 153.33333333334303,
      "v": 53
    },
    {
      "midi": 64,
      "hit": false,
      "t": 174000.00000000015,
      "d": 236.66666666665697,
      "v": 52
    },
    {
      "midi": 67,
      "hit": false,
      "t": 174266.6666666668,
      "d": 70,
      "v": 89
    },
    {
      "midi": 59,
      "hit": false,
      "t": 174400.00000000015,
      "d": 223.33333333334303,
      "v": 82
    },
    {
      "midi": 62,
      "hit": false,
      "t": 174400.00000000015,
      "d": 223.33333333334303,
      "v": 82
    },
    {
      "midi": 66,
      "hit": false,
      "t": 174400.00000000015,
      "d": 223.33333333334303,
      "v": 82
    },
    {
      "midi": 69,
      "hit": false,
      "t": 174400.00000000015,
      "d": 223.33333333334303,
      "v": 82
    },
    {
      "midi": 59,
      "hit": false,
      "t": 174800.00000000015,
      "d": 753.333333333343,
      "v": 89
    },
    {
      "midi": 62,
      "hit": false,
      "t": 174800.00000000015,
      "d": 753.333333333343,
      "v": 89
    },
    {
      "midi": 66,
      "hit": false,
      "t": 174800.00000000015,
      "d": 753.333333333343,
      "v": 89
    },
    {
      "midi": 69,
      "hit": false,
      "t": 174800.00000000015,
      "d": 753.333333333343,
      "v": 89
    },
    {
      "midi": 54,
      "hit": false,
      "t": 175600.00000000015,
      "d": 113.33333333334303,
      "v": 70
    },
    {
      "midi": 59,
      "hit": false,
      "t": 175733.3333333335,
      "d": 100,
      "v": 45
    },
    {
      "midi": 62,
      "hit": false,
      "t": 175866.66666666683,
      "d": 63.333333333343035,
      "v": 87
    },
    {
      "midi": 57,
      "hit": false,
      "t": 176000.00000000017,
      "d": 223.33333333334303,
      "v": 82
    },
    {
      "midi": 59,
      "hit": false,
      "t": 176000.00000000017,
      "d": 223.33333333334303,
      "v": 82
    },
    {
      "midi": 62,
      "hit": false,
      "t": 176000.00000000017,
      "d": 223.33333333334303,
      "v": 82
    },
    {
      "midi": 66,
      "hit": false,
      "t": 176000.00000000017,
      "d": 223.33333333334303,
      "v": 82
    },
    {
      "midi": 57,
      "hit": false,
      "t": 176400.00000000017,
      "d": 753.333333333343,
      "v": 89
    },
    {
      "midi": 59,
      "hit": false,
      "t": 176400.00000000017,
      "d": 753.333333333343,
      "v": 89
    },
    {
      "midi": 62,
      "hit": false,
      "t": 176400.00000000017,
      "d": 753.333333333343,
      "v": 89
    },
    {
      "midi": 66,
      "hit": false,
      "t": 176400.00000000017,
      "d": 753.333333333343,
      "v": 89
    },
    {
      "midi": 57,
      "hit": false,
      "t": 177200.00000000017,
      "d": 113.33333333334303,
      "v": 70
    },
    {
      "midi": 62,
      "hit": false,
      "t": 177333.33333333352,
      "d": 100,
      "v": 45
    },
    {
      "midi": 66,
      "hit": false,
      "t": 177466.66666666686,
      "d": 63.333333333343035,
      "v": 87
    },
    {
      "midi": 60,
      "hit": false,
      "t": 177600.0000000002,
      "d": 753.333333333343,
      "v": 89
    },
    {
      "midi": 64,
      "hit": false,
      "t": 177600.0000000002,
      "d": 753.333333333343,
      "v": 89
    },
    {
      "midi": 67,
      "hit": false,
      "t": 177600.0000000002,
      "d": 753.333333333343,
      "v": 89
    },
    {
      "midi": 69,
      "hit": false,
      "t": 177600.0000000002,
      "d": 753.333333333343,
      "v": 89
    },
    {
      "midi": 55,
      "hit": false,
      "t": 178400.0000000002,
      "d": 216.66666666665697,
      "v": 78
    },
    {
      "midi": 57,
      "hit": false,
      "t": 178666.66666666686,
      "d": 153.33333333334303,
      "v": 53
    },
    {
      "midi": 60,
      "hit": false,
      "t": 178800.0000000002,
      "d": 236.66666666665697,
      "v": 52
    },
    {
      "midi": 64,
      "hit": false,
      "t": 179066.66666666686,
      "d": 70,
      "v": 89
    },
    {
      "midi": 60,
      "hit": false,
      "t": 179200.0000000002,
      "d": 400,
      "v": 85
    },
    {
      "midi": 64,
      "hit": false,
      "t": 179200.0000000002,
      "d": 400,
      "v": 85
    },
    {
      "midi": 67,
      "hit": false,
      "t": 179200.0000000002,
      "d": 400,
      "v": 85
    },
    {
      "midi": 69,
      "hit": false,
      "t": 179200.0000000002,
      "d": 400,
      "v": 85
    },
    {
      "midi": 55,
      "hit": false,
      "t": 179600.0000000002,
      "d": 130,
      "v": 63
    },
    {
      "midi": 60,
      "hit": false,
      "t": 179733.33333333355,
      "d": 113.33333333334303,
      "v": 74
    },
    {
      "midi": 64,
      "hit": false,
      "t": 179866.6666666669,
      "d": 76.66666666665697,
      "v": 95
    },
    {
      "midi": 55,
      "hit": false,
      "t": 180000.0000000002,
      "d": 213.33333333334303,
      "v": 62
    },
    {
      "midi": 60,
      "hit": false,
      "t": 180000.0000000002,
      "d": 213.33333333334303,
      "v": 62
    },
    {
      "midi": 64,
      "hit": false,
      "t": 180000.0000000002,
      "d": 213.33333333334303,
      "v": 62
    },
    {
      "midi": 55,
      "hit": false,
      "t": 180400.0000000002,
      "d": 133.33333333334303,
      "v": 87
    },
    {
      "midi": 60,
      "hit": false,
      "t": 180400.0000000002,
      "d": 133.33333333334303,
      "v": 87
    },
    {
      "midi": 64,
      "hit": false,
      "t": 180400.0000000002,
      "d": 133.33333333334303,
      "v": 87
    },
    {
      "midi": 59,
      "hit": false,
      "t": 180800.0000000002,
      "d": 1060,
      "v": 76
    },
    {
      "midi": 62,
      "hit": false,
      "t": 180800.0000000002,
      "d": 1060,
      "v": 76
    },
    {
      "midi": 66,
      "hit": false,
      "t": 180800.0000000002,
      "d": 1060,
      "v": 76
    },
    {
      "midi": 69,
      "hit": false,
      "t": 180800.0000000002,
      "d": 1060,
      "v": 76
    },
    {
      "midi": 43,
      "hit": false,
      "t": 181866.66666666686,
      "d": 153.33333333334303,
      "v": 57
    },
    {
      "midi": 59,
      "hit": false,
      "t": 182020.0000000002,
      "d": 120,
      "v": 85
    },
    {
      "midi": 62,
      "hit": false,
      "t": 182020.0000000002,
      "d": 120,
      "v": 85
    },
    {
      "midi": 66,
      "hit": false,
      "t": 182020.0000000002,
      "d": 120,
      "v": 85
    },
    {
      "midi": 69,
      "hit": false,
      "t": 182020.0000000002,
      "d": 120,
      "v": 85
    },
    {
      "midi": 47,
      "hit": false,
      "t": 182400.0000000002,
      "d": 160,
      "v": 72
    },
    {
      "midi": 57,
      "hit": false,
      "t": 182400.0000000002,
      "d": 200,
      "v": 87
    },
    {
      "midi": 59,
      "hit": false,
      "t": 182400.0000000002,
      "d": 200,
      "v": 87
    },
    {
      "midi": 62,
      "hit": false,
      "t": 182400.0000000002,
      "d": 200,
      "v": 87
    },
    {
      "midi": 66,
      "hit": false,
      "t": 182400.0000000002,
      "d": 200,
      "v": 87
    },
    {
      "midi": 47,
      "hit": false,
      "t": 182800.0000000002,
      "d": 626.666666666657,
      "v": 66
    },
    {
      "midi": 57,
      "hit": false,
      "t": 182800.0000000002,
      "d": 690,
      "v": 74
    },
    {
      "midi": 59,
      "hit": false,
      "t": 182800.0000000002,
      "d": 690,
      "v": 74
    },
    {
      "midi": 62,
      "hit": false,
      "t": 182800.0000000002,
      "d": 690,
      "v": 74
    },
    {
      "midi": 66,
      "hit": false,
      "t": 182800.0000000002,
      "d": 690,
      "v": 74
    },
    {
      "midi": 42,
      "hit": false,
      "t": 183466.66666666686,
      "d": 110,
      "v": 68
    },
    {
      "midi": 47,
      "hit": false,
      "t": 183600.0000000002,
      "d": 140,
      "v": 66
    },
    {
      "midi": 57,
      "hit": false,
      "t": 183600.0000000002,
      "d": 170,
      "v": 87
    },
    {
      "midi": 59,
      "hit": false,
      "t": 183600.0000000002,
      "d": 170,
      "v": 87
    },
    {
      "midi": 62,
      "hit": false,
      "t": 183600.0000000002,
      "d": 170,
      "v": 87
    },
    {
      "midi": 66,
      "hit": false,
      "t": 183600.0000000002,
      "d": 170,
      "v": 87
    },
    {
      "midi": 47,
      "hit": false,
      "t": 184000.0000000002,
      "d": 160,
      "v": 72
    },
    {
      "midi": 57,
      "hit": false,
      "t": 184000.0000000002,
      "d": 200,
      "v": 87
    },
    {
      "midi": 59,
      "hit": false,
      "t": 184000.0000000002,
      "d": 200,
      "v": 87
    },
    {
      "midi": 62,
      "hit": false,
      "t": 184000.0000000002,
      "d": 200,
      "v": 87
    },
    {
      "midi": 66,
      "hit": false,
      "t": 184000.0000000002,
      "d": 200,
      "v": 87
    },
    {
      "midi": 47,
      "hit": false,
      "t": 184400.0000000002,
      "d": 626.666666666657,
      "v": 66
    },
    {
      "midi": 57,
      "hit": false,
      "t": 184400.0000000002,
      "d": 690,
      "v": 74
    },
    {
      "midi": 59,
      "hit": false,
      "t": 184400.0000000002,
      "d": 690,
      "v": 74
    },
    {
      "midi": 62,
      "hit": false,
      "t": 184400.0000000002,
      "d": 690,
      "v": 74
    },
    {
      "midi": 66,
      "hit": false,
      "t": 184400.0000000002,
      "d": 690,
      "v": 74
    },
    {
      "midi": 42,
      "hit": false,
      "t": 185066.66666666686,
      "d": 110,
      "v": 68
    },
    {
      "midi": 47,
      "hit": false,
      "t": 185200.0000000002,
      "d": 140,
      "v": 66
    },
    {
      "midi": 57,
      "hit": false,
      "t": 185200.0000000002,
      "d": 170,
      "v": 87
    },
    {
      "midi": 59,
      "hit": false,
      "t": 185200.0000000002,
      "d": 170,
      "v": 87
    },
    {
      "midi": 62,
      "hit": false,
      "t": 185200.0000000002,
      "d": 170,
      "v": 87
    },
    {
      "midi": 66,
      "hit": false,
      "t": 185200.0000000002,
      "d": 170,
      "v": 87
    },
    {
      "midi": 55,
      "hit": false,
      "t": 185600.0000000002,
      "d": 753.333333333343,
      "v": 89
    },
    {
      "midi": 60,
      "hit": false,
      "t": 185600.0000000002,
      "d": 753.333333333343,
      "v": 89
    },
    {
      "midi": 64,
      "hit": false,
      "t": 185600.0000000002,
      "d": 753.333333333343,
      "v": 89
    },
    {
      "midi": 60,
      "hit": false,
      "t": 186400.0000000002,
      "d": 216.66666666665697,
      "v": 78
    },
    {
      "midi": 60,
      "hit": false,
      "t": 186666.66666666686,
      "d": 153.33333333334303,
      "v": 53
    },
    {
      "midi": 64,
      "hit": false,
      "t": 186800.0000000002,
      "d": 236.66666666665697,
      "v": 52
    },
    {
      "midi": 67,
      "hit": false,
      "t": 187066.66666666686,
      "d": 70,
      "v": 89
    },
    {
      "midi": 55,
      "hit": false,
      "t": 187200.0000000002,
      "d": 223.33333333334303,
      "v": 82
    },
    {
      "midi": 60,
      "hit": false,
      "t": 187200.0000000002,
      "d": 223.33333333334303,
      "v": 82
    },
    {
      "midi": 64,
      "hit": false,
      "t": 187200.0000000002,
      "d": 223.33333333334303,
      "v": 82
    },
    {
      "midi": 55,
      "hit": false,
      "t": 187600.0000000002,
      "d": 753.333333333343,
      "v": 89
    },
    {
      "midi": 60,
      "hit": false,
      "t": 187600.0000000002,
      "d": 753.333333333343,
      "v": 89
    },
    {
      "midi": 64,
      "hit": false,
      "t": 187600.0000000002,
      "d": 753.333333333343,
      "v": 89
    },
    {
      "midi": 60,
      "hit": false,
      "t": 188400.0000000002,
      "d": 113.33333333334303,
      "v": 70
    },
    {
      "midi": 64,
      "hit": false,
      "t": 188533.33333333355,
      "d": 100,
      "v": 45
    },
    {
      "midi": 67,
      "hit": false,
      "t": 188666.6666666669,
      "d": 63.333333333343035,
      "v": 87
    },
    {
      "midi": 43,
      "hit": false,
      "t": 188800.00000000023,
      "d": 160,
      "v": 72
    },
    {
      "midi": 59,
      "hit": false,
      "t": 188800.00000000023,
      "d": 200,
      "v": 87
    },
    {
      "midi": 62,
      "hit": false,
      "t": 188800.00000000023,
      "d": 200,
      "v": 87
    },
    {
      "midi": 66,
      "hit": false,
      "t": 188800.00000000023,
      "d": 200,
      "v": 87
    },
    {
      "midi": 69,
      "hit": false,
      "t": 188800.00000000023,
      "d": 200,
      "v": 87
    },
    {
      "midi": 43,
      "hit": false,
      "t": 189200.00000000023,
      "d": 626.666666666657,
      "v": 66
    },
    {
      "midi": 59,
      "hit": false,
      "t": 189200.00000000023,
      "d": 690,
      "v": 74
    },
    {
      "midi": 62,
      "hit": false,
      "t": 189200.00000000023,
      "d": 690,
      "v": 74
    },
    {
      "midi": 66,
      "hit": false,
      "t": 189200.00000000023,
      "d": 690,
      "v": 74
    },
    {
      "midi": 69,
      "hit": false,
      "t": 189200.00000000023,
      "d": 690,
      "v": 74
    },
    {
      "midi": 38,
      "hit": false,
      "t": 189866.6666666669,
      "d": 110,
      "v": 68
    },
    {
      "midi": 43,
      "hit": false,
      "t": 190000.00000000023,
      "d": 140,
      "v": 66
    },
    {
      "midi": 59,
      "hit": false,
      "t": 190000.00000000023,
      "d": 170,
      "v": 87
    },
    {
      "midi": 62,
      "hit": false,
      "t": 190000.00000000023,
      "d": 170,
      "v": 87
    },
    {
      "midi": 66,
      "hit": false,
      "t": 190000.00000000023,
      "d": 170,
      "v": 87
    },
    {
      "midi": 69,
      "hit": false,
      "t": 190000.00000000023,
      "d": 170,
      "v": 87
    },
    {
      "midi": 57,
      "hit": false,
      "t": 190400.00000000023,
      "d": 1060,
      "v": 76
    },
    {
      "midi": 59,
      "hit": false,
      "t": 190400.00000000023,
      "d": 1060,
      "v": 76
    },
    {
      "midi": 62,
      "hit": false,
      "t": 190400.00000000023,
      "d": 1060,
      "v": 76
    },
    {
      "midi": 66,
      "hit": false,
      "t": 190400.00000000023,
      "d": 1060,
      "v": 76
    },
    {
      "midi": 47,
      "hit": false,
      "t": 191466.6666666669,
      "d": 153.33333333334303,
      "v": 57
    },
    {
      "midi": 57,
      "hit": false,
      "t": 191620.00000000023,
      "d": 120,
      "v": 85
    },
    {
      "midi": 59,
      "hit": false,
      "t": 191620.00000000023,
      "d": 120,
      "v": 85
    },
    {
      "midi": 62,
      "hit": false,
      "t": 191620.00000000023,
      "d": 120,
      "v": 85
    },
    {
      "midi": 66,
      "hit": false,
      "t": 191620.00000000023,
      "d": 120,
      "v": 85
    },
    {
      "midi": 60,
      "hit": false,
      "t": 192000.00000000023,
      "d": 223.33333333334303,
      "v": 82
    },
    {
      "midi": 64,
      "hit": false,
      "t": 192000.00000000023,
      "d": 223.33333333334303,
      "v": 82
    },
    {
      "midi": 67,
      "hit": false,
      "t": 192000.00000000023,
      "d": 223.33333333334303,
      "v": 82
    },
    {
      "midi": 69,
      "hit": false,
      "t": 192000.00000000023,
      "d": 223.33333333334303,
      "v": 82
    },
    {
      "midi": 60,
      "hit": false,
      "t": 192400.00000000023,
      "d": 753.333333333343,
      "v": 89
    },
    {
      "midi": 64,
      "hit": false,
      "t": 192400.00000000023,
      "d": 753.333333333343,
      "v": 89
    },
    {
      "midi": 67,
      "hit": false,
      "t": 192400.00000000023,
      "d": 753.333333333343,
      "v": 89
    },
    {
      "midi": 69,
      "hit": false,
      "t": 192400.00000000023,
      "d": 753.333333333343,
      "v": 89
    },
    {
      "midi": 55,
      "hit": false,
      "t": 193200.00000000023,
      "d": 113.33333333334303,
      "v": 70
    },
    {
      "midi": 60,
      "hit": false,
      "t": 193333.33333333358,
      "d": 100,
      "v": 45
    },
    {
      "midi": 64,
      "hit": false,
      "t": 193466.66666666692,
      "d": 63.333333333343035,
      "v": 87
    },
    {
      "midi": 60,
      "hit": false,
      "t": 193600.00000000026,
      "d": 213.33333333334303,
      "v": 62
    },
    {
      "midi": 64,
      "hit": false,
      "t": 193600.00000000026,
      "d": 213.33333333334303,
      "v": 62
    },
    {
      "midi": 67,
      "hit": false,
      "t": 193600.00000000026,
      "d": 213.33333333334303,
      "v": 62
    },
    {
      "midi": 69,
      "hit": false,
      "t": 193600.00000000026,
      "d": 213.33333333334303,
      "v": 62
    },
    {
      "midi": 60,
      "hit": false,
      "t": 194000.00000000026,
      "d": 133.33333333334303,
      "v": 87
    },
    {
      "midi": 64,
      "hit": false,
      "t": 194000.00000000026,
      "d": 133.33333333334303,
      "v": 87
    },
    {
      "midi": 67,
      "hit": false,
      "t": 194000.00000000026,
      "d": 133.33333333334303,
      "v": 87
    },
    {
      "midi": 69,
      "hit": false,
      "t": 194000.00000000026,
      "d": 133.33333333334303,
      "v": 87
    },
    {
      "midi": 55,
      "hit": false,
      "t": 194400.00000000026,
      "d": 213.33333333334303,
      "v": 62
    },
    {
      "midi": 60,
      "hit": false,
      "t": 194400.00000000026,
      "d": 213.33333333334303,
      "v": 62
    },
    {
      "midi": 64,
      "hit": false,
      "t": 194400.00000000026,
      "d": 213.33333333334303,
      "v": 62
    },
    {
      "midi": 55,
      "hit": false,
      "t": 194800.00000000026,
      "d": 133.33333333334303,
      "v": 87
    },
    {
      "midi": 60,
      "hit": false,
      "t": 194800.00000000026,
      "d": 133.33333333334303,
      "v": 87
    },
    {
      "midi": 64,
      "hit": false,
      "t": 194800.00000000026,
      "d": 133.33333333334303,
      "v": 87
    },
    {
      "midi": 59,
      "hit": false,
      "t": 195200.00000000026,
      "d": 223.33333333334303,
      "v": 82
    },
    {
      "midi": 62,
      "hit": false,
      "t": 195200.00000000026,
      "d": 223.33333333334303,
      "v": 82
    },
    {
      "midi": 66,
      "hit": false,
      "t": 195200.00000000026,
      "d": 223.33333333334303,
      "v": 82
    },
    {
      "midi": 69,
      "hit": false,
      "t": 195200.00000000026,
      "d": 223.33333333334303,
      "v": 82
    },
    {
      "midi": 59,
      "hit": false,
      "t": 195600.00000000026,
      "d": 753.333333333343,
      "v": 89
    },
    {
      "midi": 62,
      "hit": false,
      "t": 195600.00000000026,
      "d": 753.333333333343,
      "v": 89
    },
    {
      "midi": 66,
      "hit": false,
      "t": 195600.00000000026,
      "d": 753.333333333343,
      "v": 89
    },
    {
      "midi": 69,
      "hit": false,
      "t": 195600.00000000026,
      "d": 753.333333333343,
      "v": 89
    },
    {
      "midi": 54,
      "hit": false,
      "t": 196400.00000000026,
      "d": 113.33333333334303,
      "v": 70
    },
    {
      "midi": 59,
      "hit": false,
      "t": 196533.3333333336,
      "d": 100,
      "v": 45
    },
    {
      "midi": 62,
      "hit": false,
      "t": 196666.66666666695,
      "d": 63.333333333343035,
      "v": 87
    },
    {
      "midi": 57,
      "hit": false,
      "t": 196800.0000000003,
      "d": 1060,
      "v": 76
    },
    {
      "midi": 59,
      "hit": false,
      "t": 196800.0000000003,
      "d": 1060,
      "v": 76
    },
    {
      "midi": 62,
      "hit": false,
      "t": 196800.0000000003,
      "d": 1060,
      "v": 76
    },
    {
      "midi": 66,
      "hit": false,
      "t": 196800.0000000003,
      "d": 1060,
      "v": 76
    },
    {
      "midi": 47,
      "hit": false,
      "t": 197866.66666666695,
      "d": 153.33333333334303,
      "v": 57
    },
    {
      "midi": 57,
      "hit": false,
      "t": 198020.0000000003,
      "d": 120,
      "v": 85
    },
    {
      "midi": 59,
      "hit": false,
      "t": 198020.0000000003,
      "d": 120,
      "v": 85
    },
    {
      "midi": 62,
      "hit": false,
      "t": 198020.0000000003,
      "d": 120,
      "v": 85
    },
    {
      "midi": 66,
      "hit": false,
      "t": 198020.0000000003,
      "d": 120,
      "v": 85
    },
    {
      "midi": 57,
      "hit": false,
      "t": 198400.0000000003,
      "d": 223.33333333334303,
      "v": 82
    },
    {
      "midi": 59,
      "hit": false,
      "t": 198400.0000000003,
      "d": 223.33333333334303,
      "v": 82
    },
    {
      "midi": 62,
      "hit": false,
      "t": 198400.0000000003,
      "d": 223.33333333334303,
      "v": 82
    },
    {
      "midi": 66,
      "hit": false,
      "t": 198400.0000000003,
      "d": 223.33333333334303,
      "v": 82
    },
    {
      "midi": 57,
      "hit": false,
      "t": 198800.0000000003,
      "d": 753.333333333343,
      "v": 89
    },
    {
      "midi": 59,
      "hit": false,
      "t": 198800.0000000003,
      "d": 753.333333333343,
      "v": 89
    },
    {
      "midi": 62,
      "hit": false,
      "t": 198800.0000000003,
      "d": 753.333333333343,
      "v": 89
    },
    {
      "midi": 66,
      "hit": false,
      "t": 198800.0000000003,
      "d": 753.333333333343,
      "v": 89
    },
    {
      "midi": 57,
      "hit": false,
      "t": 199600.0000000003,
      "d": 113.33333333334303,
      "v": 70
    },
    {
      "midi": 62,
      "hit": false,
      "t": 199733.33333333363,
      "d": 100,
      "v": 45
    },
    {
      "midi": 66,
      "hit": false,
      "t": 199866.66666666698,
      "d": 63.333333333343035,
      "v": 87
    },
    {
      "midi": 55,
      "hit": false,
      "t": 200000.00000000032,
      "d": 753.333333333343,
      "v": 89
    },
    {
      "midi": 60,
      "hit": false,
      "t": 200000.00000000032,
      "d": 753.333333333343,
      "v": 89
    },
    {
      "midi": 64,
      "hit": false,
      "t": 200000.00000000032,
      "d": 753.333333333343,
      "v": 89
    },
    {
      "midi": 60,
      "hit": false,
      "t": 200800.00000000032,
      "d": 216.66666666665697,
      "v": 78
    },
    {
      "midi": 60,
      "hit": false,
      "t": 201066.66666666698,
      "d": 153.33333333334303,
      "v": 53
    },
    {
      "midi": 64,
      "hit": false,
      "t": 201200.00000000032,
      "d": 236.66666666665697,
      "v": 52
    },
    {
      "midi": 67,
      "hit": false,
      "t": 201466.66666666698,
      "d": 70,
      "v": 89
    },
    {
      "midi": 50,
      "hit": false,
      "t": 201600.00000000032,
      "d": 160,
      "v": 72
    },
    {
      "midi": 55,
      "hit": false,
      "t": 201600.00000000032,
      "d": 200,
      "v": 87
    },
    {
      "midi": 60,
      "hit": false,
      "t": 201600.00000000032,
      "d": 200,
      "v": 87
    },
    {
      "midi": 64,
      "hit": false,
      "t": 201600.00000000032,
      "d": 200,
      "v": 87
    },
    {
      "midi": 50,
      "hit": false,
      "t": 202000.00000000032,
      "d": 626.666666666657,
      "v": 66
    },
    {
      "midi": 55,
      "hit": false,
      "t": 202000.00000000032,
      "d": 690,
      "v": 74
    },
    {
      "midi": 60,
      "hit": false,
      "t": 202000.00000000032,
      "d": 690,
      "v": 74
    },
    {
      "midi": 64,
      "hit": false,
      "t": 202000.00000000032,
      "d": 690,
      "v": 74
    },
    {
      "midi": 43,
      "hit": false,
      "t": 202666.66666666698,
      "d": 110,
      "v": 68
    },
    {
      "midi": 50,
      "hit": false,
      "t": 202800.00000000032,
      "d": 140,
      "v": 66
    },
    {
      "midi": 55,
      "hit": false,
      "t": 202800.00000000032,
      "d": 170,
      "v": 87
    },
    {
      "midi": 60,
      "hit": false,
      "t": 202800.00000000032,
      "d": 170,
      "v": 87
    },
    {
      "midi": 64,
      "hit": false,
      "t": 202800.00000000032,
      "d": 170,
      "v": 87
    },
    {
      "midi": 59,
      "hit": false,
      "t": 203200.00000000032,
      "d": 753.333333333343,
      "v": 89
    },
    {
      "midi": 62,
      "hit": false,
      "t": 203200.00000000032,
      "d": 753.333333333343,
      "v": 89
    },
    {
      "midi": 66,
      "hit": false,
      "t": 203200.00000000032,
      "d": 753.333333333343,
      "v": 89
    },
    {
      "midi": 69,
      "hit": false,
      "t": 203200.00000000032,
      "d": 753.333333333343,
      "v": 89
    },
    {
      "midi": 54,
      "hit": false,
      "t": 204000.00000000032,
      "d": 216.66666666665697,
      "v": 78
    },
    {
      "midi": 55,
      "hit": false,
      "t": 204266.66666666698,
      "d": 153.33333333334303,
      "v": 53
    },
    {
      "midi": 59,
      "hit": false,
      "t": 204400.00000000032,
      "d": 236.66666666665697,
      "v": 52
    },
    {
      "midi": 62,
      "hit": false,
      "t": 204666.66666666698,
      "d": 70,
      "v": 89
    },
    {
      "midi": 57,
      "hit": false,
      "t": 204800.00000000032,
      "d": 753.333333333343,
      "v": 89
    },
    {
      "midi": 59,
      "hit": false,
      "t": 204800.00000000032,
      "d": 753.333333333343,
      "v": 89
    },
    {
      "midi": 62,
      "hit": false,
      "t": 204800.00000000032,
      "d": 753.333333333343,
      "v": 89
    },
    {
      "midi": 66,
      "hit": false,
      "t": 204800.00000000032,
      "d": 753.333333333343,
      "v": 89
    },
    {
      "midi": 57,
      "hit": false,
      "t": 205600.00000000032,
      "d": 216.66666666665697,
      "v": 78
    },
    {
      "midi": 59,
      "hit": false,
      "t": 205866.66666666698,
      "d": 153.33333333334303,
      "v": 53
    },
    {
      "midi": 62,
      "hit": false,
      "t": 206000.00000000032,
      "d": 236.66666666665697,
      "v": 52
    },
    {
      "midi": 66,
      "hit": false,
      "t": 206266.66666666698,
      "d": 70,
      "v": 89
    },
    {
      "midi": 60,
      "hit": false,
      "t": 206400.00000000032,
      "d": 1060,
      "v": 76
    },
    {
      "midi": 64,
      "hit": false,
      "t": 206400.00000000032,
      "d": 1060,
      "v": 76
    },
    {
      "midi": 67,
      "hit": false,
      "t": 206400.00000000032,
      "d": 1060,
      "v": 76
    },
    {
      "midi": 69,
      "hit": false,
      "t": 206400.00000000032,
      "d": 1060,
      "v": 76
    },
    {
      "midi": 45,
      "hit": false,
      "t": 207466.66666666698,
      "d": 153.33333333334303,
      "v": 57
    },
    {
      "midi": 60,
      "hit": false,
      "t": 207620.00000000032,
      "d": 120,
      "v": 85
    },
    {
      "midi": 64,
      "hit": false,
      "t": 207620.00000000032,
      "d": 120,
      "v": 85
    },
    {
      "midi": 67,
      "hit": false,
      "t": 207620.00000000032,
      "d": 120,
      "v": 85
    },
    {
      "midi": 69,
      "hit": false,
      "t": 207620.00000000032,
      "d": 120,
      "v": 85
    },
    {
      "midi": 60,
      "hit": false,
      "t": 208000.00000000032,
      "d": 213.33333333334303,
      "v": 62
    },
    {
      "midi": 64,
      "hit": false,
      "t": 208000.00000000032,
      "d": 213.33333333334303,
      "v": 62
    },
    {
      "midi": 67,
      "hit": false,
      "t": 208000.00000000032,
      "d": 213.33333333334303,
      "v": 62
    },
    {
      "midi": 69,
      "hit": false,
      "t": 208000.00000000032,
      "d": 213.33333333334303,
      "v": 62
    },
    {
      "midi": 60,
      "hit": false,
      "t": 208400.00000000032,
      "d": 133.33333333334303,
      "v": 87
    },
    {
      "midi": 64,
      "hit": false,
      "t": 208400.00000000032,
      "d": 133.33333333334303,
      "v": 87
    },
    {
      "midi": 67,
      "hit": false,
      "t": 208400.00000000032,
      "d": 133.33333333334303,
      "v": 87
    },
    {
      "midi": 69,
      "hit": false,
      "t": 208400.00000000032,
      "d": 133.33333333334303,
      "v": 87
    },
    {
      "midi": 55,
      "hit": false,
      "t": 208800.00000000032,
      "d": 400,
      "v": 85
    },
    {
      "midi": 60,
      "hit": false,
      "t": 208800.00000000032,
      "d": 400,
      "v": 85
    },
    {
      "midi": 64,
      "hit": false,
      "t": 208800.00000000032,
      "d": 400,
      "v": 85
    },
    {
      "midi": 60,
      "hit": false,
      "t": 209200.00000000032,
      "d": 130,
      "v": 63
    },
    {
      "midi": 64,
      "hit": false,
      "t": 209333.33333333366,
      "d": 113.33333333331393,
      "v": 74
    },
    {
      "midi": 67,
      "hit": false,
      "t": 209466.66666666698,
      "d": 76.66666666665697,
      "v": 95
    },
    {
      "midi": 43,
      "hit": false,
      "t": 209600.0000000003,
      "d": 160,
      "v": 72
    },
    {
      "midi": 59,
      "hit": false,
      "t": 209600.0000000003,
      "d": 200,
      "v": 87
    },
    {
      "midi": 62,
      "hit": false,
      "t": 209600.0000000003,
      "d": 200,
      "v": 87
    },
    {
      "midi": 66,
      "hit": false,
      "t": 209600.0000000003,
      "d": 200,
      "v": 87
    },
    {
      "midi": 69,
      "hit": false,
      "t": 209600.0000000003,
      "d": 200,
      "v": 87
    },
    {
      "midi": 43,
      "hit": false,
      "t": 210000.0000000003,
      "d": 626.666666666657,
      "v": 66
    },
    {
      "midi": 59,
      "hit": false,
      "t": 210000.0000000003,
      "d": 690,
      "v": 74
    },
    {
      "midi": 62,
      "hit": false,
      "t": 210000.0000000003,
      "d": 690,
      "v": 74
    },
    {
      "midi": 66,
      "hit": false,
      "t": 210000.0000000003,
      "d": 690,
      "v": 74
    },
    {
      "midi": 69,
      "hit": false,
      "t": 210000.0000000003,
      "d": 690,
      "v": 74
    },
    {
      "midi": 38,
      "hit": false,
      "t": 210666.66666666695,
      "d": 110,
      "v": 68
    },
    {
      "midi": 43,
      "hit": false,
      "t": 210800.0000000003,
      "d": 140,
      "v": 66
    },
    {
      "midi": 59,
      "hit": false,
      "t": 210800.0000000003,
      "d": 170,
      "v": 87
    },
    {
      "midi": 62,
      "hit": false,
      "t": 210800.0000000003,
      "d": 170,
      "v": 87
    },
    {
      "midi": 66,
      "hit": false,
      "t": 210800.0000000003,
      "d": 170,
      "v": 87
    },
    {
      "midi": 69,
      "hit": false,
      "t": 210800.0000000003,
      "d": 170,
      "v": 87
    },
    {
      "midi": 47,
      "hit": false,
      "t": 211200.0000000003,
      "d": 160,
      "v": 72
    },
    {
      "midi": 57,
      "hit": false,
      "t": 211200.0000000003,
      "d": 200,
      "v": 87
    },
    {
      "midi": 59,
      "hit": false,
      "t": 211200.0000000003,
      "d": 200,
      "v": 87
    },
    {
      "midi": 62,
      "hit": false,
      "t": 211200.0000000003,
      "d": 200,
      "v": 87
    },
    {
      "midi": 66,
      "hit": false,
      "t": 211200.0000000003,
      "d": 200,
      "v": 87
    },
    {
      "midi": 47,
      "hit": false,
      "t": 211600.0000000003,
      "d": 626.666666666657,
      "v": 66
    },
    {
      "midi": 57,
      "hit": false,
      "t": 211600.0000000003,
      "d": 690,
      "v": 74
    },
    {
      "midi": 59,
      "hit": false,
      "t": 211600.0000000003,
      "d": 690,
      "v": 74
    },
    {
      "midi": 62,
      "hit": false,
      "t": 211600.0000000003,
      "d": 690,
      "v": 74
    },
    {
      "midi": 66,
      "hit": false,
      "t": 211600.0000000003,
      "d": 690,
      "v": 74
    },
    {
      "midi": 42,
      "hit": false,
      "t": 212266.66666666695,
      "d": 110,
      "v": 68
    },
    {
      "midi": 47,
      "hit": false,
      "t": 212400.0000000003,
      "d": 140,
      "v": 66
    },
    {
      "midi": 57,
      "hit": false,
      "t": 212400.0000000003,
      "d": 170,
      "v": 87
    },
    {
      "midi": 59,
      "hit": false,
      "t": 212400.0000000003,
      "d": 170,
      "v": 87
    },
    {
      "midi": 62,
      "hit": false,
      "t": 212400.0000000003,
      "d": 170,
      "v": 87
    },
    {
      "midi": 66,
      "hit": false,
      "t": 212400.0000000003,
      "d": 170,
      "v": 87
    }
  ]
}