{
  "jsonPath": "Rock/Soft Rock/Spinners/ill-be-around.json",
  "path": "Rock\\Soft Rock\\Spinners\\Ill Be Around.mid",
  "name": "Ill Be Around",
  "difficulty": "Advanced",
  "bpm": 111.10020683155172,
  "notes": [
    {
      "midi": 40,
      "hit": false,
      "t": 1890.1855,
      "d": 1440.1413333333335,
      "v": 82
    },
    {
      "midi": 56,
      "hit": false,
      "t": 1890.1855,
      "d": 1440.1413333333335,
      "v": 84
    },
    {
      "midi": 59,
      "hit": false,
      "t": 1890.1855,
      "d": 1440.1413333333335,
      "v": 82
    },
    {
      "midi": 63,
      "hit": false,
      "t": 1890.1855,
      "d": 1440.1413333333335,
      "v": 82
    },
    {
      "midi": 44,
      "hit": false,
      "t": 3510.3445,
      "d": 450.04416666666657,
      "v": 82
    },
    {
      "midi": 59,
      "hit": false,
      "t": 3510.3445,
      "d": 450.04416666666657,
      "v": 82
    },
    {
      "midi": 63,
      "hit": false,
      "t": 3510.3445,
      "d": 450.04416666666657,
      "v": 82
    },
    {
      "midi": 68,
      "hit": false,
      "t": 3510.3445,
      "d": 450.04416666666657,
      "v": 82
    },
    {
      "midi": 42,
      "hit": false,
      "t": 4050.3975,
      "d": 1530.1501666666672,
      "v": 82
    },
    {
      "midi": 58,
      "hit": false,
      "t": 4050.3975,
      "d": 1530.1501666666672,
      "v": 82
    },
    {
      "midi": 63,
      "hit": false,
      "t": 4050.3975,
      "d": 1530.1501666666672,
      "v": 82
    },
    {
      "midi": 66,
      "hit": false,
      "t": 4050.3975,
      "d": 1530.1501666666672,
      "v": 84
    },
    {
      "midi": 44,
      "hit": false,
      "t": 5670.556500000001,
      "d": 387.0379833333336,
      "v": 82
    },
    {
      "midi": 59,
      "hit": false,
      "t": 5670.556500000001,
      "d": 387.0379833333336,
      "v": 84
    },
    {
      "midi": 63,
      "hit": false,
      "t": 5670.556500000001,
      "d": 387.0379833333336,
      "v": 82
    },
    {
      "midi": 68,
      "hit": false,
      "t": 5670.556500000001,
      "d": 387.0379833333336,
      "v": 84
    },
    {
      "midi": 40,
      "hit": false,
      "t": 6210.6095000000005,
      "d": 1440.141333333333,
      "v": 82
    },
    {
      "midi": 56,
      "hit": false,
      "t": 6210.6095000000005,
      "d": 1440.141333333333,
      "v": 84
    },
    {
      "midi": 59,
      "hit": false,
      "t": 6210.6095000000005,
      "d": 1440.141333333333,
      "v": 82
    },
    {
      "midi": 63,
      "hit": false,
      "t": 6210.6095000000005,
      "d": 1440.141333333333,
      "v": 82
    },
    {
      "midi": 44,
      "hit": false,
      "t": 7830.7685,
      "d": 450.04416666666657,
      "v": 82
    },
    {
      "midi": 59,
      "hit": false,
      "t": 7830.7685,
      "d": 450.04416666666657,
      "v": 82
    },
    {
      "midi": 63,
      "hit": false,
      "t": 7830.7685,
      "d": 450.04416666666657,
      "v": 82
    },
    {
      "midi": 68,
      "hit": false,
      "t": 7830.7685,
      "d": 450.04416666666657,
      "v": 82
    },
    {
      "midi": 42,
      "hit": false,
      "t": 8370.8215,
      "d": 2070.203166666666,
      "v": 82
    },
    {
      "midi": 58,
      "hit": false,
      "t": 8370.8215,
      "d": 2070.203166666666,
      "v": 82
    },
    {
      "midi": 63,
      "hit": false,
      "t": 8370.8215,
      "d": 2070.203166666666,
      "v": 82
    },
    {
      "midi": 66,
      "hit": false,
      "t": 8370.8215,
      "d": 2070.203166666666,
      "v": 84
    },
    {
      "midi": 40,
      "hit": false,
      "t": 10531.0335,
      "d": 1440.141333333333,
      "v": 82
    },
    {
      "midi": 56,
      "hit": false,
      "t": 10531.0335,
      "d": 1440.141333333333,
      "v": 84
    },
    {
      "midi": 59,
      "hit": false,
      "t": 10531.0335,
      "d": 1440.141333333333,
      "v": 82
    },
    {
      "midi": 63,
      "hit": false,
      "t": 10531.0335,
      "d": 1440.141333333333,
      "v": 82
    },
    {
      "midi": 44,
      "hit": false,
      "t": 12151.1925,
      "d": 450.04416666666657,
      "v": 82
    },
    {
      "midi": 59,
      "hit": false,
      "t": 12151.1925,
      "d": 450.04416666666657,
      "v": 82
    },
    {
      "midi": 63,
      "hit": false,
      "t": 12151.1925,
      "d": 450.04416666666657,
      "v": 82
    },
    {
      "midi": 68,
      "hit": false,
      "t": 12151.1925,
      "d": 450.04416666666657,
      "v": 82
    },
    {
      "midi": 42,
      "hit": false,
      "t": 12691.245499999999,
      "d": 1530.1501666666663,
      "v": 82
    },
    {
      "midi": 58,
      "hit": false,
      "t": 12691.245499999999,
      "d": 1530.1501666666663,
      "v": 82
    },
    {
      "midi": 63,
      "hit": false,
      "t": 12691.245499999999,
      "d": 1530.1501666666663,
      "v": 82
    },
    {
      "midi": 66,
      "hit": false,
      "t": 12691.245499999999,
      "d": 1530.1501666666663,
      "v": 84
    },
    {
      "midi": 44,
      "hit": false,
      "t": 14311.404499999999,
      "d": 387.0379833333336,
      "v": 82
    },
    {
      "midi": 59,
      "hit": false,
      "t": 14311.404499999999,
      "d": 387.0379833333336,
      "v": 84
    },
    {
      "midi": 63,
      "hit": false,
      "t": 14311.404499999999,
      "d": 387.0379833333336,
      "v": 82
    },
    {
      "midi": 68,
      "hit": false,
      "t": 14311.404499999999,
      "d": 387.0379833333336,
      "v": 84
    },
    {
      "midi": 40,
      "hit": false,
      "t": 14851.457499999999,
      "d": 1440.141333333333,
      "v": 82
    },
    {
      "midi": 56,
      "hit": false,
      "t": 14851.457499999999,
      "d": 1440.141333333333,
      "v": 84
    },
    {
      "midi": 59,
      "hit": false,
      "t": 14851.457499999999,
      "d": 1440.141333333333,
      "v": 82
    },
    {
      "midi": 63,
      "hit": false,
      "t": 14851.457499999999,
      "d": 1440.141333333333,
      "v": 82
    },
    {
      "midi": 44,
      "hit": false,
      "t": 16471.6165,
      "d": 450.04416666666657,
      "v": 82
    },
    {
      "midi": 59,
      "hit": false,
      "t": 16471.6165,
      "d": 450.04416666666657,
      "v": 82
    },
    {
      "midi": 63,
      "hit": false,
      "t": 16471.6165,
      "d": 450.04416666666657,
      "v": 82
    },
    {
      "midi": 68,
      "hit": false,
      "t": 16471.6165,
      "d": 450.04416666666657,
      "v": 82
    },
    {
      "midi": 42,
      "hit": false,
      "t": 17011.6695,
      "d": 2070.203166666666,
      "v": 82
    },
    {
      "midi": 58,
      "hit": false,
      "t": 17011.6695,
      "d": 2070.203166666666,
      "v": 82
    },
    {
      "midi": 63,
      "hit": false,
      "t": 17011.6695,
      "d": 2070.203166666666,
      "v": 82
    },
    {
      "midi": 66,
      "hit": false,
      "t": 17011.6695,
      "d": 2070.203166666666,
      "v": 84
    },
    {
      "midi": 40,
      "hit": false,
      "t": 19171.8815,
      "d": 1440.141333333333,
      "v": 82
    },
    {
      "midi": 56,
      "hit": false,
      "t": 19171.8815,
      "d": 1440.141333333333,
      "v": 84
    },
    {
      "midi": 59,
      "hit": false,
      "t": 19171.8815,
      "d": 1440.141333333333,
      "v": 82
    },
    {
      "midi": 63,
      "hit": false,
      "t": 19171.8815,
      "d": 1440.141333333333,
      "v": 82
    },
    {
      "midi": 44,
      "hit": false,
      "t": 20792.0405,
      "d": 450.04416666666657,
      "v": 82
    },
    {
      "midi": 59,
      "hit": false,
      "t": 20792.0405,
      "d": 450.04416666666657,
      "v": 82
    },
    {
      "midi": 63,
      "hit": false,
      "t": 20792.0405,
      "d": 450.04416666666657,
      "v": 82
    },
    {
      "midi": 68,
      "hit": false,
      "t": 20792.0405,
      "d": 450.04416666666657,
      "v": 82
    },
    {
      "midi": 42,
      "hit": false,
      "t": 21332.0935,
      "d": 1530.1501666666663,
      "v": 82
    },
    {
      "midi": 58,
      "hit": false,
      "t": 21332.0935,
      "d": 1530.1501666666663,
      "v": 82
    },
    {
      "midi": 63,
      "hit": false,
      "t": 21332.0935,
      "d": 1530.1501666666663,
      "v": 82
    },
    {
      "midi": 66,
      "hit": false,
      "t": 21332.0935,
      "d": 1530.1501666666663,
      "v": 84
    },
    {
      "midi": 44,
      "hit": false,
      "t": 22952.2525,
      "d": 387.0379833333318,
      "v": 82
    },
    {
      "midi": 59,
      "hit": false,
      "t": 22952.2525,
      "d": 387.0379833333318,
      "v": 84
    },
    {
      "midi": 63,
      "hit": false,
      "t": 22952.2525,
      "d": 387.0379833333318,
      "v": 82
    },
    {
      "midi": 68,
      "hit": false,
      "t": 22952.2525,
      "d": 387.0379833333318,
      "v": 84
    },
    {
      "midi": 40,
      "hit": false,
      "t": 23492.3055,
      "d": 1440.141333333333,
      "v": 82
    },
    {
      "midi": 56,
      "hit": false,
      "t": 23492.3055,
      "d": 1440.141333333333,
      "v": 84
    },
    {
      "midi": 59,
      "hit": false,
      "t": 23492.3055,
      "d": 1440.141333333333,
      "v": 82
    },
    {
      "midi": 63,
      "hit": false,
      "t": 23492.3055,
      "d": 1440.141333333333,
      "v": 82
    },
    {
      "midi": 44,
      "hit": false,
      "t": 25112.4645,
      "d": 450.04416666666657,
      "v": 82
    },
    {
      "midi": 59,
      "hit": false,
      "t": 25112.4645,
      "d": 450.04416666666657,
      "v": 82
    },
    {
      "midi": 63,
      "hit": false,
      "t": 25112.4645,
      "d": 450.04416666666657,
      "v": 82
    },
    {
      "midi": 68,
      "hit": false,
      "t": 25112.4645,
      "d": 450.04416666666657,
      "v": 82
    },
    {
      "midi": 42,
      "hit": false,
      "t": 25652.517499999998,
      "d": 1530.1501666666663,
      "v": 82
    },
    {
      "midi": 58,
      "hit": false,
      "t": 25652.517499999998,
      "d": 1530.1501666666663,
      "v": 82
    },
    {
      "midi": 63,
      "hit": false,
      "t": 25652.517499999998,
      "d": 1530.1501666666663,
      "v": 82
    },
    {
      "midi": 66,
      "hit": false,
      "t": 25652.517499999998,
      "d": 1530.1501666666663,
      "v": 84
    },
    {
      "midi": 44,
      "hit": false,
      "t": 27272.676499999998,
      "d": 387.0379833333318,
      "v": 82
    },
    {
      "midi": 59,
      "hit": false,
      "t": 27272.676499999998,
      "d": 387.0379833333318,
      "v": 84
    },
    {
      "midi": 63,
      "hit": false,
      "t": 27272.676499999998,
      "d": 387.0379833333318,
      "v": 82
    },
    {
      "midi": 68,
      "hit": false,
      "t": 27272.676499999998,
      "d": 387.0379833333318,
      "v": 84
    },
    {
      "midi": 40,
      "hit": false,
      "t": 27812.729499999998,
      "d": 1440.141333333333,
      "v": 82
    },
    {
      "midi": 56,
      "hit": false,
      "t": 27812.729499999998,
      "d": 1440.141333333333,
      "v": 84
    },
    {
      "midi": 59,
      "hit": false,
      "t": 27812.729499999998,
      "d": 1440.141333333333,
      "v": 82
    },
    {
      "midi": 63,
      "hit": false,
      "t": 27812.729499999998,
      "d": 1440.141333333333,
      "v": 82
    },
    {
      "midi": 44,
      "hit": false,
      "t": 29432.888499999997,
      "d": 450.04416666666657,
      "v": 82
    },
    {
      "midi": 59,
      "hit": false,
      "t": 29432.888499999997,
      "d": 450.04416666666657,
      "v": 82
    },
    {
      "midi": 63,
      "hit": false,
      "t": 29432.888499999997,
      "d": 450.04416666666657,
      "v": 82
    },
    {
      "midi": 68,
      "hit": false,
      "t": 29432.888499999997,
      "d": 450.04416666666657,
      "v": 82
    },
    {
      "midi": 42,
      "hit": false,
      "t": 29972.941499999997,
      "d": 1530.1501666666663,
      "v": 82
    },
    {
      "midi": 58,
      "hit": false,
      "t": 29972.941499999997,
      "d": 1530.1501666666663,
      "v": 82
    },
    {
      "midi": 63,
      "hit": false,
      "t": 29972.941499999997,
      "d": 1530.1501666666663,
      "v": 82
    },
    {
      "midi": 66,
      "hit": false,
      "t": 29972.941499999997,
      "d": 1530.1501666666663,
      "v": 84
    },
    {
      "midi": 44,
      "hit": false,
      "t": 31593.100499999997,
      "d": 387.0379833333318,
      "v": 82
    },
    {
      "midi": 59,
      "hit": false,
      "t": 31593.100499999997,
      "d": 387.0379833333318,
      "v": 84
    },
    {
      "midi": 63,
      "hit": false,
      "t": 31593.100499999997,
      "d": 387.0379833333318,
      "v": 82
    },
    {
      "midi": 68,
      "hit": false,
      "t": 31593.100499999997,
      "d": 387.0379833333318,
      "v": 84
    },
    {
      "midi": 40,
      "hit": false,
      "t": 32133.153499999997,
      "d": 1440.1413333333367,
      "v": 82
    },
    {
      "midi": 56,
      "hit": false,
      "t": 32133.153499999997,
      "d": 1440.1413333333367,
      "v": 84
    },
    {
      "midi": 59,
      "hit": false,
      "t": 32133.153499999997,
      "d": 1440.1413333333367,
      "v": 82
    },
    {
      "midi": 63,
      "hit": false,
      "t": 32133.153499999997,
      "d": 1440.1413333333367,
      "v": 82
    },
    {
      "midi": 44,
      "hit": false,
      "t": 33753.3125,
      "d": 450.04416666666657,
      "v": 82
    },
    {
      "midi": 59,
      "hit": false,
      "t": 33753.3125,
      "d": 450.04416666666657,
      "v": 82
    },
    {
      "midi": 63,
      "hit": false,
      "t": 33753.3125,
      "d": 450.04416666666657,
      "v": 82
    },
    {
      "midi": 68,
      "hit": false,
      "t": 33753.3125,
      "d": 450.04416666666657,
      "v": 82
    },
    {
      "midi": 42,
      "hit": false,
      "t": 34293.3655,
      "d": 1530.1501666666663,
      "v": 82
    },
    {
      "midi": 58,
      "hit": false,
      "t": 34293.3655,
      "d": 1530.1501666666663,
      "v": 82
    },
    {
      "midi": 63,
      "hit": false,
      "t": 34293.3655,
      "d": 1530.1501666666663,
      "v": 82
    },
    {
      "midi": 66,
      "hit": false,
      "t": 34293.3655,
      "d": 1530.1501666666663,
      "v": 84
    },
    {
      "midi": 44,
      "hit": false,
      "t": 35913.5245,
      "d": 387.03798333333543,
      "v": 82
    },
    {
      "midi": 59,
      "hit": false,
      "t": 35913.5245,
      "d": 387.03798333333543,
      "v": 84
    },
    {
      "midi": 63,
      "hit": false,
      "t": 35913.5245,
      "d": 387.03798333333543,
      "v": 82
    },
    {
      "midi": 68,
      "hit": false,
      "t": 35913.5245,
      "d": 387.03798333333543,
      "v": 84
    },
    {
      "midi": 40,
      "hit": false,
      "t": 36453.5775,
      "d": 1440.141333333333,
      "v": 82
    },
    {
      "midi": 56,
      "hit": false,
      "t": 36453.5775,
      "d": 1440.141333333333,
      "v": 84
    },
    {
      "midi": 59,
      "hit": false,
      "t": 36453.5775,
      "d": 1440.141333333333,
      "v": 82
    },
    {
      "midi": 63,
      "hit": false,
      "t": 36453.5775,
      "d": 1440.141333333333,
      "v": 82
    },
    {
      "midi": 44,
      "hit": false,
      "t": 38073.7365,
      "d": 450.04416666666657,
      "v": 82
    },
    {
      "midi": 59,
      "hit": false,
      "t": 38073.7365,
      "d": 450.04416666666657,
      "v": 82
    },
    {
      "midi": 63,
      "hit": false,
      "t": 38073.7365,
      "d": 450.04416666666657,
      "v": 82
    },
    {
      "midi": 68,
      "hit": false,
      "t": 38073.7365,
      "d": 450.04416666666657,
      "v": 82
    },
    {
      "midi": 42,
      "hit": false,
      "t": 38613.7895,
      "d": 1530.1501666666663,
      "v": 82
    },
    {
      "midi": 58,
      "hit": false,
      "t": 38613.7895,
      "d": 1530.1501666666663,
      "v": 82
    },
    {
      "midi": 63,
      "hit": false,
      "t": 38613.7895,
      "d": 1530.1501666666663,
      "v": 82
    },
    {
      "midi": 66,
      "hit": false,
      "t": 38613.7895,
      "d": 1530.1501666666663,
      "v": 84
    },
    {
      "midi": 44,
      "hit": false,
      "t": 40233.9485,
      "d": 387.03798333333543,
      "v": 82
    },
    {
      "midi": 59,
      "hit": false,
      "t": 40233.9485,
      "d": 387.03798333333543,
      "v": 84
    },
    {
      "midi": 63,
      "hit": false,
      "t": 40233.9485,
      "d": 387.03798333333543,
      "v": 82
    },
    {
      "midi": 68,
      "hit": false,
      "t": 40233.9485,
      "d": 387.03798333333543,
      "v": 84
    },
    {
      "midi": 40,
      "hit": false,
      "t": 40774.0015,
      "d": 1440.141333333333,
      "v": 82
    },
    {
      "midi": 56,
      "hit": false,
      "t": 40774.0015,
      "d": 1440.141333333333,
      "v": 84
    },
    {
      "midi": 59,
      "hit": false,
      "t": 40774.0015,
      "d": 1440.141333333333,
      "v": 82
    },
    {
      "midi": 63,
      "hit": false,
      "t": 40774.0015,
      "d": 1440.141333333333,
      "v": 82
    },
    {
      "midi": 44,
      "hit": false,
      "t": 42394.1605,
      "d": 450.04416666666657,
      "v": 82
    },
    {
      "midi": 59,
      "hit": false,
      "t": 42394.1605,
      "d": 450.04416666666657,
      "v": 82
    },
    {
      "midi": 63,
      "hit": false,
      "t": 42394.1605,
      "d": 450.04416666666657,
      "v": 82
    },
    {
      "midi": 68,
      "hit": false,
      "t": 42394.1605,
      "d": 450.04416666666657,
      "v": 82
    },
    {
      "midi": 42,
      "hit": false,
      "t": 42934.2135,
      "d": 1530.1501666666663,
      "v": 82
    },
    {
      "midi": 58,
      "hit": false,
      "t": 42934.2135,
      "d": 1530.1501666666663,
      "v": 82
    },
    {
      "midi": 63,
      "hit": false,
      "t": 42934.2135,
      "d": 1530.1501666666663,
      "v": 82
    },
    {
      "midi": 66,
      "hit": false,
      "t": 42934.2135,
      "d": 1530.1501666666663,
      "v": 84
    },
    {
      "midi": 44,
      "hit": false,
      "t": 44554.3725,
      "d": 387.03798333333543,
      "v": 82
    },
    {
      "midi": 59,
      "hit": false,
      "t": 44554.3725,
      "d": 387.03798333333543,
      "v": 84
    },
    {
      "midi": 63,
      "hit": false,
      "t": 44554.3725,
      "d": 387.03798333333543,
      "v": 82
    },
    {
      "midi": 68,
      "hit": false,
      "t": 44554.3725,
      "d": 387.03798333333543,
      "v": 84
    },
    {
      "midi": 40,
      "hit": false,
      "t": 45094.4255,
      "d": 1440.141333333333,
      "v": 82
    },
    {
      "midi": 56,
      "hit": false,
      "t": 45094.4255,
      "d": 1440.141333333333,
      "v": 84
    },
    {
      "midi": 59,
      "hit": false,
      "t": 45094.4255,
      "d": 1440.141333333333,
      "v": 82
    },
    {
      "midi": 63,
      "hit": false,
      "t": 45094.4255,
      "d": 1440.141333333333,
      "v": 82
    },
    {
      "midi": 44,
      "hit": false,
      "t": 46714.5845,
      "d": 450.04416666666657,
      "v": 82
    },
    {
      "midi": 59,
      "hit": false,
      "t": 46714.5845,
      "d": 450.04416666666657,
      "v": 82
    },
    {
      "midi": 63,
      "hit": false,
      "t": 46714.5845,
      "d": 450.04416666666657,
      "v": 82
    },
    {
      "midi": 68,
      "hit": false,
      "t": 46714.5845,
      "d": 450.04416666666657,
      "v": 82
    },
    {
      "midi": 42,
      "hit": false,
      "t": 47254.6375,
      "d": 1530.1501666666663,
      "v": 82
    },
    {
      "midi": 58,
      "hit": false,
      "t": 47254.6375,
      "d": 1530.1501666666663,
      "v": 82
    },
    {
      "midi": 63,
      "hit": false,
      "t": 47254.6375,
      "d": 1530.1501666666663,
      "v": 82
    },
    {
      "midi": 66,
      "hit": false,
      "t": 47254.6375,
      "d": 1530.1501666666663,
      "v": 84
    },
    {
      "midi": 44,
      "hit": false,
      "t": 48874.7965,
      "d": 387.03798333333543,
      "v": 82
    },
    {
      "midi": 59,
      "hit": false,
      "t": 48874.7965,
      "d": 387.03798333333543,
      "v": 84
    },
    {
      "midi": 63,
      "hit": false,
      "t": 48874.7965,
      "d": 387.03798333333543,
      "v": 82
    },
    {
      "midi": 68,
      "hit": false,
      "t": 48874.7965,
      "d": 387.03798333333543,
      "v": 84
    },
    {
      "midi": 40,
      "hit": false,
      "t": 49414.8495,
      "d": 1440.141333333333,
      "v": 82
    },
    {
      "midi": 56,
      "hit": false,
      "t": 49414.8495,
      "d": 1440.141333333333,
      "v": 84
    },
    {
      "midi": 59,
      "hit": false,
      "t": 49414.8495,
      "d": 1440.141333333333,
      "v": 82
    },
    {
      "midi": 63,
      "hit": false,
      "t": 49414.8495,
      "d": 1440.141333333333,
      "v": 82
    },
    {
      "midi": 44,
      "hit": false,
      "t": 51035.008499999996,
      "d": 450.04416666666657,
      "v": 82
    },
    {
      "midi": 59,
      "hit": false,
      "t": 51035.008499999996,
      "d": 450.04416666666657,
      "v": 82
    },
    {
      "midi": 63,
      "hit": false,
      "t": 51035.008499999996,
      "d": 450.04416666666657,
      "v": 82
    },
    {
      "midi": 68,
      "hit": false,
      "t": 51035.008499999996,
      "d": 450.04416666666657,
      "v": 82
    },
    {
      "midi": 42,
      "hit": false,
      "t": 51575.061499999996,
      "d": 1530.1501666666663,
      "v": 82
    },
    {
      "midi": 58,
      "hit": false,
      "t": 51575.061499999996,
      "d": 1530.1501666666663,
      "v": 82
    },
    {
      "midi": 63,
      "hit": false,
      "t": 51575.061499999996,
      "d": 1530.1501666666663,
      "v": 82
    },
    {
      "midi": 66,
      "hit": false,
      "t": 51575.061499999996,
      "d": 1530.1501666666663,
      "v": 84
    },
    {
      "midi": 59,
      "hit": false,
      "t": 52655.1675,
      "d": 180.01766666666663,
      "v": 74
    },
    {
      "midi": 63,
      "hit": false,
      "t": 52655.1675,
      "d": 180.01766666666663,
      "v": 74
    },
    {
      "midi": 66,
      "hit": false,
      "t": 52655.1675,
      "d": 180.01766666666663,
      "v": 74
    },
    {
      "midi": 59,
      "hit": false,
      "t": 52925.194,
      "d": 265.52605833333655,
      "v": 74
    },
    {
      "midi": 63,
      "hit": false,
      "t": 52925.194,
      "d": 265.52605833333655,
      "v": 74
    },
    {
      "midi": 66,
      "hit": false,
      "t": 52925.194,
      "d": 265.52605833333655,
      "v": 74
    },
    {
      "midi": 44,
      "hit": false,
      "t": 53195.220499999996,
      "d": 387.03798333333543,
      "v": 82
    },
    {
      "midi": 59,
      "hit": false,
      "t": 53195.220499999996,
      "d": 387.03798333333543,
      "v": 84
    },
    {
      "midi": 63,
      "hit": false,
      "t": 53195.220499999996,
      "d": 387.03798333333543,
      "v": 82
    },
    {
      "midi": 68,
      "hit": false,
      "t": 53195.220499999996,
      "d": 387.03798333333543,
      "v": 84
    },
    {
      "midi": 61,
      "hit": false,
      "t": 53195.2205,
      "d": 225.02208333333692,
      "v": 74
    },
    {
      "midi": 66,
      "hit": false,
      "t": 53195.2205,
      "d": 225.02208333333692,
      "v": 74
    },
    {
      "midi": 68,
      "hit": false,
      "t": 53195.2205,
      "d": 225.02208333333692,
      "v": 74
    },
    {
      "midi": 63,
      "hit": false,
      "t": 53465.24700000001,
      "d": 180.01766666666663,
      "v": 76
    },
    {
      "midi": 68,
      "hit": false,
      "t": 53465.24700000001,
      "d": 180.01766666666663,
      "v": 76
    },
    {
      "midi": 71,
      "hit": false,
      "t": 53465.24700000001,
      "d": 180.01766666666663,
      "v": 76
    },
    {
      "midi": 40,
      "hit": false,
      "t": 53735.273499999996,
      "d": 1440.141333333333,
      "v": 82
    },
    {
      "midi": 56,
      "hit": false,
      "t": 53735.273499999996,
      "d": 1440.141333333333,
      "v": 84
    },
    {
      "midi": 59,
      "hit": false,
      "t": 53735.273499999996,
      "d": 1440.141333333333,
      "v": 82
    },
    {
      "midi": 63,
      "hit": false,
      "t": 53735.273499999996,
      "d": 1440.141333333333,
      "v": 82
    },
    {
      "midi": 63,
      "hit": false,
      "t": 53735.27350000001,
      "d": 466.92082291666884,
      "v": 76
    },
    {
      "midi": 68,
      "hit": false,
      "t": 53735.27350000001,
      "d": 466.92082291666884,
      "v": 76
    },
    {
      "midi": 71,
      "hit": false,
      "t": 53735.27350000001,
      "d": 466.92082291666884,
      "v": 76
    },
    {
      "midi": 63,
      "hit": false,
      "t": 54275.32650000001,
      "d": 265.52605833333655,
      "v": 76
    },
    {
      "midi": 68,
      "hit": false,
      "t": 54275.32650000001,
      "d": 265.52605833333655,
      "v": 76
    },
    {
      "midi": 71,
      "hit": false,
      "t": 54275.32650000001,
      "d": 265.52605833333655,
      "v": 76
    },
    {
      "midi": 44,
      "hit": false,
      "t": 55355.432499999995,
      "d": 450.04416666666657,
      "v": 82
    },
    {
      "midi": 59,
      "hit": false,
      "t": 55355.432499999995,
      "d": 450.04416666666657,
      "v": 82
    },
    {
      "midi": 63,
      "hit": false,
      "t": 55355.432499999995,
      "d": 450.04416666666657,
      "v": 82
    },
    {
      "midi": 68,
      "hit": false,
      "t": 55355.432499999995,
      "d": 450.04416666666657,
      "v": 82
    },
    {
      "midi": 42,
      "hit": false,
      "t": 55895.485499999995,
      "d": 1530.1501666666663,
      "v": 82
    },
    {
      "midi": 58,
      "hit": false,
      "t": 55895.485499999995,
      "d": 1530.1501666666663,
      "v": 82
    },
    {
      "midi": 63,
      "hit": false,
      "t": 55895.485499999995,
      "d": 1530.1501666666663,
      "v": 82
    },
    {
      "midi": 66,
      "hit": false,
      "t": 55895.485499999995,
      "d": 1530.1501666666663,
      "v": 84
    },
    {
      "midi": 59,
      "hit": false,
      "t": 56975.59150000002,
      "d": 180.01766666666663,
      "v": 74
    },
    {
      "midi": 63,
      "hit": false,
      "t": 56975.59150000002,
      "d": 180.01766666666663,
      "v": 74
    },
    {
      "midi": 66,
      "hit": false,
      "t": 56975.59150000002,
      "d": 180.01766666666663,
      "v": 74
    },
    {
      "midi": 59,
      "hit": false,
      "t": 57245.61800000002,
      "d": 265.52605833333655,
      "v": 74
    },
    {
      "midi": 63,
      "hit": false,
      "t": 57245.61800000002,
      "d": 265.52605833333655,
      "v": 74
    },
    {
      "midi": 66,
      "hit": false,
      "t": 57245.61800000002,
      "d": 265.52605833333655,
      "v": 74
    },
    {
      "midi": 44,
      "hit": false,
      "t": 57515.644499999995,
      "d": 387.03798333333543,
      "v": 82
    },
    {
      "midi": 59,
      "hit": false,
      "t": 57515.644499999995,
      "d": 387.03798333333543,
      "v": 84
    },
    {
      "midi": 63,
      "hit": false,
      "t": 57515.644499999995,
      "d": 387.03798333333543,
      "v": 82
    },
    {
      "midi": 68,
      "hit": false,
      "t": 57515.644499999995,
      "d": 387.03798333333543,
      "v": 84
    },
    {
      "midi": 61,
      "hit": false,
      "t": 57515.64450000002,
      "d": 225.02208333333692,
      "v": 74
    },
    {
      "midi": 66,
      "hit": false,
      "t": 57515.64450000002,
      "d": 225.02208333333692,
      "v": 74
    },
    {
      "midi": 68,
      "hit": false,
      "t": 57515.64450000002,
      "d": 225.02208333333692,
      "v": 74
    },
    {
      "midi": 63,
      "hit": false,
      "t": 57785.671000000024,
      "d": 180.01766666666663,
      "v": 76
    },
    {
      "midi": 68,
      "hit": false,
      "t": 57785.671000000024,
      "d": 180.01766666666663,
      "v": 76
    },
    {
      "midi": 71,
      "hit": false,
      "t": 57785.671000000024,
      "d": 180.01766666666663,
      "v": 76
    },
    {
      "midi": 40,
      "hit": false,
      "t": 58055.697499999995,
      "d": 1440.141333333333,
      "v": 82
    },
    {
      "midi": 56,
      "hit": false,
      "t": 58055.697499999995,
      "d": 1440.141333333333,
      "v": 84
    },
    {
      "midi": 59,
      "hit": false,
      "t": 58055.697499999995,
      "d": 1440.141333333333,
      "v": 82
    },
    {
      "midi": 63,
      "hit": false,
      "t": 58055.697499999995,
      "d": 1440.141333333333,
      "v": 82
    },
    {
      "midi": 63,
      "hit": false,
      "t": 58055.697500000024,
      "d": 466.92082291666884,
      "v": 76
    },
    {
      "midi": 68,
      "hit": false,
      "t": 58055.697500000024,
      "d": 466.92082291666884,
      "v": 76
    },
    {
      "midi": 71,
      "hit": false,
      "t": 58055.697500000024,
      "d": 466.92082291666884,
      "v": 76
    },
    {
      "midi": 63,
      "hit": false,
      "t": 58595.750500000024,
      "d": 265.52605833333655,
      "v": 76
    },
    {
      "midi": 68,
      "hit": false,
      "t": 58595.750500000024,
      "d": 265.52605833333655,
      "v": 76
    },
    {
      "midi": 71,
      "hit": false,
      "t": 58595.750500000024,
      "d": 265.52605833333655,
      "v": 76
    },
    {
      "midi": 44,
      "hit": false,
      "t": 59675.856499999994,
      "d": 450.04416666666657,
      "v": 82
    },
    {
      "midi": 59,
      "hit": false,
      "t": 59675.856499999994,
      "d": 450.04416666666657,
      "v": 82
    },
    {
      "midi": 63,
      "hit": false,
      "t": 59675.856499999994,
      "d": 450.04416666666657,
      "v": 82
    },
    {
      "midi": 68,
      "hit": false,
      "t": 59675.856499999994,
      "d": 450.04416666666657,
      "v": 82
    },
    {
      "midi": 42,
      "hit": false,
      "t": 60215.909499999994,
      "d": 1530.1501666666663,
      "v": 82
    },
    {
      "midi": 58,
      "hit": false,
      "t": 60215.909499999994,
      "d": 1530.1501666666663,
      "v": 82
    },
    {
      "midi": 63,
      "hit": false,
      "t": 60215.909499999994,
      "d": 1530.1501666666663,
      "v": 82
    },
    {
      "midi": 66,
      "hit": false,
      "t": 60215.909499999994,
      "d": 1530.1501666666663,
      "v": 84
    },
    {
      "midi": 59,
      "hit": false,
      "t": 61296.01550000003,
      "d": 180.01766666666663,
      "v": 74
    },
    {
      "midi": 63,
      "hit": false,
      "t": 61296.01550000003,
      "d": 180.01766666666663,
      "v": 74
    },
    {
      "midi": 66,
      "hit": false,
      "t": 61296.01550000003,
      "d": 180.01766666666663,
      "v": 74
    },
    {
      "midi": 59,
      "hit": false,
      "t": 61566.04200000003,
      "d": 265.52605833333655,
      "v": 74
    },
    {
      "midi": 63,
      "hit": false,
      "t": 61566.04200000003,
      "d": 265.52605833333655,
      "v": 74
    },
    {
      "midi": 66,
      "hit": false,
      "t": 61566.04200000003,
      "d": 265.52605833333655,
      "v": 74
    },
    {
      "midi": 44,
      "hit": false,
      "t": 61836.068499999994,
      "d": 387.03798333333543,
      "v": 82
    },
    {
      "midi": 59,
      "hit": false,
      "t": 61836.068499999994,
      "d": 387.03798333333543,
      "v": 84
    },
    {
      "midi": 63,
      "hit": false,
      "t": 61836.068499999994,
      "d": 387.03798333333543,
      "v": 82
    },
    {
      "midi": 68,
      "hit": false,
      "t": 61836.068499999994,
      "d": 387.03798333333543,
      "v": 84
    },
    {
      "midi": 61,
      "hit": false,
      "t": 61836.06850000003,
      "d": 225.02208333333692,
      "v": 74
    },
    {
      "midi": 66,
      "hit": false,
      "t": 61836.06850000003,
      "d": 225.02208333333692,
      "v": 74
    },
    {
      "midi": 68,
      "hit": false,
      "t": 61836.06850000003,
      "d": 225.02208333333692,
      "v": 74
    },
    {
      "midi": 63,
      "hit": false,
      "t": 62106.09500000004,
      "d": 180.01766666666663,
      "v": 76
    },
    {
      "midi": 68,
      "hit": false,
      "t": 62106.09500000004,
      "d": 180.01766666666663,
      "v": 76
    },
    {
      "midi": 71,
      "hit": false,
      "t": 62106.09500000004,
      "d": 180.01766666666663,
      "v": 76
    },
    {
      "midi": 40,
      "hit": false,
      "t": 62376.121499999994,
      "d": 1440.141333333333,
      "v": 82
    },
    {
      "midi": 56,
      "hit": false,
      "t": 62376.121499999994,
      "d": 1440.141333333333,
      "v": 84
    },
    {
      "midi": 59,
      "hit": false,
      "t": 62376.121499999994,
      "d": 1440.141333333333,
      "v": 82
    },
    {
      "midi": 63,
      "hit": false,
      "t": 62376.121499999994,
      "d": 1440.141333333333,
      "v": 82
    },
    {
      "midi": 63,
      "hit": false,
      "t": 62376.12150000004,
      "d": 466.92082291666884,
      "v": 76
    },
    {
      "midi": 68,
      "hit": false,
      "t": 62376.12150000004,
      "d": 466.92082291666884,
      "v": 76
    },
    {
      "midi": 71,
      "hit": false,
      "t": 62376.12150000004,
      "d": 466.92082291666884,
      "v": 76
    },
    {
      "midi": 63,
      "hit": false,
      "t": 62916.17450000004,
      "d": 265.52605833333655,
      "v": 76
    },
    {
      "midi": 68,
      "hit": false,
      "t": 62916.17450000004,
      "d": 265.52605833333655,
      "v": 76
    },
    {
      "midi": 71,
      "hit": false,
      "t": 62916.17450000004,
      "d": 265.52605833333655,
      "v": 76
    },
    {
      "midi": 44,
      "hit": false,
      "t": 63996.28049999999,
      "d": 450.04416666666657,
      "v": 82
    },
    {
      "midi": 59,
      "hit": false,
      "t": 63996.28049999999,
      "d": 450.04416666666657,
      "v": 82
    },
    {
      "midi": 63,
      "hit": false,
      "t": 63996.28049999999,
      "d": 450.04416666666657,
      "v": 82
    },
    {
      "midi": 68,
      "hit": false,
      "t": 63996.28049999999,
      "d": 450.04416666666657,
      "v": 82
    },
    {
      "midi": 42,
      "hit": false,
      "t": 64536.33349999999,
      "d": 1329.8805125000072,
      "v": 82
    },
    {
      "midi": 58,
      "hit": false,
      "t": 64536.33349999999,
      "d": 1329.8805125000072,
      "v": 82
    },
    {
      "midi": 63,
      "hit": false,
      "t": 64536.33349999999,
      "d": 1329.8805125000072,
      "v": 82
    },
    {
      "midi": 66,
      "hit": false,
      "t": 64536.33349999999,
      "d": 1329.8805125000072,
      "v": 84
    },
    {
      "midi": 42,
      "hit": false,
      "t": 65886.466,
      "d": 135.0132500000036,
      "v": 73
    },
    {
      "midi": 58,
      "hit": false,
      "t": 65886.466,
      "d": 135.0132500000036,
      "v": 64
    },
    {
      "midi": 63,
      "hit": false,
      "t": 65886.466,
      "d": 135.0132500000036,
      "v": 60
    },
    {
      "midi": 66,
      "hit": false,
      "t": 65886.466,
      "d": 135.0132500000036,
      "v": 64
    },
    {
      "midi": 61,
      "hit": false,
      "t": 65886.46600000004,
      "d": 225.02208333332965,
      "v": 70
    },
    {
      "midi": 66,
      "hit": false,
      "t": 65886.46600000004,
      "d": 225.02208333332965,
      "v": 70
    },
    {
      "midi": 70,
      "hit": false,
      "t": 65886.46600000004,
      "d": 225.02208333332965,
      "v": 70
    },
    {
      "midi": 42,
      "hit": false,
      "t": 66156.49250000001,
      "d": 135.0132500000036,
      "v": 82
    },
    {
      "midi": 58,
      "hit": false,
      "t": 66156.49250000001,
      "d": 135.0132500000036,
      "v": 82
    },
    {
      "midi": 63,
      "hit": false,
      "t": 66156.49250000001,
      "d": 135.0132500000036,
      "v": 73
    },
    {
      "midi": 66,
      "hit": false,
      "t": 66156.49250000001,
      "d": 135.0132500000036,
      "v": 73
    },
    {
      "midi": 61,
      "hit": false,
      "t": 66156.49250000004,
      "d": 157.51545833333512,
      "v": 74
    },
    {
      "midi": 66,
      "hit": false,
      "t": 66156.49250000004,
      "d": 157.51545833333512,
      "v": 74
    },
    {
      "midi": 70,
      "hit": false,
      "t": 66156.49250000004,
      "d": 157.51545833333512,
      "v": 74
    },
    {
      "midi": 42,
      "hit": false,
      "t": 66426.51900000001,
      "d": 135.0132500000036,
      "v": 84
    },
    {
      "midi": 58,
      "hit": false,
      "t": 66426.51900000001,
      "d": 135.0132500000036,
      "v": 73
    },
    {
      "midi": 63,
      "hit": false,
      "t": 66426.51900000001,
      "d": 135.0132500000036,
      "v": 64
    },
    {
      "midi": 66,
      "hit": false,
      "t": 66426.51900000001,
      "d": 135.0132500000036,
      "v": 82
    },
    {
      "midi": 61,
      "hit": false,
      "t": 66426.51900000004,
      "d": 225.02208333332965,
      "v": 74
    },
    {
      "midi": 66,
      "hit": false,
      "t": 66426.51900000004,
      "d": 225.02208333332965,
      "v": 74
    },
    {
      "midi": 70,
      "hit": false,
      "t": 66426.51900000004,
      "d": 225.02208333332965,
      "v": 74
    },
    {
      "midi": 40,
      "hit": false,
      "t": 66696.54550000002,
      "d": 1980.194333333333,
      "v": 82
    },
    {
      "midi": 56,
      "hit": false,
      "t": 66696.54550000002,
      "d": 1980.194333333333,
      "v": 84
    },
    {
      "midi": 59,
      "hit": false,
      "t": 66696.54550000002,
      "d": 1980.194333333333,
      "v": 82
    },
    {
      "midi": 63,
      "hit": false,
      "t": 66696.54550000002,
      "d": 1980.194333333333,
      "v": 82
    },
    {
      "midi": 59,
      "hit": false,
      "t": 66696.54550000004,
      "d": 3492.3427333333384,
      "v": 76
    },
    {
      "midi": 63,
      "hit": false,
      "t": 66696.54550000004,
      "d": 3492.3427333333384,
      "v": 76
    },
    {
      "midi": 68,
      "hit": false,
      "t": 66696.54550000004,
      "d": 3492.3427333333384,
      "v": 76
    },
    {
      "midi": 40,
      "hit": false,
      "t": 71286.99600000003,
      "d": 1329.8805125000072,
      "v": 82
    },
    {
      "midi": 56,
      "hit": false,
      "t": 71286.99600000003,
      "d": 1329.8805125000072,
      "v": 84
    },
    {
      "midi": 59,
      "hit": false,
      "t": 71286.99600000003,
      "d": 1329.8805125000072,
      "v": 82
    },
    {
      "midi": 63,
      "hit": false,
      "t": 71286.99600000003,
      "d": 1329.8805125000072,
      "v": 82
    },
    {
      "midi": 44,
      "hit": false,
      "t": 72637.12850000004,
      "d": 450.04416666667385,
      "v": 82
    },
    {
      "midi": 59,
      "hit": false,
      "t": 72637.12850000004,
      "d": 450.04416666667385,
      "v": 82
    },
    {
      "midi": 63,
      "hit": false,
      "t": 72637.12850000004,
      "d": 450.04416666667385,
      "v": 82
    },
    {
      "midi": 68,
      "hit": false,
      "t": 72637.12850000004,
      "d": 450.04416666667385,
      "v": 82
    },
    {
      "midi": 42,
      "hit": false,
      "t": 73177.18150000005,
      "d": 1530.1501666666736,
      "v": 82
    },
    {
      "midi": 58,
      "hit": false,
      "t": 73177.18150000005,
      "d": 1530.1501666666736,
      "v": 82
    },
    {
      "midi": 63,
      "hit": false,
      "t": 73177.18150000005,
      "d": 1530.1501666666736,
      "v": 82
    },
    {
      "midi": 66,
      "hit": false,
      "t": 73177.18150000005,
      "d": 1530.1501666666736,
      "v": 84
    },
    {
      "midi": 44,
      "hit": false,
      "t": 74797.34050000006,
      "d": 387.03798333332816,
      "v": 82
    },
    {
      "midi": 59,
      "hit": false,
      "t": 74797.34050000006,
      "d": 387.03798333332816,
      "v": 84
    },
    {
      "midi": 63,
      "hit": false,
      "t": 74797.34050000006,
      "d": 387.03798333332816,
      "v": 82
    },
    {
      "midi": 68,
      "hit": false,
      "t": 74797.34050000006,
      "d": 387.03798333332816,
      "v": 84
    },
    {
      "midi": 40,
      "hit": false,
      "t": 75337.39350000006,
      "d": 1440.141333333333,
      "v": 82
    },
    {
      "midi": 56,
      "hit": false,
      "t": 75337.39350000006,
      "d": 1440.141333333333,
      "v": 84
    },
    {
      "midi": 59,
      "hit": false,
      "t": 75337.39350000006,
      "d": 1440.141333333333,
      "v": 82
    },
    {
      "midi": 63,
      "hit": false,
      "t": 75337.39350000006,
      "d": 1440.141333333333,
      "v": 82
    },
    {
      "midi": 44,
      "hit": false,
      "t": 76957.55250000006,
      "d": 450.04416666667385,
      "v": 82
    },
    {
      "midi": 59,
      "hit": false,
      "t": 76957.55250000006,
      "d": 450.04416666667385,
      "v": 82
    },
    {
      "midi": 63,
      "hit": false,
      "t": 76957.55250000006,
      "d": 450.04416666667385,
      "v": 82
    },
    {
      "midi": 68,
      "hit": false,
      "t": 76957.55250000006,
      "d": 450.04416666667385,
      "v": 82
    },
    {
      "midi": 42,
      "hit": false,
      "t": 77497.60550000008,
      "d": 1530.1501666666736,
      "v": 82
    },
    {
      "midi": 58,
      "hit": false,
      "t": 77497.60550000008,
      "d": 1530.1501666666736,
      "v": 82
    },
    {
      "midi": 63,
      "hit": false,
      "t": 77497.60550000008,
      "d": 1530.1501666666736,
      "v": 82
    },
    {
      "midi": 66,
      "hit": false,
      "t": 77497.60550000008,
      "d": 1530.1501666666736,
      "v": 84
    },
    {
      "midi": 44,
      "hit": false,
      "t": 79117.76450000009,
      "d": 387.03798333332816,
      "v": 82
    },
    {
      "midi": 59,
      "hit": false,
      "t": 79117.76450000009,
      "d": 387.03798333332816,
      "v": 84
    },
    {
      "midi": 63,
      "hit": false,
      "t": 79117.76450000009,
      "d": 387.03798333332816,
      "v": 82
    },
    {
      "midi": 68,
      "hit": false,
      "t": 79117.76450000009,
      "d": 387.03798333332816,
      "v": 84
    },
    {
      "midi": 40,
      "hit": false,
      "t": 79657.81750000009,
      "d": 1440.141333333333,
      "v": 82
    },
    {
      "midi": 56,
      "hit": false,
      "t": 79657.81750000009,
      "d": 1440.141333333333,
      "v": 84
    },
    {
      "midi": 59,
      "hit": false,
      "t": 79657.81750000009,
      "d": 1440.141333333333,
      "v": 82
    },
    {
      "midi": 63,
      "hit": false,
      "t": 79657.81750000009,
      "d": 1440.141333333333,
      "v": 82
    },
    {
      "midi": 44,
      "hit": false,
      "t": 81277.97650000009,
      "d": 450.04416666667385,
      "v": 82
    },
    {
      "midi": 59,
      "hit": false,
      "t": 81277.97650000009,
      "d": 450.04416666667385,
      "v": 82
    },
    {
      "midi": 63,
      "hit": false,
      "t": 81277.97650000009,
      "d": 450.04416666667385,
      "v": 82
    },
    {
      "midi": 68,
      "hit": false,
      "t": 81277.97650000009,
      "d": 450.04416666667385,
      "v": 82
    },
    {
      "midi": 42,
      "hit": false,
      "t": 81818.0295000001,
      "d": 1530.1501666666736,
      "v": 82
    },
    {
      "midi": 58,
      "hit": false,
      "t": 81818.0295000001,
      "d": 1530.1501666666736,
      "v": 82
    },
    {
      "midi": 63,
      "hit": false,
      "t": 81818.0295000001,
      "d": 1530.1501666666736,
      "v": 82
    },
    {
      "midi": 66,
      "hit": false,
      "t": 81818.0295000001,
      "d": 1530.1501666666736,
      "v": 84
    },
    {
      "midi": 44,
      "hit": false,
      "t": 83438.18850000012,
      "d": 387.03798333332816,
      "v": 82
    },
    {
      "midi": 59,
      "hit": false,
      "t": 83438.18850000012,
      "d": 387.03798333332816,
      "v": 84
    },
    {
      "midi": 63,
      "hit": false,
      "t": 83438.18850000012,
      "d": 387.03798333332816,
      "v": 82
    },
    {
      "midi": 68,
      "hit": false,
      "t": 83438.18850000012,
      "d": 387.03798333332816,
      "v": 84
    },
    {
      "midi": 40,
      "hit": false,
      "t": 83978.24150000012,
      "d": 1440.141333333333,
      "v": 82
    },
    {
      "midi": 56,
      "hit": false,
      "t": 83978.24150000012,
      "d": 1440.141333333333,
      "v": 84
    },
    {
      "midi": 59,
      "hit": false,
      "t": 83978.24150000012,
      "d": 1440.141333333333,
      "v": 82
    },
    {
      "midi": 63,
      "hit": false,
      "t": 83978.24150000012,
      "d": 1440.141333333333,
      "v": 82
    },
    {
      "midi": 44,
      "hit": false,
      "t": 85598.40050000012,
      "d": 450.04416666667385,
      "v": 82
    },
    {
      "midi": 59,
      "hit": false,
      "t": 85598.40050000012,
      "d": 450.04416666667385,
      "v": 82
    },
    {
      "midi": 63,
      "hit": false,
      "t": 85598.40050000012,
      "d": 450.04416666667385,
      "v": 82
    },
    {
      "midi": 68,
      "hit": false,
      "t": 85598.40050000012,
      "d": 450.04416666667385,
      "v": 82
    },
    {
      "midi": 42,
      "hit": false,
      "t": 86138.45350000013,
      "d": 1530.1501666666736,
      "v": 82
    },
    {
      "midi": 58,
      "hit": false,
      "t": 86138.45350000013,
      "d": 1530.1501666666736,
      "v": 82
    },
    {
      "midi": 63,
      "hit": false,
      "t": 86138.45350000013,
      "d": 1530.1501666666736,
      "v": 82
    },
    {
      "midi": 66,
      "hit": false,
      "t": 86138.45350000013,
      "d": 1530.1501666666736,
      "v": 84
    },
    {
      "midi": 44,
      "hit": false,
      "t": 87758.61250000015,
      "d": 387.03798333332816,
      "v": 82
    },
    {
      "midi": 59,
      "hit": false,
      "t": 87758.61250000015,
      "d": 387.03798333332816,
      "v": 84
    },
    {
      "midi": 63,
      "hit": false,
      "t": 87758.61250000015,
      "d": 387.03798333332816,
      "v": 82
    },
    {
      "midi": 68,
      "hit": false,
      "t": 87758.61250000015,
      "d": 387.03798333332816,
      "v": 84
    },
    {
      "midi": 40,
      "hit": false,
      "t": 88298.66550000015,
      "d": 1440.141333333333,
      "v": 82
    },
    {
      "midi": 56,
      "hit": false,
      "t": 88298.66550000015,
      "d": 1440.141333333333,
      "v": 84
    },
    {
      "midi": 59,
      "hit": false,
      "t": 88298.66550000015,
      "d": 1440.141333333333,
      "v": 82
    },
    {
      "midi": 63,
      "hit": false,
      "t": 88298.66550000015,
      "d": 1440.141333333333,
      "v": 82
    },
    {
      "midi": 44,
      "hit": false,
      "t": 89918.82450000015,
      "d": 450.04416666667385,
      "v": 82
    },
    {
      "midi": 59,
      "hit": false,
      "t": 89918.82450000015,
      "d": 450.04416666667385,
      "v": 82
    },
    {
      "midi": 63,
      "hit": false,
      "t": 89918.82450000015,
      "d": 450.04416666667385,
      "v": 82
    },
    {
      "midi": 68,
      "hit": false,
      "t": 89918.82450000015,
      "d": 450.04416666667385,
      "v": 82
    },
    {
      "midi": 42,
      "hit": false,
      "t": 90458.87750000016,
      "d": 1530.1501666666736,
      "v": 82
    },
    {
      "midi": 58,
      "hit": false,
      "t": 90458.87750000016,
      "d": 1530.1501666666736,
      "v": 82
    },
    {
      "midi": 63,
      "hit": false,
      "t": 90458.87750000016,
      "d": 1530.1501666666736,
      "v": 82
    },
    {
      "midi": 66,
      "hit": false,
      "t": 90458.87750000016,
      "d": 1530.1501666666736,
      "v": 84
    },
    {
      "midi": 44,
      "hit": false,
      "t": 92079.03650000018,
      "d": 387.03798333332816,
      "v": 82
    },
    {
      "midi": 59,
      "hit": false,
      "t": 92079.03650000018,
      "d": 387.03798333332816,
      "v": 84
    },
    {
      "midi": 63,
      "hit": false,
      "t": 92079.03650000018,
      "d": 387.03798333332816,
      "v": 82
    },
    {
      "midi": 68,
      "hit": false,
      "t": 92079.03650000018,
      "d": 387.03798333332816,
      "v": 84
    },
    {
      "midi": 40,
      "hit": false,
      "t": 92619.08950000018,
      "d": 1440.141333333333,
      "v": 82
    },
    {
      "midi": 56,
      "hit": false,
      "t": 92619.08950000018,
      "d": 1440.141333333333,
      "v": 84
    },
    {
      "midi": 59,
      "hit": false,
      "t": 92619.08950000018,
      "d": 1440.141333333333,
      "v": 82
    },
    {
      "midi": 63,
      "hit": false,
      "t": 92619.08950000018,
      "d": 1440.141333333333,
      "v": 82
    },
    {
      "midi": 44,
      "hit": false,
      "t": 94239.24850000018,
      "d": 450.04416666667385,
      "v": 82
    },
    {
      "midi": 59,
      "hit": false,
      "t": 94239.24850000018,
      "d": 450.04416666667385,
      "v": 82
    },
    {
      "midi": 63,
      "hit": false,
      "t": 94239.24850000018,
      "d": 450.04416666667385,
      "v": 82
    },
    {
      "midi": 68,
      "hit": false,
      "t": 94239.24850000018,
      "d": 450.04416666667385,
      "v": 82
    },
    {
      "midi": 42,
      "hit": false,
      "t": 94779.30150000019,
      "d": 1530.1501666666736,
      "v": 82
    },
    {
      "midi": 58,
      "hit": false,
      "t": 94779.30150000019,
      "d": 1530.1501666666736,
      "v": 82
    },
    {
      "midi": 63,
      "hit": false,
      "t": 94779.30150000019,
      "d": 1530.1501666666736,
      "v": 82
    },
    {
      "midi": 66,
      "hit": false,
      "t": 94779.30150000019,
      "d": 1530.1501666666736,
      "v": 84
    },
    {
      "midi": 44,
      "hit": false,
      "t": 96399.4605000002,
      "d": 387.03798333332816,
      "v": 82
    },
    {
      "midi": 59,
      "hit": false,
      "t": 96399.4605000002,
      "d": 387.03798333332816,
      "v": 84
    },
    {
      "midi": 63,
      "hit": false,
      "t": 96399.4605000002,
      "d": 387.03798333332816,
      "v": 82
    },
    {
      "midi": 68,
      "hit": false,
      "t": 96399.4605000002,
      "d": 387.03798333332816,
      "v": 84
    },
    {
      "midi": 40,
      "hit": false,
      "t": 96939.5135000002,
      "d": 1440.141333333333,
      "v": 82
    },
    {
      "midi": 56,
      "hit": false,
      "t": 96939.5135000002,
      "d": 1440.141333333333,
      "v": 84
    },
    {
      "midi": 59,
      "hit": false,
      "t": 96939.5135000002,
      "d": 1440.141333333333,
      "v": 82
    },
    {
      "midi": 63,
      "hit": false,
      "t": 96939.5135000002,
      "d": 1440.141333333333,
      "v": 82
    },
    {
      "midi": 44,
      "hit": false,
      "t": 98559.6725000002,
      "d": 450.04416666667385,
      "v": 82
    },
    {
      "midi": 59,
      "hit": false,
      "t": 98559.6725000002,
      "d": 450.04416666667385,
      "v": 82
    },
    {
      "midi": 63,
      "hit": false,
      "t": 98559.6725000002,
      "d": 450.04416666667385,
      "v": 82
    },
    {
      "midi": 68,
      "hit": false,
      "t": 98559.6725000002,
      "d": 450.04416666667385,
      "v": 82
    },
    {
      "midi": 42,
      "hit": false,
      "t": 99099.72550000022,
      "d": 1530.1501666666736,
      "v": 82
    },
    {
      "midi": 58,
      "hit": false,
      "t": 99099.72550000022,
      "d": 1530.1501666666736,
      "v": 82
    },
    {
      "midi": 63,
      "hit": false,
      "t": 99099.72550000022,
      "d": 1530.1501666666736,
      "v": 82
    },
    {
      "midi": 66,
      "hit": false,
      "t": 99099.72550000022,
      "d": 1530.1501666666736,
      "v": 84
    },
    {
      "midi": 44,
      "hit": false,
      "t": 100719.88450000023,
      "d": 387.03798333332816,
      "v": 82
    },
    {
      "midi": 59,
      "hit": false,
      "t": 100719.88450000023,
      "d": 387.03798333332816,
      "v": 84
    },
    {
      "midi": 63,
      "hit": false,
      "t": 100719.88450000023,
      "d": 387.03798333332816,
      "v": 82
    },
    {
      "midi": 68,
      "hit": false,
      "t": 100719.88450000023,
      "d": 387.03798333332816,
      "v": 84
    },
    {
      "midi": 40,
      "hit": false,
      "t": 101259.93750000023,
      "d": 1440.141333333333,
      "v": 82
    },
    {
      "midi": 56,
      "hit": false,
      "t": 101259.93750000023,
      "d": 1440.141333333333,
      "v": 84
    },
    {
      "midi": 59,
      "hit": false,
      "t": 101259.93750000023,
      "d": 1440.141333333333,
      "v": 82
    },
    {
      "midi": 63,
      "hit": false,
      "t": 101259.93750000023,
      "d": 1440.141333333333,
      "v": 82
    },
    {
      "midi": 44,
      "hit": false,
      "t": 102880.09650000023,
      "d": 450.04416666667385,
      "v": 82
    },
    {
      "midi": 59,
      "hit": false,
      "t": 102880.09650000023,
      "d": 450.04416666667385,
      "v": 82
    },
    {
      "midi": 63,
      "hit": false,
      "t": 102880.09650000023,
      "d": 450.04416666667385,
      "v": 82
    },
    {
      "midi": 68,
      "hit": false,
      "t": 102880.09650000023,
      "d": 450.04416666667385,
      "v": 82
    },
    {
      "midi": 42,
      "hit": false,
      "t": 103420.14950000025,
      "d": 1530.1501666666736,
      "v": 82
    },
    {
      "midi": 58,
      "hit": false,
      "t": 103420.14950000025,
      "d": 1530.1501666666736,
      "v": 82
    },
    {
      "midi": 63,
      "hit": false,
      "t": 103420.14950000025,
      "d": 1530.1501666666736,
      "v": 82
    },
    {
      "midi": 66,
      "hit": false,
      "t": 103420.14950000025,
      "d": 1530.1501666666736,
      "v": 84
    },
    {
      "midi": 59,
      "hit": false,
      "t": 104500.25550000004,
      "d": 180.01766666666663,
      "v": 74
    },
    {
      "midi": 63,
      "hit": false,
      "t": 104500.25550000004,
      "d": 180.01766666666663,
      "v": 74
    },
    {
      "midi": 66,
      "hit": false,
      "t": 104500.25550000004,
      "d": 180.01766666666663,
      "v": 74
    },
    {
      "midi": 59,
      "hit": false,
      "t": 104770.28200000005,
      "d": 265.5260583333293,
      "v": 74
    },
    {
      "midi": 63,
      "hit": false,
      "t": 104770.28200000005,
      "d": 265.5260583333293,
      "v": 74
    },
    {
      "midi": 66,
      "hit": false,
      "t": 104770.28200000005,
      "d": 265.5260583333293,
      "v": 74
    },
    {
      "midi": 61,
      "hit": false,
      "t": 105040.30850000004,
      "d": 225.02208333332965,
      "v": 74
    },
    {
      "midi": 66,
      "hit": false,
      "t": 105040.30850000004,
      "d": 225.02208333332965,
      "v": 74
    },
    {
      "midi": 68,
      "hit": false,
      "t": 105040.30850000004,
      "d": 225.02208333332965,
      "v": 74
    },
    {
      "midi": 44,
      "hit": false,
      "t": 105040.30850000026,
      "d": 387.03798333332816,
      "v": 82
    },
    {
      "midi": 59,
      "hit": false,
      "t": 105040.30850000026,
      "d": 387.03798333332816,
      "v": 84
    },
    {
      "midi": 63,
      "hit": false,
      "t": 105040.30850000026,
      "d": 387.03798333332816,
      "v": 82
    },
    {
      "midi": 68,
      "hit": false,
      "t": 105040.30850000026,
      "d": 387.03798333332816,
      "v": 84
    },
    {
      "midi": 63,
      "hit": false,
      "t": 105310.33500000004,
      "d": 180.01766666666663,
      "v": 76
    },
    {
      "midi": 68,
      "hit": false,
      "t": 105310.33500000004,
      "d": 180.01766666666663,
      "v": 76
    },
    {
      "midi": 71,
      "hit": false,
      "t": 105310.33500000004,
      "d": 180.01766666666663,
      "v": 76
    },
    {
      "midi": 63,
      "hit": false,
      "t": 105580.36150000004,
      "d": 466.92082291666884,
      "v": 76
    },
    {
      "midi": 68,
      "hit": false,
      "t": 105580.36150000004,
      "d": 466.92082291666884,
      "v": 76
    },
    {
      "midi": 71,
      "hit": false,
      "t": 105580.36150000004,
      "d": 466.92082291666884,
      "v": 76
    },
    {
      "midi": 40,
      "hit": false,
      "t": 105580.36150000026,
      "d": 1440.141333333333,
      "v": 82
    },
    {
      "midi": 56,
      "hit": false,
      "t": 105580.36150000026,
      "d": 1440.141333333333,
      "v": 84
    },
    {
      "midi": 59,
      "hit": false,
      "t": 105580.36150000026,
      "d": 1440.141333333333,
      "v": 82
    },
    {
      "midi": 63,
      "hit": false,
      "t": 105580.36150000026,
      "d": 1440.141333333333,
      "v": 82
    },
    {
      "midi": 63,
      "hit": false,
      "t": 106120.41450000004,
      "d": 265.5260583333293,
      "v": 76
    },
    {
      "midi": 68,
      "hit": false,
      "t": 106120.41450000004,
      "d": 265.5260583333293,
      "v": 76
    },
    {
      "midi": 71,
      "hit": false,
      "t": 106120.41450000004,
      "d": 265.5260583333293,
      "v": 76
    },
    {
      "midi": 44,
      "hit": false,
      "t": 107200.52050000026,
      "d": 450.04416666667385,
      "v": 82
    },
    {
      "midi": 59,
      "hit": false,
      "t": 107200.52050000026,
      "d": 450.04416666667385,
      "v": 82
    },
    {
      "midi": 63,
      "hit": false,
      "t": 107200.52050000026,
      "d": 450.04416666667385,
      "v": 82
    },
    {
      "midi": 68,
      "hit": false,
      "t": 107200.52050000026,
      "d": 450.04416666667385,
      "v": 82
    },
    {
      "midi": 42,
      "hit": false,
      "t": 107740.57350000028,
      "d": 1530.1501666666736,
      "v": 82
    },
    {
      "midi": 58,
      "hit": false,
      "t": 107740.57350000028,
      "d": 1530.1501666666736,
      "v": 82
    },
    {
      "midi": 63,
      "hit": false,
      "t": 107740.57350000028,
      "d": 1530.1501666666736,
      "v": 82
    },
    {
      "midi": 66,
      "hit": false,
      "t": 107740.57350000028,
      "d": 1530.1501666666736,
      "v": 84
    },
    {
      "midi": 59,
      "hit": false,
      "t": 108820.67950000004,
      "d": 180.01766666666663,
      "v": 74
    },
    {
      "midi": 63,
      "hit": false,
      "t": 108820.67950000004,
      "d": 180.01766666666663,
      "v": 74
    },
    {
      "midi": 66,
      "hit": false,
      "t": 108820.67950000004,
      "d": 180.01766666666663,
      "v": 74
    },
    {
      "midi": 59,
      "hit": false,
      "t": 109090.70600000005,
      "d": 265.5260583333293,
      "v": 74
    },
    {
      "midi": 63,
      "hit": false,
      "t": 109090.70600000005,
      "d": 265.5260583333293,
      "v": 74
    },
    {
      "midi": 66,
      "hit": false,
      "t": 109090.70600000005,
      "d": 265.5260583333293,
      "v": 74
    },
    {
      "midi": 61,
      "hit": false,
      "t": 109360.73250000004,
      "d": 225.02208333332965,
      "v": 74
    },
    {
      "midi": 66,
      "hit": false,
      "t": 109360.73250000004,
      "d": 225.02208333332965,
      "v": 74
    },
    {
      "midi": 68,
      "hit": false,
      "t": 109360.73250000004,
      "d": 225.02208333332965,
      "v": 74
    },
    {
      "midi": 44,
      "hit": false,
      "t": 109360.73250000029,
      "d": 387.03798333332816,
      "v": 82
    },
    {
      "midi": 59,
      "hit": false,
      "t": 109360.73250000029,
      "d": 387.03798333332816,
      "v": 84
    },
    {
      "midi": 63,
      "hit": false,
      "t": 109360.73250000029,
      "d": 387.03798333332816,
      "v": 82
    },
    {
      "midi": 68,
      "hit": false,
      "t": 109360.73250000029,
      "d": 387.03798333332816,
      "v": 84
    },
    {
      "midi": 63,
      "hit": false,
      "t": 109630.75900000003,
      "d": 180.01766666666663,
      "v": 76
    },
    {
      "midi": 68,
      "hit": false,
      "t": 109630.75900000003,
      "d": 180.01766666666663,
      "v": 76
    },
    {
      "midi": 71,
      "hit": false,
      "t": 109630.75900000003,
      "d": 180.01766666666663,
      "v": 76
    },
    {
      "midi": 63,
      "hit": false,
      "t": 109900.78550000004,
      "d": 466.92082291666884,
      "v": 76
    },
    {
      "midi": 68,
      "hit": false,
      "t": 109900.78550000004,
      "d": 466.92082291666884,
      "v": 76
    },
    {
      "midi": 71,
      "hit": false,
      "t": 109900.78550000004,
      "d": 466.92082291666884,
      "v": 76
    },
    {
      "midi": 40,
      "hit": false,
      "t": 109900.78550000029,
      "d": 1440.141333333333,
      "v": 82
    },
    {
      "midi": 56,
      "hit": false,
      "t": 109900.78550000029,
      "d": 1440.141333333333,
      "v": 84
    },
    {
      "midi": 59,
      "hit": false,
      "t": 109900.78550000029,
      "d": 1440.141333333333,
      "v": 82
    },
    {
      "midi": 63,
      "hit": false,
      "t": 109900.78550000029,
      "d": 1440.141333333333,
      "v": 82
    },
    {
      "midi": 63,
      "hit": false,
      "t": 110440.83850000004,
      "d": 265.5260583333293,
      "v": 76
    },
    {
      "midi": 68,
      "hit": false,
      "t": 110440.83850000004,
      "d": 265.5260583333293,
      "v": 76
    },
    {
      "midi": 71,
      "hit": false,
      "t": 110440.83850000004,
      "d": 265.5260583333293,
      "v": 76
    },
    {
      "midi": 44,
      "hit": false,
      "t": 111520.94450000029,
      "d": 450.04416666667385,
      "v": 82
    },
    {
      "midi": 59,
      "hit": false,
      "t": 111520.94450000029,
      "d": 450.04416666667385,
      "v": 82
    },
    {
      "midi": 63,
      "hit": false,
      "t": 111520.94450000029,
      "d": 450.04416666667385,
      "v": 82
    },
    {
      "midi": 68,
      "hit": false,
      "t": 111520.94450000029,
      "d": 450.04416666667385,
      "v": 82
    },
    {
      "midi": 42,
      "hit": false,
      "t": 112060.9975000003,
      "d": 1530.1501666666736,
      "v": 82
    },
    {
      "midi": 58,
      "hit": false,
      "t": 112060.9975000003,
      "d": 1530.1501666666736,
      "v": 82
    },
    {
      "midi": 63,
      "hit": false,
      "t": 112060.9975000003,
      "d": 1530.1501666666736,
      "v": 82
    },
    {
      "midi": 66,
      "hit": false,
      "t": 112060.9975000003,
      "d": 1530.1501666666736,
      "v": 84
    },
    {
      "midi": 59,
      "hit": false,
      "t": 113141.10350000004,
      "d": 180.01766666666663,
      "v": 74
    },
    {
      "midi": 63,
      "hit": false,
      "t": 113141.10350000004,
      "d": 180.01766666666663,
      "v": 74
    },
    {
      "midi": 66,
      "hit": false,
      "t": 113141.10350000004,
      "d": 180.01766666666663,
      "v": 74
    },
    {
      "midi": 59,
      "hit": false,
      "t": 113411.13000000005,
      "d": 265.5260583333293,
      "v": 74
    },
    {
      "midi": 63,
      "hit": false,
      "t": 113411.13000000005,
      "d": 265.5260583333293,
      "v": 74
    },
    {
      "midi": 66,
      "hit": false,
      "t": 113411.13000000005,
      "d": 265.5260583333293,
      "v": 74
    },
    {
      "midi": 61,
      "hit": false,
      "t": 113681.15650000004,
      "d": 225.02208333332965,
      "v": 74
    },
    {
      "midi": 66,
      "hit": false,
      "t": 113681.15650000004,
      "d": 225.02208333332965,
      "v": 74
    },
    {
      "midi": 68,
      "hit": false,
      "t": 113681.15650000004,
      "d": 225.02208333332965,
      "v": 74
    },
    {
      "midi": 44,
      "hit": false,
      "t": 113681.15650000032,
      "d": 387.03798333332816,
      "v": 82
    },
    {
      "midi": 59,
      "hit": false,
      "t": 113681.15650000032,
      "d": 387.03798333332816,
      "v": 84
    },
    {
      "midi": 63,
      "hit": false,
      "t": 113681.15650000032,
      "d": 387.03798333332816,
      "v": 82
    },
    {
      "midi": 68,
      "hit": false,
      "t": 113681.15650000032,
      "d": 387.03798333332816,
      "v": 84
    },
    {
      "midi": 63,
      "hit": false,
      "t": 113951.18300000003,
      "d": 180.01766666666663,
      "v": 76
    },
    {
      "midi": 68,
      "hit": false,
      "t": 113951.18300000003,
      "d": 180.01766666666663,
      "v": 76
    },
    {
      "midi": 71,
      "hit": false,
      "t": 113951.18300000003,
      "d": 180.01766666666663,
      "v": 76
    },
    {
      "midi": 63,
      "hit": false,
      "t": 114221.20950000004,
      "d": 466.92082291666884,
      "v": 76
    },
    {
      "midi": 68,
      "hit": false,
      "t": 114221.20950000004,
      "d": 466.92082291666884,
      "v": 76
    },
    {
      "midi": 71,
      "hit": false,
      "t": 114221.20950000004,
      "d": 466.92082291666884,
      "v": 76
    },
    {
      "midi": 40,
      "hit": false,
      "t": 114221.20950000032,
      "d": 1440.141333333333,
      "v": 82
    },
    {
      "midi": 56,
      "hit": false,
      "t": 114221.20950000032,
      "d": 1440.141333333333,
      "v": 84
    },
    {
      "midi": 59,
      "hit": false,
      "t": 114221.20950000032,
      "d": 1440.141333333333,
      "v": 82
    },
    {
      "midi": 63,
      "hit": false,
      "t": 114221.20950000032,
      "d": 1440.141333333333,
      "v": 82
    },
    {
      "midi": 63,
      "hit": false,
      "t": 114761.26250000004,
      "d": 265.5260583333293,
      "v": 76
    },
    {
      "midi": 68,
      "hit": false,
      "t": 114761.26250000004,
      "d": 265.5260583333293,
      "v": 76
    },
    {
      "midi": 71,
      "hit": false,
      "t": 114761.26250000004,
      "d": 265.5260583333293,
      "v": 76
    },
    {
      "midi": 44,
      "hit": false,
      "t": 115841.36850000032,
      "d": 450.04416666667385,
      "v": 82
    },
    {
      "midi": 59,
      "hit": false,
      "t": 115841.36850000032,
      "d": 450.04416666667385,
      "v": 82
    },
    {
      "midi": 63,
      "hit": false,
      "t": 115841.36850000032,
      "d": 450.04416666667385,
      "v": 82
    },
    {
      "midi": 68,
      "hit": false,
      "t": 115841.36850000032,
      "d": 450.04416666667385,
      "v": 82
    },
    {
      "midi": 42,
      "hit": false,
      "t": 116381.42150000033,
      "d": 1329.8805125000072,
      "v": 82
    },
    {
      "midi": 58,
      "hit": false,
      "t": 116381.42150000033,
      "d": 1329.8805125000072,
      "v": 82
    },
    {
      "midi": 63,
      "hit": false,
      "t": 116381.42150000033,
      "d": 1329.8805125000072,
      "v": 82
    },
    {
      "midi": 66,
      "hit": false,
      "t": 116381.42150000033,
      "d": 1329.8805125000072,
      "v": 84
    },
    {
      "midi": 61,
      "hit": false,
      "t": 117731.55400000003,
      "d": 225.02208333332965,
      "v": 70
    },
    {
      "midi": 66,
      "hit": false,
      "t": 117731.55400000003,
      "d": 225.02208333332965,
      "v": 70
    },
    {
      "midi": 70,
      "hit": false,
      "t": 117731.55400000003,
      "d": 225.02208333332965,
      "v": 70
    },
    {
      "midi": 42,
      "hit": false,
      "t": 117731.55400000034,
      "d": 135.0132500000036,
      "v": 73
    },
    {
      "midi": 58,
      "hit": false,
      "t": 117731.55400000034,
      "d": 135.0132500000036,
      "v": 64
    },
    {
      "midi": 63,
      "hit": false,
      "t": 117731.55400000034,
      "d": 135.0132500000036,
      "v": 60
    },
    {
      "midi": 66,
      "hit": false,
      "t": 117731.55400000034,
      "d": 135.0132500000036,
      "v": 64
    },
    {
      "midi": 61,
      "hit": false,
      "t": 118001.58050000003,
      "d": 157.51545833333512,
      "v": 74
    },
    {
      "midi": 66,
      "hit": false,
      "t": 118001.58050000003,
      "d": 157.51545833333512,
      "v": 74
    },
    {
      "midi": 70,
      "hit": false,
      "t": 118001.58050000003,
      "d": 157.51545833333512,
      "v": 74
    },
    {
      "midi": 42,
      "hit": false,
      "t": 118001.58050000035,
      "d": 135.0132500000036,
      "v": 82
    },
    {
      "midi": 58,
      "hit": false,
      "t": 118001.58050000035,
      "d": 135.0132500000036,
      "v": 82
    },
    {
      "midi": 63,
      "hit": false,
      "t": 118001.58050000035,
      "d": 135.0132500000036,
      "v": 73
    },
    {
      "midi": 66,
      "hit": false,
      "t": 118001.58050000035,
      "d": 135.0132500000036,
      "v": 73
    },
    {
      "midi": 61,
      "hit": false,
      "t": 118271.60700000003,
      "d": 225.02208333332965,
      "v": 74
    },
    {
      "midi": 66,
      "hit": false,
      "t": 118271.60700000003,
      "d": 225.02208333332965,
      "v": 74
    },
    {
      "midi": 70,
      "hit": false,
      "t": 118271.60700000003,
      "d": 225.02208333332965,
      "v": 74
    },
    {
      "midi": 42,
      "hit": false,
      "t": 118271.60700000035,
      "d": 135.0132500000036,
      "v": 84
    },
    {
      "midi": 58,
      "hit": false,
      "t": 118271.60700000035,
      "d": 135.0132500000036,
      "v": 73
    },
    {
      "midi": 63,
      "hit": false,
      "t": 118271.60700000035,
      "d": 135.0132500000036,
      "v": 64
    },
    {
      "midi": 66,
      "hit": false,
      "t": 118271.60700000035,
      "d": 135.0132500000036,
      "v": 82
    },
    {
      "midi": 59,
      "hit": false,
      "t": 118541.63350000003,
      "d": 3492.3427333333384,
      "v": 76
    },
    {
      "midi": 63,
      "hit": false,
      "t": 118541.63350000003,
      "d": 3492.3427333333384,
      "v": 76
    },
    {
      "midi": 68,
      "hit": false,
      "t": 118541.63350000003,
      "d": 3492.3427333333384,
      "v": 76
    },
    {
      "midi": 40,
      "hit": false,
      "t": 118541.63350000036,
      "d": 1980.194333333333,
      "v": 82
    },
    {
      "midi": 56,
      "hit": false,
      "t": 118541.63350000036,
      "d": 1980.194333333333,
      "v": 84
    },
    {
      "midi": 59,
      "hit": false,
      "t": 118541.63350000036,
      "d": 1980.194333333333,
      "v": 82
    },
    {
      "midi": 63,
      "hit": false,
      "t": 118541.63350000036,
      "d": 1980.194333333333,
      "v": 82
    },
    {
      "midi": 40,
      "hit": false,
      "t": 123132.08400000037,
      "d": 1329.8805125000072,
      "v": 82
    },
    {
      "midi": 56,
      "hit": false,
      "t": 123132.08400000037,
      "d": 1329.8805125000072,
      "v": 84
    },
    {
      "midi": 59,
      "hit": false,
      "t": 123132.08400000037,
      "d": 1329.8805125000072,
      "v": 82
    },
    {
      "midi": 63,
      "hit": false,
      "t": 123132.08400000037,
      "d": 1329.8805125000072,
      "v": 82
    },
    {
      "midi": 44,
      "hit": false,
      "t": 124482.21650000037,
      "d": 450.04416666667385,
      "v": 82
    },
    {
      "midi": 59,
      "hit": false,
      "t": 124482.21650000037,
      "d": 450.04416666667385,
      "v": 82
    },
    {
      "midi": 63,
      "hit": false,
      "t": 124482.21650000037,
      "d": 450.04416666667385,
      "v": 82
    },
    {
      "midi": 68,
      "hit": false,
      "t": 124482.21650000037,
      "d": 450.04416666667385,
      "v": 82
    },
    {
      "midi": 42,
      "hit": false,
      "t": 125022.26950000039,
      "d": 1530.1501666666736,
      "v": 82
    },
    {
      "midi": 58,
      "hit": false,
      "t": 125022.26950000039,
      "d": 1530.1501666666736,
      "v": 82
    },
    {
      "midi": 63,
      "hit": false,
      "t": 125022.26950000039,
      "d": 1530.1501666666736,
      "v": 82
    },
    {
      "midi": 66,
      "hit": false,
      "t": 125022.26950000039,
      "d": 1530.1501666666736,
      "v": 84
    },
    {
      "midi": 44,
      "hit": false,
      "t": 126642.4285000004,
      "d": 387.03798333332816,
      "v": 82
    },
    {
      "midi": 59,
      "hit": false,
      "t": 126642.4285000004,
      "d": 387.03798333332816,
      "v": 84
    },
    {
      "midi": 63,
      "hit": false,
      "t": 126642.4285000004,
      "d": 387.03798333332816,
      "v": 82
    },
    {
      "midi": 68,
      "hit": false,
      "t": 126642.4285000004,
      "d": 387.03798333332816,
      "v": 84
    },
    {
      "midi": 40,
      "hit": false,
      "t": 127182.4815000004,
      "d": 1440.141333333333,
      "v": 82
    },
    {
      "midi": 56,
      "hit": false,
      "t": 127182.4815000004,
      "d": 1440.141333333333,
      "v": 84
    },
    {
      "midi": 59,
      "hit": false,
      "t": 127182.4815000004,
      "d": 1440.141333333333,
      "v": 82
    },
    {
      "midi": 63,
      "hit": false,
      "t": 127182.4815000004,
      "d": 1440.141333333333,
      "v": 82
    },
    {
      "midi": 44,
      "hit": false,
      "t": 128802.6405000004,
      "d": 450.04416666667385,
      "v": 82
    },
    {
      "midi": 59,
      "hit": false,
      "t": 128802.6405000004,
      "d": 450.04416666667385,
      "v": 82
    },
    {
      "midi": 63,
      "hit": false,
      "t": 128802.6405000004,
      "d": 450.04416666667385,
      "v": 82
    },
    {
      "midi": 68,
      "hit": false,
      "t": 128802.6405000004,
      "d": 450.04416666667385,
      "v": 82
    },
    {
      "midi": 42,
      "hit": false,
      "t": 129342.69350000042,
      "d": 1530.1501666666736,
      "v": 82
    },
    {
      "midi": 58,
      "hit": false,
      "t": 129342.69350000042,
      "d": 1530.1501666666736,
      "v": 82
    },
    {
      "midi": 63,
      "hit": false,
      "t": 129342.69350000042,
      "d": 1530.1501666666736,
      "v": 82
    },
    {
      "midi": 66,
      "hit": false,
      "t": 129342.69350000042,
      "d": 1530.1501666666736,
      "v": 84
    },
    {
      "midi": 44,
      "hit": false,
      "t": 130962.85250000043,
      "d": 387.03798333332816,
      "v": 82
    },
    {
      "midi": 59,
      "hit": false,
      "t": 130962.85250000043,
      "d": 387.03798333332816,
      "v": 84
    },
    {
      "midi": 63,
      "hit": false,
      "t": 130962.85250000043,
      "d": 387.03798333332816,
      "v": 82
    },
    {
      "midi": 68,
      "hit": false,
      "t": 130962.85250000043,
      "d": 387.03798333332816,
      "v": 84
    },
    {
      "midi": 40,
      "hit": false,
      "t": 131502.90550000043,
      "d": 1440.141333333333,
      "v": 82
    },
    {
      "midi": 56,
      "hit": false,
      "t": 131502.90550000043,
      "d": 1440.141333333333,
      "v": 84
    },
    {
      "midi": 59,
      "hit": false,
      "t": 131502.90550000043,
      "d": 1440.141333333333,
      "v": 82
    },
    {
      "midi": 63,
      "hit": false,
      "t": 131502.90550000043,
      "d": 1440.141333333333,
      "v": 82
    },
    {
      "midi": 44,
      "hit": false,
      "t": 133123.06450000044,
      "d": 450.0441666666593,
      "v": 82
    },
    {
      "midi": 59,
      "hit": false,
      "t": 133123.06450000044,
      "d": 450.0441666666593,
      "v": 82
    },
    {
      "midi": 63,
      "hit": false,
      "t": 133123.06450000044,
      "d": 450.0441666666593,
      "v": 82
    },
    {
      "midi": 68,
      "hit": false,
      "t": 133123.06450000044,
      "d": 450.0441666666593,
      "v": 82
    },
    {
      "midi": 42,
      "hit": false,
      "t": 133663.11750000043,
      "d": 1530.150166666659,
      "v": 82
    },
    {
      "midi": 58,
      "hit": false,
      "t": 133663.11750000043,
      "d": 1530.150166666659,
      "v": 82
    },
    {
      "midi": 63,
      "hit": false,
      "t": 133663.11750000043,
      "d": 1530.150166666659,
      "v": 82
    },
    {
      "midi": 66,
      "hit": false,
      "t": 133663.11750000043,
      "d": 1530.150166666659,
      "v": 84
    },
    {
      "midi": 44,
      "hit": false,
      "t": 135283.27650000041,
      "d": 387.0379833333427,
      "v": 82
    },
    {
      "midi": 59,
      "hit": false,
      "t": 135283.27650000041,
      "d": 387.0379833333427,
      "v": 84
    },
    {
      "midi": 63,
      "hit": false,
      "t": 135283.27650000041,
      "d": 387.0379833333427,
      "v": 82
    },
    {
      "midi": 68,
      "hit": false,
      "t": 135283.27650000041,
      "d": 387.0379833333427,
      "v": 84
    },
    {
      "midi": 40,
      "hit": false,
      "t": 135823.32950000043,
      "d": 1440.141333333333,
      "v": 82
    },
    {
      "midi": 56,
      "hit": false,
      "t": 135823.32950000043,
      "d": 1440.141333333333,
      "v": 84
    },
    {
      "midi": 59,
      "hit": false,
      "t": 135823.32950000043,
      "d": 1440.141333333333,
      "v": 82
    },
    {
      "midi": 63,
      "hit": false,
      "t": 135823.32950000043,
      "d": 1440.141333333333,
      "v": 82
    },
    {
      "midi": 44,
      "hit": false,
      "t": 137443.48850000044,
      "d": 450.0441666666593,
      "v": 82
    },
    {
      "midi": 59,
      "hit": false,
      "t": 137443.48850000044,
      "d": 450.0441666666593,
      "v": 82
    },
    {
      "midi": 63,
      "hit": false,
      "t": 137443.48850000044,
      "d": 450.0441666666593,
      "v": 82
    },
    {
      "midi": 68,
      "hit": false,
      "t": 137443.48850000044,
      "d": 450.0441666666593,
      "v": 82
    },
    {
      "midi": 42,
      "hit": false,
      "t": 137983.54150000043,
      "d": 1530.150166666659,
      "v": 82
    },
    {
      "midi": 58,
      "hit": false,
      "t": 137983.54150000043,
      "d": 1530.150166666659,
      "v": 82
    },
    {
      "midi": 63,
      "hit": false,
      "t": 137983.54150000043,
      "d": 1530.150166666659,
      "v": 82
    },
    {
      "midi": 66,
      "hit": false,
      "t": 137983.54150000043,
      "d": 1530.150166666659,
      "v": 84
    },
    {
      "midi": 59,
      "hit": false,
      "t": 139063.64750000002,
      "d": 180.01766666668118,
      "v": 74
    },
    {
      "midi": 63,
      "hit": false,
      "t": 139063.64750000002,
      "d": 180.01766666668118,
      "v": 74
    },
    {
      "midi": 66,
      "hit": false,
      "t": 139063.64750000002,
      "d": 180.01766666668118,
      "v": 74
    },
    {
      "midi": 59,
      "hit": false,
      "t": 139333.67400000003,
      "d": 265.5260583333438,
      "v": 74
    },
    {
      "midi": 63,
      "hit": false,
      "t": 139333.67400000003,
      "d": 265.5260583333438,
      "v": 74
    },
    {
      "midi": 66,
      "hit": false,
      "t": 139333.67400000003,
      "d": 265.5260583333438,
      "v": 74
    },
    {
      "midi": 61,
      "hit": false,
      "t": 139603.70050000004,
      "d": 225.0220833333442,
      "v": 74
    },
    {
      "midi": 66,
      "hit": false,
      "t": 139603.70050000004,
      "d": 225.0220833333442,
      "v": 74
    },
    {
      "midi": 68,
      "hit": false,
      "t": 139603.70050000004,
      "d": 225.0220833333442,
      "v": 74
    },
    {
      "midi": 44,
      "hit": false,
      "t": 139603.7005000004,
      "d": 387.0379833333427,
      "v": 82
    },
    {
      "midi": 59,
      "hit": false,
      "t": 139603.7005000004,
      "d": 387.0379833333427,
      "v": 84
    },
    {
      "midi": 63,
      "hit": false,
      "t": 139603.7005000004,
      "d": 387.0379833333427,
      "v": 82
    },
    {
      "midi": 68,
      "hit": false,
      "t": 139603.7005000004,
      "d": 387.0379833333427,
      "v": 84
    },
    {
      "midi": 63,
      "hit": false,
      "t": 139873.72700000004,
      "d": 180.01766666668118,
      "v": 76
    },
    {
      "midi": 68,
      "hit": false,
      "t": 139873.72700000004,
      "d": 180.01766666668118,
      "v": 76
    },
    {
      "midi": 71,
      "hit": false,
      "t": 139873.72700000004,
      "d": 180.01766666668118,
      "v": 76
    },
    {
      "midi": 63,
      "hit": false,
      "t": 140143.75350000005,
      "d": 466.92082291666884,
      "v": 76
    },
    {
      "midi": 68,
      "hit": false,
      "t": 140143.75350000005,
      "d": 466.92082291666884,
      "v": 76
    },
    {
      "midi": 71,
      "hit": false,
      "t": 140143.75350000005,
      "d": 466.92082291666884,
      "v": 76
    },
    {
      "midi": 40,
      "hit": false,
      "t": 140143.75350000043,
      "d": 1440.141333333333,
      "v": 82
    },
    {
      "midi": 56,
      "hit": false,
      "t": 140143.75350000043,
      "d": 1440.141333333333,
      "v": 84
    },
    {
      "midi": 59,
      "hit": false,
      "t": 140143.75350000043,
      "d": 1440.141333333333,
      "v": 82
    },
    {
      "midi": 63,
      "hit": false,
      "t": 140143.75350000043,
      "d": 1440.141333333333,
      "v": 82
    },
    {
      "midi": 63,
      "hit": false,
      "t": 140683.80650000006,
      "d": 265.5260583333438,
      "v": 76
    },
    {
      "midi": 68,
      "hit": false,
      "t": 140683.80650000006,
      "d": 265.5260583333438,
      "v": 76
    },
    {
      "midi": 71,
      "hit": false,
      "t": 140683.80650000006,
      "d": 265.5260583333438,
      "v": 76
    },
    {
      "midi": 44,
      "hit": false,
      "t": 141763.91250000044,
      "d": 450.0441666666593,
      "v": 82
    },
    {
      "midi": 59,
      "hit": false,
      "t": 141763.91250000044,
      "d": 450.0441666666593,
      "v": 82
    },
    {
      "midi": 63,
      "hit": false,
      "t": 141763.91250000044,
      "d": 450.0441666666593,
      "v": 82
    },
    {
      "midi": 68,
      "hit": false,
      "t": 141763.91250000044,
      "d": 450.0441666666593,
      "v": 82
    },
    {
      "midi": 42,
      "hit": false,
      "t": 142303.96550000043,
      "d": 1530.150166666659,
      "v": 82
    },
    {
      "midi": 58,
      "hit": false,
      "t": 142303.96550000043,
      "d": 1530.150166666659,
      "v": 82
    },
    {
      "midi": 63,
      "hit": false,
      "t": 142303.96550000043,
      "d": 1530.150166666659,
      "v": 82
    },
    {
      "midi": 66,
      "hit": false,
      "t": 142303.96550000043,
      "d": 1530.150166666659,
      "v": 84
    },
    {
      "midi": 59,
      "hit": false,
      "t": 143384.07150000008,
      "d": 180.01766666668118,
      "v": 74
    },
    {
      "midi": 63,
      "hit": false,
      "t": 143384.07150000008,
      "d": 180.01766666668118,
      "v": 74
    },
    {
      "midi": 66,
      "hit": false,
      "t": 143384.07150000008,
      "d": 180.01766666668118,
      "v": 74
    },
    {
      "midi": 59,
      "hit": false,
      "t": 143654.0980000001,
      "d": 265.5260583333438,
      "v": 74
    },
    {
      "midi": 63,
      "hit": false,
      "t": 143654.0980000001,
      "d": 265.5260583333438,
      "v": 74
    },
    {
      "midi": 66,
      "hit": false,
      "t": 143654.0980000001,
      "d": 265.5260583333438,
      "v": 74
    },
    {
      "midi": 61,
      "hit": false,
      "t": 143924.1245000001,
      "d": 225.0220833333442,
      "v": 74
    },
    {
      "midi": 66,
      "hit": false,
      "t": 143924.1245000001,
      "d": 225.0220833333442,
      "v": 74
    },
    {
      "midi": 68,
      "hit": false,
      "t": 143924.1245000001,
      "d": 225.0220833333442,
      "v": 74
    },
    {
      "midi": 44,
      "hit": false,
      "t": 143924.1245000004,
      "d": 387.0379833333427,
      "v": 82
    },
    {
      "midi": 59,
      "hit": false,
      "t": 143924.1245000004,
      "d": 387.0379833333427,
      "v": 84
    },
    {
      "midi": 63,
      "hit": false,
      "t": 143924.1245000004,
      "d": 387.0379833333427,
      "v": 82
    },
    {
      "midi": 68,
      "hit": false,
      "t": 143924.1245000004,
      "d": 387.0379833333427,
      "v": 84
    },
    {
      "midi": 63,
      "hit": false,
      "t": 144194.1510000001,
      "d": 180.01766666668118,
      "v": 76
    },
    {
      "midi": 68,
      "hit": false,
      "t": 144194.1510000001,
      "d": 180.01766666668118,
      "v": 76
    },
    {
      "midi": 71,
      "hit": false,
      "t": 144194.1510000001,
      "d": 180.01766666668118,
      "v": 76
    },
    {
      "midi": 63,
      "hit": false,
      "t": 144464.1775000001,
      "d": 466.92082291666884,
      "v": 76
    },
    {
      "midi": 68,
      "hit": false,
      "t": 144464.1775000001,
      "d": 466.92082291666884,
      "v": 76
    },
    {
      "midi": 71,
      "hit": false,
      "t": 144464.1775000001,
      "d": 466.92082291666884,
      "v": 76
    },
    {
      "midi": 40,
      "hit": false,
      "t": 144464.17750000043,
      "d": 1440.141333333333,
      "v": 82
    },
    {
      "midi": 56,
      "hit": false,
      "t": 144464.17750000043,
      "d": 1440.141333333333,
      "v": 84
    },
    {
      "midi": 59,
      "hit": false,
      "t": 144464.17750000043,
      "d": 1440.141333333333,
      "v": 82
    },
    {
      "midi": 63,
      "hit": false,
      "t": 144464.17750000043,
      "d": 1440.141333333333,
      "v": 82
    },
    {
      "midi": 63,
      "hit": false,
      "t": 145004.23050000012,
      "d": 265.5260583333438,
      "v": 76
    },
    {
      "midi": 68,
      "hit": false,
      "t": 145004.23050000012,
      "d": 265.5260583333438,
      "v": 76
    },
    {
      "midi": 71,
      "hit": false,
      "t": 145004.23050000012,
      "d": 265.5260583333438,
      "v": 76
    },
    {
      "midi": 44,
      "hit": false,
      "t": 146084.33650000044,
      "d": 450.0441666666593,
      "v": 82
    },
    {
      "midi": 59,
      "hit": false,
      "t": 146084.33650000044,
      "d": 450.0441666666593,
      "v": 82
    },
    {
      "midi": 63,
      "hit": false,
      "t": 146084.33650000044,
      "d": 450.0441666666593,
      "v": 82
    },
    {
      "midi": 68,
      "hit": false,
      "t": 146084.33650000044,
      "d": 450.0441666666593,
      "v": 82
    },
    {
      "midi": 42,
      "hit": false,
      "t": 146624.38950000043,
      "d": 1530.150166666659,
      "v": 82
    },
    {
      "midi": 58,
      "hit": false,
      "t": 146624.38950000043,
      "d": 1530.150166666659,
      "v": 82
    },
    {
      "midi": 63,
      "hit": false,
      "t": 146624.38950000043,
      "d": 1530.150166666659,
      "v": 82
    },
    {
      "midi": 66,
      "hit": false,
      "t": 146624.38950000043,
      "d": 1530.150166666659,
      "v": 84
    },
    {
      "midi": 59,
      "hit": false,
      "t": 147704.49550000014,
      "d": 180.01766666668118,
      "v": 74
    },
    {
      "midi": 63,
      "hit": false,
      "t": 147704.49550000014,
      "d": 180.01766666668118,
      "v": 74
    },
    {
      "midi": 66,
      "hit": false,
      "t": 147704.49550000014,
      "d": 180.01766666668118,
      "v": 74
    },
    {
      "midi": 59,
      "hit": false,
      "t": 147974.52200000014,
      "d": 265.5260583333438,
      "v": 74
    },
    {
      "midi": 63,
      "hit": false,
      "t": 147974.52200000014,
      "d": 265.5260583333438,
      "v": 74
    },
    {
      "midi": 66,
      "hit": false,
      "t": 147974.52200000014,
      "d": 265.5260583333438,
      "v": 74
    },
    {
      "midi": 61,
      "hit": false,
      "t": 148244.54850000015,
      "d": 225.0220833333442,
      "v": 74
    },
    {
      "midi": 66,
      "hit": false,
      "t": 148244.54850000015,
      "d": 225.0220833333442,
      "v": 74
    },
    {
      "midi": 68,
      "hit": false,
      "t": 148244.54850000015,
      "d": 225.0220833333442,
      "v": 74
    },
    {
      "midi": 44,
      "hit": false,
      "t": 148244.5485000004,
      "d": 387.0379833333427,
      "v": 82
    },
    {
      "midi": 59,
      "hit": false,
      "t": 148244.5485000004,
      "d": 387.0379833333427,
      "v": 84
    },
    {
      "midi": 63,
      "hit": false,
      "t": 148244.5485000004,
      "d": 387.0379833333427,
      "v": 82
    },
    {
      "midi": 68,
      "hit": false,
      "t": 148244.5485000004,
      "d": 387.0379833333427,
      "v": 84
    },
    {
      "midi": 63,
      "hit": false,
      "t": 148514.57500000016,
      "d": 180.01766666668118,
      "v": 76
    },
    {
      "midi": 68,
      "hit": false,
      "t": 148514.57500000016,
      "d": 180.01766666668118,
      "v": 76
    },
    {
      "midi": 71,
      "hit": false,
      "t": 148514.57500000016,
      "d": 180.01766666668118,
      "v": 76
    },
    {
      "midi": 63,
      "hit": false,
      "t": 148784.60150000016,
      "d": 466.92082291666884,
      "v": 76
    },
    {
      "midi": 68,
      "hit": false,
      "t": 148784.60150000016,
      "d": 466.92082291666884,
      "v": 76
    },
    {
      "midi": 71,
      "hit": false,
      "t": 148784.60150000016,
      "d": 466.92082291666884,
      "v": 76
    },
    {
      "midi": 40,
      "hit": false,
      "t": 148784.60150000043,
      "d": 1440.141333333333,
      "v": 82
    },
    {
      "midi": 56,
      "hit": false,
      "t": 148784.60150000043,
      "d": 1440.141333333333,
      "v": 84
    },
    {
      "midi": 59,
      "hit": false,
      "t": 148784.60150000043,
      "d": 1440.141333333333,
      "v": 82
    },
    {
      "midi": 63,
      "hit": false,
      "t": 148784.60150000043,
      "d": 1440.141333333333,
      "v": 82
    },
    {
      "midi": 63,
      "hit": false,
      "t": 149324.65450000018,
      "d": 265.5260583333438,
      "v": 76
    },
    {
      "midi": 68,
      "hit": false,
      "t": 149324.65450000018,
      "d": 265.5260583333438,
      "v": 76
    },
    {
      "midi": 71,
      "hit": false,
      "t": 149324.65450000018,
      "d": 265.5260583333438,
      "v": 76
    },
    {
      "midi": 44,
      "hit": false,
      "t": 150404.76050000044,
      "d": 450.0441666666593,
      "v": 82
    },
    {
      "midi": 59,
      "hit": false,
      "t": 150404.76050000044,
      "d": 450.0441666666593,
      "v": 82
    },
    {
      "midi": 63,
      "hit": false,
      "t": 150404.76050000044,
      "d": 450.0441666666593,
      "v": 82
    },
    {
      "midi": 68,
      "hit": false,
      "t": 150404.76050000044,
      "d": 450.0441666666593,
      "v": 82
    },
    {
      "midi": 42,
      "hit": false,
      "t": 150944.81350000043,
      "d": 1329.8805125000072,
      "v": 82
    },
    {
      "midi": 58,
      "hit": false,
      "t": 150944.81350000043,
      "d": 1329.8805125000072,
      "v": 82
    },
    {
      "midi": 63,
      "hit": false,
      "t": 150944.81350000043,
      "d": 1329.8805125000072,
      "v": 82
    },
    {
      "midi": 66,
      "hit": false,
      "t": 150944.81350000043,
      "d": 1329.8805125000072,
      "v": 84
    },
    {
      "midi": 61,
      "hit": false,
      "t": 152294.9460000002,
      "d": 225.0220833333442,
      "v": 70
    },
    {
      "midi": 66,
      "hit": false,
      "t": 152294.9460000002,
      "d": 225.0220833333442,
      "v": 70
    },
    {
      "midi": 70,
      "hit": false,
      "t": 152294.9460000002,
      "d": 225.0220833333442,
      "v": 70
    },
    {
      "midi": 42,
      "hit": false,
      "t": 152294.94600000043,
      "d": 135.01324999998906,
      "v": 73
    },
    {
      "midi": 58,
      "hit": false,
      "t": 152294.94600000043,
      "d": 135.01324999998906,
      "v": 64
    },
    {
      "midi": 63,
      "hit": false,
      "t": 152294.94600000043,
      "d": 135.01324999998906,
      "v": 60
    },
    {
      "midi": 66,
      "hit": false,
      "t": 152294.94600000043,
      "d": 135.01324999998906,
      "v": 64
    },
    {
      "midi": 61,
      "hit": false,
      "t": 152564.9725000002,
      "d": 157.51545833333512,
      "v": 74
    },
    {
      "midi": 66,
      "hit": false,
      "t": 152564.9725000002,
      "d": 157.51545833333512,
      "v": 74
    },
    {
      "midi": 70,
      "hit": false,
      "t": 152564.9725000002,
      "d": 157.51545833333512,
      "v": 74
    },
    {
      "midi": 42,
      "hit": false,
      "t": 152564.9725000004,
      "d": 135.01324999998906,
      "v": 82
    },
    {
      "midi": 58,
      "hit": false,
      "t": 152564.9725000004,
      "d": 135.01324999998906,
      "v": 82
    },
    {
      "midi": 63,
      "hit": false,
      "t": 152564.9725000004,
      "d": 135.01324999998906,
      "v": 73
    },
    {
      "midi": 66,
      "hit": false,
      "t": 152564.9725000004,
      "d": 135.01324999998906,
      "v": 73
    },
    {
      "midi": 61,
      "hit": false,
      "t": 152834.9990000002,
      "d": 225.0220833333442,
      "v": 74
    },
    {
      "midi": 66,
      "hit": false,
      "t": 152834.9990000002,
      "d": 225.0220833333442,
      "v": 74
    },
    {
      "midi": 70,
      "hit": false,
      "t": 152834.9990000002,
      "d": 225.0220833333442,
      "v": 74
    },
    {
      "midi": 42,
      "hit": false,
      "t": 152834.9990000004,
      "d": 135.01324999998906,
      "v": 84
    },
    {
      "midi": 58,
      "hit": false,
      "t": 152834.9990000004,
      "d": 135.01324999998906,
      "v": 73
    },
    {
      "midi": 63,
      "hit": false,
      "t": 152834.9990000004,
      "d": 135.01324999998906,
      "v": 64
    },
    {
      "midi": 66,
      "hit": false,
      "t": 152834.9990000004,
      "d": 135.01324999998906,
      "v": 82
    },
    {
      "midi": 59,
      "hit": false,
      "t": 153105.02550000022,
      "d": 2425.7380583333434,
      "v": 76
    },
    {
      "midi": 63,
      "hit": false,
      "t": 153105.02550000022,
      "d": 2425.7380583333434,
      "v": 76
    },
    {
      "midi": 68,
      "hit": false,
      "t": 153105.02550000022,
      "d": 2425.7380583333434,
      "v": 76
    },
    {
      "midi": 40,
      "hit": false,
      "t": 153105.02550000037,
      "d": 1980.1943333333475,
      "v": 82
    },
    {
      "midi": 56,
      "hit": false,
      "t": 153105.02550000037,
      "d": 1980.1943333333475,
      "v": 84
    },
    {
      "midi": 59,
      "hit": false,
      "t": 153105.02550000037,
      "d": 1980.1943333333475,
      "v": 82
    },
    {
      "midi": 63,
      "hit": false,
      "t": 153105.02550000037,
      "d": 1980.1943333333475,
      "v": 82
    },
    {
      "midi": 59,
      "hit": false,
      "t": 156345.34350000022,
      "d": 180.01766666668118,
      "v": 74
    },
    {
      "midi": 63,
      "hit": false,
      "t": 156345.34350000022,
      "d": 180.01766666668118,
      "v": 74
    },
    {
      "midi": 66,
      "hit": false,
      "t": 156345.34350000022,
      "d": 180.01766666668118,
      "v": 74
    },
    {
      "midi": 59,
      "hit": false,
      "t": 156615.37000000023,
      "d": 265.5260583333438,
      "v": 74
    },
    {
      "midi": 63,
      "hit": false,
      "t": 156615.37000000023,
      "d": 265.5260583333438,
      "v": 74
    },
    {
      "midi": 66,
      "hit": false,
      "t": 156615.37000000023,
      "d": 265.5260583333438,
      "v": 74
    },
    {
      "midi": 61,
      "hit": false,
      "t": 156885.39650000024,
      "d": 225.0220833333442,
      "v": 74
    },
    {
      "midi": 66,
      "hit": false,
      "t": 156885.39650000024,
      "d": 225.0220833333442,
      "v": 74
    },
    {
      "midi": 68,
      "hit": false,
      "t": 156885.39650000024,
      "d": 225.0220833333442,
      "v": 74
    },
    {
      "midi": 63,
      "hit": false,
      "t": 157155.42300000024,
      "d": 180.01766666668118,
      "v": 76
    },
    {
      "midi": 68,
      "hit": false,
      "t": 157155.42300000024,
      "d": 180.01766666668118,
      "v": 76
    },
    {
      "midi": 71,
      "hit": false,
      "t": 157155.42300000024,
      "d": 180.01766666668118,
      "v": 76
    },
    {
      "midi": 63,
      "hit": false,
      "t": 157425.44950000025,
      "d": 466.92082291666884,
      "v": 76
    },
    {
      "midi": 68,
      "hit": false,
      "t": 157425.44950000025,
      "d": 466.92082291666884,
      "v": 76
    },
    {
      "midi": 71,
      "hit": false,
      "t": 157425.44950000025,
      "d": 466.92082291666884,
      "v": 76
    },
    {
      "midi": 40,
      "hit": false,
      "t": 157425.4495000004,
      "d": 1440.141333333333,
      "v": 82
    },
    {
      "midi": 56,
      "hit": false,
      "t": 157425.4495000004,
      "d": 1440.141333333333,
      "v": 84
    },
    {
      "midi": 59,
      "hit": false,
      "t": 157425.4495000004,
      "d": 1440.141333333333,
      "v": 82
    },
    {
      "midi": 63,
      "hit": false,
      "t": 157425.4495000004,
      "d": 1440.141333333333,
      "v": 82
    },
    {
      "midi": 63,
      "hit": false,
      "t": 157965.50250000026,
      "d": 265.5260583333438,
      "v": 76
    },
    {
      "midi": 68,
      "hit": false,
      "t": 157965.50250000026,
      "d": 265.5260583333438,
      "v": 76
    },
    {
      "midi": 71,
      "hit": false,
      "t": 157965.50250000026,
      "d": 265.5260583333438,
      "v": 76
    },
    {
      "midi": 44,
      "hit": false,
      "t": 159045.6085000004,
      "d": 450.0441666666593,
      "v": 82
    },
    {
      "midi": 59,
      "hit": false,
      "t": 159045.6085000004,
      "d": 450.0441666666593,
      "v": 82
    },
    {
      "midi": 63,
      "hit": false,
      "t": 159045.6085000004,
      "d": 450.0441666666593,
      "v": 82
    },
    {
      "midi": 68,
      "hit": false,
      "t": 159045.6085000004,
      "d": 450.0441666666593,
      "v": 82
    },
    {
      "midi": 42,
      "hit": false,
      "t": 159585.6615000004,
      "d": 1530.150166666659,
      "v": 82
    },
    {
      "midi": 58,
      "hit": false,
      "t": 159585.6615000004,
      "d": 1530.150166666659,
      "v": 82
    },
    {
      "midi": 63,
      "hit": false,
      "t": 159585.6615000004,
      "d": 1530.150166666659,
      "v": 82
    },
    {
      "midi": 66,
      "hit": false,
      "t": 159585.6615000004,
      "d": 1530.150166666659,
      "v": 84
    },
    {
      "midi": 59,
      "hit": false,
      "t": 160665.76750000028,
      "d": 180.01766666668118,
      "v": 74
    },
    {
      "midi": 63,
      "hit": false,
      "t": 160665.76750000028,
      "d": 180.01766666668118,
      "v": 74
    },
    {
      "midi": 66,
      "hit": false,
      "t": 160665.76750000028,
      "d": 180.01766666668118,
      "v": 74
    },
    {
      "midi": 59,
      "hit": false,
      "t": 160935.7940000003,
      "d": 265.5260583333438,
      "v": 74
    },
    {
      "midi": 63,
      "hit": false,
      "t": 160935.7940000003,
      "d": 265.5260583333438,
      "v": 74
    },
    {
      "midi": 66,
      "hit": false,
      "t": 160935.7940000003,
      "d": 265.5260583333438,
      "v": 74
    },
    {
      "midi": 61,
      "hit": false,
      "t": 161205.8205000003,
      "d": 225.0220833333442,
      "v": 74
    },
    {
      "midi": 66,
      "hit": false,
      "t": 161205.8205000003,
      "d": 225.0220833333442,
      "v": 74
    },
    {
      "midi": 68,
      "hit": false,
      "t": 161205.8205000003,
      "d": 225.0220833333442,
      "v": 74
    },
    {
      "midi": 44,
      "hit": false,
      "t": 161205.82050000038,
      "d": 387.0379833333427,
      "v": 82
    },
    {
      "midi": 59,
      "hit": false,
      "t": 161205.82050000038,
      "d": 387.0379833333427,
      "v": 84
    },
    {
      "midi": 63,
      "hit": false,
      "t": 161205.82050000038,
      "d": 387.0379833333427,
      "v": 82
    },
    {
      "midi": 68,
      "hit": false,
      "t": 161205.82050000038,
      "d": 387.0379833333427,
      "v": 84
    },
    {
      "midi": 63,
      "hit": false,
      "t": 161475.8470000003,
      "d": 180.01766666668118,
      "v": 76
    },
    {
      "midi": 68,
      "hit": false,
      "t": 161475.8470000003,
      "d": 180.01766666668118,
      "v": 76
    },
    {
      "midi": 71,
      "hit": false,
      "t": 161475.8470000003,
      "d": 180.01766666668118,
      "v": 76
    },
    {
      "midi": 63,
      "hit": false,
      "t": 161745.8735000003,
      "d": 466.92082291666884,
      "v": 76
    },
    {
      "midi": 68,
      "hit": false,
      "t": 161745.8735000003,
      "d": 466.92082291666884,
      "v": 76
    },
    {
      "midi": 71,
      "hit": false,
      "t": 161745.8735000003,
      "d": 466.92082291666884,
      "v": 76
    },
    {
      "midi": 40,
      "hit": false,
      "t": 161745.8735000004,
      "d": 1440.141333333333,
      "v": 82
    },
    {
      "midi": 56,
      "hit": false,
      "t": 161745.8735000004,
      "d": 1440.141333333333,
      "v": 84
    },
    {
      "midi": 59,
      "hit": false,
      "t": 161745.8735000004,
      "d": 1440.141333333333,
      "v": 82
    },
    {
      "midi": 63,
      "hit": false,
      "t": 161745.8735000004,
      "d": 1440.141333333333,
      "v": 82
    },
    {
      "midi": 63,
      "hit": false,
      "t": 162285.92650000032,
      "d": 265.5260583333438,
      "v": 76
    },
    {
      "midi": 68,
      "hit": false,
      "t": 162285.92650000032,
      "d": 265.5260583333438,
      "v": 76
    },
    {
      "midi": 71,
      "hit": false,
      "t": 162285.92650000032,
      "d": 265.5260583333438,
      "v": 76
    },
    {
      "midi": 44,
      "hit": false,
      "t": 163366.0325000004,
      "d": 450.0441666666593,
      "v": 82
    },
    {
      "midi": 59,
      "hit": false,
      "t": 163366.0325000004,
      "d": 450.0441666666593,
      "v": 82
    },
    {
      "midi": 63,
      "hit": false,
      "t": 163366.0325000004,
      "d": 450.0441666666593,
      "v": 82
    },
    {
      "midi": 68,
      "hit": false,
      "t": 163366.0325000004,
      "d": 450.0441666666593,
      "v": 82
    },
    {
      "midi": 42,
      "hit": false,
      "t": 163906.0855000004,
      "d": 1530.150166666659,
      "v": 82
    },
    {
      "midi": 58,
      "hit": false,
      "t": 163906.0855000004,
      "d": 1530.150166666659,
      "v": 82
    },
    {
      "midi": 63,
      "hit": false,
      "t": 163906.0855000004,
      "d": 1530.150166666659,
      "v": 82
    },
    {
      "midi": 66,
      "hit": false,
      "t": 163906.0855000004,
      "d": 1530.150166666659,
      "v": 84
    },
    {
      "midi": 59,
      "hit": false,
      "t": 164986.19150000034,
      "d": 180.01766666668118,
      "v": 74
    },
    {
      "midi": 63,
      "hit": false,
      "t": 164986.19150000034,
      "d": 180.01766666668118,
      "v": 74
    },
    {
      "midi": 66,
      "hit": false,
      "t": 164986.19150000034,
      "d": 180.01766666668118,
      "v": 74
    },
    {
      "midi": 59,
      "hit": false,
      "t": 165256.21800000034,
      "d": 265.5260583333438,
      "v": 74
    },
    {
      "midi": 63,
      "hit": false,
      "t": 165256.21800000034,
      "d": 265.5260583333438,
      "v": 74
    },
    {
      "midi": 66,
      "hit": false,
      "t": 165256.21800000034,
      "d": 265.5260583333438,
      "v": 74
    },
    {
      "midi": 61,
      "hit": false,
      "t": 165526.24450000035,
      "d": 225.0220833333442,
      "v": 74
    },
    {
      "midi": 66,
      "hit": false,
      "t": 165526.24450000035,
      "d": 225.0220833333442,
      "v": 74
    },
    {
      "midi": 68,
      "hit": false,
      "t": 165526.24450000035,
      "d": 225.0220833333442,
      "v": 74
    },
    {
      "midi": 44,
      "hit": false,
      "t": 165526.24450000038,
      "d": 387.0379833333427,
      "v": 82
    },
    {
      "midi": 59,
      "hit": false,
      "t": 165526.24450000038,
      "d": 387.0379833333427,
      "v": 84
    },
    {
      "midi": 63,
      "hit": false,
      "t": 165526.24450000038,
      "d": 387.0379833333427,
      "v": 82
    },
    {
      "midi": 68,
      "hit": false,
      "t": 165526.24450000038,
      "d": 387.0379833333427,
      "v": 84
    },
    {
      "midi": 63,
      "hit": false,
      "t": 165796.27100000036,
      "d": 180.01766666668118,
      "v": 76
    },
    {
      "midi": 68,
      "hit": false,
      "t": 165796.27100000036,
      "d": 180.01766666668118,
      "v": 76
    },
    {
      "midi": 71,
      "hit": false,
      "t": 165796.27100000036,
      "d": 180.01766666668118,
      "v": 76
    },
    {
      "midi": 63,
      "hit": false,
      "t": 166066.29750000036,
      "d": 466.92082291666884,
      "v": 76
    },
    {
      "midi": 68,
      "hit": false,
      "t": 166066.29750000036,
      "d": 466.92082291666884,
      "v": 76
    },
    {
      "midi": 71,
      "hit": false,
      "t": 166066.29750000036,
      "d": 466.92082291666884,
      "v": 76
    },
    {
      "midi": 40,
      "hit": false,
      "t": 166066.2975000004,
      "d": 1440.141333333333,
      "v": 82
    },
    {
      "midi": 56,
      "hit": false,
      "t": 166066.2975000004,
      "d": 1440.141333333333,
      "v": 84
    },
    {
      "midi": 59,
      "hit": false,
      "t": 166066.2975000004,
      "d": 1440.141333333333,
      "v": 82
    },
    {
      "midi": 63,
      "hit": false,
      "t": 166066.2975000004,
      "d": 1440.141333333333,
      "v": 82
    },
    {
      "midi": 63,
      "hit": false,
      "t": 166606.35050000038,
      "d": 265.5260583333438,
      "v": 76
    },
    {
      "midi": 68,
      "hit": false,
      "t": 166606.35050000038,
      "d": 265.5260583333438,
      "v": 76
    },
    {
      "midi": 71,
      "hit": false,
      "t": 166606.35050000038,
      "d": 265.5260583333438,
      "v": 76
    },
    {
      "midi": 44,
      "hit": false,
      "t": 167686.4565000004,
      "d": 450.0441666666593,
      "v": 82
    },
    {
      "midi": 59,
      "hit": false,
      "t": 167686.4565000004,
      "d": 450.0441666666593,
      "v": 82
    },
    {
      "midi": 63,
      "hit": false,
      "t": 167686.4565000004,
      "d": 450.0441666666593,
      "v": 82
    },
    {
      "midi": 68,
      "hit": false,
      "t": 167686.4565000004,
      "d": 450.0441666666593,
      "v": 82
    },
    {
      "midi": 42,
      "hit": false,
      "t": 168226.5095000004,
      "d": 1329.8805125000072,
      "v": 82
    },
    {
      "midi": 58,
      "hit": false,
      "t": 168226.5095000004,
      "d": 1329.8805125000072,
      "v": 82
    },
    {
      "midi": 63,
      "hit": false,
      "t": 168226.5095000004,
      "d": 1329.8805125000072,
      "v": 82
    },
    {
      "midi": 66,
      "hit": false,
      "t": 168226.5095000004,
      "d": 1329.8805125000072,
      "v": 84
    },
    {
      "midi": 42,
      "hit": false,
      "t": 169576.6420000004,
      "d": 135.01324999998906,
      "v": 73
    },
    {
      "midi": 58,
      "hit": false,
      "t": 169576.6420000004,
      "d": 135.01324999998906,
      "v": 64
    },
    {
      "midi": 63,
      "hit": false,
      "t": 169576.6420000004,
      "d": 135.01324999998906,
      "v": 60
    },
    {
      "midi": 66,
      "hit": false,
      "t": 169576.6420000004,
      "d": 135.01324999998906,
      "v": 64
    },
    {
      "midi": 61,
      "hit": false,
      "t": 169576.6420000004,
      "d": 225.0220833333442,
      "v": 70
    },
    {
      "midi": 66,
      "hit": false,
      "t": 169576.6420000004,
      "d": 225.0220833333442,
      "v": 70
    },
    {
      "midi": 70,
      "hit": false,
      "t": 169576.6420000004,
      "d": 225.0220833333442,
      "v": 70
    },
    {
      "midi": 42,
      "hit": false,
      "t": 169846.66850000038,
      "d": 135.01324999998906,
      "v": 82
    },
    {
      "midi": 58,
      "hit": false,
      "t": 169846.66850000038,
      "d": 135.01324999998906,
      "v": 82
    },
    {
      "midi": 63,
      "hit": false,
      "t": 169846.66850000038,
      "d": 135.01324999998906,
      "v": 73
    },
    {
      "midi": 66,
      "hit": false,
      "t": 169846.66850000038,
      "d": 135.01324999998906,
      "v": 73
    },
    {
      "midi": 61,
      "hit": false,
      "t": 169846.6685000004,
      "d": 157.51545833333512,
      "v": 74
    },
    {
      "midi": 66,
      "hit": false,
      "t": 169846.6685000004,
      "d": 157.51545833333512,
      "v": 74
    },
    {
      "midi": 70,
      "hit": false,
      "t": 169846.6685000004,
      "d": 157.51545833333512,
      "v": 74
    },
    {
      "midi": 42,
      "hit": false,
      "t": 170116.69500000036,
      "d": 135.01324999998906,
      "v": 84
    },
    {
      "midi": 58,
      "hit": false,
      "t": 170116.69500000036,
      "d": 135.01324999998906,
      "v": 73
    },
    {
      "midi": 63,
      "hit": false,
      "t": 170116.69500000036,
      "d": 135.01324999998906,
      "v": 64
    },
    {
      "midi": 66,
      "hit": false,
      "t": 170116.69500000036,
      "d": 135.01324999998906,
      "v": 82
    },
    {
      "midi": 61,
      "hit": false,
      "t": 170116.6950000004,
      "d": 225.0220833333442,
      "v": 74
    },
    {
      "midi": 66,
      "hit": false,
      "t": 170116.6950000004,
      "d": 225.0220833333442,
      "v": 74
    },
    {
      "midi": 70,
      "hit": false,
      "t": 170116.6950000004,
      "d": 225.0220833333442,
      "v": 74
    },
    {
      "midi": 40,
      "hit": false,
      "t": 170386.72150000033,
      "d": 1980.1943333333475,
      "v": 82
    },
    {
      "midi": 56,
      "hit": false,
      "t": 170386.72150000033,
      "d": 1980.1943333333475,
      "v": 84
    },
    {
      "midi": 59,
      "hit": false,
      "t": 170386.72150000033,
      "d": 1980.1943333333475,
      "v": 82
    },
    {
      "midi": 63,
      "hit": false,
      "t": 170386.72150000033,
      "d": 1980.1943333333475,
      "v": 82
    },
    {
      "midi": 59,
      "hit": false,
      "t": 170386.72150000042,
      "d": 2425.7380583333434,
      "v": 76
    },
    {
      "midi": 63,
      "hit": false,
      "t": 170386.72150000042,
      "d": 2425.7380583333434,
      "v": 76
    },
    {
      "midi": 68,
      "hit": false,
      "t": 170386.72150000042,
      "d": 2425.7380583333434,
      "v": 76
    },
    {
      "midi": 59,
      "hit": false,
      "t": 173627.03950000042,
      "d": 180.01766666668118,
      "v": 74
    },
    {
      "midi": 63,
      "hit": false,
      "t": 173627.03950000042,
      "d": 180.01766666668118,
      "v": 74
    },
    {
      "midi": 66,
      "hit": false,
      "t": 173627.03950000042,
      "d": 180.01766666668118,
      "v": 74
    },
    {
      "midi": 59,
      "hit": false,
      "t": 173897.06600000043,
      "d": 265.5260583333438,
      "v": 74
    },
    {
      "midi": 63,
      "hit": false,
      "t": 173897.06600000043,
      "d": 265.5260583333438,
      "v": 74
    },
    {
      "midi": 66,
      "hit": false,
      "t": 173897.06600000043,
      "d": 265.5260583333438,
      "v": 74
    },
    {
      "midi": 61,
      "hit": false,
      "t": 174167.09250000044,
      "d": 225.0220833333442,
      "v": 74
    },
    {
      "midi": 66,
      "hit": false,
      "t": 174167.09250000044,
      "d": 225.0220833333442,
      "v": 74
    },
    {
      "midi": 68,
      "hit": false,
      "t": 174167.09250000044,
      "d": 225.0220833333442,
      "v": 74
    },
    {
      "midi": 63,
      "hit": false,
      "t": 174437.11900000044,
      "d": 180.01766666668118,
      "v": 76
    },
    {
      "midi": 68,
      "hit": false,
      "t": 174437.11900000044,
      "d": 180.01766666668118,
      "v": 76
    },
    {
      "midi": 71,
      "hit": false,
      "t": 174437.11900000044,
      "d": 180.01766666668118,
      "v": 76
    },
    {
      "midi": 40,
      "hit": false,
      "t": 174707.14550000036,
      "d": 1440.141333333333,
      "v": 82
    },
    {
      "midi": 56,
      "hit": false,
      "t": 174707.14550000036,
      "d": 1440.141333333333,
      "v": 84
    },
    {
      "midi": 59,
      "hit": false,
      "t": 174707.14550000036,
      "d": 1440.141333333333,
      "v": 82
    },
    {
      "midi": 63,
      "hit": false,
      "t": 174707.14550000036,
      "d": 1440.141333333333,
      "v": 82
    },
    {
      "midi": 63,
      "hit": false,
      "t": 174707.14550000045,
      "d": 466.92082291666884,
      "v": 76
    },
    {
      "midi": 68,
      "hit": false,
      "t": 174707.14550000045,
      "d": 466.92082291666884,
      "v": 76
    },
    {
      "midi": 71,
      "hit": false,
      "t": 174707.14550000045,
      "d": 466.92082291666884,
      "v": 76
    },
    {
      "midi": 63,
      "hit": false,
      "t": 175247.19850000046,
      "d": 265.5260583333438,
      "v": 76
    },
    {
      "midi": 68,
      "hit": false,
      "t": 175247.19850000046,
      "d": 265.5260583333438,
      "v": 76
    },
    {
      "midi": 71,
      "hit": false,
      "t": 175247.19850000046,
      "d": 265.5260583333438,
      "v": 76
    },
    {
      "midi": 44,
      "hit": false,
      "t": 176327.30450000038,
      "d": 450.0441666666593,
      "v": 82
    },
    {
      "midi": 59,
      "hit": false,
      "t": 176327.30450000038,
      "d": 450.0441666666593,
      "v": 82
    },
    {
      "midi": 63,
      "hit": false,
      "t": 176327.30450000038,
      "d": 450.0441666666593,
      "v": 82
    },
    {
      "midi": 68,
      "hit": false,
      "t": 176327.30450000038,
      "d": 450.0441666666593,
      "v": 82
    },
    {
      "midi": 42,
      "hit": false,
      "t": 176867.35750000036,
      "d": 1530.150166666659,
      "v": 82
    },
    {
      "midi": 58,
      "hit": false,
      "t": 176867.35750000036,
      "d": 1530.150166666659,
      "v": 82
    },
    {
      "midi": 63,
      "hit": false,
      "t": 176867.35750000036,
      "d": 1530.150166666659,
      "v": 82
    },
    {
      "midi": 66,
      "hit": false,
      "t": 176867.35750000036,
      "d": 1530.150166666659,
      "v": 84
    },
    {
      "midi": 59,
      "hit": false,
      "t": 177947.46350000048,
      "d": 180.01766666668118,
      "v": 74
    },
    {
      "midi": 63,
      "hit": false,
      "t": 177947.46350000048,
      "d": 180.01766666668118,
      "v": 74
    },
    {
      "midi": 66,
      "hit": false,
      "t": 177947.46350000048,
      "d": 180.01766666668118,
      "v": 74
    },
    {
      "midi": 59,
      "hit": false,
      "t": 178217.4900000005,
      "d": 265.5260583333438,
      "v": 74
    },
    {
      "midi": 63,
      "hit": false,
      "t": 178217.4900000005,
      "d": 265.5260583333438,
      "v": 74
    },
    {
      "midi": 66,
      "hit": false,
      "t": 178217.4900000005,
      "d": 265.5260583333438,
      "v": 74
    },
    {
      "midi": 44,
      "hit": false,
      "t": 178487.51650000035,
      "d": 387.0379833333427,
      "v": 82
    },
    {
      "midi": 59,
      "hit": false,
      "t": 178487.51650000035,
      "d": 387.0379833333427,
      "v": 84
    },
    {
      "midi": 63,
      "hit": false,
      "t": 178487.51650000035,
      "d": 387.0379833333427,
      "v": 82
    },
    {
      "midi": 68,
      "hit": false,
      "t": 178487.51650000035,
      "d": 387.0379833333427,
      "v": 84
    },
    {
      "midi": 61,
      "hit": false,
      "t": 178487.5165000005,
      "d": 225.0220833333442,
      "v": 74
    },
    {
      "midi": 66,
      "hit": false,
      "t": 178487.5165000005,
      "d": 225.0220833333442,
      "v": 74
    },
    {
      "midi": 68,
      "hit": false,
      "t": 178487.5165000005,
      "d": 225.0220833333442,
      "v": 74
    },
    {
      "midi": 63,
      "hit": false,
      "t": 178757.5430000005,
      "d": 180.01766666668118,
      "v": 76
    },
    {
      "midi": 68,
      "hit": false,
      "t": 178757.5430000005,
      "d": 180.01766666668118,
      "v": 76
    },
    {
      "midi": 71,
      "hit": false,
      "t": 178757.5430000005,
      "d": 180.01766666668118,
      "v": 76
    },
    {
      "midi": 40,
      "hit": false,
      "t": 179027.56950000036,
      "d": 1440.141333333333,
      "v": 82
    },
    {
      "midi": 56,
      "hit": false,
      "t": 179027.56950000036,
      "d": 1440.141333333333,
      "v": 84
    },
    {
      "midi": 59,
      "hit": false,
      "t": 179027.56950000036,
      "d": 1440.141333333333,
      "v": 82
    },
    {
      "midi": 63,
      "hit": false,
      "t": 179027.56950000036,
      "d": 1440.141333333333,
      "v": 82
    },
    {
      "midi": 63,
      "hit": false,
      "t": 179027.5695000005,
      "d": 466.92082291666884,
      "v": 76
    },
    {
      "midi": 68,
      "hit": false,
      "t": 179027.5695000005,
      "d": 466.92082291666884,
      "v": 76
    },
    {
      "midi": 71,
      "hit": false,
      "t": 179027.5695000005,
      "d": 466.92082291666884,
      "v": 76
    },
    {
      "midi": 63,
      "hit": false,
      "t": 179567.62250000052,
      "d": 265.5260583333438,
      "v": 76
    },
    {
      "midi": 68,
      "hit": false,
      "t": 179567.62250000052,
      "d": 265.5260583333438,
      "v": 76
    },
    {
      "midi": 71,
      "hit": false,
      "t": 179567.62250000052,
      "d": 265.5260583333438,
      "v": 76
    },
    {
      "midi": 44,
      "hit": false,
      "t": 180647.72850000038,
      "d": 450.0441666666593,
      "v": 82
    },
    {
      "midi": 59,
      "hit": false,
      "t": 180647.72850000038,
      "d": 450.0441666666593,
      "v": 82
    },
    {
      "midi": 63,
      "hit": false,
      "t": 180647.72850000038,
      "d": 450.0441666666593,
      "v": 82
    },
    {
      "midi": 68,
      "hit": false,
      "t": 180647.72850000038,
      "d": 450.0441666666593,
      "v": 82
    },
    {
      "midi": 42,
      "hit": false,
      "t": 181187.78150000036,
      "d": 1530.150166666659,
      "v": 82
    },
    {
      "midi": 58,
      "hit": false,
      "t": 181187.78150000036,
      "d": 1530.150166666659,
      "v": 82
    },
    {
      "midi": 63,
      "hit": false,
      "t": 181187.78150000036,
      "d": 1530.150166666659,
      "v": 82
    },
    {
      "midi": 66,
      "hit": false,
      "t": 181187.78150000036,
      "d": 1530.150166666659,
      "v": 84
    },
    {
      "midi": 59,
      "hit": false,
      "t": 182267.88750000054,
      "d": 180.01766666668118,
      "v": 74
    },
    {
      "midi": 63,
      "hit": false,
      "t": 182267.88750000054,
      "d": 180.01766666668118,
      "v": 74
    },
    {
      "midi": 66,
      "hit": false,
      "t": 182267.88750000054,
      "d": 180.01766666668118,
      "v": 74
    },
    {
      "midi": 59,
      "hit": false,
      "t": 182537.91400000054,
      "d": 265.5260583333438,
      "v": 74
    },
    {
      "midi": 63,
      "hit": false,
      "t": 182537.91400000054,
      "d": 265.5260583333438,
      "v": 74
    },
    {
      "midi": 66,
      "hit": false,
      "t": 182537.91400000054,
      "d": 265.5260583333438,
      "v": 74
    },
    {
      "midi": 44,
      "hit": false,
      "t": 182807.94050000035,
      "d": 387.0379833333427,
      "v": 82
    },
    {
      "midi": 59,
      "hit": false,
      "t": 182807.94050000035,
      "d": 387.0379833333427,
      "v": 84
    },
    {
      "midi": 63,
      "hit": false,
      "t": 182807.94050000035,
      "d": 387.0379833333427,
      "v": 82
    },
    {
      "midi": 68,
      "hit": false,
      "t": 182807.94050000035,
      "d": 387.0379833333427,
      "v": 84
    },
    {
      "midi": 61,
      "hit": false,
      "t": 182807.94050000055,
      "d": 225.0220833333442,
      "v": 74
    },
    {
      "midi": 66,
      "hit": false,
      "t": 182807.94050000055,
      "d": 225.0220833333442,
      "v": 74
    },
    {
      "midi": 68,
      "hit": false,
      "t": 182807.94050000055,
      "d": 225.0220833333442,
      "v": 74
    },
    {
      "midi": 63,
      "hit": false,
      "t": 183077.96700000056,
      "d": 180.01766666668118,
      "v": 76
    },
    {
      "midi": 68,
      "hit": false,
      "t": 183077.96700000056,
      "d": 180.01766666668118,
      "v": 76
    },
    {
      "midi": 71,
      "hit": false,
      "t": 183077.96700000056,
      "d": 180.01766666668118,
      "v": 76
    },
    {
      "midi": 40,
      "hit": false,
      "t": 183347.99350000036,
      "d": 1440.141333333333,
      "v": 82
    },
    {
      "midi": 56,
      "hit": false,
      "t": 183347.99350000036,
      "d": 1440.141333333333,
      "v": 84
    },
    {
      "midi": 59,
      "hit": false,
      "t": 183347.99350000036,
      "d": 1440.141333333333,
      "v": 82
    },
    {
      "midi": 63,
      "hit": false,
      "t": 183347.99350000036,
      "d": 1440.141333333333,
      "v": 82
    },
    {
      "midi": 63,
      "hit": false,
      "t": 183347.99350000056,
      "d": 466.92082291666884,
      "v": 76
    },
    {
      "midi": 68,
      "hit": false,
      "t": 183347.99350000056,
      "d": 466.92082291666884,
      "v": 76
    },
    {
      "midi": 71,
      "hit": false,
      "t": 183347.99350000056,
      "d": 466.92082291666884,
      "v": 76
    },
    {
      "midi": 63,
      "hit": false,
      "t": 183888.04650000058,
      "d": 265.5260583333438,
      "v": 76
    },
    {
      "midi": 68,
      "hit": false,
      "t": 183888.04650000058,
      "d": 265.5260583333438,
      "v": 76
    },
    {
      "midi": 71,
      "hit": false,
      "t": 183888.04650000058,
      "d": 265.5260583333438,
      "v": 76
    },
    {
      "midi": 44,
      "hit": false,
      "t": 184968.15250000037,
      "d": 450.0441666666593,
      "v": 82
    },
    {
      "midi": 59,
      "hit": false,
      "t": 184968.15250000037,
      "d": 450.0441666666593,
      "v": 82
    },
    {
      "midi": 63,
      "hit": false,
      "t": 184968.15250000037,
      "d": 450.0441666666593,
      "v": 82
    },
    {
      "midi": 68,
      "hit": false,
      "t": 184968.15250000037,
      "d": 450.0441666666593,
      "v": 82
    },
    {
      "midi": 42,
      "hit": false,
      "t": 185508.20550000036,
      "d": 1329.8805125000072,
      "v": 82
    },
    {
      "midi": 58,
      "hit": false,
      "t": 185508.20550000036,
      "d": 1329.8805125000072,
      "v": 82
    },
    {
      "midi": 63,
      "hit": false,
      "t": 185508.20550000036,
      "d": 1329.8805125000072,
      "v": 82
    },
    {
      "midi": 66,
      "hit": false,
      "t": 185508.20550000036,
      "d": 1329.8805125000072,
      "v": 84
    },
    {
      "midi": 42,
      "hit": false,
      "t": 186858.33800000037,
      "d": 135.01324999998906,
      "v": 73
    },
    {
      "midi": 58,
      "hit": false,
      "t": 186858.33800000037,
      "d": 135.01324999998906,
      "v": 64
    },
    {
      "midi": 63,
      "hit": false,
      "t": 186858.33800000037,
      "d": 135.01324999998906,
      "v": 60
    },
    {
      "midi": 66,
      "hit": false,
      "t": 186858.33800000037,
      "d": 135.01324999998906,
      "v": 64
    },
    {
      "midi": 61,
      "hit": false,
      "t": 186858.3380000006,
      "d": 225.0220833333442,
      "v": 70
    },
    {
      "midi": 66,
      "hit": false,
      "t": 186858.3380000006,
      "d": 225.0220833333442,
      "v": 70
    },
    {
      "midi": 70,
      "hit": false,
      "t": 186858.3380000006,
      "d": 225.0220833333442,
      "v": 70
    },
    {
      "midi": 42,
      "hit": false,
      "t": 187128.36450000035,
      "d": 135.01324999998906,
      "v": 82
    },
    {
      "midi": 58,
      "hit": false,
      "t": 187128.36450000035,
      "d": 135.01324999998906,
      "v": 82
    },
    {
      "midi": 63,
      "hit": false,
      "t": 187128.36450000035,
      "d": 135.01324999998906,
      "v": 73
    },
    {
      "midi": 66,
      "hit": false,
      "t": 187128.36450000035,
      "d": 135.01324999998906,
      "v": 73
    },
    {
      "midi": 61,
      "hit": false,
      "t": 187128.3645000006,
      "d": 157.51545833333512,
      "v": 74
    },
    {
      "midi": 66,
      "hit": false,
      "t": 187128.3645000006,
      "d": 157.51545833333512,
      "v": 74
    },
    {
      "midi": 70,
      "hit": false,
      "t": 187128.3645000006,
      "d": 157.51545833333512,
      "v": 74
    },
    {
      "midi": 42,
      "hit": false,
      "t": 187398.39100000032,
      "d": 135.01324999998906,
      "v": 84
    },
    {
      "midi": 58,
      "hit": false,
      "t": 187398.39100000032,
      "d": 135.01324999998906,
      "v": 73
    },
    {
      "midi": 63,
      "hit": false,
      "t": 187398.39100000032,
      "d": 135.01324999998906,
      "v": 64
    },
    {
      "midi": 66,
      "hit": false,
      "t": 187398.39100000032,
      "d": 135.01324999998906,
      "v": 82
    },
    {
      "midi": 61,
      "hit": false,
      "t": 187398.3910000006,
      "d": 225.0220833333442,
      "v": 74
    },
    {
      "midi": 66,
      "hit": false,
      "t": 187398.3910000006,
      "d": 225.0220833333442,
      "v": 74
    },
    {
      "midi": 70,
      "hit": false,
      "t": 187398.3910000006,
      "d": 225.0220833333442,
      "v": 74
    },
    {
      "midi": 40,
      "hit": false,
      "t": 187668.4175000003,
      "d": 1980.1943333333475,
      "v": 82
    },
    {
      "midi": 56,
      "hit": false,
      "t": 187668.4175000003,
      "d": 1980.1943333333475,
      "v": 84
    },
    {
      "midi": 59,
      "hit": false,
      "t": 187668.4175000003,
      "d": 1980.1943333333475,
      "v": 82
    },
    {
      "midi": 63,
      "hit": false,
      "t": 187668.4175000003,
      "d": 1980.1943333333475,
      "v": 82
    },
    {
      "midi": 59,
      "hit": false,
      "t": 187668.41750000062,
      "d": 2425.7380583333434,
      "v": 76
    },
    {
      "midi": 63,
      "hit": false,
      "t": 187668.41750000062,
      "d": 2425.7380583333434,
      "v": 76
    },
    {
      "midi": 68,
      "hit": false,
      "t": 187668.41750000062,
      "d": 2425.7380583333434,
      "v": 76
    },
    {
      "midi": 40,
      "hit": false,
      "t": 192258.8680000003,
      "d": 2119.708025,
      "v": 82
    },
    {
      "midi": 56,
      "hit": false,
      "t": 192258.8680000003,
      "d": 2119.708025,
      "v": 84
    },
    {
      "midi": 59,
      "hit": false,
      "t": 192258.8680000003,
      "d": 2119.708025,
      "v": 82
    },
    {
      "midi": 63,
      "hit": false,
      "t": 192258.8680000003,
      "d": 2119.708025,
      "v": 82
    }
  ]
}