{
  "jsonPath": "Rock/Latin Rock/Maná/vivir-sin-aire-en-vivo.json",
  "path": "Rock\\Latin Rock\\Maná\\Vivir sin aire En vivo.mid",
  "name": "Vivir sin aire En vivo",
  "difficulty": "Advanced",
  "bpm": 69.99998833333528,
  "notes": [
    {
      "midi": 74,
      "hit": false,
      "t": 3287.672,
      "d": 1618.1510624999996,
      "v": 67
    },
    {
      "midi": 79,
      "hit": false,
      "t": 3287.672,
      "d": 1618.1510624999996,
      "v": 62
    },
    {
      "midi": 69,
      "hit": false,
      "t": 3287.672,
      "d": 1643.8359999999998,
      "v": 53
    },
    {
      "midi": 71,
      "hit": false,
      "t": 3287.672,
      "d": 1660.9592916666666,
      "v": 73
    },
    {
      "midi": 55,
      "hit": false,
      "t": 5342.467,
      "d": 1198.6304166666669,
      "v": 82
    },
    {
      "midi": 69,
      "hit": false,
      "t": 5342.467,
      "d": 1198.6304166666669,
      "v": 62
    },
    {
      "midi": 71,
      "hit": false,
      "t": 5342.467,
      "d": 1198.6304166666669,
      "v": 73
    },
    {
      "midi": 74,
      "hit": false,
      "t": 5342.467,
      "d": 1198.6304166666669,
      "v": 62
    },
    {
      "midi": 79,
      "hit": false,
      "t": 5342.467,
      "d": 1198.6304166666669,
      "v": 73
    },
    {
      "midi": 66,
      "hit": false,
      "t": 6575.344,
      "d": 1626.7127083333335,
      "v": 67
    },
    {
      "midi": 69,
      "hit": false,
      "t": 6575.344,
      "d": 1626.7127083333335,
      "v": 67
    },
    {
      "midi": 74,
      "hit": false,
      "t": 6575.344,
      "d": 1626.7127083333335,
      "v": 94
    },
    {
      "midi": 81,
      "hit": false,
      "t": 6575.344,
      "d": 1626.7127083333335,
      "v": 82
    },
    {
      "midi": 62,
      "hit": false,
      "t": 8219.18,
      "d": 376.7124166666672,
      "v": 67
    },
    {
      "midi": 66,
      "hit": false,
      "t": 8219.18,
      "d": 376.7124166666672,
      "v": 94
    },
    {
      "midi": 74,
      "hit": false,
      "t": 8219.18,
      "d": 376.7124166666672,
      "v": 82
    },
    {
      "midi": 50,
      "hit": false,
      "t": 8630.139000000001,
      "d": 1198.6304166666669,
      "v": 82
    },
    {
      "midi": 64,
      "hit": false,
      "t": 8630.139000000001,
      "d": 1198.6304166666669,
      "v": 62
    },
    {
      "midi": 66,
      "hit": false,
      "t": 8630.139000000001,
      "d": 1198.6304166666669,
      "v": 73
    },
    {
      "midi": 69,
      "hit": false,
      "t": 8630.139000000001,
      "d": 1198.6304166666669,
      "v": 62
    },
    {
      "midi": 74,
      "hit": false,
      "t": 8630.139000000001,
      "d": 1198.6304166666669,
      "v": 73
    },
    {
      "midi": 62,
      "hit": false,
      "t": 9863.016000000001,
      "d": 1609.5894166666676,
      "v": 53
    },
    {
      "midi": 67,
      "hit": false,
      "t": 9863.016000000001,
      "d": 1609.5894166666676,
      "v": 67
    },
    {
      "midi": 72,
      "hit": false,
      "t": 9863.016000000001,
      "d": 1609.5894166666676,
      "v": 62
    },
    {
      "midi": 47,
      "hit": false,
      "t": 11917.811000000002,
      "d": 1198.6304166666669,
      "v": 82
    },
    {
      "midi": 62,
      "hit": false,
      "t": 11917.811000000002,
      "d": 1198.6304166666669,
      "v": 73
    },
    {
      "midi": 66,
      "hit": false,
      "t": 11917.811000000002,
      "d": 1198.6304166666669,
      "v": 62
    },
    {
      "midi": 71,
      "hit": false,
      "t": 11917.811000000002,
      "d": 1198.6304166666669,
      "v": 73
    },
    {
      "midi": 67,
      "hit": false,
      "t": 13150.688000000002,
      "d": 821.9179999999997,
      "v": 67
    },
    {
      "midi": 71,
      "hit": false,
      "t": 13150.688000000002,
      "d": 821.9179999999997,
      "v": 67
    },
    {
      "midi": 76,
      "hit": false,
      "t": 13150.688000000002,
      "d": 821.9179999999997,
      "v": 94
    },
    {
      "midi": 83,
      "hit": false,
      "t": 13150.688000000002,
      "d": 821.9179999999997,
      "v": 82
    },
    {
      "midi": 69,
      "hit": false,
      "t": 13972.606000000002,
      "d": 804.7947083333329,
      "v": 1
    },
    {
      "midi": 74,
      "hit": false,
      "t": 13972.606000000002,
      "d": 804.7947083333329,
      "v": 1
    },
    {
      "midi": 81,
      "hit": false,
      "t": 13972.606000000002,
      "d": 804.7947083333329,
      "v": 1
    },
    {
      "midi": 67,
      "hit": false,
      "t": 14794.524000000001,
      "d": 650.6850833333338,
      "v": 67
    },
    {
      "midi": 79,
      "hit": false,
      "t": 14794.524000000001,
      "d": 881.8495208333334,
      "v": 82
    },
    {
      "midi": 71,
      "hit": false,
      "t": 14794.524000000001,
      "d": 1267.123583333334,
      "v": 94
    },
    {
      "midi": 74,
      "hit": false,
      "t": 15410.962500000001,
      "d": 958.9043333333339,
      "v": 1
    },
    {
      "midi": 67,
      "hit": false,
      "t": 16438.36,
      "d": 1618.151062500001,
      "v": 67
    },
    {
      "midi": 72,
      "hit": false,
      "t": 16438.36,
      "d": 1618.151062500001,
      "v": 62
    },
    {
      "midi": 62,
      "hit": false,
      "t": 16438.36,
      "d": 1643.8359999999993,
      "v": 53
    },
    {
      "midi": 64,
      "hit": false,
      "t": 16438.36,
      "d": 1643.8359999999993,
      "v": 73
    },
    {
      "midi": 66,
      "hit": false,
      "t": 18082.196,
      "d": 17.123291666666773,
      "v": 1
    },
    {
      "midi": 50,
      "hit": false,
      "t": 18493.155,
      "d": 1198.6304166666669,
      "v": 82
    },
    {
      "midi": 64,
      "hit": false,
      "t": 18493.155,
      "d": 1198.6304166666669,
      "v": 62
    },
    {
      "midi": 66,
      "hit": false,
      "t": 18493.155,
      "d": 1198.6304166666669,
      "v": 73
    },
    {
      "midi": 69,
      "hit": false,
      "t": 18493.155,
      "d": 1198.6304166666669,
      "v": 62
    },
    {
      "midi": 74,
      "hit": false,
      "t": 18493.155,
      "d": 1198.6304166666669,
      "v": 73
    },
    {
      "midi": 64,
      "hit": false,
      "t": 19726.032,
      "d": 821.9180000000015,
      "v": 67
    },
    {
      "midi": 67,
      "hit": false,
      "t": 19726.032,
      "d": 821.9180000000015,
      "v": 67
    },
    {
      "midi": 72,
      "hit": false,
      "t": 19726.032,
      "d": 821.9180000000015,
      "v": 94
    },
    {
      "midi": 79,
      "hit": false,
      "t": 19726.032,
      "d": 821.9180000000015,
      "v": 82
    },
    {
      "midi": 62,
      "hit": false,
      "t": 20547.95,
      "d": 410.9589999999989,
      "v": 1
    },
    {
      "midi": 71,
      "hit": false,
      "t": 20547.95,
      "d": 410.9589999999989,
      "v": 1
    },
    {
      "midi": 60,
      "hit": false,
      "t": 20958.909,
      "d": 393.83570833333215,
      "v": 1
    },
    {
      "midi": 69,
      "hit": false,
      "t": 20958.909,
      "d": 393.83570833333215,
      "v": 1
    },
    {
      "midi": 79,
      "hit": false,
      "t": 21369.868,
      "d": 881.8495208333334,
      "v": 82
    },
    {
      "midi": 71,
      "hit": false,
      "t": 21369.868,
      "d": 1267.123583333334,
      "v": 94
    },
    {
      "midi": 67,
      "hit": false,
      "t": 21369.868,
      "d": 1292.8085208333323,
      "v": 67
    },
    {
      "midi": 74,
      "hit": false,
      "t": 22191.786,
      "d": 813.3563541666626,
      "v": 100
    },
    {
      "midi": 69,
      "hit": false,
      "t": 23013.703999999994,
      "d": 1070.2057291666679,
      "v": 58
    },
    {
      "midi": 74,
      "hit": false,
      "t": 23013.703999999994,
      "d": 1215.7537083333336,
      "v": 82
    },
    {
      "midi": 79,
      "hit": false,
      "t": 23013.703999999994,
      "d": 1292.8085208333323,
      "v": 50
    },
    {
      "midi": 55,
      "hit": false,
      "t": 23013.703999999994,
      "d": 1566.7811875000007,
      "v": 73
    },
    {
      "midi": 71,
      "hit": false,
      "t": 23013.703999999994,
      "d": 1601.0277708333306,
      "v": 100
    },
    {
      "midi": 74,
      "hit": false,
      "t": 24246.580999999995,
      "d": 359.5891249999986,
      "v": 73
    },
    {
      "midi": 64,
      "hit": false,
      "t": 24657.53999999999,
      "d": 205.47950000000128,
      "v": 100
    },
    {
      "midi": 66,
      "hit": false,
      "t": 24657.53999999999,
      "d": 839.0412916666683,
      "v": 73
    },
    {
      "midi": 62,
      "hit": false,
      "t": 24657.53999999999,
      "d": 1464.0414375000037,
      "v": 62
    },
    {
      "midi": 71,
      "hit": false,
      "t": 24863.01949999999,
      "d": 976.0276250000024,
      "v": 1
    },
    {
      "midi": 66,
      "hit": false,
      "t": 25582.197749999992,
      "d": 488.0138125000012,
      "v": 13
    },
    {
      "midi": 72,
      "hit": false,
      "t": 26301.375999999993,
      "d": 1523.972958333332,
      "v": 82
    },
    {
      "midi": 64,
      "hit": false,
      "t": 26301.375999999993,
      "d": 1549.6578958333303,
      "v": 67
    },
    {
      "midi": 67,
      "hit": false,
      "t": 26301.375999999993,
      "d": 1549.6578958333303,
      "v": 73
    },
    {
      "midi": 55,
      "hit": false,
      "t": 26301.375999999993,
      "d": 1618.1510624999974,
      "v": 73
    },
    {
      "midi": 62,
      "hit": false,
      "t": 29075.349249999992,
      "d": 479.452166666666,
      "v": 100
    },
    {
      "midi": 66,
      "hit": false,
      "t": 29075.349249999992,
      "d": 496.5754583333328,
      "v": 94
    },
    {
      "midi": 69,
      "hit": false,
      "t": 29075.349249999992,
      "d": 496.5754583333328,
      "v": 62
    },
    {
      "midi": 57,
      "hit": false,
      "t": 29075.349249999992,
      "d": 505.13710416666436,
      "v": 73
    },
    {
      "midi": 74,
      "hit": false,
      "t": 29075.349249999992,
      "d": 513.6987499999959,
      "v": 94
    },
    {
      "midi": 79,
      "hit": false,
      "t": 29589.047999999988,
      "d": 17.123291666666773,
      "v": 62
    },
    {
      "midi": 74,
      "hit": false,
      "t": 29589.047999999988,
      "d": 1618.151062500001,
      "v": 67
    },
    {
      "midi": 69,
      "hit": false,
      "t": 29589.047999999988,
      "d": 1643.8359999999993,
      "v": 53
    },
    {
      "midi": 71,
      "hit": false,
      "t": 29589.047999999988,
      "d": 1643.8359999999993,
      "v": 73
    },
    {
      "midi": 47,
      "hit": false,
      "t": 31643.842999999986,
      "d": 1198.6304166666669,
      "v": 82
    },
    {
      "midi": 62,
      "hit": false,
      "t": 31643.842999999986,
      "d": 1198.6304166666669,
      "v": 73
    },
    {
      "midi": 66,
      "hit": false,
      "t": 31643.842999999986,
      "d": 1198.6304166666669,
      "v": 62
    },
    {
      "midi": 71,
      "hit": false,
      "t": 31643.842999999986,
      "d": 1198.6304166666669,
      "v": 73
    },
    {
      "midi": 62,
      "hit": false,
      "t": 32876.71999999999,
      "d": 34.24658333333355,
      "v": 67
    },
    {
      "midi": 66,
      "hit": false,
      "t": 32876.71999999999,
      "d": 34.24658333333355,
      "v": 67
    },
    {
      "midi": 71,
      "hit": false,
      "t": 32876.71999999999,
      "d": 34.24658333333355,
      "v": 94
    },
    {
      "midi": 78,
      "hit": false,
      "t": 32876.71999999999,
      "d": 34.24658333333355,
      "v": 82
    },
    {
      "midi": 77,
      "hit": false,
      "t": 32876.71999999999,
      "d": 136.9863333333342,
      "v": 1
    },
    {
      "midi": 64,
      "hit": false,
      "t": 32876.71999999999,
      "d": 1541.0962500000023,
      "v": 1
    },
    {
      "midi": 67,
      "hit": false,
      "t": 32876.71999999999,
      "d": 1541.0962500000023,
      "v": 1
    },
    {
      "midi": 79,
      "hit": false,
      "t": 32876.71999999999,
      "d": 1541.0962500000023,
      "v": 1
    },
    {
      "midi": 72,
      "hit": false,
      "t": 33082.19949999999,
      "d": 1404.1099166666609,
      "v": 1
    },
    {
      "midi": 74,
      "hit": false,
      "t": 34417.81624999999,
      "d": 51.36987499999668,
      "v": 1
    },
    {
      "midi": 74,
      "hit": false,
      "t": 34520.55599999998,
      "d": 881.8495208333334,
      "v": 82
    },
    {
      "midi": 66,
      "hit": false,
      "t": 34520.55599999998,
      "d": 1267.123583333334,
      "v": 94
    },
    {
      "midi": 62,
      "hit": false,
      "t": 34520.55599999998,
      "d": 1292.808520833336,
      "v": 67
    },
    {
      "midi": 69,
      "hit": false,
      "t": 35342.47399999998,
      "d": 787.6714166666716,
      "v": 100
    },
    {
      "midi": 69,
      "hit": false,
      "t": 36164.391999999985,
      "d": 1070.2057291666642,
      "v": 58
    },
    {
      "midi": 74,
      "hit": false,
      "t": 36164.391999999985,
      "d": 1215.75370833333,
      "v": 82
    },
    {
      "midi": 79,
      "hit": false,
      "t": 36164.391999999985,
      "d": 1292.8085208333287,
      "v": 50
    },
    {
      "midi": 55,
      "hit": false,
      "t": 36164.391999999985,
      "d": 1566.781187499997,
      "v": 73
    },
    {
      "midi": 71,
      "hit": false,
      "t": 36164.391999999985,
      "d": 1601.0277708333306,
      "v": 100
    },
    {
      "midi": 74,
      "hit": false,
      "t": 37397.26899999998,
      "d": 359.5891250000059,
      "v": 73
    },
    {
      "midi": 66,
      "hit": false,
      "t": 37808.22799999998,
      "d": 839.0412916666683,
      "v": 73
    },
    {
      "midi": 71,
      "hit": false,
      "t": 37808.22799999998,
      "d": 1181.5071249999964,
      "v": 100
    },
    {
      "midi": 62,
      "hit": false,
      "t": 37808.22799999998,
      "d": 1464.0414374999964,
      "v": 62
    },
    {
      "midi": 66,
      "hit": false,
      "t": 38732.88574999998,
      "d": 488.0138125000012,
      "v": 13
    },
    {
      "midi": 72,
      "hit": false,
      "t": 39452.06399999998,
      "d": 1523.972958333332,
      "v": 82
    },
    {
      "midi": 64,
      "hit": false,
      "t": 39452.06399999998,
      "d": 1549.657895833334,
      "v": 67
    },
    {
      "midi": 67,
      "hit": false,
      "t": 39452.06399999998,
      "d": 1549.657895833334,
      "v": 73
    },
    {
      "midi": 55,
      "hit": false,
      "t": 39452.06399999998,
      "d": 1575.3428333333359,
      "v": 73
    },
    {
      "midi": 62,
      "hit": false,
      "t": 42226.03724999998,
      "d": 479.45216666666965,
      "v": 100
    },
    {
      "midi": 66,
      "hit": false,
      "t": 42226.03724999998,
      "d": 496.5754583333328,
      "v": 94
    },
    {
      "midi": 69,
      "hit": false,
      "t": 42226.03724999998,
      "d": 496.5754583333328,
      "v": 62
    },
    {
      "midi": 57,
      "hit": false,
      "t": 42226.03724999998,
      "d": 505.13710416666436,
      "v": 73
    },
    {
      "midi": 74,
      "hit": false,
      "t": 42226.03724999998,
      "d": 513.6987499999959,
      "v": 94
    },
    {
      "midi": 74,
      "hit": false,
      "t": 42739.735999999975,
      "d": 1618.151062500001,
      "v": 67
    },
    {
      "midi": 79,
      "hit": false,
      "t": 42739.735999999975,
      "d": 1618.151062500001,
      "v": 62
    },
    {
      "midi": 69,
      "hit": false,
      "t": 42739.735999999975,
      "d": 1643.836000000003,
      "v": 53
    },
    {
      "midi": 71,
      "hit": false,
      "t": 42739.735999999975,
      "d": 1643.836000000003,
      "v": 73
    },
    {
      "midi": 47,
      "hit": false,
      "t": 44794.53099999998,
      "d": 1164.3838333333333,
      "v": 82
    },
    {
      "midi": 62,
      "hit": false,
      "t": 44794.53099999998,
      "d": 1164.3838333333333,
      "v": 73
    },
    {
      "midi": 66,
      "hit": false,
      "t": 44794.53099999998,
      "d": 1164.3838333333333,
      "v": 62
    },
    {
      "midi": 71,
      "hit": false,
      "t": 44794.53099999998,
      "d": 1164.3838333333333,
      "v": 73
    },
    {
      "midi": 64,
      "hit": false,
      "t": 46027.40799999998,
      "d": 1609.5894166666694,
      "v": 67
    },
    {
      "midi": 67,
      "hit": false,
      "t": 46027.40799999998,
      "d": 1609.5894166666694,
      "v": 67
    },
    {
      "midi": 72,
      "hit": false,
      "t": 46027.40799999998,
      "d": 1609.5894166666694,
      "v": 94
    },
    {
      "midi": 79,
      "hit": false,
      "t": 46027.40799999998,
      "d": 1609.5894166666694,
      "v": 82
    },
    {
      "midi": 69,
      "hit": false,
      "t": 47671.243999999984,
      "d": 17.123291666663135,
      "v": 1
    },
    {
      "midi": 74,
      "hit": false,
      "t": 47671.243999999984,
      "d": 17.123291666663135,
      "v": 82
    },
    {
      "midi": 81,
      "hit": false,
      "t": 47671.243999999984,
      "d": 17.123291666663135,
      "v": 1
    },
    {
      "midi": 62,
      "hit": false,
      "t": 47671.243999999984,
      "d": 1292.8085208333287,
      "v": 67
    },
    {
      "midi": 69,
      "hit": false,
      "t": 48493.16199999998,
      "d": 813.3563541666663,
      "v": 100
    },
    {
      "midi": 50,
      "hit": false,
      "t": 49315.07999999998,
      "d": 34.24658333333355,
      "v": 73
    },
    {
      "midi": 64,
      "hit": false,
      "t": 49315.07999999998,
      "d": 34.24658333333355,
      "v": 58
    },
    {
      "midi": 66,
      "hit": false,
      "t": 49315.07999999998,
      "d": 34.24658333333355,
      "v": 100
    },
    {
      "midi": 71,
      "hit": false,
      "t": 49315.07999999998,
      "d": 753.4248333333308,
      "v": 1
    },
    {
      "midi": 55,
      "hit": false,
      "t": 49315.07999999998,
      "d": 787.6714166666643,
      "v": 1
    },
    {
      "midi": 74,
      "hit": false,
      "t": 49315.07999999998,
      "d": 787.6714166666643,
      "v": 50
    },
    {
      "midi": 79,
      "hit": false,
      "t": 49315.07999999998,
      "d": 787.6714166666643,
      "v": 1
    },
    {
      "midi": 69,
      "hit": false,
      "t": 49315.07999999998,
      "d": 821.9179999999978,
      "v": 82
    },
    {
      "midi": 62,
      "hit": false,
      "t": 50136.99799999998,
      "d": 393.83570833333215,
      "v": 1
    },
    {
      "midi": 48,
      "hit": false,
      "t": 50136.99799999998,
      "d": 410.9589999999953,
      "v": 1
    },
    {
      "midi": 72,
      "hit": false,
      "t": 50136.99799999998,
      "d": 410.9589999999953,
      "v": 1
    },
    {
      "midi": 79,
      "hit": false,
      "t": 50547.95699999997,
      "d": 59.931520833335526,
      "v": 1
    },
    {
      "midi": 55,
      "hit": false,
      "t": 50547.95699999997,
      "d": 333.9041875000039,
      "v": 1
    },
    {
      "midi": 74,
      "hit": false,
      "t": 50547.95699999997,
      "d": 359.5891250000059,
      "v": 73
    },
    {
      "midi": 71,
      "hit": false,
      "t": 50958.915999999976,
      "d": 376.712416666669,
      "v": 62
    },
    {
      "midi": 74,
      "hit": false,
      "t": 50958.915999999976,
      "d": 376.712416666669,
      "v": 73
    },
    {
      "midi": 79,
      "hit": false,
      "t": 50958.915999999976,
      "d": 376.712416666669,
      "v": 100
    },
    {
      "midi": 64,
      "hit": false,
      "t": 51369.87499999998,
      "d": 376.712416666669,
      "v": 1
    },
    {
      "midi": 67,
      "hit": false,
      "t": 51369.87499999998,
      "d": 376.712416666669,
      "v": 1
    },
    {
      "midi": 72,
      "hit": false,
      "t": 51369.87499999998,
      "d": 376.712416666669,
      "v": 1
    },
    {
      "midi": 79,
      "hit": false,
      "t": 51678.09424999998,
      "d": 428.0822916666657,
      "v": 1
    },
    {
      "midi": 74,
      "hit": false,
      "t": 51883.57374999998,
      "d": 488.0138125000012,
      "v": 13
    },
    {
      "midi": 71,
      "hit": false,
      "t": 52602.751999999986,
      "d": 1523.972958333332,
      "v": 82
    },
    {
      "midi": 62,
      "hit": false,
      "t": 52602.751999999986,
      "d": 1549.657895833334,
      "v": 67
    },
    {
      "midi": 66,
      "hit": false,
      "t": 52602.751999999986,
      "d": 1549.657895833334,
      "v": 73
    },
    {
      "midi": 54,
      "hit": false,
      "t": 52602.751999999986,
      "d": 1618.151062500001,
      "v": 73
    },
    {
      "midi": 59,
      "hit": false,
      "t": 55376.72524999999,
      "d": 479.45216666666965,
      "v": 100
    },
    {
      "midi": 62,
      "hit": false,
      "t": 55376.72524999999,
      "d": 496.5754583333328,
      "v": 94
    },
    {
      "midi": 66,
      "hit": false,
      "t": 55376.72524999999,
      "d": 496.5754583333328,
      "v": 62
    },
    {
      "midi": 54,
      "hit": false,
      "t": 55376.72524999999,
      "d": 505.13710416666436,
      "v": 73
    },
    {
      "midi": 71,
      "hit": false,
      "t": 55376.72524999999,
      "d": 513.6987499999959,
      "v": 94
    },
    {
      "midi": 68,
      "hit": false,
      "t": 55890.423999999985,
      "d": 1609.5894166666694,
      "v": 53
    },
    {
      "midi": 70,
      "hit": false,
      "t": 55890.423999999985,
      "d": 1609.5894166666694,
      "v": 73
    },
    {
      "midi": 73,
      "hit": false,
      "t": 55890.423999999985,
      "d": 1609.5894166666694,
      "v": 67
    },
    {
      "midi": 78,
      "hit": false,
      "t": 55890.423999999985,
      "d": 1609.5894166666694,
      "v": 62
    },
    {
      "midi": 54,
      "hit": false,
      "t": 57945.21899999999,
      "d": 1198.6304166666669,
      "v": 82
    },
    {
      "midi": 68,
      "hit": false,
      "t": 57945.21899999999,
      "d": 1198.6304166666669,
      "v": 62
    },
    {
      "midi": 70,
      "hit": false,
      "t": 57945.21899999999,
      "d": 1198.6304166666669,
      "v": 73
    },
    {
      "midi": 73,
      "hit": false,
      "t": 57945.21899999999,
      "d": 1198.6304166666669,
      "v": 62
    },
    {
      "midi": 78,
      "hit": false,
      "t": 57945.21899999999,
      "d": 1198.6304166666669,
      "v": 73
    },
    {
      "midi": 66,
      "hit": false,
      "t": 59178.09599999999,
      "d": 1618.151062500001,
      "v": 67
    },
    {
      "midi": 71,
      "hit": false,
      "t": 59178.09599999999,
      "d": 1618.151062500001,
      "v": 62
    },
    {
      "midi": 62,
      "hit": false,
      "t": 59178.09599999999,
      "d": 1660.959291666666,
      "v": 73
    },
    {
      "midi": 47,
      "hit": false,
      "t": 61232.89099999999,
      "d": 1198.6304166666669,
      "v": 82
    },
    {
      "midi": 62,
      "hit": false,
      "t": 61232.89099999999,
      "d": 1198.6304166666669,
      "v": 73
    },
    {
      "midi": 66,
      "hit": false,
      "t": 61232.89099999999,
      "d": 1198.6304166666669,
      "v": 62
    },
    {
      "midi": 71,
      "hit": false,
      "t": 61232.89099999999,
      "d": 1198.6304166666669,
      "v": 73
    },
    {
      "midi": 70,
      "hit": false,
      "t": 62465.76799999999,
      "d": 1609.5894166666694,
      "v": 67
    },
    {
      "midi": 73,
      "hit": false,
      "t": 62465.76799999999,
      "d": 1609.5894166666694,
      "v": 67
    },
    {
      "midi": 78,
      "hit": false,
      "t": 62465.76799999999,
      "d": 1609.5894166666694,
      "v": 94
    },
    {
      "midi": 85,
      "hit": false,
      "t": 62465.76799999999,
      "d": 1609.5894166666694,
      "v": 82
    },
    {
      "midi": 54,
      "hit": false,
      "t": 64520.562999999995,
      "d": 1164.383833333326,
      "v": 82
    },
    {
      "midi": 68,
      "hit": false,
      "t": 64520.562999999995,
      "d": 1164.383833333326,
      "v": 62
    },
    {
      "midi": 70,
      "hit": false,
      "t": 64520.562999999995,
      "d": 1164.383833333326,
      "v": 73
    },
    {
      "midi": 73,
      "hit": false,
      "t": 64520.562999999995,
      "d": 1164.383833333326,
      "v": 62
    },
    {
      "midi": 78,
      "hit": false,
      "t": 64520.562999999995,
      "d": 1164.383833333326,
      "v": 73
    },
    {
      "midi": 45,
      "hit": false,
      "t": 65650.70025,
      "d": 34.24658333332627,
      "v": 1
    },
    {
      "midi": 59,
      "hit": false,
      "t": 65650.70025,
      "d": 34.24658333332627,
      "v": 1
    },
    {
      "midi": 69,
      "hit": false,
      "t": 65650.70025,
      "d": 34.24658333332627,
      "v": 1
    },
    {
      "midi": 64,
      "hit": false,
      "t": 65753.43999999999,
      "d": 1618.1510624999937,
      "v": 67
    },
    {
      "midi": 69,
      "hit": false,
      "t": 65753.43999999999,
      "d": 1618.1510624999937,
      "v": 62
    },
    {
      "midi": 60,
      "hit": false,
      "t": 65753.43999999999,
      "d": 1660.9592916666588,
      "v": 73
    },
    {
      "midi": 45,
      "hit": false,
      "t": 67808.23499999999,
      "d": 1130.1372499999998,
      "v": 82
    },
    {
      "midi": 60,
      "hit": false,
      "t": 67808.23499999999,
      "d": 1130.1372499999998,
      "v": 73
    },
    {
      "midi": 64,
      "hit": false,
      "t": 67808.23499999999,
      "d": 1130.1372499999998,
      "v": 62
    },
    {
      "midi": 69,
      "hit": false,
      "t": 67808.23499999999,
      "d": 1130.1372499999998,
      "v": 73
    },
    {
      "midi": 54,
      "hit": false,
      "t": 68938.37224999999,
      "d": 34.24658333332627,
      "v": 1
    },
    {
      "midi": 68,
      "hit": false,
      "t": 68938.37224999999,
      "d": 34.24658333332627,
      "v": 1
    },
    {
      "midi": 78,
      "hit": false,
      "t": 68938.37224999999,
      "d": 34.24658333332627,
      "v": 1
    },
    {
      "midi": 62,
      "hit": false,
      "t": 69041.11199999998,
      "d": 1626.7127083333326,
      "v": 67
    },
    {
      "midi": 66,
      "hit": false,
      "t": 69041.11199999998,
      "d": 1626.7127083333326,
      "v": 67
    },
    {
      "midi": 71,
      "hit": false,
      "t": 69041.11199999998,
      "d": 1626.7127083333326,
      "v": 94
    },
    {
      "midi": 78,
      "hit": false,
      "t": 69041.11199999998,
      "d": 1626.7127083333326,
      "v": 82
    },
    {
      "midi": 71,
      "hit": false,
      "t": 70684.94799999997,
      "d": 881.8495208333334,
      "v": 82
    },
    {
      "midi": 62,
      "hit": false,
      "t": 70684.94799999997,
      "d": 1267.123583333334,
      "v": 94
    },
    {
      "midi": 59,
      "hit": false,
      "t": 70684.94799999997,
      "d": 1292.808520833336,
      "v": 67
    },
    {
      "midi": 66,
      "hit": false,
      "t": 71506.86599999998,
      "d": 813.3563541666663,
      "v": 100
    },
    {
      "midi": 64,
      "hit": false,
      "t": 72328.78399999999,
      "d": 1215.75370833333,
      "v": 82
    },
    {
      "midi": 69,
      "hit": false,
      "t": 72328.78399999999,
      "d": 1292.8085208333214,
      "v": 50
    },
    {
      "midi": 45,
      "hit": false,
      "t": 72328.78399999999,
      "d": 1566.7811874999898,
      "v": 73
    },
    {
      "midi": 60,
      "hit": false,
      "t": 72328.78399999999,
      "d": 1601.0277708333306,
      "v": 100
    },
    {
      "midi": 64,
      "hit": false,
      "t": 73561.66099999998,
      "d": 359.5891249999986,
      "v": 73
    },
    {
      "midi": 64,
      "hit": false,
      "t": 73972.61999999998,
      "d": 839.0412916666683,
      "v": 73
    },
    {
      "midi": 69,
      "hit": false,
      "t": 73972.61999999998,
      "d": 1181.5071250000037,
      "v": 100
    },
    {
      "midi": 60,
      "hit": false,
      "t": 73972.61999999998,
      "d": 1464.041437500011,
      "v": 62
    },
    {
      "midi": 64,
      "hit": false,
      "t": 74897.27774999998,
      "d": 488.0138125000085,
      "v": 13
    },
    {
      "midi": 71,
      "hit": false,
      "t": 75616.45599999999,
      "d": 1523.9729583333392,
      "v": 82
    },
    {
      "midi": 62,
      "hit": false,
      "t": 75616.45599999999,
      "d": 1549.6578958333412,
      "v": 67
    },
    {
      "midi": 66,
      "hit": false,
      "t": 75616.45599999999,
      "d": 1549.6578958333412,
      "v": 73
    },
    {
      "midi": 54,
      "hit": false,
      "t": 75616.45599999999,
      "d": 1575.3428333333432,
      "v": 73
    },
    {
      "midi": 62,
      "hit": false,
      "t": 78390.42925,
      "d": 479.45216666666965,
      "v": 100
    },
    {
      "midi": 66,
      "hit": false,
      "t": 78390.42925,
      "d": 496.5754583333328,
      "v": 94
    },
    {
      "midi": 69,
      "hit": false,
      "t": 78390.42925,
      "d": 496.5754583333328,
      "v": 62
    },
    {
      "midi": 57,
      "hit": false,
      "t": 78390.42925,
      "d": 505.13710416667163,
      "v": 73
    },
    {
      "midi": 74,
      "hit": false,
      "t": 78904.12800000001,
      "d": 17.123291666663135,
      "v": 67
    },
    {
      "midi": 69,
      "hit": false,
      "t": 78904.12800000001,
      "d": 1541.0962500000023,
      "v": 53
    },
    {
      "midi": 79,
      "hit": false,
      "t": 78904.12800000001,
      "d": 1541.0962500000023,
      "v": 62
    },
    {
      "midi": 61,
      "hit": false,
      "t": 80445.22425000001,
      "d": 34.24658333332627,
      "v": 1
    },
    {
      "midi": 71,
      "hit": false,
      "t": 80445.22425000001,
      "d": 34.24658333332627,
      "v": 1
    },
    {
      "midi": 62,
      "hit": false,
      "t": 80445.22425000001,
      "d": 85.61645833333023,
      "v": 1
    },
    {
      "midi": 47,
      "hit": false,
      "t": 80958.92300000001,
      "d": 1164.383833333326,
      "v": 82
    },
    {
      "midi": 62,
      "hit": false,
      "t": 80958.92300000001,
      "d": 1164.383833333326,
      "v": 73
    },
    {
      "midi": 66,
      "hit": false,
      "t": 80958.92300000001,
      "d": 1164.383833333326,
      "v": 62
    },
    {
      "midi": 71,
      "hit": false,
      "t": 80958.92300000001,
      "d": 1164.383833333326,
      "v": 73
    },
    {
      "midi": 64,
      "hit": false,
      "t": 82191.8,
      "d": 1609.5894166666694,
      "v": 67
    },
    {
      "midi": 67,
      "hit": false,
      "t": 82191.8,
      "d": 1609.5894166666694,
      "v": 67
    },
    {
      "midi": 72,
      "hit": false,
      "t": 82191.8,
      "d": 1609.5894166666694,
      "v": 94
    },
    {
      "midi": 79,
      "hit": false,
      "t": 82191.8,
      "d": 1609.5894166666694,
      "v": 82
    },
    {
      "midi": 69,
      "hit": false,
      "t": 83835.636,
      "d": 17.123291666663135,
      "v": 1
    },
    {
      "midi": 74,
      "hit": false,
      "t": 83835.636,
      "d": 17.123291666663135,
      "v": 82
    },
    {
      "midi": 81,
      "hit": false,
      "t": 83835.636,
      "d": 17.123291666663135,
      "v": 1
    },
    {
      "midi": 62,
      "hit": false,
      "t": 83835.636,
      "d": 1292.8085208333214,
      "v": 67
    },
    {
      "midi": 69,
      "hit": false,
      "t": 84657.55399999999,
      "d": 719.1782499999972,
      "v": 100
    },
    {
      "midi": 69,
      "hit": false,
      "t": 85479.47199999998,
      "d": 1070.2057291666715,
      "v": 58
    },
    {
      "midi": 74,
      "hit": false,
      "t": 85479.47199999998,
      "d": 1215.7537083333445,
      "v": 82
    },
    {
      "midi": 79,
      "hit": false,
      "t": 85479.47199999998,
      "d": 1292.808520833336,
      "v": 50
    },
    {
      "midi": 55,
      "hit": false,
      "t": 85479.47199999998,
      "d": 1566.7811875000043,
      "v": 73
    },
    {
      "midi": 71,
      "hit": false,
      "t": 85479.47199999998,
      "d": 1601.0277708333451,
      "v": 100
    },
    {
      "midi": 74,
      "hit": false,
      "t": 86712.34899999999,
      "d": 359.5891249999986,
      "v": 73
    },
    {
      "midi": 74,
      "hit": false,
      "t": 87123.30799999999,
      "d": 34.24658333334082,
      "v": 100
    },
    {
      "midi": 66,
      "hit": false,
      "t": 87123.30799999999,
      "d": 804.794708333342,
      "v": 1
    },
    {
      "midi": 71,
      "hit": false,
      "t": 87123.30799999999,
      "d": 839.0412916666683,
      "v": 73
    },
    {
      "midi": 66,
      "hit": false,
      "t": 88047.96574999999,
      "d": 488.01381249999395,
      "v": 13
    },
    {
      "midi": 72,
      "hit": false,
      "t": 88767.14399999999,
      "d": 1523.9729583333392,
      "v": 82
    },
    {
      "midi": 64,
      "hit": false,
      "t": 88767.14399999999,
      "d": 1549.6578958333412,
      "v": 67
    },
    {
      "midi": 67,
      "hit": false,
      "t": 88767.14399999999,
      "d": 1549.6578958333412,
      "v": 73
    },
    {
      "midi": 55,
      "hit": false,
      "t": 88767.14399999999,
      "d": 1609.589416666684,
      "v": 73
    },
    {
      "midi": 57,
      "hit": false,
      "t": 90410.98,
      "d": 8.561645833338844,
      "v": 1
    },
    {
      "midi": 62,
      "hit": false,
      "t": 91541.11725,
      "d": 479.45216666666965,
      "v": 100
    },
    {
      "midi": 66,
      "hit": false,
      "t": 91541.11725,
      "d": 496.5754583333328,
      "v": 94
    },
    {
      "midi": 69,
      "hit": false,
      "t": 91541.11725,
      "d": 496.5754583333328,
      "v": 62
    },
    {
      "midi": 57,
      "hit": false,
      "t": 91541.11725,
      "d": 505.13710416667163,
      "v": 73
    },
    {
      "midi": 74,
      "hit": false,
      "t": 92054.816,
      "d": 17.123291666663135,
      "v": 62
    },
    {
      "midi": 64,
      "hit": false,
      "t": 92054.816,
      "d": 34.24658333334082,
      "v": 53
    },
    {
      "midi": 69,
      "hit": false,
      "t": 92054.816,
      "d": 1575.3428333333432,
      "v": 1
    },
    {
      "midi": 47,
      "hit": false,
      "t": 94109.61100000002,
      "d": 1198.6304166666669,
      "v": 82
    },
    {
      "midi": 62,
      "hit": false,
      "t": 94109.61100000002,
      "d": 1198.6304166666669,
      "v": 73
    },
    {
      "midi": 66,
      "hit": false,
      "t": 94109.61100000002,
      "d": 1198.6304166666669,
      "v": 62
    },
    {
      "midi": 71,
      "hit": false,
      "t": 94109.61100000002,
      "d": 1198.6304166666669,
      "v": 73
    },
    {
      "midi": 64,
      "hit": false,
      "t": 95342.48800000001,
      "d": 1575.3428333333432,
      "v": 67
    },
    {
      "midi": 67,
      "hit": false,
      "t": 95342.48800000001,
      "d": 1575.3428333333432,
      "v": 67
    },
    {
      "midi": 72,
      "hit": false,
      "t": 95342.48800000001,
      "d": 1575.3428333333432,
      "v": 94
    },
    {
      "midi": 79,
      "hit": false,
      "t": 95342.48800000001,
      "d": 1575.3428333333432,
      "v": 82
    },
    {
      "midi": 74,
      "hit": false,
      "t": 96883.58425000001,
      "d": 51.36987500000396,
      "v": 1
    },
    {
      "midi": 74,
      "hit": false,
      "t": 96986.32400000002,
      "d": 881.8495208333334,
      "v": 82
    },
    {
      "midi": 66,
      "hit": false,
      "t": 96986.32400000002,
      "d": 1267.123583333334,
      "v": 94
    },
    {
      "midi": 62,
      "hit": false,
      "t": 96986.32400000002,
      "d": 1292.808520833336,
      "v": 67
    },
    {
      "midi": 69,
      "hit": false,
      "t": 97808.24200000003,
      "d": 753.424833333338,
      "v": 100
    },
    {
      "midi": 69,
      "hit": false,
      "t": 98630.16000000003,
      "d": 1070.2057291666715,
      "v": 58
    },
    {
      "midi": 74,
      "hit": false,
      "t": 98630.16000000003,
      "d": 1215.7537083333445,
      "v": 82
    },
    {
      "midi": 79,
      "hit": false,
      "t": 98630.16000000003,
      "d": 1292.808520833336,
      "v": 50
    },
    {
      "midi": 55,
      "hit": false,
      "t": 98630.16000000003,
      "d": 1566.7811875000043,
      "v": 73
    },
    {
      "midi": 71,
      "hit": false,
      "t": 98630.16000000003,
      "d": 1601.0277708333451,
      "v": 100
    },
    {
      "midi": 74,
      "hit": false,
      "t": 99863.03700000004,
      "d": 359.5891249999986,
      "v": 73
    },
    {
      "midi": 66,
      "hit": false,
      "t": 100273.99600000004,
      "d": 839.0412916666683,
      "v": 73
    },
    {
      "midi": 71,
      "hit": false,
      "t": 100273.99600000004,
      "d": 1181.5071250000037,
      "v": 100
    },
    {
      "midi": 62,
      "hit": false,
      "t": 100273.99600000004,
      "d": 1464.041437500011,
      "v": 62
    },
    {
      "midi": 66,
      "hit": false,
      "t": 101198.65375000004,
      "d": 488.0138125000085,
      "v": 13
    },
    {
      "midi": 72,
      "hit": false,
      "t": 101917.83200000005,
      "d": 1523.9729583333392,
      "v": 82
    },
    {
      "midi": 64,
      "hit": false,
      "t": 101917.83200000005,
      "d": 1549.6578958333412,
      "v": 67
    },
    {
      "midi": 67,
      "hit": false,
      "t": 101917.83200000005,
      "d": 1549.6578958333412,
      "v": 73
    },
    {
      "midi": 55,
      "hit": false,
      "t": 101917.83200000005,
      "d": 1618.1510625000083,
      "v": 73
    },
    {
      "midi": 50,
      "hit": false,
      "t": 103972.62700000007,
      "d": 1198.6304166666669,
      "v": 82
    },
    {
      "midi": 64,
      "hit": false,
      "t": 103972.62700000007,
      "d": 1198.6304166666669,
      "v": 62
    },
    {
      "midi": 66,
      "hit": false,
      "t": 103972.62700000007,
      "d": 1198.6304166666669,
      "v": 73
    },
    {
      "midi": 69,
      "hit": false,
      "t": 103972.62700000007,
      "d": 1198.6304166666669,
      "v": 62
    },
    {
      "midi": 74,
      "hit": false,
      "t": 103972.62700000007,
      "d": 1198.6304166666669,
      "v": 73
    },
    {
      "midi": 71,
      "hit": false,
      "t": 105205.50400000007,
      "d": 787.6714166666789,
      "v": 73
    },
    {
      "midi": 74,
      "hit": false,
      "t": 105205.50400000007,
      "d": 787.6714166666789,
      "v": 67
    },
    {
      "midi": 69,
      "hit": false,
      "t": 105205.50400000007,
      "d": 821.9180000000197,
      "v": 53
    },
    {
      "midi": 79,
      "hit": false,
      "t": 105205.50400000007,
      "d": 821.9180000000197,
      "v": 62
    },
    {
      "midi": 62,
      "hit": false,
      "t": 106027.4220000001,
      "d": 410.95900000000256,
      "v": 1
    },
    {
      "midi": 64,
      "hit": false,
      "t": 106027.4220000001,
      "d": 410.95900000000256,
      "v": 1
    },
    {
      "midi": 72,
      "hit": false,
      "t": 106027.4220000001,
      "d": 445.20558333332883,
      "v": 1
    },
    {
      "midi": 69,
      "hit": false,
      "t": 106438.3810000001,
      "d": 410.958999999988,
      "v": 1
    },
    {
      "midi": 71,
      "hit": false,
      "t": 106438.3810000001,
      "d": 428.08229166665114,
      "v": 1
    },
    {
      "midi": 79,
      "hit": false,
      "t": 106438.3810000001,
      "d": 428.08229166665114,
      "v": 1
    },
    {
      "midi": 48,
      "hit": false,
      "t": 107260.29900000009,
      "d": 410.95900000000256,
      "v": 82
    },
    {
      "midi": 62,
      "hit": false,
      "t": 107260.29900000009,
      "d": 410.95900000000256,
      "v": 62
    },
    {
      "midi": 64,
      "hit": false,
      "t": 107260.29900000009,
      "d": 410.95900000000256,
      "v": 73
    },
    {
      "midi": 67,
      "hit": false,
      "t": 107260.29900000009,
      "d": 410.95900000000256,
      "v": 62
    },
    {
      "midi": 72,
      "hit": false,
      "t": 107260.29900000009,
      "d": 410.95900000000256,
      "v": 73
    },
    {
      "midi": 55,
      "hit": false,
      "t": 107671.25800000009,
      "d": 787.6714166666643,
      "v": 1
    },
    {
      "midi": 69,
      "hit": false,
      "t": 107671.25800000009,
      "d": 787.6714166666643,
      "v": 1
    },
    {
      "midi": 71,
      "hit": false,
      "t": 107671.25800000009,
      "d": 787.6714166666643,
      "v": 1
    },
    {
      "midi": 74,
      "hit": false,
      "t": 107671.25800000009,
      "d": 787.6714166666643,
      "v": 1
    },
    {
      "midi": 79,
      "hit": false,
      "t": 107671.25800000009,
      "d": 787.6714166666643,
      "v": 1
    },
    {
      "midi": 74,
      "hit": false,
      "t": 108493.17600000008,
      "d": 34.24658333334082,
      "v": 67
    },
    {
      "midi": 79,
      "hit": false,
      "t": 108493.17600000008,
      "d": 34.24658333334082,
      "v": 94
    },
    {
      "midi": 86,
      "hit": false,
      "t": 108493.17600000008,
      "d": 34.24658333334082,
      "v": 82
    },
    {
      "midi": 62,
      "hit": false,
      "t": 108493.17600000008,
      "d": 1592.4661250000063,
      "v": 1
    },
    {
      "midi": 71,
      "hit": false,
      "t": 108493.17600000008,
      "d": 1626.7127083333326,
      "v": 67
    },
    {
      "midi": 71,
      "hit": false,
      "t": 110137.01200000008,
      "d": 881.8495208333334,
      "v": 82
    },
    {
      "midi": 62,
      "hit": false,
      "t": 110137.01200000008,
      "d": 1267.123583333334,
      "v": 94
    },
    {
      "midi": 59,
      "hit": false,
      "t": 110137.01200000008,
      "d": 1292.808520833336,
      "v": 67
    },
    {
      "midi": 66,
      "hit": false,
      "t": 110958.93000000008,
      "d": 753.424833333338,
      "v": 100
    },
    {
      "midi": 68,
      "hit": false,
      "t": 111780.84800000009,
      "d": 1070.2057291666715,
      "v": 58
    },
    {
      "midi": 73,
      "hit": false,
      "t": 111780.84800000009,
      "d": 1215.7537083333445,
      "v": 82
    },
    {
      "midi": 78,
      "hit": false,
      "t": 111780.84800000009,
      "d": 1292.808520833336,
      "v": 50
    },
    {
      "midi": 54,
      "hit": false,
      "t": 111780.84800000009,
      "d": 1472.6030833333498,
      "v": 73
    },
    {
      "midi": 70,
      "hit": false,
      "t": 111780.84800000009,
      "d": 1601.0277708333597,
      "v": 100
    },
    {
      "midi": 73,
      "hit": false,
      "t": 113013.7250000001,
      "d": 359.58912500001315,
      "v": 73
    },
    {
      "midi": 78,
      "hit": false,
      "t": 113219.2045000001,
      "d": 145.54797916667303,
      "v": 1
    },
    {
      "midi": 54,
      "hit": false,
      "t": 113835.64300000011,
      "d": 1198.6304166666669,
      "v": 82
    },
    {
      "midi": 68,
      "hit": false,
      "t": 113835.64300000011,
      "d": 1198.6304166666669,
      "v": 62
    },
    {
      "midi": 70,
      "hit": false,
      "t": 113835.64300000011,
      "d": 1198.6304166666669,
      "v": 73
    },
    {
      "midi": 73,
      "hit": false,
      "t": 113835.64300000011,
      "d": 1198.6304166666669,
      "v": 62
    },
    {
      "midi": 78,
      "hit": false,
      "t": 113835.64300000011,
      "d": 1198.6304166666669,
      "v": 73
    },
    {
      "midi": 66,
      "hit": false,
      "t": 115068.52000000012,
      "d": 1618.1510624999937,
      "v": 67
    },
    {
      "midi": 71,
      "hit": false,
      "t": 115068.52000000012,
      "d": 1618.1510624999937,
      "v": 62
    },
    {
      "midi": 62,
      "hit": false,
      "t": 115068.52000000012,
      "d": 1660.9592916666588,
      "v": 73
    },
    {
      "midi": 47,
      "hit": false,
      "t": 117123.31500000012,
      "d": 1198.6304166666669,
      "v": 82
    },
    {
      "midi": 62,
      "hit": false,
      "t": 117123.31500000012,
      "d": 1198.6304166666669,
      "v": 73
    },
    {
      "midi": 66,
      "hit": false,
      "t": 117123.31500000012,
      "d": 1198.6304166666669,
      "v": 62
    },
    {
      "midi": 71,
      "hit": false,
      "t": 117123.31500000012,
      "d": 1198.6304166666669,
      "v": 73
    },
    {
      "midi": 85,
      "hit": false,
      "t": 118356.19200000011,
      "d": 410.95900000000256,
      "v": 82
    },
    {
      "midi": 70,
      "hit": false,
      "t": 118356.19200000011,
      "d": 1626.7127083333326,
      "v": 67
    },
    {
      "midi": 73,
      "hit": false,
      "t": 118356.19200000011,
      "d": 1626.7127083333326,
      "v": 67
    },
    {
      "midi": 78,
      "hit": false,
      "t": 118356.19200000011,
      "d": 1626.7127083333326,
      "v": 94
    },
    {
      "midi": 68,
      "hit": false,
      "t": 118767.15100000011,
      "d": 1232.8769999999931,
      "v": 1
    },
    {
      "midi": 54,
      "hit": false,
      "t": 120410.98700000011,
      "d": 1198.6304166666669,
      "v": 82
    },
    {
      "midi": 68,
      "hit": false,
      "t": 120410.98700000011,
      "d": 1198.6304166666669,
      "v": 62
    },
    {
      "midi": 70,
      "hit": false,
      "t": 120410.98700000011,
      "d": 1198.6304166666669,
      "v": 73
    },
    {
      "midi": 73,
      "hit": false,
      "t": 120410.98700000011,
      "d": 1198.6304166666669,
      "v": 62
    },
    {
      "midi": 78,
      "hit": false,
      "t": 120410.98700000011,
      "d": 1198.6304166666669,
      "v": 73
    },
    {
      "midi": 64,
      "hit": false,
      "t": 121643.86400000012,
      "d": 1618.1510624999937,
      "v": 67
    },
    {
      "midi": 69,
      "hit": false,
      "t": 121643.86400000012,
      "d": 1618.1510624999937,
      "v": 62
    },
    {
      "midi": 60,
      "hit": false,
      "t": 121643.86400000012,
      "d": 1660.9592916666588,
      "v": 73
    },
    {
      "midi": 45,
      "hit": false,
      "t": 123698.65900000012,
      "d": 1164.3838333333406,
      "v": 82
    },
    {
      "midi": 60,
      "hit": false,
      "t": 123698.65900000012,
      "d": 1164.3838333333406,
      "v": 73
    },
    {
      "midi": 64,
      "hit": false,
      "t": 123698.65900000012,
      "d": 1164.3838333333406,
      "v": 62
    },
    {
      "midi": 69,
      "hit": false,
      "t": 123698.65900000012,
      "d": 1164.3838333333406,
      "v": 73
    },
    {
      "midi": 47,
      "hit": false,
      "t": 124828.79625000012,
      "d": 34.24658333334082,
      "v": 1
    },
    {
      "midi": 62,
      "hit": false,
      "t": 124828.79625000012,
      "d": 34.24658333334082,
      "v": 1
    },
    {
      "midi": 66,
      "hit": false,
      "t": 124828.79625000012,
      "d": 34.24658333334082,
      "v": 1
    },
    {
      "midi": 71,
      "hit": false,
      "t": 124828.79625000012,
      "d": 34.24658333334082,
      "v": 1
    },
    {
      "midi": 78,
      "hit": false,
      "t": 124931.53600000012,
      "d": 1438.356500000009,
      "v": 82
    },
    {
      "midi": 62,
      "hit": false,
      "t": 124931.53600000012,
      "d": 1626.712708333347,
      "v": 67
    },
    {
      "midi": 66,
      "hit": false,
      "t": 124931.53600000012,
      "d": 1626.712708333347,
      "v": 67
    },
    {
      "midi": 71,
      "hit": false,
      "t": 124931.53600000012,
      "d": 1626.712708333347,
      "v": 94
    },
    {
      "midi": 59,
      "hit": false,
      "t": 126369.89250000013,
      "d": 205.47950000000128,
      "v": 1
    },
    {
      "midi": 59,
      "hit": false,
      "t": 126986.33100000014,
      "d": 1198.6304166666669,
      "v": 62
    },
    {
      "midi": 62,
      "hit": false,
      "t": 126986.33100000014,
      "d": 1198.6304166666669,
      "v": 73
    },
    {
      "midi": 66,
      "hit": false,
      "t": 126986.33100000014,
      "d": 1198.6304166666669,
      "v": 62
    },
    {
      "midi": 71,
      "hit": false,
      "t": 126986.33100000014,
      "d": 1198.6304166666669,
      "v": 73
    },
    {
      "midi": 64,
      "hit": false,
      "t": 128219.20800000014,
      "d": 1618.1510624999937,
      "v": 67
    },
    {
      "midi": 69,
      "hit": false,
      "t": 128219.20800000014,
      "d": 1618.1510624999937,
      "v": 62
    },
    {
      "midi": 60,
      "hit": false,
      "t": 128219.20800000014,
      "d": 1660.9592916666588,
      "v": 73
    },
    {
      "midi": 45,
      "hit": false,
      "t": 130274.00300000014,
      "d": 1164.383833333326,
      "v": 82
    },
    {
      "midi": 60,
      "hit": false,
      "t": 130274.00300000014,
      "d": 1164.383833333326,
      "v": 73
    },
    {
      "midi": 64,
      "hit": false,
      "t": 130274.00300000014,
      "d": 1164.383833333326,
      "v": 62
    },
    {
      "midi": 69,
      "hit": false,
      "t": 130274.00300000014,
      "d": 1164.383833333326,
      "v": 73
    },
    {
      "midi": 47,
      "hit": false,
      "t": 131404.14025000014,
      "d": 34.24658333332627,
      "v": 1
    },
    {
      "midi": 62,
      "hit": false,
      "t": 131404.14025000014,
      "d": 34.24658333332627,
      "v": 1
    },
    {
      "midi": 66,
      "hit": false,
      "t": 131404.14025000014,
      "d": 34.24658333332627,
      "v": 1
    },
    {
      "midi": 71,
      "hit": false,
      "t": 131404.14025000014,
      "d": 34.24658333332627,
      "v": 1
    },
    {
      "midi": 62,
      "hit": false,
      "t": 131506.88000000012,
      "d": 1575.3428333333286,
      "v": 67
    },
    {
      "midi": 66,
      "hit": false,
      "t": 131506.88000000012,
      "d": 1575.3428333333286,
      "v": 67
    },
    {
      "midi": 71,
      "hit": false,
      "t": 131506.88000000012,
      "d": 1575.3428333333286,
      "v": 94
    },
    {
      "midi": 78,
      "hit": false,
      "t": 131506.88000000012,
      "d": 1575.3428333333286,
      "v": 82
    },
    {
      "midi": 66,
      "hit": false,
      "t": 133561.67500000013,
      "d": 582.191916666663,
      "v": 73
    },
    {
      "midi": 69,
      "hit": false,
      "t": 133561.67500000013,
      "d": 582.191916666663,
      "v": 62
    },
    {
      "midi": 50,
      "hit": false,
      "t": 133561.67500000013,
      "d": 1198.6304166666523,
      "v": 82
    },
    {
      "midi": 64,
      "hit": false,
      "t": 133561.67500000013,
      "d": 1198.6304166666523,
      "v": 62
    },
    {
      "midi": 74,
      "hit": false,
      "t": 133561.67500000013,
      "d": 1198.6304166666523,
      "v": 73
    },
    {
      "midi": 69,
      "hit": false,
      "t": 134794.5520000001,
      "d": 1506.849666666676,
      "v": 53
    },
    {
      "midi": 74,
      "hit": false,
      "t": 134794.5520000001,
      "d": 1506.849666666676,
      "v": 67
    },
    {
      "midi": 79,
      "hit": false,
      "t": 134794.5520000001,
      "d": 1506.849666666676,
      "v": 62
    },
    {
      "midi": 71,
      "hit": false,
      "t": 134794.5520000001,
      "d": 1660.9592916666588,
      "v": 73
    },
    {
      "midi": 62,
      "hit": false,
      "t": 136335.64825000011,
      "d": 154.10962499998277,
      "v": 1
    },
    {
      "midi": 47,
      "hit": false,
      "t": 136849.3470000001,
      "d": 1164.383833333326,
      "v": 82
    },
    {
      "midi": 62,
      "hit": false,
      "t": 136849.3470000001,
      "d": 1164.383833333326,
      "v": 73
    },
    {
      "midi": 66,
      "hit": false,
      "t": 136849.3470000001,
      "d": 1164.383833333326,
      "v": 62
    },
    {
      "midi": 71,
      "hit": false,
      "t": 136849.3470000001,
      "d": 1164.383833333326,
      "v": 73
    },
    {
      "midi": 64,
      "hit": false,
      "t": 138082.22400000007,
      "d": 1609.589416666684,
      "v": 67
    },
    {
      "midi": 67,
      "hit": false,
      "t": 138082.22400000007,
      "d": 1609.589416666684,
      "v": 67
    },
    {
      "midi": 72,
      "hit": false,
      "t": 138082.22400000007,
      "d": 1609.589416666684,
      "v": 94
    },
    {
      "midi": 79,
      "hit": false,
      "t": 138082.22400000007,
      "d": 1609.589416666684,
      "v": 82
    },
    {
      "midi": 66,
      "hit": false,
      "t": 139726.06000000008,
      "d": 17.123291666677687,
      "v": 94
    },
    {
      "midi": 69,
      "hit": false,
      "t": 139726.06000000008,
      "d": 17.123291666677687,
      "v": 1
    },
    {
      "midi": 74,
      "hit": false,
      "t": 139726.06000000008,
      "d": 17.123291666677687,
      "v": 82
    },
    {
      "midi": 81,
      "hit": false,
      "t": 139726.06000000008,
      "d": 17.123291666677687,
      "v": 1
    },
    {
      "midi": 62,
      "hit": false,
      "t": 139726.06000000008,
      "d": 1292.8085208333505,
      "v": 67
    },
    {
      "midi": 69,
      "hit": false,
      "t": 140547.9780000001,
      "d": 787.6714166666789,
      "v": 100
    },
    {
      "midi": 69,
      "hit": false,
      "t": 141369.8960000001,
      "d": 1070.205729166657,
      "v": 58
    },
    {
      "midi": 74,
      "hit": false,
      "t": 141369.8960000001,
      "d": 1215.75370833333,
      "v": 82
    },
    {
      "midi": 79,
      "hit": false,
      "t": 141369.8960000001,
      "d": 1292.8085208333505,
      "v": 50
    },
    {
      "midi": 55,
      "hit": false,
      "t": 141369.8960000001,
      "d": 1566.7811875000189,
      "v": 73
    },
    {
      "midi": 71,
      "hit": false,
      "t": 141369.8960000001,
      "d": 1601.0277708333451,
      "v": 100
    },
    {
      "midi": 74,
      "hit": false,
      "t": 142602.7730000001,
      "d": 359.5891249999986,
      "v": 73
    },
    {
      "midi": 78,
      "hit": false,
      "t": 143013.7320000001,
      "d": 34.24658333332627,
      "v": 100
    },
    {
      "midi": 62,
      "hit": false,
      "t": 143013.7320000001,
      "d": 1429.7948541666556,
      "v": 1
    },
    {
      "midi": 71,
      "hit": false,
      "t": 143013.7320000001,
      "d": 1464.0414374999818,
      "v": 62
    },
    {
      "midi": 66,
      "hit": false,
      "t": 143938.3897500001,
      "d": 488.01381249999395,
      "v": 13
    },
    {
      "midi": 55,
      "hit": false,
      "t": 144657.5680000001,
      "d": 1506.849666666676,
      "v": 73
    },
    {
      "midi": 64,
      "hit": false,
      "t": 144657.5680000001,
      "d": 1506.849666666676,
      "v": 67
    },
    {
      "midi": 67,
      "hit": false,
      "t": 144657.5680000001,
      "d": 1506.849666666676,
      "v": 73
    },
    {
      "midi": 72,
      "hit": false,
      "t": 144657.5680000001,
      "d": 1506.849666666676,
      "v": 82
    },
    {
      "midi": 74,
      "hit": false,
      "t": 146198.6642500001,
      "d": 17.123291666677687,
      "v": 1
    },
    {
      "midi": 66,
      "hit": false,
      "t": 146198.6642500001,
      "d": 42.808229166665114,
      "v": 1
    },
    {
      "midi": 69,
      "hit": false,
      "t": 146198.6642500001,
      "d": 42.808229166665114,
      "v": 1
    },
    {
      "midi": 57,
      "hit": false,
      "t": 146198.6642500001,
      "d": 102.73975000000792,
      "v": 1
    },
    {
      "midi": 66,
      "hit": false,
      "t": 146712.3630000001,
      "d": 1164.383833333326,
      "v": 73
    },
    {
      "midi": 69,
      "hit": false,
      "t": 146712.3630000001,
      "d": 1164.383833333326,
      "v": 62
    },
    {
      "midi": 50,
      "hit": false,
      "t": 146712.3630000001,
      "d": 1198.6304166666523,
      "v": 82
    },
    {
      "midi": 64,
      "hit": false,
      "t": 146712.3630000001,
      "d": 1198.6304166666523,
      "v": 62
    },
    {
      "midi": 74,
      "hit": false,
      "t": 146712.3630000001,
      "d": 1198.6304166666523,
      "v": 73
    },
    {
      "midi": 74,
      "hit": false,
      "t": 147945.24000000008,
      "d": 1618.1510624999937,
      "v": 67
    },
    {
      "midi": 79,
      "hit": false,
      "t": 147945.24000000008,
      "d": 1618.1510624999937,
      "v": 62
    },
    {
      "midi": 69,
      "hit": false,
      "t": 147945.24000000008,
      "d": 1643.8359999999811,
      "v": 53
    },
    {
      "midi": 71,
      "hit": false,
      "t": 147945.24000000008,
      "d": 1660.9592916666588,
      "v": 73
    },
    {
      "midi": 62,
      "hit": false,
      "t": 150000.03500000006,
      "d": 68.49316666668165,
      "v": 73
    },
    {
      "midi": 71,
      "hit": false,
      "t": 150000.03500000006,
      "d": 68.49316666668165,
      "v": 73
    },
    {
      "midi": 47,
      "hit": false,
      "t": 150000.03500000006,
      "d": 1095.8906666666735,
      "v": 82
    },
    {
      "midi": 66,
      "hit": false,
      "t": 150000.03500000006,
      "d": 1095.8906666666735,
      "v": 62
    },
    {
      "midi": 61,
      "hit": false,
      "t": 150102.77475000007,
      "d": 136.9863333333342,
      "v": 1
    },
    {
      "midi": 74,
      "hit": false,
      "t": 150102.77475000007,
      "d": 136.9863333333342,
      "v": 1
    },
    {
      "midi": 62,
      "hit": false,
      "t": 150205.51450000008,
      "d": 890.4111666666577,
      "v": 1
    },
    {
      "midi": 71,
      "hit": false,
      "t": 150205.51450000008,
      "d": 890.4111666666577,
      "v": 1
    },
    {
      "midi": 55,
      "hit": false,
      "t": 151130.17225000006,
      "d": 34.24658333332627,
      "v": 1
    },
    {
      "midi": 69,
      "hit": false,
      "t": 151130.17225000006,
      "d": 34.24658333332627,
      "v": 1
    },
    {
      "midi": 79,
      "hit": false,
      "t": 151130.17225000006,
      "d": 34.24658333332627,
      "v": 1
    },
    {
      "midi": 48,
      "hit": false,
      "t": 151130.17225000006,
      "d": 68.49316666665254,
      "v": 1
    },
    {
      "midi": 62,
      "hit": false,
      "t": 151130.17225000006,
      "d": 68.49316666665254,
      "v": 1
    },
    {
      "midi": 72,
      "hit": false,
      "t": 151130.17225000006,
      "d": 68.49316666665254,
      "v": 1
    },
    {
      "midi": 64,
      "hit": false,
      "t": 151232.91200000004,
      "d": 1541.0962500000023,
      "v": 67
    },
    {
      "midi": 67,
      "hit": false,
      "t": 151232.91200000004,
      "d": 1541.0962500000023,
      "v": 67
    },
    {
      "midi": 72,
      "hit": false,
      "t": 151232.91200000004,
      "d": 1541.0962500000023,
      "v": 94
    },
    {
      "midi": 79,
      "hit": false,
      "t": 151232.91200000004,
      "d": 1541.0962500000023,
      "v": 82
    },
    {
      "midi": 74,
      "hit": false,
      "t": 152774.00825000004,
      "d": 85.61645833333023,
      "v": 1
    },
    {
      "midi": 74,
      "hit": false,
      "t": 152876.74800000005,
      "d": 881.8495208333479,
      "v": 82
    },
    {
      "midi": 66,
      "hit": false,
      "t": 152876.74800000005,
      "d": 1267.123583333334,
      "v": 94
    },
    {
      "midi": 62,
      "hit": false,
      "t": 152876.74800000005,
      "d": 1292.8085208333214,
      "v": 67
    },
    {
      "midi": 69,
      "hit": false,
      "t": 153698.66600000006,
      "d": 787.6714166666497,
      "v": 100
    },
    {
      "midi": 69,
      "hit": false,
      "t": 154520.58400000003,
      "d": 1070.205729166657,
      "v": 58
    },
    {
      "midi": 74,
      "hit": false,
      "t": 154520.58400000003,
      "d": 1215.75370833333,
      "v": 82
    },
    {
      "midi": 79,
      "hit": false,
      "t": 154520.58400000003,
      "d": 1292.8085208333505,
      "v": 50
    },
    {
      "midi": 55,
      "hit": false,
      "t": 154520.58400000003,
      "d": 1566.7811875000189,
      "v": 73
    },
    {
      "midi": 71,
      "hit": false,
      "t": 154520.58400000003,
      "d": 1601.0277708333451,
      "v": 100
    },
    {
      "midi": 74,
      "hit": false,
      "t": 155753.46100000004,
      "d": 359.5891249999986,
      "v": 73
    },
    {
      "midi": 78,
      "hit": false,
      "t": 156164.42000000004,
      "d": 34.24658333332627,
      "v": 100
    },
    {
      "midi": 62,
      "hit": false,
      "t": 156164.42000000004,
      "d": 1429.7948541666556,
      "v": 1
    },
    {
      "midi": 71,
      "hit": false,
      "t": 156164.42000000004,
      "d": 1464.0414374999818,
      "v": 62
    },
    {
      "midi": 66,
      "hit": false,
      "t": 157089.07775000003,
      "d": 488.01381249999395,
      "v": 13
    },
    {
      "midi": 72,
      "hit": false,
      "t": 157808.25600000002,
      "d": 1523.9729583333246,
      "v": 82
    },
    {
      "midi": 64,
      "hit": false,
      "t": 157808.25600000002,
      "d": 1549.657895833312,
      "v": 67
    },
    {
      "midi": 67,
      "hit": false,
      "t": 157808.25600000002,
      "d": 1549.657895833312,
      "v": 73
    },
    {
      "midi": 55,
      "hit": false,
      "t": 157808.25600000002,
      "d": 1618.1510624999646,
      "v": 73
    },
    {
      "midi": 57,
      "hit": false,
      "t": 160582.22924999997,
      "d": 342.4658333333209,
      "v": 73
    },
    {
      "midi": 62,
      "hit": false,
      "t": 160582.22924999997,
      "d": 342.4658333333209,
      "v": 100
    },
    {
      "midi": 66,
      "hit": false,
      "t": 160582.22924999997,
      "d": 342.4658333333209,
      "v": 94
    },
    {
      "midi": 69,
      "hit": false,
      "t": 160582.22924999997,
      "d": 342.4658333333209,
      "v": 62
    },
    {
      "midi": 74,
      "hit": false,
      "t": 160582.22924999997,
      "d": 342.4658333333209,
      "v": 94
    },
    {
      "midi": 67,
      "hit": false,
      "t": 160890.44849999997,
      "d": 136.9863333333342,
      "v": 1
    },
    {
      "midi": 79,
      "hit": false,
      "t": 160890.44849999997,
      "d": 188.35620833333815,
      "v": 1
    },
    {
      "midi": 71,
      "hit": false,
      "t": 161095.92799999999,
      "d": 821.9180000000051,
      "v": 73
    },
    {
      "midi": 74,
      "hit": false,
      "t": 161095.92799999999,
      "d": 821.9180000000051,
      "v": 67
    },
    {
      "midi": 69,
      "hit": false,
      "t": 161095.92799999999,
      "d": 856.1645833333314,
      "v": 53
    },
    {
      "midi": 79,
      "hit": false,
      "t": 161095.92799999999,
      "d": 856.1645833333314,
      "v": 62
    },
    {
      "midi": 62,
      "hit": false,
      "t": 161917.846,
      "d": 376.7124166666472,
      "v": 1
    },
    {
      "midi": 64,
      "hit": false,
      "t": 161917.846,
      "d": 376.7124166666472,
      "v": 1
    },
    {
      "midi": 72,
      "hit": false,
      "t": 161917.846,
      "d": 410.95899999997346,
      "v": 1
    },
    {
      "midi": 69,
      "hit": false,
      "t": 162328.80499999996,
      "d": 410.95900000000256,
      "v": 1
    },
    {
      "midi": 71,
      "hit": false,
      "t": 162328.80499999996,
      "d": 428.08229166668025,
      "v": 1
    },
    {
      "midi": 79,
      "hit": false,
      "t": 162328.80499999996,
      "d": 428.08229166668025,
      "v": 1
    },
    {
      "midi": 48,
      "hit": false,
      "t": 163150.72299999997,
      "d": 410.95900000000256,
      "v": 82
    },
    {
      "midi": 62,
      "hit": false,
      "t": 163150.72299999997,
      "d": 410.95900000000256,
      "v": 62
    },
    {
      "midi": 64,
      "hit": false,
      "t": 163150.72299999997,
      "d": 410.95900000000256,
      "v": 73
    },
    {
      "midi": 67,
      "hit": false,
      "t": 163150.72299999997,
      "d": 410.95900000000256,
      "v": 62
    },
    {
      "midi": 72,
      "hit": false,
      "t": 163150.72299999997,
      "d": 410.95900000000256,
      "v": 73
    },
    {
      "midi": 55,
      "hit": false,
      "t": 163561.68199999997,
      "d": 787.6714166666789,
      "v": 1
    },
    {
      "midi": 69,
      "hit": false,
      "t": 163561.68199999997,
      "d": 787.6714166666789,
      "v": 1
    },
    {
      "midi": 79,
      "hit": false,
      "t": 163561.68199999997,
      "d": 787.6714166666789,
      "v": 1
    },
    {
      "midi": 66,
      "hit": false,
      "t": 164383.59999999998,
      "d": 1618.1510624999937,
      "v": 67
    },
    {
      "midi": 71,
      "hit": false,
      "t": 164383.59999999998,
      "d": 1618.1510624999937,
      "v": 62
    },
    {
      "midi": 62,
      "hit": false,
      "t": 164383.59999999998,
      "d": 1660.9592916666588,
      "v": 73
    },
    {
      "midi": 47,
      "hit": false,
      "t": 166438.39499999996,
      "d": 1198.6304166666523,
      "v": 82
    },
    {
      "midi": 62,
      "hit": false,
      "t": 166438.39499999996,
      "d": 1198.6304166666523,
      "v": 73
    },
    {
      "midi": 66,
      "hit": false,
      "t": 166438.39499999996,
      "d": 1198.6304166666523,
      "v": 62
    },
    {
      "midi": 71,
      "hit": false,
      "t": 166438.39499999996,
      "d": 1198.6304166666523,
      "v": 73
    },
    {
      "midi": 70,
      "hit": false,
      "t": 167671.27199999994,
      "d": 1626.7127083333326,
      "v": 67
    },
    {
      "midi": 73,
      "hit": false,
      "t": 167671.27199999994,
      "d": 1626.7127083333326,
      "v": 67
    },
    {
      "midi": 78,
      "hit": false,
      "t": 167671.27199999994,
      "d": 1626.7127083333326,
      "v": 94
    },
    {
      "midi": 85,
      "hit": false,
      "t": 167671.27199999994,
      "d": 1626.7127083333326,
      "v": 82
    },
    {
      "midi": 66,
      "hit": false,
      "t": 169315.10799999995,
      "d": 136.9863333333342,
      "v": 67
    },
    {
      "midi": 70,
      "hit": false,
      "t": 169315.10799999995,
      "d": 136.9863333333342,
      "v": 94
    },
    {
      "midi": 78,
      "hit": false,
      "t": 169315.10799999995,
      "d": 136.9863333333342,
      "v": 82
    },
    {
      "midi": 54,
      "hit": false,
      "t": 169726.06699999995,
      "d": 1198.6304166666523,
      "v": 82
    },
    {
      "midi": 68,
      "hit": false,
      "t": 169726.06699999995,
      "d": 1198.6304166666523,
      "v": 62
    },
    {
      "midi": 70,
      "hit": false,
      "t": 169726.06699999995,
      "d": 1198.6304166666523,
      "v": 73
    },
    {
      "midi": 73,
      "hit": false,
      "t": 169726.06699999995,
      "d": 1198.6304166666523,
      "v": 62
    },
    {
      "midi": 78,
      "hit": false,
      "t": 169726.06699999995,
      "d": 1198.6304166666523,
      "v": 73
    },
    {
      "midi": 66,
      "hit": false,
      "t": 170958.94399999993,
      "d": 1618.1510624999937,
      "v": 67
    },
    {
      "midi": 71,
      "hit": false,
      "t": 170958.94399999993,
      "d": 1618.1510624999937,
      "v": 62
    },
    {
      "midi": 62,
      "hit": false,
      "t": 170958.94399999993,
      "d": 1660.9592916666588,
      "v": 73
    },
    {
      "midi": 47,
      "hit": false,
      "t": 173013.7389999999,
      "d": 1198.6304166666523,
      "v": 82
    },
    {
      "midi": 62,
      "hit": false,
      "t": 173013.7389999999,
      "d": 1198.6304166666523,
      "v": 73
    },
    {
      "midi": 66,
      "hit": false,
      "t": 173013.7389999999,
      "d": 1198.6304166666523,
      "v": 62
    },
    {
      "midi": 71,
      "hit": false,
      "t": 173013.7389999999,
      "d": 1198.6304166666523,
      "v": 73
    },
    {
      "midi": 85,
      "hit": false,
      "t": 174246.6159999999,
      "d": 821.9180000000051,
      "v": 82
    },
    {
      "midi": 70,
      "hit": false,
      "t": 174246.6159999999,
      "d": 1626.7127083333326,
      "v": 67
    },
    {
      "midi": 73,
      "hit": false,
      "t": 174246.6159999999,
      "d": 1626.7127083333326,
      "v": 67
    },
    {
      "midi": 78,
      "hit": false,
      "t": 174246.6159999999,
      "d": 1626.7127083333326,
      "v": 94
    },
    {
      "midi": 68,
      "hit": false,
      "t": 175068.5339999999,
      "d": 821.9180000000051,
      "v": 1
    },
    {
      "midi": 54,
      "hit": false,
      "t": 176301.4109999999,
      "d": 1130.1372499999998,
      "v": 82
    },
    {
      "midi": 68,
      "hit": false,
      "t": 176301.4109999999,
      "d": 1130.1372499999998,
      "v": 62
    },
    {
      "midi": 70,
      "hit": false,
      "t": 176301.4109999999,
      "d": 1130.1372499999998,
      "v": 73
    },
    {
      "midi": 73,
      "hit": false,
      "t": 176301.4109999999,
      "d": 1130.1372499999998,
      "v": 62
    },
    {
      "midi": 78,
      "hit": false,
      "t": 176301.4109999999,
      "d": 1130.1372499999998,
      "v": 73
    },
    {
      "midi": 45,
      "hit": false,
      "t": 177431.5482499999,
      "d": 68.49316666665254,
      "v": 1
    },
    {
      "midi": 59,
      "hit": false,
      "t": 177431.5482499999,
      "d": 68.49316666665254,
      "v": 1
    },
    {
      "midi": 69,
      "hit": false,
      "t": 177431.5482499999,
      "d": 68.49316666665254,
      "v": 1
    },
    {
      "midi": 64,
      "hit": false,
      "t": 177534.28799999988,
      "d": 1618.1510624999937,
      "v": 67
    },
    {
      "midi": 69,
      "hit": false,
      "t": 177534.28799999988,
      "d": 1618.1510624999937,
      "v": 62
    },
    {
      "midi": 60,
      "hit": false,
      "t": 177534.28799999988,
      "d": 1660.9592916666588,
      "v": 73
    },
    {
      "midi": 45,
      "hit": false,
      "t": 179589.08299999987,
      "d": 1164.383833333326,
      "v": 82
    },
    {
      "midi": 60,
      "hit": false,
      "t": 179589.08299999987,
      "d": 1164.383833333326,
      "v": 73
    },
    {
      "midi": 64,
      "hit": false,
      "t": 179589.08299999987,
      "d": 1164.383833333326,
      "v": 62
    },
    {
      "midi": 69,
      "hit": false,
      "t": 179589.08299999987,
      "d": 1164.383833333326,
      "v": 73
    },
    {
      "midi": 47,
      "hit": false,
      "t": 180719.22024999987,
      "d": 34.24658333332627,
      "v": 1
    },
    {
      "midi": 62,
      "hit": false,
      "t": 180719.22024999987,
      "d": 34.24658333332627,
      "v": 1
    },
    {
      "midi": 66,
      "hit": false,
      "t": 180719.22024999987,
      "d": 34.24658333332627,
      "v": 1
    },
    {
      "midi": 71,
      "hit": false,
      "t": 180719.22024999987,
      "d": 34.24658333332627,
      "v": 1
    },
    {
      "midi": 62,
      "hit": false,
      "t": 180821.95999999985,
      "d": 1626.7127083333326,
      "v": 67
    },
    {
      "midi": 66,
      "hit": false,
      "t": 180821.95999999985,
      "d": 1626.7127083333326,
      "v": 67
    },
    {
      "midi": 71,
      "hit": false,
      "t": 180821.95999999985,
      "d": 1626.7127083333326,
      "v": 94
    },
    {
      "midi": 78,
      "hit": false,
      "t": 180821.95999999985,
      "d": 1626.7127083333326,
      "v": 82
    },
    {
      "midi": 71,
      "hit": false,
      "t": 182465.79599999986,
      "d": 881.8495208333479,
      "v": 82
    },
    {
      "midi": 62,
      "hit": false,
      "t": 182465.79599999986,
      "d": 1267.123583333334,
      "v": 94
    },
    {
      "midi": 59,
      "hit": false,
      "t": 182465.79599999986,
      "d": 1292.8085208333214,
      "v": 67
    },
    {
      "midi": 66,
      "hit": false,
      "t": 183287.71399999986,
      "d": 813.3563541666372,
      "v": 100
    },
    {
      "midi": 64,
      "hit": false,
      "t": 184109.63199999984,
      "d": 1215.75370833333,
      "v": 82
    },
    {
      "midi": 69,
      "hit": false,
      "t": 184109.63199999984,
      "d": 1292.8085208333505,
      "v": 50
    },
    {
      "midi": 45,
      "hit": false,
      "t": 184109.63199999984,
      "d": 1566.7811875000189,
      "v": 73
    },
    {
      "midi": 60,
      "hit": false,
      "t": 184109.63199999984,
      "d": 1601.0277708333451,
      "v": 100
    },
    {
      "midi": 64,
      "hit": false,
      "t": 185342.50899999985,
      "d": 359.5891249999986,
      "v": 73
    },
    {
      "midi": 64,
      "hit": false,
      "t": 185753.46799999985,
      "d": 839.0412916666537,
      "v": 73
    },
    {
      "midi": 69,
      "hit": false,
      "t": 185753.46799999985,
      "d": 1181.5071249999746,
      "v": 100
    },
    {
      "midi": 60,
      "hit": false,
      "t": 185753.46799999985,
      "d": 1464.0414374999818,
      "v": 62
    },
    {
      "midi": 64,
      "hit": false,
      "t": 186678.12574999983,
      "d": 488.01381249999395,
      "v": 13
    },
    {
      "midi": 54,
      "hit": false,
      "t": 187397.30399999983,
      "d": 1472.6030833333207,
      "v": 73
    },
    {
      "midi": 62,
      "hit": false,
      "t": 187397.30399999983,
      "d": 1472.6030833333207,
      "v": 67
    },
    {
      "midi": 66,
      "hit": false,
      "t": 187397.30399999983,
      "d": 1472.6030833333207,
      "v": 73
    },
    {
      "midi": 71,
      "hit": false,
      "t": 187397.30399999983,
      "d": 1472.6030833333207,
      "v": 82
    },
    {
      "midi": 64,
      "hit": false,
      "t": 190684.97599999982,
      "d": 34.24658333332627,
      "v": 53
    },
    {
      "midi": 69,
      "hit": false,
      "t": 190684.97599999982,
      "d": 1575.3428333333286,
      "v": 1
    },
    {
      "midi": 74,
      "hit": false,
      "t": 190684.97599999982,
      "d": 1609.5894166666549,
      "v": 62
    },
    {
      "midi": 47,
      "hit": false,
      "t": 192739.7709999998,
      "d": 1130.1372499999998,
      "v": 82
    },
    {
      "midi": 66,
      "hit": false,
      "t": 192739.7709999998,
      "d": 1130.1372499999998,
      "v": 62
    },
    {
      "midi": 71,
      "hit": false,
      "t": 192739.7709999998,
      "d": 1130.1372499999998,
      "v": 73
    },
    {
      "midi": 62,
      "hit": false,
      "t": 192739.7709999998,
      "d": 1198.6304166666523,
      "v": 73
    },
    {
      "midi": 48,
      "hit": false,
      "t": 193869.9082499998,
      "d": 68.49316666665254,
      "v": 1
    },
    {
      "midi": 72,
      "hit": false,
      "t": 193869.9082499998,
      "d": 68.49316666665254,
      "v": 1
    },
    {
      "midi": 64,
      "hit": false,
      "t": 193972.64799999978,
      "d": 1472.6030833333207,
      "v": 67
    },
    {
      "midi": 67,
      "hit": false,
      "t": 193972.64799999978,
      "d": 1472.6030833333207,
      "v": 67
    },
    {
      "midi": 72,
      "hit": false,
      "t": 193972.64799999978,
      "d": 1472.6030833333207,
      "v": 94
    },
    {
      "midi": 79,
      "hit": false,
      "t": 193972.64799999978,
      "d": 1472.6030833333207,
      "v": 82
    },
    {
      "midi": 74,
      "hit": false,
      "t": 195411.00449999978,
      "d": 154.10962499998277,
      "v": 1
    },
    {
      "midi": 74,
      "hit": false,
      "t": 195616.48399999976,
      "d": 881.8495208333479,
      "v": 82
    },
    {
      "midi": 66,
      "hit": false,
      "t": 195616.48399999976,
      "d": 1267.123583333334,
      "v": 94
    },
    {
      "midi": 62,
      "hit": false,
      "t": 195616.48399999976,
      "d": 1292.8085208333214,
      "v": 67
    },
    {
      "midi": 69,
      "hit": false,
      "t": 196438.40199999977,
      "d": 787.6714166666497,
      "v": 100
    },
    {
      "midi": 69,
      "hit": false,
      "t": 197251.7583541664,
      "d": 1070.205729166657,
      "v": 58
    },
    {
      "midi": 79,
      "hit": false,
      "t": 197251.7583541664,
      "d": 1292.8085208333214,
      "v": 50
    },
    {
      "midi": 55,
      "hit": false,
      "t": 197251.7583541664,
      "d": 1566.7811874999898,
      "v": 73
    },
    {
      "midi": 71,
      "hit": false,
      "t": 197251.7583541664,
      "d": 1601.027770833316,
      "v": 100
    },
    {
      "midi": 74,
      "hit": false,
      "t": 197260.31999999975,
      "d": 25.684937499987427,
      "v": 1
    },
    {
      "midi": 74,
      "hit": false,
      "t": 198493.19699999972,
      "d": 359.5891249999986,
      "v": 73
    },
    {
      "midi": 66,
      "hit": false,
      "t": 198904.15599999973,
      "d": 839.0412916666537,
      "v": 73
    },
    {
      "midi": 71,
      "hit": false,
      "t": 198904.15599999973,
      "d": 1181.5071249999746,
      "v": 100
    },
    {
      "midi": 62,
      "hit": false,
      "t": 198904.15599999973,
      "d": 1369.8633333333128,
      "v": 62
    },
    {
      "midi": 66,
      "hit": false,
      "t": 199828.8137499997,
      "d": 410.95900000000256,
      "v": 13
    },
    {
      "midi": 55,
      "hit": false,
      "t": 200547.9919999997,
      "d": 1472.6030833333207,
      "v": 73
    },
    {
      "midi": 64,
      "hit": false,
      "t": 200547.9919999997,
      "d": 1472.6030833333207,
      "v": 67
    },
    {
      "midi": 67,
      "hit": false,
      "t": 200547.9919999997,
      "d": 1472.6030833333207,
      "v": 73
    },
    {
      "midi": 72,
      "hit": false,
      "t": 200547.9919999997,
      "d": 1472.6030833333207,
      "v": 82
    },
    {
      "midi": 74,
      "hit": false,
      "t": 201986.3484999997,
      "d": 51.36987500000396,
      "v": 1
    },
    {
      "midi": 62,
      "hit": false,
      "t": 203321.96524999972,
      "d": 479.4521666666551,
      "v": 100
    },
    {
      "midi": 66,
      "hit": false,
      "t": 203321.96524999972,
      "d": 496.5754583333328,
      "v": 94
    },
    {
      "midi": 69,
      "hit": false,
      "t": 203321.96524999972,
      "d": 496.5754583333328,
      "v": 62
    },
    {
      "midi": 57,
      "hit": false,
      "t": 203321.96524999972,
      "d": 505.13710416667163,
      "v": 73
    },
    {
      "midi": 74,
      "hit": false,
      "t": 203835.66399999973,
      "d": 17.123291666677687,
      "v": 67
    },
    {
      "midi": 69,
      "hit": false,
      "t": 203835.66399999973,
      "d": 1609.589416666684,
      "v": 53
    },
    {
      "midi": 79,
      "hit": false,
      "t": 203835.66399999973,
      "d": 1609.589416666684,
      "v": 62
    },
    {
      "midi": 47,
      "hit": false,
      "t": 205890.45899999974,
      "d": 1198.6304166666523,
      "v": 82
    },
    {
      "midi": 62,
      "hit": false,
      "t": 205890.45899999974,
      "d": 1198.6304166666523,
      "v": 73
    },
    {
      "midi": 66,
      "hit": false,
      "t": 205890.45899999974,
      "d": 1198.6304166666523,
      "v": 62
    },
    {
      "midi": 71,
      "hit": false,
      "t": 205890.45899999974,
      "d": 1198.6304166666523,
      "v": 73
    },
    {
      "midi": 64,
      "hit": false,
      "t": 207123.33599999972,
      "d": 1438.3564999999944,
      "v": 67
    },
    {
      "midi": 67,
      "hit": false,
      "t": 207123.33599999972,
      "d": 1438.3564999999944,
      "v": 67
    },
    {
      "midi": 72,
      "hit": false,
      "t": 207123.33599999972,
      "d": 1438.3564999999944,
      "v": 94
    },
    {
      "midi": 79,
      "hit": false,
      "t": 207123.33599999972,
      "d": 1438.3564999999944,
      "v": 82
    },
    {
      "midi": 74,
      "hit": false,
      "t": 208561.6924999997,
      "d": 188.35620833333815,
      "v": 1
    },
    {
      "midi": 74,
      "hit": false,
      "t": 208767.17199999973,
      "d": 881.8495208333479,
      "v": 82
    },
    {
      "midi": 66,
      "hit": false,
      "t": 208767.17199999973,
      "d": 1267.123583333334,
      "v": 94
    },
    {
      "midi": 62,
      "hit": false,
      "t": 208767.17199999973,
      "d": 1292.8085208333214,
      "v": 67
    },
    {
      "midi": 69,
      "hit": false,
      "t": 209589.08999999973,
      "d": 787.6714166666497,
      "v": 100
    },
    {
      "midi": 69,
      "hit": false,
      "t": 210411.0079999997,
      "d": 1070.205729166657,
      "v": 58
    },
    {
      "midi": 74,
      "hit": false,
      "t": 210411.0079999997,
      "d": 1215.75370833333,
      "v": 82
    },
    {
      "midi": 79,
      "hit": false,
      "t": 210411.0079999997,
      "d": 1292.8085208333505,
      "v": 50
    },
    {
      "midi": 55,
      "hit": false,
      "t": 210411.0079999997,
      "d": 1566.7811875000189,
      "v": 73
    },
    {
      "midi": 71,
      "hit": false,
      "t": 210411.0079999997,
      "d": 1601.0277708333451,
      "v": 100
    },
    {
      "midi": 74,
      "hit": false,
      "t": 211643.88499999972,
      "d": 359.5891249999986,
      "v": 73
    },
    {
      "midi": 66,
      "hit": false,
      "t": 212054.84399999972,
      "d": 839.0412916666537,
      "v": 73
    },
    {
      "midi": 71,
      "hit": false,
      "t": 212054.84399999972,
      "d": 1181.5071249999746,
      "v": 100
    },
    {
      "midi": 62,
      "hit": false,
      "t": 212054.84399999972,
      "d": 1464.0414374999818,
      "v": 62
    },
    {
      "midi": 66,
      "hit": false,
      "t": 212979.5017499997,
      "d": 488.01381249999395,
      "v": 13
    },
    {
      "midi": 55,
      "hit": false,
      "t": 213698.6799999997,
      "d": 1438.3564999999944,
      "v": 73
    },
    {
      "midi": 64,
      "hit": false,
      "t": 213698.6799999997,
      "d": 1438.3564999999944,
      "v": 67
    },
    {
      "midi": 67,
      "hit": false,
      "t": 213698.6799999997,
      "d": 1438.3564999999944,
      "v": 73
    },
    {
      "midi": 72,
      "hit": false,
      "t": 213698.6799999997,
      "d": 1438.3564999999944,
      "v": 82
    },
    {
      "midi": 74,
      "hit": false,
      "t": 215137.0364999997,
      "d": 85.61645833333023,
      "v": 1
    },
    {
      "midi": 64,
      "hit": false,
      "t": 215753.4749999997,
      "d": 1198.6304166666523,
      "v": 62
    },
    {
      "midi": 66,
      "hit": false,
      "t": 215753.4749999997,
      "d": 1198.6304166666523,
      "v": 73
    },
    {
      "midi": 69,
      "hit": false,
      "t": 215753.4749999997,
      "d": 1198.6304166666523,
      "v": 62
    },
    {
      "midi": 74,
      "hit": false,
      "t": 215753.4749999997,
      "d": 1198.6304166666523,
      "v": 73
    },
    {
      "midi": 64,
      "hit": false,
      "t": 216986.35199999966,
      "d": 1618.1510624999937,
      "v": 67
    },
    {
      "midi": 69,
      "hit": false,
      "t": 216986.35199999966,
      "d": 1618.1510624999937,
      "v": 62
    },
    {
      "midi": 57,
      "hit": false,
      "t": 216986.35199999966,
      "d": 1643.8359999999811,
      "v": 53
    },
    {
      "midi": 60,
      "hit": false,
      "t": 216986.35199999966,
      "d": 1660.9592916666588,
      "v": 73
    },
    {
      "midi": 57,
      "hit": false,
      "t": 219041.14699999965,
      "d": 1095.8906666666735,
      "v": 75
    },
    {
      "midi": 60,
      "hit": false,
      "t": 219041.14699999965,
      "d": 1095.8906666666735,
      "v": 73
    },
    {
      "midi": 64,
      "hit": false,
      "t": 219041.14699999965,
      "d": 1095.8906666666735,
      "v": 62
    },
    {
      "midi": 69,
      "hit": false,
      "t": 219041.14699999965,
      "d": 1095.8906666666735,
      "v": 73
    },
    {
      "midi": 59,
      "hit": false,
      "t": 220171.28424999965,
      "d": 102.73975000000792,
      "v": 1
    },
    {
      "midi": 62,
      "hit": false,
      "t": 220171.28424999965,
      "d": 102.73975000000792,
      "v": 1
    },
    {
      "midi": 66,
      "hit": false,
      "t": 220171.28424999965,
      "d": 102.73975000000792,
      "v": 1
    },
    {
      "midi": 71,
      "hit": false,
      "t": 220171.28424999965,
      "d": 102.73975000000792,
      "v": 1
    },
    {
      "midi": 62,
      "hit": false,
      "t": 220274.02399999966,
      "d": 1626.7127083333326,
      "v": 67
    },
    {
      "midi": 66,
      "hit": false,
      "t": 220274.02399999966,
      "d": 1626.7127083333326,
      "v": 67
    },
    {
      "midi": 71,
      "hit": false,
      "t": 220274.02399999966,
      "d": 1626.7127083333326,
      "v": 94
    },
    {
      "midi": 78,
      "hit": false,
      "t": 220274.02399999966,
      "d": 1626.7127083333326,
      "v": 82
    },
    {
      "midi": 71,
      "hit": false,
      "t": 221917.85999999967,
      "d": 881.8495208333479,
      "v": 82
    },
    {
      "midi": 59,
      "hit": false,
      "t": 221917.85999999967,
      "d": 1164.3838333333551,
      "v": 67
    },
    {
      "midi": 62,
      "hit": false,
      "t": 221917.85999999967,
      "d": 1164.3838333333551,
      "v": 94
    },
    {
      "midi": 66,
      "hit": false,
      "t": 222739.77799999967,
      "d": 342.46583333335,
      "v": 100
    },
    {
      "midi": 57,
      "hit": false,
      "t": 223047.9972499997,
      "d": 128.42468749999534,
      "v": 1
    },
    {
      "midi": 59,
      "hit": false,
      "t": 223561.69599999968,
      "d": 1070.205729166657,
      "v": 58
    },
    {
      "midi": 64,
      "hit": false,
      "t": 223561.69599999968,
      "d": 1215.75370833333,
      "v": 82
    },
    {
      "midi": 69,
      "hit": false,
      "t": 223561.69599999968,
      "d": 1292.8085208333505,
      "v": 50
    },
    {
      "midi": 45,
      "hit": false,
      "t": 223561.69599999968,
      "d": 1566.7811875000189,
      "v": 73
    },
    {
      "midi": 60,
      "hit": false,
      "t": 223561.69599999968,
      "d": 1601.0277708333451,
      "v": 100
    },
    {
      "midi": 64,
      "hit": false,
      "t": 224794.57299999968,
      "d": 359.5891249999986,
      "v": 73
    },
    {
      "midi": 60,
      "hit": false,
      "t": 225205.5319999997,
      "d": 410.95900000000256,
      "v": 62
    },
    {
      "midi": 64,
      "hit": false,
      "t": 225205.5319999997,
      "d": 410.95900000000256,
      "v": 73
    },
    {
      "midi": 69,
      "hit": false,
      "t": 225205.5319999997,
      "d": 410.95900000000256,
      "v": 100
    },
    {
      "midi": 45,
      "hit": false,
      "t": 225616.4909999997,
      "d": 1198.6304166666523,
      "v": 62
    },
    {
      "midi": 60,
      "hit": false,
      "t": 225616.4909999997,
      "d": 1198.6304166666523,
      "v": 73
    },
    {
      "midi": 64,
      "hit": false,
      "t": 225616.4909999997,
      "d": 1198.6304166666523,
      "v": 62
    },
    {
      "midi": 69,
      "hit": false,
      "t": 225616.4909999997,
      "d": 1198.6304166666523,
      "v": 73
    },
    {
      "midi": 66,
      "hit": false,
      "t": 226849.36799999967,
      "d": 1618.1510624999937,
      "v": 67
    },
    {
      "midi": 71,
      "hit": false,
      "t": 226849.36799999967,
      "d": 1618.1510624999937,
      "v": 62
    },
    {
      "midi": 59,
      "hit": false,
      "t": 226849.36799999967,
      "d": 1643.8359999999811,
      "v": 53
    },
    {
      "midi": 62,
      "hit": false,
      "t": 226849.36799999967,
      "d": 1660.9592916666588,
      "v": 73
    },
    {
      "midi": 47,
      "hit": false,
      "t": 228904.16299999965,
      "d": 1164.383833333326,
      "v": 62
    },
    {
      "midi": 62,
      "hit": false,
      "t": 228904.16299999965,
      "d": 1164.383833333326,
      "v": 73
    },
    {
      "midi": 66,
      "hit": false,
      "t": 228904.16299999965,
      "d": 1164.383833333326,
      "v": 62
    },
    {
      "midi": 71,
      "hit": false,
      "t": 228904.16299999965,
      "d": 1164.383833333326,
      "v": 73
    },
    {
      "midi": 64,
      "hit": false,
      "t": 230137.03999999966,
      "d": 1618.1510624999937,
      "v": 67
    },
    {
      "midi": 69,
      "hit": false,
      "t": 230137.03999999966,
      "d": 1618.1510624999937,
      "v": 62
    },
    {
      "midi": 57,
      "hit": false,
      "t": 230137.03999999966,
      "d": 1643.8359999999811,
      "v": 53
    },
    {
      "midi": 60,
      "hit": false,
      "t": 230137.03999999966,
      "d": 1660.9592916666588,
      "v": 73
    },
    {
      "midi": 45,
      "hit": false,
      "t": 232191.83499999964,
      "d": 1198.6304166666523,
      "v": 62
    },
    {
      "midi": 60,
      "hit": false,
      "t": 232191.83499999964,
      "d": 1198.6304166666523,
      "v": 73
    },
    {
      "midi": 64,
      "hit": false,
      "t": 232191.83499999964,
      "d": 1198.6304166666523,
      "v": 62
    },
    {
      "midi": 69,
      "hit": false,
      "t": 232191.83499999964,
      "d": 1198.6304166666523,
      "v": 73
    },
    {
      "midi": 66,
      "hit": false,
      "t": 233424.71199999962,
      "d": 1618.1510624999937,
      "v": 67
    },
    {
      "midi": 71,
      "hit": false,
      "t": 233424.71199999962,
      "d": 1618.1510624999937,
      "v": 62
    },
    {
      "midi": 59,
      "hit": false,
      "t": 233424.71199999962,
      "d": 1643.8359999999811,
      "v": 53
    },
    {
      "midi": 62,
      "hit": false,
      "t": 233424.71199999962,
      "d": 1660.9592916666588,
      "v": 73
    },
    {
      "midi": 59,
      "hit": false,
      "t": 235479.5069999996,
      "d": 821.9180000000051,
      "v": 75
    },
    {
      "midi": 62,
      "hit": false,
      "t": 235479.5069999996,
      "d": 821.9180000000051,
      "v": 73
    },
    {
      "midi": 66,
      "hit": false,
      "t": 235479.5069999996,
      "d": 821.9180000000051,
      "v": 62
    },
    {
      "midi": 71,
      "hit": false,
      "t": 235479.5069999996,
      "d": 821.9180000000051,
      "v": 73
    },
    {
      "midi": 57,
      "hit": false,
      "t": 236301.4249999996,
      "d": 376.7124166666763,
      "v": 1
    },
    {
      "midi": 60,
      "hit": false,
      "t": 236301.4249999996,
      "d": 376.7124166666763,
      "v": 1
    },
    {
      "midi": 64,
      "hit": false,
      "t": 236301.4249999996,
      "d": 376.7124166666763,
      "v": 1
    },
    {
      "midi": 69,
      "hit": false,
      "t": 236301.4249999996,
      "d": 376.7124166666763,
      "v": 1
    },
    {
      "midi": 60,
      "hit": false,
      "t": 236712.3839999996,
      "d": 1626.7127083333326,
      "v": 67
    },
    {
      "midi": 64,
      "hit": false,
      "t": 236712.3839999996,
      "d": 1626.7127083333326,
      "v": 67
    },
    {
      "midi": 69,
      "hit": false,
      "t": 236712.3839999996,
      "d": 1626.7127083333326,
      "v": 94
    },
    {
      "midi": 76,
      "hit": false,
      "t": 236712.3839999996,
      "d": 1626.7127083333326,
      "v": 82
    },
    {
      "midi": 69,
      "hit": false,
      "t": 238356.21999999962,
      "d": 881.8495208333479,
      "v": 82
    },
    {
      "midi": 60,
      "hit": false,
      "t": 238356.21999999962,
      "d": 1267.123583333334,
      "v": 94
    },
    {
      "midi": 57,
      "hit": false,
      "t": 238356.21999999962,
      "d": 1292.8085208333214,
      "v": 67
    },
    {
      "midi": 64,
      "hit": false,
      "t": 239178.13799999963,
      "d": 650.6850833333156,
      "v": 100
    },
    {
      "midi": 66,
      "hit": false,
      "t": 239794.57649999962,
      "d": 162.6712708333216,
      "v": 1
    },
    {
      "midi": 61,
      "hit": false,
      "t": 240000.0559999996,
      "d": 1070.205729166657,
      "v": 58
    },
    {
      "midi": 66,
      "hit": false,
      "t": 240000.0559999996,
      "d": 1215.75370833333,
      "v": 82
    },
    {
      "midi": 71,
      "hit": false,
      "t": 240000.0559999996,
      "d": 1292.8085208333505,
      "v": 50
    },
    {
      "midi": 47,
      "hit": false,
      "t": 240000.0559999996,
      "d": 1566.7811875000189,
      "v": 73
    },
    {
      "midi": 62,
      "hit": false,
      "t": 240000.0559999996,
      "d": 1601.0277708333451,
      "v": 100
    },
    {
      "midi": 66,
      "hit": false,
      "t": 241232.9329999996,
      "d": 359.5891249999986,
      "v": 73
    },
    {
      "midi": 66,
      "hit": false,
      "t": 241643.8919999996,
      "d": 839.0412916666537,
      "v": 73
    },
    {
      "midi": 71,
      "hit": false,
      "t": 241643.8919999996,
      "d": 1181.5071249999746,
      "v": 100
    },
    {
      "midi": 62,
      "hit": false,
      "t": 241643.8919999996,
      "d": 1464.0414374999818,
      "v": 62
    },
    {
      "midi": 54,
      "hit": false,
      "t": 243287.7279999996,
      "d": 102.73975000000792,
      "v": 73
    },
    {
      "midi": 62,
      "hit": false,
      "t": 243287.7279999996,
      "d": 102.73975000000792,
      "v": 67
    },
    {
      "midi": 66,
      "hit": false,
      "t": 243287.7279999996,
      "d": 102.73975000000792,
      "v": 73
    },
    {
      "midi": 71,
      "hit": false,
      "t": 243287.7279999996,
      "d": 102.73975000000792,
      "v": 82
    },
    {
      "midi": 69,
      "hit": false,
      "t": 243390.4677499996,
      "d": 1421.2332083333458,
      "v": 1
    },
    {
      "midi": 64,
      "hit": false,
      "t": 243390.4677499996,
      "d": 1446.9181458333333,
      "v": 1
    },
    {
      "midi": 52,
      "hit": false,
      "t": 243390.4677499996,
      "d": 1515.4113124999858,
      "v": 1
    },
    {
      "midi": 60,
      "hit": false,
      "t": 243390.4677499996,
      "d": 1952.0552499999758,
      "v": 1
    },
    {
      "midi": 64,
      "hit": false,
      "t": 245342.52299999958,
      "d": 556.5069791666756,
      "v": 82
    },
    {
      "midi": 57,
      "hit": false,
      "t": 245342.52299999958,
      "d": 565.0686250000144,
      "v": 73
    },
    {
      "midi": 60,
      "hit": false,
      "t": 245342.52299999958,
      "d": 565.0686250000144,
      "v": 73
    },
    {
      "midi": 69,
      "hit": false,
      "t": 245342.52299999958,
      "d": 565.0686250000144,
      "v": 73
    },
    {
      "midi": 60,
      "hit": false,
      "t": 246061.7012499996,
      "d": 496.5754583333328,
      "v": 100
    },
    {
      "midi": 64,
      "hit": false,
      "t": 246061.7012499996,
      "d": 496.5754583333328,
      "v": 100
    },
    {
      "midi": 69,
      "hit": false,
      "t": 246061.7012499996,
      "d": 530.8220416666882,
      "v": 100
    },
    {
      "midi": 66,
      "hit": false,
      "t": 246575.39999999962,
      "d": 1618.1510625000228,
      "v": 67
    },
    {
      "midi": 71,
      "hit": false,
      "t": 246575.39999999962,
      "d": 1618.1510625000228,
      "v": 62
    },
    {
      "midi": 59,
      "hit": false,
      "t": 246575.39999999962,
      "d": 1643.8360000000102,
      "v": 53
    },
    {
      "midi": 62,
      "hit": false,
      "t": 246575.39999999962,
      "d": 1660.959291666688,
      "v": 73
    },
    {
      "midi": 59,
      "hit": false,
      "t": 248630.19499999963,
      "d": 1198.6304166666523,
      "v": 75
    },
    {
      "midi": 62,
      "hit": false,
      "t": 248630.19499999963,
      "d": 1198.6304166666523,
      "v": 73
    },
    {
      "midi": 66,
      "hit": false,
      "t": 248630.19499999963,
      "d": 1198.6304166666523,
      "v": 62
    },
    {
      "midi": 71,
      "hit": false,
      "t": 248630.19499999963,
      "d": 1198.6304166666523,
      "v": 73
    },
    {
      "midi": 60,
      "hit": false,
      "t": 249863.0719999996,
      "d": 1626.7127083333326,
      "v": 67
    },
    {
      "midi": 64,
      "hit": false,
      "t": 249863.0719999996,
      "d": 1626.7127083333326,
      "v": 67
    },
    {
      "midi": 69,
      "hit": false,
      "t": 249863.0719999996,
      "d": 1626.7127083333326,
      "v": 94
    },
    {
      "midi": 76,
      "hit": false,
      "t": 249863.0719999996,
      "d": 1626.7127083333326,
      "v": 82
    },
    {
      "midi": 69,
      "hit": false,
      "t": 251506.90799999962,
      "d": 881.8495208333479,
      "v": 82
    },
    {
      "midi": 60,
      "hit": false,
      "t": 251506.90799999962,
      "d": 1267.123583333334,
      "v": 94
    },
    {
      "midi": 57,
      "hit": false,
      "t": 251506.90799999962,
      "d": 1292.8085208333214,
      "v": 67
    },
    {
      "midi": 64,
      "hit": false,
      "t": 252328.82599999962,
      "d": 719.1782499999972,
      "v": 100
    },
    {
      "midi": 61,
      "hit": false,
      "t": 253150.74399999963,
      "d": 1070.205729166657,
      "v": 58
    },
    {
      "midi": 66,
      "hit": false,
      "t": 253150.74399999963,
      "d": 1215.75370833333,
      "v": 82
    },
    {
      "midi": 71,
      "hit": false,
      "t": 253150.74399999963,
      "d": 1292.8085208333214,
      "v": 50
    },
    {
      "midi": 47,
      "hit": false,
      "t": 253150.74399999963,
      "d": 1566.7811874999898,
      "v": 73
    },
    {
      "midi": 62,
      "hit": false,
      "t": 253150.74399999963,
      "d": 1601.027770833316,
      "v": 100
    }
  ]
}