{
  "jsonPath": "Soul/Soul Flow/Emilio/i-was-there.json",
  "path": "Soul\\Soul Flow\\Emilio\\I Was There.mid",
  "name": "I Was There",
  "difficulty": "Advanced",
  "bpm": 120,
  "notes": [
    {
      "midi": 60,
      "hit": false,
      "t": 2000,
      "d": 1286.4583333333335,
      "v": 41
    },
    {
      "midi": 57,
      "hit": false,
      "t": 2000,
      "d": 1307.291666666667,
      "v": 42
    },
    {
      "midi": 53,
      "hit": false,
      "t": 2000,
      "d": 1338.541666666667,
      "v": 41
    },
    {
      "midi": 41,
      "hit": false,
      "t": 2000,
      "d": 2036.458333333334,
      "v": 21
    },
    {
      "midi": 36,
      "hit": false,
      "t": 4000.0000000000005,
      "d": 1848.9583333333335,
      "v": 9
    },
    {
      "midi": 55,
      "hit": false,
      "t": 4000.0000000000005,
      "d": 1953.1250000000005,
      "v": 41
    },
    {
      "midi": 52,
      "hit": false,
      "t": 4000.0000000000005,
      "d": 1973.9583333333335,
      "v": 42
    },
    {
      "midi": 48,
      "hit": false,
      "t": 4000.0000000000005,
      "d": 1979.1666666666665,
      "v": 41
    },
    {
      "midi": 31,
      "hit": false,
      "t": 6000,
      "d": 932.291666666667,
      "v": 1
    },
    {
      "midi": 50,
      "hit": false,
      "t": 6500,
      "d": 546.875,
      "v": 41
    },
    {
      "midi": 47,
      "hit": false,
      "t": 6500,
      "d": 557.291666666667,
      "v": 41
    },
    {
      "midi": 55,
      "hit": false,
      "t": 6500,
      "d": 557.291666666667,
      "v": 41
    },
    {
      "midi": 38,
      "hit": false,
      "t": 7000,
      "d": 828.125,
      "v": 1
    },
    {
      "midi": 50,
      "hit": false,
      "t": 7500,
      "d": 494.79166666666697,
      "v": 41
    },
    {
      "midi": 47,
      "hit": false,
      "t": 7500,
      "d": 510.41666666666697,
      "v": 41
    },
    {
      "midi": 55,
      "hit": false,
      "t": 7500,
      "d": 520.8333333333339,
      "v": 41
    },
    {
      "midi": 31,
      "hit": false,
      "t": 8000,
      "d": 979.1666666666661,
      "v": 1
    },
    {
      "midi": 50,
      "hit": false,
      "t": 8500,
      "d": 500,
      "v": 41
    },
    {
      "midi": 47,
      "hit": false,
      "t": 8500,
      "d": 515.625,
      "v": 41
    },
    {
      "midi": 55,
      "hit": false,
      "t": 8500,
      "d": 520.8333333333339,
      "v": 41
    },
    {
      "midi": 38,
      "hit": false,
      "t": 9000,
      "d": 911.4583333333339,
      "v": 1
    },
    {
      "midi": 50,
      "hit": false,
      "t": 9500,
      "d": 489.58333333333394,
      "v": 41
    },
    {
      "midi": 47,
      "hit": false,
      "t": 9500,
      "d": 510.41666666666606,
      "v": 41
    },
    {
      "midi": 55,
      "hit": false,
      "t": 9500,
      "d": 526.0416666666661,
      "v": 41
    },
    {
      "midi": 31,
      "hit": false,
      "t": 10000,
      "d": 973.9583333333339,
      "v": 1
    },
    {
      "midi": 47,
      "hit": false,
      "t": 10500,
      "d": 375,
      "v": 41
    },
    {
      "midi": 55,
      "hit": false,
      "t": 10500,
      "d": 380.20833333333394,
      "v": 41
    },
    {
      "midi": 50,
      "hit": false,
      "t": 10500,
      "d": 385.4166666666679,
      "v": 41
    },
    {
      "midi": 38,
      "hit": false,
      "t": 11000,
      "d": 947.9166666666679,
      "v": 1
    },
    {
      "midi": 55,
      "hit": false,
      "t": 11500,
      "d": 328.125,
      "v": 41
    },
    {
      "midi": 47,
      "hit": false,
      "t": 11500,
      "d": 333.33333333333394,
      "v": 41
    },
    {
      "midi": 50,
      "hit": false,
      "t": 11500,
      "d": 354.1666666666679,
      "v": 41
    },
    {
      "midi": 31,
      "hit": false,
      "t": 12000.000000000002,
      "d": 1000,
      "v": 1
    },
    {
      "midi": 55,
      "hit": false,
      "t": 12500.000000000002,
      "d": 348.95833333333394,
      "v": 41
    },
    {
      "midi": 47,
      "hit": false,
      "t": 12500.000000000002,
      "d": 359.375,
      "v": 41
    },
    {
      "midi": 50,
      "hit": false,
      "t": 12500.000000000002,
      "d": 364.58333333333394,
      "v": 41
    },
    {
      "midi": 38,
      "hit": false,
      "t": 13000.000000000002,
      "d": 994.7916666666661,
      "v": 1
    },
    {
      "midi": 55,
      "hit": false,
      "t": 13500.000000000002,
      "d": 333.33333333333394,
      "v": 41
    },
    {
      "midi": 50,
      "hit": false,
      "t": 13500.000000000002,
      "d": 380.20833333333394,
      "v": 41
    },
    {
      "midi": 47,
      "hit": false,
      "t": 13500.000000000002,
      "d": 390.625,
      "v": 41
    },
    {
      "midi": 31,
      "hit": false,
      "t": 14000.000000000002,
      "d": 906.25,
      "v": 1
    },
    {
      "midi": 55,
      "hit": false,
      "t": 14500.000000000002,
      "d": 416.66666666666606,
      "v": 41
    },
    {
      "midi": 50,
      "hit": false,
      "t": 14500.000000000002,
      "d": 427.0833333333321,
      "v": 41
    },
    {
      "midi": 47,
      "hit": false,
      "t": 14500.000000000002,
      "d": 458.3333333333321,
      "v": 41
    },
    {
      "midi": 31,
      "hit": false,
      "t": 15000,
      "d": 927.0833333333321,
      "v": 1
    },
    {
      "midi": 55,
      "hit": false,
      "t": 15500,
      "d": 338.54166666666606,
      "v": 41
    },
    {
      "midi": 47,
      "hit": false,
      "t": 15500,
      "d": 348.9583333333321,
      "v": 41
    },
    {
      "midi": 50,
      "hit": false,
      "t": 15500,
      "d": 520.8333333333321,
      "v": 41
    },
    {
      "midi": 36,
      "hit": false,
      "t": 15999.999999999998,
      "d": 1067.708333333334,
      "v": 1
    },
    {
      "midi": 55,
      "hit": false,
      "t": 16500,
      "d": 395.8333333333321,
      "v": 41
    },
    {
      "midi": 48,
      "hit": false,
      "t": 16500,
      "d": 406.25,
      "v": 41
    },
    {
      "midi": 52,
      "hit": false,
      "t": 16500,
      "d": 416.6666666666679,
      "v": 41
    },
    {
      "midi": 43,
      "hit": false,
      "t": 17000,
      "d": 958.3333333333358,
      "v": 1
    },
    {
      "midi": 55,
      "hit": false,
      "t": 17500,
      "d": 416.6666666666679,
      "v": 41
    },
    {
      "midi": 52,
      "hit": false,
      "t": 17500,
      "d": 442.70833333333576,
      "v": 41
    },
    {
      "midi": 48,
      "hit": false,
      "t": 17500,
      "d": 453.12500000000364,
      "v": 41
    },
    {
      "midi": 36,
      "hit": false,
      "t": 18000.000000000004,
      "d": 885.4166666666679,
      "v": 1
    },
    {
      "midi": 55,
      "hit": false,
      "t": 18500.000000000004,
      "d": 437.5,
      "v": 41
    },
    {
      "midi": 48,
      "hit": false,
      "t": 18500.000000000004,
      "d": 463.5416666666679,
      "v": 41
    },
    {
      "midi": 52,
      "hit": false,
      "t": 18500.000000000004,
      "d": 463.5416666666679,
      "v": 41
    },
    {
      "midi": 36,
      "hit": false,
      "t": 19000.000000000004,
      "d": 932.2916666666642,
      "v": 1
    },
    {
      "midi": 55,
      "hit": false,
      "t": 19500.000000000004,
      "d": 364.5833333333321,
      "v": 41
    },
    {
      "midi": 52,
      "hit": false,
      "t": 19500.000000000004,
      "d": 375,
      "v": 41
    },
    {
      "midi": 48,
      "hit": false,
      "t": 19500.000000000004,
      "d": 395.8333333333321,
      "v": 41
    },
    {
      "midi": 31,
      "hit": false,
      "t": 20000,
      "d": 958.3333333333358,
      "v": 1
    },
    {
      "midi": 55,
      "hit": false,
      "t": 20500,
      "d": 395.8333333333321,
      "v": 41
    },
    {
      "midi": 50,
      "hit": false,
      "t": 20500,
      "d": 406.25,
      "v": 41
    },
    {
      "midi": 47,
      "hit": false,
      "t": 20500,
      "d": 432.2916666666679,
      "v": 41
    },
    {
      "midi": 38,
      "hit": false,
      "t": 21000.000000000004,
      "d": 927.0833333333321,
      "v": 1
    },
    {
      "midi": 55,
      "hit": false,
      "t": 21500.000000000004,
      "d": 380.2083333333321,
      "v": 41
    },
    {
      "midi": 47,
      "hit": false,
      "t": 21500.000000000004,
      "d": 385.41666666666424,
      "v": 41
    },
    {
      "midi": 50,
      "hit": false,
      "t": 21500.000000000004,
      "d": 395.8333333333321,
      "v": 41
    },
    {
      "midi": 31,
      "hit": false,
      "t": 22000.000000000004,
      "d": 828.125,
      "v": 1
    },
    {
      "midi": 55,
      "hit": false,
      "t": 22500.000000000004,
      "d": 406.25,
      "v": 41
    },
    {
      "midi": 50,
      "hit": false,
      "t": 22500.000000000004,
      "d": 427.0833333333321,
      "v": 41
    },
    {
      "midi": 47,
      "hit": false,
      "t": 22500.000000000004,
      "d": 437.5,
      "v": 41
    },
    {
      "midi": 31,
      "hit": false,
      "t": 23000.000000000004,
      "d": 984.375,
      "v": 1
    },
    {
      "midi": 55,
      "hit": false,
      "t": 23500.000000000004,
      "d": 270.8333333333321,
      "v": 41
    },
    {
      "midi": 50,
      "hit": false,
      "t": 23500.000000000004,
      "d": 328.125,
      "v": 41
    },
    {
      "midi": 47,
      "hit": false,
      "t": 23500.000000000004,
      "d": 354.1666666666679,
      "v": 41
    },
    {
      "midi": 38,
      "hit": false,
      "t": 24000.000000000004,
      "d": 822.9166666666679,
      "v": 1
    },
    {
      "midi": 50,
      "hit": false,
      "t": 24500.000000000004,
      "d": 489.58333333333576,
      "v": 41
    },
    {
      "midi": 54,
      "hit": false,
      "t": 24500.000000000004,
      "d": 494.7916666666679,
      "v": 41
    },
    {
      "midi": 45,
      "hit": false,
      "t": 24500.000000000004,
      "d": 546.875,
      "v": 41
    },
    {
      "midi": 38,
      "hit": false,
      "t": 25000.000000000004,
      "d": 260.4166666666679,
      "v": 1
    },
    {
      "midi": 36,
      "hit": false,
      "t": 25250.000000000004,
      "d": 203.125,
      "v": 1
    },
    {
      "midi": 50,
      "hit": false,
      "t": 25500.000000000004,
      "d": 421.875,
      "v": 41
    },
    {
      "midi": 54,
      "hit": false,
      "t": 25500.000000000004,
      "d": 421.875,
      "v": 41
    },
    {
      "midi": 45,
      "hit": false,
      "t": 25500.000000000004,
      "d": 437.5,
      "v": 41
    },
    {
      "midi": 34,
      "hit": false,
      "t": 25500.000000000004,
      "d": 531.25,
      "v": 9
    },
    {
      "midi": 31,
      "hit": false,
      "t": 26000.000000000004,
      "d": 828.125,
      "v": 1
    },
    {
      "midi": 55,
      "hit": false,
      "t": 26500.000000000004,
      "d": 421.875,
      "v": 41
    },
    {
      "midi": 50,
      "hit": false,
      "t": 26500.000000000004,
      "d": 432.2916666666679,
      "v": 41
    },
    {
      "midi": 47,
      "hit": false,
      "t": 26500.000000000004,
      "d": 479.1666666666679,
      "v": 41
    },
    {
      "midi": 38,
      "hit": false,
      "t": 27000.000000000004,
      "d": 921.875,
      "v": 1
    },
    {
      "midi": 55,
      "hit": false,
      "t": 27500.000000000004,
      "d": 411.4583333333321,
      "v": 41
    },
    {
      "midi": 50,
      "hit": false,
      "t": 27500.000000000004,
      "d": 442.7083333333321,
      "v": 41
    },
    {
      "midi": 47,
      "hit": false,
      "t": 27500.000000000004,
      "d": 447.91666666666424,
      "v": 41
    },
    {
      "midi": 31,
      "hit": false,
      "t": 28000,
      "d": 932.2916666666679,
      "v": 1
    },
    {
      "midi": 55,
      "hit": false,
      "t": 28500,
      "d": 458.33333333333576,
      "v": 41
    },
    {
      "midi": 47,
      "hit": false,
      "t": 28500,
      "d": 505.20833333333576,
      "v": 41
    },
    {
      "midi": 50,
      "hit": false,
      "t": 28500,
      "d": 515.6250000000036,
      "v": 41
    },
    {
      "midi": 38,
      "hit": false,
      "t": 29000.000000000004,
      "d": 911.4583333333321,
      "v": 1
    },
    {
      "midi": 55,
      "hit": false,
      "t": 29500.000000000004,
      "d": 437.5,
      "v": 41
    },
    {
      "midi": 50,
      "hit": false,
      "t": 29500.000000000004,
      "d": 468.75,
      "v": 41
    },
    {
      "midi": 47,
      "hit": false,
      "t": 29500.000000000004,
      "d": 484.375,
      "v": 41
    },
    {
      "midi": 31,
      "hit": false,
      "t": 30000.000000000004,
      "d": 843.75,
      "v": 1
    },
    {
      "midi": 55,
      "hit": false,
      "t": 30500.000000000004,
      "d": 458.3333333333321,
      "v": 41
    },
    {
      "midi": 50,
      "hit": false,
      "t": 30500.000000000004,
      "d": 479.16666666666424,
      "v": 41
    },
    {
      "midi": 47,
      "hit": false,
      "t": 30500.000000000004,
      "d": 484.37499999999636,
      "v": 41
    },
    {
      "midi": 31,
      "hit": false,
      "t": 31000,
      "d": 979.1666666666642,
      "v": 9
    },
    {
      "midi": 55,
      "hit": false,
      "t": 31500,
      "d": 380.2083333333321,
      "v": 41
    },
    {
      "midi": 47,
      "hit": false,
      "t": 31500,
      "d": 432.29166666666424,
      "v": 41
    },
    {
      "midi": 50,
      "hit": false,
      "t": 31500,
      "d": 520.8333333333285,
      "v": 41
    },
    {
      "midi": 36,
      "hit": false,
      "t": 31999.999999999996,
      "d": 973.9583333333321,
      "v": 1
    },
    {
      "midi": 55,
      "hit": false,
      "t": 32499.999999999996,
      "d": 458.3333333333321,
      "v": 41
    },
    {
      "midi": 52,
      "hit": false,
      "t": 32499.999999999996,
      "d": 520.8333333333321,
      "v": 41
    },
    {
      "midi": 48,
      "hit": false,
      "t": 32499.999999999996,
      "d": 546.8749999999964,
      "v": 41
    },
    {
      "midi": 31,
      "hit": false,
      "t": 32999.99999999999,
      "d": 890.625,
      "v": 1
    },
    {
      "midi": 55,
      "hit": false,
      "t": 33499.99999999999,
      "d": 484.375,
      "v": 41
    },
    {
      "midi": 48,
      "hit": false,
      "t": 33499.99999999999,
      "d": 520.8333333333358,
      "v": 41
    },
    {
      "midi": 52,
      "hit": false,
      "t": 33499.99999999999,
      "d": 531.25,
      "v": 41
    },
    {
      "midi": 36,
      "hit": false,
      "t": 33999.99999999999,
      "d": 911.4583333333358,
      "v": 1
    },
    {
      "midi": 55,
      "hit": false,
      "t": 34499.99999999999,
      "d": 458.33333333333576,
      "v": 41
    },
    {
      "midi": 48,
      "hit": false,
      "t": 34499.99999999999,
      "d": 505.20833333333576,
      "v": 41
    },
    {
      "midi": 52,
      "hit": false,
      "t": 34499.99999999999,
      "d": 515.625,
      "v": 41
    },
    {
      "midi": 36,
      "hit": false,
      "t": 34999.99999999999,
      "d": 921.8749999999927,
      "v": 1
    },
    {
      "midi": 55,
      "hit": false,
      "t": 35499.99999999999,
      "d": 385.41666666666424,
      "v": 41
    },
    {
      "midi": 52,
      "hit": false,
      "t": 35499.99999999999,
      "d": 395.8333333333285,
      "v": 41
    },
    {
      "midi": 48,
      "hit": false,
      "t": 35499.99999999999,
      "d": 411.4583333333285,
      "v": 41
    },
    {
      "midi": 31,
      "hit": false,
      "t": 35999.999999999985,
      "d": 890.625,
      "v": 1
    },
    {
      "midi": 50,
      "hit": false,
      "t": 36499.999999999985,
      "d": 463.54166666666424,
      "v": 41
    },
    {
      "midi": 55,
      "hit": false,
      "t": 36499.999999999985,
      "d": 484.375,
      "v": 41
    },
    {
      "midi": 47,
      "hit": false,
      "t": 36499.999999999985,
      "d": 500,
      "v": 41
    },
    {
      "midi": 31,
      "hit": false,
      "t": 36999.999999999985,
      "d": 947.9166666666642,
      "v": 1
    },
    {
      "midi": 50,
      "hit": false,
      "t": 37499.999999999985,
      "d": 447.91666666666424,
      "v": 41
    },
    {
      "midi": 55,
      "hit": false,
      "t": 37499.999999999985,
      "d": 479.16666666666424,
      "v": 41
    },
    {
      "midi": 47,
      "hit": false,
      "t": 37499.999999999985,
      "d": 505.20833333333576,
      "v": 41
    },
    {
      "midi": 38,
      "hit": false,
      "t": 37999.999999999985,
      "d": 906.25,
      "v": 1
    },
    {
      "midi": 54,
      "hit": false,
      "t": 38499.999999999985,
      "d": 458.33333333333576,
      "v": 41
    },
    {
      "midi": 50,
      "hit": false,
      "t": 38499.999999999985,
      "d": 484.375,
      "v": 41
    },
    {
      "midi": 45,
      "hit": false,
      "t": 38499.999999999985,
      "d": 515.625,
      "v": 41
    },
    {
      "midi": 38,
      "hit": false,
      "t": 38999.999999999985,
      "d": 953.1249999999927,
      "v": 1
    },
    {
      "midi": 54,
      "hit": false,
      "t": 39499.999999999985,
      "d": 406.25,
      "v": 41
    },
    {
      "midi": 50,
      "hit": false,
      "t": 39499.999999999985,
      "d": 416.66666666666424,
      "v": 41
    },
    {
      "midi": 45,
      "hit": false,
      "t": 39499.999999999985,
      "d": 427.0833333333285,
      "v": 41
    },
    {
      "midi": 31,
      "hit": false,
      "t": 39999.99999999998,
      "d": 932.2916666666642,
      "v": 1
    },
    {
      "midi": 55,
      "hit": false,
      "t": 40499.99999999998,
      "d": 437.5,
      "v": 41
    },
    {
      "midi": 50,
      "hit": false,
      "t": 40499.99999999998,
      "d": 468.75,
      "v": 41
    },
    {
      "midi": 47,
      "hit": false,
      "t": 40499.99999999998,
      "d": 479.16666666666424,
      "v": 41
    },
    {
      "midi": 38,
      "hit": false,
      "t": 40999.99999999998,
      "d": 968.75,
      "v": 1
    },
    {
      "midi": 55,
      "hit": false,
      "t": 41499.99999999998,
      "d": 432.29166666666424,
      "v": 41
    },
    {
      "midi": 50,
      "hit": false,
      "t": 41499.99999999998,
      "d": 447.91666666666424,
      "v": 41
    },
    {
      "midi": 47,
      "hit": false,
      "t": 41499.99999999998,
      "d": 463.54166666666424,
      "v": 41
    },
    {
      "midi": 31,
      "hit": false,
      "t": 41999.99999999998,
      "d": 880.2083333333358,
      "v": 1
    },
    {
      "midi": 50,
      "hit": false,
      "t": 42499.99999999998,
      "d": 468.75,
      "v": 41
    },
    {
      "midi": 55,
      "hit": false,
      "t": 42499.99999999998,
      "d": 473.95833333333576,
      "v": 41
    },
    {
      "midi": 47,
      "hit": false,
      "t": 42499.99999999998,
      "d": 500,
      "v": 41
    },
    {
      "midi": 33,
      "hit": false,
      "t": 42999.99999999998,
      "d": 500,
      "v": 1
    },
    {
      "midi": 47,
      "hit": false,
      "t": 43499.99999999998,
      "d": 421.875,
      "v": 41
    },
    {
      "midi": 55,
      "hit": false,
      "t": 43499.99999999998,
      "d": 427.08333333333576,
      "v": 41
    },
    {
      "midi": 50,
      "hit": false,
      "t": 43499.99999999998,
      "d": 468.75,
      "v": 41
    },
    {
      "midi": 35,
      "hit": false,
      "t": 43499.99999999998,
      "d": 473.95833333333576,
      "v": 1
    },
    {
      "midi": 36,
      "hit": false,
      "t": 43999.99999999998,
      "d": 885.4166666666642,
      "v": 1
    },
    {
      "midi": 48,
      "hit": false,
      "t": 44499.99999999998,
      "d": 401.04166666666424,
      "v": 41
    },
    {
      "midi": 55,
      "hit": false,
      "t": 44499.99999999998,
      "d": 406.25,
      "v": 41
    },
    {
      "midi": 52,
      "hit": false,
      "t": 44499.99999999998,
      "d": 427.08333333333576,
      "v": 41
    },
    {
      "midi": 31,
      "hit": false,
      "t": 44999.99999999998,
      "d": 104.16666666666424,
      "v": 1
    },
    {
      "midi": 31,
      "hit": false,
      "t": 45249.99999999998,
      "d": 718.75,
      "v": 1
    },
    {
      "midi": 55,
      "hit": false,
      "t": 45499.99999999998,
      "d": 453.125,
      "v": 41
    },
    {
      "midi": 48,
      "hit": false,
      "t": 45499.99999999998,
      "d": 463.54166666666424,
      "v": 41
    },
    {
      "midi": 52,
      "hit": false,
      "t": 45499.99999999998,
      "d": 468.75,
      "v": 41
    },
    {
      "midi": 36,
      "hit": false,
      "t": 45999.99999999998,
      "d": 781.25,
      "v": 1
    },
    {
      "midi": 55,
      "hit": false,
      "t": 46499.99999999998,
      "d": 437.5,
      "v": 41
    },
    {
      "midi": 52,
      "hit": false,
      "t": 46499.99999999998,
      "d": 479.16666666666424,
      "v": 41
    },
    {
      "midi": 48,
      "hit": false,
      "t": 46499.99999999998,
      "d": 494.79166666666424,
      "v": 41
    },
    {
      "midi": 36,
      "hit": false,
      "t": 46999.99999999998,
      "d": 62.5,
      "v": 1
    },
    {
      "midi": 38,
      "hit": false,
      "t": 47249.99999999998,
      "d": 276.04166666666424,
      "v": 3
    },
    {
      "midi": 52,
      "hit": false,
      "t": 47499.99999999998,
      "d": 411.4583333333285,
      "v": 41
    },
    {
      "midi": 55,
      "hit": false,
      "t": 47499.99999999998,
      "d": 416.66666666666424,
      "v": 41
    },
    {
      "midi": 48,
      "hit": false,
      "t": 47499.99999999998,
      "d": 447.91666666666424,
      "v": 41
    },
    {
      "midi": 34,
      "hit": false,
      "t": 47499.99999999998,
      "d": 505.20833333333576,
      "v": 1
    },
    {
      "midi": 31,
      "hit": false,
      "t": 47999.99999999998,
      "d": 859.375,
      "v": 1
    },
    {
      "midi": 50,
      "hit": false,
      "t": 48499.99999999998,
      "d": 463.54166666666424,
      "v": 41
    },
    {
      "midi": 55,
      "hit": false,
      "t": 48499.99999999998,
      "d": 463.54166666666424,
      "v": 41
    },
    {
      "midi": 47,
      "hit": false,
      "t": 48499.99999999998,
      "d": 500,
      "v": 41
    },
    {
      "midi": 38,
      "hit": false,
      "t": 48999.99999999998,
      "d": 72.91666666666424,
      "v": 1
    },
    {
      "midi": 38,
      "hit": false,
      "t": 49249.99999999998,
      "d": 677.0833333333358,
      "v": 1
    },
    {
      "midi": 55,
      "hit": false,
      "t": 49499.99999999998,
      "d": 479.1666666666715,
      "v": 41
    },
    {
      "midi": 50,
      "hit": false,
      "t": 49499.99999999998,
      "d": 500.0000000000073,
      "v": 41
    },
    {
      "midi": 47,
      "hit": false,
      "t": 49499.99999999998,
      "d": 541.6666666666715,
      "v": 41
    },
    {
      "midi": 31,
      "hit": false,
      "t": 49999.999999999985,
      "d": 750,
      "v": 1
    },
    {
      "midi": 50,
      "hit": false,
      "t": 50499.999999999985,
      "d": 489.58333333333576,
      "v": 41
    },
    {
      "midi": 55,
      "hit": false,
      "t": 50499.999999999985,
      "d": 505.20833333333576,
      "v": 41
    },
    {
      "midi": 47,
      "hit": false,
      "t": 50499.999999999985,
      "d": 520.8333333333358,
      "v": 41
    },
    {
      "midi": 31,
      "hit": false,
      "t": 50999.999999999985,
      "d": 93.75,
      "v": 1
    },
    {
      "midi": 31,
      "hit": false,
      "t": 51249.999999999985,
      "d": 255.20833333333576,
      "v": 9
    },
    {
      "midi": 35,
      "hit": false,
      "t": 51499.999999999985,
      "d": 260.41666666666424,
      "v": 1
    },
    {
      "midi": 55,
      "hit": false,
      "t": 51499.999999999985,
      "d": 390.625,
      "v": 41
    },
    {
      "midi": 47,
      "hit": false,
      "t": 51499.999999999985,
      "d": 447.91666666666424,
      "v": 41
    },
    {
      "midi": 50,
      "hit": false,
      "t": 51499.999999999985,
      "d": 453.125,
      "v": 41
    },
    {
      "midi": 36,
      "hit": false,
      "t": 51749.999999999985,
      "d": 255.20833333333576,
      "v": 1
    },
    {
      "midi": 38,
      "hit": false,
      "t": 51999.999999999985,
      "d": 989.5833333333358,
      "v": 3
    },
    {
      "midi": 50,
      "hit": false,
      "t": 52499.999999999985,
      "d": 489.58333333333576,
      "v": 41
    },
    {
      "midi": 54,
      "hit": false,
      "t": 52499.999999999985,
      "d": 494.7916666666715,
      "v": 41
    },
    {
      "midi": 57,
      "hit": false,
      "t": 52499.999999999985,
      "d": 494.7916666666715,
      "v": 41
    },
    {
      "midi": 33,
      "hit": false,
      "t": 52999.99999999999,
      "d": 109.375,
      "v": 1
    },
    {
      "midi": 33,
      "hit": false,
      "t": 53249.99999999999,
      "d": 729.1666666666715,
      "v": 3
    },
    {
      "midi": 54,
      "hit": false,
      "t": 53499.99999999999,
      "d": 458.33333333333576,
      "v": 41
    },
    {
      "midi": 57,
      "hit": false,
      "t": 53499.99999999999,
      "d": 463.5416666666715,
      "v": 41
    },
    {
      "midi": 50,
      "hit": false,
      "t": 53499.99999999999,
      "d": 468.7500000000073,
      "v": 41
    },
    {
      "midi": 38,
      "hit": false,
      "t": 54000,
      "d": 942.7083333333358,
      "v": 1
    },
    {
      "midi": 54,
      "hit": false,
      "t": 54500,
      "d": 510.41666666666424,
      "v": 41
    },
    {
      "midi": 50,
      "hit": false,
      "t": 54500,
      "d": 515.625,
      "v": 41
    },
    {
      "midi": 57,
      "hit": false,
      "t": 54500,
      "d": 520.8333333333358,
      "v": 41
    },
    {
      "midi": 36,
      "hit": false,
      "t": 55000,
      "d": 229.16666666667152,
      "v": 1
    },
    {
      "midi": 38,
      "hit": false,
      "t": 55250.00000000001,
      "d": 281.25,
      "v": 1
    },
    {
      "midi": 57,
      "hit": false,
      "t": 55500.00000000001,
      "d": 395.83333333333576,
      "v": 41
    },
    {
      "midi": 54,
      "hit": false,
      "t": 55500.00000000001,
      "d": 458.33333333333576,
      "v": 41
    },
    {
      "midi": 50,
      "hit": false,
      "t": 55500.00000000001,
      "d": 515.625,
      "v": 41
    },
    {
      "midi": 34,
      "hit": false,
      "t": 55500.00000000001,
      "d": 520.8333333333358,
      "v": 1
    },
    {
      "midi": 31,
      "hit": false,
      "t": 56000.00000000001,
      "d": 880.2083333333358,
      "v": 1
    },
    {
      "midi": 55,
      "hit": false,
      "t": 56500.00000000001,
      "d": 484.375,
      "v": 41
    },
    {
      "midi": 47,
      "hit": false,
      "t": 56500.00000000001,
      "d": 515.625,
      "v": 41
    },
    {
      "midi": 50,
      "hit": false,
      "t": 56500.00000000001,
      "d": 515.625,
      "v": 41
    },
    {
      "midi": 38,
      "hit": false,
      "t": 57000.00000000001,
      "d": 78.125,
      "v": 1
    },
    {
      "midi": 38,
      "hit": false,
      "t": 57250.00000000001,
      "d": 750,
      "v": 1
    },
    {
      "midi": 50,
      "hit": false,
      "t": 57500.00000000001,
      "d": 505.20833333333576,
      "v": 41
    },
    {
      "midi": 47,
      "hit": false,
      "t": 57500.00000000001,
      "d": 510.4166666666715,
      "v": 41
    },
    {
      "midi": 55,
      "hit": false,
      "t": 57500.00000000001,
      "d": 526.0416666666715,
      "v": 41
    },
    {
      "midi": 31,
      "hit": false,
      "t": 58000.00000000001,
      "d": 807.2916666666715,
      "v": 1
    },
    {
      "midi": 47,
      "hit": false,
      "t": 58500.000000000015,
      "d": 473.9583333333285,
      "v": 41
    },
    {
      "midi": 50,
      "hit": false,
      "t": 58500.000000000015,
      "d": 473.9583333333285,
      "v": 41
    },
    {
      "midi": 55,
      "hit": false,
      "t": 58500.000000000015,
      "d": 473.9583333333285,
      "v": 41
    },
    {
      "midi": 31,
      "hit": false,
      "t": 59000.00000000001,
      "d": 83.33333333333576,
      "v": 1
    },
    {
      "midi": 31,
      "hit": false,
      "t": 59250.00000000001,
      "d": 729.1666666666642,
      "v": 1
    },
    {
      "midi": 47,
      "hit": false,
      "t": 59500.00000000001,
      "d": 421.875,
      "v": 41
    },
    {
      "midi": 55,
      "hit": false,
      "t": 59500.00000000001,
      "d": 421.875,
      "v": 41
    },
    {
      "midi": 50,
      "hit": false,
      "t": 59500.00000000001,
      "d": 479.16666666666424,
      "v": 41
    },
    {
      "midi": 36,
      "hit": false,
      "t": 60000.00000000001,
      "d": 880.2083333333358,
      "v": 1
    },
    {
      "midi": 55,
      "hit": false,
      "t": 60500.00000000001,
      "d": 500,
      "v": 41
    },
    {
      "midi": 52,
      "hit": false,
      "t": 60500.00000000001,
      "d": 505.20833333333576,
      "v": 41
    },
    {
      "midi": 48,
      "hit": false,
      "t": 60500.00000000001,
      "d": 515.625,
      "v": 41
    },
    {
      "midi": 31,
      "hit": false,
      "t": 61000.00000000001,
      "d": 88.54166666666424,
      "v": 1
    },
    {
      "midi": 31,
      "hit": false,
      "t": 61250.00000000001,
      "d": 734.375,
      "v": 1
    },
    {
      "midi": 48,
      "hit": false,
      "t": 61500.00000000001,
      "d": 489.58333333333576,
      "v": 41
    },
    {
      "midi": 52,
      "hit": false,
      "t": 61500.00000000001,
      "d": 494.7916666666715,
      "v": 41
    },
    {
      "midi": 55,
      "hit": false,
      "t": 61500.00000000001,
      "d": 500.0000000000073,
      "v": 41
    },
    {
      "midi": 36,
      "hit": false,
      "t": 62000.000000000015,
      "d": 812.5,
      "v": 1
    },
    {
      "midi": 55,
      "hit": false,
      "t": 62500.000000000015,
      "d": 484.375,
      "v": 41
    },
    {
      "midi": 52,
      "hit": false,
      "t": 62500.000000000015,
      "d": 505.20833333333576,
      "v": 41
    },
    {
      "midi": 48,
      "hit": false,
      "t": 62500.000000000015,
      "d": 531.25,
      "v": 41
    },
    {
      "midi": 36,
      "hit": false,
      "t": 63000.000000000015,
      "d": 255.20833333333576,
      "v": 1
    },
    {
      "midi": 38,
      "hit": false,
      "t": 63250.000000000015,
      "d": 250,
      "v": 1
    },
    {
      "midi": 55,
      "hit": false,
      "t": 63500.000000000015,
      "d": 406.25,
      "v": 41
    },
    {
      "midi": 48,
      "hit": false,
      "t": 63500.000000000015,
      "d": 416.66666666666424,
      "v": 41
    },
    {
      "midi": 52,
      "hit": false,
      "t": 63500.000000000015,
      "d": 437.5,
      "v": 41
    },
    {
      "midi": 34,
      "hit": false,
      "t": 63500.000000000015,
      "d": 500,
      "v": 3
    },
    {
      "midi": 31,
      "hit": false,
      "t": 64000.000000000015,
      "d": 838.5416666666642,
      "v": 1
    },
    {
      "midi": 55,
      "hit": false,
      "t": 64500.000000000015,
      "d": 500,
      "v": 41
    },
    {
      "midi": 50,
      "hit": false,
      "t": 64500.000000000015,
      "d": 520.8333333333358,
      "v": 41
    },
    {
      "midi": 47,
      "hit": false,
      "t": 64500.000000000015,
      "d": 531.25,
      "v": 41
    },
    {
      "midi": 38,
      "hit": false,
      "t": 65000.000000000015,
      "d": 83.33333333333576,
      "v": 1
    },
    {
      "midi": 38,
      "hit": false,
      "t": 65250.000000000015,
      "d": 687.5,
      "v": 1
    },
    {
      "midi": 47,
      "hit": false,
      "t": 65500.000000000015,
      "d": 505.2083333333285,
      "v": 41
    },
    {
      "midi": 50,
      "hit": false,
      "t": 65500.000000000015,
      "d": 510.41666666665697,
      "v": 41
    },
    {
      "midi": 55,
      "hit": false,
      "t": 65500.000000000015,
      "d": 515.6249999999854,
      "v": 41
    },
    {
      "midi": 31,
      "hit": false,
      "t": 66000.00000000001,
      "d": 718.7499999999854,
      "v": 1
    },
    {
      "midi": 50,
      "hit": false,
      "t": 66500,
      "d": 578.125,
      "v": 41
    },
    {
      "midi": 55,
      "hit": false,
      "t": 66500,
      "d": 583.3333333333285,
      "v": 41
    },
    {
      "midi": 47,
      "hit": false,
      "t": 66500,
      "d": 588.541666666657,
      "v": 41
    },
    {
      "midi": 31,
      "hit": false,
      "t": 67000,
      "d": 98.95833333332848,
      "v": 1
    },
    {
      "midi": 31,
      "hit": false,
      "t": 67250,
      "d": 213.54166666667152,
      "v": 1
    },
    {
      "midi": 47,
      "hit": false,
      "t": 67500,
      "d": 83.33333333332848,
      "v": 41
    },
    {
      "midi": 50,
      "hit": false,
      "t": 67500,
      "d": 88.54166666665697,
      "v": 41
    },
    {
      "midi": 55,
      "hit": false,
      "t": 67500,
      "d": 124.99999999998545,
      "v": 41
    },
    {
      "midi": 43,
      "hit": false,
      "t": 67500,
      "d": 499.99999999998545,
      "v": 9
    },
    {
      "midi": 53,
      "hit": false,
      "t": 67999.99999999999,
      "d": 1661.4583333333285,
      "v": 42
    },
    {
      "midi": 60,
      "hit": false,
      "t": 67999.99999999999,
      "d": 1859.375,
      "v": 41
    },
    {
      "midi": 57,
      "hit": false,
      "t": 67999.99999999999,
      "d": 1864.5833333333285,
      "v": 41
    },
    {
      "midi": 41,
      "hit": false,
      "t": 67999.99999999999,
      "d": 2031.25,
      "v": 9
    },
    {
      "midi": 55,
      "hit": false,
      "t": 69999.99999999999,
      "d": 1833.3333333333285,
      "v": 41
    },
    {
      "midi": 52,
      "hit": false,
      "t": 69999.99999999999,
      "d": 1838.541666666657,
      "v": 41
    },
    {
      "midi": 48,
      "hit": false,
      "t": 69999.99999999999,
      "d": 1937.4999999999854,
      "v": 41
    },
    {
      "midi": 36,
      "hit": false,
      "t": 69999.99999999999,
      "d": 1953.1249999999854,
      "v": 3
    },
    {
      "midi": 31,
      "hit": false,
      "t": 71999.99999999997,
      "d": 859.375,
      "v": 1
    },
    {
      "midi": 55,
      "hit": false,
      "t": 72499.99999999997,
      "d": 463.5416666666715,
      "v": 41
    },
    {
      "midi": 47,
      "hit": false,
      "t": 72499.99999999997,
      "d": 479.1666666666715,
      "v": 41
    },
    {
      "midi": 50,
      "hit": false,
      "t": 72499.99999999997,
      "d": 489.58333333334303,
      "v": 41
    },
    {
      "midi": 38,
      "hit": false,
      "t": 72999.99999999999,
      "d": 67.70833333332848,
      "v": 1
    },
    {
      "midi": 38,
      "hit": false,
      "t": 73249.99999999999,
      "d": 802.0833333333285,
      "v": 3
    },
    {
      "midi": 55,
      "hit": false,
      "t": 73499.99999999999,
      "d": 515.625,
      "v": 41
    },
    {
      "midi": 47,
      "hit": false,
      "t": 73499.99999999999,
      "d": 531.25,
      "v": 41
    },
    {
      "midi": 50,
      "hit": false,
      "t": 73499.99999999999,
      "d": 536.4583333333285,
      "v": 41
    },
    {
      "midi": 31,
      "hit": false,
      "t": 73999.99999999999,
      "d": 98.95833333332848,
      "v": 1
    },
    {
      "midi": 43,
      "hit": false,
      "t": 74249.99999999999,
      "d": 88.54166666667152,
      "v": 1
    },
    {
      "midi": 43,
      "hit": false,
      "t": 74499.99999999999,
      "d": 229.16666666667152,
      "v": 3
    },
    {
      "midi": 47,
      "hit": false,
      "t": 74499.99999999999,
      "d": 515.625,
      "v": 41
    },
    {
      "midi": 50,
      "hit": false,
      "t": 74499.99999999999,
      "d": 515.625,
      "v": 41
    },
    {
      "midi": 55,
      "hit": false,
      "t": 74499.99999999999,
      "d": 531.25,
      "v": 41
    },
    {
      "midi": 31,
      "hit": false,
      "t": 74749.99999999999,
      "d": 98.95833333332848,
      "v": 1
    },
    {
      "midi": 31,
      "hit": false,
      "t": 74999.99999999999,
      "d": 109.375,
      "v": 3
    },
    {
      "midi": 31,
      "hit": false,
      "t": 75249.99999999999,
      "d": 692.708333333343,
      "v": 1
    },
    {
      "midi": 47,
      "hit": false,
      "t": 75499.99999999999,
      "d": 93.75,
      "v": 41
    },
    {
      "midi": 50,
      "hit": false,
      "t": 75499.99999999999,
      "d": 125,
      "v": 41
    },
    {
      "midi": 55,
      "hit": false,
      "t": 75499.99999999999,
      "d": 166.66666666667152,
      "v": 41
    },
    {
      "midi": 41,
      "hit": false,
      "t": 76000,
      "d": 833.3333333333285,
      "v": 14
    },
    {
      "midi": 53,
      "hit": false,
      "t": 76000,
      "d": 1843.75,
      "v": 41
    },
    {
      "midi": 60,
      "hit": false,
      "t": 76000,
      "d": 1854.1666666666715,
      "v": 47
    },
    {
      "midi": 57,
      "hit": false,
      "t": 76000,
      "d": 1901.0416666666715,
      "v": 47
    },
    {
      "midi": 41,
      "hit": false,
      "t": 77000,
      "d": 93.75,
      "v": 1
    },
    {
      "midi": 41,
      "hit": false,
      "t": 77250,
      "d": 713.5416666666715,
      "v": 1
    },
    {
      "midi": 36,
      "hit": false,
      "t": 78000,
      "d": 822.9166666666715,
      "v": 1
    },
    {
      "midi": 60,
      "hit": false,
      "t": 78000,
      "d": 1796.875,
      "v": 41
    },
    {
      "midi": 55,
      "hit": false,
      "t": 78000,
      "d": 1854.1666666666715,
      "v": 42
    },
    {
      "midi": 52,
      "hit": false,
      "t": 78000,
      "d": 1901.0416666666715,
      "v": 41
    },
    {
      "midi": 36,
      "hit": false,
      "t": 79000,
      "d": 255.20833333332848,
      "v": 1
    },
    {
      "midi": 38,
      "hit": false,
      "t": 79250,
      "d": 270.8333333333285,
      "v": 1
    },
    {
      "midi": 34,
      "hit": false,
      "t": 79500,
      "d": 510.4166666666715,
      "v": 1
    },
    {
      "midi": 31,
      "hit": false,
      "t": 80000,
      "d": 880.2083333333285,
      "v": 1
    },
    {
      "midi": 50,
      "hit": false,
      "t": 80500,
      "d": 515.625,
      "v": 41
    },
    {
      "midi": 47,
      "hit": false,
      "t": 80500,
      "d": 526.0416666666715,
      "v": 41
    },
    {
      "midi": 55,
      "hit": false,
      "t": 80500,
      "d": 531.25,
      "v": 41
    },
    {
      "midi": 38,
      "hit": false,
      "t": 81000,
      "d": 953.125,
      "v": 1
    },
    {
      "midi": 47,
      "hit": false,
      "t": 81500,
      "d": 541.6666666666715,
      "v": 41
    },
    {
      "midi": 50,
      "hit": false,
      "t": 81500,
      "d": 546.875,
      "v": 41
    },
    {
      "midi": 55,
      "hit": false,
      "t": 81500,
      "d": 546.875,
      "v": 41
    },
    {
      "midi": 31,
      "hit": false,
      "t": 82000,
      "d": 953.125,
      "v": 1
    },
    {
      "midi": 47,
      "hit": false,
      "t": 82500,
      "d": 510.4166666666715,
      "v": 41
    },
    {
      "midi": 55,
      "hit": false,
      "t": 82500,
      "d": 515.625,
      "v": 41
    },
    {
      "midi": 50,
      "hit": false,
      "t": 82500,
      "d": 536.4583333333285,
      "v": 41
    },
    {
      "midi": 38,
      "hit": false,
      "t": 83000,
      "d": 942.7083333333285,
      "v": 1
    },
    {
      "midi": 47,
      "hit": false,
      "t": 83500,
      "d": 364.5833333333285,
      "v": 41
    },
    {
      "midi": 50,
      "hit": false,
      "t": 83500,
      "d": 380.2083333333285,
      "v": 41
    },
    {
      "midi": 55,
      "hit": false,
      "t": 83500,
      "d": 390.625,
      "v": 41
    },
    {
      "midi": 31,
      "hit": false,
      "t": 84000,
      "d": 984.3749999999854,
      "v": 1
    },
    {
      "midi": 47,
      "hit": false,
      "t": 84500,
      "d": 375,
      "v": 41
    },
    {
      "midi": 55,
      "hit": false,
      "t": 84500,
      "d": 380.2083333333285,
      "v": 41
    },
    {
      "midi": 50,
      "hit": false,
      "t": 84500,
      "d": 385.41666666665697,
      "v": 41
    },
    {
      "midi": 38,
      "hit": false,
      "t": 84999.99999999999,
      "d": 932.291666666657,
      "v": 1
    },
    {
      "midi": 55,
      "hit": false,
      "t": 85499.99999999999,
      "d": 328.125,
      "v": 41
    },
    {
      "midi": 47,
      "hit": false,
      "t": 85499.99999999999,
      "d": 333.3333333333285,
      "v": 41
    },
    {
      "midi": 50,
      "hit": false,
      "t": 85499.99999999999,
      "d": 354.16666666665697,
      "v": 41
    },
    {
      "midi": 31,
      "hit": false,
      "t": 85999.99999999997,
      "d": 1020.8333333333285,
      "v": 1
    },
    {
      "midi": 55,
      "hit": false,
      "t": 86499.99999999997,
      "d": 348.9583333333285,
      "v": 41
    },
    {
      "midi": 47,
      "hit": false,
      "t": 86499.99999999997,
      "d": 359.375,
      "v": 41
    },
    {
      "midi": 50,
      "hit": false,
      "t": 86499.99999999997,
      "d": 364.5833333333285,
      "v": 41
    },
    {
      "midi": 38,
      "hit": false,
      "t": 86999.99999999997,
      "d": 947.9166666666715,
      "v": 1
    },
    {
      "midi": 55,
      "hit": false,
      "t": 87499.99999999997,
      "d": 333.3333333333285,
      "v": 41
    },
    {
      "midi": 50,
      "hit": false,
      "t": 87499.99999999997,
      "d": 380.2083333333285,
      "v": 41
    },
    {
      "midi": 47,
      "hit": false,
      "t": 87499.99999999997,
      "d": 390.625,
      "v": 41
    },
    {
      "midi": 31,
      "hit": false,
      "t": 87999.99999999997,
      "d": 911.4583333333285,
      "v": 9
    },
    {
      "midi": 55,
      "hit": false,
      "t": 88499.99999999997,
      "d": 416.66666666665697,
      "v": 41
    },
    {
      "midi": 50,
      "hit": false,
      "t": 88499.99999999997,
      "d": 427.0833333333285,
      "v": 41
    },
    {
      "midi": 47,
      "hit": false,
      "t": 88499.99999999997,
      "d": 458.3333333333285,
      "v": 41
    },
    {
      "midi": 33,
      "hit": false,
      "t": 88999.99999999997,
      "d": 479.1666666666715,
      "v": 1
    },
    {
      "midi": 55,
      "hit": false,
      "t": 89499.99999999997,
      "d": 338.5416666666715,
      "v": 41
    },
    {
      "midi": 47,
      "hit": false,
      "t": 89499.99999999997,
      "d": 348.95833333334303,
      "v": 41
    },
    {
      "midi": 35,
      "hit": false,
      "t": 89499.99999999997,
      "d": 479.1666666666715,
      "v": 1
    },
    {
      "midi": 50,
      "hit": false,
      "t": 89499.99999999997,
      "d": 520.8333333333285,
      "v": 41
    },
    {
      "midi": 36,
      "hit": false,
      "t": 89999.99999999997,
      "d": 963.5416666666715,
      "v": 1
    },
    {
      "midi": 55,
      "hit": false,
      "t": 90499.99999999997,
      "d": 395.8333333333285,
      "v": 41
    },
    {
      "midi": 48,
      "hit": false,
      "t": 90499.99999999997,
      "d": 406.25,
      "v": 41
    },
    {
      "midi": 52,
      "hit": false,
      "t": 90499.99999999997,
      "d": 416.6666666666715,
      "v": 41
    },
    {
      "midi": 31,
      "hit": false,
      "t": 90999.99999999997,
      "d": 1041.666666666686,
      "v": 1
    },
    {
      "midi": 55,
      "hit": false,
      "t": 91499.99999999997,
      "d": 416.6666666666715,
      "v": 41
    },
    {
      "midi": 52,
      "hit": false,
      "t": 91499.99999999997,
      "d": 442.70833333334303,
      "v": 41
    },
    {
      "midi": 48,
      "hit": false,
      "t": 91499.99999999997,
      "d": 453.12500000001455,
      "v": 41
    },
    {
      "midi": 36,
      "hit": false,
      "t": 91999.99999999999,
      "d": 869.7916666666715,
      "v": 1
    },
    {
      "midi": 55,
      "hit": false,
      "t": 92499.99999999999,
      "d": 437.5,
      "v": 41
    },
    {
      "midi": 48,
      "hit": false,
      "t": 92499.99999999999,
      "d": 463.5416666666715,
      "v": 41
    },
    {
      "midi": 52,
      "hit": false,
      "t": 92499.99999999999,
      "d": 463.5416666666715,
      "v": 41
    },
    {
      "midi": 36,
      "hit": false,
      "t": 92999.99999999999,
      "d": 932.291666666657,
      "v": 1
    },
    {
      "midi": 55,
      "hit": false,
      "t": 93499.99999999999,
      "d": 364.5833333333285,
      "v": 41
    },
    {
      "midi": 52,
      "hit": false,
      "t": 93499.99999999999,
      "d": 375,
      "v": 41
    },
    {
      "midi": 48,
      "hit": false,
      "t": 93499.99999999999,
      "d": 395.8333333333285,
      "v": 41
    },
    {
      "midi": 31,
      "hit": false,
      "t": 93999.99999999997,
      "d": 973.958333333343,
      "v": 1
    },
    {
      "midi": 55,
      "hit": false,
      "t": 94499.99999999997,
      "d": 395.8333333333285,
      "v": 41
    },
    {
      "midi": 50,
      "hit": false,
      "t": 94499.99999999997,
      "d": 406.25,
      "v": 41
    },
    {
      "midi": 47,
      "hit": false,
      "t": 94499.99999999997,
      "d": 432.2916666666715,
      "v": 41
    },
    {
      "midi": 38,
      "hit": false,
      "t": 94999.99999999999,
      "d": 984.375,
      "v": 1
    },
    {
      "midi": 55,
      "hit": false,
      "t": 95499.99999999999,
      "d": 380.2083333333285,
      "v": 41
    },
    {
      "midi": 47,
      "hit": false,
      "t": 95499.99999999999,
      "d": 385.41666666665697,
      "v": 41
    },
    {
      "midi": 50,
      "hit": false,
      "t": 95499.99999999999,
      "d": 395.8333333333285,
      "v": 41
    },
    {
      "midi": 33,
      "hit": false,
      "t": 95999.99999999999,
      "d": 885.4166666666715,
      "v": 1
    },
    {
      "midi": 57,
      "hit": false,
      "t": 96499.99999999999,
      "d": 406.25,
      "v": 41
    },
    {
      "midi": 52,
      "hit": false,
      "t": 96499.99999999999,
      "d": 427.0833333333285,
      "v": 41
    },
    {
      "midi": 49,
      "hit": false,
      "t": 96499.99999999999,
      "d": 437.5,
      "v": 41
    },
    {
      "midi": 33,
      "hit": false,
      "t": 96999.99999999999,
      "d": 989.583333333343,
      "v": 1
    },
    {
      "midi": 57,
      "hit": false,
      "t": 97499.99999999999,
      "d": 270.8333333333285,
      "v": 41
    },
    {
      "midi": 52,
      "hit": false,
      "t": 97499.99999999999,
      "d": 328.125,
      "v": 41
    },
    {
      "midi": 49,
      "hit": false,
      "t": 97499.99999999999,
      "d": 354.1666666666715,
      "v": 41
    },
    {
      "midi": 38,
      "hit": false,
      "t": 98000,
      "d": 776.0416666666715,
      "v": 1
    },
    {
      "midi": 50,
      "hit": false,
      "t": 98500,
      "d": 489.58333333334303,
      "v": 41
    },
    {
      "midi": 54,
      "hit": false,
      "t": 98500,
      "d": 494.7916666666715,
      "v": 41
    },
    {
      "midi": 45,
      "hit": false,
      "t": 98500,
      "d": 546.875,
      "v": 41
    },
    {
      "midi": 38,
      "hit": false,
      "t": 99000,
      "d": 276.0416666666715,
      "v": 1
    },
    {
      "midi": 36,
      "hit": false,
      "t": 99250,
      "d": 234.375,
      "v": 1
    },
    {
      "midi": 50,
      "hit": false,
      "t": 99500,
      "d": 421.875,
      "v": 41
    },
    {
      "midi": 54,
      "hit": false,
      "t": 99500,
      "d": 421.875,
      "v": 41
    },
    {
      "midi": 45,
      "hit": false,
      "t": 99500,
      "d": 437.5,
      "v": 41
    },
    {
      "midi": 34,
      "hit": false,
      "t": 99500,
      "d": 510.4166666666715,
      "v": 1
    },
    {
      "midi": 31,
      "hit": false,
      "t": 100000,
      "d": 869.7916666666715,
      "v": 1
    },
    {
      "midi": 55,
      "hit": false,
      "t": 100500,
      "d": 421.875,
      "v": 41
    },
    {
      "midi": 50,
      "hit": false,
      "t": 100500,
      "d": 432.2916666666715,
      "v": 41
    },
    {
      "midi": 47,
      "hit": false,
      "t": 100500,
      "d": 479.1666666666715,
      "v": 41
    },
    {
      "midi": 38,
      "hit": false,
      "t": 101000,
      "d": 932.291666666657,
      "v": 1
    },
    {
      "midi": 55,
      "hit": false,
      "t": 101500,
      "d": 411.4583333333285,
      "v": 41
    },
    {
      "midi": 50,
      "hit": false,
      "t": 101500,
      "d": 442.7083333333285,
      "v": 41
    },
    {
      "midi": 47,
      "hit": false,
      "t": 101500,
      "d": 447.91666666665697,
      "v": 41
    },
    {
      "midi": 31,
      "hit": false,
      "t": 101999.99999999999,
      "d": 916.6666666666715,
      "v": 1
    },
    {
      "midi": 55,
      "hit": false,
      "t": 102499.99999999999,
      "d": 458.33333333334303,
      "v": 41
    },
    {
      "midi": 47,
      "hit": false,
      "t": 102499.99999999999,
      "d": 505.20833333334303,
      "v": 41
    },
    {
      "midi": 50,
      "hit": false,
      "t": 102499.99999999999,
      "d": 515.6250000000146,
      "v": 41
    },
    {
      "midi": 38,
      "hit": false,
      "t": 103000,
      "d": 890.625,
      "v": 1
    },
    {
      "midi": 55,
      "hit": false,
      "t": 103500,
      "d": 437.5,
      "v": 41
    },
    {
      "midi": 50,
      "hit": false,
      "t": 103500,
      "d": 468.75,
      "v": 41
    },
    {
      "midi": 47,
      "hit": false,
      "t": 103500,
      "d": 484.375,
      "v": 41
    },
    {
      "midi": 31,
      "hit": false,
      "t": 104000,
      "d": 843.75,
      "v": 1
    },
    {
      "midi": 55,
      "hit": false,
      "t": 104500,
      "d": 458.3333333333285,
      "v": 41
    },
    {
      "midi": 50,
      "hit": false,
      "t": 104500,
      "d": 479.16666666665697,
      "v": 41
    },
    {
      "midi": 47,
      "hit": false,
      "t": 104500,
      "d": 484.37499999998545,
      "v": 41
    },
    {
      "midi": 31,
      "hit": false,
      "t": 104999.99999999999,
      "d": 927.0833333333285,
      "v": 1
    },
    {
      "midi": 55,
      "hit": false,
      "t": 105499.99999999999,
      "d": 380.2083333333285,
      "v": 41
    },
    {
      "midi": 47,
      "hit": false,
      "t": 105499.99999999999,
      "d": 432.29166666665697,
      "v": 41
    },
    {
      "midi": 50,
      "hit": false,
      "t": 105499.99999999999,
      "d": 520.8333333333139,
      "v": 41
    },
    {
      "midi": 36,
      "hit": false,
      "t": 105999.99999999997,
      "d": 1000,
      "v": 1
    },
    {
      "midi": 55,
      "hit": false,
      "t": 106499.99999999997,
      "d": 458.3333333333285,
      "v": 41
    },
    {
      "midi": 52,
      "hit": false,
      "t": 106499.99999999997,
      "d": 520.8333333333285,
      "v": 41
    },
    {
      "midi": 48,
      "hit": false,
      "t": 106499.99999999997,
      "d": 546.875,
      "v": 41
    },
    {
      "midi": 31,
      "hit": false,
      "t": 106999.99999999997,
      "d": 864.5833333333285,
      "v": 1
    },
    {
      "midi": 55,
      "hit": false,
      "t": 107499.99999999997,
      "d": 484.375,
      "v": 41
    },
    {
      "midi": 48,
      "hit": false,
      "t": 107499.99999999997,
      "d": 520.8333333333285,
      "v": 41
    },
    {
      "midi": 52,
      "hit": false,
      "t": 107499.99999999997,
      "d": 531.25,
      "v": 41
    },
    {
      "midi": 36,
      "hit": false,
      "t": 107999.99999999997,
      "d": 880.2083333333285,
      "v": 1
    },
    {
      "midi": 55,
      "hit": false,
      "t": 108499.99999999997,
      "d": 458.3333333333285,
      "v": 41
    },
    {
      "midi": 48,
      "hit": false,
      "t": 108499.99999999997,
      "d": 505.2083333333285,
      "v": 41
    },
    {
      "midi": 52,
      "hit": false,
      "t": 108499.99999999997,
      "d": 515.625,
      "v": 41
    },
    {
      "midi": 36,
      "hit": false,
      "t": 108999.99999999997,
      "d": 958.333333333343,
      "v": 1
    },
    {
      "midi": 55,
      "hit": false,
      "t": 109499.99999999997,
      "d": 385.4166666666715,
      "v": 41
    },
    {
      "midi": 52,
      "hit": false,
      "t": 109499.99999999997,
      "d": 395.83333333334303,
      "v": 41
    },
    {
      "midi": 48,
      "hit": false,
      "t": 109499.99999999997,
      "d": 411.45833333334303,
      "v": 41
    },
    {
      "midi": 31,
      "hit": false,
      "t": 109999.99999999999,
      "d": 880.2083333333285,
      "v": 1
    },
    {
      "midi": 50,
      "hit": false,
      "t": 110499.99999999999,
      "d": 463.54166666665697,
      "v": 41
    },
    {
      "midi": 55,
      "hit": false,
      "t": 110499.99999999999,
      "d": 484.37499999998545,
      "v": 41
    },
    {
      "midi": 47,
      "hit": false,
      "t": 110499.99999999999,
      "d": 499.99999999998545,
      "v": 41
    },
    {
      "midi": 31,
      "hit": false,
      "t": 110999.99999999997,
      "d": 968.75,
      "v": 1
    },
    {
      "midi": 50,
      "hit": false,
      "t": 111499.99999999997,
      "d": 447.9166666666715,
      "v": 41
    },
    {
      "midi": 55,
      "hit": false,
      "t": 111499.99999999997,
      "d": 479.1666666666715,
      "v": 41
    },
    {
      "midi": 47,
      "hit": false,
      "t": 111499.99999999997,
      "d": 505.2083333333285,
      "v": 41
    },
    {
      "midi": 38,
      "hit": false,
      "t": 111999.99999999997,
      "d": 901.0416666666715,
      "v": 1
    },
    {
      "midi": 54,
      "hit": false,
      "t": 112499.99999999997,
      "d": 458.33333333334303,
      "v": 41
    },
    {
      "midi": 50,
      "hit": false,
      "t": 112499.99999999997,
      "d": 484.37500000001455,
      "v": 41
    },
    {
      "midi": 45,
      "hit": false,
      "t": 112499.99999999997,
      "d": 515.6250000000146,
      "v": 41
    },
    {
      "midi": 38,
      "hit": false,
      "t": 112999.99999999999,
      "d": 1041.666666666686,
      "v": 1
    },
    {
      "midi": 54,
      "hit": false,
      "t": 113499.99999999999,
      "d": 406.25,
      "v": 41
    },
    {
      "midi": 50,
      "hit": false,
      "t": 113499.99999999999,
      "d": 416.6666666666715,
      "v": 41
    },
    {
      "midi": 45,
      "hit": false,
      "t": 113499.99999999999,
      "d": 427.08333333334303,
      "v": 41
    },
    {
      "midi": 31,
      "hit": false,
      "t": 114000,
      "d": 973.9583333333285,
      "v": 1
    },
    {
      "midi": 55,
      "hit": false,
      "t": 114500,
      "d": 437.5,
      "v": 41
    },
    {
      "midi": 50,
      "hit": false,
      "t": 114500,
      "d": 468.75,
      "v": 41
    },
    {
      "midi": 47,
      "hit": false,
      "t": 114500,
      "d": 479.16666666665697,
      "v": 41
    },
    {
      "midi": 38,
      "hit": false,
      "t": 114999.99999999999,
      "d": 901.0416666666715,
      "v": 1
    },
    {
      "midi": 55,
      "hit": false,
      "t": 115499.99999999999,
      "d": 432.2916666666715,
      "v": 41
    },
    {
      "midi": 50,
      "hit": false,
      "t": 115499.99999999999,
      "d": 447.9166666666715,
      "v": 41
    },
    {
      "midi": 47,
      "hit": false,
      "t": 115499.99999999999,
      "d": 463.5416666666715,
      "v": 41
    },
    {
      "midi": 31,
      "hit": false,
      "t": 115999.99999999999,
      "d": 901.0416666666715,
      "v": 1
    },
    {
      "midi": 50,
      "hit": false,
      "t": 116499.99999999999,
      "d": 468.75,
      "v": 41
    },
    {
      "midi": 55,
      "hit": false,
      "t": 116499.99999999999,
      "d": 473.9583333333285,
      "v": 41
    },
    {
      "midi": 47,
      "hit": false,
      "t": 116499.99999999999,
      "d": 500,
      "v": 41
    },
    {
      "midi": 33,
      "hit": false,
      "t": 116999.99999999999,
      "d": 489.5833333333285,
      "v": 1
    },
    {
      "midi": 47,
      "hit": false,
      "t": 117499.99999999999,
      "d": 421.875,
      "v": 41
    },
    {
      "midi": 55,
      "hit": false,
      "t": 117499.99999999999,
      "d": 427.0833333333285,
      "v": 41
    },
    {
      "midi": 50,
      "hit": false,
      "t": 117499.99999999999,
      "d": 468.75,
      "v": 41
    },
    {
      "midi": 35,
      "hit": false,
      "t": 117499.99999999999,
      "d": 531.25,
      "v": 1
    },
    {
      "midi": 36,
      "hit": false,
      "t": 117999.99999999999,
      "d": 885.4166666666715,
      "v": 1
    },
    {
      "midi": 48,
      "hit": false,
      "t": 118499.99999999999,
      "d": 401.0416666666715,
      "v": 41
    },
    {
      "midi": 55,
      "hit": false,
      "t": 118499.99999999999,
      "d": 406.25,
      "v": 41
    },
    {
      "midi": 52,
      "hit": false,
      "t": 118499.99999999999,
      "d": 427.0833333333285,
      "v": 41
    },
    {
      "midi": 31,
      "hit": false,
      "t": 118999.99999999999,
      "d": 93.75,
      "v": 1
    },
    {
      "midi": 31,
      "hit": false,
      "t": 119249.99999999999,
      "d": 687.5,
      "v": 1
    },
    {
      "midi": 55,
      "hit": false,
      "t": 119499.99999999999,
      "d": 453.125,
      "v": 41
    },
    {
      "midi": 48,
      "hit": false,
      "t": 119499.99999999999,
      "d": 463.5416666666715,
      "v": 41
    },
    {
      "midi": 52,
      "hit": false,
      "t": 119499.99999999999,
      "d": 468.75,
      "v": 41
    },
    {
      "midi": 36,
      "hit": false,
      "t": 119999.99999999999,
      "d": 796.875,
      "v": 1
    },
    {
      "midi": 55,
      "hit": false,
      "t": 120499.99999999999,
      "d": 437.5,
      "v": 41
    },
    {
      "midi": 52,
      "hit": false,
      "t": 120499.99999999999,
      "d": 479.1666666666715,
      "v": 41
    },
    {
      "midi": 48,
      "hit": false,
      "t": 120499.99999999999,
      "d": 494.7916666666715,
      "v": 41
    },
    {
      "midi": 36,
      "hit": false,
      "t": 120999.99999999999,
      "d": 255.20833333332848,
      "v": 3
    },
    {
      "midi": 38,
      "hit": false,
      "t": 121249.99999999999,
      "d": 276.0416666666715,
      "v": 1
    },
    {
      "midi": 52,
      "hit": false,
      "t": 121499.99999999999,
      "d": 411.45833333334303,
      "v": 41
    },
    {
      "midi": 55,
      "hit": false,
      "t": 121499.99999999999,
      "d": 416.6666666666715,
      "v": 41
    },
    {
      "midi": 48,
      "hit": false,
      "t": 121499.99999999999,
      "d": 447.9166666666715,
      "v": 41
    },
    {
      "midi": 34,
      "hit": false,
      "t": 121499.99999999999,
      "d": 484.375,
      "v": 1
    },
    {
      "midi": 31,
      "hit": false,
      "t": 121999.99999999999,
      "d": 921.875,
      "v": 1
    },
    {
      "midi": 50,
      "hit": false,
      "t": 122499.99999999999,
      "d": 463.5416666666715,
      "v": 41
    },
    {
      "midi": 55,
      "hit": false,
      "t": 122499.99999999999,
      "d": 463.5416666666715,
      "v": 41
    },
    {
      "midi": 47,
      "hit": false,
      "t": 122499.99999999999,
      "d": 500,
      "v": 41
    },
    {
      "midi": 38,
      "hit": false,
      "t": 122999.99999999999,
      "d": 88.54166666667152,
      "v": 1
    },
    {
      "midi": 38,
      "hit": false,
      "t": 123249.99999999999,
      "d": 729.1666666666715,
      "v": 1
    },
    {
      "midi": 55,
      "hit": false,
      "t": 123499.99999999999,
      "d": 479.1666666666715,
      "v": 41
    },
    {
      "midi": 50,
      "hit": false,
      "t": 123499.99999999999,
      "d": 500,
      "v": 41
    },
    {
      "midi": 47,
      "hit": false,
      "t": 123499.99999999999,
      "d": 541.6666666666715,
      "v": 41
    },
    {
      "midi": 31,
      "hit": false,
      "t": 123999.99999999999,
      "d": 786.4583333333285,
      "v": 1
    },
    {
      "midi": 50,
      "hit": false,
      "t": 124499.99999999999,
      "d": 489.5833333333285,
      "v": 41
    },
    {
      "midi": 55,
      "hit": false,
      "t": 124499.99999999999,
      "d": 505.2083333333285,
      "v": 41
    },
    {
      "midi": 47,
      "hit": false,
      "t": 124499.99999999999,
      "d": 520.8333333333285,
      "v": 41
    },
    {
      "midi": 31,
      "hit": false,
      "t": 124999.99999999999,
      "d": 88.54166666665697,
      "v": 1
    },
    {
      "midi": 31,
      "hit": false,
      "t": 125249.99999999997,
      "d": 213.54166666667152,
      "v": 1
    },
    {
      "midi": 35,
      "hit": false,
      "t": 125499.99999999997,
      "d": 229.16666666667152,
      "v": 1
    },
    {
      "midi": 55,
      "hit": false,
      "t": 125499.99999999997,
      "d": 390.625,
      "v": 41
    },
    {
      "midi": 47,
      "hit": false,
      "t": 125499.99999999997,
      "d": 447.9166666666715,
      "v": 41
    },
    {
      "midi": 50,
      "hit": false,
      "t": 125499.99999999997,
      "d": 453.125,
      "v": 41
    },
    {
      "midi": 36,
      "hit": false,
      "t": 125749.99999999997,
      "d": 270.8333333333285,
      "v": 1
    },
    {
      "midi": 38,
      "hit": false,
      "t": 125999.99999999997,
      "d": 895.8333333333285,
      "v": 1
    },
    {
      "midi": 50,
      "hit": false,
      "t": 126499.99999999997,
      "d": 489.5833333333285,
      "v": 41
    },
    {
      "midi": 54,
      "hit": false,
      "t": 126499.99999999997,
      "d": 494.79166666665697,
      "v": 41
    },
    {
      "midi": 57,
      "hit": false,
      "t": 126499.99999999997,
      "d": 494.79166666665697,
      "v": 41
    },
    {
      "midi": 33,
      "hit": false,
      "t": 126999.99999999996,
      "d": 88.54166666667152,
      "v": 1
    },
    {
      "midi": 33,
      "hit": false,
      "t": 127249.99999999996,
      "d": 718.7499999999854,
      "v": 1
    },
    {
      "midi": 54,
      "hit": false,
      "t": 127499.99999999996,
      "d": 458.3333333333285,
      "v": 41
    },
    {
      "midi": 57,
      "hit": false,
      "t": 127499.99999999996,
      "d": 463.54166666665697,
      "v": 41
    },
    {
      "midi": 50,
      "hit": false,
      "t": 127499.99999999996,
      "d": 468.74999999998545,
      "v": 41
    },
    {
      "midi": 38,
      "hit": false,
      "t": 127999.99999999994,
      "d": 911.4583333333285,
      "v": 1
    },
    {
      "midi": 54,
      "hit": false,
      "t": 128499.99999999994,
      "d": 510.4166666666715,
      "v": 41
    },
    {
      "midi": 50,
      "hit": false,
      "t": 128499.99999999994,
      "d": 515.625,
      "v": 41
    },
    {
      "midi": 57,
      "hit": false,
      "t": 128499.99999999994,
      "d": 520.8333333333285,
      "v": 41
    },
    {
      "midi": 36,
      "hit": false,
      "t": 128999.99999999994,
      "d": 281.25,
      "v": 1
    },
    {
      "midi": 38,
      "hit": false,
      "t": 129249.99999999994,
      "d": 250,
      "v": 1
    },
    {
      "midi": 57,
      "hit": false,
      "t": 129499.99999999994,
      "d": 395.8333333333285,
      "v": 41
    },
    {
      "midi": 54,
      "hit": false,
      "t": 129499.99999999994,
      "d": 458.3333333333285,
      "v": 41
    },
    {
      "midi": 50,
      "hit": false,
      "t": 129499.99999999994,
      "d": 515.625,
      "v": 41
    },
    {
      "midi": 34,
      "hit": false,
      "t": 129499.99999999994,
      "d": 536.4583333333285,
      "v": 1
    },
    {
      "midi": 31,
      "hit": false,
      "t": 129999.99999999994,
      "d": 807.2916666666715,
      "v": 1
    },
    {
      "midi": 55,
      "hit": false,
      "t": 130499.99999999994,
      "d": 484.375,
      "v": 41
    },
    {
      "midi": 47,
      "hit": false,
      "t": 130499.99999999994,
      "d": 515.625,
      "v": 41
    },
    {
      "midi": 50,
      "hit": false,
      "t": 130499.99999999994,
      "d": 515.625,
      "v": 41
    },
    {
      "midi": 38,
      "hit": false,
      "t": 130999.99999999994,
      "d": 72.91666666665697,
      "v": 1
    },
    {
      "midi": 38,
      "hit": false,
      "t": 131249.99999999994,
      "d": 713.541666666657,
      "v": 1
    },
    {
      "midi": 50,
      "hit": false,
      "t": 131499.99999999994,
      "d": 505.20833333334303,
      "v": 41
    },
    {
      "midi": 47,
      "hit": false,
      "t": 131499.99999999994,
      "d": 510.41666666668607,
      "v": 41
    },
    {
      "midi": 55,
      "hit": false,
      "t": 131499.99999999994,
      "d": 526.0416666666861,
      "v": 41
    },
    {
      "midi": 31,
      "hit": false,
      "t": 131999.99999999994,
      "d": 807.2916666667152,
      "v": 1
    },
    {
      "midi": 47,
      "hit": false,
      "t": 132499.99999999997,
      "d": 473.95833333334303,
      "v": 41
    },
    {
      "midi": 50,
      "hit": false,
      "t": 132499.99999999997,
      "d": 473.95833333334303,
      "v": 41
    },
    {
      "midi": 55,
      "hit": false,
      "t": 132499.99999999997,
      "d": 473.95833333334303,
      "v": 41
    },
    {
      "midi": 33,
      "hit": false,
      "t": 132749.99999999997,
      "d": 5.208333333343035,
      "v": 1
    },
    {
      "midi": 31,
      "hit": false,
      "t": 132999.99999999997,
      "d": 67.70833333334303,
      "v": 1
    },
    {
      "midi": 31,
      "hit": false,
      "t": 133249.99999999997,
      "d": 760.416666666657,
      "v": 1
    },
    {
      "midi": 47,
      "hit": false,
      "t": 133499.99999999997,
      "d": 421.875,
      "v": 41
    },
    {
      "midi": 55,
      "hit": false,
      "t": 133499.99999999997,
      "d": 421.875,
      "v": 41
    },
    {
      "midi": 50,
      "hit": false,
      "t": 133499.99999999997,
      "d": 479.16666666665697,
      "v": 41
    },
    {
      "midi": 36,
      "hit": false,
      "t": 133999.99999999997,
      "d": 864.583333333343,
      "v": 1
    },
    {
      "midi": 55,
      "hit": false,
      "t": 134499.99999999997,
      "d": 500,
      "v": 41
    },
    {
      "midi": 52,
      "hit": false,
      "t": 134499.99999999997,
      "d": 505.20833333334303,
      "v": 41
    },
    {
      "midi": 48,
      "hit": false,
      "t": 134499.99999999997,
      "d": 515.625,
      "v": 41
    },
    {
      "midi": 31,
      "hit": false,
      "t": 134999.99999999997,
      "d": 62.5,
      "v": 1
    },
    {
      "midi": 31,
      "hit": false,
      "t": 135249.99999999997,
      "d": 755.2083333333721,
      "v": 1
    },
    {
      "midi": 48,
      "hit": false,
      "t": 135499.99999999997,
      "d": 489.58333333334303,
      "v": 41
    },
    {
      "midi": 52,
      "hit": false,
      "t": 135499.99999999997,
      "d": 494.79166666668607,
      "v": 41
    },
    {
      "midi": 55,
      "hit": false,
      "t": 135499.99999999997,
      "d": 500.0000000000291,
      "v": 41
    },
    {
      "midi": 36,
      "hit": false,
      "t": 136000,
      "d": 723.958333333343,
      "v": 1
    },
    {
      "midi": 55,
      "hit": false,
      "t": 136500,
      "d": 484.375,
      "v": 41
    },
    {
      "midi": 52,
      "hit": false,
      "t": 136500,
      "d": 505.20833333334303,
      "v": 41
    },
    {
      "midi": 48,
      "hit": false,
      "t": 136500,
      "d": 531.25,
      "v": 41
    },
    {
      "midi": 36,
      "hit": false,
      "t": 137000,
      "d": 276.04166666665697,
      "v": 3
    },
    {
      "midi": 38,
      "hit": false,
      "t": 137250,
      "d": 260.41666666665697,
      "v": 1
    },
    {
      "midi": 55,
      "hit": false,
      "t": 137500,
      "d": 406.25,
      "v": 41
    },
    {
      "midi": 48,
      "hit": false,
      "t": 137500,
      "d": 416.66666666665697,
      "v": 41
    },
    {
      "midi": 52,
      "hit": false,
      "t": 137500,
      "d": 437.5,
      "v": 41
    },
    {
      "midi": 34,
      "hit": false,
      "t": 137500,
      "d": 500,
      "v": 1
    },
    {
      "midi": 31,
      "hit": false,
      "t": 138000,
      "d": 791.666666666657,
      "v": 1
    },
    {
      "midi": 55,
      "hit": false,
      "t": 138500,
      "d": 500,
      "v": 41
    },
    {
      "midi": 50,
      "hit": false,
      "t": 138500,
      "d": 520.833333333343,
      "v": 41
    },
    {
      "midi": 47,
      "hit": false,
      "t": 138500,
      "d": 531.25,
      "v": 41
    },
    {
      "midi": 38,
      "hit": false,
      "t": 139000,
      "d": 67.70833333334303,
      "v": 1
    },
    {
      "midi": 38,
      "hit": false,
      "t": 139250,
      "d": 697.916666666657,
      "v": 1
    },
    {
      "midi": 47,
      "hit": false,
      "t": 139500,
      "d": 505.20833333334303,
      "v": 41
    },
    {
      "midi": 50,
      "hit": false,
      "t": 139500,
      "d": 510.41666666668607,
      "v": 41
    },
    {
      "midi": 55,
      "hit": false,
      "t": 139500,
      "d": 515.6250000000291,
      "v": 41
    },
    {
      "midi": 31,
      "hit": false,
      "t": 140000,
      "d": 598.9583333333721,
      "v": 1
    },
    {
      "midi": 50,
      "hit": false,
      "t": 140500.00000000003,
      "d": 578.125,
      "v": 41
    },
    {
      "midi": 55,
      "hit": false,
      "t": 140500.00000000003,
      "d": 583.333333333343,
      "v": 41
    },
    {
      "midi": 47,
      "hit": false,
      "t": 140500.00000000003,
      "d": 588.5416666666861,
      "v": 41
    },
    {
      "midi": 31,
      "hit": false,
      "t": 141000.00000000003,
      "d": 62.5,
      "v": 1
    },
    {
      "midi": 31,
      "hit": false,
      "t": 141250.00000000006,
      "d": 223.95833333334303,
      "v": 1
    },
    {
      "midi": 47,
      "hit": false,
      "t": 141500.00000000006,
      "d": 83.33333333334303,
      "v": 41
    },
    {
      "midi": 50,
      "hit": false,
      "t": 141500.00000000006,
      "d": 88.54166666668607,
      "v": 41
    },
    {
      "midi": 55,
      "hit": false,
      "t": 141500.00000000006,
      "d": 125.0000000000291,
      "v": 41
    },
    {
      "midi": 43,
      "hit": false,
      "t": 141500.00000000006,
      "d": 510.41666666668607,
      "v": 1
    },
    {
      "midi": 53,
      "hit": false,
      "t": 142000.0000000001,
      "d": 1661.458333333314,
      "v": 42
    },
    {
      "midi": 60,
      "hit": false,
      "t": 142000.0000000001,
      "d": 1859.374999999971,
      "v": 41
    },
    {
      "midi": 57,
      "hit": false,
      "t": 142000.0000000001,
      "d": 1864.583333333314,
      "v": 41
    },
    {
      "midi": 41,
      "hit": false,
      "t": 142000.0000000001,
      "d": 1979.166666666657,
      "v": 1
    },
    {
      "midi": 55,
      "hit": false,
      "t": 144000.0000000001,
      "d": 1833.333333333343,
      "v": 41
    },
    {
      "midi": 52,
      "hit": false,
      "t": 144000.0000000001,
      "d": 1838.541666666686,
      "v": 41
    },
    {
      "midi": 48,
      "hit": false,
      "t": 144000.0000000001,
      "d": 1937.500000000029,
      "v": 41
    },
    {
      "midi": 36,
      "hit": false,
      "t": 144000.0000000001,
      "d": 1953.125000000029,
      "v": 1
    },
    {
      "midi": 31,
      "hit": false,
      "t": 146000.00000000012,
      "d": 859.375,
      "v": 1
    },
    {
      "midi": 55,
      "hit": false,
      "t": 146500.00000000012,
      "d": 500,
      "v": 41
    },
    {
      "midi": 47,
      "hit": false,
      "t": 146500.00000000012,
      "d": 526.041666666657,
      "v": 41
    },
    {
      "midi": 50,
      "hit": false,
      "t": 146500.00000000012,
      "d": 526.041666666657,
      "v": 41
    },
    {
      "midi": 38,
      "hit": false,
      "t": 147000.00000000012,
      "d": 88.54166666665697,
      "v": 1
    },
    {
      "midi": 38,
      "hit": false,
      "t": 147250.00000000012,
      "d": 718.75,
      "v": 1
    },
    {
      "midi": 47,
      "hit": false,
      "t": 147500.00000000012,
      "d": 484.375,
      "v": 41
    },
    {
      "midi": 55,
      "hit": false,
      "t": 147500.00000000012,
      "d": 484.375,
      "v": 41
    },
    {
      "midi": 50,
      "hit": false,
      "t": 147500.00000000012,
      "d": 489.58333333334303,
      "v": 41
    },
    {
      "midi": 31,
      "hit": false,
      "t": 148000.00000000012,
      "d": 755.208333333343,
      "v": 1
    },
    {
      "midi": 47,
      "hit": false,
      "t": 148500.00000000012,
      "d": 505.20833333334303,
      "v": 41
    },
    {
      "midi": 50,
      "hit": false,
      "t": 148500.00000000012,
      "d": 515.625,
      "v": 41
    },
    {
      "midi": 55,
      "hit": false,
      "t": 148500.00000000012,
      "d": 520.833333333343,
      "v": 41
    },
    {
      "midi": 31,
      "hit": false,
      "t": 149000.00000000012,
      "d": 67.70833333334303,
      "v": 1
    },
    {
      "midi": 31,
      "hit": false,
      "t": 149250.00000000012,
      "d": 744.7916666666861,
      "v": 3
    },
    {
      "midi": 47,
      "hit": false,
      "t": 149500.00000000012,
      "d": 156.25,
      "v": 41
    },
    {
      "midi": 50,
      "hit": false,
      "t": 149500.00000000012,
      "d": 192.70833333334303,
      "v": 41
    },
    {
      "midi": 55,
      "hit": false,
      "t": 149500.00000000012,
      "d": 208.33333333334303,
      "v": 41
    },
    {
      "midi": 41,
      "hit": false,
      "t": 150000.00000000015,
      "d": 796.875,
      "v": 1
    },
    {
      "midi": 60,
      "hit": false,
      "t": 150000.00000000015,
      "d": 1666.666666666657,
      "v": 42
    },
    {
      "midi": 57,
      "hit": false,
      "t": 150000.00000000015,
      "d": 1697.916666666657,
      "v": 42
    },
    {
      "midi": 53,
      "hit": false,
      "t": 150000.00000000015,
      "d": 1708.333333333314,
      "v": 41
    },
    {
      "midi": 41,
      "hit": false,
      "t": 151000.00000000015,
      "d": 67.70833333334303,
      "v": 1
    },
    {
      "midi": 41,
      "hit": false,
      "t": 151250.00000000015,
      "d": 770.8333333333139,
      "v": 9
    },
    {
      "midi": 36,
      "hit": false,
      "t": 152000.00000000012,
      "d": 1911.458333333343,
      "v": 1
    },
    {
      "midi": 52,
      "hit": false,
      "t": 152000.00000000012,
      "d": 1979.166666666686,
      "v": 41
    },
    {
      "midi": 48,
      "hit": false,
      "t": 152000.00000000012,
      "d": 2005.2083333333721,
      "v": 41
    },
    {
      "midi": 55,
      "hit": false,
      "t": 152000.00000000012,
      "d": 2020.8333333333721,
      "v": 41
    },
    {
      "midi": 31,
      "hit": false,
      "t": 154000.00000000015,
      "d": 906.25,
      "v": 1
    },
    {
      "midi": 47,
      "hit": false,
      "t": 154500.00000000015,
      "d": 500,
      "v": 41
    },
    {
      "midi": 50,
      "hit": false,
      "t": 154500.00000000015,
      "d": 505.20833333334303,
      "v": 41
    },
    {
      "midi": 55,
      "hit": false,
      "t": 154500.00000000015,
      "d": 515.625,
      "v": 41
    },
    {
      "midi": 38,
      "hit": false,
      "t": 155000.00000000015,
      "d": 67.70833333334303,
      "v": 1
    },
    {
      "midi": 38,
      "hit": false,
      "t": 155250.00000000015,
      "d": 770.833333333343,
      "v": 1
    },
    {
      "midi": 55,
      "hit": false,
      "t": 155500.00000000015,
      "d": 468.75,
      "v": 41
    },
    {
      "midi": 50,
      "hit": false,
      "t": 155500.00000000015,
      "d": 479.16666666665697,
      "v": 41
    },
    {
      "midi": 47,
      "hit": false,
      "t": 155500.00000000015,
      "d": 484.375,
      "v": 41
    },
    {
      "midi": 31,
      "hit": false,
      "t": 156000.00000000015,
      "d": 786.458333333343,
      "v": 1
    },
    {
      "midi": 50,
      "hit": false,
      "t": 156500.00000000015,
      "d": 489.58333333334303,
      "v": 41
    },
    {
      "midi": 47,
      "hit": false,
      "t": 156500.00000000015,
      "d": 494.79166666668607,
      "v": 41
    },
    {
      "midi": 55,
      "hit": false,
      "t": 156500.00000000015,
      "d": 494.79166666668607,
      "v": 41
    },
    {
      "midi": 31,
      "hit": false,
      "t": 157000.00000000017,
      "d": 57.291666666656965,
      "v": 1
    },
    {
      "midi": 31,
      "hit": false,
      "t": 157250.00000000017,
      "d": 703.1249999999709,
      "v": 1
    },
    {
      "midi": 47,
      "hit": false,
      "t": 157500.00000000017,
      "d": 135.41666666665697,
      "v": 41
    },
    {
      "midi": 50,
      "hit": false,
      "t": 157500.00000000017,
      "d": 166.66666666665697,
      "v": 41
    },
    {
      "midi": 55,
      "hit": false,
      "t": 157500.00000000017,
      "d": 192.70833333331393,
      "v": 42
    },
    {
      "midi": 41,
      "hit": false,
      "t": 158000.00000000015,
      "d": 817.708333333343,
      "v": 1
    },
    {
      "midi": 60,
      "hit": false,
      "t": 158000.00000000015,
      "d": 1755.208333333343,
      "v": 42
    },
    {
      "midi": 53,
      "hit": false,
      "t": 158000.00000000015,
      "d": 1765.625,
      "v": 41
    },
    {
      "midi": 57,
      "hit": false,
      "t": 158000.00000000015,
      "d": 1781.25,
      "v": 45
    },
    {
      "midi": 41,
      "hit": false,
      "t": 159000.00000000015,
      "d": 78.125,
      "v": 1
    },
    {
      "midi": 41,
      "hit": false,
      "t": 159250.00000000015,
      "d": 723.958333333343,
      "v": 9
    },
    {
      "midi": 36,
      "hit": false,
      "t": 160000.00000000015,
      "d": 583.333333333343,
      "v": 1
    },
    {
      "midi": 55,
      "hit": false,
      "t": 160000.00000000015,
      "d": 1359.375,
      "v": 41
    },
    {
      "midi": 60,
      "hit": false,
      "t": 160000.00000000015,
      "d": 1359.375,
      "v": 41
    },
    {
      "midi": 52,
      "hit": false,
      "t": 160000.00000000015,
      "d": 1401.041666666686,
      "v": 41
    },
    {
      "midi": 36,
      "hit": false,
      "t": 160750.00000000015,
      "d": 67.70833333334303,
      "v": 1
    },
    {
      "midi": 36,
      "hit": false,
      "t": 161000.00000000015,
      "d": 250,
      "v": 1
    },
    {
      "midi": 38,
      "hit": false,
      "t": 161250.00000000015,
      "d": 145.83333333334303,
      "v": 1
    },
    {
      "midi": 34,
      "hit": false,
      "t": 161500.00000000017,
      "d": 463.54166666665697,
      "v": 3
    },
    {
      "midi": 55,
      "hit": false,
      "t": 162000.00000000017,
      "d": 3067.708333333343,
      "v": 41
    },
    {
      "midi": 43,
      "hit": false,
      "t": 162000.00000000017,
      "d": 3968.75,
      "v": 41
    },
    {
      "midi": 47,
      "hit": false,
      "t": 162000.00000000017,
      "d": 3984.375,
      "v": 41
    },
    {
      "midi": 50,
      "hit": false,
      "t": 162000.00000000017,
      "d": 3989.583333333343,
      "v": 42
    },
    {
      "midi": 31,
      "hit": false,
      "t": 162000.00000000017,
      "d": 4000,
      "v": 9
    }
  ]
}