{
  "jsonPath": "Rock/Album Rock/The Doobie Brothers/what-a-fool-believes.json",
  "path": "Rock\\Album Rock\\The Doobie Brothers\\What A Fool Believes.mid",
  "name": "What A Fool Believes",
  "difficulty": "Advanced",
  "bpm": 120,
  "notes": [
    {
      "midi": 73,
      "hit": false,
      "t": 4000,
      "d": 182.29166666666697,
      "v": 116
    },
    {
      "midi": 44,
      "hit": false,
      "t": 4000,
      "d": 187.5,
      "v": 115
    },
    {
      "midi": 56,
      "hit": false,
      "t": 4000,
      "d": 197.91666666666697,
      "v": 113
    },
    {
      "midi": 66,
      "hit": false,
      "t": 4000,
      "d": 197.91666666666697,
      "v": 120
    },
    {
      "midi": 77,
      "hit": false,
      "t": 4000,
      "d": 239.58333333333394,
      "v": 120
    },
    {
      "midi": 72,
      "hit": false,
      "t": 4500.000000000001,
      "d": 130.20833333333303,
      "v": 116
    },
    {
      "midi": 75,
      "hit": false,
      "t": 4500.000000000001,
      "d": 192.70833333333303,
      "v": 117
    },
    {
      "midi": 66,
      "hit": false,
      "t": 4500.000000000001,
      "d": 234.375,
      "v": 117
    },
    {
      "midi": 70,
      "hit": false,
      "t": 5000.000000000001,
      "d": 130.20833333333303,
      "v": 117
    },
    {
      "midi": 73,
      "hit": false,
      "t": 5000.000000000001,
      "d": 145.83333333333303,
      "v": 116
    },
    {
      "midi": 66,
      "hit": false,
      "t": 5000.000000000001,
      "d": 182.29166666666606,
      "v": 124
    },
    {
      "midi": 54,
      "hit": false,
      "t": 5000.000000000001,
      "d": 239.58333333333303,
      "v": 113
    },
    {
      "midi": 42,
      "hit": false,
      "t": 5000.000000000001,
      "d": 260.41666666666697,
      "v": 113
    },
    {
      "midi": 70,
      "hit": false,
      "t": 5250.000000000001,
      "d": 98.95833333333394,
      "v": 85
    },
    {
      "midi": 73,
      "hit": false,
      "t": 5250.000000000001,
      "d": 119.79166666666697,
      "v": 61
    },
    {
      "midi": 72,
      "hit": false,
      "t": 5500.000000000001,
      "d": 161.45833333333303,
      "v": 109
    },
    {
      "midi": 75,
      "hit": false,
      "t": 5500.000000000001,
      "d": 177.08333333333303,
      "v": 107
    },
    {
      "midi": 75,
      "hit": false,
      "t": 5750.000000000001,
      "d": 46.875,
      "v": 56
    },
    {
      "midi": 41,
      "hit": false,
      "t": 5750.000000000001,
      "d": 187.5,
      "v": 111
    },
    {
      "midi": 73,
      "hit": false,
      "t": 5750.000000000001,
      "d": 187.5,
      "v": 116
    },
    {
      "midi": 77,
      "hit": false,
      "t": 5750.000000000001,
      "d": 192.70833333333303,
      "v": 120
    },
    {
      "midi": 53,
      "hit": false,
      "t": 5750.000000000001,
      "d": 197.91666666666606,
      "v": 107
    },
    {
      "midi": 65,
      "hit": false,
      "t": 5750.000000000001,
      "d": 249.9999999999991,
      "v": 111
    },
    {
      "midi": 73,
      "hit": false,
      "t": 6250,
      "d": 177.08333333333303,
      "v": 121
    },
    {
      "midi": 77,
      "hit": false,
      "t": 6250,
      "d": 203.125,
      "v": 122
    },
    {
      "midi": 65,
      "hit": false,
      "t": 6250,
      "d": 229.16666666666697,
      "v": 122
    },
    {
      "midi": 72,
      "hit": false,
      "t": 6500,
      "d": 161.45833333333303,
      "v": 95
    },
    {
      "midi": 75,
      "hit": false,
      "t": 6500,
      "d": 192.70833333333303,
      "v": 89
    },
    {
      "midi": 73,
      "hit": false,
      "t": 7000,
      "d": 270.83333333333303,
      "v": 117
    },
    {
      "midi": 70,
      "hit": false,
      "t": 7000,
      "d": 291.66666666666606,
      "v": 121
    },
    {
      "midi": 65,
      "hit": false,
      "t": 7000,
      "d": 296.8749999999991,
      "v": 115
    },
    {
      "midi": 53,
      "hit": false,
      "t": 7250,
      "d": 208.33333333333212,
      "v": 111
    },
    {
      "midi": 49,
      "hit": false,
      "t": 7499.999999999999,
      "d": 182.29166666666697,
      "v": 108
    },
    {
      "midi": 72,
      "hit": false,
      "t": 7499.999999999999,
      "d": 239.58333333333394,
      "v": 116
    },
    {
      "midi": 65,
      "hit": false,
      "t": 7499.999999999999,
      "d": 270.83333333333394,
      "v": 115
    },
    {
      "midi": 75,
      "hit": false,
      "t": 7499.999999999999,
      "d": 317.70833333333394,
      "v": 115
    },
    {
      "midi": 41,
      "hit": false,
      "t": 7750,
      "d": 130.20833333333303,
      "v": 102
    },
    {
      "midi": 73,
      "hit": false,
      "t": 8000,
      "d": 166.66666666666697,
      "v": 109
    },
    {
      "midi": 39,
      "hit": false,
      "t": 8000,
      "d": 192.70833333333394,
      "v": 117
    },
    {
      "midi": 51,
      "hit": false,
      "t": 8000,
      "d": 192.70833333333394,
      "v": 106
    },
    {
      "midi": 77,
      "hit": false,
      "t": 8000,
      "d": 213.54166666666788,
      "v": 114
    },
    {
      "midi": 66,
      "hit": false,
      "t": 8000,
      "d": 229.16666666666788,
      "v": 117
    },
    {
      "midi": 53,
      "hit": false,
      "t": 8500.000000000002,
      "d": 104.16666666666606,
      "v": 108
    },
    {
      "midi": 41,
      "hit": false,
      "t": 8500.000000000002,
      "d": 177.08333333333212,
      "v": 118
    },
    {
      "midi": 65,
      "hit": false,
      "t": 8500.000000000002,
      "d": 317.7083333333321,
      "v": 115
    },
    {
      "midi": 72,
      "hit": false,
      "t": 8500.000000000002,
      "d": 359.3749999999982,
      "v": 111
    },
    {
      "midi": 75,
      "hit": false,
      "t": 8500.000000000002,
      "d": 359.3749999999982,
      "v": 114
    },
    {
      "midi": 54,
      "hit": false,
      "t": 8750,
      "d": 197.91666666666606,
      "v": 101
    },
    {
      "midi": 70,
      "hit": false,
      "t": 9000,
      "d": 161.45833333333394,
      "v": 106
    },
    {
      "midi": 73,
      "hit": false,
      "t": 9000,
      "d": 161.45833333333394,
      "v": 108
    },
    {
      "midi": 56,
      "hit": false,
      "t": 9000,
      "d": 192.70833333333394,
      "v": 115
    },
    {
      "midi": 44,
      "hit": false,
      "t": 9000,
      "d": 213.54166666666788,
      "v": 112
    },
    {
      "midi": 66,
      "hit": false,
      "t": 9000,
      "d": 218.75000000000182,
      "v": 116
    },
    {
      "midi": 70,
      "hit": false,
      "t": 9250.000000000002,
      "d": 114.58333333333394,
      "v": 66
    },
    {
      "midi": 73,
      "hit": false,
      "t": 9250.000000000002,
      "d": 145.83333333333394,
      "v": 74
    },
    {
      "midi": 45,
      "hit": false,
      "t": 9500.000000000002,
      "d": 151.04166666666606,
      "v": 108
    },
    {
      "midi": 57,
      "hit": false,
      "t": 9500.000000000002,
      "d": 151.04166666666606,
      "v": 103
    },
    {
      "midi": 69,
      "hit": false,
      "t": 9500.000000000002,
      "d": 171.875,
      "v": 115
    },
    {
      "midi": 72,
      "hit": false,
      "t": 9500.000000000002,
      "d": 187.5,
      "v": 110
    },
    {
      "midi": 70,
      "hit": false,
      "t": 9750.000000000002,
      "d": 161.45833333333394,
      "v": 114
    },
    {
      "midi": 46,
      "hit": false,
      "t": 9750.000000000002,
      "d": 192.70833333333394,
      "v": 119
    },
    {
      "midi": 73,
      "hit": false,
      "t": 9750.000000000002,
      "d": 192.70833333333394,
      "v": 116
    },
    {
      "midi": 58,
      "hit": false,
      "t": 9750.000000000002,
      "d": 197.91666666666788,
      "v": 113
    },
    {
      "midi": 65,
      "hit": false,
      "t": 10250.000000000004,
      "d": 26.04166666666606,
      "v": 111
    },
    {
      "midi": 73,
      "hit": false,
      "t": 10250.000000000004,
      "d": 192.70833333333212,
      "v": 119
    },
    {
      "midi": 77,
      "hit": false,
      "t": 10250.000000000004,
      "d": 203.12499999999818,
      "v": 120
    },
    {
      "midi": 72,
      "hit": false,
      "t": 10500.000000000002,
      "d": 197.91666666666606,
      "v": 102
    },
    {
      "midi": 75,
      "hit": false,
      "t": 10500.000000000002,
      "d": 250,
      "v": 65
    },
    {
      "midi": 67,
      "hit": false,
      "t": 10750.000000000002,
      "d": 114.58333333333394,
      "v": 71
    },
    {
      "midi": 65,
      "hit": false,
      "t": 10750.000000000002,
      "d": 135.41666666666788,
      "v": 63
    },
    {
      "midi": 45,
      "hit": false,
      "t": 11000.000000000004,
      "d": 109.375,
      "v": 113
    },
    {
      "midi": 57,
      "hit": false,
      "t": 11000.000000000004,
      "d": 109.375,
      "v": 110
    },
    {
      "midi": 71,
      "hit": false,
      "t": 11000.000000000004,
      "d": 130.20833333333394,
      "v": 111
    },
    {
      "midi": 73,
      "hit": false,
      "t": 11000.000000000004,
      "d": 130.20833333333394,
      "v": 99
    },
    {
      "midi": 67,
      "hit": false,
      "t": 11000.000000000004,
      "d": 135.41666666666788,
      "v": 102
    },
    {
      "midi": 73,
      "hit": false,
      "t": 11250.000000000005,
      "d": 125,
      "v": 80
    },
    {
      "midi": 57,
      "hit": false,
      "t": 11250.000000000005,
      "d": 130.20833333333394,
      "v": 105
    },
    {
      "midi": 67,
      "hit": false,
      "t": 11250.000000000005,
      "d": 130.20833333333394,
      "v": 76
    },
    {
      "midi": 71,
      "hit": false,
      "t": 11250.000000000005,
      "d": 140.625,
      "v": 96
    },
    {
      "midi": 45,
      "hit": false,
      "t": 11250.000000000005,
      "d": 161.45833333333394,
      "v": 108
    },
    {
      "midi": 67,
      "hit": false,
      "t": 11500.000000000005,
      "d": 281.25,
      "v": 109
    },
    {
      "midi": 75,
      "hit": false,
      "t": 11500.000000000005,
      "d": 322.91666666666606,
      "v": 121
    },
    {
      "midi": 73,
      "hit": false,
      "t": 12000.000000000005,
      "d": 171.875,
      "v": 110
    },
    {
      "midi": 44,
      "hit": false,
      "t": 12000.000000000005,
      "d": 177.08333333333394,
      "v": 114
    },
    {
      "midi": 56,
      "hit": false,
      "t": 12000.000000000005,
      "d": 187.5,
      "v": 107
    },
    {
      "midi": 77,
      "hit": false,
      "t": 12000.000000000005,
      "d": 192.70833333333394,
      "v": 109
    },
    {
      "midi": 66,
      "hit": false,
      "t": 12000.000000000005,
      "d": 213.54166666666788,
      "v": 119
    },
    {
      "midi": 66,
      "hit": false,
      "t": 12500.000000000007,
      "d": 140.625,
      "v": 115
    },
    {
      "midi": 72,
      "hit": false,
      "t": 12500.000000000007,
      "d": 156.25,
      "v": 116
    },
    {
      "midi": 75,
      "hit": false,
      "t": 12500.000000000007,
      "d": 192.70833333333394,
      "v": 115
    },
    {
      "midi": 66,
      "hit": false,
      "t": 12750.000000000007,
      "d": 62.5,
      "v": 44
    },
    {
      "midi": 73,
      "hit": false,
      "t": 13000.000000000007,
      "d": 140.625,
      "v": 115
    },
    {
      "midi": 70,
      "hit": false,
      "t": 13000.000000000007,
      "d": 145.83333333333394,
      "v": 117
    },
    {
      "midi": 42,
      "hit": false,
      "t": 13000.000000000007,
      "d": 171.875,
      "v": 120
    },
    {
      "midi": 66,
      "hit": false,
      "t": 13000.000000000007,
      "d": 203.125,
      "v": 121
    },
    {
      "midi": 54,
      "hit": false,
      "t": 13000.000000000007,
      "d": 223.95833333333394,
      "v": 120
    },
    {
      "midi": 70,
      "hit": false,
      "t": 13250.000000000007,
      "d": 83.33333333333394,
      "v": 74
    },
    {
      "midi": 73,
      "hit": false,
      "t": 13250.000000000007,
      "d": 88.54166666666788,
      "v": 89
    },
    {
      "midi": 72,
      "hit": false,
      "t": 13500.00000000001,
      "d": 109.375,
      "v": 104
    },
    {
      "midi": 75,
      "hit": false,
      "t": 13500.00000000001,
      "d": 119.79166666666606,
      "v": 103
    },
    {
      "midi": 77,
      "hit": false,
      "t": 13750.00000000001,
      "d": 171.875,
      "v": 118
    },
    {
      "midi": 73,
      "hit": false,
      "t": 13750.00000000001,
      "d": 187.5,
      "v": 121
    },
    {
      "midi": 41,
      "hit": false,
      "t": 13750.00000000001,
      "d": 192.70833333333394,
      "v": 119
    },
    {
      "midi": 53,
      "hit": false,
      "t": 13750.00000000001,
      "d": 208.33333333333394,
      "v": 114
    },
    {
      "midi": 65,
      "hit": false,
      "t": 13750.00000000001,
      "d": 234.375,
      "v": 119
    },
    {
      "midi": 73,
      "hit": false,
      "t": 14250.00000000001,
      "d": 166.66666666666606,
      "v": 121
    },
    {
      "midi": 77,
      "hit": false,
      "t": 14250.00000000001,
      "d": 187.5,
      "v": 120
    },
    {
      "midi": 65,
      "hit": false,
      "t": 14250.00000000001,
      "d": 281.25,
      "v": 119
    },
    {
      "midi": 72,
      "hit": false,
      "t": 14500.00000000001,
      "d": 161.45833333333394,
      "v": 96
    },
    {
      "midi": 75,
      "hit": false,
      "t": 14500.00000000001,
      "d": 187.5,
      "v": 89
    },
    {
      "midi": 65,
      "hit": false,
      "t": 14750.00000000001,
      "d": 62.5,
      "v": 27
    },
    {
      "midi": 70,
      "hit": false,
      "t": 15000.00000000001,
      "d": 229.16666666666606,
      "v": 121
    },
    {
      "midi": 73,
      "hit": false,
      "t": 15000.00000000001,
      "d": 276.04166666666606,
      "v": 115
    },
    {
      "midi": 65,
      "hit": false,
      "t": 15000.00000000001,
      "d": 307.29166666666606,
      "v": 116
    },
    {
      "midi": 53,
      "hit": false,
      "t": 15250.00000000001,
      "d": 208.33333333333212,
      "v": 111
    },
    {
      "midi": 49,
      "hit": false,
      "t": 15500.000000000007,
      "d": 203.125,
      "v": 107
    },
    {
      "midi": 72,
      "hit": false,
      "t": 15500.000000000007,
      "d": 213.54166666666606,
      "v": 116
    },
    {
      "midi": 65,
      "hit": false,
      "t": 15500.000000000007,
      "d": 255.20833333333394,
      "v": 116
    },
    {
      "midi": 75,
      "hit": false,
      "t": 15500.000000000007,
      "d": 296.875,
      "v": 117
    },
    {
      "midi": 41,
      "hit": false,
      "t": 15750.000000000007,
      "d": 130.20833333333394,
      "v": 108
    },
    {
      "midi": 39,
      "hit": false,
      "t": 16000.000000000007,
      "d": 182.29166666666606,
      "v": 117
    },
    {
      "midi": 66,
      "hit": false,
      "t": 16000.000000000007,
      "d": 192.70833333333212,
      "v": 117
    },
    {
      "midi": 51,
      "hit": false,
      "t": 16000.000000000007,
      "d": 197.91666666666606,
      "v": 106
    },
    {
      "midi": 73,
      "hit": false,
      "t": 16000.000000000007,
      "d": 197.91666666666606,
      "v": 114
    },
    {
      "midi": 77,
      "hit": false,
      "t": 16000.000000000007,
      "d": 218.75,
      "v": 111
    },
    {
      "midi": 53,
      "hit": false,
      "t": 16500.000000000007,
      "d": 93.75,
      "v": 113
    },
    {
      "midi": 41,
      "hit": false,
      "t": 16500.000000000007,
      "d": 177.08333333333212,
      "v": 120
    },
    {
      "midi": 72,
      "hit": false,
      "t": 16500.000000000007,
      "d": 317.7083333333321,
      "v": 115
    },
    {
      "midi": 75,
      "hit": false,
      "t": 16500.000000000007,
      "d": 354.16666666666424,
      "v": 116
    },
    {
      "midi": 54,
      "hit": false,
      "t": 16750.000000000007,
      "d": 182.29166666666424,
      "v": 108
    },
    {
      "midi": 73,
      "hit": false,
      "t": 17000.000000000004,
      "d": 140.625,
      "v": 107
    },
    {
      "midi": 70,
      "hit": false,
      "t": 17000.000000000004,
      "d": 145.83333333333212,
      "v": 108
    },
    {
      "midi": 44,
      "hit": false,
      "t": 17000.000000000004,
      "d": 187.5,
      "v": 114
    },
    {
      "midi": 66,
      "hit": false,
      "t": 17000.000000000004,
      "d": 192.70833333333212,
      "v": 120
    },
    {
      "midi": 56,
      "hit": false,
      "t": 17000.000000000004,
      "d": 203.125,
      "v": 110
    },
    {
      "midi": 70,
      "hit": false,
      "t": 17250.000000000004,
      "d": 104.16666666666788,
      "v": 75
    },
    {
      "midi": 73,
      "hit": false,
      "t": 17250.000000000004,
      "d": 119.79166666666788,
      "v": 85
    },
    {
      "midi": 57,
      "hit": false,
      "t": 17500.000000000004,
      "d": 130.20833333333212,
      "v": 103
    },
    {
      "midi": 69,
      "hit": false,
      "t": 17500.000000000004,
      "d": 145.83333333333212,
      "v": 114
    },
    {
      "midi": 45,
      "hit": false,
      "t": 17500.000000000004,
      "d": 151.04166666666424,
      "v": 113
    },
    {
      "midi": 72,
      "hit": false,
      "t": 17500.000000000004,
      "d": 177.08333333333212,
      "v": 110
    },
    {
      "midi": 58,
      "hit": false,
      "t": 17750.000000000004,
      "d": 161.45833333333212,
      "v": 116
    },
    {
      "midi": 70,
      "hit": false,
      "t": 17750.000000000004,
      "d": 171.875,
      "v": 114
    },
    {
      "midi": 73,
      "hit": false,
      "t": 17750.000000000004,
      "d": 171.875,
      "v": 109
    },
    {
      "midi": 46,
      "hit": false,
      "t": 17750.000000000004,
      "d": 213.54166666666788,
      "v": 116
    },
    {
      "midi": 67,
      "hit": false,
      "t": 18250.000000000004,
      "d": 145.83333333333212,
      "v": 88
    },
    {
      "midi": 73,
      "hit": false,
      "t": 18250.000000000004,
      "d": 145.83333333333212,
      "v": 120
    },
    {
      "midi": 77,
      "hit": false,
      "t": 18250.000000000004,
      "d": 234.375,
      "v": 123
    },
    {
      "midi": 65,
      "hit": false,
      "t": 18250.000000000004,
      "d": 239.58333333333212,
      "v": 118
    },
    {
      "midi": 72,
      "hit": false,
      "t": 18500.000000000004,
      "d": 161.45833333333212,
      "v": 88
    },
    {
      "midi": 75,
      "hit": false,
      "t": 18500.000000000004,
      "d": 239.58333333333212,
      "v": 82
    },
    {
      "midi": 65,
      "hit": false,
      "t": 18750.000000000004,
      "d": 145.83333333333212,
      "v": 85
    },
    {
      "midi": 57,
      "hit": false,
      "t": 19000.000000000004,
      "d": 98.95833333333212,
      "v": 110
    },
    {
      "midi": 45,
      "hit": false,
      "t": 19000.000000000004,
      "d": 104.16666666666424,
      "v": 111
    },
    {
      "midi": 73,
      "hit": false,
      "t": 19000.000000000004,
      "d": 114.58333333333212,
      "v": 100
    },
    {
      "midi": 71,
      "hit": false,
      "t": 19000.000000000004,
      "d": 125,
      "v": 113
    },
    {
      "midi": 67,
      "hit": false,
      "t": 19000.000000000004,
      "d": 130.20833333333212,
      "v": 105
    },
    {
      "midi": 57,
      "hit": false,
      "t": 19250.000000000004,
      "d": 109.375,
      "v": 110
    },
    {
      "midi": 67,
      "hit": false,
      "t": 19250.000000000004,
      "d": 119.79166666666788,
      "v": 102
    },
    {
      "midi": 71,
      "hit": false,
      "t": 19250.000000000004,
      "d": 119.79166666666788,
      "v": 110
    },
    {
      "midi": 73,
      "hit": false,
      "t": 19250.000000000004,
      "d": 119.79166666666788,
      "v": 105
    },
    {
      "midi": 45,
      "hit": false,
      "t": 19250.000000000004,
      "d": 125,
      "v": 114
    },
    {
      "midi": 67,
      "hit": false,
      "t": 19500.000000000004,
      "d": 265.625,
      "v": 113
    },
    {
      "midi": 75,
      "hit": false,
      "t": 19500.000000000004,
      "d": 338.5416666666679,
      "v": 121
    },
    {
      "midi": 44,
      "hit": false,
      "t": 20000.000000000004,
      "d": 156.25,
      "v": 116
    },
    {
      "midi": 73,
      "hit": false,
      "t": 20000.000000000004,
      "d": 161.45833333333212,
      "v": 112
    },
    {
      "midi": 56,
      "hit": false,
      "t": 20000.000000000004,
      "d": 171.875,
      "v": 114
    },
    {
      "midi": 77,
      "hit": false,
      "t": 20000.000000000004,
      "d": 208.33333333333212,
      "v": 116
    },
    {
      "midi": 66,
      "hit": false,
      "t": 20000.000000000004,
      "d": 213.54166666666424,
      "v": 120
    },
    {
      "midi": 72,
      "hit": false,
      "t": 20500,
      "d": 145.83333333333212,
      "v": 114
    },
    {
      "midi": 75,
      "hit": false,
      "t": 20500,
      "d": 171.875,
      "v": 114
    },
    {
      "midi": 66,
      "hit": false,
      "t": 20500,
      "d": 239.58333333333212,
      "v": 117
    },
    {
      "midi": 70,
      "hit": false,
      "t": 21000,
      "d": 140.625,
      "v": 119
    },
    {
      "midi": 73,
      "hit": false,
      "t": 21000,
      "d": 145.83333333333212,
      "v": 114
    },
    {
      "midi": 42,
      "hit": false,
      "t": 21000,
      "d": 192.70833333333212,
      "v": 115
    },
    {
      "midi": 66,
      "hit": false,
      "t": 21000,
      "d": 197.91666666666424,
      "v": 121
    },
    {
      "midi": 54,
      "hit": false,
      "t": 21000,
      "d": 208.33333333333212,
      "v": 115
    },
    {
      "midi": 70,
      "hit": false,
      "t": 21250,
      "d": 98.95833333333212,
      "v": 68
    },
    {
      "midi": 73,
      "hit": false,
      "t": 21250,
      "d": 104.16666666666424,
      "v": 66
    },
    {
      "midi": 72,
      "hit": false,
      "t": 21499.999999999996,
      "d": 114.58333333333212,
      "v": 108
    },
    {
      "midi": 75,
      "hit": false,
      "t": 21499.999999999996,
      "d": 140.625,
      "v": 109
    },
    {
      "midi": 73,
      "hit": false,
      "t": 21749.999999999996,
      "d": 187.5,
      "v": 117
    },
    {
      "midi": 41,
      "hit": false,
      "t": 21749.999999999996,
      "d": 192.70833333333212,
      "v": 118
    },
    {
      "midi": 53,
      "hit": false,
      "t": 21749.999999999996,
      "d": 197.91666666666424,
      "v": 111
    },
    {
      "midi": 77,
      "hit": false,
      "t": 21749.999999999996,
      "d": 203.12499999999636,
      "v": 118
    },
    {
      "midi": 65,
      "hit": false,
      "t": 21749.999999999996,
      "d": 208.33333333332848,
      "v": 118
    },
    {
      "midi": 73,
      "hit": false,
      "t": 22249.999999999993,
      "d": 182.29166666666788,
      "v": 120
    },
    {
      "midi": 77,
      "hit": false,
      "t": 22249.999999999993,
      "d": 208.33333333333576,
      "v": 122
    },
    {
      "midi": 65,
      "hit": false,
      "t": 22249.999999999993,
      "d": 312.50000000000364,
      "v": 120
    },
    {
      "midi": 72,
      "hit": false,
      "t": 22499.999999999996,
      "d": 171.875,
      "v": 96
    },
    {
      "midi": 75,
      "hit": false,
      "t": 22499.999999999996,
      "d": 213.54166666666788,
      "v": 84
    },
    {
      "midi": 65,
      "hit": false,
      "t": 22749.999999999996,
      "d": 62.5,
      "v": 46
    },
    {
      "midi": 73,
      "hit": false,
      "t": 22999.999999999996,
      "d": 234.375,
      "v": 116
    },
    {
      "midi": 65,
      "hit": false,
      "t": 22999.999999999996,
      "d": 260.4166666666679,
      "v": 118
    },
    {
      "midi": 70,
      "hit": false,
      "t": 22999.999999999996,
      "d": 260.4166666666679,
      "v": 121
    },
    {
      "midi": 53,
      "hit": false,
      "t": 23249.999999999996,
      "d": 229.16666666666788,
      "v": 119
    },
    {
      "midi": 49,
      "hit": false,
      "t": 23499.999999999996,
      "d": 192.70833333333212,
      "v": 109
    },
    {
      "midi": 72,
      "hit": false,
      "t": 23499.999999999996,
      "d": 223.95833333333212,
      "v": 116
    },
    {
      "midi": 65,
      "hit": false,
      "t": 23499.999999999996,
      "d": 239.58333333333212,
      "v": 116
    },
    {
      "midi": 75,
      "hit": false,
      "t": 23499.999999999996,
      "d": 244.79166666666424,
      "v": 121
    },
    {
      "midi": 41,
      "hit": false,
      "t": 23749.999999999993,
      "d": 125,
      "v": 108
    },
    {
      "midi": 49,
      "hit": false,
      "t": 23999.999999999993,
      "d": 31.25,
      "v": 87
    },
    {
      "midi": 73,
      "hit": false,
      "t": 23999.999999999993,
      "d": 161.45833333333212,
      "v": 114
    },
    {
      "midi": 39,
      "hit": false,
      "t": 23999.999999999993,
      "d": 166.66666666666424,
      "v": 124
    },
    {
      "midi": 51,
      "hit": false,
      "t": 23999.999999999993,
      "d": 171.87499999999636,
      "v": 120
    },
    {
      "midi": 77,
      "hit": false,
      "t": 23999.999999999993,
      "d": 192.70833333332848,
      "v": 119
    },
    {
      "midi": 66,
      "hit": false,
      "t": 23999.999999999993,
      "d": 213.5416666666606,
      "v": 121
    },
    {
      "midi": 53,
      "hit": false,
      "t": 24499.999999999985,
      "d": 83.33333333333212,
      "v": 116
    },
    {
      "midi": 41,
      "hit": false,
      "t": 24499.999999999985,
      "d": 166.66666666666424,
      "v": 120
    },
    {
      "midi": 72,
      "hit": false,
      "t": 24499.999999999985,
      "d": 203.12499999999636,
      "v": 113
    },
    {
      "midi": 65,
      "hit": false,
      "t": 24499.999999999985,
      "d": 255.20833333332848,
      "v": 118
    },
    {
      "midi": 75,
      "hit": false,
      "t": 24499.999999999985,
      "d": 255.20833333332848,
      "v": 120
    },
    {
      "midi": 54,
      "hit": false,
      "t": 24749.99999999998,
      "d": 182.29166666666424,
      "v": 103
    },
    {
      "midi": 70,
      "hit": false,
      "t": 24999.999999999978,
      "d": 156.25,
      "v": 112
    },
    {
      "midi": 73,
      "hit": false,
      "t": 24999.999999999978,
      "d": 156.25,
      "v": 112
    },
    {
      "midi": 44,
      "hit": false,
      "t": 24999.999999999978,
      "d": 187.5,
      "v": 115
    },
    {
      "midi": 56,
      "hit": false,
      "t": 24999.999999999978,
      "d": 197.91666666666788,
      "v": 108
    },
    {
      "midi": 66,
      "hit": false,
      "t": 24999.999999999978,
      "d": 213.54166666666788,
      "v": 117
    },
    {
      "midi": 70,
      "hit": false,
      "t": 25249.999999999978,
      "d": 104.16666666666788,
      "v": 63
    },
    {
      "midi": 73,
      "hit": false,
      "t": 25249.999999999978,
      "d": 125,
      "v": 71
    },
    {
      "midi": 57,
      "hit": false,
      "t": 25499.999999999978,
      "d": 98.95833333333212,
      "v": 110
    },
    {
      "midi": 45,
      "hit": false,
      "t": 25499.999999999978,
      "d": 135.41666666666424,
      "v": 113
    },
    {
      "midi": 69,
      "hit": false,
      "t": 25499.999999999978,
      "d": 145.83333333333212,
      "v": 116
    },
    {
      "midi": 72,
      "hit": false,
      "t": 25499.999999999978,
      "d": 171.875,
      "v": 111
    },
    {
      "midi": 58,
      "hit": false,
      "t": 25749.999999999978,
      "d": 156.25,
      "v": 112
    },
    {
      "midi": 70,
      "hit": false,
      "t": 25749.999999999978,
      "d": 171.875,
      "v": 115
    },
    {
      "midi": 73,
      "hit": false,
      "t": 25749.999999999978,
      "d": 177.08333333333212,
      "v": 108
    },
    {
      "midi": 46,
      "hit": false,
      "t": 25749.999999999978,
      "d": 213.54166666666424,
      "v": 119
    },
    {
      "midi": 73,
      "hit": false,
      "t": 26249.999999999975,
      "d": 171.875,
      "v": 125
    },
    {
      "midi": 65,
      "hit": false,
      "t": 26249.999999999975,
      "d": 213.54166666666788,
      "v": 120
    },
    {
      "midi": 77,
      "hit": false,
      "t": 26249.999999999975,
      "d": 218.75,
      "v": 122
    },
    {
      "midi": 72,
      "hit": false,
      "t": 26499.999999999975,
      "d": 151.04166666666788,
      "v": 94
    },
    {
      "midi": 75,
      "hit": false,
      "t": 26499.999999999975,
      "d": 239.58333333333576,
      "v": 92
    },
    {
      "midi": 65,
      "hit": false,
      "t": 26749.999999999978,
      "d": 98.95833333333212,
      "v": 71
    },
    {
      "midi": 57,
      "hit": false,
      "t": 26999.999999999978,
      "d": 83.33333333333212,
      "v": 114
    },
    {
      "midi": 45,
      "hit": false,
      "t": 26999.999999999978,
      "d": 88.54166666666424,
      "v": 118
    },
    {
      "midi": 67,
      "hit": false,
      "t": 26999.999999999978,
      "d": 88.54166666666424,
      "v": 113
    },
    {
      "midi": 71,
      "hit": false,
      "t": 26999.999999999978,
      "d": 93.74999999999636,
      "v": 118
    },
    {
      "midi": 73,
      "hit": false,
      "t": 26999.999999999978,
      "d": 93.74999999999636,
      "v": 110
    },
    {
      "midi": 71,
      "hit": false,
      "t": 27249.999999999975,
      "d": 93.75,
      "v": 114
    },
    {
      "midi": 57,
      "hit": false,
      "t": 27249.999999999975,
      "d": 104.16666666666788,
      "v": 110
    },
    {
      "midi": 73,
      "hit": false,
      "t": 27249.999999999975,
      "d": 104.16666666666788,
      "v": 110
    },
    {
      "midi": 67,
      "hit": false,
      "t": 27249.999999999975,
      "d": 109.375,
      "v": 111
    },
    {
      "midi": 45,
      "hit": false,
      "t": 27249.999999999975,
      "d": 114.58333333333212,
      "v": 113
    },
    {
      "midi": 67,
      "hit": false,
      "t": 27499.999999999975,
      "d": 281.25,
      "v": 113
    },
    {
      "midi": 75,
      "hit": false,
      "t": 27499.999999999975,
      "d": 328.125,
      "v": 121
    },
    {
      "midi": 44,
      "hit": false,
      "t": 27999.999999999975,
      "d": 171.875,
      "v": 114
    },
    {
      "midi": 56,
      "hit": false,
      "t": 27999.999999999975,
      "d": 177.08333333333212,
      "v": 110
    },
    {
      "midi": 77,
      "hit": false,
      "t": 27999.999999999975,
      "d": 182.29166666666424,
      "v": 115
    },
    {
      "midi": 73,
      "hit": false,
      "t": 27999.999999999975,
      "d": 187.49999999999636,
      "v": 115
    },
    {
      "midi": 66,
      "hit": false,
      "t": 27999.999999999975,
      "d": 218.74999999999636,
      "v": 121
    },
    {
      "midi": 72,
      "hit": false,
      "t": 28499.99999999997,
      "d": 161.45833333333212,
      "v": 116
    },
    {
      "midi": 66,
      "hit": false,
      "t": 28499.99999999997,
      "d": 197.91666666666424,
      "v": 121
    },
    {
      "midi": 75,
      "hit": false,
      "t": 28499.99999999997,
      "d": 197.91666666666424,
      "v": 113
    },
    {
      "midi": 73,
      "hit": false,
      "t": 28999.999999999967,
      "d": 151.04166666666788,
      "v": 116
    },
    {
      "midi": 70,
      "hit": false,
      "t": 28999.999999999967,
      "d": 156.25,
      "v": 119
    },
    {
      "midi": 42,
      "hit": false,
      "t": 28999.999999999967,
      "d": 171.875,
      "v": 116
    },
    {
      "midi": 54,
      "hit": false,
      "t": 28999.999999999967,
      "d": 203.125,
      "v": 116
    },
    {
      "midi": 66,
      "hit": false,
      "t": 28999.999999999967,
      "d": 203.125,
      "v": 124
    },
    {
      "midi": 70,
      "hit": false,
      "t": 29249.999999999967,
      "d": 98.95833333333212,
      "v": 74
    },
    {
      "midi": 73,
      "hit": false,
      "t": 29249.999999999967,
      "d": 98.95833333333212,
      "v": 80
    },
    {
      "midi": 72,
      "hit": false,
      "t": 29499.999999999967,
      "d": 125,
      "v": 113
    },
    {
      "midi": 75,
      "hit": false,
      "t": 29499.999999999967,
      "d": 151.04166666666788,
      "v": 110
    },
    {
      "midi": 75,
      "hit": false,
      "t": 29749.999999999967,
      "d": 41.66666666666788,
      "v": 64
    },
    {
      "midi": 73,
      "hit": false,
      "t": 29749.999999999967,
      "d": 171.875,
      "v": 124
    },
    {
      "midi": 65,
      "hit": false,
      "t": 29749.999999999967,
      "d": 197.91666666666788,
      "v": 122
    },
    {
      "midi": 41,
      "hit": false,
      "t": 29749.999999999967,
      "d": 223.95833333333576,
      "v": 116
    },
    {
      "midi": 77,
      "hit": false,
      "t": 29749.999999999967,
      "d": 223.95833333333576,
      "v": 119
    },
    {
      "midi": 53,
      "hit": false,
      "t": 29749.999999999967,
      "d": 229.16666666666788,
      "v": 105
    },
    {
      "midi": 73,
      "hit": false,
      "t": 30249.999999999967,
      "d": 171.875,
      "v": 122
    },
    {
      "midi": 77,
      "hit": false,
      "t": 30249.999999999967,
      "d": 213.54166666666788,
      "v": 120
    },
    {
      "midi": 65,
      "hit": false,
      "t": 30249.999999999967,
      "d": 286.4583333333321,
      "v": 122
    },
    {
      "midi": 72,
      "hit": false,
      "t": 30499.999999999967,
      "d": 156.25,
      "v": 94
    },
    {
      "midi": 75,
      "hit": false,
      "t": 30499.999999999967,
      "d": 208.33333333333212,
      "v": 83
    },
    {
      "midi": 65,
      "hit": false,
      "t": 30749.999999999967,
      "d": 104.16666666666788,
      "v": 60
    },
    {
      "midi": 70,
      "hit": false,
      "t": 30999.999999999967,
      "d": 234.375,
      "v": 124
    },
    {
      "midi": 73,
      "hit": false,
      "t": 30999.999999999967,
      "d": 234.375,
      "v": 119
    },
    {
      "midi": 65,
      "hit": false,
      "t": 30999.999999999967,
      "d": 260.4166666666679,
      "v": 123
    },
    {
      "midi": 53,
      "hit": false,
      "t": 31249.999999999967,
      "d": 192.70833333333576,
      "v": 114
    },
    {
      "midi": 49,
      "hit": false,
      "t": 31499.99999999997,
      "d": 187.5,
      "v": 114
    },
    {
      "midi": 72,
      "hit": false,
      "t": 31499.99999999997,
      "d": 223.95833333333212,
      "v": 118
    },
    {
      "midi": 65,
      "hit": false,
      "t": 31499.99999999997,
      "d": 255.20833333333212,
      "v": 119
    },
    {
      "midi": 75,
      "hit": false,
      "t": 31499.99999999997,
      "d": 276.04166666666424,
      "v": 121
    },
    {
      "midi": 41,
      "hit": false,
      "t": 31749.99999999997,
      "d": 124.99999999999636,
      "v": 109
    },
    {
      "midi": 73,
      "hit": false,
      "t": 31999.999999999967,
      "d": 171.875,
      "v": 108
    },
    {
      "midi": 39,
      "hit": false,
      "t": 31999.999999999967,
      "d": 182.29166666666788,
      "v": 119
    },
    {
      "midi": 51,
      "hit": false,
      "t": 31999.999999999967,
      "d": 182.29166666666788,
      "v": 116
    },
    {
      "midi": 77,
      "hit": false,
      "t": 31999.999999999967,
      "d": 182.29166666666788,
      "v": 115
    },
    {
      "midi": 66,
      "hit": false,
      "t": 31999.999999999967,
      "d": 203.125,
      "v": 120
    },
    {
      "midi": 53,
      "hit": false,
      "t": 32499.999999999967,
      "d": 104.16666666666788,
      "v": 113
    },
    {
      "midi": 41,
      "hit": false,
      "t": 32499.999999999967,
      "d": 182.29166666666788,
      "v": 120
    },
    {
      "midi": 72,
      "hit": false,
      "t": 32499.999999999967,
      "d": 234.375,
      "v": 109
    },
    {
      "midi": 75,
      "hit": false,
      "t": 32499.999999999967,
      "d": 260.4166666666679,
      "v": 114
    },
    {
      "midi": 65,
      "hit": false,
      "t": 32499.999999999967,
      "d": 281.25000000000364,
      "v": 115
    },
    {
      "midi": 54,
      "hit": false,
      "t": 32749.999999999967,
      "d": 171.87500000000364,
      "v": 103
    },
    {
      "midi": 73,
      "hit": false,
      "t": 32999.99999999997,
      "d": 130.20833333333576,
      "v": 112
    },
    {
      "midi": 70,
      "hit": false,
      "t": 32999.99999999997,
      "d": 135.41666666667152,
      "v": 116
    },
    {
      "midi": 44,
      "hit": false,
      "t": 32999.99999999997,
      "d": 177.08333333333576,
      "v": 119
    },
    {
      "midi": 66,
      "hit": false,
      "t": 32999.99999999997,
      "d": 182.29166666667152,
      "v": 122
    },
    {
      "midi": 56,
      "hit": false,
      "t": 32999.99999999997,
      "d": 197.91666666667152,
      "v": 113
    },
    {
      "midi": 70,
      "hit": false,
      "t": 33249.99999999998,
      "d": 98.95833333333576,
      "v": 91
    },
    {
      "midi": 73,
      "hit": false,
      "t": 33249.99999999998,
      "d": 104.16666666667152,
      "v": 83
    },
    {
      "midi": 57,
      "hit": false,
      "t": 33499.999999999985,
      "d": 93.75,
      "v": 109
    },
    {
      "midi": 45,
      "hit": false,
      "t": 33499.999999999985,
      "d": 119.79166666666424,
      "v": 115
    },
    {
      "midi": 69,
      "hit": false,
      "t": 33499.999999999985,
      "d": 130.20833333332848,
      "v": 116
    },
    {
      "midi": 72,
      "hit": false,
      "t": 33499.999999999985,
      "d": 151.04166666666424,
      "v": 114
    },
    {
      "midi": 70,
      "hit": false,
      "t": 33749.999999999985,
      "d": 151.04166666666424,
      "v": 117
    },
    {
      "midi": 73,
      "hit": false,
      "t": 33749.999999999985,
      "d": 166.66666666666424,
      "v": 112
    },
    {
      "midi": 58,
      "hit": false,
      "t": 33749.999999999985,
      "d": 182.29166666666424,
      "v": 120
    },
    {
      "midi": 46,
      "hit": false,
      "t": 33749.999999999985,
      "d": 187.5,
      "v": 117
    },
    {
      "midi": 73,
      "hit": false,
      "t": 34249.999999999985,
      "d": 166.66666666666424,
      "v": 122
    },
    {
      "midi": 65,
      "hit": false,
      "t": 34249.999999999985,
      "d": 187.5,
      "v": 123
    },
    {
      "midi": 77,
      "hit": false,
      "t": 34249.999999999985,
      "d": 203.125,
      "v": 123
    },
    {
      "midi": 72,
      "hit": false,
      "t": 34499.999999999985,
      "d": 135.41666666666424,
      "v": 104
    },
    {
      "midi": 75,
      "hit": false,
      "t": 34499.999999999985,
      "d": 208.33333333332848,
      "v": 99
    },
    {
      "midi": 65,
      "hit": false,
      "t": 34749.99999999998,
      "d": 93.75,
      "v": 93
    },
    {
      "midi": 45,
      "hit": false,
      "t": 34999.99999999998,
      "d": 98.95833333333576,
      "v": 114
    },
    {
      "midi": 57,
      "hit": false,
      "t": 34999.99999999998,
      "d": 104.16666666667152,
      "v": 111
    },
    {
      "midi": 67,
      "hit": false,
      "t": 34999.99999999998,
      "d": 119.79166666667152,
      "v": 115
    },
    {
      "midi": 71,
      "hit": false,
      "t": 34999.99999999998,
      "d": 119.79166666667152,
      "v": 116
    },
    {
      "midi": 73,
      "hit": false,
      "t": 34999.99999999998,
      "d": 119.79166666667152,
      "v": 113
    },
    {
      "midi": 57,
      "hit": false,
      "t": 35249.999999999985,
      "d": 98.95833333333576,
      "v": 113
    },
    {
      "midi": 71,
      "hit": false,
      "t": 35249.999999999985,
      "d": 104.16666666667152,
      "v": 110
    },
    {
      "midi": 67,
      "hit": false,
      "t": 35249.999999999985,
      "d": 114.58333333333576,
      "v": 105
    },
    {
      "midi": 73,
      "hit": false,
      "t": 35249.999999999985,
      "d": 114.58333333333576,
      "v": 107
    },
    {
      "midi": 45,
      "hit": false,
      "t": 35249.999999999985,
      "d": 140.625,
      "v": 111
    },
    {
      "midi": 67,
      "hit": false,
      "t": 35499.999999999985,
      "d": 281.25,
      "v": 113
    },
    {
      "midi": 75,
      "hit": false,
      "t": 35499.999999999985,
      "d": 302.08333333333576,
      "v": 117
    },
    {
      "midi": 58,
      "hit": false,
      "t": 35989.58333333333,
      "d": 1656.25,
      "v": 50
    },
    {
      "midi": 61,
      "hit": false,
      "t": 35994.791666666664,
      "d": 1651.0416666666642,
      "v": 46
    },
    {
      "midi": 73,
      "hit": false,
      "t": 35999.999999999985,
      "d": 177.08333333333576,
      "v": 113
    },
    {
      "midi": 56,
      "hit": false,
      "t": 35999.999999999985,
      "d": 182.29166666667152,
      "v": 113
    },
    {
      "midi": 44,
      "hit": false,
      "t": 35999.999999999985,
      "d": 197.91666666667152,
      "v": 115
    },
    {
      "midi": 77,
      "hit": false,
      "t": 35999.999999999985,
      "d": 223.95833333333576,
      "v": 116
    },
    {
      "midi": 66,
      "hit": false,
      "t": 35999.999999999985,
      "d": 229.16666666667152,
      "v": 121
    },
    {
      "midi": 54,
      "hit": false,
      "t": 36005.20833333333,
      "d": 1645.8333333333358,
      "v": 46
    },
    {
      "midi": 63,
      "hit": false,
      "t": 36010.416666666664,
      "d": 1619.7916666666642,
      "v": 53
    },
    {
      "midi": 72,
      "hit": false,
      "t": 36499.99999999999,
      "d": 145.83333333333576,
      "v": 119
    },
    {
      "midi": 66,
      "hit": false,
      "t": 36499.99999999999,
      "d": 156.25,
      "v": 120
    },
    {
      "midi": 75,
      "hit": false,
      "t": 36499.99999999999,
      "d": 197.91666666666424,
      "v": 117
    },
    {
      "midi": 70,
      "hit": false,
      "t": 36999.99999999999,
      "d": 145.83333333333576,
      "v": 117
    },
    {
      "midi": 73,
      "hit": false,
      "t": 36999.99999999999,
      "d": 145.83333333333576,
      "v": 113
    },
    {
      "midi": 66,
      "hit": false,
      "t": 36999.99999999999,
      "d": 182.29166666667152,
      "v": 122
    },
    {
      "midi": 42,
      "hit": false,
      "t": 36999.99999999999,
      "d": 187.50000000000728,
      "v": 117
    },
    {
      "midi": 54,
      "hit": false,
      "t": 36999.99999999999,
      "d": 208.33333333334303,
      "v": 116
    },
    {
      "midi": 70,
      "hit": false,
      "t": 37250,
      "d": 88.54166666666424,
      "v": 83
    },
    {
      "midi": 73,
      "hit": false,
      "t": 37250,
      "d": 104.16666666666424,
      "v": 85
    },
    {
      "midi": 72,
      "hit": false,
      "t": 37500,
      "d": 88.54166666666424,
      "v": 110
    },
    {
      "midi": 75,
      "hit": false,
      "t": 37500,
      "d": 114.58333333332848,
      "v": 110
    },
    {
      "midi": 67,
      "hit": false,
      "t": 37749.99999999999,
      "d": 46.875,
      "v": 96
    },
    {
      "midi": 65,
      "hit": false,
      "t": 37749.99999999999,
      "d": 177.08333333333576,
      "v": 116
    },
    {
      "midi": 77,
      "hit": false,
      "t": 37749.99999999999,
      "d": 182.29166666667152,
      "v": 119
    },
    {
      "midi": 53,
      "hit": false,
      "t": 37749.99999999999,
      "d": 187.50000000000728,
      "v": 115
    },
    {
      "midi": 41,
      "hit": false,
      "t": 37749.99999999999,
      "d": 192.70833333334303,
      "v": 115
    },
    {
      "midi": 73,
      "hit": false,
      "t": 37749.99999999999,
      "d": 192.70833333334303,
      "v": 120
    },
    {
      "midi": 56,
      "hit": false,
      "t": 37755.20833333333,
      "d": 1833.3333333333358,
      "v": 46
    },
    {
      "midi": 61,
      "hit": false,
      "t": 37760.416666666664,
      "d": 1838.5416666666642,
      "v": 40
    },
    {
      "midi": 53,
      "hit": false,
      "t": 37770.83333333333,
      "d": 1802.0833333333358,
      "v": 39
    },
    {
      "midi": 73,
      "hit": false,
      "t": 38250,
      "d": 177.08333333333576,
      "v": 122
    },
    {
      "midi": 77,
      "hit": false,
      "t": 38250,
      "d": 197.91666666667152,
      "v": 120
    },
    {
      "midi": 65,
      "hit": false,
      "t": 38250,
      "d": 281.2500000000073,
      "v": 120
    },
    {
      "midi": 72,
      "hit": false,
      "t": 38500.00000000001,
      "d": 156.25,
      "v": 91
    },
    {
      "midi": 75,
      "hit": false,
      "t": 38500.00000000001,
      "d": 203.125,
      "v": 89
    },
    {
      "midi": 65,
      "hit": false,
      "t": 38750.00000000001,
      "d": 104.16666666666424,
      "v": 60
    },
    {
      "midi": 73,
      "hit": false,
      "t": 39000.00000000001,
      "d": 223.95833333333576,
      "v": 117
    },
    {
      "midi": 70,
      "hit": false,
      "t": 39000.00000000001,
      "d": 234.375,
      "v": 122
    },
    {
      "midi": 65,
      "hit": false,
      "t": 39000.00000000001,
      "d": 239.58333333333576,
      "v": 120
    },
    {
      "midi": 53,
      "hit": false,
      "t": 39250.00000000001,
      "d": 208.33333333333576,
      "v": 109
    },
    {
      "midi": 49,
      "hit": false,
      "t": 39500.00000000001,
      "d": 192.70833333333576,
      "v": 109
    },
    {
      "midi": 72,
      "hit": false,
      "t": 39500.00000000001,
      "d": 197.91666666667152,
      "v": 116
    },
    {
      "midi": 65,
      "hit": false,
      "t": 39500.00000000001,
      "d": 234.37500000000728,
      "v": 119
    },
    {
      "midi": 75,
      "hit": false,
      "t": 39500.00000000001,
      "d": 250.00000000000728,
      "v": 122
    },
    {
      "midi": 41,
      "hit": false,
      "t": 39750.000000000015,
      "d": 114.58333333333576,
      "v": 103
    },
    {
      "midi": 73,
      "hit": false,
      "t": 40000.000000000015,
      "d": 156.25,
      "v": 113
    },
    {
      "midi": 51,
      "hit": false,
      "t": 40000.000000000015,
      "d": 161.45833333333576,
      "v": 117
    },
    {
      "midi": 39,
      "hit": false,
      "t": 40000.000000000015,
      "d": 182.29166666667152,
      "v": 120
    },
    {
      "midi": 77,
      "hit": false,
      "t": 40000.000000000015,
      "d": 187.50000000000728,
      "v": 114
    },
    {
      "midi": 66,
      "hit": false,
      "t": 40000.000000000015,
      "d": 208.33333333334303,
      "v": 122
    },
    {
      "midi": 51,
      "hit": false,
      "t": 40005.20833333333,
      "d": 291.66666666666424,
      "v": 37
    },
    {
      "midi": 53,
      "hit": false,
      "t": 40255.20833333333,
      "d": 750,
      "v": 39
    },
    {
      "midi": 53,
      "hit": false,
      "t": 40500.00000000002,
      "d": 93.75,
      "v": 116
    },
    {
      "midi": 41,
      "hit": false,
      "t": 40500.00000000002,
      "d": 166.66666666666424,
      "v": 123
    },
    {
      "midi": 75,
      "hit": false,
      "t": 40500.00000000002,
      "d": 255.20833333333576,
      "v": 120
    },
    {
      "midi": 65,
      "hit": false,
      "t": 40500.00000000002,
      "d": 291.6666666666715,
      "v": 118
    },
    {
      "midi": 72,
      "hit": false,
      "t": 40500.00000000002,
      "d": 302.08333333333576,
      "v": 114
    },
    {
      "midi": 56,
      "hit": false,
      "t": 40526.04166666666,
      "d": 265.625,
      "v": 41
    },
    {
      "midi": 54,
      "hit": false,
      "t": 40750.00000000002,
      "d": 156.25,
      "v": 100
    },
    {
      "midi": 58,
      "hit": false,
      "t": 40786.45833333332,
      "d": 197.91666666667152,
      "v": 46
    },
    {
      "midi": 73,
      "hit": false,
      "t": 41000.00000000002,
      "d": 151.04166666666424,
      "v": 110
    },
    {
      "midi": 70,
      "hit": false,
      "t": 41000.00000000002,
      "d": 156.25,
      "v": 112
    },
    {
      "midi": 66,
      "hit": false,
      "t": 41000.00000000002,
      "d": 182.29166666666424,
      "v": 119
    },
    {
      "midi": 44,
      "hit": false,
      "t": 41000.00000000002,
      "d": 187.5,
      "v": 115
    },
    {
      "midi": 56,
      "hit": false,
      "t": 41000.00000000002,
      "d": 192.70833333333576,
      "v": 116
    },
    {
      "midi": 63,
      "hit": false,
      "t": 41031.24999999999,
      "d": 494.79166666666424,
      "v": 51
    },
    {
      "midi": 70,
      "hit": false,
      "t": 41250.00000000002,
      "d": 98.95833333333576,
      "v": 63
    },
    {
      "midi": 73,
      "hit": false,
      "t": 41250.00000000002,
      "d": 114.58333333333576,
      "v": 69
    },
    {
      "midi": 65,
      "hit": false,
      "t": 41499.99999999999,
      "d": 281.25,
      "v": 58
    },
    {
      "midi": 57,
      "hit": false,
      "t": 41500.00000000002,
      "d": 98.95833333333576,
      "v": 108
    },
    {
      "midi": 45,
      "hit": false,
      "t": 41500.00000000002,
      "d": 104.16666666667152,
      "v": 113
    },
    {
      "midi": 69,
      "hit": false,
      "t": 41500.00000000002,
      "d": 119.79166666667152,
      "v": 118
    },
    {
      "midi": 72,
      "hit": false,
      "t": 41500.00000000002,
      "d": 145.83333333333576,
      "v": 115
    },
    {
      "midi": 70,
      "hit": false,
      "t": 41750.00000000002,
      "d": 166.66666666666424,
      "v": 119
    },
    {
      "midi": 58,
      "hit": false,
      "t": 41750.00000000002,
      "d": 171.875,
      "v": 114
    },
    {
      "midi": 73,
      "hit": false,
      "t": 41750.00000000002,
      "d": 177.08333333333576,
      "v": 112
    },
    {
      "midi": 46,
      "hit": false,
      "t": 41750.00000000002,
      "d": 213.54166666667152,
      "v": 114
    },
    {
      "midi": 61,
      "hit": false,
      "t": 41776.04166666666,
      "d": 1697.9166666666715,
      "v": 66
    },
    {
      "midi": 73,
      "hit": false,
      "t": 42250.00000000003,
      "d": 156.25,
      "v": 126
    },
    {
      "midi": 65,
      "hit": false,
      "t": 42250.00000000003,
      "d": 203.125,
      "v": 122
    },
    {
      "midi": 77,
      "hit": false,
      "t": 42250.00000000003,
      "d": 218.75,
      "v": 122
    },
    {
      "midi": 72,
      "hit": false,
      "t": 42500.00000000003,
      "d": 119.79166666667152,
      "v": 92
    },
    {
      "midi": 75,
      "hit": false,
      "t": 42500.00000000003,
      "d": 234.37500000000728,
      "v": 89
    },
    {
      "midi": 65,
      "hit": false,
      "t": 42750.00000000004,
      "d": 125,
      "v": 91
    },
    {
      "midi": 45,
      "hit": false,
      "t": 43000.00000000004,
      "d": 88.54166666667152,
      "v": 110
    },
    {
      "midi": 67,
      "hit": false,
      "t": 43000.00000000004,
      "d": 93.75000000000728,
      "v": 110
    },
    {
      "midi": 71,
      "hit": false,
      "t": 43000.00000000004,
      "d": 93.75000000000728,
      "v": 115
    },
    {
      "midi": 57,
      "hit": false,
      "t": 43000.00000000004,
      "d": 98.95833333334303,
      "v": 108
    },
    {
      "midi": 73,
      "hit": false,
      "t": 43000.00000000004,
      "d": 98.95833333334303,
      "v": 108
    },
    {
      "midi": 71,
      "hit": false,
      "t": 43250.00000000006,
      "d": 93.75000000000728,
      "v": 111
    },
    {
      "midi": 57,
      "hit": false,
      "t": 43250.00000000006,
      "d": 109.37500000001455,
      "v": 109
    },
    {
      "midi": 73,
      "hit": false,
      "t": 43250.00000000006,
      "d": 109.37500000001455,
      "v": 108
    },
    {
      "midi": 45,
      "hit": false,
      "t": 43250.00000000006,
      "d": 125.00000000001455,
      "v": 111
    },
    {
      "midi": 67,
      "hit": false,
      "t": 43250.00000000006,
      "d": 135.4166666666788,
      "v": 109
    },
    {
      "midi": 67,
      "hit": false,
      "t": 43500.00000000007,
      "d": 192.70833333333576,
      "v": 110
    },
    {
      "midi": 75,
      "hit": false,
      "t": 43500.00000000007,
      "d": 250,
      "v": 119
    },
    {
      "midi": 73,
      "hit": false,
      "t": 44000.00000000007,
      "d": 161.45833333333576,
      "v": 113
    },
    {
      "midi": 44,
      "hit": false,
      "t": 44000.00000000007,
      "d": 166.66666666667152,
      "v": 115
    },
    {
      "midi": 56,
      "hit": false,
      "t": 44000.00000000007,
      "d": 166.66666666667152,
      "v": 112
    },
    {
      "midi": 77,
      "hit": false,
      "t": 44000.00000000007,
      "d": 192.70833333333576,
      "v": 116
    },
    {
      "midi": 66,
      "hit": false,
      "t": 44000.00000000007,
      "d": 317.70833333333576,
      "v": 122
    },
    {
      "midi": 65,
      "hit": false,
      "t": 44500.00000000007,
      "d": 52.08333333333576,
      "v": 57
    },
    {
      "midi": 66,
      "hit": false,
      "t": 44500.00000000007,
      "d": 145.83333333333576,
      "v": 119
    },
    {
      "midi": 72,
      "hit": false,
      "t": 44500.00000000007,
      "d": 166.66666666667152,
      "v": 118
    },
    {
      "midi": 75,
      "hit": false,
      "t": 44500.00000000007,
      "d": 213.54166666667152,
      "v": 115
    },
    {
      "midi": 73,
      "hit": false,
      "t": 45000.00000000008,
      "d": 151.04166666666424,
      "v": 113
    },
    {
      "midi": 70,
      "hit": false,
      "t": 45000.00000000008,
      "d": 156.25,
      "v": 116
    },
    {
      "midi": 42,
      "hit": false,
      "t": 45000.00000000008,
      "d": 182.29166666666424,
      "v": 113
    },
    {
      "midi": 66,
      "hit": false,
      "t": 45000.00000000008,
      "d": 197.91666666666424,
      "v": 122
    },
    {
      "midi": 54,
      "hit": false,
      "t": 45000.00000000008,
      "d": 260.41666666666424,
      "v": 112
    },
    {
      "midi": 63,
      "hit": false,
      "t": 45026.041666666664,
      "d": 2661.4583333333358,
      "v": 61
    },
    {
      "midi": 73,
      "hit": false,
      "t": 45250.00000000008,
      "d": 93.75,
      "v": 76
    },
    {
      "midi": 70,
      "hit": false,
      "t": 45250.00000000008,
      "d": 98.95833333333576,
      "v": 75
    },
    {
      "midi": 72,
      "hit": false,
      "t": 45500.00000000008,
      "d": 98.95833333333576,
      "v": 108
    },
    {
      "midi": 75,
      "hit": false,
      "t": 45500.00000000008,
      "d": 104.16666666667152,
      "v": 107
    },
    {
      "midi": 61,
      "hit": false,
      "t": 45505.20833333333,
      "d": 2213.5416666666715,
      "v": 32
    },
    {
      "midi": 41,
      "hit": false,
      "t": 45750.00000000009,
      "d": 171.875,
      "v": 116
    },
    {
      "midi": 73,
      "hit": false,
      "t": 45750.00000000009,
      "d": 177.08333333333576,
      "v": 120
    },
    {
      "midi": 53,
      "hit": false,
      "t": 45750.00000000009,
      "d": 197.91666666667152,
      "v": 114
    },
    {
      "midi": 65,
      "hit": false,
      "t": 45750.00000000009,
      "d": 197.91666666667152,
      "v": 120
    },
    {
      "midi": 77,
      "hit": false,
      "t": 45750.00000000009,
      "d": 203.12500000000728,
      "v": 120
    },
    {
      "midi": 58,
      "hit": false,
      "t": 45776.041666666664,
      "d": 1963.5416666666715,
      "v": 56
    },
    {
      "midi": 73,
      "hit": false,
      "t": 46250.000000000095,
      "d": 166.66666666666424,
      "v": 121
    },
    {
      "midi": 77,
      "hit": false,
      "t": 46250.000000000095,
      "d": 197.91666666666424,
      "v": 122
    },
    {
      "midi": 65,
      "hit": false,
      "t": 46250.000000000095,
      "d": 265.625,
      "v": 120
    },
    {
      "midi": 72,
      "hit": false,
      "t": 46500.000000000095,
      "d": 161.45833333333576,
      "v": 92
    },
    {
      "midi": 75,
      "hit": false,
      "t": 46500.000000000095,
      "d": 187.5,
      "v": 94
    },
    {
      "midi": 65,
      "hit": false,
      "t": 46750.000000000095,
      "d": 98.95833333333576,
      "v": 78
    },
    {
      "midi": 73,
      "hit": false,
      "t": 47000.000000000095,
      "d": 203.125,
      "v": 117
    },
    {
      "midi": 70,
      "hit": false,
      "t": 47000.000000000095,
      "d": 223.95833333333576,
      "v": 125
    },
    {
      "midi": 65,
      "hit": false,
      "t": 47000.000000000095,
      "d": 244.79166666667152,
      "v": 122
    },
    {
      "midi": 53,
      "hit": false,
      "t": 47250.0000000001,
      "d": 208.33333333333576,
      "v": 119
    },
    {
      "midi": 49,
      "hit": false,
      "t": 47500.0000000001,
      "d": 171.875,
      "v": 110
    },
    {
      "midi": 72,
      "hit": false,
      "t": 47500.0000000001,
      "d": 187.5,
      "v": 114
    },
    {
      "midi": 65,
      "hit": false,
      "t": 47500.0000000001,
      "d": 218.75,
      "v": 118
    },
    {
      "midi": 75,
      "hit": false,
      "t": 47500.0000000001,
      "d": 234.375,
      "v": 120
    },
    {
      "midi": 41,
      "hit": false,
      "t": 47750.0000000001,
      "d": 119.79166666666424,
      "v": 113
    },
    {
      "midi": 52,
      "hit": false,
      "t": 48000.0000000001,
      "d": 41.66666666666424,
      "v": 34
    },
    {
      "midi": 51,
      "hit": false,
      "t": 48000.0000000001,
      "d": 177.08333333332848,
      "v": 115
    },
    {
      "midi": 77,
      "hit": false,
      "t": 48000.0000000001,
      "d": 182.29166666666424,
      "v": 109
    },
    {
      "midi": 73,
      "hit": false,
      "t": 48000.0000000001,
      "d": 213.54166666666424,
      "v": 107
    },
    {
      "midi": 39,
      "hit": false,
      "t": 48000.0000000001,
      "d": 218.75,
      "v": 119
    },
    {
      "midi": 66,
      "hit": false,
      "t": 48000.0000000001,
      "d": 223.95833333333576,
      "v": 119
    },
    {
      "midi": 51,
      "hit": false,
      "t": 48031.25,
      "d": 291.66666666666424,
      "v": 37
    },
    {
      "midi": 53,
      "hit": false,
      "t": 48276.041666666664,
      "d": 406.25,
      "v": 38
    },
    {
      "midi": 53,
      "hit": false,
      "t": 48500.0000000001,
      "d": 93.75,
      "v": 119
    },
    {
      "midi": 41,
      "hit": false,
      "t": 48500.0000000001,
      "d": 182.29166666666424,
      "v": 123
    },
    {
      "midi": 72,
      "hit": false,
      "t": 48500.0000000001,
      "d": 182.29166666666424,
      "v": 109
    },
    {
      "midi": 65,
      "hit": false,
      "t": 48500.0000000001,
      "d": 234.375,
      "v": 118
    },
    {
      "midi": 75,
      "hit": false,
      "t": 48500.0000000001,
      "d": 234.375,
      "v": 120
    },
    {
      "midi": 56,
      "hit": false,
      "t": 48531.25,
      "d": 260.41666666666424,
      "v": 45
    },
    {
      "midi": 54,
      "hit": false,
      "t": 48750.0000000001,
      "d": 156.25,
      "v": 105
    },
    {
      "midi": 58,
      "hit": false,
      "t": 48755.20833333333,
      "d": 281.25,
      "v": 54
    },
    {
      "midi": 70,
      "hit": false,
      "t": 49000.0000000001,
      "d": 140.625,
      "v": 112
    },
    {
      "midi": 73,
      "hit": false,
      "t": 49000.0000000001,
      "d": 140.625,
      "v": 110
    },
    {
      "midi": 44,
      "hit": false,
      "t": 49000.0000000001,
      "d": 161.45833333333576,
      "v": 116
    },
    {
      "midi": 66,
      "hit": false,
      "t": 49000.0000000001,
      "d": 177.08333333333576,
      "v": 119
    },
    {
      "midi": 56,
      "hit": false,
      "t": 49000.0000000001,
      "d": 213.54166666667152,
      "v": 106
    },
    {
      "midi": 63,
      "hit": false,
      "t": 49026.041666666664,
      "d": 510.41666666666424,
      "v": 55
    },
    {
      "midi": 70,
      "hit": false,
      "t": 49250.00000000011,
      "d": 83.33333333333576,
      "v": 76
    },
    {
      "midi": 73,
      "hit": false,
      "t": 49250.00000000011,
      "d": 114.58333333333576,
      "v": 80
    },
    {
      "midi": 57,
      "hit": false,
      "t": 49500.00000000011,
      "d": 93.75,
      "v": 105
    },
    {
      "midi": 45,
      "hit": false,
      "t": 49500.00000000011,
      "d": 109.375,
      "v": 113
    },
    {
      "midi": 69,
      "hit": false,
      "t": 49500.00000000011,
      "d": 109.375,
      "v": 119
    },
    {
      "midi": 72,
      "hit": false,
      "t": 49500.00000000011,
      "d": 114.58333333333576,
      "v": 110
    },
    {
      "midi": 65,
      "hit": false,
      "t": 49526.041666666664,
      "d": 255.20833333332848,
      "v": 64
    },
    {
      "midi": 58,
      "hit": false,
      "t": 49750.00000000011,
      "d": 177.08333333333576,
      "v": 108
    },
    {
      "midi": 46,
      "hit": false,
      "t": 49750.00000000011,
      "d": 229.16666666667152,
      "v": 119
    },
    {
      "midi": 70,
      "hit": false,
      "t": 49750.00000000011,
      "d": 307.2916666666715,
      "v": 117
    },
    {
      "midi": 73,
      "hit": false,
      "t": 49750.00000000011,
      "d": 354.1666666666715,
      "v": 113
    },
    {
      "midi": 61,
      "hit": false,
      "t": 49781.24999999999,
      "d": 1453.125,
      "v": 64
    },
    {
      "midi": 34,
      "hit": false,
      "t": 50250.00000000012,
      "d": 171.875,
      "v": 116
    },
    {
      "midi": 41,
      "hit": false,
      "t": 50500.00000000012,
      "d": 203.125,
      "v": 81
    },
    {
      "midi": 46,
      "hit": false,
      "t": 50750.00000000012,
      "d": 187.5,
      "v": 103
    },
    {
      "midi": 58,
      "hit": false,
      "t": 51000.00000000012,
      "d": 197.91666666666424,
      "v": 115
    },
    {
      "midi": 65,
      "hit": false,
      "t": 51000.00000000012,
      "d": 197.91666666666424,
      "v": 108
    },
    {
      "midi": 68,
      "hit": false,
      "t": 51000.00000000012,
      "d": 218.75,
      "v": 114
    },
    {
      "midi": 49,
      "hit": false,
      "t": 51000.00000000012,
      "d": 223.95833333333576,
      "v": 113
    },
    {
      "midi": 58,
      "hit": false,
      "t": 51500.00000000012,
      "d": 171.875,
      "v": 124
    },
    {
      "midi": 63,
      "hit": false,
      "t": 51500.00000000012,
      "d": 182.29166666666424,
      "v": 122
    },
    {
      "midi": 67,
      "hit": false,
      "t": 51500.00000000012,
      "d": 203.125,
      "v": 120
    },
    {
      "midi": 46,
      "hit": false,
      "t": 51500.00000000012,
      "d": 244.79166666666424,
      "v": 102
    },
    {
      "midi": 41,
      "hit": false,
      "t": 51750.00000000012,
      "d": 213.54166666667152,
      "v": 91
    },
    {
      "midi": 82,
      "hit": false,
      "t": 51958.33333333345,
      "d": 4093.749999999971,
      "v": 41
    },
    {
      "midi": 56,
      "hit": false,
      "t": 52000.000000000124,
      "d": 203.125,
      "v": 117
    },
    {
      "midi": 61,
      "hit": false,
      "t": 52000.000000000124,
      "d": 260.41666666666424,
      "v": 117
    },
    {
      "midi": 34,
      "hit": false,
      "t": 52000.000000000124,
      "d": 718.7499999999927,
      "v": 107
    },
    {
      "midi": 65,
      "hit": false,
      "t": 52250.000000000124,
      "d": 192.70833333332848,
      "v": 100
    },
    {
      "midi": 63,
      "hit": false,
      "t": 52500.00000000012,
      "d": 182.29166666666424,
      "v": 116
    },
    {
      "midi": 46,
      "hit": false,
      "t": 52750.00000000012,
      "d": 213.54166666666424,
      "v": 112
    },
    {
      "midi": 61,
      "hit": false,
      "t": 53000.00000000012,
      "d": 552.0833333333358,
      "v": 119
    },
    {
      "midi": 41,
      "hit": false,
      "t": 53000.00000000012,
      "d": 749.9999999999927,
      "v": 98
    },
    {
      "midi": 58,
      "hit": false,
      "t": 53500.00000000012,
      "d": 171.875,
      "v": 107
    },
    {
      "midi": 46,
      "hit": false,
      "t": 53750.00000000011,
      "d": 208.33333333333576,
      "v": 108
    },
    {
      "midi": 56,
      "hit": false,
      "t": 53750.00000000011,
      "d": 1015.6249999999927,
      "v": 114
    },
    {
      "midi": 63,
      "hit": false,
      "t": 53750.00000000011,
      "d": 1052.0833333333285,
      "v": 107
    },
    {
      "midi": 34,
      "hit": false,
      "t": 54000.00000000011,
      "d": 776.041666666657,
      "v": 108
    },
    {
      "midi": 46,
      "hit": false,
      "t": 54750.0000000001,
      "d": 234.37500000000728,
      "v": 115
    },
    {
      "midi": 34,
      "hit": false,
      "t": 55000.00000000011,
      "d": 390.62499999998545,
      "v": 106
    },
    {
      "midi": 56,
      "hit": false,
      "t": 55000.00000000011,
      "d": 395.8333333333212,
      "v": 115
    },
    {
      "midi": 61,
      "hit": false,
      "t": 55000.00000000011,
      "d": 395.8333333333212,
      "v": 119
    },
    {
      "midi": 34,
      "hit": false,
      "t": 55500.0000000001,
      "d": 41.66666666666424,
      "v": 48
    },
    {
      "midi": 33,
      "hit": false,
      "t": 55500.0000000001,
      "d": 447.9166666666497,
      "v": 111
    },
    {
      "midi": 73,
      "hit": false,
      "t": 56000.00000000009,
      "d": 166.66666666667152,
      "v": 115
    },
    {
      "midi": 77,
      "hit": false,
      "t": 56000.00000000009,
      "d": 187.50000000000728,
      "v": 118
    },
    {
      "midi": 66,
      "hit": false,
      "t": 56000.00000000009,
      "d": 223.95833333334303,
      "v": 113
    },
    {
      "midi": 32,
      "hit": false,
      "t": 56000.00000000009,
      "d": 697.9166666666788,
      "v": 115
    },
    {
      "midi": 80,
      "hit": false,
      "t": 56052.08333333342,
      "d": 3875.000000000029,
      "v": 42
    },
    {
      "midi": 72,
      "hit": false,
      "t": 56500.000000000095,
      "d": 145.83333333333576,
      "v": 116
    },
    {
      "midi": 75,
      "hit": false,
      "t": 56500.000000000095,
      "d": 213.54166666667152,
      "v": 113
    },
    {
      "midi": 66,
      "hit": false,
      "t": 56500.000000000095,
      "d": 312.5000000000073,
      "v": 119
    },
    {
      "midi": 44,
      "hit": false,
      "t": 56750.0000000001,
      "d": 244.79166666666424,
      "v": 106
    },
    {
      "midi": 70,
      "hit": false,
      "t": 57000.0000000001,
      "d": 151.04166666666424,
      "v": 115
    },
    {
      "midi": 73,
      "hit": false,
      "t": 57000.0000000001,
      "d": 151.04166666666424,
      "v": 113
    },
    {
      "midi": 66,
      "hit": false,
      "t": 57000.0000000001,
      "d": 192.70833333332848,
      "v": 116
    },
    {
      "midi": 39,
      "hit": false,
      "t": 57000.0000000001,
      "d": 744.791666666657,
      "v": 101
    },
    {
      "midi": 70,
      "hit": false,
      "t": 57500.000000000095,
      "d": 166.66666666666424,
      "v": 116
    },
    {
      "midi": 77,
      "hit": false,
      "t": 57750.000000000095,
      "d": 692.7083333333358,
      "v": 118
    },
    {
      "midi": 73,
      "hit": false,
      "t": 57750.000000000095,
      "d": 713.5416666666715,
      "v": 115
    },
    {
      "midi": 66,
      "hit": false,
      "t": 57750.000000000095,
      "d": 718.7500000000073,
      "v": 110
    },
    {
      "midi": 32,
      "hit": false,
      "t": 57750.000000000095,
      "d": 963.5416666666788,
      "v": 110
    },
    {
      "midi": 72,
      "hit": false,
      "t": 58500.0000000001,
      "d": 192.70833333333576,
      "v": 116
    },
    {
      "midi": 66,
      "hit": false,
      "t": 58500.0000000001,
      "d": 208.33333333333576,
      "v": 104
    },
    {
      "midi": 75,
      "hit": false,
      "t": 58500.0000000001,
      "d": 213.54166666667152,
      "v": 112
    },
    {
      "midi": 44,
      "hit": false,
      "t": 58750.00000000011,
      "d": 229.16666666666424,
      "v": 107
    },
    {
      "midi": 39,
      "hit": false,
      "t": 59000.00000000011,
      "d": 213.54166666666424,
      "v": 94
    },
    {
      "midi": 73,
      "hit": false,
      "t": 59000.00000000011,
      "d": 213.54166666666424,
      "v": 104
    },
    {
      "midi": 70,
      "hit": false,
      "t": 59000.00000000011,
      "d": 291.66666666666424,
      "v": 115
    },
    {
      "midi": 66,
      "hit": false,
      "t": 59000.00000000011,
      "d": 359.375,
      "v": 114
    },
    {
      "midi": 44,
      "hit": false,
      "t": 59250.00000000011,
      "d": 250,
      "v": 107
    },
    {
      "midi": 32,
      "hit": false,
      "t": 59500.00000000011,
      "d": 177.08333333333576,
      "v": 106
    },
    {
      "midi": 75,
      "hit": false,
      "t": 59500.00000000011,
      "d": 197.91666666667152,
      "v": 115
    },
    {
      "midi": 66,
      "hit": false,
      "t": 59500.00000000011,
      "d": 244.79166666667152,
      "v": 112
    },
    {
      "midi": 33,
      "hit": false,
      "t": 59750.00000000012,
      "d": 182.29166666667152,
      "v": 108
    },
    {
      "midi": 82,
      "hit": false,
      "t": 59937.500000000124,
      "d": 4046.8750000000146,
      "v": 40
    },
    {
      "midi": 34,
      "hit": false,
      "t": 60000.000000000124,
      "d": 723.9583333333358,
      "v": 114
    },
    {
      "midi": 65,
      "hit": false,
      "t": 60250.000000000124,
      "d": 177.08333333333576,
      "v": 110
    },
    {
      "midi": 63,
      "hit": false,
      "t": 60500.000000000124,
      "d": 208.33333333333576,
      "v": 114
    },
    {
      "midi": 46,
      "hit": false,
      "t": 60750.000000000124,
      "d": 234.375,
      "v": 107
    },
    {
      "midi": 61,
      "hit": false,
      "t": 61000.000000000124,
      "d": 531.25,
      "v": 117
    },
    {
      "midi": 41,
      "hit": false,
      "t": 61000.000000000124,
      "d": 755.2083333333358,
      "v": 93
    },
    {
      "midi": 58,
      "hit": false,
      "t": 61500.000000000124,
      "d": 171.875,
      "v": 104
    },
    {
      "midi": 46,
      "hit": false,
      "t": 61750.000000000124,
      "d": 197.91666666667152,
      "v": 104
    },
    {
      "midi": 56,
      "hit": false,
      "t": 61750.000000000124,
      "d": 1088.5416666666715,
      "v": 112
    },
    {
      "midi": 63,
      "hit": false,
      "t": 61750.000000000124,
      "d": 1114.5833333333358,
      "v": 105
    },
    {
      "midi": 34,
      "hit": false,
      "t": 62000.00000000013,
      "d": 718.75,
      "v": 105
    },
    {
      "midi": 46,
      "hit": false,
      "t": 62750.00000000013,
      "d": 218.74999999999272,
      "v": 113
    },
    {
      "midi": 56,
      "hit": false,
      "t": 63000.000000000124,
      "d": 442.70833333333576,
      "v": 113
    },
    {
      "midi": 34,
      "hit": false,
      "t": 63000.000000000124,
      "d": 463.5416666666715,
      "v": 108
    },
    {
      "midi": 61,
      "hit": false,
      "t": 63000.000000000124,
      "d": 463.5416666666715,
      "v": 119
    },
    {
      "midi": 34,
      "hit": false,
      "t": 63500.00000000013,
      "d": 52.08333333333576,
      "v": 39
    },
    {
      "midi": 33,
      "hit": false,
      "t": 63500.00000000013,
      "d": 411.45833333333576,
      "v": 118
    },
    {
      "midi": 80,
      "hit": false,
      "t": 63979.1666666668,
      "d": 9572.916666666613,
      "v": 41
    },
    {
      "midi": 73,
      "hit": false,
      "t": 64000.00000000014,
      "d": 166.66666666666424,
      "v": 114
    },
    {
      "midi": 77,
      "hit": false,
      "t": 64000.00000000014,
      "d": 203.125,
      "v": 119
    },
    {
      "midi": 66,
      "hit": false,
      "t": 64000.00000000014,
      "d": 250,
      "v": 114
    },
    {
      "midi": 32,
      "hit": false,
      "t": 64000.00000000014,
      "d": 692.7083333333358,
      "v": 114
    },
    {
      "midi": 72,
      "hit": false,
      "t": 64500.00000000014,
      "d": 161.45833333333576,
      "v": 111
    },
    {
      "midi": 75,
      "hit": false,
      "t": 64500.00000000014,
      "d": 223.95833333333576,
      "v": 113
    },
    {
      "midi": 66,
      "hit": false,
      "t": 64500.00000000014,
      "d": 322.91666666666424,
      "v": 116
    },
    {
      "midi": 44,
      "hit": false,
      "t": 64750.00000000014,
      "d": 250,
      "v": 107
    },
    {
      "midi": 70,
      "hit": false,
      "t": 65000.00000000014,
      "d": 151.04166666666424,
      "v": 116
    },
    {
      "midi": 73,
      "hit": false,
      "t": 65000.00000000014,
      "d": 151.04166666666424,
      "v": 113
    },
    {
      "midi": 66,
      "hit": false,
      "t": 65000.00000000014,
      "d": 208.33333333332848,
      "v": 117
    },
    {
      "midi": 39,
      "hit": false,
      "t": 65000.00000000014,
      "d": 744.7916666666642,
      "v": 104
    },
    {
      "midi": 70,
      "hit": false,
      "t": 65500.00000000013,
      "d": 187.5,
      "v": 116
    },
    {
      "midi": 77,
      "hit": false,
      "t": 65750.00000000013,
      "d": 708.3333333333285,
      "v": 118
    },
    {
      "midi": 66,
      "hit": false,
      "t": 65750.00000000013,
      "d": 729.166666666657,
      "v": 114
    },
    {
      "midi": 73,
      "hit": false,
      "t": 65750.00000000013,
      "d": 734.3749999999854,
      "v": 116
    },
    {
      "midi": 32,
      "hit": false,
      "t": 65750.00000000013,
      "d": 973.9583333333139,
      "v": 110
    },
    {
      "midi": 66,
      "hit": false,
      "t": 66500.00000000012,
      "d": 171.875,
      "v": 103
    },
    {
      "midi": 72,
      "hit": false,
      "t": 66500.00000000012,
      "d": 177.08333333332848,
      "v": 118
    },
    {
      "midi": 75,
      "hit": false,
      "t": 66500.00000000012,
      "d": 187.5,
      "v": 112
    },
    {
      "midi": 44,
      "hit": false,
      "t": 66750.00000000012,
      "d": 218.75,
      "v": 103
    },
    {
      "midi": 39,
      "hit": false,
      "t": 67000.00000000012,
      "d": 208.33333333332848,
      "v": 93
    },
    {
      "midi": 73,
      "hit": false,
      "t": 67000.00000000012,
      "d": 270.8333333333285,
      "v": 104
    },
    {
      "midi": 66,
      "hit": false,
      "t": 67000.00000000012,
      "d": 291.66666666665697,
      "v": 114
    },
    {
      "midi": 70,
      "hit": false,
      "t": 67000.00000000012,
      "d": 312.49999999998545,
      "v": 117
    },
    {
      "midi": 32,
      "hit": false,
      "t": 67250.00000000012,
      "d": 249.99999999998545,
      "v": 106
    },
    {
      "midi": 72,
      "hit": false,
      "t": 67500.0000000001,
      "d": 171.875,
      "v": 114
    },
    {
      "midi": 75,
      "hit": false,
      "t": 67500.0000000001,
      "d": 177.08333333332848,
      "v": 114
    },
    {
      "midi": 66,
      "hit": false,
      "t": 67500.0000000001,
      "d": 182.29166666665697,
      "v": 113
    },
    {
      "midi": 44,
      "hit": false,
      "t": 67500.0000000001,
      "d": 229.16666666665697,
      "v": 110
    },
    {
      "midi": 73,
      "hit": false,
      "t": 67750.00000000009,
      "d": 718.75,
      "v": 120
    },
    {
      "midi": 70,
      "hit": false,
      "t": 67750.00000000009,
      "d": 781.25,
      "v": 114
    },
    {
      "midi": 39,
      "hit": false,
      "t": 67750.00000000009,
      "d": 796.875,
      "v": 108
    },
    {
      "midi": 66,
      "hit": false,
      "t": 67750.00000000009,
      "d": 817.7083333333285,
      "v": 109
    },
    {
      "midi": 65,
      "hit": false,
      "t": 68750.00000000009,
      "d": 52.08333333332848,
      "v": 82
    },
    {
      "midi": 66,
      "hit": false,
      "t": 68750.00000000009,
      "d": 374.99999999998545,
      "v": 116
    },
    {
      "midi": 70,
      "hit": false,
      "t": 68750.00000000009,
      "d": 499.99999999998545,
      "v": 116
    },
    {
      "midi": 73,
      "hit": false,
      "t": 68750.00000000009,
      "d": 520.8333333333139,
      "v": 114
    },
    {
      "midi": 32,
      "hit": false,
      "t": 68750.00000000009,
      "d": 677.0833333333139,
      "v": 107
    },
    {
      "midi": 68,
      "hit": false,
      "t": 69500.00000000007,
      "d": 187.5,
      "v": 100
    },
    {
      "midi": 75,
      "hit": false,
      "t": 69750.00000000007,
      "d": 583.3333333333576,
      "v": 104
    },
    {
      "midi": 73,
      "hit": false,
      "t": 69750.00000000007,
      "d": 593.7500000000291,
      "v": 108
    },
    {
      "midi": 37,
      "hit": false,
      "t": 69750.00000000007,
      "d": 598.9583333333576,
      "v": 106
    },
    {
      "midi": 68,
      "hit": false,
      "t": 69750.00000000007,
      "d": 614.5833333333576,
      "v": 112
    },
    {
      "midi": 77,
      "hit": false,
      "t": 69750.00000000007,
      "d": 656.2500000000291,
      "v": 114
    },
    {
      "midi": 69,
      "hit": false,
      "t": 70750.00000000012,
      "d": 307.2916666666715,
      "v": 125
    },
    {
      "midi": 35,
      "hit": false,
      "t": 70750.00000000012,
      "d": 458.33333333334303,
      "v": 108
    },
    {
      "midi": 78,
      "hit": false,
      "t": 71000.00000000013,
      "d": 171.87499999998545,
      "v": 127
    },
    {
      "midi": 77,
      "hit": false,
      "t": 71250.00000000012,
      "d": 161.45833333332848,
      "v": 124
    },
    {
      "midi": 34,
      "hit": false,
      "t": 71250.00000000012,
      "d": 416.66666666665697,
      "v": 106
    },
    {
      "midi": 68,
      "hit": false,
      "t": 71500.00000000012,
      "d": 171.87499999998545,
      "v": 125
    },
    {
      "midi": 73,
      "hit": false,
      "t": 71750.0000000001,
      "d": 734.3749999999854,
      "v": 106
    },
    {
      "midi": 70,
      "hit": false,
      "t": 71750.0000000001,
      "d": 744.791666666657,
      "v": 108
    },
    {
      "midi": 39,
      "hit": false,
      "t": 71750.0000000001,
      "d": 791.666666666657,
      "v": 94
    },
    {
      "midi": 66,
      "hit": false,
      "t": 71750.0000000001,
      "d": 791.666666666657,
      "v": 120
    },
    {
      "midi": 73,
      "hit": false,
      "t": 72750.00000000009,
      "d": 562.5,
      "v": 101
    },
    {
      "midi": 66,
      "hit": false,
      "t": 72750.00000000009,
      "d": 598.9583333333285,
      "v": 112
    },
    {
      "midi": 70,
      "hit": false,
      "t": 72750.00000000009,
      "d": 598.9583333333285,
      "v": 106
    },
    {
      "midi": 32,
      "hit": false,
      "t": 72750.00000000009,
      "d": 671.875,
      "v": 103
    },
    {
      "midi": 68,
      "hit": false,
      "t": 73750.00000000009,
      "d": 182.29166666667152,
      "v": 113
    },
    {
      "midi": 33,
      "hit": false,
      "t": 73750.00000000009,
      "d": 203.125,
      "v": 99
    },
    {
      "midi": 77,
      "hit": false,
      "t": 74000.00000000009,
      "d": 171.875,
      "v": 114
    },
    {
      "midi": 73,
      "hit": false,
      "t": 74000.00000000009,
      "d": 192.70833333332848,
      "v": 112
    },
    {
      "midi": 68,
      "hit": false,
      "t": 74000.00000000009,
      "d": 197.91666666665697,
      "v": 97
    },
    {
      "midi": 34,
      "hit": false,
      "t": 74000.00000000009,
      "d": 203.12499999998545,
      "v": 110
    },
    {
      "midi": 68,
      "hit": false,
      "t": 74250.00000000007,
      "d": 151.04166666667152,
      "v": 96
    },
    {
      "midi": 77,
      "hit": false,
      "t": 74250.00000000007,
      "d": 151.04166666667152,
      "v": 100
    },
    {
      "midi": 34,
      "hit": false,
      "t": 74250.00000000007,
      "d": 156.25,
      "v": 108
    },
    {
      "midi": 73,
      "hit": false,
      "t": 74250.00000000007,
      "d": 161.45833333332848,
      "v": 100
    },
    {
      "midi": 72,
      "hit": false,
      "t": 74500.00000000007,
      "d": 156.25,
      "v": 115
    },
    {
      "midi": 75,
      "hit": false,
      "t": 74500.00000000007,
      "d": 166.66666666667152,
      "v": 115
    },
    {
      "midi": 68,
      "hit": false,
      "t": 74500.00000000007,
      "d": 192.70833333334303,
      "v": 109
    },
    {
      "midi": 70,
      "hit": false,
      "t": 75000.00000000009,
      "d": 166.66666666667152,
      "v": 114
    },
    {
      "midi": 73,
      "hit": false,
      "t": 75000.00000000009,
      "d": 171.875,
      "v": 113
    },
    {
      "midi": 68,
      "hit": false,
      "t": 75000.00000000009,
      "d": 244.79166666667152,
      "v": 113
    },
    {
      "midi": 72,
      "hit": false,
      "t": 75500.00000000009,
      "d": 156.25,
      "v": 115
    },
    {
      "midi": 75,
      "hit": false,
      "t": 75500.00000000009,
      "d": 203.125,
      "v": 114
    },
    {
      "midi": 68,
      "hit": false,
      "t": 75500.00000000009,
      "d": 239.58333333332848,
      "v": 115
    },
    {
      "midi": 77,
      "hit": false,
      "t": 76000.00000000009,
      "d": 161.45833333331393,
      "v": 120
    },
    {
      "midi": 73,
      "hit": false,
      "t": 76000.00000000009,
      "d": 166.6666666666424,
      "v": 116
    },
    {
      "midi": 34,
      "hit": false,
      "t": 76000.00000000009,
      "d": 182.2916666666424,
      "v": 115
    },
    {
      "midi": 68,
      "hit": false,
      "t": 76000.00000000009,
      "d": 182.2916666666424,
      "v": 119
    },
    {
      "midi": 77,
      "hit": false,
      "t": 76250.00000000006,
      "d": 156.24999999998545,
      "v": 90
    },
    {
      "midi": 68,
      "hit": false,
      "t": 76250.00000000006,
      "d": 161.45833333331393,
      "v": 92
    },
    {
      "midi": 73,
      "hit": false,
      "t": 76250.00000000006,
      "d": 161.45833333331393,
      "v": 79
    },
    {
      "midi": 34,
      "hit": false,
      "t": 76250.00000000006,
      "d": 187.49999999998545,
      "v": 99
    },
    {
      "midi": 72,
      "hit": false,
      "t": 76500.00000000004,
      "d": 166.66666666667152,
      "v": 113
    },
    {
      "midi": 75,
      "hit": false,
      "t": 76500.00000000004,
      "d": 166.66666666667152,
      "v": 113
    },
    {
      "midi": 68,
      "hit": false,
      "t": 76500.00000000004,
      "d": 177.08333333334303,
      "v": 105
    },
    {
      "midi": 73,
      "hit": false,
      "t": 76750.00000000007,
      "d": 156.25,
      "v": 113
    },
    {
      "midi": 70,
      "hit": false,
      "t": 76750.00000000007,
      "d": 161.45833333332848,
      "v": 114
    },
    {
      "midi": 68,
      "hit": false,
      "t": 76750.00000000007,
      "d": 187.49999999998545,
      "v": 112
    },
    {
      "midi": 72,
      "hit": false,
      "t": 77250.00000000006,
      "d": 177.08333333332848,
      "v": 118
    },
    {
      "midi": 68,
      "hit": false,
      "t": 77250.00000000006,
      "d": 203.125,
      "v": 115
    },
    {
      "midi": 75,
      "hit": false,
      "t": 77250.00000000006,
      "d": 234.375,
      "v": 115
    },
    {
      "midi": 33,
      "hit": false,
      "t": 77500.00000000006,
      "d": 223.95833333332848,
      "v": 118
    },
    {
      "midi": 32,
      "hit": false,
      "t": 77750.00000000006,
      "d": 197.91666666667152,
      "v": 114
    },
    {
      "midi": 73,
      "hit": false,
      "t": 78000.00000000006,
      "d": 166.66666666667152,
      "v": 112
    },
    {
      "midi": 77,
      "hit": false,
      "t": 78000.00000000006,
      "d": 166.66666666667152,
      "v": 118
    },
    {
      "midi": 67,
      "hit": false,
      "t": 78000.00000000006,
      "d": 187.5,
      "v": 107
    },
    {
      "midi": 31,
      "hit": false,
      "t": 78000.00000000006,
      "d": 197.91666666667152,
      "v": 100
    },
    {
      "midi": 73,
      "hit": false,
      "t": 78250.00000000006,
      "d": 156.25,
      "v": 96
    },
    {
      "midi": 67,
      "hit": false,
      "t": 78250.00000000006,
      "d": 166.66666666667152,
      "v": 100
    },
    {
      "midi": 77,
      "hit": false,
      "t": 78250.00000000006,
      "d": 166.66666666667152,
      "v": 100
    },
    {
      "midi": 31,
      "hit": false,
      "t": 78250.00000000006,
      "d": 171.875,
      "v": 100
    },
    {
      "midi": 72,
      "hit": false,
      "t": 78500.00000000006,
      "d": 145.83333333332848,
      "v": 111
    },
    {
      "midi": 75,
      "hit": false,
      "t": 78500.00000000006,
      "d": 161.45833333332848,
      "v": 114
    },
    {
      "midi": 67,
      "hit": false,
      "t": 78500.00000000006,
      "d": 197.91666666665697,
      "v": 101
    },
    {
      "midi": 73,
      "hit": false,
      "t": 78750.00000000004,
      "d": 41.66666666667152,
      "v": 32
    },
    {
      "midi": 73,
      "hit": false,
      "t": 79000.00000000004,
      "d": 171.875,
      "v": 115
    },
    {
      "midi": 67,
      "hit": false,
      "t": 79000.00000000004,
      "d": 187.5,
      "v": 110
    },
    {
      "midi": 70,
      "hit": false,
      "t": 79000.00000000004,
      "d": 187.5,
      "v": 117
    },
    {
      "midi": 72,
      "hit": false,
      "t": 79500.00000000004,
      "d": 145.83333333332848,
      "v": 118
    },
    {
      "midi": 75,
      "hit": false,
      "t": 79500.00000000004,
      "d": 177.08333333332848,
      "v": 116
    },
    {
      "midi": 67,
      "hit": false,
      "t": 79500.00000000004,
      "d": 213.54166666665697,
      "v": 111
    },
    {
      "midi": 67,
      "hit": false,
      "t": 80000.00000000003,
      "d": 192.70833333332848,
      "v": 115
    },
    {
      "midi": 73,
      "hit": false,
      "t": 80000.00000000003,
      "d": 192.70833333332848,
      "v": 120
    },
    {
      "midi": 77,
      "hit": false,
      "t": 80000.00000000003,
      "d": 192.70833333332848,
      "v": 122
    },
    {
      "midi": 31,
      "hit": false,
      "t": 80000.00000000003,
      "d": 208.33333333332848,
      "v": 108
    },
    {
      "midi": 65,
      "hit": false,
      "t": 80000.00000000003,
      "d": 947.9166666666715,
      "v": 42
    },
    {
      "midi": 67,
      "hit": false,
      "t": 80250.00000000003,
      "d": 135.41666666667152,
      "v": 84
    },
    {
      "midi": 73,
      "hit": false,
      "t": 80250.00000000003,
      "d": 151.04166666667152,
      "v": 88
    },
    {
      "midi": 77,
      "hit": false,
      "t": 80250.00000000003,
      "d": 151.04166666667152,
      "v": 100
    },
    {
      "midi": 31,
      "hit": false,
      "t": 80250.00000000003,
      "d": 171.875,
      "v": 100
    },
    {
      "midi": 72,
      "hit": false,
      "t": 80500.00000000003,
      "d": 145.83333333332848,
      "v": 109
    },
    {
      "midi": 75,
      "hit": false,
      "t": 80500.00000000003,
      "d": 156.25,
      "v": 112
    },
    {
      "midi": 67,
      "hit": false,
      "t": 80500.00000000003,
      "d": 166.66666666667152,
      "v": 93
    },
    {
      "midi": 70,
      "hit": false,
      "t": 80750.00000000003,
      "d": 187.5,
      "v": 117
    },
    {
      "midi": 73,
      "hit": false,
      "t": 80750.00000000003,
      "d": 203.125,
      "v": 115
    },
    {
      "midi": 67,
      "hit": false,
      "t": 80750.00000000003,
      "d": 213.54166666667152,
      "v": 105
    },
    {
      "midi": 27,
      "hit": false,
      "t": 81000.00000000003,
      "d": 223.95833333332848,
      "v": 119
    },
    {
      "midi": 70,
      "hit": false,
      "t": 81000.00000000003,
      "d": 1026.041666666657,
      "v": 50
    },
    {
      "midi": 28,
      "hit": false,
      "t": 81250.00000000003,
      "d": 218.75,
      "v": 108
    },
    {
      "midi": 29,
      "hit": false,
      "t": 81500.00000000003,
      "d": 390.625,
      "v": 119
    },
    {
      "midi": 76,
      "hit": false,
      "t": 82000.00000000003,
      "d": 1.3020833333284827,
      "v": 111
    },
    {
      "midi": 81,
      "hit": false,
      "t": 82000.00000000003,
      "d": 177.08333333332848,
      "v": 111
    },
    {
      "midi": 85,
      "hit": false,
      "t": 82000.00000000003,
      "d": 177.08333333332848,
      "v": 115
    },
    {
      "midi": 30,
      "hit": false,
      "t": 82000.00000000003,
      "d": 197.91666666665697,
      "v": 113
    },
    {
      "midi": 81,
      "hit": false,
      "t": 82250.00000000001,
      "d": 166.66666666667152,
      "v": 94
    },
    {
      "midi": 30,
      "hit": false,
      "t": 82250.00000000001,
      "d": 182.29166666667152,
      "v": 108
    },
    {
      "midi": 76,
      "hit": false,
      "t": 82250.00000000001,
      "d": 182.29166666667152,
      "v": 90
    },
    {
      "midi": 85,
      "hit": false,
      "t": 82250.00000000001,
      "d": 192.70833333334303,
      "v": 98
    },
    {
      "midi": 83,
      "hit": false,
      "t": 82500.00000000003,
      "d": 156.25,
      "v": 114
    },
    {
      "midi": 80,
      "hit": false,
      "t": 82500.00000000003,
      "d": 166.66666666667152,
      "v": 115
    },
    {
      "midi": 76,
      "hit": false,
      "t": 82500.00000000003,
      "d": 187.5,
      "v": 101
    },
    {
      "midi": 78,
      "hit": false,
      "t": 83000.00000000003,
      "d": 182.29166666667152,
      "v": 121
    },
    {
      "midi": 81,
      "hit": false,
      "t": 83000.00000000003,
      "d": 182.29166666667152,
      "v": 110
    },
    {
      "midi": 76,
      "hit": false,
      "t": 83000.00000000003,
      "d": 192.70833333334303,
      "v": 108
    },
    {
      "midi": 83,
      "hit": false,
      "t": 83500.00000000004,
      "d": 177.08333333332848,
      "v": 116
    },
    {
      "midi": 80,
      "hit": false,
      "t": 83500.00000000004,
      "d": 187.5,
      "v": 120
    },
    {
      "midi": 76,
      "hit": false,
      "t": 83500.00000000004,
      "d": 192.70833333332848,
      "v": 114
    },
    {
      "midi": 85,
      "hit": false,
      "t": 84000.00000000004,
      "d": 166.66666666667152,
      "v": 117
    },
    {
      "midi": 30,
      "hit": false,
      "t": 84000.00000000004,
      "d": 187.5,
      "v": 114
    },
    {
      "midi": 81,
      "hit": false,
      "t": 84000.00000000004,
      "d": 192.70833333332848,
      "v": 114
    },
    {
      "midi": 76,
      "hit": false,
      "t": 84000.00000000004,
      "d": 197.91666666665697,
      "v": 111
    },
    {
      "midi": 81,
      "hit": false,
      "t": 84250.00000000003,
      "d": 166.66666666667152,
      "v": 89
    },
    {
      "midi": 76,
      "hit": false,
      "t": 84250.00000000003,
      "d": 177.08333333334303,
      "v": 61
    },
    {
      "midi": 85,
      "hit": false,
      "t": 84250.00000000003,
      "d": 192.70833333334303,
      "v": 87
    },
    {
      "midi": 30,
      "hit": false,
      "t": 84250.00000000003,
      "d": 218.75000000001455,
      "v": 97
    },
    {
      "midi": 83,
      "hit": false,
      "t": 84500.00000000004,
      "d": 145.83333333332848,
      "v": 102
    },
    {
      "midi": 76,
      "hit": false,
      "t": 84500.00000000004,
      "d": 151.04166666665697,
      "v": 93
    },
    {
      "midi": 80,
      "hit": false,
      "t": 84500.00000000004,
      "d": 166.66666666665697,
      "v": 106
    },
    {
      "midi": 81,
      "hit": false,
      "t": 84750.00000000003,
      "d": 161.45833333332848,
      "v": 113
    },
    {
      "midi": 32,
      "hit": false,
      "t": 84750.00000000003,
      "d": 166.66666666665697,
      "v": 113
    },
    {
      "midi": 85,
      "hit": false,
      "t": 84750.00000000003,
      "d": 166.66666666665697,
      "v": 117
    },
    {
      "midi": 76,
      "hit": false,
      "t": 84750.00000000003,
      "d": 187.49999999998545,
      "v": 105
    },
    {
      "midi": 80,
      "hit": false,
      "t": 85250.00000000001,
      "d": 177.08333333332848,
      "v": 120
    },
    {
      "midi": 83,
      "hit": false,
      "t": 85250.00000000001,
      "d": 187.5,
      "v": 116
    },
    {
      "midi": 76,
      "hit": false,
      "t": 85250.00000000001,
      "d": 192.70833333332848,
      "v": 114
    },
    {
      "midi": 33,
      "hit": false,
      "t": 85250.00000000001,
      "d": 203.125,
      "v": 109
    },
    {
      "midi": 34,
      "hit": false,
      "t": 85750.00000000001,
      "d": 182.29166666667152,
      "v": 113
    },
    {
      "midi": 85,
      "hit": false,
      "t": 86000.00000000001,
      "d": 1.3020833333284827,
      "v": 108
    },
    {
      "midi": 76,
      "hit": false,
      "t": 86000.00000000001,
      "d": 119.79166666665697,
      "v": 75
    },
    {
      "midi": 81,
      "hit": false,
      "t": 86000.00000000001,
      "d": 145.83333333332848,
      "v": 98
    },
    {
      "midi": 35,
      "hit": false,
      "t": 86000.00000000001,
      "d": 171.875,
      "v": 116
    },
    {
      "midi": 81,
      "hit": false,
      "t": 86250.00000000001,
      "d": 145.83333333332848,
      "v": 102
    },
    {
      "midi": 35,
      "hit": false,
      "t": 86250.00000000001,
      "d": 161.45833333332848,
      "v": 111
    },
    {
      "midi": 76,
      "hit": false,
      "t": 86250.00000000001,
      "d": 166.66666666665697,
      "v": 102
    },
    {
      "midi": 85,
      "hit": false,
      "t": 86250.00000000001,
      "d": 182.29166666665697,
      "v": 103
    },
    {
      "midi": 83,
      "hit": false,
      "t": 86500,
      "d": 151.04166666667152,
      "v": 110
    },
    {
      "midi": 80,
      "hit": false,
      "t": 86500,
      "d": 161.45833333334303,
      "v": 113
    },
    {
      "midi": 76,
      "hit": false,
      "t": 86500,
      "d": 177.08333333334303,
      "v": 103
    },
    {
      "midi": 78,
      "hit": false,
      "t": 87000.00000000001,
      "d": 171.875,
      "v": 117
    },
    {
      "midi": 81,
      "hit": false,
      "t": 87000.00000000001,
      "d": 187.5,
      "v": 108
    },
    {
      "midi": 76,
      "hit": false,
      "t": 87000.00000000001,
      "d": 197.91666666667152,
      "v": 107
    },
    {
      "midi": 76,
      "hit": false,
      "t": 87500.00000000001,
      "d": 171.875,
      "v": 114
    },
    {
      "midi": 83,
      "hit": false,
      "t": 87500.00000000001,
      "d": 171.875,
      "v": 115
    },
    {
      "midi": 80,
      "hit": false,
      "t": 87500.00000000001,
      "d": 177.08333333332848,
      "v": 119
    },
    {
      "midi": 35,
      "hit": false,
      "t": 88000.00000000001,
      "d": 161.45833333332848,
      "v": 118
    },
    {
      "midi": 76,
      "hit": false,
      "t": 88000.00000000001,
      "d": 166.66666666665697,
      "v": 110
    },
    {
      "midi": 81,
      "hit": false,
      "t": 88000.00000000001,
      "d": 177.08333333332848,
      "v": 111
    },
    {
      "midi": 85,
      "hit": false,
      "t": 88000.00000000001,
      "d": 177.08333333332848,
      "v": 115
    },
    {
      "midi": 76,
      "hit": false,
      "t": 88250.00000000001,
      "d": 145.83333333332848,
      "v": 66
    },
    {
      "midi": 81,
      "hit": false,
      "t": 88250.00000000001,
      "d": 156.25,
      "v": 68
    },
    {
      "midi": 35,
      "hit": false,
      "t": 88250.00000000001,
      "d": 177.08333333332848,
      "v": 109
    },
    {
      "midi": 85,
      "hit": false,
      "t": 88250.00000000001,
      "d": 208.33333333332848,
      "v": 95
    },
    {
      "midi": 83,
      "hit": false,
      "t": 88500.00000000001,
      "d": 109.375,
      "v": 98
    },
    {
      "midi": 76,
      "hit": false,
      "t": 88500.00000000001,
      "d": 156.25,
      "v": 86
    },
    {
      "midi": 80,
      "hit": false,
      "t": 88500.00000000001,
      "d": 177.08333333332848,
      "v": 101
    },
    {
      "midi": 81,
      "hit": false,
      "t": 88750.00000000001,
      "d": 140.625,
      "v": 110
    },
    {
      "midi": 76,
      "hit": false,
      "t": 88750.00000000001,
      "d": 161.45833333332848,
      "v": 99
    },
    {
      "midi": 85,
      "hit": false,
      "t": 88750.00000000001,
      "d": 161.45833333332848,
      "v": 112
    },
    {
      "midi": 47,
      "hit": false,
      "t": 88750.00000000001,
      "d": 166.66666666665697,
      "v": 113
    },
    {
      "midi": 81,
      "hit": false,
      "t": 89250,
      "d": 140.625,
      "v": 103
    },
    {
      "midi": 76,
      "hit": false,
      "t": 89250,
      "d": 151.04166666667152,
      "v": 113
    },
    {
      "midi": 83,
      "hit": false,
      "t": 89250,
      "d": 156.25,
      "v": 116
    },
    {
      "midi": 47,
      "hit": false,
      "t": 89250,
      "d": 177.08333333332848,
      "v": 101
    },
    {
      "midi": 35,
      "hit": false,
      "t": 89750,
      "d": 192.70833333332848,
      "v": 111
    },
    {
      "midi": 80,
      "hit": false,
      "t": 90000,
      "d": 166.66666666667152,
      "v": 115
    },
    {
      "midi": 76,
      "hit": false,
      "t": 90000,
      "d": 177.08333333334303,
      "v": 109
    },
    {
      "midi": 40,
      "hit": false,
      "t": 90000,
      "d": 192.70833333334303,
      "v": 113
    },
    {
      "midi": 83,
      "hit": false,
      "t": 90000,
      "d": 192.70833333334303,
      "v": 113
    },
    {
      "midi": 71,
      "hit": false,
      "t": 90250.00000000001,
      "d": 41.66666666667152,
      "v": 80
    },
    {
      "midi": 76,
      "hit": false,
      "t": 90250.00000000001,
      "d": 135.41666666667152,
      "v": 75
    },
    {
      "midi": 80,
      "hit": false,
      "t": 90250.00000000001,
      "d": 151.04166666667152,
      "v": 89
    },
    {
      "midi": 83,
      "hit": false,
      "t": 90250.00000000001,
      "d": 161.45833333334303,
      "v": 104
    },
    {
      "midi": 40,
      "hit": false,
      "t": 90250.00000000001,
      "d": 171.87500000001455,
      "v": 104
    },
    {
      "midi": 81,
      "hit": false,
      "t": 90500.00000000003,
      "d": 145.83333333332848,
      "v": 104
    },
    {
      "midi": 76,
      "hit": false,
      "t": 90500.00000000003,
      "d": 161.45833333332848,
      "v": 95
    },
    {
      "midi": 78,
      "hit": false,
      "t": 90500.00000000003,
      "d": 177.08333333332848,
      "v": 113
    },
    {
      "midi": 71,
      "hit": false,
      "t": 90750.00000000003,
      "d": 36.45833333332848,
      "v": 80
    },
    {
      "midi": 80,
      "hit": false,
      "t": 91000.00000000003,
      "d": 166.66666666667152,
      "v": 120
    },
    {
      "midi": 76,
      "hit": false,
      "t": 91000.00000000003,
      "d": 281.25,
      "v": 108
    },
    {
      "midi": 71,
      "hit": false,
      "t": 91250.00000000003,
      "d": 36.45833333332848,
      "v": 80
    },
    {
      "midi": 76,
      "hit": false,
      "t": 91500.00000000003,
      "d": 161.45833333332848,
      "v": 102
    },
    {
      "midi": 78,
      "hit": false,
      "t": 91500.00000000003,
      "d": 182.29166666665697,
      "v": 122
    },
    {
      "midi": 71,
      "hit": false,
      "t": 91750.00000000001,
      "d": 36.45833333332848,
      "v": 80
    },
    {
      "midi": 80,
      "hit": false,
      "t": 92000.00000000001,
      "d": 166.66666666667152,
      "v": 121
    },
    {
      "midi": 40,
      "hit": false,
      "t": 92000.00000000001,
      "d": 192.70833333334303,
      "v": 114
    },
    {
      "midi": 76,
      "hit": false,
      "t": 92000.00000000001,
      "d": 208.33333333334303,
      "v": 114
    },
    {
      "midi": 71,
      "hit": false,
      "t": 92250.00000000003,
      "d": 36.45833333332848,
      "v": 80
    },
    {
      "midi": 76,
      "hit": false,
      "t": 92250.00000000003,
      "d": 187.5,
      "v": 50
    },
    {
      "midi": 80,
      "hit": false,
      "t": 92250.00000000003,
      "d": 203.125,
      "v": 97
    },
    {
      "midi": 40,
      "hit": false,
      "t": 92250.00000000003,
      "d": 244.79166666667152,
      "v": 102
    },
    {
      "midi": 76,
      "hit": false,
      "t": 92500.00000000003,
      "d": 187.5,
      "v": 91
    },
    {
      "midi": 78,
      "hit": false,
      "t": 92500.00000000003,
      "d": 192.70833333332848,
      "v": 114
    },
    {
      "midi": 71,
      "hit": false,
      "t": 92750.00000000003,
      "d": 41.66666666667152,
      "v": 80
    },
    {
      "midi": 76,
      "hit": false,
      "t": 92750.00000000003,
      "d": 166.66666666667152,
      "v": 104
    },
    {
      "midi": 80,
      "hit": false,
      "t": 92750.00000000003,
      "d": 166.66666666667152,
      "v": 122
    },
    {
      "midi": 71,
      "hit": false,
      "t": 93250.00000000003,
      "d": 52.08333333332848,
      "v": 80
    },
    {
      "midi": 76,
      "hit": false,
      "t": 93250.00000000003,
      "d": 130.20833333332848,
      "v": 100
    },
    {
      "midi": 39,
      "hit": false,
      "t": 93250.00000000003,
      "d": 171.875,
      "v": 113
    },
    {
      "midi": 78,
      "hit": false,
      "t": 93250.00000000003,
      "d": 177.08333333332848,
      "v": 121
    },
    {
      "midi": 80,
      "hit": false,
      "t": 93750.00000000003,
      "d": 161.45833333332848,
      "v": 112
    },
    {
      "midi": 76,
      "hit": false,
      "t": 93750.00000000003,
      "d": 182.29166666665697,
      "v": 109
    },
    {
      "midi": 39,
      "hit": false,
      "t": 93750.00000000003,
      "d": 203.12499999998545,
      "v": 107
    },
    {
      "midi": 76,
      "hit": false,
      "t": 94000.00000000001,
      "d": 1.3020833333284827,
      "v": 95
    },
    {
      "midi": 80,
      "hit": false,
      "t": 94000.00000000001,
      "d": 161.45833333332848,
      "v": 91
    },
    {
      "midi": 37,
      "hit": false,
      "t": 94000.00000000001,
      "d": 166.66666666665697,
      "v": 110
    },
    {
      "midi": 83,
      "hit": false,
      "t": 94000.00000000001,
      "d": 166.66666666665697,
      "v": 98
    },
    {
      "midi": 76,
      "hit": false,
      "t": 94250,
      "d": 135.41666666667152,
      "v": 102
    },
    {
      "midi": 80,
      "hit": false,
      "t": 94250,
      "d": 135.41666666667152,
      "v": 107
    },
    {
      "midi": 37,
      "hit": false,
      "t": 94250,
      "d": 145.83333333334303,
      "v": 112
    },
    {
      "midi": 83,
      "hit": false,
      "t": 94250,
      "d": 161.45833333334303,
      "v": 107
    },
    {
      "midi": 78,
      "hit": false,
      "t": 94500.00000000001,
      "d": 161.45833333332848,
      "v": 115
    },
    {
      "midi": 81,
      "hit": false,
      "t": 94500.00000000001,
      "d": 161.45833333332848,
      "v": 110
    },
    {
      "midi": 76,
      "hit": false,
      "t": 94500.00000000001,
      "d": 177.08333333332848,
      "v": 101
    },
    {
      "midi": 80,
      "hit": false,
      "t": 95000.00000000001,
      "d": 161.45833333332848,
      "v": 124
    },
    {
      "midi": 76,
      "hit": false,
      "t": 95000.00000000001,
      "d": 255.20833333332848,
      "v": 111
    },
    {
      "midi": 78,
      "hit": false,
      "t": 95500.00000000001,
      "d": 192.70833333332848,
      "v": 121
    },
    {
      "midi": 76,
      "hit": false,
      "t": 95750.00000000001,
      "d": 125,
      "v": 97
    },
    {
      "midi": 76,
      "hit": false,
      "t": 96000.00000000001,
      "d": 182.29166666667152,
      "v": 109
    },
    {
      "midi": 80,
      "hit": false,
      "t": 96000.00000000001,
      "d": 182.29166666667152,
      "v": 119
    },
    {
      "midi": 37,
      "hit": false,
      "t": 96000.00000000001,
      "d": 187.5,
      "v": 112
    },
    {
      "midi": 76,
      "hit": false,
      "t": 96250.00000000001,
      "d": 93.75,
      "v": 46
    },
    {
      "midi": 81,
      "hit": false,
      "t": 96250.00000000001,
      "d": 145.83333333332848,
      "v": 91
    },
    {
      "midi": 35,
      "hit": false,
      "t": 96250.00000000001,
      "d": 161.45833333332848,
      "v": 102
    },
    {
      "midi": 76,
      "hit": false,
      "t": 96500.00000000001,
      "d": 114.58333333332848,
      "v": 107
    },
    {
      "midi": 83,
      "hit": false,
      "t": 96500.00000000001,
      "d": 140.625,
      "v": 116
    },
    {
      "midi": 34,
      "hit": false,
      "t": 96500.00000000001,
      "d": 145.83333333332848,
      "v": 112
    },
    {
      "midi": 85,
      "hit": false,
      "t": 96750.00000000001,
      "d": 156.25,
      "v": 119
    },
    {
      "midi": 33,
      "hit": false,
      "t": 96750.00000000001,
      "d": 166.66666666667152,
      "v": 107
    },
    {
      "midi": 76,
      "hit": false,
      "t": 96750.00000000001,
      "d": 166.66666666667152,
      "v": 101
    },
    {
      "midi": 80,
      "hit": false,
      "t": 97250.00000000001,
      "d": 156.25,
      "v": 116
    },
    {
      "midi": 83,
      "hit": false,
      "t": 97250.00000000001,
      "d": 161.45833333332848,
      "v": 116
    },
    {
      "midi": 76,
      "hit": false,
      "t": 97250.00000000001,
      "d": 182.29166666665697,
      "v": 110
    },
    {
      "midi": 32,
      "hit": false,
      "t": 97250.00000000001,
      "d": 187.49999999998545,
      "v": 109
    },
    {
      "midi": 32,
      "hit": false,
      "t": 97750,
      "d": 187.5,
      "v": 106
    },
    {
      "midi": 76,
      "hit": false,
      "t": 98000,
      "d": 156.25,
      "v": 102
    },
    {
      "midi": 30,
      "hit": false,
      "t": 98000,
      "d": 177.08333333332848,
      "v": 109
    },
    {
      "midi": 81,
      "hit": false,
      "t": 98000,
      "d": 177.08333333332848,
      "v": 108
    },
    {
      "midi": 85,
      "hit": false,
      "t": 98000,
      "d": 177.08333333332848,
      "v": 113
    },
    {
      "midi": 30,
      "hit": false,
      "t": 98250,
      "d": 156.25,
      "v": 102
    },
    {
      "midi": 81,
      "hit": false,
      "t": 98250,
      "d": 156.25,
      "v": 75
    },
    {
      "midi": 76,
      "hit": false,
      "t": 98250,
      "d": 171.875,
      "v": 71
    },
    {
      "midi": 85,
      "hit": false,
      "t": 98250,
      "d": 187.5,
      "v": 93
    },
    {
      "midi": 83,
      "hit": false,
      "t": 98500,
      "d": 161.45833333332848,
      "v": 104
    },
    {
      "midi": 76,
      "hit": false,
      "t": 98500,
      "d": 182.29166666665697,
      "v": 94
    },
    {
      "midi": 80,
      "hit": false,
      "t": 98500,
      "d": 182.29166666665697,
      "v": 109
    },
    {
      "midi": 81,
      "hit": false,
      "t": 98999.99999999999,
      "d": 166.66666666667152,
      "v": 111
    },
    {
      "midi": 85,
      "hit": false,
      "t": 98999.99999999999,
      "d": 182.29166666667152,
      "v": 114
    },
    {
      "midi": 76,
      "hit": false,
      "t": 98999.99999999999,
      "d": 197.91666666667152,
      "v": 108
    },
    {
      "midi": 83,
      "hit": false,
      "t": 99499.99999999999,
      "d": 156.25,
      "v": 110
    },
    {
      "midi": 80,
      "hit": false,
      "t": 99499.99999999999,
      "d": 177.08333333332848,
      "v": 115
    },
    {
      "midi": 76,
      "hit": false,
      "t": 99499.99999999999,
      "d": 187.5,
      "v": 101
    },
    {
      "midi": 85,
      "hit": false,
      "t": 99999.99999999999,
      "d": 161.45833333332848,
      "v": 117
    },
    {
      "midi": 81,
      "hit": false,
      "t": 99999.99999999999,
      "d": 171.875,
      "v": 111
    },
    {
      "midi": 30,
      "hit": false,
      "t": 99999.99999999999,
      "d": 187.5,
      "v": 109
    },
    {
      "midi": 76,
      "hit": false,
      "t": 99999.99999999999,
      "d": 187.5,
      "v": 111
    },
    {
      "midi": 81,
      "hit": false,
      "t": 100249.99999999999,
      "d": 161.45833333332848,
      "v": 66
    },
    {
      "midi": 30,
      "hit": false,
      "t": 100249.99999999999,
      "d": 177.08333333332848,
      "v": 96
    },
    {
      "midi": 76,
      "hit": false,
      "t": 100249.99999999999,
      "d": 177.08333333332848,
      "v": 76
    },
    {
      "midi": 85,
      "hit": false,
      "t": 100249.99999999999,
      "d": 203.125,
      "v": 78
    },
    {
      "midi": 83,
      "hit": false,
      "t": 100499.99999999999,
      "d": 145.83333333332848,
      "v": 99
    },
    {
      "midi": 76,
      "hit": false,
      "t": 100499.99999999999,
      "d": 156.25,
      "v": 84
    },
    {
      "midi": 80,
      "hit": false,
      "t": 100499.99999999999,
      "d": 161.45833333332848,
      "v": 98
    },
    {
      "midi": 81,
      "hit": false,
      "t": 100749.99999999999,
      "d": 145.83333333332848,
      "v": 107
    },
    {
      "midi": 32,
      "hit": false,
      "t": 100749.99999999999,
      "d": 161.45833333332848,
      "v": 109
    },
    {
      "midi": 85,
      "hit": false,
      "t": 100749.99999999999,
      "d": 171.875,
      "v": 114
    },
    {
      "midi": 76,
      "hit": false,
      "t": 100749.99999999999,
      "d": 197.91666666667152,
      "v": 102
    },
    {
      "midi": 80,
      "hit": false,
      "t": 101249.99999999999,
      "d": 151.04166666667152,
      "v": 120
    },
    {
      "midi": 83,
      "hit": false,
      "t": 101249.99999999999,
      "d": 166.66666666667152,
      "v": 115
    },
    {
      "midi": 76,
      "hit": false,
      "t": 101249.99999999999,
      "d": 187.5,
      "v": 109
    },
    {
      "midi": 33,
      "hit": false,
      "t": 101249.99999999999,
      "d": 203.125,
      "v": 105
    },
    {
      "midi": 34,
      "hit": false,
      "t": 101749.99999999999,
      "d": 197.91666666667152,
      "v": 115
    },
    {
      "midi": 76,
      "hit": false,
      "t": 101999.99999999999,
      "d": 140.625,
      "v": 87
    },
    {
      "midi": 81,
      "hit": false,
      "t": 101999.99999999999,
      "d": 156.25,
      "v": 96
    },
    {
      "midi": 35,
      "hit": false,
      "t": 101999.99999999999,
      "d": 166.66666666667152,
      "v": 108
    },
    {
      "midi": 85,
      "hit": false,
      "t": 101999.99999999999,
      "d": 171.875,
      "v": 108
    },
    {
      "midi": 81,
      "hit": false,
      "t": 102249.99999999999,
      "d": 145.83333333332848,
      "v": 93
    },
    {
      "midi": 35,
      "hit": false,
      "t": 102249.99999999999,
      "d": 151.04166666665697,
      "v": 108
    },
    {
      "midi": 76,
      "hit": false,
      "t": 102249.99999999999,
      "d": 151.04166666665697,
      "v": 91
    },
    {
      "midi": 85,
      "hit": false,
      "t": 102249.99999999999,
      "d": 182.29166666665697,
      "v": 94
    },
    {
      "midi": 80,
      "hit": false,
      "t": 102499.99999999997,
      "d": 151.04166666667152,
      "v": 109
    },
    {
      "midi": 83,
      "hit": false,
      "t": 102499.99999999997,
      "d": 161.45833333334303,
      "v": 103
    },
    {
      "midi": 76,
      "hit": false,
      "t": 102499.99999999997,
      "d": 182.29166666667152,
      "v": 105
    },
    {
      "midi": 78,
      "hit": false,
      "t": 102999.99999999997,
      "d": 151.04166666667152,
      "v": 116
    },
    {
      "midi": 76,
      "hit": false,
      "t": 102999.99999999997,
      "d": 177.08333333334303,
      "v": 110
    },
    {
      "midi": 81,
      "hit": false,
      "t": 102999.99999999997,
      "d": 177.08333333334303,
      "v": 111
    },
    {
      "midi": 80,
      "hit": false,
      "t": 103499.99999999999,
      "d": 171.875,
      "v": 119
    },
    {
      "midi": 83,
      "hit": false,
      "t": 103499.99999999999,
      "d": 171.875,
      "v": 114
    },
    {
      "midi": 76,
      "hit": false,
      "t": 103499.99999999999,
      "d": 187.5,
      "v": 113
    },
    {
      "midi": 35,
      "hit": false,
      "t": 103999.99999999999,
      "d": 145.83333333332848,
      "v": 115
    },
    {
      "midi": 81,
      "hit": false,
      "t": 103999.99999999999,
      "d": 156.25,
      "v": 113
    },
    {
      "midi": 85,
      "hit": false,
      "t": 103999.99999999999,
      "d": 166.66666666667152,
      "v": 115
    },
    {
      "midi": 76,
      "hit": false,
      "t": 103999.99999999999,
      "d": 182.29166666667152,
      "v": 111
    },
    {
      "midi": 81,
      "hit": false,
      "t": 104249.99999999999,
      "d": 145.83333333332848,
      "v": 71
    },
    {
      "midi": 76,
      "hit": false,
      "t": 104249.99999999999,
      "d": 171.875,
      "v": 52
    },
    {
      "midi": 35,
      "hit": false,
      "t": 104249.99999999999,
      "d": 182.29166666667152,
      "v": 108
    },
    {
      "midi": 85,
      "hit": false,
      "t": 104249.99999999999,
      "d": 208.33333333334303,
      "v": 85
    },
    {
      "midi": 76,
      "hit": false,
      "t": 104500,
      "d": 119.79166666667152,
      "v": 71
    },
    {
      "midi": 80,
      "hit": false,
      "t": 104500,
      "d": 156.25,
      "v": 105
    },
    {
      "midi": 81,
      "hit": false,
      "t": 104750,
      "d": 135.41666666667152,
      "v": 111
    },
    {
      "midi": 85,
      "hit": false,
      "t": 104750,
      "d": 151.04166666667152,
      "v": 112
    },
    {
      "midi": 47,
      "hit": false,
      "t": 104750,
      "d": 156.25,
      "v": 113
    },
    {
      "midi": 76,
      "hit": false,
      "t": 104750,
      "d": 161.45833333332848,
      "v": 99
    },
    {
      "midi": 76,
      "hit": false,
      "t": 105250,
      "d": 83.33333333332848,
      "v": 114
    },
    {
      "midi": 83,
      "hit": false,
      "t": 105250,
      "d": 151.04166666665697,
      "v": 114
    },
    {
      "midi": 81,
      "hit": false,
      "t": 105250,
      "d": 166.66666666665697,
      "v": 111
    },
    {
      "midi": 47,
      "hit": false,
      "t": 105250,
      "d": 171.87499999998545,
      "v": 107
    },
    {
      "midi": 35,
      "hit": false,
      "t": 105749.99999999999,
      "d": 187.5,
      "v": 114
    },
    {
      "midi": 80,
      "hit": false,
      "t": 105999.99999999999,
      "d": 166.66666666667152,
      "v": 110
    },
    {
      "midi": 76,
      "hit": false,
      "t": 105999.99999999999,
      "d": 182.29166666667152,
      "v": 105
    },
    {
      "midi": 83,
      "hit": false,
      "t": 105999.99999999999,
      "d": 182.29166666667152,
      "v": 111
    },
    {
      "midi": 40,
      "hit": false,
      "t": 105999.99999999999,
      "d": 192.70833333334303,
      "v": 116
    },
    {
      "midi": 71,
      "hit": false,
      "t": 106250,
      "d": 52.08333333332848,
      "v": 80
    },
    {
      "midi": 76,
      "hit": false,
      "t": 106250,
      "d": 135.41666666665697,
      "v": 79
    },
    {
      "midi": 80,
      "hit": false,
      "t": 106250,
      "d": 140.62499999998545,
      "v": 89
    },
    {
      "midi": 40,
      "hit": false,
      "t": 106250,
      "d": 166.66666666665697,
      "v": 107
    },
    {
      "midi": 83,
      "hit": false,
      "t": 106250,
      "d": 171.87499999998545,
      "v": 105
    },
    {
      "midi": 76,
      "hit": false,
      "t": 106499.99999999999,
      "d": 166.66666666667152,
      "v": 105
    },
    {
      "midi": 78,
      "hit": false,
      "t": 106499.99999999999,
      "d": 177.08333333334303,
      "v": 115
    },
    {
      "midi": 81,
      "hit": false,
      "t": 106499.99999999999,
      "d": 177.08333333334303,
      "v": 109
    },
    {
      "midi": 71,
      "hit": false,
      "t": 106750,
      "d": 36.45833333332848,
      "v": 80
    },
    {
      "midi": 80,
      "hit": false,
      "t": 107000,
      "d": 166.66666666667152,
      "v": 124
    },
    {
      "midi": 76,
      "hit": false,
      "t": 107000,
      "d": 296.875,
      "v": 113
    },
    {
      "midi": 71,
      "hit": false,
      "t": 107250,
      "d": 52.08333333332848,
      "v": 80
    },
    {
      "midi": 78,
      "hit": false,
      "t": 107500,
      "d": 182.29166666667152,
      "v": 124
    },
    {
      "midi": 71,
      "hit": false,
      "t": 107750,
      "d": 62.5,
      "v": 80
    },
    {
      "midi": 76,
      "hit": false,
      "t": 107750,
      "d": 109.375,
      "v": 82
    },
    {
      "midi": 80,
      "hit": false,
      "t": 108000,
      "d": 166.66666666667152,
      "v": 122
    },
    {
      "midi": 40,
      "hit": false,
      "t": 108000,
      "d": 187.5,
      "v": 114
    },
    {
      "midi": 76,
      "hit": false,
      "t": 108000,
      "d": 567.7083333333285,
      "v": 113
    },
    {
      "midi": 71,
      "hit": false,
      "t": 108250,
      "d": 67.70833333332848,
      "v": 80
    },
    {
      "midi": 40,
      "hit": false,
      "t": 108250,
      "d": 187.5,
      "v": 100
    },
    {
      "midi": 80,
      "hit": false,
      "t": 108250,
      "d": 197.91666666667152,
      "v": 80
    },
    {
      "midi": 78,
      "hit": false,
      "t": 108500,
      "d": 177.08333333332848,
      "v": 110
    },
    {
      "midi": 71,
      "hit": false,
      "t": 108750,
      "d": 62.5,
      "v": 81
    },
    {
      "midi": 76,
      "hit": false,
      "t": 108750,
      "d": 130.20833333332848,
      "v": 107
    },
    {
      "midi": 80,
      "hit": false,
      "t": 108750,
      "d": 156.25,
      "v": 120
    },
    {
      "midi": 71,
      "hit": false,
      "t": 109250,
      "d": 78.125,
      "v": 80
    },
    {
      "midi": 76,
      "hit": false,
      "t": 109250,
      "d": 125,
      "v": 102
    },
    {
      "midi": 39,
      "hit": false,
      "t": 109250,
      "d": 177.08333333332848,
      "v": 113
    },
    {
      "midi": 78,
      "hit": false,
      "t": 109250,
      "d": 182.29166666665697,
      "v": 124
    },
    {
      "midi": 80,
      "hit": false,
      "t": 109749.99999999999,
      "d": 156.25,
      "v": 117
    },
    {
      "midi": 76,
      "hit": false,
      "t": 109749.99999999999,
      "d": 166.66666666667152,
      "v": 109
    },
    {
      "midi": 39,
      "hit": false,
      "t": 109749.99999999999,
      "d": 171.875,
      "v": 108
    },
    {
      "midi": 76,
      "hit": false,
      "t": 109999.99999999999,
      "d": 1.3020833333284827,
      "v": 89
    },
    {
      "midi": 37,
      "hit": false,
      "t": 109999.99999999999,
      "d": 135.41666666665697,
      "v": 112
    },
    {
      "midi": 80,
      "hit": false,
      "t": 109999.99999999999,
      "d": 135.41666666665697,
      "v": 102
    },
    {
      "midi": 83,
      "hit": false,
      "t": 109999.99999999999,
      "d": 145.83333333332848,
      "v": 103
    },
    {
      "midi": 76,
      "hit": false,
      "t": 110249.99999999999,
      "d": 98.95833333332848,
      "v": 103
    },
    {
      "midi": 80,
      "hit": false,
      "t": 110249.99999999999,
      "d": 125,
      "v": 112
    },
    {
      "midi": 37,
      "hit": false,
      "t": 110249.99999999999,
      "d": 130.20833333332848,
      "v": 113
    },
    {
      "midi": 83,
      "hit": false,
      "t": 110249.99999999999,
      "d": 140.625,
      "v": 108
    },
    {
      "midi": 78,
      "hit": false,
      "t": 110499.99999999999,
      "d": 140.625,
      "v": 120
    },
    {
      "midi": 81,
      "hit": false,
      "t": 110499.99999999999,
      "d": 161.45833333332848,
      "v": 113
    },
    {
      "midi": 76,
      "hit": false,
      "t": 110499.99999999999,
      "d": 166.66666666665697,
      "v": 110
    },
    {
      "midi": 80,
      "hit": false,
      "t": 110999.99999999997,
      "d": 161.45833333332848,
      "v": 125
    },
    {
      "midi": 76,
      "hit": false,
      "t": 110999.99999999997,
      "d": 203.125,
      "v": 114
    },
    {
      "midi": 78,
      "hit": false,
      "t": 111499.99999999997,
      "d": 197.91666666667152,
      "v": 124
    },
    {
      "midi": 76,
      "hit": false,
      "t": 111749.99999999997,
      "d": 125,
      "v": 103
    },
    {
      "midi": 37,
      "hit": false,
      "t": 111999.99999999997,
      "d": 187.5,
      "v": 115
    },
    {
      "midi": 76,
      "hit": false,
      "t": 111999.99999999997,
      "d": 192.70833333332848,
      "v": 107
    },
    {
      "midi": 80,
      "hit": false,
      "t": 111999.99999999997,
      "d": 223.95833333332848,
      "v": 124
    },
    {
      "midi": 81,
      "hit": false,
      "t": 112249.99999999997,
      "d": 114.58333333332848,
      "v": 93
    },
    {
      "midi": 35,
      "hit": false,
      "t": 112249.99999999997,
      "d": 145.83333333332848,
      "v": 102
    },
    {
      "midi": 76,
      "hit": false,
      "t": 112499.99999999997,
      "d": 93.75,
      "v": 100
    },
    {
      "midi": 83,
      "hit": false,
      "t": 112499.99999999997,
      "d": 109.375,
      "v": 110
    },
    {
      "midi": 34,
      "hit": false,
      "t": 112499.99999999997,
      "d": 119.79166666667152,
      "v": 109
    },
    {
      "midi": 33,
      "hit": false,
      "t": 112749.99999999997,
      "d": 406.25,
      "v": 109
    },
    {
      "midi": 85,
      "hit": false,
      "t": 112749.99999999997,
      "d": 609.375,
      "v": 119
    },
    {
      "midi": 76,
      "hit": false,
      "t": 112749.99999999997,
      "d": 630.2083333333285,
      "v": 102
    },
    {
      "midi": 56,
      "hit": false,
      "t": 113499.99999999997,
      "d": 223.95833333332848,
      "v": 110
    },
    {
      "midi": 44,
      "hit": false,
      "t": 113749.99999999997,
      "d": 208.33333333332848,
      "v": 105
    },
    {
      "midi": 44,
      "hit": false,
      "t": 113999.99999999997,
      "d": 140.625,
      "v": 107
    },
    {
      "midi": 56,
      "hit": false,
      "t": 113999.99999999997,
      "d": 156.25,
      "v": 113
    },
    {
      "midi": 73,
      "hit": false,
      "t": 113999.99999999997,
      "d": 156.25,
      "v": 105
    },
    {
      "midi": 77,
      "hit": false,
      "t": 113999.99999999997,
      "d": 182.29166666667152,
      "v": 111
    },
    {
      "midi": 66,
      "hit": false,
      "t": 113999.99999999997,
      "d": 208.33333333334303,
      "v": 113
    },
    {
      "midi": 80,
      "hit": false,
      "t": 113999.99999999997,
      "d": 3963.5416666667006,
      "v": 50
    },
    {
      "midi": 72,
      "hit": false,
      "t": 114499.99999999999,
      "d": 151.04166666667152,
      "v": 115
    },
    {
      "midi": 75,
      "hit": false,
      "t": 114499.99999999999,
      "d": 177.08333333334303,
      "v": 114
    },
    {
      "midi": 66,
      "hit": false,
      "t": 114499.99999999999,
      "d": 187.50000000001455,
      "v": 117
    },
    {
      "midi": 73,
      "hit": false,
      "t": 115000,
      "d": 151.04166666667152,
      "v": 110
    },
    {
      "midi": 70,
      "hit": false,
      "t": 115000,
      "d": 161.45833333334303,
      "v": 115
    },
    {
      "midi": 42,
      "hit": false,
      "t": 115000,
      "d": 192.70833333334303,
      "v": 107
    },
    {
      "midi": 66,
      "hit": false,
      "t": 115000,
      "d": 203.12500000001455,
      "v": 117
    },
    {
      "midi": 54,
      "hit": false,
      "t": 115000,
      "d": 234.37500000001455,
      "v": 104
    },
    {
      "midi": 70,
      "hit": false,
      "t": 115250.00000000001,
      "d": 83.33333333332848,
      "v": 56
    },
    {
      "midi": 73,
      "hit": false,
      "t": 115250.00000000001,
      "d": 93.75,
      "v": 62
    },
    {
      "midi": 72,
      "hit": false,
      "t": 115500.00000000001,
      "d": 93.75,
      "v": 109
    },
    {
      "midi": 75,
      "hit": false,
      "t": 115500.00000000001,
      "d": 109.375,
      "v": 107
    },
    {
      "midi": 53,
      "hit": false,
      "t": 115750.00000000001,
      "d": 151.04166666667152,
      "v": 105
    },
    {
      "midi": 73,
      "hit": false,
      "t": 115750.00000000001,
      "d": 156.25,
      "v": 119
    },
    {
      "midi": 41,
      "hit": false,
      "t": 115750.00000000001,
      "d": 166.66666666667152,
      "v": 111
    },
    {
      "midi": 77,
      "hit": false,
      "t": 115750.00000000001,
      "d": 182.29166666667152,
      "v": 120
    },
    {
      "midi": 65,
      "hit": false,
      "t": 115750.00000000001,
      "d": 203.125,
      "v": 120
    },
    {
      "midi": 73,
      "hit": false,
      "t": 116250.00000000001,
      "d": 182.29166666667152,
      "v": 121
    },
    {
      "midi": 77,
      "hit": false,
      "t": 116250.00000000001,
      "d": 192.70833333334303,
      "v": 120
    },
    {
      "midi": 65,
      "hit": false,
      "t": 116250.00000000001,
      "d": 307.29166666668607,
      "v": 115
    },
    {
      "midi": 75,
      "hit": false,
      "t": 116500.00000000003,
      "d": 140.625,
      "v": 97
    },
    {
      "midi": 72,
      "hit": false,
      "t": 116500.00000000003,
      "d": 156.25,
      "v": 97
    },
    {
      "midi": 73,
      "hit": false,
      "t": 117000.00000000003,
      "d": 192.70833333332848,
      "v": 119
    },
    {
      "midi": 70,
      "hit": false,
      "t": 117000.00000000003,
      "d": 213.54166666665697,
      "v": 120
    },
    {
      "midi": 65,
      "hit": false,
      "t": 117000.00000000003,
      "d": 260.41666666665697,
      "v": 116
    },
    {
      "midi": 53,
      "hit": false,
      "t": 117250.00000000001,
      "d": 203.125,
      "v": 111
    },
    {
      "midi": 49,
      "hit": false,
      "t": 117500.00000000001,
      "d": 192.70833333332848,
      "v": 106
    },
    {
      "midi": 72,
      "hit": false,
      "t": 117500.00000000001,
      "d": 218.75,
      "v": 114
    },
    {
      "midi": 75,
      "hit": false,
      "t": 117500.00000000001,
      "d": 239.58333333332848,
      "v": 117
    },
    {
      "midi": 65,
      "hit": false,
      "t": 117500.00000000001,
      "d": 270.8333333333285,
      "v": 113
    },
    {
      "midi": 41,
      "hit": false,
      "t": 117750.00000000001,
      "d": 114.58333333332848,
      "v": 102
    },
    {
      "midi": 77,
      "hit": false,
      "t": 118000,
      "d": 1.3020833333284827,
      "v": 111
    },
    {
      "midi": 51,
      "hit": false,
      "t": 118000,
      "d": 166.66666666665697,
      "v": 110
    },
    {
      "midi": 39,
      "hit": false,
      "t": 118000,
      "d": 177.08333333332848,
      "v": 113
    },
    {
      "midi": 73,
      "hit": false,
      "t": 118000,
      "d": 177.08333333332848,
      "v": 110
    },
    {
      "midi": 66,
      "hit": false,
      "t": 118000,
      "d": 218.75,
      "v": 119
    },
    {
      "midi": 53,
      "hit": false,
      "t": 118500,
      "d": 93.75,
      "v": 109
    },
    {
      "midi": 41,
      "hit": false,
      "t": 118500,
      "d": 177.08333333332848,
      "v": 114
    },
    {
      "midi": 65,
      "hit": false,
      "t": 118500,
      "d": 265.625,
      "v": 114
    },
    {
      "midi": 72,
      "hit": false,
      "t": 118500,
      "d": 291.6666666666715,
      "v": 109
    },
    {
      "midi": 75,
      "hit": false,
      "t": 118500,
      "d": 338.5416666666715,
      "v": 116
    },
    {
      "midi": 54,
      "hit": false,
      "t": 118750,
      "d": 182.29166666667152,
      "v": 108
    },
    {
      "midi": 73,
      "hit": false,
      "t": 119000,
      "d": 140.625,
      "v": 101
    },
    {
      "midi": 70,
      "hit": false,
      "t": 119000,
      "d": 151.04166666667152,
      "v": 106
    },
    {
      "midi": 56,
      "hit": false,
      "t": 119000,
      "d": 192.70833333334303,
      "v": 112
    },
    {
      "midi": 66,
      "hit": false,
      "t": 119000,
      "d": 208.33333333334303,
      "v": 115
    },
    {
      "midi": 44,
      "hit": false,
      "t": 119000,
      "d": 213.54166666667152,
      "v": 108
    },
    {
      "midi": 80,
      "hit": false,
      "t": 119000,
      "d": 963.5416666666861,
      "v": 50
    },
    {
      "midi": 70,
      "hit": false,
      "t": 119250,
      "d": 104.16666666667152,
      "v": 61
    },
    {
      "midi": 73,
      "hit": false,
      "t": 119250,
      "d": 125,
      "v": 76
    },
    {
      "midi": 57,
      "hit": false,
      "t": 119500,
      "d": 104.16666666667152,
      "v": 99
    },
    {
      "midi": 45,
      "hit": false,
      "t": 119500,
      "d": 119.79166666667152,
      "v": 109
    },
    {
      "midi": 69,
      "hit": false,
      "t": 119500,
      "d": 135.41666666667152,
      "v": 108
    },
    {
      "midi": 72,
      "hit": false,
      "t": 119500,
      "d": 161.45833333334303,
      "v": 107
    },
    {
      "midi": 70,
      "hit": false,
      "t": 119750.00000000001,
      "d": 166.66666666667152,
      "v": 116
    },
    {
      "midi": 73,
      "hit": false,
      "t": 119750.00000000001,
      "d": 166.66666666667152,
      "v": 107
    },
    {
      "midi": 46,
      "hit": false,
      "t": 119750.00000000001,
      "d": 177.08333333334303,
      "v": 114
    },
    {
      "midi": 58,
      "hit": false,
      "t": 119750.00000000001,
      "d": 182.29166666667152,
      "v": 110
    },
    {
      "midi": 80,
      "hit": false,
      "t": 120000.00000000001,
      "d": 911.4583333333139,
      "v": 50
    },
    {
      "midi": 77,
      "hit": false,
      "t": 120250.00000000001,
      "d": 192.70833333332848,
      "v": 119
    },
    {
      "midi": 73,
      "hit": false,
      "t": 120250.00000000001,
      "d": 213.54166666665697,
      "v": 120
    },
    {
      "midi": 65,
      "hit": false,
      "t": 120250.00000000001,
      "d": 229.16666666665697,
      "v": 115
    },
    {
      "midi": 72,
      "hit": false,
      "t": 120500,
      "d": 166.66666666667152,
      "v": 91
    },
    {
      "midi": 75,
      "hit": false,
      "t": 120500,
      "d": 234.375,
      "v": 81
    },
    {
      "midi": 65,
      "hit": false,
      "t": 120750,
      "d": 83.33333333332848,
      "v": 78
    },
    {
      "midi": 85,
      "hit": false,
      "t": 120979.16666666666,
      "d": 4093.749999999971,
      "v": 47
    },
    {
      "midi": 57,
      "hit": false,
      "t": 120999.99999999999,
      "d": 83.33333333332848,
      "v": 107
    },
    {
      "midi": 45,
      "hit": false,
      "t": 120999.99999999999,
      "d": 88.54166666665697,
      "v": 111
    },
    {
      "midi": 71,
      "hit": false,
      "t": 120999.99999999999,
      "d": 88.54166666665697,
      "v": 113
    },
    {
      "midi": 73,
      "hit": false,
      "t": 120999.99999999999,
      "d": 88.54166666665697,
      "v": 105
    },
    {
      "midi": 67,
      "hit": false,
      "t": 120999.99999999999,
      "d": 93.74999999998545,
      "v": 108
    },
    {
      "midi": 57,
      "hit": false,
      "t": 121249.99999999997,
      "d": 93.75,
      "v": 104
    },
    {
      "midi": 71,
      "hit": false,
      "t": 121249.99999999997,
      "d": 93.75,
      "v": 99
    },
    {
      "midi": 45,
      "hit": false,
      "t": 121249.99999999997,
      "d": 114.58333333332848,
      "v": 105
    },
    {
      "midi": 67,
      "hit": false,
      "t": 121249.99999999997,
      "d": 114.58333333332848,
      "v": 100
    },
    {
      "midi": 73,
      "hit": false,
      "t": 121249.99999999997,
      "d": 114.58333333332848,
      "v": 103
    },
    {
      "midi": 67,
      "hit": false,
      "t": 121499.99999999997,
      "d": 276.0416666666715,
      "v": 110
    },
    {
      "midi": 75,
      "hit": false,
      "t": 121499.99999999997,
      "d": 343.75,
      "v": 117
    },
    {
      "midi": 44,
      "hit": false,
      "t": 121999.99999999997,
      "d": 161.45833333332848,
      "v": 112
    },
    {
      "midi": 73,
      "hit": false,
      "t": 121999.99999999997,
      "d": 171.875,
      "v": 113
    },
    {
      "midi": 56,
      "hit": false,
      "t": 121999.99999999997,
      "d": 177.08333333332848,
      "v": 108
    },
    {
      "midi": 77,
      "hit": false,
      "t": 121999.99999999997,
      "d": 192.70833333332848,
      "v": 113
    },
    {
      "midi": 66,
      "hit": false,
      "t": 121999.99999999997,
      "d": 239.58333333332848,
      "v": 119
    },
    {
      "midi": 72,
      "hit": false,
      "t": 122499.99999999997,
      "d": 156.25,
      "v": 111
    },
    {
      "midi": 66,
      "hit": false,
      "t": 122499.99999999997,
      "d": 182.29166666667152,
      "v": 116
    },
    {
      "midi": 75,
      "hit": false,
      "t": 122499.99999999997,
      "d": 192.70833333334303,
      "v": 113
    },
    {
      "midi": 73,
      "hit": false,
      "t": 122999.99999999999,
      "d": 140.625,
      "v": 106
    },
    {
      "midi": 70,
      "hit": false,
      "t": 122999.99999999999,
      "d": 161.45833333332848,
      "v": 115
    },
    {
      "midi": 66,
      "hit": false,
      "t": 122999.99999999999,
      "d": 187.5,
      "v": 117
    },
    {
      "midi": 42,
      "hit": false,
      "t": 122999.99999999999,
      "d": 192.70833333332848,
      "v": 109
    },
    {
      "midi": 54,
      "hit": false,
      "t": 122999.99999999999,
      "d": 197.91666666665697,
      "v": 107
    },
    {
      "midi": 73,
      "hit": false,
      "t": 123249.99999999997,
      "d": 88.54166666667152,
      "v": 84
    },
    {
      "midi": 70,
      "hit": false,
      "t": 123249.99999999997,
      "d": 104.16666666667152,
      "v": 67
    },
    {
      "midi": 72,
      "hit": false,
      "t": 123499.99999999997,
      "d": 98.95833333332848,
      "v": 111
    },
    {
      "midi": 75,
      "hit": false,
      "t": 123499.99999999997,
      "d": 104.16666666665697,
      "v": 110
    },
    {
      "midi": 41,
      "hit": false,
      "t": 123749.99999999996,
      "d": 151.04166666667152,
      "v": 109
    },
    {
      "midi": 53,
      "hit": false,
      "t": 123749.99999999996,
      "d": 151.04166666667152,
      "v": 101
    },
    {
      "midi": 77,
      "hit": false,
      "t": 123749.99999999996,
      "d": 156.25,
      "v": 116
    },
    {
      "midi": 65,
      "hit": false,
      "t": 123749.99999999996,
      "d": 161.45833333332848,
      "v": 114
    },
    {
      "midi": 73,
      "hit": false,
      "t": 123749.99999999996,
      "d": 177.08333333332848,
      "v": 119
    },
    {
      "midi": 73,
      "hit": false,
      "t": 124249.99999999996,
      "d": 203.125,
      "v": 121
    },
    {
      "midi": 77,
      "hit": false,
      "t": 124249.99999999996,
      "d": 203.125,
      "v": 123
    },
    {
      "midi": 65,
      "hit": false,
      "t": 124249.99999999996,
      "d": 307.2916666666715,
      "v": 120
    },
    {
      "midi": 72,
      "hit": false,
      "t": 124499.99999999996,
      "d": 140.625,
      "v": 90
    },
    {
      "midi": 75,
      "hit": false,
      "t": 124499.99999999996,
      "d": 177.08333333332848,
      "v": 85
    },
    {
      "midi": 65,
      "hit": false,
      "t": 124749.99999999996,
      "d": 62.5,
      "v": 42
    },
    {
      "midi": 73,
      "hit": false,
      "t": 124999.99999999996,
      "d": 203.125,
      "v": 115
    },
    {
      "midi": 70,
      "hit": false,
      "t": 124999.99999999996,
      "d": 244.79166666667152,
      "v": 121
    },
    {
      "midi": 65,
      "hit": false,
      "t": 124999.99999999996,
      "d": 291.6666666666715,
      "v": 118
    },
    {
      "midi": 89,
      "hit": false,
      "t": 124999.99999999996,
      "d": 958.333333333343,
      "v": 50
    },
    {
      "midi": 53,
      "hit": false,
      "t": 125249.99999999996,
      "d": 203.125,
      "v": 107
    },
    {
      "midi": 49,
      "hit": false,
      "t": 125499.99999999996,
      "d": 197.91666666667152,
      "v": 107
    },
    {
      "midi": 72,
      "hit": false,
      "t": 125499.99999999996,
      "d": 213.54166666667152,
      "v": 115
    },
    {
      "midi": 75,
      "hit": false,
      "t": 125499.99999999996,
      "d": 229.16666666667152,
      "v": 117
    },
    {
      "midi": 65,
      "hit": false,
      "t": 125499.99999999996,
      "d": 239.58333333334303,
      "v": 110
    },
    {
      "midi": 41,
      "hit": false,
      "t": 125749.99999999997,
      "d": 130.20833333332848,
      "v": 105
    },
    {
      "midi": 51,
      "hit": false,
      "t": 125999.99999999997,
      "d": 177.08333333332848,
      "v": 113
    },
    {
      "midi": 73,
      "hit": false,
      "t": 125999.99999999997,
      "d": 182.29166666665697,
      "v": 110
    },
    {
      "midi": 39,
      "hit": false,
      "t": 125999.99999999997,
      "d": 187.49999999998545,
      "v": 116
    },
    {
      "midi": 66,
      "hit": false,
      "t": 125999.99999999997,
      "d": 218.74999999998545,
      "v": 119
    },
    {
      "midi": 77,
      "hit": false,
      "t": 125999.99999999997,
      "d": 234.37499999998545,
      "v": 114
    },
    {
      "midi": 80,
      "hit": false,
      "t": 125999.99999999997,
      "d": 1984.374999999971,
      "v": 50
    },
    {
      "midi": 53,
      "hit": false,
      "t": 126499.99999999996,
      "d": 98.95833333332848,
      "v": 109
    },
    {
      "midi": 41,
      "hit": false,
      "t": 126499.99999999996,
      "d": 182.29166666665697,
      "v": 120
    },
    {
      "midi": 75,
      "hit": false,
      "t": 126499.99999999996,
      "d": 234.37499999998545,
      "v": 114
    },
    {
      "midi": 72,
      "hit": false,
      "t": 126499.99999999996,
      "d": 244.79166666665697,
      "v": 113
    },
    {
      "midi": 65,
      "hit": false,
      "t": 126499.99999999996,
      "d": 249.99999999998545,
      "v": 115
    },
    {
      "midi": 54,
      "hit": false,
      "t": 126749.99999999994,
      "d": 182.29166666667152,
      "v": 106
    },
    {
      "midi": 73,
      "hit": false,
      "t": 126999.99999999994,
      "d": 135.41666666667152,
      "v": 102
    },
    {
      "midi": 70,
      "hit": false,
      "t": 126999.99999999994,
      "d": 156.25,
      "v": 113
    },
    {
      "midi": 44,
      "hit": false,
      "t": 126999.99999999994,
      "d": 171.875,
      "v": 114
    },
    {
      "midi": 66,
      "hit": false,
      "t": 126999.99999999994,
      "d": 203.125,
      "v": 117
    },
    {
      "midi": 56,
      "hit": false,
      "t": 126999.99999999994,
      "d": 208.33333333332848,
      "v": 109
    },
    {
      "midi": 70,
      "hit": false,
      "t": 127249.99999999994,
      "d": 83.33333333332848,
      "v": 80
    },
    {
      "midi": 73,
      "hit": false,
      "t": 127249.99999999994,
      "d": 114.58333333332848,
      "v": 91
    },
    {
      "midi": 57,
      "hit": false,
      "t": 127499.99999999994,
      "d": 98.95833333332848,
      "v": 98
    },
    {
      "midi": 45,
      "hit": false,
      "t": 127499.99999999994,
      "d": 109.375,
      "v": 107
    },
    {
      "midi": 69,
      "hit": false,
      "t": 127499.99999999994,
      "d": 109.375,
      "v": 111
    },
    {
      "midi": 72,
      "hit": false,
      "t": 127499.99999999994,
      "d": 135.41666666667152,
      "v": 108
    },
    {
      "midi": 58,
      "hit": false,
      "t": 127749.99999999994,
      "d": 135.41666666667152,
      "v": 107
    },
    {
      "midi": 70,
      "hit": false,
      "t": 127749.99999999994,
      "d": 171.875,
      "v": 115
    },
    {
      "midi": 46,
      "hit": false,
      "t": 127749.99999999994,
      "d": 197.91666666667152,
      "v": 115
    },
    {
      "midi": 73,
      "hit": false,
      "t": 127749.99999999994,
      "d": 197.91666666667152,
      "v": 112
    },
    {
      "midi": 82,
      "hit": false,
      "t": 127999.99999999994,
      "d": 6067.708333333343,
      "v": 50
    },
    {
      "midi": 34,
      "hit": false,
      "t": 128249.99999999994,
      "d": 229.16666666667152,
      "v": 112
    },
    {
      "midi": 41,
      "hit": false,
      "t": 128499.99999999994,
      "d": 229.16666666667152,
      "v": 102
    },
    {
      "midi": 46,
      "hit": false,
      "t": 128749.99999999994,
      "d": 177.08333333332848,
      "v": 103
    },
    {
      "midi": 65,
      "hit": false,
      "t": 128999.99999999994,
      "d": 187.5,
      "v": 111
    },
    {
      "midi": 58,
      "hit": false,
      "t": 128999.99999999994,
      "d": 192.70833333332848,
      "v": 117
    },
    {
      "midi": 49,
      "hit": false,
      "t": 128999.99999999994,
      "d": 223.95833333332848,
      "v": 107
    },
    {
      "midi": 68,
      "hit": false,
      "t": 128999.99999999994,
      "d": 229.16666666665697,
      "v": 113
    },
    {
      "midi": 46,
      "hit": false,
      "t": 129499.99999999993,
      "d": 213.54166666667152,
      "v": 107
    },
    {
      "midi": 63,
      "hit": false,
      "t": 129499.99999999993,
      "d": 223.95833333334303,
      "v": 119
    },
    {
      "midi": 67,
      "hit": false,
      "t": 129499.99999999993,
      "d": 229.16666666667152,
      "v": 118
    },
    {
      "midi": 58,
      "hit": false,
      "t": 129499.99999999993,
      "d": 234.375,
      "v": 120
    },
    {
      "midi": 41,
      "hit": false,
      "t": 129749.99999999993,
      "d": 213.54166666667152,
      "v": 95
    },
    {
      "midi": 56,
      "hit": false,
      "t": 129999.99999999993,
      "d": 203.125,
      "v": 115
    },
    {
      "midi": 61,
      "hit": false,
      "t": 129999.99999999993,
      "d": 234.375,
      "v": 119
    },
    {
      "midi": 34,
      "hit": false,
      "t": 129999.99999999993,
      "d": 687.5,
      "v": 110
    },
    {
      "midi": 65,
      "hit": false,
      "t": 130249.99999999993,
      "d": 197.91666666667152,
      "v": 99
    },
    {
      "midi": 63,
      "hit": false,
      "t": 130499.99999999993,
      "d": 203.125,
      "v": 119
    },
    {
      "midi": 46,
      "hit": false,
      "t": 130749.99999999993,
      "d": 197.91666666667152,
      "v": 110
    },
    {
      "midi": 61,
      "hit": false,
      "t": 130999.99999999993,
      "d": 572.9166666666715,
      "v": 117
    },
    {
      "midi": 41,
      "hit": false,
      "t": 130999.99999999993,
      "d": 744.7916666666715,
      "v": 96
    },
    {
      "midi": 58,
      "hit": false,
      "t": 131499.99999999994,
      "d": 166.66666666665697,
      "v": 104
    },
    {
      "midi": 46,
      "hit": false,
      "t": 131749.99999999994,
      "d": 197.91666666665697,
      "v": 109
    },
    {
      "midi": 63,
      "hit": false,
      "t": 131749.99999999994,
      "d": 1036.458333333343,
      "v": 109
    },
    {
      "midi": 56,
      "hit": false,
      "t": 131749.99999999994,
      "d": 1046.875,
      "v": 113
    },
    {
      "midi": 34,
      "hit": false,
      "t": 131999.99999999994,
      "d": 718.75,
      "v": 110
    },
    {
      "midi": 94,
      "hit": false,
      "t": 132005.20833333328,
      "d": 1979.166666666657,
      "v": 44
    },
    {
      "midi": 46,
      "hit": false,
      "t": 132749.99999999994,
      "d": 208.33333333334303,
      "v": 112
    },
    {
      "midi": 56,
      "hit": false,
      "t": 132999.99999999994,
      "d": 406.25,
      "v": 110
    },
    {
      "midi": 61,
      "hit": false,
      "t": 132999.99999999994,
      "d": 411.45833333334303,
      "v": 115
    },
    {
      "midi": 34,
      "hit": false,
      "t": 132999.99999999994,
      "d": 427.08333333334303,
      "v": 105
    },
    {
      "midi": 33,
      "hit": false,
      "t": 133499.99999999994,
      "d": 442.70833333334303,
      "v": 107
    },
    {
      "midi": 73,
      "hit": false,
      "t": 133999.99999999994,
      "d": 171.875,
      "v": 117
    },
    {
      "midi": 77,
      "hit": false,
      "t": 133999.99999999994,
      "d": 213.54166666665697,
      "v": 120
    },
    {
      "midi": 66,
      "hit": false,
      "t": 133999.99999999994,
      "d": 244.79166666665697,
      "v": 119
    },
    {
      "midi": 32,
      "hit": false,
      "t": 133999.99999999994,
      "d": 682.291666666657,
      "v": 115
    },
    {
      "midi": 80,
      "hit": false,
      "t": 133999.99999999994,
      "d": 3963.541666666715,
      "v": 50
    },
    {
      "midi": 92,
      "hit": false,
      "t": 134031.24999999994,
      "d": 3963.541666666715,
      "v": 41
    },
    {
      "midi": 72,
      "hit": false,
      "t": 134499.99999999994,
      "d": 208.33333333331393,
      "v": 114
    },
    {
      "midi": 75,
      "hit": false,
      "t": 134499.99999999994,
      "d": 244.79166666665697,
      "v": 114
    },
    {
      "midi": 66,
      "hit": false,
      "t": 134499.99999999994,
      "d": 260.41666666665697,
      "v": 113
    },
    {
      "midi": 44,
      "hit": false,
      "t": 134749.99999999994,
      "d": 229.16666666665697,
      "v": 109
    },
    {
      "midi": 73,
      "hit": false,
      "t": 134999.99999999994,
      "d": 161.45833333334303,
      "v": 113
    },
    {
      "midi": 70,
      "hit": false,
      "t": 134999.99999999994,
      "d": 171.875,
      "v": 116
    },
    {
      "midi": 66,
      "hit": false,
      "t": 134999.99999999994,
      "d": 197.91666666665697,
      "v": 116
    },
    {
      "midi": 39,
      "hit": false,
      "t": 134999.99999999994,
      "d": 760.416666666657,
      "v": 105
    },
    {
      "midi": 70,
      "hit": false,
      "t": 135499.99999999994,
      "d": 177.08333333334303,
      "v": 116
    },
    {
      "midi": 77,
      "hit": false,
      "t": 135749.99999999994,
      "d": 671.875,
      "v": 119
    },
    {
      "midi": 73,
      "hit": false,
      "t": 135749.99999999994,
      "d": 687.5,
      "v": 112
    },
    {
      "midi": 66,
      "hit": false,
      "t": 135749.99999999994,
      "d": 697.916666666657,
      "v": 115
    },
    {
      "midi": 32,
      "hit": false,
      "t": 135749.99999999994,
      "d": 942.708333333343,
      "v": 112
    },
    {
      "midi": 72,
      "hit": false,
      "t": 136499.99999999994,
      "d": 203.125,
      "v": 114
    },
    {
      "midi": 75,
      "hit": false,
      "t": 136499.99999999994,
      "d": 208.33333333334303,
      "v": 113
    },
    {
      "midi": 66,
      "hit": false,
      "t": 136499.99999999994,
      "d": 265.625,
      "v": 105
    },
    {
      "midi": 44,
      "hit": false,
      "t": 136749.99999999994,
      "d": 239.58333333334303,
      "v": 104
    },
    {
      "midi": 73,
      "hit": false,
      "t": 136999.99999999994,
      "d": 208.33333333334303,
      "v": 109
    },
    {
      "midi": 39,
      "hit": false,
      "t": 136999.99999999994,
      "d": 239.58333333334303,
      "v": 103
    },
    {
      "midi": 70,
      "hit": false,
      "t": 136999.99999999994,
      "d": 338.54166666665697,
      "v": 115
    },
    {
      "midi": 66,
      "hit": false,
      "t": 136999.99999999994,
      "d": 401.04166666665697,
      "v": 115
    },
    {
      "midi": 44,
      "hit": false,
      "t": 137249.99999999994,
      "d": 244.79166666665697,
      "v": 101
    },
    {
      "midi": 75,
      "hit": false,
      "t": 137499.99999999994,
      "d": 177.08333333334303,
      "v": 107
    },
    {
      "midi": 32,
      "hit": false,
      "t": 137499.99999999994,
      "d": 182.29166666668607,
      "v": 107
    },
    {
      "midi": 72,
      "hit": false,
      "t": 137499.99999999994,
      "d": 187.5000000000291,
      "v": 107
    },
    {
      "midi": 66,
      "hit": false,
      "t": 137499.99999999994,
      "d": 244.79166666668607,
      "v": 106
    },
    {
      "midi": 33,
      "hit": false,
      "t": 137749.99999999997,
      "d": 161.45833333334303,
      "v": 105
    },
    {
      "midi": 56,
      "hit": false,
      "t": 138000,
      "d": 208.33333333334303,
      "v": 112
    },
    {
      "midi": 61,
      "hit": false,
      "t": 138000,
      "d": 302.08333333334303,
      "v": 116
    },
    {
      "midi": 34,
      "hit": false,
      "t": 138000,
      "d": 729.1666666666861,
      "v": 106
    },
    {
      "midi": 82,
      "hit": false,
      "t": 138000,
      "d": 4046.874999999971,
      "v": 50
    },
    {
      "midi": 94,
      "hit": false,
      "t": 138005.20833333334,
      "d": 3921.874999999971,
      "v": 45
    },
    {
      "midi": 65,
      "hit": false,
      "t": 138250,
      "d": 197.91666666668607,
      "v": 102
    },
    {
      "midi": 63,
      "hit": false,
      "t": 138500.00000000003,
      "d": 182.29166666665697,
      "v": 117
    },
    {
      "midi": 46,
      "hit": false,
      "t": 138750.00000000003,
      "d": 234.375,
      "v": 112
    },
    {
      "midi": 61,
      "hit": false,
      "t": 139000.00000000003,
      "d": 635.416666666657,
      "v": 117
    },
    {
      "midi": 41,
      "hit": false,
      "t": 139000.00000000003,
      "d": 760.416666666657,
      "v": 90
    },
    {
      "midi": 58,
      "hit": false,
      "t": 139500.00000000003,
      "d": 182.29166666665697,
      "v": 105
    },
    {
      "midi": 46,
      "hit": false,
      "t": 139750.00000000003,
      "d": 223.95833333331393,
      "v": 113
    },
    {
      "midi": 56,
      "hit": false,
      "t": 139750.00000000003,
      "d": 1026.0416666666279,
      "v": 112
    },
    {
      "midi": 63,
      "hit": false,
      "t": 139750.00000000003,
      "d": 1036.4583333332848,
      "v": 106
    },
    {
      "midi": 34,
      "hit": false,
      "t": 140000,
      "d": 723.958333333343,
      "v": 112
    },
    {
      "midi": 46,
      "hit": false,
      "t": 140750,
      "d": 208.33333333331393,
      "v": 113
    },
    {
      "midi": 56,
      "hit": false,
      "t": 140999.99999999997,
      "d": 463.54166666665697,
      "v": 117
    },
    {
      "midi": 61,
      "hit": false,
      "t": 140999.99999999997,
      "d": 463.54166666665697,
      "v": 116
    },
    {
      "midi": 34,
      "hit": false,
      "t": 140999.99999999997,
      "d": 468.75,
      "v": 110
    },
    {
      "midi": 33,
      "hit": false,
      "t": 141499.99999999997,
      "d": 427.08333333334303,
      "v": 102
    },
    {
      "midi": 92,
      "hit": false,
      "t": 141953.12499999997,
      "d": 9088.541666666948,
      "v": 40
    },
    {
      "midi": 73,
      "hit": false,
      "t": 141999.99999999997,
      "d": 177.08333333334303,
      "v": 115
    },
    {
      "midi": 77,
      "hit": false,
      "t": 141999.99999999997,
      "d": 187.5,
      "v": 118
    },
    {
      "midi": 66,
      "hit": false,
      "t": 141999.99999999997,
      "d": 333.33333333334303,
      "v": 116
    },
    {
      "midi": 32,
      "hit": false,
      "t": 141999.99999999997,
      "d": 687.5,
      "v": 115
    },
    {
      "midi": 80,
      "hit": false,
      "t": 141999.99999999997,
      "d": 9510.416666666919,
      "v": 50
    },
    {
      "midi": 72,
      "hit": false,
      "t": 142499.99999999997,
      "d": 187.5,
      "v": 115
    },
    {
      "midi": 75,
      "hit": false,
      "t": 142499.99999999997,
      "d": 223.95833333334303,
      "v": 114
    },
    {
      "midi": 66,
      "hit": false,
      "t": 142499.99999999997,
      "d": 312.5,
      "v": 116
    },
    {
      "midi": 44,
      "hit": false,
      "t": 142749.99999999997,
      "d": 229.16666666665697,
      "v": 110
    },
    {
      "midi": 73,
      "hit": false,
      "t": 142999.99999999997,
      "d": 171.875,
      "v": 113
    },
    {
      "midi": 70,
      "hit": false,
      "t": 142999.99999999997,
      "d": 177.08333333334303,
      "v": 115
    },
    {
      "midi": 66,
      "hit": false,
      "t": 142999.99999999997,
      "d": 229.16666666668607,
      "v": 114
    },
    {
      "midi": 39,
      "hit": false,
      "t": 142999.99999999997,
      "d": 739.5833333333721,
      "v": 103
    },
    {
      "midi": 70,
      "hit": false,
      "t": 143500,
      "d": 177.08333333334303,
      "v": 117
    },
    {
      "midi": 77,
      "hit": false,
      "t": 143750,
      "d": 666.666666666657,
      "v": 120
    },
    {
      "midi": 73,
      "hit": false,
      "t": 143750,
      "d": 677.0833333333139,
      "v": 115
    },
    {
      "midi": 66,
      "hit": false,
      "t": 143750,
      "d": 682.291666666657,
      "v": 116
    },
    {
      "midi": 32,
      "hit": false,
      "t": 143750,
      "d": 932.2916666666861,
      "v": 110
    },
    {
      "midi": 66,
      "hit": false,
      "t": 144515.625,
      "d": 255.20833333334303,
      "v": 103
    },
    {
      "midi": 72,
      "hit": false,
      "t": 144520.83333333334,
      "d": 203.125,
      "v": 115
    },
    {
      "midi": 75,
      "hit": false,
      "t": 144520.83333333334,
      "d": 250,
      "v": 114
    },
    {
      "midi": 44,
      "hit": false,
      "t": 144739.58333333334,
      "d": 239.58333333334303,
      "v": 88
    },
    {
      "midi": 39,
      "hit": false,
      "t": 145005.20833333334,
      "d": 229.16666666668607,
      "v": 98
    },
    {
      "midi": 66,
      "hit": false,
      "t": 145010.4166666667,
      "d": 197.91666666668607,
      "v": 114
    },
    {
      "midi": 73,
      "hit": false,
      "t": 145015.62500000003,
      "d": 250,
      "v": 112
    },
    {
      "midi": 70,
      "hit": false,
      "t": 145015.62500000003,
      "d": 265.625,
      "v": 115
    },
    {
      "midi": 32,
      "hit": false,
      "t": 145244.7916666667,
      "d": 244.79166666668607,
      "v": 96
    },
    {
      "midi": 75,
      "hit": false,
      "t": 145494.79166666672,
      "d": 182.29166666671517,
      "v": 113
    },
    {
      "midi": 72,
      "hit": false,
      "t": 145500.00000000006,
      "d": 166.66666666668607,
      "v": 110
    },
    {
      "midi": 66,
      "hit": false,
      "t": 145500.00000000006,
      "d": 171.8750000000291,
      "v": 113
    },
    {
      "midi": 44,
      "hit": false,
      "t": 145505.2083333334,
      "d": 229.16666666668607,
      "v": 114
    },
    {
      "midi": 66,
      "hit": false,
      "t": 145750.0000000001,
      "d": 786.458333333343,
      "v": 110
    },
    {
      "midi": 70,
      "hit": false,
      "t": 145755.20833333343,
      "d": 770.833333333343,
      "v": 116
    },
    {
      "midi": 73,
      "hit": false,
      "t": 145760.41666666677,
      "d": 750,
      "v": 117
    },
    {
      "midi": 39,
      "hit": false,
      "t": 145765.62500000012,
      "d": 796.8749999999709,
      "v": 109
    },
    {
      "midi": 66,
      "hit": false,
      "t": 146755.20833333343,
      "d": 588.5416666666861,
      "v": 119
    },
    {
      "midi": 70,
      "hit": false,
      "t": 146760.41666666677,
      "d": 666.6666666666861,
      "v": 119
    },
    {
      "midi": 73,
      "hit": false,
      "t": 146760.41666666677,
      "d": 687.5000000000291,
      "v": 114
    },
    {
      "midi": 32,
      "hit": false,
      "t": 146765.62500000012,
      "d": 708.333333333343,
      "v": 113
    },
    {
      "midi": 68,
      "hit": false,
      "t": 147494.7916666668,
      "d": 145.83333333331393,
      "v": 95
    },
    {
      "midi": 75,
      "hit": false,
      "t": 147750.00000000012,
      "d": 885.4166666667152,
      "v": 108
    },
    {
      "midi": 68,
      "hit": false,
      "t": 147755.20833333346,
      "d": 848.9583333333721,
      "v": 115
    },
    {
      "midi": 77,
      "hit": false,
      "t": 147760.4166666668,
      "d": 859.3750000000291,
      "v": 113
    },
    {
      "midi": 73,
      "hit": false,
      "t": 147760.4166666668,
      "d": 864.5833333333721,
      "v": 112
    },
    {
      "midi": 37,
      "hit": false,
      "t": 147765.62500000015,
      "d": 859.3750000000291,
      "v": 104
    },
    {
      "midi": 35,
      "hit": false,
      "t": 148755.20833333352,
      "d": 447.91666666665697,
      "v": 110
    },
    {
      "midi": 69,
      "hit": false,
      "t": 148760.41666666686,
      "d": 302.08333333331393,
      "v": 127
    },
    {
      "midi": 78,
      "hit": false,
      "t": 149015.62500000017,
      "d": 197.91666666665697,
      "v": 127
    },
    {
      "midi": 77,
      "hit": false,
      "t": 149255.20833333352,
      "d": 187.5000000000291,
      "v": 127
    },
    {
      "midi": 34,
      "hit": false,
      "t": 149260.41666666686,
      "d": 442.70833333334303,
      "v": 112
    },
    {
      "midi": 68,
      "hit": false,
      "t": 149479.1666666669,
      "d": 182.29166666665697,
      "v": 127
    },
    {
      "midi": 66,
      "hit": false,
      "t": 149734.3750000002,
      "d": 864.5833333334012,
      "v": 120
    },
    {
      "midi": 70,
      "hit": false,
      "t": 149744.7916666669,
      "d": 796.8750000000291,
      "v": 109
    },
    {
      "midi": 73,
      "hit": false,
      "t": 149744.7916666669,
      "d": 854.1666666667152,
      "v": 109
    },
    {
      "midi": 39,
      "hit": false,
      "t": 149750.00000000023,
      "d": 848.9583333333721,
      "v": 101
    },
    {
      "midi": 73,
      "hit": false,
      "t": 150744.79166666692,
      "d": 848.9583333333139,
      "v": 112
    },
    {
      "midi": 66,
      "hit": false,
      "t": 150744.79166666692,
      "d": 864.5833333333139,
      "v": 120
    },
    {
      "midi": 70,
      "hit": false,
      "t": 150750.00000000026,
      "d": 854.1666666666279,
      "v": 115
    },
    {
      "midi": 32,
      "hit": false,
      "t": 150750.00000000026,
      "d": 859.3749999999709,
      "v": 107
    },
    {
      "midi": 68,
      "hit": false,
      "t": 151776.0416666669,
      "d": 171.875,
      "v": 116
    },
    {
      "midi": 33,
      "hit": false,
      "t": 151776.0416666669,
      "d": 187.5,
      "v": 107
    },
    {
      "midi": 77,
      "hit": false,
      "t": 152000.00000000023,
      "d": 171.875,
      "v": 114
    },
    {
      "midi": 73,
      "hit": false,
      "t": 152000.00000000023,
      "d": 192.70833333334303,
      "v": 112
    },
    {
      "midi": 34,
      "hit": false,
      "t": 152000.00000000023,
      "d": 203.125,
      "v": 113
    },
    {
      "midi": 68,
      "hit": false,
      "t": 152000.00000000023,
      "d": 203.125,
      "v": 96
    },
    {
      "midi": 77,
      "hit": false,
      "t": 152250.00000000023,
      "d": 156.25,
      "v": 101
    },
    {
      "midi": 68,
      "hit": false,
      "t": 152250.00000000023,
      "d": 161.45833333334303,
      "v": 107
    },
    {
      "midi": 73,
      "hit": false,
      "t": 152250.00000000023,
      "d": 166.66666666668607,
      "v": 97
    },
    {
      "midi": 34,
      "hit": false,
      "t": 152250.00000000023,
      "d": 177.08333333334303,
      "v": 107
    },
    {
      "midi": 72,
      "hit": false,
      "t": 152500.00000000023,
      "d": 156.25,
      "v": 113
    },
    {
      "midi": 75,
      "hit": false,
      "t": 152500.00000000023,
      "d": 182.29166666665697,
      "v": 115
    },
    {
      "midi": 68,
      "hit": false,
      "t": 152500.00000000023,
      "d": 187.5,
      "v": 110
    },
    {
      "midi": 73,
      "hit": false,
      "t": 153000.00000000023,
      "d": 182.29166666665697,
      "v": 113
    },
    {
      "midi": 70,
      "hit": false,
      "t": 153000.00000000023,
      "d": 192.70833333331393,
      "v": 115
    },
    {
      "midi": 68,
      "hit": false,
      "t": 153000.00000000023,
      "d": 223.95833333331393,
      "v": 116
    },
    {
      "midi": 72,
      "hit": false,
      "t": 153500.0000000002,
      "d": 140.625,
      "v": 116
    },
    {
      "midi": 75,
      "hit": false,
      "t": 153500.0000000002,
      "d": 182.29166666668607,
      "v": 113
    },
    {
      "midi": 68,
      "hit": false,
      "t": 153500.0000000002,
      "d": 203.1250000000291,
      "v": 117
    },
    {
      "midi": 73,
      "hit": false,
      "t": 154000.00000000023,
      "d": 156.25,
      "v": 115
    },
    {
      "midi": 77,
      "hit": false,
      "t": 154000.00000000023,
      "d": 161.45833333334303,
      "v": 114
    },
    {
      "midi": 68,
      "hit": false,
      "t": 154000.00000000023,
      "d": 182.29166666668607,
      "v": 117
    },
    {
      "midi": 34,
      "hit": false,
      "t": 154000.00000000023,
      "d": 187.5000000000291,
      "v": 110
    },
    {
      "midi": 77,
      "hit": false,
      "t": 154250.00000000026,
      "d": 145.83333333334303,
      "v": 99
    },
    {
      "midi": 73,
      "hit": false,
      "t": 154250.00000000026,
      "d": 151.04166666668607,
      "v": 100
    },
    {
      "midi": 34,
      "hit": false,
      "t": 154250.00000000026,
      "d": 177.08333333334303,
      "v": 85
    },
    {
      "midi": 68,
      "hit": false,
      "t": 154250.00000000026,
      "d": 182.29166666668607,
      "v": 83
    },
    {
      "midi": 72,
      "hit": false,
      "t": 154500.0000000003,
      "d": 161.45833333334303,
      "v": 110
    },
    {
      "midi": 75,
      "hit": false,
      "t": 154500.0000000003,
      "d": 177.08333333334303,
      "v": 112
    },
    {
      "midi": 68,
      "hit": false,
      "t": 154500.0000000003,
      "d": 197.91666666668607,
      "v": 98
    },
    {
      "midi": 70,
      "hit": false,
      "t": 154750.00000000032,
      "d": 156.25,
      "v": 112
    },
    {
      "midi": 73,
      "hit": false,
      "t": 154750.00000000032,
      "d": 156.25,
      "v": 108
    },
    {
      "midi": 68,
      "hit": false,
      "t": 154750.00000000032,
      "d": 187.5,
      "v": 98
    },
    {
      "midi": 72,
      "hit": false,
      "t": 155250.00000000032,
      "d": 161.45833333334303,
      "v": 118
    },
    {
      "midi": 68,
      "hit": false,
      "t": 155250.00000000032,
      "d": 187.5,
      "v": 120
    },
    {
      "midi": 75,
      "hit": false,
      "t": 155250.00000000032,
      "d": 197.91666666665697,
      "v": 114
    },
    {
      "midi": 33,
      "hit": false,
      "t": 155500.00000000032,
      "d": 208.33333333334303,
      "v": 113
    },
    {
      "midi": 32,
      "hit": false,
      "t": 155750.00000000032,
      "d": 182.29166666665697,
      "v": 113
    },
    {
      "midi": 31,
      "hit": false,
      "t": 156000.00000000032,
      "d": 192.70833333334303,
      "v": 104
    },
    {
      "midi": 73,
      "hit": false,
      "t": 156000.00000000032,
      "d": 192.70833333334303,
      "v": 113
    },
    {
      "midi": 77,
      "hit": false,
      "t": 156000.00000000032,
      "d": 192.70833333334303,
      "v": 118
    },
    {
      "midi": 67,
      "hit": false,
      "t": 156000.00000000032,
      "d": 208.33333333334303,
      "v": 107
    },
    {
      "midi": 31,
      "hit": false,
      "t": 156250.00000000032,
      "d": 166.66666666665697,
      "v": 100
    },
    {
      "midi": 67,
      "hit": false,
      "t": 156250.00000000032,
      "d": 166.66666666665697,
      "v": 98
    },
    {
      "midi": 73,
      "hit": false,
      "t": 156250.00000000032,
      "d": 177.08333333331393,
      "v": 95
    },
    {
      "midi": 77,
      "hit": false,
      "t": 156250.00000000032,
      "d": 187.4999999999709,
      "v": 99
    },
    {
      "midi": 72,
      "hit": false,
      "t": 156500.0000000003,
      "d": 166.66666666665697,
      "v": 111
    },
    {
      "midi": 75,
      "hit": false,
      "t": 156500.0000000003,
      "d": 182.29166666665697,
      "v": 115
    },
    {
      "midi": 67,
      "hit": false,
      "t": 156500.0000000003,
      "d": 244.79166666665697,
      "v": 92
    },
    {
      "midi": 73,
      "hit": false,
      "t": 157000.0000000003,
      "d": 187.5,
      "v": 114
    },
    {
      "midi": 70,
      "hit": false,
      "t": 157000.0000000003,
      "d": 197.91666666665697,
      "v": 116
    },
    {
      "midi": 67,
      "hit": false,
      "t": 157000.0000000003,
      "d": 203.125,
      "v": 109
    },
    {
      "midi": 72,
      "hit": false,
      "t": 157500.0000000003,
      "d": 135.41666666665697,
      "v": 114
    },
    {
      "midi": 75,
      "hit": false,
      "t": 157500.0000000003,
      "d": 192.70833333331393,
      "v": 116
    },
    {
      "midi": 67,
      "hit": false,
      "t": 157500.0000000003,
      "d": 291.66666666665697,
      "v": 111
    },
    {
      "midi": 73,
      "hit": false,
      "t": 158000.0000000003,
      "d": 192.70833333334303,
      "v": 120
    },
    {
      "midi": 31,
      "hit": false,
      "t": 158000.0000000003,
      "d": 203.125,
      "v": 105
    },
    {
      "midi": 77,
      "hit": false,
      "t": 158000.0000000003,
      "d": 203.125,
      "v": 124
    },
    {
      "midi": 67,
      "hit": false,
      "t": 158000.0000000003,
      "d": 432.29166666668607,
      "v": 116
    },
    {
      "midi": 65,
      "hit": false,
      "t": 158000.0000000003,
      "d": 973.9583333333721,
      "v": 50
    },
    {
      "midi": 73,
      "hit": false,
      "t": 158250.0000000003,
      "d": 166.66666666665697,
      "v": 84
    },
    {
      "midi": 77,
      "hit": false,
      "t": 158250.0000000003,
      "d": 171.875,
      "v": 79
    },
    {
      "midi": 31,
      "hit": false,
      "t": 158250.0000000003,
      "d": 177.08333333334303,
      "v": 100
    },
    {
      "midi": 72,
      "hit": false,
      "t": 158500.00000000032,
      "d": 166.66666666665697,
      "v": 113
    },
    {
      "midi": 75,
      "hit": false,
      "t": 158500.00000000032,
      "d": 177.08333333331393,
      "v": 114
    },
    {
      "midi": 67,
      "hit": false,
      "t": 158500.00000000032,
      "d": 182.29166666665697,
      "v": 90
    },
    {
      "midi": 70,
      "hit": false,
      "t": 158750.00000000032,
      "d": 192.70833333334303,
      "v": 116
    },
    {
      "midi": 73,
      "hit": false,
      "t": 158750.00000000032,
      "d": 197.91666666668607,
      "v": 120
    },
    {
      "midi": 67,
      "hit": false,
      "t": 158750.00000000032,
      "d": 213.54166666668607,
      "v": 105
    },
    {
      "midi": 27,
      "hit": false,
      "t": 159000.00000000032,
      "d": 218.75,
      "v": 112
    },
    {
      "midi": 70,
      "hit": false,
      "t": 159000.00000000032,
      "d": 994.7916666666861,
      "v": 50
    },
    {
      "midi": 28,
      "hit": false,
      "t": 159250.00000000032,
      "d": 218.75,
      "v": 107
    },
    {
      "midi": 29,
      "hit": false,
      "t": 159500.00000000032,
      "d": 411.45833333334303,
      "v": 118
    },
    {
      "midi": 76,
      "hit": false,
      "t": 160000.00000000035,
      "d": 1.3020833333430346,
      "v": 111
    },
    {
      "midi": 85,
      "hit": false,
      "t": 160000.00000000035,
      "d": 161.45833333334303,
      "v": 116
    },
    {
      "midi": 81,
      "hit": false,
      "t": 160000.00000000035,
      "d": 166.66666666668607,
      "v": 111
    },
    {
      "midi": 30,
      "hit": false,
      "t": 160000.00000000035,
      "d": 203.1250000000291,
      "v": 114
    },
    {
      "midi": 76,
      "hit": false,
      "t": 160250.00000000038,
      "d": 171.875,
      "v": 89
    },
    {
      "midi": 81,
      "hit": false,
      "t": 160250.00000000038,
      "d": 171.875,
      "v": 95
    },
    {
      "midi": 30,
      "hit": false,
      "t": 160250.00000000038,
      "d": 192.70833333334303,
      "v": 104
    },
    {
      "midi": 85,
      "hit": false,
      "t": 160250.00000000038,
      "d": 213.54166666668607,
      "v": 98
    },
    {
      "midi": 80,
      "hit": false,
      "t": 160500.0000000004,
      "d": 166.66666666665697,
      "v": 114
    },
    {
      "midi": 83,
      "hit": false,
      "t": 160500.0000000004,
      "d": 177.08333333331393,
      "v": 115
    },
    {
      "midi": 76,
      "hit": false,
      "t": 160500.0000000004,
      "d": 197.91666666665697,
      "v": 103
    },
    {
      "midi": 78,
      "hit": false,
      "t": 161000.0000000004,
      "d": 182.29166666665697,
      "v": 121
    },
    {
      "midi": 76,
      "hit": false,
      "t": 161000.0000000004,
      "d": 187.5,
      "v": 113
    },
    {
      "midi": 81,
      "hit": false,
      "t": 161000.0000000004,
      "d": 223.95833333334303,
      "v": 111
    },
    {
      "midi": 83,
      "hit": false,
      "t": 161500.0000000004,
      "d": 192.70833333334303,
      "v": 111
    },
    {
      "midi": 80,
      "hit": false,
      "t": 161500.0000000004,
      "d": 213.54166666668607,
      "v": 116
    },
    {
      "midi": 76,
      "hit": false,
      "t": 161500.0000000004,
      "d": 286.45833333334303,
      "v": 109
    },
    {
      "midi": 81,
      "hit": false,
      "t": 162000.0000000004,
      "d": 171.875,
      "v": 109
    },
    {
      "midi": 85,
      "hit": false,
      "t": 162000.0000000004,
      "d": 177.08333333334303,
      "v": 117
    },
    {
      "midi": 30,
      "hit": false,
      "t": 162000.0000000004,
      "d": 192.70833333334303,
      "v": 110
    },
    {
      "midi": 76,
      "hit": false,
      "t": 162000.0000000004,
      "d": 432.29166666668607,
      "v": 115
    },
    {
      "midi": 81,
      "hit": false,
      "t": 162250.0000000004,
      "d": 161.45833333334303,
      "v": 79
    },
    {
      "midi": 30,
      "hit": false,
      "t": 162250.0000000004,
      "d": 203.1250000000291,
      "v": 96
    },
    {
      "midi": 85,
      "hit": false,
      "t": 162250.0000000004,
      "d": 203.1250000000291,
      "v": 89
    },
    {
      "midi": 83,
      "hit": false,
      "t": 162500.00000000044,
      "d": 135.41666666665697,
      "v": 104
    },
    {
      "midi": 76,
      "hit": false,
      "t": 162500.00000000044,
      "d": 145.83333333331393,
      "v": 85
    },
    {
      "midi": 80,
      "hit": false,
      "t": 162500.00000000044,
      "d": 166.66666666665697,
      "v": 109
    },
    {
      "midi": 81,
      "hit": false,
      "t": 162750.00000000044,
      "d": 161.45833333334303,
      "v": 111
    },
    {
      "midi": 32,
      "hit": false,
      "t": 162750.00000000044,
      "d": 166.66666666668607,
      "v": 112
    },
    {
      "midi": 85,
      "hit": false,
      "t": 162750.00000000044,
      "d": 187.5000000000291,
      "v": 115
    },
    {
      "midi": 76,
      "hit": false,
      "t": 162750.00000000044,
      "d": 197.91666666668607,
      "v": 104
    },
    {
      "midi": 80,
      "hit": false,
      "t": 163250.00000000047,
      "d": 177.08333333334303,
      "v": 119
    },
    {
      "midi": 83,
      "hit": false,
      "t": 163250.00000000047,
      "d": 182.29166666668607,
      "v": 115
    },
    {
      "midi": 33,
      "hit": false,
      "t": 163250.00000000047,
      "d": 203.1250000000291,
      "v": 109
    },
    {
      "midi": 76,
      "hit": false,
      "t": 163250.00000000047,
      "d": 223.95833333337214,
      "v": 111
    },
    {
      "midi": 34,
      "hit": false,
      "t": 163750.0000000005,
      "d": 187.5,
      "v": 107
    },
    {
      "midi": 85,
      "hit": false,
      "t": 164000.0000000005,
      "d": 1.3020833333430346,
      "v": 108
    },
    {
      "midi": 36,
      "hit": false,
      "t": 164000.0000000005,
      "d": 104.16666666668607,
      "v": 99
    },
    {
      "midi": 76,
      "hit": false,
      "t": 164000.0000000005,
      "d": 145.83333333334303,
      "v": 84
    },
    {
      "midi": 81,
      "hit": false,
      "t": 164000.0000000005,
      "d": 145.83333333334303,
      "v": 98
    },
    {
      "midi": 35,
      "hit": false,
      "t": 164000.0000000005,
      "d": 161.45833333334303,
      "v": 88
    },
    {
      "midi": 76,
      "hit": false,
      "t": 164250.0000000005,
      "d": 140.625,
      "v": 92
    },
    {
      "midi": 81,
      "hit": false,
      "t": 164250.0000000005,
      "d": 140.625,
      "v": 92
    },
    {
      "midi": 35,
      "hit": false,
      "t": 164250.0000000005,
      "d": 177.08333333334303,
      "v": 107
    },
    {
      "midi": 85,
      "hit": false,
      "t": 164250.0000000005,
      "d": 177.08333333334303,
      "v": 101
    },
    {
      "midi": 83,
      "hit": false,
      "t": 164500.0000000005,
      "d": 156.25,
      "v": 109
    },
    {
      "midi": 80,
      "hit": false,
      "t": 164500.0000000005,
      "d": 166.66666666665697,
      "v": 113
    },
    {
      "midi": 76,
      "hit": false,
      "t": 164500.0000000005,
      "d": 203.125,
      "v": 105
    },
    {
      "midi": 78,
      "hit": false,
      "t": 165000.0000000005,
      "d": 161.45833333334303,
      "v": 117
    },
    {
      "midi": 81,
      "hit": false,
      "t": 165000.0000000005,
      "d": 161.45833333334303,
      "v": 108
    },
    {
      "midi": 76,
      "hit": false,
      "t": 165000.0000000005,
      "d": 182.29166666668607,
      "v": 109
    },
    {
      "midi": 83,
      "hit": false,
      "t": 165500.00000000052,
      "d": 177.08333333334303,
      "v": 114
    },
    {
      "midi": 80,
      "hit": false,
      "t": 165500.00000000052,
      "d": 192.70833333334303,
      "v": 116
    },
    {
      "midi": 76,
      "hit": false,
      "t": 165500.00000000052,
      "d": 203.125,
      "v": 109
    },
    {
      "midi": 35,
      "hit": false,
      "t": 166000.00000000052,
      "d": 161.45833333334303,
      "v": 120
    },
    {
      "midi": 81,
      "hit": false,
      "t": 166000.00000000052,
      "d": 182.29166666668607,
      "v": 111
    },
    {
      "midi": 85,
      "hit": false,
      "t": 166000.00000000052,
      "d": 187.5000000000291,
      "v": 116
    },
    {
      "midi": 76,
      "hit": false,
      "t": 166000.00000000052,
      "d": 395.83333333337214,
      "v": 113
    },
    {
      "midi": 81,
      "hit": false,
      "t": 166250.00000000055,
      "d": 156.25,
      "v": 74
    },
    {
      "midi": 35,
      "hit": false,
      "t": 166250.00000000055,
      "d": 197.91666666665697,
      "v": 103
    },
    {
      "midi": 85,
      "hit": false,
      "t": 166250.00000000055,
      "d": 203.125,
      "v": 90
    },
    {
      "midi": 83,
      "hit": false,
      "t": 166500.00000000055,
      "d": 83.33333333334303,
      "v": 92
    },
    {
      "midi": 76,
      "hit": false,
      "t": 166500.00000000055,
      "d": 130.20833333334303,
      "v": 79
    },
    {
      "midi": 80,
      "hit": false,
      "t": 166500.00000000055,
      "d": 161.45833333334303,
      "v": 108
    },
    {
      "midi": 81,
      "hit": false,
      "t": 166750.00000000055,
      "d": 156.25,
      "v": 109
    },
    {
      "midi": 47,
      "hit": false,
      "t": 166750.00000000055,
      "d": 171.875,
      "v": 111
    },
    {
      "midi": 85,
      "hit": false,
      "t": 166750.00000000055,
      "d": 171.875,
      "v": 113
    },
    {
      "midi": 76,
      "hit": false,
      "t": 166750.00000000055,
      "d": 182.29166666665697,
      "v": 104
    },
    {
      "midi": 81,
      "hit": false,
      "t": 167250.00000000055,
      "d": 156.25,
      "v": 111
    },
    {
      "midi": 83,
      "hit": false,
      "t": 167250.00000000055,
      "d": 177.08333333334303,
      "v": 115
    },
    {
      "midi": 76,
      "hit": false,
      "t": 167250.00000000055,
      "d": 187.5,
      "v": 115
    },
    {
      "midi": 47,
      "hit": false,
      "t": 167250.00000000055,
      "d": 223.95833333334303,
      "v": 104
    },
    {
      "midi": 35,
      "hit": false,
      "t": 167750.00000000055,
      "d": 187.5,
      "v": 113
    },
    {
      "midi": 80,
      "hit": false,
      "t": 168000.00000000055,
      "d": 171.875,
      "v": 114
    },
    {
      "midi": 76,
      "hit": false,
      "t": 168000.00000000055,
      "d": 187.5,
      "v": 107
    },
    {
      "midi": 40,
      "hit": false,
      "t": 168000.00000000055,
      "d": 192.70833333334303,
      "v": 115
    },
    {
      "midi": 83,
      "hit": false,
      "t": 168000.00000000055,
      "d": 192.70833333334303,
      "v": 113
    },
    {
      "midi": 71,
      "hit": false,
      "t": 168250.00000000055,
      "d": 41.666666666656965,
      "v": 80
    },
    {
      "midi": 80,
      "hit": false,
      "t": 168250.00000000055,
      "d": 151.04166666665697,
      "v": 96
    },
    {
      "midi": 76,
      "hit": false,
      "t": 168250.00000000055,
      "d": 156.25,
      "v": 87
    },
    {
      "midi": 40,
      "hit": false,
      "t": 168250.00000000055,
      "d": 171.875,
      "v": 107
    },
    {
      "midi": 83,
      "hit": false,
      "t": 168250.00000000055,
      "d": 171.875,
      "v": 105
    },
    {
      "midi": 81,
      "hit": false,
      "t": 168500.00000000055,
      "d": 140.625,
      "v": 105
    },
    {
      "midi": 78,
      "hit": false,
      "t": 168500.00000000055,
      "d": 171.875,
      "v": 113
    },
    {
      "midi": 76,
      "hit": false,
      "t": 168500.00000000055,
      "d": 177.08333333334303,
      "v": 99
    },
    {
      "midi": 71,
      "hit": false,
      "t": 168750.00000000055,
      "d": 36.458333333343035,
      "v": 80
    },
    {
      "midi": 80,
      "hit": false,
      "t": 169000.00000000055,
      "d": 177.08333333334303,
      "v": 121
    },
    {
      "midi": 76,
      "hit": false,
      "t": 169000.00000000055,
      "d": 333.33333333331393,
      "v": 110
    },
    {
      "midi": 71,
      "hit": false,
      "t": 169250.00000000055,
      "d": 41.666666666656965,
      "v": 80
    },
    {
      "midi": 76,
      "hit": false,
      "t": 169500.00000000052,
      "d": 151.04166666665697,
      "v": 105
    },
    {
      "midi": 78,
      "hit": false,
      "t": 169500.00000000052,
      "d": 192.70833333331393,
      "v": 124
    },
    {
      "midi": 71,
      "hit": false,
      "t": 169750.0000000005,
      "d": 41.666666666656965,
      "v": 80
    },
    {
      "midi": 80,
      "hit": false,
      "t": 170000.0000000005,
      "d": 156.25,
      "v": 122
    },
    {
      "midi": 40,
      "hit": false,
      "t": 170000.0000000005,
      "d": 182.29166666665697,
      "v": 116
    },
    {
      "midi": 76,
      "hit": false,
      "t": 170000.0000000005,
      "d": 197.91666666665697,
      "v": 114
    },
    {
      "midi": 71,
      "hit": false,
      "t": 170250.0000000005,
      "d": 52.083333333343035,
      "v": 80
    },
    {
      "midi": 76,
      "hit": false,
      "t": 170250.0000000005,
      "d": 177.08333333334303,
      "v": 85
    },
    {
      "midi": 80,
      "hit": false,
      "t": 170250.0000000005,
      "d": 192.70833333334303,
      "v": 100
    },
    {
      "midi": 40,
      "hit": false,
      "t": 170250.0000000005,
      "d": 239.58333333334303,
      "v": 97
    },
    {
      "midi": 76,
      "hit": false,
      "t": 170500.0000000005,
      "d": 140.625,
      "v": 93
    },
    {
      "midi": 78,
      "hit": false,
      "t": 170500.0000000005,
      "d": 187.5,
      "v": 114
    },
    {
      "midi": 71,
      "hit": false,
      "t": 170750.0000000005,
      "d": 62.5,
      "v": 80
    },
    {
      "midi": 80,
      "hit": false,
      "t": 170750.0000000005,
      "d": 161.45833333334303,
      "v": 119
    },
    {
      "midi": 76,
      "hit": false,
      "t": 170750.0000000005,
      "d": 203.125,
      "v": 105
    },
    {
      "midi": 71,
      "hit": false,
      "t": 171250.0000000005,
      "d": 72.91666666665697,
      "v": 80
    },
    {
      "midi": 39,
      "hit": false,
      "t": 171250.0000000005,
      "d": 166.66666666665697,
      "v": 108
    },
    {
      "midi": 78,
      "hit": false,
      "t": 171250.0000000005,
      "d": 197.91666666665697,
      "v": 121
    },
    {
      "midi": 76,
      "hit": false,
      "t": 171250.0000000005,
      "d": 229.16666666665697,
      "v": 109
    },
    {
      "midi": 71,
      "hit": false,
      "t": 171750.0000000005,
      "d": 57.291666666656965,
      "v": 80
    },
    {
      "midi": 80,
      "hit": false,
      "t": 171750.0000000005,
      "d": 166.66666666665697,
      "v": 117
    },
    {
      "midi": 39,
      "hit": false,
      "t": 171750.0000000005,
      "d": 187.5,
      "v": 108
    },
    {
      "midi": 76,
      "hit": false,
      "t": 171750.0000000005,
      "d": 192.70833333334303,
      "v": 111
    },
    {
      "midi": 76,
      "hit": false,
      "t": 172000.0000000005,
      "d": 1.3020833333430346,
      "v": 92
    },
    {
      "midi": 80,
      "hit": false,
      "t": 172000.0000000005,
      "d": 130.20833333334303,
      "v": 99
    },
    {
      "midi": 37,
      "hit": false,
      "t": 172000.0000000005,
      "d": 135.41666666668607,
      "v": 112
    },
    {
      "midi": 83,
      "hit": false,
      "t": 172000.0000000005,
      "d": 140.6250000000291,
      "v": 99
    },
    {
      "midi": 76,
      "hit": false,
      "t": 172250.00000000052,
      "d": 125,
      "v": 98
    },
    {
      "midi": 80,
      "hit": false,
      "t": 172250.00000000052,
      "d": 135.41666666665697,
      "v": 108
    },
    {
      "midi": 37,
      "hit": false,
      "t": 172250.00000000052,
      "d": 145.83333333331393,
      "v": 112
    },
    {
      "midi": 83,
      "hit": false,
      "t": 172250.00000000052,
      "d": 151.04166666665697,
      "v": 105
    },
    {
      "midi": 76,
      "hit": false,
      "t": 172500.00000000052,
      "d": 171.875,
      "v": 108
    },
    {
      "midi": 78,
      "hit": false,
      "t": 172500.00000000052,
      "d": 171.875,
      "v": 119
    },
    {
      "midi": 81,
      "hit": false,
      "t": 172500.00000000052,
      "d": 187.5,
      "v": 110
    },
    {
      "midi": 80,
      "hit": false,
      "t": 173000.00000000052,
      "d": 187.5,
      "v": 121
    },
    {
      "midi": 76,
      "hit": false,
      "t": 173000.00000000052,
      "d": 203.125,
      "v": 114
    },
    {
      "midi": 80,
      "hit": false,
      "t": 173250.00000000052,
      "d": 161.45833333334303,
      "v": 110
    },
    {
      "midi": 76,
      "hit": false,
      "t": 173250.00000000052,
      "d": 187.5,
      "v": 99
    },
    {
      "midi": 78,
      "hit": false,
      "t": 173500.00000000052,
      "d": 192.70833333334303,
      "v": 120
    },
    {
      "midi": 37,
      "hit": false,
      "t": 174000.00000000052,
      "d": 187.5,
      "v": 114
    },
    {
      "midi": 80,
      "hit": false,
      "t": 174000.00000000052,
      "d": 197.91666666665697,
      "v": 120
    },
    {
      "midi": 76,
      "hit": false,
      "t": 174000.00000000052,
      "d": 369.79166666665697,
      "v": 111
    },
    {
      "midi": 81,
      "hit": false,
      "t": 174250.00000000052,
      "d": 161.45833333331393,
      "v": 92
    },
    {
      "midi": 35,
      "hit": false,
      "t": 174250.00000000052,
      "d": 177.08333333331393,
      "v": 108
    },
    {
      "midi": 83,
      "hit": false,
      "t": 174500.0000000005,
      "d": 151.04166666665697,
      "v": 114
    },
    {
      "midi": 34,
      "hit": false,
      "t": 174500.0000000005,
      "d": 161.45833333331393,
      "v": 114
    },
    {
      "midi": 76,
      "hit": false,
      "t": 174500.0000000005,
      "d": 171.8749999999709,
      "v": 100
    },
    {
      "midi": 85,
      "hit": false,
      "t": 174750.00000000047,
      "d": 161.45833333334303,
      "v": 121
    },
    {
      "midi": 33,
      "hit": false,
      "t": 174750.00000000047,
      "d": 177.08333333334303,
      "v": 109
    },
    {
      "midi": 76,
      "hit": false,
      "t": 174750.00000000047,
      "d": 203.125,
      "v": 95
    },
    {
      "midi": 80,
      "hit": false,
      "t": 175250.00000000047,
      "d": 166.66666666665697,
      "v": 119
    },
    {
      "midi": 83,
      "hit": false,
      "t": 175250.00000000047,
      "d": 192.70833333331393,
      "v": 116
    },
    {
      "midi": 32,
      "hit": false,
      "t": 175250.00000000047,
      "d": 203.1249999999709,
      "v": 107
    },
    {
      "midi": 76,
      "hit": false,
      "t": 175250.00000000047,
      "d": 229.16666666662786,
      "v": 110
    },
    {
      "midi": 32,
      "hit": false,
      "t": 175750.00000000044,
      "d": 197.91666666665697,
      "v": 108
    },
    {
      "midi": 76,
      "hit": false,
      "t": 176000.00000000044,
      "d": 161.45833333334303,
      "v": 104
    },
    {
      "midi": 85,
      "hit": false,
      "t": 176000.00000000044,
      "d": 161.45833333334303,
      "v": 114
    },
    {
      "midi": 81,
      "hit": false,
      "t": 176000.00000000044,
      "d": 171.875,
      "v": 109
    },
    {
      "midi": 30,
      "hit": false,
      "t": 176000.00000000044,
      "d": 192.70833333334303,
      "v": 109
    },
    {
      "midi": 81,
      "hit": false,
      "t": 176250.00000000044,
      "d": 145.83333333334303,
      "v": 87
    },
    {
      "midi": 76,
      "hit": false,
      "t": 176250.00000000044,
      "d": 156.25,
      "v": 82
    },
    {
      "midi": 30,
      "hit": false,
      "t": 176250.00000000044,
      "d": 171.875,
      "v": 98
    },
    {
      "midi": 85,
      "hit": false,
      "t": 176250.00000000044,
      "d": 182.29166666665697,
      "v": 90
    },
    {
      "midi": 83,
      "hit": false,
      "t": 176500.00000000044,
      "d": 177.08333333334303,
      "v": 111
    },
    {
      "midi": 76,
      "hit": false,
      "t": 176500.00000000044,
      "d": 187.5,
      "v": 102
    },
    {
      "midi": 80,
      "hit": false,
      "t": 176500.00000000044,
      "d": 187.5,
      "v": 113
    },
    {
      "midi": 81,
      "hit": false,
      "t": 177000.00000000044,
      "d": 197.91666666665697,
      "v": 113
    },
    {
      "midi": 85,
      "hit": false,
      "t": 177000.00000000044,
      "d": 208.33333333331393,
      "v": 115
    },
    {
      "midi": 76,
      "hit": false,
      "t": 177000.00000000044,
      "d": 229.16666666665697,
      "v": 114
    },
    {
      "midi": 80,
      "hit": false,
      "t": 177500.00000000044,
      "d": 182.29166666665697,
      "v": 121
    },
    {
      "midi": 83,
      "hit": false,
      "t": 177500.00000000044,
      "d": 192.70833333331393,
      "v": 115
    },
    {
      "midi": 76,
      "hit": false,
      "t": 177500.00000000044,
      "d": 213.54166666665697,
      "v": 113
    },
    {
      "midi": 30,
      "hit": false,
      "t": 178000.00000000044,
      "d": 177.08333333334303,
      "v": 109
    },
    {
      "midi": 85,
      "hit": false,
      "t": 178000.00000000044,
      "d": 182.29166666668607,
      "v": 117
    },
    {
      "midi": 81,
      "hit": false,
      "t": 178000.00000000044,
      "d": 187.5000000000291,
      "v": 114
    },
    {
      "midi": 76,
      "hit": false,
      "t": 178000.00000000044,
      "d": 197.91666666668607,
      "v": 113
    },
    {
      "midi": 81,
      "hit": false,
      "t": 178250.00000000047,
      "d": 156.25,
      "v": 79
    },
    {
      "midi": 76,
      "hit": false,
      "t": 178250.00000000047,
      "d": 161.45833333334303,
      "v": 80
    },
    {
      "midi": 30,
      "hit": false,
      "t": 178250.00000000047,
      "d": 177.08333333334303,
      "v": 99
    },
    {
      "midi": 85,
      "hit": false,
      "t": 178250.00000000047,
      "d": 197.91666666668607,
      "v": 86
    },
    {
      "midi": 76,
      "hit": false,
      "t": 178500.0000000005,
      "d": 161.45833333334303,
      "v": 90
    },
    {
      "midi": 83,
      "hit": false,
      "t": 178500.0000000005,
      "d": 161.45833333334303,
      "v": 105
    },
    {
      "midi": 80,
      "hit": false,
      "t": 178500.0000000005,
      "d": 166.66666666668607,
      "v": 107
    },
    {
      "midi": 32,
      "hit": false,
      "t": 178750.00000000052,
      "d": 187.5,
      "v": 112
    },
    {
      "midi": 81,
      "hit": false,
      "t": 178750.00000000052,
      "d": 187.5,
      "v": 110
    },
    {
      "midi": 85,
      "hit": false,
      "t": 178750.00000000052,
      "d": 187.5,
      "v": 115
    },
    {
      "midi": 76,
      "hit": false,
      "t": 178750.00000000052,
      "d": 250,
      "v": 100
    },
    {
      "midi": 80,
      "hit": false,
      "t": 179250.00000000052,
      "d": 156.25,
      "v": 119
    },
    {
      "midi": 33,
      "hit": false,
      "t": 179250.00000000052,
      "d": 187.5,
      "v": 113
    },
    {
      "midi": 83,
      "hit": false,
      "t": 179250.00000000052,
      "d": 197.91666666665697,
      "v": 115
    },
    {
      "midi": 76,
      "hit": false,
      "t": 179250.00000000052,
      "d": 234.375,
      "v": 114
    },
    {
      "midi": 34,
      "hit": false,
      "t": 179750.00000000052,
      "d": 192.70833333334303,
      "v": 108
    },
    {
      "midi": 76,
      "hit": false,
      "t": 180000.00000000052,
      "d": 140.625,
      "v": 93
    },
    {
      "midi": 81,
      "hit": false,
      "t": 180000.00000000052,
      "d": 145.83333333334303,
      "v": 102
    },
    {
      "midi": 85,
      "hit": false,
      "t": 180000.00000000052,
      "d": 166.66666666668607,
      "v": 108
    },
    {
      "midi": 35,
      "hit": false,
      "t": 180000.00000000052,
      "d": 182.29166666668607,
      "v": 107
    },
    {
      "midi": 81,
      "hit": false,
      "t": 180250.00000000055,
      "d": 140.625,
      "v": 96
    },
    {
      "midi": 76,
      "hit": false,
      "t": 180250.00000000055,
      "d": 151.04166666665697,
      "v": 90
    },
    {
      "midi": 35,
      "hit": false,
      "t": 180250.00000000055,
      "d": 156.25,
      "v": 102
    },
    {
      "midi": 85,
      "hit": false,
      "t": 180250.00000000055,
      "d": 177.08333333334303,
      "v": 98
    },
    {
      "midi": 76,
      "hit": false,
      "t": 180500.00000000055,
      "d": 140.625,
      "v": 105
    },
    {
      "midi": 83,
      "hit": false,
      "t": 180500.00000000055,
      "d": 140.625,
      "v": 111
    },
    {
      "midi": 80,
      "hit": false,
      "t": 180500.00000000055,
      "d": 151.04166666665697,
      "v": 114
    },
    {
      "midi": 81,
      "hit": false,
      "t": 180750.00000000055,
      "d": 57.291666666656965,
      "v": 39
    },
    {
      "midi": 78,
      "hit": false,
      "t": 181000.00000000055,
      "d": 161.45833333334303,
      "v": 119
    },
    {
      "midi": 76,
      "hit": false,
      "t": 181000.00000000055,
      "d": 177.08333333334303,
      "v": 108
    },
    {
      "midi": 81,
      "hit": false,
      "t": 181000.00000000055,
      "d": 187.5,
      "v": 110
    },
    {
      "midi": 80,
      "hit": false,
      "t": 181500.00000000055,
      "d": 171.875,
      "v": 121
    },
    {
      "midi": 83,
      "hit": false,
      "t": 181500.00000000055,
      "d": 177.08333333334303,
      "v": 115
    },
    {
      "midi": 76,
      "hit": false,
      "t": 181500.00000000055,
      "d": 192.70833333334303,
      "v": 116
    },
    {
      "midi": 35,
      "hit": false,
      "t": 182000.00000000055,
      "d": 151.04166666665697,
      "v": 119
    },
    {
      "midi": 85,
      "hit": false,
      "t": 182000.00000000055,
      "d": 166.66666666665697,
      "v": 116
    },
    {
      "midi": 81,
      "hit": false,
      "t": 182000.00000000055,
      "d": 171.875,
      "v": 111
    },
    {
      "midi": 76,
      "hit": false,
      "t": 182000.00000000055,
      "d": 203.125,
      "v": 113
    },
    {
      "midi": 81,
      "hit": false,
      "t": 182250.00000000055,
      "d": 151.04166666665697,
      "v": 74
    },
    {
      "midi": 76,
      "hit": false,
      "t": 182250.00000000055,
      "d": 171.875,
      "v": 74
    },
    {
      "midi": 35,
      "hit": false,
      "t": 182250.00000000055,
      "d": 182.29166666665697,
      "v": 105
    },
    {
      "midi": 85,
      "hit": false,
      "t": 182250.00000000055,
      "d": 213.54166666665697,
      "v": 89
    },
    {
      "midi": 76,
      "hit": false,
      "t": 182500.00000000055,
      "d": 119.79166666665697,
      "v": 82
    },
    {
      "midi": 83,
      "hit": false,
      "t": 182500.00000000055,
      "d": 135.41666666665697,
      "v": 96
    },
    {
      "midi": 80,
      "hit": false,
      "t": 182500.00000000055,
      "d": 151.04166666665697,
      "v": 102
    },
    {
      "midi": 81,
      "hit": false,
      "t": 182750.00000000055,
      "d": 151.04166666665697,
      "v": 111
    },
    {
      "midi": 76,
      "hit": false,
      "t": 182750.00000000055,
      "d": 161.45833333331393,
      "v": 101
    },
    {
      "midi": 85,
      "hit": false,
      "t": 182750.00000000055,
      "d": 166.66666666665697,
      "v": 114
    },
    {
      "midi": 47,
      "hit": false,
      "t": 182750.00000000055,
      "d": 171.875,
      "v": 110
    },
    {
      "midi": 81,
      "hit": false,
      "t": 183250.00000000055,
      "d": 161.45833333334303,
      "v": 111
    },
    {
      "midi": 83,
      "hit": false,
      "t": 183250.00000000055,
      "d": 192.70833333334303,
      "v": 113
    },
    {
      "midi": 47,
      "hit": false,
      "t": 183250.00000000055,
      "d": 203.125,
      "v": 107
    },
    {
      "midi": 76,
      "hit": false,
      "t": 183250.00000000055,
      "d": 234.375,
      "v": 113
    },
    {
      "midi": 35,
      "hit": false,
      "t": 183750.00000000055,
      "d": 156.25,
      "v": 105
    },
    {
      "midi": 33,
      "hit": false,
      "t": 183750.00000000055,
      "d": 166.66666666665697,
      "v": 91
    },
    {
      "midi": 80,
      "hit": false,
      "t": 184000.00000000055,
      "d": 166.66666666665697,
      "v": 116
    },
    {
      "midi": 83,
      "hit": false,
      "t": 184000.00000000055,
      "d": 177.08333333331393,
      "v": 111
    },
    {
      "midi": 76,
      "hit": false,
      "t": 184000.00000000055,
      "d": 182.29166666665697,
      "v": 111
    },
    {
      "midi": 40,
      "hit": false,
      "t": 184000.00000000055,
      "d": 197.91666666665697,
      "v": 113
    },
    {
      "midi": 71,
      "hit": false,
      "t": 184250.00000000055,
      "d": 57.291666666656965,
      "v": 80
    },
    {
      "midi": 80,
      "hit": false,
      "t": 184250.00000000055,
      "d": 145.83333333331393,
      "v": 99
    },
    {
      "midi": 76,
      "hit": false,
      "t": 184250.00000000055,
      "d": 156.2499999999709,
      "v": 84
    },
    {
      "midi": 40,
      "hit": false,
      "t": 184250.00000000055,
      "d": 161.45833333331393,
      "v": 105
    },
    {
      "midi": 83,
      "hit": false,
      "t": 184250.00000000055,
      "d": 161.45833333331393,
      "v": 103
    },
    {
      "midi": 78,
      "hit": false,
      "t": 184500.00000000052,
      "d": 171.875,
      "v": 112
    },
    {
      "midi": 81,
      "hit": false,
      "t": 184500.00000000052,
      "d": 171.875,
      "v": 108
    },
    {
      "midi": 76,
      "hit": false,
      "t": 184500.00000000052,
      "d": 177.08333333334303,
      "v": 100
    },
    {
      "midi": 71,
      "hit": false,
      "t": 184750.00000000052,
      "d": 46.875,
      "v": 80
    },
    {
      "midi": 80,
      "hit": false,
      "t": 185000.00000000052,
      "d": 166.66666666665697,
      "v": 125
    },
    {
      "midi": 76,
      "hit": false,
      "t": 185000.00000000052,
      "d": 296.875,
      "v": 111
    },
    {
      "midi": 71,
      "hit": false,
      "t": 185250.00000000052,
      "d": 46.875,
      "v": 80
    },
    {
      "midi": 78,
      "hit": false,
      "t": 185500.00000000052,
      "d": 192.70833333334303,
      "v": 124
    },
    {
      "midi": 71,
      "hit": false,
      "t": 185750.00000000052,
      "d": 57.291666666656965,
      "v": 80
    },
    {
      "midi": 80,
      "hit": false,
      "t": 186005.20833333384,
      "d": 182.29166666665697,
      "v": 120
    },
    {
      "midi": 76,
      "hit": false,
      "t": 186010.41666666718,
      "d": 203.125,
      "v": 111
    },
    {
      "midi": 40,
      "hit": false,
      "t": 186020.83333333384,
      "d": 171.875,
      "v": 111
    },
    {
      "midi": 71,
      "hit": false,
      "t": 186250.00000000052,
      "d": 57.29166666668607,
      "v": 80
    },
    {
      "midi": 40,
      "hit": false,
      "t": 186250.00000000052,
      "d": 171.8750000000291,
      "v": 101
    },
    {
      "midi": 76,
      "hit": false,
      "t": 186255.20833333387,
      "d": 375.0000000000291,
      "v": 71
    },
    {
      "midi": 80,
      "hit": false,
      "t": 186260.4166666672,
      "d": 177.08333333334303,
      "v": 103
    },
    {
      "midi": 78,
      "hit": false,
      "t": 186484.37500000055,
      "d": 203.125,
      "v": 115
    },
    {
      "midi": 76,
      "hit": false,
      "t": 186739.5833333339,
      "d": 182.29166666671517,
      "v": 105
    },
    {
      "midi": 80,
      "hit": false,
      "t": 186744.79166666724,
      "d": 171.8750000000291,
      "v": 119
    },
    {
      "midi": 71,
      "hit": false,
      "t": 186750.00000000058,
      "d": 67.70833333334303,
      "v": 80
    },
    {
      "midi": 71,
      "hit": false,
      "t": 187250.0000000006,
      "d": 78.125,
      "v": 80
    },
    {
      "midi": 39,
      "hit": false,
      "t": 187265.6250000006,
      "d": 177.08333333334303,
      "v": 114
    },
    {
      "midi": 78,
      "hit": false,
      "t": 187265.6250000006,
      "d": 177.08333333334303,
      "v": 124
    },
    {
      "midi": 76,
      "hit": false,
      "t": 187270.83333333395,
      "d": 156.25,
      "v": 107
    },
    {
      "midi": 80,
      "hit": false,
      "t": 187770.83333333395,
      "d": 161.45833333334303,
      "v": 119
    },
    {
      "midi": 76,
      "hit": false,
      "t": 187770.83333333395,
      "d": 171.875,
      "v": 109
    },
    {
      "midi": 39,
      "hit": false,
      "t": 187770.83333333395,
      "d": 177.08333333334303,
      "v": 110
    },
    {
      "midi": 76,
      "hit": false,
      "t": 187994.7916666673,
      "d": 5.208333333343035,
      "v": 95
    },
    {
      "midi": 37,
      "hit": false,
      "t": 187994.7916666673,
      "d": 145.83333333337214,
      "v": 115
    },
    {
      "midi": 76,
      "hit": false,
      "t": 188000.00000000064,
      "d": 135.41666666668607,
      "v": 50
    },
    {
      "midi": 80,
      "hit": false,
      "t": 188005.20833333398,
      "d": 140.6250000000291,
      "v": 96
    },
    {
      "midi": 83,
      "hit": false,
      "t": 188010.41666666733,
      "d": 151.04166666668607,
      "v": 105
    },
    {
      "midi": 83,
      "hit": false,
      "t": 188234.37500000067,
      "d": 161.45833333337214,
      "v": 105
    },
    {
      "midi": 80,
      "hit": false,
      "t": 188239.583333334,
      "d": 135.41666666668607,
      "v": 107
    },
    {
      "midi": 76,
      "hit": false,
      "t": 188239.583333334,
      "d": 140.6250000000291,
      "v": 101
    },
    {
      "midi": 37,
      "hit": false,
      "t": 188244.79166666736,
      "d": 145.83333333334303,
      "v": 114
    },
    {
      "midi": 81,
      "hit": false,
      "t": 188484.3750000007,
      "d": 166.66666666665697,
      "v": 113
    },
    {
      "midi": 78,
      "hit": false,
      "t": 188489.58333333404,
      "d": 151.04166666665697,
      "v": 120
    },
    {
      "midi": 76,
      "hit": false,
      "t": 188489.58333333404,
      "d": 182.29166666665697,
      "v": 110
    },
    {
      "midi": 80,
      "hit": false,
      "t": 188984.3750000007,
      "d": 192.70833333334303,
      "v": 122
    },
    {
      "midi": 76,
      "hit": false,
      "t": 188984.3750000007,
      "d": 218.75,
      "v": 115
    },
    {
      "midi": 78,
      "hit": false,
      "t": 189505.20833333404,
      "d": 192.70833333334303,
      "v": 124
    },
    {
      "midi": 76,
      "hit": false,
      "t": 189750.00000000073,
      "d": 140.625,
      "v": 90
    },
    {
      "midi": 37,
      "hit": false,
      "t": 190000.00000000073,
      "d": 187.5,
      "v": 114
    },
    {
      "midi": 80,
      "hit": false,
      "t": 190000.00000000073,
      "d": 197.91666666665697,
      "v": 120
    },
    {
      "midi": 76,
      "hit": false,
      "t": 190000.00000000073,
      "d": 369.79166666665697,
      "v": 111
    },
    {
      "midi": 81,
      "hit": false,
      "t": 190250.00000000073,
      "d": 161.45833333331393,
      "v": 92
    },
    {
      "midi": 35,
      "hit": false,
      "t": 190250.00000000073,
      "d": 177.08333333331393,
      "v": 108
    },
    {
      "midi": 83,
      "hit": false,
      "t": 190500.0000000007,
      "d": 151.04166666665697,
      "v": 114
    },
    {
      "midi": 34,
      "hit": false,
      "t": 190500.0000000007,
      "d": 161.45833333331393,
      "v": 114
    },
    {
      "midi": 76,
      "hit": false,
      "t": 190500.0000000007,
      "d": 171.8749999999709,
      "v": 100
    },
    {
      "midi": 85,
      "hit": false,
      "t": 190750.00000000067,
      "d": 161.45833333334303,
      "v": 121
    },
    {
      "midi": 33,
      "hit": false,
      "t": 190750.00000000067,
      "d": 177.08333333334303,
      "v": 109
    },
    {
      "midi": 76,
      "hit": false,
      "t": 190750.00000000067,
      "d": 203.125,
      "v": 95
    },
    {
      "midi": 80,
      "hit": false,
      "t": 191250.00000000067,
      "d": 166.66666666665697,
      "v": 119
    },
    {
      "midi": 83,
      "hit": false,
      "t": 191250.00000000067,
      "d": 192.70833333331393,
      "v": 116
    },
    {
      "midi": 32,
      "hit": false,
      "t": 191250.00000000067,
      "d": 203.1249999999709,
      "v": 107
    },
    {
      "midi": 76,
      "hit": false,
      "t": 191250.00000000067,
      "d": 229.16666666662786,
      "v": 110
    },
    {
      "midi": 32,
      "hit": false,
      "t": 191750.00000000064,
      "d": 197.91666666665697,
      "v": 108
    },
    {
      "midi": 76,
      "hit": false,
      "t": 192000.00000000064,
      "d": 161.45833333334303,
      "v": 104
    },
    {
      "midi": 85,
      "hit": false,
      "t": 192000.00000000064,
      "d": 161.45833333334303,
      "v": 114
    },
    {
      "midi": 81,
      "hit": false,
      "t": 192000.00000000064,
      "d": 171.875,
      "v": 109
    },
    {
      "midi": 30,
      "hit": false,
      "t": 192000.00000000064,
      "d": 192.70833333334303,
      "v": 109
    },
    {
      "midi": 81,
      "hit": false,
      "t": 192250.00000000064,
      "d": 145.83333333334303,
      "v": 87
    },
    {
      "midi": 76,
      "hit": false,
      "t": 192250.00000000064,
      "d": 156.25,
      "v": 82
    },
    {
      "midi": 30,
      "hit": false,
      "t": 192250.00000000064,
      "d": 171.875,
      "v": 98
    },
    {
      "midi": 85,
      "hit": false,
      "t": 192250.00000000064,
      "d": 182.29166666665697,
      "v": 90
    },
    {
      "midi": 83,
      "hit": false,
      "t": 192500.00000000064,
      "d": 177.08333333334303,
      "v": 111
    },
    {
      "midi": 76,
      "hit": false,
      "t": 192500.00000000064,
      "d": 187.5,
      "v": 102
    },
    {
      "midi": 80,
      "hit": false,
      "t": 192500.00000000064,
      "d": 187.5,
      "v": 113
    },
    {
      "midi": 81,
      "hit": false,
      "t": 193000.00000000064,
      "d": 197.91666666665697,
      "v": 113
    },
    {
      "midi": 85,
      "hit": false,
      "t": 193000.00000000064,
      "d": 208.33333333331393,
      "v": 115
    },
    {
      "midi": 76,
      "hit": false,
      "t": 193000.00000000064,
      "d": 229.16666666665697,
      "v": 114
    },
    {
      "midi": 80,
      "hit": false,
      "t": 193500.00000000064,
      "d": 182.29166666665697,
      "v": 121
    },
    {
      "midi": 83,
      "hit": false,
      "t": 193500.00000000064,
      "d": 192.70833333331393,
      "v": 115
    },
    {
      "midi": 76,
      "hit": false,
      "t": 193500.00000000064,
      "d": 213.54166666665697,
      "v": 113
    },
    {
      "midi": 30,
      "hit": false,
      "t": 194000.00000000064,
      "d": 177.08333333334303,
      "v": 109
    },
    {
      "midi": 85,
      "hit": false,
      "t": 194000.00000000064,
      "d": 182.29166666668607,
      "v": 117
    },
    {
      "midi": 81,
      "hit": false,
      "t": 194000.00000000064,
      "d": 187.5000000000291,
      "v": 114
    },
    {
      "midi": 76,
      "hit": false,
      "t": 194000.00000000064,
      "d": 197.91666666668607,
      "v": 113
    },
    {
      "midi": 81,
      "hit": false,
      "t": 194250.00000000067,
      "d": 156.25,
      "v": 79
    },
    {
      "midi": 76,
      "hit": false,
      "t": 194250.00000000067,
      "d": 161.45833333334303,
      "v": 80
    },
    {
      "midi": 30,
      "hit": false,
      "t": 194250.00000000067,
      "d": 177.08333333334303,
      "v": 99
    },
    {
      "midi": 85,
      "hit": false,
      "t": 194250.00000000067,
      "d": 197.91666666668607,
      "v": 86
    },
    {
      "midi": 76,
      "hit": false,
      "t": 194500.0000000007,
      "d": 161.45833333334303,
      "v": 90
    },
    {
      "midi": 83,
      "hit": false,
      "t": 194500.0000000007,
      "d": 161.45833333334303,
      "v": 105
    },
    {
      "midi": 80,
      "hit": false,
      "t": 194500.0000000007,
      "d": 166.66666666668607,
      "v": 107
    },
    {
      "midi": 32,
      "hit": false,
      "t": 194750.00000000073,
      "d": 187.5,
      "v": 112
    },
    {
      "midi": 81,
      "hit": false,
      "t": 194750.00000000073,
      "d": 187.5,
      "v": 110
    },
    {
      "midi": 85,
      "hit": false,
      "t": 194750.00000000073,
      "d": 187.5,
      "v": 115
    },
    {
      "midi": 76,
      "hit": false,
      "t": 194750.00000000073,
      "d": 250,
      "v": 100
    },
    {
      "midi": 80,
      "hit": false,
      "t": 195250.00000000073,
      "d": 156.25,
      "v": 119
    },
    {
      "midi": 33,
      "hit": false,
      "t": 195250.00000000073,
      "d": 187.5,
      "v": 113
    },
    {
      "midi": 83,
      "hit": false,
      "t": 195250.00000000073,
      "d": 197.91666666665697,
      "v": 115
    },
    {
      "midi": 76,
      "hit": false,
      "t": 195250.00000000073,
      "d": 234.375,
      "v": 114
    },
    {
      "midi": 34,
      "hit": false,
      "t": 195750.00000000073,
      "d": 192.70833333334303,
      "v": 108
    },
    {
      "midi": 76,
      "hit": false,
      "t": 196000.00000000073,
      "d": 140.625,
      "v": 93
    },
    {
      "midi": 81,
      "hit": false,
      "t": 196000.00000000073,
      "d": 145.83333333334303,
      "v": 102
    },
    {
      "midi": 85,
      "hit": false,
      "t": 196000.00000000073,
      "d": 166.66666666668607,
      "v": 108
    },
    {
      "midi": 35,
      "hit": false,
      "t": 196000.00000000073,
      "d": 182.29166666668607,
      "v": 107
    },
    {
      "midi": 81,
      "hit": false,
      "t": 196250.00000000076,
      "d": 140.625,
      "v": 96
    },
    {
      "midi": 76,
      "hit": false,
      "t": 196250.00000000076,
      "d": 151.04166666665697,
      "v": 90
    },
    {
      "midi": 35,
      "hit": false,
      "t": 196250.00000000076,
      "d": 156.25,
      "v": 102
    },
    {
      "midi": 85,
      "hit": false,
      "t": 196250.00000000076,
      "d": 177.08333333334303,
      "v": 98
    },
    {
      "midi": 76,
      "hit": false,
      "t": 196500.00000000076,
      "d": 140.625,
      "v": 105
    },
    {
      "midi": 83,
      "hit": false,
      "t": 196500.00000000076,
      "d": 140.625,
      "v": 111
    },
    {
      "midi": 80,
      "hit": false,
      "t": 196500.00000000076,
      "d": 151.04166666665697,
      "v": 114
    },
    {
      "midi": 81,
      "hit": false,
      "t": 196750.00000000076,
      "d": 57.291666666656965,
      "v": 39
    },
    {
      "midi": 78,
      "hit": false,
      "t": 197000.00000000076,
      "d": 161.45833333334303,
      "v": 119
    },
    {
      "midi": 76,
      "hit": false,
      "t": 197000.00000000076,
      "d": 177.08333333334303,
      "v": 108
    },
    {
      "midi": 81,
      "hit": false,
      "t": 197000.00000000076,
      "d": 187.5,
      "v": 110
    },
    {
      "midi": 80,
      "hit": false,
      "t": 197500.00000000076,
      "d": 171.875,
      "v": 121
    },
    {
      "midi": 83,
      "hit": false,
      "t": 197500.00000000076,
      "d": 177.08333333334303,
      "v": 115
    },
    {
      "midi": 76,
      "hit": false,
      "t": 197500.00000000076,
      "d": 192.70833333334303,
      "v": 116
    },
    {
      "midi": 35,
      "hit": false,
      "t": 198000.00000000076,
      "d": 151.04166666665697,
      "v": 119
    },
    {
      "midi": 85,
      "hit": false,
      "t": 198000.00000000076,
      "d": 166.66666666665697,
      "v": 116
    },
    {
      "midi": 81,
      "hit": false,
      "t": 198000.00000000076,
      "d": 171.875,
      "v": 111
    },
    {
      "midi": 76,
      "hit": false,
      "t": 198000.00000000076,
      "d": 203.125,
      "v": 113
    },
    {
      "midi": 81,
      "hit": false,
      "t": 198250.00000000076,
      "d": 151.04166666665697,
      "v": 74
    },
    {
      "midi": 76,
      "hit": false,
      "t": 198250.00000000076,
      "d": 171.875,
      "v": 74
    },
    {
      "midi": 35,
      "hit": false,
      "t": 198250.00000000076,
      "d": 182.29166666665697,
      "v": 105
    },
    {
      "midi": 85,
      "hit": false,
      "t": 198250.00000000076,
      "d": 213.54166666665697,
      "v": 89
    },
    {
      "midi": 76,
      "hit": false,
      "t": 198500.00000000076,
      "d": 119.79166666665697,
      "v": 82
    },
    {
      "midi": 83,
      "hit": false,
      "t": 198500.00000000076,
      "d": 135.41666666665697,
      "v": 96
    },
    {
      "midi": 80,
      "hit": false,
      "t": 198500.00000000076,
      "d": 151.04166666665697,
      "v": 102
    },
    {
      "midi": 81,
      "hit": false,
      "t": 198750.00000000076,
      "d": 151.04166666665697,
      "v": 111
    },
    {
      "midi": 76,
      "hit": false,
      "t": 198750.00000000076,
      "d": 161.45833333331393,
      "v": 101
    },
    {
      "midi": 85,
      "hit": false,
      "t": 198750.00000000076,
      "d": 166.66666666665697,
      "v": 114
    },
    {
      "midi": 47,
      "hit": false,
      "t": 198750.00000000076,
      "d": 171.875,
      "v": 110
    },
    {
      "midi": 81,
      "hit": false,
      "t": 199250.00000000076,
      "d": 161.45833333334303,
      "v": 111
    },
    {
      "midi": 83,
      "hit": false,
      "t": 199250.00000000076,
      "d": 192.70833333334303,
      "v": 113
    },
    {
      "midi": 47,
      "hit": false,
      "t": 199250.00000000076,
      "d": 203.125,
      "v": 107
    },
    {
      "midi": 76,
      "hit": false,
      "t": 199250.00000000076,
      "d": 234.375,
      "v": 113
    },
    {
      "midi": 35,
      "hit": false,
      "t": 199750.00000000076,
      "d": 156.25,
      "v": 105
    },
    {
      "midi": 33,
      "hit": false,
      "t": 199750.00000000076,
      "d": 166.66666666665697,
      "v": 91
    },
    {
      "midi": 80,
      "hit": false,
      "t": 200000.00000000076,
      "d": 166.66666666665697,
      "v": 116
    },
    {
      "midi": 83,
      "hit": false,
      "t": 200000.00000000076,
      "d": 177.08333333331393,
      "v": 111
    },
    {
      "midi": 76,
      "hit": false,
      "t": 200000.00000000076,
      "d": 182.29166666665697,
      "v": 111
    },
    {
      "midi": 40,
      "hit": false,
      "t": 200000.00000000076,
      "d": 197.91666666665697,
      "v": 113
    },
    {
      "midi": 71,
      "hit": false,
      "t": 200250.00000000076,
      "d": 57.291666666656965,
      "v": 80
    },
    {
      "midi": 80,
      "hit": false,
      "t": 200250.00000000076,
      "d": 145.83333333331393,
      "v": 99
    },
    {
      "midi": 76,
      "hit": false,
      "t": 200250.00000000076,
      "d": 156.2499999999709,
      "v": 84
    },
    {
      "midi": 40,
      "hit": false,
      "t": 200250.00000000076,
      "d": 161.45833333331393,
      "v": 105
    },
    {
      "midi": 83,
      "hit": false,
      "t": 200250.00000000076,
      "d": 161.45833333331393,
      "v": 103
    },
    {
      "midi": 78,
      "hit": false,
      "t": 200500.00000000073,
      "d": 171.875,
      "v": 112
    },
    {
      "midi": 81,
      "hit": false,
      "t": 200500.00000000073,
      "d": 171.875,
      "v": 108
    },
    {
      "midi": 76,
      "hit": false,
      "t": 200500.00000000073,
      "d": 177.08333333334303,
      "v": 100
    },
    {
      "midi": 71,
      "hit": false,
      "t": 200750.00000000073,
      "d": 46.875,
      "v": 80
    },
    {
      "midi": 80,
      "hit": false,
      "t": 201000.00000000073,
      "d": 166.66666666665697,
      "v": 125
    },
    {
      "midi": 76,
      "hit": false,
      "t": 201000.00000000073,
      "d": 296.875,
      "v": 111
    },
    {
      "midi": 71,
      "hit": false,
      "t": 201250.00000000073,
      "d": 46.875,
      "v": 80
    },
    {
      "midi": 78,
      "hit": false,
      "t": 201500.00000000073,
      "d": 192.70833333334303,
      "v": 124
    },
    {
      "midi": 71,
      "hit": false,
      "t": 201750.00000000073,
      "d": 57.291666666656965,
      "v": 80
    },
    {
      "midi": 80,
      "hit": false,
      "t": 202005.20833333404,
      "d": 182.29166666665697,
      "v": 120
    },
    {
      "midi": 76,
      "hit": false,
      "t": 202010.41666666738,
      "d": 203.125,
      "v": 111
    },
    {
      "midi": 40,
      "hit": false,
      "t": 202020.83333333404,
      "d": 171.875,
      "v": 111
    },
    {
      "midi": 71,
      "hit": false,
      "t": 202250.00000000073,
      "d": 57.29166666668607,
      "v": 80
    },
    {
      "midi": 40,
      "hit": false,
      "t": 202250.00000000073,
      "d": 171.8750000000291,
      "v": 101
    },
    {
      "midi": 76,
      "hit": false,
      "t": 202255.20833333407,
      "d": 375.0000000000291,
      "v": 71
    },
    {
      "midi": 80,
      "hit": false,
      "t": 202260.4166666674,
      "d": 177.08333333334303,
      "v": 103
    },
    {
      "midi": 78,
      "hit": false,
      "t": 202484.37500000076,
      "d": 203.125,
      "v": 115
    },
    {
      "midi": 76,
      "hit": false,
      "t": 202739.5833333341,
      "d": 182.29166666671517,
      "v": 105
    },
    {
      "midi": 80,
      "hit": false,
      "t": 202744.79166666744,
      "d": 171.8750000000291,
      "v": 119
    },
    {
      "midi": 71,
      "hit": false,
      "t": 202750.0000000008,
      "d": 67.70833333334303,
      "v": 80
    },
    {
      "midi": 71,
      "hit": false,
      "t": 203250.00000000081,
      "d": 78.125,
      "v": 80
    },
    {
      "midi": 39,
      "hit": false,
      "t": 203265.62500000081,
      "d": 177.08333333334303,
      "v": 114
    },
    {
      "midi": 78,
      "hit": false,
      "t": 203265.62500000081,
      "d": 177.08333333334303,
      "v": 124
    },
    {
      "midi": 76,
      "hit": false,
      "t": 203270.83333333416,
      "d": 156.25,
      "v": 107
    },
    {
      "midi": 80,
      "hit": false,
      "t": 203770.83333333416,
      "d": 161.45833333334303,
      "v": 119
    },
    {
      "midi": 76,
      "hit": false,
      "t": 203770.83333333416,
      "d": 171.875,
      "v": 109
    },
    {
      "midi": 39,
      "hit": false,
      "t": 203770.83333333416,
      "d": 177.08333333334303,
      "v": 110
    },
    {
      "midi": 76,
      "hit": false,
      "t": 203994.7916666675,
      "d": 5.208333333343035,
      "v": 95
    },
    {
      "midi": 37,
      "hit": false,
      "t": 203994.7916666675,
      "d": 145.83333333337214,
      "v": 115
    },
    {
      "midi": 76,
      "hit": false,
      "t": 204000.00000000084,
      "d": 135.41666666668607,
      "v": 50
    },
    {
      "midi": 80,
      "hit": false,
      "t": 204005.2083333342,
      "d": 140.6250000000291,
      "v": 96
    },
    {
      "midi": 83,
      "hit": false,
      "t": 204010.41666666753,
      "d": 151.04166666668607,
      "v": 105
    },
    {
      "midi": 83,
      "hit": false,
      "t": 204234.37500000087,
      "d": 161.45833333337214,
      "v": 105
    },
    {
      "midi": 80,
      "hit": false,
      "t": 204239.58333333422,
      "d": 135.41666666668607,
      "v": 107
    },
    {
      "midi": 76,
      "hit": false,
      "t": 204239.58333333422,
      "d": 140.6250000000291,
      "v": 101
    },
    {
      "midi": 37,
      "hit": false,
      "t": 204244.79166666756,
      "d": 145.83333333334303,
      "v": 114
    },
    {
      "midi": 81,
      "hit": false,
      "t": 204484.3750000009,
      "d": 166.66666666665697,
      "v": 113
    },
    {
      "midi": 78,
      "hit": false,
      "t": 204489.58333333425,
      "d": 151.04166666665697,
      "v": 120
    },
    {
      "midi": 76,
      "hit": false,
      "t": 204489.58333333425,
      "d": 182.29166666665697,
      "v": 110
    },
    {
      "midi": 80,
      "hit": false,
      "t": 204984.3750000009,
      "d": 192.70833333334303,
      "v": 122
    },
    {
      "midi": 76,
      "hit": false,
      "t": 204984.3750000009,
      "d": 218.75,
      "v": 115
    },
    {
      "midi": 78,
      "hit": false,
      "t": 205505.20833333425,
      "d": 192.70833333334303,
      "v": 124
    },
    {
      "midi": 76,
      "hit": false,
      "t": 205750.00000000093,
      "d": 140.625,
      "v": 90
    },
    {
      "midi": 37,
      "hit": false,
      "t": 206000.00000000093,
      "d": 187.5,
      "v": 114
    },
    {
      "midi": 80,
      "hit": false,
      "t": 206000.00000000093,
      "d": 197.91666666665697,
      "v": 120
    },
    {
      "midi": 76,
      "hit": false,
      "t": 206000.00000000093,
      "d": 369.79166666665697,
      "v": 111
    },
    {
      "midi": 81,
      "hit": false,
      "t": 206250.00000000093,
      "d": 161.45833333331393,
      "v": 92
    },
    {
      "midi": 35,
      "hit": false,
      "t": 206250.00000000093,
      "d": 177.08333333331393,
      "v": 108
    },
    {
      "midi": 83,
      "hit": false,
      "t": 206500.0000000009,
      "d": 151.04166666665697,
      "v": 114
    },
    {
      "midi": 34,
      "hit": false,
      "t": 206500.0000000009,
      "d": 161.45833333331393,
      "v": 114
    },
    {
      "midi": 76,
      "hit": false,
      "t": 206500.0000000009,
      "d": 171.8749999999709,
      "v": 100
    },
    {
      "midi": 85,
      "hit": false,
      "t": 206750.00000000087,
      "d": 161.45833333334303,
      "v": 121
    },
    {
      "midi": 33,
      "hit": false,
      "t": 206750.00000000087,
      "d": 177.08333333334303,
      "v": 109
    },
    {
      "midi": 76,
      "hit": false,
      "t": 206750.00000000087,
      "d": 203.125,
      "v": 95
    },
    {
      "midi": 80,
      "hit": false,
      "t": 207250.00000000087,
      "d": 166.66666666665697,
      "v": 119
    },
    {
      "midi": 83,
      "hit": false,
      "t": 207250.00000000087,
      "d": 192.70833333331393,
      "v": 116
    },
    {
      "midi": 32,
      "hit": false,
      "t": 207250.00000000087,
      "d": 203.1249999999709,
      "v": 107
    },
    {
      "midi": 76,
      "hit": false,
      "t": 207250.00000000087,
      "d": 229.16666666662786,
      "v": 110
    },
    {
      "midi": 32,
      "hit": false,
      "t": 207750.00000000084,
      "d": 197.91666666665697,
      "v": 108
    },
    {
      "midi": 76,
      "hit": false,
      "t": 208000.00000000084,
      "d": 161.45833333334303,
      "v": 104
    },
    {
      "midi": 85,
      "hit": false,
      "t": 208000.00000000084,
      "d": 161.45833333334303,
      "v": 114
    },
    {
      "midi": 81,
      "hit": false,
      "t": 208000.00000000084,
      "d": 171.875,
      "v": 109
    },
    {
      "midi": 30,
      "hit": false,
      "t": 208000.00000000084,
      "d": 192.70833333334303,
      "v": 109
    },
    {
      "midi": 81,
      "hit": false,
      "t": 208250.00000000084,
      "d": 145.83333333334303,
      "v": 87
    },
    {
      "midi": 76,
      "hit": false,
      "t": 208250.00000000084,
      "d": 156.25,
      "v": 82
    },
    {
      "midi": 30,
      "hit": false,
      "t": 208250.00000000084,
      "d": 171.875,
      "v": 98
    },
    {
      "midi": 85,
      "hit": false,
      "t": 208250.00000000084,
      "d": 182.29166666665697,
      "v": 90
    },
    {
      "midi": 83,
      "hit": false,
      "t": 208500.00000000084,
      "d": 177.08333333334303,
      "v": 111
    },
    {
      "midi": 76,
      "hit": false,
      "t": 208500.00000000084,
      "d": 187.5,
      "v": 102
    },
    {
      "midi": 80,
      "hit": false,
      "t": 208500.00000000084,
      "d": 187.5,
      "v": 113
    },
    {
      "midi": 81,
      "hit": false,
      "t": 209000.00000000084,
      "d": 197.91666666665697,
      "v": 113
    },
    {
      "midi": 85,
      "hit": false,
      "t": 209000.00000000084,
      "d": 208.33333333331393,
      "v": 115
    },
    {
      "midi": 76,
      "hit": false,
      "t": 209000.00000000084,
      "d": 229.16666666665697,
      "v": 114
    },
    {
      "midi": 80,
      "hit": false,
      "t": 209500.00000000084,
      "d": 182.29166666665697,
      "v": 121
    },
    {
      "midi": 83,
      "hit": false,
      "t": 209500.00000000084,
      "d": 192.70833333331393,
      "v": 115
    },
    {
      "midi": 76,
      "hit": false,
      "t": 209500.00000000084,
      "d": 213.54166666665697,
      "v": 113
    },
    {
      "midi": 30,
      "hit": false,
      "t": 210000.00000000084,
      "d": 177.08333333334303,
      "v": 109
    },
    {
      "midi": 85,
      "hit": false,
      "t": 210000.00000000084,
      "d": 182.29166666668607,
      "v": 117
    },
    {
      "midi": 81,
      "hit": false,
      "t": 210000.00000000084,
      "d": 187.5000000000291,
      "v": 114
    },
    {
      "midi": 76,
      "hit": false,
      "t": 210000.00000000084,
      "d": 197.91666666668607,
      "v": 113
    },
    {
      "midi": 81,
      "hit": false,
      "t": 210250.00000000087,
      "d": 156.25,
      "v": 79
    },
    {
      "midi": 76,
      "hit": false,
      "t": 210250.00000000087,
      "d": 161.45833333334303,
      "v": 80
    },
    {
      "midi": 30,
      "hit": false,
      "t": 210250.00000000087,
      "d": 177.08333333334303,
      "v": 99
    },
    {
      "midi": 85,
      "hit": false,
      "t": 210250.00000000087,
      "d": 197.91666666668607,
      "v": 86
    },
    {
      "midi": 76,
      "hit": false,
      "t": 210500.0000000009,
      "d": 161.45833333334303,
      "v": 90
    },
    {
      "midi": 83,
      "hit": false,
      "t": 210500.0000000009,
      "d": 161.45833333334303,
      "v": 105
    },
    {
      "midi": 80,
      "hit": false,
      "t": 210500.0000000009,
      "d": 166.66666666668607,
      "v": 107
    },
    {
      "midi": 32,
      "hit": false,
      "t": 210750.00000000093,
      "d": 187.5,
      "v": 112
    },
    {
      "midi": 81,
      "hit": false,
      "t": 210750.00000000093,
      "d": 187.5,
      "v": 110
    },
    {
      "midi": 85,
      "hit": false,
      "t": 210750.00000000093,
      "d": 187.5,
      "v": 115
    },
    {
      "midi": 76,
      "hit": false,
      "t": 210750.00000000093,
      "d": 250,
      "v": 100
    },
    {
      "midi": 80,
      "hit": false,
      "t": 211250.00000000093,
      "d": 156.25,
      "v": 119
    },
    {
      "midi": 33,
      "hit": false,
      "t": 211250.00000000093,
      "d": 187.5,
      "v": 113
    },
    {
      "midi": 83,
      "hit": false,
      "t": 211250.00000000093,
      "d": 197.91666666665697,
      "v": 115
    },
    {
      "midi": 76,
      "hit": false,
      "t": 211250.00000000093,
      "d": 234.375,
      "v": 114
    },
    {
      "midi": 34,
      "hit": false,
      "t": 211750.00000000093,
      "d": 192.70833333334303,
      "v": 108
    },
    {
      "midi": 76,
      "hit": false,
      "t": 212000.00000000093,
      "d": 140.625,
      "v": 93
    },
    {
      "midi": 81,
      "hit": false,
      "t": 212000.00000000093,
      "d": 145.83333333334303,
      "v": 102
    },
    {
      "midi": 85,
      "hit": false,
      "t": 212000.00000000093,
      "d": 166.66666666668607,
      "v": 108
    },
    {
      "midi": 35,
      "hit": false,
      "t": 212000.00000000093,
      "d": 182.29166666668607,
      "v": 107
    },
    {
      "midi": 81,
      "hit": false,
      "t": 212250.00000000096,
      "d": 140.625,
      "v": 96
    },
    {
      "midi": 76,
      "hit": false,
      "t": 212250.00000000096,
      "d": 151.04166666665697,
      "v": 90
    },
    {
      "midi": 35,
      "hit": false,
      "t": 212250.00000000096,
      "d": 156.25,
      "v": 102
    },
    {
      "midi": 85,
      "hit": false,
      "t": 212250.00000000096,
      "d": 177.08333333334303,
      "v": 98
    },
    {
      "midi": 76,
      "hit": false,
      "t": 212500.00000000096,
      "d": 140.625,
      "v": 105
    },
    {
      "midi": 83,
      "hit": false,
      "t": 212500.00000000096,
      "d": 140.625,
      "v": 111
    },
    {
      "midi": 80,
      "hit": false,
      "t": 212500.00000000096,
      "d": 151.04166666665697,
      "v": 114
    },
    {
      "midi": 81,
      "hit": false,
      "t": 212750.00000000096,
      "d": 57.291666666656965,
      "v": 39
    },
    {
      "midi": 78,
      "hit": false,
      "t": 213000.00000000096,
      "d": 161.45833333334303,
      "v": 119
    },
    {
      "midi": 76,
      "hit": false,
      "t": 213000.00000000096,
      "d": 177.08333333334303,
      "v": 108
    },
    {
      "midi": 81,
      "hit": false,
      "t": 213000.00000000096,
      "d": 187.5,
      "v": 110
    },
    {
      "midi": 80,
      "hit": false,
      "t": 213500.00000000096,
      "d": 171.875,
      "v": 121
    },
    {
      "midi": 83,
      "hit": false,
      "t": 213500.00000000096,
      "d": 177.08333333334303,
      "v": 115
    },
    {
      "midi": 76,
      "hit": false,
      "t": 213500.00000000096,
      "d": 192.70833333334303,
      "v": 116
    },
    {
      "midi": 35,
      "hit": false,
      "t": 214000.00000000096,
      "d": 151.04166666665697,
      "v": 119
    },
    {
      "midi": 85,
      "hit": false,
      "t": 214000.00000000096,
      "d": 166.66666666665697,
      "v": 116
    },
    {
      "midi": 81,
      "hit": false,
      "t": 214000.00000000096,
      "d": 171.875,
      "v": 111
    },
    {
      "midi": 76,
      "hit": false,
      "t": 214000.00000000096,
      "d": 203.125,
      "v": 113
    },
    {
      "midi": 81,
      "hit": false,
      "t": 214250.00000000096,
      "d": 151.04166666665697,
      "v": 74
    },
    {
      "midi": 76,
      "hit": false,
      "t": 214250.00000000096,
      "d": 171.875,
      "v": 74
    },
    {
      "midi": 35,
      "hit": false,
      "t": 214250.00000000096,
      "d": 182.29166666665697,
      "v": 105
    },
    {
      "midi": 85,
      "hit": false,
      "t": 214250.00000000096,
      "d": 213.54166666665697,
      "v": 89
    },
    {
      "midi": 76,
      "hit": false,
      "t": 214500.00000000096,
      "d": 119.79166666665697,
      "v": 82
    },
    {
      "midi": 83,
      "hit": false,
      "t": 214500.00000000096,
      "d": 135.41666666665697,
      "v": 96
    },
    {
      "midi": 80,
      "hit": false,
      "t": 214500.00000000096,
      "d": 151.04166666665697,
      "v": 102
    },
    {
      "midi": 81,
      "hit": false,
      "t": 214750.00000000096,
      "d": 151.04166666665697,
      "v": 111
    },
    {
      "midi": 76,
      "hit": false,
      "t": 214750.00000000096,
      "d": 161.45833333331393,
      "v": 101
    },
    {
      "midi": 85,
      "hit": false,
      "t": 214750.00000000096,
      "d": 166.66666666665697,
      "v": 114
    },
    {
      "midi": 47,
      "hit": false,
      "t": 214750.00000000096,
      "d": 171.875,
      "v": 110
    },
    {
      "midi": 81,
      "hit": false,
      "t": 215250.00000000096,
      "d": 161.45833333334303,
      "v": 111
    },
    {
      "midi": 83,
      "hit": false,
      "t": 215250.00000000096,
      "d": 192.70833333334303,
      "v": 113
    },
    {
      "midi": 47,
      "hit": false,
      "t": 215250.00000000096,
      "d": 203.125,
      "v": 107
    },
    {
      "midi": 76,
      "hit": false,
      "t": 215250.00000000096,
      "d": 234.375,
      "v": 113
    },
    {
      "midi": 35,
      "hit": false,
      "t": 215750.00000000096,
      "d": 156.25,
      "v": 105
    },
    {
      "midi": 33,
      "hit": false,
      "t": 215750.00000000096,
      "d": 166.66666666665697,
      "v": 91
    },
    {
      "midi": 80,
      "hit": false,
      "t": 216000.00000000096,
      "d": 166.66666666665697,
      "v": 116
    },
    {
      "midi": 83,
      "hit": false,
      "t": 216000.00000000096,
      "d": 177.08333333331393,
      "v": 111
    },
    {
      "midi": 76,
      "hit": false,
      "t": 216000.00000000096,
      "d": 182.29166666665697,
      "v": 111
    },
    {
      "midi": 40,
      "hit": false,
      "t": 216000.00000000096,
      "d": 197.91666666665697,
      "v": 113
    },
    {
      "midi": 71,
      "hit": false,
      "t": 216250.00000000096,
      "d": 57.291666666656965,
      "v": 80
    },
    {
      "midi": 80,
      "hit": false,
      "t": 216250.00000000096,
      "d": 145.83333333331393,
      "v": 99
    },
    {
      "midi": 76,
      "hit": false,
      "t": 216250.00000000096,
      "d": 156.2499999999709,
      "v": 84
    },
    {
      "midi": 40,
      "hit": false,
      "t": 216250.00000000096,
      "d": 161.45833333331393,
      "v": 105
    },
    {
      "midi": 83,
      "hit": false,
      "t": 216250.00000000096,
      "d": 161.45833333331393,
      "v": 103
    },
    {
      "midi": 78,
      "hit": false,
      "t": 216500.00000000093,
      "d": 171.875,
      "v": 112
    },
    {
      "midi": 81,
      "hit": false,
      "t": 216500.00000000093,
      "d": 171.875,
      "v": 108
    },
    {
      "midi": 76,
      "hit": false,
      "t": 216500.00000000093,
      "d": 177.08333333334303,
      "v": 100
    },
    {
      "midi": 71,
      "hit": false,
      "t": 216750.00000000093,
      "d": 46.875,
      "v": 80
    },
    {
      "midi": 80,
      "hit": false,
      "t": 217000.00000000093,
      "d": 166.66666666665697,
      "v": 125
    },
    {
      "midi": 76,
      "hit": false,
      "t": 217000.00000000093,
      "d": 296.875,
      "v": 111
    },
    {
      "midi": 71,
      "hit": false,
      "t": 217250.00000000093,
      "d": 46.875,
      "v": 80
    },
    {
      "midi": 78,
      "hit": false,
      "t": 217500.00000000093,
      "d": 192.70833333334303,
      "v": 124
    },
    {
      "midi": 71,
      "hit": false,
      "t": 217750.00000000093,
      "d": 57.291666666656965,
      "v": 80
    },
    {
      "midi": 80,
      "hit": false,
      "t": 218005.20833333425,
      "d": 182.29166666665697,
      "v": 120
    },
    {
      "midi": 76,
      "hit": false,
      "t": 218010.4166666676,
      "d": 203.125,
      "v": 111
    },
    {
      "midi": 40,
      "hit": false,
      "t": 218020.83333333425,
      "d": 171.875,
      "v": 111
    },
    {
      "midi": 71,
      "hit": false,
      "t": 218250.00000000093,
      "d": 57.29166666668607,
      "v": 80
    },
    {
      "midi": 40,
      "hit": false,
      "t": 218250.00000000093,
      "d": 171.8750000000291,
      "v": 101
    },
    {
      "midi": 76,
      "hit": false,
      "t": 218255.20833333427,
      "d": 375.0000000000291,
      "v": 71
    },
    {
      "midi": 80,
      "hit": false,
      "t": 218260.41666666762,
      "d": 177.08333333334303,
      "v": 103
    },
    {
      "midi": 78,
      "hit": false,
      "t": 218484.37500000096,
      "d": 203.125,
      "v": 115
    },
    {
      "midi": 76,
      "hit": false,
      "t": 218739.5833333343,
      "d": 182.29166666671517,
      "v": 105
    },
    {
      "midi": 80,
      "hit": false,
      "t": 218744.79166666765,
      "d": 171.8750000000291,
      "v": 119
    },
    {
      "midi": 71,
      "hit": false,
      "t": 218750.000000001,
      "d": 67.70833333334303,
      "v": 80
    },
    {
      "midi": 71,
      "hit": false,
      "t": 219250.00000000102,
      "d": 78.125,
      "v": 80
    },
    {
      "midi": 39,
      "hit": false,
      "t": 219265.62500000102,
      "d": 177.08333333334303,
      "v": 114
    },
    {
      "midi": 78,
      "hit": false,
      "t": 219265.62500000102,
      "d": 177.08333333334303,
      "v": 124
    },
    {
      "midi": 76,
      "hit": false,
      "t": 219270.83333333436,
      "d": 156.25,
      "v": 107
    },
    {
      "midi": 80,
      "hit": false,
      "t": 219770.83333333436,
      "d": 161.45833333334303,
      "v": 119
    },
    {
      "midi": 76,
      "hit": false,
      "t": 219770.83333333436,
      "d": 171.875,
      "v": 109
    },
    {
      "midi": 39,
      "hit": false,
      "t": 219770.83333333436,
      "d": 177.08333333334303,
      "v": 110
    },
    {
      "midi": 76,
      "hit": false,
      "t": 219994.7916666677,
      "d": 5.208333333343035,
      "v": 95
    },
    {
      "midi": 37,
      "hit": false,
      "t": 219994.7916666677,
      "d": 145.83333333337214,
      "v": 115
    },
    {
      "midi": 76,
      "hit": false,
      "t": 220000.00000000105,
      "d": 135.41666666668607,
      "v": 50
    },
    {
      "midi": 80,
      "hit": false,
      "t": 220005.2083333344,
      "d": 140.6250000000291,
      "v": 96
    },
    {
      "midi": 83,
      "hit": false,
      "t": 220010.41666666773,
      "d": 151.04166666668607,
      "v": 105
    },
    {
      "midi": 83,
      "hit": false,
      "t": 220234.37500000108,
      "d": 161.45833333337214,
      "v": 105
    },
    {
      "midi": 80,
      "hit": false,
      "t": 220239.58333333442,
      "d": 135.41666666668607,
      "v": 107
    },
    {
      "midi": 76,
      "hit": false,
      "t": 220239.58333333442,
      "d": 140.6250000000291,
      "v": 101
    },
    {
      "midi": 37,
      "hit": false,
      "t": 220244.79166666776,
      "d": 145.83333333334303,
      "v": 114
    },
    {
      "midi": 81,
      "hit": false,
      "t": 220484.3750000011,
      "d": 166.66666666665697,
      "v": 113
    },
    {
      "midi": 78,
      "hit": false,
      "t": 220489.58333333445,
      "d": 151.04166666665697,
      "v": 120
    },
    {
      "midi": 76,
      "hit": false,
      "t": 220489.58333333445,
      "d": 182.29166666665697,
      "v": 110
    },
    {
      "midi": 80,
      "hit": false,
      "t": 220984.3750000011,
      "d": 192.70833333334303,
      "v": 122
    },
    {
      "midi": 76,
      "hit": false,
      "t": 220984.3750000011,
      "d": 218.75,
      "v": 115
    },
    {
      "midi": 78,
      "hit": false,
      "t": 221505.20833333445,
      "d": 192.70833333334303,
      "v": 124
    },
    {
      "midi": 76,
      "hit": false,
      "t": 221750.00000000114,
      "d": 140.625,
      "v": 90
    },
    {
      "midi": 37,
      "hit": false,
      "t": 222000.00000000114,
      "d": 187.5,
      "v": 114
    },
    {
      "midi": 80,
      "hit": false,
      "t": 222000.00000000114,
      "d": 197.91666666665697,
      "v": 120
    },
    {
      "midi": 76,
      "hit": false,
      "t": 222000.00000000114,
      "d": 369.79166666665697,
      "v": 111
    },
    {
      "midi": 81,
      "hit": false,
      "t": 222250.00000000114,
      "d": 161.45833333331393,
      "v": 92
    },
    {
      "midi": 35,
      "hit": false,
      "t": 222250.00000000114,
      "d": 177.08333333331393,
      "v": 108
    },
    {
      "midi": 83,
      "hit": false,
      "t": 222500.0000000011,
      "d": 151.04166666665697,
      "v": 114
    },
    {
      "midi": 34,
      "hit": false,
      "t": 222500.0000000011,
      "d": 161.45833333331393,
      "v": 114
    },
    {
      "midi": 76,
      "hit": false,
      "t": 222500.0000000011,
      "d": 171.8749999999709,
      "v": 100
    },
    {
      "midi": 85,
      "hit": false,
      "t": 222750.00000000108,
      "d": 161.45833333334303,
      "v": 121
    },
    {
      "midi": 33,
      "hit": false,
      "t": 222750.00000000108,
      "d": 177.08333333334303,
      "v": 109
    },
    {
      "midi": 76,
      "hit": false,
      "t": 222750.00000000108,
      "d": 203.125,
      "v": 95
    },
    {
      "midi": 80,
      "hit": false,
      "t": 223250.00000000108,
      "d": 166.66666666665697,
      "v": 119
    },
    {
      "midi": 83,
      "hit": false,
      "t": 223250.00000000108,
      "d": 192.70833333331393,
      "v": 116
    },
    {
      "midi": 32,
      "hit": false,
      "t": 223250.00000000108,
      "d": 203.1249999999709,
      "v": 107
    },
    {
      "midi": 76,
      "hit": false,
      "t": 223250.00000000108,
      "d": 229.16666666662786,
      "v": 110
    },
    {
      "midi": 32,
      "hit": false,
      "t": 223750.00000000105,
      "d": 197.91666666665697,
      "v": 108
    },
    {
      "midi": 76,
      "hit": false,
      "t": 224000.00000000105,
      "d": 161.45833333334303,
      "v": 104
    },
    {
      "midi": 85,
      "hit": false,
      "t": 224000.00000000105,
      "d": 161.45833333334303,
      "v": 114
    },
    {
      "midi": 81,
      "hit": false,
      "t": 224000.00000000105,
      "d": 171.875,
      "v": 109
    },
    {
      "midi": 30,
      "hit": false,
      "t": 224000.00000000105,
      "d": 192.70833333334303,
      "v": 109
    },
    {
      "midi": 81,
      "hit": false,
      "t": 224250.00000000105,
      "d": 145.83333333334303,
      "v": 87
    },
    {
      "midi": 76,
      "hit": false,
      "t": 224250.00000000105,
      "d": 156.25,
      "v": 82
    },
    {
      "midi": 30,
      "hit": false,
      "t": 224250.00000000105,
      "d": 171.875,
      "v": 98
    },
    {
      "midi": 85,
      "hit": false,
      "t": 224250.00000000105,
      "d": 182.29166666665697,
      "v": 90
    },
    {
      "midi": 83,
      "hit": false,
      "t": 224500.00000000105,
      "d": 177.08333333334303,
      "v": 111
    },
    {
      "midi": 76,
      "hit": false,
      "t": 224500.00000000105,
      "d": 187.5,
      "v": 102
    },
    {
      "midi": 80,
      "hit": false,
      "t": 224500.00000000105,
      "d": 187.5,
      "v": 113
    },
    {
      "midi": 81,
      "hit": false,
      "t": 225000.00000000105,
      "d": 197.91666666665697,
      "v": 113
    },
    {
      "midi": 85,
      "hit": false,
      "t": 225000.00000000105,
      "d": 208.33333333331393,
      "v": 115
    },
    {
      "midi": 76,
      "hit": false,
      "t": 225000.00000000105,
      "d": 229.16666666665697,
      "v": 114
    },
    {
      "midi": 80,
      "hit": false,
      "t": 225500.00000000105,
      "d": 182.29166666665697,
      "v": 121
    },
    {
      "midi": 83,
      "hit": false,
      "t": 225500.00000000105,
      "d": 192.70833333331393,
      "v": 115
    },
    {
      "midi": 76,
      "hit": false,
      "t": 225500.00000000105,
      "d": 213.54166666665697,
      "v": 113
    },
    {
      "midi": 30,
      "hit": false,
      "t": 226000.00000000105,
      "d": 177.08333333334303,
      "v": 109
    },
    {
      "midi": 85,
      "hit": false,
      "t": 226000.00000000105,
      "d": 182.29166666668607,
      "v": 117
    },
    {
      "midi": 81,
      "hit": false,
      "t": 226000.00000000105,
      "d": 187.5000000000291,
      "v": 114
    },
    {
      "midi": 76,
      "hit": false,
      "t": 226000.00000000105,
      "d": 197.91666666668607,
      "v": 113
    },
    {
      "midi": 81,
      "hit": false,
      "t": 226250.00000000108,
      "d": 156.25,
      "v": 79
    },
    {
      "midi": 76,
      "hit": false,
      "t": 226250.00000000108,
      "d": 161.45833333334303,
      "v": 80
    },
    {
      "midi": 30,
      "hit": false,
      "t": 226250.00000000108,
      "d": 177.08333333334303,
      "v": 99
    },
    {
      "midi": 85,
      "hit": false,
      "t": 226250.00000000108,
      "d": 197.91666666668607,
      "v": 86
    },
    {
      "midi": 76,
      "hit": false,
      "t": 226500.0000000011,
      "d": 161.45833333334303,
      "v": 90
    },
    {
      "midi": 83,
      "hit": false,
      "t": 226500.0000000011,
      "d": 161.45833333334303,
      "v": 105
    },
    {
      "midi": 80,
      "hit": false,
      "t": 226500.0000000011,
      "d": 166.66666666668607,
      "v": 107
    },
    {
      "midi": 32,
      "hit": false,
      "t": 226750.00000000114,
      "d": 187.5,
      "v": 112
    },
    {
      "midi": 81,
      "hit": false,
      "t": 226750.00000000114,
      "d": 187.5,
      "v": 110
    },
    {
      "midi": 85,
      "hit": false,
      "t": 226750.00000000114,
      "d": 187.5,
      "v": 115
    },
    {
      "midi": 76,
      "hit": false,
      "t": 226750.00000000114,
      "d": 250,
      "v": 100
    },
    {
      "midi": 80,
      "hit": false,
      "t": 227250.00000000114,
      "d": 156.25,
      "v": 119
    },
    {
      "midi": 33,
      "hit": false,
      "t": 227250.00000000114,
      "d": 187.5,
      "v": 113
    },
    {
      "midi": 83,
      "hit": false,
      "t": 227250.00000000114,
      "d": 197.91666666665697,
      "v": 115
    },
    {
      "midi": 76,
      "hit": false,
      "t": 227250.00000000114,
      "d": 234.375,
      "v": 114
    },
    {
      "midi": 34,
      "hit": false,
      "t": 227750.00000000114,
      "d": 192.70833333334303,
      "v": 108
    },
    {
      "midi": 76,
      "hit": false,
      "t": 228000.00000000114,
      "d": 140.625,
      "v": 93
    },
    {
      "midi": 81,
      "hit": false,
      "t": 228000.00000000114,
      "d": 145.83333333334303,
      "v": 102
    },
    {
      "midi": 85,
      "hit": false,
      "t": 228000.00000000114,
      "d": 166.66666666668607,
      "v": 108
    },
    {
      "midi": 35,
      "hit": false,
      "t": 228000.00000000114,
      "d": 182.29166666668607,
      "v": 107
    },
    {
      "midi": 81,
      "hit": false,
      "t": 228250.00000000116,
      "d": 140.625,
      "v": 96
    },
    {
      "midi": 76,
      "hit": false,
      "t": 228250.00000000116,
      "d": 151.04166666665697,
      "v": 90
    },
    {
      "midi": 35,
      "hit": false,
      "t": 228250.00000000116,
      "d": 156.25,
      "v": 102
    },
    {
      "midi": 85,
      "hit": false,
      "t": 228250.00000000116,
      "d": 177.08333333334303,
      "v": 98
    },
    {
      "midi": 76,
      "hit": false,
      "t": 228500.00000000116,
      "d": 140.625,
      "v": 105
    },
    {
      "midi": 83,
      "hit": false,
      "t": 228500.00000000116,
      "d": 140.625,
      "v": 111
    },
    {
      "midi": 80,
      "hit": false,
      "t": 228500.00000000116,
      "d": 151.04166666665697,
      "v": 114
    },
    {
      "midi": 81,
      "hit": false,
      "t": 228750.00000000116,
      "d": 57.291666666656965,
      "v": 39
    },
    {
      "midi": 78,
      "hit": false,
      "t": 229000.00000000116,
      "d": 161.45833333334303,
      "v": 119
    },
    {
      "midi": 76,
      "hit": false,
      "t": 229000.00000000116,
      "d": 177.08333333334303,
      "v": 108
    },
    {
      "midi": 81,
      "hit": false,
      "t": 229000.00000000116,
      "d": 187.5,
      "v": 110
    },
    {
      "midi": 80,
      "hit": false,
      "t": 229500.00000000116,
      "d": 171.875,
      "v": 121
    },
    {
      "midi": 83,
      "hit": false,
      "t": 229500.00000000116,
      "d": 177.08333333334303,
      "v": 115
    },
    {
      "midi": 76,
      "hit": false,
      "t": 229500.00000000116,
      "d": 192.70833333334303,
      "v": 116
    },
    {
      "midi": 35,
      "hit": false,
      "t": 230000.00000000116,
      "d": 151.04166666665697,
      "v": 119
    },
    {
      "midi": 85,
      "hit": false,
      "t": 230000.00000000116,
      "d": 166.66666666665697,
      "v": 116
    },
    {
      "midi": 81,
      "hit": false,
      "t": 230000.00000000116,
      "d": 171.875,
      "v": 111
    },
    {
      "midi": 76,
      "hit": false,
      "t": 230000.00000000116,
      "d": 203.125,
      "v": 113
    },
    {
      "midi": 81,
      "hit": false,
      "t": 230250.00000000116,
      "d": 151.04166666665697,
      "v": 74
    },
    {
      "midi": 76,
      "hit": false,
      "t": 230250.00000000116,
      "d": 171.875,
      "v": 74
    },
    {
      "midi": 35,
      "hit": false,
      "t": 230250.00000000116,
      "d": 182.29166666665697,
      "v": 105
    },
    {
      "midi": 85,
      "hit": false,
      "t": 230250.00000000116,
      "d": 213.54166666665697,
      "v": 89
    },
    {
      "midi": 76,
      "hit": false,
      "t": 230500.00000000116,
      "d": 119.79166666665697,
      "v": 82
    },
    {
      "midi": 83,
      "hit": false,
      "t": 230500.00000000116,
      "d": 135.41666666665697,
      "v": 96
    },
    {
      "midi": 80,
      "hit": false,
      "t": 230500.00000000116,
      "d": 151.04166666665697,
      "v": 102
    },
    {
      "midi": 81,
      "hit": false,
      "t": 230750.00000000116,
      "d": 151.04166666665697,
      "v": 111
    },
    {
      "midi": 76,
      "hit": false,
      "t": 230750.00000000116,
      "d": 161.45833333331393,
      "v": 101
    },
    {
      "midi": 85,
      "hit": false,
      "t": 230750.00000000116,
      "d": 166.66666666665697,
      "v": 114
    },
    {
      "midi": 47,
      "hit": false,
      "t": 230750.00000000116,
      "d": 171.875,
      "v": 110
    },
    {
      "midi": 81,
      "hit": false,
      "t": 231250.00000000116,
      "d": 161.45833333334303,
      "v": 111
    },
    {
      "midi": 83,
      "hit": false,
      "t": 231250.00000000116,
      "d": 192.70833333334303,
      "v": 113
    },
    {
      "midi": 47,
      "hit": false,
      "t": 231250.00000000116,
      "d": 203.125,
      "v": 107
    },
    {
      "midi": 76,
      "hit": false,
      "t": 231250.00000000116,
      "d": 234.375,
      "v": 113
    },
    {
      "midi": 35,
      "hit": false,
      "t": 231750.00000000116,
      "d": 156.25,
      "v": 105
    },
    {
      "midi": 33,
      "hit": false,
      "t": 231750.00000000116,
      "d": 166.66666666665697,
      "v": 91
    },
    {
      "midi": 80,
      "hit": false,
      "t": 232000.00000000116,
      "d": 166.66666666665697,
      "v": 116
    },
    {
      "midi": 83,
      "hit": false,
      "t": 232000.00000000116,
      "d": 177.08333333331393,
      "v": 111
    },
    {
      "midi": 76,
      "hit": false,
      "t": 232000.00000000116,
      "d": 182.29166666665697,
      "v": 111
    },
    {
      "midi": 40,
      "hit": false,
      "t": 232000.00000000116,
      "d": 197.91666666665697,
      "v": 113
    },
    {
      "midi": 71,
      "hit": false,
      "t": 232250.00000000116,
      "d": 57.291666666656965,
      "v": 80
    },
    {
      "midi": 80,
      "hit": false,
      "t": 232250.00000000116,
      "d": 145.83333333331393,
      "v": 99
    },
    {
      "midi": 76,
      "hit": false,
      "t": 232250.00000000116,
      "d": 156.2499999999709,
      "v": 84
    },
    {
      "midi": 40,
      "hit": false,
      "t": 232250.00000000116,
      "d": 161.45833333331393,
      "v": 105
    },
    {
      "midi": 83,
      "hit": false,
      "t": 232250.00000000116,
      "d": 161.45833333331393,
      "v": 103
    },
    {
      "midi": 78,
      "hit": false,
      "t": 232500.00000000114,
      "d": 171.875,
      "v": 112
    },
    {
      "midi": 81,
      "hit": false,
      "t": 232500.00000000114,
      "d": 171.875,
      "v": 108
    },
    {
      "midi": 76,
      "hit": false,
      "t": 232500.00000000114,
      "d": 177.08333333334303,
      "v": 100
    },
    {
      "midi": 71,
      "hit": false,
      "t": 232750.00000000114,
      "d": 46.875,
      "v": 80
    },
    {
      "midi": 80,
      "hit": false,
      "t": 233000.00000000114,
      "d": 166.66666666665697,
      "v": 125
    },
    {
      "midi": 76,
      "hit": false,
      "t": 233000.00000000114,
      "d": 296.875,
      "v": 111
    },
    {
      "midi": 71,
      "hit": false,
      "t": 233250.00000000114,
      "d": 46.875,
      "v": 80
    },
    {
      "midi": 78,
      "hit": false,
      "t": 233500.00000000114,
      "d": 192.70833333334303,
      "v": 124
    },
    {
      "midi": 71,
      "hit": false,
      "t": 233750.00000000114,
      "d": 57.291666666656965,
      "v": 80
    },
    {
      "midi": 80,
      "hit": false,
      "t": 234005.20833333445,
      "d": 182.29166666665697,
      "v": 120
    },
    {
      "midi": 76,
      "hit": false,
      "t": 234010.4166666678,
      "d": 203.125,
      "v": 111
    },
    {
      "midi": 40,
      "hit": false,
      "t": 234020.83333333445,
      "d": 171.875,
      "v": 111
    },
    {
      "midi": 71,
      "hit": false,
      "t": 234250.00000000114,
      "d": 57.29166666668607,
      "v": 80
    },
    {
      "midi": 40,
      "hit": false,
      "t": 234250.00000000114,
      "d": 171.8750000000291,
      "v": 101
    },
    {
      "midi": 76,
      "hit": false,
      "t": 234255.20833333448,
      "d": 375.0000000000291,
      "v": 71
    },
    {
      "midi": 80,
      "hit": false,
      "t": 234260.41666666782,
      "d": 177.08333333334303,
      "v": 103
    },
    {
      "midi": 78,
      "hit": false,
      "t": 234484.37500000116,
      "d": 203.125,
      "v": 115
    },
    {
      "midi": 76,
      "hit": false,
      "t": 234739.5833333345,
      "d": 182.29166666671517,
      "v": 105
    },
    {
      "midi": 80,
      "hit": false,
      "t": 234744.79166666785,
      "d": 171.8750000000291,
      "v": 119
    },
    {
      "midi": 71,
      "hit": false,
      "t": 234750.0000000012,
      "d": 67.70833333334303,
      "v": 80
    },
    {
      "midi": 71,
      "hit": false,
      "t": 235250.00000000122,
      "d": 78.125,
      "v": 80
    },
    {
      "midi": 39,
      "hit": false,
      "t": 235265.62500000122,
      "d": 177.08333333334303,
      "v": 114
    },
    {
      "midi": 78,
      "hit": false,
      "t": 235265.62500000122,
      "d": 177.08333333334303,
      "v": 124
    },
    {
      "midi": 76,
      "hit": false,
      "t": 235270.83333333457,
      "d": 156.25,
      "v": 107
    },
    {
      "midi": 80,
      "hit": false,
      "t": 235770.83333333457,
      "d": 161.45833333334303,
      "v": 119
    },
    {
      "midi": 76,
      "hit": false,
      "t": 235770.83333333457,
      "d": 171.875,
      "v": 109
    },
    {
      "midi": 39,
      "hit": false,
      "t": 235770.83333333457,
      "d": 177.08333333334303,
      "v": 110
    },
    {
      "midi": 76,
      "hit": false,
      "t": 235994.7916666679,
      "d": 5.208333333343035,
      "v": 95
    },
    {
      "midi": 37,
      "hit": false,
      "t": 235994.7916666679,
      "d": 145.83333333337214,
      "v": 115
    },
    {
      "midi": 76,
      "hit": false,
      "t": 236000.00000000125,
      "d": 135.41666666668607,
      "v": 50
    },
    {
      "midi": 80,
      "hit": false,
      "t": 236005.2083333346,
      "d": 140.6250000000291,
      "v": 96
    },
    {
      "midi": 83,
      "hit": false,
      "t": 236010.41666666794,
      "d": 151.04166666668607,
      "v": 105
    },
    {
      "midi": 83,
      "hit": false,
      "t": 236234.37500000128,
      "d": 161.45833333337214,
      "v": 105
    },
    {
      "midi": 80,
      "hit": false,
      "t": 236239.58333333462,
      "d": 135.41666666668607,
      "v": 107
    },
    {
      "midi": 76,
      "hit": false,
      "t": 236239.58333333462,
      "d": 140.6250000000291,
      "v": 101
    },
    {
      "midi": 37,
      "hit": false,
      "t": 236244.79166666797,
      "d": 145.83333333334303,
      "v": 114
    },
    {
      "midi": 81,
      "hit": false,
      "t": 236484.3750000013,
      "d": 166.66666666665697,
      "v": 113
    },
    {
      "midi": 78,
      "hit": false,
      "t": 236489.58333333465,
      "d": 151.04166666665697,
      "v": 120
    },
    {
      "midi": 76,
      "hit": false,
      "t": 236489.58333333465,
      "d": 182.29166666665697,
      "v": 110
    },
    {
      "midi": 80,
      "hit": false,
      "t": 236984.3750000013,
      "d": 192.70833333334303,
      "v": 122
    },
    {
      "midi": 76,
      "hit": false,
      "t": 236984.3750000013,
      "d": 218.75,
      "v": 115
    },
    {
      "midi": 78,
      "hit": false,
      "t": 237505.20833333465,
      "d": 192.70833333334303,
      "v": 124
    },
    {
      "midi": 76,
      "hit": false,
      "t": 237750.00000000134,
      "d": 140.625,
      "v": 90
    },
    {
      "midi": 37,
      "hit": false,
      "t": 238000.00000000134,
      "d": 187.5,
      "v": 114
    },
    {
      "midi": 80,
      "hit": false,
      "t": 238000.00000000134,
      "d": 197.91666666665697,
      "v": 120
    },
    {
      "midi": 76,
      "hit": false,
      "t": 238000.00000000134,
      "d": 369.79166666665697,
      "v": 111
    },
    {
      "midi": 81,
      "hit": false,
      "t": 238250.00000000134,
      "d": 161.45833333331393,
      "v": 92
    },
    {
      "midi": 35,
      "hit": false,
      "t": 238250.00000000134,
      "d": 177.08333333331393,
      "v": 108
    },
    {
      "midi": 83,
      "hit": false,
      "t": 238500.0000000013,
      "d": 151.04166666665697,
      "v": 114
    },
    {
      "midi": 34,
      "hit": false,
      "t": 238500.0000000013,
      "d": 161.45833333331393,
      "v": 114
    },
    {
      "midi": 76,
      "hit": false,
      "t": 238500.0000000013,
      "d": 171.8749999999709,
      "v": 100
    },
    {
      "midi": 85,
      "hit": false,
      "t": 238750.00000000128,
      "d": 161.45833333334303,
      "v": 121
    },
    {
      "midi": 33,
      "hit": false,
      "t": 238750.00000000128,
      "d": 177.08333333334303,
      "v": 109
    },
    {
      "midi": 76,
      "hit": false,
      "t": 238750.00000000128,
      "d": 203.125,
      "v": 95
    },
    {
      "midi": 80,
      "hit": false,
      "t": 239250.00000000128,
      "d": 166.66666666665697,
      "v": 119
    },
    {
      "midi": 83,
      "hit": false,
      "t": 239250.00000000128,
      "d": 192.70833333331393,
      "v": 116
    },
    {
      "midi": 32,
      "hit": false,
      "t": 239250.00000000128,
      "d": 203.1249999999709,
      "v": 107
    },
    {
      "midi": 76,
      "hit": false,
      "t": 239250.00000000128,
      "d": 229.16666666662786,
      "v": 110
    },
    {
      "midi": 32,
      "hit": false,
      "t": 239750.00000000125,
      "d": 197.91666666665697,
      "v": 108
    },
    {
      "midi": 76,
      "hit": false,
      "t": 240000.00000000125,
      "d": 161.45833333334303,
      "v": 104
    },
    {
      "midi": 85,
      "hit": false,
      "t": 240000.00000000125,
      "d": 161.45833333334303,
      "v": 114
    },
    {
      "midi": 81,
      "hit": false,
      "t": 240000.00000000125,
      "d": 171.875,
      "v": 109
    },
    {
      "midi": 30,
      "hit": false,
      "t": 240000.00000000125,
      "d": 192.70833333334303,
      "v": 109
    },
    {
      "midi": 81,
      "hit": false,
      "t": 240250.00000000125,
      "d": 145.83333333334303,
      "v": 87
    },
    {
      "midi": 76,
      "hit": false,
      "t": 240250.00000000125,
      "d": 156.25,
      "v": 82
    },
    {
      "midi": 30,
      "hit": false,
      "t": 240250.00000000125,
      "d": 171.875,
      "v": 98
    },
    {
      "midi": 85,
      "hit": false,
      "t": 240250.00000000125,
      "d": 182.29166666665697,
      "v": 90
    },
    {
      "midi": 83,
      "hit": false,
      "t": 240500.00000000125,
      "d": 177.08333333334303,
      "v": 111
    },
    {
      "midi": 76,
      "hit": false,
      "t": 240500.00000000125,
      "d": 187.5,
      "v": 102
    },
    {
      "midi": 80,
      "hit": false,
      "t": 240500.00000000125,
      "d": 187.5,
      "v": 113
    },
    {
      "midi": 81,
      "hit": false,
      "t": 241000.00000000125,
      "d": 197.91666666665697,
      "v": 113
    },
    {
      "midi": 85,
      "hit": false,
      "t": 241000.00000000125,
      "d": 208.33333333331393,
      "v": 115
    },
    {
      "midi": 76,
      "hit": false,
      "t": 241000.00000000125,
      "d": 229.16666666665697,
      "v": 114
    },
    {
      "midi": 80,
      "hit": false,
      "t": 241500.00000000125,
      "d": 182.29166666665697,
      "v": 121
    },
    {
      "midi": 83,
      "hit": false,
      "t": 241500.00000000125,
      "d": 192.70833333331393,
      "v": 115
    },
    {
      "midi": 76,
      "hit": false,
      "t": 241500.00000000125,
      "d": 213.54166666665697,
      "v": 113
    },
    {
      "midi": 30,
      "hit": false,
      "t": 242000.00000000125,
      "d": 177.08333333334303,
      "v": 109
    },
    {
      "midi": 85,
      "hit": false,
      "t": 242000.00000000125,
      "d": 182.29166666668607,
      "v": 117
    },
    {
      "midi": 81,
      "hit": false,
      "t": 242000.00000000125,
      "d": 187.5000000000291,
      "v": 114
    },
    {
      "midi": 76,
      "hit": false,
      "t": 242000.00000000125,
      "d": 197.91666666668607,
      "v": 113
    },
    {
      "midi": 81,
      "hit": false,
      "t": 242250.00000000128,
      "d": 156.25,
      "v": 79
    },
    {
      "midi": 76,
      "hit": false,
      "t": 242250.00000000128,
      "d": 161.45833333334303,
      "v": 80
    },
    {
      "midi": 30,
      "hit": false,
      "t": 242250.00000000128,
      "d": 177.08333333334303,
      "v": 99
    },
    {
      "midi": 85,
      "hit": false,
      "t": 242250.00000000128,
      "d": 197.91666666668607,
      "v": 86
    },
    {
      "midi": 76,
      "hit": false,
      "t": 242500.0000000013,
      "d": 161.45833333334303,
      "v": 90
    },
    {
      "midi": 83,
      "hit": false,
      "t": 242500.0000000013,
      "d": 161.45833333334303,
      "v": 105
    },
    {
      "midi": 80,
      "hit": false,
      "t": 242500.0000000013,
      "d": 166.66666666668607,
      "v": 107
    },
    {
      "midi": 32,
      "hit": false,
      "t": 242750.00000000134,
      "d": 187.5,
      "v": 112
    },
    {
      "midi": 81,
      "hit": false,
      "t": 242750.00000000134,
      "d": 187.5,
      "v": 110
    },
    {
      "midi": 85,
      "hit": false,
      "t": 242750.00000000134,
      "d": 187.5,
      "v": 115
    },
    {
      "midi": 76,
      "hit": false,
      "t": 242750.00000000134,
      "d": 250,
      "v": 100
    },
    {
      "midi": 80,
      "hit": false,
      "t": 243250.00000000134,
      "d": 156.25,
      "v": 119
    },
    {
      "midi": 33,
      "hit": false,
      "t": 243250.00000000134,
      "d": 187.5,
      "v": 113
    },
    {
      "midi": 83,
      "hit": false,
      "t": 243250.00000000134,
      "d": 197.91666666665697,
      "v": 115
    },
    {
      "midi": 76,
      "hit": false,
      "t": 243250.00000000134,
      "d": 234.375,
      "v": 114
    },
    {
      "midi": 34,
      "hit": false,
      "t": 243750.00000000134,
      "d": 192.70833333334303,
      "v": 108
    },
    {
      "midi": 76,
      "hit": false,
      "t": 244000.00000000134,
      "d": 140.625,
      "v": 93
    },
    {
      "midi": 81,
      "hit": false,
      "t": 244000.00000000134,
      "d": 145.83333333334303,
      "v": 102
    },
    {
      "midi": 85,
      "hit": false,
      "t": 244000.00000000134,
      "d": 166.66666666668607,
      "v": 108
    },
    {
      "midi": 35,
      "hit": false,
      "t": 244000.00000000134,
      "d": 182.29166666668607,
      "v": 107
    },
    {
      "midi": 81,
      "hit": false,
      "t": 244250.00000000137,
      "d": 140.625,
      "v": 96
    },
    {
      "midi": 76,
      "hit": false,
      "t": 244250.00000000137,
      "d": 151.04166666665697,
      "v": 90
    },
    {
      "midi": 35,
      "hit": false,
      "t": 244250.00000000137,
      "d": 156.25,
      "v": 102
    },
    {
      "midi": 85,
      "hit": false,
      "t": 244250.00000000137,
      "d": 177.08333333334303,
      "v": 98
    },
    {
      "midi": 76,
      "hit": false,
      "t": 244500.00000000137,
      "d": 140.625,
      "v": 105
    },
    {
      "midi": 83,
      "hit": false,
      "t": 244500.00000000137,
      "d": 140.625,
      "v": 111
    },
    {
      "midi": 80,
      "hit": false,
      "t": 244500.00000000137,
      "d": 151.04166666665697,
      "v": 114
    },
    {
      "midi": 81,
      "hit": false,
      "t": 244750.00000000137,
      "d": 57.291666666656965,
      "v": 39
    },
    {
      "midi": 78,
      "hit": false,
      "t": 245000.00000000137,
      "d": 161.45833333334303,
      "v": 119
    },
    {
      "midi": 76,
      "hit": false,
      "t": 245000.00000000137,
      "d": 177.08333333334303,
      "v": 108
    },
    {
      "midi": 81,
      "hit": false,
      "t": 245000.00000000137,
      "d": 187.5,
      "v": 110
    },
    {
      "midi": 80,
      "hit": false,
      "t": 245500.00000000137,
      "d": 171.875,
      "v": 121
    },
    {
      "midi": 83,
      "hit": false,
      "t": 245500.00000000137,
      "d": 177.08333333334303,
      "v": 115
    },
    {
      "midi": 76,
      "hit": false,
      "t": 245500.00000000137,
      "d": 192.70833333334303,
      "v": 116
    },
    {
      "midi": 35,
      "hit": false,
      "t": 246000.00000000137,
      "d": 151.04166666665697,
      "v": 119
    },
    {
      "midi": 85,
      "hit": false,
      "t": 246000.00000000137,
      "d": 166.66666666665697,
      "v": 116
    },
    {
      "midi": 81,
      "hit": false,
      "t": 246000.00000000137,
      "d": 171.875,
      "v": 111
    },
    {
      "midi": 76,
      "hit": false,
      "t": 246000.00000000137,
      "d": 203.125,
      "v": 113
    },
    {
      "midi": 81,
      "hit": false,
      "t": 246250.00000000137,
      "d": 151.04166666665697,
      "v": 74
    },
    {
      "midi": 76,
      "hit": false,
      "t": 246250.00000000137,
      "d": 171.875,
      "v": 74
    },
    {
      "midi": 35,
      "hit": false,
      "t": 246250.00000000137,
      "d": 182.29166666665697,
      "v": 105
    },
    {
      "midi": 85,
      "hit": false,
      "t": 246250.00000000137,
      "d": 213.54166666665697,
      "v": 89
    },
    {
      "midi": 76,
      "hit": false,
      "t": 246500.00000000137,
      "d": 119.79166666665697,
      "v": 82
    },
    {
      "midi": 83,
      "hit": false,
      "t": 246500.00000000137,
      "d": 135.41666666665697,
      "v": 96
    },
    {
      "midi": 80,
      "hit": false,
      "t": 246500.00000000137,
      "d": 151.04166666665697,
      "v": 102
    },
    {
      "midi": 81,
      "hit": false,
      "t": 246750.00000000137,
      "d": 151.04166666665697,
      "v": 111
    },
    {
      "midi": 76,
      "hit": false,
      "t": 246750.00000000137,
      "d": 161.45833333331393,
      "v": 101
    },
    {
      "midi": 85,
      "hit": false,
      "t": 246750.00000000137,
      "d": 166.66666666665697,
      "v": 114
    },
    {
      "midi": 47,
      "hit": false,
      "t": 246750.00000000137,
      "d": 171.875,
      "v": 110
    },
    {
      "midi": 81,
      "hit": false,
      "t": 247250.00000000137,
      "d": 161.45833333334303,
      "v": 111
    },
    {
      "midi": 83,
      "hit": false,
      "t": 247250.00000000137,
      "d": 192.70833333334303,
      "v": 113
    },
    {
      "midi": 47,
      "hit": false,
      "t": 247250.00000000137,
      "d": 203.125,
      "v": 107
    },
    {
      "midi": 76,
      "hit": false,
      "t": 247250.00000000137,
      "d": 234.375,
      "v": 113
    },
    {
      "midi": 35,
      "hit": false,
      "t": 247750.00000000137,
      "d": 156.25,
      "v": 105
    },
    {
      "midi": 33,
      "hit": false,
      "t": 247750.00000000137,
      "d": 166.66666666665697,
      "v": 91
    }
  ]
}