{
  "jsonPath": "Classical/Classical/Leif Ove Andsnes/9-etudes-tableaux-op-33-no-6-in-c-sharp-minor-originally-no-9.json",
  "path": "Classical\\Classical\\Leif Ove Andsnes\\9 Etudes-tableaux Op 33 No 6 in C sharp minor (originally No 9).mid",
  "name": "9 Etudes-tableaux Op 33 No 6 in C sharp minor (originally No 9)",
  "difficulty": "Advanced",
  "bpm": 63.57999900391335,
  "notes": [
    {
      "midi": 61,
      "hit": false,
      "t": 0,
      "d": 1556.2312499999998,
      "v": 95
    },
    {
      "midi": 37,
      "hit": false,
      "t": 0,
      "d": 1556.2312499999998,
      "v": 77
    },
    {
      "midi": 49,
      "hit": false,
      "t": 0,
      "d": 1556.2312499999998,
      "v": 90
    },
    {
      "midi": 52,
      "hit": false,
      "t": 817.8859791666666,
      "d": 829.9899999999998,
      "v": 69
    },
    {
      "midi": 64,
      "hit": false,
      "t": 824.8025624999999,
      "d": 829.9899999999999,
      "v": 82
    },
    {
      "midi": 68,
      "hit": false,
      "t": 829.9899999999999,
      "d": 829.9899999999999,
      "v": 82
    },
    {
      "midi": 73,
      "hit": false,
      "t": 829.9899999999999,
      "d": 829.9899999999999,
      "v": 98
    },
    {
      "midi": 56,
      "hit": false,
      "t": 829.9899999999999,
      "d": 829.9899999999999,
      "v": 69
    },
    {
      "midi": 51,
      "hit": false,
      "t": 1556.2312499999998,
      "d": 103.74874999999997,
      "v": 92
    },
    {
      "midi": 27,
      "hit": false,
      "t": 1556.2312499999998,
      "d": 103.74874999999997,
      "v": 66
    },
    {
      "midi": 39,
      "hit": false,
      "t": 1556.2312499999998,
      "d": 103.74874999999997,
      "v": 79
    },
    {
      "midi": 55,
      "hit": false,
      "t": 1659.9799999999998,
      "d": 829.99,
      "v": 98
    },
    {
      "midi": 31,
      "hit": false,
      "t": 1659.9799999999998,
      "d": 829.99,
      "v": 74
    },
    {
      "midi": 43,
      "hit": false,
      "t": 1659.9799999999998,
      "d": 829.99,
      "v": 88
    },
    {
      "midi": 64,
      "hit": false,
      "t": 2074.975,
      "d": 414.9949999999999,
      "v": 75
    },
    {
      "midi": 71,
      "hit": false,
      "t": 2074.975,
      "d": 414.9949999999999,
      "v": 75
    },
    {
      "midi": 73,
      "hit": false,
      "t": 2074.975,
      "d": 414.9949999999999,
      "v": 75
    },
    {
      "midi": 76,
      "hit": false,
      "t": 2074.975,
      "d": 414.9949999999999,
      "v": 90
    },
    {
      "midi": 49,
      "hit": false,
      "t": 2074.975,
      "d": 414.9949999999999,
      "v": 70
    },
    {
      "midi": 52,
      "hit": false,
      "t": 2074.975,
      "d": 414.9949999999999,
      "v": 70
    },
    {
      "midi": 59,
      "hit": false,
      "t": 2074.975,
      "d": 414.9949999999999,
      "v": 70
    },
    {
      "midi": 61,
      "hit": false,
      "t": 2074.975,
      "d": 414.9949999999999,
      "v": 84
    },
    {
      "midi": 66,
      "hit": false,
      "t": 3319.9599999999996,
      "d": 1556.2312500000003,
      "v": 95
    },
    {
      "midi": 42,
      "hit": false,
      "t": 3319.9599999999996,
      "d": 1556.2312500000003,
      "v": 77
    },
    {
      "midi": 54,
      "hit": false,
      "t": 3319.9599999999996,
      "d": 1556.2312500000003,
      "v": 90
    },
    {
      "midi": 73,
      "hit": false,
      "t": 4149.95,
      "d": 829.9899999999998,
      "v": 82
    },
    {
      "midi": 78,
      "hit": false,
      "t": 4149.95,
      "d": 829.9899999999998,
      "v": 98
    },
    {
      "midi": 57,
      "hit": false,
      "t": 4149.95,
      "d": 829.9899999999998,
      "v": 69
    },
    {
      "midi": 61,
      "hit": false,
      "t": 4149.95,
      "d": 829.9899999999998,
      "v": 69
    },
    {
      "midi": 69,
      "hit": false,
      "t": 4149.95,
      "d": 829.9899999999998,
      "v": 82
    },
    {
      "midi": 56,
      "hit": false,
      "t": 4876.19125,
      "d": 103.74874999999975,
      "v": 92
    },
    {
      "midi": 32,
      "hit": false,
      "t": 4876.19125,
      "d": 103.74874999999975,
      "v": 66
    },
    {
      "midi": 44,
      "hit": false,
      "t": 4876.19125,
      "d": 103.74874999999975,
      "v": 79
    },
    {
      "midi": 60,
      "hit": false,
      "t": 4979.94,
      "d": 829.9899999999998,
      "v": 98
    },
    {
      "midi": 36,
      "hit": false,
      "t": 4979.94,
      "d": 829.9899999999998,
      "v": 74
    },
    {
      "midi": 48,
      "hit": false,
      "t": 4979.94,
      "d": 829.9899999999998,
      "v": 88
    },
    {
      "midi": 69,
      "hit": false,
      "t": 5394.9349999999995,
      "d": 414.9949999999999,
      "v": 75
    },
    {
      "midi": 76,
      "hit": false,
      "t": 5394.9349999999995,
      "d": 414.9949999999999,
      "v": 75
    },
    {
      "midi": 78,
      "hit": false,
      "t": 5394.9349999999995,
      "d": 414.9949999999999,
      "v": 75
    },
    {
      "midi": 81,
      "hit": false,
      "t": 5394.9349999999995,
      "d": 414.9949999999999,
      "v": 90
    },
    {
      "midi": 54,
      "hit": false,
      "t": 5394.9349999999995,
      "d": 414.9949999999999,
      "v": 70
    },
    {
      "midi": 57,
      "hit": false,
      "t": 5394.9349999999995,
      "d": 414.9949999999999,
      "v": 70
    },
    {
      "midi": 64,
      "hit": false,
      "t": 5394.9349999999995,
      "d": 414.9949999999999,
      "v": 70
    },
    {
      "midi": 66,
      "hit": false,
      "t": 5394.9349999999995,
      "d": 414.9949999999999,
      "v": 84
    },
    {
      "midi": 76,
      "hit": false,
      "t": 6639.919999999999,
      "d": 1659.9800000000005,
      "v": 95
    },
    {
      "midi": 52,
      "hit": false,
      "t": 6639.919999999999,
      "d": 1659.9800000000005,
      "v": 95
    },
    {
      "midi": 64,
      "hit": false,
      "t": 6639.919999999999,
      "d": 1659.9800000000005,
      "v": 95
    },
    {
      "midi": 70,
      "hit": false,
      "t": 7469.909999999999,
      "d": 829.9900000000007,
      "v": 76
    },
    {
      "midi": 73,
      "hit": false,
      "t": 7469.909999999999,
      "d": 829.9900000000007,
      "v": 76
    },
    {
      "midi": 80,
      "hit": false,
      "t": 7469.909999999999,
      "d": 829.9900000000007,
      "v": 76
    },
    {
      "midi": 82,
      "hit": false,
      "t": 7469.909999999999,
      "d": 829.9900000000007,
      "v": 91
    },
    {
      "midi": 56,
      "hit": false,
      "t": 7469.909999999999,
      "d": 829.9900000000007,
      "v": 67
    },
    {
      "midi": 58,
      "hit": false,
      "t": 7469.909999999999,
      "d": 829.9900000000007,
      "v": 67
    },
    {
      "midi": 61,
      "hit": false,
      "t": 7469.909999999999,
      "d": 829.9900000000007,
      "v": 67
    },
    {
      "midi": 68,
      "hit": false,
      "t": 7469.909999999999,
      "d": 829.9900000000007,
      "v": 78
    },
    {
      "midi": 63,
      "hit": false,
      "t": 8299.9,
      "d": 1659.9799999999996,
      "v": 95
    },
    {
      "midi": 75,
      "hit": false,
      "t": 8299.9,
      "d": 1659.9799999999996,
      "v": 95
    },
    {
      "midi": 39,
      "hit": false,
      "t": 8299.9,
      "d": 1659.9799999999996,
      "v": 95
    },
    {
      "midi": 51,
      "hit": false,
      "t": 8299.9,
      "d": 1659.9799999999996,
      "v": 95
    },
    {
      "midi": 72,
      "hit": false,
      "t": 9129.89,
      "d": 829.9899999999998,
      "v": 76
    },
    {
      "midi": 78,
      "hit": false,
      "t": 9129.89,
      "d": 829.9899999999998,
      "v": 76
    },
    {
      "midi": 80,
      "hit": false,
      "t": 9129.89,
      "d": 829.9899999999998,
      "v": 76
    },
    {
      "midi": 84,
      "hit": false,
      "t": 9129.89,
      "d": 829.9899999999998,
      "v": 90
    },
    {
      "midi": 54,
      "hit": false,
      "t": 9129.89,
      "d": 829.9899999999998,
      "v": 69
    },
    {
      "midi": 56,
      "hit": false,
      "t": 9129.89,
      "d": 829.9899999999998,
      "v": 69
    },
    {
      "midi": 60,
      "hit": false,
      "t": 9129.89,
      "d": 829.9899999999998,
      "v": 69
    },
    {
      "midi": 66,
      "hit": false,
      "t": 9129.89,
      "d": 829.9899999999998,
      "v": 82
    },
    {
      "midi": 73,
      "hit": false,
      "t": 9959.88,
      "d": 414.9950000000008,
      "v": 95
    },
    {
      "midi": 61,
      "hit": false,
      "t": 9959.88,
      "d": 1659.9800000000014,
      "v": 95
    },
    {
      "midi": 37,
      "hit": false,
      "t": 9959.88,
      "d": 1659.9800000000014,
      "v": 95
    },
    {
      "midi": 49,
      "hit": false,
      "t": 9959.88,
      "d": 1659.9800000000014,
      "v": 95
    },
    {
      "midi": 73,
      "hit": false,
      "t": 10374.875,
      "d": 1244.9850000000006,
      "v": 80
    },
    {
      "midi": 76,
      "hit": false,
      "t": 10374.875,
      "d": 1244.9850000000006,
      "v": 80
    },
    {
      "midi": 80,
      "hit": false,
      "t": 10374.875,
      "d": 1244.9850000000006,
      "v": 80
    },
    {
      "midi": 85,
      "hit": false,
      "t": 10374.875,
      "d": 1244.9850000000006,
      "v": 96
    },
    {
      "midi": 52,
      "hit": false,
      "t": 10374.875,
      "d": 1244.9850000000006,
      "v": 72
    },
    {
      "midi": 56,
      "hit": false,
      "t": 10374.875,
      "d": 1244.9850000000006,
      "v": 72
    },
    {
      "midi": 61,
      "hit": false,
      "t": 10374.875,
      "d": 1244.9850000000006,
      "v": 72
    },
    {
      "midi": 64,
      "hit": false,
      "t": 10374.875,
      "d": 1244.9850000000006,
      "v": 86
    },
    {
      "midi": 25,
      "hit": false,
      "t": 12242.3525,
      "d": 207.4974999999995,
      "v": 77
    },
    {
      "midi": 37,
      "hit": false,
      "t": 12242.3525,
      "d": 207.4974999999995,
      "v": 77
    },
    {
      "midi": 44,
      "hit": false,
      "t": 12449.85,
      "d": 138.33166666666693,
      "v": 87
    },
    {
      "midi": 56,
      "hit": false,
      "t": 12449.85,
      "d": 138.33166666666693,
      "v": 87
    },
    {
      "midi": 49,
      "hit": false,
      "t": 12588.181666666667,
      "d": 138.33166666666693,
      "v": 63
    },
    {
      "midi": 44,
      "hit": false,
      "t": 12726.513333333334,
      "d": 138.33166666666693,
      "v": 69
    },
    {
      "midi": 37,
      "hit": false,
      "t": 12864.845000000001,
      "d": 138.33166666666693,
      "v": 69
    },
    {
      "midi": 25,
      "hit": false,
      "t": 13003.176666666668,
      "d": 138.33166666666693,
      "v": 62
    },
    {
      "midi": 44,
      "hit": false,
      "t": 13141.508333333335,
      "d": 138.33166666666693,
      "v": 69
    },
    {
      "midi": 52,
      "hit": false,
      "t": 13279.84,
      "d": 829.9899999999998,
      "v": 69
    },
    {
      "midi": 64,
      "hit": false,
      "t": 13279.84,
      "d": 829.9899999999998,
      "v": 81
    },
    {
      "midi": 56,
      "hit": false,
      "t": 13279.840000000002,
      "d": 138.33166666666693,
      "v": 80
    },
    {
      "midi": 49,
      "hit": false,
      "t": 13418.171666666669,
      "d": 138.33166666666693,
      "v": 63
    },
    {
      "midi": 44,
      "hit": false,
      "t": 13556.503333333336,
      "d": 138.33166666666693,
      "v": 68
    },
    {
      "midi": 37,
      "hit": false,
      "t": 13694.835000000003,
      "d": 138.33166666666693,
      "v": 69
    },
    {
      "midi": 25,
      "hit": false,
      "t": 13833.16666666667,
      "d": 138.33166666666693,
      "v": 62
    },
    {
      "midi": 44,
      "hit": false,
      "t": 13971.498333333337,
      "d": 138.33166666666693,
      "v": 72
    },
    {
      "midi": 52,
      "hit": false,
      "t": 14109.83,
      "d": 829.9899999999998,
      "v": 73
    },
    {
      "midi": 64,
      "hit": false,
      "t": 14109.83,
      "d": 829.9899999999998,
      "v": 86
    },
    {
      "midi": 56,
      "hit": false,
      "t": 14109.830000000004,
      "d": 138.33166666666693,
      "v": 85
    },
    {
      "midi": 49,
      "hit": false,
      "t": 14248.16166666667,
      "d": 138.33166666666693,
      "v": 67
    },
    {
      "midi": 44,
      "hit": false,
      "t": 14386.493333333337,
      "d": 138.33166666666693,
      "v": 74
    },
    {
      "midi": 37,
      "hit": false,
      "t": 14524.825000000004,
      "d": 138.33166666666693,
      "v": 75
    },
    {
      "midi": 25,
      "hit": false,
      "t": 14663.156666666671,
      "d": 138.33166666666693,
      "v": 66
    },
    {
      "midi": 44,
      "hit": false,
      "t": 14801.488333333338,
      "d": 138.33166666666693,
      "v": 77
    },
    {
      "midi": 52,
      "hit": false,
      "t": 14939.82,
      "d": 829.9899999999998,
      "v": 71
    },
    {
      "midi": 64,
      "hit": false,
      "t": 14939.82,
      "d": 829.9899999999998,
      "v": 83
    },
    {
      "midi": 56,
      "hit": false,
      "t": 14939.820000000005,
      "d": 138.33166666666693,
      "v": 83
    },
    {
      "midi": 49,
      "hit": false,
      "t": 15078.151666666672,
      "d": 138.33166666666693,
      "v": 64
    },
    {
      "midi": 44,
      "hit": false,
      "t": 15216.483333333339,
      "d": 138.33166666666693,
      "v": 67
    },
    {
      "midi": 37,
      "hit": false,
      "t": 15354.815000000006,
      "d": 138.33166666666693,
      "v": 68
    },
    {
      "midi": 25,
      "hit": false,
      "t": 15493.146666666673,
      "d": 138.33166666666693,
      "v": 58
    },
    {
      "midi": 44,
      "hit": false,
      "t": 15631.47833333334,
      "d": 138.33166666666693,
      "v": 65
    },
    {
      "midi": 52,
      "hit": false,
      "t": 15769.81,
      "d": 829.9899999999998,
      "v": 64
    },
    {
      "midi": 64,
      "hit": false,
      "t": 15769.81,
      "d": 829.9899999999998,
      "v": 77
    },
    {
      "midi": 56,
      "hit": false,
      "t": 15769.810000000007,
      "d": 138.33166666666693,
      "v": 76
    },
    {
      "midi": 49,
      "hit": false,
      "t": 15908.141666666674,
      "d": 138.33166666666693,
      "v": 58
    },
    {
      "midi": 44,
      "hit": false,
      "t": 16046.47333333334,
      "d": 138.33166666666693,
      "v": 63
    },
    {
      "midi": 37,
      "hit": false,
      "t": 16184.805000000008,
      "d": 138.33166666666693,
      "v": 61
    },
    {
      "midi": 25,
      "hit": false,
      "t": 16323.136666666675,
      "d": 138.33166666666693,
      "v": 54
    },
    {
      "midi": 44,
      "hit": false,
      "t": 16461.46833333334,
      "d": 138.33166666666511,
      "v": 59
    },
    {
      "midi": 56,
      "hit": false,
      "t": 16599.8,
      "d": 1659.979999999996,
      "v": 58
    },
    {
      "midi": 61,
      "hit": false,
      "t": 16599.8,
      "d": 1659.979999999996,
      "v": 68
    },
    {
      "midi": 49,
      "hit": false,
      "t": 16599.800000000007,
      "d": 829.9899999999907,
      "v": 68
    },
    {
      "midi": 44,
      "hit": false,
      "t": 16738.13166666667,
      "d": 138.33166666666511,
      "v": 39
    },
    {
      "midi": 65,
      "hit": false,
      "t": 16876.463333333333,
      "d": 138.33166666666511,
      "v": 44
    },
    {
      "midi": 69,
      "hit": false,
      "t": 16876.463333333333,
      "d": 138.33166666666511,
      "v": 44
    },
    {
      "midi": 77,
      "hit": false,
      "t": 16876.463333333333,
      "d": 138.33166666666511,
      "v": 52
    },
    {
      "midi": 37,
      "hit": false,
      "t": 16876.463333333337,
      "d": 138.33166666666511,
      "v": 43
    },
    {
      "midi": 64,
      "hit": false,
      "t": 17014.795,
      "d": 691.6583333333328,
      "v": 44
    },
    {
      "midi": 73,
      "hit": false,
      "t": 17014.795,
      "d": 691.6583333333328,
      "v": 44
    },
    {
      "midi": 76,
      "hit": false,
      "t": 17014.795,
      "d": 691.6583333333328,
      "v": 53
    },
    {
      "midi": 25,
      "hit": false,
      "t": 17014.795000000002,
      "d": 138.33166666666511,
      "v": 44
    },
    {
      "midi": 37,
      "hit": false,
      "t": 17153.126666666667,
      "d": 138.33166666666511,
      "v": 39
    },
    {
      "midi": 44,
      "hit": false,
      "t": 17291.458333333332,
      "d": 138.33166666666511,
      "v": 45
    },
    {
      "midi": 56,
      "hit": false,
      "t": 17429.789999999997,
      "d": 138.33166666666511,
      "v": 50
    },
    {
      "midi": 49,
      "hit": false,
      "t": 17568.121666666662,
      "d": 138.33166666666511,
      "v": 44
    },
    {
      "midi": 44,
      "hit": false,
      "t": 17706.453333333327,
      "d": 138.33166666666511,
      "v": 48
    },
    {
      "midi": 65,
      "hit": false,
      "t": 17706.45333333333,
      "d": 138.33166666666511,
      "v": 49
    },
    {
      "midi": 69,
      "hit": false,
      "t": 17706.45333333333,
      "d": 138.33166666666511,
      "v": 49
    },
    {
      "midi": 77,
      "hit": false,
      "t": 17706.45333333333,
      "d": 138.33166666666511,
      "v": 58
    },
    {
      "midi": 37,
      "hit": false,
      "t": 17844.784999999993,
      "d": 138.33166666666511,
      "v": 49
    },
    {
      "midi": 64,
      "hit": false,
      "t": 17844.784999999996,
      "d": 691.6583333333328,
      "v": 51
    },
    {
      "midi": 73,
      "hit": false,
      "t": 17844.784999999996,
      "d": 691.6583333333328,
      "v": 51
    },
    {
      "midi": 76,
      "hit": false,
      "t": 17844.784999999996,
      "d": 691.6583333333328,
      "v": 61
    },
    {
      "midi": 25,
      "hit": false,
      "t": 17983.116666666658,
      "d": 138.33166666666511,
      "v": 43
    },
    {
      "midi": 44,
      "hit": false,
      "t": 18121.448333333323,
      "d": 138.33166666666511,
      "v": 50
    },
    {
      "midi": 56,
      "hit": false,
      "t": 18259.779999999988,
      "d": 138.33166666666511,
      "v": 55
    },
    {
      "midi": 49,
      "hit": false,
      "t": 18398.111666666653,
      "d": 138.33166666666511,
      "v": 47
    },
    {
      "midi": 44,
      "hit": false,
      "t": 18536.443333333318,
      "d": 138.33166666666511,
      "v": 52
    },
    {
      "midi": 65,
      "hit": false,
      "t": 18536.44333333333,
      "d": 138.33166666666511,
      "v": 55
    },
    {
      "midi": 69,
      "hit": false,
      "t": 18536.44333333333,
      "d": 138.33166666666511,
      "v": 55
    },
    {
      "midi": 77,
      "hit": false,
      "t": 18536.44333333333,
      "d": 138.33166666666511,
      "v": 66
    },
    {
      "midi": 37,
      "hit": false,
      "t": 18674.774999999983,
      "d": 138.33166666666511,
      "v": 52
    },
    {
      "midi": 64,
      "hit": false,
      "t": 18674.774999999994,
      "d": 691.6583333333328,
      "v": 57
    },
    {
      "midi": 73,
      "hit": false,
      "t": 18674.774999999994,
      "d": 691.6583333333328,
      "v": 57
    },
    {
      "midi": 76,
      "hit": false,
      "t": 18674.774999999994,
      "d": 691.6583333333328,
      "v": 68
    },
    {
      "midi": 25,
      "hit": false,
      "t": 18813.10666666665,
      "d": 138.33166666666511,
      "v": 47
    },
    {
      "midi": 44,
      "hit": false,
      "t": 18951.438333333313,
      "d": 138.33166666666511,
      "v": 55
    },
    {
      "midi": 56,
      "hit": false,
      "t": 19089.76999999998,
      "d": 138.33166666666511,
      "v": 58
    },
    {
      "midi": 49,
      "hit": false,
      "t": 19228.101666666644,
      "d": 138.33166666666511,
      "v": 51
    },
    {
      "midi": 44,
      "hit": false,
      "t": 19366.43333333331,
      "d": 138.33166666666511,
      "v": 55
    },
    {
      "midi": 65,
      "hit": false,
      "t": 19366.433333333327,
      "d": 138.33166666666511,
      "v": 61
    },
    {
      "midi": 69,
      "hit": false,
      "t": 19366.433333333327,
      "d": 138.33166666666511,
      "v": 61
    },
    {
      "midi": 77,
      "hit": false,
      "t": 19366.433333333327,
      "d": 138.33166666666511,
      "v": 73
    },
    {
      "midi": 37,
      "hit": false,
      "t": 19504.764999999974,
      "d": 138.33166666666511,
      "v": 57
    },
    {
      "midi": 64,
      "hit": false,
      "t": 19504.764999999992,
      "d": 622.4925000000003,
      "v": 63
    },
    {
      "midi": 73,
      "hit": false,
      "t": 19504.764999999992,
      "d": 622.4925000000003,
      "v": 63
    },
    {
      "midi": 76,
      "hit": false,
      "t": 19504.764999999992,
      "d": 622.4925000000003,
      "v": 75
    },
    {
      "midi": 25,
      "hit": false,
      "t": 19643.09666666664,
      "d": 138.33166666666511,
      "v": 50
    },
    {
      "midi": 44,
      "hit": false,
      "t": 19781.428333333304,
      "d": 138.33166666666511,
      "v": 58
    },
    {
      "midi": 56,
      "hit": false,
      "t": 19919.75999999997,
      "d": 138.33166666666511,
      "v": 64
    },
    {
      "midi": 49,
      "hit": false,
      "t": 20058.091666666634,
      "d": 138.33166666666511,
      "v": 54
    },
    {
      "midi": 65,
      "hit": false,
      "t": 20127.257499999992,
      "d": 207.4975000000013,
      "v": 67
    },
    {
      "midi": 69,
      "hit": false,
      "t": 20127.257499999992,
      "d": 207.4975000000013,
      "v": 67
    },
    {
      "midi": 77,
      "hit": false,
      "t": 20127.257499999992,
      "d": 207.4975000000013,
      "v": 81
    },
    {
      "midi": 44,
      "hit": false,
      "t": 20196.4233333333,
      "d": 138.33166666666511,
      "v": 59
    },
    {
      "midi": 37,
      "hit": false,
      "t": 20334.754999999965,
      "d": 138.33166666666511,
      "v": 60
    },
    {
      "midi": 64,
      "hit": false,
      "t": 20334.754999999994,
      "d": 207.4975000000013,
      "v": 68
    },
    {
      "midi": 73,
      "hit": false,
      "t": 20334.754999999994,
      "d": 207.4975000000013,
      "v": 68
    },
    {
      "midi": 76,
      "hit": false,
      "t": 20334.754999999994,
      "d": 207.4975000000013,
      "v": 81
    },
    {
      "midi": 25,
      "hit": false,
      "t": 20473.08666666663,
      "d": 138.33166666666511,
      "v": 54
    },
    {
      "midi": 65,
      "hit": false,
      "t": 20542.252499999995,
      "d": 207.4975000000013,
      "v": 72
    },
    {
      "midi": 69,
      "hit": false,
      "t": 20542.252499999995,
      "d": 207.4975000000013,
      "v": 72
    },
    {
      "midi": 77,
      "hit": false,
      "t": 20542.252499999995,
      "d": 207.4975000000013,
      "v": 84
    },
    {
      "midi": 44,
      "hit": false,
      "t": 20611.418333333295,
      "d": 138.33166666666511,
      "v": 62
    },
    {
      "midi": 56,
      "hit": false,
      "t": 20749.74999999996,
      "d": 138.33166666666511,
      "v": 65
    },
    {
      "midi": 64,
      "hit": false,
      "t": 20749.749999999996,
      "d": 207.4975000000013,
      "v": 72
    },
    {
      "midi": 73,
      "hit": false,
      "t": 20749.749999999996,
      "d": 207.4975000000013,
      "v": 72
    },
    {
      "midi": 76,
      "hit": false,
      "t": 20749.749999999996,
      "d": 207.4975000000013,
      "v": 86
    },
    {
      "midi": 49,
      "hit": false,
      "t": 20888.081666666625,
      "d": 138.33166666666511,
      "v": 58
    },
    {
      "midi": 65,
      "hit": false,
      "t": 20957.247499999998,
      "d": 207.4975000000013,
      "v": 74
    },
    {
      "midi": 69,
      "hit": false,
      "t": 20957.247499999998,
      "d": 207.4975000000013,
      "v": 74
    },
    {
      "midi": 77,
      "hit": false,
      "t": 20957.247499999998,
      "d": 207.4975000000013,
      "v": 87
    },
    {
      "midi": 44,
      "hit": false,
      "t": 21026.41333333329,
      "d": 138.33166666666511,
      "v": 64
    },
    {
      "midi": 37,
      "hit": false,
      "t": 21164.744999999955,
      "d": 138.33166666666511,
      "v": 64
    },
    {
      "midi": 64,
      "hit": false,
      "t": 21164.745,
      "d": 207.4975000000013,
      "v": 75
    },
    {
      "midi": 73,
      "hit": false,
      "t": 21164.745,
      "d": 207.4975000000013,
      "v": 75
    },
    {
      "midi": 76,
      "hit": false,
      "t": 21164.745,
      "d": 207.4975000000013,
      "v": 90
    },
    {
      "midi": 25,
      "hit": false,
      "t": 21303.07666666662,
      "d": 138.33166666666511,
      "v": 58
    },
    {
      "midi": 65,
      "hit": false,
      "t": 21372.2425,
      "d": 207.4975000000013,
      "v": 76
    },
    {
      "midi": 69,
      "hit": false,
      "t": 21372.2425,
      "d": 207.4975000000013,
      "v": 76
    },
    {
      "midi": 77,
      "hit": false,
      "t": 21372.2425,
      "d": 207.4975000000013,
      "v": 91
    },
    {
      "midi": 44,
      "hit": false,
      "t": 21441.408333333286,
      "d": 138.33166666666511,
      "v": 65
    },
    {
      "midi": 56,
      "hit": false,
      "t": 21579.73999999995,
      "d": 138.33166666666511,
      "v": 70
    },
    {
      "midi": 64,
      "hit": false,
      "t": 21579.74,
      "d": 207.4975000000013,
      "v": 78
    },
    {
      "midi": 73,
      "hit": false,
      "t": 21579.74,
      "d": 207.4975000000013,
      "v": 78
    },
    {
      "midi": 76,
      "hit": false,
      "t": 21579.74,
      "d": 207.4975000000013,
      "v": 92
    },
    {
      "midi": 49,
      "hit": false,
      "t": 21718.071666666616,
      "d": 138.33166666666511,
      "v": 61
    },
    {
      "midi": 65,
      "hit": false,
      "t": 21787.237500000003,
      "d": 207.4975000000013,
      "v": 81
    },
    {
      "midi": 69,
      "hit": false,
      "t": 21787.237500000003,
      "d": 207.4975000000013,
      "v": 81
    },
    {
      "midi": 77,
      "hit": false,
      "t": 21787.237500000003,
      "d": 207.4975000000013,
      "v": 95
    },
    {
      "midi": 44,
      "hit": false,
      "t": 21856.40333333328,
      "d": 138.33166666666511,
      "v": 67
    },
    {
      "midi": 37,
      "hit": false,
      "t": 21994.734999999946,
      "d": 138.33166666666511,
      "v": 68
    },
    {
      "midi": 64,
      "hit": false,
      "t": 21994.735000000004,
      "d": 207.4975000000013,
      "v": 81
    },
    {
      "midi": 73,
      "hit": false,
      "t": 21994.735000000004,
      "d": 207.4975000000013,
      "v": 81
    },
    {
      "midi": 76,
      "hit": false,
      "t": 21994.735000000004,
      "d": 207.4975000000013,
      "v": 96
    },
    {
      "midi": 25,
      "hit": false,
      "t": 22133.06666666661,
      "d": 138.33166666666511,
      "v": 60
    },
    {
      "midi": 65,
      "hit": false,
      "t": 22202.232500000006,
      "d": 207.4975000000013,
      "v": 83
    },
    {
      "midi": 69,
      "hit": false,
      "t": 22202.232500000006,
      "d": 207.4975000000013,
      "v": 83
    },
    {
      "midi": 77,
      "hit": false,
      "t": 22202.232500000006,
      "d": 207.4975000000013,
      "v": 99
    },
    {
      "midi": 44,
      "hit": false,
      "t": 22271.398333333276,
      "d": 138.33166666666511,
      "v": 68
    },
    {
      "midi": 49,
      "hit": false,
      "t": 22409.72999999994,
      "d": 414.994999999999,
      "v": 71
    },
    {
      "midi": 52,
      "hit": false,
      "t": 22409.72999999994,
      "d": 414.994999999999,
      "v": 71
    },
    {
      "midi": 56,
      "hit": false,
      "t": 22409.72999999994,
      "d": 414.994999999999,
      "v": 85
    },
    {
      "midi": 64,
      "hit": false,
      "t": 22409.730000000007,
      "d": 414.994999999999,
      "v": 96
    },
    {
      "midi": 73,
      "hit": false,
      "t": 22409.730000000007,
      "d": 414.994999999999,
      "v": 96
    },
    {
      "midi": 76,
      "hit": false,
      "t": 22409.730000000007,
      "d": 414.994999999999,
      "v": 114
    },
    {
      "midi": 40,
      "hit": false,
      "t": 26559.679999999942,
      "d": 1452.4824999999983,
      "v": 77
    },
    {
      "midi": 52,
      "hit": false,
      "t": 26559.679999999942,
      "d": 1452.4824999999983,
      "v": 90
    },
    {
      "midi": 64,
      "hit": false,
      "t": 26559.680000000008,
      "d": 1452.4824999999983,
      "v": 95
    },
    {
      "midi": 49,
      "hit": false,
      "t": 27285.92124999994,
      "d": 103.74874999999884,
      "v": 53
    },
    {
      "midi": 56,
      "hit": false,
      "t": 27285.92124999994,
      "d": 103.74874999999884,
      "v": 63
    },
    {
      "midi": 61,
      "hit": false,
      "t": 27285.921250000007,
      "d": 103.74874999999884,
      "v": 68
    },
    {
      "midi": 68,
      "hit": false,
      "t": 27285.921250000007,
      "d": 103.74874999999884,
      "v": 80
    },
    {
      "midi": 73,
      "hit": false,
      "t": 27285.921250000007,
      "d": 103.74874999999884,
      "v": 80
    },
    {
      "midi": 56,
      "hit": false,
      "t": 27389.66999999994,
      "d": 829.989999999998,
      "v": 82
    },
    {
      "midi": 61,
      "hit": false,
      "t": 27389.670000000006,
      "d": 829.989999999998,
      "v": 82
    },
    {
      "midi": 68,
      "hit": false,
      "t": 27389.670000000006,
      "d": 829.989999999998,
      "v": 82
    },
    {
      "midi": 73,
      "hit": false,
      "t": 27389.670000000006,
      "d": 829.989999999998,
      "v": 98
    },
    {
      "midi": 41,
      "hit": false,
      "t": 28012.16249999994,
      "d": 69.16583333333256,
      "v": 68
    },
    {
      "midi": 53,
      "hit": false,
      "t": 28012.162500000006,
      "d": 69.16583333333256,
      "v": 80
    },
    {
      "midi": 42,
      "hit": false,
      "t": 28081.328333333273,
      "d": 69.16583333333256,
      "v": 72
    },
    {
      "midi": 54,
      "hit": false,
      "t": 28081.32833333334,
      "d": 69.16583333333256,
      "v": 85
    },
    {
      "midi": 44,
      "hit": false,
      "t": 28150.494166666605,
      "d": 69.16583333333256,
      "v": 76
    },
    {
      "midi": 56,
      "hit": false,
      "t": 28150.49416666667,
      "d": 69.16583333333256,
      "v": 86
    },
    {
      "midi": 33,
      "hit": false,
      "t": 28219.659999999938,
      "d": 829.989999999998,
      "v": 74
    },
    {
      "midi": 45,
      "hit": false,
      "t": 28219.659999999938,
      "d": 829.989999999998,
      "v": 88
    },
    {
      "midi": 57,
      "hit": false,
      "t": 28219.660000000003,
      "d": 829.989999999998,
      "v": 98
    },
    {
      "midi": 52,
      "hit": false,
      "t": 28634.654999999937,
      "d": 414.994999999999,
      "v": 70
    },
    {
      "midi": 57,
      "hit": false,
      "t": 28634.654999999937,
      "d": 414.994999999999,
      "v": 70
    },
    {
      "midi": 61,
      "hit": false,
      "t": 28634.654999999937,
      "d": 414.994999999999,
      "v": 70
    },
    {
      "midi": 64,
      "hit": false,
      "t": 28634.654999999937,
      "d": 414.994999999999,
      "v": 84
    },
    {
      "midi": 73,
      "hit": false,
      "t": 28634.655000000002,
      "d": 414.994999999999,
      "v": 75
    },
    {
      "midi": 76,
      "hit": false,
      "t": 28634.655000000002,
      "d": 414.994999999999,
      "v": 75
    },
    {
      "midi": 81,
      "hit": false,
      "t": 28634.655000000002,
      "d": 414.994999999999,
      "v": 75
    },
    {
      "midi": 85,
      "hit": false,
      "t": 28634.655000000002,
      "d": 414.994999999999,
      "v": 90
    },
    {
      "midi": 61,
      "hit": false,
      "t": 29879.640000000003,
      "d": 1452.4824999999983,
      "v": 84
    },
    {
      "midi": 73,
      "hit": false,
      "t": 29879.640000000003,
      "d": 1452.4824999999983,
      "v": 95
    },
    {
      "midi": 52,
      "hit": false,
      "t": 30605.881249999937,
      "d": 103.74874999999884,
      "v": 53
    },
    {
      "midi": 57,
      "hit": false,
      "t": 30605.881249999937,
      "d": 103.74874999999884,
      "v": 63
    },
    {
      "midi": 64,
      "hit": false,
      "t": 30605.881250000002,
      "d": 103.74874999999884,
      "v": 68
    },
    {
      "midi": 69,
      "hit": false,
      "t": 30605.881250000002,
      "d": 103.74874999999884,
      "v": 80
    },
    {
      "midi": 76,
      "hit": false,
      "t": 30605.881250000002,
      "d": 103.74874999999884,
      "v": 80
    },
    {
      "midi": 49,
      "hit": false,
      "t": 30709.629999999936,
      "d": 622.4925000000003,
      "v": 69
    },
    {
      "midi": 57,
      "hit": false,
      "t": 30709.629999999936,
      "d": 829.989999999998,
      "v": 82
    },
    {
      "midi": 69,
      "hit": false,
      "t": 30709.63,
      "d": 829.989999999998,
      "v": 82
    },
    {
      "midi": 76,
      "hit": false,
      "t": 30709.63,
      "d": 829.989999999998,
      "v": 98
    },
    {
      "midi": 51,
      "hit": false,
      "t": 31332.122499999936,
      "d": 69.16583333333256,
      "v": 68
    },
    {
      "midi": 63,
      "hit": false,
      "t": 31332.1225,
      "d": 69.16583333333256,
      "v": 80
    },
    {
      "midi": 52,
      "hit": false,
      "t": 31401.28833333327,
      "d": 69.16583333333256,
      "v": 72
    },
    {
      "midi": 64,
      "hit": false,
      "t": 31401.288333333334,
      "d": 69.16583333333256,
      "v": 85
    },
    {
      "midi": 54,
      "hit": false,
      "t": 31470.4541666666,
      "d": 69.16583333333256,
      "v": 76
    },
    {
      "midi": 66,
      "hit": false,
      "t": 31470.454166666666,
      "d": 69.16583333333256,
      "v": 86
    },
    {
      "midi": 43,
      "hit": false,
      "t": 31539.619999999933,
      "d": 829.989999999998,
      "v": 74
    },
    {
      "midi": 55,
      "hit": false,
      "t": 31539.619999999933,
      "d": 829.989999999998,
      "v": 88
    },
    {
      "midi": 67,
      "hit": false,
      "t": 31539.62,
      "d": 829.989999999998,
      "v": 98
    },
    {
      "midi": 61,
      "hit": false,
      "t": 31954.614999999932,
      "d": 414.994999999999,
      "v": 70
    },
    {
      "midi": 64,
      "hit": false,
      "t": 31954.614999999932,
      "d": 414.994999999999,
      "v": 70
    },
    {
      "midi": 71,
      "hit": false,
      "t": 31954.614999999932,
      "d": 414.994999999999,
      "v": 84
    },
    {
      "midi": 76,
      "hit": false,
      "t": 31954.614999999998,
      "d": 414.994999999999,
      "v": 75
    },
    {
      "midi": 83,
      "hit": false,
      "t": 31954.614999999998,
      "d": 414.994999999999,
      "v": 75
    },
    {
      "midi": 85,
      "hit": false,
      "t": 31954.614999999998,
      "d": 414.994999999999,
      "v": 75
    },
    {
      "midi": 88,
      "hit": false,
      "t": 31954.614999999998,
      "d": 414.994999999999,
      "v": 90
    },
    {
      "midi": 47,
      "hit": false,
      "t": 32992.10249999993,
      "d": 69.16583333333256,
      "v": 72
    },
    {
      "midi": 59,
      "hit": false,
      "t": 32992.10249999993,
      "d": 69.16583333333256,
      "v": 72
    },
    {
      "midi": 71,
      "hit": false,
      "t": 32992.10249999999,
      "d": 69.16583333333256,
      "v": 77
    },
    {
      "midi": 64,
      "hit": false,
      "t": 33061.26833333326,
      "d": 69.16583333333256,
      "v": 78
    },
    {
      "midi": 76,
      "hit": false,
      "t": 33061.268333333326,
      "d": 69.16583333333256,
      "v": 79
    },
    {
      "midi": 67,
      "hit": false,
      "t": 33130.43416666659,
      "d": 69.16583333333256,
      "v": 80
    },
    {
      "midi": 79,
      "hit": false,
      "t": 33130.43416666666,
      "d": 69.16583333333256,
      "v": 80
    },
    {
      "midi": 59,
      "hit": false,
      "t": 33199.599999999926,
      "d": 1659.979999999996,
      "v": 95
    },
    {
      "midi": 71,
      "hit": false,
      "t": 33199.599999999926,
      "d": 1659.979999999996,
      "v": 95
    },
    {
      "midi": 83,
      "hit": false,
      "t": 33199.59999999999,
      "d": 1659.979999999996,
      "v": 95
    },
    {
      "midi": 63,
      "hit": false,
      "t": 34029.589999999924,
      "d": 829.989999999998,
      "v": 67
    },
    {
      "midi": 65,
      "hit": false,
      "t": 34029.589999999924,
      "d": 829.989999999998,
      "v": 67
    },
    {
      "midi": 68,
      "hit": false,
      "t": 34029.589999999924,
      "d": 829.989999999998,
      "v": 67
    },
    {
      "midi": 75,
      "hit": false,
      "t": 34029.589999999924,
      "d": 829.989999999998,
      "v": 78
    },
    {
      "midi": 77,
      "hit": false,
      "t": 34029.58999999999,
      "d": 829.989999999998,
      "v": 76
    },
    {
      "midi": 80,
      "hit": false,
      "t": 34029.58999999999,
      "d": 829.989999999998,
      "v": 76
    },
    {
      "midi": 87,
      "hit": false,
      "t": 34029.58999999999,
      "d": 829.989999999998,
      "v": 76
    },
    {
      "midi": 89,
      "hit": false,
      "t": 34029.58999999999,
      "d": 829.989999999998,
      "v": 91
    },
    {
      "midi": 58,
      "hit": false,
      "t": 34859.57999999992,
      "d": 1659.979999999996,
      "v": 95
    },
    {
      "midi": 70,
      "hit": false,
      "t": 34859.57999999992,
      "d": 1659.979999999996,
      "v": 95
    },
    {
      "midi": 82,
      "hit": false,
      "t": 34859.57999999999,
      "d": 1659.979999999996,
      "v": 95
    },
    {
      "midi": 61,
      "hit": false,
      "t": 35689.56999999992,
      "d": 829.989999999998,
      "v": 69
    },
    {
      "midi": 63,
      "hit": false,
      "t": 35689.56999999992,
      "d": 829.989999999998,
      "v": 69
    },
    {
      "midi": 67,
      "hit": false,
      "t": 35689.56999999992,
      "d": 829.989999999998,
      "v": 69
    },
    {
      "midi": 73,
      "hit": false,
      "t": 35689.56999999992,
      "d": 829.989999999998,
      "v": 82
    },
    {
      "midi": 79,
      "hit": false,
      "t": 35689.569999999985,
      "d": 829.989999999998,
      "v": 76
    },
    {
      "midi": 85,
      "hit": false,
      "t": 35689.569999999985,
      "d": 829.989999999998,
      "v": 76
    },
    {
      "midi": 87,
      "hit": false,
      "t": 35689.569999999985,
      "d": 829.989999999998,
      "v": 76
    },
    {
      "midi": 91,
      "hit": false,
      "t": 35689.569999999985,
      "d": 829.989999999998,
      "v": 90
    },
    {
      "midi": 71,
      "hit": false,
      "t": 36519.55999999992,
      "d": 1659.9800000000032,
      "v": 95
    },
    {
      "midi": 56,
      "hit": false,
      "t": 36519.55999999992,
      "d": 2489.970000000001,
      "v": 87
    },
    {
      "midi": 63,
      "hit": false,
      "t": 36519.55999999992,
      "d": 2489.970000000001,
      "v": 87
    },
    {
      "midi": 80,
      "hit": false,
      "t": 36519.55999999998,
      "d": 397.7035416666695,
      "v": 95
    },
    {
      "midi": 68,
      "hit": false,
      "t": 36519.55999999998,
      "d": 2489.970000000001,
      "v": 87
    },
    {
      "midi": 75,
      "hit": false,
      "t": 36519.55999999998,
      "d": 2489.970000000001,
      "v": 87
    },
    {
      "midi": 68,
      "hit": false,
      "t": 36934.55499999992,
      "d": 2074.9749999999985,
      "v": 75
    },
    {
      "midi": 75,
      "hit": false,
      "t": 36934.55499999992,
      "d": 2074.9749999999985,
      "v": 75
    },
    {
      "midi": 83,
      "hit": false,
      "t": 36934.55499999992,
      "d": 2074.9749999999985,
      "v": 90
    },
    {
      "midi": 80,
      "hit": false,
      "t": 36934.554999999986,
      "d": 2074.9749999999985,
      "v": 84
    },
    {
      "midi": 87,
      "hit": false,
      "t": 36934.554999999986,
      "d": 2074.9749999999985,
      "v": 84
    },
    {
      "midi": 92,
      "hit": false,
      "t": 36934.554999999986,
      "d": 2074.9749999999985,
      "v": 101
    },
    {
      "midi": 76,
      "hit": false,
      "t": 39217.02749999992,
      "d": 103.74874999999884,
      "v": 71
    },
    {
      "midi": 88,
      "hit": false,
      "t": 39217.02749999998,
      "d": 103.74874999999884,
      "v": 84
    },
    {
      "midi": 75,
      "hit": false,
      "t": 39320.776249999915,
      "d": 103.74874999999884,
      "v": 64
    },
    {
      "midi": 87,
      "hit": false,
      "t": 39320.77624999998,
      "d": 103.74874999999884,
      "v": 76
    },
    {
      "midi": 73,
      "hit": false,
      "t": 39424.524999999914,
      "d": 103.74874999999884,
      "v": 66
    },
    {
      "midi": 85,
      "hit": false,
      "t": 39424.52499999998,
      "d": 103.74874999999884,
      "v": 78
    },
    {
      "midi": 71,
      "hit": false,
      "t": 39528.27374999991,
      "d": 103.74874999999884,
      "v": 63
    },
    {
      "midi": 83,
      "hit": false,
      "t": 39528.27374999998,
      "d": 103.74874999999884,
      "v": 75
    },
    {
      "midi": 70,
      "hit": false,
      "t": 39632.02249999991,
      "d": 103.74874999999884,
      "v": 68
    },
    {
      "midi": 82,
      "hit": false,
      "t": 39632.02249999998,
      "d": 103.74874999999884,
      "v": 81
    },
    {
      "midi": 68,
      "hit": false,
      "t": 39735.77124999991,
      "d": 103.74874999999884,
      "v": 62
    },
    {
      "midi": 80,
      "hit": false,
      "t": 39735.771249999976,
      "d": 103.74874999999884,
      "v": 73
    },
    {
      "midi": 67,
      "hit": false,
      "t": 39839.51999999991,
      "d": 103.74874999999884,
      "v": 64
    },
    {
      "midi": 79,
      "hit": false,
      "t": 39839.519999999975,
      "d": 103.74874999999884,
      "v": 76
    },
    {
      "midi": 68,
      "hit": false,
      "t": 39943.26874999991,
      "d": 103.74874999999884,
      "v": 62
    },
    {
      "midi": 80,
      "hit": false,
      "t": 39943.268749999974,
      "d": 103.74874999999884,
      "v": 74
    },
    {
      "midi": 76,
      "hit": false,
      "t": 40047.01749999991,
      "d": 103.74874999999884,
      "v": 71
    },
    {
      "midi": 88,
      "hit": false,
      "t": 40047.01749999997,
      "d": 103.74874999999884,
      "v": 84
    },
    {
      "midi": 75,
      "hit": false,
      "t": 40150.766249999906,
      "d": 103.74874999999884,
      "v": 64
    },
    {
      "midi": 87,
      "hit": false,
      "t": 40150.76624999997,
      "d": 103.74874999999884,
      "v": 76
    },
    {
      "midi": 73,
      "hit": false,
      "t": 40254.514999999905,
      "d": 103.74874999999884,
      "v": 65
    },
    {
      "midi": 85,
      "hit": false,
      "t": 40254.51499999997,
      "d": 103.74874999999884,
      "v": 77
    },
    {
      "midi": 71,
      "hit": false,
      "t": 40358.263749999904,
      "d": 103.74874999999884,
      "v": 60
    },
    {
      "midi": 83,
      "hit": false,
      "t": 40358.26374999997,
      "d": 103.74874999999884,
      "v": 71
    },
    {
      "midi": 70,
      "hit": false,
      "t": 40462.0124999999,
      "d": 103.74874999999884,
      "v": 68
    },
    {
      "midi": 82,
      "hit": false,
      "t": 40462.01249999997,
      "d": 103.74874999999884,
      "v": 81
    },
    {
      "midi": 68,
      "hit": false,
      "t": 40565.7612499999,
      "d": 103.74874999999884,
      "v": 68
    },
    {
      "midi": 80,
      "hit": false,
      "t": 40565.76124999997,
      "d": 103.74874999999884,
      "v": 81
    },
    {
      "midi": 66,
      "hit": false,
      "t": 40669.5099999999,
      "d": 103.74874999999884,
      "v": 68
    },
    {
      "midi": 78,
      "hit": false,
      "t": 40669.509999999966,
      "d": 103.74874999999884,
      "v": 81
    },
    {
      "midi": 64,
      "hit": false,
      "t": 40773.2587499999,
      "d": 103.74874999999884,
      "v": 67
    },
    {
      "midi": 76,
      "hit": false,
      "t": 40773.258749999964,
      "d": 103.74874999999884,
      "v": 79
    },
    {
      "midi": 63,
      "hit": false,
      "t": 40877.0074999999,
      "d": 103.74874999999884,
      "v": 66
    },
    {
      "midi": 75,
      "hit": false,
      "t": 40877.00749999996,
      "d": 103.74874999999884,
      "v": 78
    },
    {
      "midi": 61,
      "hit": false,
      "t": 40980.7562499999,
      "d": 103.74874999999884,
      "v": 65
    },
    {
      "midi": 73,
      "hit": false,
      "t": 40980.75624999996,
      "d": 103.74874999999884,
      "v": 77
    },
    {
      "midi": 59,
      "hit": false,
      "t": 41084.504999999896,
      "d": 103.74874999999884,
      "v": 65
    },
    {
      "midi": 71,
      "hit": false,
      "t": 41084.50499999996,
      "d": 103.74874999999884,
      "v": 77
    },
    {
      "midi": 58,
      "hit": false,
      "t": 41188.253749999894,
      "d": 103.74874999999884,
      "v": 64
    },
    {
      "midi": 70,
      "hit": false,
      "t": 41188.25374999996,
      "d": 103.74874999999884,
      "v": 76
    },
    {
      "midi": 57,
      "hit": false,
      "t": 41292.00249999989,
      "d": 103.74874999999884,
      "v": 62
    },
    {
      "midi": 69,
      "hit": false,
      "t": 41292.00249999996,
      "d": 103.74874999999884,
      "v": 73
    },
    {
      "midi": 56,
      "hit": false,
      "t": 41395.75124999989,
      "d": 103.74874999999884,
      "v": 60
    },
    {
      "midi": 68,
      "hit": false,
      "t": 41395.75124999996,
      "d": 103.74874999999884,
      "v": 71
    },
    {
      "midi": 55,
      "hit": false,
      "t": 41499.49999999989,
      "d": 103.74874999999884,
      "v": 58
    },
    {
      "midi": 67,
      "hit": false,
      "t": 41499.499999999956,
      "d": 103.74874999999884,
      "v": 69
    },
    {
      "midi": 56,
      "hit": false,
      "t": 41603.24874999989,
      "d": 103.74874999999884,
      "v": 60
    },
    {
      "midi": 68,
      "hit": false,
      "t": 41603.248749999955,
      "d": 103.74874999999884,
      "v": 71
    },
    {
      "midi": 64,
      "hit": false,
      "t": 41706.99749999989,
      "d": 103.74874999999884,
      "v": 70
    },
    {
      "midi": 76,
      "hit": false,
      "t": 41706.997499999954,
      "d": 103.74874999999884,
      "v": 83
    },
    {
      "midi": 63,
      "hit": false,
      "t": 41810.74624999989,
      "d": 103.74874999999884,
      "v": 68
    },
    {
      "midi": 75,
      "hit": false,
      "t": 41810.74624999995,
      "d": 103.74874999999884,
      "v": 80
    },
    {
      "midi": 61,
      "hit": false,
      "t": 41914.494999999886,
      "d": 103.74874999999884,
      "v": 66
    },
    {
      "midi": 73,
      "hit": false,
      "t": 41914.49499999995,
      "d": 103.74874999999884,
      "v": 78
    },
    {
      "midi": 59,
      "hit": false,
      "t": 42018.243749999885,
      "d": 103.74874999999884,
      "v": 66
    },
    {
      "midi": 71,
      "hit": false,
      "t": 42018.24374999995,
      "d": 103.74874999999884,
      "v": 78
    },
    {
      "midi": 58,
      "hit": false,
      "t": 42121.992499999884,
      "d": 103.74874999999884,
      "v": 64
    },
    {
      "midi": 70,
      "hit": false,
      "t": 42121.99249999995,
      "d": 103.74874999999884,
      "v": 76
    },
    {
      "midi": 56,
      "hit": false,
      "t": 42225.74124999988,
      "d": 103.74874999999884,
      "v": 62
    },
    {
      "midi": 68,
      "hit": false,
      "t": 42225.74124999995,
      "d": 103.74874999999884,
      "v": 73
    },
    {
      "midi": 54,
      "hit": false,
      "t": 42329.48999999988,
      "d": 103.74874999999884,
      "v": 62
    },
    {
      "midi": 66,
      "hit": false,
      "t": 42329.48999999995,
      "d": 103.74874999999884,
      "v": 73
    },
    {
      "midi": 52,
      "hit": false,
      "t": 42433.23874999988,
      "d": 103.74874999999884,
      "v": 59
    },
    {
      "midi": 64,
      "hit": false,
      "t": 42433.238749999946,
      "d": 103.74874999999884,
      "v": 70
    },
    {
      "midi": 51,
      "hit": false,
      "t": 42536.98749999988,
      "d": 103.74874999999884,
      "v": 61
    },
    {
      "midi": 63,
      "hit": false,
      "t": 42536.987499999945,
      "d": 103.74874999999884,
      "v": 72
    },
    {
      "midi": 49,
      "hit": false,
      "t": 42640.73624999988,
      "d": 103.74874999999884,
      "v": 61
    },
    {
      "midi": 61,
      "hit": false,
      "t": 42640.73624999994,
      "d": 103.74874999999884,
      "v": 72
    },
    {
      "midi": 47,
      "hit": false,
      "t": 42744.48499999988,
      "d": 103.74874999999884,
      "v": 61
    },
    {
      "midi": 59,
      "hit": false,
      "t": 42744.48499999994,
      "d": 103.74874999999884,
      "v": 72
    },
    {
      "midi": 46,
      "hit": false,
      "t": 42848.233749999876,
      "d": 103.74874999999884,
      "v": 61
    },
    {
      "midi": 58,
      "hit": false,
      "t": 42848.23374999994,
      "d": 103.74874999999884,
      "v": 72
    },
    {
      "midi": 45,
      "hit": false,
      "t": 42951.982499999875,
      "d": 103.74874999999884,
      "v": 60
    },
    {
      "midi": 57,
      "hit": false,
      "t": 42951.98249999994,
      "d": 103.74874999999884,
      "v": 71
    },
    {
      "midi": 44,
      "hit": false,
      "t": 43055.73124999987,
      "d": 103.74874999999884,
      "v": 59
    },
    {
      "midi": 56,
      "hit": false,
      "t": 43055.73124999994,
      "d": 103.74874999999884,
      "v": 70
    },
    {
      "midi": 43,
      "hit": false,
      "t": 43159.47999999987,
      "d": 103.74874999999884,
      "v": 59
    },
    {
      "midi": 55,
      "hit": false,
      "t": 43159.47999999994,
      "d": 103.74874999999884,
      "v": 70
    },
    {
      "midi": 44,
      "hit": false,
      "t": 43263.22874999987,
      "d": 103.74874999999884,
      "v": 59
    },
    {
      "midi": 56,
      "hit": false,
      "t": 43263.22874999994,
      "d": 103.74874999999884,
      "v": 70
    },
    {
      "midi": 52,
      "hit": false,
      "t": 43366.97749999987,
      "d": 103.74874999999884,
      "v": 61
    },
    {
      "midi": 64,
      "hit": false,
      "t": 43366.977499999935,
      "d": 103.74874999999884,
      "v": 72
    },
    {
      "midi": 51,
      "hit": false,
      "t": 43470.72624999987,
      "d": 103.74874999999884,
      "v": 58
    },
    {
      "midi": 63,
      "hit": false,
      "t": 43470.726249999934,
      "d": 103.74874999999884,
      "v": 69
    },
    {
      "midi": 49,
      "hit": false,
      "t": 43574.47499999987,
      "d": 103.74874999999884,
      "v": 57
    },
    {
      "midi": 61,
      "hit": false,
      "t": 43574.47499999993,
      "d": 103.74874999999884,
      "v": 68
    },
    {
      "midi": 47,
      "hit": false,
      "t": 43678.22374999987,
      "d": 103.74874999999884,
      "v": 54
    },
    {
      "midi": 59,
      "hit": false,
      "t": 43678.22374999993,
      "d": 103.74874999999884,
      "v": 64
    },
    {
      "midi": 41,
      "hit": false,
      "t": 43781.972499999865,
      "d": 103.74874999999884,
      "v": 52
    },
    {
      "midi": 53,
      "hit": false,
      "t": 43781.97249999993,
      "d": 103.74874999999884,
      "v": 62
    },
    {
      "midi": 42,
      "hit": false,
      "t": 43885.721249999864,
      "d": 103.74874999999884,
      "v": 52
    },
    {
      "midi": 54,
      "hit": false,
      "t": 43885.72124999993,
      "d": 103.74874999999884,
      "v": 62
    },
    {
      "midi": 50,
      "hit": false,
      "t": 43989.46999999986,
      "d": 103.74874999999884,
      "v": 61
    },
    {
      "midi": 62,
      "hit": false,
      "t": 43989.46999999993,
      "d": 103.74874999999884,
      "v": 72
    },
    {
      "midi": 49,
      "hit": false,
      "t": 44093.21874999986,
      "d": 103.74874999999884,
      "v": 57
    },
    {
      "midi": 61,
      "hit": false,
      "t": 44093.21874999993,
      "d": 103.74874999999884,
      "v": 68
    },
    {
      "midi": 47,
      "hit": false,
      "t": 44196.96749999986,
      "d": 103.74874999999884,
      "v": 56
    },
    {
      "midi": 59,
      "hit": false,
      "t": 44196.967499999926,
      "d": 103.74874999999884,
      "v": 66
    },
    {
      "midi": 45,
      "hit": false,
      "t": 44300.71624999986,
      "d": 103.74874999999884,
      "v": 53
    },
    {
      "midi": 57,
      "hit": false,
      "t": 44300.716249999925,
      "d": 103.74874999999884,
      "v": 63
    },
    {
      "midi": 40,
      "hit": false,
      "t": 44404.46499999986,
      "d": 103.74874999999884,
      "v": 52
    },
    {
      "midi": 52,
      "hit": false,
      "t": 44404.464999999924,
      "d": 103.74874999999884,
      "v": 62
    },
    {
      "midi": 42,
      "hit": false,
      "t": 44508.21374999986,
      "d": 103.74874999999884,
      "v": 51
    },
    {
      "midi": 54,
      "hit": false,
      "t": 44508.21374999992,
      "d": 103.74874999999884,
      "v": 61
    },
    {
      "midi": 49,
      "hit": false,
      "t": 44611.962499999856,
      "d": 103.74874999999884,
      "v": 60
    },
    {
      "midi": 61,
      "hit": false,
      "t": 44611.96249999992,
      "d": 103.74874999999884,
      "v": 71
    },
    {
      "midi": 47,
      "hit": false,
      "t": 44715.711249999855,
      "d": 103.74874999999884,
      "v": 57
    },
    {
      "midi": 59,
      "hit": false,
      "t": 44715.71124999992,
      "d": 103.74874999999884,
      "v": 68
    },
    {
      "midi": 45,
      "hit": false,
      "t": 44819.45999999985,
      "d": 103.74874999999884,
      "v": 58
    },
    {
      "midi": 57,
      "hit": false,
      "t": 44819.45999999992,
      "d": 103.74874999999884,
      "v": 69
    },
    {
      "midi": 44,
      "hit": false,
      "t": 44923.20874999985,
      "d": 103.74874999999884,
      "v": 56
    },
    {
      "midi": 56,
      "hit": false,
      "t": 44923.20874999992,
      "d": 103.74874999999884,
      "v": 66
    },
    {
      "midi": 42,
      "hit": false,
      "t": 45026.95749999985,
      "d": 103.74874999999884,
      "v": 55
    },
    {
      "midi": 54,
      "hit": false,
      "t": 45026.95749999992,
      "d": 103.74874999999884,
      "v": 65
    },
    {
      "midi": 40,
      "hit": false,
      "t": 45130.70624999985,
      "d": 103.74874999999884,
      "v": 53
    },
    {
      "midi": 52,
      "hit": false,
      "t": 45130.706249999916,
      "d": 103.74874999999884,
      "v": 63
    },
    {
      "midi": 38,
      "hit": false,
      "t": 45234.45499999985,
      "d": 103.74874999999884,
      "v": 51
    },
    {
      "midi": 50,
      "hit": false,
      "t": 45234.454999999914,
      "d": 103.74874999999884,
      "v": 61
    },
    {
      "midi": 39,
      "hit": false,
      "t": 45338.20374999985,
      "d": 103.74874999999884,
      "v": 50
    },
    {
      "midi": 51,
      "hit": false,
      "t": 45338.20374999991,
      "d": 103.74874999999884,
      "v": 59
    },
    {
      "midi": 47,
      "hit": false,
      "t": 45441.95249999985,
      "d": 103.74874999999884,
      "v": 59
    },
    {
      "midi": 59,
      "hit": false,
      "t": 45441.95249999991,
      "d": 103.74874999999884,
      "v": 70
    },
    {
      "midi": 46,
      "hit": false,
      "t": 45545.701249999845,
      "d": 103.74874999999884,
      "v": 59
    },
    {
      "midi": 58,
      "hit": false,
      "t": 45545.70124999991,
      "d": 103.74874999999884,
      "v": 70
    },
    {
      "midi": 44,
      "hit": false,
      "t": 45649.449999999844,
      "d": 103.74874999999884,
      "v": 57
    },
    {
      "midi": 56,
      "hit": false,
      "t": 45649.44999999991,
      "d": 103.74874999999884,
      "v": 68
    },
    {
      "midi": 42,
      "hit": false,
      "t": 45753.19874999984,
      "d": 103.74874999999884,
      "v": 56
    },
    {
      "midi": 54,
      "hit": false,
      "t": 45753.19874999991,
      "d": 103.74874999999884,
      "v": 66
    },
    {
      "midi": 40,
      "hit": false,
      "t": 45856.94749999984,
      "d": 103.74874999999884,
      "v": 56
    },
    {
      "midi": 52,
      "hit": false,
      "t": 45856.94749999991,
      "d": 103.74874999999884,
      "v": 66
    },
    {
      "midi": 39,
      "hit": false,
      "t": 45960.69624999984,
      "d": 103.74874999999884,
      "v": 56
    },
    {
      "midi": 51,
      "hit": false,
      "t": 45960.696249999906,
      "d": 103.74874999999884,
      "v": 66
    },
    {
      "midi": 37,
      "hit": false,
      "t": 46064.44499999984,
      "d": 103.74874999999884,
      "v": 56
    },
    {
      "midi": 49,
      "hit": false,
      "t": 46064.444999999905,
      "d": 103.74874999999884,
      "v": 66
    },
    {
      "midi": 35,
      "hit": false,
      "t": 46168.19374999984,
      "d": 103.74874999999884,
      "v": 56
    },
    {
      "midi": 47,
      "hit": false,
      "t": 46168.193749999904,
      "d": 103.74874999999884,
      "v": 66
    },
    {
      "midi": 34,
      "hit": false,
      "t": 46271.94249999984,
      "d": 103.74874999999884,
      "v": 56
    },
    {
      "midi": 46,
      "hit": false,
      "t": 46271.9424999999,
      "d": 103.74874999999884,
      "v": 66
    },
    {
      "midi": 33,
      "hit": false,
      "t": 46375.691249999836,
      "d": 103.74874999999884,
      "v": 56
    },
    {
      "midi": 45,
      "hit": false,
      "t": 46375.6912499999,
      "d": 103.74874999999884,
      "v": 66
    },
    {
      "midi": 44,
      "hit": false,
      "t": 46479.4399999999,
      "d": 3319.959999999999,
      "v": 95
    },
    {
      "midi": 51,
      "hit": false,
      "t": 47101.932499999835,
      "d": 207.49749999999767,
      "v": 77
    },
    {
      "midi": 63,
      "hit": false,
      "t": 47309.42999999983,
      "d": 138.33166666666511,
      "v": 87
    },
    {
      "midi": 56,
      "hit": false,
      "t": 47447.7616666665,
      "d": 138.33166666666511,
      "v": 63
    },
    {
      "midi": 51,
      "hit": false,
      "t": 47586.09333333316,
      "d": 138.33166666666511,
      "v": 69
    },
    {
      "midi": 44,
      "hit": false,
      "t": 47724.42499999983,
      "d": 138.33166666666511,
      "v": 69
    },
    {
      "midi": 32,
      "hit": false,
      "t": 47862.75666666649,
      "d": 138.33166666666511,
      "v": 62
    },
    {
      "midi": 51,
      "hit": false,
      "t": 48001.08833333316,
      "d": 138.3316666666724,
      "v": 69
    },
    {
      "midi": 63,
      "hit": false,
      "t": 48127.315979166495,
      "d": 138.3316666666724,
      "v": 87
    },
    {
      "midi": 56,
      "hit": false,
      "t": 48265.64764583317,
      "d": 138.33166666666511,
      "v": 63
    },
    {
      "midi": 51,
      "hit": false,
      "t": 48403.97931249983,
      "d": 138.33166666666511,
      "v": 69
    },
    {
      "midi": 44,
      "hit": false,
      "t": 48542.3109791665,
      "d": 138.33166666666511,
      "v": 69
    },
    {
      "midi": 32,
      "hit": false,
      "t": 48680.64264583316,
      "d": 138.33166666666511,
      "v": 62
    },
    {
      "midi": 51,
      "hit": false,
      "t": 48818.97431249983,
      "d": 138.33166666666511,
      "v": 69
    },
    {
      "midi": 63,
      "hit": false,
      "t": 48969.40999999983,
      "d": 138.33166666666511,
      "v": 87
    },
    {
      "midi": 56,
      "hit": false,
      "t": 49107.741666666494,
      "d": 138.33166666666511,
      "v": 63
    },
    {
      "midi": 51,
      "hit": false,
      "t": 49246.07333333316,
      "d": 138.33166666666511,
      "v": 69
    },
    {
      "midi": 44,
      "hit": false,
      "t": 49384.404999999824,
      "d": 138.33166666666511,
      "v": 69
    },
    {
      "midi": 32,
      "hit": false,
      "t": 49522.73666666649,
      "d": 138.33166666666511,
      "v": 62
    },
    {
      "midi": 51,
      "hit": false,
      "t": 49661.068333333154,
      "d": 138.33166666666511,
      "v": 69
    },
    {
      "midi": 63,
      "hit": false,
      "t": 49799.39999999982,
      "d": 138.33166666666511,
      "v": 80
    },
    {
      "midi": 59,
      "hit": false,
      "t": 49799.3999999999,
      "d": 829.989999999998,
      "v": 69
    },
    {
      "midi": 71,
      "hit": false,
      "t": 49799.3999999999,
      "d": 829.989999999998,
      "v": 81
    },
    {
      "midi": 56,
      "hit": false,
      "t": 49937.731666666485,
      "d": 138.33166666666511,
      "v": 63
    },
    {
      "midi": 51,
      "hit": false,
      "t": 50076.06333333315,
      "d": 138.33166666666511,
      "v": 69
    },
    {
      "midi": 44,
      "hit": false,
      "t": 50214.394999999815,
      "d": 138.33166666666511,
      "v": 70
    },
    {
      "midi": 32,
      "hit": false,
      "t": 50352.72666666648,
      "d": 138.33166666666511,
      "v": 63
    },
    {
      "midi": 51,
      "hit": false,
      "t": 50491.058333333145,
      "d": 138.33166666666511,
      "v": 73
    },
    {
      "midi": 63,
      "hit": false,
      "t": 50629.38999999981,
      "d": 138.33166666666511,
      "v": 86
    },
    {
      "midi": 59,
      "hit": false,
      "t": 50629.3899999999,
      "d": 829.989999999998,
      "v": 75
    },
    {
      "midi": 71,
      "hit": false,
      "t": 50629.3899999999,
      "d": 829.989999999998,
      "v": 87
    },
    {
      "midi": 56,
      "hit": false,
      "t": 50767.721666666475,
      "d": 138.33166666666511,
      "v": 69
    },
    {
      "midi": 51,
      "hit": false,
      "t": 50906.05333333314,
      "d": 138.33166666666511,
      "v": 76
    },
    {
      "midi": 44,
      "hit": false,
      "t": 51044.384999999806,
      "d": 138.33166666666511,
      "v": 77
    },
    {
      "midi": 32,
      "hit": false,
      "t": 51182.71666666647,
      "d": 138.33166666666511,
      "v": 69
    },
    {
      "midi": 51,
      "hit": false,
      "t": 51321.048333333136,
      "d": 138.33166666666511,
      "v": 79
    },
    {
      "midi": 63,
      "hit": false,
      "t": 51459.3799999998,
      "d": 138.33166666666511,
      "v": 86
    },
    {
      "midi": 59,
      "hit": false,
      "t": 51459.379999999896,
      "d": 829.989999999998,
      "v": 73
    },
    {
      "midi": 71,
      "hit": false,
      "t": 51459.379999999896,
      "d": 829.989999999998,
      "v": 86
    },
    {
      "midi": 56,
      "hit": false,
      "t": 51597.711666666466,
      "d": 138.33166666666511,
      "v": 66
    },
    {
      "midi": 51,
      "hit": false,
      "t": 51736.04333333313,
      "d": 138.33166666666511,
      "v": 70
    },
    {
      "midi": 44,
      "hit": false,
      "t": 51874.374999999796,
      "d": 138.33166666666511,
      "v": 71
    },
    {
      "midi": 32,
      "hit": false,
      "t": 52012.70666666646,
      "d": 138.33166666666511,
      "v": 61
    },
    {
      "midi": 51,
      "hit": false,
      "t": 52151.03833333313,
      "d": 138.33166666666511,
      "v": 69
    },
    {
      "midi": 63,
      "hit": false,
      "t": 52289.36999999979,
      "d": 138.33166666666511,
      "v": 80
    },
    {
      "midi": 59,
      "hit": false,
      "t": 52289.36999999989,
      "d": 829.989999999998,
      "v": 68
    },
    {
      "midi": 71,
      "hit": false,
      "t": 52289.36999999989,
      "d": 829.989999999998,
      "v": 81
    },
    {
      "midi": 56,
      "hit": false,
      "t": 52427.70166666646,
      "d": 138.33166666666511,
      "v": 61
    },
    {
      "midi": 51,
      "hit": false,
      "t": 52566.03333333312,
      "d": 138.33166666666511,
      "v": 67
    },
    {
      "midi": 44,
      "hit": false,
      "t": 52704.36499999979,
      "d": 138.33166666666511,
      "v": 65
    },
    {
      "midi": 32,
      "hit": false,
      "t": 52842.69666666645,
      "d": 138.33166666666511,
      "v": 57
    },
    {
      "midi": 51,
      "hit": false,
      "t": 52981.02833333312,
      "d": 138.33166666666511,
      "v": 63
    },
    {
      "midi": 56,
      "hit": false,
      "t": 53119.35999999978,
      "d": 829.9899999999907,
      "v": 73
    },
    {
      "midi": 63,
      "hit": false,
      "t": 53119.35999999989,
      "d": 1659.979999999996,
      "v": 62
    },
    {
      "midi": 68,
      "hit": false,
      "t": 53119.35999999989,
      "d": 1659.979999999996,
      "v": 73
    },
    {
      "midi": 51,
      "hit": false,
      "t": 53257.69166666645,
      "d": 138.33166666666511,
      "v": 39
    },
    {
      "midi": 44,
      "hit": false,
      "t": 53396.02333333311,
      "d": 138.33166666666511,
      "v": 43
    },
    {
      "midi": 72,
      "hit": false,
      "t": 53396.02333333322,
      "d": 138.33166666666511,
      "v": 44
    },
    {
      "midi": 76,
      "hit": false,
      "t": 53396.02333333322,
      "d": 138.33166666666511,
      "v": 44
    },
    {
      "midi": 84,
      "hit": false,
      "t": 53396.02333333322,
      "d": 138.33166666666511,
      "v": 52
    },
    {
      "midi": 32,
      "hit": false,
      "t": 53534.35499999978,
      "d": 138.33166666666511,
      "v": 44
    },
    {
      "midi": 71,
      "hit": false,
      "t": 53534.35499999989,
      "d": 691.6583333333328,
      "v": 44
    },
    {
      "midi": 80,
      "hit": false,
      "t": 53534.35499999989,
      "d": 691.6583333333328,
      "v": 44
    },
    {
      "midi": 83,
      "hit": false,
      "t": 53534.35499999989,
      "d": 691.6583333333328,
      "v": 53
    },
    {
      "midi": 44,
      "hit": false,
      "t": 53672.68666666644,
      "d": 138.33166666666511,
      "v": 39
    },
    {
      "midi": 51,
      "hit": false,
      "t": 53811.01833333311,
      "d": 138.33166666666511,
      "v": 45
    },
    {
      "midi": 63,
      "hit": false,
      "t": 53949.34999999977,
      "d": 138.33166666666511,
      "v": 50
    },
    {
      "midi": 56,
      "hit": false,
      "t": 54087.68166666644,
      "d": 138.33166666666511,
      "v": 44
    },
    {
      "midi": 51,
      "hit": false,
      "t": 54226.0133333331,
      "d": 138.33166666666511,
      "v": 48
    },
    {
      "midi": 72,
      "hit": false,
      "t": 54226.01333333322,
      "d": 138.33166666666511,
      "v": 49
    },
    {
      "midi": 76,
      "hit": false,
      "t": 54226.01333333322,
      "d": 138.33166666666511,
      "v": 49
    },
    {
      "midi": 84,
      "hit": false,
      "t": 54226.01333333322,
      "d": 138.33166666666511,
      "v": 58
    },
    {
      "midi": 44,
      "hit": false,
      "t": 54364.34499999977,
      "d": 138.33166666666511,
      "v": 49
    },
    {
      "midi": 71,
      "hit": false,
      "t": 54364.344999999885,
      "d": 691.6583333333328,
      "v": 51
    },
    {
      "midi": 80,
      "hit": false,
      "t": 54364.344999999885,
      "d": 691.6583333333328,
      "v": 51
    },
    {
      "midi": 83,
      "hit": false,
      "t": 54364.344999999885,
      "d": 691.6583333333328,
      "v": 61
    },
    {
      "midi": 32,
      "hit": false,
      "t": 54502.67666666643,
      "d": 138.33166666666511,
      "v": 43
    },
    {
      "midi": 51,
      "hit": false,
      "t": 54641.0083333331,
      "d": 138.33166666666511,
      "v": 50
    },
    {
      "midi": 63,
      "hit": false,
      "t": 54779.339999999764,
      "d": 138.33166666666511,
      "v": 55
    },
    {
      "midi": 56,
      "hit": false,
      "t": 54917.67166666643,
      "d": 138.33166666666511,
      "v": 47
    },
    {
      "midi": 51,
      "hit": false,
      "t": 55056.003333333094,
      "d": 138.33166666666511,
      "v": 52
    },
    {
      "midi": 72,
      "hit": false,
      "t": 55056.00333333322,
      "d": 138.33166666666511,
      "v": 55
    },
    {
      "midi": 76,
      "hit": false,
      "t": 55056.00333333322,
      "d": 138.33166666666511,
      "v": 55
    },
    {
      "midi": 84,
      "hit": false,
      "t": 55056.00333333322,
      "d": 138.33166666666511,
      "v": 66
    },
    {
      "midi": 44,
      "hit": false,
      "t": 55194.33499999976,
      "d": 138.33166666666511,
      "v": 52
    },
    {
      "midi": 71,
      "hit": false,
      "t": 55194.33499999988,
      "d": 691.6583333333328,
      "v": 57
    },
    {
      "midi": 80,
      "hit": false,
      "t": 55194.33499999988,
      "d": 691.6583333333328,
      "v": 57
    },
    {
      "midi": 83,
      "hit": false,
      "t": 55194.33499999988,
      "d": 691.6583333333328,
      "v": 68
    },
    {
      "midi": 32,
      "hit": false,
      "t": 55332.666666666424,
      "d": 138.33166666666511,
      "v": 47
    },
    {
      "midi": 51,
      "hit": false,
      "t": 55470.99833333309,
      "d": 138.33166666666511,
      "v": 55
    },
    {
      "midi": 63,
      "hit": false,
      "t": 55609.329999999754,
      "d": 138.33166666666511,
      "v": 58
    },
    {
      "midi": 56,
      "hit": false,
      "t": 55747.66166666642,
      "d": 138.33166666666511,
      "v": 51
    },
    {
      "midi": 51,
      "hit": false,
      "t": 55885.993333333085,
      "d": 138.33166666666511,
      "v": 55
    },
    {
      "midi": 72,
      "hit": false,
      "t": 55885.993333333216,
      "d": 138.33166666666511,
      "v": 61
    },
    {
      "midi": 76,
      "hit": false,
      "t": 55885.993333333216,
      "d": 138.33166666666511,
      "v": 61
    },
    {
      "midi": 84,
      "hit": false,
      "t": 55885.993333333216,
      "d": 138.33166666666511,
      "v": 73
    },
    {
      "midi": 44,
      "hit": false,
      "t": 56024.32499999975,
      "d": 138.33166666666511,
      "v": 57
    },
    {
      "midi": 71,
      "hit": false,
      "t": 56024.32499999988,
      "d": 622.4925000000003,
      "v": 63
    },
    {
      "midi": 80,
      "hit": false,
      "t": 56024.32499999988,
      "d": 622.4925000000003,
      "v": 63
    },
    {
      "midi": 83,
      "hit": false,
      "t": 56024.32499999988,
      "d": 622.4925000000003,
      "v": 75
    },
    {
      "midi": 32,
      "hit": false,
      "t": 56162.656666666415,
      "d": 138.33166666666511,
      "v": 50
    },
    {
      "midi": 51,
      "hit": false,
      "t": 56300.98833333308,
      "d": 138.33166666666511,
      "v": 58
    },
    {
      "midi": 63,
      "hit": false,
      "t": 56439.319999999745,
      "d": 138.33166666666511,
      "v": 64
    },
    {
      "midi": 56,
      "hit": false,
      "t": 56577.65166666641,
      "d": 138.33166666666511,
      "v": 54
    },
    {
      "midi": 72,
      "hit": false,
      "t": 56646.81749999988,
      "d": 207.49749999999767,
      "v": 67
    },
    {
      "midi": 76,
      "hit": false,
      "t": 56646.81749999988,
      "d": 207.49749999999767,
      "v": 67
    },
    {
      "midi": 84,
      "hit": false,
      "t": 56646.81749999988,
      "d": 207.49749999999767,
      "v": 81
    },
    {
      "midi": 51,
      "hit": false,
      "t": 56715.983333333075,
      "d": 138.33166666666511,
      "v": 59
    },
    {
      "midi": 44,
      "hit": false,
      "t": 56854.31499999974,
      "d": 138.33166666666511,
      "v": 60
    },
    {
      "midi": 71,
      "hit": false,
      "t": 56854.31499999988,
      "d": 207.49749999999767,
      "v": 68
    },
    {
      "midi": 80,
      "hit": false,
      "t": 56854.31499999988,
      "d": 207.49749999999767,
      "v": 68
    },
    {
      "midi": 83,
      "hit": false,
      "t": 56854.31499999988,
      "d": 207.49749999999767,
      "v": 81
    },
    {
      "midi": 32,
      "hit": false,
      "t": 56992.646666666406,
      "d": 138.33166666666511,
      "v": 54
    },
    {
      "midi": 72,
      "hit": false,
      "t": 57061.812499999876,
      "d": 207.49749999999767,
      "v": 72
    },
    {
      "midi": 76,
      "hit": false,
      "t": 57061.812499999876,
      "d": 207.49749999999767,
      "v": 72
    },
    {
      "midi": 84,
      "hit": false,
      "t": 57061.812499999876,
      "d": 207.49749999999767,
      "v": 84
    },
    {
      "midi": 51,
      "hit": false,
      "t": 57130.97833333307,
      "d": 138.33166666666511,
      "v": 62
    },
    {
      "midi": 63,
      "hit": false,
      "t": 57269.309999999736,
      "d": 138.33166666666511,
      "v": 65
    },
    {
      "midi": 71,
      "hit": false,
      "t": 57269.309999999874,
      "d": 207.49749999999767,
      "v": 72
    },
    {
      "midi": 80,
      "hit": false,
      "t": 57269.309999999874,
      "d": 207.49749999999767,
      "v": 72
    },
    {
      "midi": 83,
      "hit": false,
      "t": 57269.309999999874,
      "d": 207.49749999999767,
      "v": 86
    },
    {
      "midi": 56,
      "hit": false,
      "t": 57407.6416666664,
      "d": 138.33166666666511,
      "v": 58
    },
    {
      "midi": 72,
      "hit": false,
      "t": 57476.80749999987,
      "d": 207.49749999999767,
      "v": 74
    },
    {
      "midi": 76,
      "hit": false,
      "t": 57476.80749999987,
      "d": 207.49749999999767,
      "v": 74
    },
    {
      "midi": 84,
      "hit": false,
      "t": 57476.80749999987,
      "d": 207.49749999999767,
      "v": 87
    },
    {
      "midi": 51,
      "hit": false,
      "t": 57545.973333333066,
      "d": 138.33166666666511,
      "v": 64
    },
    {
      "midi": 44,
      "hit": false,
      "t": 57684.30499999973,
      "d": 138.33166666666511,
      "v": 64
    },
    {
      "midi": 71,
      "hit": false,
      "t": 57684.30499999987,
      "d": 207.49749999999767,
      "v": 75
    },
    {
      "midi": 80,
      "hit": false,
      "t": 57684.30499999987,
      "d": 207.49749999999767,
      "v": 75
    },
    {
      "midi": 83,
      "hit": false,
      "t": 57684.30499999987,
      "d": 207.49749999999767,
      "v": 90
    },
    {
      "midi": 32,
      "hit": false,
      "t": 57822.636666666396,
      "d": 138.33166666666511,
      "v": 58
    },
    {
      "midi": 72,
      "hit": false,
      "t": 57891.80249999987,
      "d": 207.49749999999767,
      "v": 76
    },
    {
      "midi": 76,
      "hit": false,
      "t": 57891.80249999987,
      "d": 207.49749999999767,
      "v": 76
    },
    {
      "midi": 84,
      "hit": false,
      "t": 57891.80249999987,
      "d": 207.49749999999767,
      "v": 91
    },
    {
      "midi": 51,
      "hit": false,
      "t": 57960.96833333306,
      "d": 138.33166666666511,
      "v": 64
    },
    {
      "midi": 63,
      "hit": false,
      "t": 58099.29999999973,
      "d": 138.33166666666511,
      "v": 70
    },
    {
      "midi": 71,
      "hit": false,
      "t": 58099.299999999865,
      "d": 207.49749999999767,
      "v": 78
    },
    {
      "midi": 80,
      "hit": false,
      "t": 58099.299999999865,
      "d": 207.49749999999767,
      "v": 78
    },
    {
      "midi": 83,
      "hit": false,
      "t": 58099.299999999865,
      "d": 207.49749999999767,
      "v": 92
    },
    {
      "midi": 56,
      "hit": false,
      "t": 58237.63166666639,
      "d": 138.33166666666511,
      "v": 61
    },
    {
      "midi": 72,
      "hit": false,
      "t": 58306.79749999986,
      "d": 207.49749999999767,
      "v": 81
    },
    {
      "midi": 76,
      "hit": false,
      "t": 58306.79749999986,
      "d": 207.49749999999767,
      "v": 81
    },
    {
      "midi": 84,
      "hit": false,
      "t": 58306.79749999986,
      "d": 207.49749999999767,
      "v": 95
    },
    {
      "midi": 51,
      "hit": false,
      "t": 58375.96333333306,
      "d": 138.33166666666511,
      "v": 67
    },
    {
      "midi": 44,
      "hit": false,
      "t": 58514.29499999972,
      "d": 138.33166666666511,
      "v": 68
    },
    {
      "midi": 71,
      "hit": false,
      "t": 58514.29499999986,
      "d": 207.49749999999767,
      "v": 81
    },
    {
      "midi": 80,
      "hit": false,
      "t": 58514.29499999986,
      "d": 207.49749999999767,
      "v": 81
    },
    {
      "midi": 83,
      "hit": false,
      "t": 58514.29499999986,
      "d": 207.49749999999767,
      "v": 96
    },
    {
      "midi": 32,
      "hit": false,
      "t": 58652.62666666639,
      "d": 138.33166666666511,
      "v": 60
    },
    {
      "midi": 72,
      "hit": false,
      "t": 58721.79249999986,
      "d": 207.49749999999767,
      "v": 83
    },
    {
      "midi": 76,
      "hit": false,
      "t": 58721.79249999986,
      "d": 207.49749999999767,
      "v": 83
    },
    {
      "midi": 84,
      "hit": false,
      "t": 58721.79249999986,
      "d": 207.49749999999767,
      "v": 99
    },
    {
      "midi": 51,
      "hit": false,
      "t": 58790.95833333305,
      "d": 138.33166666666511,
      "v": 68
    },
    {
      "midi": 56,
      "hit": false,
      "t": 58929.28999999972,
      "d": 414.9950000000026,
      "v": 71
    },
    {
      "midi": 59,
      "hit": false,
      "t": 58929.28999999972,
      "d": 414.9950000000026,
      "v": 71
    },
    {
      "midi": 63,
      "hit": false,
      "t": 58929.28999999972,
      "d": 414.9950000000026,
      "v": 85
    },
    {
      "midi": 71,
      "hit": false,
      "t": 58929.289999999855,
      "d": 414.9950000000026,
      "v": 96
    },
    {
      "midi": 80,
      "hit": false,
      "t": 58929.289999999855,
      "d": 414.9950000000026,
      "v": 96
    },
    {
      "midi": 83,
      "hit": false,
      "t": 58929.289999999855,
      "d": 414.9950000000026,
      "v": 114
    },
    {
      "midi": 68,
      "hit": false,
      "t": 59759.27999999986,
      "d": 119.3110624999972,
      "v": 81
    },
    {
      "midi": 70,
      "hit": false,
      "t": 59878.59106249986,
      "d": 117.58191666666971,
      "v": 82
    },
    {
      "midi": 71,
      "hit": false,
      "t": 59996.17297916653,
      "d": 119.31106250000448,
      "v": 83
    },
    {
      "midi": 73,
      "hit": false,
      "t": 60113.7548958332,
      "d": 119.31106250000448,
      "v": 83
    },
    {
      "midi": 75,
      "hit": false,
      "t": 60233.0659583332,
      "d": 117.58191666666971,
      "v": 85
    },
    {
      "midi": 77,
      "hit": false,
      "t": 60350.64787499987,
      "d": 119.3110624999972,
      "v": 87
    },
    {
      "midi": 79,
      "hit": false,
      "t": 60469.95893749987,
      "d": 117.58191666666971,
      "v": 89
    },
    {
      "midi": 80,
      "hit": false,
      "t": 60587.54085416654,
      "d": 119.31106250000448,
      "v": 91
    },
    {
      "midi": 82,
      "hit": false,
      "t": 60705.12277083321,
      "d": 119.31106250000448,
      "v": 92
    },
    {
      "midi": 83,
      "hit": false,
      "t": 60824.43383333321,
      "d": 117.58191666666971,
      "v": 93
    },
    {
      "midi": 85,
      "hit": false,
      "t": 60942.01574999988,
      "d": 119.3110624999972,
      "v": 94
    },
    {
      "midi": 87,
      "hit": false,
      "t": 61061.32681249988,
      "d": 117.58191666666971,
      "v": 95
    },
    {
      "midi": 89,
      "hit": false,
      "t": 61178.90872916655,
      "d": 119.31106250000448,
      "v": 97
    },
    {
      "midi": 91,
      "hit": false,
      "t": 61296.49064583322,
      "d": 122.76935416666674,
      "v": 99
    },
    {
      "midi": 33,
      "hit": false,
      "t": 61419.25999999972,
      "d": 276.66333333333023,
      "v": 66
    },
    {
      "midi": 40,
      "hit": false,
      "t": 61419.25999999972,
      "d": 276.66333333333023,
      "v": 78
    },
    {
      "midi": 92,
      "hit": false,
      "t": 61419.259999999886,
      "d": 414.9950000000026,
      "v": 106
    },
    {
      "midi": 40,
      "hit": false,
      "t": 61695.92333333305,
      "d": 138.33166666666511,
      "v": 60
    },
    {
      "midi": 49,
      "hit": false,
      "t": 61695.92333333305,
      "d": 138.33166666666511,
      "v": 71
    },
    {
      "midi": 52,
      "hit": false,
      "t": 61834.25499999971,
      "d": 276.66333333333023,
      "v": 78
    },
    {
      "midi": 49,
      "hit": false,
      "t": 62110.918333333044,
      "d": 138.33166666666511,
      "v": 60
    },
    {
      "midi": 52,
      "hit": false,
      "t": 62110.918333333044,
      "d": 138.33166666666511,
      "v": 71
    },
    {
      "midi": 85,
      "hit": false,
      "t": 62110.91833333322,
      "d": 138.33166666666511,
      "v": 81
    },
    {
      "midi": 61,
      "hit": false,
      "t": 62249.24999999971,
      "d": 276.66333333333023,
      "v": 78
    },
    {
      "midi": 80,
      "hit": false,
      "t": 62249.24999999988,
      "d": 1556.231249999997,
      "v": 90
    },
    {
      "midi": 52,
      "hit": false,
      "t": 62525.91333333304,
      "d": 138.33166666666511,
      "v": 59
    },
    {
      "midi": 61,
      "hit": false,
      "t": 62525.91333333304,
      "d": 138.33166666666511,
      "v": 70
    },
    {
      "midi": 64,
      "hit": false,
      "t": 62664.244999999704,
      "d": 276.66333333333023,
      "v": 78
    },
    {
      "midi": 61,
      "hit": false,
      "t": 62940.908333333035,
      "d": 138.33166666666511,
      "v": 59
    },
    {
      "midi": 64,
      "hit": false,
      "t": 62940.908333333035,
      "d": 138.33166666666511,
      "v": 70
    },
    {
      "midi": 69,
      "hit": false,
      "t": 63079.2399999997,
      "d": 276.66333333333023,
      "v": 84
    },
    {
      "midi": 52,
      "hit": false,
      "t": 63355.90333333303,
      "d": 138.33166666666511,
      "v": 58
    },
    {
      "midi": 61,
      "hit": false,
      "t": 63355.90333333303,
      "d": 138.33166666666511,
      "v": 69
    },
    {
      "midi": 64,
      "hit": false,
      "t": 63494.234999999695,
      "d": 138.33166666666511,
      "v": 77
    },
    {
      "midi": 61,
      "hit": false,
      "t": 63632.56666666636,
      "d": 138.33166666666511,
      "v": 70
    },
    {
      "midi": 75,
      "hit": false,
      "t": 63805.48124999988,
      "d": 103.74874999999884,
      "v": 64
    },
    {
      "midi": 80,
      "hit": false,
      "t": 63805.48124999988,
      "d": 103.74874999999884,
      "v": 64
    },
    {
      "midi": 87,
      "hit": false,
      "t": 63805.48124999988,
      "d": 103.74874999999884,
      "v": 76
    },
    {
      "midi": 68,
      "hit": false,
      "t": 63909.22999999969,
      "d": 1659.9799999999814,
      "v": 80
    },
    {
      "midi": 73,
      "hit": false,
      "t": 63909.22999999988,
      "d": 1659.979999999996,
      "v": 75
    },
    {
      "midi": 80,
      "hit": false,
      "t": 63909.22999999988,
      "d": 1659.979999999996,
      "v": 75
    },
    {
      "midi": 85,
      "hit": false,
      "t": 63909.22999999988,
      "d": 1659.979999999996,
      "v": 89
    },
    {
      "midi": 50,
      "hit": false,
      "t": 64185.89333333302,
      "d": 138.33166666666511,
      "v": 62
    },
    {
      "midi": 55,
      "hit": false,
      "t": 64185.89333333321,
      "d": 138.33166666666511,
      "v": 54
    },
    {
      "midi": 59,
      "hit": false,
      "t": 64185.89333333321,
      "d": 138.33166666666511,
      "v": 64
    },
    {
      "midi": 46,
      "hit": false,
      "t": 64324.224999999686,
      "d": 276.66333333333023,
      "v": 59
    },
    {
      "midi": 49,
      "hit": false,
      "t": 64324.224999999686,
      "d": 276.66333333333023,
      "v": 71
    },
    {
      "midi": 56,
      "hit": false,
      "t": 64324.224999999875,
      "d": 276.66333333333023,
      "v": 59
    },
    {
      "midi": 58,
      "hit": false,
      "t": 64324.224999999875,
      "d": 276.66333333333023,
      "v": 71
    },
    {
      "midi": 40,
      "hit": false,
      "t": 64600.888333333016,
      "d": 138.33166666666511,
      "v": 66
    },
    {
      "midi": 56,
      "hit": false,
      "t": 64739.21999999968,
      "d": 276.66333333333023,
      "v": 76
    },
    {
      "midi": 62,
      "hit": false,
      "t": 65015.88333333301,
      "d": 138.33166666666511,
      "v": 59
    },
    {
      "midi": 67,
      "hit": false,
      "t": 65015.88333333321,
      "d": 138.33166666666511,
      "v": 51
    },
    {
      "midi": 71,
      "hit": false,
      "t": 65015.88333333321,
      "d": 138.33166666666511,
      "v": 60
    },
    {
      "midi": 58,
      "hit": false,
      "t": 65154.21499999968,
      "d": 276.66333333333023,
      "v": 59
    },
    {
      "midi": 61,
      "hit": false,
      "t": 65154.21499999968,
      "d": 276.66333333333023,
      "v": 71
    },
    {
      "midi": 68,
      "hit": false,
      "t": 65154.21499999987,
      "d": 276.66333333333023,
      "v": 58
    },
    {
      "midi": 70,
      "hit": false,
      "t": 65154.21499999987,
      "d": 276.66333333333023,
      "v": 69
    },
    {
      "midi": 52,
      "hit": false,
      "t": 65430.87833333301,
      "d": 138.33166666666511,
      "v": 68
    },
    {
      "midi": 68,
      "hit": false,
      "t": 65569.20999999967,
      "d": 276.66333333333023,
      "v": 76
    },
    {
      "midi": 74,
      "hit": false,
      "t": 65845.873333333,
      "d": 138.33166666666511,
      "v": 68
    },
    {
      "midi": 79,
      "hit": false,
      "t": 65845.8733333332,
      "d": 138.33166666666511,
      "v": 58
    },
    {
      "midi": 83,
      "hit": false,
      "t": 65845.8733333332,
      "d": 138.33166666666511,
      "v": 69
    },
    {
      "midi": 70,
      "hit": false,
      "t": 65984.20499999967,
      "d": 276.66333333333023,
      "v": 63
    },
    {
      "midi": 73,
      "hit": false,
      "t": 65984.20499999967,
      "d": 276.66333333333023,
      "v": 75
    },
    {
      "midi": 80,
      "hit": false,
      "t": 65984.20499999987,
      "d": 276.66333333333023,
      "v": 63
    },
    {
      "midi": 82,
      "hit": false,
      "t": 65984.20499999987,
      "d": 276.66333333333023,
      "v": 75
    },
    {
      "midi": 64,
      "hit": false,
      "t": 66260.868333333,
      "d": 138.33166666666511,
      "v": 70
    },
    {
      "midi": 33,
      "hit": false,
      "t": 66399.19999999966,
      "d": 276.66333333333023,
      "v": 66
    },
    {
      "midi": 40,
      "hit": false,
      "t": 66399.19999999966,
      "d": 276.66333333333023,
      "v": 78
    },
    {
      "midi": 80,
      "hit": false,
      "t": 66399.19999999987,
      "d": 276.66333333333023,
      "v": 106
    },
    {
      "midi": 40,
      "hit": false,
      "t": 66675.86333333299,
      "d": 138.33166666666511,
      "v": 60
    },
    {
      "midi": 49,
      "hit": false,
      "t": 66675.86333333299,
      "d": 138.33166666666511,
      "v": 71
    },
    {
      "midi": 85,
      "hit": false,
      "t": 66675.8633333332,
      "d": 138.33166666666511,
      "v": 68
    },
    {
      "midi": 92,
      "hit": false,
      "t": 66675.8633333332,
      "d": 138.33166666666511,
      "v": 68
    },
    {
      "midi": 97,
      "hit": false,
      "t": 66675.8633333332,
      "d": 138.33166666666511,
      "v": 81
    },
    {
      "midi": 52,
      "hit": false,
      "t": 66814.19499999966,
      "d": 276.66333333333023,
      "v": 78
    },
    {
      "midi": 80,
      "hit": false,
      "t": 66814.19499999986,
      "d": 691.6583333333401,
      "v": 76
    },
    {
      "midi": 85,
      "hit": false,
      "t": 66814.19499999986,
      "d": 691.6583333333401,
      "v": 76
    },
    {
      "midi": 92,
      "hit": false,
      "t": 66814.19499999986,
      "d": 691.6583333333401,
      "v": 90
    },
    {
      "midi": 49,
      "hit": false,
      "t": 67090.85833333299,
      "d": 138.33166666666511,
      "v": 60
    },
    {
      "midi": 52,
      "hit": false,
      "t": 67090.85833333299,
      "d": 138.33166666666511,
      "v": 71
    },
    {
      "midi": 61,
      "hit": false,
      "t": 67229.18999999965,
      "d": 276.66333333333023,
      "v": 78
    },
    {
      "midi": 52,
      "hit": false,
      "t": 67505.85333333298,
      "d": 138.33166666666511,
      "v": 59
    },
    {
      "midi": 61,
      "hit": false,
      "t": 67505.85333333298,
      "d": 138.33166666666511,
      "v": 70
    },
    {
      "midi": 73,
      "hit": false,
      "t": 67505.8533333332,
      "d": 138.33166666666511,
      "v": 68
    },
    {
      "midi": 80,
      "hit": false,
      "t": 67505.8533333332,
      "d": 138.33166666666511,
      "v": 81
    },
    {
      "midi": 85,
      "hit": false,
      "t": 67505.8533333332,
      "d": 138.33166666666511,
      "v": 81
    },
    {
      "midi": 64,
      "hit": false,
      "t": 67644.18499999965,
      "d": 276.66333333333023,
      "v": 78
    },
    {
      "midi": 68,
      "hit": false,
      "t": 67644.18499999987,
      "d": 622.492499999993,
      "v": 76
    },
    {
      "midi": 73,
      "hit": false,
      "t": 67644.18499999987,
      "d": 622.492499999993,
      "v": 76
    },
    {
      "midi": 80,
      "hit": false,
      "t": 67644.18499999987,
      "d": 622.492499999993,
      "v": 90
    },
    {
      "midi": 61,
      "hit": false,
      "t": 67920.84833333298,
      "d": 138.33166666666511,
      "v": 59
    },
    {
      "midi": 64,
      "hit": false,
      "t": 67920.84833333298,
      "d": 138.33166666666511,
      "v": 70
    },
    {
      "midi": 73,
      "hit": false,
      "t": 68059.17999999964,
      "d": 276.66333333333023,
      "v": 84
    },
    {
      "midi": 75,
      "hit": false,
      "t": 68266.67749999986,
      "d": 207.49749999999767,
      "v": 60
    },
    {
      "midi": 80,
      "hit": false,
      "t": 68266.67749999986,
      "d": 207.49749999999767,
      "v": 60
    },
    {
      "midi": 87,
      "hit": false,
      "t": 68266.67749999986,
      "d": 207.49749999999767,
      "v": 71
    },
    {
      "midi": 52,
      "hit": false,
      "t": 68335.84333333297,
      "d": 138.33166666666511,
      "v": 49
    },
    {
      "midi": 61,
      "hit": false,
      "t": 68335.84333333297,
      "d": 138.33166666666511,
      "v": 58
    },
    {
      "midi": 64,
      "hit": false,
      "t": 68474.17499999964,
      "d": 138.33166666666511,
      "v": 65
    },
    {
      "midi": 75,
      "hit": false,
      "t": 68474.17499999986,
      "d": 207.49749999999767,
      "v": 58
    },
    {
      "midi": 80,
      "hit": false,
      "t": 68474.17499999986,
      "d": 207.49749999999767,
      "v": 58
    },
    {
      "midi": 87,
      "hit": false,
      "t": 68474.17499999986,
      "d": 207.49749999999767,
      "v": 69
    },
    {
      "midi": 61,
      "hit": false,
      "t": 68612.5066666663,
      "d": 138.33166666666511,
      "v": 59
    },
    {
      "midi": 73,
      "hit": false,
      "t": 68681.67249999986,
      "d": 207.49749999999767,
      "v": 68
    },
    {
      "midi": 80,
      "hit": false,
      "t": 68681.67249999986,
      "d": 207.49749999999767,
      "v": 68
    },
    {
      "midi": 85,
      "hit": false,
      "t": 68681.67249999986,
      "d": 207.49749999999767,
      "v": 81
    },
    {
      "midi": 68,
      "hit": false,
      "t": 68889.16999999963,
      "d": 1659.9799999999814,
      "v": 80
    },
    {
      "midi": 73,
      "hit": false,
      "t": 68889.16999999985,
      "d": 1659.9799999999814,
      "v": 75
    },
    {
      "midi": 80,
      "hit": false,
      "t": 68889.16999999985,
      "d": 1659.9799999999814,
      "v": 75
    },
    {
      "midi": 85,
      "hit": false,
      "t": 68889.16999999985,
      "d": 1659.9799999999814,
      "v": 89
    },
    {
      "midi": 50,
      "hit": false,
      "t": 69165.83333333296,
      "d": 138.33166666666511,
      "v": 62
    },
    {
      "midi": 55,
      "hit": false,
      "t": 69165.83333333318,
      "d": 138.33166666666511,
      "v": 54
    },
    {
      "midi": 59,
      "hit": false,
      "t": 69165.83333333318,
      "d": 138.33166666666511,
      "v": 64
    },
    {
      "midi": 46,
      "hit": false,
      "t": 69304.16499999963,
      "d": 276.66333333333023,
      "v": 59
    },
    {
      "midi": 49,
      "hit": false,
      "t": 69304.16499999963,
      "d": 276.66333333333023,
      "v": 71
    },
    {
      "midi": 56,
      "hit": false,
      "t": 69304.16499999985,
      "d": 276.66333333333023,
      "v": 59
    },
    {
      "midi": 58,
      "hit": false,
      "t": 69304.16499999985,
      "d": 276.66333333333023,
      "v": 71
    },
    {
      "midi": 40,
      "hit": false,
      "t": 69580.82833333296,
      "d": 138.33166666666511,
      "v": 66
    },
    {
      "midi": 56,
      "hit": false,
      "t": 69719.15999999963,
      "d": 276.66333333333023,
      "v": 76
    },
    {
      "midi": 62,
      "hit": false,
      "t": 69995.82333333296,
      "d": 138.33166666666511,
      "v": 59
    },
    {
      "midi": 67,
      "hit": false,
      "t": 69995.82333333317,
      "d": 138.33166666666511,
      "v": 51
    },
    {
      "midi": 71,
      "hit": false,
      "t": 69995.82333333317,
      "d": 138.33166666666511,
      "v": 60
    },
    {
      "midi": 58,
      "hit": false,
      "t": 70134.15499999962,
      "d": 276.66333333333023,
      "v": 59
    },
    {
      "midi": 61,
      "hit": false,
      "t": 70134.15499999962,
      "d": 276.66333333333023,
      "v": 71
    },
    {
      "midi": 68,
      "hit": false,
      "t": 70134.15499999984,
      "d": 276.66333333333023,
      "v": 58
    },
    {
      "midi": 70,
      "hit": false,
      "t": 70134.15499999984,
      "d": 276.66333333333023,
      "v": 69
    },
    {
      "midi": 52,
      "hit": false,
      "t": 70410.81833333295,
      "d": 138.33166666666511,
      "v": 68
    },
    {
      "midi": 68,
      "hit": false,
      "t": 70549.14999999962,
      "d": 276.66333333333023,
      "v": 76
    },
    {
      "midi": 74,
      "hit": false,
      "t": 70825.81333333295,
      "d": 138.33166666666511,
      "v": 68
    },
    {
      "midi": 79,
      "hit": false,
      "t": 70825.81333333316,
      "d": 138.33166666666511,
      "v": 58
    },
    {
      "midi": 83,
      "hit": false,
      "t": 70825.81333333316,
      "d": 138.33166666666511,
      "v": 69
    },
    {
      "midi": 70,
      "hit": false,
      "t": 70964.14499999961,
      "d": 276.66333333333023,
      "v": 63
    },
    {
      "midi": 73,
      "hit": false,
      "t": 70964.14499999961,
      "d": 276.66333333333023,
      "v": 75
    },
    {
      "midi": 80,
      "hit": false,
      "t": 70964.14499999983,
      "d": 276.66333333333023,
      "v": 63
    },
    {
      "midi": 82,
      "hit": false,
      "t": 70964.14499999983,
      "d": 276.66333333333023,
      "v": 75
    },
    {
      "midi": 64,
      "hit": false,
      "t": 71240.80833333294,
      "d": 138.33166666666511,
      "v": 70
    },
    {
      "midi": 33,
      "hit": false,
      "t": 71379.1399999996,
      "d": 276.66333333333023,
      "v": 66
    },
    {
      "midi": 40,
      "hit": false,
      "t": 71379.1399999996,
      "d": 276.66333333333023,
      "v": 78
    },
    {
      "midi": 80,
      "hit": false,
      "t": 71379.13999999982,
      "d": 414.99499999999534,
      "v": 87
    },
    {
      "midi": 40,
      "hit": false,
      "t": 71655.80333333294,
      "d": 138.33166666666511,
      "v": 51
    },
    {
      "midi": 49,
      "hit": false,
      "t": 71655.80333333294,
      "d": 138.33166666666511,
      "v": 60
    },
    {
      "midi": 52,
      "hit": false,
      "t": 71794.1349999996,
      "d": 276.66333333333023,
      "v": 66
    },
    {
      "midi": 80,
      "hit": false,
      "t": 71794.13499999982,
      "d": 829.9900000000052,
      "v": 80
    },
    {
      "midi": 85,
      "hit": false,
      "t": 71794.13499999982,
      "d": 829.9900000000052,
      "v": 80
    },
    {
      "midi": 92,
      "hit": false,
      "t": 71794.13499999982,
      "d": 829.9900000000052,
      "v": 95
    },
    {
      "midi": 49,
      "hit": false,
      "t": 72070.79833333293,
      "d": 138.33166666666511,
      "v": 51
    },
    {
      "midi": 52,
      "hit": false,
      "t": 72070.79833333293,
      "d": 138.33166666666511,
      "v": 60
    },
    {
      "midi": 61,
      "hit": false,
      "t": 72209.1299999996,
      "d": 276.66333333333023,
      "v": 66
    },
    {
      "midi": 52,
      "hit": false,
      "t": 72485.79333333293,
      "d": 138.33166666666511,
      "v": 50
    },
    {
      "midi": 61,
      "hit": false,
      "t": 72485.79333333293,
      "d": 138.33166666666511,
      "v": 59
    },
    {
      "midi": 64,
      "hit": false,
      "t": 72624.12499999959,
      "d": 276.66333333333023,
      "v": 66
    },
    {
      "midi": 80,
      "hit": false,
      "t": 72624.12499999983,
      "d": 622.492499999993,
      "v": 68
    },
    {
      "midi": 85,
      "hit": false,
      "t": 72624.12499999983,
      "d": 622.492499999993,
      "v": 68
    },
    {
      "midi": 92,
      "hit": false,
      "t": 72624.12499999983,
      "d": 622.492499999993,
      "v": 80
    },
    {
      "midi": 56,
      "hit": false,
      "t": 72900.78833333292,
      "d": 138.33166666666511,
      "v": 50
    },
    {
      "midi": 61,
      "hit": false,
      "t": 72900.78833333292,
      "d": 138.33166666666511,
      "v": 59
    },
    {
      "midi": 68,
      "hit": false,
      "t": 73039.11999999959,
      "d": 276.66333333333023,
      "v": 71
    },
    {
      "midi": 80,
      "hit": false,
      "t": 73246.61749999982,
      "d": 207.49749999999767,
      "v": 72
    },
    {
      "midi": 85,
      "hit": false,
      "t": 73246.61749999982,
      "d": 207.49749999999767,
      "v": 72
    },
    {
      "midi": 92,
      "hit": false,
      "t": 73246.61749999982,
      "d": 207.49749999999767,
      "v": 85
    },
    {
      "midi": 52,
      "hit": false,
      "t": 73315.78333333292,
      "d": 138.33166666666511,
      "v": 49
    },
    {
      "midi": 61,
      "hit": false,
      "t": 73315.78333333292,
      "d": 138.33166666666511,
      "v": 58
    },
    {
      "midi": 64,
      "hit": false,
      "t": 73454.11499999958,
      "d": 276.66333333333023,
      "v": 65
    },
    {
      "midi": 80,
      "hit": false,
      "t": 73454.11499999982,
      "d": 829.9900000000052,
      "v": 73
    },
    {
      "midi": 85,
      "hit": false,
      "t": 73454.11499999982,
      "d": 829.9900000000052,
      "v": 73
    },
    {
      "midi": 92,
      "hit": false,
      "t": 73454.11499999982,
      "d": 829.9900000000052,
      "v": 86
    },
    {
      "midi": 32,
      "hit": false,
      "t": 73730.77833333291,
      "d": 138.33166666666511,
      "v": 50
    },
    {
      "midi": 40,
      "hit": false,
      "t": 73730.77833333291,
      "d": 138.33166666666511,
      "v": 59
    },
    {
      "midi": 44,
      "hit": false,
      "t": 73869.10999999958,
      "d": 276.66333333333023,
      "v": 66
    },
    {
      "midi": 40,
      "hit": false,
      "t": 74145.77333333291,
      "d": 138.33166666666511,
      "v": 51
    },
    {
      "midi": 49,
      "hit": false,
      "t": 74145.77333333291,
      "d": 138.33166666666511,
      "v": 61
    },
    {
      "midi": 52,
      "hit": false,
      "t": 74284.10499999957,
      "d": 276.66333333333023,
      "v": 67
    },
    {
      "midi": 80,
      "hit": false,
      "t": 74284.10499999982,
      "d": 414.99499999999534,
      "v": 79
    },
    {
      "midi": 85,
      "hit": false,
      "t": 74284.10499999982,
      "d": 414.99499999999534,
      "v": 79
    },
    {
      "midi": 92,
      "hit": false,
      "t": 74284.10499999982,
      "d": 414.99499999999534,
      "v": 93
    },
    {
      "midi": 49,
      "hit": false,
      "t": 74560.7683333329,
      "d": 138.33166666666511,
      "v": 53
    },
    {
      "midi": 52,
      "hit": false,
      "t": 74560.7683333329,
      "d": 138.33166666666511,
      "v": 63
    },
    {
      "midi": 61,
      "hit": false,
      "t": 74699.09999999957,
      "d": 276.66333333333023,
      "v": 69
    },
    {
      "midi": 80,
      "hit": false,
      "t": 74699.09999999982,
      "d": 276.66333333333023,
      "v": 80
    },
    {
      "midi": 85,
      "hit": false,
      "t": 74699.09999999982,
      "d": 276.66333333333023,
      "v": 80
    },
    {
      "midi": 92,
      "hit": false,
      "t": 74699.09999999982,
      "d": 276.66333333333023,
      "v": 95
    },
    {
      "midi": 52,
      "hit": false,
      "t": 74975.7633333329,
      "d": 138.33166666666511,
      "v": 53
    },
    {
      "midi": 61,
      "hit": false,
      "t": 74975.7633333329,
      "d": 138.33166666666511,
      "v": 63
    },
    {
      "midi": 80,
      "hit": false,
      "t": 74975.76333333315,
      "d": 276.66333333333023,
      "v": 84
    },
    {
      "midi": 85,
      "hit": false,
      "t": 74975.76333333315,
      "d": 276.66333333333023,
      "v": 84
    },
    {
      "midi": 92,
      "hit": false,
      "t": 74975.76333333315,
      "d": 276.66333333333023,
      "v": 99
    },
    {
      "midi": 64,
      "hit": false,
      "t": 75114.09499999956,
      "d": 276.66333333333023,
      "v": 71
    },
    {
      "midi": 80,
      "hit": false,
      "t": 75252.42666666648,
      "d": 276.66333333333023,
      "v": 85
    },
    {
      "midi": 85,
      "hit": false,
      "t": 75252.42666666648,
      "d": 276.66333333333023,
      "v": 85
    },
    {
      "midi": 92,
      "hit": false,
      "t": 75252.42666666648,
      "d": 276.66333333333023,
      "v": 100
    },
    {
      "midi": 57,
      "hit": false,
      "t": 75390.7583333329,
      "d": 138.33166666666511,
      "v": 55
    },
    {
      "midi": 61,
      "hit": false,
      "t": 75390.7583333329,
      "d": 138.33166666666511,
      "v": 65
    },
    {
      "midi": 69,
      "hit": false,
      "t": 75529.08999999956,
      "d": 276.66333333333023,
      "v": 79
    },
    {
      "midi": 80,
      "hit": false,
      "t": 75529.08999999981,
      "d": 207.49749999999767,
      "v": 86
    },
    {
      "midi": 85,
      "hit": false,
      "t": 75529.08999999981,
      "d": 207.49749999999767,
      "v": 86
    },
    {
      "midi": 92,
      "hit": false,
      "t": 75529.08999999981,
      "d": 207.49749999999767,
      "v": 102
    },
    {
      "midi": 80,
      "hit": false,
      "t": 75736.5874999998,
      "d": 207.49749999999767,
      "v": 88
    },
    {
      "midi": 85,
      "hit": false,
      "t": 75736.5874999998,
      "d": 207.49749999999767,
      "v": 88
    },
    {
      "midi": 92,
      "hit": false,
      "t": 75736.5874999998,
      "d": 207.49749999999767,
      "v": 104
    },
    {
      "midi": 52,
      "hit": false,
      "t": 75805.75333333289,
      "d": 138.33166666666511,
      "v": 57
    },
    {
      "midi": 61,
      "hit": false,
      "t": 75805.75333333289,
      "d": 138.33166666666511,
      "v": 68
    },
    {
      "midi": 64,
      "hit": false,
      "t": 75944.08499999956,
      "d": 276.66333333333023,
      "v": 75
    },
    {
      "midi": 80,
      "hit": false,
      "t": 75944.0849999998,
      "d": 207.49749999999767,
      "v": 89
    },
    {
      "midi": 85,
      "hit": false,
      "t": 75944.0849999998,
      "d": 207.49749999999767,
      "v": 89
    },
    {
      "midi": 92,
      "hit": false,
      "t": 75944.0849999998,
      "d": 207.49749999999767,
      "v": 105
    },
    {
      "midi": 80,
      "hit": false,
      "t": 76151.5824999998,
      "d": 207.49749999999767,
      "v": 90
    },
    {
      "midi": 85,
      "hit": false,
      "t": 76151.5824999998,
      "d": 207.49749999999767,
      "v": 90
    },
    {
      "midi": 92,
      "hit": false,
      "t": 76151.5824999998,
      "d": 207.49749999999767,
      "v": 107
    },
    {
      "midi": 33,
      "hit": false,
      "t": 76220.74833333289,
      "d": 138.33166666666511,
      "v": 58
    },
    {
      "midi": 40,
      "hit": false,
      "t": 76220.74833333289,
      "d": 138.33166666666511,
      "v": 69
    },
    {
      "midi": 42,
      "hit": false,
      "t": 76359.07999999955,
      "d": 276.66333333333023,
      "v": 66
    },
    {
      "midi": 80,
      "hit": false,
      "t": 76359.0799999998,
      "d": 207.49749999999767,
      "v": 90
    },
    {
      "midi": 85,
      "hit": false,
      "t": 76359.0799999998,
      "d": 207.49749999999767,
      "v": 90
    },
    {
      "midi": 92,
      "hit": false,
      "t": 76359.0799999998,
      "d": 207.49749999999767,
      "v": 107
    },
    {
      "midi": 75,
      "hit": false,
      "t": 76566.5774999998,
      "d": 207.49749999999767,
      "v": 84
    },
    {
      "midi": 80,
      "hit": false,
      "t": 76566.5774999998,
      "d": 207.49749999999767,
      "v": 84
    },
    {
      "midi": 87,
      "hit": false,
      "t": 76566.5774999998,
      "d": 207.49749999999767,
      "v": 99
    },
    {
      "midi": 42,
      "hit": false,
      "t": 76635.74333333288,
      "d": 138.33166666666511,
      "v": 61
    },
    {
      "midi": 52,
      "hit": false,
      "t": 76774.07499999955,
      "d": 276.66333333333023,
      "v": 67
    },
    {
      "midi": 58,
      "hit": false,
      "t": 76774.07499999955,
      "d": 276.66333333333023,
      "v": 67
    },
    {
      "midi": 75,
      "hit": false,
      "t": 76774.0749999998,
      "d": 207.49749999999767,
      "v": 84
    },
    {
      "midi": 80,
      "hit": false,
      "t": 76774.0749999998,
      "d": 207.49749999999767,
      "v": 84
    },
    {
      "midi": 87,
      "hit": false,
      "t": 76774.0749999998,
      "d": 207.49749999999767,
      "v": 99
    },
    {
      "midi": 73,
      "hit": false,
      "t": 76981.57249999979,
      "d": 207.49749999999767,
      "v": 80
    },
    {
      "midi": 80,
      "hit": false,
      "t": 76981.57249999979,
      "d": 207.49749999999767,
      "v": 80
    },
    {
      "midi": 85,
      "hit": false,
      "t": 76981.57249999979,
      "d": 207.49749999999767,
      "v": 95
    },
    {
      "midi": 52,
      "hit": false,
      "t": 77050.73833333288,
      "d": 138.33166666666511,
      "v": 63
    },
    {
      "midi": 58,
      "hit": false,
      "t": 77189.06999999954,
      "d": 276.66333333333023,
      "v": 64
    },
    {
      "midi": 64,
      "hit": false,
      "t": 77189.06999999954,
      "d": 276.66333333333023,
      "v": 69
    },
    {
      "midi": 73,
      "hit": false,
      "t": 77189.06999999979,
      "d": 207.49749999999767,
      "v": 89
    },
    {
      "midi": 80,
      "hit": false,
      "t": 77189.06999999979,
      "d": 207.49749999999767,
      "v": 89
    },
    {
      "midi": 85,
      "hit": false,
      "t": 77189.06999999979,
      "d": 207.49749999999767,
      "v": 105
    },
    {
      "midi": 68,
      "hit": false,
      "t": 77396.56749999979,
      "d": 207.49749999999767,
      "v": 79
    },
    {
      "midi": 75,
      "hit": false,
      "t": 77396.56749999979,
      "d": 207.49749999999767,
      "v": 79
    },
    {
      "midi": 80,
      "hit": false,
      "t": 77396.56749999979,
      "d": 207.49749999999767,
      "v": 93
    },
    {
      "midi": 58,
      "hit": false,
      "t": 77465.73333333287,
      "d": 138.33166666666511,
      "v": 63
    },
    {
      "midi": 64,
      "hit": false,
      "t": 77604.06499999954,
      "d": 276.66333333333023,
      "v": 67
    },
    {
      "midi": 70,
      "hit": false,
      "t": 77604.06499999954,
      "d": 276.66333333333023,
      "v": 71
    },
    {
      "midi": 68,
      "hit": false,
      "t": 77604.06499999978,
      "d": 207.49749999999767,
      "v": 79
    },
    {
      "midi": 75,
      "hit": false,
      "t": 77604.06499999978,
      "d": 207.49749999999767,
      "v": 79
    },
    {
      "midi": 80,
      "hit": false,
      "t": 77604.06499999978,
      "d": 207.49749999999767,
      "v": 93
    },
    {
      "midi": 63,
      "hit": false,
      "t": 77811.56249999978,
      "d": 207.49749999999767,
      "v": 77
    },
    {
      "midi": 68,
      "hit": false,
      "t": 77811.56249999978,
      "d": 207.49749999999767,
      "v": 77
    },
    {
      "midi": 75,
      "hit": false,
      "t": 77811.56249999978,
      "d": 207.49749999999767,
      "v": 91
    },
    {
      "midi": 52,
      "hit": false,
      "t": 77880.72833333287,
      "d": 138.33166666666511,
      "v": 65
    },
    {
      "midi": 58,
      "hit": false,
      "t": 78019.05999999953,
      "d": 276.66333333333023,
      "v": 74
    },
    {
      "midi": 64,
      "hit": false,
      "t": 78019.05999999953,
      "d": 276.66333333333023,
      "v": 79
    },
    {
      "midi": 63,
      "hit": false,
      "t": 78019.05999999978,
      "d": 207.49749999999767,
      "v": 77
    },
    {
      "midi": 68,
      "hit": false,
      "t": 78019.05999999978,
      "d": 207.49749999999767,
      "v": 77
    },
    {
      "midi": 75,
      "hit": false,
      "t": 78019.05999999978,
      "d": 207.49749999999767,
      "v": 91
    },
    {
      "midi": 61,
      "hit": false,
      "t": 78226.55749999978,
      "d": 207.49749999999767,
      "v": 73
    },
    {
      "midi": 68,
      "hit": false,
      "t": 78226.55749999978,
      "d": 207.49749999999767,
      "v": 73
    },
    {
      "midi": 73,
      "hit": false,
      "t": 78226.55749999978,
      "d": 207.49749999999767,
      "v": 87
    },
    {
      "midi": 42,
      "hit": false,
      "t": 78295.72333333286,
      "d": 138.33166666666511,
      "v": 68
    },
    {
      "midi": 52,
      "hit": false,
      "t": 78434.05499999953,
      "d": 829.9900000000052,
      "v": 75
    },
    {
      "midi": 58,
      "hit": false,
      "t": 78434.05499999953,
      "d": 829.9900000000052,
      "v": 75
    },
    {
      "midi": 61,
      "hit": false,
      "t": 78434.05499999977,
      "d": 207.49749999999767,
      "v": 73
    },
    {
      "midi": 68,
      "hit": false,
      "t": 78434.05499999977,
      "d": 207.49749999999767,
      "v": 73
    },
    {
      "midi": 73,
      "hit": false,
      "t": 78434.05499999977,
      "d": 207.49749999999767,
      "v": 87
    },
    {
      "midi": 56,
      "hit": false,
      "t": 78641.55249999977,
      "d": 207.49749999999767,
      "v": 68
    },
    {
      "midi": 61,
      "hit": false,
      "t": 78641.55249999977,
      "d": 207.49749999999767,
      "v": 68
    },
    {
      "midi": 68,
      "hit": false,
      "t": 78641.55249999977,
      "d": 207.49749999999767,
      "v": 81
    },
    {
      "midi": 56,
      "hit": false,
      "t": 78849.04999999977,
      "d": 207.49749999999767,
      "v": 68
    },
    {
      "midi": 61,
      "hit": false,
      "t": 78849.04999999977,
      "d": 207.49749999999767,
      "v": 68
    },
    {
      "midi": 68,
      "hit": false,
      "t": 78849.04999999977,
      "d": 207.49749999999767,
      "v": 81
    },
    {
      "midi": 51,
      "hit": false,
      "t": 79056.54749999977,
      "d": 207.49749999999767,
      "v": 66
    },
    {
      "midi": 56,
      "hit": false,
      "t": 79056.54749999977,
      "d": 207.49749999999767,
      "v": 66
    },
    {
      "midi": 63,
      "hit": false,
      "t": 79056.54749999977,
      "d": 207.49749999999767,
      "v": 78
    },
    {
      "midi": 42,
      "hit": false,
      "t": 79264.04499999953,
      "d": 138.33166666666511,
      "v": 69
    },
    {
      "midi": 51,
      "hit": false,
      "t": 79264.04499999977,
      "d": 207.49749999999767,
      "v": 66
    },
    {
      "midi": 56,
      "hit": false,
      "t": 79264.04499999977,
      "d": 207.49749999999767,
      "v": 66
    },
    {
      "midi": 63,
      "hit": false,
      "t": 79264.04499999977,
      "d": 207.49749999999767,
      "v": 78
    },
    {
      "midi": 52,
      "hit": false,
      "t": 79402.3766666662,
      "d": 276.66333333333023,
      "v": 79
    },
    {
      "midi": 49,
      "hit": false,
      "t": 79471.54249999976,
      "d": 103.74874999999884,
      "v": 63
    },
    {
      "midi": 56,
      "hit": false,
      "t": 79471.54249999976,
      "d": 103.74874999999884,
      "v": 63
    },
    {
      "midi": 61,
      "hit": false,
      "t": 79471.54249999976,
      "d": 103.74874999999884,
      "v": 75
    },
    {
      "midi": 48,
      "hit": false,
      "t": 79575.29124999976,
      "d": 103.74874999999884,
      "v": 66
    },
    {
      "midi": 60,
      "hit": false,
      "t": 79575.29124999976,
      "d": 103.74874999999884,
      "v": 78
    },
    {
      "midi": 47,
      "hit": false,
      "t": 79679.03999999976,
      "d": 2489.970000000001,
      "v": 75
    },
    {
      "midi": 56,
      "hit": false,
      "t": 79679.03999999976,
      "d": 2489.970000000001,
      "v": 75
    },
    {
      "midi": 59,
      "hit": false,
      "t": 79679.03999999976,
      "d": 2489.970000000001,
      "v": 89
    },
    {
      "midi": 47,
      "hit": false,
      "t": 79817.3716666662,
      "d": 138.33166666666511,
      "v": 72
    },
    {
      "midi": 56,
      "hit": false,
      "t": 79955.70333333286,
      "d": 138.33166666666511,
      "v": 75
    },
    {
      "midi": 59,
      "hit": false,
      "t": 80094.03499999952,
      "d": 138.33166666666511,
      "v": 78
    },
    {
      "midi": 56,
      "hit": false,
      "t": 80232.36666666619,
      "d": 138.33166666666511,
      "v": 69
    },
    {
      "midi": 64,
      "hit": false,
      "t": 80370.69833333285,
      "d": 138.33166666666511,
      "v": 69
    },
    {
      "midi": 81,
      "hit": false,
      "t": 80370.6983333331,
      "d": 138.33166666666511,
      "v": 68
    },
    {
      "midi": 84,
      "hit": false,
      "t": 80370.6983333331,
      "d": 138.33166666666511,
      "v": 68
    },
    {
      "midi": 93,
      "hit": false,
      "t": 80370.6983333331,
      "d": 138.33166666666511,
      "v": 81
    },
    {
      "midi": 80,
      "hit": false,
      "t": 80509.02999999977,
      "d": 691.6583333333401,
      "v": 76
    },
    {
      "midi": 88,
      "hit": false,
      "t": 80509.02999999977,
      "d": 691.6583333333401,
      "v": 76
    },
    {
      "midi": 92,
      "hit": false,
      "t": 80509.02999999977,
      "d": 691.6583333333401,
      "v": 90
    },
    {
      "midi": 76,
      "hit": false,
      "t": 80647.36166666618,
      "d": 138.33166666666511,
      "v": 69
    },
    {
      "midi": 68,
      "hit": false,
      "t": 80785.69333333285,
      "d": 138.33166666666511,
      "v": 69
    },
    {
      "midi": 71,
      "hit": false,
      "t": 80924.02499999951,
      "d": 138.33166666666511,
      "v": 78
    },
    {
      "midi": 64,
      "hit": false,
      "t": 81062.35666666618,
      "d": 138.33166666666511,
      "v": 69
    },
    {
      "midi": 59,
      "hit": false,
      "t": 81200.68833333284,
      "d": 138.33166666666511,
      "v": 66
    },
    {
      "midi": 69,
      "hit": false,
      "t": 81200.6883333331,
      "d": 138.33166666666511,
      "v": 68
    },
    {
      "midi": 72,
      "hit": false,
      "t": 81200.6883333331,
      "d": 138.33166666666511,
      "v": 81
    },
    {
      "midi": 81,
      "hit": false,
      "t": 81200.6883333331,
      "d": 138.33166666666511,
      "v": 81
    },
    {
      "midi": 68,
      "hit": false,
      "t": 81339.01999999977,
      "d": 553.3266666666605,
      "v": 76
    },
    {
      "midi": 76,
      "hit": false,
      "t": 81339.01999999977,
      "d": 553.3266666666605,
      "v": 76
    },
    {
      "midi": 80,
      "hit": false,
      "t": 81339.01999999977,
      "d": 553.3266666666605,
      "v": 90
    },
    {
      "midi": 52,
      "hit": false,
      "t": 81477.35166666617,
      "d": 138.33166666666511,
      "v": 69
    },
    {
      "midi": 47,
      "hit": false,
      "t": 81615.68333333284,
      "d": 138.33166666666511,
      "v": 69
    },
    {
      "midi": 40,
      "hit": false,
      "t": 81754.0149999995,
      "d": 138.33166666666511,
      "v": 77
    },
    {
      "midi": 40,
      "hit": false,
      "t": 81892.34666666617,
      "d": 138.33166666666511,
      "v": 69
    },
    {
      "midi": 46,
      "hit": false,
      "t": 81892.34666666643,
      "d": 138.33166666666511,
      "v": 58
    },
    {
      "midi": 58,
      "hit": false,
      "t": 81892.34666666643,
      "d": 138.33166666666511,
      "v": 69
    },
    {
      "midi": 28,
      "hit": false,
      "t": 82030.67833333283,
      "d": 138.33166666666511,
      "v": 69
    },
    {
      "midi": 45,
      "hit": false,
      "t": 82030.6783333331,
      "d": 138.33166666666511,
      "v": 68
    },
    {
      "midi": 57,
      "hit": false,
      "t": 82030.6783333331,
      "d": 138.33166666666511,
      "v": 81
    },
    {
      "midi": 27,
      "hit": false,
      "t": 82169.0099999995,
      "d": 2489.969999999972,
      "v": 65
    },
    {
      "midi": 39,
      "hit": false,
      "t": 82169.0099999995,
      "d": 2489.969999999972,
      "v": 69
    },
    {
      "midi": 44,
      "hit": false,
      "t": 82169.00999999976,
      "d": 2489.970000000001,
      "v": 70
    },
    {
      "midi": 48,
      "hit": false,
      "t": 82169.00999999976,
      "d": 2489.970000000001,
      "v": 70
    },
    {
      "midi": 56,
      "hit": false,
      "t": 82169.00999999976,
      "d": 2489.970000000001,
      "v": 84
    },
    {
      "midi": 44,
      "hit": false,
      "t": 82307.34166666617,
      "d": 138.33166666666511,
      "v": 72
    },
    {
      "midi": 54,
      "hit": false,
      "t": 82445.67333333283,
      "d": 138.33166666666511,
      "v": 75
    },
    {
      "midi": 60,
      "hit": false,
      "t": 82584.0049999995,
      "d": 138.33166666666511,
      "v": 78
    },
    {
      "midi": 56,
      "hit": false,
      "t": 82722.33666666616,
      "d": 138.33166666666511,
      "v": 69
    },
    {
      "midi": 66,
      "hit": false,
      "t": 82860.66833333283,
      "d": 138.33166666666511,
      "v": 69
    },
    {
      "midi": 69,
      "hit": false,
      "t": 82860.6683333331,
      "d": 138.33166666666511,
      "v": 68
    },
    {
      "midi": 78,
      "hit": false,
      "t": 82860.6683333331,
      "d": 138.33166666666511,
      "v": 68
    },
    {
      "midi": 81,
      "hit": false,
      "t": 82860.6683333331,
      "d": 138.33166666666511,
      "v": 81
    },
    {
      "midi": 68,
      "hit": false,
      "t": 82998.99999999977,
      "d": 691.6583333333401,
      "v": 76
    },
    {
      "midi": 72,
      "hit": false,
      "t": 82998.99999999977,
      "d": 691.6583333333401,
      "v": 76
    },
    {
      "midi": 80,
      "hit": false,
      "t": 82998.99999999977,
      "d": 691.6583333333401,
      "v": 90
    },
    {
      "midi": 78,
      "hit": false,
      "t": 83137.33166666616,
      "d": 138.33166666666511,
      "v": 69
    },
    {
      "midi": 68,
      "hit": false,
      "t": 83275.66333333282,
      "d": 138.33166666666511,
      "v": 69
    },
    {
      "midi": 72,
      "hit": false,
      "t": 83413.99499999949,
      "d": 138.33166666666511,
      "v": 78
    },
    {
      "midi": 66,
      "hit": false,
      "t": 83552.32666666615,
      "d": 138.33166666666511,
      "v": 69
    },
    {
      "midi": 56,
      "hit": false,
      "t": 83690.65833333282,
      "d": 138.33166666666511,
      "v": 66
    },
    {
      "midi": 81,
      "hit": false,
      "t": 83690.65833333311,
      "d": 138.33166666666511,
      "v": 68
    },
    {
      "midi": 90,
      "hit": false,
      "t": 83690.65833333311,
      "d": 138.33166666666511,
      "v": 81
    },
    {
      "midi": 93,
      "hit": false,
      "t": 83690.65833333311,
      "d": 138.33166666666511,
      "v": 81
    },
    {
      "midi": 80,
      "hit": false,
      "t": 83828.98999999977,
      "d": 553.3266666666605,
      "v": 76
    },
    {
      "midi": 84,
      "hit": false,
      "t": 83828.98999999977,
      "d": 553.3266666666605,
      "v": 76
    },
    {
      "midi": 92,
      "hit": false,
      "t": 83828.98999999977,
      "d": 553.3266666666605,
      "v": 90
    },
    {
      "midi": 54,
      "hit": false,
      "t": 83967.32166666615,
      "d": 138.33166666666511,
      "v": 69
    },
    {
      "midi": 44,
      "hit": false,
      "t": 84105.65333333281,
      "d": 138.33166666666511,
      "v": 69
    },
    {
      "midi": 44,
      "hit": false,
      "t": 84243.98499999948,
      "d": 138.33166666666511,
      "v": 77
    },
    {
      "midi": 32,
      "hit": false,
      "t": 84382.31666666614,
      "d": 138.33166666666511,
      "v": 69
    },
    {
      "midi": 42,
      "hit": false,
      "t": 84382.31666666643,
      "d": 138.33166666666511,
      "v": 58
    },
    {
      "midi": 54,
      "hit": false,
      "t": 84382.31666666643,
      "d": 138.33166666666511,
      "v": 69
    },
    {
      "midi": 41,
      "hit": false,
      "t": 84520.6483333331,
      "d": 138.33166666666511,
      "v": 68
    },
    {
      "midi": 53,
      "hit": false,
      "t": 84520.6483333331,
      "d": 138.33166666666511,
      "v": 81
    },
    {
      "midi": 25,
      "hit": false,
      "t": 84658.97999999947,
      "d": 414.99499999999534,
      "v": 69
    },
    {
      "midi": 37,
      "hit": false,
      "t": 84658.97999999947,
      "d": 414.99499999999534,
      "v": 69
    },
    {
      "midi": 40,
      "hit": false,
      "t": 84658.97999999976,
      "d": 829.9900000000052,
      "v": 69
    },
    {
      "midi": 52,
      "hit": false,
      "t": 84658.97999999976,
      "d": 829.9900000000052,
      "v": 73
    },
    {
      "midi": 37,
      "hit": false,
      "t": 85073.97499999947,
      "d": 138.33166666666511,
      "v": 64
    },
    {
      "midi": 44,
      "hit": false,
      "t": 85212.30666666613,
      "d": 138.33166666666511,
      "v": 64
    },
    {
      "midi": 49,
      "hit": false,
      "t": 85350.6383333328,
      "d": 138.33166666666511,
      "v": 64
    },
    {
      "midi": 56,
      "hit": false,
      "t": 85488.96999999946,
      "d": 138.33166666666511,
      "v": 71
    },
    {
      "midi": 64,
      "hit": false,
      "t": 85488.96999999977,
      "d": 1521.6483333333308,
      "v": 73
    },
    {
      "midi": 49,
      "hit": false,
      "t": 85627.30166666613,
      "d": 138.33166666666511,
      "v": 63
    },
    {
      "midi": 44,
      "hit": false,
      "t": 85765.6333333328,
      "d": 138.33166666666511,
      "v": 63
    },
    {
      "midi": 37,
      "hit": false,
      "t": 85903.96499999946,
      "d": 138.33166666666511,
      "v": 62
    },
    {
      "midi": 25,
      "hit": false,
      "t": 86042.29666666612,
      "d": 138.33166666666511,
      "v": 62
    },
    {
      "midi": 44,
      "hit": false,
      "t": 86180.62833333279,
      "d": 138.33166666666511,
      "v": 62
    },
    {
      "midi": 56,
      "hit": false,
      "t": 86318.95999999945,
      "d": 138.33166666666511,
      "v": 69
    },
    {
      "midi": 49,
      "hit": false,
      "t": 86457.29166666612,
      "d": 138.33166666666511,
      "v": 62
    },
    {
      "midi": 44,
      "hit": false,
      "t": 86595.62333333278,
      "d": 138.33166666666511,
      "v": 62
    },
    {
      "midi": 37,
      "hit": false,
      "t": 86733.95499999945,
      "d": 138.33166666666511,
      "v": 69
    },
    {
      "midi": 25,
      "hit": false,
      "t": 86872.28666666611,
      "d": 138.33166666666511,
      "v": 62
    },
    {
      "midi": 43,
      "hit": false,
      "t": 87010.61833333278,
      "d": 138.33166666666511,
      "v": 63
    },
    {
      "midi": 63,
      "hit": false,
      "t": 87010.6183333331,
      "d": 44.95779166666034,
      "v": 68
    },
    {
      "midi": 61,
      "hit": false,
      "t": 87055.57612499976,
      "d": 44.95779166666034,
      "v": 70
    },
    {
      "midi": 59,
      "hit": false,
      "t": 87100.53391666642,
      "d": 48.41608333332988,
      "v": 72
    },
    {
      "midi": 55,
      "hit": false,
      "t": 87148.94999999944,
      "d": 138.33166666666511,
      "v": 69
    },
    {
      "midi": 58,
      "hit": false,
      "t": 87148.94999999975,
      "d": 2489.970000000001,
      "v": 78
    },
    {
      "midi": 49,
      "hit": false,
      "t": 87287.28166666611,
      "d": 138.33166666666511,
      "v": 61
    },
    {
      "midi": 43,
      "hit": false,
      "t": 87425.61333333277,
      "d": 138.33166666666511,
      "v": 61
    },
    {
      "midi": 47,
      "hit": false,
      "t": 87425.61333333308,
      "d": 138.33166666666511,
      "v": 73
    },
    {
      "midi": 37,
      "hit": false,
      "t": 87563.94499999944,
      "d": 138.33166666666511,
      "v": 68
    },
    {
      "midi": 46,
      "hit": false,
      "t": 87563.94499999975,
      "d": 829.9900000000052,
      "v": 87
    },
    {
      "midi": 25,
      "hit": false,
      "t": 87702.2766666661,
      "d": 138.33166666666511,
      "v": 62
    },
    {
      "midi": 43,
      "hit": false,
      "t": 87840.60833333277,
      "d": 138.33166666666511,
      "v": 59
    },
    {
      "midi": 55,
      "hit": false,
      "t": 87978.93999999943,
      "d": 138.33166666666511,
      "v": 69
    },
    {
      "midi": 49,
      "hit": false,
      "t": 88117.2716666661,
      "d": 138.33166666666511,
      "v": 62
    },
    {
      "midi": 43,
      "hit": false,
      "t": 88255.60333333277,
      "d": 138.33166666666511,
      "v": 62
    },
    {
      "midi": 37,
      "hit": false,
      "t": 88393.93499999943,
      "d": 138.33166666666511,
      "v": 69
    },
    {
      "midi": 34,
      "hit": false,
      "t": 88393.93499999975,
      "d": 691.6583333333401,
      "v": 88
    },
    {
      "midi": 25,
      "hit": false,
      "t": 88532.2666666661,
      "d": 138.33166666666511,
      "v": 64
    },
    {
      "midi": 43,
      "hit": false,
      "t": 88670.59833333276,
      "d": 138.33166666666511,
      "v": 65
    },
    {
      "midi": 55,
      "hit": false,
      "t": 88808.92999999943,
      "d": 138.33166666666511,
      "v": 69
    },
    {
      "midi": 49,
      "hit": false,
      "t": 88947.26166666609,
      "d": 138.33166666666511,
      "v": 63
    },
    {
      "midi": 43,
      "hit": false,
      "t": 89085.59333333276,
      "d": 138.33166666666511,
      "v": 63
    },
    {
      "midi": 47,
      "hit": false,
      "t": 89085.59333333309,
      "d": 138.33166666666511,
      "v": 73
    },
    {
      "midi": 37,
      "hit": false,
      "t": 89223.92499999942,
      "d": 138.33166666666511,
      "v": 69
    },
    {
      "midi": 46,
      "hit": false,
      "t": 89223.92499999976,
      "d": 414.99499999999534,
      "v": 83
    },
    {
      "midi": 25,
      "hit": false,
      "t": 89362.25666666609,
      "d": 138.33166666666511,
      "v": 61
    },
    {
      "midi": 42,
      "hit": false,
      "t": 89500.58833333275,
      "d": 138.33166666666511,
      "v": 61
    },
    {
      "midi": 54,
      "hit": false,
      "t": 89500.58833333309,
      "d": 69.16583333333256,
      "v": 62
    },
    {
      "midi": 57,
      "hit": false,
      "t": 89569.75416666642,
      "d": 69.16583333333256,
      "v": 70
    },
    {
      "midi": 54,
      "hit": false,
      "t": 89638.91999999942,
      "d": 138.33166666666511,
      "v": 69
    },
    {
      "midi": 69,
      "hit": false,
      "t": 89638.91999999975,
      "d": 2351.638333333336,
      "v": 81
    },
    {
      "midi": 45,
      "hit": false,
      "t": 89777.25166666608,
      "d": 138.33166666666511,
      "v": 62
    },
    {
      "midi": 42,
      "hit": false,
      "t": 89915.58333333275,
      "d": 138.33166666666511,
      "v": 62
    },
    {
      "midi": 37,
      "hit": false,
      "t": 90053.91499999941,
      "d": 138.33166666666511,
      "v": 64
    },
    {
      "midi": 25,
      "hit": false,
      "t": 90192.24666666608,
      "d": 138.33166666666511,
      "v": 59
    },
    {
      "midi": 42,
      "hit": false,
      "t": 90330.57833333274,
      "d": 138.33166666666511,
      "v": 59
    },
    {
      "midi": 54,
      "hit": false,
      "t": 90468.9099999994,
      "d": 138.33166666666511,
      "v": 69
    },
    {
      "midi": 45,
      "hit": false,
      "t": 90607.24166666607,
      "d": 138.33166666666511,
      "v": 62
    },
    {
      "midi": 42,
      "hit": false,
      "t": 90745.57333333274,
      "d": 138.33166666666511,
      "v": 58
    },
    {
      "midi": 37,
      "hit": false,
      "t": 90883.9049999994,
      "d": 138.33166666666511,
      "v": 68
    },
    {
      "midi": 25,
      "hit": false,
      "t": 91022.23666666607,
      "d": 138.33166666666511,
      "v": 59
    },
    {
      "midi": 42,
      "hit": false,
      "t": 91160.56833333273,
      "d": 138.33166666666511,
      "v": 59
    },
    {
      "midi": 54,
      "hit": false,
      "t": 91298.8999999994,
      "d": 138.33166666666511,
      "v": 69
    },
    {
      "midi": 45,
      "hit": false,
      "t": 91437.23166666606,
      "d": 138.33166666666511,
      "v": 59
    },
    {
      "midi": 42,
      "hit": false,
      "t": 91575.56333333273,
      "d": 138.33166666666511,
      "v": 59
    },
    {
      "midi": 37,
      "hit": false,
      "t": 91713.8949999994,
      "d": 138.33166666666511,
      "v": 65
    },
    {
      "midi": 25,
      "hit": false,
      "t": 91852.22666666606,
      "d": 138.33166666666511,
      "v": 59
    },
    {
      "midi": 43,
      "hit": false,
      "t": 91990.55833333272,
      "d": 138.33166666666511,
      "v": 59
    },
    {
      "midi": 68,
      "hit": false,
      "t": 91990.55833333309,
      "d": 44.95779166666034,
      "v": 68
    },
    {
      "midi": 66,
      "hit": false,
      "t": 92035.51612499975,
      "d": 44.95779166666034,
      "v": 70
    },
    {
      "midi": 64,
      "hit": false,
      "t": 92080.47391666641,
      "d": 48.41608333332988,
      "v": 72
    },
    {
      "midi": 55,
      "hit": false,
      "t": 92128.88999999939,
      "d": 138.33166666666511,
      "v": 69
    },
    {
      "midi": 63,
      "hit": false,
      "t": 92128.88999999974,
      "d": 2489.970000000001,
      "v": 78
    },
    {
      "midi": 45,
      "hit": false,
      "t": 92267.22166666605,
      "d": 138.33166666666511,
      "v": 58
    },
    {
      "midi": 43,
      "hit": false,
      "t": 92405.55333333272,
      "d": 138.33166666666511,
      "v": 58
    },
    {
      "midi": 52,
      "hit": false,
      "t": 92405.55333333307,
      "d": 138.33166666666511,
      "v": 73
    },
    {
      "midi": 37,
      "hit": false,
      "t": 92543.88499999938,
      "d": 138.33166666666511,
      "v": 65
    },
    {
      "midi": 51,
      "hit": false,
      "t": 92543.88499999973,
      "d": 691.6583333333401,
      "v": 87
    },
    {
      "midi": 25,
      "hit": false,
      "t": 92682.21666666605,
      "d": 138.33166666666511,
      "v": 56
    },
    {
      "midi": 43,
      "hit": false,
      "t": 92820.54833333271,
      "d": 138.33166666666511,
      "v": 56
    },
    {
      "midi": 55,
      "hit": false,
      "t": 92958.87999999938,
      "d": 138.33166666666511,
      "v": 70
    },
    {
      "midi": 45,
      "hit": false,
      "t": 93097.21166666604,
      "d": 138.33166666666511,
      "v": 58
    },
    {
      "midi": 43,
      "hit": false,
      "t": 93235.54333333271,
      "d": 138.33166666666511,
      "v": 55
    },
    {
      "midi": 40,
      "hit": false,
      "t": 93235.54333333307,
      "d": 138.33166666666511,
      "v": 73
    },
    {
      "midi": 37,
      "hit": false,
      "t": 93373.87499999937,
      "d": 138.33166666666511,
      "v": 62
    },
    {
      "midi": 39,
      "hit": false,
      "t": 93373.87499999974,
      "d": 691.6583333333401,
      "v": 88
    },
    {
      "midi": 25,
      "hit": false,
      "t": 93512.20666666604,
      "d": 138.33166666666511,
      "v": 53
    },
    {
      "midi": 43,
      "hit": false,
      "t": 93650.5383333327,
      "d": 138.33166666666511,
      "v": 53
    },
    {
      "midi": 55,
      "hit": false,
      "t": 93788.86999999937,
      "d": 138.33166666666511,
      "v": 69
    },
    {
      "midi": 45,
      "hit": false,
      "t": 93927.20166666603,
      "d": 138.33166666666511,
      "v": 57
    },
    {
      "midi": 43,
      "hit": false,
      "t": 94065.5333333327,
      "d": 138.33166666666511,
      "v": 57
    },
    {
      "midi": 52,
      "hit": false,
      "t": 94065.53333333308,
      "d": 138.33166666666511,
      "v": 73
    },
    {
      "midi": 37,
      "hit": false,
      "t": 94203.86499999936,
      "d": 138.33166666666511,
      "v": 63
    },
    {
      "midi": 51,
      "hit": false,
      "t": 94203.86499999974,
      "d": 414.99499999999534,
      "v": 83
    },
    {
      "midi": 25,
      "hit": false,
      "t": 94342.19666666603,
      "d": 138.33166666666511,
      "v": 55
    },
    {
      "midi": 56,
      "hit": false,
      "t": 94463.23687499974,
      "d": 51.87437499999942,
      "v": 73
    },
    {
      "midi": 44,
      "hit": false,
      "t": 94480.5283333327,
      "d": 138.33166666666511,
      "v": 55
    },
    {
      "midi": 61,
      "hit": false,
      "t": 94515.11124999974,
      "d": 51.87437499999942,
      "v": 76
    },
    {
      "midi": 64,
      "hit": false,
      "t": 94566.98562499974,
      "d": 51.87437499999942,
      "v": 77
    },
    {
      "midi": 56,
      "hit": false,
      "t": 94618.85999999936,
      "d": 138.33166666666511,
      "v": 69
    },
    {
      "midi": 76,
      "hit": false,
      "t": 94618.85999999974,
      "d": 2351.638333333336,
      "v": 82
    },
    {
      "midi": 49,
      "hit": false,
      "t": 94757.19166666603,
      "d": 138.33166666666511,
      "v": 58
    },
    {
      "midi": 44,
      "hit": false,
      "t": 94895.52333333269,
      "d": 138.33166666666511,
      "v": 58
    },
    {
      "midi": 37,
      "hit": false,
      "t": 95033.85499999936,
      "d": 138.33166666666511,
      "v": 65
    },
    {
      "midi": 25,
      "hit": false,
      "t": 95172.18666666602,
      "d": 138.33166666666511,
      "v": 56
    },
    {
      "midi": 44,
      "hit": false,
      "t": 95310.51833333269,
      "d": 138.33166666666511,
      "v": 56
    },
    {
      "midi": 56,
      "hit": false,
      "t": 95448.84999999935,
      "d": 138.33166666666511,
      "v": 69
    },
    {
      "midi": 49,
      "hit": false,
      "t": 95587.18166666602,
      "d": 138.33166666666511,
      "v": 58
    },
    {
      "midi": 44,
      "hit": false,
      "t": 95725.51333333268,
      "d": 138.33166666666511,
      "v": 58
    },
    {
      "midi": 37,
      "hit": false,
      "t": 95863.84499999935,
      "d": 138.33166666666511,
      "v": 63
    },
    {
      "midi": 25,
      "hit": false,
      "t": 96002.17666666601,
      "d": 138.33166666666511,
      "v": 57
    },
    {
      "midi": 44,
      "hit": false,
      "t": 96140.50833333268,
      "d": 138.33166666666511,
      "v": 57
    },
    {
      "midi": 56,
      "hit": false,
      "t": 96278.83999999934,
      "d": 138.33166666666511,
      "v": 69
    },
    {
      "midi": 49,
      "hit": false,
      "t": 96417.171666666,
      "d": 138.33166666666511,
      "v": 59
    },
    {
      "midi": 44,
      "hit": false,
      "t": 96555.50333333267,
      "d": 138.33166666666511,
      "v": 59
    },
    {
      "midi": 37,
      "hit": false,
      "t": 96693.83499999934,
      "d": 138.33166666666511,
      "v": 64
    },
    {
      "midi": 25,
      "hit": false,
      "t": 96832.166666666,
      "d": 138.33166666666511,
      "v": 59
    },
    {
      "midi": 46,
      "hit": false,
      "t": 96970.49833333267,
      "d": 138.33166666666511,
      "v": 59
    },
    {
      "midi": 75,
      "hit": false,
      "t": 96970.49833333307,
      "d": 27.666333333327202,
      "v": 61
    },
    {
      "midi": 73,
      "hit": false,
      "t": 96998.1646666664,
      "d": 27.666333333327202,
      "v": 63
    },
    {
      "midi": 71,
      "hit": false,
      "t": 97027.56014583306,
      "d": 27.666333333327202,
      "v": 64
    },
    {
      "midi": 70,
      "hit": false,
      "t": 97055.22647916639,
      "d": 27.666333333327202,
      "v": 67
    },
    {
      "midi": 68,
      "hit": false,
      "t": 97082.89281249972,
      "d": 25.937187500006985,
      "v": 71
    },
    {
      "midi": 58,
      "hit": false,
      "t": 97108.82999999933,
      "d": 138.33166666666511,
      "v": 69
    },
    {
      "midi": 49,
      "hit": false,
      "t": 97247.161666666,
      "d": 138.33166666666511,
      "v": 59
    },
    {
      "midi": 46,
      "hit": false,
      "t": 97385.49333333266,
      "d": 138.33166666666511,
      "v": 59
    },
    {
      "midi": 56,
      "hit": false,
      "t": 97385.49333333306,
      "d": 138.33166666666511,
      "v": 73
    },
    {
      "midi": 37,
      "hit": false,
      "t": 97523.82499999933,
      "d": 138.33166666666511,
      "v": 64
    },
    {
      "midi": 55,
      "hit": false,
      "t": 97523.82499999972,
      "d": 691.6583333333401,
      "v": 87
    },
    {
      "midi": 25,
      "hit": false,
      "t": 97662.156666666,
      "d": 138.33166666666511,
      "v": 58
    },
    {
      "midi": 46,
      "hit": false,
      "t": 97800.48833333266,
      "d": 138.33166666666511,
      "v": 58
    },
    {
      "midi": 58,
      "hit": false,
      "t": 97938.81999999932,
      "d": 138.33166666666511,
      "v": 69
    },
    {
      "midi": 49,
      "hit": false,
      "t": 98077.15166666599,
      "d": 138.33166666666511,
      "v": 58
    },
    {
      "midi": 46,
      "hit": false,
      "t": 98215.48333333265,
      "d": 138.33166666666511,
      "v": 58
    },
    {
      "midi": 44,
      "hit": false,
      "t": 98215.48333333306,
      "d": 138.33166666666511,
      "v": 73
    },
    {
      "midi": 37,
      "hit": false,
      "t": 98353.81499999932,
      "d": 138.33166666666511,
      "v": 63
    },
    {
      "midi": 43,
      "hit": false,
      "t": 98353.81499999973,
      "d": 691.6583333333401,
      "v": 88
    },
    {
      "midi": 25,
      "hit": false,
      "t": 98492.14666666598,
      "d": 138.33166666666511,
      "v": 57
    },
    {
      "midi": 46,
      "hit": false,
      "t": 98630.47833333265,
      "d": 138.33166666666511,
      "v": 57
    },
    {
      "midi": 58,
      "hit": false,
      "t": 98768.80999999931,
      "d": 138.33166666666511,
      "v": 69
    },
    {
      "midi": 49,
      "hit": false,
      "t": 98907.14166666598,
      "d": 138.33166666666511,
      "v": 58
    },
    {
      "midi": 46,
      "hit": false,
      "t": 99045.47333333264,
      "d": 138.33166666666511,
      "v": 58
    },
    {
      "midi": 56,
      "hit": false,
      "t": 99045.47333333307,
      "d": 138.33166666666511,
      "v": 73
    },
    {
      "midi": 37,
      "hit": false,
      "t": 99183.80499999931,
      "d": 138.33166666666511,
      "v": 63
    },
    {
      "midi": 55,
      "hit": false,
      "t": 99183.80499999973,
      "d": 414.99499999999534,
      "v": 83
    },
    {
      "midi": 25,
      "hit": false,
      "t": 99322.13666666597,
      "d": 138.33166666666511,
      "v": 58
    },
    {
      "midi": 59,
      "hit": false,
      "t": 99443.17687499973,
      "d": 51.87437499999942,
      "v": 73
    },
    {
      "midi": 47,
      "hit": false,
      "t": 99460.46833333264,
      "d": 138.33166666666511,
      "v": 58
    },
    {
      "midi": 64,
      "hit": false,
      "t": 99495.05124999973,
      "d": 51.87437499999942,
      "v": 76
    },
    {
      "midi": 67,
      "hit": false,
      "t": 99546.92562499973,
      "d": 51.87437499999942,
      "v": 77
    },
    {
      "midi": 59,
      "hit": false,
      "t": 99598.7999999993,
      "d": 138.33166666666511,
      "v": 69
    },
    {
      "midi": 79,
      "hit": false,
      "t": 99598.79999999973,
      "d": 1659.979999999996,
      "v": 91
    },
    {
      "midi": 52,
      "hit": false,
      "t": 99737.13166666597,
      "d": 138.33166666666511,
      "v": 62
    },
    {
      "midi": 47,
      "hit": false,
      "t": 99875.46333333263,
      "d": 138.33166666666511,
      "v": 62
    },
    {
      "midi": 47,
      "hit": false,
      "t": 100013.7949999993,
      "d": 138.33166666666511,
      "v": 71
    },
    {
      "midi": 37,
      "hit": false,
      "t": 100152.12666666596,
      "d": 138.33166666666511,
      "v": 63
    },
    {
      "midi": 47,
      "hit": false,
      "t": 100290.45833333263,
      "d": 138.33166666666511,
      "v": 64
    },
    {
      "midi": 59,
      "hit": false,
      "t": 100428.7899999993,
      "d": 138.33166666666511,
      "v": 78
    },
    {
      "midi": 52,
      "hit": false,
      "t": 100567.12166666596,
      "d": 138.33166666666511,
      "v": 67
    },
    {
      "midi": 47,
      "hit": false,
      "t": 100705.45333333263,
      "d": 138.33166666666511,
      "v": 67
    },
    {
      "midi": 47,
      "hit": false,
      "t": 100843.78499999929,
      "d": 138.33166666666511,
      "v": 74
    },
    {
      "midi": 37,
      "hit": false,
      "t": 100982.11666666596,
      "d": 138.33166666666511,
      "v": 69
    },
    {
      "midi": 48,
      "hit": false,
      "t": 101120.44833333262,
      "d": 138.33166666666511,
      "v": 69
    },
    {
      "midi": 60,
      "hit": false,
      "t": 101258.77999999929,
      "d": 138.33166666666511,
      "v": 81
    },
    {
      "midi": 78,
      "hit": false,
      "t": 101258.77999999972,
      "d": 1659.979999999996,
      "v": 90
    },
    {
      "midi": 51,
      "hit": false,
      "t": 101397.11166666595,
      "d": 138.33166666666511,
      "v": 72
    },
    {
      "midi": 48,
      "hit": false,
      "t": 101535.44333333262,
      "d": 138.33166666666511,
      "v": 73
    },
    {
      "midi": 48,
      "hit": false,
      "t": 101673.77499999928,
      "d": 138.33166666666511,
      "v": 83
    },
    {
      "midi": 37,
      "hit": false,
      "t": 101812.10666666595,
      "d": 138.33166666666511,
      "v": 74
    },
    {
      "midi": 48,
      "hit": false,
      "t": 101950.43833333261,
      "d": 138.33166666666511,
      "v": 74
    },
    {
      "midi": 60,
      "hit": false,
      "t": 102088.76999999928,
      "d": 138.33166666666511,
      "v": 84
    },
    {
      "midi": 51,
      "hit": false,
      "t": 102227.10166666594,
      "d": 138.33166666666511,
      "v": 74
    },
    {
      "midi": 48,
      "hit": false,
      "t": 102365.4333333326,
      "d": 138.33166666666511,
      "v": 75
    },
    {
      "midi": 48,
      "hit": false,
      "t": 102503.76499999927,
      "d": 138.33166666666511,
      "v": 80
    },
    {
      "midi": 37,
      "hit": false,
      "t": 102642.09666666594,
      "d": 138.33166666666511,
      "v": 73
    },
    {
      "midi": 47,
      "hit": false,
      "t": 102780.4283333326,
      "d": 138.33166666666511,
      "v": 73
    },
    {
      "midi": 77,
      "hit": false,
      "t": 102918.75999999972,
      "d": 726.2412500000064,
      "v": 104
    },
    {
      "midi": 61,
      "hit": false,
      "t": 102918.76,
      "d": 138.33166666666511,
      "v": 82
    },
    {
      "midi": 53,
      "hit": false,
      "t": 103057.09166666666,
      "d": 138.33166666666511,
      "v": 68
    },
    {
      "midi": 47,
      "hit": false,
      "t": 103195.42333333332,
      "d": 138.33166666666511,
      "v": 68
    },
    {
      "midi": 57,
      "hit": false,
      "t": 103333.75499999926,
      "d": 1659.979999999996,
      "v": 96
    },
    {
      "midi": 69,
      "hit": false,
      "t": 103333.75499999926,
      "d": 1659.979999999996,
      "v": 96
    },
    {
      "midi": 37,
      "hit": false,
      "t": 103333.75499999999,
      "d": 138.33166666666511,
      "v": 76
    },
    {
      "midi": 25,
      "hit": false,
      "t": 103472.08666666666,
      "d": 138.33166666666511,
      "v": 68
    },
    {
      "midi": 47,
      "hit": false,
      "t": 103610.41833333332,
      "d": 138.33166666666511,
      "v": 68
    },
    {
      "midi": 78,
      "hit": false,
      "t": 103645.00124999972,
      "d": 103.74874999999884,
      "v": 92
    },
    {
      "midi": 77,
      "hit": false,
      "t": 103748.74999999972,
      "d": 1556.231249999997,
      "v": 103
    },
    {
      "midi": 61,
      "hit": false,
      "t": 103748.74999999999,
      "d": 138.33166666666511,
      "v": 82
    },
    {
      "midi": 53,
      "hit": false,
      "t": 103887.08166666665,
      "d": 138.33166666666511,
      "v": 68
    },
    {
      "midi": 47,
      "hit": false,
      "t": 104025.41333333332,
      "d": 138.33166666666511,
      "v": 68
    },
    {
      "midi": 37,
      "hit": false,
      "t": 104163.74499999998,
      "d": 138.33166666666511,
      "v": 76
    },
    {
      "midi": 25,
      "hit": false,
      "t": 104302.07666666665,
      "d": 138.33166666666511,
      "v": 68
    },
    {
      "midi": 47,
      "hit": false,
      "t": 104440.40833333331,
      "d": 138.33166666666511,
      "v": 68
    },
    {
      "midi": 61,
      "hit": false,
      "t": 104578.73999999998,
      "d": 138.33166666666511,
      "v": 82
    },
    {
      "midi": 53,
      "hit": false,
      "t": 104717.07166666664,
      "d": 138.33166666666511,
      "v": 68
    },
    {
      "midi": 47,
      "hit": false,
      "t": 104855.4033333333,
      "d": 138.33166666666511,
      "v": 68
    },
    {
      "midi": 56,
      "hit": false,
      "t": 104993.73499999926,
      "d": 829.9900000000052,
      "v": 92
    },
    {
      "midi": 68,
      "hit": false,
      "t": 104993.73499999926,
      "d": 829.9900000000052,
      "v": 92
    },
    {
      "midi": 37,
      "hit": false,
      "t": 104993.73499999997,
      "d": 138.33166666666511,
      "v": 76
    },
    {
      "midi": 25,
      "hit": false,
      "t": 105132.06666666664,
      "d": 138.33166666666511,
      "v": 68
    },
    {
      "midi": 83,
      "hit": false,
      "t": 105270.39833333305,
      "d": 34.58291666666628,
      "v": 82
    },
    {
      "midi": 47,
      "hit": false,
      "t": 105270.3983333333,
      "d": 138.33166666666511,
      "v": 68
    },
    {
      "midi": 81,
      "hit": false,
      "t": 105304.98124999972,
      "d": 34.58291666666628,
      "v": 85
    },
    {
      "midi": 80,
      "hit": false,
      "t": 105339.56416666639,
      "d": 34.58291666666628,
      "v": 87
    },
    {
      "midi": 78,
      "hit": false,
      "t": 105374.14708333305,
      "d": 34.58291666666628,
      "v": 92
    },
    {
      "midi": 77,
      "hit": false,
      "t": 105408.72999999972,
      "d": 726.2412500000064,
      "v": 94
    },
    {
      "midi": 61,
      "hit": false,
      "t": 105408.72999999997,
      "d": 138.33166666666511,
      "v": 82
    },
    {
      "midi": 53,
      "hit": false,
      "t": 105547.06166666663,
      "d": 138.33166666666511,
      "v": 68
    },
    {
      "midi": 47,
      "hit": false,
      "t": 105685.3933333333,
      "d": 138.33166666666511,
      "v": 68
    },
    {
      "midi": 55,
      "hit": false,
      "t": 105823.72499999926,
      "d": 414.99499999999534,
      "v": 98
    },
    {
      "midi": 67,
      "hit": false,
      "t": 105823.72499999926,
      "d": 414.99499999999534,
      "v": 98
    },
    {
      "midi": 37,
      "hit": false,
      "t": 105823.72499999996,
      "d": 138.33166666666511,
      "v": 76
    },
    {
      "midi": 25,
      "hit": false,
      "t": 105962.05666666663,
      "d": 138.33166666666511,
      "v": 68
    },
    {
      "midi": 76,
      "hit": false,
      "t": 106100.38833333306,
      "d": 43.228645833340124,
      "v": 85
    },
    {
      "midi": 49,
      "hit": false,
      "t": 106100.38833333329,
      "d": 138.33166666666511,
      "v": 68
    },
    {
      "midi": 75,
      "hit": false,
      "t": 106143.6169791664,
      "d": 43.228645833340124,
      "v": 91
    },
    {
      "midi": 74,
      "hit": false,
      "t": 106186.84562499974,
      "d": 51.87437499999942,
      "v": 94
    },
    {
      "midi": 73,
      "hit": false,
      "t": 106238.71999999974,
      "d": 726.2412500000064,
      "v": 104
    },
    {
      "midi": 61,
      "hit": false,
      "t": 106238.71999999996,
      "d": 138.33166666666511,
      "v": 82
    },
    {
      "midi": 55,
      "hit": false,
      "t": 106377.05166666662,
      "d": 138.33166666666511,
      "v": 68
    },
    {
      "midi": 45,
      "hit": false,
      "t": 106515.38333333329,
      "d": 138.33166666666511,
      "v": 68
    },
    {
      "midi": 57,
      "hit": false,
      "t": 106653.71499999925,
      "d": 1659.979999999996,
      "v": 96
    },
    {
      "midi": 69,
      "hit": false,
      "t": 106653.71499999925,
      "d": 1659.979999999996,
      "v": 96
    },
    {
      "midi": 37,
      "hit": false,
      "t": 106653.71499999995,
      "d": 138.33166666666511,
      "v": 76
    },
    {
      "midi": 25,
      "hit": false,
      "t": 106792.04666666662,
      "d": 138.33166666666511,
      "v": 68
    },
    {
      "midi": 49,
      "hit": false,
      "t": 106930.37833333328,
      "d": 138.33166666666511,
      "v": 68
    },
    {
      "midi": 74,
      "hit": false,
      "t": 106964.96124999975,
      "d": 103.74874999999884,
      "v": 92
    },
    {
      "midi": 73,
      "hit": false,
      "t": 107068.70999999974,
      "d": 1556.231249999997,
      "v": 103
    },
    {
      "midi": 61,
      "hit": false,
      "t": 107068.70999999995,
      "d": 138.33166666666511,
      "v": 82
    },
    {
      "midi": 55,
      "hit": false,
      "t": 107207.04166666661,
      "d": 138.33166666666511,
      "v": 68
    },
    {
      "midi": 45,
      "hit": false,
      "t": 107345.37333333328,
      "d": 138.33166666666511,
      "v": 68
    },
    {
      "midi": 37,
      "hit": false,
      "t": 107483.70499999994,
      "d": 138.33166666666511,
      "v": 76
    },
    {
      "midi": 25,
      "hit": false,
      "t": 107622.03666666661,
      "d": 138.33166666666511,
      "v": 68
    },
    {
      "midi": 49,
      "hit": false,
      "t": 107760.36833333327,
      "d": 138.33166666666511,
      "v": 68
    },
    {
      "midi": 61,
      "hit": false,
      "t": 107898.69999999994,
      "d": 138.33166666666511,
      "v": 82
    },
    {
      "midi": 55,
      "hit": false,
      "t": 108037.0316666666,
      "d": 138.33166666666511,
      "v": 68
    },
    {
      "midi": 45,
      "hit": false,
      "t": 108175.36333333327,
      "d": 138.33166666666511,
      "v": 68
    },
    {
      "midi": 56,
      "hit": false,
      "t": 108313.69499999925,
      "d": 829.9900000000052,
      "v": 92
    },
    {
      "midi": 68,
      "hit": false,
      "t": 108313.69499999925,
      "d": 829.9900000000052,
      "v": 92
    },
    {
      "midi": 37,
      "hit": false,
      "t": 108313.69499999993,
      "d": 138.33166666666511,
      "v": 76
    },
    {
      "midi": 25,
      "hit": false,
      "t": 108452.0266666666,
      "d": 138.33166666666511,
      "v": 68
    },
    {
      "midi": 80,
      "hit": false,
      "t": 108590.35833333308,
      "d": 34.58291666666628,
      "v": 82
    },
    {
      "midi": 49,
      "hit": false,
      "t": 108590.35833333326,
      "d": 138.33166666666511,
      "v": 68
    },
    {
      "midi": 77,
      "hit": false,
      "t": 108624.94124999974,
      "d": 34.58291666666628,
      "v": 85
    },
    {
      "midi": 76,
      "hit": false,
      "t": 108659.52416666641,
      "d": 34.58291666666628,
      "v": 87
    },
    {
      "midi": 74,
      "hit": false,
      "t": 108694.10708333307,
      "d": 34.58291666666628,
      "v": 92
    },
    {
      "midi": 73,
      "hit": false,
      "t": 108728.68999999974,
      "d": 726.2412500000064,
      "v": 94
    },
    {
      "midi": 61,
      "hit": false,
      "t": 108728.68999999993,
      "d": 138.33166666666511,
      "v": 82
    },
    {
      "midi": 55,
      "hit": false,
      "t": 108867.0216666666,
      "d": 138.33166666666511,
      "v": 68
    },
    {
      "midi": 45,
      "hit": false,
      "t": 109005.35333333326,
      "d": 138.33166666666511,
      "v": 68
    },
    {
      "midi": 51,
      "hit": false,
      "t": 109143.68499999926,
      "d": 414.99499999999534,
      "v": 98
    },
    {
      "midi": 63,
      "hit": false,
      "t": 109143.68499999926,
      "d": 414.99499999999534,
      "v": 98
    },
    {
      "midi": 37,
      "hit": false,
      "t": 109143.68499999992,
      "d": 138.33166666666511,
      "v": 76
    },
    {
      "midi": 25,
      "hit": false,
      "t": 109282.01666666659,
      "d": 138.33166666666511,
      "v": 68
    },
    {
      "midi": 74,
      "hit": false,
      "t": 109420.34833333308,
      "d": 34.58291666666628,
      "v": 82
    },
    {
      "midi": 46,
      "hit": false,
      "t": 109420.34833333326,
      "d": 138.33166666666511,
      "v": 68
    },
    {
      "midi": 73,
      "hit": false,
      "t": 109454.93124999975,
      "d": 34.58291666666628,
      "v": 85
    },
    {
      "midi": 72,
      "hit": false,
      "t": 109489.51416666641,
      "d": 34.58291666666628,
      "v": 87
    },
    {
      "midi": 71,
      "hit": false,
      "t": 109524.09708333308,
      "d": 34.58291666666628,
      "v": 92
    },
    {
      "midi": 70,
      "hit": false,
      "t": 109558.67999999975,
      "d": 726.2412500000064,
      "v": 104
    },
    {
      "midi": 58,
      "hit": false,
      "t": 109558.67999999992,
      "d": 138.33166666666511,
      "v": 82
    },
    {
      "midi": 52,
      "hit": false,
      "t": 109697.01166666659,
      "d": 138.33166666666511,
      "v": 68
    },
    {
      "midi": 42,
      "hit": false,
      "t": 109835.34333333325,
      "d": 138.33166666666511,
      "v": 68
    },
    {
      "midi": 50,
      "hit": false,
      "t": 109973.67499999925,
      "d": 1659.979999999996,
      "v": 96
    },
    {
      "midi": 62,
      "hit": false,
      "t": 109973.67499999925,
      "d": 1659.979999999996,
      "v": 96
    },
    {
      "midi": 37,
      "hit": false,
      "t": 109973.67499999992,
      "d": 138.33166666666511,
      "v": 76
    },
    {
      "midi": 25,
      "hit": false,
      "t": 110112.00666666658,
      "d": 138.33166666666511,
      "v": 68
    },
    {
      "midi": 46,
      "hit": false,
      "t": 110250.33833333325,
      "d": 138.33166666666511,
      "v": 68
    },
    {
      "midi": 71,
      "hit": false,
      "t": 110284.92124999975,
      "d": 103.74874999999884,
      "v": 92
    },
    {
      "midi": 70,
      "hit": false,
      "t": 110388.66999999975,
      "d": 1556.231249999997,
      "v": 103
    },
    {
      "midi": 58,
      "hit": false,
      "t": 110388.66999999991,
      "d": 138.33166666666511,
      "v": 82
    },
    {
      "midi": 52,
      "hit": false,
      "t": 110527.00166666658,
      "d": 138.33166666666511,
      "v": 68
    },
    {
      "midi": 42,
      "hit": false,
      "t": 110665.33333333324,
      "d": 138.33166666666511,
      "v": 68
    },
    {
      "midi": 37,
      "hit": false,
      "t": 110803.6649999999,
      "d": 138.33166666666511,
      "v": 76
    },
    {
      "midi": 25,
      "hit": false,
      "t": 110941.99666666657,
      "d": 138.33166666666511,
      "v": 68
    },
    {
      "midi": 46,
      "hit": false,
      "t": 111080.32833333324,
      "d": 138.33166666666511,
      "v": 68
    },
    {
      "midi": 58,
      "hit": false,
      "t": 111218.6599999999,
      "d": 138.33166666666511,
      "v": 82
    },
    {
      "midi": 52,
      "hit": false,
      "t": 111356.99166666657,
      "d": 138.33166666666511,
      "v": 68
    },
    {
      "midi": 42,
      "hit": false,
      "t": 111495.32333333323,
      "d": 138.33166666666511,
      "v": 68
    },
    {
      "midi": 49,
      "hit": false,
      "t": 111633.65499999924,
      "d": 829.9900000000052,
      "v": 92
    },
    {
      "midi": 61,
      "hit": false,
      "t": 111633.65499999924,
      "d": 829.9900000000052,
      "v": 92
    },
    {
      "midi": 37,
      "hit": false,
      "t": 111633.6549999999,
      "d": 138.33166666666511,
      "v": 76
    },
    {
      "midi": 25,
      "hit": false,
      "t": 111771.98666666656,
      "d": 138.33166666666511,
      "v": 68
    },
    {
      "midi": 76,
      "hit": false,
      "t": 111910.31833333308,
      "d": 34.58291666666628,
      "v": 82
    },
    {
      "midi": 46,
      "hit": false,
      "t": 111910.31833333323,
      "d": 138.33166666666511,
      "v": 68
    },
    {
      "midi": 74,
      "hit": false,
      "t": 111944.90124999975,
      "d": 34.58291666666628,
      "v": 85
    },
    {
      "midi": 73,
      "hit": false,
      "t": 111979.48416666641,
      "d": 34.58291666666628,
      "v": 87
    },
    {
      "midi": 71,
      "hit": false,
      "t": 112014.06708333308,
      "d": 34.58291666666628,
      "v": 92
    },
    {
      "midi": 70,
      "hit": false,
      "t": 112048.64999999975,
      "d": 726.2412500000064,
      "v": 94
    },
    {
      "midi": 58,
      "hit": false,
      "t": 112048.64999999989,
      "d": 138.33166666666511,
      "v": 82
    },
    {
      "midi": 52,
      "hit": false,
      "t": 112186.98166666656,
      "d": 138.33166666666511,
      "v": 68
    },
    {
      "midi": 42,
      "hit": false,
      "t": 112325.31333333322,
      "d": 138.33166666666511,
      "v": 68
    },
    {
      "midi": 48,
      "hit": false,
      "t": 112463.64499999925,
      "d": 414.99499999999534,
      "v": 98
    },
    {
      "midi": 60,
      "hit": false,
      "t": 112463.64499999925,
      "d": 414.99499999999534,
      "v": 98
    },
    {
      "midi": 37,
      "hit": false,
      "t": 112463.64499999989,
      "d": 138.33166666666511,
      "v": 76
    },
    {
      "midi": 25,
      "hit": false,
      "t": 112601.97666666655,
      "d": 138.33166666666511,
      "v": 68
    },
    {
      "midi": 71,
      "hit": false,
      "t": 112740.30833333309,
      "d": 34.58291666666628,
      "v": 82
    },
    {
      "midi": 43,
      "hit": false,
      "t": 112740.30833333322,
      "d": 138.33166666666511,
      "v": 68
    },
    {
      "midi": 70,
      "hit": false,
      "t": 112774.89124999975,
      "d": 34.58291666666628,
      "v": 85
    },
    {
      "midi": 69,
      "hit": false,
      "t": 112809.47416666642,
      "d": 34.58291666666628,
      "v": 87
    },
    {
      "midi": 68,
      "hit": false,
      "t": 112844.05708333309,
      "d": 34.58291666666628,
      "v": 92
    },
    {
      "midi": 67,
      "hit": false,
      "t": 112878.63999999975,
      "d": 726.2412500000064,
      "v": 94
    },
    {
      "midi": 55,
      "hit": false,
      "t": 112878.63999999988,
      "d": 414.99499999999534,
      "v": 82
    },
    {
      "midi": 49,
      "hit": false,
      "t": 113016.97166666655,
      "d": 138.33166666666511,
      "v": 68
    },
    {
      "midi": 43,
      "hit": false,
      "t": 113155.30333333321,
      "d": 138.33166666666511,
      "v": 68
    },
    {
      "midi": 47,
      "hit": false,
      "t": 113293.63499999924,
      "d": 1244.9850000000006,
      "v": 91
    },
    {
      "midi": 59,
      "hit": false,
      "t": 113293.63499999924,
      "d": 1244.9850000000006,
      "v": 96
    },
    {
      "midi": 37,
      "hit": false,
      "t": 113293.63499999988,
      "d": 138.33166666666511,
      "v": 76
    },
    {
      "midi": 25,
      "hit": false,
      "t": 113431.96666666654,
      "d": 138.33166666666511,
      "v": 68
    },
    {
      "midi": 73,
      "hit": false,
      "t": 113570.29833333309,
      "d": 34.58291666666628,
      "v": 82
    },
    {
      "midi": 43,
      "hit": false,
      "t": 113570.29833333321,
      "d": 138.33166666666511,
      "v": 68
    },
    {
      "midi": 71,
      "hit": false,
      "t": 113604.88124999976,
      "d": 34.58291666666628,
      "v": 85
    },
    {
      "midi": 70,
      "hit": false,
      "t": 113639.46416666642,
      "d": 34.58291666666628,
      "v": 87
    },
    {
      "midi": 68,
      "hit": false,
      "t": 113674.04708333309,
      "d": 34.58291666666628,
      "v": 92
    },
    {
      "midi": 67,
      "hit": false,
      "t": 113708.62999999976,
      "d": 1141.2362500000017,
      "v": 103
    },
    {
      "midi": 55,
      "hit": false,
      "t": 113708.62999999987,
      "d": 138.33166666666511,
      "v": 82
    },
    {
      "midi": 49,
      "hit": false,
      "t": 113846.96166666654,
      "d": 138.33166666666511,
      "v": 68
    },
    {
      "midi": 43,
      "hit": false,
      "t": 113985.2933333332,
      "d": 138.33166666666511,
      "v": 68
    },
    {
      "midi": 37,
      "hit": false,
      "t": 114123.62499999987,
      "d": 138.33166666666511,
      "v": 76
    },
    {
      "midi": 25,
      "hit": false,
      "t": 114261.95666666653,
      "d": 138.33166666666511,
      "v": 68
    },
    {
      "midi": 43,
      "hit": false,
      "t": 114400.2883333332,
      "d": 138.33166666666511,
      "v": 68
    },
    {
      "midi": 58,
      "hit": false,
      "t": 114538.61999999924,
      "d": 829.9900000000052,
      "v": 84
    },
    {
      "midi": 46,
      "hit": false,
      "t": 114538.61999999986,
      "d": 138.33166666666511,
      "v": 73
    },
    {
      "midi": 55,
      "hit": false,
      "t": 114538.61999999986,
      "d": 138.33166666666511,
      "v": 82
    },
    {
      "midi": 49,
      "hit": false,
      "t": 114676.95166666653,
      "d": 138.33166666666511,
      "v": 68
    },
    {
      "midi": 61,
      "hit": false,
      "t": 114815.2833333331,
      "d": 34.58291666666628,
      "v": 82
    },
    {
      "midi": 43,
      "hit": false,
      "t": 114815.2833333332,
      "d": 138.33166666666511,
      "v": 68
    },
    {
      "midi": 63,
      "hit": false,
      "t": 114849.86624999976,
      "d": 34.58291666666628,
      "v": 85
    },
    {
      "midi": 64,
      "hit": false,
      "t": 114884.44916666643,
      "d": 34.58291666666628,
      "v": 87
    },
    {
      "midi": 66,
      "hit": false,
      "t": 114919.03208333309,
      "d": 34.58291666666628,
      "v": 92
    },
    {
      "midi": 67,
      "hit": false,
      "t": 114953.61499999976,
      "d": 1106.6533333333355,
      "v": 100
    },
    {
      "midi": 37,
      "hit": false,
      "t": 114953.61499999986,
      "d": 138.33166666666511,
      "v": 76
    },
    {
      "midi": 25,
      "hit": false,
      "t": 115091.94666666652,
      "d": 138.33166666666511,
      "v": 68
    },
    {
      "midi": 43,
      "hit": false,
      "t": 115230.27833333319,
      "d": 138.33166666666511,
      "v": 68
    },
    {
      "midi": 57,
      "hit": false,
      "t": 115368.60999999924,
      "d": 829.9900000000052,
      "v": 91
    },
    {
      "midi": 45,
      "hit": false,
      "t": 115368.60999999986,
      "d": 138.33166666666511,
      "v": 73
    },
    {
      "midi": 55,
      "hit": false,
      "t": 115368.60999999986,
      "d": 138.33166666666511,
      "v": 82
    },
    {
      "midi": 49,
      "hit": false,
      "t": 115506.94166666652,
      "d": 138.33166666666511,
      "v": 68
    },
    {
      "midi": 43,
      "hit": false,
      "t": 115645.27333333319,
      "d": 138.33166666666511,
      "v": 68
    },
    {
      "midi": 37,
      "hit": false,
      "t": 115783.60499999985,
      "d": 138.33166666666511,
      "v": 76
    },
    {
      "midi": 25,
      "hit": false,
      "t": 115921.93666666652,
      "d": 138.33166666666511,
      "v": 68
    },
    {
      "midi": 66,
      "hit": false,
      "t": 116060.2683333331,
      "d": 69.16583333333256,
      "v": 68
    },
    {
      "midi": 44,
      "hit": false,
      "t": 116060.26833333318,
      "d": 69.16583333333256,
      "v": 68
    },
    {
      "midi": 56,
      "hit": false,
      "t": 116060.26833333318,
      "d": 69.16583333333256,
      "v": 68
    },
    {
      "midi": 65,
      "hit": false,
      "t": 116129.43416666643,
      "d": 69.16583333333256,
      "v": 68
    },
    {
      "midi": 43,
      "hit": false,
      "t": 116129.43416666651,
      "d": 69.16583333333256,
      "v": 68
    },
    {
      "midi": 55,
      "hit": false,
      "t": 116129.43416666651,
      "d": 69.16583333333256,
      "v": 68
    },
    {
      "midi": 57,
      "hit": false,
      "t": 116198.59999999976,
      "d": 829.9900000000052,
      "v": 68
    },
    {
      "midi": 61,
      "hit": false,
      "t": 116198.59999999976,
      "d": 829.9900000000052,
      "v": 68
    },
    {
      "midi": 64,
      "hit": false,
      "t": 116198.59999999976,
      "d": 829.9900000000052,
      "v": 80
    },
    {
      "midi": 42,
      "hit": false,
      "t": 116198.59999999985,
      "d": 138.33166666666511,
      "v": 77
    },
    {
      "midi": 54,
      "hit": false,
      "t": 116198.59999999985,
      "d": 138.33166666666511,
      "v": 82
    },
    {
      "midi": 49,
      "hit": false,
      "t": 116336.93166666651,
      "d": 138.33166666666511,
      "v": 68
    },
    {
      "midi": 42,
      "hit": false,
      "t": 116475.26333333318,
      "d": 138.33166666666511,
      "v": 68
    },
    {
      "midi": 37,
      "hit": false,
      "t": 116613.59499999984,
      "d": 138.33166666666511,
      "v": 76
    },
    {
      "midi": 25,
      "hit": false,
      "t": 116751.9266666665,
      "d": 138.33166666666511,
      "v": 68
    },
    {
      "midi": 42,
      "hit": false,
      "t": 116890.25833333317,
      "d": 138.33166666666511,
      "v": 68
    },
    {
      "midi": 52,
      "hit": false,
      "t": 117028.58999999976,
      "d": 829.9900000000052,
      "v": 62
    },
    {
      "midi": 57,
      "hit": false,
      "t": 117028.58999999976,
      "d": 829.9900000000052,
      "v": 62
    },
    {
      "midi": 61,
      "hit": false,
      "t": 117028.58999999976,
      "d": 829.9900000000052,
      "v": 62
    },
    {
      "midi": 64,
      "hit": false,
      "t": 117028.58999999976,
      "d": 829.9900000000052,
      "v": 73
    },
    {
      "midi": 54,
      "hit": false,
      "t": 117028.58999999984,
      "d": 138.33166666666511,
      "v": 82
    },
    {
      "midi": 49,
      "hit": false,
      "t": 117166.9216666665,
      "d": 138.33166666666511,
      "v": 68
    },
    {
      "midi": 42,
      "hit": false,
      "t": 117305.25333333317,
      "d": 138.33166666666511,
      "v": 68
    },
    {
      "midi": 37,
      "hit": false,
      "t": 117443.58499999983,
      "d": 138.33166666666511,
      "v": 76
    },
    {
      "midi": 25,
      "hit": false,
      "t": 117581.9166666665,
      "d": 138.33166666666511,
      "v": 68
    },
    {
      "midi": 43,
      "hit": false,
      "t": 117720.24833333316,
      "d": 138.33166666666511,
      "v": 68
    },
    {
      "midi": 52,
      "hit": false,
      "t": 117858.57999999977,
      "d": 829.9900000000052,
      "v": 67
    },
    {
      "midi": 57,
      "hit": false,
      "t": 117858.57999999977,
      "d": 829.9900000000052,
      "v": 67
    },
    {
      "midi": 60,
      "hit": false,
      "t": 117858.57999999977,
      "d": 829.9900000000052,
      "v": 67
    },
    {
      "midi": 64,
      "hit": false,
      "t": 117858.57999999977,
      "d": 829.9900000000052,
      "v": 79
    },
    {
      "midi": 55,
      "hit": false,
      "t": 117858.57999999983,
      "d": 138.33166666666511,
      "v": 82
    },
    {
      "midi": 48,
      "hit": false,
      "t": 117996.91166666649,
      "d": 138.33166666666511,
      "v": 68
    },
    {
      "midi": 43,
      "hit": false,
      "t": 118135.24333333316,
      "d": 138.33166666666511,
      "v": 68
    },
    {
      "midi": 37,
      "hit": false,
      "t": 118273.57499999982,
      "d": 138.33166666666511,
      "v": 76
    },
    {
      "midi": 25,
      "hit": false,
      "t": 118411.90666666649,
      "d": 138.33166666666511,
      "v": 68
    },
    {
      "midi": 43,
      "hit": false,
      "t": 118550.23833333315,
      "d": 138.33166666666511,
      "v": 68
    },
    {
      "midi": 52,
      "hit": false,
      "t": 118688.56999999977,
      "d": 829.9900000000052,
      "v": 68
    },
    {
      "midi": 57,
      "hit": false,
      "t": 118688.56999999977,
      "d": 829.9900000000052,
      "v": 68
    },
    {
      "midi": 60,
      "hit": false,
      "t": 118688.56999999977,
      "d": 829.9900000000052,
      "v": 68
    },
    {
      "midi": 64,
      "hit": false,
      "t": 118688.56999999977,
      "d": 829.9900000000052,
      "v": 80
    },
    {
      "midi": 55,
      "hit": false,
      "t": 118688.56999999982,
      "d": 138.33166666666511,
      "v": 82
    },
    {
      "midi": 49,
      "hit": false,
      "t": 118826.90166666648,
      "d": 138.33166666666511,
      "v": 68
    },
    {
      "midi": 43,
      "hit": false,
      "t": 118965.23333333315,
      "d": 138.33166666666511,
      "v": 68
    },
    {
      "midi": 37,
      "hit": false,
      "t": 119103.56499999981,
      "d": 138.33166666666511,
      "v": 76
    },
    {
      "midi": 25,
      "hit": false,
      "t": 119241.89666666648,
      "d": 138.33166666666511,
      "v": 68
    },
    {
      "midi": 44,
      "hit": false,
      "t": 119380.22833333314,
      "d": 138.33166666666511,
      "v": 68
    },
    {
      "midi": 52,
      "hit": false,
      "t": 119518.55999999926,
      "d": 302.6005208333372,
      "v": 80
    },
    {
      "midi": 61,
      "hit": false,
      "t": 119518.55999999926,
      "d": 302.6005208333372,
      "v": 80
    },
    {
      "midi": 56,
      "hit": false,
      "t": 119518.55999999981,
      "d": 138.33166666666511,
      "v": 65
    },
    {
      "midi": 49,
      "hit": false,
      "t": 119656.89166666647,
      "d": 138.33166666666511,
      "v": 55
    },
    {
      "midi": 65,
      "hit": false,
      "t": 119795.22333333311,
      "d": 138.33166666666511,
      "v": 61
    },
    {
      "midi": 69,
      "hit": false,
      "t": 119795.22333333311,
      "d": 138.33166666666511,
      "v": 61
    },
    {
      "midi": 77,
      "hit": false,
      "t": 119795.22333333311,
      "d": 138.33166666666511,
      "v": 61
    },
    {
      "midi": 44,
      "hit": false,
      "t": 119795.22333333314,
      "d": 138.33166666666511,
      "v": 55
    },
    {
      "midi": 64,
      "hit": false,
      "t": 119933.55499999977,
      "d": 414.99499999999534,
      "v": 67
    },
    {
      "midi": 73,
      "hit": false,
      "t": 119933.55499999977,
      "d": 414.99499999999534,
      "v": 67
    },
    {
      "midi": 76,
      "hit": false,
      "t": 119933.55499999977,
      "d": 414.99499999999534,
      "v": 67
    },
    {
      "midi": 37,
      "hit": false,
      "t": 119933.5549999998,
      "d": 138.33166666666511,
      "v": 63
    },
    {
      "midi": 25,
      "hit": false,
      "t": 120071.88666666647,
      "d": 138.33166666666511,
      "v": 57
    },
    {
      "midi": 61,
      "hit": false,
      "t": 120141.05249999926,
      "d": 46.68693749999511,
      "v": 72
    },
    {
      "midi": 44,
      "hit": false,
      "t": 120210.21833333313,
      "d": 138.33166666666511,
      "v": 58
    },
    {
      "midi": 61,
      "hit": false,
      "t": 120244.80124999926,
      "d": 46.68693749999511,
      "v": 72
    },
    {
      "midi": 61,
      "hit": false,
      "t": 120348.54999999926,
      "d": 302.6005208333372,
      "v": 81
    },
    {
      "midi": 56,
      "hit": false,
      "t": 120348.5499999998,
      "d": 138.33166666666511,
      "v": 71
    },
    {
      "midi": 49,
      "hit": false,
      "t": 120486.88166666646,
      "d": 138.33166666666511,
      "v": 59
    },
    {
      "midi": 65,
      "hit": false,
      "t": 120625.2133333331,
      "d": 138.33166666666511,
      "v": 62
    },
    {
      "midi": 69,
      "hit": false,
      "t": 120625.2133333331,
      "d": 138.33166666666511,
      "v": 62
    },
    {
      "midi": 77,
      "hit": false,
      "t": 120625.2133333331,
      "d": 138.33166666666511,
      "v": 62
    },
    {
      "midi": 44,
      "hit": false,
      "t": 120625.21333333313,
      "d": 138.33166666666511,
      "v": 61
    },
    {
      "midi": 64,
      "hit": false,
      "t": 120763.54499999977,
      "d": 414.99499999999534,
      "v": 69
    },
    {
      "midi": 73,
      "hit": false,
      "t": 120763.54499999977,
      "d": 414.99499999999534,
      "v": 69
    },
    {
      "midi": 76,
      "hit": false,
      "t": 120763.54499999977,
      "d": 414.99499999999534,
      "v": 69
    },
    {
      "midi": 37,
      "hit": false,
      "t": 120763.5449999998,
      "d": 138.33166666666511,
      "v": 69
    },
    {
      "midi": 25,
      "hit": false,
      "t": 120901.87666666646,
      "d": 138.33166666666511,
      "v": 62
    },
    {
      "midi": 61,
      "hit": false,
      "t": 120971.04249999927,
      "d": 46.68693749999511,
      "v": 76
    },
    {
      "midi": 44,
      "hit": false,
      "t": 121040.20833333312,
      "d": 138.33166666666511,
      "v": 63
    },
    {
      "midi": 61,
      "hit": false,
      "t": 121074.79124999927,
      "d": 46.68693749999511,
      "v": 76
    },
    {
      "midi": 61,
      "hit": false,
      "t": 121178.53999999927,
      "d": 302.6005208333372,
      "v": 88
    },
    {
      "midi": 56,
      "hit": false,
      "t": 121178.53999999979,
      "d": 138.33166666666511,
      "v": 77
    },
    {
      "midi": 49,
      "hit": false,
      "t": 121316.87166666645,
      "d": 138.33166666666511,
      "v": 65
    },
    {
      "midi": 65,
      "hit": false,
      "t": 121455.20333333309,
      "d": 138.33166666666511,
      "v": 70
    },
    {
      "midi": 69,
      "hit": false,
      "t": 121455.20333333309,
      "d": 138.33166666666511,
      "v": 70
    },
    {
      "midi": 77,
      "hit": false,
      "t": 121455.20333333309,
      "d": 138.33166666666511,
      "v": 70
    },
    {
      "midi": 44,
      "hit": false,
      "t": 121455.20333333312,
      "d": 138.33166666666511,
      "v": 65
    },
    {
      "midi": 64,
      "hit": false,
      "t": 121593.53499999976,
      "d": 414.99499999999534,
      "v": 77
    },
    {
      "midi": 73,
      "hit": false,
      "t": 121593.53499999976,
      "d": 414.99499999999534,
      "v": 77
    },
    {
      "midi": 76,
      "hit": false,
      "t": 121593.53499999976,
      "d": 414.99499999999534,
      "v": 77
    },
    {
      "midi": 37,
      "hit": false,
      "t": 121593.53499999979,
      "d": 138.33166666666511,
      "v": 74
    },
    {
      "midi": 25,
      "hit": false,
      "t": 121731.86666666645,
      "d": 138.33166666666511,
      "v": 68
    },
    {
      "midi": 61,
      "hit": false,
      "t": 121801.03249999927,
      "d": 46.68693749999511,
      "v": 85
    },
    {
      "midi": 44,
      "hit": false,
      "t": 121870.19833333312,
      "d": 138.33166666666511,
      "v": 68
    },
    {
      "midi": 61,
      "hit": false,
      "t": 121904.78124999927,
      "d": 46.68693749999511,
      "v": 85
    },
    {
      "midi": 61,
      "hit": false,
      "t": 122008.52999999927,
      "d": 302.6005208333372,
      "v": 104
    },
    {
      "midi": 56,
      "hit": false,
      "t": 122008.52999999978,
      "d": 138.33166666666511,
      "v": 83
    },
    {
      "midi": 49,
      "hit": false,
      "t": 122146.86166666645,
      "d": 138.33166666666511,
      "v": 70
    },
    {
      "midi": 65,
      "hit": false,
      "t": 122285.19333333308,
      "d": 138.33166666666511,
      "v": 73
    },
    {
      "midi": 69,
      "hit": false,
      "t": 122285.19333333308,
      "d": 138.33166666666511,
      "v": 73
    },
    {
      "midi": 77,
      "hit": false,
      "t": 122285.19333333308,
      "d": 138.33166666666511,
      "v": 73
    },
    {
      "midi": 44,
      "hit": false,
      "t": 122285.19333333311,
      "d": 138.33166666666511,
      "v": 70
    },
    {
      "midi": 64,
      "hit": false,
      "t": 122423.52499999975,
      "d": 414.99499999999534,
      "v": 86
    },
    {
      "midi": 73,
      "hit": false,
      "t": 122423.52499999975,
      "d": 414.99499999999534,
      "v": 86
    },
    {
      "midi": 76,
      "hit": false,
      "t": 122423.52499999975,
      "d": 414.99499999999534,
      "v": 86
    },
    {
      "midi": 37,
      "hit": false,
      "t": 122423.52499999978,
      "d": 138.33166666666511,
      "v": 80
    },
    {
      "midi": 25,
      "hit": false,
      "t": 122561.85666666644,
      "d": 138.33166666666511,
      "v": 72
    },
    {
      "midi": 61,
      "hit": false,
      "t": 122838.51999999974,
      "d": 3319.9599999999627,
      "v": 86
    },
    {
      "midi": 57,
      "hit": false,
      "t": 123046.01749999927,
      "d": 207.49749999999767,
      "v": 55
    },
    {
      "midi": 61,
      "hit": false,
      "t": 123046.01749999927,
      "d": 207.49749999999767,
      "v": 55
    },
    {
      "midi": 65,
      "hit": false,
      "t": 123046.01749999927,
      "d": 207.49749999999767,
      "v": 65
    },
    {
      "midi": 69,
      "hit": false,
      "t": 123046.01749999974,
      "d": 207.49749999999767,
      "v": 59
    },
    {
      "midi": 73,
      "hit": false,
      "t": 123046.01749999974,
      "d": 207.49749999999767,
      "v": 59
    },
    {
      "midi": 77,
      "hit": false,
      "t": 123046.01749999974,
      "d": 207.49749999999767,
      "v": 70
    },
    {
      "midi": 56,
      "hit": false,
      "t": 123253.51499999927,
      "d": 207.49749999999767,
      "v": 55
    },
    {
      "midi": 61,
      "hit": false,
      "t": 123253.51499999927,
      "d": 207.49749999999767,
      "v": 55
    },
    {
      "midi": 64,
      "hit": false,
      "t": 123253.51499999927,
      "d": 207.49749999999767,
      "v": 65
    },
    {
      "midi": 68,
      "hit": false,
      "t": 123253.51499999974,
      "d": 207.49749999999767,
      "v": 60
    },
    {
      "midi": 73,
      "hit": false,
      "t": 123253.51499999974,
      "d": 207.49749999999767,
      "v": 60
    },
    {
      "midi": 76,
      "hit": false,
      "t": 123253.51499999974,
      "d": 207.49749999999767,
      "v": 71
    },
    {
      "midi": 57,
      "hit": false,
      "t": 123461.01249999927,
      "d": 207.49749999999767,
      "v": 55
    },
    {
      "midi": 61,
      "hit": false,
      "t": 123461.01249999927,
      "d": 207.49749999999767,
      "v": 55
    },
    {
      "midi": 65,
      "hit": false,
      "t": 123461.01249999927,
      "d": 207.49749999999767,
      "v": 65
    },
    {
      "midi": 69,
      "hit": false,
      "t": 123461.01249999974,
      "d": 207.49749999999767,
      "v": 61
    },
    {
      "midi": 73,
      "hit": false,
      "t": 123461.01249999974,
      "d": 207.49749999999767,
      "v": 61
    },
    {
      "midi": 77,
      "hit": false,
      "t": 123461.01249999974,
      "d": 207.49749999999767,
      "v": 72
    },
    {
      "midi": 56,
      "hit": false,
      "t": 123668.50999999927,
      "d": 207.49749999999767,
      "v": 55
    },
    {
      "midi": 61,
      "hit": false,
      "t": 123668.50999999927,
      "d": 207.49749999999767,
      "v": 55
    },
    {
      "midi": 64,
      "hit": false,
      "t": 123668.50999999927,
      "d": 207.49749999999767,
      "v": 65
    },
    {
      "midi": 68,
      "hit": false,
      "t": 123668.50999999973,
      "d": 207.49749999999767,
      "v": 61
    },
    {
      "midi": 73,
      "hit": false,
      "t": 123668.50999999973,
      "d": 207.49749999999767,
      "v": 61
    },
    {
      "midi": 76,
      "hit": false,
      "t": 123668.50999999973,
      "d": 207.49749999999767,
      "v": 72
    },
    {
      "midi": 57,
      "hit": false,
      "t": 123876.00749999926,
      "d": 207.49749999999767,
      "v": 55
    },
    {
      "midi": 61,
      "hit": false,
      "t": 123876.00749999926,
      "d": 207.49749999999767,
      "v": 55
    },
    {
      "midi": 65,
      "hit": false,
      "t": 123876.00749999926,
      "d": 207.49749999999767,
      "v": 65
    },
    {
      "midi": 69,
      "hit": false,
      "t": 123876.00749999973,
      "d": 207.49749999999767,
      "v": 61
    },
    {
      "midi": 73,
      "hit": false,
      "t": 123876.00749999973,
      "d": 207.49749999999767,
      "v": 61
    },
    {
      "midi": 77,
      "hit": false,
      "t": 123876.00749999973,
      "d": 207.49749999999767,
      "v": 72
    },
    {
      "midi": 56,
      "hit": false,
      "t": 124083.50499999926,
      "d": 207.49749999999767,
      "v": 57
    },
    {
      "midi": 61,
      "hit": false,
      "t": 124083.50499999926,
      "d": 207.49749999999767,
      "v": 57
    },
    {
      "midi": 64,
      "hit": false,
      "t": 124083.50499999926,
      "d": 207.49749999999767,
      "v": 68
    },
    {
      "midi": 68,
      "hit": false,
      "t": 124083.50499999973,
      "d": 207.49749999999767,
      "v": 61
    },
    {
      "midi": 73,
      "hit": false,
      "t": 124083.50499999973,
      "d": 207.49749999999767,
      "v": 61
    },
    {
      "midi": 76,
      "hit": false,
      "t": 124083.50499999973,
      "d": 207.49749999999767,
      "v": 72
    },
    {
      "midi": 57,
      "hit": false,
      "t": 124291.00249999926,
      "d": 207.49749999999767,
      "v": 58
    },
    {
      "midi": 61,
      "hit": false,
      "t": 124291.00249999926,
      "d": 207.49749999999767,
      "v": 58
    },
    {
      "midi": 65,
      "hit": false,
      "t": 124291.00249999926,
      "d": 207.49749999999767,
      "v": 69
    },
    {
      "midi": 69,
      "hit": false,
      "t": 124291.00249999973,
      "d": 207.49749999999767,
      "v": 61
    },
    {
      "midi": 73,
      "hit": false,
      "t": 124291.00249999973,
      "d": 207.49749999999767,
      "v": 61
    },
    {
      "midi": 77,
      "hit": false,
      "t": 124291.00249999973,
      "d": 207.49749999999767,
      "v": 72
    },
    {
      "midi": 56,
      "hit": false,
      "t": 124498.49999999926,
      "d": 207.49749999999767,
      "v": 59
    },
    {
      "midi": 61,
      "hit": false,
      "t": 124498.49999999926,
      "d": 207.49749999999767,
      "v": 59
    },
    {
      "midi": 64,
      "hit": false,
      "t": 124498.49999999926,
      "d": 207.49749999999767,
      "v": 70
    },
    {
      "midi": 68,
      "hit": false,
      "t": 124498.49999999972,
      "d": 207.49749999999767,
      "v": 61
    },
    {
      "midi": 73,
      "hit": false,
      "t": 124498.49999999972,
      "d": 207.49749999999767,
      "v": 61
    },
    {
      "midi": 76,
      "hit": false,
      "t": 124498.49999999972,
      "d": 207.49749999999767,
      "v": 72
    },
    {
      "midi": 45,
      "hit": false,
      "t": 124705.99749999926,
      "d": 207.49749999999767,
      "v": 62
    },
    {
      "midi": 49,
      "hit": false,
      "t": 124705.99749999926,
      "d": 207.49749999999767,
      "v": 62
    },
    {
      "midi": 57,
      "hit": false,
      "t": 124705.99749999926,
      "d": 207.49749999999767,
      "v": 74
    },
    {
      "midi": 77,
      "hit": false,
      "t": 124705.99749999972,
      "d": 207.49749999999767,
      "v": 64
    },
    {
      "midi": 81,
      "hit": false,
      "t": 124705.99749999972,
      "d": 207.49749999999767,
      "v": 64
    },
    {
      "midi": 89,
      "hit": false,
      "t": 124705.99749999972,
      "d": 207.49749999999767,
      "v": 76
    },
    {
      "midi": 44,
      "hit": false,
      "t": 124913.49499999925,
      "d": 207.49749999999767,
      "v": 63
    },
    {
      "midi": 49,
      "hit": false,
      "t": 124913.49499999925,
      "d": 207.49749999999767,
      "v": 63
    },
    {
      "midi": 56,
      "hit": false,
      "t": 124913.49499999925,
      "d": 207.49749999999767,
      "v": 75
    },
    {
      "midi": 76,
      "hit": false,
      "t": 124913.49499999972,
      "d": 207.49749999999767,
      "v": 62
    },
    {
      "midi": 85,
      "hit": false,
      "t": 124913.49499999972,
      "d": 207.49749999999767,
      "v": 62
    },
    {
      "midi": 88,
      "hit": false,
      "t": 124913.49499999972,
      "d": 207.49749999999767,
      "v": 74
    },
    {
      "midi": 45,
      "hit": false,
      "t": 125120.99249999925,
      "d": 207.49749999999767,
      "v": 64
    },
    {
      "midi": 49,
      "hit": false,
      "t": 125120.99249999925,
      "d": 207.49749999999767,
      "v": 64
    },
    {
      "midi": 57,
      "hit": false,
      "t": 125120.99249999925,
      "d": 207.49749999999767,
      "v": 76
    },
    {
      "midi": 77,
      "hit": false,
      "t": 125120.99249999972,
      "d": 207.49749999999767,
      "v": 63
    },
    {
      "midi": 81,
      "hit": false,
      "t": 125120.99249999972,
      "d": 207.49749999999767,
      "v": 63
    },
    {
      "midi": 89,
      "hit": false,
      "t": 125120.99249999972,
      "d": 207.49749999999767,
      "v": 75
    },
    {
      "midi": 44,
      "hit": false,
      "t": 125328.48999999925,
      "d": 207.49749999999767,
      "v": 65
    },
    {
      "midi": 49,
      "hit": false,
      "t": 125328.48999999925,
      "d": 207.49749999999767,
      "v": 65
    },
    {
      "midi": 56,
      "hit": false,
      "t": 125328.48999999925,
      "d": 207.49749999999767,
      "v": 77
    },
    {
      "midi": 76,
      "hit": false,
      "t": 125328.48999999971,
      "d": 207.49749999999767,
      "v": 66
    },
    {
      "midi": 85,
      "hit": false,
      "t": 125328.48999999971,
      "d": 207.49749999999767,
      "v": 66
    },
    {
      "midi": 88,
      "hit": false,
      "t": 125328.48999999971,
      "d": 207.49749999999767,
      "v": 78
    },
    {
      "midi": 45,
      "hit": false,
      "t": 125535.98749999925,
      "d": 207.49749999999767,
      "v": 65
    },
    {
      "midi": 49,
      "hit": false,
      "t": 125535.98749999925,
      "d": 207.49749999999767,
      "v": 65
    },
    {
      "midi": 57,
      "hit": false,
      "t": 125535.98749999925,
      "d": 207.49749999999767,
      "v": 77
    },
    {
      "midi": 77,
      "hit": false,
      "t": 125535.98749999971,
      "d": 207.49749999999767,
      "v": 70
    },
    {
      "midi": 81,
      "hit": false,
      "t": 125535.98749999971,
      "d": 207.49749999999767,
      "v": 70
    },
    {
      "midi": 89,
      "hit": false,
      "t": 125535.98749999971,
      "d": 207.49749999999767,
      "v": 83
    },
    {
      "midi": 44,
      "hit": false,
      "t": 125743.48499999924,
      "d": 207.49749999999767,
      "v": 65
    },
    {
      "midi": 49,
      "hit": false,
      "t": 125743.48499999924,
      "d": 207.49749999999767,
      "v": 65
    },
    {
      "midi": 56,
      "hit": false,
      "t": 125743.48499999924,
      "d": 207.49749999999767,
      "v": 77
    },
    {
      "midi": 76,
      "hit": false,
      "t": 125743.48499999971,
      "d": 207.49749999999767,
      "v": 71
    },
    {
      "midi": 85,
      "hit": false,
      "t": 125743.48499999971,
      "d": 207.49749999999767,
      "v": 71
    },
    {
      "midi": 88,
      "hit": false,
      "t": 125743.48499999971,
      "d": 207.49749999999767,
      "v": 84
    },
    {
      "midi": 45,
      "hit": false,
      "t": 125950.98249999924,
      "d": 207.49749999999767,
      "v": 65
    },
    {
      "midi": 49,
      "hit": false,
      "t": 125950.98249999924,
      "d": 207.49749999999767,
      "v": 65
    },
    {
      "midi": 57,
      "hit": false,
      "t": 125950.98249999924,
      "d": 207.49749999999767,
      "v": 77
    },
    {
      "midi": 77,
      "hit": false,
      "t": 125950.9824999997,
      "d": 207.49749999999767,
      "v": 73
    },
    {
      "midi": 81,
      "hit": false,
      "t": 125950.9824999997,
      "d": 207.49749999999767,
      "v": 73
    },
    {
      "midi": 89,
      "hit": false,
      "t": 125950.9824999997,
      "d": 207.49749999999767,
      "v": 86
    },
    {
      "midi": 25,
      "hit": false,
      "t": 126158.47999999924,
      "d": 3319.9599999999773,
      "v": 104
    },
    {
      "midi": 37,
      "hit": false,
      "t": 126158.47999999924,
      "d": 3319.9599999999773,
      "v": 104
    },
    {
      "midi": 44,
      "hit": false,
      "t": 126365.97749999924,
      "d": 207.49749999999767,
      "v": 57
    },
    {
      "midi": 49,
      "hit": false,
      "t": 126365.97749999924,
      "d": 207.49749999999767,
      "v": 57
    },
    {
      "midi": 52,
      "hit": false,
      "t": 126365.97749999924,
      "d": 207.49749999999767,
      "v": 57
    },
    {
      "midi": 56,
      "hit": false,
      "t": 126365.97749999924,
      "d": 207.49749999999767,
      "v": 68
    },
    {
      "midi": 76,
      "hit": false,
      "t": 126365.9774999997,
      "d": 207.49749999999767,
      "v": 65
    },
    {
      "midi": 80,
      "hit": false,
      "t": 126365.9774999997,
      "d": 207.49749999999767,
      "v": 65
    },
    {
      "midi": 85,
      "hit": false,
      "t": 126365.9774999997,
      "d": 207.49749999999767,
      "v": 65
    },
    {
      "midi": 88,
      "hit": false,
      "t": 126365.9774999997,
      "d": 207.49749999999767,
      "v": 77
    },
    {
      "midi": 52,
      "hit": false,
      "t": 126573.47499999923,
      "d": 207.49749999999767,
      "v": 58
    },
    {
      "midi": 56,
      "hit": false,
      "t": 126573.47499999923,
      "d": 207.49749999999767,
      "v": 58
    },
    {
      "midi": 61,
      "hit": false,
      "t": 126573.47499999923,
      "d": 207.49749999999767,
      "v": 58
    },
    {
      "midi": 64,
      "hit": false,
      "t": 126573.47499999923,
      "d": 207.49749999999767,
      "v": 70
    },
    {
      "midi": 76,
      "hit": false,
      "t": 126573.4749999997,
      "d": 207.49749999999767,
      "v": 70
    },
    {
      "midi": 80,
      "hit": false,
      "t": 126573.4749999997,
      "d": 207.49749999999767,
      "v": 70
    },
    {
      "midi": 85,
      "hit": false,
      "t": 126573.4749999997,
      "d": 207.49749999999767,
      "v": 70
    },
    {
      "midi": 88,
      "hit": false,
      "t": 126573.4749999997,
      "d": 207.49749999999767,
      "v": 82
    },
    {
      "midi": 52,
      "hit": false,
      "t": 126780.97249999923,
      "d": 207.49749999999767,
      "v": 63
    },
    {
      "midi": 56,
      "hit": false,
      "t": 126780.97249999923,
      "d": 207.49749999999767,
      "v": 63
    },
    {
      "midi": 61,
      "hit": false,
      "t": 126780.97249999923,
      "d": 207.49749999999767,
      "v": 63
    },
    {
      "midi": 64,
      "hit": false,
      "t": 126780.97249999923,
      "d": 207.49749999999767,
      "v": 74
    },
    {
      "midi": 76,
      "hit": false,
      "t": 126780.9724999997,
      "d": 207.49749999999767,
      "v": 74
    },
    {
      "midi": 80,
      "hit": false,
      "t": 126780.9724999997,
      "d": 207.49749999999767,
      "v": 74
    },
    {
      "midi": 85,
      "hit": false,
      "t": 126780.9724999997,
      "d": 207.49749999999767,
      "v": 74
    },
    {
      "midi": 88,
      "hit": false,
      "t": 126780.9724999997,
      "d": 207.49749999999767,
      "v": 88
    },
    {
      "midi": 52,
      "hit": false,
      "t": 126988.46999999923,
      "d": 138.33166666666511,
      "v": 64
    },
    {
      "midi": 56,
      "hit": false,
      "t": 126988.46999999923,
      "d": 138.33166666666511,
      "v": 64
    },
    {
      "midi": 61,
      "hit": false,
      "t": 126988.46999999923,
      "d": 138.33166666666511,
      "v": 64
    },
    {
      "midi": 64,
      "hit": false,
      "t": 126988.46999999923,
      "d": 138.33166666666511,
      "v": 77
    },
    {
      "midi": 76,
      "hit": false,
      "t": 126988.4699999997,
      "d": 138.33166666666511,
      "v": 79
    },
    {
      "midi": 80,
      "hit": false,
      "t": 126988.4699999997,
      "d": 138.33166666666511,
      "v": 79
    },
    {
      "midi": 85,
      "hit": false,
      "t": 126988.4699999997,
      "d": 138.33166666666511,
      "v": 79
    },
    {
      "midi": 88,
      "hit": false,
      "t": 126988.4699999997,
      "d": 138.33166666666511,
      "v": 93
    },
    {
      "midi": 52,
      "hit": false,
      "t": 127126.8016666659,
      "d": 138.33166666666511,
      "v": 67
    },
    {
      "midi": 56,
      "hit": false,
      "t": 127126.8016666659,
      "d": 138.33166666666511,
      "v": 67
    },
    {
      "midi": 61,
      "hit": false,
      "t": 127126.8016666659,
      "d": 138.33166666666511,
      "v": 67
    },
    {
      "midi": 64,
      "hit": false,
      "t": 127126.8016666659,
      "d": 138.33166666666511,
      "v": 80
    },
    {
      "midi": 76,
      "hit": false,
      "t": 127126.80166666636,
      "d": 138.33166666666511,
      "v": 82
    },
    {
      "midi": 80,
      "hit": false,
      "t": 127126.80166666636,
      "d": 138.33166666666511,
      "v": 82
    },
    {
      "midi": 85,
      "hit": false,
      "t": 127126.80166666636,
      "d": 138.33166666666511,
      "v": 82
    },
    {
      "midi": 88,
      "hit": false,
      "t": 127126.80166666636,
      "d": 138.33166666666511,
      "v": 97
    },
    {
      "midi": 52,
      "hit": false,
      "t": 127265.13333333256,
      "d": 138.33166666666511,
      "v": 70
    },
    {
      "midi": 56,
      "hit": false,
      "t": 127265.13333333256,
      "d": 138.33166666666511,
      "v": 70
    },
    {
      "midi": 61,
      "hit": false,
      "t": 127265.13333333256,
      "d": 138.33166666666511,
      "v": 70
    },
    {
      "midi": 64,
      "hit": false,
      "t": 127265.13333333256,
      "d": 138.33166666666511,
      "v": 82
    },
    {
      "midi": 76,
      "hit": false,
      "t": 127265.13333333303,
      "d": 138.33166666666511,
      "v": 85
    },
    {
      "midi": 80,
      "hit": false,
      "t": 127265.13333333303,
      "d": 138.33166666666511,
      "v": 85
    },
    {
      "midi": 85,
      "hit": false,
      "t": 127265.13333333303,
      "d": 138.33166666666511,
      "v": 85
    },
    {
      "midi": 88,
      "hit": false,
      "t": 127265.13333333303,
      "d": 138.33166666666511,
      "v": 101
    },
    {
      "midi": 52,
      "hit": false,
      "t": 127403.46499999923,
      "d": 138.33166666666511,
      "v": 73
    },
    {
      "midi": 56,
      "hit": false,
      "t": 127403.46499999923,
      "d": 138.33166666666511,
      "v": 73
    },
    {
      "midi": 61,
      "hit": false,
      "t": 127403.46499999923,
      "d": 138.33166666666511,
      "v": 73
    },
    {
      "midi": 64,
      "hit": false,
      "t": 127403.46499999923,
      "d": 138.33166666666511,
      "v": 87
    },
    {
      "midi": 76,
      "hit": false,
      "t": 127403.46499999969,
      "d": 138.33166666666511,
      "v": 86
    },
    {
      "midi": 80,
      "hit": false,
      "t": 127403.46499999969,
      "d": 138.33166666666511,
      "v": 86
    },
    {
      "midi": 85,
      "hit": false,
      "t": 127403.46499999969,
      "d": 138.33166666666511,
      "v": 86
    },
    {
      "midi": 88,
      "hit": false,
      "t": 127403.46499999969,
      "d": 138.33166666666511,
      "v": 102
    },
    {
      "midi": 52,
      "hit": false,
      "t": 127541.79666666589,
      "d": 138.33166666666511,
      "v": 78
    },
    {
      "midi": 56,
      "hit": false,
      "t": 127541.79666666589,
      "d": 138.33166666666511,
      "v": 78
    },
    {
      "midi": 61,
      "hit": false,
      "t": 127541.79666666589,
      "d": 138.33166666666511,
      "v": 78
    },
    {
      "midi": 64,
      "hit": false,
      "t": 127541.79666666589,
      "d": 138.33166666666511,
      "v": 92
    },
    {
      "midi": 76,
      "hit": false,
      "t": 127541.79666666636,
      "d": 138.33166666666511,
      "v": 90
    },
    {
      "midi": 80,
      "hit": false,
      "t": 127541.79666666636,
      "d": 138.33166666666511,
      "v": 90
    },
    {
      "midi": 85,
      "hit": false,
      "t": 127541.79666666636,
      "d": 138.33166666666511,
      "v": 90
    },
    {
      "midi": 88,
      "hit": false,
      "t": 127541.79666666636,
      "d": 138.33166666666511,
      "v": 106
    },
    {
      "midi": 52,
      "hit": false,
      "t": 127680.12833333256,
      "d": 138.33166666666511,
      "v": 80
    },
    {
      "midi": 56,
      "hit": false,
      "t": 127680.12833333256,
      "d": 138.33166666666511,
      "v": 80
    },
    {
      "midi": 61,
      "hit": false,
      "t": 127680.12833333256,
      "d": 138.33166666666511,
      "v": 80
    },
    {
      "midi": 64,
      "hit": false,
      "t": 127680.12833333256,
      "d": 138.33166666666511,
      "v": 95
    },
    {
      "midi": 76,
      "hit": false,
      "t": 127680.12833333302,
      "d": 138.33166666666511,
      "v": 93
    },
    {
      "midi": 80,
      "hit": false,
      "t": 127680.12833333302,
      "d": 138.33166666666511,
      "v": 93
    },
    {
      "midi": 85,
      "hit": false,
      "t": 127680.12833333302,
      "d": 138.33166666666511,
      "v": 93
    },
    {
      "midi": 88,
      "hit": false,
      "t": 127680.12833333302,
      "d": 138.33166666666511,
      "v": 111
    },
    {
      "midi": 61,
      "hit": false,
      "t": 127818.45999999922,
      "d": 1659.979999999996,
      "v": 94
    },
    {
      "midi": 73,
      "hit": false,
      "t": 127818.45999999922,
      "d": 1659.979999999996,
      "v": 113
    },
    {
      "midi": 85,
      "hit": false,
      "t": 127818.45999999969,
      "d": 1659.979999999996,
      "v": 111
    },
    {
      "midi": 97,
      "hit": false,
      "t": 127818.45999999969,
      "d": 1659.979999999996,
      "v": 127
    }
  ]
}