{
  "jsonPath": "Classical/Classical/Leif Ove Andsnes/piano-sonata-no-2-in-b-flat-minor-op-35-iv-finale-presto.json",
  "path": "Classical\\Classical\\Leif Ove Andsnes\\Piano Sonata No 2 in B flat minor Op 35 IV  Finale (Presto).mid",
  "name": "Piano Sonata No 2 in B flat minor Op 35 IV  Finale (Presto)",
  "difficulty": "Advanced",
  "bpm": 201.53028664324438,
  "notes": [
    {
      "midi": 41,
      "hit": false,
      "t": 0,
      "d": 147.05874999999997,
      "v": 30
    },
    {
      "midi": 53,
      "hit": false,
      "t": 0,
      "d": 147.05874999999997,
      "v": 35
    },
    {
      "midi": 43,
      "hit": false,
      "t": 117.64699999999999,
      "d": 147.05874999999997,
      "v": 24
    },
    {
      "midi": 55,
      "hit": false,
      "t": 117.64699999999999,
      "d": 147.05874999999997,
      "v": 29
    },
    {
      "midi": 46,
      "hit": false,
      "t": 235.29399999999998,
      "d": 147.05874999999997,
      "v": 25
    },
    {
      "midi": 58,
      "hit": false,
      "t": 235.29399999999998,
      "d": 147.05874999999997,
      "v": 30
    },
    {
      "midi": 49,
      "hit": false,
      "t": 352.941,
      "d": 147.05874999999997,
      "v": 25
    },
    {
      "midi": 61,
      "hit": false,
      "t": 352.941,
      "d": 147.05874999999997,
      "v": 30
    },
    {
      "midi": 40,
      "hit": false,
      "t": 470.58799999999997,
      "d": 147.05874999999992,
      "v": 28
    },
    {
      "midi": 52,
      "hit": false,
      "t": 470.58799999999997,
      "d": 147.05874999999992,
      "v": 33
    },
    {
      "midi": 43,
      "hit": false,
      "t": 588.2349999999999,
      "d": 117.64699999999993,
      "v": 26
    },
    {
      "midi": 55,
      "hit": false,
      "t": 588.2349999999999,
      "d": 117.64699999999993,
      "v": 31
    },
    {
      "midi": 41,
      "hit": false,
      "t": 705.8819999999998,
      "d": 147.05874999999992,
      "v": 30
    },
    {
      "midi": 53,
      "hit": false,
      "t": 705.8819999999998,
      "d": 147.05874999999992,
      "v": 37
    },
    {
      "midi": 43,
      "hit": false,
      "t": 823.5289999999998,
      "d": 147.05874999999992,
      "v": 26
    },
    {
      "midi": 55,
      "hit": false,
      "t": 823.5289999999998,
      "d": 147.05874999999992,
      "v": 30
    },
    {
      "midi": 46,
      "hit": false,
      "t": 941.1759999999997,
      "d": 147.05874999999992,
      "v": 26
    },
    {
      "midi": 58,
      "hit": false,
      "t": 941.1759999999997,
      "d": 147.05874999999992,
      "v": 31
    },
    {
      "midi": 49,
      "hit": false,
      "t": 1058.8229999999996,
      "d": 147.05874999999992,
      "v": 27
    },
    {
      "midi": 61,
      "hit": false,
      "t": 1058.8229999999996,
      "d": 147.05874999999992,
      "v": 32
    },
    {
      "midi": 40,
      "hit": false,
      "t": 1176.4699999999996,
      "d": 147.05874999999992,
      "v": 28
    },
    {
      "midi": 52,
      "hit": false,
      "t": 1176.4699999999996,
      "d": 147.05874999999992,
      "v": 34
    },
    {
      "midi": 43,
      "hit": false,
      "t": 1294.1169999999995,
      "d": 117.64699999999993,
      "v": 27
    },
    {
      "midi": 55,
      "hit": false,
      "t": 1294.1169999999995,
      "d": 117.64699999999993,
      "v": 33
    },
    {
      "midi": 43,
      "hit": false,
      "t": 1411.7639999999994,
      "d": 147.05874999999992,
      "v": 34
    },
    {
      "midi": 55,
      "hit": false,
      "t": 1411.7639999999994,
      "d": 147.05874999999992,
      "v": 40
    },
    {
      "midi": 45,
      "hit": false,
      "t": 1529.4109999999994,
      "d": 147.05874999999992,
      "v": 28
    },
    {
      "midi": 57,
      "hit": false,
      "t": 1529.4109999999994,
      "d": 147.05874999999992,
      "v": 33
    },
    {
      "midi": 48,
      "hit": false,
      "t": 1647.0579999999993,
      "d": 147.05874999999992,
      "v": 29
    },
    {
      "midi": 60,
      "hit": false,
      "t": 1647.0579999999993,
      "d": 147.05874999999992,
      "v": 35
    },
    {
      "midi": 51,
      "hit": false,
      "t": 1764.7049999999992,
      "d": 147.05874999999992,
      "v": 28
    },
    {
      "midi": 63,
      "hit": false,
      "t": 1764.7049999999992,
      "d": 147.05874999999992,
      "v": 36
    },
    {
      "midi": 42,
      "hit": false,
      "t": 1882.3519999999992,
      "d": 147.05874999999992,
      "v": 28
    },
    {
      "midi": 54,
      "hit": false,
      "t": 1882.3519999999992,
      "d": 147.05874999999992,
      "v": 34
    },
    {
      "midi": 45,
      "hit": false,
      "t": 1999.9989999999991,
      "d": 117.64700000000016,
      "v": 30
    },
    {
      "midi": 57,
      "hit": false,
      "t": 1999.9989999999991,
      "d": 117.64700000000016,
      "v": 36
    },
    {
      "midi": 43,
      "hit": false,
      "t": 2117.6459999999993,
      "d": 147.05875000000015,
      "v": 34
    },
    {
      "midi": 55,
      "hit": false,
      "t": 2117.6459999999993,
      "d": 147.05875000000015,
      "v": 40
    },
    {
      "midi": 45,
      "hit": false,
      "t": 2235.292999999999,
      "d": 147.0587500000006,
      "v": 28
    },
    {
      "midi": 57,
      "hit": false,
      "t": 2235.292999999999,
      "d": 147.0587500000006,
      "v": 34
    },
    {
      "midi": 48,
      "hit": false,
      "t": 2352.9399999999996,
      "d": 147.0587500000006,
      "v": 28
    },
    {
      "midi": 60,
      "hit": false,
      "t": 2352.9399999999996,
      "d": 147.0587500000006,
      "v": 34
    },
    {
      "midi": 51,
      "hit": false,
      "t": 2470.587,
      "d": 147.0587500000006,
      "v": 30
    },
    {
      "midi": 63,
      "hit": false,
      "t": 2470.587,
      "d": 147.0587500000006,
      "v": 35
    },
    {
      "midi": 42,
      "hit": false,
      "t": 2588.2340000000004,
      "d": 147.0587500000006,
      "v": 28
    },
    {
      "midi": 54,
      "hit": false,
      "t": 2588.2340000000004,
      "d": 147.0587500000006,
      "v": 34
    },
    {
      "midi": 45,
      "hit": false,
      "t": 2705.8810000000008,
      "d": 117.64700000000039,
      "v": 30
    },
    {
      "midi": 57,
      "hit": false,
      "t": 2705.8810000000008,
      "d": 117.64700000000039,
      "v": 36
    },
    {
      "midi": 46,
      "hit": false,
      "t": 2823.528000000001,
      "d": 147.05875000000015,
      "v": 38
    },
    {
      "midi": 58,
      "hit": false,
      "t": 2823.528000000001,
      "d": 147.05875000000015,
      "v": 45
    },
    {
      "midi": 48,
      "hit": false,
      "t": 2941.175000000001,
      "d": 147.0587500000006,
      "v": 29
    },
    {
      "midi": 60,
      "hit": false,
      "t": 2941.175000000001,
      "d": 147.0587500000006,
      "v": 35
    },
    {
      "midi": 51,
      "hit": false,
      "t": 3058.8220000000015,
      "d": 147.0587500000006,
      "v": 32
    },
    {
      "midi": 63,
      "hit": false,
      "t": 3058.8220000000015,
      "d": 147.0587500000006,
      "v": 38
    },
    {
      "midi": 54,
      "hit": false,
      "t": 3176.469000000002,
      "d": 147.0587500000006,
      "v": 36
    },
    {
      "midi": 66,
      "hit": false,
      "t": 3176.469000000002,
      "d": 147.0587500000006,
      "v": 43
    },
    {
      "midi": 45,
      "hit": false,
      "t": 3294.1160000000023,
      "d": 147.0587500000006,
      "v": 33
    },
    {
      "midi": 57,
      "hit": false,
      "t": 3294.1160000000023,
      "d": 147.0587500000006,
      "v": 39
    },
    {
      "midi": 48,
      "hit": false,
      "t": 3411.7630000000026,
      "d": 117.64700000000039,
      "v": 31
    },
    {
      "midi": 60,
      "hit": false,
      "t": 3411.7630000000026,
      "d": 117.64700000000039,
      "v": 38
    },
    {
      "midi": 49,
      "hit": false,
      "t": 3529.410000000003,
      "d": 147.05875000000015,
      "v": 34
    },
    {
      "midi": 61,
      "hit": false,
      "t": 3529.410000000003,
      "d": 147.05875000000015,
      "v": 41
    },
    {
      "midi": 51,
      "hit": false,
      "t": 3647.057000000003,
      "d": 147.0587500000006,
      "v": 32
    },
    {
      "midi": 63,
      "hit": false,
      "t": 3647.057000000003,
      "d": 147.0587500000006,
      "v": 39
    },
    {
      "midi": 54,
      "hit": false,
      "t": 3764.7040000000034,
      "d": 147.0587500000006,
      "v": 33
    },
    {
      "midi": 66,
      "hit": false,
      "t": 3764.7040000000034,
      "d": 147.0587500000006,
      "v": 39
    },
    {
      "midi": 57,
      "hit": false,
      "t": 3882.3510000000038,
      "d": 147.0587500000006,
      "v": 35
    },
    {
      "midi": 69,
      "hit": false,
      "t": 3882.3510000000038,
      "d": 147.0587500000006,
      "v": 43
    },
    {
      "midi": 48,
      "hit": false,
      "t": 3999.998000000004,
      "d": 147.05875000000015,
      "v": 33
    },
    {
      "midi": 60,
      "hit": false,
      "t": 3999.998000000004,
      "d": 147.05875000000015,
      "v": 39
    },
    {
      "midi": 51,
      "hit": false,
      "t": 4117.645000000004,
      "d": 117.64699999999993,
      "v": 34
    },
    {
      "midi": 63,
      "hit": false,
      "t": 4117.645000000004,
      "d": 117.64699999999993,
      "v": 39
    },
    {
      "midi": 49,
      "hit": false,
      "t": 4235.292000000004,
      "d": 147.05875000000015,
      "v": 41
    },
    {
      "midi": 61,
      "hit": false,
      "t": 4235.292000000004,
      "d": 147.05875000000015,
      "v": 49
    },
    {
      "midi": 51,
      "hit": false,
      "t": 4352.939000000004,
      "d": 147.05875000000015,
      "v": 35
    },
    {
      "midi": 63,
      "hit": false,
      "t": 4352.939000000004,
      "d": 147.05875000000015,
      "v": 42
    },
    {
      "midi": 54,
      "hit": false,
      "t": 4470.586000000004,
      "d": 117.64699999999993,
      "v": 32
    },
    {
      "midi": 66,
      "hit": false,
      "t": 4470.586000000004,
      "d": 117.64699999999993,
      "v": 39
    },
    {
      "midi": 57,
      "hit": false,
      "t": 4588.233000000004,
      "d": 147.05875000000015,
      "v": 37
    },
    {
      "midi": 69,
      "hit": false,
      "t": 4588.233000000004,
      "d": 147.05875000000015,
      "v": 40
    },
    {
      "midi": 48,
      "hit": false,
      "t": 4705.880000000004,
      "d": 147.05875000000015,
      "v": 36
    },
    {
      "midi": 60,
      "hit": false,
      "t": 4705.880000000004,
      "d": 147.05875000000015,
      "v": 42
    },
    {
      "midi": 51,
      "hit": false,
      "t": 4823.527000000004,
      "d": 117.64699999999993,
      "v": 36
    },
    {
      "midi": 63,
      "hit": false,
      "t": 4823.527000000004,
      "d": 117.64699999999993,
      "v": 43
    },
    {
      "midi": 54,
      "hit": false,
      "t": 4941.174000000004,
      "d": 147.05875000000015,
      "v": 41
    },
    {
      "midi": 66,
      "hit": false,
      "t": 4941.174000000004,
      "d": 147.05875000000015,
      "v": 50
    },
    {
      "midi": 58,
      "hit": false,
      "t": 5058.821000000004,
      "d": 147.05875000000015,
      "v": 34
    },
    {
      "midi": 70,
      "hit": false,
      "t": 5058.821000000004,
      "d": 147.05875000000015,
      "v": 40
    },
    {
      "midi": 60,
      "hit": false,
      "t": 5176.4680000000035,
      "d": 147.05875000000015,
      "v": 34
    },
    {
      "midi": 72,
      "hit": false,
      "t": 5176.4680000000035,
      "d": 147.05875000000015,
      "v": 41
    },
    {
      "midi": 63,
      "hit": false,
      "t": 5294.115000000003,
      "d": 147.05875000000015,
      "v": 38
    },
    {
      "midi": 75,
      "hit": false,
      "t": 5294.115000000003,
      "d": 147.05875000000015,
      "v": 44
    },
    {
      "midi": 53,
      "hit": false,
      "t": 5411.762000000003,
      "d": 147.05875000000015,
      "v": 37
    },
    {
      "midi": 65,
      "hit": false,
      "t": 5411.762000000003,
      "d": 147.05875000000015,
      "v": 44
    },
    {
      "midi": 57,
      "hit": false,
      "t": 5529.409000000003,
      "d": 117.64699999999993,
      "v": 37
    },
    {
      "midi": 69,
      "hit": false,
      "t": 5529.409000000003,
      "d": 117.64699999999993,
      "v": 44
    },
    {
      "midi": 58,
      "hit": false,
      "t": 5647.056000000003,
      "d": 147.05875000000015,
      "v": 47
    },
    {
      "midi": 70,
      "hit": false,
      "t": 5647.056000000003,
      "d": 147.05875000000015,
      "v": 56
    },
    {
      "midi": 61,
      "hit": false,
      "t": 5764.703000000003,
      "d": 147.05875000000015,
      "v": 38
    },
    {
      "midi": 73,
      "hit": false,
      "t": 5764.703000000003,
      "d": 147.05875000000015,
      "v": 45
    },
    {
      "midi": 66,
      "hit": false,
      "t": 5882.350000000003,
      "d": 147.05875000000015,
      "v": 40
    },
    {
      "midi": 78,
      "hit": false,
      "t": 5882.350000000003,
      "d": 147.05875000000015,
      "v": 49
    },
    {
      "midi": 65,
      "hit": false,
      "t": 5999.997000000003,
      "d": 147.05875000000015,
      "v": 37
    },
    {
      "midi": 77,
      "hit": false,
      "t": 5999.997000000003,
      "d": 147.05875000000015,
      "v": 46
    },
    {
      "midi": 60,
      "hit": false,
      "t": 6117.644000000003,
      "d": 147.05875000000015,
      "v": 38
    },
    {
      "midi": 72,
      "hit": false,
      "t": 6117.644000000003,
      "d": 147.05875000000015,
      "v": 45
    },
    {
      "midi": 61,
      "hit": false,
      "t": 6235.291000000003,
      "d": 117.64699999999993,
      "v": 38
    },
    {
      "midi": 73,
      "hit": false,
      "t": 6235.291000000003,
      "d": 117.64699999999993,
      "v": 45
    },
    {
      "midi": 64,
      "hit": false,
      "t": 6352.938000000003,
      "d": 235.29399999999987,
      "v": 42
    },
    {
      "midi": 76,
      "hit": false,
      "t": 6352.938000000003,
      "d": 235.29399999999987,
      "v": 50
    },
    {
      "midi": 60,
      "hit": false,
      "t": 6470.585000000003,
      "d": 117.64699999999993,
      "v": 39
    },
    {
      "midi": 72,
      "hit": false,
      "t": 6470.585000000003,
      "d": 117.64699999999993,
      "v": 46
    },
    {
      "midi": 61,
      "hit": false,
      "t": 6588.232000000003,
      "d": 147.05875000000015,
      "v": 40
    },
    {
      "midi": 73,
      "hit": false,
      "t": 6588.232000000003,
      "d": 147.05875000000015,
      "v": 45
    },
    {
      "midi": 57,
      "hit": false,
      "t": 6705.879000000003,
      "d": 117.64699999999993,
      "v": 36
    },
    {
      "midi": 69,
      "hit": false,
      "t": 6705.879000000003,
      "d": 117.64699999999993,
      "v": 43
    },
    {
      "midi": 58,
      "hit": false,
      "t": 6823.526000000003,
      "d": 147.05875000000015,
      "v": 39
    },
    {
      "midi": 70,
      "hit": false,
      "t": 6823.526000000003,
      "d": 147.05875000000015,
      "v": 47
    },
    {
      "midi": 54,
      "hit": false,
      "t": 6941.1730000000025,
      "d": 117.64699999999993,
      "v": 36
    },
    {
      "midi": 66,
      "hit": false,
      "t": 6941.1730000000025,
      "d": 117.64699999999993,
      "v": 44
    },
    {
      "midi": 52,
      "hit": false,
      "t": 7058.820000000002,
      "d": 147.05875000000015,
      "v": 40
    },
    {
      "midi": 64,
      "hit": false,
      "t": 7058.820000000002,
      "d": 147.05875000000015,
      "v": 48
    },
    {
      "midi": 53,
      "hit": false,
      "t": 7176.467000000002,
      "d": 147.05875000000015,
      "v": 37
    },
    {
      "midi": 65,
      "hit": false,
      "t": 7176.467000000002,
      "d": 147.05875000000015,
      "v": 44
    },
    {
      "midi": 58,
      "hit": false,
      "t": 7294.114000000002,
      "d": 117.64699999999993,
      "v": 37
    },
    {
      "midi": 70,
      "hit": false,
      "t": 7294.114000000002,
      "d": 117.64699999999993,
      "v": 44
    },
    {
      "midi": 56,
      "hit": false,
      "t": 7411.761000000002,
      "d": 147.05875000000015,
      "v": 39
    },
    {
      "midi": 68,
      "hit": false,
      "t": 7411.761000000002,
      "d": 147.05875000000015,
      "v": 45
    },
    {
      "midi": 57,
      "hit": false,
      "t": 7529.408000000002,
      "d": 147.05875000000015,
      "v": 38
    },
    {
      "midi": 69,
      "hit": false,
      "t": 7529.408000000002,
      "d": 147.05875000000015,
      "v": 45
    },
    {
      "midi": 61,
      "hit": false,
      "t": 7647.055000000002,
      "d": 117.64699999999993,
      "v": 38
    },
    {
      "midi": 73,
      "hit": false,
      "t": 7647.055000000002,
      "d": 117.64699999999993,
      "v": 45
    },
    {
      "midi": 57,
      "hit": false,
      "t": 7764.702000000002,
      "d": 147.05875000000015,
      "v": 41
    },
    {
      "midi": 69,
      "hit": false,
      "t": 7764.702000000002,
      "d": 147.05875000000015,
      "v": 47
    },
    {
      "midi": 58,
      "hit": false,
      "t": 7882.349000000002,
      "d": 147.05875000000015,
      "v": 37
    },
    {
      "midi": 70,
      "hit": false,
      "t": 7882.349000000002,
      "d": 147.05875000000015,
      "v": 44
    },
    {
      "midi": 61,
      "hit": false,
      "t": 7999.996000000002,
      "d": 117.64699999999993,
      "v": 38
    },
    {
      "midi": 73,
      "hit": false,
      "t": 7999.996000000002,
      "d": 117.64699999999993,
      "v": 45
    },
    {
      "midi": 59,
      "hit": false,
      "t": 8117.643000000002,
      "d": 147.05875000000015,
      "v": 39
    },
    {
      "midi": 71,
      "hit": false,
      "t": 8117.643000000002,
      "d": 147.05875000000015,
      "v": 46
    },
    {
      "midi": 60,
      "hit": false,
      "t": 8235.290000000003,
      "d": 147.05874999999833,
      "v": 38
    },
    {
      "midi": 72,
      "hit": false,
      "t": 8235.290000000003,
      "d": 147.05874999999833,
      "v": 45
    },
    {
      "midi": 65,
      "hit": false,
      "t": 8352.937000000002,
      "d": 117.64699999999903,
      "v": 38
    },
    {
      "midi": 77,
      "hit": false,
      "t": 8352.937000000002,
      "d": 117.64699999999903,
      "v": 45
    },
    {
      "midi": 56,
      "hit": false,
      "t": 8470.584,
      "d": 147.05875000000015,
      "v": 40
    },
    {
      "midi": 68,
      "hit": false,
      "t": 8470.584,
      "d": 147.05875000000015,
      "v": 48
    },
    {
      "midi": 59,
      "hit": false,
      "t": 8588.231000000002,
      "d": 147.05874999999833,
      "v": 36
    },
    {
      "midi": 71,
      "hit": false,
      "t": 8588.231000000002,
      "d": 147.05874999999833,
      "v": 43
    },
    {
      "midi": 64,
      "hit": false,
      "t": 8705.878,
      "d": 147.05874999999833,
      "v": 38
    },
    {
      "midi": 76,
      "hit": false,
      "t": 8705.878,
      "d": 147.05874999999833,
      "v": 45
    },
    {
      "midi": 63,
      "hit": false,
      "t": 8823.525,
      "d": 147.05874999999833,
      "v": 37
    },
    {
      "midi": 75,
      "hit": false,
      "t": 8823.525,
      "d": 147.05874999999833,
      "v": 44
    },
    {
      "midi": 58,
      "hit": false,
      "t": 8941.171999999999,
      "d": 147.05874999999833,
      "v": 34
    },
    {
      "midi": 70,
      "hit": false,
      "t": 8941.171999999999,
      "d": 147.05874999999833,
      "v": 40
    },
    {
      "midi": 59,
      "hit": false,
      "t": 9058.818999999998,
      "d": 117.64699999999903,
      "v": 31
    },
    {
      "midi": 71,
      "hit": false,
      "t": 9058.818999999998,
      "d": 117.64699999999903,
      "v": 38
    },
    {
      "midi": 62,
      "hit": false,
      "t": 9176.465999999997,
      "d": 235.2940000000017,
      "v": 43
    },
    {
      "midi": 74,
      "hit": false,
      "t": 9176.465999999997,
      "d": 235.2940000000017,
      "v": 51
    },
    {
      "midi": 58,
      "hit": false,
      "t": 9294.112999999998,
      "d": 147.05875000000015,
      "v": 36
    },
    {
      "midi": 70,
      "hit": false,
      "t": 9294.112999999998,
      "d": 147.05875000000015,
      "v": 43
    },
    {
      "midi": 59,
      "hit": false,
      "t": 9411.759999999998,
      "d": 147.05874999999833,
      "v": 35
    },
    {
      "midi": 71,
      "hit": false,
      "t": 9411.759999999998,
      "d": 147.05874999999833,
      "v": 42
    },
    {
      "midi": 55,
      "hit": false,
      "t": 9529.406999999997,
      "d": 235.29399999999987,
      "v": 36
    },
    {
      "midi": 67,
      "hit": false,
      "t": 9529.406999999997,
      "d": 235.29399999999987,
      "v": 43
    },
    {
      "midi": 56,
      "hit": false,
      "t": 9647.053999999996,
      "d": 147.05875000000015,
      "v": 38
    },
    {
      "midi": 68,
      "hit": false,
      "t": 9647.053999999996,
      "d": 147.05875000000015,
      "v": 45
    },
    {
      "midi": 52,
      "hit": false,
      "t": 9764.700999999997,
      "d": 117.64699999999903,
      "v": 36
    },
    {
      "midi": 64,
      "hit": false,
      "t": 9764.700999999997,
      "d": 117.64699999999903,
      "v": 43
    },
    {
      "midi": 50,
      "hit": false,
      "t": 9882.347999999996,
      "d": 235.2940000000017,
      "v": 39
    },
    {
      "midi": 62,
      "hit": false,
      "t": 9882.347999999996,
      "d": 235.2940000000017,
      "v": 47
    },
    {
      "midi": 51,
      "hit": false,
      "t": 9999.994999999997,
      "d": 147.05875000000015,
      "v": 34
    },
    {
      "midi": 63,
      "hit": false,
      "t": 9999.994999999997,
      "d": 147.05875000000015,
      "v": 41
    },
    {
      "midi": 56,
      "hit": false,
      "t": 10117.641999999998,
      "d": 117.64699999999903,
      "v": 34
    },
    {
      "midi": 68,
      "hit": false,
      "t": 10117.641999999998,
      "d": 117.64699999999903,
      "v": 41
    },
    {
      "midi": 52,
      "hit": false,
      "t": 10235.288999999997,
      "d": 235.2940000000017,
      "v": 36
    },
    {
      "midi": 64,
      "hit": false,
      "t": 10235.288999999997,
      "d": 235.2940000000017,
      "v": 44
    },
    {
      "midi": 53,
      "hit": false,
      "t": 10352.935999999998,
      "d": 147.05875000000015,
      "v": 35
    },
    {
      "midi": 65,
      "hit": false,
      "t": 10352.935999999998,
      "d": 147.05875000000015,
      "v": 42
    },
    {
      "midi": 59,
      "hit": false,
      "t": 10470.582999999999,
      "d": 117.64699999999903,
      "v": 35
    },
    {
      "midi": 71,
      "hit": false,
      "t": 10470.582999999999,
      "d": 117.64699999999903,
      "v": 42
    },
    {
      "midi": 53,
      "hit": false,
      "t": 10588.229999999998,
      "d": 235.2940000000017,
      "v": 39
    },
    {
      "midi": 65,
      "hit": false,
      "t": 10588.229999999998,
      "d": 235.2940000000017,
      "v": 47
    },
    {
      "midi": 54,
      "hit": false,
      "t": 10705.876999999999,
      "d": 147.05875000000015,
      "v": 38
    },
    {
      "midi": 66,
      "hit": false,
      "t": 10705.876999999999,
      "d": 147.05875000000015,
      "v": 45
    },
    {
      "midi": 59,
      "hit": false,
      "t": 10823.524,
      "d": 117.64699999999903,
      "v": 36
    },
    {
      "midi": 71,
      "hit": false,
      "t": 10823.524,
      "d": 117.64699999999903,
      "v": 43
    },
    {
      "midi": 57,
      "hit": false,
      "t": 10941.170999999998,
      "d": 235.2940000000017,
      "v": 37
    },
    {
      "midi": 69,
      "hit": false,
      "t": 10941.170999999998,
      "d": 235.2940000000017,
      "v": 45
    },
    {
      "midi": 58,
      "hit": false,
      "t": 11058.818,
      "d": 147.05875000000015,
      "v": 37
    },
    {
      "midi": 70,
      "hit": false,
      "t": 11058.818,
      "d": 147.05875000000015,
      "v": 44
    },
    {
      "midi": 63,
      "hit": false,
      "t": 11176.465,
      "d": 117.64699999999903,
      "v": 37
    },
    {
      "midi": 75,
      "hit": false,
      "t": 11176.465,
      "d": 117.64699999999903,
      "v": 44
    },
    {
      "midi": 61,
      "hit": false,
      "t": 11294.112,
      "d": 235.2940000000017,
      "v": 43
    },
    {
      "midi": 73,
      "hit": false,
      "t": 11294.112,
      "d": 235.2940000000017,
      "v": 51
    },
    {
      "midi": 53,
      "hit": false,
      "t": 11411.759,
      "d": 147.05875000000015,
      "v": 38
    },
    {
      "midi": 65,
      "hit": false,
      "t": 11411.759,
      "d": 147.05875000000015,
      "v": 45
    },
    {
      "midi": 58,
      "hit": false,
      "t": 11529.406,
      "d": 147.05874999999833,
      "v": 34
    },
    {
      "midi": 70,
      "hit": false,
      "t": 11529.406,
      "d": 147.05874999999833,
      "v": 41
    },
    {
      "midi": 49,
      "hit": false,
      "t": 11647.053,
      "d": 235.29399999999987,
      "v": 34
    },
    {
      "midi": 61,
      "hit": false,
      "t": 11647.053,
      "d": 235.29399999999987,
      "v": 45
    },
    {
      "midi": 52,
      "hit": false,
      "t": 11764.699999999999,
      "d": 147.05875000000015,
      "v": 36
    },
    {
      "midi": 64,
      "hit": false,
      "t": 11764.699999999999,
      "d": 147.05875000000015,
      "v": 43
    },
    {
      "midi": 57,
      "hit": false,
      "t": 11882.347,
      "d": 117.64699999999903,
      "v": 36
    },
    {
      "midi": 69,
      "hit": false,
      "t": 11882.347,
      "d": 117.64699999999903,
      "v": 43
    },
    {
      "midi": 60,
      "hit": false,
      "t": 11999.993999999999,
      "d": 235.2940000000017,
      "v": 38
    },
    {
      "midi": 72,
      "hit": false,
      "t": 11999.993999999999,
      "d": 235.2940000000017,
      "v": 45
    },
    {
      "midi": 51,
      "hit": false,
      "t": 12117.641,
      "d": 147.05875000000015,
      "v": 34
    },
    {
      "midi": 63,
      "hit": false,
      "t": 12117.641,
      "d": 147.05875000000015,
      "v": 41
    },
    {
      "midi": 56,
      "hit": false,
      "t": 12235.288,
      "d": 147.05874999999833,
      "v": 35
    },
    {
      "midi": 68,
      "hit": false,
      "t": 12235.288,
      "d": 147.05874999999833,
      "v": 42
    },
    {
      "midi": 47,
      "hit": false,
      "t": 12352.935,
      "d": 235.29399999999987,
      "v": 34
    },
    {
      "midi": 59,
      "hit": false,
      "t": 12352.935,
      "d": 235.29399999999987,
      "v": 42
    },
    {
      "midi": 50,
      "hit": false,
      "t": 12470.581999999999,
      "d": 147.05875000000015,
      "v": 34
    },
    {
      "midi": 62,
      "hit": false,
      "t": 12470.581999999999,
      "d": 147.05875000000015,
      "v": 41
    },
    {
      "midi": 55,
      "hit": false,
      "t": 12588.229,
      "d": 117.64699999999903,
      "v": 35
    },
    {
      "midi": 67,
      "hit": false,
      "t": 12588.229,
      "d": 117.64699999999903,
      "v": 42
    },
    {
      "midi": 59,
      "hit": false,
      "t": 12705.875999999998,
      "d": 147.05875000000015,
      "v": 45
    },
    {
      "midi": 71,
      "hit": false,
      "t": 12705.875999999998,
      "d": 147.05875000000015,
      "v": 53
    },
    {
      "midi": 50,
      "hit": false,
      "t": 12823.523,
      "d": 147.05874999999833,
      "v": 38
    },
    {
      "midi": 62,
      "hit": false,
      "t": 12823.523,
      "d": 147.05874999999833,
      "v": 45
    },
    {
      "midi": 54,
      "hit": false,
      "t": 12941.169999999998,
      "d": 147.05874999999833,
      "v": 38
    },
    {
      "midi": 66,
      "hit": false,
      "t": 12941.169999999998,
      "d": 147.05874999999833,
      "v": 45
    },
    {
      "midi": 46,
      "hit": false,
      "t": 13058.816999999997,
      "d": 147.05874999999833,
      "v": 36
    },
    {
      "midi": 58,
      "hit": false,
      "t": 13058.816999999997,
      "d": 147.05874999999833,
      "v": 42
    },
    {
      "midi": 49,
      "hit": false,
      "t": 13176.463999999996,
      "d": 147.05874999999833,
      "v": 35
    },
    {
      "midi": 61,
      "hit": false,
      "t": 13176.463999999996,
      "d": 147.05874999999833,
      "v": 42
    },
    {
      "midi": 54,
      "hit": false,
      "t": 13294.110999999995,
      "d": 117.64699999999903,
      "v": 36
    },
    {
      "midi": 66,
      "hit": false,
      "t": 13294.110999999995,
      "d": 117.64699999999903,
      "v": 43
    },
    {
      "midi": 58,
      "hit": false,
      "t": 13411.757999999994,
      "d": 147.05875000000015,
      "v": 42
    },
    {
      "midi": 70,
      "hit": false,
      "t": 13411.757999999994,
      "d": 147.05875000000015,
      "v": 50
    },
    {
      "midi": 54,
      "hit": false,
      "t": 13529.404999999995,
      "d": 147.05874999999833,
      "v": 38
    },
    {
      "midi": 66,
      "hit": false,
      "t": 13529.404999999995,
      "d": 147.05874999999833,
      "v": 45
    },
    {
      "midi": 59,
      "hit": false,
      "t": 13647.051999999994,
      "d": 147.05874999999833,
      "v": 35
    },
    {
      "midi": 71,
      "hit": false,
      "t": 13647.051999999994,
      "d": 147.05874999999833,
      "v": 42
    },
    {
      "midi": 60,
      "hit": false,
      "t": 13764.698999999993,
      "d": 147.05874999999833,
      "v": 39
    },
    {
      "midi": 72,
      "hit": false,
      "t": 13764.698999999993,
      "d": 147.05874999999833,
      "v": 46
    },
    {
      "midi": 61,
      "hit": false,
      "t": 13882.345999999992,
      "d": 147.05874999999833,
      "v": 43
    },
    {
      "midi": 73,
      "hit": false,
      "t": 13882.345999999992,
      "d": 147.05874999999833,
      "v": 51
    },
    {
      "midi": 63,
      "hit": false,
      "t": 13999.992999999991,
      "d": 117.64699999999903,
      "v": 45
    },
    {
      "midi": 75,
      "hit": false,
      "t": 13999.992999999991,
      "d": 117.64699999999903,
      "v": 54
    },
    {
      "midi": 64,
      "hit": false,
      "t": 14117.63999999999,
      "d": 147.05874999999833,
      "v": 48
    },
    {
      "midi": 76,
      "hit": false,
      "t": 14117.63999999999,
      "d": 147.05874999999833,
      "v": 57
    },
    {
      "midi": 55,
      "hit": false,
      "t": 14235.28699999999,
      "d": 147.05874999999833,
      "v": 38
    },
    {
      "midi": 67,
      "hit": false,
      "t": 14235.28699999999,
      "d": 147.05874999999833,
      "v": 45
    },
    {
      "midi": 60,
      "hit": false,
      "t": 14352.933999999988,
      "d": 147.05874999999833,
      "v": 38
    },
    {
      "midi": 72,
      "hit": false,
      "t": 14352.933999999988,
      "d": 147.05874999999833,
      "v": 45
    },
    {
      "midi": 51,
      "hit": false,
      "t": 14470.580999999987,
      "d": 235.29399999999987,
      "v": 34
    },
    {
      "midi": 63,
      "hit": false,
      "t": 14470.580999999987,
      "d": 235.29399999999987,
      "v": 43
    },
    {
      "midi": 54,
      "hit": false,
      "t": 14588.227999999986,
      "d": 147.05875000000015,
      "v": 34
    },
    {
      "midi": 66,
      "hit": false,
      "t": 14588.227999999986,
      "d": 147.05875000000015,
      "v": 44
    },
    {
      "midi": 59,
      "hit": false,
      "t": 14705.874999999987,
      "d": 117.64699999999903,
      "v": 34
    },
    {
      "midi": 71,
      "hit": false,
      "t": 14705.874999999987,
      "d": 117.64699999999903,
      "v": 44
    },
    {
      "midi": 62,
      "hit": false,
      "t": 14823.521999999986,
      "d": 235.2940000000017,
      "v": 40
    },
    {
      "midi": 74,
      "hit": false,
      "t": 14823.521999999986,
      "d": 235.2940000000017,
      "v": 48
    },
    {
      "midi": 53,
      "hit": false,
      "t": 14941.168999999987,
      "d": 147.05875000000015,
      "v": 35
    },
    {
      "midi": 65,
      "hit": false,
      "t": 14941.168999999987,
      "d": 147.05875000000015,
      "v": 42
    },
    {
      "midi": 58,
      "hit": false,
      "t": 15058.815999999988,
      "d": 147.05874999999833,
      "v": 36
    },
    {
      "midi": 70,
      "hit": false,
      "t": 15058.815999999988,
      "d": 147.05874999999833,
      "v": 43
    },
    {
      "midi": 49,
      "hit": false,
      "t": 15176.462999999987,
      "d": 235.29399999999987,
      "v": 36
    },
    {
      "midi": 61,
      "hit": false,
      "t": 15176.462999999987,
      "d": 235.29399999999987,
      "v": 43
    },
    {
      "midi": 52,
      "hit": false,
      "t": 15294.109999999986,
      "d": 147.05875000000015,
      "v": 38
    },
    {
      "midi": 64,
      "hit": false,
      "t": 15294.109999999986,
      "d": 147.05875000000015,
      "v": 45
    },
    {
      "midi": 57,
      "hit": false,
      "t": 15411.756999999987,
      "d": 117.64699999999903,
      "v": 38
    },
    {
      "midi": 69,
      "hit": false,
      "t": 15411.756999999987,
      "d": 117.64699999999903,
      "v": 45
    },
    {
      "midi": 60,
      "hit": false,
      "t": 15529.403999999986,
      "d": 147.05875000000015,
      "v": 41
    },
    {
      "midi": 72,
      "hit": false,
      "t": 15529.403999999986,
      "d": 147.05875000000015,
      "v": 49
    },
    {
      "midi": 52,
      "hit": false,
      "t": 15647.050999999987,
      "d": 147.05874999999833,
      "v": 38
    },
    {
      "midi": 64,
      "hit": false,
      "t": 15647.050999999987,
      "d": 147.05874999999833,
      "v": 45
    },
    {
      "midi": 56,
      "hit": false,
      "t": 15764.697999999986,
      "d": 147.05874999999833,
      "v": 38
    },
    {
      "midi": 68,
      "hit": false,
      "t": 15764.697999999986,
      "d": 147.05874999999833,
      "v": 45
    },
    {
      "midi": 47,
      "hit": false,
      "t": 15882.344999999985,
      "d": 147.05874999999833,
      "v": 39
    },
    {
      "midi": 59,
      "hit": false,
      "t": 15882.344999999985,
      "d": 147.05874999999833,
      "v": 45
    },
    {
      "midi": 50,
      "hit": false,
      "t": 15999.991999999984,
      "d": 147.05874999999833,
      "v": 36
    },
    {
      "midi": 62,
      "hit": false,
      "t": 15999.991999999984,
      "d": 147.05874999999833,
      "v": 43
    },
    {
      "midi": 55,
      "hit": false,
      "t": 16117.638999999983,
      "d": 117.64699999999903,
      "v": 36
    },
    {
      "midi": 67,
      "hit": false,
      "t": 16117.638999999983,
      "d": 117.64699999999903,
      "v": 43
    },
    {
      "midi": 59,
      "hit": false,
      "t": 16235.285999999982,
      "d": 147.05875000000015,
      "v": 42
    },
    {
      "midi": 71,
      "hit": false,
      "t": 16235.285999999982,
      "d": 147.05875000000015,
      "v": 50
    },
    {
      "midi": 54,
      "hit": false,
      "t": 16352.932999999983,
      "d": 147.05875000000015,
      "v": 38
    },
    {
      "midi": 66,
      "hit": false,
      "t": 16352.932999999983,
      "d": 147.05875000000015,
      "v": 45
    },
    {
      "midi": 61,
      "hit": false,
      "t": 16470.579999999984,
      "d": 147.05875000000015,
      "v": 38
    },
    {
      "midi": 73,
      "hit": false,
      "t": 16470.579999999984,
      "d": 147.05875000000015,
      "v": 45
    },
    {
      "midi": 62,
      "hit": false,
      "t": 16588.226999999984,
      "d": 147.05875000000015,
      "v": 42
    },
    {
      "midi": 74,
      "hit": false,
      "t": 16588.226999999984,
      "d": 147.05875000000015,
      "v": 50
    },
    {
      "midi": 63,
      "hit": false,
      "t": 16705.873999999985,
      "d": 147.05875000000015,
      "v": 44
    },
    {
      "midi": 75,
      "hit": false,
      "t": 16705.873999999985,
      "d": 147.05875000000015,
      "v": 52
    },
    {
      "midi": 64,
      "hit": false,
      "t": 16823.520999999986,
      "d": 117.64700000000084,
      "v": 45
    },
    {
      "midi": 76,
      "hit": false,
      "t": 16823.520999999986,
      "d": 117.64700000000084,
      "v": 54
    },
    {
      "midi": 65,
      "hit": false,
      "t": 16941.167999999987,
      "d": 147.05875000000015,
      "v": 47
    },
    {
      "midi": 77,
      "hit": false,
      "t": 16941.167999999987,
      "d": 147.05875000000015,
      "v": 56
    },
    {
      "midi": 57,
      "hit": false,
      "t": 17058.814999999988,
      "d": 147.05875000000015,
      "v": 38
    },
    {
      "midi": 69,
      "hit": false,
      "t": 17058.814999999988,
      "d": 147.05875000000015,
      "v": 45
    },
    {
      "midi": 63,
      "hit": false,
      "t": 17176.46199999999,
      "d": 147.05875000000015,
      "v": 38
    },
    {
      "midi": 75,
      "hit": false,
      "t": 17176.46199999999,
      "d": 147.05875000000015,
      "v": 45
    },
    {
      "midi": 64,
      "hit": false,
      "t": 17294.10899999999,
      "d": 147.0587499999965,
      "v": 45
    },
    {
      "midi": 76,
      "hit": false,
      "t": 17294.10899999999,
      "d": 147.0587499999965,
      "v": 54
    },
    {
      "midi": 65,
      "hit": false,
      "t": 17411.755999999987,
      "d": 147.05875000000015,
      "v": 45
    },
    {
      "midi": 77,
      "hit": false,
      "t": 17411.755999999987,
      "d": 147.05875000000015,
      "v": 53
    },
    {
      "midi": 66,
      "hit": false,
      "t": 17529.402999999988,
      "d": 117.64700000000084,
      "v": 47
    },
    {
      "midi": 78,
      "hit": false,
      "t": 17529.402999999988,
      "d": 117.64700000000084,
      "v": 56
    },
    {
      "midi": 65,
      "hit": false,
      "t": 17647.04999999999,
      "d": 147.05875000000015,
      "v": 51
    },
    {
      "midi": 77,
      "hit": false,
      "t": 17647.04999999999,
      "d": 147.05875000000015,
      "v": 61
    },
    {
      "midi": 58,
      "hit": false,
      "t": 17764.69699999999,
      "d": 147.05875000000015,
      "v": 39
    },
    {
      "midi": 70,
      "hit": false,
      "t": 17764.69699999999,
      "d": 147.05875000000015,
      "v": 46
    },
    {
      "midi": 61,
      "hit": false,
      "t": 17882.34399999999,
      "d": 147.05875000000015,
      "v": 42
    },
    {
      "midi": 73,
      "hit": false,
      "t": 17882.34399999999,
      "d": 147.05875000000015,
      "v": 50
    },
    {
      "midi": 64,
      "hit": false,
      "t": 17999.99099999999,
      "d": 147.05875000000015,
      "v": 46
    },
    {
      "midi": 76,
      "hit": false,
      "t": 17999.99099999999,
      "d": 147.05875000000015,
      "v": 55
    },
    {
      "midi": 65,
      "hit": false,
      "t": 18117.63799999999,
      "d": 147.05875000000015,
      "v": 48
    },
    {
      "midi": 77,
      "hit": false,
      "t": 18117.63799999999,
      "d": 147.05875000000015,
      "v": 57
    },
    {
      "midi": 66,
      "hit": false,
      "t": 18235.284999999993,
      "d": 117.64700000000084,
      "v": 50
    },
    {
      "midi": 78,
      "hit": false,
      "t": 18235.284999999993,
      "d": 117.64700000000084,
      "v": 59
    },
    {
      "midi": 67,
      "hit": false,
      "t": 18352.931999999993,
      "d": 147.05875000000015,
      "v": 54
    },
    {
      "midi": 79,
      "hit": false,
      "t": 18352.931999999993,
      "d": 147.05875000000015,
      "v": 64
    },
    {
      "midi": 59,
      "hit": false,
      "t": 18470.578999999994,
      "d": 147.05875000000015,
      "v": 39
    },
    {
      "midi": 71,
      "hit": false,
      "t": 18470.578999999994,
      "d": 147.05875000000015,
      "v": 47
    },
    {
      "midi": 65,
      "hit": false,
      "t": 18588.225999999995,
      "d": 147.05875000000015,
      "v": 45
    },
    {
      "midi": 77,
      "hit": false,
      "t": 18588.225999999995,
      "d": 147.05875000000015,
      "v": 54
    },
    {
      "midi": 66,
      "hit": false,
      "t": 18705.872999999996,
      "d": 147.05875000000015,
      "v": 51
    },
    {
      "midi": 78,
      "hit": false,
      "t": 18705.872999999996,
      "d": 147.05875000000015,
      "v": 60
    },
    {
      "midi": 67,
      "hit": false,
      "t": 18823.519999999997,
      "d": 147.05875000000015,
      "v": 51
    },
    {
      "midi": 79,
      "hit": false,
      "t": 18823.519999999997,
      "d": 147.05875000000015,
      "v": 60
    },
    {
      "midi": 68,
      "hit": false,
      "t": 18941.166999999998,
      "d": 117.64700000000084,
      "v": 55
    },
    {
      "midi": 80,
      "hit": false,
      "t": 18941.166999999998,
      "d": 117.64700000000084,
      "v": 65
    },
    {
      "midi": 67,
      "hit": false,
      "t": 19058.814,
      "d": 147.05875000000015,
      "v": 57
    },
    {
      "midi": 79,
      "hit": false,
      "t": 19058.814,
      "d": 147.05875000000015,
      "v": 68
    },
    {
      "midi": 60,
      "hit": false,
      "t": 19176.461,
      "d": 147.05875000000015,
      "v": 43
    },
    {
      "midi": 72,
      "hit": false,
      "t": 19176.461,
      "d": 147.05875000000015,
      "v": 51
    },
    {
      "midi": 63,
      "hit": false,
      "t": 19294.108,
      "d": 147.0587499999965,
      "v": 51
    },
    {
      "midi": 75,
      "hit": false,
      "t": 19294.108,
      "d": 147.0587499999965,
      "v": 60
    },
    {
      "midi": 66,
      "hit": false,
      "t": 19411.754999999997,
      "d": 147.05875000000015,
      "v": 54
    },
    {
      "midi": 78,
      "hit": false,
      "t": 19411.754999999997,
      "d": 147.05875000000015,
      "v": 64
    },
    {
      "midi": 67,
      "hit": false,
      "t": 19529.402,
      "d": 147.05875000000015,
      "v": 56
    },
    {
      "midi": 79,
      "hit": false,
      "t": 19529.402,
      "d": 147.05875000000015,
      "v": 67
    },
    {
      "midi": 68,
      "hit": false,
      "t": 19647.049,
      "d": 117.64700000000084,
      "v": 57
    },
    {
      "midi": 80,
      "hit": false,
      "t": 19647.049,
      "d": 117.64700000000084,
      "v": 68
    },
    {
      "midi": 63,
      "hit": false,
      "t": 19764.696,
      "d": 235.2940000000017,
      "v": 57
    },
    {
      "midi": 75,
      "hit": false,
      "t": 19764.696,
      "d": 235.2940000000017,
      "v": 68
    },
    {
      "midi": 60,
      "hit": false,
      "t": 19882.343,
      "d": 147.05875000000015,
      "v": 49
    },
    {
      "midi": 72,
      "hit": false,
      "t": 19882.343,
      "d": 147.05875000000015,
      "v": 58
    },
    {
      "midi": 65,
      "hit": false,
      "t": 19999.99,
      "d": 147.05875000000015,
      "v": 43
    },
    {
      "midi": 77,
      "hit": false,
      "t": 19999.99,
      "d": 147.05875000000015,
      "v": 51
    },
    {
      "midi": 63,
      "hit": false,
      "t": 20117.637000000002,
      "d": 235.2940000000017,
      "v": 43
    },
    {
      "midi": 75,
      "hit": false,
      "t": 20117.637000000002,
      "d": 235.2940000000017,
      "v": 53
    },
    {
      "midi": 56,
      "hit": false,
      "t": 20235.284000000003,
      "d": 147.05875000000015,
      "v": 41
    },
    {
      "midi": 68,
      "hit": false,
      "t": 20235.284000000003,
      "d": 147.05875000000015,
      "v": 49
    },
    {
      "midi": 61,
      "hit": false,
      "t": 20352.931000000004,
      "d": 117.64700000000084,
      "v": 44
    },
    {
      "midi": 73,
      "hit": false,
      "t": 20352.931000000004,
      "d": 117.64700000000084,
      "v": 52
    },
    {
      "midi": 60,
      "hit": false,
      "t": 20470.578000000005,
      "d": 235.2940000000017,
      "v": 48
    },
    {
      "midi": 72,
      "hit": false,
      "t": 20470.578000000005,
      "d": 235.2940000000017,
      "v": 57
    },
    {
      "midi": 51,
      "hit": false,
      "t": 20588.225000000006,
      "d": 147.05875000000015,
      "v": 38
    },
    {
      "midi": 63,
      "hit": false,
      "t": 20588.225000000006,
      "d": 147.05875000000015,
      "v": 45
    },
    {
      "midi": 58,
      "hit": false,
      "t": 20705.872000000007,
      "d": 147.05875000000015,
      "v": 39
    },
    {
      "midi": 70,
      "hit": false,
      "t": 20705.872000000007,
      "d": 147.05875000000015,
      "v": 47
    },
    {
      "midi": 56,
      "hit": false,
      "t": 20823.519000000008,
      "d": 235.2940000000017,
      "v": 41
    },
    {
      "midi": 68,
      "hit": false,
      "t": 20823.519000000008,
      "d": 235.2940000000017,
      "v": 50
    },
    {
      "midi": 48,
      "hit": false,
      "t": 20941.16600000001,
      "d": 147.05875000000015,
      "v": 39
    },
    {
      "midi": 60,
      "hit": false,
      "t": 20941.16600000001,
      "d": 147.05875000000015,
      "v": 47
    },
    {
      "midi": 53,
      "hit": false,
      "t": 21058.81300000001,
      "d": 117.64700000000084,
      "v": 39
    },
    {
      "midi": 65,
      "hit": false,
      "t": 21058.81300000001,
      "d": 117.64700000000084,
      "v": 47
    },
    {
      "midi": 51,
      "hit": false,
      "t": 21176.46000000001,
      "d": 147.05875000000015,
      "v": 47
    },
    {
      "midi": 63,
      "hit": false,
      "t": 21176.46000000001,
      "d": 147.05875000000015,
      "v": 56
    },
    {
      "midi": 44,
      "hit": false,
      "t": 21294.10700000001,
      "d": 147.05875000000015,
      "v": 38
    },
    {
      "midi": 56,
      "hit": false,
      "t": 21294.10700000001,
      "d": 147.05875000000015,
      "v": 45
    },
    {
      "midi": 49,
      "hit": false,
      "t": 21411.75400000001,
      "d": 147.05875000000015,
      "v": 38
    },
    {
      "midi": 61,
      "hit": false,
      "t": 21411.75400000001,
      "d": 147.05875000000015,
      "v": 45
    },
    {
      "midi": 48,
      "hit": false,
      "t": 21529.401000000013,
      "d": 147.05875000000015,
      "v": 36
    },
    {
      "midi": 60,
      "hit": false,
      "t": 21529.401000000013,
      "d": 147.05875000000015,
      "v": 45
    },
    {
      "midi": 43,
      "hit": false,
      "t": 21647.048000000013,
      "d": 147.05875000000015,
      "v": 35
    },
    {
      "midi": 55,
      "hit": false,
      "t": 21647.048000000013,
      "d": 147.05875000000015,
      "v": 42
    },
    {
      "midi": 44,
      "hit": false,
      "t": 21764.695000000014,
      "d": 117.64700000000084,
      "v": 36
    },
    {
      "midi": 56,
      "hit": false,
      "t": 21764.695000000014,
      "d": 117.64700000000084,
      "v": 43
    },
    {
      "midi": 48,
      "hit": false,
      "t": 21882.342000000015,
      "d": 147.05875000000015,
      "v": 39
    },
    {
      "midi": 60,
      "hit": false,
      "t": 21882.342000000015,
      "d": 147.05875000000015,
      "v": 47
    },
    {
      "midi": 42,
      "hit": false,
      "t": 21999.989000000016,
      "d": 147.05875000000015,
      "v": 33
    },
    {
      "midi": 54,
      "hit": false,
      "t": 21999.989000000016,
      "d": 147.05875000000015,
      "v": 39
    },
    {
      "midi": 50,
      "hit": false,
      "t": 22117.636000000017,
      "d": 147.05875000000015,
      "v": 32
    },
    {
      "midi": 62,
      "hit": false,
      "t": 22117.636000000017,
      "d": 147.05875000000015,
      "v": 38
    },
    {
      "midi": 48,
      "hit": false,
      "t": 22235.283000000018,
      "d": 147.05875000000015,
      "v": 34
    },
    {
      "midi": 60,
      "hit": false,
      "t": 22235.283000000018,
      "d": 147.05875000000015,
      "v": 40
    },
    {
      "midi": 41,
      "hit": false,
      "t": 22352.93000000002,
      "d": 147.05875000000015,
      "v": 33
    },
    {
      "midi": 53,
      "hit": false,
      "t": 22352.93000000002,
      "d": 147.05875000000015,
      "v": 39
    },
    {
      "midi": 42,
      "hit": false,
      "t": 22470.57700000002,
      "d": 117.64700000000084,
      "v": 29
    },
    {
      "midi": 54,
      "hit": false,
      "t": 22470.57700000002,
      "d": 117.64700000000084,
      "v": 37
    },
    {
      "midi": 43,
      "hit": false,
      "t": 22588.22400000002,
      "d": 147.05875000000015,
      "v": 35
    },
    {
      "midi": 55,
      "hit": false,
      "t": 22588.22400000002,
      "d": 147.05875000000015,
      "v": 42
    },
    {
      "midi": 45,
      "hit": false,
      "t": 22705.87100000002,
      "d": 147.05875000000015,
      "v": 32
    },
    {
      "midi": 57,
      "hit": false,
      "t": 22705.87100000002,
      "d": 147.05875000000015,
      "v": 38
    },
    {
      "midi": 47,
      "hit": false,
      "t": 22823.518000000022,
      "d": 147.05875000000015,
      "v": 29
    },
    {
      "midi": 59,
      "hit": false,
      "t": 22823.518000000022,
      "d": 147.05875000000015,
      "v": 35
    },
    {
      "midi": 48,
      "hit": false,
      "t": 22941.165000000023,
      "d": 147.05875000000015,
      "v": 33
    },
    {
      "midi": 60,
      "hit": false,
      "t": 22941.165000000023,
      "d": 147.05875000000015,
      "v": 36
    },
    {
      "midi": 50,
      "hit": false,
      "t": 23058.812000000024,
      "d": 147.05875000000015,
      "v": 32
    },
    {
      "midi": 62,
      "hit": false,
      "t": 23058.812000000024,
      "d": 147.05875000000015,
      "v": 38
    },
    {
      "midi": 51,
      "hit": false,
      "t": 23176.459000000024,
      "d": 117.64700000000084,
      "v": 35
    },
    {
      "midi": 63,
      "hit": false,
      "t": 23176.459000000024,
      "d": 117.64700000000084,
      "v": 42
    },
    {
      "midi": 44,
      "hit": false,
      "t": 23294.106000000025,
      "d": 147.05875000000015,
      "v": 38
    },
    {
      "midi": 56,
      "hit": false,
      "t": 23294.106000000025,
      "d": 147.05875000000015,
      "v": 45
    },
    {
      "midi": 46,
      "hit": false,
      "t": 23411.753000000026,
      "d": 147.05875000000015,
      "v": 30
    },
    {
      "midi": 58,
      "hit": false,
      "t": 23411.753000000026,
      "d": 147.05875000000015,
      "v": 36
    },
    {
      "midi": 47,
      "hit": false,
      "t": 23529.400000000027,
      "d": 147.05875000000015,
      "v": 28
    },
    {
      "midi": 59,
      "hit": false,
      "t": 23529.400000000027,
      "d": 147.05875000000015,
      "v": 34
    },
    {
      "midi": 48,
      "hit": false,
      "t": 23647.047000000028,
      "d": 147.05875000000015,
      "v": 32
    },
    {
      "midi": 60,
      "hit": false,
      "t": 23647.047000000028,
      "d": 147.05875000000015,
      "v": 38
    },
    {
      "midi": 49,
      "hit": false,
      "t": 23764.69400000003,
      "d": 147.05875000000015,
      "v": 32
    },
    {
      "midi": 61,
      "hit": false,
      "t": 23764.69400000003,
      "d": 147.05875000000015,
      "v": 37
    },
    {
      "midi": 51,
      "hit": false,
      "t": 23882.34100000003,
      "d": 117.64700000000084,
      "v": 31
    },
    {
      "midi": 63,
      "hit": false,
      "t": 23882.34100000003,
      "d": 117.64700000000084,
      "v": 37
    },
    {
      "midi": 45,
      "hit": false,
      "t": 23999.98800000003,
      "d": 147.05875000000015,
      "v": 40
    },
    {
      "midi": 57,
      "hit": false,
      "t": 23999.98800000003,
      "d": 147.05875000000015,
      "v": 48
    },
    {
      "midi": 46,
      "hit": false,
      "t": 24117.63500000003,
      "d": 147.05875000000015,
      "v": 34
    },
    {
      "midi": 58,
      "hit": false,
      "t": 24117.63500000003,
      "d": 147.05875000000015,
      "v": 41
    },
    {
      "midi": 48,
      "hit": false,
      "t": 24235.282000000032,
      "d": 147.05875000000015,
      "v": 32
    },
    {
      "midi": 60,
      "hit": false,
      "t": 24235.282000000032,
      "d": 147.05875000000015,
      "v": 38
    },
    {
      "midi": 49,
      "hit": false,
      "t": 24352.929000000033,
      "d": 147.05875000000015,
      "v": 36
    },
    {
      "midi": 61,
      "hit": false,
      "t": 24352.929000000033,
      "d": 147.05875000000015,
      "v": 43
    },
    {
      "midi": 51,
      "hit": false,
      "t": 24470.576000000034,
      "d": 147.05875000000015,
      "v": 34
    },
    {
      "midi": 63,
      "hit": false,
      "t": 24470.576000000034,
      "d": 147.05875000000015,
      "v": 41
    },
    {
      "midi": 53,
      "hit": false,
      "t": 24588.223000000035,
      "d": 117.64700000000084,
      "v": 35
    },
    {
      "midi": 65,
      "hit": false,
      "t": 24588.223000000035,
      "d": 117.64700000000084,
      "v": 42
    },
    {
      "midi": 46,
      "hit": false,
      "t": 24705.870000000035,
      "d": 147.05875000000015,
      "v": 40
    },
    {
      "midi": 58,
      "hit": false,
      "t": 24705.870000000035,
      "d": 147.05875000000015,
      "v": 48
    },
    {
      "midi": 47,
      "hit": false,
      "t": 24823.517000000036,
      "d": 147.05875000000015,
      "v": 32
    },
    {
      "midi": 59,
      "hit": false,
      "t": 24823.517000000036,
      "d": 147.05875000000015,
      "v": 38
    },
    {
      "midi": 48,
      "hit": false,
      "t": 24941.164000000037,
      "d": 147.05875000000015,
      "v": 33
    },
    {
      "midi": 60,
      "hit": false,
      "t": 24941.164000000037,
      "d": 147.05875000000015,
      "v": 39
    },
    {
      "midi": 49,
      "hit": false,
      "t": 25058.811000000038,
      "d": 147.05875000000015,
      "v": 36
    },
    {
      "midi": 61,
      "hit": false,
      "t": 25058.811000000038,
      "d": 147.05875000000015,
      "v": 43
    },
    {
      "midi": 51,
      "hit": false,
      "t": 25176.45800000004,
      "d": 147.05875000000015,
      "v": 33
    },
    {
      "midi": 63,
      "hit": false,
      "t": 25176.45800000004,
      "d": 147.05875000000015,
      "v": 39
    },
    {
      "midi": 53,
      "hit": false,
      "t": 25294.10500000004,
      "d": 117.64700000000084,
      "v": 36
    },
    {
      "midi": 65,
      "hit": false,
      "t": 25294.10500000004,
      "d": 117.64700000000084,
      "v": 43
    },
    {
      "midi": 48,
      "hit": false,
      "t": 25411.75200000004,
      "d": 147.05875000000015,
      "v": 43
    },
    {
      "midi": 60,
      "hit": false,
      "t": 25411.75200000004,
      "d": 147.05875000000015,
      "v": 51
    },
    {
      "midi": 49,
      "hit": false,
      "t": 25529.39900000004,
      "d": 147.05875000000015,
      "v": 36
    },
    {
      "midi": 61,
      "hit": false,
      "t": 25529.39900000004,
      "d": 147.05875000000015,
      "v": 43
    },
    {
      "midi": 50,
      "hit": false,
      "t": 25647.046000000042,
      "d": 147.05875000000015,
      "v": 33
    },
    {
      "midi": 62,
      "hit": false,
      "t": 25647.046000000042,
      "d": 147.05875000000015,
      "v": 39
    },
    {
      "midi": 51,
      "hit": false,
      "t": 25764.693000000043,
      "d": 147.05875000000015,
      "v": 37
    },
    {
      "midi": 63,
      "hit": false,
      "t": 25764.693000000043,
      "d": 147.05875000000015,
      "v": 44
    },
    {
      "midi": 53,
      "hit": false,
      "t": 25882.340000000044,
      "d": 147.05875000000015,
      "v": 36
    },
    {
      "midi": 65,
      "hit": false,
      "t": 25882.340000000044,
      "d": 147.05875000000015,
      "v": 43
    },
    {
      "midi": 54,
      "hit": false,
      "t": 25999.987000000045,
      "d": 117.64700000000084,
      "v": 38
    },
    {
      "midi": 66,
      "hit": false,
      "t": 25999.987000000045,
      "d": 117.64700000000084,
      "v": 45
    },
    {
      "midi": 45,
      "hit": false,
      "t": 26117.634000000045,
      "d": 147.05875000000015,
      "v": 43
    },
    {
      "midi": 57,
      "hit": false,
      "t": 26117.634000000045,
      "d": 147.05875000000015,
      "v": 51
    },
    {
      "midi": 49,
      "hit": false,
      "t": 26235.281000000046,
      "d": 147.05875000000015,
      "v": 36
    },
    {
      "midi": 61,
      "hit": false,
      "t": 26235.281000000046,
      "d": 147.05875000000015,
      "v": 43
    },
    {
      "midi": 50,
      "hit": false,
      "t": 26352.928000000047,
      "d": 147.05875000000015,
      "v": 36
    },
    {
      "midi": 62,
      "hit": false,
      "t": 26352.928000000047,
      "d": 147.05875000000015,
      "v": 43
    },
    {
      "midi": 51,
      "hit": false,
      "t": 26470.575000000048,
      "d": 147.05875000000015,
      "v": 39
    },
    {
      "midi": 63,
      "hit": false,
      "t": 26470.575000000048,
      "d": 147.05875000000015,
      "v": 47
    },
    {
      "midi": 53,
      "hit": false,
      "t": 26588.22200000005,
      "d": 147.05875000000015,
      "v": 38
    },
    {
      "midi": 65,
      "hit": false,
      "t": 26588.22200000005,
      "d": 147.05875000000015,
      "v": 45
    },
    {
      "midi": 54,
      "hit": false,
      "t": 26705.86900000005,
      "d": 117.64700000000084,
      "v": 40
    },
    {
      "midi": 66,
      "hit": false,
      "t": 26705.86900000005,
      "d": 117.64700000000084,
      "v": 48
    },
    {
      "midi": 57,
      "hit": false,
      "t": 26823.51600000005,
      "d": 147.05875000000015,
      "v": 50
    },
    {
      "midi": 69,
      "hit": false,
      "t": 26823.51600000005,
      "d": 147.05875000000015,
      "v": 59
    },
    {
      "midi": 54,
      "hit": false,
      "t": 26941.16300000005,
      "d": 147.05875000000015,
      "v": 40
    },
    {
      "midi": 66,
      "hit": false,
      "t": 26941.16300000005,
      "d": 147.05875000000015,
      "v": 48
    },
    {
      "midi": 52,
      "hit": false,
      "t": 27058.810000000052,
      "d": 147.05875000000015,
      "v": 40
    },
    {
      "midi": 64,
      "hit": false,
      "t": 27058.810000000052,
      "d": 147.05875000000015,
      "v": 48
    },
    {
      "midi": 50,
      "hit": false,
      "t": 27176.457000000053,
      "d": 147.05875000000015,
      "v": 41
    },
    {
      "midi": 62,
      "hit": false,
      "t": 27176.457000000053,
      "d": 147.05875000000015,
      "v": 49
    },
    {
      "midi": 52,
      "hit": false,
      "t": 27294.104000000054,
      "d": 147.05875000000015,
      "v": 38
    },
    {
      "midi": 64,
      "hit": false,
      "t": 27294.104000000054,
      "d": 147.05875000000015,
      "v": 45
    },
    {
      "midi": 54,
      "hit": false,
      "t": 27411.751000000055,
      "d": 117.64700000000084,
      "v": 39
    },
    {
      "midi": 66,
      "hit": false,
      "t": 27411.751000000055,
      "d": 117.64700000000084,
      "v": 46
    },
    {
      "midi": 45,
      "hit": false,
      "t": 27529.398000000056,
      "d": 147.05875000000015,
      "v": 43
    },
    {
      "midi": 57,
      "hit": false,
      "t": 27529.398000000056,
      "d": 147.05875000000015,
      "v": 51
    },
    {
      "midi": 49,
      "hit": false,
      "t": 27647.045000000056,
      "d": 147.05875000000015,
      "v": 36
    },
    {
      "midi": 61,
      "hit": false,
      "t": 27647.045000000056,
      "d": 147.05875000000015,
      "v": 43
    },
    {
      "midi": 50,
      "hit": false,
      "t": 27764.692000000057,
      "d": 147.05875000000015,
      "v": 34
    },
    {
      "midi": 62,
      "hit": false,
      "t": 27764.692000000057,
      "d": 147.05875000000015,
      "v": 41
    },
    {
      "midi": 52,
      "hit": false,
      "t": 27882.339000000058,
      "d": 147.05875000000015,
      "v": 38
    },
    {
      "midi": 64,
      "hit": false,
      "t": 27882.339000000058,
      "d": 147.05875000000015,
      "v": 45
    },
    {
      "midi": 53,
      "hit": false,
      "t": 27999.98600000006,
      "d": 147.05875000000015,
      "v": 34
    },
    {
      "midi": 65,
      "hit": false,
      "t": 27999.98600000006,
      "d": 147.05875000000015,
      "v": 40
    },
    {
      "midi": 54,
      "hit": false,
      "t": 28117.63300000006,
      "d": 117.64700000000084,
      "v": 38
    },
    {
      "midi": 66,
      "hit": false,
      "t": 28117.63300000006,
      "d": 117.64700000000084,
      "v": 45
    },
    {
      "midi": 57,
      "hit": false,
      "t": 28235.28000000006,
      "d": 147.05875000000015,
      "v": 43
    },
    {
      "midi": 69,
      "hit": false,
      "t": 28235.28000000006,
      "d": 147.05875000000015,
      "v": 51
    },
    {
      "midi": 56,
      "hit": false,
      "t": 28352.92700000006,
      "d": 147.05875000000015,
      "v": 37
    },
    {
      "midi": 68,
      "hit": false,
      "t": 28352.92700000006,
      "d": 147.05875000000015,
      "v": 44
    },
    {
      "midi": 55,
      "hit": false,
      "t": 28470.574000000062,
      "d": 147.05875000000015,
      "v": 34
    },
    {
      "midi": 67,
      "hit": false,
      "t": 28470.574000000062,
      "d": 147.05875000000015,
      "v": 40
    },
    {
      "midi": 54,
      "hit": false,
      "t": 28588.221000000063,
      "d": 147.05875000000015,
      "v": 39
    },
    {
      "midi": 66,
      "hit": false,
      "t": 28588.221000000063,
      "d": 147.05875000000015,
      "v": 46
    },
    {
      "midi": 51,
      "hit": false,
      "t": 28705.868000000064,
      "d": 147.05875000000015,
      "v": 36
    },
    {
      "midi": 63,
      "hit": false,
      "t": 28705.868000000064,
      "d": 147.05875000000015,
      "v": 43
    },
    {
      "midi": 48,
      "hit": false,
      "t": 28823.515000000065,
      "d": 117.64700000000084,
      "v": 37
    },
    {
      "midi": 60,
      "hit": false,
      "t": 28823.515000000065,
      "d": 117.64700000000084,
      "v": 44
    },
    {
      "midi": 54,
      "hit": false,
      "t": 28941.162000000066,
      "d": 147.05875000000015,
      "v": 41
    },
    {
      "midi": 66,
      "hit": false,
      "t": 28941.162000000066,
      "d": 147.05875000000015,
      "v": 49
    },
    {
      "midi": 51,
      "hit": false,
      "t": 29058.809000000067,
      "d": 147.05875000000015,
      "v": 36
    },
    {
      "midi": 63,
      "hit": false,
      "t": 29058.809000000067,
      "d": 147.05875000000015,
      "v": 43
    },
    {
      "midi": 48,
      "hit": false,
      "t": 29176.456000000067,
      "d": 147.05875000000015,
      "v": 36
    },
    {
      "midi": 60,
      "hit": false,
      "t": 29176.456000000067,
      "d": 147.05875000000015,
      "v": 43
    },
    {
      "midi": 46,
      "hit": false,
      "t": 29294.10300000007,
      "d": 147.05875000000015,
      "v": 38
    },
    {
      "midi": 58,
      "hit": false,
      "t": 29294.10300000007,
      "d": 147.05875000000015,
      "v": 45
    },
    {
      "midi": 45,
      "hit": false,
      "t": 29411.75000000007,
      "d": 147.05875000000015,
      "v": 37
    },
    {
      "midi": 57,
      "hit": false,
      "t": 29411.75000000007,
      "d": 147.05875000000015,
      "v": 44
    },
    {
      "midi": 44,
      "hit": false,
      "t": 29529.39700000007,
      "d": 117.64700000000084,
      "v": 36
    },
    {
      "midi": 56,
      "hit": false,
      "t": 29529.39700000007,
      "d": 117.64700000000084,
      "v": 43
    },
    {
      "midi": 43,
      "hit": false,
      "t": 29647.04400000007,
      "d": 147.05875000000015,
      "v": 39
    },
    {
      "midi": 55,
      "hit": false,
      "t": 29647.04400000007,
      "d": 147.05875000000015,
      "v": 46
    },
    {
      "midi": 44,
      "hit": false,
      "t": 29764.69100000007,
      "d": 147.05875000000015,
      "v": 33
    },
    {
      "midi": 56,
      "hit": false,
      "t": 29764.69100000007,
      "d": 147.05875000000015,
      "v": 39
    },
    {
      "midi": 45,
      "hit": false,
      "t": 29882.338000000072,
      "d": 147.05875000000015,
      "v": 33
    },
    {
      "midi": 57,
      "hit": false,
      "t": 29882.338000000072,
      "d": 147.05875000000015,
      "v": 39
    },
    {
      "midi": 41,
      "hit": false,
      "t": 29999.985000000073,
      "d": 147.05875000000015,
      "v": 35
    },
    {
      "midi": 53,
      "hit": false,
      "t": 29999.985000000073,
      "d": 147.05875000000015,
      "v": 39
    },
    {
      "midi": 42,
      "hit": false,
      "t": 30117.632000000074,
      "d": 147.05875000000015,
      "v": 33
    },
    {
      "midi": 54,
      "hit": false,
      "t": 30117.632000000074,
      "d": 147.05875000000015,
      "v": 39
    },
    {
      "midi": 44,
      "hit": false,
      "t": 30235.279000000075,
      "d": 117.64700000000084,
      "v": 33
    },
    {
      "midi": 56,
      "hit": false,
      "t": 30235.279000000075,
      "d": 117.64700000000084,
      "v": 39
    },
    {
      "midi": 40,
      "hit": false,
      "t": 30352.926000000076,
      "d": 147.05875000000015,
      "v": 37
    },
    {
      "midi": 52,
      "hit": false,
      "t": 30352.926000000076,
      "d": 147.05875000000015,
      "v": 44
    },
    {
      "midi": 41,
      "hit": false,
      "t": 30470.573000000077,
      "d": 147.05875000000015,
      "v": 32
    },
    {
      "midi": 53,
      "hit": false,
      "t": 30470.573000000077,
      "d": 147.05875000000015,
      "v": 38
    },
    {
      "midi": 42,
      "hit": false,
      "t": 30588.220000000078,
      "d": 147.05875000000015,
      "v": 31
    },
    {
      "midi": 54,
      "hit": false,
      "t": 30588.220000000078,
      "d": 147.05875000000015,
      "v": 37
    },
    {
      "midi": 38,
      "hit": false,
      "t": 30705.86700000008,
      "d": 147.05875000000015,
      "v": 30
    },
    {
      "midi": 50,
      "hit": false,
      "t": 30705.86700000008,
      "d": 147.05875000000015,
      "v": 38
    },
    {
      "midi": 39,
      "hit": false,
      "t": 30823.51400000008,
      "d": 147.05875000000015,
      "v": 30
    },
    {
      "midi": 51,
      "hit": false,
      "t": 30823.51400000008,
      "d": 147.05875000000015,
      "v": 36
    },
    {
      "midi": 41,
      "hit": false,
      "t": 30941.16100000008,
      "d": 117.64700000000084,
      "v": 30
    },
    {
      "midi": 53,
      "hit": false,
      "t": 30941.16100000008,
      "d": 117.64700000000084,
      "v": 36
    },
    {
      "midi": 31,
      "hit": false,
      "t": 31058.80800000008,
      "d": 147.05875000000015,
      "v": 32
    },
    {
      "midi": 43,
      "hit": false,
      "t": 31058.80800000008,
      "d": 147.05875000000015,
      "v": 38
    },
    {
      "midi": 32,
      "hit": false,
      "t": 31176.45500000008,
      "d": 147.05875000000015,
      "v": 28
    },
    {
      "midi": 44,
      "hit": false,
      "t": 31176.45500000008,
      "d": 147.05875000000015,
      "v": 34
    },
    {
      "midi": 34,
      "hit": false,
      "t": 31294.102000000083,
      "d": 147.05875000000015,
      "v": 28
    },
    {
      "midi": 46,
      "hit": false,
      "t": 31294.102000000083,
      "d": 147.05875000000015,
      "v": 34
    },
    {
      "midi": 36,
      "hit": false,
      "t": 31411.749000000083,
      "d": 147.05875000000015,
      "v": 30
    },
    {
      "midi": 48,
      "hit": false,
      "t": 31411.749000000083,
      "d": 147.05875000000015,
      "v": 36
    },
    {
      "midi": 37,
      "hit": false,
      "t": 31529.396000000084,
      "d": 147.05875000000015,
      "v": 32
    },
    {
      "midi": 49,
      "hit": false,
      "t": 31529.396000000084,
      "d": 147.05875000000015,
      "v": 38
    },
    {
      "midi": 39,
      "hit": false,
      "t": 31647.043000000085,
      "d": 117.64700000000084,
      "v": 32
    },
    {
      "midi": 51,
      "hit": false,
      "t": 31647.043000000085,
      "d": 117.64700000000084,
      "v": 39
    },
    {
      "midi": 41,
      "hit": false,
      "t": 31764.690000000086,
      "d": 147.05875000000015,
      "v": 34
    },
    {
      "midi": 53,
      "hit": false,
      "t": 31764.690000000086,
      "d": 147.05875000000015,
      "v": 41
    },
    {
      "midi": 42,
      "hit": false,
      "t": 31882.337000000087,
      "d": 147.05875000000015,
      "v": 34
    },
    {
      "midi": 54,
      "hit": false,
      "t": 31882.337000000087,
      "d": 147.05875000000015,
      "v": 40
    },
    {
      "midi": 43,
      "hit": false,
      "t": 31999.984000000088,
      "d": 147.05875000000015,
      "v": 34
    },
    {
      "midi": 55,
      "hit": false,
      "t": 31999.984000000088,
      "d": 147.05875000000015,
      "v": 41
    },
    {
      "midi": 44,
      "hit": false,
      "t": 32117.63100000009,
      "d": 147.05875000000015,
      "v": 37
    },
    {
      "midi": 56,
      "hit": false,
      "t": 32117.63100000009,
      "d": 147.05875000000015,
      "v": 42
    },
    {
      "midi": 41,
      "hit": false,
      "t": 32235.27800000009,
      "d": 147.05875000000015,
      "v": 34
    },
    {
      "midi": 53,
      "hit": false,
      "t": 32235.27800000009,
      "d": 147.05875000000015,
      "v": 41
    },
    {
      "midi": 46,
      "hit": false,
      "t": 32352.92500000009,
      "d": 117.64700000000084,
      "v": 34
    },
    {
      "midi": 58,
      "hit": false,
      "t": 32352.92500000009,
      "d": 117.64700000000084,
      "v": 41
    },
    {
      "midi": 44,
      "hit": false,
      "t": 32470.57200000009,
      "d": 147.05875000000015,
      "v": 39
    },
    {
      "midi": 56,
      "hit": false,
      "t": 32470.57200000009,
      "d": 147.05875000000015,
      "v": 46
    },
    {
      "midi": 53,
      "hit": false,
      "t": 32588.219000000092,
      "d": 147.05875000000015,
      "v": 41
    },
    {
      "midi": 65,
      "hit": false,
      "t": 32588.219000000092,
      "d": 147.05875000000015,
      "v": 49
    },
    {
      "midi": 51,
      "hit": false,
      "t": 32705.866000000093,
      "d": 147.05875000000015,
      "v": 39
    },
    {
      "midi": 63,
      "hit": false,
      "t": 32705.866000000093,
      "d": 147.05875000000015,
      "v": 47
    },
    {
      "midi": 49,
      "hit": false,
      "t": 32823.51300000009,
      "d": 147.0587499999965,
      "v": 41
    },
    {
      "midi": 61,
      "hit": false,
      "t": 32823.51300000009,
      "d": 147.0587499999965,
      "v": 49
    },
    {
      "midi": 48,
      "hit": false,
      "t": 32941.16000000009,
      "d": 147.0587499999965,
      "v": 38
    },
    {
      "midi": 60,
      "hit": false,
      "t": 32941.16000000009,
      "d": 147.0587499999965,
      "v": 46
    },
    {
      "midi": 46,
      "hit": false,
      "t": 33058.80700000009,
      "d": 117.6469999999972,
      "v": 39
    },
    {
      "midi": 58,
      "hit": false,
      "t": 33058.80700000009,
      "d": 117.6469999999972,
      "v": 46
    },
    {
      "midi": 44,
      "hit": false,
      "t": 33176.454000000085,
      "d": 147.0587499999965,
      "v": 38
    },
    {
      "midi": 56,
      "hit": false,
      "t": 33176.454000000085,
      "d": 147.0587499999965,
      "v": 45
    },
    {
      "midi": 41,
      "hit": false,
      "t": 33294.10100000008,
      "d": 147.0587499999965,
      "v": 36
    },
    {
      "midi": 53,
      "hit": false,
      "t": 33294.10100000008,
      "d": 147.0587499999965,
      "v": 43
    },
    {
      "midi": 42,
      "hit": false,
      "t": 33411.74800000008,
      "d": 147.0587499999965,
      "v": 36
    },
    {
      "midi": 54,
      "hit": false,
      "t": 33411.74800000008,
      "d": 147.0587499999965,
      "v": 43
    },
    {
      "midi": 44,
      "hit": false,
      "t": 33529.39500000008,
      "d": 147.0587499999965,
      "v": 39
    },
    {
      "midi": 56,
      "hit": false,
      "t": 33529.39500000008,
      "d": 147.0587499999965,
      "v": 43
    },
    {
      "midi": 41,
      "hit": false,
      "t": 33647.042000000074,
      "d": 147.0587499999965,
      "v": 38
    },
    {
      "midi": 53,
      "hit": false,
      "t": 33647.042000000074,
      "d": 147.0587499999965,
      "v": 46
    },
    {
      "midi": 46,
      "hit": false,
      "t": 33764.68900000007,
      "d": 117.6469999999972,
      "v": 38
    },
    {
      "midi": 58,
      "hit": false,
      "t": 33764.68900000007,
      "d": 117.6469999999972,
      "v": 45
    },
    {
      "midi": 44,
      "hit": false,
      "t": 33882.33600000007,
      "d": 147.0587499999965,
      "v": 43
    },
    {
      "midi": 56,
      "hit": false,
      "t": 33882.33600000007,
      "d": 147.0587499999965,
      "v": 51
    },
    {
      "midi": 39,
      "hit": false,
      "t": 33999.983000000066,
      "d": 147.0587499999965,
      "v": 37
    },
    {
      "midi": 51,
      "hit": false,
      "t": 33999.983000000066,
      "d": 147.0587499999965,
      "v": 44
    },
    {
      "midi": 41,
      "hit": false,
      "t": 34117.63000000006,
      "d": 147.0587499999965,
      "v": 37
    },
    {
      "midi": 53,
      "hit": false,
      "t": 34117.63000000006,
      "d": 147.0587499999965,
      "v": 44
    },
    {
      "midi": 42,
      "hit": false,
      "t": 34235.27700000006,
      "d": 147.0587499999965,
      "v": 38
    },
    {
      "midi": 54,
      "hit": false,
      "t": 34235.27700000006,
      "d": 147.0587499999965,
      "v": 45
    },
    {
      "midi": 39,
      "hit": false,
      "t": 34352.92400000006,
      "d": 147.0587499999965,
      "v": 36
    },
    {
      "midi": 51,
      "hit": false,
      "t": 34352.92400000006,
      "d": 147.0587499999965,
      "v": 43
    },
    {
      "midi": 46,
      "hit": false,
      "t": 34470.571000000054,
      "d": 117.6469999999972,
      "v": 45
    },
    {
      "midi": 58,
      "hit": false,
      "t": 34470.571000000054,
      "d": 117.6469999999972,
      "v": 53
    },
    {
      "midi": 44,
      "hit": false,
      "t": 34588.21800000005,
      "d": 147.0587499999965,
      "v": 43
    },
    {
      "midi": 56,
      "hit": false,
      "t": 34588.21800000005,
      "d": 147.0587499999965,
      "v": 51
    },
    {
      "midi": 37,
      "hit": false,
      "t": 34705.86500000005,
      "d": 147.0587499999965,
      "v": 39
    },
    {
      "midi": 49,
      "hit": false,
      "t": 34705.86500000005,
      "d": 147.0587499999965,
      "v": 46
    },
    {
      "midi": 39,
      "hit": false,
      "t": 34823.512000000046,
      "d": 147.0587499999965,
      "v": 39
    },
    {
      "midi": 51,
      "hit": false,
      "t": 34823.512000000046,
      "d": 147.0587499999965,
      "v": 47
    },
    {
      "midi": 41,
      "hit": false,
      "t": 34941.15900000004,
      "d": 147.0587499999965,
      "v": 43
    },
    {
      "midi": 53,
      "hit": false,
      "t": 34941.15900000004,
      "d": 147.0587499999965,
      "v": 51
    },
    {
      "midi": 37,
      "hit": false,
      "t": 35058.80600000004,
      "d": 147.0587499999965,
      "v": 39
    },
    {
      "midi": 49,
      "hit": false,
      "t": 35058.80600000004,
      "d": 147.0587499999965,
      "v": 47
    },
    {
      "midi": 46,
      "hit": false,
      "t": 35176.45300000004,
      "d": 117.6469999999972,
      "v": 45
    },
    {
      "midi": 58,
      "hit": false,
      "t": 35176.45300000004,
      "d": 117.6469999999972,
      "v": 53
    },
    {
      "midi": 44,
      "hit": false,
      "t": 35294.100000000035,
      "d": 147.0587499999965,
      "v": 43
    },
    {
      "midi": 56,
      "hit": false,
      "t": 35294.100000000035,
      "d": 147.0587499999965,
      "v": 51
    },
    {
      "midi": 36,
      "hit": false,
      "t": 35411.74700000003,
      "d": 147.0587499999965,
      "v": 37
    },
    {
      "midi": 48,
      "hit": false,
      "t": 35411.74700000003,
      "d": 147.0587499999965,
      "v": 44
    },
    {
      "midi": 37,
      "hit": false,
      "t": 35529.39400000003,
      "d": 147.0587499999965,
      "v": 37
    },
    {
      "midi": 49,
      "hit": false,
      "t": 35529.39400000003,
      "d": 147.0587499999965,
      "v": 44
    },
    {
      "midi": 39,
      "hit": false,
      "t": 35647.04100000003,
      "d": 147.0587499999965,
      "v": 39
    },
    {
      "midi": 51,
      "hit": false,
      "t": 35647.04100000003,
      "d": 147.0587499999965,
      "v": 46
    },
    {
      "midi": 36,
      "hit": false,
      "t": 35764.688000000024,
      "d": 147.0587499999965,
      "v": 36
    },
    {
      "midi": 48,
      "hit": false,
      "t": 35764.688000000024,
      "d": 147.0587499999965,
      "v": 43
    },
    {
      "midi": 41,
      "hit": false,
      "t": 35882.33500000002,
      "d": 117.6469999999972,
      "v": 42
    },
    {
      "midi": 53,
      "hit": false,
      "t": 35882.33500000002,
      "d": 117.6469999999972,
      "v": 50
    },
    {
      "midi": 39,
      "hit": false,
      "t": 35999.98200000002,
      "d": 147.0587499999965,
      "v": 40
    },
    {
      "midi": 51,
      "hit": false,
      "t": 35999.98200000002,
      "d": 147.0587499999965,
      "v": 48
    },
    {
      "midi": 34,
      "hit": false,
      "t": 36117.629000000015,
      "d": 147.0587499999965,
      "v": 39
    },
    {
      "midi": 46,
      "hit": false,
      "t": 36117.629000000015,
      "d": 147.0587499999965,
      "v": 46
    },
    {
      "midi": 41,
      "hit": false,
      "t": 36235.27600000001,
      "d": 147.0587499999965,
      "v": 39
    },
    {
      "midi": 53,
      "hit": false,
      "t": 36235.27600000001,
      "d": 147.0587499999965,
      "v": 47
    },
    {
      "midi": 39,
      "hit": false,
      "t": 36352.92300000001,
      "d": 147.0587499999965,
      "v": 43
    },
    {
      "midi": 51,
      "hit": false,
      "t": 36352.92300000001,
      "d": 147.0587499999965,
      "v": 51
    },
    {
      "midi": 32,
      "hit": false,
      "t": 36470.57000000001,
      "d": 147.0587499999965,
      "v": 39
    },
    {
      "midi": 44,
      "hit": false,
      "t": 36470.57000000001,
      "d": 147.0587499999965,
      "v": 47
    },
    {
      "midi": 34,
      "hit": false,
      "t": 36588.217000000004,
      "d": 117.6469999999972,
      "v": 39
    },
    {
      "midi": 46,
      "hit": false,
      "t": 36588.217000000004,
      "d": 117.6469999999972,
      "v": 47
    },
    {
      "midi": 32,
      "hit": false,
      "t": 36705.864,
      "d": 147.0587499999965,
      "v": 43
    },
    {
      "midi": 44,
      "hit": false,
      "t": 36705.864,
      "d": 147.0587499999965,
      "v": 51
    },
    {
      "midi": 37,
      "hit": false,
      "t": 36823.511,
      "d": 147.0587499999965,
      "v": 34
    },
    {
      "midi": 49,
      "hit": false,
      "t": 36823.511,
      "d": 147.0587499999965,
      "v": 40
    },
    {
      "midi": 39,
      "hit": false,
      "t": 36941.157999999996,
      "d": 147.0587499999965,
      "v": 35
    },
    {
      "midi": 51,
      "hit": false,
      "t": 36941.157999999996,
      "d": 147.0587499999965,
      "v": 42
    },
    {
      "midi": 41,
      "hit": false,
      "t": 37058.80499999999,
      "d": 147.0587499999965,
      "v": 36
    },
    {
      "midi": 53,
      "hit": false,
      "t": 37058.80499999999,
      "d": 147.0587499999965,
      "v": 43
    },
    {
      "midi": 42,
      "hit": false,
      "t": 37176.45199999999,
      "d": 147.0587499999965,
      "v": 38
    },
    {
      "midi": 54,
      "hit": false,
      "t": 37176.45199999999,
      "d": 147.0587499999965,
      "v": 45
    },
    {
      "midi": 44,
      "hit": false,
      "t": 37294.09899999999,
      "d": 117.6469999999972,
      "v": 39
    },
    {
      "midi": 56,
      "hit": false,
      "t": 37294.09899999999,
      "d": 117.6469999999972,
      "v": 46
    },
    {
      "midi": 46,
      "hit": false,
      "t": 37411.745999999985,
      "d": 147.0587499999965,
      "v": 40
    },
    {
      "midi": 58,
      "hit": false,
      "t": 37411.745999999985,
      "d": 147.0587499999965,
      "v": 48
    },
    {
      "midi": 48,
      "hit": false,
      "t": 37529.39299999998,
      "d": 147.0587499999965,
      "v": 43
    },
    {
      "midi": 60,
      "hit": false,
      "t": 37529.39299999998,
      "d": 147.0587499999965,
      "v": 51
    },
    {
      "midi": 49,
      "hit": false,
      "t": 37647.03999999998,
      "d": 147.0587499999965,
      "v": 40
    },
    {
      "midi": 61,
      "hit": false,
      "t": 37647.03999999998,
      "d": 147.0587499999965,
      "v": 48
    },
    {
      "midi": 51,
      "hit": false,
      "t": 37764.686999999976,
      "d": 147.0587499999965,
      "v": 45
    },
    {
      "midi": 63,
      "hit": false,
      "t": 37764.686999999976,
      "d": 147.0587499999965,
      "v": 53
    },
    {
      "midi": 53,
      "hit": false,
      "t": 37882.33399999997,
      "d": 147.0587499999965,
      "v": 42
    },
    {
      "midi": 65,
      "hit": false,
      "t": 37882.33399999997,
      "d": 147.0587499999965,
      "v": 50
    },
    {
      "midi": 54,
      "hit": false,
      "t": 37999.98099999997,
      "d": 117.6469999999972,
      "v": 47
    },
    {
      "midi": 66,
      "hit": false,
      "t": 37999.98099999997,
      "d": 117.6469999999972,
      "v": 56
    },
    {
      "midi": 56,
      "hit": false,
      "t": 38117.62799999997,
      "d": 147.0587499999965,
      "v": 50
    },
    {
      "midi": 68,
      "hit": false,
      "t": 38117.62799999997,
      "d": 147.0587499999965,
      "v": 59
    },
    {
      "midi": 65,
      "hit": false,
      "t": 38235.274999999965,
      "d": 147.0587499999965,
      "v": 51
    },
    {
      "midi": 77,
      "hit": false,
      "t": 38235.274999999965,
      "d": 147.0587499999965,
      "v": 60
    },
    {
      "midi": 63,
      "hit": false,
      "t": 38352.92199999996,
      "d": 147.0587499999965,
      "v": 48
    },
    {
      "midi": 75,
      "hit": false,
      "t": 38352.92199999996,
      "d": 147.0587499999965,
      "v": 57
    },
    {
      "midi": 61,
      "hit": false,
      "t": 38470.56899999996,
      "d": 147.0587499999965,
      "v": 47
    },
    {
      "midi": 73,
      "hit": false,
      "t": 38470.56899999996,
      "d": 147.0587499999965,
      "v": 56
    },
    {
      "midi": 60,
      "hit": false,
      "t": 38588.21599999996,
      "d": 147.0587499999965,
      "v": 45
    },
    {
      "midi": 72,
      "hit": false,
      "t": 38588.21599999996,
      "d": 147.0587499999965,
      "v": 54
    },
    {
      "midi": 58,
      "hit": false,
      "t": 38705.862999999954,
      "d": 117.6469999999972,
      "v": 45
    },
    {
      "midi": 70,
      "hit": false,
      "t": 38705.862999999954,
      "d": 117.6469999999972,
      "v": 54
    },
    {
      "midi": 56,
      "hit": false,
      "t": 38823.50999999995,
      "d": 147.0587499999965,
      "v": 47
    },
    {
      "midi": 68,
      "hit": false,
      "t": 38823.50999999995,
      "d": 147.0587499999965,
      "v": 56
    },
    {
      "midi": 53,
      "hit": false,
      "t": 38941.15699999995,
      "d": 147.0587499999965,
      "v": 43
    },
    {
      "midi": 65,
      "hit": false,
      "t": 38941.15699999995,
      "d": 147.0587499999965,
      "v": 51
    },
    {
      "midi": 54,
      "hit": false,
      "t": 39058.803999999946,
      "d": 147.0587499999965,
      "v": 43
    },
    {
      "midi": 66,
      "hit": false,
      "t": 39058.803999999946,
      "d": 147.0587499999965,
      "v": 51
    },
    {
      "midi": 56,
      "hit": false,
      "t": 39176.45099999994,
      "d": 147.0587499999965,
      "v": 44
    },
    {
      "midi": 68,
      "hit": false,
      "t": 39176.45099999994,
      "d": 147.0587499999965,
      "v": 52
    },
    {
      "midi": 53,
      "hit": false,
      "t": 39294.09799999994,
      "d": 147.0587499999965,
      "v": 43
    },
    {
      "midi": 65,
      "hit": false,
      "t": 39294.09799999994,
      "d": 147.0587499999965,
      "v": 51
    },
    {
      "midi": 58,
      "hit": false,
      "t": 39411.74499999994,
      "d": 117.6469999999972,
      "v": 43
    },
    {
      "midi": 70,
      "hit": false,
      "t": 39411.74499999994,
      "d": 117.6469999999972,
      "v": 51
    },
    {
      "midi": 56,
      "hit": false,
      "t": 39529.391999999934,
      "d": 147.0587499999965,
      "v": 47
    },
    {
      "midi": 68,
      "hit": false,
      "t": 39529.391999999934,
      "d": 147.0587499999965,
      "v": 56
    },
    {
      "midi": 51,
      "hit": false,
      "t": 39647.03899999993,
      "d": 147.0587499999965,
      "v": 40
    },
    {
      "midi": 63,
      "hit": false,
      "t": 39647.03899999993,
      "d": 147.0587499999965,
      "v": 48
    },
    {
      "midi": 53,
      "hit": false,
      "t": 39764.68599999993,
      "d": 147.0587499999965,
      "v": 40
    },
    {
      "midi": 65,
      "hit": false,
      "t": 39764.68599999993,
      "d": 147.0587499999965,
      "v": 48
    },
    {
      "midi": 54,
      "hit": false,
      "t": 39882.332999999926,
      "d": 147.0587499999965,
      "v": 45
    },
    {
      "midi": 66,
      "hit": false,
      "t": 39882.332999999926,
      "d": 147.0587499999965,
      "v": 53
    },
    {
      "midi": 51,
      "hit": false,
      "t": 39999.97999999992,
      "d": 147.0587499999965,
      "v": 43
    },
    {
      "midi": 63,
      "hit": false,
      "t": 39999.97999999992,
      "d": 147.0587499999965,
      "v": 51
    },
    {
      "midi": 58,
      "hit": false,
      "t": 40117.62699999992,
      "d": 117.6469999999972,
      "v": 43
    },
    {
      "midi": 70,
      "hit": false,
      "t": 40117.62699999992,
      "d": 117.6469999999972,
      "v": 51
    },
    {
      "midi": 56,
      "hit": false,
      "t": 40235.27399999992,
      "d": 147.0587499999965,
      "v": 44
    },
    {
      "midi": 68,
      "hit": false,
      "t": 40235.27399999992,
      "d": 147.0587499999965,
      "v": 52
    },
    {
      "midi": 49,
      "hit": false,
      "t": 40352.920999999915,
      "d": 147.0587499999965,
      "v": 39
    },
    {
      "midi": 61,
      "hit": false,
      "t": 40352.920999999915,
      "d": 147.0587499999965,
      "v": 46
    },
    {
      "midi": 51,
      "hit": false,
      "t": 40470.56799999991,
      "d": 147.0587499999965,
      "v": 39
    },
    {
      "midi": 63,
      "hit": false,
      "t": 40470.56799999991,
      "d": 147.0587499999965,
      "v": 46
    },
    {
      "midi": 53,
      "hit": false,
      "t": 40588.21499999991,
      "d": 147.0587499999965,
      "v": 43
    },
    {
      "midi": 65,
      "hit": false,
      "t": 40588.21499999991,
      "d": 147.0587499999965,
      "v": 51
    },
    {
      "midi": 49,
      "hit": false,
      "t": 40705.86199999991,
      "d": 147.0587499999965,
      "v": 41
    },
    {
      "midi": 61,
      "hit": false,
      "t": 40705.86199999991,
      "d": 147.0587499999965,
      "v": 49
    },
    {
      "midi": 58,
      "hit": false,
      "t": 40823.5089999999,
      "d": 117.6469999999972,
      "v": 47
    },
    {
      "midi": 70,
      "hit": false,
      "t": 40823.5089999999,
      "d": 117.6469999999972,
      "v": 56
    },
    {
      "midi": 56,
      "hit": false,
      "t": 40941.1559999999,
      "d": 147.0587499999965,
      "v": 44
    },
    {
      "midi": 68,
      "hit": false,
      "t": 40941.1559999999,
      "d": 147.0587499999965,
      "v": 52
    },
    {
      "midi": 48,
      "hit": false,
      "t": 41058.8029999999,
      "d": 147.0587499999965,
      "v": 40
    },
    {
      "midi": 60,
      "hit": false,
      "t": 41058.8029999999,
      "d": 147.0587499999965,
      "v": 48
    },
    {
      "midi": 49,
      "hit": false,
      "t": 41176.449999999895,
      "d": 147.0587499999965,
      "v": 34
    },
    {
      "midi": 61,
      "hit": false,
      "t": 41176.449999999895,
      "d": 147.0587499999965,
      "v": 40
    },
    {
      "midi": 51,
      "hit": false,
      "t": 41294.09699999989,
      "d": 147.0587499999965,
      "v": 40
    },
    {
      "midi": 63,
      "hit": false,
      "t": 41294.09699999989,
      "d": 147.0587499999965,
      "v": 48
    },
    {
      "midi": 48,
      "hit": false,
      "t": 41411.74399999989,
      "d": 147.0587499999965,
      "v": 39
    },
    {
      "midi": 60,
      "hit": false,
      "t": 41411.74399999989,
      "d": 147.0587499999965,
      "v": 47
    },
    {
      "midi": 53,
      "hit": false,
      "t": 41529.39099999989,
      "d": 117.6469999999972,
      "v": 36
    },
    {
      "midi": 65,
      "hit": false,
      "t": 41529.39099999989,
      "d": 117.6469999999972,
      "v": 43
    },
    {
      "midi": 51,
      "hit": false,
      "t": 41647.037999999884,
      "d": 147.0587499999965,
      "v": 43
    },
    {
      "midi": 63,
      "hit": false,
      "t": 41647.037999999884,
      "d": 147.0587499999965,
      "v": 51
    },
    {
      "midi": 46,
      "hit": false,
      "t": 41764.68499999988,
      "d": 147.0587499999965,
      "v": 39
    },
    {
      "midi": 58,
      "hit": false,
      "t": 41764.68499999988,
      "d": 147.0587499999965,
      "v": 46
    },
    {
      "midi": 53,
      "hit": false,
      "t": 41882.33199999988,
      "d": 147.0587499999965,
      "v": 39
    },
    {
      "midi": 65,
      "hit": false,
      "t": 41882.33199999988,
      "d": 147.0587499999965,
      "v": 47
    },
    {
      "midi": 51,
      "hit": false,
      "t": 41999.978999999876,
      "d": 147.0587499999965,
      "v": 41
    },
    {
      "midi": 63,
      "hit": false,
      "t": 41999.978999999876,
      "d": 147.0587499999965,
      "v": 49
    },
    {
      "midi": 44,
      "hit": false,
      "t": 42117.62599999987,
      "d": 147.0587499999965,
      "v": 40
    },
    {
      "midi": 56,
      "hit": false,
      "t": 42117.62599999987,
      "d": 147.0587499999965,
      "v": 48
    },
    {
      "midi": 53,
      "hit": false,
      "t": 42235.27299999987,
      "d": 117.6469999999972,
      "v": 41
    },
    {
      "midi": 65,
      "hit": false,
      "t": 42235.27299999987,
      "d": 117.6469999999972,
      "v": 49
    },
    {
      "midi": 54,
      "hit": false,
      "t": 42352.91999999987,
      "d": 147.0587499999965,
      "v": 45
    },
    {
      "midi": 66,
      "hit": false,
      "t": 42352.91999999987,
      "d": 147.0587499999965,
      "v": 53
    },
    {
      "midi": 53,
      "hit": false,
      "t": 42470.566999999864,
      "d": 147.0587499999965,
      "v": 41
    },
    {
      "midi": 65,
      "hit": false,
      "t": 42470.566999999864,
      "d": 147.0587499999965,
      "v": 49
    },
    {
      "midi": 51,
      "hit": false,
      "t": 42588.21399999986,
      "d": 147.0587499999965,
      "v": 43
    },
    {
      "midi": 63,
      "hit": false,
      "t": 42588.21399999986,
      "d": 147.0587499999965,
      "v": 51
    },
    {
      "midi": 49,
      "hit": false,
      "t": 42705.86099999986,
      "d": 147.0587499999965,
      "v": 41
    },
    {
      "midi": 61,
      "hit": false,
      "t": 42705.86099999986,
      "d": 147.0587499999965,
      "v": 49
    },
    {
      "midi": 48,
      "hit": false,
      "t": 42823.507999999856,
      "d": 147.0587499999965,
      "v": 40
    },
    {
      "midi": 60,
      "hit": false,
      "t": 42823.507999999856,
      "d": 147.0587499999965,
      "v": 48
    },
    {
      "midi": 46,
      "hit": false,
      "t": 42941.15499999985,
      "d": 117.6469999999972,
      "v": 37
    },
    {
      "midi": 58,
      "hit": false,
      "t": 42941.15499999985,
      "d": 117.6469999999972,
      "v": 44
    },
    {
      "midi": 45,
      "hit": false,
      "t": 43058.80199999985,
      "d": 235.2939999999944,
      "v": 45
    },
    {
      "midi": 57,
      "hit": false,
      "t": 43058.80199999985,
      "d": 235.2939999999944,
      "v": 54
    },
    {
      "midi": 53,
      "hit": false,
      "t": 43176.44899999985,
      "d": 147.0587499999965,
      "v": 39
    },
    {
      "midi": 65,
      "hit": false,
      "t": 43176.44899999985,
      "d": 147.0587499999965,
      "v": 47
    },
    {
      "midi": 48,
      "hit": false,
      "t": 43294.095999999845,
      "d": 147.0587499999965,
      "v": 39
    },
    {
      "midi": 60,
      "hit": false,
      "t": 43294.095999999845,
      "d": 147.0587499999965,
      "v": 46
    },
    {
      "midi": 51,
      "hit": false,
      "t": 43411.74299999984,
      "d": 147.0587499999965,
      "v": 41
    },
    {
      "midi": 63,
      "hit": false,
      "t": 43411.74299999984,
      "d": 147.0587499999965,
      "v": 49
    },
    {
      "midi": 49,
      "hit": false,
      "t": 43529.38999999984,
      "d": 147.0587499999965,
      "v": 39
    },
    {
      "midi": 61,
      "hit": false,
      "t": 43529.38999999984,
      "d": 147.0587499999965,
      "v": 47
    },
    {
      "midi": 46,
      "hit": false,
      "t": 43647.03699999984,
      "d": 117.6469999999972,
      "v": 39
    },
    {
      "midi": 58,
      "hit": false,
      "t": 43647.03699999984,
      "d": 117.6469999999972,
      "v": 47
    },
    {
      "midi": 45,
      "hit": false,
      "t": 43764.683999999834,
      "d": 235.2939999999944,
      "v": 45
    },
    {
      "midi": 57,
      "hit": false,
      "t": 43764.683999999834,
      "d": 235.2939999999944,
      "v": 54
    },
    {
      "midi": 53,
      "hit": false,
      "t": 43882.33099999983,
      "d": 147.0587499999965,
      "v": 39
    },
    {
      "midi": 65,
      "hit": false,
      "t": 43882.33099999983,
      "d": 147.0587499999965,
      "v": 47
    },
    {
      "midi": 48,
      "hit": false,
      "t": 43999.97799999983,
      "d": 147.0587499999965,
      "v": 39
    },
    {
      "midi": 60,
      "hit": false,
      "t": 43999.97799999983,
      "d": 147.0587499999965,
      "v": 46
    },
    {
      "midi": 51,
      "hit": false,
      "t": 44117.624999999825,
      "d": 147.0587499999965,
      "v": 39
    },
    {
      "midi": 63,
      "hit": false,
      "t": 44117.624999999825,
      "d": 147.0587499999965,
      "v": 47
    },
    {
      "midi": 49,
      "hit": false,
      "t": 44235.27199999982,
      "d": 147.0587499999965,
      "v": 36
    },
    {
      "midi": 61,
      "hit": false,
      "t": 44235.27199999982,
      "d": 147.0587499999965,
      "v": 45
    },
    {
      "midi": 46,
      "hit": false,
      "t": 44352.91899999982,
      "d": 117.6469999999972,
      "v": 37
    },
    {
      "midi": 58,
      "hit": false,
      "t": 44352.91899999982,
      "d": 117.6469999999972,
      "v": 45
    },
    {
      "midi": 45,
      "hit": false,
      "t": 44470.56599999982,
      "d": 235.2939999999944,
      "v": 45
    },
    {
      "midi": 57,
      "hit": false,
      "t": 44470.56599999982,
      "d": 235.2939999999944,
      "v": 54
    },
    {
      "midi": 53,
      "hit": false,
      "t": 44588.212999999814,
      "d": 147.0587499999965,
      "v": 39
    },
    {
      "midi": 65,
      "hit": false,
      "t": 44588.212999999814,
      "d": 147.0587499999965,
      "v": 47
    },
    {
      "midi": 48,
      "hit": false,
      "t": 44705.85999999981,
      "d": 147.0587499999965,
      "v": 39
    },
    {
      "midi": 60,
      "hit": false,
      "t": 44705.85999999981,
      "d": 147.0587499999965,
      "v": 46
    },
    {
      "midi": 51,
      "hit": false,
      "t": 44823.50699999981,
      "d": 147.0587499999965,
      "v": 41
    },
    {
      "midi": 63,
      "hit": false,
      "t": 44823.50699999981,
      "d": 147.0587499999965,
      "v": 49
    },
    {
      "midi": 49,
      "hit": false,
      "t": 44941.153999999806,
      "d": 147.0587499999965,
      "v": 39
    },
    {
      "midi": 61,
      "hit": false,
      "t": 44941.153999999806,
      "d": 147.0587499999965,
      "v": 47
    },
    {
      "midi": 46,
      "hit": false,
      "t": 45058.8009999998,
      "d": 117.6469999999972,
      "v": 38
    },
    {
      "midi": 58,
      "hit": false,
      "t": 45058.8009999998,
      "d": 117.6469999999972,
      "v": 45
    },
    {
      "midi": 56,
      "hit": false,
      "t": 45176.4479999998,
      "d": 147.0587499999965,
      "v": 45
    },
    {
      "midi": 68,
      "hit": false,
      "t": 45176.4479999998,
      "d": 147.0587499999965,
      "v": 53
    },
    {
      "midi": 55,
      "hit": false,
      "t": 45294.0949999998,
      "d": 147.0587499999965,
      "v": 39
    },
    {
      "midi": 67,
      "hit": false,
      "t": 45294.0949999998,
      "d": 147.0587499999965,
      "v": 47
    },
    {
      "midi": 53,
      "hit": false,
      "t": 45411.741999999795,
      "d": 147.0587499999965,
      "v": 37
    },
    {
      "midi": 65,
      "hit": false,
      "t": 45411.741999999795,
      "d": 147.0587499999965,
      "v": 45
    },
    {
      "midi": 51,
      "hit": false,
      "t": 45529.38899999979,
      "d": 147.0587499999965,
      "v": 41
    },
    {
      "midi": 63,
      "hit": false,
      "t": 45529.38899999979,
      "d": 147.0587499999965,
      "v": 49
    },
    {
      "midi": 50,
      "hit": false,
      "t": 45647.03599999979,
      "d": 147.0587499999965,
      "v": 38
    },
    {
      "midi": 62,
      "hit": false,
      "t": 45647.03599999979,
      "d": 147.0587499999965,
      "v": 45
    },
    {
      "midi": 48,
      "hit": false,
      "t": 45764.682999999786,
      "d": 117.6469999999972,
      "v": 39
    },
    {
      "midi": 60,
      "hit": false,
      "t": 45764.682999999786,
      "d": 117.6469999999972,
      "v": 47
    },
    {
      "midi": 47,
      "hit": false,
      "t": 45882.32999999978,
      "d": 235.2939999999944,
      "v": 42
    },
    {
      "midi": 59,
      "hit": false,
      "t": 45882.32999999978,
      "d": 235.2939999999944,
      "v": 49
    },
    {
      "midi": 55,
      "hit": false,
      "t": 45999.97699999978,
      "d": 147.0587499999965,
      "v": 39
    },
    {
      "midi": 67,
      "hit": false,
      "t": 45999.97699999978,
      "d": 147.0587499999965,
      "v": 47
    },
    {
      "midi": 50,
      "hit": false,
      "t": 46117.62399999978,
      "d": 147.0587499999965,
      "v": 36
    },
    {
      "midi": 62,
      "hit": false,
      "t": 46117.62399999978,
      "d": 147.0587499999965,
      "v": 43
    },
    {
      "midi": 53,
      "hit": false,
      "t": 46235.270999999775,
      "d": 147.0587499999965,
      "v": 39
    },
    {
      "midi": 65,
      "hit": false,
      "t": 46235.270999999775,
      "d": 147.0587499999965,
      "v": 47
    },
    {
      "midi": 51,
      "hit": false,
      "t": 46352.91799999977,
      "d": 147.0587499999965,
      "v": 39
    },
    {
      "midi": 63,
      "hit": false,
      "t": 46352.91799999977,
      "d": 147.0587499999965,
      "v": 47
    },
    {
      "midi": 48,
      "hit": false,
      "t": 46470.56499999977,
      "d": 117.6469999999972,
      "v": 39
    },
    {
      "midi": 60,
      "hit": false,
      "t": 46470.56499999977,
      "d": 117.6469999999972,
      "v": 47
    },
    {
      "midi": 47,
      "hit": false,
      "t": 46588.21199999977,
      "d": 235.2939999999944,
      "v": 43
    },
    {
      "midi": 59,
      "hit": false,
      "t": 46588.21199999977,
      "d": 235.2939999999944,
      "v": 49
    },
    {
      "midi": 55,
      "hit": false,
      "t": 46705.858999999764,
      "d": 147.0587499999965,
      "v": 39
    },
    {
      "midi": 67,
      "hit": false,
      "t": 46705.858999999764,
      "d": 147.0587499999965,
      "v": 47
    },
    {
      "midi": 50,
      "hit": false,
      "t": 46823.50599999976,
      "d": 147.0587499999965,
      "v": 37
    },
    {
      "midi": 62,
      "hit": false,
      "t": 46823.50599999976,
      "d": 147.0587499999965,
      "v": 44
    },
    {
      "midi": 53,
      "hit": false,
      "t": 46941.15299999976,
      "d": 147.0587499999965,
      "v": 43
    },
    {
      "midi": 65,
      "hit": false,
      "t": 46941.15299999976,
      "d": 147.0587499999965,
      "v": 51
    },
    {
      "midi": 51,
      "hit": false,
      "t": 47058.799999999756,
      "d": 147.0587499999965,
      "v": 39
    },
    {
      "midi": 63,
      "hit": false,
      "t": 47058.799999999756,
      "d": 147.0587499999965,
      "v": 47
    },
    {
      "midi": 48,
      "hit": false,
      "t": 47176.44699999975,
      "d": 117.6469999999972,
      "v": 39
    },
    {
      "midi": 60,
      "hit": false,
      "t": 47176.44699999975,
      "d": 117.6469999999972,
      "v": 47
    },
    {
      "midi": 47,
      "hit": false,
      "t": 47294.09399999975,
      "d": 235.2939999999944,
      "v": 45
    },
    {
      "midi": 59,
      "hit": false,
      "t": 47294.09399999975,
      "d": 235.2939999999944,
      "v": 54
    },
    {
      "midi": 55,
      "hit": false,
      "t": 47411.74099999975,
      "d": 147.0587499999965,
      "v": 39
    },
    {
      "midi": 67,
      "hit": false,
      "t": 47411.74099999975,
      "d": 147.0587499999965,
      "v": 47
    },
    {
      "midi": 50,
      "hit": false,
      "t": 47529.387999999744,
      "d": 147.0587499999965,
      "v": 36
    },
    {
      "midi": 62,
      "hit": false,
      "t": 47529.387999999744,
      "d": 147.0587499999965,
      "v": 43
    },
    {
      "midi": 53,
      "hit": false,
      "t": 47647.03499999974,
      "d": 147.0587499999965,
      "v": 43
    },
    {
      "midi": 65,
      "hit": false,
      "t": 47647.03499999974,
      "d": 147.0587499999965,
      "v": 51
    },
    {
      "midi": 51,
      "hit": false,
      "t": 47764.68199999974,
      "d": 147.0587499999965,
      "v": 39
    },
    {
      "midi": 63,
      "hit": false,
      "t": 47764.68199999974,
      "d": 147.0587499999965,
      "v": 47
    },
    {
      "midi": 48,
      "hit": false,
      "t": 47882.328999999736,
      "d": 117.6469999999972,
      "v": 39
    },
    {
      "midi": 60,
      "hit": false,
      "t": 47882.328999999736,
      "d": 117.6469999999972,
      "v": 47
    },
    {
      "midi": 61,
      "hit": false,
      "t": 47999.97599999973,
      "d": 147.05875000000378,
      "v": 56
    },
    {
      "midi": 73,
      "hit": false,
      "t": 47999.97599999973,
      "d": 147.05875000000378,
      "v": 67
    },
    {
      "midi": 60,
      "hit": false,
      "t": 48117.62299999974,
      "d": 147.0587499999965,
      "v": 49
    },
    {
      "midi": 72,
      "hit": false,
      "t": 48117.62299999974,
      "d": 147.0587499999965,
      "v": 58
    },
    {
      "midi": 58,
      "hit": false,
      "t": 48235.269999999735,
      "d": 147.0587499999965,
      "v": 47
    },
    {
      "midi": 70,
      "hit": false,
      "t": 48235.269999999735,
      "d": 147.0587499999965,
      "v": 56
    },
    {
      "midi": 56,
      "hit": false,
      "t": 48352.91699999973,
      "d": 147.0587499999965,
      "v": 47
    },
    {
      "midi": 68,
      "hit": false,
      "t": 48352.91699999973,
      "d": 147.0587499999965,
      "v": 56
    },
    {
      "midi": 55,
      "hit": false,
      "t": 48470.56399999973,
      "d": 147.0587499999965,
      "v": 46
    },
    {
      "midi": 67,
      "hit": false,
      "t": 48470.56399999973,
      "d": 147.0587499999965,
      "v": 55
    },
    {
      "midi": 53,
      "hit": false,
      "t": 48588.21099999973,
      "d": 117.6469999999972,
      "v": 46
    },
    {
      "midi": 65,
      "hit": false,
      "t": 48588.21099999973,
      "d": 117.6469999999972,
      "v": 55
    },
    {
      "midi": 58,
      "hit": false,
      "t": 48705.857999999724,
      "d": 147.05875000000378,
      "v": 51
    },
    {
      "midi": 70,
      "hit": false,
      "t": 48705.857999999724,
      "d": 147.05875000000378,
      "v": 61
    },
    {
      "midi": 52,
      "hit": false,
      "t": 48823.50499999973,
      "d": 147.05875000000378,
      "v": 46
    },
    {
      "midi": 64,
      "hit": false,
      "t": 48823.50499999973,
      "d": 147.05875000000378,
      "v": 55
    },
    {
      "midi": 55,
      "hit": false,
      "t": 48941.15199999973,
      "d": 147.0587499999965,
      "v": 45
    },
    {
      "midi": 67,
      "hit": false,
      "t": 48941.15199999973,
      "d": 147.0587499999965,
      "v": 54
    },
    {
      "midi": 49,
      "hit": false,
      "t": 49058.79899999973,
      "d": 147.0587499999965,
      "v": 47
    },
    {
      "midi": 61,
      "hit": false,
      "t": 49058.79899999973,
      "d": 147.0587499999965,
      "v": 56
    },
    {
      "midi": 52,
      "hit": false,
      "t": 49176.44599999973,
      "d": 147.0587499999965,
      "v": 46
    },
    {
      "midi": 64,
      "hit": false,
      "t": 49176.44599999973,
      "d": 147.0587499999965,
      "v": 55
    },
    {
      "midi": 48,
      "hit": false,
      "t": 49294.092999999724,
      "d": 117.6469999999972,
      "v": 44
    },
    {
      "midi": 60,
      "hit": false,
      "t": 49294.092999999724,
      "d": 117.6469999999972,
      "v": 52
    },
    {
      "midi": 61,
      "hit": false,
      "t": 49411.73999999972,
      "d": 147.05875000000378,
      "v": 56
    },
    {
      "midi": 73,
      "hit": false,
      "t": 49411.73999999972,
      "d": 147.05875000000378,
      "v": 67
    },
    {
      "midi": 60,
      "hit": false,
      "t": 49529.386999999726,
      "d": 147.0587499999965,
      "v": 47
    },
    {
      "midi": 72,
      "hit": false,
      "t": 49529.386999999726,
      "d": 147.0587499999965,
      "v": 56
    },
    {
      "midi": 58,
      "hit": false,
      "t": 49647.03399999972,
      "d": 147.0587499999965,
      "v": 50
    },
    {
      "midi": 70,
      "hit": false,
      "t": 49647.03399999972,
      "d": 147.0587499999965,
      "v": 59
    },
    {
      "midi": 56,
      "hit": false,
      "t": 49764.68099999972,
      "d": 147.0587499999965,
      "v": 49
    },
    {
      "midi": 68,
      "hit": false,
      "t": 49764.68099999972,
      "d": 147.0587499999965,
      "v": 58
    },
    {
      "midi": 55,
      "hit": false,
      "t": 49882.32799999972,
      "d": 147.0587499999965,
      "v": 47
    },
    {
      "midi": 67,
      "hit": false,
      "t": 49882.32799999972,
      "d": 147.0587499999965,
      "v": 56
    },
    {
      "midi": 53,
      "hit": false,
      "t": 49999.974999999715,
      "d": 117.6469999999972,
      "v": 47
    },
    {
      "midi": 65,
      "hit": false,
      "t": 49999.974999999715,
      "d": 117.6469999999972,
      "v": 56
    },
    {
      "midi": 58,
      "hit": false,
      "t": 50117.62199999971,
      "d": 147.0587499999965,
      "v": 52
    },
    {
      "midi": 70,
      "hit": false,
      "t": 50117.62199999971,
      "d": 147.0587499999965,
      "v": 62
    },
    {
      "midi": 52,
      "hit": false,
      "t": 50235.26899999971,
      "d": 147.0587499999965,
      "v": 46
    },
    {
      "midi": 64,
      "hit": false,
      "t": 50235.26899999971,
      "d": 147.0587499999965,
      "v": 55
    },
    {
      "midi": 55,
      "hit": false,
      "t": 50352.91599999971,
      "d": 117.6469999999972,
      "v": 47
    },
    {
      "midi": 67,
      "hit": false,
      "t": 50352.91599999971,
      "d": 117.6469999999972,
      "v": 56
    },
    {
      "midi": 49,
      "hit": false,
      "t": 50470.5629999997,
      "d": 147.05875000000378,
      "v": 46
    },
    {
      "midi": 61,
      "hit": false,
      "t": 50470.5629999997,
      "d": 147.05875000000378,
      "v": 54
    },
    {
      "midi": 52,
      "hit": false,
      "t": 50588.20999999971,
      "d": 147.0587499999965,
      "v": 46
    },
    {
      "midi": 64,
      "hit": false,
      "t": 50588.20999999971,
      "d": 147.0587499999965,
      "v": 55
    },
    {
      "midi": 48,
      "hit": false,
      "t": 50705.856999999705,
      "d": 117.6469999999972,
      "v": 45
    },
    {
      "midi": 60,
      "hit": false,
      "t": 50705.856999999705,
      "d": 117.6469999999972,
      "v": 57
    },
    {
      "midi": 58,
      "hit": false,
      "t": 50823.5039999997,
      "d": 147.05875000000378,
      "v": 49
    },
    {
      "midi": 70,
      "hit": false,
      "t": 50823.5039999997,
      "d": 147.05875000000378,
      "v": 59
    },
    {
      "midi": 52,
      "hit": false,
      "t": 50941.15099999971,
      "d": 147.0587499999965,
      "v": 45
    },
    {
      "midi": 64,
      "hit": false,
      "t": 50941.15099999971,
      "d": 147.0587499999965,
      "v": 53
    },
    {
      "midi": 55,
      "hit": false,
      "t": 51058.797999999704,
      "d": 147.0587499999965,
      "v": 45
    },
    {
      "midi": 67,
      "hit": false,
      "t": 51058.797999999704,
      "d": 147.0587499999965,
      "v": 53
    },
    {
      "midi": 49,
      "hit": false,
      "t": 51176.4449999997,
      "d": 147.0587499999965,
      "v": 43
    },
    {
      "midi": 61,
      "hit": false,
      "t": 51176.4449999997,
      "d": 147.0587499999965,
      "v": 51
    },
    {
      "midi": 52,
      "hit": false,
      "t": 51294.0919999997,
      "d": 147.0587499999965,
      "v": 40
    },
    {
      "midi": 64,
      "hit": false,
      "t": 51294.0919999997,
      "d": 147.0587499999965,
      "v": 48
    },
    {
      "midi": 48,
      "hit": false,
      "t": 51411.738999999696,
      "d": 117.6469999999972,
      "v": 40
    },
    {
      "midi": 60,
      "hit": false,
      "t": 51411.738999999696,
      "d": 117.6469999999972,
      "v": 48
    },
    {
      "midi": 55,
      "hit": false,
      "t": 51529.38599999969,
      "d": 147.0587499999965,
      "v": 48
    },
    {
      "midi": 67,
      "hit": false,
      "t": 51529.38599999969,
      "d": 147.0587499999965,
      "v": 57
    },
    {
      "midi": 49,
      "hit": false,
      "t": 51647.03299999969,
      "d": 147.0587499999965,
      "v": 43
    },
    {
      "midi": 61,
      "hit": false,
      "t": 51647.03299999969,
      "d": 147.0587499999965,
      "v": 51
    },
    {
      "midi": 52,
      "hit": false,
      "t": 51764.67999999969,
      "d": 147.0587499999965,
      "v": 42
    },
    {
      "midi": 64,
      "hit": false,
      "t": 51764.67999999969,
      "d": 147.0587499999965,
      "v": 49
    },
    {
      "midi": 48,
      "hit": false,
      "t": 51882.326999999685,
      "d": 147.0587499999965,
      "v": 41
    },
    {
      "midi": 60,
      "hit": false,
      "t": 51882.326999999685,
      "d": 147.0587499999965,
      "v": 50
    },
    {
      "midi": 52,
      "hit": false,
      "t": 51999.97399999968,
      "d": 147.0587499999965,
      "v": 40
    },
    {
      "midi": 64,
      "hit": false,
      "t": 51999.97399999968,
      "d": 147.0587499999965,
      "v": 48
    },
    {
      "midi": 46,
      "hit": false,
      "t": 52117.62099999968,
      "d": 117.6469999999972,
      "v": 40
    },
    {
      "midi": 58,
      "hit": false,
      "t": 52117.62099999968,
      "d": 117.6469999999972,
      "v": 48
    },
    {
      "midi": 52,
      "hit": false,
      "t": 52235.267999999676,
      "d": 147.0587499999965,
      "v": 50
    },
    {
      "midi": 64,
      "hit": false,
      "t": 52235.267999999676,
      "d": 147.0587499999965,
      "v": 59
    },
    {
      "midi": 46,
      "hit": false,
      "t": 52352.91499999967,
      "d": 147.0587499999965,
      "v": 42
    },
    {
      "midi": 58,
      "hit": false,
      "t": 52352.91499999967,
      "d": 147.0587499999965,
      "v": 50
    },
    {
      "midi": 49,
      "hit": false,
      "t": 52470.56199999967,
      "d": 147.0587499999965,
      "v": 41
    },
    {
      "midi": 61,
      "hit": false,
      "t": 52470.56199999967,
      "d": 147.0587499999965,
      "v": 48
    },
    {
      "midi": 45,
      "hit": false,
      "t": 52588.20899999967,
      "d": 147.0587499999965,
      "v": 44
    },
    {
      "midi": 57,
      "hit": false,
      "t": 52588.20899999967,
      "d": 147.0587499999965,
      "v": 51
    },
    {
      "midi": 46,
      "hit": false,
      "t": 52705.855999999665,
      "d": 147.0587499999965,
      "v": 41
    },
    {
      "midi": 58,
      "hit": false,
      "t": 52705.855999999665,
      "d": 147.0587499999965,
      "v": 49
    },
    {
      "midi": 44,
      "hit": false,
      "t": 52823.50299999966,
      "d": 117.6469999999972,
      "v": 42
    },
    {
      "midi": 56,
      "hit": false,
      "t": 52823.50299999966,
      "d": 117.6469999999972,
      "v": 50
    },
    {
      "midi": 49,
      "hit": false,
      "t": 52941.14999999966,
      "d": 147.0587499999965,
      "v": 43
    },
    {
      "midi": 61,
      "hit": false,
      "t": 52941.14999999966,
      "d": 147.0587499999965,
      "v": 51
    },
    {
      "midi": 44,
      "hit": false,
      "t": 53058.79699999966,
      "d": 147.0587499999965,
      "v": 40
    },
    {
      "midi": 56,
      "hit": false,
      "t": 53058.79699999966,
      "d": 147.0587499999965,
      "v": 48
    },
    {
      "midi": 46,
      "hit": false,
      "t": 53176.443999999654,
      "d": 147.0587499999965,
      "v": 40
    },
    {
      "midi": 58,
      "hit": false,
      "t": 53176.443999999654,
      "d": 147.0587499999965,
      "v": 48
    },
    {
      "midi": 43,
      "hit": false,
      "t": 53294.09099999965,
      "d": 147.0587499999965,
      "v": 42
    },
    {
      "midi": 55,
      "hit": false,
      "t": 53294.09099999965,
      "d": 147.0587499999965,
      "v": 50
    },
    {
      "midi": 46,
      "hit": false,
      "t": 53411.73799999965,
      "d": 147.0587499999965,
      "v": 40
    },
    {
      "midi": 58,
      "hit": false,
      "t": 53411.73799999965,
      "d": 147.0587499999965,
      "v": 48
    },
    {
      "midi": 42,
      "hit": false,
      "t": 53529.384999999646,
      "d": 117.6469999999972,
      "v": 34
    },
    {
      "midi": 54,
      "hit": false,
      "t": 53529.384999999646,
      "d": 117.6469999999972,
      "v": 41
    },
    {
      "midi": 41,
      "hit": false,
      "t": 53647.03199999964,
      "d": 147.0587499999965,
      "v": 43
    },
    {
      "midi": 53,
      "hit": false,
      "t": 53647.03199999964,
      "d": 147.0587499999965,
      "v": 51
    },
    {
      "midi": 43,
      "hit": false,
      "t": 53764.67899999964,
      "d": 147.0587499999965,
      "v": 39
    },
    {
      "midi": 55,
      "hit": false,
      "t": 53764.67899999964,
      "d": 147.0587499999965,
      "v": 46
    },
    {
      "midi": 46,
      "hit": false,
      "t": 53882.32599999964,
      "d": 147.0587499999965,
      "v": 38
    },
    {
      "midi": 58,
      "hit": false,
      "t": 53882.32599999964,
      "d": 147.0587499999965,
      "v": 45
    },
    {
      "midi": 49,
      "hit": false,
      "t": 53999.972999999634,
      "d": 147.0587499999965,
      "v": 39
    },
    {
      "midi": 61,
      "hit": false,
      "t": 53999.972999999634,
      "d": 147.0587499999965,
      "v": 45
    },
    {
      "midi": 40,
      "hit": false,
      "t": 54117.61999999963,
      "d": 147.0587499999965,
      "v": 38
    },
    {
      "midi": 52,
      "hit": false,
      "t": 54117.61999999963,
      "d": 147.0587499999965,
      "v": 45
    },
    {
      "midi": 43,
      "hit": false,
      "t": 54235.26699999963,
      "d": 117.6469999999972,
      "v": 39
    },
    {
      "midi": 55,
      "hit": false,
      "t": 54235.26699999963,
      "d": 117.6469999999972,
      "v": 46
    },
    {
      "midi": 41,
      "hit": false,
      "t": 54352.913999999626,
      "d": 147.0587499999965,
      "v": 43
    },
    {
      "midi": 53,
      "hit": false,
      "t": 54352.913999999626,
      "d": 147.0587499999965,
      "v": 51
    },
    {
      "midi": 43,
      "hit": false,
      "t": 54470.56099999962,
      "d": 147.0587499999965,
      "v": 39
    },
    {
      "midi": 55,
      "hit": false,
      "t": 54470.56099999962,
      "d": 147.0587499999965,
      "v": 46
    },
    {
      "midi": 46,
      "hit": false,
      "t": 54588.20799999962,
      "d": 147.0587499999965,
      "v": 38
    },
    {
      "midi": 58,
      "hit": false,
      "t": 54588.20799999962,
      "d": 147.0587499999965,
      "v": 45
    },
    {
      "midi": 49,
      "hit": false,
      "t": 54705.85499999962,
      "d": 147.0587499999965,
      "v": 39
    },
    {
      "midi": 61,
      "hit": false,
      "t": 54705.85499999962,
      "d": 147.0587499999965,
      "v": 45
    },
    {
      "midi": 40,
      "hit": false,
      "t": 54823.501999999615,
      "d": 147.0587499999965,
      "v": 38
    },
    {
      "midi": 52,
      "hit": false,
      "t": 54823.501999999615,
      "d": 147.0587499999965,
      "v": 45
    },
    {
      "midi": 43,
      "hit": false,
      "t": 54941.14899999961,
      "d": 117.6469999999972,
      "v": 39
    },
    {
      "midi": 55,
      "hit": false,
      "t": 54941.14899999961,
      "d": 117.6469999999972,
      "v": 46
    },
    {
      "midi": 43,
      "hit": false,
      "t": 55058.79599999961,
      "d": 147.0587499999965,
      "v": 45
    },
    {
      "midi": 55,
      "hit": false,
      "t": 55058.79599999961,
      "d": 147.0587499999965,
      "v": 53
    },
    {
      "midi": 45,
      "hit": false,
      "t": 55176.44299999961,
      "d": 147.0587499999965,
      "v": 38
    },
    {
      "midi": 57,
      "hit": false,
      "t": 55176.44299999961,
      "d": 147.0587499999965,
      "v": 45
    },
    {
      "midi": 48,
      "hit": false,
      "t": 55294.0899999996,
      "d": 147.0587499999965,
      "v": 39
    },
    {
      "midi": 60,
      "hit": false,
      "t": 55294.0899999996,
      "d": 147.0587499999965,
      "v": 46
    },
    {
      "midi": 51,
      "hit": false,
      "t": 55411.7369999996,
      "d": 147.0587499999965,
      "v": 39
    },
    {
      "midi": 63,
      "hit": false,
      "t": 55411.7369999996,
      "d": 147.0587499999965,
      "v": 47
    },
    {
      "midi": 42,
      "hit": false,
      "t": 55529.3839999996,
      "d": 147.0587499999965,
      "v": 38
    },
    {
      "midi": 54,
      "hit": false,
      "t": 55529.3839999996,
      "d": 147.0587499999965,
      "v": 45
    },
    {
      "midi": 45,
      "hit": false,
      "t": 55647.030999999595,
      "d": 117.6469999999972,
      "v": 40
    },
    {
      "midi": 57,
      "hit": false,
      "t": 55647.030999999595,
      "d": 117.6469999999972,
      "v": 48
    },
    {
      "midi": 43,
      "hit": false,
      "t": 55764.67799999959,
      "d": 147.0587499999965,
      "v": 45
    },
    {
      "midi": 55,
      "hit": false,
      "t": 55764.67799999959,
      "d": 147.0587499999965,
      "v": 53
    },
    {
      "midi": 45,
      "hit": false,
      "t": 55882.32499999959,
      "d": 147.0587499999965,
      "v": 39
    },
    {
      "midi": 57,
      "hit": false,
      "t": 55882.32499999959,
      "d": 147.0587499999965,
      "v": 47
    },
    {
      "midi": 48,
      "hit": false,
      "t": 55999.97199999959,
      "d": 147.0587499999965,
      "v": 39
    },
    {
      "midi": 60,
      "hit": false,
      "t": 55999.97199999959,
      "d": 147.0587499999965,
      "v": 46
    },
    {
      "midi": 51,
      "hit": false,
      "t": 56117.618999999584,
      "d": 147.0587499999965,
      "v": 41
    },
    {
      "midi": 63,
      "hit": false,
      "t": 56117.618999999584,
      "d": 147.0587499999965,
      "v": 49
    },
    {
      "midi": 42,
      "hit": false,
      "t": 56235.26599999958,
      "d": 147.0587499999965,
      "v": 42
    },
    {
      "midi": 54,
      "hit": false,
      "t": 56235.26599999958,
      "d": 147.0587499999965,
      "v": 48
    },
    {
      "midi": 45,
      "hit": false,
      "t": 56352.91299999958,
      "d": 117.6469999999972,
      "v": 39
    },
    {
      "midi": 57,
      "hit": false,
      "t": 56352.91299999958,
      "d": 117.6469999999972,
      "v": 46
    },
    {
      "midi": 46,
      "hit": false,
      "t": 56470.559999999576,
      "d": 147.0587499999965,
      "v": 46
    },
    {
      "midi": 58,
      "hit": false,
      "t": 56470.559999999576,
      "d": 147.0587499999965,
      "v": 55
    },
    {
      "midi": 48,
      "hit": false,
      "t": 56588.20699999957,
      "d": 147.0587499999965,
      "v": 39
    },
    {
      "midi": 60,
      "hit": false,
      "t": 56588.20699999957,
      "d": 147.0587499999965,
      "v": 47
    },
    {
      "midi": 51,
      "hit": false,
      "t": 56705.85399999957,
      "d": 147.0587499999965,
      "v": 40
    },
    {
      "midi": 63,
      "hit": false,
      "t": 56705.85399999957,
      "d": 147.0587499999965,
      "v": 48
    },
    {
      "midi": 54,
      "hit": false,
      "t": 56823.50099999957,
      "d": 147.0587499999965,
      "v": 41
    },
    {
      "midi": 66,
      "hit": false,
      "t": 56823.50099999957,
      "d": 147.0587499999965,
      "v": 49
    },
    {
      "midi": 45,
      "hit": false,
      "t": 56941.147999999564,
      "d": 147.0587499999965,
      "v": 40
    },
    {
      "midi": 57,
      "hit": false,
      "t": 56941.147999999564,
      "d": 147.0587499999965,
      "v": 48
    },
    {
      "midi": 48,
      "hit": false,
      "t": 57058.79499999956,
      "d": 117.6469999999972,
      "v": 38
    },
    {
      "midi": 60,
      "hit": false,
      "t": 57058.79499999956,
      "d": 117.6469999999972,
      "v": 45
    },
    {
      "midi": 49,
      "hit": false,
      "t": 57176.44199999956,
      "d": 147.0587499999965,
      "v": 42
    },
    {
      "midi": 61,
      "hit": false,
      "t": 57176.44199999956,
      "d": 147.0587499999965,
      "v": 50
    },
    {
      "midi": 51,
      "hit": false,
      "t": 57294.088999999556,
      "d": 147.0587499999965,
      "v": 41
    },
    {
      "midi": 63,
      "hit": false,
      "t": 57294.088999999556,
      "d": 147.0587499999965,
      "v": 49
    },
    {
      "midi": 54,
      "hit": false,
      "t": 57411.73599999955,
      "d": 147.0587499999965,
      "v": 40
    },
    {
      "midi": 66,
      "hit": false,
      "t": 57411.73599999955,
      "d": 147.0587499999965,
      "v": 48
    },
    {
      "midi": 57,
      "hit": false,
      "t": 57529.38299999955,
      "d": 147.0587499999965,
      "v": 42
    },
    {
      "midi": 69,
      "hit": false,
      "t": 57529.38299999955,
      "d": 147.0587499999965,
      "v": 49
    },
    {
      "midi": 48,
      "hit": false,
      "t": 57647.02999999955,
      "d": 147.0587499999965,
      "v": 41
    },
    {
      "midi": 60,
      "hit": false,
      "t": 57647.02999999955,
      "d": 147.0587499999965,
      "v": 49
    },
    {
      "midi": 51,
      "hit": false,
      "t": 57764.676999999545,
      "d": 117.6469999999972,
      "v": 42
    },
    {
      "midi": 63,
      "hit": false,
      "t": 57764.676999999545,
      "d": 117.6469999999972,
      "v": 50
    },
    {
      "midi": 49,
      "hit": false,
      "t": 57882.32399999954,
      "d": 147.0587499999965,
      "v": 46
    },
    {
      "midi": 61,
      "hit": false,
      "t": 57882.32399999954,
      "d": 147.0587499999965,
      "v": 55
    },
    {
      "midi": 51,
      "hit": false,
      "t": 57999.97099999954,
      "d": 147.0587499999965,
      "v": 41
    },
    {
      "midi": 63,
      "hit": false,
      "t": 57999.97099999954,
      "d": 147.0587499999965,
      "v": 49
    },
    {
      "midi": 54,
      "hit": false,
      "t": 58117.61799999954,
      "d": 147.0587499999965,
      "v": 40
    },
    {
      "midi": 66,
      "hit": false,
      "t": 58117.61799999954,
      "d": 147.0587499999965,
      "v": 48
    },
    {
      "midi": 57,
      "hit": false,
      "t": 58235.264999999534,
      "d": 147.0587499999965,
      "v": 40
    },
    {
      "midi": 69,
      "hit": false,
      "t": 58235.264999999534,
      "d": 147.0587499999965,
      "v": 50
    },
    {
      "midi": 48,
      "hit": false,
      "t": 58352.91199999953,
      "d": 147.0587499999965,
      "v": 41
    },
    {
      "midi": 60,
      "hit": false,
      "t": 58352.91199999953,
      "d": 147.0587499999965,
      "v": 49
    },
    {
      "midi": 51,
      "hit": false,
      "t": 58470.55899999953,
      "d": 117.6469999999972,
      "v": 42
    },
    {
      "midi": 63,
      "hit": false,
      "t": 58470.55899999953,
      "d": 117.6469999999972,
      "v": 50
    },
    {
      "midi": 54,
      "hit": false,
      "t": 58588.205999999525,
      "d": 147.0587499999965,
      "v": 47
    },
    {
      "midi": 66,
      "hit": false,
      "t": 58588.205999999525,
      "d": 147.0587499999965,
      "v": 57
    },
    {
      "midi": 58,
      "hit": false,
      "t": 58705.85299999952,
      "d": 147.0587499999965,
      "v": 43
    },
    {
      "midi": 70,
      "hit": false,
      "t": 58705.85299999952,
      "d": 147.0587499999965,
      "v": 51
    },
    {
      "midi": 60,
      "hit": false,
      "t": 58823.49999999952,
      "d": 147.0587499999965,
      "v": 44
    },
    {
      "midi": 72,
      "hit": false,
      "t": 58823.49999999952,
      "d": 147.0587499999965,
      "v": 52
    },
    {
      "midi": 63,
      "hit": false,
      "t": 58941.14699999952,
      "d": 147.0587499999965,
      "v": 45
    },
    {
      "midi": 75,
      "hit": false,
      "t": 58941.14699999952,
      "d": 147.0587499999965,
      "v": 54
    },
    {
      "midi": 53,
      "hit": false,
      "t": 59058.793999999514,
      "d": 147.0587499999965,
      "v": 45
    },
    {
      "midi": 65,
      "hit": false,
      "t": 59058.793999999514,
      "d": 147.0587499999965,
      "v": 54
    },
    {
      "midi": 57,
      "hit": false,
      "t": 59176.44099999951,
      "d": 117.6469999999972,
      "v": 46
    },
    {
      "midi": 69,
      "hit": false,
      "t": 59176.44099999951,
      "d": 117.6469999999972,
      "v": 55
    },
    {
      "midi": 58,
      "hit": false,
      "t": 59294.08799999951,
      "d": 147.0587499999965,
      "v": 55
    },
    {
      "midi": 70,
      "hit": false,
      "t": 59294.08799999951,
      "d": 147.0587499999965,
      "v": 65
    },
    {
      "midi": 61,
      "hit": false,
      "t": 59411.734999999506,
      "d": 147.0587499999965,
      "v": 46
    },
    {
      "midi": 73,
      "hit": false,
      "t": 59411.734999999506,
      "d": 147.0587499999965,
      "v": 56
    },
    {
      "midi": 66,
      "hit": false,
      "t": 59529.3819999995,
      "d": 147.0587499999965,
      "v": 46
    },
    {
      "midi": 78,
      "hit": false,
      "t": 59529.3819999995,
      "d": 147.0587499999965,
      "v": 55
    },
    {
      "midi": 65,
      "hit": false,
      "t": 59647.0289999995,
      "d": 147.0587499999965,
      "v": 48
    },
    {
      "midi": 77,
      "hit": false,
      "t": 59647.0289999995,
      "d": 147.0587499999965,
      "v": 55
    },
    {
      "midi": 60,
      "hit": false,
      "t": 59764.6759999995,
      "d": 147.0587499999965,
      "v": 45
    },
    {
      "midi": 72,
      "hit": false,
      "t": 59764.6759999995,
      "d": 147.0587499999965,
      "v": 54
    },
    {
      "midi": 61,
      "hit": false,
      "t": 59882.322999999495,
      "d": 117.6469999999972,
      "v": 46
    },
    {
      "midi": 73,
      "hit": false,
      "t": 59882.322999999495,
      "d": 117.6469999999972,
      "v": 55
    },
    {
      "midi": 64,
      "hit": false,
      "t": 59999.96999999949,
      "d": 235.2939999999944,
      "v": 52
    },
    {
      "midi": 76,
      "hit": false,
      "t": 59999.96999999949,
      "d": 235.2939999999944,
      "v": 62
    },
    {
      "midi": 60,
      "hit": false,
      "t": 60117.61699999949,
      "d": 147.0587499999965,
      "v": 48
    },
    {
      "midi": 72,
      "hit": false,
      "t": 60117.61699999949,
      "d": 147.0587499999965,
      "v": 57
    },
    {
      "midi": 61,
      "hit": false,
      "t": 60235.263999999486,
      "d": 147.0587499999965,
      "v": 46
    },
    {
      "midi": 73,
      "hit": false,
      "t": 60235.263999999486,
      "d": 147.0587499999965,
      "v": 55
    },
    {
      "midi": 57,
      "hit": false,
      "t": 60352.91099999948,
      "d": 235.2939999999944,
      "v": 47
    },
    {
      "midi": 69,
      "hit": false,
      "t": 60352.91099999948,
      "d": 235.2939999999944,
      "v": 56
    },
    {
      "midi": 58,
      "hit": false,
      "t": 60470.55799999948,
      "d": 147.0587499999965,
      "v": 46
    },
    {
      "midi": 70,
      "hit": false,
      "t": 60470.55799999948,
      "d": 147.0587499999965,
      "v": 55
    },
    {
      "midi": 54,
      "hit": false,
      "t": 60588.20499999948,
      "d": 117.6469999999972,
      "v": 43
    },
    {
      "midi": 66,
      "hit": false,
      "t": 60588.20499999948,
      "d": 117.6469999999972,
      "v": 51
    },
    {
      "midi": 52,
      "hit": false,
      "t": 60705.851999999475,
      "d": 235.2939999999944,
      "v": 47
    },
    {
      "midi": 64,
      "hit": false,
      "t": 60705.851999999475,
      "d": 235.2939999999944,
      "v": 56
    },
    {
      "midi": 53,
      "hit": false,
      "t": 60823.49899999947,
      "d": 147.0587499999965,
      "v": 43
    },
    {
      "midi": 65,
      "hit": false,
      "t": 60823.49899999947,
      "d": 147.0587499999965,
      "v": 51
    },
    {
      "midi": 58,
      "hit": false,
      "t": 60941.14599999947,
      "d": 117.6469999999972,
      "v": 43
    },
    {
      "midi": 70,
      "hit": false,
      "t": 60941.14599999947,
      "d": 117.6469999999972,
      "v": 51
    },
    {
      "midi": 56,
      "hit": false,
      "t": 61058.79299999947,
      "d": 235.2939999999944,
      "v": 45
    },
    {
      "midi": 68,
      "hit": false,
      "t": 61058.79299999947,
      "d": 235.2939999999944,
      "v": 56
    },
    {
      "midi": 57,
      "hit": false,
      "t": 61176.439999999464,
      "d": 147.0587499999965,
      "v": 43
    },
    {
      "midi": 69,
      "hit": false,
      "t": 61176.439999999464,
      "d": 147.0587499999965,
      "v": 51
    },
    {
      "midi": 61,
      "hit": false,
      "t": 61294.08699999946,
      "d": 117.6469999999972,
      "v": 43
    },
    {
      "midi": 73,
      "hit": false,
      "t": 61294.08699999946,
      "d": 117.6469999999972,
      "v": 51
    },
    {
      "midi": 57,
      "hit": false,
      "t": 61411.73399999946,
      "d": 235.2939999999944,
      "v": 48
    },
    {
      "midi": 69,
      "hit": false,
      "t": 61411.73399999946,
      "d": 235.2939999999944,
      "v": 58
    },
    {
      "midi": 58,
      "hit": false,
      "t": 61529.380999999456,
      "d": 147.0587499999965,
      "v": 46
    },
    {
      "midi": 70,
      "hit": false,
      "t": 61529.380999999456,
      "d": 147.0587499999965,
      "v": 55
    },
    {
      "midi": 61,
      "hit": false,
      "t": 61647.02799999945,
      "d": 117.6469999999972,
      "v": 47
    },
    {
      "midi": 73,
      "hit": false,
      "t": 61647.02799999945,
      "d": 117.6469999999972,
      "v": 56
    },
    {
      "midi": 59,
      "hit": false,
      "t": 61764.67499999945,
      "d": 235.2939999999944,
      "v": 50
    },
    {
      "midi": 71,
      "hit": false,
      "t": 61764.67499999945,
      "d": 235.2939999999944,
      "v": 59
    },
    {
      "midi": 60,
      "hit": false,
      "t": 61882.32199999945,
      "d": 147.0587499999965,
      "v": 47
    },
    {
      "midi": 72,
      "hit": false,
      "t": 61882.32199999945,
      "d": 147.0587499999965,
      "v": 56
    },
    {
      "midi": 65,
      "hit": false,
      "t": 61999.968999999444,
      "d": 117.6469999999972,
      "v": 44
    },
    {
      "midi": 77,
      "hit": false,
      "t": 61999.968999999444,
      "d": 117.6469999999972,
      "v": 53
    },
    {
      "midi": 56,
      "hit": false,
      "t": 62117.61599999944,
      "d": 147.0587499999965,
      "v": 55
    },
    {
      "midi": 68,
      "hit": false,
      "t": 62117.61599999944,
      "d": 147.0587499999965,
      "v": 65
    },
    {
      "midi": 59,
      "hit": false,
      "t": 62235.26299999944,
      "d": 147.0587499999965,
      "v": 50
    },
    {
      "midi": 71,
      "hit": false,
      "t": 62235.26299999944,
      "d": 147.0587499999965,
      "v": 59
    },
    {
      "midi": 64,
      "hit": false,
      "t": 62352.909999999436,
      "d": 147.0587499999965,
      "v": 47
    },
    {
      "midi": 76,
      "hit": false,
      "t": 62352.909999999436,
      "d": 147.0587499999965,
      "v": 56
    },
    {
      "midi": 63,
      "hit": false,
      "t": 62470.55699999943,
      "d": 147.0587499999965,
      "v": 52
    },
    {
      "midi": 75,
      "hit": false,
      "t": 62470.55699999943,
      "d": 147.0587499999965,
      "v": 62
    },
    {
      "midi": 58,
      "hit": false,
      "t": 62588.20399999943,
      "d": 147.0587499999965,
      "v": 49
    },
    {
      "midi": 70,
      "hit": false,
      "t": 62588.20399999943,
      "d": 147.0587499999965,
      "v": 58
    },
    {
      "midi": 59,
      "hit": false,
      "t": 62705.85099999943,
      "d": 117.6469999999972,
      "v": 43
    },
    {
      "midi": 71,
      "hit": false,
      "t": 62705.85099999943,
      "d": 117.6469999999972,
      "v": 54
    },
    {
      "midi": 62,
      "hit": false,
      "t": 62823.497999999425,
      "d": 235.2939999999944,
      "v": 52
    },
    {
      "midi": 74,
      "hit": false,
      "t": 62823.497999999425,
      "d": 235.2939999999944,
      "v": 62
    },
    {
      "midi": 58,
      "hit": false,
      "t": 62941.14499999942,
      "d": 147.0587499999965,
      "v": 47
    },
    {
      "midi": 70,
      "hit": false,
      "t": 62941.14499999942,
      "d": 147.0587499999965,
      "v": 56
    },
    {
      "midi": 59,
      "hit": false,
      "t": 63058.79199999942,
      "d": 147.0587499999965,
      "v": 45
    },
    {
      "midi": 71,
      "hit": false,
      "t": 63058.79199999942,
      "d": 147.0587499999965,
      "v": 53
    },
    {
      "midi": 55,
      "hit": false,
      "t": 63176.43899999942,
      "d": 235.2939999999944,
      "v": 49
    },
    {
      "midi": 67,
      "hit": false,
      "t": 63176.43899999942,
      "d": 235.2939999999944,
      "v": 58
    },
    {
      "midi": 56,
      "hit": false,
      "t": 63294.08599999941,
      "d": 147.0587499999965,
      "v": 43
    },
    {
      "midi": 68,
      "hit": false,
      "t": 63294.08599999941,
      "d": 147.0587499999965,
      "v": 51
    },
    {
      "midi": 52,
      "hit": false,
      "t": 63411.73299999941,
      "d": 117.6469999999972,
      "v": 43
    },
    {
      "midi": 64,
      "hit": false,
      "t": 63411.73299999941,
      "d": 117.6469999999972,
      "v": 51
    },
    {
      "midi": 50,
      "hit": false,
      "t": 63529.37999999941,
      "d": 235.2939999999944,
      "v": 47
    },
    {
      "midi": 62,
      "hit": false,
      "t": 63529.37999999941,
      "d": 235.2939999999944,
      "v": 56
    },
    {
      "midi": 51,
      "hit": false,
      "t": 63647.026999999405,
      "d": 147.0587499999965,
      "v": 43
    },
    {
      "midi": 63,
      "hit": false,
      "t": 63647.026999999405,
      "d": 147.0587499999965,
      "v": 51
    },
    {
      "midi": 56,
      "hit": false,
      "t": 63764.6739999994,
      "d": 117.6469999999972,
      "v": 43
    },
    {
      "midi": 68,
      "hit": false,
      "t": 63764.6739999994,
      "d": 117.6469999999972,
      "v": 51
    },
    {
      "midi": 52,
      "hit": false,
      "t": 63882.3209999994,
      "d": 235.2939999999944,
      "v": 48
    },
    {
      "midi": 64,
      "hit": false,
      "t": 63882.3209999994,
      "d": 235.2939999999944,
      "v": 56
    },
    {
      "midi": 53,
      "hit": false,
      "t": 63999.9679999994,
      "d": 147.0587499999965,
      "v": 45
    },
    {
      "midi": 65,
      "hit": false,
      "t": 63999.9679999994,
      "d": 147.0587499999965,
      "v": 53
    },
    {
      "midi": 59,
      "hit": false,
      "t": 64117.614999999394,
      "d": 117.6469999999972,
      "v": 45
    },
    {
      "midi": 71,
      "hit": false,
      "t": 64117.614999999394,
      "d": 117.6469999999972,
      "v": 54
    },
    {
      "midi": 53,
      "hit": false,
      "t": 64235.26199999939,
      "d": 235.2939999999944,
      "v": 50
    },
    {
      "midi": 65,
      "hit": false,
      "t": 64235.26199999939,
      "d": 235.2939999999944,
      "v": 61
    },
    {
      "midi": 54,
      "hit": false,
      "t": 64352.90899999939,
      "d": 147.0587499999965,
      "v": 46
    },
    {
      "midi": 66,
      "hit": false,
      "t": 64352.90899999939,
      "d": 147.0587499999965,
      "v": 55
    },
    {
      "midi": 59,
      "hit": false,
      "t": 64470.555999999386,
      "d": 117.6469999999972,
      "v": 47
    },
    {
      "midi": 71,
      "hit": false,
      "t": 64470.555999999386,
      "d": 117.6469999999972,
      "v": 56
    },
    {
      "midi": 57,
      "hit": false,
      "t": 64588.20299999938,
      "d": 235.2939999999944,
      "v": 51
    },
    {
      "midi": 69,
      "hit": false,
      "t": 64588.20299999938,
      "d": 235.2939999999944,
      "v": 64
    },
    {
      "midi": 58,
      "hit": false,
      "t": 64705.84999999938,
      "d": 147.0587499999965,
      "v": 47
    },
    {
      "midi": 70,
      "hit": false,
      "t": 64705.84999999938,
      "d": 147.0587499999965,
      "v": 56
    },
    {
      "midi": 63,
      "hit": false,
      "t": 64823.49699999938,
      "d": 117.6469999999972,
      "v": 49
    },
    {
      "midi": 75,
      "hit": false,
      "t": 64823.49699999938,
      "d": 117.6469999999972,
      "v": 58
    },
    {
      "midi": 61,
      "hit": false,
      "t": 64941.143999999375,
      "d": 147.0587499999965,
      "v": 54
    },
    {
      "midi": 73,
      "hit": false,
      "t": 64941.143999999375,
      "d": 147.0587499999965,
      "v": 64
    },
    {
      "midi": 60,
      "hit": false,
      "t": 65058.79099999937,
      "d": 147.0587499999965,
      "v": 45
    },
    {
      "midi": 72,
      "hit": false,
      "t": 65058.79099999937,
      "d": 147.0587499999965,
      "v": 53
    },
    {
      "midi": 59,
      "hit": false,
      "t": 65176.43799999937,
      "d": 147.0587499999965,
      "v": 39
    },
    {
      "midi": 71,
      "hit": false,
      "t": 65176.43799999937,
      "d": 147.0587499999965,
      "v": 47
    },
    {
      "midi": 58,
      "hit": false,
      "t": 65294.084999999366,
      "d": 147.0587499999965,
      "v": 47
    },
    {
      "midi": 70,
      "hit": false,
      "t": 65294.084999999366,
      "d": 147.0587499999965,
      "v": 56
    },
    {
      "midi": 57,
      "hit": false,
      "t": 65411.73199999936,
      "d": 147.0587499999965,
      "v": 44
    },
    {
      "midi": 69,
      "hit": false,
      "t": 65411.73199999936,
      "d": 147.0587499999965,
      "v": 52
    },
    {
      "midi": 65,
      "hit": false,
      "t": 65529.37899999936,
      "d": 117.6469999999972,
      "v": 45
    },
    {
      "midi": 77,
      "hit": false,
      "t": 65529.37899999936,
      "d": 117.6469999999972,
      "v": 56
    },
    {
      "midi": 63,
      "hit": false,
      "t": 65647.02599999936,
      "d": 147.0587499999965,
      "v": 54
    },
    {
      "midi": 75,
      "hit": false,
      "t": 65647.02599999936,
      "d": 147.0587499999965,
      "v": 64
    },
    {
      "midi": 62,
      "hit": false,
      "t": 65764.67299999935,
      "d": 147.0587499999965,
      "v": 45
    },
    {
      "midi": 74,
      "hit": false,
      "t": 65764.67299999935,
      "d": 147.0587499999965,
      "v": 55
    },
    {
      "midi": 61,
      "hit": false,
      "t": 65882.31999999935,
      "d": 147.0587499999965,
      "v": 45
    },
    {
      "midi": 73,
      "hit": false,
      "t": 65882.31999999935,
      "d": 147.0587499999965,
      "v": 55
    },
    {
      "midi": 60,
      "hit": false,
      "t": 65999.96699999935,
      "d": 147.0587499999965,
      "v": 48
    },
    {
      "midi": 72,
      "hit": false,
      "t": 65999.96699999935,
      "d": 147.0587499999965,
      "v": 57
    },
    {
      "midi": 58,
      "hit": false,
      "t": 66117.61399999935,
      "d": 147.0587499999965,
      "v": 45
    },
    {
      "midi": 70,
      "hit": false,
      "t": 66117.61399999935,
      "d": 147.0587499999965,
      "v": 54
    },
    {
      "midi": 66,
      "hit": false,
      "t": 66235.26099999934,
      "d": 117.6469999999972,
      "v": 48
    },
    {
      "midi": 78,
      "hit": false,
      "t": 66235.26099999934,
      "d": 117.6469999999972,
      "v": 58
    },
    {
      "midi": 65,
      "hit": false,
      "t": 66352.90799999934,
      "d": 147.0587499999965,
      "v": 56
    },
    {
      "midi": 77,
      "hit": false,
      "t": 66352.90799999934,
      "d": 147.0587499999965,
      "v": 67
    },
    {
      "midi": 63,
      "hit": false,
      "t": 66470.55499999934,
      "d": 147.0587499999965,
      "v": 50
    },
    {
      "midi": 75,
      "hit": false,
      "t": 66470.55499999934,
      "d": 147.0587499999965,
      "v": 59
    },
    {
      "midi": 62,
      "hit": false,
      "t": 66588.20199999934,
      "d": 147.0587499999965,
      "v": 47
    },
    {
      "midi": 74,
      "hit": false,
      "t": 66588.20199999934,
      "d": 147.0587499999965,
      "v": 56
    },
    {
      "midi": 61,
      "hit": false,
      "t": 66705.84899999933,
      "d": 147.0587499999965,
      "v": 51
    },
    {
      "midi": 73,
      "hit": false,
      "t": 66705.84899999933,
      "d": 147.0587499999965,
      "v": 60
    },
    {
      "midi": 60,
      "hit": false,
      "t": 66823.49599999933,
      "d": 147.0587499999965,
      "v": 49
    },
    {
      "midi": 72,
      "hit": false,
      "t": 66823.49599999933,
      "d": 147.0587499999965,
      "v": 58
    },
    {
      "midi": 69,
      "hit": false,
      "t": 66941.14299999933,
      "d": 117.6469999999972,
      "v": 53
    },
    {
      "midi": 81,
      "hit": false,
      "t": 66941.14299999933,
      "d": 117.6469999999972,
      "v": 63
    },
    {
      "midi": 60,
      "hit": false,
      "t": 67058.78999999932,
      "d": 235.2939999999944,
      "v": 57
    },
    {
      "midi": 72,
      "hit": false,
      "t": 67058.78999999932,
      "d": 235.2939999999944,
      "v": 68
    },
    {
      "midi": 61,
      "hit": false,
      "t": 67176.43699999932,
      "d": 147.0587499999965,
      "v": 52
    },
    {
      "midi": 73,
      "hit": false,
      "t": 67176.43699999932,
      "d": 147.0587499999965,
      "v": 62
    },
    {
      "midi": 70,
      "hit": false,
      "t": 67294.08399999932,
      "d": 117.6469999999972,
      "v": 52
    },
    {
      "midi": 82,
      "hit": false,
      "t": 67294.08399999932,
      "d": 117.6469999999972,
      "v": 62
    },
    {
      "midi": 62,
      "hit": false,
      "t": 67411.73099999932,
      "d": 235.2939999999944,
      "v": 60
    },
    {
      "midi": 74,
      "hit": false,
      "t": 67411.73099999932,
      "d": 235.2939999999944,
      "v": 71
    },
    {
      "midi": 63,
      "hit": false,
      "t": 67529.37799999931,
      "d": 147.0587499999965,
      "v": 52
    },
    {
      "midi": 75,
      "hit": false,
      "t": 67529.37799999931,
      "d": 147.0587499999965,
      "v": 62
    },
    {
      "midi": 70,
      "hit": false,
      "t": 67647.02499999931,
      "d": 117.6469999999972,
      "v": 56
    },
    {
      "midi": 82,
      "hit": false,
      "t": 67647.02499999931,
      "d": 117.6469999999972,
      "v": 67
    },
    {
      "midi": 72,
      "hit": false,
      "t": 67764.67199999931,
      "d": 147.0587499999965,
      "v": 61
    },
    {
      "midi": 84,
      "hit": false,
      "t": 67764.67199999931,
      "d": 147.0587499999965,
      "v": 72
    },
    {
      "midi": 70,
      "hit": false,
      "t": 67882.3189999993,
      "d": 147.0587499999965,
      "v": 51
    },
    {
      "midi": 82,
      "hit": false,
      "t": 67882.3189999993,
      "d": 147.0587499999965,
      "v": 60
    },
    {
      "midi": 68,
      "hit": false,
      "t": 67999.9659999993,
      "d": 147.0587499999965,
      "v": 47
    },
    {
      "midi": 80,
      "hit": false,
      "t": 67999.9659999993,
      "d": 147.0587499999965,
      "v": 56
    },
    {
      "midi": 66,
      "hit": false,
      "t": 68117.6129999993,
      "d": 147.0587499999965,
      "v": 52
    },
    {
      "midi": 78,
      "hit": false,
      "t": 68117.6129999993,
      "d": 147.0587499999965,
      "v": 62
    },
    {
      "midi": 65,
      "hit": false,
      "t": 68235.2599999993,
      "d": 147.0587499999965,
      "v": 49
    },
    {
      "midi": 77,
      "hit": false,
      "t": 68235.2599999993,
      "d": 147.0587499999965,
      "v": 60
    },
    {
      "midi": 64,
      "hit": false,
      "t": 68352.9069999993,
      "d": 117.6469999999972,
      "v": 49
    },
    {
      "midi": 76,
      "hit": false,
      "t": 68352.9069999993,
      "d": 117.6469999999972,
      "v": 60
    },
    {
      "midi": 72,
      "hit": false,
      "t": 68470.55399999929,
      "d": 147.0587499999965,
      "v": 61
    },
    {
      "midi": 84,
      "hit": false,
      "t": 68470.55399999929,
      "d": 147.0587499999965,
      "v": 72
    },
    {
      "midi": 70,
      "hit": false,
      "t": 68588.20099999929,
      "d": 147.0587499999965,
      "v": 52
    },
    {
      "midi": 82,
      "hit": false,
      "t": 68588.20099999929,
      "d": 147.0587499999965,
      "v": 62
    },
    {
      "midi": 68,
      "hit": false,
      "t": 68705.84799999929,
      "d": 147.0587499999965,
      "v": 47
    },
    {
      "midi": 80,
      "hit": false,
      "t": 68705.84799999929,
      "d": 147.0587499999965,
      "v": 59
    },
    {
      "midi": 66,
      "hit": false,
      "t": 68823.49499999928,
      "d": 147.0587499999965,
      "v": 53
    },
    {
      "midi": 78,
      "hit": false,
      "t": 68823.49499999928,
      "d": 147.0587499999965,
      "v": 63
    },
    {
      "midi": 65,
      "hit": false,
      "t": 68941.14199999928,
      "d": 147.0587499999965,
      "v": 48
    },
    {
      "midi": 77,
      "hit": false,
      "t": 68941.14199999928,
      "d": 147.0587499999965,
      "v": 59
    },
    {
      "midi": 64,
      "hit": false,
      "t": 69058.78899999928,
      "d": 117.6469999999972,
      "v": 49
    },
    {
      "midi": 76,
      "hit": false,
      "t": 69058.78899999928,
      "d": 117.6469999999972,
      "v": 58
    },
    {
      "midi": 66,
      "hit": false,
      "t": 69176.43599999927,
      "d": 147.0587499999965,
      "v": 56
    },
    {
      "midi": 78,
      "hit": false,
      "t": 69176.43599999927,
      "d": 147.0587499999965,
      "v": 67
    },
    {
      "midi": 65,
      "hit": false,
      "t": 69294.08299999927,
      "d": 147.0587499999965,
      "v": 48
    },
    {
      "midi": 77,
      "hit": false,
      "t": 69294.08299999927,
      "d": 147.0587499999965,
      "v": 58
    },
    {
      "midi": 64,
      "hit": false,
      "t": 69411.72999999927,
      "d": 147.0587499999965,
      "v": 47
    },
    {
      "midi": 76,
      "hit": false,
      "t": 69411.72999999927,
      "d": 147.0587499999965,
      "v": 56
    },
    {
      "midi": 63,
      "hit": false,
      "t": 69529.37699999927,
      "d": 147.0587499999965,
      "v": 51
    },
    {
      "midi": 75,
      "hit": false,
      "t": 69529.37699999927,
      "d": 147.0587499999965,
      "v": 60
    },
    {
      "midi": 62,
      "hit": false,
      "t": 69647.02399999926,
      "d": 147.0587499999965,
      "v": 47
    },
    {
      "midi": 74,
      "hit": false,
      "t": 69647.02399999926,
      "d": 147.0587499999965,
      "v": 56
    },
    {
      "midi": 61,
      "hit": false,
      "t": 69764.67099999926,
      "d": 117.6469999999972,
      "v": 46
    },
    {
      "midi": 73,
      "hit": false,
      "t": 69764.67099999926,
      "d": 117.6469999999972,
      "v": 55
    },
    {
      "midi": 63,
      "hit": false,
      "t": 69882.31799999926,
      "d": 147.0587499999965,
      "v": 49
    },
    {
      "midi": 75,
      "hit": false,
      "t": 69882.31799999926,
      "d": 147.0587499999965,
      "v": 58
    },
    {
      "midi": 59,
      "hit": false,
      "t": 69999.96499999925,
      "d": 147.0587499999965,
      "v": 45
    },
    {
      "midi": 71,
      "hit": false,
      "t": 69999.96499999925,
      "d": 147.0587499999965,
      "v": 54
    },
    {
      "midi": 60,
      "hit": false,
      "t": 70117.61199999925,
      "d": 147.0587499999965,
      "v": 42
    },
    {
      "midi": 72,
      "hit": false,
      "t": 70117.61199999925,
      "d": 147.0587499999965,
      "v": 50
    },
    {
      "midi": 61,
      "hit": false,
      "t": 70235.25899999925,
      "d": 147.0587499999965,
      "v": 43
    },
    {
      "midi": 73,
      "hit": false,
      "t": 70235.25899999925,
      "d": 147.0587499999965,
      "v": 51
    },
    {
      "midi": 57,
      "hit": false,
      "t": 70352.90599999925,
      "d": 147.0587499999965,
      "v": 40
    },
    {
      "midi": 69,
      "hit": false,
      "t": 70352.90599999925,
      "d": 147.0587499999965,
      "v": 47
    },
    {
      "midi": 58,
      "hit": false,
      "t": 70470.55299999924,
      "d": 117.6469999999972,
      "v": 42
    },
    {
      "midi": 70,
      "hit": false,
      "t": 70470.55299999924,
      "d": 117.6469999999972,
      "v": 50
    },
    {
      "midi": 60,
      "hit": false,
      "t": 70588.19999999924,
      "d": 235.2939999999944,
      "v": 45
    },
    {
      "midi": 72,
      "hit": false,
      "t": 70588.19999999924,
      "d": 235.2939999999944,
      "v": 53
    },
    {
      "midi": 55,
      "hit": false,
      "t": 70705.84699999924,
      "d": 147.0587499999965,
      "v": 37
    },
    {
      "midi": 67,
      "hit": false,
      "t": 70705.84699999924,
      "d": 147.0587499999965,
      "v": 45
    },
    {
      "midi": 56,
      "hit": false,
      "t": 70823.49399999923,
      "d": 147.0587499999965,
      "v": 38
    },
    {
      "midi": 68,
      "hit": false,
      "t": 70823.49399999923,
      "d": 147.0587499999965,
      "v": 45
    },
    {
      "midi": 59,
      "hit": false,
      "t": 70941.14099999923,
      "d": 235.2939999999944,
      "v": 39
    },
    {
      "midi": 71,
      "hit": false,
      "t": 70941.14099999923,
      "d": 235.2939999999944,
      "v": 46
    },
    {
      "midi": 54,
      "hit": false,
      "t": 71058.78799999923,
      "d": 147.0587499999965,
      "v": 35
    },
    {
      "midi": 66,
      "hit": false,
      "t": 71058.78799999923,
      "d": 147.0587499999965,
      "v": 42
    },
    {
      "midi": 63,
      "hit": false,
      "t": 71176.43499999923,
      "d": 117.6469999999972,
      "v": 31
    },
    {
      "midi": 75,
      "hit": false,
      "t": 71176.43499999923,
      "d": 117.6469999999972,
      "v": 39
    },
    {
      "midi": 58,
      "hit": false,
      "t": 71294.08199999922,
      "d": 235.2939999999944,
      "v": 39
    },
    {
      "midi": 70,
      "hit": false,
      "t": 71294.08199999922,
      "d": 235.2939999999944,
      "v": 46
    },
    {
      "midi": 53,
      "hit": false,
      "t": 71411.72899999922,
      "d": 147.0587499999965,
      "v": 35
    },
    {
      "midi": 65,
      "hit": false,
      "t": 71411.72899999922,
      "d": 147.0587499999965,
      "v": 42
    },
    {
      "midi": 54,
      "hit": false,
      "t": 71529.37599999922,
      "d": 147.0587499999965,
      "v": 37
    },
    {
      "midi": 66,
      "hit": false,
      "t": 71529.37599999922,
      "d": 147.0587499999965,
      "v": 45
    },
    {
      "midi": 57,
      "hit": false,
      "t": 71647.02299999922,
      "d": 235.2939999999944,
      "v": 39
    },
    {
      "midi": 69,
      "hit": false,
      "t": 71647.02299999922,
      "d": 235.2939999999944,
      "v": 43
    },
    {
      "midi": 52,
      "hit": false,
      "t": 71764.66999999921,
      "d": 147.0587499999965,
      "v": 34
    },
    {
      "midi": 64,
      "hit": false,
      "t": 71764.66999999921,
      "d": 147.0587499999965,
      "v": 41
    },
    {
      "midi": 61,
      "hit": false,
      "t": 71882.31699999921,
      "d": 117.6469999999972,
      "v": 32
    },
    {
      "midi": 73,
      "hit": false,
      "t": 71882.31699999921,
      "d": 117.6469999999972,
      "v": 39
    },
    {
      "midi": 56,
      "hit": false,
      "t": 71999.9639999992,
      "d": 235.2939999999944,
      "v": 43
    },
    {
      "midi": 68,
      "hit": false,
      "t": 71999.9639999992,
      "d": 235.2939999999944,
      "v": 51
    },
    {
      "midi": 51,
      "hit": false,
      "t": 72117.6109999992,
      "d": 147.0587499999965,
      "v": 36
    },
    {
      "midi": 63,
      "hit": false,
      "t": 72117.6109999992,
      "d": 147.0587499999965,
      "v": 44
    },
    {
      "midi": 52,
      "hit": false,
      "t": 72235.2579999992,
      "d": 147.0587499999965,
      "v": 36
    },
    {
      "midi": 64,
      "hit": false,
      "t": 72235.2579999992,
      "d": 147.0587499999965,
      "v": 44
    },
    {
      "midi": 55,
      "hit": false,
      "t": 72352.9049999992,
      "d": 235.2939999999944,
      "v": 37
    },
    {
      "midi": 67,
      "hit": false,
      "t": 72352.9049999992,
      "d": 235.2939999999944,
      "v": 43
    },
    {
      "midi": 50,
      "hit": false,
      "t": 72470.5519999992,
      "d": 147.0587499999965,
      "v": 34
    },
    {
      "midi": 62,
      "hit": false,
      "t": 72470.5519999992,
      "d": 147.0587499999965,
      "v": 41
    },
    {
      "midi": 59,
      "hit": false,
      "t": 72588.1989999992,
      "d": 117.6469999999972,
      "v": 31
    },
    {
      "midi": 71,
      "hit": false,
      "t": 72588.1989999992,
      "d": 117.6469999999972,
      "v": 41
    },
    {
      "midi": 54,
      "hit": false,
      "t": 72705.84599999919,
      "d": 235.2939999999944,
      "v": 39
    },
    {
      "midi": 66,
      "hit": false,
      "t": 72705.84599999919,
      "d": 235.2939999999944,
      "v": 47
    },
    {
      "midi": 49,
      "hit": false,
      "t": 72823.49299999919,
      "d": 147.0587499999965,
      "v": 34
    },
    {
      "midi": 61,
      "hit": false,
      "t": 72823.49299999919,
      "d": 147.0587499999965,
      "v": 40
    },
    {
      "midi": 50,
      "hit": false,
      "t": 72941.13999999918,
      "d": 147.0587499999965,
      "v": 34
    },
    {
      "midi": 62,
      "hit": false,
      "t": 72941.13999999918,
      "d": 147.0587499999965,
      "v": 40
    },
    {
      "midi": 53,
      "hit": false,
      "t": 73058.78699999918,
      "d": 235.2939999999944,
      "v": 36
    },
    {
      "midi": 65,
      "hit": false,
      "t": 73058.78699999918,
      "d": 235.2939999999944,
      "v": 44
    },
    {
      "midi": 48,
      "hit": false,
      "t": 73176.43399999918,
      "d": 147.0587499999965,
      "v": 32
    },
    {
      "midi": 60,
      "hit": false,
      "t": 73176.43399999918,
      "d": 147.0587499999965,
      "v": 38
    },
    {
      "midi": 57,
      "hit": false,
      "t": 73294.08099999918,
      "d": 117.6469999999972,
      "v": 32
    },
    {
      "midi": 69,
      "hit": false,
      "t": 73294.08099999918,
      "d": 117.6469999999972,
      "v": 40
    },
    {
      "midi": 62,
      "hit": false,
      "t": 73411.72799999917,
      "d": 235.2939999999944,
      "v": 41
    },
    {
      "midi": 74,
      "hit": false,
      "t": 73411.72799999917,
      "d": 235.2939999999944,
      "v": 49
    },
    {
      "midi": 57,
      "hit": false,
      "t": 73529.37499999917,
      "d": 147.0587499999965,
      "v": 35
    },
    {
      "midi": 69,
      "hit": false,
      "t": 73529.37499999917,
      "d": 147.0587499999965,
      "v": 42
    },
    {
      "midi": 58,
      "hit": false,
      "t": 73647.02199999917,
      "d": 147.0587499999965,
      "v": 38
    },
    {
      "midi": 70,
      "hit": false,
      "t": 73647.02199999917,
      "d": 147.0587499999965,
      "v": 45
    },
    {
      "midi": 61,
      "hit": false,
      "t": 73764.66899999916,
      "d": 235.2939999999944,
      "v": 41
    },
    {
      "midi": 73,
      "hit": false,
      "t": 73764.66899999916,
      "d": 235.2939999999944,
      "v": 48
    },
    {
      "midi": 56,
      "hit": false,
      "t": 73882.31599999916,
      "d": 147.0587499999965,
      "v": 35
    },
    {
      "midi": 68,
      "hit": false,
      "t": 73882.31599999916,
      "d": 147.0587499999965,
      "v": 42
    },
    {
      "midi": 65,
      "hit": false,
      "t": 73999.96299999916,
      "d": 117.6469999999972,
      "v": 30
    },
    {
      "midi": 77,
      "hit": false,
      "t": 73999.96299999916,
      "d": 117.6469999999972,
      "v": 39
    },
    {
      "midi": 60,
      "hit": false,
      "t": 74117.60999999916,
      "d": 235.2939999999944,
      "v": 40
    },
    {
      "midi": 72,
      "hit": false,
      "t": 74117.60999999916,
      "d": 235.2939999999944,
      "v": 47
    },
    {
      "midi": 55,
      "hit": false,
      "t": 74235.25699999915,
      "d": 147.0587499999965,
      "v": 35
    },
    {
      "midi": 67,
      "hit": false,
      "t": 74235.25699999915,
      "d": 147.0587499999965,
      "v": 42
    },
    {
      "midi": 56,
      "hit": false,
      "t": 74352.90399999915,
      "d": 147.0587499999965,
      "v": 35
    },
    {
      "midi": 68,
      "hit": false,
      "t": 74352.90399999915,
      "d": 147.0587499999965,
      "v": 42
    },
    {
      "midi": 59,
      "hit": false,
      "t": 74470.55099999915,
      "d": 235.2939999999944,
      "v": 36
    },
    {
      "midi": 71,
      "hit": false,
      "t": 74470.55099999915,
      "d": 235.2939999999944,
      "v": 44
    },
    {
      "midi": 54,
      "hit": false,
      "t": 74588.19799999915,
      "d": 147.0587499999965,
      "v": 35
    },
    {
      "midi": 66,
      "hit": false,
      "t": 74588.19799999915,
      "d": 147.0587499999965,
      "v": 43
    },
    {
      "midi": 63,
      "hit": false,
      "t": 74705.84499999914,
      "d": 117.6469999999972,
      "v": 32
    },
    {
      "midi": 75,
      "hit": false,
      "t": 74705.84499999914,
      "d": 117.6469999999972,
      "v": 39
    },
    {
      "midi": 58,
      "hit": false,
      "t": 74823.49199999914,
      "d": 235.2939999999944,
      "v": 39
    },
    {
      "midi": 70,
      "hit": false,
      "t": 74823.49199999914,
      "d": 235.2939999999944,
      "v": 47
    },
    {
      "midi": 53,
      "hit": false,
      "t": 74941.13899999914,
      "d": 147.0587499999965,
      "v": 33
    },
    {
      "midi": 65,
      "hit": false,
      "t": 74941.13899999914,
      "d": 147.0587499999965,
      "v": 39
    },
    {
      "midi": 54,
      "hit": false,
      "t": 75058.78599999913,
      "d": 147.0587499999965,
      "v": 34
    },
    {
      "midi": 66,
      "hit": false,
      "t": 75058.78599999913,
      "d": 147.0587499999965,
      "v": 41
    },
    {
      "midi": 57,
      "hit": false,
      "t": 75176.43299999913,
      "d": 235.2939999999944,
      "v": 35
    },
    {
      "midi": 69,
      "hit": false,
      "t": 75176.43299999913,
      "d": 235.2939999999944,
      "v": 41
    },
    {
      "midi": 52,
      "hit": false,
      "t": 75294.07999999913,
      "d": 147.0587499999965,
      "v": 32
    },
    {
      "midi": 64,
      "hit": false,
      "t": 75294.07999999913,
      "d": 147.0587499999965,
      "v": 39
    },
    {
      "midi": 61,
      "hit": false,
      "t": 75411.72699999913,
      "d": 117.6469999999972,
      "v": 32
    },
    {
      "midi": 73,
      "hit": false,
      "t": 75411.72699999913,
      "d": 117.6469999999972,
      "v": 39
    },
    {
      "midi": 56,
      "hit": false,
      "t": 75529.37399999912,
      "d": 235.2939999999944,
      "v": 37
    },
    {
      "midi": 68,
      "hit": false,
      "t": 75529.37399999912,
      "d": 235.2939999999944,
      "v": 44
    },
    {
      "midi": 51,
      "hit": false,
      "t": 75647.02099999912,
      "d": 147.0587499999965,
      "v": 33
    },
    {
      "midi": 63,
      "hit": false,
      "t": 75647.02099999912,
      "d": 147.0587499999965,
      "v": 39
    },
    {
      "midi": 52,
      "hit": false,
      "t": 75764.66799999912,
      "d": 147.0587499999965,
      "v": 34
    },
    {
      "midi": 64,
      "hit": false,
      "t": 75764.66799999912,
      "d": 147.0587499999965,
      "v": 41
    },
    {
      "midi": 55,
      "hit": false,
      "t": 75882.31499999911,
      "d": 235.2939999999944,
      "v": 36
    },
    {
      "midi": 67,
      "hit": false,
      "t": 75882.31499999911,
      "d": 235.2939999999944,
      "v": 42
    },
    {
      "midi": 50,
      "hit": false,
      "t": 75999.96199999911,
      "d": 147.0587499999965,
      "v": 33
    },
    {
      "midi": 62,
      "hit": false,
      "t": 75999.96199999911,
      "d": 147.0587499999965,
      "v": 39
    },
    {
      "midi": 59,
      "hit": false,
      "t": 76117.60899999911,
      "d": 117.6469999999972,
      "v": 35
    },
    {
      "midi": 71,
      "hit": false,
      "t": 76117.60899999911,
      "d": 117.6469999999972,
      "v": 43
    },
    {
      "midi": 64,
      "hit": false,
      "t": 76235.2559999991,
      "d": 235.2939999999944,
      "v": 45
    },
    {
      "midi": 76,
      "hit": false,
      "t": 76235.2559999991,
      "d": 235.2939999999944,
      "v": 53
    },
    {
      "midi": 59,
      "hit": false,
      "t": 76352.9029999991,
      "d": 147.0587499999965,
      "v": 33
    },
    {
      "midi": 71,
      "hit": false,
      "t": 76352.9029999991,
      "d": 147.0587499999965,
      "v": 39
    },
    {
      "midi": 60,
      "hit": false,
      "t": 76470.5499999991,
      "d": 147.0587499999965,
      "v": 38
    },
    {
      "midi": 72,
      "hit": false,
      "t": 76470.5499999991,
      "d": 147.0587499999965,
      "v": 45
    },
    {
      "midi": 63,
      "hit": false,
      "t": 76588.1969999991,
      "d": 235.2939999999944,
      "v": 38
    },
    {
      "midi": 75,
      "hit": false,
      "t": 76588.1969999991,
      "d": 235.2939999999944,
      "v": 45
    },
    {
      "midi": 58,
      "hit": false,
      "t": 76705.8439999991,
      "d": 147.0587499999965,
      "v": 32
    },
    {
      "midi": 70,
      "hit": false,
      "t": 76705.8439999991,
      "d": 147.0587499999965,
      "v": 39
    },
    {
      "midi": 67,
      "hit": false,
      "t": 76823.49099999909,
      "d": 117.6469999999972,
      "v": 36
    },
    {
      "midi": 79,
      "hit": false,
      "t": 76823.49099999909,
      "d": 117.6469999999972,
      "v": 42
    },
    {
      "midi": 62,
      "hit": false,
      "t": 76941.13799999909,
      "d": 235.2939999999944,
      "v": 40
    },
    {
      "midi": 74,
      "hit": false,
      "t": 76941.13799999909,
      "d": 235.2939999999944,
      "v": 51
    },
    {
      "midi": 57,
      "hit": false,
      "t": 77058.78499999909,
      "d": 147.0587499999965,
      "v": 32
    },
    {
      "midi": 69,
      "hit": false,
      "t": 77058.78499999909,
      "d": 147.0587499999965,
      "v": 38
    },
    {
      "midi": 58,
      "hit": false,
      "t": 77176.43199999908,
      "d": 147.0587499999965,
      "v": 35
    },
    {
      "midi": 70,
      "hit": false,
      "t": 77176.43199999908,
      "d": 147.0587499999965,
      "v": 42
    },
    {
      "midi": 61,
      "hit": false,
      "t": 77294.07899999908,
      "d": 235.2939999999944,
      "v": 35
    },
    {
      "midi": 73,
      "hit": false,
      "t": 77294.07899999908,
      "d": 235.2939999999944,
      "v": 43
    },
    {
      "midi": 56,
      "hit": false,
      "t": 77411.72599999908,
      "d": 147.0587499999965,
      "v": 32
    },
    {
      "midi": 68,
      "hit": false,
      "t": 77411.72599999908,
      "d": 147.0587499999965,
      "v": 38
    },
    {
      "midi": 65,
      "hit": false,
      "t": 77529.37299999908,
      "d": 117.6469999999972,
      "v": 32
    },
    {
      "midi": 77,
      "hit": false,
      "t": 77529.37299999908,
      "d": 117.6469999999972,
      "v": 39
    },
    {
      "midi": 60,
      "hit": false,
      "t": 77647.01999999907,
      "d": 235.2939999999944,
      "v": 41
    },
    {
      "midi": 72,
      "hit": false,
      "t": 77647.01999999907,
      "d": 235.2939999999944,
      "v": 49
    },
    {
      "midi": 55,
      "hit": false,
      "t": 77764.66699999907,
      "d": 147.0587499999965,
      "v": 32
    },
    {
      "midi": 67,
      "hit": false,
      "t": 77764.66699999907,
      "d": 147.0587499999965,
      "v": 38
    },
    {
      "midi": 56,
      "hit": false,
      "t": 77882.31399999907,
      "d": 147.0587499999965,
      "v": 33
    },
    {
      "midi": 68,
      "hit": false,
      "t": 77882.31399999907,
      "d": 147.0587499999965,
      "v": 39
    },
    {
      "midi": 59,
      "hit": false,
      "t": 77999.96099999906,
      "d": 235.2939999999944,
      "v": 34
    },
    {
      "midi": 71,
      "hit": false,
      "t": 77999.96099999906,
      "d": 235.2939999999944,
      "v": 39
    },
    {
      "midi": 54,
      "hit": false,
      "t": 78117.60799999906,
      "d": 147.0587499999965,
      "v": 31
    },
    {
      "midi": 66,
      "hit": false,
      "t": 78117.60799999906,
      "d": 147.0587499999965,
      "v": 36
    },
    {
      "midi": 63,
      "hit": false,
      "t": 78235.25499999906,
      "d": 117.6469999999972,
      "v": 31
    },
    {
      "midi": 75,
      "hit": false,
      "t": 78235.25499999906,
      "d": 117.6469999999972,
      "v": 37
    },
    {
      "midi": 58,
      "hit": false,
      "t": 78352.90199999906,
      "d": 235.2939999999944,
      "v": 39
    },
    {
      "midi": 70,
      "hit": false,
      "t": 78352.90199999906,
      "d": 235.2939999999944,
      "v": 47
    },
    {
      "midi": 53,
      "hit": false,
      "t": 78470.54899999905,
      "d": 147.0587499999965,
      "v": 31
    },
    {
      "midi": 65,
      "hit": false,
      "t": 78470.54899999905,
      "d": 147.0587499999965,
      "v": 36
    },
    {
      "midi": 63,
      "hit": false,
      "t": 78588.19599999905,
      "d": 147.0587499999965,
      "v": 33
    },
    {
      "midi": 75,
      "hit": false,
      "t": 78588.19599999905,
      "d": 147.0587499999965,
      "v": 39
    },
    {
      "midi": 58,
      "hit": false,
      "t": 78705.84299999905,
      "d": 235.2939999999944,
      "v": 34
    },
    {
      "midi": 70,
      "hit": false,
      "t": 78705.84299999905,
      "d": 235.2939999999944,
      "v": 41
    },
    {
      "midi": 53,
      "hit": false,
      "t": 78823.48999999904,
      "d": 147.0587499999965,
      "v": 29
    },
    {
      "midi": 65,
      "hit": false,
      "t": 78823.48999999904,
      "d": 147.0587499999965,
      "v": 34
    },
    {
      "midi": 61,
      "hit": false,
      "t": 78941.13699999904,
      "d": 117.6469999999972,
      "v": 32
    },
    {
      "midi": 73,
      "hit": false,
      "t": 78941.13699999904,
      "d": 117.6469999999972,
      "v": 39
    },
    {
      "midi": 54,
      "hit": false,
      "t": 79058.78399999904,
      "d": 147.0587499999965,
      "v": 41
    },
    {
      "midi": 66,
      "hit": false,
      "t": 79058.78399999904,
      "d": 147.0587499999965,
      "v": 49
    },
    {
      "midi": 53,
      "hit": false,
      "t": 79176.43099999904,
      "d": 147.0587499999965,
      "v": 35
    },
    {
      "midi": 65,
      "hit": false,
      "t": 79176.43099999904,
      "d": 147.0587499999965,
      "v": 42
    },
    {
      "midi": 52,
      "hit": false,
      "t": 79294.07799999903,
      "d": 147.0587499999965,
      "v": 33
    },
    {
      "midi": 64,
      "hit": false,
      "t": 79294.07799999903,
      "d": 147.0587499999965,
      "v": 39
    },
    {
      "midi": 51,
      "hit": false,
      "t": 79411.72499999903,
      "d": 147.0587499999965,
      "v": 36
    },
    {
      "midi": 63,
      "hit": false,
      "t": 79411.72499999903,
      "d": 147.0587499999965,
      "v": 43
    },
    {
      "midi": 49,
      "hit": false,
      "t": 79529.37199999903,
      "d": 147.0587499999965,
      "v": 35
    },
    {
      "midi": 61,
      "hit": false,
      "t": 79529.37199999903,
      "d": 147.0587499999965,
      "v": 43
    },
    {
      "midi": 48,
      "hit": false,
      "t": 79647.01899999903,
      "d": 117.6469999999972,
      "v": 35
    },
    {
      "midi": 60,
      "hit": false,
      "t": 79647.01899999903,
      "d": 117.6469999999972,
      "v": 42
    },
    {
      "midi": 54,
      "hit": false,
      "t": 79764.66599999902,
      "d": 147.0587499999965,
      "v": 41
    },
    {
      "midi": 66,
      "hit": false,
      "t": 79764.66599999902,
      "d": 147.0587499999965,
      "v": 49
    },
    {
      "midi": 53,
      "hit": false,
      "t": 79882.31299999902,
      "d": 147.0587499999965,
      "v": 35
    },
    {
      "midi": 65,
      "hit": false,
      "t": 79882.31299999902,
      "d": 147.0587499999965,
      "v": 42
    },
    {
      "midi": 51,
      "hit": false,
      "t": 79999.95999999902,
      "d": 147.0587499999965,
      "v": 35
    },
    {
      "midi": 63,
      "hit": false,
      "t": 79999.95999999902,
      "d": 147.0587499999965,
      "v": 42
    },
    {
      "midi": 49,
      "hit": false,
      "t": 80117.60699999901,
      "d": 147.0587499999965,
      "v": 38
    },
    {
      "midi": 61,
      "hit": false,
      "t": 80117.60699999901,
      "d": 147.0587499999965,
      "v": 45
    },
    {
      "midi": 48,
      "hit": false,
      "t": 80235.25399999901,
      "d": 147.0587499999965,
      "v": 37
    },
    {
      "midi": 60,
      "hit": false,
      "t": 80235.25399999901,
      "d": 147.0587499999965,
      "v": 44
    },
    {
      "midi": 46,
      "hit": false,
      "t": 80352.90099999901,
      "d": 117.6469999999972,
      "v": 35
    },
    {
      "midi": 58,
      "hit": false,
      "t": 80352.90099999901,
      "d": 117.6469999999972,
      "v": 42
    },
    {
      "midi": 54,
      "hit": false,
      "t": 80470.547999999,
      "d": 147.0587499999965,
      "v": 41
    },
    {
      "midi": 66,
      "hit": false,
      "t": 80470.547999999,
      "d": 147.0587499999965,
      "v": 49
    },
    {
      "midi": 53,
      "hit": false,
      "t": 80588.194999999,
      "d": 147.0587499999965,
      "v": 38
    },
    {
      "midi": 65,
      "hit": false,
      "t": 80588.194999999,
      "d": 147.0587499999965,
      "v": 45
    },
    {
      "midi": 51,
      "hit": false,
      "t": 80705.841999999,
      "d": 147.0587499999965,
      "v": 35
    },
    {
      "midi": 63,
      "hit": false,
      "t": 80705.841999999,
      "d": 147.0587499999965,
      "v": 42
    },
    {
      "midi": 49,
      "hit": false,
      "t": 80823.488999999,
      "d": 147.0587499999965,
      "v": 38
    },
    {
      "midi": 61,
      "hit": false,
      "t": 80823.488999999,
      "d": 147.0587499999965,
      "v": 45
    },
    {
      "midi": 48,
      "hit": false,
      "t": 80941.135999999,
      "d": 147.0587499999965,
      "v": 37
    },
    {
      "midi": 60,
      "hit": false,
      "t": 80941.135999999,
      "d": 147.0587499999965,
      "v": 44
    },
    {
      "midi": 47,
      "hit": false,
      "t": 81058.78299999899,
      "d": 117.6469999999972,
      "v": 35
    },
    {
      "midi": 59,
      "hit": false,
      "t": 81058.78299999899,
      "d": 117.6469999999972,
      "v": 42
    },
    {
      "midi": 54,
      "hit": false,
      "t": 81176.42999999899,
      "d": 147.0587499999965,
      "v": 41
    },
    {
      "midi": 66,
      "hit": false,
      "t": 81176.42999999899,
      "d": 147.0587499999965,
      "v": 49
    },
    {
      "midi": 53,
      "hit": false,
      "t": 81294.07699999899,
      "d": 147.0587499999965,
      "v": 38
    },
    {
      "midi": 65,
      "hit": false,
      "t": 81294.07699999899,
      "d": 147.0587499999965,
      "v": 45
    },
    {
      "midi": 51,
      "hit": false,
      "t": 81411.72399999898,
      "d": 147.0587499999965,
      "v": 35
    },
    {
      "midi": 63,
      "hit": false,
      "t": 81411.72399999898,
      "d": 147.0587499999965,
      "v": 42
    },
    {
      "midi": 49,
      "hit": false,
      "t": 81529.37099999898,
      "d": 147.0587499999965,
      "v": 38
    },
    {
      "midi": 61,
      "hit": false,
      "t": 81529.37099999898,
      "d": 147.0587499999965,
      "v": 45
    },
    {
      "midi": 47,
      "hit": false,
      "t": 81647.01799999898,
      "d": 147.0587499999965,
      "v": 37
    },
    {
      "midi": 59,
      "hit": false,
      "t": 81647.01799999898,
      "d": 147.0587499999965,
      "v": 44
    },
    {
      "midi": 46,
      "hit": false,
      "t": 81764.66499999897,
      "d": 117.6469999999972,
      "v": 35
    },
    {
      "midi": 58,
      "hit": false,
      "t": 81764.66499999897,
      "d": 117.6469999999972,
      "v": 42
    },
    {
      "midi": 45,
      "hit": false,
      "t": 81882.31199999897,
      "d": 147.0587499999965,
      "v": 38
    },
    {
      "midi": 57,
      "hit": false,
      "t": 81882.31199999897,
      "d": 147.0587499999965,
      "v": 45
    },
    {
      "midi": 46,
      "hit": false,
      "t": 81999.95899999897,
      "d": 147.0587499999965,
      "v": 36
    },
    {
      "midi": 58,
      "hit": false,
      "t": 81999.95899999897,
      "d": 147.0587499999965,
      "v": 43
    },
    {
      "midi": 48,
      "hit": false,
      "t": 82117.60599999897,
      "d": 147.0587499999965,
      "v": 36
    },
    {
      "midi": 60,
      "hit": false,
      "t": 82117.60599999897,
      "d": 147.0587499999965,
      "v": 43
    },
    {
      "midi": 51,
      "hit": false,
      "t": 82235.25299999896,
      "d": 147.0587499999965,
      "v": 35
    },
    {
      "midi": 63,
      "hit": false,
      "t": 82235.25299999896,
      "d": 147.0587499999965,
      "v": 44
    },
    {
      "midi": 49,
      "hit": false,
      "t": 82352.89999999896,
      "d": 147.0587499999965,
      "v": 34
    },
    {
      "midi": 61,
      "hit": false,
      "t": 82352.89999999896,
      "d": 147.0587499999965,
      "v": 41
    },
    {
      "midi": 45,
      "hit": false,
      "t": 82470.54699999896,
      "d": 117.6469999999972,
      "v": 34
    },
    {
      "midi": 57,
      "hit": false,
      "t": 82470.54699999896,
      "d": 117.6469999999972,
      "v": 40
    },
    {
      "midi": 48,
      "hit": false,
      "t": 82588.19399999896,
      "d": 147.0587499999965,
      "v": 38
    },
    {
      "midi": 60,
      "hit": false,
      "t": 82588.19399999896,
      "d": 147.0587499999965,
      "v": 45
    },
    {
      "midi": 46,
      "hit": false,
      "t": 82705.84099999895,
      "d": 147.0587499999965,
      "v": 34
    },
    {
      "midi": 58,
      "hit": false,
      "t": 82705.84099999895,
      "d": 147.0587499999965,
      "v": 40
    },
    {
      "midi": 41,
      "hit": false,
      "t": 82823.48799999895,
      "d": 147.0587499999965,
      "v": 34
    },
    {
      "midi": 53,
      "hit": false,
      "t": 82823.48799999895,
      "d": 147.0587499999965,
      "v": 40
    },
    {
      "midi": 44,
      "hit": false,
      "t": 82941.13499999895,
      "d": 147.0587499999965,
      "v": 34
    },
    {
      "midi": 56,
      "hit": false,
      "t": 82941.13499999895,
      "d": 147.0587499999965,
      "v": 41
    },
    {
      "midi": 42,
      "hit": false,
      "t": 83058.78199999894,
      "d": 147.0587499999965,
      "v": 34
    },
    {
      "midi": 54,
      "hit": false,
      "t": 83058.78199999894,
      "d": 147.0587499999965,
      "v": 40
    },
    {
      "midi": 41,
      "hit": false,
      "t": 83176.42899999894,
      "d": 117.6469999999972,
      "v": 34
    },
    {
      "midi": 53,
      "hit": false,
      "t": 83176.42899999894,
      "d": 117.6469999999972,
      "v": 40
    },
    {
      "midi": 39,
      "hit": false,
      "t": 83294.07599999894,
      "d": 147.0587499999965,
      "v": 38
    },
    {
      "midi": 51,
      "hit": false,
      "t": 83294.07599999894,
      "d": 147.0587499999965,
      "v": 45
    },
    {
      "midi": 41,
      "hit": false,
      "t": 83411.72299999894,
      "d": 147.0587499999965,
      "v": 36
    },
    {
      "midi": 53,
      "hit": false,
      "t": 83411.72299999894,
      "d": 147.0587499999965,
      "v": 43
    },
    {
      "midi": 42,
      "hit": false,
      "t": 83529.36999999893,
      "d": 147.0587499999965,
      "v": 36
    },
    {
      "midi": 54,
      "hit": false,
      "t": 83529.36999999893,
      "d": 147.0587499999965,
      "v": 43
    },
    {
      "midi": 46,
      "hit": false,
      "t": 83647.01699999893,
      "d": 147.0587499999965,
      "v": 36
    },
    {
      "midi": 58,
      "hit": false,
      "t": 83647.01699999893,
      "d": 147.0587499999965,
      "v": 44
    },
    {
      "midi": 44,
      "hit": false,
      "t": 83764.66399999893,
      "d": 147.0587499999965,
      "v": 34
    },
    {
      "midi": 56,
      "hit": false,
      "t": 83764.66399999893,
      "d": 147.0587499999965,
      "v": 41
    },
    {
      "midi": 42,
      "hit": false,
      "t": 83882.31099999892,
      "d": 117.6469999999972,
      "v": 34
    },
    {
      "midi": 54,
      "hit": false,
      "t": 83882.31099999892,
      "d": 117.6469999999972,
      "v": 40
    },
    {
      "midi": 41,
      "hit": false,
      "t": 83999.95799999892,
      "d": 147.0587499999965,
      "v": 37
    },
    {
      "midi": 53,
      "hit": false,
      "t": 83999.95799999892,
      "d": 147.0587499999965,
      "v": 44
    },
    {
      "midi": 37,
      "hit": false,
      "t": 84117.60499999892,
      "d": 147.0587499999965,
      "v": 34
    },
    {
      "midi": 49,
      "hit": false,
      "t": 84117.60499999892,
      "d": 147.0587499999965,
      "v": 40
    },
    {
      "midi": 39,
      "hit": false,
      "t": 84235.25199999892,
      "d": 147.0587499999965,
      "v": 34
    },
    {
      "midi": 51,
      "hit": false,
      "t": 84235.25199999892,
      "d": 147.0587499999965,
      "v": 40
    },
    {
      "midi": 41,
      "hit": false,
      "t": 84352.89899999891,
      "d": 147.0587499999965,
      "v": 36
    },
    {
      "midi": 53,
      "hit": false,
      "t": 84352.89899999891,
      "d": 147.0587499999965,
      "v": 43
    },
    {
      "midi": 40,
      "hit": false,
      "t": 84470.54599999891,
      "d": 147.0587499999965,
      "v": 34
    },
    {
      "midi": 52,
      "hit": false,
      "t": 84470.54599999891,
      "d": 147.0587499999965,
      "v": 40
    },
    {
      "midi": 41,
      "hit": false,
      "t": 84588.19299999891,
      "d": 117.6469999999972,
      "v": 34
    },
    {
      "midi": 53,
      "hit": false,
      "t": 84588.19299999891,
      "d": 117.6469999999972,
      "v": 40
    },
    {
      "midi": 42,
      "hit": false,
      "t": 84705.8399999989,
      "d": 147.0587499999965,
      "v": 37
    },
    {
      "midi": 54,
      "hit": false,
      "t": 84705.8399999989,
      "d": 147.0587499999965,
      "v": 44
    },
    {
      "midi": 41,
      "hit": false,
      "t": 84823.4869999989,
      "d": 147.0587499999965,
      "v": 33
    },
    {
      "midi": 53,
      "hit": false,
      "t": 84823.4869999989,
      "d": 147.0587499999965,
      "v": 39
    },
    {
      "midi": 40,
      "hit": false,
      "t": 84941.1339999989,
      "d": 147.0587499999965,
      "v": 33
    },
    {
      "midi": 52,
      "hit": false,
      "t": 84941.1339999989,
      "d": 147.0587499999965,
      "v": 39
    },
    {
      "midi": 39,
      "hit": false,
      "t": 85058.7809999989,
      "d": 147.0587499999965,
      "v": 33
    },
    {
      "midi": 51,
      "hit": false,
      "t": 85058.7809999989,
      "d": 147.0587499999965,
      "v": 39
    },
    {
      "midi": 37,
      "hit": false,
      "t": 85176.4279999989,
      "d": 147.0587499999965,
      "v": 30
    },
    {
      "midi": 49,
      "hit": false,
      "t": 85176.4279999989,
      "d": 147.0587499999965,
      "v": 36
    },
    {
      "midi": 36,
      "hit": false,
      "t": 85294.07499999889,
      "d": 117.6469999999972,
      "v": 31
    },
    {
      "midi": 48,
      "hit": false,
      "t": 85294.07499999889,
      "d": 117.6469999999972,
      "v": 37
    },
    {
      "midi": 42,
      "hit": false,
      "t": 85411.72199999889,
      "d": 147.0587499999965,
      "v": 37
    },
    {
      "midi": 54,
      "hit": false,
      "t": 85411.72199999889,
      "d": 147.0587499999965,
      "v": 44
    },
    {
      "midi": 41,
      "hit": false,
      "t": 85529.36899999889,
      "d": 147.0587499999965,
      "v": 33
    },
    {
      "midi": 53,
      "hit": false,
      "t": 85529.36899999889,
      "d": 147.0587499999965,
      "v": 39
    },
    {
      "midi": 39,
      "hit": false,
      "t": 85647.01599999888,
      "d": 147.0587499999965,
      "v": 33
    },
    {
      "midi": 51,
      "hit": false,
      "t": 85647.01599999888,
      "d": 147.0587499999965,
      "v": 39
    },
    {
      "midi": 37,
      "hit": false,
      "t": 85764.66299999888,
      "d": 147.0587499999965,
      "v": 33
    },
    {
      "midi": 49,
      "hit": false,
      "t": 85764.66299999888,
      "d": 147.0587499999965,
      "v": 39
    },
    {
      "midi": 36,
      "hit": false,
      "t": 85882.30999999888,
      "d": 147.0587499999965,
      "v": 30
    },
    {
      "midi": 48,
      "hit": false,
      "t": 85882.30999999888,
      "d": 147.0587499999965,
      "v": 36
    },
    {
      "midi": 34,
      "hit": false,
      "t": 85999.95699999887,
      "d": 117.6469999999972,
      "v": 31
    },
    {
      "midi": 46,
      "hit": false,
      "t": 85999.95699999887,
      "d": 117.6469999999972,
      "v": 37
    },
    {
      "midi": 42,
      "hit": false,
      "t": 86117.60399999887,
      "d": 147.0587499999965,
      "v": 37
    },
    {
      "midi": 54,
      "hit": false,
      "t": 86117.60399999887,
      "d": 147.0587499999965,
      "v": 44
    },
    {
      "midi": 41,
      "hit": false,
      "t": 86235.25099999887,
      "d": 147.0587499999965,
      "v": 33
    },
    {
      "midi": 53,
      "hit": false,
      "t": 86235.25099999887,
      "d": 147.0587499999965,
      "v": 39
    },
    {
      "midi": 39,
      "hit": false,
      "t": 86352.89799999887,
      "d": 147.0587499999965,
      "v": 33
    },
    {
      "midi": 51,
      "hit": false,
      "t": 86352.89799999887,
      "d": 147.0587499999965,
      "v": 39
    },
    {
      "midi": 37,
      "hit": false,
      "t": 86470.54499999886,
      "d": 147.0587499999965,
      "v": 33
    },
    {
      "midi": 49,
      "hit": false,
      "t": 86470.54499999886,
      "d": 147.0587499999965,
      "v": 39
    },
    {
      "midi": 36,
      "hit": false,
      "t": 86588.19199999886,
      "d": 147.0587499999965,
      "v": 30
    },
    {
      "midi": 48,
      "hit": false,
      "t": 86588.19199999886,
      "d": 147.0587499999965,
      "v": 36
    },
    {
      "midi": 35,
      "hit": false,
      "t": 86705.83899999886,
      "d": 117.6469999999972,
      "v": 31
    },
    {
      "midi": 47,
      "hit": false,
      "t": 86705.83899999886,
      "d": 117.6469999999972,
      "v": 37
    },
    {
      "midi": 42,
      "hit": false,
      "t": 86823.48599999885,
      "d": 147.0587499999965,
      "v": 37
    },
    {
      "midi": 54,
      "hit": false,
      "t": 86823.48599999885,
      "d": 147.0587499999965,
      "v": 44
    },
    {
      "midi": 41,
      "hit": false,
      "t": 86941.13299999885,
      "d": 147.0587499999965,
      "v": 33
    },
    {
      "midi": 53,
      "hit": false,
      "t": 86941.13299999885,
      "d": 147.0587499999965,
      "v": 39
    },
    {
      "midi": 39,
      "hit": false,
      "t": 87058.77999999885,
      "d": 147.0587499999965,
      "v": 33
    },
    {
      "midi": 51,
      "hit": false,
      "t": 87058.77999999885,
      "d": 147.0587499999965,
      "v": 39
    },
    {
      "midi": 37,
      "hit": false,
      "t": 87176.42699999885,
      "d": 147.0587499999965,
      "v": 33
    },
    {
      "midi": 49,
      "hit": false,
      "t": 87176.42699999885,
      "d": 147.0587499999965,
      "v": 39
    },
    {
      "midi": 35,
      "hit": false,
      "t": 87294.07399999884,
      "d": 147.0587499999965,
      "v": 30
    },
    {
      "midi": 47,
      "hit": false,
      "t": 87294.07399999884,
      "d": 147.0587499999965,
      "v": 36
    },
    {
      "midi": 34,
      "hit": false,
      "t": 87411.72099999884,
      "d": 117.6469999999972,
      "v": 31
    },
    {
      "midi": 46,
      "hit": false,
      "t": 87411.72099999884,
      "d": 117.6469999999972,
      "v": 37
    },
    {
      "midi": 33,
      "hit": false,
      "t": 87529.36799999884,
      "d": 147.0587499999965,
      "v": 34
    },
    {
      "midi": 45,
      "hit": false,
      "t": 87529.36799999884,
      "d": 147.0587499999965,
      "v": 41
    },
    {
      "midi": 34,
      "hit": false,
      "t": 87647.01499999884,
      "d": 147.0587499999965,
      "v": 30
    },
    {
      "midi": 46,
      "hit": false,
      "t": 87647.01499999884,
      "d": 147.0587499999965,
      "v": 36
    },
    {
      "midi": 35,
      "hit": false,
      "t": 87764.66199999883,
      "d": 147.0587499999965,
      "v": 31
    },
    {
      "midi": 47,
      "hit": false,
      "t": 87764.66199999883,
      "d": 147.0587499999965,
      "v": 37
    },
    {
      "midi": 37,
      "hit": false,
      "t": 87882.30899999883,
      "d": 147.0587499999965,
      "v": 38
    },
    {
      "midi": 49,
      "hit": false,
      "t": 87882.30899999883,
      "d": 147.0587499999965,
      "v": 45
    },
    {
      "midi": 39,
      "hit": false,
      "t": 87999.95599999883,
      "d": 147.0587499999965,
      "v": 33
    },
    {
      "midi": 51,
      "hit": false,
      "t": 87999.95599999883,
      "d": 147.0587499999965,
      "v": 39
    },
    {
      "midi": 41,
      "hit": false,
      "t": 88117.60299999882,
      "d": 117.6469999999972,
      "v": 34
    },
    {
      "midi": 53,
      "hit": false,
      "t": 88117.60299999882,
      "d": 117.6469999999972,
      "v": 40
    },
    {
      "midi": 42,
      "hit": false,
      "t": 88235.24999999882,
      "d": 147.0587499999965,
      "v": 41
    },
    {
      "midi": 54,
      "hit": false,
      "t": 88235.24999999882,
      "d": 147.0587499999965,
      "v": 49
    },
    {
      "midi": 44,
      "hit": false,
      "t": 88352.89699999882,
      "d": 147.0587499999965,
      "v": 38
    },
    {
      "midi": 56,
      "hit": false,
      "t": 88352.89699999882,
      "d": 147.0587499999965,
      "v": 45
    },
    {
      "midi": 46,
      "hit": false,
      "t": 88470.54399999882,
      "d": 147.0587499999965,
      "v": 39
    },
    {
      "midi": 58,
      "hit": false,
      "t": 88470.54399999882,
      "d": 147.0587499999965,
      "v": 46
    },
    {
      "midi": 47,
      "hit": false,
      "t": 88588.19099999881,
      "d": 147.0587499999965,
      "v": 45
    },
    {
      "midi": 59,
      "hit": false,
      "t": 88588.19099999881,
      "d": 147.0587499999965,
      "v": 54
    },
    {
      "midi": 49,
      "hit": false,
      "t": 88705.83799999881,
      "d": 147.0587499999965,
      "v": 43
    },
    {
      "midi": 61,
      "hit": false,
      "t": 88705.83799999881,
      "d": 147.0587499999965,
      "v": 51
    },
    {
      "midi": 51,
      "hit": false,
      "t": 88823.48499999881,
      "d": 117.6469999999972,
      "v": 43
    },
    {
      "midi": 63,
      "hit": false,
      "t": 88823.48499999881,
      "d": 117.6469999999972,
      "v": 51
    },
    {
      "midi": 53,
      "hit": false,
      "t": 88941.1319999988,
      "d": 147.05875000001106,
      "v": 49
    },
    {
      "midi": 65,
      "hit": false,
      "t": 88941.1319999988,
      "d": 147.05875000001106,
      "v": 58
    },
    {
      "midi": 52,
      "hit": false,
      "t": 89058.77899999882,
      "d": 147.0587499999965,
      "v": 45
    },
    {
      "midi": 64,
      "hit": false,
      "t": 89058.77899999882,
      "d": 147.0587499999965,
      "v": 53
    },
    {
      "midi": 49,
      "hit": false,
      "t": 89176.42599999881,
      "d": 147.0587499999965,
      "v": 39
    },
    {
      "midi": 61,
      "hit": false,
      "t": 89176.42599999881,
      "d": 147.0587499999965,
      "v": 46
    },
    {
      "midi": 48,
      "hit": false,
      "t": 89294.07299999881,
      "d": 147.0587499999965,
      "v": 40
    },
    {
      "midi": 60,
      "hit": false,
      "t": 89294.07299999881,
      "d": 147.0587499999965,
      "v": 50
    },
    {
      "midi": 46,
      "hit": false,
      "t": 89411.71999999881,
      "d": 147.0587499999965,
      "v": 41
    },
    {
      "midi": 58,
      "hit": false,
      "t": 89411.71999999881,
      "d": 147.0587499999965,
      "v": 49
    },
    {
      "midi": 42,
      "hit": false,
      "t": 89529.3669999988,
      "d": 117.6469999999972,
      "v": 37
    },
    {
      "midi": 54,
      "hit": false,
      "t": 89529.3669999988,
      "d": 117.6469999999972,
      "v": 44
    },
    {
      "midi": 41,
      "hit": false,
      "t": 89647.0139999988,
      "d": 147.0587499999965,
      "v": 41
    },
    {
      "midi": 53,
      "hit": false,
      "t": 89647.0139999988,
      "d": 147.0587499999965,
      "v": 49
    },
    {
      "midi": 40,
      "hit": false,
      "t": 89764.6609999988,
      "d": 147.0587499999965,
      "v": 36
    },
    {
      "midi": 52,
      "hit": false,
      "t": 89764.6609999988,
      "d": 147.0587499999965,
      "v": 43
    },
    {
      "midi": 37,
      "hit": false,
      "t": 89882.3079999988,
      "d": 147.0587499999965,
      "v": 33
    },
    {
      "midi": 49,
      "hit": false,
      "t": 89882.3079999988,
      "d": 147.0587499999965,
      "v": 39
    },
    {
      "midi": 36,
      "hit": false,
      "t": 89999.9549999988,
      "d": 147.0587499999965,
      "v": 36
    },
    {
      "midi": 48,
      "hit": false,
      "t": 89999.9549999988,
      "d": 147.0587499999965,
      "v": 43
    },
    {
      "midi": 34,
      "hit": false,
      "t": 90117.60199999879,
      "d": 147.0587499999965,
      "v": 30
    },
    {
      "midi": 46,
      "hit": false,
      "t": 90117.60199999879,
      "d": 147.0587499999965,
      "v": 36
    },
    {
      "midi": 30,
      "hit": false,
      "t": 90235.24899999879,
      "d": 117.6469999999972,
      "v": 30
    },
    {
      "midi": 42,
      "hit": false,
      "t": 90235.24899999879,
      "d": 117.6469999999972,
      "v": 34
    },
    {
      "midi": 29,
      "hit": false,
      "t": 90352.89599999879,
      "d": 235.2939999999944,
      "v": 33
    },
    {
      "midi": 41,
      "hit": false,
      "t": 90352.89599999879,
      "d": 235.2939999999944,
      "v": 39
    },
    {
      "midi": 34,
      "hit": false,
      "t": 90470.54299999878,
      "d": 147.0587499999965,
      "v": 28
    },
    {
      "midi": 46,
      "hit": false,
      "t": 90470.54299999878,
      "d": 147.0587499999965,
      "v": 33
    },
    {
      "midi": 32,
      "hit": false,
      "t": 90588.18999999878,
      "d": 147.0587499999965,
      "v": 28
    },
    {
      "midi": 44,
      "hit": false,
      "t": 90588.18999999878,
      "d": 147.0587499999965,
      "v": 33
    },
    {
      "midi": 33,
      "hit": false,
      "t": 90705.83699999878,
      "d": 235.2939999999944,
      "v": 29
    },
    {
      "midi": 45,
      "hit": false,
      "t": 90705.83699999878,
      "d": 235.2939999999944,
      "v": 36
    },
    {
      "midi": 37,
      "hit": false,
      "t": 90823.48399999877,
      "d": 147.0587499999965,
      "v": 28
    },
    {
      "midi": 49,
      "hit": false,
      "t": 90823.48399999877,
      "d": 147.0587499999965,
      "v": 34
    },
    {
      "midi": 33,
      "hit": false,
      "t": 90941.13099999877,
      "d": 117.6469999999972,
      "v": 28
    },
    {
      "midi": 45,
      "hit": false,
      "t": 90941.13099999877,
      "d": 117.6469999999972,
      "v": 34
    },
    {
      "midi": 34,
      "hit": false,
      "t": 91058.77799999877,
      "d": 235.2939999999944,
      "v": 34
    },
    {
      "midi": 46,
      "hit": false,
      "t": 91058.77799999877,
      "d": 235.2939999999944,
      "v": 41
    },
    {
      "midi": 39,
      "hit": false,
      "t": 91176.42499999877,
      "d": 147.0587499999965,
      "v": 31
    },
    {
      "midi": 51,
      "hit": false,
      "t": 91176.42499999877,
      "d": 147.0587499999965,
      "v": 37
    },
    {
      "midi": 35,
      "hit": false,
      "t": 91294.07199999876,
      "d": 147.0587499999965,
      "v": 31
    },
    {
      "midi": 47,
      "hit": false,
      "t": 91294.07199999876,
      "d": 147.0587499999965,
      "v": 37
    },
    {
      "midi": 36,
      "hit": false,
      "t": 91411.71899999876,
      "d": 235.2939999999944,
      "v": 36
    },
    {
      "midi": 48,
      "hit": false,
      "t": 91411.71899999876,
      "d": 235.2939999999944,
      "v": 39
    },
    {
      "midi": 41,
      "hit": false,
      "t": 91529.36599999876,
      "d": 147.0587499999965,
      "v": 33
    },
    {
      "midi": 53,
      "hit": false,
      "t": 91529.36599999876,
      "d": 147.0587499999965,
      "v": 39
    },
    {
      "midi": 36,
      "hit": false,
      "t": 91647.01299999875,
      "d": 117.6469999999972,
      "v": 33
    },
    {
      "midi": 48,
      "hit": false,
      "t": 91647.01299999875,
      "d": 117.6469999999972,
      "v": 39
    },
    {
      "midi": 37,
      "hit": false,
      "t": 91764.65999999875,
      "d": 235.2939999999944,
      "v": 36
    },
    {
      "midi": 49,
      "hit": false,
      "t": 91764.65999999875,
      "d": 235.2939999999944,
      "v": 43
    },
    {
      "midi": 42,
      "hit": false,
      "t": 91882.30699999875,
      "d": 147.0587499999965,
      "v": 33
    },
    {
      "midi": 54,
      "hit": false,
      "t": 91882.30699999875,
      "d": 147.0587499999965,
      "v": 39
    },
    {
      "midi": 38,
      "hit": false,
      "t": 91999.95399999875,
      "d": 147.0587499999965,
      "v": 33
    },
    {
      "midi": 50,
      "hit": false,
      "t": 91999.95399999875,
      "d": 147.0587499999965,
      "v": 39
    },
    {
      "midi": 39,
      "hit": false,
      "t": 92117.60099999874,
      "d": 235.2939999999944,
      "v": 34
    },
    {
      "midi": 51,
      "hit": false,
      "t": 92117.60099999874,
      "d": 235.2939999999944,
      "v": 41
    },
    {
      "midi": 45,
      "hit": false,
      "t": 92235.24799999874,
      "d": 147.0587499999965,
      "v": 33
    },
    {
      "midi": 57,
      "hit": false,
      "t": 92235.24799999874,
      "d": 147.0587499999965,
      "v": 39
    },
    {
      "midi": 41,
      "hit": false,
      "t": 92352.89499999874,
      "d": 117.6469999999972,
      "v": 33
    },
    {
      "midi": 53,
      "hit": false,
      "t": 92352.89499999874,
      "d": 117.6469999999972,
      "v": 39
    },
    {
      "midi": 42,
      "hit": false,
      "t": 92470.54199999874,
      "d": 235.2939999999944,
      "v": 34
    },
    {
      "midi": 54,
      "hit": false,
      "t": 92470.54199999874,
      "d": 235.2939999999944,
      "v": 46
    },
    {
      "midi": 49,
      "hit": false,
      "t": 92588.18899999873,
      "d": 147.0587499999965,
      "v": 34
    },
    {
      "midi": 61,
      "hit": false,
      "t": 92588.18899999873,
      "d": 147.0587499999965,
      "v": 40
    },
    {
      "midi": 45,
      "hit": false,
      "t": 92705.83599999873,
      "d": 147.0587499999965,
      "v": 33
    },
    {
      "midi": 57,
      "hit": false,
      "t": 92705.83599999873,
      "d": 147.0587499999965,
      "v": 39
    },
    {
      "midi": 48,
      "hit": false,
      "t": 92823.48299999873,
      "d": 235.2939999999944,
      "v": 34
    },
    {
      "midi": 60,
      "hit": false,
      "t": 92823.48299999873,
      "d": 235.2939999999944,
      "v": 40
    },
    {
      "midi": 54,
      "hit": false,
      "t": 92941.12999999872,
      "d": 147.0587499999965,
      "v": 35
    },
    {
      "midi": 66,
      "hit": false,
      "t": 92941.12999999872,
      "d": 147.0587499999965,
      "v": 42
    },
    {
      "midi": 53,
      "hit": false,
      "t": 93058.77699999872,
      "d": 117.6469999999972,
      "v": 34
    },
    {
      "midi": 65,
      "hit": false,
      "t": 93058.77699999872,
      "d": 117.6469999999972,
      "v": 40
    },
    {
      "midi": 45,
      "hit": false,
      "t": 93176.42399999872,
      "d": 235.2939999999944,
      "v": 38
    },
    {
      "midi": 57,
      "hit": false,
      "t": 93176.42399999872,
      "d": 235.2939999999944,
      "v": 45
    },
    {
      "midi": 49,
      "hit": false,
      "t": 93294.07099999872,
      "d": 147.0587499999965,
      "v": 33
    },
    {
      "midi": 61,
      "hit": false,
      "t": 93294.07099999872,
      "d": 147.0587499999965,
      "v": 39
    },
    {
      "midi": 45,
      "hit": false,
      "t": 93411.71799999871,
      "d": 147.0587499999965,
      "v": 34
    },
    {
      "midi": 57,
      "hit": false,
      "t": 93411.71799999871,
      "d": 147.0587499999965,
      "v": 41
    },
    {
      "midi": 48,
      "hit": false,
      "t": 93529.36499999871,
      "d": 235.2939999999944,
      "v": 36
    },
    {
      "midi": 60,
      "hit": false,
      "t": 93529.36499999871,
      "d": 235.2939999999944,
      "v": 42
    },
    {
      "midi": 54,
      "hit": false,
      "t": 93647.01199999871,
      "d": 147.0587499999965,
      "v": 36
    },
    {
      "midi": 66,
      "hit": false,
      "t": 93647.01199999871,
      "d": 147.0587499999965,
      "v": 43
    },
    {
      "midi": 53,
      "hit": false,
      "t": 93764.6589999987,
      "d": 117.6469999999972,
      "v": 36
    },
    {
      "midi": 65,
      "hit": false,
      "t": 93764.6589999987,
      "d": 117.6469999999972,
      "v": 43
    },
    {
      "midi": 45,
      "hit": false,
      "t": 93882.3059999987,
      "d": 235.2939999999944,
      "v": 38
    },
    {
      "midi": 57,
      "hit": false,
      "t": 93882.3059999987,
      "d": 235.2939999999944,
      "v": 45
    },
    {
      "midi": 49,
      "hit": false,
      "t": 93999.9529999987,
      "d": 147.0587499999965,
      "v": 33
    },
    {
      "midi": 61,
      "hit": false,
      "t": 93999.9529999987,
      "d": 147.0587499999965,
      "v": 39
    },
    {
      "midi": 45,
      "hit": false,
      "t": 94117.5999999987,
      "d": 147.0587499999965,
      "v": 34
    },
    {
      "midi": 57,
      "hit": false,
      "t": 94117.5999999987,
      "d": 147.0587499999965,
      "v": 41
    },
    {
      "midi": 48,
      "hit": false,
      "t": 94235.2469999987,
      "d": 235.2939999999944,
      "v": 34
    },
    {
      "midi": 60,
      "hit": false,
      "t": 94235.2469999987,
      "d": 235.2939999999944,
      "v": 43
    },
    {
      "midi": 54,
      "hit": false,
      "t": 94352.89399999869,
      "d": 147.0587499999965,
      "v": 36
    },
    {
      "midi": 66,
      "hit": false,
      "t": 94352.89399999869,
      "d": 147.0587499999965,
      "v": 43
    },
    {
      "midi": 53,
      "hit": false,
      "t": 94470.54099999869,
      "d": 117.6469999999972,
      "v": 36
    },
    {
      "midi": 65,
      "hit": false,
      "t": 94470.54099999869,
      "d": 117.6469999999972,
      "v": 43
    },
    {
      "midi": 48,
      "hit": false,
      "t": 94588.18799999868,
      "d": 235.2939999999944,
      "v": 39
    },
    {
      "midi": 60,
      "hit": false,
      "t": 94588.18799999868,
      "d": 235.2939999999944,
      "v": 47
    },
    {
      "midi": 54,
      "hit": false,
      "t": 94705.83499999868,
      "d": 147.0587499999965,
      "v": 36
    },
    {
      "midi": 66,
      "hit": false,
      "t": 94705.83499999868,
      "d": 147.0587499999965,
      "v": 43
    },
    {
      "midi": 53,
      "hit": false,
      "t": 94823.48199999868,
      "d": 147.0587499999965,
      "v": 34
    },
    {
      "midi": 65,
      "hit": false,
      "t": 94823.48199999868,
      "d": 147.0587499999965,
      "v": 40
    },
    {
      "midi": 48,
      "hit": false,
      "t": 94941.12899999868,
      "d": 235.2939999999944,
      "v": 34
    },
    {
      "midi": 60,
      "hit": false,
      "t": 94941.12899999868,
      "d": 235.2939999999944,
      "v": 41
    },
    {
      "midi": 54,
      "hit": false,
      "t": 95058.77599999867,
      "d": 147.0587499999965,
      "v": 36
    },
    {
      "midi": 66,
      "hit": false,
      "t": 95058.77599999867,
      "d": 147.0587499999965,
      "v": 43
    },
    {
      "midi": 53,
      "hit": false,
      "t": 95176.42299999867,
      "d": 117.6469999999972,
      "v": 34
    },
    {
      "midi": 65,
      "hit": false,
      "t": 95176.42299999867,
      "d": 117.6469999999972,
      "v": 40
    },
    {
      "midi": 48,
      "hit": false,
      "t": 95294.06999999867,
      "d": 235.2939999999944,
      "v": 38
    },
    {
      "midi": 60,
      "hit": false,
      "t": 95294.06999999867,
      "d": 235.2939999999944,
      "v": 45
    },
    {
      "midi": 54,
      "hit": false,
      "t": 95411.71699999867,
      "d": 147.0587499999965,
      "v": 36
    },
    {
      "midi": 66,
      "hit": false,
      "t": 95411.71699999867,
      "d": 147.0587499999965,
      "v": 43
    },
    {
      "midi": 53,
      "hit": false,
      "t": 95529.36399999866,
      "d": 147.0587499999965,
      "v": 34
    },
    {
      "midi": 65,
      "hit": false,
      "t": 95529.36399999866,
      "d": 147.0587499999965,
      "v": 40
    },
    {
      "midi": 46,
      "hit": false,
      "t": 95647.01099999866,
      "d": 235.2939999999944,
      "v": 37
    },
    {
      "midi": 58,
      "hit": false,
      "t": 95647.01099999866,
      "d": 235.2939999999944,
      "v": 44
    },
    {
      "midi": 54,
      "hit": false,
      "t": 95764.65799999866,
      "d": 147.0587499999965,
      "v": 36
    },
    {
      "midi": 66,
      "hit": false,
      "t": 95764.65799999866,
      "d": 147.0587499999965,
      "v": 43
    },
    {
      "midi": 53,
      "hit": false,
      "t": 95882.30499999865,
      "d": 117.6469999999972,
      "v": 36
    },
    {
      "midi": 65,
      "hit": false,
      "t": 95882.30499999865,
      "d": 117.6469999999972,
      "v": 43
    },
    {
      "midi": 49,
      "hit": false,
      "t": 95999.95199999865,
      "d": 235.2939999999944,
      "v": 38
    },
    {
      "midi": 61,
      "hit": false,
      "t": 95999.95199999865,
      "d": 235.2939999999944,
      "v": 45
    },
    {
      "midi": 41,
      "hit": false,
      "t": 96117.59899999865,
      "d": 147.0587499999965,
      "v": 30
    },
    {
      "midi": 53,
      "hit": false,
      "t": 96117.59899999865,
      "d": 147.0587499999965,
      "v": 36
    },
    {
      "midi": 51,
      "hit": false,
      "t": 96235.24599999865,
      "d": 147.0587499999965,
      "v": 33
    },
    {
      "midi": 63,
      "hit": false,
      "t": 96235.24599999865,
      "d": 147.0587499999965,
      "v": 39
    },
    {
      "midi": 53,
      "hit": false,
      "t": 96352.89299999864,
      "d": 147.0587499999965,
      "v": 34
    },
    {
      "midi": 65,
      "hit": false,
      "t": 96352.89299999864,
      "d": 147.0587499999965,
      "v": 39
    },
    {
      "midi": 51,
      "hit": false,
      "t": 96470.53999999864,
      "d": 147.0587499999965,
      "v": 34
    },
    {
      "midi": 63,
      "hit": false,
      "t": 96470.53999999864,
      "d": 147.0587499999965,
      "v": 40
    },
    {
      "midi": 49,
      "hit": false,
      "t": 96588.18699999864,
      "d": 117.6469999999972,
      "v": 34
    },
    {
      "midi": 61,
      "hit": false,
      "t": 96588.18699999864,
      "d": 117.6469999999972,
      "v": 40
    },
    {
      "midi": 46,
      "hit": false,
      "t": 96705.83399999863,
      "d": 147.0587499999965,
      "v": 37
    },
    {
      "midi": 58,
      "hit": false,
      "t": 96705.83399999863,
      "d": 147.0587499999965,
      "v": 44
    },
    {
      "midi": 41,
      "hit": false,
      "t": 96823.48099999863,
      "d": 147.0587499999965,
      "v": 33
    },
    {
      "midi": 53,
      "hit": false,
      "t": 96823.48099999863,
      "d": 147.0587499999965,
      "v": 39
    },
    {
      "midi": 48,
      "hit": false,
      "t": 96941.12799999863,
      "d": 147.0587499999965,
      "v": 33
    },
    {
      "midi": 60,
      "hit": false,
      "t": 96941.12799999863,
      "d": 147.0587499999965,
      "v": 39
    },
    {
      "midi": 49,
      "hit": false,
      "t": 97058.77499999863,
      "d": 147.0587499999965,
      "v": 34
    },
    {
      "midi": 61,
      "hit": false,
      "t": 97058.77499999863,
      "d": 147.0587499999965,
      "v": 40
    },
    {
      "midi": 48,
      "hit": false,
      "t": 97176.42199999862,
      "d": 147.0587499999965,
      "v": 33
    },
    {
      "midi": 60,
      "hit": false,
      "t": 97176.42199999862,
      "d": 147.0587499999965,
      "v": 39
    },
    {
      "midi": 46,
      "hit": false,
      "t": 97294.06899999862,
      "d": 117.6469999999972,
      "v": 34
    },
    {
      "midi": 58,
      "hit": false,
      "t": 97294.06899999862,
      "d": 117.6469999999972,
      "v": 40
    },
    {
      "midi": 49,
      "hit": false,
      "t": 97411.71599999862,
      "d": 147.0587499999965,
      "v": 38
    },
    {
      "midi": 61,
      "hit": false,
      "t": 97411.71599999862,
      "d": 147.0587499999965,
      "v": 45
    },
    {
      "midi": 41,
      "hit": false,
      "t": 97529.36299999862,
      "d": 147.0587499999965,
      "v": 33
    },
    {
      "midi": 53,
      "hit": false,
      "t": 97529.36299999862,
      "d": 147.0587499999965,
      "v": 39
    },
    {
      "midi": 51,
      "hit": false,
      "t": 97647.00999999861,
      "d": 147.0587499999965,
      "v": 33
    },
    {
      "midi": 63,
      "hit": false,
      "t": 97647.00999999861,
      "d": 147.0587499999965,
      "v": 39
    },
    {
      "midi": 53,
      "hit": false,
      "t": 97764.65699999861,
      "d": 147.0587499999965,
      "v": 34
    },
    {
      "midi": 65,
      "hit": false,
      "t": 97764.65699999861,
      "d": 147.0587499999965,
      "v": 41
    },
    {
      "midi": 51,
      "hit": false,
      "t": 97882.3039999986,
      "d": 147.0587499999965,
      "v": 34
    },
    {
      "midi": 63,
      "hit": false,
      "t": 97882.3039999986,
      "d": 147.0587499999965,
      "v": 40
    },
    {
      "midi": 49,
      "hit": false,
      "t": 97999.9509999986,
      "d": 117.6469999999972,
      "v": 34
    },
    {
      "midi": 61,
      "hit": false,
      "t": 97999.9509999986,
      "d": 117.6469999999972,
      "v": 40
    },
    {
      "midi": 46,
      "hit": false,
      "t": 98117.5979999986,
      "d": 147.0587499999965,
      "v": 37
    },
    {
      "midi": 58,
      "hit": false,
      "t": 98117.5979999986,
      "d": 147.0587499999965,
      "v": 44
    },
    {
      "midi": 41,
      "hit": false,
      "t": 98235.2449999986,
      "d": 147.0587499999965,
      "v": 33
    },
    {
      "midi": 53,
      "hit": false,
      "t": 98235.2449999986,
      "d": 147.0587499999965,
      "v": 39
    },
    {
      "midi": 48,
      "hit": false,
      "t": 98352.8919999986,
      "d": 147.0587499999965,
      "v": 33
    },
    {
      "midi": 60,
      "hit": false,
      "t": 98352.8919999986,
      "d": 147.0587499999965,
      "v": 39
    },
    {
      "midi": 49,
      "hit": false,
      "t": 98470.5389999986,
      "d": 147.0587499999965,
      "v": 37
    },
    {
      "midi": 61,
      "hit": false,
      "t": 98470.5389999986,
      "d": 147.0587499999965,
      "v": 40
    },
    {
      "midi": 48,
      "hit": false,
      "t": 98588.18599999859,
      "d": 147.0587499999965,
      "v": 34
    },
    {
      "midi": 60,
      "hit": false,
      "t": 98588.18599999859,
      "d": 147.0587499999965,
      "v": 40
    },
    {
      "midi": 46,
      "hit": false,
      "t": 98705.83299999859,
      "d": 117.6469999999972,
      "v": 34
    },
    {
      "midi": 58,
      "hit": false,
      "t": 98705.83299999859,
      "d": 117.6469999999972,
      "v": 40
    },
    {
      "midi": 39,
      "hit": false,
      "t": 98823.47999999858,
      "d": 147.0587499999965,
      "v": 37
    },
    {
      "midi": 51,
      "hit": false,
      "t": 98823.47999999858,
      "d": 147.0587499999965,
      "v": 44
    },
    {
      "midi": 41,
      "hit": false,
      "t": 98941.12699999858,
      "d": 147.0587499999965,
      "v": 33
    },
    {
      "midi": 53,
      "hit": false,
      "t": 98941.12699999858,
      "d": 147.0587499999965,
      "v": 39
    },
    {
      "midi": 46,
      "hit": false,
      "t": 99058.77399999858,
      "d": 147.0587499999965,
      "v": 28
    },
    {
      "midi": 58,
      "hit": false,
      "t": 99058.77399999858,
      "d": 147.0587499999965,
      "v": 34
    },
    {
      "midi": 49,
      "hit": false,
      "t": 99176.42099999858,
      "d": 117.6469999999972,
      "v": 29
    },
    {
      "midi": 61,
      "hit": false,
      "t": 99176.42099999858,
      "d": 147.0587499999965,
      "v": 37
    },
    {
      "midi": 37,
      "hit": false,
      "t": 99294.06799999857,
      "d": 147.0587499999965,
      "v": 29
    },
    {
      "midi": 49,
      "hit": false,
      "t": 99294.06799999857,
      "d": 147.0587499999965,
      "v": 35
    },
    {
      "midi": 41,
      "hit": false,
      "t": 99411.71499999857,
      "d": 117.6469999999972,
      "v": 29
    },
    {
      "midi": 53,
      "hit": false,
      "t": 99411.71499999857,
      "d": 117.6469999999972,
      "v": 35
    },
    {
      "midi": 39,
      "hit": false,
      "t": 99529.36199999857,
      "d": 147.0587499999965,
      "v": 37
    },
    {
      "midi": 51,
      "hit": false,
      "t": 99529.36199999857,
      "d": 147.0587499999965,
      "v": 44
    },
    {
      "midi": 41,
      "hit": false,
      "t": 99647.00899999856,
      "d": 147.0587499999965,
      "v": 33
    },
    {
      "midi": 53,
      "hit": false,
      "t": 99647.00899999856,
      "d": 147.0587499999965,
      "v": 39
    },
    {
      "midi": 46,
      "hit": false,
      "t": 99764.65599999856,
      "d": 147.0587499999965,
      "v": 28
    },
    {
      "midi": 58,
      "hit": false,
      "t": 99764.65599999856,
      "d": 147.0587499999965,
      "v": 34
    },
    {
      "midi": 49,
      "hit": false,
      "t": 99882.30299999856,
      "d": 117.6469999999972,
      "v": 30
    },
    {
      "midi": 61,
      "hit": false,
      "t": 99882.30299999856,
      "d": 147.0587499999965,
      "v": 36
    },
    {
      "midi": 37,
      "hit": false,
      "t": 99999.94999999856,
      "d": 147.0587499999965,
      "v": 29
    },
    {
      "midi": 49,
      "hit": false,
      "t": 99999.94999999856,
      "d": 147.0587499999965,
      "v": 35
    },
    {
      "midi": 41,
      "hit": false,
      "t": 100117.59699999855,
      "d": 117.6469999999972,
      "v": 29
    },
    {
      "midi": 53,
      "hit": false,
      "t": 100117.59699999855,
      "d": 117.6469999999972,
      "v": 35
    },
    {
      "midi": 36,
      "hit": false,
      "t": 100235.24399999855,
      "d": 147.0587499999965,
      "v": 37
    },
    {
      "midi": 48,
      "hit": false,
      "t": 100235.24399999855,
      "d": 147.0587499999965,
      "v": 44
    },
    {
      "midi": 37,
      "hit": false,
      "t": 100352.89099999855,
      "d": 147.0587499999965,
      "v": 33
    },
    {
      "midi": 49,
      "hit": false,
      "t": 100352.89099999855,
      "d": 147.0587499999965,
      "v": 39
    },
    {
      "midi": 41,
      "hit": false,
      "t": 100470.53799999855,
      "d": 147.0587499999965,
      "v": 28
    },
    {
      "midi": 53,
      "hit": false,
      "t": 100470.53799999855,
      "d": 147.0587499999965,
      "v": 34
    },
    {
      "midi": 46,
      "hit": false,
      "t": 100588.18499999854,
      "d": 117.6469999999972,
      "v": 30
    },
    {
      "midi": 58,
      "hit": false,
      "t": 100588.18499999854,
      "d": 147.0587499999965,
      "v": 36
    },
    {
      "midi": 34,
      "hit": false,
      "t": 100705.83199999854,
      "d": 147.0587499999965,
      "v": 29
    },
    {
      "midi": 46,
      "hit": false,
      "t": 100705.83199999854,
      "d": 147.0587499999965,
      "v": 35
    },
    {
      "midi": 37,
      "hit": false,
      "t": 100823.47899999854,
      "d": 117.6469999999972,
      "v": 29
    },
    {
      "midi": 49,
      "hit": false,
      "t": 100823.47899999854,
      "d": 117.6469999999972,
      "v": 35
    },
    {
      "midi": 36,
      "hit": false,
      "t": 100941.12599999853,
      "d": 147.0587499999965,
      "v": 37
    },
    {
      "midi": 48,
      "hit": false,
      "t": 100941.12599999853,
      "d": 147.0587499999965,
      "v": 44
    },
    {
      "midi": 37,
      "hit": false,
      "t": 101058.77299999853,
      "d": 147.0587499999965,
      "v": 33
    },
    {
      "midi": 49,
      "hit": false,
      "t": 101058.77299999853,
      "d": 147.0587499999965,
      "v": 39
    },
    {
      "midi": 41,
      "hit": false,
      "t": 101176.41999999853,
      "d": 147.0587499999965,
      "v": 28
    },
    {
      "midi": 53,
      "hit": false,
      "t": 101176.41999999853,
      "d": 147.0587499999965,
      "v": 34
    },
    {
      "midi": 46,
      "hit": false,
      "t": 101294.06699999853,
      "d": 117.6469999999972,
      "v": 30
    },
    {
      "midi": 58,
      "hit": false,
      "t": 101294.06699999853,
      "d": 147.0587499999965,
      "v": 36
    },
    {
      "midi": 34,
      "hit": false,
      "t": 101411.71399999852,
      "d": 147.0587499999965,
      "v": 29
    },
    {
      "midi": 46,
      "hit": false,
      "t": 101411.71399999852,
      "d": 147.0587499999965,
      "v": 35
    },
    {
      "midi": 37,
      "hit": false,
      "t": 101529.36099999852,
      "d": 117.6469999999972,
      "v": 29
    },
    {
      "midi": 49,
      "hit": false,
      "t": 101529.36099999852,
      "d": 117.6469999999972,
      "v": 35
    },
    {
      "midi": 36,
      "hit": false,
      "t": 102352.88999999852,
      "d": 147.0587499999965,
      "v": 37
    },
    {
      "midi": 48,
      "hit": false,
      "t": 102352.88999999852,
      "d": 147.0587499999965,
      "v": 44
    },
    {
      "midi": 37,
      "hit": false,
      "t": 102470.53699999851,
      "d": 147.0587499999965,
      "v": 33
    },
    {
      "midi": 49,
      "hit": false,
      "t": 102470.53699999851,
      "d": 147.0587499999965,
      "v": 39
    },
    {
      "midi": 41,
      "hit": false,
      "t": 102588.18399999851,
      "d": 147.0587499999965,
      "v": 28
    },
    {
      "midi": 53,
      "hit": false,
      "t": 102588.18399999851,
      "d": 147.0587499999965,
      "v": 34
    },
    {
      "midi": 46,
      "hit": false,
      "t": 102705.8309999985,
      "d": 117.6469999999972,
      "v": 29
    },
    {
      "midi": 58,
      "hit": false,
      "t": 102705.8309999985,
      "d": 147.0587499999965,
      "v": 35
    },
    {
      "midi": 34,
      "hit": false,
      "t": 102823.4779999985,
      "d": 147.0587499999965,
      "v": 29
    },
    {
      "midi": 46,
      "hit": false,
      "t": 102823.4779999985,
      "d": 147.0587499999965,
      "v": 35
    },
    {
      "midi": 37,
      "hit": false,
      "t": 102941.1249999985,
      "d": 117.6469999999972,
      "v": 29
    },
    {
      "midi": 49,
      "hit": false,
      "t": 102941.1249999985,
      "d": 117.6469999999972,
      "v": 35
    },
    {
      "midi": 36,
      "hit": false,
      "t": 103764.6539999985,
      "d": 147.0587499999965,
      "v": 48
    },
    {
      "midi": 48,
      "hit": false,
      "t": 103764.6539999985,
      "d": 147.0587499999965,
      "v": 57
    },
    {
      "midi": 37,
      "hit": false,
      "t": 103882.3009999985,
      "d": 147.0587499999965,
      "v": 43
    },
    {
      "midi": 49,
      "hit": false,
      "t": 103882.3009999985,
      "d": 147.0587499999965,
      "v": 51
    },
    {
      "midi": 41,
      "hit": false,
      "t": 103999.94799999849,
      "d": 147.0587499999965,
      "v": 39
    },
    {
      "midi": 53,
      "hit": false,
      "t": 103999.94799999849,
      "d": 147.0587499999965,
      "v": 46
    },
    {
      "midi": 46,
      "hit": false,
      "t": 104117.59499999849,
      "d": 117.6469999999972,
      "v": 40
    },
    {
      "midi": 58,
      "hit": false,
      "t": 104117.59499999849,
      "d": 147.0587499999965,
      "v": 47
    },
    {
      "midi": 34,
      "hit": false,
      "t": 104235.24199999848,
      "d": 147.0587499999965,
      "v": 40
    },
    {
      "midi": 46,
      "hit": false,
      "t": 104235.24199999848,
      "d": 147.0587499999965,
      "v": 48
    },
    {
      "midi": 37,
      "hit": false,
      "t": 104352.88899999848,
      "d": 117.6469999999972,
      "v": 41
    },
    {
      "midi": 49,
      "hit": false,
      "t": 104352.88899999848,
      "d": 117.6469999999972,
      "v": 49
    },
    {
      "midi": 34,
      "hit": false,
      "t": 104470.53599999848,
      "d": 352.94100000000617,
      "v": 78
    },
    {
      "midi": 46,
      "hit": false,
      "t": 104470.53599999848,
      "d": 352.94100000000617,
      "v": 100
    },
    {
      "midi": 53,
      "hit": false,
      "t": 105176.41799999849,
      "d": 705.8819999999978,
      "v": 66
    },
    {
      "midi": 58,
      "hit": false,
      "t": 105176.41799999849,
      "d": 705.8819999999978,
      "v": 66
    },
    {
      "midi": 61,
      "hit": false,
      "t": 105176.41799999849,
      "d": 705.8819999999978,
      "v": 66
    },
    {
      "midi": 65,
      "hit": false,
      "t": 105176.41799999849,
      "d": 705.8819999999978,
      "v": 79
    },
    {
      "midi": 82,
      "hit": false,
      "t": 105176.41799999849,
      "d": 705.8819999999978,
      "v": 83
    },
    {
      "midi": 94,
      "hit": false,
      "t": 105176.41799999849,
      "d": 705.8819999999978,
      "v": 99
    }
  ]
}