{
  "jsonPath": "Classical/Classical/Leif Ove Andsnes/piano-sonata-no-3-in-b-minor-op58-iv-finale-presto-non-tanto.json",
  "path": "Classical\\Classical\\Leif Ove Andsnes\\Piano Sonata No 3 in B minor Op58 IV     Finale Presto non tanto.mid",
  "name": "Piano Sonata No 3 in B minor Op58 IV     Finale Presto non tanto",
  "difficulty": "Advanced",
  "bpm": 138.00019320027047,
  "notes": [
    {
      "midi": 54,
      "hit": false,
      "t": 1049.9995625000001,
      "d": 49.99997916666689,
      "v": 83
    },
    {
      "midi": 66,
      "hit": false,
      "t": 1049.9995625000001,
      "d": 74.99996875000033,
      "v": 89
    },
    {
      "midi": 30,
      "hit": false,
      "t": 1053.5709895833336,
      "d": 46.42855208333344,
      "v": 61
    },
    {
      "midi": 42,
      "hit": false,
      "t": 1053.5709895833336,
      "d": 46.42855208333344,
      "v": 70
    },
    {
      "midi": 54,
      "hit": false,
      "t": 1417.8565520833338,
      "d": 35.71427083333333,
      "v": 65
    },
    {
      "midi": 66,
      "hit": false,
      "t": 1417.8565520833338,
      "d": 39.28569791666678,
      "v": 84
    },
    {
      "midi": 42,
      "hit": false,
      "t": 1417.8565520833338,
      "d": 42.857125000000224,
      "v": 57
    },
    {
      "midi": 78,
      "hit": false,
      "t": 1417.8565520833338,
      "d": 64.28568750000022,
      "v": 97
    },
    {
      "midi": 66,
      "hit": false,
      "t": 1764.2849791666674,
      "d": 35.71427083333333,
      "v": 72
    },
    {
      "midi": 54,
      "hit": false,
      "t": 1764.2849791666674,
      "d": 42.857124999999996,
      "v": 68
    },
    {
      "midi": 78,
      "hit": false,
      "t": 1764.2849791666674,
      "d": 46.42855208333344,
      "v": 90
    },
    {
      "midi": 90,
      "hit": false,
      "t": 1764.2849791666674,
      "d": 53.57140625000011,
      "v": 95
    },
    {
      "midi": 30,
      "hit": false,
      "t": 2128.570541666668,
      "d": 53.57140625000011,
      "v": 71
    },
    {
      "midi": 42,
      "hit": false,
      "t": 2128.570541666668,
      "d": 60.714260416667,
      "v": 87
    },
    {
      "midi": 54,
      "hit": false,
      "t": 2128.570541666668,
      "d": 74.99996875000033,
      "v": 88
    },
    {
      "midi": 66,
      "hit": false,
      "t": 2128.570541666668,
      "d": 103.571385416667,
      "v": 89
    },
    {
      "midi": 31,
      "hit": false,
      "t": 2507.141812500002,
      "d": 17.85713541666655,
      "v": 66
    },
    {
      "midi": 54,
      "hit": false,
      "t": 2507.141812500002,
      "d": 42.857124999999996,
      "v": 85
    },
    {
      "midi": 43,
      "hit": false,
      "t": 2507.141812500002,
      "d": 53.57140625000011,
      "v": 84
    },
    {
      "midi": 59,
      "hit": false,
      "t": 2507.141812500002,
      "d": 57.14283333333333,
      "v": 85
    },
    {
      "midi": 66,
      "hit": false,
      "t": 2507.141812500002,
      "d": 92.85710416666689,
      "v": 97
    },
    {
      "midi": 43,
      "hit": false,
      "t": 2867.855947916669,
      "d": 21.428562500000226,
      "v": 68
    },
    {
      "midi": 66,
      "hit": false,
      "t": 2867.855947916669,
      "d": 39.28569791666678,
      "v": 79
    },
    {
      "midi": 71,
      "hit": false,
      "t": 2867.855947916669,
      "d": 39.28569791666678,
      "v": 82
    },
    {
      "midi": 55,
      "hit": false,
      "t": 2867.855947916669,
      "d": 46.42855208333367,
      "v": 73
    },
    {
      "midi": 78,
      "hit": false,
      "t": 2867.855947916669,
      "d": 82.14282291666723,
      "v": 89
    },
    {
      "midi": 90,
      "hit": false,
      "t": 3214.284375000003,
      "d": 64.28568750000113,
      "v": 86
    },
    {
      "midi": 78,
      "hit": false,
      "t": 3217.855802083336,
      "d": 46.428552083334125,
      "v": 85
    },
    {
      "midi": 83,
      "hit": false,
      "t": 3224.998656250003,
      "d": 46.428552083334125,
      "v": 86
    },
    {
      "midi": 67,
      "hit": false,
      "t": 3235.712937500003,
      "d": 21.428562500000226,
      "v": 74
    },
    {
      "midi": 55,
      "hit": false,
      "t": 3246.4272187500032,
      "d": 24.9999895833339,
      "v": 61
    },
    {
      "midi": 66,
      "hit": false,
      "t": 3557.1413750000042,
      "d": 82.14282291666723,
      "v": 87
    },
    {
      "midi": 31,
      "hit": false,
      "t": 3564.284229166671,
      "d": 39.28569791666678,
      "v": 66
    },
    {
      "midi": 43,
      "hit": false,
      "t": 3564.284229166671,
      "d": 42.857124999999996,
      "v": 77
    },
    {
      "midi": 54,
      "hit": false,
      "t": 3564.284229166671,
      "d": 46.428552083333216,
      "v": 78
    },
    {
      "midi": 59,
      "hit": false,
      "t": 3567.8556562500044,
      "d": 49.99997916666689,
      "v": 73
    },
    {
      "midi": 32,
      "hit": false,
      "t": 3892.8555208333382,
      "d": 35.71427083333356,
      "v": 64
    },
    {
      "midi": 44,
      "hit": false,
      "t": 3892.8555208333382,
      "d": 39.28569791666678,
      "v": 83
    },
    {
      "midi": 54,
      "hit": false,
      "t": 3892.8555208333382,
      "d": 39.28569791666678,
      "v": 85
    },
    {
      "midi": 60,
      "hit": false,
      "t": 3892.8555208333382,
      "d": 46.42855208333367,
      "v": 84
    },
    {
      "midi": 66,
      "hit": false,
      "t": 3892.8555208333382,
      "d": 82.14282291666723,
      "v": 90
    },
    {
      "midi": 66,
      "hit": false,
      "t": 4221.426812500005,
      "d": 35.7142708333331,
      "v": 77
    },
    {
      "midi": 78,
      "hit": false,
      "t": 4221.426812500005,
      "d": 71.4285416666662,
      "v": 91
    },
    {
      "midi": 72,
      "hit": false,
      "t": 4228.569666666672,
      "d": 35.7142708333331,
      "v": 86
    },
    {
      "midi": 56,
      "hit": false,
      "t": 4232.141093750005,
      "d": 42.85712499999954,
      "v": 75
    },
    {
      "midi": 44,
      "hit": false,
      "t": 4242.855375000005,
      "d": 17.857135416667006,
      "v": 44
    },
    {
      "midi": 90,
      "hit": false,
      "t": 4546.426677083337,
      "d": 74.99996874999852,
      "v": 95
    },
    {
      "midi": 78,
      "hit": false,
      "t": 4549.998104166671,
      "d": 57.14283333333242,
      "v": 88
    },
    {
      "midi": 85,
      "hit": false,
      "t": 4553.569531250004,
      "d": 74.99996874999852,
      "v": 85
    },
    {
      "midi": 66,
      "hit": false,
      "t": 4560.71238541667,
      "d": 49.99997916666598,
      "v": 62
    },
    {
      "midi": 61,
      "hit": false,
      "t": 4560.71238541667,
      "d": 57.14283333333242,
      "v": 60
    },
    {
      "midi": 69,
      "hit": false,
      "t": 4564.2838125000035,
      "d": 39.28569791666632,
      "v": 74
    },
    {
      "midi": 57,
      "hit": false,
      "t": 4564.2838125000035,
      "d": 60.71426041666564,
      "v": 68
    },
    {
      "midi": 66,
      "hit": false,
      "t": 4874.997968750003,
      "d": 92.85710416666552,
      "v": 85
    },
    {
      "midi": 45,
      "hit": false,
      "t": 4882.140822916669,
      "d": 35.7142708333331,
      "v": 83
    },
    {
      "midi": 54,
      "hit": false,
      "t": 4882.140822916669,
      "d": 46.42855208333276,
      "v": 84
    },
    {
      "midi": 61,
      "hit": false,
      "t": 4882.140822916669,
      "d": 64.28568749999886,
      "v": 78
    },
    {
      "midi": 33,
      "hit": false,
      "t": 4885.712250000002,
      "d": 42.85712499999954,
      "v": 74
    },
    {
      "midi": 34,
      "hit": false,
      "t": 5210.712114583334,
      "d": 42.85712499999954,
      "v": 68
    },
    {
      "midi": 46,
      "hit": false,
      "t": 5210.712114583334,
      "d": 42.85712499999954,
      "v": 85
    },
    {
      "midi": 54,
      "hit": false,
      "t": 5210.712114583334,
      "d": 42.85712499999954,
      "v": 90
    },
    {
      "midi": 66,
      "hit": false,
      "t": 5210.712114583334,
      "d": 74.99996874999943,
      "v": 89
    },
    {
      "midi": 61,
      "hit": false,
      "t": 5214.283541666668,
      "d": 49.99997916666598,
      "v": 79
    },
    {
      "midi": 64,
      "hit": false,
      "t": 5221.426395833334,
      "d": 57.14283333333333,
      "v": 78
    },
    {
      "midi": 78,
      "hit": false,
      "t": 5564.283395833334,
      "d": 82.14282291666495,
      "v": 93
    },
    {
      "midi": 66,
      "hit": false,
      "t": 5567.854822916667,
      "d": 39.28569791666541,
      "v": 79
    },
    {
      "midi": 54,
      "hit": false,
      "t": 5571.42625,
      "d": 39.28569791666541,
      "v": 65
    },
    {
      "midi": 73,
      "hit": false,
      "t": 5571.42625,
      "d": 46.42855208333185,
      "v": 80
    },
    {
      "midi": 61,
      "hit": false,
      "t": 5574.997677083334,
      "d": 46.42855208333185,
      "v": 62
    },
    {
      "midi": 64,
      "hit": false,
      "t": 5578.569104166667,
      "d": 42.85712499999863,
      "v": 75
    },
    {
      "midi": 76,
      "hit": false,
      "t": 5585.711958333333,
      "d": 17.857135416666097,
      "v": 66
    },
    {
      "midi": 64,
      "hit": false,
      "t": 5942.854666666665,
      "d": 96.42853124999965,
      "v": 76
    },
    {
      "midi": 74,
      "hit": false,
      "t": 5942.854666666665,
      "d": 121.4285208333331,
      "v": 79
    },
    {
      "midi": 66,
      "hit": false,
      "t": 5942.854666666665,
      "d": 128.57137499999953,
      "v": 64
    },
    {
      "midi": 86,
      "hit": false,
      "t": 5942.854666666665,
      "d": 132.14280208333275,
      "v": 89
    },
    {
      "midi": 98,
      "hit": false,
      "t": 5942.854666666665,
      "d": 139.2856562499992,
      "v": 110
    },
    {
      "midi": 90,
      "hit": false,
      "t": 5942.854666666665,
      "d": 160.71421874999942,
      "v": 80
    },
    {
      "midi": 97,
      "hit": false,
      "t": 6335.711645833331,
      "d": 164.28564583333355,
      "v": 92
    },
    {
      "midi": 85,
      "hit": false,
      "t": 6339.283072916664,
      "d": 149.99993750000067,
      "v": 84
    },
    {
      "midi": 66,
      "hit": false,
      "t": 6346.425927083331,
      "d": 128.57137500000044,
      "v": 61
    },
    {
      "midi": 73,
      "hit": false,
      "t": 6346.425927083331,
      "d": 128.57137500000044,
      "v": 73
    },
    {
      "midi": 90,
      "hit": false,
      "t": 6346.425927083331,
      "d": 153.5713645833339,
      "v": 78
    },
    {
      "midi": 64,
      "hit": false,
      "t": 6349.997354166664,
      "d": 110.71423958333344,
      "v": 70
    },
    {
      "midi": 59,
      "hit": false,
      "t": 7814.282458333329,
      "d": 110.71423958333344,
      "v": 60
    },
    {
      "midi": 35,
      "hit": false,
      "t": 7824.996739583328,
      "d": 99.99995833333378,
      "v": 48
    },
    {
      "midi": 50,
      "hit": false,
      "t": 7953.568114583329,
      "d": 32.142843749999884,
      "v": 43
    },
    {
      "midi": 54,
      "hit": false,
      "t": 8060.710927083329,
      "d": 78.57139583333355,
      "v": 60
    },
    {
      "midi": 42,
      "hit": false,
      "t": 8078.568062499996,
      "d": 64.28568749999977,
      "v": 39
    },
    {
      "midi": 55,
      "hit": false,
      "t": 8203.568010416662,
      "d": 199.99991666666756,
      "v": 58
    },
    {
      "midi": 40,
      "hit": false,
      "t": 8207.139437499996,
      "d": 199.99991666666756,
      "v": 47
    },
    {
      "midi": 47,
      "hit": false,
      "t": 8317.85367708333,
      "d": 107.14281250000022,
      "v": 37
    },
    {
      "midi": 52,
      "hit": false,
      "t": 8324.996531249997,
      "d": 96.42853124999965,
      "v": 42
    },
    {
      "midi": 58,
      "hit": false,
      "t": 8432.139343749997,
      "d": 99.99995833333378,
      "v": 56
    },
    {
      "midi": 43,
      "hit": false,
      "t": 8457.13933333333,
      "d": 35.71427083333401,
      "v": 36
    },
    {
      "midi": 59,
      "hit": false,
      "t": 8564.282145833333,
      "d": 257.1427500000027,
      "v": 62
    },
    {
      "midi": 35,
      "hit": false,
      "t": 8578.567854166666,
      "d": 103.57138541666791,
      "v": 52
    },
    {
      "midi": 47,
      "hit": false,
      "t": 8692.853520833334,
      "d": 67.8571145833339,
      "v": 44
    },
    {
      "midi": 50,
      "hit": false,
      "t": 8696.424947916668,
      "d": 103.57138541666609,
      "v": 53
    },
    {
      "midi": 54,
      "hit": false,
      "t": 8799.996333333334,
      "d": 110.71423958333617,
      "v": 61
    },
    {
      "midi": 42,
      "hit": false,
      "t": 8810.710614583335,
      "d": 89.28567708333503,
      "v": 40
    },
    {
      "midi": 55,
      "hit": false,
      "t": 8935.710562500004,
      "d": 196.42848958333525,
      "v": 65
    },
    {
      "midi": 40,
      "hit": false,
      "t": 8949.996270833339,
      "d": 117.85709375000079,
      "v": 41
    },
    {
      "midi": 47,
      "hit": false,
      "t": 9057.139083333339,
      "d": 110.71423958333435,
      "v": 37
    },
    {
      "midi": 52,
      "hit": false,
      "t": 9057.139083333339,
      "d": 117.85709375000079,
      "v": 44
    },
    {
      "midi": 58,
      "hit": false,
      "t": 9167.853322916673,
      "d": 110.71423958333253,
      "v": 60
    },
    {
      "midi": 43,
      "hit": false,
      "t": 9178.567604166674,
      "d": 78.57139583333264,
      "v": 38
    },
    {
      "midi": 35,
      "hit": false,
      "t": 9303.567552083341,
      "d": 78.57139583333264,
      "v": 53
    },
    {
      "midi": 59,
      "hit": false,
      "t": 9303.567552083341,
      "d": 117.85709375000079,
      "v": 69
    },
    {
      "midi": 47,
      "hit": false,
      "t": 9428.567500000008,
      "d": 67.8571145833339,
      "v": 34
    },
    {
      "midi": 54,
      "hit": false,
      "t": 9439.281781250009,
      "d": 74.99996875000033,
      "v": 37
    },
    {
      "midi": 50,
      "hit": false,
      "t": 9442.853208333343,
      "d": 39.28569791666632,
      "v": 25
    },
    {
      "midi": 59,
      "hit": false,
      "t": 9539.281739583343,
      "d": 71.4285416666662,
      "v": 70
    },
    {
      "midi": 42,
      "hit": false,
      "t": 9553.567447916676,
      "d": 57.14283333333333,
      "v": 37
    },
    {
      "midi": 61,
      "hit": false,
      "t": 9632.13884375001,
      "d": 60.71426041666746,
      "v": 64
    },
    {
      "midi": 59,
      "hit": false,
      "t": 9667.853114583344,
      "d": 114.28566666666848,
      "v": 67
    },
    {
      "midi": 40,
      "hit": false,
      "t": 9689.281677083343,
      "d": 167.8570729166695,
      "v": 45
    },
    {
      "midi": 58,
      "hit": false,
      "t": 9778.567354166678,
      "d": 96.42853125000147,
      "v": 75
    },
    {
      "midi": 52,
      "hit": false,
      "t": 9789.281635416679,
      "d": 46.42855208333458,
      "v": 54
    },
    {
      "midi": 47,
      "hit": false,
      "t": 9792.853062500013,
      "d": 57.14283333333333,
      "v": 49
    },
    {
      "midi": 59,
      "hit": false,
      "t": 9896.42444791668,
      "d": 78.57139583333446,
      "v": 74
    },
    {
      "midi": 43,
      "hit": false,
      "t": 9910.710156250012,
      "d": 35.71427083333401,
      "v": 49
    },
    {
      "midi": 62,
      "hit": false,
      "t": 10028.567250000015,
      "d": 974.9995937500044,
      "v": 70
    },
    {
      "midi": 38,
      "hit": false,
      "t": 10042.852958333347,
      "d": 210.71419791666813,
      "v": 56
    },
    {
      "midi": 54,
      "hit": false,
      "t": 10146.424343750014,
      "d": 96.42853125000147,
      "v": 45
    },
    {
      "midi": 50,
      "hit": false,
      "t": 10153.56719791668,
      "d": 60.71426041666746,
      "v": 54
    },
    {
      "midi": 45,
      "hit": false,
      "t": 10267.852864583348,
      "d": 139.2856562500001,
      "v": 55
    },
    {
      "midi": 57,
      "hit": false,
      "t": 10267.852864583348,
      "d": 189.285635416667,
      "v": 32
    },
    {
      "midi": 43,
      "hit": false,
      "t": 10389.281385416682,
      "d": 174.99992708333411,
      "v": 51
    },
    {
      "midi": 50,
      "hit": false,
      "t": 10507.138479166682,
      "d": 117.85709375000079,
      "v": 41
    },
    {
      "midi": 55,
      "hit": false,
      "t": 10517.852760416683,
      "d": 121.4285208333331,
      "v": 33
    },
    {
      "midi": 46,
      "hit": false,
      "t": 10639.281281250016,
      "d": 96.42853124999965,
      "v": 37
    },
    {
      "midi": 58,
      "hit": false,
      "t": 10653.566989583349,
      "d": 196.42848958333525,
      "v": 26
    },
    {
      "midi": 38,
      "hit": false,
      "t": 10764.281229166683,
      "d": 146.42851041666836,
      "v": 54
    },
    {
      "midi": 50,
      "hit": false,
      "t": 10874.995468750018,
      "d": 60.71426041666746,
      "v": 52
    },
    {
      "midi": 54,
      "hit": false,
      "t": 10885.709750000018,
      "d": 89.28567708333321,
      "v": 43
    },
    {
      "midi": 57,
      "hit": false,
      "t": 10999.995416666685,
      "d": 107.14281250000022,
      "v": 71
    },
    {
      "midi": 45,
      "hit": false,
      "t": 11014.28112500002,
      "d": 99.99995833333196,
      "v": 48
    },
    {
      "midi": 58,
      "hit": false,
      "t": 11132.138218750018,
      "d": 196.42848958333525,
      "v": 69
    },
    {
      "midi": 43,
      "hit": false,
      "t": 11160.709635416686,
      "d": 89.28567708333321,
      "v": 40
    },
    {
      "midi": 50,
      "hit": false,
      "t": 11257.138166666686,
      "d": 110.71423958333435,
      "v": 34
    },
    {
      "midi": 52,
      "hit": false,
      "t": 11264.281020833352,
      "d": 39.28569791666814,
      "v": 45
    },
    {
      "midi": 46,
      "hit": false,
      "t": 11371.423833333354,
      "d": 85.7142500000009,
      "v": 46
    },
    {
      "midi": 61,
      "hit": false,
      "t": 11371.423833333354,
      "d": 117.85709375000079,
      "v": 74
    },
    {
      "midi": 62,
      "hit": false,
      "t": 11499.995208333356,
      "d": 271.4284583333356,
      "v": 80
    },
    {
      "midi": 38,
      "hit": false,
      "t": 11524.995197916689,
      "d": 224.999906250001,
      "v": 44
    },
    {
      "midi": 50,
      "hit": false,
      "t": 11617.852302083356,
      "d": 146.42851041666654,
      "v": 52
    },
    {
      "midi": 54,
      "hit": false,
      "t": 11632.13801041669,
      "d": 114.28566666666666,
      "v": 46
    },
    {
      "midi": 57,
      "hit": false,
      "t": 11739.28082291669,
      "d": 89.28567708333503,
      "v": 71
    },
    {
      "midi": 45,
      "hit": false,
      "t": 11746.423677083356,
      "d": 82.14282291666859,
      "v": 49
    },
    {
      "midi": 58,
      "hit": false,
      "t": 11864.280770833358,
      "d": 139.28565625000374,
      "v": 69
    },
    {
      "midi": 43,
      "hit": false,
      "t": 11889.280760416694,
      "d": 92.85710416666734,
      "v": 37
    },
    {
      "midi": 50,
      "hit": false,
      "t": 11999.995000000028,
      "d": 49.99997916666871,
      "v": 41
    },
    {
      "midi": 52,
      "hit": false,
      "t": 12003.566427083362,
      "d": 46.42855208333458,
      "v": 38
    },
    {
      "midi": 55,
      "hit": false,
      "t": 12035.709270833364,
      "d": 78.57139583333446,
      "v": 48
    },
    {
      "midi": 61,
      "hit": false,
      "t": 12103.566385416698,
      "d": 96.42853125000147,
      "v": 74
    },
    {
      "midi": 46,
      "hit": false,
      "t": 12110.709239583364,
      "d": 78.57139583333446,
      "v": 42
    },
    {
      "midi": 62,
      "hit": false,
      "t": 12235.709187500033,
      "d": 96.42853124999965,
      "v": 79
    },
    {
      "midi": 38,
      "hit": false,
      "t": 12257.137750000033,
      "d": 128.57137500000135,
      "v": 48
    },
    {
      "midi": 50,
      "hit": false,
      "t": 12353.566281250034,
      "d": 71.4285416666662,
      "v": 37
    },
    {
      "midi": 57,
      "hit": false,
      "t": 12360.7091354167,
      "d": 67.8571145833339,
      "v": 45
    },
    {
      "midi": 62,
      "hit": false,
      "t": 12464.280520833368,
      "d": 60.71426041666746,
      "v": 76
    },
    {
      "midi": 45,
      "hit": false,
      "t": 12474.994802083369,
      "d": 32.142843749999884,
      "v": 46
    },
    {
      "midi": 64,
      "hit": false,
      "t": 12571.42333333337,
      "d": 42.85712500000045,
      "v": 74
    },
    {
      "midi": 62,
      "hit": false,
      "t": 12589.280468750037,
      "d": 107.14281250000022,
      "v": 74
    },
    {
      "midi": 43,
      "hit": false,
      "t": 12610.709031250037,
      "d": 103.57138541666791,
      "v": 52
    },
    {
      "midi": 61,
      "hit": false,
      "t": 12696.423281250038,
      "d": 85.7142500000009,
      "v": 73
    },
    {
      "midi": 55,
      "hit": false,
      "t": 12707.137562500038,
      "d": 57.14283333333333,
      "v": 58
    },
    {
      "midi": 50,
      "hit": false,
      "t": 12707.137562500038,
      "d": 85.7142500000009,
      "v": 52
    },
    {
      "midi": 62,
      "hit": false,
      "t": 12803.56609375004,
      "d": 60.71426041666746,
      "v": 82
    },
    {
      "midi": 47,
      "hit": false,
      "t": 12814.28037500004,
      "d": 24.999989583333445,
      "v": 54
    },
    {
      "midi": 66,
      "hit": false,
      "t": 12942.851750000042,
      "d": 957.142458333341,
      "v": 79
    },
    {
      "midi": 42,
      "hit": false,
      "t": 12949.994604166708,
      "d": 235.7141875000034,
      "v": 53
    },
    {
      "midi": 54,
      "hit": false,
      "t": 13067.851697916709,
      "d": 107.14281250000204,
      "v": 45
    },
    {
      "midi": 58,
      "hit": false,
      "t": 13071.423125000043,
      "d": 132.14280208333548,
      "v": 36
    },
    {
      "midi": 61,
      "hit": false,
      "t": 13171.423083333377,
      "d": 221.4284791666687,
      "v": 48
    },
    {
      "midi": 49,
      "hit": false,
      "t": 13174.99451041671,
      "d": 53.57140625000102,
      "v": 45
    },
    {
      "midi": 47,
      "hit": false,
      "t": 13307.137312500045,
      "d": 192.85706250000294,
      "v": 49
    },
    {
      "midi": 54,
      "hit": false,
      "t": 13410.708697916712,
      "d": 82.14282291666859,
      "v": 39
    },
    {
      "midi": 59,
      "hit": false,
      "t": 13414.280125000047,
      "d": 96.42853125000147,
      "v": 38
    },
    {
      "midi": 62,
      "hit": false,
      "t": 13528.565791666715,
      "d": 178.57135416666642,
      "v": 42
    },
    {
      "midi": 50,
      "hit": false,
      "t": 13539.280072916716,
      "d": 35.71427083333219,
      "v": 38
    },
    {
      "midi": 42,
      "hit": false,
      "t": 13649.994312500048,
      "d": 242.857041666668,
      "v": 48
    },
    {
      "midi": 54,
      "hit": false,
      "t": 13757.137125000048,
      "d": 85.7142500000009,
      "v": 33
    },
    {
      "midi": 58,
      "hit": false,
      "t": 13785.708541666716,
      "d": 124.99994791666722,
      "v": 32
    },
    {
      "midi": 61,
      "hit": false,
      "t": 13889.279927083382,
      "d": 64.28568750000159,
      "v": 61
    },
    {
      "midi": 49,
      "hit": false,
      "t": 13892.851354166716,
      "d": 46.42855208333458,
      "v": 32
    },
    {
      "midi": 62,
      "hit": false,
      "t": 14014.279875000051,
      "d": 110.71423958333617,
      "v": 70
    },
    {
      "midi": 47,
      "hit": false,
      "t": 14035.708437500052,
      "d": 74.99996875000033,
      "v": 45
    },
    {
      "midi": 59,
      "hit": false,
      "t": 14139.27982291672,
      "d": 78.57139583333628,
      "v": 42
    },
    {
      "midi": 54,
      "hit": false,
      "t": 14142.851250000054,
      "d": 71.42854166666802,
      "v": 43
    },
    {
      "midi": 57,
      "hit": false,
      "t": 14153.565531250055,
      "d": 35.71427083333401,
      "v": 34
    },
    {
      "midi": 63,
      "hit": false,
      "t": 14249.994062500056,
      "d": 74.99996875000033,
      "v": 74
    },
    {
      "midi": 47,
      "hit": false,
      "t": 14285.70833333339,
      "d": 39.28569791666632,
      "v": 30
    },
    {
      "midi": 64,
      "hit": false,
      "t": 14382.13686458339,
      "d": 492.8569375000061,
      "v": 78
    },
    {
      "midi": 40,
      "hit": false,
      "t": 14396.422572916725,
      "d": 146.42851041666654,
      "v": 54
    },
    {
      "midi": 52,
      "hit": false,
      "t": 14492.851104166724,
      "d": 67.8571145833339,
      "v": 43
    },
    {
      "midi": 47,
      "hit": false,
      "t": 14617.851052083392,
      "d": 24.999989583333445,
      "v": 49
    },
    {
      "midi": 56,
      "hit": false,
      "t": 14617.851052083392,
      "d": 142.85708333333605,
      "v": 35
    },
    {
      "midi": 45,
      "hit": false,
      "t": 14742.85100000006,
      "d": 207.142770833334,
      "v": 63
    },
    {
      "midi": 55,
      "hit": false,
      "t": 14857.136666666729,
      "d": 92.85710416666552,
      "v": 34
    },
    {
      "midi": 66,
      "hit": false,
      "t": 14928.565208333395,
      "d": 49.99997916666507,
      "v": 78
    },
    {
      "midi": 49,
      "hit": false,
      "t": 14949.993770833395,
      "d": 21.428562499999316,
      "v": 46
    },
    {
      "midi": 64,
      "hit": false,
      "t": 14999.99375000006,
      "d": 103.57138541666791,
      "v": 74
    },
    {
      "midi": 62,
      "hit": false,
      "t": 15124.993697916727,
      "d": 207.14277083333582,
      "v": 75
    },
    {
      "midi": 38,
      "hit": false,
      "t": 15135.707979166727,
      "d": 46.42855208333458,
      "v": 62
    },
    {
      "midi": 54,
      "hit": false,
      "t": 15257.136500000062,
      "d": 57.14283333333333,
      "v": 40
    },
    {
      "midi": 61,
      "hit": false,
      "t": 15357.136458333396,
      "d": 124.99994791666904,
      "v": 71
    },
    {
      "midi": 45,
      "hit": false,
      "t": 15385.707875000064,
      "d": 28.571416666667574,
      "v": 55
    },
    {
      "midi": 59,
      "hit": false,
      "t": 15492.850687500066,
      "d": 221.42847916666688,
      "v": 70
    },
    {
      "midi": 43,
      "hit": false,
      "t": 15514.279250000065,
      "d": 74.99996875000033,
      "v": 60
    },
    {
      "midi": 53,
      "hit": false,
      "t": 15607.136354166732,
      "d": 67.8571145833339,
      "v": 60
    },
    {
      "midi": 61,
      "hit": false,
      "t": 15728.564875000066,
      "d": 99.99995833333378,
      "v": 67
    },
    {
      "midi": 47,
      "hit": false,
      "t": 15735.707729166732,
      "d": 24.999989583333445,
      "v": 50
    },
    {
      "midi": 54,
      "hit": false,
      "t": 15867.850531250067,
      "d": 121.42852083333491,
      "v": 70
    },
    {
      "midi": 52,
      "hit": false,
      "t": 15882.1362395834,
      "d": 74.99996875000033,
      "v": 56
    },
    {
      "midi": 42,
      "hit": false,
      "t": 15889.279093750067,
      "d": 78.57139583333446,
      "v": 40
    },
    {
      "midi": 52,
      "hit": false,
      "t": 16007.13618750007,
      "d": 32.142843749999884,
      "v": 56
    },
    {
      "midi": 46,
      "hit": false,
      "t": 16121.421854166736,
      "d": 21.428562499999316,
      "v": 53
    },
    {
      "midi": 62,
      "hit": false,
      "t": 16257.136083333402,
      "d": 132.14280208333548,
      "v": 66
    },
    {
      "midi": 35,
      "hit": false,
      "t": 16274.993218750069,
      "d": 32.142843749999884,
      "v": 56
    },
    {
      "midi": 54,
      "hit": false,
      "t": 16378.564604166737,
      "d": 53.5714062499992,
      "v": 56
    },
    {
      "midi": 64,
      "hit": false,
      "t": 16439.278864583404,
      "d": 46.42855208333276,
      "v": 68
    },
    {
      "midi": 62,
      "hit": false,
      "t": 16467.85028125007,
      "d": 132.14280208333366,
      "v": 76
    },
    {
      "midi": 42,
      "hit": false,
      "t": 16485.707416666737,
      "d": 46.42855208333276,
      "v": 53
    },
    {
      "midi": 61,
      "hit": false,
      "t": 16607.135937500072,
      "d": 221.42847916666506,
      "v": 61
    },
    {
      "midi": 35,
      "hit": false,
      "t": 16617.85021875007,
      "d": 39.28569791666814,
      "v": 66
    },
    {
      "midi": 52,
      "hit": false,
      "t": 16735.70731250007,
      "d": 32.142843749999884,
      "v": 56
    },
    {
      "midi": 62,
      "hit": false,
      "t": 16835.707270833405,
      "d": 135.7142291666678,
      "v": 72
    },
    {
      "midi": 42,
      "hit": false,
      "t": 16842.850125000074,
      "d": 42.85712499999863,
      "v": 56
    },
    {
      "midi": 35,
      "hit": false,
      "t": 16971.421500000073,
      "d": 39.28569791666814,
      "v": 64
    },
    {
      "midi": 59,
      "hit": false,
      "t": 16974.992927083407,
      "d": 214.28562500000044,
      "v": 70
    },
    {
      "midi": 50,
      "hit": false,
      "t": 17085.707166666743,
      "d": 32.142843749999884,
      "v": 55
    },
    {
      "midi": 61,
      "hit": false,
      "t": 17196.421406250076,
      "d": 103.57138541666427,
      "v": 69
    },
    {
      "midi": 54,
      "hit": false,
      "t": 17335.707062500074,
      "d": 135.7142291666678,
      "v": 71
    },
    {
      "midi": 35,
      "hit": false,
      "t": 17339.27848958341,
      "d": 28.571416666665755,
      "v": 60
    },
    {
      "midi": 52,
      "hit": false,
      "t": 17342.849916666743,
      "d": 110.71423958333253,
      "v": 60
    },
    {
      "midi": 49,
      "hit": false,
      "t": 17446.421302083407,
      "d": 53.57140625000102,
      "v": 57
    },
    {
      "midi": 42,
      "hit": false,
      "t": 17574.992677083406,
      "d": 53.57140625000102,
      "v": 45
    },
    {
      "midi": 62,
      "hit": false,
      "t": 17689.278343750073,
      "d": 128.5713749999959,
      "v": 76
    },
    {
      "midi": 35,
      "hit": false,
      "t": 17699.99262500007,
      "d": 32.142843749999884,
      "v": 60
    },
    {
      "midi": 54,
      "hit": false,
      "t": 17810.7068645834,
      "d": 49.99997916667053,
      "v": 52
    },
    {
      "midi": 64,
      "hit": false,
      "t": 17857.135416666737,
      "d": 60.714260416669276,
      "v": 69
    },
    {
      "midi": 62,
      "hit": false,
      "t": 17903.56396875007,
      "d": 124.9999479166654,
      "v": 84
    },
    {
      "midi": 42,
      "hit": false,
      "t": 17910.706822916738,
      "d": 42.85712499999863,
      "v": 58
    },
    {
      "midi": 61,
      "hit": false,
      "t": 18028.563916666735,
      "d": 217.85705208333093,
      "v": 84
    },
    {
      "midi": 35,
      "hit": false,
      "t": 18039.278197916734,
      "d": 46.42855208333276,
      "v": 62
    },
    {
      "midi": 52,
      "hit": false,
      "t": 18164.2781458334,
      "d": 28.571416666665755,
      "v": 62
    },
    {
      "midi": 62,
      "hit": false,
      "t": 18264.278104166733,
      "d": 117.85709374999715,
      "v": 80
    },
    {
      "midi": 42,
      "hit": false,
      "t": 18274.992385416732,
      "d": 32.142843749999884,
      "v": 53
    },
    {
      "midi": 59,
      "hit": false,
      "t": 18389.2780520834,
      "d": 217.8570520833273,
      "v": 77
    },
    {
      "midi": 35,
      "hit": false,
      "t": 18392.849479166733,
      "d": 24.999989583331626,
      "v": 60
    },
    {
      "midi": 50,
      "hit": false,
      "t": 18510.70657291673,
      "d": 103.57138541666427,
      "v": 60
    },
    {
      "midi": 67,
      "hit": false,
      "t": 18628.563666666727,
      "d": 99.99995833333014,
      "v": 88
    },
    {
      "midi": 47,
      "hit": false,
      "t": 18646.420802083394,
      "d": 78.571395833329,
      "v": 57
    },
    {
      "midi": 66,
      "hit": false,
      "t": 18767.84932291672,
      "d": 674.9997187499976,
      "v": 89
    },
    {
      "midi": 46,
      "hit": false,
      "t": 18771.420750000056,
      "d": 74.99996874999852,
      "v": 54
    },
    {
      "midi": 61,
      "hit": false,
      "t": 18889.277843750056,
      "d": 67.85711458333753,
      "v": 53
    },
    {
      "midi": 54,
      "hit": false,
      "t": 18996.420656250062,
      "d": 85.71424999999726,
      "v": 49
    },
    {
      "midi": 45,
      "hit": false,
      "t": 19107.13489583339,
      "d": 32.142843749999884,
      "v": 65
    },
    {
      "midi": 60,
      "hit": false,
      "t": 19224.991989583385,
      "d": 53.57140625000102,
      "v": 56
    },
    {
      "midi": 51,
      "hit": false,
      "t": 19349.991937500054,
      "d": 17.857135416667006,
      "v": 50
    },
    {
      "midi": 65,
      "hit": false,
      "t": 19467.84903125005,
      "d": 374.99984374999985,
      "v": 76
    },
    {
      "midi": 44,
      "hit": false,
      "t": 19478.56331250005,
      "d": 82.14282291666677,
      "v": 57
    },
    {
      "midi": 59,
      "hit": false,
      "t": 19599.99183333338,
      "d": 57.14283333333515,
      "v": 50
    },
    {
      "midi": 49,
      "hit": false,
      "t": 19721.420354166716,
      "d": 67.8571145833339,
      "v": 44
    },
    {
      "midi": 64,
      "hit": false,
      "t": 19846.420302083385,
      "d": 378.571270833334,
      "v": 79
    },
    {
      "midi": 43,
      "hit": false,
      "t": 19849.99172916672,
      "d": 53.57140624999738,
      "v": 59
    },
    {
      "midi": 59,
      "hit": false,
      "t": 19978.563104166715,
      "d": 42.85712499999863,
      "v": 31
    },
    {
      "midi": 49,
      "hit": false,
      "t": 20089.277343750047,
      "d": 53.57140625000102,
      "v": 43
    },
    {
      "midi": 42,
      "hit": false,
      "t": 20217.84871875005,
      "d": 128.57137499999953,
      "v": 48
    },
    {
      "midi": 63,
      "hit": false,
      "t": 20217.84871875005,
      "d": 239.2856145833357,
      "v": 71
    },
    {
      "midi": 54,
      "hit": false,
      "t": 20321.42010416672,
      "d": 82.14282291666677,
      "v": 49
    },
    {
      "midi": 47,
      "hit": false,
      "t": 20457.134333333386,
      "d": 71.42854166666802,
      "v": 42
    },
    {
      "midi": 62,
      "hit": false,
      "t": 20582.134281250055,
      "d": 367.8569895833316,
      "v": 69
    },
    {
      "midi": 41,
      "hit": false,
      "t": 20596.41998958339,
      "d": 78.57139583333264,
      "v": 51
    },
    {
      "midi": 55,
      "hit": false,
      "t": 20710.705656250055,
      "d": 78.57139583333264,
      "v": 49
    },
    {
      "midi": 47,
      "hit": false,
      "t": 20824.99132291672,
      "d": 28.571416666665755,
      "v": 52
    },
    {
      "midi": 40,
      "hit": false,
      "t": 20949.991270833387,
      "d": 28.571416666665755,
      "v": 59
    },
    {
      "midi": 61,
      "hit": false,
      "t": 20949.991270833387,
      "d": 228.5713333333333,
      "v": 73
    },
    {
      "midi": 55,
      "hit": false,
      "t": 21071.419791666718,
      "d": 49.99997916666689,
      "v": 62
    },
    {
      "midi": 60,
      "hit": false,
      "t": 21185.70545833339,
      "d": 89.2856770833314,
      "v": 86
    },
    {
      "midi": 48,
      "hit": false,
      "t": 21199.99116666672,
      "d": 24.999989583331626,
      "v": 51
    },
    {
      "midi": 42,
      "hit": false,
      "t": 21321.41968750005,
      "d": 60.71426041666564,
      "v": 61
    },
    {
      "midi": 64,
      "hit": false,
      "t": 21321.41968750005,
      "d": 217.85705208333093,
      "v": 78
    },
    {
      "midi": 52,
      "hit": false,
      "t": 21428.562500000047,
      "d": 124.9999479166654,
      "v": 63
    },
    {
      "midi": 49,
      "hit": false,
      "t": 21542.848166666714,
      "d": 24.999989583331626,
      "v": 61
    },
    {
      "midi": 58,
      "hit": false,
      "t": 21553.562447916713,
      "d": 82.14282291666677,
      "v": 71
    },
    {
      "midi": 59,
      "hit": false,
      "t": 21696.419531250045,
      "d": 71.42854166666802,
      "v": 78
    },
    {
      "midi": 35,
      "hit": false,
      "t": 21714.276666666712,
      "d": 42.85712499999863,
      "v": 66
    },
    {
      "midi": 54,
      "hit": false,
      "t": 21835.705187500047,
      "d": 49.99997916666689,
      "v": 65
    },
    {
      "midi": 62,
      "hit": false,
      "t": 21946.41942708338,
      "d": 39.28569791666814,
      "v": 63
    },
    {
      "midi": 78,
      "hit": false,
      "t": 21953.562281250048,
      "d": 74.99996874999852,
      "v": 88
    },
    {
      "midi": 66,
      "hit": false,
      "t": 21960.705135416716,
      "d": 42.85712499999863,
      "v": 64
    },
    {
      "midi": 79,
      "hit": false,
      "t": 22082.133656250044,
      "d": 114.28566666667393,
      "v": 83
    },
    {
      "midi": 67,
      "hit": false,
      "t": 22085.705083333378,
      "d": 57.14283333333515,
      "v": 65
    },
    {
      "midi": 64,
      "hit": false,
      "t": 22089.276510416712,
      "d": 60.714260416669276,
      "v": 59
    },
    {
      "midi": 76,
      "hit": false,
      "t": 22203.562177083386,
      "d": 57.14283333333515,
      "v": 66
    },
    {
      "midi": 73,
      "hit": false,
      "t": 22207.13360416672,
      "d": 46.42855208333276,
      "v": 48
    },
    {
      "midi": 58,
      "hit": false,
      "t": 22207.13360416672,
      "d": 103.57138541666791,
      "v": 34
    },
    {
      "midi": 55,
      "hit": false,
      "t": 22221.419312500053,
      "d": 78.57139583333628,
      "v": 36
    },
    {
      "midi": 52,
      "hit": false,
      "t": 22317.847843750056,
      "d": 17.857135416667006,
      "v": 59
    },
    {
      "midi": 70,
      "hit": false,
      "t": 22317.847843750056,
      "d": 53.57140625000102,
      "v": 67
    },
    {
      "midi": 82,
      "hit": false,
      "t": 22317.847843750056,
      "d": 74.99996875000215,
      "v": 76
    },
    {
      "midi": 47,
      "hit": false,
      "t": 22442.847791666725,
      "d": 46.42855208333276,
      "v": 59
    },
    {
      "midi": 83,
      "hit": false,
      "t": 22453.562072916724,
      "d": 60.714260416669276,
      "v": 80
    },
    {
      "midi": 71,
      "hit": false,
      "t": 22460.704927083392,
      "d": 49.99997916666689,
      "v": 54
    },
    {
      "midi": 54,
      "hit": false,
      "t": 22564.276312500064,
      "d": 57.14283333333515,
      "v": 52
    },
    {
      "midi": 74,
      "hit": false,
      "t": 22574.990593750063,
      "d": 39.28569791666814,
      "v": 60
    },
    {
      "midi": 62,
      "hit": false,
      "t": 22678.561979166734,
      "d": 28.571416666669393,
      "v": 59
    },
    {
      "midi": 66,
      "hit": false,
      "t": 22685.704833333402,
      "d": 53.57140625000102,
      "v": 59
    },
    {
      "midi": 78,
      "hit": false,
      "t": 22685.704833333402,
      "d": 60.714260416669276,
      "v": 81
    },
    {
      "midi": 79,
      "hit": false,
      "t": 22807.133354166734,
      "d": 74.99996875000215,
      "v": 84
    },
    {
      "midi": 64,
      "hit": false,
      "t": 22814.276208333402,
      "d": 57.14283333333515,
      "v": 65
    },
    {
      "midi": 67,
      "hit": false,
      "t": 22817.847635416736,
      "d": 46.42855208333276,
      "v": 64
    },
    {
      "midi": 76,
      "hit": false,
      "t": 22924.990447916734,
      "d": 53.57140625000102,
      "v": 62
    },
    {
      "midi": 73,
      "hit": false,
      "t": 22928.56187500007,
      "d": 21.428562500001135,
      "v": 39
    },
    {
      "midi": 55,
      "hit": false,
      "t": 22935.704729166737,
      "d": 89.2856770833314,
      "v": 47
    },
    {
      "midi": 58,
      "hit": false,
      "t": 22939.27615625007,
      "d": 99.99995833333014,
      "v": 32
    },
    {
      "midi": 82,
      "hit": false,
      "t": 23035.704687500067,
      "d": 64.2856875000034,
      "v": 77
    },
    {
      "midi": 70,
      "hit": false,
      "t": 23042.847541666735,
      "d": 49.99997916666689,
      "v": 62
    },
    {
      "midi": 52,
      "hit": false,
      "t": 23046.41896875007,
      "d": 21.428562500001135,
      "v": 52
    },
    {
      "midi": 47,
      "hit": false,
      "t": 23167.8474895834,
      "d": 21.428562500004773,
      "v": 63
    },
    {
      "midi": 83,
      "hit": false,
      "t": 23174.99034375007,
      "d": 71.42854166666802,
      "v": 82
    },
    {
      "midi": 71,
      "hit": false,
      "t": 23182.133197916737,
      "d": 53.57140625000102,
      "v": 63
    },
    {
      "midi": 78,
      "hit": false,
      "t": 23289.276010416736,
      "d": 67.8571145833339,
      "v": 60
    },
    {
      "midi": 62,
      "hit": false,
      "t": 23299.990291666734,
      "d": 53.57140625000102,
      "v": 48
    },
    {
      "midi": 54,
      "hit": false,
      "t": 23403.561677083402,
      "d": 107.14281250000568,
      "v": 46
    },
    {
      "midi": 83,
      "hit": false,
      "t": 23407.133104166736,
      "d": 78.57139583333628,
      "v": 82
    },
    {
      "midi": 71,
      "hit": false,
      "t": 23410.70453125007,
      "d": 53.57140625000102,
      "v": 65
    },
    {
      "midi": 52,
      "hit": false,
      "t": 23532.13305208341,
      "d": 21.428562500001135,
      "v": 60
    },
    {
      "midi": 79,
      "hit": false,
      "t": 23532.13305208341,
      "d": 71.42854166666802,
      "v": 76
    },
    {
      "midi": 76,
      "hit": false,
      "t": 23549.990187500076,
      "d": 21.428562500001135,
      "v": 52
    },
    {
      "midi": 67,
      "hit": false,
      "t": 23635.704437500077,
      "d": 64.28568749999977,
      "v": 58
    },
    {
      "midi": 70,
      "hit": false,
      "t": 23649.99014583341,
      "d": 53.57140625000102,
      "v": 69
    },
    {
      "midi": 82,
      "hit": false,
      "t": 23649.99014583341,
      "d": 71.42854166666802,
      "v": 81
    },
    {
      "midi": 59,
      "hit": false,
      "t": 23753.561531250078,
      "d": 21.428562500001135,
      "v": 50
    },
    {
      "midi": 83,
      "hit": false,
      "t": 23757.13295833341,
      "d": 46.42855208333276,
      "v": 92
    },
    {
      "midi": 71,
      "hit": false,
      "t": 23760.704385416746,
      "d": 32.142843749999884,
      "v": 76
    },
    {
      "midi": 55,
      "hit": false,
      "t": 23764.27581250008,
      "d": 21.428562499997497,
      "v": 52
    },
    {
      "midi": 50,
      "hit": false,
      "t": 23896.41861458341,
      "d": 49.99997916667053,
      "v": 63
    },
    {
      "midi": 86,
      "hit": false,
      "t": 23899.990041666744,
      "d": 832.1425104166665,
      "v": 87
    },
    {
      "midi": 74,
      "hit": false,
      "t": 23907.132895833412,
      "d": 114.28566666666666,
      "v": 74
    },
    {
      "midi": 66,
      "hit": false,
      "t": 24021.41856250008,
      "d": 60.71426041666564,
      "v": 47
    },
    {
      "midi": 81,
      "hit": false,
      "t": 24021.41856250008,
      "d": 78.57139583333264,
      "v": 66
    },
    {
      "midi": 78,
      "hit": false,
      "t": 24028.561416666747,
      "d": 28.571416666665755,
      "v": 35
    },
    {
      "midi": 62,
      "hit": false,
      "t": 24146.418510416745,
      "d": 35.71427083333401,
      "v": 48
    },
    {
      "midi": 74,
      "hit": false,
      "t": 24149.98993750008,
      "d": 78.57139583333264,
      "v": 61
    },
    {
      "midi": 57,
      "hit": false,
      "t": 24164.27564583341,
      "d": 39.28569791666814,
      "v": 31
    },
    {
      "midi": 82,
      "hit": false,
      "t": 24267.84703125008,
      "d": 89.28567708333503,
      "v": 59
    },
    {
      "midi": 55,
      "hit": false,
      "t": 24278.56131250008,
      "d": 64.2856875000034,
      "v": 65
    },
    {
      "midi": 79,
      "hit": false,
      "t": 24285.704166666746,
      "d": 39.28569791666814,
      "v": 41
    },
    {
      "midi": 70,
      "hit": false,
      "t": 24382.132697916746,
      "d": 64.28568749999977,
      "v": 56
    },
    {
      "midi": 74,
      "hit": false,
      "t": 24389.275552083414,
      "d": 78.57139583333264,
      "v": 57
    },
    {
      "midi": 62,
      "hit": false,
      "t": 24492.84693750008,
      "d": 17.857135416667006,
      "v": 55
    },
    {
      "midi": 82,
      "hit": false,
      "t": 24492.84693750008,
      "d": 71.42854166666802,
      "v": 60
    },
    {
      "midi": 58,
      "hit": false,
      "t": 24503.561218750077,
      "d": 24.999989583335264,
      "v": 40
    },
    {
      "midi": 79,
      "hit": false,
      "t": 24521.418354166744,
      "d": 28.571416666669393,
      "v": 26
    },
    {
      "midi": 50,
      "hit": false,
      "t": 24621.418312500078,
      "d": 21.428562500001135,
      "v": 74
    },
    {
      "midi": 74,
      "hit": false,
      "t": 24624.989739583412,
      "d": 78.57139583333264,
      "v": 59
    },
    {
      "midi": 81,
      "hit": false,
      "t": 24735.703979166745,
      "d": 46.42855208333276,
      "v": 68
    },
    {
      "midi": 78,
      "hit": false,
      "t": 24739.27540625008,
      "d": 24.999989583331626,
      "v": 48
    },
    {
      "midi": 66,
      "hit": false,
      "t": 24739.27540625008,
      "d": 57.14283333333151,
      "v": 60
    },
    {
      "midi": 81,
      "hit": false,
      "t": 24849.98964583341,
      "d": 53.57140624999738,
      "v": 87
    },
    {
      "midi": 69,
      "hit": false,
      "t": 24864.275354166744,
      "d": 21.428562499997497,
      "v": 69
    },
    {
      "midi": 57,
      "hit": false,
      "t": 24864.275354166744,
      "d": 24.999989583331626,
      "v": 54
    },
    {
      "midi": 82,
      "hit": false,
      "t": 24989.275302083406,
      "d": 149.9999375000043,
      "v": 87
    },
    {
      "midi": 70,
      "hit": false,
      "t": 24996.418156250074,
      "d": 49.99997916666689,
      "v": 71
    },
    {
      "midi": 67,
      "hit": false,
      "t": 24996.418156250074,
      "d": 60.714260416669276,
      "v": 60
    },
    {
      "midi": 76,
      "hit": false,
      "t": 25110.703822916745,
      "d": 49.99997916666325,
      "v": 68
    },
    {
      "midi": 61,
      "hit": false,
      "t": 25114.27525000008,
      "d": 135.71422916666415,
      "v": 35
    },
    {
      "midi": 73,
      "hit": false,
      "t": 25128.56095833341,
      "d": 21.428562499997497,
      "v": 27
    },
    {
      "midi": 58,
      "hit": false,
      "t": 25128.56095833341,
      "d": 128.57137499999953,
      "v": 25
    },
    {
      "midi": 55,
      "hit": false,
      "t": 25232.132343750076,
      "d": 24.999989583335264,
      "v": 58
    },
    {
      "midi": 85,
      "hit": false,
      "t": 25232.132343750076,
      "d": 71.42854166666802,
      "v": 85
    },
    {
      "midi": 73,
      "hit": false,
      "t": 25239.275197916744,
      "d": 49.99997916666689,
      "v": 73
    },
    {
      "midi": 50,
      "hit": false,
      "t": 25360.703718750075,
      "d": 21.428562500001135,
      "v": 62
    },
    {
      "midi": 86,
      "hit": false,
      "t": 25364.27514583341,
      "d": 74.99996874999488,
      "v": 80
    },
    {
      "midi": 74,
      "hit": false,
      "t": 25371.418000000078,
      "d": 57.14283333332787,
      "v": 65
    },
    {
      "midi": 81,
      "hit": false,
      "t": 25474.98938541674,
      "d": 24.999989583335264,
      "v": 64
    },
    {
      "midi": 66,
      "hit": false,
      "t": 25478.560812500073,
      "d": 57.14283333333515,
      "v": 58
    },
    {
      "midi": 81,
      "hit": false,
      "t": 25589.27505208341,
      "d": 49.99997916667053,
      "v": 87
    },
    {
      "midi": 69,
      "hit": false,
      "t": 25603.56076041674,
      "d": 17.857135416670644,
      "v": 66
    },
    {
      "midi": 62,
      "hit": false,
      "t": 25610.70361458341,
      "d": 28.571416666669393,
      "v": 47
    },
    {
      "midi": 57,
      "hit": false,
      "t": 25617.84646875008,
      "d": 21.428562500001135,
      "v": 42
    },
    {
      "midi": 82,
      "hit": false,
      "t": 25724.989281250077,
      "d": 107.1428124999984,
      "v": 87
    },
    {
      "midi": 70,
      "hit": false,
      "t": 25728.56070833341,
      "d": 53.57140624999738,
      "v": 80
    },
    {
      "midi": 67,
      "hit": false,
      "t": 25732.132135416745,
      "d": 67.85711458333026,
      "v": 68
    },
    {
      "midi": 76,
      "hit": false,
      "t": 25842.846375000074,
      "d": 46.42855208333276,
      "v": 74
    },
    {
      "midi": 61,
      "hit": false,
      "t": 25842.846375000074,
      "d": 132.14280208333366,
      "v": 46
    },
    {
      "midi": 73,
      "hit": false,
      "t": 25857.132083333407,
      "d": 21.428562500001135,
      "v": 32
    },
    {
      "midi": 58,
      "hit": false,
      "t": 25860.70351041674,
      "d": 121.42852083333491,
      "v": 33
    },
    {
      "midi": 55,
      "hit": false,
      "t": 25957.13204166674,
      "d": 28.571416666669393,
      "v": 63
    },
    {
      "midi": 85,
      "hit": false,
      "t": 25957.13204166674,
      "d": 67.8571145833339,
      "v": 88
    },
    {
      "midi": 73,
      "hit": false,
      "t": 25964.27489583341,
      "d": 49.99997916666689,
      "v": 79
    },
    {
      "midi": 50,
      "hit": false,
      "t": 26085.70341666674,
      "d": 17.857135416667006,
      "v": 68
    },
    {
      "midi": 86,
      "hit": false,
      "t": 26099.989125000073,
      "d": 74.99996875000215,
      "v": 92
    },
    {
      "midi": 74,
      "hit": false,
      "t": 26103.560552083407,
      "d": 49.99997916666689,
      "v": 80
    },
    {
      "midi": 66,
      "hit": false,
      "t": 26210.70336458341,
      "d": 57.14283333333515,
      "v": 60
    },
    {
      "midi": 81,
      "hit": false,
      "t": 26214.274791666743,
      "d": 67.8571145833339,
      "v": 67
    },
    {
      "midi": 78,
      "hit": false,
      "t": 26221.41764583341,
      "d": 46.42855208333276,
      "v": 51
    },
    {
      "midi": 86,
      "hit": false,
      "t": 26335.703312500078,
      "d": 71.42854166667166,
      "v": 86
    },
    {
      "midi": 74,
      "hit": false,
      "t": 26339.274739583412,
      "d": 57.14283333333515,
      "v": 76
    },
    {
      "midi": 62,
      "hit": false,
      "t": 26342.846166666746,
      "d": 57.14283333333515,
      "v": 34
    },
    {
      "midi": 83,
      "hit": false,
      "t": 26457.131833333417,
      "d": 82.14282291666677,
      "v": 87
    },
    {
      "midi": 55,
      "hit": false,
      "t": 26471.41754166675,
      "d": 21.428562500001135,
      "v": 66
    },
    {
      "midi": 79,
      "hit": false,
      "t": 26471.41754166675,
      "d": 39.28569791666814,
      "v": 74
    },
    {
      "midi": 71,
      "hit": false,
      "t": 26578.56035416675,
      "d": 49.99997916666689,
      "v": 63
    },
    {
      "midi": 85,
      "hit": false,
      "t": 26578.56035416675,
      "d": 67.8571145833339,
      "v": 86
    },
    {
      "midi": 73,
      "hit": false,
      "t": 26585.70320833342,
      "d": 46.42855208333276,
      "v": 74
    },
    {
      "midi": 86,
      "hit": false,
      "t": 26692.846020833418,
      "d": 49.99997916667053,
      "v": 94
    },
    {
      "midi": 74,
      "hit": false,
      "t": 26699.988875000086,
      "d": 17.857135416670644,
      "v": 74
    },
    {
      "midi": 59,
      "hit": false,
      "t": 26703.56030208342,
      "d": 28.571416666669393,
      "v": 45
    },
    {
      "midi": 62,
      "hit": false,
      "t": 26710.70315625009,
      "d": 21.428562500001135,
      "v": 52
    },
    {
      "midi": 90,
      "hit": false,
      "t": 26839.27453125009,
      "d": 864.2853541666809,
      "v": 86
    },
    {
      "midi": 78,
      "hit": false,
      "t": 26846.417385416757,
      "d": 46.4285520833364,
      "v": 77
    },
    {
      "midi": 58,
      "hit": false,
      "t": 26853.560239583425,
      "d": 74.99996875000215,
      "v": 60
    },
    {
      "midi": 85,
      "hit": false,
      "t": 26971.41733333343,
      "d": 64.28568749999977,
      "v": 61
    },
    {
      "midi": 73,
      "hit": false,
      "t": 26974.988760416763,
      "d": 64.28568749999977,
      "v": 57
    },
    {
      "midi": 82,
      "hit": false,
      "t": 26978.560187500098,
      "d": 24.999989583331626,
      "v": 43
    },
    {
      "midi": 78,
      "hit": false,
      "t": 27089.27442708343,
      "d": 64.28568749999977,
      "v": 64
    },
    {
      "midi": 66,
      "hit": false,
      "t": 27092.845854166764,
      "d": 99.99995833333378,
      "v": 43
    },
    {
      "midi": 61,
      "hit": false,
      "t": 27103.560135416763,
      "d": 53.57140625000102,
      "v": 30
    },
    {
      "midi": 59,
      "hit": false,
      "t": 27224.988656250098,
      "d": 49.99997916666689,
      "v": 70
    },
    {
      "midi": 86,
      "hit": false,
      "t": 27224.988656250098,
      "d": 92.85710416666552,
      "v": 64
    },
    {
      "midi": 83,
      "hit": false,
      "t": 27242.845791666765,
      "d": 32.142843749999884,
      "v": 37
    },
    {
      "midi": 78,
      "hit": false,
      "t": 27335.70289583343,
      "d": 71.42854166666802,
      "v": 59
    },
    {
      "midi": 74,
      "hit": false,
      "t": 27346.41717708343,
      "d": 39.28569791666814,
      "v": 29
    },
    {
      "midi": 66,
      "hit": false,
      "t": 27453.55998958343,
      "d": 60.714260416669276,
      "v": 38
    },
    {
      "midi": 62,
      "hit": false,
      "t": 27471.417125000098,
      "d": 32.142843749999884,
      "v": 42
    },
    {
      "midi": 86,
      "hit": false,
      "t": 27474.988552083432,
      "d": 42.85712500000227,
      "v": 37
    },
    {
      "midi": 83,
      "hit": false,
      "t": 27478.559979166766,
      "d": 32.142843749999884,
      "v": 28
    },
    {
      "midi": 78,
      "hit": false,
      "t": 27574.988510416766,
      "d": 142.85708333333605,
      "v": 52
    },
    {
      "midi": 58,
      "hit": false,
      "t": 27582.131364583434,
      "d": 57.14283333333515,
      "v": 80
    },
    {
      "midi": 85,
      "hit": false,
      "t": 27699.988458333435,
      "d": 53.57140625000102,
      "v": 58
    },
    {
      "midi": 73,
      "hit": false,
      "t": 27707.131312500103,
      "d": 64.28568749999977,
      "v": 61
    },
    {
      "midi": 82,
      "hit": false,
      "t": 27717.845593750102,
      "d": 21.428562500001135,
      "v": 31
    },
    {
      "midi": 85,
      "hit": false,
      "t": 27821.41697916677,
      "d": 78.57139583333628,
      "v": 85
    },
    {
      "midi": 73,
      "hit": false,
      "t": 27828.55983333344,
      "d": 57.14283333333515,
      "v": 77
    },
    {
      "midi": 66,
      "hit": false,
      "t": 27842.84554166677,
      "d": 21.428562500001135,
      "v": 32
    },
    {
      "midi": 61,
      "hit": false,
      "t": 27846.416968750105,
      "d": 24.999989583335264,
      "v": 32
    },
    {
      "midi": 86,
      "hit": false,
      "t": 27957.13120833344,
      "d": 92.8571041666728,
      "v": 84
    },
    {
      "midi": 74,
      "hit": false,
      "t": 27967.845489583444,
      "d": 49.99997916666689,
      "v": 73
    },
    {
      "midi": 57,
      "hit": false,
      "t": 27967.845489583444,
      "d": 71.42854166666802,
      "v": 68
    },
    {
      "midi": 83,
      "hit": false,
      "t": 28074.98830208345,
      "d": 60.71426041666564,
      "v": 66
    },
    {
      "midi": 78,
      "hit": false,
      "t": 28078.559729166784,
      "d": 28.571416666665755,
      "v": 46
    },
    {
      "midi": 71,
      "hit": false,
      "t": 28096.41686458345,
      "d": 49.99997916666325,
      "v": 58
    },
    {
      "midi": 87,
      "hit": false,
      "t": 28196.41682291678,
      "d": 67.8571145833339,
      "v": 83
    },
    {
      "midi": 66,
      "hit": false,
      "t": 28199.988250000115,
      "d": 35.71427083333401,
      "v": 44
    },
    {
      "midi": 75,
      "hit": false,
      "t": 28203.55967708345,
      "d": 49.99997916666689,
      "v": 71
    },
    {
      "midi": 56,
      "hit": false,
      "t": 28335.702479166783,
      "d": 53.57140625000102,
      "v": 54
    },
    {
      "midi": 88,
      "hit": false,
      "t": 28335.702479166783,
      "d": 92.85710416666552,
      "v": 83
    },
    {
      "midi": 76,
      "hit": false,
      "t": 28339.273906250117,
      "d": 53.57140625000102,
      "v": 72
    },
    {
      "midi": 83,
      "hit": false,
      "t": 28449.98814583345,
      "d": 67.85711458333753,
      "v": 64
    },
    {
      "midi": 88,
      "hit": false,
      "t": 28449.98814583345,
      "d": 221.4284791666687,
      "v": 18
    },
    {
      "midi": 71,
      "hit": false,
      "t": 28453.559572916784,
      "d": 60.714260416669276,
      "v": 58
    },
    {
      "midi": 80,
      "hit": false,
      "t": 28457.131000000118,
      "d": 57.14283333333515,
      "v": 53
    },
    {
      "midi": 76,
      "hit": false,
      "t": 28567.845239583454,
      "d": 64.28568749999977,
      "v": 69
    },
    {
      "midi": 64,
      "hit": false,
      "t": 28571.416666666788,
      "d": 85.71424999999726,
      "v": 55
    },
    {
      "midi": 59,
      "hit": false,
      "t": 28574.988093750122,
      "d": 46.42855208333276,
      "v": 51
    },
    {
      "midi": 85,
      "hit": false,
      "t": 28682.130906250117,
      "d": 117.85709375000442,
      "v": 73
    },
    {
      "midi": 81,
      "hit": false,
      "t": 28696.41661458345,
      "d": 60.714260416669276,
      "v": 62
    },
    {
      "midi": 55,
      "hit": false,
      "t": 28710.702322916783,
      "d": 21.428562500001135,
      "v": 58
    },
    {
      "midi": 69,
      "hit": false,
      "t": 28807.13085416679,
      "d": 60.71426041666564,
      "v": 53
    },
    {
      "midi": 90,
      "hit": false,
      "t": 28871.41654166679,
      "d": 32.14284375000352,
      "v": 80
    },
    {
      "midi": 78,
      "hit": false,
      "t": 28874.987968750123,
      "d": 21.428562500001135,
      "v": 69
    },
    {
      "midi": 61,
      "hit": false,
      "t": 28932.13080208346,
      "d": 24.999989583335264,
      "v": 25
    },
    {
      "midi": 76,
      "hit": false,
      "t": 28949.987937500126,
      "d": 28.571416666669393,
      "v": 82
    },
    {
      "midi": 88,
      "hit": false,
      "t": 28949.987937500126,
      "d": 39.28569791666814,
      "v": 68
    },
    {
      "midi": 86,
      "hit": false,
      "t": 29078.559312500125,
      "d": 107.14281250000568,
      "v": 88
    },
    {
      "midi": 74,
      "hit": false,
      "t": 29082.13073958346,
      "d": 49.99997916667053,
      "v": 71
    },
    {
      "midi": 54,
      "hit": false,
      "t": 29089.273593750127,
      "d": 53.57140625000466,
      "v": 58
    },
    {
      "midi": 69,
      "hit": false,
      "t": 29192.8449791668,
      "d": 53.57140625000102,
      "v": 56
    },
    {
      "midi": 78,
      "hit": false,
      "t": 29192.8449791668,
      "d": 57.14283333333515,
      "v": 58
    },
    {
      "midi": 81,
      "hit": false,
      "t": 29196.416406250133,
      "d": 60.714260416669276,
      "v": 64
    },
    {
      "midi": 85,
      "hit": false,
      "t": 29307.13064583347,
      "d": 57.14283333333151,
      "v": 76
    },
    {
      "midi": 73,
      "hit": false,
      "t": 29317.844927083468,
      "d": 39.2856979166645,
      "v": 71
    },
    {
      "midi": 62,
      "hit": false,
      "t": 29317.844927083468,
      "d": 274.9998854166661,
      "v": 44
    },
    {
      "midi": 57,
      "hit": false,
      "t": 29328.559208333467,
      "d": 32.142843749999884,
      "v": 40
    },
    {
      "midi": 83,
      "hit": false,
      "t": 29439.2734479168,
      "d": 74.99996875000215,
      "v": 85
    },
    {
      "midi": 71,
      "hit": false,
      "t": 29442.844875000133,
      "d": 46.42855208333276,
      "v": 66
    },
    {
      "midi": 54,
      "hit": false,
      "t": 29442.844875000133,
      "d": 53.57140625000102,
      "v": 70
    },
    {
      "midi": 56,
      "hit": false,
      "t": 29499.98770833347,
      "d": 121.42852083333128,
      "v": 27
    },
    {
      "midi": 80,
      "hit": false,
      "t": 29560.701968750134,
      "d": 60.71426041666564,
      "v": 69
    },
    {
      "midi": 68,
      "hit": false,
      "t": 29564.27339583347,
      "d": 53.57140624999738,
      "v": 61
    },
    {
      "midi": 85,
      "hit": false,
      "t": 29678.559062500135,
      "d": 46.4285520833364,
      "v": 82
    },
    {
      "midi": 53,
      "hit": false,
      "t": 29685.701916666803,
      "d": 21.428562500001135,
      "v": 66
    },
    {
      "midi": 73,
      "hit": false,
      "t": 29689.273343750137,
      "d": 35.71427083333401,
      "v": 72
    },
    {
      "midi": 78,
      "hit": false,
      "t": 29824.987572916805,
      "d": 357.14270833334376,
      "v": 78
    },
    {
      "midi": 66,
      "hit": false,
      "t": 29835.701854166804,
      "d": 107.14281250000204,
      "v": 55
    },
    {
      "midi": 52,
      "hit": false,
      "t": 29846.416135416803,
      "d": 178.5713541666737,
      "v": 52
    },
    {
      "midi": 64,
      "hit": false,
      "t": 29935.701812500138,
      "d": 64.2856875000034,
      "v": 58
    },
    {
      "midi": 73,
      "hit": false,
      "t": 29957.13037500014,
      "d": 60.714260416669276,
      "v": 46
    },
    {
      "midi": 70,
      "hit": false,
      "t": 29964.273229166807,
      "d": 28.571416666665755,
      "v": 35
    },
    {
      "midi": 66,
      "hit": false,
      "t": 30057.130333333476,
      "d": 71.42854166667166,
      "v": 51
    },
    {
      "midi": 54,
      "hit": false,
      "t": 30064.273187500145,
      "d": 71.42854166667166,
      "v": 35
    },
    {
      "midi": 58,
      "hit": false,
      "t": 30064.273187500145,
      "d": 78.57139583333992,
      "v": 34
    },
    {
      "midi": 74,
      "hit": false,
      "t": 30167.844572916816,
      "d": 28.571416666665755,
      "v": 70
    },
    {
      "midi": 50,
      "hit": false,
      "t": 30196.415989583482,
      "d": 28.571416666665755,
      "v": 55
    },
    {
      "midi": 66,
      "hit": false,
      "t": 30299.987375000146,
      "d": 57.14283333333515,
      "v": 58
    },
    {
      "midi": 88,
      "hit": false,
      "t": 30367.84448958348,
      "d": 46.4285520833364,
      "v": 92
    },
    {
      "midi": 76,
      "hit": false,
      "t": 30374.98734375015,
      "d": 17.857135416667006,
      "v": 78
    },
    {
      "midi": 59,
      "hit": false,
      "t": 30407.130187500148,
      "d": 24.999989583335264,
      "v": 52
    },
    {
      "midi": 54,
      "hit": false,
      "t": 30424.987322916815,
      "d": 42.85712500000227,
      "v": 38
    },
    {
      "midi": 86,
      "hit": false,
      "t": 30442.844458333482,
      "d": 42.85712500000227,
      "v": 96
    },
    {
      "midi": 74,
      "hit": false,
      "t": 30449.98731250015,
      "d": 21.428562500001135,
      "v": 80
    },
    {
      "midi": 46,
      "hit": false,
      "t": 30589.27296875015,
      "d": 39.28569791666814,
      "v": 75
    },
    {
      "midi": 73,
      "hit": false,
      "t": 30592.844395833483,
      "d": 53.57140625000102,
      "v": 79
    },
    {
      "midi": 85,
      "hit": false,
      "t": 30592.844395833483,
      "d": 74.99996875000215,
      "v": 81
    },
    {
      "midi": 78,
      "hit": false,
      "t": 30710.701489583484,
      "d": 53.57140624999738,
      "v": 69
    },
    {
      "midi": 76,
      "hit": false,
      "t": 30721.415770833482,
      "d": 21.428562500001135,
      "v": 51
    },
    {
      "midi": 64,
      "hit": false,
      "t": 30721.415770833482,
      "d": 32.142843749999884,
      "v": 58
    },
    {
      "midi": 86,
      "hit": false,
      "t": 30835.70143750015,
      "d": 32.14284375000352,
      "v": 82
    },
    {
      "midi": 54,
      "hit": false,
      "t": 30839.272864583483,
      "d": 21.428562500001135,
      "v": 56
    },
    {
      "midi": 74,
      "hit": false,
      "t": 30839.272864583483,
      "d": 24.999989583335264,
      "v": 63
    },
    {
      "midi": 83,
      "hit": false,
      "t": 30967.844239583483,
      "d": 46.4285520833364,
      "v": 83
    },
    {
      "midi": 47,
      "hit": false,
      "t": 30971.415666666817,
      "d": 21.428562500001135,
      "v": 66
    },
    {
      "midi": 71,
      "hit": false,
      "t": 30971.415666666817,
      "d": 39.28569791666814,
      "v": 77
    },
    {
      "midi": 78,
      "hit": false,
      "t": 31074.98705208349,
      "d": 53.57140625000102,
      "v": 69
    },
    {
      "midi": 62,
      "hit": false,
      "t": 31092.844187500155,
      "d": 32.142843749999884,
      "v": 41
    },
    {
      "midi": 86,
      "hit": false,
      "t": 31203.558427083488,
      "d": 42.85712499999863,
      "v": 82
    },
    {
      "midi": 54,
      "hit": false,
      "t": 31217.84413541682,
      "d": 17.857135416667006,
      "v": 44
    },
    {
      "midi": 74,
      "hit": false,
      "t": 31217.84413541682,
      "d": 17.857135416667006,
      "v": 67
    },
    {
      "midi": 78,
      "hit": false,
      "t": 31353.558364583485,
      "d": 74.99996875000215,
      "v": 85
    },
    {
      "midi": 66,
      "hit": false,
      "t": 31357.12979166682,
      "d": 53.57140625000102,
      "v": 72
    },
    {
      "midi": 45,
      "hit": false,
      "t": 31364.272645833487,
      "d": 53.57140625000102,
      "v": 63
    },
    {
      "midi": 75,
      "hit": false,
      "t": 31471.415458333486,
      "d": 67.85711458333026,
      "v": 60
    },
    {
      "midi": 60,
      "hit": false,
      "t": 31482.129739583484,
      "d": 35.714270833330374,
      "v": 51
    },
    {
      "midi": 72,
      "hit": false,
      "t": 31492.844020833483,
      "d": 24.999989583331626,
      "v": 46
    },
    {
      "midi": 79,
      "hit": false,
      "t": 31585.70112500015,
      "d": 46.4285520833364,
      "v": 83
    },
    {
      "midi": 51,
      "hit": false,
      "t": 31599.98683333348,
      "d": 21.428562500001135,
      "v": 46
    },
    {
      "midi": 67,
      "hit": false,
      "t": 31599.98683333348,
      "d": 28.571416666669393,
      "v": 39
    },
    {
      "midi": 64,
      "hit": false,
      "t": 31721.41535416682,
      "d": 53.57140625000102,
      "v": 80
    },
    {
      "midi": 76,
      "hit": false,
      "t": 31721.41535416682,
      "d": 74.99996875000215,
      "v": 88
    },
    {
      "midi": 43,
      "hit": false,
      "t": 31724.986781250154,
      "d": 49.99997916666689,
      "v": 66
    },
    {
      "midi": 59,
      "hit": false,
      "t": 31842.843875000155,
      "d": 42.85712499999863,
      "v": 49
    },
    {
      "midi": 71,
      "hit": false,
      "t": 31842.843875000155,
      "d": 46.42855208333276,
      "v": 70
    },
    {
      "midi": 67,
      "hit": false,
      "t": 31842.843875000155,
      "d": 60.71426041666564,
      "v": 60
    },
    {
      "midi": 71,
      "hit": false,
      "t": 31964.272395833486,
      "d": 21.428562500001135,
      "v": 61
    },
    {
      "midi": 83,
      "hit": false,
      "t": 31964.272395833486,
      "d": 39.28569791666814,
      "v": 85
    },
    {
      "midi": 52,
      "hit": false,
      "t": 31964.272395833486,
      "d": 60.714260416669276,
      "v": 60
    },
    {
      "midi": 42,
      "hit": false,
      "t": 32099.986625000158,
      "d": 85.7142500000009,
      "v": 64
    },
    {
      "midi": 74,
      "hit": false,
      "t": 32103.558052083492,
      "d": 67.8571145833339,
      "v": 93
    },
    {
      "midi": 62,
      "hit": false,
      "t": 32110.70090625016,
      "d": 42.85712499999863,
      "v": 80
    },
    {
      "midi": 54,
      "hit": false,
      "t": 32214.272291666824,
      "d": 71.42854166666802,
      "v": 51
    },
    {
      "midi": 71,
      "hit": false,
      "t": 32221.415145833493,
      "d": 53.57140625000102,
      "v": 68
    },
    {
      "midi": 66,
      "hit": false,
      "t": 32228.55800000016,
      "d": 24.999989583331626,
      "v": 34
    },
    {
      "midi": 47,
      "hit": false,
      "t": 32342.843666666828,
      "d": 24.999989583331626,
      "v": 53
    },
    {
      "midi": 76,
      "hit": false,
      "t": 32342.843666666828,
      "d": 42.85712499999863,
      "v": 83
    },
    {
      "midi": 64,
      "hit": false,
      "t": 32357.12937500016,
      "d": 21.428562499997497,
      "v": 64
    },
    {
      "midi": 40,
      "hit": false,
      "t": 32474.986468750158,
      "d": 46.4285520833364,
      "v": 61
    },
    {
      "midi": 61,
      "hit": false,
      "t": 32474.986468750158,
      "d": 67.85711458333753,
      "v": 79
    },
    {
      "midi": 73,
      "hit": false,
      "t": 32474.986468750158,
      "d": 85.71425000000454,
      "v": 90
    },
    {
      "midi": 70,
      "hit": false,
      "t": 32589.272135416828,
      "d": 46.42855208333276,
      "v": 65
    },
    {
      "midi": 67,
      "hit": false,
      "t": 32599.986416666827,
      "d": 21.428562500001135,
      "v": 50
    },
    {
      "midi": 55,
      "hit": false,
      "t": 32599.986416666827,
      "d": 53.57140625000102,
      "v": 57
    },
    {
      "midi": 79,
      "hit": false,
      "t": 32707.12922916683,
      "d": 32.142843749999884,
      "v": 97
    },
    {
      "midi": 67,
      "hit": false,
      "t": 32707.12922916683,
      "d": 35.71427083333401,
      "v": 82
    },
    {
      "midi": 46,
      "hit": false,
      "t": 32717.843510416827,
      "d": 71.42854166667166,
      "v": 45
    },
    {
      "midi": 79,
      "hit": false,
      "t": 32839.27203125016,
      "d": 78.571395833329,
      "v": 102
    },
    {
      "midi": 67,
      "hit": false,
      "t": 32842.8434583335,
      "d": 49.99997916666325,
      "v": 94
    },
    {
      "midi": 40,
      "hit": false,
      "t": 32846.41488541683,
      "d": 28.571416666665755,
      "v": 52
    },
    {
      "midi": 73,
      "hit": false,
      "t": 32957.12912500016,
      "d": 60.71426041666564,
      "v": 70
    },
    {
      "midi": 70,
      "hit": false,
      "t": 32960.700552083494,
      "d": 39.28569791666814,
      "v": 55
    },
    {
      "midi": 55,
      "hit": false,
      "t": 32964.27197916683,
      "d": 57.14283333333151,
      "v": 47
    },
    {
      "midi": 49,
      "hit": false,
      "t": 33071.41479166682,
      "d": 92.8571041666728,
      "v": 60
    },
    {
      "midi": 70,
      "hit": false,
      "t": 33085.70050000016,
      "d": 32.142843749999884,
      "v": 91
    },
    {
      "midi": 82,
      "hit": false,
      "t": 33085.70050000016,
      "d": 39.28569791666814,
      "v": 99
    },
    {
      "midi": 85,
      "hit": false,
      "t": 33217.84330208349,
      "d": 42.85712500000227,
      "v": 105
    },
    {
      "midi": 73,
      "hit": false,
      "t": 33221.41472916683,
      "d": 35.71427083333401,
      "v": 95
    },
    {
      "midi": 46,
      "hit": false,
      "t": 33228.557583333495,
      "d": 192.8570624999993,
      "v": 43
    },
    {
      "midi": 55,
      "hit": false,
      "t": 33324.986114583495,
      "d": 71.42854166666802,
      "v": 54
    },
    {
      "midi": 86,
      "hit": false,
      "t": 33332.12896875016,
      "d": 42.85712500000227,
      "v": 107
    },
    {
      "midi": 74,
      "hit": false,
      "t": 33335.7003958335,
      "d": 28.571416666665755,
      "v": 96
    },
    {
      "midi": 49,
      "hit": false,
      "t": 33424.98607291683,
      "d": 17.85713541666337,
      "v": 61
    },
    {
      "midi": 76,
      "hit": false,
      "t": 33449.98606250016,
      "d": 35.71427083333401,
      "v": 99
    },
    {
      "midi": 88,
      "hit": false,
      "t": 33449.98606250016,
      "d": 42.85712500000227,
      "v": 109
    },
    {
      "midi": 38,
      "hit": false,
      "t": 33603.5574270835,
      "d": 42.85712500000227,
      "v": 75
    },
    {
      "midi": 91,
      "hit": false,
      "t": 33603.5574270835,
      "d": 228.5713333333406,
      "v": 103
    },
    {
      "midi": 79,
      "hit": false,
      "t": 33610.70028125017,
      "d": 89.2856770833314,
      "v": 89
    },
    {
      "midi": 59,
      "hit": false,
      "t": 33732.1288020835,
      "d": 60.714260416672914,
      "v": 59
    },
    {
      "midi": 86,
      "hit": false,
      "t": 33732.1288020835,
      "d": 203.57134375000896,
      "v": 67
    },
    {
      "midi": 83,
      "hit": false,
      "t": 33746.414510416835,
      "d": 74.99996875000215,
      "v": 36
    },
    {
      "midi": 79,
      "hit": false,
      "t": 33846.414468750176,
      "d": 49.99997916666325,
      "v": 74
    },
    {
      "midi": 50,
      "hit": false,
      "t": 33874.98588541684,
      "d": 64.28568749999977,
      "v": 57
    },
    {
      "midi": 90,
      "hit": false,
      "t": 33985.70012500018,
      "d": 217.85705208334548,
      "v": 86
    },
    {
      "midi": 62,
      "hit": false,
      "t": 33989.27155208351,
      "d": 67.8571145833339,
      "v": 62
    },
    {
      "midi": 78,
      "hit": false,
      "t": 33996.41440625018,
      "d": 67.8571145833339,
      "v": 83
    },
    {
      "midi": 59,
      "hit": false,
      "t": 34099.98579166685,
      "d": 67.85711458334117,
      "v": 47
    },
    {
      "midi": 86,
      "hit": false,
      "t": 34114.271500000184,
      "d": 99.99995833334106,
      "v": 62
    },
    {
      "midi": 83,
      "hit": false,
      "t": 34128.55720833352,
      "d": 28.571416666665755,
      "v": 42
    },
    {
      "midi": 50,
      "hit": false,
      "t": 34224.98573958353,
      "d": 17.857135416670644,
      "v": 59
    },
    {
      "midi": 78,
      "hit": false,
      "t": 34239.271447916864,
      "d": 49.99997916667053,
      "v": 69
    },
    {
      "midi": 37,
      "hit": false,
      "t": 34371.414250000205,
      "d": 46.4285520833364,
      "v": 64
    },
    {
      "midi": 89,
      "hit": false,
      "t": 34371.414250000205,
      "d": 221.4284791666796,
      "v": 89
    },
    {
      "midi": 77,
      "hit": false,
      "t": 34378.55710416687,
      "d": 57.142833333338785,
      "v": 72
    },
    {
      "midi": 85,
      "hit": false,
      "t": 34499.98562500021,
      "d": 107.14281250000931,
      "v": 54
    },
    {
      "midi": 61,
      "hit": false,
      "t": 34514.27133333355,
      "d": 35.71427083333401,
      "v": 42
    },
    {
      "midi": 83,
      "hit": false,
      "t": 34521.41418750022,
      "d": 42.85712500000227,
      "v": 35
    },
    {
      "midi": 56,
      "hit": false,
      "t": 34610.699864583556,
      "d": 21.428562500004773,
      "v": 57
    },
    {
      "midi": 77,
      "hit": false,
      "t": 34621.41414583356,
      "d": 24.999989583338902,
      "v": 66
    },
    {
      "midi": 42,
      "hit": false,
      "t": 34742.8426666669,
      "d": 46.4285520833364,
      "v": 73
    },
    {
      "midi": 88,
      "hit": false,
      "t": 34746.41409375023,
      "d": 89.28567708333867,
      "v": 77
    },
    {
      "midi": 76,
      "hit": false,
      "t": 34760.69980208357,
      "d": 57.142833333338785,
      "v": 57
    },
    {
      "midi": 82,
      "hit": false,
      "t": 34867.84261458357,
      "d": 96.42853124999237,
      "v": 51
    },
    {
      "midi": 61,
      "hit": false,
      "t": 34878.55689583357,
      "d": 46.42855208332912,
      "v": 53
    },
    {
      "midi": 78,
      "hit": false,
      "t": 34907.12831250024,
      "d": 35.71427083332674,
      "v": 22
    },
    {
      "midi": 76,
      "hit": false,
      "t": 34992.84256250023,
      "d": 46.4285520833364,
      "v": 58
    },
    {
      "midi": 54,
      "hit": false,
      "t": 35003.55684375023,
      "d": 74.99996875000215,
      "v": 37
    },
    {
      "midi": 47,
      "hit": false,
      "t": 35124.98536458357,
      "d": 46.4285520833364,
      "v": 62
    },
    {
      "midi": 86,
      "hit": false,
      "t": 35128.5567916669,
      "d": 82.14282291667041,
      "v": 74
    },
    {
      "midi": 74,
      "hit": false,
      "t": 35135.69964583357,
      "d": 57.14283333333151,
      "v": 61
    },
    {
      "midi": 62,
      "hit": false,
      "t": 35242.84245833357,
      "d": 60.71426041666564,
      "v": 44
    },
    {
      "midi": 78,
      "hit": false,
      "t": 35253.556739583575,
      "d": 89.2856770833314,
      "v": 46
    },
    {
      "midi": 83,
      "hit": false,
      "t": 35253.556739583575,
      "d": 89.2856770833314,
      "v": 60
    },
    {
      "midi": 54,
      "hit": false,
      "t": 35357.12812500024,
      "d": 17.857135416670644,
      "v": 58
    },
    {
      "midi": 74,
      "hit": false,
      "t": 35364.27097916691,
      "d": 17.857135416670644,
      "v": 74
    },
    {
      "midi": 74,
      "hit": false,
      "t": 35514.270916666916,
      "d": 107.14281250000931,
      "v": 92
    },
    {
      "midi": 62,
      "hit": false,
      "t": 35517.84234375025,
      "d": 60.714260416672914,
      "v": 74
    },
    {
      "midi": 41,
      "hit": false,
      "t": 35532.128052083586,
      "d": 57.142833333338785,
      "v": 56
    },
    {
      "midi": 56,
      "hit": false,
      "t": 35642.84229166692,
      "d": 46.4285520833364,
      "v": 60
    },
    {
      "midi": 71,
      "hit": false,
      "t": 35642.84229166692,
      "d": 132.14280208333366,
      "v": 67
    },
    {
      "midi": 68,
      "hit": false,
      "t": 35646.41371875026,
      "d": 82.14282291667041,
      "v": 52
    },
    {
      "midi": 62,
      "hit": false,
      "t": 35749.985104166924,
      "d": 17.85713541666337,
      "v": 66
    },
    {
      "midi": 47,
      "hit": false,
      "t": 35774.985093750256,
      "d": 35.71427083333401,
      "v": 60
    },
    {
      "midi": 86,
      "hit": false,
      "t": 35914.27075000026,
      "d": 242.8570416666771,
      "v": 93
    },
    {
      "midi": 74,
      "hit": false,
      "t": 35921.413604166926,
      "d": 78.57139583333628,
      "v": 80
    },
    {
      "midi": 42,
      "hit": false,
      "t": 35921.413604166926,
      "d": 249.99989583334536,
      "v": 57
    },
    {
      "midi": 54,
      "hit": false,
      "t": 36042.842125000265,
      "d": 82.14282291667041,
      "v": 51
    },
    {
      "midi": 83,
      "hit": false,
      "t": 36053.55640625027,
      "d": 207.14277083333582,
      "v": 63
    },
    {
      "midi": 78,
      "hit": false,
      "t": 36060.699260416935,
      "d": 192.8570624999993,
      "v": 51
    },
    {
      "midi": 47,
      "hit": false,
      "t": 36160.69921875027,
      "d": 39.28569791666814,
      "v": 59
    },
    {
      "midi": 74,
      "hit": false,
      "t": 36178.55635416694,
      "d": 42.857124999994994,
      "v": 66
    },
    {
      "midi": 85,
      "hit": false,
      "t": 36303.556302083605,
      "d": 264.2856041666819,
      "v": 88
    },
    {
      "midi": 73,
      "hit": false,
      "t": 36314.27058333361,
      "d": 103.57138541666791,
      "v": 60
    },
    {
      "midi": 40,
      "hit": false,
      "t": 36339.27057291694,
      "d": 210.71419791667722,
      "v": 54
    },
    {
      "midi": 78,
      "hit": false,
      "t": 36446.41338541694,
      "d": 117.8570937500117,
      "v": 26
    },
    {
      "midi": 82,
      "hit": false,
      "t": 36453.55623958361,
      "d": 128.5713750000141,
      "v": 47
    },
    {
      "midi": 54,
      "hit": false,
      "t": 36457.127666666944,
      "d": 74.99996875000943,
      "v": 36
    },
    {
      "midi": 73,
      "hit": false,
      "t": 36574.984760416955,
      "d": 35.71427083333401,
      "v": 53
    },
    {
      "midi": 46,
      "hit": false,
      "t": 36589.27046875029,
      "d": 57.14283333333151,
      "v": 42
    },
    {
      "midi": 38,
      "hit": false,
      "t": 36735.698979166955,
      "d": 53.57140625000466,
      "v": 48
    },
    {
      "midi": 66,
      "hit": false,
      "t": 36735.698979166955,
      "d": 164.28564583334082,
      "v": 74
    },
    {
      "midi": 59,
      "hit": false,
      "t": 36878.5560625003,
      "d": 71.42854166666075,
      "v": 46
    },
    {
      "midi": 73,
      "hit": false,
      "t": 36878.5560625003,
      "d": 92.85710416665825,
      "v": 67
    },
    {
      "midi": 78,
      "hit": false,
      "t": 36878.5560625003,
      "d": 124.99994791665813,
      "v": 68
    },
    {
      "midi": 54,
      "hit": false,
      "t": 36992.841729166954,
      "d": 60.71426041666564,
      "v": 60
    },
    {
      "midi": 66,
      "hit": false,
      "t": 36992.841729166954,
      "d": 92.85710416666552,
      "v": 64
    },
    {
      "midi": 78,
      "hit": false,
      "t": 37107.12739583362,
      "d": 114.2856666666703,
      "v": 75
    },
    {
      "midi": 50,
      "hit": false,
      "t": 37117.84167708362,
      "d": 99.99995833333378,
      "v": 58
    },
    {
      "midi": 71,
      "hit": false,
      "t": 37124.98453125029,
      "d": 67.8571145833339,
      "v": 71
    },
    {
      "midi": 62,
      "hit": false,
      "t": 37214.27020833362,
      "d": 74.99996875000215,
      "v": 51
    },
    {
      "midi": 66,
      "hit": false,
      "t": 37228.555916666955,
      "d": 85.71424999999726,
      "v": 67
    },
    {
      "midi": 78,
      "hit": false,
      "t": 37346.41301041695,
      "d": 89.28567708333867,
      "v": 79
    },
    {
      "midi": 54,
      "hit": false,
      "t": 37357.127291666955,
      "d": 67.8571145833339,
      "v": 55
    },
    {
      "midi": 71,
      "hit": false,
      "t": 37364.27014583362,
      "d": 39.28569791666814,
      "v": 63
    },
    {
      "midi": 65,
      "hit": false,
      "t": 37482.12723958363,
      "d": 92.8571041666728,
      "v": 82
    },
    {
      "midi": 49,
      "hit": false,
      "t": 37492.84152083363,
      "d": 207.14277083332854,
      "v": 55
    },
    {
      "midi": 61,
      "hit": false,
      "t": 37596.4129062503,
      "d": 78.571395833329,
      "v": 34
    },
    {
      "midi": 71,
      "hit": false,
      "t": 37599.98433333363,
      "d": 53.57140624999738,
      "v": 61
    },
    {
      "midi": 77,
      "hit": false,
      "t": 37599.98433333363,
      "d": 53.57140624999738,
      "v": 77
    },
    {
      "midi": 56,
      "hit": false,
      "t": 37699.98429166696,
      "d": 17.85713541666337,
      "v": 35
    },
    {
      "midi": 64,
      "hit": false,
      "t": 37717.84142708362,
      "d": 82.14282291666314,
      "v": 82
    },
    {
      "midi": 42,
      "hit": false,
      "t": 37835.69852083362,
      "d": 49.99997916667053,
      "v": 62
    },
    {
      "midi": 76,
      "hit": false,
      "t": 37846.41280208362,
      "d": 85.71425000000454,
      "v": 82
    },
    {
      "midi": 70,
      "hit": false,
      "t": 37849.984229166956,
      "d": 74.99996875000215,
      "v": 69
    },
    {
      "midi": 64,
      "hit": false,
      "t": 37967.84132291696,
      "d": 71.42854166666802,
      "v": 75
    },
    {
      "midi": 61,
      "hit": false,
      "t": 37971.412750000294,
      "d": 74.99996875000215,
      "v": 60
    },
    {
      "midi": 70,
      "hit": false,
      "t": 38089.2698437503,
      "d": 64.28568749999977,
      "v": 69
    },
    {
      "midi": 76,
      "hit": false,
      "t": 38092.84127083363,
      "d": 21.428562499997497,
      "v": 70
    },
    {
      "midi": 63,
      "hit": false,
      "t": 38221.41264583363,
      "d": 89.28567708333867,
      "v": 77
    },
    {
      "midi": 47,
      "hit": false,
      "t": 38224.98407291697,
      "d": 171.4285000000018,
      "v": 65
    },
    {
      "midi": 75,
      "hit": false,
      "t": 38335.6983125003,
      "d": 74.99996875000215,
      "v": 77
    },
    {
      "midi": 66,
      "hit": false,
      "t": 38349.98402083364,
      "d": 24.999989583331626,
      "v": 45
    },
    {
      "midi": 59,
      "hit": false,
      "t": 38349.98402083364,
      "d": 53.57140624999738,
      "v": 42
    },
    {
      "midi": 71,
      "hit": false,
      "t": 38349.98402083364,
      "d": 60.71426041666564,
      "v": 64
    },
    {
      "midi": 62,
      "hit": false,
      "t": 38449.98397916697,
      "d": 78.571395833329,
      "v": 81
    },
    {
      "midi": 54,
      "hit": false,
      "t": 38457.12683333364,
      "d": 17.85713541666337,
      "v": 59
    },
    {
      "midi": 74,
      "hit": false,
      "t": 38592.8410625003,
      "d": 99.99995833334106,
      "v": 85
    },
    {
      "midi": 71,
      "hit": false,
      "t": 38603.555343750304,
      "d": 85.71425000000454,
      "v": 74
    },
    {
      "midi": 41,
      "hit": false,
      "t": 38607.12677083364,
      "d": 49.99997916667053,
      "v": 67
    },
    {
      "midi": 67,
      "hit": false,
      "t": 38607.12677083364,
      "d": 49.99997916667053,
      "v": 74
    },
    {
      "midi": 62,
      "hit": false,
      "t": 38721.41243750031,
      "d": 64.28568749999977,
      "v": 72
    },
    {
      "midi": 55,
      "hit": false,
      "t": 38724.98386458364,
      "d": 39.28569791666814,
      "v": 51
    },
    {
      "midi": 47,
      "hit": false,
      "t": 38839.269531250306,
      "d": 21.428562500004773,
      "v": 63
    },
    {
      "midi": 74,
      "hit": false,
      "t": 38842.84095833364,
      "d": 53.57140625000466,
      "v": 74
    },
    {
      "midi": 67,
      "hit": false,
      "t": 38846.412385416974,
      "d": 60.714260416672914,
      "v": 66
    },
    {
      "midi": 71,
      "hit": false,
      "t": 38849.98381250031,
      "d": 71.4285416666753,
      "v": 60
    },
    {
      "midi": 60,
      "hit": false,
      "t": 38982.126614583656,
      "d": 146.42851041667745,
      "v": 86
    },
    {
      "midi": 40,
      "hit": false,
      "t": 38985.69804166699,
      "d": 57.142833333338785,
      "v": 66
    },
    {
      "midi": 72,
      "hit": false,
      "t": 39099.98370833366,
      "d": 67.85711458334117,
      "v": 83
    },
    {
      "midi": 67,
      "hit": false,
      "t": 39107.12656250033,
      "d": 46.4285520833364,
      "v": 68
    },
    {
      "midi": 55,
      "hit": false,
      "t": 39117.84084375033,
      "d": 39.28569791666814,
      "v": 22
    },
    {
      "midi": 59,
      "hit": false,
      "t": 39221.412229167,
      "d": 103.57138541666791,
      "v": 83
    },
    {
      "midi": 48,
      "hit": false,
      "t": 39232.126510417,
      "d": 21.428562499997497,
      "v": 60
    },
    {
      "midi": 71,
      "hit": false,
      "t": 39349.983604167,
      "d": 67.8571145833339,
      "v": 86
    },
    {
      "midi": 66,
      "hit": false,
      "t": 39353.55503125033,
      "d": 92.8571041666728,
      "v": 71
    },
    {
      "midi": 64,
      "hit": false,
      "t": 39360.697885417,
      "d": 64.28568749999977,
      "v": 74
    },
    {
      "midi": 42,
      "hit": false,
      "t": 39360.697885417,
      "d": 235.71418750000885,
      "v": 69
    },
    {
      "midi": 58,
      "hit": false,
      "t": 39471.41212500034,
      "d": 117.85709375000442,
      "v": 79
    },
    {
      "midi": 54,
      "hit": false,
      "t": 39485.697833333674,
      "d": 71.42854166666802,
      "v": 64
    },
    {
      "midi": 66,
      "hit": false,
      "t": 39578.55493750034,
      "d": 39.28569791667542,
      "v": 65
    },
    {
      "midi": 70,
      "hit": false,
      "t": 39585.69779166701,
      "d": 39.28569791667542,
      "v": 80
    },
    {
      "midi": 49,
      "hit": false,
      "t": 39589.26921875034,
      "d": 17.857135416670644,
      "v": 58
    },
    {
      "midi": 83,
      "hit": false,
      "t": 39810.697697917014,
      "d": 99.99995833334833,
      "v": 91
    },
    {
      "midi": 71,
      "hit": false,
      "t": 39814.26912500035,
      "d": 82.14282291667769,
      "v": 80
    },
    {
      "midi": 75,
      "hit": false,
      "t": 39814.26912500035,
      "d": 117.8570937500117,
      "v": 80
    },
    {
      "midi": 35,
      "hit": false,
      "t": 39828.554833333685,
      "d": 57.142833333338785,
      "v": 79
    },
    {
      "midi": 47,
      "hit": false,
      "t": 39832.12626041702,
      "d": 49.99997916667053,
      "v": 82
    },
    {
      "midi": 63,
      "hit": false,
      "t": 40278.55464583369,
      "d": 364.2855625000011,
      "v": 85
    },
    {
      "midi": 59,
      "hit": false,
      "t": 40289.26892708369,
      "d": 289.28559374999895,
      "v": 75
    },
    {
      "midi": 54,
      "hit": false,
      "t": 40296.41178125036,
      "d": 257.14274999999907,
      "v": 76
    },
    {
      "midi": 47,
      "hit": false,
      "t": 40296.41178125036,
      "d": 621.4283125000147,
      "v": 76
    },
    {
      "midi": 64,
      "hit": false,
      "t": 40682.12590625036,
      "d": 99.99995833334106,
      "v": 81
    },
    {
      "midi": 56,
      "hit": false,
      "t": 40696.411614583696,
      "d": 74.99996875000215,
      "v": 68
    },
    {
      "midi": 59,
      "hit": false,
      "t": 40699.98304166703,
      "d": 28.571416666665755,
      "v": 38
    },
    {
      "midi": 63,
      "hit": false,
      "t": 40796.41157291704,
      "d": 74.99996875000215,
      "v": 78
    },
    {
      "midi": 54,
      "hit": false,
      "t": 40803.554427083705,
      "d": 67.8571145833339,
      "v": 67
    },
    {
      "midi": 52,
      "hit": false,
      "t": 40910.69723958371,
      "d": 89.2856770833314,
      "v": 62
    },
    {
      "midi": 68,
      "hit": false,
      "t": 40914.26866666704,
      "d": 82.14282291666314,
      "v": 81
    },
    {
      "midi": 58,
      "hit": false,
      "t": 40917.840093750376,
      "d": 57.14283333333151,
      "v": 51
    },
    {
      "midi": 51,
      "hit": false,
      "t": 41053.55432291704,
      "d": 49.99997916667053,
      "v": 75
    },
    {
      "midi": 59,
      "hit": false,
      "t": 41053.55432291704,
      "d": 64.28568750000704,
      "v": 71
    },
    {
      "midi": 66,
      "hit": false,
      "t": 41053.55432291704,
      "d": 82.14282291667041,
      "v": 79
    },
    {
      "midi": 59,
      "hit": false,
      "t": 41328.55420833372,
      "d": 89.28567708333867,
      "v": 86
    },
    {
      "midi": 53,
      "hit": false,
      "t": 41332.125635417055,
      "d": 46.4285520833364,
      "v": 77
    },
    {
      "midi": 46,
      "hit": false,
      "t": 41339.26848958372,
      "d": 17.85713541666337,
      "v": 72
    },
    {
      "midi": 49,
      "hit": false,
      "t": 41339.26848958372,
      "d": 24.999989583331626,
      "v": 62
    },
    {
      "midi": 61,
      "hit": false,
      "t": 41478.554145833725,
      "d": 139.2856562500092,
      "v": 86
    },
    {
      "midi": 52,
      "hit": false,
      "t": 41485.69700000039,
      "d": 74.99996875000215,
      "v": 82
    },
    {
      "midi": 59,
      "hit": false,
      "t": 41485.69700000039,
      "d": 96.42853125000693,
      "v": 83
    },
    {
      "midi": 42,
      "hit": false,
      "t": 41492.83985416706,
      "d": 135.71422916667507,
      "v": 85
    },
    {
      "midi": 30,
      "hit": false,
      "t": 41499.98270833373,
      "d": 135.71422916667507,
      "v": 71
    },
    {
      "midi": 92,
      "hit": false,
      "t": 41914.2682500004,
      "d": 107.14281250000931,
      "v": 77
    },
    {
      "midi": 58,
      "hit": false,
      "t": 41921.41110416707,
      "d": 282.1427395833525,
      "v": 83
    },
    {
      "midi": 49,
      "hit": false,
      "t": 41928.55395833374,
      "d": 292.8570208333549,
      "v": 60
    },
    {
      "midi": 52,
      "hit": false,
      "t": 41932.12538541707,
      "d": 260.71417708334775,
      "v": 64
    },
    {
      "midi": 54,
      "hit": false,
      "t": 41942.839666667074,
      "d": 17.85713541666337,
      "v": 47
    },
    {
      "midi": 90,
      "hit": false,
      "t": 41992.83964583374,
      "d": 64.28568750000704,
      "v": 69
    },
    {
      "midi": 88,
      "hit": false,
      "t": 42060.69676041708,
      "d": 42.85712500000227,
      "v": 72
    },
    {
      "midi": 87,
      "hit": false,
      "t": 42117.83959375042,
      "d": 96.42853125000693,
      "v": 70
    },
    {
      "midi": 85,
      "hit": false,
      "t": 42182.12528125042,
      "d": 57.142833333338785,
      "v": 69
    },
    {
      "midi": 83,
      "hit": false,
      "t": 42246.410968750424,
      "d": 49.99997916666325,
      "v": 72
    },
    {
      "midi": 82,
      "hit": false,
      "t": 42317.839510417085,
      "d": 82.14282291667041,
      "v": 58
    },
    {
      "midi": 59,
      "hit": false,
      "t": 42328.55379166709,
      "d": 189.28563541666517,
      "v": 84
    },
    {
      "midi": 54,
      "hit": false,
      "t": 42339.26807291709,
      "d": 167.8570729166604,
      "v": 58
    },
    {
      "midi": 49,
      "hit": false,
      "t": 42342.839500000424,
      "d": 32.142843749999884,
      "v": 25
    },
    {
      "midi": 52,
      "hit": false,
      "t": 42342.839500000424,
      "d": 146.4285104166629,
      "v": 59
    },
    {
      "midi": 80,
      "hit": false,
      "t": 42392.83947916709,
      "d": 96.42853124999965,
      "v": 60
    },
    {
      "midi": 78,
      "hit": false,
      "t": 42460.69659375042,
      "d": 49.99997916666325,
      "v": 63
    },
    {
      "midi": 76,
      "hit": false,
      "t": 42528.553708333755,
      "d": 49.99997916666325,
      "v": 63
    },
    {
      "midi": 75,
      "hit": false,
      "t": 42585.69654166709,
      "d": 67.8571145833339,
      "v": 65
    },
    {
      "midi": 73,
      "hit": false,
      "t": 42657.125083333754,
      "d": 57.14283333333151,
      "v": 63
    },
    {
      "midi": 71,
      "hit": false,
      "t": 42735.69647916708,
      "d": 49.99997916667053,
      "v": 56
    },
    {
      "midi": 63,
      "hit": false,
      "t": 42735.69647916708,
      "d": 192.85706250000658,
      "v": 85
    },
    {
      "midi": 52,
      "hit": false,
      "t": 42739.26790625042,
      "d": 260.71417708334775,
      "v": 52
    },
    {
      "midi": 54,
      "hit": false,
      "t": 42746.410760417086,
      "d": 282.1427395833525,
      "v": 53
    },
    {
      "midi": 70,
      "hit": false,
      "t": 42803.55359375042,
      "d": 60.714260416672914,
      "v": 53
    },
    {
      "midi": 68,
      "hit": false,
      "t": 42864.26785416709,
      "d": 67.8571145833339,
      "v": 64
    },
    {
      "midi": 66,
      "hit": false,
      "t": 42935.69639583376,
      "d": 42.857125000009546,
      "v": 59
    },
    {
      "midi": 61,
      "hit": false,
      "t": 42996.41065625043,
      "d": 42.857125000009546,
      "v": 85
    },
    {
      "midi": 65,
      "hit": false,
      "t": 42996.41065625043,
      "d": 53.57140625001193,
      "v": 67
    },
    {
      "midi": 64,
      "hit": false,
      "t": 43064.26777083378,
      "d": 71.42854166666802,
      "v": 70
    },
    {
      "midi": 63,
      "hit": false,
      "t": 43167.83915625045,
      "d": 364.28556250002293,
      "v": 82
    },
    {
      "midi": 59,
      "hit": false,
      "t": 43196.41057291712,
      "d": 210.71419791667722,
      "v": 55
    },
    {
      "midi": 54,
      "hit": false,
      "t": 43196.41057291712,
      "d": 224.99990625001374,
      "v": 54
    },
    {
      "midi": 47,
      "hit": false,
      "t": 43207.12485416712,
      "d": 199.99991666667484,
      "v": 57
    },
    {
      "midi": 62,
      "hit": false,
      "t": 43617.83896875047,
      "d": 28.571416666665755,
      "v": 60
    },
    {
      "midi": 46,
      "hit": false,
      "t": 43617.83896875047,
      "d": 160.7142187500067,
      "v": 52
    },
    {
      "midi": 65,
      "hit": false,
      "t": 43617.83896875047,
      "d": 171.42850000000908,
      "v": 85
    },
    {
      "midi": 56,
      "hit": false,
      "t": 43617.83896875047,
      "d": 189.28563541667245,
      "v": 57
    },
    {
      "midi": 59,
      "hit": false,
      "t": 44010.69594791714,
      "d": 103.57138541667518,
      "v": 58
    },
    {
      "midi": 63,
      "hit": false,
      "t": 44010.69594791714,
      "d": 114.28566666667757,
      "v": 59
    },
    {
      "midi": 68,
      "hit": false,
      "t": 44010.69594791714,
      "d": 128.5713750000141,
      "v": 81
    },
    {
      "midi": 51,
      "hit": false,
      "t": 44010.69594791714,
      "d": 399.99983333335695,
      "v": 54
    },
    {
      "midi": 58,
      "hit": false,
      "t": 44142.83875000049,
      "d": 85.71424999999726,
      "v": 63
    },
    {
      "midi": 66,
      "hit": false,
      "t": 44146.410177083824,
      "d": 103.57138541666063,
      "v": 78
    },
    {
      "midi": 56,
      "hit": false,
      "t": 44260.69584375049,
      "d": 103.57138541667518,
      "v": 55
    },
    {
      "midi": 71,
      "hit": false,
      "t": 44267.838697917156,
      "d": 89.28567708333867,
      "v": 84
    },
    {
      "midi": 62,
      "hit": false,
      "t": 44271.41012500049,
      "d": 46.4285520833364,
      "v": 70
    },
    {
      "midi": 54,
      "hit": false,
      "t": 44392.83864583383,
      "d": 67.85711458334117,
      "v": 65
    },
    {
      "midi": 70,
      "hit": false,
      "t": 44399.9815000005,
      "d": 64.28568750000704,
      "v": 81
    },
    {
      "midi": 63,
      "hit": false,
      "t": 44403.55292708383,
      "d": 49.99997916667053,
      "v": 69
    },
    {
      "midi": 35,
      "hit": false,
      "t": 44682.12423958385,
      "d": 39.28569791667542,
      "v": 77
    },
    {
      "midi": 47,
      "hit": false,
      "t": 44682.12423958385,
      "d": 39.28569791667542,
      "v": 87
    },
    {
      "midi": 53,
      "hit": false,
      "t": 44682.12423958385,
      "d": 64.28568750000704,
      "v": 80
    },
    {
      "midi": 57,
      "hit": false,
      "t": 44682.12423958385,
      "d": 67.85711458334117,
      "v": 65
    },
    {
      "midi": 63,
      "hit": false,
      "t": 44682.12423958385,
      "d": 103.57138541667518,
      "v": 85
    },
    {
      "midi": 53,
      "hit": false,
      "t": 44828.552750000534,
      "d": 99.99995833333378,
      "v": 74
    },
    {
      "midi": 34,
      "hit": false,
      "t": 44828.552750000534,
      "d": 114.2856666666703,
      "v": 77
    },
    {
      "midi": 58,
      "hit": false,
      "t": 44828.552750000534,
      "d": 124.99994791667268,
      "v": 64
    },
    {
      "midi": 46,
      "hit": false,
      "t": 44828.552750000534,
      "d": 146.42851041667018,
      "v": 85
    },
    {
      "midi": 63,
      "hit": false,
      "t": 44828.552750000534,
      "d": 149.9999375000043,
      "v": 53
    },
    {
      "midi": 65,
      "hit": false,
      "t": 44828.552750000534,
      "d": 157.14279166667257,
      "v": 83
    },
    {
      "midi": 95,
      "hit": false,
      "t": 45274.981135417205,
      "d": 85.71425000000454,
      "v": 88
    },
    {
      "midi": 62,
      "hit": false,
      "t": 45282.12398958387,
      "d": 221.42847916667233,
      "v": 78
    },
    {
      "midi": 56,
      "hit": false,
      "t": 45282.12398958387,
      "d": 239.2856145833357,
      "v": 59
    },
    {
      "midi": 58,
      "hit": false,
      "t": 45282.12398958387,
      "d": 239.2856145833357,
      "v": 58
    },
    {
      "midi": 53,
      "hit": false,
      "t": 45296.40969791721,
      "d": 185.71420833333832,
      "v": 48
    },
    {
      "midi": 94,
      "hit": false,
      "t": 45349.98110416721,
      "d": 99.99995833334106,
      "v": 80
    },
    {
      "midi": 92,
      "hit": false,
      "t": 45421.40964583388,
      "d": 110.71423958332889,
      "v": 85
    },
    {
      "midi": 90,
      "hit": false,
      "t": 45503.552468750546,
      "d": 53.57140624999738,
      "v": 71
    },
    {
      "midi": 89,
      "hit": false,
      "t": 45560.69530208388,
      "d": 42.85712500000227,
      "v": 78
    },
    {
      "midi": 87,
      "hit": false,
      "t": 45621.40956250054,
      "d": 124.99994791667996,
      "v": 73
    },
    {
      "midi": 86,
      "hit": false,
      "t": 45696.409531250545,
      "d": 42.857125000009546,
      "v": 82
    },
    {
      "midi": 53,
      "hit": false,
      "t": 45703.55238541721,
      "d": 135.71422916668234,
      "v": 35
    },
    {
      "midi": 58,
      "hit": false,
      "t": 45703.55238541721,
      "d": 167.85707291668223,
      "v": 38
    },
    {
      "midi": 56,
      "hit": false,
      "t": 45703.55238541721,
      "d": 174.99992708335049,
      "v": 38
    },
    {
      "midi": 63,
      "hit": false,
      "t": 45703.55238541721,
      "d": 221.42847916668688,
      "v": 78
    },
    {
      "midi": 83,
      "hit": false,
      "t": 45760.69521875056,
      "d": 46.4285520833364,
      "v": 68
    },
    {
      "midi": 82,
      "hit": false,
      "t": 45824.98090625056,
      "d": 89.28567708333867,
      "v": 70
    },
    {
      "midi": 80,
      "hit": false,
      "t": 45892.8380208339,
      "d": 99.99995833333378,
      "v": 77
    },
    {
      "midi": 78,
      "hit": false,
      "t": 45957.1237083339,
      "d": 57.14283333333151,
      "v": 71
    },
    {
      "midi": 77,
      "hit": false,
      "t": 46021.4093958339,
      "d": 57.14283333333151,
      "v": 75
    },
    {
      "midi": 75,
      "hit": false,
      "t": 46085.6950833339,
      "d": 117.8570937500117,
      "v": 74
    },
    {
      "midi": 66,
      "hit": false,
      "t": 46085.6950833339,
      "d": 171.42850000001636,
      "v": 83
    },
    {
      "midi": 62,
      "hit": false,
      "t": 46085.6950833339,
      "d": 257.1427500000136,
      "v": 60
    },
    {
      "midi": 58,
      "hit": false,
      "t": 46085.6950833339,
      "d": 274.99988541668426,
      "v": 50
    },
    {
      "midi": 56,
      "hit": false,
      "t": 46085.6950833339,
      "d": 285.71416666668665,
      "v": 45
    },
    {
      "midi": 74,
      "hit": false,
      "t": 46167.83790625057,
      "d": 17.857135416670644,
      "v": 68
    },
    {
      "midi": 71,
      "hit": false,
      "t": 46217.83788541725,
      "d": 49.99997916667053,
      "v": 66
    },
    {
      "midi": 70,
      "hit": false,
      "t": 46285.69500000058,
      "d": 78.57139583333628,
      "v": 67
    },
    {
      "midi": 65,
      "hit": false,
      "t": 46357.12354166725,
      "d": 53.57140625000466,
      "v": 71
    },
    {
      "midi": 69,
      "hit": false,
      "t": 46357.12354166725,
      "d": 53.57140625000466,
      "v": 70
    },
    {
      "midi": 68,
      "hit": false,
      "t": 46424.98065625059,
      "d": 67.8571145833339,
      "v": 77
    },
    {
      "midi": 67,
      "hit": false,
      "t": 46517.837760417264,
      "d": 153.57136458333844,
      "v": 82
    },
    {
      "midi": 58,
      "hit": false,
      "t": 46521.4091875006,
      "d": 164.28564583334082,
      "v": 46
    },
    {
      "midi": 51,
      "hit": false,
      "t": 46524.98061458393,
      "d": 149.9999375000043,
      "v": 53
    },
    {
      "midi": 75,
      "hit": false,
      "t": 46796.40907291728,
      "d": 96.42853124999965,
      "v": 74
    },
    {
      "midi": 67,
      "hit": false,
      "t": 46799.980500000616,
      "d": 64.28568749999977,
      "v": 62
    },
    {
      "midi": 58,
      "hit": false,
      "t": 46799.980500000616,
      "d": 82.14282291666314,
      "v": 49
    },
    {
      "midi": 51,
      "hit": false,
      "t": 46807.123354167285,
      "d": 107.14281249999476,
      "v": 47
    },
    {
      "midi": 76,
      "hit": false,
      "t": 46935.69472916728,
      "d": 71.42854166666802,
      "v": 79
    },
    {
      "midi": 50,
      "hit": false,
      "t": 46939.26615625061,
      "d": 74.99996875000215,
      "v": 63
    },
    {
      "midi": 68,
      "hit": false,
      "t": 46949.98043750061,
      "d": 39.28569791666814,
      "v": 56
    },
    {
      "midi": 75,
      "hit": false,
      "t": 47060.69467708395,
      "d": 82.14282291667769,
      "v": 77
    },
    {
      "midi": 67,
      "hit": false,
      "t": 47067.83753125062,
      "d": 49.99997916667053,
      "v": 59
    },
    {
      "midi": 51,
      "hit": false,
      "t": 47067.83753125062,
      "d": 428.5712500000227,
      "v": 55
    },
    {
      "midi": 59,
      "hit": false,
      "t": 47189.26605208396,
      "d": 85.71425000000454,
      "v": 51
    },
    {
      "midi": 74,
      "hit": false,
      "t": 47207.123187500634,
      "d": 96.42853124999965,
      "v": 70
    },
    {
      "midi": 68,
      "hit": false,
      "t": 47214.2660416673,
      "d": 57.14283333333151,
      "v": 54
    },
    {
      "midi": 75,
      "hit": false,
      "t": 47335.694562500634,
      "d": 153.57136458333844,
      "v": 67
    },
    {
      "midi": 67,
      "hit": false,
      "t": 47349.98027083397,
      "d": 124.9999479166654,
      "v": 43
    },
    {
      "midi": 58,
      "hit": false,
      "t": 47353.551697917304,
      "d": 117.85709374999715,
      "v": 45
    },
    {
      "midi": 75,
      "hit": false,
      "t": 47628.55158333398,
      "d": 99.99995833334106,
      "v": 70
    },
    {
      "midi": 58,
      "hit": false,
      "t": 47635.69443750065,
      "d": 289.2855937500208,
      "v": 57
    },
    {
      "midi": 67,
      "hit": false,
      "t": 47639.265864583984,
      "d": 107.14281250000931,
      "v": 51
    },
    {
      "midi": 51,
      "hit": false,
      "t": 47646.40871875065,
      "d": 114.28566666667757,
      "v": 57
    },
    {
      "midi": 76,
      "hit": false,
      "t": 47771.40866666733,
      "d": 64.28568749999977,
      "v": 72
    },
    {
      "midi": 68,
      "hit": false,
      "t": 47778.551520834,
      "d": 67.8571145833339,
      "v": 51
    },
    {
      "midi": 50,
      "hit": false,
      "t": 47778.551520834,
      "d": 117.85709375000442,
      "v": 62
    },
    {
      "midi": 75,
      "hit": false,
      "t": 47889.26576041734,
      "d": 74.99996875000215,
      "v": 72
    },
    {
      "midi": 67,
      "hit": false,
      "t": 47896.408614584005,
      "d": 57.14283333333151,
      "v": 61
    },
    {
      "midi": 51,
      "hit": false,
      "t": 47907.12289583401,
      "d": 385.7141250000059,
      "v": 60
    },
    {
      "midi": 68,
      "hit": false,
      "t": 48021.40856250067,
      "d": 46.4285520833364,
      "v": 50
    },
    {
      "midi": 74,
      "hit": false,
      "t": 48021.40856250067,
      "d": 110.71423958334344,
      "v": 73
    },
    {
      "midi": 59,
      "hit": false,
      "t": 48035.69427083401,
      "d": 35.71427083333401,
      "v": 49
    },
    {
      "midi": 75,
      "hit": false,
      "t": 48164.26564583401,
      "d": 203.5713437500017,
      "v": 68
    },
    {
      "midi": 67,
      "hit": false,
      "t": 48182.12278125068,
      "d": 124.99994791667268,
      "v": 40
    },
    {
      "midi": 58,
      "hit": false,
      "t": 48185.69420833401,
      "d": 114.2856666666703,
      "v": 34
    },
    {
      "midi": 64,
      "hit": false,
      "t": 48464.265520834015,
      "d": 146.4285104166629,
      "v": 49
    },
    {
      "midi": 74,
      "hit": false,
      "t": 48464.265520834015,
      "d": 149.99993749999703,
      "v": 65
    },
    {
      "midi": 68,
      "hit": false,
      "t": 48467.83694791735,
      "d": 92.85710416666552,
      "v": 40
    },
    {
      "midi": 63,
      "hit": false,
      "t": 48624.979739584014,
      "d": 128.57137499999953,
      "v": 47
    },
    {
      "midi": 75,
      "hit": false,
      "t": 48624.979739584014,
      "d": 164.28564583333355,
      "v": 60
    },
    {
      "midi": 67,
      "hit": false,
      "t": 48646.40830208401,
      "d": 135.7142291666678,
      "v": 44
    },
    {
      "midi": 59,
      "hit": false,
      "t": 48903.55105208402,
      "d": 160.7142187500067,
      "v": 56
    },
    {
      "midi": 74,
      "hit": false,
      "t": 48910.693906250686,
      "d": 135.7142291666678,
      "v": 65
    },
    {
      "midi": 68,
      "hit": false,
      "t": 48914.26533333402,
      "d": 96.42853124999965,
      "v": 37
    },
    {
      "midi": 75,
      "hit": false,
      "t": 49046.408135417354,
      "d": 110.71423958333617,
      "v": 79
    },
    {
      "midi": 51,
      "hit": false,
      "t": 49053.55098958402,
      "d": 921.4281875000088,
      "v": 52
    },
    {
      "midi": 58,
      "hit": false,
      "t": 49057.12241666736,
      "d": 117.85709374999715,
      "v": 46
    },
    {
      "midi": 67,
      "hit": false,
      "t": 49060.69384375069,
      "d": 89.2856770833314,
      "v": 54
    },
    {
      "midi": 68,
      "hit": false,
      "t": 49178.55093750069,
      "d": 60.71426041666564,
      "v": 57
    },
    {
      "midi": 74,
      "hit": false,
      "t": 49178.55093750069,
      "d": 121.42852083333128,
      "v": 79
    },
    {
      "midi": 59,
      "hit": false,
      "t": 49182.12236458402,
      "d": 107.14281249999476,
      "v": 66
    },
    {
      "midi": 75,
      "hit": false,
      "t": 49296.408031250685,
      "d": 92.8571041666728,
      "v": 78
    },
    {
      "midi": 58,
      "hit": false,
      "t": 49307.12231250069,
      "d": 99.99995833333378,
      "v": 55
    },
    {
      "midi": 67,
      "hit": false,
      "t": 49317.83659375069,
      "d": 71.42854166666802,
      "v": 66
    },
    {
      "midi": 59,
      "hit": false,
      "t": 49439.26511458402,
      "d": 103.57138541666791,
      "v": 55
    },
    {
      "midi": 74,
      "hit": false,
      "t": 49439.26511458402,
      "d": 107.14281250000204,
      "v": 71
    },
    {
      "midi": 68,
      "hit": false,
      "t": 49446.40796875069,
      "d": 46.4285520833364,
      "v": 48
    },
    {
      "midi": 75,
      "hit": false,
      "t": 49560.69363541736,
      "d": 64.28568749999977,
      "v": 64
    },
    {
      "midi": 58,
      "hit": false,
      "t": 49560.69363541736,
      "d": 82.14282291667041,
      "v": 46
    },
    {
      "midi": 67,
      "hit": false,
      "t": 49571.40791666736,
      "d": 57.14283333333151,
      "v": 55
    },
    {
      "midi": 59,
      "hit": false,
      "t": 49682.1221562507,
      "d": 85.71424999999726,
      "v": 44
    },
    {
      "midi": 68,
      "hit": false,
      "t": 49689.265010417366,
      "d": 28.571416666665755,
      "v": 39
    },
    {
      "midi": 74,
      "hit": false,
      "t": 49689.265010417366,
      "d": 92.85710416666552,
      "v": 64
    },
    {
      "midi": 67,
      "hit": false,
      "t": 49832.122093750695,
      "d": 110.71423958333617,
      "v": 49
    },
    {
      "midi": 58,
      "hit": false,
      "t": 49832.122093750695,
      "d": 171.4285000000018,
      "v": 35
    },
    {
      "midi": 75,
      "hit": false,
      "t": 49832.122093750695,
      "d": 182.1427812500042,
      "v": 60
    },
    {
      "midi": 92,
      "hit": false,
      "t": 50221.407645834035,
      "d": 53.57140625000466,
      "v": 82
    },
    {
      "midi": 66,
      "hit": false,
      "t": 50235.69335416737,
      "d": 57.142833333338785,
      "v": 64
    },
    {
      "midi": 60,
      "hit": false,
      "t": 50242.83620833404,
      "d": 49.99997916667053,
      "v": 59
    },
    {
      "midi": 56,
      "hit": false,
      "t": 50242.83620833404,
      "d": 67.8571145833339,
      "v": 44
    },
    {
      "midi": 93,
      "hit": false,
      "t": 50292.83618750071,
      "d": 64.28568749999977,
      "v": 80
    },
    {
      "midi": 92,
      "hit": false,
      "t": 50349.97902083404,
      "d": 99.99995833334106,
      "v": 76
    },
    {
      "midi": 90,
      "hit": false,
      "t": 50424.978989584044,
      "d": 46.428552083343675,
      "v": 57
    },
    {
      "midi": 88,
      "hit": false,
      "t": 50482.12182291739,
      "d": 49.99997916666325,
      "v": 68
    },
    {
      "midi": 49,
      "hit": false,
      "t": 50535.69322916739,
      "d": 53.57140624999738,
      "v": 52
    },
    {
      "midi": 87,
      "hit": false,
      "t": 50542.836083334056,
      "d": 60.71426041666564,
      "v": 62
    },
    {
      "midi": 56,
      "hit": false,
      "t": 50571.40750000072,
      "d": 64.28568750000704,
      "v": 48
    },
    {
      "midi": 85,
      "hit": false,
      "t": 50607.121770834055,
      "d": 74.99996875000943,
      "v": 73
    },
    {
      "midi": 64,
      "hit": false,
      "t": 50621.40747916739,
      "d": 160.7142187500067,
      "v": 66
    },
    {
      "midi": 87,
      "hit": false,
      "t": 50685.6931666674,
      "d": 82.14282291666314,
      "v": 71
    },
    {
      "midi": 85,
      "hit": false,
      "t": 50749.9788541674,
      "d": 46.4285520833364,
      "v": 67
    },
    {
      "midi": 83,
      "hit": false,
      "t": 50807.12168750074,
      "d": 39.28569791666814,
      "v": 40
    },
    {
      "midi": 82,
      "hit": false,
      "t": 50864.26452083407,
      "d": 78.57139583334356,
      "v": 65
    },
    {
      "midi": 80,
      "hit": false,
      "t": 50932.12163541741,
      "d": 46.4285520833364,
      "v": 69
    },
    {
      "midi": 64,
      "hit": false,
      "t": 50989.26446875075,
      "d": 60.714260416672914,
      "v": 67
    },
    {
      "midi": 79,
      "hit": false,
      "t": 50989.26446875075,
      "d": 60.714260416672914,
      "v": 66
    },
    {
      "midi": 58,
      "hit": false,
      "t": 50992.83589583408,
      "d": 64.28568750000704,
      "v": 41
    },
    {
      "midi": 54,
      "hit": false,
      "t": 51010.69303125075,
      "d": 71.4285416666753,
      "v": 42
    },
    {
      "midi": 80,
      "hit": false,
      "t": 51042.835875000754,
      "d": 82.14282291666314,
      "v": 71
    },
    {
      "midi": 78,
      "hit": false,
      "t": 51107.12156250075,
      "d": 46.42855208332912,
      "v": 64
    },
    {
      "midi": 76,
      "hit": false,
      "t": 51164.264395834085,
      "d": 53.57140625000466,
      "v": 66
    },
    {
      "midi": 75,
      "hit": false,
      "t": 51221.407229167424,
      "d": 46.4285520833364,
      "v": 71
    },
    {
      "midi": 73,
      "hit": false,
      "t": 51282.1214895841,
      "d": 64.28568749999977,
      "v": 76
    },
    {
      "midi": 47,
      "hit": false,
      "t": 51296.40719791743,
      "d": 32.142843749999884,
      "v": 58
    },
    {
      "midi": 54,
      "hit": false,
      "t": 51324.9786145841,
      "d": 46.42855208332912,
      "v": 62
    },
    {
      "midi": 75,
      "hit": false,
      "t": 51371.40716666743,
      "d": 53.57140625000466,
      "v": 71
    },
    {
      "midi": 63,
      "hit": false,
      "t": 51385.692875000765,
      "d": 28.571416666665755,
      "v": 85
    },
    {
      "midi": 76,
      "hit": false,
      "t": 51439.26428125077,
      "d": 71.42854166666802,
      "v": 73
    },
    {
      "midi": 75,
      "hit": false,
      "t": 51499.978541667435,
      "d": 74.99996875000215,
      "v": 64
    },
    {
      "midi": 73,
      "hit": false,
      "t": 51557.121375000774,
      "d": 42.857124999994994,
      "v": 54
    },
    {
      "midi": 71,
      "hit": false,
      "t": 51614.264208334105,
      "d": 57.14283333333151,
      "v": 70
    },
    {
      "midi": 70,
      "hit": false,
      "t": 51671.40704166744,
      "d": 74.99996875000943,
      "v": 63
    },
    {
      "midi": 68,
      "hit": false,
      "t": 51742.83558333411,
      "d": 67.85711458334117,
      "v": 71
    },
    {
      "midi": 63,
      "hit": false,
      "t": 51753.549864584114,
      "d": 153.57136458333844,
      "v": 90
    },
    {
      "midi": 53,
      "hit": false,
      "t": 51757.12129166745,
      "d": 160.7142187500067,
      "v": 74
    },
    {
      "midi": 56,
      "hit": false,
      "t": 51757.12129166745,
      "d": 171.42850000000908,
      "v": 70
    },
    {
      "midi": 70,
      "hit": false,
      "t": 51817.83555208412,
      "d": 89.2856770833314,
      "v": 67
    },
    {
      "midi": 68,
      "hit": false,
      "t": 51889.26409375079,
      "d": 89.2856770833314,
      "v": 73
    },
    {
      "midi": 66,
      "hit": false,
      "t": 51953.54978125079,
      "d": 53.57140624999738,
      "v": 60
    },
    {
      "midi": 65,
      "hit": false,
      "t": 52017.83546875079,
      "d": 57.14283333333151,
      "v": 64
    },
    {
      "midi": 63,
      "hit": false,
      "t": 52071.40687500079,
      "d": 74.99996875000943,
      "v": 73
    },
    {
      "midi": 62,
      "hit": false,
      "t": 52139.26398958413,
      "d": 67.8571145833339,
      "v": 97
    },
    {
      "midi": 56,
      "hit": false,
      "t": 52149.97827083413,
      "d": 103.57138541666791,
      "v": 74
    },
    {
      "midi": 46,
      "hit": false,
      "t": 52153.549697917464,
      "d": 117.85709375000442,
      "v": 70
    },
    {
      "midi": 53,
      "hit": false,
      "t": 52157.1211250008,
      "d": 85.71424999999726,
      "v": 71
    },
    {
      "midi": 59,
      "hit": false,
      "t": 52228.54966666746,
      "d": 57.14283333334606,
      "v": 61
    },
    {
      "midi": 60,
      "hit": false,
      "t": 52235.69252083413,
      "d": 21.428562500004773,
      "v": 38
    },
    {
      "midi": 58,
      "hit": false,
      "t": 52299.97820833414,
      "d": 85.71424999999726,
      "v": 69
    },
    {
      "midi": 56,
      "hit": false,
      "t": 52367.835322917475,
      "d": 82.14282291666314,
      "v": 71
    },
    {
      "midi": 54,
      "hit": false,
      "t": 52424.97815625081,
      "d": 53.57140624999738,
      "v": 59
    },
    {
      "midi": 53,
      "hit": false,
      "t": 52482.12098958414,
      "d": 60.714260416672914,
      "v": 78
    },
    {
      "midi": 51,
      "hit": false,
      "t": 52542.83525000081,
      "d": 107.14281249999476,
      "v": 81
    },
    {
      "midi": 34,
      "hit": false,
      "t": 52549.97810416748,
      "d": 57.14283333333151,
      "v": 93
    },
    {
      "midi": 50,
      "hit": false,
      "t": 52628.54950000081,
      "d": 17.85713541666337,
      "v": 68
    },
    {
      "midi": 47,
      "hit": false,
      "t": 52667.83519791747,
      "d": 53.57140624999738,
      "v": 60
    },
    {
      "midi": 46,
      "hit": false,
      "t": 52732.12088541747,
      "d": 39.28569791666814,
      "v": 82
    },
    {
      "midi": 41,
      "hit": false,
      "t": 52799.9780000008,
      "d": 57.14283333333151,
      "v": 82
    },
    {
      "midi": 46,
      "hit": false,
      "t": 52853.5494062508,
      "d": 64.28568749999977,
      "v": 79
    },
    {
      "midi": 39,
      "hit": false,
      "t": 52953.549364584134,
      "d": 60.71426041666564,
      "v": 93
    },
    {
      "midi": 27,
      "hit": false,
      "t": 52971.4065000008,
      "d": 46.4285520833364,
      "v": 91
    },
    {
      "midi": 66,
      "hit": false,
      "t": 53389.26346875081,
      "d": 346.42842708333774,
      "v": 88
    },
    {
      "midi": 63,
      "hit": false,
      "t": 53396.40632291748,
      "d": 42.85712500000227,
      "v": 74
    },
    {
      "midi": 58,
      "hit": false,
      "t": 53407.12060416748,
      "d": 221.42847916666506,
      "v": 71
    },
    {
      "midi": 51,
      "hit": false,
      "t": 53407.12060416748,
      "d": 824.999656250031,
      "v": 77
    },
    {
      "midi": 63,
      "hit": false,
      "t": 53489.26342708415,
      "d": 85.71424999999726,
      "v": 19
    },
    {
      "midi": 68,
      "hit": false,
      "t": 53785.69187500082,
      "d": 103.57138541667518,
      "v": 74
    },
    {
      "midi": 59,
      "hit": false,
      "t": 53796.40615625082,
      "d": 67.8571145833339,
      "v": 69
    },
    {
      "midi": 62,
      "hit": false,
      "t": 53799.977583334155,
      "d": 60.71426041666564,
      "v": 68
    },
    {
      "midi": 66,
      "hit": false,
      "t": 53903.54896875083,
      "d": 96.42853125000693,
      "v": 78
    },
    {
      "midi": 58,
      "hit": false,
      "t": 53917.83467708417,
      "d": 78.57139583333628,
      "v": 62
    },
    {
      "midi": 63,
      "hit": false,
      "t": 53932.120385417504,
      "d": 35.71427083333401,
      "v": 46
    },
    {
      "midi": 56,
      "hit": false,
      "t": 54028.5489166675,
      "d": 107.14281250000931,
      "v": 65
    },
    {
      "midi": 71,
      "hit": false,
      "t": 54035.69177083417,
      "d": 107.14281250000931,
      "v": 82
    },
    {
      "midi": 62,
      "hit": false,
      "t": 54046.406052084174,
      "d": 46.4285520833364,
      "v": 70
    },
    {
      "midi": 54,
      "hit": false,
      "t": 54160.691718750844,
      "d": 74.99996875000215,
      "v": 65
    },
    {
      "midi": 70,
      "hit": false,
      "t": 54171.40600000085,
      "d": 71.42854166666802,
      "v": 83
    },
    {
      "midi": 63,
      "hit": false,
      "t": 54178.548854167515,
      "d": 60.71426041666564,
      "v": 70
    },
    {
      "midi": 35,
      "hit": false,
      "t": 54446.405885417524,
      "d": 32.14284375000716,
      "v": 71
    },
    {
      "midi": 47,
      "hit": false,
      "t": 54446.405885417524,
      "d": 32.14284375000716,
      "v": 85
    },
    {
      "midi": 53,
      "hit": false,
      "t": 54446.405885417524,
      "d": 57.142833333338785,
      "v": 83
    },
    {
      "midi": 57,
      "hit": false,
      "t": 54446.405885417524,
      "d": 67.85711458334117,
      "v": 68
    },
    {
      "midi": 63,
      "hit": false,
      "t": 54446.405885417524,
      "d": 121.42852083333855,
      "v": 86
    },
    {
      "midi": 65,
      "hit": false,
      "t": 54589.26296875087,
      "d": 164.2856458333481,
      "v": 90
    },
    {
      "midi": 53,
      "hit": false,
      "t": 54599.97725000087,
      "d": 92.8571041666728,
      "v": 78
    },
    {
      "midi": 58,
      "hit": false,
      "t": 54599.97725000087,
      "d": 107.14281250000931,
      "v": 60
    },
    {
      "midi": 63,
      "hit": false,
      "t": 54603.5486770842,
      "d": 139.2856562500092,
      "v": 48
    },
    {
      "midi": 46,
      "hit": false,
      "t": 54614.262958334206,
      "d": 139.2856562500092,
      "v": 88
    },
    {
      "midi": 34,
      "hit": false,
      "t": 54621.405812500874,
      "d": 92.8571041666728,
      "v": 74
    },
    {
      "midi": 95,
      "hit": false,
      "t": 55049.97706250089,
      "d": 78.57139583333628,
      "v": 84
    },
    {
      "midi": 58,
      "hit": false,
      "t": 55049.97706250089,
      "d": 282.1427395833307,
      "v": 51
    },
    {
      "midi": 56,
      "hit": false,
      "t": 55049.97706250089,
      "d": 285.7141666666648,
      "v": 57
    },
    {
      "midi": 62,
      "hit": false,
      "t": 55049.97706250089,
      "d": 296.4284479166672,
      "v": 80
    },
    {
      "midi": 53,
      "hit": false,
      "t": 55049.97706250089,
      "d": 299.99987500000134,
      "v": 68
    },
    {
      "midi": 94,
      "hit": false,
      "t": 55128.548458334226,
      "d": 99.99995833333378,
      "v": 73
    },
    {
      "midi": 92,
      "hit": false,
      "t": 55192.834145834226,
      "d": 92.85710416666552,
      "v": 77
    },
    {
      "midi": 90,
      "hit": false,
      "t": 55253.54840625089,
      "d": 57.14283333333151,
      "v": 61
    },
    {
      "midi": 89,
      "hit": false,
      "t": 55307.11981250089,
      "d": 46.4285520833364,
      "v": 79
    },
    {
      "midi": 87,
      "hit": false,
      "t": 55374.97692708422,
      "d": 103.57138541666791,
      "v": 73
    },
    {
      "midi": 86,
      "hit": false,
      "t": 55439.26261458422,
      "d": 42.85712500000227,
      "v": 79
    },
    {
      "midi": 53,
      "hit": false,
      "t": 55439.26261458422,
      "d": 157.14279166667257,
      "v": 58
    },
    {
      "midi": 58,
      "hit": false,
      "t": 55439.26261458422,
      "d": 167.85707291667495,
      "v": 55
    },
    {
      "midi": 56,
      "hit": false,
      "t": 55439.26261458422,
      "d": 182.14278125001147,
      "v": 55
    },
    {
      "midi": 63,
      "hit": false,
      "t": 55439.26261458422,
      "d": 224.99990625001374,
      "v": 83
    },
    {
      "midi": 83,
      "hit": false,
      "t": 55496.40544791756,
      "d": 42.85712500000227,
      "v": 68
    },
    {
      "midi": 82,
      "hit": false,
      "t": 55567.83398958423,
      "d": 64.28568750000704,
      "v": 61
    },
    {
      "midi": 80,
      "hit": false,
      "t": 55628.5482500009,
      "d": 92.85710416666552,
      "v": 72
    },
    {
      "midi": 78,
      "hit": false,
      "t": 55696.405364584236,
      "d": 60.71426041666564,
      "v": 70
    },
    {
      "midi": 77,
      "hit": false,
      "t": 55767.833906250904,
      "d": 57.14283333333151,
      "v": 69
    },
    {
      "midi": 62,
      "hit": false,
      "t": 55824.976739584235,
      "d": 21.428562499997497,
      "v": 54
    },
    {
      "midi": 75,
      "hit": false,
      "t": 55824.976739584235,
      "d": 107.14281250000204,
      "v": 71
    },
    {
      "midi": 66,
      "hit": false,
      "t": 55824.976739584235,
      "d": 178.57135416667006,
      "v": 85
    },
    {
      "midi": 58,
      "hit": false,
      "t": 55824.976739584235,
      "d": 285.7141666666794,
      "v": 50
    },
    {
      "midi": 56,
      "hit": false,
      "t": 55824.976739584235,
      "d": 296.42844791668176,
      "v": 45
    },
    {
      "midi": 74,
      "hit": false,
      "t": 55903.54813541757,
      "d": 24.999989583331626,
      "v": 70
    },
    {
      "midi": 71,
      "hit": false,
      "t": 55957.11954166758,
      "d": 28.571416666665755,
      "v": 69
    },
    {
      "midi": 70,
      "hit": false,
      "t": 56017.83380208424,
      "d": 85.71425000000454,
      "v": 64
    },
    {
      "midi": 69,
      "hit": false,
      "t": 56089.26234375091,
      "d": 53.57140625000466,
      "v": 72
    },
    {
      "midi": 65,
      "hit": false,
      "t": 56092.833770834244,
      "d": 24.999989583338902,
      "v": 65
    },
    {
      "midi": 68,
      "hit": false,
      "t": 56149.97660416758,
      "d": 67.8571145833339,
      "v": 69
    },
    {
      "midi": 51,
      "hit": false,
      "t": 56246.40513541758,
      "d": 235.71418750000885,
      "v": 53
    },
    {
      "midi": 58,
      "hit": false,
      "t": 56246.40513541758,
      "d": 249.99989583334536,
      "v": 58
    },
    {
      "midi": 66,
      "hit": false,
      "t": 56246.40513541758,
      "d": 342.8570000000109,
      "v": 83
    },
    {
      "midi": 66,
      "hit": false,
      "t": 56685.69066666759,
      "d": 346.428427083345,
      "v": 48
    },
    {
      "midi": 50,
      "hit": false,
      "t": 56685.69066666759,
      "d": 360.71413541668153,
      "v": 56
    },
    {
      "midi": 60,
      "hit": false,
      "t": 56685.69066666759,
      "d": 371.4284166666839,
      "v": 58
    },
    {
      "midi": 68,
      "hit": false,
      "t": 56685.69066666759,
      "d": 396.42840625001554,
      "v": 85
    },
    {
      "midi": 71,
      "hit": false,
      "t": 57099.97620833427,
      "d": 121.42852083334583,
      "v": 82
    },
    {
      "midi": 66,
      "hit": false,
      "t": 57103.547635417606,
      "d": 128.5713750000141,
      "v": 50
    },
    {
      "midi": 63,
      "hit": false,
      "t": 57107.11906250094,
      "d": 78.57139583333628,
      "v": 67
    },
    {
      "midi": 49,
      "hit": false,
      "t": 57117.83334375094,
      "d": 549.999770833354,
      "v": 51
    },
    {
      "midi": 70,
      "hit": false,
      "t": 57239.26186458429,
      "d": 96.42853124999965,
      "v": 77
    },
    {
      "midi": 61,
      "hit": false,
      "t": 57249.97614583429,
      "d": 53.57140624999738,
      "v": 61
    },
    {
      "midi": 75,
      "hit": false,
      "t": 57364.261812500954,
      "d": 85.71424999999726,
      "v": 84
    },
    {
      "midi": 65,
      "hit": false,
      "t": 57374.976093750956,
      "d": 28.571416666665755,
      "v": 68
    },
    {
      "midi": 68,
      "hit": false,
      "t": 57378.54752083429,
      "d": 46.42855208332912,
      "v": 55
    },
    {
      "midi": 59,
      "hit": false,
      "t": 57385.69037500096,
      "d": 64.28568749999249,
      "v": 58
    },
    {
      "midi": 73,
      "hit": false,
      "t": 57524.97603125095,
      "d": 117.85709375000442,
      "v": 80
    },
    {
      "midi": 66,
      "hit": false,
      "t": 57532.11888541762,
      "d": 128.5713750000068,
      "v": 64
    },
    {
      "midi": 58,
      "hit": false,
      "t": 57553.54744791762,
      "d": 92.8571041666728,
      "v": 55
    },
    {
      "midi": 38,
      "hit": false,
      "t": 57846.40446875097,
      "d": 78.57139583333628,
      "v": 60
    },
    {
      "midi": 60,
      "hit": false,
      "t": 57846.40446875097,
      "d": 78.57139583333628,
      "v": 61
    },
    {
      "midi": 50,
      "hit": false,
      "t": 57846.40446875097,
      "d": 85.71425000000454,
      "v": 72
    },
    {
      "midi": 56,
      "hit": false,
      "t": 57846.40446875097,
      "d": 85.71425000000454,
      "v": 64
    },
    {
      "midi": 66,
      "hit": false,
      "t": 57846.40446875097,
      "d": 335.7141458333426,
      "v": 80
    },
    {
      "midi": 56,
      "hit": false,
      "t": 58014.261541667634,
      "d": 128.57137499999953,
      "v": 57
    },
    {
      "midi": 61,
      "hit": false,
      "t": 58014.261541667634,
      "d": 142.85708333333605,
      "v": 47
    },
    {
      "midi": 49,
      "hit": false,
      "t": 58014.261541667634,
      "d": 153.57136458333844,
      "v": 55
    },
    {
      "midi": 37,
      "hit": false,
      "t": 58014.261541667634,
      "d": 164.28564583334082,
      "v": 66
    },
    {
      "midi": 68,
      "hit": false,
      "t": 58014.261541667634,
      "d": 182.14278125001147,
      "v": 77
    },
    {
      "midi": 99,
      "hit": false,
      "t": 58449.97564583431,
      "d": 114.2856666666703,
      "v": 75
    },
    {
      "midi": 65,
      "hit": false,
      "t": 58457.11850000098,
      "d": 228.5713333333406,
      "v": 77
    },
    {
      "midi": 56,
      "hit": false,
      "t": 58467.83278125098,
      "d": 217.8570520833382,
      "v": 43
    },
    {
      "midi": 61,
      "hit": false,
      "t": 58467.83278125098,
      "d": 221.42847916667233,
      "v": 46
    },
    {
      "midi": 59,
      "hit": false,
      "t": 58471.404208334316,
      "d": 207.14277083333582,
      "v": 53
    },
    {
      "midi": 97,
      "hit": false,
      "t": 58524.97561458431,
      "d": 57.142833333338785,
      "v": 71
    },
    {
      "midi": 95,
      "hit": false,
      "t": 58589.26130208432,
      "d": 42.85712500000227,
      "v": 79
    },
    {
      "midi": 94,
      "hit": false,
      "t": 58649.975562500986,
      "d": 92.85710416666552,
      "v": 65
    },
    {
      "midi": 92,
      "hit": false,
      "t": 58714.261250000985,
      "d": 96.42853124999965,
      "v": 78
    },
    {
      "midi": 90,
      "hit": false,
      "t": 58778.546937500985,
      "d": 60.71426041666564,
      "v": 62
    },
    {
      "midi": 89,
      "hit": false,
      "t": 58839.26119791765,
      "d": 53.57140625000466,
      "v": 74
    },
    {
      "midi": 66,
      "hit": false,
      "t": 58846.40405208432,
      "d": 221.4284791666796,
      "v": 79
    },
    {
      "midi": 61,
      "hit": false,
      "t": 58857.11833333432,
      "d": 174.9999270833432,
      "v": 51
    },
    {
      "midi": 56,
      "hit": false,
      "t": 58860.689760417656,
      "d": 157.14279166667257,
      "v": 36
    },
    {
      "midi": 59,
      "hit": false,
      "t": 58860.689760417656,
      "d": 160.7142187500067,
      "v": 51
    },
    {
      "midi": 87,
      "hit": false,
      "t": 58907.11831250099,
      "d": 96.42853124999965,
      "v": 64
    },
    {
      "midi": 85,
      "hit": false,
      "t": 58974.975427084326,
      "d": 49.99997916667053,
      "v": 65
    },
    {
      "midi": 83,
      "hit": false,
      "t": 59042.83254166767,
      "d": 49.99997916666325,
      "v": 63
    },
    {
      "midi": 82,
      "hit": false,
      "t": 59103.54680208433,
      "d": 71.42854166666802,
      "v": 59
    },
    {
      "midi": 80,
      "hit": false,
      "t": 59164.261062501,
      "d": 74.99996875000215,
      "v": 71
    },
    {
      "midi": 78,
      "hit": false,
      "t": 59249.975312501,
      "d": 67.8571145833339,
      "v": 60
    },
    {
      "midi": 70,
      "hit": false,
      "t": 59249.975312501,
      "d": 185.7142083333456,
      "v": 74
    },
    {
      "midi": 65,
      "hit": false,
      "t": 59249.975312501,
      "d": 217.85705208334548,
      "v": 56
    },
    {
      "midi": 59,
      "hit": false,
      "t": 59249.975312501,
      "d": 274.99988541668426,
      "v": 42
    },
    {
      "midi": 61,
      "hit": false,
      "t": 59249.975312501,
      "d": 292.8570208333549,
      "v": 40
    },
    {
      "midi": 77,
      "hit": false,
      "t": 59339.26098958434,
      "d": 39.28569791666814,
      "v": 65
    },
    {
      "midi": 75,
      "hit": false,
      "t": 59417.83238541768,
      "d": 46.4285520833364,
      "v": 56
    },
    {
      "midi": 73,
      "hit": false,
      "t": 59482.118072917685,
      "d": 57.142833333338785,
      "v": 58
    },
    {
      "midi": 72,
      "hit": false,
      "t": 59560.68946875102,
      "d": 42.85712500000227,
      "v": 64
    },
    {
      "midi": 68,
      "hit": false,
      "t": 59560.68946875102,
      "d": 49.99997916667053,
      "v": 68
    },
    {
      "midi": 71,
      "hit": false,
      "t": 59628.546583334355,
      "d": 53.57140624999738,
      "v": 62
    },
    {
      "midi": 70,
      "hit": false,
      "t": 59717.83226041769,
      "d": 60.71426041666564,
      "v": 57
    },
    {
      "midi": 54,
      "hit": false,
      "t": 59717.83226041769,
      "d": 185.71420833333832,
      "v": 49
    },
    {
      "midi": 61,
      "hit": false,
      "t": 59717.83226041769,
      "d": 199.99991666667484,
      "v": 44
    },
    {
      "midi": 66,
      "hit": false,
      "t": 59717.83226041769,
      "d": 260.7141770833405,
      "v": 51
    },
    {
      "midi": 71,
      "hit": false,
      "t": 59799.97508333435,
      "d": 64.28568750000704,
      "v": 62
    },
    {
      "midi": 73,
      "hit": false,
      "t": 59860.68934375102,
      "d": 64.28568750000704,
      "v": 64
    },
    {
      "midi": 75,
      "hit": false,
      "t": 59921.403604167695,
      "d": 35.71427083333401,
      "v": 73
    },
    {
      "midi": 77,
      "hit": false,
      "t": 59996.40357291769,
      "d": 49.99997916666325,
      "v": 72
    },
    {
      "midi": 78,
      "hit": false,
      "t": 60057.117833334356,
      "d": 64.28568749999977,
      "v": 64
    },
    {
      "midi": 51,
      "hit": false,
      "t": 60121.403520834356,
      "d": 71.42854166666802,
      "v": 62
    },
    {
      "midi": 83,
      "hit": false,
      "t": 60132.11780208436,
      "d": 78.57139583333628,
      "v": 78
    },
    {
      "midi": 82,
      "hit": false,
      "t": 60196.40348958436,
      "d": 99.99995833333378,
      "v": 75
    },
    {
      "midi": 80,
      "hit": false,
      "t": 60267.832031251026,
      "d": 103.57138541666791,
      "v": 71
    },
    {
      "midi": 66,
      "hit": false,
      "t": 60274.974885417694,
      "d": 121.42852083333128,
      "v": 51
    },
    {
      "midi": 78,
      "hit": false,
      "t": 60332.117718751026,
      "d": 60.71426041666564,
      "v": 61
    },
    {
      "midi": 77,
      "hit": false,
      "t": 60392.83197916769,
      "d": 46.4285520833364,
      "v": 78
    },
    {
      "midi": 58,
      "hit": false,
      "t": 60407.11768750103,
      "d": 96.42853124999965,
      "v": 33
    },
    {
      "midi": 75,
      "hit": false,
      "t": 60457.11766666769,
      "d": 99.99995833334106,
      "v": 67
    },
    {
      "midi": 73,
      "hit": false,
      "t": 60528.54620833437,
      "d": 53.57140624999738,
      "v": 68
    },
    {
      "midi": 56,
      "hit": false,
      "t": 60528.54620833437,
      "d": 232.14276041667472,
      "v": 68
    },
    {
      "midi": 72,
      "hit": false,
      "t": 60589.26046875103,
      "d": 21.428562500004773,
      "v": 67
    },
    {
      "midi": 71,
      "hit": false,
      "t": 60646.40330208437,
      "d": 71.42854166666802,
      "v": 68
    },
    {
      "midi": 63,
      "hit": false,
      "t": 60653.54615625104,
      "d": 110.71423958333617,
      "v": 52
    },
    {
      "midi": 70,
      "hit": false,
      "t": 60721.40327083437,
      "d": 53.57140625000466,
      "v": 62
    },
    {
      "midi": 59,
      "hit": false,
      "t": 60778.54610416771,
      "d": 160.7142187500067,
      "v": 48
    },
    {
      "midi": 67,
      "hit": false,
      "t": 60785.68895833438,
      "d": 60.714260416672914,
      "v": 58
    },
    {
      "midi": 68,
      "hit": false,
      "t": 60839.260364584385,
      "d": 71.42854166666802,
      "v": 64
    },
    {
      "midi": 49,
      "hit": false,
      "t": 60907.11747916772,
      "d": 60.71426041666564,
      "v": 45
    },
    {
      "midi": 70,
      "hit": false,
      "t": 60910.68890625105,
      "d": 46.42855208332912,
      "v": 62
    },
    {
      "midi": 71,
      "hit": false,
      "t": 60974.97459375105,
      "d": 60.71426041666564,
      "v": 64
    },
    {
      "midi": 72,
      "hit": false,
      "t": 61039.26028125105,
      "d": 64.28568749999977,
      "v": 65
    },
    {
      "midi": 65,
      "hit": false,
      "t": 61039.26028125105,
      "d": 92.85710416666552,
      "v": 57
    },
    {
      "midi": 73,
      "hit": false,
      "t": 61092.83168750105,
      "d": 64.28568749999977,
      "v": 64
    },
    {
      "midi": 75,
      "hit": false,
      "t": 61157.11737500105,
      "d": 71.42854166666802,
      "v": 67
    },
    {
      "midi": 59,
      "hit": false,
      "t": 61157.11737500105,
      "d": 82.14282291667041,
      "v": 54
    },
    {
      "midi": 73,
      "hit": false,
      "t": 61228.54591666772,
      "d": 67.8571145833339,
      "v": 65
    },
    {
      "midi": 70,
      "hit": false,
      "t": 61310.68873958439,
      "d": 57.14283333333151,
      "v": 65
    },
    {
      "midi": 54,
      "hit": false,
      "t": 61310.68873958439,
      "d": 232.14276041666744,
      "v": 68
    },
    {
      "midi": 71,
      "hit": false,
      "t": 61385.68870833438,
      "d": 57.14283333333151,
      "v": 62
    },
    {
      "midi": 73,
      "hit": false,
      "t": 61439.26011458438,
      "d": 57.142833333338785,
      "v": 65
    },
    {
      "midi": 66,
      "hit": false,
      "t": 61439.26011458438,
      "d": 89.28567708333867,
      "v": 56
    },
    {
      "midi": 75,
      "hit": false,
      "t": 61489.26009375105,
      "d": 32.142843749999884,
      "v": 67
    },
    {
      "midi": 77,
      "hit": false,
      "t": 61560.68863541772,
      "d": 46.4285520833364,
      "v": 75
    },
    {
      "midi": 58,
      "hit": false,
      "t": 61560.68863541772,
      "d": 71.42854166666802,
      "v": 54
    },
    {
      "midi": 78,
      "hit": false,
      "t": 61610.68861458439,
      "d": 57.14283333333151,
      "v": 72
    },
    {
      "midi": 51,
      "hit": false,
      "t": 61678.54572916772,
      "d": 46.4285520833364,
      "v": 69
    },
    {
      "midi": 83,
      "hit": false,
      "t": 61689.260010417725,
      "d": 71.42854166666802,
      "v": 75
    },
    {
      "midi": 82,
      "hit": false,
      "t": 61746.40284375106,
      "d": 99.99995833334106,
      "v": 72
    },
    {
      "midi": 80,
      "hit": false,
      "t": 61807.11710416773,
      "d": 103.57138541666791,
      "v": 67
    },
    {
      "midi": 66,
      "hit": false,
      "t": 61814.2599583344,
      "d": 135.71422916667507,
      "v": 59
    },
    {
      "midi": 78,
      "hit": false,
      "t": 61867.831364584395,
      "d": 57.142833333338785,
      "v": 67
    },
    {
      "midi": 77,
      "hit": false,
      "t": 61932.1170520844,
      "d": 46.4285520833364,
      "v": 75
    },
    {
      "midi": 58,
      "hit": false,
      "t": 61935.68847916774,
      "d": 82.14282291667041,
      "v": 46
    },
    {
      "midi": 75,
      "hit": false,
      "t": 61992.831312501075,
      "d": 99.99995833333378,
      "v": 65
    },
    {
      "midi": 56,
      "hit": false,
      "t": 62057.117000001075,
      "d": 257.14274999999907,
      "v": 68
    },
    {
      "midi": 73,
      "hit": false,
      "t": 62060.68842708441,
      "d": 57.14283333333151,
      "v": 71
    },
    {
      "midi": 72,
      "hit": false,
      "t": 62128.54554166774,
      "d": 21.428562499997497,
      "v": 74
    },
    {
      "midi": 71,
      "hit": false,
      "t": 62189.25980208441,
      "d": 64.28568749999977,
      "v": 69
    },
    {
      "midi": 63,
      "hit": false,
      "t": 62189.25980208441,
      "d": 96.42853124999965,
      "v": 51
    },
    {
      "midi": 70,
      "hit": false,
      "t": 62249.974062501075,
      "d": 67.8571145833339,
      "v": 67
    },
    {
      "midi": 67,
      "hit": false,
      "t": 62328.54545833441,
      "d": 53.57140624999738,
      "v": 60
    },
    {
      "midi": 59,
      "hit": false,
      "t": 62328.54545833441,
      "d": 82.14282291666314,
      "v": 47
    },
    {
      "midi": 68,
      "hit": false,
      "t": 62382.11686458441,
      "d": 71.42854166666802,
      "v": 65
    },
    {
      "midi": 70,
      "hit": false,
      "t": 62449.97397916774,
      "d": 49.99997916667053,
      "v": 64
    },
    {
      "midi": 49,
      "hit": false,
      "t": 62457.11683333441,
      "d": 32.142843749999884,
      "v": 45
    },
    {
      "midi": 71,
      "hit": false,
      "t": 62521.40252083441,
      "d": 67.8571145833339,
      "v": 67
    },
    {
      "midi": 72,
      "hit": false,
      "t": 62589.259635417744,
      "d": 60.71426041666564,
      "v": 66
    },
    {
      "midi": 65,
      "hit": false,
      "t": 62589.259635417744,
      "d": 110.71423958333617,
      "v": 42
    },
    {
      "midi": 73,
      "hit": false,
      "t": 62660.68817708441,
      "d": 85.71425000000454,
      "v": 59
    },
    {
      "midi": 75,
      "hit": false,
      "t": 62732.11671875108,
      "d": 82.14282291667041,
      "v": 62
    },
    {
      "midi": 59,
      "hit": false,
      "t": 62732.11671875108,
      "d": 96.42853125000693,
      "v": 55
    },
    {
      "midi": 73,
      "hit": false,
      "t": 62803.54526041775,
      "d": 82.14282291667769,
      "v": 48
    },
    {
      "midi": 70,
      "hit": false,
      "t": 62874.97380208442,
      "d": 82.14282291667041,
      "v": 73
    },
    {
      "midi": 54,
      "hit": false,
      "t": 62874.97380208442,
      "d": 117.85709375000442,
      "v": 72
    },
    {
      "midi": 71,
      "hit": false,
      "t": 62946.40234375109,
      "d": 78.57139583333628,
      "v": 72
    },
    {
      "midi": 73,
      "hit": false,
      "t": 63014.259458334425,
      "d": 82.14282291667041,
      "v": 73
    },
    {
      "midi": 64,
      "hit": false,
      "t": 63014.259458334425,
      "d": 114.2856666666703,
      "v": 47
    },
    {
      "midi": 75,
      "hit": false,
      "t": 63085.68800000109,
      "d": 46.4285520833364,
      "v": 75
    },
    {
      "midi": 76,
      "hit": false,
      "t": 63149.97368750109,
      "d": 78.57139583333628,
      "v": 80
    },
    {
      "midi": 58,
      "hit": false,
      "t": 63149.97368750109,
      "d": 157.14279166667257,
      "v": 55
    },
    {
      "midi": 78,
      "hit": false,
      "t": 63214.25937500109,
      "d": 96.42853125000693,
      "v": 67
    },
    {
      "midi": 80,
      "hit": false,
      "t": 63271.40220833443,
      "d": 92.85710416666552,
      "v": 69
    },
    {
      "midi": 53,
      "hit": false,
      "t": 63271.40220833443,
      "d": 164.28564583334082,
      "v": 70
    },
    {
      "midi": 82,
      "hit": false,
      "t": 63335.68789583443,
      "d": 42.85712500000227,
      "v": 65
    },
    {
      "midi": 83,
      "hit": false,
      "t": 63410.68786458443,
      "d": 67.85711458334117,
      "v": 68
    },
    {
      "midi": 64,
      "hit": false,
      "t": 63410.68786458443,
      "d": 178.57135416667734,
      "v": 55
    },
    {
      "midi": 85,
      "hit": false,
      "t": 63464.25927083444,
      "d": 67.85711458334117,
      "v": 69
    },
    {
      "midi": 87,
      "hit": false,
      "t": 63521.40210416778,
      "d": 42.85712500000227,
      "v": 71
    },
    {
      "midi": 54,
      "hit": false,
      "t": 63521.40210416778,
      "d": 139.2856562500092,
      "v": 72
    },
    {
      "midi": 88,
      "hit": false,
      "t": 63599.97350000111,
      "d": 46.4285520833364,
      "v": 67
    },
    {
      "midi": 99,
      "hit": false,
      "t": 63657.11633333445,
      "d": 60.71426041666564,
      "v": 82
    },
    {
      "midi": 56,
      "hit": false,
      "t": 63657.11633333445,
      "d": 242.85704166666983,
      "v": 74
    },
    {
      "midi": 97,
      "hit": false,
      "t": 63724.973447917786,
      "d": 82.14282291667041,
      "v": 80
    },
    {
      "midi": 95,
      "hit": false,
      "t": 63796.401989584454,
      "d": 53.57140625000466,
      "v": 79
    },
    {
      "midi": 64,
      "hit": false,
      "t": 63796.401989584454,
      "d": 196.42848958333343,
      "v": 55
    },
    {
      "midi": 88,
      "hit": false,
      "t": 63867.83053125112,
      "d": 78.57139583333628,
      "v": 64
    },
    {
      "midi": 91,
      "hit": false,
      "t": 63932.11621875112,
      "d": 53.57140624999738,
      "v": 74
    },
    {
      "midi": 59,
      "hit": false,
      "t": 63932.11621875112,
      "d": 135.7142291666678,
      "v": 76
    },
    {
      "midi": 92,
      "hit": false,
      "t": 63999.973333334456,
      "d": 71.42854166666802,
      "v": 82
    },
    {
      "midi": 95,
      "hit": false,
      "t": 64067.83044791779,
      "d": 71.42854166666802,
      "v": 92
    },
    {
      "midi": 58,
      "hit": false,
      "t": 64067.83044791779,
      "d": 182.14278124999691,
      "v": 73
    },
    {
      "midi": 94,
      "hit": false,
      "t": 64132.11613541779,
      "d": 99.99995833333378,
      "v": 77
    },
    {
      "midi": 92,
      "hit": false,
      "t": 64196.40182291779,
      "d": 99.99995833333378,
      "v": 80
    },
    {
      "midi": 68,
      "hit": false,
      "t": 64196.40182291779,
      "d": 128.5713750000068,
      "v": 43
    },
    {
      "midi": 90,
      "hit": false,
      "t": 64253.54465625112,
      "d": 53.57140625000466,
      "v": 61
    },
    {
      "midi": 88,
      "hit": false,
      "t": 64307.116062501125,
      "d": 60.714260416672914,
      "v": 70
    },
    {
      "midi": 64,
      "hit": false,
      "t": 64321.40177083446,
      "d": 121.42852083334583,
      "v": 45
    },
    {
      "midi": 87,
      "hit": false,
      "t": 64367.8303229178,
      "d": 107.14281250000931,
      "v": 73
    },
    {
      "midi": 85,
      "hit": false,
      "t": 64435.68743750114,
      "d": 64.28568749999977,
      "v": 74
    },
    {
      "midi": 58,
      "hit": false,
      "t": 64435.68743750114,
      "d": 110.71423958334344,
      "v": 65
    },
    {
      "midi": 83,
      "hit": false,
      "t": 64510.68740625114,
      "d": 35.71427083334129,
      "v": 55
    },
    {
      "midi": 82,
      "hit": false,
      "t": 64582.11594791782,
      "d": 28.571416666665755,
      "v": 66
    },
    {
      "midi": 68,
      "hit": false,
      "t": 64582.11594791782,
      "d": 114.2856666666703,
      "v": 44
    },
    {
      "midi": 80,
      "hit": false,
      "t": 64653.544489584485,
      "d": 96.42853125000693,
      "v": 69
    },
    {
      "midi": 78,
      "hit": false,
      "t": 64710.68732291782,
      "d": 35.71427083333401,
      "v": 59
    },
    {
      "midi": 64,
      "hit": false,
      "t": 64710.68732291782,
      "d": 114.2856666666703,
      "v": 49
    },
    {
      "midi": 76,
      "hit": false,
      "t": 64767.830156251155,
      "d": 60.714260416672914,
      "v": 60
    },
    {
      "midi": 75,
      "hit": false,
      "t": 64817.830135417826,
      "d": 82.14282291666314,
      "v": 69
    },
    {
      "midi": 59,
      "hit": false,
      "t": 64824.972989584494,
      "d": 199.99991666666756,
      "v": 67
    },
    {
      "midi": 73,
      "hit": false,
      "t": 64882.115822917825,
      "d": 57.142833333338785,
      "v": 67
    },
    {
      "midi": 68,
      "hit": false,
      "t": 64939.258656251164,
      "d": 99.99995833333378,
      "v": 47
    },
    {
      "midi": 72,
      "hit": false,
      "t": 64942.8300833345,
      "d": 57.14283333333151,
      "v": 68
    },
    {
      "midi": 73,
      "hit": false,
      "t": 64999.97291666783,
      "d": 67.8571145833339,
      "v": 69
    },
    {
      "midi": 64,
      "hit": false,
      "t": 65064.25860416783,
      "d": 32.142843749999884,
      "v": 51
    },
    {
      "midi": 74,
      "hit": false,
      "t": 65071.4014583345,
      "d": 67.85711458334117,
      "v": 64
    },
    {
      "midi": 75,
      "hit": false,
      "t": 65135.687145834505,
      "d": 57.14283333333151,
      "v": 77
    },
    {
      "midi": 61,
      "hit": false,
      "t": 65199.972833334505,
      "d": 28.571416666665755,
      "v": 58
    },
    {
      "midi": 64,
      "hit": false,
      "t": 65199.972833334505,
      "d": 57.14283333333151,
      "v": 59
    },
    {
      "midi": 68,
      "hit": false,
      "t": 65199.972833334505,
      "d": 57.14283333333151,
      "v": 69
    },
    {
      "midi": 76,
      "hit": false,
      "t": 65199.972833334505,
      "d": 78.57139583333628,
      "v": 94
    },
    {
      "midi": 77,
      "hit": false,
      "t": 65267.82994791784,
      "d": 67.8571145833339,
      "v": 88
    },
    {
      "midi": 78,
      "hit": false,
      "t": 65335.68706250117,
      "d": 53.57140624999738,
      "v": 71
    },
    {
      "midi": 54,
      "hit": false,
      "t": 65335.68706250117,
      "d": 174.99992708332866,
      "v": 54
    },
    {
      "midi": 66,
      "hit": false,
      "t": 65335.68706250117,
      "d": 235.71418750000157,
      "v": 57
    },
    {
      "midi": 64,
      "hit": false,
      "t": 65335.68706250117,
      "d": 239.28561458332842,
      "v": 62
    },
    {
      "midi": 79,
      "hit": false,
      "t": 65389.25846875117,
      "d": 64.28568749999977,
      "v": 82
    },
    {
      "midi": 80,
      "hit": false,
      "t": 65457.115583334504,
      "d": 60.71426041666564,
      "v": 72
    },
    {
      "midi": 79,
      "hit": false,
      "t": 65517.82984375117,
      "d": 64.28568749999977,
      "v": 76
    },
    {
      "midi": 82,
      "hit": false,
      "t": 65592.82981250116,
      "d": 92.85710416665825,
      "v": 73
    },
    {
      "midi": 80,
      "hit": false,
      "t": 65660.68692708449,
      "d": 99.9999583333265,
      "v": 78
    },
    {
      "midi": 78,
      "hit": false,
      "t": 65735.68689583449,
      "d": 49.99997916666325,
      "v": 71
    },
    {
      "midi": 76,
      "hit": false,
      "t": 65792.82972916782,
      "d": 60.71426041665836,
      "v": 68
    },
    {
      "midi": 75,
      "hit": false,
      "t": 65849.97256250115,
      "d": 53.571406249990105,
      "v": 70
    },
    {
      "midi": 74,
      "hit": false,
      "t": 65935.68681250114,
      "d": 57.14283333333151,
      "v": 52
    },
    {
      "midi": 75,
      "hit": false,
      "t": 65999.97250000114,
      "d": 49.99997916666325,
      "v": 71
    },
    {
      "midi": 59,
      "hit": false,
      "t": 65999.97250000114,
      "d": 232.14276041666744,
      "v": 70
    },
    {
      "midi": 76,
      "hit": false,
      "t": 66071.4010416678,
      "d": 57.14283333333151,
      "v": 70
    },
    {
      "midi": 78,
      "hit": false,
      "t": 66132.11530208446,
      "d": 78.57139583333628,
      "v": 62
    },
    {
      "midi": 71,
      "hit": false,
      "t": 66139.25815625113,
      "d": 78.57139583333628,
      "v": 50
    },
    {
      "midi": 80,
      "hit": false,
      "t": 66199.9724166678,
      "d": 78.57139583333628,
      "v": 62
    },
    {
      "midi": 82,
      "hit": false,
      "t": 66253.54382291781,
      "d": 32.142843749999884,
      "v": 76
    },
    {
      "midi": 63,
      "hit": false,
      "t": 66253.54382291781,
      "d": 160.71421874998487,
      "v": 41
    },
    {
      "midi": 83,
      "hit": false,
      "t": 66324.97236458448,
      "d": 67.85711458332662,
      "v": 81
    },
    {
      "midi": 88,
      "hit": false,
      "t": 66403.5437604178,
      "d": 89.2856770833314,
      "v": 82
    },
    {
      "midi": 56,
      "hit": false,
      "t": 66410.68661458447,
      "d": 67.85711458332662,
      "v": 68
    },
    {
      "midi": 87,
      "hit": false,
      "t": 66474.97230208447,
      "d": 114.28566666664847,
      "v": 78
    },
    {
      "midi": 85,
      "hit": false,
      "t": 66553.54369791779,
      "d": 49.99997916666325,
      "v": 65
    },
    {
      "midi": 71,
      "hit": false,
      "t": 66553.54369791779,
      "d": 82.14282291666314,
      "v": 53
    },
    {
      "midi": 83,
      "hit": false,
      "t": 66614.25795833445,
      "d": 39.28569791666814,
      "v": 63
    },
    {
      "midi": 82,
      "hit": false,
      "t": 66678.54364583445,
      "d": 60.71426041665836,
      "v": 60
    },
    {
      "midi": 63,
      "hit": false,
      "t": 66682.11507291778,
      "d": 78.57139583332173,
      "v": 35
    },
    {
      "midi": 80,
      "hit": false,
      "t": 66739.2579062511,
      "d": 92.8571041666437,
      "v": 69
    },
    {
      "midi": 78,
      "hit": false,
      "t": 66810.68644791775,
      "d": 42.857125000009546,
      "v": 67
    },
    {
      "midi": 61,
      "hit": false,
      "t": 66810.68644791775,
      "d": 217.85705208333093,
      "v": 74
    },
    {
      "midi": 77,
      "hit": false,
      "t": 66878.54356250109,
      "d": 35.71427083332674,
      "v": 69
    },
    {
      "midi": 76,
      "hit": false,
      "t": 66928.54354166775,
      "d": 60.71426041665836,
      "v": 56
    },
    {
      "midi": 68,
      "hit": false,
      "t": 66928.54354166775,
      "d": 128.57137499998498,
      "v": 48
    },
    {
      "midi": 75,
      "hit": false,
      "t": 66985.68637500108,
      "d": 71.42854166665347,
      "v": 54
    },
    {
      "midi": 72,
      "hit": false,
      "t": 67064.2577708344,
      "d": 57.14283333333151,
      "v": 56
    },
    {
      "midi": 64,
      "hit": false,
      "t": 67064.2577708344,
      "d": 85.71425000000454,
      "v": 47
    },
    {
      "midi": 73,
      "hit": false,
      "t": 67128.5434583344,
      "d": 82.14282291666314,
      "v": 55
    },
    {
      "midi": 54,
      "hit": false,
      "t": 67189.25771875106,
      "d": 49.999979166677804,
      "v": 70
    },
    {
      "midi": 75,
      "hit": false,
      "t": 67189.25771875106,
      "d": 60.714260416672914,
      "v": 69
    },
    {
      "midi": 76,
      "hit": false,
      "t": 67260.68626041773,
      "d": 64.28568749999977,
      "v": 78
    },
    {
      "midi": 70,
      "hit": false,
      "t": 67321.4005208344,
      "d": 89.28567708331684,
      "v": 53
    },
    {
      "midi": 77,
      "hit": false,
      "t": 67324.97194791773,
      "d": 67.85711458332662,
      "v": 83
    },
    {
      "midi": 78,
      "hit": false,
      "t": 67389.25763541773,
      "d": 53.571406249990105,
      "v": 75
    },
    {
      "midi": 64,
      "hit": false,
      "t": 67453.54332291771,
      "d": 114.28566666666302,
      "v": 48
    },
    {
      "midi": 80,
      "hit": false,
      "t": 67457.11475000104,
      "d": 67.85711458334117,
      "v": 65
    },
    {
      "midi": 78,
      "hit": false,
      "t": 67517.82901041771,
      "d": 64.28568749999977,
      "v": 65
    },
    {
      "midi": 75,
      "hit": false,
      "t": 67585.68612500104,
      "d": 53.57140625000466,
      "v": 69
    },
    {
      "midi": 59,
      "hit": false,
      "t": 67585.68612500104,
      "d": 207.14277083335037,
      "v": 70
    },
    {
      "midi": 76,
      "hit": false,
      "t": 67646.40038541771,
      "d": 82.14282291667769,
      "v": 72
    },
    {
      "midi": 78,
      "hit": false,
      "t": 67707.11464583439,
      "d": 89.2856770833314,
      "v": 64
    },
    {
      "midi": 71,
      "hit": false,
      "t": 67707.11464583439,
      "d": 92.85710416665825,
      "v": 53
    },
    {
      "midi": 80,
      "hit": false,
      "t": 67767.82890625106,
      "d": 89.2856770833314,
      "v": 71
    },
    {
      "midi": 82,
      "hit": false,
      "t": 67828.54316666772,
      "d": 42.857125000009546,
      "v": 73
    },
    {
      "midi": 63,
      "hit": false,
      "t": 67828.54316666772,
      "d": 160.71421875001397,
      "v": 48
    },
    {
      "midi": 83,
      "hit": false,
      "t": 67896.40028125106,
      "d": 60.714260416672914,
      "v": 81
    },
    {
      "midi": 56,
      "hit": false,
      "t": 67967.82882291773,
      "d": 71.42854166666802,
      "v": 68
    },
    {
      "midi": 88,
      "hit": false,
      "t": 67967.82882291773,
      "d": 89.28567708331684,
      "v": 84
    },
    {
      "midi": 87,
      "hit": false,
      "t": 68035.68593750107,
      "d": 121.42852083330217,
      "v": 85
    },
    {
      "midi": 85,
      "hit": false,
      "t": 68107.1144791677,
      "d": 53.571406249990105,
      "v": 73
    },
    {
      "midi": 71,
      "hit": false,
      "t": 68107.1144791677,
      "d": 92.85710416665825,
      "v": 46
    },
    {
      "midi": 83,
      "hit": false,
      "t": 68178.54302083436,
      "d": 46.4285520833364,
      "v": 73
    },
    {
      "midi": 82,
      "hit": false,
      "t": 68235.68585416769,
      "d": 74.99996874999488,
      "v": 69
    },
    {
      "midi": 63,
      "hit": false,
      "t": 68239.25728125102,
      "d": 82.14282291666314,
      "v": 28
    },
    {
      "midi": 80,
      "hit": false,
      "t": 68299.97154166769,
      "d": 96.4285312499851,
      "v": 71
    },
    {
      "midi": 78,
      "hit": false,
      "t": 68371.40008333435,
      "d": 46.4285520833364,
      "v": 57
    },
    {
      "midi": 61,
      "hit": false,
      "t": 68371.40008333435,
      "d": 249.9998958333308,
      "v": 75
    },
    {
      "midi": 77,
      "hit": false,
      "t": 68439.25719791769,
      "d": 46.4285520833364,
      "v": 79
    },
    {
      "midi": 76,
      "hit": false,
      "t": 68510.68573958435,
      "d": 46.4285520833364,
      "v": 68
    },
    {
      "midi": 68,
      "hit": false,
      "t": 68510.68573958435,
      "d": 107.14281249999476,
      "v": 45
    },
    {
      "midi": 75,
      "hit": false,
      "t": 68582.11428125102,
      "d": 46.42855208332185,
      "v": 65
    },
    {
      "midi": 72,
      "hit": false,
      "t": 68653.54282291768,
      "d": 60.714260416672914,
      "v": 67
    },
    {
      "midi": 64,
      "hit": false,
      "t": 68653.54282291768,
      "d": 107.14281249999476,
      "v": 46
    },
    {
      "midi": 73,
      "hit": false,
      "t": 68724.97136458434,
      "d": 64.28568749999977,
      "v": 67
    },
    {
      "midi": 54,
      "hit": false,
      "t": 68796.39990625101,
      "d": 57.14283333333151,
      "v": 70
    },
    {
      "midi": 75,
      "hit": false,
      "t": 68796.39990625101,
      "d": 67.85711458332662,
      "v": 62
    },
    {
      "midi": 76,
      "hit": false,
      "t": 68867.82844791767,
      "d": 57.14283333333151,
      "v": 70
    },
    {
      "midi": 77,
      "hit": false,
      "t": 68932.11413541767,
      "d": 64.28568749999977,
      "v": 74
    },
    {
      "midi": 70,
      "hit": false,
      "t": 68932.11413541767,
      "d": 92.8571041666728,
      "v": 54
    },
    {
      "midi": 78,
      "hit": false,
      "t": 68992.82839583434,
      "d": 57.14283333333151,
      "v": 67
    },
    {
      "midi": 80,
      "hit": false,
      "t": 69049.97122916767,
      "d": 67.85711458331207,
      "v": 60
    },
    {
      "midi": 64,
      "hit": false,
      "t": 69049.97122916767,
      "d": 139.28565624996554,
      "v": 49
    },
    {
      "midi": 78,
      "hit": false,
      "t": 69114.25691666765,
      "d": 28.57141666665848,
      "v": 60
    },
    {
      "midi": 75,
      "hit": false,
      "t": 69178.54260416764,
      "d": 64.28568749998522,
      "v": 65
    },
    {
      "midi": 59,
      "hit": false,
      "t": 69178.54260416764,
      "d": 185.71420833330194,
      "v": 68
    },
    {
      "midi": 76,
      "hit": false,
      "t": 69249.9711458343,
      "d": 71.42854166665347,
      "v": 64
    },
    {
      "midi": 77,
      "hit": false,
      "t": 69317.82826041762,
      "d": 60.71426041665836,
      "v": 82
    },
    {
      "midi": 69,
      "hit": false,
      "t": 69317.82826041762,
      "d": 210.71419791663357,
      "v": 49
    },
    {
      "midi": 78,
      "hit": false,
      "t": 69382.1139479176,
      "d": 60.714260416672914,
      "v": 71
    },
    {
      "midi": 79,
      "hit": false,
      "t": 69446.3996354176,
      "d": 71.42854166665347,
      "v": 77
    },
    {
      "midi": 63,
      "hit": false,
      "t": 69446.3996354176,
      "d": 128.57137499997043,
      "v": 50
    },
    {
      "midi": 80,
      "hit": false,
      "t": 69517.82817708426,
      "d": 60.71426041664381,
      "v": 75
    },
    {
      "midi": 81,
      "hit": false,
      "t": 69582.11386458423,
      "d": 71.42854166665347,
      "v": 83
    },
    {
      "midi": 60,
      "hit": false,
      "t": 69582.11386458423,
      "d": 232.14276041663834,
      "v": 71
    },
    {
      "midi": 82,
      "hit": false,
      "t": 69649.97097916756,
      "d": 60.71426041664381,
      "v": 77
    },
    {
      "midi": 83,
      "hit": false,
      "t": 69717.82809375087,
      "d": 64.28568749999977,
      "v": 81
    },
    {
      "midi": 69,
      "hit": false,
      "t": 69717.82809375087,
      "d": 210.71419791666267,
      "v": 55
    },
    {
      "midi": 84,
      "hit": false,
      "t": 69778.54235416754,
      "d": 64.28568749998522,
      "v": 84
    },
    {
      "midi": 85,
      "hit": false,
      "t": 69839.2566145842,
      "d": 57.14283333333151,
      "v": 76
    },
    {
      "midi": 63,
      "hit": false,
      "t": 69839.2566145842,
      "d": 117.85709374998987,
      "v": 55
    },
    {
      "midi": 86,
      "hit": false,
      "t": 69899.97087500086,
      "d": 64.28568749999977,
      "v": 76
    },
    {
      "midi": 87,
      "hit": false,
      "t": 69964.25656250086,
      "d": 60.71426041665836,
      "v": 81
    },
    {
      "midi": 60,
      "hit": false,
      "t": 69974.97084375085,
      "d": 232.1427604166529,
      "v": 75
    },
    {
      "midi": 88,
      "hit": false,
      "t": 70028.54225000084,
      "d": 71.42854166665347,
      "v": 81
    },
    {
      "midi": 89,
      "hit": false,
      "t": 70092.82793750084,
      "d": 57.14283333331696,
      "v": 83
    },
    {
      "midi": 69,
      "hit": false,
      "t": 70096.39936458417,
      "d": 199.99991666666756,
      "v": 48
    },
    {
      "midi": 90,
      "hit": false,
      "t": 70149.97077083416,
      "d": 64.28568750001432,
      "v": 65
    },
    {
      "midi": 91,
      "hit": false,
      "t": 70214.25645833417,
      "d": 49.99997916666325,
      "v": 69
    },
    {
      "midi": 63,
      "hit": false,
      "t": 70214.25645833417,
      "d": 160.71421874998487,
      "v": 49
    },
    {
      "midi": 92,
      "hit": false,
      "t": 70278.54214583417,
      "d": 53.571406249990105,
      "v": 68
    },
    {
      "midi": 93,
      "hit": false,
      "t": 70349.97068750083,
      "d": 64.28568749998522,
      "v": 70
    },
    {
      "midi": 59,
      "hit": false,
      "t": 70349.97068750083,
      "d": 210.71419791663357,
      "v": 68
    },
    {
      "midi": 94,
      "hit": false,
      "t": 70410.68494791749,
      "d": 71.42854166663892,
      "v": 71
    },
    {
      "midi": 95,
      "hit": false,
      "t": 70471.39920833413,
      "d": 57.14283333333151,
      "v": 76
    },
    {
      "midi": 69,
      "hit": false,
      "t": 70471.39920833413,
      "d": 492.8569374999497,
      "v": 64
    },
    {
      "midi": 96,
      "hit": false,
      "t": 70539.25632291746,
      "d": 71.42854166666802,
      "v": 80
    },
    {
      "midi": 63,
      "hit": false,
      "t": 70610.68486458412,
      "d": 64.28568749999977,
      "v": 52
    },
    {
      "midi": 93,
      "hit": false,
      "t": 70610.68486458412,
      "d": 74.99996874999488,
      "v": 74
    },
    {
      "midi": 90,
      "hit": false,
      "t": 70682.11340625079,
      "d": 46.42855208332185,
      "v": 70
    },
    {
      "midi": 86,
      "hit": false,
      "t": 70746.39909375076,
      "d": 78.57139583332173,
      "v": 76
    },
    {
      "midi": 59,
      "hit": false,
      "t": 70746.39909375076,
      "d": 567.8569062499591,
      "v": 70
    },
    {
      "midi": 90,
      "hit": false,
      "t": 70821.39906250076,
      "d": 46.42855208332185,
      "v": 65
    },
    {
      "midi": 87,
      "hit": false,
      "t": 70878.54189583407,
      "d": 49.99997916666325,
      "v": 73
    },
    {
      "midi": 93,
      "hit": false,
      "t": 70942.82758333407,
      "d": 32.142843749999884,
      "v": 76
    },
    {
      "midi": 90,
      "hit": false,
      "t": 70996.39898958408,
      "d": 49.99997916666325,
      "v": 68
    },
    {
      "midi": 87,
      "hit": false,
      "t": 71057.11325000074,
      "d": 49.99997916666325,
      "v": 73
    },
    {
      "midi": 83,
      "hit": false,
      "t": 71128.5417916674,
      "d": 74.99996874999488,
      "v": 74
    },
    {
      "midi": 87,
      "hit": false,
      "t": 71185.68462500074,
      "d": 49.99997916666325,
      "v": 77
    },
    {
      "midi": 84,
      "hit": false,
      "t": 71246.3988854174,
      "d": 49.99997916666325,
      "v": 82
    },
    {
      "midi": 90,
      "hit": false,
      "t": 71307.11314583405,
      "d": 46.4285520833364,
      "v": 80
    },
    {
      "midi": 87,
      "hit": false,
      "t": 71364.25597916738,
      "d": 49.99997916666325,
      "v": 74
    },
    {
      "midi": 84,
      "hit": false,
      "t": 71424.97023958404,
      "d": 46.4285520833364,
      "v": 79
    },
    {
      "midi": 80,
      "hit": false,
      "t": 71485.68450000072,
      "d": 78.57139583332173,
      "v": 74
    },
    {
      "midi": 84,
      "hit": false,
      "t": 71553.54161458404,
      "d": 46.42855208332185,
      "v": 66
    },
    {
      "midi": 81,
      "hit": false,
      "t": 71614.2558750007,
      "d": 49.99997916666325,
      "v": 74
    },
    {
      "midi": 87,
      "hit": false,
      "t": 71678.5415625007,
      "d": 39.28569791666814,
      "v": 73
    },
    {
      "midi": 84,
      "hit": false,
      "t": 71739.25582291737,
      "d": 46.4285520833364,
      "v": 72
    },
    {
      "midi": 81,
      "hit": false,
      "t": 71803.54151041737,
      "d": 42.857124999994994,
      "v": 78
    },
    {
      "midi": 77,
      "hit": false,
      "t": 71867.82719791737,
      "d": 53.57140625000466,
      "v": 79
    },
    {
      "midi": 81,
      "hit": false,
      "t": 71924.9700312507,
      "d": 53.57140625000466,
      "v": 77
    },
    {
      "midi": 78,
      "hit": false,
      "t": 71989.2557187507,
      "d": 49.99997916666325,
      "v": 77
    },
    {
      "midi": 84,
      "hit": false,
      "t": 72060.68426041737,
      "d": 32.142843749999884,
      "v": 75
    },
    {
      "midi": 81,
      "hit": false,
      "t": 72121.39852083405,
      "d": 46.4285520833364,
      "v": 71
    },
    {
      "midi": 78,
      "hit": false,
      "t": 72174.96992708405,
      "d": 57.14283333333151,
      "v": 71
    },
    {
      "midi": 35,
      "hit": false,
      "t": 72246.39846875072,
      "d": 49.99997916666325,
      "v": 63
    },
    {
      "midi": 74,
      "hit": false,
      "t": 72246.39846875072,
      "d": 64.28568749998522,
      "v": 70
    },
    {
      "midi": 78,
      "hit": false,
      "t": 72307.11272916738,
      "d": 53.571406249990105,
      "v": 71
    },
    {
      "midi": 75,
      "hit": false,
      "t": 72374.9698437507,
      "d": 46.4285520833364,
      "v": 78
    },
    {
      "midi": 36,
      "hit": false,
      "t": 72374.9698437507,
      "d": 49.99997916666325,
      "v": 65
    },
    {
      "midi": 81,
      "hit": false,
      "t": 72442.82695833403,
      "d": 39.28569791666814,
      "v": 78
    },
    {
      "midi": 78,
      "hit": false,
      "t": 72499.96979166736,
      "d": 53.57140625000466,
      "v": 73
    },
    {
      "midi": 37,
      "hit": false,
      "t": 72507.11264583403,
      "d": 99.9999583333265,
      "v": 67
    },
    {
      "midi": 75,
      "hit": false,
      "t": 72557.1126250007,
      "d": 53.571406249990105,
      "v": 76
    },
    {
      "midi": 71,
      "hit": false,
      "t": 72628.54116666735,
      "d": 57.14283333331696,
      "v": 74
    },
    {
      "midi": 38,
      "hit": false,
      "t": 72632.11259375067,
      "d": 57.14283333331696,
      "v": 69
    },
    {
      "midi": 75,
      "hit": false,
      "t": 72682.11257291734,
      "d": 53.571406249990105,
      "v": 75
    },
    {
      "midi": 72,
      "hit": false,
      "t": 72746.39826041732,
      "d": 46.42855208332185,
      "v": 84
    },
    {
      "midi": 39,
      "hit": false,
      "t": 72749.96968750065,
      "d": 49.99997916666325,
      "v": 71
    },
    {
      "midi": 78,
      "hit": false,
      "t": 72807.11252083398,
      "d": 53.57140625000466,
      "v": 77
    },
    {
      "midi": 75,
      "hit": false,
      "t": 72871.39820833398,
      "d": 53.571406249990105,
      "v": 75
    },
    {
      "midi": 40,
      "hit": false,
      "t": 72882.11248958397,
      "d": 49.9999791666487,
      "v": 73
    },
    {
      "midi": 72,
      "hit": false,
      "t": 72928.5410416673,
      "d": 49.99997916666325,
      "v": 81
    },
    {
      "midi": 68,
      "hit": false,
      "t": 72992.8267291673,
      "d": 85.71424999998999,
      "v": 72
    },
    {
      "midi": 41,
      "hit": false,
      "t": 72999.96958333396,
      "d": 42.857124999994994,
      "v": 75
    },
    {
      "midi": 72,
      "hit": false,
      "t": 73060.68384375062,
      "d": 57.14283333333151,
      "v": 81
    },
    {
      "midi": 69,
      "hit": false,
      "t": 73128.54095833395,
      "d": 49.9999791666487,
      "v": 80
    },
    {
      "midi": 42,
      "hit": false,
      "t": 73132.11238541728,
      "d": 71.42854166665347,
      "v": 77
    },
    {
      "midi": 30,
      "hit": false,
      "t": 73135.6838125006,
      "d": 39.28569791666814,
      "v": 78
    },
    {
      "midi": 75,
      "hit": false,
      "t": 73192.82664583393,
      "d": 49.99997916666325,
      "v": 79
    },
    {
      "midi": 43,
      "hit": false,
      "t": 73257.11233333393,
      "d": 42.85712499998044,
      "v": 79
    },
    {
      "midi": 72,
      "hit": false,
      "t": 73260.68376041726,
      "d": 46.42855208332185,
      "v": 80
    },
    {
      "midi": 31,
      "hit": false,
      "t": 73264.25518750059,
      "d": 35.71427083332674,
      "v": 76
    },
    {
      "midi": 69,
      "hit": false,
      "t": 73317.82659375058,
      "d": 42.857124999994994,
      "v": 79
    },
    {
      "midi": 65,
      "hit": false,
      "t": 73385.6837083339,
      "d": 49.99997916666325,
      "v": 71
    },
    {
      "midi": 44,
      "hit": false,
      "t": 73385.6837083339,
      "d": 60.71426041665836,
      "v": 81
    },
    {
      "midi": 32,
      "hit": false,
      "t": 73389.25513541723,
      "d": 32.142843749999884,
      "v": 79
    },
    {
      "midi": 69,
      "hit": false,
      "t": 73442.82654166724,
      "d": 53.571406249990105,
      "v": 79
    },
    {
      "midi": 66,
      "hit": false,
      "t": 73507.11222916722,
      "d": 57.14283333331696,
      "v": 75
    },
    {
      "midi": 45,
      "hit": false,
      "t": 73517.82651041722,
      "d": 42.857124999994994,
      "v": 83
    },
    {
      "midi": 33,
      "hit": false,
      "t": 73521.39793750054,
      "d": 46.42855208332185,
      "v": 73
    },
    {
      "midi": 72,
      "hit": false,
      "t": 73574.96934375053,
      "d": 49.99997916666325,
      "v": 83
    },
    {
      "midi": 69,
      "hit": false,
      "t": 73632.11217708387,
      "d": 57.14283333331696,
      "v": 77
    },
    {
      "midi": 34,
      "hit": false,
      "t": 73635.68360416719,
      "d": 57.14283333331696,
      "v": 80
    },
    {
      "midi": 46,
      "hit": false,
      "t": 73639.25503125052,
      "d": 64.28568749998522,
      "v": 85
    },
    {
      "midi": 66,
      "hit": false,
      "t": 73689.25501041718,
      "d": 53.571406249990105,
      "v": 77
    },
    {
      "midi": 62,
      "hit": false,
      "t": 73757.11212500051,
      "d": 67.85711458332662,
      "v": 80
    },
    {
      "midi": 35,
      "hit": false,
      "t": 73764.25497916718,
      "d": 35.71427083332674,
      "v": 81
    },
    {
      "midi": 47,
      "hit": false,
      "t": 73764.25497916718,
      "d": 53.571406249990105,
      "v": 87
    },
    {
      "midi": 66,
      "hit": false,
      "t": 73817.82638541717,
      "d": 60.714260416672914,
      "v": 75
    },
    {
      "midi": 63,
      "hit": false,
      "t": 73885.68350000051,
      "d": 53.571406249990105,
      "v": 74
    },
    {
      "midi": 48,
      "hit": false,
      "t": 73889.25492708384,
      "d": 35.71427083332674,
      "v": 91
    },
    {
      "midi": 36,
      "hit": false,
      "t": 73899.96920833383,
      "d": 14.285708333336515,
      "v": 83
    },
    {
      "midi": 69,
      "hit": false,
      "t": 73953.54061458384,
      "d": 53.57140625000466,
      "v": 79
    },
    {
      "midi": 35,
      "hit": false,
      "t": 74014.25487500051,
      "d": 24.999989583331626,
      "v": 89
    },
    {
      "midi": 47,
      "hit": false,
      "t": 74014.25487500051,
      "d": 28.57141666665848,
      "v": 95
    },
    {
      "midi": 66,
      "hit": false,
      "t": 74014.25487500051,
      "d": 71.42854166665347,
      "v": 63
    },
    {
      "midi": 63,
      "hit": false,
      "t": 74078.5405625005,
      "d": 60.714260416672914,
      "v": 68
    },
    {
      "midi": 59,
      "hit": false,
      "t": 74149.96910416716,
      "d": 64.28568749999977,
      "v": 85
    },
    {
      "midi": 42,
      "hit": false,
      "t": 74149.96910416716,
      "d": 367.85698958330613,
      "v": 90
    },
    {
      "midi": 54,
      "hit": false,
      "t": 74149.96910416716,
      "d": 610.7140312499541,
      "v": 100
    },
    {
      "midi": 63,
      "hit": false,
      "t": 74214.25479166716,
      "d": 49.999979166677804,
      "v": 71
    },
    {
      "midi": 60,
      "hit": false,
      "t": 74274.96905208383,
      "d": 42.857124999994994,
      "v": 76
    },
    {
      "midi": 66,
      "hit": false,
      "t": 74332.11188541717,
      "d": 53.571406249990105,
      "v": 70
    },
    {
      "midi": 63,
      "hit": false,
      "t": 74396.39757291715,
      "d": 60.71426041665836,
      "v": 69
    },
    {
      "midi": 60,
      "hit": false,
      "t": 74460.68326041714,
      "d": 39.28569791666814,
      "v": 72
    },
    {
      "midi": 56,
      "hit": false,
      "t": 74517.82609375047,
      "d": 85.71425000000454,
      "v": 64
    },
    {
      "midi": 61,
      "hit": false,
      "t": 74585.68320833381,
      "d": 28.57141666665848,
      "v": 36
    },
    {
      "midi": 60,
      "hit": false,
      "t": 74585.68320833381,
      "d": 46.42855208332185,
      "v": 73
    },
    {
      "midi": 57,
      "hit": false,
      "t": 74642.82604166713,
      "d": 46.4285520833364,
      "v": 73
    },
    {
      "midi": 63,
      "hit": false,
      "t": 74699.96887500046,
      "d": 49.99997916666325,
      "v": 71
    },
    {
      "midi": 60,
      "hit": false,
      "t": 74764.25456250044,
      "d": 57.14283333333151,
      "v": 68
    },
    {
      "midi": 57,
      "hit": false,
      "t": 74828.54025000044,
      "d": 21.428562500004773,
      "v": 58
    },
    {
      "midi": 50,
      "hit": false,
      "t": 74889.25451041711,
      "d": 53.57140625000466,
      "v": 64
    },
    {
      "midi": 54,
      "hit": false,
      "t": 74949.96877083379,
      "d": 49.99997916666325,
      "v": 68
    },
    {
      "midi": 51,
      "hit": false,
      "t": 75010.68303125045,
      "d": 53.57140625000466,
      "v": 75
    },
    {
      "midi": 57,
      "hit": false,
      "t": 75078.54014583377,
      "d": 35.71427083334129,
      "v": 68
    },
    {
      "midi": 54,
      "hit": false,
      "t": 75135.68297916712,
      "d": 49.99997916666325,
      "v": 61
    },
    {
      "midi": 48,
      "hit": false,
      "t": 75199.96866666712,
      "d": 53.57140625000466,
      "v": 69
    },
    {
      "midi": 47,
      "hit": false,
      "t": 75267.82578125046,
      "d": 64.28568749999977,
      "v": 73
    },
    {
      "midi": 35,
      "hit": false,
      "t": 75282.1114895838,
      "d": 271.42845833332103,
      "v": 73
    },
    {
      "midi": 48,
      "hit": false,
      "t": 75328.54004166713,
      "d": 42.857124999994994,
      "v": 65
    },
    {
      "midi": 51,
      "hit": false,
      "t": 75396.39715625046,
      "d": 49.99997916666325,
      "v": 65
    },
    {
      "midi": 57,
      "hit": false,
      "t": 75464.25427083379,
      "d": 32.142843749999884,
      "v": 66
    },
    {
      "midi": 54,
      "hit": false,
      "t": 75521.39710416712,
      "d": 46.4285520833364,
      "v": 65
    },
    {
      "midi": 48,
      "hit": false,
      "t": 75589.25421875046,
      "d": 53.57140625000466,
      "v": 65
    },
    {
      "midi": 36,
      "hit": false,
      "t": 75596.39707291713,
      "d": 39.28569791666814,
      "v": 65
    },
    {
      "midi": 47,
      "hit": false,
      "t": 75653.53990625046,
      "d": 57.14283333331696,
      "v": 74
    },
    {
      "midi": 35,
      "hit": false,
      "t": 75664.25418750045,
      "d": 214.28562499996042,
      "v": 74
    },
    {
      "midi": 48,
      "hit": false,
      "t": 75714.2541666671,
      "d": 46.42855208332185,
      "v": 66
    },
    {
      "midi": 51,
      "hit": false,
      "t": 75785.68270833376,
      "d": 46.42855208332185,
      "v": 65
    },
    {
      "midi": 57,
      "hit": false,
      "t": 75849.96839583374,
      "d": 32.142843749999884,
      "v": 64
    },
    {
      "midi": 54,
      "hit": false,
      "t": 75903.53980208375,
      "d": 49.99997916666325,
      "v": 64
    },
    {
      "midi": 48,
      "hit": false,
      "t": 75967.82548958375,
      "d": 57.14283333333151,
      "v": 65
    },
    {
      "midi": 36,
      "hit": false,
      "t": 75974.96834375041,
      "d": 32.142843749999884,
      "v": 65
    },
    {
      "midi": 47,
      "hit": false,
      "t": 76035.68260416707,
      "d": 46.42855208332185,
      "v": 76
    },
    {
      "midi": 35,
      "hit": false,
      "t": 76039.2540312504,
      "d": 121.42852083331672,
      "v": 75
    },
    {
      "midi": 48,
      "hit": false,
      "t": 76092.82543750039,
      "d": 49.99997916666325,
      "v": 64
    },
    {
      "midi": 54,
      "hit": false,
      "t": 76157.11112500039,
      "d": 49.99997916666325,
      "v": 64
    },
    {
      "midi": 57,
      "hit": false,
      "t": 76228.53966666706,
      "d": 32.142843749999884,
      "v": 64
    },
    {
      "midi": 51,
      "hit": false,
      "t": 76289.25392708373,
      "d": 49.99997916666325,
      "v": 63
    },
    {
      "midi": 48,
      "hit": false,
      "t": 76353.53961458373,
      "d": 53.571406249990105,
      "v": 63
    },
    {
      "midi": 36,
      "hit": false,
      "t": 76357.11104166706,
      "d": 42.857124999994994,
      "v": 63
    },
    {
      "midi": 47,
      "hit": false,
      "t": 76421.39672916706,
      "d": 46.4285520833364,
      "v": 74
    },
    {
      "midi": 35,
      "hit": false,
      "t": 76428.53958333372,
      "d": 107.14281249999476,
      "v": 74
    },
    {
      "midi": 48,
      "hit": false,
      "t": 76478.53956250039,
      "d": 46.4285520833364,
      "v": 64
    },
    {
      "midi": 51,
      "hit": false,
      "t": 76542.82525000039,
      "d": 53.57140625000466,
      "v": 63
    },
    {
      "midi": 57,
      "hit": false,
      "t": 76607.11093750039,
      "d": 42.857124999994994,
      "v": 64
    },
    {
      "midi": 54,
      "hit": false,
      "t": 76660.68234375038,
      "d": 53.57140625000466,
      "v": 64
    },
    {
      "midi": 36,
      "hit": false,
      "t": 76724.96803125038,
      "d": 35.71427083332674,
      "v": 65
    },
    {
      "midi": 48,
      "hit": false,
      "t": 76728.5394583337,
      "d": 57.14283333333151,
      "v": 65
    },
    {
      "midi": 47,
      "hit": false,
      "t": 76796.39657291703,
      "d": 128.57137499998498,
      "v": 74
    },
    {
      "midi": 35,
      "hit": false,
      "t": 76799.96800000036,
      "d": 160.71421874999942,
      "v": 73
    },
    {
      "midi": 42,
      "hit": false,
      "t": 76939.25365625035,
      "d": 46.4285520833364,
      "v": 46
    },
    {
      "midi": 45,
      "hit": false,
      "t": 77007.1107708337,
      "d": 28.57141666667303,
      "v": 57
    },
    {
      "midi": 48,
      "hit": false,
      "t": 77053.53932291703,
      "d": 139.2856562499801,
      "v": 85
    },
    {
      "midi": 42,
      "hit": false,
      "t": 77064.25360416702,
      "d": 49.99997916666325,
      "v": 50
    },
    {
      "midi": 39,
      "hit": false,
      "t": 77124.96786458368,
      "d": 57.14283333333151,
      "v": 36
    },
    {
      "midi": 47,
      "hit": false,
      "t": 77196.39640625034,
      "d": 132.1428020833264,
      "v": 85
    },
    {
      "midi": 35,
      "hit": false,
      "t": 77207.11068750033,
      "d": 289.2855937499844,
      "v": 51
    },
    {
      "midi": 39,
      "hit": false,
      "t": 77274.96780208366,
      "d": 60.714260416672914,
      "v": 46
    },
    {
      "midi": 42,
      "hit": false,
      "t": 77335.68206250033,
      "d": 82.14282291666314,
      "v": 55
    },
    {
      "midi": 45,
      "hit": false,
      "t": 77414.25345833367,
      "d": 74.99996874998033,
      "v": 64
    },
    {
      "midi": 54,
      "hit": false,
      "t": 77453.53915625032,
      "d": 135.71422916665324,
      "v": 77
    },
    {
      "midi": 42,
      "hit": false,
      "t": 77499.96770833364,
      "d": 82.14282291666314,
      "v": 58
    },
    {
      "midi": 47,
      "hit": false,
      "t": 77592.8248125003,
      "d": 92.85710416665825,
      "v": 82
    },
    {
      "midi": 35,
      "hit": false,
      "t": 77610.68194791696,
      "d": 314.285583333316,
      "v": 46
    },
    {
      "midi": 39,
      "hit": false,
      "t": 77689.25334375029,
      "d": 92.8571041666728,
      "v": 61
    },
    {
      "midi": 42,
      "hit": false,
      "t": 77749.96760416696,
      "d": 96.42853124999965,
      "v": 50
    },
    {
      "midi": 60,
      "hit": false,
      "t": 77857.11041666695,
      "d": 124.99994791665813,
      "v": 83
    },
    {
      "midi": 42,
      "hit": false,
      "t": 77907.11039583362,
      "d": 71.42854166666802,
      "v": 62
    },
    {
      "midi": 39,
      "hit": false,
      "t": 77982.11036458361,
      "d": 46.4285520833364,
      "v": 47
    },
    {
      "midi": 59,
      "hit": false,
      "t": 77999.96750000028,
      "d": 124.99994791667268,
      "v": 75
    },
    {
      "midi": 35,
      "hit": false,
      "t": 78049.96747916695,
      "d": 207.1427708333067,
      "v": 40
    },
    {
      "midi": 51,
      "hit": false,
      "t": 78128.53887500027,
      "d": 160.71421874998487,
      "v": 58
    },
    {
      "midi": 57,
      "hit": false,
      "t": 78132.1103020836,
      "d": 107.14281249999476,
      "v": 67
    },
    {
      "midi": 42,
      "hit": false,
      "t": 78139.25315625027,
      "d": 49.99997916666325,
      "v": 52
    },
    {
      "midi": 47,
      "hit": false,
      "t": 78199.96741666693,
      "d": 135.7142291666678,
      "v": 54
    },
    {
      "midi": 63,
      "hit": false,
      "t": 78249.96739583359,
      "d": 103.57138541666791,
      "v": 79
    },
    {
      "midi": 42,
      "hit": false,
      "t": 78274.96738541692,
      "d": 35.71427083334129,
      "v": 52
    },
    {
      "midi": 64,
      "hit": false,
      "t": 78399.96733333358,
      "d": 278.5713124999893,
      "v": 79
    },
    {
      "midi": 40,
      "hit": false,
      "t": 78403.53876041691,
      "d": 239.2856145833357,
      "v": 48
    },
    {
      "midi": 47,
      "hit": false,
      "t": 78499.96729166691,
      "d": 107.14281249999476,
      "v": 48
    },
    {
      "midi": 55,
      "hit": false,
      "t": 78557.11012500024,
      "d": 121.42852083333128,
      "v": 60
    },
    {
      "midi": 52,
      "hit": false,
      "t": 78621.39581250024,
      "d": 85.71425000000454,
      "v": 56
    },
    {
      "midi": 59,
      "hit": false,
      "t": 78674.96721875024,
      "d": 110.71423958332161,
      "v": 79
    },
    {
      "midi": 47,
      "hit": false,
      "t": 78714.25291666691,
      "d": 74.99996874998033,
      "v": 52
    },
    {
      "midi": 60,
      "hit": false,
      "t": 78799.96716666689,
      "d": 232.14276041666744,
      "v": 80
    },
    {
      "midi": 45,
      "hit": false,
      "t": 78807.11002083356,
      "d": 253.57132291665766,
      "v": 58
    },
    {
      "midi": 48,
      "hit": false,
      "t": 78910.68140625022,
      "d": 67.85711458334117,
      "v": 55
    },
    {
      "midi": 54,
      "hit": false,
      "t": 78924.96711458356,
      "d": 142.8570833333215,
      "v": 60
    },
    {
      "midi": 52,
      "hit": false,
      "t": 78996.39565625023,
      "d": 60.71426041665836,
      "v": 54
    },
    {
      "midi": 63,
      "hit": false,
      "t": 79049.96706250022,
      "d": 110.71423958332161,
      "v": 80
    },
    {
      "midi": 48,
      "hit": false,
      "t": 79067.82419791688,
      "d": 49.99997916666325,
      "v": 63
    },
    {
      "midi": 64,
      "hit": false,
      "t": 79189.25271875021,
      "d": 232.1427604166529,
      "v": 80
    },
    {
      "midi": 40,
      "hit": false,
      "t": 79207.10985416688,
      "d": 257.1427499999845,
      "v": 43
    },
    {
      "midi": 47,
      "hit": false,
      "t": 79289.25267708354,
      "d": 78.57139583332173,
      "v": 43
    },
    {
      "midi": 55,
      "hit": false,
      "t": 79317.8240937502,
      "d": 224.99990624999919,
      "v": 61
    },
    {
      "midi": 52,
      "hit": false,
      "t": 79374.96692708353,
      "d": 85.71425000000454,
      "v": 55
    },
    {
      "midi": 59,
      "hit": false,
      "t": 79439.25261458353,
      "d": 121.42852083333128,
      "v": 76
    },
    {
      "midi": 47,
      "hit": false,
      "t": 79460.68117708353,
      "d": 99.9999583333265,
      "v": 47
    },
    {
      "midi": 60,
      "hit": false,
      "t": 79574.9668437502,
      "d": 132.1428020833264,
      "v": 77
    },
    {
      "midi": 45,
      "hit": false,
      "t": 79582.10969791687,
      "d": 282.14273958331614,
      "v": 59
    },
    {
      "midi": 48,
      "hit": false,
      "t": 79671.39537500018,
      "d": 74.99996874999488,
      "v": 60
    },
    {
      "midi": 57,
      "hit": false,
      "t": 79710.68107291685,
      "d": 239.28561458332115,
      "v": 61
    },
    {
      "midi": 52,
      "hit": false,
      "t": 79764.25247916684,
      "d": 89.28567708334594,
      "v": 53
    },
    {
      "midi": 63,
      "hit": false,
      "t": 79824.96673958351,
      "d": 132.1428020833264,
      "v": 76
    },
    {
      "midi": 48,
      "hit": false,
      "t": 79864.25243750018,
      "d": 82.14282291666314,
      "v": 53
    },
    {
      "midi": 64,
      "hit": false,
      "t": 79967.82382291683,
      "d": 124.99994791665813,
      "v": 83
    },
    {
      "midi": 40,
      "hit": false,
      "t": 79985.6809583335,
      "d": 239.2856145833066,
      "v": 51
    },
    {
      "midi": 47,
      "hit": false,
      "t": 80064.25235416683,
      "d": 67.85711458331207,
      "v": 47
    },
    {
      "midi": 59,
      "hit": false,
      "t": 80103.53805208349,
      "d": 89.28567708331684,
      "v": 59
    },
    {
      "midi": 55,
      "hit": false,
      "t": 80107.10947916681,
      "d": 78.57139583332173,
      "v": 59
    },
    {
      "midi": 52,
      "hit": false,
      "t": 80149.96660416681,
      "d": 78.57139583332173,
      "v": 43
    },
    {
      "midi": 64,
      "hit": false,
      "t": 80217.82371875014,
      "d": 82.14282291666314,
      "v": 82
    },
    {
      "midi": 47,
      "hit": false,
      "t": 80228.53800000013,
      "d": 74.99996874999488,
      "v": 60
    },
    {
      "midi": 66,
      "hit": false,
      "t": 80335.68081250013,
      "d": 46.4285520833364,
      "v": 70
    },
    {
      "midi": 64,
      "hit": false,
      "t": 80357.10937500013,
      "d": 110.71423958332161,
      "v": 82
    },
    {
      "midi": 45,
      "hit": false,
      "t": 80360.68080208346,
      "d": 199.99991666663846,
      "v": 60
    },
    {
      "midi": 63,
      "hit": false,
      "t": 80474.96646875012,
      "d": 107.14281249998021,
      "v": 77
    },
    {
      "midi": 48,
      "hit": false,
      "t": 80478.53789583345,
      "d": 71.42854166665347,
      "v": 60
    },
    {
      "midi": 57,
      "hit": false,
      "t": 80492.82360416678,
      "d": 46.42855208332185,
      "v": 54
    },
    {
      "midi": 60,
      "hit": false,
      "t": 80496.39503125011,
      "d": 17.85713541666337,
      "v": 31
    },
    {
      "midi": 52,
      "hit": false,
      "t": 80560.6807187501,
      "d": 67.85711458334117,
      "v": 52
    },
    {
      "midi": 64,
      "hit": false,
      "t": 80596.39498958344,
      "d": 132.1428020833264,
      "v": 80
    },
    {
      "midi": 48,
      "hit": false,
      "t": 80632.10926041676,
      "d": 82.14282291666314,
      "v": 64
    },
    {
      "midi": 67,
      "hit": false,
      "t": 80735.68064583343,
      "d": 992.8567291665968,
      "v": 82
    },
    {
      "midi": 43,
      "hit": false,
      "t": 80746.39492708343,
      "d": 324.9998645833257,
      "v": 56
    },
    {
      "midi": 50,
      "hit": false,
      "t": 80824.96632291675,
      "d": 82.14282291667769,
      "v": 59
    },
    {
      "midi": 59,
      "hit": false,
      "t": 80867.82344791676,
      "d": 114.28566666666302,
      "v": 55
    },
    {
      "midi": 55,
      "hit": false,
      "t": 80917.82342708342,
      "d": 71.42854166666802,
      "v": 52
    },
    {
      "midi": 62,
      "hit": false,
      "t": 80992.82339583342,
      "d": 221.42847916665778,
      "v": 58
    },
    {
      "midi": 50,
      "hit": false,
      "t": 80999.96625000008,
      "d": 99.99995833334106,
      "v": 52
    },
    {
      "midi": 48,
      "hit": false,
      "t": 81110.68048958342,
      "d": 99.9999583333265,
      "v": 62
    },
    {
      "midi": 51,
      "hit": false,
      "t": 81192.82331250008,
      "d": 82.14282291664858,
      "v": 60
    },
    {
      "midi": 60,
      "hit": false,
      "t": 81232.10901041674,
      "d": 199.999916666653,
      "v": 60
    },
    {
      "midi": 55,
      "hit": false,
      "t": 81289.25184375007,
      "d": 78.57139583332173,
      "v": 53
    },
    {
      "midi": 63,
      "hit": false,
      "t": 81357.1089583334,
      "d": 221.42847916664323,
      "v": 56
    },
    {
      "midi": 51,
      "hit": false,
      "t": 81364.25181250006,
      "d": 92.85710416665825,
      "v": 57
    },
    {
      "midi": 43,
      "hit": false,
      "t": 81474.96605208339,
      "d": 239.28561458332115,
      "v": 59
    },
    {
      "midi": 50,
      "hit": false,
      "t": 81560.68030208338,
      "d": 82.14282291666314,
      "v": 49
    },
    {
      "midi": 59,
      "hit": false,
      "t": 81585.68029166671,
      "d": 149.99993749998976,
      "v": 61
    },
    {
      "midi": 55,
      "hit": false,
      "t": 81649.9659791667,
      "d": 74.99996874999488,
      "v": 46
    },
    {
      "midi": 62,
      "hit": false,
      "t": 81714.2516666667,
      "d": 103.57138541665336,
      "v": 79
    },
    {
      "midi": 50,
      "hit": false,
      "t": 81735.6802291667,
      "d": 78.57139583333628,
      "v": 53
    },
    {
      "midi": 63,
      "hit": false,
      "t": 81839.25161458337,
      "d": 160.71421875001397,
      "v": 81
    },
    {
      "midi": 48,
      "hit": false,
      "t": 81846.39446875003,
      "d": 92.8571041666728,
      "v": 56
    },
    {
      "midi": 51,
      "hit": false,
      "t": 81928.53729166671,
      "d": 89.2856770833314,
      "v": 54
    },
    {
      "midi": 60,
      "hit": false,
      "t": 81974.96584375005,
      "d": 110.71423958333617,
      "v": 63
    },
    {
      "midi": 57,
      "hit": false,
      "t": 81989.25155208338,
      "d": 142.8570833333215,
      "v": 54
    },
    {
      "midi": 55,
      "hit": false,
      "t": 82024.96582291671,
      "d": 64.28568749999977,
      "v": 52
    },
    {
      "midi": 66,
      "hit": false,
      "t": 82092.82293750004,
      "d": 114.28566666667757,
      "v": 82
    },
    {
      "midi": 51,
      "hit": false,
      "t": 82099.9657916667,
      "d": 92.8571041666728,
      "v": 52
    },
    {
      "midi": 67,
      "hit": false,
      "t": 82214.25145833338,
      "d": 257.1427500000136,
      "v": 84
    },
    {
      "midi": 43,
      "hit": false,
      "t": 82228.53716666672,
      "d": 182.1427812500042,
      "v": 51
    },
    {
      "midi": 50,
      "hit": false,
      "t": 82292.82285416672,
      "d": 107.14281250000931,
      "v": 60
    },
    {
      "midi": 59,
      "hit": false,
      "t": 82346.39426041672,
      "d": 157.142791666658,
      "v": 61
    },
    {
      "midi": 55,
      "hit": false,
      "t": 82403.53709375006,
      "d": 71.42854166666802,
      "v": 51
    },
    {
      "midi": 62,
      "hit": false,
      "t": 82471.3942083334,
      "d": 99.99995833331195,
      "v": 77
    },
    {
      "midi": 50,
      "hit": false,
      "t": 82478.53706250005,
      "d": 96.4285312499851,
      "v": 55
    },
    {
      "midi": 63,
      "hit": false,
      "t": 82596.39415625004,
      "d": 185.71420833333104,
      "v": 81
    },
    {
      "midi": 48,
      "hit": false,
      "t": 82599.96558333337,
      "d": 96.42853124999965,
      "v": 53
    },
    {
      "midi": 51,
      "hit": false,
      "t": 82689.2512604167,
      "d": 74.99996875000943,
      "v": 56
    },
    {
      "midi": 60,
      "hit": false,
      "t": 82742.8226666667,
      "d": 96.42853124999965,
      "v": 61
    },
    {
      "midi": 57,
      "hit": false,
      "t": 82757.10837500004,
      "d": 142.8570833333215,
      "v": 28
    },
    {
      "midi": 55,
      "hit": false,
      "t": 82774.9655104167,
      "d": 57.14283333333151,
      "v": 53
    },
    {
      "midi": 51,
      "hit": false,
      "t": 82839.2511979167,
      "d": 99.9999583333265,
      "v": 57
    },
    {
      "midi": 66,
      "hit": false,
      "t": 82849.9654791667,
      "d": 78.57139583333628,
      "v": 79
    },
    {
      "midi": 67,
      "hit": false,
      "t": 82982.10828125002,
      "d": 146.4285104166629,
      "v": 83
    },
    {
      "midi": 43,
      "hit": false,
      "t": 83003.53684375003,
      "d": 124.99994791665813,
      "v": 53
    },
    {
      "midi": 50,
      "hit": false,
      "t": 83089.25109375002,
      "d": 67.85711458334117,
      "v": 54
    },
    {
      "midi": 62,
      "hit": false,
      "t": 83110.67965625002,
      "d": 82.14282291666314,
      "v": 62
    },
    {
      "midi": 59,
      "hit": false,
      "t": 83121.39393750002,
      "d": 107.14281250000931,
      "v": 59
    },
    {
      "midi": 55,
      "hit": false,
      "t": 83167.82248958336,
      "d": 174.99992708335049,
      "v": 54
    },
    {
      "midi": 50,
      "hit": false,
      "t": 83214.25104166669,
      "d": 39.28569791666814,
      "v": 60
    },
    {
      "midi": 67,
      "hit": false,
      "t": 83232.10817708336,
      "d": 67.85711458334117,
      "v": 85
    },
    {
      "midi": 69,
      "hit": false,
      "t": 83328.53670833337,
      "d": 46.4285520833364,
      "v": 75
    },
    {
      "midi": 67,
      "hit": false,
      "t": 83353.5366979167,
      "d": 117.85709374997532,
      "v": 82
    },
    {
      "midi": 48,
      "hit": false,
      "t": 83378.53668750003,
      "d": 192.8570624999702,
      "v": 66
    },
    {
      "midi": 66,
      "hit": false,
      "t": 83467.82236458335,
      "d": 96.4285312499851,
      "v": 80
    },
    {
      "midi": 52,
      "hit": false,
      "t": 83474.96521875,
      "d": 49.99997916666325,
      "v": 55
    },
    {
      "midi": 60,
      "hit": false,
      "t": 83478.53664583333,
      "d": 71.42854166666802,
      "v": 65
    },
    {
      "midi": 55,
      "hit": false,
      "t": 83539.25090625,
      "d": 92.8571041666728,
      "v": 42
    },
    {
      "midi": 67,
      "hit": false,
      "t": 83599.96516666668,
      "d": 46.4285520833364,
      "v": 86
    },
    {
      "midi": 52,
      "hit": false,
      "t": 83607.10802083334,
      "d": 42.857124999994994,
      "v": 61
    },
    {
      "midi": 71,
      "hit": false,
      "t": 83735.67939583334,
      "d": 971.4281666665775,
      "v": 90
    },
    {
      "midi": 47,
      "hit": false,
      "t": 83749.96510416668,
      "d": 253.5713229166431,
      "v": 57
    },
    {
      "midi": 54,
      "hit": false,
      "t": 83839.25078125,
      "d": 67.85711458332662,
      "v": 50
    },
    {
      "midi": 63,
      "hit": false,
      "t": 83857.10791666666,
      "d": 96.42853124999965,
      "v": 56
    },
    {
      "midi": 59,
      "hit": false,
      "t": 83935.6793125,
      "d": 57.14283333333151,
      "v": 42
    },
    {
      "midi": 66,
      "hit": false,
      "t": 83967.82215625,
      "d": 171.42849999999453,
      "v": 57
    },
    {
      "midi": 54,
      "hit": false,
      "t": 83992.82214583333,
      "d": 74.99996874999488,
      "v": 51
    },
    {
      "midi": 52,
      "hit": false,
      "t": 84089.25067708333,
      "d": 249.99989583331626,
      "v": 65
    },
    {
      "midi": 55,
      "hit": false,
      "t": 84199.96491666665,
      "d": 57.14283333333151,
      "v": 49
    },
    {
      "midi": 64,
      "hit": false,
      "t": 84203.53634374998,
      "d": 142.8570833333215,
      "v": 58
    },
    {
      "midi": 59,
      "hit": false,
      "t": 84271.39345833332,
      "d": 78.57139583330718,
      "v": 49
    },
    {
      "midi": 67,
      "hit": false,
      "t": 84342.82199999997,
      "d": 196.42848958329705,
      "v": 62
    },
    {
      "midi": 55,
      "hit": false,
      "t": 84353.53628124995,
      "d": 89.2856770833314,
      "v": 53
    },
    {
      "midi": 47,
      "hit": false,
      "t": 84460.67909374995,
      "d": 207.14277083332126,
      "v": 59
    },
    {
      "midi": 54,
      "hit": false,
      "t": 84553.5361979166,
      "d": 74.99996874999488,
      "v": 49
    },
    {
      "midi": 63,
      "hit": false,
      "t": 84578.53618749994,
      "d": 85.71425000000454,
      "v": 56
    },
    {
      "midi": 59,
      "hit": false,
      "t": 84635.67902083327,
      "d": 57.14283333333151,
      "v": 53
    },
    {
      "midi": 54,
      "hit": false,
      "t": 84689.25042708327,
      "d": 17.857135416648816,
      "v": 53
    },
    {
      "midi": 66,
      "hit": false,
      "t": 84696.39328124993,
      "d": 67.85711458332662,
      "v": 77
    },
    {
      "midi": 67,
      "hit": false,
      "t": 84839.25036458325,
      "d": 114.28566666666302,
      "v": 82
    },
    {
      "midi": 40,
      "hit": false,
      "t": 84846.39321874992,
      "d": 89.2856770833314,
      "v": 58
    },
    {
      "midi": 52,
      "hit": false,
      "t": 84932.10746874992,
      "d": 28.57141666665848,
      "v": 43
    },
    {
      "midi": 64,
      "hit": false,
      "t": 84978.53602083324,
      "d": 96.42853124999965,
      "v": 63
    },
    {
      "midi": 62,
      "hit": false,
      "t": 84985.67887499991,
      "d": 92.85710416665825,
      "v": 59
    },
    {
      "midi": 59,
      "hit": false,
      "t": 85039.25028124992,
      "d": 103.57138541665336,
      "v": 59
    },
    {
      "midi": 68,
      "hit": false,
      "t": 85085.67883333324,
      "d": 107.14281250000931,
      "v": 77
    },
    {
      "midi": 52,
      "hit": false,
      "t": 85135.6788124999,
      "d": 35.71427083334129,
      "v": 64
    },
    {
      "midi": 69,
      "hit": false,
      "t": 85221.39306249992,
      "d": 403.57126041663287,
      "v": 85
    },
    {
      "midi": 45,
      "hit": false,
      "t": 85246.39305208325,
      "d": 96.42853124999965,
      "v": 70
    },
    {
      "midi": 52,
      "hit": false,
      "t": 85339.25015624992,
      "d": 67.85711458332662,
      "v": 52
    },
    {
      "midi": 61,
      "hit": false,
      "t": 85367.82157291658,
      "d": 89.2856770833314,
      "v": 56
    },
    {
      "midi": 57,
      "hit": false,
      "t": 85432.10726041658,
      "d": 49.99997916666325,
      "v": 43
    },
    {
      "midi": 52,
      "hit": false,
      "t": 85471.39295833325,
      "d": 17.857135416648816,
      "v": 64
    },
    {
      "midi": 67,
      "hit": false,
      "t": 85485.67866666657,
      "d": 110.71423958332161,
      "v": 62
    },
    {
      "midi": 66,
      "hit": false,
      "t": 85603.53576041656,
      "d": 217.85705208333093,
      "v": 63
    },
    {
      "midi": 60,
      "hit": false,
      "t": 85610.67861458323,
      "d": 335.7141458333208,
      "v": 60
    },
    {
      "midi": 38,
      "hit": false,
      "t": 85621.39289583323,
      "d": 89.2856770833314,
      "v": 59
    },
    {
      "midi": 50,
      "hit": false,
      "t": 85699.96429166656,
      "d": 35.71427083332674,
      "v": 58
    },
    {
      "midi": 57,
      "hit": false,
      "t": 85792.82139583322,
      "d": 28.57141666667303,
      "v": 64
    },
    {
      "midi": 71,
      "hit": false,
      "t": 85839.24994791656,
      "d": 60.714260416672914,
      "v": 72
    },
    {
      "midi": 69,
      "hit": false,
      "t": 85878.53564583322,
      "d": 57.14283333333151,
      "v": 83
    },
    {
      "midi": 50,
      "hit": false,
      "t": 85885.67849999989,
      "d": 24.999989583331626,
      "v": 67
    },
    {
      "midi": 67,
      "hit": false,
      "t": 85999.96416666656,
      "d": 207.14277083333582,
      "v": 76
    },
    {
      "midi": 43,
      "hit": false,
      "t": 86014.24987499989,
      "d": 174.99992708333593,
      "v": 63
    },
    {
      "midi": 50,
      "hit": false,
      "t": 86092.82127083321,
      "d": 82.14282291667769,
      "v": 66
    },
    {
      "midi": 59,
      "hit": false,
      "t": 86146.39267708322,
      "d": 92.8571041666728,
      "v": 56
    },
    {
      "midi": 55,
      "hit": false,
      "t": 86199.96408333322,
      "d": 57.14283333331696,
      "v": 45
    },
    {
      "midi": 66,
      "hit": false,
      "t": 86242.82120833322,
      "d": 117.85709374998987,
      "v": 74
    },
    {
      "midi": 50,
      "hit": false,
      "t": 86253.53548958321,
      "d": 14.285708333321963,
      "v": 70
    },
    {
      "midi": 64,
      "hit": false,
      "t": 86374.96401041654,
      "d": 128.57137499999953,
      "v": 82
    },
    {
      "midi": 36,
      "hit": false,
      "t": 86392.82114583321,
      "d": 64.28568749999977,
      "v": 66
    },
    {
      "midi": 48,
      "hit": false,
      "t": 86453.53540624988,
      "d": 21.42856249999022,
      "v": 63
    },
    {
      "midi": 58,
      "hit": false,
      "t": 86514.24966666654,
      "d": 149.99993749998976,
      "v": 58
    },
    {
      "midi": 54,
      "hit": false,
      "t": 86546.39251041654,
      "d": 32.142843749999884,
      "v": 67
    },
    {
      "midi": 66,
      "hit": false,
      "t": 86621.39247916653,
      "d": 74.99996874999488,
      "v": 73
    },
    {
      "midi": 36,
      "hit": false,
      "t": 86689.24959374986,
      "d": 35.71427083334129,
      "v": 66
    },
    {
      "midi": 59,
      "hit": false,
      "t": 86771.39241666654,
      "d": 285.714166666643,
      "v": 80
    },
    {
      "midi": 35,
      "hit": false,
      "t": 86817.82096874986,
      "d": 196.42848958332615,
      "v": 24
    },
    {
      "midi": 42,
      "hit": false,
      "t": 86896.3923645832,
      "d": 64.28568749998522,
      "v": 58
    },
    {
      "midi": 51,
      "hit": false,
      "t": 86899.96379166652,
      "d": 49.99997916666325,
      "v": 60
    },
    {
      "midi": 47,
      "hit": false,
      "t": 86982.10661458319,
      "d": 117.85709374998987,
      "v": 48
    },
    {
      "midi": 57,
      "hit": false,
      "t": 87014.24945833319,
      "d": 149.99993749998976,
      "v": 63
    },
    {
      "midi": 42,
      "hit": false,
      "t": 87046.39230208319,
      "d": 21.42856249999022,
      "v": 44
    },
    {
      "midi": 55,
      "hit": false,
      "t": 87146.39226041651,
      "d": 89.28567708331684,
      "v": 60
    },
    {
      "midi": 40,
      "hit": false,
      "t": 87167.8208229165,
      "d": 210.71419791664812,
      "v": 50
    },
    {
      "midi": 47,
      "hit": false,
      "t": 87239.24936458316,
      "d": 57.14283333333151,
      "v": 54
    },
    {
      "midi": 52,
      "hit": false,
      "t": 87303.53505208316,
      "d": 64.28568749999977,
      "v": 63
    },
    {
      "midi": 69,
      "hit": false,
      "t": 87349.96360416649,
      "d": 42.857124999994994,
      "v": 80
    },
    {
      "midi": 47,
      "hit": false,
      "t": 87378.53502083315,
      "d": 121.42852083333128,
      "v": 54
    },
    {
      "midi": 67,
      "hit": false,
      "t": 87414.24929166649,
      "d": 49.99997916666325,
      "v": 86
    },
    {
      "midi": 66,
      "hit": false,
      "t": 87539.24923958315,
      "d": 217.85705208331638,
      "v": 85
    },
    {
      "midi": 40,
      "hit": false,
      "t": 87553.53494791649,
      "d": 257.14274999996996,
      "v": 51
    },
    {
      "midi": 47,
      "hit": false,
      "t": 87646.39205208313,
      "d": 74.99996874999488,
      "v": 47
    },
    {
      "midi": 59,
      "hit": false,
      "t": 87660.67776041647,
      "d": 160.71421874998487,
      "v": 55
    },
    {
      "midi": 57,
      "hit": false,
      "t": 87671.39204166646,
      "d": 117.85709375000442,
      "v": 58
    },
    {
      "midi": 51,
      "hit": false,
      "t": 87728.5348749998,
      "d": 64.28568749999977,
      "v": 64
    },
    {
      "midi": 67,
      "hit": false,
      "t": 87799.96341666646,
      "d": 85.71424999998999,
      "v": 82
    },
    {
      "midi": 47,
      "hit": false,
      "t": 87814.24912499978,
      "d": 103.57138541666791,
      "v": 55
    },
    {
      "midi": 64,
      "hit": false,
      "t": 87928.53479166645,
      "d": 124.99994791665813,
      "v": 76
    },
    {
      "midi": 40,
      "hit": false,
      "t": 87942.82049999978,
      "d": 210.71419791663357,
      "v": 53
    },
    {
      "midi": 47,
      "hit": false,
      "t": 88028.53474999977,
      "d": 67.85711458332662,
      "v": 60
    },
    {
      "midi": 59,
      "hit": false,
      "t": 88064.2490208331,
      "d": 96.4285312499851,
      "v": 60
    },
    {
      "midi": 55,
      "hit": false,
      "t": 88071.39187499977,
      "d": 71.42854166665347,
      "v": 42
    },
    {
      "midi": 52,
      "hit": false,
      "t": 88107.1061458331,
      "d": 64.28568749998522,
      "v": 54
    },
    {
      "midi": 66,
      "hit": false,
      "t": 88171.39183333308,
      "d": 82.14282291666314,
      "v": 77
    },
    {
      "midi": 47,
      "hit": false,
      "t": 88182.10611458308,
      "d": 114.28566666666302,
      "v": 55
    },
    {
      "midi": 59,
      "hit": false,
      "t": 88299.96320833307,
      "d": 171.42850000000908,
      "v": 82
    },
    {
      "midi": 40,
      "hit": false,
      "t": 88324.9631979164,
      "d": 232.142760416682,
      "v": 50
    },
    {
      "midi": 47,
      "hit": false,
      "t": 88410.6774479164,
      "d": 74.99996875000943,
      "v": 53
    },
    {
      "midi": 54,
      "hit": false,
      "t": 88435.67743749973,
      "d": 89.28567708334594,
      "v": 42
    },
    {
      "midi": 57,
      "hit": false,
      "t": 88442.8202916664,
      "d": 92.8571041666728,
      "v": 52
    },
    {
      "midi": 51,
      "hit": false,
      "t": 88492.82027083308,
      "d": 64.28568749999977,
      "v": 47
    },
    {
      "midi": 59,
      "hit": false,
      "t": 88567.82023958307,
      "d": 171.42849999996542,
      "v": 58
    },
    {
      "midi": 47,
      "hit": false,
      "t": 88574.96309374974,
      "d": 89.2856770833314,
      "v": 44
    },
    {
      "midi": 55,
      "hit": false,
      "t": 88678.5344791664,
      "d": 82.14282291664858,
      "v": 52
    },
    {
      "midi": 40,
      "hit": false,
      "t": 88692.82018749972,
      "d": 196.42848958332615,
      "v": 46
    },
    {
      "midi": 47,
      "hit": false,
      "t": 88771.39158333304,
      "d": 60.714260416672914,
      "v": 54
    },
    {
      "midi": 52,
      "hit": false,
      "t": 88835.67727083304,
      "d": 67.85711458334117,
      "v": 60
    },
    {
      "midi": 69,
      "hit": false,
      "t": 88903.53438541638,
      "d": 39.28569791665359,
      "v": 82
    },
    {
      "midi": 47,
      "hit": false,
      "t": 88907.1058124997,
      "d": 157.14279166667257,
      "v": 49
    },
    {
      "midi": 67,
      "hit": false,
      "t": 88964.24864583304,
      "d": 46.4285520833364,
      "v": 89
    },
    {
      "midi": 66,
      "hit": false,
      "t": 89082.10573958304,
      "d": 182.1427812499751,
      "v": 87
    },
    {
      "midi": 40,
      "hit": false,
      "t": 89092.82002083304,
      "d": 132.14280208331184,
      "v": 48
    },
    {
      "midi": 47,
      "hit": false,
      "t": 89174.96284374969,
      "d": 78.57139583333628,
      "v": 48
    },
    {
      "midi": 59,
      "hit": false,
      "t": 89207.10568749969,
      "d": 110.71423958332161,
      "v": 58
    },
    {
      "midi": 57,
      "hit": false,
      "t": 89214.24854166635,
      "d": 99.9999583333265,
      "v": 56
    },
    {
      "midi": 51,
      "hit": false,
      "t": 89260.67709374969,
      "d": 64.28568749998522,
      "v": 40
    },
    {
      "midi": 47,
      "hit": false,
      "t": 89328.534208333,
      "d": 114.28566666666302,
      "v": 48
    },
    {
      "midi": 67,
      "hit": false,
      "t": 89332.10563541633,
      "d": 78.57139583333628,
      "v": 83
    },
    {
      "midi": 64,
      "hit": false,
      "t": 89453.53415624966,
      "d": 135.71422916665324,
      "v": 82
    },
    {
      "midi": 40,
      "hit": false,
      "t": 89464.24843749966,
      "d": 274.9998854166479,
      "v": 49
    },
    {
      "midi": 47,
      "hit": false,
      "t": 89549.96268749965,
      "d": 99.9999583333265,
      "v": 64
    },
    {
      "midi": 55,
      "hit": false,
      "t": 89592.81981249964,
      "d": 21.428562500004773,
      "v": 63
    },
    {
      "midi": 59,
      "hit": false,
      "t": 89592.81981249964,
      "d": 32.142843749999884,
      "v": 64
    },
    {
      "midi": 52,
      "hit": false,
      "t": 89664.24835416631,
      "d": 92.85710416665825,
      "v": 63
    },
    {
      "midi": 72,
      "hit": false,
      "t": 89735.67689583298,
      "d": 64.28568749998522,
      "v": 90
    },
    {
      "midi": 60,
      "hit": false,
      "t": 89739.2483229163,
      "d": 42.857124999994994,
      "v": 70
    },
    {
      "midi": 47,
      "hit": false,
      "t": 89746.39117708297,
      "d": 121.42852083331672,
      "v": 64
    },
    {
      "midi": 71,
      "hit": false,
      "t": 89885.67683333295,
      "d": 574.9997604166274,
      "v": 93
    },
    {
      "midi": 66,
      "hit": false,
      "t": 89889.24826041628,
      "d": 114.28566666666302,
      "v": 70
    },
    {
      "midi": 39,
      "hit": false,
      "t": 89899.96254166627,
      "d": 96.42853124999965,
      "v": 52
    },
    {
      "midi": 47,
      "hit": false,
      "t": 89996.39107291627,
      "d": 67.85711458332662,
      "v": 55
    },
    {
      "midi": 59,
      "hit": false,
      "t": 90014.24820833294,
      "d": 92.85710416665825,
      "v": 60
    },
    {
      "midi": 54,
      "hit": false,
      "t": 90071.39104166627,
      "d": 67.85711458332662,
      "v": 56
    },
    {
      "midi": 66,
      "hit": false,
      "t": 90135.67672916627,
      "d": 107.14281249999476,
      "v": 62
    },
    {
      "midi": 47,
      "hit": false,
      "t": 90149.96243749959,
      "d": 78.57139583333628,
      "v": 58
    },
    {
      "midi": 38,
      "hit": false,
      "t": 90264.24810416627,
      "d": 71.42854166665347,
      "v": 65
    },
    {
      "midi": 59,
      "hit": false,
      "t": 90267.8195312496,
      "d": 132.14280208331184,
      "v": 63
    },
    {
      "midi": 44,
      "hit": false,
      "t": 90349.96235416624,
      "d": 74.99996874999488,
      "v": 55
    },
    {
      "midi": 65,
      "hit": false,
      "t": 90403.53376041623,
      "d": 114.28566666667757,
      "v": 64
    },
    {
      "midi": 53,
      "hit": false,
      "t": 90439.24803124958,
      "d": 67.85711458334117,
      "v": 58
    },
    {
      "midi": 59,
      "hit": false,
      "t": 90521.39085416624,
      "d": 78.57139583333628,
      "v": 63
    },
    {
      "midi": 44,
      "hit": false,
      "t": 90524.96228124957,
      "d": 60.714260416672914,
      "v": 51
    },
    {
      "midi": 70,
      "hit": false,
      "t": 90653.53365624958,
      "d": 257.1427499999845,
      "v": 83
    },
    {
      "midi": 64,
      "hit": false,
      "t": 90660.67651041625,
      "d": 107.14281249998021,
      "v": 74
    },
    {
      "midi": 37,
      "hit": false,
      "t": 90664.24793749957,
      "d": 78.57139583332173,
      "v": 62
    },
    {
      "midi": 40,
      "hit": false,
      "t": 90760.67646874956,
      "d": 49.99997916666325,
      "v": 48
    },
    {
      "midi": 58,
      "hit": false,
      "t": 90792.81931249956,
      "d": 103.57138541666791,
      "v": 63
    },
    {
      "midi": 52,
      "hit": false,
      "t": 90839.2478645829,
      "d": 49.99997916666325,
      "v": 56
    },
    {
      "midi": 64,
      "hit": false,
      "t": 90914.24783333289,
      "d": 139.28565624999464,
      "v": 64
    },
    {
      "midi": 40,
      "hit": false,
      "t": 90935.6763958329,
      "d": 99.9999583333265,
      "v": 54
    },
    {
      "midi": 69,
      "hit": false,
      "t": 91049.96206249956,
      "d": 203.57134374995076,
      "v": 84
    },
    {
      "midi": 57,
      "hit": false,
      "t": 91057.10491666621,
      "d": 96.42853124997055,
      "v": 64
    },
    {
      "midi": 36,
      "hit": false,
      "t": 91060.67634374954,
      "d": 78.57139583332173,
      "v": 64
    },
    {
      "midi": 40,
      "hit": false,
      "t": 91149.96202083286,
      "d": 60.71426041665836,
      "v": 54
    },
    {
      "midi": 64,
      "hit": false,
      "t": 91178.53343749951,
      "d": 110.71423958332161,
      "v": 65
    },
    {
      "midi": 52,
      "hit": false,
      "t": 91249.96197916618,
      "d": 49.9999791666487,
      "v": 55
    },
    {
      "midi": 57,
      "hit": false,
      "t": 91307.1048124995,
      "d": 67.85711458332662,
      "v": 63
    },
    {
      "midi": 40,
      "hit": false,
      "t": 91332.10480208283,
      "d": 46.42855208332185,
      "v": 59
    },
    {
      "midi": 68,
      "hit": false,
      "t": 91432.10476041616,
      "d": 239.28561458332115,
      "v": 85
    },
    {
      "midi": 64,
      "hit": false,
      "t": 91439.24761458283,
      "d": 92.85710416665825,
      "v": 73
    },
    {
      "midi": 35,
      "hit": false,
      "t": 91439.24761458283,
      "d": 103.57138541665336,
      "v": 66
    },
    {
      "midi": 40,
      "hit": false,
      "t": 91535.67614583281,
      "d": 39.28569791666814,
      "v": 51
    },
    {
      "midi": 56,
      "hit": false,
      "t": 91564.24756249948,
      "d": 92.85710416665825,
      "v": 64
    },
    {
      "midi": 52,
      "hit": false,
      "t": 91632.10467708281,
      "d": 49.99997916666325,
      "v": 55
    },
    {
      "midi": 64,
      "hit": false,
      "t": 91682.10465624947,
      "d": 82.14282291666314,
      "v": 63
    },
    {
      "midi": 40,
      "hit": false,
      "t": 91724.96178124947,
      "d": 17.85713541666337,
      "v": 50
    },
    {
      "midi": 67,
      "hit": false,
      "t": 91821.39031249947,
      "d": 235.71418750000885,
      "v": 84
    },
    {
      "midi": 55,
      "hit": false,
      "t": 91828.53316666614,
      "d": 89.28567708331684,
      "v": 74
    },
    {
      "midi": 34,
      "hit": false,
      "t": 91832.10459374946,
      "d": 64.28568749999977,
      "v": 63
    },
    {
      "midi": 39,
      "hit": false,
      "t": 91899.96170833279,
      "d": 17.85713541666337,
      "v": 52
    },
    {
      "midi": 40,
      "hit": false,
      "t": 91932.10455208279,
      "d": 49.999979166677804,
      "v": 53
    },
    {
      "midi": 60,
      "hit": false,
      "t": 91953.5331145828,
      "d": 103.57138541668246,
      "v": 65
    },
    {
      "midi": 48,
      "hit": false,
      "t": 91996.3902395828,
      "d": 53.57140625000466,
      "v": 57
    },
    {
      "midi": 40,
      "hit": false,
      "t": 92071.39020833281,
      "d": 35.71427083332674,
      "v": 59
    },
    {
      "midi": 55,
      "hit": false,
      "t": 92071.39020833281,
      "d": 103.57138541665336,
      "v": 65
    },
    {
      "midi": 64,
      "hit": false,
      "t": 92207.10443749947,
      "d": 135.71422916665324,
      "v": 78
    },
    {
      "midi": 60,
      "hit": false,
      "t": 92217.81871874946,
      "d": 114.28566666666302,
      "v": 69
    },
    {
      "midi": 33,
      "hit": false,
      "t": 92224.96157291613,
      "d": 74.99996874999488,
      "v": 66
    },
    {
      "midi": 41,
      "hit": false,
      "t": 92314.24724999946,
      "d": 60.71426041665836,
      "v": 53
    },
    {
      "midi": 53,
      "hit": false,
      "t": 92349.96152083279,
      "d": 107.14281249999476,
      "v": 64
    },
    {
      "midi": 48,
      "hit": false,
      "t": 92389.24721874946,
      "d": 57.14283333333151,
      "v": 63
    },
    {
      "midi": 65,
      "hit": false,
      "t": 92464.24718749945,
      "d": 42.857124999994994,
      "v": 87
    },
    {
      "midi": 60,
      "hit": false,
      "t": 92467.81861458278,
      "d": 24.999989583331626,
      "v": 82
    },
    {
      "midi": 41,
      "hit": false,
      "t": 92467.81861458278,
      "d": 103.57138541666791,
      "v": 60
    },
    {
      "midi": 69,
      "hit": false,
      "t": 92610.67569791611,
      "d": 71.42854166665347,
      "v": 81
    },
    {
      "midi": 57,
      "hit": false,
      "t": 92617.81855208278,
      "d": 117.85709374997532,
      "v": 63
    },
    {
      "midi": 35,
      "hit": false,
      "t": 92621.38997916611,
      "d": 217.85705208330182,
      "v": 62
    },
    {
      "midi": 42,
      "hit": false,
      "t": 92710.67565624943,
      "d": 60.71426041665836,
      "v": 62
    },
    {
      "midi": 59,
      "hit": false,
      "t": 92760.67563541609,
      "d": 67.85711458332662,
      "v": 64
    },
    {
      "midi": 47,
      "hit": false,
      "t": 92796.38990624942,
      "d": 49.9999791666487,
      "v": 40
    },
    {
      "midi": 42,
      "hit": false,
      "t": 92842.81845833274,
      "d": 28.57141666665848,
      "v": 65
    },
    {
      "midi": 63,
      "hit": false,
      "t": 92874.96130208272,
      "d": 64.28568749999977,
      "v": 82
    },
    {
      "midi": 51,
      "hit": false,
      "t": 92878.53272916605,
      "d": 53.57140625000466,
      "v": 82
    },
    {
      "midi": 64,
      "hit": false,
      "t": 93021.38981249937,
      "d": 85.71424999997544,
      "v": 88
    },
    {
      "midi": 52,
      "hit": false,
      "t": 93024.9612395827,
      "d": 42.857124999994994,
      "v": 82
    },
    {
      "midi": 28,
      "hit": false,
      "t": 93024.9612395827,
      "d": 60.71426041665836,
      "v": 62
    },
    {
      "midi": 40,
      "hit": false,
      "t": 93082.10407291603,
      "d": 21.42856249999022,
      "v": 47
    },
    {
      "midi": 55,
      "hit": false,
      "t": 93171.38974999935,
      "d": 128.57137499999953,
      "v": 60
    },
    {
      "midi": 59,
      "hit": false,
      "t": 93267.81828124935,
      "d": 46.4285520833364,
      "v": 81
    },
    {
      "midi": 71,
      "hit": false,
      "t": 93267.81828124935,
      "d": 71.42854166666802,
      "v": 89
    },
    {
      "midi": 47,
      "hit": false,
      "t": 93321.38968749935,
      "d": 21.42856249999022,
      "v": 56
    },
    {
      "midi": 72,
      "hit": false,
      "t": 93417.81821874934,
      "d": 121.42852083333128,
      "v": 93
    },
    {
      "midi": 60,
      "hit": false,
      "t": 93424.961072916,
      "d": 107.14281249999476,
      "v": 72
    },
    {
      "midi": 40,
      "hit": false,
      "t": 93439.24678124934,
      "d": 78.57139583333628,
      "v": 55
    },
    {
      "midi": 48,
      "hit": false,
      "t": 93521.389604166,
      "d": 46.42855208332185,
      "v": 68
    },
    {
      "midi": 69,
      "hit": false,
      "t": 93549.96102083266,
      "d": 35.71427083332674,
      "v": 63
    },
    {
      "midi": 66,
      "hit": false,
      "t": 93557.10387499933,
      "d": 14.285708333321963,
      "v": 49
    },
    {
      "midi": 57,
      "hit": false,
      "t": 93610.67528124932,
      "d": 89.2856770833314,
      "v": 47
    },
    {
      "midi": 75,
      "hit": false,
      "t": 93671.389541666,
      "d": 89.28567708331684,
      "v": 92
    },
    {
      "midi": 63,
      "hit": false,
      "t": 93674.96096874932,
      "d": 82.14282291666314,
      "v": 77
    },
    {
      "midi": 48,
      "hit": false,
      "t": 93714.24666666599,
      "d": 39.28569791666814,
      "v": 60
    },
    {
      "midi": 76,
      "hit": false,
      "t": 93821.38947916598,
      "d": 99.9999583333265,
      "v": 87
    },
    {
      "midi": 64,
      "hit": false,
      "t": 93828.53233333265,
      "d": 128.57137499998498,
      "v": 75
    },
    {
      "midi": 40,
      "hit": false,
      "t": 93835.67518749932,
      "d": 82.14282291666314,
      "v": 64
    },
    {
      "midi": 47,
      "hit": false,
      "t": 93928.53229166598,
      "d": 42.857124999994994,
      "v": 56
    },
    {
      "midi": 67,
      "hit": false,
      "t": 93953.53228124931,
      "d": 39.28569791666814,
      "v": 59
    },
    {
      "midi": 55,
      "hit": false,
      "t": 93996.3894062493,
      "d": 67.85711458332662,
      "v": 54
    },
    {
      "midi": 71,
      "hit": false,
      "t": 94071.3893749993,
      "d": 64.28568749999977,
      "v": 82
    },
    {
      "midi": 59,
      "hit": false,
      "t": 94078.53222916597,
      "d": 32.142843749999884,
      "v": 62
    },
    {
      "midi": 47,
      "hit": false,
      "t": 94089.24651041596,
      "d": 46.4285520833364,
      "v": 62
    },
    {
      "midi": 72,
      "hit": false,
      "t": 94210.6750312493,
      "d": 114.28566666666302,
      "v": 87
    },
    {
      "midi": 60,
      "hit": false,
      "t": 94214.24645833262,
      "d": 99.99995833334106,
      "v": 74
    },
    {
      "midi": 40,
      "hit": false,
      "t": 94228.53216666596,
      "d": 67.85711458334117,
      "v": 55
    },
    {
      "midi": 48,
      "hit": false,
      "t": 94314.24641666596,
      "d": 42.857124999994994,
      "v": 65
    },
    {
      "midi": 66,
      "hit": false,
      "t": 94335.67497916595,
      "d": 32.142843749999884,
      "v": 57
    },
    {
      "midi": 69,
      "hit": false,
      "t": 94335.67497916595,
      "d": 42.857124999994994,
      "v": 64
    },
    {
      "midi": 57,
      "hit": false,
      "t": 94403.53209374928,
      "d": 53.57140625000466,
      "v": 50
    },
    {
      "midi": 75,
      "hit": false,
      "t": 94460.67492708261,
      "d": 92.85710416665825,
      "v": 88
    },
    {
      "midi": 63,
      "hit": false,
      "t": 94464.24635416594,
      "d": 74.99996874999488,
      "v": 77
    },
    {
      "midi": 48,
      "hit": false,
      "t": 94496.38919791594,
      "d": 17.85713541666337,
      "v": 62
    },
    {
      "midi": 76,
      "hit": false,
      "t": 94603.53201041593,
      "d": 110.71423958332161,
      "v": 84
    },
    {
      "midi": 64,
      "hit": false,
      "t": 94610.6748645826,
      "d": 99.9999583333265,
      "v": 70
    },
    {
      "midi": 40,
      "hit": false,
      "t": 94614.24629166593,
      "d": 82.14282291666314,
      "v": 55
    },
    {
      "midi": 47,
      "hit": false,
      "t": 94703.53196874926,
      "d": 60.71426041665836,
      "v": 60
    },
    {
      "midi": 71,
      "hit": false,
      "t": 94732.10338541592,
      "d": 99.9999583333265,
      "v": 63
    },
    {
      "midi": 67,
      "hit": false,
      "t": 94735.67481249924,
      "d": 46.4285520833364,
      "v": 55
    },
    {
      "midi": 55,
      "hit": false,
      "t": 94782.10336458258,
      "d": 49.99997916666325,
      "v": 57
    },
    {
      "midi": 47,
      "hit": false,
      "t": 94849.96047916591,
      "d": 57.14283333333151,
      "v": 67
    },
    {
      "midi": 76,
      "hit": false,
      "t": 94853.53190624923,
      "d": 124.99994791667268,
      "v": 88
    },
    {
      "midi": 64,
      "hit": false,
      "t": 94860.6747604159,
      "d": 96.42853124999965,
      "v": 77
    },
    {
      "midi": 72,
      "hit": false,
      "t": 94985.67470833258,
      "d": 99.99995833331195,
      "v": 64
    },
    {
      "midi": 45,
      "hit": false,
      "t": 94992.81756249924,
      "d": 71.42854166665347,
      "v": 71
    },
    {
      "midi": 69,
      "hit": false,
      "t": 94996.38898958257,
      "d": 78.57139583332173,
      "v": 64
    },
    {
      "midi": 48,
      "hit": false,
      "t": 95082.10323958256,
      "d": 42.857124999994994,
      "v": 61
    },
    {
      "midi": 75,
      "hit": false,
      "t": 95117.81751041589,
      "d": 89.2856770833314,
      "v": 86
    },
    {
      "midi": 63,
      "hit": false,
      "t": 95124.96036458256,
      "d": 60.71426041665836,
      "v": 69
    },
    {
      "midi": 60,
      "hit": false,
      "t": 95167.81748958255,
      "d": 57.14283333333151,
      "v": 54
    },
    {
      "midi": 64,
      "hit": false,
      "t": 95242.81745833255,
      "d": 32.142843749999884,
      "v": 78
    },
    {
      "midi": 76,
      "hit": false,
      "t": 95242.81745833255,
      "d": 46.4285520833364,
      "v": 96
    },
    {
      "midi": 48,
      "hit": false,
      "t": 95253.53173958254,
      "d": 96.4285312500142,
      "v": 64
    },
    {
      "midi": 79,
      "hit": false,
      "t": 95378.53168749923,
      "d": 907.1424791666359,
      "v": 86
    },
    {
      "midi": 43,
      "hit": false,
      "t": 95382.10311458255,
      "d": 96.4285312500142,
      "v": 58
    },
    {
      "midi": 67,
      "hit": false,
      "t": 95382.10311458255,
      "d": 103.57138541668246,
      "v": 69
    },
    {
      "midi": 50,
      "hit": false,
      "t": 95478.53164583257,
      "d": 57.14283333333151,
      "v": 58
    },
    {
      "midi": 74,
      "hit": false,
      "t": 95514.24591666591,
      "d": 92.85710416665825,
      "v": 63
    },
    {
      "midi": 71,
      "hit": false,
      "t": 95517.81734374924,
      "d": 57.14283333333151,
      "v": 50
    },
    {
      "midi": 59,
      "hit": false,
      "t": 95560.67446874923,
      "d": 78.57139583333628,
      "v": 42
    },
    {
      "midi": 67,
      "hit": false,
      "t": 95632.1030104159,
      "d": 149.99993749998976,
      "v": 62
    },
    {
      "midi": 50,
      "hit": false,
      "t": 95639.24586458257,
      "d": 117.85709375000442,
      "v": 64
    },
    {
      "midi": 48,
      "hit": false,
      "t": 95760.6743854159,
      "d": 99.9999583333265,
      "v": 60
    },
    {
      "midi": 75,
      "hit": false,
      "t": 95771.3886666659,
      "d": 121.42852083333128,
      "v": 65
    },
    {
      "midi": 72,
      "hit": false,
      "t": 95774.96009374922,
      "d": 110.71423958333617,
      "v": 69
    },
    {
      "midi": 51,
      "hit": false,
      "t": 95864.24577083255,
      "d": 71.42854166668258,
      "v": 65
    },
    {
      "midi": 67,
      "hit": false,
      "t": 95907.10289583256,
      "d": 142.8570833333215,
      "v": 66
    },
    {
      "midi": 60,
      "hit": false,
      "t": 95960.67430208257,
      "d": 57.14283333333151,
      "v": 58
    },
    {
      "midi": 75,
      "hit": false,
      "t": 96028.5314166659,
      "d": 117.85709374998987,
      "v": 64
    },
    {
      "midi": 72,
      "hit": false,
      "t": 96032.10284374922,
      "d": 89.2856770833314,
      "v": 69
    },
    {
      "midi": 51,
      "hit": false,
      "t": 96042.81712499922,
      "d": 85.71425000000454,
      "v": 60
    },
    {
      "midi": 43,
      "hit": false,
      "t": 96157.10279166588,
      "d": 89.2856770833314,
      "v": 59
    },
    {
      "midi": 67,
      "hit": false,
      "t": 96160.6742187492,
      "d": 139.2856562499801,
      "v": 65
    },
    {
      "midi": 50,
      "hit": false,
      "t": 96249.95989583254,
      "d": 57.14283333331696,
      "v": 55
    },
    {
      "midi": 74,
      "hit": false,
      "t": 96292.81702083253,
      "d": 21.42856249999022,
      "v": 63
    },
    {
      "midi": 71,
      "hit": false,
      "t": 96296.38844791586,
      "d": 17.85713541666337,
      "v": 49
    },
    {
      "midi": 59,
      "hit": false,
      "t": 96324.95986458252,
      "d": 46.4285520833364,
      "v": 44
    },
    {
      "midi": 50,
      "hit": false,
      "t": 96403.53126041585,
      "d": 146.4285104166629,
      "v": 56
    },
    {
      "midi": 74,
      "hit": false,
      "t": 96410.67411458252,
      "d": 57.14283333333151,
      "v": 88
    },
    {
      "midi": 62,
      "hit": false,
      "t": 96417.81696874919,
      "d": 32.142843749999884,
      "v": 68
    },
    {
      "midi": 75,
      "hit": false,
      "t": 96553.53119791584,
      "d": 124.99994791665813,
      "v": 90
    },
    {
      "midi": 63,
      "hit": false,
      "t": 96557.10262499917,
      "d": 128.57137499999953,
      "v": 78
    },
    {
      "midi": 43,
      "hit": false,
      "t": 96578.53118749916,
      "d": 64.28568749999977,
      "v": 50
    },
    {
      "midi": 51,
      "hit": false,
      "t": 96657.1025833325,
      "d": 60.71426041665836,
      "v": 60
    },
    {
      "midi": 72,
      "hit": false,
      "t": 96689.2454270825,
      "d": 35.71427083332674,
      "v": 61
    },
    {
      "midi": 69,
      "hit": false,
      "t": 96696.38828124916,
      "d": 17.85713541666337,
      "v": 45
    },
    {
      "midi": 60,
      "hit": false,
      "t": 96742.81683333249,
      "d": 32.142843749999884,
      "v": 46
    },
    {
      "midi": 78,
      "hit": false,
      "t": 96807.10252083249,
      "d": 89.2856770833314,
      "v": 92
    },
    {
      "midi": 66,
      "hit": false,
      "t": 96810.67394791581,
      "d": 67.85711458334117,
      "v": 78
    },
    {
      "midi": 51,
      "hit": false,
      "t": 96824.95965624915,
      "d": 82.14282291666314,
      "v": 53
    },
    {
      "midi": 79,
      "hit": false,
      "t": 96953.53103124915,
      "d": 110.71423958333617,
      "v": 89
    },
    {
      "midi": 67,
      "hit": false,
      "t": 96960.67388541582,
      "d": 139.28565624999464,
      "v": 69
    },
    {
      "midi": 43,
      "hit": false,
      "t": 96967.81673958249,
      "d": 74.99996874999488,
      "v": 65
    },
    {
      "midi": 50,
      "hit": false,
      "t": 97049.95956249915,
      "d": 53.571406249990105,
      "v": 63
    },
    {
      "midi": 74,
      "hit": false,
      "t": 97082.10240624915,
      "d": 35.71427083332674,
      "v": 62
    },
    {
      "midi": 71,
      "hit": false,
      "t": 97085.67383333248,
      "d": 35.71427083332674,
      "v": 53
    },
    {
      "midi": 59,
      "hit": false,
      "t": 97128.53095833247,
      "d": 39.28569791666814,
      "v": 42
    },
    {
      "midi": 50,
      "hit": false,
      "t": 97203.53092708247,
      "d": 128.57137499999953,
      "v": 61
    },
    {
      "midi": 62,
      "hit": false,
      "t": 97210.67378124913,
      "d": 28.57141666667303,
      "v": 74
    },
    {
      "midi": 74,
      "hit": false,
      "t": 97210.67378124913,
      "d": 46.4285520833364,
      "v": 94
    },
    {
      "midi": 75,
      "hit": false,
      "t": 97342.81658333246,
      "d": 103.57138541665336,
      "v": 89
    },
    {
      "midi": 63,
      "hit": false,
      "t": 97346.38801041579,
      "d": 99.9999583333265,
      "v": 77
    },
    {
      "midi": 43,
      "hit": false,
      "t": 97360.67371874911,
      "d": 71.42854166666802,
      "v": 55
    },
    {
      "midi": 51,
      "hit": false,
      "t": 97449.95939583244,
      "d": 57.14283333333151,
      "v": 57
    },
    {
      "midi": 72,
      "hit": false,
      "t": 97478.53081249911,
      "d": 24.999989583331626,
      "v": 65
    },
    {
      "midi": 60,
      "hit": false,
      "t": 97542.8164999991,
      "d": 28.57141666667303,
      "v": 46
    },
    {
      "midi": 78,
      "hit": false,
      "t": 97596.3879062491,
      "d": 82.14282291666314,
      "v": 92
    },
    {
      "midi": 66,
      "hit": false,
      "t": 97599.95933333243,
      "d": 74.99996875000943,
      "v": 81
    },
    {
      "midi": 51,
      "hit": false,
      "t": 97614.24504166577,
      "d": 67.85711458332662,
      "v": 65
    },
    {
      "midi": 79,
      "hit": false,
      "t": 97735.6735624991,
      "d": 103.5713854166388,
      "v": 88
    },
    {
      "midi": 67,
      "hit": false,
      "t": 97739.24498958242,
      "d": 103.5713854166388,
      "v": 74
    },
    {
      "midi": 43,
      "hit": false,
      "t": 97753.53069791575,
      "d": 78.57139583332173,
      "v": 64
    },
    {
      "midi": 50,
      "hit": false,
      "t": 97828.53066666574,
      "d": 64.28568749998522,
      "v": 65
    },
    {
      "midi": 74,
      "hit": false,
      "t": 97857.1020833324,
      "d": 99.9999583333265,
      "v": 64
    },
    {
      "midi": 71,
      "hit": false,
      "t": 97867.8163645824,
      "d": 57.14283333333151,
      "v": 49
    },
    {
      "midi": 59,
      "hit": false,
      "t": 97917.81634374906,
      "d": 42.857124999994994,
      "v": 30
    },
    {
      "midi": 79,
      "hit": false,
      "t": 97974.95917708239,
      "d": 103.57138541665336,
      "v": 82
    },
    {
      "midi": 50,
      "hit": false,
      "t": 97978.53060416572,
      "d": 71.42854166666802,
      "v": 70
    },
    {
      "midi": 67,
      "hit": false,
      "t": 97985.67345833239,
      "d": 89.2856770833314,
      "v": 70
    },
    {
      "midi": 76,
      "hit": false,
      "t": 98107.10197916572,
      "d": 96.428531249956,
      "v": 65
    },
    {
      "midi": 48,
      "hit": false,
      "t": 98110.67340624904,
      "d": 71.42854166663892,
      "v": 69
    },
    {
      "midi": 72,
      "hit": false,
      "t": 98114.24483333237,
      "d": 67.85711458331207,
      "v": 74
    },
    {
      "midi": 52,
      "hit": false,
      "t": 98199.95908333235,
      "d": 49.9999791666487,
      "v": 66
    },
    {
      "midi": 78,
      "hit": false,
      "t": 98235.67335416567,
      "d": 82.14282291664858,
      "v": 86
    },
    {
      "midi": 66,
      "hit": false,
      "t": 98239.244781249,
      "d": 60.71426041665836,
      "v": 69
    },
    {
      "midi": 62,
      "hit": false,
      "t": 98289.24476041566,
      "d": 49.99997916666325,
      "v": 53
    },
    {
      "midi": 79,
      "hit": false,
      "t": 98357.10187499899,
      "d": 53.571406249990105,
      "v": 94
    },
    {
      "midi": 67,
      "hit": false,
      "t": 98360.67330208232,
      "d": 32.142843749999884,
      "v": 80
    },
    {
      "midi": 52,
      "hit": false,
      "t": 98371.38758333231,
      "d": 53.57140625000466,
      "v": 45
    },
    {
      "midi": 83,
      "hit": false,
      "t": 98499.95895833231,
      "d": 932.142468749953,
      "v": 89
    },
    {
      "midi": 71,
      "hit": false,
      "t": 98507.10181249898,
      "d": 114.28566666664847,
      "v": 75
    },
    {
      "midi": 47,
      "hit": false,
      "t": 98517.81609374897,
      "d": 78.57139583332173,
      "v": 63
    },
    {
      "midi": 54,
      "hit": false,
      "t": 98614.24462499896,
      "d": 60.71426041665836,
      "v": 50
    },
    {
      "midi": 75,
      "hit": false,
      "t": 98639.24461458229,
      "d": 96.42853124999965,
      "v": 58
    },
    {
      "midi": 78,
      "hit": false,
      "t": 98639.24461458229,
      "d": 96.42853124999965,
      "v": 63
    },
    {
      "midi": 63,
      "hit": false,
      "t": 98696.38744791562,
      "d": 78.57139583333628,
      "v": 54
    },
    {
      "midi": 54,
      "hit": false,
      "t": 98764.24456249896,
      "d": 64.28568749999977,
      "v": 58
    },
    {
      "midi": 71,
      "hit": false,
      "t": 98771.38741666563,
      "d": 110.71423958333617,
      "v": 65
    },
    {
      "midi": 52,
      "hit": false,
      "t": 98889.24451041564,
      "d": 78.57139583333628,
      "v": 62
    },
    {
      "midi": 79,
      "hit": false,
      "t": 98899.95879166563,
      "d": 128.57137499999953,
      "v": 67
    },
    {
      "midi": 76,
      "hit": false,
      "t": 98903.53021874896,
      "d": 82.14282291667769,
      "v": 62
    },
    {
      "midi": 55,
      "hit": false,
      "t": 98978.53018749897,
      "d": 39.28569791666814,
      "v": 59
    },
    {
      "midi": 71,
      "hit": false,
      "t": 99024.9587395823,
      "d": 164.28564583332627,
      "v": 63
    },
    {
      "midi": 67,
      "hit": false,
      "t": 99060.67301041563,
      "d": 78.57139583333628,
      "v": 46
    },
    {
      "midi": 76,
      "hit": false,
      "t": 99153.5301145823,
      "d": 57.14283333333151,
      "v": 62
    },
    {
      "midi": 79,
      "hit": false,
      "t": 99153.5301145823,
      "d": 124.99994791665813,
      "v": 66
    },
    {
      "midi": 55,
      "hit": false,
      "t": 99171.38724999897,
      "d": 64.28568749999977,
      "v": 58
    },
    {
      "midi": 71,
      "hit": false,
      "t": 99296.38719791562,
      "d": 157.1427916666289,
      "v": 65
    },
    {
      "midi": 51,
      "hit": false,
      "t": 99299.95862499895,
      "d": 85.71424999998999,
      "v": 74
    },
    {
      "midi": 59,
      "hit": false,
      "t": 99389.24430208227,
      "d": 60.71426041665836,
      "v": 43
    },
    {
      "midi": 75,
      "hit": false,
      "t": 99424.9585729156,
      "d": 60.71426041665836,
      "v": 66
    },
    {
      "midi": 66,
      "hit": false,
      "t": 99453.52998958225,
      "d": 49.99997916666325,
      "v": 56
    },
    {
      "midi": 59,
      "hit": false,
      "t": 99521.38710416558,
      "d": 82.14282291666314,
      "v": 52
    },
    {
      "midi": 78,
      "hit": false,
      "t": 99546.38709374891,
      "d": 74.99996874999488,
      "v": 91
    },
    {
      "midi": 66,
      "hit": false,
      "t": 99549.95852083224,
      "d": 60.714260416672914,
      "v": 76
    },
    {
      "midi": 50,
      "hit": false,
      "t": 99674.95846874891,
      "d": 67.85711458331207,
      "v": 62
    },
    {
      "midi": 79,
      "hit": false,
      "t": 99674.95846874891,
      "d": 96.42853124997055,
      "v": 92
    },
    {
      "midi": 67,
      "hit": false,
      "t": 99678.52989583224,
      "d": 74.99996874998033,
      "v": 75
    },
    {
      "midi": 52,
      "hit": false,
      "t": 99757.10129166555,
      "d": 71.42854166666802,
      "v": 57
    },
    {
      "midi": 76,
      "hit": false,
      "t": 99792.81556249889,
      "d": 53.571406249990105,
      "v": 70
    },
    {
      "midi": 71,
      "hit": false,
      "t": 99799.95841666555,
      "d": 17.85713541666337,
      "v": 60
    },
    {
      "midi": 65,
      "hit": false,
      "t": 99864.24410416554,
      "d": 24.999989583331626,
      "v": 29
    },
    {
      "midi": 68,
      "hit": false,
      "t": 99917.81551041554,
      "d": 60.71426041665836,
      "v": 77
    },
    {
      "midi": 80,
      "hit": false,
      "t": 99917.81551041554,
      "d": 78.57139583332173,
      "v": 90
    },
    {
      "midi": 52,
      "hit": false,
      "t": 99960.67263541554,
      "d": 85.71424999998999,
      "v": 31
    },
    {
      "midi": 53,
      "hit": false,
      "t": 99967.81548958221,
      "d": 14.285708333321963,
      "v": 32
    },
    {
      "midi": 81,
      "hit": false,
      "t": 100060.67259374887,
      "d": 392.8569791666523,
      "v": 85
    },
    {
      "midi": 69,
      "hit": false,
      "t": 100064.2440208322,
      "d": 96.4285312499851,
      "v": 74
    },
    {
      "midi": 49,
      "hit": false,
      "t": 100071.38687499886,
      "d": 82.14282291666314,
      "v": 58
    },
    {
      "midi": 52,
      "hit": false,
      "t": 100157.10112499885,
      "d": 67.85711458332662,
      "v": 59
    },
    {
      "midi": 76,
      "hit": false,
      "t": 100182.10111458218,
      "d": 107.14281249999476,
      "v": 68
    },
    {
      "midi": 73,
      "hit": false,
      "t": 100185.67254166551,
      "d": 78.57139583333628,
      "v": 48
    },
    {
      "midi": 64,
      "hit": false,
      "t": 100249.95822916551,
      "d": 46.4285520833364,
      "v": 62
    },
    {
      "midi": 69,
      "hit": false,
      "t": 100314.24391666551,
      "d": 114.28566666667757,
      "v": 64
    },
    {
      "midi": 52,
      "hit": false,
      "t": 100335.67247916551,
      "d": 110.71423958333617,
      "v": 54
    },
    {
      "midi": 78,
      "hit": false,
      "t": 100453.52957291552,
      "d": 153.57136458333116,
      "v": 67
    },
    {
      "midi": 48,
      "hit": false,
      "t": 100457.10099999885,
      "d": 103.57138541666791,
      "v": 66
    },
    {
      "midi": 74,
      "hit": false,
      "t": 100460.67242708217,
      "d": 74.99996875000943,
      "v": 78
    },
    {
      "midi": 54,
      "hit": false,
      "t": 100546.38667708218,
      "d": 64.28568749999977,
      "v": 63
    },
    {
      "midi": 62,
      "hit": false,
      "t": 100624.95807291551,
      "d": 64.28568749999977,
      "v": 56
    },
    {
      "midi": 83,
      "hit": false,
      "t": 100667.81519791551,
      "d": 24.999989583331626,
      "v": 92
    },
    {
      "midi": 54,
      "hit": false,
      "t": 100692.81518749884,
      "d": 135.7142291666387,
      "v": 52
    },
    {
      "midi": 81,
      "hit": false,
      "t": 100728.52945833217,
      "d": 49.9999791666487,
      "v": 97
    },
    {
      "midi": 69,
      "hit": false,
      "t": 100732.1008854155,
      "d": 35.71427083332674,
      "v": 90
    },
    {
      "midi": 79,
      "hit": false,
      "t": 100867.81511458215,
      "d": 99.9999583333265,
      "v": 88
    },
    {
      "midi": 47,
      "hit": false,
      "t": 100871.38654166547,
      "d": 60.71426041665836,
      "v": 63
    },
    {
      "midi": 67,
      "hit": false,
      "t": 100871.38654166547,
      "d": 107.14281249999476,
      "v": 76
    },
    {
      "midi": 55,
      "hit": false,
      "t": 100960.6722187488,
      "d": 71.42854166666802,
      "v": 59
    },
    {
      "midi": 74,
      "hit": false,
      "t": 100999.95791666547,
      "d": 92.8571041666728,
      "v": 67
    },
    {
      "midi": 71,
      "hit": false,
      "t": 101003.5293437488,
      "d": 57.14283333334606,
      "v": 55
    },
    {
      "midi": 62,
      "hit": false,
      "t": 101046.38646874881,
      "d": 57.14283333333151,
      "v": 56
    },
    {
      "midi": 78,
      "hit": false,
      "t": 101114.24358333214,
      "d": 57.14283333333151,
      "v": 83
    },
    {
      "midi": 66,
      "hit": false,
      "t": 101121.3864374988,
      "d": 49.99997916666325,
      "v": 77
    },
    {
      "midi": 55,
      "hit": false,
      "t": 101121.3864374988,
      "d": 103.57138541666791,
      "v": 59
    },
    {
      "midi": 76,
      "hit": false,
      "t": 101257.10066666547,
      "d": 92.85710416662914,
      "v": 85
    },
    {
      "midi": 47,
      "hit": false,
      "t": 101260.6720937488,
      "d": 60.71426041664381,
      "v": 64
    },
    {
      "midi": 64,
      "hit": false,
      "t": 101260.6720937488,
      "d": 71.42854166663892,
      "v": 74
    },
    {
      "midi": 55,
      "hit": false,
      "t": 101335.67206249876,
      "d": 74.99996874999488,
      "v": 59
    },
    {
      "midi": 73,
      "hit": false,
      "t": 101371.3863333321,
      "d": 46.42855208332185,
      "v": 66
    },
    {
      "midi": 67,
      "hit": false,
      "t": 101374.95776041543,
      "d": 17.85713541666337,
      "v": 59
    },
    {
      "midi": 61,
      "hit": false,
      "t": 101403.52917708209,
      "d": 49.99997916666325,
      "v": 50
    },
    {
      "midi": 55,
      "hit": false,
      "t": 101457.10058333208,
      "d": 67.85711458332662,
      "v": 44
    },
    {
      "midi": 78,
      "hit": false,
      "t": 101507.10056249874,
      "d": 24.999989583331626,
      "v": 83
    },
    {
      "midi": 66,
      "hit": false,
      "t": 101507.10056249874,
      "d": 39.28569791666814,
      "v": 78
    },
    {
      "midi": 46,
      "hit": false,
      "t": 101553.52911458208,
      "d": 57.14283333333151,
      "v": 65
    },
    {
      "midi": 71,
      "hit": false,
      "t": 101657.10049999875,
      "d": 396.4284062499646,
      "v": 83
    },
    {
      "midi": 59,
      "hit": false,
      "t": 101664.24335416542,
      "d": 78.57139583332173,
      "v": 66
    },
    {
      "midi": 45,
      "hit": false,
      "t": 101674.95763541541,
      "d": 74.99996874999488,
      "v": 67
    },
    {
      "midi": 54,
      "hit": false,
      "t": 101753.52903124873,
      "d": 64.28568749999977,
      "v": 56
    },
    {
      "midi": 63,
      "hit": false,
      "t": 101792.8147291654,
      "d": 60.71426041665836,
      "v": 51
    },
    {
      "midi": 66,
      "hit": false,
      "t": 101796.38615624873,
      "d": 67.85711458332662,
      "v": 54
    },
    {
      "midi": 59,
      "hit": false,
      "t": 101853.52898958206,
      "d": 24.999989583331626,
      "v": 24
    },
    {
      "midi": 54,
      "hit": false,
      "t": 101892.81468749873,
      "d": 67.85711458332662,
      "v": 53
    },
    {
      "midi": 59,
      "hit": false,
      "t": 101924.95753124873,
      "d": 82.14282291666314,
      "v": 66
    },
    {
      "midi": 45,
      "hit": false,
      "t": 101971.38608333205,
      "d": 28.57141666667303,
      "v": 64
    },
    {
      "midi": 67,
      "hit": false,
      "t": 102039.24319791539,
      "d": 46.428552083307295,
      "v": 68
    },
    {
      "midi": 64,
      "hit": false,
      "t": 102042.81462499872,
      "d": 21.42856249999022,
      "v": 59
    },
    {
      "midi": 43,
      "hit": false,
      "t": 102067.81461458204,
      "d": 46.4285520833364,
      "v": 66
    },
    {
      "midi": 52,
      "hit": false,
      "t": 102139.2431562487,
      "d": 46.4285520833364,
      "v": 62
    },
    {
      "midi": 59,
      "hit": false,
      "t": 102199.95741666538,
      "d": 49.9999791666487,
      "v": 64
    },
    {
      "midi": 81,
      "hit": false,
      "t": 102242.81454166537,
      "d": 28.57141666665848,
      "v": 82
    },
    {
      "midi": 69,
      "hit": false,
      "t": 102246.3859687487,
      "d": 17.85713541666337,
      "v": 64
    },
    {
      "midi": 52,
      "hit": false,
      "t": 102257.1002499987,
      "d": 17.85713541666337,
      "v": 69
    },
    {
      "midi": 67,
      "hit": false,
      "t": 102307.10022916536,
      "d": 35.71427083332674,
      "v": 89
    },
    {
      "midi": 79,
      "hit": false,
      "t": 102307.10022916536,
      "d": 42.857124999994994,
      "v": 79
    },
    {
      "midi": 78,
      "hit": false,
      "t": 102442.81445833202,
      "d": 60.71426041664381,
      "v": 91
    },
    {
      "midi": 66,
      "hit": false,
      "t": 102446.38588541535,
      "d": 74.99996874998033,
      "v": 85
    },
    {
      "midi": 39,
      "hit": false,
      "t": 102457.10016666535,
      "d": 89.28567708331684,
      "v": 64
    },
    {
      "midi": 47,
      "hit": false,
      "t": 102553.52869791533,
      "d": 39.28569791666814,
      "v": 49
    },
    {
      "midi": 69,
      "hit": false,
      "t": 102564.24297916533,
      "d": 32.142843749999884,
      "v": 59
    },
    {
      "midi": 71,
      "hit": false,
      "t": 102571.385833332,
      "d": 32.142843749999884,
      "v": 65
    },
    {
      "midi": 57,
      "hit": false,
      "t": 102632.10009374867,
      "d": 57.14283333333151,
      "v": 51
    },
    {
      "midi": 79,
      "hit": false,
      "t": 102703.52863541534,
      "d": 39.28569791665359,
      "v": 93
    },
    {
      "midi": 67,
      "hit": false,
      "t": 102707.10006249866,
      "d": 32.142843749999884,
      "v": 74
    },
    {
      "midi": 47,
      "hit": false,
      "t": 102721.385770832,
      "d": 32.14284374998533,
      "v": 56
    },
    {
      "midi": 76,
      "hit": false,
      "t": 102846.38571874866,
      "d": 82.14282291664858,
      "v": 89
    },
    {
      "midi": 64,
      "hit": false,
      "t": 102849.95714583198,
      "d": 89.28567708331684,
      "v": 78
    },
    {
      "midi": 40,
      "hit": false,
      "t": 102857.09999999865,
      "d": 82.14282291664858,
      "v": 65
    },
    {
      "midi": 47,
      "hit": false,
      "t": 102949.9571041653,
      "d": 60.71426041665836,
      "v": 56
    },
    {
      "midi": 71,
      "hit": false,
      "t": 102960.67138541529,
      "d": 17.85713541666337,
      "v": 62
    },
    {
      "midi": 55,
      "hit": false,
      "t": 103024.95707291529,
      "d": 71.42854166666802,
      "v": 55
    },
    {
      "midi": 67,
      "hit": false,
      "t": 103107.09989583195,
      "d": 42.857124999994994,
      "v": 68
    },
    {
      "midi": 79,
      "hit": false,
      "t": 103110.67132291528,
      "d": 42.857124999994994,
      "v": 85
    },
    {
      "midi": 47,
      "hit": false,
      "t": 103110.67132291528,
      "d": 121.42852083331672,
      "v": 64
    },
    {
      "midi": 68,
      "hit": false,
      "t": 103228.52841666527,
      "d": 49.9999791666487,
      "v": 52
    },
    {
      "midi": 71,
      "hit": false,
      "t": 103267.81411458192,
      "d": 107.14281249998021,
      "v": 85
    },
    {
      "midi": 59,
      "hit": false,
      "t": 103274.9569687486,
      "d": 67.85711458331207,
      "v": 70
    },
    {
      "midi": 38,
      "hit": false,
      "t": 103274.9569687486,
      "d": 82.14282291664858,
      "v": 63
    },
    {
      "midi": 44,
      "hit": false,
      "t": 103371.38549999858,
      "d": 74.99996874999488,
      "v": 57
    },
    {
      "midi": 68,
      "hit": false,
      "t": 103389.24263541524,
      "d": 96.42853124999965,
      "v": 59
    },
    {
      "midi": 65,
      "hit": false,
      "t": 103396.38548958191,
      "d": 74.99996874999488,
      "v": 52
    },
    {
      "midi": 53,
      "hit": false,
      "t": 103449.9568958319,
      "d": 67.85711458334117,
      "v": 62
    },
    {
      "midi": 72,
      "hit": false,
      "t": 103517.81401041524,
      "d": 42.857124999994994,
      "v": 88
    },
    {
      "midi": 60,
      "hit": false,
      "t": 103524.95686458191,
      "d": 32.142843749999884,
      "v": 74
    },
    {
      "midi": 44,
      "hit": false,
      "t": 103528.52829166524,
      "d": 60.714260416672914,
      "v": 63
    },
    {
      "midi": 45,
      "hit": false,
      "t": 103635.67110416525,
      "d": 17.85713541666337,
      "v": 26
    },
    {
      "midi": 69,
      "hit": false,
      "t": 103660.67109374858,
      "d": 103.5713854166388,
      "v": 86
    },
    {
      "midi": 57,
      "hit": false,
      "t": 103667.81394791523,
      "d": 85.71424999998999,
      "v": 70
    },
    {
      "midi": 36,
      "hit": false,
      "t": 103674.95680208188,
      "d": 53.57140625000466,
      "v": 69
    },
    {
      "midi": 45,
      "hit": false,
      "t": 103757.09962499855,
      "d": 60.714260416672914,
      "v": 68
    },
    {
      "midi": 64,
      "hit": false,
      "t": 103789.24246874855,
      "d": 32.142843749999884,
      "v": 67
    },
    {
      "midi": 52,
      "hit": false,
      "t": 103832.09959374854,
      "d": 64.28568749999977,
      "v": 68
    },
    {
      "midi": 45,
      "hit": false,
      "t": 103889.24242708187,
      "d": 42.857124999994994,
      "v": 70
    },
    {
      "midi": 76,
      "hit": false,
      "t": 103921.38527083187,
      "d": 39.28569791666814,
      "v": 92
    },
    {
      "midi": 64,
      "hit": false,
      "t": 103924.9566979152,
      "d": 35.71427083334129,
      "v": 78
    },
    {
      "midi": 67,
      "hit": false,
      "t": 104074.9566354152,
      "d": 99.99995833331195,
      "v": 86
    },
    {
      "midi": 55,
      "hit": false,
      "t": 104078.52806249853,
      "d": 78.57139583332173,
      "v": 70
    },
    {
      "midi": 35,
      "hit": false,
      "t": 104082.09948958186,
      "d": 60.71426041665836,
      "v": 65
    },
    {
      "midi": 43,
      "hit": false,
      "t": 104164.24231249852,
      "d": 46.4285520833364,
      "v": 55
    },
    {
      "midi": 64,
      "hit": false,
      "t": 104196.38515624852,
      "d": 32.142843749999884,
      "v": 60
    },
    {
      "midi": 52,
      "hit": false,
      "t": 104235.67085416519,
      "d": 39.28569791666814,
      "v": 56
    },
    {
      "midi": 43,
      "hit": false,
      "t": 104303.52796874853,
      "d": 46.42855208332185,
      "v": 70
    },
    {
      "midi": 69,
      "hit": false,
      "t": 104335.67081249853,
      "d": 49.99997916666325,
      "v": 87
    },
    {
      "midi": 57,
      "hit": false,
      "t": 104339.24223958186,
      "d": 39.28569791666814,
      "v": 73
    },
    {
      "midi": 66,
      "hit": false,
      "t": 104474.95646874853,
      "d": 85.71424999998999,
      "v": 70
    },
    {
      "midi": 54,
      "hit": false,
      "t": 104474.95646874853,
      "d": 92.85710416665825,
      "v": 85
    },
    {
      "midi": 33,
      "hit": false,
      "t": 104485.67074999852,
      "d": 89.2856770833314,
      "v": 70
    },
    {
      "midi": 40,
      "hit": false,
      "t": 104574.95642708185,
      "d": 46.4285520833364,
      "v": 56
    },
    {
      "midi": 64,
      "hit": false,
      "t": 104596.38498958186,
      "d": 14.285708333336515,
      "v": 55
    },
    {
      "midi": 52,
      "hit": false,
      "t": 104667.81353124852,
      "d": 39.28569791666814,
      "v": 58
    },
    {
      "midi": 72,
      "hit": false,
      "t": 104735.67064583187,
      "d": 89.2856770833314,
      "v": 93
    },
    {
      "midi": 60,
      "hit": false,
      "t": 104739.24207291519,
      "d": 64.28568749999977,
      "v": 81
    },
    {
      "midi": 40,
      "hit": false,
      "t": 104753.52778124853,
      "d": 35.71427083332674,
      "v": 61
    },
    {
      "midi": 72,
      "hit": false,
      "t": 104882.09915624853,
      "d": 92.8571041666437,
      "v": 89
    },
    {
      "midi": 60,
      "hit": false,
      "t": 104885.67058333186,
      "d": 135.7142291666387,
      "v": 85
    },
    {
      "midi": 33,
      "hit": false,
      "t": 104903.5277187485,
      "d": 82.14282291666314,
      "v": 62
    },
    {
      "midi": 45,
      "hit": false,
      "t": 104982.09911458184,
      "d": 39.28569791665359,
      "v": 58
    },
    {
      "midi": 63,
      "hit": false,
      "t": 105003.52767708183,
      "d": 24.999989583331626,
      "v": 54
    },
    {
      "midi": 66,
      "hit": false,
      "t": 105007.09910416516,
      "d": 32.142843749999884,
      "v": 61
    },
    {
      "midi": 48,
      "hit": false,
      "t": 105074.95621874848,
      "d": 74.99996874999488,
      "v": 70
    },
    {
      "midi": 63,
      "hit": false,
      "t": 105135.67047916516,
      "d": 39.28569791665359,
      "v": 79
    },
    {
      "midi": 75,
      "hit": false,
      "t": 105139.24190624848,
      "d": 53.571406249990105,
      "v": 93
    },
    {
      "midi": 54,
      "hit": false,
      "t": 105149.95618749848,
      "d": 92.85710416665825,
      "v": 48
    },
    {
      "midi": 78,
      "hit": false,
      "t": 105285.67041666513,
      "d": 92.8571041666728,
      "v": 93
    },
    {
      "midi": 66,
      "hit": false,
      "t": 105285.67041666513,
      "d": 99.9999583333265,
      "v": 83
    },
    {
      "midi": 45,
      "hit": false,
      "t": 105299.95612499847,
      "d": 82.14282291666314,
      "v": 68
    },
    {
      "midi": 51,
      "hit": false,
      "t": 105389.24180208179,
      "d": 78.57139583333628,
      "v": 48
    },
    {
      "midi": 79,
      "hit": false,
      "t": 105417.81321874846,
      "d": 64.28568749998522,
      "v": 94
    },
    {
      "midi": 67,
      "hit": false,
      "t": 105421.38464583179,
      "d": 39.28569791666814,
      "v": 83
    },
    {
      "midi": 60,
      "hit": false,
      "t": 105478.52747916512,
      "d": 60.71426041665836,
      "v": 64
    },
    {
      "midi": 81,
      "hit": false,
      "t": 105539.24173958178,
      "d": 67.85711458334117,
      "v": 93
    },
    {
      "midi": 69,
      "hit": false,
      "t": 105546.38459374844,
      "d": 32.142843749999884,
      "v": 82
    },
    {
      "midi": 51,
      "hit": false,
      "t": 105560.67030208178,
      "d": 39.28569791666814,
      "v": 64
    },
    {
      "midi": 84,
      "hit": false,
      "t": 105685.67024999845,
      "d": 282.14273958331614,
      "v": 92
    },
    {
      "midi": 72,
      "hit": false,
      "t": 105692.81310416512,
      "d": 99.9999583333265,
      "v": 85
    },
    {
      "midi": 43,
      "hit": false,
      "t": 105699.95595833179,
      "d": 74.99996874999488,
      "v": 66
    },
    {
      "midi": 51,
      "hit": false,
      "t": 105796.38448958177,
      "d": 49.99997916666325,
      "v": 69
    },
    {
      "midi": 79,
      "hit": false,
      "t": 105817.81305208178,
      "d": 89.28567708331684,
      "v": 70
    },
    {
      "midi": 75,
      "hit": false,
      "t": 105821.3844791651,
      "d": 96.4285312499851,
      "v": 58
    },
    {
      "midi": 60,
      "hit": false,
      "t": 105871.38445833177,
      "d": 60.71426041665836,
      "v": 48
    },
    {
      "midi": 72,
      "hit": false,
      "t": 105953.52728124843,
      "d": 71.42854166666802,
      "v": 69
    },
    {
      "midi": 51,
      "hit": false,
      "t": 105960.6701354151,
      "d": 107.14281249999476,
      "v": 62
    },
    {
      "midi": 71,
      "hit": false,
      "t": 106089.2415104151,
      "d": 121.42852083331672,
      "v": 74
    },
    {
      "midi": 83,
      "hit": false,
      "t": 106089.2415104151,
      "d": 257.14274999996996,
      "v": 88
    },
    {
      "midi": 43,
      "hit": false,
      "t": 106096.38436458177,
      "d": 60.71426041665836,
      "v": 52
    },
    {
      "midi": 52,
      "hit": false,
      "t": 106178.52718749842,
      "d": 74.99996874999488,
      "v": 55
    },
    {
      "midi": 79,
      "hit": false,
      "t": 106242.81287499842,
      "d": 121.42852083331672,
      "v": 70
    },
    {
      "midi": 76,
      "hit": false,
      "t": 106246.38430208174,
      "d": 96.42853124999965,
      "v": 65
    },
    {
      "midi": 59,
      "hit": false,
      "t": 106264.24143749841,
      "d": 64.28568749999977,
      "v": 51
    },
    {
      "midi": 52,
      "hit": false,
      "t": 106342.81283333174,
      "d": 39.28569791665359,
      "v": 64
    },
    {
      "midi": 71,
      "hit": false,
      "t": 106367.81282291506,
      "d": 53.57140625000466,
      "v": 66
    },
    {
      "midi": 42,
      "hit": false,
      "t": 106485.66991666507,
      "d": 57.142833333302406,
      "v": 62
    },
    {
      "midi": 70,
      "hit": false,
      "t": 106499.95562499839,
      "d": 99.99995833331195,
      "v": 85
    },
    {
      "midi": 82,
      "hit": false,
      "t": 106499.95562499839,
      "d": 174.99992708332138,
      "v": 87
    },
    {
      "midi": 54,
      "hit": false,
      "t": 106599.9555833317,
      "d": 60.714260416672914,
      "v": 52
    },
    {
      "midi": 78,
      "hit": false,
      "t": 106628.52699999837,
      "d": 124.99994791667268,
      "v": 65
    },
    {
      "midi": 76,
      "hit": false,
      "t": 106642.81270833171,
      "d": 78.57139583333628,
      "v": 64
    },
    {
      "midi": 61,
      "hit": false,
      "t": 106674.95555208171,
      "d": 71.42854166666802,
      "v": 42
    },
    {
      "midi": 54,
      "hit": false,
      "t": 106742.81266666505,
      "d": 117.85709374998987,
      "v": 62
    },
    {
      "midi": 70,
      "hit": false,
      "t": 106757.09837499837,
      "d": 74.99996874999488,
      "v": 64
    },
    {
      "midi": 47,
      "hit": false,
      "t": 106871.38404166503,
      "d": 89.2856770833314,
      "v": 62
    },
    {
      "midi": 81,
      "hit": false,
      "t": 106882.09832291503,
      "d": 178.5713541666628,
      "v": 84
    },
    {
      "midi": 69,
      "hit": false,
      "t": 106889.2411770817,
      "d": 89.2856770833314,
      "v": 70
    },
    {
      "midi": 54,
      "hit": false,
      "t": 106967.81257291503,
      "d": 85.71424999998999,
      "v": 64
    },
    {
      "midi": 78,
      "hit": false,
      "t": 107017.8125520817,
      "d": 128.57137499998498,
      "v": 70
    },
    {
      "midi": 75,
      "hit": false,
      "t": 107021.38397916502,
      "d": 117.85709374998987,
      "v": 65
    },
    {
      "midi": 63,
      "hit": false,
      "t": 107071.38395833169,
      "d": 82.14282291666314,
      "v": 59
    },
    {
      "midi": 54,
      "hit": false,
      "t": 107146.38392708168,
      "d": 57.14283333333151,
      "v": 64
    },
    {
      "midi": 69,
      "hit": false,
      "t": 107153.52678124835,
      "d": 64.28568749999977,
      "v": 68
    },
    {
      "midi": 79,
      "hit": false,
      "t": 107278.52672916502,
      "d": 107.14281249998021,
      "v": 85
    },
    {
      "midi": 67,
      "hit": false,
      "t": 107282.09815624835,
      "d": 85.71424999998999,
      "v": 71
    },
    {
      "midi": 52,
      "hit": false,
      "t": 107289.24101041502,
      "d": 96.4285312499851,
      "v": 66
    },
    {
      "midi": 55,
      "hit": false,
      "t": 107364.24097916501,
      "d": 64.28568749997066,
      "v": 64
    },
    {
      "midi": 76,
      "hit": false,
      "t": 107421.38381249833,
      "d": 117.85709374998987,
      "v": 69
    },
    {
      "midi": 71,
      "hit": false,
      "t": 107424.95523958166,
      "d": 99.9999583333265,
      "v": 69
    },
    {
      "midi": 64,
      "hit": false,
      "t": 107442.81237499832,
      "d": 39.28569791666814,
      "v": 59
    },
    {
      "midi": 55,
      "hit": false,
      "t": 107524.95519791498,
      "d": 42.857124999994994,
      "v": 57
    },
    {
      "midi": 67,
      "hit": false,
      "t": 107564.24089583165,
      "d": 17.85713541666337,
      "v": 47
    },
    {
      "midi": 67,
      "hit": false,
      "t": 107692.81227083165,
      "d": 221.42847916664323,
      "v": 87
    },
    {
      "midi": 55,
      "hit": false,
      "t": 107696.38369791498,
      "d": 67.85711458332662,
      "v": 78
    },
    {
      "midi": 46,
      "hit": false,
      "t": 107717.81226041497,
      "d": 53.57140625000466,
      "v": 62
    },
    {
      "midi": 52,
      "hit": false,
      "t": 107782.09794791497,
      "d": 67.85711458332662,
      "v": 59
    },
    {
      "midi": 64,
      "hit": false,
      "t": 107821.38364583164,
      "d": 67.85711458332662,
      "v": 66
    },
    {
      "midi": 61,
      "hit": false,
      "t": 107832.09792708163,
      "d": 82.14282291666314,
      "v": 48
    },
    {
      "midi": 52,
      "hit": false,
      "t": 107949.95502083162,
      "d": 64.28568749999977,
      "v": 44
    },
    {
      "midi": 55,
      "hit": false,
      "t": 107964.24072916496,
      "d": 17.85713541666337,
      "v": 75
    },
    {
      "midi": 79,
      "hit": false,
      "t": 108114.24066666495,
      "d": 217.85705208330182,
      "v": 88
    },
    {
      "midi": 67,
      "hit": false,
      "t": 108121.38352083162,
      "d": 96.42853124997055,
      "v": 73
    },
    {
      "midi": 45,
      "hit": false,
      "t": 108132.09780208161,
      "d": 71.42854166665347,
      "v": 62
    },
    {
      "midi": 51,
      "hit": false,
      "t": 108207.09777083159,
      "d": 78.57139583332173,
      "v": 54
    },
    {
      "midi": 75,
      "hit": false,
      "t": 108257.09774999825,
      "d": 199.999916666653,
      "v": 63
    },
    {
      "midi": 72,
      "hit": false,
      "t": 108267.81203124825,
      "d": 89.2856770833314,
      "v": 57
    },
    {
      "midi": 60,
      "hit": false,
      "t": 108303.52630208158,
      "d": 67.85711458334117,
      "v": 55
    },
    {
      "midi": 51,
      "hit": false,
      "t": 108382.09769791491,
      "d": 89.2856770833314,
      "v": 59
    },
    {
      "midi": 67,
      "hit": false,
      "t": 108385.66912499824,
      "d": 53.57140625000466,
      "v": 63
    },
    {
      "midi": 78,
      "hit": false,
      "t": 108535.66906249824,
      "d": 257.14274999996996,
      "v": 77
    },
    {
      "midi": 66,
      "hit": false,
      "t": 108539.24048958157,
      "d": 96.4285312499851,
      "v": 60
    },
    {
      "midi": 45,
      "hit": false,
      "t": 108542.8119166649,
      "d": 92.85710416665825,
      "v": 61
    },
    {
      "midi": 51,
      "hit": false,
      "t": 108617.81188541489,
      "d": 64.28568749998522,
      "v": 60
    },
    {
      "midi": 75,
      "hit": false,
      "t": 108660.66901041489,
      "d": 139.28565624999464,
      "v": 61
    },
    {
      "midi": 71,
      "hit": false,
      "t": 108664.24043749821,
      "d": 110.71423958333617,
      "v": 53
    },
    {
      "midi": 59,
      "hit": false,
      "t": 108696.38328124821,
      "d": 57.14283333333151,
      "v": 59
    },
    {
      "midi": 51,
      "hit": false,
      "t": 108785.66895833155,
      "d": 121.42852083333128,
      "v": 61
    },
    {
      "midi": 66,
      "hit": false,
      "t": 108792.81181249821,
      "d": 32.142843749999884,
      "v": 62
    },
    {
      "midi": 59,
      "hit": false,
      "t": 108935.66889583155,
      "d": 121.42852083333128,
      "v": 75
    },
    {
      "midi": 43,
      "hit": false,
      "t": 108949.95460416489,
      "d": 96.42853124999965,
      "v": 53
    },
    {
      "midi": 51,
      "hit": false,
      "t": 109039.24028124822,
      "d": 53.571406249990105,
      "v": 54
    },
    {
      "midi": 71,
      "hit": false,
      "t": 109071.38312499822,
      "d": 103.57138541666791,
      "v": 78
    },
    {
      "midi": 66,
      "hit": false,
      "t": 109074.95455208154,
      "d": 78.57139583333628,
      "v": 60
    },
    {
      "midi": 54,
      "hit": false,
      "t": 109107.09739583154,
      "d": 71.42854166666802,
      "v": 46
    },
    {
      "midi": 51,
      "hit": false,
      "t": 109178.52593749821,
      "d": 99.9999583333265,
      "v": 54
    },
    {
      "midi": 59,
      "hit": false,
      "t": 109196.38307291488,
      "d": 89.2856770833314,
      "v": 76
    },
    {
      "midi": 71,
      "hit": false,
      "t": 109324.95444791488,
      "d": 139.28565624999464,
      "v": 76
    },
    {
      "midi": 43,
      "hit": false,
      "t": 109332.09730208154,
      "d": 114.28566666666302,
      "v": 56
    },
    {
      "midi": 64,
      "hit": false,
      "t": 109335.66872916487,
      "d": 89.2856770833314,
      "v": 72
    },
    {
      "midi": 52,
      "hit": false,
      "t": 109417.81155208153,
      "d": 53.57140625000466,
      "v": 56
    },
    {
      "midi": 59,
      "hit": false,
      "t": 109457.0972499982,
      "d": 92.8571041666728,
      "v": 70
    },
    {
      "midi": 55,
      "hit": false,
      "t": 109489.2400937482,
      "d": 67.85711458334117,
      "v": 40
    },
    {
      "midi": 52,
      "hit": false,
      "t": 109560.66863541487,
      "d": 53.57140625000466,
      "v": 56
    },
    {
      "midi": 71,
      "hit": false,
      "t": 109578.52577083153,
      "d": 42.857125000009546,
      "v": 74
    },
    {
      "midi": 64,
      "hit": false,
      "t": 109585.6686249982,
      "d": 71.42854166666802,
      "v": 69
    },
    {
      "midi": 58,
      "hit": false,
      "t": 109714.2399999982,
      "d": 124.99994791665813,
      "v": 79
    },
    {
      "midi": 42,
      "hit": false,
      "t": 109721.38285416487,
      "d": 99.9999583333265,
      "v": 55
    },
    {
      "midi": 49,
      "hit": false,
      "t": 109799.95424999819,
      "d": 53.57140625000466,
      "v": 61
    },
    {
      "midi": 70,
      "hit": false,
      "t": 109853.5256562482,
      "d": 92.85710416665825,
      "v": 62
    },
    {
      "midi": 64,
      "hit": false,
      "t": 109860.66851041486,
      "d": 53.571406249990105,
      "v": 63
    },
    {
      "midi": 54,
      "hit": false,
      "t": 109871.38279166486,
      "d": 78.57139583332173,
      "v": 42
    },
    {
      "midi": 49,
      "hit": false,
      "t": 109946.38276041485,
      "d": 46.42855208332185,
      "v": 53
    },
    {
      "midi": 57,
      "hit": false,
      "t": 109985.66845833151,
      "d": 99.99995833334106,
      "v": 81
    },
    {
      "midi": 69,
      "hit": false,
      "t": 110110.66840624818,
      "d": 121.42852083331672,
      "v": 78
    },
    {
      "midi": 64,
      "hit": false,
      "t": 110121.38268749818,
      "d": 110.71423958332161,
      "v": 66
    },
    {
      "midi": 36,
      "hit": false,
      "t": 110128.52554166484,
      "d": 74.99996874999488,
      "v": 62
    },
    {
      "midi": 48,
      "hit": false,
      "t": 110221.3826458315,
      "d": 57.14283333333151,
      "v": 68
    },
    {
      "midi": 57,
      "hit": false,
      "t": 110260.66834374817,
      "d": 71.42854166665347,
      "v": 62
    },
    {
      "midi": 52,
      "hit": false,
      "t": 110321.38260416483,
      "d": 24.999989583331626,
      "v": 39
    },
    {
      "midi": 69,
      "hit": false,
      "t": 110364.23972916482,
      "d": 53.57140625000466,
      "v": 82
    },
    {
      "midi": 64,
      "hit": false,
      "t": 110371.38258333149,
      "d": 89.2856770833314,
      "v": 66
    },
    {
      "midi": 56,
      "hit": false,
      "t": 110499.95395833149,
      "d": 157.142791666658,
      "v": 87
    },
    {
      "midi": 35,
      "hit": false,
      "t": 110507.09681249816,
      "d": 71.42854166666802,
      "v": 60
    },
    {
      "midi": 47,
      "hit": false,
      "t": 110589.23963541482,
      "d": 92.85710416665825,
      "v": 65
    },
    {
      "midi": 68,
      "hit": false,
      "t": 110632.09676041482,
      "d": 85.71424999997544,
      "v": 79
    },
    {
      "midi": 64,
      "hit": false,
      "t": 110642.81104166481,
      "d": 85.71424999997544,
      "v": 77
    },
    {
      "midi": 52,
      "hit": false,
      "t": 110692.81102083148,
      "d": 17.85713541666337,
      "v": 34
    },
    {
      "midi": 50,
      "hit": false,
      "t": 110692.81102083148,
      "d": 21.42856249999022,
      "v": 40
    },
    {
      "midi": 55,
      "hit": false,
      "t": 110749.95385416479,
      "d": 67.85711458332662,
      "v": 85
    },
    {
      "midi": 67,
      "hit": false,
      "t": 110896.38236458146,
      "d": 139.28565624996554,
      "v": 82
    },
    {
      "midi": 64,
      "hit": false,
      "t": 110903.52521874812,
      "d": 128.57137499997043,
      "v": 71
    },
    {
      "midi": 60,
      "hit": false,
      "t": 110907.09664583145,
      "d": 99.99995833331195,
      "v": 71
    },
    {
      "midi": 34,
      "hit": false,
      "t": 110910.66807291478,
      "d": 96.4285312499851,
      "v": 55
    },
    {
      "midi": 46,
      "hit": false,
      "t": 111003.52517708144,
      "d": 64.28568749998522,
      "v": 56
    },
    {
      "midi": 55,
      "hit": false,
      "t": 111039.23944791475,
      "d": 74.99996875000943,
      "v": 70
    },
    {
      "midi": 49,
      "hit": false,
      "t": 111082.09657291476,
      "d": 17.85713541666337,
      "v": 38
    },
    {
      "midi": 67,
      "hit": false,
      "t": 111149.95368749808,
      "d": 57.14283333333151,
      "v": 80
    },
    {
      "midi": 64,
      "hit": false,
      "t": 111157.09654166475,
      "d": 57.14283333333151,
      "v": 65
    },
    {
      "midi": 60,
      "hit": false,
      "t": 111157.09654166475,
      "d": 96.42853124999965,
      "v": 65
    },
    {
      "midi": 53,
      "hit": false,
      "t": 111282.09648958142,
      "d": 171.42849999999453,
      "v": 88
    },
    {
      "midi": 33,
      "hit": false,
      "t": 111296.38219791476,
      "d": 60.71426041665836,
      "v": 61
    },
    {
      "midi": 45,
      "hit": false,
      "t": 111367.81073958141,
      "d": 57.14283333333151,
      "v": 65
    },
    {
      "midi": 65,
      "hit": false,
      "t": 111432.09642708141,
      "d": 60.714260416672914,
      "v": 76
    },
    {
      "midi": 60,
      "hit": false,
      "t": 111439.23928124808,
      "d": 46.4285520833364,
      "v": 66
    },
    {
      "midi": 48,
      "hit": false,
      "t": 111453.52498958142,
      "d": 21.428562500004773,
      "v": 54
    },
    {
      "midi": 52,
      "hit": false,
      "t": 111542.81066666475,
      "d": 110.71423958333617,
      "v": 86
    },
    {
      "midi": 64,
      "hit": false,
      "t": 111674.95346874809,
      "d": 71.42854166663892,
      "v": 79
    },
    {
      "midi": 59,
      "hit": false,
      "t": 111682.09632291475,
      "d": 89.28567708331684,
      "v": 64
    },
    {
      "midi": 57,
      "hit": false,
      "t": 111689.23917708141,
      "d": 103.57138541665336,
      "v": 55
    },
    {
      "midi": 35,
      "hit": false,
      "t": 111692.81060416474,
      "d": 103.57138541665336,
      "v": 62
    },
    {
      "midi": 42,
      "hit": false,
      "t": 111767.81057291474,
      "d": 67.85711458332662,
      "v": 67
    },
    {
      "midi": 47,
      "hit": false,
      "t": 111849.9533958314,
      "d": 124.99994791665813,
      "v": 74
    },
    {
      "midi": 51,
      "hit": false,
      "t": 111849.9533958314,
      "d": 146.42851041664835,
      "v": 89
    },
    {
      "midi": 42,
      "hit": false,
      "t": 111953.52478124807,
      "d": 60.71426041664381,
      "v": 56
    },
    {
      "midi": 63,
      "hit": false,
      "t": 111971.38191666473,
      "d": 57.14283333331696,
      "v": 85
    },
    {
      "midi": 57,
      "hit": false,
      "t": 111978.52477083138,
      "d": 17.85713541666337,
      "v": 68
    },
    {
      "midi": 59,
      "hit": false,
      "t": 111982.09619791471,
      "d": 17.85713541666337,
      "v": 62
    },
    {
      "midi": 58,
      "hit": false,
      "t": 112221.38181249805,
      "d": 49.99997916666325,
      "v": 75
    },
    {
      "midi": 55,
      "hit": false,
      "t": 112221.38181249805,
      "d": 57.14283333333151,
      "v": 87
    },
    {
      "midi": 34,
      "hit": false,
      "t": 112221.38181249805,
      "d": 60.71426041665836,
      "v": 91
    },
    {
      "midi": 63,
      "hit": false,
      "t": 112221.38181249805,
      "d": 71.42854166665347,
      "v": 80
    },
    {
      "midi": 67,
      "hit": false,
      "t": 112221.38181249805,
      "d": 74.99996874998033,
      "v": 90
    },
    {
      "midi": 46,
      "hit": false,
      "t": 112221.38181249805,
      "d": 78.57139583330718,
      "v": 88
    },
    {
      "midi": 63,
      "hit": false,
      "t": 112739.23873958134,
      "d": 296.42844791665266,
      "v": 59
    },
    {
      "midi": 46,
      "hit": false,
      "t": 112739.23873958134,
      "d": 310.7141562499892,
      "v": 55
    },
    {
      "midi": 58,
      "hit": false,
      "t": 112739.23873958134,
      "d": 328.57129166665254,
      "v": 56
    },
    {
      "midi": 67,
      "hit": false,
      "t": 112739.23873958134,
      "d": 399.99983333332057,
      "v": 82
    },
    {
      "midi": 60,
      "hit": false,
      "t": 113196.381406248,
      "d": 110.71423958333617,
      "v": 66
    },
    {
      "midi": 68,
      "hit": false,
      "t": 113196.381406248,
      "d": 110.71423958333617,
      "v": 77
    },
    {
      "midi": 63,
      "hit": false,
      "t": 113196.381406248,
      "d": 117.85709375000442,
      "v": 68
    },
    {
      "midi": 58,
      "hit": false,
      "t": 113335.667062498,
      "d": 96.42853124999965,
      "v": 58
    },
    {
      "midi": 67,
      "hit": false,
      "t": 113335.667062498,
      "d": 99.9999583333265,
      "v": 86
    },
    {
      "midi": 62,
      "hit": false,
      "t": 113464.238437498,
      "d": 46.4285520833364,
      "v": 78
    },
    {
      "midi": 72,
      "hit": false,
      "t": 113464.238437498,
      "d": 89.2856770833314,
      "v": 92
    },
    {
      "midi": 56,
      "hit": false,
      "t": 113464.238437498,
      "d": 142.85708333333605,
      "v": 59
    },
    {
      "midi": 63,
      "hit": false,
      "t": 113610.66694791467,
      "d": 71.42854166666802,
      "v": 63
    },
    {
      "midi": 55,
      "hit": false,
      "t": 113610.66694791467,
      "d": 78.57139583333628,
      "v": 67
    },
    {
      "midi": 70,
      "hit": false,
      "t": 113610.66694791467,
      "d": 89.2856770833314,
      "v": 80
    },
    {
      "midi": 53,
      "hit": false,
      "t": 113910.66682291467,
      "d": 82.14282291664858,
      "v": 82
    },
    {
      "midi": 57,
      "hit": false,
      "t": 113914.238249998,
      "d": 14.285708333321963,
      "v": 61
    },
    {
      "midi": 35,
      "hit": false,
      "t": 113914.238249998,
      "d": 42.857124999994994,
      "v": 65
    },
    {
      "midi": 47,
      "hit": false,
      "t": 113914.238249998,
      "d": 42.857124999994994,
      "v": 75
    },
    {
      "midi": 63,
      "hit": false,
      "t": 113914.238249998,
      "d": 132.1428020833264,
      "v": 84
    },
    {
      "midi": 53,
      "hit": false,
      "t": 114067.80961458133,
      "d": 121.42852083331672,
      "v": 71
    },
    {
      "midi": 58,
      "hit": false,
      "t": 114067.80961458133,
      "d": 142.85708333330695,
      "v": 54
    },
    {
      "midi": 63,
      "hit": false,
      "t": 114067.80961458133,
      "d": 160.7142187499703,
      "v": 56
    },
    {
      "midi": 65,
      "hit": false,
      "t": 114067.80961458133,
      "d": 185.71420833330194,
      "v": 86
    },
    {
      "midi": 34,
      "hit": false,
      "t": 114067.80961458133,
      "d": 196.42848958329705,
      "v": 84
    },
    {
      "midi": 46,
      "hit": false,
      "t": 114067.80961458133,
      "d": 224.99990624997008,
      "v": 83
    },
    {
      "midi": 96,
      "hit": false,
      "t": 114571.3808333313,
      "d": 78.57139583332173,
      "v": 96
    },
    {
      "midi": 53,
      "hit": false,
      "t": 114571.3808333313,
      "d": 310.7141562499746,
      "v": 62
    },
    {
      "midi": 62,
      "hit": false,
      "t": 114571.3808333313,
      "d": 339.28557291664765,
      "v": 79
    },
    {
      "midi": 56,
      "hit": false,
      "t": 114571.3808333313,
      "d": 349.99985416664276,
      "v": 49
    },
    {
      "midi": 58,
      "hit": false,
      "t": 114578.52368749797,
      "d": 346.42842708330136,
      "v": 49
    },
    {
      "midi": 94,
      "hit": false,
      "t": 114657.0950833313,
      "d": 99.9999583333265,
      "v": 81
    },
    {
      "midi": 92,
      "hit": false,
      "t": 114735.66647916462,
      "d": 82.14282291667769,
      "v": 86
    },
    {
      "midi": 91,
      "hit": false,
      "t": 114821.38072916462,
      "d": 57.14283333333151,
      "v": 80
    },
    {
      "midi": 89,
      "hit": false,
      "t": 114889.23784374795,
      "d": 49.99997916666325,
      "v": 76
    },
    {
      "midi": 87,
      "hit": false,
      "t": 114953.52353124795,
      "d": 74.99996874999488,
      "v": 77
    },
    {
      "midi": 86,
      "hit": false,
      "t": 115035.66635416461,
      "d": 60.71426041665836,
      "v": 84
    },
    {
      "midi": 63,
      "hit": false,
      "t": 115046.3806354146,
      "d": 285.714166666643,
      "v": 81
    },
    {
      "midi": 58,
      "hit": false,
      "t": 115049.95206249793,
      "d": 246.4284687499894,
      "v": 49
    },
    {
      "midi": 53,
      "hit": false,
      "t": 115053.52348958126,
      "d": 224.99990624999919,
      "v": 58
    },
    {
      "midi": 56,
      "hit": false,
      "t": 115053.52348958126,
      "d": 246.4284687499894,
      "v": 46
    },
    {
      "midi": 84,
      "hit": false,
      "t": 115110.6663229146,
      "d": 49.99997916666325,
      "v": 80
    },
    {
      "midi": 82,
      "hit": false,
      "t": 115185.6662916646,
      "d": 92.85710416665825,
      "v": 69
    },
    {
      "midi": 80,
      "hit": false,
      "t": 115260.6662604146,
      "d": 85.71424999998999,
      "v": 73
    },
    {
      "midi": 79,
      "hit": false,
      "t": 115332.09480208125,
      "d": 53.57140625000466,
      "v": 74
    },
    {
      "midi": 77,
      "hit": false,
      "t": 115396.38048958125,
      "d": 67.85711458332662,
      "v": 81
    },
    {
      "midi": 75,
      "hit": false,
      "t": 115474.95188541457,
      "d": 128.57137499998498,
      "v": 64
    },
    {
      "midi": 67,
      "hit": false,
      "t": 115482.09473958124,
      "d": 192.8570624999702,
      "v": 84
    },
    {
      "midi": 58,
      "hit": false,
      "t": 115485.66616666457,
      "d": 335.71414583330625,
      "v": 55
    },
    {
      "midi": 56,
      "hit": false,
      "t": 115489.2375937479,
      "d": 342.8569999999745,
      "v": 46
    },
    {
      "midi": 74,
      "hit": false,
      "t": 115553.5232812479,
      "d": 53.571406249990105,
      "v": 80
    },
    {
      "midi": 72,
      "hit": false,
      "t": 115624.95182291455,
      "d": 67.85711458332662,
      "v": 70
    },
    {
      "midi": 70,
      "hit": false,
      "t": 115678.52322916454,
      "d": 110.71423958333617,
      "v": 75
    },
    {
      "midi": 69,
      "hit": false,
      "t": 115771.38033333121,
      "d": 64.28568749998522,
      "v": 82
    },
    {
      "midi": 65,
      "hit": false,
      "t": 115782.0946145812,
      "d": 24.999989583331626,
      "v": 73
    },
    {
      "midi": 68,
      "hit": false,
      "t": 115842.80887499786,
      "d": 96.42853124999965,
      "v": 73
    },
    {
      "midi": 67,
      "hit": false,
      "t": 115949.95168749786,
      "d": 407.1426875000034,
      "v": 80
    },
    {
      "midi": 58,
      "hit": false,
      "t": 115967.80882291452,
      "d": 285.7141666666721,
      "v": 57
    },
    {
      "midi": 51,
      "hit": false,
      "t": 115974.95167708119,
      "d": 289.28559374999895,
      "v": 59
    },
    {
      "midi": 50,
      "hit": false,
      "t": 116417.80863541453,
      "d": 182.14278124998964,
      "v": 55
    },
    {
      "midi": 66,
      "hit": false,
      "t": 116417.80863541453,
      "d": 207.14277083332126,
      "v": 61
    },
    {
      "midi": 69,
      "hit": false,
      "t": 116417.80863541453,
      "d": 221.42847916665778,
      "v": 82
    },
    {
      "midi": 60,
      "hit": false,
      "t": 116417.80863541453,
      "d": 224.99990624998463,
      "v": 58
    },
    {
      "midi": 72,
      "hit": false,
      "t": 116839.23703124785,
      "d": 132.14280208331184,
      "v": 83
    },
    {
      "midi": 63,
      "hit": false,
      "t": 116846.37988541451,
      "d": 139.28565624996554,
      "v": 58
    },
    {
      "midi": 67,
      "hit": false,
      "t": 116846.37988541451,
      "d": 242.85704166663345,
      "v": 54
    },
    {
      "midi": 55,
      "hit": false,
      "t": 116857.09416666451,
      "d": 489.28551041662286,
      "v": 50
    },
    {
      "midi": 70,
      "hit": false,
      "t": 116974.95126041448,
      "d": 117.85709374998987,
      "v": 71
    },
    {
      "midi": 62,
      "hit": false,
      "t": 116985.66554166448,
      "d": 142.8570833333215,
      "v": 73
    },
    {
      "midi": 75,
      "hit": false,
      "t": 117103.52263541447,
      "d": 96.42853124999965,
      "v": 81
    },
    {
      "midi": 66,
      "hit": false,
      "t": 117103.52263541447,
      "d": 110.71423958333617,
      "v": 57
    },
    {
      "midi": 60,
      "hit": false,
      "t": 117103.52263541447,
      "d": 117.85709375000442,
      "v": 58
    },
    {
      "midi": 74,
      "hit": false,
      "t": 117260.66542708114,
      "d": 74.99996874999488,
      "v": 77
    },
    {
      "midi": 58,
      "hit": false,
      "t": 117260.66542708114,
      "d": 92.85710416665825,
      "v": 60
    },
    {
      "midi": 67,
      "hit": false,
      "t": 117267.80828124781,
      "d": 64.28568749999977,
      "v": 58
    },
    {
      "midi": 57,
      "hit": false,
      "t": 117542.80816666447,
      "d": 82.14282291666314,
      "v": 61
    },
    {
      "midi": 61,
      "hit": false,
      "t": 117542.80816666447,
      "d": 82.14282291666314,
      "v": 67
    },
    {
      "midi": 39,
      "hit": false,
      "t": 117542.80816666447,
      "d": 107.14281249999476,
      "v": 77
    },
    {
      "midi": 51,
      "hit": false,
      "t": 117542.80816666447,
      "d": 107.14281249999476,
      "v": 75
    },
    {
      "midi": 67,
      "hit": false,
      "t": 117542.80816666447,
      "d": 349.9998541666573,
      "v": 82
    },
    {
      "midi": 57,
      "hit": false,
      "t": 117710.66523958114,
      "d": 132.1428020833264,
      "v": 62
    },
    {
      "midi": 62,
      "hit": false,
      "t": 117714.23666666447,
      "d": 139.28565624999464,
      "v": 65
    },
    {
      "midi": 38,
      "hit": false,
      "t": 117714.23666666447,
      "d": 167.85707291666768,
      "v": 80
    },
    {
      "midi": 69,
      "hit": false,
      "t": 117714.23666666447,
      "d": 192.8570624999993,
      "v": 83
    },
    {
      "midi": 50,
      "hit": false,
      "t": 117714.23666666447,
      "d": 207.14277083333582,
      "v": 75
    },
    {
      "midi": 99,
      "hit": false,
      "t": 118203.52217708113,
      "d": 103.57138541665336,
      "v": 94
    },
    {
      "midi": 57,
      "hit": false,
      "t": 118203.52217708113,
      "d": 242.857041666648,
      "v": 63
    },
    {
      "midi": 62,
      "hit": false,
      "t": 118203.52217708113,
      "d": 257.1427499999845,
      "v": 60
    },
    {
      "midi": 60,
      "hit": false,
      "t": 118203.52217708113,
      "d": 264.2856041666528,
      "v": 52
    },
    {
      "midi": 66,
      "hit": false,
      "t": 118203.52217708113,
      "d": 271.42845833332103,
      "v": 79
    },
    {
      "midi": 98,
      "hit": false,
      "t": 118299.95070833112,
      "d": 60.714260416672914,
      "v": 90
    },
    {
      "midi": 96,
      "hit": false,
      "t": 118371.37924999779,
      "d": 64.28568749999977,
      "v": 79
    },
    {
      "midi": 94,
      "hit": false,
      "t": 118442.80779166445,
      "d": 67.85711458332662,
      "v": 69
    },
    {
      "midi": 93,
      "hit": false,
      "t": 118514.23633333111,
      "d": 57.14283333333151,
      "v": 82
    },
    {
      "midi": 91,
      "hit": false,
      "t": 118585.66487499778,
      "d": 89.2856770833314,
      "v": 80
    },
    {
      "midi": 90,
      "hit": false,
      "t": 118657.09341666444,
      "d": 28.57141666665848,
      "v": 77
    },
    {
      "midi": 57,
      "hit": false,
      "t": 118657.09341666444,
      "d": 192.85706249998475,
      "v": 63
    },
    {
      "midi": 60,
      "hit": false,
      "t": 118657.09341666444,
      "d": 203.57134374997986,
      "v": 69
    },
    {
      "midi": 62,
      "hit": false,
      "t": 118657.09341666444,
      "d": 203.57134374997986,
      "v": 49
    },
    {
      "midi": 67,
      "hit": false,
      "t": 118657.09341666444,
      "d": 249.99989583331626,
      "v": 81
    },
    {
      "midi": 87,
      "hit": false,
      "t": 118742.80766666443,
      "d": 60.714260416672914,
      "v": 72
    },
    {
      "midi": 86,
      "hit": false,
      "t": 118814.2362083311,
      "d": 42.857124999994994,
      "v": 68
    },
    {
      "midi": 84,
      "hit": false,
      "t": 118874.95046874776,
      "d": 60.714260416672914,
      "v": 73
    },
    {
      "midi": 82,
      "hit": false,
      "t": 118953.5218645811,
      "d": 82.14282291666314,
      "v": 69
    },
    {
      "midi": 81,
      "hit": false,
      "t": 119024.95040624776,
      "d": 57.14283333333151,
      "v": 83
    },
    {
      "midi": 79,
      "hit": false,
      "t": 119099.95037499776,
      "d": 57.14283333331696,
      "v": 80
    },
    {
      "midi": 70,
      "hit": false,
      "t": 119099.95037499776,
      "d": 185.71420833330194,
      "v": 82
    },
    {
      "midi": 62,
      "hit": false,
      "t": 119107.09322916443,
      "d": 310.7141562499746,
      "v": 62
    },
    {
      "midi": 60,
      "hit": false,
      "t": 119110.66465624775,
      "d": 317.8570104166429,
      "v": 55
    },
    {
      "midi": 78,
      "hit": false,
      "t": 119167.80748958107,
      "d": 74.99996874999488,
      "v": 72
    },
    {
      "midi": 75,
      "hit": false,
      "t": 119242.80745833107,
      "d": 96.42853124999965,
      "v": 73
    },
    {
      "midi": 74,
      "hit": false,
      "t": 119317.80742708106,
      "d": 60.714260416672914,
      "v": 77
    },
    {
      "midi": 73,
      "hit": false,
      "t": 119385.6645416644,
      "d": 42.857124999994994,
      "v": 72
    },
    {
      "midi": 69,
      "hit": false,
      "t": 119399.95024999774,
      "d": 24.999989583331626,
      "v": 75
    },
    {
      "midi": 72,
      "hit": false,
      "t": 119457.09308333107,
      "d": 64.28568749999977,
      "v": 74
    },
    {
      "midi": 71,
      "hit": false,
      "t": 119557.0930416644,
      "d": 121.42852083333128,
      "v": 76
    },
    {
      "midi": 62,
      "hit": false,
      "t": 119564.23589583107,
      "d": 132.1428020833264,
      "v": 58
    },
    {
      "midi": 55,
      "hit": false,
      "t": 119578.5216041644,
      "d": 139.28565624999464,
      "v": 51
    },
    {
      "midi": 71,
      "hit": false,
      "t": 119857.09291666439,
      "d": 71.42854166666802,
      "v": 63
    },
    {
      "midi": 55,
      "hit": false,
      "t": 119857.09291666439,
      "d": 74.99996874999488,
      "v": 54
    },
    {
      "midi": 79,
      "hit": false,
      "t": 119857.09291666439,
      "d": 89.2856770833314,
      "v": 74
    },
    {
      "midi": 62,
      "hit": false,
      "t": 119857.09291666439,
      "d": 435.7141041666473,
      "v": 49
    },
    {
      "midi": 80,
      "hit": false,
      "t": 119989.23571874772,
      "d": 78.57139583333628,
      "v": 71
    },
    {
      "midi": 72,
      "hit": false,
      "t": 119996.37857291439,
      "d": 57.14283333333151,
      "v": 73
    },
    {
      "midi": 54,
      "hit": false,
      "t": 119999.94999999771,
      "d": 67.85711458334117,
      "v": 56
    },
    {
      "midi": 79,
      "hit": false,
      "t": 120124.94994791439,
      "d": 85.71425000000454,
      "v": 80
    },
    {
      "midi": 71,
      "hit": false,
      "t": 120132.09280208105,
      "d": 78.57139583333628,
      "v": 66
    },
    {
      "midi": 55,
      "hit": false,
      "t": 120139.23565624772,
      "d": 367.8569895832916,
      "v": 53
    },
    {
      "midi": 78,
      "hit": false,
      "t": 120260.66417708105,
      "d": 96.4285312499851,
      "v": 77
    },
    {
      "midi": 72,
      "hit": false,
      "t": 120271.37845833105,
      "d": 17.85713541666337,
      "v": 73
    },
    {
      "midi": 63,
      "hit": false,
      "t": 120271.37845833105,
      "d": 74.99996874999488,
      "v": 64
    },
    {
      "midi": 79,
      "hit": false,
      "t": 120414.23554166437,
      "d": 82.14282291664858,
      "v": 80
    },
    {
      "midi": 71,
      "hit": false,
      "t": 120421.37839583104,
      "d": 74.99996874998033,
      "v": 54
    },
    {
      "midi": 62,
      "hit": false,
      "t": 120424.94982291436,
      "d": 67.85711458332662,
      "v": 59
    },
    {
      "midi": 67,
      "hit": false,
      "t": 120696.37828124767,
      "d": 103.5713854166388,
      "v": 72
    },
    {
      "midi": 59,
      "hit": false,
      "t": 120699.949708331,
      "d": 96.4285312499851,
      "v": 61
    },
    {
      "midi": 50,
      "hit": false,
      "t": 120699.949708331,
      "d": 364.2855624999647,
      "v": 57
    },
    {
      "midi": 43,
      "hit": false,
      "t": 120703.52113541432,
      "d": 142.85708333330695,
      "v": 55
    },
    {
      "midi": 68,
      "hit": false,
      "t": 120832.09251041431,
      "d": 85.71424999998999,
      "v": 68
    },
    {
      "midi": 60,
      "hit": false,
      "t": 120842.8067916643,
      "d": 53.571406249990105,
      "v": 62
    },
    {
      "midi": 42,
      "hit": false,
      "t": 120860.66392708097,
      "d": 99.9999583333265,
      "v": 43
    },
    {
      "midi": 67,
      "hit": false,
      "t": 120960.6638854143,
      "d": 74.99996874999488,
      "v": 73
    },
    {
      "midi": 59,
      "hit": false,
      "t": 120967.80673958096,
      "d": 67.85711458332662,
      "v": 60
    },
    {
      "midi": 43,
      "hit": false,
      "t": 120967.80673958096,
      "d": 435.7141041666182,
      "v": 63
    },
    {
      "midi": 51,
      "hit": false,
      "t": 121089.2352604143,
      "d": 96.4285312499851,
      "v": 65
    },
    {
      "midi": 66,
      "hit": false,
      "t": 121089.2352604143,
      "d": 107.14281249998021,
      "v": 62
    },
    {
      "midi": 60,
      "hit": false,
      "t": 121099.94954166429,
      "d": 49.99997916666325,
      "v": 64
    },
    {
      "midi": 67,
      "hit": false,
      "t": 121260.66376041427,
      "d": 146.4285104166338,
      "v": 63
    },
    {
      "midi": 59,
      "hit": false,
      "t": 121267.80661458094,
      "d": 110.71423958332161,
      "v": 50
    },
    {
      "midi": 50,
      "hit": false,
      "t": 121278.52089583094,
      "d": 142.85708333330695,
      "v": 44
    },
    {
      "midi": 68,
      "hit": false,
      "t": 121549.94935416424,
      "d": 167.85707291663857,
      "v": 67
    },
    {
      "midi": 78,
      "hit": false,
      "t": 121553.52078124757,
      "d": 157.142791666658,
      "v": 73
    },
    {
      "midi": 72,
      "hit": false,
      "t": 121574.94934374758,
      "d": 99.9999583333265,
      "v": 56
    },
    {
      "midi": 79,
      "hit": false,
      "t": 121714.23499999756,
      "d": 196.4284895833116,
      "v": 70
    },
    {
      "midi": 71,
      "hit": false,
      "t": 121721.37785416421,
      "d": 203.57134374997986,
      "v": 52
    },
    {
      "midi": 67,
      "hit": false,
      "t": 121724.94928124754,
      "d": 189.2856354166579,
      "v": 66
    },
    {
      "midi": 78,
      "hit": false,
      "t": 121985.66345833085,
      "d": 135.71422916662414,
      "v": 70
    },
    {
      "midi": 63,
      "hit": false,
      "t": 121996.37773958084,
      "d": 128.57137499995588,
      "v": 42
    },
    {
      "midi": 72,
      "hit": false,
      "t": 121999.94916666417,
      "d": 57.14283333331696,
      "v": 65
    },
    {
      "midi": 79,
      "hit": false,
      "t": 122128.52054166413,
      "d": 110.71423958332161,
      "v": 74
    },
    {
      "midi": 71,
      "hit": false,
      "t": 122135.6633958308,
      "d": 103.57138541665336,
      "v": 58
    },
    {
      "midi": 62,
      "hit": false,
      "t": 122135.6633958308,
      "d": 132.14280208331184,
      "v": 56
    },
    {
      "midi": 55,
      "hit": false,
      "t": 122146.37767708079,
      "d": 1014.2852916665724,
      "v": 42
    },
    {
      "midi": 78,
      "hit": false,
      "t": 122246.37763541412,
      "d": 142.8570833333215,
      "v": 73
    },
    {
      "midi": 72,
      "hit": false,
      "t": 122264.23477083078,
      "d": 60.71426041665836,
      "v": 64
    },
    {
      "midi": 63,
      "hit": false,
      "t": 122264.23477083078,
      "d": 124.99994791665813,
      "v": 61
    },
    {
      "midi": 79,
      "hit": false,
      "t": 122396.3775729141,
      "d": 117.85709375000442,
      "v": 71
    },
    {
      "midi": 71,
      "hit": false,
      "t": 122399.94899999743,
      "d": 117.85709375000442,
      "v": 53
    },
    {
      "midi": 62,
      "hit": false,
      "t": 122407.0918541641,
      "d": 121.42852083333128,
      "v": 57
    },
    {
      "midi": 78,
      "hit": false,
      "t": 122528.52037499743,
      "d": 124.99994791662903,
      "v": 70
    },
    {
      "midi": 63,
      "hit": false,
      "t": 122539.23465624743,
      "d": 121.42852083330217,
      "v": 46
    },
    {
      "midi": 72,
      "hit": false,
      "t": 122542.80608333075,
      "d": 89.28567708331684,
      "v": 52
    },
    {
      "midi": 79,
      "hit": false,
      "t": 122664.23460416406,
      "d": 85.71424999998999,
      "v": 72
    },
    {
      "midi": 71,
      "hit": false,
      "t": 122671.37745833072,
      "d": 92.85710416665825,
      "v": 54
    },
    {
      "midi": 62,
      "hit": false,
      "t": 122678.52031249738,
      "d": 117.85709375000442,
      "v": 48
    },
    {
      "midi": 78,
      "hit": false,
      "t": 122792.80597916406,
      "d": 117.85709374998987,
      "v": 71
    },
    {
      "midi": 72,
      "hit": false,
      "t": 122796.37740624738,
      "d": 49.99997916666325,
      "v": 61
    },
    {
      "midi": 63,
      "hit": false,
      "t": 122799.94883333071,
      "d": 103.57138541666791,
      "v": 57
    },
    {
      "midi": 79,
      "hit": false,
      "t": 122946.37734374737,
      "d": 207.14277083332126,
      "v": 71
    },
    {
      "midi": 62,
      "hit": false,
      "t": 122953.52019791404,
      "d": 214.28562499998952,
      "v": 52
    },
    {
      "midi": 71,
      "hit": false,
      "t": 122957.09162499737,
      "d": 157.142791666658,
      "v": 51
    },
    {
      "midi": 48,
      "hit": false,
      "t": 123457.09141666404,
      "d": 182.14278124998964,
      "v": 54
    },
    {
      "midi": 58,
      "hit": false,
      "t": 123457.09141666404,
      "d": 449.99981249999837,
      "v": 54
    },
    {
      "midi": 64,
      "hit": false,
      "t": 123460.66284374737,
      "d": 235.7141874999943,
      "v": 70
    },
    {
      "midi": 96,
      "hit": false,
      "t": 123464.2342708307,
      "d": 85.71425000000454,
      "v": 92
    },
    {
      "midi": 97,
      "hit": false,
      "t": 123549.9485208307,
      "d": 49.99997916666325,
      "v": 77
    },
    {
      "midi": 96,
      "hit": false,
      "t": 123621.37706249737,
      "d": 85.71424999998999,
      "v": 78
    },
    {
      "midi": 94,
      "hit": false,
      "t": 123696.37703124736,
      "d": 99.99995833334106,
      "v": 73
    },
    {
      "midi": 92,
      "hit": false,
      "t": 123767.80557291403,
      "d": 71.42854166666802,
      "v": 74
    },
    {
      "midi": 91,
      "hit": false,
      "t": 123839.2341145807,
      "d": 53.57140625000466,
      "v": 78
    },
    {
      "midi": 89,
      "hit": false,
      "t": 123917.80551041404,
      "d": 57.14283333331696,
      "v": 80
    },
    {
      "midi": 56,
      "hit": false,
      "t": 123921.37693749736,
      "d": 285.71416666662844,
      "v": 57
    },
    {
      "midi": 65,
      "hit": false,
      "t": 123924.94836458069,
      "d": 199.99991666663846,
      "v": 74
    },
    {
      "midi": 53,
      "hit": false,
      "t": 123935.66264583069,
      "d": 207.1427708333067,
      "v": 60
    },
    {
      "midi": 91,
      "hit": false,
      "t": 123999.94833333067,
      "d": 67.85711458332662,
      "v": 75
    },
    {
      "midi": 89,
      "hit": false,
      "t": 124085.66258333066,
      "d": 53.57140625000466,
      "v": 74
    },
    {
      "midi": 87,
      "hit": false,
      "t": 124171.37683333067,
      "d": 42.857124999994994,
      "v": 73
    },
    {
      "midi": 86,
      "hit": false,
      "t": 124239.23394791399,
      "d": 46.4285520833364,
      "v": 72
    },
    {
      "midi": 84,
      "hit": false,
      "t": 124307.09106249733,
      "d": 49.99997916666325,
      "v": 77
    },
    {
      "midi": 46,
      "hit": false,
      "t": 124367.80532291399,
      "d": 14.285708333336515,
      "v": 63
    },
    {
      "midi": 56,
      "hit": false,
      "t": 124367.80532291399,
      "d": 489.2855104166374,
      "v": 61
    },
    {
      "midi": 82,
      "hit": false,
      "t": 124385.66245833065,
      "d": 57.14283333331696,
      "v": 69
    },
    {
      "midi": 62,
      "hit": false,
      "t": 124421.37672916398,
      "d": 317.8570104166429,
      "v": 71
    },
    {
      "midi": 84,
      "hit": false,
      "t": 124478.5195624973,
      "d": 85.71425000000454,
      "v": 68
    },
    {
      "midi": 82,
      "hit": false,
      "t": 124557.09095833063,
      "d": 99.9999583333265,
      "v": 62
    },
    {
      "midi": 80,
      "hit": false,
      "t": 124632.09092708063,
      "d": 96.42853124999965,
      "v": 76
    },
    {
      "midi": 79,
      "hit": false,
      "t": 124703.5194687473,
      "d": 57.14283333333151,
      "v": 81
    },
    {
      "midi": 77,
      "hit": false,
      "t": 124771.37658333062,
      "d": 53.57140625000466,
      "v": 82
    },
    {
      "midi": 79,
      "hit": false,
      "t": 124853.5194062473,
      "d": 49.9999791666487,
      "v": 76
    },
    {
      "midi": 63,
      "hit": false,
      "t": 124853.5194062473,
      "d": 178.57135416663368,
      "v": 75
    },
    {
      "midi": 51,
      "hit": false,
      "t": 124860.66226041396,
      "d": 196.4284895833116,
      "v": 61
    },
    {
      "midi": 55,
      "hit": false,
      "t": 124871.37654166395,
      "d": 157.142791666658,
      "v": 58
    },
    {
      "midi": 77,
      "hit": false,
      "t": 124924.94794791396,
      "d": 82.14282291664858,
      "v": 77
    },
    {
      "midi": 75,
      "hit": false,
      "t": 125003.51934374728,
      "d": 117.85709374998987,
      "v": 77
    },
    {
      "midi": 74,
      "hit": false,
      "t": 125085.66216666394,
      "d": 42.857124999994994,
      "v": 75
    },
    {
      "midi": 72,
      "hit": false,
      "t": 125146.3764270806,
      "d": 57.14283333333151,
      "v": 78
    },
    {
      "midi": 70,
      "hit": false,
      "t": 125210.6621145806,
      "d": 89.2856770833314,
      "v": 74
    },
    {
      "midi": 44,
      "hit": false,
      "t": 125228.51924999726,
      "d": 39.28569791666814,
      "v": 63
    },
    {
      "midi": 51,
      "hit": false,
      "t": 125260.66209374726,
      "d": 435.7141041666473,
      "v": 63
    },
    {
      "midi": 68,
      "hit": false,
      "t": 125296.3763645806,
      "d": 74.99996874999488,
      "v": 76
    },
    {
      "midi": 60,
      "hit": false,
      "t": 125317.8049270806,
      "d": 146.42851041667745,
      "v": 67
    },
    {
      "midi": 67,
      "hit": false,
      "t": 125371.3763333306,
      "d": 60.714260416672914,
      "v": 79
    },
    {
      "midi": 65,
      "hit": false,
      "t": 125449.94772916393,
      "d": 64.28568749999977,
      "v": 74
    },
    {
      "midi": 63,
      "hit": false,
      "t": 125517.80484374726,
      "d": 67.85711458332662,
      "v": 71
    },
    {
      "midi": 62,
      "hit": false,
      "t": 125596.37623958058,
      "d": 67.85711458332662,
      "v": 80
    },
    {
      "midi": 60,
      "hit": false,
      "t": 125671.37620833058,
      "d": 53.57140625000466,
      "v": 82
    },
    {
      "midi": 59,
      "hit": false,
      "t": 125753.51903124724,
      "d": 82.14282291664858,
      "v": 72
    },
    {
      "midi": 53,
      "hit": false,
      "t": 125764.23331249724,
      "d": 146.42851041664835,
      "v": 62
    },
    {
      "midi": 50,
      "hit": false,
      "t": 125767.80473958056,
      "d": 167.85707291665312,
      "v": 58
    },
    {
      "midi": 56,
      "hit": false,
      "t": 125832.09042708056,
      "d": 85.71424999998999,
      "v": 73
    },
    {
      "midi": 55,
      "hit": false,
      "t": 125910.66182291388,
      "d": 57.14283333333151,
      "v": 77
    },
    {
      "midi": 53,
      "hit": false,
      "t": 125974.94751041388,
      "d": 78.57139583333628,
      "v": 77
    },
    {
      "midi": 51,
      "hit": false,
      "t": 126046.37605208055,
      "d": 71.42854166666802,
      "v": 77
    },
    {
      "midi": 50,
      "hit": false,
      "t": 126117.80459374722,
      "d": 71.42854166666802,
      "v": 86
    },
    {
      "midi": 48,
      "hit": false,
      "t": 126192.80456249721,
      "d": 57.14283333331696,
      "v": 85
    },
    {
      "midi": 31,
      "hit": false,
      "t": 126203.51884374721,
      "d": 439.28553124997416,
      "v": 83
    },
    {
      "midi": 47,
      "hit": false,
      "t": 126271.37595833054,
      "d": 74.99996874999488,
      "v": 74
    },
    {
      "midi": 44,
      "hit": false,
      "t": 126346.37592708053,
      "d": 78.57139583332173,
      "v": 70
    },
    {
      "midi": 43,
      "hit": false,
      "t": 126421.37589583053,
      "d": 60.71426041665836,
      "v": 60
    },
    {
      "midi": 41,
      "hit": false,
      "t": 126499.94729166385,
      "d": 14.285708333336515,
      "v": 60
    },
    {
      "midi": 38,
      "hit": false,
      "t": 126578.51868749718,
      "d": 60.714260416672914,
      "v": 63
    },
    {
      "midi": 24,
      "hit": false,
      "t": 126660.66151041385,
      "d": 199.99991666663846,
      "v": 81
    },
    {
      "midi": 36,
      "hit": false,
      "t": 126667.80436458052,
      "d": 135.7142291666387,
      "v": 83
    },
    {
      "midi": 63,
      "hit": false,
      "t": 127139.23273958049,
      "d": 392.8569791666523,
      "v": 76
    },
    {
      "midi": 60,
      "hit": false,
      "t": 127146.37559374716,
      "d": 239.28561458332115,
      "v": 72
    },
    {
      "midi": 55,
      "hit": false,
      "t": 127153.51844791383,
      "d": 421.42839583329624,
      "v": 66
    },
    {
      "midi": 48,
      "hit": false,
      "t": 127157.08987499715,
      "d": 921.4281874998851,
      "v": 66
    },
    {
      "midi": 65,
      "hit": false,
      "t": 127546.37542708046,
      "d": 124.99994791664358,
      "v": 78
    },
    {
      "midi": 59,
      "hit": false,
      "t": 127553.51828124713,
      "d": 67.85711458331207,
      "v": 66
    },
    {
      "midi": 56,
      "hit": false,
      "t": 127557.08970833046,
      "d": 135.7142291666387,
      "v": 71
    },
    {
      "midi": 63,
      "hit": false,
      "t": 127689.23251041377,
      "d": 146.42851041664835,
      "v": 73
    },
    {
      "midi": 60,
      "hit": false,
      "t": 127692.8039374971,
      "d": 64.28568749999977,
      "v": 73
    },
    {
      "midi": 55,
      "hit": false,
      "t": 127707.08964583043,
      "d": 149.99993749996065,
      "v": 67
    },
    {
      "midi": 68,
      "hit": false,
      "t": 127828.51816666377,
      "d": 92.85710416662914,
      "v": 80
    },
    {
      "midi": 59,
      "hit": false,
      "t": 127839.23244791375,
      "d": 60.71426041664381,
      "v": 64
    },
    {
      "midi": 53,
      "hit": false,
      "t": 127846.3753020804,
      "d": 114.28566666666302,
      "v": 66
    },
    {
      "midi": 67,
      "hit": false,
      "t": 127978.51810416373,
      "d": 78.57139583332173,
      "v": 79
    },
    {
      "midi": 51,
      "hit": false,
      "t": 127978.51810416373,
      "d": 107.14281249998021,
      "v": 69
    },
    {
      "midi": 60,
      "hit": false,
      "t": 127989.23238541372,
      "d": 74.99996874998033,
      "v": 63
    },
    {
      "midi": 60,
      "hit": false,
      "t": 128271.37512499704,
      "d": 407.14268749994517,
      "v": 89
    },
    {
      "midi": 48,
      "hit": false,
      "t": 128278.5179791637,
      "d": 74.99996874998033,
      "v": 81
    },
    {
      "midi": 32,
      "hit": false,
      "t": 128285.66083333036,
      "d": 124.99994791665813,
      "v": 68
    },
    {
      "midi": 44,
      "hit": false,
      "t": 128285.66083333036,
      "d": 124.99994791665813,
      "v": 71
    },
    {
      "midi": 53,
      "hit": false,
      "t": 128453.51790624701,
      "d": 157.142791666658,
      "v": 65
    },
    {
      "midi": 50,
      "hit": false,
      "t": 128453.51790624701,
      "d": 167.85707291665312,
      "v": 74
    },
    {
      "midi": 62,
      "hit": false,
      "t": 128453.51790624701,
      "d": 224.99990624997008,
      "v": 86
    },
    {
      "midi": 43,
      "hit": false,
      "t": 128471.37504166368,
      "d": 210.71419791663357,
      "v": 68
    },
    {
      "midi": 31,
      "hit": false,
      "t": 128474.946468747,
      "d": 178.57135416664823,
      "v": 55
    },
    {
      "midi": 92,
      "hit": false,
      "t": 128932.08913541364,
      "d": 92.8571041666437,
      "v": 86
    },
    {
      "midi": 59,
      "hit": false,
      "t": 128932.08913541364,
      "d": 346.4284270833159,
      "v": 68
    },
    {
      "midi": 53,
      "hit": false,
      "t": 128935.66056249697,
      "d": 335.7141458333208,
      "v": 63
    },
    {
      "midi": 50,
      "hit": false,
      "t": 128939.2319895803,
      "d": 339.2855729166622,
      "v": 60
    },
    {
      "midi": 55,
      "hit": false,
      "t": 128939.2319895803,
      "d": 353.5712812499987,
      "v": 59
    },
    {
      "midi": 91,
      "hit": false,
      "t": 129017.80338541362,
      "d": 71.42854166666802,
      "v": 88
    },
    {
      "midi": 89,
      "hit": false,
      "t": 129096.37478124695,
      "d": 82.14282291666314,
      "v": 89
    },
    {
      "midi": 87,
      "hit": false,
      "t": 129164.23189583028,
      "d": 78.57139583333628,
      "v": 76
    },
    {
      "midi": 86,
      "hit": false,
      "t": 129235.66043749695,
      "d": 67.85711458334117,
      "v": 84
    },
    {
      "midi": 84,
      "hit": false,
      "t": 129314.23183333028,
      "d": 57.14283333333151,
      "v": 87
    },
    {
      "midi": 83,
      "hit": false,
      "t": 129385.66037499695,
      "d": 107.14281249999476,
      "v": 80
    },
    {
      "midi": 50,
      "hit": false,
      "t": 129385.66037499695,
      "d": 174.99992708332138,
      "v": 56
    },
    {
      "midi": 53,
      "hit": false,
      "t": 129385.66037499695,
      "d": 185.7142083333165,
      "v": 58
    },
    {
      "midi": 55,
      "hit": false,
      "t": 129385.66037499695,
      "d": 189.28563541664334,
      "v": 59
    },
    {
      "midi": 60,
      "hit": false,
      "t": 129385.66037499695,
      "d": 235.71418749997974,
      "v": 71
    },
    {
      "midi": 80,
      "hit": false,
      "t": 129471.37462499694,
      "d": 96.42853124999965,
      "v": 78
    },
    {
      "midi": 79,
      "hit": false,
      "t": 129549.94602083028,
      "d": 53.571406249990105,
      "v": 73
    },
    {
      "midi": 77,
      "hit": false,
      "t": 129614.23170833026,
      "d": 57.14283333333151,
      "v": 74
    },
    {
      "midi": 75,
      "hit": false,
      "t": 129682.08882291359,
      "d": 124.99994791667268,
      "v": 70
    },
    {
      "midi": 74,
      "hit": false,
      "t": 129753.51736458026,
      "d": 53.57140625000466,
      "v": 76
    },
    {
      "midi": 72,
      "hit": false,
      "t": 129824.94590624693,
      "d": 42.857125000009546,
      "v": 76
    },
    {
      "midi": 63,
      "hit": false,
      "t": 129824.94590624693,
      "d": 203.57134375000896,
      "v": 75
    },
    {
      "midi": 55,
      "hit": false,
      "t": 129824.94590624693,
      "d": 317.85701041668653,
      "v": 53
    },
    {
      "midi": 53,
      "hit": false,
      "t": 129824.94590624693,
      "d": 332.1427187500085,
      "v": 50
    },
    {
      "midi": 71,
      "hit": false,
      "t": 129899.94587499693,
      "d": 57.14283333333151,
      "v": 74
    },
    {
      "midi": 68,
      "hit": false,
      "t": 129978.51727083027,
      "d": 71.42854166666802,
      "v": 73
    },
    {
      "midi": 67,
      "hit": false,
      "t": 130049.94581249694,
      "d": 64.28568749999977,
      "v": 73
    },
    {
      "midi": 62,
      "hit": false,
      "t": 130146.37434374694,
      "d": 64.28568749999977,
      "v": 71
    },
    {
      "midi": 66,
      "hit": false,
      "t": 130146.37434374694,
      "d": 71.42854166666802,
      "v": 74
    },
    {
      "midi": 65,
      "hit": false,
      "t": 130221.37431249693,
      "d": 42.857124999994994,
      "v": 74
    },
    {
      "midi": 48,
      "hit": false,
      "t": 130307.08856249692,
      "d": 178.5713541666628,
      "v": 65
    },
    {
      "midi": 55,
      "hit": false,
      "t": 130307.08856249692,
      "d": 189.2856354166579,
      "v": 63
    },
    {
      "midi": 63,
      "hit": false,
      "t": 130307.08856249692,
      "d": 207.14277083332126,
      "v": 75
    },
    {
      "midi": 47,
      "hit": false,
      "t": 130807.08835416358,
      "d": 235.7141874999943,
      "v": 57
    },
    {
      "midi": 57,
      "hit": false,
      "t": 130807.08835416358,
      "d": 257.14274999999907,
      "v": 60
    },
    {
      "midi": 63,
      "hit": false,
      "t": 130807.08835416358,
      "d": 278.57131250000384,
      "v": 56
    },
    {
      "midi": 65,
      "hit": false,
      "t": 130807.08835416358,
      "d": 278.57131250000384,
      "v": 78
    },
    {
      "midi": 63,
      "hit": false,
      "t": 131264.23102083025,
      "d": 128.57137499999953,
      "v": 50
    },
    {
      "midi": 68,
      "hit": false,
      "t": 131264.23102083025,
      "d": 128.57137499999953,
      "v": 79
    },
    {
      "midi": 60,
      "hit": false,
      "t": 131264.23102083025,
      "d": 139.28565624999464,
      "v": 55
    },
    {
      "midi": 46,
      "hit": false,
      "t": 131264.23102083025,
      "d": 578.5711874999688,
      "v": 63
    },
    {
      "midi": 58,
      "hit": false,
      "t": 131410.6595312469,
      "d": 117.85709375000442,
      "v": 58
    },
    {
      "midi": 67,
      "hit": false,
      "t": 131410.6595312469,
      "d": 132.14280208334094,
      "v": 77
    },
    {
      "midi": 56,
      "hit": false,
      "t": 131553.51661458024,
      "d": 89.2856770833314,
      "v": 50
    },
    {
      "midi": 62,
      "hit": false,
      "t": 131553.51661458024,
      "d": 96.4285312499851,
      "v": 60
    },
    {
      "midi": 72,
      "hit": false,
      "t": 131553.51661458024,
      "d": 114.28566666666302,
      "v": 84
    },
    {
      "midi": 55,
      "hit": false,
      "t": 131724.94511458024,
      "d": 89.2856770833314,
      "v": 61
    },
    {
      "midi": 63,
      "hit": false,
      "t": 131724.94511458024,
      "d": 99.9999583333265,
      "v": 59
    },
    {
      "midi": 70,
      "hit": false,
      "t": 131724.94511458024,
      "d": 121.42852083331672,
      "v": 80
    },
    {
      "midi": 47,
      "hit": false,
      "t": 132028.51641666357,
      "d": 49.99997916666325,
      "v": 64
    },
    {
      "midi": 35,
      "hit": false,
      "t": 132028.51641666357,
      "d": 57.14283333334606,
      "v": 64
    },
    {
      "midi": 57,
      "hit": false,
      "t": 132028.51641666357,
      "d": 85.71425000001909,
      "v": 66
    },
    {
      "midi": 53,
      "hit": false,
      "t": 132028.51641666357,
      "d": 342.85700000004726,
      "v": 64
    },
    {
      "midi": 63,
      "hit": false,
      "t": 132217.80205208025,
      "d": 99.99995833335561,
      "v": 66
    },
    {
      "midi": 58,
      "hit": false,
      "t": 132217.80205208025,
      "d": 182.1427812500042,
      "v": 62
    },
    {
      "midi": 65,
      "hit": false,
      "t": 132217.80205208025,
      "d": 210.71419791667722,
      "v": 89
    },
    {
      "midi": 46,
      "hit": false,
      "t": 132235.65918749693,
      "d": 192.8570624999993,
      "v": 61
    },
    {
      "midi": 34,
      "hit": false,
      "t": 132242.80204166358,
      "d": 160.71421875001397,
      "v": 63
    },
    {
      "midi": 96,
      "hit": false,
      "t": 132714.2304166636,
      "d": 71.42854166668258,
      "v": 90
    },
    {
      "midi": 62,
      "hit": false,
      "t": 132717.80184374694,
      "d": 285.7141666667012,
      "v": 68
    },
    {
      "midi": 53,
      "hit": false,
      "t": 132721.37327083029,
      "d": 282.1427395833598,
      "v": 62
    },
    {
      "midi": 58,
      "hit": false,
      "t": 132721.37327083029,
      "d": 299.9998750000377,
      "v": 56
    },
    {
      "midi": 56,
      "hit": false,
      "t": 132724.94469791363,
      "d": 299.9998750000377,
      "v": 53
    },
    {
      "midi": 94,
      "hit": false,
      "t": 132789.23038541363,
      "d": 96.4285312500142,
      "v": 76
    },
    {
      "midi": 92,
      "hit": false,
      "t": 132867.80178124696,
      "d": 92.8571041666728,
      "v": 91
    },
    {
      "midi": 91,
      "hit": false,
      "t": 132946.3731770803,
      "d": 57.14283333334606,
      "v": 79
    },
    {
      "midi": 89,
      "hit": false,
      "t": 133021.37314583032,
      "d": 64.28568749999977,
      "v": 78
    },
    {
      "midi": 87,
      "hit": false,
      "t": 133092.80168749698,
      "d": 71.42854166665347,
      "v": 78
    },
    {
      "midi": 86,
      "hit": false,
      "t": 133171.37308333028,
      "d": 60.71426041665836,
      "v": 84
    },
    {
      "midi": 63,
      "hit": false,
      "t": 133182.08736458028,
      "d": 260.71417708331137,
      "v": 71
    },
    {
      "midi": 56,
      "hit": false,
      "t": 133185.65879166362,
      "d": 232.14276041663834,
      "v": 62
    },
    {
      "midi": 58,
      "hit": false,
      "t": 133185.65879166362,
      "d": 242.85704166663345,
      "v": 61
    },
    {
      "midi": 53,
      "hit": false,
      "t": 133189.23021874696,
      "d": 196.4284895832825,
      "v": 63
    },
    {
      "midi": 87,
      "hit": false,
      "t": 133221.37306249695,
      "d": 21.42856249999022,
      "v": 26
    },
    {
      "midi": 84,
      "hit": false,
      "t": 133253.51590624693,
      "d": 60.71426041665836,
      "v": 79
    },
    {
      "midi": 82,
      "hit": false,
      "t": 133324.9444479136,
      "d": 99.9999583333265,
      "v": 71
    },
    {
      "midi": 80,
      "hit": false,
      "t": 133403.51584374692,
      "d": 71.42854166668258,
      "v": 81
    },
    {
      "midi": 79,
      "hit": false,
      "t": 133478.51581249695,
      "d": 60.71426041665836,
      "v": 84
    },
    {
      "midi": 77,
      "hit": false,
      "t": 133553.51578124694,
      "d": 64.28568749999977,
      "v": 82
    },
    {
      "midi": 75,
      "hit": false,
      "t": 133635.65860416362,
      "d": 71.42854166665347,
      "v": 74
    },
    {
      "midi": 67,
      "hit": false,
      "t": 133635.65860416362,
      "d": 182.1427812499751,
      "v": 79
    },
    {
      "midi": 58,
      "hit": false,
      "t": 133639.23003124696,
      "d": 364.2855624999793,
      "v": 59
    },
    {
      "midi": 56,
      "hit": false,
      "t": 133646.3728854136,
      "d": 357.1427083333256,
      "v": 60
    },
    {
      "midi": 74,
      "hit": false,
      "t": 133717.80142708027,
      "d": 53.57140625000466,
      "v": 76
    },
    {
      "midi": 72,
      "hit": false,
      "t": 133796.3728229136,
      "d": 42.85712499998044,
      "v": 74
    },
    {
      "midi": 70,
      "hit": false,
      "t": 133857.08708333026,
      "d": 67.85711458334117,
      "v": 74
    },
    {
      "midi": 69,
      "hit": false,
      "t": 133953.51561458028,
      "d": 53.57140625000466,
      "v": 74
    },
    {
      "midi": 65,
      "hit": false,
      "t": 133964.22989583027,
      "d": 28.57141666667303,
      "v": 68
    },
    {
      "midi": 68,
      "hit": false,
      "t": 134032.0870104136,
      "d": 74.99996874999488,
      "v": 72
    },
    {
      "midi": 67,
      "hit": false,
      "t": 134132.08696874694,
      "d": 71.42854166665347,
      "v": 70
    },
    {
      "midi": 63,
      "hit": false,
      "t": 134149.9441041636,
      "d": 371.4284166666621,
      "v": 56
    },
    {
      "midi": 58,
      "hit": false,
      "t": 134157.08695833024,
      "d": 332.14271874999395,
      "v": 56
    },
    {
      "midi": 51,
      "hit": false,
      "t": 134160.65838541358,
      "d": 321.42843749999884,
      "v": 60
    },
    {
      "midi": 68,
      "hit": false,
      "t": 134221.37264583027,
      "d": 64.28568749997066,
      "v": 69
    },
    {
      "midi": 70,
      "hit": false,
      "t": 134303.51546874692,
      "d": 110.71423958332161,
      "v": 65
    },
    {
      "midi": 72,
      "hit": false,
      "t": 134392.80114583025,
      "d": 35.71427083332674,
      "v": 72
    },
    {
      "midi": 74,
      "hit": false,
      "t": 134467.80111458024,
      "d": 49.99997916666325,
      "v": 75
    },
    {
      "midi": 75,
      "hit": false,
      "t": 134542.80108333024,
      "d": 57.14283333334606,
      "v": 71
    },
    {
      "midi": 80,
      "hit": false,
      "t": 134624.9439062469,
      "d": 46.42855208332185,
      "v": 74
    },
    {
      "midi": 48,
      "hit": false,
      "t": 134635.65818749688,
      "d": 78.57139583330718,
      "v": 64
    },
    {
      "midi": 79,
      "hit": false,
      "t": 134703.5153020802,
      "d": 60.71426041665836,
      "v": 77
    },
    {
      "midi": 77,
      "hit": false,
      "t": 134778.5152708302,
      "d": 85.71424999998999,
      "v": 76
    },
    {
      "midi": 63,
      "hit": false,
      "t": 134789.22955208019,
      "d": 146.42851041664835,
      "v": 55
    },
    {
      "midi": 75,
      "hit": false,
      "t": 134853.51523958019,
      "d": 71.42854166665347,
      "v": 77
    },
    {
      "midi": 56,
      "hit": false,
      "t": 134924.94378124684,
      "d": 164.28564583332627,
      "v": 39
    },
    {
      "midi": 74,
      "hit": false,
      "t": 134935.65806249683,
      "d": 46.42855208332185,
      "v": 81
    },
    {
      "midi": 72,
      "hit": false,
      "t": 135010.65803124683,
      "d": 74.99996874999488,
      "v": 74
    },
    {
      "midi": 70,
      "hit": false,
      "t": 135096.37228124682,
      "d": 85.71425000001909,
      "v": 64
    },
    {
      "midi": 53,
      "hit": false,
      "t": 135103.5151354135,
      "d": 264.2856041666528,
      "v": 67
    },
    {
      "midi": 68,
      "hit": false,
      "t": 135174.94367708018,
      "d": 67.85711458331207,
      "v": 67
    },
    {
      "midi": 67,
      "hit": false,
      "t": 135253.5150729135,
      "d": 60.71426041665836,
      "v": 68
    },
    {
      "midi": 60,
      "hit": false,
      "t": 135274.94363541348,
      "d": 124.99994791665813,
      "v": 52
    },
    {
      "midi": 65,
      "hit": false,
      "t": 135324.94361458014,
      "d": 67.85711458334117,
      "v": 63
    },
    {
      "midi": 64,
      "hit": false,
      "t": 135414.22929166348,
      "d": 57.14283333334606,
      "v": 66
    },
    {
      "midi": 56,
      "hit": false,
      "t": 135414.22929166348,
      "d": 157.14279166667257,
      "v": 48
    },
    {
      "midi": 65,
      "hit": false,
      "t": 135492.8006874968,
      "d": 74.99996874999488,
      "v": 60
    },
    {
      "midi": 67,
      "hit": false,
      "t": 135567.8006562468,
      "d": 64.28568750002887,
      "v": 71
    },
    {
      "midi": 46,
      "hit": false,
      "t": 135567.8006562468,
      "d": 78.57139583336539,
      "v": 65
    },
    {
      "midi": 68,
      "hit": false,
      "t": 135642.80062499683,
      "d": 64.28568749999977,
      "v": 62
    },
    {
      "midi": 69,
      "hit": false,
      "t": 135721.37202083017,
      "d": 67.85711458334117,
      "v": 73
    },
    {
      "midi": 62,
      "hit": false,
      "t": 135721.37202083017,
      "d": 210.71419791667722,
      "v": 55
    },
    {
      "midi": 70,
      "hit": false,
      "t": 135799.9434166635,
      "d": 64.28568749999977,
      "v": 63
    },
    {
      "midi": 72,
      "hit": false,
      "t": 135874.9433854135,
      "d": 71.42854166668258,
      "v": 76
    },
    {
      "midi": 56,
      "hit": false,
      "t": 135874.9433854135,
      "d": 149.99993750001886,
      "v": 56
    },
    {
      "midi": 70,
      "hit": false,
      "t": 135942.80049999684,
      "d": 71.42854166668258,
      "v": 71
    },
    {
      "midi": 67,
      "hit": false,
      "t": 136024.94332291352,
      "d": 92.8571041666728,
      "v": 75
    },
    {
      "midi": 51,
      "hit": false,
      "t": 136024.94332291352,
      "d": 257.1427500000282,
      "v": 61
    },
    {
      "midi": 68,
      "hit": false,
      "t": 136099.9432916635,
      "d": 85.71424999998999,
      "v": 70
    },
    {
      "midi": 70,
      "hit": false,
      "t": 136178.51468749685,
      "d": 39.28569791666814,
      "v": 69
    },
    {
      "midi": 63,
      "hit": false,
      "t": 136189.22896874684,
      "d": 124.99994791671634,
      "v": 51
    },
    {
      "midi": 72,
      "hit": false,
      "t": 136249.94322916353,
      "d": 60.714260416687466,
      "v": 81
    },
    {
      "midi": 74,
      "hit": false,
      "t": 136332.08605208024,
      "d": 53.57140625000466,
      "v": 83
    },
    {
      "midi": 55,
      "hit": false,
      "t": 136332.08605208024,
      "d": 139.28565624999464,
      "v": 46
    },
    {
      "midi": 75,
      "hit": false,
      "t": 136403.5145937469,
      "d": 71.42854166668258,
      "v": 77
    },
    {
      "midi": 80,
      "hit": false,
      "t": 136492.80027083025,
      "d": 49.99997916663415,
      "v": 73
    },
    {
      "midi": 48,
      "hit": false,
      "t": 136499.9431249969,
      "d": 60.71426041665836,
      "v": 63
    },
    {
      "midi": 79,
      "hit": false,
      "t": 136574.9430937469,
      "d": 60.71426041665836,
      "v": 73
    },
    {
      "midi": 77,
      "hit": false,
      "t": 136649.9430624969,
      "d": 74.99996874999488,
      "v": 78
    },
    {
      "midi": 63,
      "hit": false,
      "t": 136664.22877083023,
      "d": 114.28566666666302,
      "v": 52
    },
    {
      "midi": 75,
      "hit": false,
      "t": 136724.9430312469,
      "d": 67.85711458334117,
      "v": 76
    },
    {
      "midi": 55,
      "hit": false,
      "t": 136799.94299999689,
      "d": 128.57137500002864,
      "v": 49
    },
    {
      "midi": 74,
      "hit": false,
      "t": 136803.51442708023,
      "d": 42.857125000009546,
      "v": 80
    },
    {
      "midi": 72,
      "hit": false,
      "t": 136878.51439583025,
      "d": 60.71426041665836,
      "v": 72
    },
    {
      "midi": 70,
      "hit": false,
      "t": 136957.08579166356,
      "d": 85.71424999998999,
      "v": 65
    },
    {
      "midi": 53,
      "hit": false,
      "t": 136964.2286458302,
      "d": 271.4284583333356,
      "v": 68
    },
    {
      "midi": 68,
      "hit": false,
      "t": 137032.08576041355,
      "d": 67.85711458331207,
      "v": 65
    },
    {
      "midi": 67,
      "hit": false,
      "t": 137107.08572916352,
      "d": 57.14283333334606,
      "v": 71
    },
    {
      "midi": 60,
      "hit": false,
      "t": 137124.9428645802,
      "d": 96.4285312500142,
      "v": 51
    },
    {
      "midi": 65,
      "hit": false,
      "t": 137182.08569791354,
      "d": 60.71426041665836,
      "v": 67
    },
    {
      "midi": 56,
      "hit": false,
      "t": 137257.08566666354,
      "d": 146.42851041664835,
      "v": 37
    },
    {
      "midi": 64,
      "hit": false,
      "t": 137271.37137499687,
      "d": 53.57140625000466,
      "v": 67
    },
    {
      "midi": 65,
      "hit": false,
      "t": 137349.9427708302,
      "d": 64.28568749997066,
      "v": 70
    },
    {
      "midi": 67,
      "hit": false,
      "t": 137428.51416666352,
      "d": 67.85711458334117,
      "v": 68
    },
    {
      "midi": 46,
      "hit": false,
      "t": 137439.2284479135,
      "d": 71.42854166668258,
      "v": 63
    },
    {
      "midi": 68,
      "hit": false,
      "t": 137510.6569895802,
      "d": 49.99997916663415,
      "v": 61
    },
    {
      "midi": 69,
      "hit": false,
      "t": 137582.08553124682,
      "d": 64.28568749999977,
      "v": 67
    },
    {
      "midi": 62,
      "hit": false,
      "t": 137599.9426666635,
      "d": 149.99993749998976,
      "v": 53
    },
    {
      "midi": 70,
      "hit": false,
      "t": 137649.94264583016,
      "d": 67.85711458334117,
      "v": 61
    },
    {
      "midi": 56,
      "hit": false,
      "t": 137724.94261458016,
      "d": 128.57137499999953,
      "v": 32
    },
    {
      "midi": 72,
      "hit": false,
      "t": 137735.65689583015,
      "d": 53.57140625000466,
      "v": 70
    },
    {
      "midi": 70,
      "hit": false,
      "t": 137810.65686458015,
      "d": 60.71426041665836,
      "v": 65
    },
    {
      "midi": 67,
      "hit": false,
      "t": 137896.3711145801,
      "d": 78.57139583333628,
      "v": 63
    },
    {
      "midi": 51,
      "hit": false,
      "t": 137899.94254166345,
      "d": 249.99989583337447,
      "v": 64
    },
    {
      "midi": 68,
      "hit": false,
      "t": 137964.22822916345,
      "d": 78.57139583333628,
      "v": 62
    },
    {
      "midi": 70,
      "hit": false,
      "t": 138039.22819791344,
      "d": 35.71427083335584,
      "v": 64
    },
    {
      "midi": 61,
      "hit": false,
      "t": 138039.22819791344,
      "d": 157.14279166670167,
      "v": 60
    },
    {
      "midi": 72,
      "hit": false,
      "t": 138107.0853124968,
      "d": 67.85711458334117,
      "v": 66
    },
    {
      "midi": 73,
      "hit": false,
      "t": 138185.65670833015,
      "d": 82.14282291664858,
      "v": 72
    },
    {
      "midi": 55,
      "hit": false,
      "t": 138203.5138437468,
      "d": 132.14280208334094,
      "v": 51
    },
    {
      "midi": 75,
      "hit": false,
      "t": 138264.22810416346,
      "d": 53.57140625000466,
      "v": 76
    },
    {
      "midi": 77,
      "hit": false,
      "t": 138342.7994999968,
      "d": 64.28568749997066,
      "v": 81
    },
    {
      "midi": 50,
      "hit": false,
      "t": 138353.5137812468,
      "d": 153.57136458330206,
      "v": 68
    },
    {
      "midi": 79,
      "hit": false,
      "t": 138424.94232291344,
      "d": 64.28568749999977,
      "v": 84
    },
    {
      "midi": 80,
      "hit": false,
      "t": 138499.94229166344,
      "d": 99.9999583332974,
      "v": 78
    },
    {
      "midi": 61,
      "hit": false,
      "t": 138514.22799999674,
      "d": 253.57132291659946,
      "v": 50
    },
    {
      "midi": 82,
      "hit": false,
      "t": 138574.9422604134,
      "d": 46.42855208332185,
      "v": 73
    },
    {
      "midi": 84,
      "hit": false,
      "t": 138660.6565104134,
      "d": 78.57139583330718,
      "v": 76
    },
    {
      "midi": 51,
      "hit": false,
      "t": 138660.6565104134,
      "d": 110.71423958329251,
      "v": 69
    },
    {
      "midi": 85,
      "hit": false,
      "t": 138732.08505208004,
      "d": 96.428531249956,
      "v": 75
    },
    {
      "midi": 87,
      "hit": false,
      "t": 138814.2278749967,
      "d": 49.99997916663415,
      "v": 77
    },
    {
      "midi": 53,
      "hit": false,
      "t": 138821.37072916335,
      "d": 303.57130208335,
      "v": 72
    },
    {
      "midi": 89,
      "hit": false,
      "t": 138899.94212499665,
      "d": 82.14282291667769,
      "v": 81
    },
    {
      "midi": 61,
      "hit": false,
      "t": 138971.37066666334,
      "d": 292.8570208333549,
      "v": 55
    },
    {
      "midi": 91,
      "hit": false,
      "t": 138974.94209374668,
      "d": 74.99996874999488,
      "v": 81
    },
    {
      "midi": 92,
      "hit": false,
      "t": 139046.37063541333,
      "d": 42.857125000009546,
      "v": 88
    },
    {
      "midi": 56,
      "hit": false,
      "t": 139121.37060416336,
      "d": 74.99996874999488,
      "v": 76
    },
    {
      "midi": 101,
      "hit": false,
      "t": 139142.79916666338,
      "d": 46.42855208332185,
      "v": 85
    },
    {
      "midi": 99,
      "hit": false,
      "t": 139210.6562812467,
      "d": 85.71424999998999,
      "v": 85
    },
    {
      "midi": 97,
      "hit": false,
      "t": 139285.65624999668,
      "d": 67.85711458331207,
      "v": 78
    },
    {
      "midi": 55,
      "hit": false,
      "t": 139285.65624999668,
      "d": 264.2856041666819,
      "v": 73
    },
    {
      "midi": 96,
      "hit": false,
      "t": 139357.08479166334,
      "d": 39.28569791666814,
      "v": 77
    },
    {
      "midi": 94,
      "hit": false,
      "t": 139435.65618749667,
      "d": 85.71425000001909,
      "v": 60
    },
    {
      "midi": 65,
      "hit": false,
      "t": 139453.51332291335,
      "d": 228.57133333335514,
      "v": 40
    },
    {
      "midi": 92,
      "hit": false,
      "t": 139503.51330208,
      "d": 64.28568750002887,
      "v": 78
    },
    {
      "midi": 61,
      "hit": false,
      "t": 139564.2275624967,
      "d": 196.4284895833116,
      "v": 48
    },
    {
      "midi": 91,
      "hit": false,
      "t": 139574.9418437467,
      "d": 53.57140625000466,
      "v": 74
    },
    {
      "midi": 89,
      "hit": false,
      "t": 139649.9418124967,
      "d": 60.714260416687466,
      "v": 74
    },
    {
      "midi": 87,
      "hit": false,
      "t": 139721.37035416337,
      "d": 74.99996874996577,
      "v": 64
    },
    {
      "midi": 55,
      "hit": false,
      "t": 139728.51320833003,
      "d": 332.14271874996484,
      "v": 79
    },
    {
      "midi": 85,
      "hit": false,
      "t": 139796.37032291334,
      "d": 74.99996874999488,
      "v": 65
    },
    {
      "midi": 84,
      "hit": false,
      "t": 139885.65599999667,
      "d": 49.99997916663415,
      "v": 70
    },
    {
      "midi": 65,
      "hit": false,
      "t": 139907.08456249663,
      "d": 160.71421875001397,
      "v": 55
    },
    {
      "midi": 82,
      "hit": false,
      "t": 139960.65596874664,
      "d": 74.99996875002398,
      "v": 46
    },
    {
      "midi": 80,
      "hit": false,
      "t": 140028.51308332998,
      "d": 64.28568749999977,
      "v": 65
    },
    {
      "midi": 61,
      "hit": false,
      "t": 140032.08451041332,
      "d": 157.14279166667257,
      "v": 44
    },
    {
      "midi": 79,
      "hit": false,
      "t": 140107.0844791633,
      "d": 49.99997916666325,
      "v": 66
    },
    {
      "midi": 56,
      "hit": false,
      "t": 140182.0844479133,
      "d": 271.4284583333356,
      "v": 70
    },
    {
      "midi": 77,
      "hit": false,
      "t": 140185.65587499665,
      "d": 49.99997916666325,
      "v": 70
    },
    {
      "midi": 75,
      "hit": false,
      "t": 140260.65584374664,
      "d": 85.71424999998999,
      "v": 50
    },
    {
      "midi": 73,
      "hit": false,
      "t": 140346.37009374663,
      "d": 67.85711458334117,
      "v": 62
    },
    {
      "midi": 65,
      "hit": false,
      "t": 140346.37009374663,
      "d": 167.85707291669678,
      "v": 52
    },
    {
      "midi": 72,
      "hit": false,
      "t": 140428.5129166633,
      "d": 57.14283333334606,
      "v": 68
    },
    {
      "midi": 70,
      "hit": false,
      "t": 140499.94145833,
      "d": 67.85711458334117,
      "v": 48
    },
    {
      "midi": 61,
      "hit": false,
      "t": 140499.94145833,
      "d": 114.28566666666302,
      "v": 42
    },
    {
      "midi": 68,
      "hit": false,
      "t": 140578.51285416333,
      "d": 74.99996874996577,
      "v": 67
    },
    {
      "midi": 61,
      "hit": false,
      "t": 140674.9413854133,
      "d": 57.142833333287854,
      "v": 61
    },
    {
      "midi": 58,
      "hit": false,
      "t": 140674.9413854133,
      "d": 60.71426041662926,
      "v": 62
    },
    {
      "midi": 65,
      "hit": false,
      "t": 140674.9413854133,
      "d": 60.71426041662926,
      "v": 64
    },
    {
      "midi": 67,
      "hit": false,
      "t": 140674.9413854133,
      "d": 85.71424999996088,
      "v": 60
    },
    {
      "midi": 68,
      "hit": false,
      "t": 140749.94135416325,
      "d": 78.57139583330718,
      "v": 74
    },
    {
      "midi": 61,
      "hit": false,
      "t": 140817.79846874657,
      "d": 574.9997604166565,
      "v": 58
    },
    {
      "midi": 70,
      "hit": false,
      "t": 140828.51274999656,
      "d": 49.999979166692356,
      "v": 60
    },
    {
      "midi": 63,
      "hit": false,
      "t": 140828.51274999656,
      "d": 560.71405208332,
      "v": 66
    },
    {
      "midi": 58,
      "hit": false,
      "t": 140832.0841770799,
      "d": 528.5712083333055,
      "v": 58
    },
    {
      "midi": 51,
      "hit": false,
      "t": 140849.94131249658,
      "d": 464.2855208333058,
      "v": 59
    },
    {
      "midi": 71,
      "hit": false,
      "t": 140907.0841458299,
      "d": 71.42854166665347,
      "v": 76
    },
    {
      "midi": 72,
      "hit": false,
      "t": 140982.0841145799,
      "d": 64.28568749999977,
      "v": 80
    },
    {
      "midi": 73,
      "hit": false,
      "t": 141064.22693749657,
      "d": 60.71426041665836,
      "v": 69
    },
    {
      "midi": 74,
      "hit": false,
      "t": 141139.22690624656,
      "d": 67.85711458334117,
      "v": 64
    },
    {
      "midi": 75,
      "hit": false,
      "t": 141217.7983020799,
      "d": 107.14281249998021,
      "v": 77
    },
    {
      "midi": 79,
      "hit": false,
      "t": 141303.5125520799,
      "d": 57.14283333331696,
      "v": 78
    },
    {
      "midi": 77,
      "hit": false,
      "t": 141374.94109374654,
      "d": 74.99996875002398,
      "v": 76
    },
    {
      "midi": 75,
      "hit": false,
      "t": 141449.94106249657,
      "d": 60.71426041665836,
      "v": 68
    },
    {
      "midi": 73,
      "hit": false,
      "t": 141546.36959374655,
      "d": 64.28568749999977,
      "v": 51
    },
    {
      "midi": 72,
      "hit": false,
      "t": 141617.7981354132,
      "d": 64.28568749999977,
      "v": 69
    },
    {
      "midi": 56,
      "hit": false,
      "t": 141632.08384374654,
      "d": 282.1427395833307,
      "v": 62
    },
    {
      "midi": 73,
      "hit": false,
      "t": 141692.7981041632,
      "d": 67.85711458334117,
      "v": 70
    },
    {
      "midi": 75,
      "hit": false,
      "t": 141774.94092707988,
      "d": 110.71423958332161,
      "v": 71
    },
    {
      "midi": 68,
      "hit": false,
      "t": 141796.36948957987,
      "d": 139.28565625002375,
      "v": 49
    },
    {
      "midi": 77,
      "hit": false,
      "t": 141860.65517707987,
      "d": 42.857125000009546,
      "v": 72
    },
    {
      "midi": 60,
      "hit": false,
      "t": 141932.08371874655,
      "d": 39.28569791666814,
      "v": 48
    },
    {
      "midi": 79,
      "hit": false,
      "t": 141935.6551458299,
      "d": 57.14283333331696,
      "v": 73
    },
    {
      "midi": 80,
      "hit": false,
      "t": 141999.94083332986,
      "d": 67.85711458334117,
      "v": 75
    },
    {
      "midi": 85,
      "hit": false,
      "t": 142096.36936457985,
      "d": 42.85712499998044,
      "v": 76
    },
    {
      "midi": 53,
      "hit": false,
      "t": 142110.65507291318,
      "d": 57.142833333287854,
      "v": 63
    },
    {
      "midi": 84,
      "hit": false,
      "t": 142171.3693333298,
      "d": 64.28568749999977,
      "v": 76
    },
    {
      "midi": 82,
      "hit": false,
      "t": 142242.79787499647,
      "d": 128.57137499999953,
      "v": 75
    },
    {
      "midi": 68,
      "hit": false,
      "t": 142260.65501041315,
      "d": 203.5713437499653,
      "v": 56
    },
    {
      "midi": 80,
      "hit": false,
      "t": 142321.3692708298,
      "d": 67.85711458334117,
      "v": 75
    },
    {
      "midi": 79,
      "hit": false,
      "t": 142396.3692395798,
      "d": 46.42855208332185,
      "v": 74
    },
    {
      "midi": 60,
      "hit": false,
      "t": 142417.7978020798,
      "d": 110.71423958332161,
      "v": 56
    },
    {
      "midi": 77,
      "hit": false,
      "t": 142478.51206249645,
      "d": 53.57140625000466,
      "v": 73
    },
    {
      "midi": 75,
      "hit": false,
      "t": 142557.08345832978,
      "d": 117.85709374997532,
      "v": 70
    },
    {
      "midi": 58,
      "hit": false,
      "t": 142560.65488541313,
      "d": 271.4284583332774,
      "v": 64
    },
    {
      "midi": 73,
      "hit": false,
      "t": 142624.94057291312,
      "d": 71.42854166662437,
      "v": 71
    },
    {
      "midi": 72,
      "hit": false,
      "t": 142699.9405416631,
      "d": 85.71424999998999,
      "v": 76
    },
    {
      "midi": 65,
      "hit": false,
      "t": 142707.08339582974,
      "d": 128.57137499999953,
      "v": 60
    },
    {
      "midi": 70,
      "hit": false,
      "t": 142771.36908332974,
      "d": 64.28568749999977,
      "v": 74
    },
    {
      "midi": 61,
      "hit": false,
      "t": 142835.65477082974,
      "d": 157.14279166664346,
      "v": 49
    },
    {
      "midi": 69,
      "hit": false,
      "t": 142857.08333332973,
      "d": 67.85711458334117,
      "v": 72
    },
    {
      "midi": 70,
      "hit": false,
      "t": 142932.08330207976,
      "d": 57.142833333287854,
      "v": 71
    },
    {
      "midi": 71,
      "hit": false,
      "t": 143017.79755207972,
      "d": 67.85711458331207,
      "v": 70
    },
    {
      "midi": 51,
      "hit": false,
      "t": 143024.94040624637,
      "d": 67.85711458331207,
      "v": 62
    },
    {
      "midi": 72,
      "hit": false,
      "t": 143092.79752082968,
      "d": 64.28568749999977,
      "v": 72
    },
    {
      "midi": 73,
      "hit": false,
      "t": 143171.36891666302,
      "d": 53.57140625000466,
      "v": 73
    },
    {
      "midi": 67,
      "hit": false,
      "t": 143192.797479163,
      "d": 221.42847916670144,
      "v": 49
    },
    {
      "midi": 74,
      "hit": false,
      "t": 143239.22603124636,
      "d": 78.57139583333628,
      "v": 74
    },
    {
      "midi": 61,
      "hit": false,
      "t": 143321.36885416304,
      "d": 128.57137499999953,
      "v": 42
    },
    {
      "midi": 77,
      "hit": false,
      "t": 143324.94028124638,
      "d": 78.57139583333628,
      "v": 76
    },
    {
      "midi": 75,
      "hit": false,
      "t": 143403.51167707972,
      "d": 60.71426041662926,
      "v": 71
    },
    {
      "midi": 56,
      "hit": false,
      "t": 143478.51164582968,
      "d": 271.4284583333065,
      "v": 63
    },
    {
      "midi": 72,
      "hit": false,
      "t": 143482.08307291302,
      "d": 74.99996874999488,
      "v": 74
    },
    {
      "midi": 73,
      "hit": false,
      "t": 143557.08304166302,
      "d": 74.99996874996577,
      "v": 65
    },
    {
      "midi": 75,
      "hit": false,
      "t": 143635.65443749633,
      "d": 39.28569791666814,
      "v": 62
    },
    {
      "midi": 68,
      "hit": false,
      "t": 143646.36871874632,
      "d": 149.99993750001886,
      "v": 47
    },
    {
      "midi": 77,
      "hit": false,
      "t": 143710.65440624632,
      "d": 57.14283333334606,
      "v": 76
    },
    {
      "midi": 79,
      "hit": false,
      "t": 143782.082947913,
      "d": 57.14283333334606,
      "v": 74
    },
    {
      "midi": 60,
      "hit": false,
      "t": 143785.65437499635,
      "d": 21.42856249999022,
      "v": 42
    },
    {
      "midi": 80,
      "hit": false,
      "t": 143857.08291666303,
      "d": 60.71426041665836,
      "v": 75
    },
    {
      "midi": 53,
      "hit": false,
      "t": 143942.79716666302,
      "d": 99.9999583333265,
      "v": 72
    },
    {
      "midi": 85,
      "hit": false,
      "t": 143946.36859374636,
      "d": 42.857125000009546,
      "v": 73
    },
    {
      "midi": 84,
      "hit": false,
      "t": 144024.93998957967,
      "d": 78.57139583333628,
      "v": 74
    },
    {
      "midi": 82,
      "hit": false,
      "t": 144096.36853124635,
      "d": 114.28566666666302,
      "v": 69
    },
    {
      "midi": 68,
      "hit": false,
      "t": 144103.511385413,
      "d": 132.14280208334094,
      "v": 43
    },
    {
      "midi": 80,
      "hit": false,
      "t": 144171.36849999634,
      "d": 67.85711458334117,
      "v": 69
    },
    {
      "midi": 79,
      "hit": false,
      "t": 144239.2256145797,
      "d": 42.857125000009546,
      "v": 76
    },
    {
      "midi": 60,
      "hit": false,
      "t": 144257.08274999636,
      "d": 117.85709375000442,
      "v": 57
    },
    {
      "midi": 77,
      "hit": false,
      "t": 144314.2255833297,
      "d": 64.28568749999977,
      "v": 72
    },
    {
      "midi": 75,
      "hit": false,
      "t": 144392.79697916305,
      "d": 135.71422916662414,
      "v": 62
    },
    {
      "midi": 58,
      "hit": false,
      "t": 144396.3684062464,
      "d": 307.1427291666332,
      "v": 72
    },
    {
      "midi": 73,
      "hit": false,
      "t": 144482.08265624638,
      "d": 71.42854166662437,
      "v": 58
    },
    {
      "midi": 72,
      "hit": false,
      "t": 144557.08262499634,
      "d": 82.14282291667769,
      "v": 78
    },
    {
      "midi": 65,
      "hit": false,
      "t": 144571.36833332968,
      "d": 110.71423958335072,
      "v": 49
    },
    {
      "midi": 70,
      "hit": false,
      "t": 144624.93973957968,
      "d": 67.85711458334117,
      "v": 55
    },
    {
      "midi": 61,
      "hit": false,
      "t": 144703.51113541302,
      "d": 149.99993749996065,
      "v": 46
    },
    {
      "midi": 69,
      "hit": false,
      "t": 144710.65398957967,
      "d": 60.71426041665836,
      "v": 68
    },
    {
      "midi": 70,
      "hit": false,
      "t": 144782.08253124633,
      "d": 53.57140624997555,
      "v": 69
    },
    {
      "midi": 51,
      "hit": false,
      "t": 144853.51107291298,
      "d": 78.57139583330718,
      "v": 73
    },
    {
      "midi": 71,
      "hit": false,
      "t": 144860.65392707963,
      "d": 74.99996874999488,
      "v": 68
    },
    {
      "midi": 72,
      "hit": false,
      "t": 144935.65389582963,
      "d": 64.28568749999977,
      "v": 69
    },
    {
      "midi": 73,
      "hit": false,
      "t": 145007.08243749628,
      "d": 49.99997916666325,
      "v": 63
    },
    {
      "midi": 67,
      "hit": false,
      "t": 145017.79671874628,
      "d": 267.8570312500233,
      "v": 52
    },
    {
      "midi": 74,
      "hit": false,
      "t": 145074.93955207962,
      "d": 82.14282291664858,
      "v": 74
    },
    {
      "midi": 61,
      "hit": false,
      "t": 145146.36809374628,
      "d": 167.85707291669678,
      "v": 46
    },
    {
      "midi": 77,
      "hit": false,
      "t": 145174.93951041295,
      "d": 78.57139583333628,
      "v": 74
    },
    {
      "midi": 75,
      "hit": false,
      "t": 145242.7966249963,
      "d": 67.85711458334117,
      "v": 71
    },
    {
      "midi": 72,
      "hit": false,
      "t": 145328.51087499628,
      "d": 99.9999583332974,
      "v": 78
    },
    {
      "midi": 56,
      "hit": false,
      "t": 145339.22515624628,
      "d": 149.99993749996065,
      "v": 70
    },
    {
      "midi": 73,
      "hit": false,
      "t": 145399.93941666294,
      "d": 82.14282291664858,
      "v": 62
    },
    {
      "midi": 75,
      "hit": false,
      "t": 145478.51081249624,
      "d": 42.857125000009546,
      "v": 71
    },
    {
      "midi": 68,
      "hit": false,
      "t": 145478.51081249624,
      "d": 149.99993749998976,
      "v": 53
    },
    {
      "midi": 77,
      "hit": false,
      "t": 145560.65363541292,
      "d": 57.14283333331696,
      "v": 78
    },
    {
      "midi": 60,
      "hit": false,
      "t": 145607.08218749624,
      "d": 149.99993749996065,
      "v": 34
    },
    {
      "midi": 78,
      "hit": false,
      "t": 145635.6536041629,
      "d": 85.71424999998999,
      "v": 72
    },
    {
      "midi": 80,
      "hit": false,
      "t": 145714.22499999622,
      "d": 99.9999583333265,
      "v": 80
    },
    {
      "midi": 82,
      "hit": false,
      "t": 145785.65354166288,
      "d": 46.42855208335095,
      "v": 72
    },
    {
      "midi": 55,
      "hit": false,
      "t": 145789.22496874622,
      "d": 221.42847916664323,
      "v": 69
    },
    {
      "midi": 84,
      "hit": false,
      "t": 145871.36779166287,
      "d": 71.42854166665347,
      "v": 82
    },
    {
      "midi": 85,
      "hit": false,
      "t": 145935.65347916287,
      "d": 96.4285312499851,
      "v": 75
    },
    {
      "midi": 66,
      "hit": false,
      "t": 145946.36776041286,
      "d": 274.9998854166479,
      "v": 57
    },
    {
      "midi": 87,
      "hit": false,
      "t": 146021.36772916286,
      "d": 46.42855208332185,
      "v": 75
    },
    {
      "midi": 56,
      "hit": false,
      "t": 146082.0819895795,
      "d": 139.28565624999464,
      "v": 73
    },
    {
      "midi": 89,
      "hit": false,
      "t": 146099.9391249962,
      "d": 85.71424999998999,
      "v": 80
    },
    {
      "midi": 90,
      "hit": false,
      "t": 146171.36766666285,
      "d": 64.28568749999977,
      "v": 80
    },
    {
      "midi": 58,
      "hit": false,
      "t": 146246.36763541284,
      "d": 307.1427291666332,
      "v": 76
    },
    {
      "midi": 96,
      "hit": false,
      "t": 146253.51048957952,
      "d": 78.57139583333628,
      "v": 84
    },
    {
      "midi": 94,
      "hit": false,
      "t": 146317.79617707952,
      "d": 92.85710416661459,
      "v": 74
    },
    {
      "midi": 92,
      "hit": false,
      "t": 146396.36757291283,
      "d": 135.71422916665324,
      "v": 90
    },
    {
      "midi": 66,
      "hit": false,
      "t": 146403.51042707948,
      "d": 310.7141562499746,
      "v": 60
    },
    {
      "midi": 90,
      "hit": false,
      "t": 146474.93896874614,
      "d": 78.57139583333628,
      "v": 77
    },
    {
      "midi": 89,
      "hit": false,
      "t": 146553.51036457947,
      "d": 49.99997916666325,
      "v": 82
    },
    {
      "midi": 61,
      "hit": false,
      "t": 146557.08179166281,
      "d": 60.71426041665836,
      "v": 78
    },
    {
      "midi": 87,
      "hit": false,
      "t": 146624.93890624613,
      "d": 71.42854166665347,
      "v": 71
    },
    {
      "midi": 89,
      "hit": false,
      "t": 146714.22458332946,
      "d": 71.42854166668258,
      "v": 82
    },
    {
      "midi": 60,
      "hit": false,
      "t": 146728.5102916628,
      "d": 232.14276041663834,
      "v": 73
    },
    {
      "midi": 87,
      "hit": false,
      "t": 146789.22455207948,
      "d": 99.9999583332974,
      "v": 76
    },
    {
      "midi": 85,
      "hit": false,
      "t": 146867.7959479128,
      "d": 67.85711458331207,
      "v": 73
    },
    {
      "midi": 70,
      "hit": false,
      "t": 146867.7959479128,
      "d": 274.999885416677,
      "v": 55
    },
    {
      "midi": 84,
      "hit": false,
      "t": 146946.3673437461,
      "d": 46.42855208335095,
      "v": 77
    },
    {
      "midi": 66,
      "hit": false,
      "t": 147007.08160416278,
      "d": 160.71421874998487,
      "v": 42
    },
    {
      "midi": 82,
      "hit": false,
      "t": 147021.36731249612,
      "d": 82.14282291667769,
      "v": 60
    },
    {
      "midi": 84,
      "hit": false,
      "t": 147103.5101354128,
      "d": 67.85711458331207,
      "v": 74
    },
    {
      "midi": 82,
      "hit": false,
      "t": 147171.3672499961,
      "d": 92.8571041667019,
      "v": 62
    },
    {
      "midi": 60,
      "hit": false,
      "t": 147174.93867707945,
      "d": 307.1427291666914,
      "v": 69
    },
    {
      "midi": 80,
      "hit": false,
      "t": 147246.36721874613,
      "d": 117.85709375000442,
      "v": 76
    },
    {
      "midi": 78,
      "hit": false,
      "t": 147324.93861457947,
      "d": 67.85711458334117,
      "v": 73
    },
    {
      "midi": 70,
      "hit": false,
      "t": 147335.65289582947,
      "d": 228.57133333332604,
      "v": 49
    },
    {
      "midi": 77,
      "hit": false,
      "t": 147399.93858332947,
      "d": 64.28568749999977,
      "v": 78
    },
    {
      "midi": 75,
      "hit": false,
      "t": 147474.93855207946,
      "d": 74.99996875002398,
      "v": 67
    },
    {
      "midi": 66,
      "hit": false,
      "t": 147478.5099791628,
      "d": 139.28565624999464,
      "v": 37
    },
    {
      "midi": 77,
      "hit": false,
      "t": 147557.08137499614,
      "d": 89.2856770833314,
      "v": 76
    },
    {
      "midi": 61,
      "hit": false,
      "t": 147628.5099166628,
      "d": 167.85707291666768,
      "v": 72
    },
    {
      "midi": 75,
      "hit": false,
      "t": 147632.08134374613,
      "d": 128.57137499999953,
      "v": 74
    },
    {
      "midi": 73,
      "hit": false,
      "t": 147710.65273957944,
      "d": 64.28568750002887,
      "v": 71
    },
    {
      "midi": 72,
      "hit": false,
      "t": 147785.65270832946,
      "d": 57.14283333331696,
      "v": 78
    },
    {
      "midi": 66,
      "hit": false,
      "t": 147789.2241354128,
      "d": 264.2856041666528,
      "v": 51
    },
    {
      "midi": 73,
      "hit": false,
      "t": 147857.08124999612,
      "d": 96.4285312500142,
      "v": 68
    },
    {
      "midi": 72,
      "hit": false,
      "t": 147939.2240729128,
      "d": 71.42854166668258,
      "v": 69
    },
    {
      "midi": 62,
      "hit": false,
      "t": 147942.79549999614,
      "d": 132.14280208331184,
      "v": 74
    },
    {
      "midi": 70,
      "hit": false,
      "t": 148017.79546874613,
      "d": 42.85712499998044,
      "v": 58
    },
    {
      "midi": 66,
      "hit": false,
      "t": 148096.36686457944,
      "d": 339.28557291661855,
      "v": 34
    },
    {
      "midi": 63,
      "hit": false,
      "t": 148107.08114582943,
      "d": 332.14271874996484,
      "v": 74
    },
    {
      "midi": 68,
      "hit": false,
      "t": 148114.2239999961,
      "d": 53.57140624997555,
      "v": 73
    },
    {
      "midi": 69,
      "hit": false,
      "t": 148196.36682291274,
      "d": 82.14282291664858,
      "v": 78
    },
    {
      "midi": 81,
      "hit": false,
      "t": 148271.36679166273,
      "d": 46.42855208332185,
      "v": 81
    },
    {
      "midi": 78,
      "hit": false,
      "t": 148346.36676041273,
      "d": 64.28568749999977,
      "v": 80
    },
    {
      "midi": 75,
      "hit": false,
      "t": 148421.36672916272,
      "d": 139.28565625002375,
      "v": 79
    },
    {
      "midi": 72,
      "hit": false,
      "t": 148496.36669791274,
      "d": 67.85711458334117,
      "v": 78
    },
    {
      "midi": 69,
      "hit": false,
      "t": 148571.36666666274,
      "d": 57.14283333334606,
      "v": 77
    },
    {
      "midi": 66,
      "hit": false,
      "t": 148646.36663541276,
      "d": 64.28568749999977,
      "v": 76
    },
    {
      "midi": 63,
      "hit": false,
      "t": 148721.36660416276,
      "d": 39.28569791666814,
      "v": 75
    },
    {
      "midi": 60,
      "hit": false,
      "t": 148796.36657291275,
      "d": 64.28568749999977,
      "v": 74
    },
    {
      "midi": 57,
      "hit": false,
      "t": 148874.9379687461,
      "d": 53.57140625000466,
      "v": 73
    },
    {
      "midi": 54,
      "hit": false,
      "t": 148953.50936457943,
      "d": 78.57139583333628,
      "v": 72
    },
    {
      "midi": 32,
      "hit": false,
      "t": 149028.50933332942,
      "d": 96.4285312499851,
      "v": 64
    },
    {
      "midi": 51,
      "hit": false,
      "t": 149032.08076041276,
      "d": 92.8571041666437,
      "v": 71
    },
    {
      "midi": 44,
      "hit": false,
      "t": 149196.3664062461,
      "d": 71.42854166665347,
      "v": 50
    },
    {
      "midi": 51,
      "hit": false,
      "t": 149278.50922916274,
      "d": 71.42854166668258,
      "v": 56
    },
    {
      "midi": 68,
      "hit": false,
      "t": 149346.36634374608,
      "d": 128.57137499999953,
      "v": 65
    },
    {
      "midi": 60,
      "hit": false,
      "t": 149360.65205207941,
      "d": 107.14281250000931,
      "v": 53
    },
    {
      "midi": 44,
      "hit": false,
      "t": 149371.3663333294,
      "d": 53.57140625000466,
      "v": 45
    },
    {
      "midi": 51,
      "hit": false,
      "t": 149439.22344791275,
      "d": 71.42854166665347,
      "v": 46
    },
    {
      "midi": 61,
      "hit": false,
      "t": 149517.79484374606,
      "d": 121.42852083328762,
      "v": 64
    },
    {
      "midi": 69,
      "hit": false,
      "t": 149521.3662708294,
      "d": 128.57137499994133,
      "v": 79
    },
    {
      "midi": 43,
      "hit": false,
      "t": 149532.0805520794,
      "d": 71.42854166662437,
      "v": 58
    },
    {
      "midi": 51,
      "hit": false,
      "t": 149610.65194791267,
      "d": 64.28568749999977,
      "v": 48
    },
    {
      "midi": 68,
      "hit": false,
      "t": 149678.509062496,
      "d": 74.99996874999488,
      "v": 65
    },
    {
      "midi": 60,
      "hit": false,
      "t": 149685.65191666267,
      "d": 57.14283333334606,
      "v": 60
    },
    {
      "midi": 44,
      "hit": false,
      "t": 149689.223343746,
      "d": 49.99997916666325,
      "v": 51
    },
    {
      "midi": 51,
      "hit": false,
      "t": 149760.65188541266,
      "d": 71.42854166665347,
      "v": 54
    },
    {
      "midi": 61,
      "hit": false,
      "t": 149835.65185416266,
      "d": 71.42854166665347,
      "v": 53
    },
    {
      "midi": 67,
      "hit": false,
      "t": 149842.7947083293,
      "d": 71.42854166668258,
      "v": 74
    },
    {
      "midi": 45,
      "hit": false,
      "t": 149857.08041666265,
      "d": 42.857125000009546,
      "v": 56
    },
    {
      "midi": 51,
      "hit": false,
      "t": 149921.36610416265,
      "d": 74.99996874999488,
      "v": 54
    },
    {
      "midi": 44,
      "hit": false,
      "t": 150007.08035416264,
      "d": 67.85711458334117,
      "v": 58
    },
    {
      "midi": 68,
      "hit": false,
      "t": 150007.08035416264,
      "d": 260.7141770833696,
      "v": 73
    },
    {
      "midi": 60,
      "hit": false,
      "t": 150010.65178124598,
      "d": 171.42850000000908,
      "v": 69
    },
    {
      "midi": 51,
      "hit": false,
      "t": 150085.65174999597,
      "d": 60.71426041665836,
      "v": 61
    },
    {
      "midi": 39,
      "hit": false,
      "t": 150164.2231458293,
      "d": 60.714260416687466,
      "v": 56
    },
    {
      "midi": 51,
      "hit": false,
      "t": 150235.651687496,
      "d": 89.2856770833605,
      "v": 58
    },
    {
      "midi": 68,
      "hit": false,
      "t": 150339.2230729127,
      "d": 157.14279166664346,
      "v": 73
    },
    {
      "midi": 44,
      "hit": false,
      "t": 150342.79449999603,
      "d": 71.42854166665347,
      "v": 56
    },
    {
      "midi": 60,
      "hit": false,
      "t": 150342.79449999603,
      "d": 124.99994791662903,
      "v": 69
    },
    {
      "midi": 51,
      "hit": false,
      "t": 150421.36589582934,
      "d": 85.71424999998999,
      "v": 65
    },
    {
      "midi": 61,
      "hit": false,
      "t": 150503.508718746,
      "d": 142.85708333336515,
      "v": 71
    },
    {
      "midi": 69,
      "hit": false,
      "t": 150507.08014582933,
      "d": 160.71421875004307,
      "v": 85
    },
    {
      "midi": 43,
      "hit": false,
      "t": 150524.937281246,
      "d": 67.85711458334117,
      "v": 56
    },
    {
      "midi": 51,
      "hit": false,
      "t": 150589.222968746,
      "d": 71.42854166668258,
      "v": 56
    },
    {
      "midi": 68,
      "hit": false,
      "t": 150657.08008332935,
      "d": 99.99995833338471,
      "v": 76
    },
    {
      "midi": 60,
      "hit": false,
      "t": 150660.6515104127,
      "d": 121.42852083337493,
      "v": 73
    },
    {
      "midi": 44,
      "hit": false,
      "t": 150671.3657916627,
      "d": 57.14283333334606,
      "v": 57
    },
    {
      "midi": 51,
      "hit": false,
      "t": 150746.36576041274,
      "d": 71.42854166668258,
      "v": 63
    },
    {
      "midi": 61,
      "hit": false,
      "t": 150817.79430207942,
      "d": 64.28568749999977,
      "v": 64
    },
    {
      "midi": 67,
      "hit": false,
      "t": 150817.79430207942,
      "d": 71.42854166665347,
      "v": 81
    },
    {
      "midi": 45,
      "hit": false,
      "t": 150835.6514374961,
      "d": 53.57140624997555,
      "v": 60
    },
    {
      "midi": 51,
      "hit": false,
      "t": 150910.65140624606,
      "d": 82.14282291667769,
      "v": 55
    },
    {
      "midi": 68,
      "hit": false,
      "t": 150982.07994791275,
      "d": 99.9999583333265,
      "v": 79
    },
    {
      "midi": 60,
      "hit": false,
      "t": 150989.2228020794,
      "d": 99.99995833335561,
      "v": 68
    },
    {
      "midi": 44,
      "hit": false,
      "t": 150992.79422916274,
      "d": 64.28568749999977,
      "v": 61
    },
    {
      "midi": 51,
      "hit": false,
      "t": 151071.36562499608,
      "d": 53.57140625000466,
      "v": 60
    },
    {
      "midi": 60,
      "hit": false,
      "t": 151142.79416666276,
      "d": 57.142833333287854,
      "v": 70
    },
    {
      "midi": 39,
      "hit": false,
      "t": 151160.6513020794,
      "d": 24.999989583331626,
      "v": 53
    },
    {
      "midi": 51,
      "hit": false,
      "t": 151210.65128124604,
      "d": 64.28568750002887,
      "v": 55
    },
    {
      "midi": 63,
      "hit": false,
      "t": 151232.07984374606,
      "d": 71.42854166665347,
      "v": 71
    },
    {
      "midi": 44,
      "hit": false,
      "t": 151289.2226770794,
      "d": 57.14283333331696,
      "v": 46
    },
    {
      "midi": 68,
      "hit": false,
      "t": 151296.36553124606,
      "d": 99.9999583333265,
      "v": 74
    },
    {
      "midi": 51,
      "hit": false,
      "t": 151357.07979166272,
      "d": 60.714260416687466,
      "v": 62
    },
    {
      "midi": 70,
      "hit": false,
      "t": 151364.22264582937,
      "d": 35.71427083335584,
      "v": 77
    },
    {
      "midi": 72,
      "hit": false,
      "t": 151442.79404166274,
      "d": 46.42855208332185,
      "v": 80
    },
    {
      "midi": 39,
      "hit": false,
      "t": 151449.9368958294,
      "d": 53.57140625000466,
      "v": 49
    },
    {
      "midi": 51,
      "hit": false,
      "t": 151499.93687499606,
      "d": 78.57139583336539,
      "v": 64
    },
    {
      "midi": 75,
      "hit": false,
      "t": 151521.36543749608,
      "d": 114.28566666669212,
      "v": 77
    },
    {
      "midi": 44,
      "hit": false,
      "t": 151589.22255207942,
      "d": 57.14283333334606,
      "v": 69
    },
    {
      "midi": 80,
      "hit": false,
      "t": 151592.79397916276,
      "d": 89.2856770833314,
      "v": 75
    },
    {
      "midi": 82,
      "hit": false,
      "t": 151653.50823957942,
      "d": 32.142843750014435,
      "v": 73
    },
    {
      "midi": 51,
      "hit": false,
      "t": 151657.07966666276,
      "d": 64.28568749999977,
      "v": 76
    },
    {
      "midi": 84,
      "hit": false,
      "t": 151735.6510624961,
      "d": 60.71426041665836,
      "v": 90
    },
    {
      "midi": 39,
      "hit": false,
      "t": 151746.3653437461,
      "d": 64.28568749999977,
      "v": 70
    },
    {
      "midi": 51,
      "hit": false,
      "t": 151796.36532291275,
      "d": 60.71426041665836,
      "v": 75
    },
    {
      "midi": 96,
      "hit": false,
      "t": 151817.79388541274,
      "d": 57.14283333334606,
      "v": 96
    },
    {
      "midi": 44,
      "hit": false,
      "t": 151885.65099999608,
      "d": 64.28568749999977,
      "v": 81
    },
    {
      "midi": 94,
      "hit": false,
      "t": 151889.22242707942,
      "d": 74.99996874996577,
      "v": 81
    },
    {
      "midi": 51,
      "hit": false,
      "t": 151957.07954166274,
      "d": 60.71426041665836,
      "v": 81
    },
    {
      "midi": 92,
      "hit": false,
      "t": 151964.2223958294,
      "d": 124.99994791665813,
      "v": 86
    },
    {
      "midi": 87,
      "hit": false,
      "t": 152039.2223645794,
      "d": 74.99996874999488,
      "v": 79
    },
    {
      "midi": 39,
      "hit": false,
      "t": 152042.79379166273,
      "d": 57.14283333331696,
      "v": 73
    },
    {
      "midi": 51,
      "hit": false,
      "t": 152103.50805207939,
      "d": 64.28568749999977,
      "v": 73
    },
    {
      "midi": 84,
      "hit": false,
      "t": 152114.22233332938,
      "d": 35.71427083332674,
      "v": 82
    },
    {
      "midi": 82,
      "hit": false,
      "t": 152192.79372916272,
      "d": 53.57140625000466,
      "v": 76
    },
    {
      "midi": 44,
      "hit": false,
      "t": 152192.79372916272,
      "d": 57.14283333334606,
      "v": 71
    },
    {
      "midi": 51,
      "hit": false,
      "t": 152249.93656249606,
      "d": 71.42854166665347,
      "v": 76
    },
    {
      "midi": 80,
      "hit": false,
      "t": 152271.36512499605,
      "d": 57.14283333331696,
      "v": 78
    },
    {
      "midi": 39,
      "hit": false,
      "t": 152346.36509374605,
      "d": 71.42854166665347,
      "v": 71
    },
    {
      "midi": 75,
      "hit": false,
      "t": 152346.36509374605,
      "d": 71.42854166665347,
      "v": 80
    },
    {
      "midi": 51,
      "hit": false,
      "t": 152407.0793541627,
      "d": 67.85711458331207,
      "v": 74
    },
    {
      "midi": 72,
      "hit": false,
      "t": 152424.93648957936,
      "d": 39.28569791666814,
      "v": 82
    },
    {
      "midi": 44,
      "hit": false,
      "t": 152496.365031246,
      "d": 67.85711458334117,
      "v": 73
    },
    {
      "midi": 70,
      "hit": false,
      "t": 152503.50788541266,
      "d": 57.14283333334606,
      "v": 81
    },
    {
      "midi": 51,
      "hit": false,
      "t": 152564.22214582935,
      "d": 35.71427083332674,
      "v": 73
    },
    {
      "midi": 68,
      "hit": false,
      "t": 152585.65070832934,
      "d": 74.99996874999488,
      "v": 73
    },
    {
      "midi": 63,
      "hit": false,
      "t": 152671.36495832933,
      "d": 78.57139583333628,
      "v": 83
    },
    {
      "midi": 44,
      "hit": false,
      "t": 152678.507812496,
      "d": 42.85712499998044,
      "v": 83
    },
    {
      "midi": 32,
      "hit": false,
      "t": 152689.222093746,
      "d": 46.42855208332185,
      "v": 76
    },
    {
      "midi": 60,
      "hit": false,
      "t": 152753.507781246,
      "d": 57.14283333334606,
      "v": 85
    },
    {
      "midi": 61,
      "hit": false,
      "t": 152871.364874996,
      "d": 57.142833333375165,
      "v": 76
    },
    {
      "midi": 57,
      "hit": false,
      "t": 152874.93630207935,
      "d": 39.285697916697245,
      "v": 83
    },
    {
      "midi": 69,
      "hit": false,
      "t": 152874.93630207935,
      "d": 82.14282291670679,
      "v": 100
    },
    {
      "midi": 64,
      "hit": false,
      "t": 152878.5077291627,
      "d": 39.285697916697245,
      "v": 82
    },
    {
      "midi": 43,
      "hit": false,
      "t": 152882.07915624604,
      "d": 49.999979166692356,
      "v": 90
    },
    {
      "midi": 31,
      "hit": false,
      "t": 152885.65058332938,
      "d": 35.71427083335584,
      "v": 78
    },
    {
      "midi": 69,
      "hit": false,
      "t": 153171.36474999605,
      "d": 135.71422916665324,
      "v": 82
    },
    {
      "midi": 64,
      "hit": false,
      "t": 153178.5076041627,
      "d": 114.28566666666302,
      "v": 65
    },
    {
      "midi": 61,
      "hit": false,
      "t": 153182.07903124604,
      "d": 149.99993749998976,
      "v": 62
    },
    {
      "midi": 55,
      "hit": false,
      "t": 153182.07903124604,
      "d": 664.2854374999588,
      "v": 76
    },
    {
      "midi": 71,
      "hit": false,
      "t": 153332.07896874603,
      "d": 132.14280208334094,
      "v": 80
    },
    {
      "midi": 62,
      "hit": false,
      "t": 153335.65039582938,
      "d": 153.57136458333116,
      "v": 78
    },
    {
      "midi": 67,
      "hit": false,
      "t": 153339.22182291272,
      "d": 49.99997916666325,
      "v": 66
    },
    {
      "midi": 69,
      "hit": false,
      "t": 153478.5074791627,
      "d": 110.71423958332161,
      "v": 88
    },
    {
      "midi": 64,
      "hit": false,
      "t": 153485.65033332937,
      "d": 124.99994791665813,
      "v": 67
    },
    {
      "midi": 61,
      "hit": false,
      "t": 153492.79318749605,
      "d": 121.42852083331672,
      "v": 69
    },
    {
      "midi": 74,
      "hit": false,
      "t": 153632.07884374604,
      "d": 110.71423958329251,
      "v": 88
    },
    {
      "midi": 59,
      "hit": false,
      "t": 153632.07884374604,
      "d": 132.14280208328273,
      "v": 58
    },
    {
      "midi": 67,
      "hit": false,
      "t": 153639.2216979127,
      "d": 92.8571041666437,
      "v": 63
    },
    {
      "midi": 73,
      "hit": false,
      "t": 153785.65020832932,
      "d": 96.4285312500142,
      "v": 78
    },
    {
      "midi": 57,
      "hit": false,
      "t": 153789.22163541266,
      "d": 92.8571041666728,
      "v": 57
    },
    {
      "midi": 64,
      "hit": false,
      "t": 153796.36448957934,
      "d": 60.71426041665836,
      "v": 63
    },
    {
      "midi": 69,
      "hit": false,
      "t": 154067.79294791268,
      "d": 128.57137500002864,
      "v": 82
    },
    {
      "midi": 64,
      "hit": false,
      "t": 154071.36437499602,
      "d": 132.14280208334094,
      "v": 64
    },
    {
      "midi": 61,
      "hit": false,
      "t": 154074.93580207936,
      "d": 139.28565624999464,
      "v": 64
    },
    {
      "midi": 55,
      "hit": false,
      "t": 154074.93580207936,
      "d": 596.4283229166467,
      "v": 70
    },
    {
      "midi": 71,
      "hit": false,
      "t": 154217.7928854127,
      "d": 132.14280208334094,
      "v": 74
    },
    {
      "midi": 67,
      "hit": false,
      "t": 154224.93573957935,
      "d": 89.2856770833314,
      "v": 67
    },
    {
      "midi": 62,
      "hit": false,
      "t": 154224.93573957935,
      "d": 121.42852083334583,
      "v": 64
    },
    {
      "midi": 61,
      "hit": false,
      "t": 154357.0785416627,
      "d": 117.85709374997532,
      "v": 64
    },
    {
      "midi": 69,
      "hit": false,
      "t": 154360.64996874603,
      "d": 117.85709374997532,
      "v": 83
    },
    {
      "midi": 64,
      "hit": false,
      "t": 154367.79282291268,
      "d": 107.14281249998021,
      "v": 67
    },
    {
      "midi": 59,
      "hit": false,
      "t": 154507.07847916268,
      "d": 132.14280208331184,
      "v": 44
    },
    {
      "midi": 74,
      "hit": false,
      "t": 154510.64990624602,
      "d": 103.57138541666791,
      "v": 82
    },
    {
      "midi": 67,
      "hit": false,
      "t": 154517.79276041267,
      "d": 107.14281250000931,
      "v": 66
    },
    {
      "midi": 73,
      "hit": false,
      "t": 154671.364124996,
      "d": 49.99997916666325,
      "v": 72
    },
    {
      "midi": 57,
      "hit": false,
      "t": 154674.93555207935,
      "d": 21.42856249999022,
      "v": 63
    },
    {
      "midi": 64,
      "hit": false,
      "t": 154685.64983332934,
      "d": 110.71423958332161,
      "v": 65
    },
    {
      "midi": 63,
      "hit": false,
      "t": 154839.22119791267,
      "d": 42.857125000009546,
      "v": 50
    },
    {
      "midi": 31,
      "hit": false,
      "t": 154849.93547916267,
      "d": 42.857125000009546,
      "v": 56
    },
    {
      "midi": 64,
      "hit": false,
      "t": 154910.64973957936,
      "d": 49.99997916666325,
      "v": 59
    },
    {
      "midi": 45,
      "hit": false,
      "t": 154917.792593746,
      "d": 42.857125000009546,
      "v": 57
    },
    {
      "midi": 33,
      "hit": false,
      "t": 154996.36398957935,
      "d": 53.57140625000466,
      "v": 55
    },
    {
      "midi": 69,
      "hit": false,
      "t": 154999.9354166627,
      "d": 71.42854166668258,
      "v": 70
    },
    {
      "midi": 73,
      "hit": false,
      "t": 155067.79253124603,
      "d": 28.57141666667303,
      "v": 69
    },
    {
      "midi": 45,
      "hit": false,
      "t": 155067.79253124603,
      "d": 35.71427083332674,
      "v": 63
    },
    {
      "midi": 31,
      "hit": false,
      "t": 155139.22107291268,
      "d": 46.42855208335095,
      "v": 66
    },
    {
      "midi": 76,
      "hit": false,
      "t": 155142.79249999602,
      "d": 53.57140625000466,
      "v": 83
    },
    {
      "midi": 45,
      "hit": false,
      "t": 155210.64961457936,
      "d": 49.99997916666325,
      "v": 65
    },
    {
      "midi": 81,
      "hit": false,
      "t": 155224.9353229127,
      "d": 74.99996874999488,
      "v": 77
    },
    {
      "midi": 33,
      "hit": false,
      "t": 155289.2210104127,
      "d": 64.28568749999977,
      "v": 69
    },
    {
      "midi": 85,
      "hit": false,
      "t": 155292.79243749604,
      "d": 32.14284374998533,
      "v": 77
    },
    {
      "midi": 45,
      "hit": false,
      "t": 155357.07812499604,
      "d": 57.14283333334606,
      "v": 82
    },
    {
      "midi": 88,
      "hit": false,
      "t": 155360.64955207938,
      "d": 99.9999583333265,
      "v": 93
    },
    {
      "midi": 31,
      "hit": false,
      "t": 155439.22094791272,
      "d": 49.99997916666325,
      "v": 79
    },
    {
      "midi": 93,
      "hit": false,
      "t": 155439.22094791272,
      "d": 67.85711458334117,
      "v": 96
    },
    {
      "midi": 45,
      "hit": false,
      "t": 155503.50663541272,
      "d": 49.99997916666325,
      "v": 79
    },
    {
      "midi": 98,
      "hit": false,
      "t": 155517.79234374606,
      "d": 64.28568749999977,
      "v": 96
    },
    {
      "midi": 33,
      "hit": false,
      "t": 155585.6494583294,
      "d": 67.85711458334117,
      "v": 74
    },
    {
      "midi": 97,
      "hit": false,
      "t": 155585.6494583294,
      "d": 146.42851041667745,
      "v": 83
    },
    {
      "midi": 34,
      "hit": false,
      "t": 155596.3637395794,
      "d": 28.57141666667303,
      "v": 43
    },
    {
      "midi": 45,
      "hit": false,
      "t": 155664.22085416273,
      "d": 49.99997916666325,
      "v": 77
    },
    {
      "midi": 93,
      "hit": false,
      "t": 155671.3637083294,
      "d": 64.28568750002887,
      "v": 86
    },
    {
      "midi": 88,
      "hit": false,
      "t": 155742.79224999607,
      "d": 46.42855208332185,
      "v": 88
    },
    {
      "midi": 31,
      "hit": false,
      "t": 155749.93510416272,
      "d": 49.99997916666325,
      "v": 71
    },
    {
      "midi": 45,
      "hit": false,
      "t": 155814.22079166272,
      "d": 53.57140625000466,
      "v": 66
    },
    {
      "midi": 85,
      "hit": false,
      "t": 155817.79221874606,
      "d": 74.99996874999488,
      "v": 86
    },
    {
      "midi": 33,
      "hit": false,
      "t": 155889.22076041272,
      "d": 64.28568749999977,
      "v": 74
    },
    {
      "midi": 81,
      "hit": false,
      "t": 155899.9350416627,
      "d": 60.714260416687466,
      "v": 85
    },
    {
      "midi": 45,
      "hit": false,
      "t": 155957.07787499606,
      "d": 53.57140625000466,
      "v": 71
    },
    {
      "midi": 76,
      "hit": false,
      "t": 155974.93501041274,
      "d": 42.85712499998044,
      "v": 82
    },
    {
      "midi": 31,
      "hit": false,
      "t": 156042.79212499605,
      "d": 57.14283333331696,
      "v": 82
    },
    {
      "midi": 73,
      "hit": false,
      "t": 156049.9349791627,
      "d": 67.85711458334117,
      "v": 85
    },
    {
      "midi": 45,
      "hit": false,
      "t": 156114.2206666627,
      "d": 57.14283333334606,
      "v": 81
    },
    {
      "midi": 69,
      "hit": false,
      "t": 156128.50637499604,
      "d": 57.14283333334606,
      "v": 85
    },
    {
      "midi": 33,
      "hit": false,
      "t": 156196.36348957938,
      "d": 71.42854166665347,
      "v": 78
    },
    {
      "midi": 64,
      "hit": false,
      "t": 156203.50634374603,
      "d": 46.42855208332185,
      "v": 76
    },
    {
      "midi": 45,
      "hit": false,
      "t": 156274.9348854127,
      "d": 53.57140625000466,
      "v": 88
    },
    {
      "midi": 61,
      "hit": false,
      "t": 156285.64916666268,
      "d": 64.28568750002887,
      "v": 68
    },
    {
      "midi": 62,
      "hit": false,
      "t": 156303.50630207936,
      "d": 42.857125000009546,
      "v": 37
    },
    {
      "midi": 31,
      "hit": false,
      "t": 156364.22056249605,
      "d": 67.85711458334117,
      "v": 66
    },
    {
      "midi": 57,
      "hit": false,
      "t": 156367.7919895794,
      "d": 74.99996874999488,
      "v": 74
    },
    {
      "midi": 61,
      "hit": false,
      "t": 156446.36338541273,
      "d": 85.71424999998999,
      "v": 8
    },
    {
      "midi": 52,
      "hit": false,
      "t": 156449.93481249607,
      "d": 60.71426041665836,
      "v": 77
    },
    {
      "midi": 58,
      "hit": false,
      "t": 156564.22047916273,
      "d": 74.99996875002398,
      "v": 85
    },
    {
      "midi": 52,
      "hit": false,
      "t": 156571.36333332938,
      "d": 21.428562500019325,
      "v": 78
    },
    {
      "midi": 42,
      "hit": false,
      "t": 156571.36333332938,
      "d": 42.85712500003865,
      "v": 85
    },
    {
      "midi": 30,
      "hit": false,
      "t": 156574.93476041273,
      "d": 35.71427083335584,
      "v": 78
    },
    {
      "midi": 70,
      "hit": false,
      "t": 156864.22035416277,
      "d": 128.57137500002864,
      "v": 83
    },
    {
      "midi": 64,
      "hit": false,
      "t": 156878.5060624961,
      "d": 110.71423958335072,
      "v": 58
    },
    {
      "midi": 61,
      "hit": false,
      "t": 156882.07748957945,
      "d": 135.71422916668234,
      "v": 65
    },
    {
      "midi": 54,
      "hit": false,
      "t": 156885.6489166628,
      "d": 667.8568645833002,
      "v": 57
    },
    {
      "midi": 71,
      "hit": false,
      "t": 157014.2202916628,
      "d": 121.42852083331672,
      "v": 82
    },
    {
      "midi": 62,
      "hit": false,
      "t": 157024.93457291278,
      "d": 121.42852083331672,
      "v": 70
    },
    {
      "midi": 67,
      "hit": false,
      "t": 157028.50599999612,
      "d": 21.42856249999022,
      "v": 63
    },
    {
      "midi": 70,
      "hit": false,
      "t": 157142.79166666276,
      "d": 103.57138541666791,
      "v": 80
    },
    {
      "midi": 61,
      "hit": false,
      "t": 157157.0773749961,
      "d": 103.57138541666791,
      "v": 68
    },
    {
      "midi": 64,
      "hit": false,
      "t": 157160.64880207943,
      "d": 39.28569791666814,
      "v": 68
    },
    {
      "midi": 74,
      "hit": false,
      "t": 157282.07732291275,
      "d": 99.9999583333265,
      "v": 90
    },
    {
      "midi": 59,
      "hit": false,
      "t": 157292.79160416275,
      "d": 128.57137499999953,
      "v": 59
    },
    {
      "midi": 67,
      "hit": false,
      "t": 157296.3630312461,
      "d": 46.42855208332185,
      "v": 68
    },
    {
      "midi": 73,
      "hit": false,
      "t": 157442.79154166274,
      "d": 121.42852083334583,
      "v": 82
    },
    {
      "midi": 58,
      "hit": false,
      "t": 157442.79154166274,
      "d": 124.99994791668723,
      "v": 56
    },
    {
      "midi": 64,
      "hit": false,
      "t": 157457.07724999607,
      "d": 42.857125000009546,
      "v": 62
    },
    {
      "midi": 70,
      "hit": false,
      "t": 157721.36285416275,
      "d": 128.57137499999953,
      "v": 90
    },
    {
      "midi": 64,
      "hit": false,
      "t": 157732.07713541275,
      "d": 117.85709375000442,
      "v": 68
    },
    {
      "midi": 61,
      "hit": false,
      "t": 157732.07713541275,
      "d": 142.85708333333605,
      "v": 73
    },
    {
      "midi": 54,
      "hit": false,
      "t": 157732.07713541275,
      "d": 682.1425729166367,
      "v": 65
    },
    {
      "midi": 71,
      "hit": false,
      "t": 157871.36279166274,
      "d": 132.14280208331184,
      "v": 82
    },
    {
      "midi": 67,
      "hit": false,
      "t": 157882.07707291277,
      "d": 35.71427083332674,
      "v": 69
    },
    {
      "midi": 62,
      "hit": false,
      "t": 157882.07707291277,
      "d": 132.14280208328273,
      "v": 77
    },
    {
      "midi": 70,
      "hit": false,
      "t": 158003.50559374606,
      "d": 128.57137499999953,
      "v": 79
    },
    {
      "midi": 64,
      "hit": false,
      "t": 158014.21987499605,
      "d": 53.57140625000466,
      "v": 66
    },
    {
      "midi": 61,
      "hit": false,
      "t": 158014.21987499605,
      "d": 107.14281250000931,
      "v": 60
    },
    {
      "midi": 59,
      "hit": false,
      "t": 158153.50553124605,
      "d": 103.57138541666791,
      "v": 52
    },
    {
      "midi": 74,
      "hit": false,
      "t": 158157.0769583294,
      "d": 107.14281249998021,
      "v": 85
    },
    {
      "midi": 67,
      "hit": false,
      "t": 158164.21981249604,
      "d": 57.14283333334606,
      "v": 60
    },
    {
      "midi": 73,
      "hit": false,
      "t": 158307.07689582938,
      "d": 117.85709375000442,
      "v": 83
    },
    {
      "midi": 58,
      "hit": false,
      "t": 158314.21974999603,
      "d": 96.4285312500142,
      "v": 46
    },
    {
      "midi": 64,
      "hit": false,
      "t": 158321.3626041627,
      "d": 53.57140624997555,
      "v": 65
    },
    {
      "midi": 70,
      "hit": false,
      "t": 158589.21963541268,
      "d": 132.14280208331184,
      "v": 86
    },
    {
      "midi": 61,
      "hit": false,
      "t": 158603.50534374602,
      "d": 92.8571041666437,
      "v": 64
    },
    {
      "midi": 64,
      "hit": false,
      "t": 158603.50534374602,
      "d": 103.5713854166388,
      "v": 65
    },
    {
      "midi": 49,
      "hit": false,
      "t": 158607.07677082936,
      "d": 53.57140624997555,
      "v": 60
    },
    {
      "midi": 71,
      "hit": false,
      "t": 158749.93385416266,
      "d": 128.57137499997043,
      "v": 83
    },
    {
      "midi": 67,
      "hit": false,
      "t": 158757.07670832932,
      "d": 57.14283333331696,
      "v": 72
    },
    {
      "midi": 62,
      "hit": false,
      "t": 158764.21956249597,
      "d": 60.71426041665836,
      "v": 75
    },
    {
      "midi": 50,
      "hit": false,
      "t": 158767.7909895793,
      "d": 57.14283333331696,
      "v": 71
    },
    {
      "midi": 70,
      "hit": false,
      "t": 158896.36236457928,
      "d": 92.8571041666728,
      "v": 77
    },
    {
      "midi": 64,
      "hit": false,
      "t": 158903.50521874594,
      "d": 46.42855208335095,
      "v": 71
    },
    {
      "midi": 61,
      "hit": false,
      "t": 158914.21949999593,
      "d": 46.42855208335095,
      "v": 73
    },
    {
      "midi": 49,
      "hit": false,
      "t": 158921.36235416261,
      "d": 89.2856770833314,
      "v": 69
    },
    {
      "midi": 59,
      "hit": false,
      "t": 159035.64802082928,
      "d": 39.28569791663904,
      "v": 63
    },
    {
      "midi": 67,
      "hit": false,
      "t": 159035.64802082928,
      "d": 42.85712499998044,
      "v": 79
    },
    {
      "midi": 47,
      "hit": false,
      "t": 159035.64802082928,
      "d": 49.99997916663415,
      "v": 65
    },
    {
      "midi": 74,
      "hit": false,
      "t": 159035.64802082928,
      "d": 74.99996874996577,
      "v": 89
    },
    {
      "midi": 67,
      "hit": false,
      "t": 159189.2193854126,
      "d": 42.85712499998044,
      "v": 76
    },
    {
      "midi": 47,
      "hit": false,
      "t": 159189.2193854126,
      "d": 49.99997916663415,
      "v": 72
    },
    {
      "midi": 59,
      "hit": false,
      "t": 159189.2193854126,
      "d": 57.142833333287854,
      "v": 72
    },
    {
      "midi": 74,
      "hit": false,
      "t": 159189.2193854126,
      "d": 89.28567708330229,
      "v": 93
    },
    {
      "midi": 58,
      "hit": false,
      "t": 159339.21932291257,
      "d": 28.57141666667303,
      "v": 78
    },
    {
      "midi": 46,
      "hit": false,
      "t": 159339.21932291257,
      "d": 35.71427083332674,
      "v": 77
    },
    {
      "midi": 64,
      "hit": false,
      "t": 159339.21932291257,
      "d": 39.28569791666814,
      "v": 79
    },
    {
      "midi": 73,
      "hit": false,
      "t": 159339.21932291257,
      "d": 82.14282291667769,
      "v": 92
    },
    {
      "midi": 67,
      "hit": false,
      "t": 159482.0764062459,
      "d": 39.28569791666814,
      "v": 71
    },
    {
      "midi": 38,
      "hit": false,
      "t": 159482.0764062459,
      "d": 42.857125000009546,
      "v": 70
    },
    {
      "midi": 50,
      "hit": false,
      "t": 159482.0764062459,
      "d": 42.857125000009546,
      "v": 80
    },
    {
      "midi": 71,
      "hit": false,
      "t": 159482.0764062459,
      "d": 78.57139583333628,
      "v": 89
    },
    {
      "midi": 38,
      "hit": false,
      "t": 159635.64777082924,
      "d": 39.28569791666814,
      "v": 76
    },
    {
      "midi": 50,
      "hit": false,
      "t": 159635.64777082924,
      "d": 42.857125000009546,
      "v": 86
    },
    {
      "midi": 67,
      "hit": false,
      "t": 159635.64777082924,
      "d": 42.857125000009546,
      "v": 82
    },
    {
      "midi": 71,
      "hit": false,
      "t": 159635.64777082924,
      "d": 92.8571041666728,
      "v": 94
    },
    {
      "midi": 49,
      "hit": false,
      "t": 159782.0762812459,
      "d": 42.85712499998044,
      "v": 90
    },
    {
      "midi": 37,
      "hit": false,
      "t": 159782.0762812459,
      "d": 64.28568749999977,
      "v": 82
    },
    {
      "midi": 70,
      "hit": false,
      "t": 159782.0762812459,
      "d": 92.8571041666728,
      "v": 85
    },
    {
      "midi": 64,
      "hit": false,
      "t": 159792.7905624959,
      "d": 49.99997916666325,
      "v": 69
    },
    {
      "midi": 35,
      "hit": false,
      "t": 159935.64764582927,
      "d": 64.28568749997066,
      "v": 79
    },
    {
      "midi": 67,
      "hit": false,
      "t": 159935.64764582927,
      "d": 74.99996874996577,
      "v": 82
    },
    {
      "midi": 74,
      "hit": false,
      "t": 159935.64764582927,
      "d": 128.57137499997043,
      "v": 96
    },
    {
      "midi": 47,
      "hit": false,
      "t": 159939.21907291262,
      "d": 60.71426041662926,
      "v": 90
    },
    {
      "midi": 64,
      "hit": false,
      "t": 160135.6475624959,
      "d": 178.57135416663368,
      "v": 81
    },
    {
      "midi": 34,
      "hit": false,
      "t": 160135.6475624959,
      "d": 214.28562499998952,
      "v": 84
    },
    {
      "midi": 46,
      "hit": false,
      "t": 160135.6475624959,
      "d": 221.42847916664323,
      "v": 87
    },
    {
      "midi": 73,
      "hit": false,
      "t": 160135.6475624959,
      "d": 228.57133333329693,
      "v": 99
    },
    {
      "midi": 90,
      "hit": false,
      "t": 160639.21878124587,
      "d": 107.14281250000931,
      "v": 99
    },
    {
      "midi": 54,
      "hit": false,
      "t": 160642.7902083292,
      "d": 1060.7138437499234,
      "v": 79
    },
    {
      "midi": 61,
      "hit": false,
      "t": 160642.7902083292,
      "d": 1071.4281249999185,
      "v": 82
    },
    {
      "midi": 64,
      "hit": false,
      "t": 160642.7902083292,
      "d": 1071.4281249999185,
      "v": 93
    },
    {
      "midi": 94,
      "hit": false,
      "t": 160728.5044583292,
      "d": 64.28568749999977,
      "v": 82
    },
    {
      "midi": 91,
      "hit": false,
      "t": 160803.5044270792,
      "d": 60.71426041665836,
      "v": 85
    },
    {
      "midi": 97,
      "hit": false,
      "t": 160878.5043958292,
      "d": 57.14283333334606,
      "v": 77
    },
    {
      "midi": 94,
      "hit": false,
      "t": 160949.93293749588,
      "d": 78.57139583330718,
      "v": 65
    },
    {
      "midi": 91,
      "hit": false,
      "t": 161021.36147916253,
      "d": 60.71426041665836,
      "v": 79
    },
    {
      "midi": 87,
      "hit": false,
      "t": 161096.36144791252,
      "d": 71.42854166665347,
      "v": 72
    },
    {
      "midi": 91,
      "hit": false,
      "t": 161178.50427082917,
      "d": 57.14283333334606,
      "v": 78
    },
    {
      "midi": 88,
      "hit": false,
      "t": 161246.3613854125,
      "d": 57.14283333334606,
      "v": 81
    },
    {
      "midi": 94,
      "hit": false,
      "t": 161321.36135416254,
      "d": 46.42855208332185,
      "v": 73
    },
    {
      "midi": 91,
      "hit": false,
      "t": 161392.7898958292,
      "d": 67.85711458334117,
      "v": 81
    },
    {
      "midi": 88,
      "hit": false,
      "t": 161471.36129166253,
      "d": 49.99997916666325,
      "v": 81
    },
    {
      "midi": 84,
      "hit": false,
      "t": 161542.78983332918,
      "d": 67.85711458331207,
      "v": 81
    },
    {
      "midi": 88,
      "hit": false,
      "t": 161610.6469479125,
      "d": 71.42854166665347,
      "v": 83
    },
    {
      "midi": 85,
      "hit": false,
      "t": 161682.07548957915,
      "d": 64.28568749999977,
      "v": 80
    },
    {
      "midi": 91,
      "hit": false,
      "t": 161764.21831249582,
      "d": 53.57140625000466,
      "v": 84
    },
    {
      "midi": 88,
      "hit": false,
      "t": 161832.07542707917,
      "d": 74.99996874999488,
      "v": 81
    },
    {
      "midi": 85,
      "hit": false,
      "t": 161914.2182499958,
      "d": 57.14283333334606,
      "v": 78
    },
    {
      "midi": 81,
      "hit": false,
      "t": 161989.21821874584,
      "d": 89.2856770833314,
      "v": 76
    },
    {
      "midi": 85,
      "hit": false,
      "t": 162060.6467604125,
      "d": 110.71423958335072,
      "v": 83
    },
    {
      "midi": 82,
      "hit": false,
      "t": 162142.78958332917,
      "d": 67.85711458334117,
      "v": 77
    },
    {
      "midi": 88,
      "hit": false,
      "t": 162214.21812499585,
      "d": 67.85711458334117,
      "v": 79
    },
    {
      "midi": 85,
      "hit": false,
      "t": 162285.64666666253,
      "d": 71.42854166665347,
      "v": 73
    },
    {
      "midi": 82,
      "hit": false,
      "t": 162367.78948957918,
      "d": 57.14283333334606,
      "v": 74
    },
    {
      "midi": 78,
      "hit": false,
      "t": 162446.36088541252,
      "d": 96.4285312499851,
      "v": 82
    },
    {
      "midi": 82,
      "hit": false,
      "t": 162517.78942707917,
      "d": 82.14282291664858,
      "v": 69
    },
    {
      "midi": 79,
      "hit": false,
      "t": 162589.21796874583,
      "d": 53.57140625000466,
      "v": 78
    },
    {
      "midi": 85,
      "hit": false,
      "t": 162657.07508332917,
      "d": 74.99996874999488,
      "v": 76
    },
    {
      "midi": 82,
      "hit": false,
      "t": 162732.07505207916,
      "d": 92.8571041666728,
      "v": 67
    },
    {
      "midi": 79,
      "hit": false,
      "t": 162799.9321666625,
      "d": 46.42855208332185,
      "v": 55
    },
    {
      "midi": 75,
      "hit": false,
      "t": 162857.07499999582,
      "d": 89.2856770833314,
      "v": 77
    },
    {
      "midi": 79,
      "hit": false,
      "t": 162932.07496874582,
      "d": 99.9999583333265,
      "v": 74
    },
    {
      "midi": 76,
      "hit": false,
      "t": 163003.50351041247,
      "d": 60.714260416687466,
      "v": 82
    },
    {
      "midi": 82,
      "hit": false,
      "t": 163078.5034791625,
      "d": 53.57140625000466,
      "v": 71
    },
    {
      "midi": 79,
      "hit": false,
      "t": 163142.7891666625,
      "d": 96.4285312500142,
      "v": 77
    },
    {
      "midi": 76,
      "hit": false,
      "t": 163221.36056249583,
      "d": 49.999979166692356,
      "v": 76
    },
    {
      "midi": 72,
      "hit": false,
      "t": 163289.2176770792,
      "d": 71.42854166665347,
      "v": 79
    },
    {
      "midi": 76,
      "hit": false,
      "t": 163360.64621874585,
      "d": 78.57139583333628,
      "v": 82
    },
    {
      "midi": 73,
      "hit": false,
      "t": 163439.2176145792,
      "d": 74.99996874999488,
      "v": 79
    },
    {
      "midi": 79,
      "hit": false,
      "t": 163517.78901041253,
      "d": 67.85711458334117,
      "v": 84
    },
    {
      "midi": 76,
      "hit": false,
      "t": 163585.64612499587,
      "d": 96.4285312499851,
      "v": 77
    },
    {
      "midi": 73,
      "hit": false,
      "t": 163660.64609374586,
      "d": 67.85711458331207,
      "v": 77
    },
    {
      "midi": 29,
      "hit": false,
      "t": 163739.21748957917,
      "d": 71.42854166665347,
      "v": 68
    },
    {
      "midi": 69,
      "hit": false,
      "t": 163742.7889166625,
      "d": 103.5713854166388,
      "v": 78
    },
    {
      "midi": 73,
      "hit": false,
      "t": 163814.21745832916,
      "d": 114.28566666669212,
      "v": 73
    },
    {
      "midi": 30,
      "hit": false,
      "t": 163878.50314582916,
      "d": 67.85711458337028,
      "v": 70
    },
    {
      "midi": 70,
      "hit": false,
      "t": 163896.36028124584,
      "d": 74.99996875002398,
      "v": 77
    },
    {
      "midi": 76,
      "hit": false,
      "t": 163974.9316770792,
      "d": 71.42854166668258,
      "v": 82
    },
    {
      "midi": 31,
      "hit": false,
      "t": 164039.2173645792,
      "d": 46.42855208335095,
      "v": 72
    },
    {
      "midi": 73,
      "hit": false,
      "t": 164042.78879166255,
      "d": 96.4285312500142,
      "v": 73
    },
    {
      "midi": 70,
      "hit": false,
      "t": 164121.36018749588,
      "d": 57.14283333334606,
      "v": 74
    },
    {
      "midi": 32,
      "hit": false,
      "t": 164178.50302082923,
      "d": 57.14283333334606,
      "v": 74
    },
    {
      "midi": 66,
      "hit": false,
      "t": 164196.3601562459,
      "d": 78.57139583333628,
      "v": 69
    },
    {
      "midi": 70,
      "hit": false,
      "t": 164274.93155207924,
      "d": 85.71424999998999,
      "v": 70
    },
    {
      "midi": 33,
      "hit": false,
      "t": 164328.50295832925,
      "d": 53.57140624997555,
      "v": 76
    },
    {
      "midi": 67,
      "hit": false,
      "t": 164349.93152082924,
      "d": 78.57139583333628,
      "v": 77
    },
    {
      "midi": 73,
      "hit": false,
      "t": 164414.21720832924,
      "d": 89.2856770833314,
      "v": 73
    },
    {
      "midi": 34,
      "hit": false,
      "t": 164482.07432291258,
      "d": 60.71426041665836,
      "v": 78
    },
    {
      "midi": 70,
      "hit": false,
      "t": 164489.21717707923,
      "d": 103.57138541666791,
      "v": 69
    },
    {
      "midi": 67,
      "hit": false,
      "t": 164564.21714582923,
      "d": 64.28568749999977,
      "v": 71
    },
    {
      "midi": 35,
      "hit": false,
      "t": 164628.50283332923,
      "d": 71.42854166668258,
      "v": 80
    },
    {
      "midi": 63,
      "hit": false,
      "t": 164632.07426041257,
      "d": 96.4285312500142,
      "v": 72
    },
    {
      "midi": 67,
      "hit": false,
      "t": 164717.7885104126,
      "d": 85.71424999998999,
      "v": 63
    },
    {
      "midi": 68,
      "hit": false,
      "t": 164724.93136457924,
      "d": 39.28569791666814,
      "v": 51
    },
    {
      "midi": 36,
      "hit": false,
      "t": 164771.35991666256,
      "d": 57.14283333334606,
      "v": 82
    },
    {
      "midi": 64,
      "hit": false,
      "t": 164785.6456249959,
      "d": 71.42854166668258,
      "v": 78
    },
    {
      "midi": 70,
      "hit": false,
      "t": 164857.07416666258,
      "d": 64.28568749999977,
      "v": 74
    },
    {
      "midi": 37,
      "hit": false,
      "t": 164924.93128124592,
      "d": 57.14283333334606,
      "v": 84
    },
    {
      "midi": 67,
      "hit": false,
      "t": 164924.93128124592,
      "d": 110.71423958335072,
      "v": 69
    },
    {
      "midi": 64,
      "hit": false,
      "t": 165003.50267707926,
      "d": 60.714260416687466,
      "v": 77
    },
    {
      "midi": 38,
      "hit": false,
      "t": 165064.21693749595,
      "d": 53.57140625000466,
      "v": 86
    },
    {
      "midi": 60,
      "hit": false,
      "t": 165078.50264582929,
      "d": 82.14282291664858,
      "v": 77
    },
    {
      "midi": 64,
      "hit": false,
      "t": 165153.50261457928,
      "d": 82.14282291667769,
      "v": 76
    },
    {
      "midi": 39,
      "hit": false,
      "t": 165203.50259374594,
      "d": 107.14281250000931,
      "v": 88
    },
    {
      "midi": 61,
      "hit": false,
      "t": 165221.35972916262,
      "d": 107.14281250000931,
      "v": 73
    },
    {
      "midi": 67,
      "hit": false,
      "t": 165307.0739791626,
      "d": 78.57139583336539,
      "v": 79
    },
    {
      "midi": 40,
      "hit": false,
      "t": 165353.50253124596,
      "d": 85.71425000001909,
      "v": 90
    },
    {
      "midi": 64,
      "hit": false,
      "t": 165367.7882395793,
      "d": 92.8571041666728,
      "v": 74
    },
    {
      "midi": 61,
      "hit": false,
      "t": 165428.502499996,
      "d": 67.85711458331207,
      "v": 73
    },
    {
      "midi": 57,
      "hit": false,
      "t": 165510.64532291263,
      "d": 99.99995833335561,
      "v": 79
    },
    {
      "midi": 41,
      "hit": false,
      "t": 165514.21674999598,
      "d": 60.714260416687466,
      "v": 92
    },
    {
      "midi": 29,
      "hit": false,
      "t": 165517.78817707932,
      "d": 53.57140625000466,
      "v": 93
    },
    {
      "midi": 61,
      "hit": false,
      "t": 165582.07386457932,
      "d": 103.57138541666791,
      "v": 78
    },
    {
      "midi": 43,
      "hit": false,
      "t": 165657.0738333293,
      "d": 49.99997916666325,
      "v": 94
    },
    {
      "midi": 58,
      "hit": false,
      "t": 165664.21668749597,
      "d": 85.71425000001909,
      "v": 76
    },
    {
      "midi": 31,
      "hit": false,
      "t": 165667.7881145793,
      "d": 42.857125000009546,
      "v": 97
    },
    {
      "midi": 64,
      "hit": false,
      "t": 165735.64522916265,
      "d": 85.71424999998999,
      "v": 83
    },
    {
      "midi": 42,
      "hit": false,
      "t": 165799.93091666265,
      "d": 35.71427083332674,
      "v": 98
    },
    {
      "midi": 30,
      "hit": false,
      "t": 165799.93091666265,
      "d": 39.28569791666814,
      "v": 97
    },
    {
      "midi": 61,
      "hit": false,
      "t": 165803.502343746,
      "d": 107.14281249998021,
      "v": 72
    },
    {
      "midi": 58,
      "hit": false,
      "t": 165885.64516666264,
      "d": 64.28568749999977,
      "v": 74
    },
    {
      "midi": 49,
      "hit": false,
      "t": 165971.35941666263,
      "d": 285.7141666666721,
      "v": 96
    },
    {
      "midi": 37,
      "hit": false,
      "t": 165974.93084374597,
      "d": 710.7139895832515,
      "v": 95
    },
    {
      "midi": 54,
      "hit": false,
      "t": 165978.5022708293,
      "d": 92.8571041666437,
      "v": 68
    },
    {
      "midi": 58,
      "hit": false,
      "t": 166057.07366666262,
      "d": 85.71424999998999,
      "v": 62
    },
    {
      "midi": 55,
      "hit": false,
      "t": 166132.0736354126,
      "d": 67.85711458334117,
      "v": 72
    },
    {
      "midi": 61,
      "hit": false,
      "t": 166199.93074999595,
      "d": 82.14282291667769,
      "v": 63
    },
    {
      "midi": 58,
      "hit": false,
      "t": 166274.93071874598,
      "d": 89.2856770833314,
      "v": 62
    },
    {
      "midi": 55,
      "hit": false,
      "t": 166346.35926041263,
      "d": 64.28568749999977,
      "v": 68
    },
    {
      "midi": 51,
      "hit": false,
      "t": 166421.35922916263,
      "d": 89.28567708330229,
      "v": 74
    },
    {
      "midi": 55,
      "hit": false,
      "t": 166507.0734791626,
      "d": 67.85711458334117,
      "v": 67
    },
    {
      "midi": 56,
      "hit": false,
      "t": 166510.64490624593,
      "d": 42.857125000009546,
      "v": 37
    },
    {
      "midi": 52,
      "hit": false,
      "t": 166574.93059374593,
      "d": 99.9999583332974,
      "v": 81
    },
    {
      "midi": 58,
      "hit": false,
      "t": 166657.07341666255,
      "d": 71.42854166668258,
      "v": 71
    },
    {
      "midi": 55,
      "hit": false,
      "t": 166732.07338541257,
      "d": 107.14281249998021,
      "v": 59
    },
    {
      "midi": 52,
      "hit": false,
      "t": 166792.78764582923,
      "d": 60.71426041665836,
      "v": 66
    },
    {
      "midi": 48,
      "hit": false,
      "t": 166864.21618749588,
      "d": 78.57139583333628,
      "v": 78
    },
    {
      "midi": 52,
      "hit": false,
      "t": 166939.21615624588,
      "d": 103.57138541666791,
      "v": 73
    },
    {
      "midi": 49,
      "hit": false,
      "t": 167010.64469791253,
      "d": 92.8571041666728,
      "v": 67
    },
    {
      "midi": 55,
      "hit": false,
      "t": 167092.7875208292,
      "d": 82.14282291667769,
      "v": 69
    },
    {
      "midi": 52,
      "hit": false,
      "t": 167146.3589270792,
      "d": 78.57139583336539,
      "v": 63
    },
    {
      "midi": 49,
      "hit": false,
      "t": 167207.0731874959,
      "d": 53.57140625000466,
      "v": 63
    },
    {
      "midi": 42,
      "hit": false,
      "t": 167357.07312499592,
      "d": 192.8570624999993,
      "v": 72
    },
    {
      "midi": 30,
      "hit": false,
      "t": 167371.35883332926,
      "d": 417.85696874998393,
      "v": 72
    },
    {
      "midi": 43,
      "hit": false,
      "t": 167553.50161457926,
      "d": 92.8571041666437,
      "v": 68
    },
    {
      "midi": 52,
      "hit": false,
      "t": 167639.21586457925,
      "d": 71.42854166665347,
      "v": 72
    },
    {
      "midi": 31,
      "hit": false,
      "t": 167707.07297916256,
      "d": 78.57139583333628,
      "v": 60
    },
    {
      "midi": 49,
      "hit": false,
      "t": 167707.07297916256,
      "d": 78.57139583333628,
      "v": 69
    },
    {
      "midi": 43,
      "hit": false,
      "t": 167789.21580207924,
      "d": 71.42854166665347,
      "v": 63
    },
    {
      "midi": 42,
      "hit": false,
      "t": 167878.50147916257,
      "d": 78.57139583333628,
      "v": 61
    },
    {
      "midi": 30,
      "hit": false,
      "t": 167878.50147916257,
      "d": 289.2855937499844,
      "v": 68
    },
    {
      "midi": 43,
      "hit": false,
      "t": 167967.7871562459,
      "d": 60.71426041665836,
      "v": 65
    },
    {
      "midi": 46,
      "hit": false,
      "t": 168053.5014062459,
      "d": 89.2856770833314,
      "v": 69
    },
    {
      "midi": 52,
      "hit": false,
      "t": 168132.07280207923,
      "d": 57.14283333331696,
      "v": 73
    },
    {
      "midi": 49,
      "hit": false,
      "t": 168196.3584895792,
      "d": 71.42854166665347,
      "v": 70
    },
    {
      "midi": 31,
      "hit": false,
      "t": 168196.3584895792,
      "d": 164.28564583329717,
      "v": 60
    },
    {
      "midi": 43,
      "hit": false,
      "t": 168278.50131249585,
      "d": 96.4285312499851,
      "v": 66
    },
    {
      "midi": 42,
      "hit": false,
      "t": 168371.3584166625,
      "d": 74.99996875002398,
      "v": 70
    },
    {
      "midi": 30,
      "hit": false,
      "t": 168374.92984374583,
      "d": 314.285583333316,
      "v": 61
    },
    {
      "midi": 43,
      "hit": false,
      "t": 168460.64409374582,
      "d": 49.99997916666325,
      "v": 72
    },
    {
      "midi": 46,
      "hit": false,
      "t": 168539.21548957916,
      "d": 96.4285312499851,
      "v": 70
    },
    {
      "midi": 52,
      "hit": false,
      "t": 168617.7868854125,
      "d": 60.71426041665836,
      "v": 73
    },
    {
      "midi": 49,
      "hit": false,
      "t": 168699.92970832915,
      "d": 71.42854166668258,
      "v": 62
    },
    {
      "midi": 31,
      "hit": false,
      "t": 168710.64398957914,
      "d": 171.42850000000908,
      "v": 63
    },
    {
      "midi": 43,
      "hit": false,
      "t": 168785.64395832914,
      "d": 78.57139583333628,
      "v": 63
    },
    {
      "midi": 42,
      "hit": false,
      "t": 168871.35820832913,
      "d": 67.85711458337028,
      "v": 67
    },
    {
      "midi": 30,
      "hit": false,
      "t": 168878.5010624958,
      "d": 324.99986458334024,
      "v": 64
    },
    {
      "midi": 43,
      "hit": false,
      "t": 168957.07245832917,
      "d": 57.142833333287854,
      "v": 73
    },
    {
      "midi": 46,
      "hit": false,
      "t": 169039.2152812458,
      "d": 82.14282291667769,
      "v": 70
    },
    {
      "midi": 52,
      "hit": false,
      "t": 169117.78667707913,
      "d": 60.714260416687466,
      "v": 72
    },
    {
      "midi": 49,
      "hit": false,
      "t": 169196.3580729125,
      "d": 71.42854166665347,
      "v": 69
    },
    {
      "midi": 31,
      "hit": false,
      "t": 169203.50092707915,
      "d": 53.57140625000466,
      "v": 59
    },
    {
      "midi": 43,
      "hit": false,
      "t": 169278.50089582914,
      "d": 99.99995833335561,
      "v": 64
    },
    {
      "midi": 42,
      "hit": false,
      "t": 169374.92942707916,
      "d": 39.28569791666814,
      "v": 75
    },
    {
      "midi": 30,
      "hit": false,
      "t": 169378.5008541625,
      "d": 64.28568749999977,
      "v": 61
    },
    {
      "midi": 37,
      "hit": false,
      "t": 169457.07224999584,
      "d": 57.14283333334606,
      "v": 36
    },
    {
      "midi": 42,
      "hit": false,
      "t": 169528.50079166252,
      "d": 57.14283333334606,
      "v": 50
    },
    {
      "midi": 49,
      "hit": false,
      "t": 169617.78646874588,
      "d": 60.71426041665836,
      "v": 61
    },
    {
      "midi": 42,
      "hit": false,
      "t": 169710.64357291255,
      "d": 67.85711458334117,
      "v": 45
    },
    {
      "midi": 55,
      "hit": false,
      "t": 169714.2149999959,
      "d": 196.4284895832825,
      "v": 76
    },
    {
      "midi": 52,
      "hit": false,
      "t": 169721.35785416255,
      "d": 328.57129166662344,
      "v": 66
    },
    {
      "midi": 37,
      "hit": false,
      "t": 169803.50067707922,
      "d": 71.42854166665347,
      "v": 52
    },
    {
      "midi": 54,
      "hit": false,
      "t": 169903.50063541252,
      "d": 310.7141562500037,
      "v": 77
    },
    {
      "midi": 30,
      "hit": false,
      "t": 169910.64348957918,
      "d": 85.71424999998999,
      "v": 43
    },
    {
      "midi": 37,
      "hit": false,
      "t": 169996.35773957917,
      "d": 67.85711458334117,
      "v": 53
    },
    {
      "midi": 42,
      "hit": false,
      "t": 170082.07198957918,
      "d": 82.14282291667769,
      "v": 62
    },
    {
      "midi": 49,
      "hit": false,
      "t": 170167.7862395792,
      "d": 78.57139583333628,
      "v": 68
    },
    {
      "midi": 56,
      "hit": false,
      "t": 170246.35763541254,
      "d": 210.71419791664812,
      "v": 87
    },
    {
      "midi": 52,
      "hit": false,
      "t": 170257.07191666253,
      "d": 371.428416666633,
      "v": 63
    },
    {
      "midi": 42,
      "hit": false,
      "t": 170274.9290520792,
      "d": 57.14283333331696,
      "v": 60
    },
    {
      "midi": 37,
      "hit": false,
      "t": 170353.50044791252,
      "d": 74.99996874999488,
      "v": 55
    },
    {
      "midi": 30,
      "hit": false,
      "t": 170442.78612499585,
      "d": 74.99996874999488,
      "v": 59
    },
    {
      "midi": 54,
      "hit": false,
      "t": 170442.78612499585,
      "d": 257.14274999996996,
      "v": 80
    },
    {
      "midi": 37,
      "hit": false,
      "t": 170532.07180207918,
      "d": 53.57140624997555,
      "v": 55
    },
    {
      "midi": 42,
      "hit": false,
      "t": 170614.21462499583,
      "d": 71.42854166668258,
      "v": 69
    },
    {
      "midi": 49,
      "hit": false,
      "t": 170692.78602082917,
      "d": 71.42854166665347,
      "v": 77
    },
    {
      "midi": 62,
      "hit": false,
      "t": 170803.5002604125,
      "d": 335.71414583336446,
      "v": 84
    },
    {
      "midi": 42,
      "hit": false,
      "t": 170807.07168749583,
      "d": 64.28568750002887,
      "v": 65
    },
    {
      "midi": 52,
      "hit": false,
      "t": 170807.07168749583,
      "d": 342.85700000001816,
      "v": 75
    },
    {
      "midi": 57,
      "hit": false,
      "t": 170810.64311457917,
      "d": 167.85707291666768,
      "v": 68
    },
    {
      "midi": 37,
      "hit": false,
      "t": 170899.92879166253,
      "d": 67.85711458331207,
      "v": 56
    },
    {
      "midi": 54,
      "hit": false,
      "t": 170989.21446874583,
      "d": 267.8570312500233,
      "v": 77
    },
    {
      "midi": 30,
      "hit": false,
      "t": 170992.78589582918,
      "d": 71.42854166665347,
      "v": 58
    },
    {
      "midi": 37,
      "hit": false,
      "t": 171082.0715729125,
      "d": 60.714260416687466,
      "v": 64
    },
    {
      "midi": 42,
      "hit": false,
      "t": 171178.50010416252,
      "d": 78.57139583333628,
      "v": 56
    },
    {
      "midi": 49,
      "hit": false,
      "t": 171271.3572083292,
      "d": 67.85711458334117,
      "v": 69
    },
    {
      "midi": 61,
      "hit": false,
      "t": 171357.0714583292,
      "d": 89.28567708330229,
      "v": 85
    },
    {
      "midi": 52,
      "hit": false,
      "t": 171367.7857395792,
      "d": 49.99997916666325,
      "v": 68
    },
    {
      "midi": 42,
      "hit": false,
      "t": 171367.7857395792,
      "d": 71.42854166665347,
      "v": 64
    },
    {
      "midi": 58,
      "hit": false,
      "t": 171371.35716666255,
      "d": 60.71426041665836,
      "v": 52
    },
    {
      "midi": 37,
      "hit": false,
      "t": 171453.49998957917,
      "d": 107.14281250000931,
      "v": 56
    },
    {
      "midi": 35,
      "hit": false,
      "t": 171596.35707291248,
      "d": 53.57140625000466,
      "v": 64
    },
    {
      "midi": 59,
      "hit": false,
      "t": 171596.35707291248,
      "d": 278.5713124999893,
      "v": 84
    },
    {
      "midi": 50,
      "hit": false,
      "t": 171599.92849999582,
      "d": 46.42855208332185,
      "v": 74
    },
    {
      "midi": 42,
      "hit": false,
      "t": 171664.21418749582,
      "d": 67.85711458334117,
      "v": 62
    },
    {
      "midi": 47,
      "hit": false,
      "t": 171753.49986457915,
      "d": 71.42854166665347,
      "v": 64
    },
    {
      "midi": 50,
      "hit": false,
      "t": 171853.49982291248,
      "d": 39.28569791666814,
      "v": 64
    },
    {
      "midi": 47,
      "hit": false,
      "t": 171935.64264582915,
      "d": 53.57140625000466,
      "v": 60
    },
    {
      "midi": 54,
      "hit": false,
      "t": 171939.2140729125,
      "d": 149.99993749998976,
      "v": 78
    },
    {
      "midi": 42,
      "hit": false,
      "t": 172024.92832291248,
      "d": 46.42855208332185,
      "v": 60
    },
    {
      "midi": 55,
      "hit": false,
      "t": 172132.0711354125,
      "d": 357.1427083333547,
      "v": 80
    },
    {
      "midi": 35,
      "hit": false,
      "t": 172157.07112499583,
      "d": 60.71426041665836,
      "v": 60
    },
    {
      "midi": 40,
      "hit": false,
      "t": 172221.35681249583,
      "d": 64.28568749999977,
      "v": 60
    },
    {
      "midi": 43,
      "hit": false,
      "t": 172299.92820832916,
      "d": 57.14283333334606,
      "v": 63
    },
    {
      "midi": 52,
      "hit": false,
      "t": 172371.35674999584,
      "d": 57.14283333334606,
      "v": 62
    },
    {
      "midi": 43,
      "hit": false,
      "t": 172467.78528124586,
      "d": 82.14282291664858,
      "v": 60
    },
    {
      "midi": 58,
      "hit": false,
      "t": 172474.9281354125,
      "d": 164.28564583332627,
      "v": 75
    },
    {
      "midi": 40,
      "hit": false,
      "t": 172560.6423854125,
      "d": 96.4285312500142,
      "v": 60
    },
    {
      "midi": 59,
      "hit": false,
      "t": 172660.64234374586,
      "d": 324.99986458334024,
      "v": 73
    },
    {
      "midi": 35,
      "hit": false,
      "t": 172671.35662499585,
      "d": 57.14283333334606,
      "v": 59
    },
    {
      "midi": 42,
      "hit": false,
      "t": 172753.49944791253,
      "d": 57.14283333334606,
      "v": 62
    },
    {
      "midi": 47,
      "hit": false,
      "t": 172832.07084374587,
      "d": 46.42855208332185,
      "v": 61
    },
    {
      "midi": 50,
      "hit": false,
      "t": 172924.9279479125,
      "d": 42.857125000009546,
      "v": 60
    },
    {
      "midi": 54,
      "hit": false,
      "t": 172999.92791666253,
      "d": 199.999916666653,
      "v": 86
    },
    {
      "midi": 47,
      "hit": false,
      "t": 173010.64219791253,
      "d": 49.99997916666325,
      "v": 60
    },
    {
      "midi": 42,
      "hit": false,
      "t": 173074.92788541253,
      "d": 64.28568749999977,
      "v": 60
    },
    {
      "midi": 55,
      "hit": false,
      "t": 173189.2135520792,
      "d": 349.99985416664276,
      "v": 86
    },
    {
      "midi": 35,
      "hit": false,
      "t": 173217.78496874584,
      "d": 67.85711458334117,
      "v": 62
    },
    {
      "midi": 40,
      "hit": false,
      "t": 173282.07065624584,
      "d": 64.28568749999977,
      "v": 60
    },
    {
      "midi": 43,
      "hit": false,
      "t": 173349.92777082918,
      "d": 49.99997916666325,
      "v": 58
    },
    {
      "midi": 52,
      "hit": false,
      "t": 173421.35631249583,
      "d": 57.14283333334606,
      "v": 60
    },
    {
      "midi": 58,
      "hit": false,
      "t": 173514.2134166625,
      "d": 160.71421874998487,
      "v": 83
    },
    {
      "midi": 43,
      "hit": false,
      "t": 173517.78484374585,
      "d": 78.57139583333628,
      "v": 60
    },
    {
      "midi": 40,
      "hit": false,
      "t": 173603.49909374584,
      "d": 96.4285312499851,
      "v": 58
    },
    {
      "midi": 59,
      "hit": false,
      "t": 173710.64190624582,
      "d": 178.5713541666628,
      "v": 84
    },
    {
      "midi": 35,
      "hit": false,
      "t": 173714.21333332916,
      "d": 67.85711458331207,
      "v": 62
    },
    {
      "midi": 42,
      "hit": false,
      "t": 173799.92758332915,
      "d": 57.14283333331696,
      "v": 61
    },
    {
      "midi": 47,
      "hit": false,
      "t": 173874.92755207914,
      "d": 67.85711458334117,
      "v": 60
    },
    {
      "midi": 50,
      "hit": false,
      "t": 173964.21322916247,
      "d": 57.14283333334606,
      "v": 61
    },
    {
      "midi": 59,
      "hit": false,
      "t": 174042.7846249958,
      "d": 92.8571041666437,
      "v": 87
    },
    {
      "midi": 47,
      "hit": false,
      "t": 174049.92747916246,
      "d": 74.99996874999488,
      "v": 59
    },
    {
      "midi": 42,
      "hit": false,
      "t": 174132.0703020791,
      "d": 99.99995833335561,
      "v": 58
    },
    {
      "midi": 59,
      "hit": false,
      "t": 174242.78454166246,
      "d": 235.71418749995064,
      "v": 90
    },
    {
      "midi": 40,
      "hit": false,
      "t": 174249.92739582912,
      "d": 64.28568749999977,
      "v": 60
    },
    {
      "midi": 43,
      "hit": false,
      "t": 174328.49879166245,
      "d": 82.14282291664858,
      "v": 61
    },
    {
      "midi": 47,
      "hit": false,
      "t": 174421.3558958291,
      "d": 49.99997916666325,
      "v": 60
    },
    {
      "midi": 58,
      "hit": false,
      "t": 174503.49871874574,
      "d": 53.57140625000466,
      "v": 76
    },
    {
      "midi": 55,
      "hit": false,
      "t": 174503.49871874574,
      "d": 57.14283333334606,
      "v": 59
    },
    {
      "midi": 59,
      "hit": false,
      "t": 174578.49868749577,
      "d": 164.28564583335537,
      "v": 93
    },
    {
      "midi": 47,
      "hit": false,
      "t": 174592.7843958291,
      "d": 78.57139583333628,
      "v": 60
    },
    {
      "midi": 43,
      "hit": false,
      "t": 174674.92721874578,
      "d": 96.4285312500142,
      "v": 60
    },
    {
      "midi": 62,
      "hit": false,
      "t": 174767.78432291246,
      "d": 674.9997187499539,
      "v": 84
    },
    {
      "midi": 38,
      "hit": false,
      "t": 174774.92717707914,
      "d": 67.85711458334117,
      "v": 61
    },
    {
      "midi": 45,
      "hit": false,
      "t": 174885.64141666246,
      "d": 24.999989583331626,
      "v": 60
    },
    {
      "midi": 50,
      "hit": false,
      "t": 174935.64139582912,
      "d": 85.71424999998999,
      "v": 61
    },
    {
      "midi": 54,
      "hit": false,
      "t": 175032.0699270791,
      "d": 60.71426041665836,
      "v": 62
    },
    {
      "midi": 50,
      "hit": false,
      "t": 175110.64132291244,
      "d": 85.71424999998999,
      "v": 60
    },
    {
      "midi": 45,
      "hit": false,
      "t": 175196.35557291243,
      "d": 78.57139583336539,
      "v": 61
    },
    {
      "midi": 43,
      "hit": false,
      "t": 175282.06982291245,
      "d": 71.42854166665347,
      "v": 66
    },
    {
      "midi": 46,
      "hit": false,
      "t": 175367.78407291244,
      "d": 64.28568749997066,
      "v": 61
    },
    {
      "midi": 50,
      "hit": false,
      "t": 175453.4983229124,
      "d": 60.71426041665836,
      "v": 60
    },
    {
      "midi": 55,
      "hit": false,
      "t": 175528.4982916624,
      "d": 57.14283333334606,
      "v": 62
    },
    {
      "midi": 58,
      "hit": false,
      "t": 175603.49826041242,
      "d": 142.85708333330695,
      "v": 78
    },
    {
      "midi": 50,
      "hit": false,
      "t": 175614.21254166242,
      "d": 46.42855208332185,
      "v": 61
    },
    {
      "midi": 46,
      "hit": false,
      "t": 175667.7839479124,
      "d": 142.85708333333605,
      "v": 60
    },
    {
      "midi": 62,
      "hit": false,
      "t": 175796.3553229124,
      "d": 324.99986458334024,
      "v": 78
    },
    {
      "midi": 38,
      "hit": false,
      "t": 175821.35531249573,
      "d": 53.57140625000466,
      "v": 61
    },
    {
      "midi": 45,
      "hit": false,
      "t": 175892.7838541624,
      "d": 35.71427083332674,
      "v": 60
    },
    {
      "midi": 50,
      "hit": false,
      "t": 175942.78383332907,
      "d": 89.2856770833314,
      "v": 61
    },
    {
      "midi": 54,
      "hit": false,
      "t": 176032.0695104124,
      "d": 78.57139583333628,
      "v": 62
    },
    {
      "midi": 50,
      "hit": false,
      "t": 176117.7837604124,
      "d": 82.14282291667769,
      "v": 61
    },
    {
      "midi": 57,
      "hit": false,
      "t": 176117.7837604124,
      "d": 192.8570624999993,
      "v": 81
    },
    {
      "midi": 45,
      "hit": false,
      "t": 176207.06943749572,
      "d": 21.42856249999022,
      "v": 60
    },
    {
      "midi": 58,
      "hit": false,
      "t": 176296.35511457906,
      "d": 303.57130208335,
      "v": 77
    },
    {
      "midi": 38,
      "hit": false,
      "t": 176317.78367707905,
      "d": 67.85711458334117,
      "v": 61
    },
    {
      "midi": 43,
      "hit": false,
      "t": 176396.35507291238,
      "d": 57.14283333331696,
      "v": 60
    },
    {
      "midi": 46,
      "hit": false,
      "t": 176457.06933332904,
      "d": 64.28568749999977,
      "v": 62
    },
    {
      "midi": 55,
      "hit": false,
      "t": 176539.21215624572,
      "d": 57.14283333334606,
      "v": 62
    },
    {
      "midi": 61,
      "hit": false,
      "t": 176614.21212499574,
      "d": 214.28562499998952,
      "v": 74
    },
    {
      "midi": 46,
      "hit": false,
      "t": 176628.49783332908,
      "d": 74.99996874999488,
      "v": 61
    },
    {
      "midi": 43,
      "hit": false,
      "t": 176710.64065624573,
      "d": 89.2856770833314,
      "v": 60
    },
    {
      "midi": 38,
      "hit": false,
      "t": 176810.64061457905,
      "d": 64.28568749999977,
      "v": 62
    },
    {
      "midi": 62,
      "hit": false,
      "t": 176810.64061457905,
      "d": 317.85701041665743,
      "v": 83
    },
    {
      "midi": 45,
      "hit": false,
      "t": 176892.78343749573,
      "d": 42.85712499998044,
      "v": 60
    },
    {
      "midi": 50,
      "hit": false,
      "t": 176960.64055207904,
      "d": 85.71424999998999,
      "v": 60
    },
    {
      "midi": 54,
      "hit": false,
      "t": 177049.92622916237,
      "d": 64.28568749999977,
      "v": 60
    },
    {
      "midi": 50,
      "hit": false,
      "t": 177139.2119062457,
      "d": 89.2856770833314,
      "v": 61
    },
    {
      "midi": 57,
      "hit": false,
      "t": 177142.78333332905,
      "d": 178.5713541666628,
      "v": 82
    },
    {
      "midi": 45,
      "hit": false,
      "t": 177242.78329166237,
      "d": 17.85713541667792,
      "v": 60
    },
    {
      "midi": 58,
      "hit": false,
      "t": 177324.92611457905,
      "d": 332.14271875002305,
      "v": 83
    },
    {
      "midi": 38,
      "hit": false,
      "t": 177357.06895832904,
      "d": 67.85711458334117,
      "v": 62
    },
    {
      "midi": 43,
      "hit": false,
      "t": 177435.64035416237,
      "d": 49.99997916666325,
      "v": 62
    },
    {
      "midi": 46,
      "hit": false,
      "t": 177496.35461457903,
      "d": 57.14283333334606,
      "v": 61
    },
    {
      "midi": 55,
      "hit": false,
      "t": 177585.6402916624,
      "d": 53.57140625000466,
      "v": 61
    },
    {
      "midi": 61,
      "hit": false,
      "t": 177653.49740624573,
      "d": 171.42849999997998,
      "v": 78
    },
    {
      "midi": 46,
      "hit": false,
      "t": 177678.49739582906,
      "d": 74.99996874999488,
      "v": 60
    },
    {
      "midi": 43,
      "hit": false,
      "t": 177760.6402187457,
      "d": 82.14282291667769,
      "v": 61
    },
    {
      "midi": 62,
      "hit": false,
      "t": 177839.21161457905,
      "d": 185.7142083332874,
      "v": 79
    },
    {
      "midi": 38,
      "hit": false,
      "t": 177867.78303124572,
      "d": 60.71426041665836,
      "v": 61
    },
    {
      "midi": 45,
      "hit": false,
      "t": 177967.78298957902,
      "d": 21.42856249999022,
      "v": 61
    },
    {
      "midi": 50,
      "hit": false,
      "t": 178003.49726041235,
      "d": 82.14282291664858,
      "v": 62
    },
    {
      "midi": 54,
      "hit": false,
      "t": 178096.354364579,
      "d": 60.71426041665836,
      "v": 60
    },
    {
      "midi": 62,
      "hit": false,
      "t": 178171.35433332899,
      "d": 110.71423958335072,
      "v": 94
    },
    {
      "midi": 50,
      "hit": false,
      "t": 178174.92576041233,
      "d": 78.57139583333628,
      "v": 60
    },
    {
      "midi": 45,
      "hit": false,
      "t": 178264.21143749566,
      "d": 71.42854166668258,
      "v": 61
    },
    {
      "midi": 62,
      "hit": false,
      "t": 178353.49711457902,
      "d": 228.57133333329693,
      "v": 88
    },
    {
      "midi": 43,
      "hit": false,
      "t": 178367.78282291233,
      "d": 74.99996874999488,
      "v": 58
    },
    {
      "midi": 47,
      "hit": false,
      "t": 178453.49707291232,
      "d": 74.99996874999488,
      "v": 51
    },
    {
      "midi": 50,
      "hit": false,
      "t": 178539.2113229123,
      "d": 46.42855208335095,
      "v": 62
    },
    {
      "midi": 59,
      "hit": false,
      "t": 178596.35415624565,
      "d": 74.99996874999488,
      "v": 44
    },
    {
      "midi": 61,
      "hit": false,
      "t": 178617.78271874564,
      "d": 57.14283333334606,
      "v": 78
    },
    {
      "midi": 50,
      "hit": false,
      "t": 178692.78268749567,
      "d": 53.57140625000466,
      "v": 66
    },
    {
      "midi": 62,
      "hit": false,
      "t": 178696.354114579,
      "d": 114.28566666666302,
      "v": 92
    },
    {
      "midi": 47,
      "hit": false,
      "t": 178760.639802079,
      "d": 78.57139583333628,
      "v": 42
    },
    {
      "midi": 42,
      "hit": false,
      "t": 178882.06832291235,
      "d": 82.14282291664858,
      "v": 60
    },
    {
      "midi": 66,
      "hit": false,
      "t": 178892.78260416235,
      "d": 1157.1423749998503,
      "v": 88
    },
    {
      "midi": 49,
      "hit": false,
      "t": 178964.211145829,
      "d": 64.28568749997066,
      "v": 58
    },
    {
      "midi": 54,
      "hit": false,
      "t": 179042.7825416623,
      "d": 60.71426041665836,
      "v": 62
    },
    {
      "midi": 58,
      "hit": false,
      "t": 179124.92536457896,
      "d": 85.71424999998999,
      "v": 50
    },
    {
      "midi": 54,
      "hit": false,
      "t": 179210.63961457895,
      "d": 85.71424999998999,
      "v": 60
    },
    {
      "midi": 49,
      "hit": false,
      "t": 179299.92529166228,
      "d": 74.99996874999488,
      "v": 63
    },
    {
      "midi": 47,
      "hit": false,
      "t": 179392.78239582895,
      "d": 74.99996874996577,
      "v": 74
    },
    {
      "midi": 50,
      "hit": false,
      "t": 179474.92521874557,
      "d": 74.99996874996577,
      "v": 68
    },
    {
      "midi": 54,
      "hit": false,
      "t": 179553.49661457888,
      "d": 49.99997916666325,
      "v": 61
    },
    {
      "midi": 62,
      "hit": false,
      "t": 179628.49658332887,
      "d": 53.57140625000466,
      "v": 52
    },
    {
      "midi": 54,
      "hit": false,
      "t": 179714.2108333289,
      "d": 89.2856770833314,
      "v": 61
    },
    {
      "midi": 50,
      "hit": false,
      "t": 179796.35365624557,
      "d": 53.57140624997555,
      "v": 69
    },
    {
      "midi": 46,
      "hit": false,
      "t": 179885.63933332887,
      "d": 74.99996874999488,
      "v": 69
    },
    {
      "midi": 49,
      "hit": false,
      "t": 179967.78215624552,
      "d": 78.57139583333628,
      "v": 62
    },
    {
      "midi": 54,
      "hit": false,
      "t": 180049.9249791622,
      "d": 57.14283333334606,
      "v": 62
    },
    {
      "midi": 61,
      "hit": false,
      "t": 180132.06780207888,
      "d": 57.14283333334606,
      "v": 56
    },
    {
      "midi": 54,
      "hit": false,
      "t": 180217.7820520789,
      "d": 74.99996874999488,
      "v": 55
    },
    {
      "midi": 61,
      "hit": false,
      "t": 180221.35347916224,
      "d": 135.71422916665324,
      "v": 71
    },
    {
      "midi": 49,
      "hit": false,
      "t": 180307.06772916223,
      "d": 67.85711458334117,
      "v": 56
    },
    {
      "midi": 62,
      "hit": false,
      "t": 180389.2105520789,
      "d": 317.85701041668653,
      "v": 87
    },
    {
      "midi": 45,
      "hit": false,
      "t": 180421.35339582892,
      "d": 60.71426041665836,
      "v": 71
    },
    {
      "midi": 47,
      "hit": false,
      "t": 180492.78193749557,
      "d": 60.714260416687466,
      "v": 54
    },
    {
      "midi": 54,
      "hit": false,
      "t": 180549.92477082892,
      "d": 67.85711458334117,
      "v": 56
    },
    {
      "midi": 59,
      "hit": false,
      "t": 180642.7818749956,
      "d": 64.28568749999977,
      "v": 51
    },
    {
      "midi": 63,
      "hit": false,
      "t": 180717.7818437456,
      "d": 139.28565624999464,
      "v": 87
    },
    {
      "midi": 54,
      "hit": false,
      "t": 180732.06755207892,
      "d": 85.71424999998999,
      "v": 52
    },
    {
      "midi": 47,
      "hit": false,
      "t": 180828.4960833289,
      "d": 67.85711458334117,
      "v": 58
    },
    {
      "midi": 64,
      "hit": false,
      "t": 180899.9246249956,
      "d": 774.9996770832804,
      "v": 84
    },
    {
      "midi": 44,
      "hit": false,
      "t": 180921.35318749558,
      "d": 74.99996874999488,
      "v": 61
    },
    {
      "midi": 47,
      "hit": false,
      "t": 181003.49601041223,
      "d": 82.14282291667769,
      "v": 67
    },
    {
      "midi": 52,
      "hit": false,
      "t": 181092.78168749556,
      "d": 49.99997916666325,
      "v": 64
    },
    {
      "midi": 59,
      "hit": false,
      "t": 181189.21021874555,
      "d": 39.28569791666814,
      "v": 21
    },
    {
      "midi": 52,
      "hit": false,
      "t": 181264.21018749554,
      "d": 82.14282291667769,
      "v": 66
    },
    {
      "midi": 47,
      "hit": false,
      "t": 181360.63871874555,
      "d": 32.142843750014435,
      "v": 51
    },
    {
      "midi": 43,
      "hit": false,
      "t": 181446.35296874557,
      "d": 74.99996874999488,
      "v": 68
    },
    {
      "midi": 45,
      "hit": false,
      "t": 181524.9243645789,
      "d": 67.85711458331207,
      "v": 68
    },
    {
      "midi": 49,
      "hit": false,
      "t": 181599.92433332888,
      "d": 60.71426041665836,
      "v": 61
    },
    {
      "midi": 66,
      "hit": false,
      "t": 181689.2100104122,
      "d": 82.14282291667769,
      "v": 73
    },
    {
      "midi": 57,
      "hit": false,
      "t": 181692.78143749555,
      "d": 53.57140625000466,
      "v": 41
    },
    {
      "midi": 64,
      "hit": false,
      "t": 181774.92426041223,
      "d": 171.42850000000908,
      "v": 85
    },
    {
      "midi": 49,
      "hit": false,
      "t": 181782.06711457888,
      "d": 74.99996874999488,
      "v": 69
    },
    {
      "midi": 45,
      "hit": false,
      "t": 181857.06708332888,
      "d": 67.85711458334117,
      "v": 74
    },
    {
      "midi": 62,
      "hit": false,
      "t": 181957.06704166223,
      "d": 249.99989583328716,
      "v": 83
    },
    {
      "midi": 42,
      "hit": false,
      "t": 181964.20989582888,
      "d": 78.57139583333628,
      "v": 63
    },
    {
      "midi": 45,
      "hit": false,
      "t": 182049.92414582887,
      "d": 89.28567708330229,
      "v": 62
    },
    {
      "midi": 50,
      "hit": false,
      "t": 182149.92410416217,
      "d": 60.714260416687466,
      "v": 66
    },
    {
      "midi": 57,
      "hit": false,
      "t": 182242.78120832887,
      "d": 39.28569791666814,
      "v": 33
    },
    {
      "midi": 61,
      "hit": false,
      "t": 182299.92404166222,
      "d": 171.42849999997998,
      "v": 76
    },
    {
      "midi": 50,
      "hit": false,
      "t": 182321.3526041622,
      "d": 74.99996874999488,
      "v": 74
    },
    {
      "midi": 45,
      "hit": false,
      "t": 182396.3525729122,
      "d": 67.85711458334117,
      "v": 68
    },
    {
      "midi": 59,
      "hit": false,
      "t": 182489.20967707888,
      "d": 349.99985416664276,
      "v": 78
    },
    {
      "midi": 42,
      "hit": false,
      "t": 182503.4953854122,
      "d": 67.85711458334117,
      "v": 61
    },
    {
      "midi": 44,
      "hit": false,
      "t": 182574.9239270789,
      "d": 103.5713854166097,
      "v": 60
    },
    {
      "midi": 50,
      "hit": false,
      "t": 182671.35245832885,
      "d": 60.71426041665836,
      "v": 66
    },
    {
      "midi": 56,
      "hit": false,
      "t": 182746.35242707885,
      "d": 60.71426041665836,
      "v": 60
    },
    {
      "midi": 61,
      "hit": false,
      "t": 182839.20953124552,
      "d": 64.28568749999977,
      "v": 76
    },
    {
      "midi": 44,
      "hit": false,
      "t": 182839.20953124552,
      "d": 74.99996874999488,
      "v": 71
    },
    {
      "midi": 41,
      "hit": false,
      "t": 182921.35235416217,
      "d": 67.85711458334117,
      "v": 76
    },
    {
      "midi": 40,
      "hit": false,
      "t": 183017.78088541218,
      "d": 132.14280208331184,
      "v": 68
    },
    {
      "midi": 54,
      "hit": false,
      "t": 183042.78087499551,
      "d": 153.57136458327295,
      "v": 74
    },
    {
      "midi": 42,
      "hit": false,
      "t": 183135.63797916216,
      "d": 60.71426041662926,
      "v": 60
    },
    {
      "midi": 46,
      "hit": false,
      "t": 183207.06652082878,
      "d": 67.85711458334117,
      "v": 67
    },
    {
      "midi": 54,
      "hit": false,
      "t": 183296.3521979121,
      "d": 74.99996874999488,
      "v": 49
    },
    {
      "midi": 56,
      "hit": false,
      "t": 183303.49505207877,
      "d": 35.71427083332674,
      "v": 62
    },
    {
      "midi": 46,
      "hit": false,
      "t": 183382.0664479121,
      "d": 64.28568749999977,
      "v": 69
    },
    {
      "midi": 42,
      "hit": false,
      "t": 183457.0664166621,
      "d": 92.8571041666728,
      "v": 69
    },
    {
      "midi": 62,
      "hit": false,
      "t": 183553.4949479121,
      "d": 235.71418749995064,
      "v": 85
    },
    {
      "midi": 38,
      "hit": false,
      "t": 183560.63780207877,
      "d": 71.42854166665347,
      "v": 66
    },
    {
      "midi": 42,
      "hit": false,
      "t": 183642.78062499542,
      "d": 42.857125000009546,
      "v": 42
    },
    {
      "midi": 47,
      "hit": false,
      "t": 183707.06631249542,
      "d": 74.99996874999488,
      "v": 66
    },
    {
      "midi": 54,
      "hit": false,
      "t": 183792.7805624954,
      "d": 78.57139583333628,
      "v": 57
    },
    {
      "midi": 64,
      "hit": false,
      "t": 183817.78055207874,
      "d": 60.71426041665836,
      "v": 78
    },
    {
      "midi": 62,
      "hit": false,
      "t": 183889.2090937454,
      "d": 164.28564583332627,
      "v": 90
    },
    {
      "midi": 47,
      "hit": false,
      "t": 183892.78052082873,
      "d": 60.71426041665836,
      "v": 63
    },
    {
      "midi": 42,
      "hit": false,
      "t": 183982.06619791206,
      "d": 89.2856770833314,
      "v": 55
    },
    {
      "midi": 61,
      "hit": false,
      "t": 184074.92330207874,
      "d": 310.7141562500037,
      "v": 72
    },
    {
      "midi": 34,
      "hit": false,
      "t": 184085.63758332873,
      "d": 64.28568749999977,
      "v": 54
    },
    {
      "midi": 42,
      "hit": false,
      "t": 184167.7804062454,
      "d": 42.85712499998044,
      "v": 58
    },
    {
      "midi": 48,
      "hit": false,
      "t": 184264.2089374954,
      "d": 17.85713541667792,
      "v": 47
    },
    {
      "midi": 54,
      "hit": false,
      "t": 184339.20890624542,
      "d": 82.14282291664858,
      "v": 60
    },
    {
      "midi": 62,
      "hit": false,
      "t": 184421.35172916207,
      "d": 57.14283333334606,
      "v": 77
    },
    {
      "midi": 49,
      "hit": false,
      "t": 184435.6374374954,
      "d": 57.14283333334606,
      "v": 57
    },
    {
      "midi": 42,
      "hit": false,
      "t": 184517.78026041208,
      "d": 71.42854166665347,
      "v": 54
    },
    {
      "midi": 59,
      "hit": false,
      "t": 184624.92307291206,
      "d": 310.7141562500037,
      "v": 79
    },
    {
      "midi": 35,
      "hit": false,
      "t": 184642.78020832874,
      "d": 67.85711458334117,
      "v": 68
    },
    {
      "midi": 42,
      "hit": false,
      "t": 184721.35160416208,
      "d": 64.28568749999977,
      "v": 55
    },
    {
      "midi": 47,
      "hit": false,
      "t": 184796.35157291207,
      "d": 71.42854166665347,
      "v": 70
    },
    {
      "midi": 50,
      "hit": false,
      "t": 184882.06582291206,
      "d": 60.71426041665836,
      "v": 61
    },
    {
      "midi": 61,
      "hit": false,
      "t": 184953.4943645787,
      "d": 160.71421875001397,
      "v": 79
    },
    {
      "midi": 47,
      "hit": false,
      "t": 184960.63721874537,
      "d": 42.857125000009546,
      "v": 58
    },
    {
      "midi": 42,
      "hit": false,
      "t": 185035.6371874954,
      "d": 96.4285312500142,
      "v": 57
    },
    {
      "midi": 54,
      "hit": false,
      "t": 185149.92285416208,
      "d": 178.57135416663368,
      "v": 77
    },
    {
      "midi": 35,
      "hit": false,
      "t": 185160.63713541208,
      "d": 67.85711458331207,
      "v": 57
    },
    {
      "midi": 52,
      "hit": false,
      "t": 185167.77998957873,
      "d": 110.71423958332161,
      "v": 43
    },
    {
      "midi": 42,
      "hit": false,
      "t": 185246.35138541207,
      "d": 60.71426041665836,
      "v": 51
    },
    {
      "midi": 46,
      "hit": false,
      "t": 185314.20849999538,
      "d": 67.85711458334117,
      "v": 60
    },
    {
      "midi": 52,
      "hit": false,
      "t": 185407.06560416205,
      "d": 67.85711458334117,
      "v": 56
    },
    {
      "midi": 46,
      "hit": false,
      "t": 185499.92270832873,
      "d": 39.28569791666814,
      "v": 44
    },
    {
      "midi": 42,
      "hit": false,
      "t": 185553.49411457873,
      "d": 82.14282291667769,
      "v": 54
    },
    {
      "midi": 62,
      "hit": false,
      "t": 185664.20835416208,
      "d": 210.714197916619,
      "v": 78
    },
    {
      "midi": 35,
      "hit": false,
      "t": 185667.77978124542,
      "d": 67.85711458331207,
      "v": 60
    },
    {
      "midi": 42,
      "hit": false,
      "t": 185746.35117707873,
      "d": 71.42854166665347,
      "v": 54
    },
    {
      "midi": 47,
      "hit": false,
      "t": 185821.35114582872,
      "d": 46.42855208332185,
      "v": 74
    },
    {
      "midi": 64,
      "hit": false,
      "t": 185910.63682291203,
      "d": 60.71426041665836,
      "v": 80
    },
    {
      "midi": 50,
      "hit": false,
      "t": 185917.77967707868,
      "d": 67.85711458334117,
      "v": 53
    },
    {
      "midi": 62,
      "hit": false,
      "t": 185982.06536457868,
      "d": 178.5713541666628,
      "v": 89
    },
    {
      "midi": 47,
      "hit": false,
      "t": 185999.92249999536,
      "d": 60.71426041665836,
      "v": 61
    },
    {
      "midi": 42,
      "hit": false,
      "t": 186071.351041662,
      "d": 92.8571041666728,
      "v": 60
    },
    {
      "midi": 61,
      "hit": false,
      "t": 186164.20814582868,
      "d": 310.71415625003283,
      "v": 82
    },
    {
      "midi": 35,
      "hit": false,
      "t": 186185.6367083287,
      "d": 49.99997916666325,
      "v": 40
    },
    {
      "midi": 42,
      "hit": false,
      "t": 186253.49382291205,
      "d": 64.28568749999977,
      "v": 57
    },
    {
      "midi": 46,
      "hit": false,
      "t": 186314.2080833287,
      "d": 71.42854166668258,
      "v": 64
    },
    {
      "midi": 52,
      "hit": false,
      "t": 186410.63661457872,
      "d": 67.85711458334117,
      "v": 58
    },
    {
      "midi": 62,
      "hit": false,
      "t": 186489.20801041205,
      "d": 167.85707291666768,
      "v": 86
    },
    {
      "midi": 46,
      "hit": false,
      "t": 186503.4937187454,
      "d": 67.85711458334117,
      "v": 54
    },
    {
      "midi": 42,
      "hit": false,
      "t": 186571.35083332873,
      "d": 89.2856770833314,
      "v": 60
    },
    {
      "midi": 59,
      "hit": false,
      "t": 186657.06508332872,
      "d": 399.999833333306,
      "v": 75
    },
    {
      "midi": 35,
      "hit": false,
      "t": 186678.49364582874,
      "d": 71.42854166665347,
      "v": 59
    },
    {
      "midi": 42,
      "hit": false,
      "t": 186757.06504166205,
      "d": 85.71424999998999,
      "v": 53
    },
    {
      "midi": 47,
      "hit": false,
      "t": 186839.2078645787,
      "d": 49.99997916666325,
      "v": 64
    },
    {
      "midi": 54,
      "hit": false,
      "t": 186935.63639582868,
      "d": 60.71426041665836,
      "v": 62
    },
    {
      "midi": 50,
      "hit": false,
      "t": 187021.35064582867,
      "d": 67.85711458337028,
      "v": 62
    },
    {
      "midi": 67,
      "hit": false,
      "t": 187024.922072912,
      "d": 174.99992708335049,
      "v": 84
    },
    {
      "midi": 47,
      "hit": false,
      "t": 187114.20774999537,
      "d": 60.71426041665836,
      "v": 49
    },
    {
      "midi": 46,
      "hit": false,
      "t": 187228.49341666204,
      "d": 92.8571041666437,
      "v": 53
    },
    {
      "midi": 66,
      "hit": false,
      "t": 187228.49341666204,
      "d": 857.1425000000163,
      "v": 79
    },
    {
      "midi": 49,
      "hit": false,
      "t": 187321.35052082868,
      "d": 71.42854166665347,
      "v": 60
    },
    {
      "midi": 54,
      "hit": false,
      "t": 187407.06477082867,
      "d": 49.99997916666325,
      "v": 51
    },
    {
      "midi": 61,
      "hit": false,
      "t": 187474.921885412,
      "d": 71.42854166665347,
      "v": 49
    },
    {
      "midi": 54,
      "hit": false,
      "t": 187571.350416662,
      "d": 64.28568749999977,
      "v": 46
    },
    {
      "midi": 49,
      "hit": false,
      "t": 187635.636104162,
      "d": 78.57139583333628,
      "v": 51
    },
    {
      "midi": 45,
      "hit": false,
      "t": 187724.92178124533,
      "d": 85.71425000001909,
      "v": 76
    },
    {
      "midi": 51,
      "hit": false,
      "t": 187807.064604162,
      "d": 57.14283333334606,
      "v": 64
    },
    {
      "midi": 54,
      "hit": false,
      "t": 187878.4931458287,
      "d": 67.85711458334117,
      "v": 57
    },
    {
      "midi": 60,
      "hit": false,
      "t": 187964.2073958287,
      "d": 57.14283333334606,
      "v": 60
    },
    {
      "midi": 54,
      "hit": false,
      "t": 188057.06449999538,
      "d": 67.85711458334117,
      "v": 49
    },
    {
      "midi": 51,
      "hit": false,
      "t": 188128.49304166206,
      "d": 60.71426041665836,
      "v": 55
    },
    {
      "midi": 65,
      "hit": false,
      "t": 188224.92157291205,
      "d": 224.99990624998463,
      "v": 82
    },
    {
      "midi": 44,
      "hit": false,
      "t": 188235.63585416204,
      "d": 74.99996874996577,
      "v": 51
    },
    {
      "midi": 49,
      "hit": false,
      "t": 188314.20724999535,
      "d": 53.57140625000466,
      "v": 55
    },
    {
      "midi": 53,
      "hit": false,
      "t": 188382.0643645787,
      "d": 67.85711458334117,
      "v": 57
    },
    {
      "midi": 59,
      "hit": false,
      "t": 188474.92146874536,
      "d": 53.57140625000466,
      "v": 39
    },
    {
      "midi": 71,
      "hit": false,
      "t": 188549.92143749536,
      "d": 385.7141249999986,
      "v": 86
    },
    {
      "midi": 65,
      "hit": false,
      "t": 188553.4928645787,
      "d": 160.71421875001397,
      "v": 83
    },
    {
      "midi": 53,
      "hit": false,
      "t": 188571.34999999538,
      "d": 39.28569791666814,
      "v": 42
    },
    {
      "midi": 49,
      "hit": false,
      "t": 188628.49283332872,
      "d": 85.71424999998999,
      "v": 57
    },
    {
      "midi": 64,
      "hit": false,
      "t": 188721.34993749537,
      "d": 239.28561458332115,
      "v": 79
    },
    {
      "midi": 43,
      "hit": false,
      "t": 188764.20706249535,
      "d": 57.14283333331696,
      "v": 24
    },
    {
      "midi": 49,
      "hit": false,
      "t": 188810.63561457867,
      "d": 64.28568749999977,
      "v": 60
    },
    {
      "midi": 52,
      "hit": false,
      "t": 188878.492729162,
      "d": 74.99996875002398,
      "v": 62
    },
    {
      "midi": 59,
      "hit": false,
      "t": 188967.77840624534,
      "d": 64.28568749999977,
      "v": 55
    },
    {
      "midi": 71,
      "hit": false,
      "t": 189042.77837499534,
      "d": 182.1427812500042,
      "v": 78
    },
    {
      "midi": 64,
      "hit": false,
      "t": 189046.34980207868,
      "d": 149.99993749998976,
      "v": 74
    },
    {
      "midi": 52,
      "hit": false,
      "t": 189057.06408332867,
      "d": 53.57140625000466,
      "v": 47
    },
    {
      "midi": 49,
      "hit": false,
      "t": 189117.77834374533,
      "d": 67.85711458334117,
      "v": 61
    },
    {
      "midi": 63,
      "hit": false,
      "t": 189214.20687499535,
      "d": 192.8570624999993,
      "v": 76
    },
    {
      "midi": 42,
      "hit": false,
      "t": 189228.49258332868,
      "d": 74.99996874999488,
      "v": 57
    },
    {
      "midi": 47,
      "hit": false,
      "t": 189317.77826041201,
      "d": 24.999989583331626,
      "v": 50
    },
    {
      "midi": 54,
      "hit": false,
      "t": 189385.63537499536,
      "d": 67.85711458331207,
      "v": 53
    },
    {
      "midi": 71,
      "hit": false,
      "t": 189521.349604162,
      "d": 185.7142083333456,
      "v": 76
    },
    {
      "midi": 63,
      "hit": false,
      "t": 189521.349604162,
      "d": 189.285635416687,
      "v": 69
    },
    {
      "midi": 54,
      "hit": false,
      "t": 189553.49244791202,
      "d": 78.57139583333628,
      "v": 47
    },
    {
      "midi": 47,
      "hit": false,
      "t": 189642.77812499536,
      "d": 21.42856249999022,
      "v": 45
    },
    {
      "midi": 62,
      "hit": false,
      "t": 189707.06381249535,
      "d": 157.14279166664346,
      "v": 86
    },
    {
      "midi": 41,
      "hit": false,
      "t": 189732.0638020787,
      "d": 60.71426041665836,
      "v": 66
    },
    {
      "midi": 43,
      "hit": false,
      "t": 189799.920916662,
      "d": 71.42854166665347,
      "v": 63
    },
    {
      "midi": 47,
      "hit": false,
      "t": 189871.34945832865,
      "d": 49.99997916666325,
      "v": 62
    },
    {
      "midi": 55,
      "hit": false,
      "t": 189949.920854162,
      "d": 67.85711458334117,
      "v": 58
    },
    {
      "midi": 62,
      "hit": false,
      "t": 190024.92082291198,
      "d": 157.14279166667257,
      "v": 69
    },
    {
      "midi": 67,
      "hit": false,
      "t": 190024.92082291198,
      "d": 378.5712708333158,
      "v": 81
    },
    {
      "midi": 47,
      "hit": false,
      "t": 190053.49223957866,
      "d": 67.85711458334117,
      "v": 47
    },
    {
      "midi": 43,
      "hit": false,
      "t": 190117.77792707866,
      "d": 82.14282291667769,
      "v": 60
    },
    {
      "midi": 59,
      "hit": false,
      "t": 190207.063604162,
      "d": 264.2856041666528,
      "v": 74
    },
    {
      "midi": 40,
      "hit": false,
      "t": 190228.49216666198,
      "d": 82.14282291664858,
      "v": 38
    },
    {
      "midi": 43,
      "hit": false,
      "t": 190314.20641666197,
      "d": 82.14282291667769,
      "v": 64
    },
    {
      "midi": 48,
      "hit": false,
      "t": 190392.7778124953,
      "d": 64.28568749999977,
      "v": 70
    },
    {
      "midi": 55,
      "hit": false,
      "t": 190474.92063541198,
      "d": 67.85711458334117,
      "v": 51
    },
    {
      "midi": 48,
      "hit": false,
      "t": 190557.06345832866,
      "d": 82.14282291667769,
      "v": 56
    },
    {
      "midi": 60,
      "hit": false,
      "t": 190560.634885412,
      "d": 103.57138541666791,
      "v": 71
    },
    {
      "midi": 67,
      "hit": false,
      "t": 190560.634885412,
      "d": 167.85707291666768,
      "v": 70
    },
    {
      "midi": 43,
      "hit": false,
      "t": 190628.49199999534,
      "d": 53.57140625000466,
      "v": 50
    },
    {
      "midi": 42,
      "hit": false,
      "t": 190742.777666662,
      "d": 82.14282291664858,
      "v": 71
    },
    {
      "midi": 64,
      "hit": false,
      "t": 190742.777666662,
      "d": 310.7141562499746,
      "v": 82
    },
    {
      "midi": 48,
      "hit": false,
      "t": 190842.77762499533,
      "d": 24.999989583331626,
      "v": 39
    },
    {
      "midi": 52,
      "hit": false,
      "t": 190889.20617707865,
      "d": 92.8571041666728,
      "v": 72
    },
    {
      "midi": 54,
      "hit": false,
      "t": 190978.49185416198,
      "d": 92.8571041666437,
      "v": 53
    },
    {
      "midi": 58,
      "hit": false,
      "t": 191064.20610416197,
      "d": 153.57136458333116,
      "v": 75
    },
    {
      "midi": 52,
      "hit": false,
      "t": 191071.34895832863,
      "d": 82.14282291667769,
      "v": 63
    },
    {
      "midi": 66,
      "hit": false,
      "t": 191071.34895832863,
      "d": 199.9999166666821,
      "v": 71
    },
    {
      "midi": 49,
      "hit": false,
      "t": 191157.06320832865,
      "d": 21.42856249999022,
      "v": 62
    },
    {
      "midi": 35,
      "hit": false,
      "t": 191274.92030207865,
      "d": 285.714166666643,
      "v": 53
    },
    {
      "midi": 59,
      "hit": false,
      "t": 191274.92030207865,
      "d": 332.14271874996484,
      "v": 78
    },
    {
      "midi": 54,
      "hit": false,
      "t": 191478.49164582865,
      "d": 71.42854166665347,
      "v": 59
    },
    {
      "midi": 62,
      "hit": false,
      "t": 191564.20589582864,
      "d": 35.71427083332674,
      "v": 58
    },
    {
      "midi": 66,
      "hit": false,
      "t": 191639.20586457863,
      "d": 89.2856770833314,
      "v": 71
    },
    {
      "midi": 78,
      "hit": false,
      "t": 191639.20586457863,
      "d": 107.14281250000931,
      "v": 85
    },
    {
      "midi": 59,
      "hit": false,
      "t": 191667.7772812453,
      "d": 64.28568749999977,
      "v": 42
    },
    {
      "midi": 54,
      "hit": false,
      "t": 191742.7772499953,
      "d": 60.714260416687466,
      "v": 57
    },
    {
      "midi": 79,
      "hit": false,
      "t": 191828.4914999953,
      "d": 164.28564583335537,
      "v": 85
    },
    {
      "midi": 67,
      "hit": false,
      "t": 191832.06292707863,
      "d": 174.99992708335049,
      "v": 74
    },
    {
      "midi": 47,
      "hit": false,
      "t": 191857.06291666196,
      "d": 57.14283333334606,
      "v": 57
    },
    {
      "midi": 52,
      "hit": false,
      "t": 191928.49145832864,
      "d": 64.28568749999977,
      "v": 68
    },
    {
      "midi": 55,
      "hit": false,
      "t": 192014.20570832863,
      "d": 46.42855208332185,
      "v": 68
    },
    {
      "midi": 76,
      "hit": false,
      "t": 192014.20570832863,
      "d": 46.42855208332185,
      "v": 68
    },
    {
      "midi": 73,
      "hit": false,
      "t": 192024.91998957863,
      "d": 21.42856249999022,
      "v": 37
    },
    {
      "midi": 64,
      "hit": false,
      "t": 192082.06282291195,
      "d": 78.57139583333628,
      "v": 64
    },
    {
      "midi": 70,
      "hit": false,
      "t": 192185.6342083286,
      "d": 53.57140625000466,
      "v": 77
    },
    {
      "midi": 55,
      "hit": false,
      "t": 192185.6342083286,
      "d": 71.42854166668258,
      "v": 72
    },
    {
      "midi": 82,
      "hit": false,
      "t": 192185.6342083286,
      "d": 110.71423958335072,
      "v": 85
    },
    {
      "midi": 52,
      "hit": false,
      "t": 192274.91988541197,
      "d": 89.2856770833314,
      "v": 66
    },
    {
      "midi": 47,
      "hit": false,
      "t": 192371.34841666196,
      "d": 60.714260416687466,
      "v": 68
    },
    {
      "midi": 83,
      "hit": false,
      "t": 192374.9198437453,
      "d": 146.42851041667745,
      "v": 79
    },
    {
      "midi": 71,
      "hit": false,
      "t": 192374.9198437453,
      "d": 160.71421875001397,
      "v": 69
    },
    {
      "midi": 54,
      "hit": false,
      "t": 192460.63409374532,
      "d": 57.14283333331696,
      "v": 69
    },
    {
      "midi": 59,
      "hit": false,
      "t": 192532.06263541197,
      "d": 60.71426041665836,
      "v": 74
    },
    {
      "midi": 74,
      "hit": false,
      "t": 192546.3483437453,
      "d": 57.14283333331696,
      "v": 68
    },
    {
      "midi": 62,
      "hit": false,
      "t": 192621.3483124953,
      "d": 57.14283333334606,
      "v": 67
    },
    {
      "midi": 59,
      "hit": false,
      "t": 192707.06256249532,
      "d": 49.999979166692356,
      "v": 59
    },
    {
      "midi": 78,
      "hit": false,
      "t": 192710.63398957867,
      "d": 92.8571041666728,
      "v": 88
    },
    {
      "midi": 66,
      "hit": false,
      "t": 192714.205416662,
      "d": 67.85711458334117,
      "v": 68
    },
    {
      "midi": 54,
      "hit": false,
      "t": 192782.06253124535,
      "d": 53.57140625000466,
      "v": 56
    },
    {
      "midi": 79,
      "hit": false,
      "t": 192885.633916662,
      "d": 167.85707291669678,
      "v": 89
    },
    {
      "midi": 67,
      "hit": false,
      "t": 192889.20534374533,
      "d": 160.71421875001397,
      "v": 74
    },
    {
      "midi": 47,
      "hit": false,
      "t": 192910.63390624532,
      "d": 53.57140625000466,
      "v": 58
    },
    {
      "midi": 52,
      "hit": false,
      "t": 192978.49102082866,
      "d": 57.14283333334606,
      "v": 60
    },
    {
      "midi": 55,
      "hit": false,
      "t": 193064.20527082868,
      "d": 39.28569791663904,
      "v": 57
    },
    {
      "midi": 76,
      "hit": false,
      "t": 193071.34812499533,
      "d": 42.85712499998044,
      "v": 63
    },
    {
      "midi": 73,
      "hit": false,
      "t": 193078.490979162,
      "d": 21.42856249999022,
      "v": 45
    },
    {
      "midi": 64,
      "hit": false,
      "t": 193124.9195312453,
      "d": 64.28568749999977,
      "v": 60
    },
    {
      "midi": 55,
      "hit": false,
      "t": 193224.91948957863,
      "d": 64.28568749999977,
      "v": 59
    },
    {
      "midi": 70,
      "hit": false,
      "t": 193232.0623437453,
      "d": 107.14281250000931,
      "v": 83
    },
    {
      "midi": 82,
      "hit": false,
      "t": 193232.0623437453,
      "d": 139.28565625002375,
      "v": 93
    },
    {
      "midi": 52,
      "hit": false,
      "t": 193332.06230207864,
      "d": 71.42854166668258,
      "v": 21
    },
    {
      "midi": 47,
      "hit": false,
      "t": 193432.062260412,
      "d": 60.71426041665836,
      "v": 58
    },
    {
      "midi": 83,
      "hit": false,
      "t": 193432.062260412,
      "d": 164.28564583332627,
      "v": 86
    },
    {
      "midi": 71,
      "hit": false,
      "t": 193435.63368749534,
      "d": 185.7142083333165,
      "v": 74
    },
    {
      "midi": 54,
      "hit": false,
      "t": 193517.776510412,
      "d": 60.71426041665836,
      "v": 58
    },
    {
      "midi": 59,
      "hit": false,
      "t": 193596.34790624533,
      "d": 57.14283333334606,
      "v": 64
    },
    {
      "midi": 78,
      "hit": false,
      "t": 193603.49076041198,
      "d": 121.42852083337493,
      "v": 62
    },
    {
      "midi": 74,
      "hit": false,
      "t": 193607.06218749532,
      "d": 49.999979166692356,
      "v": 60
    },
    {
      "midi": 62,
      "hit": false,
      "t": 193685.6335833287,
      "d": 64.28568749999977,
      "v": 53
    },
    {
      "midi": 59,
      "hit": false,
      "t": 193771.34783332868,
      "d": 89.2856770833314,
      "v": 56
    },
    {
      "midi": 71,
      "hit": false,
      "t": 193771.34783332868,
      "d": 160.71421874998487,
      "v": 75
    },
    {
      "midi": 83,
      "hit": false,
      "t": 193771.34783332868,
      "d": 174.99992708332138,
      "v": 88
    },
    {
      "midi": 54,
      "hit": false,
      "t": 193857.06208332867,
      "d": 89.2856770833314,
      "v": 61
    },
    {
      "midi": 79,
      "hit": false,
      "t": 193953.49061457865,
      "d": 146.42851041667745,
      "v": 76
    },
    {
      "midi": 76,
      "hit": false,
      "t": 193960.6334687453,
      "d": 135.71422916668234,
      "v": 65
    },
    {
      "midi": 52,
      "hit": false,
      "t": 193971.3477499953,
      "d": 57.14283333334606,
      "v": 62
    },
    {
      "midi": 55,
      "hit": false,
      "t": 194046.34771874532,
      "d": 78.57139583333628,
      "v": 59
    },
    {
      "midi": 82,
      "hit": false,
      "t": 194121.34768749532,
      "d": 124.99994791668723,
      "v": 73
    },
    {
      "midi": 70,
      "hit": false,
      "t": 194124.91911457866,
      "d": 67.85711458334117,
      "v": 68
    },
    {
      "midi": 59,
      "hit": false,
      "t": 194135.63339582866,
      "d": 71.42854166668258,
      "v": 63
    },
    {
      "midi": 64,
      "hit": false,
      "t": 194224.91907291202,
      "d": 82.14282291667769,
      "v": 60
    },
    {
      "midi": 71,
      "hit": false,
      "t": 194274.91905207868,
      "d": 49.99997916666325,
      "v": 77
    },
    {
      "midi": 83,
      "hit": false,
      "t": 194274.91905207868,
      "d": 82.14282291667769,
      "v": 88
    },
    {
      "midi": 59,
      "hit": false,
      "t": 194314.20474999535,
      "d": 67.85711458334117,
      "v": 54
    },
    {
      "midi": 55,
      "hit": false,
      "t": 194378.49043749535,
      "d": 92.8571041666728,
      "v": 59
    },
    {
      "midi": 74,
      "hit": false,
      "t": 194467.77611457868,
      "d": 142.85708333333605,
      "v": 75
    },
    {
      "midi": 86,
      "hit": false,
      "t": 194467.77611457868,
      "d": 1182.1423645834439,
      "v": 85
    },
    {
      "midi": 50,
      "hit": false,
      "t": 194503.490385412,
      "d": 42.857125000009546,
      "v": 61
    },
    {
      "midi": 57,
      "hit": false,
      "t": 194571.34749999535,
      "d": 49.99997916666325,
      "v": 52
    },
    {
      "midi": 81,
      "hit": false,
      "t": 194635.63318749535,
      "d": 139.28565625002375,
      "v": 64
    },
    {
      "midi": 78,
      "hit": false,
      "t": 194639.2046145787,
      "d": 82.14282291667769,
      "v": 43
    },
    {
      "midi": 62,
      "hit": false,
      "t": 194642.77604166203,
      "d": 64.28568749999977,
      "v": 45
    },
    {
      "midi": 66,
      "hit": false,
      "t": 194721.34743749537,
      "d": 71.42854166668258,
      "v": 63
    },
    {
      "midi": 62,
      "hit": false,
      "t": 194796.3474062454,
      "d": 82.14282291667769,
      "v": 57
    },
    {
      "midi": 74,
      "hit": false,
      "t": 194799.91883332873,
      "d": 199.999916666653,
      "v": 72
    },
    {
      "midi": 57,
      "hit": false,
      "t": 194885.63308332872,
      "d": 82.14282291667769,
      "v": 60
    },
    {
      "midi": 82,
      "hit": false,
      "t": 194974.91876041205,
      "d": 160.71421874998487,
      "v": 61
    },
    {
      "midi": 55,
      "hit": false,
      "t": 194989.2044687454,
      "d": 71.42854166665347,
      "v": 56
    },
    {
      "midi": 79,
      "hit": false,
      "t": 194989.2044687454,
      "d": 135.71422916665324,
      "v": 56
    },
    {
      "midi": 58,
      "hit": false,
      "t": 195074.91871874538,
      "d": 57.14283333331696,
      "v": 47
    },
    {
      "midi": 62,
      "hit": false,
      "t": 195149.91868749537,
      "d": 57.14283333334606,
      "v": 54
    },
    {
      "midi": 74,
      "hit": false,
      "t": 195149.91868749537,
      "d": 128.57137500002864,
      "v": 65
    },
    {
      "midi": 70,
      "hit": false,
      "t": 195224.9186562454,
      "d": 49.99997916666325,
      "v": 54
    },
    {
      "midi": 82,
      "hit": false,
      "t": 195310.63290624542,
      "d": 149.99993749998976,
      "v": 51
    },
    {
      "midi": 62,
      "hit": false,
      "t": 195317.77576041207,
      "d": 35.71427083332674,
      "v": 38
    },
    {
      "midi": 79,
      "hit": false,
      "t": 195317.77576041207,
      "d": 121.42852083331672,
      "v": 55
    },
    {
      "midi": 58,
      "hit": false,
      "t": 195374.9185937454,
      "d": 82.14282291667769,
      "v": 42
    },
    {
      "midi": 74,
      "hit": false,
      "t": 195489.20426041208,
      "d": 164.28564583338448,
      "v": 63
    },
    {
      "midi": 50,
      "hit": false,
      "t": 195499.91854166207,
      "d": 60.714260416687466,
      "v": 63
    },
    {
      "midi": 57,
      "hit": false,
      "t": 195589.20421874544,
      "d": 32.142843750014435,
      "v": 42
    },
    {
      "midi": 62,
      "hit": false,
      "t": 195639.20419791213,
      "d": 82.14282291667769,
      "v": 66
    },
    {
      "midi": 81,
      "hit": false,
      "t": 195653.48990624546,
      "d": 24.999989583331626,
      "v": 58
    },
    {
      "midi": 78,
      "hit": false,
      "t": 195653.48990624546,
      "d": 42.857125000009546,
      "v": 45
    },
    {
      "midi": 66,
      "hit": false,
      "t": 195732.0613020788,
      "d": 60.71426041665836,
      "v": 62
    },
    {
      "midi": 81,
      "hit": false,
      "t": 195807.0612708288,
      "d": 64.28568749999977,
      "v": 82
    },
    {
      "midi": 62,
      "hit": false,
      "t": 195807.0612708288,
      "d": 74.99996874999488,
      "v": 54
    },
    {
      "midi": 69,
      "hit": false,
      "t": 195810.63269791214,
      "d": 39.28569791666814,
      "v": 70
    },
    {
      "midi": 57,
      "hit": false,
      "t": 195885.63266666213,
      "d": 24.999989583331626,
      "v": 57
    },
    {
      "midi": 70,
      "hit": false,
      "t": 195982.06119791212,
      "d": 139.28565624999464,
      "v": 71
    },
    {
      "midi": 82,
      "hit": false,
      "t": 195985.63262499546,
      "d": 153.57136458330206,
      "v": 81
    },
    {
      "midi": 50,
      "hit": false,
      "t": 196003.4897604121,
      "d": 49.99997916666325,
      "v": 65
    },
    {
      "midi": 55,
      "hit": false,
      "t": 196082.06115624544,
      "d": 46.42855208332185,
      "v": 63
    },
    {
      "midi": 79,
      "hit": false,
      "t": 196157.06112499544,
      "d": 46.42855208335095,
      "v": 66
    },
    {
      "midi": 58,
      "hit": false,
      "t": 196157.06112499544,
      "d": 53.57140625000466,
      "v": 51
    },
    {
      "midi": 76,
      "hit": false,
      "t": 196167.77540624543,
      "d": 17.85713541667792,
      "v": 51
    },
    {
      "midi": 67,
      "hit": false,
      "t": 196235.63252082877,
      "d": 64.28568749999977,
      "v": 62
    },
    {
      "midi": 58,
      "hit": false,
      "t": 196321.34677082876,
      "d": 71.42854166665347,
      "v": 59
    },
    {
      "midi": 73,
      "hit": false,
      "t": 196328.48962499542,
      "d": 67.85711458334117,
      "v": 70
    },
    {
      "midi": 85,
      "hit": false,
      "t": 196328.48962499542,
      "d": 89.2856770833314,
      "v": 83
    },
    {
      "midi": 55,
      "hit": false,
      "t": 196432.0610104121,
      "d": 53.57140625000466,
      "v": 17
    },
    {
      "midi": 50,
      "hit": false,
      "t": 196503.48955207877,
      "d": 67.85711458334117,
      "v": 67
    },
    {
      "midi": 86,
      "hit": false,
      "t": 196507.0609791621,
      "d": 160.71421875001397,
      "v": 80
    },
    {
      "midi": 74,
      "hit": false,
      "t": 196510.63240624545,
      "d": 139.28565624999464,
      "v": 70
    },
    {
      "midi": 57,
      "hit": false,
      "t": 196592.7752291621,
      "d": 42.857125000009546,
      "v": 64
    },
    {
      "midi": 62,
      "hit": false,
      "t": 196664.20377082878,
      "d": 74.99996875002398,
      "v": 37
    },
    {
      "midi": 78,
      "hit": false,
      "t": 196667.77519791212,
      "d": 53.57140625000466,
      "v": 53
    },
    {
      "midi": 81,
      "hit": false,
      "t": 196671.34662499547,
      "d": 46.42855208332185,
      "v": 64
    },
    {
      "midi": 66,
      "hit": false,
      "t": 196749.9180208288,
      "d": 64.28568749999977,
      "v": 62
    },
    {
      "midi": 81,
      "hit": false,
      "t": 196835.6322708288,
      "d": 64.28568749999977,
      "v": 78
    },
    {
      "midi": 69,
      "hit": false,
      "t": 196839.20369791213,
      "d": 46.42855208332185,
      "v": 65
    },
    {
      "midi": 62,
      "hit": false,
      "t": 196839.20369791213,
      "d": 74.99996874999488,
      "v": 60
    },
    {
      "midi": 57,
      "hit": false,
      "t": 196921.34652082878,
      "d": 24.999989583331626,
      "v": 52
    },
    {
      "midi": 82,
      "hit": false,
      "t": 197014.20362499545,
      "d": 139.28565625002375,
      "v": 80
    },
    {
      "midi": 70,
      "hit": false,
      "t": 197017.7750520788,
      "d": 121.42852083334583,
      "v": 73
    },
    {
      "midi": 50,
      "hit": false,
      "t": 197042.77504166213,
      "d": 53.57140625000466,
      "v": 61
    },
    {
      "midi": 55,
      "hit": false,
      "t": 197121.34643749546,
      "d": 46.42855208335095,
      "v": 62
    },
    {
      "midi": 79,
      "hit": false,
      "t": 197178.4892708288,
      "d": 49.99997916666325,
      "v": 67
    },
    {
      "midi": 76,
      "hit": false,
      "t": 197189.2035520788,
      "d": 17.85713541667792,
      "v": 54
    },
    {
      "midi": 58,
      "hit": false,
      "t": 197192.77497916215,
      "d": 53.57140625000466,
      "v": 57
    },
    {
      "midi": 67,
      "hit": false,
      "t": 197278.48922916217,
      "d": 60.71426041665836,
      "v": 62
    },
    {
      "midi": 85,
      "hit": false,
      "t": 197357.0606249955,
      "d": 99.99995833335561,
      "v": 88
    },
    {
      "midi": 73,
      "hit": false,
      "t": 197360.63205207884,
      "d": 74.99996874999488,
      "v": 77
    },
    {
      "midi": 58,
      "hit": false,
      "t": 197367.7749062455,
      "d": 82.14282291667769,
      "v": 55
    },
    {
      "midi": 55,
      "hit": false,
      "t": 197453.48915624552,
      "d": 74.99996874999488,
      "v": 64
    },
    {
      "midi": 86,
      "hit": false,
      "t": 197539.2034062455,
      "d": 149.99993750001886,
      "v": 86
    },
    {
      "midi": 74,
      "hit": false,
      "t": 197542.77483332885,
      "d": 149.99993750001886,
      "v": 75
    },
    {
      "midi": 50,
      "hit": false,
      "t": 197546.3462604122,
      "d": 53.57140625000466,
      "v": 74
    },
    {
      "midi": 62,
      "hit": false,
      "t": 197710.63190624554,
      "d": 53.57140625000466,
      "v": 79
    },
    {
      "midi": 78,
      "hit": false,
      "t": 197721.34618749554,
      "d": 110.71423958335072,
      "v": 52
    },
    {
      "midi": 81,
      "hit": false,
      "t": 197721.34618749554,
      "d": 128.57137500002864,
      "v": 64
    },
    {
      "midi": 66,
      "hit": false,
      "t": 197799.91758332888,
      "d": 64.28568750002887,
      "v": 72
    },
    {
      "midi": 86,
      "hit": false,
      "t": 197871.34612499556,
      "d": 142.85708333333605,
      "v": 83
    },
    {
      "midi": 62,
      "hit": false,
      "t": 197874.9175520789,
      "d": 82.14282291667769,
      "v": 67
    },
    {
      "midi": 74,
      "hit": false,
      "t": 197874.9175520789,
      "d": 160.71421874998487,
      "v": 74
    },
    {
      "midi": 57,
      "hit": false,
      "t": 197964.20322916223,
      "d": 82.14282291664858,
      "v": 66
    },
    {
      "midi": 83,
      "hit": false,
      "t": 198049.91747916222,
      "d": 117.85709374997532,
      "v": 82
    },
    {
      "midi": 79,
      "hit": false,
      "t": 198060.63176041222,
      "d": 92.8571041666437,
      "v": 60
    },
    {
      "midi": 55,
      "hit": false,
      "t": 198071.3460416622,
      "d": 53.57140625000466,
      "v": 60
    },
    {
      "midi": 59,
      "hit": false,
      "t": 198139.20315624552,
      "d": 64.28568749999977,
      "v": 52
    },
    {
      "midi": 73,
      "hit": false,
      "t": 198210.63169791218,
      "d": 78.57139583333628,
      "v": 81
    },
    {
      "midi": 85,
      "hit": false,
      "t": 198210.63169791218,
      "d": 92.8571041666728,
      "v": 90
    },
    {
      "midi": 62,
      "hit": false,
      "t": 198224.9174062455,
      "d": 35.71427083332674,
      "v": 57
    },
    {
      "midi": 71,
      "hit": false,
      "t": 198296.34594791217,
      "d": 60.714260416687466,
      "v": 36
    },
    {
      "midi": 69,
      "hit": false,
      "t": 198299.9173749955,
      "d": 39.28569791666814,
      "v": 30
    },
    {
      "midi": 74,
      "hit": false,
      "t": 198364.2030624955,
      "d": 39.28569791666814,
      "v": 82
    },
    {
      "midi": 86,
      "hit": false,
      "t": 198364.2030624955,
      "d": 67.85711458334117,
      "v": 92
    },
    {
      "midi": 62,
      "hit": false,
      "t": 198367.77448957885,
      "d": 71.42854166665347,
      "v": 56
    },
    {
      "midi": 59,
      "hit": false,
      "t": 198442.77445832884,
      "d": 85.71424999998999,
      "v": 44
    },
    {
      "midi": 78,
      "hit": false,
      "t": 198549.91727082882,
      "d": 110.71423958332161,
      "v": 79
    },
    {
      "midi": 90,
      "hit": false,
      "t": 198549.91727082882,
      "d": 1199.999499999918,
      "v": 85
    },
    {
      "midi": 54,
      "hit": false,
      "t": 198557.06012499548,
      "d": 82.14282291667769,
      "v": 67
    },
    {
      "midi": 61,
      "hit": false,
      "t": 198642.7743749955,
      "d": 64.28568749999977,
      "v": 58
    },
    {
      "midi": 85,
      "hit": false,
      "t": 198717.7743437455,
      "d": 82.14282291664858,
      "v": 58
    },
    {
      "midi": 82,
      "hit": false,
      "t": 198721.34577082883,
      "d": 110.71423958329251,
      "v": 48
    },
    {
      "midi": 64,
      "hit": false,
      "t": 198728.4886249955,
      "d": 64.28568749999977,
      "v": 58
    },
    {
      "midi": 70,
      "hit": false,
      "t": 198810.63144791214,
      "d": 71.42854166665347,
      "v": 56
    },
    {
      "midi": 78,
      "hit": false,
      "t": 198885.63141666213,
      "d": 189.2856354166579,
      "v": 58
    },
    {
      "midi": 64,
      "hit": false,
      "t": 198896.34569791213,
      "d": 46.42855208332185,
      "v": 55
    },
    {
      "midi": 61,
      "hit": false,
      "t": 198946.3456770788,
      "d": 85.71424999998999,
      "v": 53
    },
    {
      "midi": 58,
      "hit": false,
      "t": 199039.20278124543,
      "d": 17.85713541667792,
      "v": 58
    },
    {
      "midi": 59,
      "hit": false,
      "t": 199067.7741979121,
      "d": 53.57140625000466,
      "v": 68
    },
    {
      "midi": 86,
      "hit": false,
      "t": 199071.34562499545,
      "d": 132.14280208331184,
      "v": 62
    },
    {
      "midi": 83,
      "hit": false,
      "t": 199085.63133332878,
      "d": 28.57141666667303,
      "v": 46
    },
    {
      "midi": 62,
      "hit": false,
      "t": 199146.34559374544,
      "d": 71.42854166665347,
      "v": 57
    },
    {
      "midi": 66,
      "hit": false,
      "t": 199224.91698957875,
      "d": 39.28569791666814,
      "v": 51
    },
    {
      "midi": 78,
      "hit": false,
      "t": 199228.4884166621,
      "d": 189.2856354166579,
      "v": 62
    },
    {
      "midi": 74,
      "hit": false,
      "t": 199303.48838541209,
      "d": 42.857125000009546,
      "v": 36
    },
    {
      "midi": 72,
      "hit": false,
      "t": 199314.20266666208,
      "d": 17.85713541667792,
      "v": 25
    },
    {
      "midi": 66,
      "hit": false,
      "t": 199385.63120832876,
      "d": 82.14282291664858,
      "v": 61
    },
    {
      "midi": 86,
      "hit": false,
      "t": 199392.77406249542,
      "d": 153.57136458333116,
      "v": 59
    },
    {
      "midi": 83,
      "hit": false,
      "t": 199403.4883437454,
      "d": 135.71422916668234,
      "v": 49
    },
    {
      "midi": 62,
      "hit": false,
      "t": 199471.34545832875,
      "d": 49.99997916666325,
      "v": 58
    },
    {
      "midi": 58,
      "hit": false,
      "t": 199564.20256249543,
      "d": 78.57139583333628,
      "v": 65
    },
    {
      "midi": 78,
      "hit": false,
      "t": 199564.20256249543,
      "d": 203.5713437499944,
      "v": 67
    },
    {
      "midi": 61,
      "hit": false,
      "t": 199649.91681249542,
      "d": 78.57139583333628,
      "v": 55
    },
    {
      "midi": 66,
      "hit": false,
      "t": 199732.0596354121,
      "d": 64.28568749997066,
      "v": 58
    },
    {
      "midi": 85,
      "hit": false,
      "t": 199735.63106249543,
      "d": 53.57140624997555,
      "v": 62
    },
    {
      "midi": 82,
      "hit": false,
      "t": 199742.7739166621,
      "d": 46.42855208332185,
      "v": 44
    },
    {
      "midi": 73,
      "hit": false,
      "t": 199817.77388541205,
      "d": 46.42855208332185,
      "v": 57
    },
    {
      "midi": 66,
      "hit": false,
      "t": 199892.77385416205,
      "d": 82.14282291664858,
      "v": 58
    },
    {
      "midi": 73,
      "hit": false,
      "t": 199899.9167083287,
      "d": 110.71423958332161,
      "v": 79
    },
    {
      "midi": 85,
      "hit": false,
      "t": 199899.9167083287,
      "d": 117.85709374997532,
      "v": 90
    },
    {
      "midi": 61,
      "hit": false,
      "t": 199982.05953124535,
      "d": 74.99996874999488,
      "v": 54
    },
    {
      "midi": 86,
      "hit": false,
      "t": 200071.34520832868,
      "d": 142.85708333333605,
      "v": 88
    },
    {
      "midi": 74,
      "hit": false,
      "t": 200074.91663541202,
      "d": 178.5713541666628,
      "v": 82
    },
    {
      "midi": 57,
      "hit": false,
      "t": 200096.34519791204,
      "d": 57.14283333331696,
      "v": 64
    },
    {
      "midi": 59,
      "hit": false,
      "t": 200174.91659374535,
      "d": 67.85711458334117,
      "v": 47
    },
    {
      "midi": 66,
      "hit": false,
      "t": 200249.91656249535,
      "d": 64.28568750002887,
      "v": 61
    },
    {
      "midi": 78,
      "hit": false,
      "t": 200264.20227082868,
      "d": 17.85713541667792,
      "v": 32
    },
    {
      "midi": 83,
      "hit": false,
      "t": 200264.20227082868,
      "d": 17.85713541667792,
      "v": 53
    },
    {
      "midi": 71,
      "hit": false,
      "t": 200367.77365624538,
      "d": 32.142843750014435,
      "v": 18
    },
    {
      "midi": 87,
      "hit": false,
      "t": 200407.05935416205,
      "d": 107.14281250000931,
      "v": 89
    },
    {
      "midi": 75,
      "hit": false,
      "t": 200410.6307812454,
      "d": 96.4285312499851,
      "v": 81
    },
    {
      "midi": 66,
      "hit": false,
      "t": 200432.05934374538,
      "d": 71.42854166665347,
      "v": 56
    },
    {
      "midi": 59,
      "hit": false,
      "t": 200510.63073957872,
      "d": 82.14282291667769,
      "v": 55
    },
    {
      "midi": 88,
      "hit": false,
      "t": 200592.7735624954,
      "d": 514.2854999999399,
      "v": 82
    },
    {
      "midi": 76,
      "hit": false,
      "t": 200596.34498957873,
      "d": 160.71421874995576,
      "v": 72
    },
    {
      "midi": 56,
      "hit": false,
      "t": 200617.77355207872,
      "d": 82.14282291664858,
      "v": 63
    },
    {
      "midi": 59,
      "hit": false,
      "t": 200714.20208332868,
      "d": 82.14282291667769,
      "v": 53
    },
    {
      "midi": 83,
      "hit": false,
      "t": 200771.34491666203,
      "d": 124.99994791665813,
      "v": 58
    },
    {
      "midi": 80,
      "hit": false,
      "t": 200778.48777082868,
      "d": 124.99994791665813,
      "v": 39
    },
    {
      "midi": 64,
      "hit": false,
      "t": 200803.487760412,
      "d": 53.57140625000466,
      "v": 62
    },
    {
      "midi": 71,
      "hit": false,
      "t": 200874.9163020787,
      "d": 82.14282291664858,
      "v": 45
    },
    {
      "midi": 76,
      "hit": false,
      "t": 200928.48770832867,
      "d": 117.85709375000442,
      "v": 64
    },
    {
      "midi": 64,
      "hit": false,
      "t": 200964.201979162,
      "d": 89.2856770833314,
      "v": 65
    },
    {
      "midi": 61,
      "hit": false,
      "t": 201057.05908332867,
      "d": 78.57139583330718,
      "v": 54
    },
    {
      "midi": 59,
      "hit": false,
      "t": 201067.77336457866,
      "d": 17.85713541667792,
      "v": 21
    },
    {
      "midi": 85,
      "hit": false,
      "t": 201128.48762499532,
      "d": 214.28562499996042,
      "v": 74
    },
    {
      "midi": 81,
      "hit": false,
      "t": 201135.63047916198,
      "d": 92.8571041666437,
      "v": 70
    },
    {
      "midi": 55,
      "hit": false,
      "t": 201157.05904166197,
      "d": 71.42854166665347,
      "v": 64
    },
    {
      "midi": 61,
      "hit": false,
      "t": 201228.48758332862,
      "d": 74.99996874999488,
      "v": 64
    },
    {
      "midi": 64,
      "hit": false,
      "t": 201307.05897916196,
      "d": 64.28568749999977,
      "v": 68
    },
    {
      "midi": 69,
      "hit": false,
      "t": 201389.20180207863,
      "d": 85.71425000001909,
      "v": 38
    },
    {
      "midi": 78,
      "hit": false,
      "t": 201399.91608332863,
      "d": 39.28569791666814,
      "v": 80
    },
    {
      "midi": 90,
      "hit": false,
      "t": 201399.91608332863,
      "d": 46.42855208335095,
      "v": 84
    },
    {
      "midi": 91,
      "hit": false,
      "t": 201421.34464582862,
      "d": 21.428562500019325,
      "v": 45
    },
    {
      "midi": 88,
      "hit": false,
      "t": 201496.34461457864,
      "d": 53.57140625003376,
      "v": 96
    },
    {
      "midi": 64,
      "hit": false,
      "t": 201499.91604166199,
      "d": 21.428562500019325,
      "v": 28
    },
    {
      "midi": 76,
      "hit": false,
      "t": 201503.48746874533,
      "d": 35.71427083335584,
      "v": 87
    },
    {
      "midi": 61,
      "hit": false,
      "t": 201524.91603124535,
      "d": 107.14281250000931,
      "v": 46
    },
    {
      "midi": 86,
      "hit": false,
      "t": 201671.34454166202,
      "d": 164.28564583332627,
      "v": 85
    },
    {
      "midi": 54,
      "hit": false,
      "t": 201674.91596874536,
      "d": 67.85711458334117,
      "v": 64
    },
    {
      "midi": 74,
      "hit": false,
      "t": 201678.4873958287,
      "d": 189.2856354166579,
      "v": 78
    },
    {
      "midi": 57,
      "hit": false,
      "t": 201764.2016458287,
      "d": 85.71424999998999,
      "v": 58
    },
    {
      "midi": 62,
      "hit": false,
      "t": 201849.9158958287,
      "d": 64.28568749999977,
      "v": 65
    },
    {
      "midi": 81,
      "hit": false,
      "t": 201853.48732291203,
      "d": 67.85711458331207,
      "v": 67
    },
    {
      "midi": 78,
      "hit": false,
      "t": 201853.48732291203,
      "d": 74.99996874996577,
      "v": 56
    },
    {
      "midi": 69,
      "hit": false,
      "t": 201932.05871874533,
      "d": 60.71426041665836,
      "v": 66
    },
    {
      "midi": 85,
      "hit": false,
      "t": 202010.63011457867,
      "d": 46.42855208335095,
      "v": 87
    },
    {
      "midi": 73,
      "hit": false,
      "t": 202010.63011457867,
      "d": 57.14283333334606,
      "v": 83
    },
    {
      "midi": 62,
      "hit": false,
      "t": 202024.915822912,
      "d": 53.57140625000466,
      "v": 54
    },
    {
      "midi": 57,
      "hit": false,
      "t": 202078.487229162,
      "d": 85.71424999998999,
      "v": 56
    },
    {
      "midi": 83,
      "hit": false,
      "t": 202199.91574999536,
      "d": 135.71422916668234,
      "v": 83
    },
    {
      "midi": 71,
      "hit": false,
      "t": 202203.4871770787,
      "d": 117.85709375000442,
      "v": 72
    },
    {
      "midi": 54,
      "hit": false,
      "t": 202207.05860416204,
      "d": 74.99996874999488,
      "v": 49
    },
    {
      "midi": 56,
      "hit": false,
      "t": 202282.05857291204,
      "d": 96.4285312500142,
      "v": 56
    },
    {
      "midi": 80,
      "hit": false,
      "t": 202367.77282291205,
      "d": 49.99997916666325,
      "v": 60
    },
    {
      "midi": 62,
      "hit": false,
      "t": 202367.77282291205,
      "d": 60.71426041665836,
      "v": 60
    },
    {
      "midi": 74,
      "hit": false,
      "t": 202374.9156770787,
      "d": 21.428562500019325,
      "v": 56
    },
    {
      "midi": 68,
      "hit": false,
      "t": 202435.62993749537,
      "d": 71.42854166665347,
      "v": 56
    },
    {
      "midi": 73,
      "hit": false,
      "t": 202557.05845832868,
      "d": 35.71427083332674,
      "v": 69
    },
    {
      "midi": 85,
      "hit": false,
      "t": 202557.05845832868,
      "d": 49.99997916666325,
      "v": 82
    },
    {
      "midi": 56,
      "hit": false,
      "t": 202557.05845832868,
      "d": 71.42854166665347,
      "v": 58
    },
    {
      "midi": 53,
      "hit": false,
      "t": 202628.48699999534,
      "d": 42.857125000009546,
      "v": 60
    },
    {
      "midi": 66,
      "hit": false,
      "t": 202728.4869583287,
      "d": 192.8570624999993,
      "v": 65
    },
    {
      "midi": 78,
      "hit": false,
      "t": 202728.4869583287,
      "d": 624.9997395833198,
      "v": 84
    },
    {
      "midi": 52,
      "hit": false,
      "t": 202732.05838541203,
      "d": 96.4285312499851,
      "v": 70
    },
    {
      "midi": 54,
      "hit": false,
      "t": 202824.91548957868,
      "d": 57.14283333331696,
      "v": 52
    },
    {
      "midi": 58,
      "hit": false,
      "t": 202899.91545832867,
      "d": 60.714260416687466,
      "v": 52
    },
    {
      "midi": 73,
      "hit": false,
      "t": 202917.77259374535,
      "d": 74.99996875002398,
      "v": 54
    },
    {
      "midi": 70,
      "hit": false,
      "t": 202921.3440208287,
      "d": 85.71425000001909,
      "v": 45
    },
    {
      "midi": 64,
      "hit": false,
      "t": 202989.20113541203,
      "d": 71.42854166668258,
      "v": 55
    },
    {
      "midi": 58,
      "hit": false,
      "t": 203064.20110416206,
      "d": 67.85711458334117,
      "v": 49
    },
    {
      "midi": 66,
      "hit": false,
      "t": 203096.34394791207,
      "d": 217.85705208330182,
      "v": 64
    },
    {
      "midi": 54,
      "hit": false,
      "t": 203139.20107291205,
      "d": 89.2856770833314,
      "v": 60
    },
    {
      "midi": 50,
      "hit": false,
      "t": 203239.20103124538,
      "d": 82.14282291664858,
      "v": 65
    },
    {
      "midi": 74,
      "hit": false,
      "t": 203285.6295833287,
      "d": 57.14283333331696,
      "v": 64
    },
    {
      "midi": 71,
      "hit": false,
      "t": 203289.20101041204,
      "d": 32.14284374998533,
      "v": 52
    },
    {
      "midi": 54,
      "hit": false,
      "t": 203332.05813541202,
      "d": 49.99997916666325,
      "v": 47
    },
    {
      "midi": 59,
      "hit": false,
      "t": 203399.91524999536,
      "d": 71.42854166665347,
      "v": 61
    },
    {
      "midi": 66,
      "hit": false,
      "t": 203482.058072912,
      "d": 89.2856770833314,
      "v": 64
    },
    {
      "midi": 88,
      "hit": false,
      "t": 203499.9152083287,
      "d": 49.99997916666325,
      "v": 84
    },
    {
      "midi": 76,
      "hit": false,
      "t": 203507.05806249534,
      "d": 39.28569791666814,
      "v": 70
    },
    {
      "midi": 59,
      "hit": false,
      "t": 203578.486604162,
      "d": 67.85711458331207,
      "v": 54
    },
    {
      "midi": 74,
      "hit": false,
      "t": 203599.915166662,
      "d": 60.71426041665836,
      "v": 79
    },
    {
      "midi": 86,
      "hit": false,
      "t": 203599.915166662,
      "d": 64.28568749999977,
      "v": 65
    },
    {
      "midi": 54,
      "hit": false,
      "t": 203674.91513541198,
      "d": 132.14280208331184,
      "v": 48
    },
    {
      "midi": 73,
      "hit": false,
      "t": 203778.48652082865,
      "d": 110.71423958329251,
      "v": 79
    },
    {
      "midi": 85,
      "hit": false,
      "t": 203778.48652082865,
      "d": 121.42852083328762,
      "v": 84
    },
    {
      "midi": 46,
      "hit": false,
      "t": 203796.3436562453,
      "d": 49.99997916666325,
      "v": 53
    },
    {
      "midi": 54,
      "hit": false,
      "t": 203882.0579062453,
      "d": 64.28568749999977,
      "v": 44
    },
    {
      "midi": 78,
      "hit": false,
      "t": 203942.77216666195,
      "d": 35.71427083335584,
      "v": 70
    },
    {
      "midi": 76,
      "hit": false,
      "t": 203946.3435937453,
      "d": 17.85713541667792,
      "v": 64
    },
    {
      "midi": 61,
      "hit": false,
      "t": 203967.7721562453,
      "d": 67.85711458334117,
      "v": 61
    },
    {
      "midi": 64,
      "hit": false,
      "t": 204057.05783332864,
      "d": 74.99996874999488,
      "v": 61
    },
    {
      "midi": 86,
      "hit": false,
      "t": 204099.91495832865,
      "d": 49.99997916666325,
      "v": 82
    },
    {
      "midi": 74,
      "hit": false,
      "t": 204107.0578124953,
      "d": 39.28569791666814,
      "v": 64
    },
    {
      "midi": 61,
      "hit": false,
      "t": 204135.62922916198,
      "d": 49.99997916666325,
      "v": 53
    },
    {
      "midi": 54,
      "hit": false,
      "t": 204217.77205207865,
      "d": 24.999989583331626,
      "v": 45
    },
    {
      "midi": 71,
      "hit": false,
      "t": 204289.2005937453,
      "d": 121.42852083331672,
      "v": 70
    },
    {
      "midi": 83,
      "hit": false,
      "t": 204292.77202082865,
      "d": 124.99994791662903,
      "v": 71
    },
    {
      "midi": 47,
      "hit": false,
      "t": 204307.05772916196,
      "d": 57.14283333334606,
      "v": 64
    },
    {
      "midi": 54,
      "hit": false,
      "t": 204392.77197916195,
      "d": 67.85711458334117,
      "v": 54
    },
    {
      "midi": 78,
      "hit": false,
      "t": 204460.6290937453,
      "d": 35.71427083332674,
      "v": 68
    },
    {
      "midi": 59,
      "hit": false,
      "t": 204471.34337499528,
      "d": 67.85711458334117,
      "v": 60
    },
    {
      "midi": 62,
      "hit": false,
      "t": 204553.48619791196,
      "d": 78.57139583330718,
      "v": 58
    },
    {
      "midi": 86,
      "hit": false,
      "t": 204617.77188541196,
      "d": 46.42855208332185,
      "v": 87
    },
    {
      "midi": 74,
      "hit": false,
      "t": 204624.9147395786,
      "d": 42.857125000009546,
      "v": 72
    },
    {
      "midi": 59,
      "hit": false,
      "t": 204624.9147395786,
      "d": 53.57140625000466,
      "v": 54
    },
    {
      "midi": 54,
      "hit": false,
      "t": 204696.3432812453,
      "d": 42.857125000009546,
      "v": 57
    },
    {
      "midi": 78,
      "hit": false,
      "t": 204807.05752082865,
      "d": 117.85709374997532,
      "v": 88
    },
    {
      "midi": 45,
      "hit": false,
      "t": 204810.628947912,
      "d": 67.85711458334117,
      "v": 63
    },
    {
      "midi": 66,
      "hit": false,
      "t": 204810.628947912,
      "d": 92.8571041666437,
      "v": 73
    },
    {
      "midi": 51,
      "hit": false,
      "t": 204892.77177082864,
      "d": 60.71426041665836,
      "v": 65
    },
    {
      "midi": 54,
      "hit": false,
      "t": 204999.91458332862,
      "d": 57.14283333334606,
      "v": 55
    },
    {
      "midi": 72,
      "hit": false,
      "t": 204999.91458332862,
      "d": 74.99996874999488,
      "v": 51
    },
    {
      "midi": 75,
      "hit": false,
      "t": 204999.91458332862,
      "d": 89.2856770833314,
      "v": 64
    },
    {
      "midi": 60,
      "hit": false,
      "t": 205067.77169791196,
      "d": 89.2856770833314,
      "v": 57
    },
    {
      "midi": 54,
      "hit": false,
      "t": 205146.3430937453,
      "d": 71.42854166668258,
      "v": 47
    },
    {
      "midi": 79,
      "hit": false,
      "t": 205153.48594791195,
      "d": 49.999979166692356,
      "v": 85
    },
    {
      "midi": 67,
      "hit": false,
      "t": 205160.62880207863,
      "d": 42.857125000009546,
      "v": 66
    },
    {
      "midi": 51,
      "hit": false,
      "t": 205221.34306249532,
      "d": 46.42855208332185,
      "v": 60
    },
    {
      "midi": 43,
      "hit": false,
      "t": 205335.62872916198,
      "d": 39.28569791666814,
      "v": 64
    },
    {
      "midi": 76,
      "hit": false,
      "t": 205335.62872916198,
      "d": 103.57138541666791,
      "v": 82
    },
    {
      "midi": 64,
      "hit": false,
      "t": 205335.62872916198,
      "d": 114.28566666666302,
      "v": 71
    },
    {
      "midi": 47,
      "hit": false,
      "t": 205410.62869791198,
      "d": 67.85711458334117,
      "v": 60
    },
    {
      "midi": 67,
      "hit": false,
      "t": 205492.77152082865,
      "d": 24.999989583331626,
      "v": 44
    },
    {
      "midi": 71,
      "hit": false,
      "t": 205492.77152082865,
      "d": 46.42855208332185,
      "v": 66
    },
    {
      "midi": 52,
      "hit": false,
      "t": 205503.48580207865,
      "d": 53.57140625000466,
      "v": 64
    },
    {
      "midi": 59,
      "hit": false,
      "t": 205585.62862499533,
      "d": 71.42854166665347,
      "v": 52
    },
    {
      "midi": 52,
      "hit": false,
      "t": 205660.62859374532,
      "d": 85.71425000001909,
      "v": 62
    },
    {
      "midi": 83,
      "hit": false,
      "t": 205685.62858332865,
      "d": 42.857125000009546,
      "v": 90
    },
    {
      "midi": 71,
      "hit": false,
      "t": 205689.200010412,
      "d": 35.71427083332674,
      "v": 74
    },
    {
      "midi": 47,
      "hit": false,
      "t": 205749.91427082868,
      "d": 57.14283333334606,
      "v": 65
    },
    {
      "midi": 62,
      "hit": false,
      "t": 205878.48564582868,
      "d": 85.71424999998999,
      "v": 75
    },
    {
      "midi": 74,
      "hit": false,
      "t": 205878.48564582868,
      "d": 121.42852083331672,
      "v": 86
    },
    {
      "midi": 42,
      "hit": false,
      "t": 205899.91420832867,
      "d": 60.71426041665836,
      "v": 64
    },
    {
      "midi": 47,
      "hit": false,
      "t": 205960.62846874533,
      "d": 71.42854166668258,
      "v": 61
    },
    {
      "midi": 54,
      "hit": false,
      "t": 206049.9141458287,
      "d": 78.57139583336539,
      "v": 69
    },
    {
      "midi": 71,
      "hit": false,
      "t": 206053.48557291203,
      "d": 42.857125000009546,
      "v": 70
    },
    {
      "midi": 66,
      "hit": false,
      "t": 206057.05699999537,
      "d": 28.57141666667303,
      "v": 54
    },
    {
      "midi": 59,
      "hit": false,
      "t": 206142.7712499954,
      "d": 64.28568749999977,
      "v": 39
    },
    {
      "midi": 54,
      "hit": false,
      "t": 206210.62836457873,
      "d": 92.8571041666728,
      "v": 59
    },
    {
      "midi": 76,
      "hit": false,
      "t": 206217.7712187454,
      "d": 57.14283333334606,
      "v": 87
    },
    {
      "midi": 64,
      "hit": false,
      "t": 206221.34264582873,
      "d": 42.857125000009546,
      "v": 75
    },
    {
      "midi": 47,
      "hit": false,
      "t": 206299.91404166206,
      "d": 46.42855208335095,
      "v": 75
    },
    {
      "midi": 40,
      "hit": false,
      "t": 206403.48542707876,
      "d": 49.99997916666325,
      "v": 62
    },
    {
      "midi": 61,
      "hit": false,
      "t": 206403.48542707876,
      "d": 117.85709375000442,
      "v": 75
    },
    {
      "midi": 73,
      "hit": false,
      "t": 206403.48542707876,
      "d": 117.85709375000442,
      "v": 85
    },
    {
      "midi": 46,
      "hit": false,
      "t": 206503.4853854121,
      "d": 57.14283333334606,
      "v": 63
    },
    {
      "midi": 70,
      "hit": false,
      "t": 206557.0567916621,
      "d": 49.99997916666325,
      "v": 59
    },
    {
      "midi": 67,
      "hit": false,
      "t": 206557.0567916621,
      "d": 53.57140625000466,
      "v": 57
    },
    {
      "midi": 49,
      "hit": false,
      "t": 206582.05678124542,
      "d": 67.85711458334117,
      "v": 62
    },
    {
      "midi": 58,
      "hit": false,
      "t": 206649.91389582877,
      "d": 99.99995833335561,
      "v": 64
    },
    {
      "midi": 67,
      "hit": false,
      "t": 206746.34242707878,
      "d": 60.71426041665836,
      "v": 76
    },
    {
      "midi": 79,
      "hit": false,
      "t": 206746.34242707878,
      "d": 99.9999583332974,
      "v": 92
    },
    {
      "midi": 49,
      "hit": false,
      "t": 206757.05670832878,
      "d": 57.14283333331696,
      "v": 56
    },
    {
      "midi": 46,
      "hit": false,
      "t": 206821.34239582875,
      "d": 107.14281250000931,
      "v": 60
    },
    {
      "midi": 40,
      "hit": false,
      "t": 206928.48520832876,
      "d": 99.9999583332974,
      "v": 62
    },
    {
      "midi": 79,
      "hit": false,
      "t": 206928.48520832876,
      "d": 132.14280208331184,
      "v": 87
    },
    {
      "midi": 67,
      "hit": false,
      "t": 206935.6280624954,
      "d": 189.2856354166288,
      "v": 78
    },
    {
      "midi": 46,
      "hit": false,
      "t": 207017.77088541206,
      "d": 67.85711458334117,
      "v": 64
    },
    {
      "midi": 49,
      "hit": false,
      "t": 207096.3422812454,
      "d": 64.28568749999977,
      "v": 65
    },
    {
      "midi": 73,
      "hit": false,
      "t": 207103.48513541205,
      "d": 42.857125000009546,
      "v": 67
    },
    {
      "midi": 70,
      "hit": false,
      "t": 207110.6279895787,
      "d": 17.85713541667792,
      "v": 44
    },
    {
      "midi": 55,
      "hit": false,
      "t": 207171.3422499954,
      "d": 92.8571041666728,
      "v": 64
    },
    {
      "midi": 70,
      "hit": false,
      "t": 207260.62792707872,
      "d": 39.28569791666814,
      "v": 77
    },
    {
      "midi": 82,
      "hit": false,
      "t": 207260.62792707872,
      "d": 57.14283333334606,
      "v": 91
    },
    {
      "midi": 49,
      "hit": false,
      "t": 207264.19935416206,
      "d": 64.28568749999977,
      "v": 60
    },
    {
      "midi": 46,
      "hit": false,
      "t": 207324.91361457872,
      "d": 92.8571041666728,
      "v": 61
    },
    {
      "midi": 73,
      "hit": false,
      "t": 207439.19928124538,
      "d": 96.4285312500142,
      "v": 80
    },
    {
      "midi": 85,
      "hit": false,
      "t": 207442.77070832872,
      "d": 82.14282291667769,
      "v": 92
    },
    {
      "midi": 40,
      "hit": false,
      "t": 207446.34213541207,
      "d": 78.57139583333628,
      "v": 67
    },
    {
      "midi": 42,
      "hit": false,
      "t": 207528.48495832874,
      "d": 107.14281249998021,
      "v": 56
    },
    {
      "midi": 74,
      "hit": false,
      "t": 207607.05635416205,
      "d": 46.42855208335095,
      "v": 87
    },
    {
      "midi": 86,
      "hit": false,
      "t": 207607.05635416205,
      "d": 78.57139583336539,
      "v": 93
    },
    {
      "midi": 46,
      "hit": false,
      "t": 207624.91348957873,
      "d": 67.85711458334117,
      "v": 62
    },
    {
      "midi": 54,
      "hit": false,
      "t": 207707.0563124954,
      "d": 82.14282291667769,
      "v": 61
    },
    {
      "midi": 76,
      "hit": false,
      "t": 207760.6277187454,
      "d": 46.42855208335095,
      "v": 88
    },
    {
      "midi": 88,
      "hit": false,
      "t": 207760.6277187454,
      "d": 82.14282291670679,
      "v": 97
    },
    {
      "midi": 46,
      "hit": false,
      "t": 207785.62770832874,
      "d": 53.57140625003376,
      "v": 53
    },
    {
      "midi": 42,
      "hit": false,
      "t": 207839.19911457878,
      "d": 67.85711458334117,
      "v": 43
    },
    {
      "midi": 91,
      "hit": false,
      "t": 207953.48478124544,
      "d": 428.57124999997905,
      "v": 97
    },
    {
      "midi": 79,
      "hit": false,
      "t": 207957.05620832878,
      "d": 149.99993749998976,
      "v": 92
    },
    {
      "midi": 38,
      "hit": false,
      "t": 207967.77048957878,
      "d": 74.99996874999488,
      "v": 67
    },
    {
      "midi": 43,
      "hit": false,
      "t": 208057.0561666621,
      "d": 78.57139583333628,
      "v": 48
    },
    {
      "midi": 46,
      "hit": false,
      "t": 208146.34184374544,
      "d": 53.57140625000466,
      "v": 56
    },
    {
      "midi": 82,
      "hit": false,
      "t": 208149.91327082878,
      "d": 128.57137499997043,
      "v": 68
    },
    {
      "midi": 85,
      "hit": false,
      "t": 208149.91327082878,
      "d": 135.71422916662414,
      "v": 76
    },
    {
      "midi": 55,
      "hit": false,
      "t": 208207.0561041621,
      "d": 78.57139583330718,
      "v": 47
    },
    {
      "midi": 46,
      "hit": false,
      "t": 208296.3417812454,
      "d": 60.714260416687466,
      "v": 56
    },
    {
      "midi": 79,
      "hit": false,
      "t": 208299.91320832874,
      "d": 82.14282291667769,
      "v": 74
    },
    {
      "midi": 43,
      "hit": false,
      "t": 208364.19889582874,
      "d": 74.99996875002398,
      "v": 56
    },
    {
      "midi": 38,
      "hit": false,
      "t": 208474.9131354121,
      "d": 92.8571041666728,
      "v": 68
    },
    {
      "midi": 78,
      "hit": false,
      "t": 208478.48456249543,
      "d": 124.99994791665813,
      "v": 85
    },
    {
      "midi": 90,
      "hit": false,
      "t": 208478.48456249543,
      "d": 371.4284166666912,
      "v": 88
    },
    {
      "midi": 42,
      "hit": false,
      "t": 208567.77023957876,
      "d": 64.28568749999977,
      "v": 54
    },
    {
      "midi": 47,
      "hit": false,
      "t": 208646.3416354121,
      "d": 67.85711458334117,
      "v": 54
    },
    {
      "midi": 86,
      "hit": false,
      "t": 208664.19877082878,
      "d": 192.8570624999993,
      "v": 60
    },
    {
      "midi": 83,
      "hit": false,
      "t": 208674.91305207877,
      "d": 99.9999583333265,
      "v": 48
    },
    {
      "midi": 54,
      "hit": false,
      "t": 208714.19874999544,
      "d": 78.57139583333628,
      "v": 61
    },
    {
      "midi": 78,
      "hit": false,
      "t": 208807.0558541621,
      "d": 103.5713854166388,
      "v": 75
    },
    {
      "midi": 47,
      "hit": false,
      "t": 208817.7701354121,
      "d": 57.14283333331696,
      "v": 61
    },
    {
      "midi": 42,
      "hit": false,
      "t": 208867.77011457877,
      "d": 85.71424999998999,
      "v": 63
    },
    {
      "midi": 89,
      "hit": false,
      "t": 208974.91292707875,
      "d": 342.85700000001816,
      "v": 90
    },
    {
      "midi": 77,
      "hit": false,
      "t": 208978.4843541621,
      "d": 128.57137499997043,
      "v": 76
    },
    {
      "midi": 37,
      "hit": false,
      "t": 208982.05578124544,
      "d": 74.99996874999488,
      "v": 70
    },
    {
      "midi": 44,
      "hit": false,
      "t": 209071.34145832874,
      "d": 53.57140625000466,
      "v": 53
    },
    {
      "midi": 49,
      "hit": false,
      "t": 209142.76999999542,
      "d": 74.99996874999488,
      "v": 60
    },
    {
      "midi": 85,
      "hit": false,
      "t": 209149.91285416207,
      "d": 171.42850000003818,
      "v": 58
    },
    {
      "midi": 83,
      "hit": false,
      "t": 209164.1985624954,
      "d": 121.42852083334583,
      "v": 49
    },
    {
      "midi": 56,
      "hit": false,
      "t": 209232.05567707875,
      "d": 82.14282291667769,
      "v": 60
    },
    {
      "midi": 77,
      "hit": false,
      "t": 209307.05564582875,
      "d": 67.85711458337028,
      "v": 68
    },
    {
      "midi": 49,
      "hit": false,
      "t": 209310.6270729121,
      "d": 85.7142500000482,
      "v": 60
    },
    {
      "midi": 44,
      "hit": false,
      "t": 209392.7698958288,
      "d": 74.99996874999488,
      "v": 55
    },
    {
      "midi": 42,
      "hit": false,
      "t": 209474.91271874544,
      "d": 78.57139583333628,
      "v": 72
    },
    {
      "midi": 88,
      "hit": false,
      "t": 209485.62699999544,
      "d": 160.71421874998487,
      "v": 84
    },
    {
      "midi": 76,
      "hit": false,
      "t": 209489.19842707878,
      "d": 128.57137499999953,
      "v": 79
    },
    {
      "midi": 49,
      "hit": false,
      "t": 209564.19839582877,
      "d": 82.14282291664858,
      "v": 58
    },
    {
      "midi": 54,
      "hit": false,
      "t": 209639.19836457877,
      "d": 71.42854166665347,
      "v": 62
    },
    {
      "midi": 82,
      "hit": false,
      "t": 209639.19836457877,
      "d": 171.42850000000908,
      "v": 59
    },
    {
      "midi": 78,
      "hit": false,
      "t": 209649.91264582876,
      "d": 149.99993750001886,
      "v": 54
    },
    {
      "midi": 61,
      "hit": false,
      "t": 209728.4840416621,
      "d": 67.85711458334117,
      "v": 61
    },
    {
      "midi": 54,
      "hit": false,
      "t": 209810.62686457878,
      "d": 67.85711458331207,
      "v": 53
    },
    {
      "midi": 76,
      "hit": false,
      "t": 209821.34114582877,
      "d": 74.99996874999488,
      "v": 69
    },
    {
      "midi": 49,
      "hit": false,
      "t": 209871.34112499544,
      "d": 99.9999583333265,
      "v": 48
    },
    {
      "midi": 47,
      "hit": false,
      "t": 209999.91249999544,
      "d": 71.42854166665347,
      "v": 73
    },
    {
      "midi": 74,
      "hit": false,
      "t": 209999.91249999544,
      "d": 114.28566666666302,
      "v": 77
    },
    {
      "midi": 86,
      "hit": false,
      "t": 209999.91249999544,
      "d": 217.85705208333093,
      "v": 82
    },
    {
      "midi": 54,
      "hit": false,
      "t": 210064.19818749544,
      "d": 74.99996874999488,
      "v": 62
    },
    {
      "midi": 59,
      "hit": false,
      "t": 210146.34101041208,
      "d": 67.85711458334117,
      "v": 60
    },
    {
      "midi": 78,
      "hit": false,
      "t": 210178.4838541621,
      "d": 167.85707291663857,
      "v": 54
    },
    {
      "midi": 83,
      "hit": false,
      "t": 210185.62670832875,
      "d": 164.28564583332627,
      "v": 64
    },
    {
      "midi": 62,
      "hit": false,
      "t": 210232.0552604121,
      "d": 71.42854166665347,
      "v": 63
    },
    {
      "midi": 59,
      "hit": false,
      "t": 210310.6266562454,
      "d": 89.2856770833314,
      "v": 58
    },
    {
      "midi": 74,
      "hit": false,
      "t": 210346.34092707874,
      "d": 46.42855208335095,
      "v": 73
    },
    {
      "midi": 54,
      "hit": false,
      "t": 210403.48376041208,
      "d": 35.71427083332674,
      "v": 60
    },
    {
      "midi": 62,
      "hit": false,
      "t": 210528.48370832874,
      "d": 67.85711458331207,
      "v": 82
    },
    {
      "midi": 74,
      "hit": false,
      "t": 210528.48370832874,
      "d": 196.4284895832825,
      "v": 93
    },
    {
      "midi": 41,
      "hit": false,
      "t": 210539.19798957874,
      "d": 67.85711458331207,
      "v": 70
    },
    {
      "midi": 47,
      "hit": false,
      "t": 210628.48366666207,
      "d": 60.71426041665836,
      "v": 54
    },
    {
      "midi": 50,
      "hit": false,
      "t": 210699.91220832872,
      "d": 60.71426041662926,
      "v": 64
    },
    {
      "midi": 71,
      "hit": false,
      "t": 210707.05506249538,
      "d": 121.42852083331672,
      "v": 70
    },
    {
      "midi": 68,
      "hit": false,
      "t": 210714.19791666203,
      "d": 132.14280208334094,
      "v": 50
    },
    {
      "midi": 56,
      "hit": false,
      "t": 210771.34074999535,
      "d": 85.71425000001909,
      "v": 53
    },
    {
      "midi": 50,
      "hit": false,
      "t": 210860.6264270787,
      "d": 53.57140625000466,
      "v": 49
    },
    {
      "midi": 62,
      "hit": false,
      "t": 210864.19785416205,
      "d": 35.71427083332674,
      "v": 87
    },
    {
      "midi": 71,
      "hit": false,
      "t": 210892.76927082872,
      "d": 21.42856249999022,
      "v": 39
    },
    {
      "midi": 47,
      "hit": false,
      "t": 210910.62640624537,
      "d": 21.428562500019325,
      "v": 64
    },
    {
      "midi": 86,
      "hit": false,
      "t": 211064.19777082873,
      "d": 292.8570208333258,
      "v": 92
    },
    {
      "midi": 74,
      "hit": false,
      "t": 211067.76919791207,
      "d": 146.42851041664835,
      "v": 80
    },
    {
      "midi": 40,
      "hit": false,
      "t": 211078.48347916207,
      "d": 78.57139583333628,
      "v": 71
    },
    {
      "midi": 46,
      "hit": false,
      "t": 211157.0548749954,
      "d": 74.99996874999488,
      "v": 55
    },
    {
      "midi": 50,
      "hit": false,
      "t": 211239.19769791205,
      "d": 57.14283333331696,
      "v": 70
    },
    {
      "midi": 82,
      "hit": false,
      "t": 211249.91197916205,
      "d": 164.28564583335537,
      "v": 56
    },
    {
      "midi": 79,
      "hit": false,
      "t": 211271.34054166204,
      "d": 117.85709375003353,
      "v": 39
    },
    {
      "midi": 55,
      "hit": false,
      "t": 211324.91194791204,
      "d": 60.714260416687466,
      "v": 46
    },
    {
      "midi": 50,
      "hit": false,
      "t": 211414.1976249954,
      "d": 28.57141666667303,
      "v": 40
    },
    {
      "midi": 74,
      "hit": false,
      "t": 211414.1976249954,
      "d": 46.42855208332185,
      "v": 74
    },
    {
      "midi": 46,
      "hit": false,
      "t": 211449.91189582873,
      "d": 121.42852083331672,
      "v": 55
    },
    {
      "midi": 40,
      "hit": false,
      "t": 211589.19755207872,
      "d": 96.4285312499851,
      "v": 66
    },
    {
      "midi": 73,
      "hit": false,
      "t": 211589.19755207872,
      "d": 124.99994791665813,
      "v": 75
    },
    {
      "midi": 85,
      "hit": false,
      "t": 211589.19755207872,
      "d": 332.14271875002305,
      "v": 79
    },
    {
      "midi": 46,
      "hit": false,
      "t": 211685.6260833287,
      "d": 67.85711458334117,
      "v": 58
    },
    {
      "midi": 49,
      "hit": false,
      "t": 211757.0546249954,
      "d": 57.14283333334606,
      "v": 55
    },
    {
      "midi": 82,
      "hit": false,
      "t": 211760.62605207873,
      "d": 182.1427812500042,
      "v": 50
    },
    {
      "midi": 78,
      "hit": false,
      "t": 211764.19747916207,
      "d": 167.85707291666768,
      "v": 48
    },
    {
      "midi": 54,
      "hit": false,
      "t": 211832.05459374542,
      "d": 85.71424999998999,
      "v": 55
    },
    {
      "midi": 49,
      "hit": false,
      "t": 211910.62598957875,
      "d": 53.57140624997555,
      "v": 42
    },
    {
      "midi": 73,
      "hit": false,
      "t": 211924.9116979121,
      "d": 46.42855208329274,
      "v": 61
    },
    {
      "midi": 46,
      "hit": false,
      "t": 211971.34024999538,
      "d": 32.142843750014435,
      "v": 49
    },
    {
      "midi": 66,
      "hit": false,
      "t": 212099.9116249954,
      "d": 167.85707291663857,
      "v": 76
    },
    {
      "midi": 38,
      "hit": false,
      "t": 212114.19733332875,
      "d": 60.71426041665836,
      "v": 68
    },
    {
      "midi": 42,
      "hit": false,
      "t": 212185.6258749954,
      "d": 53.57140624997555,
      "v": 55
    },
    {
      "midi": 49,
      "hit": false,
      "t": 212271.3401249954,
      "d": 46.42855208335095,
      "v": 50
    },
    {
      "midi": 78,
      "hit": false,
      "t": 212271.3401249954,
      "d": 149.99993750001886,
      "v": 67
    },
    {
      "midi": 73,
      "hit": false,
      "t": 212274.91155207873,
      "d": 167.85707291666768,
      "v": 60
    },
    {
      "midi": 54,
      "hit": false,
      "t": 212346.3400937454,
      "d": 82.14282291664858,
      "v": 58
    },
    {
      "midi": 49,
      "hit": false,
      "t": 212439.19719791206,
      "d": 67.85711458334117,
      "v": 52
    },
    {
      "midi": 66,
      "hit": false,
      "t": 212442.7686249954,
      "d": 192.8570624999702,
      "v": 65
    },
    {
      "midi": 44,
      "hit": false,
      "t": 212514.19716666205,
      "d": 78.57139583333628,
      "v": 34
    },
    {
      "midi": 78,
      "hit": false,
      "t": 212614.19712499538,
      "d": 149.99993749993155,
      "v": 70
    },
    {
      "midi": 71,
      "hit": false,
      "t": 212621.33997916203,
      "d": 121.42852083328762,
      "v": 69
    },
    {
      "midi": 38,
      "hit": false,
      "t": 212624.91140624537,
      "d": 74.99996874996577,
      "v": 68
    },
    {
      "midi": 42,
      "hit": false,
      "t": 212707.054229162,
      "d": 60.71426041665836,
      "v": 60
    },
    {
      "midi": 47,
      "hit": false,
      "t": 212789.19705207864,
      "d": 64.28568749999977,
      "v": 55
    },
    {
      "midi": 66,
      "hit": false,
      "t": 212799.91133332864,
      "d": 199.9999166666821,
      "v": 67
    },
    {
      "midi": 54,
      "hit": false,
      "t": 212874.91130207863,
      "d": 78.57139583333628,
      "v": 61
    },
    {
      "midi": 78,
      "hit": false,
      "t": 212957.0541249953,
      "d": 107.14281249998021,
      "v": 71
    },
    {
      "midi": 71,
      "hit": false,
      "t": 212967.7684062453,
      "d": 135.71422916665324,
      "v": 64
    },
    {
      "midi": 47,
      "hit": false,
      "t": 212971.33983332865,
      "d": 49.99997916666325,
      "v": 58
    },
    {
      "midi": 42,
      "hit": false,
      "t": 213042.7683749953,
      "d": 78.57139583333628,
      "v": 56
    },
    {
      "midi": 65,
      "hit": false,
      "t": 213132.05405207863,
      "d": 203.5713437499944,
      "v": 81
    },
    {
      "midi": 37,
      "hit": false,
      "t": 213139.1969062453,
      "d": 71.42854166665347,
      "v": 68
    },
    {
      "midi": 44,
      "hit": false,
      "t": 213224.91115624527,
      "d": 67.85711458334117,
      "v": 56
    },
    {
      "midi": 49,
      "hit": false,
      "t": 213303.4825520786,
      "d": 64.28568750002887,
      "v": 65
    },
    {
      "midi": 77,
      "hit": false,
      "t": 213307.05397916195,
      "d": 85.71425000001909,
      "v": 82
    },
    {
      "midi": 71,
      "hit": false,
      "t": 213310.6254062453,
      "d": 64.28568749999977,
      "v": 70
    },
    {
      "midi": 56,
      "hit": false,
      "t": 213392.76822916197,
      "d": 89.2856770833314,
      "v": 58
    },
    {
      "midi": 64,
      "hit": false,
      "t": 213460.6253437453,
      "d": 160.71421875001397,
      "v": 83
    },
    {
      "midi": 49,
      "hit": false,
      "t": 213482.0539062453,
      "d": 74.99996874999488,
      "v": 67
    },
    {
      "midi": 44,
      "hit": false,
      "t": 213549.91102082864,
      "d": 39.28569791666814,
      "v": 39
    },
    {
      "midi": 76,
      "hit": false,
      "t": 213639.196697912,
      "d": 160.71421874995576,
      "v": 86
    },
    {
      "midi": 71,
      "hit": false,
      "t": 213642.76812499535,
      "d": 167.85707291660947,
      "v": 74
    },
    {
      "midi": 43,
      "hit": false,
      "t": 213657.05383332865,
      "d": 57.14283333334606,
      "v": 70
    },
    {
      "midi": 47,
      "hit": false,
      "t": 213732.05380207865,
      "d": 60.71426041665836,
      "v": 54
    },
    {
      "midi": 64,
      "hit": false,
      "t": 213821.33947916195,
      "d": 192.8570625000284,
      "v": 70
    },
    {
      "midi": 53,
      "hit": false,
      "t": 213860.62517707862,
      "d": 17.85713541667792,
      "v": 21
    },
    {
      "midi": 59,
      "hit": false,
      "t": 213892.76802082863,
      "d": 60.71426041665836,
      "v": 59
    },
    {
      "midi": 76,
      "hit": false,
      "t": 213982.05369791196,
      "d": 60.714260416687466,
      "v": 82
    },
    {
      "midi": 71,
      "hit": false,
      "t": 213985.6251249953,
      "d": 60.714260416687466,
      "v": 70
    },
    {
      "midi": 52,
      "hit": false,
      "t": 213996.3394062453,
      "d": 78.57139583336539,
      "v": 60
    },
    {
      "midi": 47,
      "hit": false,
      "t": 214064.19652082867,
      "d": 71.42854166665347,
      "v": 62
    },
    {
      "midi": 42,
      "hit": false,
      "t": 214153.482197912,
      "d": 42.857125000009546,
      "v": 69
    },
    {
      "midi": 63,
      "hit": false,
      "t": 214153.482197912,
      "d": 153.57136458336026,
      "v": 83
    },
    {
      "midi": 47,
      "hit": false,
      "t": 214249.91072916202,
      "d": 60.714260416687466,
      "v": 56
    },
    {
      "midi": 54,
      "hit": false,
      "t": 214324.91069791204,
      "d": 64.28568749999977,
      "v": 72
    },
    {
      "midi": 75,
      "hit": false,
      "t": 214328.48212499538,
      "d": 96.4285312499851,
      "v": 72
    },
    {
      "midi": 66,
      "hit": false,
      "t": 214332.05355207872,
      "d": 124.99994791665813,
      "v": 60
    },
    {
      "midi": 71,
      "hit": false,
      "t": 214342.76783332872,
      "d": 71.42854166665347,
      "v": 63
    },
    {
      "midi": 59,
      "hit": false,
      "t": 214410.62494791203,
      "d": 64.28568750002887,
      "v": 52
    },
    {
      "midi": 62,
      "hit": false,
      "t": 214482.0534895787,
      "d": 160.71421875001397,
      "v": 86
    },
    {
      "midi": 54,
      "hit": false,
      "t": 214496.33919791205,
      "d": 82.14282291667769,
      "v": 67
    },
    {
      "midi": 47,
      "hit": false,
      "t": 214578.48202082873,
      "d": 35.71427083332674,
      "v": 66
    },
    {
      "midi": 41,
      "hit": false,
      "t": 214667.76769791206,
      "d": 53.57140625000466,
      "v": 69
    },
    {
      "midi": 67,
      "hit": false,
      "t": 214667.76769791206,
      "d": 114.28566666666302,
      "v": 69
    },
    {
      "midi": 74,
      "hit": false,
      "t": 214667.76769791206,
      "d": 128.57137499999953,
      "v": 82
    },
    {
      "midi": 71,
      "hit": false,
      "t": 214667.76769791206,
      "d": 146.42851041667745,
      "v": 67
    },
    {
      "midi": 43,
      "hit": false,
      "t": 214767.76765624539,
      "d": 71.42854166668258,
      "v": 66
    },
    {
      "midi": 47,
      "hit": false,
      "t": 214849.91047916206,
      "d": 42.857125000009546,
      "v": 64
    },
    {
      "midi": 62,
      "hit": false,
      "t": 214849.91047916206,
      "d": 182.1427812500333,
      "v": 80
    },
    {
      "midi": 55,
      "hit": false,
      "t": 214910.62473957875,
      "d": 78.57139583333628,
      "v": 64
    },
    {
      "midi": 47,
      "hit": false,
      "t": 215003.48184374542,
      "d": 64.28568749999977,
      "v": 66
    },
    {
      "midi": 74,
      "hit": false,
      "t": 215007.05327082876,
      "d": 89.2856770833314,
      "v": 79
    },
    {
      "midi": 67,
      "hit": false,
      "t": 215007.05327082876,
      "d": 146.42851041664835,
      "v": 65
    },
    {
      "midi": 71,
      "hit": false,
      "t": 215014.19612499542,
      "d": 89.2856770833314,
      "v": 66
    },
    {
      "midi": 43,
      "hit": false,
      "t": 215067.76753124542,
      "d": 85.71424999998999,
      "v": 62
    },
    {
      "midi": 40,
      "hit": false,
      "t": 215182.0531979121,
      "d": 82.14282291667769,
      "v": 69
    },
    {
      "midi": 60,
      "hit": false,
      "t": 215185.62462499543,
      "d": 217.85705208336003,
      "v": 84
    },
    {
      "midi": 43,
      "hit": false,
      "t": 215267.7674479121,
      "d": 85.71425000001909,
      "v": 66
    },
    {
      "midi": 48,
      "hit": false,
      "t": 215360.62455207878,
      "d": 46.42855208335095,
      "v": 70
    },
    {
      "midi": 72,
      "hit": false,
      "t": 215364.19597916212,
      "d": 78.57139583333628,
      "v": 82
    },
    {
      "midi": 67,
      "hit": false,
      "t": 215367.76740624546,
      "d": 49.99997916666325,
      "v": 68
    },
    {
      "midi": 55,
      "hit": false,
      "t": 215428.48166666212,
      "d": 96.4285312500142,
      "v": 62
    },
    {
      "midi": 59,
      "hit": false,
      "t": 215521.3387708288,
      "d": 253.57132291662856,
      "v": 80
    },
    {
      "midi": 48,
      "hit": false,
      "t": 215524.91019791213,
      "d": 71.42854166665347,
      "v": 73
    },
    {
      "midi": 43,
      "hit": false,
      "t": 215596.3387395788,
      "d": 85.71424999998999,
      "v": 64
    },
    {
      "midi": 71,
      "hit": false,
      "t": 215707.0529791621,
      "d": 110.71423958329251,
      "v": 87
    },
    {
      "midi": 40,
      "hit": false,
      "t": 215707.0529791621,
      "d": 135.71422916662414,
      "v": 68
    },
    {
      "midi": 64,
      "hit": false,
      "t": 215707.0529791621,
      "d": 135.71422916662414,
      "v": 73
    },
    {
      "midi": 42,
      "hit": false,
      "t": 215796.3386562454,
      "d": 71.42854166665347,
      "v": 63
    },
    {
      "midi": 49,
      "hit": false,
      "t": 215878.48147916206,
      "d": 28.57141666667303,
      "v": 64
    },
    {
      "midi": 58,
      "hit": false,
      "t": 215878.48147916206,
      "d": 182.1427812500042,
      "v": 75
    },
    {
      "midi": 54,
      "hit": false,
      "t": 215957.0528749954,
      "d": 78.57139583333628,
      "v": 63
    },
    {
      "midi": 70,
      "hit": false,
      "t": 216028.48141666205,
      "d": 67.85711458334117,
      "v": 75
    },
    {
      "midi": 66,
      "hit": false,
      "t": 216032.0528437454,
      "d": 57.14283333334606,
      "v": 62
    },
    {
      "midi": 61,
      "hit": false,
      "t": 216035.62427082873,
      "d": 24.999989583331626,
      "v": 61
    },
    {
      "midi": 49,
      "hit": false,
      "t": 216064.1956874954,
      "d": 39.28569791663904,
      "v": 63
    },
    {
      "midi": 42,
      "hit": false,
      "t": 216124.90994791203,
      "d": 92.8571041666728,
      "v": 47
    },
    {
      "midi": 61,
      "hit": false,
      "t": 216217.7670520787,
      "d": 217.85705208330182,
      "v": 85
    },
    {
      "midi": 38,
      "hit": false,
      "t": 216235.62418749538,
      "d": 85.71424999998999,
      "v": 69
    },
    {
      "midi": 42,
      "hit": false,
      "t": 216321.33843749537,
      "d": 57.14283333331696,
      "v": 49
    },
    {
      "midi": 73,
      "hit": false,
      "t": 216392.76697916203,
      "d": 71.42854166665347,
      "v": 71
    },
    {
      "midi": 47,
      "hit": false,
      "t": 216399.90983332868,
      "d": 60.71426041665836,
      "v": 58
    },
    {
      "midi": 66,
      "hit": false,
      "t": 216407.05268749534,
      "d": 110.71423958335072,
      "v": 55
    },
    {
      "midi": 54,
      "hit": false,
      "t": 216489.195510412,
      "d": 74.99996874999488,
      "v": 51
    },
    {
      "midi": 71,
      "hit": false,
      "t": 216564.195479162,
      "d": 67.85711458334117,
      "v": 89
    },
    {
      "midi": 59,
      "hit": false,
      "t": 216571.33833332866,
      "d": 39.285697916697245,
      "v": 73
    },
    {
      "midi": 47,
      "hit": false,
      "t": 216574.909760412,
      "d": 67.85711458334117,
      "v": 61
    },
    {
      "midi": 66,
      "hit": false,
      "t": 216578.48118749534,
      "d": 60.71426041665836,
      "v": 61
    },
    {
      "midi": 42,
      "hit": false,
      "t": 216642.76687499534,
      "d": 78.57139583333628,
      "v": 64
    },
    {
      "midi": 61,
      "hit": false,
      "t": 216735.62397916202,
      "d": 199.999916666653,
      "v": 88
    },
    {
      "midi": 38,
      "hit": false,
      "t": 216746.338260412,
      "d": 78.57139583333628,
      "v": 69
    },
    {
      "midi": 42,
      "hit": false,
      "t": 216835.62393749534,
      "d": 67.85711458331207,
      "v": 50
    },
    {
      "midi": 73,
      "hit": false,
      "t": 216896.338197912,
      "d": 99.99995833335561,
      "v": 79
    },
    {
      "midi": 47,
      "hit": false,
      "t": 216907.052479162,
      "d": 71.42854166668258,
      "v": 64
    },
    {
      "midi": 66,
      "hit": false,
      "t": 216907.052479162,
      "d": 182.1427812500042,
      "v": 64
    },
    {
      "midi": 54,
      "hit": false,
      "t": 216992.76672916202,
      "d": 82.14282291664858,
      "v": 68
    },
    {
      "midi": 62,
      "hit": false,
      "t": 217067.766697912,
      "d": 35.71427083332674,
      "v": 73
    },
    {
      "midi": 74,
      "hit": false,
      "t": 217067.766697912,
      "d": 53.57140624997555,
      "v": 87
    },
    {
      "midi": 47,
      "hit": false,
      "t": 217085.62383332866,
      "d": 64.28568749999977,
      "v": 49
    },
    {
      "midi": 42,
      "hit": false,
      "t": 217110.623822912,
      "d": 60.71426041665836,
      "v": 55
    },
    {
      "midi": 63,
      "hit": false,
      "t": 217242.7666249953,
      "d": 142.85708333333605,
      "v": 85
    },
    {
      "midi": 43,
      "hit": false,
      "t": 217246.33805207864,
      "d": 74.99996874999488,
      "v": 69
    },
    {
      "midi": 47,
      "hit": false,
      "t": 217342.76658332863,
      "d": 67.85711458334117,
      "v": 51
    },
    {
      "midi": 49,
      "hit": false,
      "t": 217410.62369791197,
      "d": 64.28568749997066,
      "v": 65
    },
    {
      "midi": 75,
      "hit": false,
      "t": 217410.62369791197,
      "d": 89.28567708330229,
      "v": 78
    },
    {
      "midi": 73,
      "hit": false,
      "t": 217417.76655207862,
      "d": 89.2856770833314,
      "v": 68
    },
    {
      "midi": 71,
      "hit": false,
      "t": 217424.90940624528,
      "d": 89.2856770833314,
      "v": 67
    },
    {
      "midi": 59,
      "hit": false,
      "t": 217503.48080207861,
      "d": 74.99996874999488,
      "v": 31
    },
    {
      "midi": 76,
      "hit": false,
      "t": 217574.90934374527,
      "d": 67.85711458337028,
      "v": 97
    },
    {
      "midi": 64,
      "hit": false,
      "t": 217578.4807708286,
      "d": 35.71427083335584,
      "v": 80
    },
    {
      "midi": 71,
      "hit": false,
      "t": 217582.05219791195,
      "d": 46.42855208335095,
      "v": 66
    },
    {
      "midi": 73,
      "hit": false,
      "t": 217592.76647916195,
      "d": 17.85713541667792,
      "v": 32
    },
    {
      "midi": 49,
      "hit": false,
      "t": 217592.76647916195,
      "d": 57.14283333334606,
      "v": 62
    },
    {
      "midi": 47,
      "hit": false,
      "t": 217639.1950312453,
      "d": 96.4285312499851,
      "v": 54
    },
    {
      "midi": 66,
      "hit": false,
      "t": 217742.76641666194,
      "d": 139.28565624999464,
      "v": 89
    },
    {
      "midi": 40,
      "hit": false,
      "t": 217757.05212499527,
      "d": 60.71426041665836,
      "v": 70
    },
    {
      "midi": 47,
      "hit": false,
      "t": 217842.76637499526,
      "d": 42.857125000009546,
      "v": 51
    },
    {
      "midi": 52,
      "hit": false,
      "t": 217910.6234895786,
      "d": 67.85711458334117,
      "v": 68
    },
    {
      "midi": 73,
      "hit": false,
      "t": 217914.19491666195,
      "d": 85.71424999998999,
      "v": 74
    },
    {
      "midi": 78,
      "hit": false,
      "t": 217914.19491666195,
      "d": 96.4285312499851,
      "v": 79
    },
    {
      "midi": 71,
      "hit": false,
      "t": 217924.90919791194,
      "d": 53.57140625000466,
      "v": 71
    },
    {
      "midi": 59,
      "hit": false,
      "t": 218003.48059374528,
      "d": 46.42855208332185,
      "v": 54
    },
    {
      "midi": 52,
      "hit": false,
      "t": 218078.48056249527,
      "d": 74.99996874999488,
      "v": 63
    },
    {
      "midi": 79,
      "hit": false,
      "t": 218078.48056249527,
      "d": 85.71424999998999,
      "v": 90
    },
    {
      "midi": 67,
      "hit": false,
      "t": 218082.0519895786,
      "d": 71.42854166665347,
      "v": 71
    },
    {
      "midi": 71,
      "hit": false,
      "t": 218092.7662708286,
      "d": 24.999989583331626,
      "v": 42
    },
    {
      "midi": 47,
      "hit": false,
      "t": 218139.19482291193,
      "d": 67.85711458334117,
      "v": 60
    },
    {
      "midi": 51,
      "hit": false,
      "t": 218232.0519270786,
      "d": 92.8571041666728,
      "v": 27
    },
    {
      "midi": 65,
      "hit": false,
      "t": 218246.33763541194,
      "d": 153.57136458333116,
      "v": 93
    },
    {
      "midi": 42,
      "hit": false,
      "t": 218271.33762499527,
      "d": 64.28568749999977,
      "v": 70
    },
    {
      "midi": 50,
      "hit": false,
      "t": 218353.48044791195,
      "d": 67.85711458331207,
      "v": 68
    },
    {
      "midi": 54,
      "hit": false,
      "t": 218421.33756249526,
      "d": 85.71424999996088,
      "v": 73
    },
    {
      "midi": 77,
      "hit": false,
      "t": 218432.05184374526,
      "d": 67.85711458331207,
      "v": 92
    },
    {
      "midi": 74,
      "hit": false,
      "t": 218442.76612499525,
      "d": 103.57138541666791,
      "v": 70
    },
    {
      "midi": 71,
      "hit": false,
      "t": 218449.9089791619,
      "d": 60.71426041665836,
      "v": 63
    },
    {
      "midi": 59,
      "hit": false,
      "t": 218528.48037499524,
      "d": 82.14282291664858,
      "v": 61
    },
    {
      "midi": 66,
      "hit": false,
      "t": 218592.76606249524,
      "d": 49.99997916666325,
      "v": 85
    },
    {
      "midi": 78,
      "hit": false,
      "t": 218596.33748957858,
      "d": 67.85711458334117,
      "v": 95
    },
    {
      "midi": 54,
      "hit": false,
      "t": 218603.48034374524,
      "d": 53.57140625000466,
      "v": 55
    },
    {
      "midi": 50,
      "hit": false,
      "t": 218660.62317707858,
      "d": 82.14282291667769,
      "v": 66
    },
    {
      "midi": 70,
      "hit": false,
      "t": 218764.19456249525,
      "d": 153.57136458336026,
      "v": 86
    },
    {
      "midi": 42,
      "hit": false,
      "t": 218778.4802708286,
      "d": 57.14283333334606,
      "v": 70
    },
    {
      "midi": 50,
      "hit": false,
      "t": 218846.33738541193,
      "d": 57.14283333334606,
      "v": 70
    },
    {
      "midi": 54,
      "hit": false,
      "t": 218914.19449999527,
      "d": 67.85711458334117,
      "v": 71
    },
    {
      "midi": 82,
      "hit": false,
      "t": 218928.4802083286,
      "d": 107.14281249998021,
      "v": 81
    },
    {
      "midi": 78,
      "hit": false,
      "t": 218932.05163541195,
      "d": 85.71424999996088,
      "v": 71
    },
    {
      "midi": 74,
      "hit": false,
      "t": 218939.1944895786,
      "d": 64.28568749999977,
      "v": 67
    },
    {
      "midi": 62,
      "hit": false,
      "t": 219010.62303124525,
      "d": 60.71426041665836,
      "v": 62
    },
    {
      "midi": 71,
      "hit": false,
      "t": 219082.0515729119,
      "d": 53.57140625000466,
      "v": 83
    },
    {
      "midi": 83,
      "hit": false,
      "t": 219082.0515729119,
      "d": 78.57139583333628,
      "v": 92
    },
    {
      "midi": 54,
      "hit": false,
      "t": 219092.7658541619,
      "d": 89.2856770833605,
      "v": 65
    },
    {
      "midi": 50,
      "hit": false,
      "t": 219178.48010416192,
      "d": 42.857125000009546,
      "v": 72
    },
    {
      "midi": 72,
      "hit": false,
      "t": 219267.76578124525,
      "d": 217.85705208333093,
      "v": 97
    },
    {
      "midi": 42,
      "hit": false,
      "t": 219282.0514895786,
      "d": 78.57139583333628,
      "v": 72
    },
    {
      "midi": 49,
      "hit": false,
      "t": 219360.62288541193,
      "d": 53.57140624997555,
      "v": 57
    },
    {
      "midi": 53,
      "hit": false,
      "t": 219424.9085729119,
      "d": 82.14282291667769,
      "v": 68
    },
    {
      "midi": 84,
      "hit": false,
      "t": 219449.90856249523,
      "d": 67.85711458334117,
      "v": 93
    },
    {
      "midi": 80,
      "hit": false,
      "t": 219453.47998957857,
      "d": 107.14281250000931,
      "v": 73
    },
    {
      "midi": 77,
      "hit": false,
      "t": 219457.0514166619,
      "d": 60.71426041665836,
      "v": 74
    },
    {
      "midi": 59,
      "hit": false,
      "t": 219521.3371041619,
      "d": 78.57139583333628,
      "v": 63
    },
    {
      "midi": 73,
      "hit": false,
      "t": 219603.4799270786,
      "d": 35.71427083332674,
      "v": 89
    },
    {
      "midi": 85,
      "hit": false,
      "t": 219607.05135416193,
      "d": 57.14283333331696,
      "v": 100
    },
    {
      "midi": 53,
      "hit": false,
      "t": 219614.19420832858,
      "d": 35.71427083332674,
      "v": 43
    },
    {
      "midi": 49,
      "hit": false,
      "t": 219653.47990624525,
      "d": 110.71423958332161,
      "v": 63
    },
    {
      "midi": 42,
      "hit": false,
      "t": 219774.90842707857,
      "d": 92.8571041666728,
      "v": 73
    },
    {
      "midi": 77,
      "hit": false,
      "t": 219778.4798541619,
      "d": 199.999916666653,
      "v": 102
    },
    {
      "midi": 49,
      "hit": false,
      "t": 219867.76553124524,
      "d": 74.99996874999488,
      "v": 61
    },
    {
      "midi": 52,
      "hit": false,
      "t": 219949.9083541619,
      "d": 74.99996875002398,
      "v": 68
    },
    {
      "midi": 82,
      "hit": false,
      "t": 219953.47978124523,
      "d": 57.14283333334606,
      "v": 75
    },
    {
      "midi": 89,
      "hit": false,
      "t": 219953.47978124523,
      "d": 57.14283333334606,
      "v": 96
    },
    {
      "midi": 85,
      "hit": false,
      "t": 219957.05120832857,
      "d": 64.28568749999977,
      "v": 76
    },
    {
      "midi": 58,
      "hit": false,
      "t": 220024.9083229119,
      "d": 74.99996874999488,
      "v": 63
    },
    {
      "midi": 78,
      "hit": false,
      "t": 220117.7654270786,
      "d": 32.142843750014435,
      "v": 82
    },
    {
      "midi": 90,
      "hit": false,
      "t": 220121.33685416193,
      "d": 46.42855208335095,
      "v": 91
    },
    {
      "midi": 49,
      "hit": false,
      "t": 220149.9082708286,
      "d": 53.57140625000466,
      "v": 46
    },
    {
      "midi": 47,
      "hit": false,
      "t": 220221.33681249528,
      "d": 67.85711458331207,
      "v": 69
    },
    {
      "midi": 51,
      "hit": false,
      "t": 220285.62249999525,
      "d": 64.28568749999977,
      "v": 67
    },
    {
      "midi": 83,
      "hit": false,
      "t": 220289.1939270786,
      "d": 307.1427291666623,
      "v": 86
    },
    {
      "midi": 54,
      "hit": false,
      "t": 220307.05106249524,
      "d": 78.57139583333628,
      "v": 55
    },
    {
      "midi": 63,
      "hit": false,
      "t": 220371.33674999524,
      "d": 24.999989583331626,
      "v": 87
    },
    {
      "midi": 95,
      "hit": false,
      "t": 220374.90817707859,
      "d": 103.57138541666791,
      "v": 110
    },
    {
      "midi": 92,
      "hit": false,
      "t": 220557.0509583286,
      "d": 64.28568749999977,
      "v": 84
    },
    {
      "midi": 90,
      "hit": false,
      "t": 220642.76520832858,
      "d": 128.57137499999953,
      "v": 83
    },
    {
      "midi": 85,
      "hit": false,
      "t": 220721.33660416192,
      "d": 78.57139583333628,
      "v": 77
    },
    {
      "midi": 83,
      "hit": false,
      "t": 220799.90799999525,
      "d": 39.28569791666814,
      "v": 85
    },
    {
      "midi": 80,
      "hit": false,
      "t": 220885.62224999524,
      "d": 53.57140625000466,
      "v": 76
    },
    {
      "midi": 78,
      "hit": false,
      "t": 220957.05079166192,
      "d": 78.57139583333628,
      "v": 78
    },
    {
      "midi": 73,
      "hit": false,
      "t": 221035.62218749526,
      "d": 71.42854166665347,
      "v": 77
    },
    {
      "midi": 71,
      "hit": false,
      "t": 221110.62215624526,
      "d": 49.99997916666325,
      "v": 80
    },
    {
      "midi": 68,
      "hit": false,
      "t": 221196.33640624525,
      "d": 67.85711458334117,
      "v": 74
    },
    {
      "midi": 66,
      "hit": false,
      "t": 221274.90780207858,
      "d": 67.85711458334117,
      "v": 69
    },
    {
      "midi": 61,
      "hit": false,
      "t": 221360.6220520786,
      "d": 67.85711458334117,
      "v": 70
    },
    {
      "midi": 59,
      "hit": false,
      "t": 221439.19344791194,
      "d": 49.99997916666325,
      "v": 78
    },
    {
      "midi": 56,
      "hit": false,
      "t": 221532.0505520786,
      "d": 64.28568749999977,
      "v": 76
    },
    {
      "midi": 54,
      "hit": false,
      "t": 221621.33622916194,
      "d": 53.57140625000466,
      "v": 50
    },
    {
      "midi": 49,
      "hit": false,
      "t": 221689.19334374528,
      "d": 57.14283333334606,
      "v": 73
    },
    {
      "midi": 47,
      "hit": false,
      "t": 221760.62188541197,
      "d": 46.42855208332185,
      "v": 78
    },
    {
      "midi": 59,
      "hit": false,
      "t": 221885.62183332862,
      "d": 257.14274999994086,
      "v": 89
    },
    {
      "midi": 49,
      "hit": false,
      "t": 221892.76468749528,
      "d": 214.28562499998952,
      "v": 87
    },
    {
      "midi": 53,
      "hit": false,
      "t": 221892.76468749528,
      "d": 221.42847916664323,
      "v": 83
    },
    {
      "midi": 44,
      "hit": false,
      "t": 221896.33611457862,
      "d": 239.28561458329204,
      "v": 62
    },
    {
      "midi": 52,
      "hit": false,
      "t": 222471.33587499522,
      "d": 67.85711458334117,
      "v": 89
    },
    {
      "midi": 42,
      "hit": false,
      "t": 222474.90730207856,
      "d": 114.28566666666302,
      "v": 93
    },
    {
      "midi": 30,
      "hit": false,
      "t": 222482.0501562452,
      "d": 85.71425000001909,
      "v": 93
    },
    {
      "midi": 32,
      "hit": false,
      "t": 222492.7644374952,
      "d": 17.85713541667792,
      "v": 53
    },
    {
      "midi": 55,
      "hit": false,
      "t": 222567.76440624523,
      "d": 99.9999583333265,
      "v": 81
    },
    {
      "midi": 59,
      "hit": false,
      "t": 222646.33580207857,
      "d": 67.85711458331207,
      "v": 70
    },
    {
      "midi": 61,
      "hit": false,
      "t": 222703.47863541188,
      "d": 17.857135416648816,
      "v": 59
    },
    {
      "midi": 64,
      "hit": false,
      "t": 222767.76432291185,
      "d": 49.99997916666325,
      "v": 83
    },
    {
      "midi": 67,
      "hit": false,
      "t": 222849.90714582853,
      "d": 82.14282291667769,
      "v": 82
    },
    {
      "midi": 71,
      "hit": false,
      "t": 222928.47854166187,
      "d": 114.28566666669212,
      "v": 78
    },
    {
      "midi": 59,
      "hit": false,
      "t": 222949.9071041619,
      "d": 85.71425000001909,
      "v": 73
    },
    {
      "midi": 55,
      "hit": false,
      "t": 222953.47853124523,
      "d": 635.7140208333149,
      "v": 81
    },
    {
      "midi": 64,
      "hit": false,
      "t": 222957.04995832857,
      "d": 171.42850000000908,
      "v": 81
    },
    {
      "midi": 61,
      "hit": false,
      "t": 222957.04995832857,
      "d": 310.7141562500037,
      "v": 62
    },
    {
      "midi": 73,
      "hit": false,
      "t": 223014.19279166192,
      "d": 46.42855208332185,
      "v": 76
    },
    {
      "midi": 76,
      "hit": false,
      "t": 223103.47846874525,
      "d": 60.71426041665836,
      "v": 92
    },
    {
      "midi": 66,
      "hit": false,
      "t": 223103.47846874525,
      "d": 71.42854166665347,
      "v": 85
    },
    {
      "midi": 79,
      "hit": false,
      "t": 223192.76414582858,
      "d": 103.57138541666791,
      "v": 92
    },
    {
      "midi": 83,
      "hit": false,
      "t": 223267.76411457857,
      "d": 99.9999583333265,
      "v": 82
    },
    {
      "midi": 67,
      "hit": false,
      "t": 223282.0498229119,
      "d": 182.1427812500042,
      "v": 96
    },
    {
      "midi": 85,
      "hit": false,
      "t": 223346.3355104119,
      "d": 35.71427083332674,
      "v": 71
    },
    {
      "midi": 88,
      "hit": false,
      "t": 223424.90690624525,
      "d": 321.42843749996973,
      "v": 84
    },
    {
      "midi": 61,
      "hit": false,
      "t": 223439.19261457858,
      "d": 428.57124999997905,
      "v": 86
    },
    {
      "midi": 91,
      "hit": false,
      "t": 223510.62115624524,
      "d": 57.14283333331696,
      "v": 89
    },
    {
      "midi": 100,
      "hit": false,
      "t": 223592.7639791619,
      "d": 92.8571041666728,
      "v": 85
    },
    {
      "midi": 97,
      "hit": false,
      "t": 223674.90680207856,
      "d": 82.14282291664858,
      "v": 75
    },
    {
      "midi": 94,
      "hit": false,
      "t": 223739.19248957856,
      "d": 160.71421875001397,
      "v": 73
    },
    {
      "midi": 90,
      "hit": false,
      "t": 223824.90673957855,
      "d": 78.57139583336539,
      "v": 64
    },
    {
      "midi": 88,
      "hit": false,
      "t": 223903.47813541192,
      "d": 46.42855208332185,
      "v": 78
    },
    {
      "midi": 64,
      "hit": false,
      "t": 223907.04956249526,
      "d": 210.71419791664812,
      "v": 87
    },
    {
      "midi": 58,
      "hit": false,
      "t": 223914.1924166619,
      "d": 217.85705208330182,
      "v": 59
    },
    {
      "midi": 54,
      "hit": false,
      "t": 223917.76384374526,
      "d": 221.42847916661412,
      "v": 69
    },
    {
      "midi": 85,
      "hit": false,
      "t": 223999.9066666619,
      "d": 64.28568749999977,
      "v": 76
    },
    {
      "midi": 82,
      "hit": false,
      "t": 224085.6209166619,
      "d": 67.85711458331207,
      "v": 71
    },
    {
      "midi": 81,
      "hit": false,
      "t": 224124.90661457856,
      "d": 28.571416666643927,
      "v": 21
    },
    {
      "midi": 78,
      "hit": false,
      "t": 224178.47802082854,
      "d": 57.14283333334606,
      "v": 68
    },
    {
      "midi": 76,
      "hit": false,
      "t": 224249.90656249522,
      "d": 82.14282291664858,
      "v": 79
    },
    {
      "midi": 73,
      "hit": false,
      "t": 224314.19224999522,
      "d": 32.14284374998533,
      "v": 77
    },
    {
      "midi": 47,
      "hit": false,
      "t": 224353.47794791186,
      "d": 46.42855208335095,
      "v": 69
    },
    {
      "midi": 51,
      "hit": false,
      "t": 224382.04936457853,
      "d": 71.42854166668258,
      "v": 74
    },
    {
      "midi": 54,
      "hit": false,
      "t": 224410.6207812452,
      "d": 64.28568750002887,
      "v": 62
    },
    {
      "midi": 63,
      "hit": false,
      "t": 224471.3350416619,
      "d": 28.57141666667303,
      "v": 85
    },
    {
      "midi": 95,
      "hit": false,
      "t": 224485.62074999523,
      "d": 128.57137499999953,
      "v": 103
    },
    {
      "midi": 83,
      "hit": false,
      "t": 224489.19217707857,
      "d": 174.99992708332138,
      "v": 90
    },
    {
      "midi": 92,
      "hit": false,
      "t": 224664.1921041619,
      "d": 74.99996874999488,
      "v": 81
    },
    {
      "midi": 90,
      "hit": false,
      "t": 224735.62064582855,
      "d": 146.42851041667745,
      "v": 74
    },
    {
      "midi": 85,
      "hit": false,
      "t": 224814.19204166188,
      "d": 78.57139583333628,
      "v": 67
    },
    {
      "midi": 83,
      "hit": false,
      "t": 224896.33486457856,
      "d": 42.857125000009546,
      "v": 81
    },
    {
      "midi": 80,
      "hit": false,
      "t": 224985.6205416619,
      "d": 28.571416666643927,
      "v": 25
    },
    {
      "midi": 81,
      "hit": false,
      "t": 224992.76339582854,
      "d": 21.42856249999022,
      "v": 51
    },
    {
      "midi": 78,
      "hit": false,
      "t": 225053.4776562452,
      "d": 85.71424999998999,
      "v": 72
    },
    {
      "midi": 73,
      "hit": false,
      "t": 225132.04905207854,
      "d": 82.14282291664858,
      "v": 69
    },
    {
      "midi": 71,
      "hit": false,
      "t": 225217.76330207853,
      "d": 42.857125000009546,
      "v": 73
    },
    {
      "midi": 68,
      "hit": false,
      "t": 225289.1918437452,
      "d": 64.28568749999977,
      "v": 74
    },
    {
      "midi": 66,
      "hit": false,
      "t": 225367.76323957855,
      "d": 78.57139583333628,
      "v": 67
    },
    {
      "midi": 61,
      "hit": false,
      "t": 225453.47748957854,
      "d": 74.99996874999488,
      "v": 76
    },
    {
      "midi": 59,
      "hit": false,
      "t": 225535.6203124952,
      "d": 57.14283333334606,
      "v": 77
    },
    {
      "midi": 56,
      "hit": false,
      "t": 225624.90598957855,
      "d": 64.28568749999977,
      "v": 75
    },
    {
      "midi": 54,
      "hit": false,
      "t": 225707.04881249522,
      "d": 85.71424999998999,
      "v": 65
    },
    {
      "midi": 49,
      "hit": false,
      "t": 225785.62020832856,
      "d": 42.85712499998044,
      "v": 77
    },
    {
      "midi": 47,
      "hit": false,
      "t": 225849.90589582853,
      "d": 39.28569791666814,
      "v": 74
    },
    {
      "midi": 59,
      "hit": false,
      "t": 225974.9058437452,
      "d": 321.42843750002794,
      "v": 78
    },
    {
      "midi": 60,
      "hit": false,
      "t": 225978.47727082853,
      "d": 89.2856770833605,
      "v": 77
    },
    {
      "midi": 53,
      "hit": false,
      "t": 225978.47727082853,
      "d": 282.1427395833598,
      "v": 70
    },
    {
      "midi": 49,
      "hit": false,
      "t": 225982.04869791187,
      "d": 221.42847916667233,
      "v": 89
    },
    {
      "midi": 44,
      "hit": false,
      "t": 225982.04869791187,
      "d": 246.42846875000396,
      "v": 71
    },
    {
      "midi": 52,
      "hit": false,
      "t": 226553.47703124522,
      "d": 64.28568749999977,
      "v": 82
    },
    {
      "midi": 42,
      "hit": false,
      "t": 226557.04845832856,
      "d": 132.14280208334094,
      "v": 95
    },
    {
      "midi": 30,
      "hit": false,
      "t": 226560.6198854119,
      "d": 114.28566666666302,
      "v": 93
    },
    {
      "midi": 55,
      "hit": false,
      "t": 226646.3341354119,
      "d": 103.57138541666791,
      "v": 75
    },
    {
      "midi": 59,
      "hit": false,
      "t": 226728.47695832857,
      "d": 85.71424999998999,
      "v": 68
    },
    {
      "midi": 61,
      "hit": false,
      "t": 226796.33407291188,
      "d": 21.428562500019325,
      "v": 57
    },
    {
      "midi": 64,
      "hit": false,
      "t": 226864.19118749522,
      "d": 49.99997916666325,
      "v": 74
    },
    {
      "midi": 67,
      "hit": false,
      "t": 226949.9054374952,
      "d": 67.85711458334117,
      "v": 83
    },
    {
      "midi": 64,
      "hit": false,
      "t": 227028.47683332855,
      "d": 121.42852083331672,
      "v": 85
    },
    {
      "midi": 71,
      "hit": false,
      "t": 227032.0482604119,
      "d": 107.14281249998021,
      "v": 81
    },
    {
      "midi": 61,
      "hit": false,
      "t": 227035.61968749523,
      "d": 264.28560416662367,
      "v": 65
    },
    {
      "midi": 59,
      "hit": false,
      "t": 227035.61968749523,
      "d": 646.4283020832809,
      "v": 58
    },
    {
      "midi": 55,
      "hit": false,
      "t": 227046.33396874522,
      "d": 696.4282812499732,
      "v": 70
    },
    {
      "midi": 73,
      "hit": false,
      "t": 227114.19108332854,
      "d": 42.85712499998044,
      "v": 72
    },
    {
      "midi": 66,
      "hit": false,
      "t": 227185.6196249952,
      "d": 74.99996874999488,
      "v": 89
    },
    {
      "midi": 76,
      "hit": false,
      "t": 227199.90533332853,
      "d": 53.57140625000466,
      "v": 85
    },
    {
      "midi": 79,
      "hit": false,
      "t": 227285.61958332852,
      "d": 110.71423958335072,
      "v": 88
    },
    {
      "midi": 67,
      "hit": false,
      "t": 227360.6195520785,
      "d": 153.57136458336026,
      "v": 95
    },
    {
      "midi": 83,
      "hit": false,
      "t": 227364.19097916185,
      "d": 107.14281250000931,
      "v": 80
    },
    {
      "midi": 85,
      "hit": false,
      "t": 227446.33380207853,
      "d": 35.71427083332674,
      "v": 71
    },
    {
      "midi": 61,
      "hit": false,
      "t": 227521.33377082853,
      "d": 303.57130208335,
      "v": 87
    },
    {
      "midi": 88,
      "hit": false,
      "t": 227528.47662499518,
      "d": 339.28557291670586,
      "v": 82
    },
    {
      "midi": 91,
      "hit": false,
      "t": 227610.61944791186,
      "d": 64.28568749999977,
      "v": 89
    },
    {
      "midi": 100,
      "hit": false,
      "t": 227699.9051249952,
      "d": 96.4285312500142,
      "v": 87
    },
    {
      "midi": 97,
      "hit": false,
      "t": 227778.47652082852,
      "d": 99.99995833335561,
      "v": 72
    },
    {
      "midi": 94,
      "hit": false,
      "t": 227857.0479166619,
      "d": 103.57138541666791,
      "v": 30
    },
    {
      "midi": 95,
      "hit": false,
      "t": 227860.61934374523,
      "d": 67.85711458331207,
      "v": 78
    },
    {
      "midi": 90,
      "hit": false,
      "t": 227942.76216666188,
      "d": 89.2856770833605,
      "v": 59
    },
    {
      "midi": 88,
      "hit": false,
      "t": 228028.4764166619,
      "d": 49.99997916666325,
      "v": 75
    },
    {
      "midi": 64,
      "hit": false,
      "t": 228032.04784374524,
      "d": 242.85704166666255,
      "v": 87
    },
    {
      "midi": 58,
      "hit": false,
      "t": 228032.04784374524,
      "d": 282.1427395833307,
      "v": 64
    },
    {
      "midi": 54,
      "hit": false,
      "t": 228035.61927082858,
      "d": 285.714166666643,
      "v": 64
    },
    {
      "midi": 85,
      "hit": false,
      "t": 228117.76209374523,
      "d": 67.85711458334117,
      "v": 80
    },
    {
      "midi": 82,
      "hit": false,
      "t": 228199.9049166619,
      "d": 99.9999583333265,
      "v": 69
    },
    {
      "midi": 78,
      "hit": false,
      "t": 228289.19059374524,
      "d": 60.71426041665836,
      "v": 69
    },
    {
      "midi": 76,
      "hit": false,
      "t": 228364.19056249523,
      "d": 60.71426041665836,
      "v": 68
    },
    {
      "midi": 73,
      "hit": false,
      "t": 228453.47623957857,
      "d": 60.71426041665836,
      "v": 62
    },
    {
      "midi": 70,
      "hit": false,
      "t": 228546.3333437452,
      "d": 74.99996874999488,
      "v": 68
    },
    {
      "midi": 47,
      "hit": false,
      "t": 228564.1904791619,
      "d": 35.71427083332674,
      "v": 70
    },
    {
      "midi": 71,
      "hit": false,
      "t": 228635.61902082854,
      "d": 67.85711458334117,
      "v": 76
    },
    {
      "midi": 75,
      "hit": false,
      "t": 228721.33327082856,
      "d": 53.57140625000466,
      "v": 58
    },
    {
      "midi": 63,
      "hit": false,
      "t": 228724.9046979119,
      "d": 92.8571041666728,
      "v": 55
    },
    {
      "midi": 71,
      "hit": false,
      "t": 228792.76181249524,
      "d": 139.28565624999464,
      "v": 64
    },
    {
      "midi": 72,
      "hit": false,
      "t": 228874.90463541192,
      "d": 60.71426041665836,
      "v": 75
    },
    {
      "midi": 54,
      "hit": false,
      "t": 228896.3331979119,
      "d": 24.999989583331626,
      "v": 33
    },
    {
      "midi": 51,
      "hit": false,
      "t": 228903.47605207856,
      "d": 24.999989583331626,
      "v": 37
    },
    {
      "midi": 76,
      "hit": false,
      "t": 228953.47603124526,
      "d": 60.71426041665836,
      "v": 74
    },
    {
      "midi": 72,
      "hit": false,
      "t": 229021.33314582857,
      "d": 117.85709375000442,
      "v": 64
    },
    {
      "midi": 46,
      "hit": false,
      "t": 229060.61884374524,
      "d": 57.14283333334606,
      "v": 70
    },
    {
      "midi": 73,
      "hit": false,
      "t": 229117.76167707858,
      "d": 85.71424999998999,
      "v": 77
    },
    {
      "midi": 77,
      "hit": false,
      "t": 229199.90449999523,
      "d": 60.714260416687466,
      "v": 79
    },
    {
      "midi": 63,
      "hit": false,
      "t": 229207.0473541619,
      "d": 71.42854166668258,
      "v": 60
    },
    {
      "midi": 73,
      "hit": false,
      "t": 229282.04732291194,
      "d": 60.71426041665836,
      "v": 65
    },
    {
      "midi": 74,
      "hit": false,
      "t": 229364.1901458286,
      "d": 60.714260416687466,
      "v": 82
    },
    {
      "midi": 54,
      "hit": false,
      "t": 229367.76157291193,
      "d": 42.857125000009546,
      "v": 53
    },
    {
      "midi": 51,
      "hit": false,
      "t": 229371.33299999527,
      "d": 42.857125000009546,
      "v": 50
    },
    {
      "midi": 78,
      "hit": false,
      "t": 229446.33296874526,
      "d": 60.71426041665836,
      "v": 68
    },
    {
      "midi": 74,
      "hit": false,
      "t": 229517.76151041192,
      "d": 85.71424999998999,
      "v": 76
    },
    {
      "midi": 46,
      "hit": false,
      "t": 229528.4757916619,
      "d": 57.14283333331696,
      "v": 70
    },
    {
      "midi": 75,
      "hit": false,
      "t": 229610.61861457856,
      "d": 82.14282291667769,
      "v": 79
    },
    {
      "midi": 63,
      "hit": false,
      "t": 229692.76143749524,
      "d": 85.71424999998999,
      "v": 64
    },
    {
      "midi": 79,
      "hit": false,
      "t": 229696.33286457858,
      "d": 67.85711458334117,
      "v": 82
    },
    {
      "midi": 75,
      "hit": false,
      "t": 229771.33283332858,
      "d": 117.85709374997532,
      "v": 71
    },
    {
      "midi": 76,
      "hit": false,
      "t": 229849.90422916188,
      "d": 67.85711458334117,
      "v": 85
    },
    {
      "midi": 51,
      "hit": false,
      "t": 229853.47565624522,
      "d": 46.42855208332185,
      "v": 44
    },
    {
      "midi": 80,
      "hit": false,
      "t": 229924.90419791188,
      "d": 64.28568749999977,
      "v": 70
    },
    {
      "midi": 76,
      "hit": false,
      "t": 229996.33273957853,
      "d": 139.28565624999464,
      "v": 78
    },
    {
      "midi": 44,
      "hit": false,
      "t": 230007.04702082853,
      "d": 49.99997916666325,
      "v": 71
    },
    {
      "midi": 77,
      "hit": false,
      "t": 230085.61841666186,
      "d": 64.28568749999977,
      "v": 87
    },
    {
      "midi": 63,
      "hit": false,
      "t": 230160.61838541186,
      "d": 89.28567708330229,
      "v": 64
    },
    {
      "midi": 81,
      "hit": false,
      "t": 230171.33266666185,
      "d": 67.85711458331207,
      "v": 76
    },
    {
      "midi": 77,
      "hit": false,
      "t": 230232.0469270785,
      "d": 107.14281249998021,
      "v": 75
    },
    {
      "midi": 56,
      "hit": false,
      "t": 230310.61832291182,
      "d": 78.57139583333628,
      "v": 53
    },
    {
      "midi": 78,
      "hit": false,
      "t": 230314.18974999516,
      "d": 74.99996874999488,
      "v": 76
    },
    {
      "midi": 82,
      "hit": false,
      "t": 230392.7611458285,
      "d": 46.42855208332185,
      "v": 71
    },
    {
      "midi": 78,
      "hit": false,
      "t": 230460.6182604118,
      "d": 67.85711458334117,
      "v": 73
    },
    {
      "midi": 49,
      "hit": false,
      "t": 230474.90396874514,
      "d": 42.857125000009546,
      "v": 71
    },
    {
      "midi": 79,
      "hit": false,
      "t": 230549.90393749514,
      "d": 60.71426041665836,
      "v": 82
    },
    {
      "midi": 83,
      "hit": false,
      "t": 230632.0467604118,
      "d": 53.57140625000466,
      "v": 78
    },
    {
      "midi": 64,
      "hit": false,
      "t": 230635.61818749513,
      "d": 53.57140625000466,
      "v": 66
    },
    {
      "midi": 79,
      "hit": false,
      "t": 230707.0467291618,
      "d": 103.57138541666791,
      "v": 80
    },
    {
      "midi": 56,
      "hit": false,
      "t": 230785.61812499515,
      "d": 60.71426041665836,
      "v": 53
    },
    {
      "midi": 80,
      "hit": false,
      "t": 230785.61812499515,
      "d": 107.14281249998021,
      "v": 75
    },
    {
      "midi": 52,
      "hit": false,
      "t": 230810.61811457848,
      "d": 24.999989583331626,
      "v": 53
    },
    {
      "midi": 84,
      "hit": false,
      "t": 230867.7609479118,
      "d": 64.28568749999977,
      "v": 81
    },
    {
      "midi": 80,
      "hit": false,
      "t": 230957.04662499513,
      "d": 96.4285312500142,
      "v": 72
    },
    {
      "midi": 47,
      "hit": false,
      "t": 230964.1894791618,
      "d": 57.14283333331696,
      "v": 72
    },
    {
      "midi": 81,
      "hit": false,
      "t": 231042.76087499515,
      "d": 57.14283333331696,
      "v": 85
    },
    {
      "midi": 85,
      "hit": false,
      "t": 231114.1894166618,
      "d": 57.14283333331696,
      "v": 81
    },
    {
      "midi": 64,
      "hit": false,
      "t": 231121.33227082845,
      "d": 57.14283333331696,
      "v": 63
    },
    {
      "midi": 81,
      "hit": false,
      "t": 231192.7608124951,
      "d": 99.99995833335561,
      "v": 75
    },
    {
      "midi": 56,
      "hit": false,
      "t": 231249.90364582845,
      "d": 67.85711458334117,
      "v": 61
    },
    {
      "midi": 82,
      "hit": false,
      "t": 231267.76078124513,
      "d": 82.14282291664858,
      "v": 72
    },
    {
      "midi": 52,
      "hit": false,
      "t": 231274.90363541179,
      "d": 49.99997916666325,
      "v": 61
    },
    {
      "midi": 86,
      "hit": false,
      "t": 231335.61789582844,
      "d": 64.28568749999977,
      "v": 77
    },
    {
      "midi": 82,
      "hit": false,
      "t": 231428.47499999512,
      "d": 114.28566666666302,
      "v": 73
    },
    {
      "midi": 47,
      "hit": false,
      "t": 231435.61785416177,
      "d": 46.42855208335095,
      "v": 73
    },
    {
      "midi": 83,
      "hit": false,
      "t": 231507.04639582845,
      "d": 74.99996874999488,
      "v": 72
    },
    {
      "midi": 87,
      "hit": false,
      "t": 231571.33208332845,
      "d": 64.28568749999977,
      "v": 73
    },
    {
      "midi": 64,
      "hit": false,
      "t": 231585.6177916618,
      "d": 60.71426041665836,
      "v": 65
    },
    {
      "midi": 83,
      "hit": false,
      "t": 231649.9034791618,
      "d": 103.5713854166388,
      "v": 77
    },
    {
      "midi": 56,
      "hit": false,
      "t": 231724.90344791178,
      "d": 67.85711458331207,
      "v": 48
    },
    {
      "midi": 84,
      "hit": false,
      "t": 231732.04630207844,
      "d": 85.71424999998999,
      "v": 83
    },
    {
      "midi": 52,
      "hit": false,
      "t": 231739.1891562451,
      "d": 57.14283333334606,
      "v": 63
    },
    {
      "midi": 88,
      "hit": false,
      "t": 231807.04627082843,
      "d": 57.14283333331696,
      "v": 74
    },
    {
      "midi": 84,
      "hit": false,
      "t": 231889.18909374508,
      "d": 117.85709375000442,
      "v": 81
    },
    {
      "midi": 46,
      "hit": false,
      "t": 231892.76052082842,
      "d": 46.42855208335095,
      "v": 74
    },
    {
      "midi": 85,
      "hit": false,
      "t": 231971.33191666176,
      "d": 89.28567708330229,
      "v": 77
    },
    {
      "midi": 89,
      "hit": false,
      "t": 232053.4747395784,
      "d": 53.57140624997555,
      "v": 80
    },
    {
      "midi": 64,
      "hit": false,
      "t": 232053.4747395784,
      "d": 74.99996874996577,
      "v": 66
    },
    {
      "midi": 85,
      "hit": false,
      "t": 232121.33185416172,
      "d": 78.57139583333628,
      "v": 72
    },
    {
      "midi": 56,
      "hit": false,
      "t": 232192.76039582837,
      "d": 89.2856770833605,
      "v": 49
    },
    {
      "midi": 86,
      "hit": false,
      "t": 232196.3318229117,
      "d": 64.28568750002887,
      "v": 80
    },
    {
      "midi": 52,
      "hit": false,
      "t": 232224.9032395784,
      "d": 67.85711458334117,
      "v": 42
    },
    {
      "midi": 90,
      "hit": false,
      "t": 232257.0460833284,
      "d": 64.28568749999977,
      "v": 72
    },
    {
      "midi": 86,
      "hit": false,
      "t": 232349.90318749507,
      "d": 110.71423958329251,
      "v": 84
    },
    {
      "midi": 51,
      "hit": false,
      "t": 232367.76032291172,
      "d": 57.14283333331696,
      "v": 77
    },
    {
      "midi": 87,
      "hit": false,
      "t": 232435.61743749504,
      "d": 103.5713854166388,
      "v": 77
    },
    {
      "midi": 66,
      "hit": false,
      "t": 232521.33168749503,
      "d": 82.14282291664858,
      "v": 67
    },
    {
      "midi": 91,
      "hit": false,
      "t": 232528.47454166168,
      "d": 60.71426041665836,
      "v": 82
    },
    {
      "midi": 87,
      "hit": false,
      "t": 232607.04593749502,
      "d": 99.99995833335561,
      "v": 76
    },
    {
      "midi": 63,
      "hit": false,
      "t": 232674.90305207836,
      "d": 53.57140625000466,
      "v": 71
    },
    {
      "midi": 88,
      "hit": false,
      "t": 232689.1887604117,
      "d": 67.85711458334117,
      "v": 89
    },
    {
      "midi": 54,
      "hit": false,
      "t": 232692.76018749503,
      "d": 53.57140625000466,
      "v": 60
    },
    {
      "midi": 92,
      "hit": false,
      "t": 232760.61730207838,
      "d": 71.42854166665347,
      "v": 78
    },
    {
      "midi": 88,
      "hit": false,
      "t": 232839.18869791168,
      "d": 135.71422916668234,
      "v": 76
    },
    {
      "midi": 49,
      "hit": false,
      "t": 232871.3315416617,
      "d": 46.42855208332185,
      "v": 75
    },
    {
      "midi": 89,
      "hit": false,
      "t": 232917.76009374502,
      "d": 71.42854166668258,
      "v": 75
    },
    {
      "midi": 93,
      "hit": false,
      "t": 232985.61720832836,
      "d": 57.14283333334606,
      "v": 75
    },
    {
      "midi": 66,
      "hit": false,
      "t": 233003.47434374504,
      "d": 89.2856770833605,
      "v": 74
    },
    {
      "midi": 89,
      "hit": false,
      "t": 233060.61717707838,
      "d": 110.71423958337982,
      "v": 76
    },
    {
      "midi": 90,
      "hit": false,
      "t": 233146.3314270784,
      "d": 78.57139583336539,
      "v": 77
    },
    {
      "midi": 63,
      "hit": false,
      "t": 233149.90285416174,
      "d": 35.71427083335584,
      "v": 67
    },
    {
      "midi": 54,
      "hit": false,
      "t": 233167.75998957842,
      "d": 28.57141666667303,
      "v": 55
    },
    {
      "midi": 94,
      "hit": false,
      "t": 233224.90282291177,
      "d": 60.71426041665836,
      "v": 76
    },
    {
      "midi": 90,
      "hit": false,
      "t": 233303.4742187451,
      "d": 60.71426041665836,
      "v": 79
    },
    {
      "midi": 49,
      "hit": false,
      "t": 233317.75992707844,
      "d": 53.57140624997555,
      "v": 78
    },
    {
      "midi": 91,
      "hit": false,
      "t": 233378.47418749507,
      "d": 64.28568749999977,
      "v": 74
    },
    {
      "midi": 96,
      "hit": false,
      "t": 233446.3313020784,
      "d": 71.42854166668258,
      "v": 76
    },
    {
      "midi": 66,
      "hit": false,
      "t": 233464.1884374951,
      "d": 82.14282291667769,
      "v": 77
    },
    {
      "midi": 91,
      "hit": false,
      "t": 233542.75983332843,
      "d": 107.14281250000931,
      "v": 79
    },
    {
      "midi": 63,
      "hit": false,
      "t": 233599.90266666177,
      "d": 28.57141666667303,
      "v": 62
    },
    {
      "midi": 56,
      "hit": false,
      "t": 233617.75980207845,
      "d": 17.857135416648816,
      "v": 50
    },
    {
      "midi": 92,
      "hit": false,
      "t": 233617.75980207845,
      "d": 78.57139583330718,
      "v": 73
    },
    {
      "midi": 96,
      "hit": false,
      "t": 233696.33119791176,
      "d": 60.714260416687466,
      "v": 73
    },
    {
      "midi": 91,
      "hit": false,
      "t": 233778.47402082843,
      "d": 96.4285312499851,
      "v": 86
    },
    {
      "midi": 48,
      "hit": false,
      "t": 233782.04544791178,
      "d": 39.28569791663904,
      "v": 84
    },
    {
      "midi": 92,
      "hit": false,
      "t": 233853.47398957843,
      "d": 89.2856770833314,
      "v": 76
    },
    {
      "midi": 66,
      "hit": false,
      "t": 233928.47395832842,
      "d": 85.71425000001909,
      "v": 74
    },
    {
      "midi": 97,
      "hit": false,
      "t": 233932.04538541177,
      "d": 64.28568749999977,
      "v": 77
    },
    {
      "midi": 91,
      "hit": false,
      "t": 234017.75963541178,
      "d": 92.8571041666437,
      "v": 84
    },
    {
      "midi": 63,
      "hit": false,
      "t": 234053.4739062451,
      "d": 42.85712499998044,
      "v": 67
    },
    {
      "midi": 56,
      "hit": false,
      "t": 234067.75961457845,
      "d": 39.28569791663904,
      "v": 51
    },
    {
      "midi": 92,
      "hit": false,
      "t": 234089.18817707844,
      "d": 85.71424999998999,
      "v": 76
    },
    {
      "midi": 99,
      "hit": false,
      "t": 234157.04529166175,
      "d": 96.4285312500142,
      "v": 85
    },
    {
      "midi": 49,
      "hit": false,
      "t": 234221.33097916175,
      "d": 57.14283333334606,
      "v": 70
    },
    {
      "midi": 56,
      "hit": false,
      "t": 234264.18810416176,
      "d": 53.57140624997555,
      "v": 72
    },
    {
      "midi": 91,
      "hit": false,
      "t": 234264.18810416176,
      "d": 103.5713854166388,
      "v": 76
    },
    {
      "midi": 64,
      "hit": false,
      "t": 234296.33094791175,
      "d": 35.71427083332674,
      "v": 69
    },
    {
      "midi": 92,
      "hit": false,
      "t": 234353.47378124506,
      "d": 85.71424999998999,
      "v": 92
    },
    {
      "midi": 100,
      "hit": false,
      "t": 234428.47374999506,
      "d": 110.71423958335072,
      "v": 90
    },
    {
      "midi": 97,
      "hit": false,
      "t": 234496.3308645784,
      "d": 135.71422916671145,
      "v": 73
    },
    {
      "midi": 70,
      "hit": false,
      "t": 234553.47369791174,
      "d": 107.14281250003842,
      "v": 91
    },
    {
      "midi": 92,
      "hit": false,
      "t": 234564.18797916174,
      "d": 82.14282291670679,
      "v": 81
    },
    {
      "midi": 64,
      "hit": false,
      "t": 234567.75940624508,
      "d": 21.428562500019325,
      "v": 63
    },
    {
      "midi": 58,
      "hit": false,
      "t": 234571.33083332842,
      "d": 74.99996875002398,
      "v": 58
    },
    {
      "midi": 88,
      "hit": false,
      "t": 234642.7593749951,
      "d": 39.28569791666814,
      "v": 85
    },
    {
      "midi": 83,
      "hit": false,
      "t": 234735.61647916178,
      "d": 57.14283333334606,
      "v": 62
    },
    {
      "midi": 59,
      "hit": false,
      "t": 234735.61647916178,
      "d": 64.28568750002887,
      "v": 71
    },
    {
      "midi": 61,
      "hit": false,
      "t": 234735.61647916178,
      "d": 71.42854166671168,
      "v": 60
    },
    {
      "midi": 71,
      "hit": false,
      "t": 234735.61647916178,
      "d": 82.14282291670679,
      "v": 92
    },
    {
      "midi": 64,
      "hit": false,
      "t": 234735.61647916178,
      "d": 99.99995833335561,
      "v": 75
    },
    {
      "midi": 85,
      "hit": false,
      "t": 234785.61645832844,
      "d": 10.714281250024214,
      "v": 76
    },
    {
      "midi": 80,
      "hit": false,
      "t": 234803.47359374515,
      "d": 57.14283333331696,
      "v": 76
    },
    {
      "midi": 88,
      "hit": false,
      "t": 234896.3306979118,
      "d": 64.28568749999977,
      "v": 86
    },
    {
      "midi": 85,
      "hit": false,
      "t": 234971.3306666618,
      "d": 128.57137499999953,
      "v": 71
    },
    {
      "midi": 61,
      "hit": false,
      "t": 235046.33063541178,
      "d": 67.85711458334117,
      "v": 81
    },
    {
      "midi": 80,
      "hit": false,
      "t": 235046.33063541178,
      "d": 74.99996874999488,
      "v": 79
    },
    {
      "midi": 49,
      "hit": false,
      "t": 235049.90206249512,
      "d": 39.28569791666814,
      "v": 65
    },
    {
      "midi": 76,
      "hit": false,
      "t": 235128.47345832843,
      "d": 24.999989583331626,
      "v": 74
    },
    {
      "midi": 64,
      "hit": false,
      "t": 235228.47341666176,
      "d": 96.4285312499851,
      "v": 88
    },
    {
      "midi": 52,
      "hit": false,
      "t": 235235.6162708284,
      "d": 107.14281250000931,
      "v": 77
    },
    {
      "midi": 74,
      "hit": false,
      "t": 235239.18769791175,
      "d": 21.42856249999022,
      "v": 28
    },
    {
      "midi": 68,
      "hit": false,
      "t": 235289.18767707841,
      "d": 64.28568749999977,
      "v": 67
    },
    {
      "midi": 76,
      "hit": false,
      "t": 235389.18763541174,
      "d": 46.42855208332185,
      "v": 79
    },
    {
      "midi": 73,
      "hit": false,
      "t": 235464.18760416174,
      "d": 82.14282291664858,
      "v": 67
    },
    {
      "midi": 68,
      "hit": false,
      "t": 235546.33042707838,
      "d": 78.57139583333628,
      "v": 70
    },
    {
      "midi": 44,
      "hit": false,
      "t": 235549.90185416173,
      "d": 46.42855208332185,
      "v": 67
    },
    {
      "midi": 56,
      "hit": false,
      "t": 235549.90185416173,
      "d": 82.14282291664858,
      "v": 85
    },
    {
      "midi": 64,
      "hit": false,
      "t": 235632.04467707837,
      "d": 35.71427083332674,
      "v": 71
    },
    {
      "midi": 61,
      "hit": false,
      "t": 235724.90178124502,
      "d": 57.14283333334606,
      "v": 71
    },
    {
      "midi": 59,
      "hit": false,
      "t": 235732.04463541167,
      "d": 64.28568749999977,
      "v": 96
    },
    {
      "midi": 47,
      "hit": false,
      "t": 235732.04463541167,
      "d": 89.2856770833314,
      "v": 82
    },
    {
      "midi": 56,
      "hit": false,
      "t": 235807.04460416167,
      "d": 64.28568749999977,
      "v": 67
    },
    {
      "midi": 64,
      "hit": false,
      "t": 235896.330281245,
      "d": 64.28568749999977,
      "v": 76
    },
    {
      "midi": 61,
      "hit": false,
      "t": 235960.615968745,
      "d": 117.85709375000442,
      "v": 62
    },
    {
      "midi": 56,
      "hit": false,
      "t": 236039.1873645783,
      "d": 64.28568749999977,
      "v": 74
    },
    {
      "midi": 40,
      "hit": false,
      "t": 236057.04449999498,
      "d": 71.42854166668258,
      "v": 74
    },
    {
      "midi": 28,
      "hit": false,
      "t": 236060.61592707832,
      "d": 46.42855208332185,
      "v": 66
    },
    {
      "midi": 52,
      "hit": false,
      "t": 236124.90161457832,
      "d": 46.42855208335095,
      "v": 82
    },
    {
      "midi": 56,
      "hit": false,
      "t": 236221.3301458283,
      "d": 78.57139583333628,
      "v": 85
    },
    {
      "midi": 40,
      "hit": false,
      "t": 236228.47299999496,
      "d": 49.99997916666325,
      "v": 67
    },
    {
      "midi": 49,
      "hit": false,
      "t": 236228.47299999496,
      "d": 53.57140625000466,
      "v": 69
    },
    {
      "midi": 28,
      "hit": false,
      "t": 236232.0444270783,
      "d": 39.28569791666814,
      "v": 65
    },
    {
      "midi": 58,
      "hit": false,
      "t": 236557.04429166164,
      "d": 128.57137499999953,
      "v": 88
    },
    {
      "midi": 49,
      "hit": false,
      "t": 236560.615718745,
      "d": 153.57136458333116,
      "v": 69
    },
    {
      "midi": 55,
      "hit": false,
      "t": 236564.18714582833,
      "d": 71.42854166665347,
      "v": 72
    },
    {
      "midi": 51,
      "hit": false,
      "t": 236564.18714582833,
      "d": 317.85701041665743,
      "v": 69
    },
    {
      "midi": 27,
      "hit": false,
      "t": 236567.75857291167,
      "d": 42.85712499998044,
      "v": 73
    },
    {
      "midi": 39,
      "hit": false,
      "t": 236567.75857291167,
      "d": 46.42855208332185,
      "v": 70
    },
    {
      "midi": 47,
      "hit": false,
      "t": 236757.04420832833,
      "d": 157.14279166667257,
      "v": 70
    },
    {
      "midi": 32,
      "hit": false,
      "t": 236757.04420832833,
      "d": 160.71421875001397,
      "v": 69
    },
    {
      "midi": 44,
      "hit": false,
      "t": 236757.04420832833,
      "d": 199.9999166666821,
      "v": 74
    },
    {
      "midi": 56,
      "hit": false,
      "t": 236757.04420832833,
      "d": 199.9999166666821,
      "v": 66
    },
    {
      "midi": 59,
      "hit": false,
      "t": 236757.04420832833,
      "d": 210.71419791667722,
      "v": 89
    },
    {
      "midi": 49,
      "hit": false,
      "t": 237082.04407291167,
      "d": 42.857125000009546,
      "v": 67
    },
    {
      "midi": 61,
      "hit": false,
      "t": 237082.04407291167,
      "d": 64.28568750002887,
      "v": 82
    },
    {
      "midi": 52,
      "hit": false,
      "t": 237092.75835416166,
      "d": 17.85713541667792,
      "v": 69
    },
    {
      "midi": 58,
      "hit": false,
      "t": 237092.75835416166,
      "d": 35.71427083335584,
      "v": 60
    },
    {
      "midi": 30,
      "hit": false,
      "t": 237096.329781245,
      "d": 32.142843750014435,
      "v": 73
    },
    {
      "midi": 42,
      "hit": false,
      "t": 237096.329781245,
      "d": 32.142843750014435,
      "v": 69
    },
    {
      "midi": 59,
      "hit": false,
      "t": 237260.6154270784,
      "d": 49.99997916666325,
      "v": 82
    },
    {
      "midi": 63,
      "hit": false,
      "t": 237260.6154270784,
      "d": 74.99996874999488,
      "v": 84
    },
    {
      "midi": 54,
      "hit": false,
      "t": 237264.18685416173,
      "d": 28.571416666643927,
      "v": 66
    },
    {
      "midi": 47,
      "hit": false,
      "t": 237271.32970832838,
      "d": 39.28569791666814,
      "v": 76
    },
    {
      "midi": 35,
      "hit": false,
      "t": 237274.90113541172,
      "d": 42.85712499998044,
      "v": 78
    },
    {
      "midi": 46,
      "hit": false,
      "t": 237414.18679166172,
      "d": 39.28569791666814,
      "v": 74
    },
    {
      "midi": 34,
      "hit": false,
      "t": 237414.18679166172,
      "d": 53.57140625000466,
      "v": 77
    },
    {
      "midi": 54,
      "hit": false,
      "t": 237571.3295833284,
      "d": 64.28568749999977,
      "v": 63
    },
    {
      "midi": 63,
      "hit": false,
      "t": 237571.3295833284,
      "d": 71.42854166665347,
      "v": 88
    },
    {
      "midi": 60,
      "hit": false,
      "t": 237574.90101041173,
      "d": 60.71426041665836,
      "v": 68
    },
    {
      "midi": 45,
      "hit": false,
      "t": 237578.47243749507,
      "d": 46.42855208332185,
      "v": 74
    },
    {
      "midi": 33,
      "hit": false,
      "t": 237585.61529166173,
      "d": 39.28569791666814,
      "v": 76
    },
    {
      "midi": 64,
      "hit": false,
      "t": 237760.61521874505,
      "d": 74.99996874999488,
      "v": 92
    },
    {
      "midi": 55,
      "hit": false,
      "t": 237767.7580729117,
      "d": 39.285697916697245,
      "v": 70
    },
    {
      "midi": 60,
      "hit": false,
      "t": 237767.7580729117,
      "d": 60.714260416687466,
      "v": 70
    },
    {
      "midi": 43,
      "hit": false,
      "t": 237771.32949999504,
      "d": 46.42855208335095,
      "v": 75
    },
    {
      "midi": 31,
      "hit": false,
      "t": 237774.9009270784,
      "d": 39.28569791666814,
      "v": 76
    },
    {
      "midi": 65,
      "hit": false,
      "t": 238092.75793749504,
      "d": 60.71426041665836,
      "v": 85
    },
    {
      "midi": 59,
      "hit": false,
      "t": 238096.32936457839,
      "d": 42.85712499998044,
      "v": 72
    },
    {
      "midi": 55,
      "hit": false,
      "t": 238107.04364582838,
      "d": 53.57140624997555,
      "v": 72
    },
    {
      "midi": 43,
      "hit": false,
      "t": 238114.18649999503,
      "d": 39.28569791666814,
      "v": 73
    },
    {
      "midi": 58,
      "hit": false,
      "t": 238267.75786457837,
      "d": 32.14284374998533,
      "v": 72
    },
    {
      "midi": 66,
      "hit": false,
      "t": 238267.75786457837,
      "d": 53.57140625000466,
      "v": 87
    },
    {
      "midi": 61,
      "hit": false,
      "t": 238274.90071874502,
      "d": 28.57141666667303,
      "v": 70
    },
    {
      "midi": 54,
      "hit": false,
      "t": 238278.47214582836,
      "d": 35.71427083332674,
      "v": 74
    },
    {
      "midi": 42,
      "hit": false,
      "t": 238278.47214582836,
      "d": 39.28569791666814,
      "v": 74
    },
    {
      "midi": 49,
      "hit": false,
      "t": 238292.7578541617,
      "d": 17.857135416648816,
      "v": 46
    },
    {
      "midi": 53,
      "hit": false,
      "t": 238414.18637499504,
      "d": 42.857125000009546,
      "v": 76
    },
    {
      "midi": 41,
      "hit": false,
      "t": 238417.75780207838,
      "d": 42.857125000009546,
      "v": 77
    },
    {
      "midi": 61,
      "hit": false,
      "t": 238567.7577395784,
      "d": 39.28569791666814,
      "v": 70
    },
    {
      "midi": 66,
      "hit": false,
      "t": 238567.7577395784,
      "d": 60.71426041665836,
      "v": 72
    },
    {
      "midi": 58,
      "hit": false,
      "t": 238567.7577395784,
      "d": 67.85711458331207,
      "v": 77
    },
    {
      "midi": 70,
      "hit": false,
      "t": 238567.7577395784,
      "d": 82.14282291664858,
      "v": 88
    },
    {
      "midi": 52,
      "hit": false,
      "t": 238578.4720208284,
      "d": 39.28569791666814,
      "v": 77
    },
    {
      "midi": 40,
      "hit": false,
      "t": 238585.61487499505,
      "d": 24.99998958336073,
      "v": 78
    },
    {
      "midi": 59,
      "hit": false,
      "t": 238742.7576666617,
      "d": 89.2856770833314,
      "v": 77
    },
    {
      "midi": 71,
      "hit": false,
      "t": 238742.7576666617,
      "d": 132.14280208334094,
      "v": 91
    },
    {
      "midi": 66,
      "hit": false,
      "t": 238746.32909374504,
      "d": 124.99994791665813,
      "v": 73
    },
    {
      "midi": 63,
      "hit": false,
      "t": 238749.90052082838,
      "d": 103.5713854166388,
      "v": 70
    },
    {
      "midi": 51,
      "hit": false,
      "t": 238757.04337499503,
      "d": 53.57140625000466,
      "v": 84
    },
    {
      "midi": 39,
      "hit": false,
      "t": 238757.04337499503,
      "d": 60.71426041665836,
      "v": 86
    },
    {
      "midi": 60,
      "hit": false,
      "t": 239064.18610416172,
      "d": 53.57140624997555,
      "v": 70
    },
    {
      "midi": 72,
      "hit": false,
      "t": 239064.18610416172,
      "d": 67.85711458331207,
      "v": 88
    },
    {
      "midi": 68,
      "hit": false,
      "t": 239064.18610416172,
      "d": 82.14282291664858,
      "v": 73
    },
    {
      "midi": 56,
      "hit": false,
      "t": 239071.32895832838,
      "d": 46.42855208332185,
      "v": 74
    },
    {
      "midi": 44,
      "hit": false,
      "t": 239078.47181249503,
      "d": 42.857125000009546,
      "v": 76
    },
    {
      "midi": 61,
      "hit": false,
      "t": 239246.3288854117,
      "d": 117.85709374997532,
      "v": 83
    },
    {
      "midi": 73,
      "hit": false,
      "t": 239246.3288854117,
      "d": 121.42852083331672,
      "v": 90
    },
    {
      "midi": 68,
      "hit": false,
      "t": 239246.3288854117,
      "d": 153.57136458333116,
      "v": 73
    },
    {
      "midi": 52,
      "hit": false,
      "t": 239260.61459374503,
      "d": 96.4285312499851,
      "v": 77
    },
    {
      "midi": 40,
      "hit": false,
      "t": 239260.61459374503,
      "d": 107.14281249998021,
      "v": 79
    },
    {
      "midi": 63,
      "hit": false,
      "t": 239582.04303124503,
      "d": 82.14282291664858,
      "v": 84
    },
    {
      "midi": 75,
      "hit": false,
      "t": 239582.04303124503,
      "d": 114.28566666666302,
      "v": 93
    },
    {
      "midi": 68,
      "hit": false,
      "t": 239582.04303124503,
      "d": 167.85707291666768,
      "v": 78
    },
    {
      "midi": 48,
      "hit": false,
      "t": 239592.75731249503,
      "d": 57.14283333331696,
      "v": 80
    },
    {
      "midi": 36,
      "hit": false,
      "t": 239596.32873957837,
      "d": 46.42855208332185,
      "v": 83
    },
    {
      "midi": 76,
      "hit": false,
      "t": 239782.04294791172,
      "d": 110.71423958332161,
      "v": 95
    },
    {
      "midi": 68,
      "hit": false,
      "t": 239785.61437499506,
      "d": 157.14279166664346,
      "v": 74
    },
    {
      "midi": 64,
      "hit": false,
      "t": 239785.61437499506,
      "d": 171.42849999997998,
      "v": 77
    },
    {
      "midi": 49,
      "hit": false,
      "t": 239792.7572291617,
      "d": 107.14281249998021,
      "v": 81
    },
    {
      "midi": 37,
      "hit": false,
      "t": 239792.7572291617,
      "d": 110.71423958332161,
      "v": 85
    },
    {
      "midi": 70,
      "hit": false,
      "t": 240171.32849999506,
      "d": 74.99996874999488,
      "v": 93
    },
    {
      "midi": 64,
      "hit": false,
      "t": 240178.4713541617,
      "d": 39.28569791666814,
      "v": 76
    },
    {
      "midi": 66,
      "hit": false,
      "t": 240178.4713541617,
      "d": 42.857125000009546,
      "v": 73
    },
    {
      "midi": 54,
      "hit": false,
      "t": 240182.04278124505,
      "d": 57.14283333331696,
      "v": 86
    },
    {
      "midi": 42,
      "hit": false,
      "t": 240182.04278124505,
      "d": 60.71426041665836,
      "v": 87
    },
    {
      "midi": 35,
      "hit": false,
      "t": 240460.61409374504,
      "d": 160.71421874998487,
      "v": 84
    },
    {
      "midi": 47,
      "hit": false,
      "t": 240464.18552082838,
      "d": 185.7142083333165,
      "v": 107
    },
    {
      "midi": 95,
      "hit": false,
      "t": 240471.32837499504,
      "d": 103.5713854166388,
      "v": 97
    },
    {
      "midi": 99,
      "hit": false,
      "t": 240578.47118749502,
      "d": 92.8571041667019,
      "v": 79
    },
    {
      "midi": 98,
      "hit": false,
      "t": 240667.75686457838,
      "d": 71.42854166668258,
      "v": 89
    },
    {
      "midi": 95,
      "hit": false,
      "t": 240742.7568333284,
      "d": 107.14281250000931,
      "v": 80
    },
    {
      "midi": 94,
      "hit": false,
      "t": 240824.89965624508,
      "d": 64.28568749999977,
      "v": 76
    },
    {
      "midi": 97,
      "hit": false,
      "t": 240896.32819791173,
      "d": 71.42854166668258,
      "v": 72
    },
    {
      "midi": 98,
      "hit": false,
      "t": 240924.8996145784,
      "d": 39.28569791666814,
      "v": 44
    },
    {
      "midi": 66,
      "hit": false,
      "t": 240989.1853020784,
      "d": 364.2855624999793,
      "v": 93
    },
    {
      "midi": 63,
      "hit": false,
      "t": 240992.75672916175,
      "d": 317.85701041665743,
      "v": 79
    },
    {
      "midi": 96,
      "hit": false,
      "t": 240999.8995833284,
      "d": 64.28568749999977,
      "v": 58
    },
    {
      "midi": 54,
      "hit": false,
      "t": 240999.8995833284,
      "d": 289.2855937500135,
      "v": 73
    },
    {
      "midi": 59,
      "hit": false,
      "t": 240999.8995833284,
      "d": 296.4284479166672,
      "v": 70
    },
    {
      "midi": 95,
      "hit": false,
      "t": 241014.18529166174,
      "d": 21.42856249999022,
      "v": 29
    },
    {
      "midi": 93,
      "hit": false,
      "t": 241078.47097916174,
      "d": 135.71422916668234,
      "v": 80
    },
    {
      "midi": 92,
      "hit": false,
      "t": 241157.04237499507,
      "d": 57.14283333334606,
      "v": 80
    },
    {
      "midi": 95,
      "hit": false,
      "t": 241235.6137708284,
      "d": 64.28568749999977,
      "v": 81
    },
    {
      "midi": 94,
      "hit": false,
      "t": 241317.75659374506,
      "d": 74.99996874999488,
      "v": 80
    },
    {
      "midi": 91,
      "hit": false,
      "t": 241407.0422708284,
      "d": 107.14281250003842,
      "v": 75
    },
    {
      "midi": 90,
      "hit": false,
      "t": 241496.32794791172,
      "d": 67.85711458337028,
      "v": 73
    },
    {
      "midi": 68,
      "hit": false,
      "t": 241499.89937499506,
      "d": 210.71419791670633,
      "v": 92
    },
    {
      "midi": 63,
      "hit": false,
      "t": 241503.4708020784,
      "d": 282.1427395833598,
      "v": 73
    },
    {
      "midi": 59,
      "hit": false,
      "t": 241507.04222916174,
      "d": 253.57132291668677,
      "v": 69
    },
    {
      "midi": 54,
      "hit": false,
      "t": 241510.61365624508,
      "d": 278.5713125000184,
      "v": 56
    },
    {
      "midi": 93,
      "hit": false,
      "t": 241574.89934374508,
      "d": 82.14282291667769,
      "v": 85
    },
    {
      "midi": 92,
      "hit": false,
      "t": 241657.04216666176,
      "d": 74.99996874999488,
      "v": 86
    },
    {
      "midi": 89,
      "hit": false,
      "t": 241732.04213541176,
      "d": 85.71425000001909,
      "v": 47
    },
    {
      "midi": 88,
      "hit": false,
      "t": 241807.04210416178,
      "d": 53.57140625000466,
      "v": 69
    },
    {
      "midi": 91,
      "hit": false,
      "t": 241885.61349999512,
      "d": 71.42854166665347,
      "v": 86
    },
    {
      "midi": 90,
      "hit": false,
      "t": 241964.18489582842,
      "d": 121.42852083331672,
      "v": 79
    },
    {
      "midi": 66,
      "hit": false,
      "t": 241985.61345832841,
      "d": 103.57138541666791,
      "v": 90
    },
    {
      "midi": 63,
      "hit": false,
      "t": 241985.61345832841,
      "d": 107.14281250000931,
      "v": 73
    },
    {
      "midi": 59,
      "hit": false,
      "t": 241992.75631249507,
      "d": 21.42856249999022,
      "v": 62
    },
    {
      "midi": 54,
      "hit": false,
      "t": 241992.75631249507,
      "d": 64.28568749999977,
      "v": 67
    },
    {
      "midi": 87,
      "hit": false,
      "t": 242060.6134270784,
      "d": 85.71425000001909,
      "v": 78
    },
    {
      "midi": 86,
      "hit": false,
      "t": 242146.32767707843,
      "d": 60.71426041665836,
      "v": 79
    },
    {
      "midi": 89,
      "hit": false,
      "t": 242232.04192707842,
      "d": 60.71426041665836,
      "v": 78
    },
    {
      "midi": 88,
      "hit": false,
      "t": 242314.18474999507,
      "d": 64.28568749999977,
      "v": 77
    },
    {
      "midi": 85,
      "hit": false,
      "t": 242385.61329166172,
      "d": 74.99996874999488,
      "v": 77
    },
    {
      "midi": 63,
      "hit": false,
      "t": 242474.89896874505,
      "d": 53.57140625000466,
      "v": 72
    },
    {
      "midi": 75,
      "hit": false,
      "t": 242474.89896874505,
      "d": 67.85711458334117,
      "v": 102
    },
    {
      "midi": 66,
      "hit": false,
      "t": 242474.89896874505,
      "d": 74.99996874999488,
      "v": 69
    },
    {
      "midi": 71,
      "hit": false,
      "t": 242478.4703958284,
      "d": 64.28568749999977,
      "v": 83
    },
    {
      "midi": 84,
      "hit": false,
      "t": 242478.4703958284,
      "d": 71.42854166665347,
      "v": 74
    },
    {
      "midi": 87,
      "hit": false,
      "t": 242557.0417916617,
      "d": 135.71422916668234,
      "v": 53
    },
    {
      "midi": 86,
      "hit": false,
      "t": 242639.18461457838,
      "d": 71.42854166668258,
      "v": 82
    },
    {
      "midi": 83,
      "hit": false,
      "t": 242717.75601041171,
      "d": 82.14282291667769,
      "v": 71
    },
    {
      "midi": 82,
      "hit": false,
      "t": 242796.32740624505,
      "d": 60.714260416687466,
      "v": 73
    },
    {
      "midi": 85,
      "hit": false,
      "t": 242857.04166666174,
      "d": 82.14282291667769,
      "v": 55
    },
    {
      "midi": 84,
      "hit": false,
      "t": 242939.18448957842,
      "d": 78.57139583333628,
      "v": 64
    },
    {
      "midi": 81,
      "hit": false,
      "t": 243024.8987395784,
      "d": 78.57139583333628,
      "v": 74
    },
    {
      "midi": 80,
      "hit": false,
      "t": 243092.75585416175,
      "d": 64.28568749999977,
      "v": 72
    },
    {
      "midi": 83,
      "hit": false,
      "t": 243171.32724999508,
      "d": 82.14282291667769,
      "v": 79
    },
    {
      "midi": 82,
      "hit": false,
      "t": 243249.89864582842,
      "d": 71.42854166668258,
      "v": 78
    },
    {
      "midi": 79,
      "hit": false,
      "t": 243324.89861457844,
      "d": 64.28568749999977,
      "v": 77
    },
    {
      "midi": 78,
      "hit": false,
      "t": 243403.47001041178,
      "d": 74.99996874999488,
      "v": 81
    },
    {
      "midi": 81,
      "hit": false,
      "t": 243489.18426041177,
      "d": 82.14282291664858,
      "v": 75
    },
    {
      "midi": 80,
      "hit": false,
      "t": 243560.61280207842,
      "d": 71.42854166665347,
      "v": 81
    },
    {
      "midi": 77,
      "hit": false,
      "t": 243632.04134374508,
      "d": 67.85711458334117,
      "v": 79
    },
    {
      "midi": 76,
      "hit": false,
      "t": 243721.3270208284,
      "d": 53.57140625000466,
      "v": 80
    },
    {
      "midi": 79,
      "hit": false,
      "t": 243803.4698437451,
      "d": 67.85711458334117,
      "v": 76
    },
    {
      "midi": 78,
      "hit": false,
      "t": 243885.61266666176,
      "d": 89.2856770833314,
      "v": 77
    },
    {
      "midi": 75,
      "hit": false,
      "t": 243971.32691666175,
      "d": 67.85711458334117,
      "v": 74
    },
    {
      "midi": 74,
      "hit": false,
      "t": 244046.32688541175,
      "d": 103.57138541666791,
      "v": 74
    },
    {
      "midi": 77,
      "hit": false,
      "t": 244132.04113541174,
      "d": 78.57139583333628,
      "v": 80
    },
    {
      "midi": 54,
      "hit": false,
      "t": 244199.89824999508,
      "d": 60.71426041665836,
      "v": 75
    },
    {
      "midi": 42,
      "hit": false,
      "t": 244207.04110416173,
      "d": 21.428562500019325,
      "v": 55
    },
    {
      "midi": 76,
      "hit": false,
      "t": 244210.61253124507,
      "d": 71.42854166665347,
      "v": 81
    },
    {
      "midi": 73,
      "hit": false,
      "t": 244285.61249999507,
      "d": 74.99996874999488,
      "v": 74
    },
    {
      "midi": 72,
      "hit": false,
      "t": 244371.32674999506,
      "d": 85.71424999998999,
      "v": 70
    },
    {
      "midi": 59,
      "hit": false,
      "t": 244382.04103124505,
      "d": 260.7141770833405,
      "v": 90
    },
    {
      "midi": 47,
      "hit": false,
      "t": 244385.6124583284,
      "d": 217.85705208333093,
      "v": 72
    },
    {
      "midi": 75,
      "hit": false,
      "t": 244446.32671874505,
      "d": 124.99994791665813,
      "v": 58
    },
    {
      "midi": 74,
      "hit": false,
      "t": 244532.04096874504,
      "d": 67.85711458334117,
      "v": 78
    },
    {
      "midi": 71,
      "hit": false,
      "t": 244614.18379166172,
      "d": 85.71425000001909,
      "v": 64
    },
    {
      "midi": 70,
      "hit": false,
      "t": 244699.89804166174,
      "d": 92.8571041666437,
      "v": 50
    },
    {
      "midi": 73,
      "hit": false,
      "t": 244764.18372916174,
      "d": 99.9999583332974,
      "v": 60
    },
    {
      "midi": 72,
      "hit": false,
      "t": 244846.32655207836,
      "d": 64.28568749999977,
      "v": 81
    },
    {
      "midi": 69,
      "hit": false,
      "t": 244921.32652082836,
      "d": 78.57139583333628,
      "v": 74
    },
    {
      "midi": 68,
      "hit": false,
      "t": 244996.32648957835,
      "d": 71.42854166668258,
      "v": 71
    },
    {
      "midi": 71,
      "hit": false,
      "t": 245074.8978854117,
      "d": 92.8571041666728,
      "v": 76
    },
    {
      "midi": 30,
      "hit": false,
      "t": 245135.61214582837,
      "d": 42.85712499998044,
      "v": 56
    },
    {
      "midi": 42,
      "hit": false,
      "t": 245142.75499999503,
      "d": 57.14283333331696,
      "v": 91
    },
    {
      "midi": 70,
      "hit": false,
      "t": 245146.32642707837,
      "d": 89.28567708330229,
      "v": 79
    },
    {
      "midi": 67,
      "hit": false,
      "t": 245228.46924999502,
      "d": 92.8571041666437,
      "v": 75
    },
    {
      "midi": 47,
      "hit": false,
      "t": 245314.183499995,
      "d": 82.14282291664858,
      "v": 102
    },
    {
      "midi": 35,
      "hit": false,
      "t": 245314.183499995,
      "d": 89.28567708330229,
      "v": 80
    },
    {
      "midi": 66,
      "hit": false,
      "t": 245321.32635416166,
      "d": 71.42854166665347,
      "v": 72
    },
    {
      "midi": 69,
      "hit": false,
      "t": 245407.04060416165,
      "d": 82.14282291667769,
      "v": 74
    },
    {
      "midi": 68,
      "hit": false,
      "t": 245474.897718745,
      "d": 89.2856770833314,
      "v": 67
    },
    {
      "midi": 65,
      "hit": false,
      "t": 245557.04054166167,
      "d": 85.71424999996088,
      "v": 66
    },
    {
      "midi": 42,
      "hit": false,
      "t": 245628.4690833283,
      "d": 42.85712499998044,
      "v": 88
    },
    {
      "midi": 30,
      "hit": false,
      "t": 245632.04051041164,
      "d": 32.14284374998533,
      "v": 67
    },
    {
      "midi": 64,
      "hit": false,
      "t": 245632.04051041164,
      "d": 67.85711458331207,
      "v": 82
    },
    {
      "midi": 67,
      "hit": false,
      "t": 245714.18333332828,
      "d": 82.14282291664858,
      "v": 74
    },
    {
      "midi": 66,
      "hit": false,
      "t": 245789.18330207828,
      "d": 132.14280208331184,
      "v": 75
    },
    {
      "midi": 47,
      "hit": false,
      "t": 245796.32615624493,
      "d": 57.14283333331696,
      "v": 96
    },
    {
      "midi": 35,
      "hit": false,
      "t": 245796.32615624493,
      "d": 64.28568749997066,
      "v": 81
    },
    {
      "midi": 63,
      "hit": false,
      "t": 245878.46897916158,
      "d": 78.57139583333628,
      "v": 74
    },
    {
      "midi": 62,
      "hit": false,
      "t": 245960.61180207826,
      "d": 71.42854166665347,
      "v": 74
    },
    {
      "midi": 65,
      "hit": false,
      "t": 246053.4689062449,
      "d": 85.71424999998999,
      "v": 74
    },
    {
      "midi": 42,
      "hit": false,
      "t": 246107.0403124949,
      "d": 39.28569791663904,
      "v": 92
    },
    {
      "midi": 30,
      "hit": false,
      "t": 246114.18316666156,
      "d": 24.999989583331626,
      "v": 73
    },
    {
      "midi": 64,
      "hit": false,
      "t": 246124.89744791156,
      "d": 92.8571041666728,
      "v": 82
    },
    {
      "midi": 61,
      "hit": false,
      "t": 246199.89741666155,
      "d": 78.57139583333628,
      "v": 76
    },
    {
      "midi": 47,
      "hit": false,
      "t": 246278.4688124949,
      "d": 557.1426250000077,
      "v": 96
    },
    {
      "midi": 60,
      "hit": false,
      "t": 246321.3259374949,
      "d": 71.42854166665347,
      "v": 68
    },
    {
      "midi": 35,
      "hit": false,
      "t": 246321.3259374949,
      "d": 514.2854999999981,
      "v": 61
    },
    {
      "midi": 63,
      "hit": false,
      "t": 246382.04019791156,
      "d": 114.28566666666302,
      "v": 59
    },
    {
      "midi": 62,
      "hit": false,
      "t": 246460.6115937449,
      "d": 60.71426041665836,
      "v": 83
    },
    {
      "midi": 59,
      "hit": false,
      "t": 246528.4687083282,
      "d": 92.8571041666728,
      "v": 74
    },
    {
      "midi": 58,
      "hit": false,
      "t": 246607.04010416154,
      "d": 67.85711458334117,
      "v": 72
    },
    {
      "midi": 61,
      "hit": false,
      "t": 246671.32579166154,
      "d": 139.28565625002375,
      "v": 62
    },
    {
      "midi": 60,
      "hit": false,
      "t": 246757.04004166156,
      "d": 74.99996874999488,
      "v": 83
    },
    {
      "midi": 57,
      "hit": false,
      "t": 246832.04001041155,
      "d": 103.57138541666791,
      "v": 73
    },
    {
      "midi": 56,
      "hit": false,
      "t": 246907.03997916155,
      "d": 82.14282291667769,
      "v": 71
    },
    {
      "midi": 59,
      "hit": false,
      "t": 246989.18280207823,
      "d": 67.85711458334117,
      "v": 75
    },
    {
      "midi": 54,
      "hit": false,
      "t": 247060.6113437449,
      "d": 74.99996874999488,
      "v": 81
    },
    {
      "midi": 42,
      "hit": false,
      "t": 247071.3256249949,
      "d": 85.71424999998999,
      "v": 76
    },
    {
      "midi": 59,
      "hit": false,
      "t": 247142.75416666156,
      "d": 67.85711458334117,
      "v": 81
    },
    {
      "midi": 53,
      "hit": false,
      "t": 247224.89698957824,
      "d": 74.99996874999488,
      "v": 86
    },
    {
      "midi": 41,
      "hit": false,
      "t": 247232.0398437449,
      "d": 89.2856770833314,
      "v": 76
    },
    {
      "midi": 59,
      "hit": false,
      "t": 247299.89695832823,
      "d": 71.42854166665347,
      "v": 76
    },
    {
      "midi": 40,
      "hit": false,
      "t": 247374.89692707823,
      "d": 57.14283333334606,
      "v": 74
    },
    {
      "midi": 52,
      "hit": false,
      "t": 247374.89692707823,
      "d": 92.8571041666728,
      "v": 82
    },
    {
      "midi": 59,
      "hit": false,
      "t": 247453.46832291156,
      "d": 74.99996874999488,
      "v": 81
    },
    {
      "midi": 51,
      "hit": false,
      "t": 247528.46829166156,
      "d": 85.71424999998999,
      "v": 83
    },
    {
      "midi": 39,
      "hit": false,
      "t": 247535.6111458282,
      "d": 78.57139583333628,
      "v": 71
    },
    {
      "midi": 59,
      "hit": false,
      "t": 247603.46826041155,
      "d": 71.42854166665347,
      "v": 80
    },
    {
      "midi": 38,
      "hit": false,
      "t": 247685.6110833282,
      "d": 60.71426041665836,
      "v": 80
    },
    {
      "midi": 50,
      "hit": false,
      "t": 247685.6110833282,
      "d": 74.99996874999488,
      "v": 85
    },
    {
      "midi": 59,
      "hit": false,
      "t": 247767.75390624485,
      "d": 67.85711458334117,
      "v": 83
    },
    {
      "midi": 49,
      "hit": false,
      "t": 247839.18244791153,
      "d": 85.71424999998999,
      "v": 84
    },
    {
      "midi": 37,
      "hit": false,
      "t": 247842.75387499487,
      "d": 92.8571041666437,
      "v": 77
    },
    {
      "midi": 59,
      "hit": false,
      "t": 247917.75384374487,
      "d": 74.99996874999488,
      "v": 82
    },
    {
      "midi": 48,
      "hit": false,
      "t": 247999.89666666152,
      "d": 74.99996874999488,
      "v": 87
    },
    {
      "midi": 36,
      "hit": false,
      "t": 248003.46809374486,
      "d": 60.71426041665836,
      "v": 78
    },
    {
      "midi": 59,
      "hit": false,
      "t": 248085.6109166615,
      "d": 74.99996874999488,
      "v": 81
    },
    {
      "midi": 35,
      "hit": false,
      "t": 248178.46802082818,
      "d": 85.71424999998999,
      "v": 88
    },
    {
      "midi": 47,
      "hit": false,
      "t": 248178.46802082818,
      "d": 96.4285312499851,
      "v": 99
    },
    {
      "midi": 58,
      "hit": false,
      "t": 248703.46780207814,
      "d": 74.99996875002398,
      "v": 81
    },
    {
      "midi": 70,
      "hit": false,
      "t": 248703.46780207814,
      "d": 92.8571041667019,
      "v": 95
    },
    {
      "midi": 66,
      "hit": false,
      "t": 248707.03922916148,
      "d": 92.8571041667019,
      "v": 75
    },
    {
      "midi": 64,
      "hit": false,
      "t": 248710.61065624483,
      "d": 71.42854166668258,
      "v": 82
    },
    {
      "midi": 54,
      "hit": false,
      "t": 248714.18208332817,
      "d": 53.57140625000466,
      "v": 82
    },
    {
      "midi": 42,
      "hit": false,
      "t": 248717.7535104115,
      "d": 49.99997916666325,
      "v": 72
    },
    {
      "midi": 49,
      "hit": false,
      "t": 248717.7535104115,
      "d": 53.57140625000466,
      "v": 77
    },
    {
      "midi": 66,
      "hit": false,
      "t": 249253.46757291153,
      "d": 164.28564583332627,
      "v": 75
    },
    {
      "midi": 71,
      "hit": false,
      "t": 249253.46757291153,
      "d": 178.5713541666628,
      "v": 97
    },
    {
      "midi": 59,
      "hit": false,
      "t": 249257.03899999487,
      "d": 135.71422916665324,
      "v": 83
    },
    {
      "midi": 63,
      "hit": false,
      "t": 249257.03899999487,
      "d": 153.57136458333116,
      "v": 71
    },
    {
      "midi": 54,
      "hit": false,
      "t": 249267.75328124486,
      "d": 153.57136458333116,
      "v": 79
    },
    {
      "midi": 47,
      "hit": false,
      "t": 249271.3247083282,
      "d": 139.28565624999464,
      "v": 74
    },
    {
      "midi": 78,
      "hit": false,
      "t": 249821.32447916153,
      "d": 171.42850000003818,
      "v": 95
    },
    {
      "midi": 66,
      "hit": false,
      "t": 249824.89590624487,
      "d": 164.28564583335537,
      "v": 83
    },
    {
      "midi": 73,
      "hit": false,
      "t": 249828.4673333282,
      "d": 174.99992708335049,
      "v": 78
    },
    {
      "midi": 70,
      "hit": false,
      "t": 249832.03876041155,
      "d": 167.85707291666768,
      "v": 77
    },
    {
      "midi": 54,
      "hit": false,
      "t": 249835.6101874949,
      "d": 167.85707291666768,
      "v": 64
    },
    {
      "midi": 64,
      "hit": false,
      "t": 249835.6101874949,
      "d": 167.85707291666768,
      "v": 78
    },
    {
      "midi": 61,
      "hit": false,
      "t": 249835.6101874949,
      "d": 178.5713541666628,
      "v": 65
    },
    {
      "midi": 71,
      "hit": false,
      "t": 250403.4670937449,
      "d": 585.7140416666516,
      "v": 83
    },
    {
      "midi": 59,
      "hit": false,
      "t": 250403.4670937449,
      "d": 592.8568958333053,
      "v": 81
    },
    {
      "midi": 63,
      "hit": false,
      "t": 250403.4670937449,
      "d": 596.4283229166467,
      "v": 83
    },
    {
      "midi": 47,
      "hit": false,
      "t": 250403.4670937449,
      "d": 607.1426041666418,
      "v": 82
    },
    {
      "midi": 75,
      "hit": false,
      "t": 250403.4670937449,
      "d": 607.1426041666418,
      "v": 106
    },
    {
      "midi": 66,
      "hit": false,
      "t": 250403.4670937449,
      "d": 621.4283124999783,
      "v": 69
    },
    {
      "midi": 54,
      "hit": false,
      "t": 250403.4670937449,
      "d": 649.9997291666514,
      "v": 80
    },
    {
      "midi": 63,
      "hit": false,
      "t": 251457.0380833282,
      "d": 117.85709375003353,
      "v": 100
    },
    {
      "midi": 51,
      "hit": false,
      "t": 251460.60951041154,
      "d": 64.28568750002887,
      "v": 85
    },
    {
      "midi": 54,
      "hit": false,
      "t": 251460.60951041154,
      "d": 89.2856770833605,
      "v": 73
    },
    {
      "midi": 23,
      "hit": false,
      "t": 251464.18093749488,
      "d": 46.42855208335095,
      "v": 96
    },
    {
      "midi": 35,
      "hit": false,
      "t": 251464.18093749488,
      "d": 49.999979166692356,
      "v": 91
    },
    {
      "midi": 59,
      "hit": false,
      "t": 251467.75236457822,
      "d": 82.14282291667769,
      "v": 76
    },
    {
      "midi": 95,
      "hit": false,
      "t": 252599.89474999488,
      "d": 89.2856770833605,
      "v": 110
    },
    {
      "midi": 75,
      "hit": false,
      "t": 252603.46617707823,
      "d": 64.28568749999977,
      "v": 82
    },
    {
      "midi": 66,
      "hit": false,
      "t": 252607.03760416157,
      "d": 60.71426041665836,
      "v": 74
    },
    {
      "midi": 83,
      "hit": false,
      "t": 252607.03760416157,
      "d": 64.28568749999977,
      "v": 94
    },
    {
      "midi": 63,
      "hit": false,
      "t": 252610.6090312449,
      "d": 49.99997916666325,
      "v": 73
    },
    {
      "midi": 71,
      "hit": false,
      "t": 252614.18045832825,
      "d": 53.57140624997555,
      "v": 75
    }
  ]
}