{
  "jsonPath": "Pop/Classic Italian Pop/Nomadi/ho-difeso-il-mio-amore-nights-in-white-satin-live.json",
  "path": "Pop\\Classic Italian Pop\\Nomadi\\Ho difeso il mio amore (Nights In White Satin) (live).mid",
  "name": "Ho difeso il mio amore (Nights In White Satin) (live)",
  "difficulty": "Advanced",
  "bpm": 58.00004253336452,
  "notes": [
    {
      "midi": 52,
      "hit": false,
      "t": 8275.856,
      "d": 1594.8264166666668,
      "v": 68
    },
    {
      "midi": 59,
      "hit": false,
      "t": 8275.856,
      "d": 948.2751666666663,
      "v": 75
    },
    {
      "midi": 67,
      "hit": false,
      "t": 8275.856,
      "d": 948.2751666666663,
      "v": 68
    },
    {
      "midi": 71,
      "hit": false,
      "t": 8275.856,
      "d": 948.2751666666663,
      "v": 75
    },
    {
      "midi": 64,
      "hit": false,
      "t": 8275.856,
      "d": 1034.482,
      "v": 75
    },
    {
      "midi": 76,
      "hit": false,
      "t": 8275.856,
      "d": 1034.482,
      "v": 71
    },
    {
      "midi": 52,
      "hit": false,
      "t": 8275.856,
      "d": 2198.2742500000004,
      "v": 73
    },
    {
      "midi": 71,
      "hit": false,
      "t": 9224.131166666666,
      "d": 344.82733333333454,
      "v": 68
    },
    {
      "midi": 67,
      "hit": false,
      "t": 9224.131166666666,
      "d": 431.03416666666817,
      "v": 73
    },
    {
      "midi": 59,
      "hit": false,
      "t": 9224.131166666666,
      "d": 1249.999083333334,
      "v": 71
    },
    {
      "midi": 64,
      "hit": false,
      "t": 9310.338,
      "d": 1206.8956666666672,
      "v": 81
    },
    {
      "midi": 76,
      "hit": false,
      "t": 9310.338,
      "d": 1206.8956666666672,
      "v": 63
    },
    {
      "midi": 71,
      "hit": false,
      "t": 9612.061916666667,
      "d": 905.1717499999995,
      "v": 65
    },
    {
      "midi": 67,
      "hit": false,
      "t": 9956.88925,
      "d": 517.241,
      "v": 81
    },
    {
      "midi": 52,
      "hit": false,
      "t": 9999.992666666667,
      "d": 301.7239166666659,
      "v": 68
    },
    {
      "midi": 50,
      "hit": false,
      "t": 10344.82,
      "d": 1336.2059166666659,
      "v": 70
    },
    {
      "midi": 74,
      "hit": false,
      "t": 10344.82,
      "d": 905.1717500000013,
      "v": 80
    },
    {
      "midi": 69,
      "hit": false,
      "t": 10344.82,
      "d": 948.2751666666682,
      "v": 74
    },
    {
      "midi": 62,
      "hit": false,
      "t": 10344.82,
      "d": 1034.4820000000018,
      "v": 83
    },
    {
      "midi": 78,
      "hit": false,
      "t": 10344.82,
      "d": 1077.5854166666686,
      "v": 77
    },
    {
      "midi": 57,
      "hit": false,
      "t": 10344.82,
      "d": 2241.377666666669,
      "v": 80
    },
    {
      "midi": 74,
      "hit": false,
      "t": 11249.991750000001,
      "d": 431.03416666666817,
      "v": 74
    },
    {
      "midi": 69,
      "hit": false,
      "t": 11293.095166666668,
      "d": 431.03416666666817,
      "v": 78
    },
    {
      "midi": 62,
      "hit": false,
      "t": 11379.302000000001,
      "d": 1206.8956666666672,
      "v": 80
    },
    {
      "midi": 78,
      "hit": false,
      "t": 11422.405416666668,
      "d": 1163.7922500000004,
      "v": 92
    },
    {
      "midi": 74,
      "hit": false,
      "t": 11681.02591666667,
      "d": 948.2751666666663,
      "v": 80
    },
    {
      "midi": 47,
      "hit": false,
      "t": 11724.129333333332,
      "d": 301.7239166666659,
      "v": 57
    },
    {
      "midi": 69,
      "hit": false,
      "t": 12025.853250000002,
      "d": 560.3444166666668,
      "v": 89
    },
    {
      "midi": 50,
      "hit": false,
      "t": 12068.956666666665,
      "d": 301.7239166666659,
      "v": 71
    },
    {
      "midi": 52,
      "hit": false,
      "t": 12413.783999999998,
      "d": 948.2751666666663,
      "v": 72
    },
    {
      "midi": 59,
      "hit": false,
      "t": 12413.784000000001,
      "d": 948.2751666666682,
      "v": 75
    },
    {
      "midi": 67,
      "hit": false,
      "t": 12413.784000000001,
      "d": 948.2751666666682,
      "v": 68
    },
    {
      "midi": 71,
      "hit": false,
      "t": 12413.784000000001,
      "d": 948.2751666666682,
      "v": 75
    },
    {
      "midi": 64,
      "hit": false,
      "t": 12413.784000000001,
      "d": 1034.4820000000018,
      "v": 75
    },
    {
      "midi": 76,
      "hit": false,
      "t": 12413.784000000001,
      "d": 1034.4820000000018,
      "v": 71
    },
    {
      "midi": 52,
      "hit": false,
      "t": 12413.784000000001,
      "d": 2198.274250000002,
      "v": 73
    },
    {
      "midi": 71,
      "hit": false,
      "t": 13362.05916666667,
      "d": 344.82733333333454,
      "v": 68
    },
    {
      "midi": 67,
      "hit": false,
      "t": 13362.05916666667,
      "d": 431.03416666666817,
      "v": 73
    },
    {
      "midi": 59,
      "hit": false,
      "t": 13362.05916666667,
      "d": 1249.999083333334,
      "v": 71
    },
    {
      "midi": 64,
      "hit": false,
      "t": 13448.265999999998,
      "d": 387.93074999999953,
      "v": 68
    },
    {
      "midi": 64,
      "hit": false,
      "t": 13448.266000000003,
      "d": 1206.8956666666672,
      "v": 81
    },
    {
      "midi": 76,
      "hit": false,
      "t": 13448.266000000003,
      "d": 1206.8956666666672,
      "v": 63
    },
    {
      "midi": 71,
      "hit": false,
      "t": 13749.989916666671,
      "d": 905.1717499999995,
      "v": 65
    },
    {
      "midi": 59,
      "hit": false,
      "t": 13793.09333333333,
      "d": 301.7239166666659,
      "v": 68
    },
    {
      "midi": 67,
      "hit": false,
      "t": 14094.817250000004,
      "d": 517.241,
      "v": 81
    },
    {
      "midi": 55,
      "hit": false,
      "t": 14137.920666666663,
      "d": 301.7239166666659,
      "v": 69
    },
    {
      "midi": 50,
      "hit": false,
      "t": 14482.747999999996,
      "d": 1293.1025000000009,
      "v": 72
    },
    {
      "midi": 74,
      "hit": false,
      "t": 14482.748000000003,
      "d": 905.1717500000013,
      "v": 80
    },
    {
      "midi": 69,
      "hit": false,
      "t": 14482.748000000003,
      "d": 948.2751666666682,
      "v": 74
    },
    {
      "midi": 62,
      "hit": false,
      "t": 14482.748000000003,
      "d": 1034.4820000000018,
      "v": 83
    },
    {
      "midi": 78,
      "hit": false,
      "t": 14482.748000000003,
      "d": 1077.5854166666686,
      "v": 77
    },
    {
      "midi": 57,
      "hit": false,
      "t": 14482.748000000003,
      "d": 2241.377666666671,
      "v": 80
    },
    {
      "midi": 74,
      "hit": false,
      "t": 15387.919750000005,
      "d": 431.03416666666817,
      "v": 74
    },
    {
      "midi": 69,
      "hit": false,
      "t": 15431.023166666671,
      "d": 431.03416666666817,
      "v": 78
    },
    {
      "midi": 62,
      "hit": false,
      "t": 15517.230000000005,
      "d": 1206.895666666669,
      "v": 80
    },
    {
      "midi": 78,
      "hit": false,
      "t": 15560.333416666672,
      "d": 1163.7922500000022,
      "v": 92
    },
    {
      "midi": 74,
      "hit": false,
      "t": 15818.953916666673,
      "d": 948.2751666666663,
      "v": 80
    },
    {
      "midi": 47,
      "hit": false,
      "t": 15862.05733333333,
      "d": 301.7239166666659,
      "v": 56
    },
    {
      "midi": 69,
      "hit": false,
      "t": 16163.781250000005,
      "d": 560.3444166666686,
      "v": 89
    },
    {
      "midi": 50,
      "hit": false,
      "t": 16206.884666666663,
      "d": 301.7239166666677,
      "v": 71
    },
    {
      "midi": 52,
      "hit": false,
      "t": 16551.711999999996,
      "d": 1594.8264166666668,
      "v": 75
    },
    {
      "midi": 59,
      "hit": false,
      "t": 16551.712000000007,
      "d": 948.2751666666663,
      "v": 75
    },
    {
      "midi": 67,
      "hit": false,
      "t": 16551.712000000007,
      "d": 948.2751666666663,
      "v": 68
    },
    {
      "midi": 71,
      "hit": false,
      "t": 16551.712000000007,
      "d": 948.2751666666663,
      "v": 75
    },
    {
      "midi": 64,
      "hit": false,
      "t": 16551.712000000007,
      "d": 1034.482,
      "v": 75
    },
    {
      "midi": 76,
      "hit": false,
      "t": 16551.712000000007,
      "d": 1034.482,
      "v": 71
    },
    {
      "midi": 52,
      "hit": false,
      "t": 16551.712000000007,
      "d": 2198.274249999995,
      "v": 73
    },
    {
      "midi": 71,
      "hit": false,
      "t": 17499.987166666673,
      "d": 344.82733333333454,
      "v": 68
    },
    {
      "midi": 67,
      "hit": false,
      "t": 17499.987166666673,
      "d": 431.03416666666453,
      "v": 73
    },
    {
      "midi": 59,
      "hit": false,
      "t": 17499.987166666673,
      "d": 1249.9990833333286,
      "v": 71
    },
    {
      "midi": 64,
      "hit": false,
      "t": 17586.194000000007,
      "d": 1206.89566666666,
      "v": 81
    },
    {
      "midi": 76,
      "hit": false,
      "t": 17586.194000000007,
      "d": 1206.89566666666,
      "v": 63
    },
    {
      "midi": 71,
      "hit": false,
      "t": 17887.917916666673,
      "d": 905.1717499999941,
      "v": 65
    },
    {
      "midi": 67,
      "hit": false,
      "t": 18232.745250000004,
      "d": 517.2409999999982,
      "v": 81
    },
    {
      "midi": 52,
      "hit": false,
      "t": 18275.84866666666,
      "d": 258.6205000000009,
      "v": 64
    },
    {
      "midi": 50,
      "hit": false,
      "t": 18620.675999999996,
      "d": 1594.8264166666668,
      "v": 68
    },
    {
      "midi": 74,
      "hit": false,
      "t": 18620.676000000003,
      "d": 905.1717499999977,
      "v": 80
    },
    {
      "midi": 69,
      "hit": false,
      "t": 18620.676000000003,
      "d": 948.2751666666627,
      "v": 74
    },
    {
      "midi": 62,
      "hit": false,
      "t": 18620.676000000003,
      "d": 1034.4819999999963,
      "v": 83
    },
    {
      "midi": 78,
      "hit": false,
      "t": 18620.676000000003,
      "d": 1077.5854166666613,
      "v": 77
    },
    {
      "midi": 57,
      "hit": false,
      "t": 18620.676000000003,
      "d": 2241.37766666666,
      "v": 80
    },
    {
      "midi": 74,
      "hit": false,
      "t": 19525.84775,
      "d": 431.03416666666453,
      "v": 74
    },
    {
      "midi": 69,
      "hit": false,
      "t": 19568.951166666666,
      "d": 431.03416666666453,
      "v": 78
    },
    {
      "midi": 62,
      "hit": false,
      "t": 19655.158,
      "d": 1206.8956666666636,
      "v": 80
    },
    {
      "midi": 78,
      "hit": false,
      "t": 19698.261416666664,
      "d": 1163.7922499999986,
      "v": 92
    },
    {
      "midi": 74,
      "hit": false,
      "t": 19956.881916666665,
      "d": 948.2751666666627,
      "v": 80
    },
    {
      "midi": 69,
      "hit": false,
      "t": 20301.709249999996,
      "d": 560.3444166666668,
      "v": 89
    },
    {
      "midi": 50,
      "hit": false,
      "t": 20344.81266666666,
      "d": 301.7239166666659,
      "v": 68
    },
    {
      "midi": 52,
      "hit": false,
      "t": 20689.639999999992,
      "d": 1594.8264166666668,
      "v": 70
    },
    {
      "midi": 59,
      "hit": false,
      "t": 20689.639999999996,
      "d": 948.2751666666663,
      "v": 75
    },
    {
      "midi": 67,
      "hit": false,
      "t": 20689.639999999996,
      "d": 948.2751666666663,
      "v": 68
    },
    {
      "midi": 71,
      "hit": false,
      "t": 20689.639999999996,
      "d": 948.2751666666663,
      "v": 75
    },
    {
      "midi": 64,
      "hit": false,
      "t": 20689.639999999996,
      "d": 1034.482,
      "v": 75
    },
    {
      "midi": 76,
      "hit": false,
      "t": 20689.639999999996,
      "d": 1034.482,
      "v": 71
    },
    {
      "midi": 52,
      "hit": false,
      "t": 20689.639999999996,
      "d": 2198.274249999995,
      "v": 73
    },
    {
      "midi": 71,
      "hit": false,
      "t": 21637.915166666662,
      "d": 344.82733333333454,
      "v": 68
    },
    {
      "midi": 67,
      "hit": false,
      "t": 21637.915166666662,
      "d": 431.03416666666453,
      "v": 73
    },
    {
      "midi": 59,
      "hit": false,
      "t": 21637.915166666662,
      "d": 1249.9990833333286,
      "v": 71
    },
    {
      "midi": 64,
      "hit": false,
      "t": 21724.121999999996,
      "d": 1206.89566666666,
      "v": 81
    },
    {
      "midi": 76,
      "hit": false,
      "t": 21724.121999999996,
      "d": 1206.89566666666,
      "v": 63
    },
    {
      "midi": 71,
      "hit": false,
      "t": 22025.84591666666,
      "d": 905.1717499999941,
      "v": 65
    },
    {
      "midi": 67,
      "hit": false,
      "t": 22370.673249999993,
      "d": 517.2409999999982,
      "v": 81
    },
    {
      "midi": 52,
      "hit": false,
      "t": 22413.776666666658,
      "d": 258.6205000000009,
      "v": 63
    },
    {
      "midi": 50,
      "hit": false,
      "t": 22758.603999999992,
      "d": 1594.8264166666668,
      "v": 68
    },
    {
      "midi": 74,
      "hit": false,
      "t": 22758.603999999992,
      "d": 905.1717499999977,
      "v": 80
    },
    {
      "midi": 69,
      "hit": false,
      "t": 22758.603999999992,
      "d": 948.2751666666627,
      "v": 74
    },
    {
      "midi": 62,
      "hit": false,
      "t": 22758.603999999992,
      "d": 1034.4819999999963,
      "v": 83
    },
    {
      "midi": 78,
      "hit": false,
      "t": 22758.603999999992,
      "d": 1077.5854166666613,
      "v": 77
    },
    {
      "midi": 57,
      "hit": false,
      "t": 22758.603999999992,
      "d": 2241.37766666666,
      "v": 80
    },
    {
      "midi": 74,
      "hit": false,
      "t": 23663.77574999999,
      "d": 431.03416666666453,
      "v": 74
    },
    {
      "midi": 69,
      "hit": false,
      "t": 23706.879166666655,
      "d": 431.03416666666453,
      "v": 78
    },
    {
      "midi": 62,
      "hit": false,
      "t": 23793.08599999999,
      "d": 1206.8956666666636,
      "v": 80
    },
    {
      "midi": 78,
      "hit": false,
      "t": 23836.189416666653,
      "d": 1163.7922499999986,
      "v": 92
    },
    {
      "midi": 74,
      "hit": false,
      "t": 24094.809916666654,
      "d": 948.2751666666627,
      "v": 80
    },
    {
      "midi": 69,
      "hit": false,
      "t": 24439.637249999985,
      "d": 560.3444166666668,
      "v": 89
    },
    {
      "midi": 50,
      "hit": false,
      "t": 24482.740666666657,
      "d": 301.7239166666659,
      "v": 63
    },
    {
      "midi": 67,
      "hit": false,
      "t": 24827.567999999985,
      "d": 905.1717499999977,
      "v": 80
    },
    {
      "midi": 60,
      "hit": false,
      "t": 24827.567999999985,
      "d": 948.2751666666627,
      "v": 71
    },
    {
      "midi": 64,
      "hit": false,
      "t": 24827.567999999985,
      "d": 948.2751666666627,
      "v": 79
    },
    {
      "midi": 76,
      "hit": false,
      "t": 24827.567999999985,
      "d": 948.2751666666627,
      "v": 76
    },
    {
      "midi": 72,
      "hit": false,
      "t": 24827.567999999985,
      "d": 1293.1024999999972,
      "v": 80
    },
    {
      "midi": 48,
      "hit": false,
      "t": 24827.56799999999,
      "d": 1551.7230000000018,
      "v": 84
    },
    {
      "midi": 67,
      "hit": false,
      "t": 25732.739749999982,
      "d": 431.03416666666453,
      "v": 72
    },
    {
      "midi": 60,
      "hit": false,
      "t": 25775.843166666647,
      "d": 1163.7922499999986,
      "v": 71
    },
    {
      "midi": 64,
      "hit": false,
      "t": 25775.843166666647,
      "d": 1163.7922499999986,
      "v": 67
    },
    {
      "midi": 76,
      "hit": false,
      "t": 25775.843166666647,
      "d": 1336.2059166666659,
      "v": 66
    },
    {
      "midi": 72,
      "hit": false,
      "t": 26163.773916666647,
      "d": 948.2751666666663,
      "v": 80
    },
    {
      "midi": 67,
      "hit": false,
      "t": 26508.60124999998,
      "d": 301.7239166666659,
      "v": 89
    },
    {
      "midi": 48,
      "hit": false,
      "t": 26551.704666666657,
      "d": 301.7239166666659,
      "v": 69
    },
    {
      "midi": 62,
      "hit": false,
      "t": 26810.325166666647,
      "d": 991.3785833333313,
      "v": 79
    },
    {
      "midi": 71,
      "hit": false,
      "t": 26810.325166666647,
      "d": 1034.4819999999963,
      "v": 79
    },
    {
      "midi": 74,
      "hit": false,
      "t": 26810.325166666647,
      "d": 1034.4819999999963,
      "v": 80
    },
    {
      "midi": 55,
      "hit": false,
      "t": 26810.325166666647,
      "d": 1120.68883333333,
      "v": 76
    },
    {
      "midi": 67,
      "hit": false,
      "t": 26810.325166666647,
      "d": 1120.68883333333,
      "v": 78
    },
    {
      "midi": 79,
      "hit": false,
      "t": 26810.325166666647,
      "d": 1120.68883333333,
      "v": 74
    },
    {
      "midi": 55,
      "hit": false,
      "t": 26896.53199999999,
      "d": 1637.9298333333318,
      "v": 85
    },
    {
      "midi": 62,
      "hit": false,
      "t": 27801.70374999998,
      "d": 1293.1024999999936,
      "v": 78
    },
    {
      "midi": 74,
      "hit": false,
      "t": 27844.807166666644,
      "d": 387.93074999999953,
      "v": 74
    },
    {
      "midi": 71,
      "hit": false,
      "t": 27844.807166666644,
      "d": 431.03416666666453,
      "v": 72
    },
    {
      "midi": 55,
      "hit": false,
      "t": 27931.013999999977,
      "d": 1163.792249999995,
      "v": 65
    },
    {
      "midi": 67,
      "hit": false,
      "t": 27931.013999999977,
      "d": 1206.89566666666,
      "v": 82
    },
    {
      "midi": 79,
      "hit": false,
      "t": 27931.013999999977,
      "d": 1336.2059166666586,
      "v": 75
    },
    {
      "midi": 74,
      "hit": false,
      "t": 28232.737916666643,
      "d": 991.3785833333277,
      "v": 92
    },
    {
      "midi": 71,
      "hit": false,
      "t": 28577.565249999974,
      "d": 646.5512499999968,
      "v": 89
    },
    {
      "midi": 55,
      "hit": false,
      "t": 28620.668666666654,
      "d": 301.7239166666659,
      "v": 72
    },
    {
      "midi": 72,
      "hit": false,
      "t": 28965.495999999974,
      "d": 905.1717499999941,
      "v": 78
    },
    {
      "midi": 60,
      "hit": false,
      "t": 28965.495999999974,
      "d": 948.2751666666591,
      "v": 80
    },
    {
      "midi": 69,
      "hit": false,
      "t": 28965.495999999974,
      "d": 948.2751666666591,
      "v": 71
    },
    {
      "midi": 53,
      "hit": false,
      "t": 28965.495999999974,
      "d": 1034.4819999999927,
      "v": 77
    },
    {
      "midi": 65,
      "hit": false,
      "t": 28965.495999999974,
      "d": 1034.4819999999927,
      "v": 81
    },
    {
      "midi": 77,
      "hit": false,
      "t": 28965.495999999974,
      "d": 1034.4819999999927,
      "v": 73
    },
    {
      "midi": 53,
      "hit": false,
      "t": 28965.495999999985,
      "d": 1551.7230000000018,
      "v": 74
    },
    {
      "midi": 72,
      "hit": false,
      "t": 29870.667749999968,
      "d": 387.93074999999953,
      "v": 47
    },
    {
      "midi": 69,
      "hit": false,
      "t": 29913.771166666633,
      "d": 431.03416666666817,
      "v": 73
    },
    {
      "midi": 60,
      "hit": false,
      "t": 29913.771166666633,
      "d": 1249.9990833333322,
      "v": 68
    },
    {
      "midi": 53,
      "hit": false,
      "t": 29999.977999999966,
      "d": 1120.6888333333336,
      "v": 62
    },
    {
      "midi": 65,
      "hit": false,
      "t": 29999.977999999966,
      "d": 1163.7922499999986,
      "v": 87
    },
    {
      "midi": 77,
      "hit": false,
      "t": 29999.977999999966,
      "d": 1293.1024999999972,
      "v": 77
    },
    {
      "midi": 72,
      "hit": false,
      "t": 30387.908749999966,
      "d": 905.1717499999977,
      "v": 99
    },
    {
      "midi": 69,
      "hit": false,
      "t": 30689.632666666632,
      "d": 603.4478333333318,
      "v": 87
    },
    {
      "midi": 53,
      "hit": false,
      "t": 30689.632666666654,
      "d": 301.7239166666659,
      "v": 70
    },
    {
      "midi": 67,
      "hit": false,
      "t": 31034.459999999966,
      "d": 905.1717499999977,
      "v": 77
    },
    {
      "midi": 59,
      "hit": false,
      "t": 31034.459999999966,
      "d": 948.2751666666627,
      "v": 79
    },
    {
      "midi": 71,
      "hit": false,
      "t": 31034.459999999966,
      "d": 948.2751666666627,
      "v": 79
    },
    {
      "midi": 76,
      "hit": false,
      "t": 31034.459999999966,
      "d": 948.2751666666627,
      "v": 74
    },
    {
      "midi": 52,
      "hit": false,
      "t": 31034.459999999966,
      "d": 1034.4819999999963,
      "v": 76
    },
    {
      "midi": 64,
      "hit": false,
      "t": 31034.459999999966,
      "d": 1034.4819999999963,
      "v": 82
    },
    {
      "midi": 52,
      "hit": false,
      "t": 31034.459999999985,
      "d": 1637.9298333333318,
      "v": 79
    },
    {
      "midi": 67,
      "hit": false,
      "t": 31939.631749999964,
      "d": 387.9307499999959,
      "v": 66
    },
    {
      "midi": 71,
      "hit": false,
      "t": 31982.73516666663,
      "d": 301.7239166666659,
      "v": 61
    },
    {
      "midi": 59,
      "hit": false,
      "t": 31982.73516666663,
      "d": 1120.6888333333336,
      "v": 70
    },
    {
      "midi": 76,
      "hit": false,
      "t": 31982.73516666663,
      "d": 1120.6888333333336,
      "v": 72
    },
    {
      "midi": 52,
      "hit": false,
      "t": 32068.941999999963,
      "d": 1034.482,
      "v": 39
    },
    {
      "midi": 64,
      "hit": false,
      "t": 32068.941999999963,
      "d": 1034.482,
      "v": 79
    },
    {
      "midi": 71,
      "hit": false,
      "t": 32370.665916666625,
      "d": 732.7580833333377,
      "v": 83
    },
    {
      "midi": 67,
      "hit": false,
      "t": 32715.49324999996,
      "d": 387.9307500000032,
      "v": 80
    },
    {
      "midi": 64,
      "hit": false,
      "t": 33017.21716666667,
      "d": 86.20683333333,
      "v": 61
    },
    {
      "midi": 59,
      "hit": false,
      "t": 33103.42399999996,
      "d": 948.2751666666663,
      "v": 75
    },
    {
      "midi": 67,
      "hit": false,
      "t": 33103.42399999996,
      "d": 948.2751666666663,
      "v": 68
    },
    {
      "midi": 71,
      "hit": false,
      "t": 33103.42399999996,
      "d": 948.2751666666663,
      "v": 75
    },
    {
      "midi": 64,
      "hit": false,
      "t": 33103.42399999996,
      "d": 1034.4819999999963,
      "v": 75
    },
    {
      "midi": 76,
      "hit": false,
      "t": 33103.42399999996,
      "d": 1034.4819999999963,
      "v": 71
    },
    {
      "midi": 52,
      "hit": false,
      "t": 33103.42399999996,
      "d": 2198.274249999995,
      "v": 73
    },
    {
      "midi": 52,
      "hit": false,
      "t": 33103.423999999985,
      "d": 1594.8264166666631,
      "v": 75
    },
    {
      "midi": 64,
      "hit": false,
      "t": 33103.424,
      "d": 3060.3425833333313,
      "v": 70
    },
    {
      "midi": 71,
      "hit": false,
      "t": 34051.69916666663,
      "d": 344.82733333332726,
      "v": 68
    },
    {
      "midi": 67,
      "hit": false,
      "t": 34051.69916666663,
      "d": 431.03416666665726,
      "v": 73
    },
    {
      "midi": 59,
      "hit": false,
      "t": 34051.69916666663,
      "d": 1249.9990833333286,
      "v": 71
    },
    {
      "midi": 64,
      "hit": false,
      "t": 34137.90599999996,
      "d": 1206.8956666666636,
      "v": 81
    },
    {
      "midi": 76,
      "hit": false,
      "t": 34137.90599999996,
      "d": 1206.8956666666636,
      "v": 63
    },
    {
      "midi": 71,
      "hit": false,
      "t": 34439.62991666662,
      "d": 905.1717500000013,
      "v": 65
    },
    {
      "midi": 67,
      "hit": false,
      "t": 34784.457249999956,
      "d": 517.2410000000018,
      "v": 81
    },
    {
      "midi": 52,
      "hit": false,
      "t": 34827.56066666665,
      "d": 258.62049999999726,
      "v": 64
    },
    {
      "midi": 74,
      "hit": false,
      "t": 35172.387999999955,
      "d": 905.1717500000013,
      "v": 80
    },
    {
      "midi": 69,
      "hit": false,
      "t": 35172.387999999955,
      "d": 948.2751666666663,
      "v": 74
    },
    {
      "midi": 62,
      "hit": false,
      "t": 35172.387999999955,
      "d": 1034.4819999999963,
      "v": 83
    },
    {
      "midi": 78,
      "hit": false,
      "t": 35172.387999999955,
      "d": 1077.5854166666613,
      "v": 77
    },
    {
      "midi": 57,
      "hit": false,
      "t": 35172.387999999955,
      "d": 2241.37766666666,
      "v": 80
    },
    {
      "midi": 50,
      "hit": false,
      "t": 35172.38799999998,
      "d": 1594.8264166666631,
      "v": 68
    },
    {
      "midi": 74,
      "hit": false,
      "t": 36077.55974999996,
      "d": 431.03416666665726,
      "v": 74
    },
    {
      "midi": 69,
      "hit": false,
      "t": 36120.66316666662,
      "d": 431.03416666665726,
      "v": 78
    },
    {
      "midi": 62,
      "hit": false,
      "t": 36120.663166666665,
      "d": 172.41366666666727,
      "v": 84
    },
    {
      "midi": 62,
      "hit": false,
      "t": 36206.86999999995,
      "d": 1206.8956666666636,
      "v": 80
    },
    {
      "midi": 78,
      "hit": false,
      "t": 36249.97341666662,
      "d": 1163.7922499999986,
      "v": 92
    },
    {
      "midi": 64,
      "hit": false,
      "t": 36293.07683333333,
      "d": 215.51708333333227,
      "v": 79
    },
    {
      "midi": 74,
      "hit": false,
      "t": 36508.593916666614,
      "d": 948.2751666666663,
      "v": 80
    },
    {
      "midi": 66,
      "hit": false,
      "t": 36508.593916666665,
      "d": 86.20683333333,
      "v": 80
    },
    {
      "midi": 67,
      "hit": false,
      "t": 36637.90416666666,
      "d": 172.41366666666727,
      "v": 75
    },
    {
      "midi": 66,
      "hit": false,
      "t": 36767.21441666666,
      "d": 129.310249999995,
      "v": 101
    },
    {
      "midi": 69,
      "hit": false,
      "t": 36853.42124999995,
      "d": 560.3444166666668,
      "v": 89
    },
    {
      "midi": 50,
      "hit": false,
      "t": 36896.52466666664,
      "d": 301.72391666666954,
      "v": 68
    },
    {
      "midi": 62,
      "hit": false,
      "t": 36982.73149999999,
      "d": 301.72391666666954,
      "v": 78
    },
    {
      "midi": 59,
      "hit": false,
      "t": 37241.35199999995,
      "d": 948.2751666666663,
      "v": 75
    },
    {
      "midi": 67,
      "hit": false,
      "t": 37241.35199999995,
      "d": 948.2751666666663,
      "v": 68
    },
    {
      "midi": 71,
      "hit": false,
      "t": 37241.35199999995,
      "d": 948.2751666666663,
      "v": 75
    },
    {
      "midi": 64,
      "hit": false,
      "t": 37241.35199999995,
      "d": 1034.4819999999963,
      "v": 75
    },
    {
      "midi": 76,
      "hit": false,
      "t": 37241.35199999995,
      "d": 1034.4819999999963,
      "v": 71
    },
    {
      "midi": 52,
      "hit": false,
      "t": 37241.35199999995,
      "d": 2198.274249999995,
      "v": 73
    },
    {
      "midi": 52,
      "hit": false,
      "t": 37241.35199999998,
      "d": 1594.8264166666704,
      "v": 70
    },
    {
      "midi": 64,
      "hit": false,
      "t": 37370.66224999999,
      "d": 2887.928916666664,
      "v": 60
    },
    {
      "midi": 71,
      "hit": false,
      "t": 38189.627166666614,
      "d": 344.82733333332726,
      "v": 68
    },
    {
      "midi": 67,
      "hit": false,
      "t": 38189.627166666614,
      "d": 431.03416666665726,
      "v": 73
    },
    {
      "midi": 59,
      "hit": false,
      "t": 38189.627166666614,
      "d": 1249.9990833333286,
      "v": 71
    },
    {
      "midi": 64,
      "hit": false,
      "t": 38275.833999999944,
      "d": 1206.8956666666636,
      "v": 81
    },
    {
      "midi": 76,
      "hit": false,
      "t": 38275.833999999944,
      "d": 1206.8956666666636,
      "v": 63
    },
    {
      "midi": 71,
      "hit": false,
      "t": 38577.55791666661,
      "d": 905.1717500000013,
      "v": 65
    },
    {
      "midi": 67,
      "hit": false,
      "t": 38922.38524999994,
      "d": 517.2410000000018,
      "v": 81
    },
    {
      "midi": 52,
      "hit": false,
      "t": 38965.48866666665,
      "d": 258.62049999999726,
      "v": 63
    },
    {
      "midi": 74,
      "hit": false,
      "t": 39310.31599999994,
      "d": 905.1717500000013,
      "v": 80
    },
    {
      "midi": 69,
      "hit": false,
      "t": 39310.31599999994,
      "d": 948.2751666666663,
      "v": 74
    },
    {
      "midi": 62,
      "hit": false,
      "t": 39310.31599999994,
      "d": 1034.4819999999963,
      "v": 83
    },
    {
      "midi": 78,
      "hit": false,
      "t": 39310.31599999994,
      "d": 1077.5854166666613,
      "v": 77
    },
    {
      "midi": 57,
      "hit": false,
      "t": 39310.31599999994,
      "d": 2241.37766666666,
      "v": 80
    },
    {
      "midi": 50,
      "hit": false,
      "t": 39310.31599999998,
      "d": 1594.8264166666631,
      "v": 68
    },
    {
      "midi": 74,
      "hit": false,
      "t": 40215.48774999994,
      "d": 431.03416666665726,
      "v": 74
    },
    {
      "midi": 69,
      "hit": false,
      "t": 40258.59116666661,
      "d": 431.03416666665726,
      "v": 78
    },
    {
      "midi": 62,
      "hit": false,
      "t": 40344.79799999994,
      "d": 1206.8956666666636,
      "v": 80
    },
    {
      "midi": 62,
      "hit": false,
      "t": 40344.79799999998,
      "d": 129.31025000000227,
      "v": 80
    },
    {
      "midi": 78,
      "hit": false,
      "t": 40387.9014166666,
      "d": 1163.7922499999986,
      "v": 92
    },
    {
      "midi": 64,
      "hit": false,
      "t": 40474.10824999998,
      "d": 172.41366666666727,
      "v": 88
    },
    {
      "midi": 74,
      "hit": false,
      "t": 40646.5219166666,
      "d": 948.2751666666663,
      "v": 80
    },
    {
      "midi": 66,
      "hit": false,
      "t": 40646.52191666665,
      "d": 86.20683333333,
      "v": 76
    },
    {
      "midi": 67,
      "hit": false,
      "t": 40732.72874999998,
      "d": 215.51708333333227,
      "v": 85
    },
    {
      "midi": 66,
      "hit": false,
      "t": 40905.14241666665,
      "d": 86.20683333333,
      "v": 100
    },
    {
      "midi": 69,
      "hit": false,
      "t": 40991.349249999934,
      "d": 560.3444166666668,
      "v": 89
    },
    {
      "midi": 50,
      "hit": false,
      "t": 41034.45266666664,
      "d": 301.72391666666954,
      "v": 63
    },
    {
      "midi": 62,
      "hit": false,
      "t": 41034.45266666664,
      "d": 215.51708333333227,
      "v": 81
    },
    {
      "midi": 60,
      "hit": false,
      "t": 41293.07316666664,
      "d": 2112.067416666665,
      "v": 56
    },
    {
      "midi": 67,
      "hit": false,
      "t": 41379.27999999993,
      "d": 905.1717500000013,
      "v": 80
    },
    {
      "midi": 60,
      "hit": false,
      "t": 41379.27999999993,
      "d": 948.2751666666663,
      "v": 71
    },
    {
      "midi": 64,
      "hit": false,
      "t": 41379.27999999993,
      "d": 948.2751666666663,
      "v": 79
    },
    {
      "midi": 76,
      "hit": false,
      "t": 41379.27999999993,
      "d": 948.2751666666663,
      "v": 76
    },
    {
      "midi": 72,
      "hit": false,
      "t": 41379.27999999993,
      "d": 1293.1025000000009,
      "v": 80
    },
    {
      "midi": 48,
      "hit": false,
      "t": 41379.27999999998,
      "d": 1551.7229999999981,
      "v": 84
    },
    {
      "midi": 67,
      "hit": false,
      "t": 42284.451749999935,
      "d": 431.03416666666453,
      "v": 72
    },
    {
      "midi": 60,
      "hit": false,
      "t": 42327.5551666666,
      "d": 1163.7922500000059,
      "v": 71
    },
    {
      "midi": 64,
      "hit": false,
      "t": 42327.5551666666,
      "d": 1163.7922500000059,
      "v": 67
    },
    {
      "midi": 76,
      "hit": false,
      "t": 42327.5551666666,
      "d": 1336.2059166666731,
      "v": 66
    },
    {
      "midi": 72,
      "hit": false,
      "t": 42715.4859166666,
      "d": 948.2751666666736,
      "v": 80
    },
    {
      "midi": 67,
      "hit": false,
      "t": 43060.313249999934,
      "d": 301.72391666666954,
      "v": 89
    },
    {
      "midi": 48,
      "hit": false,
      "t": 43103.41666666664,
      "d": 301.72391666666954,
      "v": 69
    },
    {
      "midi": 62,
      "hit": false,
      "t": 43362.0371666666,
      "d": 991.3785833333386,
      "v": 79
    },
    {
      "midi": 71,
      "hit": false,
      "t": 43362.0371666666,
      "d": 1034.4820000000036,
      "v": 79
    },
    {
      "midi": 74,
      "hit": false,
      "t": 43362.0371666666,
      "d": 1034.4820000000036,
      "v": 80
    },
    {
      "midi": 55,
      "hit": false,
      "t": 43362.0371666666,
      "d": 1120.6888333333336,
      "v": 76
    },
    {
      "midi": 67,
      "hit": false,
      "t": 43362.0371666666,
      "d": 1120.6888333333336,
      "v": 78
    },
    {
      "midi": 79,
      "hit": false,
      "t": 43362.0371666666,
      "d": 1120.6888333333336,
      "v": 74
    },
    {
      "midi": 59,
      "hit": false,
      "t": 43362.03716666664,
      "d": 2068.964,
      "v": 78
    },
    {
      "midi": 55,
      "hit": false,
      "t": 43448.24399999998,
      "d": 1637.9298333333354,
      "v": 85
    },
    {
      "midi": 62,
      "hit": false,
      "t": 44353.41574999994,
      "d": 1293.1025000000009,
      "v": 78
    },
    {
      "midi": 74,
      "hit": false,
      "t": 44396.51916666661,
      "d": 387.93074999999953,
      "v": 74
    },
    {
      "midi": 71,
      "hit": false,
      "t": 44396.51916666661,
      "d": 431.03416666666453,
      "v": 72
    },
    {
      "midi": 55,
      "hit": false,
      "t": 44482.72599999994,
      "d": 1163.7922500000059,
      "v": 65
    },
    {
      "midi": 67,
      "hit": false,
      "t": 44482.72599999994,
      "d": 1206.8956666666709,
      "v": 82
    },
    {
      "midi": 79,
      "hit": false,
      "t": 44482.72599999994,
      "d": 1336.2059166666659,
      "v": 75
    },
    {
      "midi": 74,
      "hit": false,
      "t": 44784.44991666661,
      "d": 991.3785833333313,
      "v": 92
    },
    {
      "midi": 71,
      "hit": false,
      "t": 45129.27724999994,
      "d": 646.5512499999968,
      "v": 89
    },
    {
      "midi": 55,
      "hit": false,
      "t": 45172.38066666664,
      "d": 301.72391666666954,
      "v": 72
    },
    {
      "midi": 57,
      "hit": false,
      "t": 45431.00116666664,
      "d": 2068.964,
      "v": 65
    },
    {
      "midi": 72,
      "hit": false,
      "t": 45517.20799999994,
      "d": 905.1717499999941,
      "v": 78
    },
    {
      "midi": 60,
      "hit": false,
      "t": 45517.20799999994,
      "d": 948.2751666666591,
      "v": 80
    },
    {
      "midi": 69,
      "hit": false,
      "t": 45517.20799999994,
      "d": 948.2751666666591,
      "v": 71
    },
    {
      "midi": 53,
      "hit": false,
      "t": 45517.20799999994,
      "d": 1034.481999999989,
      "v": 77
    },
    {
      "midi": 65,
      "hit": false,
      "t": 45517.20799999994,
      "d": 1034.481999999989,
      "v": 81
    },
    {
      "midi": 77,
      "hit": false,
      "t": 45517.20799999994,
      "d": 1034.481999999989,
      "v": 73
    },
    {
      "midi": 53,
      "hit": false,
      "t": 45517.20799999998,
      "d": 1551.7229999999981,
      "v": 74
    },
    {
      "midi": 72,
      "hit": false,
      "t": 46422.379749999935,
      "d": 387.93074999999226,
      "v": 47
    },
    {
      "midi": 69,
      "hit": false,
      "t": 46465.4831666666,
      "d": 431.03416666665726,
      "v": 73
    },
    {
      "midi": 60,
      "hit": false,
      "t": 46465.4831666666,
      "d": 1249.9990833333213,
      "v": 68
    },
    {
      "midi": 53,
      "hit": false,
      "t": 46551.68999999993,
      "d": 1120.6888333333263,
      "v": 62
    },
    {
      "midi": 65,
      "hit": false,
      "t": 46551.68999999993,
      "d": 1163.7922499999913,
      "v": 87
    },
    {
      "midi": 77,
      "hit": false,
      "t": 46551.68999999993,
      "d": 1293.1024999999936,
      "v": 77
    },
    {
      "midi": 72,
      "hit": false,
      "t": 46939.62074999992,
      "d": 905.1717500000013,
      "v": 99
    },
    {
      "midi": 69,
      "hit": false,
      "t": 47241.34466666659,
      "d": 603.4478333333318,
      "v": 87
    },
    {
      "midi": 53,
      "hit": false,
      "t": 47241.34466666664,
      "d": 301.72391666666954,
      "v": 70
    },
    {
      "midi": 55,
      "hit": false,
      "t": 47543.068583333305,
      "d": 1939.6537499999977,
      "v": 77
    },
    {
      "midi": 67,
      "hit": false,
      "t": 47586.171999999926,
      "d": 905.1717499999941,
      "v": 77
    },
    {
      "midi": 59,
      "hit": false,
      "t": 47586.171999999926,
      "d": 948.2751666666591,
      "v": 79
    },
    {
      "midi": 71,
      "hit": false,
      "t": 47586.171999999926,
      "d": 948.2751666666591,
      "v": 79
    },
    {
      "midi": 76,
      "hit": false,
      "t": 47586.171999999926,
      "d": 948.2751666666591,
      "v": 74
    },
    {
      "midi": 52,
      "hit": false,
      "t": 47586.171999999926,
      "d": 1034.481999999989,
      "v": 76
    },
    {
      "midi": 64,
      "hit": false,
      "t": 47586.171999999926,
      "d": 1034.481999999989,
      "v": 82
    },
    {
      "midi": 52,
      "hit": false,
      "t": 47586.17199999998,
      "d": 1637.9298333333354,
      "v": 79
    },
    {
      "midi": 67,
      "hit": false,
      "t": 48491.34374999992,
      "d": 387.93074999999226,
      "v": 66
    },
    {
      "midi": 71,
      "hit": false,
      "t": 48534.447166666585,
      "d": 301.72391666666226,
      "v": 61
    },
    {
      "midi": 76,
      "hit": false,
      "t": 48534.447166666585,
      "d": 1120.6888333333263,
      "v": 72
    },
    {
      "midi": 59,
      "hit": false,
      "t": 48534.447166666585,
      "d": 1982.7571666666627,
      "v": 70
    },
    {
      "midi": 64,
      "hit": false,
      "t": 48620.653999999915,
      "d": 1034.4819999999963,
      "v": 79
    },
    {
      "midi": 52,
      "hit": false,
      "t": 48620.653999999915,
      "d": 1939.6537499999977,
      "v": 39
    },
    {
      "midi": 71,
      "hit": false,
      "t": 48922.37791666658,
      "d": 1594.8264166666704,
      "v": 83
    },
    {
      "midi": 67,
      "hit": false,
      "t": 49267.20524999991,
      "d": 1249.9990833333359,
      "v": 80
    },
    {
      "midi": 57,
      "hit": false,
      "t": 49655.13599999991,
      "d": 905.1717500000013,
      "v": 78
    },
    {
      "midi": 69,
      "hit": false,
      "t": 49655.13599999991,
      "d": 905.1717500000013,
      "v": 79
    },
    {
      "midi": 76,
      "hit": false,
      "t": 49655.13599999991,
      "d": 905.1717500000013,
      "v": 89
    },
    {
      "midi": 64,
      "hit": false,
      "t": 49655.13599999991,
      "d": 948.2751666666663,
      "v": 92
    },
    {
      "midi": 73,
      "hit": false,
      "t": 49655.13599999991,
      "d": 991.3785833333313,
      "v": 94
    },
    {
      "midi": 45,
      "hit": false,
      "t": 49655.13599999997,
      "d": 2025.8605833333277,
      "v": 112
    },
    {
      "midi": 45,
      "hit": false,
      "t": 49655.13599999998,
      "d": 948.2751666666663,
      "v": 69
    },
    {
      "midi": 57,
      "hit": false,
      "t": 50603.41116666658,
      "d": 905.1717499999941,
      "v": 81
    },
    {
      "midi": 64,
      "hit": false,
      "t": 50603.41116666658,
      "d": 905.1717499999941,
      "v": 76
    },
    {
      "midi": 69,
      "hit": false,
      "t": 50603.41116666658,
      "d": 948.2751666666591,
      "v": 75
    },
    {
      "midi": 76,
      "hit": false,
      "t": 50689.61799999991,
      "d": 905.1717499999941,
      "v": 77
    },
    {
      "midi": 73,
      "hit": false,
      "t": 50689.61799999991,
      "d": 1034.481999999989,
      "v": 74
    },
    {
      "midi": 57,
      "hit": false,
      "t": 50689.617999999966,
      "d": 905.1717500000013,
      "v": 112
    },
    {
      "midi": 45,
      "hit": false,
      "t": 50689.61799999997,
      "d": 905.1717500000013,
      "v": 69
    },
    {
      "midi": 57,
      "hit": false,
      "t": 51594.7897499999,
      "d": 905.1717499999941,
      "v": 78
    },
    {
      "midi": 64,
      "hit": false,
      "t": 51637.89316666657,
      "d": 905.1717499999941,
      "v": 94
    },
    {
      "midi": 69,
      "hit": false,
      "t": 51724.0999999999,
      "d": 862.0683333333291,
      "v": 68
    },
    {
      "midi": 76,
      "hit": false,
      "t": 51724.0999999999,
      "d": 862.0683333333291,
      "v": 99
    },
    {
      "midi": 73,
      "hit": false,
      "t": 51724.0999999999,
      "d": 948.2751666666591,
      "v": 79
    },
    {
      "midi": 64,
      "hit": false,
      "t": 51724.09999999996,
      "d": 948.2751666666663,
      "v": 103
    },
    {
      "midi": 57,
      "hit": false,
      "t": 51724.09999999996,
      "d": 1681.0332499999931,
      "v": 104
    },
    {
      "midi": 45,
      "hit": false,
      "t": 51724.09999999996,
      "d": 1767.2400833333231,
      "v": 72
    },
    {
      "midi": 61,
      "hit": false,
      "t": 51724.09999999996,
      "d": 2068.9639999999854,
      "v": 101
    },
    {
      "midi": 45,
      "hit": false,
      "t": 51724.09999999998,
      "d": 905.1717500000013,
      "v": 69
    },
    {
      "midi": 57,
      "hit": false,
      "t": 52629.27174999989,
      "d": 775.8614999999918,
      "v": 79
    },
    {
      "midi": 64,
      "hit": false,
      "t": 52672.375166666556,
      "d": 732.7580833333268,
      "v": 92
    },
    {
      "midi": 69,
      "hit": false,
      "t": 52758.581999999886,
      "d": 646.5512499999968,
      "v": 76
    },
    {
      "midi": 73,
      "hit": false,
      "t": 52758.581999999886,
      "d": 646.5512499999968,
      "v": 85
    },
    {
      "midi": 76,
      "hit": false,
      "t": 52758.581999999886,
      "d": 646.5512499999968,
      "v": 104
    },
    {
      "midi": 64,
      "hit": false,
      "t": 52758.58199999996,
      "d": 991.3785833333241,
      "v": 99
    },
    {
      "midi": 69,
      "hit": false,
      "t": 52758.58199999996,
      "d": 991.3785833333241,
      "v": 99
    },
    {
      "midi": 45,
      "hit": false,
      "t": 52758.58199999998,
      "d": 258.62049999999726,
      "v": 62
    },
    {
      "midi": 45,
      "hit": false,
      "t": 53103.40933333331,
      "d": 301.72391666666954,
      "v": 64
    },
    {
      "midi": 57,
      "hit": false,
      "t": 53405.13324999988,
      "d": 387.93074999999953,
      "v": 65
    },
    {
      "midi": 64,
      "hit": false,
      "t": 53405.13324999988,
      "d": 387.93074999999953,
      "v": 85
    },
    {
      "midi": 73,
      "hit": false,
      "t": 53405.13324999988,
      "d": 387.93074999999953,
      "v": 82
    },
    {
      "midi": 76,
      "hit": false,
      "t": 53405.13324999988,
      "d": 387.93074999999953,
      "v": 85
    },
    {
      "midi": 69,
      "hit": false,
      "t": 53448.23666666655,
      "d": 387.93074999999953,
      "v": 81
    },
    {
      "midi": 47,
      "hit": false,
      "t": 53448.23666666664,
      "d": 301.72391666666954,
      "v": 62
    },
    {
      "midi": 60,
      "hit": false,
      "t": 53793.06399999988,
      "d": 818.9649166666641,
      "v": 78
    },
    {
      "midi": 64,
      "hit": false,
      "t": 53793.06399999988,
      "d": 862.0683333333291,
      "v": 81
    },
    {
      "midi": 67,
      "hit": false,
      "t": 53793.06399999988,
      "d": 862.0683333333291,
      "v": 80
    },
    {
      "midi": 76,
      "hit": false,
      "t": 53793.06399999988,
      "d": 862.0683333333291,
      "v": 79
    },
    {
      "midi": 72,
      "hit": false,
      "t": 53793.06399999988,
      "d": 948.2751666666591,
      "v": 79
    },
    {
      "midi": 36,
      "hit": false,
      "t": 53793.06399999995,
      "d": 3836.2040833333303,
      "v": 109
    },
    {
      "midi": 48,
      "hit": false,
      "t": 53793.06399999995,
      "d": 3879.3074999999953,
      "v": 119
    },
    {
      "midi": 48,
      "hit": false,
      "t": 53793.06399999998,
      "d": 905.1717500000013,
      "v": 70
    },
    {
      "midi": 36,
      "hit": false,
      "t": 53793.064000000006,
      "d": 3663.790416666663,
      "v": 61
    },
    {
      "midi": 48,
      "hit": false,
      "t": 53793.064000000006,
      "d": 3663.790416666663,
      "v": 72
    },
    {
      "midi": 60,
      "hit": false,
      "t": 53793.064000000006,
      "d": 3706.893833333328,
      "v": 60
    },
    {
      "midi": 64,
      "hit": false,
      "t": 53793.064000000006,
      "d": 3706.893833333328,
      "v": 74
    },
    {
      "midi": 67,
      "hit": false,
      "t": 53793.064000000006,
      "d": 3706.893833333328,
      "v": 59
    },
    {
      "midi": 60,
      "hit": false,
      "t": 54698.235749999876,
      "d": 905.1717499999941,
      "v": 80
    },
    {
      "midi": 64,
      "hit": false,
      "t": 54741.33916666654,
      "d": 905.1717499999941,
      "v": 87
    },
    {
      "midi": 67,
      "hit": false,
      "t": 54741.33916666654,
      "d": 948.2751666666591,
      "v": 71
    },
    {
      "midi": 76,
      "hit": false,
      "t": 54827.54599999987,
      "d": 862.0683333333291,
      "v": 92
    },
    {
      "midi": 72,
      "hit": false,
      "t": 54827.54599999987,
      "d": 905.1717499999941,
      "v": 79
    },
    {
      "midi": 52,
      "hit": false,
      "t": 54827.545999999944,
      "d": 1594.8264166666704,
      "v": 107
    },
    {
      "midi": 55,
      "hit": false,
      "t": 54827.545999999944,
      "d": 1594.8264166666704,
      "v": 109
    },
    {
      "midi": 48,
      "hit": false,
      "t": 54827.54599999998,
      "d": 905.1717500000013,
      "v": 68
    },
    {
      "midi": 60,
      "hit": false,
      "t": 55646.510916666535,
      "d": 948.2751666666591,
      "v": 92
    },
    {
      "midi": 76,
      "hit": false,
      "t": 55775.82116666653,
      "d": 862.0683333333291,
      "v": 95
    },
    {
      "midi": 67,
      "hit": false,
      "t": 55775.82116666653,
      "d": 905.1717499999941,
      "v": 71
    },
    {
      "midi": 64,
      "hit": false,
      "t": 55775.82116666653,
      "d": 948.2751666666591,
      "v": 84
    },
    {
      "midi": 72,
      "hit": false,
      "t": 55775.82116666653,
      "d": 948.2751666666591,
      "v": 78
    },
    {
      "midi": 60,
      "hit": false,
      "t": 55862.02799999995,
      "d": 603.4478333333318,
      "v": 107
    },
    {
      "midi": 48,
      "hit": false,
      "t": 55862.027999999984,
      "d": 905.1717500000013,
      "v": 64
    },
    {
      "midi": 72,
      "hit": false,
      "t": 56767.199749999854,
      "d": 301.72391666666954,
      "v": 78
    },
    {
      "midi": 60,
      "hit": false,
      "t": 56767.199749999854,
      "d": 732.7580833333341,
      "v": 74
    },
    {
      "midi": 67,
      "hit": false,
      "t": 56767.199749999854,
      "d": 732.7580833333341,
      "v": 70
    },
    {
      "midi": 76,
      "hit": false,
      "t": 56767.199749999854,
      "d": 732.7580833333341,
      "v": 74
    },
    {
      "midi": 64,
      "hit": false,
      "t": 56896.50999999986,
      "d": 646.5512499999968,
      "v": 95
    },
    {
      "midi": 72,
      "hit": false,
      "t": 56896.509999999944,
      "d": 862.0683333333291,
      "v": 119
    },
    {
      "midi": 48,
      "hit": false,
      "t": 56896.50999999999,
      "d": 646.5512499999968,
      "v": 64
    },
    {
      "midi": 72,
      "hit": false,
      "t": 57155.130499999854,
      "d": 431.03416666666453,
      "v": 33
    },
    {
      "midi": 60,
      "hit": false,
      "t": 57586.16466666652,
      "d": 344.82733333333454,
      "v": 80
    },
    {
      "midi": 64,
      "hit": false,
      "t": 57586.16466666652,
      "d": 344.82733333333454,
      "v": 94
    },
    {
      "midi": 67,
      "hit": false,
      "t": 57586.16466666652,
      "d": 344.82733333333454,
      "v": 82
    },
    {
      "midi": 72,
      "hit": false,
      "t": 57586.16466666652,
      "d": 344.82733333333454,
      "v": 94
    },
    {
      "midi": 76,
      "hit": false,
      "t": 57586.16466666652,
      "d": 344.82733333333454,
      "v": 85
    },
    {
      "midi": 50,
      "hit": false,
      "t": 57586.16466666665,
      "d": 258.62049999999726,
      "v": 71
    },
    {
      "midi": 52,
      "hit": false,
      "t": 57930.99199999985,
      "d": 387.93074999999953,
      "v": 73
    },
    {
      "midi": 55,
      "hit": false,
      "t": 57930.99199999994,
      "d": 1810.3435000000027,
      "v": 92
    },
    {
      "midi": 64,
      "hit": false,
      "t": 57930.99199999994,
      "d": 1853.4469166666677,
      "v": 90
    },
    {
      "midi": 40,
      "hit": false,
      "t": 57930.99199999994,
      "d": 1896.5503333333327,
      "v": 104
    },
    {
      "midi": 52,
      "hit": false,
      "t": 57930.99199999994,
      "d": 1896.5503333333327,
      "v": 124
    },
    {
      "midi": 52,
      "hit": false,
      "t": 57930.99199999998,
      "d": 215.51708333333227,
      "v": 68
    },
    {
      "midi": 64,
      "hit": false,
      "t": 57930.992,
      "d": 2198.274250000002,
      "v": 62
    },
    {
      "midi": 67,
      "hit": false,
      "t": 57930.992,
      "d": 2198.274250000002,
      "v": 72
    },
    {
      "midi": 71,
      "hit": false,
      "t": 57930.992,
      "d": 2198.274250000002,
      "v": 64
    },
    {
      "midi": 40,
      "hit": false,
      "t": 57930.992,
      "d": 2241.377666666667,
      "v": 62
    },
    {
      "midi": 52,
      "hit": false,
      "t": 57930.992,
      "d": 2241.377666666667,
      "v": 65
    },
    {
      "midi": 76,
      "hit": false,
      "t": 57930.992000000006,
      "d": 3060.3425833333313,
      "v": 104
    },
    {
      "midi": 59,
      "hit": false,
      "t": 57974.09541666652,
      "d": 344.82733333333454,
      "v": 79
    },
    {
      "midi": 64,
      "hit": false,
      "t": 57974.09541666652,
      "d": 344.82733333333454,
      "v": 78
    },
    {
      "midi": 67,
      "hit": false,
      "t": 57974.09541666652,
      "d": 344.82733333333454,
      "v": 70
    },
    {
      "midi": 71,
      "hit": false,
      "t": 57974.09541666652,
      "d": 344.82733333333454,
      "v": 76
    },
    {
      "midi": 76,
      "hit": false,
      "t": 57974.09541666652,
      "d": 344.82733333333454,
      "v": 74
    },
    {
      "midi": 52,
      "hit": false,
      "t": 58275.81933333331,
      "d": 172.41366666666727,
      "v": 62
    },
    {
      "midi": 52,
      "hit": false,
      "t": 58318.92274999985,
      "d": 301.72391666666954,
      "v": 50
    },
    {
      "midi": 59,
      "hit": false,
      "t": 58318.92274999985,
      "d": 301.72391666666954,
      "v": 63
    },
    {
      "midi": 64,
      "hit": false,
      "t": 58318.92274999985,
      "d": 301.72391666666954,
      "v": 65
    },
    {
      "midi": 67,
      "hit": false,
      "t": 58318.92274999985,
      "d": 301.72391666666954,
      "v": 61
    },
    {
      "midi": 71,
      "hit": false,
      "t": 58318.92274999985,
      "d": 301.72391666666954,
      "v": 69
    },
    {
      "midi": 76,
      "hit": false,
      "t": 58318.92274999985,
      "d": 301.72391666666954,
      "v": 61
    },
    {
      "midi": 52,
      "hit": false,
      "t": 58620.64666666652,
      "d": 344.82733333333454,
      "v": 57
    },
    {
      "midi": 59,
      "hit": false,
      "t": 58620.64666666652,
      "d": 344.82733333333454,
      "v": 68
    },
    {
      "midi": 64,
      "hit": false,
      "t": 58620.64666666652,
      "d": 344.82733333333454,
      "v": 67
    },
    {
      "midi": 67,
      "hit": false,
      "t": 58620.64666666652,
      "d": 344.82733333333454,
      "v": 61
    },
    {
      "midi": 71,
      "hit": false,
      "t": 58620.64666666652,
      "d": 344.82733333333454,
      "v": 69
    },
    {
      "midi": 76,
      "hit": false,
      "t": 58620.64666666652,
      "d": 344.82733333333454,
      "v": 63
    },
    {
      "midi": 52,
      "hit": false,
      "t": 58620.646666666646,
      "d": 172.41366666666727,
      "v": 68
    },
    {
      "midi": 64,
      "hit": false,
      "t": 58965.47399999986,
      "d": 301.72391666666954,
      "v": 78
    },
    {
      "midi": 67,
      "hit": false,
      "t": 58965.47399999986,
      "d": 301.72391666666954,
      "v": 78
    },
    {
      "midi": 71,
      "hit": false,
      "t": 58965.47399999986,
      "d": 301.72391666666954,
      "v": 81
    },
    {
      "midi": 76,
      "hit": false,
      "t": 58965.47399999986,
      "d": 301.72391666666954,
      "v": 78
    },
    {
      "midi": 52,
      "hit": false,
      "t": 58965.47399999986,
      "d": 387.93074999999953,
      "v": 77
    },
    {
      "midi": 59,
      "hit": false,
      "t": 58965.47399999986,
      "d": 387.93074999999953,
      "v": 79
    },
    {
      "midi": 52,
      "hit": false,
      "t": 58965.47399999998,
      "d": 172.41366666666727,
      "v": 66
    },
    {
      "midi": 64,
      "hit": false,
      "t": 59267.197916666526,
      "d": 387.93074999999953,
      "v": 69
    },
    {
      "midi": 67,
      "hit": false,
      "t": 59267.197916666526,
      "d": 387.93074999999953,
      "v": 62
    },
    {
      "midi": 71,
      "hit": false,
      "t": 59267.197916666526,
      "d": 387.93074999999953,
      "v": 72
    },
    {
      "midi": 76,
      "hit": false,
      "t": 59267.197916666526,
      "d": 387.93074999999953,
      "v": 66
    },
    {
      "midi": 52,
      "hit": false,
      "t": 59310.301333333315,
      "d": 172.41366666666727,
      "v": 64
    },
    {
      "midi": 52,
      "hit": false,
      "t": 59353.404749999856,
      "d": 301.72391666666954,
      "v": 64
    },
    {
      "midi": 59,
      "hit": false,
      "t": 59353.404749999856,
      "d": 301.72391666666954,
      "v": 72
    },
    {
      "midi": 52,
      "hit": false,
      "t": 59655.128666666526,
      "d": 344.82733333333454,
      "v": 67
    },
    {
      "midi": 59,
      "hit": false,
      "t": 59655.128666666526,
      "d": 344.82733333333454,
      "v": 69
    },
    {
      "midi": 64,
      "hit": false,
      "t": 59655.128666666526,
      "d": 344.82733333333454,
      "v": 70
    },
    {
      "midi": 67,
      "hit": false,
      "t": 59655.128666666526,
      "d": 344.82733333333454,
      "v": 67
    },
    {
      "midi": 71,
      "hit": false,
      "t": 59655.128666666526,
      "d": 344.82733333333454,
      "v": 73
    },
    {
      "midi": 76,
      "hit": false,
      "t": 59655.128666666526,
      "d": 344.82733333333454,
      "v": 67
    },
    {
      "midi": 52,
      "hit": false,
      "t": 59655.12866666665,
      "d": 215.51708333333227,
      "v": 63
    },
    {
      "midi": 59,
      "hit": false,
      "t": 59999.95599999986,
      "d": 474.1375833333368,
      "v": 73
    },
    {
      "midi": 67,
      "hit": false,
      "t": 59999.95599999986,
      "d": 474.1375833333368,
      "v": 74
    },
    {
      "midi": 71,
      "hit": false,
      "t": 59999.95599999986,
      "d": 474.1375833333368,
      "v": 78
    },
    {
      "midi": 76,
      "hit": false,
      "t": 59999.95599999986,
      "d": 474.1375833333368,
      "v": 73
    },
    {
      "midi": 52,
      "hit": false,
      "t": 59999.95599999986,
      "d": 517.2410000000018,
      "v": 73
    },
    {
      "midi": 64,
      "hit": false,
      "t": 59999.95599999986,
      "d": 517.2410000000018,
      "v": 79
    },
    {
      "midi": 69,
      "hit": false,
      "t": 59999.95599999994,
      "d": 43.103416666665,
      "v": 99
    },
    {
      "midi": 38,
      "hit": false,
      "t": 59999.95599999994,
      "d": 1896.5503333333327,
      "v": 105
    },
    {
      "midi": 50,
      "hit": false,
      "t": 59999.95599999994,
      "d": 1896.5503333333327,
      "v": 99
    },
    {
      "midi": 62,
      "hit": false,
      "t": 59999.95599999994,
      "d": 1896.5503333333327,
      "v": 89
    },
    {
      "midi": 66,
      "hit": false,
      "t": 59999.95599999994,
      "d": 1939.6537499999977,
      "v": 103
    },
    {
      "midi": 52,
      "hit": false,
      "t": 59999.955999999984,
      "d": 301.72391666666954,
      "v": 66
    },
    {
      "midi": 38,
      "hit": false,
      "t": 59999.956,
      "d": 2025.860583333335,
      "v": 60
    },
    {
      "midi": 50,
      "hit": false,
      "t": 59999.956,
      "d": 2068.964,
      "v": 69
    },
    {
      "midi": 62,
      "hit": false,
      "t": 59999.956,
      "d": 2068.964,
      "v": 59
    },
    {
      "midi": 66,
      "hit": false,
      "t": 59999.956,
      "d": 2068.964,
      "v": 64
    },
    {
      "midi": 69,
      "hit": false,
      "t": 59999.956,
      "d": 2068.964,
      "v": 59
    },
    {
      "midi": 74,
      "hit": false,
      "t": 60301.67991666653,
      "d": 344.82733333333454,
      "v": 75
    },
    {
      "midi": 57,
      "hit": false,
      "t": 60301.67991666653,
      "d": 387.93074999999953,
      "v": 76
    },
    {
      "midi": 62,
      "hit": false,
      "t": 60301.67991666653,
      "d": 387.93074999999953,
      "v": 73
    },
    {
      "midi": 69,
      "hit": false,
      "t": 60301.67991666653,
      "d": 387.93074999999953,
      "v": 65
    },
    {
      "midi": 78,
      "hit": false,
      "t": 60301.67991666653,
      "d": 387.93074999999953,
      "v": 72
    },
    {
      "midi": 69,
      "hit": false,
      "t": 60344.783333333275,
      "d": 1724.1366666666654,
      "v": 51
    },
    {
      "midi": 50,
      "hit": false,
      "t": 60344.78333333332,
      "d": 258.62049999999726,
      "v": 69
    },
    {
      "midi": 74,
      "hit": false,
      "t": 60646.507249999864,
      "d": 387.93074999999953,
      "v": 78
    },
    {
      "midi": 57,
      "hit": false,
      "t": 60689.61066666653,
      "d": 344.82733333333454,
      "v": 71
    },
    {
      "midi": 62,
      "hit": false,
      "t": 60689.61066666653,
      "d": 344.82733333333454,
      "v": 68
    },
    {
      "midi": 69,
      "hit": false,
      "t": 60689.61066666653,
      "d": 344.82733333333454,
      "v": 69
    },
    {
      "midi": 78,
      "hit": false,
      "t": 60689.61066666653,
      "d": 344.82733333333454,
      "v": 71
    },
    {
      "midi": 50,
      "hit": false,
      "t": 60689.610666666646,
      "d": 215.51708333333227,
      "v": 67
    },
    {
      "midi": 57,
      "hit": false,
      "t": 61034.437999999864,
      "d": 301.72391666666954,
      "v": 79
    },
    {
      "midi": 62,
      "hit": false,
      "t": 61034.437999999864,
      "d": 301.72391666666954,
      "v": 74
    },
    {
      "midi": 69,
      "hit": false,
      "t": 61034.437999999864,
      "d": 301.72391666666954,
      "v": 76
    },
    {
      "midi": 74,
      "hit": false,
      "t": 61034.437999999864,
      "d": 301.72391666666954,
      "v": 85
    },
    {
      "midi": 78,
      "hit": false,
      "t": 61034.437999999864,
      "d": 301.72391666666954,
      "v": 79
    },
    {
      "midi": 50,
      "hit": false,
      "t": 61034.43799999998,
      "d": 258.62049999999726,
      "v": 66
    },
    {
      "midi": 74,
      "hit": false,
      "t": 61034.438,
      "d": 948.2751666666663,
      "v": 66
    },
    {
      "midi": 57,
      "hit": false,
      "t": 61336.16191666653,
      "d": 344.82733333333454,
      "v": 74
    },
    {
      "midi": 62,
      "hit": false,
      "t": 61336.16191666653,
      "d": 344.82733333333454,
      "v": 67
    },
    {
      "midi": 69,
      "hit": false,
      "t": 61336.16191666653,
      "d": 344.82733333333454,
      "v": 74
    },
    {
      "midi": 74,
      "hit": false,
      "t": 61336.16191666653,
      "d": 344.82733333333454,
      "v": 81
    },
    {
      "midi": 78,
      "hit": false,
      "t": 61336.16191666653,
      "d": 344.82733333333454,
      "v": 74
    },
    {
      "midi": 47,
      "hit": false,
      "t": 61379.26533333331,
      "d": 258.62049999999726,
      "v": 67
    },
    {
      "midi": 57,
      "hit": false,
      "t": 61680.98924999987,
      "d": 474.13758333332953,
      "v": 75
    },
    {
      "midi": 62,
      "hit": false,
      "t": 61680.98924999987,
      "d": 474.13758333332953,
      "v": 74
    },
    {
      "midi": 69,
      "hit": false,
      "t": 61680.98924999987,
      "d": 474.13758333332953,
      "v": 76
    },
    {
      "midi": 74,
      "hit": false,
      "t": 61680.98924999987,
      "d": 474.13758333332953,
      "v": 77
    },
    {
      "midi": 78,
      "hit": false,
      "t": 61680.98924999987,
      "d": 474.13758333332953,
      "v": 73
    },
    {
      "midi": 50,
      "hit": false,
      "t": 61724.092666666635,
      "d": 301.72391666666954,
      "v": 75
    },
    {
      "midi": 71,
      "hit": false,
      "t": 62068.91999999987,
      "d": 301.72391666666226,
      "v": 79
    },
    {
      "midi": 59,
      "hit": false,
      "t": 62068.91999999987,
      "d": 387.93074999999226,
      "v": 80
    },
    {
      "midi": 64,
      "hit": false,
      "t": 62068.91999999987,
      "d": 387.93074999999226,
      "v": 80
    },
    {
      "midi": 67,
      "hit": false,
      "t": 62068.91999999987,
      "d": 387.93074999999226,
      "v": 76
    },
    {
      "midi": 76,
      "hit": false,
      "t": 62068.91999999987,
      "d": 387.93074999999226,
      "v": 74
    },
    {
      "midi": 52,
      "hit": false,
      "t": 62068.91999999994,
      "d": 1810.3435000000027,
      "v": 98
    },
    {
      "midi": 40,
      "hit": false,
      "t": 62068.91999999994,
      "d": 1853.4469166666677,
      "v": 101
    },
    {
      "midi": 67,
      "hit": false,
      "t": 62068.91999999994,
      "d": 1896.5503333333327,
      "v": 100
    },
    {
      "midi": 64,
      "hit": false,
      "t": 62068.91999999994,
      "d": 1939.6537499999977,
      "v": 100
    },
    {
      "midi": 52,
      "hit": false,
      "t": 62068.91999999997,
      "d": 172.41366666666727,
      "v": 68
    },
    {
      "midi": 40,
      "hit": false,
      "t": 62068.92,
      "d": 2025.860583333335,
      "v": 51
    },
    {
      "midi": 52,
      "hit": false,
      "t": 62068.92,
      "d": 2025.860583333335,
      "v": 53
    },
    {
      "midi": 64,
      "hit": false,
      "t": 62068.92,
      "d": 2025.860583333335,
      "v": 52
    },
    {
      "midi": 67,
      "hit": false,
      "t": 62068.92,
      "d": 2025.860583333335,
      "v": 51
    },
    {
      "midi": 71,
      "hit": false,
      "t": 62068.92,
      "d": 2025.860583333335,
      "v": 51
    },
    {
      "midi": 76,
      "hit": false,
      "t": 62068.92,
      "d": 991.3785833333313,
      "v": 66
    },
    {
      "midi": 52,
      "hit": false,
      "t": 62112.02341666653,
      "d": 560.3444166666595,
      "v": 70
    },
    {
      "midi": 71,
      "hit": false,
      "t": 62370.64391666653,
      "d": 387.93074999999226,
      "v": 78
    },
    {
      "midi": 52,
      "hit": false,
      "t": 62413.747333333304,
      "d": 129.31025000000227,
      "v": 64
    },
    {
      "midi": 59,
      "hit": false,
      "t": 62456.85074999986,
      "d": 301.72391666666226,
      "v": 65
    },
    {
      "midi": 64,
      "hit": false,
      "t": 62456.85074999986,
      "d": 301.72391666666226,
      "v": 70
    },
    {
      "midi": 67,
      "hit": false,
      "t": 62456.85074999986,
      "d": 301.72391666666226,
      "v": 71
    },
    {
      "midi": 76,
      "hit": false,
      "t": 62456.85074999986,
      "d": 301.72391666666226,
      "v": 71
    },
    {
      "midi": 52,
      "hit": false,
      "t": 62758.57466666652,
      "d": 344.82733333333454,
      "v": 71
    },
    {
      "midi": 59,
      "hit": false,
      "t": 62758.57466666652,
      "d": 344.82733333333454,
      "v": 75
    },
    {
      "midi": 64,
      "hit": false,
      "t": 62758.57466666652,
      "d": 344.82733333333454,
      "v": 78
    },
    {
      "midi": 67,
      "hit": false,
      "t": 62758.57466666652,
      "d": 344.82733333333454,
      "v": 72
    },
    {
      "midi": 71,
      "hit": false,
      "t": 62758.57466666652,
      "d": 344.82733333333454,
      "v": 78
    },
    {
      "midi": 76,
      "hit": false,
      "t": 62758.57466666652,
      "d": 344.82733333333454,
      "v": 71
    },
    {
      "midi": 52,
      "hit": false,
      "t": 62758.57466666664,
      "d": 129.31025000000227,
      "v": 62
    },
    {
      "midi": 52,
      "hit": false,
      "t": 63103.401999999856,
      "d": 301.72391666666954,
      "v": 78
    },
    {
      "midi": 59,
      "hit": false,
      "t": 63103.401999999856,
      "d": 301.72391666666954,
      "v": 81
    },
    {
      "midi": 64,
      "hit": false,
      "t": 63103.401999999856,
      "d": 301.72391666666954,
      "v": 79
    },
    {
      "midi": 67,
      "hit": false,
      "t": 63103.401999999856,
      "d": 301.72391666666954,
      "v": 78
    },
    {
      "midi": 71,
      "hit": false,
      "t": 63103.401999999856,
      "d": 301.72391666666954,
      "v": 85
    },
    {
      "midi": 76,
      "hit": false,
      "t": 63103.401999999856,
      "d": 301.72391666666954,
      "v": 77
    },
    {
      "midi": 52,
      "hit": false,
      "t": 63103.40199999997,
      "d": 129.31025000000227,
      "v": 63
    },
    {
      "midi": 76,
      "hit": false,
      "t": 63103.401999999995,
      "d": 2068.964,
      "v": 70
    },
    {
      "midi": 67,
      "hit": false,
      "t": 63405.125916666526,
      "d": 344.82733333333454,
      "v": 70
    },
    {
      "midi": 71,
      "hit": false,
      "t": 63405.125916666526,
      "d": 344.82733333333454,
      "v": 78
    },
    {
      "midi": 52,
      "hit": false,
      "t": 63405.125916666526,
      "d": 387.93074999999953,
      "v": 71
    },
    {
      "midi": 59,
      "hit": false,
      "t": 63405.125916666526,
      "d": 387.93074999999953,
      "v": 76
    },
    {
      "midi": 64,
      "hit": false,
      "t": 63405.125916666526,
      "d": 387.93074999999953,
      "v": 77
    },
    {
      "midi": 76,
      "hit": false,
      "t": 63405.125916666526,
      "d": 387.93074999999953,
      "v": 71
    },
    {
      "midi": 52,
      "hit": false,
      "t": 63448.22933333331,
      "d": 172.41366666666727,
      "v": 63
    },
    {
      "midi": 67,
      "hit": false,
      "t": 63749.95324999986,
      "d": 474.13758333332953,
      "v": 78
    },
    {
      "midi": 71,
      "hit": false,
      "t": 63749.95324999986,
      "d": 474.13758333332953,
      "v": 82
    },
    {
      "midi": 59,
      "hit": false,
      "t": 63793.056666666525,
      "d": 474.13758333332953,
      "v": 73
    },
    {
      "midi": 64,
      "hit": false,
      "t": 63793.056666666525,
      "d": 474.13758333332953,
      "v": 80
    },
    {
      "midi": 76,
      "hit": false,
      "t": 63793.056666666525,
      "d": 474.13758333332953,
      "v": 77
    },
    {
      "midi": 52,
      "hit": false,
      "t": 63793.056666666525,
      "d": 517.2409999999945,
      "v": 70
    },
    {
      "midi": 52,
      "hit": false,
      "t": 63793.05666666664,
      "d": 258.62049999999726,
      "v": 62
    },
    {
      "midi": 69,
      "hit": false,
      "t": 64137.88399999986,
      "d": 301.72391666666226,
      "v": 72
    },
    {
      "midi": 74,
      "hit": false,
      "t": 64137.88399999986,
      "d": 301.72391666666226,
      "v": 79
    },
    {
      "midi": 78,
      "hit": false,
      "t": 64137.88399999986,
      "d": 301.72391666666226,
      "v": 77
    },
    {
      "midi": 57,
      "hit": false,
      "t": 64137.88399999986,
      "d": 387.93074999999226,
      "v": 83
    },
    {
      "midi": 62,
      "hit": false,
      "t": 64137.88399999986,
      "d": 387.93074999999226,
      "v": 78
    },
    {
      "midi": 38,
      "hit": false,
      "t": 64137.88399999994,
      "d": 1939.653750000005,
      "v": 102
    },
    {
      "midi": 50,
      "hit": false,
      "t": 64137.88399999994,
      "d": 1939.653750000005,
      "v": 112
    },
    {
      "midi": 62,
      "hit": false,
      "t": 64137.88399999994,
      "d": 1939.653750000005,
      "v": 95
    },
    {
      "midi": 69,
      "hit": false,
      "t": 64137.88399999994,
      "d": 1939.653750000005,
      "v": 94
    },
    {
      "midi": 66,
      "hit": false,
      "t": 64137.88399999994,
      "d": 1982.75716666667,
      "v": 100
    },
    {
      "midi": 50,
      "hit": false,
      "t": 64137.88399999997,
      "d": 258.62049999999726,
      "v": 61
    },
    {
      "midi": 66,
      "hit": false,
      "t": 64137.884,
      "d": 2068.964,
      "v": 40
    },
    {
      "midi": 69,
      "hit": false,
      "t": 64137.884,
      "d": 2068.964,
      "v": 48
    },
    {
      "midi": 38,
      "hit": false,
      "t": 64137.884,
      "d": 2112.067416666665,
      "v": 50
    },
    {
      "midi": 50,
      "hit": false,
      "t": 64137.884,
      "d": 2112.067416666665,
      "v": 50
    },
    {
      "midi": 62,
      "hit": false,
      "t": 64137.884,
      "d": 2112.067416666665,
      "v": 44
    },
    {
      "midi": 69,
      "hit": false,
      "t": 64439.60791666652,
      "d": 387.93074999999953,
      "v": 72
    },
    {
      "midi": 74,
      "hit": false,
      "t": 64439.60791666652,
      "d": 387.93074999999953,
      "v": 80
    },
    {
      "midi": 78,
      "hit": false,
      "t": 64439.60791666652,
      "d": 387.93074999999953,
      "v": 76
    },
    {
      "midi": 50,
      "hit": false,
      "t": 64482.711333333296,
      "d": 215.51708333333227,
      "v": 61
    },
    {
      "midi": 57,
      "hit": false,
      "t": 64525.81474999985,
      "d": 301.72391666666954,
      "v": 75
    },
    {
      "midi": 62,
      "hit": false,
      "t": 64525.81474999985,
      "d": 301.72391666666954,
      "v": 67
    },
    {
      "midi": 57,
      "hit": false,
      "t": 64827.53866666652,
      "d": 344.82733333333454,
      "v": 80
    },
    {
      "midi": 62,
      "hit": false,
      "t": 64827.53866666652,
      "d": 344.82733333333454,
      "v": 73
    },
    {
      "midi": 69,
      "hit": false,
      "t": 64827.53866666652,
      "d": 344.82733333333454,
      "v": 79
    },
    {
      "midi": 74,
      "hit": false,
      "t": 64827.53866666652,
      "d": 344.82733333333454,
      "v": 89
    },
    {
      "midi": 78,
      "hit": false,
      "t": 64827.53866666652,
      "d": 344.82733333333454,
      "v": 83
    },
    {
      "midi": 50,
      "hit": false,
      "t": 64827.53866666663,
      "d": 172.41366666666727,
      "v": 58
    },
    {
      "midi": 57,
      "hit": false,
      "t": 65172.365999999856,
      "d": 301.72391666666954,
      "v": 80
    },
    {
      "midi": 62,
      "hit": false,
      "t": 65172.365999999856,
      "d": 301.72391666666954,
      "v": 78
    },
    {
      "midi": 69,
      "hit": false,
      "t": 65172.365999999856,
      "d": 301.72391666666954,
      "v": 80
    },
    {
      "midi": 74,
      "hit": false,
      "t": 65172.365999999856,
      "d": 301.72391666666954,
      "v": 85
    },
    {
      "midi": 78,
      "hit": false,
      "t": 65172.365999999856,
      "d": 301.72391666666954,
      "v": 84
    },
    {
      "midi": 50,
      "hit": false,
      "t": 65172.365999999965,
      "d": 258.62049999999726,
      "v": 61
    },
    {
      "midi": 74,
      "hit": false,
      "t": 65172.365999999995,
      "d": 991.3785833333386,
      "v": 67
    },
    {
      "midi": 57,
      "hit": false,
      "t": 65474.089916666526,
      "d": 387.9307500000068,
      "v": 79
    },
    {
      "midi": 62,
      "hit": false,
      "t": 65474.089916666526,
      "d": 387.9307500000068,
      "v": 77
    },
    {
      "midi": 69,
      "hit": false,
      "t": 65474.089916666526,
      "d": 387.9307500000068,
      "v": 77
    },
    {
      "midi": 74,
      "hit": false,
      "t": 65474.089916666526,
      "d": 387.9307500000068,
      "v": 84
    },
    {
      "midi": 78,
      "hit": false,
      "t": 65474.089916666526,
      "d": 387.9307500000068,
      "v": 80
    },
    {
      "midi": 47,
      "hit": false,
      "t": 65517.19333333329,
      "d": 344.82733333332726,
      "v": 55
    },
    {
      "midi": 57,
      "hit": false,
      "t": 65862.02066666653,
      "d": 474.13758333332953,
      "v": 89
    },
    {
      "midi": 62,
      "hit": false,
      "t": 65862.02066666653,
      "d": 474.13758333332953,
      "v": 89
    },
    {
      "midi": 74,
      "hit": false,
      "t": 65862.02066666653,
      "d": 474.13758333332953,
      "v": 104
    },
    {
      "midi": 78,
      "hit": false,
      "t": 65862.02066666653,
      "d": 474.13758333332953,
      "v": 94
    },
    {
      "midi": 69,
      "hit": false,
      "t": 65862.02066666653,
      "d": 517.2409999999945,
      "v": 84
    },
    {
      "midi": 50,
      "hit": false,
      "t": 65862.02066666662,
      "d": 344.82733333333454,
      "v": 69
    },
    {
      "midi": 59,
      "hit": false,
      "t": 66206.84799999987,
      "d": 948.2751666666591,
      "v": 75
    },
    {
      "midi": 67,
      "hit": false,
      "t": 66206.84799999987,
      "d": 948.2751666666591,
      "v": 68
    },
    {
      "midi": 71,
      "hit": false,
      "t": 66206.84799999987,
      "d": 948.2751666666591,
      "v": 75
    },
    {
      "midi": 64,
      "hit": false,
      "t": 66206.84799999987,
      "d": 1034.481999999989,
      "v": 75
    },
    {
      "midi": 76,
      "hit": false,
      "t": 66206.84799999987,
      "d": 1034.481999999989,
      "v": 71
    },
    {
      "midi": 52,
      "hit": false,
      "t": 66206.84799999987,
      "d": 2198.2742499999877,
      "v": 73
    },
    {
      "midi": 76,
      "hit": false,
      "t": 66206.84799999994,
      "d": 3060.3425833333313,
      "v": 61
    },
    {
      "midi": 52,
      "hit": false,
      "t": 66206.84799999995,
      "d": 1594.8264166666631,
      "v": 75
    },
    {
      "midi": 71,
      "hit": false,
      "t": 67155.12316666653,
      "d": 344.82733333333454,
      "v": 68
    },
    {
      "midi": 67,
      "hit": false,
      "t": 67155.12316666653,
      "d": 431.03416666666453,
      "v": 73
    },
    {
      "midi": 59,
      "hit": false,
      "t": 67155.12316666653,
      "d": 1249.9990833333286,
      "v": 71
    },
    {
      "midi": 64,
      "hit": false,
      "t": 67241.32999999986,
      "d": 1206.8956666666636,
      "v": 81
    },
    {
      "midi": 76,
      "hit": false,
      "t": 67241.32999999986,
      "d": 1206.8956666666636,
      "v": 63
    },
    {
      "midi": 71,
      "hit": false,
      "t": 67543.05391666653,
      "d": 905.1717499999941,
      "v": 65
    },
    {
      "midi": 67,
      "hit": false,
      "t": 67887.88124999986,
      "d": 517.2409999999945,
      "v": 81
    },
    {
      "midi": 52,
      "hit": false,
      "t": 67930.98466666661,
      "d": 258.62050000000454,
      "v": 64
    },
    {
      "midi": 74,
      "hit": false,
      "t": 68275.81199999986,
      "d": 905.1717499999941,
      "v": 80
    },
    {
      "midi": 69,
      "hit": false,
      "t": 68275.81199999986,
      "d": 948.2751666666591,
      "v": 74
    },
    {
      "midi": 62,
      "hit": false,
      "t": 68275.81199999986,
      "d": 1034.481999999989,
      "v": 83
    },
    {
      "midi": 78,
      "hit": false,
      "t": 68275.81199999986,
      "d": 1077.585416666654,
      "v": 77
    },
    {
      "midi": 57,
      "hit": false,
      "t": 68275.81199999986,
      "d": 2241.3776666666527,
      "v": 80
    },
    {
      "midi": 50,
      "hit": false,
      "t": 68275.81199999995,
      "d": 1594.8264166666631,
      "v": 68
    },
    {
      "midi": 74,
      "hit": false,
      "t": 69180.98374999985,
      "d": 431.03416666666453,
      "v": 74
    },
    {
      "midi": 69,
      "hit": false,
      "t": 69224.08716666652,
      "d": 431.03416666666453,
      "v": 78
    },
    {
      "midi": 74,
      "hit": false,
      "t": 69267.19058333327,
      "d": 172.41366666666,
      "v": 79
    },
    {
      "midi": 62,
      "hit": false,
      "t": 69310.29399999985,
      "d": 1206.8956666666636,
      "v": 80
    },
    {
      "midi": 78,
      "hit": false,
      "t": 69353.39741666651,
      "d": 1163.7922499999986,
      "v": 92
    },
    {
      "midi": 76,
      "hit": false,
      "t": 69439.60424999993,
      "d": 215.517083333325,
      "v": 77
    },
    {
      "midi": 74,
      "hit": false,
      "t": 69612.01791666652,
      "d": 948.2751666666591,
      "v": 80
    },
    {
      "midi": 78,
      "hit": false,
      "t": 69612.01791666659,
      "d": 129.310249999995,
      "v": 75
    },
    {
      "midi": 79,
      "hit": false,
      "t": 69784.43158333325,
      "d": 172.41366666666,
      "v": 79
    },
    {
      "midi": 78,
      "hit": false,
      "t": 69913.74183333325,
      "d": 129.310249999995,
      "v": 86
    },
    {
      "midi": 69,
      "hit": false,
      "t": 69956.84524999985,
      "d": 560.3444166666595,
      "v": 89
    },
    {
      "midi": 50,
      "hit": false,
      "t": 69999.9486666666,
      "d": 301.72391666666954,
      "v": 68
    },
    {
      "midi": 74,
      "hit": false,
      "t": 70043.05208333324,
      "d": 215.51708333333954,
      "v": 84
    },
    {
      "midi": 76,
      "hit": false,
      "t": 70258.56916666658,
      "d": 3103.4459999999963,
      "v": 71
    },
    {
      "midi": 59,
      "hit": false,
      "t": 70344.77599999985,
      "d": 948.2751666666591,
      "v": 75
    },
    {
      "midi": 67,
      "hit": false,
      "t": 70344.77599999985,
      "d": 948.2751666666591,
      "v": 68
    },
    {
      "midi": 71,
      "hit": false,
      "t": 70344.77599999985,
      "d": 948.2751666666591,
      "v": 75
    },
    {
      "midi": 64,
      "hit": false,
      "t": 70344.77599999985,
      "d": 1034.481999999989,
      "v": 75
    },
    {
      "midi": 76,
      "hit": false,
      "t": 70344.77599999985,
      "d": 1034.481999999989,
      "v": 71
    },
    {
      "midi": 52,
      "hit": false,
      "t": 70344.77599999985,
      "d": 2198.2742499999877,
      "v": 73
    },
    {
      "midi": 52,
      "hit": false,
      "t": 70344.77599999994,
      "d": 1594.8264166666631,
      "v": 70
    },
    {
      "midi": 71,
      "hit": false,
      "t": 71293.05116666651,
      "d": 344.82733333333454,
      "v": 68
    },
    {
      "midi": 67,
      "hit": false,
      "t": 71293.05116666651,
      "d": 431.03416666666453,
      "v": 73
    },
    {
      "midi": 59,
      "hit": false,
      "t": 71293.05116666651,
      "d": 1249.9990833333286,
      "v": 71
    },
    {
      "midi": 64,
      "hit": false,
      "t": 71379.25799999984,
      "d": 1206.8956666666636,
      "v": 81
    },
    {
      "midi": 76,
      "hit": false,
      "t": 71379.25799999984,
      "d": 1206.8956666666636,
      "v": 63
    },
    {
      "midi": 71,
      "hit": false,
      "t": 71680.98191666651,
      "d": 905.1717499999941,
      "v": 65
    },
    {
      "midi": 67,
      "hit": false,
      "t": 72025.80924999985,
      "d": 517.2409999999945,
      "v": 81
    },
    {
      "midi": 52,
      "hit": false,
      "t": 72068.9126666666,
      "d": 258.62050000000454,
      "v": 63
    },
    {
      "midi": 74,
      "hit": false,
      "t": 72413.73999999985,
      "d": 905.1717499999941,
      "v": 80
    },
    {
      "midi": 69,
      "hit": false,
      "t": 72413.73999999985,
      "d": 948.2751666666591,
      "v": 74
    },
    {
      "midi": 62,
      "hit": false,
      "t": 72413.73999999985,
      "d": 1034.481999999989,
      "v": 83
    },
    {
      "midi": 78,
      "hit": false,
      "t": 72413.73999999985,
      "d": 1077.585416666654,
      "v": 77
    },
    {
      "midi": 57,
      "hit": false,
      "t": 72413.73999999985,
      "d": 2241.3776666666527,
      "v": 80
    },
    {
      "midi": 50,
      "hit": false,
      "t": 72413.73999999993,
      "d": 1594.8264166666631,
      "v": 68
    },
    {
      "midi": 74,
      "hit": false,
      "t": 73318.91174999984,
      "d": 431.03416666666453,
      "v": 74
    },
    {
      "midi": 69,
      "hit": false,
      "t": 73362.0151666665,
      "d": 431.03416666666453,
      "v": 78
    },
    {
      "midi": 74,
      "hit": false,
      "t": 73405.11858333324,
      "d": 129.310249999995,
      "v": 81
    },
    {
      "midi": 62,
      "hit": false,
      "t": 73448.22199999983,
      "d": 1206.8956666666636,
      "v": 80
    },
    {
      "midi": 78,
      "hit": false,
      "t": 73491.3254166665,
      "d": 1163.7922499999986,
      "v": 92
    },
    {
      "midi": 76,
      "hit": false,
      "t": 73577.5322499999,
      "d": 172.41366666666,
      "v": 79
    },
    {
      "midi": 74,
      "hit": false,
      "t": 73749.9459166665,
      "d": 948.2751666666591,
      "v": 80
    },
    {
      "midi": 78,
      "hit": false,
      "t": 73749.94591666656,
      "d": 172.41366666666,
      "v": 74
    },
    {
      "midi": 79,
      "hit": false,
      "t": 73922.35958333322,
      "d": 129.310249999995,
      "v": 79
    },
    {
      "midi": 78,
      "hit": false,
      "t": 74008.56641666655,
      "d": 129.310249999995,
      "v": 83
    },
    {
      "midi": 69,
      "hit": false,
      "t": 74094.77324999984,
      "d": 560.3444166666595,
      "v": 89
    },
    {
      "midi": 50,
      "hit": false,
      "t": 74137.87666666659,
      "d": 301.72391666666954,
      "v": 63
    },
    {
      "midi": 74,
      "hit": false,
      "t": 74180.98008333321,
      "d": 215.51708333333954,
      "v": 73
    },
    {
      "midi": 72,
      "hit": false,
      "t": 74396.49716666655,
      "d": 2112.067416666672,
      "v": 74
    },
    {
      "midi": 67,
      "hit": false,
      "t": 74482.70399999984,
      "d": 905.1717499999941,
      "v": 80
    },
    {
      "midi": 60,
      "hit": false,
      "t": 74482.70399999984,
      "d": 948.2751666666591,
      "v": 71
    },
    {
      "midi": 64,
      "hit": false,
      "t": 74482.70399999984,
      "d": 948.2751666666591,
      "v": 79
    },
    {
      "midi": 76,
      "hit": false,
      "t": 74482.70399999984,
      "d": 948.2751666666591,
      "v": 76
    },
    {
      "midi": 72,
      "hit": false,
      "t": 74482.70399999984,
      "d": 1293.1024999999936,
      "v": 80
    },
    {
      "midi": 48,
      "hit": false,
      "t": 74482.70399999993,
      "d": 1551.7229999999981,
      "v": 84
    },
    {
      "midi": 67,
      "hit": false,
      "t": 75387.87574999983,
      "d": 431.03416666666453,
      "v": 72
    },
    {
      "midi": 60,
      "hit": false,
      "t": 75430.9791666665,
      "d": 1163.7922499999986,
      "v": 71
    },
    {
      "midi": 64,
      "hit": false,
      "t": 75430.9791666665,
      "d": 1163.7922499999986,
      "v": 67
    },
    {
      "midi": 76,
      "hit": false,
      "t": 75430.9791666665,
      "d": 1336.2059166666586,
      "v": 66
    },
    {
      "midi": 72,
      "hit": false,
      "t": 75818.9099166665,
      "d": 948.2751666666591,
      "v": 80
    },
    {
      "midi": 67,
      "hit": false,
      "t": 76163.73724999983,
      "d": 301.72391666666954,
      "v": 89
    },
    {
      "midi": 48,
      "hit": false,
      "t": 76206.84066666658,
      "d": 301.72391666666954,
      "v": 69
    },
    {
      "midi": 62,
      "hit": false,
      "t": 76465.4611666665,
      "d": 991.3785833333241,
      "v": 79
    },
    {
      "midi": 71,
      "hit": false,
      "t": 76465.4611666665,
      "d": 1034.481999999989,
      "v": 79
    },
    {
      "midi": 74,
      "hit": false,
      "t": 76465.4611666665,
      "d": 1034.481999999989,
      "v": 80
    },
    {
      "midi": 55,
      "hit": false,
      "t": 76465.4611666665,
      "d": 1120.688833333319,
      "v": 76
    },
    {
      "midi": 67,
      "hit": false,
      "t": 76465.4611666665,
      "d": 1120.688833333319,
      "v": 78
    },
    {
      "midi": 79,
      "hit": false,
      "t": 76465.4611666665,
      "d": 1120.688833333319,
      "v": 74
    },
    {
      "midi": 71,
      "hit": false,
      "t": 76508.56458333322,
      "d": 2068.9639999999927,
      "v": 68
    },
    {
      "midi": 55,
      "hit": false,
      "t": 76551.66799999992,
      "d": 1637.9298333333281,
      "v": 85
    },
    {
      "midi": 62,
      "hit": false,
      "t": 77456.83974999982,
      "d": 1293.1024999999936,
      "v": 78
    },
    {
      "midi": 74,
      "hit": false,
      "t": 77499.94316666649,
      "d": 387.93074999999953,
      "v": 74
    },
    {
      "midi": 71,
      "hit": false,
      "t": 77499.94316666649,
      "d": 431.03416666666453,
      "v": 72
    },
    {
      "midi": 55,
      "hit": false,
      "t": 77586.14999999982,
      "d": 1163.7922499999986,
      "v": 65
    },
    {
      "midi": 67,
      "hit": false,
      "t": 77586.14999999982,
      "d": 1206.8956666666636,
      "v": 82
    },
    {
      "midi": 79,
      "hit": false,
      "t": 77586.14999999982,
      "d": 1336.2059166666586,
      "v": 75
    },
    {
      "midi": 74,
      "hit": false,
      "t": 77887.87391666649,
      "d": 991.3785833333241,
      "v": 92
    },
    {
      "midi": 71,
      "hit": false,
      "t": 78232.70124999982,
      "d": 646.5512499999895,
      "v": 89
    },
    {
      "midi": 55,
      "hit": false,
      "t": 78275.80466666658,
      "d": 301.72391666666954,
      "v": 72
    },
    {
      "midi": 69,
      "hit": false,
      "t": 78577.52858333322,
      "d": 2025.8605833333277,
      "v": 73
    },
    {
      "midi": 72,
      "hit": false,
      "t": 78620.63199999982,
      "d": 905.1717499999941,
      "v": 78
    },
    {
      "midi": 60,
      "hit": false,
      "t": 78620.63199999982,
      "d": 948.2751666666591,
      "v": 80
    },
    {
      "midi": 69,
      "hit": false,
      "t": 78620.63199999982,
      "d": 948.2751666666591,
      "v": 71
    },
    {
      "midi": 53,
      "hit": false,
      "t": 78620.63199999982,
      "d": 1034.481999999989,
      "v": 77
    },
    {
      "midi": 65,
      "hit": false,
      "t": 78620.63199999982,
      "d": 1034.481999999989,
      "v": 81
    },
    {
      "midi": 77,
      "hit": false,
      "t": 78620.63199999982,
      "d": 1034.481999999989,
      "v": 73
    },
    {
      "midi": 53,
      "hit": false,
      "t": 78620.63199999991,
      "d": 1551.7229999999981,
      "v": 74
    },
    {
      "midi": 72,
      "hit": false,
      "t": 79525.80374999982,
      "d": 387.93074999999953,
      "v": 47
    },
    {
      "midi": 69,
      "hit": false,
      "t": 79568.90716666648,
      "d": 431.03416666666453,
      "v": 73
    },
    {
      "midi": 60,
      "hit": false,
      "t": 79568.90716666648,
      "d": 1249.9990833333286,
      "v": 68
    },
    {
      "midi": 53,
      "hit": false,
      "t": 79655.11399999981,
      "d": 1120.6888333333336,
      "v": 62
    },
    {
      "midi": 65,
      "hit": false,
      "t": 79655.11399999981,
      "d": 1163.7922499999986,
      "v": 87
    },
    {
      "midi": 77,
      "hit": false,
      "t": 79655.11399999981,
      "d": 1293.1024999999936,
      "v": 77
    },
    {
      "midi": 72,
      "hit": false,
      "t": 80043.04474999981,
      "d": 905.1717499999941,
      "v": 99
    },
    {
      "midi": 69,
      "hit": false,
      "t": 80344.76866666648,
      "d": 603.4478333333245,
      "v": 87
    },
    {
      "midi": 53,
      "hit": false,
      "t": 80344.76866666657,
      "d": 301.72391666666954,
      "v": 70
    },
    {
      "midi": 67,
      "hit": false,
      "t": 80603.38916666654,
      "d": 2068.964000000007,
      "v": 65
    },
    {
      "midi": 67,
      "hit": false,
      "t": 80689.59599999982,
      "d": 905.1717499999941,
      "v": 77
    },
    {
      "midi": 59,
      "hit": false,
      "t": 80689.59599999982,
      "d": 948.2751666666591,
      "v": 79
    },
    {
      "midi": 71,
      "hit": false,
      "t": 80689.59599999982,
      "d": 948.2751666666591,
      "v": 79
    },
    {
      "midi": 76,
      "hit": false,
      "t": 80689.59599999982,
      "d": 948.2751666666591,
      "v": 74
    },
    {
      "midi": 52,
      "hit": false,
      "t": 80689.59599999982,
      "d": 1034.481999999989,
      "v": 76
    },
    {
      "midi": 64,
      "hit": false,
      "t": 80689.59599999982,
      "d": 1034.481999999989,
      "v": 82
    },
    {
      "midi": 52,
      "hit": false,
      "t": 80689.5959999999,
      "d": 1637.9298333333281,
      "v": 79
    },
    {
      "midi": 67,
      "hit": false,
      "t": 81594.76774999981,
      "d": 387.93074999999953,
      "v": 66
    },
    {
      "midi": 71,
      "hit": false,
      "t": 81637.87116666647,
      "d": 301.72391666666954,
      "v": 61
    },
    {
      "midi": 59,
      "hit": false,
      "t": 81637.87116666647,
      "d": 1120.6888333333336,
      "v": 70
    },
    {
      "midi": 76,
      "hit": false,
      "t": 81637.87116666647,
      "d": 1120.6888333333336,
      "v": 72
    },
    {
      "midi": 52,
      "hit": false,
      "t": 81724.0779999998,
      "d": 1034.4820000000036,
      "v": 39
    },
    {
      "midi": 64,
      "hit": false,
      "t": 81724.0779999998,
      "d": 1034.4820000000036,
      "v": 79
    },
    {
      "midi": 71,
      "hit": false,
      "t": 82025.80191666647,
      "d": 732.7580833333341,
      "v": 83
    },
    {
      "midi": 67,
      "hit": false,
      "t": 82370.62924999981,
      "d": 387.93074999999953,
      "v": 80
    },
    {
      "midi": 64,
      "hit": false,
      "t": 82672.35316666655,
      "d": 86.20683333333,
      "v": 61
    },
    {
      "midi": 59,
      "hit": false,
      "t": 82758.55999999981,
      "d": 948.2751666666736,
      "v": 75
    },
    {
      "midi": 67,
      "hit": false,
      "t": 82758.55999999981,
      "d": 948.2751666666736,
      "v": 68
    },
    {
      "midi": 71,
      "hit": false,
      "t": 82758.55999999981,
      "d": 948.2751666666736,
      "v": 75
    },
    {
      "midi": 64,
      "hit": false,
      "t": 82758.55999999981,
      "d": 1034.4820000000036,
      "v": 75
    },
    {
      "midi": 76,
      "hit": false,
      "t": 82758.55999999981,
      "d": 1034.4820000000036,
      "v": 71
    },
    {
      "midi": 52,
      "hit": false,
      "t": 82758.55999999981,
      "d": 2198.274250000002,
      "v": 73
    },
    {
      "midi": 64,
      "hit": false,
      "t": 82758.55999999988,
      "d": 3060.3425833333313,
      "v": 70
    },
    {
      "midi": 52,
      "hit": false,
      "t": 82758.5599999999,
      "d": 1594.8264166666631,
      "v": 75
    },
    {
      "midi": 71,
      "hit": false,
      "t": 83706.83516666648,
      "d": 344.82733333333454,
      "v": 68
    },
    {
      "midi": 67,
      "hit": false,
      "t": 83706.83516666648,
      "d": 431.03416666666453,
      "v": 73
    },
    {
      "midi": 59,
      "hit": false,
      "t": 83706.83516666648,
      "d": 1249.9990833333286,
      "v": 71
    },
    {
      "midi": 64,
      "hit": false,
      "t": 83793.04199999981,
      "d": 1206.8956666666636,
      "v": 81
    },
    {
      "midi": 76,
      "hit": false,
      "t": 83793.04199999981,
      "d": 1206.8956666666636,
      "v": 63
    },
    {
      "midi": 71,
      "hit": false,
      "t": 84094.76591666648,
      "d": 905.1717499999941,
      "v": 65
    },
    {
      "midi": 67,
      "hit": false,
      "t": 84439.59324999982,
      "d": 517.2409999999945,
      "v": 81
    },
    {
      "midi": 52,
      "hit": false,
      "t": 84482.69666666655,
      "d": 258.62050000000454,
      "v": 64
    },
    {
      "midi": 74,
      "hit": false,
      "t": 84827.52399999982,
      "d": 905.1717499999941,
      "v": 80
    },
    {
      "midi": 69,
      "hit": false,
      "t": 84827.52399999982,
      "d": 948.2751666666591,
      "v": 74
    },
    {
      "midi": 62,
      "hit": false,
      "t": 84827.52399999982,
      "d": 1034.481999999989,
      "v": 83
    },
    {
      "midi": 78,
      "hit": false,
      "t": 84827.52399999982,
      "d": 1077.585416666654,
      "v": 77
    },
    {
      "midi": 57,
      "hit": false,
      "t": 84827.52399999982,
      "d": 2241.3776666666527,
      "v": 80
    },
    {
      "midi": 50,
      "hit": false,
      "t": 84827.52399999989,
      "d": 1594.8264166666631,
      "v": 68
    },
    {
      "midi": 74,
      "hit": false,
      "t": 85732.69574999981,
      "d": 431.03416666666453,
      "v": 74
    },
    {
      "midi": 69,
      "hit": false,
      "t": 85775.79916666647,
      "d": 431.03416666666453,
      "v": 78
    },
    {
      "midi": 62,
      "hit": false,
      "t": 85775.79916666655,
      "d": 172.41366666666,
      "v": 84
    },
    {
      "midi": 62,
      "hit": false,
      "t": 85862.0059999998,
      "d": 1206.8956666666636,
      "v": 80
    },
    {
      "midi": 78,
      "hit": false,
      "t": 85905.10941666647,
      "d": 1163.7922499999986,
      "v": 92
    },
    {
      "midi": 64,
      "hit": false,
      "t": 85948.21283333321,
      "d": 215.51708333333954,
      "v": 79
    },
    {
      "midi": 74,
      "hit": false,
      "t": 86163.72991666647,
      "d": 948.2751666666591,
      "v": 80
    },
    {
      "midi": 66,
      "hit": false,
      "t": 86163.72991666655,
      "d": 86.20683333333,
      "v": 80
    },
    {
      "midi": 67,
      "hit": false,
      "t": 86293.04016666654,
      "d": 172.41366666666,
      "v": 75
    },
    {
      "midi": 66,
      "hit": false,
      "t": 86422.35041666654,
      "d": 129.310249999995,
      "v": 101
    },
    {
      "midi": 69,
      "hit": false,
      "t": 86508.55724999981,
      "d": 560.3444166666595,
      "v": 89
    },
    {
      "midi": 50,
      "hit": false,
      "t": 86551.66066666655,
      "d": 301.72391666666954,
      "v": 68
    },
    {
      "midi": 62,
      "hit": false,
      "t": 86637.86749999986,
      "d": 301.72391666666954,
      "v": 78
    },
    {
      "midi": 59,
      "hit": false,
      "t": 86896.48799999981,
      "d": 948.2751666666591,
      "v": 75
    },
    {
      "midi": 67,
      "hit": false,
      "t": 86896.48799999981,
      "d": 948.2751666666591,
      "v": 68
    },
    {
      "midi": 71,
      "hit": false,
      "t": 86896.48799999981,
      "d": 948.2751666666591,
      "v": 75
    },
    {
      "midi": 64,
      "hit": false,
      "t": 86896.48799999981,
      "d": 1034.481999999989,
      "v": 75
    },
    {
      "midi": 76,
      "hit": false,
      "t": 86896.48799999981,
      "d": 1034.481999999989,
      "v": 71
    },
    {
      "midi": 52,
      "hit": false,
      "t": 86896.48799999981,
      "d": 2198.2742499999877,
      "v": 73
    },
    {
      "midi": 52,
      "hit": false,
      "t": 86896.48799999988,
      "d": 1594.8264166666631,
      "v": 70
    },
    {
      "midi": 64,
      "hit": false,
      "t": 87025.79824999986,
      "d": 2887.9289166666713,
      "v": 60
    },
    {
      "midi": 71,
      "hit": false,
      "t": 87844.76316666647,
      "d": 344.82733333333454,
      "v": 68
    },
    {
      "midi": 67,
      "hit": false,
      "t": 87844.76316666647,
      "d": 431.03416666666453,
      "v": 73
    },
    {
      "midi": 59,
      "hit": false,
      "t": 87844.76316666647,
      "d": 1249.9990833333286,
      "v": 71
    },
    {
      "midi": 64,
      "hit": false,
      "t": 87930.9699999998,
      "d": 1206.8956666666636,
      "v": 81
    },
    {
      "midi": 76,
      "hit": false,
      "t": 87930.9699999998,
      "d": 1206.8956666666636,
      "v": 63
    },
    {
      "midi": 71,
      "hit": false,
      "t": 88232.69391666647,
      "d": 905.1717499999941,
      "v": 65
    },
    {
      "midi": 67,
      "hit": false,
      "t": 88577.5212499998,
      "d": 517.2409999999945,
      "v": 81
    },
    {
      "midi": 52,
      "hit": false,
      "t": 88620.62466666654,
      "d": 258.62050000000454,
      "v": 63
    },
    {
      "midi": 74,
      "hit": false,
      "t": 88965.4519999998,
      "d": 905.1717499999941,
      "v": 80
    },
    {
      "midi": 69,
      "hit": false,
      "t": 88965.4519999998,
      "d": 948.2751666666591,
      "v": 74
    },
    {
      "midi": 62,
      "hit": false,
      "t": 88965.4519999998,
      "d": 1034.481999999989,
      "v": 83
    },
    {
      "midi": 78,
      "hit": false,
      "t": 88965.4519999998,
      "d": 1077.585416666654,
      "v": 77
    },
    {
      "midi": 57,
      "hit": false,
      "t": 88965.4519999998,
      "d": 2241.3776666666527,
      "v": 80
    },
    {
      "midi": 50,
      "hit": false,
      "t": 88965.45199999987,
      "d": 1594.8264166666631,
      "v": 68
    },
    {
      "midi": 74,
      "hit": false,
      "t": 89870.6237499998,
      "d": 431.03416666666453,
      "v": 74
    },
    {
      "midi": 69,
      "hit": false,
      "t": 89913.72716666646,
      "d": 431.03416666666453,
      "v": 78
    },
    {
      "midi": 62,
      "hit": false,
      "t": 89999.93399999979,
      "d": 1206.8956666666636,
      "v": 80
    },
    {
      "midi": 62,
      "hit": false,
      "t": 89999.93399999986,
      "d": 129.310249999995,
      "v": 80
    },
    {
      "midi": 78,
      "hit": false,
      "t": 90043.03741666646,
      "d": 1163.7922499999986,
      "v": 92
    },
    {
      "midi": 64,
      "hit": false,
      "t": 90129.24424999986,
      "d": 172.41366666666,
      "v": 88
    },
    {
      "midi": 74,
      "hit": false,
      "t": 90301.65791666646,
      "d": 948.2751666666591,
      "v": 80
    },
    {
      "midi": 66,
      "hit": false,
      "t": 90301.65791666652,
      "d": 86.20683333333,
      "v": 76
    },
    {
      "midi": 67,
      "hit": false,
      "t": 90387.86474999985,
      "d": 215.517083333325,
      "v": 85
    },
    {
      "midi": 66,
      "hit": false,
      "t": 90560.27841666651,
      "d": 86.20683333333,
      "v": 100
    },
    {
      "midi": 69,
      "hit": false,
      "t": 90646.4852499998,
      "d": 560.3444166666595,
      "v": 89
    },
    {
      "midi": 62,
      "hit": false,
      "t": 90689.5886666665,
      "d": 215.51708333333954,
      "v": 81
    },
    {
      "midi": 50,
      "hit": false,
      "t": 90689.58866666653,
      "d": 301.72391666666954,
      "v": 63
    },
    {
      "midi": 60,
      "hit": false,
      "t": 90948.20916666651,
      "d": 2112.0674166666577,
      "v": 56
    },
    {
      "midi": 67,
      "hit": false,
      "t": 91034.4159999998,
      "d": 905.1717499999941,
      "v": 80
    },
    {
      "midi": 60,
      "hit": false,
      "t": 91034.4159999998,
      "d": 948.2751666666591,
      "v": 71
    },
    {
      "midi": 64,
      "hit": false,
      "t": 91034.4159999998,
      "d": 948.2751666666591,
      "v": 79
    },
    {
      "midi": 76,
      "hit": false,
      "t": 91034.4159999998,
      "d": 948.2751666666591,
      "v": 76
    },
    {
      "midi": 72,
      "hit": false,
      "t": 91034.4159999998,
      "d": 1293.1024999999936,
      "v": 80
    },
    {
      "midi": 48,
      "hit": false,
      "t": 91034.41599999987,
      "d": 1551.7229999999981,
      "v": 84
    },
    {
      "midi": 67,
      "hit": false,
      "t": 91939.58774999979,
      "d": 431.03416666666453,
      "v": 72
    },
    {
      "midi": 60,
      "hit": false,
      "t": 91982.69116666645,
      "d": 1163.7922499999986,
      "v": 71
    },
    {
      "midi": 64,
      "hit": false,
      "t": 91982.69116666645,
      "d": 1163.7922499999986,
      "v": 67
    },
    {
      "midi": 76,
      "hit": false,
      "t": 91982.69116666645,
      "d": 1336.2059166666586,
      "v": 66
    },
    {
      "midi": 72,
      "hit": false,
      "t": 92370.62191666645,
      "d": 948.2751666666591,
      "v": 80
    },
    {
      "midi": 67,
      "hit": false,
      "t": 92715.44924999979,
      "d": 301.72391666666954,
      "v": 89
    },
    {
      "midi": 48,
      "hit": false,
      "t": 92758.55266666652,
      "d": 301.72391666666954,
      "v": 69
    },
    {
      "midi": 62,
      "hit": false,
      "t": 93017.17316666646,
      "d": 991.3785833333241,
      "v": 79
    },
    {
      "midi": 71,
      "hit": false,
      "t": 93017.17316666646,
      "d": 1034.481999999989,
      "v": 79
    },
    {
      "midi": 74,
      "hit": false,
      "t": 93017.17316666646,
      "d": 1034.481999999989,
      "v": 80
    },
    {
      "midi": 55,
      "hit": false,
      "t": 93017.17316666646,
      "d": 1120.688833333319,
      "v": 76
    },
    {
      "midi": 67,
      "hit": false,
      "t": 93017.17316666646,
      "d": 1120.688833333319,
      "v": 78
    },
    {
      "midi": 79,
      "hit": false,
      "t": 93017.17316666646,
      "d": 1120.688833333319,
      "v": 74
    },
    {
      "midi": 59,
      "hit": false,
      "t": 93017.1731666665,
      "d": 2068.9639999999927,
      "v": 78
    },
    {
      "midi": 55,
      "hit": false,
      "t": 93103.37999999986,
      "d": 1637.9298333333281,
      "v": 85
    },
    {
      "midi": 62,
      "hit": false,
      "t": 94008.55174999978,
      "d": 1293.1024999999936,
      "v": 78
    },
    {
      "midi": 74,
      "hit": false,
      "t": 94051.65516666645,
      "d": 387.93074999999953,
      "v": 74
    },
    {
      "midi": 71,
      "hit": false,
      "t": 94051.65516666645,
      "d": 431.03416666666453,
      "v": 72
    },
    {
      "midi": 55,
      "hit": false,
      "t": 94137.86199999978,
      "d": 1163.7922499999986,
      "v": 65
    },
    {
      "midi": 67,
      "hit": false,
      "t": 94137.86199999978,
      "d": 1206.8956666666636,
      "v": 82
    },
    {
      "midi": 79,
      "hit": false,
      "t": 94137.86199999978,
      "d": 1336.2059166666586,
      "v": 75
    },
    {
      "midi": 74,
      "hit": false,
      "t": 94439.58591666644,
      "d": 991.3785833333241,
      "v": 92
    },
    {
      "midi": 71,
      "hit": false,
      "t": 94784.41324999978,
      "d": 646.5512499999895,
      "v": 89
    },
    {
      "midi": 55,
      "hit": false,
      "t": 94827.51666666652,
      "d": 301.72391666666954,
      "v": 72
    },
    {
      "midi": 57,
      "hit": false,
      "t": 95086.13716666649,
      "d": 2068.9639999999927,
      "v": 65
    },
    {
      "midi": 72,
      "hit": false,
      "t": 95172.34399999978,
      "d": 905.1717499999941,
      "v": 78
    },
    {
      "midi": 60,
      "hit": false,
      "t": 95172.34399999978,
      "d": 948.2751666666591,
      "v": 80
    },
    {
      "midi": 69,
      "hit": false,
      "t": 95172.34399999978,
      "d": 948.2751666666591,
      "v": 71
    },
    {
      "midi": 53,
      "hit": false,
      "t": 95172.34399999978,
      "d": 1034.481999999989,
      "v": 77
    },
    {
      "midi": 65,
      "hit": false,
      "t": 95172.34399999978,
      "d": 1034.481999999989,
      "v": 81
    },
    {
      "midi": 77,
      "hit": false,
      "t": 95172.34399999978,
      "d": 1034.481999999989,
      "v": 73
    },
    {
      "midi": 53,
      "hit": false,
      "t": 95172.34399999985,
      "d": 1551.7229999999981,
      "v": 74
    },
    {
      "midi": 72,
      "hit": false,
      "t": 96077.51574999977,
      "d": 387.93074999999953,
      "v": 47
    },
    {
      "midi": 69,
      "hit": false,
      "t": 96120.61916666644,
      "d": 431.03416666666453,
      "v": 73
    },
    {
      "midi": 60,
      "hit": false,
      "t": 96120.61916666644,
      "d": 1249.9990833333286,
      "v": 68
    },
    {
      "midi": 53,
      "hit": false,
      "t": 96206.82599999977,
      "d": 1120.6888333333336,
      "v": 62
    },
    {
      "midi": 65,
      "hit": false,
      "t": 96206.82599999977,
      "d": 1163.7922499999986,
      "v": 87
    },
    {
      "midi": 77,
      "hit": false,
      "t": 96206.82599999977,
      "d": 1293.1024999999936,
      "v": 77
    },
    {
      "midi": 72,
      "hit": false,
      "t": 96594.75674999977,
      "d": 905.1717499999941,
      "v": 99
    },
    {
      "midi": 69,
      "hit": false,
      "t": 96896.48066666644,
      "d": 603.4478333333245,
      "v": 87
    },
    {
      "midi": 53,
      "hit": false,
      "t": 96896.48066666651,
      "d": 301.72391666666954,
      "v": 70
    },
    {
      "midi": 55,
      "hit": false,
      "t": 97198.20458333315,
      "d": 1939.6537499999977,
      "v": 77
    },
    {
      "midi": 67,
      "hit": false,
      "t": 97241.30799999977,
      "d": 905.1717499999941,
      "v": 77
    },
    {
      "midi": 59,
      "hit": false,
      "t": 97241.30799999977,
      "d": 948.2751666666591,
      "v": 79
    },
    {
      "midi": 71,
      "hit": false,
      "t": 97241.30799999977,
      "d": 948.2751666666591,
      "v": 79
    },
    {
      "midi": 76,
      "hit": false,
      "t": 97241.30799999977,
      "d": 948.2751666666591,
      "v": 74
    },
    {
      "midi": 52,
      "hit": false,
      "t": 97241.30799999977,
      "d": 1034.481999999989,
      "v": 76
    },
    {
      "midi": 64,
      "hit": false,
      "t": 97241.30799999977,
      "d": 1034.481999999989,
      "v": 82
    },
    {
      "midi": 52,
      "hit": false,
      "t": 97241.30799999984,
      "d": 1637.9298333333281,
      "v": 79
    },
    {
      "midi": 67,
      "hit": false,
      "t": 98146.47974999977,
      "d": 387.93074999999953,
      "v": 66
    },
    {
      "midi": 71,
      "hit": false,
      "t": 98189.58316666643,
      "d": 301.72391666666954,
      "v": 61
    },
    {
      "midi": 76,
      "hit": false,
      "t": 98189.58316666643,
      "d": 1120.6888333333336,
      "v": 72
    },
    {
      "midi": 59,
      "hit": false,
      "t": 98189.58316666643,
      "d": 1982.7571666666627,
      "v": 70
    },
    {
      "midi": 64,
      "hit": false,
      "t": 98275.78999999976,
      "d": 1034.4820000000036,
      "v": 79
    },
    {
      "midi": 52,
      "hit": false,
      "t": 98275.78999999976,
      "d": 1939.6537499999977,
      "v": 39
    },
    {
      "midi": 71,
      "hit": false,
      "t": 98577.51391666643,
      "d": 1594.8264166666631,
      "v": 83
    },
    {
      "midi": 67,
      "hit": false,
      "t": 98922.34124999976,
      "d": 1249.9990833333286,
      "v": 80
    },
    {
      "midi": 57,
      "hit": false,
      "t": 99310.27199999976,
      "d": 905.1717499999941,
      "v": 78
    },
    {
      "midi": 69,
      "hit": false,
      "t": 99310.27199999976,
      "d": 905.1717499999941,
      "v": 79
    },
    {
      "midi": 76,
      "hit": false,
      "t": 99310.27199999976,
      "d": 905.1717499999941,
      "v": 89
    },
    {
      "midi": 64,
      "hit": false,
      "t": 99310.27199999976,
      "d": 948.2751666666591,
      "v": 92
    },
    {
      "midi": 73,
      "hit": false,
      "t": 99310.27199999976,
      "d": 991.3785833333241,
      "v": 94
    },
    {
      "midi": 45,
      "hit": false,
      "t": 99310.27199999981,
      "d": 2025.8605833333277,
      "v": 112
    },
    {
      "midi": 45,
      "hit": false,
      "t": 99310.27199999984,
      "d": 948.2751666666736,
      "v": 69
    },
    {
      "midi": 57,
      "hit": false,
      "t": 100258.54716666642,
      "d": 905.1717499999941,
      "v": 81
    },
    {
      "midi": 64,
      "hit": false,
      "t": 100258.54716666642,
      "d": 905.1717499999941,
      "v": 76
    },
    {
      "midi": 69,
      "hit": false,
      "t": 100258.54716666642,
      "d": 948.2751666666591,
      "v": 75
    },
    {
      "midi": 76,
      "hit": false,
      "t": 100344.75399999975,
      "d": 905.1717499999941,
      "v": 77
    },
    {
      "midi": 73,
      "hit": false,
      "t": 100344.75399999975,
      "d": 1034.481999999989,
      "v": 74
    },
    {
      "midi": 57,
      "hit": false,
      "t": 100344.75399999981,
      "d": 905.1717499999941,
      "v": 112
    },
    {
      "midi": 45,
      "hit": false,
      "t": 100344.75399999984,
      "d": 905.1717499999941,
      "v": 69
    },
    {
      "midi": 57,
      "hit": false,
      "t": 101249.92574999975,
      "d": 905.1717499999941,
      "v": 78
    },
    {
      "midi": 64,
      "hit": false,
      "t": 101293.02916666641,
      "d": 905.1717499999941,
      "v": 94
    },
    {
      "midi": 69,
      "hit": false,
      "t": 101379.23599999974,
      "d": 862.0683333333291,
      "v": 68
    },
    {
      "midi": 76,
      "hit": false,
      "t": 101379.23599999974,
      "d": 862.0683333333291,
      "v": 99
    },
    {
      "midi": 73,
      "hit": false,
      "t": 101379.23599999974,
      "d": 948.2751666666591,
      "v": 79
    },
    {
      "midi": 64,
      "hit": false,
      "t": 101379.2359999998,
      "d": 948.2751666666591,
      "v": 103
    },
    {
      "midi": 57,
      "hit": false,
      "t": 101379.2359999998,
      "d": 1681.0332499999931,
      "v": 104
    },
    {
      "midi": 45,
      "hit": false,
      "t": 101379.2359999998,
      "d": 1767.2400833333231,
      "v": 72
    },
    {
      "midi": 61,
      "hit": false,
      "t": 101379.2359999998,
      "d": 2068.9639999999927,
      "v": 101
    },
    {
      "midi": 45,
      "hit": false,
      "t": 101379.23599999983,
      "d": 905.1717499999941,
      "v": 69
    },
    {
      "midi": 57,
      "hit": false,
      "t": 102284.40774999974,
      "d": 775.8614999999991,
      "v": 79
    },
    {
      "midi": 64,
      "hit": false,
      "t": 102327.5111666664,
      "d": 732.7580833333341,
      "v": 92
    },
    {
      "midi": 69,
      "hit": false,
      "t": 102413.71799999973,
      "d": 646.5512500000041,
      "v": 76
    },
    {
      "midi": 73,
      "hit": false,
      "t": 102413.71799999973,
      "d": 646.5512500000041,
      "v": 85
    },
    {
      "midi": 76,
      "hit": false,
      "t": 102413.71799999973,
      "d": 646.5512500000041,
      "v": 104
    },
    {
      "midi": 64,
      "hit": false,
      "t": 102413.71799999979,
      "d": 991.3785833333386,
      "v": 99
    },
    {
      "midi": 69,
      "hit": false,
      "t": 102413.71799999979,
      "d": 991.3785833333386,
      "v": 99
    },
    {
      "midi": 45,
      "hit": false,
      "t": 102413.71799999982,
      "d": 258.62050000000454,
      "v": 62
    },
    {
      "midi": 45,
      "hit": false,
      "t": 102758.54533333315,
      "d": 301.72391666666954,
      "v": 64
    },
    {
      "midi": 57,
      "hit": false,
      "t": 103060.26924999974,
      "d": 387.93074999999953,
      "v": 65
    },
    {
      "midi": 64,
      "hit": false,
      "t": 103060.26924999974,
      "d": 387.93074999999953,
      "v": 85
    },
    {
      "midi": 73,
      "hit": false,
      "t": 103060.26924999974,
      "d": 387.93074999999953,
      "v": 82
    },
    {
      "midi": 76,
      "hit": false,
      "t": 103060.26924999974,
      "d": 387.93074999999953,
      "v": 85
    },
    {
      "midi": 69,
      "hit": false,
      "t": 103103.3726666664,
      "d": 387.93074999999953,
      "v": 81
    },
    {
      "midi": 47,
      "hit": false,
      "t": 103103.37266666649,
      "d": 301.72391666666954,
      "v": 62
    },
    {
      "midi": 60,
      "hit": false,
      "t": 103448.19999999974,
      "d": 818.9649166666641,
      "v": 78
    },
    {
      "midi": 64,
      "hit": false,
      "t": 103448.19999999974,
      "d": 862.0683333333291,
      "v": 81
    },
    {
      "midi": 67,
      "hit": false,
      "t": 103448.19999999974,
      "d": 862.0683333333291,
      "v": 80
    },
    {
      "midi": 76,
      "hit": false,
      "t": 103448.19999999974,
      "d": 862.0683333333291,
      "v": 79
    },
    {
      "midi": 72,
      "hit": false,
      "t": 103448.19999999974,
      "d": 948.2751666666591,
      "v": 79
    },
    {
      "midi": 36,
      "hit": false,
      "t": 103448.1999999998,
      "d": 3836.204083333345,
      "v": 109
    },
    {
      "midi": 48,
      "hit": false,
      "t": 103448.1999999998,
      "d": 3879.30750000001,
      "v": 119
    },
    {
      "midi": 48,
      "hit": false,
      "t": 103448.19999999982,
      "d": 905.1717499999941,
      "v": 70
    },
    {
      "midi": 36,
      "hit": false,
      "t": 103448.2,
      "d": 3663.7904166666704,
      "v": 61
    },
    {
      "midi": 48,
      "hit": false,
      "t": 103448.2,
      "d": 3663.7904166666704,
      "v": 72
    },
    {
      "midi": 60,
      "hit": false,
      "t": 103448.2,
      "d": 3706.8938333333354,
      "v": 60
    },
    {
      "midi": 64,
      "hit": false,
      "t": 103448.2,
      "d": 3706.8938333333354,
      "v": 74
    },
    {
      "midi": 67,
      "hit": false,
      "t": 103448.2,
      "d": 3706.8938333333354,
      "v": 59
    },
    {
      "midi": 60,
      "hit": false,
      "t": 104353.37174999973,
      "d": 905.1717499999941,
      "v": 80
    },
    {
      "midi": 64,
      "hit": false,
      "t": 104396.4751666664,
      "d": 905.1717499999941,
      "v": 87
    },
    {
      "midi": 67,
      "hit": false,
      "t": 104396.4751666664,
      "d": 948.2751666666591,
      "v": 71
    },
    {
      "midi": 76,
      "hit": false,
      "t": 104482.68199999972,
      "d": 862.0683333333291,
      "v": 92
    },
    {
      "midi": 72,
      "hit": false,
      "t": 104482.68199999972,
      "d": 905.1717499999941,
      "v": 79
    },
    {
      "midi": 52,
      "hit": false,
      "t": 104482.6819999998,
      "d": 1594.8264166666777,
      "v": 107
    },
    {
      "midi": 55,
      "hit": false,
      "t": 104482.6819999998,
      "d": 1594.8264166666777,
      "v": 109
    },
    {
      "midi": 48,
      "hit": false,
      "t": 104482.68199999981,
      "d": 905.1717499999941,
      "v": 68
    },
    {
      "midi": 60,
      "hit": false,
      "t": 105301.64691666639,
      "d": 948.2751666666591,
      "v": 92
    },
    {
      "midi": 76,
      "hit": false,
      "t": 105430.95716666638,
      "d": 862.0683333333291,
      "v": 95
    },
    {
      "midi": 67,
      "hit": false,
      "t": 105430.95716666638,
      "d": 905.1717499999941,
      "v": 71
    },
    {
      "midi": 64,
      "hit": false,
      "t": 105430.95716666638,
      "d": 948.2751666666591,
      "v": 84
    },
    {
      "midi": 72,
      "hit": false,
      "t": 105430.95716666638,
      "d": 948.2751666666591,
      "v": 78
    },
    {
      "midi": 48,
      "hit": false,
      "t": 105517.1639999998,
      "d": 905.1717499999941,
      "v": 64
    },
    {
      "midi": 60,
      "hit": false,
      "t": 105517.1639999998,
      "d": 603.4478333333391,
      "v": 107
    },
    {
      "midi": 72,
      "hit": false,
      "t": 106422.33574999971,
      "d": 301.723916666655,
      "v": 78
    },
    {
      "midi": 60,
      "hit": false,
      "t": 106422.33574999971,
      "d": 732.7580833333195,
      "v": 74
    },
    {
      "midi": 67,
      "hit": false,
      "t": 106422.33574999971,
      "d": 732.7580833333195,
      "v": 70
    },
    {
      "midi": 76,
      "hit": false,
      "t": 106422.33574999971,
      "d": 732.7580833333195,
      "v": 74
    },
    {
      "midi": 64,
      "hit": false,
      "t": 106551.6459999997,
      "d": 646.5512499999895,
      "v": 95
    },
    {
      "midi": 48,
      "hit": false,
      "t": 106551.64599999979,
      "d": 646.5512500000041,
      "v": 64
    },
    {
      "midi": 72,
      "hit": false,
      "t": 106551.6459999998,
      "d": 862.0683333333291,
      "v": 119
    },
    {
      "midi": 72,
      "hit": false,
      "t": 106810.26649999969,
      "d": 431.03416666666453,
      "v": 33
    },
    {
      "midi": 60,
      "hit": false,
      "t": 107241.30066666636,
      "d": 344.82733333333454,
      "v": 80
    },
    {
      "midi": 64,
      "hit": false,
      "t": 107241.30066666636,
      "d": 344.82733333333454,
      "v": 94
    },
    {
      "midi": 67,
      "hit": false,
      "t": 107241.30066666636,
      "d": 344.82733333333454,
      "v": 82
    },
    {
      "midi": 72,
      "hit": false,
      "t": 107241.30066666636,
      "d": 344.82733333333454,
      "v": 94
    },
    {
      "midi": 76,
      "hit": false,
      "t": 107241.30066666636,
      "d": 344.82733333333454,
      "v": 85
    },
    {
      "midi": 50,
      "hit": false,
      "t": 107241.30066666646,
      "d": 258.62050000000454,
      "v": 71
    },
    {
      "midi": 52,
      "hit": false,
      "t": 107586.12799999969,
      "d": 387.93074999999953,
      "v": 73
    },
    {
      "midi": 52,
      "hit": false,
      "t": 107586.1279999998,
      "d": 215.51708333333954,
      "v": 68
    },
    {
      "midi": 55,
      "hit": false,
      "t": 107586.1279999998,
      "d": 1810.3435000000027,
      "v": 92
    },
    {
      "midi": 64,
      "hit": false,
      "t": 107586.1279999998,
      "d": 1853.4469166666677,
      "v": 90
    },
    {
      "midi": 40,
      "hit": false,
      "t": 107586.1279999998,
      "d": 1896.5503333333327,
      "v": 104
    },
    {
      "midi": 52,
      "hit": false,
      "t": 107586.1279999998,
      "d": 1896.5503333333327,
      "v": 124
    },
    {
      "midi": 64,
      "hit": false,
      "t": 107586.128,
      "d": 2198.274250000002,
      "v": 62
    },
    {
      "midi": 67,
      "hit": false,
      "t": 107586.128,
      "d": 2198.274250000002,
      "v": 72
    },
    {
      "midi": 71,
      "hit": false,
      "t": 107586.128,
      "d": 2198.274250000002,
      "v": 64
    },
    {
      "midi": 40,
      "hit": false,
      "t": 107586.128,
      "d": 2241.377666666667,
      "v": 62
    },
    {
      "midi": 52,
      "hit": false,
      "t": 107586.128,
      "d": 2241.377666666667,
      "v": 65
    },
    {
      "midi": 76,
      "hit": false,
      "t": 107586.128,
      "d": 3060.3425833333313,
      "v": 104
    },
    {
      "midi": 59,
      "hit": false,
      "t": 107629.23141666636,
      "d": 344.82733333333454,
      "v": 79
    },
    {
      "midi": 64,
      "hit": false,
      "t": 107629.23141666636,
      "d": 344.82733333333454,
      "v": 78
    },
    {
      "midi": 67,
      "hit": false,
      "t": 107629.23141666636,
      "d": 344.82733333333454,
      "v": 70
    },
    {
      "midi": 71,
      "hit": false,
      "t": 107629.23141666636,
      "d": 344.82733333333454,
      "v": 76
    },
    {
      "midi": 76,
      "hit": false,
      "t": 107629.23141666636,
      "d": 344.82733333333454,
      "v": 74
    },
    {
      "midi": 52,
      "hit": false,
      "t": 107930.95533333313,
      "d": 172.41366666666,
      "v": 62
    },
    {
      "midi": 52,
      "hit": false,
      "t": 107974.05874999969,
      "d": 301.72391666666954,
      "v": 50
    },
    {
      "midi": 59,
      "hit": false,
      "t": 107974.05874999969,
      "d": 301.72391666666954,
      "v": 63
    },
    {
      "midi": 64,
      "hit": false,
      "t": 107974.05874999969,
      "d": 301.72391666666954,
      "v": 65
    },
    {
      "midi": 67,
      "hit": false,
      "t": 107974.05874999969,
      "d": 301.72391666666954,
      "v": 61
    },
    {
      "midi": 71,
      "hit": false,
      "t": 107974.05874999969,
      "d": 301.72391666666954,
      "v": 69
    },
    {
      "midi": 76,
      "hit": false,
      "t": 107974.05874999969,
      "d": 301.72391666666954,
      "v": 61
    },
    {
      "midi": 52,
      "hit": false,
      "t": 108275.78266666636,
      "d": 344.82733333333454,
      "v": 57
    },
    {
      "midi": 59,
      "hit": false,
      "t": 108275.78266666636,
      "d": 344.82733333333454,
      "v": 68
    },
    {
      "midi": 64,
      "hit": false,
      "t": 108275.78266666636,
      "d": 344.82733333333454,
      "v": 67
    },
    {
      "midi": 67,
      "hit": false,
      "t": 108275.78266666636,
      "d": 344.82733333333454,
      "v": 61
    },
    {
      "midi": 71,
      "hit": false,
      "t": 108275.78266666636,
      "d": 344.82733333333454,
      "v": 69
    },
    {
      "midi": 76,
      "hit": false,
      "t": 108275.78266666636,
      "d": 344.82733333333454,
      "v": 63
    },
    {
      "midi": 52,
      "hit": false,
      "t": 108275.78266666645,
      "d": 172.41366666666,
      "v": 68
    },
    {
      "midi": 64,
      "hit": false,
      "t": 108620.6099999997,
      "d": 301.72391666666954,
      "v": 78
    },
    {
      "midi": 67,
      "hit": false,
      "t": 108620.6099999997,
      "d": 301.72391666666954,
      "v": 78
    },
    {
      "midi": 71,
      "hit": false,
      "t": 108620.6099999997,
      "d": 301.72391666666954,
      "v": 81
    },
    {
      "midi": 76,
      "hit": false,
      "t": 108620.6099999997,
      "d": 301.72391666666954,
      "v": 78
    },
    {
      "midi": 52,
      "hit": false,
      "t": 108620.6099999997,
      "d": 387.93074999999953,
      "v": 77
    },
    {
      "midi": 59,
      "hit": false,
      "t": 108620.6099999997,
      "d": 387.93074999999953,
      "v": 79
    },
    {
      "midi": 52,
      "hit": false,
      "t": 108620.60999999977,
      "d": 172.41366666666,
      "v": 66
    },
    {
      "midi": 64,
      "hit": false,
      "t": 108922.33391666636,
      "d": 387.93074999999953,
      "v": 69
    },
    {
      "midi": 67,
      "hit": false,
      "t": 108922.33391666636,
      "d": 387.93074999999953,
      "v": 62
    },
    {
      "midi": 71,
      "hit": false,
      "t": 108922.33391666636,
      "d": 387.93074999999953,
      "v": 72
    },
    {
      "midi": 76,
      "hit": false,
      "t": 108922.33391666636,
      "d": 387.93074999999953,
      "v": 66
    },
    {
      "midi": 52,
      "hit": false,
      "t": 108965.43733333309,
      "d": 172.41366666666,
      "v": 64
    },
    {
      "midi": 52,
      "hit": false,
      "t": 109008.5407499997,
      "d": 301.72391666666954,
      "v": 64
    },
    {
      "midi": 59,
      "hit": false,
      "t": 109008.5407499997,
      "d": 301.72391666666954,
      "v": 72
    },
    {
      "midi": 52,
      "hit": false,
      "t": 109310.26466666636,
      "d": 344.82733333333454,
      "v": 67
    },
    {
      "midi": 59,
      "hit": false,
      "t": 109310.26466666636,
      "d": 344.82733333333454,
      "v": 69
    },
    {
      "midi": 64,
      "hit": false,
      "t": 109310.26466666636,
      "d": 344.82733333333454,
      "v": 70
    },
    {
      "midi": 67,
      "hit": false,
      "t": 109310.26466666636,
      "d": 344.82733333333454,
      "v": 67
    },
    {
      "midi": 71,
      "hit": false,
      "t": 109310.26466666636,
      "d": 344.82733333333454,
      "v": 73
    },
    {
      "midi": 76,
      "hit": false,
      "t": 109310.26466666636,
      "d": 344.82733333333454,
      "v": 67
    },
    {
      "midi": 52,
      "hit": false,
      "t": 109310.26466666641,
      "d": 215.51708333333954,
      "v": 63
    },
    {
      "midi": 59,
      "hit": false,
      "t": 109655.0919999997,
      "d": 474.13758333332953,
      "v": 73
    },
    {
      "midi": 67,
      "hit": false,
      "t": 109655.0919999997,
      "d": 474.13758333332953,
      "v": 74
    },
    {
      "midi": 71,
      "hit": false,
      "t": 109655.0919999997,
      "d": 474.13758333332953,
      "v": 78
    },
    {
      "midi": 76,
      "hit": false,
      "t": 109655.0919999997,
      "d": 474.13758333332953,
      "v": 73
    },
    {
      "midi": 52,
      "hit": false,
      "t": 109655.0919999997,
      "d": 517.2409999999945,
      "v": 73
    },
    {
      "midi": 64,
      "hit": false,
      "t": 109655.0919999997,
      "d": 517.2409999999945,
      "v": 79
    },
    {
      "midi": 52,
      "hit": false,
      "t": 109655.09199999974,
      "d": 301.72391666666954,
      "v": 66
    },
    {
      "midi": 69,
      "hit": false,
      "t": 109655.09199999979,
      "d": 43.103416666665,
      "v": 99
    },
    {
      "midi": 38,
      "hit": false,
      "t": 109655.09199999979,
      "d": 1896.5503333333327,
      "v": 105
    },
    {
      "midi": 50,
      "hit": false,
      "t": 109655.09199999979,
      "d": 1896.5503333333327,
      "v": 99
    },
    {
      "midi": 62,
      "hit": false,
      "t": 109655.09199999979,
      "d": 1896.5503333333327,
      "v": 89
    },
    {
      "midi": 66,
      "hit": false,
      "t": 109655.09199999979,
      "d": 1939.6537499999977,
      "v": 103
    },
    {
      "midi": 38,
      "hit": false,
      "t": 109655.092,
      "d": 2025.8605833333277,
      "v": 60
    },
    {
      "midi": 50,
      "hit": false,
      "t": 109655.092,
      "d": 2068.9639999999927,
      "v": 69
    },
    {
      "midi": 62,
      "hit": false,
      "t": 109655.092,
      "d": 2068.9639999999927,
      "v": 59
    },
    {
      "midi": 66,
      "hit": false,
      "t": 109655.092,
      "d": 2068.9639999999927,
      "v": 64
    },
    {
      "midi": 69,
      "hit": false,
      "t": 109655.092,
      "d": 2068.9639999999927,
      "v": 59
    },
    {
      "midi": 74,
      "hit": false,
      "t": 109956.81591666637,
      "d": 344.82733333332,
      "v": 75
    },
    {
      "midi": 57,
      "hit": false,
      "t": 109956.81591666637,
      "d": 387.930749999985,
      "v": 76
    },
    {
      "midi": 62,
      "hit": false,
      "t": 109956.81591666637,
      "d": 387.930749999985,
      "v": 73
    },
    {
      "midi": 69,
      "hit": false,
      "t": 109956.81591666637,
      "d": 387.930749999985,
      "v": 65
    },
    {
      "midi": 78,
      "hit": false,
      "t": 109956.81591666637,
      "d": 387.930749999985,
      "v": 72
    },
    {
      "midi": 50,
      "hit": false,
      "t": 109999.91933333308,
      "d": 258.62050000000454,
      "v": 69
    },
    {
      "midi": 69,
      "hit": false,
      "t": 109999.91933333312,
      "d": 1724.1366666666581,
      "v": 51
    },
    {
      "midi": 74,
      "hit": false,
      "t": 110301.64324999969,
      "d": 387.93074999999953,
      "v": 78
    },
    {
      "midi": 57,
      "hit": false,
      "t": 110344.74666666635,
      "d": 344.82733333333454,
      "v": 71
    },
    {
      "midi": 62,
      "hit": false,
      "t": 110344.74666666635,
      "d": 344.82733333333454,
      "v": 68
    },
    {
      "midi": 69,
      "hit": false,
      "t": 110344.74666666635,
      "d": 344.82733333333454,
      "v": 69
    },
    {
      "midi": 78,
      "hit": false,
      "t": 110344.74666666635,
      "d": 344.82733333333454,
      "v": 71
    },
    {
      "midi": 50,
      "hit": false,
      "t": 110344.74666666641,
      "d": 215.51708333333954,
      "v": 67
    },
    {
      "midi": 57,
      "hit": false,
      "t": 110689.57399999969,
      "d": 301.72391666666954,
      "v": 79
    },
    {
      "midi": 62,
      "hit": false,
      "t": 110689.57399999969,
      "d": 301.72391666666954,
      "v": 74
    },
    {
      "midi": 69,
      "hit": false,
      "t": 110689.57399999969,
      "d": 301.72391666666954,
      "v": 76
    },
    {
      "midi": 74,
      "hit": false,
      "t": 110689.57399999969,
      "d": 301.72391666666954,
      "v": 85
    },
    {
      "midi": 78,
      "hit": false,
      "t": 110689.57399999969,
      "d": 301.72391666666954,
      "v": 79
    },
    {
      "midi": 50,
      "hit": false,
      "t": 110689.57399999975,
      "d": 258.62050000000454,
      "v": 66
    },
    {
      "midi": 74,
      "hit": false,
      "t": 110689.574,
      "d": 948.2751666666736,
      "v": 66
    },
    {
      "midi": 57,
      "hit": false,
      "t": 110991.29791666636,
      "d": 344.82733333333454,
      "v": 74
    },
    {
      "midi": 62,
      "hit": false,
      "t": 110991.29791666636,
      "d": 344.82733333333454,
      "v": 67
    },
    {
      "midi": 69,
      "hit": false,
      "t": 110991.29791666636,
      "d": 344.82733333333454,
      "v": 74
    },
    {
      "midi": 74,
      "hit": false,
      "t": 110991.29791666636,
      "d": 344.82733333333454,
      "v": 81
    },
    {
      "midi": 78,
      "hit": false,
      "t": 110991.29791666636,
      "d": 344.82733333333454,
      "v": 74
    },
    {
      "midi": 47,
      "hit": false,
      "t": 111034.40133333308,
      "d": 258.62050000000454,
      "v": 67
    },
    {
      "midi": 57,
      "hit": false,
      "t": 111336.12524999969,
      "d": 474.13758333332953,
      "v": 75
    },
    {
      "midi": 62,
      "hit": false,
      "t": 111336.12524999969,
      "d": 474.13758333332953,
      "v": 74
    },
    {
      "midi": 69,
      "hit": false,
      "t": 111336.12524999969,
      "d": 474.13758333332953,
      "v": 76
    },
    {
      "midi": 74,
      "hit": false,
      "t": 111336.12524999969,
      "d": 474.13758333332953,
      "v": 77
    },
    {
      "midi": 78,
      "hit": false,
      "t": 111336.12524999969,
      "d": 474.13758333332953,
      "v": 73
    },
    {
      "midi": 50,
      "hit": false,
      "t": 111379.22866666641,
      "d": 301.72391666666954,
      "v": 75
    },
    {
      "midi": 71,
      "hit": false,
      "t": 111724.05599999969,
      "d": 301.72391666666954,
      "v": 79
    },
    {
      "midi": 59,
      "hit": false,
      "t": 111724.05599999969,
      "d": 387.93074999999953,
      "v": 80
    },
    {
      "midi": 64,
      "hit": false,
      "t": 111724.05599999969,
      "d": 387.93074999999953,
      "v": 80
    },
    {
      "midi": 67,
      "hit": false,
      "t": 111724.05599999969,
      "d": 387.93074999999953,
      "v": 76
    },
    {
      "midi": 76,
      "hit": false,
      "t": 111724.05599999969,
      "d": 387.93074999999953,
      "v": 74
    },
    {
      "midi": 52,
      "hit": false,
      "t": 111724.05599999975,
      "d": 172.41366666666,
      "v": 68
    },
    {
      "midi": 52,
      "hit": false,
      "t": 111724.05599999978,
      "d": 1810.3435000000027,
      "v": 98
    },
    {
      "midi": 40,
      "hit": false,
      "t": 111724.05599999978,
      "d": 1853.4469166666677,
      "v": 101
    },
    {
      "midi": 67,
      "hit": false,
      "t": 111724.05599999978,
      "d": 1896.5503333333327,
      "v": 100
    },
    {
      "midi": 64,
      "hit": false,
      "t": 111724.05599999978,
      "d": 1939.6537499999977,
      "v": 100
    },
    {
      "midi": 40,
      "hit": false,
      "t": 111724.056,
      "d": 2025.8605833333277,
      "v": 51
    },
    {
      "midi": 52,
      "hit": false,
      "t": 111724.056,
      "d": 2025.8605833333277,
      "v": 53
    },
    {
      "midi": 64,
      "hit": false,
      "t": 111724.056,
      "d": 2025.8605833333277,
      "v": 52
    },
    {
      "midi": 67,
      "hit": false,
      "t": 111724.056,
      "d": 2025.8605833333277,
      "v": 51
    },
    {
      "midi": 71,
      "hit": false,
      "t": 111724.056,
      "d": 2025.8605833333277,
      "v": 51
    },
    {
      "midi": 76,
      "hit": false,
      "t": 111724.056,
      "d": 991.3785833333386,
      "v": 66
    },
    {
      "midi": 52,
      "hit": false,
      "t": 111767.15941666636,
      "d": 560.3444166666741,
      "v": 70
    },
    {
      "midi": 71,
      "hit": false,
      "t": 112025.77991666636,
      "d": 387.93074999999953,
      "v": 78
    },
    {
      "midi": 52,
      "hit": false,
      "t": 112068.88333333307,
      "d": 129.310249999995,
      "v": 64
    },
    {
      "midi": 59,
      "hit": false,
      "t": 112111.98674999969,
      "d": 301.72391666666954,
      "v": 65
    },
    {
      "midi": 64,
      "hit": false,
      "t": 112111.98674999969,
      "d": 301.72391666666954,
      "v": 70
    },
    {
      "midi": 67,
      "hit": false,
      "t": 112111.98674999969,
      "d": 301.72391666666954,
      "v": 71
    },
    {
      "midi": 76,
      "hit": false,
      "t": 112111.98674999969,
      "d": 301.72391666666954,
      "v": 71
    },
    {
      "midi": 52,
      "hit": false,
      "t": 112413.71066666636,
      "d": 344.82733333333454,
      "v": 71
    },
    {
      "midi": 59,
      "hit": false,
      "t": 112413.71066666636,
      "d": 344.82733333333454,
      "v": 75
    },
    {
      "midi": 64,
      "hit": false,
      "t": 112413.71066666636,
      "d": 344.82733333333454,
      "v": 78
    },
    {
      "midi": 67,
      "hit": false,
      "t": 112413.71066666636,
      "d": 344.82733333333454,
      "v": 72
    },
    {
      "midi": 71,
      "hit": false,
      "t": 112413.71066666636,
      "d": 344.82733333333454,
      "v": 78
    },
    {
      "midi": 76,
      "hit": false,
      "t": 112413.71066666636,
      "d": 344.82733333333454,
      "v": 71
    },
    {
      "midi": 52,
      "hit": false,
      "t": 112413.7106666664,
      "d": 129.310249999995,
      "v": 62
    },
    {
      "midi": 52,
      "hit": false,
      "t": 112758.5379999997,
      "d": 301.72391666666954,
      "v": 78
    },
    {
      "midi": 59,
      "hit": false,
      "t": 112758.5379999997,
      "d": 301.72391666666954,
      "v": 81
    },
    {
      "midi": 64,
      "hit": false,
      "t": 112758.5379999997,
      "d": 301.72391666666954,
      "v": 79
    },
    {
      "midi": 67,
      "hit": false,
      "t": 112758.5379999997,
      "d": 301.72391666666954,
      "v": 78
    },
    {
      "midi": 71,
      "hit": false,
      "t": 112758.5379999997,
      "d": 301.72391666666954,
      "v": 85
    },
    {
      "midi": 76,
      "hit": false,
      "t": 112758.5379999997,
      "d": 301.72391666666954,
      "v": 77
    },
    {
      "midi": 52,
      "hit": false,
      "t": 112758.53799999974,
      "d": 129.310249999995,
      "v": 63
    },
    {
      "midi": 76,
      "hit": false,
      "t": 112758.538,
      "d": 2068.964000000007,
      "v": 70
    },
    {
      "midi": 67,
      "hit": false,
      "t": 113060.26191666636,
      "d": 344.82733333333454,
      "v": 70
    },
    {
      "midi": 71,
      "hit": false,
      "t": 113060.26191666636,
      "d": 344.82733333333454,
      "v": 78
    },
    {
      "midi": 52,
      "hit": false,
      "t": 113060.26191666636,
      "d": 387.93074999999953,
      "v": 71
    },
    {
      "midi": 59,
      "hit": false,
      "t": 113060.26191666636,
      "d": 387.93074999999953,
      "v": 76
    },
    {
      "midi": 64,
      "hit": false,
      "t": 113060.26191666636,
      "d": 387.93074999999953,
      "v": 77
    },
    {
      "midi": 76,
      "hit": false,
      "t": 113060.26191666636,
      "d": 387.93074999999953,
      "v": 71
    },
    {
      "midi": 52,
      "hit": false,
      "t": 113103.36533333307,
      "d": 172.41366666666,
      "v": 63
    },
    {
      "midi": 67,
      "hit": false,
      "t": 113405.0892499997,
      "d": 474.13758333332953,
      "v": 78
    },
    {
      "midi": 71,
      "hit": false,
      "t": 113405.0892499997,
      "d": 474.13758333332953,
      "v": 82
    },
    {
      "midi": 59,
      "hit": false,
      "t": 113448.19266666636,
      "d": 474.13758333332953,
      "v": 73
    },
    {
      "midi": 64,
      "hit": false,
      "t": 113448.19266666636,
      "d": 474.13758333332953,
      "v": 80
    },
    {
      "midi": 76,
      "hit": false,
      "t": 113448.19266666636,
      "d": 474.13758333332953,
      "v": 77
    },
    {
      "midi": 52,
      "hit": false,
      "t": 113448.19266666636,
      "d": 517.2409999999945,
      "v": 70
    },
    {
      "midi": 52,
      "hit": false,
      "t": 113448.1926666664,
      "d": 258.62050000000454,
      "v": 62
    },
    {
      "midi": 69,
      "hit": false,
      "t": 113793.0199999997,
      "d": 301.723916666655,
      "v": 72
    },
    {
      "midi": 74,
      "hit": false,
      "t": 113793.0199999997,
      "d": 301.723916666655,
      "v": 79
    },
    {
      "midi": 78,
      "hit": false,
      "t": 113793.0199999997,
      "d": 301.723916666655,
      "v": 77
    },
    {
      "midi": 57,
      "hit": false,
      "t": 113793.0199999997,
      "d": 387.930749999985,
      "v": 83
    },
    {
      "midi": 62,
      "hit": false,
      "t": 113793.0199999997,
      "d": 387.930749999985,
      "v": 78
    },
    {
      "midi": 50,
      "hit": false,
      "t": 113793.01999999973,
      "d": 258.62050000000454,
      "v": 61
    },
    {
      "midi": 38,
      "hit": false,
      "t": 113793.01999999977,
      "d": 1939.6537499999977,
      "v": 102
    },
    {
      "midi": 50,
      "hit": false,
      "t": 113793.01999999977,
      "d": 1939.6537499999977,
      "v": 112
    },
    {
      "midi": 62,
      "hit": false,
      "t": 113793.01999999977,
      "d": 1939.6537499999977,
      "v": 95
    },
    {
      "midi": 69,
      "hit": false,
      "t": 113793.01999999977,
      "d": 1939.6537499999977,
      "v": 94
    },
    {
      "midi": 66,
      "hit": false,
      "t": 113793.01999999977,
      "d": 1982.7571666666627,
      "v": 100
    },
    {
      "midi": 66,
      "hit": false,
      "t": 113793.01999999999,
      "d": 2068.964000000007,
      "v": 40
    },
    {
      "midi": 69,
      "hit": false,
      "t": 113793.01999999999,
      "d": 2068.964000000007,
      "v": 48
    },
    {
      "midi": 38,
      "hit": false,
      "t": 113793.01999999999,
      "d": 2112.067416666672,
      "v": 50
    },
    {
      "midi": 50,
      "hit": false,
      "t": 113793.01999999999,
      "d": 2112.067416666672,
      "v": 50
    },
    {
      "midi": 62,
      "hit": false,
      "t": 113793.01999999999,
      "d": 2112.067416666672,
      "v": 44
    },
    {
      "midi": 69,
      "hit": false,
      "t": 114094.74391666635,
      "d": 387.93074999999953,
      "v": 72
    },
    {
      "midi": 74,
      "hit": false,
      "t": 114094.74391666635,
      "d": 387.93074999999953,
      "v": 80
    },
    {
      "midi": 78,
      "hit": false,
      "t": 114094.74391666635,
      "d": 387.93074999999953,
      "v": 76
    },
    {
      "midi": 50,
      "hit": false,
      "t": 114137.84733333306,
      "d": 215.51708333333954,
      "v": 61
    },
    {
      "midi": 57,
      "hit": false,
      "t": 114180.95074999968,
      "d": 301.72391666666954,
      "v": 75
    },
    {
      "midi": 62,
      "hit": false,
      "t": 114180.95074999968,
      "d": 301.72391666666954,
      "v": 67
    },
    {
      "midi": 57,
      "hit": false,
      "t": 114482.67466666635,
      "d": 344.82733333333454,
      "v": 80
    },
    {
      "midi": 62,
      "hit": false,
      "t": 114482.67466666635,
      "d": 344.82733333333454,
      "v": 73
    },
    {
      "midi": 69,
      "hit": false,
      "t": 114482.67466666635,
      "d": 344.82733333333454,
      "v": 79
    },
    {
      "midi": 74,
      "hit": false,
      "t": 114482.67466666635,
      "d": 344.82733333333454,
      "v": 89
    },
    {
      "midi": 78,
      "hit": false,
      "t": 114482.67466666635,
      "d": 344.82733333333454,
      "v": 83
    },
    {
      "midi": 50,
      "hit": false,
      "t": 114482.6746666664,
      "d": 172.41366666666,
      "v": 58
    },
    {
      "midi": 57,
      "hit": false,
      "t": 114827.50199999969,
      "d": 301.72391666666954,
      "v": 80
    },
    {
      "midi": 62,
      "hit": false,
      "t": 114827.50199999969,
      "d": 301.72391666666954,
      "v": 78
    },
    {
      "midi": 69,
      "hit": false,
      "t": 114827.50199999969,
      "d": 301.72391666666954,
      "v": 80
    },
    {
      "midi": 74,
      "hit": false,
      "t": 114827.50199999969,
      "d": 301.72391666666954,
      "v": 85
    },
    {
      "midi": 78,
      "hit": false,
      "t": 114827.50199999969,
      "d": 301.72391666666954,
      "v": 84
    },
    {
      "midi": 50,
      "hit": false,
      "t": 114827.50199999972,
      "d": 258.62050000000454,
      "v": 61
    },
    {
      "midi": 74,
      "hit": false,
      "t": 114827.50200000001,
      "d": 991.3785833333386,
      "v": 67
    },
    {
      "midi": 57,
      "hit": false,
      "t": 115129.22591666636,
      "d": 387.93074999999953,
      "v": 79
    },
    {
      "midi": 62,
      "hit": false,
      "t": 115129.22591666636,
      "d": 387.93074999999953,
      "v": 77
    },
    {
      "midi": 69,
      "hit": false,
      "t": 115129.22591666636,
      "d": 387.93074999999953,
      "v": 77
    },
    {
      "midi": 74,
      "hit": false,
      "t": 115129.22591666636,
      "d": 387.93074999999953,
      "v": 84
    },
    {
      "midi": 78,
      "hit": false,
      "t": 115129.22591666636,
      "d": 387.93074999999953,
      "v": 80
    },
    {
      "midi": 47,
      "hit": false,
      "t": 115172.32933333305,
      "d": 344.82733333333454,
      "v": 55
    },
    {
      "midi": 57,
      "hit": false,
      "t": 115517.15666666636,
      "d": 474.13758333332953,
      "v": 89
    },
    {
      "midi": 62,
      "hit": false,
      "t": 115517.15666666636,
      "d": 474.13758333332953,
      "v": 89
    },
    {
      "midi": 74,
      "hit": false,
      "t": 115517.15666666636,
      "d": 474.13758333332953,
      "v": 104
    },
    {
      "midi": 78,
      "hit": false,
      "t": 115517.15666666636,
      "d": 474.13758333332953,
      "v": 94
    },
    {
      "midi": 69,
      "hit": false,
      "t": 115517.15666666636,
      "d": 517.2409999999945,
      "v": 84
    },
    {
      "midi": 50,
      "hit": false,
      "t": 115517.15666666639,
      "d": 344.82733333333454,
      "v": 69
    },
    {
      "midi": 52,
      "hit": false,
      "t": 115861.98399999972,
      "d": 948.2751666666736,
      "v": 64
    },
    {
      "midi": 64,
      "hit": false,
      "t": 116896.46599999972,
      "d": 301.72391666666954,
      "v": 72
    },
    {
      "midi": 59,
      "hit": false,
      "t": 117241.29333333306,
      "d": 301.72391666666954,
      "v": 68
    },
    {
      "midi": 55,
      "hit": false,
      "t": 117586.1206666664,
      "d": 344.82733333333454,
      "v": 65
    },
    {
      "midi": 52,
      "hit": false,
      "t": 117930.94799999973,
      "d": 344.82733333333454,
      "v": 89
    },
    {
      "midi": 71,
      "hit": false,
      "t": 119698.18808333334,
      "d": 301.72391666666954,
      "v": 40
    },
    {
      "midi": 67,
      "hit": false,
      "t": 119999.91199999969,
      "d": 431.03416666665,
      "v": 80
    },
    {
      "midi": 52,
      "hit": false,
      "t": 119999.91199999969,
      "d": 1034.48199999996,
      "v": 72
    },
    {
      "midi": 59,
      "hit": false,
      "t": 119999.91199999969,
      "d": 1034.48199999996,
      "v": 79
    },
    {
      "midi": 64,
      "hit": false,
      "t": 119999.91199999969,
      "d": 1034.48199999996,
      "v": 87
    },
    {
      "midi": 64,
      "hit": false,
      "t": 119999.91199999976,
      "d": 1982.7571666666627,
      "v": 78
    },
    {
      "midi": 76,
      "hit": false,
      "t": 119999.91200000001,
      "d": 1379.3093333333381,
      "v": 61
    },
    {
      "midi": 71,
      "hit": false,
      "t": 120172.32566666635,
      "d": 344.82733333332,
      "v": 71
    },
    {
      "midi": 76,
      "hit": false,
      "t": 120344.73933333301,
      "d": 344.82733333332,
      "v": 79
    },
    {
      "midi": 71,
      "hit": false,
      "t": 120517.15299999967,
      "d": 344.82733333332,
      "v": 73
    },
    {
      "midi": 76,
      "hit": false,
      "t": 120689.56666666633,
      "d": 344.82733333332,
      "v": 78
    },
    {
      "midi": 71,
      "hit": false,
      "t": 120861.98033333299,
      "d": 301.723916666655,
      "v": 78
    },
    {
      "midi": 67,
      "hit": false,
      "t": 121034.39399999965,
      "d": 431.03416666665,
      "v": 82
    },
    {
      "midi": 52,
      "hit": false,
      "t": 121034.39399999965,
      "d": 1077.585416666625,
      "v": 73
    },
    {
      "midi": 59,
      "hit": false,
      "t": 121034.39399999965,
      "d": 1077.585416666625,
      "v": 74
    },
    {
      "midi": 64,
      "hit": false,
      "t": 121034.39399999965,
      "d": 1077.585416666625,
      "v": 85
    },
    {
      "midi": 71,
      "hit": false,
      "t": 121206.80766666631,
      "d": 344.82733333332,
      "v": 62
    },
    {
      "midi": 78,
      "hit": false,
      "t": 121336.11791666668,
      "d": 344.82733333333454,
      "v": 63
    },
    {
      "midi": 76,
      "hit": false,
      "t": 121379.22133333297,
      "d": 344.82733333332,
      "v": 74
    },
    {
      "midi": 71,
      "hit": false,
      "t": 121551.63499999963,
      "d": 344.82733333332,
      "v": 78
    },
    {
      "midi": 79,
      "hit": false,
      "t": 121680.94525000002,
      "d": 344.82733333333454,
      "v": 56
    },
    {
      "midi": 76,
      "hit": false,
      "t": 121724.04866666629,
      "d": 344.82733333332,
      "v": 73
    },
    {
      "midi": 71,
      "hit": false,
      "t": 121896.46233333295,
      "d": 258.62049999999,
      "v": 71
    },
    {
      "midi": 78,
      "hit": false,
      "t": 122025.77258333335,
      "d": 172.41366666666,
      "v": 64
    },
    {
      "midi": 66,
      "hit": false,
      "t": 122068.87599999961,
      "d": 474.137583333315,
      "v": 71
    },
    {
      "midi": 57,
      "hit": false,
      "t": 122068.87599999961,
      "d": 1034.48199999996,
      "v": 71
    },
    {
      "midi": 62,
      "hit": false,
      "t": 122068.87599999961,
      "d": 1034.48199999996,
      "v": 79
    },
    {
      "midi": 62,
      "hit": false,
      "t": 122068.87599999976,
      "d": 2025.8605833333277,
      "v": 77
    },
    {
      "midi": 76,
      "hit": false,
      "t": 122198.18625000001,
      "d": 172.41366666666,
      "v": 54
    },
    {
      "midi": 69,
      "hit": false,
      "t": 122241.28966666627,
      "d": 344.82733333332,
      "v": 68
    },
    {
      "midi": 74,
      "hit": false,
      "t": 122370.59991666667,
      "d": 1422.4127500000031,
      "v": 60
    },
    {
      "midi": 74,
      "hit": false,
      "t": 122413.70333333293,
      "d": 301.723916666655,
      "v": 94
    },
    {
      "midi": 69,
      "hit": false,
      "t": 122586.11699999959,
      "d": 344.82733333332,
      "v": 64
    },
    {
      "midi": 74,
      "hit": false,
      "t": 122758.53066666625,
      "d": 387.930749999985,
      "v": 89
    },
    {
      "midi": 69,
      "hit": false,
      "t": 122930.94433333291,
      "d": 258.62049999999,
      "v": 67
    },
    {
      "midi": 66,
      "hit": false,
      "t": 123103.35799999957,
      "d": 387.930749999985,
      "v": 87
    },
    {
      "midi": 57,
      "hit": false,
      "t": 123103.35799999957,
      "d": 1120.68883333329,
      "v": 72
    },
    {
      "midi": 62,
      "hit": false,
      "t": 123103.35799999957,
      "d": 1163.792249999955,
      "v": 79
    },
    {
      "midi": 69,
      "hit": false,
      "t": 123275.77166666623,
      "d": 344.82733333332,
      "v": 72
    },
    {
      "midi": 74,
      "hit": false,
      "t": 123448.18533333289,
      "d": 344.82733333332,
      "v": 79
    },
    {
      "midi": 69,
      "hit": false,
      "t": 123620.59899999955,
      "d": 344.82733333332,
      "v": 71
    },
    {
      "midi": 76,
      "hit": false,
      "t": 123749.90925000001,
      "d": 172.41366666666,
      "v": 53
    },
    {
      "midi": 74,
      "hit": false,
      "t": 123793.01266666621,
      "d": 344.82733333332,
      "v": 83
    },
    {
      "midi": 78,
      "hit": false,
      "t": 123922.32291666667,
      "d": 172.41366666666,
      "v": 56
    },
    {
      "midi": 69,
      "hit": false,
      "t": 123965.42633333287,
      "d": 258.62049999999,
      "v": 73
    },
    {
      "midi": 76,
      "hit": false,
      "t": 124094.73658333333,
      "d": 172.41366666666,
      "v": 51
    },
    {
      "midi": 64,
      "hit": false,
      "t": 124137.83999999953,
      "d": 474.137583333315,
      "v": 85
    },
    {
      "midi": 55,
      "hit": false,
      "t": 124137.83999999953,
      "d": 1034.48199999996,
      "v": 78
    },
    {
      "midi": 60,
      "hit": false,
      "t": 124137.83999999953,
      "d": 1034.48199999996,
      "v": 80
    },
    {
      "midi": 60,
      "hit": false,
      "t": 124137.83999999975,
      "d": 2068.9639999999927,
      "v": 87
    },
    {
      "midi": 74,
      "hit": false,
      "t": 124267.15024999999,
      "d": 172.41366666666,
      "v": 59
    },
    {
      "midi": 67,
      "hit": false,
      "t": 124310.25366666619,
      "d": 344.82733333332,
      "v": 78
    },
    {
      "midi": 72,
      "hit": false,
      "t": 124439.56391666665,
      "d": 1034.4820000000036,
      "v": 52
    },
    {
      "midi": 72,
      "hit": false,
      "t": 124482.66733333285,
      "d": 344.82733333332,
      "v": 79
    },
    {
      "midi": 67,
      "hit": false,
      "t": 124655.08099999951,
      "d": 344.82733333332,
      "v": 67
    },
    {
      "midi": 72,
      "hit": false,
      "t": 124827.49466666617,
      "d": 344.82733333332,
      "v": 80
    },
    {
      "midi": 67,
      "hit": false,
      "t": 124999.90833333283,
      "d": 301.723916666655,
      "v": 78
    },
    {
      "midi": 64,
      "hit": false,
      "t": 125172.32199999949,
      "d": 431.03416666665,
      "v": 85
    },
    {
      "midi": 55,
      "hit": false,
      "t": 125172.32199999949,
      "d": 1120.68883333329,
      "v": 79
    },
    {
      "midi": 60,
      "hit": false,
      "t": 125172.32199999949,
      "d": 1120.68883333329,
      "v": 84
    },
    {
      "midi": 67,
      "hit": false,
      "t": 125344.73566666615,
      "d": 344.82733333332,
      "v": 70
    },
    {
      "midi": 72,
      "hit": false,
      "t": 125517.14933333281,
      "d": 344.82733333332,
      "v": 79
    },
    {
      "midi": 74,
      "hit": false,
      "t": 125517.14933333332,
      "d": 301.72391666666954,
      "v": 56
    },
    {
      "midi": 67,
      "hit": false,
      "t": 125689.56299999947,
      "d": 344.82733333332,
      "v": 79
    },
    {
      "midi": 76,
      "hit": false,
      "t": 125818.87324999999,
      "d": 344.82733333333454,
      "v": 61
    },
    {
      "midi": 72,
      "hit": false,
      "t": 125861.97666666613,
      "d": 344.82733333332,
      "v": 79
    },
    {
      "midi": 67,
      "hit": false,
      "t": 126034.39033333279,
      "d": 258.62049999999,
      "v": 69
    },
    {
      "midi": 75,
      "hit": false,
      "t": 126163.70058333332,
      "d": 1724.1366666666727,
      "v": 75
    },
    {
      "midi": 63,
      "hit": false,
      "t": 126206.80399999945,
      "d": 474.137583333315,
      "v": 85
    },
    {
      "midi": 54,
      "hit": false,
      "t": 126206.80399999945,
      "d": 1034.48199999996,
      "v": 78
    },
    {
      "midi": 59,
      "hit": false,
      "t": 126206.80399999945,
      "d": 1034.48199999996,
      "v": 80
    },
    {
      "midi": 59,
      "hit": false,
      "t": 126206.80399999974,
      "d": 1982.7571666666627,
      "v": 81
    },
    {
      "midi": 66,
      "hit": false,
      "t": 126379.21766666611,
      "d": 344.82733333332,
      "v": 78
    },
    {
      "midi": 71,
      "hit": false,
      "t": 126551.63133333277,
      "d": 344.82733333332,
      "v": 79
    },
    {
      "midi": 66,
      "hit": false,
      "t": 126724.04499999943,
      "d": 344.82733333332,
      "v": 67
    },
    {
      "midi": 71,
      "hit": false,
      "t": 126896.45866666609,
      "d": 344.82733333332,
      "v": 80
    },
    {
      "midi": 66,
      "hit": false,
      "t": 127068.87233333275,
      "d": 301.723916666655,
      "v": 78
    },
    {
      "midi": 63,
      "hit": false,
      "t": 127241.28599999941,
      "d": 431.03416666665,
      "v": 85
    },
    {
      "midi": 59,
      "hit": false,
      "t": 127241.28599999941,
      "d": 1034.48199999996,
      "v": 84
    },
    {
      "midi": 54,
      "hit": false,
      "t": 127241.28599999941,
      "d": 1120.68883333329,
      "v": 79
    },
    {
      "midi": 59,
      "hit": false,
      "t": 127241.28599999973,
      "d": 258.62050000000454,
      "v": 69
    },
    {
      "midi": 66,
      "hit": false,
      "t": 127413.69966666607,
      "d": 344.82733333332,
      "v": 70
    },
    {
      "midi": 71,
      "hit": false,
      "t": 127586.11333333273,
      "d": 344.82733333332,
      "v": 79
    },
    {
      "midi": 59,
      "hit": false,
      "t": 127586.11333333307,
      "d": 258.62050000000454,
      "v": 69
    },
    {
      "midi": 66,
      "hit": false,
      "t": 127758.52699999939,
      "d": 344.82733333332,
      "v": 79
    },
    {
      "midi": 71,
      "hit": false,
      "t": 127887.83725,
      "d": 344.82733333333454,
      "v": 60
    },
    {
      "midi": 71,
      "hit": false,
      "t": 127930.94066666605,
      "d": 344.82733333332,
      "v": 79
    },
    {
      "midi": 59,
      "hit": false,
      "t": 127930.9406666664,
      "d": 258.62050000000454,
      "v": 72
    },
    {
      "midi": 66,
      "hit": false,
      "t": 128103.35433333271,
      "d": 258.62049999999,
      "v": 69
    },
    {
      "midi": 67,
      "hit": false,
      "t": 128275.76799999937,
      "d": 431.03416666665,
      "v": 80
    },
    {
      "midi": 52,
      "hit": false,
      "t": 128275.76799999937,
      "d": 1034.48199999996,
      "v": 72
    },
    {
      "midi": 59,
      "hit": false,
      "t": 128275.76799999937,
      "d": 1034.48199999996,
      "v": 79
    },
    {
      "midi": 64,
      "hit": false,
      "t": 128275.76799999937,
      "d": 1034.48199999996,
      "v": 87
    },
    {
      "midi": 52,
      "hit": false,
      "t": 128275.76799999973,
      "d": 948.2751666666736,
      "v": 77
    },
    {
      "midi": 64,
      "hit": false,
      "t": 128275.76799999973,
      "d": 2025.8605833333277,
      "v": 90
    },
    {
      "midi": 76,
      "hit": false,
      "t": 128275.768,
      "d": 1422.4127500000031,
      "v": 79
    },
    {
      "midi": 71,
      "hit": false,
      "t": 128448.18166666603,
      "d": 344.82733333332,
      "v": 71
    },
    {
      "midi": 76,
      "hit": false,
      "t": 128620.59533333269,
      "d": 344.82733333332,
      "v": 79
    },
    {
      "midi": 71,
      "hit": false,
      "t": 128793.00899999935,
      "d": 344.82733333332,
      "v": 73
    },
    {
      "midi": 76,
      "hit": false,
      "t": 128965.42266666601,
      "d": 344.82733333332,
      "v": 78
    },
    {
      "midi": 71,
      "hit": false,
      "t": 129137.83633333267,
      "d": 301.723916666655,
      "v": 78
    },
    {
      "midi": 67,
      "hit": false,
      "t": 129310.24999999933,
      "d": 431.03416666665,
      "v": 82
    },
    {
      "midi": 52,
      "hit": false,
      "t": 129310.24999999933,
      "d": 1077.585416666625,
      "v": 73
    },
    {
      "midi": 59,
      "hit": false,
      "t": 129310.24999999933,
      "d": 1077.585416666625,
      "v": 74
    },
    {
      "midi": 64,
      "hit": false,
      "t": 129310.24999999933,
      "d": 1077.585416666625,
      "v": 85
    },
    {
      "midi": 71,
      "hit": false,
      "t": 129482.66366666599,
      "d": 344.82733333332,
      "v": 62
    },
    {
      "midi": 76,
      "hit": false,
      "t": 129655.07733333265,
      "d": 344.82733333332,
      "v": 74
    },
    {
      "midi": 64,
      "hit": false,
      "t": 129655.07733333307,
      "d": 431.03416666666453,
      "v": 66
    },
    {
      "midi": 78,
      "hit": false,
      "t": 129655.07733333333,
      "d": 301.72391666666954,
      "v": 87
    },
    {
      "midi": 71,
      "hit": false,
      "t": 129827.49099999931,
      "d": 344.82733333332,
      "v": 78
    },
    {
      "midi": 79,
      "hit": false,
      "t": 129956.80125,
      "d": 344.82733333333454,
      "v": 61
    },
    {
      "midi": 76,
      "hit": false,
      "t": 129999.90466666597,
      "d": 344.82733333332,
      "v": 73
    },
    {
      "midi": 59,
      "hit": false,
      "t": 129999.9046666664,
      "d": 344.82733333333454,
      "v": 73
    },
    {
      "midi": 71,
      "hit": false,
      "t": 130172.31833333263,
      "d": 258.62049999999,
      "v": 71
    },
    {
      "midi": 81,
      "hit": false,
      "t": 130301.62858333334,
      "d": 215.517083333325,
      "v": 54
    },
    {
      "midi": 66,
      "hit": false,
      "t": 130344.73199999929,
      "d": 474.137583333315,
      "v": 71
    },
    {
      "midi": 57,
      "hit": false,
      "t": 130344.73199999929,
      "d": 1034.48199999996,
      "v": 71
    },
    {
      "midi": 62,
      "hit": false,
      "t": 130344.73199999929,
      "d": 1034.48199999996,
      "v": 79
    },
    {
      "midi": 62,
      "hit": false,
      "t": 130344.73199999973,
      "d": 2025.8605833333277,
      "v": 83
    },
    {
      "midi": 50,
      "hit": false,
      "t": 130344.73199999974,
      "d": 1206.8956666666636,
      "v": 94
    },
    {
      "midi": 79,
      "hit": false,
      "t": 130474.04225,
      "d": 129.310249999995,
      "v": 57
    },
    {
      "midi": 69,
      "hit": false,
      "t": 130517.14566666595,
      "d": 344.82733333332,
      "v": 68
    },
    {
      "midi": 78,
      "hit": false,
      "t": 130646.45591666666,
      "d": 1034.481999999989,
      "v": 79
    },
    {
      "midi": 74,
      "hit": false,
      "t": 130689.55933333261,
      "d": 301.723916666655,
      "v": 94
    },
    {
      "midi": 69,
      "hit": false,
      "t": 130861.97299999927,
      "d": 344.82733333332,
      "v": 64
    },
    {
      "midi": 74,
      "hit": false,
      "t": 131034.38666666593,
      "d": 387.93074999999953,
      "v": 89
    },
    {
      "midi": 69,
      "hit": false,
      "t": 131206.8003333326,
      "d": 258.6205000000191,
      "v": 67
    },
    {
      "midi": 66,
      "hit": false,
      "t": 131379.21399999925,
      "d": 387.93075000002864,
      "v": 87
    },
    {
      "midi": 57,
      "hit": false,
      "t": 131379.21399999925,
      "d": 1120.6888333333482,
      "v": 72
    },
    {
      "midi": 62,
      "hit": false,
      "t": 131379.21399999925,
      "d": 1163.7922500000277,
      "v": 79
    },
    {
      "midi": 69,
      "hit": false,
      "t": 131551.62766666594,
      "d": 344.8273333333491,
      "v": 72
    },
    {
      "midi": 79,
      "hit": false,
      "t": 131680.93791666665,
      "d": 387.93074999999953,
      "v": 55
    },
    {
      "midi": 74,
      "hit": false,
      "t": 131724.0413333326,
      "d": 344.8273333333491,
      "v": 79
    },
    {
      "midi": 62,
      "hit": false,
      "t": 131724.04133333307,
      "d": 387.93074999999953,
      "v": 56
    },
    {
      "midi": 69,
      "hit": false,
      "t": 131896.4549999993,
      "d": 344.82733333332,
      "v": 71
    },
    {
      "midi": 81,
      "hit": false,
      "t": 132025.76524999997,
      "d": 344.8273333333491,
      "v": 64
    },
    {
      "midi": 74,
      "hit": false,
      "t": 132068.86866666595,
      "d": 344.82733333332,
      "v": 83
    },
    {
      "midi": 57,
      "hit": false,
      "t": 132068.86866666639,
      "d": 301.72391666666954,
      "v": 65
    },
    {
      "midi": 69,
      "hit": false,
      "t": 132241.2823333326,
      "d": 258.62049999999,
      "v": 73
    },
    {
      "midi": 79,
      "hit": false,
      "t": 132370.59258333332,
      "d": 215.51708333333954,
      "v": 58
    },
    {
      "midi": 64,
      "hit": false,
      "t": 132413.69599999927,
      "d": 474.13758333335863,
      "v": 85
    },
    {
      "midi": 55,
      "hit": false,
      "t": 132413.69599999927,
      "d": 1034.4820000000182,
      "v": 78
    },
    {
      "midi": 60,
      "hit": false,
      "t": 132413.69599999927,
      "d": 1034.4820000000182,
      "v": 80
    },
    {
      "midi": 48,
      "hit": false,
      "t": 132413.69599999973,
      "d": 1379.3093333333381,
      "v": 74
    },
    {
      "midi": 60,
      "hit": false,
      "t": 132413.69599999973,
      "d": 1982.7571666666772,
      "v": 84
    },
    {
      "midi": 67,
      "hit": false,
      "t": 132586.10966666596,
      "d": 344.8273333333491,
      "v": 78
    },
    {
      "midi": 78,
      "hit": false,
      "t": 132586.10966666666,
      "d": 172.41366666666,
      "v": 60
    },
    {
      "midi": 72,
      "hit": false,
      "t": 132758.52333333262,
      "d": 344.8273333333491,
      "v": 79
    },
    {
      "midi": 76,
      "hit": false,
      "t": 132758.52333333332,
      "d": 1077.5854166666686,
      "v": 59
    },
    {
      "midi": 67,
      "hit": false,
      "t": 132930.9369999993,
      "d": 344.82733333332,
      "v": 67
    },
    {
      "midi": 72,
      "hit": false,
      "t": 133103.35066666597,
      "d": 344.82733333332,
      "v": 80
    },
    {
      "midi": 67,
      "hit": false,
      "t": 133275.76433333263,
      "d": 301.72391666666954,
      "v": 78
    },
    {
      "midi": 64,
      "hit": false,
      "t": 133448.1779999993,
      "d": 431.0341666666791,
      "v": 85
    },
    {
      "midi": 55,
      "hit": false,
      "t": 133448.1779999993,
      "d": 1120.688833333319,
      "v": 79
    },
    {
      "midi": 60,
      "hit": false,
      "t": 133448.1779999993,
      "d": 1120.688833333319,
      "v": 84
    },
    {
      "midi": 67,
      "hit": false,
      "t": 133620.59166666598,
      "d": 344.82733333332,
      "v": 70
    },
    {
      "midi": 78,
      "hit": false,
      "t": 133749.90191666665,
      "d": 387.93074999999953,
      "v": 75
    },
    {
      "midi": 72,
      "hit": false,
      "t": 133793.00533333264,
      "d": 344.82733333332,
      "v": 79
    },
    {
      "midi": 43,
      "hit": false,
      "t": 133793.00533333307,
      "d": 301.72391666666954,
      "v": 72
    },
    {
      "midi": 67,
      "hit": false,
      "t": 133965.4189999993,
      "d": 344.82733333332,
      "v": 79
    },
    {
      "midi": 79,
      "hit": false,
      "t": 134094.72924999997,
      "d": 344.8273333333491,
      "v": 60
    },
    {
      "midi": 72,
      "hit": false,
      "t": 134137.83266666596,
      "d": 344.82733333332,
      "v": 79
    },
    {
      "midi": 48,
      "hit": false,
      "t": 134137.83266666642,
      "d": 301.72391666666954,
      "v": 69
    },
    {
      "midi": 67,
      "hit": false,
      "t": 134310.24633333262,
      "d": 258.62049999999,
      "v": 69
    },
    {
      "midi": 78,
      "hit": false,
      "t": 134439.55658333332,
      "d": 2068.964000000007,
      "v": 75
    },
    {
      "midi": 63,
      "hit": false,
      "t": 134482.65999999928,
      "d": 474.13758333332953,
      "v": 85
    },
    {
      "midi": 54,
      "hit": false,
      "t": 134482.65999999928,
      "d": 1034.481999999989,
      "v": 78
    },
    {
      "midi": 59,
      "hit": false,
      "t": 134482.65999999928,
      "d": 1034.481999999989,
      "v": 80
    },
    {
      "midi": 59,
      "hit": false,
      "t": 134482.65999999974,
      "d": 2025.8605833333277,
      "v": 89
    },
    {
      "midi": 47,
      "hit": false,
      "t": 134482.65999999977,
      "d": 1293.1025000000081,
      "v": 72
    },
    {
      "midi": 66,
      "hit": false,
      "t": 134655.07366666594,
      "d": 344.8273333333491,
      "v": 78
    },
    {
      "midi": 71,
      "hit": false,
      "t": 134827.4873333326,
      "d": 344.8273333333491,
      "v": 79
    },
    {
      "midi": 66,
      "hit": false,
      "t": 134999.90099999928,
      "d": 344.82733333332,
      "v": 67
    },
    {
      "midi": 71,
      "hit": false,
      "t": 135172.31466666594,
      "d": 344.82733333332,
      "v": 80
    },
    {
      "midi": 66,
      "hit": false,
      "t": 135344.7283333326,
      "d": 301.72391666666954,
      "v": 78
    },
    {
      "midi": 63,
      "hit": false,
      "t": 135517.14199999926,
      "d": 431.0341666666791,
      "v": 85
    },
    {
      "midi": 59,
      "hit": false,
      "t": 135517.14199999926,
      "d": 1034.481999999989,
      "v": 84
    },
    {
      "midi": 54,
      "hit": false,
      "t": 135517.14199999926,
      "d": 1120.688833333319,
      "v": 79
    },
    {
      "midi": 66,
      "hit": false,
      "t": 135689.55566666595,
      "d": 344.82733333332,
      "v": 70
    },
    {
      "midi": 71,
      "hit": false,
      "t": 135861.9693333326,
      "d": 344.82733333332,
      "v": 79
    },
    {
      "midi": 59,
      "hit": false,
      "t": 135861.9693333331,
      "d": 258.62049999999,
      "v": 70
    },
    {
      "midi": 66,
      "hit": false,
      "t": 136034.38299999927,
      "d": 344.82733333332,
      "v": 79
    },
    {
      "midi": 71,
      "hit": false,
      "t": 136206.79666666593,
      "d": 344.82733333332,
      "v": 79
    },
    {
      "midi": 59,
      "hit": false,
      "t": 136206.79666666643,
      "d": 301.72391666666954,
      "v": 74
    },
    {
      "midi": 66,
      "hit": false,
      "t": 136379.2103333326,
      "d": 258.62049999999,
      "v": 69
    },
    {
      "midi": 83,
      "hit": false,
      "t": 136508.52058333333,
      "d": 1724.1366666666581,
      "v": 61
    },
    {
      "midi": 67,
      "hit": false,
      "t": 136551.62399999925,
      "d": 431.03416666665,
      "v": 80
    },
    {
      "midi": 52,
      "hit": false,
      "t": 136551.62399999925,
      "d": 1034.48199999996,
      "v": 72
    },
    {
      "midi": 59,
      "hit": false,
      "t": 136551.62399999925,
      "d": 1034.48199999996,
      "v": 79
    },
    {
      "midi": 64,
      "hit": false,
      "t": 136551.62399999925,
      "d": 1034.48199999996,
      "v": 87
    },
    {
      "midi": 64,
      "hit": false,
      "t": 136551.62399999975,
      "d": 2068.964000000007,
      "v": 89
    },
    {
      "midi": 52,
      "hit": false,
      "t": 136551.62399999978,
      "d": 1293.1025000000081,
      "v": 85
    },
    {
      "midi": 71,
      "hit": false,
      "t": 136724.0376666659,
      "d": 344.82733333332,
      "v": 71
    },
    {
      "midi": 76,
      "hit": false,
      "t": 136896.45133333257,
      "d": 344.82733333332,
      "v": 79
    },
    {
      "midi": 71,
      "hit": false,
      "t": 137068.86499999923,
      "d": 344.82733333332,
      "v": 73
    },
    {
      "midi": 76,
      "hit": false,
      "t": 137241.2786666659,
      "d": 344.82733333332,
      "v": 78
    },
    {
      "midi": 71,
      "hit": false,
      "t": 137413.69233333255,
      "d": 301.72391666666954,
      "v": 78
    },
    {
      "midi": 67,
      "hit": false,
      "t": 137586.1059999992,
      "d": 431.0341666666791,
      "v": 82
    },
    {
      "midi": 52,
      "hit": false,
      "t": 137586.1059999992,
      "d": 1077.5854166666686,
      "v": 73
    },
    {
      "midi": 59,
      "hit": false,
      "t": 137586.1059999992,
      "d": 1077.5854166666686,
      "v": 74
    },
    {
      "midi": 64,
      "hit": false,
      "t": 137586.1059999992,
      "d": 1077.5854166666686,
      "v": 85
    },
    {
      "midi": 71,
      "hit": false,
      "t": 137758.5196666659,
      "d": 344.82733333332,
      "v": 62
    },
    {
      "midi": 76,
      "hit": false,
      "t": 137930.93333333256,
      "d": 344.82733333332,
      "v": 74
    },
    {
      "midi": 64,
      "hit": false,
      "t": 137930.93333333312,
      "d": 344.82733333332,
      "v": 68
    },
    {
      "midi": 71,
      "hit": false,
      "t": 138103.34699999922,
      "d": 344.82733333332,
      "v": 78
    },
    {
      "midi": 82,
      "hit": false,
      "t": 138232.65725,
      "d": 301.72391666666954,
      "v": 58
    },
    {
      "midi": 76,
      "hit": false,
      "t": 138275.76066666588,
      "d": 344.82733333332,
      "v": 73
    },
    {
      "midi": 59,
      "hit": false,
      "t": 138275.76066666644,
      "d": 301.72391666666954,
      "v": 77
    },
    {
      "midi": 71,
      "hit": false,
      "t": 138448.17433333254,
      "d": 258.6205000000191,
      "v": 71
    },
    {
      "midi": 81,
      "hit": false,
      "t": 138577.48458333334,
      "d": 172.41366666666,
      "v": 56
    },
    {
      "midi": 66,
      "hit": false,
      "t": 138620.5879999992,
      "d": 474.13758333335863,
      "v": 71
    },
    {
      "midi": 57,
      "hit": false,
      "t": 138620.5879999992,
      "d": 1034.4820000000473,
      "v": 71
    },
    {
      "midi": 62,
      "hit": false,
      "t": 138620.5879999992,
      "d": 1034.4820000000473,
      "v": 79
    },
    {
      "midi": 62,
      "hit": false,
      "t": 138620.58799999976,
      "d": 1982.7571666666772,
      "v": 86
    },
    {
      "midi": 50,
      "hit": false,
      "t": 138620.58799999979,
      "d": 1249.9990833333286,
      "v": 82
    },
    {
      "midi": 79,
      "hit": false,
      "t": 138749.89825,
      "d": 172.41366666666,
      "v": 62
    },
    {
      "midi": 69,
      "hit": false,
      "t": 138793.0016666659,
      "d": 344.8273333333491,
      "v": 68
    },
    {
      "midi": 76,
      "hit": false,
      "t": 138922.31191666666,
      "d": 1077.5854166666686,
      "v": 60
    },
    {
      "midi": 74,
      "hit": false,
      "t": 138965.41533333255,
      "d": 301.72391666669864,
      "v": 94
    },
    {
      "midi": 69,
      "hit": false,
      "t": 139137.82899999924,
      "d": 344.8273333333491,
      "v": 64
    },
    {
      "midi": 74,
      "hit": false,
      "t": 139310.24266666593,
      "d": 387.93074999999953,
      "v": 89
    },
    {
      "midi": 69,
      "hit": false,
      "t": 139482.6563333326,
      "d": 258.6205000000191,
      "v": 67
    },
    {
      "midi": 66,
      "hit": false,
      "t": 139655.06999999925,
      "d": 387.93075000002864,
      "v": 87
    },
    {
      "midi": 57,
      "hit": false,
      "t": 139655.06999999925,
      "d": 1120.6888333333482,
      "v": 72
    },
    {
      "midi": 62,
      "hit": false,
      "t": 139655.06999999925,
      "d": 1163.7922500000277,
      "v": 79
    },
    {
      "midi": 69,
      "hit": false,
      "t": 139827.48366666594,
      "d": 344.8273333333491,
      "v": 72
    },
    {
      "midi": 74,
      "hit": false,
      "t": 139999.8973333326,
      "d": 344.8273333333491,
      "v": 79
    },
    {
      "midi": 47,
      "hit": false,
      "t": 139999.89733333312,
      "d": 301.72391666666954,
      "v": 63
    },
    {
      "midi": 79,
      "hit": false,
      "t": 139999.89733333333,
      "d": 387.93074999999953,
      "v": 61
    },
    {
      "midi": 69,
      "hit": false,
      "t": 140172.3109999993,
      "d": 344.82733333332,
      "v": 71
    },
    {
      "midi": 74,
      "hit": false,
      "t": 140344.72466666595,
      "d": 344.82733333332,
      "v": 83
    },
    {
      "midi": 50,
      "hit": false,
      "t": 140344.72466666647,
      "d": 301.72391666666954,
      "v": 70
    },
    {
      "midi": 81,
      "hit": false,
      "t": 140344.72466666665,
      "d": 344.8273333333491,
      "v": 52
    },
    {
      "midi": 69,
      "hit": false,
      "t": 140517.1383333326,
      "d": 258.62049999999,
      "v": 73
    },
    {
      "midi": 67,
      "hit": false,
      "t": 140689.55199999927,
      "d": 431.0341666666791,
      "v": 80
    },
    {
      "midi": 52,
      "hit": false,
      "t": 140689.55199999927,
      "d": 1034.481999999989,
      "v": 72
    },
    {
      "midi": 59,
      "hit": false,
      "t": 140689.55199999927,
      "d": 1034.481999999989,
      "v": 79
    },
    {
      "midi": 64,
      "hit": false,
      "t": 140689.55199999927,
      "d": 1034.481999999989,
      "v": 87
    },
    {
      "midi": 64,
      "hit": false,
      "t": 140689.55199999976,
      "d": 2068.964000000007,
      "v": 91
    },
    {
      "midi": 52,
      "hit": false,
      "t": 140689.55199999982,
      "d": 991.3785833333386,
      "v": 75
    },
    {
      "midi": 83,
      "hit": false,
      "t": 140689.552,
      "d": 1853.4469166666677,
      "v": 61
    },
    {
      "midi": 71,
      "hit": false,
      "t": 140861.96566666596,
      "d": 344.82733333332,
      "v": 71
    },
    {
      "midi": 76,
      "hit": false,
      "t": 141034.37933333262,
      "d": 344.82733333332,
      "v": 79
    },
    {
      "midi": 71,
      "hit": false,
      "t": 141206.79299999928,
      "d": 344.82733333332,
      "v": 73
    },
    {
      "midi": 76,
      "hit": false,
      "t": 141379.20666666594,
      "d": 344.82733333332,
      "v": 78
    },
    {
      "midi": 71,
      "hit": false,
      "t": 141551.6203333326,
      "d": 301.72391666666954,
      "v": 78
    },
    {
      "midi": 67,
      "hit": false,
      "t": 141724.03399999926,
      "d": 431.0341666666791,
      "v": 82
    },
    {
      "midi": 52,
      "hit": false,
      "t": 141724.03399999926,
      "d": 1077.5854166666686,
      "v": 73
    },
    {
      "midi": 59,
      "hit": false,
      "t": 141724.03399999926,
      "d": 1077.5854166666686,
      "v": 74
    },
    {
      "midi": 64,
      "hit": false,
      "t": 141724.03399999926,
      "d": 1077.5854166666686,
      "v": 85
    },
    {
      "midi": 64,
      "hit": false,
      "t": 141724.03399999984,
      "d": 344.82733333332,
      "v": 63
    },
    {
      "midi": 71,
      "hit": false,
      "t": 141896.44766666595,
      "d": 344.82733333332,
      "v": 62
    },
    {
      "midi": 76,
      "hit": false,
      "t": 142068.8613333326,
      "d": 344.82733333332,
      "v": 74
    },
    {
      "midi": 59,
      "hit": false,
      "t": 142068.86133333316,
      "d": 387.93074999999953,
      "v": 74
    },
    {
      "midi": 71,
      "hit": false,
      "t": 142241.27499999927,
      "d": 344.82733333332,
      "v": 78
    },
    {
      "midi": 76,
      "hit": false,
      "t": 142413.68866666593,
      "d": 344.82733333332,
      "v": 73
    },
    {
      "midi": 52,
      "hit": false,
      "t": 142413.68866666648,
      "d": 301.72391666666954,
      "v": 69
    },
    {
      "midi": 82,
      "hit": false,
      "t": 142542.99891666666,
      "d": 129.31025000000955,
      "v": 54
    },
    {
      "midi": 71,
      "hit": false,
      "t": 142586.1023333326,
      "d": 258.6205000000191,
      "v": 71
    },
    {
      "midi": 81,
      "hit": false,
      "t": 142672.30916666667,
      "d": 258.6205000000191,
      "v": 59
    },
    {
      "midi": 66,
      "hit": false,
      "t": 142758.51599999925,
      "d": 474.13758333335863,
      "v": 71
    },
    {
      "midi": 57,
      "hit": false,
      "t": 142758.51599999925,
      "d": 1034.4820000000473,
      "v": 71
    },
    {
      "midi": 62,
      "hit": false,
      "t": 142758.51599999925,
      "d": 1034.4820000000473,
      "v": 79
    },
    {
      "midi": 62,
      "hit": false,
      "t": 142758.51599999977,
      "d": 2025.8605833333277,
      "v": 90
    },
    {
      "midi": 50,
      "hit": false,
      "t": 142758.51599999983,
      "d": 1637.9298333333281,
      "v": 66
    },
    {
      "midi": 79,
      "hit": false,
      "t": 142887.82625,
      "d": 560.3444166666886,
      "v": 31
    },
    {
      "midi": 69,
      "hit": false,
      "t": 142930.92966666594,
      "d": 344.8273333333491,
      "v": 68
    },
    {
      "midi": 74,
      "hit": false,
      "t": 143103.3433333326,
      "d": 301.72391666669864,
      "v": 94
    },
    {
      "midi": 69,
      "hit": false,
      "t": 143275.75699999928,
      "d": 344.8273333333491,
      "v": 64
    },
    {
      "midi": 76,
      "hit": false,
      "t": 143405.06725000002,
      "d": 1034.4820000000182,
      "v": 57
    },
    {
      "midi": 74,
      "hit": false,
      "t": 143448.17066666597,
      "d": 387.93074999999953,
      "v": 89
    },
    {
      "midi": 69,
      "hit": false,
      "t": 143620.58433333263,
      "d": 258.6205000000191,
      "v": 67
    },
    {
      "midi": 66,
      "hit": false,
      "t": 143792.9979999993,
      "d": 387.93075000002864,
      "v": 87
    },
    {
      "midi": 57,
      "hit": false,
      "t": 143792.9979999993,
      "d": 1034.4820000000182,
      "v": 72
    },
    {
      "midi": 62,
      "hit": false,
      "t": 143792.9979999993,
      "d": 1163.7922500000277,
      "v": 79
    },
    {
      "midi": 69,
      "hit": false,
      "t": 143965.41166666598,
      "d": 344.8273333333491,
      "v": 72
    },
    {
      "midi": 74,
      "hit": false,
      "t": 144137.82533333264,
      "d": 344.8273333333491,
      "v": 79
    },
    {
      "midi": 69,
      "hit": false,
      "t": 144310.23899999933,
      "d": 344.82733333332,
      "v": 71
    },
    {
      "midi": 79,
      "hit": false,
      "t": 144439.54925000004,
      "d": 387.93074999999953,
      "v": 46
    },
    {
      "midi": 74,
      "hit": false,
      "t": 144482.652666666,
      "d": 344.82733333332,
      "v": 83
    },
    {
      "midi": 52,
      "hit": false,
      "t": 144482.6526666665,
      "d": 129.31025000000955,
      "v": 68
    },
    {
      "midi": 69,
      "hit": false,
      "t": 144655.06633333265,
      "d": 258.62049999999,
      "v": 73
    },
    {
      "midi": 50,
      "hit": false,
      "t": 144655.06633333318,
      "d": 43.10341666667955,
      "v": 72
    },
    {
      "midi": 81,
      "hit": false,
      "t": 144784.37658333336,
      "d": 1422.4127500000177,
      "v": 62
    },
    {
      "midi": 57,
      "hit": false,
      "t": 144827.4799999993,
      "d": 1034.4820000000182,
      "v": 80
    },
    {
      "midi": 64,
      "hit": false,
      "t": 144827.4799999993,
      "d": 1034.4820000000182,
      "v": 94
    },
    {
      "midi": 57,
      "hit": false,
      "t": 144827.47999999978,
      "d": 2025.8605833333277,
      "v": 100
    },
    {
      "midi": 45,
      "hit": false,
      "t": 144827.47999999986,
      "d": 1336.2059166666586,
      "v": 74
    },
    {
      "midi": 69,
      "hit": false,
      "t": 144999.893666666,
      "d": 344.82733333332,
      "v": 77
    },
    {
      "midi": 72,
      "hit": false,
      "t": 145172.30733333266,
      "d": 344.82733333332,
      "v": 82
    },
    {
      "midi": 69,
      "hit": false,
      "t": 145344.72099999932,
      "d": 301.72391666666954,
      "v": 74
    },
    {
      "midi": 72,
      "hit": false,
      "t": 145517.13466666598,
      "d": 387.93075000002864,
      "v": 84
    },
    {
      "midi": 69,
      "hit": false,
      "t": 145689.54833333267,
      "d": 258.6205000000191,
      "v": 68
    },
    {
      "midi": 57,
      "hit": false,
      "t": 145861.96199999933,
      "d": 1249.9990833333577,
      "v": 84
    },
    {
      "midi": 64,
      "hit": false,
      "t": 145861.96199999933,
      "d": 1249.9990833333577,
      "v": 94
    },
    {
      "midi": 69,
      "hit": false,
      "t": 146034.37566666602,
      "d": 344.82733333332,
      "v": 69
    },
    {
      "midi": 72,
      "hit": false,
      "t": 146206.78933333268,
      "d": 344.82733333332,
      "v": 80
    },
    {
      "midi": 47,
      "hit": false,
      "t": 146206.7893333332,
      "d": 301.72391666666954,
      "v": 72
    },
    {
      "midi": 83,
      "hit": false,
      "t": 146206.78933333338,
      "d": 344.82733333332,
      "v": 62
    },
    {
      "midi": 69,
      "hit": false,
      "t": 146379.20299999934,
      "d": 301.72391666666954,
      "v": 78
    },
    {
      "midi": 72,
      "hit": false,
      "t": 146551.616666666,
      "d": 344.8273333333491,
      "v": 89
    },
    {
      "midi": 48,
      "hit": false,
      "t": 146551.61666666655,
      "d": 258.62049999999,
      "v": 75
    },
    {
      "midi": 84,
      "hit": false,
      "t": 146551.6166666667,
      "d": 344.82733333332,
      "v": 65
    },
    {
      "midi": 69,
      "hit": false,
      "t": 146724.0303333327,
      "d": 258.62049999999,
      "v": 79
    },
    {
      "midi": 63,
      "hit": false,
      "t": 146896.44399999935,
      "d": 474.13758333335863,
      "v": 69
    },
    {
      "midi": 59,
      "hit": false,
      "t": 146896.44399999935,
      "d": 1034.4820000000182,
      "v": 75
    },
    {
      "midi": 59,
      "hit": false,
      "t": 146896.44399999978,
      "d": 2112.0674166666868,
      "v": 93
    },
    {
      "midi": 47,
      "hit": false,
      "t": 146896.44399999987,
      "d": 1293.1025000000081,
      "v": 75
    },
    {
      "midi": 83,
      "hit": false,
      "t": 146896.44400000002,
      "d": 1681.0332500000077,
      "v": 64
    },
    {
      "midi": 66,
      "hit": false,
      "t": 147068.857666666,
      "d": 344.8273333333782,
      "v": 79
    },
    {
      "midi": 71,
      "hit": false,
      "t": 147241.2713333327,
      "d": 344.8273333333491,
      "v": 78
    },
    {
      "midi": 66,
      "hit": false,
      "t": 147413.6849999994,
      "d": 344.82733333332,
      "v": 77
    },
    {
      "midi": 71,
      "hit": false,
      "t": 147586.09866666605,
      "d": 387.93074999999953,
      "v": 79
    },
    {
      "midi": 66,
      "hit": false,
      "t": 147758.5123333327,
      "d": 301.72391666666954,
      "v": 78
    },
    {
      "midi": 63,
      "hit": false,
      "t": 147930.92599999937,
      "d": 431.0341666666791,
      "v": 83
    },
    {
      "midi": 59,
      "hit": false,
      "t": 147930.92599999937,
      "d": 1120.688833333319,
      "v": 76
    },
    {
      "midi": 66,
      "hit": false,
      "t": 148103.33966666606,
      "d": 344.82733333332,
      "v": 71
    },
    {
      "midi": 71,
      "hit": false,
      "t": 148275.75333333272,
      "d": 344.82733333332,
      "v": 71
    },
    {
      "midi": 48,
      "hit": false,
      "t": 148275.7533333332,
      "d": 301.72391666666954,
      "v": 82
    },
    {
      "midi": 66,
      "hit": false,
      "t": 148448.16699999938,
      "d": 344.82733333332,
      "v": 79
    },
    {
      "midi": 84,
      "hit": false,
      "t": 148577.47725000003,
      "d": 215.51708333333954,
      "v": 58
    },
    {
      "midi": 71,
      "hit": false,
      "t": 148620.58066666604,
      "d": 344.82733333332,
      "v": 79
    },
    {
      "midi": 47,
      "hit": false,
      "t": 148620.58066666656,
      "d": 258.62049999999,
      "v": 72
    },
    {
      "midi": 83,
      "hit": false,
      "t": 148749.89091666669,
      "d": 215.51708333336865,
      "v": 63
    },
    {
      "midi": 66,
      "hit": false,
      "t": 148792.9943333327,
      "d": 258.62049999999,
      "v": 85
    },
    {
      "midi": 81,
      "hit": false,
      "t": 148922.30458333337,
      "d": 1379.3093333333381,
      "v": 62
    },
    {
      "midi": 57,
      "hit": false,
      "t": 148965.40799999936,
      "d": 1034.481999999989,
      "v": 80
    },
    {
      "midi": 64,
      "hit": false,
      "t": 148965.40799999936,
      "d": 1034.481999999989,
      "v": 94
    },
    {
      "midi": 57,
      "hit": false,
      "t": 148965.4079999998,
      "d": 1982.7571666666772,
      "v": 92
    },
    {
      "midi": 45,
      "hit": false,
      "t": 148965.40799999988,
      "d": 1293.1025000000081,
      "v": 82
    },
    {
      "midi": 69,
      "hit": false,
      "t": 149137.82166666602,
      "d": 344.82733333332,
      "v": 77
    },
    {
      "midi": 72,
      "hit": false,
      "t": 149310.23533333268,
      "d": 344.82733333332,
      "v": 82
    },
    {
      "midi": 69,
      "hit": false,
      "t": 149482.64899999934,
      "d": 301.72391666666954,
      "v": 74
    },
    {
      "midi": 72,
      "hit": false,
      "t": 149655.062666666,
      "d": 387.93075000002864,
      "v": 84
    },
    {
      "midi": 69,
      "hit": false,
      "t": 149827.47633333268,
      "d": 258.6205000000191,
      "v": 68
    },
    {
      "midi": 57,
      "hit": false,
      "t": 149999.88999999934,
      "d": 1249.9990833333577,
      "v": 84
    },
    {
      "midi": 64,
      "hit": false,
      "t": 149999.88999999934,
      "d": 1249.9990833333577,
      "v": 94
    },
    {
      "midi": 69,
      "hit": false,
      "t": 150172.30366666603,
      "d": 344.82733333332,
      "v": 69
    },
    {
      "midi": 72,
      "hit": false,
      "t": 150344.7173333327,
      "d": 344.82733333332,
      "v": 80
    },
    {
      "midi": 47,
      "hit": false,
      "t": 150344.71733333322,
      "d": 344.82733333332,
      "v": 75
    },
    {
      "midi": 83,
      "hit": false,
      "t": 150344.7173333334,
      "d": 344.82733333332,
      "v": 65
    },
    {
      "midi": 69,
      "hit": false,
      "t": 150517.13099999935,
      "d": 301.72391666666954,
      "v": 78
    },
    {
      "midi": 72,
      "hit": false,
      "t": 150689.544666666,
      "d": 344.8273333333491,
      "v": 89
    },
    {
      "midi": 48,
      "hit": false,
      "t": 150689.54466666654,
      "d": 215.51708333333954,
      "v": 77
    },
    {
      "midi": 84,
      "hit": false,
      "t": 150689.5446666667,
      "d": 344.8273333333491,
      "v": 62
    },
    {
      "midi": 69,
      "hit": false,
      "t": 150861.9583333327,
      "d": 258.62049999999,
      "v": 79
    },
    {
      "midi": 83,
      "hit": false,
      "t": 150991.26858333338,
      "d": 2068.964000000007,
      "v": 75
    },
    {
      "midi": 63,
      "hit": false,
      "t": 151034.37199999936,
      "d": 474.13758333335863,
      "v": 69
    },
    {
      "midi": 59,
      "hit": false,
      "t": 151034.37199999936,
      "d": 1034.4820000000182,
      "v": 75
    },
    {
      "midi": 59,
      "hit": false,
      "t": 151034.3719999998,
      "d": 2068.964000000007,
      "v": 93
    },
    {
      "midi": 47,
      "hit": false,
      "t": 151034.3719999999,
      "d": 905.1717500000086,
      "v": 82
    },
    {
      "midi": 66,
      "hit": false,
      "t": 151206.78566666602,
      "d": 344.8273333333782,
      "v": 79
    },
    {
      "midi": 71,
      "hit": false,
      "t": 151379.1993333327,
      "d": 344.8273333333491,
      "v": 78
    },
    {
      "midi": 66,
      "hit": false,
      "t": 151551.6129999994,
      "d": 344.82733333332,
      "v": 77
    },
    {
      "midi": 71,
      "hit": false,
      "t": 151724.02666666606,
      "d": 387.93074999999953,
      "v": 79
    },
    {
      "midi": 66,
      "hit": false,
      "t": 151896.44033333272,
      "d": 301.72391666666954,
      "v": 78
    },
    {
      "midi": 63,
      "hit": false,
      "t": 152068.85399999938,
      "d": 431.0341666666791,
      "v": 83
    },
    {
      "midi": 59,
      "hit": false,
      "t": 152068.85399999938,
      "d": 1034.481999999989,
      "v": 76
    },
    {
      "midi": 47,
      "hit": false,
      "t": 152068.8539999999,
      "d": 258.62049999999,
      "v": 75
    },
    {
      "midi": 66,
      "hit": false,
      "t": 152241.26766666607,
      "d": 344.82733333332,
      "v": 71
    },
    {
      "midi": 71,
      "hit": false,
      "t": 152413.68133333273,
      "d": 344.82733333332,
      "v": 71
    },
    {
      "midi": 47,
      "hit": false,
      "t": 152413.68133333322,
      "d": 215.51708333333954,
      "v": 79
    },
    {
      "midi": 66,
      "hit": false,
      "t": 152586.0949999994,
      "d": 344.82733333332,
      "v": 79
    },
    {
      "midi": 71,
      "hit": false,
      "t": 152758.50866666605,
      "d": 344.82733333332,
      "v": 79
    },
    {
      "midi": 47,
      "hit": false,
      "t": 152758.50866666657,
      "d": 258.62049999999,
      "v": 79
    },
    {
      "midi": 66,
      "hit": false,
      "t": 152930.9223333327,
      "d": 258.62049999999,
      "v": 85
    },
    {
      "midi": 76,
      "hit": false,
      "t": 153060.2325833334,
      "d": 3146.549416666676,
      "v": 69
    },
    {
      "midi": 67,
      "hit": false,
      "t": 153103.33599999937,
      "d": 431.03416666665,
      "v": 80
    },
    {
      "midi": 52,
      "hit": false,
      "t": 153103.33599999937,
      "d": 1034.48199999996,
      "v": 72
    },
    {
      "midi": 59,
      "hit": false,
      "t": 153103.33599999937,
      "d": 1034.48199999996,
      "v": 79
    },
    {
      "midi": 64,
      "hit": false,
      "t": 153103.33599999937,
      "d": 1034.48199999996,
      "v": 87
    },
    {
      "midi": 40,
      "hit": false,
      "t": 153103.3359999998,
      "d": 1982.7571666666772,
      "v": 99
    },
    {
      "midi": 52,
      "hit": false,
      "t": 153103.3359999998,
      "d": 1982.7571666666772,
      "v": 105
    },
    {
      "midi": 64,
      "hit": false,
      "t": 153103.3359999998,
      "d": 2112.0674166666868,
      "v": 99
    },
    {
      "midi": 52,
      "hit": false,
      "t": 153103.3359999999,
      "d": 215.51708333333954,
      "v": 77
    },
    {
      "midi": 71,
      "hit": false,
      "t": 153275.74966666603,
      "d": 344.82733333332,
      "v": 71
    },
    {
      "midi": 76,
      "hit": false,
      "t": 153448.1633333327,
      "d": 344.82733333332,
      "v": 79
    },
    {
      "midi": 52,
      "hit": false,
      "t": 153448.16333333324,
      "d": 258.62049999999,
      "v": 69
    },
    {
      "midi": 71,
      "hit": false,
      "t": 153620.57699999935,
      "d": 344.82733333332,
      "v": 73
    },
    {
      "midi": 76,
      "hit": false,
      "t": 153792.990666666,
      "d": 344.82733333332,
      "v": 78
    },
    {
      "midi": 52,
      "hit": false,
      "t": 153792.99066666656,
      "d": 215.51708333333954,
      "v": 70
    },
    {
      "midi": 71,
      "hit": false,
      "t": 153965.40433333267,
      "d": 301.72391666666954,
      "v": 78
    },
    {
      "midi": 67,
      "hit": false,
      "t": 154137.81799999933,
      "d": 431.0341666666791,
      "v": 82
    },
    {
      "midi": 52,
      "hit": false,
      "t": 154137.81799999933,
      "d": 1077.5854166666686,
      "v": 73
    },
    {
      "midi": 59,
      "hit": false,
      "t": 154137.81799999933,
      "d": 1077.5854166666686,
      "v": 74
    },
    {
      "midi": 64,
      "hit": false,
      "t": 154137.81799999933,
      "d": 1077.5854166666686,
      "v": 85
    },
    {
      "midi": 52,
      "hit": false,
      "t": 154137.8179999999,
      "d": 215.51708333333954,
      "v": 69
    },
    {
      "midi": 71,
      "hit": false,
      "t": 154310.23166666602,
      "d": 344.82733333332,
      "v": 62
    },
    {
      "midi": 76,
      "hit": false,
      "t": 154482.64533333268,
      "d": 344.82733333332,
      "v": 74
    },
    {
      "midi": 52,
      "hit": false,
      "t": 154482.64533333326,
      "d": 172.41366666666,
      "v": 64
    },
    {
      "midi": 71,
      "hit": false,
      "t": 154655.05899999934,
      "d": 344.82733333332,
      "v": 78
    },
    {
      "midi": 76,
      "hit": false,
      "t": 154827.472666666,
      "d": 344.82733333332,
      "v": 73
    },
    {
      "midi": 52,
      "hit": false,
      "t": 154827.47266666658,
      "d": 258.62049999999,
      "v": 68
    },
    {
      "midi": 71,
      "hit": false,
      "t": 154999.88633333266,
      "d": 258.6205000000191,
      "v": 71
    },
    {
      "midi": 66,
      "hit": false,
      "t": 155172.29999999932,
      "d": 474.13758333335863,
      "v": 71
    },
    {
      "midi": 57,
      "hit": false,
      "t": 155172.29999999932,
      "d": 1034.4820000000473,
      "v": 71
    },
    {
      "midi": 62,
      "hit": false,
      "t": 155172.29999999932,
      "d": 1034.4820000000473,
      "v": 79
    },
    {
      "midi": 50,
      "hit": false,
      "t": 155172.2999999998,
      "d": 1853.4469166666677,
      "v": 100
    },
    {
      "midi": 38,
      "hit": false,
      "t": 155172.2999999998,
      "d": 1896.5503333333472,
      "v": 105
    },
    {
      "midi": 62,
      "hit": false,
      "t": 155172.2999999998,
      "d": 1982.7571666666772,
      "v": 98
    },
    {
      "midi": 50,
      "hit": false,
      "t": 155172.2999999999,
      "d": 258.62049999999,
      "v": 79
    },
    {
      "midi": 69,
      "hit": false,
      "t": 155344.713666666,
      "d": 344.8273333333491,
      "v": 68
    },
    {
      "midi": 74,
      "hit": false,
      "t": 155517.12733333267,
      "d": 301.72391666669864,
      "v": 94
    },
    {
      "midi": 50,
      "hit": false,
      "t": 155517.12733333322,
      "d": 258.62049999999,
      "v": 70
    },
    {
      "midi": 69,
      "hit": false,
      "t": 155689.54099999936,
      "d": 344.8273333333491,
      "v": 64
    },
    {
      "midi": 74,
      "hit": false,
      "t": 155861.95466666605,
      "d": 387.93074999999953,
      "v": 89
    },
    {
      "midi": 50,
      "hit": false,
      "t": 155861.95466666654,
      "d": 215.51708333333954,
      "v": 70
    },
    {
      "midi": 69,
      "hit": false,
      "t": 156034.3683333327,
      "d": 258.6205000000191,
      "v": 67
    },
    {
      "midi": 66,
      "hit": false,
      "t": 156206.78199999937,
      "d": 387.93075000002864,
      "v": 87
    },
    {
      "midi": 57,
      "hit": false,
      "t": 156206.78199999937,
      "d": 1120.6888333333482,
      "v": 72
    },
    {
      "midi": 62,
      "hit": false,
      "t": 156206.78199999937,
      "d": 1163.7922500000277,
      "v": 79
    },
    {
      "midi": 50,
      "hit": false,
      "t": 156206.7819999999,
      "d": 258.62049999999,
      "v": 71
    },
    {
      "midi": 74,
      "hit": false,
      "t": 156206.78200000006,
      "d": 991.3785833333386,
      "v": 69
    },
    {
      "midi": 69,
      "hit": false,
      "t": 156379.19566666606,
      "d": 344.8273333333491,
      "v": 72
    },
    {
      "midi": 74,
      "hit": false,
      "t": 156551.60933333272,
      "d": 344.8273333333491,
      "v": 79
    },
    {
      "midi": 47,
      "hit": false,
      "t": 156551.6093333332,
      "d": 258.62049999999,
      "v": 69
    },
    {
      "midi": 69,
      "hit": false,
      "t": 156724.0229999994,
      "d": 344.82733333332,
      "v": 71
    },
    {
      "midi": 74,
      "hit": false,
      "t": 156896.43666666606,
      "d": 344.82733333332,
      "v": 83
    },
    {
      "midi": 50,
      "hit": false,
      "t": 156896.43666666653,
      "d": 258.62049999999,
      "v": 94
    },
    {
      "midi": 69,
      "hit": false,
      "t": 157068.85033333272,
      "d": 258.62049999999,
      "v": 73
    },
    {
      "midi": 88,
      "hit": false,
      "t": 157198.1605833334,
      "d": 2413.791333333327,
      "v": 64
    },
    {
      "midi": 64,
      "hit": false,
      "t": 157241.26399999938,
      "d": 474.13758333335863,
      "v": 85
    },
    {
      "midi": 55,
      "hit": false,
      "t": 157241.26399999938,
      "d": 1034.4820000000182,
      "v": 78
    },
    {
      "midi": 60,
      "hit": false,
      "t": 157241.26399999938,
      "d": 1034.4820000000182,
      "v": 80
    },
    {
      "midi": 36,
      "hit": false,
      "t": 157241.26399999982,
      "d": 1724.1366666666581,
      "v": 102
    },
    {
      "midi": 48,
      "hit": false,
      "t": 157241.26399999982,
      "d": 1853.4469166666677,
      "v": 98
    },
    {
      "midi": 60,
      "hit": false,
      "t": 157241.26399999982,
      "d": 1982.7571666666772,
      "v": 112
    },
    {
      "midi": 48,
      "hit": false,
      "t": 157241.26399999985,
      "d": 215.51708333333954,
      "v": 77
    },
    {
      "midi": 67,
      "hit": false,
      "t": 157413.67766666607,
      "d": 344.8273333333491,
      "v": 78
    },
    {
      "midi": 72,
      "hit": false,
      "t": 157586.09133333273,
      "d": 344.8273333333491,
      "v": 79
    },
    {
      "midi": 48,
      "hit": false,
      "t": 157586.0913333332,
      "d": 215.51708333333954,
      "v": 69
    },
    {
      "midi": 67,
      "hit": false,
      "t": 157758.50499999942,
      "d": 344.82733333332,
      "v": 67
    },
    {
      "midi": 72,
      "hit": false,
      "t": 157930.91866666608,
      "d": 344.82733333332,
      "v": 80
    },
    {
      "midi": 48,
      "hit": false,
      "t": 157930.91866666655,
      "d": 215.51708333333954,
      "v": 72
    },
    {
      "midi": 67,
      "hit": false,
      "t": 158103.33233333274,
      "d": 301.72391666666954,
      "v": 78
    },
    {
      "midi": 64,
      "hit": false,
      "t": 158275.7459999994,
      "d": 431.0341666666791,
      "v": 85
    },
    {
      "midi": 55,
      "hit": false,
      "t": 158275.7459999994,
      "d": 1120.6888333333482,
      "v": 79
    },
    {
      "midi": 60,
      "hit": false,
      "t": 158275.7459999994,
      "d": 1120.6888333333482,
      "v": 84
    },
    {
      "midi": 48,
      "hit": false,
      "t": 158275.7459999999,
      "d": 215.51708333333954,
      "v": 70
    },
    {
      "midi": 67,
      "hit": false,
      "t": 158448.1596666661,
      "d": 344.82733333332,
      "v": 70
    },
    {
      "midi": 72,
      "hit": false,
      "t": 158620.57333333275,
      "d": 344.82733333332,
      "v": 79
    },
    {
      "midi": 48,
      "hit": false,
      "t": 158620.57333333325,
      "d": 172.41366666666,
      "v": 82
    },
    {
      "midi": 67,
      "hit": false,
      "t": 158792.9869999994,
      "d": 344.82733333332,
      "v": 79
    },
    {
      "midi": 72,
      "hit": false,
      "t": 158965.40066666607,
      "d": 344.82733333332,
      "v": 79
    },
    {
      "midi": 48,
      "hit": false,
      "t": 158965.40066666657,
      "d": 258.62049999999,
      "v": 97
    },
    {
      "midi": 67,
      "hit": false,
      "t": 159137.81433333273,
      "d": 215.51708333333954,
      "v": 69
    },
    {
      "midi": 52,
      "hit": false,
      "t": 159310.2279999994,
      "d": 387.93075000002864,
      "v": 73
    },
    {
      "midi": 55,
      "hit": false,
      "t": 159310.22799999983,
      "d": 1810.3434999999881,
      "v": 92
    },
    {
      "midi": 64,
      "hit": false,
      "t": 159310.22799999983,
      "d": 1853.4469166666677,
      "v": 90
    },
    {
      "midi": 40,
      "hit": false,
      "t": 159310.22799999983,
      "d": 1896.5503333333472,
      "v": 104
    },
    {
      "midi": 52,
      "hit": false,
      "t": 159310.22799999983,
      "d": 1896.5503333333472,
      "v": 124
    },
    {
      "midi": 52,
      "hit": false,
      "t": 159310.2279999999,
      "d": 215.51708333333954,
      "v": 68
    },
    {
      "midi": 40,
      "hit": false,
      "t": 159310.228,
      "d": 2025.8605833333277,
      "v": 51
    },
    {
      "midi": 52,
      "hit": false,
      "t": 159310.228,
      "d": 2025.8605833333277,
      "v": 53
    },
    {
      "midi": 64,
      "hit": false,
      "t": 159310.228,
      "d": 2025.8605833333277,
      "v": 52
    },
    {
      "midi": 67,
      "hit": false,
      "t": 159310.228,
      "d": 2025.8605833333277,
      "v": 51
    },
    {
      "midi": 71,
      "hit": false,
      "t": 159310.228,
      "d": 2025.8605833333277,
      "v": 51
    },
    {
      "midi": 76,
      "hit": false,
      "t": 159310.228,
      "d": 3060.342583333346,
      "v": 104
    },
    {
      "midi": 59,
      "hit": false,
      "t": 159353.33141666607,
      "d": 344.8273333333491,
      "v": 79
    },
    {
      "midi": 64,
      "hit": false,
      "t": 159353.33141666607,
      "d": 344.8273333333491,
      "v": 78
    },
    {
      "midi": 67,
      "hit": false,
      "t": 159353.33141666607,
      "d": 344.8273333333491,
      "v": 70
    },
    {
      "midi": 71,
      "hit": false,
      "t": 159353.33141666607,
      "d": 344.8273333333491,
      "v": 76
    },
    {
      "midi": 76,
      "hit": false,
      "t": 159353.33141666607,
      "d": 344.8273333333491,
      "v": 74
    },
    {
      "midi": 52,
      "hit": false,
      "t": 159655.05533333324,
      "d": 172.41366666666,
      "v": 62
    },
    {
      "midi": 52,
      "hit": false,
      "t": 159698.15874999942,
      "d": 301.72391666666954,
      "v": 50
    },
    {
      "midi": 59,
      "hit": false,
      "t": 159698.15874999942,
      "d": 301.72391666666954,
      "v": 63
    },
    {
      "midi": 64,
      "hit": false,
      "t": 159698.15874999942,
      "d": 301.72391666666954,
      "v": 65
    },
    {
      "midi": 67,
      "hit": false,
      "t": 159698.15874999942,
      "d": 301.72391666666954,
      "v": 61
    },
    {
      "midi": 71,
      "hit": false,
      "t": 159698.15874999942,
      "d": 301.72391666666954,
      "v": 69
    },
    {
      "midi": 76,
      "hit": false,
      "t": 159698.15874999942,
      "d": 301.72391666666954,
      "v": 61
    },
    {
      "midi": 52,
      "hit": false,
      "t": 159999.8826666661,
      "d": 344.82733333332,
      "v": 57
    },
    {
      "midi": 59,
      "hit": false,
      "t": 159999.8826666661,
      "d": 344.82733333332,
      "v": 68
    },
    {
      "midi": 64,
      "hit": false,
      "t": 159999.8826666661,
      "d": 344.82733333332,
      "v": 67
    },
    {
      "midi": 67,
      "hit": false,
      "t": 159999.8826666661,
      "d": 344.82733333332,
      "v": 61
    },
    {
      "midi": 71,
      "hit": false,
      "t": 159999.8826666661,
      "d": 344.82733333332,
      "v": 69
    },
    {
      "midi": 76,
      "hit": false,
      "t": 159999.8826666661,
      "d": 344.82733333332,
      "v": 63
    },
    {
      "midi": 52,
      "hit": false,
      "t": 159999.88266666656,
      "d": 172.41366666666,
      "v": 68
    },
    {
      "midi": 64,
      "hit": false,
      "t": 160344.7099999994,
      "d": 301.72391666666954,
      "v": 78
    },
    {
      "midi": 67,
      "hit": false,
      "t": 160344.7099999994,
      "d": 301.72391666666954,
      "v": 78
    },
    {
      "midi": 71,
      "hit": false,
      "t": 160344.7099999994,
      "d": 301.72391666666954,
      "v": 81
    },
    {
      "midi": 76,
      "hit": false,
      "t": 160344.7099999994,
      "d": 301.72391666666954,
      "v": 78
    },
    {
      "midi": 52,
      "hit": false,
      "t": 160344.7099999994,
      "d": 387.93074999999953,
      "v": 77
    },
    {
      "midi": 59,
      "hit": false,
      "t": 160344.7099999994,
      "d": 387.93074999999953,
      "v": 79
    },
    {
      "midi": 52,
      "hit": false,
      "t": 160344.70999999988,
      "d": 172.41366666666,
      "v": 66
    },
    {
      "midi": 64,
      "hit": false,
      "t": 160646.43391666608,
      "d": 387.93074999999953,
      "v": 69
    },
    {
      "midi": 67,
      "hit": false,
      "t": 160646.43391666608,
      "d": 387.93074999999953,
      "v": 62
    },
    {
      "midi": 71,
      "hit": false,
      "t": 160646.43391666608,
      "d": 387.93074999999953,
      "v": 72
    },
    {
      "midi": 76,
      "hit": false,
      "t": 160646.43391666608,
      "d": 387.93074999999953,
      "v": 66
    },
    {
      "midi": 52,
      "hit": false,
      "t": 160689.5373333332,
      "d": 172.41366666666,
      "v": 64
    },
    {
      "midi": 52,
      "hit": false,
      "t": 160732.6407499994,
      "d": 301.72391666666954,
      "v": 64
    },
    {
      "midi": 59,
      "hit": false,
      "t": 160732.6407499994,
      "d": 301.72391666666954,
      "v": 72
    },
    {
      "midi": 52,
      "hit": false,
      "t": 161034.36466666608,
      "d": 344.82733333332,
      "v": 67
    },
    {
      "midi": 59,
      "hit": false,
      "t": 161034.36466666608,
      "d": 344.82733333332,
      "v": 69
    },
    {
      "midi": 64,
      "hit": false,
      "t": 161034.36466666608,
      "d": 344.82733333332,
      "v": 70
    },
    {
      "midi": 67,
      "hit": false,
      "t": 161034.36466666608,
      "d": 344.82733333332,
      "v": 67
    },
    {
      "midi": 71,
      "hit": false,
      "t": 161034.36466666608,
      "d": 344.82733333332,
      "v": 73
    },
    {
      "midi": 76,
      "hit": false,
      "t": 161034.36466666608,
      "d": 344.82733333332,
      "v": 67
    },
    {
      "midi": 52,
      "hit": false,
      "t": 161034.36466666652,
      "d": 215.51708333333954,
      "v": 63
    },
    {
      "midi": 59,
      "hit": false,
      "t": 161379.1919999994,
      "d": 474.13758333332953,
      "v": 73
    },
    {
      "midi": 67,
      "hit": false,
      "t": 161379.1919999994,
      "d": 474.13758333332953,
      "v": 74
    },
    {
      "midi": 71,
      "hit": false,
      "t": 161379.1919999994,
      "d": 474.13758333332953,
      "v": 78
    },
    {
      "midi": 76,
      "hit": false,
      "t": 161379.1919999994,
      "d": 474.13758333332953,
      "v": 73
    },
    {
      "midi": 52,
      "hit": false,
      "t": 161379.1919999994,
      "d": 517.2410000000091,
      "v": 73
    },
    {
      "midi": 64,
      "hit": false,
      "t": 161379.1919999994,
      "d": 517.2410000000091,
      "v": 79
    },
    {
      "midi": 69,
      "hit": false,
      "t": 161379.19199999984,
      "d": 43.10341666667955,
      "v": 99
    },
    {
      "midi": 38,
      "hit": false,
      "t": 161379.19199999984,
      "d": 1896.5503333333472,
      "v": 105
    },
    {
      "midi": 50,
      "hit": false,
      "t": 161379.19199999984,
      "d": 1896.5503333333472,
      "v": 99
    },
    {
      "midi": 62,
      "hit": false,
      "t": 161379.19199999984,
      "d": 1896.5503333333472,
      "v": 89
    },
    {
      "midi": 66,
      "hit": false,
      "t": 161379.19199999984,
      "d": 1939.6537500000268,
      "v": 103
    },
    {
      "midi": 52,
      "hit": false,
      "t": 161379.19199999986,
      "d": 301.72391666666954,
      "v": 66
    },
    {
      "midi": 66,
      "hit": false,
      "t": 161379.192,
      "d": 2068.964000000007,
      "v": 40
    },
    {
      "midi": 69,
      "hit": false,
      "t": 161379.192,
      "d": 2068.964000000007,
      "v": 48
    },
    {
      "midi": 38,
      "hit": false,
      "t": 161379.192,
      "d": 2112.0674166666868,
      "v": 50
    },
    {
      "midi": 50,
      "hit": false,
      "t": 161379.192,
      "d": 2112.0674166666868,
      "v": 50
    },
    {
      "midi": 62,
      "hit": false,
      "t": 161379.192,
      "d": 2112.0674166666868,
      "v": 44
    },
    {
      "midi": 74,
      "hit": false,
      "t": 161680.91591666607,
      "d": 344.8273333333491,
      "v": 75
    },
    {
      "midi": 57,
      "hit": false,
      "t": 161680.91591666607,
      "d": 387.93075000002864,
      "v": 76
    },
    {
      "midi": 62,
      "hit": false,
      "t": 161680.91591666607,
      "d": 387.93075000002864,
      "v": 73
    },
    {
      "midi": 69,
      "hit": false,
      "t": 161680.91591666607,
      "d": 387.93075000002864,
      "v": 65
    },
    {
      "midi": 78,
      "hit": false,
      "t": 161680.91591666607,
      "d": 387.93075000002864,
      "v": 72
    },
    {
      "midi": 69,
      "hit": false,
      "t": 161724.01933333318,
      "d": 1724.1366666666872,
      "v": 51
    },
    {
      "midi": 50,
      "hit": false,
      "t": 161724.0193333332,
      "d": 258.62049999999,
      "v": 69
    },
    {
      "midi": 74,
      "hit": false,
      "t": 162025.74324999942,
      "d": 387.93074999999953,
      "v": 78
    },
    {
      "midi": 57,
      "hit": false,
      "t": 162068.8466666661,
      "d": 344.82733333332,
      "v": 71
    },
    {
      "midi": 62,
      "hit": false,
      "t": 162068.8466666661,
      "d": 344.82733333332,
      "v": 68
    },
    {
      "midi": 69,
      "hit": false,
      "t": 162068.8466666661,
      "d": 344.82733333332,
      "v": 69
    },
    {
      "midi": 78,
      "hit": false,
      "t": 162068.8466666661,
      "d": 344.82733333332,
      "v": 71
    },
    {
      "midi": 50,
      "hit": false,
      "t": 162068.84666666653,
      "d": 215.51708333333954,
      "v": 67
    },
    {
      "midi": 57,
      "hit": false,
      "t": 162413.67399999942,
      "d": 301.72391666666954,
      "v": 79
    },
    {
      "midi": 62,
      "hit": false,
      "t": 162413.67399999942,
      "d": 301.72391666666954,
      "v": 74
    },
    {
      "midi": 69,
      "hit": false,
      "t": 162413.67399999942,
      "d": 301.72391666666954,
      "v": 76
    },
    {
      "midi": 74,
      "hit": false,
      "t": 162413.67399999942,
      "d": 301.72391666666954,
      "v": 85
    },
    {
      "midi": 78,
      "hit": false,
      "t": 162413.67399999942,
      "d": 301.72391666666954,
      "v": 79
    },
    {
      "midi": 50,
      "hit": false,
      "t": 162413.67399999988,
      "d": 258.62049999999,
      "v": 66
    },
    {
      "midi": 74,
      "hit": false,
      "t": 162413.67400000003,
      "d": 948.2751666666591,
      "v": 66
    },
    {
      "midi": 57,
      "hit": false,
      "t": 162715.3979166661,
      "d": 344.82733333332,
      "v": 74
    },
    {
      "midi": 62,
      "hit": false,
      "t": 162715.3979166661,
      "d": 344.82733333332,
      "v": 67
    },
    {
      "midi": 69,
      "hit": false,
      "t": 162715.3979166661,
      "d": 344.82733333332,
      "v": 74
    },
    {
      "midi": 74,
      "hit": false,
      "t": 162715.3979166661,
      "d": 344.82733333332,
      "v": 81
    },
    {
      "midi": 78,
      "hit": false,
      "t": 162715.3979166661,
      "d": 344.82733333332,
      "v": 74
    },
    {
      "midi": 47,
      "hit": false,
      "t": 162758.5013333332,
      "d": 258.62049999999,
      "v": 67
    },
    {
      "midi": 57,
      "hit": false,
      "t": 163060.2252499994,
      "d": 474.13758333335863,
      "v": 75
    },
    {
      "midi": 62,
      "hit": false,
      "t": 163060.2252499994,
      "d": 474.13758333335863,
      "v": 74
    },
    {
      "midi": 69,
      "hit": false,
      "t": 163060.2252499994,
      "d": 474.13758333335863,
      "v": 76
    },
    {
      "midi": 74,
      "hit": false,
      "t": 163060.2252499994,
      "d": 474.13758333335863,
      "v": 77
    },
    {
      "midi": 78,
      "hit": false,
      "t": 163060.2252499994,
      "d": 474.13758333335863,
      "v": 73
    },
    {
      "midi": 50,
      "hit": false,
      "t": 163103.32866666652,
      "d": 301.72391666666954,
      "v": 75
    },
    {
      "midi": 71,
      "hit": false,
      "t": 163448.1559999994,
      "d": 301.72391666669864,
      "v": 79
    },
    {
      "midi": 59,
      "hit": false,
      "t": 163448.1559999994,
      "d": 387.93075000002864,
      "v": 80
    },
    {
      "midi": 64,
      "hit": false,
      "t": 163448.1559999994,
      "d": 387.93075000002864,
      "v": 80
    },
    {
      "midi": 67,
      "hit": false,
      "t": 163448.1559999994,
      "d": 387.93075000002864,
      "v": 76
    },
    {
      "midi": 76,
      "hit": false,
      "t": 163448.1559999994,
      "d": 387.93075000002864,
      "v": 74
    },
    {
      "midi": 52,
      "hit": false,
      "t": 163448.15599999987,
      "d": 172.41366666666,
      "v": 68
    },
    {
      "midi": 52,
      "hit": false,
      "t": 163448.15599999987,
      "d": 1810.3434999999881,
      "v": 98
    },
    {
      "midi": 40,
      "hit": false,
      "t": 163448.15599999987,
      "d": 1853.4469166666677,
      "v": 101
    },
    {
      "midi": 67,
      "hit": false,
      "t": 163448.15599999987,
      "d": 1896.5503333333472,
      "v": 100
    },
    {
      "midi": 64,
      "hit": false,
      "t": 163448.15599999987,
      "d": 1939.6537500000268,
      "v": 100
    },
    {
      "midi": 40,
      "hit": false,
      "t": 163448.15600000002,
      "d": 2025.8605833333568,
      "v": 51
    },
    {
      "midi": 52,
      "hit": false,
      "t": 163448.15600000002,
      "d": 2025.8605833333568,
      "v": 53
    },
    {
      "midi": 64,
      "hit": false,
      "t": 163448.15600000002,
      "d": 2025.8605833333568,
      "v": 52
    },
    {
      "midi": 67,
      "hit": false,
      "t": 163448.15600000002,
      "d": 2025.8605833333568,
      "v": 51
    },
    {
      "midi": 71,
      "hit": false,
      "t": 163448.15600000002,
      "d": 2025.8605833333568,
      "v": 51
    },
    {
      "midi": 76,
      "hit": false,
      "t": 163448.15600000002,
      "d": 991.3785833333386,
      "v": 66
    },
    {
      "midi": 52,
      "hit": false,
      "t": 163491.2594166661,
      "d": 560.3444166666886,
      "v": 70
    },
    {
      "midi": 71,
      "hit": false,
      "t": 163749.8799166661,
      "d": 387.93074999999953,
      "v": 78
    },
    {
      "midi": 52,
      "hit": false,
      "t": 163792.9833333332,
      "d": 129.31025000000955,
      "v": 64
    },
    {
      "midi": 59,
      "hit": false,
      "t": 163836.08674999943,
      "d": 301.72391666666954,
      "v": 65
    },
    {
      "midi": 64,
      "hit": false,
      "t": 163836.08674999943,
      "d": 301.72391666666954,
      "v": 70
    },
    {
      "midi": 67,
      "hit": false,
      "t": 163836.08674999943,
      "d": 301.72391666666954,
      "v": 71
    },
    {
      "midi": 76,
      "hit": false,
      "t": 163836.08674999943,
      "d": 301.72391666666954,
      "v": 71
    },
    {
      "midi": 52,
      "hit": false,
      "t": 164137.8106666661,
      "d": 344.82733333332,
      "v": 71
    },
    {
      "midi": 59,
      "hit": false,
      "t": 164137.8106666661,
      "d": 344.82733333332,
      "v": 75
    },
    {
      "midi": 64,
      "hit": false,
      "t": 164137.8106666661,
      "d": 344.82733333332,
      "v": 78
    },
    {
      "midi": 67,
      "hit": false,
      "t": 164137.8106666661,
      "d": 344.82733333332,
      "v": 72
    },
    {
      "midi": 71,
      "hit": false,
      "t": 164137.8106666661,
      "d": 344.82733333332,
      "v": 78
    },
    {
      "midi": 76,
      "hit": false,
      "t": 164137.8106666661,
      "d": 344.82733333332,
      "v": 71
    },
    {
      "midi": 52,
      "hit": false,
      "t": 164137.81066666654,
      "d": 129.31025000000955,
      "v": 62
    },
    {
      "midi": 52,
      "hit": false,
      "t": 164482.63799999942,
      "d": 301.72391666666954,
      "v": 78
    },
    {
      "midi": 59,
      "hit": false,
      "t": 164482.63799999942,
      "d": 301.72391666666954,
      "v": 81
    },
    {
      "midi": 64,
      "hit": false,
      "t": 164482.63799999942,
      "d": 301.72391666666954,
      "v": 79
    },
    {
      "midi": 67,
      "hit": false,
      "t": 164482.63799999942,
      "d": 301.72391666666954,
      "v": 78
    },
    {
      "midi": 71,
      "hit": false,
      "t": 164482.63799999942,
      "d": 301.72391666666954,
      "v": 85
    },
    {
      "midi": 76,
      "hit": false,
      "t": 164482.63799999942,
      "d": 301.72391666666954,
      "v": 77
    },
    {
      "midi": 52,
      "hit": false,
      "t": 164482.6379999999,
      "d": 129.31025000000955,
      "v": 63
    },
    {
      "midi": 76,
      "hit": false,
      "t": 164482.63800000004,
      "d": 2068.964000000007,
      "v": 70
    },
    {
      "midi": 67,
      "hit": false,
      "t": 164784.3619166661,
      "d": 344.82733333332,
      "v": 70
    },
    {
      "midi": 71,
      "hit": false,
      "t": 164784.3619166661,
      "d": 344.82733333332,
      "v": 78
    },
    {
      "midi": 52,
      "hit": false,
      "t": 164784.3619166661,
      "d": 387.93074999999953,
      "v": 71
    },
    {
      "midi": 59,
      "hit": false,
      "t": 164784.3619166661,
      "d": 387.93074999999953,
      "v": 76
    },
    {
      "midi": 64,
      "hit": false,
      "t": 164784.3619166661,
      "d": 387.93074999999953,
      "v": 77
    },
    {
      "midi": 76,
      "hit": false,
      "t": 164784.3619166661,
      "d": 387.93074999999953,
      "v": 71
    },
    {
      "midi": 52,
      "hit": false,
      "t": 164827.46533333324,
      "d": 172.41366666666,
      "v": 63
    },
    {
      "midi": 67,
      "hit": false,
      "t": 165129.1892499994,
      "d": 474.13758333332953,
      "v": 78
    },
    {
      "midi": 71,
      "hit": false,
      "t": 165129.1892499994,
      "d": 474.13758333332953,
      "v": 82
    },
    {
      "midi": 59,
      "hit": false,
      "t": 165172.2926666661,
      "d": 474.13758333332953,
      "v": 73
    },
    {
      "midi": 64,
      "hit": false,
      "t": 165172.2926666661,
      "d": 474.13758333332953,
      "v": 80
    },
    {
      "midi": 76,
      "hit": false,
      "t": 165172.2926666661,
      "d": 474.13758333332953,
      "v": 77
    },
    {
      "midi": 52,
      "hit": false,
      "t": 165172.2926666661,
      "d": 517.2410000000091,
      "v": 70
    },
    {
      "midi": 52,
      "hit": false,
      "t": 165172.29266666656,
      "d": 258.62049999999,
      "v": 62
    },
    {
      "midi": 69,
      "hit": false,
      "t": 165517.1199999994,
      "d": 301.72391666669864,
      "v": 72
    },
    {
      "midi": 74,
      "hit": false,
      "t": 165517.1199999994,
      "d": 301.72391666669864,
      "v": 79
    },
    {
      "midi": 78,
      "hit": false,
      "t": 165517.1199999994,
      "d": 301.72391666669864,
      "v": 77
    },
    {
      "midi": 57,
      "hit": false,
      "t": 165517.1199999994,
      "d": 387.93075000002864,
      "v": 83
    },
    {
      "midi": 62,
      "hit": false,
      "t": 165517.1199999994,
      "d": 387.93075000002864,
      "v": 78
    },
    {
      "midi": 50,
      "hit": false,
      "t": 165517.11999999988,
      "d": 258.62049999999,
      "v": 61
    },
    {
      "midi": 38,
      "hit": false,
      "t": 165517.1199999999,
      "d": 1939.6537499999977,
      "v": 102
    },
    {
      "midi": 50,
      "hit": false,
      "t": 165517.1199999999,
      "d": 1939.6537499999977,
      "v": 112
    },
    {
      "midi": 62,
      "hit": false,
      "t": 165517.1199999999,
      "d": 1939.6537499999977,
      "v": 95
    },
    {
      "midi": 69,
      "hit": false,
      "t": 165517.1199999999,
      "d": 1939.6537499999977,
      "v": 94
    },
    {
      "midi": 66,
      "hit": false,
      "t": 165517.1199999999,
      "d": 1982.7571666666772,
      "v": 100
    },
    {
      "midi": 66,
      "hit": false,
      "t": 165517.12000000005,
      "d": 2068.964000000007,
      "v": 40
    },
    {
      "midi": 69,
      "hit": false,
      "t": 165517.12000000005,
      "d": 2068.964000000007,
      "v": 48
    },
    {
      "midi": 38,
      "hit": false,
      "t": 165517.12000000005,
      "d": 2112.0674166666868,
      "v": 50
    },
    {
      "midi": 50,
      "hit": false,
      "t": 165517.12000000005,
      "d": 2112.0674166666868,
      "v": 50
    },
    {
      "midi": 62,
      "hit": false,
      "t": 165517.12000000005,
      "d": 2112.0674166666868,
      "v": 44
    },
    {
      "midi": 69,
      "hit": false,
      "t": 165818.8439166661,
      "d": 387.93074999999953,
      "v": 72
    },
    {
      "midi": 74,
      "hit": false,
      "t": 165818.8439166661,
      "d": 387.93074999999953,
      "v": 80
    },
    {
      "midi": 78,
      "hit": false,
      "t": 165818.8439166661,
      "d": 387.93074999999953,
      "v": 76
    },
    {
      "midi": 50,
      "hit": false,
      "t": 165861.9473333332,
      "d": 215.51708333333954,
      "v": 61
    },
    {
      "midi": 57,
      "hit": false,
      "t": 165905.05074999944,
      "d": 301.72391666666954,
      "v": 75
    },
    {
      "midi": 62,
      "hit": false,
      "t": 165905.05074999944,
      "d": 301.72391666666954,
      "v": 67
    },
    {
      "midi": 57,
      "hit": false,
      "t": 166206.7746666661,
      "d": 344.82733333332,
      "v": 80
    },
    {
      "midi": 62,
      "hit": false,
      "t": 166206.7746666661,
      "d": 344.82733333332,
      "v": 73
    },
    {
      "midi": 69,
      "hit": false,
      "t": 166206.7746666661,
      "d": 344.82733333332,
      "v": 79
    },
    {
      "midi": 74,
      "hit": false,
      "t": 166206.7746666661,
      "d": 344.82733333332,
      "v": 89
    },
    {
      "midi": 78,
      "hit": false,
      "t": 166206.7746666661,
      "d": 344.82733333332,
      "v": 83
    },
    {
      "midi": 50,
      "hit": false,
      "t": 166206.77466666655,
      "d": 172.41366666666,
      "v": 58
    },
    {
      "midi": 57,
      "hit": false,
      "t": 166551.60199999943,
      "d": 301.72391666666954,
      "v": 80
    },
    {
      "midi": 62,
      "hit": false,
      "t": 166551.60199999943,
      "d": 301.72391666666954,
      "v": 78
    },
    {
      "midi": 69,
      "hit": false,
      "t": 166551.60199999943,
      "d": 301.72391666666954,
      "v": 80
    },
    {
      "midi": 74,
      "hit": false,
      "t": 166551.60199999943,
      "d": 301.72391666666954,
      "v": 85
    },
    {
      "midi": 78,
      "hit": false,
      "t": 166551.60199999943,
      "d": 301.72391666666954,
      "v": 84
    },
    {
      "midi": 50,
      "hit": false,
      "t": 166551.60199999987,
      "d": 258.62049999999,
      "v": 61
    },
    {
      "midi": 74,
      "hit": false,
      "t": 166551.60200000004,
      "d": 991.3785833333386,
      "v": 67
    },
    {
      "midi": 57,
      "hit": false,
      "t": 166853.3259166661,
      "d": 387.93074999999953,
      "v": 79
    },
    {
      "midi": 62,
      "hit": false,
      "t": 166853.3259166661,
      "d": 387.93074999999953,
      "v": 77
    },
    {
      "midi": 69,
      "hit": false,
      "t": 166853.3259166661,
      "d": 387.93074999999953,
      "v": 77
    },
    {
      "midi": 74,
      "hit": false,
      "t": 166853.3259166661,
      "d": 387.93074999999953,
      "v": 84
    },
    {
      "midi": 78,
      "hit": false,
      "t": 166853.3259166661,
      "d": 387.93074999999953,
      "v": 80
    },
    {
      "midi": 47,
      "hit": false,
      "t": 166896.4293333332,
      "d": 344.82733333332,
      "v": 55
    },
    {
      "midi": 57,
      "hit": false,
      "t": 167241.2566666661,
      "d": 474.13758333332953,
      "v": 89
    },
    {
      "midi": 62,
      "hit": false,
      "t": 167241.2566666661,
      "d": 474.13758333332953,
      "v": 89
    },
    {
      "midi": 74,
      "hit": false,
      "t": 167241.2566666661,
      "d": 474.13758333332953,
      "v": 104
    },
    {
      "midi": 78,
      "hit": false,
      "t": 167241.2566666661,
      "d": 474.13758333332953,
      "v": 94
    },
    {
      "midi": 69,
      "hit": false,
      "t": 167241.2566666661,
      "d": 517.2410000000091,
      "v": 84
    },
    {
      "midi": 50,
      "hit": false,
      "t": 167241.2566666665,
      "d": 344.82733333332,
      "v": 69
    },
    {
      "midi": 59,
      "hit": false,
      "t": 167586.08399999942,
      "d": 948.2751666666882,
      "v": 75
    },
    {
      "midi": 67,
      "hit": false,
      "t": 167586.08399999942,
      "d": 948.2751666666882,
      "v": 68
    },
    {
      "midi": 71,
      "hit": false,
      "t": 167586.08399999942,
      "d": 948.2751666666882,
      "v": 75
    },
    {
      "midi": 64,
      "hit": false,
      "t": 167586.08399999942,
      "d": 1034.4820000000182,
      "v": 75
    },
    {
      "midi": 76,
      "hit": false,
      "t": 167586.08399999942,
      "d": 1034.4820000000182,
      "v": 71
    },
    {
      "midi": 52,
      "hit": false,
      "t": 167586.08399999942,
      "d": 2198.274250000046,
      "v": 73
    },
    {
      "midi": 52,
      "hit": false,
      "t": 167586.08399999983,
      "d": 1594.8264166666777,
      "v": 75
    },
    {
      "midi": 76,
      "hit": false,
      "t": 167586.08399999992,
      "d": 3060.342583333346,
      "v": 61
    },
    {
      "midi": 71,
      "hit": false,
      "t": 168534.3591666661,
      "d": 344.82733333332,
      "v": 68
    },
    {
      "midi": 67,
      "hit": false,
      "t": 168534.3591666661,
      "d": 431.0341666666791,
      "v": 73
    },
    {
      "midi": 59,
      "hit": false,
      "t": 168534.3591666661,
      "d": 1249.9990833333577,
      "v": 71
    },
    {
      "midi": 64,
      "hit": false,
      "t": 168620.56599999944,
      "d": 1206.8956666667073,
      "v": 81
    },
    {
      "midi": 76,
      "hit": false,
      "t": 168620.56599999944,
      "d": 1206.8956666667073,
      "v": 63
    },
    {
      "midi": 71,
      "hit": false,
      "t": 168922.2899166661,
      "d": 905.1717500000377,
      "v": 65
    },
    {
      "midi": 67,
      "hit": false,
      "t": 169267.11724999946,
      "d": 517.2410000000091,
      "v": 81
    },
    {
      "midi": 52,
      "hit": false,
      "t": 169310.22066666652,
      "d": 258.62049999999,
      "v": 64
    },
    {
      "midi": 74,
      "hit": false,
      "t": 169655.04799999946,
      "d": 905.1717500000086,
      "v": 80
    },
    {
      "midi": 69,
      "hit": false,
      "t": 169655.04799999946,
      "d": 948.2751666666882,
      "v": 74
    },
    {
      "midi": 62,
      "hit": false,
      "t": 169655.04799999946,
      "d": 1034.4820000000182,
      "v": 83
    },
    {
      "midi": 78,
      "hit": false,
      "t": 169655.04799999946,
      "d": 1077.5854166666977,
      "v": 77
    },
    {
      "midi": 57,
      "hit": false,
      "t": 169655.04799999946,
      "d": 2241.3776666666963,
      "v": 80
    },
    {
      "midi": 50,
      "hit": false,
      "t": 169655.04799999984,
      "d": 1594.8264166666777,
      "v": 68
    },
    {
      "midi": 74,
      "hit": false,
      "t": 170560.21974999947,
      "d": 431.0341666666791,
      "v": 74
    },
    {
      "midi": 69,
      "hit": false,
      "t": 170603.32316666614,
      "d": 431.0341666666791,
      "v": 78
    },
    {
      "midi": 74,
      "hit": false,
      "t": 170646.42658333326,
      "d": 172.41366666666,
      "v": 79
    },
    {
      "midi": 62,
      "hit": false,
      "t": 170689.52999999947,
      "d": 1206.8956666666782,
      "v": 80
    },
    {
      "midi": 78,
      "hit": false,
      "t": 170732.63341666615,
      "d": 1163.7922499999986,
      "v": 92
    },
    {
      "midi": 76,
      "hit": false,
      "t": 170818.84024999992,
      "d": 215.51708333333954,
      "v": 77
    },
    {
      "midi": 74,
      "hit": false,
      "t": 170991.25391666614,
      "d": 948.2751666666882,
      "v": 80
    },
    {
      "midi": 78,
      "hit": false,
      "t": 170991.25391666658,
      "d": 129.31025000000955,
      "v": 75
    },
    {
      "midi": 79,
      "hit": false,
      "t": 171163.66758333327,
      "d": 172.4136666666891,
      "v": 79
    },
    {
      "midi": 78,
      "hit": false,
      "t": 171292.97783333328,
      "d": 129.31025000000955,
      "v": 86
    },
    {
      "midi": 69,
      "hit": false,
      "t": 171336.0812499995,
      "d": 560.3444166666595,
      "v": 89
    },
    {
      "midi": 50,
      "hit": false,
      "t": 171379.18466666652,
      "d": 301.72391666666954,
      "v": 68
    },
    {
      "midi": 74,
      "hit": false,
      "t": 171422.2880833333,
      "d": 215.51708333333954,
      "v": 84
    },
    {
      "midi": 76,
      "hit": false,
      "t": 171637.80516666663,
      "d": 3103.4459999999963,
      "v": 71
    },
    {
      "midi": 59,
      "hit": false,
      "t": 171724.0119999995,
      "d": 948.2751666666591,
      "v": 75
    },
    {
      "midi": 67,
      "hit": false,
      "t": 171724.0119999995,
      "d": 948.2751666666591,
      "v": 68
    },
    {
      "midi": 71,
      "hit": false,
      "t": 171724.0119999995,
      "d": 948.2751666666591,
      "v": 75
    },
    {
      "midi": 64,
      "hit": false,
      "t": 171724.0119999995,
      "d": 1034.481999999989,
      "v": 75
    },
    {
      "midi": 76,
      "hit": false,
      "t": 171724.0119999995,
      "d": 1034.481999999989,
      "v": 71
    },
    {
      "midi": 52,
      "hit": false,
      "t": 171724.0119999995,
      "d": 2198.2742500000168,
      "v": 73
    },
    {
      "midi": 52,
      "hit": false,
      "t": 171724.01199999987,
      "d": 1594.8264166666777,
      "v": 70
    },
    {
      "midi": 71,
      "hit": false,
      "t": 172672.28716666615,
      "d": 344.82733333332,
      "v": 68
    },
    {
      "midi": 67,
      "hit": false,
      "t": 172672.28716666615,
      "d": 431.0341666666791,
      "v": 73
    },
    {
      "midi": 59,
      "hit": false,
      "t": 172672.28716666615,
      "d": 1249.9990833333577,
      "v": 71
    },
    {
      "midi": 64,
      "hit": false,
      "t": 172758.49399999948,
      "d": 1206.8956666667073,
      "v": 81
    },
    {
      "midi": 76,
      "hit": false,
      "t": 172758.49399999948,
      "d": 1206.8956666667073,
      "v": 63
    },
    {
      "midi": 71,
      "hit": false,
      "t": 173060.21791666615,
      "d": 905.1717500000377,
      "v": 65
    },
    {
      "midi": 67,
      "hit": false,
      "t": 173405.0452499995,
      "d": 517.2410000000091,
      "v": 81
    },
    {
      "midi": 52,
      "hit": false,
      "t": 173448.14866666656,
      "d": 258.62049999999,
      "v": 63
    },
    {
      "midi": 74,
      "hit": false,
      "t": 173792.9759999995,
      "d": 905.1717500000086,
      "v": 80
    },
    {
      "midi": 69,
      "hit": false,
      "t": 173792.9759999995,
      "d": 948.2751666666882,
      "v": 74
    },
    {
      "midi": 62,
      "hit": false,
      "t": 173792.9759999995,
      "d": 1034.4820000000182,
      "v": 83
    },
    {
      "midi": 78,
      "hit": false,
      "t": 173792.9759999995,
      "d": 1077.5854166666977,
      "v": 77
    },
    {
      "midi": 57,
      "hit": false,
      "t": 173792.9759999995,
      "d": 2241.3776666666963,
      "v": 80
    },
    {
      "midi": 50,
      "hit": false,
      "t": 173792.97599999988,
      "d": 1594.8264166666777,
      "v": 68
    },
    {
      "midi": 74,
      "hit": false,
      "t": 174698.1477499995,
      "d": 431.0341666666791,
      "v": 74
    },
    {
      "midi": 69,
      "hit": false,
      "t": 174741.2511666662,
      "d": 431.0341666666791,
      "v": 78
    },
    {
      "midi": 74,
      "hit": false,
      "t": 174784.3545833333,
      "d": 129.31025000000955,
      "v": 81
    },
    {
      "midi": 62,
      "hit": false,
      "t": 174827.45799999952,
      "d": 1206.8956666666782,
      "v": 80
    },
    {
      "midi": 78,
      "hit": false,
      "t": 174870.5614166662,
      "d": 1163.7922499999986,
      "v": 92
    },
    {
      "midi": 76,
      "hit": false,
      "t": 174956.76825,
      "d": 172.41366666666,
      "v": 79
    },
    {
      "midi": 74,
      "hit": false,
      "t": 175129.1819166662,
      "d": 948.2751666666882,
      "v": 80
    },
    {
      "midi": 78,
      "hit": false,
      "t": 175129.18191666665,
      "d": 172.41366666666,
      "v": 74
    },
    {
      "midi": 79,
      "hit": false,
      "t": 175301.5955833333,
      "d": 129.31025000000955,
      "v": 79
    },
    {
      "midi": 78,
      "hit": false,
      "t": 175387.80241666664,
      "d": 129.31025000000955,
      "v": 83
    },
    {
      "midi": 69,
      "hit": false,
      "t": 175474.00924999954,
      "d": 560.3444166666595,
      "v": 89
    },
    {
      "midi": 50,
      "hit": false,
      "t": 175517.11266666657,
      "d": 301.72391666666954,
      "v": 63
    },
    {
      "midi": 74,
      "hit": false,
      "t": 175560.21608333333,
      "d": 215.51708333333954,
      "v": 73
    },
    {
      "midi": 72,
      "hit": false,
      "t": 175775.73316666667,
      "d": 2112.0674166666577,
      "v": 74
    },
    {
      "midi": 67,
      "hit": false,
      "t": 175861.93999999954,
      "d": 905.1717500000086,
      "v": 80
    },
    {
      "midi": 60,
      "hit": false,
      "t": 175861.93999999954,
      "d": 948.2751666666882,
      "v": 71
    },
    {
      "midi": 64,
      "hit": false,
      "t": 175861.93999999954,
      "d": 948.2751666666882,
      "v": 79
    },
    {
      "midi": 76,
      "hit": false,
      "t": 175861.93999999954,
      "d": 948.2751666666882,
      "v": 76
    },
    {
      "midi": 72,
      "hit": false,
      "t": 175861.93999999954,
      "d": 1293.1025000000081,
      "v": 80
    },
    {
      "midi": 48,
      "hit": false,
      "t": 175861.93999999992,
      "d": 1551.7229999999981,
      "v": 84
    },
    {
      "midi": 67,
      "hit": false,
      "t": 176767.11174999955,
      "d": 431.0341666666791,
      "v": 72
    },
    {
      "midi": 60,
      "hit": false,
      "t": 176810.21516666622,
      "d": 1163.7922499999986,
      "v": 71
    },
    {
      "midi": 64,
      "hit": false,
      "t": 176810.21516666622,
      "d": 1163.7922499999986,
      "v": 67
    },
    {
      "midi": 76,
      "hit": false,
      "t": 176810.21516666622,
      "d": 1336.2059166666586,
      "v": 66
    },
    {
      "midi": 72,
      "hit": false,
      "t": 177198.14591666622,
      "d": 948.2751666666591,
      "v": 80
    },
    {
      "midi": 67,
      "hit": false,
      "t": 177542.97324999954,
      "d": 301.72391666666954,
      "v": 89
    },
    {
      "midi": 48,
      "hit": false,
      "t": 177586.07666666657,
      "d": 301.72391666666954,
      "v": 69
    },
    {
      "midi": 62,
      "hit": false,
      "t": 177844.6971666662,
      "d": 991.3785833333386,
      "v": 79
    },
    {
      "midi": 71,
      "hit": false,
      "t": 177844.6971666662,
      "d": 1034.4820000000182,
      "v": 79
    },
    {
      "midi": 74,
      "hit": false,
      "t": 177844.6971666662,
      "d": 1034.4820000000182,
      "v": 80
    },
    {
      "midi": 55,
      "hit": false,
      "t": 177844.6971666662,
      "d": 1120.6888333333482,
      "v": 76
    },
    {
      "midi": 67,
      "hit": false,
      "t": 177844.6971666662,
      "d": 1120.6888333333482,
      "v": 78
    },
    {
      "midi": 79,
      "hit": false,
      "t": 177844.6971666662,
      "d": 1120.6888333333482,
      "v": 74
    },
    {
      "midi": 71,
      "hit": false,
      "t": 177887.80058333333,
      "d": 2068.964000000007,
      "v": 68
    },
    {
      "midi": 55,
      "hit": false,
      "t": 177930.90399999992,
      "d": 1637.9298333333281,
      "v": 85
    },
    {
      "midi": 62,
      "hit": false,
      "t": 178836.07574999955,
      "d": 1293.1025000000373,
      "v": 78
    },
    {
      "midi": 74,
      "hit": false,
      "t": 178879.17916666623,
      "d": 387.93074999999953,
      "v": 74
    },
    {
      "midi": 71,
      "hit": false,
      "t": 178879.17916666623,
      "d": 431.0341666666791,
      "v": 72
    },
    {
      "midi": 55,
      "hit": false,
      "t": 178965.38599999956,
      "d": 1163.7922500000277,
      "v": 65
    },
    {
      "midi": 67,
      "hit": false,
      "t": 178965.38599999956,
      "d": 1206.8956666667073,
      "v": 82
    },
    {
      "midi": 79,
      "hit": false,
      "t": 178965.38599999956,
      "d": 1336.2059166667168,
      "v": 75
    },
    {
      "midi": 74,
      "hit": false,
      "t": 179267.10991666623,
      "d": 991.3785833333677,
      "v": 92
    },
    {
      "midi": 71,
      "hit": false,
      "t": 179611.93724999958,
      "d": 646.5512500000186,
      "v": 89
    },
    {
      "midi": 55,
      "hit": false,
      "t": 179655.04066666658,
      "d": 301.72391666666954,
      "v": 72
    },
    {
      "midi": 69,
      "hit": false,
      "t": 179956.76458333334,
      "d": 2025.8605833333277,
      "v": 73
    },
    {
      "midi": 72,
      "hit": false,
      "t": 179999.86799999958,
      "d": 905.1717500000377,
      "v": 78
    },
    {
      "midi": 60,
      "hit": false,
      "t": 179999.86799999958,
      "d": 948.2751666667173,
      "v": 80
    },
    {
      "midi": 69,
      "hit": false,
      "t": 179999.86799999958,
      "d": 948.2751666667173,
      "v": 71
    },
    {
      "midi": 53,
      "hit": false,
      "t": 179999.86799999958,
      "d": 1034.4820000000473,
      "v": 77
    },
    {
      "midi": 65,
      "hit": false,
      "t": 179999.86799999958,
      "d": 1034.4820000000473,
      "v": 81
    },
    {
      "midi": 77,
      "hit": false,
      "t": 179999.86799999958,
      "d": 1034.4820000000473,
      "v": 73
    },
    {
      "midi": 53,
      "hit": false,
      "t": 179999.86799999993,
      "d": 1551.7229999999981,
      "v": 74
    },
    {
      "midi": 72,
      "hit": false,
      "t": 180905.03974999962,
      "d": 387.93074999999953,
      "v": 47
    },
    {
      "midi": 69,
      "hit": false,
      "t": 180948.1431666663,
      "d": 431.03416666665,
      "v": 73
    },
    {
      "midi": 60,
      "hit": false,
      "t": 180948.1431666663,
      "d": 1249.9990833333286,
      "v": 68
    },
    {
      "midi": 53,
      "hit": false,
      "t": 181034.34999999963,
      "d": 1120.688833333319,
      "v": 62
    },
    {
      "midi": 65,
      "hit": false,
      "t": 181034.34999999963,
      "d": 1163.7922499999986,
      "v": 87
    },
    {
      "midi": 77,
      "hit": false,
      "t": 181034.34999999963,
      "d": 1293.1025000000081,
      "v": 77
    },
    {
      "midi": 72,
      "hit": false,
      "t": 181422.28074999963,
      "d": 905.1717500000086,
      "v": 99
    },
    {
      "midi": 69,
      "hit": false,
      "t": 181724.0046666663,
      "d": 603.4478333333391,
      "v": 87
    },
    {
      "midi": 53,
      "hit": false,
      "t": 181724.0046666666,
      "d": 301.72391666666954,
      "v": 70
    },
    {
      "midi": 67,
      "hit": false,
      "t": 181982.62516666666,
      "d": 2068.964000000007,
      "v": 65
    },
    {
      "midi": 67,
      "hit": false,
      "t": 182068.83199999962,
      "d": 905.1717500000086,
      "v": 77
    },
    {
      "midi": 59,
      "hit": false,
      "t": 182068.83199999962,
      "d": 948.2751666666882,
      "v": 79
    },
    {
      "midi": 71,
      "hit": false,
      "t": 182068.83199999962,
      "d": 948.2751666666882,
      "v": 79
    },
    {
      "midi": 76,
      "hit": false,
      "t": 182068.83199999962,
      "d": 948.2751666666882,
      "v": 74
    },
    {
      "midi": 52,
      "hit": false,
      "t": 182068.83199999962,
      "d": 1034.4820000000182,
      "v": 76
    },
    {
      "midi": 64,
      "hit": false,
      "t": 182068.83199999962,
      "d": 1034.4820000000182,
      "v": 82
    },
    {
      "midi": 52,
      "hit": false,
      "t": 182068.83199999994,
      "d": 1637.9298333333281,
      "v": 79
    },
    {
      "midi": 67,
      "hit": false,
      "t": 182974.00374999963,
      "d": 387.93075000002864,
      "v": 66
    },
    {
      "midi": 71,
      "hit": false,
      "t": 183017.1071666663,
      "d": 301.72391666666954,
      "v": 61
    },
    {
      "midi": 59,
      "hit": false,
      "t": 183017.1071666663,
      "d": 1120.6888333333482,
      "v": 70
    },
    {
      "midi": 76,
      "hit": false,
      "t": 183017.1071666663,
      "d": 1120.6888333333482,
      "v": 72
    },
    {
      "midi": 52,
      "hit": false,
      "t": 183103.31399999963,
      "d": 1034.4820000000182,
      "v": 39
    },
    {
      "midi": 64,
      "hit": false,
      "t": 183103.31399999963,
      "d": 1034.4820000000182,
      "v": 79
    },
    {
      "midi": 71,
      "hit": false,
      "t": 183405.03791666633,
      "d": 732.7580833333195,
      "v": 83
    },
    {
      "midi": 67,
      "hit": false,
      "t": 183749.86524999965,
      "d": 387.93074999999953,
      "v": 80
    },
    {
      "midi": 64,
      "hit": false,
      "t": 184051.58916666667,
      "d": 86.20683333333,
      "v": 61
    },
    {
      "midi": 59,
      "hit": false,
      "t": 184137.79599999965,
      "d": 948.2751666666591,
      "v": 75
    },
    {
      "midi": 67,
      "hit": false,
      "t": 184137.79599999965,
      "d": 948.2751666666591,
      "v": 68
    },
    {
      "midi": 71,
      "hit": false,
      "t": 184137.79599999965,
      "d": 948.2751666666591,
      "v": 75
    },
    {
      "midi": 64,
      "hit": false,
      "t": 184137.79599999965,
      "d": 1034.481999999989,
      "v": 75
    },
    {
      "midi": 76,
      "hit": false,
      "t": 184137.79599999965,
      "d": 1034.481999999989,
      "v": 71
    },
    {
      "midi": 52,
      "hit": false,
      "t": 184137.79599999965,
      "d": 2198.2742500000168,
      "v": 73
    },
    {
      "midi": 52,
      "hit": false,
      "t": 184137.79599999994,
      "d": 1594.8264166666777,
      "v": 75
    },
    {
      "midi": 64,
      "hit": false,
      "t": 184137.796,
      "d": 3060.342583333346,
      "v": 70
    },
    {
      "midi": 71,
      "hit": false,
      "t": 185086.0711666663,
      "d": 344.82733333332,
      "v": 68
    },
    {
      "midi": 67,
      "hit": false,
      "t": 185086.0711666663,
      "d": 431.0341666666791,
      "v": 73
    },
    {
      "midi": 59,
      "hit": false,
      "t": 185086.0711666663,
      "d": 1249.9990833333577,
      "v": 71
    },
    {
      "midi": 64,
      "hit": false,
      "t": 185172.27799999964,
      "d": 1206.8956666667073,
      "v": 81
    },
    {
      "midi": 76,
      "hit": false,
      "t": 185172.27799999964,
      "d": 1206.8956666667073,
      "v": 63
    },
    {
      "midi": 71,
      "hit": false,
      "t": 185474.0019166663,
      "d": 905.1717500000377,
      "v": 65
    },
    {
      "midi": 67,
      "hit": false,
      "t": 185818.82924999966,
      "d": 517.2410000000091,
      "v": 81
    },
    {
      "midi": 52,
      "hit": false,
      "t": 185861.93266666663,
      "d": 258.62049999999,
      "v": 64
    },
    {
      "midi": 74,
      "hit": false,
      "t": 186206.75999999966,
      "d": 905.1717500000086,
      "v": 80
    },
    {
      "midi": 69,
      "hit": false,
      "t": 186206.75999999966,
      "d": 948.2751666666882,
      "v": 74
    },
    {
      "midi": 62,
      "hit": false,
      "t": 186206.75999999966,
      "d": 1034.4820000000182,
      "v": 83
    },
    {
      "midi": 78,
      "hit": false,
      "t": 186206.75999999966,
      "d": 1077.5854166666977,
      "v": 77
    },
    {
      "midi": 57,
      "hit": false,
      "t": 186206.75999999966,
      "d": 2241.3776666666963,
      "v": 80
    },
    {
      "midi": 50,
      "hit": false,
      "t": 186206.75999999995,
      "d": 1594.8264166666777,
      "v": 68
    },
    {
      "midi": 74,
      "hit": false,
      "t": 187111.93174999967,
      "d": 431.0341666666791,
      "v": 74
    },
    {
      "midi": 69,
      "hit": false,
      "t": 187155.03516666635,
      "d": 431.0341666666791,
      "v": 78
    },
    {
      "midi": 62,
      "hit": false,
      "t": 187155.03516666667,
      "d": 172.4136666666891,
      "v": 84
    },
    {
      "midi": 62,
      "hit": false,
      "t": 187241.24199999968,
      "d": 1206.8956666666782,
      "v": 80
    },
    {
      "midi": 78,
      "hit": false,
      "t": 187284.34541666636,
      "d": 1163.7922499999986,
      "v": 92
    },
    {
      "midi": 64,
      "hit": false,
      "t": 187327.44883333336,
      "d": 215.51708333333954,
      "v": 79
    },
    {
      "midi": 74,
      "hit": false,
      "t": 187542.96591666635,
      "d": 948.2751666666882,
      "v": 80
    },
    {
      "midi": 66,
      "hit": false,
      "t": 187542.9659166667,
      "d": 86.20683333333,
      "v": 80
    },
    {
      "midi": 67,
      "hit": false,
      "t": 187672.2761666667,
      "d": 172.4136666666891,
      "v": 75
    },
    {
      "midi": 66,
      "hit": false,
      "t": 187801.58641666672,
      "d": 129.31025000000955,
      "v": 101
    },
    {
      "midi": 69,
      "hit": false,
      "t": 187887.7932499997,
      "d": 560.3444166666595,
      "v": 89
    },
    {
      "midi": 50,
      "hit": false,
      "t": 187930.89666666664,
      "d": 301.72391666666954,
      "v": 68
    },
    {
      "midi": 62,
      "hit": false,
      "t": 188017.10350000006,
      "d": 301.72391666666954,
      "v": 78
    },
    {
      "midi": 59,
      "hit": false,
      "t": 188275.7239999997,
      "d": 948.2751666666591,
      "v": 75
    },
    {
      "midi": 67,
      "hit": false,
      "t": 188275.7239999997,
      "d": 948.2751666666591,
      "v": 68
    },
    {
      "midi": 71,
      "hit": false,
      "t": 188275.7239999997,
      "d": 948.2751666666591,
      "v": 75
    },
    {
      "midi": 64,
      "hit": false,
      "t": 188275.7239999997,
      "d": 1034.481999999989,
      "v": 75
    },
    {
      "midi": 76,
      "hit": false,
      "t": 188275.7239999997,
      "d": 1034.481999999989,
      "v": 71
    },
    {
      "midi": 52,
      "hit": false,
      "t": 188275.7239999997,
      "d": 2198.2742500000168,
      "v": 73
    },
    {
      "midi": 52,
      "hit": false,
      "t": 188275.724,
      "d": 1594.8264166666777,
      "v": 70
    },
    {
      "midi": 64,
      "hit": false,
      "t": 188405.03425000006,
      "d": 2887.9289166666567,
      "v": 60
    },
    {
      "midi": 71,
      "hit": false,
      "t": 189223.99916666636,
      "d": 344.82733333332,
      "v": 68
    },
    {
      "midi": 67,
      "hit": false,
      "t": 189223.99916666636,
      "d": 431.0341666666791,
      "v": 73
    },
    {
      "midi": 59,
      "hit": false,
      "t": 189223.99916666636,
      "d": 1249.9990833333577,
      "v": 71
    },
    {
      "midi": 64,
      "hit": false,
      "t": 189310.20599999969,
      "d": 1206.8956666667073,
      "v": 81
    },
    {
      "midi": 76,
      "hit": false,
      "t": 189310.20599999969,
      "d": 1206.8956666667073,
      "v": 63
    },
    {
      "midi": 71,
      "hit": false,
      "t": 189611.92991666635,
      "d": 905.1717500000377,
      "v": 65
    },
    {
      "midi": 67,
      "hit": false,
      "t": 189956.7572499997,
      "d": 517.2410000000091,
      "v": 81
    },
    {
      "midi": 52,
      "hit": false,
      "t": 189999.86066666667,
      "d": 258.62049999999,
      "v": 63
    },
    {
      "midi": 74,
      "hit": false,
      "t": 190344.6879999997,
      "d": 905.1717500000086,
      "v": 80
    },
    {
      "midi": 69,
      "hit": false,
      "t": 190344.6879999997,
      "d": 948.2751666666882,
      "v": 74
    },
    {
      "midi": 62,
      "hit": false,
      "t": 190344.6879999997,
      "d": 1034.4820000000182,
      "v": 83
    },
    {
      "midi": 78,
      "hit": false,
      "t": 190344.6879999997,
      "d": 1077.5854166666977,
      "v": 77
    },
    {
      "midi": 57,
      "hit": false,
      "t": 190344.6879999997,
      "d": 2241.3776666666963,
      "v": 80
    },
    {
      "midi": 50,
      "hit": false,
      "t": 190344.688,
      "d": 1594.8264166666777,
      "v": 68
    },
    {
      "midi": 74,
      "hit": false,
      "t": 191249.8597499997,
      "d": 431.0341666666791,
      "v": 74
    },
    {
      "midi": 69,
      "hit": false,
      "t": 191292.9631666664,
      "d": 431.0341666666791,
      "v": 78
    },
    {
      "midi": 62,
      "hit": false,
      "t": 191379.16999999972,
      "d": 1206.8956666666782,
      "v": 80
    },
    {
      "midi": 62,
      "hit": false,
      "t": 191379.17000000004,
      "d": 129.31025000000955,
      "v": 80
    },
    {
      "midi": 78,
      "hit": false,
      "t": 191422.2734166664,
      "d": 1163.7922499999986,
      "v": 92
    },
    {
      "midi": 64,
      "hit": false,
      "t": 191508.48025000005,
      "d": 172.41366666666,
      "v": 88
    },
    {
      "midi": 74,
      "hit": false,
      "t": 191680.8939166664,
      "d": 948.2751666666882,
      "v": 80
    },
    {
      "midi": 66,
      "hit": false,
      "t": 191680.8939166667,
      "d": 86.20683333333,
      "v": 76
    },
    {
      "midi": 67,
      "hit": false,
      "t": 191767.10075000004,
      "d": 215.51708333333954,
      "v": 85
    },
    {
      "midi": 66,
      "hit": false,
      "t": 191939.5144166667,
      "d": 86.2068333333591,
      "v": 100
    },
    {
      "midi": 69,
      "hit": false,
      "t": 192025.72124999974,
      "d": 560.3444166666595,
      "v": 89
    },
    {
      "midi": 50,
      "hit": false,
      "t": 192068.82466666668,
      "d": 301.72391666666954,
      "v": 63
    },
    {
      "midi": 62,
      "hit": false,
      "t": 192068.82466666674,
      "d": 215.51708333333954,
      "v": 81
    },
    {
      "midi": 60,
      "hit": false,
      "t": 192327.44516666676,
      "d": 2112.0674166666868,
      "v": 56
    },
    {
      "midi": 67,
      "hit": false,
      "t": 192413.65199999974,
      "d": 905.1717500000086,
      "v": 80
    },
    {
      "midi": 60,
      "hit": false,
      "t": 192413.65199999974,
      "d": 948.2751666666882,
      "v": 71
    },
    {
      "midi": 64,
      "hit": false,
      "t": 192413.65199999974,
      "d": 948.2751666666882,
      "v": 79
    },
    {
      "midi": 76,
      "hit": false,
      "t": 192413.65199999974,
      "d": 948.2751666666882,
      "v": 76
    },
    {
      "midi": 72,
      "hit": false,
      "t": 192413.65199999974,
      "d": 1293.1025000000081,
      "v": 80
    },
    {
      "midi": 48,
      "hit": false,
      "t": 192413.65200000003,
      "d": 1551.7229999999981,
      "v": 84
    },
    {
      "midi": 67,
      "hit": false,
      "t": 193318.82374999975,
      "d": 431.0341666666791,
      "v": 72
    },
    {
      "midi": 60,
      "hit": false,
      "t": 193361.92716666643,
      "d": 1163.7922499999986,
      "v": 71
    },
    {
      "midi": 64,
      "hit": false,
      "t": 193361.92716666643,
      "d": 1163.7922499999986,
      "v": 67
    },
    {
      "midi": 76,
      "hit": false,
      "t": 193361.92716666643,
      "d": 1336.2059166666586,
      "v": 66
    },
    {
      "midi": 72,
      "hit": false,
      "t": 193749.85791666643,
      "d": 948.2751666666591,
      "v": 80
    },
    {
      "midi": 67,
      "hit": false,
      "t": 194094.68524999975,
      "d": 301.72391666666954,
      "v": 89
    },
    {
      "midi": 48,
      "hit": false,
      "t": 194137.7886666667,
      "d": 301.72391666666954,
      "v": 69
    },
    {
      "midi": 62,
      "hit": false,
      "t": 194396.40916666642,
      "d": 991.3785833333386,
      "v": 79
    },
    {
      "midi": 71,
      "hit": false,
      "t": 194396.40916666642,
      "d": 1034.4820000000182,
      "v": 79
    },
    {
      "midi": 74,
      "hit": false,
      "t": 194396.40916666642,
      "d": 1034.4820000000182,
      "v": 80
    },
    {
      "midi": 55,
      "hit": false,
      "t": 194396.40916666642,
      "d": 1120.6888333333482,
      "v": 76
    },
    {
      "midi": 67,
      "hit": false,
      "t": 194396.40916666642,
      "d": 1120.6888333333482,
      "v": 78
    },
    {
      "midi": 79,
      "hit": false,
      "t": 194396.40916666642,
      "d": 1120.6888333333482,
      "v": 74
    },
    {
      "midi": 59,
      "hit": false,
      "t": 194396.40916666677,
      "d": 2068.964000000007,
      "v": 78
    },
    {
      "midi": 55,
      "hit": false,
      "t": 194482.61600000004,
      "d": 1637.9298333333281,
      "v": 85
    },
    {
      "midi": 62,
      "hit": false,
      "t": 195387.78774999976,
      "d": 1293.1025000000373,
      "v": 78
    },
    {
      "midi": 74,
      "hit": false,
      "t": 195430.89116666644,
      "d": 387.93074999999953,
      "v": 74
    },
    {
      "midi": 71,
      "hit": false,
      "t": 195430.89116666644,
      "d": 431.0341666666791,
      "v": 72
    },
    {
      "midi": 55,
      "hit": false,
      "t": 195517.09799999977,
      "d": 1163.7922500000277,
      "v": 65
    },
    {
      "midi": 67,
      "hit": false,
      "t": 195517.09799999977,
      "d": 1206.8956666667073,
      "v": 82
    },
    {
      "midi": 79,
      "hit": false,
      "t": 195517.09799999977,
      "d": 1336.2059166667168,
      "v": 75
    },
    {
      "midi": 74,
      "hit": false,
      "t": 195818.82191666643,
      "d": 991.3785833333677,
      "v": 92
    },
    {
      "midi": 71,
      "hit": false,
      "t": 196163.64924999978,
      "d": 646.5512500000186,
      "v": 89
    },
    {
      "midi": 55,
      "hit": false,
      "t": 196206.7526666667,
      "d": 301.72391666666954,
      "v": 72
    },
    {
      "midi": 57,
      "hit": false,
      "t": 196465.37316666677,
      "d": 2068.964000000007,
      "v": 65
    },
    {
      "midi": 72,
      "hit": false,
      "t": 196551.57999999978,
      "d": 905.1717500000377,
      "v": 78
    },
    {
      "midi": 60,
      "hit": false,
      "t": 196551.57999999978,
      "d": 948.2751666667173,
      "v": 80
    },
    {
      "midi": 69,
      "hit": false,
      "t": 196551.57999999978,
      "d": 948.2751666667173,
      "v": 71
    },
    {
      "midi": 53,
      "hit": false,
      "t": 196551.57999999978,
      "d": 1034.4820000000473,
      "v": 77
    },
    {
      "midi": 65,
      "hit": false,
      "t": 196551.57999999978,
      "d": 1034.4820000000473,
      "v": 81
    },
    {
      "midi": 77,
      "hit": false,
      "t": 196551.57999999978,
      "d": 1034.4820000000473,
      "v": 73
    },
    {
      "midi": 53,
      "hit": false,
      "t": 196551.58000000005,
      "d": 1551.7229999999981,
      "v": 74
    },
    {
      "midi": 72,
      "hit": false,
      "t": 197456.75174999982,
      "d": 387.93074999999953,
      "v": 47
    },
    {
      "midi": 69,
      "hit": false,
      "t": 197499.8551666665,
      "d": 431.03416666665,
      "v": 73
    },
    {
      "midi": 60,
      "hit": false,
      "t": 197499.8551666665,
      "d": 1249.9990833333286,
      "v": 68
    },
    {
      "midi": 53,
      "hit": false,
      "t": 197586.06199999983,
      "d": 1120.688833333319,
      "v": 62
    },
    {
      "midi": 65,
      "hit": false,
      "t": 197586.06199999983,
      "d": 1163.7922499999986,
      "v": 87
    },
    {
      "midi": 77,
      "hit": false,
      "t": 197586.06199999983,
      "d": 1293.1025000000081,
      "v": 77
    },
    {
      "midi": 72,
      "hit": false,
      "t": 197973.99274999983,
      "d": 905.1717500000086,
      "v": 99
    },
    {
      "midi": 69,
      "hit": false,
      "t": 198275.7166666665,
      "d": 603.4478333333391,
      "v": 87
    },
    {
      "midi": 53,
      "hit": false,
      "t": 198275.7166666667,
      "d": 301.72391666666954,
      "v": 70
    },
    {
      "midi": 55,
      "hit": false,
      "t": 198577.44058333346,
      "d": 1939.6537499999977,
      "v": 77
    },
    {
      "midi": 67,
      "hit": false,
      "t": 198620.54399999982,
      "d": 905.1717500000086,
      "v": 77
    },
    {
      "midi": 59,
      "hit": false,
      "t": 198620.54399999982,
      "d": 948.2751666666882,
      "v": 79
    },
    {
      "midi": 71,
      "hit": false,
      "t": 198620.54399999982,
      "d": 948.2751666666882,
      "v": 79
    },
    {
      "midi": 76,
      "hit": false,
      "t": 198620.54399999982,
      "d": 948.2751666666882,
      "v": 74
    },
    {
      "midi": 52,
      "hit": false,
      "t": 198620.54399999982,
      "d": 1034.4820000000182,
      "v": 76
    },
    {
      "midi": 64,
      "hit": false,
      "t": 198620.54399999982,
      "d": 1034.4820000000182,
      "v": 82
    },
    {
      "midi": 52,
      "hit": false,
      "t": 198620.54400000005,
      "d": 1637.9298333333281,
      "v": 79
    },
    {
      "midi": 67,
      "hit": false,
      "t": 199525.71574999983,
      "d": 387.93075000002864,
      "v": 66
    },
    {
      "midi": 71,
      "hit": false,
      "t": 199568.8191666665,
      "d": 301.72391666666954,
      "v": 61
    },
    {
      "midi": 76,
      "hit": false,
      "t": 199568.8191666665,
      "d": 1120.6888333333482,
      "v": 72
    },
    {
      "midi": 59,
      "hit": false,
      "t": 199568.8191666665,
      "d": 1982.7571666666772,
      "v": 70
    },
    {
      "midi": 64,
      "hit": false,
      "t": 199655.02599999984,
      "d": 1034.4820000000182,
      "v": 79
    },
    {
      "midi": 52,
      "hit": false,
      "t": 199655.02599999984,
      "d": 1939.6537500000268,
      "v": 39
    },
    {
      "midi": 71,
      "hit": false,
      "t": 199956.74991666654,
      "d": 1594.8264166666486,
      "v": 83
    },
    {
      "midi": 67,
      "hit": false,
      "t": 200301.57724999986,
      "d": 1249.9990833333286,
      "v": 80
    },
    {
      "midi": 57,
      "hit": false,
      "t": 200689.50799999986,
      "d": 905.1717500000086,
      "v": 78
    },
    {
      "midi": 69,
      "hit": false,
      "t": 200689.50799999986,
      "d": 905.1717500000086,
      "v": 79
    },
    {
      "midi": 76,
      "hit": false,
      "t": 200689.50799999986,
      "d": 905.1717500000086,
      "v": 89
    },
    {
      "midi": 64,
      "hit": false,
      "t": 200689.50799999986,
      "d": 948.2751666666882,
      "v": 92
    },
    {
      "midi": 73,
      "hit": false,
      "t": 200689.50799999986,
      "d": 991.3785833333677,
      "v": 94
    },
    {
      "midi": 45,
      "hit": false,
      "t": 200689.50800000006,
      "d": 948.2751666666591,
      "v": 69
    },
    {
      "midi": 45,
      "hit": false,
      "t": 200689.50800000012,
      "d": 2025.8605833333568,
      "v": 112
    },
    {
      "midi": 57,
      "hit": false,
      "t": 201637.78316666654,
      "d": 905.1717500000377,
      "v": 81
    },
    {
      "midi": 64,
      "hit": false,
      "t": 201637.78316666654,
      "d": 905.1717500000377,
      "v": 76
    },
    {
      "midi": 69,
      "hit": false,
      "t": 201637.78316666654,
      "d": 948.2751666667173,
      "v": 75
    },
    {
      "midi": 76,
      "hit": false,
      "t": 201723.9899999999,
      "d": 905.1717500000377,
      "v": 77
    },
    {
      "midi": 73,
      "hit": false,
      "t": 201723.9899999999,
      "d": 1034.4820000000473,
      "v": 74
    },
    {
      "midi": 45,
      "hit": false,
      "t": 201723.99000000005,
      "d": 905.1717500000086,
      "v": 69
    },
    {
      "midi": 57,
      "hit": false,
      "t": 201723.99000000014,
      "d": 905.1717500000086,
      "v": 112
    },
    {
      "midi": 57,
      "hit": false,
      "t": 202629.16174999994,
      "d": 905.1717500000086,
      "v": 78
    },
    {
      "midi": 64,
      "hit": false,
      "t": 202672.26516666662,
      "d": 905.1717500000086,
      "v": 94
    },
    {
      "midi": 69,
      "hit": false,
      "t": 202758.47199999995,
      "d": 862.0683333333582,
      "v": 68
    },
    {
      "midi": 76,
      "hit": false,
      "t": 202758.47199999995,
      "d": 862.0683333333582,
      "v": 99
    },
    {
      "midi": 73,
      "hit": false,
      "t": 202758.47199999995,
      "d": 948.2751666667173,
      "v": 79
    },
    {
      "midi": 45,
      "hit": false,
      "t": 202758.47200000007,
      "d": 905.1717500000086,
      "v": 69
    },
    {
      "midi": 64,
      "hit": false,
      "t": 202758.47200000015,
      "d": 948.2751666666591,
      "v": 103
    },
    {
      "midi": 57,
      "hit": false,
      "t": 202758.47200000015,
      "d": 1681.0332500000077,
      "v": 104
    },
    {
      "midi": 45,
      "hit": false,
      "t": 202758.47200000015,
      "d": 1767.2400833333377,
      "v": 72
    },
    {
      "midi": 61,
      "hit": false,
      "t": 202758.47200000015,
      "d": 2068.964000000007,
      "v": 101
    },
    {
      "midi": 57,
      "hit": false,
      "t": 203663.64375,
      "d": 775.8614999999991,
      "v": 79
    },
    {
      "midi": 64,
      "hit": false,
      "t": 203706.74716666667,
      "d": 732.7580833333195,
      "v": 92
    },
    {
      "midi": 69,
      "hit": false,
      "t": 203792.954,
      "d": 646.5512499999895,
      "v": 76
    },
    {
      "midi": 73,
      "hit": false,
      "t": 203792.954,
      "d": 646.5512499999895,
      "v": 85
    },
    {
      "midi": 76,
      "hit": false,
      "t": 203792.954,
      "d": 646.5512499999895,
      "v": 104
    },
    {
      "midi": 45,
      "hit": false,
      "t": 203792.95400000009,
      "d": 258.62049999999,
      "v": 62
    },
    {
      "midi": 64,
      "hit": false,
      "t": 203792.95400000014,
      "d": 991.3785833333386,
      "v": 99
    },
    {
      "midi": 69,
      "hit": false,
      "t": 203792.95400000014,
      "d": 991.3785833333386,
      "v": 99
    },
    {
      "midi": 45,
      "hit": false,
      "t": 204137.7813333334,
      "d": 301.72391666666954,
      "v": 64
    },
    {
      "midi": 57,
      "hit": false,
      "t": 204439.50525,
      "d": 387.93074999999953,
      "v": 65
    },
    {
      "midi": 64,
      "hit": false,
      "t": 204439.50525,
      "d": 387.93074999999953,
      "v": 85
    },
    {
      "midi": 73,
      "hit": false,
      "t": 204439.50525,
      "d": 387.93074999999953,
      "v": 82
    },
    {
      "midi": 76,
      "hit": false,
      "t": 204439.50525,
      "d": 387.93074999999953,
      "v": 85
    },
    {
      "midi": 69,
      "hit": false,
      "t": 204482.60866666667,
      "d": 387.93074999999953,
      "v": 81
    },
    {
      "midi": 47,
      "hit": false,
      "t": 204482.60866666675,
      "d": 301.72391666666954,
      "v": 62
    },
    {
      "midi": 60,
      "hit": false,
      "t": 204827.436,
      "d": 818.9649166666786,
      "v": 78
    },
    {
      "midi": 64,
      "hit": false,
      "t": 204827.436,
      "d": 862.0683333333582,
      "v": 81
    },
    {
      "midi": 67,
      "hit": false,
      "t": 204827.436,
      "d": 862.0683333333582,
      "v": 80
    },
    {
      "midi": 76,
      "hit": false,
      "t": 204827.436,
      "d": 862.0683333333582,
      "v": 79
    },
    {
      "midi": 72,
      "hit": false,
      "t": 204827.436,
      "d": 948.2751666667173,
      "v": 79
    },
    {
      "midi": 36,
      "hit": false,
      "t": 204827.43600000007,
      "d": 3663.790416666656,
      "v": 61
    },
    {
      "midi": 48,
      "hit": false,
      "t": 204827.43600000007,
      "d": 3663.790416666656,
      "v": 72
    },
    {
      "midi": 60,
      "hit": false,
      "t": 204827.43600000007,
      "d": 3706.8938333333354,
      "v": 60
    },
    {
      "midi": 64,
      "hit": false,
      "t": 204827.43600000007,
      "d": 3706.8938333333354,
      "v": 74
    },
    {
      "midi": 67,
      "hit": false,
      "t": 204827.43600000007,
      "d": 3706.8938333333354,
      "v": 59
    },
    {
      "midi": 48,
      "hit": false,
      "t": 204827.4360000001,
      "d": 905.1717500000086,
      "v": 70
    },
    {
      "midi": 36,
      "hit": false,
      "t": 204827.43600000016,
      "d": 3836.204083333316,
      "v": 109
    },
    {
      "midi": 48,
      "hit": false,
      "t": 204827.43600000016,
      "d": 3879.3074999999953,
      "v": 119
    },
    {
      "midi": 60,
      "hit": false,
      "t": 205732.60775000002,
      "d": 905.1717500000086,
      "v": 80
    },
    {
      "midi": 64,
      "hit": false,
      "t": 205775.7111666667,
      "d": 905.1717500000086,
      "v": 87
    },
    {
      "midi": 67,
      "hit": false,
      "t": 205775.7111666667,
      "d": 948.2751666666882,
      "v": 71
    },
    {
      "midi": 76,
      "hit": false,
      "t": 205861.91800000003,
      "d": 862.0683333333582,
      "v": 92
    },
    {
      "midi": 72,
      "hit": false,
      "t": 205861.91800000003,
      "d": 905.1717500000377,
      "v": 79
    },
    {
      "midi": 48,
      "hit": false,
      "t": 205861.91800000012,
      "d": 905.1717500000086,
      "v": 68
    },
    {
      "midi": 52,
      "hit": false,
      "t": 205861.91800000015,
      "d": 1594.8264166666486,
      "v": 107
    },
    {
      "midi": 55,
      "hit": false,
      "t": 205861.91800000015,
      "d": 1594.8264166666486,
      "v": 109
    },
    {
      "midi": 60,
      "hit": false,
      "t": 206680.8829166667,
      "d": 948.2751666667173,
      "v": 92
    },
    {
      "midi": 76,
      "hit": false,
      "t": 206810.19316666675,
      "d": 862.0683333333582,
      "v": 95
    },
    {
      "midi": 67,
      "hit": false,
      "t": 206810.19316666675,
      "d": 905.1717500000377,
      "v": 71
    },
    {
      "midi": 64,
      "hit": false,
      "t": 206810.19316666675,
      "d": 948.2751666667173,
      "v": 84
    },
    {
      "midi": 72,
      "hit": false,
      "t": 206810.19316666675,
      "d": 948.2751666667173,
      "v": 78
    },
    {
      "midi": 48,
      "hit": false,
      "t": 206896.40000000014,
      "d": 905.1717500000086,
      "v": 64
    },
    {
      "midi": 60,
      "hit": false,
      "t": 206896.40000000014,
      "d": 603.4478333333391,
      "v": 107
    },
    {
      "midi": 72,
      "hit": false,
      "t": 207801.57175000015,
      "d": 301.72391666666954,
      "v": 78
    },
    {
      "midi": 60,
      "hit": false,
      "t": 207801.57175000015,
      "d": 732.7580833333195,
      "v": 74
    },
    {
      "midi": 67,
      "hit": false,
      "t": 207801.57175000015,
      "d": 732.7580833333195,
      "v": 70
    },
    {
      "midi": 76,
      "hit": false,
      "t": 207801.57175000015,
      "d": 732.7580833333195,
      "v": 74
    },
    {
      "midi": 48,
      "hit": false,
      "t": 207930.88200000016,
      "d": 646.5512499999895,
      "v": 64
    },
    {
      "midi": 64,
      "hit": false,
      "t": 207930.88200000016,
      "d": 646.5512499999895,
      "v": 95
    },
    {
      "midi": 72,
      "hit": false,
      "t": 207930.88200000016,
      "d": 862.0683333333291,
      "v": 119
    },
    {
      "midi": 72,
      "hit": false,
      "t": 208189.50250000015,
      "d": 431.0341666666791,
      "v": 33
    },
    {
      "midi": 50,
      "hit": false,
      "t": 208620.53666666683,
      "d": 258.62049999999,
      "v": 71
    },
    {
      "midi": 60,
      "hit": false,
      "t": 208620.53666666683,
      "d": 344.82733333332,
      "v": 80
    },
    {
      "midi": 64,
      "hit": false,
      "t": 208620.53666666683,
      "d": 344.82733333332,
      "v": 94
    },
    {
      "midi": 67,
      "hit": false,
      "t": 208620.53666666683,
      "d": 344.82733333332,
      "v": 82
    },
    {
      "midi": 72,
      "hit": false,
      "t": 208620.53666666683,
      "d": 344.82733333332,
      "v": 94
    },
    {
      "midi": 76,
      "hit": false,
      "t": 208620.53666666683,
      "d": 344.82733333332,
      "v": 85
    },
    {
      "midi": 76,
      "hit": false,
      "t": 208965.36400000006,
      "d": 3060.342583333346,
      "v": 104
    },
    {
      "midi": 64,
      "hit": false,
      "t": 208965.3640000001,
      "d": 2198.2742500000168,
      "v": 62
    },
    {
      "midi": 67,
      "hit": false,
      "t": 208965.3640000001,
      "d": 2198.2742500000168,
      "v": 72
    },
    {
      "midi": 71,
      "hit": false,
      "t": 208965.3640000001,
      "d": 2198.2742500000168,
      "v": 64
    },
    {
      "midi": 40,
      "hit": false,
      "t": 208965.3640000001,
      "d": 2241.3776666666963,
      "v": 62
    },
    {
      "midi": 52,
      "hit": false,
      "t": 208965.3640000001,
      "d": 2241.3776666666963,
      "v": 65
    },
    {
      "midi": 52,
      "hit": false,
      "t": 208965.36400000015,
      "d": 215.51708333333954,
      "v": 68
    },
    {
      "midi": 52,
      "hit": false,
      "t": 208965.36400000015,
      "d": 387.93074999999953,
      "v": 73
    },
    {
      "midi": 55,
      "hit": false,
      "t": 208965.36400000015,
      "d": 1810.3434999999881,
      "v": 92
    },
    {
      "midi": 64,
      "hit": false,
      "t": 208965.36400000015,
      "d": 1853.4469166666677,
      "v": 90
    },
    {
      "midi": 40,
      "hit": false,
      "t": 208965.36400000015,
      "d": 1896.5503333333472,
      "v": 104
    },
    {
      "midi": 52,
      "hit": false,
      "t": 208965.36400000015,
      "d": 1896.5503333333472,
      "v": 124
    },
    {
      "midi": 59,
      "hit": false,
      "t": 209008.46741666683,
      "d": 344.82733333332,
      "v": 79
    },
    {
      "midi": 64,
      "hit": false,
      "t": 209008.46741666683,
      "d": 344.82733333332,
      "v": 78
    },
    {
      "midi": 67,
      "hit": false,
      "t": 209008.46741666683,
      "d": 344.82733333332,
      "v": 70
    },
    {
      "midi": 71,
      "hit": false,
      "t": 209008.46741666683,
      "d": 344.82733333332,
      "v": 76
    },
    {
      "midi": 76,
      "hit": false,
      "t": 209008.46741666683,
      "d": 344.82733333332,
      "v": 74
    },
    {
      "midi": 52,
      "hit": false,
      "t": 209310.1913333335,
      "d": 172.41366666666,
      "v": 62
    },
    {
      "midi": 52,
      "hit": false,
      "t": 209353.29475000015,
      "d": 301.72391666666954,
      "v": 50
    },
    {
      "midi": 59,
      "hit": false,
      "t": 209353.29475000015,
      "d": 301.72391666666954,
      "v": 63
    },
    {
      "midi": 64,
      "hit": false,
      "t": 209353.29475000015,
      "d": 301.72391666666954,
      "v": 65
    },
    {
      "midi": 67,
      "hit": false,
      "t": 209353.29475000015,
      "d": 301.72391666666954,
      "v": 61
    },
    {
      "midi": 71,
      "hit": false,
      "t": 209353.29475000015,
      "d": 301.72391666666954,
      "v": 69
    },
    {
      "midi": 76,
      "hit": false,
      "t": 209353.29475000015,
      "d": 301.72391666666954,
      "v": 61
    },
    {
      "midi": 52,
      "hit": false,
      "t": 209655.01866666682,
      "d": 172.41366666666,
      "v": 68
    },
    {
      "midi": 52,
      "hit": false,
      "t": 209655.01866666682,
      "d": 344.82733333332,
      "v": 57
    },
    {
      "midi": 59,
      "hit": false,
      "t": 209655.01866666682,
      "d": 344.82733333332,
      "v": 68
    },
    {
      "midi": 64,
      "hit": false,
      "t": 209655.01866666682,
      "d": 344.82733333332,
      "v": 67
    },
    {
      "midi": 67,
      "hit": false,
      "t": 209655.01866666682,
      "d": 344.82733333332,
      "v": 61
    },
    {
      "midi": 71,
      "hit": false,
      "t": 209655.01866666682,
      "d": 344.82733333332,
      "v": 69
    },
    {
      "midi": 76,
      "hit": false,
      "t": 209655.01866666682,
      "d": 344.82733333332,
      "v": 63
    },
    {
      "midi": 52,
      "hit": false,
      "t": 209999.84600000014,
      "d": 172.41366666666,
      "v": 66
    },
    {
      "midi": 64,
      "hit": false,
      "t": 209999.84600000014,
      "d": 301.72391666666954,
      "v": 78
    },
    {
      "midi": 67,
      "hit": false,
      "t": 209999.84600000014,
      "d": 301.72391666666954,
      "v": 78
    },
    {
      "midi": 71,
      "hit": false,
      "t": 209999.84600000014,
      "d": 301.72391666666954,
      "v": 81
    },
    {
      "midi": 76,
      "hit": false,
      "t": 209999.84600000014,
      "d": 301.72391666666954,
      "v": 78
    },
    {
      "midi": 52,
      "hit": false,
      "t": 209999.84600000014,
      "d": 387.93074999999953,
      "v": 77
    },
    {
      "midi": 59,
      "hit": false,
      "t": 209999.84600000014,
      "d": 387.93074999999953,
      "v": 79
    },
    {
      "midi": 64,
      "hit": false,
      "t": 210301.5699166668,
      "d": 387.93074999999953,
      "v": 69
    },
    {
      "midi": 67,
      "hit": false,
      "t": 210301.5699166668,
      "d": 387.93074999999953,
      "v": 62
    },
    {
      "midi": 71,
      "hit": false,
      "t": 210301.5699166668,
      "d": 387.93074999999953,
      "v": 72
    },
    {
      "midi": 76,
      "hit": false,
      "t": 210301.5699166668,
      "d": 387.93074999999953,
      "v": 66
    },
    {
      "midi": 52,
      "hit": false,
      "t": 210344.67333333346,
      "d": 172.41366666666,
      "v": 64
    },
    {
      "midi": 52,
      "hit": false,
      "t": 210387.77675000014,
      "d": 301.72391666666954,
      "v": 64
    },
    {
      "midi": 59,
      "hit": false,
      "t": 210387.77675000014,
      "d": 301.72391666666954,
      "v": 72
    },
    {
      "midi": 52,
      "hit": false,
      "t": 210689.50066666678,
      "d": 215.51708333333954,
      "v": 63
    },
    {
      "midi": 52,
      "hit": false,
      "t": 210689.5006666668,
      "d": 344.82733333332,
      "v": 67
    },
    {
      "midi": 59,
      "hit": false,
      "t": 210689.5006666668,
      "d": 344.82733333332,
      "v": 69
    },
    {
      "midi": 64,
      "hit": false,
      "t": 210689.5006666668,
      "d": 344.82733333332,
      "v": 70
    },
    {
      "midi": 67,
      "hit": false,
      "t": 210689.5006666668,
      "d": 344.82733333332,
      "v": 67
    },
    {
      "midi": 71,
      "hit": false,
      "t": 210689.5006666668,
      "d": 344.82733333332,
      "v": 73
    },
    {
      "midi": 76,
      "hit": false,
      "t": 210689.5006666668,
      "d": 344.82733333332,
      "v": 67
    },
    {
      "midi": 38,
      "hit": false,
      "t": 211034.3280000001,
      "d": 2025.8605833333568,
      "v": 60
    },
    {
      "midi": 50,
      "hit": false,
      "t": 211034.3280000001,
      "d": 2068.9640000000363,
      "v": 69
    },
    {
      "midi": 62,
      "hit": false,
      "t": 211034.3280000001,
      "d": 2068.9640000000363,
      "v": 59
    },
    {
      "midi": 66,
      "hit": false,
      "t": 211034.3280000001,
      "d": 2068.9640000000363,
      "v": 64
    },
    {
      "midi": 69,
      "hit": false,
      "t": 211034.3280000001,
      "d": 2068.9640000000363,
      "v": 59
    },
    {
      "midi": 52,
      "hit": false,
      "t": 211034.32800000013,
      "d": 301.72391666666954,
      "v": 66
    },
    {
      "midi": 59,
      "hit": false,
      "t": 211034.32800000013,
      "d": 474.13758333332953,
      "v": 73
    },
    {
      "midi": 67,
      "hit": false,
      "t": 211034.32800000013,
      "d": 474.13758333332953,
      "v": 74
    },
    {
      "midi": 71,
      "hit": false,
      "t": 211034.32800000013,
      "d": 474.13758333332953,
      "v": 78
    },
    {
      "midi": 76,
      "hit": false,
      "t": 211034.32800000013,
      "d": 474.13758333332953,
      "v": 73
    },
    {
      "midi": 52,
      "hit": false,
      "t": 211034.32800000013,
      "d": 517.2410000000091,
      "v": 73
    },
    {
      "midi": 64,
      "hit": false,
      "t": 211034.32800000013,
      "d": 517.2410000000091,
      "v": 79
    },
    {
      "midi": 69,
      "hit": false,
      "t": 211034.32800000015,
      "d": 43.10341666667955,
      "v": 99
    },
    {
      "midi": 38,
      "hit": false,
      "t": 211034.32800000015,
      "d": 1896.5503333333472,
      "v": 105
    },
    {
      "midi": 50,
      "hit": false,
      "t": 211034.32800000015,
      "d": 1896.5503333333472,
      "v": 99
    },
    {
      "midi": 62,
      "hit": false,
      "t": 211034.32800000015,
      "d": 1896.5503333333472,
      "v": 89
    },
    {
      "midi": 66,
      "hit": false,
      "t": 211034.32800000015,
      "d": 1939.6537500000268,
      "v": 103
    },
    {
      "midi": 74,
      "hit": false,
      "t": 211336.0519166668,
      "d": 344.8273333333491,
      "v": 75
    },
    {
      "midi": 57,
      "hit": false,
      "t": 211336.0519166668,
      "d": 387.93075000002864,
      "v": 76
    },
    {
      "midi": 62,
      "hit": false,
      "t": 211336.0519166668,
      "d": 387.93075000002864,
      "v": 73
    },
    {
      "midi": 69,
      "hit": false,
      "t": 211336.0519166668,
      "d": 387.93075000002864,
      "v": 65
    },
    {
      "midi": 78,
      "hit": false,
      "t": 211336.0519166668,
      "d": 387.93075000002864,
      "v": 72
    },
    {
      "midi": 50,
      "hit": false,
      "t": 211379.15533333347,
      "d": 258.62049999999,
      "v": 69
    },
    {
      "midi": 69,
      "hit": false,
      "t": 211379.1553333335,
      "d": 1724.1366666666872,
      "v": 51
    },
    {
      "midi": 74,
      "hit": false,
      "t": 211680.87925000014,
      "d": 387.93074999999953,
      "v": 78
    },
    {
      "midi": 50,
      "hit": false,
      "t": 211723.9826666668,
      "d": 215.51708333333954,
      "v": 67
    },
    {
      "midi": 57,
      "hit": false,
      "t": 211723.98266666682,
      "d": 344.82733333332,
      "v": 71
    },
    {
      "midi": 62,
      "hit": false,
      "t": 211723.98266666682,
      "d": 344.82733333332,
      "v": 68
    },
    {
      "midi": 69,
      "hit": false,
      "t": 211723.98266666682,
      "d": 344.82733333332,
      "v": 69
    },
    {
      "midi": 78,
      "hit": false,
      "t": 211723.98266666682,
      "d": 344.82733333332,
      "v": 71
    },
    {
      "midi": 74,
      "hit": false,
      "t": 212068.81000000008,
      "d": 948.2751666666591,
      "v": 66
    },
    {
      "midi": 50,
      "hit": false,
      "t": 212068.81000000014,
      "d": 258.62049999999,
      "v": 66
    },
    {
      "midi": 57,
      "hit": false,
      "t": 212068.81000000014,
      "d": 301.72391666666954,
      "v": 79
    },
    {
      "midi": 62,
      "hit": false,
      "t": 212068.81000000014,
      "d": 301.72391666666954,
      "v": 74
    },
    {
      "midi": 69,
      "hit": false,
      "t": 212068.81000000014,
      "d": 301.72391666666954,
      "v": 76
    },
    {
      "midi": 74,
      "hit": false,
      "t": 212068.81000000014,
      "d": 301.72391666666954,
      "v": 85
    },
    {
      "midi": 78,
      "hit": false,
      "t": 212068.81000000014,
      "d": 301.72391666666954,
      "v": 79
    },
    {
      "midi": 57,
      "hit": false,
      "t": 212370.5339166668,
      "d": 344.82733333332,
      "v": 74
    },
    {
      "midi": 62,
      "hit": false,
      "t": 212370.5339166668,
      "d": 344.82733333332,
      "v": 67
    },
    {
      "midi": 69,
      "hit": false,
      "t": 212370.5339166668,
      "d": 344.82733333332,
      "v": 74
    },
    {
      "midi": 74,
      "hit": false,
      "t": 212370.5339166668,
      "d": 344.82733333332,
      "v": 81
    },
    {
      "midi": 78,
      "hit": false,
      "t": 212370.5339166668,
      "d": 344.82733333332,
      "v": 74
    },
    {
      "midi": 47,
      "hit": false,
      "t": 212413.63733333346,
      "d": 258.62049999999,
      "v": 67
    },
    {
      "midi": 57,
      "hit": false,
      "t": 212715.36125000013,
      "d": 474.13758333335863,
      "v": 75
    },
    {
      "midi": 62,
      "hit": false,
      "t": 212715.36125000013,
      "d": 474.13758333335863,
      "v": 74
    },
    {
      "midi": 69,
      "hit": false,
      "t": 212715.36125000013,
      "d": 474.13758333335863,
      "v": 76
    },
    {
      "midi": 74,
      "hit": false,
      "t": 212715.36125000013,
      "d": 474.13758333335863,
      "v": 77
    },
    {
      "midi": 78,
      "hit": false,
      "t": 212715.36125000013,
      "d": 474.13758333335863,
      "v": 73
    },
    {
      "midi": 50,
      "hit": false,
      "t": 212758.46466666678,
      "d": 301.72391666666954,
      "v": 75
    },
    {
      "midi": 76,
      "hit": false,
      "t": 213103.29200000007,
      "d": 991.3785833333386,
      "v": 66
    },
    {
      "midi": 52,
      "hit": false,
      "t": 213103.29200000013,
      "d": 172.41366666666,
      "v": 68
    },
    {
      "midi": 71,
      "hit": false,
      "t": 213103.29200000013,
      "d": 301.72391666669864,
      "v": 79
    },
    {
      "midi": 59,
      "hit": false,
      "t": 213103.29200000013,
      "d": 387.93075000002864,
      "v": 80
    },
    {
      "midi": 64,
      "hit": false,
      "t": 213103.29200000013,
      "d": 387.93075000002864,
      "v": 80
    },
    {
      "midi": 67,
      "hit": false,
      "t": 213103.29200000013,
      "d": 387.93075000002864,
      "v": 76
    },
    {
      "midi": 76,
      "hit": false,
      "t": 213103.29200000013,
      "d": 387.93075000002864,
      "v": 74
    },
    {
      "midi": 40,
      "hit": false,
      "t": 213103.29200000013,
      "d": 2025.8605833333277,
      "v": 51
    },
    {
      "midi": 52,
      "hit": false,
      "t": 213103.29200000013,
      "d": 2025.8605833333277,
      "v": 53
    },
    {
      "midi": 64,
      "hit": false,
      "t": 213103.29200000013,
      "d": 2025.8605833333277,
      "v": 52
    },
    {
      "midi": 67,
      "hit": false,
      "t": 213103.29200000013,
      "d": 2025.8605833333277,
      "v": 51
    },
    {
      "midi": 71,
      "hit": false,
      "t": 213103.29200000013,
      "d": 2025.8605833333277,
      "v": 51
    },
    {
      "midi": 52,
      "hit": false,
      "t": 213103.2920000002,
      "d": 1810.3434999999881,
      "v": 98
    },
    {
      "midi": 40,
      "hit": false,
      "t": 213103.2920000002,
      "d": 1853.4469166666677,
      "v": 101
    },
    {
      "midi": 67,
      "hit": false,
      "t": 213103.2920000002,
      "d": 1896.5503333333472,
      "v": 100
    },
    {
      "midi": 64,
      "hit": false,
      "t": 213103.2920000002,
      "d": 1939.6537500000268,
      "v": 100
    },
    {
      "midi": 52,
      "hit": false,
      "t": 213146.3954166668,
      "d": 560.3444166666886,
      "v": 70
    },
    {
      "midi": 71,
      "hit": false,
      "t": 213405.01591666683,
      "d": 387.93074999999953,
      "v": 78
    },
    {
      "midi": 52,
      "hit": false,
      "t": 213448.11933333345,
      "d": 129.31025000000955,
      "v": 64
    },
    {
      "midi": 59,
      "hit": false,
      "t": 213491.22275000016,
      "d": 301.72391666666954,
      "v": 65
    },
    {
      "midi": 64,
      "hit": false,
      "t": 213491.22275000016,
      "d": 301.72391666666954,
      "v": 70
    },
    {
      "midi": 67,
      "hit": false,
      "t": 213491.22275000016,
      "d": 301.72391666666954,
      "v": 71
    },
    {
      "midi": 76,
      "hit": false,
      "t": 213491.22275000016,
      "d": 301.72391666666954,
      "v": 71
    },
    {
      "midi": 52,
      "hit": false,
      "t": 213792.9466666668,
      "d": 129.31025000000955,
      "v": 62
    },
    {
      "midi": 52,
      "hit": false,
      "t": 213792.94666666683,
      "d": 344.82733333332,
      "v": 71
    },
    {
      "midi": 59,
      "hit": false,
      "t": 213792.94666666683,
      "d": 344.82733333332,
      "v": 75
    },
    {
      "midi": 64,
      "hit": false,
      "t": 213792.94666666683,
      "d": 344.82733333332,
      "v": 78
    },
    {
      "midi": 67,
      "hit": false,
      "t": 213792.94666666683,
      "d": 344.82733333332,
      "v": 72
    },
    {
      "midi": 71,
      "hit": false,
      "t": 213792.94666666683,
      "d": 344.82733333332,
      "v": 78
    },
    {
      "midi": 76,
      "hit": false,
      "t": 213792.94666666683,
      "d": 344.82733333332,
      "v": 71
    },
    {
      "midi": 76,
      "hit": false,
      "t": 214137.7740000001,
      "d": 2068.964000000007,
      "v": 70
    },
    {
      "midi": 52,
      "hit": false,
      "t": 214137.77400000015,
      "d": 129.31025000000955,
      "v": 63
    },
    {
      "midi": 52,
      "hit": false,
      "t": 214137.77400000015,
      "d": 301.72391666666954,
      "v": 78
    },
    {
      "midi": 59,
      "hit": false,
      "t": 214137.77400000015,
      "d": 301.72391666666954,
      "v": 81
    },
    {
      "midi": 64,
      "hit": false,
      "t": 214137.77400000015,
      "d": 301.72391666666954,
      "v": 79
    },
    {
      "midi": 67,
      "hit": false,
      "t": 214137.77400000015,
      "d": 301.72391666666954,
      "v": 78
    },
    {
      "midi": 71,
      "hit": false,
      "t": 214137.77400000015,
      "d": 301.72391666666954,
      "v": 85
    },
    {
      "midi": 76,
      "hit": false,
      "t": 214137.77400000015,
      "d": 301.72391666666954,
      "v": 77
    },
    {
      "midi": 67,
      "hit": false,
      "t": 214439.49791666682,
      "d": 344.82733333332,
      "v": 70
    },
    {
      "midi": 71,
      "hit": false,
      "t": 214439.49791666682,
      "d": 344.82733333332,
      "v": 78
    },
    {
      "midi": 52,
      "hit": false,
      "t": 214439.49791666682,
      "d": 387.93074999999953,
      "v": 71
    },
    {
      "midi": 59,
      "hit": false,
      "t": 214439.49791666682,
      "d": 387.93074999999953,
      "v": 76
    },
    {
      "midi": 64,
      "hit": false,
      "t": 214439.49791666682,
      "d": 387.93074999999953,
      "v": 77
    },
    {
      "midi": 76,
      "hit": false,
      "t": 214439.49791666682,
      "d": 387.93074999999953,
      "v": 71
    },
    {
      "midi": 52,
      "hit": false,
      "t": 214482.6013333335,
      "d": 172.41366666666,
      "v": 63
    },
    {
      "midi": 67,
      "hit": false,
      "t": 214784.32525000014,
      "d": 474.13758333332953,
      "v": 78
    },
    {
      "midi": 71,
      "hit": false,
      "t": 214784.32525000014,
      "d": 474.13758333332953,
      "v": 82
    },
    {
      "midi": 52,
      "hit": false,
      "t": 214827.42866666682,
      "d": 258.62049999999,
      "v": 62
    },
    {
      "midi": 59,
      "hit": false,
      "t": 214827.42866666682,
      "d": 474.13758333332953,
      "v": 73
    },
    {
      "midi": 64,
      "hit": false,
      "t": 214827.42866666682,
      "d": 474.13758333332953,
      "v": 80
    },
    {
      "midi": 76,
      "hit": false,
      "t": 214827.42866666682,
      "d": 474.13758333332953,
      "v": 77
    },
    {
      "midi": 52,
      "hit": false,
      "t": 214827.42866666682,
      "d": 517.2410000000091,
      "v": 70
    },
    {
      "midi": 50,
      "hit": false,
      "t": 215172.25600000014,
      "d": 258.62049999999,
      "v": 61
    },
    {
      "midi": 69,
      "hit": false,
      "t": 215172.25600000014,
      "d": 301.72391666669864,
      "v": 72
    },
    {
      "midi": 74,
      "hit": false,
      "t": 215172.25600000014,
      "d": 301.72391666669864,
      "v": 79
    },
    {
      "midi": 78,
      "hit": false,
      "t": 215172.25600000014,
      "d": 301.72391666669864,
      "v": 77
    },
    {
      "midi": 57,
      "hit": false,
      "t": 215172.25600000014,
      "d": 387.93075000002864,
      "v": 83
    },
    {
      "midi": 62,
      "hit": false,
      "t": 215172.25600000014,
      "d": 387.93075000002864,
      "v": 78
    },
    {
      "midi": 66,
      "hit": false,
      "t": 215172.25600000014,
      "d": 2068.964000000007,
      "v": 40
    },
    {
      "midi": 69,
      "hit": false,
      "t": 215172.25600000014,
      "d": 2068.964000000007,
      "v": 48
    },
    {
      "midi": 38,
      "hit": false,
      "t": 215172.25600000014,
      "d": 2112.0674166666868,
      "v": 50
    },
    {
      "midi": 50,
      "hit": false,
      "t": 215172.25600000014,
      "d": 2112.0674166666868,
      "v": 50
    },
    {
      "midi": 62,
      "hit": false,
      "t": 215172.25600000014,
      "d": 2112.0674166666868,
      "v": 44
    },
    {
      "midi": 38,
      "hit": false,
      "t": 215172.25600000023,
      "d": 1939.6537499999977,
      "v": 102
    },
    {
      "midi": 50,
      "hit": false,
      "t": 215172.25600000023,
      "d": 1939.6537499999977,
      "v": 112
    },
    {
      "midi": 62,
      "hit": false,
      "t": 215172.25600000023,
      "d": 1939.6537499999977,
      "v": 95
    },
    {
      "midi": 69,
      "hit": false,
      "t": 215172.25600000023,
      "d": 1939.6537499999977,
      "v": 94
    },
    {
      "midi": 66,
      "hit": false,
      "t": 215172.25600000023,
      "d": 1982.7571666666772,
      "v": 100
    },
    {
      "midi": 69,
      "hit": false,
      "t": 215473.97991666684,
      "d": 387.93074999999953,
      "v": 72
    },
    {
      "midi": 74,
      "hit": false,
      "t": 215473.97991666684,
      "d": 387.93074999999953,
      "v": 80
    },
    {
      "midi": 78,
      "hit": false,
      "t": 215473.97991666684,
      "d": 387.93074999999953,
      "v": 76
    },
    {
      "midi": 50,
      "hit": false,
      "t": 215517.08333333346,
      "d": 215.51708333333954,
      "v": 61
    },
    {
      "midi": 57,
      "hit": false,
      "t": 215560.18675000017,
      "d": 301.72391666666954,
      "v": 75
    },
    {
      "midi": 62,
      "hit": false,
      "t": 215560.18675000017,
      "d": 301.72391666666954,
      "v": 67
    },
    {
      "midi": 50,
      "hit": false,
      "t": 215861.9106666668,
      "d": 172.41366666666,
      "v": 58
    },
    {
      "midi": 57,
      "hit": false,
      "t": 215861.91066666684,
      "d": 344.82733333332,
      "v": 80
    },
    {
      "midi": 62,
      "hit": false,
      "t": 215861.91066666684,
      "d": 344.82733333332,
      "v": 73
    },
    {
      "midi": 69,
      "hit": false,
      "t": 215861.91066666684,
      "d": 344.82733333332,
      "v": 79
    },
    {
      "midi": 74,
      "hit": false,
      "t": 215861.91066666684,
      "d": 344.82733333332,
      "v": 89
    },
    {
      "midi": 78,
      "hit": false,
      "t": 215861.91066666684,
      "d": 344.82733333332,
      "v": 83
    },
    {
      "midi": 74,
      "hit": false,
      "t": 216206.7380000001,
      "d": 991.3785833333386,
      "v": 67
    },
    {
      "midi": 50,
      "hit": false,
      "t": 216206.73800000013,
      "d": 258.62049999999,
      "v": 61
    },
    {
      "midi": 57,
      "hit": false,
      "t": 216206.73800000016,
      "d": 301.72391666666954,
      "v": 80
    },
    {
      "midi": 62,
      "hit": false,
      "t": 216206.73800000016,
      "d": 301.72391666666954,
      "v": 78
    },
    {
      "midi": 69,
      "hit": false,
      "t": 216206.73800000016,
      "d": 301.72391666666954,
      "v": 80
    },
    {
      "midi": 74,
      "hit": false,
      "t": 216206.73800000016,
      "d": 301.72391666666954,
      "v": 85
    },
    {
      "midi": 78,
      "hit": false,
      "t": 216206.73800000016,
      "d": 301.72391666666954,
      "v": 84
    },
    {
      "midi": 57,
      "hit": false,
      "t": 216508.46191666683,
      "d": 387.93074999999953,
      "v": 79
    },
    {
      "midi": 62,
      "hit": false,
      "t": 216508.46191666683,
      "d": 387.93074999999953,
      "v": 77
    },
    {
      "midi": 69,
      "hit": false,
      "t": 216508.46191666683,
      "d": 387.93074999999953,
      "v": 77
    },
    {
      "midi": 74,
      "hit": false,
      "t": 216508.46191666683,
      "d": 387.93074999999953,
      "v": 84
    },
    {
      "midi": 78,
      "hit": false,
      "t": 216508.46191666683,
      "d": 387.93074999999953,
      "v": 80
    },
    {
      "midi": 47,
      "hit": false,
      "t": 216551.56533333345,
      "d": 344.82733333332,
      "v": 55
    },
    {
      "midi": 50,
      "hit": false,
      "t": 216896.39266666677,
      "d": 344.82733333332,
      "v": 69
    },
    {
      "midi": 57,
      "hit": false,
      "t": 216896.39266666683,
      "d": 474.13758333332953,
      "v": 89
    },
    {
      "midi": 62,
      "hit": false,
      "t": 216896.39266666683,
      "d": 474.13758333332953,
      "v": 89
    },
    {
      "midi": 74,
      "hit": false,
      "t": 216896.39266666683,
      "d": 474.13758333332953,
      "v": 104
    },
    {
      "midi": 78,
      "hit": false,
      "t": 216896.39266666683,
      "d": 474.13758333332953,
      "v": 94
    },
    {
      "midi": 69,
      "hit": false,
      "t": 216896.39266666683,
      "d": 517.2410000000091,
      "v": 84
    },
    {
      "midi": 52,
      "hit": false,
      "t": 217241.22000000003,
      "d": 43.10341666667955,
      "v": 95
    },
    {
      "midi": 52,
      "hit": false,
      "t": 217241.22000000015,
      "d": 172.4136666666891,
      "v": 81
    },
    {
      "midi": 64,
      "hit": false,
      "t": 217241.22000000015,
      "d": 172.4136666666891,
      "v": 79
    },
    {
      "midi": 67,
      "hit": false,
      "t": 217241.22000000015,
      "d": 172.4136666666891,
      "v": 81
    },
    {
      "midi": 71,
      "hit": false,
      "t": 217241.22000000015,
      "d": 172.4136666666891,
      "v": 79
    },
    {
      "midi": 40,
      "hit": false,
      "t": 217241.22000000015,
      "d": 603.4478333333391,
      "v": 57
    },
    {
      "midi": 52,
      "hit": false,
      "t": 217241.22000000015,
      "d": 603.4478333333391,
      "v": 56
    },
    {
      "midi": 64,
      "hit": false,
      "t": 217241.22000000015,
      "d": 603.4478333333391,
      "v": 58
    },
    {
      "midi": 67,
      "hit": false,
      "t": 217241.22000000015,
      "d": 603.4478333333391,
      "v": 59
    },
    {
      "midi": 71,
      "hit": false,
      "t": 217241.22000000015,
      "d": 603.4478333333391,
      "v": 59
    },
    {
      "midi": 52,
      "hit": false,
      "t": 217413.63366666672,
      "d": 86.20683333333,
      "v": 89
    },
    {
      "midi": 52,
      "hit": false,
      "t": 217413.63366666684,
      "d": 387.93074999999953,
      "v": 81
    },
    {
      "midi": 64,
      "hit": false,
      "t": 217413.63366666684,
      "d": 387.93074999999953,
      "v": 78
    },
    {
      "midi": 67,
      "hit": false,
      "t": 217413.63366666684,
      "d": 387.93074999999953,
      "v": 81
    },
    {
      "midi": 71,
      "hit": false,
      "t": 217413.63366666684,
      "d": 387.93074999999953,
      "v": 78
    },
    {
      "midi": 50,
      "hit": false,
      "t": 217758.46100000004,
      "d": 43.10341666667955,
      "v": 84
    },
    {
      "midi": 50,
      "hit": false,
      "t": 217758.46100000016,
      "d": 258.6205000000191,
      "v": 77
    },
    {
      "midi": 62,
      "hit": false,
      "t": 217758.46100000016,
      "d": 258.6205000000191,
      "v": 69
    },
    {
      "midi": 65,
      "hit": false,
      "t": 217758.46100000016,
      "d": 258.6205000000191,
      "v": 84
    },
    {
      "midi": 69,
      "hit": false,
      "t": 217758.46100000016,
      "d": 258.6205000000191,
      "v": 79
    },
    {
      "midi": 52,
      "hit": false,
      "t": 217930.87466666673,
      "d": 129.31025000000955,
      "v": 95
    },
    {
      "midi": 52,
      "hit": false,
      "t": 217930.87466666684,
      "d": 344.82733333332,
      "v": 83
    },
    {
      "midi": 64,
      "hit": false,
      "t": 217930.87466666684,
      "d": 344.82733333332,
      "v": 83
    },
    {
      "midi": 67,
      "hit": false,
      "t": 217930.87466666684,
      "d": 344.82733333332,
      "v": 89
    },
    {
      "midi": 71,
      "hit": false,
      "t": 217930.87466666684,
      "d": 344.82733333332,
      "v": 89
    },
    {
      "midi": 52,
      "hit": false,
      "t": 218275.70200000008,
      "d": 86.20683333333,
      "v": 80
    },
    {
      "midi": 52,
      "hit": false,
      "t": 218275.70200000016,
      "d": 172.41366666666,
      "v": 81
    },
    {
      "midi": 64,
      "hit": false,
      "t": 218275.70200000016,
      "d": 172.41366666666,
      "v": 79
    },
    {
      "midi": 67,
      "hit": false,
      "t": 218275.70200000016,
      "d": 172.41366666666,
      "v": 85
    },
    {
      "midi": 71,
      "hit": false,
      "t": 218275.70200000016,
      "d": 172.41366666666,
      "v": 79
    },
    {
      "midi": 52,
      "hit": false,
      "t": 218448.11566666674,
      "d": 86.20683333333,
      "v": 89
    },
    {
      "midi": 64,
      "hit": false,
      "t": 218448.11566666682,
      "d": 258.62049999999,
      "v": 81
    },
    {
      "midi": 67,
      "hit": false,
      "t": 218448.11566666682,
      "d": 258.62049999999,
      "v": 82
    },
    {
      "midi": 71,
      "hit": false,
      "t": 218448.11566666682,
      "d": 258.62049999999,
      "v": 78
    },
    {
      "midi": 52,
      "hit": false,
      "t": 218448.11566666682,
      "d": 301.72391666666954,
      "v": 80
    },
    {
      "midi": 50,
      "hit": false,
      "t": 218792.94300000006,
      "d": 43.10341666667955,
      "v": 82
    },
    {
      "midi": 50,
      "hit": false,
      "t": 218792.94300000017,
      "d": 258.62049999999,
      "v": 80
    },
    {
      "midi": 62,
      "hit": false,
      "t": 218792.94300000017,
      "d": 258.62049999999,
      "v": 77
    },
    {
      "midi": 65,
      "hit": false,
      "t": 218792.94300000017,
      "d": 258.62049999999,
      "v": 85
    },
    {
      "midi": 69,
      "hit": false,
      "t": 218792.94300000017,
      "d": 258.62049999999,
      "v": 79
    },
    {
      "midi": 52,
      "hit": false,
      "t": 218965.35666666675,
      "d": 129.31025000000955,
      "v": 95
    },
    {
      "midi": 71,
      "hit": false,
      "t": 218965.35666666683,
      "d": 301.72391666666954,
      "v": 89
    },
    {
      "midi": 52,
      "hit": false,
      "t": 218965.35666666683,
      "d": 344.8273333333491,
      "v": 82
    },
    {
      "midi": 64,
      "hit": false,
      "t": 218965.35666666683,
      "d": 344.8273333333491,
      "v": 81
    },
    {
      "midi": 67,
      "hit": false,
      "t": 218965.35666666683,
      "d": 344.8273333333491,
      "v": 87
    },
    {
      "midi": 52,
      "hit": false,
      "t": 219310.1840000001,
      "d": 86.20683333333,
      "v": 76
    },
    {
      "midi": 52,
      "hit": false,
      "t": 219310.18400000018,
      "d": 172.41366666666,
      "v": 80
    },
    {
      "midi": 64,
      "hit": false,
      "t": 219310.18400000018,
      "d": 172.41366666666,
      "v": 78
    },
    {
      "midi": 67,
      "hit": false,
      "t": 219310.18400000018,
      "d": 172.41366666666,
      "v": 85
    },
    {
      "midi": 71,
      "hit": false,
      "t": 219310.18400000018,
      "d": 172.41366666666,
      "v": 81
    },
    {
      "midi": 52,
      "hit": false,
      "t": 219482.59766666676,
      "d": 86.20683333333,
      "v": 83
    },
    {
      "midi": 64,
      "hit": false,
      "t": 219482.59766666684,
      "d": 258.62049999999,
      "v": 79
    },
    {
      "midi": 67,
      "hit": false,
      "t": 219482.59766666684,
      "d": 258.62049999999,
      "v": 84
    },
    {
      "midi": 71,
      "hit": false,
      "t": 219482.59766666684,
      "d": 258.62049999999,
      "v": 82
    },
    {
      "midi": 52,
      "hit": false,
      "t": 219482.59766666684,
      "d": 301.72391666666954,
      "v": 81
    },
    {
      "midi": 50,
      "hit": false,
      "t": 219827.42500000008,
      "d": 43.10341666667955,
      "v": 82
    },
    {
      "midi": 50,
      "hit": false,
      "t": 219827.4250000002,
      "d": 258.62049999999,
      "v": 81
    },
    {
      "midi": 62,
      "hit": false,
      "t": 219827.4250000002,
      "d": 258.62049999999,
      "v": 78
    },
    {
      "midi": 65,
      "hit": false,
      "t": 219827.4250000002,
      "d": 258.62049999999,
      "v": 89
    },
    {
      "midi": 69,
      "hit": false,
      "t": 219827.4250000002,
      "d": 258.62049999999,
      "v": 83
    },
    {
      "midi": 52,
      "hit": false,
      "t": 219999.83866666676,
      "d": 86.20683333333,
      "v": 104
    },
    {
      "midi": 71,
      "hit": false,
      "t": 219999.83866666685,
      "d": 301.72391666666954,
      "v": 85
    },
    {
      "midi": 52,
      "hit": false,
      "t": 219999.83866666685,
      "d": 344.8273333333491,
      "v": 82
    },
    {
      "midi": 64,
      "hit": false,
      "t": 219999.83866666685,
      "d": 344.8273333333491,
      "v": 80
    },
    {
      "midi": 67,
      "hit": false,
      "t": 219999.83866666685,
      "d": 344.8273333333491,
      "v": 85
    },
    {
      "midi": 52,
      "hit": false,
      "t": 220344.66600000008,
      "d": 43.10341666667955,
      "v": 78
    },
    {
      "midi": 52,
      "hit": false,
      "t": 220344.6660000002,
      "d": 172.41366666666,
      "v": 80
    },
    {
      "midi": 64,
      "hit": false,
      "t": 220344.6660000002,
      "d": 172.41366666666,
      "v": 79
    },
    {
      "midi": 67,
      "hit": false,
      "t": 220344.6660000002,
      "d": 172.41366666666,
      "v": 85
    },
    {
      "midi": 71,
      "hit": false,
      "t": 220344.6660000002,
      "d": 172.41366666666,
      "v": 82
    },
    {
      "midi": 52,
      "hit": false,
      "t": 220517.07966666677,
      "d": 86.20683333333,
      "v": 85
    },
    {
      "midi": 64,
      "hit": false,
      "t": 220517.07966666686,
      "d": 258.62049999999,
      "v": 80
    },
    {
      "midi": 67,
      "hit": false,
      "t": 220517.07966666686,
      "d": 258.62049999999,
      "v": 87
    },
    {
      "midi": 71,
      "hit": false,
      "t": 220517.07966666686,
      "d": 258.62049999999,
      "v": 83
    },
    {
      "midi": 52,
      "hit": false,
      "t": 220517.07966666686,
      "d": 301.72391666666954,
      "v": 80
    },
    {
      "midi": 50,
      "hit": false,
      "t": 220861.9070000001,
      "d": 43.10341666667955,
      "v": 83
    },
    {
      "midi": 50,
      "hit": false,
      "t": 220861.9070000002,
      "d": 258.62049999999,
      "v": 84
    },
    {
      "midi": 62,
      "hit": false,
      "t": 220861.9070000002,
      "d": 258.62049999999,
      "v": 78
    },
    {
      "midi": 65,
      "hit": false,
      "t": 220861.9070000002,
      "d": 258.62049999999,
      "v": 83
    },
    {
      "midi": 69,
      "hit": false,
      "t": 220861.9070000002,
      "d": 258.62049999999,
      "v": 80
    },
    {
      "midi": 52,
      "hit": false,
      "t": 221034.32066666678,
      "d": 129.31025000000955,
      "v": 89
    },
    {
      "midi": 64,
      "hit": false,
      "t": 221034.32066666687,
      "d": 344.82733333332,
      "v": 82
    },
    {
      "midi": 67,
      "hit": false,
      "t": 221034.32066666687,
      "d": 387.93074999999953,
      "v": 92
    },
    {
      "midi": 71,
      "hit": false,
      "t": 221034.32066666687,
      "d": 387.93074999999953,
      "v": 89
    },
    {
      "midi": 52,
      "hit": false,
      "t": 221034.32066666687,
      "d": 431.0341666666791,
      "v": 89
    },
    {
      "midi": 45,
      "hit": false,
      "t": 221379.1480000001,
      "d": 948.2751666666591,
      "v": 69
    },
    {
      "midi": 57,
      "hit": false,
      "t": 221379.1480000002,
      "d": 905.1717500000377,
      "v": 78
    },
    {
      "midi": 69,
      "hit": false,
      "t": 221379.1480000002,
      "d": 905.1717500000377,
      "v": 79
    },
    {
      "midi": 76,
      "hit": false,
      "t": 221379.1480000002,
      "d": 905.1717500000377,
      "v": 89
    },
    {
      "midi": 64,
      "hit": false,
      "t": 221379.1480000002,
      "d": 948.2751666667173,
      "v": 92
    },
    {
      "midi": 73,
      "hit": false,
      "t": 221379.1480000002,
      "d": 991.3785833333968,
      "v": 94
    },
    {
      "midi": 45,
      "hit": false,
      "t": 221379.14800000025,
      "d": 2025.8605833333568,
      "v": 112
    },
    {
      "midi": 57,
      "hit": false,
      "t": 222327.4231666669,
      "d": 905.1717500000377,
      "v": 81
    },
    {
      "midi": 64,
      "hit": false,
      "t": 222327.4231666669,
      "d": 905.1717500000377,
      "v": 76
    },
    {
      "midi": 69,
      "hit": false,
      "t": 222327.4231666669,
      "d": 948.2751666667173,
      "v": 75
    },
    {
      "midi": 45,
      "hit": false,
      "t": 222413.6300000001,
      "d": 905.1717500000086,
      "v": 69
    },
    {
      "midi": 76,
      "hit": false,
      "t": 222413.63000000027,
      "d": 905.1717500000377,
      "v": 77
    },
    {
      "midi": 73,
      "hit": false,
      "t": 222413.63000000027,
      "d": 1034.4820000000473,
      "v": 74
    },
    {
      "midi": 57,
      "hit": false,
      "t": 222413.63000000027,
      "d": 905.1717500000086,
      "v": 112
    },
    {
      "midi": 57,
      "hit": false,
      "t": 223318.8017500003,
      "d": 905.1717500000086,
      "v": 78
    },
    {
      "midi": 64,
      "hit": false,
      "t": 223361.90516666698,
      "d": 905.1717500000086,
      "v": 94
    },
    {
      "midi": 45,
      "hit": false,
      "t": 223448.1120000001,
      "d": 905.1717500000086,
      "v": 69
    },
    {
      "midi": 64,
      "hit": false,
      "t": 223448.11200000028,
      "d": 948.2751666666591,
      "v": 103
    },
    {
      "midi": 57,
      "hit": false,
      "t": 223448.11200000028,
      "d": 1681.0332500000077,
      "v": 104
    },
    {
      "midi": 45,
      "hit": false,
      "t": 223448.11200000028,
      "d": 1767.2400833333377,
      "v": 72
    },
    {
      "midi": 61,
      "hit": false,
      "t": 223448.11200000028,
      "d": 2068.964000000007,
      "v": 101
    },
    {
      "midi": 69,
      "hit": false,
      "t": 223448.1120000003,
      "d": 862.0683333333582,
      "v": 68
    },
    {
      "midi": 76,
      "hit": false,
      "t": 223448.1120000003,
      "d": 862.0683333333582,
      "v": 99
    },
    {
      "midi": 73,
      "hit": false,
      "t": 223448.1120000003,
      "d": 948.2751666667173,
      "v": 79
    },
    {
      "midi": 57,
      "hit": false,
      "t": 224353.28375000035,
      "d": 775.8614999999991,
      "v": 79
    },
    {
      "midi": 64,
      "hit": false,
      "t": 224396.38716666703,
      "d": 732.7580833333195,
      "v": 92
    },
    {
      "midi": 45,
      "hit": false,
      "t": 224482.59400000013,
      "d": 258.62049999999,
      "v": 62
    },
    {
      "midi": 64,
      "hit": false,
      "t": 224482.59400000027,
      "d": 991.3785833333386,
      "v": 99
    },
    {
      "midi": 69,
      "hit": false,
      "t": 224482.59400000027,
      "d": 991.3785833333386,
      "v": 99
    },
    {
      "midi": 69,
      "hit": false,
      "t": 224482.59400000036,
      "d": 646.5512499999895,
      "v": 76
    },
    {
      "midi": 73,
      "hit": false,
      "t": 224482.59400000036,
      "d": 646.5512499999895,
      "v": 85
    },
    {
      "midi": 76,
      "hit": false,
      "t": 224482.59400000036,
      "d": 646.5512499999895,
      "v": 104
    },
    {
      "midi": 45,
      "hit": false,
      "t": 224827.42133333345,
      "d": 301.72391666666954,
      "v": 64
    },
    {
      "midi": 57,
      "hit": false,
      "t": 225129.14525000035,
      "d": 387.93074999999953,
      "v": 65
    },
    {
      "midi": 64,
      "hit": false,
      "t": 225129.14525000035,
      "d": 387.93074999999953,
      "v": 85
    },
    {
      "midi": 73,
      "hit": false,
      "t": 225129.14525000035,
      "d": 387.93074999999953,
      "v": 82
    },
    {
      "midi": 76,
      "hit": false,
      "t": 225129.14525000035,
      "d": 387.93074999999953,
      "v": 85
    },
    {
      "midi": 47,
      "hit": false,
      "t": 225172.2486666668,
      "d": 301.72391666666954,
      "v": 62
    },
    {
      "midi": 69,
      "hit": false,
      "t": 225172.24866666703,
      "d": 387.93074999999953,
      "v": 81
    },
    {
      "midi": 48,
      "hit": false,
      "t": 225517.07600000015,
      "d": 905.1717500000086,
      "v": 70
    },
    {
      "midi": 36,
      "hit": false,
      "t": 225517.07600000015,
      "d": 3663.790416666656,
      "v": 61
    },
    {
      "midi": 48,
      "hit": false,
      "t": 225517.07600000015,
      "d": 3663.790416666656,
      "v": 72
    },
    {
      "midi": 60,
      "hit": false,
      "t": 225517.07600000015,
      "d": 3706.8938333333354,
      "v": 60
    },
    {
      "midi": 64,
      "hit": false,
      "t": 225517.07600000015,
      "d": 3706.8938333333354,
      "v": 74
    },
    {
      "midi": 67,
      "hit": false,
      "t": 225517.07600000015,
      "d": 3706.8938333333354,
      "v": 59
    },
    {
      "midi": 36,
      "hit": false,
      "t": 225517.0760000003,
      "d": 3836.204083333316,
      "v": 109
    },
    {
      "midi": 48,
      "hit": false,
      "t": 225517.0760000003,
      "d": 3879.3074999999953,
      "v": 119
    },
    {
      "midi": 60,
      "hit": false,
      "t": 225517.07600000035,
      "d": 818.9649166666786,
      "v": 78
    },
    {
      "midi": 64,
      "hit": false,
      "t": 225517.07600000035,
      "d": 862.0683333333582,
      "v": 81
    },
    {
      "midi": 67,
      "hit": false,
      "t": 225517.07600000035,
      "d": 862.0683333333582,
      "v": 80
    },
    {
      "midi": 76,
      "hit": false,
      "t": 225517.07600000035,
      "d": 862.0683333333582,
      "v": 79
    },
    {
      "midi": 72,
      "hit": false,
      "t": 225517.07600000035,
      "d": 948.2751666667173,
      "v": 79
    },
    {
      "midi": 60,
      "hit": false,
      "t": 226422.2477500004,
      "d": 905.1717500000086,
      "v": 80
    },
    {
      "midi": 64,
      "hit": false,
      "t": 226465.35116666707,
      "d": 905.1717500000086,
      "v": 87
    },
    {
      "midi": 67,
      "hit": false,
      "t": 226465.35116666707,
      "d": 948.2751666666882,
      "v": 71
    },
    {
      "midi": 48,
      "hit": false,
      "t": 226551.55800000016,
      "d": 905.1717500000086,
      "v": 68
    },
    {
      "midi": 52,
      "hit": false,
      "t": 226551.55800000028,
      "d": 1594.8264166666486,
      "v": 107
    },
    {
      "midi": 55,
      "hit": false,
      "t": 226551.55800000028,
      "d": 1594.8264166666486,
      "v": 109
    },
    {
      "midi": 76,
      "hit": false,
      "t": 226551.5580000004,
      "d": 862.0683333333582,
      "v": 92
    },
    {
      "midi": 72,
      "hit": false,
      "t": 226551.5580000004,
      "d": 905.1717500000377,
      "v": 79
    },
    {
      "midi": 60,
      "hit": false,
      "t": 227370.52291666708,
      "d": 948.2751666667173,
      "v": 92
    },
    {
      "midi": 76,
      "hit": false,
      "t": 227499.83316666711,
      "d": 862.0683333333582,
      "v": 95
    },
    {
      "midi": 67,
      "hit": false,
      "t": 227499.83316666711,
      "d": 905.1717500000377,
      "v": 71
    },
    {
      "midi": 64,
      "hit": false,
      "t": 227499.83316666711,
      "d": 948.2751666667173,
      "v": 84
    },
    {
      "midi": 72,
      "hit": false,
      "t": 227499.83316666711,
      "d": 948.2751666667173,
      "v": 78
    },
    {
      "midi": 48,
      "hit": false,
      "t": 227586.04000000018,
      "d": 905.1717500000086,
      "v": 64
    },
    {
      "midi": 60,
      "hit": false,
      "t": 227586.04000000027,
      "d": 603.4478333333391,
      "v": 107
    },
    {
      "midi": 72,
      "hit": false,
      "t": 228491.2117500005,
      "d": 301.72391666666954,
      "v": 78
    },
    {
      "midi": 60,
      "hit": false,
      "t": 228491.2117500005,
      "d": 732.7580833333195,
      "v": 74
    },
    {
      "midi": 67,
      "hit": false,
      "t": 228491.2117500005,
      "d": 732.7580833333195,
      "v": 70
    },
    {
      "midi": 76,
      "hit": false,
      "t": 228491.2117500005,
      "d": 732.7580833333195,
      "v": 74
    },
    {
      "midi": 48,
      "hit": false,
      "t": 228620.5220000002,
      "d": 646.5512499999895,
      "v": 64
    },
    {
      "midi": 72,
      "hit": false,
      "t": 228620.5220000003,
      "d": 862.0683333333291,
      "v": 119
    },
    {
      "midi": 64,
      "hit": false,
      "t": 228620.52200000052,
      "d": 646.5512499999895,
      "v": 95
    },
    {
      "midi": 72,
      "hit": false,
      "t": 228879.1425000005,
      "d": 431.0341666666791,
      "v": 33
    },
    {
      "midi": 50,
      "hit": false,
      "t": 229310.17666666687,
      "d": 258.62049999999,
      "v": 71
    },
    {
      "midi": 60,
      "hit": false,
      "t": 229310.1766666672,
      "d": 344.82733333332,
      "v": 80
    },
    {
      "midi": 64,
      "hit": false,
      "t": 229310.1766666672,
      "d": 344.82733333332,
      "v": 94
    },
    {
      "midi": 67,
      "hit": false,
      "t": 229310.1766666672,
      "d": 344.82733333332,
      "v": 82
    },
    {
      "midi": 72,
      "hit": false,
      "t": 229310.1766666672,
      "d": 344.82733333332,
      "v": 94
    },
    {
      "midi": 76,
      "hit": false,
      "t": 229310.1766666672,
      "d": 344.82733333332,
      "v": 85
    },
    {
      "midi": 76,
      "hit": false,
      "t": 229655.0040000001,
      "d": 3060.342583333346,
      "v": 104
    },
    {
      "midi": 64,
      "hit": false,
      "t": 229655.00400000016,
      "d": 2198.2742500000168,
      "v": 62
    },
    {
      "midi": 67,
      "hit": false,
      "t": 229655.00400000016,
      "d": 2198.2742500000168,
      "v": 72
    },
    {
      "midi": 71,
      "hit": false,
      "t": 229655.00400000016,
      "d": 2198.2742500000168,
      "v": 64
    },
    {
      "midi": 40,
      "hit": false,
      "t": 229655.00400000016,
      "d": 2241.3776666666963,
      "v": 62
    },
    {
      "midi": 52,
      "hit": false,
      "t": 229655.00400000016,
      "d": 2241.3776666666963,
      "v": 65
    },
    {
      "midi": 52,
      "hit": false,
      "t": 229655.0040000002,
      "d": 215.51708333333954,
      "v": 68
    },
    {
      "midi": 55,
      "hit": false,
      "t": 229655.00400000028,
      "d": 1810.3434999999881,
      "v": 92
    },
    {
      "midi": 64,
      "hit": false,
      "t": 229655.00400000028,
      "d": 1853.4469166666677,
      "v": 90
    },
    {
      "midi": 40,
      "hit": false,
      "t": 229655.00400000028,
      "d": 1896.5503333333472,
      "v": 104
    },
    {
      "midi": 52,
      "hit": false,
      "t": 229655.00400000028,
      "d": 1896.5503333333472,
      "v": 124
    },
    {
      "midi": 52,
      "hit": false,
      "t": 229655.0040000005,
      "d": 387.93074999999953,
      "v": 73
    },
    {
      "midi": 59,
      "hit": false,
      "t": 229698.1074166672,
      "d": 344.82733333332,
      "v": 79
    },
    {
      "midi": 64,
      "hit": false,
      "t": 229698.1074166672,
      "d": 344.82733333332,
      "v": 78
    },
    {
      "midi": 67,
      "hit": false,
      "t": 229698.1074166672,
      "d": 344.82733333332,
      "v": 70
    },
    {
      "midi": 71,
      "hit": false,
      "t": 229698.1074166672,
      "d": 344.82733333332,
      "v": 76
    },
    {
      "midi": 76,
      "hit": false,
      "t": 229698.1074166672,
      "d": 344.82733333332,
      "v": 74
    },
    {
      "midi": 52,
      "hit": false,
      "t": 229999.83133333354,
      "d": 172.41366666666,
      "v": 62
    },
    {
      "midi": 52,
      "hit": false,
      "t": 230042.9347500005,
      "d": 301.72391666666954,
      "v": 50
    },
    {
      "midi": 59,
      "hit": false,
      "t": 230042.9347500005,
      "d": 301.72391666666954,
      "v": 63
    },
    {
      "midi": 64,
      "hit": false,
      "t": 230042.9347500005,
      "d": 301.72391666666954,
      "v": 65
    },
    {
      "midi": 67,
      "hit": false,
      "t": 230042.9347500005,
      "d": 301.72391666666954,
      "v": 61
    },
    {
      "midi": 71,
      "hit": false,
      "t": 230042.9347500005,
      "d": 301.72391666666954,
      "v": 69
    },
    {
      "midi": 76,
      "hit": false,
      "t": 230042.9347500005,
      "d": 301.72391666666954,
      "v": 61
    },
    {
      "midi": 52,
      "hit": false,
      "t": 230344.65866666686,
      "d": 172.41366666666,
      "v": 68
    },
    {
      "midi": 52,
      "hit": false,
      "t": 230344.65866666718,
      "d": 344.82733333332,
      "v": 57
    },
    {
      "midi": 59,
      "hit": false,
      "t": 230344.65866666718,
      "d": 344.82733333332,
      "v": 68
    },
    {
      "midi": 64,
      "hit": false,
      "t": 230344.65866666718,
      "d": 344.82733333332,
      "v": 67
    },
    {
      "midi": 67,
      "hit": false,
      "t": 230344.65866666718,
      "d": 344.82733333332,
      "v": 61
    },
    {
      "midi": 71,
      "hit": false,
      "t": 230344.65866666718,
      "d": 344.82733333332,
      "v": 69
    },
    {
      "midi": 76,
      "hit": false,
      "t": 230344.65866666718,
      "d": 344.82733333332,
      "v": 63
    },
    {
      "midi": 52,
      "hit": false,
      "t": 230689.48600000018,
      "d": 172.41366666666,
      "v": 66
    },
    {
      "midi": 64,
      "hit": false,
      "t": 230689.4860000005,
      "d": 301.72391666666954,
      "v": 78
    },
    {
      "midi": 67,
      "hit": false,
      "t": 230689.4860000005,
      "d": 301.72391666666954,
      "v": 78
    },
    {
      "midi": 71,
      "hit": false,
      "t": 230689.4860000005,
      "d": 301.72391666666954,
      "v": 81
    },
    {
      "midi": 76,
      "hit": false,
      "t": 230689.4860000005,
      "d": 301.72391666666954,
      "v": 78
    },
    {
      "midi": 52,
      "hit": false,
      "t": 230689.4860000005,
      "d": 387.93074999999953,
      "v": 77
    },
    {
      "midi": 59,
      "hit": false,
      "t": 230689.4860000005,
      "d": 387.93074999999953,
      "v": 79
    },
    {
      "midi": 64,
      "hit": false,
      "t": 230991.20991666717,
      "d": 387.93074999999953,
      "v": 69
    },
    {
      "midi": 67,
      "hit": false,
      "t": 230991.20991666717,
      "d": 387.93074999999953,
      "v": 62
    },
    {
      "midi": 71,
      "hit": false,
      "t": 230991.20991666717,
      "d": 387.93074999999953,
      "v": 72
    },
    {
      "midi": 76,
      "hit": false,
      "t": 230991.20991666717,
      "d": 387.93074999999953,
      "v": 66
    },
    {
      "midi": 52,
      "hit": false,
      "t": 231034.3133333335,
      "d": 172.41366666666,
      "v": 64
    },
    {
      "midi": 52,
      "hit": false,
      "t": 231077.4167500005,
      "d": 301.72391666666954,
      "v": 64
    },
    {
      "midi": 59,
      "hit": false,
      "t": 231077.4167500005,
      "d": 301.72391666666954,
      "v": 72
    },
    {
      "midi": 52,
      "hit": false,
      "t": 231379.14066666682,
      "d": 215.51708333333954,
      "v": 63
    },
    {
      "midi": 52,
      "hit": false,
      "t": 231379.14066666717,
      "d": 344.82733333332,
      "v": 67
    },
    {
      "midi": 59,
      "hit": false,
      "t": 231379.14066666717,
      "d": 344.82733333332,
      "v": 69
    },
    {
      "midi": 64,
      "hit": false,
      "t": 231379.14066666717,
      "d": 344.82733333332,
      "v": 70
    },
    {
      "midi": 67,
      "hit": false,
      "t": 231379.14066666717,
      "d": 344.82733333332,
      "v": 67
    },
    {
      "midi": 71,
      "hit": false,
      "t": 231379.14066666717,
      "d": 344.82733333332,
      "v": 73
    },
    {
      "midi": 76,
      "hit": false,
      "t": 231379.14066666717,
      "d": 344.82733333332,
      "v": 67
    },
    {
      "midi": 52,
      "hit": false,
      "t": 231723.96800000017,
      "d": 301.72391666666954,
      "v": 66
    },
    {
      "midi": 38,
      "hit": false,
      "t": 231723.96800000017,
      "d": 2025.8605833333568,
      "v": 60
    },
    {
      "midi": 50,
      "hit": false,
      "t": 231723.96800000017,
      "d": 2068.9640000000363,
      "v": 69
    },
    {
      "midi": 62,
      "hit": false,
      "t": 231723.96800000017,
      "d": 2068.9640000000363,
      "v": 59
    },
    {
      "midi": 66,
      "hit": false,
      "t": 231723.96800000017,
      "d": 2068.9640000000363,
      "v": 64
    },
    {
      "midi": 69,
      "hit": false,
      "t": 231723.96800000017,
      "d": 2068.9640000000363,
      "v": 59
    },
    {
      "midi": 69,
      "hit": false,
      "t": 231723.96800000028,
      "d": 43.10341666667955,
      "v": 99
    },
    {
      "midi": 38,
      "hit": false,
      "t": 231723.96800000028,
      "d": 1896.5503333333472,
      "v": 105
    },
    {
      "midi": 50,
      "hit": false,
      "t": 231723.96800000028,
      "d": 1896.5503333333472,
      "v": 99
    },
    {
      "midi": 62,
      "hit": false,
      "t": 231723.96800000028,
      "d": 1896.5503333333472,
      "v": 89
    },
    {
      "midi": 66,
      "hit": false,
      "t": 231723.96800000028,
      "d": 1939.6537500000268,
      "v": 103
    },
    {
      "midi": 59,
      "hit": false,
      "t": 231723.9680000005,
      "d": 474.13758333332953,
      "v": 73
    },
    {
      "midi": 67,
      "hit": false,
      "t": 231723.9680000005,
      "d": 474.13758333332953,
      "v": 74
    },
    {
      "midi": 71,
      "hit": false,
      "t": 231723.9680000005,
      "d": 474.13758333332953,
      "v": 78
    },
    {
      "midi": 76,
      "hit": false,
      "t": 231723.9680000005,
      "d": 474.13758333332953,
      "v": 73
    },
    {
      "midi": 52,
      "hit": false,
      "t": 231723.9680000005,
      "d": 517.2410000000091,
      "v": 73
    },
    {
      "midi": 64,
      "hit": false,
      "t": 231723.9680000005,
      "d": 517.2410000000091,
      "v": 79
    },
    {
      "midi": 74,
      "hit": false,
      "t": 232025.69191666716,
      "d": 344.8273333333491,
      "v": 75
    },
    {
      "midi": 57,
      "hit": false,
      "t": 232025.69191666716,
      "d": 387.93075000002864,
      "v": 76
    },
    {
      "midi": 62,
      "hit": false,
      "t": 232025.69191666716,
      "d": 387.93075000002864,
      "v": 73
    },
    {
      "midi": 69,
      "hit": false,
      "t": 232025.69191666716,
      "d": 387.93075000002864,
      "v": 65
    },
    {
      "midi": 78,
      "hit": false,
      "t": 232025.69191666716,
      "d": 387.93075000002864,
      "v": 72
    },
    {
      "midi": 50,
      "hit": false,
      "t": 232068.79533333352,
      "d": 258.62049999999,
      "v": 69
    },
    {
      "midi": 69,
      "hit": false,
      "t": 232068.79533333363,
      "d": 1724.1366666666872,
      "v": 51
    },
    {
      "midi": 74,
      "hit": false,
      "t": 232370.5192500005,
      "d": 387.93074999999953,
      "v": 78
    },
    {
      "midi": 50,
      "hit": false,
      "t": 232413.62266666684,
      "d": 215.51708333333954,
      "v": 67
    },
    {
      "midi": 57,
      "hit": false,
      "t": 232413.6226666672,
      "d": 344.82733333332,
      "v": 71
    },
    {
      "midi": 62,
      "hit": false,
      "t": 232413.6226666672,
      "d": 344.82733333332,
      "v": 68
    },
    {
      "midi": 69,
      "hit": false,
      "t": 232413.6226666672,
      "d": 344.82733333332,
      "v": 69
    },
    {
      "midi": 78,
      "hit": false,
      "t": 232413.6226666672,
      "d": 344.82733333332,
      "v": 71
    },
    {
      "midi": 74,
      "hit": false,
      "t": 232758.45000000013,
      "d": 948.2751666666591,
      "v": 66
    },
    {
      "midi": 50,
      "hit": false,
      "t": 232758.4500000002,
      "d": 258.62049999999,
      "v": 66
    },
    {
      "midi": 57,
      "hit": false,
      "t": 232758.4500000005,
      "d": 301.72391666666954,
      "v": 79
    },
    {
      "midi": 62,
      "hit": false,
      "t": 232758.4500000005,
      "d": 301.72391666666954,
      "v": 74
    },
    {
      "midi": 69,
      "hit": false,
      "t": 232758.4500000005,
      "d": 301.72391666666954,
      "v": 76
    },
    {
      "midi": 74,
      "hit": false,
      "t": 232758.4500000005,
      "d": 301.72391666666954,
      "v": 85
    },
    {
      "midi": 78,
      "hit": false,
      "t": 232758.4500000005,
      "d": 301.72391666666954,
      "v": 79
    },
    {
      "midi": 57,
      "hit": false,
      "t": 233060.17391666718,
      "d": 344.82733333332,
      "v": 74
    },
    {
      "midi": 62,
      "hit": false,
      "t": 233060.17391666718,
      "d": 344.82733333332,
      "v": 67
    },
    {
      "midi": 69,
      "hit": false,
      "t": 233060.17391666718,
      "d": 344.82733333332,
      "v": 74
    },
    {
      "midi": 74,
      "hit": false,
      "t": 233060.17391666718,
      "d": 344.82733333332,
      "v": 81
    },
    {
      "midi": 78,
      "hit": false,
      "t": 233060.17391666718,
      "d": 344.82733333332,
      "v": 74
    },
    {
      "midi": 47,
      "hit": false,
      "t": 233103.2773333335,
      "d": 258.62049999999,
      "v": 67
    },
    {
      "midi": 57,
      "hit": false,
      "t": 233405.0012500005,
      "d": 474.13758333335863,
      "v": 75
    },
    {
      "midi": 62,
      "hit": false,
      "t": 233405.0012500005,
      "d": 474.13758333335863,
      "v": 74
    },
    {
      "midi": 69,
      "hit": false,
      "t": 233405.0012500005,
      "d": 474.13758333335863,
      "v": 76
    },
    {
      "midi": 74,
      "hit": false,
      "t": 233405.0012500005,
      "d": 474.13758333335863,
      "v": 77
    },
    {
      "midi": 78,
      "hit": false,
      "t": 233405.0012500005,
      "d": 474.13758333335863,
      "v": 73
    },
    {
      "midi": 50,
      "hit": false,
      "t": 233448.10466666683,
      "d": 301.72391666666954,
      "v": 75
    },
    {
      "midi": 76,
      "hit": false,
      "t": 233792.93200000012,
      "d": 991.3785833333386,
      "v": 66
    },
    {
      "midi": 52,
      "hit": false,
      "t": 233792.93200000018,
      "d": 172.41366666666,
      "v": 68
    },
    {
      "midi": 40,
      "hit": false,
      "t": 233792.9320000002,
      "d": 2025.8605833333277,
      "v": 51
    },
    {
      "midi": 52,
      "hit": false,
      "t": 233792.9320000002,
      "d": 2025.8605833333277,
      "v": 53
    },
    {
      "midi": 64,
      "hit": false,
      "t": 233792.9320000002,
      "d": 2025.8605833333277,
      "v": 52
    },
    {
      "midi": 67,
      "hit": false,
      "t": 233792.9320000002,
      "d": 2025.8605833333277,
      "v": 51
    },
    {
      "midi": 71,
      "hit": false,
      "t": 233792.9320000002,
      "d": 2025.8605833333277,
      "v": 51
    },
    {
      "midi": 52,
      "hit": false,
      "t": 233792.93200000032,
      "d": 1810.3434999999881,
      "v": 98
    },
    {
      "midi": 40,
      "hit": false,
      "t": 233792.93200000032,
      "d": 1853.4469166666677,
      "v": 101
    },
    {
      "midi": 67,
      "hit": false,
      "t": 233792.93200000032,
      "d": 1896.5503333333472,
      "v": 100
    },
    {
      "midi": 64,
      "hit": false,
      "t": 233792.93200000032,
      "d": 1939.6537500000268,
      "v": 100
    },
    {
      "midi": 71,
      "hit": false,
      "t": 233792.9320000005,
      "d": 301.72391666669864,
      "v": 79
    },
    {
      "midi": 59,
      "hit": false,
      "t": 233792.9320000005,
      "d": 387.93075000002864,
      "v": 80
    },
    {
      "midi": 64,
      "hit": false,
      "t": 233792.9320000005,
      "d": 387.93075000002864,
      "v": 80
    },
    {
      "midi": 67,
      "hit": false,
      "t": 233792.9320000005,
      "d": 387.93075000002864,
      "v": 76
    },
    {
      "midi": 76,
      "hit": false,
      "t": 233792.9320000005,
      "d": 387.93075000002864,
      "v": 74
    },
    {
      "midi": 52,
      "hit": false,
      "t": 233836.03541666718,
      "d": 560.3444166666886,
      "v": 70
    },
    {
      "midi": 71,
      "hit": false,
      "t": 234094.6559166672,
      "d": 387.93074999999953,
      "v": 78
    },
    {
      "midi": 52,
      "hit": false,
      "t": 234137.7593333335,
      "d": 129.31025000000955,
      "v": 64
    },
    {
      "midi": 59,
      "hit": false,
      "t": 234180.86275000052,
      "d": 301.72391666666954,
      "v": 65
    },
    {
      "midi": 64,
      "hit": false,
      "t": 234180.86275000052,
      "d": 301.72391666666954,
      "v": 70
    },
    {
      "midi": 67,
      "hit": false,
      "t": 234180.86275000052,
      "d": 301.72391666666954,
      "v": 71
    },
    {
      "midi": 76,
      "hit": false,
      "t": 234180.86275000052,
      "d": 301.72391666666954,
      "v": 71
    },
    {
      "midi": 52,
      "hit": false,
      "t": 234482.58666666684,
      "d": 129.31025000000955,
      "v": 62
    },
    {
      "midi": 52,
      "hit": false,
      "t": 234482.5866666672,
      "d": 344.82733333332,
      "v": 71
    },
    {
      "midi": 59,
      "hit": false,
      "t": 234482.5866666672,
      "d": 344.82733333332,
      "v": 75
    },
    {
      "midi": 64,
      "hit": false,
      "t": 234482.5866666672,
      "d": 344.82733333332,
      "v": 78
    },
    {
      "midi": 67,
      "hit": false,
      "t": 234482.5866666672,
      "d": 344.82733333332,
      "v": 72
    },
    {
      "midi": 71,
      "hit": false,
      "t": 234482.5866666672,
      "d": 344.82733333332,
      "v": 78
    },
    {
      "midi": 76,
      "hit": false,
      "t": 234482.5866666672,
      "d": 344.82733333332,
      "v": 71
    },
    {
      "midi": 76,
      "hit": false,
      "t": 234827.41400000014,
      "d": 2068.964000000007,
      "v": 70
    },
    {
      "midi": 52,
      "hit": false,
      "t": 234827.4140000002,
      "d": 129.31025000000955,
      "v": 63
    },
    {
      "midi": 52,
      "hit": false,
      "t": 234827.4140000005,
      "d": 301.72391666666954,
      "v": 78
    },
    {
      "midi": 59,
      "hit": false,
      "t": 234827.4140000005,
      "d": 301.72391666666954,
      "v": 81
    },
    {
      "midi": 64,
      "hit": false,
      "t": 234827.4140000005,
      "d": 301.72391666666954,
      "v": 79
    },
    {
      "midi": 67,
      "hit": false,
      "t": 234827.4140000005,
      "d": 301.72391666666954,
      "v": 78
    },
    {
      "midi": 71,
      "hit": false,
      "t": 234827.4140000005,
      "d": 301.72391666666954,
      "v": 85
    },
    {
      "midi": 76,
      "hit": false,
      "t": 234827.4140000005,
      "d": 301.72391666666954,
      "v": 77
    },
    {
      "midi": 67,
      "hit": false,
      "t": 235129.13791666718,
      "d": 344.82733333332,
      "v": 70
    },
    {
      "midi": 71,
      "hit": false,
      "t": 235129.13791666718,
      "d": 344.82733333332,
      "v": 78
    },
    {
      "midi": 52,
      "hit": false,
      "t": 235129.13791666718,
      "d": 387.93074999999953,
      "v": 71
    },
    {
      "midi": 59,
      "hit": false,
      "t": 235129.13791666718,
      "d": 387.93074999999953,
      "v": 76
    },
    {
      "midi": 64,
      "hit": false,
      "t": 235129.13791666718,
      "d": 387.93074999999953,
      "v": 77
    },
    {
      "midi": 76,
      "hit": false,
      "t": 235129.13791666718,
      "d": 387.93074999999953,
      "v": 71
    },
    {
      "midi": 52,
      "hit": false,
      "t": 235172.24133333354,
      "d": 172.41366666666,
      "v": 63
    },
    {
      "midi": 67,
      "hit": false,
      "t": 235473.9652500005,
      "d": 474.13758333332953,
      "v": 78
    },
    {
      "midi": 71,
      "hit": false,
      "t": 235473.9652500005,
      "d": 474.13758333332953,
      "v": 82
    },
    {
      "midi": 52,
      "hit": false,
      "t": 235517.06866666686,
      "d": 258.62049999999,
      "v": 62
    },
    {
      "midi": 59,
      "hit": false,
      "t": 235517.06866666718,
      "d": 474.13758333332953,
      "v": 73
    },
    {
      "midi": 64,
      "hit": false,
      "t": 235517.06866666718,
      "d": 474.13758333332953,
      "v": 80
    },
    {
      "midi": 76,
      "hit": false,
      "t": 235517.06866666718,
      "d": 474.13758333332953,
      "v": 77
    },
    {
      "midi": 52,
      "hit": false,
      "t": 235517.06866666718,
      "d": 517.2410000000091,
      "v": 70
    },
    {
      "midi": 50,
      "hit": false,
      "t": 235861.89600000018,
      "d": 258.62049999999,
      "v": 61
    },
    {
      "midi": 66,
      "hit": false,
      "t": 235861.8960000002,
      "d": 2068.964000000007,
      "v": 40
    },
    {
      "midi": 69,
      "hit": false,
      "t": 235861.8960000002,
      "d": 2068.964000000007,
      "v": 48
    },
    {
      "midi": 38,
      "hit": false,
      "t": 235861.8960000002,
      "d": 2112.0674166666868,
      "v": 50
    },
    {
      "midi": 50,
      "hit": false,
      "t": 235861.8960000002,
      "d": 2112.0674166666868,
      "v": 50
    },
    {
      "midi": 62,
      "hit": false,
      "t": 235861.8960000002,
      "d": 2112.0674166666868,
      "v": 44
    },
    {
      "midi": 38,
      "hit": false,
      "t": 235861.89600000036,
      "d": 1939.6537499999977,
      "v": 102
    },
    {
      "midi": 50,
      "hit": false,
      "t": 235861.89600000036,
      "d": 1939.6537499999977,
      "v": 112
    },
    {
      "midi": 62,
      "hit": false,
      "t": 235861.89600000036,
      "d": 1939.6537499999977,
      "v": 95
    },
    {
      "midi": 69,
      "hit": false,
      "t": 235861.89600000036,
      "d": 1939.6537499999977,
      "v": 94
    },
    {
      "midi": 66,
      "hit": false,
      "t": 235861.89600000036,
      "d": 1982.7571666666772,
      "v": 100
    },
    {
      "midi": 69,
      "hit": false,
      "t": 235861.8960000005,
      "d": 301.72391666669864,
      "v": 72
    },
    {
      "midi": 74,
      "hit": false,
      "t": 235861.8960000005,
      "d": 301.72391666669864,
      "v": 79
    },
    {
      "midi": 78,
      "hit": false,
      "t": 235861.8960000005,
      "d": 301.72391666669864,
      "v": 77
    },
    {
      "midi": 57,
      "hit": false,
      "t": 235861.8960000005,
      "d": 387.93075000002864,
      "v": 83
    },
    {
      "midi": 62,
      "hit": false,
      "t": 235861.8960000005,
      "d": 387.93075000002864,
      "v": 78
    },
    {
      "midi": 69,
      "hit": false,
      "t": 236163.6199166672,
      "d": 387.93074999999953,
      "v": 72
    },
    {
      "midi": 74,
      "hit": false,
      "t": 236163.6199166672,
      "d": 387.93074999999953,
      "v": 80
    },
    {
      "midi": 78,
      "hit": false,
      "t": 236163.6199166672,
      "d": 387.93074999999953,
      "v": 76
    },
    {
      "midi": 50,
      "hit": false,
      "t": 236206.7233333335,
      "d": 215.51708333333954,
      "v": 61
    },
    {
      "midi": 57,
      "hit": false,
      "t": 236249.82675000053,
      "d": 301.72391666666954,
      "v": 75
    },
    {
      "midi": 62,
      "hit": false,
      "t": 236249.82675000053,
      "d": 301.72391666666954,
      "v": 67
    },
    {
      "midi": 50,
      "hit": false,
      "t": 236551.55066666685,
      "d": 172.41366666666,
      "v": 58
    },
    {
      "midi": 57,
      "hit": false,
      "t": 236551.5506666672,
      "d": 344.82733333332,
      "v": 80
    },
    {
      "midi": 62,
      "hit": false,
      "t": 236551.5506666672,
      "d": 344.82733333332,
      "v": 73
    },
    {
      "midi": 69,
      "hit": false,
      "t": 236551.5506666672,
      "d": 344.82733333332,
      "v": 79
    },
    {
      "midi": 74,
      "hit": false,
      "t": 236551.5506666672,
      "d": 344.82733333332,
      "v": 89
    },
    {
      "midi": 78,
      "hit": false,
      "t": 236551.5506666672,
      "d": 344.82733333332,
      "v": 83
    },
    {
      "midi": 74,
      "hit": false,
      "t": 236896.37800000014,
      "d": 991.3785833333386,
      "v": 67
    },
    {
      "midi": 50,
      "hit": false,
      "t": 236896.37800000017,
      "d": 258.62049999999,
      "v": 61
    },
    {
      "midi": 57,
      "hit": false,
      "t": 236896.37800000052,
      "d": 301.72391666666954,
      "v": 80
    },
    {
      "midi": 62,
      "hit": false,
      "t": 236896.37800000052,
      "d": 301.72391666666954,
      "v": 78
    },
    {
      "midi": 69,
      "hit": false,
      "t": 236896.37800000052,
      "d": 301.72391666666954,
      "v": 80
    },
    {
      "midi": 74,
      "hit": false,
      "t": 236896.37800000052,
      "d": 301.72391666666954,
      "v": 85
    },
    {
      "midi": 78,
      "hit": false,
      "t": 236896.37800000052,
      "d": 301.72391666666954,
      "v": 84
    },
    {
      "midi": 57,
      "hit": false,
      "t": 237198.1019166672,
      "d": 387.93074999999953,
      "v": 79
    },
    {
      "midi": 62,
      "hit": false,
      "t": 237198.1019166672,
      "d": 387.93074999999953,
      "v": 77
    },
    {
      "midi": 69,
      "hit": false,
      "t": 237198.1019166672,
      "d": 387.93074999999953,
      "v": 77
    },
    {
      "midi": 74,
      "hit": false,
      "t": 237198.1019166672,
      "d": 387.93074999999953,
      "v": 84
    },
    {
      "midi": 78,
      "hit": false,
      "t": 237198.1019166672,
      "d": 387.93074999999953,
      "v": 80
    },
    {
      "midi": 47,
      "hit": false,
      "t": 237241.2053333335,
      "d": 344.82733333332,
      "v": 55
    },
    {
      "midi": 50,
      "hit": false,
      "t": 237586.0326666668,
      "d": 344.82733333332,
      "v": 69
    },
    {
      "midi": 57,
      "hit": false,
      "t": 237586.0326666672,
      "d": 474.13758333332953,
      "v": 89
    },
    {
      "midi": 62,
      "hit": false,
      "t": 237586.0326666672,
      "d": 474.13758333332953,
      "v": 89
    },
    {
      "midi": 74,
      "hit": false,
      "t": 237586.0326666672,
      "d": 474.13758333332953,
      "v": 104
    },
    {
      "midi": 78,
      "hit": false,
      "t": 237586.0326666672,
      "d": 474.13758333332953,
      "v": 94
    },
    {
      "midi": 69,
      "hit": false,
      "t": 237586.0326666672,
      "d": 517.2410000000091,
      "v": 84
    },
    {
      "midi": 76,
      "hit": false,
      "t": 237930.86000000016,
      "d": 3620.6870000000054,
      "v": 74
    },
    {
      "midi": 71,
      "hit": false,
      "t": 237930.86000000022,
      "d": 4094.824583333335,
      "v": 55
    },
    {
      "midi": 64,
      "hit": false,
      "t": 237930.86000000022,
      "d": 4137.928000000014,
      "v": 53
    },
    {
      "midi": 67,
      "hit": false,
      "t": 237930.86000000022,
      "d": 4137.928000000014,
      "v": 54
    },
    {
      "midi": 40,
      "hit": false,
      "t": 237930.86000000022,
      "d": 4181.031416666694,
      "v": 56
    },
    {
      "midi": 47,
      "hit": false,
      "t": 237930.86000000022,
      "d": 4181.031416666694,
      "v": 60
    },
    {
      "midi": 76,
      "hit": false,
      "t": 237930.86000000022,
      "d": 4181.031416666694,
      "v": 45
    },
    {
      "midi": 52,
      "hit": false,
      "t": 237930.86000000022,
      "d": 4224.1348333333735,
      "v": 59
    },
    {
      "midi": 71,
      "hit": false,
      "t": 237930.86000000036,
      "d": 3577.583583333326,
      "v": 95
    },
    {
      "midi": 64,
      "hit": false,
      "t": 237930.86000000036,
      "d": 3620.6870000000054,
      "v": 93
    },
    {
      "midi": 67,
      "hit": false,
      "t": 237930.86000000036,
      "d": 3620.6870000000054,
      "v": 94
    },
    {
      "midi": 40,
      "hit": false,
      "t": 237930.86000000036,
      "d": 3663.790416666685,
      "v": 96
    },
    {
      "midi": 47,
      "hit": false,
      "t": 237930.86000000036,
      "d": 3663.790416666685,
      "v": 100
    },
    {
      "midi": 76,
      "hit": false,
      "t": 237930.86000000036,
      "d": 3663.790416666685,
      "v": 85
    },
    {
      "midi": 52,
      "hit": false,
      "t": 237930.86000000036,
      "d": 3706.8938333333645,
      "v": 99
    },
    {
      "midi": 67,
      "hit": false,
      "t": 237930.8600000005,
      "d": 2801.722083333356,
      "v": 82
    },
    {
      "midi": 71,
      "hit": false,
      "t": 237930.8600000005,
      "d": 2801.722083333356,
      "v": 79
    },
    {
      "midi": 76,
      "hit": false,
      "t": 237930.8600000005,
      "d": 2801.722083333356,
      "v": 79
    },
    {
      "midi": 52,
      "hit": false,
      "t": 237930.8600000005,
      "d": 2844.8255000000354,
      "v": 59
    },
    {
      "midi": 59,
      "hit": false,
      "t": 237930.8600000005,
      "d": 2844.8255000000354,
      "v": 79
    },
    {
      "midi": 52,
      "hit": false,
      "t": 237973.96341666678,
      "d": 86.20683333333,
      "v": 50
    },
    {
      "midi": 64,
      "hit": false,
      "t": 237973.9634166672,
      "d": 2758.6186666666763,
      "v": 85
    },
    {
      "midi": 47,
      "hit": false,
      "t": 238060.1702500001,
      "d": 86.20683333333,
      "v": 47
    },
    {
      "midi": 52,
      "hit": false,
      "t": 238189.48050000012,
      "d": 43.10341666667955,
      "v": 42
    },
    {
      "midi": 47,
      "hit": false,
      "t": 238232.5839166668,
      "d": 86.20683333333,
      "v": 46
    },
    {
      "midi": 52,
      "hit": false,
      "t": 238361.8941666668,
      "d": 43.10341666667955,
      "v": 44
    },
    {
      "midi": 47,
      "hit": false,
      "t": 238404.9975833335,
      "d": 43.10341666667955,
      "v": 43
    },
    {
      "midi": 52,
      "hit": false,
      "t": 238491.20441666685,
      "d": 43.10341666667955,
      "v": 45
    },
    {
      "midi": 47,
      "hit": false,
      "t": 238577.4112500002,
      "d": 43.10341666667955,
      "v": 42
    },
    {
      "midi": 52,
      "hit": false,
      "t": 238620.5146666669,
      "d": 86.20683333333,
      "v": 47
    },
    {
      "midi": 47,
      "hit": false,
      "t": 238706.72150000022,
      "d": 43.10341666667955,
      "v": 45
    },
    {
      "midi": 52,
      "hit": false,
      "t": 238792.92833333358,
      "d": 43.10341666667955,
      "v": 45
    },
    {
      "midi": 47,
      "hit": false,
      "t": 238879.13516666694,
      "d": 43.10341666667955,
      "v": 47
    },
    {
      "midi": 52,
      "hit": false,
      "t": 238922.23858333362,
      "d": 86.20683333333,
      "v": 51
    },
    {
      "midi": 47,
      "hit": false,
      "t": 239008.44541666695,
      "d": 43.10341666667955,
      "v": 49
    },
    {
      "midi": 52,
      "hit": false,
      "t": 239094.6522500003,
      "d": 43.10341666667955,
      "v": 53
    },
    {
      "midi": 47,
      "hit": false,
      "t": 239180.85908333366,
      "d": 43.10341666667955,
      "v": 48
    },
    {
      "midi": 52,
      "hit": false,
      "t": 239223.96250000034,
      "d": 86.20683333333,
      "v": 53
    },
    {
      "midi": 47,
      "hit": false,
      "t": 239310.16933333367,
      "d": 43.10341666667955,
      "v": 51
    },
    {
      "midi": 52,
      "hit": false,
      "t": 239396.37616666703,
      "d": 43.10341666667955,
      "v": 53
    },
    {
      "midi": 47,
      "hit": false,
      "t": 239482.5830000004,
      "d": 43.10341666667955,
      "v": 50
    },
    {
      "midi": 52,
      "hit": false,
      "t": 239568.78983333375,
      "d": 43.10341666667955,
      "v": 57
    },
    {
      "midi": 47,
      "hit": false,
      "t": 239654.9966666671,
      "d": 43.10341666667955,
      "v": 47
    },
    {
      "midi": 52,
      "hit": false,
      "t": 239741.20350000047,
      "d": 43.10341666667955,
      "v": 55
    },
    {
      "midi": 47,
      "hit": false,
      "t": 239784.30691666715,
      "d": 43.10341666667955,
      "v": 54
    },
    {
      "midi": 52,
      "hit": false,
      "t": 239913.61716666716,
      "d": 43.10341666667955,
      "v": 56
    },
    {
      "midi": 47,
      "hit": false,
      "t": 239956.72058333384,
      "d": 43.10341666667955,
      "v": 53
    },
    {
      "midi": 52,
      "hit": false,
      "t": 240042.9274166672,
      "d": 86.20683333333,
      "v": 54
    },
    {
      "midi": 47,
      "hit": false,
      "t": 240129.13425000053,
      "d": 43.10341666667955,
      "v": 54
    },
    {
      "midi": 52,
      "hit": false,
      "t": 240215.3410833339,
      "d": 43.10341666667955,
      "v": 55
    },
    {
      "midi": 47,
      "hit": false,
      "t": 240301.54791666724,
      "d": 43.10341666667955,
      "v": 53
    },
    {
      "midi": 52,
      "hit": false,
      "t": 240387.7547500006,
      "d": 43.10341666667955,
      "v": 57
    },
    {
      "midi": 47,
      "hit": false,
      "t": 240430.85816666728,
      "d": 43.10341666667955,
      "v": 57
    },
    {
      "midi": 52,
      "hit": false,
      "t": 240517.06500000064,
      "d": 86.20683333333,
      "v": 57
    },
    {
      "midi": 47,
      "hit": false,
      "t": 240603.27183333397,
      "d": 43.10341666667955,
      "v": 53
    },
    {
      "midi": 52,
      "hit": false,
      "t": 240689.47866666733,
      "d": 43.10341666667955,
      "v": 55
    },
    {
      "midi": 47,
      "hit": false,
      "t": 240775.6855000007,
      "d": 43.10341666667955,
      "v": 55
    },
    {
      "midi": 52,
      "hit": false,
      "t": 240861.89233333405,
      "d": 43.10341666667955,
      "v": 57
    },
    {
      "midi": 52,
      "hit": false,
      "t": 240991.20258333406,
      "d": 86.20683333333,
      "v": 59
    },
    {
      "midi": 47,
      "hit": false,
      "t": 241077.4094166674,
      "d": 43.10341666667955,
      "v": 54
    },
    {
      "midi": 52,
      "hit": false,
      "t": 241163.61625000075,
      "d": 43.10341666667955,
      "v": 55
    },
    {
      "midi": 47,
      "hit": false,
      "t": 241249.8230833341,
      "d": 43.10341666667955,
      "v": 53
    },
    {
      "midi": 52,
      "hit": false,
      "t": 241336.02991666747,
      "d": 43.10341666667955,
      "v": 59
    },
    {
      "midi": 47,
      "hit": false,
      "t": 241379.13333333415,
      "d": 43.10341666667955,
      "v": 53
    },
    {
      "midi": 52,
      "hit": false,
      "t": 241465.3401666675,
      "d": 43.10341666667955,
      "v": 57
    },
    {
      "midi": 47,
      "hit": false,
      "t": 241551.54700000086,
      "d": 43.10341666667955,
      "v": 54
    },
    {
      "midi": 52,
      "hit": false,
      "t": 241637.75383333422,
      "d": 43.10341666667955,
      "v": 57
    }
  ]
}