{
  "jsonPath": "Soundtracks/Video Game Music/Luigis Mansion/luigis-mansion-egaddslaboratory.json",
  "path": "Soundtracks\\Video Game Music\\Luigis Mansion\\Luigis_Mansion_EGaddsLaboratory.mid",
  "name": "Luigis_Mansion_EGaddsLaboratory",
  "difficulty": "Advanced",
  "bpm": 120,
  "notes": [
    {
      "midi": 73,
      "hit": false,
      "t": 250,
      "d": 119.79166666666669,
      "v": 110
    },
    {
      "midi": 80,
      "hit": false,
      "t": 250,
      "d": 119.79166666666669,
      "v": 110
    },
    {
      "midi": 73,
      "hit": false,
      "t": 375,
      "d": 119.79166666666669,
      "v": 110
    },
    {
      "midi": 80,
      "hit": false,
      "t": 375,
      "d": 119.79166666666669,
      "v": 110
    },
    {
      "midi": 73,
      "hit": false,
      "t": 500,
      "d": 244.79166666666663,
      "v": 110
    },
    {
      "midi": 80,
      "hit": false,
      "t": 500,
      "d": 244.79166666666663,
      "v": 110
    },
    {
      "midi": 73,
      "hit": false,
      "t": 750,
      "d": 244.79166666666663,
      "v": 110
    },
    {
      "midi": 80,
      "hit": false,
      "t": 750,
      "d": 244.79166666666663,
      "v": 110
    },
    {
      "midi": 73,
      "hit": false,
      "t": 1000,
      "d": 244.79166666666674,
      "v": 110
    },
    {
      "midi": 80,
      "hit": false,
      "t": 1000,
      "d": 244.79166666666674,
      "v": 110
    },
    {
      "midi": 73,
      "hit": false,
      "t": 1250,
      "d": 244.79166666666674,
      "v": 110
    },
    {
      "midi": 80,
      "hit": false,
      "t": 1250,
      "d": 244.79166666666674,
      "v": 110
    },
    {
      "midi": 73,
      "hit": false,
      "t": 1500,
      "d": 416.66666666666674,
      "v": 110
    },
    {
      "midi": 80,
      "hit": false,
      "t": 1500,
      "d": 416.66666666666674,
      "v": 110
    },
    {
      "midi": 46,
      "hit": false,
      "t": 2000,
      "d": 369.7916666666665,
      "v": 110
    },
    {
      "midi": 77,
      "hit": false,
      "t": 2250,
      "d": 244.79166666666652,
      "v": 110
    },
    {
      "midi": 41,
      "hit": false,
      "t": 2375,
      "d": 125,
      "v": 110
    },
    {
      "midi": 77,
      "hit": false,
      "t": 2500,
      "d": 244.79166666666652,
      "v": 110
    },
    {
      "midi": 41,
      "hit": false,
      "t": 2500,
      "d": 244.79166666666652,
      "v": 110
    },
    {
      "midi": 77,
      "hit": false,
      "t": 2750,
      "d": 244.79166666666652,
      "v": 110
    },
    {
      "midi": 48,
      "hit": false,
      "t": 2750,
      "d": 244.79166666666652,
      "v": 110
    },
    {
      "midi": 77,
      "hit": false,
      "t": 3000,
      "d": 416.6666666666665,
      "v": 110
    },
    {
      "midi": 41,
      "hit": false,
      "t": 3250,
      "d": 244.79166666666652,
      "v": 110
    },
    {
      "midi": 73,
      "hit": false,
      "t": 3500,
      "d": 244.79166666666652,
      "v": 110
    },
    {
      "midi": 44,
      "hit": false,
      "t": 3625,
      "d": 369.7916666666665,
      "v": 110
    },
    {
      "midi": 77,
      "hit": false,
      "t": 3750,
      "d": 244.79166666666652,
      "v": 110
    },
    {
      "midi": 76,
      "hit": false,
      "t": 4000,
      "d": 416.66666666666697,
      "v": 110
    },
    {
      "midi": 46,
      "hit": false,
      "t": 4000,
      "d": 369.79166666666697,
      "v": 110
    },
    {
      "midi": 41,
      "hit": false,
      "t": 4375,
      "d": 125,
      "v": 110
    },
    {
      "midi": 72,
      "hit": false,
      "t": 4500,
      "d": 416.66666666666697,
      "v": 110
    },
    {
      "midi": 41,
      "hit": false,
      "t": 4500,
      "d": 244.79166666666697,
      "v": 110
    },
    {
      "midi": 48,
      "hit": false,
      "t": 4750,
      "d": 244.79166666666697,
      "v": 110
    },
    {
      "midi": 41,
      "hit": false,
      "t": 5250,
      "d": 244.79166666666697,
      "v": 110
    },
    {
      "midi": 44,
      "hit": false,
      "t": 5625,
      "d": 369.79166666666697,
      "v": 110
    },
    {
      "midi": 46,
      "hit": false,
      "t": 6000,
      "d": 369.79166666666697,
      "v": 110
    },
    {
      "midi": 75,
      "hit": false,
      "t": 6250,
      "d": 244.79166666666697,
      "v": 110
    },
    {
      "midi": 41,
      "hit": false,
      "t": 6375,
      "d": 125,
      "v": 110
    },
    {
      "midi": 75,
      "hit": false,
      "t": 6500,
      "d": 244.79166666666697,
      "v": 110
    },
    {
      "midi": 41,
      "hit": false,
      "t": 6500,
      "d": 244.79166666666697,
      "v": 110
    },
    {
      "midi": 75,
      "hit": false,
      "t": 6750,
      "d": 244.79166666666697,
      "v": 110
    },
    {
      "midi": 48,
      "hit": false,
      "t": 6750,
      "d": 244.79166666666697,
      "v": 110
    },
    {
      "midi": 75,
      "hit": false,
      "t": 7000,
      "d": 416.66666666666697,
      "v": 110
    },
    {
      "midi": 41,
      "hit": false,
      "t": 7250,
      "d": 244.79166666666697,
      "v": 110
    },
    {
      "midi": 72,
      "hit": false,
      "t": 7500,
      "d": 244.79166666666697,
      "v": 110
    },
    {
      "midi": 44,
      "hit": false,
      "t": 7625,
      "d": 369.79166666666697,
      "v": 110
    },
    {
      "midi": 75,
      "hit": false,
      "t": 7750,
      "d": 244.79166666666697,
      "v": 110
    },
    {
      "midi": 73,
      "hit": false,
      "t": 8000,
      "d": 416.66666666666606,
      "v": 110
    },
    {
      "midi": 70,
      "hit": false,
      "t": 8500,
      "d": 416.66666666666606,
      "v": 110
    },
    {
      "midi": 46,
      "hit": false,
      "t": 10000,
      "d": 369.79166666666606,
      "v": 110
    },
    {
      "midi": 77,
      "hit": false,
      "t": 10250,
      "d": 244.79166666666606,
      "v": 110
    },
    {
      "midi": 41,
      "hit": false,
      "t": 10375,
      "d": 125,
      "v": 110
    },
    {
      "midi": 77,
      "hit": false,
      "t": 10500,
      "d": 244.79166666666606,
      "v": 110
    },
    {
      "midi": 41,
      "hit": false,
      "t": 10500,
      "d": 244.79166666666606,
      "v": 110
    },
    {
      "midi": 77,
      "hit": false,
      "t": 10750,
      "d": 244.79166666666606,
      "v": 110
    },
    {
      "midi": 48,
      "hit": false,
      "t": 10750,
      "d": 244.79166666666606,
      "v": 110
    },
    {
      "midi": 77,
      "hit": false,
      "t": 11000,
      "d": 416.66666666666606,
      "v": 110
    },
    {
      "midi": 41,
      "hit": false,
      "t": 11250,
      "d": 244.79166666666606,
      "v": 110
    },
    {
      "midi": 73,
      "hit": false,
      "t": 11500,
      "d": 244.79166666666606,
      "v": 110
    },
    {
      "midi": 44,
      "hit": false,
      "t": 11625,
      "d": 369.79166666666606,
      "v": 110
    },
    {
      "midi": 77,
      "hit": false,
      "t": 11750,
      "d": 244.79166666666606,
      "v": 110
    },
    {
      "midi": 76,
      "hit": false,
      "t": 12000,
      "d": 416.66666666666606,
      "v": 110
    },
    {
      "midi": 46,
      "hit": false,
      "t": 12000,
      "d": 369.79166666666606,
      "v": 110
    },
    {
      "midi": 41,
      "hit": false,
      "t": 12375,
      "d": 125,
      "v": 110
    },
    {
      "midi": 72,
      "hit": false,
      "t": 12500,
      "d": 416.66666666666606,
      "v": 110
    },
    {
      "midi": 41,
      "hit": false,
      "t": 12500,
      "d": 244.79166666666606,
      "v": 110
    },
    {
      "midi": 48,
      "hit": false,
      "t": 12750,
      "d": 244.79166666666606,
      "v": 110
    },
    {
      "midi": 41,
      "hit": false,
      "t": 13250,
      "d": 244.79166666666606,
      "v": 110
    },
    {
      "midi": 44,
      "hit": false,
      "t": 13625,
      "d": 369.79166666666606,
      "v": 110
    },
    {
      "midi": 46,
      "hit": false,
      "t": 14000,
      "d": 369.79166666666606,
      "v": 110
    },
    {
      "midi": 75,
      "hit": false,
      "t": 14250,
      "d": 244.79166666666606,
      "v": 110
    },
    {
      "midi": 41,
      "hit": false,
      "t": 14375,
      "d": 125,
      "v": 110
    },
    {
      "midi": 75,
      "hit": false,
      "t": 14500,
      "d": 244.79166666666606,
      "v": 110
    },
    {
      "midi": 41,
      "hit": false,
      "t": 14500,
      "d": 244.79166666666606,
      "v": 110
    },
    {
      "midi": 75,
      "hit": false,
      "t": 14750,
      "d": 244.79166666666606,
      "v": 110
    },
    {
      "midi": 48,
      "hit": false,
      "t": 14750,
      "d": 244.79166666666606,
      "v": 110
    },
    {
      "midi": 75,
      "hit": false,
      "t": 15000,
      "d": 416.66666666666606,
      "v": 110
    },
    {
      "midi": 41,
      "hit": false,
      "t": 15250,
      "d": 244.79166666666606,
      "v": 110
    },
    {
      "midi": 72,
      "hit": false,
      "t": 15500,
      "d": 244.79166666666606,
      "v": 110
    },
    {
      "midi": 44,
      "hit": false,
      "t": 15625,
      "d": 369.79166666666606,
      "v": 110
    },
    {
      "midi": 75,
      "hit": false,
      "t": 15750,
      "d": 244.79166666666606,
      "v": 110
    },
    {
      "midi": 73,
      "hit": false,
      "t": 16000,
      "d": 416.6666666666679,
      "v": 110
    },
    {
      "midi": 70,
      "hit": false,
      "t": 16500,
      "d": 416.6666666666679,
      "v": 110
    },
    {
      "midi": 70,
      "hit": false,
      "t": 17750,
      "d": 244.79166666666788,
      "v": 110
    },
    {
      "midi": 69,
      "hit": false,
      "t": 18000,
      "d": 244.79166666666788,
      "v": 110
    },
    {
      "midi": 24,
      "hit": false,
      "t": 18000,
      "d": 416.6666666666679,
      "v": 110
    },
    {
      "midi": 70,
      "hit": false,
      "t": 18250,
      "d": 244.79166666666788,
      "v": 110
    },
    {
      "midi": 72,
      "hit": false,
      "t": 18500,
      "d": 244.79166666666788,
      "v": 110
    },
    {
      "midi": 73,
      "hit": false,
      "t": 18750,
      "d": 244.79166666666788,
      "v": 110
    },
    {
      "midi": 70,
      "hit": false,
      "t": 19000,
      "d": 416.6666666666679,
      "v": 110
    },
    {
      "midi": 25,
      "hit": false,
      "t": 19000,
      "d": 416.6666666666679,
      "v": 110
    },
    {
      "midi": 73,
      "hit": false,
      "t": 19750,
      "d": 244.79166666666788,
      "v": 110
    },
    {
      "midi": 72,
      "hit": false,
      "t": 20000,
      "d": 244.79166666666788,
      "v": 110
    },
    {
      "midi": 27,
      "hit": false,
      "t": 20000,
      "d": 416.6666666666679,
      "v": 110
    },
    {
      "midi": 73,
      "hit": false,
      "t": 20250,
      "d": 244.79166666666788,
      "v": 110
    },
    {
      "midi": 75,
      "hit": false,
      "t": 20500,
      "d": 244.79166666666788,
      "v": 110
    },
    {
      "midi": 77,
      "hit": false,
      "t": 20750,
      "d": 244.79166666666788,
      "v": 110
    },
    {
      "midi": 73,
      "hit": false,
      "t": 21000,
      "d": 416.6666666666679,
      "v": 110
    },
    {
      "midi": 29,
      "hit": false,
      "t": 21000,
      "d": 416.6666666666679,
      "v": 110
    },
    {
      "midi": 77,
      "hit": false,
      "t": 21750,
      "d": 244.79166666666788,
      "v": 110
    },
    {
      "midi": 76,
      "hit": false,
      "t": 22000,
      "d": 244.79166666666788,
      "v": 110
    },
    {
      "midi": 31,
      "hit": false,
      "t": 22000,
      "d": 416.6666666666679,
      "v": 110
    },
    {
      "midi": 77,
      "hit": false,
      "t": 22250,
      "d": 244.79166666666788,
      "v": 110
    },
    {
      "midi": 79,
      "hit": false,
      "t": 22500,
      "d": 244.79166666666788,
      "v": 110
    },
    {
      "midi": 80,
      "hit": false,
      "t": 22750,
      "d": 244.79166666666788,
      "v": 110
    },
    {
      "midi": 77,
      "hit": false,
      "t": 23000,
      "d": 416.6666666666679,
      "v": 110
    },
    {
      "midi": 32,
      "hit": false,
      "t": 23000,
      "d": 416.6666666666679,
      "v": 110
    },
    {
      "midi": 72,
      "hit": false,
      "t": 23500,
      "d": 244.79166666666788,
      "v": 110
    },
    {
      "midi": 77,
      "hit": false,
      "t": 23750,
      "d": 244.79166666666788,
      "v": 110
    },
    {
      "midi": 76,
      "hit": false,
      "t": 24000,
      "d": 416.6666666666679,
      "v": 110
    },
    {
      "midi": 34,
      "hit": false,
      "t": 24000,
      "d": 416.6666666666679,
      "v": 110
    },
    {
      "midi": 72,
      "hit": false,
      "t": 24500,
      "d": 416.6666666666679,
      "v": 110
    },
    {
      "midi": 77,
      "hit": false,
      "t": 25000,
      "d": 416.6666666666679,
      "v": 110
    },
    {
      "midi": 33,
      "hit": false,
      "t": 25000,
      "d": 416.6666666666679,
      "v": 110
    },
    {
      "midi": 76,
      "hit": false,
      "t": 25750,
      "d": 244.79166666666788,
      "v": 110
    },
    {
      "midi": 77,
      "hit": false,
      "t": 26000,
      "d": 416.6666666666679,
      "v": 110
    },
    {
      "midi": 33,
      "hit": false,
      "t": 26000,
      "d": 416.6666666666679,
      "v": 110
    },
    {
      "midi": 76,
      "hit": false,
      "t": 26750,
      "d": 244.79166666666788,
      "v": 110
    },
    {
      "midi": 77,
      "hit": false,
      "t": 27000,
      "d": 244.79166666666788,
      "v": 110
    },
    {
      "midi": 29,
      "hit": false,
      "t": 27000,
      "d": 244.79166666666788,
      "v": 110
    },
    {
      "midi": 76,
      "hit": false,
      "t": 27250,
      "d": 244.79166666666788,
      "v": 110
    },
    {
      "midi": 28,
      "hit": false,
      "t": 27250,
      "d": 244.79166666666788,
      "v": 110
    },
    {
      "midi": 77,
      "hit": false,
      "t": 27500,
      "d": 244.79166666666788,
      "v": 110
    },
    {
      "midi": 29,
      "hit": false,
      "t": 27500,
      "d": 244.79166666666788,
      "v": 110
    },
    {
      "midi": 76,
      "hit": false,
      "t": 27750,
      "d": 244.79166666666788,
      "v": 110
    },
    {
      "midi": 28,
      "hit": false,
      "t": 27750,
      "d": 244.79166666666788,
      "v": 110
    },
    {
      "midi": 77,
      "hit": false,
      "t": 28000,
      "d": 416.6666666666679,
      "v": 110
    },
    {
      "midi": 29,
      "hit": false,
      "t": 28000,
      "d": 416.6666666666679,
      "v": 110
    },
    {
      "midi": 53,
      "hit": false,
      "t": 29000,
      "d": 416.6666666666679,
      "v": 110
    },
    {
      "midi": 65,
      "hit": false,
      "t": 29500,
      "d": 416.6666666666679,
      "v": 110
    },
    {
      "midi": 46,
      "hit": false,
      "t": 30000,
      "d": 369.7916666666679,
      "v": 110
    },
    {
      "midi": 77,
      "hit": false,
      "t": 30250,
      "d": 244.79166666666788,
      "v": 110
    },
    {
      "midi": 41,
      "hit": false,
      "t": 30375,
      "d": 125,
      "v": 110
    },
    {
      "midi": 77,
      "hit": false,
      "t": 30500,
      "d": 244.79166666666788,
      "v": 110
    },
    {
      "midi": 41,
      "hit": false,
      "t": 30500,
      "d": 244.79166666666788,
      "v": 110
    },
    {
      "midi": 77,
      "hit": false,
      "t": 30750,
      "d": 244.79166666666788,
      "v": 110
    },
    {
      "midi": 48,
      "hit": false,
      "t": 30750,
      "d": 244.79166666666788,
      "v": 110
    },
    {
      "midi": 77,
      "hit": false,
      "t": 31000,
      "d": 416.6666666666679,
      "v": 110
    },
    {
      "midi": 41,
      "hit": false,
      "t": 31250,
      "d": 244.79166666666788,
      "v": 110
    },
    {
      "midi": 73,
      "hit": false,
      "t": 31500,
      "d": 244.79166666666788,
      "v": 110
    },
    {
      "midi": 44,
      "hit": false,
      "t": 31625,
      "d": 369.7916666666679,
      "v": 110
    },
    {
      "midi": 77,
      "hit": false,
      "t": 31750,
      "d": 244.79166666666788,
      "v": 110
    },
    {
      "midi": 76,
      "hit": false,
      "t": 32000,
      "d": 416.6666666666679,
      "v": 110
    },
    {
      "midi": 46,
      "hit": false,
      "t": 32000,
      "d": 369.7916666666679,
      "v": 110
    },
    {
      "midi": 41,
      "hit": false,
      "t": 32375,
      "d": 125,
      "v": 110
    },
    {
      "midi": 72,
      "hit": false,
      "t": 32500,
      "d": 416.66666666666424,
      "v": 110
    },
    {
      "midi": 41,
      "hit": false,
      "t": 32500,
      "d": 244.79166666666788,
      "v": 110
    },
    {
      "midi": 48,
      "hit": false,
      "t": 32750,
      "d": 244.79166666666424,
      "v": 110
    },
    {
      "midi": 41,
      "hit": false,
      "t": 33250,
      "d": 244.79166666666424,
      "v": 110
    },
    {
      "midi": 44,
      "hit": false,
      "t": 33625,
      "d": 369.79166666666424,
      "v": 110
    },
    {
      "midi": 46,
      "hit": false,
      "t": 34000,
      "d": 369.79166666666424,
      "v": 110
    },
    {
      "midi": 75,
      "hit": false,
      "t": 34250,
      "d": 244.79166666666424,
      "v": 110
    },
    {
      "midi": 41,
      "hit": false,
      "t": 34375,
      "d": 125,
      "v": 110
    },
    {
      "midi": 75,
      "hit": false,
      "t": 34500,
      "d": 244.79166666666424,
      "v": 110
    },
    {
      "midi": 41,
      "hit": false,
      "t": 34500,
      "d": 244.79166666666424,
      "v": 110
    },
    {
      "midi": 75,
      "hit": false,
      "t": 34750,
      "d": 244.79166666666424,
      "v": 110
    },
    {
      "midi": 48,
      "hit": false,
      "t": 34750,
      "d": 244.79166666666424,
      "v": 110
    },
    {
      "midi": 75,
      "hit": false,
      "t": 35000,
      "d": 416.66666666666424,
      "v": 110
    },
    {
      "midi": 41,
      "hit": false,
      "t": 35250,
      "d": 244.79166666666424,
      "v": 110
    },
    {
      "midi": 72,
      "hit": false,
      "t": 35500,
      "d": 244.79166666666424,
      "v": 110
    },
    {
      "midi": 44,
      "hit": false,
      "t": 35625,
      "d": 369.79166666666424,
      "v": 110
    },
    {
      "midi": 75,
      "hit": false,
      "t": 35750,
      "d": 244.79166666666424,
      "v": 110
    },
    {
      "midi": 73,
      "hit": false,
      "t": 36000,
      "d": 416.66666666666424,
      "v": 110
    },
    {
      "midi": 70,
      "hit": false,
      "t": 36500,
      "d": 416.66666666666424,
      "v": 110
    },
    {
      "midi": 46,
      "hit": false,
      "t": 38000,
      "d": 369.79166666666424,
      "v": 110
    },
    {
      "midi": 77,
      "hit": false,
      "t": 38250,
      "d": 244.79166666666424,
      "v": 110
    },
    {
      "midi": 41,
      "hit": false,
      "t": 38375,
      "d": 125,
      "v": 110
    },
    {
      "midi": 77,
      "hit": false,
      "t": 38500,
      "d": 244.79166666666424,
      "v": 110
    },
    {
      "midi": 41,
      "hit": false,
      "t": 38500,
      "d": 244.79166666666424,
      "v": 110
    },
    {
      "midi": 77,
      "hit": false,
      "t": 38750,
      "d": 244.79166666666424,
      "v": 110
    },
    {
      "midi": 48,
      "hit": false,
      "t": 38750,
      "d": 244.79166666666424,
      "v": 110
    },
    {
      "midi": 77,
      "hit": false,
      "t": 39000,
      "d": 416.66666666666424,
      "v": 110
    },
    {
      "midi": 41,
      "hit": false,
      "t": 39250,
      "d": 244.79166666666424,
      "v": 110
    },
    {
      "midi": 73,
      "hit": false,
      "t": 39500,
      "d": 244.79166666666424,
      "v": 110
    },
    {
      "midi": 44,
      "hit": false,
      "t": 39625,
      "d": 369.79166666666424,
      "v": 110
    },
    {
      "midi": 77,
      "hit": false,
      "t": 39750,
      "d": 244.79166666666424,
      "v": 110
    },
    {
      "midi": 76,
      "hit": false,
      "t": 40000,
      "d": 416.66666666666424,
      "v": 110
    },
    {
      "midi": 46,
      "hit": false,
      "t": 40000,
      "d": 369.79166666666424,
      "v": 110
    },
    {
      "midi": 41,
      "hit": false,
      "t": 40375,
      "d": 125,
      "v": 110
    },
    {
      "midi": 72,
      "hit": false,
      "t": 40500,
      "d": 416.66666666666424,
      "v": 110
    },
    {
      "midi": 41,
      "hit": false,
      "t": 40500,
      "d": 244.79166666666424,
      "v": 110
    },
    {
      "midi": 48,
      "hit": false,
      "t": 40750,
      "d": 244.79166666666424,
      "v": 110
    },
    {
      "midi": 41,
      "hit": false,
      "t": 41250,
      "d": 244.79166666666424,
      "v": 110
    },
    {
      "midi": 44,
      "hit": false,
      "t": 41625,
      "d": 369.79166666666424,
      "v": 110
    },
    {
      "midi": 46,
      "hit": false,
      "t": 42000,
      "d": 369.79166666666424,
      "v": 110
    },
    {
      "midi": 75,
      "hit": false,
      "t": 42250,
      "d": 244.79166666666424,
      "v": 110
    },
    {
      "midi": 41,
      "hit": false,
      "t": 42375,
      "d": 125,
      "v": 110
    },
    {
      "midi": 75,
      "hit": false,
      "t": 42500,
      "d": 244.79166666666424,
      "v": 110
    },
    {
      "midi": 41,
      "hit": false,
      "t": 42500,
      "d": 244.79166666666424,
      "v": 110
    },
    {
      "midi": 75,
      "hit": false,
      "t": 42750,
      "d": 244.79166666666424,
      "v": 110
    },
    {
      "midi": 48,
      "hit": false,
      "t": 42750,
      "d": 244.79166666666424,
      "v": 110
    },
    {
      "midi": 75,
      "hit": false,
      "t": 43000,
      "d": 416.66666666666424,
      "v": 110
    },
    {
      "midi": 41,
      "hit": false,
      "t": 43250,
      "d": 244.79166666666424,
      "v": 110
    },
    {
      "midi": 72,
      "hit": false,
      "t": 43500,
      "d": 244.79166666666424,
      "v": 110
    },
    {
      "midi": 44,
      "hit": false,
      "t": 43625,
      "d": 369.79166666666424,
      "v": 110
    },
    {
      "midi": 75,
      "hit": false,
      "t": 43750,
      "d": 244.79166666666424,
      "v": 110
    },
    {
      "midi": 73,
      "hit": false,
      "t": 44000,
      "d": 416.66666666666424,
      "v": 110
    },
    {
      "midi": 70,
      "hit": false,
      "t": 44500,
      "d": 416.66666666666424,
      "v": 110
    },
    {
      "midi": 70,
      "hit": false,
      "t": 45750,
      "d": 244.79166666666424,
      "v": 110
    },
    {
      "midi": 69,
      "hit": false,
      "t": 46000,
      "d": 244.79166666666424,
      "v": 110
    },
    {
      "midi": 24,
      "hit": false,
      "t": 46000,
      "d": 416.66666666666424,
      "v": 110
    },
    {
      "midi": 70,
      "hit": false,
      "t": 46250,
      "d": 244.79166666666424,
      "v": 110
    },
    {
      "midi": 72,
      "hit": false,
      "t": 46500,
      "d": 244.79166666666424,
      "v": 110
    },
    {
      "midi": 73,
      "hit": false,
      "t": 46750,
      "d": 244.79166666666424,
      "v": 110
    },
    {
      "midi": 70,
      "hit": false,
      "t": 47000,
      "d": 416.66666666666424,
      "v": 110
    },
    {
      "midi": 25,
      "hit": false,
      "t": 47000,
      "d": 416.66666666666424,
      "v": 110
    },
    {
      "midi": 73,
      "hit": false,
      "t": 47750,
      "d": 244.79166666666424,
      "v": 110
    },
    {
      "midi": 72,
      "hit": false,
      "t": 48000,
      "d": 244.79166666666424,
      "v": 110
    },
    {
      "midi": 27,
      "hit": false,
      "t": 48000,
      "d": 416.66666666666424,
      "v": 110
    },
    {
      "midi": 73,
      "hit": false,
      "t": 48250,
      "d": 244.79166666666424,
      "v": 110
    },
    {
      "midi": 75,
      "hit": false,
      "t": 48500,
      "d": 244.79166666666424,
      "v": 110
    },
    {
      "midi": 77,
      "hit": false,
      "t": 48750,
      "d": 244.79166666666424,
      "v": 110
    },
    {
      "midi": 73,
      "hit": false,
      "t": 49000,
      "d": 416.66666666666424,
      "v": 110
    },
    {
      "midi": 29,
      "hit": false,
      "t": 49000,
      "d": 416.66666666666424,
      "v": 110
    },
    {
      "midi": 77,
      "hit": false,
      "t": 49750,
      "d": 244.79166666666424,
      "v": 110
    },
    {
      "midi": 76,
      "hit": false,
      "t": 50000,
      "d": 244.79166666666424,
      "v": 110
    },
    {
      "midi": 31,
      "hit": false,
      "t": 50000,
      "d": 416.66666666666424,
      "v": 110
    },
    {
      "midi": 77,
      "hit": false,
      "t": 50250,
      "d": 244.79166666666424,
      "v": 110
    },
    {
      "midi": 79,
      "hit": false,
      "t": 50500,
      "d": 244.79166666666424,
      "v": 110
    },
    {
      "midi": 80,
      "hit": false,
      "t": 50750,
      "d": 244.79166666666424,
      "v": 110
    },
    {
      "midi": 77,
      "hit": false,
      "t": 51000,
      "d": 416.66666666666424,
      "v": 110
    },
    {
      "midi": 32,
      "hit": false,
      "t": 51000,
      "d": 416.66666666666424,
      "v": 110
    },
    {
      "midi": 72,
      "hit": false,
      "t": 51500,
      "d": 244.79166666666424,
      "v": 110
    },
    {
      "midi": 77,
      "hit": false,
      "t": 51750,
      "d": 244.79166666666424,
      "v": 110
    },
    {
      "midi": 76,
      "hit": false,
      "t": 52000,
      "d": 416.66666666666424,
      "v": 110
    },
    {
      "midi": 34,
      "hit": false,
      "t": 52000,
      "d": 416.66666666666424,
      "v": 110
    },
    {
      "midi": 72,
      "hit": false,
      "t": 52500,
      "d": 416.66666666666424,
      "v": 110
    },
    {
      "midi": 77,
      "hit": false,
      "t": 53000,
      "d": 416.66666666666424,
      "v": 110
    },
    {
      "midi": 33,
      "hit": false,
      "t": 53000,
      "d": 416.66666666666424,
      "v": 110
    },
    {
      "midi": 76,
      "hit": false,
      "t": 53750,
      "d": 244.79166666666424,
      "v": 110
    },
    {
      "midi": 77,
      "hit": false,
      "t": 54000,
      "d": 416.66666666666424,
      "v": 110
    },
    {
      "midi": 33,
      "hit": false,
      "t": 54000,
      "d": 416.66666666666424,
      "v": 110
    },
    {
      "midi": 76,
      "hit": false,
      "t": 54750,
      "d": 244.79166666666424,
      "v": 110
    },
    {
      "midi": 77,
      "hit": false,
      "t": 55000,
      "d": 244.79166666666424,
      "v": 110
    },
    {
      "midi": 29,
      "hit": false,
      "t": 55000,
      "d": 244.79166666666424,
      "v": 110
    },
    {
      "midi": 76,
      "hit": false,
      "t": 55250,
      "d": 244.79166666666424,
      "v": 110
    },
    {
      "midi": 28,
      "hit": false,
      "t": 55250,
      "d": 244.79166666666424,
      "v": 110
    },
    {
      "midi": 77,
      "hit": false,
      "t": 55500,
      "d": 244.79166666666424,
      "v": 110
    },
    {
      "midi": 29,
      "hit": false,
      "t": 55500,
      "d": 244.79166666666424,
      "v": 110
    },
    {
      "midi": 76,
      "hit": false,
      "t": 55750,
      "d": 244.79166666666424,
      "v": 110
    },
    {
      "midi": 28,
      "hit": false,
      "t": 55750,
      "d": 244.79166666666424,
      "v": 110
    },
    {
      "midi": 77,
      "hit": false,
      "t": 56000,
      "d": 416.66666666666424,
      "v": 110
    },
    {
      "midi": 29,
      "hit": false,
      "t": 56000,
      "d": 416.66666666666424,
      "v": 110
    }
  ]
}