{
  "jsonPath": "Jazz/Cool Jazz/Chet Baker/the-more-i-see-you.json",
  "path": "Jazz\\Cool Jazz\\Chet Baker\\The More I See You.mid",
  "name": "The More I See You",
  "difficulty": "Advanced",
  "bpm": 140.00014000014,
  "notes": [
    {
      "midi": 79,
      "hit": false,
      "t": 1571.4270000000001,
      "d": 44.64281249999999,
      "v": 58
    },
    {
      "midi": 87,
      "hit": false,
      "t": 1696.426875,
      "d": 89.28562499999998,
      "v": 77
    },
    {
      "midi": 91,
      "hit": false,
      "t": 1696.426875,
      "d": 169.64268749999997,
      "v": 81
    },
    {
      "midi": 88,
      "hit": false,
      "t": 1767.855375,
      "d": 160.71412499999997,
      "v": 66
    },
    {
      "midi": 93,
      "hit": false,
      "t": 2124.997875,
      "d": 205.35693750000019,
      "v": 103
    },
    {
      "midi": 89,
      "hit": false,
      "t": 2133.9264375000002,
      "d": 214.28549999999996,
      "v": 91
    },
    {
      "midi": 87,
      "hit": false,
      "t": 2598.2116875,
      "d": 35.71425000000045,
      "v": 48
    },
    {
      "midi": 91,
      "hit": false,
      "t": 2607.1402500000004,
      "d": 151.7855625000002,
      "v": 61
    },
    {
      "midi": 88,
      "hit": false,
      "t": 2705.3544375000006,
      "d": 98.21418750000021,
      "v": 67
    },
    {
      "midi": 84,
      "hit": false,
      "t": 2767.854375000001,
      "d": 71.42849999999999,
      "v": 65
    },
    {
      "midi": 79,
      "hit": false,
      "t": 2857.140000000001,
      "d": 71.42849999999999,
      "v": 74
    },
    {
      "midi": 84,
      "hit": false,
      "t": 2999.9970000000008,
      "d": 285.7140000000004,
      "v": 77
    },
    {
      "midi": 77,
      "hit": false,
      "t": 2999.9970000000008,
      "d": 312.4996875000006,
      "v": 60
    },
    {
      "midi": 79,
      "hit": false,
      "t": 3008.925562500001,
      "d": 71.42849999999999,
      "v": 66
    },
    {
      "midi": 75,
      "hit": false,
      "t": 3455.3536875000013,
      "d": 169.6426875000002,
      "v": 67
    },
    {
      "midi": 84,
      "hit": false,
      "t": 3455.3536875000013,
      "d": 205.35693750000064,
      "v": 68
    },
    {
      "midi": 76,
      "hit": false,
      "t": 3633.9249375000018,
      "d": 44.64281250000022,
      "v": 40
    },
    {
      "midi": 55,
      "hit": false,
      "t": 3741.067687500002,
      "d": 98.21418750000021,
      "v": 90
    },
    {
      "midi": 55,
      "hit": false,
      "t": 4169.638687500003,
      "d": 116.0713125000002,
      "v": 92
    },
    {
      "midi": 55,
      "hit": false,
      "t": 4616.066812500003,
      "d": 80.35706250000021,
      "v": 99
    },
    {
      "midi": 43,
      "hit": false,
      "t": 4776.780937500003,
      "d": 2098.212187500005,
      "v": 80
    },
    {
      "midi": 67,
      "hit": false,
      "t": 5455.351687500003,
      "d": 62.49993750000067,
      "v": 76
    },
    {
      "midi": 75,
      "hit": false,
      "t": 5562.494437500004,
      "d": 124.99987500000043,
      "v": 67
    },
    {
      "midi": 79,
      "hit": false,
      "t": 5562.494437500004,
      "d": 169.64268750000065,
      "v": 71
    },
    {
      "midi": 76,
      "hit": false,
      "t": 5678.565750000004,
      "d": 35.71424999999999,
      "v": 62
    },
    {
      "midi": 77,
      "hit": false,
      "t": 5866.0655625000045,
      "d": 98.21418749999975,
      "v": 92
    },
    {
      "midi": 81,
      "hit": false,
      "t": 5866.0655625000045,
      "d": 98.21418749999975,
      "v": 92
    },
    {
      "midi": 79,
      "hit": false,
      "t": 6133.922437500004,
      "d": 124.99987500000134,
      "v": 42
    },
    {
      "midi": 75,
      "hit": false,
      "t": 6160.708125000004,
      "d": 53.571375000000444,
      "v": 56
    },
    {
      "midi": 76,
      "hit": false,
      "t": 6223.208062500004,
      "d": 44.64281250000113,
      "v": 67
    },
    {
      "midi": 72,
      "hit": false,
      "t": 6241.065187500005,
      "d": 71.4285000000009,
      "v": 68
    },
    {
      "midi": 67,
      "hit": false,
      "t": 6330.350812500006,
      "d": 53.571375000000444,
      "v": 71
    },
    {
      "midi": 72,
      "hit": false,
      "t": 6437.493562500007,
      "d": 285.71399999999994,
      "v": 58
    },
    {
      "midi": 65,
      "hit": false,
      "t": 6437.493562500007,
      "d": 312.4996875000006,
      "v": 74
    },
    {
      "midi": 72,
      "hit": false,
      "t": 6874.993125000008,
      "d": 35.71424999999999,
      "v": 58
    },
    {
      "midi": 64,
      "hit": false,
      "t": 6901.778812500008,
      "d": 35.71424999999999,
      "v": 24
    },
    {
      "midi": 55,
      "hit": false,
      "t": 7562.492437500008,
      "d": 98.21418749999975,
      "v": 79
    },
    {
      "midi": 67,
      "hit": false,
      "t": 7571.4210000000085,
      "d": 89.28562499999953,
      "v": 88
    },
    {
      "midi": 72,
      "hit": false,
      "t": 7705.349437500008,
      "d": 348.2139374999997,
      "v": 76
    },
    {
      "midi": 60,
      "hit": false,
      "t": 7705.349437500008,
      "d": 366.07106250000015,
      "v": 81
    },
    {
      "midi": 59,
      "hit": false,
      "t": 8124.991875000009,
      "d": 26.785687500000677,
      "v": 65
    },
    {
      "midi": 71,
      "hit": false,
      "t": 8133.920437500009,
      "d": 241.07118750000063,
      "v": 66
    },
    {
      "midi": 67,
      "hit": false,
      "t": 8473.20581250001,
      "d": 44.64281250000022,
      "v": 24
    },
    {
      "midi": 52,
      "hit": false,
      "t": 8562.49143750001,
      "d": 303.5711249999986,
      "v": 47
    },
    {
      "midi": 57,
      "hit": false,
      "t": 8571.42000000001,
      "d": 294.64256249999926,
      "v": 43
    },
    {
      "midi": 62,
      "hit": false,
      "t": 8571.42000000001,
      "d": 392.856749999999,
      "v": 37
    },
    {
      "midi": 72,
      "hit": false,
      "t": 8580.348562500008,
      "d": 785.7134999999998,
      "v": 62
    },
    {
      "midi": 63,
      "hit": false,
      "t": 9419.633437500008,
      "d": 321.42825000000084,
      "v": 46
    },
    {
      "midi": 67,
      "hit": false,
      "t": 9428.562000000007,
      "d": 401.78531250000196,
      "v": 50
    },
    {
      "midi": 57,
      "hit": false,
      "t": 9446.419125000008,
      "d": 312.4996875000015,
      "v": 31
    },
    {
      "midi": 62,
      "hit": false,
      "t": 10276.77543750001,
      "d": 598.2136874999978,
      "v": 36
    },
    {
      "midi": 59,
      "hit": false,
      "t": 10285.704000000009,
      "d": 491.07093749999876,
      "v": 27
    },
    {
      "midi": 55,
      "hit": false,
      "t": 10303.56112500001,
      "d": 464.285249999999,
      "v": 34
    },
    {
      "midi": 52,
      "hit": false,
      "t": 10312.489687500009,
      "d": 464.285249999999,
      "v": 22
    },
    {
      "midi": 65,
      "hit": false,
      "t": 11017.846125000007,
      "d": 26.785687499999767,
      "v": 80
    },
    {
      "midi": 55,
      "hit": false,
      "t": 11017.846125000007,
      "d": 35.71424999999908,
      "v": 74
    },
    {
      "midi": 72,
      "hit": false,
      "t": 11017.846125000007,
      "d": 71.42849999999999,
      "v": 80
    },
    {
      "midi": 61,
      "hit": false,
      "t": 11017.846125000007,
      "d": 89.28562500000044,
      "v": 74
    },
    {
      "midi": 79,
      "hit": false,
      "t": 11178.560250000008,
      "d": 205.35693750000064,
      "v": 88
    },
    {
      "midi": 78,
      "hit": false,
      "t": 11464.274250000008,
      "d": 71.42849999999999,
      "v": 56
    },
    {
      "midi": 61,
      "hit": false,
      "t": 11491.059937500007,
      "d": 26.785687499999767,
      "v": 33
    },
    {
      "midi": 79,
      "hit": false,
      "t": 11598.202687500008,
      "d": 160.71412500000042,
      "v": 84
    },
    {
      "midi": 78,
      "hit": false,
      "t": 11883.916687500008,
      "d": 71.42849999999817,
      "v": 49
    },
    {
      "midi": 57,
      "hit": false,
      "t": 11892.845250000008,
      "d": 53.571374999999534,
      "v": 39
    },
    {
      "midi": 53,
      "hit": false,
      "t": 11901.773812500007,
      "d": 89.28562500000044,
      "v": 43
    },
    {
      "midi": 60,
      "hit": false,
      "t": 11910.702375000006,
      "d": 35.7142500000009,
      "v": 25
    },
    {
      "midi": 79,
      "hit": false,
      "t": 12008.916562500008,
      "d": 258.9283125000002,
      "v": 66
    },
    {
      "midi": 64,
      "hit": false,
      "t": 12857.130000000008,
      "d": 44.64281250000022,
      "v": 47
    },
    {
      "midi": 57,
      "hit": false,
      "t": 12857.130000000008,
      "d": 89.28562500000044,
      "v": 54
    },
    {
      "midi": 60,
      "hit": false,
      "t": 12866.058562500008,
      "d": 44.64281250000022,
      "v": 46
    },
    {
      "midi": 64,
      "hit": false,
      "t": 13562.486437500009,
      "d": 35.7142500000009,
      "v": 76
    },
    {
      "midi": 59,
      "hit": false,
      "t": 13562.486437500009,
      "d": 44.64281250000022,
      "v": 68
    },
    {
      "midi": 53,
      "hit": false,
      "t": 13580.34356250001,
      "d": 26.785687499999767,
      "v": 59
    },
    {
      "midi": 67,
      "hit": false,
      "t": 13892.843250000009,
      "d": 35.7142500000009,
      "v": 66
    },
    {
      "midi": 72,
      "hit": false,
      "t": 14044.62881250001,
      "d": 89.28562500000044,
      "v": 66
    },
    {
      "midi": 71,
      "hit": false,
      "t": 14053.55737500001,
      "d": 35.7142500000009,
      "v": 73
    },
    {
      "midi": 64,
      "hit": false,
      "t": 14455.342687500011,
      "d": 35.7142500000009,
      "v": 74
    },
    {
      "midi": 59,
      "hit": false,
      "t": 14455.342687500011,
      "d": 71.4285000000018,
      "v": 71
    },
    {
      "midi": 53,
      "hit": false,
      "t": 14473.199812500012,
      "d": 35.7142500000009,
      "v": 57
    },
    {
      "midi": 65,
      "hit": false,
      "t": 14830.342312500014,
      "d": 35.7142500000009,
      "v": 57
    },
    {
      "midi": 67,
      "hit": false,
      "t": 14848.199437500014,
      "d": 35.7142500000009,
      "v": 45
    },
    {
      "midi": 59,
      "hit": false,
      "t": 14946.413625000016,
      "d": 44.64281250000022,
      "v": 51
    },
    {
      "midi": 53,
      "hit": false,
      "t": 14964.270750000016,
      "d": 62.49993750000067,
      "v": 50
    },
    {
      "midi": 72,
      "hit": false,
      "t": 14982.127875000017,
      "d": 107.14275000000089,
      "v": 85
    },
    {
      "midi": 67,
      "hit": false,
      "t": 15124.984875000018,
      "d": 53.571374999999534,
      "v": 74
    },
    {
      "midi": 59,
      "hit": false,
      "t": 15366.056062500018,
      "d": 44.64281250000022,
      "v": 39
    },
    {
      "midi": 62,
      "hit": false,
      "t": 15366.056062500018,
      "d": 44.64281250000022,
      "v": 46
    },
    {
      "midi": 59,
      "hit": false,
      "t": 15758.912812500019,
      "d": 26.785687499999767,
      "v": 64
    },
    {
      "midi": 62,
      "hit": false,
      "t": 15758.912812500019,
      "d": 35.71424999999908,
      "v": 55
    },
    {
      "midi": 55,
      "hit": false,
      "t": 15776.76993750002,
      "d": 26.785687499997948,
      "v": 45
    },
    {
      "midi": 67,
      "hit": false,
      "t": 15919.626937500017,
      "d": 62.49993750000067,
      "v": 84
    },
    {
      "midi": 62,
      "hit": false,
      "t": 16160.698125000019,
      "d": 98.21418749999793,
      "v": 63
    },
    {
      "midi": 67,
      "hit": false,
      "t": 16169.626687500018,
      "d": 53.571374999997715,
      "v": 68
    },
    {
      "midi": 72,
      "hit": false,
      "t": 16169.626687500018,
      "d": 107.14274999999907,
      "v": 99
    },
    {
      "midi": 69,
      "hit": false,
      "t": 16178.555250000018,
      "d": 35.71424999999908,
      "v": 68
    },
    {
      "midi": 63,
      "hit": false,
      "t": 16187.483812500017,
      "d": 35.71424999999908,
      "v": 52
    },
    {
      "midi": 72,
      "hit": false,
      "t": 16348.197937500017,
      "d": 294.6425625000029,
      "v": 68
    },
    {
      "midi": 62,
      "hit": false,
      "t": 16633.91193750002,
      "d": 44.64281250000204,
      "v": 35
    },
    {
      "midi": 60,
      "hit": false,
      "t": 16651.76906250002,
      "d": 44.6428124999984,
      "v": 29
    },
    {
      "midi": 67,
      "hit": false,
      "t": 16723.19756250002,
      "d": 267.8568750000013,
      "v": 68
    },
    {
      "midi": 62,
      "hit": false,
      "t": 17133.91143750002,
      "d": 35.7142500000009,
      "v": 68
    },
    {
      "midi": 59,
      "hit": false,
      "t": 17142.840000000022,
      "d": 98.21418750000157,
      "v": 54
    },
    {
      "midi": 55,
      "hit": false,
      "t": 17151.768562500023,
      "d": 107.14274999999907,
      "v": 54
    },
    {
      "midi": 72,
      "hit": false,
      "t": 17571.411000000022,
      "d": 89.28562500000044,
      "v": 76
    },
    {
      "midi": 57,
      "hit": false,
      "t": 17866.053562500023,
      "d": 26.785687500003405,
      "v": 66
    },
    {
      "midi": 58,
      "hit": false,
      "t": 17866.053562500023,
      "d": 26.785687500003405,
      "v": 58
    },
    {
      "midi": 62,
      "hit": false,
      "t": 17883.910687500025,
      "d": 35.7142500000009,
      "v": 37
    },
    {
      "midi": 58,
      "hit": false,
      "t": 17973.196312500026,
      "d": 223.2140625000029,
      "v": 58
    },
    {
      "midi": 62,
      "hit": false,
      "t": 17982.124875000027,
      "d": 285.7140000000036,
      "v": 67
    },
    {
      "midi": 90,
      "hit": false,
      "t": 17991.053437500028,
      "d": 178.57125000000087,
      "v": 39
    },
    {
      "midi": 53,
      "hit": false,
      "t": 17991.053437500028,
      "d": 303.5711250000022,
      "v": 66
    },
    {
      "midi": 85,
      "hit": false,
      "t": 17991.053437500028,
      "d": 321.42825000000084,
      "v": 71
    },
    {
      "midi": 78,
      "hit": false,
      "t": 17999.98200000003,
      "d": 169.64268749999974,
      "v": 51
    },
    {
      "midi": 57,
      "hit": false,
      "t": 17999.98200000003,
      "d": 294.6425625000011,
      "v": 40
    },
    {
      "midi": 91,
      "hit": false,
      "t": 18026.76768750003,
      "d": 241.07118750000154,
      "v": 30
    },
    {
      "midi": 79,
      "hit": false,
      "t": 18151.76756250003,
      "d": 116.0713125000002,
      "v": 31
    },
    {
      "midi": 63,
      "hit": false,
      "t": 18723.19556250003,
      "d": 44.64281250000204,
      "v": 53
    },
    {
      "midi": 67,
      "hit": false,
      "t": 18732.12412500003,
      "d": 35.7142500000009,
      "v": 53
    },
    {
      "midi": 60,
      "hit": false,
      "t": 18741.052687500032,
      "d": 35.7142500000009,
      "v": 50
    },
    {
      "midi": 79,
      "hit": false,
      "t": 18946.409625000033,
      "d": 80.35706250000294,
      "v": 82
    },
    {
      "midi": 87,
      "hit": false,
      "t": 18946.409625000033,
      "d": 98.21418750000157,
      "v": 74
    },
    {
      "midi": 91,
      "hit": false,
      "t": 18955.338187500034,
      "d": 98.21418750000157,
      "v": 72
    },
    {
      "midi": 63,
      "hit": false,
      "t": 18955.338187500034,
      "d": 142.85699999999997,
      "v": 72
    },
    {
      "midi": 67,
      "hit": false,
      "t": 18964.266750000035,
      "d": 80.3570624999993,
      "v": 76
    },
    {
      "midi": 56,
      "hit": false,
      "t": 18964.266750000035,
      "d": 116.0713125000002,
      "v": 61
    },
    {
      "midi": 60,
      "hit": false,
      "t": 18964.266750000035,
      "d": 116.0713125000002,
      "v": 65
    },
    {
      "midi": 67,
      "hit": false,
      "t": 19276.766437500035,
      "d": 187.499812500002,
      "v": 84
    },
    {
      "midi": 79,
      "hit": false,
      "t": 19276.766437500035,
      "d": 205.35693750000064,
      "v": 81
    },
    {
      "midi": 91,
      "hit": false,
      "t": 19276.766437500035,
      "d": 205.35693750000064,
      "v": 79
    },
    {
      "midi": 87,
      "hit": false,
      "t": 19276.766437500035,
      "d": 214.28550000000178,
      "v": 81
    },
    {
      "midi": 63,
      "hit": false,
      "t": 19276.766437500035,
      "d": 232.14262500000405,
      "v": 75
    },
    {
      "midi": 56,
      "hit": false,
      "t": 19285.695000000036,
      "d": 178.57125000000087,
      "v": 69
    },
    {
      "midi": 60,
      "hit": false,
      "t": 19285.695000000036,
      "d": 214.28550000000178,
      "v": 70
    },
    {
      "midi": 63,
      "hit": false,
      "t": 19571.40900000004,
      "d": 482.1423750000031,
      "v": 71
    },
    {
      "midi": 79,
      "hit": false,
      "t": 19571.40900000004,
      "d": 499.9995000000017,
      "v": 62
    },
    {
      "midi": 84,
      "hit": false,
      "t": 19571.40900000004,
      "d": 499.9995000000017,
      "v": 80
    },
    {
      "midi": 91,
      "hit": false,
      "t": 19571.40900000004,
      "d": 553.5708750000013,
      "v": 74
    },
    {
      "midi": 67,
      "hit": false,
      "t": 19580.33756250004,
      "d": 464.2852500000008,
      "v": 82
    },
    {
      "midi": 60,
      "hit": false,
      "t": 19580.33756250004,
      "d": 491.0709375000006,
      "v": 72
    },
    {
      "midi": 56,
      "hit": false,
      "t": 19589.266125000042,
      "d": 553.5708749999976,
      "v": 71
    },
    {
      "midi": 87,
      "hit": false,
      "t": 19607.12325000004,
      "d": 26.785687499999767,
      "v": 32
    },
    {
      "midi": 87,
      "hit": false,
      "t": 20026.765687500043,
      "d": 62.49993749999703,
      "v": 25
    },
    {
      "midi": 58,
      "hit": false,
      "t": 20071.40850000004,
      "d": 44.6428124999984,
      "v": 19
    },
    {
      "midi": 91,
      "hit": false,
      "t": 20410.69387500004,
      "d": 116.07131250000384,
      "v": 87
    },
    {
      "midi": 85,
      "hit": false,
      "t": 20419.622437500042,
      "d": 151.78556250000474,
      "v": 87
    },
    {
      "midi": 79,
      "hit": false,
      "t": 20419.622437500042,
      "d": 232.14262500000768,
      "v": 85
    },
    {
      "midi": 64,
      "hit": false,
      "t": 20428.551000000043,
      "d": 62.49993750000067,
      "v": 85
    },
    {
      "midi": 59,
      "hit": false,
      "t": 20428.551000000043,
      "d": 107.1427500000027,
      "v": 77
    },
    {
      "midi": 53,
      "hit": false,
      "t": 20428.551000000043,
      "d": 151.78556250000474,
      "v": 81
    },
    {
      "midi": 77,
      "hit": false,
      "t": 20669.62218750005,
      "d": 35.7142500000009,
      "v": 46
    },
    {
      "midi": 76,
      "hit": false,
      "t": 20723.193562500048,
      "d": 35.7142500000009,
      "v": 62
    },
    {
      "midi": 54,
      "hit": false,
      "t": 20803.550625000047,
      "d": 98.21418750000157,
      "v": 88
    },
    {
      "midi": 55,
      "hit": false,
      "t": 20812.47918750005,
      "d": 1044.6418124999982,
      "v": 103
    },
    {
      "midi": 54,
      "hit": false,
      "t": 21705.33543750005,
      "d": 133.92843749999884,
      "v": 46
    },
    {
      "midi": 64,
      "hit": false,
      "t": 21991.049437500045,
      "d": 116.0713125000002,
      "v": 14
    },
    {
      "midi": 67,
      "hit": false,
      "t": 22080.335062500046,
      "d": 53.571374999999534,
      "v": 71
    },
    {
      "midi": 69,
      "hit": false,
      "t": 22169.620687500046,
      "d": 160.71412500000224,
      "v": 89
    },
    {
      "midi": 71,
      "hit": false,
      "t": 22196.406375000046,
      "d": 35.7142500000009,
      "v": 70
    },
    {
      "midi": 62,
      "hit": false,
      "t": 22196.406375000046,
      "d": 44.64281250000204,
      "v": 51
    },
    {
      "midi": 67,
      "hit": false,
      "t": 22348.191937500047,
      "d": 276.7854374999988,
      "v": 70
    },
    {
      "midi": 60,
      "hit": false,
      "t": 22758.905812500045,
      "d": 89.28562500000407,
      "v": 31
    },
    {
      "midi": 62,
      "hit": false,
      "t": 22767.834375000046,
      "d": 71.4285000000018,
      "v": 28
    },
    {
      "midi": 59,
      "hit": false,
      "t": 23553.547875000047,
      "d": 196.4283749999995,
      "v": 52
    },
    {
      "midi": 67,
      "hit": false,
      "t": 23571.405000000046,
      "d": 214.28550000000178,
      "v": 61
    },
    {
      "midi": 63,
      "hit": false,
      "t": 23580.333562500047,
      "d": 205.35693750000064,
      "v": 50
    },
    {
      "midi": 65,
      "hit": false,
      "t": 24017.83312500005,
      "d": 562.4994374999987,
      "v": 54
    },
    {
      "midi": 60,
      "hit": false,
      "t": 24035.690250000047,
      "d": 482.1423750000031,
      "v": 39
    },
    {
      "midi": 61,
      "hit": false,
      "t": 24035.690250000047,
      "d": 624.9993749999994,
      "v": 46
    },
    {
      "midi": 56,
      "hit": false,
      "t": 24044.618812500048,
      "d": 660.7136249999967,
      "v": 36
    },
    {
      "midi": 79,
      "hit": false,
      "t": 24741.046687500046,
      "d": 71.42849999999817,
      "v": 101
    },
    {
      "midi": 65,
      "hit": false,
      "t": 24767.832375000045,
      "d": 44.6428124999984,
      "v": 59
    },
    {
      "midi": 61,
      "hit": false,
      "t": 24767.832375000045,
      "d": 205.35693750000064,
      "v": 47
    },
    {
      "midi": 55,
      "hit": false,
      "t": 24767.832375000045,
      "d": 544.6423124999965,
      "v": 73
    },
    {
      "midi": 79,
      "hit": false,
      "t": 24937.475062500045,
      "d": 107.1427500000027,
      "v": 59
    },
    {
      "midi": 80,
      "hit": false,
      "t": 25008.903562500047,
      "d": 205.356937499997,
      "v": 52
    },
    {
      "midi": 81,
      "hit": false,
      "t": 25116.04631250005,
      "d": 44.6428124999984,
      "v": 34
    },
    {
      "midi": 61,
      "hit": false,
      "t": 25178.546250000047,
      "d": 116.07131249999657,
      "v": 42
    },
    {
      "midi": 82,
      "hit": false,
      "t": 25196.403375000045,
      "d": 241.0711874999979,
      "v": 59
    },
    {
      "midi": 81,
      "hit": false,
      "t": 25339.26037500004,
      "d": 169.64268749999974,
      "v": 61
    },
    {
      "midi": 80,
      "hit": false,
      "t": 25464.260250000043,
      "d": 116.07131249999657,
      "v": 46
    },
    {
      "midi": 79,
      "hit": false,
      "t": 25562.47443750004,
      "d": 89.28562500000044,
      "v": 62
    },
    {
      "midi": 63,
      "hit": false,
      "t": 25705.33143750004,
      "d": 294.64256249999744,
      "v": 33
    },
    {
      "midi": 77,
      "hit": false,
      "t": 25723.18856250004,
      "d": 98.21418750000157,
      "v": 49
    },
    {
      "midi": 60,
      "hit": false,
      "t": 25723.18856250004,
      "d": 151.7855625000011,
      "v": 39
    },
    {
      "midi": 58,
      "hit": false,
      "t": 25732.11712500004,
      "d": 410.71387499999764,
      "v": 45
    },
    {
      "midi": 53,
      "hit": false,
      "t": 25741.045687500042,
      "d": 241.0711874999979,
      "v": 31
    },
    {
      "midi": 75,
      "hit": false,
      "t": 25821.40275000004,
      "d": 196.42837499999587,
      "v": 69
    },
    {
      "midi": 60,
      "hit": false,
      "t": 25999.97400000004,
      "d": 53.571374999999534,
      "v": 24
    },
    {
      "midi": 63,
      "hit": false,
      "t": 26437.47356250004,
      "d": 35.7142500000009,
      "v": 70
    },
    {
      "midi": 60,
      "hit": false,
      "t": 26446.40212500004,
      "d": 26.785687499999767,
      "v": 60
    },
    {
      "midi": 58,
      "hit": false,
      "t": 26446.40212500004,
      "d": 62.49993750000067,
      "v": 40
    },
    {
      "midi": 76,
      "hit": false,
      "t": 26991.04443750004,
      "d": 196.42837500000314,
      "v": 84
    },
    {
      "midi": 77,
      "hit": false,
      "t": 27089.258625000042,
      "d": 178.57125000000087,
      "v": 65
    },
    {
      "midi": 78,
      "hit": false,
      "t": 27178.544250000043,
      "d": 107.14274999999907,
      "v": 38
    },
    {
      "midi": 79,
      "hit": false,
      "t": 27267.829875000043,
      "d": 116.07131249999657,
      "v": 69
    },
    {
      "midi": 78,
      "hit": false,
      "t": 27366.04406250004,
      "d": 116.07131249999657,
      "v": 49
    },
    {
      "midi": 77,
      "hit": false,
      "t": 27428.544000000038,
      "d": 116.0713125000002,
      "v": 62
    },
    {
      "midi": 76,
      "hit": false,
      "t": 27553.54387500004,
      "d": 124.9998749999977,
      "v": 57
    },
    {
      "midi": 75,
      "hit": false,
      "t": 27660.68662500004,
      "d": 35.714249999997264,
      "v": 51
    },
    {
      "midi": 64,
      "hit": false,
      "t": 28124.971875000036,
      "d": 44.6428124999984,
      "v": 70
    },
    {
      "midi": 53,
      "hit": false,
      "t": 28142.829000000034,
      "d": 62.49993750000067,
      "v": 52
    },
    {
      "midi": 59,
      "hit": false,
      "t": 28151.757562500035,
      "d": 44.6428124999984,
      "v": 44
    },
    {
      "midi": 71,
      "hit": false,
      "t": 28535.685750000033,
      "d": 196.42837500000678,
      "v": 85
    },
    {
      "midi": 59,
      "hit": false,
      "t": 28544.614312500034,
      "d": 249.99975000000632,
      "v": 74
    },
    {
      "midi": 63,
      "hit": false,
      "t": 28553.542875000036,
      "d": 249.99975000000632,
      "v": 83
    },
    {
      "midi": 53,
      "hit": false,
      "t": 28562.471437500037,
      "d": 276.7854375000061,
      "v": 74
    },
    {
      "midi": 56,
      "hit": false,
      "t": 28571.400000000038,
      "d": 374.999625000004,
      "v": 52
    },
    {
      "midi": 73,
      "hit": false,
      "t": 28696.39987500004,
      "d": 160.71412500000224,
      "v": 28
    },
    {
      "midi": 74,
      "hit": false,
      "t": 28749.97125000004,
      "d": 35.7142500000009,
      "v": 28
    },
    {
      "midi": 75,
      "hit": false,
      "t": 28857.11400000004,
      "d": 124.99987500000134,
      "v": 55
    },
    {
      "midi": 74,
      "hit": false,
      "t": 28919.613937500042,
      "d": 98.21418750000157,
      "v": 56
    },
    {
      "midi": 73,
      "hit": false,
      "t": 28991.042437500044,
      "d": 107.14274999999907,
      "v": 55
    },
    {
      "midi": 71,
      "hit": false,
      "t": 29071.399500000043,
      "d": 71.42849999999817,
      "v": 58
    },
    {
      "midi": 62,
      "hit": false,
      "t": 29151.756562500042,
      "d": 276.78543750000244,
      "v": 50
    },
    {
      "midi": 57,
      "hit": false,
      "t": 29178.542250000042,
      "d": 71.4285000000018,
      "v": 40
    },
    {
      "midi": 55,
      "hit": false,
      "t": 29178.542250000042,
      "d": 169.64268750000338,
      "v": 41
    },
    {
      "midi": 74,
      "hit": false,
      "t": 29178.542250000042,
      "d": 276.78543750000244,
      "v": 77
    },
    {
      "midi": 51,
      "hit": false,
      "t": 29187.470812500043,
      "d": 196.42837500000314,
      "v": 31
    },
    {
      "midi": 72,
      "hit": false,
      "t": 29491.041937500046,
      "d": 89.28562500000044,
      "v": 74
    },
    {
      "midi": 67,
      "hit": false,
      "t": 29669.613187500046,
      "d": 258.9283125000002,
      "v": 32
    },
    {
      "midi": 67,
      "hit": false,
      "t": 30026.75568750005,
      "d": 71.4285000000018,
      "v": 65
    },
    {
      "midi": 65,
      "hit": false,
      "t": 30437.46956250005,
      "d": 116.0713125000002,
      "v": 49
    },
    {
      "midi": 58,
      "hit": false,
      "t": 30437.46956250005,
      "d": 205.35693750000064,
      "v": 48
    },
    {
      "midi": 61,
      "hit": false,
      "t": 30446.39812500005,
      "d": 124.9998749999977,
      "v": 55
    },
    {
      "midi": 63,
      "hit": false,
      "t": 30892.82625000005,
      "d": 392.8567500000063,
      "v": 57
    },
    {
      "midi": 55,
      "hit": false,
      "t": 30901.75481250005,
      "d": 812.4991875000087,
      "v": 47
    },
    {
      "midi": 60,
      "hit": false,
      "t": 30937.46906250005,
      "d": 205.35693750000428,
      "v": 25
    },
    {
      "midi": 57,
      "hit": false,
      "t": 30946.397625000052,
      "d": 312.49968750000335,
      "v": 24
    },
    {
      "midi": 60,
      "hit": false,
      "t": 31276.754437500054,
      "d": 133.92843750000247,
      "v": 33
    },
    {
      "midi": 72,
      "hit": false,
      "t": 31321.397250000056,
      "d": 98.21418750000157,
      "v": 48
    },
    {
      "midi": 73,
      "hit": false,
      "t": 31392.825750000058,
      "d": 196.4283749999995,
      "v": 53
    },
    {
      "midi": 74,
      "hit": false,
      "t": 31464.254250000056,
      "d": 107.14274999999907,
      "v": 65
    },
    {
      "midi": 75,
      "hit": false,
      "t": 31580.325562500057,
      "d": 169.64268750000338,
      "v": 71
    },
    {
      "midi": 74,
      "hit": false,
      "t": 31660.68262500006,
      "d": 116.0713125000002,
      "v": 62
    },
    {
      "midi": 73,
      "hit": false,
      "t": 31741.03968750006,
      "d": 133.92843750000247,
      "v": 61
    },
    {
      "midi": 72,
      "hit": false,
      "t": 31874.96812500006,
      "d": 71.4285000000018,
      "v": 60
    },
    {
      "midi": 65,
      "hit": false,
      "t": 32464.253250000063,
      "d": 705.3564375000024,
      "v": 79
    },
    {
      "midi": 58,
      "hit": false,
      "t": 32464.253250000063,
      "d": 973.2133125,
      "v": 61
    },
    {
      "midi": 60,
      "hit": false,
      "t": 32473.181812500065,
      "d": 767.856375000003,
      "v": 62
    },
    {
      "midi": 54,
      "hit": false,
      "t": 32473.181812500065,
      "d": 964.2847499999989,
      "v": 57
    },
    {
      "midi": 65,
      "hit": false,
      "t": 33303.538125000065,
      "d": 71.4285000000018,
      "v": 83
    },
    {
      "midi": 70,
      "hit": false,
      "t": 33446.39512500006,
      "d": 80.3570624999993,
      "v": 57
    },
    {
      "midi": 74,
      "hit": false,
      "t": 33571.39500000006,
      "d": 26.785687499999767,
      "v": 72
    },
    {
      "midi": 77,
      "hit": false,
      "t": 33678.53775000006,
      "d": 98.21418750000157,
      "v": 74
    },
    {
      "midi": 58,
      "hit": false,
      "t": 33776.75193750006,
      "d": 53.571374999999534,
      "v": 21
    },
    {
      "midi": 82,
      "hit": false,
      "t": 33812.46618750006,
      "d": 80.3570624999993,
      "v": 65
    },
    {
      "midi": 89,
      "hit": false,
      "t": 34026.75168750006,
      "d": 80.3570624999993,
      "v": 74
    },
    {
      "midi": 94,
      "hit": false,
      "t": 34133.89443750006,
      "d": 89.2856249999968,
      "v": 61
    },
    {
      "midi": 98,
      "hit": false,
      "t": 34241.03718750006,
      "d": 169.6426874999961,
      "v": 88
    },
    {
      "midi": 59,
      "hit": false,
      "t": 34321.394250000056,
      "d": 142.85699999999633,
      "v": 45
    },
    {
      "midi": 64,
      "hit": false,
      "t": 34330.32281250005,
      "d": 116.07131249999657,
      "v": 40
    },
    {
      "midi": 53,
      "hit": false,
      "t": 34330.32281250005,
      "d": 187.49981249999837,
      "v": 52
    },
    {
      "midi": 95,
      "hit": false,
      "t": 34374.965625000055,
      "d": 107.14274999999907,
      "v": 73
    },
    {
      "midi": 54,
      "hit": false,
      "t": 34642.82250000005,
      "d": 187.49981249999837,
      "v": 81
    },
    {
      "midi": 55,
      "hit": false,
      "t": 34642.82250000005,
      "d": 580.3565624999974,
      "v": 96
    },
    {
      "midi": 79,
      "hit": false,
      "t": 35017.82212500005,
      "d": 71.4285000000018,
      "v": 77
    },
    {
      "midi": 86,
      "hit": false,
      "t": 35169.60768750005,
      "d": 187.49981249999837,
      "v": 79
    },
    {
      "midi": 84,
      "hit": false,
      "t": 35178.53625000005,
      "d": 196.42837500000314,
      "v": 80
    },
    {
      "midi": 64,
      "hit": false,
      "t": 35419.60743750005,
      "d": 499.9994999999981,
      "v": 89
    },
    {
      "midi": 53,
      "hit": false,
      "t": 35419.60743750005,
      "d": 517.8566250000003,
      "v": 82
    },
    {
      "midi": 59,
      "hit": false,
      "t": 35428.53600000005,
      "d": 401.7853125000038,
      "v": 75
    },
    {
      "midi": 83,
      "hit": false,
      "t": 35812.46418750005,
      "d": 169.64268750000338,
      "v": 95
    },
    {
      "midi": 57,
      "hit": false,
      "t": 36035.678250000055,
      "d": 330.3568124999947,
      "v": 40
    },
    {
      "midi": 62,
      "hit": false,
      "t": 36035.678250000055,
      "d": 446.42812499999127,
      "v": 57
    },
    {
      "midi": 52,
      "hit": false,
      "t": 36053.53537500006,
      "d": 321.42824999998993,
      "v": 36
    },
    {
      "midi": 84,
      "hit": false,
      "t": 36062.463937500055,
      "d": 303.57112499999494,
      "v": 65
    },
    {
      "midi": 83,
      "hit": false,
      "t": 36089.249625000055,
      "d": 160.7141249999986,
      "v": 31
    },
    {
      "midi": 79,
      "hit": false,
      "t": 36446.39212500005,
      "d": 214.28549999999814,
      "v": 60
    },
    {
      "midi": 57,
      "hit": false,
      "t": 36732.10612500004,
      "d": 741.070687499996,
      "v": 73
    },
    {
      "midi": 63,
      "hit": false,
      "t": 36946.39162500004,
      "d": 312.4996874999997,
      "v": 26
    },
    {
      "midi": 67,
      "hit": false,
      "t": 36991.03443750004,
      "d": 205.35693750000064,
      "v": 10
    },
    {
      "midi": 67,
      "hit": false,
      "t": 37330.31981250004,
      "d": 205.35693749999336,
      "v": 44
    },
    {
      "midi": 63,
      "hit": false,
      "t": 37330.31981250004,
      "d": 241.07118749999063,
      "v": 47
    },
    {
      "midi": 55,
      "hit": false,
      "t": 37616.033812500034,
      "d": 749.999250000008,
      "v": 78
    },
    {
      "midi": 62,
      "hit": false,
      "t": 38151.74756250004,
      "d": 142.8570000000036,
      "v": 24
    },
    {
      "midi": 64,
      "hit": false,
      "t": 38214.24750000004,
      "d": 223.21406249999563,
      "v": 42
    },
    {
      "midi": 55,
      "hit": false,
      "t": 38446.390125000034,
      "d": 749.9992500000008,
      "v": 76
    },
    {
      "midi": 61,
      "hit": false,
      "t": 39017.818125000034,
      "d": 258.9283125000002,
      "v": 46
    },
    {
      "midi": 65,
      "hit": false,
      "t": 39035.67525000004,
      "d": 160.7141249999986,
      "v": 47
    },
    {
      "midi": 87,
      "hit": false,
      "t": 39294.60356250004,
      "d": 107.14274999999179,
      "v": 84
    },
    {
      "midi": 64,
      "hit": false,
      "t": 39321.38925000004,
      "d": 80.35706249999203,
      "v": 62
    },
    {
      "midi": 60,
      "hit": false,
      "t": 39321.38925000004,
      "d": 142.85699999998906,
      "v": 56
    },
    {
      "midi": 57,
      "hit": false,
      "t": 39330.317812500034,
      "d": 294.64256249999016,
      "v": 55
    },
    {
      "midi": 53,
      "hit": false,
      "t": 39339.24637500003,
      "d": 973.2133124999818,
      "v": 40
    },
    {
      "midi": 88,
      "hit": false,
      "t": 39535.67475000003,
      "d": 124.99987499999406,
      "v": 61
    },
    {
      "midi": 89,
      "hit": false,
      "t": 39741.03168750002,
      "d": 116.07131249999657,
      "v": 80
    },
    {
      "midi": 60,
      "hit": false,
      "t": 39767.81737500002,
      "d": 80.3570624999993,
      "v": 50
    },
    {
      "midi": 57,
      "hit": false,
      "t": 39767.81737500002,
      "d": 124.99987499999406,
      "v": 48
    },
    {
      "midi": 64,
      "hit": false,
      "t": 39776.74593750002,
      "d": 44.64281250000204,
      "v": 35
    },
    {
      "midi": 91,
      "hit": false,
      "t": 39937.46006250002,
      "d": 151.7855625000011,
      "v": 89
    },
    {
      "midi": 88,
      "hit": false,
      "t": 40169.60268750002,
      "d": 116.07131249999657,
      "v": 89
    },
    {
      "midi": 64,
      "hit": false,
      "t": 40187.45981250002,
      "d": 44.64281249999476,
      "v": 47
    },
    {
      "midi": 60,
      "hit": false,
      "t": 40196.38837500002,
      "d": 44.64281249999476,
      "v": 46
    },
    {
      "midi": 57,
      "hit": false,
      "t": 40205.316937500014,
      "d": 223.21406249999563,
      "v": 39
    },
    {
      "midi": 84,
      "hit": false,
      "t": 40366.03106250001,
      "d": 205.35693750000064,
      "v": 50
    },
    {
      "midi": 81,
      "hit": false,
      "t": 40598.17368750001,
      "d": 98.2141874999943,
      "v": 67
    },
    {
      "midi": 57,
      "hit": false,
      "t": 40616.030812500016,
      "d": 401.78531249998196,
      "v": 50
    },
    {
      "midi": 53,
      "hit": false,
      "t": 40624.95937500001,
      "d": 232.14262499999313,
      "v": 43
    },
    {
      "midi": 60,
      "hit": false,
      "t": 40624.95937500001,
      "d": 276.7854374999879,
      "v": 46
    },
    {
      "midi": 64,
      "hit": false,
      "t": 40633.88793750001,
      "d": 232.14262499999313,
      "v": 33
    },
    {
      "midi": 77,
      "hit": false,
      "t": 40830.31631250001,
      "d": 160.71412499999133,
      "v": 9
    },
    {
      "midi": 72,
      "hit": false,
      "t": 41044.6018125,
      "d": 62.49993749999703,
      "v": 58
    },
    {
      "midi": 64,
      "hit": false,
      "t": 41062.4589375,
      "d": 35.714249999997264,
      "v": 66
    },
    {
      "midi": 59,
      "hit": false,
      "t": 41062.4589375,
      "d": 98.2141874999943,
      "v": 64
    },
    {
      "midi": 53,
      "hit": false,
      "t": 41071.3875,
      "d": 339.2853749999922,
      "v": 58
    },
    {
      "midi": 80,
      "hit": false,
      "t": 41214.24449999999,
      "d": 98.21418750000157,
      "v": 56
    },
    {
      "midi": 84,
      "hit": false,
      "t": 41366.030062499995,
      "d": 98.2141874999943,
      "v": 83
    },
    {
      "midi": 81,
      "hit": false,
      "t": 41374.95862499999,
      "d": 89.2856249999968,
      "v": 84
    },
    {
      "midi": 79,
      "hit": false,
      "t": 41669.60118749999,
      "d": 89.2856249999968,
      "v": 77
    },
    {
      "midi": 76,
      "hit": false,
      "t": 41678.52974999999,
      "d": 35.714249999997264,
      "v": 73
    },
    {
      "midi": 77,
      "hit": false,
      "t": 41678.52974999999,
      "d": 35.714249999997264,
      "v": 66
    },
    {
      "midi": 77,
      "hit": false,
      "t": 41901.74381249999,
      "d": 116.07131249999657,
      "v": 84
    },
    {
      "midi": 74,
      "hit": false,
      "t": 41919.60093749999,
      "d": 80.35706249999203,
      "v": 74
    },
    {
      "midi": 64,
      "hit": false,
      "t": 41928.52949999999,
      "d": 35.714249999997264,
      "v": 62
    },
    {
      "midi": 59,
      "hit": false,
      "t": 41928.52949999999,
      "d": 116.07131249999657,
      "v": 57
    },
    {
      "midi": 53,
      "hit": false,
      "t": 41928.52949999999,
      "d": 178.5712499999936,
      "v": 61
    },
    {
      "midi": 79,
      "hit": false,
      "t": 42169.60068749998,
      "d": 116.07131249999657,
      "v": 62
    },
    {
      "midi": 76,
      "hit": false,
      "t": 42232.10062499998,
      "d": 98.2141874999943,
      "v": 60
    },
    {
      "midi": 77,
      "hit": false,
      "t": 42241.029187499975,
      "d": 53.571374999999534,
      "v": 32
    },
    {
      "midi": 72,
      "hit": false,
      "t": 42294.600562499974,
      "d": 71.42849999999453,
      "v": 68
    },
    {
      "midi": 67,
      "hit": false,
      "t": 42366.02906249997,
      "d": 53.571374999999534,
      "v": 71
    },
    {
      "midi": 63,
      "hit": false,
      "t": 42383.88618749997,
      "d": 80.3570624999993,
      "v": 49
    },
    {
      "midi": 53,
      "hit": false,
      "t": 42392.81474999997,
      "d": 205.35693750000064,
      "v": 35
    },
    {
      "midi": 72,
      "hit": false,
      "t": 42482.10037499997,
      "d": 160.7141249999986,
      "v": 59
    },
    {
      "midi": 65,
      "hit": false,
      "t": 42491.02893749997,
      "d": 214.28549999999814,
      "v": 74
    },
    {
      "midi": 72,
      "hit": false,
      "t": 42749.95724999997,
      "d": 53.571374999999534,
      "v": 42
    },
    {
      "midi": 63,
      "hit": false,
      "t": 42749.95724999997,
      "d": 133.92843749999884,
      "v": 79
    },
    {
      "midi": 62,
      "hit": false,
      "t": 42767.81437499997,
      "d": 71.42849999999453,
      "v": 65
    },
    {
      "midi": 58,
      "hit": false,
      "t": 42767.81437499997,
      "d": 133.92843749999884,
      "v": 47
    },
    {
      "midi": 57,
      "hit": false,
      "t": 42767.81437499997,
      "d": 151.7855625000011,
      "v": 57
    },
    {
      "midi": 52,
      "hit": false,
      "t": 42812.45718749997,
      "d": 419.6424374999988,
      "v": 41
    },
    {
      "midi": 64,
      "hit": false,
      "t": 42955.31418749997,
      "d": 151.7855625000011,
      "v": 57
    },
    {
      "midi": 65,
      "hit": false,
      "t": 43169.59968749997,
      "d": 116.07131249999657,
      "v": 79
    },
    {
      "midi": 58,
      "hit": false,
      "t": 43196.38537499997,
      "d": 53.571374999999534,
      "v": 35
    },
    {
      "midi": 62,
      "hit": false,
      "t": 43196.38537499997,
      "d": 446.42812499999854,
      "v": 61
    },
    {
      "midi": 66,
      "hit": false,
      "t": 43330.31381249997,
      "d": 62.49993749999703,
      "v": 59
    },
    {
      "midi": 69,
      "hit": false,
      "t": 43464.24224999997,
      "d": 98.21418750000157,
      "v": 62
    },
    {
      "midi": 72,
      "hit": false,
      "t": 43580.31356249997,
      "d": 71.42849999999453,
      "v": 47
    },
    {
      "midi": 71,
      "hit": false,
      "t": 43589.24212499997,
      "d": 71.42849999999453,
      "v": 48
    },
    {
      "midi": 63,
      "hit": false,
      "t": 43669.59918749996,
      "d": 107.14274999999907,
      "v": 33
    },
    {
      "midi": 57,
      "hit": false,
      "t": 43687.45631249996,
      "d": 482.14237499998853,
      "v": 50
    },
    {
      "midi": 76,
      "hit": false,
      "t": 43705.313437499964,
      "d": 71.42849999999453,
      "v": 54
    },
    {
      "midi": 74,
      "hit": false,
      "t": 43714.24199999996,
      "d": 53.571374999999534,
      "v": 55
    },
    {
      "midi": 71,
      "hit": false,
      "t": 43803.52762499996,
      "d": 80.3570624999993,
      "v": 68
    },
    {
      "midi": 72,
      "hit": false,
      "t": 43901.74181249996,
      "d": 116.07131249999657,
      "v": 63
    },
    {
      "midi": 74,
      "hit": false,
      "t": 44008.88456249996,
      "d": 44.64281249999476,
      "v": 53
    },
    {
      "midi": 63,
      "hit": false,
      "t": 44044.59881249996,
      "d": 89.2856249999968,
      "v": 46
    },
    {
      "midi": 75,
      "hit": false,
      "t": 44080.313062499954,
      "d": 26.785687499999767,
      "v": 51
    },
    {
      "midi": 79,
      "hit": false,
      "t": 44205.31293749995,
      "d": 98.2141874999943,
      "v": 45
    },
    {
      "midi": 83,
      "hit": false,
      "t": 44294.598562499945,
      "d": 89.2856249999968,
      "v": 60
    },
    {
      "midi": 86,
      "hit": false,
      "t": 44410.66987499994,
      "d": 169.64268750000338,
      "v": 91
    },
    {
      "midi": 84,
      "hit": false,
      "t": 44553.526874999945,
      "d": 142.85699999999633,
      "v": 81
    },
    {
      "midi": 83,
      "hit": false,
      "t": 44857.09799999994,
      "d": 62.49993749999703,
      "v": 87
    },
    {
      "midi": 59,
      "hit": false,
      "t": 44910.66937499994,
      "d": 53.571374999999534,
      "v": 49
    },
    {
      "midi": 62,
      "hit": false,
      "t": 44919.59793749994,
      "d": 44.64281250000204,
      "v": 40
    },
    {
      "midi": 64,
      "hit": false,
      "t": 45303.52612499994,
      "d": 35.714249999997264,
      "v": 79
    },
    {
      "midi": 59,
      "hit": false,
      "t": 45312.454687499936,
      "d": 71.4285000000018,
      "v": 72
    },
    {
      "midi": 53,
      "hit": false,
      "t": 45321.38324999993,
      "d": 44.64281250000204,
      "v": 54
    },
    {
      "midi": 82,
      "hit": false,
      "t": 45473.168812499935,
      "d": 142.8570000000036,
      "v": 49
    },
    {
      "midi": 59,
      "hit": false,
      "t": 45732.097124999935,
      "d": 35.71425000000454,
      "v": 62
    },
    {
      "midi": 63,
      "hit": false,
      "t": 45732.097124999935,
      "d": 44.64281250000204,
      "v": 73
    },
    {
      "midi": 83,
      "hit": false,
      "t": 45732.097124999935,
      "d": 89.28562500000407,
      "v": 78
    },
    {
      "midi": 53,
      "hit": false,
      "t": 45749.95424999994,
      "d": 44.64281250000204,
      "v": 40
    },
    {
      "midi": 86,
      "hit": false,
      "t": 45901.73981249994,
      "d": 178.57125000000087,
      "v": 90
    },
    {
      "midi": 81,
      "hit": false,
      "t": 46142.81099999994,
      "d": 98.21418750000157,
      "v": 70
    },
    {
      "midi": 62,
      "hit": false,
      "t": 46151.73956249994,
      "d": 35.714249999997264,
      "v": 66
    },
    {
      "midi": 58,
      "hit": false,
      "t": 46151.73956249994,
      "d": 71.4285000000018,
      "v": 46
    },
    {
      "midi": 57,
      "hit": false,
      "t": 46160.66812499994,
      "d": 44.64281250000204,
      "v": 36
    },
    {
      "midi": 86,
      "hit": false,
      "t": 46410.66787499995,
      "d": 89.2856249999968,
      "v": 68
    },
    {
      "midi": 89,
      "hit": false,
      "t": 46526.739187499945,
      "d": 98.2141874999943,
      "v": 60
    },
    {
      "midi": 58,
      "hit": false,
      "t": 46589.23912499994,
      "d": 232.14262499999313,
      "v": 35
    },
    {
      "midi": 93,
      "hit": false,
      "t": 46616.02481249994,
      "d": 89.2856249999968,
      "v": 68
    },
    {
      "midi": 94,
      "hit": false,
      "t": 46758.88181249994,
      "d": 133.92843749999884,
      "v": 71
    },
    {
      "midi": 90,
      "hit": false,
      "t": 46910.66737499994,
      "d": 71.4285000000018,
      "v": 68
    },
    {
      "midi": 93,
      "hit": false,
      "t": 47026.73868749994,
      "d": 98.21418750000157,
      "v": 80
    },
    {
      "midi": 90,
      "hit": false,
      "t": 47178.524249999944,
      "d": 26.785687499999767,
      "v": 52
    },
    {
      "midi": 91,
      "hit": false,
      "t": 47276.738437499946,
      "d": 133.92843749999884,
      "v": 87
    },
    {
      "midi": 62,
      "hit": false,
      "t": 47848.166437499945,
      "d": 26.785687499999767,
      "v": 85
    },
    {
      "midi": 57,
      "hit": false,
      "t": 47848.166437499945,
      "d": 80.3570624999993,
      "v": 72
    },
    {
      "midi": 90,
      "hit": false,
      "t": 48017.80912499994,
      "d": 71.4285000000018,
      "v": 70
    },
    {
      "midi": 91,
      "hit": false,
      "t": 48107.094749999946,
      "d": 116.07131249999657,
      "v": 64
    },
    {
      "midi": 90,
      "hit": false,
      "t": 48187.451812499945,
      "d": 124.99987499999406,
      "v": 57
    },
    {
      "midi": 88,
      "hit": false,
      "t": 48455.30868749994,
      "d": 160.7141249999986,
      "v": 52
    },
    {
      "midi": 87,
      "hit": false,
      "t": 48687.45131249994,
      "d": 124.99987499999406,
      "v": 74
    },
    {
      "midi": 58,
      "hit": false,
      "t": 48714.23699999994,
      "d": 107.14274999999179,
      "v": 56
    },
    {
      "midi": 62,
      "hit": false,
      "t": 48723.16556249994,
      "d": 26.785687499999767,
      "v": 50
    },
    {
      "midi": 52,
      "hit": false,
      "t": 48741.02268749994,
      "d": 44.64281249999476,
      "v": 47
    },
    {
      "midi": 85,
      "hit": false,
      "t": 48892.80824999994,
      "d": 98.21418750000157,
      "v": 56
    },
    {
      "midi": 87,
      "hit": false,
      "t": 48999.950999999935,
      "d": 53.571374999999534,
      "v": 60
    },
    {
      "midi": 88,
      "hit": false,
      "t": 49053.522374999935,
      "d": 62.49993749999703,
      "v": 58
    },
    {
      "midi": 87,
      "hit": false,
      "t": 49089.23662499993,
      "d": 133.92843749999884,
      "v": 34
    },
    {
      "midi": 85,
      "hit": false,
      "t": 49187.450812499934,
      "d": 98.21418750000157,
      "v": 63
    },
    {
      "midi": 61,
      "hit": false,
      "t": 49214.23649999993,
      "d": 205.35693750000064,
      "v": 25
    },
    {
      "midi": 58,
      "hit": false,
      "t": 49223.16506249993,
      "d": 169.64268750000338,
      "v": 32
    },
    {
      "midi": 52,
      "hit": false,
      "t": 49241.02218749993,
      "d": 124.99987500000134,
      "v": 43
    },
    {
      "midi": 84,
      "hit": false,
      "t": 49294.59356249993,
      "d": 89.28562500000407,
      "v": 66
    },
    {
      "midi": 82,
      "hit": false,
      "t": 49401.73631249993,
      "d": 142.8570000000036,
      "v": 54
    },
    {
      "midi": 79,
      "hit": false,
      "t": 49598.164687499935,
      "d": 44.64281250000204,
      "v": 45
    },
    {
      "midi": 60,
      "hit": false,
      "t": 49624.950374999935,
      "d": 71.4285000000018,
      "v": 27
    },
    {
      "midi": 57,
      "hit": false,
      "t": 49642.80749999994,
      "d": 98.21418750000157,
      "v": 40
    },
    {
      "midi": 84,
      "hit": false,
      "t": 49696.37887499994,
      "d": 124.99987500000134,
      "v": 80
    },
    {
      "midi": 81,
      "hit": false,
      "t": 49883.878687499935,
      "d": 89.2856249999968,
      "v": 71
    },
    {
      "midi": 57,
      "hit": false,
      "t": 50071.37849999993,
      "d": 89.28562500000407,
      "v": 37
    },
    {
      "midi": 76,
      "hit": false,
      "t": 50124.94987499993,
      "d": 80.35706250000658,
      "v": 44
    },
    {
      "midi": 74,
      "hit": false,
      "t": 50142.806999999935,
      "d": 35.71425000000454,
      "v": 41
    },
    {
      "midi": 79,
      "hit": false,
      "t": 50232.09262499994,
      "d": 258.9283124999929,
      "v": 68
    },
    {
      "midi": 64,
      "hit": false,
      "t": 50446.37812499994,
      "d": 35.714249999997264,
      "v": 61
    },
    {
      "midi": 60,
      "hit": false,
      "t": 50473.16381249994,
      "d": 44.64281249999476,
      "v": 37
    },
    {
      "midi": 57,
      "hit": false,
      "t": 50482.092374999935,
      "d": 62.49993749999703,
      "v": 33
    },
    {
      "midi": 72,
      "hit": false,
      "t": 50571.37799999993,
      "d": 35.714249999997264,
      "v": 24
    },
    {
      "midi": 76,
      "hit": false,
      "t": 50678.52074999993,
      "d": 249.99975000000268,
      "v": 89
    },
    {
      "midi": 64,
      "hit": false,
      "t": 50892.80624999993,
      "d": 35.71425000000454,
      "v": 56
    },
    {
      "midi": 60,
      "hit": false,
      "t": 50910.66337499993,
      "d": 44.64281250000204,
      "v": 54
    },
    {
      "midi": 57,
      "hit": false,
      "t": 50910.66337499993,
      "d": 98.21418750000157,
      "v": 54
    },
    {
      "midi": 69,
      "hit": false,
      "t": 51017.80612499993,
      "d": 71.4285000000018,
      "v": 71
    },
    {
      "midi": 72,
      "hit": false,
      "t": 51151.73456249993,
      "d": 178.57125000000087,
      "v": 79
    },
    {
      "midi": 64,
      "hit": false,
      "t": 51330.30581249993,
      "d": 35.714249999997264,
      "v": 44
    },
    {
      "midi": 60,
      "hit": false,
      "t": 51339.23437499993,
      "d": 80.3570624999993,
      "v": 48
    },
    {
      "midi": 56,
      "hit": false,
      "t": 51348.162937499925,
      "d": 62.49993750000431,
      "v": 37
    },
    {
      "midi": 68,
      "hit": false,
      "t": 51446.377124999926,
      "d": 98.21418750000157,
      "v": 75
    },
    {
      "midi": 72,
      "hit": false,
      "t": 51580.305562499925,
      "d": 196.42837500000314,
      "v": 74
    },
    {
      "midi": 64,
      "hit": false,
      "t": 51749.94824999993,
      "d": 35.714249999997264,
      "v": 59
    },
    {
      "midi": 60,
      "hit": false,
      "t": 51767.80537499993,
      "d": 44.64281249999476,
      "v": 53
    },
    {
      "midi": 56,
      "hit": false,
      "t": 51776.73393749993,
      "d": 62.49993749999703,
      "v": 35
    },
    {
      "midi": 65,
      "hit": false,
      "t": 51874.94812499992,
      "d": 80.3570624999993,
      "v": 71
    },
    {
      "midi": 68,
      "hit": false,
      "t": 51999.947999999924,
      "d": 151.7855625000011,
      "v": 73
    },
    {
      "midi": 56,
      "hit": false,
      "t": 52187.44781249992,
      "d": 26.785687499999767,
      "v": 32
    },
    {
      "midi": 53,
      "hit": false,
      "t": 52205.304937499925,
      "d": 35.714249999997264,
      "v": 26
    },
    {
      "midi": 62,
      "hit": false,
      "t": 52285.661999999924,
      "d": 116.07131249999657,
      "v": 73
    },
    {
      "midi": 65,
      "hit": false,
      "t": 52437.44756249992,
      "d": 98.21418750000157,
      "v": 75
    },
    {
      "midi": 62,
      "hit": false,
      "t": 52723.16156249992,
      "d": 214.28549999999814,
      "v": 68
    },
    {
      "midi": 67,
      "hit": false,
      "t": 52723.16156249992,
      "d": 223.21406249999563,
      "v": 77
    },
    {
      "midi": 56,
      "hit": false,
      "t": 52723.16156249992,
      "d": 312.49968749999243,
      "v": 61
    },
    {
      "midi": 55,
      "hit": false,
      "t": 53062.44693749991,
      "d": 580.3565624999974,
      "v": 72
    },
    {
      "midi": 65,
      "hit": false,
      "t": 53071.37549999991,
      "d": 35.714249999997264,
      "v": 44
    },
    {
      "midi": 60,
      "hit": false,
      "t": 53071.37549999991,
      "d": 499.9994999999981,
      "v": 73
    },
    {
      "midi": 64,
      "hit": false,
      "t": 53071.37549999991,
      "d": 678.570749999999,
      "v": 62
    },
    {
      "midi": 67,
      "hit": false,
      "t": 53999.9459999999,
      "d": 223.21406249999563,
      "v": 85
    },
    {
      "midi": 56,
      "hit": false,
      "t": 53999.9459999999,
      "d": 232.14262499999313,
      "v": 80
    },
    {
      "midi": 62,
      "hit": false,
      "t": 53999.9459999999,
      "d": 249.9997499999954,
      "v": 79
    },
    {
      "midi": 82,
      "hit": false,
      "t": 54008.8745624999,
      "d": 124.99987500000134,
      "v": 86
    },
    {
      "midi": 94,
      "hit": false,
      "t": 54008.8745624999,
      "d": 187.49981249999837,
      "v": 84
    },
    {
      "midi": 95,
      "hit": false,
      "t": 54035.6602499999,
      "d": 124.99987500000134,
      "v": 66
    },
    {
      "midi": 96,
      "hit": false,
      "t": 54053.5173749999,
      "d": 89.2856249999968,
      "v": 60
    },
    {
      "midi": 83,
      "hit": false,
      "t": 54133.8744374999,
      "d": 62.49993749999703,
      "v": 34
    },
    {
      "midi": 84,
      "hit": false,
      "t": 54142.8029999999,
      "d": 44.64281250000204,
      "v": 29
    },
    {
      "midi": 96,
      "hit": false,
      "t": 54312.445687499894,
      "d": 80.3570624999993,
      "v": 77
    },
    {
      "midi": 84,
      "hit": false,
      "t": 54330.3028124999,
      "d": 35.714249999997264,
      "v": 73
    },
    {
      "midi": 67,
      "hit": false,
      "t": 54339.231374999894,
      "d": 35.714249999997264,
      "v": 66
    },
    {
      "midi": 95,
      "hit": false,
      "t": 54339.231374999894,
      "d": 35.714249999997264,
      "v": 44
    },
    {
      "midi": 56,
      "hit": false,
      "t": 54339.231374999894,
      "d": 53.571374999999534,
      "v": 57
    },
    {
      "midi": 62,
      "hit": false,
      "t": 54339.231374999894,
      "d": 80.3570624999993,
      "v": 62
    },
    {
      "midi": 67,
      "hit": false,
      "t": 54464.231249999895,
      "d": 151.7855625000011,
      "v": 66
    },
    {
      "midi": 56,
      "hit": false,
      "t": 54464.231249999895,
      "d": 241.0711874999979,
      "v": 67
    },
    {
      "midi": 62,
      "hit": false,
      "t": 54473.15981249989,
      "d": 124.99987500000134,
      "v": 57
    },
    {
      "midi": 94,
      "hit": false,
      "t": 54482.08837499989,
      "d": 160.71412500000588,
      "v": 67
    },
    {
      "midi": 82,
      "hit": false,
      "t": 54482.08837499989,
      "d": 196.42837500000314,
      "v": 70
    },
    {
      "midi": 93,
      "hit": false,
      "t": 54758.87381249989,
      "d": 169.6426874999961,
      "v": 80
    },
    {
      "midi": 88,
      "hit": false,
      "t": 54758.87381249989,
      "d": 205.35693749999336,
      "v": 71
    },
    {
      "midi": 81,
      "hit": false,
      "t": 54758.87381249989,
      "d": 214.28549999999086,
      "v": 74
    },
    {
      "midi": 55,
      "hit": false,
      "t": 54758.87381249989,
      "d": 223.21406249998836,
      "v": 85
    },
    {
      "midi": 67,
      "hit": false,
      "t": 54767.80237499989,
      "d": 35.714249999997264,
      "v": 64
    },
    {
      "midi": 65,
      "hit": false,
      "t": 54767.80237499989,
      "d": 196.42837499999587,
      "v": 69
    },
    {
      "midi": 61,
      "hit": false,
      "t": 54767.80237499989,
      "d": 241.07118749999063,
      "v": 71
    },
    {
      "midi": 80,
      "hit": false,
      "t": 55160.65912499988,
      "d": 499.9994999999981,
      "v": 83
    },
    {
      "midi": 92,
      "hit": false,
      "t": 55160.65912499988,
      "d": 499.9994999999981,
      "v": 83
    },
    {
      "midi": 65,
      "hit": false,
      "t": 55169.58768749988,
      "d": 437.49956250000105,
      "v": 89
    },
    {
      "midi": 60,
      "hit": false,
      "t": 55169.58768749988,
      "d": 446.42812499999854,
      "v": 83
    },
    {
      "midi": 87,
      "hit": false,
      "t": 55169.58768749988,
      "d": 508.92806250000285,
      "v": 81
    },
    {
      "midi": 54,
      "hit": false,
      "t": 55178.51624999988,
      "d": 499.99950000000536,
      "v": 79
    },
    {
      "midi": 58,
      "hit": false,
      "t": 55196.37337499988,
      "d": 35.714249999997264,
      "v": 40
    },
    {
      "midi": 64,
      "hit": false,
      "t": 55732.08712499988,
      "d": 267.8568749999977,
      "v": 67
    },
    {
      "midi": 53,
      "hit": false,
      "t": 55741.01568749988,
      "d": 241.0711874999979,
      "v": 58
    },
    {
      "midi": 59,
      "hit": false,
      "t": 55741.01568749988,
      "d": 312.4996874999997,
      "v": 60
    },
    {
      "midi": 91,
      "hit": false,
      "t": 55749.94424999988,
      "d": 178.57125000000087,
      "v": 61
    },
    {
      "midi": 79,
      "hit": false,
      "t": 55749.94424999988,
      "d": 232.1426250000004,
      "v": 71
    },
    {
      "midi": 86,
      "hit": false,
      "t": 55767.80137499988,
      "d": 214.28549999999814,
      "v": 62
    },
    {
      "midi": 89,
      "hit": false,
      "t": 55776.72993749988,
      "d": 133.92843749999884,
      "v": 37
    },
    {
      "midi": 59,
      "hit": false,
      "t": 56160.65812499988,
      "d": 160.71412499999133,
      "v": 53
    },
    {
      "midi": 63,
      "hit": false,
      "t": 56160.65812499988,
      "d": 223.21406249998836,
      "v": 69
    },
    {
      "midi": 90,
      "hit": false,
      "t": 56160.65812499988,
      "d": 267.8568749999831,
      "v": 67
    },
    {
      "midi": 85,
      "hit": false,
      "t": 56169.586687499876,
      "d": 205.35693749999336,
      "v": 71
    },
    {
      "midi": 78,
      "hit": false,
      "t": 56169.586687499876,
      "d": 223.21406249998836,
      "v": 65
    },
    {
      "midi": 53,
      "hit": false,
      "t": 56178.51524999987,
      "d": 124.99987499999406,
      "v": 51
    },
    {
      "midi": 56,
      "hit": false,
      "t": 56187.44381249987,
      "d": 133.92843749999884,
      "v": 32
    },
    {
      "midi": 55,
      "hit": false,
      "t": 56598.15768749986,
      "d": 26.785687499999767,
      "v": 54
    },
    {
      "midi": 64,
      "hit": false,
      "t": 56598.15768749986,
      "d": 44.64281249999476,
      "v": 49
    },
    {
      "midi": 91,
      "hit": false,
      "t": 56598.15768749986,
      "d": 124.99987499999406,
      "v": 67
    },
    {
      "midi": 79,
      "hit": false,
      "t": 56607.086249999855,
      "d": 44.64281249999476,
      "v": 60
    },
    {
      "midi": 84,
      "hit": false,
      "t": 56607.086249999855,
      "d": 44.64281249999476,
      "v": 62
    },
    {
      "midi": 57,
      "hit": false,
      "t": 56874.94312499985,
      "d": 321.42824999998993,
      "v": 71
    },
    {
      "midi": 95,
      "hit": false,
      "t": 56883.87168749985,
      "d": 303.57112499999494,
      "v": 94
    },
    {
      "midi": 83,
      "hit": false,
      "t": 56883.87168749985,
      "d": 330.3568124999947,
      "v": 91
    },
    {
      "midi": 68,
      "hit": false,
      "t": 56892.80024999985,
      "d": 357.14249999999447,
      "v": 83
    },
    {
      "midi": 63,
      "hit": false,
      "t": 56892.80024999985,
      "d": 383.92818749999424,
      "v": 76
    },
    {
      "midi": 88,
      "hit": false,
      "t": 56910.65737499985,
      "d": 35.714249999997264,
      "v": 56
    },
    {
      "midi": 67,
      "hit": false,
      "t": 57294.585562499844,
      "d": 303.5711250000022,
      "v": 80
    },
    {
      "midi": 89,
      "hit": false,
      "t": 57294.585562499844,
      "d": 312.4996874999997,
      "v": 84
    },
    {
      "midi": 62,
      "hit": false,
      "t": 57294.585562499844,
      "d": 330.356812500002,
      "v": 79
    },
    {
      "midi": 94,
      "hit": false,
      "t": 57294.585562499844,
      "d": 339.2853749999995,
      "v": 81
    },
    {
      "midi": 82,
      "hit": false,
      "t": 57294.585562499844,
      "d": 357.14250000000175,
      "v": 78
    },
    {
      "midi": 56,
      "hit": false,
      "t": 57312.442687499846,
      "d": 348.213937499997,
      "v": 72
    },
    {
      "midi": 66,
      "hit": false,
      "t": 57732.08512499984,
      "d": 303.57112499999494,
      "v": 90
    },
    {
      "midi": 93,
      "hit": false,
      "t": 57741.013687499835,
      "d": 205.35693750000064,
      "v": 87
    },
    {
      "midi": 55,
      "hit": false,
      "t": 57741.013687499835,
      "d": 241.0711874999979,
      "v": 84
    },
    {
      "midi": 61,
      "hit": false,
      "t": 57741.013687499835,
      "d": 330.3568124999947,
      "v": 74
    },
    {
      "midi": 88,
      "hit": false,
      "t": 57749.94224999983,
      "d": 249.99975000000268,
      "v": 83
    },
    {
      "midi": 81,
      "hit": false,
      "t": 57758.87081249983,
      "d": 223.2140625000029,
      "v": 71
    },
    {
      "midi": 65,
      "hit": false,
      "t": 58151.72756249983,
      "d": 107.14274999999907,
      "v": 88
    },
    {
      "midi": 60,
      "hit": false,
      "t": 58151.72756249983,
      "d": 142.85699999999633,
      "v": 81
    },
    {
      "midi": 87,
      "hit": false,
      "t": 58151.72756249983,
      "d": 241.0711874999979,
      "v": 88
    },
    {
      "midi": 92,
      "hit": false,
      "t": 58151.72756249983,
      "d": 249.9997499999954,
      "v": 85
    },
    {
      "midi": 80,
      "hit": false,
      "t": 58151.72756249983,
      "d": 258.9283124999929,
      "v": 88
    },
    {
      "midi": 54,
      "hit": false,
      "t": 58160.65612499983,
      "d": 187.49981249999837,
      "v": 80
    },
    {
      "midi": 91,
      "hit": false,
      "t": 58571.36999999982,
      "d": 160.7141249999986,
      "v": 88
    },
    {
      "midi": 87,
      "hit": false,
      "t": 58571.36999999982,
      "d": 169.6426874999961,
      "v": 82
    },
    {
      "midi": 79,
      "hit": false,
      "t": 58571.36999999982,
      "d": 223.21406249999563,
      "v": 90
    },
    {
      "midi": 55,
      "hit": false,
      "t": 58571.36999999982,
      "d": 464.28524999998626,
      "v": 110
    },
    {
      "midi": 49,
      "hit": false,
      "t": 58598.15568749982,
      "d": 26.785687499999767,
      "v": 59
    },
    {
      "midi": 89,
      "hit": false,
      "t": 58598.15568749982,
      "d": 35.714249999997264,
      "v": 40
    },
    {
      "midi": 88,
      "hit": false,
      "t": 58741.01268749982,
      "d": 26.785687499999767,
      "v": 63
    },
    {
      "midi": 44,
      "hit": false,
      "t": 58973.15531249981,
      "d": 35.714249999997264,
      "v": 64
    },
    {
      "midi": 67,
      "hit": false,
      "t": 59124.940874999804,
      "d": 196.42837499999587,
      "v": 79
    },
    {
      "midi": 63,
      "hit": false,
      "t": 59142.797999999806,
      "d": 133.92843749999884,
      "v": 60
    },
    {
      "midi": 64,
      "hit": false,
      "t": 59285.6549999998,
      "d": 71.42849999999453,
      "v": 58
    },
    {
      "midi": 55,
      "hit": false,
      "t": 59410.6548749998,
      "d": 35.71425000000454,
      "v": 58
    },
    {
      "midi": 65,
      "hit": false,
      "t": 59428.5119999998,
      "d": 89.28562500000407,
      "v": 95
    },
    {
      "midi": 69,
      "hit": false,
      "t": 59428.5119999998,
      "d": 89.28562500000407,
      "v": 94
    },
    {
      "midi": 67,
      "hit": false,
      "t": 59598.1546874998,
      "d": 116.07131249999657,
      "v": 58
    },
    {
      "midi": 63,
      "hit": false,
      "t": 59607.0832499998,
      "d": 116.07131249999657,
      "v": 65
    },
    {
      "midi": 67,
      "hit": false,
      "t": 59776.725937499796,
      "d": 44.64281250000204,
      "v": 32
    },
    {
      "midi": 64,
      "hit": false,
      "t": 59776.725937499796,
      "d": 80.3570624999993,
      "v": 71
    },
    {
      "midi": 65,
      "hit": false,
      "t": 59803.511624999795,
      "d": 26.785687499999767,
      "v": 53
    },
    {
      "midi": 50,
      "hit": false,
      "t": 59883.868687499795,
      "d": 35.714249999997264,
      "v": 38
    },
    {
      "midi": 65,
      "hit": false,
      "t": 59910.654374999795,
      "d": 71.42849999999453,
      "v": 92
    },
    {
      "midi": 69,
      "hit": false,
      "t": 59910.654374999795,
      "d": 71.42849999999453,
      "v": 94
    },
    {
      "midi": 67,
      "hit": false,
      "t": 59946.36862499979,
      "d": 35.714249999997264,
      "v": 28
    },
    {
      "midi": 43,
      "hit": false,
      "t": 59999.93999999979,
      "d": 232.1426250000004,
      "v": 48
    },
    {
      "midi": 52,
      "hit": false,
      "t": 60006.63642187479,
      "d": 2620.5330937499893,
      "v": 39
    },
    {
      "midi": 55,
      "hit": false,
      "t": 61153.95670312479,
      "d": 75.89278124999691,
      "v": 67
    },
    {
      "midi": 57,
      "hit": false,
      "t": 61330.29581249979,
      "d": 78.12492187500175,
      "v": 46
    },
    {
      "midi": 60,
      "hit": false,
      "t": 61602.61696874979,
      "d": 55.80351562499709,
      "v": 74
    },
    {
      "midi": 63,
      "hit": false,
      "t": 61825.831031249785,
      "d": 93.74990624999919,
      "v": 70
    },
    {
      "midi": 64,
      "hit": false,
      "t": 62051.277234374786,
      "d": 78.12492187500175,
      "v": 87
    },
    {
      "midi": 65,
      "hit": false,
      "t": 62225.384203124784,
      "d": 116.07131249999657,
      "v": 80
    },
    {
      "midi": 63,
      "hit": false,
      "t": 62453.06254687478,
      "d": 98.21418750000157,
      "v": 72
    },
    {
      "midi": 64,
      "hit": false,
      "t": 62607.08024999978,
      "d": 160.7141249999986,
      "v": 71
    },
    {
      "midi": 60,
      "hit": false,
      "t": 62854.84785937478,
      "d": 84.82134375000169,
      "v": 68
    },
    {
      "midi": 55,
      "hit": false,
      "t": 63017.79412499978,
      "d": 198.6605156250007,
      "v": 37
    },
    {
      "midi": 53,
      "hit": false,
      "t": 63256.63317187478,
      "d": 116.07131249999657,
      "v": 57
    },
    {
      "midi": 43,
      "hit": false,
      "t": 63285.65099999978,
      "d": 40.17853124999965,
      "v": 31
    },
    {
      "midi": 52,
      "hit": false,
      "t": 63419.57943749978,
      "d": 754.4635312499959,
      "v": 46
    },
    {
      "midi": 36,
      "hit": false,
      "t": 63720.918421874776,
      "d": 44.64281250000204,
      "v": 44
    },
    {
      "midi": 50,
      "hit": false,
      "t": 64145.02514062478,
      "d": 29.017828124997322,
      "v": 31
    },
    {
      "midi": 64,
      "hit": false,
      "t": 64254.400031249774,
      "d": 234.37476562499796,
      "v": 76
    },
    {
      "midi": 60,
      "hit": false,
      "t": 64546.81045312477,
      "d": 100.44632812499913,
      "v": 60
    },
    {
      "midi": 50,
      "hit": false,
      "t": 64569.13185937477,
      "d": 40.17853124999965,
      "v": 38
    },
    {
      "midi": 57,
      "hit": false,
      "t": 64711.988859374775,
      "d": 227.67834374999802,
      "v": 34
    },
    {
      "midi": 55,
      "hit": false,
      "t": 64986.54215624977,
      "d": 116.07131249999657,
      "v": 60
    },
    {
      "midi": 52,
      "hit": false,
      "t": 65194.13123437477,
      "d": 212.05335937500058,
      "v": 44
    },
    {
      "midi": 40,
      "hit": false,
      "t": 65417.34529687477,
      "d": 71.4285000000018,
      "v": 60
    },
    {
      "midi": 65,
      "hit": false,
      "t": 65964.21974999977,
      "d": 62.49993750000431,
      "v": 41
    },
    {
      "midi": 58,
      "hit": false,
      "t": 65970.91617187478,
      "d": 109.37489062499662,
      "v": 45
    },
    {
      "midi": 61,
      "hit": false,
      "t": 65973.14831249978,
      "d": 91.51776562500163,
      "v": 43
    },
    {
      "midi": 55,
      "hit": false,
      "t": 65982.07687499978,
      "d": 64.73207812500186,
      "v": 29
    },
    {
      "midi": 77,
      "hit": false,
      "t": 66403.95145312477,
      "d": 274.5532968750049,
      "v": 91
    },
    {
      "midi": 76,
      "hit": false,
      "t": 66709.75471874977,
      "d": 337.0532343750092,
      "v": 82
    },
    {
      "midi": 53,
      "hit": false,
      "t": 66716.45114062478,
      "d": 93.74990624999919,
      "v": 55
    },
    {
      "midi": 60,
      "hit": false,
      "t": 66718.68328124977,
      "d": 26.785687499999767,
      "v": 63
    },
    {
      "midi": 57,
      "hit": false,
      "t": 66720.91542187477,
      "d": 33.482109375006985,
      "v": 51
    },
    {
      "midi": 72,
      "hit": false,
      "t": 66995.46871874978,
      "d": 84.82134375000896,
      "v": 43
    },
    {
      "midi": 69,
      "hit": false,
      "t": 67142.78999999979,
      "d": 82.58920312499686,
      "v": 36
    },
    {
      "midi": 65,
      "hit": false,
      "t": 67270.02201562478,
      "d": 305.8032656250143,
      "v": 50
    },
    {
      "midi": 64,
      "hit": false,
      "t": 67569.12885937479,
      "d": 917.4097968749993,
      "v": 51
    },
    {
      "midi": 53,
      "hit": false,
      "t": 68015.5569843748,
      "d": 60.2677968749922,
      "v": 45
    },
    {
      "midi": 57,
      "hit": false,
      "t": 68017.78912499979,
      "d": 29.017828124997322,
      "v": 48
    },
    {
      "midi": 60,
      "hit": false,
      "t": 68017.78912499979,
      "d": 29.017828124997322,
      "v": 49
    },
    {
      "midi": 64,
      "hit": false,
      "t": 68564.66357812479,
      "d": 758.9278124999983,
      "v": 51
    },
    {
      "midi": 53,
      "hit": false,
      "t": 68569.12785937478,
      "d": 805.8027656250051,
      "v": 38
    },
    {
      "midi": 59,
      "hit": false,
      "t": 68573.59214062478,
      "d": 872.7669843750045,
      "v": 54
    },
    {
      "midi": 72,
      "hit": false,
      "t": 69022.25240624978,
      "d": 149.55342187499627,
      "v": 91
    },
    {
      "midi": 74,
      "hit": false,
      "t": 69216.44864062477,
      "d": 109.37489062501118,
      "v": 44
    },
    {
      "midi": 72,
      "hit": false,
      "t": 69290.10928124978,
      "d": 95.98204687501129,
      "v": 29
    },
    {
      "midi": 71,
      "hit": false,
      "t": 69388.32346874979,
      "d": 84.82134374999441,
      "v": 51
    },
    {
      "midi": 72,
      "hit": false,
      "t": 69508.85906249979,
      "d": 517.8566250000003,
      "v": 73
    },
    {
      "midi": 63,
      "hit": false,
      "t": 69745.46596874979,
      "d": 44.64281250000931,
      "v": 51
    },
    {
      "midi": 59,
      "hit": false,
      "t": 69754.3945312498,
      "d": 29.017828124997322,
      "v": 58
    },
    {
      "midi": 53,
      "hit": false,
      "t": 69758.85881249979,
      "d": 35.71425000000454,
      "v": 40
    },
    {
      "midi": 74,
      "hit": false,
      "t": 70037.87639062479,
      "d": 98.2141874999943,
      "v": 56
    },
    {
      "midi": 72,
      "hit": false,
      "t": 70120.46559374979,
      "d": 84.82134374999441,
      "v": 24
    },
    {
      "midi": 71,
      "hit": false,
      "t": 70209.75121874978,
      "d": 66.96421874999942,
      "v": 56
    },
    {
      "midi": 72,
      "hit": false,
      "t": 70316.89396874978,
      "d": 243.30332812499546,
      "v": 76
    },
    {
      "midi": 74,
      "hit": false,
      "t": 70582.51870312478,
      "d": 82.58920312501141,
      "v": 53
    },
    {
      "midi": 72,
      "hit": false,
      "t": 70620.46509374978,
      "d": 107.14275000001362,
      "v": 44
    },
    {
      "midi": 58,
      "hit": false,
      "t": 70631.62579687478,
      "d": 40.1785312500142,
      "v": 34
    },
    {
      "midi": 71,
      "hit": false,
      "t": 70716.44714062479,
      "d": 292.4104218749999,
      "v": 63
    },
    {
      "midi": 72,
      "hit": false,
      "t": 71015.5539843748,
      "d": 113.83917187500629,
      "v": 62
    },
    {
      "midi": 74,
      "hit": false,
      "t": 71305.7322656248,
      "d": 205.35693749999336,
      "v": 64
    },
    {
      "midi": 63,
      "hit": false,
      "t": 71444.1249843748,
      "d": 35.71425000000454,
      "v": 27
    },
    {
      "midi": 62,
      "hit": false,
      "t": 71459.74996874979,
      "d": 46.87495312500687,
      "v": 33
    },
    {
      "midi": 67,
      "hit": false,
      "t": 71557.9641562498,
      "d": 232.14262499999313,
      "v": 57
    },
    {
      "midi": 67,
      "hit": false,
      "t": 71861.53528124979,
      "d": 55.80351562499709,
      "v": 58
    },
    {
      "midi": 62,
      "hit": false,
      "t": 72299.03484374979,
      "d": 31.249968749994878,
      "v": 58
    },
    {
      "midi": 55,
      "hit": false,
      "t": 72307.9634062498,
      "d": 69.19635937498242,
      "v": 54
    },
    {
      "midi": 59,
      "hit": false,
      "t": 72312.42768749979,
      "d": 35.71424999998999,
      "v": 36
    },
    {
      "midi": 72,
      "hit": false,
      "t": 72430.73114062478,
      "d": 46.87495312500687,
      "v": 35
    },
    {
      "midi": 58,
      "hit": false,
      "t": 72729.83798437478,
      "d": 31.249968749994878,
      "v": 54
    },
    {
      "midi": 61,
      "hit": false,
      "t": 72734.30226562478,
      "d": 26.785687499999767,
      "v": 46
    },
    {
      "midi": 90,
      "hit": false,
      "t": 72830.28431249977,
      "d": 165.1784062499937,
      "v": 74
    },
    {
      "midi": 78,
      "hit": false,
      "t": 72834.74859374977,
      "d": 154.01770312499139,
      "v": 71
    },
    {
      "midi": 61,
      "hit": false,
      "t": 72841.44501562478,
      "d": 361.60678124999686,
      "v": 67
    },
    {
      "midi": 55,
      "hit": false,
      "t": 72843.67715624977,
      "d": 325.8925312499923,
      "v": 80
    },
    {
      "midi": 65,
      "hit": false,
      "t": 72843.67715624977,
      "d": 334.8210937499971,
      "v": 80
    },
    {
      "midi": 58,
      "hit": false,
      "t": 72848.14143749977,
      "d": 354.9103593750042,
      "v": 62
    },
    {
      "midi": 91,
      "hit": false,
      "t": 72919.56993749976,
      "d": 225.44620312500047,
      "v": 35
    },
    {
      "midi": 79,
      "hit": false,
      "t": 72964.21274999976,
      "d": 189.73195312501048,
      "v": 34
    },
    {
      "midi": 78,
      "hit": false,
      "t": 73261.08745312477,
      "d": 162.94626562499616,
      "v": 59
    },
    {
      "midi": 90,
      "hit": false,
      "t": 73263.31959374977,
      "d": 205.35693749999336,
      "v": 60
    },
    {
      "midi": 61,
      "hit": false,
      "t": 73265.55173437476,
      "d": 359.37464062501385,
      "v": 54
    },
    {
      "midi": 55,
      "hit": false,
      "t": 73270.01601562476,
      "d": 212.05335937500058,
      "v": 55
    },
    {
      "midi": 65,
      "hit": false,
      "t": 73272.24815624976,
      "d": 209.82121875000303,
      "v": 58
    },
    {
      "midi": 58,
      "hit": false,
      "t": 73276.71243749975,
      "d": 261.16045312501956,
      "v": 56
    },
    {
      "midi": 91,
      "hit": false,
      "t": 73392.78374999975,
      "d": 138.3927187500085,
      "v": 1
    },
    {
      "midi": 79,
      "hit": false,
      "t": 73415.10515624976,
      "d": 142.85700000001816,
      "v": 25
    },
    {
      "midi": 60,
      "hit": false,
      "t": 73711.97985937478,
      "d": 609.374390625002,
      "v": 53
    },
    {
      "midi": 58,
      "hit": false,
      "t": 73716.44414062478,
      "d": 1082.5882031250221,
      "v": 48
    },
    {
      "midi": 63,
      "hit": false,
      "t": 73718.67628124978,
      "d": 776.7849375000078,
      "v": 35
    },
    {
      "midi": 53,
      "hit": false,
      "t": 73727.60484374978,
      "d": 1426.337859375053,
      "v": 32
    },
    {
      "midi": 60,
      "hit": false,
      "t": 74450.81840624979,
      "d": 332.58895312499953,
      "v": 30
    },
    {
      "midi": 94,
      "hit": false,
      "t": 74573.58614062479,
      "d": 84.82134375000896,
      "v": 85
    },
    {
      "midi": 92,
      "hit": false,
      "t": 74598.13968749979,
      "d": 26.785687499999767,
      "v": 45
    },
    {
      "midi": 94,
      "hit": false,
      "t": 74792.3359218748,
      "d": 80.35706250001385,
      "v": 85
    },
    {
      "midi": 60,
      "hit": false,
      "t": 74906.17509374981,
      "d": 174.10696875001304,
      "v": 31
    },
    {
      "midi": 58,
      "hit": false,
      "t": 74926.26435937482,
      "d": 162.9462656250107,
      "v": 25
    },
    {
      "midi": 94,
      "hit": false,
      "t": 75002.15714062483,
      "d": 174.10696875001304,
      "v": 81
    },
    {
      "midi": 93,
      "hit": false,
      "t": 75147.24628124983,
      "d": 82.58920312501141,
      "v": 64
    },
    {
      "midi": 92,
      "hit": false,
      "t": 75200.81765624984,
      "d": 104.91060937498696,
      "v": 49
    },
    {
      "midi": 91,
      "hit": false,
      "t": 75301.26398437483,
      "d": 75.89278124998964,
      "v": 54
    },
    {
      "midi": 64,
      "hit": false,
      "t": 75430.72814062482,
      "d": 58.0356562500092,
      "v": 30
    },
    {
      "midi": 59,
      "hit": false,
      "t": 75437.42456249983,
      "d": 80.3570624999993,
      "v": 36
    },
    {
      "midi": 89,
      "hit": false,
      "t": 75448.58526562483,
      "d": 84.82134374999441,
      "v": 62
    },
    {
      "midi": 53,
      "hit": false,
      "t": 75448.58526562483,
      "d": 107.14274999999907,
      "v": 17
    },
    {
      "midi": 87,
      "hit": false,
      "t": 75627.15651562483,
      "d": 109.37489062499662,
      "v": 69
    },
    {
      "midi": 86,
      "hit": false,
      "t": 75801.26348437482,
      "d": 91.51776562500163,
      "v": 74
    },
    {
      "midi": 89,
      "hit": false,
      "t": 75961.97760937482,
      "d": 82.58920312499686,
      "v": 62
    },
    {
      "midi": 87,
      "hit": false,
      "t": 76187.42381249982,
      "d": 100.4463281250064,
      "v": 69
    },
    {
      "midi": 81,
      "hit": false,
      "t": 76390.54860937483,
      "d": 124.99987499999406,
      "v": 29
    },
    {
      "midi": 59,
      "hit": false,
      "t": 76607.06624999983,
      "d": 75.89278125000419,
      "v": 52
    },
    {
      "midi": 82,
      "hit": false,
      "t": 76607.06624999983,
      "d": 113.83917187500629,
      "v": 62
    },
    {
      "midi": 62,
      "hit": false,
      "t": 76609.29839062483,
      "d": 51.33923437500198,
      "v": 43
    },
    {
      "midi": 53,
      "hit": false,
      "t": 76624.92337499982,
      "d": 120.5355937500135,
      "v": 29
    },
    {
      "midi": 80,
      "hit": false,
      "t": 76792.33392187484,
      "d": 142.8570000000036,
      "v": 51
    },
    {
      "midi": 79,
      "hit": false,
      "t": 77031.17296874984,
      "d": 71.42849999999453,
      "v": 66
    },
    {
      "midi": 51,
      "hit": false,
      "t": 77031.17296874984,
      "d": 131.69629687500128,
      "v": 56
    },
    {
      "midi": 62,
      "hit": false,
      "t": 77060.19079687484,
      "d": 49.107093750004424,
      "v": 22
    },
    {
      "midi": 57,
      "hit": false,
      "t": 77062.42293749984,
      "d": 71.42850000000908,
      "v": 36
    },
    {
      "midi": 77,
      "hit": false,
      "t": 77191.88709374984,
      "d": 287.9461406250048,
      "v": 71
    },
    {
      "midi": 51,
      "hit": false,
      "t": 77479.83323437485,
      "d": 46.87495312499232,
      "v": 29
    },
    {
      "midi": 62,
      "hit": false,
      "t": 77495.45821874985,
      "d": 31.249968749994878,
      "v": 24
    },
    {
      "midi": 74,
      "hit": false,
      "t": 77499.92249999984,
      "d": 37.946390625002095,
      "v": 38
    },
    {
      "midi": 57,
      "hit": false,
      "t": 77517.77962499984,
      "d": 49.107093750004424,
      "v": 28
    },
    {
      "midi": 75,
      "hit": false,
      "t": 77622.69023437484,
      "d": 87.05348437499197,
      "v": 76
    },
    {
      "midi": 74,
      "hit": false,
      "t": 77667.33304687483,
      "d": 53.571374999999534,
      "v": 36
    },
    {
      "midi": 77,
      "hit": false,
      "t": 78006.61842187484,
      "d": 256.69617187499534,
      "v": 68
    },
    {
      "midi": 86,
      "hit": false,
      "t": 78024.47554687483,
      "d": 55.80351562499709,
      "v": 63
    },
    {
      "midi": 84,
      "hit": false,
      "t": 78026.70768749983,
      "d": 183.03553125000326,
      "v": 64
    },
    {
      "midi": 75,
      "hit": false,
      "t": 78307.95740624983,
      "d": 66.96421874999942,
      "v": 46
    },
    {
      "midi": 77,
      "hit": false,
      "t": 78428.49299999983,
      "d": 180.8033906250057,
      "v": 71
    },
    {
      "midi": 84,
      "hit": false,
      "t": 78439.65370312483,
      "d": 162.94626562499616,
      "v": 75
    },
    {
      "midi": 77,
      "hit": false,
      "t": 78743.22482812483,
      "d": 281.2497187500121,
      "v": 83
    },
    {
      "midi": 84,
      "hit": false,
      "t": 78749.92124999984,
      "d": 285.7140000000072,
      "v": 80
    },
    {
      "midi": 61,
      "hit": false,
      "t": 78754.38553124983,
      "d": 308.0354062500119,
      "v": 37
    },
    {
      "midi": 65,
      "hit": false,
      "t": 78756.61767187483,
      "d": 591.5172656250215,
      "v": 58
    },
    {
      "midi": 60,
      "hit": false,
      "t": 78756.61767187483,
      "d": 618.3029531250213,
      "v": 51
    },
    {
      "midi": 56,
      "hit": false,
      "t": 78763.31409374984,
      "d": 803.5706250000221,
      "v": 35
    },
    {
      "midi": 82,
      "hit": false,
      "t": 79031.17096874985,
      "d": 234.37476562500524,
      "v": 46
    },
    {
      "midi": 61,
      "hit": false,
      "t": 79140.54585937485,
      "d": 392.8567500000063,
      "v": 32
    },
    {
      "midi": 77,
      "hit": false,
      "t": 79145.01014062484,
      "d": 111.60703125000873,
      "v": 40
    },
    {
      "midi": 73,
      "hit": false,
      "t": 79247.68860937485,
      "d": 49.107093750004424,
      "v": 38
    },
    {
      "midi": 77,
      "hit": false,
      "t": 79365.99206249985,
      "d": 147.32128124999872,
      "v": 66
    },
    {
      "midi": 84,
      "hit": false,
      "t": 79379.38490624985,
      "d": 129.46415625000373,
      "v": 67
    },
    {
      "midi": 61,
      "hit": false,
      "t": 79636.08107812486,
      "d": 741.0706875000178,
      "v": 48
    },
    {
      "midi": 55,
      "hit": false,
      "t": 79638.31321874986,
      "d": 607.142250000019,
      "v": 65
    },
    {
      "midi": 65,
      "hit": false,
      "t": 79645.00964062486,
      "d": 578.1244218750071,
      "v": 54
    },
    {
      "midi": 60,
      "hit": false,
      "t": 80432.95528124987,
      "d": 558.0351562499854,
      "v": 71
    },
    {
      "midi": 63,
      "hit": false,
      "t": 80435.18742187487,
      "d": 517.8566249999858,
      "v": 70
    },
    {
      "midi": 58,
      "hit": false,
      "t": 80439.65170312487,
      "d": 647.3207812499895,
      "v": 53
    },
    {
      "midi": 53,
      "hit": false,
      "t": 80444.11598437486,
      "d": 707.5885781249963,
      "v": 59
    },
    {
      "midi": 84,
      "hit": false,
      "t": 80973.13331249986,
      "d": 158.4819843749865,
      "v": 84
    },
    {
      "midi": 72,
      "hit": false,
      "t": 80975.36545312486,
      "d": 185.26767187500081,
      "v": 81
    },
    {
      "midi": 73,
      "hit": false,
      "t": 81287.86514062485,
      "d": 111.60703125000873,
      "v": 69
    },
    {
      "midi": 85,
      "hit": false,
      "t": 81290.09728124985,
      "d": 122.76773437501106,
      "v": 86
    },
    {
      "midi": 53,
      "hit": false,
      "t": 81292.32942187485,
      "d": 131.69629687501583,
      "v": 70
    },
    {
      "midi": 63,
      "hit": false,
      "t": 81292.32942187485,
      "d": 131.69629687501583,
      "v": 71
    },
    {
      "midi": 58,
      "hit": false,
      "t": 81299.02584374986,
      "d": 165.17840625000827,
      "v": 62
    },
    {
      "midi": 63,
      "hit": false,
      "t": 81482.06137499986,
      "d": 169.64268750001793,
      "v": 50
    },
    {
      "midi": 58,
      "hit": false,
      "t": 81490.98993749986,
      "d": 189.73195312501048,
      "v": 21
    },
    {
      "midi": 53,
      "hit": false,
      "t": 81493.22207812486,
      "d": 138.3927187500085,
      "v": 50
    },
    {
      "midi": 87,
      "hit": false,
      "t": 81495.45421874986,
      "d": 116.07131250000384,
      "v": 77
    },
    {
      "midi": 75,
      "hit": false,
      "t": 81495.45421874986,
      "d": 147.32128125001327,
      "v": 62
    },
    {
      "midi": 85,
      "hit": false,
      "t": 81723.13256249987,
      "d": 82.58920312501141,
      "v": 56
    },
    {
      "midi": 63,
      "hit": false,
      "t": 81725.36470312487,
      "d": 82.58920312501141,
      "v": 49
    },
    {
      "midi": 73,
      "hit": false,
      "t": 81727.59684374987,
      "d": 95.98204687501129,
      "v": 39
    },
    {
      "midi": 53,
      "hit": false,
      "t": 81738.75754687487,
      "d": 75.89278125000419,
      "v": 44
    },
    {
      "midi": 58,
      "hit": false,
      "t": 81745.45396874988,
      "d": 319.19610937502875,
      "v": 36
    },
    {
      "midi": 63,
      "hit": false,
      "t": 81888.31096874988,
      "d": 111.60703125000873,
      "v": 46
    },
    {
      "midi": 53,
      "hit": false,
      "t": 81890.54310937488,
      "d": 151.78556250002293,
      "v": 30
    },
    {
      "midi": 84,
      "hit": false,
      "t": 81901.70381249988,
      "d": 60.26779687500675,
      "v": 41
    },
    {
      "midi": 72,
      "hit": false,
      "t": 81910.63237499988,
      "d": 78.12492187500175,
      "v": 38
    },
    {
      "midi": 63,
      "hit": false,
      "t": 82138.31071874991,
      "d": 82.58920312499686,
      "v": 49
    },
    {
      "midi": 82,
      "hit": false,
      "t": 82149.47142187491,
      "d": 93.74990624999919,
      "v": 55
    },
    {
      "midi": 70,
      "hit": false,
      "t": 82160.63212499992,
      "d": 82.58920312499686,
      "v": 53
    },
    {
      "midi": 58,
      "hit": false,
      "t": 82162.86426562491,
      "d": 69.19635937499697,
      "v": 31
    },
    {
      "midi": 65,
      "hit": false,
      "t": 82321.34624999992,
      "d": 319.19610937502875,
      "v": 49
    },
    {
      "midi": 82,
      "hit": false,
      "t": 82328.04267187492,
      "d": 133.92843749999884,
      "v": 34
    },
    {
      "midi": 70,
      "hit": false,
      "t": 82330.27481249992,
      "d": 131.69629687500128,
      "v": 52
    },
    {
      "midi": 60,
      "hit": false,
      "t": 82334.73909374991,
      "d": 256.6961718750099,
      "v": 46
    },
    {
      "midi": 55,
      "hit": false,
      "t": 82341.43551562492,
      "d": 310.267546875024,
      "v": 54
    },
    {
      "midi": 83,
      "hit": false,
      "t": 82459.73896874992,
      "d": 131.69629687500128,
      "v": 36
    },
    {
      "midi": 71,
      "hit": false,
      "t": 82461.97110937492,
      "d": 158.4819843750156,
      "v": 62
    },
    {
      "midi": 55,
      "hit": false,
      "t": 82738.75654687495,
      "d": 263.392593749988,
      "v": 59
    },
    {
      "midi": 65,
      "hit": false,
      "t": 82743.22082812495,
      "d": 234.3747656249907,
      "v": 46
    },
    {
      "midi": 80,
      "hit": false,
      "t": 82743.22082812495,
      "d": 299.10684374999255,
      "v": 57
    },
    {
      "midi": 68,
      "hit": false,
      "t": 82747.68510937494,
      "d": 325.8925312499923,
      "v": 54
    },
    {
      "midi": 60,
      "hit": false,
      "t": 82761.07795312494,
      "d": 207.58907812499092,
      "v": 48
    },
    {
      "midi": 64,
      "hit": false,
      "t": 83138.30971874994,
      "d": 187.49981249999837,
      "v": 45
    },
    {
      "midi": 53,
      "hit": false,
      "t": 83140.54185937493,
      "d": 176.33910937499604,
      "v": 46
    },
    {
      "midi": 79,
      "hit": false,
      "t": 83147.23828124994,
      "d": 167.41054687499127,
      "v": 56
    },
    {
      "midi": 67,
      "hit": false,
      "t": 83147.23828124994,
      "d": 236.60690624998824,
      "v": 53
    },
    {
      "midi": 59,
      "hit": false,
      "t": 83174.02396874994,
      "d": 207.58907812499092,
      "v": 19
    },
    {
      "midi": 77,
      "hit": false,
      "t": 83432.95228124993,
      "d": 104.91060937500151,
      "v": 57
    },
    {
      "midi": 59,
      "hit": false,
      "t": 83459.73796874993,
      "d": 131.69629687500128,
      "v": 67
    },
    {
      "midi": 53,
      "hit": false,
      "t": 83461.97010937493,
      "d": 136.16057812501094,
      "v": 64
    },
    {
      "midi": 63,
      "hit": false,
      "t": 83464.20224999993,
      "d": 89.28562500000407,
      "v": 50
    },
    {
      "midi": 75,
      "hit": false,
      "t": 83631.61279687495,
      "d": 220.98192187500536,
      "v": 42
    },
    {
      "midi": 71,
      "hit": false,
      "t": 83899.46967187496,
      "d": 60.26779687500675,
      "v": 26
    },
    {
      "midi": 55,
      "hit": false,
      "t": 83982.05887499997,
      "d": 464.28525000001537,
      "v": 36
    },
    {
      "midi": 48,
      "hit": false,
      "t": 83993.21957812498,
      "d": 522.32090625001,
      "v": 36
    },
    {
      "midi": 75,
      "hit": false,
      "t": 84031.16596874998,
      "d": 249.99975000000268,
      "v": 68
    },
    {
      "midi": 71,
      "hit": false,
      "t": 84350.36207812498,
      "d": 66.96421875001397,
      "v": 24
    },
    {
      "midi": 60,
      "hit": false,
      "t": 84374.91562499998,
      "d": 35.71425000000454,
      "v": 24
    },
    {
      "midi": 74,
      "hit": false,
      "t": 84450.80840624998,
      "d": 247.76760937500512,
      "v": 68
    },
    {
      "midi": 72,
      "hit": false,
      "t": 84743.21882812498,
      "d": 107.14274999999907,
      "v": 34
    },
    {
      "midi": 46,
      "hit": false,
      "t": 84854.82585937498,
      "d": 794.6420624999882,
      "v": 32
    },
    {
      "midi": 55,
      "hit": false,
      "t": 84883.84368749998,
      "d": 647.3207812499895,
      "v": 24
    },
    {
      "midi": 67,
      "hit": false,
      "t": 84897.23653124998,
      "d": 258.9283124999929,
      "v": 36
    },
    {
      "midi": 67,
      "hit": false,
      "t": 85307.95040624996,
      "d": 350.4460781250091,
      "v": 44
    },
    {
      "midi": 51,
      "hit": false,
      "t": 85595.89654687497,
      "d": 95.98204687501129,
      "v": 36
    },
    {
      "midi": 55,
      "hit": false,
      "t": 85727.59284374998,
      "d": 51.33923437500198,
      "v": 55
    },
    {
      "midi": 75,
      "hit": false,
      "t": 85736.52140624999,
      "d": 319.1961093749851,
      "v": 70
    },
    {
      "midi": 67,
      "hit": false,
      "t": 86037.86039062498,
      "d": 33.48210937499243,
      "v": 40
    },
    {
      "midi": 74,
      "hit": false,
      "t": 86178.48524999997,
      "d": 154.01770312499139,
      "v": 70
    },
    {
      "midi": 81,
      "hit": false,
      "t": 86196.34237499996,
      "d": 189.73195312499593,
      "v": 46
    },
    {
      "midi": 75,
      "hit": false,
      "t": 86381.61004687496,
      "d": 138.3927187500085,
      "v": 43
    },
    {
      "midi": 74,
      "hit": false,
      "t": 86446.34212499997,
      "d": 82.58920312501141,
      "v": 68
    },
    {
      "midi": 55,
      "hit": false,
      "t": 86528.93132812498,
      "d": 37.946390625002095,
      "v": 20
    },
    {
      "midi": 72,
      "hit": false,
      "t": 86542.32417187498,
      "d": 71.42850000000908,
      "v": 33
    },
    {
      "midi": 71,
      "hit": false,
      "t": 86640.53835937499,
      "d": 136.1605781249964,
      "v": 65
    },
    {
      "midi": 74,
      "hit": false,
      "t": 86805.71676562498,
      "d": 93.74990624999919,
      "v": 76
    },
    {
      "midi": 72,
      "hit": false,
      "t": 86944.10948437497,
      "d": 91.51776562501618,
      "v": 50
    },
    {
      "midi": 63,
      "hit": false,
      "t": 86950.80590624998,
      "d": 66.96421875001397,
      "v": 34
    },
    {
      "midi": 55,
      "hit": false,
      "t": 86970.89517187499,
      "d": 138.3927187500085,
      "v": 40
    },
    {
      "midi": 67,
      "hit": false,
      "t": 87098.1271875,
      "d": 102.67846875000396,
      "v": 43
    },
    {
      "midi": 63,
      "hit": false,
      "t": 87328.037671875,
      "d": 127.23201562500617,
      "v": 57
    },
    {
      "midi": 60,
      "hit": false,
      "t": 87499.9125,
      "d": 970.9811718749988,
      "v": 30
    },
    {
      "midi": 44,
      "hit": false,
      "t": 87734.28726562501,
      "d": 78.12492187500175,
      "v": 58
    },
    {
      "midi": 54,
      "hit": false,
      "t": 87743.21582812502,
      "d": 24.553546875002212,
      "v": 32
    },
    {
      "midi": 44,
      "hit": false,
      "t": 88147.23328125001,
      "d": 58.035656249994645,
      "v": 51
    },
    {
      "midi": 62,
      "hit": false,
      "t": 88477.59009375001,
      "d": 93.74990624999919,
      "v": 62
    },
    {
      "midi": 63,
      "hit": false,
      "t": 88604.82210937502,
      "d": 100.4463281250064,
      "v": 52
    },
    {
      "midi": 65,
      "hit": false,
      "t": 88754.37553125003,
      "d": 75.89278125000419,
      "v": 54
    },
    {
      "midi": 66,
      "hit": false,
      "t": 88883.83968750003,
      "d": 95.98204687499674,
      "v": 51
    },
    {
      "midi": 68,
      "hit": false,
      "t": 89035.62525000003,
      "d": 98.2141875000234,
      "v": 71
    },
    {
      "midi": 54,
      "hit": false,
      "t": 89042.32167187503,
      "d": 111.60703125002328,
      "v": 37
    },
    {
      "midi": 60,
      "hit": false,
      "t": 89049.01809375004,
      "d": 46.87495312500687,
      "v": 41
    },
    {
      "midi": 70,
      "hit": false,
      "t": 89312.41068750006,
      "d": 93.74990624999919,
      "v": 62
    },
    {
      "midi": 71,
      "hit": false,
      "t": 89450.80340625005,
      "d": 93.74990624999919,
      "v": 67
    },
    {
      "midi": 64,
      "hit": false,
      "t": 89459.73196875006,
      "d": 33.48210937499243,
      "v": 41
    },
    {
      "midi": 59,
      "hit": false,
      "t": 89461.96410937505,
      "d": 46.87495312499232,
      "v": 48
    },
    {
      "midi": 53,
      "hit": false,
      "t": 89479.82123437505,
      "d": 82.58920312499686,
      "v": 29
    },
    {
      "midi": 73,
      "hit": false,
      "t": 89589.19612500005,
      "d": 89.28562500000407,
      "v": 43
    },
    {
      "midi": 74,
      "hit": false,
      "t": 89727.58884375005,
      "d": 71.42849999999453,
      "v": 64
    },
    {
      "midi": 43,
      "hit": false,
      "t": 89783.39235937505,
      "d": 58.035656249994645,
      "v": 54
    },
    {
      "midi": 75,
      "hit": false,
      "t": 89863.74942187505,
      "d": 87.05348437500652,
      "v": 56
    },
    {
      "midi": 76,
      "hit": false,
      "t": 90015.53498437506,
      "d": 58.035656249994645,
      "v": 50
    },
    {
      "midi": 77,
      "hit": false,
      "t": 90144.99914062505,
      "d": 89.28562500000407,
      "v": 67
    },
    {
      "midi": 78,
      "hit": false,
      "t": 90285.62400000005,
      "d": 100.4463281250064,
      "v": 70
    },
    {
      "midi": 64,
      "hit": false,
      "t": 90287.85614062505,
      "d": 247.76760937500512,
      "v": 68
    },
    {
      "midi": 59,
      "hit": false,
      "t": 90294.55256250006,
      "d": 227.67834374999802,
      "v": 64
    },
    {
      "midi": 53,
      "hit": false,
      "t": 90296.78470312506,
      "d": 305.8032656250143,
      "v": 59
    },
    {
      "midi": 79,
      "hit": false,
      "t": 90430.71314062506,
      "d": 69.19635937499697,
      "v": 53
    },
    {
      "midi": 80,
      "hit": false,
      "t": 90569.10585937506,
      "d": 71.42850000000908,
      "v": 52
    },
    {
      "midi": 81,
      "hit": false,
      "t": 90707.49857812507,
      "d": 78.12492187500175,
      "v": 71
    },
    {
      "midi": 62,
      "hit": false,
      "t": 90839.19487500007,
      "d": 42.41067187501176,
      "v": 36
    },
    {
      "midi": 82,
      "hit": false,
      "t": 90850.35557812508,
      "d": 73.66064062500664,
      "v": 54
    },
    {
      "midi": 57,
      "hit": false,
      "t": 90857.05200000008,
      "d": 35.71425000000454,
      "v": 35
    },
    {
      "midi": 83,
      "hit": false,
      "t": 90990.98043750008,
      "d": 60.26779687500675,
      "v": 61
    },
    {
      "midi": 62,
      "hit": false,
      "t": 91111.5160312501,
      "d": 156.2498437500035,
      "v": 70
    },
    {
      "midi": 86,
      "hit": false,
      "t": 91113.7481718751,
      "d": 100.4463281250064,
      "v": 94
    },
    {
      "midi": 57,
      "hit": false,
      "t": 91113.7481718751,
      "d": 158.48198437500105,
      "v": 66
    },
    {
      "midi": 52,
      "hit": false,
      "t": 91122.6767343751,
      "d": 189.73195312499593,
      "v": 47
    },
    {
      "midi": 83,
      "hit": false,
      "t": 91274.46229687509,
      "d": 73.66064062500664,
      "v": 50
    },
    {
      "midi": 84,
      "hit": false,
      "t": 91401.6943125001,
      "d": 80.3570624999993,
      "v": 80
    },
    {
      "midi": 81,
      "hit": false,
      "t": 91546.7834531251,
      "d": 95.98204687499674,
      "v": 63
    },
    {
      "midi": 77,
      "hit": false,
      "t": 91700.80115625009,
      "d": 218.7497812500078,
      "v": 52
    },
    {
      "midi": 57,
      "hit": false,
      "t": 91707.4975781251,
      "d": 214.28549999999814,
      "v": 49
    },
    {
      "midi": 63,
      "hit": false,
      "t": 91758.8368125001,
      "d": 180.80339062499115,
      "v": 19
    },
    {
      "midi": 77,
      "hit": false,
      "t": 92008.83656250009,
      "d": 84.82134374999441,
      "v": 73
    },
    {
      "midi": 63,
      "hit": false,
      "t": 92109.28289062508,
      "d": 69.19635937499697,
      "v": 27
    },
    {
      "midi": 57,
      "hit": false,
      "t": 92113.74717187507,
      "d": 69.19635937499697,
      "v": 27
    },
    {
      "midi": 75,
      "hit": false,
      "t": 92174.01496875008,
      "d": 200.8926562499837,
      "v": 57
    },
    {
      "midi": 75,
      "hit": false,
      "t": 92439.63970312507,
      "d": 113.83917187500629,
      "v": 59
    },
    {
      "midi": 62,
      "hit": false,
      "t": 92573.56814062508,
      "d": 214.28549999999814,
      "v": 34
    },
    {
      "midi": 59,
      "hit": false,
      "t": 92573.56814062508,
      "d": 216.5176406249957,
      "v": 36
    },
    {
      "midi": 52,
      "hit": false,
      "t": 92582.49670312509,
      "d": 477.6780937500007,
      "v": 20
    },
    {
      "midi": 55,
      "hit": false,
      "t": 92584.72884375008,
      "d": 234.3747656249907,
      "v": 44
    },
    {
      "midi": 74,
      "hit": false,
      "t": 92600.35382812508,
      "d": 124.99987499999406,
      "v": 50
    },
    {
      "midi": 74,
      "hit": false,
      "t": 92879.37140625008,
      "d": 73.66064062500664,
      "v": 58
    },
    {
      "midi": 62,
      "hit": false,
      "t": 92926.24635937509,
      "d": 354.9103593750042,
      "v": 24
    },
    {
      "midi": 59,
      "hit": false,
      "t": 92928.47850000008,
      "d": 165.17840625000827,
      "v": 24
    },
    {
      "midi": 71,
      "hit": false,
      "t": 93022.22840625008,
      "d": 176.3391093750106,
      "v": 51
    },
    {
      "midi": 71,
      "hit": false,
      "t": 93301.2459843751,
      "d": 93.74990624999919,
      "v": 48
    },
    {
      "midi": 61,
      "hit": false,
      "t": 93435.1744218751,
      "d": 267.8568749999831,
      "v": 36
    },
    {
      "midi": 72,
      "hit": false,
      "t": 93450.7994062501,
      "d": 191.96409374999348,
      "v": 57
    },
    {
      "midi": 58,
      "hit": false,
      "t": 93453.03154687509,
      "d": 270.0890156249952,
      "v": 32
    },
    {
      "midi": 64,
      "hit": false,
      "t": 93466.42439062509,
      "d": 205.35693749999336,
      "v": 18
    },
    {
      "midi": 55,
      "hit": false,
      "t": 93466.42439062509,
      "d": 234.3747656249907,
      "v": 26
    },
    {
      "midi": 72,
      "hit": false,
      "t": 93729.8169843751,
      "d": 140.62485937500605,
      "v": 40
    },
    {
      "midi": 61,
      "hit": false,
      "t": 93850.3525781251,
      "d": 113.83917187502084,
      "v": 35
    },
    {
      "midi": 55,
      "hit": false,
      "t": 93863.7454218751,
      "d": 109.37489062502573,
      "v": 30
    },
    {
      "midi": 64,
      "hit": false,
      "t": 93870.4418437501,
      "d": 71.42850000000908,
      "v": 31
    },
    {
      "midi": 58,
      "hit": false,
      "t": 93877.13826562511,
      "d": 93.74990625001374,
      "v": 29
    },
    {
      "midi": 69,
      "hit": false,
      "t": 93879.3704062501,
      "d": 218.7497812500078,
      "v": 55
    },
    {
      "midi": 69,
      "hit": false,
      "t": 94189.63795312512,
      "d": 80.3570624999993,
      "v": 43
    },
    {
      "midi": 57,
      "hit": false,
      "t": 94310.17354687513,
      "d": 241.07118750001246,
      "v": 32
    },
    {
      "midi": 50,
      "hit": false,
      "t": 94319.10210937513,
      "d": 437.49956250000105,
      "v": 24
    },
    {
      "midi": 60,
      "hit": false,
      "t": 94325.79853125014,
      "d": 241.0711874999979,
      "v": 20
    },
    {
      "midi": 53,
      "hit": false,
      "t": 94325.79853125014,
      "d": 441.96384374999616,
      "v": 29
    },
    {
      "midi": 65,
      "hit": false,
      "t": 94607.04825000014,
      "d": 53.571374999999534,
      "v": 50
    },
    {
      "midi": 69,
      "hit": false,
      "t": 94732.04812500013,
      "d": 196.42837500000314,
      "v": 82
    },
    {
      "midi": 69,
      "hit": false,
      "t": 95019.99426562514,
      "d": 93.74990624999919,
      "v": 82
    },
    {
      "midi": 53,
      "hit": false,
      "t": 95060.17279687514,
      "d": 495.53521875001024,
      "v": 41
    },
    {
      "midi": 65,
      "hit": false,
      "t": 95198.56551562513,
      "d": 183.03553125000326,
      "v": 47
    },
    {
      "midi": 65,
      "hit": false,
      "t": 95455.26168750014,
      "d": 80.35706250001385,
      "v": 62
    },
    {
      "midi": 50,
      "hit": false,
      "t": 95475.35095312515,
      "d": 75.89278125000419,
      "v": 38
    },
    {
      "midi": 57,
      "hit": false,
      "t": 95660.61862500015,
      "d": 116.07131250000384,
      "v": 19
    },
    {
      "midi": 50,
      "hit": false,
      "t": 95874.90412500015,
      "d": 78.12492187500175,
      "v": 38
    },
    {
      "midi": 57,
      "hit": false,
      "t": 95886.06482812515,
      "d": 64.73207812500186,
      "v": 54
    },
    {
      "midi": 53,
      "hit": false,
      "t": 96022.22540625015,
      "d": 205.35693750000792,
      "v": 45
    },
    {
      "midi": 60,
      "hit": false,
      "t": 96022.22540625015,
      "d": 207.58907812500547,
      "v": 59
    },
    {
      "midi": 43,
      "hit": false,
      "t": 96060.17179687515,
      "d": 89.28562500000407,
      "v": 26
    },
    {
      "midi": 50,
      "hit": false,
      "t": 96303.47512500016,
      "d": 87.05348437499197,
      "v": 33
    },
    {
      "midi": 60,
      "hit": false,
      "t": 96307.93940625015,
      "d": 100.44632812499185,
      "v": 60
    },
    {
      "midi": 57,
      "hit": false,
      "t": 96450.79640625014,
      "d": 238.83904687500035,
      "v": 48
    },
    {
      "midi": 43,
      "hit": false,
      "t": 96711.95685937515,
      "d": 91.51776562500163,
      "v": 49
    },
    {
      "midi": 56,
      "hit": false,
      "t": 96854.81385937515,
      "d": 303.5711250000022,
      "v": 57
    },
    {
      "midi": 53,
      "hit": false,
      "t": 96859.27814062515,
      "d": 165.1784062499937,
      "v": 58
    },
    {
      "midi": 61,
      "hit": false,
      "t": 96859.27814062515,
      "d": 310.26754687500943,
      "v": 48
    },
    {
      "midi": 46,
      "hit": false,
      "t": 96872.67098437515,
      "d": 227.67834374999802,
      "v": 39
    },
    {
      "midi": 47,
      "hit": false,
      "t": 97133.83143750015,
      "d": 122.76773437501106,
      "v": 60
    },
    {
      "midi": 62,
      "hit": false,
      "t": 97142.76000000015,
      "d": 55.80351562499709,
      "v": 52
    },
    {
      "midi": 58,
      "hit": false,
      "t": 97265.52773437517,
      "d": 26.78568750001432,
      "v": 76
    },
    {
      "midi": 65,
      "hit": false,
      "t": 97272.22415625017,
      "d": 234.37476562500524,
      "v": 81
    },
    {
      "midi": 56,
      "hit": false,
      "t": 97274.45629687517,
      "d": 256.6961718750099,
      "v": 69
    },
    {
      "midi": 50,
      "hit": false,
      "t": 97281.15271875018,
      "d": 249.99975000000268,
      "v": 69
    },
    {
      "midi": 59,
      "hit": false,
      "t": 97305.70626562518,
      "d": 196.42837500000314,
      "v": 47
    },
    {
      "midi": 47,
      "hit": false,
      "t": 97584.72384375018,
      "d": 91.51776562500163,
      "v": 53
    },
    {
      "midi": 55,
      "hit": false,
      "t": 97727.58084375018,
      "d": 149.55342187501083,
      "v": 45
    },
    {
      "midi": 64,
      "hit": false,
      "t": 97727.58084375018,
      "d": 200.8926562500128,
      "v": 54
    },
    {
      "midi": 59,
      "hit": false,
      "t": 97736.50940625019,
      "d": 87.05348437500652,
      "v": 42
    },
    {
      "midi": 48,
      "hit": false,
      "t": 97743.2058281252,
      "d": 256.69617187499534,
      "v": 38
    },
    {
      "midi": 36,
      "hit": false,
      "t": 98004.36628125019,
      "d": 71.42850000000908,
      "v": 60
    },
    {
      "midi": 67,
      "hit": false,
      "t": 98006.59842187518,
      "d": 120.5355937500135,
      "v": 53
    },
    {
      "midi": 57,
      "hit": false,
      "t": 98008.83056250018,
      "d": 31.24996875000943,
      "v": 54
    },
    {
      "midi": 62,
      "hit": false,
      "t": 98015.52698437519,
      "d": 82.58920312501141,
      "v": 57
    },
    {
      "midi": 71,
      "hit": false,
      "t": 98334.7230937502,
      "d": 69.19635937499697,
      "v": 70
    },
    {
      "midi": 74,
      "hit": false,
      "t": 98464.1872500002,
      "d": 100.4463281250064,
      "v": 85
    },
    {
      "midi": 67,
      "hit": false,
      "t": 98593.65140625021,
      "d": 368.3032031249895,
      "v": 50
    },
    {
      "midi": 63,
      "hit": false,
      "t": 98598.1156875002,
      "d": 299.10684374999255,
      "v": 33
    },
    {
      "midi": 62,
      "hit": false,
      "t": 98602.5799687502,
      "d": 372.7674843749992,
      "v": 50
    },
    {
      "midi": 57,
      "hit": false,
      "t": 98604.8121093752,
      "d": 433.0352812499914,
      "v": 44
    },
    {
      "midi": 71,
      "hit": false,
      "t": 98633.8299375002,
      "d": 216.5176406249957,
      "v": 39
    },
    {
      "midi": 71,
      "hit": false,
      "t": 99006.5974218752,
      "d": 71.42849999999453,
      "v": 60
    },
    {
      "midi": 74,
      "hit": false,
      "t": 99136.0615781252,
      "d": 84.82134374999441,
      "v": 55
    },
    {
      "midi": 71,
      "hit": false,
      "t": 99267.7578750002,
      "d": 267.8568749999831,
      "v": 79
    },
    {
      "midi": 52,
      "hit": false,
      "t": 99281.1507187502,
      "d": 593.74940624999,
      "v": 42
    },
    {
      "midi": 62,
      "hit": false,
      "t": 99285.6150000002,
      "d": 627.231515624997,
      "v": 58
    },
    {
      "midi": 59,
      "hit": false,
      "t": 99287.84714062519,
      "d": 229.91048437499558,
      "v": 48
    },
    {
      "midi": 55,
      "hit": false,
      "t": 99287.84714062519,
      "d": 609.3743906249874,
      "v": 54
    },
    {
      "midi": 71,
      "hit": false,
      "t": 99600.34682812518,
      "d": 95.98204687501129,
      "v": 61
    },
    {
      "midi": 59,
      "hit": false,
      "t": 99636.06107812519,
      "d": 267.8568749999977,
      "v": 22
    },
    {
      "midi": 74,
      "hit": false,
      "t": 99738.7395468752,
      "d": 113.83917187499173,
      "v": 78
    },
    {
      "midi": 71,
      "hit": false,
      "t": 99892.75725000018,
      "d": 183.03553125000326,
      "v": 69
    },
    {
      "midi": 71,
      "hit": false,
      "t": 100142.75700000019,
      "d": 113.83917187500629,
      "v": 66
    },
    {
      "midi": 63,
      "hit": false,
      "t": 100165.07840625019,
      "d": 120.53559374999895,
      "v": 65
    },
    {
      "midi": 59,
      "hit": false,
      "t": 100176.2391093752,
      "d": 287.9461406249902,
      "v": 66
    },
    {
      "midi": 53,
      "hit": false,
      "t": 100176.2391093752,
      "d": 544.6423124999856,
      "v": 66
    },
    {
      "midi": 75,
      "hit": false,
      "t": 100287.84614062519,
      "d": 124.99987499999406,
      "v": 61
    },
    {
      "midi": 71,
      "hit": false,
      "t": 100446.32812500019,
      "d": 138.39271874999395,
      "v": 68
    },
    {
      "midi": 63,
      "hit": false,
      "t": 100566.86371875019,
      "d": 49.10709374998987,
      "v": 39
    },
    {
      "midi": 59,
      "hit": false,
      "t": 100589.18512500018,
      "d": 91.51776562500163,
      "v": 45
    },
    {
      "midi": 71,
      "hit": false,
      "t": 100723.11356250018,
      "d": 120.53559374999895,
      "v": 71
    },
    {
      "midi": 75,
      "hit": false,
      "t": 100928.47050000017,
      "d": 29.017828124997322,
      "v": 48
    },
    {
      "midi": 58,
      "hit": false,
      "t": 101075.79178125017,
      "d": 270.0890156249952,
      "v": 55
    },
    {
      "midi": 62,
      "hit": false,
      "t": 101078.02392187517,
      "d": 486.60665625000547,
      "v": 62
    },
    {
      "midi": 57,
      "hit": false,
      "t": 101078.02392187517,
      "d": 602.6779687500093,
      "v": 55
    },
    {
      "midi": 58,
      "hit": false,
      "t": 101432.93428125017,
      "d": 122.76773437499651,
      "v": 44
    },
    {
      "midi": 62,
      "hit": false,
      "t": 101865.96956250018,
      "d": 308.0354062499973,
      "v": 60
    },
    {
      "midi": 57,
      "hit": false,
      "t": 101865.96956250018,
      "d": 642.8564999999944,
      "v": 44
    },
    {
      "midi": 58,
      "hit": false,
      "t": 101872.66598437518,
      "d": 272.3211562499928,
      "v": 54
    },
    {
      "midi": 62,
      "hit": false,
      "t": 102238.73704687518,
      "d": 113.83917187499173,
      "v": 41
    },
    {
      "midi": 58,
      "hit": false,
      "t": 102267.75487500017,
      "d": 205.35693749999336,
      "v": 38
    },
    {
      "midi": 73,
      "hit": false,
      "t": 102408.37973437516,
      "d": 102.67846875000396,
      "v": 60
    },
    {
      "midi": 76,
      "hit": false,
      "t": 102551.23673437517,
      "d": 109.37489062499662,
      "v": 68
    },
    {
      "midi": 74,
      "hit": false,
      "t": 102707.48657812517,
      "d": 299.1068437500071,
      "v": 79
    },
    {
      "midi": 58,
      "hit": false,
      "t": 102732.04012500017,
      "d": 392.8567500000063,
      "v": 43
    },
    {
      "midi": 62,
      "hit": false,
      "t": 102734.27226562517,
      "d": 294.642562500012,
      "v": 63
    },
    {
      "midi": 52,
      "hit": false,
      "t": 102754.36153125018,
      "d": 553.5708749999758,
      "v": 56
    },
    {
      "midi": 58,
      "hit": false,
      "t": 103169.53968750018,
      "d": 75.89278124998964,
      "v": 25
    },
    {
      "midi": 74,
      "hit": false,
      "t": 103214.18250000017,
      "d": 35.71424999998999,
      "v": 42
    },
    {
      "midi": 74,
      "hit": false,
      "t": 103573.55714062515,
      "d": 109.37489062501118,
      "v": 101
    },
    {
      "midi": 61,
      "hit": false,
      "t": 103580.25356250016,
      "d": 64.73207812500186,
      "v": 63
    },
    {
      "midi": 58,
      "hit": false,
      "t": 103589.18212500017,
      "d": 397.3210312500014,
      "v": 55
    },
    {
      "midi": 52,
      "hit": false,
      "t": 103593.64640625016,
      "d": 357.14250000000175,
      "v": 45
    },
    {
      "midi": 77,
      "hit": false,
      "t": 103738.73554687516,
      "d": 104.91060937500151,
      "v": 64
    },
    {
      "midi": 74,
      "hit": false,
      "t": 103859.27114062516,
      "d": 71.42849999999453,
      "v": 48
    },
    {
      "midi": 75,
      "hit": false,
      "t": 103995.43171875017,
      "d": 98.2141874999943,
      "v": 73
    },
    {
      "midi": 52,
      "hit": false,
      "t": 104044.53881250018,
      "d": 151.78556249999383,
      "v": 34
    },
    {
      "midi": 61,
      "hit": false,
      "t": 104046.77095312517,
      "d": 158.4819843749865,
      "v": 36
    },
    {
      "midi": 58,
      "hit": false,
      "t": 104051.23523437517,
      "d": 183.0355312499887,
      "v": 23
    },
    {
      "midi": 76,
      "hit": false,
      "t": 104140.52085937517,
      "d": 80.35706249998475,
      "v": 38
    },
    {
      "midi": 77,
      "hit": false,
      "t": 104261.05645312516,
      "d": 98.2141874999943,
      "v": 57
    },
    {
      "midi": 78,
      "hit": false,
      "t": 104392.75275000016,
      "d": 82.58920312499686,
      "v": 64
    },
    {
      "midi": 79,
      "hit": false,
      "t": 104508.82406250016,
      "d": 98.2141874999943,
      "v": 40
    },
    {
      "midi": 57,
      "hit": false,
      "t": 104544.53831250017,
      "d": 448.6602656249888,
      "v": 44
    },
    {
      "midi": 64,
      "hit": false,
      "t": 104549.00259375016,
      "d": 334.8210937499971,
      "v": 28
    },
    {
      "midi": 60,
      "hit": false,
      "t": 104560.16329687517,
      "d": 366.07106249999197,
      "v": 34
    },
    {
      "midi": 53,
      "hit": false,
      "t": 104578.02042187516,
      "d": 390.6246093749942,
      "v": 24
    },
    {
      "midi": 80,
      "hit": false,
      "t": 104609.27039062516,
      "d": 100.4463281250064,
      "v": 38
    },
    {
      "midi": 81,
      "hit": false,
      "t": 104752.12739062516,
      "d": 44.64281249999476,
      "v": 36
    },
    {
      "midi": 84,
      "hit": false,
      "t": 104848.10943750016,
      "d": 98.2141874999943,
      "v": 81
    },
    {
      "midi": 72,
      "hit": false,
      "t": 104857.03800000016,
      "d": 71.42849999999453,
      "v": 55
    },
    {
      "midi": 74,
      "hit": false,
      "t": 104865.96656250017,
      "d": 31.249968749994878,
      "v": 54
    },
    {
      "midi": 84,
      "hit": false,
      "t": 105028.91282812516,
      "d": 225.44620312500047,
      "v": 71
    },
    {
      "midi": 72,
      "hit": false,
      "t": 105031.14496875016,
      "d": 218.7497812500078,
      "v": 62
    },
    {
      "midi": 83,
      "hit": false,
      "t": 105051.23423437517,
      "d": 24.553546875002212,
      "v": 34
    },
    {
      "midi": 64,
      "hit": false,
      "t": 105316.85896875017,
      "d": 87.05348437499197,
      "v": 33
    },
    {
      "midi": 81,
      "hit": false,
      "t": 105323.55539062516,
      "d": 80.3570624999993,
      "v": 47
    },
    {
      "midi": 60,
      "hit": false,
      "t": 105341.41251562515,
      "d": 69.19635937501153,
      "v": 30
    },
    {
      "midi": 57,
      "hit": false,
      "t": 105352.57321875016,
      "d": 104.91060937501607,
      "v": 35
    },
    {
      "midi": 84,
      "hit": false,
      "t": 105461.94810937517,
      "d": 169.64268750000338,
      "v": 75
    },
    {
      "midi": 72,
      "hit": false,
      "t": 105468.64453125017,
      "d": 158.48198437500105,
      "v": 50
    },
    {
      "midi": 67,
      "hit": false,
      "t": 106149.44742187517,
      "d": 580.3565625000047,
      "v": 53
    },
    {
      "midi": 56,
      "hit": false,
      "t": 106158.37598437518,
      "d": 618.3029531250068,
      "v": 29
    },
    {
      "midi": 63,
      "hit": false,
      "t": 106165.07240625018,
      "d": 651.7850624999992,
      "v": 37
    },
    {
      "midi": 60,
      "hit": false,
      "t": 106169.53668750018,
      "d": 754.4635312500031,
      "v": 41
    },
    {
      "midi": 79,
      "hit": false,
      "t": 106698.55401562518,
      "d": 238.83904687500035,
      "v": 84
    },
    {
      "midi": 91,
      "hit": false,
      "t": 106700.78615625018,
      "d": 214.28549999999814,
      "v": 83
    },
    {
      "midi": 67,
      "hit": false,
      "t": 107006.58942187518,
      "d": 200.89265624999825,
      "v": 62
    },
    {
      "midi": 56,
      "hit": false,
      "t": 107008.82156250018,
      "d": 220.98192187500536,
      "v": 50
    },
    {
      "midi": 89,
      "hit": false,
      "t": 107015.51798437518,
      "d": 122.76773437499651,
      "v": 64
    },
    {
      "midi": 77,
      "hit": false,
      "t": 107017.75012500018,
      "d": 109.37489062499662,
      "v": 66
    },
    {
      "midi": 62,
      "hit": false,
      "t": 107017.75012500018,
      "d": 232.14262500000768,
      "v": 62
    },
    {
      "midi": 78,
      "hit": false,
      "t": 107296.7677031252,
      "d": 147.32128124998417,
      "v": 64
    },
    {
      "midi": 90,
      "hit": false,
      "t": 107296.7677031252,
      "d": 154.01770312499139,
      "v": 53
    },
    {
      "midi": 62,
      "hit": false,
      "t": 107298.99984375019,
      "d": 205.35693749999336,
      "v": 22
    },
    {
      "midi": 56,
      "hit": false,
      "t": 107298.99984375019,
      "d": 209.82121874998847,
      "v": 51
    },
    {
      "midi": 67,
      "hit": false,
      "t": 107303.46412500019,
      "d": 169.64268750000338,
      "v": 37
    },
    {
      "midi": 91,
      "hit": false,
      "t": 107321.32125000018,
      "d": 136.16057812501094,
      "v": 51
    },
    {
      "midi": 79,
      "hit": false,
      "t": 107459.71396875019,
      "d": 60.2677968749922,
      "v": 25
    },
    {
      "midi": 56,
      "hit": false,
      "t": 107569.08885937519,
      "d": 122.76773437501106,
      "v": 25
    },
    {
      "midi": 89,
      "hit": false,
      "t": 107571.32100000019,
      "d": 223.21406250001746,
      "v": 56
    },
    {
      "midi": 67,
      "hit": false,
      "t": 107580.24956250019,
      "d": 145.08914062501572,
      "v": 44
    },
    {
      "midi": 77,
      "hit": false,
      "t": 107589.1781250002,
      "d": 209.82121875000303,
      "v": 55
    },
    {
      "midi": 62,
      "hit": false,
      "t": 107598.1066875002,
      "d": 49.107093750004424,
      "v": 36
    },
    {
      "midi": 88,
      "hit": false,
      "t": 107886.0528281252,
      "d": 218.7497812500078,
      "v": 64
    },
    {
      "midi": 62,
      "hit": false,
      "t": 107892.74925000021,
      "d": 1053.5703750000102,
      "v": 40
    },
    {
      "midi": 67,
      "hit": false,
      "t": 107894.98139062521,
      "d": 640.6243593750114,
      "v": 47
    },
    {
      "midi": 64,
      "hit": false,
      "t": 107906.14209375021,
      "d": 982.1418750000157,
      "v": 39
    },
    {
      "midi": 89,
      "hit": false,
      "t": 108144.98114062521,
      "d": 82.58920312499686,
      "v": 54
    },
    {
      "midi": 88,
      "hit": false,
      "t": 108267.74887500021,
      "d": 107.14274999999907,
      "v": 54
    },
    {
      "midi": 84,
      "hit": false,
      "t": 108388.28446875021,
      "d": 75.89278125000419,
      "v": 49
    },
    {
      "midi": 79,
      "hit": false,
      "t": 108515.51648437521,
      "d": 53.571375000014086,
      "v": 33
    },
    {
      "midi": 77,
      "hit": false,
      "t": 108633.81993750023,
      "d": 162.94626562499616,
      "v": 36
    },
    {
      "midi": 76,
      "hit": false,
      "t": 108890.51610937522,
      "d": 82.58920312499686,
      "v": 56
    },
    {
      "midi": 76,
      "hit": false,
      "t": 109075.78378125023,
      "d": 116.07131250000384,
      "v": 66
    },
    {
      "midi": 76,
      "hit": false,
      "t": 109328.01567187523,
      "d": 111.60703125000873,
      "v": 56
    },
    {
      "midi": 67,
      "hit": false,
      "t": 109334.71209375023,
      "d": 386.16032812499907,
      "v": 39
    },
    {
      "midi": 62,
      "hit": false,
      "t": 109348.10493750023,
      "d": 366.07106249999197,
      "v": 43
    },
    {
      "midi": 56,
      "hit": false,
      "t": 109350.33707812523,
      "d": 484.3745156250079,
      "v": 21
    },
    {
      "midi": 76,
      "hit": false,
      "t": 109598.10468750024,
      "d": 71.42849999999453,
      "v": 63
    },
    {
      "midi": 76,
      "hit": false,
      "t": 109756.58667187524,
      "d": 156.2498437500035,
      "v": 51
    },
    {
      "midi": 61,
      "hit": false,
      "t": 110035.60425000024,
      "d": 1194.1952343750017,
      "v": 39
    },
    {
      "midi": 65,
      "hit": false,
      "t": 110042.30067187524,
      "d": 455.35668749999604,
      "v": 44
    },
    {
      "midi": 60,
      "hit": false,
      "t": 110046.76495312524,
      "d": 437.49956250000105,
      "v": 30
    },
    {
      "midi": 55,
      "hit": false,
      "t": 110051.22923437523,
      "d": 421.8745781250036,
      "v": 41
    },
    {
      "midi": 60,
      "hit": false,
      "t": 110629.35365625024,
      "d": 493.30307812499814,
      "v": 43
    },
    {
      "midi": 64,
      "hit": false,
      "t": 110629.35365625024,
      "d": 529.0173281250027,
      "v": 50
    },
    {
      "midi": 54,
      "hit": false,
      "t": 110647.21078125024,
      "d": 482.14237500001036,
      "v": 21
    },
    {
      "midi": 59,
      "hit": false,
      "t": 110658.37148437524,
      "d": 453.1245468749985,
      "v": 34
    },
    {
      "midi": 67,
      "hit": false,
      "t": 111444.08498437524,
      "d": 26.785687499999767,
      "v": 63
    },
    {
      "midi": 64,
      "hit": false,
      "t": 111446.31712500023,
      "d": 33.482109375006985,
      "v": 54
    },
    {
      "midi": 76,
      "hit": false,
      "t": 111453.01354687524,
      "d": 89.28562500001863,
      "v": 53
    },
    {
      "midi": 72,
      "hit": false,
      "t": 111455.24568750024,
      "d": 37.94639062501665,
      "v": 34
    },
    {
      "midi": 60,
      "hit": false,
      "t": 111457.47782812524,
      "d": 29.017828125011874,
      "v": 40
    },
    {
      "midi": 61,
      "hit": false,
      "t": 111863.72742187526,
      "d": 363.83892187500896,
      "v": 65
    },
    {
      "midi": 90,
      "hit": false,
      "t": 111865.95956250025,
      "d": 272.32115625000733,
      "v": 86
    },
    {
      "midi": 63,
      "hit": false,
      "t": 111870.42384375025,
      "d": 372.76748437501374,
      "v": 63
    },
    {
      "midi": 57,
      "hit": false,
      "t": 111872.65598437525,
      "d": 261.16045312501956,
      "v": 76
    },
    {
      "midi": 68,
      "hit": false,
      "t": 111872.65598437525,
      "d": 292.41042187501444,
      "v": 82
    },
    {
      "midi": 95,
      "hit": false,
      "t": 111874.88812500025,
      "d": 216.5176406249957,
      "v": 75
    },
    {
      "midi": 81,
      "hit": false,
      "t": 111877.12026562524,
      "d": 82.58920312499686,
      "v": 74
    },
    {
      "midi": 83,
      "hit": false,
      "t": 111877.12026562524,
      "d": 241.07118750001246,
      "v": 72
    },
    {
      "midi": 93,
      "hit": false,
      "t": 111879.35240625024,
      "d": 245.53546875002212,
      "v": 76
    },
    {
      "midi": 91,
      "hit": false,
      "t": 112098.10218750025,
      "d": 40.1785312500142,
      "v": 42
    },
    {
      "midi": 82,
      "hit": false,
      "t": 112283.36985937526,
      "d": 296.87470312500955,
      "v": 74
    },
    {
      "midi": 67,
      "hit": false,
      "t": 112285.60200000026,
      "d": 212.05335937500058,
      "v": 65
    },
    {
      "midi": 56,
      "hit": false,
      "t": 112285.60200000026,
      "d": 339.2853750000213,
      "v": 67
    },
    {
      "midi": 94,
      "hit": false,
      "t": 112287.83414062526,
      "d": 285.7140000000072,
      "v": 81
    },
    {
      "midi": 62,
      "hit": false,
      "t": 112292.29842187525,
      "d": 225.44620312501502,
      "v": 71
    },
    {
      "midi": 89,
      "hit": false,
      "t": 112292.29842187525,
      "d": 249.99975000001723,
      "v": 71
    },
    {
      "midi": 65,
      "hit": false,
      "t": 112314.61982812526,
      "d": 29.017828124997322,
      "v": 34
    },
    {
      "midi": 66,
      "hit": false,
      "t": 112707.47657812528,
      "d": 274.55329687501944,
      "v": 64
    },
    {
      "midi": 93,
      "hit": false,
      "t": 112716.40514062528,
      "d": 183.03553125000326,
      "v": 70
    },
    {
      "midi": 88,
      "hit": false,
      "t": 112716.40514062528,
      "d": 216.51764062501024,
      "v": 62
    },
    {
      "midi": 61,
      "hit": false,
      "t": 112716.40514062528,
      "d": 330.35681250001653,
      "v": 58
    },
    {
      "midi": 55,
      "hit": false,
      "t": 112718.63728125028,
      "d": 205.35693750000792,
      "v": 64
    },
    {
      "midi": 81,
      "hit": false,
      "t": 112718.63728125028,
      "d": 245.53546875002212,
      "v": 60
    },
    {
      "midi": 90,
      "hit": false,
      "t": 112732.03012500028,
      "d": 26.785687499999767,
      "v": 35
    },
    {
      "midi": 54,
      "hit": false,
      "t": 113151.6725625003,
      "d": 207.58907812500547,
      "v": 65
    },
    {
      "midi": 92,
      "hit": false,
      "t": 113153.9047031253,
      "d": 194.1962343750056,
      "v": 77
    },
    {
      "midi": 80,
      "hit": false,
      "t": 113156.1368437503,
      "d": 180.8033906250057,
      "v": 67
    },
    {
      "midi": 65,
      "hit": false,
      "t": 113156.1368437503,
      "d": 191.96409375000803,
      "v": 73
    },
    {
      "midi": 87,
      "hit": false,
      "t": 113158.3689843753,
      "d": 216.51764062501024,
      "v": 71
    },
    {
      "midi": 60,
      "hit": false,
      "t": 113158.3689843753,
      "d": 220.98192187500536,
      "v": 62
    },
    {
      "midi": 94,
      "hit": false,
      "t": 113448.5472656253,
      "d": 66.96421874999942,
      "v": 69
    },
    {
      "midi": 54,
      "hit": false,
      "t": 113453.01154687529,
      "d": 357.14250000003085,
      "v": 59
    },
    {
      "midi": 82,
      "hit": false,
      "t": 113455.24368750029,
      "d": 55.80351562501164,
      "v": 49
    },
    {
      "midi": 65,
      "hit": false,
      "t": 113455.24368750029,
      "d": 62.49993750000431,
      "v": 61
    },
    {
      "midi": 87,
      "hit": false,
      "t": 113466.40439062529,
      "d": 71.42850000000908,
      "v": 55
    },
    {
      "midi": 60,
      "hit": false,
      "t": 113477.5650937503,
      "d": 42.410671874997206,
      "v": 34
    },
    {
      "midi": 65,
      "hit": false,
      "t": 113591.4042656253,
      "d": 138.39271875002305,
      "v": 55
    },
    {
      "midi": 87,
      "hit": false,
      "t": 113595.8685468753,
      "d": 165.17840625002282,
      "v": 51
    },
    {
      "midi": 92,
      "hit": false,
      "t": 113602.5649687503,
      "d": 131.69629687501583,
      "v": 61
    },
    {
      "midi": 80,
      "hit": false,
      "t": 113609.26139062531,
      "d": 154.01770312500594,
      "v": 43
    },
    {
      "midi": 60,
      "hit": false,
      "t": 113620.42209375031,
      "d": 87.05348437500652,
      "v": 45
    },
    {
      "midi": 64,
      "hit": false,
      "t": 113865.95756250032,
      "d": 82.58920312501141,
      "v": 71
    },
    {
      "midi": 91,
      "hit": false,
      "t": 113870.42184375032,
      "d": 252.23189062501478,
      "v": 65
    },
    {
      "midi": 86,
      "hit": false,
      "t": 113872.65398437531,
      "d": 263.3925937500171,
      "v": 70
    },
    {
      "midi": 53,
      "hit": false,
      "t": 113874.88612500031,
      "d": 136.1605781250255,
      "v": 64
    },
    {
      "midi": 79,
      "hit": false,
      "t": 113874.88612500031,
      "d": 325.8925312500214,
      "v": 55
    },
    {
      "midi": 59,
      "hit": false,
      "t": 113881.58254687532,
      "d": 87.05348437502107,
      "v": 68
    },
    {
      "midi": 43,
      "hit": false,
      "t": 114283.36785937533,
      "d": 3486.603656250023,
      "v": 87
    },
    {
      "midi": 55,
      "hit": false,
      "t": 114290.06428125034,
      "d": 837.0527343749854,
      "v": 85
    },
    {
      "midi": 50,
      "hit": false,
      "t": 114761.04595312533,
      "d": 124.99987499999406,
      "v": 24
    },
    {
      "midi": 50,
      "hit": false,
      "t": 115122.65273437533,
      "d": 662.9457656250015,
      "v": 45
    },
    {
      "midi": 55,
      "hit": false,
      "t": 115263.27759375032,
      "d": 75.89278125000419,
      "v": 46
    },
    {
      "midi": 57,
      "hit": false,
      "t": 115415.06315625033,
      "d": 66.96421874999942,
      "v": 48
    },
    {
      "midi": 60,
      "hit": false,
      "t": 115544.52731250033,
      "d": 406.24959375000617,
      "v": 84
    },
    {
      "midi": 55,
      "hit": false,
      "t": 115917.29479687533,
      "d": 49.107093750004424,
      "v": 24
    },
    {
      "midi": 57,
      "hit": false,
      "t": 116044.52681250033,
      "d": 64.73207812500186,
      "v": 58
    },
    {
      "midi": 60,
      "hit": false,
      "t": 116176.22310937534,
      "d": 341.5175156250043,
      "v": 91
    },
    {
      "midi": 50,
      "hit": false,
      "t": 116417.29429687533,
      "d": 104.91060937500151,
      "v": 34
    },
    {
      "midi": 55,
      "hit": false,
      "t": 116573.54414062534,
      "d": 46.87495312500687,
      "v": 26
    },
    {
      "midi": 57,
      "hit": false,
      "t": 116727.56184375034,
      "d": 53.571374999999534,
      "v": 22
    },
    {
      "midi": 60,
      "hit": false,
      "t": 116839.16887500034,
      "d": 316.9639687500021,
      "v": 90
    },
    {
      "midi": 50,
      "hit": false,
      "t": 116877.11526562534,
      "d": 165.1784062499937,
      "v": 34
    },
    {
      "midi": 56,
      "hit": false,
      "t": 117176.22210937535,
      "d": 84.82134374999441,
      "v": 72
    },
    {
      "midi": 50,
      "hit": false,
      "t": 117278.90057812534,
      "d": 136.16057812501094,
      "v": 10
    },
    {
      "midi": 58,
      "hit": false,
      "t": 117312.38268750034,
      "d": 89.28562500000407,
      "v": 60
    },
    {
      "midi": 61,
      "hit": false,
      "t": 117450.77540625035,
      "d": 354.9103593750042,
      "v": 77
    },
    {
      "midi": 50,
      "hit": false,
      "t": 117665.06090625035,
      "d": 66.96421874999942,
      "v": 45
    },
    {
      "midi": 57,
      "hit": false,
      "t": 117823.54289062535,
      "d": 82.58920312499686,
      "v": 32
    },
    {
      "midi": 59,
      "hit": false,
      "t": 117950.77490625034,
      "d": 111.60703124999418,
      "v": 47
    },
    {
      "midi": 62,
      "hit": false,
      "t": 118107.02475000033,
      "d": 267.8568749999977,
      "v": 92
    },
    {
      "midi": 36,
      "hit": false,
      "t": 118124.88187500033,
      "d": 453.1245468749985,
      "v": 58
    },
    {
      "midi": 59,
      "hit": false,
      "t": 118392.73875000032,
      "d": 142.8570000000036,
      "v": 37
    },
    {
      "midi": 43,
      "hit": false,
      "t": 118553.45287500032,
      "d": 131.69629687500128,
      "v": 24
    },
    {
      "midi": 60,
      "hit": false,
      "t": 118562.38143750033,
      "d": 91.51776562500163,
      "v": 49
    },
    {
      "midi": 52,
      "hit": false,
      "t": 118589.16712500033,
      "d": 379.4639062500064,
      "v": 26
    },
    {
      "midi": 64,
      "hit": false,
      "t": 118691.84559375033,
      "d": 642.856500000009,
      "v": 83
    },
    {
      "midi": 62,
      "hit": false,
      "t": 119363.71992187534,
      "d": 102.67846875000396,
      "v": 46
    },
    {
      "midi": 55,
      "hit": false,
      "t": 119417.29129687534,
      "d": 33.482109375006985,
      "v": 34
    },
    {
      "midi": 63,
      "hit": false,
      "t": 119484.25551562534,
      "d": 64.73207812500186,
      "v": 56
    },
    {
      "midi": 67,
      "hit": false,
      "t": 119620.41609375033,
      "d": 87.05348437500652,
      "v": 46
    },
    {
      "midi": 71,
      "hit": false,
      "t": 119745.41596875034,
      "d": 93.74990624999919,
      "v": 41
    },
    {
      "midi": 74,
      "hit": false,
      "t": 119870.41584375034,
      "d": 91.51776562500163,
      "v": 82
    },
    {
      "midi": 71,
      "hit": false,
      "t": 119993.18357812533,
      "d": 51.33923437500198,
      "v": 52
    },
    {
      "midi": 72,
      "hit": false,
      "t": 120093.62990625034,
      "d": 102.67846875000396,
      "v": 60
    },
    {
      "midi": 67,
      "hit": false,
      "t": 120232.02262500035,
      "d": 60.26779687500675,
      "v": 66
    },
    {
      "midi": 67,
      "hit": false,
      "t": 120464.16525000035,
      "d": 60.26779687500675,
      "v": 63
    },
    {
      "midi": 67,
      "hit": false,
      "t": 120754.34353125036,
      "d": 58.035656249994645,
      "v": 64
    },
    {
      "midi": 61,
      "hit": false,
      "t": 120901.66481250036,
      "d": 124.99987499999406,
      "v": 34
    },
    {
      "midi": 67,
      "hit": false,
      "t": 120906.12909375035,
      "d": 93.74990624999919,
      "v": 59
    },
    {
      "midi": 55,
      "hit": false,
      "t": 120912.82551562536,
      "d": 419.64243750000605,
      "v": 34
    },
    {
      "midi": 64,
      "hit": false,
      "t": 120917.28979687535,
      "d": 100.44632812499185,
      "v": 24
    },
    {
      "midi": 69,
      "hit": false,
      "t": 121057.91465625034,
      "d": 46.87495312500687,
      "v": 24
    },
    {
      "midi": 67,
      "hit": false,
      "t": 121113.71817187536,
      "d": 75.89278125000419,
      "v": 36
    },
    {
      "midi": 66,
      "hit": false,
      "t": 121196.30737500037,
      "d": 69.19635937499697,
      "v": 52
    },
    {
      "midi": 67,
      "hit": false,
      "t": 121310.14654687536,
      "d": 1392.855750000017,
      "v": 63
    },
    {
      "midi": 50,
      "hit": false,
      "t": 121600.32482812536,
      "d": 66.96421874999942,
      "v": 37
    },
    {
      "midi": 57,
      "hit": false,
      "t": 121618.18195312536,
      "d": 55.80351562501164,
      "v": 38
    },
    {
      "midi": 57,
      "hit": false,
      "t": 122426.21685937537,
      "d": 80.3570624999993,
      "v": 58
    },
    {
      "midi": 60,
      "hit": false,
      "t": 122428.44900000037,
      "d": 35.71425000000454,
      "v": 47
    },
    {
      "midi": 64,
      "hit": false,
      "t": 122435.14542187538,
      "d": 29.017828124997322,
      "v": 34
    },
    {
      "midi": 64,
      "hit": false,
      "t": 122700.77015625038,
      "d": 80.3570624999993,
      "v": 54
    },
    {
      "midi": 65,
      "hit": false,
      "t": 122841.39501562538,
      "d": 82.58920312499686,
      "v": 66
    },
    {
      "midi": 67,
      "hit": false,
      "t": 122982.01987500038,
      "d": 718.7492812500132,
      "v": 85
    },
    {
      "midi": 64,
      "hit": false,
      "t": 123278.89457812537,
      "d": 26.785687499999767,
      "v": 62
    },
    {
      "midi": 59,
      "hit": false,
      "t": 123296.75170312537,
      "d": 29.017828125011874,
      "v": 50
    },
    {
      "midi": 57,
      "hit": false,
      "t": 123694.07273437538,
      "d": 26.78568750001432,
      "v": 60
    },
    {
      "midi": 60,
      "hit": false,
      "t": 123834.6975937504,
      "d": 49.107093750004424,
      "v": 38
    },
    {
      "midi": 62,
      "hit": false,
      "t": 123977.5545937504,
      "d": 91.51776562500163,
      "v": 63
    },
    {
      "midi": 64,
      "hit": false,
      "t": 124118.17945312541,
      "d": 272.3211562499928,
      "v": 82
    },
    {
      "midi": 53,
      "hit": false,
      "t": 124173.98296875041,
      "d": 37.946390625002095,
      "v": 36
    },
    {
      "midi": 43,
      "hit": false,
      "t": 124180.67939062542,
      "d": 44.64281249999476,
      "v": 31
    },
    {
      "midi": 55,
      "hit": false,
      "t": 124526.6611875004,
      "d": 51.33923437500198,
      "v": 22
    },
    {
      "midi": 50,
      "hit": false,
      "t": 124620.4110937504,
      "d": 37.946390625002095,
      "v": 28
    },
    {
      "midi": 62,
      "hit": false,
      "t": 124754.3395312504,
      "d": 162.94626562499616,
      "v": 61
    },
    {
      "midi": 60,
      "hit": false,
      "t": 124756.5716718754,
      "d": 198.6605156250007,
      "v": 65
    },
    {
      "midi": 57,
      "hit": false,
      "t": 125017.7321250004,
      "d": 82.58920312501141,
      "v": 65
    },
    {
      "midi": 36,
      "hit": false,
      "t": 125024.42854687541,
      "d": 37.946390625002095,
      "v": 47
    },
    {
      "midi": 55,
      "hit": false,
      "t": 125252.10689062541,
      "d": 223.21406249998836,
      "v": 39
    },
    {
      "midi": 43,
      "hit": false,
      "t": 125444.0709843754,
      "d": 35.71424999998999,
      "v": 39
    },
    {
      "midi": 55,
      "hit": false,
      "t": 125577.99942187539,
      "d": 258.9283124999929,
      "v": 55
    },
    {
      "midi": 41,
      "hit": false,
      "t": 125988.71329687537,
      "d": 102.67846875000396,
      "v": 53
    },
    {
      "midi": 62,
      "hit": false,
      "t": 126410.58787500038,
      "d": 129.46415625001828,
      "v": 47
    },
    {
      "midi": 67,
      "hit": false,
      "t": 126412.82001562537,
      "d": 116.0713125000184,
      "v": 61
    },
    {
      "midi": 63,
      "hit": false,
      "t": 126419.51643750038,
      "d": 149.55342187501083,
      "v": 46
    },
    {
      "midi": 57,
      "hit": false,
      "t": 126428.44500000039,
      "d": 142.8570000000036,
      "v": 35
    },
    {
      "midi": 62,
      "hit": false,
      "t": 126850.31957812539,
      "d": 515.6244843749882,
      "v": 44
    },
    {
      "midi": 52,
      "hit": false,
      "t": 126852.55171875039,
      "d": 419.6424374999915,
      "v": 34
    },
    {
      "midi": 59,
      "hit": false,
      "t": 126857.01600000038,
      "d": 444.1959843749937,
      "v": 43
    },
    {
      "midi": 55,
      "hit": false,
      "t": 126859.24814062538,
      "d": 437.49956250000105,
      "v": 53
    },
    {
      "midi": 79,
      "hit": false,
      "t": 127290.05128125037,
      "d": 82.58920312501141,
      "v": 81
    },
    {
      "midi": 81,
      "hit": false,
      "t": 127584.69384375038,
      "d": 66.96421874999942,
      "v": 87
    },
    {
      "midi": 65,
      "hit": false,
      "t": 127604.78310937539,
      "d": 29.017828124997322,
      "v": 43
    },
    {
      "midi": 61,
      "hit": false,
      "t": 127609.24739062539,
      "d": 37.946390625002095,
      "v": 30
    },
    {
      "midi": 61,
      "hit": false,
      "t": 127729.78298437539,
      "d": 218.74978124999325,
      "v": 42
    },
    {
      "midi": 55,
      "hit": false,
      "t": 127734.24726562538,
      "d": 189.73195312499593,
      "v": 47
    },
    {
      "midi": 65,
      "hit": false,
      "t": 127738.71154687538,
      "d": 183.03553125000326,
      "v": 57
    },
    {
      "midi": 58,
      "hit": false,
      "t": 127740.94368750037,
      "d": 205.35693750000792,
      "v": 52
    },
    {
      "midi": 82,
      "hit": false,
      "t": 127740.94368750037,
      "d": 225.44620312500047,
      "v": 69
    },
    {
      "midi": 61,
      "hit": false,
      "t": 128013.26484375038,
      "d": 359.37464062501385,
      "v": 51
    },
    {
      "midi": 55,
      "hit": false,
      "t": 128017.72912500038,
      "d": 91.51776562500163,
      "v": 53
    },
    {
      "midi": 58,
      "hit": false,
      "t": 128024.42554687538,
      "d": 111.60703124999418,
      "v": 51
    },
    {
      "midi": 84,
      "hit": false,
      "t": 128026.65768750038,
      "d": 93.74990624999919,
      "v": 66
    },
    {
      "midi": 65,
      "hit": false,
      "t": 128028.88982812538,
      "d": 35.71425000000454,
      "v": 50
    },
    {
      "midi": 55,
      "hit": false,
      "t": 128165.05040625038,
      "d": 138.39271875002305,
      "v": 34
    },
    {
      "midi": 65,
      "hit": false,
      "t": 128171.74682812538,
      "d": 89.28562500001863,
      "v": 42
    },
    {
      "midi": 82,
      "hit": false,
      "t": 128178.44325000039,
      "d": 345.98179687501397,
      "v": 51
    },
    {
      "midi": 58,
      "hit": false,
      "t": 128187.3718125004,
      "d": 196.42837500000314,
      "v": 20
    },
    {
      "midi": 63,
      "hit": false,
      "t": 128607.0142500004,
      "d": 116.07131250000384,
      "v": 26
    },
    {
      "midi": 58,
      "hit": false,
      "t": 128607.0142500004,
      "d": 167.41054687500582,
      "v": 30
    },
    {
      "midi": 79,
      "hit": false,
      "t": 128609.2463906254,
      "d": 124.99987500000861,
      "v": 58
    },
    {
      "midi": 60,
      "hit": false,
      "t": 128615.9428125004,
      "d": 104.91060937500151,
      "v": 38
    },
    {
      "midi": 80,
      "hit": false,
      "t": 128874.87112500041,
      "d": 91.51776562503073,
      "v": 74
    },
    {
      "midi": 58,
      "hit": false,
      "t": 128874.87112500041,
      "d": 104.91060937503062,
      "v": 43
    },
    {
      "midi": 63,
      "hit": false,
      "t": 128881.56754687542,
      "d": 55.80351562501164,
      "v": 37
    },
    {
      "midi": 60,
      "hit": false,
      "t": 128883.79968750042,
      "d": 75.89278125001874,
      "v": 53
    },
    {
      "midi": 53,
      "hit": false,
      "t": 128903.88895312542,
      "d": 35.71425000000454,
      "v": 27
    },
    {
      "midi": 63,
      "hit": false,
      "t": 129011.03170312544,
      "d": 174.10696874998393,
      "v": 57
    },
    {
      "midi": 58,
      "hit": false,
      "t": 129015.49598437543,
      "d": 194.19623437499104,
      "v": 35
    },
    {
      "midi": 53,
      "hit": false,
      "t": 129019.96026562543,
      "d": 140.6248593749915,
      "v": 68
    },
    {
      "midi": 82,
      "hit": false,
      "t": 129019.96026562543,
      "d": 191.96409374999348,
      "v": 82
    },
    {
      "midi": 60,
      "hit": false,
      "t": 129022.19240625043,
      "d": 180.80339062499115,
      "v": 68
    },
    {
      "midi": 63,
      "hit": false,
      "t": 129287.81714062543,
      "d": 93.74990624999919,
      "v": 58
    },
    {
      "midi": 53,
      "hit": false,
      "t": 129294.51356250043,
      "d": 111.60703124999418,
      "v": 64
    },
    {
      "midi": 58,
      "hit": false,
      "t": 129296.74570312543,
      "d": 404.01745312499406,
      "v": 51
    },
    {
      "midi": 60,
      "hit": false,
      "t": 129301.20998437543,
      "d": 100.4463281250064,
      "v": 60
    },
    {
      "midi": 84,
      "hit": false,
      "t": 129303.44212500042,
      "d": 100.4463281250064,
      "v": 83
    },
    {
      "midi": 63,
      "hit": false,
      "t": 129452.99554687543,
      "d": 232.14262499999313,
      "v": 37
    },
    {
      "midi": 82,
      "hit": false,
      "t": 129464.15625000044,
      "d": 272.3211562499928,
      "v": 62
    },
    {
      "midi": 53,
      "hit": false,
      "t": 129466.38839062543,
      "d": 223.21406249998836,
      "v": 22
    },
    {
      "midi": 60,
      "hit": false,
      "t": 129470.85267187543,
      "d": 198.6605156250007,
      "v": 56
    },
    {
      "midi": 64,
      "hit": false,
      "t": 130149.42342187543,
      "d": 323.66039062499476,
      "v": 80
    },
    {
      "midi": 59,
      "hit": false,
      "t": 130153.88770312542,
      "d": 337.05323437499464,
      "v": 74
    },
    {
      "midi": 53,
      "hit": false,
      "t": 130156.11984375042,
      "d": 296.87470312500955,
      "v": 71
    },
    {
      "midi": 80,
      "hit": false,
      "t": 130178.44125000043,
      "d": 279.017578125,
      "v": 77
    },
    {
      "midi": 64,
      "hit": false,
      "t": 130546.74445312542,
      "d": 107.14275000001362,
      "v": 64
    },
    {
      "midi": 53,
      "hit": false,
      "t": 130546.74445312542,
      "d": 299.1068437500071,
      "v": 60
    },
    {
      "midi": 82,
      "hit": false,
      "t": 130553.44087500042,
      "d": 118.3034531250014,
      "v": 74
    },
    {
      "midi": 59,
      "hit": false,
      "t": 130553.44087500042,
      "d": 361.60678124999686,
      "v": 68
    },
    {
      "midi": 64,
      "hit": false,
      "t": 130711.92285937542,
      "d": 113.83917187499173,
      "v": 55
    },
    {
      "midi": 83,
      "hit": false,
      "t": 130729.77998437542,
      "d": 116.07131250000384,
      "v": 71
    },
    {
      "midi": 85,
      "hit": false,
      "t": 130970.85117187542,
      "d": 167.41054687502037,
      "v": 82
    },
    {
      "midi": 63,
      "hit": false,
      "t": 130979.77973437542,
      "d": 165.17840625002282,
      "v": 79
    },
    {
      "midi": 59,
      "hit": false,
      "t": 130982.01187500042,
      "d": 386.1603281250136,
      "v": 80
    },
    {
      "midi": 53,
      "hit": false,
      "t": 130982.01187500042,
      "d": 404.01745312502317,
      "v": 80
    },
    {
      "midi": 56,
      "hit": false,
      "t": 130988.70829687543,
      "d": 343.7496562500164,
      "v": 57
    },
    {
      "midi": 83,
      "hit": false,
      "t": 131245.40446875044,
      "d": 147.32128125001327,
      "v": 59
    },
    {
      "midi": 63,
      "hit": false,
      "t": 131533.35060937545,
      "d": 60.26779687500675,
      "v": 43
    },
    {
      "midi": 53,
      "hit": false,
      "t": 131537.81489062545,
      "d": 111.60703125002328,
      "v": 45
    },
    {
      "midi": 59,
      "hit": false,
      "t": 131544.51131250046,
      "d": 33.482109375006985,
      "v": 49
    },
    {
      "midi": 56,
      "hit": false,
      "t": 131544.51131250046,
      "d": 136.16057812501094,
      "v": 40
    },
    {
      "midi": 62,
      "hit": false,
      "t": 131872.63598437546,
      "d": 51.33923437498743,
      "v": 80
    },
    {
      "midi": 51,
      "hit": false,
      "t": 131879.33240625047,
      "d": 51.33923437498743,
      "v": 60
    },
    {
      "midi": 57,
      "hit": false,
      "t": 131879.33240625047,
      "d": 71.42849999997998,
      "v": 71
    },
    {
      "midi": 73,
      "hit": false,
      "t": 131899.42167187546,
      "d": 149.55342187499627,
      "v": 71
    },
    {
      "midi": 86,
      "hit": false,
      "t": 131923.97521875045,
      "d": 98.21418750000885,
      "v": 51
    },
    {
      "midi": 84,
      "hit": false,
      "t": 131935.13592187545,
      "d": 129.46415625000373,
      "v": 37
    },
    {
      "midi": 74,
      "hit": false,
      "t": 132055.67151562546,
      "d": 91.51776562500163,
      "v": 40
    },
    {
      "midi": 86,
      "hit": false,
      "t": 132173.97496875047,
      "d": 60.26779687500675,
      "v": 48
    },
    {
      "midi": 74,
      "hit": false,
      "t": 132245.40346875048,
      "d": 100.44632812499185,
      "v": 46
    },
    {
      "midi": 86,
      "hit": false,
      "t": 132361.47478125046,
      "d": 73.66064062502119,
      "v": 53
    },
    {
      "midi": 74,
      "hit": false,
      "t": 132432.90328125047,
      "d": 107.14274999999907,
      "v": 31
    },
    {
      "midi": 86,
      "hit": false,
      "t": 132560.13529687547,
      "d": 71.42850000000908,
      "v": 44
    },
    {
      "midi": 74,
      "hit": false,
      "t": 132636.02807812547,
      "d": 116.0713125000184,
      "v": 44
    },
    {
      "midi": 63,
      "hit": false,
      "t": 132740.93868750046,
      "d": 107.14275000002817,
      "v": 59
    },
    {
      "midi": 67,
      "hit": false,
      "t": 132743.17082812547,
      "d": 46.87495312502142,
      "v": 57
    },
    {
      "midi": 86,
      "hit": false,
      "t": 132745.40296875048,
      "d": 80.3570624999993,
      "v": 49
    },
    {
      "midi": 59,
      "hit": false,
      "t": 132758.7958125005,
      "d": 82.5892031249823,
      "v": 44
    },
    {
      "midi": 74,
      "hit": false,
      "t": 132850.3135781255,
      "d": 100.44632812499185,
      "v": 40
    },
    {
      "midi": 86,
      "hit": false,
      "t": 132950.7599062505,
      "d": 78.1249218749872,
      "v": 33
    },
    {
      "midi": 74,
      "hit": false,
      "t": 133037.81339062547,
      "d": 98.21418750000885,
      "v": 39
    },
    {
      "midi": 86,
      "hit": false,
      "t": 133136.02757812547,
      "d": 84.82134374999441,
      "v": 47
    },
    {
      "midi": 74,
      "hit": false,
      "t": 133220.84892187547,
      "d": 102.67846875000396,
      "v": 33
    },
    {
      "midi": 86,
      "hit": false,
      "t": 133316.83096875047,
      "d": 100.44632812502095,
      "v": 53
    },
    {
      "midi": 74,
      "hit": false,
      "t": 133421.74157812548,
      "d": 116.0713125000184,
      "v": 47
    },
    {
      "midi": 86,
      "hit": false,
      "t": 133531.1164687505,
      "d": 98.21418750003795,
      "v": 50
    },
    {
      "midi": 65,
      "hit": false,
      "t": 133598.0806875005,
      "d": 31.24996875002398,
      "v": 75
    },
    {
      "midi": 60,
      "hit": false,
      "t": 133600.31282812552,
      "d": 29.017828125011874,
      "v": 68
    },
    {
      "midi": 56,
      "hit": false,
      "t": 133602.54496875053,
      "d": 71.42850000000908,
      "v": 55
    },
    {
      "midi": 61,
      "hit": false,
      "t": 133609.24139062554,
      "d": 44.64281250000931,
      "v": 38
    },
    {
      "midi": 74,
      "hit": false,
      "t": 133651.65206250054,
      "d": 256.69617187499534,
      "v": 51
    },
    {
      "midi": 87,
      "hit": false,
      "t": 133984.24101562554,
      "d": 109.37489062498207,
      "v": 84
    },
    {
      "midi": 73,
      "hit": false,
      "t": 134006.56242187554,
      "d": 142.85699999998906,
      "v": 72
    },
    {
      "midi": 85,
      "hit": false,
      "t": 134011.02670312554,
      "d": 73.66064062499208,
      "v": 50
    },
    {
      "midi": 87,
      "hit": false,
      "t": 134178.43725000054,
      "d": 75.89278125000419,
      "v": 48
    },
    {
      "midi": 73,
      "hit": false,
      "t": 134243.16932812554,
      "d": 95.98204687499674,
      "v": 44
    },
    {
      "midi": 87,
      "hit": false,
      "t": 134345.84779687555,
      "d": 100.44632812502095,
      "v": 68
    },
    {
      "midi": 73,
      "hit": false,
      "t": 134439.59770312556,
      "d": 116.0713125000184,
      "v": 38
    },
    {
      "midi": 61,
      "hit": false,
      "t": 134528.88332812558,
      "d": 31.249968749994878,
      "v": 51
    },
    {
      "midi": 87,
      "hit": false,
      "t": 134548.97259375057,
      "d": 100.44632812499185,
      "v": 58
    },
    {
      "midi": 73,
      "hit": false,
      "t": 134651.65106250058,
      "d": 98.21418750000885,
      "v": 38
    },
    {
      "midi": 87,
      "hit": false,
      "t": 134743.16882812558,
      "d": 104.91060937501607,
      "v": 55
    },
    {
      "midi": 73,
      "hit": false,
      "t": 134850.3115781256,
      "d": 113.83917187497718,
      "v": 34
    },
    {
      "midi": 61,
      "hit": false,
      "t": 134886.0258281256,
      "d": 549.1065937499807,
      "v": 75
    },
    {
      "midi": 64,
      "hit": false,
      "t": 134890.4901093756,
      "d": 412.94601562496973,
      "v": 82
    },
    {
      "midi": 55,
      "hit": false,
      "t": 134894.9543906256,
      "d": 363.8389218749653,
      "v": 82
    },
    {
      "midi": 87,
      "hit": false,
      "t": 134968.61503125058,
      "d": 78.1249218749872,
      "v": 57
    },
    {
      "midi": 73,
      "hit": false,
      "t": 135055.66851562556,
      "d": 127.23201562499162,
      "v": 35
    },
    {
      "midi": 87,
      "hit": false,
      "t": 135173.97196875056,
      "d": 147.32128125001327,
      "v": 40
    },
    {
      "midi": 73,
      "hit": false,
      "t": 135265.48973437556,
      "d": 136.16057812501094,
      "v": 30
    },
    {
      "midi": 72,
      "hit": false,
      "t": 135441.82884375058,
      "d": 781.2492187500466,
      "v": 38
    },
    {
      "midi": 60,
      "hit": false,
      "t": 135444.0609843756,
      "d": 506.6959218750126,
      "v": 66
    },
    {
      "midi": 58,
      "hit": false,
      "t": 135444.0609843756,
      "d": 562.4994375000242,
      "v": 45
    },
    {
      "midi": 63,
      "hit": false,
      "t": 135448.5252656256,
      "d": 368.3032031250186,
      "v": 63
    },
    {
      "midi": 53,
      "hit": false,
      "t": 135461.9181093756,
      "d": 529.0173281250172,
      "v": 57
    },
    {
      "midi": 86,
      "hit": false,
      "t": 135464.15025000062,
      "d": 37.946390625002095,
      "v": 40
    },
    {
      "midi": 84,
      "hit": false,
      "t": 135464.15025000062,
      "d": 328.1246718750044,
      "v": 42
    },
    {
      "midi": 82,
      "hit": false,
      "t": 135897.1855312506,
      "d": 225.44620312500047,
      "v": 72
    },
    {
      "midi": 79,
      "hit": false,
      "t": 136176.2031093756,
      "d": 136.16057812504005,
      "v": 68
    },
    {
      "midi": 63,
      "hit": false,
      "t": 136178.43525000062,
      "d": 71.42850000000908,
      "v": 55
    },
    {
      "midi": 58,
      "hit": false,
      "t": 136200.75665625063,
      "d": 109.37489062501118,
      "v": 35
    },
    {
      "midi": 75,
      "hit": false,
      "t": 136368.16720312566,
      "d": 225.44620312500047,
      "v": 39
    },
    {
      "midi": 72,
      "hit": false,
      "t": 136593.61340625066,
      "d": 93.74990625001374,
      "v": 37
    },
    {
      "midi": 70,
      "hit": false,
      "t": 136732.00612500068,
      "d": 194.1962343750056,
      "v": 46
    },
    {
      "midi": 68,
      "hit": false,
      "t": 137011.02370312568,
      "d": 156.2498437500035,
      "v": 65
    },
    {
      "midi": 65,
      "hit": false,
      "t": 137035.57725000067,
      "d": 33.482109375006985,
      "v": 38
    },
    {
      "midi": 55,
      "hit": false,
      "t": 137051.20223437567,
      "d": 80.3570625000284,
      "v": 32
    },
    {
      "midi": 60,
      "hit": false,
      "t": 137053.43437500068,
      "d": 44.64281250000931,
      "v": 34
    },
    {
      "midi": 70,
      "hit": false,
      "t": 137218.61278125067,
      "d": 122.76773437502561,
      "v": 37
    },
    {
      "midi": 68,
      "hit": false,
      "t": 137274.4162968757,
      "d": 93.74990625001374,
      "v": 46
    },
    {
      "midi": 67,
      "hit": false,
      "t": 137368.1662031257,
      "d": 73.66064062499208,
      "v": 62
    },
    {
      "midi": 64,
      "hit": false,
      "t": 137499.8625000007,
      "d": 33.482109375006985,
      "v": 40
    },
    {
      "midi": 65,
      "hit": false,
      "t": 137499.8625000007,
      "d": 91.51776562500163,
      "v": 71
    },
    {
      "midi": 53,
      "hit": false,
      "t": 137526.6481875007,
      "d": 89.28562499998952,
      "v": 24
    },
    {
      "midi": 63,
      "hit": false,
      "t": 137640.48735937566,
      "d": 120.5355937500135,
      "v": 39
    },
    {
      "midi": 62,
      "hit": false,
      "t": 137778.8800781257,
      "d": 91.51776562500163,
      "v": 49
    },
    {
      "midi": 65,
      "hit": false,
      "t": 137897.1835312507,
      "d": 109.37489062501118,
      "v": 74
    },
    {
      "midi": 62,
      "hit": false,
      "t": 138033.3441093757,
      "d": 55.80351562501164,
      "v": 45
    },
    {
      "midi": 53,
      "hit": false,
      "t": 138062.3619375007,
      "d": 31.249968749994878,
      "v": 22
    },
    {
      "midi": 63,
      "hit": false,
      "t": 138144.9511406257,
      "d": 145.08914062500116,
      "v": 57
    },
    {
      "midi": 59,
      "hit": false,
      "t": 138303.4331250007,
      "d": 252.23189062500023,
      "v": 68
    },
    {
      "midi": 53,
      "hit": false,
      "t": 138426.2008593757,
      "d": 26.785687499999767,
      "v": 54
    },
    {
      "midi": 43,
      "hit": false,
      "t": 138448.5222656257,
      "d": 66.96421874998487,
      "v": 33
    },
    {
      "midi": 58,
      "hit": false,
      "t": 138557.89715625072,
      "d": 140.62485937500605,
      "v": 37
    },
    {
      "midi": 56,
      "hit": false,
      "t": 138787.80764062572,
      "d": 89.28562499998952,
      "v": 67
    },
    {
      "midi": 55,
      "hit": false,
      "t": 138946.2896250007,
      "d": 158.4819843749865,
      "v": 59
    },
    {
      "midi": 56,
      "hit": false,
      "t": 139171.7358281257,
      "d": 98.21418750000885,
      "v": 25
    },
    {
      "midi": 55,
      "hit": false,
      "t": 139209.6822187507,
      "d": 71.42850000000908,
      "v": 60
    },
    {
      "midi": 43,
      "hit": false,
      "t": 139225.3072031257,
      "d": 69.19635937502608,
      "v": 24
    },
    {
      "midi": 53,
      "hit": false,
      "t": 139303.43212500072,
      "d": 272.3211562499928,
      "v": 44
    },
    {
      "midi": 51,
      "hit": false,
      "t": 139589.14612500073,
      "d": 116.07131249998929,
      "v": 44
    },
    {
      "midi": 43,
      "hit": false,
      "t": 139611.46753125073,
      "d": 42.410671874997206,
      "v": 32
    },
    {
      "midi": 50,
      "hit": false,
      "t": 139727.53884375072,
      "d": 287.9461406250193,
      "v": 48
    },
    {
      "midi": 51,
      "hit": false,
      "t": 140013.25284375073,
      "d": 104.91060937501607,
      "v": 44
    },
    {
      "midi": 53,
      "hit": false,
      "t": 140156.10984375075,
      "d": 238.8390468749858,
      "v": 42
    },
    {
      "midi": 48,
      "hit": false,
      "t": 140437.35956250073,
      "d": 84.82134374999441,
      "v": 55
    },
    {
      "midi": 45,
      "hit": false,
      "t": 140841.37701562574,
      "d": 75.89278125000419,
      "v": 58
    },
    {
      "midi": 55,
      "hit": false,
      "t": 141307.89440625074,
      "d": 42.410671874997206,
      "v": 55
    },
    {
      "midi": 59,
      "hit": false,
      "t": 141470.84067187575,
      "d": 62.499937499989755,
      "v": 68
    },
    {
      "midi": 60,
      "hit": false,
      "t": 141615.92981250075,
      "d": 73.66064062499208,
      "v": 67
    },
    {
      "midi": 67,
      "hit": false,
      "t": 141767.71537500073,
      "d": 53.571374999999534,
      "v": 74
    },
    {
      "midi": 71,
      "hit": false,
      "t": 141917.26879687572,
      "d": 40.1785312500142,
      "v": 68
    },
    {
      "midi": 72,
      "hit": false,
      "t": 142044.50081250074,
      "d": 78.1249218749872,
      "v": 54
    },
    {
      "midi": 79,
      "hit": false,
      "t": 142191.82209375073,
      "d": 73.66064062499208,
      "v": 70
    },
    {
      "midi": 54,
      "hit": false,
      "t": 142294.50056250073,
      "d": 91.51776562503073,
      "v": 31
    },
    {
      "midi": 72,
      "hit": false,
      "t": 142307.89340625075,
      "d": 113.83917187500629,
      "v": 55
    },
    {
      "midi": 60,
      "hit": false,
      "t": 142336.91123437576,
      "d": 46.87495312499232,
      "v": 20
    },
    {
      "midi": 65,
      "hit": false,
      "t": 143013.24984375076,
      "d": 35.71425000001909,
      "v": 36
    },
    {
      "midi": 54,
      "hit": false,
      "t": 143015.48198437577,
      "d": 73.66064062502119,
      "v": 31
    },
    {
      "midi": 60,
      "hit": false,
      "t": 143019.94626562577,
      "d": 91.51776562503073,
      "v": 41
    },
    {
      "midi": 72,
      "hit": false,
      "t": 143147.1782812508,
      "d": 60.26779687500675,
      "v": 31
    },
    {
      "midi": 77,
      "hit": false,
      "t": 143272.1781562508,
      "d": 107.14274999999907,
      "v": 64
    },
    {
      "midi": 54,
      "hit": false,
      "t": 143401.6423125008,
      "d": 352.6782187500503,
      "v": 74
    },
    {
      "midi": 60,
      "hit": false,
      "t": 143403.8744531258,
      "d": 524.553046874993,
      "v": 78
    },
    {
      "midi": 65,
      "hit": false,
      "t": 143406.10659375082,
      "d": 486.6066562499909,
      "v": 80
    },
    {
      "midi": 82,
      "hit": false,
      "t": 143408.33873437584,
      "d": 69.19635937499697,
      "v": 69
    },
    {
      "midi": 84,
      "hit": false,
      "t": 143557.89215625083,
      "d": 71.42850000000908,
      "v": 73
    },
    {
      "midi": 89,
      "hit": false,
      "t": 143687.35631250084,
      "d": 87.05348437500652,
      "v": 74
    },
    {
      "midi": 94,
      "hit": false,
      "t": 143825.74903125083,
      "d": 111.60703124999418,
      "v": 84
    },
    {
      "midi": 54,
      "hit": false,
      "t": 143830.21331250083,
      "d": 131.69629687498673,
      "v": 67
    },
    {
      "midi": 58,
      "hit": false,
      "t": 143865.92756250082,
      "d": 69.19635937499697,
      "v": 21
    },
    {
      "midi": 53,
      "hit": false,
      "t": 143979.76673437582,
      "d": 357.1425000000163,
      "v": 74
    },
    {
      "midi": 64,
      "hit": false,
      "t": 143981.99887500083,
      "d": 377.23176562500885,
      "v": 74
    },
    {
      "midi": 96,
      "hit": false,
      "t": 143988.69529687584,
      "d": 343.74965625000186,
      "v": 84
    },
    {
      "midi": 84,
      "hit": false,
      "t": 143988.69529687584,
      "d": 361.6067812500114,
      "v": 82
    },
    {
      "midi": 59,
      "hit": false,
      "t": 143988.69529687584,
      "d": 383.92818750001607,
      "v": 66
    },
    {
      "midi": 53,
      "hit": false,
      "t": 144421.73057812586,
      "d": 350.4460781250091,
      "v": 71
    },
    {
      "midi": 64,
      "hit": false,
      "t": 144423.96271875087,
      "d": 352.6782187499921,
      "v": 64
    },
    {
      "midi": 95,
      "hit": false,
      "t": 144426.1948593759,
      "d": 194.1962343750056,
      "v": 72
    },
    {
      "midi": 59,
      "hit": false,
      "t": 144430.65914062588,
      "d": 379.46390624999185,
      "v": 76
    },
    {
      "midi": 83,
      "hit": false,
      "t": 144432.8912812509,
      "d": 276.7854374999879,
      "v": 66
    },
    {
      "midi": 53,
      "hit": false,
      "t": 144856.99800000087,
      "d": 316.9639687500312,
      "v": 64
    },
    {
      "midi": 59,
      "hit": false,
      "t": 144856.99800000087,
      "d": 368.3032031250186,
      "v": 52
    },
    {
      "midi": 80,
      "hit": false,
      "t": 144859.23014062588,
      "d": 234.3747656250198,
      "v": 60
    },
    {
      "midi": 92,
      "hit": false,
      "t": 144861.4622812509,
      "d": 214.28549999999814,
      "v": 51
    },
    {
      "midi": 64,
      "hit": false,
      "t": 144861.4622812509,
      "d": 328.1246718750044,
      "v": 58
    },
    {
      "midi": 93,
      "hit": false,
      "t": 145044.4978125009,
      "d": 91.51776562500163,
      "v": 33
    },
    {
      "midi": 81,
      "hit": false,
      "t": 145082.4442031259,
      "d": 84.82134374999441,
      "v": 51
    },
    {
      "midi": 53,
      "hit": false,
      "t": 145274.4082968759,
      "d": 283.4818593750533,
      "v": 55
    },
    {
      "midi": 92,
      "hit": false,
      "t": 145281.1047187509,
      "d": 323.6603906250384,
      "v": 71
    },
    {
      "midi": 59,
      "hit": false,
      "t": 145281.1047187509,
      "d": 357.1425000000454,
      "v": 44
    },
    {
      "midi": 80,
      "hit": false,
      "t": 145283.3368593759,
      "d": 374.99962500002584,
      "v": 60
    },
    {
      "midi": 64,
      "hit": false,
      "t": 145285.56900000092,
      "d": 258.92831250000745,
      "v": 55
    },
    {
      "midi": 59,
      "hit": false,
      "t": 145689.58645312593,
      "d": 348.2139375000843,
      "v": 16
    },
    {
      "midi": 62,
      "hit": false,
      "t": 145709.67571875092,
      "d": 299.10684375005076,
      "v": 46
    },
    {
      "midi": 55,
      "hit": false,
      "t": 145711.90785937593,
      "d": 310.2675468750531,
      "v": 53
    },
    {
      "midi": 52,
      "hit": false,
      "t": 145714.14000000095,
      "d": 330.35681250007474,
      "v": 40
    },
    {
      "midi": 79,
      "hit": false,
      "t": 145736.46140625095,
      "d": 249.99975000001723,
      "v": 47
    },
    {
      "midi": 91,
      "hit": false,
      "t": 145738.69354687596,
      "d": 285.7140000000363,
      "v": 51
    },
    {
      "midi": 52,
      "hit": false,
      "t": 146158.33598437603,
      "d": 138.39271875005215,
      "v": 64
    },
    {
      "midi": 59,
      "hit": false,
      "t": 146162.80026562602,
      "d": 165.17840625005192,
      "v": 57
    },
    {
      "midi": 55,
      "hit": false,
      "t": 146165.03240625103,
      "d": 138.39271875005215,
      "v": 67
    },
    {
      "midi": 62,
      "hit": false,
      "t": 146165.03240625103,
      "d": 180.80339062504936,
      "v": 70
    },
    {
      "midi": 86,
      "hit": false,
      "t": 146167.26454687605,
      "d": 241.071187500027,
      "v": 88
    },
    {
      "midi": 98,
      "hit": false,
      "t": 146169.49668750106,
      "d": 191.96409375002258,
      "v": 85
    },
    {
      "midi": 88,
      "hit": false,
      "t": 146191.81809375106,
      "d": 29.017828125011874,
      "v": 35
    },
    {
      "midi": 90,
      "hit": false,
      "t": 146589.13912500106,
      "d": 194.1962343750638,
      "v": 77
    },
    {
      "midi": 95,
      "hit": false,
      "t": 146593.60340625106,
      "d": 229.9104843750829,
      "v": 78
    },
    {
      "midi": 83,
      "hit": false,
      "t": 146595.83554687607,
      "d": 290.17828125006054,
      "v": 80
    },
    {
      "midi": 62,
      "hit": false,
      "t": 146598.06768750108,
      "d": 361.6067812500405,
      "v": 80
    },
    {
      "midi": 63,
      "hit": false,
      "t": 146602.53196875108,
      "d": 524.5530468751094,
      "v": 64
    },
    {
      "midi": 57,
      "hit": false,
      "t": 146604.7641093761,
      "d": 323.6603906250384,
      "v": 74
    },
    {
      "midi": 67,
      "hit": false,
      "t": 146606.9962500011,
      "d": 26.785687499999767,
      "v": 77
    },
    {
      "midi": 94,
      "hit": false,
      "t": 146609.22839062611,
      "d": 26.785687499999767,
      "v": 45
    },
    {
      "midi": 91,
      "hit": false,
      "t": 146711.90685937612,
      "d": 111.60703125002328,
      "v": 33
    },
    {
      "midi": 91,
      "hit": false,
      "t": 147026.63868750114,
      "d": 133.92843750005704,
      "v": 61
    },
    {
      "midi": 62,
      "hit": false,
      "t": 147028.87082812615,
      "d": 51.339234375045635,
      "v": 37
    },
    {
      "midi": 57,
      "hit": false,
      "t": 147028.87082812615,
      "d": 118.3034531250305,
      "v": 50
    },
    {
      "midi": 67,
      "hit": false,
      "t": 147031.10296875116,
      "d": 58.03565625002375,
      "v": 60
    },
    {
      "midi": 86,
      "hit": false,
      "t": 147035.56725000116,
      "d": 140.62485937503516,
      "v": 68
    },
    {
      "midi": 79,
      "hit": false,
      "t": 147035.56725000116,
      "d": 171.87482812503004,
      "v": 53
    },
    {
      "midi": 87,
      "hit": false,
      "t": 147048.96009375117,
      "d": 136.16057812501094,
      "v": 35
    },
    {
      "midi": 52,
      "hit": false,
      "t": 147450.7454062512,
      "d": 287.94614062504843,
      "v": 47
    },
    {
      "midi": 83,
      "hit": false,
      "t": 147452.9775468762,
      "d": 243.30332812503912,
      "v": 60
    },
    {
      "midi": 71,
      "hit": false,
      "t": 147455.20968750122,
      "d": 209.82121875003213,
      "v": 70
    },
    {
      "midi": 62,
      "hit": false,
      "t": 147457.44182812623,
      "d": 265.62473437501467,
      "v": 53
    },
    {
      "midi": 59,
      "hit": false,
      "t": 147464.13825000124,
      "d": 258.92831250000745,
      "v": 44
    },
    {
      "midi": 55,
      "hit": false,
      "t": 147473.06681250123,
      "d": 243.30332812501,
      "v": 55
    },
    {
      "midi": 59,
      "hit": false,
      "t": 147854.76285937626,
      "d": 218.74978125010966,
      "v": 62
    },
    {
      "midi": 52,
      "hit": false,
      "t": 147856.99500000128,
      "d": 187.49981250005658,
      "v": 66
    },
    {
      "midi": 74,
      "hit": false,
      "t": 147856.99500000128,
      "d": 287.94614062510664,
      "v": 63
    },
    {
      "midi": 85,
      "hit": false,
      "t": 147859.2271406263,
      "d": 165.17840625002282,
      "v": 57
    },
    {
      "midi": 62,
      "hit": false,
      "t": 147859.2271406263,
      "d": 261.16045312510687,
      "v": 72
    },
    {
      "midi": 88,
      "hit": false,
      "t": 147861.4592812513,
      "d": 169.64268750001793,
      "v": 71
    },
    {
      "midi": 76,
      "hit": false,
      "t": 147861.4592812513,
      "d": 229.9104843750829,
      "v": 74
    },
    {
      "midi": 55,
      "hit": false,
      "t": 147863.6914218763,
      "d": 207.58907812504913,
      "v": 66
    },
    {
      "midi": 86,
      "hit": false,
      "t": 147863.6914218763,
      "d": 241.07118750008522,
      "v": 78
    },
    {
      "midi": 81,
      "hit": false,
      "t": 147872.6199843763,
      "d": 185.26767187504447,
      "v": 50
    },
    {
      "midi": 55,
      "hit": false,
      "t": 148290.03028125138,
      "d": 312.4996875000652,
      "v": 62
    },
    {
      "midi": 80,
      "hit": false,
      "t": 148296.7267031264,
      "d": 156.2498437500326,
      "v": 55
    },
    {
      "midi": 65,
      "hit": false,
      "t": 148298.9588437514,
      "d": 283.4818593750533,
      "v": 53
    },
    {
      "midi": 84,
      "hit": false,
      "t": 148303.4231250014,
      "d": 209.82121875003213,
      "v": 62
    },
    {
      "midi": 72,
      "hit": false,
      "t": 148303.4231250014,
      "d": 238.839046875044,
      "v": 48
    },
    {
      "midi": 61,
      "hit": false,
      "t": 148303.4231250014,
      "d": 339.28537500006496,
      "v": 42
    },
    {
      "midi": 78,
      "hit": false,
      "t": 148321.2802500014,
      "d": 29.017828125011874,
      "v": 30
    },
    {
      "midi": 81,
      "hit": false,
      "t": 148452.97654687642,
      "d": 40.1785312500142,
      "v": 36
    },
    {
      "midi": 55,
      "hit": false,
      "t": 148714.13700000147,
      "d": 363.8389218750235,
      "v": 55
    },
    {
      "midi": 65,
      "hit": false,
      "t": 148720.83342187648,
      "d": 207.58907812502002,
      "v": 54
    },
    {
      "midi": 81,
      "hit": false,
      "t": 148725.29770312647,
      "d": 138.39271875002305,
      "v": 51
    },
    {
      "midi": 61,
      "hit": false,
      "t": 148725.29770312647,
      "d": 392.8567500000354,
      "v": 33
    },
    {
      "midi": 77,
      "hit": false,
      "t": 148727.5298437515,
      "d": 145.08914062500116,
      "v": 49
    },
    {
      "midi": 69,
      "hit": false,
      "t": 148729.7619843765,
      "d": 191.96409374999348,
      "v": 55
    },
    {
      "midi": 76,
      "hit": false,
      "t": 149144.9401406265,
      "d": 80.3570625000284,
      "v": 60
    },
    {
      "midi": 65,
      "hit": false,
      "t": 149147.17228125152,
      "d": 51.33923437501653,
      "v": 64
    },
    {
      "midi": 69,
      "hit": false,
      "t": 149153.86870312653,
      "d": 37.946390625002095,
      "v": 57
    },
    {
      "midi": 72,
      "hit": false,
      "t": 149153.86870312653,
      "d": 51.33923437501653,
      "v": 32
    },
    {
      "midi": 64,
      "hit": false,
      "t": 149165.02940625153,
      "d": 107.14274999999907,
      "v": 57
    },
    {
      "midi": 63,
      "hit": false,
      "t": 149290.02928125154,
      "d": 91.51776562500163,
      "v": 49
    },
    {
      "midi": 62,
      "hit": false,
      "t": 149415.02915625155,
      "d": 136.16057812501094,
      "v": 33
    },
    {
      "midi": 74,
      "hit": false,
      "t": 149461.90410937654,
      "d": 109.37489062501118,
      "v": 68
    },
    {
      "midi": 69,
      "hit": false,
      "t": 149468.60053125155,
      "d": 104.91060937501607,
      "v": 74
    },
    {
      "midi": 65,
      "hit": false,
      "t": 149470.83267187656,
      "d": 78.1249218749872,
      "v": 60
    },
    {
      "midi": 61,
      "hit": false,
      "t": 149533.33260937655,
      "d": 158.4819843750156,
      "v": 48
    },
    {
      "midi": 72,
      "hit": false,
      "t": 149714.13600000157,
      "d": 183.03553125000326,
      "v": 41
    },
    {
      "midi": 60,
      "hit": false,
      "t": 149738.68954687656,
      "d": 212.05335937501513,
      "v": 33
    },
    {
      "midi": 69,
      "hit": false,
      "t": 149765.47523437656,
      "d": 100.44632812502095,
      "v": 24
    },
    {
      "midi": 62,
      "hit": false,
      "t": 149767.70737500157,
      "d": 89.28562500001863,
      "v": 24
    },
    {
      "midi": 65,
      "hit": false,
      "t": 149774.40379687658,
      "d": 91.51776562500163,
      "v": 17
    },
    {
      "midi": 62,
      "hit": false,
      "t": 150026.63568750158,
      "d": 129.46415624997462,
      "v": 46
    },
    {
      "midi": 69,
      "hit": false,
      "t": 150026.63568750158,
      "d": 140.62485937497695,
      "v": 47
    },
    {
      "midi": 65,
      "hit": false,
      "t": 150033.33210937658,
      "d": 98.21418749997974,
      "v": 50
    },
    {
      "midi": 60,
      "hit": false,
      "t": 150033.33210937658,
      "d": 165.1784062499646,
      "v": 49
    },
    {
      "midi": 57,
      "hit": false,
      "t": 150057.88565625157,
      "d": 241.0711874999688,
      "v": 40
    },
    {
      "midi": 60,
      "hit": false,
      "t": 150319.04610937656,
      "d": 120.5355937500135,
      "v": 58
    },
    {
      "midi": 62,
      "hit": false,
      "t": 150321.27825000157,
      "d": 147.32128125001327,
      "v": 51
    },
    {
      "midi": 65,
      "hit": false,
      "t": 150325.74253125157,
      "d": 142.85700000001816,
      "v": 37
    },
    {
      "midi": 57,
      "hit": false,
      "t": 150330.20681250156,
      "d": 84.82134375002352,
      "v": 26
    },
    {
      "midi": 53,
      "hit": false,
      "t": 150336.90323437657,
      "d": 75.89278125000419,
      "v": 44
    },
    {
      "midi": 31,
      "hit": false,
      "t": 150698.51001562658,
      "d": 60.26779687500675,
      "v": 64
    },
    {
      "midi": 82,
      "hit": false,
      "t": 151171.7238281266,
      "d": 216.51764062498114,
      "v": 75
    },
    {
      "midi": 75,
      "hit": false,
      "t": 151176.18810937658,
      "d": 229.91048437499558,
      "v": 80
    },
    {
      "midi": 70,
      "hit": false,
      "t": 151185.11667187657,
      "d": 171.87482812500093,
      "v": 92
    },
    {
      "midi": 79,
      "hit": false,
      "t": 151187.3488125016,
      "d": 160.7141249999986,
      "v": 65
    },
    {
      "midi": 71,
      "hit": false,
      "t": 151191.81309375158,
      "d": 238.8390468749858,
      "v": 82
    },
    {
      "midi": 69,
      "hit": false,
      "t": 151381.54504687656,
      "d": 93.74990625001374,
      "v": 63
    },
    {
      "midi": 68,
      "hit": false,
      "t": 151513.24134375158,
      "d": 124.99987500000861,
      "v": 56
    },
    {
      "midi": 71,
      "hit": false,
      "t": 151685.11617187658,
      "d": 234.3747656250198,
      "v": 71
    },
    {
      "midi": 79,
      "hit": false,
      "t": 151687.3483125016,
      "d": 187.49981249999837,
      "v": 61
    },
    {
      "midi": 75,
      "hit": false,
      "t": 151687.3483125016,
      "d": 243.30332812501,
      "v": 60
    },
    {
      "midi": 67,
      "hit": false,
      "t": 151696.27687500158,
      "d": 287.9461406250193,
      "v": 59
    },
    {
      "midi": 74,
      "hit": false,
      "t": 151988.6872968766,
      "d": 129.46415625000373,
      "v": 62
    },
    {
      "midi": 71,
      "hit": false,
      "t": 151990.9194375016,
      "d": 95.98204687499674,
      "v": 55
    },
    {
      "midi": 77,
      "hit": false,
      "t": 151990.9194375016,
      "d": 140.62485937500605,
      "v": 60
    },
    {
      "midi": 65,
      "hit": false,
      "t": 151995.3837187516,
      "d": 116.07131249998929,
      "v": 62
    },
    {
      "midi": 62,
      "hit": false,
      "t": 152151.6335625016,
      "d": 249.99974999998813,
      "v": 39
    },
    {
      "midi": 75,
      "hit": false,
      "t": 152423.9547187516,
      "d": 120.5355937500135,
      "v": 50
    },
    {
      "midi": 66,
      "hit": false,
      "t": 152432.8832812516,
      "d": 93.74990625001374,
      "v": 42
    },
    {
      "midi": 70,
      "hit": false,
      "t": 152435.1154218766,
      "d": 93.74990625001374,
      "v": 56
    },
    {
      "midi": 63,
      "hit": false,
      "t": 152441.8118437516,
      "d": 167.41054687500582,
      "v": 55
    },
    {
      "midi": 76,
      "hit": false,
      "t": 152598.0616875016,
      "d": 116.0713125000184,
      "v": 48
    },
    {
      "midi": 67,
      "hit": false,
      "t": 152600.29382812663,
      "d": 122.76773437499651,
      "v": 40
    },
    {
      "midi": 71,
      "hit": false,
      "t": 152609.22239062662,
      "d": 98.21418750000885,
      "v": 50
    },
    {
      "midi": 64,
      "hit": false,
      "t": 152620.38309375162,
      "d": 129.46415625000373,
      "v": 51
    },
    {
      "midi": 79,
      "hit": false,
      "t": 152872.61498437662,
      "d": 109.37489062498207,
      "v": 60
    },
    {
      "midi": 74,
      "hit": false,
      "t": 152872.61498437662,
      "d": 111.60703124999418,
      "v": 63
    },
    {
      "midi": 69,
      "hit": false,
      "t": 152874.84712500163,
      "d": 58.035656249994645,
      "v": 62
    },
    {
      "midi": 67,
      "hit": false,
      "t": 152874.84712500163,
      "d": 82.5892031249823,
      "v": 64
    },
    {
      "midi": 50,
      "hit": false,
      "t": 153281.09671875162,
      "d": 53.571374999999534,
      "v": 48
    },
    {
      "midi": 63,
      "hit": false,
      "t": 153441.81084375162,
      "d": 138.39271875002305,
      "v": 69
    },
    {
      "midi": 67,
      "hit": false,
      "t": 153441.81084375162,
      "d": 154.0177031250205,
      "v": 71
    },
    {
      "midi": 71,
      "hit": false,
      "t": 153448.50726562663,
      "d": 154.0177031250205,
      "v": 61
    },
    {
      "midi": 74,
      "hit": false,
      "t": 153448.50726562663,
      "d": 160.7141250000277,
      "v": 68
    },
    {
      "midi": 62,
      "hit": false,
      "t": 153461.90010937664,
      "d": 194.1962343750056,
      "v": 71
    },
    {
      "midi": 72,
      "hit": false,
      "t": 153868.14970312663,
      "d": 243.30332812501,
      "v": 39
    },
    {
      "midi": 60,
      "hit": false,
      "t": 153872.61398437663,
      "d": 98.21418750000885,
      "v": 56
    },
    {
      "midi": 67,
      "hit": false,
      "t": 153874.84612500164,
      "d": 174.10696874998393,
      "v": 59
    },
    {
      "midi": 63,
      "hit": false,
      "t": 153874.84612500164,
      "d": 214.28549999999814,
      "v": 50
    },
    {
      "midi": 67,
      "hit": false,
      "t": 154292.25642187663,
      "d": 287.9461406250193,
      "v": 50
    },
    {
      "midi": 52,
      "hit": false,
      "t": 154294.48856250165,
      "d": 417.41029687502305,
      "v": 43
    },
    {
      "midi": 62,
      "hit": false,
      "t": 154303.41712500164,
      "d": 136.16057812501094,
      "v": 37
    },
    {
      "midi": 59,
      "hit": false,
      "t": 154325.73853125164,
      "d": 408.48173437503283,
      "v": 24
    },
    {
      "midi": 62,
      "hit": false,
      "t": 154618.14895312666,
      "d": 58.035656249994645,
      "v": 59
    },
    {
      "midi": 75,
      "hit": false,
      "t": 155153.86270312668,
      "d": 104.91060937501607,
      "v": 83
    },
    {
      "midi": 63,
      "hit": false,
      "t": 155160.5591250017,
      "d": 102.67846875000396,
      "v": 60
    },
    {
      "midi": 71,
      "hit": false,
      "t": 155162.7912656267,
      "d": 53.571374999999534,
      "v": 87
    },
    {
      "midi": 79,
      "hit": false,
      "t": 155162.7912656267,
      "d": 62.499937499989755,
      "v": 74
    },
    {
      "midi": 53,
      "hit": false,
      "t": 155167.2555468767,
      "d": 473.2138125000347,
      "v": 39
    },
    {
      "midi": 77,
      "hit": false,
      "t": 155307.8804062517,
      "d": 69.19635937502608,
      "v": 35
    },
    {
      "midi": 69,
      "hit": false,
      "t": 155310.1125468767,
      "d": 33.482109375006985,
      "v": 36
    },
    {
      "midi": 73,
      "hit": false,
      "t": 155314.5768281267,
      "d": 66.96421875001397,
      "v": 37
    },
    {
      "midi": 59,
      "hit": false,
      "t": 155361.45178125173,
      "d": 359.3746406249993,
      "v": 22
    },
    {
      "midi": 75,
      "hit": false,
      "t": 155428.41600000171,
      "d": 118.3034531250305,
      "v": 70
    },
    {
      "midi": 71,
      "hit": false,
      "t": 155432.8802812517,
      "d": 84.82134375002352,
      "v": 75
    },
    {
      "midi": 79,
      "hit": false,
      "t": 155435.11242187672,
      "d": 89.28562500001863,
      "v": 65
    },
    {
      "midi": 63,
      "hit": false,
      "t": 155448.50526562674,
      "d": 133.92843749999884,
      "v": 55
    },
    {
      "midi": 78,
      "hit": false,
      "t": 155459.66596875174,
      "d": 24.55354687498766,
      "v": 26
    },
    {
      "midi": 77,
      "hit": false,
      "t": 155602.52296875173,
      "d": 87.05348437500652,
      "v": 38
    },
    {
      "midi": 69,
      "hit": false,
      "t": 155611.45153125172,
      "d": 55.80351562501164,
      "v": 38
    },
    {
      "midi": 73,
      "hit": false,
      "t": 155611.45153125172,
      "d": 84.82134375002352,
      "v": 30
    },
    {
      "midi": 79,
      "hit": false,
      "t": 155740.91568750172,
      "d": 93.74990625001374,
      "v": 64
    },
    {
      "midi": 75,
      "hit": false,
      "t": 155749.8442500017,
      "d": 78.1249218750163,
      "v": 45
    },
    {
      "midi": 71,
      "hit": false,
      "t": 155756.54067187672,
      "d": 162.9462656250107,
      "v": 55
    },
    {
      "midi": 77,
      "hit": false,
      "t": 155886.00482812672,
      "d": 91.51776562500163,
      "v": 34
    },
    {
      "midi": 62,
      "hit": false,
      "t": 156022.16540625173,
      "d": 392.8567500000354,
      "v": 55
    },
    {
      "midi": 57,
      "hit": false,
      "t": 156024.39754687675,
      "d": 553.5708750000631,
      "v": 48
    },
    {
      "midi": 58,
      "hit": false,
      "t": 156037.79039062676,
      "d": 243.30332812501,
      "v": 39
    },
    {
      "midi": 58,
      "hit": false,
      "t": 156365.91506250176,
      "d": 51.33923437501653,
      "v": 34
    },
    {
      "midi": 81,
      "hit": false,
      "t": 156464.12925000177,
      "d": 69.19635937499697,
      "v": 54
    },
    {
      "midi": 69,
      "hit": false,
      "t": 156464.12925000177,
      "d": 75.89278125000419,
      "v": 54
    },
    {
      "midi": 74,
      "hit": false,
      "t": 156468.59353125177,
      "d": 84.82134375002352,
      "v": 40
    },
    {
      "midi": 79,
      "hit": false,
      "t": 156560.1112968768,
      "d": 100.44632812502095,
      "v": 34
    },
    {
      "midi": 74,
      "hit": false,
      "t": 156736.45040625182,
      "d": 116.0713125000184,
      "v": 51
    },
    {
      "midi": 81,
      "hit": false,
      "t": 156736.45040625182,
      "d": 122.76773437502561,
      "v": 62
    },
    {
      "midi": 69,
      "hit": false,
      "t": 156743.14682812683,
      "d": 89.28562500001863,
      "v": 57
    },
    {
      "midi": 57,
      "hit": false,
      "t": 156745.37896875184,
      "d": 140.62485937500605,
      "v": 24
    },
    {
      "midi": 62,
      "hit": false,
      "t": 156749.84325000184,
      "d": 93.74990625001374,
      "v": 36
    },
    {
      "midi": 77,
      "hit": false,
      "t": 156752.07539062685,
      "d": 78.1249218749872,
      "v": 48
    },
    {
      "midi": 58,
      "hit": false,
      "t": 156752.07539062685,
      "d": 131.69629687498673,
      "v": 40
    },
    {
      "midi": 79,
      "hit": false,
      "t": 156899.39667187686,
      "d": 84.82134374999441,
      "v": 43
    },
    {
      "midi": 81,
      "hit": false,
      "t": 157042.25367187685,
      "d": 107.14274999999907,
      "v": 69
    },
    {
      "midi": 69,
      "hit": false,
      "t": 157053.41437500186,
      "d": 66.96421874998487,
      "v": 55
    },
    {
      "midi": 74,
      "hit": false,
      "t": 157057.87865625185,
      "d": 53.571374999999534,
      "v": 47
    },
    {
      "midi": 79,
      "hit": false,
      "t": 157194.03923437686,
      "d": 80.3570624999702,
      "v": 54
    },
    {
      "midi": 62,
      "hit": false,
      "t": 157225.28920312686,
      "d": 64.73207812497276,
      "v": 34
    },
    {
      "midi": 58,
      "hit": false,
      "t": 157234.21776562685,
      "d": 111.60703124999418,
      "v": 35
    },
    {
      "midi": 77,
      "hit": false,
      "t": 157238.68204687684,
      "d": 35.71424999998999,
      "v": 22
    },
    {
      "midi": 81,
      "hit": false,
      "t": 157330.19981250184,
      "d": 165.17840625002282,
      "v": 66
    },
    {
      "midi": 69,
      "hit": false,
      "t": 157350.28907812684,
      "d": 95.98204687502584,
      "v": 49
    },
    {
      "midi": 77,
      "hit": false,
      "t": 157533.32460937687,
      "d": 78.1249218749872,
      "v": 53
    },
    {
      "midi": 58,
      "hit": false,
      "t": 157682.87803125186,
      "d": 107.14274999996996,
      "v": 37
    },
    {
      "midi": 52,
      "hit": false,
      "t": 157691.80659375185,
      "d": 78.1249218749872,
      "v": 46
    },
    {
      "midi": 70,
      "hit": false,
      "t": 158127.07401562683,
      "d": 100.44632812499185,
      "v": 60
    },
    {
      "midi": 66,
      "hit": false,
      "t": 158127.07401562683,
      "d": 136.16057812498184,
      "v": 48
    },
    {
      "midi": 72,
      "hit": false,
      "t": 158272.1631562518,
      "d": 60.26779687500675,
      "v": 53
    },
    {
      "midi": 74,
      "hit": false,
      "t": 158412.7880156268,
      "d": 91.51776562500163,
      "v": 63
    },
    {
      "midi": 76,
      "hit": false,
      "t": 158560.10929687682,
      "d": 35.71424999998999,
      "v": 55
    },
    {
      "midi": 70,
      "hit": false,
      "t": 158700.7341562518,
      "d": 66.96421875001397,
      "v": 57
    },
    {
      "midi": 68,
      "hit": false,
      "t": 158716.3591406268,
      "d": 55.80351562501164,
      "v": 35
    },
    {
      "midi": 66,
      "hit": false,
      "t": 158723.0555625018,
      "d": 66.96421875001397,
      "v": 33
    },
    {
      "midi": 84,
      "hit": false,
      "t": 158856.98400000183,
      "d": 62.499937499989755,
      "v": 64
    },
    {
      "midi": 86,
      "hit": false,
      "t": 158999.84100000182,
      "d": 66.96421875001397,
      "v": 71
    },
    {
      "midi": 88,
      "hit": false,
      "t": 159140.46585937683,
      "d": 82.58920312501141,
      "v": 74
    },
    {
      "midi": 91,
      "hit": false,
      "t": 159283.32285937684,
      "d": 98.21418750000885,
      "v": 74
    },
    {
      "midi": 41,
      "hit": false,
      "t": 159390.46560937684,
      "d": 60.26779687500675,
      "v": 55
    },
    {
      "midi": 88,
      "hit": false,
      "t": 159430.64414062686,
      "d": 89.28562499998952,
      "v": 56
    },
    {
      "midi": 84,
      "hit": false,
      "t": 159571.26900000183,
      "d": 46.87495312499232,
      "v": 53
    },
    {
      "midi": 64,
      "hit": false,
      "t": 159702.96529687682,
      "d": 303.57112499998766,
      "v": 57
    },
    {
      "midi": 86,
      "hit": false,
      "t": 159705.19743750183,
      "d": 91.51776562500163,
      "v": 82
    },
    {
      "midi": 57,
      "hit": false,
      "t": 159720.82242187683,
      "d": 435.2674218750035,
      "v": 54
    },
    {
      "midi": 53,
      "hit": false,
      "t": 159729.75098437682,
      "d": 473.2138125000056,
      "v": 24
    },
    {
      "midi": 60,
      "hit": false,
      "t": 159743.14382812683,
      "d": 200.8926562499837,
      "v": 29
    },
    {
      "midi": 81,
      "hit": false,
      "t": 159854.75085937683,
      "d": 109.37489062498207,
      "v": 34
    },
    {
      "midi": 84,
      "hit": false,
      "t": 160008.76856250182,
      "d": 133.92843749999884,
      "v": 68
    },
    {
      "midi": 67,
      "hit": false,
      "t": 160573.50014062683,
      "d": 35.71425000001909,
      "v": 59
    },
    {
      "midi": 57,
      "hit": false,
      "t": 160580.19656250183,
      "d": 46.87495312502142,
      "v": 54
    },
    {
      "midi": 62,
      "hit": false,
      "t": 160582.42870312685,
      "d": 89.28562500001863,
      "v": 55
    },
    {
      "midi": 79,
      "hit": false,
      "t": 160727.51784375188,
      "d": 44.64281250000931,
      "v": 41
    },
    {
      "midi": 81,
      "hit": false,
      "t": 160877.07126562687,
      "d": 73.66064062499208,
      "v": 44
    },
    {
      "midi": 84,
      "hit": false,
      "t": 161008.76756250186,
      "d": 100.44632812499185,
      "v": 89
    },
    {
      "midi": 63,
      "hit": false,
      "t": 161144.92814062684,
      "d": 87.05348437503562,
      "v": 35
    },
    {
      "midi": 84,
      "hit": false,
      "t": 161158.32098437686,
      "d": 127.23201562502072,
      "v": 29
    },
    {
      "midi": 60,
      "hit": false,
      "t": 161165.01740625186,
      "d": 44.64281250000931,
      "v": 33
    },
    {
      "midi": 80,
      "hit": false,
      "t": 161167.24954687688,
      "d": 116.07131249998929,
      "v": 51
    },
    {
      "midi": 77,
      "hit": false,
      "t": 161312.33868750188,
      "d": 60.26779687500675,
      "v": 36
    },
    {
      "midi": 84,
      "hit": false,
      "t": 161437.3385625019,
      "d": 111.60703124999418,
      "v": 73
    },
    {
      "midi": 79,
      "hit": false,
      "t": 161444.0349843769,
      "d": 95.98204687499674,
      "v": 75
    },
    {
      "midi": 77,
      "hit": false,
      "t": 161586.89198437688,
      "d": 187.49981249999837,
      "v": 40
    },
    {
      "midi": 74,
      "hit": false,
      "t": 161747.60610937688,
      "d": 55.80351562501164,
      "v": 70
    },
    {
      "midi": 56,
      "hit": false,
      "t": 162031.0879687519,
      "d": 529.0173281250172,
      "v": 45
    },
    {
      "midi": 67,
      "hit": false,
      "t": 162031.0879687519,
      "d": 551.3387343750219,
      "v": 60
    },
    {
      "midi": 62,
      "hit": false,
      "t": 162044.48081250192,
      "d": 475.4459531249886,
      "v": 58
    },
    {
      "midi": 67,
      "hit": false,
      "t": 162736.44440625192,
      "d": 55.80351562501164,
      "v": 51
    },
    {
      "midi": 62,
      "hit": false,
      "t": 162736.44440625192,
      "d": 158.4819843750156,
      "v": 53
    },
    {
      "midi": 64,
      "hit": false,
      "t": 162747.60510937692,
      "d": 104.91060937501607,
      "v": 45
    },
    {
      "midi": 76,
      "hit": false,
      "t": 162885.99782812694,
      "d": 87.05348437497742,
      "v": 66
    },
    {
      "midi": 77,
      "hit": false,
      "t": 163024.3905468769,
      "d": 93.74990625001374,
      "v": 66
    },
    {
      "midi": 79,
      "hit": false,
      "t": 163165.0154062519,
      "d": 129.46415625000373,
      "v": 72
    },
    {
      "midi": 67,
      "hit": false,
      "t": 163178.40825000193,
      "d": 37.946390625002095,
      "v": 49
    },
    {
      "midi": 64,
      "hit": false,
      "t": 163198.49751562692,
      "d": 44.64281250000931,
      "v": 38
    },
    {
      "midi": 62,
      "hit": false,
      "t": 163198.49751562692,
      "d": 207.58907812502002,
      "v": 43
    },
    {
      "midi": 77,
      "hit": false,
      "t": 163209.65821875192,
      "d": 53.571374999999534,
      "v": 24
    },
    {
      "midi": 72,
      "hit": false,
      "t": 163307.87240625193,
      "d": 209.82121875000303,
      "v": 51
    },
    {
      "midi": 72,
      "hit": false,
      "t": 163593.58640625194,
      "d": 60.26779687500675,
      "v": 45
    },
    {
      "midi": 61,
      "hit": false,
      "t": 163709.65771875196,
      "d": 66.96421875001397,
      "v": 42
    },
    {
      "midi": 74,
      "hit": false,
      "t": 163738.67554687697,
      "d": 84.82134374999441,
      "v": 66
    },
    {
      "midi": 56,
      "hit": false,
      "t": 163745.37196875198,
      "d": 220.98192187500536,
      "v": 34
    },
    {
      "midi": 67,
      "hit": false,
      "t": 163760.99695312697,
      "d": 104.91060937498696,
      "v": 25
    },
    {
      "midi": 76,
      "hit": false,
      "t": 163894.92539062697,
      "d": 66.96421875001397,
      "v": 53
    },
    {
      "midi": 61,
      "hit": false,
      "t": 164464.12125000198,
      "d": 87.05348437500652,
      "v": 39
    },
    {
      "midi": 55,
      "hit": false,
      "t": 164490.90693750198,
      "d": 44.64281250000931,
      "v": 28
    },
    {
      "midi": 60,
      "hit": false,
      "t": 164874.835125002,
      "d": 270.0890156249807,
      "v": 73
    },
    {
      "midi": 61,
      "hit": false,
      "t": 164874.835125002,
      "d": 395.0888906249893,
      "v": 65
    },
    {
      "midi": 65,
      "hit": false,
      "t": 164883.76368750198,
      "d": 299.10684374999255,
      "v": 74
    },
    {
      "midi": 55,
      "hit": false,
      "t": 164888.22796875198,
      "d": 303.57112499998766,
      "v": 70
    },
    {
      "midi": 58,
      "hit": false,
      "t": 164908.31723437697,
      "d": 332.58895312499953,
      "v": 28
    },
    {
      "midi": 69,
      "hit": false,
      "t": 165042.24567187697,
      "d": 165.1784062499937,
      "v": 31
    },
    {
      "midi": 64,
      "hit": false,
      "t": 165310.102546877,
      "d": 301.33898437497555,
      "v": 76
    },
    {
      "midi": 54,
      "hit": false,
      "t": 165310.102546877,
      "d": 316.963968749973,
      "v": 71
    },
    {
      "midi": 60,
      "hit": false,
      "t": 165312.334687502,
      "d": 290.1782812499732,
      "v": 76
    },
    {
      "midi": 72,
      "hit": false,
      "t": 165316.798968752,
      "d": 417.41029687496484,
      "v": 68
    },
    {
      "midi": 54,
      "hit": false,
      "t": 165736.44140625198,
      "d": 93.74990625001374,
      "v": 60
    },
    {
      "midi": 64,
      "hit": false,
      "t": 165740.90568750197,
      "d": 33.482109375006985,
      "v": 62
    },
    {
      "midi": 60,
      "hit": false,
      "t": 165747.60210937698,
      "d": 49.107093750004424,
      "v": 62
    },
    {
      "midi": 74,
      "hit": false,
      "t": 165885.99482812698,
      "d": 102.67846875000396,
      "v": 68
    },
    {
      "midi": 50,
      "hit": false,
      "t": 166120.36959375197,
      "d": 154.01770312499139,
      "v": 44
    },
    {
      "midi": 75,
      "hit": false,
      "t": 166151.61956250196,
      "d": 75.89278125000419,
      "v": 62
    },
    {
      "midi": 75,
      "hit": false,
      "t": 166287.78014062697,
      "d": 136.16057812501094,
      "v": 46
    },
    {
      "midi": 66,
      "hit": false,
      "t": 166303.40512500197,
      "d": 140.62485937500605,
      "v": 46
    },
    {
      "midi": 55,
      "hit": false,
      "t": 166319.03010937697,
      "d": 40.1785312500142,
      "v": 38
    },
    {
      "midi": 67,
      "hit": false,
      "t": 166455.19068750198,
      "d": 80.3570624999993,
      "v": 55
    },
    {
      "midi": 76,
      "hit": false,
      "t": 166555.63701562697,
      "d": 80.3570624999993,
      "v": 42
    },
    {
      "midi": 67,
      "hit": false,
      "t": 166618.13695312696,
      "d": 95.98204687499674,
      "v": 46
    },
    {
      "midi": 76,
      "hit": false,
      "t": 166725.27970312696,
      "d": 87.05348437500652,
      "v": 35
    },
    {
      "midi": 67,
      "hit": false,
      "t": 166785.54750000197,
      "d": 118.3034531250014,
      "v": 44
    },
    {
      "midi": 55,
      "hit": false,
      "t": 166966.35089062696,
      "d": 520.088765625027,
      "v": 88
    },
    {
      "midi": 43,
      "hit": false,
      "t": 167397.15403125196,
      "d": 75.89278125000419,
      "v": 62
    },
    {
      "midi": 76,
      "hit": false,
      "t": 167839.117875002,
      "d": 93.74990625001374,
      "v": 87
    },
    {
      "midi": 67,
      "hit": false,
      "t": 167843.582156252,
      "d": 71.42850000000908,
      "v": 90
    },
    {
      "midi": 68,
      "hit": false,
      "t": 168077.95692187702,
      "d": 120.5355937500135,
      "v": 77
    },
    {
      "midi": 77,
      "hit": false,
      "t": 168077.95692187702,
      "d": 129.46415625000373,
      "v": 73
    },
    {
      "midi": 65,
      "hit": false,
      "t": 168082.421203127,
      "d": 69.19635937499697,
      "v": 62
    },
    {
      "midi": 55,
      "hit": false,
      "t": 168086.885484377,
      "d": 171.87482812503004,
      "v": 54
    },
    {
      "midi": 60,
      "hit": false,
      "t": 168109.206890627,
      "d": 44.64281250000931,
      "v": 33
    },
    {
      "midi": 56,
      "hit": false,
      "t": 168109.206890627,
      "d": 158.4819843750156,
      "v": 33
    },
    {
      "midi": 69,
      "hit": false,
      "t": 168209.65321875204,
      "d": 91.51776562500163,
      "v": 60
    },
    {
      "midi": 77,
      "hit": false,
      "t": 168312.33168750204,
      "d": 87.05348437500652,
      "v": 31
    },
    {
      "midi": 69,
      "hit": false,
      "t": 168372.59948437705,
      "d": 107.14274999999907,
      "v": 42
    },
    {
      "midi": 77,
      "hit": false,
      "t": 168493.13507812706,
      "d": 98.21418750000885,
      "v": 49
    },
    {
      "midi": 69,
      "hit": false,
      "t": 168580.18856250207,
      "d": 69.19635937502608,
      "v": 44
    },
    {
      "midi": 64,
      "hit": false,
      "t": 168760.9919531271,
      "d": 457.58882812503725,
      "v": 77
    },
    {
      "midi": 59,
      "hit": false,
      "t": 168763.2240937521,
      "d": 312.499687500007,
      "v": 71
    },
    {
      "midi": 53,
      "hit": false,
      "t": 168763.2240937521,
      "d": 488.83879687503213,
      "v": 72
    },
    {
      "midi": 59,
      "hit": false,
      "t": 169200.7236562521,
      "d": 60.26779687500675,
      "v": 36
    },
    {
      "midi": 60,
      "hit": false,
      "t": 169600.27682812713,
      "d": 71.42850000000908,
      "v": 60
    },
    {
      "midi": 64,
      "hit": false,
      "t": 169604.74110937712,
      "d": 29.017828125011874,
      "v": 49
    },
    {
      "midi": 77,
      "hit": false,
      "t": 169604.74110937712,
      "d": 107.14275000002817,
      "v": 77
    },
    {
      "midi": 55,
      "hit": false,
      "t": 169604.74110937712,
      "d": 120.53559375004261,
      "v": 62
    },
    {
      "midi": 69,
      "hit": false,
      "t": 169606.97325000213,
      "d": 62.499937499989755,
      "v": 87
    },
    {
      "midi": 65,
      "hit": false,
      "t": 169611.43753125213,
      "d": 26.785687499999767,
      "v": 34
    },
    {
      "midi": 71,
      "hit": false,
      "t": 169843.58015625217,
      "d": 75.8927812500333,
      "v": 81
    },
    {
      "midi": 79,
      "hit": false,
      "t": 169845.81229687718,
      "d": 129.46415625003283,
      "v": 76
    },
    {
      "midi": 55,
      "hit": false,
      "t": 169856.97300000218,
      "d": 622.767234375031,
      "v": 80
    },
    {
      "midi": 54,
      "hit": false,
      "t": 169863.6694218772,
      "d": 53.571374999999534,
      "v": 54
    },
    {
      "midi": 71,
      "hit": false,
      "t": 169997.59785937722,
      "d": 80.3570624999993,
      "v": 48
    },
    {
      "midi": 79,
      "hit": false,
      "t": 170075.7227812522,
      "d": 82.58920312501141,
      "v": 31
    },
    {
      "midi": 71,
      "hit": false,
      "t": 170140.4548593772,
      "d": 122.76773437499651,
      "v": 37
    },
    {
      "midi": 79,
      "hit": false,
      "t": 170267.6868750022,
      "d": 80.3570624999993,
      "v": 37
    },
    {
      "midi": 71,
      "hit": false,
      "t": 170345.81179687718,
      "d": 100.44632812502095,
      "v": 50
    },
    {
      "midi": 43,
      "hit": false,
      "t": 170408.3117343772,
      "d": 29.017828125011874,
      "v": 58
    },
    {
      "midi": 79,
      "hit": false,
      "t": 170448.49026562722,
      "d": 78.1249218750163,
      "v": 36
    },
    {
      "midi": 71,
      "hit": false,
      "t": 170519.91876562723,
      "d": 109.37489062501118,
      "v": 48
    },
    {
      "midi": 79,
      "hit": false,
      "t": 170629.29365625224,
      "d": 95.98204687499674,
      "v": 27
    },
    {
      "midi": 71,
      "hit": false,
      "t": 170731.97212500224,
      "d": 102.67846875000396,
      "v": 60
    },
    {
      "midi": 64,
      "hit": false,
      "t": 170796.70420312724,
      "d": 308.0354062500119,
      "v": 61
    },
    {
      "midi": 60,
      "hit": false,
      "t": 170805.63276562723,
      "d": 238.8390468750149,
      "v": 54
    },
    {
      "midi": 55,
      "hit": false,
      "t": 170807.86490625225,
      "d": 321.4282499999972,
      "v": 50
    },
    {
      "midi": 79,
      "hit": false,
      "t": 170852.50771875225,
      "d": 102.67846875000396,
      "v": 53
    },
    {
      "midi": 71,
      "hit": false,
      "t": 170932.86478125225,
      "d": 122.76773437499651,
      "v": 35
    },
    {
      "midi": 77,
      "hit": false,
      "t": 171258.75731250225,
      "d": 366.0710625000356,
      "v": 81
    },
    {
      "midi": 81,
      "hit": false,
      "t": 171263.22159375227,
      "d": 379.46390625002095,
      "v": 80
    },
    {
      "midi": 53,
      "hit": false,
      "t": 171263.22159375227,
      "d": 462.05310937503236,
      "v": 84
    },
    {
      "midi": 69,
      "hit": false,
      "t": 171265.45373437728,
      "d": 417.41029687502305,
      "v": 95
    },
    {
      "midi": 59,
      "hit": false,
      "t": 171265.45373437728,
      "d": 428.5710000000254,
      "v": 78
    },
    {
      "midi": 64,
      "hit": false,
      "t": 171267.6858750023,
      "d": 433.0352812500205,
      "v": 83
    },
    {
      "midi": 82,
      "hit": false,
      "t": 171834.6495937523,
      "d": 200.8926562500128,
      "v": 71
    },
    {
      "midi": 70,
      "hit": false,
      "t": 171839.1138750023,
      "d": 187.49981250002747,
      "v": 74
    },
    {
      "midi": 53,
      "hit": false,
      "t": 171843.5781562523,
      "d": 194.1962343750347,
      "v": 68
    },
    {
      "midi": 75,
      "hit": false,
      "t": 171845.81029687732,
      "d": 162.9462656250107,
      "v": 65
    },
    {
      "midi": 64,
      "hit": false,
      "t": 171848.04243750233,
      "d": 160.7141249999986,
      "v": 62
    },
    {
      "midi": 59,
      "hit": false,
      "t": 171850.27457812734,
      "d": 176.33910937499604,
      "v": 65
    },
    {
      "midi": 63,
      "hit": false,
      "t": 172276.61343750232,
      "d": 109.37489062504028,
      "v": 61
    },
    {
      "midi": 53,
      "hit": false,
      "t": 172283.30985937733,
      "d": 129.46415625003283,
      "v": 59
    },
    {
      "midi": 76,
      "hit": false,
      "t": 172287.77414062733,
      "d": 84.82134375002352,
      "v": 60
    },
    {
      "midi": 71,
      "hit": false,
      "t": 172290.00628125234,
      "d": 71.42850000000908,
      "v": 66
    },
    {
      "midi": 59,
      "hit": false,
      "t": 172290.00628125234,
      "d": 118.3034531250305,
      "v": 56
    },
    {
      "midi": 83,
      "hit": false,
      "t": 172292.23842187735,
      "d": 120.5355937500135,
      "v": 57
    },
    {
      "midi": 56,
      "hit": false,
      "t": 172303.39912500235,
      "d": 116.0713125000184,
      "v": 34
    },
    {
      "midi": 79,
      "hit": false,
      "t": 172314.55982812736,
      "d": 51.33923437498743,
      "v": 36
    },
    {
      "midi": 86,
      "hit": false,
      "t": 172598.04168750238,
      "d": 33.482109375006985,
      "v": 47
    },
    {
      "midi": 59,
      "hit": false,
      "t": 172620.36309375238,
      "d": 31.249968749994878,
      "v": 31
    },
    {
      "midi": 63,
      "hit": false,
      "t": 172720.80942187738,
      "d": 73.6606406250794,
      "v": 59
    },
    {
      "midi": 59,
      "hit": false,
      "t": 172723.0415625024,
      "d": 91.51776562505984,
      "v": 45
    },
    {
      "midi": 53,
      "hit": false,
      "t": 172723.0415625024,
      "d": 138.39271875005215,
      "v": 61
    },
    {
      "midi": 91,
      "hit": false,
      "t": 172736.4344062524,
      "d": 31.249968750053085,
      "v": 60
    },
    {
      "midi": 79,
      "hit": false,
      "t": 172738.66654687742,
      "d": 26.78568750002887,
      "v": 51
    },
    {
      "midi": 56,
      "hit": false,
      "t": 172752.05939062743,
      "d": 71.42850000000908,
      "v": 29
    },
    {
      "midi": 63,
      "hit": false,
      "t": 173017.68412500244,
      "d": 44.64281250003842,
      "v": 45
    },
    {
      "midi": 59,
      "hit": false,
      "t": 173019.91626562746,
      "d": 459.82096875007846,
      "v": 64
    },
    {
      "midi": 98,
      "hit": false,
      "t": 173022.14840625247,
      "d": 100.44632812505006,
      "v": 89
    },
    {
      "midi": 86,
      "hit": false,
      "t": 173024.38054687748,
      "d": 55.80351562501164,
      "v": 91
    },
    {
      "midi": 56,
      "hit": false,
      "t": 173033.30910937747,
      "d": 75.8927812500333,
      "v": 39
    },
    {
      "midi": 94,
      "hit": false,
      "t": 173048.93409375247,
      "d": 26.78568750002887,
      "v": 32
    },
    {
      "midi": 62,
      "hit": false,
      "t": 173191.79109375252,
      "d": 285.7140000000072,
      "v": 53
    },
    {
      "midi": 55,
      "hit": false,
      "t": 173194.02323437753,
      "d": 301.33898437500466,
      "v": 52
    },
    {
      "midi": 52,
      "hit": false,
      "t": 173202.95179687755,
      "d": 296.87470312498044,
      "v": 53
    },
    {
      "midi": 96,
      "hit": false,
      "t": 173234.20176562754,
      "d": 256.69617187499534,
      "v": 57
    },
    {
      "midi": 84,
      "hit": false,
      "t": 173249.82675000254,
      "d": 229.91048437499558,
      "v": 42
    },
    {
      "midi": 52,
      "hit": false,
      "t": 173591.34426562753,
      "d": 109.37489062501118,
      "v": 50
    },
    {
      "midi": 59,
      "hit": false,
      "t": 173602.50496875253,
      "d": 131.69629687501583,
      "v": 56
    },
    {
      "midi": 62,
      "hit": false,
      "t": 173602.50496875253,
      "d": 149.55342187502538,
      "v": 66
    },
    {
      "midi": 55,
      "hit": false,
      "t": 173606.96925000253,
      "d": 102.67846875000396,
      "v": 58
    },
    {
      "midi": 96,
      "hit": false,
      "t": 173606.96925000253,
      "d": 116.0713125000184,
      "v": 70
    },
    {
      "midi": 84,
      "hit": false,
      "t": 173620.36209375254,
      "d": 136.16057812501094,
      "v": 72
    },
    {
      "midi": 91,
      "hit": false,
      "t": 174028.84382812754,
      "d": 1196.4273750000284,
      "v": 81
    },
    {
      "midi": 79,
      "hit": false,
      "t": 174031.07596875256,
      "d": 1120.534593749995,
      "v": 81
    },
    {
      "midi": 86,
      "hit": false,
      "t": 174031.07596875256,
      "d": 1220.980921875016,
      "v": 89
    },
    {
      "midi": 62,
      "hit": false,
      "t": 174033.30810937757,
      "d": 368.3032031249895,
      "v": 73
    },
    {
      "midi": 63,
      "hit": false,
      "t": 174033.30810937757,
      "d": 388.3924687499821,
      "v": 60
    },
    {
      "midi": 67,
      "hit": false,
      "t": 174040.00453125258,
      "d": 350.44607812498,
      "v": 74
    },
    {
      "midi": 57,
      "hit": false,
      "t": 174040.00453125258,
      "d": 397.3210312499723,
      "v": 70
    },
    {
      "midi": 62,
      "hit": false,
      "t": 174843.57515625254,
      "d": 421.87457812504726,
      "v": 45
    },
    {
      "midi": 52,
      "hit": false,
      "t": 174856.96800000255,
      "d": 321.4282499999972,
      "v": 27
    },
    {
      "midi": 59,
      "hit": false,
      "t": 174861.43228125255,
      "d": 350.4460781250091,
      "v": 37
    },
    {
      "midi": 55,
      "hit": false,
      "t": 174863.66442187756,
      "d": 337.05323437499464,
      "v": 45
    },
    {
      "midi": 92,
      "hit": false,
      "t": 175705.1814375026,
      "d": 238.839046875044,
      "v": 86
    },
    {
      "midi": 65,
      "hit": false,
      "t": 175709.64571875258,
      "d": 252.23189062505844,
      "v": 82
    },
    {
      "midi": 55,
      "hit": false,
      "t": 175711.8778593776,
      "d": 261.16045312504866,
      "v": 80
    },
    {
      "midi": 58,
      "hit": false,
      "t": 175711.8778593776,
      "d": 285.7140000000363,
      "v": 64
    },
    {
      "midi": 61,
      "hit": false,
      "t": 175711.8778593776,
      "d": 308.035406250041,
      "v": 57
    },
    {
      "midi": 84,
      "hit": false,
      "t": 175714.1100000026,
      "d": 207.58907812502002,
      "v": 84
    },
    {
      "midi": 96,
      "hit": false,
      "t": 175714.1100000026,
      "d": 252.23189062502934,
      "v": 80
    },
    {
      "midi": 90,
      "hit": false,
      "t": 175716.34214062762,
      "d": 140.62485937500605,
      "v": 62
    },
    {
      "midi": 93,
      "hit": false,
      "t": 175928.39550000263,
      "d": 26.785687499999767,
      "v": 60
    },
    {
      "midi": 92,
      "hit": false,
      "t": 176149.37742187764,
      "d": 171.87482812503004,
      "v": 83
    },
    {
      "midi": 84,
      "hit": false,
      "t": 176156.07384375265,
      "d": 167.41054687503492,
      "v": 79
    },
    {
      "midi": 61,
      "hit": false,
      "t": 176156.07384375265,
      "d": 279.0175781250291,
      "v": 62
    },
    {
      "midi": 96,
      "hit": false,
      "t": 176158.30598437766,
      "d": 171.87482812503004,
      "v": 72
    },
    {
      "midi": 65,
      "hit": false,
      "t": 176158.30598437766,
      "d": 198.6605156250298,
      "v": 72
    },
    {
      "midi": 55,
      "hit": false,
      "t": 176160.53812500267,
      "d": 200.8926562500128,
      "v": 72
    },
    {
      "midi": 58,
      "hit": false,
      "t": 176165.00240625266,
      "d": 245.53546875002212,
      "v": 53
    },
    {
      "midi": 93,
      "hit": false,
      "t": 176258.75231250268,
      "d": 73.66064062502119,
      "v": 30
    },
    {
      "midi": 81,
      "hit": false,
      "t": 176466.34139062767,
      "d": 73.66064062505029,
      "v": 67
    },
    {
      "midi": 93,
      "hit": false,
      "t": 176477.50209375267,
      "d": 93.74990625004284,
      "v": 49
    },
    {
      "midi": 89,
      "hit": false,
      "t": 176484.19851562768,
      "d": 53.57137500002864,
      "v": 41
    },
    {
      "midi": 64,
      "hit": false,
      "t": 176495.35921875268,
      "d": 53.57137500002864,
      "v": 46
    },
    {
      "midi": 60,
      "hit": false,
      "t": 176497.5913593777,
      "d": 84.82134375002352,
      "v": 44
    },
    {
      "midi": 57,
      "hit": false,
      "t": 176497.5913593777,
      "d": 95.98204687502584,
      "v": 56
    },
    {
      "midi": 53,
      "hit": false,
      "t": 176504.2877812527,
      "d": 78.1249218750163,
      "v": 32
    },
    {
      "midi": 92,
      "hit": false,
      "t": 176714.10900000273,
      "d": 154.0177031250205,
      "v": 74
    },
    {
      "midi": 84,
      "hit": false,
      "t": 176723.03756250272,
      "d": 160.7141250000277,
      "v": 66
    },
    {
      "midi": 96,
      "hit": false,
      "t": 176725.26970312773,
      "d": 151.78556250000838,
      "v": 53
    },
    {
      "midi": 53,
      "hit": false,
      "t": 176731.96612500274,
      "d": 185.26767187498626,
      "v": 50
    },
    {
      "midi": 64,
      "hit": false,
      "t": 176734.19826562775,
      "d": 145.08914062500116,
      "v": 53
    },
    {
      "midi": 90,
      "hit": false,
      "t": 176736.43040625277,
      "d": 78.1249218749872,
      "v": 34
    },
    {
      "midi": 57,
      "hit": false,
      "t": 176736.43040625277,
      "d": 167.41054687497672,
      "v": 49
    },
    {
      "midi": 60,
      "hit": false,
      "t": 176736.43040625277,
      "d": 176.33910937496694,
      "v": 41
    },
    {
      "midi": 93,
      "hit": false,
      "t": 176863.66242187776,
      "d": 31.249968749994878,
      "v": 44
    },
    {
      "midi": 53,
      "hit": false,
      "t": 177022.14440625272,
      "d": 214.28550000005635,
      "v": 44
    },
    {
      "midi": 60,
      "hit": false,
      "t": 177026.6086875027,
      "d": 185.26767187507357,
      "v": 53
    },
    {
      "midi": 57,
      "hit": false,
      "t": 177028.84082812772,
      "d": 207.58907812504913,
      "v": 60
    },
    {
      "midi": 64,
      "hit": false,
      "t": 177031.07296875273,
      "d": 178.57125000003725,
      "v": 48
    },
    {
      "midi": 93,
      "hit": false,
      "t": 177064.55507812774,
      "d": 127.23201562502072,
      "v": 32
    },
    {
      "midi": 87,
      "hit": false,
      "t": 177075.71578125274,
      "d": 91.51776562503073,
      "v": 21
    },
    {
      "midi": 89,
      "hit": false,
      "t": 177089.10862500276,
      "d": 62.49993750001886,
      "v": 37
    },
    {
      "midi": 81,
      "hit": false,
      "t": 177095.80504687777,
      "d": 95.98204687499674,
      "v": 11
    },
    {
      "midi": 86,
      "hit": false,
      "t": 177336.87623437776,
      "d": 495.53521875003935,
      "v": 49
    },
    {
      "midi": 74,
      "hit": false,
      "t": 177341.34051562776,
      "d": 522.3209062500682,
      "v": 41
    },
    {
      "midi": 53,
      "hit": false,
      "t": 177348.03693750277,
      "d": 252.23189062502934,
      "v": 48
    },
    {
      "midi": 64,
      "hit": false,
      "t": 177363.66192187776,
      "d": 180.80339062502026,
      "v": 53
    },
    {
      "midi": 81,
      "hit": false,
      "t": 177370.35834375277,
      "d": 479.9102343750419,
      "v": 35
    },
    {
      "midi": 64,
      "hit": false,
      "t": 177731.96512500278,
      "d": 29.017828125011874,
      "v": 60
    },
    {
      "midi": 60,
      "hit": false,
      "t": 177740.89368750277,
      "d": 26.78568750002887,
      "v": 52
    },
    {
      "midi": 53,
      "hit": false,
      "t": 177745.35796875277,
      "d": 75.8927812500333,
      "v": 30
    },
    {
      "midi": 57,
      "hit": false,
      "t": 177747.59010937778,
      "d": 35.71425000001909,
      "v": 50
    },
    {
      "midi": 43,
      "hit": false,
      "t": 178133.75043750284,
      "d": 73.66064062499208,
      "v": 67
    },
    {
      "midi": 53,
      "hit": false,
      "t": 178267.67887500284,
      "d": 113.83917187503539,
      "v": 58
    },
    {
      "midi": 57,
      "hit": false,
      "t": 178283.30385937783,
      "d": 95.98204687502584,
      "v": 45
    },
    {
      "midi": 60,
      "hit": false,
      "t": 178290.00028125284,
      "d": 109.37489062501118,
      "v": 42
    },
    {
      "midi": 64,
      "hit": false,
      "t": 178303.39312500285,
      "d": 87.05348437500652,
      "v": 17
    },
    {
      "midi": 43,
      "hit": false,
      "t": 178577.94642187786,
      "d": 31.249968749994878,
      "v": 42
    },
    {
      "midi": 64,
      "hit": false,
      "t": 178993.12457812784,
      "d": 26.78568750002887,
      "v": 62
    },
    {
      "midi": 59,
      "hit": false,
      "t": 179006.51742187786,
      "d": 42.410671874997206,
      "v": 48
    },
    {
      "midi": 53,
      "hit": false,
      "t": 179008.74956250287,
      "d": 35.71424999998999,
      "v": 42
    },
    {
      "midi": 67,
      "hit": false,
      "t": 179104.73160937786,
      "d": 71.42850000000908,
      "v": 62
    },
    {
      "midi": 72,
      "hit": false,
      "t": 179426.15985937786,
      "d": 78.1249218750163,
      "v": 72
    },
    {
      "midi": 53,
      "hit": false,
      "t": 179439.55270312788,
      "d": 78.1249218750163,
      "v": 49
    },
    {
      "midi": 64,
      "hit": false,
      "t": 179446.24912500288,
      "d": 31.249968749994878,
      "v": 40
    },
    {
      "midi": 59,
      "hit": false,
      "t": 179446.24912500288,
      "d": 35.71424999998999,
      "v": 50
    },
    {
      "midi": 71,
      "hit": false,
      "t": 179598.0346875029,
      "d": 40.1785312500142,
      "v": 49
    },
    {
      "midi": 74,
      "hit": false,
      "t": 179872.5879843779,
      "d": 71.42850000000908,
      "v": 81
    },
    {
      "midi": 62,
      "hit": false,
      "t": 179888.2129687529,
      "d": 26.785687499999767,
      "v": 57
    },
    {
      "midi": 52,
      "hit": false,
      "t": 179897.14153125288,
      "d": 40.1785312500142,
      "v": 33
    },
    {
      "midi": 57,
      "hit": false,
      "t": 179908.3022343779,
      "d": 31.24996875002398,
      "v": 34
    },
    {
      "midi": 72,
      "hit": false,
      "t": 180044.4628125029,
      "d": 200.8926562500128,
      "v": 45
    },
    {
      "midi": 57,
      "hit": false,
      "t": 180316.78396875292,
      "d": 26.785687499999767,
      "v": 24
    },
    {
      "midi": 67,
      "hit": false,
      "t": 180417.2302968779,
      "d": 60.26779687500675,
      "v": 54
    },
    {
      "midi": 74,
      "hit": false,
      "t": 180723.0335625029,
      "d": 98.21418750000885,
      "v": 85
    },
    {
      "midi": 71,
      "hit": false,
      "t": 180888.21196875293,
      "d": 82.58920312501141,
      "v": 55
    },
    {
      "midi": 74,
      "hit": false,
      "t": 181135.97957812794,
      "d": 82.58920312501141,
      "v": 79
    },
    {
      "midi": 67,
      "hit": false,
      "t": 181180.62239062795,
      "d": 31.249968749994878,
      "v": 33
    },
    {
      "midi": 63,
      "hit": false,
      "t": 181180.62239062795,
      "d": 69.19635937499697,
      "v": 25
    },
    {
      "midi": 71,
      "hit": false,
      "t": 181343.56865625296,
      "d": 60.26779687500675,
      "v": 68
    },
    {
      "midi": 74,
      "hit": false,
      "t": 181403.83645312797,
      "d": 118.3034531250014,
      "v": 17
    },
    {
      "midi": 62,
      "hit": false,
      "t": 181633.74693750296,
      "d": 26.785687499999767,
      "v": 55
    },
    {
      "midi": 52,
      "hit": false,
      "t": 181638.21121875296,
      "d": 40.1785312500142,
      "v": 36
    },
    {
      "midi": 59,
      "hit": false,
      "t": 181638.21121875296,
      "d": 40.1785312500142,
      "v": 37
    },
    {
      "midi": 55,
      "hit": false,
      "t": 181640.44335937797,
      "d": 66.96421875001397,
      "v": 49
    },
    {
      "midi": 67,
      "hit": false,
      "t": 181740.889687503,
      "d": 120.5355937500135,
      "v": 54
    },
    {
      "midi": 74,
      "hit": false,
      "t": 182019.907265628,
      "d": 80.3570624999993,
      "v": 71
    },
    {
      "midi": 71,
      "hit": false,
      "t": 182200.71065625298,
      "d": 42.410671874997206,
      "v": 37
    },
    {
      "midi": 74,
      "hit": false,
      "t": 182441.78184375298,
      "d": 82.58920312501141,
      "v": 79
    },
    {
      "midi": 72,
      "hit": false,
      "t": 182609.19239062798,
      "d": 350.4460781250091,
      "v": 58
    },
    {
      "midi": 61,
      "hit": false,
      "t": 182877.04926562798,
      "d": 66.96421875001397,
      "v": 49
    },
    {
      "midi": 64,
      "hit": false,
      "t": 182885.97782812797,
      "d": 31.24996875002398,
      "v": 40
    },
    {
      "midi": 55,
      "hit": false,
      "t": 182899.370671878,
      "d": 44.64281250000931,
      "v": 33
    },
    {
      "midi": 69,
      "hit": false,
      "t": 182990.888437503,
      "d": 408.4817343750037,
      "v": 57
    },
    {
      "midi": 42,
      "hit": false,
      "t": 183417.227296878,
      "d": 26.785687499999767,
      "v": 49
    },
    {
      "midi": 53,
      "hit": false,
      "t": 183441.780843753,
      "d": 44.64281250000931,
      "v": 24
    },
    {
      "midi": 53,
      "hit": false,
      "t": 183863.655421878,
      "d": 455.35668749999604,
      "v": 62
    },
    {
      "midi": 63,
      "hit": false,
      "t": 183865.88756250302,
      "d": 524.553046874993,
      "v": 59
    },
    {
      "midi": 58,
      "hit": false,
      "t": 183874.816125003,
      "d": 531.2494687500002,
      "v": 54
    },
    {
      "midi": 72,
      "hit": false,
      "t": 184287.762140628,
      "d": 113.83917187500629,
      "v": 82
    },
    {
      "midi": 65,
      "hit": false,
      "t": 184557.85115625302,
      "d": 31.249968749994878,
      "v": 64
    },
    {
      "midi": 60,
      "hit": false,
      "t": 184571.24400000303,
      "d": 82.5892031249823,
      "v": 49
    },
    {
      "midi": 55,
      "hit": false,
      "t": 184580.17256250302,
      "d": 37.946390625002095,
      "v": 38
    },
    {
      "midi": 68,
      "hit": false,
      "t": 184691.77959375302,
      "d": 138.39271874999395,
      "v": 59
    },
    {
      "midi": 65,
      "hit": false,
      "t": 184990.886437503,
      "d": 24.553546875016764,
      "v": 60
    },
    {
      "midi": 72,
      "hit": false,
      "t": 184990.886437503,
      "d": 104.91060937501607,
      "v": 79
    },
    {
      "midi": 60,
      "hit": false,
      "t": 184997.58285937802,
      "d": 93.74990625001374,
      "v": 52
    },
    {
      "midi": 55,
      "hit": false,
      "t": 184997.58285937802,
      "d": 111.60703125002328,
      "v": 55
    },
    {
      "midi": 75,
      "hit": false,
      "t": 185171.68982812803,
      "d": 131.69629687498673,
      "v": 83
    },
    {
      "midi": 77,
      "hit": false,
      "t": 185421.68957812802,
      "d": 91.51776562503073,
      "v": 78
    },
    {
      "midi": 76,
      "hit": false,
      "t": 185430.618140628,
      "d": 24.553546875045868,
      "v": 58
    },
    {
      "midi": 64,
      "hit": false,
      "t": 185444.01098437802,
      "d": 468.7495312500396,
      "v": 59
    },
    {
      "midi": 53,
      "hit": false,
      "t": 185446.24312500303,
      "d": 589.285125000024,
      "v": 53
    },
    {
      "midi": 59,
      "hit": false,
      "t": 185452.93954687804,
      "d": 345.98179687501397,
      "v": 51
    },
    {
      "midi": 74,
      "hit": false,
      "t": 185611.42153125306,
      "d": 258.92831250000745,
      "v": 40
    },
    {
      "midi": 59,
      "hit": false,
      "t": 185848.02843750306,
      "d": 218.74978124999325,
      "v": 22
    },
    {
      "midi": 71,
      "hit": false,
      "t": 185988.65329687807,
      "d": 198.6605156250007,
      "v": 62
    },
    {
      "midi": 69,
      "hit": false,
      "t": 185997.58185937806,
      "d": 26.785687499999767,
      "v": 57
    },
    {
      "midi": 68,
      "hit": false,
      "t": 186272.13515625306,
      "d": 136.16057812501094,
      "v": 53
    },
    {
      "midi": 59,
      "hit": false,
      "t": 186294.45656250307,
      "d": 84.82134374999441,
      "v": 60
    },
    {
      "midi": 53,
      "hit": false,
      "t": 186298.92084375306,
      "d": 169.64268750001793,
      "v": 45
    },
    {
      "midi": 67,
      "hit": false,
      "t": 186446.24212500307,
      "d": 178.57125000000815,
      "v": 40
    },
    {
      "midi": 65,
      "hit": false,
      "t": 186709.63471875308,
      "d": 80.3570625000284,
      "v": 64
    },
    {
      "midi": 48,
      "hit": false,
      "t": 186754.2775312531,
      "d": 95.98204687502584,
      "v": 42
    },
    {
      "midi": 55,
      "hit": false,
      "t": 186760.9739531281,
      "d": 93.74990625001374,
      "v": 41
    },
    {
      "midi": 63,
      "hit": false,
      "t": 186877.0452656281,
      "d": 71.42850000000908,
      "v": 49
    },
    {
      "midi": 65,
      "hit": false,
      "t": 186968.5630312531,
      "d": 78.1249218749872,
      "v": 55
    },
    {
      "midi": 63,
      "hit": false,
      "t": 187042.2236718781,
      "d": 113.83917187497718,
      "v": 34
    },
    {
      "midi": 62,
      "hit": false,
      "t": 187151.5985625031,
      "d": 87.05348437497742,
      "v": 63
    },
    {
      "midi": 48,
      "hit": false,
      "t": 187207.40207812807,
      "d": 113.83917187500629,
      "v": 38
    },
    {
      "midi": 63,
      "hit": false,
      "t": 187278.83057812808,
      "d": 314.73182812499,
      "v": 64
    },
    {
      "midi": 59,
      "hit": false,
      "t": 187571.24100000306,
      "d": 520.088765625027,
      "v": 54
    },
    {
      "midi": 47,
      "hit": false,
      "t": 187705.16943750306,
      "d": 459.82096875002026,
      "v": 37
    },
    {
      "midi": 55,
      "hit": false,
      "t": 187718.56228125308,
      "d": 435.2674218750035,
      "v": 26
    },
    {
      "midi": 60,
      "hit": false,
      "t": 188129.2761562531,
      "d": 82.5892031249823,
      "v": 58
    },
    {
      "midi": 61,
      "hit": false,
      "t": 188247.57960937807,
      "d": 84.82134374999441,
      "v": 40
    },
    {
      "midi": 60,
      "hit": false,
      "t": 188305.61526562806,
      "d": 66.96421875001397,
      "v": 36
    },
    {
      "midi": 57,
      "hit": false,
      "t": 188392.66875000307,
      "d": 33.482109375006985,
      "v": 43
    },
    {
      "midi": 60,
      "hit": false,
      "t": 188490.88293750308,
      "d": 66.96421874998487,
      "v": 52
    },
    {
      "midi": 56,
      "hit": false,
      "t": 188510.97220312807,
      "d": 100.44632812502095,
      "v": 23
    },
    {
      "midi": 46,
      "hit": false,
      "t": 188515.43648437806,
      "d": 792.409921875078,
      "v": 31
    },
    {
      "midi": 57,
      "hit": false,
      "t": 188598.02568750308,
      "d": 40.1785312500142,
      "v": 40
    },
    {
      "midi": 58,
      "hit": false,
      "t": 188705.1684375031,
      "d": 53.571374999999534,
      "v": 29
    },
    {
      "midi": 60,
      "hit": false,
      "t": 188803.3826250031,
      "d": 55.80351562501164,
      "v": 41
    },
    {
      "midi": 61,
      "hit": false,
      "t": 188890.43610937812,
      "d": 91.51776562500163,
      "v": 45
    },
    {
      "midi": 56,
      "hit": false,
      "t": 188919.45393750313,
      "d": 258.92831250000745,
      "v": 29
    },
    {
      "midi": 63,
      "hit": false,
      "t": 188999.81100000313,
      "d": 29.017828125011874,
      "v": 34
    },
    {
      "midi": 65,
      "hit": false,
      "t": 189098.02518750314,
      "d": 55.80351562501164,
      "v": 41
    },
    {
      "midi": 67,
      "hit": false,
      "t": 189205.16793750314,
      "d": 37.946390625002095,
      "v": 45
    },
    {
      "midi": 68,
      "hit": false,
      "t": 189332.39995312813,
      "d": 60.26779687500675,
      "v": 51
    },
    {
      "midi": 70,
      "hit": false,
      "t": 189466.32839062813,
      "d": 29.017828125011874,
      "v": 44
    },
    {
      "midi": 72,
      "hit": false,
      "t": 189577.93542187815,
      "d": 42.410671874997206,
      "v": 47
    },
    {
      "midi": 73,
      "hit": false,
      "t": 189702.93529687816,
      "d": 62.499937499989755,
      "v": 51
    },
    {
      "midi": 55,
      "hit": false,
      "t": 189823.47089062814,
      "d": 29.017828125011874,
      "v": 45
    },
    {
      "midi": 45,
      "hit": false,
      "t": 189830.16731250315,
      "d": 44.64281250000931,
      "v": 39
    },
    {
      "midi": 75,
      "hit": false,
      "t": 189848.02443750316,
      "d": 62.499937499989755,
      "v": 56
    },
    {
      "midi": 76,
      "hit": false,
      "t": 189993.11357812816,
      "d": 37.946390625002095,
      "v": 44
    },
    {
      "midi": 77,
      "hit": false,
      "t": 190129.27415625317,
      "d": 64.73207812500186,
      "v": 68
    },
    {
      "midi": 78,
      "hit": false,
      "t": 190267.66687500317,
      "d": 71.42850000000908,
      "v": 64
    },
    {
      "midi": 44,
      "hit": false,
      "t": 190272.13115625316,
      "d": 78.1249218750163,
      "v": 46
    },
    {
      "midi": 79,
      "hit": false,
      "t": 190403.82745312818,
      "d": 89.28562499998952,
      "v": 66
    },
    {
      "midi": 75,
      "hit": false,
      "t": 191051.14823437817,
      "d": 214.28550000002724,
      "v": 81
    },
    {
      "midi": 63,
      "hit": false,
      "t": 191057.84465625318,
      "d": 35.71425000001909,
      "v": 36
    },
    {
      "midi": 60,
      "hit": false,
      "t": 191075.70178125318,
      "d": 37.946390625002095,
      "v": 44
    },
    {
      "midi": 76,
      "hit": false,
      "t": 191276.5944375032,
      "d": 82.58920312501141,
      "v": 51
    },
    {
      "midi": 77,
      "hit": false,
      "t": 191377.04076562822,
      "d": 78.1249218750163,
      "v": 44
    },
    {
      "midi": 78,
      "hit": false,
      "t": 191414.98715625322,
      "d": 71.42850000000908,
      "v": 50
    },
    {
      "midi": 79,
      "hit": false,
      "t": 191513.20134375323,
      "d": 104.91060937498696,
      "v": 66
    },
    {
      "midi": 78,
      "hit": false,
      "t": 191671.68332812822,
      "d": 89.28562499998952,
      "v": 42
    },
    {
      "midi": 77,
      "hit": false,
      "t": 191752.04039062822,
      "d": 66.96421875001397,
      "v": 52
    },
    {
      "midi": 76,
      "hit": false,
      "t": 191816.77246875322,
      "d": 78.1249218750163,
      "v": 58
    },
    {
      "midi": 75,
      "hit": false,
      "t": 191908.29023437825,
      "d": 82.58920312501141,
      "v": 67
    },
    {
      "midi": 64,
      "hit": false,
      "t": 192336.86123437827,
      "d": 33.48210937503609,
      "v": 51
    },
    {
      "midi": 59,
      "hit": false,
      "t": 192350.2540781283,
      "d": 42.41067187502631,
      "v": 48
    },
    {
      "midi": 53,
      "hit": false,
      "t": 192356.9505000033,
      "d": 109.37489062501118,
      "v": 33
    },
    {
      "midi": 71,
      "hit": false,
      "t": 192455.1646875033,
      "d": 102.67846875000396,
      "v": 67
    },
    {
      "midi": 72,
      "hit": false,
      "t": 192564.53957812832,
      "d": 75.89278125000419,
      "v": 47
    },
    {
      "midi": 73,
      "hit": false,
      "t": 192647.12878125333,
      "d": 44.64281250000931,
      "v": 29
    },
    {
      "midi": 74,
      "hit": false,
      "t": 192716.32514062832,
      "d": 100.44632812499185,
      "v": 55
    },
    {
      "midi": 73,
      "hit": false,
      "t": 192792.21792187833,
      "d": 100.44632812499185,
      "v": 27
    },
    {
      "midi": 72,
      "hit": false,
      "t": 192850.25357812832,
      "d": 60.26779687500675,
      "v": 45
    },
    {
      "midi": 71,
      "hit": false,
      "t": 192923.91421875334,
      "d": 64.73207812500186,
      "v": 47
    },
    {
      "midi": 70,
      "hit": false,
      "t": 193006.50342187835,
      "d": 26.785687499999767,
      "v": 31
    },
    {
      "midi": 69,
      "hit": false,
      "t": 193124.80687500336,
      "d": 55.80351562501164,
      "v": 20
    },
    {
      "midi": 68,
      "hit": false,
      "t": 193202.93179687837,
      "d": 44.64281250000931,
      "v": 39
    },
    {
      "midi": 67,
      "hit": false,
      "t": 193283.28885937837,
      "d": 87.05348437500652,
      "v": 45
    },
    {
      "midi": 53,
      "hit": false,
      "t": 193296.6817031284,
      "d": 33.482109375006985,
      "v": 27
    },
    {
      "midi": 43,
      "hit": false,
      "t": 193314.5388281284,
      "d": 40.1785312499851,
      "v": 17
    },
    {
      "midi": 65,
      "hit": false,
      "t": 193417.21729687837,
      "d": 75.89278125000419,
      "v": 66
    },
    {
      "midi": 62,
      "hit": false,
      "t": 193685.07417187837,
      "d": 26.785687499999767,
      "v": 53
    },
    {
      "midi": 65,
      "hit": false,
      "t": 193760.96695312837,
      "d": 107.14274999999907,
      "v": 70
    },
    {
      "midi": 63,
      "hit": false,
      "t": 193973.02031250336,
      "d": 127.23201562502072,
      "v": 60
    },
    {
      "midi": 57,
      "hit": false,
      "t": 194082.39520312837,
      "d": 46.87495312502142,
      "v": 49
    },
    {
      "midi": 57,
      "hit": false,
      "t": 194196.2343750034,
      "d": 98.21418750000885,
      "v": 37
    },
    {
      "midi": 55,
      "hit": false,
      "t": 194426.1448593784,
      "d": 51.33923437498743,
      "v": 55
    },
    {
      "midi": 46,
      "hit": false,
      "t": 194843.5551562534,
      "d": 102.67846875000396,
      "v": 38
    },
    {
      "midi": 55,
      "hit": false,
      "t": 195002.0371406284,
      "d": 33.482109375006985,
      "v": 32
    },
    {
      "midi": 60,
      "hit": false,
      "t": 195122.57273437842,
      "d": 58.035656249994645,
      "v": 55
    },
    {
      "midi": 46,
      "hit": false,
      "t": 195265.4297343784,
      "d": 113.83917187500629,
      "v": 42
    },
    {
      "midi": 62,
      "hit": false,
      "t": 195281.0547187534,
      "d": 87.05348437500652,
      "v": 89
    },
    {
      "midi": 63,
      "hit": false,
      "t": 195435.07242187843,
      "d": 84.82134374999441,
      "v": 64
    },
    {
      "midi": 45,
      "hit": false,
      "t": 195455.16168750342,
      "d": 187.49981250002747,
      "v": 33
    },
    {
      "midi": 62,
      "hit": false,
      "t": 195602.48296875344,
      "d": 53.57137500002864,
      "v": 43
    },
    {
      "midi": 63,
      "hit": false,
      "t": 195716.32214062847,
      "d": 100.44632812502095,
      "v": 74
    },
    {
      "midi": 45,
      "hit": false,
      "t": 195754.26853125347,
      "d": 102.67846875003306,
      "v": 38
    },
    {
      "midi": 55,
      "hit": false,
      "t": 195756.5006718785,
      "d": 42.410671874997206,
      "v": 38
    },
    {
      "midi": 62,
      "hit": false,
      "t": 195881.5005468785,
      "d": 95.98204687499674,
      "v": 67
    },
    {
      "midi": 60,
      "hit": false,
      "t": 196015.4289843785,
      "d": 64.73207812500186,
      "v": 60
    },
    {
      "midi": 55,
      "hit": false,
      "t": 196142.66100000349,
      "d": 383.92818749998696,
      "v": 65
    },
    {
      "midi": 45,
      "hit": false,
      "t": 196249.80375000348,
      "d": 444.1959843749937,
      "v": 48
    },
    {
      "midi": 55,
      "hit": false,
      "t": 196562.30343750346,
      "d": 171.87482812503004,
      "v": 32
    },
    {
      "midi": 74,
      "hit": false,
      "t": 197158.2849843785,
      "d": 35.714250000048196,
      "v": 78
    },
    {
      "midi": 82,
      "hit": false,
      "t": 197158.2849843785,
      "d": 49.10709375006263,
      "v": 62
    },
    {
      "midi": 86,
      "hit": false,
      "t": 197160.5171250035,
      "d": 35.714250000048196,
      "v": 78
    },
    {
      "midi": 54,
      "hit": false,
      "t": 197160.5171250035,
      "d": 232.142625000095,
      "v": 61
    },
    {
      "midi": 65,
      "hit": false,
      "t": 197164.98140625353,
      "d": 44.64281250003842,
      "v": 71
    },
    {
      "midi": 58,
      "hit": false,
      "t": 197164.98140625353,
      "d": 1026.7846875002724,
      "v": 40
    },
    {
      "midi": 60,
      "hit": false,
      "t": 197180.60639062853,
      "d": 26.78568750002887,
      "v": 48
    },
    {
      "midi": 65,
      "hit": false,
      "t": 197269.89201562857,
      "d": 89.28562500001863,
      "v": 57
    },
    {
      "midi": 86,
      "hit": false,
      "t": 197272.1241562536,
      "d": 84.82134374999441,
      "v": 69
    },
    {
      "midi": 82,
      "hit": false,
      "t": 197272.1241562536,
      "d": 91.51776562500163,
      "v": 48
    },
    {
      "midi": 74,
      "hit": false,
      "t": 197276.58843750358,
      "d": 75.89278125000419,
      "v": 55
    },
    {
      "midi": 60,
      "hit": false,
      "t": 197283.2848593786,
      "d": 82.58920312501141,
      "v": 46
    },
    {
      "midi": 65,
      "hit": false,
      "t": 197428.3740000036,
      "d": 60.267796875035856,
      "v": 55
    },
    {
      "midi": 84,
      "hit": false,
      "t": 197430.6061406286,
      "d": 62.49993750001886,
      "v": 60
    },
    {
      "midi": 54,
      "hit": false,
      "t": 197430.6061406286,
      "d": 75.8927812500333,
      "v": 29
    },
    {
      "midi": 72,
      "hit": false,
      "t": 197435.0704218786,
      "d": 46.87495312502142,
      "v": 51
    },
    {
      "midi": 60,
      "hit": false,
      "t": 197441.7668437536,
      "d": 40.1785312500142,
      "v": 49
    },
    {
      "midi": 65,
      "hit": false,
      "t": 197562.30243750365,
      "d": 82.58920312504051,
      "v": 66
    },
    {
      "midi": 74,
      "hit": false,
      "t": 197564.53457812866,
      "d": 75.8927812500333,
      "v": 74
    },
    {
      "midi": 54,
      "hit": false,
      "t": 197564.53457812866,
      "d": 236.6069062500901,
      "v": 60
    },
    {
      "midi": 82,
      "hit": false,
      "t": 197566.76671875367,
      "d": 82.58920312501141,
      "v": 59
    },
    {
      "midi": 86,
      "hit": false,
      "t": 197566.76671875367,
      "d": 91.51776562500163,
      "v": 77
    },
    {
      "midi": 60,
      "hit": false,
      "t": 197573.46314062868,
      "d": 91.51776562500163,
      "v": 60
    },
    {
      "midi": 86,
      "hit": false,
      "t": 197707.39157812868,
      "d": 60.267796875035856,
      "v": 62
    },
    {
      "midi": 74,
      "hit": false,
      "t": 197714.08800000369,
      "d": 55.803515625040745,
      "v": 49
    },
    {
      "midi": 65,
      "hit": false,
      "t": 197714.08800000369,
      "d": 62.49993750004796,
      "v": 61
    },
    {
      "midi": 82,
      "hit": false,
      "t": 197716.3201406287,
      "d": 82.58920312504051,
      "v": 45
    },
    {
      "midi": 60,
      "hit": false,
      "t": 197731.9451250037,
      "d": 53.57137500002864,
      "v": 48
    },
    {
      "midi": 82,
      "hit": false,
      "t": 197859.17714062874,
      "d": 69.19635937499697,
      "v": 37
    },
    {
      "midi": 54,
      "hit": false,
      "t": 197859.17714062874,
      "d": 82.58920312501141,
      "v": 45
    },
    {
      "midi": 72,
      "hit": false,
      "t": 197865.87356250375,
      "d": 33.482109375006985,
      "v": 34
    },
    {
      "midi": 65,
      "hit": false,
      "t": 197865.87356250375,
      "d": 49.107093750004424,
      "v": 57
    },
    {
      "midi": 60,
      "hit": false,
      "t": 197877.03426562875,
      "d": 46.87495312499232,
      "v": 45
    },
    {
      "midi": 84,
      "hit": false,
      "t": 197879.26640625377,
      "d": 26.785687499999767,
      "v": 29
    },
    {
      "midi": 65,
      "hit": false,
      "t": 197999.80200000375,
      "d": 169.64268750004703,
      "v": 63
    },
    {
      "midi": 82,
      "hit": false,
      "t": 198002.03414062876,
      "d": 154.0177031250205,
      "v": 55
    },
    {
      "midi": 54,
      "hit": false,
      "t": 198002.03414062876,
      "d": 189.73195312503958,
      "v": 42
    },
    {
      "midi": 74,
      "hit": false,
      "t": 198006.49842187876,
      "d": 120.5355937500135,
      "v": 70
    },
    {
      "midi": 86,
      "hit": false,
      "t": 198008.73056250377,
      "d": 113.83917187500629,
      "v": 75
    },
    {
      "midi": 60,
      "hit": false,
      "t": 198015.42698437878,
      "d": 151.78556250000838,
      "v": 54
    },
    {
      "midi": 82,
      "hit": false,
      "t": 198296.6767031288,
      "d": 410.71387500007404,
      "v": 68
    },
    {
      "midi": 86,
      "hit": false,
      "t": 198298.9088437538,
      "d": 51.33923437501653,
      "v": 75
    },
    {
      "midi": 74,
      "hit": false,
      "t": 198298.9088437538,
      "d": 58.03565625002375,
      "v": 70
    },
    {
      "midi": 54,
      "hit": false,
      "t": 198298.9088437538,
      "d": 339.28537500003586,
      "v": 46
    },
    {
      "midi": 65,
      "hit": false,
      "t": 198305.6052656288,
      "d": 44.64281250000931,
      "v": 54
    },
    {
      "midi": 58,
      "hit": false,
      "t": 198305.6052656288,
      "d": 379.46390625005006,
      "v": 46
    },
    {
      "midi": 60,
      "hit": false,
      "t": 198310.0695468788,
      "d": 82.58920312501141,
      "v": 54
    },
    {
      "midi": 65,
      "hit": false,
      "t": 198441.76584375382,
      "d": 223.21406250001746,
      "v": 57
    },
    {
      "midi": 84,
      "hit": false,
      "t": 198448.46226562883,
      "d": 229.91048437502468,
      "v": 45
    },
    {
      "midi": 60,
      "hit": false,
      "t": 198455.15868750383,
      "d": 234.3747656250198,
      "v": 42
    },
    {
      "midi": 72,
      "hit": false,
      "t": 198466.31939062884,
      "d": 205.35693750000792,
      "v": 36
    },
    {
      "midi": 54,
      "hit": false,
      "t": 198738.64054687886,
      "d": 84.82134374999441,
      "v": 47
    },
    {
      "midi": 58,
      "hit": false,
      "t": 198772.12265625386,
      "d": 53.571374999999534,
      "v": 19
    },
    {
      "midi": 75,
      "hit": false,
      "t": 198872.56898437886,
      "d": 60.26779687500675,
      "v": 59
    },
    {
      "midi": 87,
      "hit": false,
      "t": 198879.26540625386,
      "d": 53.571374999999534,
      "v": 50
    },
    {
      "midi": 64,
      "hit": false,
      "t": 198883.72968750386,
      "d": 64.73207812500186,
      "v": 57
    },
    {
      "midi": 59,
      "hit": false,
      "t": 198888.19396875385,
      "d": 78.1249218750163,
      "v": 55
    },
    {
      "midi": 53,
      "hit": false,
      "t": 198894.89039062886,
      "d": 84.82134375002352,
      "v": 52
    },
    {
      "midi": 87,
      "hit": false,
      "t": 199022.12240625388,
      "d": 75.8927812500333,
      "v": 73
    },
    {
      "midi": 75,
      "hit": false,
      "t": 199024.3545468789,
      "d": 78.1249218750163,
      "v": 51
    },
    {
      "midi": 53,
      "hit": false,
      "t": 199031.0509687539,
      "d": 236.6069062500319,
      "v": 42
    },
    {
      "midi": 64,
      "hit": false,
      "t": 199039.9795312539,
      "d": 64.73207812503097,
      "v": 44
    },
    {
      "midi": 59,
      "hit": false,
      "t": 199042.2116718789,
      "d": 209.82121875003213,
      "v": 47
    },
    {
      "midi": 73,
      "hit": false,
      "t": 199158.28298437892,
      "d": 80.3570624999993,
      "v": 40
    },
    {
      "midi": 85,
      "hit": false,
      "t": 199162.74726562892,
      "d": 69.19635937499697,
      "v": 50
    },
    {
      "midi": 64,
      "hit": false,
      "t": 199169.44368750392,
      "d": 58.035656249994645,
      "v": 57
    },
    {
      "midi": 80,
      "hit": false,
      "t": 199176.14010937893,
      "d": 69.19635937499697,
      "v": 47
    },
    {
      "midi": 53,
      "hit": false,
      "t": 199301.13998437894,
      "d": 191.96409374999348,
      "v": 39
    },
    {
      "midi": 75,
      "hit": false,
      "t": 199303.37212500395,
      "d": 180.80339062499115,
      "v": 57
    },
    {
      "midi": 87,
      "hit": false,
      "t": 199305.60426562896,
      "d": 183.03553124997416,
      "v": 73
    },
    {
      "midi": 59,
      "hit": false,
      "t": 199307.83640625398,
      "d": 180.80339062496205,
      "v": 58
    },
    {
      "midi": 64,
      "hit": false,
      "t": 199312.30068750397,
      "d": 176.33910937496694,
      "v": 62
    },
    {
      "midi": 82,
      "hit": false,
      "t": 199336.85423437896,
      "d": 26.785687499999767,
      "v": 31
    },
    {
      "midi": 87,
      "hit": false,
      "t": 199584.62184375394,
      "d": 82.58920312501141,
      "v": 72
    },
    {
      "midi": 75,
      "hit": false,
      "t": 199591.31826562894,
      "d": 64.73207812500186,
      "v": 67
    },
    {
      "midi": 53,
      "hit": false,
      "t": 199595.78254687894,
      "d": 303.57112499998766,
      "v": 56
    },
    {
      "midi": 64,
      "hit": false,
      "t": 199598.01468750395,
      "d": 66.96421874998487,
      "v": 58
    },
    {
      "midi": 59,
      "hit": false,
      "t": 199598.01468750395,
      "d": 95.98204687499674,
      "v": 57
    },
    {
      "midi": 82,
      "hit": false,
      "t": 199604.71110937896,
      "d": 82.5892031249823,
      "v": 47
    },
    {
      "midi": 85,
      "hit": false,
      "t": 199745.33596875393,
      "d": 104.91060937498696,
      "v": 37
    },
    {
      "midi": 59,
      "hit": false,
      "t": 199754.26453125392,
      "d": 180.80339062499115,
      "v": 26
    },
    {
      "midi": 64,
      "hit": false,
      "t": 199758.72881250392,
      "d": 136.16057812501094,
      "v": 49
    },
    {
      "midi": 73,
      "hit": false,
      "t": 199769.88951562892,
      "d": 78.1249218749872,
      "v": 32
    },
    {
      "midi": 87,
      "hit": false,
      "t": 200010.96070312892,
      "d": 102.67846874997485,
      "v": 70
    },
    {
      "midi": 59,
      "hit": false,
      "t": 200015.42498437891,
      "d": 78.1249218749872,
      "v": 65
    },
    {
      "midi": 75,
      "hit": false,
      "t": 200015.42498437891,
      "d": 87.05348437497742,
      "v": 69
    },
    {
      "midi": 53,
      "hit": false,
      "t": 200015.42498437891,
      "d": 98.21418749997974,
      "v": 71
    },
    {
      "midi": 64,
      "hit": false,
      "t": 200022.12140625392,
      "d": 35.71424999998999,
      "v": 64
    },
    {
      "midi": 59,
      "hit": false,
      "t": 200182.8355312539,
      "d": 66.96421875001397,
      "v": 54
    },
    {
      "midi": 88,
      "hit": false,
      "t": 200198.4605156289,
      "d": 71.42850000000908,
      "v": 64
    },
    {
      "midi": 76,
      "hit": false,
      "t": 200200.6926562539,
      "d": 31.249968749994878,
      "v": 61
    },
    {
      "midi": 53,
      "hit": false,
      "t": 200457.3888281289,
      "d": 73.66064062505029,
      "v": 66
    },
    {
      "midi": 63,
      "hit": false,
      "t": 200459.6209687539,
      "d": 62.49993750004796,
      "v": 73
    },
    {
      "midi": 59,
      "hit": false,
      "t": 200466.31739062892,
      "d": 109.37489062504028,
      "v": 71
    },
    {
      "midi": 98,
      "hit": false,
      "t": 200470.7816718789,
      "d": 82.58920312504051,
      "v": 77
    },
    {
      "midi": 96,
      "hit": false,
      "t": 200475.2459531289,
      "d": 66.96421875004307,
      "v": 74
    },
    {
      "midi": 84,
      "hit": false,
      "t": 200477.47809375392,
      "d": 29.017828125040978,
      "v": 64
    },
    {
      "midi": 86,
      "hit": false,
      "t": 200479.71023437893,
      "d": 24.553546875016764,
      "v": 74
    },
    {
      "midi": 56,
      "hit": false,
      "t": 200481.94237500394,
      "d": 104.91060937501607,
      "v": 37
    },
    {
      "midi": 92,
      "hit": false,
      "t": 200490.87093750393,
      "d": 24.553546875016764,
      "v": 33
    },
    {
      "midi": 62,
      "hit": false,
      "t": 200653.81720312894,
      "d": 267.8568749999977,
      "v": 61
    },
    {
      "midi": 52,
      "hit": false,
      "t": 200658.28148437894,
      "d": 462.05310937497416,
      "v": 49
    },
    {
      "midi": 59,
      "hit": false,
      "t": 200662.74576562893,
      "d": 270.0890156250098,
      "v": 32
    },
    {
      "midi": 55,
      "hit": false,
      "t": 200667.21004687893,
      "d": 316.9639687500021,
      "v": 60
    },
    {
      "midi": 95,
      "hit": false,
      "t": 200691.76359375392,
      "d": 229.91048437502468,
      "v": 53
    },
    {
      "midi": 83,
      "hit": false,
      "t": 200693.99573437893,
      "d": 254.46403125001234,
      "v": 62
    },
    {
      "midi": 93,
      "hit": false,
      "t": 200700.69215625394,
      "d": 26.785687499999767,
      "v": 53
    },
    {
      "midi": 92,
      "hit": false,
      "t": 200702.92429687895,
      "d": 26.785687499999767,
      "v": 42
    },
    {
      "midi": 91,
      "hit": false,
      "t": 201035.51325000392,
      "d": 147.32128124998417,
      "v": 60
    },
    {
      "midi": 55,
      "hit": false,
      "t": 201042.20967187893,
      "d": 93.74990624998463,
      "v": 28
    },
    {
      "midi": 59,
      "hit": false,
      "t": 201046.67395312892,
      "d": 109.37489062498207,
      "v": 52
    },
    {
      "midi": 62,
      "hit": false,
      "t": 201046.67395312892,
      "d": 138.39271874999395,
      "v": 63
    },
    {
      "midi": 79,
      "hit": false,
      "t": 201046.67395312892,
      "d": 243.3033281249809,
      "v": 51
    },
    {
      "midi": 62,
      "hit": false,
      "t": 201452.9235468789,
      "d": 270.0890156249807,
      "v": 51
    },
    {
      "midi": 67,
      "hit": false,
      "t": 201457.3878281289,
      "d": 245.53546874999302,
      "v": 57
    },
    {
      "midi": 86,
      "hit": false,
      "t": 201461.8521093789,
      "d": 107.14274999999907,
      "v": 64
    },
    {
      "midi": 57,
      "hit": false,
      "t": 201461.8521093789,
      "d": 256.69617187499534,
      "v": 54
    },
    {
      "midi": 63,
      "hit": false,
      "t": 201461.8521093789,
      "d": 279.017578125,
      "v": 42
    },
    {
      "midi": 89,
      "hit": false,
      "t": 201464.0842500039,
      "d": 116.07131249998929,
      "v": 60
    },
    {
      "midi": 77,
      "hit": false,
      "t": 201464.0842500039,
      "d": 171.87482812497183,
      "v": 49
    },
    {
      "midi": 86,
      "hit": false,
      "t": 201859.1731406289,
      "d": 214.28549999996903,
      "v": 62
    },
    {
      "midi": 63,
      "hit": false,
      "t": 201863.6374218789,
      "d": 78.1249218749872,
      "v": 29
    },
    {
      "midi": 67,
      "hit": false,
      "t": 201868.1017031289,
      "d": 42.410671874997206,
      "v": 39
    },
    {
      "midi": 57,
      "hit": false,
      "t": 201874.7981250039,
      "d": 89.28562499998952,
      "v": 34
    },
    {
      "midi": 74,
      "hit": false,
      "t": 201874.7981250039,
      "d": 169.64268749998882,
      "v": 41
    },
    {
      "midi": 79,
      "hit": false,
      "t": 201874.7981250039,
      "d": 200.8926562499837,
      "v": 40
    },
    {
      "midi": 83,
      "hit": false,
      "t": 201885.9588281289,
      "d": 183.03553124997416,
      "v": 36
    },
    {
      "midi": 88,
      "hit": false,
      "t": 202285.5120000039,
      "d": 91.51776562503073,
      "v": 58
    },
    {
      "midi": 52,
      "hit": false,
      "t": 202296.6727031289,
      "d": 558.0351562500582,
      "v": 38
    },
    {
      "midi": 76,
      "hit": false,
      "t": 202301.13698437889,
      "d": 102.67846875003306,
      "v": 36
    },
    {
      "midi": 59,
      "hit": false,
      "t": 202303.3691250039,
      "d": 104.91060937501607,
      "v": 33
    },
    {
      "midi": 55,
      "hit": false,
      "t": 202305.6012656289,
      "d": 122.76773437499651,
      "v": 55
    },
    {
      "midi": 62,
      "hit": false,
      "t": 202307.83340625392,
      "d": 169.64268749998882,
      "v": 35
    },
    {
      "midi": 84,
      "hit": false,
      "t": 202736.40440625392,
      "d": 165.17840625005192,
      "v": 43
    },
    {
      "midi": 55,
      "hit": false,
      "t": 202738.63654687893,
      "d": 124.99987500000861,
      "v": 36
    },
    {
      "midi": 62,
      "hit": false,
      "t": 202745.33296875394,
      "d": 142.85700000001816,
      "v": 34
    },
    {
      "midi": 59,
      "hit": false,
      "t": 202752.02939062894,
      "d": 113.83917187500629,
      "v": 35
    },
    {
      "midi": 72,
      "hit": false,
      "t": 202756.49367187894,
      "d": 95.98204687499674,
      "v": 24
    },
    {
      "midi": 79,
      "hit": false,
      "t": 202769.88651562895,
      "d": 104.91060937498696,
      "v": 24
    },
    {
      "midi": 85,
      "hit": false,
      "t": 203158.27898437897,
      "d": 158.4819843750447,
      "v": 88
    },
    {
      "midi": 91,
      "hit": false,
      "t": 203160.51112500398,
      "d": 484.3745156250661,
      "v": 76
    },
    {
      "midi": 55,
      "hit": false,
      "t": 203164.975406254,
      "d": 580.3565625000629,
      "v": 82
    },
    {
      "midi": 58,
      "hit": false,
      "t": 203164.975406254,
      "d": 587.0529843750701,
      "v": 77
    },
    {
      "midi": 61,
      "hit": false,
      "t": 203164.975406254,
      "d": 589.2851250000822,
      "v": 80
    },
    {
      "midi": 79,
      "hit": false,
      "t": 203167.207546879,
      "d": 475.4459531250177,
      "v": 81
    },
    {
      "midi": 89,
      "hit": false,
      "t": 203171.671828129,
      "d": 493.30307812505635,
      "v": 72
    },
    {
      "midi": 65,
      "hit": false,
      "t": 203173.90396875402,
      "d": 537.9458906250366,
      "v": 81
    },
    {
      "midi": 86,
      "hit": false,
      "t": 203330.15381250402,
      "d": 332.58895312502864,
      "v": 56
    },
    {
      "midi": 61,
      "hit": false,
      "t": 203868.0997031291,
      "d": 127.23201562502072,
      "v": 33
    },
    {
      "midi": 78,
      "hit": false,
      "t": 203879.2604062541,
      "d": 82.58920312501141,
      "v": 60
    },
    {
      "midi": 90,
      "hit": false,
      "t": 203879.2604062541,
      "d": 109.37489062501118,
      "v": 56
    },
    {
      "midi": 58,
      "hit": false,
      "t": 203885.9568281291,
      "d": 100.44632812499185,
      "v": 35
    },
    {
      "midi": 55,
      "hit": false,
      "t": 203888.1889687541,
      "d": 33.48210937497788,
      "v": 32
    },
    {
      "midi": 85,
      "hit": false,
      "t": 203897.1175312541,
      "d": 26.785687499999767,
      "v": 42
    },
    {
      "midi": 91,
      "hit": false,
      "t": 204048.9030937541,
      "d": 334.82109375001164,
      "v": 62
    },
    {
      "midi": 60,
      "hit": false,
      "t": 204051.13523437912,
      "d": 473.2138125000056,
      "v": 47
    },
    {
      "midi": 79,
      "hit": false,
      "t": 204057.83165625413,
      "d": 374.99962499999674,
      "v": 48
    },
    {
      "midi": 53,
      "hit": false,
      "t": 204062.29593750412,
      "d": 497.76735937499325,
      "v": 41
    },
    {
      "midi": 64,
      "hit": false,
      "t": 204066.76021875412,
      "d": 388.3924687500112,
      "v": 39
    },
    {
      "midi": 57,
      "hit": false,
      "t": 204066.76021875412,
      "d": 453.12454687501304,
      "v": 50
    },
    {
      "midi": 89,
      "hit": false,
      "t": 204075.6887812541,
      "d": 323.6603906250093,
      "v": 30
    },
    {
      "midi": 86,
      "hit": false,
      "t": 204734.17026562913,
      "d": 62.49993750007707,
      "v": 68
    },
    {
      "midi": 74,
      "hit": false,
      "t": 204745.33096875413,
      "d": 60.26779687506496,
      "v": 36
    },
    {
      "midi": 81,
      "hit": false,
      "t": 204747.56310937915,
      "d": 46.874953125050524,
      "v": 49
    },
    {
      "midi": 64,
      "hit": false,
      "t": 204747.56310937915,
      "d": 58.03565625005285,
      "v": 46
    },
    {
      "midi": 53,
      "hit": false,
      "t": 204749.79525000416,
      "d": 133.92843750005704,
      "v": 32
    },
    {
      "midi": 57,
      "hit": false,
      "t": 204758.72381250418,
      "d": 84.82134375002352,
      "v": 45
    },
    {
      "midi": 60,
      "hit": false,
      "t": 204760.9559531292,
      "d": 46.87495312502142,
      "v": 36
    },
    {
      "midi": 45,
      "hit": false,
      "t": 205142.6520000042,
      "d": 42.41067187502631,
      "v": 32
    },
    {
      "midi": 43,
      "hit": false,
      "t": 205144.8841406292,
      "d": 29.017828125011874,
      "v": 33
    },
    {
      "midi": 53,
      "hit": false,
      "t": 205260.95545312922,
      "d": 183.03553125000326,
      "v": 38
    },
    {
      "midi": 60,
      "hit": false,
      "t": 205267.65187500423,
      "d": 156.2498437500035,
      "v": 52
    },
    {
      "midi": 57,
      "hit": false,
      "t": 205292.20542187922,
      "d": 124.99987500000861,
      "v": 25
    },
    {
      "midi": 64,
      "hit": false,
      "t": 205546.66945312923,
      "d": 55.80351562501164,
      "v": 49
    },
    {
      "midi": 50,
      "hit": false,
      "t": 205548.90159375424,
      "d": 75.89278125000419,
      "v": 47
    },
    {
      "midi": 57,
      "hit": false,
      "t": 205555.59801562925,
      "d": 26.785687499999767,
      "v": 46
    },
    {
      "midi": 60,
      "hit": false,
      "t": 205700.68715625425,
      "d": 60.26779687500675,
      "v": 48
    },
    {
      "midi": 57,
      "hit": false,
      "t": 205702.91929687926,
      "d": 53.571374999999534,
      "v": 54
    },
    {
      "midi": 67,
      "hit": false,
      "t": 205702.91929687926,
      "d": 89.28562499998952,
      "v": 61
    },
    {
      "midi": 64,
      "hit": false,
      "t": 205714.08000000427,
      "d": 31.249968749994878,
      "v": 55
    },
    {
      "midi": 53,
      "hit": false,
      "t": 205714.08000000427,
      "d": 69.19635937499697,
      "v": 55
    },
    {
      "midi": 64,
      "hit": false,
      "t": 206015.41898437924,
      "d": 464.28525000001537,
      "v": 61
    },
    {
      "midi": 53,
      "hit": false,
      "t": 206024.34754687923,
      "d": 412.94601562502794,
      "v": 56
    },
    {
      "midi": 57,
      "hit": false,
      "t": 206024.34754687923,
      "d": 412.94601562502794,
      "v": 60
    },
    {
      "midi": 43,
      "hit": false,
      "t": 206028.81182812923,
      "d": 645.0886406250938,
      "v": 53
    },
    {
      "midi": 60,
      "hit": false,
      "t": 206031.04396875424,
      "d": 415.17815625001094,
      "v": 46
    },
    {
      "midi": 50,
      "hit": false,
      "t": 206450.68640625424,
      "d": 84.82134375002352,
      "v": 31
    },
    {
      "midi": 59,
      "hit": false,
      "t": 206571.2220000043,
      "d": 430.8031406250375,
      "v": 46
    },
    {
      "midi": 53,
      "hit": false,
      "t": 206573.4541406293,
      "d": 401.7853125000256,
      "v": 29
    },
    {
      "midi": 56,
      "hit": false,
      "t": 206580.1505625043,
      "d": 417.41029687502305,
      "v": 28
    },
    {
      "midi": 62,
      "hit": false,
      "t": 206586.8469843793,
      "d": 448.6602656250179,
      "v": 47
    },
    {
      "midi": 52,
      "hit": false,
      "t": 206604.70410937932,
      "d": 301.33898437500466,
      "v": 28
    },
    {
      "midi": 43,
      "hit": false,
      "t": 206861.40028125432,
      "d": 87.05348437500652,
      "v": 51
    },
    {
      "midi": 74,
      "hit": false,
      "t": 207287.73914062933,
      "d": 91.51776562500163,
      "v": 72
    },
    {
      "midi": 72,
      "hit": false,
      "t": 207459.61396875433,
      "d": 977.6775937500643,
      "v": 45
    },
    {
      "midi": 36,
      "hit": false,
      "t": 207689.52445312933,
      "d": 89.28562500001863,
      "v": 47
    },
    {
      "midi": 43,
      "hit": false,
      "t": 207711.84585937933,
      "d": 116.0713125000184,
      "v": 24
    },
    {
      "midi": 52,
      "hit": false,
      "t": 207725.23870312935,
      "d": 82.58920312501141,
      "v": 36
    },
    {
      "midi": 63,
      "hit": false,
      "t": 208307.82740625436,
      "d": 116.0713125000184,
      "v": 39
    },
    {
      "midi": 62,
      "hit": false,
      "t": 208307.82740625436,
      "d": 180.80339062504936,
      "v": 41
    },
    {
      "midi": 67,
      "hit": false,
      "t": 208310.05954687938,
      "d": 42.410671874997206,
      "v": 33
    },
    {
      "midi": 57,
      "hit": false,
      "t": 208327.9166718794,
      "d": 430.8031406250375,
      "v": 30
    },
    {
      "midi": 67,
      "hit": false,
      "t": 208439.5237031294,
      "d": 133.92843749999884,
      "v": 55
    },
    {
      "midi": 66,
      "hit": false,
      "t": 208562.2914375044,
      "d": 107.14274999999907,
      "v": 57
    },
    {
      "midi": 67,
      "hit": false,
      "t": 208709.61271875442,
      "d": 366.0710625000356,
      "v": 57
    },
    {
      "midi": 52,
      "hit": false,
      "t": 209008.71956250444,
      "d": 1111.606031250034,
      "v": 43
    },
    {
      "midi": 59,
      "hit": false,
      "t": 209010.95170312945,
      "d": 680.8028906249965,
      "v": 52
    },
    {
      "midi": 62,
      "hit": false,
      "t": 209024.34454687944,
      "d": 685.2671718750207,
      "v": 55
    },
    {
      "midi": 55,
      "hit": false,
      "t": 209026.57668750445,
      "d": 712.0528593750205,
      "v": 54
    },
    {
      "midi": 72,
      "hit": false,
      "t": 209600.23682812945,
      "d": 111.60703125002328,
      "v": 61
    },
    {
      "midi": 68,
      "hit": false,
      "t": 210017.64712500447,
      "d": 107.14274999999907,
      "v": 71
    },
    {
      "midi": 80,
      "hit": false,
      "t": 210019.87926562948,
      "d": 118.3034531250014,
      "v": 55
    },
    {
      "midi": 69,
      "hit": false,
      "t": 210142.64700000448,
      "d": 89.28562499998952,
      "v": 46
    },
    {
      "midi": 81,
      "hit": false,
      "t": 210265.41473437948,
      "d": 89.28562499998952,
      "v": 53
    },
    {
      "midi": 69,
      "hit": false,
      "t": 210345.77179687948,
      "d": 26.785687499999767,
      "v": 20
    },
    {
      "midi": 79,
      "hit": false,
      "t": 210430.59314062947,
      "d": 254.46403125001234,
      "v": 41
    },
    {
      "midi": 67,
      "hit": false,
      "t": 210441.75384375447,
      "d": 225.44620312500047,
      "v": 59
    },
    {
      "midi": 81,
      "hit": false,
      "t": 210861.39628125448,
      "d": 321.4282500000845,
      "v": 62
    },
    {
      "midi": 73,
      "hit": false,
      "t": 210868.09270312949,
      "d": 263.39259375006077,
      "v": 37
    },
    {
      "midi": 53,
      "hit": false,
      "t": 210868.09270312949,
      "d": 381.69604687506217,
      "v": 42
    },
    {
      "midi": 69,
      "hit": false,
      "t": 210870.3248437545,
      "d": 272.321156250051,
      "v": 55
    },
    {
      "midi": 57,
      "hit": false,
      "t": 210881.4855468795,
      "d": 299.10684375005076,
      "v": 27
    },
    {
      "midi": 62,
      "hit": false,
      "t": 210883.7176875045,
      "d": 299.10684375005076,
      "v": 32
    },
    {
      "midi": 58,
      "hit": false,
      "t": 210885.94982812952,
      "d": 321.4282500000263,
      "v": 37
    },
    {
      "midi": 74,
      "hit": false,
      "t": 211118.09245312953,
      "d": 40.1785312500142,
      "v": 29
    },
    {
      "midi": 62,
      "hit": false,
      "t": 211720.77042187954,
      "d": 89.28562500004773,
      "v": 35
    },
    {
      "midi": 57,
      "hit": false,
      "t": 211723.00256250455,
      "d": 80.3570625000284,
      "v": 29
    },
    {
      "midi": 58,
      "hit": false,
      "t": 211736.39540625457,
      "d": 78.1249218750163,
      "v": 25
    },
    {
      "midi": 81,
      "hit": false,
      "t": 212147.10928125458,
      "d": 183.03553125000326,
      "v": 62
    },
    {
      "midi": 74,
      "hit": false,
      "t": 212151.57356250458,
      "d": 154.01770312499139,
      "v": 58
    },
    {
      "midi": 69,
      "hit": false,
      "t": 212162.73426562958,
      "d": 149.55342187499627,
      "v": 35
    },
    {
      "midi": 81,
      "hit": false,
      "t": 212573.4481406296,
      "d": 209.82121875000303,
      "v": 46
    },
    {
      "midi": 73,
      "hit": false,
      "t": 212575.6802812546,
      "d": 227.67834374998347,
      "v": 36
    },
    {
      "midi": 69,
      "hit": false,
      "t": 212584.6088437546,
      "d": 93.74990625001374,
      "v": 44
    },
    {
      "midi": 52,
      "hit": false,
      "t": 212584.6088437546,
      "d": 109.37489062501118,
      "v": 35
    },
    {
      "midi": 58,
      "hit": false,
      "t": 212591.3052656296,
      "d": 102.67846875000396,
      "v": 32
    },
    {
      "midi": 62,
      "hit": false,
      "t": 212595.7695468796,
      "d": 75.89278125000419,
      "v": 24
    },
    {
      "midi": 61,
      "hit": false,
      "t": 213316.75096875458,
      "d": 26.785687499999767,
      "v": 76
    },
    {
      "midi": 58,
      "hit": false,
      "t": 213321.21525000458,
      "d": 55.80351562501164,
      "v": 67
    },
    {
      "midi": 52,
      "hit": false,
      "t": 213332.37595312958,
      "d": 24.553546875016764,
      "v": 61
    },
    {
      "midi": 76,
      "hit": false,
      "t": 213466.30439062958,
      "d": 194.1962343750056,
      "v": 57
    },
    {
      "midi": 67,
      "hit": false,
      "t": 213466.30439062958,
      "d": 198.6605156250007,
      "v": 60
    },
    {
      "midi": 79,
      "hit": false,
      "t": 213468.5365312546,
      "d": 187.49981249999837,
      "v": 53
    },
    {
      "midi": 73,
      "hit": false,
      "t": 213477.46509375458,
      "d": 241.0711874999979,
      "v": 26
    },
    {
      "midi": 77,
      "hit": false,
      "t": 213756.48267187958,
      "d": 78.1249218750454,
      "v": 58
    },
    {
      "midi": 73,
      "hit": false,
      "t": 213763.1790937546,
      "d": 95.98204687502584,
      "v": 39
    },
    {
      "midi": 65,
      "hit": false,
      "t": 213776.5719375046,
      "d": 40.1785312500142,
      "v": 61
    },
    {
      "midi": 76,
      "hit": false,
      "t": 213914.96465625463,
      "d": 198.6605156250007,
      "v": 45
    },
    {
      "midi": 64,
      "hit": false,
      "t": 213939.5182031296,
      "d": 75.89278125000419,
      "v": 31
    },
    {
      "midi": 57,
      "hit": false,
      "t": 214294.42856250462,
      "d": 26.785687499999767,
      "v": 74
    },
    {
      "midi": 67,
      "hit": false,
      "t": 214294.42856250462,
      "d": 26.785687499999767,
      "v": 76
    },
    {
      "midi": 62,
      "hit": false,
      "t": 214301.12498437962,
      "d": 26.785687499999767,
      "v": 64
    },
    {
      "midi": 84,
      "hit": false,
      "t": 214372.55348437963,
      "d": 91.51776562503073,
      "v": 74
    },
    {
      "midi": 79,
      "hit": false,
      "t": 214374.78562500465,
      "d": 91.51776562503073,
      "v": 65
    },
    {
      "midi": 74,
      "hit": false,
      "t": 214377.01776562966,
      "d": 95.98204687502584,
      "v": 56
    },
    {
      "midi": 67,
      "hit": false,
      "t": 215048.8920937547,
      "d": 26.785687499999767,
      "v": 29
    },
    {
      "midi": 57,
      "hit": false,
      "t": 215060.0527968797,
      "d": 29.017828125011874,
      "v": 26
    },
    {
      "midi": 81,
      "hit": false,
      "t": 215470.7666718797,
      "d": 102.67846875000396,
      "v": 78
    },
    {
      "midi": 57,
      "hit": false,
      "t": 215539.9630312547,
      "d": 66.96421875001397,
      "v": 32
    },
    {
      "midi": 79,
      "hit": false,
      "t": 215669.4271875047,
      "d": 171.87482812500093,
      "v": 34
    },
    {
      "midi": 77,
      "hit": false,
      "t": 215910.4983750047,
      "d": 98.21418750006706,
      "v": 66
    },
    {
      "midi": 63,
      "hit": false,
      "t": 215928.35550000472,
      "d": 124.99987500006682,
      "v": 45
    },
    {
      "midi": 67,
      "hit": false,
      "t": 215930.58764062973,
      "d": 75.8927812500333,
      "v": 50
    },
    {
      "midi": 56,
      "hit": false,
      "t": 215937.28406250474,
      "d": 113.83917187503539,
      "v": 32
    },
    {
      "midi": 60,
      "hit": false,
      "t": 215939.51620312975,
      "d": 91.51776562503073,
      "v": 47
    },
    {
      "midi": 56,
      "hit": false,
      "t": 216109.1588906298,
      "d": 223.21406249998836,
      "v": 38
    },
    {
      "midi": 63,
      "hit": false,
      "t": 216122.5517343798,
      "d": 187.49981249996927,
      "v": 32
    },
    {
      "midi": 67,
      "hit": false,
      "t": 216127.0160156298,
      "d": 162.9462656249816,
      "v": 40
    },
    {
      "midi": 80,
      "hit": false,
      "t": 216135.9445781298,
      "d": 216.51764062498114,
      "v": 57
    },
    {
      "midi": 60,
      "hit": false,
      "t": 216144.8731406298,
      "d": 145.08914062500116,
      "v": 33
    },
    {
      "midi": 63,
      "hit": false,
      "t": 216441.74784375477,
      "d": 274.553296875034,
      "v": 34
    },
    {
      "midi": 56,
      "hit": false,
      "t": 216443.97998437978,
      "d": 185.26767187501537,
      "v": 33
    },
    {
      "midi": 67,
      "hit": false,
      "t": 216450.6764062548,
      "d": 154.0177031250205,
      "v": 33
    },
    {
      "midi": 77,
      "hit": false,
      "t": 216455.14068750478,
      "d": 330.35681250001653,
      "v": 55
    },
    {
      "midi": 60,
      "hit": false,
      "t": 216472.9978125048,
      "d": 232.14262500000768,
      "v": 38
    },
    {
      "midi": 72,
      "hit": false,
      "t": 216763.1760937548,
      "d": 747.7671093750105,
      "v": 51
    },
    {
      "midi": 56,
      "hit": false,
      "t": 216772.10465625479,
      "d": 515.6244843750028,
      "v": 50
    },
    {
      "midi": 67,
      "hit": false,
      "t": 216776.56893750478,
      "d": 544.6423125000147,
      "v": 55
    },
    {
      "midi": 62,
      "hit": false,
      "t": 216778.8010781298,
      "d": 511.1602031250077,
      "v": 57
    },
    {
      "midi": 74,
      "hit": false,
      "t": 217618.0859531298,
      "d": 84.82134374999441,
      "v": 68
    },
    {
      "midi": 67,
      "hit": false,
      "t": 217760.9429531298,
      "d": 658.4814843750501,
      "v": 30
    },
    {
      "midi": 62,
      "hit": false,
      "t": 217767.6393750048,
      "d": 669.6421875000524,
      "v": 37
    },
    {
      "midi": 64,
      "hit": false,
      "t": 217772.1036562548,
      "d": 629.4636562500382,
      "v": 35
    },
    {
      "midi": 75,
      "hit": false,
      "t": 217803.3536250048,
      "d": 124.99987500000861,
      "v": 47
    },
    {
      "midi": 76,
      "hit": false,
      "t": 217941.7463437548,
      "d": 75.89278125000419,
      "v": 62
    },
    {
      "midi": 79,
      "hit": false,
      "t": 218066.74621875482,
      "d": 113.83917187500629,
      "v": 71
    },
    {
      "midi": 75,
      "hit": false,
      "t": 218227.46034375482,
      "d": 120.5355937500135,
      "v": 36
    },
    {
      "midi": 76,
      "hit": false,
      "t": 218372.54948437982,
      "d": 78.1249218750454,
      "v": 44
    },
    {
      "midi": 79,
      "hit": false,
      "t": 218493.08507812986,
      "d": 118.3034531250014,
      "v": 74
    },
    {
      "midi": 56,
      "hit": false,
      "t": 218620.31709375486,
      "d": 609.3743906250456,
      "v": 33
    },
    {
      "midi": 67,
      "hit": false,
      "t": 218624.78137500485,
      "d": 357.1425000000163,
      "v": 33
    },
    {
      "midi": 75,
      "hit": false,
      "t": 218635.94207812985,
      "d": 91.51776562500163,
      "v": 49
    },
    {
      "midi": 62,
      "hit": false,
      "t": 218649.33492187987,
      "d": 377.23176562500885,
      "v": 43
    },
    {
      "midi": 76,
      "hit": false,
      "t": 218729.69198437987,
      "d": 236.6069062500028,
      "v": 51
    },
    {
      "midi": 67,
      "hit": false,
      "t": 219044.4238125049,
      "d": 316.9639687500021,
      "v": 58
    },
    {
      "midi": 65,
      "hit": false,
      "t": 219470.7626718799,
      "d": 537.9458906250075,
      "v": 44
    },
    {
      "midi": 61,
      "hit": false,
      "t": 219470.7626718799,
      "d": 953.1240468749893,
      "v": 39
    },
    {
      "midi": 60,
      "hit": false,
      "t": 219472.9948125049,
      "d": 524.553046874993,
      "v": 37
    },
    {
      "midi": 55,
      "hit": false,
      "t": 219477.4590937549,
      "d": 566.9637187499902,
      "v": 50
    },
    {
      "midi": 72,
      "hit": false,
      "t": 220622.5472343799,
      "d": 53.571374999999534,
      "v": 80
    },
    {
      "midi": 61,
      "hit": false,
      "t": 220624.7793750049,
      "d": 122.76773437499651,
      "v": 43
    },
    {
      "midi": 65,
      "hit": false,
      "t": 220633.7079375049,
      "d": 31.249968749994878,
      "v": 36
    },
    {
      "midi": 60,
      "hit": false,
      "t": 220660.4936250049,
      "d": 31.249968749994878,
      "v": 27
    },
    {
      "midi": 74,
      "hit": false,
      "t": 220781.0292187549,
      "d": 60.26779687500675,
      "v": 62
    },
    {
      "midi": 75,
      "hit": false,
      "t": 221048.88609375493,
      "d": 89.28562499998952,
      "v": 61
    },
    {
      "midi": 76,
      "hit": false,
      "t": 221202.90379687992,
      "d": 102.67846875000396,
      "v": 64
    },
    {
      "midi": 66,
      "hit": false,
      "t": 221865.84956250494,
      "d": 129.46415625000373,
      "v": 64
    },
    {
      "midi": 57,
      "hit": false,
      "t": 221870.31384375494,
      "d": 69.19635937499697,
      "v": 66
    },
    {
      "midi": 61,
      "hit": false,
      "t": 221874.77812500493,
      "d": 122.76773437502561,
      "v": 48
    },
    {
      "midi": 63,
      "hit": false,
      "t": 221883.70668750492,
      "d": 131.69629687504494,
      "v": 34
    },
    {
      "midi": 47,
      "hit": false,
      "t": 221883.70668750492,
      "d": 154.0177031250496,
      "v": 63
    },
    {
      "midi": 56,
      "hit": false,
      "t": 222073.43864063,
      "d": 169.64268749998882,
      "v": 46
    },
    {
      "midi": 62,
      "hit": false,
      "t": 222084.599343755,
      "d": 91.51776562497253,
      "v": 54
    },
    {
      "midi": 46,
      "hit": false,
      "t": 222089.063625005,
      "d": 267.8568749999977,
      "v": 34
    },
    {
      "midi": 65,
      "hit": false,
      "t": 222097.99218750498,
      "d": 111.60703124999418,
      "v": 53
    },
    {
      "midi": 61,
      "hit": false,
      "t": 222354.68835937997,
      "d": 87.05348437503562,
      "v": 56
    },
    {
      "midi": 64,
      "hit": false,
      "t": 222359.15264063,
      "d": 37.9463906250312,
      "v": 54
    },
    {
      "midi": 45,
      "hit": false,
      "t": 222365.849062505,
      "d": 71.42850000000908,
      "v": 44
    },
    {
      "midi": 55,
      "hit": false,
      "t": 222368.08120313002,
      "d": 37.946390625002095,
      "v": 32
    },
    {
      "midi": 54,
      "hit": false,
      "t": 222696.20587500502,
      "d": 102.67846875003306,
      "v": 46
    },
    {
      "midi": 63,
      "hit": false,
      "t": 222698.43801563003,
      "d": 102.67846875003306,
      "v": 37
    },
    {
      "midi": 44,
      "hit": false,
      "t": 222705.13443750504,
      "d": 178.57125000003725,
      "v": 46
    },
    {
      "midi": 53,
      "hit": false,
      "t": 222937.27706250508,
      "d": 544.6423124999856,
      "v": 50
    },
    {
      "midi": 43,
      "hit": false,
      "t": 222946.20562500507,
      "d": 379.46390624999185,
      "v": 36
    },
    {
      "midi": 57,
      "hit": false,
      "t": 222952.90204688007,
      "d": 470.9816718749935,
      "v": 59
    },
    {
      "midi": 60,
      "hit": false,
      "t": 222957.36632813007,
      "d": 517.8566249999858,
      "v": 39
    },
    {
      "midi": 62,
      "hit": false,
      "t": 222959.59846875508,
      "d": 620.5350937499898,
      "v": 50
    },
    {
      "midi": 31,
      "hit": false,
      "t": 223216.29464063008,
      "d": 84.82134374999441,
      "v": 63
    },
    {
      "midi": 56,
      "hit": false,
      "t": 223734.1512656301,
      "d": 658.481484375021,
      "v": 40
    },
    {
      "midi": 59,
      "hit": false,
      "t": 223740.8476875051,
      "d": 529.0173281250172,
      "v": 51
    },
    {
      "midi": 53,
      "hit": false,
      "t": 223740.8476875051,
      "d": 533.4816093750123,
      "v": 42
    },
    {
      "midi": 64,
      "hit": false,
      "t": 223743.0798281301,
      "d": 694.1957343750109,
      "v": 44
    },
    {
      "midi": 43,
      "hit": false,
      "t": 224039.95453125512,
      "d": 102.67846875000396,
      "v": 46
    },
    {
      "midi": 60,
      "hit": false,
      "t": 224604.68610938013,
      "d": 42.410671874997206,
      "v": 46
    },
    {
      "midi": 40,
      "hit": false,
      "t": 224863.61442188013,
      "d": 71.42850000000908,
      "v": 57
    },
    {
      "midi": 72,
      "hit": false,
      "t": 225446.20312500515,
      "d": 93.74990625001374,
      "v": 57
    },
    {
      "midi": 66,
      "hit": false,
      "t": 225446.20312500515,
      "d": 102.67846875000396,
      "v": 74
    },
    {
      "midi": 60,
      "hit": false,
      "t": 225597.98868750516,
      "d": 46.87495312499232,
      "v": 32
    },
    {
      "midi": 69,
      "hit": false,
      "t": 225725.22070313015,
      "d": 95.98204687499674,
      "v": 64
    },
    {
      "midi": 65,
      "hit": false,
      "t": 225736.38140625515,
      "d": 78.1249218749872,
      "v": 66
    },
    {
      "midi": 63,
      "hit": false,
      "t": 225901.55981250515,
      "d": 122.76773437502561,
      "v": 56
    },
    {
      "midi": 67,
      "hit": false,
      "t": 225930.57764063016,
      "d": 33.482109375006985,
      "v": 27
    },
    {
      "midi": 64,
      "hit": false,
      "t": 226051.11323438017,
      "d": 73.66064062499208,
      "v": 62
    },
    {
      "midi": 60,
      "hit": false,
      "t": 226180.57739063018,
      "d": 78.1249218749872,
      "v": 60
    },
    {
      "midi": 55,
      "hit": false,
      "t": 226336.82723438015,
      "d": 53.571374999999534,
      "v": 34
    },
    {
      "midi": 53,
      "hit": false,
      "t": 226448.43426563015,
      "d": 89.28562499998952,
      "v": 52
    },
    {
      "midi": 37,
      "hit": false,
      "t": 226595.75554688013,
      "d": 87.05348437500652,
      "v": 29
    },
    {
      "midi": 25,
      "hit": false,
      "t": 226754.23753125514,
      "d": 256.69617187499534,
      "v": 39
    },
    {
      "midi": 24,
      "hit": false,
      "t": 227073.43364063013,
      "d": 265.62473437501467,
      "v": 60
    }
  ]
}