{
  "jsonPath": "Rock/Country Rock/Ray Stevens/everything-is-beautiful.json",
  "path": "Rock\\Country Rock\\Ray Stevens\\Everything Is Beautiful.mid",
  "name": "Everything Is Beautiful",
  "difficulty": "Advanced",
  "bpm": 110.00011000011,
  "notes": [
    {
      "midi": 69,
      "hit": false,
      "t": 0,
      "d": 545.4540000000001,
      "v": 80
    },
    {
      "midi": 53,
      "hit": false,
      "t": 0,
      "d": 545.4540000000001,
      "v": 66
    },
    {
      "midi": 69,
      "hit": false,
      "t": 545.4540000000001,
      "d": 545.4540000000001,
      "v": 78
    },
    {
      "midi": 57,
      "hit": false,
      "t": 545.4540000000001,
      "d": 545.4540000000001,
      "v": 76
    },
    {
      "midi": 60,
      "hit": false,
      "t": 545.4540000000001,
      "d": 545.4540000000001,
      "v": 69
    },
    {
      "midi": 69,
      "hit": false,
      "t": 1090.9080000000001,
      "d": 409.0905,
      "v": 78
    },
    {
      "midi": 53,
      "hit": false,
      "t": 1090.9080000000001,
      "d": 545.454,
      "v": 80
    },
    {
      "midi": 67,
      "hit": false,
      "t": 1499.9985000000001,
      "d": 136.36349999999993,
      "v": 74
    },
    {
      "midi": 65,
      "hit": false,
      "t": 1636.362,
      "d": 409.0905,
      "v": 82
    },
    {
      "midi": 57,
      "hit": false,
      "t": 1636.362,
      "d": 545.4540000000002,
      "v": 76
    },
    {
      "midi": 60,
      "hit": false,
      "t": 1636.362,
      "d": 545.4540000000002,
      "v": 62
    },
    {
      "midi": 62,
      "hit": false,
      "t": 2045.4525,
      "d": 136.36350000000016,
      "v": 82
    },
    {
      "midi": 60,
      "hit": false,
      "t": 2181.8160000000003,
      "d": 1090.908,
      "v": 113
    },
    {
      "midi": 53,
      "hit": false,
      "t": 2181.8160000000003,
      "d": 545.4540000000002,
      "v": 78
    },
    {
      "midi": 57,
      "hit": false,
      "t": 2727.2700000000004,
      "d": 545.4540000000002,
      "v": 74
    },
    {
      "midi": 60,
      "hit": false,
      "t": 2727.2700000000004,
      "d": 545.4540000000002,
      "v": 59
    },
    {
      "midi": 65,
      "hit": false,
      "t": 3272.724,
      "d": 1090.9080000000004,
      "v": 82
    },
    {
      "midi": 53,
      "hit": false,
      "t": 3272.7240000000006,
      "d": 545.4540000000002,
      "v": 80
    },
    {
      "midi": 57,
      "hit": false,
      "t": 3818.178000000001,
      "d": 545.4539999999997,
      "v": 69
    },
    {
      "midi": 60,
      "hit": false,
      "t": 3818.178000000001,
      "d": 545.4539999999997,
      "v": 64
    },
    {
      "midi": 67,
      "hit": false,
      "t": 4363.6320000000005,
      "d": 409.09050000000025,
      "v": 58
    },
    {
      "midi": 48,
      "hit": false,
      "t": 4363.6320000000005,
      "d": 545.4539999999997,
      "v": 78
    },
    {
      "midi": 67,
      "hit": false,
      "t": 4772.722500000001,
      "d": 136.36350000000039,
      "v": 87
    },
    {
      "midi": 52,
      "hit": false,
      "t": 4909.086,
      "d": 545.4539999999997,
      "v": 78
    },
    {
      "midi": 55,
      "hit": false,
      "t": 4909.086,
      "d": 545.4539999999997,
      "v": 60
    },
    {
      "midi": 67,
      "hit": false,
      "t": 4909.086000000001,
      "d": 409.09050000000025,
      "v": 101
    },
    {
      "midi": 67,
      "hit": false,
      "t": 5318.176500000001,
      "d": 136.36350000000039,
      "v": 92
    },
    {
      "midi": 53,
      "hit": false,
      "t": 5454.54,
      "d": 545.4539999999997,
      "v": 58
    },
    {
      "midi": 69,
      "hit": false,
      "t": 5454.540000000002,
      "d": 409.09050000000025,
      "v": 104
    },
    {
      "midi": 67,
      "hit": false,
      "t": 5863.630500000002,
      "d": 136.36350000000039,
      "v": 84
    },
    {
      "midi": 57,
      "hit": false,
      "t": 5999.994,
      "d": 545.4539999999997,
      "v": 67
    },
    {
      "midi": 60,
      "hit": false,
      "t": 5999.994,
      "d": 545.4539999999997,
      "v": 61
    },
    {
      "midi": 65,
      "hit": false,
      "t": 5999.994000000002,
      "d": 409.09050000000025,
      "v": 87
    },
    {
      "midi": 69,
      "hit": false,
      "t": 6409.084500000003,
      "d": 136.36350000000039,
      "v": 78
    },
    {
      "midi": 48,
      "hit": false,
      "t": 6545.447999999999,
      "d": 545.4539999999997,
      "v": 65
    },
    {
      "midi": 67,
      "hit": false,
      "t": 6545.448000000003,
      "d": 1636.362,
      "v": 92
    },
    {
      "midi": 52,
      "hit": false,
      "t": 7090.901999999999,
      "d": 545.4539999999997,
      "v": 69
    },
    {
      "midi": 55,
      "hit": false,
      "t": 7090.901999999999,
      "d": 545.4539999999997,
      "v": 59
    },
    {
      "midi": 48,
      "hit": false,
      "t": 7636.355999999999,
      "d": 545.4539999999997,
      "v": 65
    },
    {
      "midi": 52,
      "hit": false,
      "t": 8181.809999999999,
      "d": 545.4540000000006,
      "v": 80
    },
    {
      "midi": 55,
      "hit": false,
      "t": 8181.809999999999,
      "d": 545.4540000000006,
      "v": 65
    },
    {
      "midi": 72,
      "hit": false,
      "t": 8181.810000000003,
      "d": 409.09050000000025,
      "v": 74
    },
    {
      "midi": 70,
      "hit": false,
      "t": 8590.900500000003,
      "d": 136.36349999999948,
      "v": 61
    },
    {
      "midi": 53,
      "hit": false,
      "t": 8727.264,
      "d": 545.4539999999997,
      "v": 67
    },
    {
      "midi": 69,
      "hit": false,
      "t": 8727.264000000003,
      "d": 409.09050000000025,
      "v": 84
    },
    {
      "midi": 72,
      "hit": false,
      "t": 9136.354500000003,
      "d": 136.36349999999948,
      "v": 89
    },
    {
      "midi": 57,
      "hit": false,
      "t": 9272.717999999999,
      "d": 545.4539999999997,
      "v": 72
    },
    {
      "midi": 60,
      "hit": false,
      "t": 9272.717999999999,
      "d": 545.4539999999997,
      "v": 65
    },
    {
      "midi": 77,
      "hit": false,
      "t": 9272.718000000003,
      "d": 409.09050000000025,
      "v": 82
    },
    {
      "midi": 79,
      "hit": false,
      "t": 9681.808500000003,
      "d": 136.36349999999948,
      "v": 74
    },
    {
      "midi": 53,
      "hit": false,
      "t": 9818.171999999999,
      "d": 545.4539999999997,
      "v": 71
    },
    {
      "midi": 77,
      "hit": false,
      "t": 9818.172000000002,
      "d": 545.4539999999997,
      "v": 87
    },
    {
      "midi": 57,
      "hit": false,
      "t": 10363.625999999998,
      "d": 545.4539999999997,
      "v": 72
    },
    {
      "midi": 60,
      "hit": false,
      "t": 10363.625999999998,
      "d": 545.4539999999997,
      "v": 66
    },
    {
      "midi": 77,
      "hit": false,
      "t": 10363.626000000002,
      "d": 409.09050000000025,
      "v": 69
    },
    {
      "midi": 76,
      "hit": false,
      "t": 10772.716500000002,
      "d": 136.36349999999948,
      "v": 89
    },
    {
      "midi": 46,
      "hit": false,
      "t": 10909.079999999998,
      "d": 545.4539999999997,
      "v": 64
    },
    {
      "midi": 74,
      "hit": false,
      "t": 10909.080000000002,
      "d": 409.09050000000025,
      "v": 89
    },
    {
      "midi": 76,
      "hit": false,
      "t": 11318.170500000002,
      "d": 136.36349999999948,
      "v": 71
    },
    {
      "midi": 50,
      "hit": false,
      "t": 11454.533999999998,
      "d": 545.4539999999997,
      "v": 92
    },
    {
      "midi": 53,
      "hit": false,
      "t": 11454.533999999998,
      "d": 545.4539999999997,
      "v": 63
    },
    {
      "midi": 77,
      "hit": false,
      "t": 11454.534000000001,
      "d": 409.09050000000025,
      "v": 76
    },
    {
      "midi": 74,
      "hit": false,
      "t": 11863.624500000002,
      "d": 136.36349999999948,
      "v": 65
    },
    {
      "midi": 53,
      "hit": false,
      "t": 11999.987999999998,
      "d": 545.4539999999997,
      "v": 92
    },
    {
      "midi": 72,
      "hit": false,
      "t": 11999.988000000001,
      "d": 545.4539999999997,
      "v": 76
    },
    {
      "midi": 57,
      "hit": false,
      "t": 12545.441999999997,
      "d": 545.4539999999997,
      "v": 69
    },
    {
      "midi": 60,
      "hit": false,
      "t": 12545.441999999997,
      "d": 545.4539999999997,
      "v": 89
    },
    {
      "midi": 69,
      "hit": false,
      "t": 12545.442000000001,
      "d": 409.09050000000025,
      "v": 84
    },
    {
      "midi": 67,
      "hit": false,
      "t": 12954.532500000001,
      "d": 136.36349999999948,
      "v": 97
    },
    {
      "midi": 46,
      "hit": false,
      "t": 13090.895999999997,
      "d": 545.4539999999997,
      "v": 63
    },
    {
      "midi": 65,
      "hit": false,
      "t": 13090.896,
      "d": 409.09050000000025,
      "v": 92
    },
    {
      "midi": 64,
      "hit": false,
      "t": 13499.9865,
      "d": 136.36349999999948,
      "v": 95
    },
    {
      "midi": 50,
      "hit": false,
      "t": 13636.349999999997,
      "d": 545.4539999999997,
      "v": 80
    },
    {
      "midi": 53,
      "hit": false,
      "t": 13636.349999999997,
      "d": 545.4539999999997,
      "v": 71
    },
    {
      "midi": 65,
      "hit": false,
      "t": 13636.35,
      "d": 409.09050000000025,
      "v": 89
    },
    {
      "midi": 62,
      "hit": false,
      "t": 14045.4405,
      "d": 136.36349999999948,
      "v": 78
    },
    {
      "midi": 48,
      "hit": false,
      "t": 14181.803999999996,
      "d": 545.4539999999997,
      "v": 60
    },
    {
      "midi": 64,
      "hit": false,
      "t": 14181.804,
      "d": 409.09050000000025,
      "v": 87
    },
    {
      "midi": 65,
      "hit": false,
      "t": 14590.8945,
      "d": 136.36349999999948,
      "v": 74
    },
    {
      "midi": 52,
      "hit": false,
      "t": 14727.257999999996,
      "d": 545.4539999999997,
      "v": 64
    },
    {
      "midi": 55,
      "hit": false,
      "t": 14727.257999999996,
      "d": 545.4539999999997,
      "v": 67
    },
    {
      "midi": 67,
      "hit": false,
      "t": 14727.258,
      "d": 409.09050000000025,
      "v": 87
    },
    {
      "midi": 64,
      "hit": false,
      "t": 15136.3485,
      "d": 136.36349999999948,
      "v": 69
    },
    {
      "midi": 53,
      "hit": false,
      "t": 15272.711999999996,
      "d": 545.4539999999997,
      "v": 56
    },
    {
      "midi": 65,
      "hit": false,
      "t": 15272.712,
      "d": 2181.815999999999,
      "v": 78
    },
    {
      "midi": 57,
      "hit": false,
      "t": 15818.165999999996,
      "d": 545.4539999999997,
      "v": 71
    },
    {
      "midi": 60,
      "hit": false,
      "t": 15818.165999999996,
      "d": 545.4539999999997,
      "v": 61
    },
    {
      "midi": 53,
      "hit": false,
      "t": 16363.619999999995,
      "d": 545.4540000000015,
      "v": 66
    },
    {
      "midi": 57,
      "hit": false,
      "t": 16909.073999999997,
      "d": 545.4540000000015,
      "v": 78
    },
    {
      "midi": 60,
      "hit": false,
      "t": 16909.073999999997,
      "d": 545.4540000000015,
      "v": 59
    },
    {
      "midi": 53,
      "hit": false,
      "t": 17454.528,
      "d": 2181.815999999999,
      "v": 78
    },
    {
      "midi": 69,
      "hit": false,
      "t": 18545.435999999998,
      "d": 409.0904999999984,
      "v": 76
    },
    {
      "midi": 72,
      "hit": false,
      "t": 18954.526499999996,
      "d": 136.36349999999948,
      "v": 84
    },
    {
      "midi": 72,
      "hit": false,
      "t": 19090.889999999996,
      "d": 409.0904999999984,
      "v": 108
    },
    {
      "midi": 69,
      "hit": false,
      "t": 19499.980499999994,
      "d": 136.36349999999948,
      "v": 82
    },
    {
      "midi": 74,
      "hit": false,
      "t": 19636.343999999994,
      "d": 818.1810000000005,
      "v": 87
    },
    {
      "midi": 53,
      "hit": false,
      "t": 19636.343999999997,
      "d": 545.4540000000015,
      "v": 80
    },
    {
      "midi": 57,
      "hit": false,
      "t": 20181.798,
      "d": 545.4540000000015,
      "v": 76
    },
    {
      "midi": 60,
      "hit": false,
      "t": 20181.798,
      "d": 545.4540000000015,
      "v": 68
    },
    {
      "midi": 72,
      "hit": false,
      "t": 20454.524999999994,
      "d": 272.72699999999895,
      "v": 82
    },
    {
      "midi": 72,
      "hit": false,
      "t": 20727.251999999993,
      "d": 1090.9079999999994,
      "v": 80
    },
    {
      "midi": 53,
      "hit": false,
      "t": 20727.252,
      "d": 545.4540000000015,
      "v": 80
    },
    {
      "midi": 57,
      "hit": false,
      "t": 21272.706000000002,
      "d": 545.4540000000015,
      "v": 82
    },
    {
      "midi": 60,
      "hit": false,
      "t": 21272.706000000002,
      "d": 545.4540000000015,
      "v": 67
    },
    {
      "midi": 50,
      "hit": false,
      "t": 21818.160000000003,
      "d": 545.4540000000015,
      "v": 87
    },
    {
      "midi": 53,
      "hit": false,
      "t": 22363.614000000005,
      "d": 545.4540000000015,
      "v": 67
    },
    {
      "midi": 57,
      "hit": false,
      "t": 22363.614000000005,
      "d": 545.4540000000015,
      "v": 72
    },
    {
      "midi": 69,
      "hit": false,
      "t": 22909.067999999992,
      "d": 409.0904999999984,
      "v": 76
    },
    {
      "midi": 50,
      "hit": false,
      "t": 22909.068000000007,
      "d": 545.4540000000015,
      "v": 74
    },
    {
      "midi": 70,
      "hit": false,
      "t": 23318.15849999999,
      "d": 136.36349999999948,
      "v": 69
    },
    {
      "midi": 69,
      "hit": false,
      "t": 23454.52199999999,
      "d": 545.4540000000015,
      "v": 97
    },
    {
      "midi": 53,
      "hit": false,
      "t": 23454.522000000008,
      "d": 545.4540000000015,
      "v": 71
    },
    {
      "midi": 57,
      "hit": false,
      "t": 23454.522000000008,
      "d": 545.4540000000015,
      "v": 76
    },
    {
      "midi": 69,
      "hit": false,
      "t": 23999.97599999999,
      "d": 272.72699999999895,
      "v": 82
    },
    {
      "midi": 43,
      "hit": false,
      "t": 23999.97600000001,
      "d": 545.4540000000015,
      "v": 80
    },
    {
      "midi": 67,
      "hit": false,
      "t": 24272.70299999999,
      "d": 1909.089,
      "v": 89
    },
    {
      "midi": 47,
      "hit": false,
      "t": 24545.43000000001,
      "d": 545.4540000000015,
      "v": 82
    },
    {
      "midi": 50,
      "hit": false,
      "t": 24545.43000000001,
      "d": 545.4540000000015,
      "v": 60
    },
    {
      "midi": 43,
      "hit": false,
      "t": 25090.884000000013,
      "d": 545.4540000000015,
      "v": 71
    },
    {
      "midi": 47,
      "hit": false,
      "t": 25636.338000000014,
      "d": 545.4540000000015,
      "v": 89
    },
    {
      "midi": 50,
      "hit": false,
      "t": 25636.338000000014,
      "d": 545.4540000000015,
      "v": 71
    },
    {
      "midi": 43,
      "hit": false,
      "t": 26181.792000000016,
      "d": 545.4540000000015,
      "v": 78
    },
    {
      "midi": 47,
      "hit": false,
      "t": 26727.246000000017,
      "d": 545.4540000000015,
      "v": 89
    },
    {
      "midi": 50,
      "hit": false,
      "t": 26727.246000000017,
      "d": 545.4540000000015,
      "v": 74
    },
    {
      "midi": 62,
      "hit": false,
      "t": 27272.69999999999,
      "d": 409.0904999999984,
      "v": 89
    },
    {
      "midi": 43,
      "hit": false,
      "t": 27272.70000000002,
      "d": 545.4540000000015,
      "v": 72
    },
    {
      "midi": 64,
      "hit": false,
      "t": 27681.79049999999,
      "d": 136.36349999999948,
      "v": 69
    },
    {
      "midi": 65,
      "hit": false,
      "t": 27818.153999999988,
      "d": 409.0904999999984,
      "v": 82
    },
    {
      "midi": 47,
      "hit": false,
      "t": 27818.15400000002,
      "d": 545.4540000000015,
      "v": 89
    },
    {
      "midi": 50,
      "hit": false,
      "t": 27818.15400000002,
      "d": 545.4540000000015,
      "v": 68
    },
    {
      "midi": 67,
      "hit": false,
      "t": 28227.244499999986,
      "d": 136.36349999999948,
      "v": 92
    },
    {
      "midi": 69,
      "hit": false,
      "t": 28363.607999999986,
      "d": 818.1810000000005,
      "v": 89
    },
    {
      "midi": 43,
      "hit": false,
      "t": 28363.608000000022,
      "d": 545.4540000000015,
      "v": 67
    },
    {
      "midi": 46,
      "hit": false,
      "t": 28909.062000000024,
      "d": 545.4540000000015,
      "v": 66
    },
    {
      "midi": 50,
      "hit": false,
      "t": 28909.062000000024,
      "d": 545.4540000000015,
      "v": 74
    },
    {
      "midi": 67,
      "hit": false,
      "t": 29181.788999999986,
      "d": 272.72699999999895,
      "v": 68
    },
    {
      "midi": 67,
      "hit": false,
      "t": 29454.515999999985,
      "d": 818.1810000000005,
      "v": 108
    },
    {
      "midi": 43,
      "hit": false,
      "t": 29454.516000000025,
      "d": 545.4540000000015,
      "v": 68
    },
    {
      "midi": 46,
      "hit": false,
      "t": 29999.970000000027,
      "d": 545.4540000000015,
      "v": 49
    },
    {
      "midi": 50,
      "hit": false,
      "t": 29999.970000000027,
      "d": 545.4540000000015,
      "v": 69
    },
    {
      "midi": 60,
      "hit": false,
      "t": 30272.696999999986,
      "d": 136.36349999999948,
      "v": 78
    },
    {
      "midi": 60,
      "hit": false,
      "t": 30409.060499999985,
      "d": 136.36349999999948,
      "v": 97
    },
    {
      "midi": 74,
      "hit": false,
      "t": 30545.423999999985,
      "d": 545.4540000000015,
      "v": 65
    },
    {
      "midi": 48,
      "hit": false,
      "t": 30545.424000000028,
      "d": 545.4540000000015,
      "v": 78
    },
    {
      "midi": 72,
      "hit": false,
      "t": 31090.877999999986,
      "d": 409.0904999999984,
      "v": 92
    },
    {
      "midi": 52,
      "hit": false,
      "t": 31090.87800000003,
      "d": 545.4540000000015,
      "v": 76
    },
    {
      "midi": 55,
      "hit": false,
      "t": 31090.87800000003,
      "d": 545.4540000000015,
      "v": 65
    },
    {
      "midi": 72,
      "hit": false,
      "t": 31499.968499999984,
      "d": 136.36349999999948,
      "v": 84
    },
    {
      "midi": 69,
      "hit": false,
      "t": 31636.331999999984,
      "d": 272.72699999999895,
      "v": 104
    },
    {
      "midi": 48,
      "hit": false,
      "t": 31636.33200000003,
      "d": 545.4540000000015,
      "v": 71
    },
    {
      "midi": 67,
      "hit": false,
      "t": 31909.058999999983,
      "d": 272.72699999999895,
      "v": 95
    },
    {
      "midi": 65,
      "hit": false,
      "t": 32181.785999999982,
      "d": 545.4540000000015,
      "v": 97
    },
    {
      "midi": 52,
      "hit": false,
      "t": 32181.786000000033,
      "d": 545.4540000000015,
      "v": 76
    },
    {
      "midi": 55,
      "hit": false,
      "t": 32181.786000000033,
      "d": 545.4540000000015,
      "v": 74
    },
    {
      "midi": 69,
      "hit": false,
      "t": 32727.239999999983,
      "d": 2181.815999999999,
      "v": 87
    },
    {
      "midi": 53,
      "hit": false,
      "t": 32727.240000000034,
      "d": 545.4539999999979,
      "v": 69
    },
    {
      "midi": 57,
      "hit": false,
      "t": 33272.69400000003,
      "d": 545.4539999999979,
      "v": 64
    },
    {
      "midi": 60,
      "hit": false,
      "t": 33272.69400000003,
      "d": 545.4539999999979,
      "v": 61
    },
    {
      "midi": 53,
      "hit": false,
      "t": 33818.14800000003,
      "d": 545.4539999999979,
      "v": 76
    },
    {
      "midi": 57,
      "hit": false,
      "t": 34363.60200000003,
      "d": 545.4539999999979,
      "v": 71
    },
    {
      "midi": 60,
      "hit": false,
      "t": 34363.60200000003,
      "d": 545.4539999999979,
      "v": 66
    },
    {
      "midi": 48,
      "hit": false,
      "t": 34909.056000000026,
      "d": 545.4539999999979,
      "v": 76
    },
    {
      "midi": 52,
      "hit": false,
      "t": 35454.510000000024,
      "d": 545.4539999999979,
      "v": 60
    },
    {
      "midi": 55,
      "hit": false,
      "t": 35454.510000000024,
      "d": 545.4539999999979,
      "v": 74
    },
    {
      "midi": 69,
      "hit": false,
      "t": 35999.963999999985,
      "d": 409.0904999999984,
      "v": 72
    },
    {
      "midi": 48,
      "hit": false,
      "t": 35999.96400000002,
      "d": 545.4539999999979,
      "v": 82
    },
    {
      "midi": 72,
      "hit": false,
      "t": 36409.054499999984,
      "d": 136.36349999999948,
      "v": 80
    },
    {
      "midi": 72,
      "hit": false,
      "t": 36545.41799999998,
      "d": 409.0904999999984,
      "v": 101
    },
    {
      "midi": 52,
      "hit": false,
      "t": 36545.41800000002,
      "d": 545.4539999999979,
      "v": 82
    },
    {
      "midi": 55,
      "hit": false,
      "t": 36545.41800000002,
      "d": 545.4539999999979,
      "v": 64
    },
    {
      "midi": 69,
      "hit": false,
      "t": 36954.50849999998,
      "d": 136.36349999999948,
      "v": 82
    },
    {
      "midi": 74,
      "hit": false,
      "t": 37090.87199999998,
      "d": 818.1809999999969,
      "v": 92
    },
    {
      "midi": 53,
      "hit": false,
      "t": 37090.87200000002,
      "d": 545.4539999999979,
      "v": 84
    },
    {
      "midi": 57,
      "hit": false,
      "t": 37636.326000000015,
      "d": 545.4539999999979,
      "v": 72
    },
    {
      "midi": 60,
      "hit": false,
      "t": 37636.326000000015,
      "d": 545.4539999999979,
      "v": 61
    },
    {
      "midi": 72,
      "hit": false,
      "t": 37909.05299999998,
      "d": 272.72699999999895,
      "v": 69
    },
    {
      "midi": 72,
      "hit": false,
      "t": 38181.77999999998,
      "d": 1090.908000000003,
      "v": 97
    },
    {
      "midi": 53,
      "hit": false,
      "t": 38181.78000000001,
      "d": 545.4539999999979,
      "v": 76
    },
    {
      "midi": 57,
      "hit": false,
      "t": 38727.23400000001,
      "d": 545.4539999999979,
      "v": 76
    },
    {
      "midi": 60,
      "hit": false,
      "t": 38727.23400000001,
      "d": 545.4539999999979,
      "v": 69
    },
    {
      "midi": 50,
      "hit": false,
      "t": 39272.68800000001,
      "d": 545.4539999999979,
      "v": 92
    },
    {
      "midi": 53,
      "hit": false,
      "t": 39818.14200000001,
      "d": 545.4539999999979,
      "v": 60
    },
    {
      "midi": 57,
      "hit": false,
      "t": 39818.14200000001,
      "d": 545.4539999999979,
      "v": 65
    },
    {
      "midi": 69,
      "hit": false,
      "t": 40363.59599999998,
      "d": 409.0904999999984,
      "v": 87
    },
    {
      "midi": 50,
      "hit": false,
      "t": 40363.596000000005,
      "d": 545.4539999999979,
      "v": 84
    },
    {
      "midi": 70,
      "hit": false,
      "t": 40772.68649999998,
      "d": 136.36349999999948,
      "v": 69
    },
    {
      "midi": 69,
      "hit": false,
      "t": 40909.04999999998,
      "d": 545.4539999999979,
      "v": 95
    },
    {
      "midi": 53,
      "hit": false,
      "t": 40909.05,
      "d": 545.4539999999979,
      "v": 68
    },
    {
      "midi": 57,
      "hit": false,
      "t": 40909.05,
      "d": 545.4539999999979,
      "v": 69
    },
    {
      "midi": 69,
      "hit": false,
      "t": 41454.50399999998,
      "d": 272.72699999999895,
      "v": 84
    },
    {
      "midi": 43,
      "hit": false,
      "t": 41454.504,
      "d": 545.4539999999979,
      "v": 84
    },
    {
      "midi": 67,
      "hit": false,
      "t": 41727.23099999998,
      "d": 1909.089,
      "v": 89
    },
    {
      "midi": 47,
      "hit": false,
      "t": 41999.958,
      "d": 545.4539999999979,
      "v": 80
    },
    {
      "midi": 50,
      "hit": false,
      "t": 41999.958,
      "d": 545.4539999999979,
      "v": 66
    },
    {
      "midi": 43,
      "hit": false,
      "t": 42545.412,
      "d": 545.4539999999979,
      "v": 67
    },
    {
      "midi": 47,
      "hit": false,
      "t": 43090.865999999995,
      "d": 545.4539999999979,
      "v": 89
    },
    {
      "midi": 50,
      "hit": false,
      "t": 43090.865999999995,
      "d": 545.4539999999979,
      "v": 68
    },
    {
      "midi": 43,
      "hit": false,
      "t": 43636.31999999999,
      "d": 545.4539999999979,
      "v": 69
    },
    {
      "midi": 47,
      "hit": false,
      "t": 44181.77399999999,
      "d": 545.4539999999979,
      "v": 74
    },
    {
      "midi": 50,
      "hit": false,
      "t": 44181.77399999999,
      "d": 545.4539999999979,
      "v": 63
    },
    {
      "midi": 62,
      "hit": false,
      "t": 44727.22799999998,
      "d": 409.0904999999984,
      "v": 71
    },
    {
      "midi": 43,
      "hit": false,
      "t": 44727.22799999999,
      "d": 545.4539999999979,
      "v": 76
    },
    {
      "midi": 64,
      "hit": false,
      "t": 45136.31849999998,
      "d": 136.36349999999948,
      "v": 84
    },
    {
      "midi": 65,
      "hit": false,
      "t": 45272.68199999998,
      "d": 545.4539999999979,
      "v": 92
    },
    {
      "midi": 47,
      "hit": false,
      "t": 45272.681999999986,
      "d": 545.4539999999979,
      "v": 80
    },
    {
      "midi": 50,
      "hit": false,
      "t": 45272.681999999986,
      "d": 545.4539999999979,
      "v": 64
    },
    {
      "midi": 69,
      "hit": false,
      "t": 45818.13599999998,
      "d": 818.1809999999969,
      "v": 95
    },
    {
      "midi": 43,
      "hit": false,
      "t": 45818.135999999984,
      "d": 545.4539999999979,
      "v": 66
    },
    {
      "midi": 46,
      "hit": false,
      "t": 46363.58999999998,
      "d": 545.4539999999979,
      "v": 51
    },
    {
      "midi": 50,
      "hit": false,
      "t": 46363.58999999998,
      "d": 545.4539999999979,
      "v": 68
    },
    {
      "midi": 67,
      "hit": false,
      "t": 46636.31699999997,
      "d": 1090.908000000003,
      "v": 67
    },
    {
      "midi": 43,
      "hit": false,
      "t": 46909.04399999998,
      "d": 545.4539999999979,
      "v": 67
    },
    {
      "midi": 46,
      "hit": false,
      "t": 47454.49799999998,
      "d": 545.4539999999979,
      "v": 59
    },
    {
      "midi": 50,
      "hit": false,
      "t": 47454.49799999998,
      "d": 545.4539999999979,
      "v": 80
    },
    {
      "midi": 60,
      "hit": false,
      "t": 47727.22499999998,
      "d": 272.72699999999895,
      "v": 74
    },
    {
      "midi": 74,
      "hit": false,
      "t": 47999.951999999976,
      "d": 545.4539999999979,
      "v": 84
    },
    {
      "midi": 48,
      "hit": false,
      "t": 47999.951999999976,
      "d": 545.4539999999979,
      "v": 76
    },
    {
      "midi": 72,
      "hit": false,
      "t": 48545.40599999997,
      "d": 409.0904999999984,
      "v": 84
    },
    {
      "midi": 52,
      "hit": false,
      "t": 48545.40599999997,
      "d": 545.4539999999979,
      "v": 80
    },
    {
      "midi": 55,
      "hit": false,
      "t": 48545.40599999997,
      "d": 545.4539999999979,
      "v": 74
    },
    {
      "midi": 72,
      "hit": false,
      "t": 48954.49649999997,
      "d": 136.36349999999948,
      "v": 72
    },
    {
      "midi": 69,
      "hit": false,
      "t": 49090.85999999997,
      "d": 409.0904999999984,
      "v": 78
    },
    {
      "midi": 48,
      "hit": false,
      "t": 49090.85999999997,
      "d": 545.4539999999979,
      "v": 76
    },
    {
      "midi": 67,
      "hit": false,
      "t": 49499.95049999997,
      "d": 136.36349999999948,
      "v": 76
    },
    {
      "midi": 65,
      "hit": false,
      "t": 49636.31399999997,
      "d": 409.0904999999984,
      "v": 101
    },
    {
      "midi": 52,
      "hit": false,
      "t": 49636.31399999997,
      "d": 545.4539999999979,
      "v": 71
    },
    {
      "midi": 55,
      "hit": false,
      "t": 49636.31399999997,
      "d": 545.4539999999979,
      "v": 71
    },
    {
      "midi": 67,
      "hit": false,
      "t": 50045.40449999997,
      "d": 136.36349999999948,
      "v": 89
    },
    {
      "midi": 65,
      "hit": false,
      "t": 50181.76799999997,
      "d": 2181.815999999999,
      "v": 89
    },
    {
      "midi": 53,
      "hit": false,
      "t": 50181.76799999997,
      "d": 545.4539999999979,
      "v": 56
    },
    {
      "midi": 57,
      "hit": false,
      "t": 50727.221999999965,
      "d": 545.4539999999979,
      "v": 65
    },
    {
      "midi": 60,
      "hit": false,
      "t": 50727.221999999965,
      "d": 545.4539999999979,
      "v": 71
    },
    {
      "midi": 53,
      "hit": false,
      "t": 51272.67599999996,
      "d": 545.4539999999979,
      "v": 69
    },
    {
      "midi": 57,
      "hit": false,
      "t": 51818.12999999996,
      "d": 545.4539999999979,
      "v": 61
    },
    {
      "midi": 60,
      "hit": false,
      "t": 51818.12999999996,
      "d": 545.4539999999979,
      "v": 63
    },
    {
      "midi": 53,
      "hit": false,
      "t": 52363.58399999996,
      "d": 545.4539999999979,
      "v": 80
    },
    {
      "midi": 57,
      "hit": false,
      "t": 52909.03799999996,
      "d": 545.4539999999979,
      "v": 76
    },
    {
      "midi": 60,
      "hit": false,
      "t": 52909.03799999996,
      "d": 545.4539999999979,
      "v": 65
    },
    {
      "midi": 53,
      "hit": false,
      "t": 53454.491999999955,
      "d": 545.4539999999979,
      "v": 82
    },
    {
      "midi": 57,
      "hit": false,
      "t": 53999.94599999995,
      "d": 545.4539999999979,
      "v": 72
    },
    {
      "midi": 60,
      "hit": false,
      "t": 53999.94599999995,
      "d": 545.4539999999979,
      "v": 65
    },
    {
      "midi": 53,
      "hit": false,
      "t": 54545.39999999995,
      "d": 2181.815999999999,
      "v": 78
    },
    {
      "midi": 69,
      "hit": false,
      "t": 55090.85399999996,
      "d": 409.0904999999984,
      "v": 76
    },
    {
      "midi": 69,
      "hit": false,
      "t": 55499.94449999996,
      "d": 136.36349999999948,
      "v": 84
    },
    {
      "midi": 70,
      "hit": false,
      "t": 55636.30799999996,
      "d": 545.4539999999979,
      "v": 96
    },
    {
      "midi": 69,
      "hit": false,
      "t": 56181.76199999996,
      "d": 545.4539999999979,
      "v": 87
    },
    {
      "midi": 48,
      "hit": false,
      "t": 56727.21599999995,
      "d": 545.4539999999979,
      "v": 65
    },
    {
      "midi": 69,
      "hit": false,
      "t": 56727.21599999996,
      "d": 545.4539999999979,
      "v": 89
    },
    {
      "midi": 52,
      "hit": false,
      "t": 57272.66999999995,
      "d": 545.4539999999979,
      "v": 66
    },
    {
      "midi": 55,
      "hit": false,
      "t": 57272.66999999995,
      "d": 545.4539999999979,
      "v": 64
    },
    {
      "midi": 67,
      "hit": false,
      "t": 57272.669999999955,
      "d": 1090.908000000003,
      "v": 82
    },
    {
      "midi": 48,
      "hit": false,
      "t": 57818.123999999945,
      "d": 545.4539999999979,
      "v": 69
    },
    {
      "midi": 52,
      "hit": false,
      "t": 58363.57799999994,
      "d": 545.4539999999979,
      "v": 71
    },
    {
      "midi": 55,
      "hit": false,
      "t": 58363.57799999994,
      "d": 545.4539999999979,
      "v": 69
    },
    {
      "midi": 64,
      "hit": false,
      "t": 58636.30499999996,
      "d": 272.72699999999895,
      "v": 72
    },
    {
      "midi": 46,
      "hit": false,
      "t": 58909.03199999994,
      "d": 545.4539999999979,
      "v": 66
    },
    {
      "midi": 62,
      "hit": false,
      "t": 58909.031999999956,
      "d": 545.4539999999979,
      "v": 87
    },
    {
      "midi": 50,
      "hit": false,
      "t": 59454.48599999994,
      "d": 545.4539999999979,
      "v": 89
    },
    {
      "midi": 53,
      "hit": false,
      "t": 59454.48599999994,
      "d": 545.4539999999979,
      "v": 61
    },
    {
      "midi": 65,
      "hit": false,
      "t": 59454.48599999995,
      "d": 545.4539999999979,
      "v": 82
    },
    {
      "midi": 46,
      "hit": false,
      "t": 59999.93999999994,
      "d": 545.4539999999979,
      "v": 72
    },
    {
      "midi": 67,
      "hit": false,
      "t": 59999.93999999995,
      "d": 272.72699999999895,
      "v": 84
    },
    {
      "midi": 69,
      "hit": false,
      "t": 60272.66699999995,
      "d": 818.1809999999969,
      "v": 78
    },
    {
      "midi": 50,
      "hit": false,
      "t": 60545.393999999935,
      "d": 545.4539999999979,
      "v": 82
    },
    {
      "midi": 53,
      "hit": false,
      "t": 60545.393999999935,
      "d": 545.4539999999979,
      "v": 67
    },
    {
      "midi": 53,
      "hit": false,
      "t": 61090.84799999993,
      "d": 545.4539999999979,
      "v": 63
    },
    {
      "midi": 67,
      "hit": false,
      "t": 61090.84799999995,
      "d": 272.72699999999895,
      "v": 87
    },
    {
      "midi": 65,
      "hit": false,
      "t": 61363.574999999946,
      "d": 1909.089,
      "v": 71
    },
    {
      "midi": 57,
      "hit": false,
      "t": 61636.30199999993,
      "d": 545.4539999999979,
      "v": 55
    },
    {
      "midi": 60,
      "hit": false,
      "t": 61636.30199999993,
      "d": 545.4539999999979,
      "v": 59
    },
    {
      "midi": 53,
      "hit": false,
      "t": 62181.75599999993,
      "d": 545.4539999999979,
      "v": 76
    },
    {
      "midi": 57,
      "hit": false,
      "t": 62727.20999999993,
      "d": 545.4539999999979,
      "v": 76
    },
    {
      "midi": 60,
      "hit": false,
      "t": 62727.20999999993,
      "d": 545.4539999999979,
      "v": 64
    },
    {
      "midi": 53,
      "hit": false,
      "t": 63272.663999999924,
      "d": 545.4539999999979,
      "v": 74
    },
    {
      "midi": 72,
      "hit": false,
      "t": 63545.390999999945,
      "d": 545.4539999999979,
      "v": 78
    },
    {
      "midi": 57,
      "hit": false,
      "t": 63818.11799999992,
      "d": 545.4539999999979,
      "v": 72
    },
    {
      "midi": 60,
      "hit": false,
      "t": 63818.11799999992,
      "d": 545.4539999999979,
      "v": 69
    },
    {
      "midi": 72,
      "hit": false,
      "t": 64090.84499999994,
      "d": 272.72699999999895,
      "v": 69
    },
    {
      "midi": 53,
      "hit": false,
      "t": 64363.57199999992,
      "d": 545.4539999999979,
      "v": 72
    },
    {
      "midi": 72,
      "hit": false,
      "t": 64363.57199999994,
      "d": 363.6359999999986,
      "v": 100
    },
    {
      "midi": 72,
      "hit": false,
      "t": 64727.20799999994,
      "d": 363.6359999999986,
      "v": 100
    },
    {
      "midi": 57,
      "hit": false,
      "t": 64909.02599999992,
      "d": 545.4539999999979,
      "v": 68
    },
    {
      "midi": 60,
      "hit": false,
      "t": 64909.02599999992,
      "d": 545.4539999999979,
      "v": 71
    },
    {
      "midi": 72,
      "hit": false,
      "t": 65090.84399999994,
      "d": 363.6359999999986,
      "v": 100
    },
    {
      "midi": 48,
      "hit": false,
      "t": 65454.479999999916,
      "d": 545.4540000000052,
      "v": 84
    },
    {
      "midi": 72,
      "hit": false,
      "t": 65454.47999999994,
      "d": 272.72699999999895,
      "v": 108
    },
    {
      "midi": 69,
      "hit": false,
      "t": 65727.20699999994,
      "d": 272.72699999999895,
      "v": 95
    },
    {
      "midi": 52,
      "hit": false,
      "t": 65999.93399999992,
      "d": 545.4539999999979,
      "v": 66
    },
    {
      "midi": 55,
      "hit": false,
      "t": 65999.93399999992,
      "d": 545.4539999999979,
      "v": 61
    },
    {
      "midi": 67,
      "hit": false,
      "t": 65999.93399999994,
      "d": 1090.9079999999958,
      "v": 95
    },
    {
      "midi": 48,
      "hit": false,
      "t": 66545.38799999992,
      "d": 545.4539999999979,
      "v": 72
    },
    {
      "midi": 52,
      "hit": false,
      "t": 67090.84199999992,
      "d": 545.4539999999979,
      "v": 59
    },
    {
      "midi": 55,
      "hit": false,
      "t": 67090.84199999992,
      "d": 545.4539999999979,
      "v": 66
    },
    {
      "midi": 60,
      "hit": false,
      "t": 67090.84199999993,
      "d": 272.72699999999895,
      "v": 64
    },
    {
      "midi": 60,
      "hit": false,
      "t": 67363.56899999993,
      "d": 272.72699999999895,
      "v": 84
    },
    {
      "midi": 46,
      "hit": false,
      "t": 67636.29599999991,
      "d": 545.4539999999979,
      "v": 65
    },
    {
      "midi": 62,
      "hit": false,
      "t": 67636.29599999993,
      "d": 545.4539999999979,
      "v": 92
    },
    {
      "midi": 50,
      "hit": false,
      "t": 68181.74999999991,
      "d": 545.4539999999979,
      "v": 78
    },
    {
      "midi": 53,
      "hit": false,
      "t": 68181.74999999991,
      "d": 545.4539999999979,
      "v": 53
    },
    {
      "midi": 65,
      "hit": false,
      "t": 68181.74999999993,
      "d": 545.4539999999979,
      "v": 84
    },
    {
      "midi": 46,
      "hit": false,
      "t": 68727.20399999991,
      "d": 545.4539999999979,
      "v": 63
    },
    {
      "midi": 67,
      "hit": false,
      "t": 68727.20399999993,
      "d": 818.1809999999969,
      "v": 87
    },
    {
      "midi": 50,
      "hit": false,
      "t": 69272.65799999991,
      "d": 545.4539999999979,
      "v": 82
    },
    {
      "midi": 53,
      "hit": false,
      "t": 69272.65799999991,
      "d": 545.4539999999979,
      "v": 69
    },
    {
      "midi": 69,
      "hit": false,
      "t": 69545.38499999992,
      "d": 272.72699999999895,
      "v": 84
    },
    {
      "midi": 53,
      "hit": false,
      "t": 69818.1119999999,
      "d": 545.4539999999979,
      "v": 80
    },
    {
      "midi": 67,
      "hit": false,
      "t": 69818.11199999992,
      "d": 272.72699999999895,
      "v": 84
    },
    {
      "midi": 65,
      "hit": false,
      "t": 70090.83899999992,
      "d": 1909.0890000000072,
      "v": 78
    },
    {
      "midi": 57,
      "hit": false,
      "t": 70363.5659999999,
      "d": 545.4539999999979,
      "v": 78
    },
    {
      "midi": 60,
      "hit": false,
      "t": 70363.5659999999,
      "d": 545.4539999999979,
      "v": 69
    },
    {
      "midi": 53,
      "hit": false,
      "t": 70909.0199999999,
      "d": 545.4539999999979,
      "v": 80
    },
    {
      "midi": 57,
      "hit": false,
      "t": 71454.4739999999,
      "d": 545.4539999999979,
      "v": 78
    },
    {
      "midi": 60,
      "hit": false,
      "t": 71454.4739999999,
      "d": 545.4539999999979,
      "v": 67
    },
    {
      "midi": 53,
      "hit": false,
      "t": 71999.9279999999,
      "d": 545.4539999999979,
      "v": 80
    },
    {
      "midi": 72,
      "hit": false,
      "t": 72409.01849999993,
      "d": 136.36350000000675,
      "v": 95
    },
    {
      "midi": 57,
      "hit": false,
      "t": 72545.3819999999,
      "d": 545.4539999999979,
      "v": 78
    },
    {
      "midi": 60,
      "hit": false,
      "t": 72545.3819999999,
      "d": 545.4539999999979,
      "v": 67
    },
    {
      "midi": 77,
      "hit": false,
      "t": 72545.38199999994,
      "d": 409.0905000000057,
      "v": 76
    },
    {
      "midi": 77,
      "hit": false,
      "t": 72954.47249999995,
      "d": 136.36350000000675,
      "v": 101
    },
    {
      "midi": 53,
      "hit": false,
      "t": 73090.8359999999,
      "d": 545.4539999999979,
      "v": 71
    },
    {
      "midi": 77,
      "hit": false,
      "t": 73090.83599999995,
      "d": 1090.9079999999958,
      "v": 108
    },
    {
      "midi": 57,
      "hit": false,
      "t": 73636.28999999989,
      "d": 545.4539999999979,
      "v": 87
    },
    {
      "midi": 60,
      "hit": false,
      "t": 73636.28999999989,
      "d": 545.4539999999979,
      "v": 71
    },
    {
      "midi": 48,
      "hit": false,
      "t": 74181.74399999989,
      "d": 545.4539999999979,
      "v": 80
    },
    {
      "midi": 72,
      "hit": false,
      "t": 74590.83449999995,
      "d": 136.36350000000675,
      "v": 67
    },
    {
      "midi": 52,
      "hit": false,
      "t": 74727.19799999989,
      "d": 545.4539999999979,
      "v": 76
    },
    {
      "midi": 55,
      "hit": false,
      "t": 74727.19799999989,
      "d": 545.4539999999979,
      "v": 71
    },
    {
      "midi": 76,
      "hit": false,
      "t": 74727.19799999996,
      "d": 409.0905000000057,
      "v": 92
    },
    {
      "midi": 76,
      "hit": false,
      "t": 75136.28849999997,
      "d": 136.36350000000675,
      "v": 101
    },
    {
      "midi": 48,
      "hit": false,
      "t": 75272.65199999989,
      "d": 545.4539999999979,
      "v": 78
    },
    {
      "midi": 74,
      "hit": false,
      "t": 75272.65199999997,
      "d": 272.72699999999895,
      "v": 101
    },
    {
      "midi": 72,
      "hit": false,
      "t": 75545.37899999997,
      "d": 818.1809999999969,
      "v": 80
    },
    {
      "midi": 52,
      "hit": false,
      "t": 75818.10599999988,
      "d": 545.4539999999979,
      "v": 78
    },
    {
      "midi": 55,
      "hit": false,
      "t": 75818.10599999988,
      "d": 545.4539999999979,
      "v": 67
    },
    {
      "midi": 46,
      "hit": false,
      "t": 76363.55999999988,
      "d": 545.4539999999979,
      "v": 77
    },
    {
      "midi": 65,
      "hit": false,
      "t": 76772.65049999997,
      "d": 136.36350000000675,
      "v": 82
    },
    {
      "midi": 50,
      "hit": false,
      "t": 76909.01399999988,
      "d": 545.4539999999979,
      "v": 89
    },
    {
      "midi": 53,
      "hit": false,
      "t": 76909.01399999988,
      "d": 545.4539999999979,
      "v": 68
    },
    {
      "midi": 74,
      "hit": false,
      "t": 76909.01399999998,
      "d": 409.0905000000057,
      "v": 84
    },
    {
      "midi": 72,
      "hit": false,
      "t": 77318.10449999999,
      "d": 136.36350000000675,
      "v": 69
    },
    {
      "midi": 46,
      "hit": false,
      "t": 77454.46799999988,
      "d": 545.4539999999979,
      "v": 66
    },
    {
      "midi": 74,
      "hit": false,
      "t": 77454.468,
      "d": 181.8179999999993,
      "v": 100
    },
    {
      "midi": 72,
      "hit": false,
      "t": 77636.286,
      "d": 181.8179999999993,
      "v": 100
    },
    {
      "midi": 69,
      "hit": false,
      "t": 77818.10399999999,
      "d": 181.8179999999993,
      "v": 100
    },
    {
      "midi": 50,
      "hit": false,
      "t": 77999.92199999987,
      "d": 545.4539999999979,
      "v": 76
    },
    {
      "midi": 53,
      "hit": false,
      "t": 77999.92199999987,
      "d": 545.4539999999979,
      "v": 72
    },
    {
      "midi": 72,
      "hit": false,
      "t": 77999.92199999999,
      "d": 181.8179999999993,
      "v": 100
    },
    {
      "midi": 72,
      "hit": false,
      "t": 78181.73999999999,
      "d": 181.8179999999993,
      "v": 100
    },
    {
      "midi": 74,
      "hit": false,
      "t": 78363.55799999999,
      "d": 181.8179999999993,
      "v": 100
    },
    {
      "midi": 53,
      "hit": false,
      "t": 78545.37599999987,
      "d": 545.4539999999979,
      "v": 87
    },
    {
      "midi": 69,
      "hit": false,
      "t": 78545.37599999999,
      "d": 272.72699999999895,
      "v": 101
    },
    {
      "midi": 67,
      "hit": false,
      "t": 78818.10299999999,
      "d": 272.72699999999895,
      "v": 80
    },
    {
      "midi": 57,
      "hit": false,
      "t": 79090.82999999987,
      "d": 545.4539999999979,
      "v": 74
    },
    {
      "midi": 60,
      "hit": false,
      "t": 79090.82999999987,
      "d": 545.4539999999979,
      "v": 66
    },
    {
      "midi": 65,
      "hit": false,
      "t": 79090.82999999999,
      "d": 1636.3619999999937,
      "v": 104
    },
    {
      "midi": 53,
      "hit": false,
      "t": 79636.28399999987,
      "d": 545.4539999999979,
      "v": 76
    },
    {
      "midi": 57,
      "hit": false,
      "t": 80181.73799999987,
      "d": 545.4539999999979,
      "v": 71
    },
    {
      "midi": 60,
      "hit": false,
      "t": 80181.73799999987,
      "d": 545.4539999999979,
      "v": 61
    },
    {
      "midi": 53,
      "hit": false,
      "t": 80727.19199999986,
      "d": 545.4539999999979,
      "v": 84
    },
    {
      "midi": 65,
      "hit": false,
      "t": 81136.28249999999,
      "d": 136.36350000000675,
      "v": 89
    },
    {
      "midi": 57,
      "hit": false,
      "t": 81272.64599999986,
      "d": 545.4539999999979,
      "v": 71
    },
    {
      "midi": 60,
      "hit": false,
      "t": 81272.64599999986,
      "d": 545.4539999999979,
      "v": 67
    },
    {
      "midi": 72,
      "hit": false,
      "t": 81272.646,
      "d": 409.0905000000057,
      "v": 89
    },
    {
      "midi": 69,
      "hit": false,
      "t": 81681.7365,
      "d": 136.36350000000675,
      "v": 66
    },
    {
      "midi": 53,
      "hit": false,
      "t": 81818.09999999986,
      "d": 545.4539999999979,
      "v": 84
    },
    {
      "midi": 72,
      "hit": false,
      "t": 81818.1,
      "d": 409.0905000000057,
      "v": 89
    },
    {
      "midi": 72,
      "hit": false,
      "t": 82227.19050000001,
      "d": 136.36350000000675,
      "v": 78
    },
    {
      "midi": 57,
      "hit": false,
      "t": 82363.55399999986,
      "d": 545.4539999999979,
      "v": 82
    },
    {
      "midi": 60,
      "hit": false,
      "t": 82363.55399999986,
      "d": 545.4539999999979,
      "v": 67
    },
    {
      "midi": 74,
      "hit": false,
      "t": 82363.55400000002,
      "d": 545.4539999999979,
      "v": 71
    },
    {
      "midi": 48,
      "hit": false,
      "t": 82909.00799999986,
      "d": 545.4539999999979,
      "v": 78
    },
    {
      "midi": 69,
      "hit": false,
      "t": 83318.09850000002,
      "d": 136.36350000000675,
      "v": 72
    },
    {
      "midi": 52,
      "hit": false,
      "t": 83454.46199999985,
      "d": 545.4539999999979,
      "v": 68
    },
    {
      "midi": 55,
      "hit": false,
      "t": 83454.46199999985,
      "d": 545.4539999999979,
      "v": 71
    },
    {
      "midi": 72,
      "hit": false,
      "t": 83454.46200000003,
      "d": 409.0905000000057,
      "v": 78
    },
    {
      "midi": 69,
      "hit": false,
      "t": 83863.55250000003,
      "d": 136.36350000000675,
      "v": 72
    },
    {
      "midi": 48,
      "hit": false,
      "t": 83999.91599999985,
      "d": 545.4539999999979,
      "v": 72
    },
    {
      "midi": 72,
      "hit": false,
      "t": 83999.91600000004,
      "d": 818.1809999999969,
      "v": 76
    },
    {
      "midi": 52,
      "hit": false,
      "t": 84545.36999999985,
      "d": 545.4539999999979,
      "v": 68
    },
    {
      "midi": 55,
      "hit": false,
      "t": 84545.36999999985,
      "d": 545.4539999999979,
      "v": 67
    },
    {
      "midi": 60,
      "hit": false,
      "t": 84818.09700000004,
      "d": 136.36350000000675,
      "v": 59
    },
    {
      "midi": 60,
      "hit": false,
      "t": 84954.46050000004,
      "d": 136.36350000000675,
      "v": 89
    },
    {
      "midi": 46,
      "hit": false,
      "t": 85090.82399999985,
      "d": 545.4539999999979,
      "v": 81
    },
    {
      "midi": 62,
      "hit": false,
      "t": 85090.82400000005,
      "d": 272.72699999999895,
      "v": 92
    },
    {
      "midi": 65,
      "hit": false,
      "t": 85363.55100000005,
      "d": 1090.9079999999958,
      "v": 68
    },
    {
      "midi": 50,
      "hit": false,
      "t": 85636.27799999985,
      "d": 545.4539999999979,
      "v": 84
    },
    {
      "midi": 53,
      "hit": false,
      "t": 85636.27799999985,
      "d": 545.4539999999979,
      "v": 63
    },
    {
      "midi": 48,
      "hit": false,
      "t": 86181.73199999984,
      "d": 545.4539999999979,
      "v": 74
    },
    {
      "midi": 65,
      "hit": false,
      "t": 86590.82250000005,
      "d": 136.36350000000675,
      "v": 87
    },
    {
      "midi": 52,
      "hit": false,
      "t": 86727.18599999984,
      "d": 545.4539999999979,
      "v": 82
    },
    {
      "midi": 55,
      "hit": false,
      "t": 86727.18599999984,
      "d": 545.4539999999979,
      "v": 74
    },
    {
      "midi": 67,
      "hit": false,
      "t": 86727.18600000006,
      "d": 409.0905000000057,
      "v": 89
    },
    {
      "midi": 65,
      "hit": false,
      "t": 87136.27650000007,
      "d": 136.36350000000675,
      "v": 61
    },
    {
      "midi": 53,
      "hit": false,
      "t": 87272.63999999984,
      "d": 545.4539999999979,
      "v": 80
    },
    {
      "midi": 67,
      "hit": false,
      "t": 87272.64000000007,
      "d": 272.72699999999895,
      "v": 78
    },
    {
      "midi": 65,
      "hit": false,
      "t": 87545.36700000007,
      "d": 1909.0889999999927,
      "v": 80
    },
    {
      "midi": 57,
      "hit": false,
      "t": 87818.09399999984,
      "d": 545.4539999999979,
      "v": 76
    },
    {
      "midi": 60,
      "hit": false,
      "t": 87818.09399999984,
      "d": 545.4539999999979,
      "v": 62
    },
    {
      "midi": 53,
      "hit": false,
      "t": 88363.54799999984,
      "d": 545.4539999999979,
      "v": 72
    },
    {
      "midi": 57,
      "hit": false,
      "t": 88909.00199999983,
      "d": 545.4539999999979,
      "v": 82
    },
    {
      "midi": 60,
      "hit": false,
      "t": 88909.00199999983,
      "d": 545.4539999999979,
      "v": 65
    },
    {
      "midi": 53,
      "hit": false,
      "t": 89454.45599999983,
      "d": 2181.816000000006,
      "v": 87
    },
    {
      "midi": 69,
      "hit": false,
      "t": 90545.36400000006,
      "d": 409.0905000000057,
      "v": 87
    },
    {
      "midi": 72,
      "hit": false,
      "t": 90954.45450000007,
      "d": 136.36350000000675,
      "v": 78
    },
    {
      "midi": 72,
      "hit": false,
      "t": 91090.81800000007,
      "d": 409.0905000000057,
      "v": 108
    },
    {
      "midi": 69,
      "hit": false,
      "t": 91499.90850000008,
      "d": 136.36350000000675,
      "v": 74
    },
    {
      "midi": 53,
      "hit": false,
      "t": 91636.27199999984,
      "d": 545.4539999999979,
      "v": 82
    },
    {
      "midi": 74,
      "hit": false,
      "t": 91636.27200000008,
      "d": 818.1809999999969,
      "v": 97
    },
    {
      "midi": 57,
      "hit": false,
      "t": 92181.72599999984,
      "d": 545.4539999999979,
      "v": 72
    },
    {
      "midi": 60,
      "hit": false,
      "t": 92181.72599999984,
      "d": 545.4539999999979,
      "v": 68
    },
    {
      "midi": 72,
      "hit": false,
      "t": 92454.45300000008,
      "d": 272.72699999999895,
      "v": 82
    },
    {
      "midi": 53,
      "hit": false,
      "t": 92727.17999999983,
      "d": 545.4539999999979,
      "v": 76
    },
    {
      "midi": 72,
      "hit": false,
      "t": 92727.18000000008,
      "d": 1090.9079999999958,
      "v": 89
    },
    {
      "midi": 57,
      "hit": false,
      "t": 93272.63399999983,
      "d": 545.4539999999979,
      "v": 72
    },
    {
      "midi": 60,
      "hit": false,
      "t": 93272.63399999983,
      "d": 545.4539999999979,
      "v": 68
    },
    {
      "midi": 50,
      "hit": false,
      "t": 93818.08799999983,
      "d": 545.4539999999979,
      "v": 68
    },
    {
      "midi": 53,
      "hit": false,
      "t": 94363.54199999983,
      "d": 545.4539999999979,
      "v": 80
    },
    {
      "midi": 57,
      "hit": false,
      "t": 94363.54199999983,
      "d": 545.4539999999979,
      "v": 61
    },
    {
      "midi": 50,
      "hit": false,
      "t": 94908.99599999982,
      "d": 545.4539999999979,
      "v": 74
    },
    {
      "midi": 69,
      "hit": false,
      "t": 94908.99600000007,
      "d": 409.0905000000057,
      "v": 78
    },
    {
      "midi": 70,
      "hit": false,
      "t": 95318.08650000008,
      "d": 136.36350000000675,
      "v": 69
    },
    {
      "midi": 53,
      "hit": false,
      "t": 95454.44999999982,
      "d": 545.4539999999979,
      "v": 76
    },
    {
      "midi": 57,
      "hit": false,
      "t": 95454.44999999982,
      "d": 545.4539999999979,
      "v": 64
    },
    {
      "midi": 69,
      "hit": false,
      "t": 95454.45000000008,
      "d": 545.4539999999979,
      "v": 97
    },
    {
      "midi": 43,
      "hit": false,
      "t": 95999.90399999982,
      "d": 545.4539999999979,
      "v": 84
    },
    {
      "midi": 69,
      "hit": false,
      "t": 95999.90400000008,
      "d": 272.72699999999895,
      "v": 87
    },
    {
      "midi": 67,
      "hit": false,
      "t": 96272.63100000008,
      "d": 1909.0890000000072,
      "v": 82
    },
    {
      "midi": 47,
      "hit": false,
      "t": 96545.35799999982,
      "d": 545.4539999999979,
      "v": 95
    },
    {
      "midi": 50,
      "hit": false,
      "t": 96545.35799999982,
      "d": 545.4539999999979,
      "v": 64
    },
    {
      "midi": 43,
      "hit": false,
      "t": 97090.81199999982,
      "d": 545.4539999999979,
      "v": 65
    },
    {
      "midi": 47,
      "hit": false,
      "t": 97636.26599999981,
      "d": 545.4539999999979,
      "v": 84
    },
    {
      "midi": 50,
      "hit": false,
      "t": 97636.26599999981,
      "d": 545.4539999999979,
      "v": 68
    },
    {
      "midi": 43,
      "hit": false,
      "t": 98181.71999999981,
      "d": 545.4539999999979,
      "v": 76
    },
    {
      "midi": 47,
      "hit": false,
      "t": 98727.17399999981,
      "d": 545.4539999999979,
      "v": 84
    },
    {
      "midi": 50,
      "hit": false,
      "t": 98727.17399999981,
      "d": 545.4539999999979,
      "v": 71
    },
    {
      "midi": 43,
      "hit": false,
      "t": 99272.62799999981,
      "d": 545.4539999999979,
      "v": 72
    },
    {
      "midi": 62,
      "hit": false,
      "t": 99272.62800000008,
      "d": 409.0905000000057,
      "v": 74
    },
    {
      "midi": 64,
      "hit": false,
      "t": 99681.71850000009,
      "d": 136.36350000000675,
      "v": 66
    },
    {
      "midi": 47,
      "hit": false,
      "t": 99818.0819999998,
      "d": 545.4539999999979,
      "v": 89
    },
    {
      "midi": 50,
      "hit": false,
      "t": 99818.0819999998,
      "d": 545.4539999999979,
      "v": 72
    },
    {
      "midi": 65,
      "hit": false,
      "t": 99818.0820000001,
      "d": 409.0905000000057,
      "v": 80
    },
    {
      "midi": 67,
      "hit": false,
      "t": 100227.1725000001,
      "d": 136.36350000000675,
      "v": 78
    },
    {
      "midi": 43,
      "hit": false,
      "t": 100363.5359999998,
      "d": 545.4539999999979,
      "v": 78
    },
    {
      "midi": 69,
      "hit": false,
      "t": 100363.53600000011,
      "d": 818.1809999999969,
      "v": 89
    },
    {
      "midi": 46,
      "hit": false,
      "t": 100908.9899999998,
      "d": 545.4539999999979,
      "v": 57
    },
    {
      "midi": 50,
      "hit": false,
      "t": 100908.9899999998,
      "d": 545.4539999999979,
      "v": 74
    },
    {
      "midi": 67,
      "hit": false,
      "t": 101181.7170000001,
      "d": 272.72699999999895,
      "v": 69
    },
    {
      "midi": 43,
      "hit": false,
      "t": 101454.4439999998,
      "d": 545.4539999999979,
      "v": 78
    },
    {
      "midi": 67,
      "hit": false,
      "t": 101454.4440000001,
      "d": 818.1809999999969,
      "v": 74
    },
    {
      "midi": 46,
      "hit": false,
      "t": 101999.8979999998,
      "d": 545.4539999999979,
      "v": 72
    },
    {
      "midi": 50,
      "hit": false,
      "t": 101999.8979999998,
      "d": 545.4539999999979,
      "v": 84
    },
    {
      "midi": 60,
      "hit": false,
      "t": 102272.6250000001,
      "d": 136.36350000000675,
      "v": 80
    },
    {
      "midi": 60,
      "hit": false,
      "t": 102408.98850000011,
      "d": 136.36350000000675,
      "v": 92
    },
    {
      "midi": 48,
      "hit": false,
      "t": 102545.3519999998,
      "d": 545.4539999999979,
      "v": 61
    },
    {
      "midi": 74,
      "hit": false,
      "t": 102545.35200000012,
      "d": 545.4539999999979,
      "v": 97
    },
    {
      "midi": 52,
      "hit": false,
      "t": 103090.8059999998,
      "d": 545.4539999999979,
      "v": 76
    },
    {
      "midi": 55,
      "hit": false,
      "t": 103090.8059999998,
      "d": 545.4539999999979,
      "v": 74
    },
    {
      "midi": 72,
      "hit": false,
      "t": 103090.80600000011,
      "d": 409.0905000000057,
      "v": 87
    },
    {
      "midi": 72,
      "hit": false,
      "t": 103499.89650000012,
      "d": 136.36350000000675,
      "v": 92
    },
    {
      "midi": 48,
      "hit": false,
      "t": 103636.25999999979,
      "d": 545.4539999999979,
      "v": 74
    },
    {
      "midi": 69,
      "hit": false,
      "t": 103636.26000000013,
      "d": 272.72699999999895,
      "v": 92
    },
    {
      "midi": 67,
      "hit": false,
      "t": 103908.98700000012,
      "d": 272.72699999999895,
      "v": 78
    },
    {
      "midi": 52,
      "hit": false,
      "t": 104181.71399999979,
      "d": 545.4539999999979,
      "v": 74
    },
    {
      "midi": 55,
      "hit": false,
      "t": 104181.71399999979,
      "d": 545.4539999999979,
      "v": 78
    },
    {
      "midi": 65,
      "hit": false,
      "t": 104181.71400000012,
      "d": 545.4539999999979,
      "v": 78
    },
    {
      "midi": 53,
      "hit": false,
      "t": 104727.16799999979,
      "d": 545.4539999999979,
      "v": 84
    },
    {
      "midi": 69,
      "hit": false,
      "t": 104727.16800000012,
      "d": 2181.816000000006,
      "v": 78
    },
    {
      "midi": 57,
      "hit": false,
      "t": 105272.62199999978,
      "d": 545.4539999999979,
      "v": 72
    },
    {
      "midi": 60,
      "hit": false,
      "t": 105272.62199999978,
      "d": 545.4539999999979,
      "v": 61
    },
    {
      "midi": 53,
      "hit": false,
      "t": 105818.07599999978,
      "d": 545.4539999999979,
      "v": 74
    },
    {
      "midi": 57,
      "hit": false,
      "t": 106363.52999999978,
      "d": 545.4539999999979,
      "v": 67
    },
    {
      "midi": 60,
      "hit": false,
      "t": 106363.52999999978,
      "d": 545.4539999999979,
      "v": 68
    },
    {
      "midi": 53,
      "hit": false,
      "t": 106908.98399999978,
      "d": 545.4539999999979,
      "v": 74
    },
    {
      "midi": 57,
      "hit": false,
      "t": 107454.43799999978,
      "d": 545.4539999999979,
      "v": 74
    },
    {
      "midi": 60,
      "hit": false,
      "t": 107454.43799999978,
      "d": 545.4539999999979,
      "v": 65
    },
    {
      "midi": 53,
      "hit": false,
      "t": 107999.89199999977,
      "d": 545.4539999999979,
      "v": 80
    },
    {
      "midi": 69,
      "hit": false,
      "t": 107999.89200000012,
      "d": 409.0905000000057,
      "v": 67
    },
    {
      "midi": 72,
      "hit": false,
      "t": 108408.98250000013,
      "d": 136.36350000000675,
      "v": 78
    },
    {
      "midi": 57,
      "hit": false,
      "t": 108545.34599999977,
      "d": 545.4539999999979,
      "v": 66
    },
    {
      "midi": 60,
      "hit": false,
      "t": 108545.34599999977,
      "d": 545.4539999999979,
      "v": 69
    },
    {
      "midi": 72,
      "hit": false,
      "t": 108545.34600000014,
      "d": 409.0905000000057,
      "v": 104
    },
    {
      "midi": 69,
      "hit": false,
      "t": 108954.43650000014,
      "d": 136.36350000000675,
      "v": 72
    },
    {
      "midi": 53,
      "hit": false,
      "t": 109090.79999999977,
      "d": 545.4539999999979,
      "v": 78
    },
    {
      "midi": 74,
      "hit": false,
      "t": 109090.80000000015,
      "d": 818.1809999999969,
      "v": 92
    },
    {
      "midi": 57,
      "hit": false,
      "t": 109636.25399999977,
      "d": 545.4539999999979,
      "v": 74
    },
    {
      "midi": 60,
      "hit": false,
      "t": 109636.25399999977,
      "d": 545.4539999999979,
      "v": 72
    },
    {
      "midi": 72,
      "hit": false,
      "t": 109908.98100000015,
      "d": 272.72699999999895,
      "v": 84
    },
    {
      "midi": 53,
      "hit": false,
      "t": 110181.70799999977,
      "d": 545.4539999999979,
      "v": 84
    },
    {
      "midi": 72,
      "hit": false,
      "t": 110181.70800000014,
      "d": 1090.9079999999958,
      "v": 74
    },
    {
      "midi": 57,
      "hit": false,
      "t": 110727.16199999976,
      "d": 545.4539999999979,
      "v": 66
    },
    {
      "midi": 60,
      "hit": false,
      "t": 110727.16199999976,
      "d": 545.4539999999979,
      "v": 65
    },
    {
      "midi": 50,
      "hit": false,
      "t": 111272.61599999976,
      "d": 545.4539999999979,
      "v": 84
    },
    {
      "midi": 53,
      "hit": false,
      "t": 111818.06999999976,
      "d": 545.4539999999979,
      "v": 68
    },
    {
      "midi": 57,
      "hit": false,
      "t": 111818.06999999976,
      "d": 545.4539999999979,
      "v": 76
    },
    {
      "midi": 50,
      "hit": false,
      "t": 112363.52399999976,
      "d": 545.4539999999979,
      "v": 82
    },
    {
      "midi": 69,
      "hit": false,
      "t": 112363.52400000014,
      "d": 409.0905000000057,
      "v": 89
    },
    {
      "midi": 70,
      "hit": false,
      "t": 112772.61450000014,
      "d": 136.36350000000675,
      "v": 74
    },
    {
      "midi": 53,
      "hit": false,
      "t": 112908.97799999976,
      "d": 545.4539999999979,
      "v": 72
    },
    {
      "midi": 57,
      "hit": false,
      "t": 112908.97799999976,
      "d": 545.4539999999979,
      "v": 76
    },
    {
      "midi": 69,
      "hit": false,
      "t": 112908.97800000015,
      "d": 545.4539999999979,
      "v": 101
    },
    {
      "midi": 43,
      "hit": false,
      "t": 113454.43199999975,
      "d": 545.4539999999979,
      "v": 84
    },
    {
      "midi": 69,
      "hit": false,
      "t": 113454.43200000015,
      "d": 272.72699999999895,
      "v": 78
    },
    {
      "midi": 67,
      "hit": false,
      "t": 113727.15900000015,
      "d": 1909.0889999999927,
      "v": 92
    },
    {
      "midi": 47,
      "hit": false,
      "t": 113999.88599999975,
      "d": 545.4539999999979,
      "v": 89
    },
    {
      "midi": 50,
      "hit": false,
      "t": 113999.88599999975,
      "d": 545.4539999999979,
      "v": 72
    },
    {
      "midi": 43,
      "hit": false,
      "t": 114545.33999999975,
      "d": 545.4539999999979,
      "v": 71
    },
    {
      "midi": 47,
      "hit": false,
      "t": 115090.79399999975,
      "d": 545.4539999999979,
      "v": 82
    },
    {
      "midi": 50,
      "hit": false,
      "t": 115090.79399999975,
      "d": 545.4539999999979,
      "v": 69
    },
    {
      "midi": 43,
      "hit": false,
      "t": 115636.24799999974,
      "d": 545.4539999999979,
      "v": 72
    },
    {
      "midi": 47,
      "hit": false,
      "t": 116181.70199999974,
      "d": 545.4539999999979,
      "v": 92
    },
    {
      "midi": 50,
      "hit": false,
      "t": 116181.70199999974,
      "d": 545.4539999999979,
      "v": 69
    },
    {
      "midi": 43,
      "hit": false,
      "t": 116727.15599999974,
      "d": 545.4539999999979,
      "v": 67
    },
    {
      "midi": 62,
      "hit": false,
      "t": 116727.15600000013,
      "d": 409.0905000000057,
      "v": 84
    },
    {
      "midi": 64,
      "hit": false,
      "t": 117136.24650000014,
      "d": 136.36350000000675,
      "v": 80
    },
    {
      "midi": 47,
      "hit": false,
      "t": 117272.60999999974,
      "d": 545.4539999999979,
      "v": 89
    },
    {
      "midi": 50,
      "hit": false,
      "t": 117272.60999999974,
      "d": 545.4539999999979,
      "v": 74
    },
    {
      "midi": 65,
      "hit": false,
      "t": 117272.61000000015,
      "d": 545.4539999999979,
      "v": 82
    },
    {
      "midi": 43,
      "hit": false,
      "t": 117818.06399999974,
      "d": 545.4539999999979,
      "v": 78
    },
    {
      "midi": 69,
      "hit": false,
      "t": 117818.06400000014,
      "d": 818.1809999999969,
      "v": 87
    },
    {
      "midi": 46,
      "hit": false,
      "t": 118363.51799999973,
      "d": 545.4539999999979,
      "v": 52
    },
    {
      "midi": 50,
      "hit": false,
      "t": 118363.51799999973,
      "d": 545.4539999999979,
      "v": 72
    },
    {
      "midi": 67,
      "hit": false,
      "t": 118636.24500000014,
      "d": 272.72699999999895,
      "v": 82
    },
    {
      "midi": 43,
      "hit": false,
      "t": 118908.97199999973,
      "d": 545.4539999999979,
      "v": 82
    },
    {
      "midi": 67,
      "hit": false,
      "t": 118908.97200000014,
      "d": 818.1809999999969,
      "v": 74
    },
    {
      "midi": 46,
      "hit": false,
      "t": 119454.42599999973,
      "d": 545.4539999999979,
      "v": 77
    },
    {
      "midi": 50,
      "hit": false,
      "t": 119454.42599999973,
      "d": 545.4539999999979,
      "v": 74
    },
    {
      "midi": 60,
      "hit": false,
      "t": 119727.15300000014,
      "d": 272.72699999999895,
      "v": 80
    },
    {
      "midi": 48,
      "hit": false,
      "t": 119999.87999999973,
      "d": 545.4539999999979,
      "v": 78
    },
    {
      "midi": 74,
      "hit": false,
      "t": 119999.88000000014,
      "d": 545.4539999999979,
      "v": 92
    },
    {
      "midi": 52,
      "hit": false,
      "t": 120545.33399999973,
      "d": 545.4539999999979,
      "v": 78
    },
    {
      "midi": 55,
      "hit": false,
      "t": 120545.33399999973,
      "d": 545.4539999999979,
      "v": 69
    },
    {
      "midi": 72,
      "hit": false,
      "t": 120545.33400000013,
      "d": 409.0905000000057,
      "v": 82
    },
    {
      "midi": 72,
      "hit": false,
      "t": 120954.42450000014,
      "d": 136.36350000000675,
      "v": 84
    },
    {
      "midi": 48,
      "hit": false,
      "t": 121090.78799999972,
      "d": 545.4539999999979,
      "v": 62
    },
    {
      "midi": 69,
      "hit": false,
      "t": 121090.78800000015,
      "d": 409.0905000000057,
      "v": 74
    },
    {
      "midi": 67,
      "hit": false,
      "t": 121499.87850000015,
      "d": 136.36350000000675,
      "v": 78
    },
    {
      "midi": 52,
      "hit": false,
      "t": 121636.24199999972,
      "d": 545.4539999999979,
      "v": 67
    },
    {
      "midi": 55,
      "hit": false,
      "t": 121636.24199999972,
      "d": 545.4539999999979,
      "v": 80
    },
    {
      "midi": 65,
      "hit": false,
      "t": 121636.24200000016,
      "d": 409.0905000000057,
      "v": 97
    },
    {
      "midi": 67,
      "hit": false,
      "t": 122045.33250000016,
      "d": 136.36350000000675,
      "v": 68
    },
    {
      "midi": 53,
      "hit": false,
      "t": 122181.69599999972,
      "d": 545.4539999999979,
      "v": 82
    },
    {
      "midi": 65,
      "hit": false,
      "t": 122181.69600000017,
      "d": 2181.816000000006,
      "v": 84
    },
    {
      "midi": 57,
      "hit": false,
      "t": 122727.14999999972,
      "d": 545.4539999999979,
      "v": 84
    },
    {
      "midi": 60,
      "hit": false,
      "t": 122727.14999999972,
      "d": 545.4539999999979,
      "v": 69
    },
    {
      "midi": 53,
      "hit": false,
      "t": 123272.60399999972,
      "d": 545.4539999999979,
      "v": 84
    },
    {
      "midi": 57,
      "hit": false,
      "t": 123818.05799999971,
      "d": 545.4539999999979,
      "v": 74
    },
    {
      "midi": 60,
      "hit": false,
      "t": 123818.05799999971,
      "d": 545.4539999999979,
      "v": 66
    },
    {
      "midi": 53,
      "hit": false,
      "t": 124363.51199999971,
      "d": 2181.816000000006,
      "v": 84
    }
  ]
}